<svg width="904" height="172" viewBox="0 0 904 172" fill="none" xmlns="http://www.w3.org/2000/svg">
<rect width="904" height="172" fill="#F1F1F1"/>
<rect width="752" height="68" transform="translate(76 80)" fill="white"/>
<path d="M97.434 107.434C99.2073 107.434 100.499 107.782 101.31 108.479C102.121 109.176 102.526 110.157 102.526 111.424C102.526 112.171 102.355 112.874 102.013 113.533C101.684 114.179 101.12 114.705 100.322 115.11C99.5367 115.515 98.4663 115.718 97.111 115.718H95.553V121H93.843V107.434H97.434ZM97.282 108.897H95.553V114.255H96.921C98.213 114.255 99.1757 114.046 99.809 113.628C100.442 113.21 100.759 112.501 100.759 111.5C100.759 110.626 100.474 109.974 99.904 109.543C99.3467 109.112 98.4727 108.897 97.282 108.897ZM108.976 110.645C110.217 110.645 111.136 110.917 111.731 111.462C112.326 112.007 112.624 112.874 112.624 114.065V121H111.408L111.085 119.556H111.009C110.566 120.113 110.097 120.525 109.603 120.791C109.109 121.057 108.438 121.19 107.589 121.19C106.664 121.19 105.898 120.949 105.29 120.468C104.682 119.974 104.378 119.208 104.378 118.169C104.378 117.156 104.777 116.377 105.575 115.832C106.373 115.275 107.602 114.971 109.261 114.92L110.99 114.863V114.255C110.99 113.406 110.806 112.817 110.439 112.488C110.072 112.159 109.552 111.994 108.881 111.994C108.349 111.994 107.842 112.076 107.361 112.241C106.88 112.393 106.43 112.57 106.012 112.773L105.499 111.519C105.942 111.278 106.468 111.076 107.076 110.911C107.684 110.734 108.317 110.645 108.976 110.645ZM110.971 116.022L109.47 116.079C108.203 116.13 107.323 116.332 106.829 116.687C106.348 117.042 106.107 117.542 106.107 118.188C106.107 118.758 106.278 119.176 106.62 119.442C106.975 119.708 107.424 119.841 107.969 119.841C108.818 119.841 109.527 119.607 110.097 119.138C110.68 118.657 110.971 117.922 110.971 116.934V116.022ZM119.379 110.626C120.051 110.626 120.652 110.753 121.184 111.006C121.729 111.259 122.191 111.646 122.571 112.165H122.666L122.894 110.816H124.224V121.171C124.224 122.628 123.851 123.723 123.103 124.458C122.369 125.193 121.222 125.56 119.664 125.56C118.17 125.56 116.947 125.345 115.997 124.914V123.375C116.998 123.907 118.252 124.173 119.759 124.173C120.633 124.173 121.317 123.913 121.811 123.394C122.318 122.887 122.571 122.191 122.571 121.304V120.905C122.571 120.753 122.578 120.538 122.59 120.259C122.603 119.968 122.616 119.765 122.628 119.651H122.552C121.868 120.677 120.817 121.19 119.398 121.19C118.081 121.19 117.049 120.728 116.301 119.803C115.567 118.878 115.199 117.586 115.199 115.927C115.199 114.306 115.567 113.02 116.301 112.07C117.049 111.107 118.075 110.626 119.379 110.626ZM119.607 112.032C118.759 112.032 118.1 112.374 117.631 113.058C117.163 113.729 116.928 114.692 116.928 115.946C116.928 117.2 117.156 118.163 117.612 118.834C118.068 119.493 118.746 119.822 119.645 119.822C120.671 119.822 121.419 119.55 121.887 119.005C122.356 118.448 122.59 117.555 122.59 116.326V115.927C122.59 114.546 122.35 113.552 121.868 112.944C121.387 112.336 120.633 112.032 119.607 112.032ZM131.392 110.626C132.253 110.626 133 110.816 133.634 111.196C134.267 111.576 134.748 112.114 135.078 112.811C135.42 113.495 135.591 114.299 135.591 115.224V116.231H128.618C128.643 117.384 128.934 118.264 129.492 118.872C130.062 119.467 130.853 119.765 131.867 119.765C132.513 119.765 133.083 119.708 133.577 119.594C134.083 119.467 134.603 119.29 135.135 119.062V120.525C134.615 120.753 134.102 120.918 133.596 121.019C133.089 121.133 132.487 121.19 131.791 121.19C130.815 121.19 129.96 120.994 129.226 120.601C128.491 120.208 127.915 119.626 127.497 118.853C127.091 118.08 126.889 117.124 126.889 115.984C126.889 114.869 127.072 113.913 127.44 113.115C127.82 112.317 128.345 111.703 129.017 111.272C129.701 110.841 130.492 110.626 131.392 110.626ZM131.373 111.994C130.575 111.994 129.941 112.254 129.473 112.773C129.017 113.28 128.744 113.989 128.656 114.901H133.843C133.83 114.04 133.627 113.343 133.235 112.811C132.842 112.266 132.221 111.994 131.373 111.994ZM147.641 121H145.931V108.935H141.694V107.434H151.859V108.935H147.641V121ZM154.532 106.997C154.785 106.997 155.007 107.086 155.197 107.263C155.399 107.428 155.501 107.694 155.501 108.061C155.501 108.428 155.399 108.701 155.197 108.878C155.007 109.043 154.785 109.125 154.532 109.125C154.253 109.125 154.019 109.043 153.829 108.878C153.639 108.701 153.544 108.428 153.544 108.061C153.544 107.694 153.639 107.428 153.829 107.263C154.019 107.086 154.253 106.997 154.532 106.997ZM155.349 110.816V121H153.677V110.816H155.349ZM161.976 119.822C162.229 119.822 162.489 119.803 162.755 119.765C163.021 119.727 163.236 119.676 163.401 119.613V120.886C163.224 120.975 162.97 121.044 162.641 121.095C162.312 121.158 161.995 121.19 161.691 121.19C161.159 121.19 160.665 121.101 160.209 120.924C159.766 120.734 159.405 120.411 159.126 119.955C158.847 119.499 158.708 118.859 158.708 118.036V112.108H157.264V111.31L158.727 110.645L159.392 108.479H160.38V110.816H163.325V112.108H160.38V117.998C160.38 118.619 160.526 119.081 160.817 119.385C161.121 119.676 161.507 119.822 161.976 119.822ZM167.112 121H165.44V106.56H167.112V121ZM174.272 110.626C175.133 110.626 175.88 110.816 176.514 111.196C177.147 111.576 177.628 112.114 177.958 112.811C178.3 113.495 178.471 114.299 178.471 115.224V116.231H171.498C171.523 117.384 171.814 118.264 172.372 118.872C172.942 119.467 173.733 119.765 174.747 119.765C175.393 119.765 175.963 119.708 176.457 119.594C176.963 119.467 177.483 119.29 178.015 119.062V120.525C177.495 120.753 176.982 120.918 176.476 121.019C175.969 121.133 175.367 121.19 174.671 121.19C173.695 121.19 172.84 120.994 172.106 120.601C171.371 120.208 170.795 119.626 170.377 118.853C169.971 118.08 169.769 117.124 169.769 115.984C169.769 114.869 169.952 113.913 170.32 113.115C170.7 112.317 171.225 111.703 171.897 111.272C172.581 110.841 173.372 110.626 174.272 110.626ZM174.253 111.994C173.455 111.994 172.821 112.254 172.353 112.773C171.897 113.28 171.624 113.989 171.536 114.901H176.723C176.71 114.04 176.507 113.343 176.115 112.811C175.722 112.266 175.101 111.994 174.253 111.994ZM191.129 121H189.495V111.519C189.495 110.974 189.501 110.537 189.514 110.208C189.526 109.879 189.545 109.537 189.571 109.182C189.368 109.385 189.178 109.556 189.001 109.695C188.836 109.834 188.633 110.012 188.393 110.227L186.949 111.405L186.075 110.284L189.742 107.434H191.129V121Z" fill="#1B77AF"/>
<path d="M210.878 107.434L205.824 121H204.19L209.244 107.434H210.878Z" fill="black"/>
<rect x="220.5" y="102.5" width="23" height="23" rx="1.5" fill="url(#paint0_angular_8419_356425)"/>
<path d="M232.1 115C232.652 115 233.1 114.552 233.1 114C233.1 113.448 232.652 113 232.1 113C231.548 113 231.1 113.448 231.1 114C231.1 114.552 231.548 115 232.1 115Z" fill="#155E8B"/>
<path d="M227.5 115C228.052 115 228.5 114.552 228.5 114C228.5 113.448 228.052 113 227.5 113C226.948 113 226.5 113.448 226.5 114C226.5 114.552 226.948 115 227.5 115Z" fill="#155E8B"/>
<path d="M236.7 115C237.252 115 237.7 114.552 237.7 114C237.7 113.448 237.252 113 236.7 113C236.148 113 235.7 113.448 235.7 114C235.7 114.552 236.148 115 236.7 115Z" fill="#155E8B"/>
<rect x="220.5" y="102.5" width="23" height="23" rx="1.5" stroke="#155E8B"/>
<path d="M258.878 107.434L253.824 121H252.19L257.244 107.434H258.878Z" fill="black"/>
<path d="M273.434 107.434C275.207 107.434 276.499 107.782 277.31 108.479C278.121 109.176 278.526 110.157 278.526 111.424C278.526 112.171 278.355 112.874 278.013 113.533C277.684 114.179 277.12 114.705 276.322 115.11C275.537 115.515 274.466 115.718 273.111 115.718H271.553V121H269.843V107.434H273.434ZM273.282 108.897H271.553V114.255H272.921C274.213 114.255 275.176 114.046 275.809 113.628C276.442 113.21 276.759 112.501 276.759 111.5C276.759 110.626 276.474 109.974 275.904 109.543C275.347 109.112 274.473 108.897 273.282 108.897ZM284.976 110.645C286.217 110.645 287.136 110.917 287.731 111.462C288.326 112.007 288.624 112.874 288.624 114.065V121H287.408L287.085 119.556H287.009C286.566 120.113 286.097 120.525 285.603 120.791C285.109 121.057 284.438 121.19 283.589 121.19C282.664 121.19 281.898 120.949 281.29 120.468C280.682 119.974 280.378 119.208 280.378 118.169C280.378 117.156 280.777 116.377 281.575 115.832C282.373 115.275 283.602 114.971 285.261 114.92L286.99 114.863V114.255C286.99 113.406 286.806 112.817 286.439 112.488C286.072 112.159 285.552 111.994 284.881 111.994C284.349 111.994 283.842 112.076 283.361 112.241C282.88 112.393 282.43 112.57 282.012 112.773L281.499 111.519C281.942 111.278 282.468 111.076 283.076 110.911C283.684 110.734 284.317 110.645 284.976 110.645ZM286.971 116.022L285.47 116.079C284.203 116.13 283.323 116.332 282.829 116.687C282.348 117.042 282.107 117.542 282.107 118.188C282.107 118.758 282.278 119.176 282.62 119.442C282.975 119.708 283.424 119.841 283.969 119.841C284.818 119.841 285.527 119.607 286.097 119.138C286.68 118.657 286.971 117.922 286.971 116.934V116.022ZM295.379 110.626C296.051 110.626 296.652 110.753 297.184 111.006C297.729 111.259 298.191 111.646 298.571 112.165H298.666L298.894 110.816H300.224V121.171C300.224 122.628 299.851 123.723 299.103 124.458C298.369 125.193 297.222 125.56 295.664 125.56C294.17 125.56 292.947 125.345 291.997 124.914V123.375C292.998 123.907 294.252 124.173 295.759 124.173C296.633 124.173 297.317 123.913 297.811 123.394C298.318 122.887 298.571 122.191 298.571 121.304V120.905C298.571 120.753 298.578 120.538 298.59 120.259C298.603 119.968 298.616 119.765 298.628 119.651H298.552C297.868 120.677 296.817 121.19 295.398 121.19C294.081 121.19 293.049 120.728 292.301 119.803C291.567 118.878 291.199 117.586 291.199 115.927C291.199 114.306 291.567 113.02 292.301 112.07C293.049 111.107 294.075 110.626 295.379 110.626ZM295.607 112.032C294.759 112.032 294.1 112.374 293.631 113.058C293.163 113.729 292.928 114.692 292.928 115.946C292.928 117.2 293.156 118.163 293.612 118.834C294.068 119.493 294.746 119.822 295.645 119.822C296.671 119.822 297.419 119.55 297.887 119.005C298.356 118.448 298.59 117.555 298.59 116.326V115.927C298.59 114.546 298.35 113.552 297.868 112.944C297.387 112.336 296.633 112.032 295.607 112.032ZM307.392 110.626C308.253 110.626 309 110.816 309.634 111.196C310.267 111.576 310.748 112.114 311.078 112.811C311.42 113.495 311.591 114.299 311.591 115.224V116.231H304.618C304.643 117.384 304.934 118.264 305.492 118.872C306.062 119.467 306.853 119.765 307.867 119.765C308.513 119.765 309.083 119.708 309.577 119.594C310.083 119.467 310.603 119.29 311.135 119.062V120.525C310.615 120.753 310.102 120.918 309.596 121.019C309.089 121.133 308.487 121.19 307.791 121.19C306.815 121.19 305.96 120.994 305.226 120.601C304.491 120.208 303.915 119.626 303.497 118.853C303.091 118.08 302.889 117.124 302.889 115.984C302.889 114.869 303.072 113.913 303.44 113.115C303.82 112.317 304.345 111.703 305.017 111.272C305.701 110.841 306.492 110.626 307.392 110.626ZM307.373 111.994C306.575 111.994 305.941 112.254 305.473 112.773C305.017 113.28 304.744 113.989 304.656 114.901H309.843C309.83 114.04 309.627 113.343 309.235 112.811C308.842 112.266 308.221 111.994 307.373 111.994ZM323.641 121H321.931V108.935H317.694V107.434H327.859V108.935H323.641V121ZM330.532 106.997C330.785 106.997 331.007 107.086 331.197 107.263C331.399 107.428 331.501 107.694 331.501 108.061C331.501 108.428 331.399 108.701 331.197 108.878C331.007 109.043 330.785 109.125 330.532 109.125C330.253 109.125 330.019 109.043 329.829 108.878C329.639 108.701 329.544 108.428 329.544 108.061C329.544 107.694 329.639 107.428 329.829 107.263C330.019 107.086 330.253 106.997 330.532 106.997ZM331.349 110.816V121H329.677V110.816H331.349ZM337.976 119.822C338.229 119.822 338.489 119.803 338.755 119.765C339.021 119.727 339.236 119.676 339.401 119.613V120.886C339.224 120.975 338.97 121.044 338.641 121.095C338.312 121.158 337.995 121.19 337.691 121.19C337.159 121.19 336.665 121.101 336.209 120.924C335.766 120.734 335.405 120.411 335.126 119.955C334.847 119.499 334.708 118.859 334.708 118.036V112.108H333.264V111.31L334.727 110.645L335.392 108.479H336.38V110.816H339.325V112.108H336.38V117.998C336.38 118.619 336.526 119.081 336.817 119.385C337.121 119.676 337.507 119.822 337.976 119.822ZM343.112 121H341.44V106.56H343.112V121ZM350.272 110.626C351.133 110.626 351.88 110.816 352.514 111.196C353.147 111.576 353.628 112.114 353.958 112.811C354.3 113.495 354.471 114.299 354.471 115.224V116.231H347.498C347.523 117.384 347.814 118.264 348.372 118.872C348.942 119.467 349.733 119.765 350.747 119.765C351.393 119.765 351.963 119.708 352.457 119.594C352.963 119.467 353.483 119.29 354.015 119.062V120.525C353.495 120.753 352.982 120.918 352.476 121.019C351.969 121.133 351.367 121.19 350.671 121.19C349.695 121.19 348.84 120.994 348.106 120.601C347.371 120.208 346.795 119.626 346.377 118.853C345.971 118.08 345.769 117.124 345.769 115.984C345.769 114.869 345.952 113.913 346.32 113.115C346.7 112.317 347.225 111.703 347.897 111.272C348.581 110.841 349.372 110.626 350.272 110.626ZM350.253 111.994C349.455 111.994 348.821 112.254 348.353 112.773C347.897 113.28 347.624 113.989 347.536 114.901H352.723C352.71 114.04 352.507 113.343 352.115 112.811C351.722 112.266 351.101 111.994 350.253 111.994ZM361.429 115.205C361.429 114.23 361.511 113.273 361.676 112.336C361.853 111.386 362.163 110.531 362.607 109.771C363.063 108.998 363.696 108.384 364.507 107.928C365.317 107.472 366.362 107.244 367.642 107.244C367.908 107.244 368.199 107.257 368.516 107.282C368.845 107.307 369.111 107.352 369.314 107.415V108.84C369.086 108.764 368.826 108.707 368.535 108.669C368.243 108.631 367.958 108.612 367.68 108.612C366.806 108.612 366.077 108.758 365.495 109.049C364.912 109.34 364.45 109.739 364.108 110.246C363.778 110.753 363.538 111.335 363.386 111.994C363.234 112.653 363.139 113.356 363.101 114.103H363.215C363.506 113.66 363.911 113.286 364.431 112.982C364.95 112.665 365.615 112.507 366.426 112.507C367.604 112.507 368.554 112.868 369.276 113.59C369.998 114.299 370.359 115.313 370.359 116.63C370.359 118.049 369.966 119.163 369.181 119.974C368.408 120.785 367.363 121.19 366.046 121.19C365.184 121.19 364.405 120.975 363.709 120.544C363.012 120.113 362.455 119.455 362.037 118.568C361.631 117.681 361.429 116.56 361.429 115.205ZM366.027 119.784C366.825 119.784 367.471 119.531 367.965 119.024C368.459 118.505 368.706 117.707 368.706 116.63C368.706 115.769 368.484 115.085 368.041 114.578C367.61 114.071 366.958 113.818 366.084 113.818C365.488 113.818 364.969 113.945 364.526 114.198C364.082 114.439 363.734 114.755 363.481 115.148C363.24 115.528 363.12 115.914 363.12 116.307C363.12 116.852 363.227 117.396 363.443 117.941C363.658 118.473 363.981 118.916 364.412 119.271C364.842 119.613 365.381 119.784 366.027 119.784Z" fill="#1B77AF"/>
<path d="M386.878 107.434L381.824 121H380.19L385.244 107.434H386.878Z" fill="black"/>
<path d="M397.843 121V107.434H399.553V119.48H405.481V121H397.843ZM411.436 110.645C412.677 110.645 413.596 110.917 414.191 111.462C414.786 112.007 415.084 112.874 415.084 114.065V121H413.868L413.545 119.556H413.469C413.026 120.113 412.557 120.525 412.063 120.791C411.569 121.057 410.898 121.19 410.049 121.19C409.124 121.19 408.358 120.949 407.75 120.468C407.142 119.974 406.838 119.208 406.838 118.169C406.838 117.156 407.237 116.377 408.035 115.832C408.833 115.275 410.062 114.971 411.721 114.92L413.45 114.863V114.255C413.45 113.406 413.266 112.817 412.899 112.488C412.532 112.159 412.012 111.994 411.341 111.994C410.809 111.994 410.302 112.076 409.821 112.241C409.34 112.393 408.89 112.57 408.472 112.773L407.959 111.519C408.402 111.278 408.928 111.076 409.536 110.911C410.144 110.734 410.777 110.645 411.436 110.645ZM413.431 116.022L411.93 116.079C410.663 116.13 409.783 116.332 409.289 116.687C408.808 117.042 408.567 117.542 408.567 118.188C408.567 118.758 408.738 119.176 409.08 119.442C409.435 119.708 409.884 119.841 410.429 119.841C411.278 119.841 411.987 119.607 412.557 119.138C413.14 118.657 413.431 117.922 413.431 116.934V116.022ZM424.86 118.188C424.86 119.176 424.493 119.923 423.758 120.43C423.024 120.937 422.036 121.19 420.794 121.19C420.085 121.19 419.471 121.133 418.951 121.019C418.445 120.905 417.995 120.747 417.602 120.544V119.024C418.008 119.227 418.495 119.417 419.065 119.594C419.648 119.759 420.237 119.841 420.832 119.841C421.681 119.841 422.295 119.708 422.675 119.442C423.055 119.163 423.245 118.796 423.245 118.34C423.245 118.087 423.176 117.859 423.036 117.656C422.897 117.453 422.644 117.251 422.276 117.048C421.922 116.845 421.409 116.617 420.737 116.364C420.079 116.111 419.515 115.857 419.046 115.604C418.578 115.351 418.217 115.047 417.963 114.692C417.71 114.337 417.583 113.881 417.583 113.324C417.583 112.463 417.932 111.798 418.628 111.329C419.338 110.86 420.262 110.626 421.402 110.626C422.023 110.626 422.599 110.689 423.131 110.816C423.676 110.943 424.183 111.107 424.651 111.31L424.081 112.64C423.651 112.463 423.201 112.311 422.732 112.184C422.264 112.057 421.782 111.994 421.288 111.994C420.604 111.994 420.079 112.108 419.711 112.336C419.357 112.551 419.179 112.849 419.179 113.229C419.179 113.52 419.262 113.761 419.426 113.951C419.591 114.141 419.863 114.331 420.243 114.521C420.636 114.711 421.155 114.926 421.801 115.167C422.447 115.408 422.998 115.655 423.454 115.908C423.91 116.161 424.259 116.472 424.499 116.839C424.74 117.194 424.86 117.643 424.86 118.188ZM430.722 119.822C430.975 119.822 431.235 119.803 431.501 119.765C431.767 119.727 431.982 119.676 432.147 119.613V120.886C431.97 120.975 431.716 121.044 431.387 121.095C431.058 121.158 430.741 121.19 430.437 121.19C429.905 121.19 429.411 121.101 428.955 120.924C428.512 120.734 428.151 120.411 427.872 119.955C427.593 119.499 427.454 118.859 427.454 118.036V112.108H426.01V111.31L427.473 110.645L428.138 108.479H429.126V110.816H432.071V112.108H429.126V117.998C429.126 118.619 429.272 119.081 429.563 119.385C429.867 119.676 430.253 119.822 430.722 119.822ZM442.941 107.434C444.714 107.434 446.006 107.782 446.817 108.479C447.628 109.176 448.033 110.157 448.033 111.424C448.033 112.171 447.862 112.874 447.52 113.533C447.191 114.179 446.627 114.705 445.829 115.11C445.044 115.515 443.973 115.718 442.618 115.718H441.06V121H439.35V107.434H442.941ZM442.789 108.897H441.06V114.255H442.428C443.72 114.255 444.683 114.046 445.316 113.628C445.949 113.21 446.266 112.501 446.266 111.5C446.266 110.626 445.981 109.974 445.411 109.543C444.854 109.112 443.98 108.897 442.789 108.897ZM454.483 110.645C455.724 110.645 456.642 110.917 457.238 111.462C457.833 112.007 458.131 112.874 458.131 114.065V121H456.915L456.592 119.556H456.516C456.072 120.113 455.604 120.525 455.11 120.791C454.616 121.057 453.944 121.19 453.096 121.19C452.171 121.19 451.405 120.949 450.797 120.468C450.189 119.974 449.885 119.208 449.885 118.169C449.885 117.156 450.284 116.377 451.082 115.832C451.88 115.275 453.108 114.971 454.768 114.92L456.497 114.863V114.255C456.497 113.406 456.313 112.817 455.946 112.488C455.578 112.159 455.059 111.994 454.388 111.994C453.856 111.994 453.349 112.076 452.868 112.241C452.386 112.393 451.937 112.57 451.519 112.773L451.006 111.519C451.449 111.278 451.975 111.076 452.583 110.911C453.191 110.734 453.824 110.645 454.483 110.645ZM456.478 116.022L454.977 116.079C453.71 116.13 452.83 116.332 452.336 116.687C451.854 117.042 451.614 117.542 451.614 118.188C451.614 118.758 451.785 119.176 452.127 119.442C452.481 119.708 452.931 119.841 453.476 119.841C454.324 119.841 455.034 119.607 455.604 119.138C456.186 118.657 456.478 117.922 456.478 116.934V116.022ZM464.886 110.626C465.557 110.626 466.159 110.753 466.691 111.006C467.236 111.259 467.698 111.646 468.078 112.165H468.173L468.401 110.816H469.731V121.171C469.731 122.628 469.357 123.723 468.61 124.458C467.875 125.193 466.729 125.56 465.171 125.56C463.676 125.56 462.454 125.345 461.504 124.914V123.375C462.505 123.907 463.759 124.173 465.266 124.173C466.14 124.173 466.824 123.913 467.318 123.394C467.825 122.887 468.078 122.191 468.078 121.304V120.905C468.078 120.753 468.084 120.538 468.097 120.259C468.11 119.968 468.122 119.765 468.135 119.651H468.059C467.375 120.677 466.324 121.19 464.905 121.19C463.588 121.19 462.555 120.728 461.808 119.803C461.073 118.878 460.706 117.586 460.706 115.927C460.706 114.306 461.073 113.02 461.808 112.07C462.555 111.107 463.581 110.626 464.886 110.626ZM465.114 112.032C464.265 112.032 463.607 112.374 463.138 113.058C462.669 113.729 462.435 114.692 462.435 115.946C462.435 117.2 462.663 118.163 463.119 118.834C463.575 119.493 464.253 119.822 465.152 119.822C466.178 119.822 466.925 119.55 467.394 119.005C467.863 118.448 468.097 117.555 468.097 116.326V115.927C468.097 114.546 467.856 113.552 467.375 112.944C466.894 112.336 466.14 112.032 465.114 112.032ZM476.899 110.626C477.76 110.626 478.507 110.816 479.141 111.196C479.774 111.576 480.255 112.114 480.585 112.811C480.927 113.495 481.098 114.299 481.098 115.224V116.231H474.125C474.15 117.384 474.441 118.264 474.999 118.872C475.569 119.467 476.36 119.765 477.374 119.765C478.02 119.765 478.59 119.708 479.084 119.594C479.59 119.467 480.11 119.29 480.642 119.062V120.525C480.122 120.753 479.609 120.918 479.103 121.019C478.596 121.133 477.994 121.19 477.298 121.19C476.322 121.19 475.467 120.994 474.733 120.601C473.998 120.208 473.422 119.626 473.004 118.853C472.598 118.08 472.396 117.124 472.396 115.984C472.396 114.869 472.579 113.913 472.947 113.115C473.327 112.317 473.852 111.703 474.524 111.272C475.208 110.841 475.999 110.626 476.899 110.626ZM476.88 111.994C476.082 111.994 475.448 112.254 474.98 112.773C474.524 113.28 474.251 113.989 474.163 114.901H479.35C479.337 114.04 479.134 113.343 478.742 112.811C478.349 112.266 477.728 111.994 476.88 111.994ZM493.148 121H491.438V108.935H487.201V107.434H497.366V108.935H493.148V121ZM500.038 106.997C500.292 106.997 500.513 107.086 500.703 107.263C500.906 107.428 501.007 107.694 501.007 108.061C501.007 108.428 500.906 108.701 500.703 108.878C500.513 109.043 500.292 109.125 500.038 109.125C499.76 109.125 499.525 109.043 499.335 108.878C499.145 108.701 499.05 108.428 499.05 108.061C499.05 107.694 499.145 107.428 499.335 107.263C499.525 107.086 499.76 106.997 500.038 106.997ZM500.855 110.816V121H499.183V110.816H500.855ZM503.835 119.974C503.835 119.505 503.949 119.176 504.177 118.986C504.405 118.796 504.677 118.701 504.994 118.701C505.31 118.701 505.589 118.796 505.83 118.986C506.07 119.176 506.191 119.505 506.191 119.974C506.191 120.43 506.07 120.759 505.83 120.962C505.589 121.165 505.31 121.266 504.994 121.266C504.677 121.266 504.405 121.165 504.177 120.962C503.949 120.759 503.835 120.43 503.835 119.974ZM508.919 119.974C508.919 119.505 509.033 119.176 509.261 118.986C509.489 118.796 509.761 118.701 510.078 118.701C510.394 118.701 510.673 118.796 510.914 118.986C511.154 119.176 511.275 119.505 511.275 119.974C511.275 120.43 511.154 120.759 510.914 120.962C510.673 121.165 510.394 121.266 510.078 121.266C509.761 121.266 509.489 121.165 509.261 120.962C509.033 120.759 508.919 120.43 508.919 119.974ZM514.003 119.974C514.003 119.505 514.117 119.176 514.345 118.986C514.573 118.796 514.845 118.701 515.162 118.701C515.478 118.701 515.757 118.796 515.998 118.986C516.238 119.176 516.359 119.505 516.359 119.974C516.359 120.43 516.238 120.759 515.998 120.962C515.757 121.165 515.478 121.266 515.162 121.266C514.845 121.266 514.573 121.165 514.345 120.962C514.117 120.759 514.003 120.43 514.003 119.974Z" fill="black"/>
<rect x="736" y="96" width="76" height="36" rx="2" fill="#1B77AF"/>
<path d="M765.528 116.326C765.528 117.213 765.206 117.903 764.562 118.398C763.918 118.893 763.05 119.14 761.958 119.14C761.398 119.14 760.88 119.098 760.404 119.014C759.928 118.93 759.531 118.813 759.214 118.664V117.46C759.55 117.609 759.965 117.745 760.46 117.866C760.964 117.987 761.482 118.048 762.014 118.048C762.751 118.048 763.311 117.903 763.694 117.614C764.077 117.325 764.268 116.933 764.268 116.438C764.268 116.111 764.198 115.836 764.058 115.612C763.918 115.388 763.675 115.183 763.33 114.996C762.985 114.809 762.513 114.604 761.916 114.38C761.057 114.072 760.413 113.694 759.984 113.246C759.555 112.798 759.34 112.187 759.34 111.412C759.34 110.889 759.475 110.437 759.746 110.054C760.017 109.671 760.39 109.377 760.866 109.172C761.342 108.967 761.897 108.864 762.532 108.864C763.073 108.864 763.573 108.915 764.03 109.018C764.487 109.121 764.907 109.256 765.29 109.424L764.898 110.502C764.553 110.353 764.175 110.227 763.764 110.124C763.353 110.021 762.933 109.97 762.504 109.97C761.879 109.97 761.407 110.105 761.09 110.376C760.773 110.637 760.614 110.987 760.614 111.426C760.614 111.762 760.684 112.042 760.824 112.266C760.964 112.49 761.193 112.695 761.51 112.882C761.827 113.059 762.257 113.246 762.798 113.442C763.386 113.657 763.881 113.89 764.282 114.142C764.693 114.385 765.001 114.679 765.206 115.024C765.421 115.369 765.528 115.803 765.528 116.326ZM770.216 111.37C771.13 111.37 771.807 111.571 772.246 111.972C772.684 112.373 772.904 113.013 772.904 113.89V119H772.008L771.77 117.936H771.714C771.387 118.347 771.042 118.65 770.678 118.846C770.314 119.042 769.819 119.14 769.194 119.14C768.512 119.14 767.948 118.963 767.5 118.608C767.052 118.244 766.828 117.679 766.828 116.914C766.828 116.167 767.122 115.593 767.71 115.192C768.298 114.781 769.203 114.557 770.426 114.52L771.7 114.478V114.03C771.7 113.405 771.564 112.971 771.294 112.728C771.023 112.485 770.64 112.364 770.146 112.364C769.754 112.364 769.38 112.425 769.026 112.546C768.671 112.658 768.34 112.789 768.032 112.938L767.654 112.014C767.98 111.837 768.368 111.687 768.816 111.566C769.264 111.435 769.73 111.37 770.216 111.37ZM771.686 115.332L770.58 115.374C769.646 115.411 768.998 115.561 768.634 115.822C768.279 116.083 768.102 116.452 768.102 116.928C768.102 117.348 768.228 117.656 768.48 117.852C768.741 118.048 769.072 118.146 769.474 118.146C770.099 118.146 770.622 117.973 771.042 117.628C771.471 117.273 771.686 116.732 771.686 116.004V115.332ZM776.873 119L774.031 111.496H775.347L776.943 115.92C777.018 116.125 777.097 116.354 777.181 116.606C777.265 116.858 777.34 117.101 777.405 117.334C777.471 117.567 777.517 117.759 777.545 117.908H777.601C777.629 117.759 777.681 117.567 777.755 117.334C777.83 117.091 777.909 116.849 777.993 116.606C778.077 116.354 778.157 116.125 778.231 115.92L779.827 111.496H781.143L778.287 119H776.873ZM785.229 111.356C785.863 111.356 786.414 111.496 786.881 111.776C787.347 112.056 787.702 112.453 787.945 112.966C788.197 113.47 788.323 114.063 788.323 114.744V115.486H783.185C783.203 116.335 783.418 116.984 783.829 117.432C784.249 117.871 784.832 118.09 785.579 118.09C786.055 118.09 786.475 118.048 786.839 117.964C787.212 117.871 787.595 117.74 787.987 117.572V118.65C787.604 118.818 787.226 118.939 786.853 119.014C786.479 119.098 786.036 119.14 785.523 119.14C784.804 119.14 784.174 118.995 783.633 118.706C783.091 118.417 782.667 117.987 782.359 117.418C782.06 116.849 781.911 116.144 781.911 115.304C781.911 114.483 782.046 113.778 782.317 113.19C782.597 112.602 782.984 112.149 783.479 111.832C783.983 111.515 784.566 111.356 785.229 111.356ZM785.215 112.364C784.627 112.364 784.16 112.555 783.815 112.938C783.479 113.311 783.278 113.834 783.213 114.506H787.035C787.025 113.871 786.876 113.358 786.587 112.966C786.297 112.565 785.84 112.364 785.215 112.364Z" fill="white"/>
<circle cx="144" cy="52" r="12" fill="#D51588"/>
<path d="M145.968 57H144.204V50.77C144.204 50.4713 144.209 50.154 144.218 49.818C144.227 49.482 144.241 49.1693 144.26 48.88C144.167 48.9733 144.05 49.0853 143.91 49.216C143.779 49.3467 143.635 49.4727 143.476 49.594L142.356 50.49L141.474 49.398L144.498 47.004H145.968V57Z" fill="white"/>
<path d="M144 64V96" stroke="#D51588"/>
<circle cx="452" cy="52" r="12" fill="#D51588"/>
<path d="M452.568 50.714C453.203 50.714 453.763 50.8307 454.248 51.064C454.733 51.2973 455.111 51.638 455.382 52.086C455.662 52.5247 455.802 53.066 455.802 53.71C455.802 54.7833 455.466 55.6233 454.794 56.23C454.131 56.8367 453.17 57.14 451.91 57.14C451.387 57.14 450.893 57.0933 450.426 57C449.969 56.9067 449.577 56.7713 449.25 56.594V55.026C449.595 55.2127 450.006 55.3667 450.482 55.488C450.967 55.6093 451.429 55.67 451.868 55.67C452.531 55.67 453.049 55.5253 453.422 55.236C453.805 54.9467 453.996 54.494 453.996 53.878C453.996 53.3273 453.819 52.9073 453.464 52.618C453.109 52.3193 452.559 52.17 451.812 52.17C451.541 52.17 451.257 52.1933 450.958 52.24C450.659 52.2867 450.412 52.3333 450.216 52.38L449.46 51.96L449.838 47.004H455.102V48.544H451.392L451.182 50.854C451.341 50.826 451.527 50.798 451.742 50.77C451.966 50.7327 452.241 50.714 452.568 50.714Z" fill="white"/>
<path d="M452 64V96" stroke="#D51588"/>
<circle cx="511" cy="52" r="12" fill="#D51588"/>
<path d="M508.096 52.744C508.096 52.1653 508.133 51.596 508.208 51.036C508.292 50.476 508.437 49.9487 508.642 49.454C508.847 48.95 509.132 48.5067 509.496 48.124C509.86 47.732 510.322 47.4287 510.882 47.214C511.451 46.99 512.137 46.878 512.94 46.878C513.136 46.878 513.36 46.8873 513.612 46.906C513.864 46.9247 514.074 46.9527 514.242 46.99V48.446C513.878 48.3433 513.477 48.292 513.038 48.292C512.198 48.292 511.545 48.446 511.078 48.754C510.611 49.0527 510.285 49.468 510.098 50C509.911 50.5227 509.799 51.1107 509.762 51.764H509.846C510.042 51.4373 510.322 51.162 510.686 50.938C511.05 50.7047 511.521 50.588 512.1 50.588C512.968 50.588 513.663 50.8587 514.186 51.4C514.709 51.9413 514.97 52.7113 514.97 53.71C514.97 54.7833 514.671 55.6233 514.074 56.23C513.477 56.8367 512.669 57.14 511.652 57.14C510.989 57.14 510.387 56.9813 509.846 56.664C509.314 56.3467 508.889 55.866 508.572 55.222C508.255 54.5687 508.096 53.7427 508.096 52.744ZM511.624 55.698C512.1 55.698 512.487 55.5393 512.786 55.222C513.085 54.8953 513.234 54.396 513.234 53.724C513.234 53.1827 513.103 52.758 512.842 52.45C512.581 52.1327 512.189 51.974 511.666 51.974C511.302 51.974 510.985 52.0533 510.714 52.212C510.453 52.3613 510.247 52.5573 510.098 52.8C509.949 53.0333 509.874 53.276 509.874 53.528C509.874 53.8733 509.939 54.214 510.07 54.55C510.201 54.8767 510.392 55.152 510.644 55.376C510.905 55.5907 511.232 55.698 511.624 55.698Z" fill="white"/>
<path d="M511 64V96" stroke="#D51588"/>
<circle cx="232" cy="52" r="12" fill="#D51588"/>
<path d="M235.942 57H229.096V55.698L231.644 53.122C232.148 52.6087 232.559 52.17 232.876 51.806C233.203 51.442 233.441 51.1013 233.59 50.784C233.749 50.4573 233.828 50.1073 233.828 49.734C233.828 49.2767 233.697 48.936 233.436 48.712C233.184 48.4787 232.839 48.362 232.4 48.362C231.98 48.362 231.588 48.4507 231.224 48.628C230.86 48.796 230.482 49.0387 230.09 49.356L229.124 48.194C229.535 47.8393 229.997 47.5313 230.51 47.27C231.033 46.9993 231.695 46.864 232.498 46.864C233.142 46.864 233.693 46.9807 234.15 47.214C234.617 47.438 234.976 47.7553 235.228 48.166C235.48 48.5673 235.606 49.0293 235.606 49.552C235.606 50.0933 235.499 50.5927 235.284 51.05C235.069 51.498 234.757 51.9507 234.346 52.408C233.945 52.856 233.464 53.3413 232.904 53.864L231.322 55.39V55.474H235.942V57Z" fill="white"/>
<path d="M232 64V96" stroke="#D51588"/>
<circle cx="384" cy="52" r="12" fill="#D51588"/>
<path d="M388.25 54.858H386.948V57H385.212V54.858H380.76V53.542L385.254 46.976H386.948V53.416H388.25V54.858ZM385.212 53.416V51.176C385.212 50.9147 385.217 50.644 385.226 50.364C385.235 50.0747 385.245 49.8087 385.254 49.566C385.273 49.314 385.287 49.1227 385.296 48.992H385.24C385.156 49.1787 385.063 49.3653 384.96 49.552C384.867 49.7293 384.759 49.9067 384.638 50.084L382.37 53.416H385.212Z" fill="white"/>
<path d="M384 64V96" stroke="#D51588"/>
<circle cx="320" cy="52" r="12" fill="#D51588"/>
<path d="M323.55 49.286C323.55 49.9673 323.349 50.5133 322.948 50.924C322.556 51.3253 322.047 51.596 321.422 51.736V51.778C322.225 51.8807 322.831 52.1327 323.242 52.534C323.653 52.9353 323.858 53.4627 323.858 54.116C323.858 54.6947 323.718 55.2127 323.438 55.67C323.158 56.1273 322.724 56.4867 322.136 56.748C321.557 57.0093 320.811 57.14 319.896 57.14C319.345 57.14 318.837 57.0933 318.37 57C317.913 56.916 317.479 56.7807 317.068 56.594V55.04C317.488 55.2547 317.936 55.418 318.412 55.53C318.888 55.642 319.336 55.698 319.756 55.698C320.568 55.698 321.142 55.5533 321.478 55.264C321.814 54.9653 321.982 54.5547 321.982 54.032C321.982 53.5373 321.786 53.1687 321.394 52.926C321.002 52.6833 320.349 52.562 319.434 52.562H318.594V51.148H319.448C320.335 51.148 320.946 51.0033 321.282 50.714C321.618 50.4247 321.786 50.0513 321.786 49.594C321.786 49.1927 321.655 48.88 321.394 48.656C321.133 48.432 320.741 48.32 320.218 48.32C319.714 48.32 319.28 48.404 318.916 48.572C318.552 48.7307 318.225 48.9033 317.936 49.09L317.096 47.872C317.479 47.592 317.931 47.354 318.454 47.158C318.977 46.962 319.593 46.864 320.302 46.864C321.338 46.864 322.136 47.0833 322.696 47.522C323.265 47.9607 323.55 48.5487 323.55 49.286Z" fill="white"/>
<path d="M320 64V96" stroke="#D51588"/>
<circle cx="774" cy="52" r="12" fill="#D51588"/>
<path d="M772.174 57L776.066 48.53H770.956V47.004H777.956V48.194L774.064 57H772.174Z" fill="white"/>
<path d="M774 64V96" stroke="#D51588"/>
<defs>
<radialGradient id="paint0_angular_8419_356425" cx="0" cy="0" r="1" gradientUnits="userSpaceOnUse" gradientTransform="translate(226.092 102) rotate(48.3339) scale(26.9374 1.25876e-06)">
<stop stop-color="white"/>
<stop offset="1" stop-color="#DDDDDD"/>
</radialGradient>
</defs>
</svg>
