<svg width="904" height="201" viewBox="0 0 904 201" fill="none" xmlns="http://www.w3.org/2000/svg">
<rect width="904" height="192" fill="#F1F1F1"/>
<rect width="720" height="68" transform="translate(92)" fill="white"/>
<path d="M113.434 27.434C115.207 27.434 116.499 27.7823 117.31 28.479C118.121 29.1757 118.526 30.1573 118.526 31.424C118.526 32.1713 118.355 32.8743 118.013 33.533C117.684 34.179 117.12 34.7047 116.322 35.11C115.537 35.5153 114.466 35.718 113.111 35.718H111.553V41H109.843V27.434H113.434ZM113.282 28.897H111.553V34.255H112.921C114.213 34.255 115.176 34.046 115.809 33.628C116.442 33.21 116.759 32.5007 116.759 31.5C116.759 30.626 116.474 29.9737 115.904 29.543C115.347 29.1123 114.473 28.897 113.282 28.897ZM124.976 30.645C126.217 30.645 127.136 30.9173 127.731 31.462C128.326 32.0067 128.624 32.8743 128.624 34.065V41H127.408L127.085 39.556H127.009C126.566 40.1133 126.097 40.525 125.603 40.791C125.109 41.057 124.438 41.19 123.589 41.19C122.664 41.19 121.898 40.9493 121.29 40.468C120.682 39.974 120.378 39.2077 120.378 38.169C120.378 37.1557 120.777 36.3767 121.575 35.832C122.373 35.2747 123.602 34.9707 125.261 34.92L126.99 34.863V34.255C126.99 33.4063 126.806 32.8173 126.439 32.488C126.072 32.1587 125.552 31.994 124.881 31.994C124.349 31.994 123.842 32.0763 123.361 32.241C122.88 32.393 122.43 32.5703 122.012 32.773L121.499 31.519C121.942 31.2783 122.468 31.0757 123.076 30.911C123.684 30.7337 124.317 30.645 124.976 30.645ZM126.971 36.022L125.47 36.079C124.203 36.1297 123.323 36.3323 122.829 36.687C122.348 37.0417 122.107 37.542 122.107 38.188C122.107 38.758 122.278 39.176 122.62 39.442C122.975 39.708 123.424 39.841 123.969 39.841C124.818 39.841 125.527 39.6067 126.097 39.138C126.68 38.6567 126.971 37.922 126.971 36.934V36.022ZM135.379 30.626C136.051 30.626 136.652 30.7527 137.184 31.006C137.729 31.2593 138.191 31.6457 138.571 32.165H138.666L138.894 30.816H140.224V41.171C140.224 42.6277 139.851 43.7233 139.103 44.458C138.369 45.1927 137.222 45.56 135.664 45.56C134.17 45.56 132.947 45.3447 131.997 44.914V43.375C132.998 43.907 134.252 44.173 135.759 44.173C136.633 44.173 137.317 43.9133 137.811 43.394C138.318 42.8873 138.571 42.1907 138.571 41.304V40.905C138.571 40.753 138.578 40.5377 138.59 40.259C138.603 39.9677 138.616 39.765 138.628 39.651H138.552C137.868 40.677 136.817 41.19 135.398 41.19C134.081 41.19 133.049 40.7277 132.301 39.803C131.567 38.8783 131.199 37.5863 131.199 35.927C131.199 34.3057 131.567 33.02 132.301 32.07C133.049 31.1073 134.075 30.626 135.379 30.626ZM135.607 32.032C134.759 32.032 134.1 32.374 133.631 33.058C133.163 33.7293 132.928 34.692 132.928 35.946C132.928 37.2 133.156 38.1627 133.612 38.834C134.068 39.4927 134.746 39.822 135.645 39.822C136.671 39.822 137.419 39.5497 137.887 39.005C138.356 38.4477 138.59 37.5547 138.59 36.326V35.927C138.59 34.5463 138.35 33.552 137.868 32.944C137.387 32.336 136.633 32.032 135.607 32.032ZM147.392 30.626C148.253 30.626 149 30.816 149.634 31.196C150.267 31.576 150.748 32.1143 151.078 32.811C151.42 33.495 151.591 34.2993 151.591 35.224V36.231H144.618C144.643 37.3837 144.934 38.264 145.492 38.872C146.062 39.4673 146.853 39.765 147.867 39.765C148.513 39.765 149.083 39.708 149.577 39.594C150.083 39.4673 150.603 39.29 151.135 39.062V40.525C150.615 40.753 150.102 40.9177 149.596 41.019C149.089 41.133 148.487 41.19 147.791 41.19C146.815 41.19 145.96 40.9937 145.226 40.601C144.491 40.2083 143.915 39.6257 143.497 38.853C143.091 38.0803 142.889 37.124 142.889 35.984C142.889 34.8693 143.072 33.913 143.44 33.115C143.82 32.317 144.345 31.7027 145.017 31.272C145.701 30.8413 146.492 30.626 147.392 30.626ZM147.373 31.994C146.575 31.994 145.941 32.2537 145.473 32.773C145.017 33.2797 144.744 33.989 144.656 34.901H149.843C149.83 34.0397 149.627 33.343 149.235 32.811C148.842 32.2663 148.221 31.994 147.373 31.994ZM163.641 41H161.931V28.935H157.694V27.434H167.859V28.935H163.641V41ZM170.532 26.997C170.785 26.997 171.007 27.0857 171.197 27.263C171.399 27.4277 171.501 27.6937 171.501 28.061C171.501 28.4283 171.399 28.7007 171.197 28.878C171.007 29.0427 170.785 29.125 170.532 29.125C170.253 29.125 170.019 29.0427 169.829 28.878C169.639 28.7007 169.544 28.4283 169.544 28.061C169.544 27.6937 169.639 27.4277 169.829 27.263C170.019 27.0857 170.253 26.997 170.532 26.997ZM171.349 30.816V41H169.677V30.816H171.349ZM177.976 39.822C178.229 39.822 178.489 39.803 178.755 39.765C179.021 39.727 179.236 39.6763 179.401 39.613V40.886C179.224 40.9747 178.97 41.0443 178.641 41.095C178.312 41.1583 177.995 41.19 177.691 41.19C177.159 41.19 176.665 41.1013 176.209 40.924C175.766 40.734 175.405 40.411 175.126 39.955C174.847 39.499 174.708 38.8593 174.708 38.036V32.108H173.264V31.31L174.727 30.645L175.392 28.479H176.38V30.816H179.325V32.108H176.38V37.998C176.38 38.6187 176.526 39.081 176.817 39.385C177.121 39.6763 177.507 39.822 177.976 39.822ZM183.112 41H181.44V26.56H183.112V41ZM190.272 30.626C191.133 30.626 191.88 30.816 192.514 31.196C193.147 31.576 193.628 32.1143 193.958 32.811C194.3 33.495 194.471 34.2993 194.471 35.224V36.231H187.498C187.523 37.3837 187.814 38.264 188.372 38.872C188.942 39.4673 189.733 39.765 190.747 39.765C191.393 39.765 191.963 39.708 192.457 39.594C192.963 39.4673 193.483 39.29 194.015 39.062V40.525C193.495 40.753 192.982 40.9177 192.476 41.019C191.969 41.133 191.367 41.19 190.671 41.19C189.695 41.19 188.84 40.9937 188.106 40.601C187.371 40.2083 186.795 39.6257 186.377 38.853C185.971 38.0803 185.769 37.124 185.769 35.984C185.769 34.8693 185.952 33.913 186.32 33.115C186.7 32.317 187.225 31.7027 187.897 31.272C188.581 30.8413 189.372 30.626 190.272 30.626ZM190.253 31.994C189.455 31.994 188.821 32.2537 188.353 32.773C187.897 33.2797 187.624 33.989 187.536 34.901H192.723C192.71 34.0397 192.507 33.343 192.115 32.811C191.722 32.2663 191.101 31.994 190.253 31.994ZM207.129 41H205.495V31.519C205.495 30.9743 205.501 30.5373 205.514 30.208C205.526 29.8787 205.545 29.5367 205.571 29.182C205.368 29.3847 205.178 29.5557 205.001 29.695C204.836 29.8343 204.633 30.0117 204.393 30.227L202.949 31.405L202.075 30.284L205.742 27.434H207.129V41Z" fill="#1B77AF"/>
<path d="M226.878 27.434L221.824 41H220.19L225.244 27.434H226.878Z" fill="black"/>
<rect x="236.5" y="22.5" width="23" height="23" rx="1.5" fill="url(#paint0_angular_8669_367889)"/>
<path d="M248.1 35C248.652 35 249.1 34.5523 249.1 34C249.1 33.4477 248.652 33 248.1 33C247.548 33 247.1 33.4477 247.1 34C247.1 34.5523 247.548 35 248.1 35Z" fill="#155E8B"/>
<path d="M243.5 35C244.052 35 244.5 34.5523 244.5 34C244.5 33.4477 244.052 33 243.5 33C242.948 33 242.5 33.4477 242.5 34C242.5 34.5523 242.948 35 243.5 35Z" fill="#155E8B"/>
<path d="M252.7 35C253.252 35 253.7 34.5523 253.7 34C253.7 33.4477 253.252 33 252.7 33C252.148 33 251.7 33.4477 251.7 34C251.7 34.5523 252.148 35 252.7 35Z" fill="#155E8B"/>
<rect x="236.5" y="22.5" width="23" height="23" rx="1.5" stroke="#155E8B"/>
<path d="M274.878 27.434L269.824 41H268.19L273.244 27.434H274.878Z" fill="black"/>
<path d="M289.434 27.434C291.207 27.434 292.499 27.7823 293.31 28.479C294.121 29.1757 294.526 30.1573 294.526 31.424C294.526 32.1713 294.355 32.8743 294.013 33.533C293.684 34.179 293.12 34.7047 292.322 35.11C291.537 35.5153 290.466 35.718 289.111 35.718H287.553V41H285.843V27.434H289.434ZM289.282 28.897H287.553V34.255H288.921C290.213 34.255 291.176 34.046 291.809 33.628C292.442 33.21 292.759 32.5007 292.759 31.5C292.759 30.626 292.474 29.9737 291.904 29.543C291.347 29.1123 290.473 28.897 289.282 28.897ZM300.976 30.645C302.217 30.645 303.136 30.9173 303.731 31.462C304.326 32.0067 304.624 32.8743 304.624 34.065V41H303.408L303.085 39.556H303.009C302.566 40.1133 302.097 40.525 301.603 40.791C301.109 41.057 300.438 41.19 299.589 41.19C298.664 41.19 297.898 40.9493 297.29 40.468C296.682 39.974 296.378 39.2077 296.378 38.169C296.378 37.1557 296.777 36.3767 297.575 35.832C298.373 35.2747 299.602 34.9707 301.261 34.92L302.99 34.863V34.255C302.99 33.4063 302.806 32.8173 302.439 32.488C302.072 32.1587 301.552 31.994 300.881 31.994C300.349 31.994 299.842 32.0763 299.361 32.241C298.88 32.393 298.43 32.5703 298.012 32.773L297.499 31.519C297.942 31.2783 298.468 31.0757 299.076 30.911C299.684 30.7337 300.317 30.645 300.976 30.645ZM302.971 36.022L301.47 36.079C300.203 36.1297 299.323 36.3323 298.829 36.687C298.348 37.0417 298.107 37.542 298.107 38.188C298.107 38.758 298.278 39.176 298.62 39.442C298.975 39.708 299.424 39.841 299.969 39.841C300.818 39.841 301.527 39.6067 302.097 39.138C302.68 38.6567 302.971 37.922 302.971 36.934V36.022ZM311.379 30.626C312.051 30.626 312.652 30.7527 313.184 31.006C313.729 31.2593 314.191 31.6457 314.571 32.165H314.666L314.894 30.816H316.224V41.171C316.224 42.6277 315.851 43.7233 315.103 44.458C314.369 45.1927 313.222 45.56 311.664 45.56C310.17 45.56 308.947 45.3447 307.997 44.914V43.375C308.998 43.907 310.252 44.173 311.759 44.173C312.633 44.173 313.317 43.9133 313.811 43.394C314.318 42.8873 314.571 42.1907 314.571 41.304V40.905C314.571 40.753 314.578 40.5377 314.59 40.259C314.603 39.9677 314.616 39.765 314.628 39.651H314.552C313.868 40.677 312.817 41.19 311.398 41.19C310.081 41.19 309.049 40.7277 308.301 39.803C307.567 38.8783 307.199 37.5863 307.199 35.927C307.199 34.3057 307.567 33.02 308.301 32.07C309.049 31.1073 310.075 30.626 311.379 30.626ZM311.607 32.032C310.759 32.032 310.1 32.374 309.631 33.058C309.163 33.7293 308.928 34.692 308.928 35.946C308.928 37.2 309.156 38.1627 309.612 38.834C310.068 39.4927 310.746 39.822 311.645 39.822C312.671 39.822 313.419 39.5497 313.887 39.005C314.356 38.4477 314.59 37.5547 314.59 36.326V35.927C314.59 34.5463 314.35 33.552 313.868 32.944C313.387 32.336 312.633 32.032 311.607 32.032ZM323.392 30.626C324.253 30.626 325 30.816 325.634 31.196C326.267 31.576 326.748 32.1143 327.078 32.811C327.42 33.495 327.591 34.2993 327.591 35.224V36.231H320.618C320.643 37.3837 320.934 38.264 321.492 38.872C322.062 39.4673 322.853 39.765 323.867 39.765C324.513 39.765 325.083 39.708 325.577 39.594C326.083 39.4673 326.603 39.29 327.135 39.062V40.525C326.615 40.753 326.102 40.9177 325.596 41.019C325.089 41.133 324.487 41.19 323.791 41.19C322.815 41.19 321.96 40.9937 321.226 40.601C320.491 40.2083 319.915 39.6257 319.497 38.853C319.091 38.0803 318.889 37.124 318.889 35.984C318.889 34.8693 319.072 33.913 319.44 33.115C319.82 32.317 320.345 31.7027 321.017 31.272C321.701 30.8413 322.492 30.626 323.392 30.626ZM323.373 31.994C322.575 31.994 321.941 32.2537 321.473 32.773C321.017 33.2797 320.744 33.989 320.656 34.901H325.843C325.83 34.0397 325.627 33.343 325.235 32.811C324.842 32.2663 324.221 31.994 323.373 31.994ZM339.641 41H337.931V28.935H333.694V27.434H343.859V28.935H339.641V41ZM346.532 26.997C346.785 26.997 347.007 27.0857 347.197 27.263C347.399 27.4277 347.501 27.6937 347.501 28.061C347.501 28.4283 347.399 28.7007 347.197 28.878C347.007 29.0427 346.785 29.125 346.532 29.125C346.253 29.125 346.019 29.0427 345.829 28.878C345.639 28.7007 345.544 28.4283 345.544 28.061C345.544 27.6937 345.639 27.4277 345.829 27.263C346.019 27.0857 346.253 26.997 346.532 26.997ZM347.349 30.816V41H345.677V30.816H347.349ZM353.976 39.822C354.229 39.822 354.489 39.803 354.755 39.765C355.021 39.727 355.236 39.6763 355.401 39.613V40.886C355.224 40.9747 354.97 41.0443 354.641 41.095C354.312 41.1583 353.995 41.19 353.691 41.19C353.159 41.19 352.665 41.1013 352.209 40.924C351.766 40.734 351.405 40.411 351.126 39.955C350.847 39.499 350.708 38.8593 350.708 38.036V32.108H349.264V31.31L350.727 30.645L351.392 28.479H352.38V30.816H355.325V32.108H352.38V37.998C352.38 38.6187 352.526 39.081 352.817 39.385C353.121 39.6763 353.507 39.822 353.976 39.822ZM359.112 41H357.44V26.56H359.112V41ZM366.272 30.626C367.133 30.626 367.88 30.816 368.514 31.196C369.147 31.576 369.628 32.1143 369.958 32.811C370.3 33.495 370.471 34.2993 370.471 35.224V36.231H363.498C363.523 37.3837 363.814 38.264 364.372 38.872C364.942 39.4673 365.733 39.765 366.747 39.765C367.393 39.765 367.963 39.708 368.457 39.594C368.963 39.4673 369.483 39.29 370.015 39.062V40.525C369.495 40.753 368.982 40.9177 368.476 41.019C367.969 41.133 367.367 41.19 366.671 41.19C365.695 41.19 364.84 40.9937 364.106 40.601C363.371 40.2083 362.795 39.6257 362.377 38.853C361.971 38.0803 361.769 37.124 361.769 35.984C361.769 34.8693 361.952 33.913 362.32 33.115C362.7 32.317 363.225 31.7027 363.897 31.272C364.581 30.8413 365.372 30.626 366.272 30.626ZM366.253 31.994C365.455 31.994 364.821 32.2537 364.353 32.773C363.897 33.2797 363.624 33.989 363.536 34.901H368.723C368.71 34.0397 368.507 33.343 368.115 32.811C367.722 32.2663 367.101 31.994 366.253 31.994ZM377.429 35.205C377.429 34.2297 377.511 33.2733 377.676 32.336C377.853 31.386 378.163 30.531 378.607 29.771C379.063 28.9983 379.696 28.384 380.507 27.928C381.317 27.472 382.362 27.244 383.642 27.244C383.908 27.244 384.199 27.2567 384.516 27.282C384.845 27.3073 385.111 27.3517 385.314 27.415V28.84C385.086 28.764 384.826 28.707 384.535 28.669C384.243 28.631 383.958 28.612 383.68 28.612C382.806 28.612 382.077 28.7577 381.495 29.049C380.912 29.3403 380.45 29.7393 380.108 30.246C379.778 30.7527 379.538 31.3353 379.386 31.994C379.234 32.6527 379.139 33.3557 379.101 34.103H379.215C379.506 33.6597 379.911 33.286 380.431 32.982C380.95 32.6653 381.615 32.507 382.426 32.507C383.604 32.507 384.554 32.868 385.276 33.59C385.998 34.2993 386.359 35.3127 386.359 36.63C386.359 38.0487 385.966 39.1633 385.181 39.974C384.408 40.7847 383.363 41.19 382.046 41.19C381.184 41.19 380.405 40.9747 379.709 40.544C379.012 40.1133 378.455 39.4547 378.037 38.568C377.631 37.6813 377.429 36.5603 377.429 35.205ZM382.027 39.784C382.825 39.784 383.471 39.5307 383.965 39.024C384.459 38.5047 384.706 37.7067 384.706 36.63C384.706 35.7687 384.484 35.0847 384.041 34.578C383.61 34.0713 382.958 33.818 382.084 33.818C381.488 33.818 380.969 33.9447 380.526 34.198C380.082 34.4387 379.734 34.7553 379.481 35.148C379.24 35.528 379.12 35.9143 379.12 36.307C379.12 36.8517 379.227 37.3963 379.443 37.941C379.658 38.473 379.981 38.9163 380.412 39.271C380.842 39.613 381.381 39.784 382.027 39.784Z" fill="#1B77AF"/>
<path d="M402.878 27.434L397.824 41H396.19L401.244 27.434H402.878Z" fill="black"/>
<path d="M413.843 41V27.434H415.553V39.48H421.481V41H413.843ZM427.436 30.645C428.677 30.645 429.596 30.9173 430.191 31.462C430.786 32.0067 431.084 32.8743 431.084 34.065V41H429.868L429.545 39.556H429.469C429.026 40.1133 428.557 40.525 428.063 40.791C427.569 41.057 426.898 41.19 426.049 41.19C425.124 41.19 424.358 40.9493 423.75 40.468C423.142 39.974 422.838 39.2077 422.838 38.169C422.838 37.1557 423.237 36.3767 424.035 35.832C424.833 35.2747 426.062 34.9707 427.721 34.92L429.45 34.863V34.255C429.45 33.4063 429.266 32.8173 428.899 32.488C428.532 32.1587 428.012 31.994 427.341 31.994C426.809 31.994 426.302 32.0763 425.821 32.241C425.34 32.393 424.89 32.5703 424.472 32.773L423.959 31.519C424.402 31.2783 424.928 31.0757 425.536 30.911C426.144 30.7337 426.777 30.645 427.436 30.645ZM429.431 36.022L427.93 36.079C426.663 36.1297 425.783 36.3323 425.289 36.687C424.808 37.0417 424.567 37.542 424.567 38.188C424.567 38.758 424.738 39.176 425.08 39.442C425.435 39.708 425.884 39.841 426.429 39.841C427.278 39.841 427.987 39.6067 428.557 39.138C429.14 38.6567 429.431 37.922 429.431 36.934V36.022ZM440.86 38.188C440.86 39.176 440.493 39.9233 439.758 40.43C439.024 40.9367 438.036 41.19 436.794 41.19C436.085 41.19 435.471 41.133 434.951 41.019C434.445 40.905 433.995 40.7467 433.602 40.544V39.024C434.008 39.2267 434.495 39.4167 435.065 39.594C435.648 39.7587 436.237 39.841 436.832 39.841C437.681 39.841 438.295 39.708 438.675 39.442C439.055 39.1633 439.245 38.796 439.245 38.34C439.245 38.0867 439.176 37.8587 439.036 37.656C438.897 37.4533 438.644 37.2507 438.276 37.048C437.922 36.8453 437.409 36.6173 436.737 36.364C436.079 36.1107 435.515 35.8573 435.046 35.604C434.578 35.3507 434.217 35.0467 433.963 34.692C433.71 34.3373 433.583 33.8813 433.583 33.324C433.583 32.4627 433.932 31.7977 434.628 31.329C435.338 30.8603 436.262 30.626 437.402 30.626C438.023 30.626 438.599 30.6893 439.131 30.816C439.676 30.9427 440.183 31.1073 440.651 31.31L440.081 32.64C439.651 32.4627 439.201 32.3107 438.732 32.184C438.264 32.0573 437.782 31.994 437.288 31.994C436.604 31.994 436.079 32.108 435.711 32.336C435.357 32.5513 435.179 32.849 435.179 33.229C435.179 33.5203 435.262 33.761 435.426 33.951C435.591 34.141 435.863 34.331 436.243 34.521C436.636 34.711 437.155 34.9263 437.801 35.167C438.447 35.4077 438.998 35.6547 439.454 35.908C439.91 36.1613 440.259 36.4717 440.499 36.839C440.74 37.1937 440.86 37.6433 440.86 38.188ZM446.722 39.822C446.975 39.822 447.235 39.803 447.501 39.765C447.767 39.727 447.982 39.6763 448.147 39.613V40.886C447.97 40.9747 447.716 41.0443 447.387 41.095C447.058 41.1583 446.741 41.19 446.437 41.19C445.905 41.19 445.411 41.1013 444.955 40.924C444.512 40.734 444.151 40.411 443.872 39.955C443.593 39.499 443.454 38.8593 443.454 38.036V32.108H442.01V31.31L443.473 30.645L444.138 28.479H445.126V30.816H448.071V32.108H445.126V37.998C445.126 38.6187 445.272 39.081 445.563 39.385C445.867 39.6763 446.253 39.822 446.722 39.822ZM458.941 27.434C460.714 27.434 462.006 27.7823 462.817 28.479C463.628 29.1757 464.033 30.1573 464.033 31.424C464.033 32.1713 463.862 32.8743 463.52 33.533C463.191 34.179 462.627 34.7047 461.829 35.11C461.044 35.5153 459.973 35.718 458.618 35.718H457.06V41H455.35V27.434H458.941ZM458.789 28.897H457.06V34.255H458.428C459.72 34.255 460.683 34.046 461.316 33.628C461.949 33.21 462.266 32.5007 462.266 31.5C462.266 30.626 461.981 29.9737 461.411 29.543C460.854 29.1123 459.98 28.897 458.789 28.897ZM470.483 30.645C471.724 30.645 472.642 30.9173 473.238 31.462C473.833 32.0067 474.131 32.8743 474.131 34.065V41H472.915L472.592 39.556H472.516C472.072 40.1133 471.604 40.525 471.11 40.791C470.616 41.057 469.944 41.19 469.096 41.19C468.171 41.19 467.405 40.9493 466.797 40.468C466.189 39.974 465.885 39.2077 465.885 38.169C465.885 37.1557 466.284 36.3767 467.082 35.832C467.88 35.2747 469.108 34.9707 470.768 34.92L472.497 34.863V34.255C472.497 33.4063 472.313 32.8173 471.946 32.488C471.578 32.1587 471.059 31.994 470.388 31.994C469.856 31.994 469.349 32.0763 468.868 32.241C468.386 32.393 467.937 32.5703 467.519 32.773L467.006 31.519C467.449 31.2783 467.975 31.0757 468.583 30.911C469.191 30.7337 469.824 30.645 470.483 30.645ZM472.478 36.022L470.977 36.079C469.71 36.1297 468.83 36.3323 468.336 36.687C467.854 37.0417 467.614 37.542 467.614 38.188C467.614 38.758 467.785 39.176 468.127 39.442C468.481 39.708 468.931 39.841 469.476 39.841C470.324 39.841 471.034 39.6067 471.604 39.138C472.186 38.6567 472.478 37.922 472.478 36.934V36.022ZM480.886 30.626C481.557 30.626 482.159 30.7527 482.691 31.006C483.236 31.2593 483.698 31.6457 484.078 32.165H484.173L484.401 30.816H485.731V41.171C485.731 42.6277 485.357 43.7233 484.61 44.458C483.875 45.1927 482.729 45.56 481.171 45.56C479.676 45.56 478.454 45.3447 477.504 44.914V43.375C478.505 43.907 479.759 44.173 481.266 44.173C482.14 44.173 482.824 43.9133 483.318 43.394C483.825 42.8873 484.078 42.1907 484.078 41.304V40.905C484.078 40.753 484.084 40.5377 484.097 40.259C484.11 39.9677 484.122 39.765 484.135 39.651H484.059C483.375 40.677 482.324 41.19 480.905 41.19C479.588 41.19 478.555 40.7277 477.808 39.803C477.073 38.8783 476.706 37.5863 476.706 35.927C476.706 34.3057 477.073 33.02 477.808 32.07C478.555 31.1073 479.581 30.626 480.886 30.626ZM481.114 32.032C480.265 32.032 479.607 32.374 479.138 33.058C478.669 33.7293 478.435 34.692 478.435 35.946C478.435 37.2 478.663 38.1627 479.119 38.834C479.575 39.4927 480.253 39.822 481.152 39.822C482.178 39.822 482.925 39.5497 483.394 39.005C483.863 38.4477 484.097 37.5547 484.097 36.326V35.927C484.097 34.5463 483.856 33.552 483.375 32.944C482.894 32.336 482.14 32.032 481.114 32.032ZM492.899 30.626C493.76 30.626 494.507 30.816 495.141 31.196C495.774 31.576 496.255 32.1143 496.585 32.811C496.927 33.495 497.098 34.2993 497.098 35.224V36.231H490.125C490.15 37.3837 490.441 38.264 490.999 38.872C491.569 39.4673 492.36 39.765 493.374 39.765C494.02 39.765 494.59 39.708 495.084 39.594C495.59 39.4673 496.11 39.29 496.642 39.062V40.525C496.122 40.753 495.609 40.9177 495.103 41.019C494.596 41.133 493.994 41.19 493.298 41.19C492.322 41.19 491.467 40.9937 490.733 40.601C489.998 40.2083 489.422 39.6257 489.004 38.853C488.598 38.0803 488.396 37.124 488.396 35.984C488.396 34.8693 488.579 33.913 488.947 33.115C489.327 32.317 489.852 31.7027 490.524 31.272C491.208 30.8413 491.999 30.626 492.899 30.626ZM492.88 31.994C492.082 31.994 491.448 32.2537 490.98 32.773C490.524 33.2797 490.251 33.989 490.163 34.901H495.35C495.337 34.0397 495.134 33.343 494.742 32.811C494.349 32.2663 493.728 31.994 492.88 31.994ZM509.148 41H507.438V28.935H503.201V27.434H513.366V28.935H509.148V41ZM516.038 26.997C516.292 26.997 516.513 27.0857 516.703 27.263C516.906 27.4277 517.007 27.6937 517.007 28.061C517.007 28.4283 516.906 28.7007 516.703 28.878C516.513 29.0427 516.292 29.125 516.038 29.125C515.76 29.125 515.525 29.0427 515.335 28.878C515.145 28.7007 515.05 28.4283 515.05 28.061C515.05 27.6937 515.145 27.4277 515.335 27.263C515.525 27.0857 515.76 26.997 516.038 26.997ZM516.855 30.816V41H515.183V30.816H516.855ZM523.483 39.822C523.736 39.822 523.996 39.803 524.262 39.765C524.528 39.727 524.743 39.6763 524.908 39.613V40.886C524.73 40.9747 524.477 41.0443 524.148 41.095C523.818 41.1583 523.502 41.19 523.198 41.19C522.666 41.19 522.172 41.1013 521.716 40.924C521.272 40.734 520.911 40.411 520.633 39.955C520.354 39.499 520.215 38.8593 520.215 38.036V32.108H518.771V31.31L520.234 30.645L520.899 28.479H521.887V30.816H524.832V32.108H521.887V37.998C521.887 38.6187 522.032 39.081 522.324 39.385C522.628 39.6763 523.014 39.822 523.483 39.822ZM528.619 41H526.947V26.56H528.619V41ZM535.778 30.626C536.64 30.626 537.387 30.816 538.02 31.196C538.654 31.576 539.135 32.1143 539.464 32.811C539.806 33.495 539.977 34.2993 539.977 35.224V36.231H533.004C533.03 37.3837 533.321 38.264 533.878 38.872C534.448 39.4673 535.24 39.765 536.253 39.765C536.899 39.765 537.469 39.708 537.963 39.594C538.47 39.4673 538.989 39.29 539.521 39.062V40.525C539.002 40.753 538.489 40.9177 537.982 41.019C537.476 41.133 536.874 41.19 536.177 41.19C535.202 41.19 534.347 40.9937 533.612 40.601C532.878 40.2083 532.301 39.6257 531.883 38.853C531.478 38.0803 531.275 37.124 531.275 35.984C531.275 34.8693 531.459 33.913 531.826 33.115C532.206 32.317 532.732 31.7027 533.403 31.272C534.087 30.8413 534.879 30.626 535.778 30.626ZM535.759 31.994C534.961 31.994 534.328 32.2537 533.859 32.773C533.403 33.2797 533.131 33.989 533.042 34.901H538.229C538.217 34.0397 538.014 33.343 537.621 32.811C537.229 32.2663 536.608 31.994 535.759 31.994Z" fill="black"/>
<rect x="636.5" y="16.5" width="75" height="35" rx="1.5" fill="white"/>
<path d="M657.642 29.97C656.569 29.97 655.724 30.3293 655.108 31.048C654.492 31.7667 654.184 32.7513 654.184 34.002C654.184 35.2433 654.469 36.228 655.038 36.956C655.617 37.6747 656.48 38.034 657.628 38.034C658.057 38.034 658.468 37.9967 658.86 37.922C659.252 37.8473 659.639 37.754 660.022 37.642V38.734C659.649 38.874 659.261 38.9767 658.86 39.042C658.468 39.1073 657.997 39.14 657.446 39.14C656.429 39.14 655.579 38.93 654.898 38.51C654.217 38.09 653.703 37.4927 653.358 36.718C653.022 35.9433 652.854 35.0333 652.854 33.988C652.854 32.98 653.036 32.0933 653.4 31.328C653.773 30.5533 654.319 29.9513 655.038 29.522C655.757 29.0833 656.629 28.864 657.656 28.864C658.711 28.864 659.63 29.06 660.414 29.452L659.91 30.516C659.602 30.376 659.257 30.25 658.874 30.138C658.501 30.026 658.09 29.97 657.642 29.97ZM664.878 31.37C665.792 31.37 666.469 31.5707 666.908 31.972C667.346 32.3733 667.566 33.0127 667.566 33.89V39H666.67L666.432 37.936H666.376C666.049 38.3467 665.704 38.65 665.34 38.846C664.976 39.042 664.481 39.14 663.856 39.14C663.174 39.14 662.61 38.9627 662.162 38.608C661.714 38.244 661.49 37.6793 661.49 36.914C661.49 36.1673 661.784 35.5933 662.372 35.192C662.96 34.7813 663.865 34.5573 665.088 34.52L666.362 34.478V34.03C666.362 33.4047 666.226 32.9707 665.956 32.728C665.685 32.4853 665.302 32.364 664.808 32.364C664.416 32.364 664.042 32.4247 663.688 32.546C663.333 32.658 663.002 32.7887 662.694 32.938L662.316 32.014C662.642 31.8367 663.03 31.6873 663.478 31.566C663.926 31.4353 664.392 31.37 664.878 31.37ZM666.348 35.332L665.242 35.374C664.308 35.4113 663.66 35.5607 663.296 35.822C662.941 36.0833 662.764 36.452 662.764 36.928C662.764 37.348 662.89 37.656 663.142 37.852C663.403 38.048 663.734 38.146 664.136 38.146C664.761 38.146 665.284 37.9733 665.704 37.628C666.133 37.2733 666.348 36.732 666.348 36.004V35.332ZM673.495 31.356C674.391 31.356 675.068 31.5753 675.525 32.014C675.983 32.4527 676.211 33.1527 676.211 34.114V39H674.993V34.198C674.993 32.994 674.433 32.392 673.313 32.392C672.483 32.392 671.909 32.6253 671.591 33.092C671.274 33.5587 671.115 34.2307 671.115 35.108V39H669.883V31.496H670.877L671.059 32.518H671.129C671.372 32.126 671.708 31.8367 672.137 31.65C672.567 31.454 673.019 31.356 673.495 31.356ZM681.548 39.14C680.876 39.14 680.283 39.0047 679.77 38.734C679.256 38.4633 678.85 38.0433 678.552 37.474C678.262 36.9047 678.118 36.1767 678.118 35.29C678.118 34.366 678.267 33.6147 678.566 33.036C678.874 32.4573 679.294 32.0327 679.826 31.762C680.358 31.4913 680.96 31.356 681.632 31.356C682.005 31.356 682.369 31.398 682.724 31.482C683.088 31.5567 683.382 31.65 683.606 31.762L683.228 32.784C683.004 32.7 682.742 32.6207 682.444 32.546C682.145 32.4713 681.865 32.434 681.604 32.434C680.129 32.434 679.392 33.3813 679.392 35.276C679.392 36.1813 679.569 36.8767 679.924 37.362C680.288 37.838 680.824 38.076 681.534 38.076C681.935 38.076 682.294 38.034 682.612 37.95C682.929 37.866 683.218 37.7633 683.48 37.642V38.734C683.228 38.8647 682.948 38.9627 682.64 39.028C682.341 39.1027 681.977 39.14 681.548 39.14ZM688.162 31.356C688.797 31.356 689.348 31.496 689.814 31.776C690.281 32.056 690.636 32.4527 690.878 32.966C691.13 33.47 691.256 34.0627 691.256 34.744V35.486H686.118C686.137 36.3353 686.352 36.984 686.762 37.432C687.182 37.8707 687.766 38.09 688.512 38.09C688.988 38.09 689.408 38.048 689.772 37.964C690.146 37.8707 690.528 37.74 690.92 37.572V38.65C690.538 38.818 690.16 38.9393 689.786 39.014C689.413 39.098 688.97 39.14 688.456 39.14C687.738 39.14 687.108 38.9953 686.566 38.706C686.025 38.4167 685.6 37.9873 685.292 37.418C684.994 36.8487 684.844 36.144 684.844 35.304C684.844 34.4827 684.98 33.778 685.25 33.19C685.53 32.602 685.918 32.1493 686.412 31.832C686.916 31.5147 687.5 31.356 688.162 31.356ZM688.148 32.364C687.56 32.364 687.094 32.5553 686.748 32.938C686.412 33.3113 686.212 33.834 686.146 34.506H689.968C689.959 33.8713 689.81 33.358 689.52 32.966C689.231 32.5647 688.774 32.364 688.148 32.364ZM694.399 39H693.167V28.36H694.399V39Z" fill="#1B77AF"/>
<rect x="636.5" y="16.5" width="75" height="35" rx="1.5" stroke="#1B77AF"/>
<rect x="720" y="16" width="76" height="36" rx="2" fill="#1B77AF"/>
<path d="M749.528 36.326C749.528 37.2127 749.206 37.9033 748.562 38.398C747.918 38.8927 747.05 39.14 745.958 39.14C745.398 39.14 744.88 39.098 744.404 39.014C743.928 38.93 743.531 38.8133 743.214 38.664V37.46C743.55 37.6093 743.965 37.7447 744.46 37.866C744.964 37.9873 745.482 38.048 746.014 38.048C746.751 38.048 747.311 37.9033 747.694 37.614C748.077 37.3247 748.268 36.9327 748.268 36.438C748.268 36.1113 748.198 35.836 748.058 35.612C747.918 35.388 747.675 35.1827 747.33 34.996C746.985 34.8093 746.513 34.604 745.916 34.38C745.057 34.072 744.413 33.694 743.984 33.246C743.555 32.798 743.34 32.1867 743.34 31.412C743.34 30.8893 743.475 30.4367 743.746 30.054C744.017 29.6713 744.39 29.3773 744.866 29.172C745.342 28.9667 745.897 28.864 746.532 28.864C747.073 28.864 747.573 28.9153 748.03 29.018C748.487 29.1207 748.907 29.256 749.29 29.424L748.898 30.502C748.553 30.3527 748.175 30.2267 747.764 30.124C747.353 30.0213 746.933 29.97 746.504 29.97C745.879 29.97 745.407 30.1053 745.09 30.376C744.773 30.6373 744.614 30.9873 744.614 31.426C744.614 31.762 744.684 32.042 744.824 32.266C744.964 32.49 745.193 32.6953 745.51 32.882C745.827 33.0593 746.257 33.246 746.798 33.442C747.386 33.6567 747.881 33.89 748.282 34.142C748.693 34.3847 749.001 34.6787 749.206 35.024C749.421 35.3693 749.528 35.8033 749.528 36.326ZM754.216 31.37C755.13 31.37 755.807 31.5707 756.246 31.972C756.684 32.3733 756.904 33.0127 756.904 33.89V39H756.008L755.77 37.936H755.714C755.387 38.3467 755.042 38.65 754.678 38.846C754.314 39.042 753.819 39.14 753.194 39.14C752.512 39.14 751.948 38.9627 751.5 38.608C751.052 38.244 750.828 37.6793 750.828 36.914C750.828 36.1673 751.122 35.5933 751.71 35.192C752.298 34.7813 753.203 34.5573 754.426 34.52L755.7 34.478V34.03C755.7 33.4047 755.564 32.9707 755.294 32.728C755.023 32.4853 754.64 32.364 754.146 32.364C753.754 32.364 753.38 32.4247 753.026 32.546C752.671 32.658 752.34 32.7887 752.032 32.938L751.654 32.014C751.98 31.8367 752.368 31.6873 752.816 31.566C753.264 31.4353 753.73 31.37 754.216 31.37ZM755.686 35.332L754.58 35.374C753.646 35.4113 752.998 35.5607 752.634 35.822C752.279 36.0833 752.102 36.452 752.102 36.928C752.102 37.348 752.228 37.656 752.48 37.852C752.741 38.048 753.072 38.146 753.474 38.146C754.099 38.146 754.622 37.9733 755.042 37.628C755.471 37.2733 755.686 36.732 755.686 36.004V35.332ZM760.873 39L758.031 31.496H759.347L760.943 35.92C761.018 36.1253 761.097 36.354 761.181 36.606C761.265 36.858 761.34 37.1007 761.405 37.334C761.471 37.5673 761.517 37.7587 761.545 37.908H761.601C761.629 37.7587 761.681 37.5673 761.755 37.334C761.83 37.0913 761.909 36.8487 761.993 36.606C762.077 36.354 762.157 36.1253 762.231 35.92L763.827 31.496H765.143L762.287 39H760.873ZM769.229 31.356C769.863 31.356 770.414 31.496 770.881 31.776C771.347 32.056 771.702 32.4527 771.945 32.966C772.197 33.47 772.323 34.0627 772.323 34.744V35.486H767.185C767.203 36.3353 767.418 36.984 767.829 37.432C768.249 37.8707 768.832 38.09 769.579 38.09C770.055 38.09 770.475 38.048 770.839 37.964C771.212 37.8707 771.595 37.74 771.987 37.572V38.65C771.604 38.818 771.226 38.9393 770.853 39.014C770.479 39.098 770.036 39.14 769.523 39.14C768.804 39.14 768.174 38.9953 767.633 38.706C767.091 38.4167 766.667 37.9873 766.359 37.418C766.06 36.8487 765.911 36.144 765.911 35.304C765.911 34.4827 766.046 33.778 766.317 33.19C766.597 32.602 766.984 32.1493 767.479 31.832C767.983 31.5147 768.566 31.356 769.229 31.356ZM769.215 32.364C768.627 32.364 768.16 32.5553 767.815 32.938C767.479 33.3113 767.278 33.834 767.213 34.506H771.035C771.025 33.8713 770.876 33.358 770.587 32.966C770.297 32.5647 769.84 32.364 769.215 32.364Z" fill="white"/>
<g filter="url(#filter0_d_8669_367889)">
<rect x="236" y="48" width="120" height="144" rx="4" fill="white"/>
<path d="M248.004 61.004C249.311 61.004 250.263 61.2607 250.86 61.774C251.457 62.2873 251.756 63.0107 251.756 63.944C251.756 64.4947 251.63 65.0127 251.378 65.498C251.135 65.974 250.72 66.3613 250.132 66.66C249.553 66.9587 248.765 67.108 247.766 67.108H246.618V71H245.358V61.004H248.004ZM247.892 62.082H246.618V66.03H247.626C248.578 66.03 249.287 65.876 249.754 65.568C250.221 65.26 250.454 64.7373 250.454 64C250.454 63.356 250.244 62.8753 249.824 62.558C249.413 62.2407 248.769 62.082 247.892 62.082ZM256.509 63.37C257.423 63.37 258.1 63.5707 258.539 63.972C258.977 64.3733 259.197 65.0127 259.197 65.89V71H258.301L258.063 69.936H258.007C257.68 70.3467 257.335 70.65 256.971 70.846C256.607 71.042 256.112 71.14 255.487 71.14C254.805 71.14 254.241 70.9627 253.793 70.608C253.345 70.244 253.121 69.6793 253.121 68.914C253.121 68.1673 253.415 67.5933 254.003 67.192C254.591 66.7813 255.496 66.5573 256.719 66.52L257.993 66.478V66.03C257.993 65.4047 257.857 64.9707 257.587 64.728C257.316 64.4853 256.933 64.364 256.439 64.364C256.047 64.364 255.673 64.4247 255.319 64.546C254.964 64.658 254.633 64.7887 254.325 64.938L253.947 64.014C254.273 63.8367 254.661 63.6873 255.109 63.566C255.557 63.4353 256.023 63.37 256.509 63.37ZM257.979 67.332L256.873 67.374C255.939 67.4113 255.291 67.5607 254.927 67.822C254.572 68.0833 254.395 68.452 254.395 68.928C254.395 69.348 254.521 69.656 254.773 69.852C255.034 70.048 255.365 70.146 255.767 70.146C256.392 70.146 256.915 69.9733 257.335 69.628C257.764 69.2733 257.979 68.732 257.979 68.004V67.332ZM264.174 63.356C264.669 63.356 265.112 63.4493 265.504 63.636C265.906 63.8227 266.246 64.1073 266.526 64.49H266.596L266.764 63.496H267.744V71.126C267.744 72.1993 267.469 73.0067 266.918 73.548C266.377 74.0893 265.532 74.36 264.384 74.36C263.283 74.36 262.382 74.2013 261.682 73.884V72.75C262.42 73.142 263.344 73.338 264.454 73.338C265.098 73.338 265.602 73.1467 265.966 72.764C266.34 72.3907 266.526 71.8773 266.526 71.224V70.93C266.526 70.818 266.531 70.6593 266.54 70.454C266.55 70.2393 266.559 70.09 266.568 70.006H266.512C266.008 70.762 265.234 71.14 264.188 71.14C263.218 71.14 262.457 70.7993 261.906 70.118C261.365 69.4367 261.094 68.4847 261.094 67.262C261.094 66.0673 261.365 65.12 261.906 64.42C262.457 63.7107 263.213 63.356 264.174 63.356ZM264.342 64.392C263.717 64.392 263.232 64.644 262.886 65.148C262.541 65.6427 262.368 66.352 262.368 67.276C262.368 68.2 262.536 68.9093 262.872 69.404C263.208 69.8893 263.708 70.132 264.37 70.132C265.126 70.132 265.677 69.9313 266.022 69.53C266.368 69.1193 266.54 68.4613 266.54 67.556V67.262C266.54 66.2447 266.363 65.512 266.008 65.064C265.654 64.616 265.098 64.392 264.342 64.392ZM273.026 63.356C273.66 63.356 274.211 63.496 274.678 63.776C275.144 64.056 275.499 64.4527 275.742 64.966C275.994 65.47 276.12 66.0627 276.12 66.744V67.486H270.982C271 68.3353 271.215 68.984 271.626 69.432C272.046 69.8707 272.629 70.09 273.376 70.09C273.852 70.09 274.272 70.048 274.636 69.964C275.009 69.8707 275.392 69.74 275.784 69.572V70.65C275.401 70.818 275.023 70.9393 274.65 71.014C274.276 71.098 273.833 71.14 273.32 71.14C272.601 71.14 271.971 70.9953 271.43 70.706C270.888 70.4167 270.464 69.9873 270.156 69.418C269.857 68.8487 269.708 68.144 269.708 67.304C269.708 66.4827 269.843 65.778 270.114 65.19C270.394 64.602 270.781 64.1493 271.276 63.832C271.78 63.5147 272.363 63.356 273.026 63.356ZM273.012 64.364C272.424 64.364 271.957 64.5553 271.612 64.938C271.276 65.3113 271.075 65.834 271.01 66.506H274.832C274.822 65.8713 274.673 65.358 274.384 64.966C274.094 64.5647 273.637 64.364 273.012 64.364ZM284.999 71H283.739V62.11H280.617V61.004H288.107V62.11H284.999V71ZM290.076 60.682C290.263 60.682 290.426 60.7473 290.566 60.878C290.715 60.9993 290.79 61.1953 290.79 61.466C290.79 61.7367 290.715 61.9373 290.566 62.068C290.426 62.1893 290.263 62.25 290.076 62.25C289.871 62.25 289.698 62.1893 289.558 62.068C289.418 61.9373 289.348 61.7367 289.348 61.466C289.348 61.1953 289.418 60.9993 289.558 60.878C289.698 60.7473 289.871 60.682 290.076 60.682ZM290.678 63.496V71H289.446V63.496H290.678ZM295.561 70.132C295.748 70.132 295.939 70.118 296.135 70.09C296.331 70.062 296.49 70.0247 296.611 69.978V70.916C296.481 70.9813 296.294 71.0327 296.051 71.07C295.809 71.1167 295.575 71.14 295.351 71.14C294.959 71.14 294.595 71.0747 294.259 70.944C293.933 70.804 293.667 70.566 293.461 70.23C293.256 69.894 293.153 69.4227 293.153 68.816V64.448H292.089V63.86L293.167 63.37L293.657 61.774H294.385V63.496H296.555V64.448H294.385V68.788C294.385 69.2453 294.493 69.586 294.707 69.81C294.931 70.0247 295.216 70.132 295.561 70.132ZM299.346 71H298.114V60.36H299.346V71ZM304.621 63.356C305.256 63.356 305.807 63.496 306.273 63.776C306.74 64.056 307.095 64.4527 307.337 64.966C307.589 65.47 307.715 66.0627 307.715 66.744V67.486H302.577C302.596 68.3353 302.811 68.984 303.221 69.432C303.641 69.8707 304.225 70.09 304.971 70.09C305.447 70.09 305.867 70.048 306.231 69.964C306.605 69.8707 306.987 69.74 307.379 69.572V70.65C306.997 70.818 306.619 70.9393 306.245 71.014C305.872 71.098 305.429 71.14 304.915 71.14C304.197 71.14 303.567 70.9953 303.025 70.706C302.484 70.4167 302.059 69.9873 301.751 69.418C301.453 68.8487 301.303 68.144 301.303 67.304C301.303 66.4827 301.439 65.778 301.709 65.19C301.989 64.602 302.377 64.1493 302.871 63.832C303.375 63.5147 303.959 63.356 304.621 63.356ZM304.607 64.364C304.019 64.364 303.553 64.5553 303.207 64.938C302.871 65.3113 302.671 65.834 302.605 66.506H306.427C306.418 65.8713 306.269 65.358 305.979 64.966C305.69 64.5647 305.233 64.364 304.607 64.364ZM319.352 71H312.744V69.978L315.362 67.332C315.857 66.828 316.277 66.38 316.622 65.988C316.977 65.596 317.243 65.2133 317.42 64.84C317.598 64.4667 317.686 64.0513 317.686 63.594C317.686 63.0433 317.523 62.628 317.196 62.348C316.87 62.0587 316.445 61.914 315.922 61.914C315.428 61.914 314.998 61.998 314.634 62.166C314.27 62.334 313.897 62.5673 313.514 62.866L312.856 62.04C313.248 61.7133 313.696 61.438 314.2 61.214C314.714 60.9807 315.288 60.864 315.922 60.864C316.856 60.864 317.593 61.102 318.134 61.578C318.676 62.054 318.946 62.7027 318.946 63.524C318.946 64.0467 318.839 64.5367 318.624 64.994C318.41 65.4513 318.111 65.904 317.728 66.352C317.346 66.8 316.898 67.2713 316.384 67.766L314.298 69.824V69.88H319.352V71Z" fill="black"/>
<rect width="120" height="36" transform="translate(236 84)" fill="#F1F1F1"/>
<path d="M248.004 97.004C249.311 97.004 250.263 97.2607 250.86 97.774C251.457 98.2873 251.756 99.0107 251.756 99.944C251.756 100.495 251.63 101.013 251.378 101.498C251.135 101.974 250.72 102.361 250.132 102.66C249.553 102.959 248.765 103.108 247.766 103.108H246.618V107H245.358V97.004H248.004ZM247.892 98.082H246.618V102.03H247.626C248.578 102.03 249.287 101.876 249.754 101.568C250.221 101.26 250.454 100.737 250.454 100C250.454 99.356 250.244 98.8753 249.824 98.558C249.413 98.2407 248.769 98.082 247.892 98.082ZM256.509 99.37C257.423 99.37 258.1 99.5707 258.539 99.972C258.977 100.373 259.197 101.013 259.197 101.89V107H258.301L258.063 105.936H258.007C257.68 106.347 257.335 106.65 256.971 106.846C256.607 107.042 256.112 107.14 255.487 107.14C254.805 107.14 254.241 106.963 253.793 106.608C253.345 106.244 253.121 105.679 253.121 104.914C253.121 104.167 253.415 103.593 254.003 103.192C254.591 102.781 255.496 102.557 256.719 102.52L257.993 102.478V102.03C257.993 101.405 257.857 100.971 257.587 100.728C257.316 100.485 256.933 100.364 256.439 100.364C256.047 100.364 255.673 100.425 255.319 100.546C254.964 100.658 254.633 100.789 254.325 100.938L253.947 100.014C254.273 99.8367 254.661 99.6873 255.109 99.566C255.557 99.4353 256.023 99.37 256.509 99.37ZM257.979 103.332L256.873 103.374C255.939 103.411 255.291 103.561 254.927 103.822C254.572 104.083 254.395 104.452 254.395 104.928C254.395 105.348 254.521 105.656 254.773 105.852C255.034 106.048 255.365 106.146 255.767 106.146C256.392 106.146 256.915 105.973 257.335 105.628C257.764 105.273 257.979 104.732 257.979 104.004V103.332ZM264.174 99.356C264.669 99.356 265.112 99.4493 265.504 99.636C265.906 99.8227 266.246 100.107 266.526 100.49H266.596L266.764 99.496H267.744V107.126C267.744 108.199 267.469 109.007 266.918 109.548C266.377 110.089 265.532 110.36 264.384 110.36C263.283 110.36 262.382 110.201 261.682 109.884V108.75C262.42 109.142 263.344 109.338 264.454 109.338C265.098 109.338 265.602 109.147 265.966 108.764C266.34 108.391 266.526 107.877 266.526 107.224V106.93C266.526 106.818 266.531 106.659 266.54 106.454C266.55 106.239 266.559 106.09 266.568 106.006H266.512C266.008 106.762 265.234 107.14 264.188 107.14C263.218 107.14 262.457 106.799 261.906 106.118C261.365 105.437 261.094 104.485 261.094 103.262C261.094 102.067 261.365 101.12 261.906 100.42C262.457 99.7107 263.213 99.356 264.174 99.356ZM264.342 100.392C263.717 100.392 263.232 100.644 262.886 101.148C262.541 101.643 262.368 102.352 262.368 103.276C262.368 104.2 262.536 104.909 262.872 105.404C263.208 105.889 263.708 106.132 264.37 106.132C265.126 106.132 265.677 105.931 266.022 105.53C266.368 105.119 266.54 104.461 266.54 103.556V103.262C266.54 102.245 266.363 101.512 266.008 101.064C265.654 100.616 265.098 100.392 264.342 100.392ZM273.026 99.356C273.66 99.356 274.211 99.496 274.678 99.776C275.144 100.056 275.499 100.453 275.742 100.966C275.994 101.47 276.12 102.063 276.12 102.744V103.486H270.982C271 104.335 271.215 104.984 271.626 105.432C272.046 105.871 272.629 106.09 273.376 106.09C273.852 106.09 274.272 106.048 274.636 105.964C275.009 105.871 275.392 105.74 275.784 105.572V106.65C275.401 106.818 275.023 106.939 274.65 107.014C274.276 107.098 273.833 107.14 273.32 107.14C272.601 107.14 271.971 106.995 271.43 106.706C270.888 106.417 270.464 105.987 270.156 105.418C269.857 104.849 269.708 104.144 269.708 103.304C269.708 102.483 269.843 101.778 270.114 101.19C270.394 100.602 270.781 100.149 271.276 99.832C271.78 99.5147 272.363 99.356 273.026 99.356ZM273.012 100.364C272.424 100.364 271.957 100.555 271.612 100.938C271.276 101.311 271.075 101.834 271.01 102.506H274.832C274.822 101.871 274.673 101.358 274.384 100.966C274.094 100.565 273.637 100.364 273.012 100.364ZM284.999 107H283.739V98.11H280.617V97.004H288.107V98.11H284.999V107ZM290.076 96.682C290.263 96.682 290.426 96.7473 290.566 96.878C290.715 96.9993 290.79 97.1953 290.79 97.466C290.79 97.7367 290.715 97.9373 290.566 98.068C290.426 98.1893 290.263 98.25 290.076 98.25C289.871 98.25 289.698 98.1893 289.558 98.068C289.418 97.9373 289.348 97.7367 289.348 97.466C289.348 97.1953 289.418 96.9993 289.558 96.878C289.698 96.7473 289.871 96.682 290.076 96.682ZM290.678 99.496V107H289.446V99.496H290.678ZM295.561 106.132C295.748 106.132 295.939 106.118 296.135 106.09C296.331 106.062 296.49 106.025 296.611 105.978V106.916C296.481 106.981 296.294 107.033 296.051 107.07C295.809 107.117 295.575 107.14 295.351 107.14C294.959 107.14 294.595 107.075 294.259 106.944C293.933 106.804 293.667 106.566 293.461 106.23C293.256 105.894 293.153 105.423 293.153 104.816V100.448H292.089V99.86L293.167 99.37L293.657 97.774H294.385V99.496H296.555V100.448H294.385V104.788C294.385 105.245 294.493 105.586 294.707 105.81C294.931 106.025 295.216 106.132 295.561 106.132ZM299.346 107H298.114V96.36H299.346V107ZM304.621 99.356C305.256 99.356 305.807 99.496 306.273 99.776C306.74 100.056 307.095 100.453 307.337 100.966C307.589 101.47 307.715 102.063 307.715 102.744V103.486H302.577C302.596 104.335 302.811 104.984 303.221 105.432C303.641 105.871 304.225 106.09 304.971 106.09C305.447 106.09 305.867 106.048 306.231 105.964C306.605 105.871 306.987 105.74 307.379 105.572V106.65C306.997 106.818 306.619 106.939 306.245 107.014C305.872 107.098 305.429 107.14 304.915 107.14C304.197 107.14 303.567 106.995 303.025 106.706C302.484 106.417 302.059 105.987 301.751 105.418C301.453 104.849 301.303 104.144 301.303 103.304C301.303 102.483 301.439 101.778 301.709 101.19C301.989 100.602 302.377 100.149 302.871 99.832C303.375 99.5147 303.959 99.356 304.621 99.356ZM304.607 100.364C304.019 100.364 303.553 100.555 303.207 100.938C302.871 101.311 302.671 101.834 302.605 102.506H306.427C306.418 101.871 306.269 101.358 305.979 100.966C305.69 100.565 305.233 100.364 304.607 100.364ZM318.974 99.342C318.974 100.014 318.783 100.551 318.4 100.952C318.027 101.344 317.528 101.605 316.902 101.736V101.792C317.696 101.885 318.288 102.137 318.68 102.548C319.082 102.959 319.282 103.495 319.282 104.158C319.282 104.746 319.147 105.264 318.876 105.712C318.606 106.16 318.186 106.51 317.616 106.762C317.056 107.014 316.333 107.14 315.446 107.14C314.924 107.14 314.438 107.098 313.99 107.014C313.542 106.939 313.113 106.799 312.702 106.594V105.446C313.122 105.661 313.575 105.824 314.06 105.936C314.546 106.048 315.012 106.104 315.46 106.104C316.356 106.104 317 105.931 317.392 105.586C317.794 105.231 317.994 104.746 317.994 104.13C317.994 103.505 317.747 103.057 317.252 102.786C316.767 102.506 316.081 102.366 315.194 102.366H314.228V101.316H315.208C316.03 101.316 316.65 101.143 317.07 100.798C317.5 100.453 317.714 99.9953 317.714 99.426C317.714 98.9407 317.551 98.5673 317.224 98.306C316.898 98.0353 316.454 97.9 315.894 97.9C315.353 97.9 314.891 97.9793 314.508 98.138C314.126 98.2967 313.748 98.4973 313.374 98.74L312.758 97.9C313.113 97.62 313.552 97.3773 314.074 97.172C314.606 96.9667 315.208 96.864 315.88 96.864C316.926 96.864 317.7 97.0973 318.204 97.564C318.718 98.0307 318.974 98.6233 318.974 99.342Z" fill="black"/>
<path d="M248.004 133.004C249.311 133.004 250.263 133.261 250.86 133.774C251.457 134.287 251.756 135.011 251.756 135.944C251.756 136.495 251.63 137.013 251.378 137.498C251.135 137.974 250.72 138.361 250.132 138.66C249.553 138.959 248.765 139.108 247.766 139.108H246.618V143H245.358V133.004H248.004ZM247.892 134.082H246.618V138.03H247.626C248.578 138.03 249.287 137.876 249.754 137.568C250.221 137.26 250.454 136.737 250.454 136C250.454 135.356 250.244 134.875 249.824 134.558C249.413 134.241 248.769 134.082 247.892 134.082ZM256.509 135.37C257.423 135.37 258.1 135.571 258.539 135.972C258.977 136.373 259.197 137.013 259.197 137.89V143H258.301L258.063 141.936H258.007C257.68 142.347 257.335 142.65 256.971 142.846C256.607 143.042 256.112 143.14 255.487 143.14C254.805 143.14 254.241 142.963 253.793 142.608C253.345 142.244 253.121 141.679 253.121 140.914C253.121 140.167 253.415 139.593 254.003 139.192C254.591 138.781 255.496 138.557 256.719 138.52L257.993 138.478V138.03C257.993 137.405 257.857 136.971 257.587 136.728C257.316 136.485 256.933 136.364 256.439 136.364C256.047 136.364 255.673 136.425 255.319 136.546C254.964 136.658 254.633 136.789 254.325 136.938L253.947 136.014C254.273 135.837 254.661 135.687 255.109 135.566C255.557 135.435 256.023 135.37 256.509 135.37ZM257.979 139.332L256.873 139.374C255.939 139.411 255.291 139.561 254.927 139.822C254.572 140.083 254.395 140.452 254.395 140.928C254.395 141.348 254.521 141.656 254.773 141.852C255.034 142.048 255.365 142.146 255.767 142.146C256.392 142.146 256.915 141.973 257.335 141.628C257.764 141.273 257.979 140.732 257.979 140.004V139.332ZM264.174 135.356C264.669 135.356 265.112 135.449 265.504 135.636C265.906 135.823 266.246 136.107 266.526 136.49H266.596L266.764 135.496H267.744V143.126C267.744 144.199 267.469 145.007 266.918 145.548C266.377 146.089 265.532 146.36 264.384 146.36C263.283 146.36 262.382 146.201 261.682 145.884V144.75C262.42 145.142 263.344 145.338 264.454 145.338C265.098 145.338 265.602 145.147 265.966 144.764C266.34 144.391 266.526 143.877 266.526 143.224V142.93C266.526 142.818 266.531 142.659 266.54 142.454C266.55 142.239 266.559 142.09 266.568 142.006H266.512C266.008 142.762 265.234 143.14 264.188 143.14C263.218 143.14 262.457 142.799 261.906 142.118C261.365 141.437 261.094 140.485 261.094 139.262C261.094 138.067 261.365 137.12 261.906 136.42C262.457 135.711 263.213 135.356 264.174 135.356ZM264.342 136.392C263.717 136.392 263.232 136.644 262.886 137.148C262.541 137.643 262.368 138.352 262.368 139.276C262.368 140.2 262.536 140.909 262.872 141.404C263.208 141.889 263.708 142.132 264.37 142.132C265.126 142.132 265.677 141.931 266.022 141.53C266.368 141.119 266.54 140.461 266.54 139.556V139.262C266.54 138.245 266.363 137.512 266.008 137.064C265.654 136.616 265.098 136.392 264.342 136.392ZM273.026 135.356C273.66 135.356 274.211 135.496 274.678 135.776C275.144 136.056 275.499 136.453 275.742 136.966C275.994 137.47 276.12 138.063 276.12 138.744V139.486H270.982C271 140.335 271.215 140.984 271.626 141.432C272.046 141.871 272.629 142.09 273.376 142.09C273.852 142.09 274.272 142.048 274.636 141.964C275.009 141.871 275.392 141.74 275.784 141.572V142.65C275.401 142.818 275.023 142.939 274.65 143.014C274.276 143.098 273.833 143.14 273.32 143.14C272.601 143.14 271.971 142.995 271.43 142.706C270.888 142.417 270.464 141.987 270.156 141.418C269.857 140.849 269.708 140.144 269.708 139.304C269.708 138.483 269.843 137.778 270.114 137.19C270.394 136.602 270.781 136.149 271.276 135.832C271.78 135.515 272.363 135.356 273.026 135.356ZM273.012 136.364C272.424 136.364 271.957 136.555 271.612 136.938C271.276 137.311 271.075 137.834 271.01 138.506H274.832C274.822 137.871 274.673 137.358 274.384 136.966C274.094 136.565 273.637 136.364 273.012 136.364ZM284.999 143H283.739V134.11H280.617V133.004H288.107V134.11H284.999V143ZM290.076 132.682C290.263 132.682 290.426 132.747 290.566 132.878C290.715 132.999 290.79 133.195 290.79 133.466C290.79 133.737 290.715 133.937 290.566 134.068C290.426 134.189 290.263 134.25 290.076 134.25C289.871 134.25 289.698 134.189 289.558 134.068C289.418 133.937 289.348 133.737 289.348 133.466C289.348 133.195 289.418 132.999 289.558 132.878C289.698 132.747 289.871 132.682 290.076 132.682ZM290.678 135.496V143H289.446V135.496H290.678ZM295.561 142.132C295.748 142.132 295.939 142.118 296.135 142.09C296.331 142.062 296.49 142.025 296.611 141.978V142.916C296.481 142.981 296.294 143.033 296.051 143.07C295.809 143.117 295.575 143.14 295.351 143.14C294.959 143.14 294.595 143.075 294.259 142.944C293.933 142.804 293.667 142.566 293.461 142.23C293.256 141.894 293.153 141.423 293.153 140.816V136.448H292.089V135.86L293.167 135.37L293.657 133.774H294.385V135.496H296.555V136.448H294.385V140.788C294.385 141.245 294.493 141.586 294.707 141.81C294.931 142.025 295.216 142.132 295.561 142.132ZM299.346 143H298.114V132.36H299.346V143ZM304.621 135.356C305.256 135.356 305.807 135.496 306.273 135.776C306.74 136.056 307.095 136.453 307.337 136.966C307.589 137.47 307.715 138.063 307.715 138.744V139.486H302.577C302.596 140.335 302.811 140.984 303.221 141.432C303.641 141.871 304.225 142.09 304.971 142.09C305.447 142.09 305.867 142.048 306.231 141.964C306.605 141.871 306.987 141.74 307.379 141.572V142.65C306.997 142.818 306.619 142.939 306.245 143.014C305.872 143.098 305.429 143.14 304.915 143.14C304.197 143.14 303.567 142.995 303.025 142.706C302.484 142.417 302.059 141.987 301.751 141.418C301.453 140.849 301.303 140.144 301.303 139.304C301.303 138.483 301.439 137.778 301.709 137.19C301.989 136.602 302.377 136.149 302.871 135.832C303.375 135.515 303.959 135.356 304.621 135.356ZM304.607 136.364C304.019 136.364 303.553 136.555 303.207 136.938C302.871 137.311 302.671 137.834 302.605 138.506H306.427C306.418 137.871 306.269 137.358 305.979 136.966C305.69 136.565 305.233 136.364 304.607 136.364ZM319.8 140.732H318.344V143H317.154V140.732H312.366V139.682L317.07 132.948H318.344V139.626H319.8V140.732ZM317.154 139.626V136.476C317.154 135.991 317.159 135.58 317.168 135.244C317.187 134.899 317.206 134.572 317.224 134.264H317.168C317.094 134.441 317 134.633 316.888 134.838C316.776 135.043 316.669 135.216 316.566 135.356L313.57 139.626H317.154Z" fill="black"/>
<path d="M248.004 169.004C249.311 169.004 250.263 169.261 250.86 169.774C251.457 170.287 251.756 171.011 251.756 171.944C251.756 172.495 251.63 173.013 251.378 173.498C251.135 173.974 250.72 174.361 250.132 174.66C249.553 174.959 248.765 175.108 247.766 175.108H246.618V179H245.358V169.004H248.004ZM247.892 170.082H246.618V174.03H247.626C248.578 174.03 249.287 173.876 249.754 173.568C250.221 173.26 250.454 172.737 250.454 172C250.454 171.356 250.244 170.875 249.824 170.558C249.413 170.241 248.769 170.082 247.892 170.082ZM256.509 171.37C257.423 171.37 258.1 171.571 258.539 171.972C258.977 172.373 259.197 173.013 259.197 173.89V179H258.301L258.063 177.936H258.007C257.68 178.347 257.335 178.65 256.971 178.846C256.607 179.042 256.112 179.14 255.487 179.14C254.805 179.14 254.241 178.963 253.793 178.608C253.345 178.244 253.121 177.679 253.121 176.914C253.121 176.167 253.415 175.593 254.003 175.192C254.591 174.781 255.496 174.557 256.719 174.52L257.993 174.478V174.03C257.993 173.405 257.857 172.971 257.587 172.728C257.316 172.485 256.933 172.364 256.439 172.364C256.047 172.364 255.673 172.425 255.319 172.546C254.964 172.658 254.633 172.789 254.325 172.938L253.947 172.014C254.273 171.837 254.661 171.687 255.109 171.566C255.557 171.435 256.023 171.37 256.509 171.37ZM257.979 175.332L256.873 175.374C255.939 175.411 255.291 175.561 254.927 175.822C254.572 176.083 254.395 176.452 254.395 176.928C254.395 177.348 254.521 177.656 254.773 177.852C255.034 178.048 255.365 178.146 255.767 178.146C256.392 178.146 256.915 177.973 257.335 177.628C257.764 177.273 257.979 176.732 257.979 176.004V175.332ZM264.174 171.356C264.669 171.356 265.112 171.449 265.504 171.636C265.906 171.823 266.246 172.107 266.526 172.49H266.596L266.764 171.496H267.744V179.126C267.744 180.199 267.469 181.007 266.918 181.548C266.377 182.089 265.532 182.36 264.384 182.36C263.283 182.36 262.382 182.201 261.682 181.884V180.75C262.42 181.142 263.344 181.338 264.454 181.338C265.098 181.338 265.602 181.147 265.966 180.764C266.34 180.391 266.526 179.877 266.526 179.224V178.93C266.526 178.818 266.531 178.659 266.54 178.454C266.55 178.239 266.559 178.09 266.568 178.006H266.512C266.008 178.762 265.234 179.14 264.188 179.14C263.218 179.14 262.457 178.799 261.906 178.118C261.365 177.437 261.094 176.485 261.094 175.262C261.094 174.067 261.365 173.12 261.906 172.42C262.457 171.711 263.213 171.356 264.174 171.356ZM264.342 172.392C263.717 172.392 263.232 172.644 262.886 173.148C262.541 173.643 262.368 174.352 262.368 175.276C262.368 176.2 262.536 176.909 262.872 177.404C263.208 177.889 263.708 178.132 264.37 178.132C265.126 178.132 265.677 177.931 266.022 177.53C266.368 177.119 266.54 176.461 266.54 175.556V175.262C266.54 174.245 266.363 173.512 266.008 173.064C265.654 172.616 265.098 172.392 264.342 172.392ZM273.026 171.356C273.66 171.356 274.211 171.496 274.678 171.776C275.144 172.056 275.499 172.453 275.742 172.966C275.994 173.47 276.12 174.063 276.12 174.744V175.486H270.982C271 176.335 271.215 176.984 271.626 177.432C272.046 177.871 272.629 178.09 273.376 178.09C273.852 178.09 274.272 178.048 274.636 177.964C275.009 177.871 275.392 177.74 275.784 177.572V178.65C275.401 178.818 275.023 178.939 274.65 179.014C274.276 179.098 273.833 179.14 273.32 179.14C272.601 179.14 271.971 178.995 271.43 178.706C270.888 178.417 270.464 177.987 270.156 177.418C269.857 176.849 269.708 176.144 269.708 175.304C269.708 174.483 269.843 173.778 270.114 173.19C270.394 172.602 270.781 172.149 271.276 171.832C271.78 171.515 272.363 171.356 273.026 171.356ZM273.012 172.364C272.424 172.364 271.957 172.555 271.612 172.938C271.276 173.311 271.075 173.834 271.01 174.506H274.832C274.822 173.871 274.673 173.358 274.384 172.966C274.094 172.565 273.637 172.364 273.012 172.364ZM284.999 179H283.739V170.11H280.617V169.004H288.107V170.11H284.999V179ZM290.076 168.682C290.263 168.682 290.426 168.747 290.566 168.878C290.715 168.999 290.79 169.195 290.79 169.466C290.79 169.737 290.715 169.937 290.566 170.068C290.426 170.189 290.263 170.25 290.076 170.25C289.871 170.25 289.698 170.189 289.558 170.068C289.418 169.937 289.348 169.737 289.348 169.466C289.348 169.195 289.418 168.999 289.558 168.878C289.698 168.747 289.871 168.682 290.076 168.682ZM290.678 171.496V179H289.446V171.496H290.678ZM295.561 178.132C295.748 178.132 295.939 178.118 296.135 178.09C296.331 178.062 296.49 178.025 296.611 177.978V178.916C296.481 178.981 296.294 179.033 296.051 179.07C295.809 179.117 295.575 179.14 295.351 179.14C294.959 179.14 294.595 179.075 294.259 178.944C293.933 178.804 293.667 178.566 293.461 178.23C293.256 177.894 293.153 177.423 293.153 176.816V172.448H292.089V171.86L293.167 171.37L293.657 169.774H294.385V171.496H296.555V172.448H294.385V176.788C294.385 177.245 294.493 177.586 294.707 177.81C294.931 178.025 295.216 178.132 295.561 178.132ZM299.346 179H298.114V168.36H299.346V179ZM304.621 171.356C305.256 171.356 305.807 171.496 306.273 171.776C306.74 172.056 307.095 172.453 307.337 172.966C307.589 173.47 307.715 174.063 307.715 174.744V175.486H302.577C302.596 176.335 302.811 176.984 303.221 177.432C303.641 177.871 304.225 178.09 304.971 178.09C305.447 178.09 305.867 178.048 306.231 177.964C306.605 177.871 306.987 177.74 307.379 177.572V178.65C306.997 178.818 306.619 178.939 306.245 179.014C305.872 179.098 305.429 179.14 304.915 179.14C304.197 179.14 303.567 178.995 303.025 178.706C302.484 178.417 302.059 177.987 301.751 177.418C301.453 176.849 301.303 176.144 301.303 175.304C301.303 174.483 301.439 173.778 301.709 173.19C301.989 172.602 302.377 172.149 302.871 171.832C303.375 171.515 303.959 171.356 304.621 171.356ZM304.607 172.364C304.019 172.364 303.553 172.555 303.207 172.938C302.871 173.311 302.671 173.834 302.605 174.506H306.427C306.418 173.871 306.269 173.358 305.979 172.966C305.69 172.565 305.233 172.364 304.607 172.364ZM315.922 172.868C316.94 172.868 317.752 173.125 318.358 173.638C318.974 174.151 319.282 174.875 319.282 175.808C319.282 176.844 318.951 177.661 318.288 178.258C317.635 178.846 316.72 179.14 315.544 179.14C315.022 179.14 314.536 179.093 314.088 179C313.64 178.907 313.262 178.771 312.954 178.594V177.432C313.29 177.637 313.696 177.801 314.172 177.922C314.658 178.034 315.12 178.09 315.558 178.09C316.296 178.09 316.888 177.917 317.336 177.572C317.794 177.217 318.022 176.671 318.022 175.934C318.022 175.281 317.822 174.781 317.42 174.436C317.019 174.081 316.384 173.904 315.516 173.904C315.255 173.904 314.956 173.927 314.62 173.974C314.284 174.021 314.014 174.067 313.808 174.114L313.192 173.722L313.57 169.004H318.582V170.124H314.62L314.382 173.022C314.541 172.994 314.756 172.961 315.026 172.924C315.297 172.887 315.596 172.868 315.922 172.868Z" fill="black"/>
<rect x="235.5" y="47.5" width="121" height="145" rx="4.5" stroke="black" stroke-opacity="0.15"/>
</g>
<g filter="url(#filter1_d_8669_367889)">
<mask id="path-21-outside-1_8669_367889" maskUnits="userSpaceOnUse" x="324" y="92" width="16" height="19" fill="black">
<rect fill="white" x="324" y="92" width="16" height="19"/>
<path fill-rule="evenodd" clip-rule="evenodd" d="M328.836 103L327.949 101.645C327.344 100.72 326.054 100.383 325.068 100.89L325.298 100.772C325.053 100.898 324.935 101.211 325.036 101.472L326.263 104.647C326.458 105.151 326.955 105.863 327.367 106.22C327.367 106.22 329.836 108.264 329.836 109.03V110H333.836L334.836 108L335.836 110H336.836V109.03C336.836 108.264 338.344 105.851 338.344 105.851C338.622 105.382 338.854 104.555 338.854 104.007V99.9718C338.836 99.0785 338.076 98.3545 337.139 98.3545C336.671 98.3545 336.291 98.7165 336.291 99.1634V99.4866C336.291 98.5933 335.532 97.8693 334.595 97.8693C334.126 97.8693 333.746 98.2313 333.746 98.6782V99.0013C333.746 98.108 332.987 97.3841 332.05 97.3841C331.581 97.3841 331.201 97.7461 331.201 98.193V98.5161C331.201 98.3726 331.186 98.2584 331.157 98.168L330.898 94.0012C330.863 93.4378 330.388 93 329.836 93C329.279 93 328.836 93.4476 328.836 93.9998V98V103ZM335.854 102H336.854V106H335.854V102ZM333.854 102H334.854V106H333.854V102ZM331.854 102H332.854V106H331.854V102Z"/>
</mask>
<path fill-rule="evenodd" clip-rule="evenodd" d="M328.836 103L327.949 101.645C327.344 100.72 326.054 100.383 325.068 100.89L325.298 100.772C325.053 100.898 324.935 101.211 325.036 101.472L326.263 104.647C326.458 105.151 326.955 105.863 327.367 106.22C327.367 106.22 329.836 108.264 329.836 109.03V110H333.836L334.836 108L335.836 110H336.836V109.03C336.836 108.264 338.344 105.851 338.344 105.851C338.622 105.382 338.854 104.555 338.854 104.007V99.9718C338.836 99.0785 338.076 98.3545 337.139 98.3545C336.671 98.3545 336.291 98.7165 336.291 99.1634V99.4866C336.291 98.5933 335.532 97.8693 334.595 97.8693C334.126 97.8693 333.746 98.2313 333.746 98.6782V99.0013C333.746 98.108 332.987 97.3841 332.05 97.3841C331.581 97.3841 331.201 97.7461 331.201 98.193V98.5161C331.201 98.3726 331.186 98.2584 331.157 98.168L330.898 94.0012C330.863 93.4378 330.388 93 329.836 93C329.279 93 328.836 93.4476 328.836 93.9998V98V103ZM335.854 102H336.854V106H335.854V102ZM333.854 102H334.854V106H333.854V102ZM331.854 102H332.854V106H331.854V102Z" fill="white"/>
<path d="M328.836 103L327.999 103.548L329.836 106.354V103H328.836ZM327.949 101.645L328.786 101.098L327.949 101.645ZM325.036 101.472L324.103 101.833L325.036 101.472ZM326.263 104.647L327.196 104.287L326.263 104.647ZM327.367 106.22L326.711 106.975L326.72 106.983L326.729 106.991L327.367 106.22ZM329.836 110H328.836V111H329.836V110ZM333.836 110V111H334.454L334.73 110.447L333.836 110ZM334.836 108L335.73 107.553L334.836 105.764L333.941 107.553L334.836 108ZM335.836 110L334.941 110.447L335.218 111H335.836V110ZM336.836 110V111H337.836V110H336.836ZM338.344 105.851L339.192 106.381L339.199 106.371L339.205 106.36L338.344 105.851ZM338.854 99.9718H339.854V99.9617L339.853 99.9516L338.854 99.9718ZM331.157 98.168L330.158 98.23L330.166 98.3578L330.206 98.4795L331.157 98.168ZM330.898 94.0012L329.9 94.0632V94.0632L330.898 94.0012ZM328.836 93.9998H327.836H328.836ZM336.854 102H337.854V101H336.854V102ZM336.854 106V107H337.854V106H336.854ZM335.854 106H334.854V107H335.854V106ZM335.854 102V101H334.854V102H335.854ZM334.854 102H335.854V101H334.854V102ZM334.854 106V107H335.854V106H334.854ZM333.854 106H332.854V107H333.854V106ZM333.854 102V101H332.854V102H333.854ZM332.854 102H333.854V101H332.854V102ZM332.854 106V107H333.854V106H332.854ZM331.854 106H330.854V107H331.854V106ZM331.854 102V101H330.854V102H331.854ZM329.672 102.452L328.786 101.098L327.112 102.193L327.999 103.548L329.672 102.452ZM328.786 101.098C327.898 99.7415 326.049 99.2611 324.61 100.001L325.525 101.779C326.059 101.505 326.789 101.699 327.112 102.193L328.786 101.098ZM325.525 101.779L325.755 101.661L324.84 99.8825L324.61 100.001L325.525 101.779ZM324.84 99.8825C324.131 100.247 323.822 101.105 324.103 101.833L325.969 101.112C326.014 101.23 326.005 101.34 325.974 101.421C325.944 101.503 325.876 101.599 325.755 101.661L324.84 99.8825ZM324.103 101.833L325.331 105.008L327.196 104.287L325.969 101.112L324.103 101.833ZM325.331 105.008C325.583 105.662 326.175 106.51 326.711 106.975L328.022 105.465C327.735 105.216 327.333 104.64 327.196 104.287L325.331 105.008ZM327.367 106.22C326.729 106.991 326.729 106.991 326.729 106.991C326.729 106.991 326.729 106.991 326.729 106.991C326.729 106.991 326.729 106.991 326.729 106.991C326.729 106.991 326.729 106.991 326.73 106.991C326.73 106.992 326.732 106.993 326.734 106.995C326.738 106.998 326.744 107.003 326.752 107.01C326.768 107.024 326.793 107.045 326.825 107.072C326.889 107.126 326.981 107.205 327.092 107.303C327.315 107.499 327.609 107.765 327.9 108.051C328.196 108.342 328.468 108.632 328.659 108.88C328.755 109.004 328.813 109.095 328.843 109.152C328.884 109.23 328.836 109.174 328.836 109.03H330.836C330.836 108.694 330.71 108.407 330.616 108.226C330.511 108.025 330.376 107.831 330.241 107.656C329.969 107.304 329.624 106.941 329.302 106.625C328.976 106.304 328.653 106.012 328.413 105.801C328.292 105.695 328.191 105.608 328.12 105.548C328.085 105.517 328.056 105.494 328.037 105.477C328.027 105.469 328.019 105.462 328.014 105.458C328.011 105.455 328.009 105.454 328.007 105.452C328.006 105.452 328.006 105.451 328.005 105.451C328.005 105.451 328.005 105.45 328.005 105.45C328.005 105.45 328.004 105.45 328.004 105.45C328.004 105.45 328.004 105.45 327.367 106.22ZM328.836 109.03V110H330.836V109.03H328.836ZM329.836 111H333.836V109H329.836V111ZM334.73 110.447L335.73 108.447L333.941 107.553L332.941 109.553L334.73 110.447ZM333.941 108.447L334.941 110.447L336.73 109.553L335.73 107.553L333.941 108.447ZM335.836 111H336.836V109H335.836V111ZM337.836 110V109.03H335.836V110H337.836ZM337.836 109.03C337.836 109.066 337.846 108.944 337.992 108.6C338.116 108.307 338.288 107.965 338.47 107.628C338.65 107.294 338.831 106.981 338.968 106.75C339.037 106.635 339.093 106.542 339.133 106.477C339.152 106.445 339.168 106.421 339.178 106.404C339.183 106.396 339.187 106.39 339.189 106.386C339.19 106.384 339.191 106.382 339.192 106.382C339.192 106.381 339.192 106.381 339.192 106.381C339.192 106.381 339.192 106.381 339.192 106.381C339.192 106.381 339.192 106.381 339.192 106.381C339.192 106.381 339.192 106.381 338.344 105.851C337.496 105.321 337.496 105.321 337.496 105.321C337.496 105.321 337.496 105.321 337.496 105.321C337.496 105.321 337.496 105.321 337.496 105.321C337.496 105.322 337.495 105.322 337.495 105.323C337.494 105.325 337.493 105.327 337.491 105.329C337.488 105.335 337.483 105.342 337.477 105.352C337.465 105.371 337.448 105.399 337.426 105.434C337.383 105.505 337.322 105.606 337.249 105.729C337.103 105.975 336.907 106.313 336.71 106.678C336.515 107.04 336.309 107.445 336.15 107.82C336.013 108.144 335.836 108.611 335.836 109.03H337.836ZM339.205 106.36C339.403 106.026 339.559 105.613 339.667 105.226C339.774 104.839 339.854 104.401 339.854 104.007H337.854C337.854 104.161 337.817 104.41 337.74 104.691C337.662 104.971 337.564 105.206 337.484 105.341L339.205 106.36ZM339.854 104.007V99.9718H337.854V104.007H339.854ZM339.853 99.9516C339.824 98.4818 338.588 97.3545 337.139 97.3545V99.3545C337.565 99.3545 337.847 99.6752 337.854 99.992L339.853 99.9516ZM337.139 97.3545C336.164 97.3545 335.291 98.1198 335.291 99.1634H337.291C337.291 99.2317 337.26 99.2858 337.229 99.3152C337.199 99.3437 337.165 99.3545 337.139 99.3545V97.3545ZM335.291 99.1634V99.4866H337.291V99.1634H335.291ZM337.291 99.4866C337.291 97.9966 336.038 96.8693 334.595 96.8693V98.8693C335.025 98.8693 335.291 99.19 335.291 99.4866H337.291ZM334.595 96.8693C333.619 96.8693 332.746 97.6346 332.746 98.6782H334.746C334.746 98.7465 334.715 98.8005 334.685 98.8299C334.655 98.8585 334.621 98.8693 334.595 98.8693V96.8693ZM332.746 98.6782V99.0013H334.746V98.6782H332.746ZM334.746 99.0013C334.746 97.5113 333.494 96.3841 332.05 96.3841V98.3841C332.48 98.3841 332.746 98.7047 332.746 99.0013H334.746ZM332.05 96.3841C331.074 96.3841 330.201 97.1494 330.201 98.193H332.201C332.201 98.2613 332.171 98.3153 332.14 98.3447C332.11 98.3733 332.076 98.3841 332.05 98.3841V96.3841ZM330.201 98.193V98.5161H332.201V98.193H330.201ZM332.201 98.5161C332.201 98.3088 332.18 98.0809 332.107 97.8565L330.206 98.4795C330.198 98.4555 330.198 98.4444 330.199 98.4516C330.199 98.4587 330.201 98.4791 330.201 98.5161H332.201ZM332.155 98.106L331.896 93.9392L329.9 94.0632L330.158 98.23L332.155 98.106ZM331.896 93.9392C331.828 92.845 330.912 92 329.836 92V94C329.844 94 329.86 94.0035 329.877 94.0193C329.893 94.0344 329.899 94.0498 329.9 94.0632L331.896 93.9392ZM329.836 92C328.725 92 327.836 92.8977 327.836 93.9998H329.836V94V92ZM327.836 93.9998V98H329.836V93.9998H327.836ZM327.836 98V103H329.836V98H327.836ZM335.854 103H336.854V101H335.854V103ZM335.854 102V106H337.854V102H335.854ZM336.854 105H335.854V107H336.854V105ZM336.854 106V102H334.854V106H336.854ZM333.854 103H334.854V101H333.854V103ZM333.854 102V106H335.854V102H333.854ZM334.854 105H333.854V107H334.854V105ZM334.854 106V102H332.854V106H334.854ZM331.854 103H332.854V101H331.854V103ZM331.854 102V106H333.854V102H331.854ZM332.854 105H331.854V107H332.854V105ZM332.854 106V102H330.854V106H332.854Z" fill="black" fill-opacity="0.8" mask="url(#path-21-outside-1_8669_367889)"/>
</g>
<defs>
<filter id="filter0_d_8669_367889" x="231" y="47" width="130" height="154" filterUnits="userSpaceOnUse" color-interpolation-filters="sRGB">
<feFlood flood-opacity="0" result="BackgroundImageFix"/>
<feColorMatrix in="SourceAlpha" type="matrix" values="0 0 0 0 0 0 0 0 0 0 0 0 0 0 0 0 0 0 127 0" result="hardAlpha"/>
<feOffset dy="4"/>
<feGaussianBlur stdDeviation="2"/>
<feColorMatrix type="matrix" values="0 0 0 0 0 0 0 0 0 0 0 0 0 0 0 0 0 0 0.25 0"/>
<feBlend mode="normal" in2="BackgroundImageFix" result="effect1_dropShadow_8669_367889"/>
<feBlend mode="normal" in="SourceGraphic" in2="effect1_dropShadow_8669_367889" result="shape"/>
</filter>
<filter id="filter1_d_8669_367889" x="321" y="90" width="21.8535" height="25" filterUnits="userSpaceOnUse" color-interpolation-filters="sRGB">
<feFlood flood-opacity="0" result="BackgroundImageFix"/>
<feColorMatrix in="SourceAlpha" type="matrix" values="0 0 0 0 0 0 0 0 0 0 0 0 0 0 0 0 0 0 127 0" result="hardAlpha"/>
<feOffset dy="1"/>
<feGaussianBlur stdDeviation="1.5"/>
<feColorMatrix type="matrix" values="0 0 0 0 0 0 0 0 0 0 0 0 0 0 0 0 0 0 0.2 0"/>
<feBlend mode="normal" in2="BackgroundImageFix" result="effect1_dropShadow_8669_367889"/>
<feBlend mode="normal" in="SourceGraphic" in2="effect1_dropShadow_8669_367889" result="shape"/>
</filter>
<radialGradient id="paint0_angular_8669_367889" cx="0" cy="0" r="1" gradientUnits="userSpaceOnUse" gradientTransform="translate(242.092 22) rotate(48.3339) scale(26.9374 1.25876e-06)">
<stop stop-color="white"/>
<stop offset="1" stop-color="#DDDDDD"/>
</radialGradient>
</defs>
</svg>
