<svg width="412" height="200" viewBox="0 0 412 200" fill="none" xmlns="http://www.w3.org/2000/svg">
<rect width="412" height="200" fill="white"/>
<path d="M41.711 86.084C41.711 88.3767 41.084 90.1057 39.83 91.271C38.5887 92.4237 36.8533 93 34.624 93H30.843V79.434H35.023C36.3783 79.434 37.5563 79.6873 38.557 80.194C39.5703 80.7007 40.3493 81.448 40.894 82.436C41.4387 83.424 41.711 84.64 41.711 86.084ZM39.906 86.141C39.906 84.3297 39.4563 83.006 38.557 82.17C37.6703 81.3213 36.41 80.897 34.776 80.897H32.553V91.537H34.396C38.0693 91.537 39.906 89.7383 39.906 86.141ZM48.3509 82.645C49.5922 82.645 50.5106 82.9173 51.1059 83.462C51.7012 84.0067 51.9989 84.8743 51.9989 86.065V93H50.7829L50.4599 91.556H50.3839C49.9406 92.1133 49.4719 92.525 48.9779 92.791C48.4839 93.057 47.8126 93.19 46.9639 93.19C46.0392 93.19 45.2729 92.9493 44.6649 92.468C44.0569 91.974 43.7529 91.2077 43.7529 90.169C43.7529 89.1557 44.1519 88.3767 44.9499 87.832C45.7479 87.2747 46.9766 86.9707 48.6359 86.92L50.3649 86.863V86.255C50.3649 85.4063 50.1812 84.8173 49.8139 84.488C49.4466 84.1587 48.9272 83.994 48.2559 83.994C47.7239 83.994 47.2172 84.0763 46.7359 84.241C46.2546 84.393 45.8049 84.5703 45.3869 84.773L44.8739 83.519C45.3172 83.2783 45.8429 83.0757 46.4509 82.911C47.0589 82.7337 47.6922 82.645 48.3509 82.645ZM50.3459 88.022L48.8449 88.079C47.5782 88.1297 46.6979 88.3323 46.2039 88.687C45.7226 89.0417 45.4819 89.542 45.4819 90.188C45.4819 90.758 45.6529 91.176 45.9949 91.442C46.3496 91.708 46.7992 91.841 47.3439 91.841C48.1926 91.841 48.9019 91.6067 49.4719 91.138C50.0546 90.6567 50.3459 89.922 50.3459 88.934V88.022ZM61.7753 90.188C61.7753 91.176 61.408 91.9233 60.6733 92.43C59.9386 92.9367 58.9506 93.19 57.7093 93.19C57 93.19 56.3856 93.133 55.8663 93.019C55.3596 92.905 54.91 92.7467 54.5173 92.544V91.024C54.9226 91.2267 55.4103 91.4167 55.9803 91.594C56.563 91.7587 57.152 91.841 57.7473 91.841C58.596 91.841 59.2103 91.708 59.5903 91.442C59.9703 91.1633 60.1603 90.796 60.1603 90.34C60.1603 90.0867 60.0906 89.8587 59.9513 89.656C59.812 89.4533 59.5586 89.2507 59.1913 89.048C58.8366 88.8453 58.3236 88.6173 57.6523 88.364C56.9936 88.1107 56.43 87.8573 55.9613 87.604C55.4926 87.3507 55.1316 87.0467 54.8783 86.692C54.625 86.3373 54.4983 85.8813 54.4983 85.324C54.4983 84.4627 54.8466 83.7977 55.5433 83.329C56.2526 82.8603 57.1773 82.626 58.3173 82.626C58.938 82.626 59.5143 82.6893 60.0463 82.816C60.591 82.9427 61.0976 83.1073 61.5663 83.31L60.9963 84.64C60.5656 84.4627 60.116 84.3107 59.6473 84.184C59.1786 84.0573 58.6973 83.994 58.2033 83.994C57.5193 83.994 56.9936 84.108 56.6263 84.336C56.2716 84.5513 56.0943 84.849 56.0943 85.229C56.0943 85.5203 56.1766 85.761 56.3413 85.951C56.506 86.141 56.7783 86.331 57.1583 86.521C57.551 86.711 58.0703 86.9263 58.7163 87.167C59.3623 87.4077 59.9133 87.6547 60.3693 87.908C60.8253 88.1613 61.1736 88.4717 61.4143 88.839C61.655 89.1937 61.7753 89.6433 61.7753 90.188ZM65.9081 78.56V82.797C65.9081 83.3037 65.8764 83.7787 65.8131 84.222H65.9271C66.2564 83.7027 66.6998 83.31 67.2571 83.044C67.8271 82.778 68.4414 82.645 69.1001 82.645C70.3288 82.645 71.2534 82.9427 71.8741 83.538C72.5074 84.1207 72.8241 85.0643 72.8241 86.369V93H71.1711V86.483C71.1711 84.849 70.4111 84.032 68.8911 84.032C67.7511 84.032 66.9658 84.355 66.5351 85.001C66.1171 85.6343 65.9081 86.5463 65.9081 87.737V93H64.2361V78.56H65.9081ZM77.6532 78.56V82.075C77.6532 82.5057 77.6405 82.911 77.6152 83.291C77.6025 83.6583 77.5835 83.9497 77.5582 84.165H77.6532C77.9445 83.7343 78.3435 83.3733 78.8502 83.082C79.3569 82.7907 80.0092 82.645 80.8072 82.645C82.0739 82.645 83.0872 83.0883 83.8472 83.975C84.6199 84.849 85.0062 86.16 85.0062 87.908C85.0062 89.656 84.6199 90.9733 83.8472 91.86C83.0745 92.7467 82.0612 93.19 80.8072 93.19C80.0092 93.19 79.3569 93.0443 78.8502 92.753C78.3435 92.4617 77.9445 92.1133 77.6532 91.708H77.5202L77.1782 93H75.9812V78.56H77.6532ZM80.5222 84.032C79.4329 84.032 78.6792 84.3423 78.2612 84.963C77.8559 85.5837 77.6532 86.5463 77.6532 87.851V87.927C77.6532 89.181 77.8559 90.1437 78.2612 90.815C78.6792 91.4737 79.4455 91.803 80.5602 91.803C81.4722 91.803 82.1499 91.4673 82.5932 90.796C83.0492 90.1247 83.2772 89.1557 83.2772 87.889C83.2772 85.3177 82.3589 84.032 80.5222 84.032ZM96.5247 87.889C96.5247 89.5737 96.094 90.8783 95.2327 91.803C94.384 92.7277 93.2313 93.19 91.7747 93.19C90.8753 93.19 90.071 92.9873 89.3617 92.582C88.665 92.164 88.114 91.5623 87.7087 90.777C87.3033 89.979 87.1007 89.0163 87.1007 87.889C87.1007 86.2043 87.5187 84.906 88.3547 83.994C89.2033 83.082 90.3623 82.626 91.8317 82.626C92.7437 82.626 93.5543 82.835 94.2637 83.253C94.973 83.6583 95.524 84.2537 95.9167 85.039C96.322 85.8117 96.5247 86.7617 96.5247 87.889ZM88.8297 87.889C88.8297 89.0923 89.064 90.0487 89.5327 90.758C90.014 91.4547 90.774 91.803 91.8127 91.803C92.8387 91.803 93.5923 91.4547 94.0737 90.758C94.555 90.0487 94.7957 89.0923 94.7957 87.889C94.7957 86.6857 94.555 85.742 94.0737 85.058C93.5923 84.374 92.8323 84.032 91.7937 84.032C90.755 84.032 90.0013 84.374 89.5327 85.058C89.064 85.742 88.8297 86.6857 88.8297 87.889ZM103.032 82.645C104.273 82.645 105.191 82.9173 105.787 83.462C106.382 84.0067 106.68 84.8743 106.68 86.065V93H105.464L105.141 91.556H105.065C104.621 92.1133 104.153 92.525 103.659 92.791C103.165 93.057 102.493 93.19 101.645 93.19C100.72 93.19 99.9536 92.9493 99.3456 92.468C98.7376 91.974 98.4336 91.2077 98.4336 90.169C98.4336 89.1557 98.8326 88.3767 99.6306 87.832C100.429 87.2747 101.657 86.9707 103.317 86.92L105.046 86.863V86.255C105.046 85.4063 104.862 84.8173 104.495 84.488C104.127 84.1587 103.608 83.994 102.937 83.994C102.405 83.994 101.898 84.0763 101.417 84.241C100.935 84.393 100.486 84.5703 100.068 84.773L99.5546 83.519C99.9979 83.2783 100.524 83.0757 101.132 82.911C101.74 82.7337 102.373 82.645 103.032 82.645ZM105.027 88.022L103.526 88.079C102.259 88.1297 101.379 88.3323 100.885 88.687C100.403 89.0417 100.163 89.542 100.163 90.188C100.163 90.758 100.334 91.176 100.676 91.442C101.03 91.708 101.48 91.841 102.025 91.841C102.873 91.841 103.583 91.6067 104.153 91.138C104.735 90.6567 105.027 89.922 105.027 88.934V88.022ZM114.575 82.626C114.765 82.626 114.968 82.6387 115.183 82.664C115.398 82.6767 115.595 82.702 115.772 82.74L115.563 84.279C115.398 84.241 115.215 84.2093 115.012 84.184C114.809 84.1587 114.626 84.146 114.461 84.146C113.942 84.146 113.454 84.2917 112.998 84.583C112.542 84.8617 112.175 85.2607 111.896 85.78C111.63 86.2867 111.497 86.882 111.497 87.566V93H109.825V82.816H111.193L111.383 84.678H111.459C111.776 84.1207 112.194 83.6393 112.713 83.234C113.245 82.8287 113.866 82.626 114.575 82.626ZM120.913 93.19C119.646 93.19 118.633 92.753 117.873 91.879C117.113 90.9923 116.733 89.675 116.733 87.927C116.733 86.179 117.113 84.8617 117.873 83.975C118.645 83.0757 119.665 82.626 120.932 82.626C121.717 82.626 122.357 82.7717 122.851 83.063C123.357 83.3543 123.769 83.709 124.086 84.127H124.2C124.174 83.9623 124.149 83.7217 124.124 83.405C124.098 83.0757 124.086 82.816 124.086 82.626V78.56H125.758V93H124.409L124.162 91.632H124.086C123.782 92.0627 123.376 92.43 122.87 92.734C122.363 93.038 121.711 93.19 120.913 93.19ZM121.179 91.803C122.255 91.803 123.009 91.5117 123.44 90.929C123.883 90.3337 124.105 89.4407 124.105 88.25V87.946C124.105 86.6793 123.896 85.7103 123.478 85.039C123.06 84.355 122.287 84.013 121.16 84.013C120.26 84.013 119.583 84.374 119.127 85.096C118.683 85.8053 118.462 86.7617 118.462 87.965C118.462 89.181 118.683 90.1247 119.127 90.796C119.583 91.4673 120.267 91.803 121.179 91.803Z" fill="#1B77AF"/>
<path d="M142.878 79.434L137.824 93H136.19L141.244 79.434H142.878Z" fill="black"/>
<path d="M159.657 80.745C158.2 80.745 157.054 81.2327 156.218 82.208C155.382 83.1833 154.964 84.5197 154.964 86.217C154.964 87.9017 155.35 89.238 156.123 90.226C156.908 91.2013 158.08 91.689 159.638 91.689C160.221 91.689 160.778 91.6383 161.31 91.537C161.842 91.4357 162.368 91.309 162.887 91.157V92.639C162.38 92.829 161.855 92.9683 161.31 93.057C160.778 93.1457 160.138 93.19 159.391 93.19C158.01 93.19 156.858 92.905 155.933 92.335C155.008 91.765 154.312 90.9543 153.843 89.903C153.387 88.8517 153.159 87.6167 153.159 86.198C153.159 84.83 153.406 83.6267 153.9 82.588C154.407 81.5367 155.148 80.7197 156.123 80.137C157.098 79.5417 158.283 79.244 159.676 79.244C161.107 79.244 162.355 79.51 163.419 80.042L162.735 81.486C162.317 81.296 161.848 81.125 161.329 80.973C160.822 80.821 160.265 80.745 159.657 80.745ZM169.477 82.645C170.718 82.645 171.637 82.9173 172.232 83.462C172.827 84.0067 173.125 84.8743 173.125 86.065V93H171.909L171.586 91.556H171.51C171.067 92.1133 170.598 92.525 170.104 92.791C169.61 93.057 168.939 93.19 168.09 93.19C167.165 93.19 166.399 92.9493 165.791 92.468C165.183 91.974 164.879 91.2077 164.879 90.169C164.879 89.1557 165.278 88.3767 166.076 87.832C166.874 87.2747 168.103 86.9707 169.762 86.92L171.491 86.863V86.255C171.491 85.4063 171.307 84.8173 170.94 84.488C170.573 84.1587 170.053 83.994 169.382 83.994C168.85 83.994 168.343 84.0763 167.862 84.241C167.381 84.393 166.931 84.5703 166.513 84.773L166 83.519C166.443 83.2783 166.969 83.0757 167.577 82.911C168.185 82.7337 168.818 82.645 169.477 82.645ZM171.472 88.022L169.971 88.079C168.704 88.1297 167.824 88.3323 167.33 88.687C166.849 89.0417 166.608 89.542 166.608 90.188C166.608 90.758 166.779 91.176 167.121 91.442C167.476 91.708 167.925 91.841 168.47 91.841C169.319 91.841 170.028 91.6067 170.598 91.138C171.181 90.6567 171.472 89.922 171.472 88.934V88.022ZM177.942 93H176.27V78.56H177.942V93ZM185.102 82.626C185.963 82.626 186.71 82.816 187.344 83.196C187.977 83.576 188.458 84.1143 188.788 84.811C189.13 85.495 189.301 86.2993 189.301 87.224V88.231H182.328C182.353 89.3837 182.644 90.264 183.202 90.872C183.772 91.4673 184.563 91.765 185.577 91.765C186.223 91.765 186.793 91.708 187.287 91.594C187.793 91.4673 188.313 91.29 188.845 91.062V92.525C188.325 92.753 187.812 92.9177 187.306 93.019C186.799 93.133 186.197 93.19 185.501 93.19C184.525 93.19 183.67 92.9937 182.936 92.601C182.201 92.2083 181.625 91.6257 181.207 90.853C180.801 90.0803 180.599 89.124 180.599 87.984C180.599 86.8693 180.782 85.913 181.15 85.115C181.53 84.317 182.055 83.7027 182.727 83.272C183.411 82.8413 184.202 82.626 185.102 82.626ZM185.083 83.994C184.285 83.994 183.651 84.2537 183.183 84.773C182.727 85.2797 182.454 85.989 182.366 86.901H187.553C187.54 86.0397 187.337 85.343 186.945 84.811C186.552 84.2663 185.931 83.994 185.083 83.994ZM196.795 82.626C198.011 82.626 198.93 82.9237 199.55 83.519C200.171 84.1143 200.481 85.0643 200.481 86.369V93H198.828V86.483C198.828 84.849 198.068 84.032 196.548 84.032C195.421 84.032 194.642 84.3487 194.211 84.982C193.781 85.6153 193.565 86.5273 193.565 87.718V93H191.893V82.816H193.242L193.489 84.203H193.584C193.914 83.671 194.37 83.2783 194.952 83.025C195.535 82.759 196.149 82.626 196.795 82.626ZM207.248 93.19C205.982 93.19 204.968 92.753 204.208 91.879C203.448 90.9923 203.068 89.675 203.068 87.927C203.068 86.179 203.448 84.8617 204.208 83.975C204.981 83.0757 206.001 82.626 207.267 82.626C208.053 82.626 208.692 82.7717 209.186 83.063C209.693 83.3543 210.105 83.709 210.421 84.127H210.535C210.51 83.9623 210.485 83.7217 210.459 83.405C210.434 83.0757 210.421 82.816 210.421 82.626V78.56H212.093V93H210.744L210.497 91.632H210.421C210.117 92.0627 209.712 92.43 209.205 92.734C208.699 93.038 208.046 93.19 207.248 93.19ZM207.514 91.803C208.591 91.803 209.345 91.5117 209.775 90.929C210.219 90.3337 210.44 89.4407 210.44 88.25V87.946C210.44 86.6793 210.231 85.7103 209.813 85.039C209.395 84.355 208.623 84.013 207.495 84.013C206.596 84.013 205.918 84.374 205.462 85.096C205.019 85.8053 204.797 86.7617 204.797 87.965C204.797 89.181 205.019 90.1247 205.462 90.796C205.918 91.4673 206.602 91.803 207.514 91.803ZM219.185 82.645C220.426 82.645 221.345 82.9173 221.94 83.462C222.535 84.0067 222.833 84.8743 222.833 86.065V93H221.617L221.294 91.556H221.218C220.775 92.1133 220.306 92.525 219.812 92.791C219.318 93.057 218.647 93.19 217.798 93.19C216.873 93.19 216.107 92.9493 215.499 92.468C214.891 91.974 214.587 91.2077 214.587 90.169C214.587 89.1557 214.986 88.3767 215.784 87.832C216.582 87.2747 217.811 86.9707 219.47 86.92L221.199 86.863V86.255C221.199 85.4063 221.015 84.8173 220.648 84.488C220.281 84.1587 219.761 83.994 219.09 83.994C218.558 83.994 218.051 84.0763 217.57 84.241C217.089 84.393 216.639 84.5703 216.221 84.773L215.708 83.519C216.151 83.2783 216.677 83.0757 217.285 82.911C217.893 82.7337 218.526 82.645 219.185 82.645ZM221.18 88.022L219.679 88.079C218.412 88.1297 217.532 88.3323 217.038 88.687C216.557 89.0417 216.316 89.542 216.316 90.188C216.316 90.758 216.487 91.176 216.829 91.442C217.184 91.708 217.633 91.841 218.178 91.841C219.027 91.841 219.736 91.6067 220.306 91.138C220.889 90.6567 221.18 89.922 221.18 88.934V88.022ZM230.728 82.626C230.918 82.626 231.121 82.6387 231.336 82.664C231.552 82.6767 231.748 82.702 231.925 82.74L231.716 84.279C231.552 84.241 231.368 84.2093 231.165 84.184C230.963 84.1587 230.779 84.146 230.614 84.146C230.095 84.146 229.607 84.2917 229.151 84.583C228.695 84.8617 228.328 85.2607 228.049 85.78C227.783 86.2867 227.65 86.882 227.65 87.566V93H225.978V82.816H227.346L227.536 84.678H227.612C227.929 84.1207 228.347 83.6393 228.866 83.234C229.398 82.8287 230.019 82.626 230.728 82.626Z" fill="#1B77AF"/>
<path d="M247.878 79.434L242.824 93H241.19L246.244 79.434H247.878Z" fill="black"/>
<path d="M266.538 89.371C266.538 90.5743 266.101 91.5117 265.227 92.183C264.353 92.8543 263.175 93.19 261.693 93.19C260.933 93.19 260.23 93.133 259.584 93.019C258.938 92.905 258.4 92.7467 257.969 92.544V90.91C258.425 91.1127 258.989 91.2963 259.66 91.461C260.344 91.6257 261.047 91.708 261.769 91.708C262.77 91.708 263.53 91.5117 264.049 91.119C264.568 90.7263 264.828 90.1943 264.828 89.523C264.828 89.0797 264.733 88.706 264.543 88.402C264.353 88.098 264.024 87.8193 263.555 87.566C263.086 87.3127 262.447 87.034 261.636 86.73C260.471 86.312 259.597 85.799 259.014 85.191C258.431 84.583 258.14 83.7533 258.14 82.702C258.14 81.9927 258.324 81.3783 258.691 80.859C259.058 80.3397 259.565 79.9407 260.211 79.662C260.857 79.3833 261.611 79.244 262.472 79.244C263.207 79.244 263.884 79.3137 264.505 79.453C265.126 79.5923 265.696 79.776 266.215 80.004L265.683 81.467C265.214 81.2643 264.701 81.0933 264.144 80.954C263.587 80.8147 263.017 80.745 262.434 80.745C261.585 80.745 260.946 80.9287 260.515 81.296C260.084 81.6507 259.869 82.1257 259.869 82.721C259.869 83.177 259.964 83.557 260.154 83.861C260.344 84.165 260.654 84.4437 261.085 84.697C261.516 84.9377 262.098 85.191 262.833 85.457C263.631 85.7483 264.302 86.065 264.847 86.407C265.404 86.7363 265.822 87.1353 266.101 87.604C266.392 88.0727 266.538 88.6617 266.538 89.371ZM273.128 93.19C272.216 93.19 271.411 93.0063 270.715 92.639C270.018 92.2717 269.467 91.7017 269.062 90.929C268.669 90.1563 268.473 89.1683 268.473 87.965C268.473 86.711 268.675 85.6913 269.081 84.906C269.499 84.1207 270.069 83.5443 270.791 83.177C271.513 82.8097 272.33 82.626 273.242 82.626C273.748 82.626 274.242 82.683 274.724 82.797C275.218 82.8983 275.617 83.025 275.921 83.177L275.408 84.564C275.104 84.45 274.749 84.3423 274.344 84.241C273.938 84.1397 273.558 84.089 273.204 84.089C271.202 84.089 270.202 85.3747 270.202 87.946C270.202 89.1747 270.442 90.1183 270.924 90.777C271.418 91.423 272.146 91.746 273.109 91.746C273.653 91.746 274.141 91.689 274.572 91.575C275.002 91.461 275.395 91.3217 275.75 91.157V92.639C275.408 92.8163 275.028 92.9493 274.61 93.038C274.204 93.1393 273.71 93.19 273.128 93.19ZM279.844 78.56V82.797C279.844 83.3037 279.812 83.7787 279.749 84.222H279.863C280.192 83.7027 280.635 83.31 281.193 83.044C281.763 82.778 282.377 82.645 283.036 82.645C284.264 82.645 285.189 82.9427 285.81 83.538C286.443 84.1207 286.76 85.0643 286.76 86.369V93H285.107V86.483C285.107 84.849 284.347 84.032 282.827 84.032C281.687 84.032 280.901 84.355 280.471 85.001C280.053 85.6343 279.844 86.5463 279.844 87.737V93H278.172V78.56H279.844ZM293.85 82.626C294.711 82.626 295.458 82.816 296.092 83.196C296.725 83.576 297.206 84.1143 297.536 84.811C297.878 85.495 298.049 86.2993 298.049 87.224V88.231H291.076C291.101 89.3837 291.392 90.264 291.95 90.872C292.52 91.4673 293.311 91.765 294.325 91.765C294.971 91.765 295.541 91.708 296.035 91.594C296.541 91.4673 297.061 91.29 297.593 91.062V92.525C297.073 92.753 296.56 92.9177 296.054 93.019C295.547 93.133 294.945 93.19 294.249 93.19C293.273 93.19 292.418 92.9937 291.684 92.601C290.949 92.2083 290.373 91.6257 289.955 90.853C289.549 90.0803 289.347 89.124 289.347 87.984C289.347 86.8693 289.53 85.913 289.898 85.115C290.278 84.317 290.803 83.7027 291.475 83.272C292.159 82.8413 292.95 82.626 293.85 82.626ZM293.831 83.994C293.033 83.994 292.399 84.2537 291.931 84.773C291.475 85.2797 291.202 85.989 291.114 86.901H296.301C296.288 86.0397 296.085 85.343 295.693 84.811C295.3 84.2663 294.679 83.994 293.831 83.994ZM304.251 93.19C302.985 93.19 301.971 92.753 301.211 91.879C300.451 90.9923 300.071 89.675 300.071 87.927C300.071 86.179 300.451 84.8617 301.211 83.975C301.984 83.0757 303.004 82.626 304.27 82.626C305.056 82.626 305.695 82.7717 306.189 83.063C306.696 83.3543 307.108 83.709 307.424 84.127H307.538C307.513 83.9623 307.488 83.7217 307.462 83.405C307.437 83.0757 307.424 82.816 307.424 82.626V78.56H309.096V93H307.747L307.5 91.632H307.424C307.12 92.0627 306.715 92.43 306.208 92.734C305.702 93.038 305.049 93.19 304.251 93.19ZM304.517 91.803C305.594 91.803 306.348 91.5117 306.778 90.929C307.222 90.3337 307.443 89.4407 307.443 88.25V87.946C307.443 86.6793 307.234 85.7103 306.816 85.039C306.398 84.355 305.626 84.013 304.498 84.013C303.599 84.013 302.921 84.374 302.465 85.096C302.022 85.8053 301.8 86.7617 301.8 87.965C301.8 89.181 302.022 90.1247 302.465 90.796C302.921 91.4673 303.605 91.803 304.517 91.803ZM320.843 82.816V93H319.475L319.228 91.651H319.152C318.822 92.183 318.366 92.5757 317.784 92.829C317.201 93.0697 316.58 93.19 315.922 93.19C314.693 93.19 313.768 92.8987 313.148 92.316C312.527 91.7207 312.217 90.777 312.217 89.485V82.816H313.908V89.371C313.908 90.9923 314.661 91.803 316.169 91.803C317.296 91.803 318.075 91.4863 318.506 90.853C318.949 90.2197 319.171 89.3077 319.171 88.117V82.816H320.843ZM325.748 93H324.076V78.56H325.748V93ZM332.907 82.626C333.769 82.626 334.516 82.816 335.149 83.196C335.783 83.576 336.264 84.1143 336.593 84.811C336.935 85.495 337.106 86.2993 337.106 87.224V88.231H330.133C330.159 89.3837 330.45 90.264 331.007 90.872C331.577 91.4673 332.369 91.765 333.382 91.765C334.028 91.765 334.598 91.708 335.092 91.594C335.599 91.4673 336.118 91.29 336.65 91.062V92.525C336.131 92.753 335.618 92.9177 335.111 93.019C334.605 93.133 334.003 93.19 333.306 93.19C332.331 93.19 331.476 92.9937 330.741 92.601C330.007 92.2083 329.43 91.6257 329.012 90.853C328.607 90.0803 328.404 89.124 328.404 87.984C328.404 86.8693 328.588 85.913 328.955 85.115C329.335 84.317 329.861 83.7027 330.532 83.272C331.216 82.8413 332.008 82.626 332.907 82.626ZM332.888 83.994C332.09 83.994 331.457 84.2537 330.988 84.773C330.532 85.2797 330.26 85.989 330.171 86.901H335.358C335.346 86.0397 335.143 85.343 334.75 84.811C334.358 84.2663 333.737 83.994 332.888 83.994ZM355.617 93H353.622L346.364 81.733H346.288C346.313 82.1763 346.345 82.7273 346.383 83.386C346.421 84.0447 346.44 84.7223 346.44 85.419V93H344.863V79.434H346.839L354.078 90.663H354.154C354.141 90.4603 354.122 90.1563 354.097 89.751C354.084 89.3457 354.065 88.9087 354.04 88.44C354.027 87.9587 354.021 87.509 354.021 87.091V79.434H355.617V93ZM363.003 82.626C363.864 82.626 364.612 82.816 365.245 83.196C365.878 83.576 366.36 84.1143 366.689 84.811C367.031 85.495 367.202 86.2993 367.202 87.224V88.231H360.229C360.254 89.3837 360.546 90.264 361.103 90.872C361.673 91.4673 362.465 91.765 363.478 91.765C364.124 91.765 364.694 91.708 365.188 91.594C365.695 91.4673 366.214 91.29 366.746 91.062V92.525C366.227 92.753 365.714 92.9177 365.207 93.019C364.7 93.133 364.099 93.19 363.402 93.19C362.427 93.19 361.572 92.9937 360.837 92.601C360.102 92.2083 359.526 91.6257 359.108 90.853C358.703 90.0803 358.5 89.124 358.5 87.984C358.5 86.8693 358.684 85.913 359.051 85.115C359.431 84.317 359.957 83.7027 360.628 83.272C361.312 82.8413 362.104 82.626 363.003 82.626ZM362.984 83.994C362.186 83.994 361.553 84.2537 361.084 84.773C360.628 85.2797 360.356 85.989 360.267 86.901H365.454C365.441 86.0397 365.239 85.343 364.846 84.811C364.453 84.2663 363.833 83.994 362.984 83.994ZM377.746 92.981L375.998 87.243C375.833 86.7237 375.687 86.217 375.561 85.723C375.434 85.229 375.345 84.8363 375.295 84.545H375.219C375.168 84.8363 375.086 85.229 374.972 85.723C374.858 86.217 374.712 86.73 374.535 87.262L372.711 92.981H370.811L368.018 82.797H369.747L371.153 88.231C371.292 88.7757 371.425 89.3267 371.552 89.884C371.678 90.4413 371.767 90.9037 371.818 91.271H371.894C371.932 91.0557 371.989 90.7897 372.065 90.473C372.141 90.1563 372.223 89.827 372.312 89.485C372.4 89.1303 372.489 88.8137 372.578 88.535L374.383 82.797H376.207L377.955 88.535C378.081 88.9783 378.214 89.4533 378.354 89.96C378.493 90.4667 378.588 90.8973 378.639 91.252H378.715C378.753 90.9353 378.835 90.4983 378.962 89.941C379.101 89.3837 379.247 88.8137 379.399 88.231L380.824 82.797H382.534L379.703 92.981H377.746ZM264.828 121L260.363 109.106H260.287C260.325 109.499 260.357 110.031 260.382 110.702C260.407 111.361 260.42 112.051 260.42 112.773V121H258.843V107.434H261.37L265.55 118.549H265.626L269.882 107.434H272.39V121H270.699V112.659C270.699 112 270.712 111.348 270.737 110.702C270.775 110.056 270.807 109.53 270.832 109.125H270.756L266.234 121H264.828ZM279.785 110.626C280.647 110.626 281.394 110.816 282.027 111.196C282.661 111.576 283.142 112.114 283.471 112.811C283.813 113.495 283.984 114.299 283.984 115.224V116.231H277.011C277.037 117.384 277.328 118.264 277.885 118.872C278.455 119.467 279.247 119.765 280.26 119.765C280.906 119.765 281.476 119.708 281.97 119.594C282.477 119.467 282.996 119.29 283.528 119.062V120.525C283.009 120.753 282.496 120.918 281.989 121.019C281.483 121.133 280.881 121.19 280.184 121.19C279.209 121.19 278.354 120.994 277.619 120.601C276.885 120.208 276.308 119.626 275.89 118.853C275.485 118.08 275.282 117.124 275.282 115.984C275.282 114.869 275.466 113.913 275.833 113.115C276.213 112.317 276.739 111.703 277.41 111.272C278.094 110.841 278.886 110.626 279.785 110.626ZM279.766 111.994C278.968 111.994 278.335 112.254 277.866 112.773C277.41 113.28 277.138 113.989 277.049 114.901H282.236C282.224 114.04 282.021 113.343 281.628 112.811C281.236 112.266 280.615 111.994 279.766 111.994ZM290.51 110.626C291.371 110.626 292.119 110.816 292.752 111.196C293.385 111.576 293.867 112.114 294.196 112.811C294.538 113.495 294.709 114.299 294.709 115.224V116.231H287.736C287.761 117.384 288.053 118.264 288.61 118.872C289.18 119.467 289.972 119.765 290.985 119.765C291.631 119.765 292.201 119.708 292.695 119.594C293.202 119.467 293.721 119.29 294.253 119.062V120.525C293.734 120.753 293.221 120.918 292.714 121.019C292.207 121.133 291.606 121.19 290.909 121.19C289.934 121.19 289.079 120.994 288.344 120.601C287.609 120.208 287.033 119.626 286.615 118.853C286.21 118.08 286.007 117.124 286.007 115.984C286.007 114.869 286.191 113.913 286.558 113.115C286.938 112.317 287.464 111.703 288.135 111.272C288.819 110.841 289.611 110.626 290.51 110.626ZM290.491 111.994C289.693 111.994 289.06 112.254 288.591 112.773C288.135 113.28 287.863 113.989 287.774 114.901H292.961C292.948 114.04 292.746 113.343 292.353 112.811C291.96 112.266 291.34 111.994 290.491 111.994ZM300.703 119.822C300.956 119.822 301.216 119.803 301.482 119.765C301.748 119.727 301.963 119.676 302.128 119.613V120.886C301.95 120.975 301.697 121.044 301.368 121.095C301.038 121.158 300.722 121.19 300.418 121.19C299.886 121.19 299.392 121.101 298.936 120.924C298.492 120.734 298.131 120.411 297.853 119.955C297.574 119.499 297.435 118.859 297.435 118.036V112.108H295.991V111.31L297.454 110.645L298.119 108.479H299.107V110.816H302.052V112.108H299.107V117.998C299.107 118.619 299.252 119.081 299.544 119.385C299.848 119.676 300.234 119.822 300.703 119.822ZM305.022 106.997C305.275 106.997 305.497 107.086 305.687 107.263C305.889 107.428 305.991 107.694 305.991 108.061C305.991 108.428 305.889 108.701 305.687 108.878C305.497 109.043 305.275 109.125 305.022 109.125C304.743 109.125 304.509 109.043 304.319 108.878C304.129 108.701 304.034 108.428 304.034 108.061C304.034 107.694 304.129 107.428 304.319 107.263C304.509 107.086 304.743 106.997 305.022 106.997ZM305.839 110.816V121H304.167V110.816H305.839ZM313.967 110.626C315.183 110.626 316.102 110.924 316.722 111.519C317.343 112.114 317.653 113.064 317.653 114.369V121H316V114.483C316 112.849 315.24 112.032 313.72 112.032C312.593 112.032 311.814 112.349 311.383 112.982C310.953 113.615 310.737 114.527 310.737 115.718V121H309.065V110.816H310.414L310.661 112.203H310.756C311.086 111.671 311.542 111.278 312.124 111.025C312.707 110.759 313.321 110.626 313.967 110.626ZM324.42 110.626C325.092 110.626 325.693 110.753 326.225 111.006C326.77 111.259 327.232 111.646 327.612 112.165H327.707L327.935 110.816H329.265V121.171C329.265 122.628 328.892 123.723 328.144 124.458C327.41 125.193 326.263 125.56 324.705 125.56C323.211 125.56 321.988 125.345 321.038 124.914V123.375C322.039 123.907 323.293 124.173 324.8 124.173C325.674 124.173 326.358 123.913 326.852 123.394C327.359 122.887 327.612 122.191 327.612 121.304V120.905C327.612 120.753 327.619 120.538 327.631 120.259C327.644 119.968 327.657 119.765 327.669 119.651H327.593C326.909 120.677 325.858 121.19 324.439 121.19C323.122 121.19 322.09 120.728 321.342 119.803C320.608 118.878 320.24 117.586 320.24 115.927C320.24 114.306 320.608 113.02 321.342 112.07C322.09 111.107 323.116 110.626 324.42 110.626ZM324.648 112.032C323.8 112.032 323.141 112.374 322.672 113.058C322.204 113.729 321.969 114.692 321.969 115.946C321.969 117.2 322.197 118.163 322.653 118.834C323.109 119.493 323.787 119.822 324.686 119.822C325.712 119.822 326.46 119.55 326.928 119.005C327.397 118.448 327.631 117.555 327.631 116.326V115.927C327.631 114.546 327.391 113.552 326.909 112.944C326.428 112.336 325.674 112.032 324.648 112.032ZM339.131 118.188C339.131 119.176 338.763 119.923 338.029 120.43C337.294 120.937 336.306 121.19 335.065 121.19C334.355 121.19 333.741 121.133 333.222 121.019C332.715 120.905 332.265 120.747 331.873 120.544V119.024C332.278 119.227 332.766 119.417 333.336 119.594C333.918 119.759 334.507 119.841 335.103 119.841C335.951 119.841 336.566 119.708 336.946 119.442C337.326 119.163 337.516 118.796 337.516 118.34C337.516 118.087 337.446 117.859 337.307 117.656C337.167 117.453 336.914 117.251 336.547 117.048C336.192 116.845 335.679 116.617 335.008 116.364C334.349 116.111 333.785 115.857 333.317 115.604C332.848 115.351 332.487 115.047 332.234 114.692C331.98 114.337 331.854 113.881 331.854 113.324C331.854 112.463 332.202 111.798 332.899 111.329C333.608 110.86 334.533 110.626 335.673 110.626C336.293 110.626 336.87 110.689 337.402 110.816C337.946 110.943 338.453 111.107 338.922 111.31L338.352 112.64C337.921 112.463 337.471 112.311 337.003 112.184C336.534 112.057 336.053 111.994 335.559 111.994C334.875 111.994 334.349 112.108 333.982 112.336C333.627 112.551 333.45 112.849 333.45 113.229C333.45 113.52 333.532 113.761 333.697 113.951C333.861 114.141 334.134 114.331 334.514 114.521C334.906 114.711 335.426 114.926 336.072 115.167C336.718 115.408 337.269 115.655 337.725 115.908C338.181 116.161 338.529 116.472 338.77 116.839C339.01 117.194 339.131 117.643 339.131 118.188Z" fill="black"/>
</svg>
