<svg width="904" height="328" viewBox="0 0 904 328" fill="none" xmlns="http://www.w3.org/2000/svg">
<g clip-path="url(#clip0_8690_365555)">
<rect width="904" height="328" rx="4" fill="white"/>
<g filter="url(#filter0_d_8690_365555)">
<g clip-path="url(#clip1_8690_365555)">
<g filter="url(#filter1_i_8690_365555)">
<rect width="200" height="516" transform="translate(52 90)" fill="white"/>
<rect width="200" height="48" transform="translate(52 90)" fill="white"/>
<path d="M80 126C74.201 126 69.5 121.299 69.5 115.5C69.5 109.701 74.201 105 80 105C85.799 105 90.5 109.701 90.5 115.5C90.5 121.299 85.799 126 80 126Z" fill="#C9C9C9"/>
<rect x="99" y="109" width="120" height="12" rx="2" fill="#C9C9C9"/>
<rect width="200" height="48" transform="translate(52 138)" fill="white"/>
<path d="M80 174C74.201 174 69.5 169.299 69.5 163.5C69.5 157.701 74.201 153 80 153C85.799 153 90.5 157.701 90.5 163.5C90.5 169.299 85.799 174 80 174Z" fill="#C9C9C9"/>
<rect x="99" y="157" width="120" height="12" rx="2" fill="#C9C9C9"/>
<rect width="200" height="48" transform="translate(52 186)" fill="white"/>
<path d="M80 222C74.201 222 69.5 217.299 69.5 211.5C69.5 205.701 74.201 201 80 201C85.799 201 90.5 205.701 90.5 211.5C90.5 217.299 85.799 222 80 222Z" fill="#C9C9C9"/>
<rect x="99" y="205" width="120" height="12" rx="2" fill="#C9C9C9"/>
<rect width="200" height="48" transform="translate(52 234)" fill="white"/>
<path d="M80 270C74.201 270 69.5 265.299 69.5 259.5C69.5 253.701 74.201 249 80 249C85.799 249 90.5 253.701 90.5 259.5C90.5 265.299 85.799 270 80 270Z" fill="#C9C9C9"/>
<rect x="99" y="253" width="120" height="12" rx="2" fill="#C9C9C9"/>
</g>
<g filter="url(#filter2_i_8690_365555)">
<rect width="800" height="58" transform="translate(52 32)" fill="white"/>
<path d="M52 32H99.7595L129 90H52V32Z" fill="#DA291C"/>
<line x1="52" y1="89.5" x2="129" y2="89.5" stroke="#C9C9C9"/>
<path d="M74.9378 66.2534H82.9108L84.2099 69.2799H73.4439L71.7227 72.7635H66.9648L78.7538 49.8442H82.0502L93.8392 72.7635H89.0976L80.4101 55.0617L74.9378 66.2534Z" fill="white"/>
<rect x="145" y="55" width="120" height="12" rx="2" fill="#C9C9C9"/>
<rect x="471.5" y="43.5" width="199" height="35" rx="1.5" fill="white"/>
<path fill-rule="evenodd" clip-rule="evenodd" d="M489.62 54.7493C486.93 54.7493 484.749 56.93 484.749 59.62C484.749 62.31 486.93 64.4906 489.62 64.4906C492.31 64.4906 494.491 62.31 494.491 59.62C494.491 56.93 492.31 54.7493 489.62 54.7493ZM484 59.62C484 56.5162 486.516 54 489.62 54C492.724 54 495.24 56.5162 495.24 59.62C495.24 62.7238 492.724 65.24 489.62 65.24C486.516 65.24 484 62.7238 484 59.62Z" fill="#939393"/>
<path fill-rule="evenodd" clip-rule="evenodd" d="M493.302 63.3015C493.448 63.1552 493.685 63.1552 493.831 63.3015L495.68 65.1499C495.826 65.2962 495.826 65.5334 495.68 65.6797C495.533 65.8261 495.296 65.8261 495.15 65.6797L493.302 63.8314C493.155 63.6851 493.155 63.4478 493.302 63.3015Z" fill="#939393"/>
<path fill-rule="evenodd" clip-rule="evenodd" d="M496.449 65.7297C496.245 65.5263 495.933 65.5263 495.73 65.7297C495.526 65.9331 495.526 66.2453 495.73 66.4487L496.379 67.0981C496.386 67.1049 496.392 67.112 496.399 67.1192C496.538 67.2822 496.882 67.3138 497.098 67.0981C497.302 66.8948 497.302 66.5825 497.098 66.3791L496.449 65.7297ZM495.2 65.1998C495.696 64.7038 496.483 64.7038 496.979 65.1998L497.628 65.8493C498.124 66.3453 498.124 67.132 497.628 67.628C497.148 68.1081 496.302 68.1428 495.84 67.6189L495.2 66.9786C494.704 66.4826 494.704 65.6958 495.2 65.1998Z" fill="#939393"/>
<rect x="471.5" y="43.5" width="199" height="35" rx="1.5" stroke="#C9C9C9"/>
<path d="M711 71.5C705.201 71.5 700.5 66.799 700.5 61C700.5 55.201 705.201 50.5 711 50.5C716.799 50.5 721.5 55.201 721.5 61C721.5 66.799 716.799 71.5 711 71.5Z" fill="#C9C9C9"/>
<path d="M759 71.5C753.201 71.5 748.5 66.799 748.5 61C748.5 55.201 753.201 50.5 759 50.5C764.799 50.5 769.5 55.201 769.5 61C769.5 66.799 764.799 71.5 759 71.5Z" fill="#C9C9C9"/>
<circle cx="816" cy="61" r="20" fill="white"/>
<g clip-path="url(#clip2_8690_365555)">
<path d="M804.571 77.413V75.0845C804.571 72.0534 805.776 69.1465 807.919 67.0032C810.062 64.86 812.969 63.6559 816 63.6559C819.031 63.6559 821.938 64.86 824.081 67.0032C826.224 69.1465 827.429 72.0534 827.429 75.0845V77.413C830.923 74.98 833.549 71.4952 834.926 67.466C836.303 63.4368 836.357 59.0734 835.082 55.0109C833.807 50.9484 831.269 47.3988 827.837 44.8789C824.405 42.3589 820.258 41 816 41C811.742 41 807.595 42.3589 804.163 44.8789C800.731 47.3988 798.193 50.9484 796.918 55.0109C795.643 59.0734 795.697 63.4368 797.074 67.466C798.451 71.4952 801.077 74.98 804.571 77.413ZM816 47.6273C817.297 47.6273 818.565 48.0119 819.643 48.7324C820.721 49.4529 821.562 50.477 822.058 51.6752C822.554 52.8733 822.684 54.1917 822.431 55.4637C822.178 56.7357 821.554 57.904 820.637 58.8211C819.72 59.7381 818.551 60.3626 817.279 60.6156C816.007 60.8686 814.689 60.7388 813.491 60.2425C812.293 59.7462 811.268 58.9057 810.548 57.8274C809.827 56.7491 809.443 55.4813 809.443 54.1845C809.447 52.4466 810.139 50.7809 811.368 49.552C812.596 48.3231 814.262 47.6311 816 47.6273Z" fill="#C9C9C9"/>
</g>
</g>
<rect width="600" height="516" transform="translate(252 90)" fill="#F1F1F1"/>
<rect x="260.5" y="98.5" width="583" height="499" rx="3.5" fill="white"/>
<rect x="260.5" y="98.5" width="583" height="499" rx="3.5" stroke="#C9C9C9"/>
</g>
<rect x="52.5" y="32.5" width="799" height="573" rx="7.5" stroke="#C9C9C9"/>
<path d="M280.863 129.228C280.863 130.894 280.408 132.15 279.496 132.997C278.594 133.835 277.333 134.253 275.713 134.253H272.966V124.395H276.003C276.988 124.395 277.844 124.58 278.571 124.948C279.308 125.316 279.874 125.859 280.269 126.577C280.665 127.295 280.863 128.178 280.863 129.228ZM279.551 129.269C279.551 127.953 279.225 126.991 278.571 126.384C277.927 125.767 277.011 125.459 275.824 125.459H274.208V133.19H275.548C278.217 133.19 279.551 131.883 279.551 129.269ZM285.688 126.729C286.59 126.729 287.257 126.927 287.69 127.322C288.123 127.718 288.339 128.349 288.339 129.214V134.253H287.455L287.221 133.204H287.165C286.843 133.609 286.503 133.908 286.144 134.102C285.785 134.295 285.297 134.391 284.68 134.391C284.008 134.391 283.451 134.217 283.01 133.867C282.568 133.508 282.347 132.951 282.347 132.196C282.347 131.46 282.637 130.894 283.217 130.498C283.797 130.093 284.689 129.872 285.895 129.835L287.152 129.794V129.352C287.152 128.735 287.018 128.307 286.751 128.068C286.484 127.829 286.107 127.709 285.619 127.709C285.233 127.709 284.864 127.769 284.515 127.889C284.165 127.999 283.838 128.128 283.534 128.275L283.162 127.364C283.484 127.189 283.866 127.042 284.307 126.922C284.749 126.793 285.209 126.729 285.688 126.729ZM287.138 130.636L286.047 130.677C285.127 130.714 284.487 130.862 284.128 131.119C283.778 131.377 283.603 131.741 283.603 132.21C283.603 132.624 283.728 132.928 283.976 133.121C284.234 133.315 284.561 133.411 284.956 133.411C285.573 133.411 286.089 133.241 286.503 132.9C286.926 132.551 287.138 132.017 287.138 131.299V130.636ZM295.443 132.21C295.443 132.928 295.176 133.471 294.642 133.839C294.109 134.207 293.391 134.391 292.489 134.391C291.973 134.391 291.527 134.35 291.149 134.267C290.781 134.184 290.454 134.069 290.169 133.922V132.818C290.464 132.965 290.818 133.103 291.232 133.232C291.656 133.351 292.084 133.411 292.516 133.411C293.133 133.411 293.579 133.315 293.855 133.121C294.132 132.919 294.27 132.652 294.27 132.32C294.27 132.136 294.219 131.971 294.118 131.823C294.016 131.676 293.832 131.529 293.565 131.382C293.308 131.234 292.935 131.069 292.447 130.885C291.968 130.701 291.559 130.516 291.218 130.332C290.878 130.148 290.615 129.927 290.431 129.67C290.247 129.412 290.155 129.081 290.155 128.676C290.155 128.05 290.408 127.566 290.915 127.226C291.43 126.885 292.102 126.715 292.93 126.715C293.381 126.715 293.8 126.761 294.187 126.853C294.583 126.945 294.951 127.065 295.291 127.212L294.877 128.178C294.564 128.05 294.237 127.939 293.897 127.847C293.556 127.755 293.206 127.709 292.848 127.709C292.35 127.709 291.968 127.792 291.702 127.958C291.444 128.114 291.315 128.33 291.315 128.606C291.315 128.818 291.375 128.993 291.494 129.131C291.614 129.269 291.812 129.407 292.088 129.545C292.373 129.683 292.751 129.84 293.22 130.015C293.69 130.19 294.09 130.369 294.421 130.553C294.753 130.737 295.006 130.963 295.181 131.23C295.356 131.487 295.443 131.814 295.443 132.21ZM298.446 123.76V126.839C298.446 127.207 298.423 127.553 298.377 127.875H298.46C298.699 127.497 299.022 127.212 299.427 127.019C299.841 126.825 300.287 126.729 300.766 126.729C301.659 126.729 302.331 126.945 302.782 127.378C303.242 127.801 303.472 128.487 303.472 129.435V134.253H302.271V129.518C302.271 128.33 301.719 127.737 300.614 127.737C299.786 127.737 299.215 127.971 298.902 128.441C298.598 128.901 298.446 129.564 298.446 130.429V134.253H297.231V123.76H298.446ZM306.981 123.76V126.315C306.981 126.628 306.972 126.922 306.954 127.198C306.944 127.465 306.93 127.677 306.912 127.833H306.981C307.193 127.52 307.483 127.258 307.851 127.046C308.219 126.835 308.693 126.729 309.273 126.729C310.193 126.729 310.93 127.051 311.482 127.695C312.044 128.33 312.324 129.283 312.324 130.553C312.324 131.823 312.044 132.781 311.482 133.425C310.921 134.069 310.184 134.391 309.273 134.391C308.693 134.391 308.219 134.286 307.851 134.074C307.483 133.862 307.193 133.609 306.981 133.315H306.884L306.636 134.253H305.766V123.76H306.981ZM309.066 127.737C308.274 127.737 307.727 127.962 307.423 128.413C307.128 128.864 306.981 129.564 306.981 130.512V130.567C306.981 131.478 307.128 132.178 307.423 132.666C307.727 133.144 308.284 133.384 309.094 133.384C309.756 133.384 310.249 133.14 310.571 132.652C310.902 132.164 311.068 131.46 311.068 130.539C311.068 128.671 310.401 127.737 309.066 127.737ZM320.694 130.539C320.694 131.764 320.381 132.712 319.756 133.384C319.139 134.056 318.301 134.391 317.243 134.391C316.589 134.391 316.005 134.244 315.489 133.95C314.983 133.646 314.583 133.209 314.288 132.638C313.994 132.058 313.846 131.359 313.846 130.539C313.846 129.315 314.15 128.372 314.758 127.709C315.374 127.046 316.216 126.715 317.284 126.715C317.947 126.715 318.536 126.867 319.051 127.171C319.567 127.465 319.967 127.898 320.253 128.468C320.547 129.03 320.694 129.72 320.694 130.539ZM315.103 130.539C315.103 131.414 315.273 132.109 315.614 132.624C315.963 133.13 316.516 133.384 317.27 133.384C318.016 133.384 318.564 133.13 318.913 132.624C319.263 132.109 319.438 131.414 319.438 130.539C319.438 129.665 319.263 128.979 318.913 128.482C318.564 127.985 318.011 127.737 317.257 127.737C316.502 127.737 315.954 127.985 315.614 128.482C315.273 128.979 315.103 129.665 315.103 130.539ZM325.423 126.729C326.325 126.729 326.992 126.927 327.425 127.322C327.857 127.718 328.074 128.349 328.074 129.214V134.253H327.19L326.955 133.204H326.9C326.578 133.609 326.237 133.908 325.878 134.102C325.519 134.295 325.032 134.391 324.415 134.391C323.743 134.391 323.186 134.217 322.744 133.867C322.302 133.508 322.082 132.951 322.082 132.196C322.082 131.46 322.371 130.894 322.951 130.498C323.531 130.093 324.424 129.872 325.63 129.835L326.886 129.794V129.352C326.886 128.735 326.753 128.307 326.486 128.068C326.219 127.829 325.842 127.709 325.354 127.709C324.967 127.709 324.599 127.769 324.249 127.889C323.899 127.999 323.573 128.128 323.269 128.275L322.896 127.364C323.218 127.189 323.6 127.042 324.042 126.922C324.484 126.793 324.944 126.729 325.423 126.729ZM326.872 130.636L325.782 130.677C324.861 130.714 324.222 130.862 323.863 131.119C323.513 131.377 323.338 131.741 323.338 132.21C323.338 132.624 323.462 132.928 323.711 133.121C323.968 133.315 324.295 133.411 324.691 133.411C325.308 133.411 325.823 133.241 326.237 132.9C326.661 132.551 326.872 132.017 326.872 131.299V130.636ZM333.811 126.715C333.949 126.715 334.096 126.724 334.253 126.743C334.409 126.752 334.552 126.77 334.681 126.798L334.529 127.916C334.409 127.889 334.276 127.866 334.128 127.847C333.981 127.829 333.848 127.82 333.728 127.82C333.351 127.82 332.996 127.925 332.665 128.137C332.334 128.34 332.067 128.63 331.864 129.007C331.671 129.375 331.574 129.808 331.574 130.305V134.253H330.359V126.853H331.353L331.491 128.206H331.547C331.777 127.801 332.08 127.451 332.458 127.157C332.844 126.862 333.295 126.715 333.811 126.715ZM338.416 134.391C337.496 134.391 336.759 134.074 336.207 133.439C335.655 132.795 335.379 131.837 335.379 130.567C335.379 129.297 335.655 128.34 336.207 127.695C336.769 127.042 337.51 126.715 338.43 126.715C339.001 126.715 339.466 126.821 339.824 127.033C340.193 127.244 340.492 127.502 340.722 127.806H340.805C340.786 127.686 340.768 127.511 340.75 127.281C340.731 127.042 340.722 126.853 340.722 126.715V123.76H341.937V134.253H340.957L340.777 133.259H340.722C340.501 133.572 340.206 133.839 339.838 134.06C339.47 134.281 338.996 134.391 338.416 134.391ZM338.609 133.384C339.392 133.384 339.94 133.172 340.252 132.748C340.575 132.316 340.736 131.667 340.736 130.802V130.581C340.736 129.66 340.584 128.956 340.28 128.468C339.976 127.971 339.415 127.723 338.596 127.723C337.942 127.723 337.45 127.985 337.118 128.51C336.796 129.025 336.635 129.72 336.635 130.595C336.635 131.478 336.796 132.164 337.118 132.652C337.45 133.14 337.947 133.384 338.609 133.384Z" fill="#1B77AF"/>
<path d="M354.438 124.395L350.765 134.253H349.578L353.251 124.395H354.438Z" fill="black"/>
<path d="M366.817 125.348C365.759 125.348 364.926 125.702 364.318 126.411C363.711 127.12 363.407 128.091 363.407 129.324C363.407 130.549 363.688 131.52 364.249 132.238C364.82 132.946 365.671 133.301 366.803 133.301C367.227 133.301 367.632 133.264 368.018 133.19C368.405 133.117 368.787 133.025 369.164 132.914V133.991C368.796 134.129 368.414 134.23 368.018 134.295C367.632 134.359 367.167 134.391 366.624 134.391C365.62 134.391 364.783 134.184 364.111 133.77C363.439 133.356 362.933 132.767 362.592 132.003C362.261 131.239 362.095 130.342 362.095 129.311C362.095 128.317 362.275 127.442 362.634 126.687C363.002 125.923 363.54 125.33 364.249 124.906C364.958 124.474 365.818 124.257 366.831 124.257C367.871 124.257 368.778 124.451 369.551 124.837L369.054 125.887C368.75 125.749 368.409 125.624 368.032 125.514C367.664 125.403 367.259 125.348 366.817 125.348ZM373.953 126.729C374.855 126.729 375.522 126.927 375.955 127.322C376.387 127.718 376.604 128.349 376.604 129.214V134.253H375.72L375.485 133.204H375.43C375.108 133.609 374.767 133.908 374.408 134.102C374.049 134.295 373.562 134.391 372.945 134.391C372.273 134.391 371.716 134.217 371.274 133.867C370.832 133.508 370.612 132.951 370.612 132.196C370.612 131.46 370.902 130.894 371.481 130.498C372.061 130.093 372.954 129.872 374.16 129.835L375.416 129.794V129.352C375.416 128.735 375.283 128.307 375.016 128.068C374.749 127.829 374.372 127.709 373.884 127.709C373.497 127.709 373.129 127.769 372.779 127.889C372.429 127.999 372.103 128.128 371.799 128.275L371.426 127.364C371.748 127.189 372.13 127.042 372.572 126.922C373.014 126.793 373.474 126.729 373.953 126.729ZM375.402 130.636L374.312 130.677C373.391 130.714 372.752 130.862 372.393 131.119C372.043 131.377 371.868 131.741 371.868 132.21C371.868 132.624 371.992 132.928 372.241 133.121C372.498 133.315 372.825 133.411 373.221 133.411C373.838 133.411 374.353 133.241 374.767 132.9C375.191 132.551 375.402 132.017 375.402 131.299V130.636ZM380.104 134.253H378.889V123.76H380.104V134.253ZM385.307 126.715C385.933 126.715 386.476 126.853 386.936 127.129C387.396 127.405 387.746 127.797 387.985 128.303C388.234 128.8 388.358 129.384 388.358 130.056V130.788H383.291C383.309 131.626 383.521 132.265 383.926 132.707C384.34 133.14 384.916 133.356 385.652 133.356C386.121 133.356 386.536 133.315 386.895 133.232C387.263 133.14 387.64 133.011 388.027 132.845V133.908C387.649 134.074 387.277 134.194 386.908 134.267C386.54 134.35 386.103 134.391 385.597 134.391C384.888 134.391 384.267 134.249 383.733 133.963C383.199 133.678 382.78 133.255 382.476 132.693C382.182 132.132 382.035 131.437 382.035 130.608C382.035 129.798 382.168 129.104 382.435 128.524C382.711 127.944 383.093 127.497 383.581 127.184C384.078 126.871 384.653 126.715 385.307 126.715ZM385.293 127.709C384.713 127.709 384.253 127.898 383.912 128.275C383.581 128.643 383.383 129.159 383.319 129.821H387.088C387.079 129.196 386.931 128.689 386.646 128.303C386.361 127.907 385.91 127.709 385.293 127.709ZM393.804 126.715C394.688 126.715 395.355 126.931 395.806 127.364C396.257 127.797 396.483 128.487 396.483 129.435V134.253H395.282V129.518C395.282 128.33 394.729 127.737 393.625 127.737C392.806 127.737 392.239 127.967 391.926 128.427C391.614 128.887 391.457 129.55 391.457 130.415V134.253H390.242V126.853H391.222L391.402 127.861H391.471C391.71 127.474 392.042 127.189 392.465 127.005C392.888 126.812 393.335 126.715 393.804 126.715ZM401.4 134.391C400.48 134.391 399.743 134.074 399.191 133.439C398.639 132.795 398.363 131.837 398.363 130.567C398.363 129.297 398.639 128.34 399.191 127.695C399.753 127.042 400.493 126.715 401.414 126.715C401.985 126.715 402.449 126.821 402.808 127.033C403.177 127.244 403.476 127.502 403.706 127.806H403.789C403.77 127.686 403.752 127.511 403.733 127.281C403.715 127.042 403.706 126.853 403.706 126.715V123.76H404.921V134.253H403.941L403.761 133.259H403.706C403.485 133.572 403.19 133.839 402.822 134.06C402.454 134.281 401.98 134.391 401.4 134.391ZM401.593 133.384C402.376 133.384 402.923 133.172 403.236 132.748C403.559 132.316 403.72 131.667 403.72 130.802V130.581C403.72 129.66 403.568 128.956 403.264 128.468C402.96 127.971 402.399 127.723 401.58 127.723C400.926 127.723 400.434 127.985 400.102 128.51C399.78 129.025 399.619 129.72 399.619 130.595C399.619 131.478 399.78 132.164 400.102 132.652C400.434 133.14 400.931 133.384 401.593 133.384ZM410.074 126.729C410.976 126.729 411.643 126.927 412.076 127.322C412.509 127.718 412.725 128.349 412.725 129.214V134.253H411.841L411.606 133.204H411.551C411.229 133.609 410.889 133.908 410.53 134.102C410.171 134.295 409.683 134.391 409.066 134.391C408.394 134.391 407.837 134.217 407.395 133.867C406.954 133.508 406.733 132.951 406.733 132.196C406.733 131.46 407.023 130.894 407.603 130.498C408.182 130.093 409.075 129.872 410.281 129.835L411.537 129.794V129.352C411.537 128.735 411.404 128.307 411.137 128.068C410.87 127.829 410.493 127.709 410.005 127.709C409.618 127.709 409.25 127.769 408.9 127.889C408.551 127.999 408.224 128.128 407.92 128.275L407.547 127.364C407.869 127.189 408.251 127.042 408.693 126.922C409.135 126.793 409.595 126.729 410.074 126.729ZM411.524 130.636L410.433 130.677C409.512 130.714 408.873 130.862 408.514 131.119C408.164 131.377 407.989 131.741 407.989 132.21C407.989 132.624 408.113 132.928 408.362 133.121C408.62 133.315 408.946 133.411 409.342 133.411C409.959 133.411 410.474 133.241 410.889 132.9C411.312 132.551 411.524 132.017 411.524 131.299V130.636ZM418.462 126.715C418.6 126.715 418.747 126.724 418.904 126.743C419.06 126.752 419.203 126.77 419.332 126.798L419.18 127.916C419.06 127.889 418.927 127.866 418.78 127.847C418.632 127.829 418.499 127.82 418.379 127.82C418.002 127.82 417.648 127.925 417.316 128.137C416.985 128.34 416.718 128.63 416.515 129.007C416.322 129.375 416.225 129.808 416.225 130.305V134.253H415.01V126.853H416.005L416.143 128.206H416.198C416.428 127.801 416.732 127.451 417.109 127.157C417.496 126.862 417.947 126.715 418.462 126.715Z" fill="#1B77AF"/>
<path d="M431.064 124.395L427.392 134.253H426.204L429.877 124.395H431.064Z" fill="black"/>
<path d="M444.811 131.616C444.811 132.491 444.493 133.172 443.858 133.66C443.223 134.148 442.367 134.391 441.29 134.391C440.738 134.391 440.227 134.35 439.758 134.267C439.288 134.184 438.897 134.069 438.584 133.922V132.735C438.915 132.882 439.325 133.015 439.813 133.135C440.31 133.255 440.821 133.315 441.345 133.315C442.073 133.315 442.625 133.172 443.002 132.887C443.38 132.601 443.568 132.215 443.568 131.727C443.568 131.405 443.499 131.133 443.361 130.912C443.223 130.691 442.984 130.489 442.643 130.305C442.303 130.121 441.838 129.918 441.249 129.697C440.402 129.393 439.767 129.021 439.343 128.579C438.92 128.137 438.708 127.534 438.708 126.77C438.708 126.255 438.842 125.808 439.109 125.431C439.376 125.054 439.744 124.764 440.213 124.561C440.683 124.359 441.23 124.257 441.856 124.257C442.39 124.257 442.882 124.308 443.334 124.409C443.785 124.511 444.199 124.644 444.576 124.81L444.19 125.873C443.849 125.726 443.476 125.601 443.071 125.5C442.666 125.399 442.252 125.348 441.829 125.348C441.212 125.348 440.747 125.482 440.434 125.749C440.121 126.006 439.965 126.351 439.965 126.784C439.965 127.115 440.034 127.392 440.172 127.612C440.31 127.833 440.535 128.036 440.848 128.22C441.161 128.395 441.585 128.579 442.119 128.772C442.698 128.984 443.186 129.214 443.582 129.463C443.987 129.702 444.291 129.992 444.493 130.332C444.705 130.673 444.811 131.101 444.811 131.616ZM449.599 134.391C448.937 134.391 448.352 134.258 447.846 133.991C447.34 133.724 446.939 133.31 446.645 132.748C446.359 132.187 446.217 131.469 446.217 130.595C446.217 129.683 446.364 128.942 446.659 128.372C446.962 127.801 447.376 127.382 447.901 127.115C448.426 126.848 449.019 126.715 449.682 126.715C450.05 126.715 450.409 126.756 450.759 126.839C451.118 126.913 451.408 127.005 451.629 127.115L451.256 128.123C451.035 128.04 450.778 127.962 450.483 127.889C450.188 127.815 449.912 127.778 449.655 127.778C448.2 127.778 447.473 128.712 447.473 130.581C447.473 131.474 447.648 132.159 447.998 132.638C448.357 133.107 448.886 133.342 449.586 133.342C449.981 133.342 450.336 133.301 450.649 133.218C450.962 133.135 451.247 133.034 451.505 132.914V133.991C451.256 134.12 450.98 134.217 450.676 134.281C450.382 134.355 450.023 134.391 449.599 134.391ZM454.48 123.76V126.839C454.48 127.207 454.457 127.553 454.411 127.875H454.493C454.733 127.497 455.055 127.212 455.46 127.019C455.874 126.825 456.32 126.729 456.799 126.729C457.692 126.729 458.364 126.945 458.815 127.378C459.275 127.801 459.505 128.487 459.505 129.435V134.253H458.304V129.518C458.304 128.33 457.752 127.737 456.647 127.737C455.819 127.737 455.248 127.971 454.935 128.441C454.631 128.901 454.48 129.564 454.48 130.429V134.253H453.265V123.76H454.48ZM464.657 126.715C465.283 126.715 465.826 126.853 466.287 127.129C466.747 127.405 467.097 127.797 467.336 128.303C467.584 128.8 467.709 129.384 467.709 130.056V130.788H462.642C462.66 131.626 462.872 132.265 463.277 132.707C463.691 133.14 464.266 133.356 465.003 133.356C465.472 133.356 465.886 133.315 466.245 133.232C466.613 133.14 466.991 133.011 467.377 132.845V133.908C467 134.074 466.627 134.194 466.259 134.267C465.891 134.35 465.454 134.391 464.947 134.391C464.239 134.391 463.617 134.249 463.083 133.963C462.55 133.678 462.131 133.255 461.827 132.693C461.532 132.132 461.385 131.437 461.385 130.608C461.385 129.798 461.519 129.104 461.786 128.524C462.062 127.944 462.444 127.497 462.932 127.184C463.429 126.871 464.004 126.715 464.657 126.715ZM464.644 127.709C464.064 127.709 463.603 127.898 463.263 128.275C462.932 128.643 462.734 129.159 462.669 129.821H466.438C466.429 129.196 466.282 128.689 465.997 128.303C465.711 127.907 465.26 127.709 464.644 127.709ZM472.216 134.391C471.295 134.391 470.559 134.074 470.007 133.439C469.455 132.795 469.178 131.837 469.178 130.567C469.178 129.297 469.455 128.34 470.007 127.695C470.568 127.042 471.309 126.715 472.23 126.715C472.8 126.715 473.265 126.821 473.624 127.033C473.992 127.244 474.291 127.502 474.522 127.806H474.604C474.586 127.686 474.568 127.511 474.549 127.281C474.531 127.042 474.522 126.853 474.522 126.715V123.76H475.737V134.253H474.756L474.577 133.259H474.522C474.301 133.572 474.006 133.839 473.638 134.06C473.27 134.281 472.796 134.391 472.216 134.391ZM472.409 133.384C473.192 133.384 473.739 133.172 474.052 132.748C474.374 132.316 474.535 131.667 474.535 130.802V130.581C474.535 129.66 474.384 128.956 474.08 128.468C473.776 127.971 473.215 127.723 472.395 127.723C471.742 127.723 471.249 127.985 470.918 128.51C470.596 129.025 470.435 129.72 470.435 130.595C470.435 131.478 470.596 132.164 470.918 132.652C471.249 133.14 471.746 133.384 472.409 133.384ZM484.272 126.853V134.253H483.278L483.099 133.273H483.044C482.804 133.66 482.473 133.945 482.049 134.129C481.626 134.304 481.175 134.391 480.696 134.391C479.804 134.391 479.132 134.18 478.681 133.756C478.23 133.324 478.004 132.638 478.004 131.699V126.853H479.233V131.616C479.233 132.795 479.781 133.384 480.876 133.384C481.695 133.384 482.261 133.153 482.574 132.693C482.896 132.233 483.057 131.57 483.057 130.705V126.853H484.272ZM487.837 134.253H486.622V123.76H487.837V134.253ZM493.039 126.715C493.665 126.715 494.208 126.853 494.668 127.129C495.129 127.405 495.478 127.797 495.718 128.303C495.966 128.8 496.091 129.384 496.091 130.056V130.788H491.023C491.042 131.626 491.254 132.265 491.659 132.707C492.073 133.14 492.648 133.356 493.384 133.356C493.854 133.356 494.268 133.315 494.627 133.232C494.995 133.14 495.373 133.011 495.759 132.845V133.908C495.382 134.074 495.009 134.194 494.641 134.267C494.273 134.35 493.835 134.391 493.329 134.391C492.62 134.391 491.999 134.249 491.465 133.963C490.931 133.678 490.513 133.255 490.209 132.693C489.914 132.132 489.767 131.437 489.767 130.608C489.767 129.798 489.901 129.104 490.167 128.524C490.444 127.944 490.826 127.497 491.313 127.184C491.81 126.871 492.386 126.715 493.039 126.715ZM493.025 127.709C492.446 127.709 491.985 127.898 491.645 128.275C491.313 128.643 491.116 129.159 491.051 129.821H494.82C494.811 129.196 494.664 128.689 494.378 128.303C494.093 127.907 493.642 127.709 493.025 127.709ZM509.541 134.253H508.092L502.817 126.066H502.762C502.781 126.388 502.804 126.789 502.831 127.267C502.859 127.746 502.873 128.238 502.873 128.745V134.253H501.727V124.395H503.163L508.423 132.555H508.478C508.469 132.408 508.455 132.187 508.437 131.892C508.427 131.598 508.414 131.28 508.395 130.94C508.386 130.59 508.381 130.263 508.381 129.96V124.395H509.541V134.253ZM514.909 126.715C515.535 126.715 516.078 126.853 516.538 127.129C516.998 127.405 517.348 127.797 517.587 128.303C517.836 128.8 517.96 129.384 517.96 130.056V130.788H512.893C512.911 131.626 513.123 132.265 513.528 132.707C513.942 133.14 514.518 133.356 515.254 133.356C515.723 133.356 516.138 133.315 516.497 133.232C516.865 133.14 517.242 133.011 517.629 132.845V133.908C517.251 134.074 516.879 134.194 516.51 134.267C516.142 134.35 515.705 134.391 515.199 134.391C514.49 134.391 513.869 134.249 513.335 133.963C512.801 133.678 512.382 133.255 512.078 132.693C511.784 132.132 511.637 131.437 511.637 130.608C511.637 129.798 511.77 129.104 512.037 128.524C512.313 127.944 512.695 127.497 513.183 127.184C513.68 126.871 514.255 126.715 514.909 126.715ZM514.895 127.709C514.315 127.709 513.855 127.898 513.514 128.275C513.183 128.643 512.985 129.159 512.921 129.821H516.69C516.681 129.196 516.533 128.689 516.248 128.303C515.963 127.907 515.512 127.709 514.895 127.709ZM525.622 134.24L524.351 130.07C524.232 129.693 524.126 129.324 524.034 128.965C523.942 128.606 523.877 128.321 523.841 128.109H523.785C523.749 128.321 523.689 128.606 523.606 128.965C523.523 129.324 523.417 129.697 523.288 130.084L521.963 134.24H520.582L518.553 126.839H519.809L520.831 130.788C520.932 131.184 521.029 131.584 521.121 131.989C521.213 132.394 521.277 132.73 521.314 132.997H521.369C521.397 132.841 521.438 132.647 521.493 132.417C521.549 132.187 521.609 131.948 521.673 131.699C521.737 131.441 521.802 131.211 521.866 131.009L523.178 126.839H524.503L525.774 131.009C525.866 131.331 525.962 131.676 526.063 132.044C526.165 132.413 526.234 132.725 526.271 132.983H526.326C526.353 132.753 526.413 132.436 526.505 132.031C526.607 131.626 526.712 131.211 526.823 130.788L527.858 126.839H529.101L527.044 134.24H525.622ZM538.529 134.253L535.285 125.61H535.23C535.257 125.896 535.28 126.282 535.299 126.77C535.317 127.249 535.326 127.75 535.326 128.275V134.253H534.18V124.395H536.017L539.054 132.472H539.109L542.202 124.395H544.025V134.253H542.796V128.192C542.796 127.714 542.805 127.24 542.823 126.77C542.851 126.301 542.874 125.919 542.892 125.624H542.837L539.551 134.253H538.529ZM549.398 126.715C550.024 126.715 550.567 126.853 551.028 127.129C551.488 127.405 551.838 127.797 552.077 128.303C552.325 128.8 552.45 129.384 552.45 130.056V130.788H547.383C547.401 131.626 547.613 132.265 548.018 132.707C548.432 133.14 549.007 133.356 549.744 133.356C550.213 133.356 550.627 133.315 550.986 133.232C551.354 133.14 551.732 133.011 552.118 132.845V133.908C551.741 134.074 551.368 134.194 551 134.267C550.632 134.35 550.195 134.391 549.688 134.391C548.98 134.391 548.358 134.249 547.825 133.963C547.291 133.678 546.872 133.255 546.568 132.693C546.274 132.132 546.126 131.437 546.126 130.608C546.126 129.798 546.26 129.104 546.527 128.524C546.803 127.944 547.185 127.497 547.673 127.184C548.17 126.871 548.745 126.715 549.398 126.715ZM549.385 127.709C548.805 127.709 548.345 127.898 548.004 128.275C547.673 128.643 547.475 129.159 547.41 129.821H551.18C551.17 129.196 551.023 128.689 550.738 128.303C550.452 127.907 550.001 127.709 549.385 127.709ZM557.192 126.715C557.818 126.715 558.361 126.853 558.821 127.129C559.281 127.405 559.631 127.797 559.87 128.303C560.119 128.8 560.243 129.384 560.243 130.056V130.788H555.176C555.194 131.626 555.406 132.265 555.811 132.707C556.225 133.14 556.8 133.356 557.537 133.356C558.006 133.356 558.42 133.315 558.779 133.232C559.148 133.14 559.525 133.011 559.912 132.845V133.908C559.534 134.074 559.161 134.194 558.793 134.267C558.425 134.35 557.988 134.391 557.482 134.391C556.773 134.391 556.152 134.249 555.618 133.963C555.084 133.678 554.665 133.255 554.361 132.693C554.067 132.132 553.919 131.437 553.919 130.608C553.919 129.798 554.053 129.104 554.32 128.524C554.596 127.944 554.978 127.497 555.466 127.184C555.963 126.871 556.538 126.715 557.192 126.715ZM557.178 127.709C556.598 127.709 556.138 127.898 555.797 128.275C555.466 128.643 555.268 129.159 555.204 129.821H558.973C558.964 129.196 558.816 128.689 558.531 128.303C558.246 127.907 557.795 127.709 557.178 127.709ZM564.598 133.397C564.782 133.397 564.971 133.384 565.164 133.356C565.358 133.328 565.514 133.292 565.634 133.246V134.171C565.505 134.235 565.321 134.286 565.082 134.322C564.842 134.368 564.612 134.391 564.391 134.391C564.005 134.391 563.646 134.327 563.314 134.198C562.992 134.06 562.73 133.825 562.527 133.494C562.325 133.163 562.224 132.698 562.224 132.1V127.792H561.174V127.212L562.237 126.729L562.721 125.155H563.439V126.853H565.579V127.792H563.439V132.072C563.439 132.523 563.544 132.859 563.756 133.08C563.977 133.292 564.258 133.397 564.598 133.397ZM567.737 124.078C567.921 124.078 568.082 124.142 568.22 124.271C568.367 124.391 568.441 124.584 568.441 124.851C568.441 125.118 568.367 125.316 568.22 125.445C568.082 125.564 567.921 125.624 567.737 125.624C567.534 125.624 567.364 125.564 567.226 125.445C567.088 125.316 567.019 125.118 567.019 124.851C567.019 124.584 567.088 124.391 567.226 124.271C567.364 124.142 567.534 124.078 567.737 124.078ZM568.331 126.853V134.253H567.116V126.853H568.331ZM574.237 126.715C575.121 126.715 575.788 126.931 576.239 127.364C576.69 127.797 576.916 128.487 576.916 129.435V134.253H575.715V129.518C575.715 128.33 575.162 127.737 574.058 127.737C573.239 127.737 572.673 127.967 572.36 128.427C572.047 128.887 571.89 129.55 571.89 130.415V134.253H570.675V126.853H571.655L571.835 127.861H571.904C572.143 127.474 572.475 127.189 572.898 127.005C573.321 126.812 573.768 126.715 574.237 126.715ZM581.833 126.715C582.321 126.715 582.758 126.807 583.145 126.991C583.541 127.175 583.877 127.456 584.153 127.833H584.222L584.387 126.853H585.354V134.378C585.354 135.436 585.082 136.232 584.539 136.766C584.005 137.3 583.172 137.567 582.04 137.567C580.954 137.567 580.066 137.411 579.376 137.098V135.979C580.103 136.366 581.014 136.559 582.109 136.559C582.744 136.559 583.242 136.37 583.6 135.993C583.969 135.625 584.153 135.119 584.153 134.474V134.184C584.153 134.074 584.157 133.917 584.167 133.715C584.176 133.503 584.185 133.356 584.194 133.273H584.139C583.642 134.019 582.878 134.391 581.847 134.391C580.89 134.391 580.14 134.056 579.597 133.384C579.063 132.712 578.796 131.773 578.796 130.567C578.796 129.389 579.063 128.455 579.597 127.764C580.14 127.065 580.885 126.715 581.833 126.715ZM581.999 127.737C581.382 127.737 580.904 127.985 580.563 128.482C580.222 128.97 580.052 129.67 580.052 130.581C580.052 131.492 580.218 132.192 580.549 132.679C580.881 133.158 581.373 133.397 582.027 133.397C582.772 133.397 583.315 133.2 583.656 132.804C583.996 132.399 584.167 131.75 584.167 130.857V130.567C584.167 129.564 583.992 128.841 583.642 128.399C583.292 127.958 582.744 127.737 581.999 127.737ZM592.523 132.21C592.523 132.928 592.256 133.471 591.722 133.839C591.188 134.207 590.47 134.391 589.568 134.391C589.053 134.391 588.606 134.35 588.229 134.267C587.861 134.184 587.534 134.069 587.249 133.922V132.818C587.543 132.965 587.898 133.103 588.312 133.232C588.735 133.351 589.163 133.411 589.596 133.411C590.213 133.411 590.659 133.315 590.935 133.121C591.211 132.919 591.349 132.652 591.349 132.32C591.349 132.136 591.299 131.971 591.197 131.823C591.096 131.676 590.912 131.529 590.645 131.382C590.387 131.234 590.015 131.069 589.527 130.885C589.048 130.701 588.639 130.516 588.298 130.332C587.957 130.148 587.695 129.927 587.511 129.67C587.327 129.412 587.235 129.081 587.235 128.676C587.235 128.05 587.488 127.566 587.994 127.226C588.51 126.885 589.182 126.715 590.01 126.715C590.461 126.715 590.88 126.761 591.266 126.853C591.662 126.945 592.03 127.065 592.371 127.212L591.957 128.178C591.644 128.05 591.317 127.939 590.976 127.847C590.636 127.755 590.286 127.709 589.927 127.709C589.43 127.709 589.048 127.792 588.781 127.958C588.523 128.114 588.395 128.33 588.395 128.606C588.395 128.818 588.454 128.993 588.574 129.131C588.694 129.269 588.892 129.407 589.168 129.545C589.453 129.683 589.831 129.84 590.3 130.015C590.769 130.19 591.17 130.369 591.501 130.553C591.832 130.737 592.086 130.963 592.26 131.23C592.435 131.487 592.523 131.814 592.523 132.21Z" fill="black"/>
<rect x="716.443" y="115.803" width="54.5267" height="25.9" rx="1.09" fill="white"/>
<path d="M731.806 125.692C731.026 125.692 730.413 125.953 729.965 126.475C729.517 126.997 729.294 127.713 729.294 128.622C729.294 129.524 729.5 130.239 729.914 130.768C730.335 131.29 730.962 131.551 731.796 131.551C732.108 131.551 732.407 131.524 732.691 131.47C732.976 131.416 733.258 131.348 733.536 131.267V132.06C733.265 132.162 732.983 132.236 732.691 132.284C732.407 132.331 732.064 132.355 731.664 132.355C730.925 132.355 730.308 132.203 729.812 131.897C729.317 131.592 728.944 131.158 728.693 130.595C728.449 130.032 728.327 129.371 728.327 128.611C728.327 127.879 728.459 127.235 728.724 126.678C728.995 126.116 729.392 125.678 729.914 125.366C730.436 125.047 731.071 124.888 731.817 124.888C732.583 124.888 733.251 125.03 733.821 125.315L733.454 126.088C733.231 125.987 732.98 125.895 732.702 125.814C732.43 125.732 732.132 125.692 731.806 125.692ZM737.064 126.709C737.729 126.709 738.221 126.855 738.539 127.146C738.858 127.438 739.018 127.903 739.018 128.54V132.253H738.367L738.194 131.48H738.153C737.916 131.779 737.665 131.999 737.4 132.142C737.136 132.284 736.776 132.355 736.322 132.355C735.827 132.355 735.416 132.226 735.091 131.969C734.765 131.704 734.602 131.294 734.602 130.738C734.602 130.195 734.816 129.778 735.243 129.486C735.671 129.188 736.328 129.025 737.217 128.998L738.143 128.967V128.642C738.143 128.187 738.044 127.872 737.848 127.696C737.651 127.519 737.373 127.431 737.013 127.431C736.729 127.431 736.457 127.475 736.2 127.564C735.942 127.645 735.701 127.74 735.477 127.848L735.203 127.177C735.44 127.048 735.721 126.94 736.047 126.851C736.373 126.756 736.712 126.709 737.064 126.709ZM738.133 129.588L737.329 129.619C736.651 129.646 736.179 129.754 735.915 129.944C735.657 130.134 735.528 130.402 735.528 130.748C735.528 131.053 735.62 131.277 735.803 131.419C735.993 131.562 736.234 131.633 736.525 131.633C736.98 131.633 737.359 131.507 737.665 131.256C737.977 130.999 738.133 130.605 738.133 130.076V129.588ZM743.327 126.699C743.978 126.699 744.469 126.858 744.802 127.177C745.134 127.496 745.3 128.004 745.3 128.703V132.253H744.415V128.764C744.415 127.889 744.008 127.452 743.194 127.452C742.591 127.452 742.174 127.621 741.943 127.96C741.712 128.299 741.597 128.788 741.597 129.425V132.253H740.702V126.801H741.424L741.556 127.543H741.607C741.784 127.258 742.028 127.048 742.34 126.912C742.652 126.77 742.981 126.699 743.327 126.699ZM749.178 132.355C748.69 132.355 748.259 132.257 747.886 132.06C747.513 131.863 747.218 131.558 747.001 131.145C746.79 130.731 746.685 130.202 746.685 129.557C746.685 128.886 746.794 128.34 747.011 127.92C747.235 127.499 747.54 127.19 747.927 126.994C748.313 126.797 748.751 126.699 749.239 126.699C749.51 126.699 749.775 126.729 750.032 126.79C750.297 126.845 750.511 126.912 750.673 126.994L750.399 127.736C750.236 127.675 750.046 127.618 749.829 127.564C749.612 127.509 749.408 127.482 749.219 127.482C748.147 127.482 747.611 128.171 747.611 129.547C747.611 130.205 747.74 130.71 747.998 131.063C748.262 131.409 748.652 131.582 749.168 131.582C749.459 131.582 749.72 131.551 749.951 131.49C750.182 131.429 750.392 131.355 750.582 131.267V132.06C750.399 132.155 750.195 132.226 749.971 132.274C749.754 132.328 749.49 132.355 749.178 132.355ZM753.984 126.699C754.446 126.699 754.846 126.801 755.185 127.004C755.524 127.207 755.782 127.496 755.958 127.869C756.141 128.235 756.233 128.666 756.233 129.161V129.7H752.499C752.513 130.317 752.669 130.788 752.967 131.114C753.272 131.433 753.696 131.592 754.239 131.592C754.585 131.592 754.89 131.562 755.154 131.501C755.426 131.433 755.704 131.338 755.989 131.216V131.999C755.71 132.121 755.436 132.209 755.165 132.264C754.893 132.325 754.571 132.355 754.198 132.355C753.676 132.355 753.218 132.25 752.825 132.04C752.431 131.83 752.123 131.518 751.899 131.104C751.682 130.69 751.573 130.178 751.573 129.568C751.573 128.971 751.672 128.459 751.868 128.031C752.072 127.604 752.353 127.275 752.713 127.045C753.079 126.814 753.503 126.699 753.984 126.699ZM753.974 127.431C753.547 127.431 753.208 127.57 752.957 127.848C752.713 128.12 752.567 128.499 752.519 128.988H755.297C755.29 128.527 755.181 128.154 754.971 127.869C754.761 127.577 754.429 127.431 753.974 127.431ZM758.516 132.253H757.621V124.522H758.516V132.253Z" fill="#1B77AF"/>
<rect x="716.443" y="115.803" width="54.5267" height="25.9" rx="1.09" stroke="#1B77AF" stroke-width="0.726667"/>
<rect x="777.146" y="115.44" width="55.2267" height="26.6267" rx="1.45333" fill="#1B77AF"/>
<path d="M798.367 130.31C798.367 130.955 798.133 131.457 797.665 131.816C797.197 132.175 796.567 132.355 795.773 132.355C795.366 132.355 794.99 132.325 794.644 132.264C794.298 132.203 794.01 132.118 793.779 132.009V131.134C794.023 131.243 794.325 131.341 794.685 131.429C795.051 131.518 795.427 131.562 795.814 131.562C796.35 131.562 796.756 131.457 797.035 131.246C797.313 131.036 797.452 130.751 797.452 130.392C797.452 130.154 797.401 129.954 797.299 129.791C797.197 129.629 797.021 129.479 796.77 129.344C796.519 129.208 796.177 129.059 795.743 128.896C795.119 128.672 794.651 128.398 794.339 128.072C794.027 127.747 793.871 127.302 793.871 126.739C793.871 126.36 793.969 126.031 794.166 125.753C794.362 125.475 794.634 125.261 794.98 125.112C795.325 124.963 795.729 124.888 796.19 124.888C796.584 124.888 796.946 124.925 797.279 125C797.611 125.074 797.916 125.173 798.194 125.295L797.909 126.078C797.659 125.97 797.384 125.878 797.085 125.804C796.787 125.729 796.482 125.692 796.17 125.692C795.715 125.692 795.373 125.79 795.142 125.987C794.912 126.177 794.796 126.431 794.796 126.75C794.796 126.994 794.847 127.197 794.949 127.36C795.051 127.523 795.217 127.672 795.448 127.808C795.678 127.937 795.99 128.072 796.383 128.215C796.811 128.371 797.17 128.54 797.462 128.723C797.76 128.9 797.984 129.113 798.133 129.364C798.289 129.615 798.367 129.931 798.367 130.31ZM801.774 126.709C802.438 126.709 802.93 126.855 803.249 127.146C803.567 127.438 803.727 127.903 803.727 128.54V132.253H803.076L802.903 131.48H802.862C802.625 131.779 802.374 131.999 802.109 132.142C801.845 132.284 801.485 132.355 801.031 132.355C800.536 132.355 800.126 132.226 799.8 131.969C799.474 131.704 799.312 131.294 799.312 130.738C799.312 130.195 799.525 129.778 799.953 129.486C800.38 129.188 801.038 129.025 801.926 128.998L802.852 128.967V128.642C802.852 128.187 802.754 127.872 802.557 127.696C802.36 127.519 802.082 127.431 801.723 127.431C801.438 127.431 801.167 127.475 800.909 127.564C800.651 127.645 800.41 127.74 800.187 127.848L799.912 127.177C800.149 127.048 800.431 126.94 800.756 126.851C801.082 126.756 801.421 126.709 801.774 126.709ZM802.842 129.588L802.038 129.619C801.36 129.646 800.889 129.754 800.624 129.944C800.366 130.134 800.237 130.402 800.237 130.748C800.237 131.053 800.329 131.277 800.512 131.419C800.702 131.562 800.943 131.633 801.234 131.633C801.689 131.633 802.069 131.507 802.374 131.256C802.686 130.999 802.842 130.605 802.842 130.076V129.588ZM806.611 132.253L804.546 126.801H805.503L806.662 130.015C806.717 130.164 806.774 130.331 806.835 130.514C806.896 130.697 806.951 130.873 806.998 131.043C807.046 131.212 807.079 131.351 807.1 131.46H807.14C807.161 131.351 807.198 131.212 807.252 131.043C807.307 130.866 807.364 130.69 807.425 130.514C807.486 130.331 807.544 130.164 807.598 130.015L808.758 126.801H809.714L807.639 132.253H806.611ZM812.683 126.699C813.144 126.699 813.544 126.801 813.884 127.004C814.223 127.207 814.48 127.496 814.657 127.869C814.84 128.235 814.931 128.666 814.931 129.161V129.7H811.198C811.211 130.317 811.367 130.788 811.666 131.114C811.971 131.433 812.395 131.592 812.937 131.592C813.283 131.592 813.588 131.562 813.853 131.501C814.124 131.433 814.402 131.338 814.687 131.216V131.999C814.409 132.121 814.134 132.209 813.863 132.264C813.592 132.325 813.27 132.355 812.897 132.355C812.374 132.355 811.917 132.25 811.523 132.04C811.13 131.83 810.821 131.518 810.598 131.104C810.38 130.69 810.272 130.178 810.272 129.568C810.272 128.971 810.37 128.459 810.567 128.031C810.77 127.604 811.052 127.275 811.411 127.045C811.778 126.814 812.202 126.699 812.683 126.699ZM812.673 127.431C812.246 127.431 811.906 127.57 811.656 127.848C811.411 128.12 811.266 128.499 811.218 128.988H813.995C813.989 128.527 813.88 128.154 813.67 127.869C813.46 127.577 813.127 127.431 812.673 127.431Z" fill="white"/>
<rect x="271.973" y="159.854" width="199.306" height="24.2879" rx="1.04091" fill="white"/>
<rect x="271.973" y="159.854" width="199.306" height="24.2879" rx="1.04091" stroke="#C9C9C9" stroke-width="0.693941"/>
<rect x="483.77" y="159.854" width="199.306" height="24.2879" rx="1.04091" fill="white"/>
<rect x="483.77" y="159.854" width="199.306" height="24.2879" rx="1.04091" stroke="#C9C9C9" stroke-width="0.693941"/>
<rect x="271.973" y="202.276" width="199.306" height="24.2879" rx="1.04091" fill="white"/>
<rect x="271.973" y="202.276" width="199.306" height="24.2879" rx="1.04091" stroke="#C9C9C9" stroke-width="0.693941"/>
<rect x="483.77" y="202.276" width="199.306" height="24.2879" rx="1.04091" fill="white"/>
<rect x="483.77" y="202.276" width="199.306" height="24.2879" rx="1.04091" stroke="#C9C9C9" stroke-width="0.693941"/>
<rect x="271.973" y="244.698" width="199.306" height="24.2879" rx="1.04091" fill="white"/>
<rect x="271.973" y="244.698" width="199.306" height="24.2879" rx="1.04091" stroke="#C9C9C9" stroke-width="0.693941"/>
<rect x="271.973" y="287.119" width="199.306" height="24.2879" rx="1.04091" fill="white"/>
<rect x="271.973" y="287.119" width="199.306" height="24.2879" rx="1.04091" stroke="#C9C9C9" stroke-width="0.693941"/>
</g>
</g>
<defs>
<filter id="filter0_d_8690_365555" x="44" y="28" width="816" height="590" filterUnits="userSpaceOnUse" color-interpolation-filters="sRGB">
<feFlood flood-opacity="0" result="BackgroundImageFix"/>
<feColorMatrix in="SourceAlpha" type="matrix" values="0 0 0 0 0 0 0 0 0 0 0 0 0 0 0 0 0 0 127 0" result="hardAlpha"/>
<feOffset dy="4"/>
<feGaussianBlur stdDeviation="4"/>
<feColorMatrix type="matrix" values="0 0 0 0 0 0 0 0 0 0 0 0 0 0 0 0 0 0 0.25 0"/>
<feBlend mode="normal" in2="BackgroundImageFix" result="effect1_dropShadow_8690_365555"/>
<feBlend mode="normal" in="SourceGraphic" in2="effect1_dropShadow_8690_365555" result="shape"/>
</filter>
<filter id="filter1_i_8690_365555" x="52" y="90" width="200" height="516" filterUnits="userSpaceOnUse" color-interpolation-filters="sRGB">
<feFlood flood-opacity="0" result="BackgroundImageFix"/>
<feBlend mode="normal" in="SourceGraphic" in2="BackgroundImageFix" result="shape"/>
<feColorMatrix in="SourceAlpha" type="matrix" values="0 0 0 0 0 0 0 0 0 0 0 0 0 0 0 0 0 0 127 0" result="hardAlpha"/>
<feOffset dx="-1"/>
<feComposite in2="hardAlpha" operator="arithmetic" k2="-1" k3="1"/>
<feColorMatrix type="matrix" values="0 0 0 0 0.788235 0 0 0 0 0.788235 0 0 0 0 0.788235 0 0 0 1 0"/>
<feBlend mode="normal" in2="shape" result="effect1_innerShadow_8690_365555"/>
</filter>
<filter id="filter2_i_8690_365555" x="52" y="32" width="800" height="58" filterUnits="userSpaceOnUse" color-interpolation-filters="sRGB">
<feFlood flood-opacity="0" result="BackgroundImageFix"/>
<feBlend mode="normal" in="SourceGraphic" in2="BackgroundImageFix" result="shape"/>
<feColorMatrix in="SourceAlpha" type="matrix" values="0 0 0 0 0 0 0 0 0 0 0 0 0 0 0 0 0 0 127 0" result="hardAlpha"/>
<feOffset dy="-1"/>
<feComposite in2="hardAlpha" operator="arithmetic" k2="-1" k3="1"/>
<feColorMatrix type="matrix" values="0 0 0 0 0.788235 0 0 0 0 0.788235 0 0 0 0 0.788235 0 0 0 1 0"/>
<feBlend mode="normal" in2="shape" result="effect1_innerShadow_8690_365555"/>
</filter>
<clipPath id="clip0_8690_365555">
<rect width="904" height="328" rx="4" fill="white"/>
</clipPath>
<clipPath id="clip1_8690_365555">
<rect x="52" y="32" width="800" height="574" rx="8" fill="white"/>
</clipPath>
<clipPath id="clip2_8690_365555">
<rect width="40.0001" height="36.6667" fill="white" transform="translate(796 41)"/>
</clipPath>
</defs>
</svg>
