<svg width="904" height="200" viewBox="0 0 904 200" fill="none" xmlns="http://www.w3.org/2000/svg">
<g clip-path="url(#clip0_8669_366915)">
<rect width="904" height="200" rx="4" fill="#F1F1F1"/>
<g clip-path="url(#clip1_8669_366915)" filter="url(#filter0_d_8669_366915)">
<g clip-path="url(#clip2_8669_366915)">
<g filter="url(#filter1_i_8669_366915)">
<rect width="200" height="516" transform="translate(52 58)" fill="white"/>
<rect width="200" height="48" transform="translate(52 58)" fill="white"/>
<path d="M80 94C74.201 94 69.5 89.299 69.5 83.5C69.5 77.701 74.201 73 80 73C85.799 73 90.5 77.701 90.5 83.5C90.5 89.299 85.799 94 80 94Z" fill="#C9C9C9"/>
<rect x="99" y="77" width="120" height="12" rx="2" fill="#C9C9C9"/>
<rect width="200" height="48" transform="translate(52 106)" fill="white"/>
<path d="M80 142C74.201 142 69.5 137.299 69.5 131.5C69.5 125.701 74.201 121 80 121C85.799 121 90.5 125.701 90.5 131.5C90.5 137.299 85.799 142 80 142Z" fill="#C9C9C9"/>
<rect x="99" y="125" width="120" height="12" rx="2" fill="#C9C9C9"/>
<rect width="200" height="48" transform="translate(52 154)" fill="white"/>
<path d="M80 190C74.201 190 69.5 185.299 69.5 179.5C69.5 173.701 74.201 169 80 169C85.799 169 90.5 173.701 90.5 179.5C90.5 185.299 85.799 190 80 190Z" fill="#C9C9C9"/>
<rect x="99" y="173" width="120" height="12" rx="2" fill="#C9C9C9"/>
</g>
<g filter="url(#filter2_i_8669_366915)">
<rect width="800" height="58" transform="translate(52)" fill="white"/>
<path d="M52 0H99.7595L129 58H52V0Z" fill="#DA291C"/>
<line x1="52" y1="57.5" x2="129" y2="57.5" stroke="#C9C9C9"/>
<path d="M74.9378 34.2539H82.9108L84.2099 37.2803H73.4439L71.7227 40.7639H66.9648L78.7538 17.8447H82.0502L93.8392 40.7639H89.0976L80.4101 23.0622L74.9378 34.2539Z" fill="white"/>
<rect x="145" y="23" width="120" height="12" rx="2" fill="#C9C9C9"/>
<rect x="471.5" y="11.5" width="199" height="35" rx="1.5" fill="white"/>
<path fill-rule="evenodd" clip-rule="evenodd" d="M489.62 22.7493C486.93 22.7493 484.749 24.93 484.749 27.62C484.749 30.31 486.93 32.4906 489.62 32.4906C492.31 32.4906 494.491 30.31 494.491 27.62C494.491 24.93 492.31 22.7493 489.62 22.7493ZM484 27.62C484 24.5162 486.516 22 489.62 22C492.724 22 495.24 24.5162 495.24 27.62C495.24 30.7238 492.724 33.24 489.62 33.24C486.516 33.24 484 30.7238 484 27.62Z" fill="#939393"/>
<path fill-rule="evenodd" clip-rule="evenodd" d="M493.302 31.3015C493.448 31.1552 493.685 31.1552 493.831 31.3015L495.68 33.1499C495.826 33.2962 495.826 33.5334 495.68 33.6797C495.533 33.8261 495.296 33.8261 495.15 33.6797L493.302 31.8314C493.155 31.6851 493.155 31.4478 493.302 31.3015Z" fill="#939393"/>
<path fill-rule="evenodd" clip-rule="evenodd" d="M496.449 33.7297C496.245 33.5263 495.933 33.5263 495.73 33.7297C495.526 33.9331 495.526 34.2453 495.73 34.4487L496.379 35.0981C496.386 35.1049 496.392 35.112 496.399 35.1192C496.538 35.2822 496.882 35.3138 497.098 35.0981C497.302 34.8948 497.302 34.5825 497.098 34.3791L496.449 33.7297ZM495.2 33.1998C495.696 32.7038 496.483 32.7038 496.979 33.1998L497.628 33.8493C498.124 34.3453 498.124 35.132 497.628 35.628C497.148 36.1081 496.302 36.1428 495.84 35.6189L495.2 34.9786C494.704 34.4826 494.704 33.6958 495.2 33.1998Z" fill="#939393"/>
<rect x="471.5" y="11.5" width="199" height="35" rx="1.5" stroke="#C9C9C9"/>
<path d="M711 39.5C705.201 39.5 700.5 34.799 700.5 29C700.5 23.201 705.201 18.5 711 18.5C716.799 18.5 721.5 23.201 721.5 29C721.5 34.799 716.799 39.5 711 39.5Z" fill="#C9C9C9"/>
<path d="M759 39.5C753.201 39.5 748.5 34.799 748.5 29C748.5 23.201 753.201 18.5 759 18.5C764.799 18.5 769.5 23.201 769.5 29C769.5 34.799 764.799 39.5 759 39.5Z" fill="#C9C9C9"/>
<circle cx="816" cy="29" r="20" fill="white"/>
<g clip-path="url(#clip3_8669_366915)">
<path d="M804.571 45.413V43.0845C804.571 40.0534 805.776 37.1465 807.919 35.0032C810.062 32.86 812.969 31.6559 816 31.6559C819.031 31.6559 821.938 32.86 824.081 35.0032C826.224 37.1465 827.429 40.0534 827.429 43.0845V45.413C830.923 42.98 833.549 39.4952 834.926 35.466C836.303 31.4368 836.357 27.0734 835.082 23.0109C833.807 18.9484 831.269 15.3988 827.837 12.8789C824.405 10.3589 820.258 9 816 9C811.742 9 807.595 10.3589 804.163 12.8789C800.731 15.3988 798.193 18.9484 796.918 23.0109C795.643 27.0734 795.697 31.4368 797.074 35.466C798.451 39.4952 801.077 42.98 804.571 45.413ZM816 15.6273C817.297 15.6273 818.565 16.0119 819.643 16.7324C820.721 17.4529 821.562 18.477 822.058 19.6752C822.554 20.8733 822.684 22.1917 822.431 23.4637C822.178 24.7357 821.554 25.904 820.637 26.8211C819.72 27.7381 818.551 28.3626 817.279 28.6156C816.007 28.8686 814.689 28.7388 813.491 28.2425C812.293 27.7462 811.268 26.9057 810.548 25.8274C809.827 24.7491 809.443 23.4813 809.443 22.1845C809.447 20.4466 810.139 18.7809 811.368 17.552C812.596 16.3231 814.262 15.6311 816 15.6273Z" fill="#C9C9C9"/>
</g>
</g>
<rect width="600" height="516" transform="translate(252 58)" fill="#F1F1F1"/>
<rect x="260.5" y="66.5" width="583" height="499" rx="3.5" fill="white"/>
<rect x="260.5" y="66.5" width="583" height="499" rx="3.5" stroke="#C9C9C9"/>
</g>
<rect x="52.5" y="0.5" width="799" height="573" rx="7.5" stroke="#C9C9C9"/>
<path d="M280.863 97.2283C280.863 98.8943 280.408 100.151 279.496 100.997C278.594 101.835 277.333 102.254 275.713 102.254H272.966V92.3959H276.003C276.988 92.3959 277.844 92.58 278.571 92.9482C279.308 93.3164 279.874 93.8595 280.269 94.5774C280.665 95.2953 280.863 96.179 280.863 97.2283ZM279.551 97.2697C279.551 95.9535 279.225 94.9916 278.571 94.3841C277.927 93.7674 277.011 93.4591 275.824 93.4591H274.208V101.191H275.548C278.217 101.191 279.551 99.8838 279.551 97.2697ZM285.688 94.7293C286.59 94.7293 287.257 94.9272 287.69 95.323C288.123 95.7188 288.339 96.3493 288.339 97.2145V102.254H287.455L287.221 101.205H287.165C286.843 101.61 286.503 101.909 286.144 102.102C285.785 102.295 285.297 102.392 284.68 102.392C284.008 102.392 283.451 102.217 283.01 101.867C282.568 101.508 282.347 100.951 282.347 100.197C282.347 99.4604 282.637 98.8943 283.217 98.4985C283.797 98.0935 284.689 97.8726 285.895 97.8358L287.152 97.7944V97.3525C287.152 96.7358 287.018 96.3078 286.751 96.0685C286.484 95.8292 286.107 95.7095 285.619 95.7095C285.233 95.7095 284.864 95.7694 284.515 95.889C284.165 95.9995 283.838 96.1283 283.534 96.2756L283.162 95.3644C283.484 95.1895 283.866 95.0422 284.307 94.9226C284.749 94.7937 285.209 94.7293 285.688 94.7293ZM287.138 98.6366L286.047 98.678C285.127 98.7148 284.487 98.8621 284.128 99.1198C283.778 99.3775 283.603 99.7411 283.603 100.211C283.603 100.625 283.728 100.928 283.976 101.122C284.234 101.315 284.561 101.412 284.956 101.412C285.573 101.412 286.089 101.241 286.503 100.901C286.926 100.551 287.138 100.017 287.138 99.2993V98.6366ZM295.443 100.211C295.443 100.928 295.176 101.472 294.642 101.84C294.109 102.208 293.391 102.392 292.489 102.392C291.973 102.392 291.527 102.351 291.149 102.268C290.781 102.185 290.454 102.07 290.169 101.923V100.818C290.464 100.965 290.818 101.103 291.232 101.232C291.656 101.352 292.084 101.412 292.516 101.412C293.133 101.412 293.579 101.315 293.855 101.122C294.132 100.919 294.27 100.652 294.27 100.321C294.27 100.137 294.219 99.9712 294.118 99.8239C294.016 99.6767 293.832 99.5294 293.565 99.3821C293.308 99.2348 292.935 99.0692 292.447 98.8851C291.968 98.701 291.559 98.5169 291.218 98.3328C290.878 98.1487 290.615 97.9278 290.431 97.6701C290.247 97.4124 290.155 97.081 290.155 96.676C290.155 96.0501 290.408 95.5669 290.915 95.2263C291.43 94.8857 292.102 94.7155 292.93 94.7155C293.381 94.7155 293.8 94.7615 294.187 94.8535C294.583 94.9456 294.951 95.0652 295.291 95.2125L294.877 96.179C294.564 96.0501 294.237 95.9397 293.897 95.8476C293.556 95.7556 293.206 95.7095 292.848 95.7095C292.35 95.7095 291.968 95.7924 291.702 95.9581C291.444 96.1145 291.315 96.3308 291.315 96.607C291.315 96.8187 291.375 96.9936 291.494 97.1316C291.614 97.2697 291.812 97.4078 292.088 97.5458C292.373 97.6839 292.751 97.8404 293.22 98.0153C293.69 98.1901 294.09 98.3696 294.421 98.5537C294.753 98.7378 295.006 98.9633 295.181 99.2302C295.356 99.488 295.443 99.8147 295.443 100.211ZM298.446 91.7608V94.8397C298.446 95.2079 298.423 95.5531 298.377 95.8752H298.46C298.699 95.4978 299.022 95.2125 299.427 95.0192C299.841 94.8259 300.287 94.7293 300.766 94.7293C301.659 94.7293 302.331 94.9456 302.782 95.3782C303.242 95.8016 303.472 96.4873 303.472 97.4354V102.254H302.271V97.5182C302.271 96.3308 301.719 95.7372 300.614 95.7372C299.786 95.7372 299.215 95.9719 298.902 96.4413C298.598 96.9015 298.446 97.5642 298.446 98.4295V102.254H297.231V91.7608H298.446ZM306.981 91.7608V94.3151C306.981 94.628 306.972 94.9226 306.954 95.1987C306.944 95.4656 306.93 95.6773 306.912 95.8338H306.981C307.193 95.5209 307.483 95.2585 307.851 95.0468C308.219 94.8351 308.693 94.7293 309.273 94.7293C310.193 94.7293 310.93 95.0514 311.482 95.6957C312.044 96.3308 312.324 97.2835 312.324 98.5537C312.324 99.8239 312.044 100.781 311.482 101.426C310.921 102.07 310.184 102.392 309.273 102.392C308.693 102.392 308.219 102.286 307.851 102.074C307.483 101.863 307.193 101.61 306.981 101.315H306.884L306.636 102.254H305.766V91.7608H306.981ZM309.066 95.7372C308.274 95.7372 307.727 95.9627 307.423 96.4137C307.128 96.8647 306.981 97.5642 306.981 98.5123V98.5675C306.981 99.4788 307.128 100.178 307.423 100.666C307.727 101.145 308.284 101.384 309.094 101.384C309.756 101.384 310.249 101.14 310.571 100.652C310.902 100.164 311.068 99.4604 311.068 98.5399C311.068 96.6714 310.401 95.7372 309.066 95.7372ZM320.694 98.5399C320.694 99.7641 320.381 100.712 319.756 101.384C319.139 102.056 318.301 102.392 317.243 102.392C316.589 102.392 316.005 102.245 315.489 101.95C314.983 101.646 314.583 101.209 314.288 100.639C313.994 100.059 313.846 99.3591 313.846 98.5399C313.846 97.3157 314.15 96.3723 314.758 95.7095C315.374 95.0468 316.216 94.7155 317.284 94.7155C317.947 94.7155 318.536 94.8673 319.051 95.1711C319.567 95.4656 319.967 95.8982 320.253 96.4689C320.547 97.0304 320.694 97.7207 320.694 98.5399ZM315.103 98.5399C315.103 99.4143 315.273 100.109 315.614 100.625C315.963 101.131 316.516 101.384 317.27 101.384C318.016 101.384 318.564 101.131 318.913 100.625C319.263 100.109 319.438 99.4143 319.438 98.5399C319.438 97.6655 319.263 96.9798 318.913 96.4827C318.564 95.9857 318.011 95.7372 317.257 95.7372C316.502 95.7372 315.954 95.9857 315.614 96.4827C315.273 96.9798 315.103 97.6655 315.103 98.5399ZM325.423 94.7293C326.325 94.7293 326.992 94.9272 327.425 95.323C327.857 95.7188 328.074 96.3493 328.074 97.2145V102.254H327.19L326.955 101.205H326.9C326.578 101.61 326.237 101.909 325.878 102.102C325.519 102.295 325.032 102.392 324.415 102.392C323.743 102.392 323.186 102.217 322.744 101.867C322.302 101.508 322.082 100.951 322.082 100.197C322.082 99.4604 322.371 98.8943 322.951 98.4985C323.531 98.0935 324.424 97.8726 325.63 97.8358L326.886 97.7944V97.3525C326.886 96.7358 326.753 96.3078 326.486 96.0685C326.219 95.8292 325.842 95.7095 325.354 95.7095C324.967 95.7095 324.599 95.7694 324.249 95.889C323.899 95.9995 323.573 96.1283 323.269 96.2756L322.896 95.3644C323.218 95.1895 323.6 95.0422 324.042 94.9226C324.484 94.7937 324.944 94.7293 325.423 94.7293ZM326.872 98.6366L325.782 98.678C324.861 98.7148 324.222 98.8621 323.863 99.1198C323.513 99.3775 323.338 99.7411 323.338 100.211C323.338 100.625 323.462 100.928 323.711 101.122C323.968 101.315 324.295 101.412 324.691 101.412C325.308 101.412 325.823 101.241 326.237 100.901C326.661 100.551 326.872 100.017 326.872 99.2993V98.6366ZM333.811 94.7155C333.949 94.7155 334.096 94.7247 334.253 94.7431C334.409 94.7523 334.552 94.7707 334.681 94.7983L334.529 95.9166C334.409 95.889 334.276 95.866 334.128 95.8476C333.981 95.8292 333.848 95.82 333.728 95.82C333.351 95.82 332.996 95.9259 332.665 96.1376C332.334 96.3401 332.067 96.63 331.864 97.0074C331.671 97.3756 331.574 97.8082 331.574 98.3052V102.254H330.359V94.8535H331.353L331.491 96.2066H331.547C331.777 95.8016 332.08 95.4518 332.458 95.1573C332.844 94.8627 333.295 94.7155 333.811 94.7155ZM338.416 102.392C337.496 102.392 336.759 102.074 336.207 101.439C335.655 100.795 335.379 99.8377 335.379 98.5675C335.379 97.2973 335.655 96.3401 336.207 95.6957C336.769 95.0422 337.51 94.7155 338.43 94.7155C339.001 94.7155 339.466 94.8213 339.824 95.033C340.193 95.2447 340.492 95.5024 340.722 95.8062H340.805C340.786 95.6865 340.768 95.5117 340.75 95.2815C340.731 95.0422 340.722 94.8535 340.722 94.7155V91.7608H341.937V102.254H340.957L340.777 101.26H340.722C340.501 101.573 340.206 101.84 339.838 102.061C339.47 102.282 338.996 102.392 338.416 102.392ZM338.609 101.384C339.392 101.384 339.94 101.172 340.252 100.749C340.575 100.316 340.736 99.6675 340.736 98.8022V98.5813C340.736 97.6609 340.584 96.9567 340.28 96.4689C339.976 95.9719 339.415 95.7234 338.596 95.7234C337.942 95.7234 337.45 95.9857 337.118 96.5103C336.796 97.0258 336.635 97.7207 336.635 98.5951C336.635 99.4788 336.796 100.164 337.118 100.652C337.45 101.14 337.947 101.384 338.609 101.384Z" fill="#1B77AF"/>
<path d="M354.438 92.3959L350.765 102.254H349.578L353.251 92.3959H354.438Z" fill="black"/>
<path d="M366.817 93.3486C365.759 93.3486 364.926 93.703 364.318 94.4117C363.711 95.1205 363.407 96.0915 363.407 97.3249C363.407 98.5491 363.688 99.5202 364.249 100.238C364.82 100.947 365.671 101.301 366.803 101.301C367.227 101.301 367.632 101.264 368.018 101.191C368.405 101.117 368.787 101.025 369.164 100.915V101.992C368.796 102.13 368.414 102.231 368.018 102.295C367.632 102.36 367.167 102.392 366.624 102.392C365.62 102.392 364.783 102.185 364.111 101.771C363.439 101.356 362.933 100.767 362.592 100.003C362.261 99.2395 362.095 98.342 362.095 97.3111C362.095 96.317 362.275 95.4426 362.634 94.6879C363.002 93.9239 363.54 93.3302 364.249 92.9068C364.958 92.4742 365.818 92.2579 366.831 92.2579C367.871 92.2579 368.778 92.4512 369.551 92.8378L369.054 93.8871C368.75 93.749 368.409 93.6247 368.032 93.5143C367.664 93.4038 367.259 93.3486 366.817 93.3486ZM373.953 94.7293C374.855 94.7293 375.522 94.9272 375.955 95.323C376.387 95.7188 376.604 96.3493 376.604 97.2145V102.254H375.72L375.485 101.205H375.43C375.108 101.61 374.767 101.909 374.408 102.102C374.049 102.295 373.562 102.392 372.945 102.392C372.273 102.392 371.716 102.217 371.274 101.867C370.832 101.508 370.612 100.951 370.612 100.197C370.612 99.4604 370.902 98.8943 371.481 98.4985C372.061 98.0935 372.954 97.8726 374.16 97.8358L375.416 97.7944V97.3525C375.416 96.7358 375.283 96.3078 375.016 96.0685C374.749 95.8292 374.372 95.7095 373.884 95.7095C373.497 95.7095 373.129 95.7694 372.779 95.889C372.429 95.9995 372.103 96.1283 371.799 96.2756L371.426 95.3644C371.748 95.1895 372.13 95.0422 372.572 94.9226C373.014 94.7937 373.474 94.7293 373.953 94.7293ZM375.402 98.6366L374.312 98.678C373.391 98.7148 372.752 98.8621 372.393 99.1198C372.043 99.3775 371.868 99.7411 371.868 100.211C371.868 100.625 371.992 100.928 372.241 101.122C372.498 101.315 372.825 101.412 373.221 101.412C373.838 101.412 374.353 101.241 374.767 100.901C375.191 100.551 375.402 100.017 375.402 99.2993V98.6366ZM380.104 102.254H378.889V91.7608H380.104V102.254ZM385.307 94.7155C385.933 94.7155 386.476 94.8535 386.936 95.1297C387.396 95.4058 387.746 95.797 387.985 96.3032C388.234 96.8003 388.358 97.3848 388.358 98.0567V98.7884H383.291C383.309 99.626 383.521 100.266 383.926 100.708C384.34 101.14 384.916 101.356 385.652 101.356C386.121 101.356 386.536 101.315 386.895 101.232C387.263 101.14 387.64 101.011 388.027 100.846V101.909C387.649 102.074 387.277 102.194 386.908 102.268C386.54 102.351 386.103 102.392 385.597 102.392C384.888 102.392 384.267 102.249 383.733 101.964C383.199 101.679 382.78 101.255 382.476 100.694C382.182 100.132 382.035 99.4373 382.035 98.6089C382.035 97.799 382.168 97.104 382.435 96.5241C382.711 95.9443 383.093 95.4978 383.581 95.1849C384.078 94.8719 384.653 94.7155 385.307 94.7155ZM385.293 95.7095C384.713 95.7095 384.253 95.8982 383.912 96.2756C383.581 96.6438 383.383 97.1592 383.319 97.822H387.088C387.079 97.1961 386.931 96.6898 386.646 96.3032C386.361 95.9074 385.91 95.7095 385.293 95.7095ZM393.804 94.7155C394.688 94.7155 395.355 94.9318 395.806 95.3644C396.257 95.797 396.483 96.4873 396.483 97.4354V102.254H395.282V97.5182C395.282 96.3308 394.729 95.7372 393.625 95.7372C392.806 95.7372 392.239 95.9673 391.926 96.4275C391.614 96.8877 391.457 97.5504 391.457 98.4157V102.254H390.242V94.8535H391.222L391.402 95.8614H391.471C391.71 95.4748 392.042 95.1895 392.465 95.0054C392.888 94.8121 393.335 94.7155 393.804 94.7155ZM401.4 102.392C400.48 102.392 399.743 102.074 399.191 101.439C398.639 100.795 398.363 99.8377 398.363 98.5675C398.363 97.2973 398.639 96.3401 399.191 95.6957C399.753 95.0422 400.493 94.7155 401.414 94.7155C401.985 94.7155 402.449 94.8213 402.808 95.033C403.177 95.2447 403.476 95.5024 403.706 95.8062H403.789C403.77 95.6865 403.752 95.5117 403.733 95.2815C403.715 95.0422 403.706 94.8535 403.706 94.7155V91.7608H404.921V102.254H403.941L403.761 101.26H403.706C403.485 101.573 403.19 101.84 402.822 102.061C402.454 102.282 401.98 102.392 401.4 102.392ZM401.593 101.384C402.376 101.384 402.923 101.172 403.236 100.749C403.559 100.316 403.72 99.6675 403.72 98.8022V98.5813C403.72 97.6609 403.568 96.9567 403.264 96.4689C402.96 95.9719 402.399 95.7234 401.58 95.7234C400.926 95.7234 400.434 95.9857 400.102 96.5103C399.78 97.0258 399.619 97.7207 399.619 98.5951C399.619 99.4788 399.78 100.164 400.102 100.652C400.434 101.14 400.931 101.384 401.593 101.384ZM410.074 94.7293C410.976 94.7293 411.643 94.9272 412.076 95.323C412.509 95.7188 412.725 96.3493 412.725 97.2145V102.254H411.841L411.606 101.205H411.551C411.229 101.61 410.889 101.909 410.53 102.102C410.171 102.295 409.683 102.392 409.066 102.392C408.394 102.392 407.837 102.217 407.395 101.867C406.954 101.508 406.733 100.951 406.733 100.197C406.733 99.4604 407.023 98.8943 407.603 98.4985C408.182 98.0935 409.075 97.8726 410.281 97.8358L411.537 97.7944V97.3525C411.537 96.7358 411.404 96.3078 411.137 96.0685C410.87 95.8292 410.493 95.7095 410.005 95.7095C409.618 95.7095 409.25 95.7694 408.9 95.889C408.551 95.9995 408.224 96.1283 407.92 96.2756L407.547 95.3644C407.869 95.1895 408.251 95.0422 408.693 94.9226C409.135 94.7937 409.595 94.7293 410.074 94.7293ZM411.524 98.6366L410.433 98.678C409.512 98.7148 408.873 98.8621 408.514 99.1198C408.164 99.3775 407.989 99.7411 407.989 100.211C407.989 100.625 408.113 100.928 408.362 101.122C408.62 101.315 408.946 101.412 409.342 101.412C409.959 101.412 410.474 101.241 410.889 100.901C411.312 100.551 411.524 100.017 411.524 99.2993V98.6366ZM418.462 94.7155C418.6 94.7155 418.747 94.7247 418.904 94.7431C419.06 94.7523 419.203 94.7707 419.332 94.7983L419.18 95.9166C419.06 95.889 418.927 95.866 418.78 95.8476C418.632 95.8292 418.499 95.82 418.379 95.82C418.002 95.82 417.648 95.9259 417.316 96.1376C416.985 96.3401 416.718 96.63 416.515 97.0074C416.322 97.3756 416.225 97.8082 416.225 98.3052V102.254H415.01V94.8535H416.005L416.143 96.2066H416.198C416.428 95.8016 416.732 95.4518 417.109 95.1573C417.496 94.8627 417.947 94.7155 418.462 94.7155Z" fill="#1B77AF"/>
<path d="M431.064 92.3959L427.392 102.254H426.204L429.877 92.3959H431.064Z" fill="black"/>
<path d="M444.811 99.6168C444.811 100.491 444.493 101.172 443.858 101.66C443.223 102.148 442.367 102.392 441.29 102.392C440.738 102.392 440.227 102.351 439.758 102.268C439.288 102.185 438.897 102.07 438.584 101.923V100.735C438.915 100.882 439.325 101.016 439.813 101.136C440.31 101.255 440.821 101.315 441.345 101.315C442.073 101.315 442.625 101.172 443.002 100.887C443.38 100.602 443.568 100.215 443.568 99.7273C443.568 99.4051 443.499 99.1336 443.361 98.9127C443.223 98.6918 442.984 98.4893 442.643 98.3052C442.303 98.1211 441.838 97.9186 441.249 97.6977C440.402 97.394 439.767 97.0212 439.343 96.5794C438.92 96.1376 438.708 95.5347 438.708 94.7707C438.708 94.2552 438.842 93.8088 439.109 93.4314C439.376 93.0541 439.744 92.7641 440.213 92.5616C440.683 92.3591 441.23 92.2579 441.856 92.2579C442.39 92.2579 442.882 92.3085 443.334 92.4098C443.785 92.511 444.199 92.6445 444.576 92.8101L444.19 93.8733C443.849 93.726 443.476 93.6017 443.071 93.5005C442.666 93.3992 442.252 93.3486 441.829 93.3486C441.212 93.3486 440.747 93.4821 440.434 93.749C440.121 94.0067 439.965 94.3519 439.965 94.7845C439.965 95.1159 440.034 95.392 440.172 95.6129C440.31 95.8338 440.535 96.0363 440.848 96.2204C441.161 96.3953 441.585 96.5794 442.119 96.7727C442.698 96.9844 443.186 97.2145 443.582 97.463C443.987 97.7023 444.291 97.9922 444.493 98.3328C444.705 98.6734 444.811 99.1014 444.811 99.6168ZM449.599 102.392C448.937 102.392 448.352 102.259 447.846 101.992C447.34 101.725 446.939 101.31 446.645 100.749C446.359 100.188 446.217 99.4696 446.217 98.5951C446.217 97.6839 446.364 96.9429 446.659 96.3723C446.962 95.8016 447.376 95.3828 447.901 95.1159C448.426 94.8489 449.019 94.7155 449.682 94.7155C450.05 94.7155 450.409 94.7569 450.759 94.8397C451.118 94.9134 451.408 95.0054 451.629 95.1159L451.256 96.1237C451.035 96.0409 450.778 95.9627 450.483 95.889C450.188 95.8154 449.912 95.7786 449.655 95.7786C448.2 95.7786 447.473 96.7128 447.473 98.5813C447.473 99.4742 447.648 100.16 447.998 100.639C448.357 101.108 448.886 101.343 449.586 101.343C449.981 101.343 450.336 101.301 450.649 101.218C450.962 101.136 451.247 101.034 451.505 100.915V101.992C451.256 102.12 450.98 102.217 450.676 102.282C450.382 102.355 450.023 102.392 449.599 102.392ZM454.48 91.7608V94.8397C454.48 95.2079 454.457 95.5531 454.411 95.8752H454.493C454.733 95.4978 455.055 95.2125 455.46 95.0192C455.874 94.8259 456.32 94.7293 456.799 94.7293C457.692 94.7293 458.364 94.9456 458.815 95.3782C459.275 95.8016 459.505 96.4873 459.505 97.4354V102.254H458.304V97.5182C458.304 96.3308 457.752 95.7372 456.647 95.7372C455.819 95.7372 455.248 95.9719 454.935 96.4413C454.631 96.9015 454.48 97.5642 454.48 98.4295V102.254H453.265V91.7608H454.48ZM464.657 94.7155C465.283 94.7155 465.826 94.8535 466.287 95.1297C466.747 95.4058 467.097 95.797 467.336 96.3032C467.584 96.8003 467.709 97.3848 467.709 98.0567V98.7884H462.642C462.66 99.626 462.872 100.266 463.277 100.708C463.691 101.14 464.266 101.356 465.003 101.356C465.472 101.356 465.886 101.315 466.245 101.232C466.613 101.14 466.991 101.011 467.377 100.846V101.909C467 102.074 466.627 102.194 466.259 102.268C465.891 102.351 465.454 102.392 464.947 102.392C464.239 102.392 463.617 102.249 463.083 101.964C462.55 101.679 462.131 101.255 461.827 100.694C461.532 100.132 461.385 99.4373 461.385 98.6089C461.385 97.799 461.519 97.104 461.786 96.5241C462.062 95.9443 462.444 95.4978 462.932 95.1849C463.429 94.8719 464.004 94.7155 464.657 94.7155ZM464.644 95.7095C464.064 95.7095 463.603 95.8982 463.263 96.2756C462.932 96.6438 462.734 97.1592 462.669 97.822H466.438C466.429 97.1961 466.282 96.6898 465.997 96.3032C465.711 95.9074 465.26 95.7095 464.644 95.7095ZM472.216 102.392C471.295 102.392 470.559 102.074 470.007 101.439C469.455 100.795 469.178 99.8377 469.178 98.5675C469.178 97.2973 469.455 96.3401 470.007 95.6957C470.568 95.0422 471.309 94.7155 472.23 94.7155C472.8 94.7155 473.265 94.8213 473.624 95.033C473.992 95.2447 474.291 95.5024 474.522 95.8062H474.604C474.586 95.6865 474.568 95.5117 474.549 95.2815C474.531 95.0422 474.522 94.8535 474.522 94.7155V91.7608H475.737V102.254H474.756L474.577 101.26H474.522C474.301 101.573 474.006 101.84 473.638 102.061C473.27 102.282 472.796 102.392 472.216 102.392ZM472.409 101.384C473.192 101.384 473.739 101.172 474.052 100.749C474.374 100.316 474.535 99.6675 474.535 98.8022V98.5813C474.535 97.6609 474.384 96.9567 474.08 96.4689C473.776 95.9719 473.215 95.7234 472.395 95.7234C471.742 95.7234 471.249 95.9857 470.918 96.5103C470.596 97.0258 470.435 97.7207 470.435 98.5951C470.435 99.4788 470.596 100.164 470.918 100.652C471.249 101.14 471.746 101.384 472.409 101.384ZM484.272 94.8535V102.254H483.278L483.099 101.274H483.044C482.804 101.66 482.473 101.946 482.049 102.13C481.626 102.305 481.175 102.392 480.696 102.392C479.804 102.392 479.132 102.18 478.681 101.757C478.23 101.324 478.004 100.639 478.004 99.6997V94.8535H479.233V99.6168C479.233 100.795 479.781 101.384 480.876 101.384C481.695 101.384 482.261 101.154 482.574 100.694C482.896 100.234 483.057 99.5708 483.057 98.7056V94.8535H484.272ZM487.837 102.254H486.622V91.7608H487.837V102.254ZM493.039 94.7155C493.665 94.7155 494.208 94.8535 494.668 95.1297C495.129 95.4058 495.478 95.797 495.718 96.3032C495.966 96.8003 496.091 97.3848 496.091 98.0567V98.7884H491.023C491.042 99.626 491.254 100.266 491.659 100.708C492.073 101.14 492.648 101.356 493.384 101.356C493.854 101.356 494.268 101.315 494.627 101.232C494.995 101.14 495.373 101.011 495.759 100.846V101.909C495.382 102.074 495.009 102.194 494.641 102.268C494.273 102.351 493.835 102.392 493.329 102.392C492.62 102.392 491.999 102.249 491.465 101.964C490.931 101.679 490.513 101.255 490.209 100.694C489.914 100.132 489.767 99.4373 489.767 98.6089C489.767 97.799 489.901 97.104 490.167 96.5241C490.444 95.9443 490.826 95.4978 491.313 95.1849C491.81 94.8719 492.386 94.7155 493.039 94.7155ZM493.025 95.7095C492.446 95.7095 491.985 95.8982 491.645 96.2756C491.313 96.6438 491.116 97.1592 491.051 97.822H494.82C494.811 97.1961 494.664 96.6898 494.378 96.3032C494.093 95.9074 493.642 95.7095 493.025 95.7095ZM509.541 102.254H508.092L502.817 94.0666H502.762C502.781 94.3887 502.804 94.7891 502.831 95.2677C502.859 95.7464 502.873 96.2388 502.873 96.745V102.254H501.727V92.3959H503.163L508.423 100.556H508.478C508.469 100.408 508.455 100.188 508.437 99.893C508.427 99.5984 508.414 99.2809 508.395 98.9403C508.386 98.5905 508.381 98.2638 508.381 97.96V92.3959H509.541V102.254ZM514.909 94.7155C515.535 94.7155 516.078 94.8535 516.538 95.1297C516.998 95.4058 517.348 95.797 517.587 96.3032C517.836 96.8003 517.96 97.3848 517.96 98.0567V98.7884H512.893C512.911 99.626 513.123 100.266 513.528 100.708C513.942 101.14 514.518 101.356 515.254 101.356C515.723 101.356 516.138 101.315 516.497 101.232C516.865 101.14 517.242 101.011 517.629 100.846V101.909C517.251 102.074 516.879 102.194 516.51 102.268C516.142 102.351 515.705 102.392 515.199 102.392C514.49 102.392 513.869 102.249 513.335 101.964C512.801 101.679 512.382 101.255 512.078 100.694C511.784 100.132 511.637 99.4373 511.637 98.6089C511.637 97.799 511.77 97.104 512.037 96.5241C512.313 95.9443 512.695 95.4978 513.183 95.1849C513.68 94.8719 514.255 94.7155 514.909 94.7155ZM514.895 95.7095C514.315 95.7095 513.855 95.8982 513.514 96.2756C513.183 96.6438 512.985 97.1592 512.921 97.822H516.69C516.681 97.1961 516.533 96.6898 516.248 96.3032C515.963 95.9074 515.512 95.7095 514.895 95.7095ZM525.622 102.24L524.351 98.0705C524.232 97.6931 524.126 97.3249 524.034 96.966C523.942 96.607 523.877 96.3216 523.841 96.1099H523.785C523.749 96.3216 523.689 96.607 523.606 96.966C523.523 97.3249 523.417 97.6977 523.288 98.0843L521.963 102.24H520.582L518.553 94.8397H519.809L520.831 98.7884C520.932 99.1842 521.029 99.5846 521.121 99.9896C521.213 100.395 521.277 100.731 521.314 100.997H521.369C521.397 100.841 521.438 100.648 521.493 100.418C521.549 100.188 521.609 99.9482 521.673 99.6997C521.737 99.4419 521.802 99.2118 521.866 99.0093L523.178 94.8397H524.503L525.774 99.0093C525.866 99.3315 525.962 99.6767 526.063 100.045C526.165 100.413 526.234 100.726 526.271 100.984H526.326C526.353 100.754 526.413 100.436 526.505 100.031C526.607 99.626 526.712 99.2118 526.823 98.7884L527.858 94.8397H529.101L527.044 102.24H525.622ZM538.529 102.254L535.285 93.6109H535.23C535.257 93.8963 535.28 94.2829 535.299 94.7707C535.317 95.2493 535.326 95.751 535.326 96.2756V102.254H534.18V92.3959H536.017L539.054 100.473H539.109L542.202 92.3959H544.025V102.254H542.796V96.1928C542.796 95.7141 542.805 95.2401 542.823 94.7707C542.851 94.3013 542.874 93.9193 542.892 93.6247H542.837L539.551 102.254H538.529ZM549.398 94.7155C550.024 94.7155 550.567 94.8535 551.028 95.1297C551.488 95.4058 551.838 95.797 552.077 96.3032C552.325 96.8003 552.45 97.3848 552.45 98.0567V98.7884H547.383C547.401 99.626 547.613 100.266 548.018 100.708C548.432 101.14 549.007 101.356 549.744 101.356C550.213 101.356 550.627 101.315 550.986 101.232C551.354 101.14 551.732 101.011 552.118 100.846V101.909C551.741 102.074 551.368 102.194 551 102.268C550.632 102.351 550.195 102.392 549.688 102.392C548.98 102.392 548.358 102.249 547.825 101.964C547.291 101.679 546.872 101.255 546.568 100.694C546.274 100.132 546.126 99.4373 546.126 98.6089C546.126 97.799 546.26 97.104 546.527 96.5241C546.803 95.9443 547.185 95.4978 547.673 95.1849C548.17 94.8719 548.745 94.7155 549.398 94.7155ZM549.385 95.7095C548.805 95.7095 548.345 95.8982 548.004 96.2756C547.673 96.6438 547.475 97.1592 547.41 97.822H551.18C551.17 97.1961 551.023 96.6898 550.738 96.3032C550.452 95.9074 550.001 95.7095 549.385 95.7095ZM557.192 94.7155C557.818 94.7155 558.361 94.8535 558.821 95.1297C559.281 95.4058 559.631 95.797 559.87 96.3032C560.119 96.8003 560.243 97.3848 560.243 98.0567V98.7884H555.176C555.194 99.626 555.406 100.266 555.811 100.708C556.225 101.14 556.8 101.356 557.537 101.356C558.006 101.356 558.42 101.315 558.779 101.232C559.148 101.14 559.525 101.011 559.912 100.846V101.909C559.534 102.074 559.161 102.194 558.793 102.268C558.425 102.351 557.988 102.392 557.482 102.392C556.773 102.392 556.152 102.249 555.618 101.964C555.084 101.679 554.665 101.255 554.361 100.694C554.067 100.132 553.919 99.4373 553.919 98.6089C553.919 97.799 554.053 97.104 554.32 96.5241C554.596 95.9443 554.978 95.4978 555.466 95.1849C555.963 94.8719 556.538 94.7155 557.192 94.7155ZM557.178 95.7095C556.598 95.7095 556.138 95.8982 555.797 96.2756C555.466 96.6438 555.268 97.1592 555.204 97.822H558.973C558.964 97.1961 558.816 96.6898 558.531 96.3032C558.246 95.9074 557.795 95.7095 557.178 95.7095ZM564.598 101.398C564.782 101.398 564.971 101.384 565.164 101.356C565.358 101.329 565.514 101.292 565.634 101.246V102.171C565.505 102.235 565.321 102.286 565.082 102.323C564.842 102.369 564.612 102.392 564.391 102.392C564.005 102.392 563.646 102.328 563.314 102.199C562.992 102.061 562.73 101.826 562.527 101.495C562.325 101.163 562.224 100.698 562.224 100.1V95.7924H561.174V95.2125L562.237 94.7293L562.721 93.1553H563.439V94.8535H565.579V95.7924H563.439V100.072C563.439 100.523 563.544 100.859 563.756 101.08C563.977 101.292 564.258 101.398 564.598 101.398ZM567.737 92.0784C567.921 92.0784 568.082 92.1428 568.22 92.2717C568.367 92.3913 568.441 92.5846 568.441 92.8516C568.441 93.1185 568.367 93.3164 568.22 93.4453C568.082 93.5649 567.921 93.6247 567.737 93.6247C567.534 93.6247 567.364 93.5649 567.226 93.4453C567.088 93.3164 567.019 93.1185 567.019 92.8516C567.019 92.5846 567.088 92.3913 567.226 92.2717C567.364 92.1428 567.534 92.0784 567.737 92.0784ZM568.331 94.8535V102.254H567.116V94.8535H568.331ZM574.237 94.7155C575.121 94.7155 575.788 94.9318 576.239 95.3644C576.69 95.797 576.916 96.4873 576.916 97.4354V102.254H575.715V97.5182C575.715 96.3308 575.162 95.7372 574.058 95.7372C573.239 95.7372 572.673 95.9673 572.36 96.4275C572.047 96.8877 571.89 97.5504 571.89 98.4157V102.254H570.675V94.8535H571.655L571.835 95.8614H571.904C572.143 95.4748 572.475 95.1895 572.898 95.0054C573.321 94.8121 573.768 94.7155 574.237 94.7155ZM581.833 94.7155C582.321 94.7155 582.758 94.8075 583.145 94.9916C583.541 95.1757 583.877 95.4564 584.153 95.8338H584.222L584.387 94.8535H585.354V102.378C585.354 103.437 585.082 104.233 584.539 104.767C584.005 105.301 583.172 105.568 582.04 105.568C580.954 105.568 580.066 105.411 579.376 105.098V103.98C580.103 104.366 581.014 104.56 582.109 104.56C582.744 104.56 583.242 104.371 583.6 103.994C583.969 103.625 584.153 103.119 584.153 102.475V102.185C584.153 102.074 584.157 101.918 584.167 101.715C584.176 101.504 584.185 101.356 584.194 101.274H584.139C583.642 102.019 582.878 102.392 581.847 102.392C580.89 102.392 580.14 102.056 579.597 101.384C579.063 100.712 578.796 99.7733 578.796 98.5675C578.796 97.3894 579.063 96.4551 579.597 95.7648C580.14 95.0652 580.885 94.7155 581.833 94.7155ZM581.999 95.7372C581.382 95.7372 580.904 95.9857 580.563 96.4827C580.222 96.9706 580.052 97.6701 580.052 98.5813C580.052 99.4926 580.218 100.192 580.549 100.68C580.881 101.159 581.373 101.398 582.027 101.398C582.772 101.398 583.315 101.2 583.656 100.804C583.996 100.399 584.167 99.7503 584.167 98.8575V98.5675C584.167 97.5642 583.992 96.8417 583.642 96.3999C583.292 95.9581 582.744 95.7372 581.999 95.7372ZM592.523 100.211C592.523 100.928 592.256 101.472 591.722 101.84C591.188 102.208 590.47 102.392 589.568 102.392C589.053 102.392 588.606 102.351 588.229 102.268C587.861 102.185 587.534 102.07 587.249 101.923V100.818C587.543 100.965 587.898 101.103 588.312 101.232C588.735 101.352 589.163 101.412 589.596 101.412C590.213 101.412 590.659 101.315 590.935 101.122C591.211 100.919 591.349 100.652 591.349 100.321C591.349 100.137 591.299 99.9712 591.197 99.8239C591.096 99.6767 590.912 99.5294 590.645 99.3821C590.387 99.2348 590.015 99.0692 589.527 98.8851C589.048 98.701 588.639 98.5169 588.298 98.3328C587.957 98.1487 587.695 97.9278 587.511 97.6701C587.327 97.4124 587.235 97.081 587.235 96.676C587.235 96.0501 587.488 95.5669 587.994 95.2263C588.51 94.8857 589.182 94.7155 590.01 94.7155C590.461 94.7155 590.88 94.7615 591.266 94.8535C591.662 94.9456 592.03 95.0652 592.371 95.2125L591.957 96.179C591.644 96.0501 591.317 95.9397 590.976 95.8476C590.636 95.7556 590.286 95.7095 589.927 95.7095C589.43 95.7095 589.048 95.7924 588.781 95.9581C588.523 96.1145 588.395 96.3308 588.395 96.607C588.395 96.8187 588.454 96.9936 588.574 97.1316C588.694 97.2697 588.892 97.4078 589.168 97.5458C589.453 97.6839 589.831 97.8404 590.3 98.0153C590.769 98.1901 591.17 98.3696 591.501 98.5537C591.832 98.7378 592.086 98.9633 592.26 99.2302C592.435 99.488 592.523 99.8147 592.523 100.211Z" fill="black"/>
<rect x="716.443" y="83.8038" width="54.5267" height="25.9" rx="1.09" fill="white"/>
<path d="M731.806 93.6921C731.026 93.6921 730.413 93.9532 729.965 94.4755C729.517 94.9977 729.294 95.7132 729.294 96.622C729.294 97.5241 729.5 98.2396 729.914 98.7686C730.335 99.2908 730.962 99.5519 731.796 99.5519C732.108 99.5519 732.407 99.5248 732.691 99.4706C732.976 99.4163 733.258 99.3485 733.536 99.2671V100.061C733.265 100.162 732.983 100.237 732.691 100.284C732.407 100.332 732.064 100.356 731.664 100.356C730.925 100.356 730.308 100.203 729.812 99.8978C729.317 99.5926 728.944 99.1586 728.693 98.5957C728.449 98.0327 728.327 97.3715 728.327 96.6119C728.327 95.8794 728.459 95.2351 728.724 94.6789C728.995 94.116 729.392 93.6785 729.914 93.3666C730.436 93.0478 731.071 92.8884 731.817 92.8884C732.583 92.8884 733.251 93.0308 733.821 93.3157L733.454 94.0889C733.231 93.9871 732.98 93.8956 732.702 93.8142C732.43 93.7328 732.132 93.6921 731.806 93.6921ZM737.064 94.7094C737.729 94.7094 738.221 94.8553 738.539 95.1469C738.858 95.4385 739.018 95.9031 739.018 96.5406V100.254H738.367L738.194 99.4807H738.153C737.916 99.7792 737.665 99.9996 737.4 100.142C737.136 100.284 736.776 100.356 736.322 100.356C735.827 100.356 735.416 100.227 735.091 99.9691C734.765 99.7045 734.602 99.2942 734.602 98.7381C734.602 98.1955 734.816 97.7784 735.243 97.4868C735.671 97.1883 736.328 97.0256 737.217 96.9984L738.143 96.9679V96.6424C738.143 96.188 738.044 95.8726 737.848 95.6963C737.651 95.5199 737.373 95.4317 737.013 95.4317C736.729 95.4317 736.457 95.4758 736.2 95.564C735.942 95.6454 735.701 95.7403 735.477 95.8489L735.203 95.1774C735.44 95.0486 735.721 94.94 736.047 94.8519C736.373 94.7569 736.712 94.7094 737.064 94.7094ZM738.133 97.5885L737.329 97.619C736.651 97.6461 736.179 97.7547 735.915 97.9446C735.657 98.1345 735.528 98.4024 735.528 98.7483C735.528 99.0535 735.62 99.2773 735.803 99.4197C735.993 99.5621 736.234 99.6333 736.525 99.6333C736.98 99.6333 737.359 99.5079 737.665 99.2569C737.977 98.9992 738.133 98.6058 738.133 98.0768V97.5885ZM743.327 94.6993C743.978 94.6993 744.469 94.8586 744.802 95.1774C745.134 95.4962 745.3 96.0048 745.3 96.7034V100.254H744.415V96.7645C744.415 95.8895 744.008 95.4521 743.194 95.4521C742.591 95.4521 742.174 95.6216 741.943 95.9608C741.712 96.2999 741.597 96.7882 741.597 97.4257V100.254H740.702V94.801H741.424L741.556 95.5437H741.607C741.784 95.2588 742.028 95.0486 742.34 94.9129C742.652 94.7705 742.981 94.6993 743.327 94.6993ZM749.178 100.356C748.69 100.356 748.259 100.257 747.886 100.061C747.513 99.8639 747.218 99.5587 747.001 99.145C746.79 98.7313 746.685 98.2023 746.685 97.558C746.685 96.8865 746.794 96.3406 747.011 95.9201C747.235 95.4996 747.54 95.191 747.927 94.9943C748.313 94.7976 748.751 94.6993 749.239 94.6993C749.51 94.6993 749.775 94.7298 750.032 94.7908C750.297 94.8451 750.511 94.9129 750.673 94.9943L750.399 95.7369C750.236 95.6759 750.046 95.6183 749.829 95.564C749.612 95.5097 749.408 95.4826 749.219 95.4826C748.147 95.4826 747.611 96.171 747.611 97.5478C747.611 98.2057 747.74 98.711 747.998 99.0636C748.262 99.4095 748.652 99.5825 749.168 99.5825C749.459 99.5825 749.72 99.5519 749.951 99.4909C750.182 99.4299 750.392 99.3553 750.582 99.2671V100.061C750.399 100.156 750.195 100.227 749.971 100.274C749.754 100.329 749.49 100.356 749.178 100.356ZM753.984 94.6993C754.446 94.6993 754.846 94.801 755.185 95.0045C755.524 95.2079 755.782 95.4962 755.958 95.8692C756.141 96.2354 756.233 96.6661 756.233 97.1612V97.7004H752.499C752.513 98.3176 752.669 98.7889 752.967 99.1145C753.272 99.4333 753.696 99.5926 754.239 99.5926C754.585 99.5926 754.89 99.5621 755.154 99.5011C755.426 99.4333 755.704 99.3383 755.989 99.2162V99.9996C755.71 100.122 755.436 100.21 755.165 100.264C754.893 100.325 754.571 100.356 754.198 100.356C753.676 100.356 753.218 100.251 752.825 100.04C752.431 99.83 752.123 99.518 751.899 99.1043C751.682 98.6906 751.573 98.1785 751.573 97.5681C751.573 96.9713 751.672 96.4593 751.868 96.032C752.072 95.6047 752.353 95.2758 752.713 95.0452C753.079 94.8146 753.503 94.6993 753.984 94.6993ZM753.974 95.4317C753.547 95.4317 753.208 95.5708 752.957 95.8489C752.713 96.1201 752.567 96.4999 752.519 96.9883H755.297C755.29 96.5271 755.181 96.1541 754.971 95.8692C754.761 95.5776 754.429 95.4317 753.974 95.4317ZM758.516 100.254H757.621V92.5222H758.516V100.254Z" fill="#1B77AF"/>
<rect x="716.443" y="83.8038" width="54.5267" height="25.9" rx="1.09" stroke="#1B77AF" stroke-width="0.726667"/>
<rect x="777.146" y="83.4404" width="55.2267" height="26.6267" rx="1.45333" fill="#ABD8F1"/>
<path d="M798.367 98.3108C798.367 98.9551 798.133 99.457 797.665 99.8165C797.197 100.176 796.566 100.356 795.773 100.356C795.366 100.356 794.989 100.325 794.643 100.264C794.297 100.203 794.009 100.118 793.779 100.01V99.1348C794.023 99.2434 794.325 99.3417 794.684 99.4299C795.05 99.518 795.427 99.5621 795.813 99.5621C796.349 99.5621 796.756 99.457 797.034 99.2467C797.312 99.0365 797.451 98.7516 797.451 98.3922C797.451 98.1548 797.4 97.9547 797.299 97.792C797.197 97.6292 797.021 97.48 796.77 97.3443C796.519 97.2087 796.176 97.0595 795.742 96.8967C795.118 96.6729 794.65 96.3982 794.338 96.0727C794.026 95.7471 793.87 95.3029 793.87 94.74C793.87 94.3602 793.969 94.0312 794.165 93.7531C794.362 93.4751 794.633 93.2614 794.979 93.1122C795.325 92.963 795.728 92.8884 796.19 92.8884C796.583 92.8884 796.946 92.9257 797.278 93.0003C797.611 93.0749 797.916 93.1733 798.194 93.2953L797.909 94.0787C797.658 93.9702 797.383 93.8786 797.085 93.804C796.787 93.7294 796.481 93.6921 796.169 93.6921C795.715 93.6921 795.372 93.7904 795.142 93.9871C794.911 94.177 794.796 94.4314 794.796 94.7501C794.796 94.9943 794.847 95.1978 794.949 95.3605C795.05 95.5233 795.216 95.6725 795.447 95.8082C795.678 95.937 795.99 96.0727 796.383 96.2151C796.81 96.3711 797.17 96.5406 797.461 96.7238C797.76 96.9001 797.984 97.1137 798.133 97.3647C798.289 97.6156 798.367 97.931 798.367 98.3108ZM801.773 94.7094C802.438 94.7094 802.929 94.8553 803.248 95.1469C803.567 95.4385 803.726 95.9031 803.726 96.5406V100.254H803.075L802.902 99.4807H802.862C802.624 99.7792 802.373 99.9996 802.109 100.142C801.844 100.284 801.485 100.356 801.03 100.356C800.535 100.356 800.125 100.227 799.799 99.9691C799.474 99.7045 799.311 99.2942 799.311 98.7381C799.311 98.1955 799.525 97.7784 799.952 97.4868C800.379 97.1883 801.037 97.0256 801.926 96.9984L802.851 96.9679V96.6424C802.851 96.188 802.753 95.8726 802.556 95.6963C802.36 95.5199 802.082 95.4317 801.722 95.4317C801.437 95.4317 801.166 95.4758 800.908 95.564C800.651 95.6454 800.41 95.7403 800.186 95.8489L799.911 95.1774C800.149 95.0486 800.43 94.94 800.756 94.8519C801.081 94.7569 801.42 94.7094 801.773 94.7094ZM802.841 97.5885L802.038 97.619C801.359 97.6461 800.888 97.7547 800.624 97.9446C800.366 98.1345 800.237 98.4024 800.237 98.7483C800.237 99.0535 800.328 99.2773 800.512 99.4197C800.702 99.5621 800.942 99.6333 801.234 99.6333C801.688 99.6333 802.068 99.5079 802.373 99.2569C802.685 98.9992 802.841 98.6058 802.841 98.0768V97.5885ZM806.611 100.254L804.546 94.801H805.502L806.662 98.0158C806.716 98.165 806.774 98.3311 806.835 98.5143C806.896 98.6974 806.95 98.8737 806.998 99.0433C807.045 99.2128 807.079 99.3519 807.099 99.4604H807.14C807.16 99.3519 807.198 99.2128 807.252 99.0433C807.306 98.8669 807.364 98.6906 807.425 98.5143C807.486 98.3311 807.544 98.165 807.598 98.0158L808.758 94.801H809.714L807.638 100.254H806.611ZM812.683 94.6993C813.144 94.6993 813.544 94.801 813.883 95.0045C814.222 95.2079 814.48 95.4962 814.656 95.8692C814.839 96.2354 814.931 96.6661 814.931 97.1612V97.7004H811.197C811.211 98.3176 811.367 98.7889 811.665 99.1145C811.97 99.4333 812.394 99.5926 812.937 99.5926C813.283 99.5926 813.588 99.5621 813.852 99.5011C814.124 99.4333 814.402 99.3383 814.687 99.2162V99.9996C814.409 100.122 814.134 100.21 813.863 100.264C813.591 100.325 813.269 100.356 812.896 100.356C812.374 100.356 811.916 100.251 811.523 100.04C811.129 99.83 810.821 99.518 810.597 99.1043C810.38 98.6906 810.271 98.1785 810.271 97.5681C810.271 96.9713 810.37 96.4593 810.567 96.032C810.77 95.6047 811.051 95.2758 811.411 95.0452C811.777 94.8146 812.201 94.6993 812.683 94.6993ZM812.672 95.4317C812.245 95.4317 811.906 95.5708 811.655 95.8489C811.411 96.1201 811.265 96.4999 811.218 96.9883H813.995C813.988 96.5271 813.88 96.1541 813.669 95.8692C813.459 95.5776 813.127 95.4317 812.672 95.4317Z" fill="white"/>
<rect x="271.973" y="127.854" width="199.306" height="24.2879" rx="1.04091" fill="white"/>
<rect x="271.973" y="127.854" width="199.306" height="24.2879" rx="1.04091" stroke="#C9C9C9" stroke-width="0.693941"/>
<rect x="483.77" y="127.854" width="199.306" height="24.2879" rx="1.04091" fill="white"/>
<rect x="483.77" y="127.854" width="199.306" height="24.2879" rx="1.04091" stroke="#C9C9C9" stroke-width="0.693941"/>
<rect x="271.973" y="170.276" width="199.306" height="24.2879" rx="1.04091" fill="white"/>
<rect x="271.973" y="170.276" width="199.306" height="24.2879" rx="1.04091" stroke="#C9C9C9" stroke-width="0.693941"/>
<rect x="483.77" y="170.276" width="199.306" height="24.2879" rx="1.04091" fill="white"/>
<rect x="483.77" y="170.276" width="199.306" height="24.2879" rx="1.04091" stroke="#C9C9C9" stroke-width="0.693941"/>
</g>
</g>
<defs>
<filter id="filter0_d_8669_366915" x="44" y="-4" width="816" height="216" filterUnits="userSpaceOnUse" color-interpolation-filters="sRGB">
<feFlood flood-opacity="0" result="BackgroundImageFix"/>
<feColorMatrix in="SourceAlpha" type="matrix" values="0 0 0 0 0 0 0 0 0 0 0 0 0 0 0 0 0 0 127 0" result="hardAlpha"/>
<feOffset dy="4"/>
<feGaussianBlur stdDeviation="4"/>
<feColorMatrix type="matrix" values="0 0 0 0 0 0 0 0 0 0 0 0 0 0 0 0 0 0 0.25 0"/>
<feBlend mode="normal" in2="BackgroundImageFix" result="effect1_dropShadow_8669_366915"/>
<feBlend mode="normal" in="SourceGraphic" in2="effect1_dropShadow_8669_366915" result="shape"/>
</filter>
<filter id="filter1_i_8669_366915" x="52" y="58" width="200" height="516" filterUnits="userSpaceOnUse" color-interpolation-filters="sRGB">
<feFlood flood-opacity="0" result="BackgroundImageFix"/>
<feBlend mode="normal" in="SourceGraphic" in2="BackgroundImageFix" result="shape"/>
<feColorMatrix in="SourceAlpha" type="matrix" values="0 0 0 0 0 0 0 0 0 0 0 0 0 0 0 0 0 0 127 0" result="hardAlpha"/>
<feOffset dx="-1"/>
<feComposite in2="hardAlpha" operator="arithmetic" k2="-1" k3="1"/>
<feColorMatrix type="matrix" values="0 0 0 0 0.788235 0 0 0 0 0.788235 0 0 0 0 0.788235 0 0 0 1 0"/>
<feBlend mode="normal" in2="shape" result="effect1_innerShadow_8669_366915"/>
</filter>
<filter id="filter2_i_8669_366915" x="52" y="0" width="800" height="58" filterUnits="userSpaceOnUse" color-interpolation-filters="sRGB">
<feFlood flood-opacity="0" result="BackgroundImageFix"/>
<feBlend mode="normal" in="SourceGraphic" in2="BackgroundImageFix" result="shape"/>
<feColorMatrix in="SourceAlpha" type="matrix" values="0 0 0 0 0 0 0 0 0 0 0 0 0 0 0 0 0 0 127 0" result="hardAlpha"/>
<feOffset dy="-1"/>
<feComposite in2="hardAlpha" operator="arithmetic" k2="-1" k3="1"/>
<feColorMatrix type="matrix" values="0 0 0 0 0.788235 0 0 0 0 0.788235 0 0 0 0 0.788235 0 0 0 1 0"/>
<feBlend mode="normal" in2="shape" result="effect1_innerShadow_8669_366915"/>
</filter>
<clipPath id="clip0_8669_366915">
<rect width="904" height="200" rx="4" fill="white"/>
</clipPath>
<clipPath id="clip1_8669_366915">
<rect width="800" height="200" fill="white" transform="translate(52)"/>
</clipPath>
<clipPath id="clip2_8669_366915">
<rect x="52" width="800" height="574" rx="8" fill="white"/>
</clipPath>
<clipPath id="clip3_8669_366915">
<rect width="40.0001" height="36.6667" fill="white" transform="translate(796 9)"/>
</clipPath>
</defs>
</svg>
