<svg width="904" height="210" viewBox="0 0 904 210" fill="none" xmlns="http://www.w3.org/2000/svg">
<rect width="904" height="210" fill="white"/>
<rect x="293" y="62" width="300" height="44" rx="4" fill="#F1F1F1"/>
<path d="M524.2 85.4553H528.575C528.711 85.4553 528.842 85.4012 528.938 85.3048C529.035 85.2085 529.089 85.0778 529.089 84.9416C529.089 84.8053 529.035 84.6747 528.938 84.5783C528.842 84.482 528.711 84.4278 528.575 84.4278H524.2C524.064 84.4278 523.933 84.482 523.836 84.5783C523.74 84.6747 523.686 84.8053 523.686 84.9416C523.686 85.0778 523.74 85.2085 523.836 85.3048C523.933 85.4012 524.064 85.4553 524.2 85.4553Z" fill="#1B77AF"/>
<path d="M538.086 83.4757C537.95 83.4775 537.82 83.5322 537.724 83.6282C537.628 83.7241 537.573 83.8538 537.571 83.9895V85.8663C537.571 86.0479 537.499 86.2222 537.37 86.3506C537.242 86.4791 537.067 86.5512 536.886 86.5512H536.392V85.2156C536.392 85.0793 536.338 84.9486 536.241 84.8523C536.145 84.756 536.014 84.7018 535.878 84.7018C535.741 84.7018 535.61 84.756 535.514 84.8523C535.418 84.9486 535.363 85.0793 535.363 85.2156V88.0993C535.363 88.2809 535.291 88.4552 535.162 88.5836C535.034 88.7121 534.859 88.7842 534.678 88.7842H527.82C527.684 88.7844 527.553 88.8386 527.457 88.9349L524.563 91.8255V89.2843C524.558 89.151 524.502 89.0248 524.406 88.9317C524.31 88.8387 524.183 88.7859 524.049 88.7842H521.121C520.939 88.7842 520.765 88.7121 520.636 88.5836C520.508 88.4552 520.435 88.2809 520.435 88.0993V78.3316C520.435 78.15 520.508 77.9757 520.636 77.8473C520.765 77.7188 520.939 77.6467 521.121 77.6467H527.752C527.888 77.6467 528.019 77.5925 528.116 77.4962C528.212 77.3998 528.266 77.2692 528.266 77.1329C528.266 76.9967 528.212 76.866 528.116 76.7697C528.019 76.6733 527.888 76.6192 527.752 76.6192H522.65V76.1123C522.65 75.9307 522.722 75.7564 522.851 75.628C522.98 75.4995 523.154 75.4274 523.336 75.4274H529.343C529.479 75.4274 529.61 75.3732 529.706 75.2769C529.803 75.1805 529.857 75.0499 529.857 74.9136C529.857 74.7774 529.803 74.6467 529.706 74.5504C529.61 74.454 529.479 74.3999 529.343 74.3999H523.343C522.887 74.3999 522.451 74.5801 522.128 74.901C521.806 75.222 521.623 75.6575 521.622 76.1123V76.6124H521.121C520.665 76.6142 520.228 76.7959 519.906 77.1179C519.584 77.4399 519.402 77.8762 519.4 78.3316V88.0993C519.402 88.5547 519.584 88.991 519.906 89.313C520.228 89.635 520.665 89.8167 521.121 89.8185H523.514V93.0858C523.514 93.1871 523.543 93.2862 523.599 93.3704C523.656 93.4547 523.736 93.5202 523.83 93.5585C523.923 93.5989 524.027 93.6101 524.128 93.5905C524.228 93.571 524.32 93.5216 524.392 93.4489L528.019 89.8254H534.63C534.859 89.829 535.086 89.7871 535.299 89.7019C535.512 89.6168 535.706 89.4903 535.869 89.3296C536.033 89.169 536.162 88.9774 536.251 88.7662C536.339 88.555 536.385 88.3283 536.385 88.0993V87.5992H536.879C537.106 87.5993 537.331 87.5543 537.541 87.4671C537.75 87.3798 537.941 87.252 538.101 87.0908C538.261 86.9297 538.387 86.7386 538.473 86.5284C538.559 86.3182 538.602 86.0932 538.6 85.8663V83.9895C538.598 83.8538 538.543 83.7241 538.447 83.6282C538.351 83.5322 538.221 83.4775 538.086 83.4757Z" fill="#1B77AF"/>
<path d="M533.971 83.647C534.887 83.647 535.782 83.3758 536.543 82.8678C537.304 82.3597 537.897 81.6376 538.248 80.7928C538.598 79.948 538.69 79.0183 538.511 78.1214C538.332 77.2246 537.892 76.4007 537.244 75.7541C536.597 75.1075 535.772 74.6671 534.874 74.4887C533.976 74.3103 533.046 74.4019 532.2 74.7519C531.354 75.1018 530.631 75.6944 530.123 76.4547C529.614 77.2151 529.343 78.109 529.343 79.0234C529.343 80.2497 529.83 81.4257 530.698 82.2928C531.566 83.1599 532.744 83.647 533.971 83.647ZM531.489 79.0097C531.536 78.9613 531.593 78.9228 531.655 78.8965C531.718 78.8702 531.785 78.8566 531.852 78.8566C531.92 78.8566 531.987 78.8702 532.05 78.8965C532.112 78.9228 532.169 78.9613 532.216 79.0097L533.361 80.1468L535.672 77.0576C535.754 76.9486 535.876 76.8765 536.011 76.8573C536.146 76.838 536.283 76.8731 536.392 76.9548C536.447 76.9947 536.493 77.0452 536.528 77.1032C536.563 77.1613 536.586 77.2257 536.595 77.2928C536.605 77.3598 536.601 77.4281 536.584 77.4936C536.566 77.5591 536.536 77.6204 536.495 77.6741L533.8 81.2496C533.758 81.3095 533.702 81.3591 533.638 81.3947C533.574 81.4303 533.503 81.4509 533.43 81.4551H533.388C533.321 81.4566 533.253 81.444 533.191 81.418C533.128 81.3921 533.072 81.3534 533.025 81.3044L531.489 79.7358C531.393 79.6395 531.339 79.5089 531.339 79.3728C531.339 79.2366 531.393 79.1061 531.489 79.0097Z" fill="#1B77AF"/>
<path d="M528.376 82.2428C528.512 82.2428 528.643 82.1887 528.74 82.0923C528.836 81.996 528.89 81.8653 528.89 81.7291C528.89 81.5928 528.836 81.4621 528.74 81.3658C528.643 81.2695 528.512 81.2153 528.376 81.2153H524.2C524.064 81.2153 523.933 81.2695 523.836 81.3658C523.74 81.4621 523.686 81.5928 523.686 81.7291C523.686 81.8653 523.74 81.996 523.836 82.0923C523.933 82.1887 524.064 82.2428 524.2 82.2428H528.376Z" fill="#1B77AF"/>
<path d="M571.864 87.4628C571.583 87.4628 571.35 87.6959 571.35 87.977V88.0936C571.35 88.4776 571.041 88.7862 570.657 88.7862H563.855C563.718 88.7862 563.574 88.8273 563.471 88.9302L561.907 90.4936C561.907 90.4936 561.907 90.5073 561.894 90.5073L560.563 91.8376V89.2936C560.563 89.0125 560.33 88.7793 560.049 88.7793H557.114C556.737 88.7793 556.428 88.4708 556.428 88.0868V78.329C556.428 77.9519 556.737 77.6433 557.114 77.6433H564.177C564.458 77.6433 564.691 77.4102 564.691 77.129C564.691 76.8479 564.458 76.6148 564.177 76.6148H558.643V76.1142C558.643 75.737 558.952 75.4285 559.336 75.4285H564.177C564.458 75.4285 564.691 75.1953 564.691 74.9142C564.691 74.633 564.458 74.3999 564.177 74.3999H559.336C558.39 74.3999 557.615 75.1679 557.615 76.1142V76.6148H557.114C556.168 76.6148 555.4 77.3828 555.4 78.329V88.0936C555.4 89.0399 556.168 89.8148 557.114 89.8148H559.535V93.0856C559.535 93.2913 559.658 93.4833 559.85 93.5588C559.912 93.5862 559.98 93.5999 560.049 93.5999C560.179 93.5999 560.316 93.545 560.412 93.449L564.047 89.8148H570.657C571.603 89.8148 572.378 89.0399 572.378 88.0936V87.977C572.378 87.6959 572.145 87.4628 571.864 87.4628Z" fill="#1B77AF"/>
<path d="M574.449 77.8902L571.11 74.5508C570.911 74.3519 570.582 74.3519 570.383 74.5508L567.043 77.8902C566.844 78.089 566.844 78.4182 567.043 78.617C567.242 78.8159 567.571 78.8159 567.77 78.617L570.232 76.1553V82.793C570.232 83.0742 570.465 83.3073 570.746 83.3073C571.027 83.3073 571.26 83.0742 571.26 82.793V76.1553L573.722 78.617C573.825 78.7199 573.955 78.7679 574.086 78.7679C574.216 78.7679 574.346 78.7199 574.449 78.617C574.648 78.4182 574.648 78.089 574.449 77.8902Z" fill="#1B77AF"/>
<path d="M563.868 84.4388H560.179C559.898 84.4388 559.665 84.6719 559.665 84.953C559.665 85.2342 559.898 85.4673 560.179 85.4673H563.868C564.15 85.4673 564.383 85.2342 564.383 84.953C564.383 84.6719 564.15 84.4388 563.868 84.4388Z" fill="#1B77AF"/>
<path d="M563.868 81.2228H560.179C559.898 81.2228 559.665 81.4559 559.665 81.737C559.665 82.0182 559.898 82.2513 560.179 82.2513H563.868C564.15 82.2513 564.383 82.0182 564.383 81.737C564.383 81.4559 564.15 81.2228 563.868 81.2228Z" fill="#1B77AF"/>
<path d="M311.75 84.4684C311.601 84.4684 311.458 84.5275 311.352 84.6329C311.247 84.7383 311.188 84.8812 311.188 85.0302C311.188 85.1793 311.247 85.3222 311.352 85.4276C311.458 85.5329 311.601 85.5921 311.75 85.5921H316.528C316.677 85.5921 316.82 85.5329 316.925 85.4276C317.031 85.3222 317.09 85.1793 317.09 85.0302C317.09 84.8812 317.031 84.7383 316.925 84.6329C316.82 84.5275 316.677 84.4684 316.528 84.4684H311.75Z" fill="black"/>
<path d="M325.618 73.5H310.805C310.307 73.5 309.829 73.6971 309.477 74.0481C309.124 74.3992 308.924 74.8756 308.923 75.373V75.9199H308.383C307.883 75.9199 307.404 76.118 307.051 76.4707C306.698 76.8233 306.5 77.3017 306.5 77.8004V88.4839C306.5 88.9827 306.698 89.461 307.051 89.8136C307.404 90.1663 307.883 90.3644 308.383 90.3644H311V93.9381C310.999 94.0488 311.032 94.1573 311.093 94.2494C311.155 94.3415 311.242 94.4131 311.345 94.455C311.414 94.4843 311.488 94.4996 311.563 94.5C311.711 94.4983 311.854 94.4392 311.96 94.3352L315.928 90.3719H323.165C323.415 90.3759 323.663 90.3299 323.895 90.2367C324.127 90.1434 324.338 90.0047 324.516 89.8288C324.693 89.6529 324.834 89.4433 324.929 89.2123C325.024 88.9814 325.072 88.7337 325.07 88.4839V87.937H325.618C325.866 87.937 326.112 87.8879 326.341 87.7925C326.571 87.697 326.779 87.5572 326.954 87.381C327.129 87.2048 327.267 86.9957 327.361 86.7658C327.455 86.5359 327.502 86.2898 327.5 86.0416V75.373C327.498 74.8756 327.299 74.3992 326.946 74.0481C326.593 73.6971 326.115 73.5 325.618 73.5ZM323.945 88.4839C323.945 88.6826 323.866 88.8732 323.725 89.0137C323.585 89.1542 323.394 89.2331 323.195 89.2331H315.695C315.546 89.2333 315.403 89.2926 315.298 89.398L312.148 92.5596V89.7801C312.142 89.6343 312.08 89.4962 311.976 89.3945C311.871 89.2927 311.731 89.2349 311.585 89.2331H308.383C308.184 89.2331 307.993 89.1542 307.852 89.0137C307.712 88.8732 307.633 88.6826 307.633 88.4839V77.8004C307.633 77.6017 307.712 77.4111 307.852 77.2706C307.993 77.1301 308.184 77.0512 308.383 77.0512H323.195C323.394 77.0512 323.585 77.1301 323.725 77.2706C323.866 77.4111 323.945 77.6017 323.945 77.8004V88.4839ZM326.375 86.0416C326.375 86.2403 326.296 86.4308 326.155 86.5713C326.015 86.7118 325.824 86.7908 325.625 86.7908H325.078V77.8004C325.078 77.303 324.88 76.8258 324.529 76.4733C324.177 76.1209 323.7 75.9219 323.203 75.9199H310.048V75.373C310.048 75.1743 310.127 74.9837 310.267 74.8432C310.408 74.7027 310.599 74.6238 310.798 74.6238H325.618C325.816 74.6238 326.007 74.7027 326.148 74.8432C326.288 74.9837 326.368 75.1743 326.368 75.373L326.375 86.0416Z" fill="black"/>
<path d="M311.75 80.992C311.601 80.992 311.458 81.0512 311.352 81.1565C311.247 81.2619 311.188 81.4048 311.188 81.5539C311.188 81.7029 311.247 81.8458 311.352 81.9512C311.458 82.0566 311.601 82.1158 311.75 82.1158H319.85C319.999 82.1158 320.142 82.0566 320.248 81.9512C320.353 81.8458 320.413 81.7029 320.413 81.5539C320.413 81.4048 320.353 81.2619 320.248 81.1565C320.142 81.0512 319.999 80.992 319.85 80.992H311.75Z" fill="black"/>
<path d="M342.768 89L339.478 80.236H339.422C339.45 80.5253 339.473 80.9173 339.492 81.412C339.511 81.8973 339.52 82.406 339.52 82.938V89H338.358V79.004H340.22L343.3 87.194H343.356L346.492 79.004H348.34V89H347.094V82.854C347.094 82.3687 347.103 81.888 347.122 81.412C347.15 80.936 347.173 80.5487 347.192 80.25H347.136L343.804 89H342.768ZM353.789 81.356C354.424 81.356 354.975 81.496 355.441 81.776C355.908 82.056 356.263 82.4527 356.505 82.966C356.757 83.47 356.883 84.0627 356.883 84.744V85.486H351.745C351.764 86.3353 351.979 86.984 352.389 87.432C352.809 87.8707 353.393 88.09 354.139 88.09C354.615 88.09 355.035 88.048 355.399 87.964C355.773 87.8707 356.155 87.74 356.547 87.572V88.65C356.165 88.818 355.787 88.9393 355.413 89.014C355.04 89.098 354.597 89.14 354.083 89.14C353.365 89.14 352.735 88.9953 352.193 88.706C351.652 88.4167 351.227 87.9873 350.919 87.418C350.621 86.8487 350.471 86.144 350.471 85.304C350.471 84.4827 350.607 83.778 350.877 83.19C351.157 82.602 351.545 82.1493 352.039 81.832C352.543 81.5147 353.127 81.356 353.789 81.356ZM353.775 82.364C353.187 82.364 352.721 82.5553 352.375 82.938C352.039 83.3113 351.839 83.834 351.773 84.506H355.595C355.586 83.8713 355.437 83.358 355.147 82.966C354.858 82.5647 354.401 82.364 353.775 82.364ZM363.68 86.928C363.68 87.656 363.409 88.2067 362.868 88.58C362.326 88.9533 361.598 89.14 360.684 89.14C360.161 89.14 359.708 89.098 359.326 89.014C358.952 88.93 358.621 88.8133 358.332 88.664V87.544C358.63 87.6933 358.99 87.8333 359.41 87.964C359.839 88.0853 360.273 88.146 360.712 88.146C361.337 88.146 361.79 88.048 362.07 87.852C362.35 87.6467 362.49 87.376 362.49 87.04C362.49 86.8533 362.438 86.6853 362.336 86.536C362.233 86.3867 362.046 86.2373 361.776 86.088C361.514 85.9387 361.136 85.7707 360.642 85.584C360.156 85.3973 359.741 85.2107 359.396 85.024C359.05 84.8373 358.784 84.6133 358.598 84.352C358.411 84.0907 358.318 83.7547 358.318 83.344C358.318 82.7093 358.574 82.2193 359.088 81.874C359.61 81.5287 360.292 81.356 361.132 81.356C361.589 81.356 362.014 81.4027 362.406 81.496C362.807 81.5893 363.18 81.7107 363.526 81.86L363.106 82.84C362.788 82.7093 362.457 82.5973 362.112 82.504C361.766 82.4107 361.412 82.364 361.048 82.364C360.544 82.364 360.156 82.448 359.886 82.616C359.624 82.7747 359.494 82.994 359.494 83.274C359.494 83.4887 359.554 83.666 359.676 83.806C359.797 83.946 359.998 84.086 360.278 84.226C360.567 84.366 360.95 84.5247 361.426 84.702C361.902 84.8793 362.308 85.0613 362.644 85.248C362.98 85.4347 363.236 85.6633 363.414 85.934C363.591 86.1953 363.68 86.5267 363.68 86.928ZM370.379 86.928C370.379 87.656 370.108 88.2067 369.567 88.58C369.025 88.9533 368.297 89.14 367.383 89.14C366.86 89.14 366.407 89.098 366.025 89.014C365.651 88.93 365.32 88.8133 365.031 88.664V87.544C365.329 87.6933 365.689 87.8333 366.109 87.964C366.538 88.0853 366.972 88.146 367.411 88.146C368.036 88.146 368.489 88.048 368.769 87.852C369.049 87.6467 369.189 87.376 369.189 87.04C369.189 86.8533 369.137 86.6853 369.035 86.536C368.932 86.3867 368.745 86.2373 368.475 86.088C368.213 85.9387 367.835 85.7707 367.341 85.584C366.855 85.3973 366.44 85.2107 366.095 85.024C365.749 84.8373 365.483 84.6133 365.297 84.352C365.11 84.0907 365.017 83.7547 365.017 83.344C365.017 82.7093 365.273 82.2193 365.787 81.874C366.309 81.5287 366.991 81.356 367.831 81.356C368.288 81.356 368.713 81.4027 369.105 81.496C369.506 81.5893 369.879 81.7107 370.225 81.86L369.805 82.84C369.487 82.7093 369.156 82.5973 368.811 82.504C368.465 82.4107 368.111 82.364 367.747 82.364C367.243 82.364 366.855 82.448 366.585 82.616C366.323 82.7747 366.193 82.994 366.193 83.274C366.193 83.4887 366.253 83.666 366.375 83.806C366.496 83.946 366.697 84.086 366.977 84.226C367.266 84.366 367.649 84.5247 368.125 84.702C368.601 84.8793 369.007 85.0613 369.343 85.248C369.679 85.4347 369.935 85.6633 370.113 85.934C370.29 86.1953 370.379 86.5267 370.379 86.928ZM375.034 81.37C375.949 81.37 376.625 81.5707 377.064 81.972C377.503 82.3733 377.722 83.0127 377.722 83.89V89H376.826L376.588 87.936H376.532C376.205 88.3467 375.86 88.65 375.496 88.846C375.132 89.042 374.637 89.14 374.012 89.14C373.331 89.14 372.766 88.9627 372.318 88.608C371.87 88.244 371.646 87.6793 371.646 86.914C371.646 86.1673 371.94 85.5933 372.528 85.192C373.116 84.7813 374.021 84.5573 375.244 84.52L376.518 84.478V84.03C376.518 83.4047 376.383 82.9707 376.112 82.728C375.841 82.4853 375.459 82.364 374.964 82.364C374.572 82.364 374.199 82.4247 373.844 82.546C373.489 82.658 373.158 82.7887 372.85 82.938L372.472 82.014C372.799 81.8367 373.186 81.6873 373.634 81.566C374.082 81.4353 374.549 81.37 375.034 81.37ZM376.504 85.332L375.398 85.374C374.465 85.4113 373.816 85.5607 373.452 85.822C373.097 86.0833 372.92 86.452 372.92 86.928C372.92 87.348 373.046 87.656 373.298 87.852C373.559 88.048 373.891 88.146 374.292 88.146C374.917 88.146 375.44 87.9733 375.86 87.628C376.289 87.2733 376.504 86.732 376.504 86.004V85.332ZM382.7 81.356C383.194 81.356 383.638 81.4493 384.03 81.636C384.431 81.8227 384.772 82.1073 385.052 82.49H385.122L385.29 81.496H386.27V89.126C386.27 90.1993 385.994 91.0067 385.444 91.548C384.902 92.0893 384.058 92.36 382.91 92.36C381.808 92.36 380.908 92.2013 380.208 91.884V90.75C380.945 91.142 381.869 91.338 382.98 91.338C383.624 91.338 384.128 91.1467 384.492 90.764C384.865 90.3907 385.052 89.8773 385.052 89.224V88.93C385.052 88.818 385.056 88.6593 385.066 88.454C385.075 88.2393 385.084 88.09 385.094 88.006H385.038C384.534 88.762 383.759 89.14 382.714 89.14C381.743 89.14 380.982 88.7993 380.432 88.118C379.89 87.4367 379.62 86.4847 379.62 85.262C379.62 84.0673 379.89 83.12 380.432 82.42C380.982 81.7107 381.738 81.356 382.7 81.356ZM382.868 82.392C382.242 82.392 381.757 82.644 381.412 83.148C381.066 83.6427 380.894 84.352 380.894 85.276C380.894 86.2 381.062 86.9093 381.398 87.404C381.734 87.8893 382.233 88.132 382.896 88.132C383.652 88.132 384.202 87.9313 384.548 87.53C384.893 87.1193 385.066 86.4613 385.066 85.556V85.262C385.066 84.2447 384.888 83.512 384.534 83.064C384.179 82.616 383.624 82.392 382.868 82.392ZM391.551 81.356C392.186 81.356 392.736 81.496 393.203 81.776C393.67 82.056 394.024 82.4527 394.267 82.966C394.519 83.47 394.645 84.0627 394.645 84.744V85.486H389.507C389.526 86.3353 389.74 86.984 390.151 87.432C390.571 87.8707 391.154 88.09 391.901 88.09C392.377 88.09 392.797 88.048 393.161 87.964C393.534 87.8707 393.917 87.74 394.309 87.572V88.65C393.926 88.818 393.548 88.9393 393.175 89.014C392.802 89.098 392.358 89.14 391.845 89.14C391.126 89.14 390.496 88.9953 389.955 88.706C389.414 88.4167 388.989 87.9873 388.681 87.418C388.382 86.8487 388.233 86.144 388.233 85.304C388.233 84.4827 388.368 83.778 388.639 83.19C388.919 82.602 389.306 82.1493 389.801 81.832C390.305 81.5147 390.888 81.356 391.551 81.356ZM391.537 82.364C390.949 82.364 390.482 82.5553 390.137 82.938C389.801 83.3113 389.6 83.834 389.535 84.506H393.357C393.348 83.8713 393.198 83.358 392.909 82.966C392.62 82.5647 392.162 82.364 391.537 82.364ZM401.441 86.928C401.441 87.656 401.171 88.2067 400.629 88.58C400.088 88.9533 399.36 89.14 398.445 89.14C397.923 89.14 397.47 89.098 397.087 89.014C396.714 88.93 396.383 88.8133 396.093 88.664V87.544C396.392 87.6933 396.751 87.8333 397.171 87.964C397.601 88.0853 398.035 88.146 398.473 88.146C399.099 88.146 399.551 88.048 399.831 87.852C400.111 87.6467 400.251 87.376 400.251 87.04C400.251 86.8533 400.2 86.6853 400.097 86.536C399.995 86.3867 399.808 86.2373 399.537 86.088C399.276 85.9387 398.898 85.7707 398.403 85.584C397.918 85.3973 397.503 85.2107 397.157 85.024C396.812 84.8373 396.546 84.6133 396.359 84.352C396.173 84.0907 396.079 83.7547 396.079 83.344C396.079 82.7093 396.336 82.2193 396.849 81.874C397.372 81.5287 398.053 81.356 398.893 81.356C399.351 81.356 399.775 81.4027 400.167 81.496C400.569 81.5893 400.942 81.7107 401.287 81.86L400.867 82.84C400.55 82.7093 400.219 82.5973 399.873 82.504C399.528 82.4107 399.173 82.364 398.809 82.364C398.305 82.364 397.918 82.448 397.647 82.616C397.386 82.7747 397.255 82.994 397.255 83.274C397.255 83.4887 397.316 83.666 397.437 83.806C397.559 83.946 397.759 84.086 398.039 84.226C398.329 84.366 398.711 84.5247 399.187 84.702C399.663 84.8793 400.069 85.0613 400.405 85.248C400.741 85.4347 400.998 85.6633 401.175 85.934C401.353 86.1953 401.441 86.5267 401.441 86.928Z" fill="black"/>
<path d="M386.4 31.004C387.716 31.004 388.687 31.2467 389.312 31.732C389.947 32.2173 390.264 32.9547 390.264 33.944C390.264 34.4293 390.171 34.8447 389.984 35.19C389.807 35.5353 389.569 35.8247 389.27 36.058C388.981 36.282 388.673 36.464 388.346 36.604L391.216 41H389.2L386.806 37.052H385.35V41H383.558V31.004H386.4ZM386.288 32.502H385.35V35.582H386.344C387.091 35.582 387.627 35.4513 387.954 35.19C388.281 34.9193 388.444 34.5227 388.444 34C388.444 33.4587 388.267 33.076 387.912 32.852C387.567 32.6187 387.025 32.502 386.288 32.502ZM395.493 33.272C396.51 33.272 397.313 33.5753 397.901 34.182C398.498 34.7887 398.797 35.6333 398.797 36.716V37.612H393.785C393.803 38.3027 393.995 38.8393 394.359 39.222C394.723 39.5953 395.227 39.782 395.871 39.782C396.356 39.782 396.795 39.7353 397.187 39.642C397.579 39.5393 397.98 39.3947 398.391 39.208V40.622C398.017 40.7993 397.63 40.93 397.229 41.014C396.827 41.098 396.347 41.14 395.787 41.14C395.04 41.14 394.382 41 393.813 40.72C393.243 40.4307 392.795 40.0013 392.469 39.432C392.151 38.8533 391.993 38.13 391.993 37.262C391.993 35.9647 392.31 34.9753 392.945 34.294C393.589 33.6127 394.438 33.272 395.493 33.272ZM395.493 34.574C395.017 34.574 394.629 34.728 394.331 35.036C394.041 35.3347 393.873 35.7827 393.827 36.38H397.089C397.079 35.8573 396.944 35.428 396.683 35.092C396.431 34.7467 396.034 34.574 395.493 34.574ZM405.741 38.802C405.741 39.5673 405.466 40.1507 404.915 40.552C404.374 40.944 403.595 41.14 402.577 41.14C402.045 41.14 401.588 41.1027 401.205 41.028C400.832 40.9533 400.468 40.8367 400.113 40.678V39.18C400.487 39.3573 400.897 39.5067 401.345 39.628C401.803 39.7493 402.232 39.81 402.633 39.81C403.119 39.81 403.469 39.7353 403.683 39.586C403.898 39.4367 404.005 39.236 404.005 38.984C404.005 38.8347 403.963 38.704 403.879 38.592C403.795 38.4707 403.632 38.34 403.389 38.2C403.147 38.06 402.778 37.8873 402.283 37.682C401.798 37.486 401.392 37.29 401.065 37.094C400.748 36.898 400.505 36.6647 400.337 36.394C400.179 36.1233 400.099 35.7733 400.099 35.344C400.099 34.6627 400.37 34.1493 400.911 33.804C401.453 33.4493 402.167 33.272 403.053 33.272C403.52 33.272 403.959 33.3187 404.369 33.412C404.789 33.5053 405.209 33.6453 405.629 33.832L405.069 35.134C404.715 34.9847 404.369 34.8587 404.033 34.756C403.697 34.6533 403.352 34.602 402.997 34.602C402.223 34.602 401.835 34.8213 401.835 35.26C401.835 35.4187 401.882 35.554 401.975 35.666C402.078 35.778 402.251 35.8993 402.493 36.03C402.745 36.1513 403.1 36.3007 403.557 36.478C404.005 36.6553 404.393 36.842 404.719 37.038C405.046 37.2247 405.298 37.458 405.475 37.738C405.653 38.0087 405.741 38.3633 405.741 38.802ZM411.429 33.272C412.315 33.272 413.029 33.6033 413.571 34.266C414.112 34.9193 414.383 35.8947 414.383 37.192C414.383 38.4893 414.103 39.474 413.543 40.146C412.992 40.8087 412.273 41.14 411.387 41.14C410.827 41.14 410.374 41.0373 410.029 40.832C409.683 40.6267 409.408 40.3887 409.203 40.118H409.091C409.119 40.2953 409.142 40.4867 409.161 40.692C409.189 40.8973 409.203 41.0933 409.203 41.28V44.36H407.439V33.412H408.867L409.119 34.42H409.203C409.417 34.1027 409.697 33.832 410.043 33.608C410.388 33.384 410.85 33.272 411.429 33.272ZM410.925 34.7C410.299 34.7 409.856 34.8867 409.595 35.26C409.343 35.6333 409.212 36.198 409.203 36.954V37.178C409.203 37.99 409.324 38.6153 409.567 39.054C409.819 39.4833 410.281 39.698 410.953 39.698C411.503 39.698 411.909 39.474 412.171 39.026C412.441 38.5687 412.577 37.948 412.577 37.164C412.577 36.38 412.441 35.7733 412.171 35.344C411.909 34.9147 411.494 34.7 410.925 34.7ZM422.978 37.192C422.978 38.452 422.652 39.4273 421.998 40.118C421.345 40.7993 420.458 41.14 419.338 41.14C418.648 41.14 418.032 40.986 417.49 40.678C416.949 40.37 416.524 39.922 416.216 39.334C415.908 38.746 415.754 38.032 415.754 37.192C415.754 35.932 416.076 34.966 416.72 34.294C417.374 33.6127 418.26 33.272 419.38 33.272C420.08 33.272 420.701 33.426 421.242 33.734C421.784 34.0327 422.208 34.476 422.516 35.064C422.824 35.6427 422.978 36.352 422.978 37.192ZM417.56 37.192C417.56 37.9947 417.7 38.6153 417.98 39.054C418.27 39.4927 418.732 39.712 419.366 39.712C419.992 39.712 420.449 39.4927 420.738 39.054C421.028 38.6153 421.172 37.9947 421.172 37.192C421.172 36.3893 421.028 35.7733 420.738 35.344C420.449 34.9147 419.987 34.7 419.352 34.7C418.718 34.7 418.26 34.9147 417.98 35.344C417.7 35.7733 417.56 36.3893 417.56 37.192ZM428.862 33.272C429.711 33.272 430.374 33.4913 430.85 33.93C431.335 34.3687 431.578 35.078 431.578 36.058V41H429.814V36.408C429.814 35.8387 429.702 35.414 429.478 35.134C429.254 34.8447 428.899 34.7 428.414 34.7C427.705 34.7 427.219 34.924 426.958 35.372C426.697 35.82 426.566 36.4593 426.566 37.29V41H424.802V33.412H426.16L426.412 34.406H426.51C426.753 34.014 427.084 33.7293 427.504 33.552C427.933 33.3653 428.386 33.272 428.862 33.272ZM438.95 38.802C438.95 39.5673 438.675 40.1507 438.124 40.552C437.583 40.944 436.804 41.14 435.786 41.14C435.254 41.14 434.797 41.1027 434.414 41.028C434.041 40.9533 433.677 40.8367 433.322 40.678V39.18C433.696 39.3573 434.106 39.5067 434.554 39.628C435.012 39.7493 435.441 39.81 435.842 39.81C436.328 39.81 436.678 39.7353 436.892 39.586C437.107 39.4367 437.214 39.236 437.214 38.984C437.214 38.8347 437.172 38.704 437.088 38.592C437.004 38.4707 436.841 38.34 436.598 38.2C436.356 38.06 435.987 37.8873 435.492 37.682C435.007 37.486 434.601 37.29 434.274 37.094C433.957 36.898 433.714 36.6647 433.546 36.394C433.388 36.1233 433.308 35.7733 433.308 35.344C433.308 34.6627 433.579 34.1493 434.12 33.804C434.662 33.4493 435.376 33.272 436.262 33.272C436.729 33.272 437.168 33.3187 437.578 33.412C437.998 33.5053 438.418 33.6453 438.838 33.832L438.278 35.134C437.924 34.9847 437.578 34.8587 437.242 34.756C436.906 34.6533 436.561 34.602 436.206 34.602C435.432 34.602 435.044 34.8213 435.044 35.26C435.044 35.4187 435.091 35.554 435.184 35.666C435.287 35.778 435.46 35.8993 435.702 36.03C435.954 36.1513 436.309 36.3007 436.766 36.478C437.214 36.6553 437.602 36.842 437.928 37.038C438.255 37.2247 438.507 37.458 438.684 37.738C438.862 38.0087 438.95 38.3633 438.95 38.802ZM441.53 30.486C441.791 30.486 442.02 30.556 442.216 30.696C442.412 30.8267 442.51 31.0647 442.51 31.41C442.51 31.7553 442.412 31.998 442.216 32.138C442.02 32.278 441.791 32.348 441.53 32.348C441.259 32.348 441.026 32.278 440.83 32.138C440.643 31.998 440.55 31.7553 440.55 31.41C440.55 31.0647 440.643 30.8267 440.83 30.696C441.026 30.556 441.259 30.486 441.53 30.486ZM442.412 33.412V41H440.648V33.412H442.412ZM446.417 41L443.533 33.412H445.395L446.907 37.794C447.01 38.0647 447.099 38.3633 447.173 38.69C447.248 39.0167 447.295 39.292 447.313 39.516H447.369C447.397 39.2733 447.453 38.9933 447.537 38.676C447.621 38.3587 447.71 38.0647 447.803 37.794L449.315 33.412H451.177L448.293 41H446.417ZM455.362 33.272C456.379 33.272 457.182 33.5753 457.77 34.182C458.367 34.7887 458.666 35.6333 458.666 36.716V37.612H453.654C453.672 38.3027 453.864 38.8393 454.228 39.222C454.592 39.5953 455.096 39.782 455.74 39.782C456.225 39.782 456.664 39.7353 457.056 39.642C457.448 39.5393 457.849 39.3947 458.26 39.208V40.622C457.886 40.7993 457.499 40.93 457.098 41.014C456.696 41.098 456.216 41.14 455.656 41.14C454.909 41.14 454.251 41 453.682 40.72C453.112 40.4307 452.664 40.0013 452.338 39.432C452.02 38.8533 451.862 38.13 451.862 37.262C451.862 35.9647 452.179 34.9753 452.814 34.294C453.458 33.6127 454.307 33.272 455.362 33.272ZM455.362 34.574C454.886 34.574 454.498 34.728 454.2 35.036C453.91 35.3347 453.742 35.7827 453.696 36.38H456.958C456.948 35.8573 456.813 35.428 456.552 35.092C456.3 34.7467 455.903 34.574 455.362 34.574ZM476.219 31.004L473.629 41H471.655L470.073 35.26C470.027 35.0733 469.966 34.8353 469.891 34.546C469.826 34.2473 469.761 33.9627 469.695 33.692C469.639 33.412 469.607 33.202 469.597 33.062C469.579 33.202 469.541 33.412 469.485 33.692C469.429 33.9627 469.369 34.2473 469.303 34.546C469.238 34.8353 469.177 35.0827 469.121 35.288L467.581 41H465.593L463.017 31.004H464.809L466.181 36.702C466.247 36.9447 466.307 37.22 466.363 37.528C466.429 37.836 466.489 38.144 466.545 38.452C466.601 38.7507 466.643 39.012 466.671 39.236C466.699 38.9933 466.741 38.7227 466.797 38.424C466.853 38.116 466.909 37.8173 466.965 37.528C467.031 37.2293 467.096 36.9773 467.161 36.772L468.729 31.004H470.465L472.061 36.786C472.127 37.0007 472.192 37.2573 472.257 37.556C472.323 37.8547 472.383 38.1533 472.439 38.452C472.495 38.7507 472.537 39.012 472.565 39.236C472.593 39.012 472.635 38.7507 472.691 38.452C472.747 38.144 472.808 37.8407 472.873 37.542C472.939 37.234 472.999 36.954 473.055 36.702L474.427 31.004H476.219ZM478.307 30.486C478.568 30.486 478.797 30.556 478.993 30.696C479.189 30.8267 479.287 31.0647 479.287 31.41C479.287 31.7553 479.189 31.998 478.993 32.138C478.797 32.278 478.568 32.348 478.307 32.348C478.036 32.348 477.803 32.278 477.607 32.138C477.42 31.998 477.327 31.7553 477.327 31.41C477.327 31.0647 477.42 30.8267 477.607 30.696C477.803 30.556 478.036 30.486 478.307 30.486ZM479.189 33.412V41H477.425V33.412H479.189ZM483.951 41.14C483.073 41.14 482.359 40.8133 481.809 40.16C481.267 39.4973 480.997 38.5173 480.997 37.22C480.997 35.9133 481.272 34.9287 481.823 34.266C482.373 33.6033 483.097 33.272 483.993 33.272C484.553 33.272 485.01 33.3793 485.365 33.594C485.729 33.8087 486.018 34.07 486.233 34.378H486.317C486.289 34.2473 486.261 34.0513 486.233 33.79C486.205 33.5193 486.191 33.2627 486.191 33.02V30.36H487.955V41H486.583L486.261 40.006H486.191C485.976 40.3233 485.691 40.594 485.337 40.818C484.982 41.0327 484.52 41.14 483.951 41.14ZM484.483 39.712C485.136 39.712 485.593 39.5253 485.855 39.152C486.125 38.7787 486.265 38.214 486.275 37.458V37.234C486.275 36.422 486.144 35.8013 485.883 35.372C485.631 34.9333 485.155 34.714 484.455 34.714C483.913 34.714 483.498 34.938 483.209 35.386C482.929 35.8247 482.789 36.4453 482.789 37.248C482.789 38.0507 482.933 38.662 483.223 39.082C483.512 39.502 483.932 39.712 484.483 39.712ZM493.148 39.726C493.363 39.726 493.573 39.7073 493.778 39.67C493.993 39.6233 494.189 39.572 494.366 39.516V40.832C494.18 40.9253 493.937 41 493.638 41.056C493.34 41.112 493.027 41.14 492.7 41.14C492.262 41.14 491.865 41.07 491.51 40.93C491.165 40.79 490.89 40.5427 490.684 40.188C490.479 39.8333 490.376 39.334 490.376 38.69V34.742H489.354V33.972L490.474 33.356L491.034 31.746H492.14V33.412H494.296V34.742H492.14V38.676C492.14 39.0307 492.234 39.2967 492.42 39.474C492.616 39.642 492.859 39.726 493.148 39.726ZM497.66 30.36V32.894C497.66 33.1927 497.646 33.4867 497.618 33.776C497.599 34.056 497.58 34.266 497.562 34.406H497.674C497.916 34.0233 498.234 33.7387 498.626 33.552C499.018 33.3653 499.452 33.272 499.928 33.272C500.786 33.272 501.458 33.496 501.944 33.944C502.429 34.3827 502.672 35.0873 502.672 36.058V41H500.908V36.408C500.908 35.8387 500.796 35.414 500.572 35.134C500.348 34.8447 499.993 34.7 499.508 34.7C498.798 34.7 498.313 34.924 498.052 35.372C497.79 35.82 497.66 36.4593 497.66 37.29V41H495.896V30.36H497.66Z" fill="#D51588"/>
<path d="M593 54L593 46" stroke="#D51588"/>
<path d="M593 50L293 50" stroke="#D51588"/>
<path d="M293 54L293 46" stroke="#D51588"/>
<rect opacity="0.4" x="293" y="62" width="12" height="88" fill="white"/>
<rect opacity="0.12" x="293" y="62" width="12" height="88" fill="#D51588"/>
<path opacity="0.5" d="M293 62L293 150" stroke="#D51588" stroke-dasharray="3 3"/>
<path opacity="0.5" d="M305 62L305 150" stroke="#D51588" stroke-dasharray="3 3"/>
<path d="M299 150V166" stroke="#D51588"/>
<path d="M286.482 181H284.718V174.77C284.718 174.471 284.722 174.154 284.732 173.818C284.741 173.482 284.755 173.169 284.774 172.88C284.68 172.973 284.564 173.085 284.424 173.216C284.293 173.347 284.148 173.473 283.99 173.594L282.87 174.49L281.988 173.398L285.012 171.004H286.482V181ZM296.468 181H289.622V179.698L292.17 177.122C292.674 176.609 293.084 176.17 293.402 175.806C293.728 175.442 293.966 175.101 294.116 174.784C294.274 174.457 294.354 174.107 294.354 173.734C294.354 173.277 294.223 172.936 293.962 172.712C293.71 172.479 293.364 172.362 292.926 172.362C292.506 172.362 292.114 172.451 291.75 172.628C291.386 172.796 291.008 173.039 290.616 173.356L289.65 172.194C290.06 171.839 290.522 171.531 291.036 171.27C291.558 170.999 292.221 170.864 293.024 170.864C293.668 170.864 294.218 170.981 294.676 171.214C295.142 171.438 295.502 171.755 295.754 172.166C296.006 172.567 296.132 173.029 296.132 173.552C296.132 174.093 296.024 174.593 295.81 175.05C295.595 175.498 295.282 175.951 294.872 176.408C294.47 176.856 293.99 177.341 293.43 177.864L291.848 179.39V179.474H296.468V181ZM305.792 173.272C306.679 173.272 307.393 173.603 307.934 174.266C308.475 174.919 308.746 175.895 308.746 177.192C308.746 178.489 308.466 179.474 307.906 180.146C307.355 180.809 306.637 181.14 305.75 181.14C305.19 181.14 304.737 181.037 304.392 180.832C304.047 180.627 303.771 180.389 303.566 180.118H303.454C303.482 180.295 303.505 180.487 303.524 180.692C303.552 180.897 303.566 181.093 303.566 181.28V184.36H301.802V173.412H303.23L303.482 174.42H303.566C303.781 174.103 304.061 173.832 304.406 173.608C304.751 173.384 305.213 173.272 305.792 173.272ZM305.288 174.7C304.663 174.7 304.219 174.887 303.958 175.26C303.706 175.633 303.575 176.198 303.566 176.954V177.178C303.566 177.99 303.687 178.615 303.93 179.054C304.182 179.483 304.644 179.698 305.316 179.698C305.867 179.698 306.273 179.474 306.534 179.026C306.805 178.569 306.94 177.948 306.94 177.164C306.94 176.38 306.805 175.773 306.534 175.344C306.273 174.915 305.857 174.7 305.288 174.7ZM311.93 177.122L309.424 173.412H311.426L313.078 175.988L314.73 173.412H316.732L314.198 177.122L316.858 181H314.856L313.078 178.242L311.3 181H309.298L311.93 177.122Z" fill="#D51588"/>
<rect opacity="0.4" x="581" y="62" width="12" height="88" fill="white"/>
<rect opacity="0.12" x="581" y="62" width="12" height="88" fill="#D51588"/>
<path opacity="0.5" d="M581 62L581 150" stroke="#D51588" stroke-dasharray="3 3"/>
<path opacity="0.5" d="M593 62L593 150" stroke="#D51588" stroke-dasharray="3 3"/>
<path d="M587 150V166" stroke="#D51588"/>
<path d="M574.482 181H572.718V174.77C572.718 174.471 572.722 174.154 572.732 173.818C572.741 173.482 572.755 173.169 572.774 172.88C572.68 172.973 572.564 173.085 572.424 173.216C572.293 173.347 572.148 173.473 571.99 173.594L570.87 174.49L569.988 173.398L573.012 171.004H574.482V181ZM584.468 181H577.622V179.698L580.17 177.122C580.674 176.609 581.084 176.17 581.402 175.806C581.728 175.442 581.966 175.101 582.116 174.784C582.274 174.457 582.354 174.107 582.354 173.734C582.354 173.277 582.223 172.936 581.962 172.712C581.71 172.479 581.364 172.362 580.926 172.362C580.506 172.362 580.114 172.451 579.75 172.628C579.386 172.796 579.008 173.039 578.616 173.356L577.65 172.194C578.06 171.839 578.522 171.531 579.036 171.27C579.558 170.999 580.221 170.864 581.024 170.864C581.668 170.864 582.218 170.981 582.676 171.214C583.142 171.438 583.502 171.755 583.754 172.166C584.006 172.567 584.132 173.029 584.132 173.552C584.132 174.093 584.024 174.593 583.81 175.05C583.595 175.498 583.282 175.951 582.872 176.408C582.47 176.856 581.99 177.341 581.43 177.864L579.848 179.39V179.474H584.468V181ZM593.792 173.272C594.679 173.272 595.393 173.603 595.934 174.266C596.475 174.919 596.746 175.895 596.746 177.192C596.746 178.489 596.466 179.474 595.906 180.146C595.355 180.809 594.637 181.14 593.75 181.14C593.19 181.14 592.737 181.037 592.392 180.832C592.047 180.627 591.771 180.389 591.566 180.118H591.454C591.482 180.295 591.505 180.487 591.524 180.692C591.552 180.897 591.566 181.093 591.566 181.28V184.36H589.802V173.412H591.23L591.482 174.42H591.566C591.781 174.103 592.061 173.832 592.406 173.608C592.751 173.384 593.213 173.272 593.792 173.272ZM593.288 174.7C592.663 174.7 592.219 174.887 591.958 175.26C591.706 175.633 591.575 176.198 591.566 176.954V177.178C591.566 177.99 591.687 178.615 591.93 179.054C592.182 179.483 592.644 179.698 593.316 179.698C593.867 179.698 594.273 179.474 594.534 179.026C594.805 178.569 594.94 177.948 594.94 177.164C594.94 176.38 594.805 175.773 594.534 175.344C594.273 174.915 593.857 174.7 593.288 174.7ZM599.93 177.122L597.424 173.412H599.426L601.078 175.988L602.73 173.412H604.732L602.198 177.122L604.858 181H602.856L601.078 178.242L599.3 181H597.298L599.93 177.122Z" fill="#D51588"/>
<rect opacity="0.4" x="545" y="62" width="4" height="88" fill="white"/>
<rect opacity="0.12" x="545" y="62" width="4" height="88" fill="#D51588"/>
<path opacity="0.5" d="M545 62L545 150" stroke="#D51588" stroke-dasharray="3 3"/>
<path opacity="0.5" d="M549 62L549 150" stroke="#D51588" stroke-dasharray="3 3"/>
<path d="M547 150V166" stroke="#D51588"/>
<path d="M540.77 178.858H539.468V181H537.732V178.858H533.28V177.542L537.774 170.976H539.468V177.416H540.77V178.858ZM537.732 177.416V175.176C537.732 174.915 537.736 174.644 537.746 174.364C537.755 174.075 537.764 173.809 537.774 173.566C537.792 173.314 537.806 173.123 537.816 172.992H537.76C537.676 173.179 537.582 173.365 537.48 173.552C537.386 173.729 537.279 173.907 537.158 174.084L534.89 177.416H537.732ZM549.786 173.272C550.673 173.272 551.387 173.603 551.928 174.266C552.469 174.919 552.74 175.895 552.74 177.192C552.74 178.489 552.46 179.474 551.9 180.146C551.349 180.809 550.631 181.14 549.744 181.14C549.184 181.14 548.731 181.037 548.386 180.832C548.041 180.627 547.765 180.389 547.56 180.118H547.448C547.476 180.295 547.499 180.487 547.518 180.692C547.546 180.897 547.56 181.093 547.56 181.28V184.36H545.796V173.412H547.224L547.476 174.42H547.56C547.775 174.103 548.055 173.832 548.4 173.608C548.745 173.384 549.207 173.272 549.786 173.272ZM549.282 174.7C548.657 174.7 548.213 174.887 547.952 175.26C547.7 175.633 547.569 176.198 547.56 176.954V177.178C547.56 177.99 547.681 178.615 547.924 179.054C548.176 179.483 548.638 179.698 549.31 179.698C549.861 179.698 550.267 179.474 550.528 179.026C550.799 178.569 550.934 177.948 550.934 177.164C550.934 176.38 550.799 175.773 550.528 175.344C550.267 174.915 549.851 174.7 549.282 174.7ZM555.924 177.122L553.418 173.412H555.42L557.072 175.988L558.724 173.412H560.726L558.192 177.122L560.852 181H558.85L557.072 178.242L555.294 181H553.292L555.924 177.122Z" fill="#D51588"/>
<path d="M242.772 86.858H241.47V89H239.734V86.858H235.282V85.542L239.776 78.976H241.47V85.416H242.772V86.858ZM239.734 85.416V83.176C239.734 82.9147 239.738 82.644 239.748 82.364C239.757 82.0747 239.766 81.8087 239.776 81.566C239.794 81.314 239.808 81.1227 239.818 80.992H239.762C239.678 81.1787 239.584 81.3653 239.482 81.552C239.388 81.7293 239.281 81.9067 239.16 82.084L236.892 85.416H239.734ZM250.783 86.858H249.481V89H247.745V86.858H243.293V85.542L247.787 78.976H249.481V85.416H250.783V86.858ZM247.745 85.416V83.176C247.745 82.9147 247.75 82.644 247.759 82.364C247.769 82.0747 247.778 81.8087 247.787 81.566C247.806 81.314 247.82 81.1227 247.829 80.992H247.773C247.689 81.1787 247.596 81.3653 247.493 81.552C247.4 81.7293 247.293 81.9067 247.171 82.084L244.903 85.416H247.745ZM259.8 81.272C260.686 81.272 261.4 81.6033 261.942 82.266C262.483 82.9193 262.754 83.8947 262.754 85.192C262.754 86.4893 262.474 87.474 261.914 88.146C261.363 88.8087 260.644 89.14 259.758 89.14C259.198 89.14 258.745 89.0373 258.4 88.832C258.054 88.6267 257.779 88.3887 257.574 88.118H257.462C257.49 88.2953 257.513 88.4867 257.532 88.692C257.56 88.8973 257.574 89.0933 257.574 89.28V92.36H255.81V81.412H257.238L257.49 82.42H257.574C257.788 82.1027 258.068 81.832 258.414 81.608C258.759 81.384 259.221 81.272 259.8 81.272ZM259.296 82.7C258.67 82.7 258.227 82.8867 257.966 83.26C257.714 83.6333 257.583 84.198 257.574 84.954V85.178C257.574 85.99 257.695 86.6153 257.938 87.054C258.19 87.4833 258.652 87.698 259.324 87.698C259.874 87.698 260.28 87.474 260.542 87.026C260.812 86.5687 260.948 85.948 260.948 85.164C260.948 84.38 260.812 83.7733 260.542 83.344C260.28 82.9147 259.865 82.7 259.296 82.7ZM265.938 85.122L263.432 81.412H265.434L267.086 83.988L268.738 81.412H270.74L268.206 85.122L270.866 89H268.864L267.086 86.242L265.308 89H263.306L265.938 85.122Z" fill="#D51588"/>
<path d="M283 62H275" stroke="#D51588"/>
<path d="M279 62L279 106" stroke="#D51588"/>
<path d="M283 106H275" stroke="#D51588"/>
<rect opacity="0.4" x="623" y="62" width="6.00001" height="330" transform="rotate(90 623 62)" fill="white"/>
<rect opacity="0.12" x="623" y="62" width="6.00001" height="330" transform="rotate(90 623 62)" fill="#D51588"/>
<path opacity="0.5" d="M623 68L293 68" stroke="#D51588" stroke-dasharray="3 3"/>
<path opacity="0.5" d="M623 62L293 62" stroke="#D51588" stroke-dasharray="3 3"/>
<path d="M639 65L623 65" stroke="#D51588"/>
<path d="M641.616 65.744C641.616 65.1653 641.653 64.596 641.728 64.036C641.812 63.476 641.956 62.9487 642.162 62.454C642.367 61.95 642.652 61.5067 643.016 61.124C643.38 60.732 643.842 60.4287 644.402 60.214C644.971 59.99 645.657 59.878 646.46 59.878C646.656 59.878 646.88 59.8873 647.132 59.906C647.384 59.9247 647.594 59.9527 647.762 59.99V61.446C647.398 61.3433 646.996 61.292 646.558 61.292C645.718 61.292 645.064 61.446 644.598 61.754C644.131 62.0527 643.804 62.468 643.618 63C643.431 63.5227 643.319 64.1107 643.282 64.764H643.366C643.562 64.4373 643.842 64.162 644.206 63.938C644.57 63.7047 645.041 63.588 645.62 63.588C646.488 63.588 647.183 63.8587 647.706 64.4C648.228 64.9413 648.49 65.7113 648.49 66.71C648.49 67.7833 648.191 68.6233 647.594 69.23C646.996 69.8367 646.189 70.14 645.172 70.14C644.509 70.14 643.907 69.9813 643.366 69.664C642.834 69.3467 642.409 68.866 642.092 68.222C641.774 67.5687 641.616 66.7427 641.616 65.744ZM645.144 68.698C645.62 68.698 646.007 68.5393 646.306 68.222C646.604 67.8953 646.754 67.396 646.754 66.724C646.754 66.1827 646.623 65.758 646.362 65.45C646.1 65.1327 645.708 64.974 645.186 64.974C644.822 64.974 644.504 65.0533 644.234 65.212C643.972 65.3613 643.767 65.5573 643.618 65.8C643.468 66.0333 643.394 66.276 643.394 66.528C643.394 66.8733 643.459 67.214 643.59 67.55C643.72 67.8767 643.912 68.152 644.164 68.376C644.425 68.5907 644.752 68.698 645.144 68.698ZM657.786 62.272C658.673 62.272 659.387 62.6033 659.928 63.266C660.469 63.9193 660.74 64.8947 660.74 66.192C660.74 67.4893 660.46 68.474 659.9 69.146C659.349 69.8087 658.631 70.14 657.744 70.14C657.184 70.14 656.731 70.0373 656.386 69.832C656.041 69.6267 655.765 69.3887 655.56 69.118H655.448C655.476 69.2953 655.499 69.4867 655.518 69.692C655.546 69.8973 655.56 70.0933 655.56 70.28V73.36H653.796V62.412H655.224L655.476 63.42H655.56C655.775 63.1027 656.055 62.832 656.4 62.608C656.745 62.384 657.207 62.272 657.786 62.272ZM657.282 63.7C656.657 63.7 656.213 63.8867 655.952 64.26C655.7 64.6333 655.569 65.198 655.56 65.954V66.178C655.56 66.99 655.681 67.6153 655.924 68.054C656.176 68.4833 656.638 68.698 657.31 68.698C657.861 68.698 658.267 68.474 658.528 68.026C658.799 67.5687 658.934 66.948 658.934 66.164C658.934 65.38 658.799 64.7733 658.528 64.344C658.267 63.9147 657.851 63.7 657.282 63.7ZM663.924 66.122L661.418 62.412H663.42L665.072 64.988L666.724 62.412H668.726L666.192 66.122L668.852 70H666.85L665.072 67.242L663.294 70H661.292L663.924 66.122Z" fill="#D51588"/>
<rect opacity="0.4" x="623" y="100" width="6.00001" height="330" transform="rotate(90 623 100)" fill="white"/>
<rect opacity="0.12" x="623" y="100" width="6.00001" height="330" transform="rotate(90 623 100)" fill="#D51588"/>
<path opacity="0.5" d="M623 106L293 106" stroke="#D51588" stroke-dasharray="3 3"/>
<path opacity="0.5" d="M623 100L293 100" stroke="#D51588" stroke-dasharray="3 3"/>
<path d="M639 103L623 103" stroke="#D51588"/>
<path d="M641.616 103.744C641.616 103.165 641.653 102.596 641.728 102.036C641.812 101.476 641.956 100.949 642.162 100.454C642.367 99.95 642.652 99.5067 643.016 99.124C643.38 98.732 643.842 98.4287 644.402 98.214C644.971 97.99 645.657 97.878 646.46 97.878C646.656 97.878 646.88 97.8873 647.132 97.906C647.384 97.9247 647.594 97.9527 647.762 97.99V99.446C647.398 99.3433 646.996 99.292 646.558 99.292C645.718 99.292 645.064 99.446 644.598 99.754C644.131 100.053 643.804 100.468 643.618 101C643.431 101.523 643.319 102.111 643.282 102.764H643.366C643.562 102.437 643.842 102.162 644.206 101.938C644.57 101.705 645.041 101.588 645.62 101.588C646.488 101.588 647.183 101.859 647.706 102.4C648.228 102.941 648.49 103.711 648.49 104.71C648.49 105.783 648.191 106.623 647.594 107.23C646.996 107.837 646.189 108.14 645.172 108.14C644.509 108.14 643.907 107.981 643.366 107.664C642.834 107.347 642.409 106.866 642.092 106.222C641.774 105.569 641.616 104.743 641.616 103.744ZM645.144 106.698C645.62 106.698 646.007 106.539 646.306 106.222C646.604 105.895 646.754 105.396 646.754 104.724C646.754 104.183 646.623 103.758 646.362 103.45C646.1 103.133 645.708 102.974 645.186 102.974C644.822 102.974 644.504 103.053 644.234 103.212C643.972 103.361 643.767 103.557 643.618 103.8C643.468 104.033 643.394 104.276 643.394 104.528C643.394 104.873 643.459 105.214 643.59 105.55C643.72 105.877 643.912 106.152 644.164 106.376C644.425 106.591 644.752 106.698 645.144 106.698ZM657.786 100.272C658.673 100.272 659.387 100.603 659.928 101.266C660.469 101.919 660.74 102.895 660.74 104.192C660.74 105.489 660.46 106.474 659.9 107.146C659.349 107.809 658.631 108.14 657.744 108.14C657.184 108.14 656.731 108.037 656.386 107.832C656.041 107.627 655.765 107.389 655.56 107.118H655.448C655.476 107.295 655.499 107.487 655.518 107.692C655.546 107.897 655.56 108.093 655.56 108.28V111.36H653.796V100.412H655.224L655.476 101.42H655.56C655.775 101.103 656.055 100.832 656.4 100.608C656.745 100.384 657.207 100.272 657.786 100.272ZM657.282 101.7C656.657 101.7 656.213 101.887 655.952 102.26C655.7 102.633 655.569 103.198 655.56 103.954V104.178C655.56 104.99 655.681 105.615 655.924 106.054C656.176 106.483 656.638 106.698 657.31 106.698C657.861 106.698 658.267 106.474 658.528 106.026C658.799 105.569 658.934 104.948 658.934 104.164C658.934 103.38 658.799 102.773 658.528 102.344C658.267 101.915 657.851 101.7 657.282 101.7ZM663.924 104.122L661.418 100.412H663.42L665.072 102.988L666.724 100.412H668.726L666.192 104.122L668.852 108H666.85L665.072 105.242L663.294 108H661.292L663.924 104.122Z" fill="#D51588"/>
</svg>
