<svg width="411" height="292" viewBox="0 0 411 292" fill="none" xmlns="http://www.w3.org/2000/svg">
<rect width="411" height="292" fill="white"/>
<rect width="313" height="65" transform="translate(49 136)" fill="white"/>
<rect width="55" height="60" transform="translate(57 139.5)" fill="white"/>
<path d="M69.26 164.5H68.228V158.512C68.228 158.168 68.232 157.892 68.24 157.684C68.248 157.476 68.26 157.26 68.276 157.036C68.148 157.164 68.028 157.272 67.916 157.36C67.812 157.448 67.684 157.56 67.532 157.696L66.62 158.44L66.068 157.732L68.384 155.932H69.26V164.5ZM78.4912 162.556H77.2432V164.5H76.2232V162.556H72.1192V161.656L76.1512 155.884H77.2432V161.608H78.4912V162.556ZM76.2232 161.608V158.908C76.2232 158.492 76.2272 158.14 76.2352 157.852C76.2512 157.556 76.2672 157.276 76.2832 157.012H76.2352C76.1712 157.164 76.0912 157.328 75.9952 157.504C75.8992 157.68 75.8072 157.828 75.7192 157.948L73.1512 161.608H76.2232ZM79.5984 158.716C79.5984 158.412 79.6704 158.2 79.8144 158.08C79.9584 157.96 80.1304 157.9 80.3304 157.9C80.5304 157.9 80.7064 157.96 80.8584 158.08C81.0104 158.2 81.0864 158.412 81.0864 158.716C81.0864 159.004 81.0104 159.212 80.8584 159.34C80.7064 159.468 80.5304 159.532 80.3304 159.532C80.1304 159.532 79.9584 159.468 79.8144 159.34C79.6704 159.212 79.5984 159.004 79.5984 158.716ZM79.5984 163.852C79.5984 163.556 79.6704 163.348 79.8144 163.228C79.9584 163.108 80.1304 163.048 80.3304 163.048C80.5304 163.048 80.7064 163.108 80.8584 163.228C81.0104 163.348 81.0864 163.556 81.0864 163.852C81.0864 164.14 81.0104 164.348 80.8584 164.476C80.7064 164.604 80.5304 164.668 80.3304 164.668C80.1304 164.668 79.9584 164.604 79.8144 164.476C79.6704 164.348 79.5984 164.14 79.5984 163.852ZM87.8613 157.936C87.8613 158.512 87.6973 158.972 87.3693 159.316C87.0493 159.652 86.6213 159.876 86.0853 159.988V160.036C86.7653 160.116 87.2733 160.332 87.6093 160.684C87.9533 161.036 88.1253 161.496 88.1253 162.064C88.1253 162.568 88.0093 163.012 87.7773 163.396C87.5453 163.78 87.1853 164.08 86.6973 164.296C86.2173 164.512 85.5973 164.62 84.8373 164.62C84.3893 164.62 83.9733 164.584 83.5893 164.512C83.2053 164.448 82.8373 164.328 82.4853 164.152V163.168C82.8453 163.352 83.2333 163.492 83.6493 163.588C84.0653 163.684 84.4653 163.732 84.8493 163.732C85.6173 163.732 86.1693 163.584 86.5053 163.288C86.8493 162.984 87.0213 162.568 87.0213 162.04C87.0213 161.504 86.8093 161.12 86.3853 160.888C85.9693 160.648 85.3813 160.528 84.6213 160.528H83.7933V159.628H84.6333C85.3373 159.628 85.8693 159.48 86.2293 159.184C86.5973 158.888 86.7813 158.496 86.7813 158.008C86.7813 157.592 86.6413 157.272 86.3613 157.048C86.0813 156.816 85.7013 156.7 85.2213 156.7C84.7573 156.7 84.3613 156.768 84.0333 156.904C83.7053 157.04 83.3813 157.212 83.0613 157.42L82.5333 156.7C82.8373 156.46 83.2133 156.252 83.6613 156.076C84.1173 155.9 84.6333 155.812 85.2093 155.812C86.1053 155.812 86.7693 156.012 87.2013 156.412C87.6413 156.812 87.8613 157.32 87.8613 157.936ZM95.0885 160.204C95.0885 161.132 94.9925 161.924 94.8005 162.58C94.6085 163.236 94.3005 163.74 93.8765 164.092C93.4605 164.444 92.9125 164.62 92.2325 164.62C91.2645 164.62 90.5485 164.232 90.0845 163.456C89.6285 162.672 89.4005 161.588 89.4005 160.204C89.4005 159.276 89.4925 158.484 89.6765 157.828C89.8685 157.172 90.1725 156.672 90.5885 156.328C91.0045 155.976 91.5525 155.8 92.2325 155.8C93.1925 155.8 93.9085 156.188 94.3805 156.964C94.8525 157.732 95.0885 158.812 95.0885 160.204ZM90.4565 160.204C90.4565 161.38 90.5885 162.26 90.8525 162.844C91.1245 163.428 91.5845 163.72 92.2325 163.72C92.8725 163.72 93.3285 163.432 93.6005 162.856C93.8805 162.272 94.0205 161.388 94.0205 160.204C94.0205 159.036 93.8805 158.16 93.6005 157.576C93.3285 156.992 92.8725 156.7 92.2325 156.7C91.5845 156.7 91.1245 156.992 90.8525 157.576C90.5885 158.16 90.4565 159.036 90.4565 160.204Z" fill="#323232"/>
<path d="M70.916 177.936C70.916 178.512 70.752 178.972 70.424 179.316C70.104 179.652 69.676 179.876 69.14 179.988V180.036C69.82 180.116 70.328 180.332 70.664 180.684C71.008 181.036 71.18 181.496 71.18 182.064C71.18 182.568 71.064 183.012 70.832 183.396C70.6 183.78 70.24 184.08 69.752 184.296C69.272 184.512 68.652 184.62 67.892 184.62C67.444 184.62 67.028 184.584 66.644 184.512C66.26 184.448 65.892 184.328 65.54 184.152V183.168C65.9 183.352 66.288 183.492 66.704 183.588C67.12 183.684 67.52 183.732 67.904 183.732C68.672 183.732 69.224 183.584 69.56 183.288C69.904 182.984 70.076 182.568 70.076 182.04C70.076 181.504 69.864 181.12 69.44 180.888C69.024 180.648 68.436 180.528 67.676 180.528H66.848V179.628H67.688C68.392 179.628 68.924 179.48 69.284 179.184C69.652 178.888 69.836 178.496 69.836 178.008C69.836 177.592 69.696 177.272 69.416 177.048C69.136 176.816 68.756 176.7 68.276 176.7C67.812 176.7 67.416 176.768 67.088 176.904C66.76 177.04 66.436 177.212 66.116 177.42L65.588 176.7C65.892 176.46 66.268 176.252 66.716 176.076C67.172 175.9 67.688 175.812 68.264 175.812C69.16 175.812 69.824 176.012 70.256 176.412C70.696 176.812 70.916 177.32 70.916 177.936ZM78.1432 180.204C78.1432 181.132 78.0472 181.924 77.8552 182.58C77.6632 183.236 77.3552 183.74 76.9312 184.092C76.5152 184.444 75.9672 184.62 75.2872 184.62C74.3192 184.62 73.6032 184.232 73.1392 183.456C72.6832 182.672 72.4552 181.588 72.4552 180.204C72.4552 179.276 72.5472 178.484 72.7312 177.828C72.9232 177.172 73.2272 176.672 73.6432 176.328C74.0592 175.976 74.6072 175.8 75.2872 175.8C76.2472 175.8 76.9632 176.188 77.4352 176.964C77.9072 177.732 78.1432 178.812 78.1432 180.204ZM73.5112 180.204C73.5112 181.38 73.6432 182.26 73.9072 182.844C74.1792 183.428 74.6392 183.72 75.2872 183.72C75.9272 183.72 76.3832 183.432 76.6552 182.856C76.9352 182.272 77.0752 181.388 77.0752 180.204C77.0752 179.036 76.9352 178.16 76.6552 177.576C76.3832 176.992 75.9272 176.7 75.2872 176.7C74.6392 176.7 74.1792 176.992 73.9072 177.576C73.6432 178.16 73.5112 179.036 73.5112 180.204ZM89.9276 177.948C90.6556 177.948 91.1996 178.136 91.5596 178.512C91.9196 178.888 92.0996 179.488 92.0996 180.312V184.5H91.0556V180.36C91.0556 179.344 90.6196 178.836 89.7476 178.836C89.1236 178.836 88.6756 179.016 88.4036 179.376C88.1396 179.736 88.0076 180.26 88.0076 180.948V184.5H86.9636V180.36C86.9636 179.344 86.5236 178.836 85.6436 178.836C84.9956 178.836 84.5476 179.036 84.2996 179.436C84.0516 179.836 83.9276 180.412 83.9276 181.164V184.5H82.8716V178.068H83.7236L83.8796 178.944H83.9396C84.1396 178.608 84.4076 178.36 84.7436 178.2C85.0876 178.032 85.4516 177.948 85.8356 177.948C86.8436 177.948 87.4996 178.308 87.8036 179.028H87.8636C88.0796 178.66 88.3716 178.388 88.7396 178.212C89.1076 178.036 89.5036 177.948 89.9276 177.948ZM94.6264 175.656C94.7864 175.656 94.9264 175.712 95.0464 175.824C95.1744 175.928 95.2384 176.096 95.2384 176.328C95.2384 176.56 95.1744 176.732 95.0464 176.844C94.9264 176.948 94.7864 177 94.6264 177C94.4504 177 94.3024 176.948 94.1824 176.844C94.0624 176.732 94.0024 176.56 94.0024 176.328C94.0024 176.096 94.0624 175.928 94.1824 175.824C94.3024 175.712 94.4504 175.656 94.6264 175.656ZM95.1424 178.068V184.5H94.0864V178.068H95.1424ZM100.276 177.948C101.044 177.948 101.624 178.136 102.016 178.512C102.408 178.888 102.604 179.488 102.604 180.312V184.5H101.56V180.384C101.56 179.352 101.08 178.836 100.12 178.836C99.4082 178.836 98.9162 179.036 98.6442 179.436C98.3722 179.836 98.2362 180.412 98.2362 181.164V184.5H97.1802V178.068H98.0322L98.1882 178.944H98.2482C98.4562 178.608 98.7442 178.36 99.1122 178.2C99.4802 178.032 99.8682 177.948 100.276 177.948Z" fill="#323232"/>
<rect width="241" height="64" transform="translate(107 136.5)" fill="white"/>
<path d="M124.366 158.404C124.366 160.093 123.904 161.367 122.98 162.226C122.065 163.075 120.787 163.5 119.144 163.5H116.358V153.504H119.438C120.437 153.504 121.305 153.691 122.042 154.064C122.789 154.437 123.363 154.988 123.764 155.716C124.165 156.444 124.366 157.34 124.366 158.404ZM123.036 158.446C123.036 157.111 122.705 156.136 122.042 155.52C121.389 154.895 120.46 154.582 119.256 154.582H117.618V162.422H118.976C121.683 162.422 123.036 161.097 123.036 158.446ZM129.315 155.856C129.949 155.856 130.5 155.996 130.967 156.276C131.433 156.556 131.788 156.953 132.031 157.466C132.283 157.97 132.409 158.563 132.409 159.244V159.986H127.271C127.289 160.835 127.504 161.484 127.915 161.932C128.335 162.371 128.918 162.59 129.665 162.59C130.141 162.59 130.561 162.548 130.925 162.464C131.298 162.371 131.681 162.24 132.073 162.072V163.15C131.69 163.318 131.312 163.439 130.939 163.514C130.565 163.598 130.122 163.64 129.609 163.64C128.89 163.64 128.26 163.495 127.719 163.206C127.177 162.917 126.753 162.487 126.445 161.918C126.146 161.349 125.997 160.644 125.997 159.804C125.997 158.983 126.132 158.278 126.403 157.69C126.683 157.102 127.07 156.649 127.565 156.332C128.069 156.015 128.652 155.856 129.315 155.856ZM129.301 156.864C128.713 156.864 128.246 157.055 127.901 157.438C127.565 157.811 127.364 158.334 127.299 159.006H131.121C131.111 158.371 130.962 157.858 130.673 157.466C130.383 157.065 129.926 156.864 129.301 156.864ZM135.697 163.5L132.855 155.996H134.171L135.767 160.42C135.842 160.625 135.921 160.854 136.005 161.106C136.089 161.358 136.164 161.601 136.229 161.834C136.295 162.067 136.341 162.259 136.369 162.408H136.425C136.453 162.259 136.505 162.067 136.579 161.834C136.654 161.591 136.733 161.349 136.817 161.106C136.901 160.854 136.981 160.625 137.055 160.42L138.651 155.996H139.967L137.111 163.5H135.697ZM141.785 153.182C141.972 153.182 142.135 153.247 142.275 153.378C142.424 153.499 142.499 153.695 142.499 153.966C142.499 154.237 142.424 154.437 142.275 154.568C142.135 154.689 141.972 154.75 141.785 154.75C141.58 154.75 141.407 154.689 141.267 154.568C141.127 154.437 141.057 154.237 141.057 153.966C141.057 153.695 141.127 153.499 141.267 153.378C141.407 153.247 141.58 153.182 141.785 153.182ZM142.387 155.996V163.5H141.155V155.996H142.387ZM147.774 163.64C147.102 163.64 146.51 163.505 145.996 163.234C145.483 162.963 145.077 162.543 144.778 161.974C144.489 161.405 144.344 160.677 144.344 159.79C144.344 158.866 144.494 158.115 144.792 157.536C145.1 156.957 145.52 156.533 146.052 156.262C146.584 155.991 147.186 155.856 147.858 155.856C148.232 155.856 148.596 155.898 148.95 155.982C149.314 156.057 149.608 156.15 149.832 156.262L149.454 157.284C149.23 157.2 148.969 157.121 148.67 157.046C148.372 156.971 148.092 156.934 147.83 156.934C146.356 156.934 145.618 157.881 145.618 159.776C145.618 160.681 145.796 161.377 146.15 161.862C146.514 162.338 147.051 162.576 147.76 162.576C148.162 162.576 148.521 162.534 148.838 162.45C149.156 162.366 149.445 162.263 149.706 162.142V163.234C149.454 163.365 149.174 163.463 148.866 163.528C148.568 163.603 148.204 163.64 147.774 163.64ZM154.389 155.856C155.023 155.856 155.574 155.996 156.041 156.276C156.507 156.556 156.862 156.953 157.105 157.466C157.357 157.97 157.483 158.563 157.483 159.244V159.986H152.345C152.363 160.835 152.578 161.484 152.989 161.932C153.409 162.371 153.992 162.59 154.739 162.59C155.215 162.59 155.635 162.548 155.999 162.464C156.372 162.371 156.755 162.24 157.147 162.072V163.15C156.764 163.318 156.386 163.439 156.013 163.514C155.639 163.598 155.196 163.64 154.683 163.64C153.964 163.64 153.334 163.495 152.793 163.206C152.251 162.917 151.827 162.487 151.519 161.918C151.22 161.349 151.071 160.644 151.071 159.804C151.071 158.983 151.206 158.278 151.477 157.69C151.757 157.102 152.144 156.649 152.639 156.332C153.143 156.015 153.726 155.856 154.389 155.856ZM154.375 156.864C153.787 156.864 153.32 157.055 152.975 157.438C152.639 157.811 152.438 158.334 152.373 159.006H156.195C156.185 158.371 156.036 157.858 155.747 157.466C155.457 157.065 155 156.864 154.375 156.864ZM164.279 161.428C164.279 162.156 164.008 162.707 163.467 163.08C162.926 163.453 162.198 163.64 161.283 163.64C160.76 163.64 160.308 163.598 159.925 163.514C159.552 163.43 159.22 163.313 158.931 163.164V162.044C159.23 162.193 159.589 162.333 160.009 162.464C160.438 162.585 160.872 162.646 161.311 162.646C161.936 162.646 162.389 162.548 162.669 162.352C162.949 162.147 163.089 161.876 163.089 161.54C163.089 161.353 163.038 161.185 162.935 161.036C162.832 160.887 162.646 160.737 162.375 160.588C162.114 160.439 161.736 160.271 161.241 160.084C160.756 159.897 160.34 159.711 159.995 159.524C159.65 159.337 159.384 159.113 159.197 158.852C159.01 158.591 158.917 158.255 158.917 157.844C158.917 157.209 159.174 156.719 159.687 156.374C160.21 156.029 160.891 155.856 161.731 155.856C162.188 155.856 162.613 155.903 163.005 155.996C163.406 156.089 163.78 156.211 164.125 156.36L163.705 157.34C163.388 157.209 163.056 157.097 162.711 157.004C162.366 156.911 162.011 156.864 161.647 156.864C161.143 156.864 160.756 156.948 160.485 157.116C160.224 157.275 160.093 157.494 160.093 157.774C160.093 157.989 160.154 158.166 160.275 158.306C160.396 158.446 160.597 158.586 160.877 158.726C161.166 158.866 161.549 159.025 162.025 159.202C162.501 159.379 162.907 159.561 163.243 159.748C163.579 159.935 163.836 160.163 164.013 160.434C164.19 160.695 164.279 161.027 164.279 161.428ZM177.905 158.404C177.905 160.093 177.443 161.367 176.519 162.226C175.604 163.075 174.326 163.5 172.683 163.5H169.897V153.504H172.977C173.976 153.504 174.844 153.691 175.581 154.064C176.328 154.437 176.902 154.988 177.303 155.716C177.704 156.444 177.905 157.34 177.905 158.404ZM176.575 158.446C176.575 157.111 176.244 156.136 175.581 155.52C174.928 154.895 173.999 154.582 172.795 154.582H171.157V162.422H172.515C175.222 162.422 176.575 161.097 176.575 158.446ZM182.854 155.856C183.488 155.856 184.039 155.996 184.506 156.276C184.972 156.556 185.327 156.953 185.57 157.466C185.822 157.97 185.948 158.563 185.948 159.244V159.986H180.81C180.828 160.835 181.043 161.484 181.454 161.932C181.874 162.371 182.457 162.59 183.204 162.59C183.68 162.59 184.1 162.548 184.464 162.464C184.837 162.371 185.22 162.24 185.612 162.072V163.15C185.229 163.318 184.851 163.439 184.478 163.514C184.104 163.598 183.661 163.64 183.148 163.64C182.429 163.64 181.799 163.495 181.258 163.206C180.716 162.917 180.292 162.487 179.984 161.918C179.685 161.349 179.536 160.644 179.536 159.804C179.536 158.983 179.671 158.278 179.942 157.69C180.222 157.102 180.609 156.649 181.104 156.332C181.608 156.015 182.191 155.856 182.854 155.856ZM182.84 156.864C182.252 156.864 181.785 157.055 181.44 157.438C181.104 157.811 180.903 158.334 180.838 159.006H184.66C184.65 158.371 184.501 157.858 184.212 157.466C183.922 157.065 183.465 156.864 182.84 156.864ZM192.744 161.428C192.744 162.156 192.473 162.707 191.932 163.08C191.391 163.453 190.663 163.64 189.748 163.64C189.225 163.64 188.773 163.598 188.39 163.514C188.017 163.43 187.685 163.313 187.396 163.164V162.044C187.695 162.193 188.054 162.333 188.474 162.464C188.903 162.585 189.337 162.646 189.776 162.646C190.401 162.646 190.854 162.548 191.134 162.352C191.414 162.147 191.554 161.876 191.554 161.54C191.554 161.353 191.503 161.185 191.4 161.036C191.297 160.887 191.111 160.737 190.84 160.588C190.579 160.439 190.201 160.271 189.706 160.084C189.221 159.897 188.805 159.711 188.46 159.524C188.115 159.337 187.849 159.113 187.662 158.852C187.475 158.591 187.382 158.255 187.382 157.844C187.382 157.209 187.639 156.719 188.152 156.374C188.675 156.029 189.356 155.856 190.196 155.856C190.653 155.856 191.078 155.903 191.47 155.996C191.871 156.089 192.245 156.211 192.59 156.36L192.17 157.34C191.853 157.209 191.521 157.097 191.176 157.004C190.831 156.911 190.476 156.864 190.112 156.864C189.608 156.864 189.221 156.948 188.95 157.116C188.689 157.275 188.558 157.494 188.558 157.774C188.558 157.989 188.619 158.166 188.74 158.306C188.861 158.446 189.062 158.586 189.342 158.726C189.631 158.866 190.014 159.025 190.49 159.202C190.966 159.379 191.372 159.561 191.708 159.748C192.044 159.935 192.301 160.163 192.478 160.434C192.655 160.695 192.744 161.027 192.744 161.428ZM195.187 153.182C195.374 153.182 195.537 153.247 195.677 153.378C195.827 153.499 195.901 153.695 195.901 153.966C195.901 154.237 195.827 154.437 195.677 154.568C195.537 154.689 195.374 154.75 195.187 154.75C194.982 154.75 194.809 154.689 194.669 154.568C194.529 154.437 194.459 154.237 194.459 153.966C194.459 153.695 194.529 153.499 194.669 153.378C194.809 153.247 194.982 153.182 195.187 153.182ZM195.789 155.996V163.5H194.557V155.996H195.789ZM200.827 155.856C201.321 155.856 201.765 155.949 202.157 156.136C202.558 156.323 202.899 156.607 203.179 156.99H203.249L203.417 155.996H204.397V163.626C204.397 164.699 204.121 165.507 203.571 166.048C203.029 166.589 202.185 166.86 201.037 166.86C199.935 166.86 199.035 166.701 198.335 166.384V165.25C199.072 165.642 199.996 165.838 201.107 165.838C201.751 165.838 202.255 165.647 202.619 165.264C202.992 164.891 203.179 164.377 203.179 163.724V163.43C203.179 163.318 203.183 163.159 203.193 162.954C203.202 162.739 203.211 162.59 203.221 162.506H203.165C202.661 163.262 201.886 163.64 200.841 163.64C199.87 163.64 199.109 163.299 198.559 162.618C198.017 161.937 197.747 160.985 197.747 159.762C197.747 158.567 198.017 157.62 198.559 156.92C199.109 156.211 199.865 155.856 200.827 155.856ZM200.995 156.892C200.369 156.892 199.884 157.144 199.539 157.648C199.193 158.143 199.021 158.852 199.021 159.776C199.021 160.7 199.189 161.409 199.525 161.904C199.861 162.389 200.36 162.632 201.023 162.632C201.779 162.632 202.329 162.431 202.675 162.03C203.02 161.619 203.193 160.961 203.193 160.056V159.762C203.193 158.745 203.015 158.012 202.661 157.564C202.306 157.116 201.751 156.892 200.995 156.892ZM210.392 155.856C211.288 155.856 211.965 156.075 212.422 156.514C212.879 156.953 213.108 157.653 213.108 158.614V163.5H211.89V158.698C211.89 157.494 211.33 156.892 210.21 156.892C209.379 156.892 208.805 157.125 208.488 157.592C208.171 158.059 208.012 158.731 208.012 159.608V163.5H206.78V155.996H207.774L207.956 157.018H208.026C208.269 156.626 208.605 156.337 209.034 156.15C209.463 155.954 209.916 155.856 210.392 155.856ZM222.053 163.5H218.441V162.772L219.617 162.506V154.512L218.441 154.232V153.504H222.053V154.232L220.877 154.512V162.506L222.053 162.772V163.5ZM227.427 155.856C228.323 155.856 229 156.075 229.457 156.514C229.914 156.953 230.143 157.653 230.143 158.614V163.5H228.925V158.698C228.925 157.494 228.365 156.892 227.245 156.892C226.414 156.892 225.84 157.125 225.523 157.592C225.206 158.059 225.047 158.731 225.047 159.608V163.5H223.815V155.996H224.809L224.991 157.018H225.061C225.304 156.626 225.64 156.337 226.069 156.15C226.498 155.954 226.951 155.856 227.427 155.856ZM236.081 155.856C236.977 155.856 237.654 156.075 238.111 156.514C238.569 156.953 238.797 157.653 238.797 158.614V163.5H237.579V158.698C237.579 157.494 237.019 156.892 235.899 156.892C235.069 156.892 234.495 157.125 234.177 157.592C233.86 158.059 233.701 158.731 233.701 159.608V163.5H232.469V155.996H233.463L233.645 157.018H233.715C233.958 156.626 234.294 156.337 234.723 156.15C235.153 155.954 235.605 155.856 236.081 155.856ZM247.648 159.734C247.648 160.975 247.33 161.937 246.696 162.618C246.07 163.299 245.221 163.64 244.148 163.64C243.485 163.64 242.892 163.491 242.37 163.192C241.856 162.884 241.45 162.441 241.152 161.862C240.853 161.274 240.704 160.565 240.704 159.734C240.704 158.493 241.012 157.536 241.628 156.864C242.253 156.192 243.107 155.856 244.19 155.856C244.862 155.856 245.459 156.01 245.982 156.318C246.504 156.617 246.91 157.055 247.2 157.634C247.498 158.203 247.648 158.903 247.648 159.734ZM241.978 159.734C241.978 160.621 242.15 161.325 242.496 161.848C242.85 162.361 243.41 162.618 244.176 162.618C244.932 162.618 245.487 162.361 245.842 161.848C246.196 161.325 246.374 160.621 246.374 159.734C246.374 158.847 246.196 158.152 245.842 157.648C245.487 157.144 244.927 156.892 244.162 156.892C243.396 156.892 242.841 157.144 242.496 157.648C242.15 158.152 241.978 158.847 241.978 159.734ZM250.979 163.5L248.137 155.996H249.453L251.049 160.42C251.123 160.625 251.203 160.854 251.287 161.106C251.371 161.358 251.445 161.601 251.511 161.834C251.576 162.067 251.623 162.259 251.651 162.408H251.707C251.735 162.259 251.786 162.067 251.861 161.834C251.935 161.591 252.015 161.349 252.099 161.106C252.183 160.854 252.262 160.625 252.337 160.42L253.933 155.996H255.249L252.393 163.5H250.979ZM259.278 155.87C260.193 155.87 260.869 156.071 261.308 156.472C261.747 156.873 261.966 157.513 261.966 158.39V163.5H261.07L260.832 162.436H260.776C260.449 162.847 260.104 163.15 259.74 163.346C259.376 163.542 258.881 163.64 258.256 163.64C257.575 163.64 257.01 163.463 256.562 163.108C256.114 162.744 255.89 162.179 255.89 161.414C255.89 160.667 256.184 160.093 256.772 159.692C257.36 159.281 258.265 159.057 259.488 159.02L260.762 158.978V158.53C260.762 157.905 260.627 157.471 260.356 157.228C260.085 156.985 259.703 156.864 259.208 156.864C258.816 156.864 258.443 156.925 258.088 157.046C257.733 157.158 257.402 157.289 257.094 157.438L256.716 156.514C257.043 156.337 257.43 156.187 257.878 156.066C258.326 155.935 258.793 155.87 259.278 155.87ZM260.748 159.832L259.642 159.874C258.709 159.911 258.06 160.061 257.696 160.322C257.341 160.583 257.164 160.952 257.164 161.428C257.164 161.848 257.29 162.156 257.542 162.352C257.803 162.548 258.135 162.646 258.536 162.646C259.161 162.646 259.684 162.473 260.104 162.128C260.533 161.773 260.748 161.232 260.748 160.504V159.832ZM266.79 162.632C266.976 162.632 267.168 162.618 267.364 162.59C267.56 162.562 267.718 162.525 267.84 162.478V163.416C267.709 163.481 267.522 163.533 267.28 163.57C267.037 163.617 266.804 163.64 266.58 163.64C266.188 163.64 265.824 163.575 265.488 163.444C265.161 163.304 264.895 163.066 264.69 162.73C264.484 162.394 264.382 161.923 264.382 161.316V156.948H263.318V156.36L264.396 155.87L264.886 154.274H265.614V155.996H267.784V156.948H265.614V161.288C265.614 161.745 265.721 162.086 265.936 162.31C266.16 162.525 266.444 162.632 266.79 162.632ZM269.972 153.182C270.159 153.182 270.322 153.247 270.462 153.378C270.612 153.499 270.686 153.695 270.686 153.966C270.686 154.237 270.612 154.437 270.462 154.568C270.322 154.689 270.159 154.75 269.972 154.75C269.767 154.75 269.594 154.689 269.454 154.568C269.314 154.437 269.244 154.237 269.244 153.966C269.244 153.695 269.314 153.499 269.454 153.378C269.594 153.247 269.767 153.182 269.972 153.182ZM270.574 155.996V163.5H269.342V155.996H270.574ZM279.476 159.734C279.476 160.975 279.158 161.937 278.524 162.618C277.898 163.299 277.049 163.64 275.976 163.64C275.313 163.64 274.72 163.491 274.198 163.192C273.684 162.884 273.278 162.441 272.98 161.862C272.681 161.274 272.532 160.565 272.532 159.734C272.532 158.493 272.84 157.536 273.456 156.864C274.081 156.192 274.935 155.856 276.018 155.856C276.69 155.856 277.287 156.01 277.81 156.318C278.332 156.617 278.738 157.055 279.028 157.634C279.326 158.203 279.476 158.903 279.476 159.734ZM273.806 159.734C273.806 160.621 273.978 161.325 274.324 161.848C274.678 162.361 275.238 162.618 276.004 162.618C276.76 162.618 277.315 162.361 277.67 161.848C278.024 161.325 278.202 160.621 278.202 159.734C278.202 158.847 278.024 158.152 277.67 157.648C277.315 157.144 276.755 156.892 275.99 156.892C275.224 156.892 274.669 157.144 274.324 157.648C273.978 158.152 273.806 158.847 273.806 159.734ZM285.04 155.856C285.936 155.856 286.613 156.075 287.07 156.514C287.528 156.953 287.756 157.653 287.756 158.614V163.5H286.538V158.698C286.538 157.494 285.978 156.892 284.858 156.892C284.028 156.892 283.454 157.125 283.136 157.592C282.819 158.059 282.66 158.731 282.66 159.608V163.5H281.428V155.996H282.422L282.604 157.018H282.674C282.917 156.626 283.253 156.337 283.682 156.15C284.112 155.954 284.564 155.856 285.04 155.856ZM305.367 153.504L302.707 163.5H301.433L299.487 156.948C299.403 156.687 299.324 156.421 299.249 156.15C299.184 155.87 299.123 155.627 299.067 155.422C299.021 155.207 298.993 155.058 298.983 154.974C298.974 155.095 298.923 155.357 298.829 155.758C298.736 156.15 298.629 156.561 298.507 156.99L296.617 163.5H295.343L292.697 153.504H294.013L295.567 159.608C295.679 160.037 295.773 160.453 295.847 160.854C295.931 161.255 295.997 161.633 296.043 161.988C296.09 161.624 296.16 161.227 296.253 160.798C296.347 160.369 296.454 159.949 296.575 159.538L298.339 153.504H299.641L301.475 159.58C301.606 160.009 301.718 160.439 301.811 160.868C301.905 161.297 301.975 161.671 302.021 161.988C302.059 161.643 302.119 161.269 302.203 160.868C302.297 160.457 302.399 160.033 302.511 159.594L304.051 153.504H305.367ZM309.359 155.856C309.994 155.856 310.545 155.996 311.011 156.276C311.478 156.556 311.833 156.953 312.075 157.466C312.327 157.97 312.453 158.563 312.453 159.244V159.986H307.315C307.334 160.835 307.549 161.484 307.959 161.932C308.379 162.371 308.963 162.59 309.709 162.59C310.185 162.59 310.605 162.548 310.969 162.464C311.343 162.371 311.725 162.24 312.117 162.072V163.15C311.735 163.318 311.357 163.439 310.983 163.514C310.61 163.598 310.167 163.64 309.653 163.64C308.935 163.64 308.305 163.495 307.763 163.206C307.222 162.917 306.797 162.487 306.489 161.918C306.191 161.349 306.041 160.644 306.041 159.804C306.041 158.983 306.177 158.278 306.447 157.69C306.727 157.102 307.115 156.649 307.609 156.332C308.113 156.015 308.697 155.856 309.359 155.856ZM309.345 156.864C308.757 156.864 308.291 157.055 307.945 157.438C307.609 157.811 307.409 158.334 307.343 159.006H311.165C311.156 158.371 311.007 157.858 310.717 157.466C310.428 157.065 309.971 156.864 309.345 156.864ZM317.262 155.856C317.896 155.856 318.447 155.996 318.914 156.276C319.38 156.556 319.735 156.953 319.978 157.466C320.23 157.97 320.356 158.563 320.356 159.244V159.986H315.218C315.236 160.835 315.451 161.484 315.862 161.932C316.282 162.371 316.865 162.59 317.612 162.59C318.088 162.59 318.508 162.548 318.872 162.464C319.245 162.371 319.628 162.24 320.02 162.072V163.15C319.637 163.318 319.259 163.439 318.886 163.514C318.512 163.598 318.069 163.64 317.556 163.64C316.837 163.64 316.207 163.495 315.666 163.206C315.124 162.917 314.7 162.487 314.392 161.918C314.093 161.349 313.944 160.644 313.944 159.804C313.944 158.983 314.079 158.278 314.35 157.69C314.63 157.102 315.017 156.649 315.512 156.332C316.016 156.015 316.599 155.856 317.262 155.856ZM317.248 156.864C316.66 156.864 316.193 157.055 315.848 157.438C315.512 157.811 315.311 158.334 315.246 159.006H319.068C319.058 158.371 318.909 157.858 318.62 157.466C318.33 157.065 317.873 156.864 317.248 156.864ZM323.484 152.86V158.418C323.484 158.567 323.475 158.763 323.456 159.006C323.447 159.249 323.438 159.459 323.428 159.636H323.484C323.54 159.561 323.624 159.454 323.736 159.314C323.848 159.174 323.96 159.034 324.072 158.894C324.194 158.745 324.296 158.623 324.38 158.53L326.774 155.996H328.216L325.178 159.202L328.426 163.5H326.942L324.338 160L323.484 160.742V163.5H322.266V152.86H323.484ZM330.977 163.5H329.745V152.86H330.977V163.5ZM332.178 155.996H333.494L335.118 160.266C335.258 160.649 335.384 161.008 335.496 161.344C335.608 161.68 335.692 162.002 335.748 162.31H335.804C335.86 162.077 335.949 161.773 336.07 161.4C336.191 161.017 336.317 160.635 336.448 160.252L337.974 155.996H339.304L336.07 164.536C335.799 165.245 335.459 165.81 335.048 166.23C334.637 166.65 334.068 166.86 333.34 166.86C333.116 166.86 332.92 166.846 332.752 166.818C332.584 166.799 332.439 166.776 332.318 166.748V165.768C332.421 165.787 332.542 165.805 332.682 165.824C332.831 165.843 332.985 165.852 333.144 165.852C333.573 165.852 333.919 165.731 334.18 165.488C334.441 165.245 334.651 164.923 334.81 164.522L335.202 163.528L332.178 155.996Z" fill="black"/>
<path d="M123.028 181.132C123.028 182.58 122.632 183.672 121.84 184.408C121.056 185.136 119.96 185.5 118.552 185.5H116.164V176.932H118.804C119.66 176.932 120.404 177.092 121.036 177.412C121.676 177.732 122.168 178.204 122.512 178.828C122.856 179.452 123.028 180.22 123.028 181.132ZM121.888 181.168C121.888 180.024 121.604 179.188 121.036 178.66C120.476 178.124 119.68 177.856 118.648 177.856H117.244V184.576H118.408C120.728 184.576 121.888 183.44 121.888 181.168ZM127.27 178.948C127.814 178.948 128.286 179.068 128.686 179.308C129.086 179.548 129.39 179.888 129.598 180.328C129.814 180.76 129.922 181.268 129.922 181.852V182.488H125.518C125.534 183.216 125.718 183.772 126.07 184.156C126.43 184.532 126.93 184.72 127.57 184.72C127.978 184.72 128.338 184.684 128.65 184.612C128.97 184.532 129.298 184.42 129.634 184.276V185.2C129.306 185.344 128.982 185.448 128.662 185.512C128.342 185.584 127.962 185.62 127.522 185.62C126.906 185.62 126.366 185.496 125.902 185.248C125.438 185 125.074 184.632 124.81 184.144C124.554 183.656 124.426 183.052 124.426 182.332C124.426 181.628 124.542 181.024 124.774 180.52C125.014 180.016 125.346 179.628 125.77 179.356C126.202 179.084 126.702 178.948 127.27 178.948ZM127.258 179.812C126.754 179.812 126.354 179.976 126.058 180.304C125.77 180.624 125.598 181.072 125.542 181.648H128.818C128.81 181.104 128.682 180.664 128.434 180.328C128.186 179.984 127.794 179.812 127.258 179.812ZM132.741 185.5L130.305 179.068H131.433L132.801 182.86C132.865 183.036 132.933 183.232 133.005 183.448C133.077 183.664 133.141 183.872 133.197 184.072C133.253 184.272 133.293 184.436 133.317 184.564H133.365C133.389 184.436 133.433 184.272 133.497 184.072C133.561 183.864 133.629 183.656 133.701 183.448C133.773 183.232 133.841 183.036 133.905 182.86L135.273 179.068H136.401L133.953 185.5H132.741ZM137.958 176.656C138.118 176.656 138.258 176.712 138.378 176.824C138.506 176.928 138.57 177.096 138.57 177.328C138.57 177.56 138.506 177.732 138.378 177.844C138.258 177.948 138.118 178 137.958 178C137.782 178 137.634 177.948 137.514 177.844C137.394 177.732 137.334 177.56 137.334 177.328C137.334 177.096 137.394 176.928 137.514 176.824C137.634 176.712 137.782 176.656 137.958 176.656ZM138.474 179.068V185.5H137.418V179.068H138.474ZM143.092 185.62C142.516 185.62 142.008 185.504 141.568 185.272C141.128 185.04 140.78 184.68 140.524 184.192C140.276 183.704 140.152 183.08 140.152 182.32C140.152 181.528 140.28 180.884 140.536 180.388C140.8 179.892 141.16 179.528 141.616 179.296C142.072 179.064 142.588 178.948 143.164 178.948C143.484 178.948 143.796 178.984 144.1 179.056C144.412 179.12 144.664 179.2 144.856 179.296L144.532 180.172C144.34 180.1 144.116 180.032 143.86 179.968C143.604 179.904 143.364 179.872 143.14 179.872C141.876 179.872 141.244 180.684 141.244 182.308C141.244 183.084 141.396 183.68 141.7 184.096C142.012 184.504 142.472 184.708 143.08 184.708C143.424 184.708 143.732 184.672 144.004 184.6C144.276 184.528 144.524 184.44 144.748 184.336V185.272C144.532 185.384 144.292 185.468 144.028 185.524C143.772 185.588 143.46 185.62 143.092 185.62ZM148.762 178.948C149.306 178.948 149.778 179.068 150.178 179.308C150.578 179.548 150.882 179.888 151.09 180.328C151.306 180.76 151.414 181.268 151.414 181.852V182.488H147.01C147.026 183.216 147.21 183.772 147.562 184.156C147.922 184.532 148.422 184.72 149.062 184.72C149.47 184.72 149.83 184.684 150.142 184.612C150.462 184.532 150.79 184.42 151.126 184.276V185.2C150.798 185.344 150.474 185.448 150.154 185.512C149.834 185.584 149.454 185.62 149.014 185.62C148.398 185.62 147.858 185.496 147.394 185.248C146.93 185 146.566 184.632 146.302 184.144C146.046 183.656 145.918 183.052 145.918 182.332C145.918 181.628 146.034 181.024 146.266 180.52C146.506 180.016 146.838 179.628 147.262 179.356C147.694 179.084 148.194 178.948 148.762 178.948ZM148.75 179.812C148.246 179.812 147.846 179.976 147.55 180.304C147.262 180.624 147.09 181.072 147.034 181.648H150.31C150.302 181.104 150.174 180.664 149.926 180.328C149.678 179.984 149.286 179.812 148.75 179.812ZM157.239 183.724C157.239 184.348 157.007 184.82 156.543 185.14C156.079 185.46 155.455 185.62 154.671 185.62C154.223 185.62 153.835 185.584 153.507 185.512C153.187 185.44 152.903 185.34 152.655 185.212V184.252C152.911 184.38 153.219 184.5 153.579 184.612C153.947 184.716 154.319 184.768 154.695 184.768C155.231 184.768 155.619 184.684 155.859 184.516C156.099 184.34 156.219 184.108 156.219 183.82C156.219 183.66 156.175 183.516 156.087 183.388C155.999 183.26 155.839 183.132 155.607 183.004C155.383 182.876 155.059 182.732 154.635 182.572C154.219 182.412 153.863 182.252 153.567 182.092C153.271 181.932 153.043 181.74 152.883 181.516C152.723 181.292 152.643 181.004 152.643 180.652C152.643 180.108 152.863 179.688 153.303 179.392C153.751 179.096 154.335 178.948 155.055 178.948C155.447 178.948 155.811 178.988 156.147 179.068C156.491 179.148 156.811 179.252 157.107 179.38L156.747 180.22C156.475 180.108 156.191 180.012 155.895 179.932C155.599 179.852 155.295 179.812 154.983 179.812C154.551 179.812 154.219 179.884 153.987 180.028C153.763 180.164 153.651 180.352 153.651 180.592C153.651 180.776 153.703 180.928 153.807 181.048C153.911 181.168 154.083 181.288 154.323 181.408C154.571 181.528 154.899 181.664 155.307 181.816C155.715 181.968 156.063 182.124 156.351 182.284C156.639 182.444 156.859 182.64 157.011 182.872C157.163 183.096 157.239 183.38 157.239 183.724ZM164.467 185.5H161.371V184.876L162.379 184.648V177.796L161.371 177.556V176.932H164.467V177.556L163.459 177.796V184.648L164.467 184.876V185.5ZM169.073 178.948C169.841 178.948 170.421 179.136 170.813 179.512C171.205 179.888 171.401 180.488 171.401 181.312V185.5H170.357V181.384C170.357 180.352 169.877 179.836 168.917 179.836C168.205 179.836 167.713 180.036 167.441 180.436C167.169 180.836 167.033 181.412 167.033 182.164V185.5H165.977V179.068H166.829L166.985 179.944H167.045C167.253 179.608 167.541 179.36 167.909 179.2C168.277 179.032 168.665 178.948 169.073 178.948ZM176.491 178.948C177.259 178.948 177.839 179.136 178.231 179.512C178.623 179.888 178.819 180.488 178.819 181.312V185.5H177.775V181.384C177.775 180.352 177.295 179.836 176.335 179.836C175.623 179.836 175.131 180.036 174.859 180.436C174.587 180.836 174.451 181.412 174.451 182.164V185.5H173.395V179.068H174.247L174.403 179.944H174.463C174.671 179.608 174.959 179.36 175.327 179.2C175.695 179.032 176.083 178.948 176.491 178.948ZM186.405 182.272C186.405 183.336 186.133 184.16 185.589 184.744C185.053 185.328 184.325 185.62 183.405 185.62C182.837 185.62 182.329 185.492 181.881 185.236C181.441 184.972 181.093 184.592 180.837 184.096C180.581 183.592 180.453 182.984 180.453 182.272C180.453 181.208 180.717 180.388 181.245 179.812C181.781 179.236 182.513 178.948 183.441 178.948C184.017 178.948 184.529 179.08 184.977 179.344C185.425 179.6 185.773 179.976 186.021 180.472C186.277 180.96 186.405 181.56 186.405 182.272ZM181.545 182.272C181.545 183.032 181.693 183.636 181.989 184.084C182.293 184.524 182.773 184.744 183.429 184.744C184.077 184.744 184.553 184.524 184.857 184.084C185.161 183.636 185.313 183.032 185.313 182.272C185.313 181.512 185.161 180.916 184.857 180.484C184.553 180.052 184.073 179.836 183.417 179.836C182.761 179.836 182.285 180.052 181.989 180.484C181.693 180.916 181.545 181.512 181.545 182.272ZM189.26 185.5L186.824 179.068H187.952L189.32 182.86C189.384 183.036 189.452 183.232 189.524 183.448C189.596 183.664 189.66 183.872 189.716 184.072C189.772 184.272 189.812 184.436 189.836 184.564H189.884C189.908 184.436 189.952 184.272 190.016 184.072C190.08 183.864 190.148 183.656 190.22 183.448C190.292 183.232 190.36 183.036 190.424 182.86L191.792 179.068H192.92L190.472 185.5H189.26ZM196.374 178.96C197.158 178.96 197.738 179.132 198.114 179.476C198.49 179.82 198.678 180.368 198.678 181.12V185.5H197.91L197.706 184.588H197.658C197.378 184.94 197.082 185.2 196.77 185.368C196.458 185.536 196.034 185.62 195.498 185.62C194.914 185.62 194.43 185.468 194.046 185.164C193.662 184.852 193.47 184.368 193.47 183.712C193.47 183.072 193.722 182.58 194.226 182.236C194.73 181.884 195.506 181.692 196.554 181.66L197.646 181.624V181.24C197.646 180.704 197.53 180.332 197.298 180.124C197.066 179.916 196.738 179.812 196.314 179.812C195.978 179.812 195.658 179.864 195.354 179.968C195.05 180.064 194.766 180.176 194.502 180.304L194.178 179.512C194.458 179.36 194.79 179.232 195.174 179.128C195.558 179.016 195.958 178.96 196.374 178.96ZM197.634 182.356L196.686 182.392C195.886 182.424 195.33 182.552 195.018 182.776C194.714 183 194.562 183.316 194.562 183.724C194.562 184.084 194.67 184.348 194.886 184.516C195.11 184.684 195.394 184.768 195.738 184.768C196.274 184.768 196.722 184.62 197.082 184.324C197.45 184.02 197.634 183.556 197.634 182.932V182.356ZM202.813 184.756C202.973 184.756 203.137 184.744 203.305 184.72C203.473 184.696 203.609 184.664 203.713 184.624V185.428C203.601 185.484 203.441 185.528 203.233 185.56C203.025 185.6 202.825 185.62 202.633 185.62C202.297 185.62 201.985 185.564 201.697 185.452C201.417 185.332 201.189 185.128 201.013 184.84C200.837 184.552 200.749 184.148 200.749 183.628V179.884H199.837V179.38L200.761 178.96L201.181 177.592H201.805V179.068H203.665V179.884H201.805V183.604C201.805 183.996 201.897 184.288 202.081 184.48C202.273 184.664 202.517 184.756 202.813 184.756ZM205.54 176.656C205.7 176.656 205.84 176.712 205.96 176.824C206.088 176.928 206.152 177.096 206.152 177.328C206.152 177.56 206.088 177.732 205.96 177.844C205.84 177.948 205.7 178 205.54 178C205.364 178 205.216 177.948 205.096 177.844C204.976 177.732 204.916 177.56 204.916 177.328C204.916 177.096 204.976 176.928 205.096 176.824C205.216 176.712 205.364 176.656 205.54 176.656ZM206.056 179.068V185.5H205V179.068H206.056ZM213.686 182.272C213.686 183.336 213.414 184.16 212.87 184.744C212.334 185.328 211.606 185.62 210.686 185.62C210.118 185.62 209.61 185.492 209.162 185.236C208.722 184.972 208.374 184.592 208.118 184.096C207.862 183.592 207.734 182.984 207.734 182.272C207.734 181.208 207.998 180.388 208.526 179.812C209.062 179.236 209.794 178.948 210.722 178.948C211.298 178.948 211.81 179.08 212.258 179.344C212.706 179.6 213.054 179.976 213.302 180.472C213.558 180.96 213.686 181.56 213.686 182.272ZM208.826 182.272C208.826 183.032 208.974 183.636 209.27 184.084C209.574 184.524 210.054 184.744 210.71 184.744C211.358 184.744 211.834 184.524 212.138 184.084C212.442 183.636 212.594 183.032 212.594 182.272C212.594 181.512 212.442 180.916 212.138 180.484C211.834 180.052 211.354 179.836 210.698 179.836C210.042 179.836 209.566 180.052 209.27 180.484C208.974 180.916 208.826 181.512 208.826 182.272ZM218.456 178.948C219.224 178.948 219.804 179.136 220.196 179.512C220.588 179.888 220.784 180.488 220.784 181.312V185.5H219.74V181.384C219.74 180.352 219.26 179.836 218.3 179.836C217.588 179.836 217.096 180.036 216.824 180.436C216.552 180.836 216.416 181.412 216.416 182.164V185.5H215.36V179.068H216.212L216.368 179.944H216.428C216.636 179.608 216.924 179.36 217.292 179.2C217.66 179.032 218.048 178.948 218.456 178.948Z" fill="#323232"/>
<rect width="313" height="65" transform="translate(49 200)" fill="white"/>
<rect width="55" height="60" transform="translate(57 203.5)" fill="white"/>
<path d="M69.26 228.5H68.228V222.512C68.228 222.168 68.232 221.892 68.24 221.684C68.248 221.476 68.26 221.26 68.276 221.036C68.148 221.164 68.028 221.272 67.916 221.36C67.812 221.448 67.684 221.56 67.532 221.696L66.62 222.44L66.068 221.732L68.384 219.932H69.26V228.5ZM75.1672 223.244C76.0392 223.244 76.7352 223.464 77.2552 223.904C77.7832 224.344 78.0472 224.964 78.0472 225.764C78.0472 226.652 77.7632 227.352 77.1952 227.864C76.6352 228.368 75.8512 228.62 74.8432 228.62C74.3952 228.62 73.9792 228.58 73.5952 228.5C73.2112 228.42 72.8872 228.304 72.6232 228.152V227.156C72.9112 227.332 73.2592 227.472 73.6672 227.576C74.0832 227.672 74.4792 227.72 74.8552 227.72C75.4872 227.72 75.9952 227.572 76.3792 227.276C76.7712 226.972 76.9672 226.504 76.9672 225.872C76.9672 225.312 76.7952 224.884 76.4512 224.588C76.1072 224.284 75.5632 224.132 74.8192 224.132C74.5952 224.132 74.3392 224.152 74.0512 224.192C73.7632 224.232 73.5312 224.272 73.3552 224.312L72.8272 223.976L73.1512 219.932H77.4472V220.892H74.0512L73.8472 223.376C73.9832 223.352 74.1672 223.324 74.3992 223.292C74.6312 223.26 74.8872 223.244 75.1672 223.244ZM79.5984 222.716C79.5984 222.412 79.6704 222.2 79.8144 222.08C79.9584 221.96 80.1304 221.9 80.3304 221.9C80.5304 221.9 80.7064 221.96 80.8584 222.08C81.0104 222.2 81.0864 222.412 81.0864 222.716C81.0864 223.004 81.0104 223.212 80.8584 223.34C80.7064 223.468 80.5304 223.532 80.3304 223.532C80.1304 223.532 79.9584 223.468 79.8144 223.34C79.6704 223.212 79.5984 223.004 79.5984 222.716ZM79.5984 227.852C79.5984 227.556 79.6704 227.348 79.8144 227.228C79.9584 227.108 80.1304 227.048 80.3304 227.048C80.5304 227.048 80.7064 227.108 80.8584 227.228C81.0104 227.348 81.0864 227.556 81.0864 227.852C81.0864 228.14 81.0104 228.348 80.8584 228.476C80.7064 228.604 80.5304 228.668 80.3304 228.668C80.1304 228.668 79.9584 228.604 79.8144 228.476C79.6704 228.348 79.5984 228.14 79.5984 227.852ZM88.2213 224.204C88.2213 225.132 88.1253 225.924 87.9333 226.58C87.7413 227.236 87.4333 227.74 87.0093 228.092C86.5933 228.444 86.0453 228.62 85.3653 228.62C84.3973 228.62 83.6813 228.232 83.2173 227.456C82.7613 226.672 82.5333 225.588 82.5333 224.204C82.5333 223.276 82.6253 222.484 82.8093 221.828C83.0013 221.172 83.3053 220.672 83.7213 220.328C84.1373 219.976 84.6853 219.8 85.3653 219.8C86.3253 219.8 87.0413 220.188 87.5133 220.964C87.9853 221.732 88.2213 222.812 88.2213 224.204ZM83.5893 224.204C83.5893 225.38 83.7213 226.26 83.9853 226.844C84.2573 227.428 84.7173 227.72 85.3653 227.72C86.0053 227.72 86.4613 227.432 86.7333 226.856C87.0133 226.272 87.1533 225.388 87.1533 224.204C87.1533 223.036 87.0133 222.16 86.7333 221.576C86.4613 220.992 86.0053 220.7 85.3653 220.7C84.7173 220.7 84.2573 220.992 83.9853 221.576C83.7213 222.16 83.5893 223.036 83.5893 224.204ZM95.0885 224.204C95.0885 225.132 94.9925 225.924 94.8005 226.58C94.6085 227.236 94.3005 227.74 93.8765 228.092C93.4605 228.444 92.9125 228.62 92.2325 228.62C91.2645 228.62 90.5485 228.232 90.0845 227.456C89.6285 226.672 89.4005 225.588 89.4005 224.204C89.4005 223.276 89.4925 222.484 89.6765 221.828C89.8685 221.172 90.1725 220.672 90.5885 220.328C91.0045 219.976 91.5525 219.8 92.2325 219.8C93.1925 219.8 93.9085 220.188 94.3805 220.964C94.8525 221.732 95.0885 222.812 95.0885 224.204ZM90.4565 224.204C90.4565 225.38 90.5885 226.26 90.8525 226.844C91.1245 227.428 91.5845 227.72 92.2325 227.72C92.8725 227.72 93.3285 227.432 93.6005 226.856C93.8805 226.272 94.0205 225.388 94.0205 224.204C94.0205 223.036 93.8805 222.16 93.6005 221.576C93.3285 220.992 92.8725 220.7 92.2325 220.7C91.5845 220.7 91.1245 220.992 90.8525 221.576C90.5885 222.16 90.4565 223.036 90.4565 224.204Z" fill="#323232"/>
<path d="M70.916 241.936C70.916 242.512 70.752 242.972 70.424 243.316C70.104 243.652 69.676 243.876 69.14 243.988V244.036C69.82 244.116 70.328 244.332 70.664 244.684C71.008 245.036 71.18 245.496 71.18 246.064C71.18 246.568 71.064 247.012 70.832 247.396C70.6 247.78 70.24 248.08 69.752 248.296C69.272 248.512 68.652 248.62 67.892 248.62C67.444 248.62 67.028 248.584 66.644 248.512C66.26 248.448 65.892 248.328 65.54 248.152V247.168C65.9 247.352 66.288 247.492 66.704 247.588C67.12 247.684 67.52 247.732 67.904 247.732C68.672 247.732 69.224 247.584 69.56 247.288C69.904 246.984 70.076 246.568 70.076 246.04C70.076 245.504 69.864 245.12 69.44 244.888C69.024 244.648 68.436 244.528 67.676 244.528H66.848V243.628H67.688C68.392 243.628 68.924 243.48 69.284 243.184C69.652 242.888 69.836 242.496 69.836 242.008C69.836 241.592 69.696 241.272 69.416 241.048C69.136 240.816 68.756 240.7 68.276 240.7C67.812 240.7 67.416 240.768 67.088 240.904C66.76 241.04 66.436 241.212 66.116 241.42L65.588 240.7C65.892 240.46 66.268 240.252 66.716 240.076C67.172 239.9 67.688 239.812 68.264 239.812C69.16 239.812 69.824 240.012 70.256 240.412C70.696 240.812 70.916 241.32 70.916 241.936ZM78.1432 244.204C78.1432 245.132 78.0472 245.924 77.8552 246.58C77.6632 247.236 77.3552 247.74 76.9312 248.092C76.5152 248.444 75.9672 248.62 75.2872 248.62C74.3192 248.62 73.6032 248.232 73.1392 247.456C72.6832 246.672 72.4552 245.588 72.4552 244.204C72.4552 243.276 72.5472 242.484 72.7312 241.828C72.9232 241.172 73.2272 240.672 73.6432 240.328C74.0592 239.976 74.6072 239.8 75.2872 239.8C76.2472 239.8 76.9632 240.188 77.4352 240.964C77.9072 241.732 78.1432 242.812 78.1432 244.204ZM73.5112 244.204C73.5112 245.38 73.6432 246.26 73.9072 246.844C74.1792 247.428 74.6392 247.72 75.2872 247.72C75.9272 247.72 76.3832 247.432 76.6552 246.856C76.9352 246.272 77.0752 245.388 77.0752 244.204C77.0752 243.036 76.9352 242.16 76.6552 241.576C76.3832 240.992 75.9272 240.7 75.2872 240.7C74.6392 240.7 74.1792 240.992 73.9072 241.576C73.6432 242.16 73.5112 243.036 73.5112 244.204ZM89.9276 241.948C90.6556 241.948 91.1996 242.136 91.5596 242.512C91.9196 242.888 92.0996 243.488 92.0996 244.312V248.5H91.0556V244.36C91.0556 243.344 90.6196 242.836 89.7476 242.836C89.1236 242.836 88.6756 243.016 88.4036 243.376C88.1396 243.736 88.0076 244.26 88.0076 244.948V248.5H86.9636V244.36C86.9636 243.344 86.5236 242.836 85.6436 242.836C84.9956 242.836 84.5476 243.036 84.2996 243.436C84.0516 243.836 83.9276 244.412 83.9276 245.164V248.5H82.8716V242.068H83.7236L83.8796 242.944H83.9396C84.1396 242.608 84.4076 242.36 84.7436 242.2C85.0876 242.032 85.4516 241.948 85.8356 241.948C86.8436 241.948 87.4996 242.308 87.8036 243.028H87.8636C88.0796 242.66 88.3716 242.388 88.7396 242.212C89.1076 242.036 89.5036 241.948 89.9276 241.948ZM94.6264 239.656C94.7864 239.656 94.9264 239.712 95.0464 239.824C95.1744 239.928 95.2384 240.096 95.2384 240.328C95.2384 240.56 95.1744 240.732 95.0464 240.844C94.9264 240.948 94.7864 241 94.6264 241C94.4504 241 94.3024 240.948 94.1824 240.844C94.0624 240.732 94.0024 240.56 94.0024 240.328C94.0024 240.096 94.0624 239.928 94.1824 239.824C94.3024 239.712 94.4504 239.656 94.6264 239.656ZM95.1424 242.068V248.5H94.0864V242.068H95.1424ZM100.276 241.948C101.044 241.948 101.624 242.136 102.016 242.512C102.408 242.888 102.604 243.488 102.604 244.312V248.5H101.56V244.384C101.56 243.352 101.08 242.836 100.12 242.836C99.4082 242.836 98.9162 243.036 98.6442 243.436C98.3722 243.836 98.2362 244.412 98.2362 245.164V248.5H97.1802V242.068H98.0322L98.1882 242.944H98.2482C98.4562 242.608 98.7442 242.36 99.1122 242.2C99.4802 242.032 99.8682 241.948 100.276 241.948Z" fill="#323232"/>
<rect width="118" height="64" transform="translate(107 200.5)" fill="white"/>
<path d="M122.028 224.826C122.028 225.713 121.706 226.403 121.062 226.898C120.418 227.393 119.55 227.64 118.458 227.64C117.898 227.64 117.38 227.598 116.904 227.514C116.428 227.43 116.031 227.313 115.714 227.164V225.96C116.05 226.109 116.465 226.245 116.96 226.366C117.464 226.487 117.982 226.548 118.514 226.548C119.251 226.548 119.811 226.403 120.194 226.114C120.577 225.825 120.768 225.433 120.768 224.938C120.768 224.611 120.698 224.336 120.558 224.112C120.418 223.888 120.175 223.683 119.83 223.496C119.485 223.309 119.013 223.104 118.416 222.88C117.557 222.572 116.913 222.194 116.484 221.746C116.055 221.298 115.84 220.687 115.84 219.912C115.84 219.389 115.975 218.937 116.246 218.554C116.517 218.171 116.89 217.877 117.366 217.672C117.842 217.467 118.397 217.364 119.032 217.364C119.573 217.364 120.073 217.415 120.53 217.518C120.987 217.621 121.407 217.756 121.79 217.924L121.398 219.002C121.053 218.853 120.675 218.727 120.264 218.624C119.853 218.521 119.433 218.47 119.004 218.47C118.379 218.47 117.907 218.605 117.59 218.876C117.273 219.137 117.114 219.487 117.114 219.926C117.114 220.262 117.184 220.542 117.324 220.766C117.464 220.99 117.693 221.195 118.01 221.382C118.327 221.559 118.757 221.746 119.298 221.942C119.886 222.157 120.381 222.39 120.782 222.642C121.193 222.885 121.501 223.179 121.706 223.524C121.921 223.869 122.028 224.303 122.028 224.826ZM127.444 219.856C128.368 219.856 129.11 220.178 129.67 220.822C130.239 221.466 130.524 222.437 130.524 223.734C130.524 225.013 130.239 225.983 129.67 226.646C129.11 227.309 128.363 227.64 127.43 227.64C126.851 227.64 126.37 227.533 125.988 227.318C125.614 227.103 125.32 226.847 125.106 226.548H125.022C125.031 226.707 125.045 226.907 125.064 227.15C125.092 227.393 125.106 227.603 125.106 227.78V230.86H123.874V219.996H124.882L125.05 221.018H125.106C125.33 220.691 125.624 220.416 125.988 220.192C126.352 219.968 126.837 219.856 127.444 219.856ZM127.22 220.892C126.454 220.892 125.913 221.107 125.596 221.536C125.278 221.965 125.115 222.619 125.106 223.496V223.734C125.106 224.658 125.255 225.372 125.554 225.876C125.862 226.371 126.426 226.618 127.248 226.618C127.696 226.618 128.069 226.497 128.368 226.254C128.666 226.002 128.886 225.657 129.026 225.218C129.175 224.779 129.25 224.28 129.25 223.72C129.25 222.861 129.082 222.175 128.746 221.662C128.419 221.149 127.91 220.892 127.22 220.892ZM135.987 219.856C136.127 219.856 136.276 219.865 136.435 219.884C136.594 219.893 136.738 219.912 136.869 219.94L136.715 221.074C136.594 221.046 136.458 221.023 136.309 221.004C136.16 220.985 136.024 220.976 135.903 220.976C135.52 220.976 135.161 221.083 134.825 221.298C134.489 221.503 134.218 221.797 134.013 222.18C133.817 222.553 133.719 222.992 133.719 223.496V227.5H132.487V219.996H133.495L133.635 221.368H133.691C133.924 220.957 134.232 220.603 134.615 220.304C135.007 220.005 135.464 219.856 135.987 219.856ZM138.9 217.182C139.087 217.182 139.25 217.247 139.39 217.378C139.539 217.499 139.614 217.695 139.614 217.966C139.614 218.237 139.539 218.437 139.39 218.568C139.25 218.689 139.087 218.75 138.9 218.75C138.695 218.75 138.522 218.689 138.382 218.568C138.242 218.437 138.172 218.237 138.172 217.966C138.172 217.695 138.242 217.499 138.382 217.378C138.522 217.247 138.695 217.182 138.9 217.182ZM139.502 219.996V227.5H138.27V219.996H139.502ZM145.491 219.856C146.387 219.856 147.064 220.075 147.521 220.514C147.979 220.953 148.207 221.653 148.207 222.614V227.5H146.989V222.698C146.989 221.494 146.429 220.892 145.309 220.892C144.479 220.892 143.905 221.125 143.587 221.592C143.27 222.059 143.111 222.731 143.111 223.608V227.5H141.879V219.996H142.873L143.055 221.018H143.125C143.368 220.626 143.704 220.337 144.133 220.15C144.563 219.954 145.015 219.856 145.491 219.856ZM153.04 226.632C153.226 226.632 153.418 226.618 153.614 226.59C153.81 226.562 153.968 226.525 154.09 226.478V227.416C153.959 227.481 153.772 227.533 153.53 227.57C153.287 227.617 153.054 227.64 152.83 227.64C152.438 227.64 152.074 227.575 151.738 227.444C151.411 227.304 151.145 227.066 150.94 226.73C150.734 226.394 150.632 225.923 150.632 225.316V220.948H149.568V220.36L150.646 219.87L151.136 218.274H151.864V219.996H154.034V220.948H151.864V225.288C151.864 225.745 151.971 226.086 152.186 226.31C152.41 226.525 152.694 226.632 153.04 226.632ZM162.043 217.504C163.35 217.504 164.302 217.761 164.899 218.274C165.496 218.787 165.795 219.511 165.795 220.444C165.795 220.995 165.669 221.513 165.417 221.998C165.174 222.474 164.759 222.861 164.171 223.16C163.592 223.459 162.804 223.608 161.805 223.608H160.657V227.5H159.397V217.504H162.043ZM161.931 218.582H160.657V222.53H161.665C162.617 222.53 163.326 222.376 163.793 222.068C164.26 221.76 164.493 221.237 164.493 220.5C164.493 219.856 164.283 219.375 163.863 219.058C163.452 218.741 162.808 218.582 161.931 218.582ZM168.938 227.5H167.706V216.86H168.938V227.5ZM174.157 219.87C175.072 219.87 175.748 220.071 176.187 220.472C176.626 220.873 176.845 221.513 176.845 222.39V227.5H175.949L175.711 226.436H175.655C175.328 226.847 174.983 227.15 174.619 227.346C174.255 227.542 173.76 227.64 173.135 227.64C172.454 227.64 171.889 227.463 171.441 227.108C170.993 226.744 170.769 226.179 170.769 225.414C170.769 224.667 171.063 224.093 171.651 223.692C172.239 223.281 173.144 223.057 174.367 223.02L175.641 222.978V222.53C175.641 221.905 175.506 221.471 175.235 221.228C174.964 220.985 174.582 220.864 174.087 220.864C173.695 220.864 173.322 220.925 172.967 221.046C172.612 221.158 172.281 221.289 171.973 221.438L171.595 220.514C171.922 220.337 172.309 220.187 172.757 220.066C173.205 219.935 173.672 219.87 174.157 219.87ZM175.627 223.832L174.521 223.874C173.588 223.911 172.939 224.061 172.575 224.322C172.22 224.583 172.043 224.952 172.043 225.428C172.043 225.848 172.169 226.156 172.421 226.352C172.682 226.548 173.014 226.646 173.415 226.646C174.04 226.646 174.563 226.473 174.983 226.128C175.412 225.773 175.627 225.232 175.627 224.504V223.832ZM182.775 219.856C183.671 219.856 184.347 220.075 184.805 220.514C185.262 220.953 185.491 221.653 185.491 222.614V227.5H184.273V222.698C184.273 221.494 183.713 220.892 182.593 220.892C181.762 220.892 181.188 221.125 180.871 221.592C180.553 222.059 180.395 222.731 180.395 223.608V227.5H179.163V219.996H180.157L180.339 221.018H180.409C180.651 220.626 180.987 220.337 181.417 220.15C181.846 219.954 182.299 219.856 182.775 219.856ZM191.429 219.856C192.325 219.856 193.002 220.075 193.459 220.514C193.916 220.953 194.145 221.653 194.145 222.614V227.5H192.927V222.698C192.927 221.494 192.367 220.892 191.247 220.892C190.416 220.892 189.842 221.125 189.525 221.592C189.208 222.059 189.049 222.731 189.049 223.608V227.5H187.817V219.996H188.811L188.993 221.018H189.063C189.306 220.626 189.642 220.337 190.071 220.15C190.5 219.954 190.953 219.856 191.429 219.856ZM197.101 217.182C197.288 217.182 197.451 217.247 197.591 217.378C197.741 217.499 197.815 217.695 197.815 217.966C197.815 218.237 197.741 218.437 197.591 218.568C197.451 218.689 197.288 218.75 197.101 218.75C196.896 218.75 196.723 218.689 196.583 218.568C196.443 218.437 196.373 218.237 196.373 217.966C196.373 217.695 196.443 217.499 196.583 217.378C196.723 217.247 196.896 217.182 197.101 217.182ZM197.703 219.996V227.5H196.471V219.996H197.703ZM203.693 219.856C204.589 219.856 205.265 220.075 205.723 220.514C206.18 220.953 206.409 221.653 206.409 222.614V227.5H205.191V222.698C205.191 221.494 204.631 220.892 203.511 220.892C202.68 220.892 202.106 221.125 201.789 221.592C201.471 222.059 201.313 222.731 201.313 223.608V227.5H200.081V219.996H201.075L201.257 221.018H201.327C201.569 220.626 201.905 220.337 202.335 220.15C202.764 219.954 203.217 219.856 203.693 219.856ZM211.395 219.856C211.89 219.856 212.333 219.949 212.725 220.136C213.126 220.323 213.467 220.607 213.747 220.99H213.817L213.985 219.996H214.965V227.626C214.965 228.699 214.69 229.507 214.139 230.048C213.598 230.589 212.753 230.86 211.605 230.86C210.504 230.86 209.603 230.701 208.903 230.384V229.25C209.64 229.642 210.564 229.838 211.675 229.838C212.319 229.838 212.823 229.647 213.187 229.264C213.56 228.891 213.747 228.377 213.747 227.724V227.43C213.747 227.318 213.752 227.159 213.761 226.954C213.77 226.739 213.78 226.59 213.789 226.506H213.733C213.229 227.262 212.454 227.64 211.409 227.64C210.438 227.64 209.678 227.299 209.127 226.618C208.586 225.937 208.315 224.985 208.315 223.762C208.315 222.567 208.586 221.62 209.127 220.92C209.678 220.211 210.434 219.856 211.395 219.856ZM211.563 220.892C210.938 220.892 210.452 221.144 210.107 221.648C209.762 222.143 209.589 222.852 209.589 223.776C209.589 224.7 209.757 225.409 210.093 225.904C210.429 226.389 210.928 226.632 211.591 226.632C212.347 226.632 212.898 226.431 213.243 226.03C213.588 225.619 213.761 224.961 213.761 224.056V223.762C213.761 222.745 213.584 222.012 213.229 221.564C212.874 221.116 212.319 220.892 211.563 220.892Z" fill="black"/>
<path d="M121.024 247.208C121.024 247.968 120.748 248.56 120.196 248.984C119.644 249.408 118.9 249.62 117.964 249.62C117.484 249.62 117.04 249.584 116.632 249.512C116.224 249.44 115.884 249.34 115.612 249.212V248.18C115.9 248.308 116.256 248.424 116.68 248.528C117.112 248.632 117.556 248.684 118.012 248.684C118.644 248.684 119.124 248.56 119.452 248.312C119.78 248.064 119.944 247.728 119.944 247.304C119.944 247.024 119.884 246.788 119.764 246.596C119.644 246.404 119.436 246.228 119.14 246.068C118.844 245.908 118.44 245.732 117.928 245.54C117.192 245.276 116.64 244.952 116.272 244.568C115.904 244.184 115.72 243.66 115.72 242.996C115.72 242.548 115.836 242.16 116.068 241.832C116.3 241.504 116.62 241.252 117.028 241.076C117.436 240.9 117.912 240.812 118.456 240.812C118.92 240.812 119.348 240.856 119.74 240.944C120.132 241.032 120.492 241.148 120.82 241.292L120.484 242.216C120.188 242.088 119.864 241.98 119.512 241.892C119.16 241.804 118.8 241.76 118.432 241.76C117.896 241.76 117.492 241.876 117.22 242.108C116.948 242.332 116.812 242.632 116.812 243.008C116.812 243.296 116.872 243.536 116.992 243.728C117.112 243.92 117.308 244.096 117.58 244.256C117.852 244.408 118.22 244.568 118.684 244.736C119.188 244.92 119.612 245.12 119.956 245.336C120.308 245.544 120.572 245.796 120.748 246.092C120.932 246.388 121.024 246.76 121.024 247.208ZM125.666 242.948C126.458 242.948 127.094 243.224 127.574 243.776C128.062 244.328 128.306 245.16 128.306 246.272C128.306 247.368 128.062 248.2 127.574 248.768C127.094 249.336 126.454 249.62 125.654 249.62C125.158 249.62 124.746 249.528 124.418 249.344C124.098 249.16 123.846 248.94 123.662 248.684H123.59C123.598 248.82 123.61 248.992 123.626 249.2C123.65 249.408 123.662 249.588 123.662 249.74V252.38H122.606V243.068H123.47L123.614 243.944H123.662C123.854 243.664 124.106 243.428 124.418 243.236C124.73 243.044 125.146 242.948 125.666 242.948ZM125.474 243.836C124.818 243.836 124.354 244.02 124.082 244.388C123.81 244.756 123.67 245.316 123.662 246.068V246.272C123.662 247.064 123.79 247.676 124.046 248.108C124.31 248.532 124.794 248.744 125.498 248.744C125.882 248.744 126.202 248.64 126.458 248.432C126.714 248.216 126.902 247.92 127.022 247.544C127.15 247.168 127.214 246.74 127.214 246.26C127.214 245.524 127.07 244.936 126.782 244.496C126.502 244.056 126.066 243.836 125.474 243.836ZM132.989 242.948C133.109 242.948 133.237 242.956 133.373 242.972C133.509 242.98 133.633 242.996 133.745 243.02L133.613 243.992C133.509 243.968 133.393 243.948 133.265 243.932C133.137 243.916 133.021 243.908 132.917 243.908C132.589 243.908 132.281 244 131.993 244.184C131.705 244.36 131.473 244.612 131.297 244.94C131.129 245.26 131.045 245.636 131.045 246.068V249.5H129.989V243.068H130.853L130.973 244.244H131.021C131.221 243.892 131.485 243.588 131.813 243.332C132.149 243.076 132.541 242.948 132.989 242.948ZM135.486 240.656C135.646 240.656 135.786 240.712 135.906 240.824C136.034 240.928 136.098 241.096 136.098 241.328C136.098 241.56 136.034 241.732 135.906 241.844C135.786 241.948 135.646 242 135.486 242C135.31 242 135.162 241.948 135.042 241.844C134.922 241.732 134.862 241.56 134.862 241.328C134.862 241.096 134.922 240.928 135.042 240.824C135.162 240.712 135.31 240.656 135.486 240.656ZM136.002 243.068V249.5H134.946V243.068H136.002ZM141.136 242.948C141.904 242.948 142.484 243.136 142.876 243.512C143.268 243.888 143.464 244.488 143.464 245.312V249.5H142.42V245.384C142.42 244.352 141.94 243.836 140.98 243.836C140.268 243.836 139.776 244.036 139.504 244.436C139.232 244.836 139.096 245.412 139.096 246.164V249.5H138.04V243.068H138.892L139.048 243.944H139.108C139.316 243.608 139.604 243.36 139.972 243.2C140.34 243.032 140.728 242.948 141.136 242.948ZM147.605 248.756C147.766 248.756 147.93 248.744 148.098 248.72C148.266 248.696 148.402 248.664 148.506 248.624V249.428C148.394 249.484 148.234 249.528 148.026 249.56C147.818 249.6 147.618 249.62 147.426 249.62C147.09 249.62 146.778 249.564 146.49 249.452C146.21 249.332 145.982 249.128 145.806 248.84C145.63 248.552 145.542 248.148 145.542 247.628V243.884H144.63V243.38L145.554 242.96L145.974 241.592H146.598V243.068H148.458V243.884H146.598V247.604C146.598 247.996 146.69 248.288 146.874 248.48C147.066 248.664 147.31 248.756 147.605 248.756ZM153.967 249.5H152.911V240.38H153.967V249.5ZM158.488 242.948C159.032 242.948 159.504 243.068 159.904 243.308C160.304 243.548 160.608 243.888 160.816 244.328C161.032 244.76 161.14 245.268 161.14 245.852V246.488H156.736C156.752 247.216 156.936 247.772 157.288 248.156C157.648 248.532 158.148 248.72 158.788 248.72C159.196 248.72 159.556 248.684 159.868 248.612C160.188 248.532 160.516 248.42 160.852 248.276V249.2C160.524 249.344 160.2 249.448 159.88 249.512C159.56 249.584 159.18 249.62 158.74 249.62C158.124 249.62 157.584 249.496 157.12 249.248C156.656 249 156.292 248.632 156.028 248.144C155.772 247.656 155.644 247.052 155.644 246.332C155.644 245.628 155.76 245.024 155.992 244.52C156.232 244.016 156.564 243.628 156.988 243.356C157.42 243.084 157.92 242.948 158.488 242.948ZM158.476 243.812C157.972 243.812 157.572 243.976 157.276 244.304C156.988 244.624 156.816 245.072 156.76 245.648H160.036C160.028 245.104 159.9 244.664 159.652 244.328C159.404 243.984 159.012 243.812 158.476 243.812ZM165.214 242.96C165.998 242.96 166.578 243.132 166.954 243.476C167.33 243.82 167.518 244.368 167.518 245.12V249.5H166.75L166.546 248.588H166.498C166.218 248.94 165.922 249.2 165.61 249.368C165.298 249.536 164.874 249.62 164.338 249.62C163.754 249.62 163.27 249.468 162.886 249.164C162.502 248.852 162.31 248.368 162.31 247.712C162.31 247.072 162.562 246.58 163.066 246.236C163.57 245.884 164.346 245.692 165.394 245.66L166.486 245.624V245.24C166.486 244.704 166.37 244.332 166.138 244.124C165.906 243.916 165.578 243.812 165.154 243.812C164.818 243.812 164.498 243.864 164.194 243.968C163.89 244.064 163.606 244.176 163.342 244.304L163.018 243.512C163.298 243.36 163.63 243.232 164.014 243.128C164.398 243.016 164.798 242.96 165.214 242.96ZM166.474 246.356L165.526 246.392C164.726 246.424 164.17 246.552 163.858 246.776C163.554 247 163.402 247.316 163.402 247.724C163.402 248.084 163.51 248.348 163.726 248.516C163.95 248.684 164.234 248.768 164.578 248.768C165.114 248.768 165.562 248.62 165.922 248.324C166.29 248.02 166.474 247.556 166.474 246.932V246.356ZM171.784 249.62C170.984 249.62 170.344 249.344 169.864 248.792C169.384 248.232 169.144 247.4 169.144 246.296C169.144 245.192 169.384 244.36 169.864 243.8C170.352 243.232 170.996 242.948 171.796 242.948C172.292 242.948 172.696 243.04 173.008 243.224C173.328 243.408 173.588 243.632 173.788 243.896H173.86C173.844 243.792 173.828 243.64 173.812 243.44C173.796 243.232 173.788 243.068 173.788 242.948V240.38H174.844V249.5H173.992L173.836 248.636H173.788C173.596 248.908 173.34 249.14 173.02 249.332C172.7 249.524 172.288 249.62 171.784 249.62ZM171.952 248.744C172.632 248.744 173.108 248.56 173.38 248.192C173.66 247.816 173.8 247.252 173.8 246.5V246.308C173.8 245.508 173.668 244.896 173.404 244.472C173.14 244.04 172.652 243.824 171.94 243.824C171.372 243.824 170.944 244.052 170.656 244.508C170.376 244.956 170.236 245.56 170.236 246.32C170.236 247.088 170.376 247.684 170.656 248.108C170.944 248.532 171.376 248.744 171.952 248.744ZM181.075 247.724C181.075 248.348 180.843 248.82 180.379 249.14C179.915 249.46 179.291 249.62 178.507 249.62C178.059 249.62 177.671 249.584 177.343 249.512C177.023 249.44 176.739 249.34 176.491 249.212V248.252C176.747 248.38 177.055 248.5 177.415 248.612C177.783 248.716 178.155 248.768 178.531 248.768C179.067 248.768 179.455 248.684 179.695 248.516C179.935 248.34 180.055 248.108 180.055 247.82C180.055 247.66 180.011 247.516 179.923 247.388C179.835 247.26 179.675 247.132 179.443 247.004C179.219 246.876 178.895 246.732 178.471 246.572C178.055 246.412 177.699 246.252 177.403 246.092C177.107 245.932 176.879 245.74 176.719 245.516C176.559 245.292 176.479 245.004 176.479 244.652C176.479 244.108 176.699 243.688 177.139 243.392C177.587 243.096 178.171 242.948 178.891 242.948C179.283 242.948 179.647 242.988 179.983 243.068C180.327 243.148 180.647 243.252 180.943 243.38L180.583 244.22C180.311 244.108 180.027 244.012 179.731 243.932C179.435 243.852 179.131 243.812 178.819 243.812C178.387 243.812 178.055 243.884 177.823 244.028C177.599 244.164 177.487 244.352 177.487 244.592C177.487 244.776 177.539 244.928 177.643 245.048C177.747 245.168 177.919 245.288 178.159 245.408C178.407 245.528 178.735 245.664 179.143 245.816C179.551 245.968 179.899 246.124 180.187 246.284C180.475 246.444 180.695 246.64 180.847 246.872C180.999 247.096 181.075 247.38 181.075 247.724Z" fill="#323232"/>
<rect width="313" height="65" transform="translate(49 71)" fill="white"/>
<rect width="47" height="60" transform="translate(57 74.5)" fill="white"/>
<path d="M69.26 99.5H68.228V93.512C68.228 93.168 68.232 92.892 68.24 92.684C68.248 92.476 68.26 92.26 68.276 92.036C68.148 92.164 68.028 92.272 67.916 92.36C67.812 92.448 67.684 92.56 67.532 92.696L66.62 93.44L66.068 92.732L68.384 90.932H69.26V99.5ZM77.7832 92.936C77.7832 93.512 77.6192 93.972 77.2912 94.316C76.9712 94.652 76.5432 94.876 76.0072 94.988V95.036C76.6872 95.116 77.1952 95.332 77.5312 95.684C77.8752 96.036 78.0472 96.496 78.0472 97.064C78.0472 97.568 77.9312 98.012 77.6992 98.396C77.4672 98.78 77.1072 99.08 76.6192 99.296C76.1392 99.512 75.5192 99.62 74.7592 99.62C74.3112 99.62 73.8952 99.584 73.5112 99.512C73.1272 99.448 72.7592 99.328 72.4072 99.152V98.168C72.7672 98.352 73.1552 98.492 73.5712 98.588C73.9872 98.684 74.3872 98.732 74.7712 98.732C75.5392 98.732 76.0912 98.584 76.4272 98.288C76.7712 97.984 76.9432 97.568 76.9432 97.04C76.9432 96.504 76.7312 96.12 76.3072 95.888C75.8912 95.648 75.3032 95.528 74.5432 95.528H73.7152V94.628H74.5552C75.2592 94.628 75.7912 94.48 76.1512 94.184C76.5192 93.888 76.7032 93.496 76.7032 93.008C76.7032 92.592 76.5632 92.272 76.2832 92.048C76.0032 91.816 75.6232 91.7 75.1432 91.7C74.6792 91.7 74.2832 91.768 73.9552 91.904C73.6272 92.04 73.3032 92.212 72.9832 92.42L72.4552 91.7C72.7592 91.46 73.1352 91.252 73.5832 91.076C74.0392 90.9 74.5552 90.812 75.1312 90.812C76.0272 90.812 76.6912 91.012 77.1232 91.412C77.5632 91.812 77.7832 92.32 77.7832 92.936ZM79.5984 93.716C79.5984 93.412 79.6704 93.2 79.8144 93.08C79.9584 92.96 80.1304 92.9 80.3304 92.9C80.5304 92.9 80.7064 92.96 80.8584 93.08C81.0104 93.2 81.0864 93.412 81.0864 93.716C81.0864 94.004 81.0104 94.212 80.8584 94.34C80.7064 94.468 80.5304 94.532 80.3304 94.532C80.1304 94.532 79.9584 94.468 79.8144 94.34C79.6704 94.212 79.5984 94.004 79.5984 93.716ZM79.5984 98.852C79.5984 98.556 79.6704 98.348 79.8144 98.228C79.9584 98.108 80.1304 98.048 80.3304 98.048C80.5304 98.048 80.7064 98.108 80.8584 98.228C81.0104 98.348 81.0864 98.556 81.0864 98.852C81.0864 99.14 81.0104 99.348 80.8584 99.476C80.7064 99.604 80.5304 99.668 80.3304 99.668C80.1304 99.668 79.9584 99.604 79.8144 99.476C79.6704 99.348 79.5984 99.14 79.5984 98.852ZM87.8613 92.936C87.8613 93.512 87.6973 93.972 87.3693 94.316C87.0493 94.652 86.6213 94.876 86.0853 94.988V95.036C86.7653 95.116 87.2733 95.332 87.6093 95.684C87.9533 96.036 88.1253 96.496 88.1253 97.064C88.1253 97.568 88.0093 98.012 87.7773 98.396C87.5453 98.78 87.1853 99.08 86.6973 99.296C86.2173 99.512 85.5973 99.62 84.8373 99.62C84.3893 99.62 83.9733 99.584 83.5893 99.512C83.2053 99.448 82.8373 99.328 82.4853 99.152V98.168C82.8453 98.352 83.2333 98.492 83.6493 98.588C84.0653 98.684 84.4653 98.732 84.8493 98.732C85.6173 98.732 86.1693 98.584 86.5053 98.288C86.8493 97.984 87.0213 97.568 87.0213 97.04C87.0213 96.504 86.8093 96.12 86.3853 95.888C85.9693 95.648 85.3813 95.528 84.6213 95.528H83.7933V94.628H84.6333C85.3373 94.628 85.8693 94.48 86.2293 94.184C86.5973 93.888 86.7813 93.496 86.7813 93.008C86.7813 92.592 86.6413 92.272 86.3613 92.048C86.0813 91.816 85.7013 91.7 85.2213 91.7C84.7573 91.7 84.3613 91.768 84.0333 91.904C83.7053 92.04 83.3813 92.212 83.0613 92.42L82.5333 91.7C82.8373 91.46 83.2133 91.252 83.6613 91.076C84.1173 90.9 84.6333 90.812 85.2093 90.812C86.1053 90.812 86.7693 91.012 87.2013 91.412C87.6413 91.812 87.8613 92.32 87.8613 92.936ZM95.0885 95.204C95.0885 96.132 94.9925 96.924 94.8005 97.58C94.6085 98.236 94.3005 98.74 93.8765 99.092C93.4605 99.444 92.9125 99.62 92.2325 99.62C91.2645 99.62 90.5485 99.232 90.0845 98.456C89.6285 97.672 89.4005 96.588 89.4005 95.204C89.4005 94.276 89.4925 93.484 89.6765 92.828C89.8685 92.172 90.1725 91.672 90.5885 91.328C91.0045 90.976 91.5525 90.8 92.2325 90.8C93.1925 90.8 93.9085 91.188 94.3805 91.964C94.8525 92.732 95.0885 93.812 95.0885 95.204ZM90.4565 95.204C90.4565 96.38 90.5885 97.26 90.8525 97.844C91.1245 98.428 91.5845 98.72 92.2325 98.72C92.8725 98.72 93.3285 98.432 93.6005 97.856C93.8805 97.272 94.0205 96.388 94.0205 95.204C94.0205 94.036 93.8805 93.16 93.6005 92.576C93.3285 91.992 92.8725 91.7 92.2325 91.7C91.5845 91.7 91.1245 91.992 90.8525 92.576C90.5885 93.16 90.4565 94.036 90.4565 95.204Z" fill="#323232"/>
<path d="M69.26 119.5H68.228V113.512C68.228 113.168 68.232 112.892 68.24 112.684C68.248 112.476 68.26 112.26 68.276 112.036C68.148 112.164 68.028 112.272 67.916 112.36C67.812 112.448 67.684 112.56 67.532 112.696L66.62 113.44L66.068 112.732L68.384 110.932H69.26V119.5ZM77.0604 110.38V113.056C77.0604 113.376 77.0404 113.676 77.0004 113.956H77.0724C77.2804 113.628 77.5604 113.38 77.9124 113.212C78.2724 113.044 78.6604 112.96 79.0764 112.96C79.8524 112.96 80.4364 113.148 80.8284 113.524C81.2284 113.892 81.4284 114.488 81.4284 115.312V119.5H80.3844V115.384C80.3844 114.352 79.9044 113.836 78.9444 113.836C78.2244 113.836 77.7284 114.04 77.4564 114.448C77.1924 114.848 77.0604 115.424 77.0604 116.176V119.5H76.0044V110.38H77.0604ZM86.4223 112.948C86.5423 112.948 86.6703 112.956 86.8063 112.972C86.9423 112.98 87.0663 112.996 87.1783 113.02L87.0463 113.992C86.9423 113.968 86.8263 113.948 86.6983 113.932C86.5703 113.916 86.4543 113.908 86.3503 113.908C86.0223 113.908 85.7143 114 85.4263 114.184C85.1383 114.36 84.9063 114.612 84.7303 114.94C84.5623 115.26 84.4783 115.636 84.4783 116.068V119.5H83.4223V113.068H84.2863L84.4063 114.244H84.4543C84.6543 113.892 84.9183 113.588 85.2463 113.332C85.5823 113.076 85.9743 112.948 86.4223 112.948Z" fill="#323232"/>
<rect width="120" height="64" transform="translate(107 71.5)" fill="white"/>
<path d="M116.358 98.5V88.504H117.618V97.38H121.986V98.5H116.358ZM129.804 90.996V98.5H128.796L128.614 97.506H128.558C128.315 97.898 127.979 98.1873 127.55 98.374C127.12 98.5513 126.663 98.64 126.178 98.64C125.272 98.64 124.591 98.4253 124.134 97.996C123.676 97.5573 123.448 96.862 123.448 95.91V90.996H124.694V95.826C124.694 97.0207 125.249 97.618 126.36 97.618C127.19 97.618 127.764 97.3847 128.082 96.918C128.408 96.4513 128.572 95.7793 128.572 94.902V90.996H129.804ZM135.798 90.856C136.694 90.856 137.371 91.0753 137.828 91.514C138.285 91.9527 138.514 92.6527 138.514 93.614V98.5H137.296V93.698C137.296 92.494 136.736 91.892 135.616 91.892C134.785 91.892 134.211 92.1253 133.894 92.592C133.577 93.0587 133.418 93.7307 133.418 94.608V98.5H132.186V90.996H133.18L133.362 92.018H133.432C133.675 91.626 134.011 91.3367 134.44 91.15C134.869 90.954 135.322 90.856 135.798 90.856ZM143.85 98.64C143.178 98.64 142.586 98.5047 142.072 98.234C141.559 97.9633 141.153 97.5433 140.854 96.974C140.565 96.4047 140.42 95.6767 140.42 94.79C140.42 93.866 140.57 93.1147 140.868 92.536C141.176 91.9573 141.596 91.5327 142.128 91.262C142.66 90.9913 143.262 90.856 143.934 90.856C144.308 90.856 144.672 90.898 145.026 90.982C145.39 91.0567 145.684 91.15 145.908 91.262L145.53 92.284C145.306 92.2 145.045 92.1207 144.746 92.046C144.448 91.9713 144.168 91.934 143.906 91.934C142.432 91.934 141.694 92.8813 141.694 94.776C141.694 95.6813 141.872 96.3767 142.226 96.862C142.59 97.338 143.127 97.576 143.836 97.576C144.238 97.576 144.597 97.534 144.914 97.45C145.232 97.366 145.521 97.2633 145.782 97.142V98.234C145.53 98.3647 145.25 98.4627 144.942 98.528C144.644 98.6027 144.28 98.64 143.85 98.64ZM148.799 87.86V90.982C148.799 91.3553 148.776 91.7053 148.729 92.032H148.813C149.056 91.6493 149.382 91.36 149.793 91.164C150.213 90.968 150.666 90.87 151.151 90.87C152.056 90.87 152.738 91.0893 153.195 91.528C153.662 91.9573 153.895 92.6527 153.895 93.614V98.5H152.677V93.698C152.677 92.494 152.117 91.892 150.997 91.892C150.157 91.892 149.578 92.13 149.261 92.606C148.953 93.0727 148.799 93.7447 148.799 94.622V98.5H147.567V87.86H148.799ZM165.696 95.826C165.696 96.7127 165.374 97.4033 164.73 97.898C164.086 98.3927 163.218 98.64 162.126 98.64C161.566 98.64 161.048 98.598 160.572 98.514C160.096 98.43 159.699 98.3133 159.382 98.164V96.96C159.718 97.1093 160.133 97.2447 160.628 97.366C161.132 97.4873 161.65 97.548 162.182 97.548C162.919 97.548 163.479 97.4033 163.862 97.114C164.245 96.8247 164.436 96.4327 164.436 95.938C164.436 95.6113 164.366 95.336 164.226 95.112C164.086 94.888 163.843 94.6827 163.498 94.496C163.153 94.3093 162.681 94.104 162.084 93.88C161.225 93.572 160.581 93.194 160.152 92.746C159.723 92.298 159.508 91.6867 159.508 90.912C159.508 90.3893 159.643 89.9367 159.914 89.554C160.185 89.1713 160.558 88.8773 161.034 88.672C161.51 88.4667 162.065 88.364 162.7 88.364C163.241 88.364 163.741 88.4153 164.198 88.518C164.655 88.6207 165.075 88.756 165.458 88.924L165.066 90.002C164.721 89.8527 164.343 89.7267 163.932 89.624C163.521 89.5213 163.101 89.47 162.672 89.47C162.047 89.47 161.575 89.6053 161.258 89.876C160.941 90.1373 160.782 90.4873 160.782 90.926C160.782 91.262 160.852 91.542 160.992 91.766C161.132 91.99 161.361 92.1953 161.678 92.382C161.995 92.5593 162.425 92.746 162.966 92.942C163.554 93.1567 164.049 93.39 164.45 93.642C164.861 93.8847 165.169 94.1787 165.374 94.524C165.589 94.8693 165.696 95.3033 165.696 95.826ZM174.066 94.734C174.066 95.9753 173.748 96.9367 173.114 97.618C172.488 98.2993 171.639 98.64 170.566 98.64C169.903 98.64 169.31 98.4907 168.788 98.192C168.274 97.884 167.868 97.4407 167.57 96.862C167.271 96.274 167.122 95.5647 167.122 94.734C167.122 93.4927 167.43 92.536 168.046 91.864C168.671 91.192 169.525 90.856 170.608 90.856C171.28 90.856 171.877 91.01 172.4 91.318C172.922 91.6167 173.328 92.0553 173.618 92.634C173.916 93.2033 174.066 93.9033 174.066 94.734ZM168.396 94.734C168.396 95.6207 168.568 96.3253 168.914 96.848C169.268 97.3613 169.828 97.618 170.594 97.618C171.35 97.618 171.905 97.3613 172.26 96.848C172.614 96.3253 172.792 95.6207 172.792 94.734C172.792 93.8473 172.614 93.152 172.26 92.648C171.905 92.144 171.345 91.892 170.58 91.892C169.814 91.892 169.259 92.144 168.914 92.648C168.568 93.152 168.396 93.8473 168.396 94.734ZM179.028 98.64C178.356 98.64 177.763 98.5047 177.25 98.234C176.737 97.9633 176.331 97.5433 176.032 96.974C175.743 96.4047 175.598 95.6767 175.598 94.79C175.598 93.866 175.747 93.1147 176.046 92.536C176.354 91.9573 176.774 91.5327 177.306 91.262C177.838 90.9913 178.44 90.856 179.112 90.856C179.485 90.856 179.849 90.898 180.204 90.982C180.568 91.0567 180.862 91.15 181.086 91.262L180.708 92.284C180.484 92.2 180.223 92.1207 179.924 92.046C179.625 91.9713 179.345 91.934 179.084 91.934C177.609 91.934 176.872 92.8813 176.872 94.776C176.872 95.6813 177.049 96.3767 177.404 96.862C177.768 97.338 178.305 97.576 179.014 97.576C179.415 97.576 179.775 97.534 180.092 97.45C180.409 97.366 180.699 97.2633 180.96 97.142V98.234C180.708 98.3647 180.428 98.4627 180.12 98.528C179.821 98.6027 179.457 98.64 179.028 98.64ZM183.375 88.182C183.561 88.182 183.725 88.2473 183.865 88.378C184.014 88.4993 184.089 88.6953 184.089 88.966C184.089 89.2367 184.014 89.4373 183.865 89.568C183.725 89.6893 183.561 89.75 183.375 89.75C183.169 89.75 182.997 89.6893 182.857 89.568C182.717 89.4373 182.647 89.2367 182.647 88.966C182.647 88.6953 182.717 88.4993 182.857 88.378C182.997 88.2473 183.169 88.182 183.375 88.182ZM183.977 90.996V98.5H182.745V90.996H183.977ZM189.196 90.87C190.111 90.87 190.787 91.0707 191.226 91.472C191.665 91.8733 191.884 92.5127 191.884 93.39V98.5H190.988L190.75 97.436H190.694C190.367 97.8467 190.022 98.15 189.658 98.346C189.294 98.542 188.799 98.64 188.174 98.64C187.493 98.64 186.928 98.4627 186.48 98.108C186.032 97.744 185.808 97.1793 185.808 96.414C185.808 95.6673 186.102 95.0933 186.69 94.692C187.278 94.2813 188.183 94.0573 189.406 94.02L190.68 93.978V93.53C190.68 92.9047 190.545 92.4707 190.274 92.228C190.003 91.9853 189.621 91.864 189.126 91.864C188.734 91.864 188.361 91.9247 188.006 92.046C187.651 92.158 187.32 92.2887 187.012 92.438L186.634 91.514C186.961 91.3367 187.348 91.1873 187.796 91.066C188.244 90.9353 188.711 90.87 189.196 90.87ZM190.666 94.832L189.56 94.874C188.627 94.9113 187.978 95.0607 187.614 95.322C187.259 95.5833 187.082 95.952 187.082 96.428C187.082 96.848 187.208 97.156 187.46 97.352C187.721 97.548 188.053 97.646 188.454 97.646C189.079 97.646 189.602 97.4733 190.022 97.128C190.451 96.7733 190.666 96.232 190.666 95.504V94.832ZM195.434 98.5H194.202V87.86H195.434V98.5Z" fill="black"/>
<path d="M119.944 120.5L117.124 112.988H117.076C117.1 113.236 117.12 113.572 117.136 113.996C117.152 114.412 117.16 114.848 117.16 115.304V120.5H116.164V111.932H117.76L120.4 118.952H120.448L123.136 111.932H124.72V120.5H123.652V115.232C123.652 114.816 123.66 114.404 123.676 113.996C123.7 113.588 123.72 113.256 123.736 113H123.688L120.832 120.5H119.944ZM125.899 114.068H127.027L128.419 117.728C128.539 118.056 128.647 118.364 128.743 118.652C128.839 118.94 128.911 119.216 128.959 119.48H129.007C129.055 119.28 129.131 119.02 129.235 118.7C129.339 118.372 129.447 118.044 129.559 117.716L130.867 114.068H132.007L129.235 121.388C129.003 121.996 128.711 122.48 128.359 122.84C128.007 123.2 127.519 123.38 126.895 123.38C126.703 123.38 126.535 123.368 126.391 123.344C126.247 123.328 126.123 123.308 126.019 123.284V122.444C126.107 122.46 126.211 122.476 126.331 122.492C126.459 122.508 126.591 122.516 126.727 122.516C127.095 122.516 127.391 122.412 127.615 122.204C127.839 121.996 128.019 121.72 128.155 121.376L128.491 120.524L125.899 114.068ZM140.065 120.5L137.245 112.988H137.197C137.221 113.236 137.241 113.572 137.257 113.996C137.273 114.412 137.281 114.848 137.281 115.304V120.5H136.285V111.932H137.881L140.521 118.952H140.569L143.257 111.932H144.841V120.5H143.773V115.232C143.773 114.816 143.781 114.404 143.797 113.996C143.821 113.588 143.841 113.256 143.857 113H143.809L140.953 120.5H140.065ZM149.512 113.948C150.056 113.948 150.528 114.068 150.928 114.308C151.328 114.548 151.632 114.888 151.84 115.328C152.056 115.76 152.164 116.268 152.164 116.852V117.488H147.76C147.776 118.216 147.96 118.772 148.312 119.156C148.672 119.532 149.172 119.72 149.812 119.72C150.22 119.72 150.58 119.684 150.892 119.612C151.212 119.532 151.54 119.42 151.876 119.276V120.2C151.548 120.344 151.224 120.448 150.904 120.512C150.584 120.584 150.204 120.62 149.764 120.62C149.148 120.62 148.608 120.496 148.144 120.248C147.68 120 147.316 119.632 147.052 119.144C146.796 118.656 146.668 118.052 146.668 117.332C146.668 116.628 146.784 116.024 147.016 115.52C147.256 115.016 147.588 114.628 148.012 114.356C148.444 114.084 148.944 113.948 149.512 113.948ZM149.5 114.812C148.996 114.812 148.596 114.976 148.3 115.304C148.012 115.624 147.84 116.072 147.784 116.648H151.06C151.052 116.104 150.924 115.664 150.676 115.328C150.428 114.984 150.036 114.812 149.5 114.812ZM156.285 113.948C156.829 113.948 157.301 114.068 157.701 114.308C158.101 114.548 158.405 114.888 158.613 115.328C158.829 115.76 158.937 116.268 158.937 116.852V117.488H154.533C154.549 118.216 154.733 118.772 155.085 119.156C155.445 119.532 155.945 119.72 156.585 119.72C156.993 119.72 157.353 119.684 157.665 119.612C157.985 119.532 158.313 119.42 158.649 119.276V120.2C158.321 120.344 157.997 120.448 157.677 120.512C157.357 120.584 156.977 120.62 156.537 120.62C155.921 120.62 155.381 120.496 154.917 120.248C154.453 120 154.089 119.632 153.825 119.144C153.569 118.656 153.441 118.052 153.441 117.332C153.441 116.628 153.557 116.024 153.789 115.52C154.029 115.016 154.361 114.628 154.785 114.356C155.217 114.084 155.717 113.948 156.285 113.948ZM156.273 114.812C155.769 114.812 155.369 114.976 155.073 115.304C154.785 115.624 154.613 116.072 154.557 116.648H157.833C157.825 116.104 157.697 115.664 157.449 115.328C157.201 114.984 156.809 114.812 156.273 114.812ZM162.723 119.756C162.883 119.756 163.047 119.744 163.215 119.72C163.383 119.696 163.519 119.664 163.623 119.624V120.428C163.511 120.484 163.351 120.528 163.143 120.56C162.935 120.6 162.735 120.62 162.543 120.62C162.207 120.62 161.895 120.564 161.607 120.452C161.327 120.332 161.099 120.128 160.923 119.84C160.747 119.552 160.659 119.148 160.659 118.628V114.884H159.747V114.38L160.671 113.96L161.091 112.592H161.715V114.068H163.575V114.884H161.715V118.604C161.715 118.996 161.807 119.288 161.991 119.48C162.183 119.664 162.427 119.756 162.723 119.756ZM165.451 111.656C165.611 111.656 165.751 111.712 165.871 111.824C165.999 111.928 166.063 112.096 166.063 112.328C166.063 112.56 165.999 112.732 165.871 112.844C165.751 112.948 165.611 113 165.451 113C165.275 113 165.127 112.948 165.007 112.844C164.887 112.732 164.827 112.56 164.827 112.328C164.827 112.096 164.887 111.928 165.007 111.824C165.127 111.712 165.275 111.656 165.451 111.656ZM165.967 114.068V120.5H164.911V114.068H165.967ZM171.1 113.948C171.868 113.948 172.448 114.136 172.84 114.512C173.232 114.888 173.428 115.488 173.428 116.312V120.5H172.384V116.384C172.384 115.352 171.904 114.836 170.944 114.836C170.232 114.836 169.74 115.036 169.468 115.436C169.196 115.836 169.06 116.412 169.06 117.164V120.5H168.004V114.068H168.856L169.012 114.944H169.072C169.28 114.608 169.568 114.36 169.936 114.2C170.304 114.032 170.692 113.948 171.1 113.948ZM177.702 113.948C178.126 113.948 178.506 114.028 178.842 114.188C179.186 114.348 179.478 114.592 179.718 114.92H179.778L179.922 114.068H180.762V120.608C180.762 121.528 180.526 122.22 180.054 122.684C179.59 123.148 178.866 123.38 177.882 123.38C176.938 123.38 176.166 123.244 175.566 122.972V122C176.198 122.336 176.99 122.504 177.942 122.504C178.494 122.504 178.926 122.34 179.238 122.012C179.558 121.692 179.718 121.252 179.718 120.692V120.44C179.718 120.344 179.722 120.208 179.73 120.032C179.738 119.848 179.746 119.72 179.754 119.648H179.706C179.274 120.296 178.61 120.62 177.714 120.62C176.882 120.62 176.23 120.328 175.758 119.744C175.294 119.16 175.062 118.344 175.062 117.296C175.062 116.272 175.294 115.46 175.758 114.86C176.23 114.252 176.878 113.948 177.702 113.948ZM177.846 114.836C177.31 114.836 176.894 115.052 176.598 115.484C176.302 115.908 176.154 116.516 176.154 117.308C176.154 118.1 176.298 118.708 176.586 119.132C176.874 119.548 177.302 119.756 177.87 119.756C178.518 119.756 178.99 119.584 179.286 119.24C179.582 118.888 179.73 118.324 179.73 117.548V117.296C179.73 116.424 179.578 115.796 179.274 115.412C178.97 115.028 178.494 114.836 177.846 114.836ZM188.43 111.932C189.494 111.932 190.278 112.136 190.782 112.544C191.294 112.944 191.55 113.552 191.55 114.368C191.55 114.824 191.466 115.204 191.298 115.508C191.13 115.812 190.914 116.056 190.65 116.24C190.394 116.424 190.122 116.564 189.834 116.66L192.186 120.5H190.926L188.85 116.96H187.146V120.5H186.066V111.932H188.43ZM188.37 112.868H187.146V116.048H188.43C189.126 116.048 189.634 115.912 189.954 115.64C190.274 115.36 190.434 114.952 190.434 114.416C190.434 113.856 190.266 113.46 189.93 113.228C189.594 112.988 189.074 112.868 188.37 112.868ZM198.979 117.272C198.979 118.336 198.707 119.16 198.163 119.744C197.627 120.328 196.899 120.62 195.979 120.62C195.411 120.62 194.903 120.492 194.455 120.236C194.015 119.972 193.667 119.592 193.411 119.096C193.155 118.592 193.027 117.984 193.027 117.272C193.027 116.208 193.291 115.388 193.819 114.812C194.355 114.236 195.087 113.948 196.015 113.948C196.591 113.948 197.103 114.08 197.551 114.344C197.999 114.6 198.347 114.976 198.595 115.472C198.851 115.96 198.979 116.56 198.979 117.272ZM194.119 117.272C194.119 118.032 194.267 118.636 194.563 119.084C194.867 119.524 195.347 119.744 196.003 119.744C196.651 119.744 197.127 119.524 197.431 119.084C197.735 118.636 197.887 118.032 197.887 117.272C197.887 116.512 197.735 115.916 197.431 115.484C197.127 115.052 196.647 114.836 195.991 114.836C195.335 114.836 194.859 115.052 194.563 115.484C194.267 115.916 194.119 116.512 194.119 117.272ZM206.245 117.272C206.245 118.336 205.973 119.16 205.429 119.744C204.893 120.328 204.165 120.62 203.245 120.62C202.677 120.62 202.169 120.492 201.721 120.236C201.281 119.972 200.933 119.592 200.677 119.096C200.421 118.592 200.293 117.984 200.293 117.272C200.293 116.208 200.557 115.388 201.085 114.812C201.621 114.236 202.353 113.948 203.281 113.948C203.857 113.948 204.369 114.08 204.817 114.344C205.265 114.6 205.613 114.976 205.861 115.472C206.117 115.96 206.245 116.56 206.245 117.272ZM201.385 117.272C201.385 118.032 201.533 118.636 201.829 119.084C202.133 119.524 202.613 119.744 203.269 119.744C203.917 119.744 204.393 119.524 204.697 119.084C205.001 118.636 205.153 118.032 205.153 117.272C205.153 116.512 205.001 115.916 204.697 115.484C204.393 115.052 203.913 114.836 203.257 114.836C202.601 114.836 202.125 115.052 201.829 115.484C201.533 115.916 201.385 116.512 201.385 117.272ZM214.974 113.948C215.702 113.948 216.246 114.136 216.606 114.512C216.966 114.888 217.146 115.488 217.146 116.312V120.5H216.102V116.36C216.102 115.344 215.666 114.836 214.794 114.836C214.17 114.836 213.722 115.016 213.45 115.376C213.186 115.736 213.054 116.26 213.054 116.948V120.5H212.01V116.36C212.01 115.344 211.57 114.836 210.69 114.836C210.042 114.836 209.594 115.036 209.346 115.436C209.098 115.836 208.974 116.412 208.974 117.164V120.5H207.918V114.068H208.77L208.926 114.944H208.986C209.186 114.608 209.454 114.36 209.79 114.2C210.134 114.032 210.498 113.948 210.882 113.948C211.89 113.948 212.546 114.308 212.85 115.028H212.91C213.126 114.66 213.418 114.388 213.786 114.212C214.154 114.036 214.55 113.948 214.974 113.948Z" fill="#323232"/>
<rect width="80" height="44" transform="translate(49 27)" fill="white"/>
<path d="M69.886 54H68.094V45.516H65.224V44.004H72.756V45.516H69.886V54ZM75.0004 43.486C75.2617 43.486 75.4904 43.556 75.6864 43.696C75.8824 43.8267 75.9804 44.0647 75.9804 44.41C75.9804 44.7553 75.8824 44.998 75.6864 45.138C75.4904 45.278 75.2617 45.348 75.0004 45.348C74.7297 45.348 74.4964 45.278 74.3004 45.138C74.1137 44.998 74.0204 44.7553 74.0204 44.41C74.0204 44.0647 74.1137 43.8267 74.3004 43.696C74.4964 43.556 74.7297 43.486 75.0004 43.486ZM75.8824 46.412V54H74.1184V46.412H75.8824ZM86.8319 46.272C87.6906 46.272 88.3346 46.4913 88.7639 46.93C89.2026 47.3687 89.4219 48.078 89.4219 49.058V54H87.6579V49.394C87.6579 48.2647 87.2286 47.7 86.3699 47.7C85.7539 47.7 85.3152 47.9007 85.0539 48.302C84.7926 48.7033 84.6619 49.2867 84.6619 50.052V54H82.8979V49.394C82.8979 48.2647 82.4639 47.7 81.5959 47.7C80.9519 47.7 80.5086 47.924 80.2659 48.372C80.0232 48.82 79.9019 49.4593 79.9019 50.29V54H78.1379V46.412H79.4959L79.7479 47.406H79.8459C80.0792 47.014 80.3966 46.7293 80.7979 46.552C81.1992 46.3653 81.6192 46.272 82.0579 46.272C82.6272 46.272 83.1032 46.3653 83.4859 46.552C83.8779 46.7387 84.1766 47.0373 84.3819 47.448H84.5219C84.7552 47.0373 85.0819 46.7387 85.5019 46.552C85.9219 46.3653 86.3652 46.272 86.8319 46.272ZM94.684 46.272C95.7014 46.272 96.504 46.5753 97.092 47.182C97.6894 47.7887 97.988 48.6333 97.988 49.716V50.612H92.976C92.9947 51.3027 93.186 51.8393 93.55 52.222C93.914 52.5953 94.418 52.782 95.062 52.782C95.5474 52.782 95.986 52.7353 96.378 52.642C96.77 52.5393 97.1714 52.3947 97.582 52.208V53.622C97.2087 53.7993 96.8214 53.93 96.42 54.014C96.0187 54.098 95.538 54.14 94.978 54.14C94.2314 54.14 93.5734 54 93.004 53.72C92.4347 53.4307 91.9867 53.0013 91.66 52.432C91.3427 51.8533 91.184 51.13 91.184 50.262C91.184 48.9647 91.5014 47.9753 92.136 47.294C92.78 46.6127 93.6294 46.272 94.684 46.272ZM94.684 47.574C94.208 47.574 93.8207 47.728 93.522 48.036C93.2327 48.3347 93.0647 48.7827 93.018 49.38H96.28C96.2707 48.8573 96.1354 48.428 95.874 48.092C95.622 47.7467 95.2254 47.574 94.684 47.574Z" fill="black"/>
<path d="M115.012 52.3625C114.912 52.3625 114.812 52.3125 114.762 52.2625L109.113 46.6625C108.962 46.5125 108.962 46.2625 109.113 46.1125C109.263 45.9625 109.512 45.9625 109.662 46.1125L115.012 51.4625L120.312 46.1125C120.463 45.9625 120.713 45.9625 120.863 46.1125C121.013 46.2625 121.013 46.5125 120.863 46.6625L115.262 52.2625C115.162 52.3125 115.112 52.3625 115.012 52.3625Z" fill="#323232"/>
<line x1="49" y1="27.5" x2="129" y2="27.5" stroke="#C9C9C9"/>
<line x1="49" y1="70.5" x2="129" y2="70.5" stroke="#C9C9C9"/>
<rect width="233" height="44" transform="translate(129 27)" fill="white"/>
<path d="M150.6 54L147.856 45.81H147.8C147.819 45.9967 147.833 46.2627 147.842 46.608C147.861 46.944 147.875 47.3127 147.884 47.714C147.903 48.106 147.912 48.4747 147.912 48.82V54H146.302V44.004H148.794L151.426 51.858H151.482L154.226 44.004H156.718V54H155.01V48.736C155.01 48.4187 155.015 48.0733 155.024 47.7C155.043 47.3173 155.057 46.958 155.066 46.622C155.085 46.2767 155.099 46.0107 155.108 45.824H155.052L152.196 54H150.6ZM162.188 46.272C163.205 46.272 164.008 46.5753 164.596 47.182C165.193 47.7887 165.492 48.6333 165.492 49.716V50.612H160.48C160.499 51.3027 160.69 51.8393 161.054 52.222C161.418 52.5953 161.922 52.782 162.566 52.782C163.051 52.782 163.49 52.7353 163.882 52.642C164.274 52.5393 164.675 52.3947 165.086 52.208V53.622C164.713 53.7993 164.325 53.93 163.924 54.014C163.523 54.098 163.042 54.14 162.482 54.14C161.735 54.14 161.077 54 160.508 53.72C159.939 53.4307 159.491 53.0013 159.164 52.432C158.847 51.8533 158.688 51.13 158.688 50.262C158.688 48.9647 159.005 47.9753 159.64 47.294C160.284 46.6127 161.133 46.272 162.188 46.272ZM162.188 47.574C161.712 47.574 161.325 47.728 161.026 48.036C160.737 48.3347 160.569 48.7827 160.522 49.38H163.784C163.775 48.8573 163.639 48.428 163.378 48.092C163.126 47.7467 162.729 47.574 162.188 47.574ZM170.323 46.272C171.34 46.272 172.143 46.5753 172.731 47.182C173.328 47.7887 173.627 48.6333 173.627 49.716V50.612H168.615C168.633 51.3027 168.825 51.8393 169.189 52.222C169.553 52.5953 170.057 52.782 170.701 52.782C171.186 52.782 171.625 52.7353 172.017 52.642C172.409 52.5393 172.81 52.3947 173.221 52.208V53.622C172.847 53.7993 172.46 53.93 172.059 54.014C171.657 54.098 171.177 54.14 170.617 54.14C169.87 54.14 169.212 54 168.643 53.72C168.073 53.4307 167.625 53.0013 167.299 52.432C166.981 51.8533 166.823 51.13 166.823 50.262C166.823 48.9647 167.14 47.9753 167.775 47.294C168.419 46.6127 169.268 46.272 170.323 46.272ZM170.323 47.574C169.847 47.574 169.459 47.728 169.161 48.036C168.871 48.3347 168.703 48.7827 168.657 49.38H171.919C171.909 48.8573 171.774 48.428 171.513 48.092C171.261 47.7467 170.864 47.574 170.323 47.574ZM178.345 52.726C178.56 52.726 178.77 52.7073 178.975 52.67C179.19 52.6233 179.386 52.572 179.563 52.516V53.832C179.377 53.9253 179.134 54 178.835 54.056C178.537 54.112 178.224 54.14 177.897 54.14C177.459 54.14 177.062 54.07 176.707 53.93C176.362 53.79 176.087 53.5427 175.881 53.188C175.676 52.8333 175.573 52.334 175.573 51.69V47.742H174.551V46.972L175.671 46.356L176.231 44.746H177.337V46.412H179.493V47.742H177.337V51.676C177.337 52.0307 177.431 52.2967 177.617 52.474C177.813 52.642 178.056 52.726 178.345 52.726ZM181.975 43.486C182.236 43.486 182.465 43.556 182.661 43.696C182.857 43.8267 182.955 44.0647 182.955 44.41C182.955 44.7553 182.857 44.998 182.661 45.138C182.465 45.278 182.236 45.348 181.975 45.348C181.704 45.348 181.471 45.278 181.275 45.138C181.088 44.998 180.995 44.7553 180.995 44.41C180.995 44.0647 181.088 43.8267 181.275 43.696C181.471 43.556 181.704 43.486 181.975 43.486ZM182.857 46.412V54H181.093V46.412H182.857ZM189.173 46.272C190.022 46.272 190.685 46.4913 191.161 46.93C191.646 47.3687 191.889 48.078 191.889 49.058V54H190.125V49.408C190.125 48.8387 190.013 48.414 189.789 48.134C189.565 47.8447 189.21 47.7 188.725 47.7C188.015 47.7 187.53 47.924 187.269 48.372C187.007 48.82 186.877 49.4593 186.877 50.29V54H185.113V46.412H186.471L186.723 47.406H186.821C187.063 47.014 187.395 46.7293 187.815 46.552C188.244 46.3653 188.697 46.272 189.173 46.272ZM196.643 46.272C197.623 46.272 198.374 46.6453 198.897 47.392H198.967L199.135 46.412H200.605V54.056C200.605 55.1387 200.302 55.96 199.695 56.52C199.088 57.08 198.174 57.36 196.951 57.36C196.41 57.36 195.91 57.3227 195.453 57.248C194.996 57.1827 194.562 57.066 194.151 56.898V55.442C194.58 55.6287 195.038 55.7733 195.523 55.876C196.018 55.9787 196.531 56.03 197.063 56.03C197.632 56.03 198.071 55.8667 198.379 55.54C198.687 55.2227 198.841 54.756 198.841 54.14V53.944C198.841 53.804 198.846 53.6407 198.855 53.454C198.864 53.2673 198.878 53.118 198.897 53.006H198.841C198.58 53.398 198.258 53.6873 197.875 53.874C197.502 54.0513 197.077 54.14 196.601 54.14C195.677 54.14 194.954 53.7947 194.431 53.104C193.908 52.4133 193.647 51.452 193.647 50.22C193.647 48.988 193.908 48.022 194.431 47.322C194.963 46.622 195.7 46.272 196.643 46.272ZM197.105 47.714C196.004 47.714 195.453 48.5587 195.453 50.248C195.453 51.9093 196.013 52.74 197.133 52.74C197.749 52.74 198.202 52.572 198.491 52.236C198.79 51.8907 198.939 51.312 198.939 50.5V50.234C198.939 49.338 198.79 48.694 198.491 48.302C198.202 47.91 197.74 47.714 197.105 47.714Z" fill="black"/>
<line x1="129" y1="27.5" x2="362" y2="27.5" stroke="#C9C9C9"/>
<line x1="129" y1="70.5" x2="362" y2="70.5" stroke="#C9C9C9"/>
</svg>
