<svg width="904" height="168" viewBox="0 0 904 168" fill="none" xmlns="http://www.w3.org/2000/svg">
<rect width="904" height="168" fill="white"/>
<rect x="307" y="84" width="300" height="44" rx="4" fill="#F1F1F1"/>
<path d="M551.16 106.48C550.954 106.274 550.611 106.274 550.406 106.48L543.823 113.063C542.863 114.023 541.56 114.571 540.189 114.571C538.817 114.571 537.514 114.023 536.554 113.063C535.594 112.103 535.114 110.8 535.114 109.497C535.114 108.126 535.663 106.823 536.623 105.863L544.097 98.3886C545.331 97.1543 547.389 97.1543 548.691 98.3886C549.309 99.0057 549.651 99.8286 549.651 100.651C549.651 101.474 549.309 102.297 548.691 102.914L541.149 110.457C540.669 110.937 539.709 110.937 539.229 110.457C538.68 109.909 538.68 109.086 539.229 108.537L545.88 101.886C546.086 101.68 546.086 101.337 545.88 101.131C545.674 100.926 545.331 100.926 545.126 101.131L538.543 107.714C537.583 108.674 537.583 110.183 538.543 111.074C539.434 111.966 541.011 111.966 541.903 111.074L549.377 103.6C550.2 102.777 550.611 101.749 550.611 100.583C550.611 99.4172 550.2 98.4572 549.377 97.6343C547.731 95.9886 544.989 95.9886 543.343 97.6343L535.869 105.109C534.703 106.274 534.086 107.851 534.086 109.497C534.086 111.143 534.703 112.651 535.869 113.817C537.034 114.983 538.543 115.6 540.189 115.6C541.834 115.6 543.343 114.983 544.509 113.817L551.091 107.234C551.366 106.96 551.366 106.686 551.16 106.48Z" fill="#1B77AF"/>
<path fill-rule="evenodd" clip-rule="evenodd" d="M586.946 98.0538C586.116 97.2239 584.724 97.2239 583.894 98.0538L583.893 98.0549L583.084 98.8589L586.111 101.941L586.946 101.106C587.776 100.276 587.776 98.8838 586.946 98.0538ZM585.382 102.67L582.352 99.5859L572.448 109.432C572.444 109.438 572.44 109.444 572.436 109.45L575.519 112.533L585.382 102.67ZM574.53 113.003L571.997 110.47L570.731 114.269L574.53 113.003ZM583.165 97.3242C584.398 96.0918 586.443 96.092 587.675 97.3246C588.908 98.5573 588.908 100.603 587.675 101.835L576.193 113.318C576.006 113.505 575.732 113.689 575.442 113.786L570.079 115.574C569.893 115.635 569.689 115.587 569.551 115.449C569.413 115.311 569.365 115.107 569.426 114.921L571.214 109.558C571.305 109.285 571.476 109.029 571.602 108.84C571.607 108.832 571.613 108.824 571.618 108.817C571.637 108.788 571.659 108.761 571.683 108.737L583.165 97.3246C583.165 97.3244 583.165 97.3243 583.165 97.3242Z" fill="#1B77AF"/>
<path d="M325.75 106.468C325.601 106.468 325.458 106.528 325.352 106.633C325.247 106.738 325.188 106.881 325.188 107.03C325.188 107.179 325.247 107.322 325.352 107.428C325.458 107.533 325.601 107.592 325.75 107.592H330.528C330.677 107.592 330.82 107.533 330.925 107.428C331.031 107.322 331.09 107.179 331.09 107.03C331.09 106.881 331.031 106.738 330.925 106.633C330.82 106.528 330.677 106.468 330.528 106.468H325.75Z" fill="black"/>
<path d="M339.618 95.5H324.805C324.307 95.5 323.829 95.6971 323.477 96.0481C323.124 96.3992 322.924 96.8756 322.923 97.373V97.9199H322.383C321.883 97.9199 321.404 98.118 321.051 98.4707C320.698 98.8233 320.5 99.3017 320.5 99.8004V110.484C320.5 110.983 320.698 111.461 321.051 111.814C321.404 112.166 321.883 112.364 322.383 112.364H325V115.938C324.999 116.049 325.032 116.157 325.093 116.249C325.155 116.342 325.242 116.413 325.345 116.455C325.414 116.484 325.488 116.5 325.563 116.5C325.711 116.498 325.854 116.439 325.96 116.335L329.928 112.372H337.165C337.415 112.376 337.663 112.33 337.895 112.237C338.127 112.143 338.338 112.005 338.516 111.829C338.693 111.653 338.834 111.443 338.929 111.212C339.024 110.981 339.072 110.734 339.07 110.484V109.937H339.618C339.866 109.937 340.112 109.888 340.341 109.792C340.571 109.697 340.779 109.557 340.954 109.381C341.129 109.205 341.267 108.996 341.361 108.766C341.455 108.536 341.502 108.29 341.5 108.042V97.373C341.498 96.8756 341.299 96.3992 340.946 96.0481C340.593 95.6971 340.115 95.5 339.618 95.5ZM337.945 110.484C337.945 110.683 337.866 110.873 337.725 111.014C337.585 111.154 337.394 111.233 337.195 111.233H329.695C329.546 111.233 329.403 111.293 329.298 111.398L326.148 114.56V111.78C326.142 111.634 326.08 111.496 325.976 111.394C325.871 111.293 325.731 111.235 325.585 111.233H322.383C322.184 111.233 321.993 111.154 321.852 111.014C321.712 110.873 321.633 110.683 321.633 110.484V99.8004C321.633 99.6017 321.712 99.4111 321.852 99.2706C321.993 99.1301 322.184 99.0512 322.383 99.0512H337.195C337.394 99.0512 337.585 99.1301 337.725 99.2706C337.866 99.4111 337.945 99.6017 337.945 99.8004V110.484ZM340.375 108.042C340.375 108.24 340.296 108.431 340.155 108.571C340.015 108.712 339.824 108.791 339.625 108.791H339.078V99.8004C339.078 99.303 338.88 98.8258 338.529 98.4733C338.177 98.1209 337.7 97.9219 337.203 97.9199H324.048V97.373C324.048 97.1743 324.127 96.9837 324.267 96.8432C324.408 96.7027 324.599 96.6238 324.798 96.6238H339.618C339.816 96.6238 340.007 96.7027 340.148 96.8432C340.288 96.9837 340.368 97.1743 340.368 97.373L340.375 108.042Z" fill="black"/>
<path d="M325.75 102.992C325.601 102.992 325.458 103.051 325.352 103.157C325.247 103.262 325.188 103.405 325.188 103.554C325.188 103.703 325.247 103.846 325.352 103.951C325.458 104.057 325.601 104.116 325.75 104.116H333.85C333.999 104.116 334.142 104.057 334.248 103.951C334.353 103.846 334.413 103.703 334.413 103.554C334.413 103.405 334.353 103.262 334.248 103.157C334.142 103.051 333.999 102.992 333.85 102.992H325.75Z" fill="black"/>
<path d="M356.768 111L353.478 102.236H353.422C353.45 102.525 353.473 102.917 353.492 103.412C353.511 103.897 353.52 104.406 353.52 104.938V111H352.358V101.004H354.22L357.3 109.194H357.356L360.492 101.004H362.34V111H361.094V104.854C361.094 104.369 361.103 103.888 361.122 103.412C361.15 102.936 361.173 102.549 361.192 102.25H361.136L357.804 111H356.768ZM367.789 103.356C368.424 103.356 368.975 103.496 369.441 103.776C369.908 104.056 370.263 104.453 370.505 104.966C370.757 105.47 370.883 106.063 370.883 106.744V107.486H365.745C365.764 108.335 365.979 108.984 366.389 109.432C366.809 109.871 367.393 110.09 368.139 110.09C368.615 110.09 369.035 110.048 369.399 109.964C369.773 109.871 370.155 109.74 370.547 109.572V110.65C370.165 110.818 369.787 110.939 369.413 111.014C369.04 111.098 368.597 111.14 368.083 111.14C367.365 111.14 366.735 110.995 366.193 110.706C365.652 110.417 365.227 109.987 364.919 109.418C364.621 108.849 364.471 108.144 364.471 107.304C364.471 106.483 364.607 105.778 364.877 105.19C365.157 104.602 365.545 104.149 366.039 103.832C366.543 103.515 367.127 103.356 367.789 103.356ZM367.775 104.364C367.187 104.364 366.721 104.555 366.375 104.938C366.039 105.311 365.839 105.834 365.773 106.506H369.595C369.586 105.871 369.437 105.358 369.147 104.966C368.858 104.565 368.401 104.364 367.775 104.364ZM377.68 108.928C377.68 109.656 377.409 110.207 376.868 110.58C376.326 110.953 375.598 111.14 374.684 111.14C374.161 111.14 373.708 111.098 373.326 111.014C372.952 110.93 372.621 110.813 372.332 110.664V109.544C372.63 109.693 372.99 109.833 373.41 109.964C373.839 110.085 374.273 110.146 374.712 110.146C375.337 110.146 375.79 110.048 376.07 109.852C376.35 109.647 376.49 109.376 376.49 109.04C376.49 108.853 376.438 108.685 376.336 108.536C376.233 108.387 376.046 108.237 375.776 108.088C375.514 107.939 375.136 107.771 374.642 107.584C374.156 107.397 373.741 107.211 373.396 107.024C373.05 106.837 372.784 106.613 372.598 106.352C372.411 106.091 372.318 105.755 372.318 105.344C372.318 104.709 372.574 104.219 373.088 103.874C373.61 103.529 374.292 103.356 375.132 103.356C375.589 103.356 376.014 103.403 376.406 103.496C376.807 103.589 377.18 103.711 377.526 103.86L377.106 104.84C376.788 104.709 376.457 104.597 376.112 104.504C375.766 104.411 375.412 104.364 375.048 104.364C374.544 104.364 374.156 104.448 373.886 104.616C373.624 104.775 373.494 104.994 373.494 105.274C373.494 105.489 373.554 105.666 373.676 105.806C373.797 105.946 373.998 106.086 374.278 106.226C374.567 106.366 374.95 106.525 375.426 106.702C375.902 106.879 376.308 107.061 376.644 107.248C376.98 107.435 377.236 107.663 377.414 107.934C377.591 108.195 377.68 108.527 377.68 108.928ZM384.379 108.928C384.379 109.656 384.108 110.207 383.567 110.58C383.025 110.953 382.297 111.14 381.383 111.14C380.86 111.14 380.407 111.098 380.025 111.014C379.651 110.93 379.32 110.813 379.031 110.664V109.544C379.329 109.693 379.689 109.833 380.109 109.964C380.538 110.085 380.972 110.146 381.411 110.146C382.036 110.146 382.489 110.048 382.769 109.852C383.049 109.647 383.189 109.376 383.189 109.04C383.189 108.853 383.137 108.685 383.035 108.536C382.932 108.387 382.745 108.237 382.475 108.088C382.213 107.939 381.835 107.771 381.341 107.584C380.855 107.397 380.44 107.211 380.095 107.024C379.749 106.837 379.483 106.613 379.297 106.352C379.11 106.091 379.017 105.755 379.017 105.344C379.017 104.709 379.273 104.219 379.787 103.874C380.309 103.529 380.991 103.356 381.831 103.356C382.288 103.356 382.713 103.403 383.105 103.496C383.506 103.589 383.879 103.711 384.225 103.86L383.805 104.84C383.487 104.709 383.156 104.597 382.811 104.504C382.465 104.411 382.111 104.364 381.747 104.364C381.243 104.364 380.855 104.448 380.585 104.616C380.323 104.775 380.193 104.994 380.193 105.274C380.193 105.489 380.253 105.666 380.375 105.806C380.496 105.946 380.697 106.086 380.977 106.226C381.266 106.366 381.649 106.525 382.125 106.702C382.601 106.879 383.007 107.061 383.343 107.248C383.679 107.435 383.935 107.663 384.113 107.934C384.29 108.195 384.379 108.527 384.379 108.928ZM389.034 103.37C389.949 103.37 390.625 103.571 391.064 103.972C391.503 104.373 391.722 105.013 391.722 105.89V111H390.826L390.588 109.936H390.532C390.205 110.347 389.86 110.65 389.496 110.846C389.132 111.042 388.637 111.14 388.012 111.14C387.331 111.14 386.766 110.963 386.318 110.608C385.87 110.244 385.646 109.679 385.646 108.914C385.646 108.167 385.94 107.593 386.528 107.192C387.116 106.781 388.021 106.557 389.244 106.52L390.518 106.478V106.03C390.518 105.405 390.383 104.971 390.112 104.728C389.841 104.485 389.459 104.364 388.964 104.364C388.572 104.364 388.199 104.425 387.844 104.546C387.489 104.658 387.158 104.789 386.85 104.938L386.472 104.014C386.799 103.837 387.186 103.687 387.634 103.566C388.082 103.435 388.549 103.37 389.034 103.37ZM390.504 107.332L389.398 107.374C388.465 107.411 387.816 107.561 387.452 107.822C387.097 108.083 386.92 108.452 386.92 108.928C386.92 109.348 387.046 109.656 387.298 109.852C387.559 110.048 387.891 110.146 388.292 110.146C388.917 110.146 389.44 109.973 389.86 109.628C390.289 109.273 390.504 108.732 390.504 108.004V107.332ZM396.7 103.356C397.194 103.356 397.638 103.449 398.03 103.636C398.431 103.823 398.772 104.107 399.052 104.49H399.122L399.29 103.496H400.27V111.126C400.27 112.199 399.994 113.007 399.444 113.548C398.902 114.089 398.058 114.36 396.91 114.36C395.808 114.36 394.908 114.201 394.208 113.884V112.75C394.945 113.142 395.869 113.338 396.98 113.338C397.624 113.338 398.128 113.147 398.492 112.764C398.865 112.391 399.052 111.877 399.052 111.224V110.93C399.052 110.818 399.056 110.659 399.066 110.454C399.075 110.239 399.084 110.09 399.094 110.006H399.038C398.534 110.762 397.759 111.14 396.714 111.14C395.743 111.14 394.982 110.799 394.432 110.118C393.89 109.437 393.62 108.485 393.62 107.262C393.62 106.067 393.89 105.12 394.432 104.42C394.982 103.711 395.738 103.356 396.7 103.356ZM396.868 104.392C396.242 104.392 395.757 104.644 395.412 105.148C395.066 105.643 394.894 106.352 394.894 107.276C394.894 108.2 395.062 108.909 395.398 109.404C395.734 109.889 396.233 110.132 396.896 110.132C397.652 110.132 398.202 109.931 398.548 109.53C398.893 109.119 399.066 108.461 399.066 107.556V107.262C399.066 106.245 398.888 105.512 398.534 105.064C398.179 104.616 397.624 104.392 396.868 104.392ZM405.551 103.356C406.186 103.356 406.736 103.496 407.203 103.776C407.67 104.056 408.024 104.453 408.267 104.966C408.519 105.47 408.645 106.063 408.645 106.744V107.486H403.507C403.526 108.335 403.74 108.984 404.151 109.432C404.571 109.871 405.154 110.09 405.901 110.09C406.377 110.09 406.797 110.048 407.161 109.964C407.534 109.871 407.917 109.74 408.309 109.572V110.65C407.926 110.818 407.548 110.939 407.175 111.014C406.802 111.098 406.358 111.14 405.845 111.14C405.126 111.14 404.496 110.995 403.955 110.706C403.414 110.417 402.989 109.987 402.681 109.418C402.382 108.849 402.233 108.144 402.233 107.304C402.233 106.483 402.368 105.778 402.639 105.19C402.919 104.602 403.306 104.149 403.801 103.832C404.305 103.515 404.888 103.356 405.551 103.356ZM405.537 104.364C404.949 104.364 404.482 104.555 404.137 104.938C403.801 105.311 403.6 105.834 403.535 106.506H407.357C407.348 105.871 407.198 105.358 406.909 104.966C406.62 104.565 406.162 104.364 405.537 104.364ZM415.441 108.928C415.441 109.656 415.171 110.207 414.629 110.58C414.088 110.953 413.36 111.14 412.445 111.14C411.923 111.14 411.47 111.098 411.087 111.014C410.714 110.93 410.383 110.813 410.093 110.664V109.544C410.392 109.693 410.751 109.833 411.171 109.964C411.601 110.085 412.035 110.146 412.473 110.146C413.099 110.146 413.551 110.048 413.831 109.852C414.111 109.647 414.251 109.376 414.251 109.04C414.251 108.853 414.2 108.685 414.097 108.536C413.995 108.387 413.808 108.237 413.537 108.088C413.276 107.939 412.898 107.771 412.403 107.584C411.918 107.397 411.503 107.211 411.157 107.024C410.812 106.837 410.546 106.613 410.359 106.352C410.173 106.091 410.079 105.755 410.079 105.344C410.079 104.709 410.336 104.219 410.849 103.874C411.372 103.529 412.053 103.356 412.893 103.356C413.351 103.356 413.775 103.403 414.167 103.496C414.569 103.589 414.942 103.711 415.287 103.86L414.867 104.84C414.55 104.709 414.219 104.597 413.873 104.504C413.528 104.411 413.173 104.364 412.809 104.364C412.305 104.364 411.918 104.448 411.647 104.616C411.386 104.775 411.255 104.994 411.255 105.274C411.255 105.489 411.316 105.666 411.437 105.806C411.559 105.946 411.759 106.086 412.039 106.226C412.329 106.366 412.711 106.525 413.187 106.702C413.663 106.879 414.069 107.061 414.405 107.248C414.741 107.435 414.998 107.663 415.175 107.934C415.353 108.195 415.441 108.527 415.441 108.928Z" fill="black"/>
<circle cx="331" cy="50" r="10" fill="#D51588"/>
<path d="M334.942 55H328.096V53.698L330.644 51.122C331.148 50.6087 331.559 50.17 331.876 49.806C332.203 49.442 332.441 49.1013 332.59 48.784C332.749 48.4573 332.828 48.1073 332.828 47.734C332.828 47.2767 332.697 46.936 332.436 46.712C332.184 46.4787 331.839 46.362 331.4 46.362C330.98 46.362 330.588 46.4507 330.224 46.628C329.86 46.796 329.482 47.0387 329.09 47.356L328.124 46.194C328.535 45.8393 328.997 45.5313 329.51 45.27C330.033 44.9993 330.695 44.864 331.498 44.864C332.142 44.864 332.693 44.9807 333.15 45.214C333.617 45.438 333.976 45.7553 334.228 46.166C334.48 46.5673 334.606 47.0293 334.606 47.552C334.606 48.0933 334.499 48.5927 334.284 49.05C334.069 49.498 333.757 49.9507 333.346 50.408C332.945 50.856 332.464 51.3413 331.904 51.864L330.322 53.39V53.474H334.942V55Z" fill="white"/>
<path d="M331 60V93" stroke="#D51588"/>
<circle cx="382" cy="50" r="10" fill="#D51588"/>
<path d="M385.55 47.286C385.55 47.9673 385.349 48.5133 384.948 48.924C384.556 49.3253 384.047 49.596 383.422 49.736V49.778C384.225 49.8807 384.831 50.1327 385.242 50.534C385.653 50.9353 385.858 51.4627 385.858 52.116C385.858 52.6947 385.718 53.2127 385.438 53.67C385.158 54.1273 384.724 54.4867 384.136 54.748C383.557 55.0093 382.811 55.14 381.896 55.14C381.345 55.14 380.837 55.0933 380.37 55C379.913 54.916 379.479 54.7807 379.068 54.594V53.04C379.488 53.2547 379.936 53.418 380.412 53.53C380.888 53.642 381.336 53.698 381.756 53.698C382.568 53.698 383.142 53.5533 383.478 53.264C383.814 52.9653 383.982 52.5547 383.982 52.032C383.982 51.5373 383.786 51.1687 383.394 50.926C383.002 50.6833 382.349 50.562 381.434 50.562H380.594V49.148H381.448C382.335 49.148 382.946 49.0033 383.282 48.714C383.618 48.4247 383.786 48.0513 383.786 47.594C383.786 47.1927 383.655 46.88 383.394 46.656C383.133 46.432 382.741 46.32 382.218 46.32C381.714 46.32 381.28 46.404 380.916 46.572C380.552 46.7307 380.225 46.9033 379.936 47.09L379.096 45.872C379.479 45.592 379.931 45.354 380.454 45.158C380.977 44.962 381.593 44.864 382.302 44.864C383.338 44.864 384.136 45.0833 384.696 45.522C385.265 45.9607 385.55 46.5487 385.55 47.286Z" fill="white"/>
<path d="M382 60V99" stroke="#D51588"/>
<circle cx="256" cy="106" r="10" fill="#D51588"/>
<path d="M257.968 111H256.204V104.77C256.204 104.471 256.209 104.154 256.218 103.818C256.227 103.482 256.241 103.169 256.26 102.88C256.167 102.973 256.05 103.085 255.91 103.216C255.779 103.347 255.635 103.473 255.476 103.594L254.356 104.49L253.474 103.398L256.498 101.004H257.968V111Z" fill="white"/>
<path d="M266 106H307" stroke="#D51588"/>
<path d="M594 106H638" stroke="#D51588"/>
<circle cx="648" cy="106" r="10" fill="#D51588"/>
<path d="M652.25 108.858H650.948V111H649.212V108.858H644.76V107.542L649.254 100.976H650.948V107.416H652.25V108.858ZM649.212 107.416V105.176C649.212 104.915 649.217 104.644 649.226 104.364C649.235 104.075 649.245 103.809 649.254 103.566C649.273 103.314 649.287 103.123 649.296 102.992H649.24C649.156 103.179 649.063 103.365 648.96 103.552C648.867 103.729 648.759 103.907 648.638 104.084L646.37 107.416H649.212Z" fill="white"/>
</svg>
