<svg width="296" height="168" viewBox="0 0 296 168" fill="none" xmlns="http://www.w3.org/2000/svg">
<rect width="296" height="168" fill="white"/>
<path d="M147.001 34.0352C131.398 34.0352 117.535 41.4851 108.775 53.0219" stroke="#004E6C" stroke-width="3"/>
<path d="M103.285 48.7152C95.3154 58.8147 90.9995 71.3148 91.0401 84.18C91.0807 97.0452 95.4754 109.518 103.509 119.567C111.542 129.616 122.74 136.649 135.281 139.522C147.821 142.395 160.965 140.938 172.572 135.388C184.178 129.838 193.564 120.523 199.201 108.958C204.838 97.3935 206.394 84.2612 203.616 71.6995C200.838 59.1378 193.889 47.8866 183.901 39.7779C173.912 31.6693 161.473 27.1808 148.609 27.0433L148.463 40.6908C158.245 40.7953 167.703 44.2083 175.298 50.3741C182.893 56.5398 188.177 65.0951 190.29 74.6469C192.403 84.1986 191.219 94.1843 186.933 102.978C182.647 111.771 175.51 118.855 166.684 123.075C157.858 127.295 147.864 128.403 138.328 126.219C128.793 124.034 120.278 118.686 114.169 111.045C108.061 103.403 104.719 93.9195 104.688 84.1369C104.657 74.3543 107.939 64.8494 113.999 57.1699L103.285 48.7152Z" stroke="#088A08" stroke-width="3"/>
<path d="M147.905 82.0066C147.905 83.7947 147.773 85.5827 147.509 87.3708C147.245 89.1296 146.776 90.8004 146.102 92.3833C145.457 93.9369 144.534 95.3293 143.332 96.5604C142.159 97.7622 140.65 98.7149 138.803 99.4184C136.986 100.093 134.772 100.43 132.164 100.43C131.548 100.43 130.83 100.4 130.009 100.342C129.188 100.312 128.5 100.239 127.943 100.122V94.8016C128.529 94.9189 129.144 95.0215 129.789 95.1094C130.434 95.1973 131.079 95.2413 131.724 95.2413C134.333 95.2413 136.341 94.8309 137.748 94.0102C139.184 93.1894 140.195 92.0462 140.782 90.5806C141.368 89.0856 141.705 87.3708 141.793 85.4362H141.529C140.914 86.4621 140.093 87.3268 139.067 88.0304C138.07 88.7339 136.575 89.0856 134.582 89.0856C131.914 89.0856 129.775 88.2209 128.162 86.4914C126.55 84.762 125.744 82.3144 125.744 79.1486C125.744 75.7483 126.697 73.0808 128.602 71.1462C130.537 69.2115 133.146 68.2442 136.429 68.2442C138.569 68.2442 140.503 68.7425 142.233 69.7391C143.962 70.7065 145.34 72.2161 146.366 74.268C147.392 76.2906 147.905 78.8701 147.905 82.0066ZM136.561 73.5645C135.271 73.5645 134.216 74.0188 133.395 74.9275C132.574 75.8069 132.164 77.1846 132.164 79.0606C132.164 80.5849 132.515 81.7867 133.219 82.6661C133.922 83.5455 134.992 83.9852 136.429 83.9852C137.396 83.9852 138.246 83.7653 138.979 83.3256C139.712 82.886 140.283 82.3437 140.694 81.6988C141.104 81.0246 141.309 80.3357 141.309 79.6322C141.309 78.6649 141.133 77.7122 140.782 76.7742C140.43 75.8362 139.902 75.0741 139.199 74.4878C138.495 73.8723 137.616 73.5645 136.561 73.5645Z" fill="#088A08"/>
<path d="M173.199 99.99H151.258V95.3732L159.128 87.4148C160.711 85.7733 161.986 84.4102 162.954 83.3256C163.921 82.2118 164.625 81.2151 165.064 80.3357C165.504 79.427 165.724 78.4597 165.724 77.4338C165.724 76.1733 165.372 75.2353 164.669 74.6197C163.994 74.0042 163.071 73.6964 161.899 73.6964C160.697 73.6964 159.524 73.9748 158.381 74.5318C157.238 75.0887 156.036 75.8802 154.776 76.9061L151.17 72.6411C152.049 71.879 153.002 71.1608 154.028 70.4866C155.054 69.7831 156.227 69.2262 157.546 68.8158C158.894 68.3761 160.506 68.1562 162.382 68.1562C164.434 68.1562 166.193 68.5373 167.659 69.2995C169.153 70.0323 170.297 71.0436 171.088 72.3333C171.909 73.5938 172.319 75.0301 172.319 76.6423C172.319 78.3718 171.968 79.9547 171.264 81.391C170.59 82.8273 169.593 84.249 168.274 85.656C166.984 87.063 165.416 88.6166 163.569 90.3168L159.524 94.0981V94.4059H173.199V99.99Z" fill="#088A08"/>
</svg>
