<svg width="296" height="168" viewBox="0 0 296 168" fill="none" xmlns="http://www.w3.org/2000/svg">
<rect width="296" height="168" fill="white"/>
<path d="M141.21 125.508V121.598H149.594V125.508H141.21Z" fill="#DA291C"/>
<path d="M158.658 134V130.86C157.272 130.817 156.034 130.689 154.946 130.475C153.858 130.24 152.866 129.92 151.97 129.514V125.38C152.845 125.807 153.89 126.202 155.106 126.565C156.344 126.907 157.528 127.11 158.658 127.174V122.335C157.016 121.694 155.693 121.075 154.69 120.477C153.709 119.857 153.005 119.173 152.578 118.426C152.152 117.678 151.938 116.781 151.938 115.734C151.938 114.131 152.557 112.86 153.794 111.92C155.053 110.959 156.674 110.393 158.658 110.222V107.818H160.802V110.158C163.17 110.243 165.325 110.724 167.266 111.6L165.794 115.253C164.941 114.89 164.077 114.612 163.202 114.42C162.349 114.228 161.549 114.099 160.802 114.035V118.65C161.954 119.077 163.053 119.547 164.098 120.06C165.144 120.551 165.986 121.182 166.626 121.951C167.288 122.72 167.618 123.735 167.618 124.995C167.618 126.555 167.053 127.858 165.922 128.905C164.792 129.952 163.085 130.582 160.802 130.795V134H158.658ZM158.658 117.785V114.099C157.314 114.292 156.642 114.836 156.642 115.734C156.642 116.182 156.802 116.556 157.122 116.855C157.442 117.154 157.954 117.464 158.658 117.785ZM160.802 127.078C162.21 126.822 162.914 126.202 162.914 125.219C162.914 124.792 162.733 124.429 162.37 124.13C162.029 123.809 161.506 123.489 160.802 123.168V127.078Z" fill="#DA291C"/>
<path d="M185.227 114.388C185.227 115.969 184.747 117.229 183.787 118.169C182.848 119.109 181.686 119.75 180.299 120.092V120.188C182.112 120.423 183.499 120.989 184.459 121.887C185.419 122.784 185.899 123.98 185.899 125.476C185.899 126.8 185.568 127.997 184.907 129.065C184.267 130.112 183.264 130.945 181.899 131.565C180.555 132.163 178.816 132.462 176.683 132.462C174.208 132.462 172.011 132.045 170.091 131.212V127.11C171.072 127.602 172.096 127.975 173.163 128.232C174.23 128.488 175.232 128.616 176.171 128.616C177.899 128.616 179.104 128.317 179.787 127.719C180.491 127.121 180.843 126.277 180.843 125.187C180.843 124.568 180.683 124.034 180.363 123.585C180.043 123.136 179.478 122.805 178.667 122.592C177.878 122.357 176.768 122.239 175.339 122.239H173.611V118.522H175.371C176.779 118.522 177.846 118.394 178.571 118.137C179.318 117.859 179.819 117.496 180.075 117.048C180.352 116.578 180.491 116.044 180.491 115.445C180.491 114.634 180.235 114.003 179.723 113.555C179.232 113.085 178.4 112.85 177.227 112.85C176.139 112.85 175.19 113.042 174.379 113.426C173.568 113.811 172.896 114.174 172.363 114.516L170.123 111.183C171.019 110.542 172.064 110.008 173.259 109.581C174.475 109.154 175.915 108.94 177.579 108.94C179.926 108.94 181.782 109.421 183.147 110.382C184.534 111.322 185.227 112.657 185.227 114.388Z" fill="#DA291C"/>
<path d="M204.435 132.141H188.467V128.777L194.195 122.976C195.347 121.78 196.275 120.786 196.979 119.996C197.683 119.184 198.195 118.458 198.515 117.817C198.835 117.154 198.995 116.449 198.995 115.702C198.995 114.783 198.739 114.099 198.227 113.651C197.737 113.202 197.065 112.978 196.211 112.978C195.337 112.978 194.483 113.181 193.651 113.587C192.819 113.993 191.945 114.569 191.027 115.317L188.403 112.209C189.043 111.653 189.737 111.13 190.483 110.638C191.23 110.126 192.083 109.72 193.043 109.421C194.025 109.1 195.198 108.94 196.563 108.94C198.057 108.94 199.337 109.218 200.403 109.773C201.491 110.307 202.323 111.044 202.899 111.984C203.497 112.903 203.795 113.95 203.795 115.125C203.795 116.385 203.539 117.539 203.027 118.586C202.537 119.633 201.811 120.669 200.851 121.694C199.913 122.72 198.771 123.852 197.427 125.091L194.483 127.847V128.072H204.435V132.141Z" fill="#DA291C"/>
<path d="M207.324 129.898C207.324 128.915 207.591 128.232 208.124 127.847C208.657 127.441 209.308 127.238 210.076 127.238C210.823 127.238 211.463 127.441 211.996 127.847C212.529 128.232 212.796 128.915 212.796 129.898C212.796 130.838 212.529 131.522 211.996 131.949C211.463 132.355 210.823 132.558 210.076 132.558C209.308 132.558 208.657 132.355 208.124 131.949C207.591 131.522 207.324 130.838 207.324 129.898Z" fill="#DA291C"/>
<path d="M231.745 120.701C231.745 123.158 231.478 125.262 230.945 127.014C230.433 128.766 229.59 130.112 228.417 131.052C227.244 131.992 225.686 132.462 223.745 132.462C220.993 132.462 218.977 131.426 217.697 129.353C216.417 127.281 215.777 124.397 215.777 120.701C215.777 118.244 216.033 116.14 216.545 114.388C217.057 112.615 217.9 111.258 219.073 110.318C220.246 109.378 221.804 108.908 223.745 108.908C226.476 108.908 228.492 109.944 229.793 112.016C231.094 114.089 231.745 116.984 231.745 120.701ZM220.577 120.701C220.577 123.307 220.801 125.273 221.249 126.597C221.697 127.901 222.529 128.552 223.745 128.552C224.94 128.552 225.772 127.901 226.241 126.597C226.71 125.294 226.945 123.329 226.945 120.701C226.945 118.094 226.71 116.129 226.241 114.804C225.772 113.48 224.94 112.818 223.745 112.818C222.529 112.818 221.697 113.48 221.249 114.804C220.801 116.129 220.577 118.094 220.577 120.701Z" fill="#DA291C"/>
<path d="M250.057 120.701C250.057 123.158 249.791 125.262 249.257 127.014C248.745 128.766 247.903 130.112 246.729 131.052C245.556 131.992 243.999 132.462 242.057 132.462C239.305 132.462 237.289 131.426 236.009 129.353C234.729 127.281 234.089 124.397 234.089 120.701C234.089 118.244 234.345 116.14 234.857 114.388C235.369 112.615 236.212 111.258 237.385 110.318C238.559 109.378 240.116 108.908 242.057 108.908C244.788 108.908 246.804 109.944 248.105 112.016C249.407 114.089 250.057 116.984 250.057 120.701ZM238.889 120.701C238.889 123.307 239.113 125.273 239.561 126.597C240.009 127.901 240.841 128.552 242.057 128.552C243.252 128.552 244.084 127.901 244.553 126.597C245.023 125.294 245.257 123.329 245.257 120.701C245.257 118.094 245.023 116.129 244.553 114.804C244.084 113.48 243.252 112.818 242.057 112.818C240.841 112.818 240.009 113.48 239.561 114.804C239.113 116.129 238.889 118.094 238.889 120.701Z" fill="#DA291C"/>
<path d="M251.25 82.0684H44.75" stroke="#004E6C" stroke-width="3"/>
<path d="M251.25 58.0352L173.25 58.0352" stroke="#004E6C" stroke-width="3"/>
<path d="M251.25 34L173.25 34" stroke="#004E6C" stroke-width="3"/>
</svg>
