<svg width="162" height="162" viewBox="0 0 162 162" fill="none" xmlns="http://www.w3.org/2000/svg">
<path d="M79.9996 31C64.3857 31 50.5131 38.4551 41.7471 50" stroke="#004E6C" stroke-width="3"/>
<path d="M36.2531 45.6903C28.2779 55.7969 23.9589 68.3057 23.9996 81.1799C24.0402 94.0541 28.438 106.535 36.4768 116.591C44.5156 126.647 55.722 133.686 68.2712 136.561C80.8204 139.436 93.9732 137.977 105.588 132.424C117.203 126.87 126.595 117.548 132.236 105.975C137.877 94.4026 139.435 81.2611 136.654 68.6906C133.874 56.1201 126.92 44.8611 116.925 36.7468C106.93 28.6324 94.4819 24.1408 81.6083 24.0032L81.4624 37.6603C91.2513 37.7649 100.717 41.1803 108.317 47.3503C115.917 53.5203 121.205 62.0816 123.319 71.6401C125.433 81.1985 124.249 91.1912 119.959 99.9909C115.67 108.791 108.528 115.879 99.6963 120.102C90.8645 124.325 80.8633 125.434 71.321 123.248C61.7787 121.062 53.2575 115.71 47.1449 108.063C41.0322 100.417 37.6882 90.9262 37.6573 81.1368C37.6264 71.3474 40.9105 61.8358 46.9747 54.1509L36.2531 45.6903Z" stroke="#088A08" stroke-width="3"/>
<path d="M80.9039 79.0045C80.9039 80.7939 80.7719 82.5832 80.5079 84.3725C80.2439 86.1325 79.7745 87.8045 79.0999 89.3885C78.4545 90.9432 77.5305 92.3365 76.3279 93.5685C75.1545 94.7712 73.6439 95.7245 71.7959 96.4285C69.9772 97.1032 67.7625 97.4405 65.1519 97.4405C64.5359 97.4405 63.8172 97.4112 62.9959 97.3525C62.1745 97.3232 61.4852 97.2499 60.9279 97.1325V91.8085C61.5145 91.9259 62.1305 92.0285 62.7759 92.1165C63.4212 92.2045 64.0665 92.2485 64.7119 92.2485C67.3225 92.2485 69.3319 91.8379 70.7399 91.0165C72.1772 90.1952 73.1892 89.0512 73.7759 87.5845C74.3625 86.0885 74.6999 84.3725 74.7879 82.4365H74.5239C73.9079 83.4632 73.0865 84.3285 72.0599 85.0325C71.0625 85.7365 69.5665 86.0885 67.5719 86.0885C64.9025 86.0885 62.7612 85.2232 61.1479 83.4925C59.5345 81.7619 58.7279 79.3125 58.7279 76.1445C58.7279 72.7419 59.6812 70.0725 61.5879 68.1365C63.5239 66.2005 66.1345 65.2325 69.4199 65.2325C71.5612 65.2325 73.4972 65.7312 75.2279 66.7285C76.9585 67.6965 78.3372 69.2072 79.3639 71.2605C80.3905 73.2845 80.9039 75.8659 80.9039 79.0045ZM69.5519 70.5565C68.2612 70.5565 67.2052 71.0112 66.3839 71.9205C65.5625 72.8005 65.1519 74.1792 65.1519 76.0565C65.1519 77.5819 65.5039 78.7845 66.2079 79.6645C66.9119 80.5445 67.9825 80.9845 69.4199 80.9845C70.3879 80.9845 71.2385 80.7645 71.9719 80.3245C72.7052 79.8845 73.2772 79.3419 73.6879 78.6965C74.0985 78.0219 74.3039 77.3325 74.3039 76.6285C74.3039 75.6605 74.1279 74.7072 73.7759 73.7685C73.4239 72.8299 72.8959 72.0672 72.1919 71.4805C71.4879 70.8645 70.6079 70.5565 69.5519 70.5565Z" fill="#088A08"/>
<path d="M106.216 97.0005H84.2596V92.3805L92.1356 84.4165C93.7196 82.7739 94.9956 81.4099 95.9636 80.3245C96.9316 79.2099 97.6356 78.2125 98.0756 77.3325C98.5156 76.4232 98.7356 75.4552 98.7356 74.4285C98.7356 73.1672 98.3836 72.2285 97.6796 71.6125C97.0049 70.9965 96.0809 70.6885 94.9076 70.6885C93.7049 70.6885 92.5316 70.9672 91.3876 71.5245C90.2436 72.0819 89.0409 72.8739 87.7796 73.9005L84.1716 69.6325C85.0516 68.8699 86.0049 68.1512 87.0316 67.4765C88.0582 66.7725 89.2316 66.2152 90.5516 65.8045C91.9009 65.3645 93.5142 65.1445 95.3916 65.1445C97.4449 65.1445 99.2049 65.5259 100.672 66.2885C102.168 67.0219 103.312 68.0339 104.104 69.3245C104.925 70.5859 105.336 72.0232 105.336 73.6365C105.336 75.3672 104.984 76.9512 104.28 78.3885C103.605 79.8259 102.608 81.2485 101.288 82.6565C99.9969 84.0645 98.4276 85.6192 96.5796 87.3205L92.5316 91.1045V91.4125H106.216V97.0005Z" fill="#088A08"/>
</svg>
