<svg width="158" height="94" viewBox="0 0 158 94" fill="none" xmlns="http://www.w3.org/2000/svg">
<path d="M89.5549 81.6959C89.5549 87.6437 84.6995 92.4959 78.7477 92.4959C72.7958 92.4959 67.9404 87.6437 67.9404 81.6959C67.9404 75.7481 78.7477 49.2959 78.7477 49.2959C78.7477 49.2959 89.5549 75.7481 89.5549 81.6959Z" stroke="#004E6C" stroke-width="3" stroke-miterlimit="10"/>
<path d="M32.3855 17.4961C13.9036 31.583 2 53.8091 2 78.6961H37.3976C37.3976 66.0178 43.1928 54.7483 52.1205 47.0787L32.3855 17.4961ZM125.108 17.4961L105.53 47.0787C114.458 54.7483 120.253 66.0178 120.253 78.6961H155.651C155.651 53.8091 143.59 31.583 125.108 17.4961Z" stroke="#004E6C" stroke-width="3" stroke-miterlimit="10"/>
<path d="M116.964 12.1739L97.3857 41.7565C91.7471 38.9391 85.4821 37.3739 78.7471 37.3739C72.0122 37.3739 65.7471 38.9391 60.1086 41.7565L40.5303 12.1739C51.8074 5.75652 64.8074 2 78.7471 2C92.6869 2 105.687 5.6 116.964 12.1739Z" stroke="#B35C00" stroke-width="3" stroke-miterlimit="10"/>
</svg>
