<svg width="144" height="56" viewBox="0 0 144 56" fill="none" xmlns="http://www.w3.org/2000/svg">
<path d="M8.028 8.632C8.028 10.08 7.632 11.172 6.84 11.908C6.056 12.636 4.96 13 3.552 13H1.164V4.432H3.804C4.66 4.432 5.404 4.592 6.036 4.912C6.676 5.232 7.168 5.704 7.512 6.328C7.856 6.952 8.028 7.72 8.028 8.632ZM6.888 8.668C6.888 7.524 6.604 6.688 6.036 6.16C5.476 5.624 4.68 5.356 3.648 5.356H2.244V12.076H3.408C5.728 12.076 6.888 10.94 6.888 8.668ZM12.2216 6.46C13.0056 6.46 13.5856 6.632 13.9616 6.976C14.3376 7.32 14.5256 7.868 14.5256 8.62V13H13.7576L13.5536 12.088H13.5056C13.2256 12.44 12.9296 12.7 12.6176 12.868C12.3056 13.036 11.8816 13.12 11.3456 13.12C10.7616 13.12 10.2776 12.968 9.89363 12.664C9.50963 12.352 9.31763 11.868 9.31763 11.212C9.31763 10.572 9.56963 10.08 10.0736 9.736C10.5776 9.384 11.3536 9.192 12.4016 9.16L13.4936 9.124V8.74C13.4936 8.204 13.3776 7.832 13.1456 7.624C12.9136 7.416 12.5856 7.312 12.1616 7.312C11.8256 7.312 11.5056 7.364 11.2016 7.468C10.8976 7.564 10.6136 7.676 10.3496 7.804L10.0256 7.012C10.3056 6.86 10.6376 6.732 11.0216 6.628C11.4056 6.516 11.8056 6.46 12.2216 6.46ZM13.4816 9.856L12.5336 9.892C11.7336 9.924 11.1776 10.052 10.8656 10.276C10.5616 10.5 10.4096 10.816 10.4096 11.224C10.4096 11.584 10.5176 11.848 10.7336 12.016C10.9576 12.184 11.2416 12.268 11.5856 12.268C12.1216 12.268 12.5696 12.12 12.9296 11.824C13.2976 11.52 13.4816 11.056 13.4816 10.432V9.856ZM18.6602 12.256C18.8202 12.256 18.9842 12.244 19.1522 12.22C19.3202 12.196 19.4562 12.164 19.5602 12.124V12.928C19.4482 12.984 19.2882 13.028 19.0802 13.06C18.8722 13.1 18.6722 13.12 18.4802 13.12C18.1442 13.12 17.8322 13.064 17.5442 12.952C17.2642 12.832 17.0362 12.628 16.8602 12.34C16.6842 12.052 16.5962 11.648 16.5962 11.128V7.384H15.6842V6.88L16.6082 6.46L17.0282 5.092H17.6522V6.568H19.5122V7.384H17.6522V11.104C17.6522 11.496 17.7442 11.788 17.9282 11.98C18.1202 12.164 18.3642 12.256 18.6602 12.256ZM23.2841 6.46C24.0681 6.46 24.6481 6.632 25.0241 6.976C25.4001 7.32 25.5881 7.868 25.5881 8.62V13H24.8201L24.6161 12.088H24.5681C24.2881 12.44 23.9921 12.7 23.6801 12.868C23.3681 13.036 22.9441 13.12 22.4081 13.12C21.8241 13.12 21.3401 12.968 20.9561 12.664C20.5721 12.352 20.3801 11.868 20.3801 11.212C20.3801 10.572 20.6321 10.08 21.1361 9.736C21.6401 9.384 22.4161 9.192 23.4641 9.16L24.5561 9.124V8.74C24.5561 8.204 24.4401 7.832 24.2081 7.624C23.9761 7.416 23.6481 7.312 23.2241 7.312C22.8881 7.312 22.5681 7.364 22.2641 7.468C21.9601 7.564 21.6761 7.676 21.4121 7.804L21.0881 7.012C21.3681 6.86 21.7001 6.732 22.0841 6.628C22.4681 6.516 22.8681 6.46 23.2841 6.46ZM24.5441 9.856L23.5961 9.892C22.7961 9.924 22.2401 10.052 21.9281 10.276C21.6241 10.5 21.4721 10.816 21.4721 11.224C21.4721 11.584 21.5801 11.848 21.7961 12.016C22.0201 12.184 22.3041 12.268 22.6481 12.268C23.1841 12.268 23.6321 12.12 23.9921 11.824C24.3601 11.52 24.5441 11.056 24.5441 10.432V9.856ZM33.5479 13H32.4679V5.38H29.7919V4.432H36.2119V5.38H33.5479V13ZM36.1175 6.568H37.2455L38.6375 10.228C38.7575 10.556 38.8655 10.864 38.9615 11.152C39.0575 11.44 39.1295 11.716 39.1775 11.98H39.2255C39.2735 11.78 39.3495 11.52 39.4535 11.2C39.5575 10.872 39.6655 10.544 39.7775 10.216L41.0855 6.568H42.2255L39.4535 13.888C39.2215 14.496 38.9295 14.98 38.5775 15.34C38.2255 15.7 37.7375 15.88 37.1135 15.88C36.9215 15.88 36.7535 15.868 36.6095 15.844C36.4655 15.828 36.3415 15.808 36.2375 15.784V14.944C36.3255 14.96 36.4295 14.976 36.5495 14.992C36.6775 15.008 36.8095 15.016 36.9455 15.016C37.3135 15.016 37.6095 14.912 37.8335 14.704C38.0575 14.496 38.2375 14.22 38.3735 13.876L38.7095 13.024L36.1175 6.568ZM46.3027 6.448C47.0947 6.448 47.7307 6.724 48.2107 7.276C48.6987 7.828 48.9427 8.66 48.9427 9.772C48.9427 10.868 48.6987 11.7 48.2107 12.268C47.7307 12.836 47.0907 13.12 46.2907 13.12C45.7947 13.12 45.3827 13.028 45.0547 12.844C44.7347 12.66 44.4827 12.44 44.2987 12.184H44.2267C44.2347 12.32 44.2467 12.492 44.2627 12.7C44.2867 12.908 44.2987 13.088 44.2987 13.24V15.88H43.2427V6.568H44.1067L44.2507 7.444H44.2987C44.4907 7.164 44.7427 6.928 45.0547 6.736C45.3667 6.544 45.7827 6.448 46.3027 6.448ZM46.1107 7.336C45.4547 7.336 44.9907 7.52 44.7187 7.888C44.4467 8.256 44.3067 8.816 44.2987 9.568V9.772C44.2987 10.564 44.4267 11.176 44.6827 11.608C44.9467 12.032 45.4307 12.244 46.1347 12.244C46.5187 12.244 46.8387 12.14 47.0947 11.932C47.3507 11.716 47.5387 11.42 47.6587 11.044C47.7867 10.668 47.8507 10.24 47.8507 9.76C47.8507 9.024 47.7067 8.436 47.4187 7.996C47.1387 7.556 46.7027 7.336 46.1107 7.336ZM53.1095 6.448C53.6535 6.448 54.1255 6.568 54.5255 6.808C54.9255 7.048 55.2295 7.388 55.4375 7.828C55.6535 8.26 55.7615 8.768 55.7615 9.352V9.988H51.3575C51.3735 10.716 51.5575 11.272 51.9095 11.656C52.2695 12.032 52.7695 12.22 53.4095 12.22C53.8175 12.22 54.1775 12.184 54.4895 12.112C54.8095 12.032 55.1375 11.92 55.4735 11.776V12.7C55.1455 12.844 54.8215 12.948 54.5015 13.012C54.1815 13.084 53.8015 13.12 53.3615 13.12C52.7455 13.12 52.2055 12.996 51.7415 12.748C51.2775 12.5 50.9135 12.132 50.6495 11.644C50.3935 11.156 50.2655 10.552 50.2655 9.832C50.2655 9.128 50.3815 8.524 50.6135 8.02C50.8535 7.516 51.1855 7.128 51.6095 6.856C52.0415 6.584 52.5415 6.448 53.1095 6.448ZM53.0975 7.312C52.5935 7.312 52.1935 7.476 51.8975 7.804C51.6095 8.124 51.4375 8.572 51.3815 9.148H54.6575C54.6495 8.604 54.5215 8.164 54.2735 7.828C54.0255 7.484 53.6335 7.312 53.0975 7.312Z" fill="#323232"/>
<rect x="0.5" y="20.5" width="143" height="35" rx="1.5" fill="white"/>
<path d="M17.642 33.97C16.5687 33.97 15.724 34.3293 15.108 35.048C14.492 35.7667 14.184 36.7513 14.184 38.002C14.184 39.2433 14.4687 40.228 15.038 40.956C15.6167 41.6747 16.48 42.034 17.628 42.034C18.0573 42.034 18.468 41.9967 18.86 41.922C19.252 41.8473 19.6393 41.754 20.022 41.642V42.734C19.6487 42.874 19.2613 42.9767 18.86 43.042C18.468 43.1073 17.9967 43.14 17.446 43.14C16.4287 43.14 15.5793 42.93 14.898 42.51C14.2167 42.09 13.7033 41.4927 13.358 40.718C13.022 39.9433 12.854 39.0333 12.854 37.988C12.854 36.98 13.036 36.0933 13.4 35.328C13.7733 34.5533 14.3193 33.9513 15.038 33.522C15.7567 33.0833 16.6293 32.864 17.656 32.864C18.7107 32.864 19.63 33.06 20.414 33.452L19.91 34.516C19.602 34.376 19.2567 34.25 18.874 34.138C18.5007 34.026 18.09 33.97 17.642 33.97ZM24.8777 35.37C25.7924 35.37 26.469 35.5707 26.9077 35.972C27.3464 36.3733 27.5657 37.0127 27.5657 37.89V43H26.6697L26.4317 41.936H26.3757C26.049 42.3467 25.7037 42.65 25.3397 42.846C24.9757 43.042 24.481 43.14 23.8557 43.14C23.1744 43.14 22.6097 42.9627 22.1617 42.608C21.7137 42.244 21.4897 41.6793 21.4897 40.914C21.4897 40.1673 21.7837 39.5933 22.3717 39.192C22.9597 38.7813 23.865 38.5573 25.0877 38.52L26.3617 38.478V38.03C26.3617 37.4047 26.2264 36.9707 25.9557 36.728C25.685 36.4853 25.3024 36.364 24.8077 36.364C24.4157 36.364 24.0424 36.4247 23.6877 36.546C23.333 36.658 23.0017 36.7887 22.6937 36.938L22.3157 36.014C22.6424 35.8367 23.0297 35.6873 23.4777 35.566C23.9257 35.4353 24.3924 35.37 24.8777 35.37ZM26.3477 39.332L25.2417 39.374C24.3084 39.4113 23.6597 39.5607 23.2957 39.822C22.941 40.0833 22.7637 40.452 22.7637 40.928C22.7637 41.348 22.8897 41.656 23.1417 41.852C23.403 42.048 23.7344 42.146 24.1357 42.146C24.761 42.146 25.2837 41.9733 25.7037 41.628C26.133 41.2733 26.3477 40.732 26.3477 40.004V39.332ZM32.3894 42.132C32.576 42.132 32.7674 42.118 32.9634 42.09C33.1594 42.062 33.318 42.0247 33.4394 41.978V42.916C33.3087 42.9813 33.122 43.0327 32.8794 43.07C32.6367 43.1167 32.4034 43.14 32.1794 43.14C31.7874 43.14 31.4234 43.0747 31.0874 42.944C30.7607 42.804 30.4947 42.566 30.2894 42.23C30.084 41.894 29.9814 41.4227 29.9814 40.816V36.448H28.9174V35.86L29.9954 35.37L30.4854 33.774H31.2134V35.496H33.3834V36.448H31.2134V40.788C31.2134 41.2453 31.3207 41.586 31.5354 41.81C31.7594 42.0247 32.044 42.132 32.3894 42.132ZM37.84 35.356C38.4746 35.356 39.0253 35.496 39.492 35.776C39.9586 36.056 40.3133 36.4527 40.556 36.966C40.808 37.47 40.934 38.0627 40.934 38.744V39.486H35.796C35.8146 40.3353 36.0293 40.984 36.44 41.432C36.86 41.8707 37.4433 42.09 38.19 42.09C38.666 42.09 39.086 42.048 39.45 41.964C39.8233 41.8707 40.206 41.74 40.598 41.572V42.65C40.2153 42.818 39.8373 42.9393 39.464 43.014C39.0906 43.098 38.6473 43.14 38.134 43.14C37.4153 43.14 36.7853 42.9953 36.244 42.706C35.7026 42.4167 35.278 41.9873 34.97 41.418C34.6713 40.8487 34.522 40.144 34.522 39.304C34.522 38.4827 34.6573 37.778 34.928 37.19C35.208 36.602 35.5953 36.1493 36.09 35.832C36.594 35.5147 37.1773 35.356 37.84 35.356ZM37.826 36.364C37.238 36.364 36.7713 36.5553 36.426 36.938C36.09 37.3113 35.8893 37.834 35.824 38.506H39.646C39.6366 37.8713 39.4873 37.358 39.198 36.966C38.9086 36.5647 38.4513 36.364 37.826 36.364ZM45.5043 35.356C45.999 35.356 46.4423 35.4493 46.8343 35.636C47.2356 35.8227 47.5763 36.1073 47.8563 36.49H47.9263L48.0943 35.496H49.0743V43.126C49.0743 44.1993 48.799 45.0067 48.2483 45.548C47.707 46.0893 46.8623 46.36 45.7143 46.36C44.613 46.36 43.7123 46.2013 43.0123 45.884V44.75C43.7496 45.142 44.6736 45.338 45.7843 45.338C46.4283 45.338 46.9323 45.1467 47.2963 44.764C47.6696 44.3907 47.8563 43.8773 47.8563 43.224V42.93C47.8563 42.818 47.861 42.6593 47.8703 42.454C47.8796 42.2393 47.889 42.09 47.8983 42.006H47.8423C47.3383 42.762 46.5636 43.14 45.5183 43.14C44.5476 43.14 43.787 42.7993 43.2363 42.118C42.695 41.4367 42.4243 40.4847 42.4243 39.262C42.4243 38.0673 42.695 37.12 43.2363 36.42C43.787 35.7107 44.543 35.356 45.5043 35.356ZM45.6723 36.392C45.047 36.392 44.5616 36.644 44.2163 37.148C43.871 37.6427 43.6983 38.352 43.6983 39.276C43.6983 40.2 43.8663 40.9093 44.2023 41.404C44.5383 41.8893 45.0376 42.132 45.7003 42.132C46.4563 42.132 47.007 41.9313 47.3523 41.53C47.6976 41.1193 47.8703 40.4613 47.8703 39.556V39.262C47.8703 38.2447 47.693 37.512 47.3383 37.064C46.9836 36.616 46.4283 36.392 45.6723 36.392ZM57.9816 39.234C57.9816 40.4753 57.6642 41.4367 57.0296 42.118C56.4042 42.7993 55.5549 43.14 54.4816 43.14C53.8189 43.14 53.2262 42.9907 52.7036 42.692C52.1902 42.384 51.7842 41.9407 51.4856 41.362C51.1869 40.774 51.0376 40.0647 51.0376 39.234C51.0376 37.9927 51.3456 37.036 51.9616 36.364C52.5869 35.692 53.4409 35.356 54.5236 35.356C55.1956 35.356 55.7929 35.51 56.3156 35.818C56.8382 36.1167 57.2442 36.5553 57.5336 37.134C57.8322 37.7033 57.9816 38.4033 57.9816 39.234ZM52.3116 39.234C52.3116 40.1207 52.4842 40.8253 52.8296 41.348C53.1842 41.8613 53.7442 42.118 54.5096 42.118C55.2656 42.118 55.8209 41.8613 56.1756 41.348C56.5302 40.8253 56.7076 40.1207 56.7076 39.234C56.7076 38.3473 56.5302 37.652 56.1756 37.148C55.8209 36.644 55.2609 36.392 54.4956 36.392C53.7302 36.392 53.1749 36.644 52.8296 37.148C52.4842 37.652 52.3116 38.3473 52.3116 39.234ZM63.4341 35.356C63.5741 35.356 63.7235 35.3653 63.8821 35.384C64.0408 35.3933 64.1855 35.412 64.3161 35.44L64.1621 36.574C64.0408 36.546 63.9055 36.5227 63.7561 36.504C63.6068 36.4853 63.4715 36.476 63.3501 36.476C62.9675 36.476 62.6081 36.5833 62.2721 36.798C61.9361 37.0033 61.6655 37.2973 61.4601 37.68C61.2641 38.0533 61.1661 38.492 61.1661 38.996V43H59.9341V35.496H60.9421L61.0821 36.868H61.1381C61.3715 36.4573 61.6795 36.1027 62.0621 35.804C62.4541 35.5053 62.9115 35.356 63.4341 35.356ZM66.3473 32.682C66.534 32.682 66.6973 32.7473 66.8373 32.878C66.9867 32.9993 67.0613 33.1953 67.0613 33.466C67.0613 33.7367 66.9867 33.9373 66.8373 34.068C66.6973 34.1893 66.534 34.25 66.3473 34.25C66.142 34.25 65.9693 34.1893 65.8293 34.068C65.6893 33.9373 65.6193 33.7367 65.6193 33.466C65.6193 33.1953 65.6893 32.9993 65.8293 32.878C65.9693 32.7473 66.142 32.682 66.3473 32.682ZM66.9493 35.496V43H65.7173V35.496H66.9493ZM72.3367 43.14C71.6647 43.14 71.0721 43.0047 70.5587 42.734C70.0454 42.4633 69.6394 42.0433 69.3407 41.474C69.0514 40.9047 68.9067 40.1767 68.9067 39.29C68.9067 38.366 69.0561 37.6147 69.3547 37.036C69.6627 36.4573 70.0827 36.0327 70.6147 35.762C71.1467 35.4913 71.7487 35.356 72.4207 35.356C72.7941 35.356 73.1581 35.398 73.5127 35.482C73.8767 35.5567 74.1707 35.65 74.3947 35.762L74.0167 36.784C73.7927 36.7 73.5314 36.6207 73.2327 36.546C72.9341 36.4713 72.6541 36.434 72.3927 36.434C70.9181 36.434 70.1807 37.3813 70.1807 39.276C70.1807 40.1813 70.3581 40.8767 70.7127 41.362C71.0767 41.838 71.6134 42.076 72.3227 42.076C72.7241 42.076 73.0834 42.034 73.4007 41.95C73.7181 41.866 74.0074 41.7633 74.2687 41.642V42.734C74.0167 42.8647 73.7367 42.9627 73.4287 43.028C73.1301 43.1027 72.7661 43.14 72.3367 43.14ZM78.8953 35.37C79.8099 35.37 80.4866 35.5707 80.9253 35.972C81.3639 36.3733 81.5833 37.0127 81.5833 37.89V43H80.6873L80.4493 41.936H80.3933C80.0666 42.3467 79.7213 42.65 79.3573 42.846C78.9933 43.042 78.4986 43.14 77.8733 43.14C77.1919 43.14 76.6273 42.9627 76.1793 42.608C75.7313 42.244 75.5073 41.6793 75.5073 40.914C75.5073 40.1673 75.8013 39.5933 76.3893 39.192C76.9773 38.7813 77.8826 38.5573 79.1053 38.52L80.3793 38.478V38.03C80.3793 37.4047 80.2439 36.9707 79.9733 36.728C79.7026 36.4853 79.3199 36.364 78.8253 36.364C78.4333 36.364 78.0599 36.4247 77.7053 36.546C77.3506 36.658 77.0193 36.7887 76.7113 36.938L76.3333 36.014C76.6599 35.8367 77.0473 35.6873 77.4953 35.566C77.9433 35.4353 78.4099 35.37 78.8953 35.37ZM80.3653 39.332L79.2593 39.374C78.3259 39.4113 77.6773 39.5607 77.3133 39.822C76.9586 40.0833 76.7813 40.452 76.7813 40.928C76.7813 41.348 76.9073 41.656 77.1593 41.852C77.4206 42.048 77.7519 42.146 78.1533 42.146C78.7786 42.146 79.3013 41.9733 79.7213 41.628C80.1506 41.2733 80.3653 40.732 80.3653 40.004V39.332ZM85.1329 43H83.9009V32.36H85.1329V43Z" fill="black"/>
<path d="M124.012 41.3625C123.912 41.3625 123.812 41.3125 123.762 41.2625L118.113 35.6625C117.962 35.5125 117.962 35.2625 118.113 35.1125C118.263 34.9625 118.512 34.9625 118.662 35.1125L124.012 40.4625L129.312 35.1125C129.462 34.9625 129.713 34.9625 129.863 35.1125C130.012 35.2625 130.012 35.5125 129.863 35.6625L124.262 41.2625C124.162 41.3125 124.112 41.3625 124.012 41.3625Z" fill="#323232"/>
<rect x="0.5" y="20.5" width="143" height="35" rx="1.5" stroke="#939393"/>
</svg>
