<svg width="270" height="98" viewBox="0 0 270 98" fill="none" xmlns="http://www.w3.org/2000/svg">
<rect width="269.333" height="98" fill="white"/>
<rect width="165" height="44" transform="translate(80.1665)" fill="white"/>
<path d="M97.4685 27V17.004H99.2605V25.488H103.433V27H97.4685ZM108.022 19.272C109.002 19.272 109.744 19.4867 110.248 19.916C110.761 20.3453 111.018 21.008 111.018 21.904V27H109.772L109.422 25.95H109.366C109.039 26.3607 108.694 26.664 108.33 26.86C107.966 27.0467 107.471 27.14 106.846 27.14C106.164 27.14 105.6 26.9487 105.152 26.566C104.704 26.1833 104.48 25.5907 104.48 24.788C104.48 24.004 104.764 23.416 105.334 23.024C105.912 22.632 106.785 22.4127 107.952 22.366L109.268 22.324V21.946C109.268 21.4607 109.151 21.1153 108.918 20.91C108.684 20.7047 108.358 20.602 107.938 20.602C107.555 20.602 107.186 20.658 106.832 20.77C106.486 20.8727 106.141 21.0033 105.796 21.162L105.236 19.93C105.609 19.734 106.034 19.5753 106.51 19.454C106.995 19.3327 107.499 19.272 108.022 19.272ZM109.268 23.416L108.344 23.444C107.569 23.472 107.032 23.6073 106.734 23.85C106.435 24.0833 106.286 24.4007 106.286 24.802C106.286 25.166 106.388 25.4273 106.594 25.586C106.808 25.7353 107.088 25.81 107.434 25.81C107.947 25.81 108.381 25.6653 108.736 25.376C109.09 25.0773 109.268 24.6387 109.268 24.06V23.416ZM118.394 24.802C118.394 25.5673 118.119 26.1507 117.568 26.552C117.027 26.944 116.248 27.14 115.23 27.14C114.698 27.14 114.241 27.1027 113.858 27.028C113.485 26.9533 113.121 26.8367 112.766 26.678V25.18C113.14 25.3573 113.55 25.5067 113.998 25.628C114.456 25.7493 114.885 25.81 115.286 25.81C115.772 25.81 116.122 25.7353 116.336 25.586C116.551 25.4367 116.658 25.236 116.658 24.984C116.658 24.8347 116.616 24.704 116.532 24.592C116.448 24.4707 116.285 24.34 116.042 24.2C115.8 24.06 115.431 23.8873 114.936 23.682C114.451 23.486 114.045 23.29 113.718 23.094C113.401 22.898 113.158 22.6647 112.99 22.394C112.832 22.1233 112.752 21.7733 112.752 21.344C112.752 20.6627 113.023 20.1493 113.564 19.804C114.106 19.4493 114.82 19.272 115.706 19.272C116.173 19.272 116.612 19.3187 117.022 19.412C117.442 19.5053 117.862 19.6453 118.282 19.832L117.722 21.134C117.368 20.9847 117.022 20.8587 116.686 20.756C116.35 20.6533 116.005 20.602 115.65 20.602C114.876 20.602 114.488 20.8213 114.488 21.26C114.488 21.4187 114.535 21.554 114.628 21.666C114.731 21.778 114.904 21.8993 115.146 22.03C115.398 22.1513 115.753 22.3007 116.21 22.478C116.658 22.6553 117.046 22.842 117.372 23.038C117.699 23.2247 117.951 23.458 118.128 23.738C118.306 24.0087 118.394 24.3633 118.394 24.802ZM123.032 25.726C123.246 25.726 123.456 25.7073 123.662 25.67C123.876 25.6233 124.072 25.572 124.25 25.516V26.832C124.063 26.9253 123.82 27 123.522 27.056C123.223 27.112 122.91 27.14 122.584 27.14C122.145 27.14 121.748 27.07 121.394 26.93C121.048 26.79 120.773 26.5427 120.568 26.188C120.362 25.8333 120.26 25.334 120.26 24.69V20.742H119.238V19.972L120.358 19.356L120.918 17.746H122.024V19.412H124.18V20.742H122.024V24.676C122.024 25.0307 122.117 25.2967 122.304 25.474C122.5 25.642 122.742 25.726 123.032 25.726ZM133.882 27L131.138 18.81H131.082C131.1 18.9967 131.114 19.2627 131.124 19.608C131.142 19.944 131.156 20.3127 131.166 20.714C131.184 21.106 131.194 21.4747 131.194 21.82V27H129.584V17.004H132.076L134.708 24.858H134.764L137.508 17.004H140V27H138.292V21.736C138.292 21.4187 138.296 21.0733 138.306 20.7C138.324 20.3173 138.338 19.958 138.348 19.622C138.366 19.2767 138.38 19.0107 138.39 18.824H138.334L135.478 27H133.882ZM149.194 23.192C149.194 24.452 148.867 25.4273 148.214 26.118C147.56 26.7993 146.674 27.14 145.554 27.14C144.863 27.14 144.247 26.986 143.706 26.678C143.164 26.37 142.74 25.922 142.432 25.334C142.124 24.746 141.97 24.032 141.97 23.192C141.97 21.932 142.292 20.966 142.936 20.294C143.589 19.6127 144.476 19.272 145.596 19.272C146.296 19.272 146.916 19.426 147.458 19.734C147.999 20.0327 148.424 20.476 148.732 21.064C149.04 21.6427 149.194 22.352 149.194 23.192ZM143.776 23.192C143.776 23.9947 143.916 24.6153 144.196 25.054C144.485 25.4927 144.947 25.712 145.582 25.712C146.207 25.712 146.664 25.4927 146.954 25.054C147.243 24.6153 147.388 23.9947 147.388 23.192C147.388 22.3893 147.243 21.7733 146.954 21.344C146.664 20.9147 146.202 20.7 145.568 20.7C144.933 20.7 144.476 20.9147 144.196 21.344C143.916 21.7733 143.776 22.3893 143.776 23.192ZM153.523 27.14C152.646 27.14 151.932 26.8133 151.381 26.16C150.84 25.4973 150.569 24.5173 150.569 23.22C150.569 21.9133 150.845 20.9287 151.395 20.266C151.946 19.6033 152.669 19.272 153.565 19.272C154.125 19.272 154.583 19.3793 154.937 19.594C155.301 19.8087 155.591 20.07 155.805 20.378H155.889C155.861 20.2473 155.833 20.0513 155.805 19.79C155.777 19.5193 155.763 19.2627 155.763 19.02V16.36H157.527V27H156.155L155.833 26.006H155.763C155.549 26.3233 155.264 26.594 154.909 26.818C154.555 27.0327 154.093 27.14 153.523 27.14ZM154.055 25.712C154.709 25.712 155.166 25.5253 155.427 25.152C155.698 24.7787 155.838 24.214 155.847 23.458V23.234C155.847 22.422 155.717 21.8013 155.455 21.372C155.203 20.9333 154.727 20.714 154.027 20.714C153.486 20.714 153.071 20.938 152.781 21.386C152.501 21.8247 152.361 22.4453 152.361 23.248C152.361 24.0507 152.506 24.662 152.795 25.082C153.085 25.502 153.505 25.712 154.055 25.712ZM160.663 16.486C160.924 16.486 161.153 16.556 161.349 16.696C161.545 16.8267 161.643 17.0647 161.643 17.41C161.643 17.7553 161.545 17.998 161.349 18.138C161.153 18.278 160.924 18.348 160.663 18.348C160.392 18.348 160.159 18.278 159.963 18.138C159.776 17.998 159.683 17.7553 159.683 17.41C159.683 17.0647 159.776 16.8267 159.963 16.696C160.159 16.556 160.392 16.486 160.663 16.486ZM161.545 19.412V27H159.781V19.412H161.545ZM167.735 20.742H165.901V27H164.137V20.742H162.919V19.902L164.137 19.398V18.88C164.137 17.9093 164.365 17.2373 164.823 16.864C165.289 16.4813 165.924 16.29 166.727 16.29C167.091 16.29 167.422 16.3227 167.721 16.388C168.029 16.444 168.281 16.5093 168.477 16.584L168.029 17.9C167.87 17.8533 167.693 17.8113 167.497 17.774C167.31 17.7273 167.105 17.704 166.881 17.704C166.535 17.704 166.283 17.8113 166.125 18.026C165.975 18.2313 165.901 18.53 165.901 18.922V19.412H167.735V20.742ZM169.878 16.486C170.139 16.486 170.368 16.556 170.564 16.696C170.76 16.8267 170.858 17.0647 170.858 17.41C170.858 17.7553 170.76 17.998 170.564 18.138C170.368 18.278 170.139 18.348 169.878 18.348C169.607 18.348 169.374 18.278 169.178 18.138C168.991 17.998 168.898 17.7553 168.898 17.41C168.898 17.0647 168.991 16.8267 169.178 16.696C169.374 16.556 169.607 16.486 169.878 16.486ZM170.76 19.412V27H168.996V19.412H170.76ZM176.067 19.272C177.085 19.272 177.887 19.5753 178.475 20.182C179.073 20.7887 179.371 21.6333 179.371 22.716V23.612H174.359C174.378 24.3027 174.569 24.8393 174.933 25.222C175.297 25.5953 175.801 25.782 176.445 25.782C176.931 25.782 177.369 25.7353 177.761 25.642C178.153 25.5393 178.555 25.3947 178.965 25.208V26.622C178.592 26.7993 178.205 26.93 177.803 27.014C177.402 27.098 176.921 27.14 176.361 27.14C175.615 27.14 174.957 27 174.387 26.72C173.818 26.4307 173.37 26.0013 173.043 25.432C172.726 24.8533 172.567 24.13 172.567 23.262C172.567 21.9647 172.885 20.9753 173.519 20.294C174.163 19.6127 175.013 19.272 176.067 19.272ZM176.067 20.574C175.591 20.574 175.204 20.728 174.905 21.036C174.616 21.3347 174.448 21.7827 174.401 22.38H177.663C177.654 21.8573 177.519 21.428 177.257 21.092C177.005 20.7467 176.609 20.574 176.067 20.574ZM183.656 27.14C182.779 27.14 182.065 26.8133 181.514 26.16C180.973 25.4973 180.702 24.5173 180.702 23.22C180.702 21.9133 180.977 20.9287 181.528 20.266C182.079 19.6033 182.802 19.272 183.698 19.272C184.258 19.272 184.715 19.3793 185.07 19.594C185.434 19.8087 185.723 20.07 185.938 20.378H186.022C185.994 20.2473 185.966 20.0513 185.938 19.79C185.91 19.5193 185.896 19.2627 185.896 19.02V16.36H187.66V27H186.288L185.966 26.006H185.896C185.681 26.3233 185.397 26.594 185.042 26.818C184.687 27.0327 184.225 27.14 183.656 27.14ZM184.188 25.712C184.841 25.712 185.299 25.5253 185.56 25.152C185.831 24.7787 185.971 24.214 185.98 23.458V23.234C185.98 22.422 185.849 21.8013 185.588 21.372C185.336 20.9333 184.86 20.714 184.16 20.714C183.619 20.714 183.203 20.938 182.914 21.386C182.634 21.8247 182.494 22.4453 182.494 23.248C182.494 24.0507 182.639 24.662 182.928 25.082C183.217 25.502 183.637 25.712 184.188 25.712Z" fill="black"/>
<path fill-rule="evenodd" clip-rule="evenodd" d="M205.092 29C205.299 29 205.467 28.8321 205.467 28.625V16.8303L209.426 20.7902C209.573 20.9366 209.81 20.9366 209.957 20.7902C210.103 20.6437 210.103 20.4063 209.957 20.2598L205.357 15.6598C205.286 15.5893 205.19 15.5497 205.09 15.55C204.991 15.5503 204.895 15.5903 204.825 15.6613L200.275 20.2613C200.129 20.4085 200.131 20.646 200.278 20.7916C200.425 20.9373 200.662 20.936 200.808 20.7887L204.717 16.8374V28.625C204.717 28.8321 204.884 29 205.092 29Z" fill="#323232"/>
<path d="M229.179 25.3625C229.079 25.3625 228.979 25.3125 228.929 25.2625L223.279 19.6625C223.129 19.5125 223.129 19.2625 223.279 19.1125C223.429 18.9625 223.679 18.9625 223.829 19.1125L229.179 24.4625L234.479 19.1125C234.629 18.9625 234.879 18.9625 235.029 19.1125C235.179 19.2625 235.179 19.5125 235.029 19.6625L229.429 25.2625C229.329 25.3125 229.279 25.3625 229.179 25.3625Z" fill="black"/>
<line x1="80.1665" y1="0.5" x2="245.167" y2="0.500014" stroke="#C9C9C9"/>
<line x1="80.1665" y1="43.5" x2="245.167" y2="43.5" stroke="#C9C9C9"/>
<rect width="165" height="44" transform="translate(80.1665 44)" fill="white"/>
<path d="M103.489 65.988C103.489 67.0707 103.377 67.9947 103.153 68.76C102.929 69.5253 102.569 70.1133 102.075 70.524C101.589 70.9347 100.95 71.14 100.157 71.14C99.0272 71.14 98.1918 70.6873 97.6505 69.782C97.1185 68.8673 96.8525 67.6027 96.8525 65.988C96.8525 64.9053 96.9598 63.9813 97.1745 63.216C97.3985 62.4507 97.7532 61.8673 98.2385 61.466C98.7238 61.0553 99.3632 60.85 100.157 60.85C101.277 60.85 102.112 61.3027 102.663 62.208C103.213 63.104 103.489 64.364 103.489 65.988ZM98.0845 65.988C98.0845 67.36 98.2385 68.3867 98.5465 69.068C98.8638 69.7493 99.4005 70.09 100.157 70.09C100.903 70.09 101.435 69.754 101.753 69.082C102.079 68.4007 102.243 67.3693 102.243 65.988C102.243 64.6253 102.079 63.6033 101.753 62.922C101.435 62.2407 100.903 61.9 100.157 61.9C99.4005 61.9 98.8638 62.2407 98.5465 62.922C98.2385 63.6033 98.0845 64.6253 98.0845 65.988ZM109.148 71H107.944V64.014C107.944 63.6127 107.949 63.2907 107.958 63.048C107.968 62.8053 107.982 62.5533 108 62.292C107.851 62.4413 107.711 62.5673 107.58 62.67C107.459 62.7727 107.31 62.9033 107.132 63.062L106.068 63.93L105.424 63.104L108.126 61.004H109.148V71ZM117.258 61.004L113.534 71H112.33L116.054 61.004H117.258ZM122.369 71H121.165V64.014C121.165 63.6127 121.17 63.2907 121.179 63.048C121.188 62.8053 121.202 62.5533 121.221 62.292C121.072 62.4413 120.932 62.5673 120.801 62.67C120.68 62.7727 120.53 62.9033 120.353 63.062L119.289 63.93L118.645 63.104L121.347 61.004H122.369V71ZM132.313 63.342C132.313 64.014 132.121 64.5507 131.739 64.952C131.365 65.344 130.866 65.6053 130.241 65.736V65.792C131.034 65.8853 131.627 66.1373 132.019 66.548C132.42 66.9587 132.621 67.4953 132.621 68.158C132.621 68.746 132.485 69.264 132.215 69.712C131.944 70.16 131.524 70.51 130.955 70.762C130.395 71.014 129.671 71.14 128.785 71.14C128.262 71.14 127.777 71.098 127.329 71.014C126.881 70.9393 126.451 70.7993 126.041 70.594V69.446C126.461 69.6607 126.913 69.824 127.399 69.936C127.884 70.048 128.351 70.104 128.799 70.104C129.695 70.104 130.339 69.9313 130.731 69.586C131.132 69.2313 131.333 68.746 131.333 68.13C131.333 67.5047 131.085 67.0567 130.591 66.786C130.105 66.506 129.419 66.366 128.533 66.366H127.567V65.316H128.547C129.368 65.316 129.989 65.1433 130.409 64.798C130.838 64.4527 131.053 63.9953 131.053 63.426C131.053 62.9407 130.889 62.5673 130.563 62.306C130.236 62.0353 129.793 61.9 129.233 61.9C128.691 61.9 128.229 61.9793 127.847 62.138C127.464 62.2967 127.086 62.4973 126.713 62.74L126.097 61.9C126.451 61.62 126.89 61.3773 127.413 61.172C127.945 60.9667 128.547 60.864 129.219 60.864C130.264 60.864 131.039 61.0973 131.543 61.564C132.056 62.0307 132.313 62.6233 132.313 63.342ZM138.49 61.004L134.766 71H133.562L137.286 61.004H138.49ZM145.911 71H139.303V69.978L141.921 67.332C142.416 66.828 142.836 66.38 143.181 65.988C143.536 65.596 143.802 65.2133 143.979 64.84C144.157 64.4667 144.245 64.0513 144.245 63.594C144.245 63.0433 144.082 62.628 143.755 62.348C143.429 62.0587 143.004 61.914 142.481 61.914C141.987 61.914 141.557 61.998 141.193 62.166C140.829 62.334 140.456 62.5673 140.073 62.866L139.415 62.04C139.807 61.7133 140.255 61.438 140.759 61.214C141.273 60.9807 141.847 60.864 142.481 60.864C143.415 60.864 144.152 61.102 144.693 61.578C145.235 62.054 145.505 62.7027 145.505 63.524C145.505 64.0467 145.398 64.5367 145.183 64.994C144.969 65.4513 144.67 65.904 144.287 66.352C143.905 66.8 143.457 67.2713 142.943 67.766L140.857 69.824V69.88H145.911V71ZM153.965 65.988C153.965 67.0707 153.853 67.9947 153.629 68.76C153.405 69.5253 153.046 70.1133 152.551 70.524C152.066 70.9347 151.426 71.14 150.633 71.14C149.504 71.14 148.668 70.6873 148.127 69.782C147.595 68.8673 147.329 67.6027 147.329 65.988C147.329 64.9053 147.436 63.9813 147.651 63.216C147.875 62.4507 148.23 61.8673 148.715 61.466C149.2 61.0553 149.84 60.85 150.633 60.85C151.753 60.85 152.588 61.3027 153.139 62.208C153.69 63.104 153.965 64.364 153.965 65.988ZM148.561 65.988C148.561 67.36 148.715 68.3867 149.023 69.068C149.34 69.7493 149.877 70.09 150.633 70.09C151.38 70.09 151.912 69.754 152.229 69.082C152.556 68.4007 152.719 67.3693 152.719 65.988C152.719 64.6253 152.556 63.6033 152.229 62.922C151.912 62.2407 151.38 61.9 150.633 61.9C149.877 61.9 149.34 62.2407 149.023 62.922C148.715 63.6033 148.561 64.6253 148.561 65.988ZM161.935 71H155.327V69.978L157.945 67.332C158.439 66.828 158.859 66.38 159.205 65.988C159.559 65.596 159.825 65.2133 160.003 64.84C160.18 64.4667 160.269 64.0513 160.269 63.594C160.269 63.0433 160.105 62.628 159.779 62.348C159.452 62.0587 159.027 61.914 158.505 61.914C158.01 61.914 157.581 61.998 157.217 62.166C156.853 62.334 156.479 62.5673 156.097 62.866L155.439 62.04C155.831 61.7133 156.279 61.438 156.783 61.214C157.296 60.9807 157.87 60.864 158.505 60.864C159.438 60.864 160.175 61.102 160.717 61.578C161.258 62.054 161.529 62.7027 161.529 63.524C161.529 64.0467 161.421 64.5367 161.207 64.994C160.992 65.4513 160.693 65.904 160.311 66.352C159.928 66.8 159.48 67.2713 158.967 67.766L156.881 69.824V69.88H161.935V71ZM169.947 71H163.339V69.978L165.957 67.332C166.451 66.828 166.871 66.38 167.217 65.988C167.571 65.596 167.837 65.2133 168.015 64.84C168.192 64.4667 168.281 64.0513 168.281 63.594C168.281 63.0433 168.117 62.628 167.791 62.348C167.464 62.0587 167.039 61.914 166.517 61.914C166.022 61.914 165.593 61.998 165.229 62.166C164.865 62.334 164.491 62.5673 164.109 62.866L163.451 62.04C163.843 61.7133 164.291 61.438 164.795 61.214C165.308 60.9807 165.882 60.864 166.517 60.864C167.45 60.864 168.187 61.102 168.729 61.578C169.27 62.054 169.541 62.7027 169.541 63.524C169.541 64.0467 169.433 64.5367 169.219 64.994C169.004 65.4513 168.705 65.904 168.323 66.352C167.94 66.8 167.492 67.2713 166.979 67.766L164.893 69.824V69.88H169.947V71Z" fill="black"/>
<line x1="80.1665" y1="87.5" x2="245.167" y2="87.5" stroke="#F1F1F1"/>
<path d="M31.9381 25.858H30.6361V28H28.9001V25.858H24.4481V24.542L28.9421 17.976H30.6361V24.416H31.9381V25.858ZM28.9001 24.416V22.176C28.9001 21.9147 28.9048 21.644 28.9141 21.364C28.9235 21.0747 28.9328 20.8087 28.9421 20.566C28.9608 20.314 28.9748 20.1227 28.9841 19.992H28.9281C28.8441 20.1787 28.7508 20.3653 28.6481 20.552C28.5548 20.7293 28.4475 20.9067 28.3261 21.084L26.0581 24.416H28.9001ZM39.9498 25.858H38.6478V28H36.9118V25.858H32.4598V24.542L36.9538 17.976H38.6478V24.416H39.9498V25.858ZM36.9118 24.416V22.176C36.9118 21.9147 36.9165 21.644 36.9258 21.364C36.9352 21.0747 36.9445 20.8087 36.9538 20.566C36.9725 20.314 36.9865 20.1227 36.9958 19.992H36.9398C36.8558 20.1787 36.7625 20.3653 36.6598 20.552C36.5665 20.7293 36.4592 20.9067 36.3378 21.084L34.0698 24.416H36.9118ZM48.9663 20.272C49.853 20.272 50.567 20.6033 51.1083 21.266C51.6496 21.9193 51.9203 22.8947 51.9203 24.192C51.9203 25.4893 51.6403 26.474 51.0803 27.146C50.5296 27.8087 49.811 28.14 48.9243 28.14C48.3643 28.14 47.9116 28.0373 47.5663 27.832C47.221 27.6267 46.9456 27.3887 46.7403 27.118H46.6283C46.6563 27.2953 46.6796 27.4867 46.6983 27.692C46.7263 27.8973 46.7403 28.0933 46.7403 28.28V31.36H44.9763V20.412H46.4043L46.6563 21.42H46.7403C46.955 21.1027 47.235 20.832 47.5803 20.608C47.9256 20.384 48.3876 20.272 48.9663 20.272ZM48.4623 21.7C47.837 21.7 47.3936 21.8867 47.1323 22.26C46.8803 22.6333 46.7496 23.198 46.7403 23.954V24.178C46.7403 24.99 46.8616 25.6153 47.1043 26.054C47.3563 26.4833 47.8183 26.698 48.4903 26.698C49.041 26.698 49.447 26.474 49.7083 26.026C49.979 25.5687 50.1143 24.948 50.1143 24.164C50.1143 23.38 49.979 22.7733 49.7083 22.344C49.447 21.9147 49.0316 21.7 48.4623 21.7ZM55.1045 24.122L52.5985 20.412H54.6005L56.2525 22.988L57.9045 20.412H59.9065L57.3725 24.122L60.0325 28H58.0305L56.2525 25.242L54.4745 28H52.4725L55.1045 24.122Z" fill="#E60074"/>
<path fill-rule="evenodd" clip-rule="evenodd" d="M67.6665 44L67.6665 2L68.6665 2L68.6665 44L67.6665 44Z" fill="#E60074"/>
<path fill-rule="evenodd" clip-rule="evenodd" d="M64.1665 1H72.1665V2H64.1665V1Z" fill="#E60074"/>
<path d="M31.9381 68.858H30.6361V71H28.9001V68.858H24.4481V67.542L28.9421 60.976H30.6361V67.416H31.9381V68.858ZM28.9001 67.416V65.176C28.9001 64.9147 28.9048 64.644 28.9141 64.364C28.9235 64.0747 28.9328 63.8087 28.9421 63.566C28.9608 63.314 28.9748 63.1227 28.9841 62.992H28.9281C28.8441 63.1787 28.7508 63.3653 28.6481 63.552C28.5548 63.7293 28.4475 63.9067 28.3261 64.084L26.0581 67.416H28.9001ZM39.9498 68.858H38.6478V71H36.9118V68.858H32.4598V67.542L36.9538 60.976H38.6478V67.416H39.9498V68.858ZM36.9118 67.416V65.176C36.9118 64.9147 36.9165 64.644 36.9258 64.364C36.9352 64.0747 36.9445 63.8087 36.9538 63.566C36.9725 63.314 36.9865 63.1227 36.9958 62.992H36.9398C36.8558 63.1787 36.7625 63.3653 36.6598 63.552C36.5665 63.7293 36.4592 63.9067 36.3378 64.084L34.0698 67.416H36.9118ZM48.9663 63.272C49.853 63.272 50.567 63.6033 51.1083 64.266C51.6496 64.9193 51.9203 65.8947 51.9203 67.192C51.9203 68.4893 51.6403 69.474 51.0803 70.146C50.5296 70.8087 49.811 71.14 48.9243 71.14C48.3643 71.14 47.9116 71.0373 47.5663 70.832C47.221 70.6267 46.9456 70.3887 46.7403 70.118H46.6283C46.6563 70.2953 46.6796 70.4867 46.6983 70.692C46.7263 70.8973 46.7403 71.0933 46.7403 71.28V74.36H44.9763V63.412H46.4043L46.6563 64.42H46.7403C46.955 64.1027 47.235 63.832 47.5803 63.608C47.9256 63.384 48.3876 63.272 48.9663 63.272ZM48.4623 64.7C47.837 64.7 47.3936 64.8867 47.1323 65.26C46.8803 65.6333 46.7496 66.198 46.7403 66.954V67.178C46.7403 67.99 46.8616 68.6153 47.1043 69.054C47.3563 69.4833 47.8183 69.698 48.4903 69.698C49.041 69.698 49.447 69.474 49.7083 69.026C49.979 68.5687 50.1143 67.948 50.1143 67.164C50.1143 66.38 49.979 65.7733 49.7083 65.344C49.447 64.9147 49.0316 64.7 48.4623 64.7ZM55.1045 67.122L52.5985 63.412H54.6005L56.2525 65.988L57.9045 63.412H59.9065L57.3725 67.122L60.0325 71H58.0305L56.2525 68.242L54.4745 71H52.4725L55.1045 67.122Z" fill="#E60074"/>
<path fill-rule="evenodd" clip-rule="evenodd" d="M64.1665 87H72.1665V88H64.1665V87Z" fill="#E60074"/>
<path fill-rule="evenodd" clip-rule="evenodd" d="M67.6665 87L67.6665 45L68.6665 45L68.6665 87L67.6665 87Z" fill="#E60074"/>
<path fill-rule="evenodd" clip-rule="evenodd" d="M64.1665 44H72.1665V45H64.1665V44Z" fill="#E60074"/>
</svg>
