<svg width="408" height="176" viewBox="0 0 408 176" fill="none" xmlns="http://www.w3.org/2000/svg">
<rect width="408" height="176" fill="white"/>
<rect x="45.5" y="61.5" width="69" height="53" rx="2.5" stroke="#004E6C" stroke-width="3"/>
<rect x="293.5" y="61.5" width="69" height="53" rx="2.5" stroke="#004E6C" stroke-width="3"/>
<path d="M76.6276 95.0003L75.6916 91.9403H71.0116L70.0756 95.0003H67.1416L71.6776 82.0943H75.0076L79.5616 95.0003H76.6276ZM75.0436 89.6543L74.1076 86.6663C74.0476 86.4623 73.9696 86.2043 73.8736 85.8923C73.7776 85.5803 73.6816 85.2623 73.5856 84.9383C73.4896 84.6143 73.4116 84.3323 73.3516 84.0923C73.2916 84.3323 73.2076 84.6323 73.0996 84.9923C73.0036 85.3403 72.9076 85.6763 72.8116 86.0003C72.7276 86.3123 72.6616 86.5343 72.6136 86.6663L71.6956 89.6543H75.0436Z" fill="#DA291C"/>
<path d="M83.6553 95.0003H80.9733V81.3203H83.6553V95.0003Z" fill="#DA291C"/>
<path d="M90.5977 93.0383C90.8977 93.0383 91.1857 93.0143 91.4617 92.9663C91.7377 92.9063 92.0137 92.8283 92.2897 92.7323V94.7303C92.0017 94.8623 91.6417 94.9703 91.2097 95.0543C90.7897 95.1383 90.3277 95.1803 89.8237 95.1803C89.2357 95.1803 88.7077 95.0843 88.2397 94.8923C87.7837 94.7003 87.4177 94.3703 87.1417 93.9023C86.8777 93.4343 86.7457 92.7743 86.7457 91.9223V87.1883H85.4677V86.0543L86.9437 85.1543L87.7177 83.0843H89.4277V85.1723H92.1817V87.1883H89.4277V91.9223C89.4277 92.2943 89.5357 92.5763 89.7517 92.7683C89.9677 92.9483 90.2497 93.0383 90.5977 93.0383Z" fill="#DA291C"/>
<path d="M314.528 95.0003L313.592 91.9403H308.912L307.976 95.0003H305.042L309.578 82.0943H312.908L317.462 95.0003H314.528ZM312.944 89.6543L312.008 86.6663C311.948 86.4623 311.87 86.2043 311.774 85.8923C311.678 85.5803 311.582 85.2623 311.486 84.9383C311.39 84.6143 311.312 84.3323 311.252 84.0923C311.192 84.3323 311.108 84.6323 311 84.9923C310.904 85.3403 310.808 85.6763 310.712 86.0003C310.628 86.3123 310.562 86.5343 310.514 86.6663L309.596 89.6543H312.944Z" fill="#DA291C"/>
<path d="M321.556 95.0003H318.874V81.3203H321.556V95.0003Z" fill="#DA291C"/>
<path d="M328.498 93.0383C328.798 93.0383 329.086 93.0143 329.362 92.9663C329.638 92.9063 329.914 92.8283 330.19 92.7323V94.7303C329.902 94.8623 329.542 94.9703 329.11 95.0543C328.69 95.1383 328.228 95.1803 327.724 95.1803C327.136 95.1803 326.608 95.0843 326.14 94.8923C325.684 94.7003 325.318 94.3703 325.042 93.9023C324.778 93.4343 324.646 92.7743 324.646 91.9223V87.1883H323.368V86.0543L324.844 85.1543L325.618 83.0843H327.328V85.1723H330.082V87.1883H327.328V91.9223C327.328 92.2943 327.436 92.5763 327.652 92.7683C327.868 92.9483 328.15 93.0383 328.498 93.0383Z" fill="#DA291C"/>
<path d="M337.257 87.7823H342.351V94.4423C341.679 94.6703 340.977 94.8503 340.245 94.9823C339.513 95.1143 338.691 95.1803 337.779 95.1803C335.859 95.1803 334.383 94.6163 333.351 93.4883C332.319 92.3603 331.803 90.7163 331.803 88.5563C331.803 87.2123 332.061 86.0483 332.577 85.0643C333.093 84.0803 333.849 83.3183 334.845 82.7783C335.853 82.2383 337.077 81.9683 338.517 81.9683C339.201 81.9683 339.873 82.0403 340.533 82.1843C341.193 82.3283 341.793 82.5203 342.333 82.7603L341.433 84.9383C341.037 84.7343 340.587 84.5663 340.083 84.4343C339.579 84.3023 339.051 84.2363 338.499 84.2363C337.707 84.2363 337.017 84.4163 336.429 84.7763C335.853 85.1363 335.403 85.6463 335.079 86.3063C334.767 86.9663 334.611 87.7343 334.611 88.6103C334.611 89.4503 334.725 90.1943 334.953 90.8423C335.181 91.4903 335.541 92.0003 336.033 92.3723C336.525 92.7323 337.167 92.9123 337.959 92.9123C338.343 92.9123 338.667 92.8943 338.931 92.8583C339.195 92.8223 339.447 92.7803 339.687 92.7323V90.0503H337.257V87.7823Z" fill="#DA291C"/>
<path d="M350.678 84.9923C350.81 84.9923 350.966 84.9983 351.146 85.0103C351.326 85.0223 351.47 85.0403 351.578 85.0643L351.38 87.5843C351.284 87.5603 351.158 87.5423 351.002 87.5303C350.846 87.5063 350.708 87.4943 350.588 87.4943C350.132 87.4943 349.694 87.5783 349.274 87.7463C348.854 87.9023 348.512 88.1603 348.248 88.5203C347.996 88.8803 347.87 89.3723 347.87 89.9963V95.0003H345.188V85.1723H347.222L347.618 86.8283H347.744C348.032 86.3243 348.428 85.8923 348.932 85.5323C349.436 85.1723 350.018 84.9923 350.678 84.9923Z" fill="#DA291C"/>
<rect x="125.5" y="61.5" width="157" height="53" rx="2.5" stroke="#004E6C" stroke-width="3"/>
</svg>
