<svg width="408" height="256" viewBox="0 0 408 256" fill="none" xmlns="http://www.w3.org/2000/svg">
<rect width="408" height="256" fill="white"/>
<path d="M203.68 0V256" stroke="#C9C9C9"/>
<path fill-rule="evenodd" clip-rule="evenodd" d="M76.2109 226.424V215H77.6563V225.144H82.6667V226.424H76.2109ZM87.9483 226.424H86.503V216.264H82.9218V215H91.5134V216.264H87.9483V226.424ZM96.5659 215C97.9898 215 99.039 215.272 99.7135 215.816C100.399 216.349 100.741 217.16 100.741 218.248C100.741 218.856 100.629 219.363 100.404 219.768C100.179 220.173 99.8901 220.499 99.5368 220.744C99.1942 220.989 98.8302 221.176 98.4448 221.304L101.592 226.424H99.9062L97.1279 221.704H94.8475V226.424H93.4022V215H96.5659ZM96.4856 216.248H94.8475V220.488H96.5659C97.4973 220.488 98.1771 220.307 98.6054 219.944C99.0336 219.571 99.2477 219.027 99.2477 218.312C99.2477 217.565 99.0229 217.037 98.5733 216.728C98.1236 216.408 97.4277 216.248 96.4856 216.248ZM309.284 215C310.708 215 311.757 215.272 312.432 215.816C313.117 216.349 313.459 217.16 313.459 218.248C313.459 218.856 313.347 219.363 313.122 219.768C312.897 220.173 312.608 220.499 312.255 220.744C311.912 220.989 311.548 221.176 311.163 221.304L314.31 226.424H312.624L309.846 221.704H307.566V226.424H306.12V215H309.284ZM309.204 216.248H307.566V220.488H309.284C310.215 220.488 310.895 220.307 311.323 219.944C311.752 219.571 311.966 219.027 311.966 218.312C311.966 217.565 311.741 217.037 311.291 216.728C310.842 216.408 310.146 216.248 309.204 216.248ZM319.74 226.424H318.294V216.264H314.713V215H323.305V216.264H319.74V226.424ZM325.034 215V226.424H331.489V225.144H326.479V215H325.034Z" fill="#004E6C"/>
<path d="M99.9429 109.732H95.4341V97.6025H99.5422C101.098 97.6025 102.173 97.8946 102.85 98.3987C103.499 98.8822 103.851 99.613 103.851 100.683C103.851 101.172 103.685 101.68 103.422 102.115C103.186 102.506 102.784 102.83 102.29 102.993L100.745 103.505L102.311 103.949C102.936 104.127 103.339 104.377 103.661 104.776C103.978 105.17 104.151 105.651 104.151 106.353C104.151 107.521 103.799 108.271 103.121 108.859C102.453 109.44 101.396 109.732 99.9429 109.732ZM97.739 98.7907H97.239V99.2907V102.573H97.6389V103.073H97.739H98.239H99.6424C100.404 103.073 101.056 102.912 101.528 102.544C102.019 102.162 102.246 101.607 102.246 100.982C102.246 100.253 101.993 99.7267 101.598 99.3337C101.353 99.0906 101.023 98.962 100.704 98.89C100.379 98.8166 100.013 98.7907 99.6424 98.7907H97.739ZM97.6389 104.062H97.1389V104.562V108.143V108.643H97.6389H99.9429C100.661 108.643 101.265 108.403 101.744 108.047C102.023 107.839 102.209 107.584 102.317 107.278C102.421 106.987 102.446 106.672 102.446 106.353C102.446 105.678 102.276 105.075 101.828 104.648C101.385 104.226 100.761 104.062 100.043 104.062H97.6389Z" fill="#004E6C" stroke="#004E6C"/>
<path d="M114.647 107.403L114.541 107.046H114.168H109.359H109L108.885 107.387L108.098 109.732H106.273L110.808 97.6025H112.619L117.154 109.732H115.342L114.647 107.403ZM109.686 105.202L109.47 105.858H110.161H113.467H114.171L113.939 105.193L112.236 100.319L111.749 98.9275L111.289 100.328L109.686 105.202Z" fill="#004E6C" stroke="#004E6C"/>
<path d="M126.241 107.801C126.642 107.402 126.952 106.849 127.054 106.156H128.863C128.72 107.269 128.274 108.115 127.481 108.746L127.471 108.754L127.461 108.762C126.678 109.454 125.507 109.831 124.085 109.831C122.517 109.831 121.35 109.289 120.447 108.302C119.557 107.33 119.076 105.877 119.076 103.965V103.169C119.076 101.923 119.27 100.924 119.713 100.131L119.729 100.104L119.741 100.074C120.093 99.1997 120.711 98.5789 121.444 98.1239C122.163 97.6774 123.073 97.4033 124.085 97.4033C125.486 97.4033 126.571 97.7696 127.471 98.4803C128.148 99.0825 128.643 99.9491 128.829 100.979H127.125C127.003 100.258 126.78 99.6693 126.341 99.234C125.808 98.7052 125.053 98.492 124.085 98.492C123.069 98.492 122.166 98.8373 121.649 99.7372C121.199 100.518 120.881 101.6 120.881 102.971V103.965C120.881 104.683 120.932 105.338 121.04 105.899C121.145 106.448 121.31 106.938 121.557 107.313C122.076 108.202 122.975 108.543 123.985 108.543C124.843 108.543 125.704 108.334 126.241 107.801Z" fill="#004E6C" stroke="#004E6C"/>
<path d="M135.728 104.692L135.383 104.148L134.941 104.618L133.539 106.11L133.403 106.254V106.452V109.732H131.698V97.6025H133.403V103.07V104.562L134.302 103.372L135.5 101.785L138.752 97.702H140.775L136.719 102.757L136.49 103.042L136.692 103.346L140.986 109.831H138.987L135.728 104.692Z" fill="#004E6C" stroke="#004E6C"/>
<path d="M43.5434 114.01L33.125 103.666L43.5434 93.3223" stroke="#088A08" stroke-width="2.7948" stroke-miterlimit="10" stroke-linecap="round" stroke-linejoin="round"/>
<path d="M62.3767 103.666H34.3271" stroke="#088A08" stroke-width="2.7948" stroke-miterlimit="10" stroke-linecap="round" stroke-linejoin="round"/>
<path d="M24.0089 79H151.133C153.938 79 156.142 81.1882 156.142 83.9731V123.46C156.142 126.245 153.938 128.433 151.133 128.433H24.0089C21.2039 128.433 19 126.245 19 123.46V83.9731C19 81.1882 21.2039 79 24.0089 79Z" stroke="#004E6C" stroke-width="2.7948" stroke-miterlimit="10" stroke-linecap="round" stroke-linejoin="round"/>
<path d="M77.1025 79V128.333" stroke="#004E6C" stroke-width="2.7948" stroke-miterlimit="10" stroke-linecap="round" stroke-linejoin="round"/>
<path d="M270.992 109.732H266.483V97.6025H270.591C272.146 97.6025 273.222 97.8946 273.899 98.3987C274.548 98.8822 274.899 99.613 274.899 100.683C274.899 101.172 274.734 101.68 274.471 102.115C274.235 102.506 273.833 102.83 273.339 102.993L271.793 103.505L273.36 103.949C273.985 104.127 274.388 104.377 274.709 104.776C275.027 105.17 275.2 105.651 275.2 106.353C275.2 107.521 274.848 108.271 274.17 108.859C273.502 109.44 272.445 109.732 270.992 109.732ZM268.788 98.7907H268.288V99.2907V102.573H268.687V103.073H268.788H269.288H270.691C271.453 103.073 272.105 102.912 272.576 102.544C273.067 102.162 273.295 101.607 273.295 100.982C273.295 100.253 273.042 99.7267 272.646 99.3337C272.401 99.0906 272.072 98.962 271.753 98.89C271.427 98.8166 271.061 98.7907 270.691 98.7907H268.788ZM268.687 104.062H268.187V104.562V108.143V108.643H268.687H270.992C271.71 108.643 272.314 108.403 272.793 108.047C273.071 107.839 273.257 107.584 273.366 107.278C273.469 106.987 273.495 106.672 273.495 106.353C273.495 105.678 273.324 105.075 272.877 104.648C272.434 104.226 271.809 104.062 271.092 104.062H268.687Z" fill="#004E6C" stroke="#004E6C"/>
<path d="M285.696 107.403L285.589 107.046H285.217H280.408H280.048L279.934 107.387L279.147 109.732H277.322L281.857 97.6025H283.668L288.202 109.732H286.391L285.696 107.403ZM280.734 105.202L280.519 105.858H281.209H284.515H285.22L284.987 105.193L283.284 100.319L282.798 98.9275L282.337 100.328L280.734 105.202Z" fill="#004E6C" stroke="#004E6C"/>
<path d="M297.29 107.801C297.691 107.402 298.001 106.849 298.103 106.156H299.911C299.768 107.269 299.323 108.115 298.53 108.746L298.52 108.754L298.51 108.762C297.726 109.454 296.556 109.831 295.134 109.831C293.566 109.831 292.399 109.289 291.496 108.302C290.606 107.33 290.125 105.877 290.125 103.965V103.169C290.125 101.923 290.319 100.924 290.762 100.131L290.778 100.104L290.79 100.074C291.142 99.1997 291.759 98.5789 292.493 98.1239C293.212 97.6774 294.122 97.4033 295.134 97.4033C296.535 97.4033 297.62 97.7696 298.52 98.4803C299.197 99.0825 299.692 99.9491 299.878 100.979H298.174C298.052 100.258 297.828 99.6694 297.39 99.234C296.857 98.7052 296.102 98.492 295.134 98.492C294.118 98.492 293.215 98.8373 292.697 99.7372C292.248 100.518 291.929 101.6 291.929 102.971V103.965C291.929 104.683 291.981 105.338 292.089 105.899C292.194 106.448 292.358 106.938 292.606 107.313C293.125 108.202 294.024 108.543 295.034 108.543C295.892 108.543 296.753 108.334 297.29 107.801Z" fill="#004E6C" stroke="#004E6C"/>
<path d="M306.776 104.692L306.431 104.148L305.99 104.618L304.587 106.11L304.452 106.254V106.452V109.732H302.747V97.6025H304.452V103.07V104.562L305.351 103.372L306.549 101.785L309.801 97.702H311.823L307.767 102.757L307.539 103.042L307.74 103.346L312.035 109.831H310.035L306.776 104.692Z" fill="#004E6C" stroke="#004E6C"/>
<path d="M364.356 114.01L374.775 103.666L364.356 93.3223" stroke="#088A08" stroke-width="2.7948" stroke-miterlimit="10" stroke-linecap="round" stroke-linejoin="round"/>
<path d="M345.523 103.666H373.573" stroke="#088A08" stroke-width="2.7948" stroke-miterlimit="10" stroke-linecap="round" stroke-linejoin="round"/>
<path d="M383.891 79H256.867C254.062 79 251.858 81.1882 251.858 83.9731V123.46C251.858 126.245 254.062 128.433 256.867 128.433H383.991C386.796 128.433 389 126.245 389 123.46V83.9731C388.9 81.1882 386.696 79 383.891 79Z" stroke="#004E6C" stroke-width="2.7948" stroke-miterlimit="10" stroke-linecap="round" stroke-linejoin="round"/>
<path d="M330.797 79V128.333" stroke="#004E6C" stroke-width="2.7948" stroke-miterlimit="10" stroke-linecap="round" stroke-linejoin="round"/>
</svg>
