<svg width="408" height="256" viewBox="0 0 408 256" fill="none" xmlns="http://www.w3.org/2000/svg">
<rect width="408" height="256" fill="white"/>
<path d="M61 76H4V74.7586C4 70.4138 6.02585 67 8.6042 67H61V76Z" fill="#1B77AF"/>
<path d="M107.491 86.9922H74.6543V119.715H107.491V86.9922Z" stroke="#004E6C" stroke-width="3" stroke-miterlimit="10" stroke-linecap="round" stroke-linejoin="round"/>
<path d="M53.2993 119.616H17.2686L35.234 86.9922L53.2993 119.616Z" fill="#004E6C" stroke="#004E6C" stroke-width="3" stroke-miterlimit="10" stroke-linecap="round" stroke-linejoin="round"/>
<path d="M146.808 119.616C155.848 119.616 163.176 112.313 163.176 103.304C163.176 94.2952 155.848 86.9922 146.808 86.9922C137.768 86.9922 130.439 94.2952 130.439 103.304C130.439 112.313 137.768 119.616 146.808 119.616Z" stroke="#004E6C" stroke-width="3" stroke-miterlimit="10" stroke-linecap="round" stroke-linejoin="round"/>
<path d="M173.343 140H8.65739C6.04925 140 4 137.8 4 135V72C4 69.2 6.04925 67 8.65739 67H173.343C175.951 67 178 69.2 178 72V134.9C178 137.7 175.951 140 173.343 140Z" stroke="#004E6C" stroke-width="3" stroke-miterlimit="10" stroke-linecap="round" stroke-linejoin="round"/>
<path d="M347 76H404V74.7586C404 70.4138 401.974 67 399.396 67H347V76Z" fill="#1B77AF"/>
<path d="M300.509 86.9922H333.346V119.715H300.509V86.9922Z" stroke="#004E6C" stroke-width="3" stroke-miterlimit="10" stroke-linecap="round" stroke-linejoin="round"/>
<path d="M354.701 119.616H390.731L372.766 86.9922L354.701 119.616Z" fill="#004E6C" stroke="#004E6C" stroke-width="3" stroke-miterlimit="10" stroke-linecap="round" stroke-linejoin="round"/>
<path d="M261.192 119.616C252.152 119.616 244.824 112.313 244.824 103.304C244.824 94.2952 252.152 86.9922 261.192 86.9922C270.232 86.9922 277.561 94.2952 277.561 103.304C277.561 112.313 270.232 119.616 261.192 119.616Z" stroke="#004E6C" stroke-width="3" stroke-miterlimit="10" stroke-linecap="round" stroke-linejoin="round"/>
<path d="M234.657 140H399.343C401.951 140 404 137.8 404 135V72C404 69.2 401.951 67 399.343 67H234.657C232.049 67 230 69.2 230 72V134.9C230 137.7 232.049 140 234.657 140Z" stroke="#004E6C" stroke-width="3" stroke-miterlimit="10" stroke-linecap="round" stroke-linejoin="round"/>
<path fill-rule="evenodd" clip-rule="evenodd" d="M77.8721 213V224.424H84.3041V223.144H79.3121V213H77.8721ZM88.1262 224.424H89.5662V214.264H93.1182V213H84.5582V214.264H88.1262V224.424ZM98.152 213C99.5707 213 100.616 213.272 101.288 213.816C101.971 214.349 102.312 215.16 102.312 216.248C102.312 216.856 102.2 217.363 101.976 217.768C101.752 218.173 101.464 218.499 101.112 218.744C100.771 218.989 100.408 219.176 100.024 219.304L103.16 224.424H101.48L98.712 219.704H96.44V224.424H95V213H98.152ZM98.072 214.248H96.44V218.488H98.152C99.08 218.488 99.7573 218.307 100.184 217.944C100.611 217.571 100.824 217.027 100.824 216.312C100.824 215.565 100.6 215.037 100.152 214.728C99.704 214.408 99.0107 214.248 98.072 214.248ZM313.223 213.816C312.551 213.272 311.505 213 310.087 213H306.935V224.424H308.375V219.704H310.647L313.415 224.424H315.095L311.959 219.304C312.343 219.176 312.705 218.989 313.047 218.744C313.399 218.499 313.687 218.173 313.911 217.768C314.135 217.363 314.247 216.856 314.247 216.248C314.247 215.16 313.905 214.349 313.223 213.816ZM308.375 214.248H310.007C310.945 214.248 311.639 214.408 312.087 214.728C312.535 215.037 312.759 215.565 312.759 216.312C312.759 217.027 312.545 217.571 312.119 217.944C311.692 218.307 311.015 218.488 310.087 218.488H308.375V214.248ZM319.064 224.424H320.504V214.264H324.056V213H315.496V214.264H319.064V224.424ZM325.778 224.424V213H327.218V223.144H332.21V224.424H325.778Z" fill="#004E6C"/>
<path d="M204 0V256" stroke="#C9C9C9"/>
</svg>
