<svg width="269" height="88" viewBox="0 0 269 88" fill="none" xmlns="http://www.w3.org/2000/svg">
<rect width="269" height="88" fill="white"/>
<path d="M130.5 27C126.65 27 123.5 30.15 123.5 34C123.5 37.85 126.65 41 130.5 41C134.35 41 137.5 37.85 137.5 34C137.5 30.15 134.35 27 130.5 27ZM127.15 39.25V38.9C127.15 37.05 128.65 35.55 130.5 35.55C132.35 35.55 133.85 37.05 133.85 38.9V39.25C132.9 39.85 131.75 40.25 130.5 40.25C129.25 40.25 128.1 39.9 127.15 39.25ZM134.6 38.7C134.5 36.55 132.7 34.8 130.5 34.8C128.3 34.8 126.5 36.5 126.4 38.7C125.1 37.55 124.25 35.85 124.25 34C124.25 30.55 127.05 27.75 130.5 27.75C133.95 27.75 136.75 30.55 136.75 34C136.75 35.9 135.9 37.55 134.6 38.7Z" fill="black"/>
<path d="M130.5 29.2C129.15 29.2 128.1 30.3 128.1 31.6C128.1 32.9 129.2 34 130.5 34C131.85 34 132.9 32.9 132.9 31.6C132.9 30.3 131.85 29.2 130.5 29.2ZM130.5 33.3C129.6 33.3 128.85 32.55 128.85 31.65C128.85 30.75 129.6 30 130.5 30C131.4 30 132.15 30.75 132.15 31.65C132.15 32.55 131.4 33.3 130.5 33.3Z" fill="black"/>
<path d="M121.765 73H120.561V66.014C120.561 65.6127 120.566 65.2907 120.575 65.048C120.584 64.8053 120.598 64.5533 120.617 64.292C120.468 64.4413 120.328 64.5673 120.197 64.67C120.076 64.7727 119.926 64.9033 119.749 65.062L118.685 65.93L118.041 65.104L120.743 63.004H121.765V73ZM125.577 68.73C125.577 68.0113 125.637 67.3067 125.759 66.616C125.889 65.916 126.118 65.286 126.445 64.726C126.781 64.1567 127.247 63.704 127.845 63.368C128.442 63.032 129.212 62.864 130.155 62.864C130.351 62.864 130.565 62.8733 130.799 62.892C131.041 62.9107 131.237 62.9433 131.387 62.99V64.04C131.219 63.984 131.027 63.942 130.813 63.914C130.598 63.886 130.388 63.872 130.183 63.872C129.539 63.872 129.002 63.9793 128.573 64.194C128.143 64.4087 127.803 64.7027 127.551 65.076C127.308 65.4493 127.131 65.8787 127.019 66.364C126.907 66.8493 126.837 67.3673 126.809 67.918H126.893C127.107 67.5913 127.406 67.316 127.789 67.092C128.171 66.8587 128.661 66.742 129.259 66.742C130.127 66.742 130.827 67.008 131.359 67.54C131.891 68.0627 132.157 68.8093 132.157 69.78C132.157 70.8253 131.867 71.6467 131.289 72.244C130.719 72.8413 129.949 73.14 128.979 73.14C128.344 73.14 127.77 72.9813 127.257 72.664C126.743 72.3467 126.333 71.8613 126.025 71.208C125.726 70.5547 125.577 69.7287 125.577 68.73ZM128.965 72.104C129.553 72.104 130.029 71.9173 130.393 71.544C130.757 71.1613 130.939 70.5733 130.939 69.78C130.939 69.1453 130.775 68.6413 130.449 68.268C130.131 67.8947 129.651 67.708 129.007 67.708C128.568 67.708 128.185 67.8013 127.859 67.988C127.532 68.1653 127.275 68.3987 127.089 68.688C126.911 68.968 126.823 69.2527 126.823 69.542C126.823 69.9433 126.902 70.3447 127.061 70.746C127.219 71.138 127.457 71.4647 127.775 71.726C128.092 71.978 128.489 72.104 128.965 72.104ZM141.215 65.356C142.139 65.356 142.881 65.678 143.441 66.322C144.01 66.966 144.295 67.9367 144.295 69.234C144.295 70.5127 144.01 71.4833 143.441 72.146C142.881 72.8087 142.134 73.14 141.201 73.14C140.622 73.14 140.142 73.0327 139.759 72.818C139.386 72.6033 139.092 72.3467 138.877 72.048H138.793C138.802 72.2067 138.816 72.4073 138.835 72.65C138.863 72.8927 138.877 73.1027 138.877 73.28V76.36H137.645V65.496H138.653L138.821 66.518H138.877C139.101 66.1913 139.395 65.916 139.759 65.692C140.123 65.468 140.608 65.356 141.215 65.356ZM140.991 66.392C140.226 66.392 139.684 66.6067 139.367 67.036C139.05 67.4653 138.886 68.1187 138.877 68.996V69.234C138.877 70.158 139.026 70.872 139.325 71.376C139.633 71.8707 140.198 72.118 141.019 72.118C141.467 72.118 141.84 71.9967 142.139 71.754C142.438 71.502 142.657 71.1567 142.797 70.718C142.946 70.2793 143.021 69.78 143.021 69.22C143.021 68.3613 142.853 67.6753 142.517 67.162C142.19 66.6487 141.682 66.392 140.991 66.392ZM147.763 69.164L145.173 65.496H146.573L148.505 68.324L150.423 65.496H151.809L149.219 69.164L151.949 73H150.549L148.505 70.004L146.433 73H145.047L147.763 69.164Z" fill="black"/>
</svg>
