<svg width="269" height="88" viewBox="0 0 269 88" fill="none" xmlns="http://www.w3.org/2000/svg">
<rect width="269" height="88" fill="white"/>
<path d="M134.5 19.5C128.725 19.5 124 24.225 124 30C124 35.775 128.725 40.5 134.5 40.5C140.275 40.5 145 35.775 145 30C145 24.225 140.275 19.5 134.5 19.5ZM129.475 37.875V37.35C129.475 34.575 131.725 32.325 134.5 32.325C137.275 32.325 139.525 34.575 139.525 37.35V37.875C138.1 38.775 136.375 39.375 134.5 39.375C132.625 39.375 130.9 38.85 129.475 37.875ZM140.65 37.05C140.5 33.825 137.8 31.2 134.5 31.2C131.2 31.2 128.5 33.75 128.35 37.05C126.4 35.325 125.125 32.775 125.125 30C125.125 24.825 129.325 20.625 134.5 20.625C139.675 20.625 143.875 24.825 143.875 30C143.875 32.85 142.6 35.325 140.65 37.05Z" fill="black"/>
<path d="M134.5 22.8C132.475 22.8 130.9 24.45 130.9 26.4C130.9 28.35 132.55 30 134.5 30C136.525 30 138.1 28.35 138.1 26.4C138.1 24.45 136.525 22.8 134.5 22.8ZM134.5 28.95C133.15 28.95 132.025 27.825 132.025 26.475C132.025 25.125 133.15 24 134.5 24C135.85 24 136.975 25.125 136.975 26.475C136.975 27.825 135.85 28.95 134.5 28.95Z" fill="black"/>
<path d="M124.075 73H117.467V71.978L120.085 69.332C120.58 68.828 121 68.38 121.345 67.988C121.7 67.596 121.966 67.2133 122.143 66.84C122.32 66.4667 122.409 66.0513 122.409 65.594C122.409 65.0433 122.246 64.628 121.919 64.348C121.592 64.0587 121.168 63.914 120.645 63.914C120.15 63.914 119.721 63.998 119.357 64.166C118.993 64.334 118.62 64.5673 118.237 64.866L117.579 64.04C117.971 63.7133 118.419 63.438 118.923 63.214C119.436 62.9807 120.01 62.864 120.645 62.864C121.578 62.864 122.316 63.102 122.857 63.578C123.398 64.054 123.669 64.7027 123.669 65.524C123.669 66.0467 123.562 66.5367 123.347 66.994C123.132 67.4513 122.834 67.904 122.451 68.352C122.068 68.8 121.62 69.2713 121.107 69.766L119.021 71.824V71.88H124.075V73ZM132.535 70.732H131.079V73H129.889V70.732H125.101V69.682L129.805 62.948H131.079V69.626H132.535V70.732ZM129.889 69.626V66.476C129.889 65.9907 129.893 65.58 129.903 65.244C129.921 64.8987 129.94 64.572 129.959 64.264H129.903C129.828 64.4413 129.735 64.6327 129.623 64.838C129.511 65.0433 129.403 65.216 129.301 65.356L126.305 69.626H129.889ZM141.215 65.356C142.139 65.356 142.881 65.678 143.441 66.322C144.01 66.966 144.295 67.9367 144.295 69.234C144.295 70.5127 144.01 71.4833 143.441 72.146C142.881 72.8087 142.134 73.14 141.201 73.14C140.622 73.14 140.142 73.0327 139.759 72.818C139.386 72.6033 139.092 72.3467 138.877 72.048H138.793C138.802 72.2067 138.816 72.4073 138.835 72.65C138.863 72.8927 138.877 73.1027 138.877 73.28V76.36H137.645V65.496H138.653L138.821 66.518H138.877C139.101 66.1913 139.395 65.916 139.759 65.692C140.123 65.468 140.608 65.356 141.215 65.356ZM140.991 66.392C140.226 66.392 139.684 66.6067 139.367 67.036C139.05 67.4653 138.886 68.1187 138.877 68.996V69.234C138.877 70.158 139.026 70.872 139.325 71.376C139.633 71.8707 140.198 72.118 141.019 72.118C141.467 72.118 141.84 71.9967 142.139 71.754C142.438 71.502 142.657 71.1567 142.797 70.718C142.946 70.2793 143.021 69.78 143.021 69.22C143.021 68.3613 142.853 67.6753 142.517 67.162C142.19 66.6487 141.682 66.392 140.991 66.392ZM147.763 69.164L145.173 65.496H146.573L148.505 68.324L150.423 65.496H151.809L149.219 69.164L151.949 73H150.549L148.505 70.004L146.433 73H145.047L147.763 69.164Z" fill="black"/>
</svg>
