<svg width="60" height="88" viewBox="0 0 60 88" fill="none" xmlns="http://www.w3.org/2000/svg">
<path d="M30 19.5C24.225 19.5 19.5 24.225 19.5 30C19.5 35.775 24.225 40.5 30 40.5C35.775 40.5 40.5 35.775 40.5 30C40.5 24.225 35.775 19.5 30 19.5ZM24.975 37.875V37.35C24.975 34.575 27.225 32.325 30 32.325C32.775 32.325 35.025 34.575 35.025 37.35V37.875C33.6 38.775 31.875 39.375 30 39.375C28.125 39.375 26.4 38.85 24.975 37.875ZM36.15 37.05C36 33.825 33.3 31.2 30 31.2C26.7 31.2 24 33.75 23.85 37.05C21.9 35.325 20.625 32.775 20.625 30C20.625 24.825 24.825 20.625 30 20.625C35.175 20.625 39.375 24.825 39.375 30C39.375 32.85 38.1 35.325 36.15 37.05Z" fill="black"/>
<path d="M30 22.8C27.975 22.8 26.4 24.45 26.4 26.4C26.4 28.35 28.05 30 30 30C32.025 30 33.6 28.35 33.6 26.4C33.6 24.45 32.025 22.8 30 22.8ZM30 28.95C28.65 28.95 27.525 27.825 27.525 26.475C27.525 25.125 28.65 24 30 24C31.35 24 32.475 25.125 32.475 26.475C32.475 27.825 31.35 28.95 30 28.95Z" fill="black"/>
<path d="M19.5749 73H12.9669V71.978L15.5849 69.332C16.0796 68.828 16.4996 68.38 16.8449 67.988C17.1996 67.596 17.4656 67.2133 17.6429 66.84C17.8203 66.4667 17.9089 66.0513 17.9089 65.594C17.9089 65.0433 17.7456 64.628 17.4189 64.348C17.0923 64.0587 16.6676 63.914 16.1449 63.914C15.6503 63.914 15.2209 63.998 14.8569 64.166C14.4929 64.334 14.1196 64.5673 13.7369 64.866L13.0789 64.04C13.4709 63.7133 13.9189 63.438 14.4229 63.214C14.9363 62.9807 15.5103 62.864 16.1449 62.864C17.0783 62.864 17.8156 63.102 18.3569 63.578C18.8983 64.054 19.1689 64.7027 19.1689 65.524C19.1689 66.0467 19.0616 66.5367 18.8469 66.994C18.6323 67.4513 18.3336 67.904 17.9509 68.352C17.5683 68.8 17.1203 69.2713 16.6069 69.766L14.5209 71.824V71.88H19.5749V73ZM28.0346 70.732H26.5786V73H25.3886V70.732H20.6006V69.682L25.3046 62.948H26.5786V69.626H28.0346V70.732ZM25.3886 69.626V66.476C25.3886 65.9907 25.3933 65.58 25.4026 65.244C25.4213 64.8987 25.44 64.572 25.4586 64.264H25.4026C25.328 64.4413 25.2346 64.6327 25.1226 64.838C25.0106 65.0433 24.9033 65.216 24.8006 65.356L21.8046 69.626H25.3886ZM36.7151 65.356C37.6391 65.356 38.3811 65.678 38.9411 66.322C39.5104 66.966 39.7951 67.9367 39.7951 69.234C39.7951 70.5127 39.5104 71.4833 38.9411 72.146C38.3811 72.8087 37.6344 73.14 36.7011 73.14C36.1224 73.14 35.6417 73.0327 35.2591 72.818C34.8857 72.6033 34.5917 72.3467 34.3771 72.048H34.2931C34.3024 72.2067 34.3164 72.4073 34.3351 72.65C34.3631 72.8927 34.3771 73.1027 34.3771 73.28V76.36H33.1451V65.496H34.1531L34.3211 66.518H34.3771C34.6011 66.1913 34.8951 65.916 35.2591 65.692C35.6231 65.468 36.1084 65.356 36.7151 65.356ZM36.4911 66.392C35.7257 66.392 35.1844 66.6067 34.8671 67.036C34.5497 67.4653 34.3864 68.1187 34.3771 68.996V69.234C34.3771 70.158 34.5264 70.872 34.8251 71.376C35.1331 71.8707 35.6977 72.118 36.5191 72.118C36.9671 72.118 37.3404 71.9967 37.6391 71.754C37.9377 71.502 38.1571 71.1567 38.2971 70.718C38.4464 70.2793 38.5211 69.78 38.5211 69.22C38.5211 68.3613 38.3531 67.6753 38.0171 67.162C37.6904 66.6487 37.1817 66.392 36.4911 66.392ZM43.2629 69.164L40.6729 65.496H42.0729L44.0049 68.324L45.9229 65.496H47.3089L44.7189 69.164L47.4489 73H46.0489L44.0049 70.004L41.9329 73H40.5469L43.2629 69.164Z" fill="black"/>
</svg>
