<svg width="904" height="114" viewBox="0 0 904 114" fill="none" xmlns="http://www.w3.org/2000/svg">
<rect width="904" height="114" fill="white"/>
<g clip-path="url(#clip0_10188_2150)">
<path fill-rule="evenodd" clip-rule="evenodd" d="M82.7132 47.2376C83.268 47.5066 83.6998 47.9525 83.9747 48.2824C84.0415 48.3625 84.1295 48.4678 84.2332 48.5918C84.8876 49.3741 86.1675 50.9045 86.6985 51.6125C87.2108 52.2955 87.1354 53.0353 86.8484 53.6272C86.5815 54.1776 86.1143 54.6578 85.6924 55.0269C85.2724 55.3944 85.0681 55.5942 84.9642 55.765C84.9022 55.8668 84.8705 55.9582 84.9261 56.1806C84.9945 56.454 85.2369 56.968 85.6726 57.6215C86.096 58.2566 86.6648 58.9681 87.3288 59.6322C87.9933 60.2967 88.7042 60.8646 89.3243 61.2742C89.6344 61.4789 89.9138 61.6388 90.1464 61.7504C90.3907 61.8676 90.5413 61.911 90.6046 61.92C90.6301 61.9237 90.6554 61.9286 90.6804 61.9349C90.9028 61.9905 90.9942 61.9588 91.0961 61.8969C91.2669 61.7929 91.4666 61.5886 91.8341 61.1686C92.2032 60.7467 92.6834 60.2795 93.2338 60.0126C93.8205 59.7282 94.5525 59.6516 95.2305 60.1491C96.1794 60.7851 97.9973 62.3022 98.6866 62.8931C99.0697 63.2214 99.5181 63.6839 99.7722 64.2598C100.044 64.8768 100.083 65.6121 99.6416 66.3484C99.5812 66.4491 99.5162 66.5671 99.4443 66.6977C98.8857 67.7122 97.9088 69.4864 95.4043 69.8051C92.5745 70.2523 88.2501 69.0764 83.0631 63.7877C77.8708 58.4936 76.7157 54.1781 77.0543 51.4695C77.362 49.0083 79.1727 48.0728 80.1928 47.5457C80.3562 47.4613 80.4993 47.3874 80.6126 47.3194C81.3713 46.8642 82.1203 46.9502 82.7132 47.2376ZM82.0588 48.5874C81.8268 48.4749 81.6257 48.4608 81.3844 48.6056C81.1869 48.7241 80.9825 48.834 80.7781 48.9439C79.7629 49.4896 78.7451 50.0368 78.5427 51.6555C78.2813 53.747 79.1263 57.6315 84.134 62.7373C89.1391 67.8406 93.0096 68.6692 95.18 68.3219C95.1885 68.3206 95.197 68.3194 95.2055 68.3183C96.9205 68.1039 97.5321 67.0231 98.1058 66.0093C98.1887 65.8627 98.2708 65.7176 98.3554 65.5766C98.5136 65.3129 98.5026 65.0982 98.3998 64.8652C98.2789 64.5911 98.0274 64.3036 97.7104 64.0319C97.0036 63.4261 95.2381 61.957 94.3825 61.3865C94.3709 61.3788 94.3596 61.3708 94.3485 61.3625C94.2316 61.2748 94.1213 61.2494 93.8882 61.3624C93.6136 61.4955 93.2938 61.7783 92.9629 62.1564C92.6304 62.5364 92.2802 62.9321 91.876 63.1782C91.4124 63.4603 90.915 63.5316 90.3519 63.3987C90.0765 63.3528 89.7799 63.2383 89.4975 63.1028C89.1895 62.955 88.8501 62.7586 88.4977 62.5258C87.7929 62.0604 87.0037 61.4283 86.2682 60.6928C85.5322 59.9569 84.9011 59.1684 84.4245 58.4535C83.9601 57.757 83.6026 57.071 83.4709 56.5444C83.3265 55.9668 83.3948 55.4582 83.6829 54.985C83.9289 54.5809 84.3246 54.2306 84.7046 53.8981C85.0827 53.5672 85.3655 53.2474 85.4987 52.9728C85.6117 52.7397 85.5862 52.6295 85.4985 52.5125C84.9952 51.8414 83.7549 50.3581 83.0928 49.5664C82.9856 49.4382 82.8936 49.3282 82.8224 49.2426C82.5972 48.9725 82.329 48.7184 82.0588 48.5874Z" fill="black"/>
<circle cx="96" cy="50" r="10" fill="white"/>
<path d="M96 41.25C94.2694 41.25 92.5777 41.7632 91.1388 42.7246C89.6998 43.6861 88.5783 45.0527 87.9161 46.6515C87.2538 48.2504 87.0805 50.0097 87.4181 51.707C87.7558 53.4044 88.5891 54.9635 89.8128 56.1872C91.0365 57.4109 92.5956 58.2442 94.293 58.5819C95.9903 58.9195 97.7496 58.7462 99.3485 58.0839C100.947 57.4217 102.314 56.3002 103.275 54.8612C104.237 53.4223 104.75 51.7306 104.75 50C104.75 47.6794 103.828 45.4538 102.187 43.8128C100.546 42.1719 98.3206 41.25 96 41.25ZM100.375 47.3312L95.4063 53.975C95.3316 54.0845 95.2345 54.1769 95.1213 54.2459C95.0081 54.3148 94.8816 54.3589 94.75 54.375H94.6813C94.558 54.3763 94.4357 54.3526 94.3218 54.3053C94.208 54.2581 94.1049 54.1882 94.0188 54.1L91.0813 51.1687C90.9891 51.0829 90.9153 50.9794 90.864 50.8644C90.8128 50.7494 90.7852 50.6253 90.783 50.4994C90.7808 50.3735 90.8039 50.2485 90.8511 50.1318C90.8983 50.015 90.9684 49.909 91.0575 49.82C91.1465 49.7309 91.2525 49.6607 91.3693 49.6136C91.486 49.5664 91.611 49.5433 91.7369 49.5455C91.8628 49.5477 91.9869 49.5753 92.1019 49.6265C92.2169 49.6778 92.3204 49.7516 92.4063 49.8438L94.55 51.9875L98.875 46.2062C99.0242 46.0073 99.2463 45.8758 99.4924 45.8407C99.7386 45.8055 99.9886 45.8696 100.188 46.0188C100.386 46.1679 100.518 46.39 100.553 46.6362C100.588 46.8823 100.524 47.1323 100.375 47.3312Z" fill="#088A08"/>
</g>
<g clip-path="url(#clip1_10188_2150)">
<path fill-rule="evenodd" clip-rule="evenodd" d="M148.713 47.2376C149.268 47.5066 149.7 47.9525 149.975 48.2824C150.041 48.3625 150.13 48.4678 150.233 48.5918C150.888 49.3741 152.167 50.9045 152.699 51.6125C153.211 52.2955 153.135 53.0353 152.848 53.6272C152.582 54.1776 152.114 54.6578 151.692 55.0269C151.272 55.3944 151.068 55.5942 150.964 55.765C150.902 55.8668 150.871 55.9582 150.926 56.1806C150.994 56.454 151.237 56.968 151.673 57.6215C152.096 58.2566 152.665 58.9681 153.329 59.6322C153.993 60.2967 154.704 60.8646 155.324 61.2742C155.634 61.4789 155.914 61.6388 156.146 61.7504C156.391 61.8676 156.541 61.911 156.605 61.92C156.63 61.9237 156.655 61.9286 156.68 61.9349C156.903 61.9905 156.994 61.9588 157.096 61.8969C157.267 61.7929 157.467 61.5886 157.834 61.1686C158.203 60.7467 158.683 60.2795 159.234 60.0126C159.821 59.7282 160.552 59.6516 161.23 60.1491C162.179 60.7851 163.997 62.3022 164.687 62.8931C165.07 63.2214 165.518 63.6839 165.772 64.2598C166.044 64.8768 166.083 65.6121 165.642 66.3484C165.581 66.4491 165.516 66.5671 165.444 66.6977C164.886 67.7122 163.909 69.4864 161.404 69.8051C158.575 70.2523 154.25 69.0764 149.063 63.7877C143.871 58.4936 142.716 54.1781 143.054 51.4695C143.362 49.0083 145.173 48.0728 146.193 47.5457C146.356 47.4613 146.499 47.3874 146.613 47.3194C147.371 46.8642 148.12 46.9502 148.713 47.2376ZM148.059 48.5874C147.827 48.4749 147.626 48.4608 147.384 48.6056C147.187 48.7241 146.983 48.834 146.778 48.9439C145.763 49.4896 144.745 50.0368 144.543 51.6555C144.281 53.747 145.126 57.6315 150.134 62.7373C155.139 67.8406 159.01 68.6692 161.18 68.3219C161.188 68.3206 161.197 68.3194 161.205 68.3183C162.921 68.1039 163.532 67.0231 164.106 66.0093C164.189 65.8627 164.271 65.7176 164.355 65.5766C164.514 65.3129 164.503 65.0982 164.4 64.8652C164.279 64.5911 164.027 64.3036 163.71 64.0319C163.004 63.4261 161.238 61.957 160.382 61.3865C160.371 61.3788 160.36 61.3708 160.349 61.3625C160.232 61.2748 160.121 61.2494 159.888 61.3624C159.614 61.4955 159.294 61.7783 158.963 62.1564C158.63 62.5364 158.28 62.9321 157.876 63.1782C157.412 63.4603 156.915 63.5316 156.352 63.3987C156.076 63.3528 155.78 63.2383 155.498 63.1028C155.19 62.955 154.85 62.7586 154.498 62.5258C153.793 62.0604 153.004 61.4283 152.268 60.6928C151.532 59.9569 150.901 59.1684 150.424 58.4535C149.96 57.757 149.603 57.071 149.471 56.5444C149.326 55.9668 149.395 55.4582 149.683 54.985C149.929 54.5809 150.325 54.2306 150.705 53.8981C151.083 53.5672 151.366 53.2474 151.499 52.9728C151.612 52.7397 151.586 52.6295 151.499 52.5125C150.995 51.8414 149.755 50.3581 149.093 49.5664C148.986 49.4382 148.894 49.3282 148.822 49.2426C148.597 48.9725 148.329 48.7184 148.059 48.5874Z" fill="black"/>
<circle cx="162" cy="50" r="10" fill="white"/>
<path d="M162 41.25C160.269 41.25 158.578 41.7632 157.139 42.7246C155.7 43.6861 154.578 45.0527 153.916 46.6515C153.254 48.2504 153.081 50.0097 153.418 51.707C153.756 53.4044 154.589 54.9635 155.813 56.1872C157.037 57.4109 158.596 58.2442 160.293 58.5819C161.99 58.9195 163.75 58.7462 165.348 58.0839C166.947 57.4217 168.314 56.3002 169.275 54.8612C170.237 53.4223 170.75 51.7306 170.75 50C170.75 47.6794 169.828 45.4538 168.187 43.8128C166.546 42.1719 164.321 41.25 162 41.25ZM167.119 50.9375H162C161.751 50.9375 161.513 50.8387 161.337 50.6629C161.161 50.4871 161.063 50.2486 161.063 50V44.8812C161.063 44.6326 161.161 44.3942 161.337 44.2183C161.513 44.0425 161.751 43.9437 162 43.9437C162.249 43.9437 162.487 44.0425 162.663 44.2183C162.839 44.3942 162.938 44.6326 162.938 44.8812V49.0625H167.119C167.367 49.0625 167.606 49.1613 167.782 49.3371C167.957 49.5129 168.056 49.7514 168.056 50C168.056 50.2486 167.957 50.4871 167.782 50.6629C167.606 50.8387 167.367 50.9375 167.119 50.9375Z" fill="#F38D00"/>
</g>
<g clip-path="url(#clip2_10188_2150)">
<path fill-rule="evenodd" clip-rule="evenodd" d="M214.713 47.2376C215.268 47.5066 215.7 47.9525 215.975 48.2824C216.041 48.3625 216.13 48.4678 216.233 48.5918C216.888 49.3741 218.167 50.9045 218.699 51.6125C219.211 52.2955 219.135 53.0353 218.848 53.6272C218.582 54.1776 218.114 54.6578 217.692 55.0269C217.272 55.3944 217.068 55.5942 216.964 55.765C216.902 55.8668 216.871 55.9582 216.926 56.1806C216.994 56.454 217.237 56.968 217.673 57.6215C218.096 58.2566 218.665 58.9681 219.329 59.6322C219.993 60.2967 220.704 60.8646 221.324 61.2742C221.634 61.4789 221.914 61.6388 222.146 61.7504C222.391 61.8676 222.541 61.911 222.605 61.92C222.63 61.9237 222.655 61.9286 222.68 61.9349C222.903 61.9905 222.994 61.9588 223.096 61.8969C223.267 61.7929 223.467 61.5886 223.834 61.1686C224.203 60.7467 224.683 60.2795 225.234 60.0126C225.821 59.7282 226.552 59.6516 227.23 60.1491C228.179 60.7851 229.997 62.3022 230.687 62.8931C231.07 63.2214 231.518 63.6839 231.772 64.2598C232.044 64.8768 232.083 65.6121 231.642 66.3484C231.581 66.4491 231.516 66.5671 231.444 66.6977C230.886 67.7122 229.909 69.4864 227.404 69.8051C224.575 70.2523 220.25 69.0764 215.063 63.7877C209.871 58.4936 208.716 54.1781 209.054 51.4695C209.362 49.0083 211.173 48.0728 212.193 47.5457C212.356 47.4613 212.499 47.3874 212.613 47.3194C213.371 46.8642 214.12 46.9502 214.713 47.2376ZM214.059 48.5874C213.827 48.4749 213.626 48.4608 213.384 48.6056C213.187 48.7241 212.983 48.834 212.778 48.9439C211.763 49.4896 210.745 50.0368 210.543 51.6555C210.281 53.747 211.126 57.6315 216.134 62.7373C221.139 67.8406 225.01 68.6692 227.18 68.3219C227.188 68.3206 227.197 68.3194 227.205 68.3183C228.921 68.1039 229.532 67.0231 230.106 66.0093C230.189 65.8627 230.271 65.7176 230.355 65.5766C230.514 65.3129 230.503 65.0982 230.4 64.8652C230.279 64.5911 230.027 64.3036 229.71 64.0319C229.004 63.4261 227.238 61.957 226.382 61.3865C226.371 61.3788 226.36 61.3708 226.349 61.3625C226.232 61.2748 226.121 61.2494 225.888 61.3624C225.614 61.4955 225.294 61.7783 224.963 62.1564C224.63 62.5364 224.28 62.9321 223.876 63.1782C223.412 63.4603 222.915 63.5316 222.352 63.3987C222.076 63.3528 221.78 63.2383 221.498 63.1028C221.19 62.955 220.85 62.7586 220.498 62.5258C219.793 62.0604 219.004 61.4283 218.268 60.6928C217.532 59.9569 216.901 59.1684 216.424 58.4535C215.96 57.757 215.603 57.071 215.471 56.5444C215.326 55.9668 215.395 55.4582 215.683 54.985C215.929 54.5809 216.325 54.2306 216.705 53.8981C217.083 53.5672 217.366 53.2474 217.499 52.9728C217.612 52.7397 217.586 52.6295 217.499 52.5125C216.995 51.8414 215.755 50.3581 215.093 49.5664C214.986 49.4382 214.894 49.3282 214.822 49.2426C214.597 48.9725 214.329 48.7184 214.059 48.5874Z" fill="black"/>
<circle cx="228" cy="50" r="10" fill="white"/>
<path d="M228 41.25C226.269 41.25 224.578 41.7632 223.139 42.7246C221.7 43.6861 220.578 45.0527 219.916 46.6515C219.254 48.2504 219.081 50.0097 219.418 51.707C219.756 53.4044 220.589 54.9635 221.813 56.1872C223.037 57.4109 224.596 58.2442 226.293 58.5819C227.99 58.9195 229.75 58.7462 231.348 58.0839C232.947 57.4217 234.314 56.3002 235.275 54.8612C236.237 53.4223 236.75 51.7306 236.75 50C236.75 47.6794 235.828 45.4538 234.187 43.8128C232.546 42.1719 230.321 41.25 228 41.25ZM228.938 53.825C228.938 54.0736 228.839 54.3121 228.663 54.4879C228.487 54.6637 228.249 54.7625 228 54.7625C227.751 54.7625 227.513 54.6637 227.337 54.4879C227.161 54.3121 227.063 54.0736 227.063 53.825V46.175C227.063 45.9264 227.161 45.6879 227.337 45.5121C227.513 45.3363 227.751 45.2375 228 45.2375C228.249 45.2375 228.487 45.3363 228.663 45.5121C228.839 45.6879 228.938 45.9264 228.938 46.175V53.825Z" fill="#F38D00"/>
</g>
<g clip-path="url(#clip3_10188_2150)">
<path fill-rule="evenodd" clip-rule="evenodd" d="M280.713 47.2376C281.268 47.5066 281.7 47.9525 281.975 48.2824C282.041 48.3625 282.13 48.4678 282.233 48.5918C282.888 49.3741 284.167 50.9045 284.699 51.6125C285.211 52.2955 285.135 53.0353 284.848 53.6272C284.582 54.1776 284.114 54.6578 283.692 55.0269C283.272 55.3944 283.068 55.5942 282.964 55.765C282.902 55.8668 282.871 55.9582 282.926 56.1806C282.994 56.454 283.237 56.968 283.673 57.6215C284.096 58.2566 284.665 58.9681 285.329 59.6322C285.993 60.2967 286.704 60.8646 287.324 61.2742C287.634 61.4789 287.914 61.6388 288.146 61.7504C288.391 61.8676 288.541 61.911 288.605 61.92C288.63 61.9237 288.655 61.9286 288.68 61.9349C288.903 61.9905 288.994 61.9588 289.096 61.8969C289.267 61.7929 289.467 61.5886 289.834 61.1686C290.203 60.7467 290.683 60.2795 291.234 60.0126C291.821 59.7282 292.552 59.6516 293.23 60.1491C294.179 60.7851 295.997 62.3022 296.687 62.8931C297.07 63.2214 297.518 63.6839 297.772 64.2598C298.044 64.8768 298.083 65.6121 297.642 66.3484C297.581 66.4491 297.516 66.5671 297.444 66.6977C296.886 67.7122 295.909 69.4864 293.404 69.8051C290.575 70.2523 286.25 69.0764 281.063 63.7877C275.871 58.4936 274.716 54.1781 275.054 51.4695C275.362 49.0083 277.173 48.0728 278.193 47.5457C278.356 47.4613 278.499 47.3874 278.613 47.3194C279.371 46.8642 280.12 46.9502 280.713 47.2376ZM280.059 48.5874C279.827 48.4749 279.626 48.4608 279.384 48.6056C279.187 48.7241 278.983 48.834 278.778 48.9439C277.763 49.4896 276.745 50.0368 276.543 51.6555C276.281 53.747 277.126 57.6315 282.134 62.7373C287.139 67.8406 291.01 68.6692 293.18 68.3219C293.188 68.3206 293.197 68.3194 293.205 68.3183C294.921 68.1039 295.532 67.0231 296.106 66.0093C296.189 65.8627 296.271 65.7176 296.355 65.5766C296.514 65.3129 296.503 65.0982 296.4 64.8652C296.279 64.5911 296.027 64.3036 295.71 64.0319C295.004 63.4261 293.238 61.957 292.382 61.3865C292.371 61.3788 292.36 61.3708 292.349 61.3625C292.232 61.2748 292.121 61.2494 291.888 61.3624C291.614 61.4955 291.294 61.7783 290.963 62.1564C290.63 62.5364 290.28 62.9321 289.876 63.1782C289.412 63.4603 288.915 63.5316 288.352 63.3987C288.076 63.3528 287.78 63.2383 287.498 63.1028C287.19 62.955 286.85 62.7586 286.498 62.5258C285.793 62.0604 285.004 61.4283 284.268 60.6928C283.532 59.9569 282.901 59.1684 282.424 58.4535C281.96 57.757 281.603 57.071 281.471 56.5444C281.326 55.9668 281.395 55.4582 281.683 54.985C281.929 54.5809 282.325 54.2306 282.705 53.8981C283.083 53.5672 283.366 53.2474 283.499 52.9728C283.612 52.7397 283.586 52.6295 283.499 52.5125C282.995 51.8414 281.755 50.3581 281.093 49.5664C280.986 49.4382 280.894 49.3282 280.822 49.2426C280.597 48.9725 280.329 48.7184 280.059 48.5874Z" fill="black"/>
<circle cx="294" cy="50" r="10" fill="white"/>
<path d="M294 58.75C295.731 58.75 297.422 58.2368 298.861 57.2754C300.3 56.3139 301.422 54.9473 302.084 53.3485C302.746 51.7496 302.919 49.9903 302.582 48.293C302.244 46.5956 301.411 45.0365 300.187 43.8128C298.963 42.5891 297.404 41.7558 295.707 41.4181C294.01 41.0805 292.25 41.2538 290.652 41.9161C289.053 42.5783 287.686 43.6998 286.725 45.1388C285.763 46.5777 285.25 48.2694 285.25 50C285.25 52.3206 286.172 54.5462 287.813 56.1872C289.454 57.8281 291.679 58.75 294 58.75ZM292.359 45.9531L292.906 45.4063C293.691 44.6688 294.728 44.2582 295.805 44.2582C296.882 44.2582 297.918 44.6688 298.703 45.4063C299.084 45.7754 299.387 46.2173 299.594 46.7059C299.801 47.1944 299.908 47.7195 299.908 48.25C299.908 48.7805 299.801 49.3056 299.594 49.7941C299.387 50.2827 299.084 50.7246 298.703 51.0938L298.156 51.6406C298.009 51.7823 297.813 51.8615 297.609 51.8615C297.405 51.8615 297.209 51.7823 297.062 51.6406C296.985 51.5719 296.924 51.4876 296.882 51.3934C296.839 51.2991 296.817 51.197 296.817 51.0938C296.817 50.9905 296.839 50.8884 296.882 50.7941C296.924 50.6999 296.985 50.6156 297.062 50.5469L297.5 50C297.927 49.5081 298.194 48.8976 298.266 48.25C298.269 47.9208 298.202 47.5946 298.07 47.2929C297.938 46.9913 297.744 46.721 297.5 46.5C297.273 46.2658 297.001 46.0797 296.7 45.9525C296.399 45.8254 296.076 45.7599 295.75 45.7599C295.424 45.7599 295.101 45.8254 294.8 45.9525C294.499 46.0797 294.227 46.2658 294 46.5L293.453 47.0469C293.384 47.1239 293.3 47.1856 293.206 47.2278C293.112 47.2701 293.01 47.2919 292.906 47.2919C292.803 47.2919 292.701 47.2701 292.607 47.2278C292.512 47.1856 292.428 47.1239 292.359 47.0469C292.282 46.9781 292.221 46.8939 292.178 46.7996C292.136 46.7054 292.114 46.6033 292.114 46.5C292.114 46.3967 292.136 46.2946 292.178 46.2004C292.221 46.1061 292.282 46.0219 292.359 45.9531ZM292.141 50.6563L294.656 48.1406C294.819 48.0002 295.03 47.9267 295.245 47.9348C295.46 47.9428 295.664 48.0319 295.816 48.184C295.968 48.3362 296.057 48.5403 296.065 48.7554C296.073 48.9704 296 49.1806 295.859 49.3438L293.344 51.8594C293.125 51.9688 293.016 52.0781 292.797 52.0781C292.594 52.0744 292.399 51.9966 292.25 51.8594C292.102 51.6986 292.012 51.4937 291.992 51.2763C291.972 51.0589 292.024 50.841 292.141 50.6563ZM289.406 48.9063L289.953 48.3594C290.022 48.2823 290.106 48.2206 290.2 48.1784C290.295 48.1362 290.397 48.1144 290.5 48.1144C290.603 48.1144 290.705 48.1362 290.8 48.1784C290.894 48.2206 290.978 48.2823 291.047 48.3594C291.124 48.4281 291.186 48.5124 291.228 48.6066C291.27 48.7009 291.292 48.803 291.292 48.9063C291.292 49.0095 291.27 49.1116 291.228 49.2059C291.186 49.3001 291.124 49.3844 291.047 49.4531L290.5 50C290.062 50.4756 289.826 51.1035 289.844 51.75C289.831 52.0806 289.893 52.4099 290.025 52.713C290.158 53.0161 290.358 53.2852 290.609 53.5C291.073 53.9696 291.7 54.2436 292.359 54.2656C292.69 54.2787 293.019 54.2165 293.322 54.0839C293.625 53.9513 293.895 53.7517 294.109 53.5L294.656 52.9531C294.805 52.829 294.995 52.765 295.189 52.7738C295.382 52.7825 295.566 52.8633 295.703 53.0004C295.84 53.1375 295.921 53.3208 295.929 53.5145C295.938 53.7081 295.874 53.898 295.75 54.0469L295.094 54.5938C294.725 54.9748 294.283 55.2778 293.794 55.4847C293.306 55.6916 292.781 55.7982 292.25 55.7982C291.719 55.7982 291.194 55.6916 290.706 55.4847C290.217 55.2778 289.775 54.9748 289.406 54.5938C289.025 54.2246 288.722 53.7827 288.515 53.2941C288.308 52.8056 288.202 52.2805 288.202 51.75C288.202 51.2195 288.308 50.6944 288.515 50.2059C288.722 49.7173 289.025 49.2754 289.406 48.9063Z" fill="black"/>
</g>
<g clip-path="url(#clip4_10188_2150)">
<path fill-rule="evenodd" clip-rule="evenodd" d="M346.713 47.2376C347.268 47.5066 347.7 47.9525 347.975 48.2824C348.041 48.3625 348.13 48.4678 348.233 48.5918C348.888 49.3741 350.167 50.9045 350.699 51.6125C351.211 52.2955 351.135 53.0353 350.848 53.6272C350.582 54.1776 350.114 54.6578 349.692 55.0269C349.272 55.3944 349.068 55.5942 348.964 55.765C348.902 55.8668 348.871 55.9582 348.926 56.1806C348.994 56.454 349.237 56.968 349.673 57.6215C350.096 58.2566 350.665 58.9681 351.329 59.6322C351.993 60.2967 352.704 60.8646 353.324 61.2742C353.634 61.4789 353.914 61.6388 354.146 61.7504C354.391 61.8676 354.541 61.911 354.605 61.92C354.63 61.9237 354.655 61.9286 354.68 61.9349C354.903 61.9905 354.994 61.9588 355.096 61.8969C355.267 61.7929 355.467 61.5886 355.834 61.1686C356.203 60.7467 356.683 60.2795 357.234 60.0126C357.821 59.7282 358.552 59.6516 359.23 60.1491C360.179 60.7851 361.997 62.3022 362.687 62.8931C363.07 63.2214 363.518 63.6839 363.772 64.2598C364.044 64.8768 364.083 65.6121 363.642 66.3484C363.581 66.4491 363.516 66.5671 363.444 66.6977C362.886 67.7122 361.909 69.4864 359.404 69.8051C356.575 70.2523 352.25 69.0764 347.063 63.7877C341.871 58.4936 340.716 54.1781 341.054 51.4695C341.362 49.0083 343.173 48.0728 344.193 47.5457C344.356 47.4613 344.499 47.3874 344.613 47.3194C345.371 46.8642 346.12 46.9502 346.713 47.2376ZM346.059 48.5874C345.827 48.4749 345.626 48.4608 345.384 48.6056C345.187 48.7241 344.983 48.834 344.778 48.9439C343.763 49.4896 342.745 50.0368 342.543 51.6555C342.281 53.747 343.126 57.6315 348.134 62.7373C353.139 67.8406 357.01 68.6692 359.18 68.3219C359.188 68.3206 359.197 68.3194 359.205 68.3183C360.921 68.1039 361.532 67.0231 362.106 66.0093C362.189 65.8627 362.271 65.7176 362.355 65.5766C362.514 65.3129 362.503 65.0982 362.4 64.8652C362.279 64.5911 362.027 64.3036 361.71 64.0319C361.004 63.4261 359.238 61.957 358.382 61.3865C358.371 61.3788 358.36 61.3708 358.349 61.3625C358.232 61.2748 358.121 61.2494 357.888 61.3624C357.614 61.4955 357.294 61.7783 356.963 62.1564C356.63 62.5364 356.28 62.9321 355.876 63.1782C355.412 63.4603 354.915 63.5316 354.352 63.3987C354.076 63.3528 353.78 63.2383 353.498 63.1028C353.19 62.955 352.85 62.7586 352.498 62.5258C351.793 62.0604 351.004 61.4283 350.268 60.6928C349.532 59.9569 348.901 59.1684 348.424 58.4535C347.96 57.757 347.603 57.071 347.471 56.5444C347.326 55.9668 347.395 55.4582 347.683 54.985C347.929 54.5809 348.325 54.2306 348.705 53.8981C349.083 53.5672 349.366 53.2474 349.499 52.9728C349.612 52.7397 349.586 52.6295 349.499 52.5125C348.995 51.8414 347.755 50.3581 347.093 49.5664C346.986 49.4382 346.894 49.3282 346.822 49.2426C346.597 48.9725 346.329 48.7184 346.059 48.5874Z" fill="black"/>
<circle cx="360" cy="50" r="10" fill="white"/>
<path d="M360 41.25C358.269 41.25 356.578 41.7632 355.139 42.7246C353.7 43.6861 352.578 45.0527 351.916 46.6515C351.254 48.2504 351.081 50.0097 351.418 51.707C351.756 53.4044 352.589 54.9635 353.813 56.1872C355.037 57.4109 356.596 58.2442 358.293 58.5819C359.99 58.9195 361.75 58.7462 363.348 58.0839C364.947 57.4217 366.314 56.3002 367.275 54.8612C368.237 53.4223 368.75 51.7306 368.75 50C368.75 47.6794 367.828 45.4538 366.187 43.8128C364.546 42.1719 362.321 41.25 360 41.25ZM363.831 50.9375H356.175C355.926 50.9375 355.688 50.8387 355.512 50.6629C355.336 50.4871 355.238 50.2486 355.238 50C355.238 49.7514 355.336 49.5129 355.512 49.3371C355.688 49.1613 355.926 49.0625 356.175 49.0625H363.831C364.08 49.0625 364.318 49.1613 364.494 49.3371C364.67 49.5129 364.769 49.7514 364.769 50C364.769 50.2486 364.67 50.4871 364.494 50.6629C364.318 50.8387 364.08 50.9375 363.831 50.9375Z" fill="#DA291C"/>
</g>
<g clip-path="url(#clip5_10188_2150)">
<path fill-rule="evenodd" clip-rule="evenodd" d="M412.713 47.2376C413.268 47.5066 413.7 47.9525 413.975 48.2824C414.041 48.3625 414.13 48.4678 414.233 48.5918C414.888 49.3741 416.167 50.9045 416.699 51.6125C417.211 52.2955 417.135 53.0353 416.848 53.6272C416.582 54.1776 416.114 54.6578 415.692 55.0269C415.272 55.3944 415.068 55.5942 414.964 55.765C414.902 55.8668 414.871 55.9582 414.926 56.1806C414.994 56.454 415.237 56.968 415.673 57.6215C416.096 58.2566 416.665 58.9681 417.329 59.6322C417.993 60.2967 418.704 60.8646 419.324 61.2742C419.634 61.4789 419.914 61.6388 420.146 61.7504C420.391 61.8676 420.541 61.911 420.605 61.92C420.63 61.9237 420.655 61.9286 420.68 61.9349C420.903 61.9905 420.994 61.9588 421.096 61.8969C421.267 61.7929 421.467 61.5886 421.834 61.1686C422.203 60.7467 422.683 60.2795 423.234 60.0126C423.821 59.7282 424.552 59.6516 425.23 60.1491C426.179 60.7851 427.997 62.3022 428.687 62.8931C429.07 63.2214 429.518 63.6839 429.772 64.2598C430.044 64.8768 430.083 65.6121 429.642 66.3484C429.581 66.4491 429.516 66.5671 429.444 66.6977C428.886 67.7122 427.909 69.4864 425.404 69.8051C422.575 70.2523 418.25 69.0764 413.063 63.7877C407.871 58.4936 406.716 54.1781 407.054 51.4695C407.362 49.0083 409.173 48.0728 410.193 47.5457C410.356 47.4613 410.499 47.3874 410.613 47.3194C411.371 46.8642 412.12 46.9502 412.713 47.2376ZM412.059 48.5874C411.827 48.4749 411.626 48.4608 411.384 48.6056C411.187 48.7241 410.983 48.834 410.778 48.9439C409.763 49.4896 408.745 50.0368 408.543 51.6555C408.281 53.747 409.126 57.6315 414.134 62.7373C419.139 67.8406 423.01 68.6692 425.18 68.3219C425.188 68.3206 425.197 68.3194 425.205 68.3183C426.921 68.1039 427.532 67.0231 428.106 66.0093C428.189 65.8627 428.271 65.7176 428.355 65.5766C428.514 65.3129 428.503 65.0982 428.4 64.8652C428.279 64.5911 428.027 64.3036 427.71 64.0319C427.004 63.4261 425.238 61.957 424.382 61.3865C424.371 61.3788 424.36 61.3708 424.349 61.3625C424.232 61.2748 424.121 61.2494 423.888 61.3624C423.614 61.4955 423.294 61.7783 422.963 62.1564C422.63 62.5364 422.28 62.9321 421.876 63.1782C421.412 63.4603 420.915 63.5316 420.352 63.3987C420.076 63.3528 419.78 63.2383 419.498 63.1028C419.19 62.955 418.85 62.7586 418.498 62.5258C417.793 62.0604 417.004 61.4283 416.268 60.6928C415.532 59.9569 414.901 59.1684 414.424 58.4535C413.96 57.757 413.603 57.071 413.471 56.5444C413.326 55.9668 413.395 55.4582 413.683 54.985C413.929 54.5809 414.325 54.2306 414.705 53.8981C415.083 53.5672 415.366 53.2474 415.499 52.9728C415.612 52.7397 415.586 52.6295 415.499 52.5125C414.995 51.8414 413.755 50.3581 413.093 49.5664C412.986 49.4382 412.894 49.3282 412.822 49.2426C412.597 48.9725 412.329 48.7184 412.059 48.5874Z" fill="black"/>
<circle cx="426" cy="50" r="10" fill="white"/>
<path d="M426 58.75C427.731 58.75 429.422 58.2368 430.861 57.2754C432.3 56.3139 433.422 54.9473 434.084 53.3485C434.746 51.7496 434.919 49.9903 434.582 48.293C434.244 46.5956 433.411 45.0365 432.187 43.8128C430.963 42.5891 429.404 41.7558 427.707 41.4181C426.01 41.0805 424.25 41.2538 422.652 41.9161C421.053 42.5783 419.686 43.6998 418.725 45.1388C417.763 46.5777 417.25 48.2694 417.25 50C417.25 52.3206 418.172 54.5462 419.813 56.1872C421.454 57.8281 423.679 58.75 426 58.75ZM421.953 49.7813C422.151 49.6118 422.403 49.5187 422.664 49.5187C422.925 49.5187 423.177 49.6118 423.375 49.7813L425.016 51.4219V46.2813C425.016 46.0202 425.119 45.7698 425.304 45.5852C425.489 45.4006 425.739 45.2969 426 45.2969C426.261 45.2969 426.511 45.4006 426.696 45.5852C426.881 45.7698 426.984 46.0202 426.984 46.2813V51.4219L428.625 49.7813C428.707 49.6854 428.807 49.6069 428.92 49.5506C429.033 49.4942 429.155 49.4611 429.281 49.4531C429.409 49.4495 429.536 49.4776 429.651 49.5348C429.765 49.592 429.864 49.6767 429.937 49.7813C430.035 49.8574 430.116 49.9529 430.174 50.0617C430.233 50.1705 430.269 50.2903 430.279 50.4136C430.289 50.5368 430.274 50.6609 430.234 50.778C430.194 50.895 430.13 51.0025 430.047 51.0938L426.766 54.375C426.656 54.4844 426.547 54.4844 426.437 54.5938C426.317 54.6481 426.187 54.6762 426.055 54.6762C425.923 54.6762 425.792 54.6481 425.672 54.5938C425.562 54.5938 425.453 54.4844 425.344 54.375L422.062 51.0938C421.965 51.0176 421.884 50.9221 421.826 50.8133C421.767 50.7045 421.731 50.5847 421.721 50.4614C421.711 50.3382 421.726 50.2141 421.766 50.097C421.806 49.98 421.87 49.8725 421.953 49.7813Z" fill="black"/>
</g>
<g clip-path="url(#clip6_10188_2150)">
<path fill-rule="evenodd" clip-rule="evenodd" d="M478.713 47.2376C479.268 47.5066 479.7 47.9525 479.975 48.2824C480.041 48.3625 480.13 48.4678 480.233 48.5918C480.888 49.3741 482.167 50.9045 482.699 51.6125C483.211 52.2955 483.135 53.0353 482.848 53.6272C482.582 54.1776 482.114 54.6578 481.692 55.0269C481.272 55.3944 481.068 55.5942 480.964 55.765C480.902 55.8668 480.871 55.9582 480.926 56.1806C480.994 56.454 481.237 56.968 481.673 57.6215C482.096 58.2566 482.665 58.9681 483.329 59.6322C483.993 60.2967 484.704 60.8646 485.324 61.2742C485.634 61.4789 485.914 61.6388 486.146 61.7504C486.391 61.8676 486.541 61.911 486.605 61.92C486.63 61.9237 486.655 61.9286 486.68 61.9349C486.903 61.9905 486.994 61.9588 487.096 61.8969C487.267 61.7929 487.467 61.5886 487.834 61.1686C488.203 60.7467 488.683 60.2795 489.234 60.0126C489.821 59.7282 490.552 59.6516 491.23 60.1491C492.179 60.7851 493.997 62.3022 494.687 62.8931C495.07 63.2214 495.518 63.6839 495.772 64.2598C496.044 64.8768 496.083 65.6121 495.642 66.3484C495.581 66.4491 495.516 66.5671 495.444 66.6977C494.886 67.7122 493.909 69.4864 491.404 69.8051C488.575 70.2523 484.25 69.0764 479.063 63.7877C473.871 58.4936 472.716 54.1781 473.054 51.4695C473.362 49.0083 475.173 48.0728 476.193 47.5457C476.356 47.4613 476.499 47.3874 476.613 47.3194C477.371 46.8642 478.12 46.9502 478.713 47.2376ZM478.059 48.5874C477.827 48.4749 477.626 48.4608 477.384 48.6056C477.187 48.7241 476.983 48.834 476.778 48.9439C475.763 49.4896 474.745 50.0368 474.543 51.6555C474.281 53.747 475.126 57.6315 480.134 62.7373C485.139 67.8406 489.01 68.6692 491.18 68.3219C491.188 68.3206 491.197 68.3194 491.205 68.3183C492.921 68.1039 493.532 67.0231 494.106 66.0093C494.189 65.8627 494.271 65.7176 494.355 65.5766C494.514 65.3129 494.503 65.0982 494.4 64.8652C494.279 64.5911 494.027 64.3036 493.71 64.0319C493.004 63.4261 491.238 61.957 490.382 61.3865C490.371 61.3788 490.36 61.3708 490.349 61.3625C490.232 61.2748 490.121 61.2494 489.888 61.3624C489.614 61.4955 489.294 61.7783 488.963 62.1564C488.63 62.5364 488.28 62.9321 487.876 63.1782C487.412 63.4603 486.915 63.5316 486.352 63.3987C486.076 63.3528 485.78 63.2383 485.498 63.1028C485.19 62.955 484.85 62.7586 484.498 62.5258C483.793 62.0604 483.004 61.4283 482.268 60.6928C481.532 59.9569 480.901 59.1684 480.424 58.4535C479.96 57.757 479.603 57.071 479.471 56.5444C479.326 55.9668 479.395 55.4582 479.683 54.985C479.929 54.5809 480.325 54.2306 480.705 53.8981C481.083 53.5672 481.366 53.2474 481.499 52.9728C481.612 52.7397 481.586 52.6295 481.499 52.5125C480.995 51.8414 479.755 50.3581 479.093 49.5664C478.986 49.4382 478.894 49.3282 478.822 49.2426C478.597 48.9725 478.329 48.7184 478.059 48.5874Z" fill="black"/>
<circle cx="492" cy="50" r="10" fill="white"/>
<path d="M498.191 43.8163C496.76 42.3841 494.877 41.4922 492.863 41.2927C490.848 41.0931 488.827 41.5981 487.143 42.7217C485.459 43.8453 484.217 45.5179 483.628 47.4546C483.04 49.3914 483.14 51.4724 483.914 53.3431C484.687 55.2138 486.085 56.7585 487.87 57.7139C489.654 58.6694 491.715 58.9766 493.701 58.5831C495.686 58.1897 497.474 57.1199 498.76 55.5561C500.045 53.9923 500.748 52.0312 500.75 50.0069C500.751 48.8575 500.525 47.7192 500.086 46.657C499.647 45.5948 499.003 44.6295 498.191 43.8163ZM496.375 53.8569C496.372 54.0214 496.306 54.1783 496.189 54.2946C496.073 54.4109 495.916 54.4775 495.752 54.4803H488.205C488.048 54.4668 487.902 54.3955 487.795 54.2803C487.688 54.1651 487.627 54.0142 487.625 53.8569V48.9131C487.624 48.8298 487.641 48.7471 487.673 48.6701C487.704 48.5931 487.752 48.5232 487.811 48.4647C487.929 48.3524 488.086 48.2897 488.248 48.2897H489.342V46.7256C489.342 46.0004 489.63 45.3049 490.143 44.7921C490.656 44.2794 491.351 43.9913 492.077 43.9913C492.802 43.9913 493.497 44.2794 494.01 44.7921C494.523 45.3049 494.811 46.0004 494.811 46.7256V48.235H495.905C496.068 48.235 496.224 48.2977 496.342 48.41C496.382 48.487 496.406 48.5715 496.412 48.6581C496.417 48.7448 496.405 48.8316 496.375 48.9131V53.8569Z" fill="black"/>
<path d="M492 45.271C491.798 45.2675 491.597 45.3043 491.409 45.3795C491.221 45.4546 491.05 45.5664 490.906 45.7085C490.765 45.8523 490.654 46.0234 490.581 46.2115C490.507 46.3995 490.473 46.6005 490.48 46.8022V48.235H493.433V46.7256C493.44 46.5239 493.405 46.3229 493.332 46.1349C493.259 45.9469 493.148 45.7757 493.006 45.6319C492.726 45.3937 492.368 45.2655 492 45.271Z" fill="black"/>
</g>
<g clip-path="url(#clip7_10188_2150)">
<path fill-rule="evenodd" clip-rule="evenodd" d="M544.713 47.2376C545.268 47.5066 545.7 47.9525 545.975 48.2824C546.041 48.3625 546.13 48.4678 546.233 48.5918C546.888 49.3741 548.167 50.9045 548.699 51.6125C549.211 52.2955 549.135 53.0353 548.848 53.6272C548.582 54.1776 548.114 54.6578 547.692 55.0269C547.272 55.3944 547.068 55.5942 546.964 55.765C546.902 55.8668 546.871 55.9582 546.926 56.1806C546.994 56.454 547.237 56.968 547.673 57.6215C548.096 58.2566 548.665 58.9681 549.329 59.6322C549.993 60.2967 550.704 60.8646 551.324 61.2742C551.634 61.4789 551.914 61.6388 552.146 61.7504C552.391 61.8676 552.541 61.911 552.605 61.92C552.63 61.9237 552.655 61.9286 552.68 61.9349C552.903 61.9905 552.994 61.9588 553.096 61.8969C553.267 61.7929 553.467 61.5886 553.834 61.1686C554.203 60.7467 554.683 60.2795 555.234 60.0126C555.821 59.7282 556.552 59.6516 557.23 60.1491C558.179 60.7851 559.997 62.3022 560.687 62.8931C561.07 63.2214 561.518 63.6839 561.772 64.2598C562.044 64.8768 562.083 65.6121 561.642 66.3484C561.581 66.4491 561.516 66.5671 561.444 66.6977C560.886 67.7122 559.909 69.4864 557.404 69.8051C554.575 70.2523 550.25 69.0764 545.063 63.7877C539.871 58.4936 538.716 54.1781 539.054 51.4695C539.362 49.0083 541.173 48.0728 542.193 47.5457C542.356 47.4613 542.499 47.3874 542.613 47.3194C543.371 46.8642 544.12 46.9502 544.713 47.2376ZM544.059 48.5874C543.827 48.4749 543.626 48.4608 543.384 48.6056C543.187 48.7241 542.983 48.834 542.778 48.9439C541.763 49.4896 540.745 50.0368 540.543 51.6555C540.281 53.747 541.126 57.6315 546.134 62.7373C551.139 67.8406 555.01 68.6692 557.18 68.3219C557.188 68.3206 557.197 68.3194 557.205 68.3183C558.921 68.1039 559.532 67.0231 560.106 66.0093C560.189 65.8627 560.271 65.7176 560.355 65.5766C560.514 65.3129 560.503 65.0982 560.4 64.8652C560.279 64.5911 560.027 64.3036 559.71 64.0319C559.004 63.4261 557.238 61.957 556.382 61.3865C556.371 61.3788 556.36 61.3708 556.349 61.3625C556.232 61.2748 556.121 61.2494 555.888 61.3624C555.614 61.4955 555.294 61.7783 554.963 62.1564C554.63 62.5364 554.28 62.9321 553.876 63.1782C553.412 63.4603 552.915 63.5316 552.352 63.3987C552.076 63.3528 551.78 63.2383 551.498 63.1028C551.19 62.955 550.85 62.7586 550.498 62.5258C549.793 62.0604 549.004 61.4283 548.268 60.6928C547.532 59.9569 546.901 59.1684 546.424 58.4535C545.96 57.757 545.603 57.071 545.471 56.5444C545.326 55.9668 545.395 55.4582 545.683 54.985C545.929 54.5809 546.325 54.2306 546.705 53.8981C547.083 53.5672 547.366 53.2474 547.499 52.9728C547.612 52.7397 547.586 52.6295 547.499 52.5125C546.995 51.8414 545.755 50.3581 545.093 49.5664C544.986 49.4382 544.894 49.3282 544.822 49.2426C544.597 48.9725 544.329 48.7184 544.059 48.5874Z" fill="black"/>
<circle cx="558" cy="50" r="10" fill="white"/>
<path d="M558 58.75C559.731 58.75 561.422 58.2368 562.861 57.2754C564.3 56.3139 565.422 54.9473 566.084 53.3485C566.746 51.7496 566.919 49.9903 566.582 48.293C566.244 46.5956 565.411 45.0365 564.187 43.8128C562.963 42.5891 561.404 41.7558 559.707 41.4181C558.01 41.0805 556.25 41.2538 554.652 41.9161C553.053 42.5783 551.686 43.6998 550.725 45.1388C549.763 46.5777 549.25 48.2694 549.25 50C549.25 52.3206 550.172 54.5462 551.813 56.1872C553.454 57.8281 555.679 58.75 558 58.75ZM555.014 48.3922C554.831 48.2094 554.729 47.9616 554.729 47.7031C554.729 47.4447 554.831 47.1968 555.014 47.0141C555.197 46.8313 555.445 46.7286 555.703 46.7286C555.962 46.7286 556.209 46.8313 556.392 47.0141L558 48.6219L559.608 47.0141C559.698 46.9236 559.806 46.8518 559.924 46.8028C560.042 46.7539 560.169 46.7286 560.297 46.7286C560.425 46.7286 560.552 46.7539 560.67 46.8028C560.788 46.8518 560.895 46.9236 560.986 47.0141C561.076 47.1046 561.148 47.212 561.197 47.3302C561.246 47.4484 561.271 47.5752 561.271 47.7031C561.271 47.8311 561.246 47.9578 561.197 48.076C561.148 48.1943 561.076 48.3017 560.986 48.3922L559.378 50L560.986 51.6078C561.164 51.7931 561.263 52.04 561.263 52.2969C561.263 52.5537 561.164 52.8006 560.986 52.9859C560.801 53.1645 560.554 53.2661 560.297 53.2703C560.169 53.2711 560.042 53.2464 559.924 53.1975C559.805 53.1487 559.698 53.0768 559.608 52.9859L558 51.3781L556.392 52.9859C556.21 53.1704 555.963 53.2764 555.703 53.2813C555.446 53.2771 555.199 53.1754 555.014 52.9969C554.836 52.8115 554.737 52.5646 554.737 52.3078C554.737 52.051 554.836 51.8041 555.014 51.6188L556.622 50L555.014 48.3922Z" fill="#DA291C"/>
</g>
<g clip-path="url(#clip8_10188_2150)">
<path fill-rule="evenodd" clip-rule="evenodd" d="M610.713 47.2376C611.268 47.5066 611.7 47.9525 611.975 48.2824C612.041 48.3625 612.13 48.4678 612.233 48.5918C612.888 49.3741 614.167 50.9045 614.699 51.6125C615.211 52.2955 615.135 53.0353 614.848 53.6272C614.582 54.1776 614.114 54.6578 613.692 55.0269C613.272 55.3944 613.068 55.5942 612.964 55.765C612.902 55.8668 612.871 55.9582 612.926 56.1806C612.994 56.454 613.237 56.968 613.673 57.6215C614.096 58.2566 614.665 58.9681 615.329 59.6322C615.993 60.2967 616.704 60.8646 617.324 61.2742C617.634 61.4789 617.914 61.6388 618.146 61.7504C618.391 61.8676 618.541 61.911 618.605 61.92C618.63 61.9237 618.655 61.9286 618.68 61.9349C618.903 61.9905 618.994 61.9588 619.096 61.8969C619.267 61.7929 619.467 61.5886 619.834 61.1686C620.203 60.7467 620.683 60.2795 621.234 60.0126C621.821 59.7282 622.552 59.6516 623.23 60.1491C624.179 60.7851 625.997 62.3022 626.687 62.8931C627.07 63.2214 627.518 63.6839 627.772 64.2598C628.044 64.8768 628.083 65.6121 627.642 66.3484C627.581 66.4491 627.516 66.5671 627.444 66.6977C626.886 67.7122 625.909 69.4864 623.404 69.8051C620.575 70.2523 616.25 69.0764 611.063 63.7877C605.871 58.4936 604.716 54.1781 605.054 51.4695C605.362 49.0083 607.173 48.0728 608.193 47.5457C608.356 47.4613 608.499 47.3874 608.613 47.3194C609.371 46.8642 610.12 46.9502 610.713 47.2376ZM610.059 48.5874C609.827 48.4749 609.626 48.4608 609.384 48.6056C609.187 48.7241 608.983 48.834 608.778 48.9439C607.763 49.4896 606.745 50.0368 606.543 51.6555C606.281 53.747 607.126 57.6315 612.134 62.7373C617.139 67.8406 621.01 68.6692 623.18 68.3219C623.188 68.3206 623.197 68.3194 623.205 68.3183C624.921 68.1039 625.532 67.0231 626.106 66.0093C626.189 65.8627 626.271 65.7176 626.355 65.5766C626.514 65.3129 626.503 65.0982 626.4 64.8652C626.279 64.5911 626.027 64.3036 625.71 64.0319C625.004 63.4261 623.238 61.957 622.382 61.3865C622.371 61.3788 622.36 61.3708 622.349 61.3625C622.232 61.2748 622.121 61.2494 621.888 61.3624C621.614 61.4955 621.294 61.7783 620.963 62.1564C620.63 62.5364 620.28 62.9321 619.876 63.1782C619.412 63.4603 618.915 63.5316 618.352 63.3987C618.076 63.3528 617.78 63.2383 617.498 63.1028C617.19 62.955 616.85 62.7586 616.498 62.5258C615.793 62.0604 615.004 61.4283 614.268 60.6928C613.532 59.9569 612.901 59.1684 612.424 58.4535C611.96 57.757 611.603 57.071 611.471 56.5444C611.326 55.9668 611.395 55.4582 611.683 54.985C611.929 54.5809 612.325 54.2306 612.705 53.8981C613.083 53.5672 613.366 53.2474 613.499 52.9728C613.612 52.7397 613.586 52.6295 613.499 52.5125C612.995 51.8414 611.755 50.3581 611.093 49.5664C610.986 49.4382 610.894 49.3282 610.822 49.2426C610.597 48.9725 610.329 48.7184 610.059 48.5874Z" fill="black"/>
<circle cx="624" cy="50" r="10" fill="white"/>
<path d="M624 47.1125C623.429 47.1125 622.871 47.2818 622.396 47.5991C621.921 47.9164 621.551 48.3674 621.332 48.895C621.114 49.4226 621.057 50.0032 621.168 50.5633C621.279 51.1234 621.554 51.6379 621.958 52.0418C622.362 52.4456 622.877 52.7206 623.437 52.832C623.997 52.9434 624.577 52.8863 625.105 52.6677C625.633 52.4492 626.084 52.0791 626.401 51.6042C626.718 51.1294 626.888 50.5711 626.888 50C626.888 49.2342 626.583 48.4997 626.042 47.9582C625.5 47.4167 624.766 47.1125 624 47.1125Z" fill="#757474"/>
<path d="M624 41.25C622.269 41.25 620.578 41.7632 619.139 42.7246C617.7 43.6861 616.578 45.0527 615.916 46.6515C615.254 48.2504 615.081 50.0097 615.418 51.707C615.756 53.4044 616.589 54.9635 617.813 56.1872C619.037 57.4109 620.596 58.2442 622.293 58.5819C623.99 58.9195 625.75 58.7462 627.348 58.0839C628.947 57.4217 630.314 56.3002 631.275 54.8612C632.237 53.4223 632.75 51.7306 632.75 50C632.75 47.6794 631.828 45.4538 630.187 43.8128C628.546 42.1719 626.321 41.25 624 41.25ZM624 54.7563C623.058 54.7562 622.137 54.4768 621.353 53.9532C620.57 53.4296 619.96 52.6854 619.599 51.8148C619.239 50.9442 619.145 49.9863 619.329 49.0623C619.514 48.1383 619.968 47.2897 620.635 46.6239C621.301 45.9581 622.15 45.5051 623.075 45.322C623.999 45.1389 624.957 45.2341 625.827 45.5956C626.697 45.957 627.44 46.5684 627.963 47.3524C628.485 48.1364 628.764 49.0578 628.763 50C628.761 51.262 628.258 52.4718 627.365 53.3636C626.472 54.2553 625.262 54.7563 624 54.7563Z" fill="#757474"/>
</g>
<g clip-path="url(#clip9_10188_2150)">
<path fill-rule="evenodd" clip-rule="evenodd" d="M676.713 47.2376C677.268 47.5066 677.7 47.9525 677.975 48.2824C678.041 48.3625 678.13 48.4678 678.233 48.5918C678.888 49.3741 680.167 50.9045 680.699 51.6125C681.211 52.2955 681.135 53.0353 680.848 53.6272C680.582 54.1776 680.114 54.6578 679.692 55.0269C679.272 55.3944 679.068 55.5942 678.964 55.765C678.902 55.8668 678.871 55.9582 678.926 56.1806C678.994 56.454 679.237 56.968 679.673 57.6215C680.096 58.2566 680.665 58.9681 681.329 59.6322C681.993 60.2967 682.704 60.8646 683.324 61.2742C683.634 61.4789 683.914 61.6388 684.146 61.7504C684.391 61.8676 684.541 61.911 684.605 61.92C684.63 61.9237 684.655 61.9286 684.68 61.9349C684.903 61.9905 684.994 61.9588 685.096 61.8969C685.267 61.7929 685.467 61.5886 685.834 61.1686C686.203 60.7467 686.683 60.2795 687.234 60.0126C687.821 59.7282 688.552 59.6516 689.23 60.1491C690.179 60.7851 691.997 62.3022 692.687 62.8931C693.07 63.2214 693.518 63.6839 693.772 64.2598C694.044 64.8768 694.083 65.6121 693.642 66.3484C693.581 66.4491 693.516 66.5671 693.444 66.6977C692.886 67.7122 691.909 69.4864 689.404 69.8051C686.575 70.2523 682.25 69.0764 677.063 63.7877C671.871 58.4936 670.716 54.1781 671.054 51.4695C671.362 49.0083 673.173 48.0728 674.193 47.5457C674.356 47.4613 674.499 47.3874 674.613 47.3194C675.371 46.8642 676.12 46.9502 676.713 47.2376ZM676.059 48.5874C675.827 48.4749 675.626 48.4608 675.384 48.6056C675.187 48.7241 674.983 48.834 674.778 48.9439C673.763 49.4896 672.745 50.0368 672.543 51.6555C672.281 53.747 673.126 57.6315 678.134 62.7373C683.139 67.8406 687.01 68.6692 689.18 68.3219C689.188 68.3206 689.197 68.3194 689.205 68.3183C690.921 68.1039 691.532 67.0231 692.106 66.0093C692.189 65.8627 692.271 65.7176 692.355 65.5766C692.514 65.3129 692.503 65.0982 692.4 64.8652C692.279 64.5911 692.027 64.3036 691.71 64.0319C691.004 63.4261 689.238 61.957 688.382 61.3865C688.371 61.3788 688.36 61.3708 688.349 61.3625C688.232 61.2748 688.121 61.2494 687.888 61.3624C687.614 61.4955 687.294 61.7783 686.963 62.1564C686.63 62.5364 686.28 62.9321 685.876 63.1782C685.412 63.4603 684.915 63.5316 684.352 63.3987C684.076 63.3528 683.78 63.2383 683.498 63.1028C683.19 62.955 682.85 62.7586 682.498 62.5258C681.793 62.0604 681.004 61.4283 680.268 60.6928C679.532 59.9569 678.901 59.1684 678.424 58.4535C677.96 57.757 677.603 57.071 677.471 56.5444C677.326 55.9668 677.395 55.4582 677.683 54.985C677.929 54.5809 678.325 54.2306 678.705 53.8981C679.083 53.5672 679.366 53.2474 679.499 52.9728C679.612 52.7397 679.586 52.6295 679.499 52.5125C678.995 51.8414 677.755 50.3581 677.093 49.5664C676.986 49.4382 676.894 49.3282 676.822 49.2426C676.597 48.9725 676.329 48.7184 676.059 48.5874Z" fill="black"/>
<circle cx="690" cy="50" r="10" fill="white"/>
<path d="M690 58.75C691.731 58.75 693.422 58.2368 694.861 57.2754C696.3 56.3139 697.422 54.9473 698.084 53.3485C698.746 51.7496 698.919 49.9903 698.582 48.293C698.244 46.5956 697.411 45.0365 696.187 43.8128C694.963 42.5891 693.404 41.7558 691.707 41.4181C690.01 41.0805 688.25 41.2538 686.652 41.9161C685.053 42.5783 683.686 43.6998 682.725 45.1388C681.763 46.5777 681.25 48.2694 681.25 50C681.25 52.3206 682.172 54.5462 683.813 56.1872C685.454 57.8281 687.679 58.75 690 58.75ZM685.953 48.9063L689.234 45.625C689.344 45.5156 689.453 45.5156 689.562 45.4063C689.683 45.3519 689.813 45.3238 689.945 45.3238C690.077 45.3238 690.208 45.3519 690.328 45.4063C690.437 45.4063 690.547 45.5156 690.656 45.625L693.937 48.9063C694.107 49.1044 694.2 49.3565 694.2 49.6172C694.2 49.8779 694.107 50.13 693.937 50.3281C693.856 50.424 693.755 50.5024 693.643 50.5588C693.53 50.6152 693.407 50.6483 693.281 50.6563C693.153 50.6599 693.026 50.6318 692.912 50.5746C692.797 50.5173 692.699 50.4327 692.625 50.3281L690.984 48.5781V53.7188C690.984 53.848 690.959 53.976 690.909 54.0955C690.86 54.2149 690.787 54.3234 690.696 54.4148C690.605 54.5062 690.496 54.5787 690.377 54.6282C690.257 54.6777 690.129 54.7031 690 54.7031C689.871 54.7031 689.743 54.6777 689.623 54.6282C689.504 54.5787 689.395 54.5062 689.304 54.4148C689.213 54.3234 689.14 54.2149 689.091 54.0955C689.041 53.976 689.016 53.848 689.016 53.7188V48.5781L687.375 50.2188C687.172 50.3784 686.922 50.4653 686.664 50.4653C686.406 50.4653 686.156 50.3784 685.953 50.2188C685.794 50.0372 685.706 49.804 685.706 49.5625C685.706 49.321 685.794 49.0878 685.953 48.9063Z" fill="black"/>
</g>
<g clip-path="url(#clip10_10188_2150)">
<path fill-rule="evenodd" clip-rule="evenodd" d="M742.713 47.2376C743.268 47.5066 743.7 47.9525 743.975 48.2824C744.041 48.3625 744.13 48.4678 744.233 48.5918C744.888 49.3741 746.167 50.9045 746.699 51.6125C747.211 52.2955 747.135 53.0353 746.848 53.6272C746.582 54.1776 746.114 54.6578 745.692 55.0269C745.272 55.3944 745.068 55.5942 744.964 55.765C744.902 55.8668 744.871 55.9582 744.926 56.1806C744.994 56.454 745.237 56.968 745.673 57.6215C746.096 58.2566 746.665 58.9681 747.329 59.6322C747.993 60.2967 748.704 60.8646 749.324 61.2742C749.634 61.4789 749.914 61.6388 750.146 61.7504C750.391 61.8676 750.541 61.911 750.605 61.92C750.63 61.9237 750.655 61.9286 750.68 61.9349C750.903 61.9905 750.994 61.9588 751.096 61.8969C751.267 61.7929 751.467 61.5886 751.834 61.1686C752.203 60.7467 752.683 60.2795 753.234 60.0126C753.821 59.7282 754.552 59.6516 755.23 60.1491C756.179 60.7851 757.997 62.3022 758.687 62.8931C759.07 63.2214 759.518 63.6839 759.772 64.2598C760.044 64.8768 760.083 65.6121 759.642 66.3484C759.581 66.4491 759.516 66.5671 759.444 66.6977C758.886 67.7122 757.909 69.4864 755.404 69.8051C752.575 70.2523 748.25 69.0764 743.063 63.7877C737.871 58.4936 736.716 54.1781 737.054 51.4695C737.362 49.0083 739.173 48.0728 740.193 47.5457C740.356 47.4613 740.499 47.3874 740.613 47.3194C741.371 46.8642 742.12 46.9502 742.713 47.2376ZM742.059 48.5874C741.827 48.4749 741.626 48.4608 741.384 48.6056C741.187 48.7241 740.983 48.834 740.778 48.9439C739.763 49.4896 738.745 50.0368 738.543 51.6555C738.281 53.747 739.126 57.6315 744.134 62.7373C749.139 67.8406 753.01 68.6692 755.18 68.3219C755.188 68.3206 755.197 68.3194 755.205 68.3183C756.921 68.1039 757.532 67.0231 758.106 66.0093C758.189 65.8627 758.271 65.7176 758.355 65.5766C758.514 65.3129 758.503 65.0982 758.4 64.8652C758.279 64.5911 758.027 64.3036 757.71 64.0319C757.004 63.4261 755.238 61.957 754.382 61.3865C754.371 61.3788 754.36 61.3708 754.349 61.3625C754.232 61.2748 754.121 61.2494 753.888 61.3624C753.614 61.4955 753.294 61.7783 752.963 62.1564C752.63 62.5364 752.28 62.9321 751.876 63.1782C751.412 63.4603 750.915 63.5316 750.352 63.3987C750.076 63.3528 749.78 63.2383 749.498 63.1028C749.19 62.955 748.85 62.7586 748.498 62.5258C747.793 62.0604 747.004 61.4283 746.268 60.6928C745.532 59.9569 744.901 59.1684 744.424 58.4535C743.96 57.757 743.603 57.071 743.471 56.5444C743.326 55.9668 743.395 55.4582 743.683 54.985C743.929 54.5809 744.325 54.2306 744.705 53.8981C745.083 53.5672 745.366 53.2474 745.499 52.9728C745.612 52.7397 745.586 52.6295 745.499 52.5125C744.995 51.8414 743.755 50.3581 743.093 49.5664C742.986 49.4382 742.894 49.3282 742.822 49.2426C742.597 48.9725 742.329 48.7184 742.059 48.5874Z" fill="black"/>
<circle cx="756" cy="50" r="10" fill="white"/>
<path d="M756 58.75C757.731 58.75 759.422 58.2368 760.861 57.2754C762.3 56.3139 763.422 54.9473 764.084 53.3485C764.746 51.7496 764.919 49.9903 764.582 48.293C764.244 46.5956 763.411 45.0365 762.187 43.8128C760.963 42.5891 759.404 41.7558 757.707 41.4181C756.01 41.0805 754.25 41.2538 752.652 41.9161C751.053 42.5783 749.686 43.6998 748.725 45.1388C747.763 46.5777 747.25 48.2694 747.25 50C747.25 52.3206 748.172 54.5462 749.813 56.1872C751.454 57.8281 753.679 58.75 756 58.75ZM755.016 45.625C755.016 45.3639 755.119 45.1136 755.304 44.9289C755.489 44.7443 755.739 44.6406 756 44.6406C756.261 44.6406 756.511 44.7443 756.696 44.9289C756.881 45.1136 756.984 45.3639 756.984 45.625V49.6719C756.984 49.8011 756.959 49.9292 756.909 50.0486C756.86 50.168 756.787 50.2765 756.696 50.3679C756.605 50.4593 756.496 50.5319 756.377 50.5813C756.257 50.6308 756.129 50.6563 756 50.6563C755.871 50.6563 755.743 50.6308 755.623 50.5813C755.504 50.5319 755.395 50.4593 755.304 50.3679C755.213 50.2765 755.14 50.168 755.091 50.0486C755.041 49.9292 755.016 49.8011 755.016 49.6719V45.625ZM756 52.0781C756.348 52.0781 756.682 52.2164 756.928 52.4625C757.174 52.7087 757.312 53.0425 757.312 53.3906C757.312 53.7387 757.174 54.0726 756.928 54.3187C756.682 54.5648 756.348 54.7031 756 54.7031C755.652 54.7031 755.318 54.5648 755.072 54.3187C754.826 54.0726 754.687 53.7387 754.687 53.3906C754.687 53.0425 754.826 52.7087 755.072 52.4625C755.318 52.2164 755.652 52.0781 756 52.0781Z" fill="#F38D00"/>
</g>
<path fill-rule="evenodd" clip-rule="evenodd" d="M808.713 47.2376C809.268 47.5066 809.7 47.9525 809.975 48.2824C810.041 48.3625 810.13 48.4678 810.233 48.5918C810.888 49.3741 812.167 50.9045 812.699 51.6125C813.211 52.2955 813.135 53.0353 812.848 53.6272C812.582 54.1776 812.114 54.6578 811.692 55.0269C811.272 55.3944 811.068 55.5942 810.964 55.765C810.902 55.8668 810.871 55.9582 810.926 56.1806C810.994 56.454 811.237 56.968 811.673 57.6215C812.096 58.2566 812.665 58.9681 813.329 59.6322C813.993 60.2967 814.704 60.8646 815.324 61.2742C815.634 61.4789 815.914 61.6388 816.146 61.7504C816.391 61.8676 816.541 61.911 816.605 61.92C816.63 61.9237 816.655 61.9286 816.68 61.9349C816.903 61.9905 816.994 61.9588 817.096 61.8969C817.267 61.7929 817.467 61.5886 817.834 61.1686C818.203 60.7467 818.683 60.2795 819.234 60.0126C819.821 59.7282 820.552 59.6516 821.23 60.1491C822.179 60.7851 823.997 62.3022 824.687 62.8931C825.07 63.2214 825.518 63.6839 825.772 64.2598C826.044 64.8768 826.083 65.6121 825.642 66.3484C825.581 66.4491 825.516 66.5671 825.444 66.6977C824.886 67.7122 823.909 69.4864 821.404 69.8051C818.575 70.2523 814.25 69.0764 809.063 63.7877C803.871 58.4936 802.716 54.1781 803.054 51.4695C803.362 49.0083 805.173 48.0728 806.193 47.5457C806.356 47.4613 806.499 47.3874 806.613 47.3194C807.371 46.8642 808.12 46.9502 808.713 47.2376ZM808.059 48.5874C807.827 48.4749 807.626 48.4608 807.384 48.6056C807.187 48.7241 806.983 48.834 806.778 48.9439C805.763 49.4896 804.745 50.0368 804.543 51.6555C804.281 53.747 805.126 57.6315 810.134 62.7373C815.139 67.8406 819.01 68.6692 821.18 68.3219C821.188 68.3206 821.197 68.3194 821.205 68.3183C822.921 68.1039 823.532 67.0231 824.106 66.0093C824.189 65.8627 824.271 65.7176 824.355 65.5766C824.514 65.3129 824.503 65.0982 824.4 64.8652C824.279 64.5911 824.027 64.3036 823.71 64.0319C823.004 63.4261 821.238 61.957 820.382 61.3865C820.371 61.3788 820.36 61.3708 820.349 61.3625C820.232 61.2748 820.121 61.2494 819.888 61.3624C819.614 61.4955 819.294 61.7783 818.963 62.1564C818.63 62.5364 818.28 62.9321 817.876 63.1782C817.412 63.4603 816.915 63.5316 816.352 63.3987C816.076 63.3528 815.78 63.2383 815.498 63.1028C815.19 62.955 814.85 62.7586 814.498 62.5258C813.793 62.0604 813.004 61.4283 812.268 60.6928C811.532 59.9569 810.901 59.1684 810.424 58.4535C809.96 57.757 809.603 57.071 809.471 56.5444C809.326 55.9668 809.395 55.4582 809.683 54.985C809.929 54.5809 810.325 54.2306 810.705 53.8981C811.083 53.5672 811.366 53.2474 811.499 52.9728C811.612 52.7397 811.586 52.6295 811.499 52.5125C810.995 51.8414 809.755 50.3581 809.093 49.5664C808.986 49.4382 808.894 49.3282 808.822 49.2426C808.597 48.9725 808.329 48.7184 808.059 48.5874Z" fill="black"/>
<circle cx="822" cy="50" r="10" fill="white"/>
<path d="M822 58.75C826.831 58.75 830.75 54.8313 830.75 50C830.75 45.1688 826.831 41.25 822 41.25C817.169 41.25 813.25 45.1688 813.25 50C813.25 54.8313 817.169 58.75 822 58.75ZM825.8 44.0375C826.688 44.5875 827.431 45.3375 827.981 46.2188L822.663 51.5375L820.475 49.3562L825.8 44.0375ZM819.325 50.5563L821.469 52.7C820.969 52.9187 818.125 53.9 818.125 53.9C818.125 53.9 819.094 51.075 819.325 50.5625V50.5563Z" fill="#1B77AF"/>
<defs>
<clipPath id="clip0_10188_2150">
<rect width="34" height="34" fill="white" transform="translate(72 40)"/>
</clipPath>
<clipPath id="clip1_10188_2150">
<rect width="34" height="34" fill="white" transform="translate(138 40)"/>
</clipPath>
<clipPath id="clip2_10188_2150">
<rect width="34" height="34" fill="white" transform="translate(204 40)"/>
</clipPath>
<clipPath id="clip3_10188_2150">
<rect width="34" height="34" fill="white" transform="translate(270 40)"/>
</clipPath>
<clipPath id="clip4_10188_2150">
<rect width="34" height="34" fill="white" transform="translate(336 40)"/>
</clipPath>
<clipPath id="clip5_10188_2150">
<rect width="34" height="34" fill="white" transform="translate(402 40)"/>
</clipPath>
<clipPath id="clip6_10188_2150">
<rect width="34" height="34" fill="white" transform="translate(468 40)"/>
</clipPath>
<clipPath id="clip7_10188_2150">
<rect width="34" height="34" fill="white" transform="translate(534 40)"/>
</clipPath>
<clipPath id="clip8_10188_2150">
<rect width="34" height="34" fill="white" transform="translate(600 40)"/>
</clipPath>
<clipPath id="clip9_10188_2150">
<rect width="34" height="34" fill="white" transform="translate(666 40)"/>
</clipPath>
<clipPath id="clip10_10188_2150">
<rect width="34" height="34" fill="white" transform="translate(732 40)"/>
</clipPath>
</defs>
</svg>
