<svg width="400" height="267" viewBox="0 0 400 267" fill="none" xmlns="http://www.w3.org/2000/svg">
<rect width="237" height="44" transform="translate(0 91)" fill="white"/>
<path d="M22.986 118H17.302V108.004H22.986V109.502H19.094V112.05H22.734V113.548H19.094V116.488H22.986V118ZM33.6346 110.272C34.4933 110.272 35.1373 110.491 35.5666 110.93C36.0053 111.369 36.2246 112.078 36.2246 113.058V118H34.4606V113.394C34.4606 112.265 34.0313 111.7 33.1726 111.7C32.5566 111.7 32.118 111.901 31.8566 112.302C31.5953 112.703 31.4646 113.287 31.4646 114.052V118H29.7006V113.394C29.7006 112.265 29.2666 111.7 28.3986 111.7C27.7546 111.7 27.3113 111.924 27.0686 112.372C26.826 112.82 26.7046 113.459 26.7046 114.29V118H24.9406V110.412H26.2986L26.5506 111.406H26.6486C26.882 111.014 27.1993 110.729 27.6006 110.552C28.002 110.365 28.422 110.272 28.8606 110.272C29.43 110.272 29.906 110.365 30.2886 110.552C30.6806 110.739 30.9793 111.037 31.1846 111.448H31.3246C31.558 111.037 31.8846 110.739 32.3046 110.552C32.7246 110.365 33.168 110.272 33.6346 110.272ZM41.4588 110.272C42.4388 110.272 43.1808 110.487 43.6848 110.916C44.1981 111.345 44.4548 112.008 44.4548 112.904V118H43.2088L42.8588 116.95H42.8028C42.4761 117.361 42.1308 117.664 41.7668 117.86C41.4028 118.047 40.9081 118.14 40.2828 118.14C39.6014 118.14 39.0368 117.949 38.5888 117.566C38.1408 117.183 37.9168 116.591 37.9168 115.788C37.9168 115.004 38.2014 114.416 38.7708 114.024C39.3494 113.632 40.2221 113.413 41.3888 113.366L42.7048 113.324V112.946C42.7048 112.461 42.5881 112.115 42.3548 111.91C42.1214 111.705 41.7948 111.602 41.3748 111.602C40.9921 111.602 40.6234 111.658 40.2688 111.77C39.9234 111.873 39.5781 112.003 39.2328 112.162L38.6728 110.93C39.0461 110.734 39.4708 110.575 39.9468 110.454C40.4321 110.333 40.9361 110.272 41.4588 110.272ZM42.7048 114.416L41.7808 114.444C41.0061 114.472 40.4694 114.607 40.1708 114.85C39.8721 115.083 39.7228 115.401 39.7228 115.802C39.7228 116.166 39.8254 116.427 40.0308 116.586C40.2454 116.735 40.5254 116.81 40.8708 116.81C41.3841 116.81 41.8181 116.665 42.1728 116.376C42.5274 116.077 42.7048 115.639 42.7048 115.06V114.416ZM47.5473 107.486C47.8086 107.486 48.0373 107.556 48.2333 107.696C48.4293 107.827 48.5273 108.065 48.5273 108.41C48.5273 108.755 48.4293 108.998 48.2333 109.138C48.0373 109.278 47.8086 109.348 47.5473 109.348C47.2766 109.348 47.0433 109.278 46.8473 109.138C46.6606 108.998 46.5673 108.755 46.5673 108.41C46.5673 108.065 46.6606 107.827 46.8473 107.696C47.0433 107.556 47.2766 107.486 47.5473 107.486ZM48.4293 110.412V118H46.6653V110.412H48.4293ZM52.4488 118H50.6848V107.36H52.4488V118Z" fill="black"/>
<path d="M70.0125 116.363C69.9125 116.363 69.8125 116.313 69.7625 116.263L64.1125 110.663C63.9625 110.513 63.9625 110.263 64.1125 110.113C64.2625 109.962 64.5125 109.962 64.6625 110.113L70.0125 115.463L75.3125 110.113C75.4625 109.962 75.7125 109.962 75.8625 110.113C76.0125 110.263 76.0125 110.513 75.8625 110.663L70.2625 116.263C70.1625 116.313 70.1125 116.363 70.0125 116.363Z" fill="#323232"/>
<line x1="4.37114e-08" y1="91.5" x2="237" y2="91.5" stroke="#C9C9C9"/>
<line x1="4.37114e-08" y1="134.5" x2="237" y2="134.5" stroke="#C9C9C9"/>
<rect width="237" height="44" transform="translate(0 135)" fill="white"/>
<path d="M17.092 152.466C17.092 152.195 17.162 151.999 17.302 151.878C17.442 151.747 17.6147 151.682 17.82 151.682C18.0067 151.682 18.17 151.747 18.31 151.878C18.4593 151.999 18.534 152.195 18.534 152.466C18.534 152.737 18.4593 152.937 18.31 153.068C18.17 153.189 18.0067 153.25 17.82 153.25C17.6147 153.25 17.442 153.189 17.302 153.068C17.162 152.937 17.092 152.737 17.092 152.466ZM16.308 165.36C16.0653 165.36 15.8553 165.341 15.678 165.304C15.5007 165.276 15.3513 165.239 15.23 165.192V164.198C15.37 164.245 15.5147 164.277 15.664 164.296C15.8133 164.324 15.9767 164.338 16.154 164.338C16.4527 164.338 16.7 164.254 16.896 164.086C17.092 163.927 17.19 163.619 17.19 163.162V154.496H18.422V163.12C18.422 163.82 18.254 164.366 17.918 164.758C17.582 165.159 17.0453 165.36 16.308 165.36ZM23.6414 154.37C24.556 154.37 25.2327 154.571 25.6714 154.972C26.11 155.373 26.3294 156.013 26.3294 156.89V162H25.4334L25.1954 160.936H25.1394C24.8127 161.347 24.4674 161.65 24.1034 161.846C23.7394 162.042 23.2447 162.14 22.6194 162.14C21.938 162.14 21.3734 161.963 20.9254 161.608C20.4774 161.244 20.2534 160.679 20.2534 159.914C20.2534 159.167 20.5474 158.593 21.1354 158.192C21.7234 157.781 22.6287 157.557 23.8514 157.52L25.1254 157.478V157.03C25.1254 156.405 24.99 155.971 24.7194 155.728C24.4487 155.485 24.066 155.364 23.5714 155.364C23.1794 155.364 22.806 155.425 22.4514 155.546C22.0967 155.658 21.7654 155.789 21.4574 155.938L21.0794 155.014C21.406 154.837 21.7934 154.687 22.2414 154.566C22.6894 154.435 23.156 154.37 23.6414 154.37ZM25.1114 158.332L24.0054 158.374C23.072 158.411 22.4234 158.561 22.0594 158.822C21.7047 159.083 21.5274 159.452 21.5274 159.928C21.5274 160.348 21.6534 160.656 21.9054 160.852C22.1667 161.048 22.498 161.146 22.8994 161.146C23.5247 161.146 24.0474 160.973 24.4674 160.628C24.8967 160.273 25.1114 159.732 25.1114 159.004V158.332ZM36.879 154.356C37.7284 154.356 38.363 154.575 38.783 155.014C39.203 155.453 39.413 156.153 39.413 157.114V162H38.195V157.17C38.195 155.985 37.6864 155.392 36.669 155.392C35.941 155.392 35.4184 155.602 35.101 156.022C34.793 156.442 34.639 157.053 34.639 157.856V162H33.421V157.17C33.421 155.985 32.9077 155.392 31.881 155.392C31.125 155.392 30.6024 155.625 30.313 156.092C30.0237 156.559 29.879 157.231 29.879 158.108V162H28.647V154.496H29.641L29.823 155.518H29.893C30.1264 155.126 30.439 154.837 30.831 154.65C31.2324 154.454 31.657 154.356 32.105 154.356C33.281 154.356 34.0464 154.776 34.401 155.616H34.471C34.723 155.187 35.0637 154.869 35.493 154.664C35.9224 154.459 36.3844 154.356 36.879 154.356ZM44.629 154.356C45.2637 154.356 45.8143 154.496 46.281 154.776C46.7477 155.056 47.1023 155.453 47.345 155.966C47.597 156.47 47.723 157.063 47.723 157.744V158.486H42.585C42.6037 159.335 42.8183 159.984 43.229 160.432C43.649 160.871 44.2323 161.09 44.979 161.09C45.455 161.09 45.875 161.048 46.239 160.964C46.6123 160.871 46.995 160.74 47.387 160.572V161.65C47.0043 161.818 46.6263 161.939 46.253 162.014C45.8797 162.098 45.4363 162.14 44.923 162.14C44.2043 162.14 43.5743 161.995 43.033 161.706C42.4917 161.417 42.067 160.987 41.759 160.418C41.4603 159.849 41.311 159.144 41.311 158.304C41.311 157.483 41.4463 156.778 41.717 156.19C41.997 155.602 42.3843 155.149 42.879 154.832C43.383 154.515 43.9663 154.356 44.629 154.356ZM44.615 155.364C44.027 155.364 43.5603 155.555 43.215 155.938C42.879 156.311 42.6783 156.834 42.613 157.506H46.435C46.4257 156.871 46.2763 156.358 45.987 155.966C45.6977 155.565 45.2403 155.364 44.615 155.364ZM54.5194 159.928C54.5194 160.656 54.2487 161.207 53.7074 161.58C53.166 161.953 52.438 162.14 51.5234 162.14C51.0007 162.14 50.548 162.098 50.1654 162.014C49.792 161.93 49.4607 161.813 49.1714 161.664V160.544C49.47 160.693 49.8294 160.833 50.2494 160.964C50.6787 161.085 51.1127 161.146 51.5514 161.146C52.1767 161.146 52.6294 161.048 52.9094 160.852C53.1894 160.647 53.3294 160.376 53.3294 160.04C53.3294 159.853 53.278 159.685 53.1754 159.536C53.0727 159.387 52.886 159.237 52.6154 159.088C52.354 158.939 51.976 158.771 51.4814 158.584C50.996 158.397 50.5807 158.211 50.2354 158.024C49.89 157.837 49.624 157.613 49.4374 157.352C49.2507 157.091 49.1574 156.755 49.1574 156.344C49.1574 155.709 49.414 155.219 49.9274 154.874C50.45 154.529 51.1314 154.356 51.9714 154.356C52.4287 154.356 52.8534 154.403 53.2454 154.496C53.6467 154.589 54.02 154.711 54.3654 154.86L53.9454 155.84C53.628 155.709 53.2967 155.597 52.9514 155.504C52.606 155.411 52.2514 155.364 51.8874 155.364C51.3834 155.364 50.996 155.448 50.7254 155.616C50.464 155.775 50.3334 155.994 50.3334 156.274C50.3334 156.489 50.394 156.666 50.5154 156.806C50.6367 156.946 50.8374 157.086 51.1174 157.226C51.4067 157.366 51.7894 157.525 52.2654 157.702C52.7414 157.879 53.1474 158.061 53.4834 158.248C53.8194 158.435 54.076 158.663 54.2534 158.934C54.4307 159.195 54.5194 159.527 54.5194 159.928ZM66.9166 157.002C66.9166 157.431 66.8652 157.851 66.7626 158.262C66.6692 158.673 66.5199 159.046 66.3146 159.382C66.1092 159.709 65.8572 159.975 65.5586 160.18C65.2599 160.376 64.9052 160.474 64.4946 160.474C64.0652 160.474 63.7246 160.353 63.4726 160.11C63.2299 159.858 63.0806 159.573 63.0246 159.256H62.9546C62.7866 159.601 62.5392 159.891 62.2126 160.124C61.8859 160.357 61.4752 160.474 60.9806 160.474C60.2619 160.474 59.7112 160.236 59.3286 159.76C58.9459 159.284 58.7546 158.654 58.7546 157.87C58.7546 157.263 58.8759 156.722 59.1186 156.246C59.3612 155.77 59.7019 155.397 60.1406 155.126C60.5886 154.855 61.1159 154.72 61.7226 154.72C62.1332 154.72 62.5346 154.757 62.9266 154.832C63.3279 154.897 63.6406 154.972 63.8646 155.056L63.7246 157.898C63.7152 158.066 63.7106 158.187 63.7106 158.262C63.7106 158.327 63.7106 158.374 63.7106 158.402C63.7106 158.897 63.7946 159.223 63.9626 159.382C64.1399 159.531 64.3452 159.606 64.5786 159.606C64.8679 159.606 65.1106 159.489 65.3066 159.256C65.5119 159.013 65.6659 158.696 65.7686 158.304C65.8806 157.912 65.9366 157.473 65.9366 156.988C65.9366 156.129 65.7592 155.397 65.4046 154.79C65.0592 154.183 64.5786 153.721 63.9626 153.404C63.3559 153.087 62.6652 152.928 61.8906 152.928C60.8266 152.928 59.9259 153.147 59.1886 153.586C58.4606 154.025 57.9052 154.631 57.5226 155.406C57.1492 156.171 56.9626 157.049 56.9626 158.038C56.9626 159.419 57.3266 160.479 58.0546 161.216C58.7826 161.953 59.8326 162.322 61.2046 162.322C61.7739 162.322 62.3152 162.257 62.8286 162.126C63.3512 162.005 63.8132 161.869 64.2146 161.72V162.672C63.8132 162.84 63.3606 162.975 62.8566 163.078C62.3619 163.19 61.8112 163.246 61.2046 163.246C60.1032 163.246 59.1606 163.041 58.3766 162.63C57.5926 162.219 56.9906 161.631 56.5706 160.866C56.1599 160.091 55.9546 159.163 55.9546 158.08C55.9546 157.212 56.0899 156.409 56.3606 155.672C56.6312 154.925 57.0232 154.281 57.5366 153.74C58.0499 153.189 58.6706 152.765 59.3986 152.466C60.1359 152.158 60.9666 152.004 61.8906 152.004C62.8612 152.004 63.7246 152.205 64.4806 152.606C65.2366 153.007 65.8292 153.581 66.2586 154.328C66.6972 155.075 66.9166 155.966 66.9166 157.002ZM59.8466 157.898C59.8466 158.505 59.9632 158.943 60.1966 159.214C60.4299 159.475 60.7519 159.606 61.1626 159.606C61.6852 159.606 62.0586 159.41 62.2826 159.018C62.5159 158.626 62.6512 158.117 62.6886 157.492L62.7726 155.742C62.6512 155.705 62.4972 155.672 62.3106 155.644C62.1239 155.616 61.9326 155.602 61.7366 155.602C61.2792 155.602 60.9106 155.714 60.6306 155.938C60.3506 156.162 60.1499 156.451 60.0286 156.806C59.9072 157.151 59.8466 157.515 59.8466 157.898ZM71.8224 154.356C72.457 154.356 73.0077 154.496 73.4744 154.776C73.941 155.056 74.2957 155.453 74.5384 155.966C74.7904 156.47 74.9164 157.063 74.9164 157.744V158.486H69.7784C69.797 159.335 70.0117 159.984 70.4224 160.432C70.8424 160.871 71.4257 161.09 72.1724 161.09C72.6484 161.09 73.0684 161.048 73.4324 160.964C73.8057 160.871 74.1884 160.74 74.5804 160.572V161.65C74.1977 161.818 73.8197 161.939 73.4464 162.014C73.073 162.098 72.6297 162.14 72.1164 162.14C71.3977 162.14 70.7677 161.995 70.2264 161.706C69.685 161.417 69.2604 160.987 68.9524 160.418C68.6537 159.849 68.5044 159.144 68.5044 158.304C68.5044 157.483 68.6397 156.778 68.9104 156.19C69.1904 155.602 69.5777 155.149 70.0724 154.832C70.5764 154.515 71.1597 154.356 71.8224 154.356ZM71.8084 155.364C71.2204 155.364 70.7537 155.555 70.4084 155.938C70.0724 156.311 69.8717 156.834 69.8064 157.506H73.6284C73.619 156.871 73.4697 156.358 73.1804 155.966C72.891 155.565 72.4337 155.364 71.8084 155.364ZM85.0587 154.356C85.9081 154.356 86.5427 154.575 86.9627 155.014C87.3827 155.453 87.5927 156.153 87.5927 157.114V162H86.3747V157.17C86.3747 155.985 85.8661 155.392 84.8487 155.392C84.1207 155.392 83.5981 155.602 83.2807 156.022C82.9727 156.442 82.8187 157.053 82.8187 157.856V162H81.6007V157.17C81.6007 155.985 81.0874 155.392 80.0607 155.392C79.3047 155.392 78.7821 155.625 78.4927 156.092C78.2034 156.559 78.0587 157.231 78.0587 158.108V162H76.8267V154.496H77.8207L78.0027 155.518H78.0727C78.3061 155.126 78.6187 154.837 79.0107 154.65C79.4121 154.454 79.8367 154.356 80.2847 154.356C81.4607 154.356 82.2261 154.776 82.5807 155.616H82.6507C82.9027 155.187 83.2434 154.869 83.6727 154.664C84.1021 154.459 84.5641 154.356 85.0587 154.356ZM92.7527 154.37C93.6674 154.37 94.344 154.571 94.7827 154.972C95.2214 155.373 95.4407 156.013 95.4407 156.89V162H94.5447L94.3067 160.936H94.2507C93.924 161.347 93.5787 161.65 93.2147 161.846C92.8507 162.042 92.356 162.14 91.7307 162.14C91.0494 162.14 90.4847 161.963 90.0367 161.608C89.5887 161.244 89.3647 160.679 89.3647 159.914C89.3647 159.167 89.6587 158.593 90.2467 158.192C90.8347 157.781 91.74 157.557 92.9627 157.52L94.2367 157.478V157.03C94.2367 156.405 94.1014 155.971 93.8307 155.728C93.56 155.485 93.1774 155.364 92.6827 155.364C92.2907 155.364 91.9174 155.425 91.5627 155.546C91.208 155.658 90.8767 155.789 90.5687 155.938L90.1907 155.014C90.5174 154.837 90.9047 154.687 91.3527 154.566C91.8007 154.435 92.2674 154.37 92.7527 154.37ZM94.2227 158.332L93.1167 158.374C92.1834 158.411 91.5347 158.561 91.1707 158.822C90.816 159.083 90.6387 159.452 90.6387 159.928C90.6387 160.348 90.7647 160.656 91.0167 160.852C91.278 161.048 91.6094 161.146 92.0107 161.146C92.636 161.146 93.1587 160.973 93.5787 160.628C94.008 160.273 94.2227 159.732 94.2227 159.004V158.332ZM98.3884 151.682C98.575 151.682 98.7384 151.747 98.8784 151.878C99.0277 151.999 99.1024 152.195 99.1024 152.466C99.1024 152.737 99.0277 152.937 98.8784 153.068C98.7384 153.189 98.575 153.25 98.3884 153.25C98.183 153.25 98.0104 153.189 97.8704 153.068C97.7304 152.937 97.6604 152.737 97.6604 152.466C97.6604 152.195 97.7304 151.999 97.8704 151.878C98.0104 151.747 98.183 151.682 98.3884 151.682ZM98.9904 154.496V162H97.7584V154.496H98.9904ZM102.6 162H101.368V151.36H102.6V162ZM104.795 161.244C104.795 160.899 104.879 160.656 105.047 160.516C105.215 160.376 105.416 160.306 105.649 160.306C105.882 160.306 106.088 160.376 106.265 160.516C106.442 160.656 106.531 160.899 106.531 161.244C106.531 161.58 106.442 161.823 106.265 161.972C106.088 162.121 105.882 162.196 105.649 162.196C105.416 162.196 105.215 162.121 105.047 161.972C104.879 161.823 104.795 161.58 104.795 161.244ZM111.733 162.14C111.061 162.14 110.469 162.005 109.955 161.734C109.442 161.463 109.036 161.043 108.737 160.474C108.448 159.905 108.303 159.177 108.303 158.29C108.303 157.366 108.453 156.615 108.751 156.036C109.059 155.457 109.479 155.033 110.011 154.762C110.543 154.491 111.145 154.356 111.817 154.356C112.191 154.356 112.555 154.398 112.909 154.482C113.273 154.557 113.567 154.65 113.791 154.762L113.413 155.784C113.189 155.7 112.928 155.621 112.629 155.546C112.331 155.471 112.051 155.434 111.789 155.434C110.315 155.434 109.577 156.381 109.577 158.276C109.577 159.181 109.755 159.877 110.109 160.362C110.473 160.838 111.01 161.076 111.719 161.076C112.121 161.076 112.48 161.034 112.797 160.95C113.115 160.866 113.404 160.763 113.665 160.642V161.734C113.413 161.865 113.133 161.963 112.825 162.028C112.527 162.103 112.163 162.14 111.733 162.14ZM121.974 158.234C121.974 159.475 121.656 160.437 121.022 161.118C120.396 161.799 119.547 162.14 118.474 162.14C117.811 162.14 117.218 161.991 116.696 161.692C116.182 161.384 115.776 160.941 115.478 160.362C115.179 159.774 115.03 159.065 115.03 158.234C115.03 156.993 115.338 156.036 115.954 155.364C116.579 154.692 117.433 154.356 118.516 154.356C119.188 154.356 119.785 154.51 120.308 154.818C120.83 155.117 121.236 155.555 121.526 156.134C121.824 156.703 121.974 157.403 121.974 158.234ZM116.304 158.234C116.304 159.121 116.476 159.825 116.822 160.348C117.176 160.861 117.736 161.118 118.502 161.118C119.258 161.118 119.813 160.861 120.168 160.348C120.522 159.825 120.7 159.121 120.7 158.234C120.7 157.347 120.522 156.652 120.168 156.148C119.813 155.644 119.253 155.392 118.488 155.392C117.722 155.392 117.167 155.644 116.822 156.148C116.476 156.652 116.304 157.347 116.304 158.234ZM132.158 154.356C133.008 154.356 133.642 154.575 134.062 155.014C134.482 155.453 134.692 156.153 134.692 157.114V162H133.474V157.17C133.474 155.985 132.966 155.392 131.948 155.392C131.22 155.392 130.698 155.602 130.38 156.022C130.072 156.442 129.918 157.053 129.918 157.856V162H128.7V157.17C128.7 155.985 128.187 155.392 127.16 155.392C126.404 155.392 125.882 155.625 125.592 156.092C125.303 156.559 125.158 157.231 125.158 158.108V162H123.926V154.496H124.92L125.102 155.518H125.172C125.406 155.126 125.718 154.837 126.11 154.65C126.512 154.454 126.936 154.356 127.384 154.356C128.56 154.356 129.326 154.776 129.68 155.616H129.75C130.002 155.187 130.343 154.869 130.772 154.664C131.202 154.459 131.664 154.356 132.158 154.356Z" fill="black"/>
<line x1="4.37114e-08" y1="178.5" x2="237" y2="178.5" stroke="#F1F1F1"/>
<rect width="237" height="44" transform="translate(0 179)" fill="white"/>
<path d="M20.69 198.356C20.83 198.356 20.9793 198.365 21.138 198.384C21.2967 198.393 21.4413 198.412 21.572 198.44L21.418 199.574C21.2967 199.546 21.1613 199.523 21.012 199.504C20.8627 199.485 20.7273 199.476 20.606 199.476C20.2233 199.476 19.864 199.583 19.528 199.798C19.192 200.003 18.9213 200.297 18.716 200.68C18.52 201.053 18.422 201.492 18.422 201.996V206H17.19V198.496H18.198L18.338 199.868H18.394C18.6273 199.457 18.9353 199.103 19.318 198.804C19.71 198.505 20.1673 198.356 20.69 198.356ZM29.2238 202.234C29.2238 203.475 28.9064 204.437 28.2718 205.118C27.6464 205.799 26.7971 206.14 25.7238 206.14C25.0611 206.14 24.4684 205.991 23.9458 205.692C23.4324 205.384 23.0264 204.941 22.7278 204.362C22.4291 203.774 22.2798 203.065 22.2798 202.234C22.2798 200.993 22.5878 200.036 23.2038 199.364C23.8291 198.692 24.6831 198.356 25.7658 198.356C26.4378 198.356 27.0351 198.51 27.5578 198.818C28.0804 199.117 28.4864 199.555 28.7758 200.134C29.0744 200.703 29.2238 201.403 29.2238 202.234ZM23.5538 202.234C23.5538 203.121 23.7264 203.825 24.0718 204.348C24.4264 204.861 24.9864 205.118 25.7518 205.118C26.5078 205.118 27.0631 204.861 27.4178 204.348C27.7724 203.825 27.9498 203.121 27.9498 202.234C27.9498 201.347 27.7724 200.652 27.4178 200.148C27.0631 199.644 26.5031 199.392 25.7378 199.392C24.9724 199.392 24.4171 199.644 24.0718 200.148C23.7264 200.652 23.5538 201.347 23.5538 202.234ZM32.4083 195.36V197.95C32.4083 198.267 32.399 198.566 32.3803 198.846C32.371 199.117 32.357 199.331 32.3383 199.49H32.4083C32.623 199.173 32.917 198.907 33.2903 198.692C33.6637 198.477 34.1443 198.37 34.7323 198.37C35.6657 198.37 36.4123 198.697 36.9723 199.35C37.5417 199.994 37.8263 200.96 37.8263 202.248C37.8263 203.536 37.5417 204.507 36.9723 205.16C36.403 205.813 35.6563 206.14 34.7323 206.14C34.1443 206.14 33.6637 206.033 33.2903 205.818C32.917 205.603 32.623 205.347 32.4083 205.048H32.3103L32.0583 206H31.1763V195.36H32.4083ZM34.5223 199.392C33.7197 199.392 33.1643 199.621 32.8563 200.078C32.5577 200.535 32.4083 201.245 32.4083 202.206V202.262C32.4083 203.186 32.5577 203.895 32.8563 204.39C33.1643 204.875 33.729 205.118 34.5503 205.118C35.2223 205.118 35.7217 204.871 36.0483 204.376C36.3843 203.881 36.5523 203.167 36.5523 202.234C36.5523 200.339 35.8757 199.392 34.5223 199.392ZM42.6876 198.356C43.3223 198.356 43.8729 198.496 44.3396 198.776C44.8063 199.056 45.1609 199.453 45.4036 199.966C45.6556 200.47 45.7816 201.063 45.7816 201.744V202.486H40.6436C40.6623 203.335 40.8769 203.984 41.2876 204.432C41.7076 204.871 42.2909 205.09 43.0376 205.09C43.5136 205.09 43.9336 205.048 44.2976 204.964C44.6709 204.871 45.0536 204.74 45.4456 204.572V205.65C45.0629 205.818 44.6849 205.939 44.3116 206.014C43.9383 206.098 43.4949 206.14 42.9816 206.14C42.2629 206.14 41.6329 205.995 41.0916 205.706C40.5503 205.417 40.1256 204.987 39.8176 204.418C39.5189 203.849 39.3696 203.144 39.3696 202.304C39.3696 201.483 39.5049 200.778 39.7756 200.19C40.0556 199.602 40.4429 199.149 40.9376 198.832C41.4416 198.515 42.0249 198.356 42.6876 198.356ZM42.6736 199.364C42.0856 199.364 41.6189 199.555 41.2736 199.938C40.9376 200.311 40.7369 200.834 40.6716 201.506H44.4936C44.4843 200.871 44.3349 200.358 44.0456 199.966C43.7563 199.565 43.2989 199.364 42.6736 199.364ZM51.192 198.356C51.332 198.356 51.4813 198.365 51.64 198.384C51.7986 198.393 51.9433 198.412 52.074 198.44L51.92 199.574C51.7986 199.546 51.6633 199.523 51.514 199.504C51.3646 199.485 51.2293 199.476 51.108 199.476C50.7253 199.476 50.366 199.583 50.03 199.798C49.694 200.003 49.4233 200.297 49.218 200.68C49.022 201.053 48.924 201.492 48.924 201.996V206H47.692V198.496H48.7L48.84 199.868H48.896C49.1293 199.457 49.4373 199.103 49.82 198.804C50.212 198.505 50.6693 198.356 51.192 198.356ZM55.9812 205.132C56.1678 205.132 56.3592 205.118 56.5552 205.09C56.7512 205.062 56.9098 205.025 57.0312 204.978V205.916C56.9005 205.981 56.7138 206.033 56.4712 206.07C56.2285 206.117 55.9952 206.14 55.7712 206.14C55.3792 206.14 55.0152 206.075 54.6792 205.944C54.3525 205.804 54.0865 205.566 53.8812 205.23C53.6758 204.894 53.5732 204.423 53.5732 203.816V199.448H52.5092V198.86L53.5872 198.37L54.0772 196.774H54.8052V198.496H56.9752V199.448H54.8052V203.788C54.8052 204.245 54.9125 204.586 55.1272 204.81C55.3512 205.025 55.6358 205.132 55.9812 205.132ZM69.1178 201.002C69.1178 201.431 69.0664 201.851 68.9638 202.262C68.8704 202.673 68.7211 203.046 68.5158 203.382C68.3104 203.709 68.0584 203.975 67.7598 204.18C67.4611 204.376 67.1064 204.474 66.6958 204.474C66.2664 204.474 65.9258 204.353 65.6738 204.11C65.4311 203.858 65.2818 203.573 65.2258 203.256H65.1558C64.9878 203.601 64.7404 203.891 64.4137 204.124C64.0871 204.357 63.6764 204.474 63.1818 204.474C62.4631 204.474 61.9124 204.236 61.5298 203.76C61.1471 203.284 60.9558 202.654 60.9558 201.87C60.9558 201.263 61.0771 200.722 61.3198 200.246C61.5624 199.77 61.9031 199.397 62.3418 199.126C62.7898 198.855 63.3171 198.72 63.9238 198.72C64.3344 198.72 64.7358 198.757 65.1278 198.832C65.5291 198.897 65.8418 198.972 66.0658 199.056L65.9258 201.898C65.9164 202.066 65.9118 202.187 65.9118 202.262C65.9118 202.327 65.9118 202.374 65.9118 202.402C65.9118 202.897 65.9958 203.223 66.1638 203.382C66.3411 203.531 66.5464 203.606 66.7798 203.606C67.0691 203.606 67.3118 203.489 67.5078 203.256C67.7131 203.013 67.8671 202.696 67.9698 202.304C68.0818 201.912 68.1378 201.473 68.1378 200.988C68.1378 200.129 67.9604 199.397 67.6058 198.79C67.2604 198.183 66.7798 197.721 66.1638 197.404C65.5571 197.087 64.8664 196.928 64.0918 196.928C63.0278 196.928 62.1271 197.147 61.3898 197.586C60.6618 198.025 60.1064 198.631 59.7238 199.406C59.3504 200.171 59.1638 201.049 59.1638 202.038C59.1638 203.419 59.5278 204.479 60.2558 205.216C60.9838 205.953 62.0338 206.322 63.4058 206.322C63.9751 206.322 64.5164 206.257 65.0298 206.126C65.5524 206.005 66.0144 205.869 66.4158 205.72V206.672C66.0144 206.84 65.5618 206.975 65.0577 207.078C64.5631 207.19 64.0124 207.246 63.4058 207.246C62.3044 207.246 61.3618 207.041 60.5778 206.63C59.7938 206.219 59.1918 205.631 58.7718 204.866C58.3611 204.091 58.1558 203.163 58.1558 202.08C58.1558 201.212 58.2911 200.409 58.5618 199.672C58.8324 198.925 59.2244 198.281 59.7378 197.74C60.2511 197.189 60.8718 196.765 61.5998 196.466C62.3371 196.158 63.1678 196.004 64.0918 196.004C65.0624 196.004 65.9258 196.205 66.6818 196.606C67.4378 197.007 68.0304 197.581 68.4598 198.328C68.8984 199.075 69.1178 199.966 69.1178 201.002ZM62.0478 201.898C62.0478 202.505 62.1644 202.943 62.3978 203.214C62.6311 203.475 62.9531 203.606 63.3638 203.606C63.8864 203.606 64.2598 203.41 64.4838 203.018C64.7171 202.626 64.8524 202.117 64.8898 201.492L64.9738 199.742C64.8524 199.705 64.6984 199.672 64.5118 199.644C64.3251 199.616 64.1338 199.602 63.9378 199.602C63.4804 199.602 63.1118 199.714 62.8318 199.938C62.5518 200.162 62.3511 200.451 62.2298 200.806C62.1084 201.151 62.0478 201.515 62.0478 201.898ZM74.0235 198.356C74.6582 198.356 75.2089 198.496 75.6755 198.776C76.1422 199.056 76.4969 199.453 76.7395 199.966C76.9915 200.47 77.1175 201.063 77.1175 201.744V202.486H71.9795C71.9982 203.335 72.2129 203.984 72.6235 204.432C73.0435 204.871 73.6269 205.09 74.3735 205.09C74.8495 205.09 75.2695 205.048 75.6335 204.964C76.0069 204.871 76.3895 204.74 76.7815 204.572V205.65C76.3989 205.818 76.0209 205.939 75.6475 206.014C75.2742 206.098 74.8309 206.14 74.3175 206.14C73.5989 206.14 72.9689 205.995 72.4275 205.706C71.8862 205.417 71.4615 204.987 71.1535 204.418C70.8549 203.849 70.7055 203.144 70.7055 202.304C70.7055 201.483 70.8409 200.778 71.1115 200.19C71.3915 199.602 71.7789 199.149 72.2735 198.832C72.7775 198.515 73.3609 198.356 74.0235 198.356ZM74.0095 199.364C73.4215 199.364 72.9549 199.555 72.6095 199.938C72.2735 200.311 72.0729 200.834 72.0075 201.506H75.8295C75.8202 200.871 75.6709 200.358 75.3815 199.966C75.0922 199.565 74.6349 199.364 74.0095 199.364ZM87.2599 198.356C88.1092 198.356 88.7439 198.575 89.1639 199.014C89.5839 199.453 89.7939 200.153 89.7939 201.114V206H88.5759V201.17C88.5759 199.985 88.0672 199.392 87.0499 199.392C86.3219 199.392 85.7992 199.602 85.4819 200.022C85.1739 200.442 85.0199 201.053 85.0199 201.856V206H83.8019V201.17C83.8019 199.985 83.2886 199.392 82.2619 199.392C81.5059 199.392 80.9832 199.625 80.6939 200.092C80.4046 200.559 80.2599 201.231 80.2599 202.108V206H79.0279V198.496H80.0219L80.2039 199.518H80.2739C80.5072 199.126 80.8199 198.837 81.2119 198.65C81.6132 198.454 82.0379 198.356 82.4859 198.356C83.6619 198.356 84.4272 198.776 84.7819 199.616H84.8519C85.1039 199.187 85.4446 198.869 85.8739 198.664C86.3032 198.459 86.7652 198.356 87.2599 198.356ZM94.9539 198.37C95.8685 198.37 96.5452 198.571 96.9839 198.972C97.4225 199.373 97.6419 200.013 97.6419 200.89V206H96.7459L96.5079 204.936H96.4519C96.1252 205.347 95.7799 205.65 95.4159 205.846C95.0519 206.042 94.5572 206.14 93.9319 206.14C93.2505 206.14 92.6859 205.963 92.2379 205.608C91.7899 205.244 91.5659 204.679 91.5659 203.914C91.5659 203.167 91.8599 202.593 92.4479 202.192C93.0359 201.781 93.9412 201.557 95.1639 201.52L96.4379 201.478V201.03C96.4379 200.405 96.3025 199.971 96.0319 199.728C95.7612 199.485 95.3785 199.364 94.8839 199.364C94.4919 199.364 94.1185 199.425 93.7639 199.546C93.4092 199.658 93.0779 199.789 92.7699 199.938L92.3919 199.014C92.7185 198.837 93.1059 198.687 93.5539 198.566C94.0019 198.435 94.4685 198.37 94.9539 198.37ZM96.4239 202.332L95.3179 202.374C94.3845 202.411 93.7359 202.561 93.3719 202.822C93.0172 203.083 92.8399 203.452 92.8399 203.928C92.8399 204.348 92.9659 204.656 93.2179 204.852C93.4792 205.048 93.8105 205.146 94.2119 205.146C94.8372 205.146 95.3599 204.973 95.7799 204.628C96.2092 204.273 96.4239 203.732 96.4239 203.004V202.332ZM100.59 195.682C100.776 195.682 100.94 195.747 101.08 195.878C101.229 195.999 101.304 196.195 101.304 196.466C101.304 196.737 101.229 196.937 101.08 197.068C100.94 197.189 100.776 197.25 100.59 197.25C100.384 197.25 100.212 197.189 100.072 197.068C99.9315 196.937 99.8615 196.737 99.8615 196.466C99.8615 196.195 99.9315 195.999 100.072 195.878C100.212 195.747 100.384 195.682 100.59 195.682ZM101.192 198.496V206H99.9595V198.496H101.192ZM104.801 206H103.569V195.36H104.801V206ZM106.996 205.244C106.996 204.899 107.08 204.656 107.248 204.516C107.416 204.376 107.617 204.306 107.85 204.306C108.084 204.306 108.289 204.376 108.466 204.516C108.644 204.656 108.732 204.899 108.732 205.244C108.732 205.58 108.644 205.823 108.466 205.972C108.289 206.121 108.084 206.196 107.85 206.196C107.617 206.196 107.416 206.121 107.248 205.972C107.08 205.823 106.996 205.58 106.996 205.244ZM113.934 206.14C113.262 206.14 112.67 206.005 112.156 205.734C111.643 205.463 111.237 205.043 110.938 204.474C110.649 203.905 110.504 203.177 110.504 202.29C110.504 201.366 110.654 200.615 110.952 200.036C111.26 199.457 111.68 199.033 112.212 198.762C112.744 198.491 113.346 198.356 114.018 198.356C114.392 198.356 114.756 198.398 115.11 198.482C115.474 198.557 115.768 198.65 115.992 198.762L115.614 199.784C115.39 199.7 115.129 199.621 114.83 199.546C114.532 199.471 114.252 199.434 113.99 199.434C112.516 199.434 111.778 200.381 111.778 202.276C111.778 203.181 111.956 203.877 112.31 204.362C112.674 204.838 113.211 205.076 113.92 205.076C114.322 205.076 114.681 205.034 114.998 204.95C115.316 204.866 115.605 204.763 115.866 204.642V205.734C115.614 205.865 115.334 205.963 115.026 206.028C114.728 206.103 114.364 206.14 113.934 206.14ZM124.175 202.234C124.175 203.475 123.858 204.437 123.223 205.118C122.598 205.799 121.748 206.14 120.675 206.14C120.012 206.14 119.42 205.991 118.897 205.692C118.384 205.384 117.978 204.941 117.679 204.362C117.38 203.774 117.231 203.065 117.231 202.234C117.231 200.993 117.539 200.036 118.155 199.364C118.78 198.692 119.634 198.356 120.717 198.356C121.389 198.356 121.986 198.51 122.509 198.818C123.032 199.117 123.438 199.555 123.727 200.134C124.026 200.703 124.175 201.403 124.175 202.234ZM118.505 202.234C118.505 203.121 118.678 203.825 119.023 204.348C119.378 204.861 119.938 205.118 120.703 205.118C121.459 205.118 122.014 204.861 122.369 204.348C122.724 203.825 122.901 203.121 122.901 202.234C122.901 201.347 122.724 200.652 122.369 200.148C122.014 199.644 121.454 199.392 120.689 199.392C119.924 199.392 119.368 199.644 119.023 200.148C118.678 200.652 118.505 201.347 118.505 202.234ZM134.36 198.356C135.209 198.356 135.844 198.575 136.264 199.014C136.684 199.453 136.894 200.153 136.894 201.114V206H135.676V201.17C135.676 199.985 135.167 199.392 134.15 199.392C133.422 199.392 132.899 199.602 132.582 200.022C132.274 200.442 132.12 201.053 132.12 201.856V206H130.902V201.17C130.902 199.985 130.388 199.392 129.362 199.392C128.606 199.392 128.083 199.625 127.794 200.092C127.504 200.559 127.36 201.231 127.36 202.108V206H126.128V198.496H127.122L127.304 199.518H127.374C127.607 199.126 127.92 198.837 128.312 198.65C128.713 198.454 129.138 198.356 129.586 198.356C130.762 198.356 131.527 198.776 131.882 199.616H131.952C132.204 199.187 132.544 198.869 132.974 198.664C133.403 198.459 133.865 198.356 134.36 198.356Z" fill="black"/>
<line x1="4.37114e-08" y1="222.5" x2="237" y2="222.5" stroke="#F1F1F1"/>
<rect width="237" height="44" transform="translate(0 223)" fill="white"/>
<path d="M20.2 250.14C19.528 250.14 18.9353 250.005 18.422 249.734C17.9087 249.463 17.5027 249.043 17.204 248.474C16.9147 247.905 16.77 247.177 16.77 246.29C16.77 245.366 16.9193 244.615 17.218 244.036C17.526 243.457 17.946 243.033 18.478 242.762C19.01 242.491 19.612 242.356 20.284 242.356C20.6573 242.356 21.0213 242.398 21.376 242.482C21.74 242.557 22.034 242.65 22.258 242.762L21.88 243.784C21.656 243.7 21.3947 243.621 21.096 243.546C20.7973 243.471 20.5173 243.434 20.256 243.434C18.7813 243.434 18.044 244.381 18.044 246.276C18.044 247.181 18.2213 247.877 18.576 248.362C18.94 248.838 19.4767 249.076 20.186 249.076C20.5873 249.076 20.9467 249.034 21.264 248.95C21.5813 248.866 21.8707 248.763 22.132 248.642V249.734C21.88 249.865 21.6 249.963 21.292 250.028C20.9933 250.103 20.6293 250.14 20.2 250.14ZM25.1486 239.36V242.482C25.1486 242.855 25.1252 243.205 25.0786 243.532H25.1626C25.4052 243.149 25.7319 242.86 26.1426 242.664C26.5626 242.468 27.0152 242.37 27.5006 242.37C28.4059 242.37 29.0872 242.589 29.5446 243.028C30.0112 243.457 30.2446 244.153 30.2446 245.114V250H29.0266V245.198C29.0266 243.994 28.4666 243.392 27.3466 243.392C26.5066 243.392 25.9279 243.63 25.6106 244.106C25.3026 244.573 25.1486 245.245 25.1486 246.122V250H23.9166V239.36H25.1486ZM36.0709 242.356C36.2109 242.356 36.3602 242.365 36.5189 242.384C36.6775 242.393 36.8222 242.412 36.9529 242.44L36.7989 243.574C36.6775 243.546 36.5422 243.523 36.3929 243.504C36.2435 243.485 36.1082 243.476 35.9869 243.476C35.6042 243.476 35.2449 243.583 34.9089 243.798C34.5729 244.003 34.3022 244.297 34.0969 244.68C33.9009 245.053 33.8029 245.492 33.8029 245.996V250H32.5709V242.496H33.5789L33.7189 243.868H33.7749C34.0082 243.457 34.3162 243.103 34.6989 242.804C35.0909 242.505 35.5482 242.356 36.0709 242.356ZM38.9841 239.682C39.1707 239.682 39.3341 239.747 39.4741 239.878C39.6234 239.999 39.6981 240.195 39.6981 240.466C39.6981 240.737 39.6234 240.937 39.4741 241.068C39.3341 241.189 39.1707 241.25 38.9841 241.25C38.7787 241.25 38.6061 241.189 38.4661 241.068C38.3261 240.937 38.2561 240.737 38.2561 240.466C38.2561 240.195 38.3261 239.999 38.4661 239.878C38.6061 239.747 38.7787 239.682 38.9841 239.682ZM39.5861 242.496V250H38.3541V242.496H39.5861ZM46.8494 247.928C46.8494 248.656 46.5788 249.207 46.0374 249.58C45.4961 249.953 44.7681 250.14 43.8534 250.14C43.3308 250.14 42.8781 250.098 42.4954 250.014C42.1221 249.93 41.7908 249.813 41.5014 249.664V248.544C41.8001 248.693 42.1594 248.833 42.5794 248.964C43.0088 249.085 43.4428 249.146 43.8814 249.146C44.5068 249.146 44.9594 249.048 45.2394 248.852C45.5194 248.647 45.6594 248.376 45.6594 248.04C45.6594 247.853 45.6081 247.685 45.5054 247.536C45.4028 247.387 45.2161 247.237 44.9454 247.088C44.6841 246.939 44.3061 246.771 43.8114 246.584C43.3261 246.397 42.9108 246.211 42.5654 246.024C42.2201 245.837 41.9541 245.613 41.7674 245.352C41.5808 245.091 41.4874 244.755 41.4874 244.344C41.4874 243.709 41.7441 243.219 42.2574 242.874C42.7801 242.529 43.4614 242.356 44.3014 242.356C44.7588 242.356 45.1834 242.403 45.5754 242.496C45.9768 242.589 46.3501 242.711 46.6954 242.86L46.2754 243.84C45.9581 243.709 45.6268 243.597 45.2814 243.504C44.9361 243.411 44.5814 243.364 44.2174 243.364C43.7134 243.364 43.3261 243.448 43.0554 243.616C42.7941 243.775 42.6634 243.994 42.6634 244.274C42.6634 244.489 42.7241 244.666 42.8454 244.806C42.9668 244.946 43.1674 245.086 43.4474 245.226C43.7368 245.366 44.1194 245.525 44.5954 245.702C45.0714 245.879 45.4774 246.061 45.8134 246.248C46.1494 246.435 46.4061 246.663 46.5834 246.934C46.7608 247.195 46.8494 247.527 46.8494 247.928ZM59.2467 245.002C59.2467 245.431 59.1953 245.851 59.0927 246.262C58.9993 246.673 58.85 247.046 58.6447 247.382C58.4393 247.709 58.1873 247.975 57.8887 248.18C57.59 248.376 57.2353 248.474 56.8247 248.474C56.3953 248.474 56.0547 248.353 55.8027 248.11C55.56 247.858 55.4107 247.573 55.3547 247.256H55.2847C55.1167 247.601 54.8693 247.891 54.5427 248.124C54.216 248.357 53.8053 248.474 53.3107 248.474C52.592 248.474 52.0413 248.236 51.6587 247.76C51.276 247.284 51.0847 246.654 51.0847 245.87C51.0847 245.263 51.206 244.722 51.4487 244.246C51.6913 243.77 52.032 243.397 52.4707 243.126C52.9187 242.855 53.446 242.72 54.0527 242.72C54.4633 242.72 54.8647 242.757 55.2567 242.832C55.658 242.897 55.9707 242.972 56.1947 243.056L56.0547 245.898C56.0453 246.066 56.0407 246.187 56.0407 246.262C56.0407 246.327 56.0407 246.374 56.0407 246.402C56.0407 246.897 56.1247 247.223 56.2927 247.382C56.47 247.531 56.6753 247.606 56.9087 247.606C57.198 247.606 57.4407 247.489 57.6367 247.256C57.842 247.013 57.996 246.696 58.0987 246.304C58.2107 245.912 58.2667 245.473 58.2667 244.988C58.2667 244.129 58.0893 243.397 57.7347 242.79C57.3893 242.183 56.9087 241.721 56.2927 241.404C55.686 241.087 54.9953 240.928 54.2207 240.928C53.1567 240.928 52.256 241.147 51.5187 241.586C50.7907 242.025 50.2353 242.631 49.8527 243.406C49.4793 244.171 49.2927 245.049 49.2927 246.038C49.2927 247.419 49.6567 248.479 50.3847 249.216C51.1127 249.953 52.1627 250.322 53.5347 250.322C54.104 250.322 54.6453 250.257 55.1587 250.126C55.6813 250.005 56.1433 249.869 56.5447 249.72V250.672C56.1433 250.84 55.6907 250.975 55.1867 251.078C54.692 251.19 54.1413 251.246 53.5347 251.246C52.4333 251.246 51.4907 251.041 50.7067 250.63C49.9227 250.219 49.3207 249.631 48.9007 248.866C48.49 248.091 48.2847 247.163 48.2847 246.08C48.2847 245.212 48.42 244.409 48.6907 243.672C48.9613 242.925 49.3533 242.281 49.8667 241.74C50.38 241.189 51.0007 240.765 51.7287 240.466C52.466 240.158 53.2967 240.004 54.2207 240.004C55.1913 240.004 56.0547 240.205 56.8107 240.606C57.5667 241.007 58.1593 241.581 58.5887 242.328C59.0273 243.075 59.2467 243.966 59.2467 245.002ZM52.1767 245.898C52.1767 246.505 52.2933 246.943 52.5267 247.214C52.76 247.475 53.082 247.606 53.4927 247.606C54.0153 247.606 54.3887 247.41 54.6127 247.018C54.846 246.626 54.9813 246.117 55.0187 245.492L55.1027 243.742C54.9813 243.705 54.8273 243.672 54.6407 243.644C54.454 243.616 54.2627 243.602 54.0667 243.602C53.6093 243.602 53.2407 243.714 52.9607 243.938C52.6807 244.162 52.48 244.451 52.3587 244.806C52.2373 245.151 52.1767 245.515 52.1767 245.898ZM64.1525 242.356C64.7871 242.356 65.3378 242.496 65.8045 242.776C66.2711 243.056 66.6258 243.453 66.8685 243.966C67.1205 244.47 67.2465 245.063 67.2465 245.744V246.486H62.1085C62.1271 247.335 62.3418 247.984 62.7525 248.432C63.1725 248.871 63.7558 249.09 64.5025 249.09C64.9785 249.09 65.3985 249.048 65.7625 248.964C66.1358 248.871 66.5185 248.74 66.9105 248.572V249.65C66.5278 249.818 66.1498 249.939 65.7765 250.014C65.4031 250.098 64.9598 250.14 64.4465 250.14C63.7278 250.14 63.0978 249.995 62.5565 249.706C62.0151 249.417 61.5905 248.987 61.2825 248.418C60.9838 247.849 60.8345 247.144 60.8345 246.304C60.8345 245.483 60.9698 244.778 61.2405 244.19C61.5205 243.602 61.9078 243.149 62.4025 242.832C62.9065 242.515 63.4898 242.356 64.1525 242.356ZM64.1385 243.364C63.5505 243.364 63.0838 243.555 62.7385 243.938C62.4025 244.311 62.2018 244.834 62.1365 245.506H65.9585C65.9491 244.871 65.7998 244.358 65.5105 243.966C65.2211 243.565 64.7638 243.364 64.1385 243.364ZM77.3888 242.356C78.2381 242.356 78.8728 242.575 79.2928 243.014C79.7128 243.453 79.9228 244.153 79.9228 245.114V250H78.7048V245.17C78.7048 243.985 78.1961 243.392 77.1788 243.392C76.4508 243.392 75.9281 243.602 75.6108 244.022C75.3028 244.442 75.1488 245.053 75.1488 245.856V250H73.9308V245.17C73.9308 243.985 73.4175 243.392 72.3908 243.392C71.6348 243.392 71.1121 243.625 70.8228 244.092C70.5335 244.559 70.3888 245.231 70.3888 246.108V250H69.1568V242.496H70.1508L70.3328 243.518H70.4028C70.6361 243.126 70.9488 242.837 71.3408 242.65C71.7421 242.454 72.1668 242.356 72.6148 242.356C73.7908 242.356 74.5561 242.776 74.9108 243.616H74.9808C75.2328 243.187 75.5735 242.869 76.0028 242.664C76.4321 242.459 76.8941 242.356 77.3888 242.356ZM85.0828 242.37C85.9974 242.37 86.6741 242.571 87.1128 242.972C87.5514 243.373 87.7708 244.013 87.7708 244.89V250H86.8748L86.6368 248.936H86.5808C86.2541 249.347 85.9088 249.65 85.5448 249.846C85.1808 250.042 84.6861 250.14 84.0608 250.14C83.3794 250.14 82.8148 249.963 82.3668 249.608C81.9188 249.244 81.6948 248.679 81.6948 247.914C81.6948 247.167 81.9888 246.593 82.5768 246.192C83.1648 245.781 84.0701 245.557 85.2928 245.52L86.5668 245.478V245.03C86.5668 244.405 86.4314 243.971 86.1608 243.728C85.8901 243.485 85.5074 243.364 85.0128 243.364C84.6208 243.364 84.2474 243.425 83.8928 243.546C83.5381 243.658 83.2068 243.789 82.8988 243.938L82.5208 243.014C82.8474 242.837 83.2348 242.687 83.6828 242.566C84.1308 242.435 84.5974 242.37 85.0828 242.37ZM86.5528 246.332L85.4468 246.374C84.5134 246.411 83.8648 246.561 83.5008 246.822C83.1461 247.083 82.9688 247.452 82.9688 247.928C82.9688 248.348 83.0948 248.656 83.3468 248.852C83.6081 249.048 83.9394 249.146 84.3408 249.146C84.9661 249.146 85.4888 248.973 85.9088 248.628C86.3381 248.273 86.5528 247.732 86.5528 247.004V246.332ZM90.7184 239.682C90.9051 239.682 91.0684 239.747 91.2084 239.878C91.3578 239.999 91.4324 240.195 91.4324 240.466C91.4324 240.737 91.3578 240.937 91.2084 241.068C91.0684 241.189 90.9051 241.25 90.7184 241.25C90.5131 241.25 90.3404 241.189 90.2004 241.068C90.0604 240.937 89.9904 240.737 89.9904 240.466C89.9904 240.195 90.0604 239.999 90.2004 239.878C90.3404 239.747 90.5131 239.682 90.7184 239.682ZM91.3204 242.496V250H90.0884V242.496H91.3204ZM94.9298 250H93.6978V239.36H94.9298V250ZM97.1252 249.244C97.1252 248.899 97.2092 248.656 97.3772 248.516C97.5452 248.376 97.7459 248.306 97.9792 248.306C98.2125 248.306 98.4179 248.376 98.5952 248.516C98.7725 248.656 98.8612 248.899 98.8612 249.244C98.8612 249.58 98.7725 249.823 98.5952 249.972C98.4179 250.121 98.2125 250.196 97.9792 250.196C97.7459 250.196 97.5452 250.121 97.3772 249.972C97.2092 249.823 97.1252 249.58 97.1252 249.244ZM104.063 250.14C103.391 250.14 102.799 250.005 102.285 249.734C101.772 249.463 101.366 249.043 101.067 248.474C100.778 247.905 100.633 247.177 100.633 246.29C100.633 245.366 100.783 244.615 101.081 244.036C101.389 243.457 101.809 243.033 102.341 242.762C102.873 242.491 103.475 242.356 104.147 242.356C104.521 242.356 104.885 242.398 105.239 242.482C105.603 242.557 105.897 242.65 106.121 242.762L105.743 243.784C105.519 243.7 105.258 243.621 104.959 243.546C104.661 243.471 104.381 243.434 104.119 243.434C102.645 243.434 101.907 244.381 101.907 246.276C101.907 247.181 102.085 247.877 102.439 248.362C102.803 248.838 103.34 249.076 104.049 249.076C104.451 249.076 104.81 249.034 105.127 248.95C105.445 248.866 105.734 248.763 105.995 248.642V249.734C105.743 249.865 105.463 249.963 105.155 250.028C104.857 250.103 104.493 250.14 104.063 250.14ZM114.304 246.234C114.304 247.475 113.987 248.437 113.352 249.118C112.727 249.799 111.877 250.14 110.804 250.14C110.141 250.14 109.549 249.991 109.026 249.692C108.513 249.384 108.107 248.941 107.808 248.362C107.509 247.774 107.36 247.065 107.36 246.234C107.36 244.993 107.668 244.036 108.284 243.364C108.909 242.692 109.763 242.356 110.846 242.356C111.518 242.356 112.115 242.51 112.638 242.818C113.161 243.117 113.567 243.555 113.856 244.134C114.155 244.703 114.304 245.403 114.304 246.234ZM108.634 246.234C108.634 247.121 108.807 247.825 109.152 248.348C109.507 248.861 110.067 249.118 110.832 249.118C111.588 249.118 112.143 248.861 112.498 248.348C112.853 247.825 113.03 247.121 113.03 246.234C113.03 245.347 112.853 244.652 112.498 244.148C112.143 243.644 111.583 243.392 110.818 243.392C110.053 243.392 109.497 243.644 109.152 244.148C108.807 244.652 108.634 245.347 108.634 246.234ZM124.488 242.356C125.338 242.356 125.972 242.575 126.392 243.014C126.812 243.453 127.022 244.153 127.022 245.114V250H125.804V245.17C125.804 243.985 125.296 243.392 124.278 243.392C123.55 243.392 123.028 243.602 122.71 244.022C122.402 244.442 122.248 245.053 122.248 245.856V250H121.03V245.17C121.03 243.985 120.517 243.392 119.49 243.392C118.734 243.392 118.212 243.625 117.922 244.092C117.633 244.559 117.488 245.231 117.488 246.108V250H116.256V242.496H117.25L117.432 243.518H117.502C117.736 243.126 118.048 242.837 118.44 242.65C118.842 242.454 119.266 242.356 119.714 242.356C120.89 242.356 121.656 242.776 122.01 243.616H122.08C122.332 243.187 122.673 242.869 123.102 242.664C123.532 242.459 123.994 242.356 124.488 242.356Z" fill="black"/>
<rect width="121" height="44" transform="translate(237 91)" fill="white"/>
<path d="M262.478 112.904C262.478 114.593 262.007 115.867 261.064 116.726C260.121 117.575 258.805 118 257.116 118H254.302V108.004H257.41C258.446 108.004 259.342 108.191 260.098 108.564C260.854 108.937 261.437 109.488 261.848 110.216C262.268 110.944 262.478 111.84 262.478 112.904ZM260.602 112.96C260.602 111.765 260.327 110.888 259.776 110.328C259.225 109.768 258.437 109.488 257.41 109.488H256.094V116.502H257.172C259.459 116.502 260.602 115.321 260.602 112.96ZM267.467 110.272C268.447 110.272 269.189 110.487 269.693 110.916C270.206 111.345 270.463 112.008 270.463 112.904V118H269.217L268.867 116.95H268.811C268.484 117.361 268.139 117.664 267.775 117.86C267.411 118.047 266.916 118.14 266.291 118.14C265.609 118.14 265.045 117.949 264.597 117.566C264.149 117.183 263.925 116.591 263.925 115.788C263.925 115.004 264.209 114.416 264.779 114.024C265.357 113.632 266.23 113.413 267.397 113.366L268.713 113.324V112.946C268.713 112.461 268.596 112.115 268.363 111.91C268.129 111.705 267.803 111.602 267.383 111.602C267 111.602 266.631 111.658 266.277 111.77C265.931 111.873 265.586 112.003 265.241 112.162L264.681 110.93C265.054 110.734 265.479 110.575 265.955 110.454C266.44 110.333 266.944 110.272 267.467 110.272ZM268.713 114.416L267.789 114.444C267.014 114.472 266.477 114.607 266.179 114.85C265.88 115.083 265.731 115.401 265.731 115.802C265.731 116.166 265.833 116.427 266.039 116.586C266.253 116.735 266.533 116.81 266.879 116.81C267.392 116.81 267.826 116.665 268.181 116.376C268.535 116.077 268.713 115.639 268.713 115.06V114.416ZM275.613 116.726C275.828 116.726 276.038 116.707 276.243 116.67C276.458 116.623 276.654 116.572 276.831 116.516V117.832C276.644 117.925 276.402 118 276.103 118.056C275.804 118.112 275.492 118.14 275.165 118.14C274.726 118.14 274.33 118.07 273.975 117.93C273.63 117.79 273.354 117.543 273.149 117.188C272.944 116.833 272.841 116.334 272.841 115.69V111.742H271.819V110.972L272.939 110.356L273.499 108.746H274.605V110.412H276.761V111.742H274.605V115.676C274.605 116.031 274.698 116.297 274.885 116.474C275.081 116.642 275.324 116.726 275.613 116.726ZM281.413 110.272C282.43 110.272 283.233 110.575 283.821 111.182C284.418 111.789 284.717 112.633 284.717 113.716V114.612H279.705C279.723 115.303 279.915 115.839 280.279 116.222C280.643 116.595 281.147 116.782 281.791 116.782C282.276 116.782 282.715 116.735 283.107 116.642C283.499 116.539 283.9 116.395 284.311 116.208V117.622C283.937 117.799 283.55 117.93 283.149 118.014C282.747 118.098 282.267 118.14 281.707 118.14C280.96 118.14 280.302 118 279.733 117.72C279.163 117.431 278.715 117.001 278.389 116.432C278.071 115.853 277.913 115.13 277.913 114.262C277.913 112.965 278.23 111.975 278.865 111.294C279.509 110.613 280.358 110.272 281.413 110.272ZM281.413 111.574C280.937 111.574 280.549 111.728 280.251 112.036C279.961 112.335 279.793 112.783 279.747 113.38H283.009C282.999 112.857 282.864 112.428 282.603 112.092C282.351 111.747 281.954 111.574 281.413 111.574Z" fill="black"/>
<path d="M302.012 116.363C301.912 116.363 301.812 116.313 301.762 116.263L296.113 110.663C295.962 110.513 295.962 110.263 296.113 110.113C296.263 109.962 296.512 109.962 296.662 110.113L302.012 115.463L307.312 110.113C307.462 109.962 307.713 109.962 307.863 110.113C308.012 110.263 308.012 110.513 307.863 110.663L302.262 116.263C302.162 116.313 302.112 116.363 302.012 116.363Z" fill="#323232"/>
<line x1="237" y1="91.5" x2="358" y2="91.5" stroke="#C9C9C9"/>
<line x1="237" y1="134.5" x2="358" y2="134.5" stroke="#C9C9C9"/>
<rect width="121" height="44" transform="translate(237 135)" fill="white"/>
<path d="M260.322 156.988C260.322 158.071 260.21 158.995 259.986 159.76C259.762 160.525 259.403 161.113 258.908 161.524C258.423 161.935 257.783 162.14 256.99 162.14C255.861 162.14 255.025 161.687 254.484 160.782C253.952 159.867 253.686 158.603 253.686 156.988C253.686 155.905 253.793 154.981 254.008 154.216C254.232 153.451 254.587 152.867 255.072 152.466C255.557 152.055 256.197 151.85 256.99 151.85C258.11 151.85 258.945 152.303 259.496 153.208C260.047 154.104 260.322 155.364 260.322 156.988ZM254.918 156.988C254.918 158.36 255.072 159.387 255.38 160.068C255.697 160.749 256.234 161.09 256.99 161.09C257.737 161.09 258.269 160.754 258.586 160.082C258.913 159.401 259.076 158.369 259.076 156.988C259.076 155.625 258.913 154.603 258.586 153.922C258.269 153.241 257.737 152.9 256.99 152.9C256.234 152.9 255.697 153.241 255.38 153.922C255.072 154.603 254.918 155.625 254.918 156.988ZM265.982 162H264.778V155.014C264.778 154.613 264.782 154.291 264.792 154.048C264.801 153.805 264.815 153.553 264.834 153.292C264.684 153.441 264.544 153.567 264.414 153.67C264.292 153.773 264.143 153.903 263.966 154.062L262.902 154.93L262.258 154.104L264.96 152.004H265.982V162ZM274.091 152.004L270.367 162H269.163L272.887 152.004H274.091ZM279.202 162H277.998V155.014C277.998 154.613 278.003 154.291 278.012 154.048C278.022 153.805 278.036 153.553 278.054 153.292C277.905 153.441 277.765 153.567 277.634 153.67C277.513 153.773 277.364 153.903 277.186 154.062L276.122 154.93L275.478 154.104L278.18 152.004H279.202V162ZM289.146 154.342C289.146 155.014 288.955 155.551 288.572 155.952C288.199 156.344 287.699 156.605 287.074 156.736V156.792C287.867 156.885 288.46 157.137 288.852 157.548C289.253 157.959 289.454 158.495 289.454 159.158C289.454 159.746 289.319 160.264 289.048 160.712C288.777 161.16 288.357 161.51 287.788 161.762C287.228 162.014 286.505 162.14 285.618 162.14C285.095 162.14 284.61 162.098 284.162 162.014C283.714 161.939 283.285 161.799 282.874 161.594V160.446C283.294 160.661 283.747 160.824 284.232 160.936C284.717 161.048 285.184 161.104 285.632 161.104C286.528 161.104 287.172 160.931 287.564 160.586C287.965 160.231 288.166 159.746 288.166 159.13C288.166 158.505 287.919 158.057 287.424 157.786C286.939 157.506 286.253 157.366 285.366 157.366H284.4V156.316H285.38C286.201 156.316 286.822 156.143 287.242 155.798C287.671 155.453 287.886 154.995 287.886 154.426C287.886 153.941 287.723 153.567 287.396 153.306C287.069 153.035 286.626 152.9 286.066 152.9C285.525 152.9 285.063 152.979 284.68 153.138C284.297 153.297 283.919 153.497 283.546 153.74L282.93 152.9C283.285 152.62 283.723 152.377 284.246 152.172C284.778 151.967 285.38 151.864 286.052 151.864C287.097 151.864 287.872 152.097 288.376 152.564C288.889 153.031 289.146 153.623 289.146 154.342ZM295.324 152.004L291.6 162H290.396L294.12 152.004H295.324ZM302.745 162H296.137V160.978L298.755 158.332C299.25 157.828 299.67 157.38 300.015 156.988C300.37 156.596 300.636 156.213 300.813 155.84C300.99 155.467 301.079 155.051 301.079 154.594C301.079 154.043 300.916 153.628 300.589 153.348C300.262 153.059 299.838 152.914 299.315 152.914C298.82 152.914 298.391 152.998 298.027 153.166C297.663 153.334 297.29 153.567 296.907 153.866L296.249 153.04C296.641 152.713 297.089 152.438 297.593 152.214C298.106 151.981 298.68 151.864 299.315 151.864C300.248 151.864 300.986 152.102 301.527 152.578C302.068 153.054 302.339 153.703 302.339 154.524C302.339 155.047 302.232 155.537 302.017 155.994C301.802 156.451 301.504 156.904 301.121 157.352C300.738 157.8 300.29 158.271 299.777 158.766L297.691 160.824V160.88H302.745V162ZM310.799 156.988C310.799 158.071 310.687 158.995 310.463 159.76C310.239 160.525 309.879 161.113 309.385 161.524C308.899 161.935 308.26 162.14 307.467 162.14C306.337 162.14 305.502 161.687 304.961 160.782C304.429 159.867 304.163 158.603 304.163 156.988C304.163 155.905 304.27 154.981 304.485 154.216C304.709 153.451 305.063 152.867 305.549 152.466C306.034 152.055 306.673 151.85 307.467 151.85C308.587 151.85 309.422 152.303 309.973 153.208C310.523 154.104 310.799 155.364 310.799 156.988ZM305.395 156.988C305.395 158.36 305.549 159.387 305.857 160.068C306.174 160.749 306.711 161.09 307.467 161.09C308.213 161.09 308.745 160.754 309.063 160.082C309.389 159.401 309.553 158.369 309.553 156.988C309.553 155.625 309.389 154.603 309.063 153.922C308.745 153.241 308.213 152.9 307.467 152.9C306.711 152.9 306.174 153.241 305.857 153.922C305.549 154.603 305.395 155.625 305.395 156.988ZM318.768 162H312.16V160.978L314.778 158.332C315.273 157.828 315.693 157.38 316.038 156.988C316.393 156.596 316.659 156.213 316.836 155.84C317.014 155.467 317.102 155.051 317.102 154.594C317.102 154.043 316.939 153.628 316.612 153.348C316.286 153.059 315.861 152.914 315.338 152.914C314.844 152.914 314.414 152.998 314.05 153.166C313.686 153.334 313.313 153.567 312.93 153.866L312.272 153.04C312.664 152.713 313.112 152.438 313.616 152.214C314.13 151.981 314.704 151.864 315.338 151.864C316.272 151.864 317.009 152.102 317.55 152.578C318.092 153.054 318.362 153.703 318.362 154.524C318.362 155.047 318.255 155.537 318.04 155.994C317.826 156.451 317.527 156.904 317.144 157.352C316.762 157.8 316.314 158.271 315.8 158.766L313.714 160.824V160.88H318.768V162ZM324.47 162H323.266V155.014C323.266 154.613 323.271 154.291 323.28 154.048C323.289 153.805 323.303 153.553 323.322 153.292C323.173 153.441 323.033 153.567 322.902 153.67C322.781 153.773 322.631 153.903 322.454 154.062L321.39 154.93L320.746 154.104L323.448 152.004H324.47V162Z" fill="black"/>
<line x1="237" y1="178.5" x2="358" y2="178.5" stroke="#F1F1F1"/>
<rect width="121" height="44" transform="translate(237 179)" fill="white"/>
<path d="M260.322 200.988C260.322 202.071 260.21 202.995 259.986 203.76C259.762 204.525 259.403 205.113 258.908 205.524C258.423 205.935 257.783 206.14 256.99 206.14C255.861 206.14 255.025 205.687 254.484 204.782C253.952 203.867 253.686 202.603 253.686 200.988C253.686 199.905 253.793 198.981 254.008 198.216C254.232 197.451 254.587 196.867 255.072 196.466C255.557 196.055 256.197 195.85 256.99 195.85C258.11 195.85 258.945 196.303 259.496 197.208C260.047 198.104 260.322 199.364 260.322 200.988ZM254.918 200.988C254.918 202.36 255.072 203.387 255.38 204.068C255.697 204.749 256.234 205.09 256.99 205.09C257.737 205.09 258.269 204.754 258.586 204.082C258.913 203.401 259.076 202.369 259.076 200.988C259.076 199.625 258.913 198.603 258.586 197.922C258.269 197.241 257.737 196.9 256.99 196.9C256.234 196.9 255.697 197.241 255.38 197.922C255.072 198.603 254.918 199.625 254.918 200.988ZM265.982 206H264.778V199.014C264.778 198.613 264.782 198.291 264.792 198.048C264.801 197.805 264.815 197.553 264.834 197.292C264.684 197.441 264.544 197.567 264.414 197.67C264.292 197.773 264.143 197.903 263.966 198.062L262.902 198.93L262.258 198.104L264.96 196.004H265.982V206ZM274.091 196.004L270.367 206H269.163L272.887 196.004H274.091ZM279.202 206H277.998V199.014C277.998 198.613 278.003 198.291 278.012 198.048C278.022 197.805 278.036 197.553 278.054 197.292C277.905 197.441 277.765 197.567 277.634 197.67C277.513 197.773 277.364 197.903 277.186 198.062L276.122 198.93L275.478 198.104L278.18 196.004H279.202V206ZM289.972 203.732H288.516V206H287.326V203.732H282.538V202.682L287.242 195.948H288.516V202.626H289.972V203.732ZM287.326 202.626V199.476C287.326 198.991 287.331 198.58 287.34 198.244C287.359 197.899 287.377 197.572 287.396 197.264H287.34C287.265 197.441 287.172 197.633 287.06 197.838C286.948 198.043 286.841 198.216 286.738 198.356L283.742 202.626H287.326ZM295.324 196.004L291.6 206H290.396L294.12 196.004H295.324ZM302.745 206H296.137V204.978L298.755 202.332C299.25 201.828 299.67 201.38 300.015 200.988C300.37 200.596 300.636 200.213 300.813 199.84C300.99 199.467 301.079 199.051 301.079 198.594C301.079 198.043 300.916 197.628 300.589 197.348C300.262 197.059 299.838 196.914 299.315 196.914C298.82 196.914 298.391 196.998 298.027 197.166C297.663 197.334 297.29 197.567 296.907 197.866L296.249 197.04C296.641 196.713 297.089 196.438 297.593 196.214C298.106 195.981 298.68 195.864 299.315 195.864C300.248 195.864 300.986 196.102 301.527 196.578C302.068 197.054 302.339 197.703 302.339 198.524C302.339 199.047 302.232 199.537 302.017 199.994C301.802 200.451 301.504 200.904 301.121 201.352C300.738 201.8 300.29 202.271 299.777 202.766L297.691 204.824V204.88H302.745V206ZM310.799 200.988C310.799 202.071 310.687 202.995 310.463 203.76C310.239 204.525 309.879 205.113 309.385 205.524C308.899 205.935 308.26 206.14 307.467 206.14C306.337 206.14 305.502 205.687 304.961 204.782C304.429 203.867 304.163 202.603 304.163 200.988C304.163 199.905 304.27 198.981 304.485 198.216C304.709 197.451 305.063 196.867 305.549 196.466C306.034 196.055 306.673 195.85 307.467 195.85C308.587 195.85 309.422 196.303 309.973 197.208C310.523 198.104 310.799 199.364 310.799 200.988ZM305.395 200.988C305.395 202.36 305.549 203.387 305.857 204.068C306.174 204.749 306.711 205.09 307.467 205.09C308.213 205.09 308.745 204.754 309.063 204.082C309.389 203.401 309.553 202.369 309.553 200.988C309.553 199.625 309.389 198.603 309.063 197.922C308.745 197.241 308.213 196.9 307.467 196.9C306.711 196.9 306.174 197.241 305.857 197.922C305.549 198.603 305.395 199.625 305.395 200.988ZM318.768 206H312.16V204.978L314.778 202.332C315.273 201.828 315.693 201.38 316.038 200.988C316.393 200.596 316.659 200.213 316.836 199.84C317.014 199.467 317.102 199.051 317.102 198.594C317.102 198.043 316.939 197.628 316.612 197.348C316.286 197.059 315.861 196.914 315.338 196.914C314.844 196.914 314.414 196.998 314.05 197.166C313.686 197.334 313.313 197.567 312.93 197.866L312.272 197.04C312.664 196.713 313.112 196.438 313.616 196.214C314.13 195.981 314.704 195.864 315.338 195.864C316.272 195.864 317.009 196.102 317.55 196.578C318.092 197.054 318.362 197.703 318.362 198.524C318.362 199.047 318.255 199.537 318.04 199.994C317.826 200.451 317.527 200.904 317.144 201.352C316.762 201.8 316.314 202.271 315.8 202.766L313.714 204.824V204.88H318.768V206ZM324.47 206H323.266V199.014C323.266 198.613 323.271 198.291 323.28 198.048C323.289 197.805 323.303 197.553 323.322 197.292C323.173 197.441 323.033 197.567 322.902 197.67C322.781 197.773 322.631 197.903 322.454 198.062L321.39 198.93L320.746 198.104L323.448 196.004H324.47V206Z" fill="black"/>
<line x1="237" y1="222.5" x2="358" y2="222.5" stroke="#F1F1F1"/>
<rect width="121" height="44" transform="translate(237 223)" fill="white"/>
<path d="M260.322 244.988C260.322 246.071 260.21 246.995 259.986 247.76C259.762 248.525 259.403 249.113 258.908 249.524C258.423 249.935 257.783 250.14 256.99 250.14C255.861 250.14 255.025 249.687 254.484 248.782C253.952 247.867 253.686 246.603 253.686 244.988C253.686 243.905 253.793 242.981 254.008 242.216C254.232 241.451 254.587 240.867 255.072 240.466C255.557 240.055 256.197 239.85 256.99 239.85C258.11 239.85 258.945 240.303 259.496 241.208C260.047 242.104 260.322 243.364 260.322 244.988ZM254.918 244.988C254.918 246.36 255.072 247.387 255.38 248.068C255.697 248.749 256.234 249.09 256.99 249.09C257.737 249.09 258.269 248.754 258.586 248.082C258.913 247.401 259.076 246.369 259.076 244.988C259.076 243.625 258.913 242.603 258.586 241.922C258.269 241.241 257.737 240.9 256.99 240.9C256.234 240.9 255.697 241.241 255.38 241.922C255.072 242.603 254.918 243.625 254.918 244.988ZM268.292 250H261.684V248.978L264.302 246.332C264.796 245.828 265.216 245.38 265.562 244.988C265.916 244.596 266.182 244.213 266.36 243.84C266.537 243.467 266.626 243.051 266.626 242.594C266.626 242.043 266.462 241.628 266.136 241.348C265.809 241.059 265.384 240.914 264.862 240.914C264.367 240.914 263.938 240.998 263.574 241.166C263.21 241.334 262.836 241.567 262.454 241.866L261.796 241.04C262.188 240.713 262.636 240.438 263.14 240.214C263.653 239.981 264.227 239.864 264.862 239.864C265.795 239.864 266.532 240.102 267.074 240.578C267.615 241.054 267.886 241.703 267.886 242.524C267.886 243.047 267.778 243.537 267.564 243.994C267.349 244.451 267.05 244.904 266.668 245.352C266.285 245.8 265.837 246.271 265.324 246.766L263.238 248.824V248.88H268.292V250ZM274.091 240.004L270.367 250H269.163L272.887 240.004H274.091ZM281.512 250H274.904V248.978L277.522 246.332C278.017 245.828 278.437 245.38 278.782 244.988C279.137 244.596 279.403 244.213 279.58 243.84C279.758 243.467 279.846 243.051 279.846 242.594C279.846 242.043 279.683 241.628 279.356 241.348C279.03 241.059 278.605 240.914 278.082 240.914C277.588 240.914 277.158 240.998 276.794 241.166C276.43 241.334 276.057 241.567 275.674 241.866L275.016 241.04C275.408 240.713 275.856 240.438 276.36 240.214C276.874 239.981 277.448 239.864 278.082 239.864C279.016 239.864 279.753 240.102 280.294 240.578C280.836 241.054 281.106 241.703 281.106 242.524C281.106 243.047 280.999 243.537 280.784 243.994C280.57 244.451 280.271 244.904 279.888 245.352C279.506 245.8 279.058 246.271 278.544 246.766L276.458 248.824V248.88H281.512V250ZM289.146 242.342C289.146 243.014 288.955 243.551 288.572 243.952C288.199 244.344 287.699 244.605 287.074 244.736V244.792C287.867 244.885 288.46 245.137 288.852 245.548C289.253 245.959 289.454 246.495 289.454 247.158C289.454 247.746 289.319 248.264 289.048 248.712C288.777 249.16 288.357 249.51 287.788 249.762C287.228 250.014 286.505 250.14 285.618 250.14C285.095 250.14 284.61 250.098 284.162 250.014C283.714 249.939 283.285 249.799 282.874 249.594V248.446C283.294 248.661 283.747 248.824 284.232 248.936C284.717 249.048 285.184 249.104 285.632 249.104C286.528 249.104 287.172 248.931 287.564 248.586C287.965 248.231 288.166 247.746 288.166 247.13C288.166 246.505 287.919 246.057 287.424 245.786C286.939 245.506 286.253 245.366 285.366 245.366H284.4V244.316H285.38C286.201 244.316 286.822 244.143 287.242 243.798C287.671 243.453 287.886 242.995 287.886 242.426C287.886 241.941 287.723 241.567 287.396 241.306C287.069 241.035 286.626 240.9 286.066 240.9C285.525 240.9 285.063 240.979 284.68 241.138C284.297 241.297 283.919 241.497 283.546 241.74L282.93 240.9C283.285 240.62 283.723 240.377 284.246 240.172C284.778 239.967 285.38 239.864 286.052 239.864C287.097 239.864 287.872 240.097 288.376 240.564C288.889 241.031 289.146 241.623 289.146 242.342ZM295.324 240.004L291.6 250H290.396L294.12 240.004H295.324ZM302.745 250H296.137V248.978L298.755 246.332C299.25 245.828 299.67 245.38 300.015 244.988C300.37 244.596 300.636 244.213 300.813 243.84C300.99 243.467 301.079 243.051 301.079 242.594C301.079 242.043 300.916 241.628 300.589 241.348C300.262 241.059 299.838 240.914 299.315 240.914C298.82 240.914 298.391 240.998 298.027 241.166C297.663 241.334 297.29 241.567 296.907 241.866L296.249 241.04C296.641 240.713 297.089 240.438 297.593 240.214C298.106 239.981 298.68 239.864 299.315 239.864C300.248 239.864 300.986 240.102 301.527 240.578C302.068 241.054 302.339 241.703 302.339 242.524C302.339 243.047 302.232 243.537 302.017 243.994C301.802 244.451 301.504 244.904 301.121 245.352C300.738 245.8 300.29 246.271 299.777 246.766L297.691 248.824V248.88H302.745V250ZM310.799 244.988C310.799 246.071 310.687 246.995 310.463 247.76C310.239 248.525 309.879 249.113 309.385 249.524C308.899 249.935 308.26 250.14 307.467 250.14C306.337 250.14 305.502 249.687 304.961 248.782C304.429 247.867 304.163 246.603 304.163 244.988C304.163 243.905 304.27 242.981 304.485 242.216C304.709 241.451 305.063 240.867 305.549 240.466C306.034 240.055 306.673 239.85 307.467 239.85C308.587 239.85 309.422 240.303 309.973 241.208C310.523 242.104 310.799 243.364 310.799 244.988ZM305.395 244.988C305.395 246.36 305.549 247.387 305.857 248.068C306.174 248.749 306.711 249.09 307.467 249.09C308.213 249.09 308.745 248.754 309.063 248.082C309.389 247.401 309.553 246.369 309.553 244.988C309.553 243.625 309.389 242.603 309.063 241.922C308.745 241.241 308.213 240.9 307.467 240.9C306.711 240.9 306.174 241.241 305.857 241.922C305.549 242.603 305.395 243.625 305.395 244.988ZM318.768 250H312.16V248.978L314.778 246.332C315.273 245.828 315.693 245.38 316.038 244.988C316.393 244.596 316.659 244.213 316.836 243.84C317.014 243.467 317.102 243.051 317.102 242.594C317.102 242.043 316.939 241.628 316.612 241.348C316.286 241.059 315.861 240.914 315.338 240.914C314.844 240.914 314.414 240.998 314.05 241.166C313.686 241.334 313.313 241.567 312.93 241.866L312.272 241.04C312.664 240.713 313.112 240.438 313.616 240.214C314.13 239.981 314.704 239.864 315.338 239.864C316.272 239.864 317.009 240.102 317.55 240.578C318.092 241.054 318.362 241.703 318.362 242.524C318.362 243.047 318.255 243.537 318.04 243.994C317.826 244.451 317.527 244.904 317.144 245.352C316.762 245.8 316.314 246.271 315.8 246.766L313.714 248.824V248.88H318.768V250ZM324.47 250H323.266V243.014C323.266 242.613 323.271 242.291 323.28 242.048C323.289 241.805 323.303 241.553 323.322 241.292C323.173 241.441 323.033 241.567 322.902 241.67C322.781 241.773 322.631 241.903 322.454 242.062L321.39 242.93L320.746 242.104L323.448 240.004H324.47V250Z" fill="black"/>
<g clip-path="url(#clip0_8107_327844)">
<rect width="42" height="44" transform="translate(358 91)" fill="white"/>
<line x1="358" y1="91.5" x2="400" y2="91.5" stroke="#C9C9C9"/>
<line x1="358" y1="134.5" x2="400" y2="134.5" stroke="#C9C9C9"/>
</g>
<g clip-path="url(#clip1_8107_327844)">
<rect width="42" height="44" transform="translate(358 135)" fill="white"/>
<line x1="358" y1="178.5" x2="400" y2="178.5" stroke="#F1F1F1"/>
</g>
<g clip-path="url(#clip2_8107_327844)">
<rect width="42" height="44" transform="translate(358 179)" fill="white"/>
<line x1="358" y1="222.5" x2="400" y2="222.5" stroke="#F1F1F1"/>
</g>
<rect width="42" height="44" transform="translate(358 223)" fill="white"/>
<rect width="400" height="68" transform="translate(0 23)" fill="white"/>
<rect x="80.5" y="39.5" width="199" height="35" rx="1.5" fill="white"/>
<path fill-rule="evenodd" clip-rule="evenodd" d="M98.62 50.7493C95.93 50.7493 93.7493 52.93 93.7493 55.62C93.7493 58.31 95.93 60.4906 98.62 60.4906C101.31 60.4906 103.491 58.31 103.491 55.62C103.491 52.93 101.31 50.7493 98.62 50.7493ZM93 55.62C93 52.5162 95.5162 50 98.62 50C101.724 50 104.24 52.5162 104.24 55.62C104.24 58.7238 101.724 61.24 98.62 61.24C95.5162 61.24 93 58.7238 93 55.62Z" fill="#323232"/>
<path fill-rule="evenodd" clip-rule="evenodd" d="M102.302 59.3015C102.448 59.1552 102.685 59.1552 102.831 59.3015L104.68 61.1499C104.826 61.2962 104.826 61.5334 104.68 61.6797C104.533 61.8261 104.296 61.8261 104.15 61.6797L102.302 59.8314C102.155 59.6851 102.155 59.4478 102.302 59.3015Z" fill="#323232"/>
<path fill-rule="evenodd" clip-rule="evenodd" d="M105.449 61.7297C105.245 61.5263 104.933 61.5263 104.73 61.7297C104.526 61.9331 104.526 62.2453 104.73 62.4487L105.379 63.0981C105.386 63.1049 105.392 63.112 105.399 63.1192C105.538 63.2822 105.882 63.3138 106.098 63.0981C106.302 62.8948 106.302 62.5825 106.098 62.3791L105.449 61.7297ZM104.2 61.1998C104.696 60.7038 105.483 60.7038 105.979 61.1998L106.628 61.8493C107.124 62.3453 107.124 63.132 106.628 63.628C106.148 64.1081 105.302 64.1428 104.84 63.6189L104.2 62.9786C103.704 62.4826 103.704 61.6958 104.2 61.1998Z" fill="#323232"/>
<rect x="80.5" y="39.5" width="199" height="35" rx="1.5" stroke="#939393"/>
<path d="M312.182 48.5113C312.024 48.1782 311.774 47.897 311.462 47.7004C311.15 47.5037 310.789 47.3997 310.42 47.4004H297.72C297.352 47.4014 296.991 47.5065 296.68 47.7036C296.369 47.9007 296.12 48.1817 295.961 48.5143C295.803 48.8469 295.742 49.2175 295.785 49.5834C295.828 49.9492 295.974 50.2954 296.205 50.5821L301.691 57.3981C301.718 57.4363 301.732 57.4818 301.732 57.5284V65.3661C301.737 65.6918 301.869 66.0027 302.099 66.233C302.33 66.4634 302.64 66.5951 302.966 66.6004C303.191 66.602 303.412 66.5402 303.604 66.4221L305.764 65.1261C305.946 65.0168 306.097 64.8621 306.202 64.6769C306.306 64.4918 306.361 64.2827 306.36 64.0701V57.5284C306.363 57.4811 306.38 57.4357 306.408 57.3981L311.894 50.5821C312.136 50.3008 312.291 49.9561 312.342 49.589C312.393 49.2218 312.338 48.8477 312.182 48.5113ZM311.14 49.9375L305.654 56.7535C305.479 56.9742 305.383 57.2468 305.38 57.5284V64.0701C305.38 64.1055 305.371 64.1403 305.354 64.1714C305.338 64.2025 305.313 64.229 305.284 64.2484L303.124 65.5444C303.092 65.5618 303.057 65.5709 303.021 65.5709C302.985 65.5709 302.95 65.5618 302.918 65.5444C302.885 65.5278 302.857 65.5023 302.838 65.4709C302.819 65.4394 302.808 65.4031 302.808 65.3661V57.5284C302.809 57.2463 302.712 56.9726 302.534 56.7535L297 49.9375C296.89 49.8018 296.821 49.6372 296.801 49.4634C296.782 49.2895 296.813 49.1137 296.891 48.957C296.963 48.7983 297.08 48.6641 297.228 48.5704C297.375 48.4768 297.546 48.4276 297.72 48.429H310.42C310.594 48.4276 310.765 48.4768 310.913 48.5704C311.06 48.6641 311.177 48.7983 311.25 48.957C311.327 49.1137 311.358 49.2895 311.339 49.4634C311.319 49.6372 311.25 49.8018 311.14 49.9375Z" fill="#1473E6"/>
<rect x="328" y="41" width="32" height="32" rx="2" fill="url(#paint0_angular_8107_327844)"/>
<path fill-rule="evenodd" clip-rule="evenodd" d="M340.949 49.8001C340.21 49.8001 339.611 50.3987 339.611 51.1372C339.611 51.8757 340.21 52.4743 340.949 52.4743C341.687 52.4743 342.286 51.8757 342.286 51.1372C342.286 50.3987 341.687 49.8001 340.949 49.8001ZM338.583 51.1372C338.583 49.8307 339.642 48.7715 340.949 48.7715C342.255 48.7715 343.314 49.8307 343.314 51.1372C343.314 52.4437 342.255 53.5029 340.949 53.5029C339.642 53.5029 338.583 52.4437 338.583 51.1372Z" fill="#125AB3"/>
<path fill-rule="evenodd" clip-rule="evenodd" d="M342.286 51.1372C342.286 50.8532 342.516 50.6229 342.8 50.6229H353.086C353.37 50.6229 353.6 50.8532 353.6 51.1372C353.6 51.4212 353.37 51.6515 353.086 51.6515H342.8C342.516 51.6515 342.286 51.4212 342.286 51.1372Z" fill="#125AB3"/>
<path fill-rule="evenodd" clip-rule="evenodd" d="M334.4 51.1372C334.4 50.8532 334.63 50.6229 334.914 50.6229H339.097C339.381 50.6229 339.611 50.8532 339.611 51.1372C339.611 51.4212 339.381 51.6515 339.097 51.6515H334.914C334.63 51.6515 334.4 51.4212 334.4 51.1372Z" fill="#125AB3"/>
<path fill-rule="evenodd" clip-rule="evenodd" d="M340.949 60.9772C340.21 60.9772 339.611 61.5759 339.611 62.3143C339.611 63.0528 340.21 63.6515 340.949 63.6515C341.687 63.6515 342.286 63.0528 342.286 62.3143C342.286 61.5759 341.687 60.9772 340.949 60.9772ZM338.583 62.3143C338.583 61.0078 339.642 59.9486 340.949 59.9486C342.255 59.9486 343.314 61.0078 343.314 62.3143C343.314 63.6209 342.255 64.6801 340.949 64.6801C339.642 64.6801 338.583 63.6209 338.583 62.3143Z" fill="#125AB3"/>
<path fill-rule="evenodd" clip-rule="evenodd" d="M342.286 62.3143C342.286 62.0303 342.516 61.8001 342.8 61.8001H353.086C353.37 61.8001 353.6 62.0303 353.6 62.3143C353.6 62.5984 353.37 62.8286 353.086 62.8286H342.8C342.516 62.8286 342.286 62.5984 342.286 62.3143Z" fill="#125AB3"/>
<path fill-rule="evenodd" clip-rule="evenodd" d="M334.4 62.3143C334.4 62.0303 334.63 61.8001 334.914 61.8001H339.097C339.381 61.8001 339.611 62.0303 339.611 62.3143C339.611 62.5984 339.381 62.8286 339.097 62.8286H334.914C334.63 62.8286 334.4 62.5984 334.4 62.3143Z" fill="#125AB3"/>
<path fill-rule="evenodd" clip-rule="evenodd" d="M346.983 55.3543C346.244 55.3543 345.646 55.953 345.646 56.6915C345.646 57.43 346.244 58.0286 346.983 58.0286C347.721 58.0286 348.32 57.43 348.32 56.6915C348.32 55.953 347.721 55.3543 346.983 55.3543ZM344.617 56.6915C344.617 55.3849 345.676 54.3258 346.983 54.3258C348.289 54.3258 349.349 55.3849 349.349 56.6915C349.349 57.998 348.289 59.0572 346.983 59.0572C345.676 59.0572 344.617 57.998 344.617 56.6915Z" fill="#125AB3"/>
<path fill-rule="evenodd" clip-rule="evenodd" d="M334.4 56.6915C334.4 56.4075 334.63 56.1772 334.914 56.1772H345.131C345.415 56.1772 345.646 56.4075 345.646 56.6915C345.646 56.9755 345.415 57.2058 345.131 57.2058H334.914C334.63 57.2058 334.4 56.9755 334.4 56.6915Z" fill="#125AB3"/>
<path fill-rule="evenodd" clip-rule="evenodd" d="M348.32 56.6915C348.32 56.4075 348.55 56.1772 348.834 56.1772H353.086C353.37 56.1772 353.6 56.4075 353.6 56.6915C353.6 56.9755 353.37 57.2058 353.086 57.2058H348.834C348.55 57.2058 348.32 56.9755 348.32 56.6915Z" fill="#125AB3"/>
<path d="M384 58.5085C384.757 58.5085 385.371 57.8944 385.371 57.137C385.371 56.3796 384.757 55.7656 384 55.7656C383.243 55.7656 382.629 56.3796 382.629 57.137C382.629 57.8944 383.243 58.5085 384 58.5085Z" fill="#1473E6"/>
<path d="M384 64.817C384.757 64.817 385.371 64.203 385.371 63.4456C385.371 62.6882 384.757 62.0742 384 62.0742C383.243 62.0742 382.629 62.6882 382.629 63.4456C382.629 64.203 383.243 64.817 384 64.817Z" fill="#1473E6"/>
<path d="M384 52.1999C384.757 52.1999 385.371 51.5859 385.371 50.8285C385.371 50.071 384.757 49.457 384 49.457C383.243 49.457 382.629 50.071 382.629 50.8285C382.629 51.5859 383.243 52.1999 384 52.1999Z" fill="#1473E6"/>
<rect x="299" width="91" height="32" rx="4" fill="#323232"/>
<path d="M314.432 12.432C315.552 12.432 316.368 12.652 316.88 13.092C317.392 13.532 317.648 14.152 317.648 14.952C317.648 15.424 317.54 15.868 317.324 16.284C317.116 16.692 316.76 17.024 316.256 17.28C315.76 17.536 315.084 17.664 314.228 17.664H313.244V21H312.164V12.432H314.432ZM314.336 13.356H313.244V16.74H314.108C314.924 16.74 315.532 16.608 315.932 16.344C316.332 16.08 316.532 15.632 316.532 15C316.532 14.448 316.352 14.036 315.992 13.764C315.64 13.492 315.088 13.356 314.336 13.356ZM322.286 14.448C322.406 14.448 322.534 14.456 322.67 14.472C322.806 14.48 322.93 14.496 323.042 14.52L322.91 15.492C322.806 15.468 322.69 15.448 322.562 15.432C322.434 15.416 322.318 15.408 322.214 15.408C321.886 15.408 321.578 15.5 321.29 15.684C321.002 15.86 320.77 16.112 320.594 16.44C320.426 16.76 320.342 17.136 320.342 17.568V21H319.286V14.568H320.15L320.27 15.744H320.318C320.518 15.392 320.782 15.088 321.11 14.832C321.446 14.576 321.838 14.448 322.286 14.448ZM326.492 14.448C327.036 14.448 327.508 14.568 327.908 14.808C328.308 15.048 328.612 15.388 328.82 15.828C329.036 16.26 329.144 16.768 329.144 17.352V17.988H324.74C324.756 18.716 324.94 19.272 325.292 19.656C325.652 20.032 326.152 20.22 326.792 20.22C327.2 20.22 327.56 20.184 327.872 20.112C328.192 20.032 328.52 19.92 328.856 19.776V20.7C328.528 20.844 328.204 20.948 327.884 21.012C327.564 21.084 327.184 21.12 326.744 21.12C326.128 21.12 325.588 20.996 325.124 20.748C324.66 20.5 324.296 20.132 324.032 19.644C323.776 19.156 323.648 18.552 323.648 17.832C323.648 17.128 323.764 16.524 323.996 16.02C324.236 15.516 324.568 15.128 324.992 14.856C325.424 14.584 325.924 14.448 326.492 14.448ZM326.48 15.312C325.976 15.312 325.576 15.476 325.28 15.804C324.992 16.124 324.82 16.572 324.764 17.148H328.04C328.032 16.604 327.904 16.164 327.656 15.828C327.408 15.484 327.016 15.312 326.48 15.312ZM333.746 15.384H332.126V21H331.07V15.384H329.942V14.892L331.07 14.532V14.16C331.07 13.328 331.25 12.732 331.61 12.372C331.978 12.004 332.494 11.82 333.158 11.82C333.406 11.82 333.638 11.844 333.854 11.892C334.07 11.932 334.254 11.98 334.406 12.036L334.13 12.864C334.002 12.824 333.854 12.784 333.686 12.744C333.518 12.704 333.346 12.684 333.17 12.684C332.818 12.684 332.554 12.804 332.378 13.044C332.21 13.276 332.126 13.644 332.126 14.148V14.568H333.746V15.384ZM337.391 14.448C337.935 14.448 338.407 14.568 338.807 14.808C339.207 15.048 339.511 15.388 339.719 15.828C339.935 16.26 340.043 16.768 340.043 17.352V17.988H335.639C335.655 18.716 335.839 19.272 336.191 19.656C336.551 20.032 337.051 20.22 337.691 20.22C338.099 20.22 338.459 20.184 338.771 20.112C339.091 20.032 339.419 19.92 339.755 19.776V20.7C339.427 20.844 339.103 20.948 338.783 21.012C338.463 21.084 338.083 21.12 337.643 21.12C337.027 21.12 336.487 20.996 336.023 20.748C335.559 20.5 335.195 20.132 334.931 19.644C334.675 19.156 334.547 18.552 334.547 17.832C334.547 17.128 334.663 16.524 334.895 16.02C335.135 15.516 335.467 15.128 335.891 14.856C336.323 14.584 336.823 14.448 337.391 14.448ZM337.379 15.312C336.875 15.312 336.475 15.476 336.179 15.804C335.891 16.124 335.719 16.572 335.663 17.148H338.939C338.931 16.604 338.803 16.164 338.555 15.828C338.307 15.484 337.915 15.312 337.379 15.312ZM344.68 14.448C344.8 14.448 344.928 14.456 345.064 14.472C345.2 14.48 345.324 14.496 345.436 14.52L345.304 15.492C345.2 15.468 345.084 15.448 344.956 15.432C344.828 15.416 344.712 15.408 344.608 15.408C344.28 15.408 343.972 15.5 343.684 15.684C343.396 15.86 343.164 16.112 342.988 16.44C342.82 16.76 342.736 17.136 342.736 17.568V21H341.68V14.568H342.544L342.664 15.744H342.712C342.912 15.392 343.176 15.088 343.504 14.832C343.84 14.576 344.232 14.448 344.68 14.448ZM348.887 14.448C349.431 14.448 349.903 14.568 350.303 14.808C350.703 15.048 351.007 15.388 351.215 15.828C351.431 16.26 351.539 16.768 351.539 17.352V17.988H347.135C347.151 18.716 347.335 19.272 347.687 19.656C348.047 20.032 348.547 20.22 349.187 20.22C349.595 20.22 349.955 20.184 350.267 20.112C350.587 20.032 350.915 19.92 351.251 19.776V20.7C350.923 20.844 350.599 20.948 350.279 21.012C349.959 21.084 349.579 21.12 349.139 21.12C348.523 21.12 347.983 20.996 347.519 20.748C347.055 20.5 346.691 20.132 346.427 19.644C346.171 19.156 346.043 18.552 346.043 17.832C346.043 17.128 346.159 16.524 346.391 16.02C346.631 15.516 346.963 15.128 347.387 14.856C347.819 14.584 348.319 14.448 348.887 14.448ZM348.875 15.312C348.371 15.312 347.971 15.476 347.675 15.804C347.387 16.124 347.215 16.572 347.159 17.148H350.435C350.427 16.604 350.299 16.164 350.051 15.828C349.803 15.484 349.411 15.312 348.875 15.312ZM356.272 14.448C357.04 14.448 357.62 14.636 358.012 15.012C358.404 15.388 358.6 15.988 358.6 16.812V21H357.556V16.884C357.556 15.852 357.076 15.336 356.116 15.336C355.404 15.336 354.912 15.536 354.64 15.936C354.368 16.336 354.232 16.912 354.232 17.664V21H353.176V14.568H354.028L354.184 15.444H354.244C354.452 15.108 354.74 14.86 355.108 14.7C355.476 14.532 355.864 14.448 356.272 14.448ZM363.174 21.12C362.598 21.12 362.09 21.004 361.65 20.772C361.21 20.54 360.862 20.18 360.606 19.692C360.358 19.204 360.234 18.58 360.234 17.82C360.234 17.028 360.362 16.384 360.618 15.888C360.882 15.392 361.242 15.028 361.698 14.796C362.154 14.564 362.67 14.448 363.246 14.448C363.566 14.448 363.878 14.484 364.182 14.556C364.494 14.62 364.746 14.7 364.938 14.796L364.614 15.672C364.422 15.6 364.198 15.532 363.942 15.468C363.686 15.404 363.446 15.372 363.222 15.372C361.958 15.372 361.326 16.184 361.326 17.808C361.326 18.584 361.478 19.18 361.782 19.596C362.094 20.004 362.554 20.208 363.162 20.208C363.506 20.208 363.814 20.172 364.086 20.1C364.358 20.028 364.606 19.94 364.83 19.836V20.772C364.614 20.884 364.374 20.968 364.11 21.024C363.854 21.088 363.542 21.12 363.174 21.12ZM368.844 14.448C369.388 14.448 369.86 14.568 370.26 14.808C370.66 15.048 370.964 15.388 371.172 15.828C371.388 16.26 371.496 16.768 371.496 17.352V17.988H367.092C367.108 18.716 367.292 19.272 367.644 19.656C368.004 20.032 368.504 20.22 369.144 20.22C369.552 20.22 369.912 20.184 370.224 20.112C370.544 20.032 370.872 19.92 371.208 19.776V20.7C370.88 20.844 370.556 20.948 370.236 21.012C369.916 21.084 369.536 21.12 369.096 21.12C368.48 21.12 367.94 20.996 367.476 20.748C367.012 20.5 366.648 20.132 366.384 19.644C366.128 19.156 366 18.552 366 17.832C366 17.128 366.116 16.524 366.348 16.02C366.588 15.516 366.92 15.128 367.344 14.856C367.776 14.584 368.276 14.448 368.844 14.448ZM368.832 15.312C368.328 15.312 367.928 15.476 367.632 15.804C367.344 16.124 367.172 16.572 367.116 17.148H370.392C370.384 16.604 370.256 16.164 370.008 15.828C369.76 15.484 369.368 15.312 368.832 15.312ZM377.321 19.224C377.321 19.848 377.089 20.32 376.625 20.64C376.161 20.96 375.537 21.12 374.753 21.12C374.305 21.12 373.917 21.084 373.589 21.012C373.269 20.94 372.985 20.84 372.737 20.712V19.752C372.993 19.88 373.301 20 373.661 20.112C374.029 20.216 374.401 20.268 374.777 20.268C375.313 20.268 375.701 20.184 375.941 20.016C376.181 19.84 376.301 19.608 376.301 19.32C376.301 19.16 376.257 19.016 376.169 18.888C376.081 18.76 375.921 18.632 375.689 18.504C375.465 18.376 375.141 18.232 374.717 18.072C374.301 17.912 373.945 17.752 373.649 17.592C373.353 17.432 373.125 17.24 372.965 17.016C372.805 16.792 372.725 16.504 372.725 16.152C372.725 15.608 372.945 15.188 373.385 14.892C373.833 14.596 374.417 14.448 375.137 14.448C375.529 14.448 375.893 14.488 376.229 14.568C376.573 14.648 376.893 14.752 377.189 14.88L376.829 15.72C376.557 15.608 376.273 15.512 375.977 15.432C375.681 15.352 375.377 15.312 375.065 15.312C374.633 15.312 374.301 15.384 374.069 15.528C373.845 15.664 373.733 15.852 373.733 16.092C373.733 16.276 373.785 16.428 373.889 16.548C373.993 16.668 374.165 16.788 374.405 16.908C374.653 17.028 374.981 17.164 375.389 17.316C375.797 17.468 376.145 17.624 376.433 17.784C376.721 17.944 376.941 18.14 377.093 18.372C377.245 18.596 377.321 18.88 377.321 19.224Z" fill="white"/>
<path d="M337.5 32H351.5L344.5 39L337.5 32Z" fill="#323232"/>
<g filter="url(#filter0_d_8107_327844)">
<mask id="path-34-outside-1_8107_327844" maskUnits="userSpaceOnUse" x="346" y="57" width="16" height="19" fill="black">
<rect fill="white" x="346" y="57" width="16" height="19"/>
<path fill-rule="evenodd" clip-rule="evenodd" d="M350.836 68L349.949 66.6453C349.344 65.7203 348.054 65.3829 347.068 65.89L347.298 65.7718C347.053 65.8977 346.935 66.2114 347.036 66.4721L348.263 69.6474C348.458 70.1508 348.955 70.8627 349.367 71.2203C349.367 71.2203 351.836 73.2639 351.836 74.03V75H355.836L356.836 73L357.836 75H358.836V74.03C358.836 73.2639 360.344 70.8507 360.344 70.8507C360.622 70.3816 360.854 69.5552 360.854 69.0066V64.9718C360.836 64.0785 360.076 63.3545 359.139 63.3545C358.671 63.3545 358.291 63.7165 358.291 64.1634V64.4866C358.291 63.5933 357.532 62.8693 356.595 62.8693C356.126 62.8693 355.746 63.2313 355.746 63.6782V64.0013C355.746 63.108 354.987 62.3841 354.05 62.3841C353.581 62.3841 353.201 62.7461 353.201 63.193V63.5161C353.201 63.3726 353.186 63.2584 353.157 63.168L352.898 59.0012C352.863 58.4378 352.388 58 351.836 58C351.279 58 350.836 58.4476 350.836 58.9998V63V68ZM357.854 67H358.854V71H357.854V67ZM355.854 67H356.854V71H355.854V67ZM353.854 67H354.854V71H353.854V67Z"/>
</mask>
<path fill-rule="evenodd" clip-rule="evenodd" d="M350.836 68L349.949 66.6453C349.344 65.7203 348.054 65.3829 347.068 65.89L347.298 65.7718C347.053 65.8977 346.935 66.2114 347.036 66.4721L348.263 69.6474C348.458 70.1508 348.955 70.8627 349.367 71.2203C349.367 71.2203 351.836 73.2639 351.836 74.03V75H355.836L356.836 73L357.836 75H358.836V74.03C358.836 73.2639 360.344 70.8507 360.344 70.8507C360.622 70.3816 360.854 69.5552 360.854 69.0066V64.9718C360.836 64.0785 360.076 63.3545 359.139 63.3545C358.671 63.3545 358.291 63.7165 358.291 64.1634V64.4866C358.291 63.5933 357.532 62.8693 356.595 62.8693C356.126 62.8693 355.746 63.2313 355.746 63.6782V64.0013C355.746 63.108 354.987 62.3841 354.05 62.3841C353.581 62.3841 353.201 62.7461 353.201 63.193V63.5161C353.201 63.3726 353.186 63.2584 353.157 63.168L352.898 59.0012C352.863 58.4378 352.388 58 351.836 58C351.279 58 350.836 58.4476 350.836 58.9998V63V68ZM357.854 67H358.854V71H357.854V67ZM355.854 67H356.854V71H355.854V67ZM353.854 67H354.854V71H353.854V67Z" fill="white"/>
<path d="M350.836 68L349.999 68.5476L351.836 71.354V68H350.836ZM349.949 66.6453L350.786 66.0977L349.949 66.6453ZM347.036 66.4721L346.103 66.8327L347.036 66.4721ZM348.263 69.6474L349.196 69.2869L348.263 69.6474ZM349.367 71.2203L348.711 71.9753L348.72 71.9831L348.729 71.9907L349.367 71.2203ZM351.836 75H350.836V76H351.836V75ZM355.836 75V76H356.454L356.73 75.4472L355.836 75ZM356.836 73L357.73 72.5528L356.836 70.7639L355.941 72.5528L356.836 73ZM357.836 75L356.941 75.4472L357.218 76H357.836V75ZM358.836 75V76H359.836V75H358.836ZM360.344 70.8507L361.192 71.3808L361.199 71.3706L361.205 71.3602L360.344 70.8507ZM360.854 64.9718H361.854V64.9617L361.853 64.9516L360.854 64.9718ZM353.157 63.168L352.158 63.23L352.166 63.3578L352.206 63.4795L353.157 63.168ZM352.898 59.0012L351.9 59.0632V59.0632L352.898 59.0012ZM350.836 58.9998H349.836H350.836ZM358.854 67H359.854V66H358.854V67ZM358.854 71V72H359.854V71H358.854ZM357.854 71H356.854V72H357.854V71ZM356.854 67H357.854V66H356.854V67ZM356.854 71V72H357.854V71H356.854ZM355.854 71H354.854V72H355.854V71ZM354.854 67H355.854V66H354.854V67ZM354.854 71V72H355.854V71H354.854ZM353.854 71H352.854V72H353.854V71ZM351.672 67.4524L350.786 66.0977L349.112 67.193L349.999 68.5476L351.672 67.4524ZM350.786 66.0977C349.898 64.7415 348.049 64.2611 346.61 65.0006L347.525 66.7793C348.059 66.5047 348.789 66.6992 349.112 67.193L350.786 66.0977ZM347.525 66.7793L347.755 66.6612L346.84 64.8825L346.61 65.0006L347.525 66.7793ZM346.84 64.8825C346.131 65.2471 345.822 66.1052 346.103 66.8327L347.969 66.1116C348.014 66.2295 348.005 66.3396 347.974 66.4213C347.944 66.5027 347.876 66.5986 347.755 66.6612L346.84 64.8825ZM346.103 66.8327L347.331 70.0079L349.196 69.2869L347.969 66.1116L346.103 66.8327ZM347.331 70.0079C347.583 70.6618 348.175 71.5096 348.711 71.9753L350.022 70.4653C349.735 70.2158 349.333 69.6398 349.196 69.2869L347.331 70.0079ZM349.367 71.2203C348.729 71.9907 348.729 71.9906 348.729 71.9906C348.729 71.9906 348.729 71.9905 348.729 71.9905C348.729 71.9905 348.729 71.9905 348.729 71.9906C348.729 71.9907 348.729 71.9909 348.73 71.9912C348.73 71.9919 348.732 71.993 348.734 71.9947C348.738 71.9979 348.744 72.003 348.752 72.0099C348.768 72.0237 348.793 72.0445 348.825 72.0716C348.889 72.1259 348.981 72.205 349.092 72.3025C349.315 72.4985 349.609 72.7648 349.9 73.051C350.196 73.3416 350.468 73.6324 350.659 73.8795C350.755 74.0037 350.813 74.0948 350.843 74.1524C350.884 74.23 350.836 74.1741 350.836 74.03H352.836C352.836 73.6944 352.71 73.407 352.616 73.2262C352.511 73.0255 352.376 72.8312 352.241 72.6561C351.969 72.3045 351.624 71.9407 351.302 71.6247C350.976 71.3042 350.653 71.0118 350.413 70.8007C350.292 70.6947 350.191 70.6081 350.12 70.5476C350.085 70.5174 350.056 70.4935 350.037 70.477C350.027 70.4687 350.019 70.4623 350.014 70.4577C350.011 70.4555 350.009 70.4537 350.007 70.4524C350.006 70.4517 350.006 70.4512 350.005 70.4508C350.005 70.4506 350.005 70.4504 350.005 70.4503C350.005 70.4502 350.004 70.4501 350.004 70.4501C350.004 70.45 350.004 70.45 349.367 71.2203ZM350.836 74.03V75H352.836V74.03H350.836ZM351.836 76H355.836V74H351.836V76ZM356.73 75.4472L357.73 73.4472L355.941 72.5528L354.941 74.5528L356.73 75.4472ZM355.941 73.4472L356.941 75.4472L358.73 74.5528L357.73 72.5528L355.941 73.4472ZM357.836 76H358.836V74H357.836V76ZM359.836 75V74.03H357.836V75H359.836ZM359.836 74.03C359.836 74.0658 359.846 73.9439 359.992 73.6C360.116 73.3073 360.288 72.9649 360.47 72.6279C360.65 72.2941 360.831 71.9809 360.968 71.7503C361.037 71.6354 361.093 71.5418 361.133 71.4775C361.152 71.4453 361.168 71.4206 361.178 71.4041C361.183 71.3959 361.187 71.3897 361.189 71.3858C361.19 71.3839 361.191 71.3825 361.192 71.3816C361.192 71.3812 361.192 71.3809 361.192 71.3808C361.192 71.3807 361.192 71.3807 361.192 71.3807C361.192 71.3807 361.192 71.3807 361.192 71.3807C361.192 71.3808 361.192 71.3808 360.344 70.8507C359.496 70.3205 359.496 70.3206 359.496 70.3207C359.496 70.3207 359.496 70.3208 359.496 70.3209C359.496 70.321 359.496 70.3212 359.496 70.3214C359.496 70.3219 359.495 70.3225 359.495 70.3232C359.494 70.3247 359.493 70.3268 359.491 70.3294C359.488 70.3347 359.483 70.3422 359.477 70.3518C359.465 70.3711 359.448 70.3989 359.426 70.4342C359.383 70.5049 359.322 70.6059 359.249 70.7291C359.103 70.9749 358.907 71.3129 358.71 71.6782C358.515 72.0402 358.309 72.4448 358.15 72.82C358.013 73.1441 357.836 73.6111 357.836 74.03H359.836ZM361.205 71.3602C361.403 71.0261 361.559 70.6131 361.667 70.2258C361.774 69.839 361.854 69.4009 361.854 69.0066H359.854C359.854 69.161 359.817 69.4103 359.74 69.6912C359.662 69.9714 359.564 70.2061 359.484 70.3412L361.205 71.3602ZM361.854 69.0066V64.9718H359.854V69.0066H361.854ZM361.853 64.9516C361.824 63.4818 360.588 62.3545 359.139 62.3545V64.3545C359.565 64.3545 359.847 64.6752 359.854 64.992L361.853 64.9516ZM359.139 62.3545C358.164 62.3545 357.291 63.1198 357.291 64.1634H359.291C359.291 64.2317 359.26 64.2858 359.229 64.3152C359.199 64.3437 359.165 64.3545 359.139 64.3545V62.3545ZM357.291 64.1634V64.4866H359.291V64.1634H357.291ZM359.291 64.4866C359.291 62.9966 358.038 61.8693 356.595 61.8693V63.8693C357.025 63.8693 357.291 64.19 357.291 64.4866H359.291ZM356.595 61.8693C355.619 61.8693 354.746 62.6346 354.746 63.6782H356.746C356.746 63.7465 356.715 63.8005 356.685 63.8299C356.655 63.8585 356.621 63.8693 356.595 63.8693V61.8693ZM354.746 63.6782V64.0013H356.746V63.6782H354.746ZM356.746 64.0013C356.746 62.5113 355.494 61.3841 354.05 61.3841V63.3841C354.48 63.3841 354.746 63.7047 354.746 64.0013H356.746ZM354.05 61.3841C353.074 61.3841 352.201 62.1494 352.201 63.193H354.201C354.201 63.2613 354.171 63.3153 354.14 63.3447C354.11 63.3733 354.076 63.3841 354.05 63.3841V61.3841ZM352.201 63.193V63.5161H354.201V63.193H352.201ZM354.201 63.5161C354.201 63.3088 354.18 63.0809 354.107 62.8565L352.206 63.4795C352.198 63.4555 352.198 63.4444 352.199 63.4516C352.199 63.4587 352.201 63.4791 352.201 63.5161H354.201ZM354.155 63.106L353.896 58.9392L351.9 59.0632L352.158 63.23L354.155 63.106ZM353.896 58.9392C353.828 57.845 352.912 57 351.836 57V59C351.844 59 351.86 59.0035 351.877 59.0193C351.893 59.0344 351.899 59.0498 351.9 59.0632L353.896 58.9392ZM351.836 57C350.725 57 349.836 57.8977 349.836 58.9998H351.836V59V57ZM349.836 58.9998V63H351.836V58.9998H349.836ZM349.836 63V68H351.836V63H349.836ZM357.854 68H358.854V66H357.854V68ZM357.854 67V71H359.854V67H357.854ZM358.854 70H357.854V72H358.854V70ZM358.854 71V67H356.854V71H358.854ZM355.854 68H356.854V66H355.854V68ZM355.854 67V71H357.854V67H355.854ZM356.854 70H355.854V72H356.854V70ZM356.854 71V67H354.854V71H356.854ZM353.854 68H354.854V66H353.854V68ZM353.854 67V71H355.854V67H353.854ZM354.854 70H353.854V72H354.854V70ZM354.854 71V67H352.854V71H354.854Z" fill="black" fill-opacity="0.8" mask="url(#path-34-outside-1_8107_327844)"/>
</g>
<defs>
<filter id="filter0_d_8107_327844" x="343" y="55" width="21.8535" height="25" filterUnits="userSpaceOnUse" color-interpolation-filters="sRGB">
<feFlood flood-opacity="0" result="BackgroundImageFix"/>
<feColorMatrix in="SourceAlpha" type="matrix" values="0 0 0 0 0 0 0 0 0 0 0 0 0 0 0 0 0 0 127 0" result="hardAlpha"/>
<feOffset dy="1"/>
<feGaussianBlur stdDeviation="1.5"/>
<feColorMatrix type="matrix" values="0 0 0 0 0 0 0 0 0 0 0 0 0 0 0 0 0 0 0.2 0"/>
<feBlend mode="normal" in2="BackgroundImageFix" result="effect1_dropShadow_8107_327844"/>
<feBlend mode="normal" in="SourceGraphic" in2="effect1_dropShadow_8107_327844" result="shape"/>
</filter>
<radialGradient id="paint0_angular_8107_327844" cx="0" cy="0" r="1" gradientUnits="userSpaceOnUse" gradientTransform="translate(336.123 41) rotate(48.3339) scale(35.9165 1.67835e-06)">
<stop stop-color="white"/>
<stop offset="1" stop-color="#EBECED"/>
</radialGradient>
<clipPath id="clip0_8107_327844">
<rect width="42" height="44" fill="white" transform="translate(358 91)"/>
</clipPath>
<clipPath id="clip1_8107_327844">
<rect width="42" height="44" fill="white" transform="translate(358 135)"/>
</clipPath>
<clipPath id="clip2_8107_327844">
<rect width="42" height="44" fill="white" transform="translate(358 179)"/>
</clipPath>
</defs>
</svg>
