<svg width="400" height="245" viewBox="0 0 400 245" fill="none" xmlns="http://www.w3.org/2000/svg">
<rect width="400" height="68" transform="translate(0 0.5)" fill="white"/>
<rect y="16.5" width="100" height="36" rx="2" fill="#1473E6"/>
<path d="M29.05 34.1H24.35V29.4C24.35 29.2 24.2 29 23.95 29C23.7 29 23.55 29.15 23.55 29.4V34.1H18.9C18.7 34.1 18.5 34.25 18.5 34.5C18.5 34.75 18.65 34.9 18.9 34.9H23.6V39.6C23.6 39.8 23.75 40 24 40C24.25 40 24.4 39.85 24.4 39.6V34.9H29.1C29.3 34.9 29.5 34.75 29.5 34.5C29.5 34.25 29.25 34.1 29.05 34.1Z" fill="white"/>
<path d="M45.642 30.47C44.5687 30.47 43.724 30.8293 43.108 31.548C42.492 32.2667 42.184 33.2513 42.184 34.502C42.184 35.7433 42.4687 36.728 43.038 37.456C43.6167 38.1747 44.48 38.534 45.628 38.534C46.0573 38.534 46.468 38.4967 46.86 38.422C47.252 38.3473 47.6393 38.254 48.022 38.142V39.234C47.6487 39.374 47.2613 39.4767 46.86 39.542C46.468 39.6073 45.9967 39.64 45.446 39.64C44.4287 39.64 43.5793 39.43 42.898 39.01C42.2167 38.59 41.7033 37.9927 41.358 37.218C41.022 36.4433 40.854 35.5333 40.854 34.488C40.854 33.48 41.036 32.5933 41.4 31.828C41.7733 31.0533 42.3193 30.4513 43.038 30.022C43.7567 29.5833 44.6293 29.364 45.656 29.364C46.7107 29.364 47.63 29.56 48.414 29.952L47.91 31.016C47.602 30.876 47.2567 30.75 46.874 30.638C46.5007 30.526 46.09 30.47 45.642 30.47ZM53.5357 31.856C53.6757 31.856 53.825 31.8653 53.9837 31.884C54.1424 31.8933 54.287 31.912 54.4177 31.94L54.2637 33.074C54.1424 33.046 54.007 33.0227 53.8577 33.004C53.7084 32.9853 53.573 32.976 53.4517 32.976C53.069 32.976 52.7097 33.0833 52.3737 33.298C52.0377 33.5033 51.767 33.7973 51.5617 34.18C51.3657 34.5533 51.2677 34.992 51.2677 35.496V39.5H50.0357V31.996H51.0437L51.1837 33.368H51.2397C51.473 32.9573 51.781 32.6027 52.1637 32.304C52.5557 32.0053 53.013 31.856 53.5357 31.856ZM58.4435 31.856C59.0781 31.856 59.6288 31.996 60.0955 32.276C60.5621 32.556 60.9168 32.9527 61.1595 33.466C61.4115 33.97 61.5375 34.5627 61.5375 35.244V35.986H56.3995C56.4181 36.8353 56.6328 37.484 57.0435 37.932C57.4635 38.3707 58.0468 38.59 58.7935 38.59C59.2695 38.59 59.6895 38.548 60.0535 38.464C60.4268 38.3707 60.8095 38.24 61.2015 38.072V39.15C60.8188 39.318 60.4408 39.4393 60.0675 39.514C59.6941 39.598 59.2508 39.64 58.7375 39.64C58.0188 39.64 57.3888 39.4953 56.8475 39.206C56.3061 38.9167 55.8815 38.4873 55.5735 37.918C55.2748 37.3487 55.1255 36.644 55.1255 35.804C55.1255 34.9827 55.2608 34.278 55.5315 33.69C55.8115 33.102 56.1988 32.6493 56.6935 32.332C57.1975 32.0147 57.7808 31.856 58.4435 31.856ZM58.4295 32.864C57.8415 32.864 57.3748 33.0553 57.0295 33.438C56.6935 33.8113 56.4928 34.334 56.4275 35.006H60.2495C60.2401 34.3713 60.0908 33.858 59.8015 33.466C59.5121 33.0647 59.0548 32.864 58.4295 32.864ZM66.2898 31.87C67.2045 31.87 67.8811 32.0707 68.3198 32.472C68.7585 32.8733 68.9778 33.5127 68.9778 34.39V39.5H68.0818L67.8438 38.436H67.7878C67.4611 38.8467 67.1158 39.15 66.7518 39.346C66.3878 39.542 65.8931 39.64 65.2678 39.64C64.5865 39.64 64.0218 39.4627 63.5738 39.108C63.1258 38.744 62.9018 38.1793 62.9018 37.414C62.9018 36.6673 63.1958 36.0933 63.7838 35.692C64.3718 35.2813 65.2771 35.0573 66.4998 35.02L67.7738 34.978V34.53C67.7738 33.9047 67.6385 33.4707 67.3678 33.228C67.0971 32.9853 66.7145 32.864 66.2198 32.864C65.8278 32.864 65.4545 32.9247 65.0998 33.046C64.7451 33.158 64.4138 33.2887 64.1058 33.438L63.7278 32.514C64.0545 32.3367 64.4418 32.1873 64.8898 32.066C65.3378 31.9353 65.8045 31.87 66.2898 31.87ZM67.7598 35.832L66.6538 35.874C65.7205 35.9113 65.0718 36.0607 64.7078 36.322C64.3531 36.5833 64.1758 36.952 64.1758 37.428C64.1758 37.848 64.3018 38.156 64.5538 38.352C64.8151 38.548 65.1465 38.646 65.5478 38.646C66.1731 38.646 66.6958 38.4733 67.1158 38.128C67.5451 37.7733 67.7598 37.232 67.7598 36.504V35.832ZM73.8015 38.632C73.9881 38.632 74.1795 38.618 74.3755 38.59C74.5715 38.562 74.7301 38.5247 74.8515 38.478V39.416C74.7208 39.4813 74.5341 39.5327 74.2915 39.57C74.0488 39.6167 73.8155 39.64 73.5915 39.64C73.1995 39.64 72.8355 39.5747 72.4995 39.444C72.1728 39.304 71.9068 39.066 71.7015 38.73C71.4961 38.394 71.3935 37.9227 71.3935 37.316V32.948H70.3295V32.36L71.4075 31.87L71.8975 30.274H72.6255V31.996H74.7955V32.948H72.6255V37.288C72.6255 37.7453 72.7328 38.086 72.9475 38.31C73.1715 38.5247 73.4561 38.632 73.8015 38.632ZM79.2521 31.856C79.8867 31.856 80.4374 31.996 80.9041 32.276C81.3707 32.556 81.7254 32.9527 81.9681 33.466C82.2201 33.97 82.3461 34.5627 82.3461 35.244V35.986H77.2081C77.2267 36.8353 77.4414 37.484 77.8521 37.932C78.2721 38.3707 78.8554 38.59 79.6021 38.59C80.0781 38.59 80.4981 38.548 80.8621 38.464C81.2354 38.3707 81.6181 38.24 82.0101 38.072V39.15C81.6274 39.318 81.2494 39.4393 80.8761 39.514C80.5027 39.598 80.0594 39.64 79.5461 39.64C78.8274 39.64 78.1974 39.4953 77.6561 39.206C77.1147 38.9167 76.6901 38.4873 76.3821 37.918C76.0834 37.3487 75.9341 36.644 75.9341 35.804C75.9341 34.9827 76.0694 34.278 76.3401 33.69C76.6201 33.102 77.0074 32.6493 77.5021 32.332C78.0061 32.0147 78.5894 31.856 79.2521 31.856ZM79.2381 32.864C78.6501 32.864 78.1834 33.0553 77.8381 33.438C77.5021 33.8113 77.3014 34.334 77.2361 35.006H81.0581C81.0487 34.3713 80.8994 33.858 80.6101 33.466C80.3207 33.0647 79.8634 32.864 79.2381 32.864Z" fill="white"/>
<path fill-rule="evenodd" clip-rule="evenodd" d="M137.794 28.7059C137.189 28.1007 136.174 28.1007 135.568 28.7059L135.568 28.7067L134.978 29.2929L137.185 31.5404L137.794 30.9315C138.399 30.3263 138.399 29.3111 137.794 28.7059ZM136.653 32.0721L134.445 29.8231L127.222 37.0022C127.219 37.0066 127.216 37.0109 127.214 37.0153L129.462 39.2637L136.653 32.0721ZM128.741 39.606L126.894 37.7592L125.971 40.5295L128.741 39.606ZM135.037 28.1739C135.936 27.2753 137.427 27.2754 138.326 28.1741C139.225 29.073 139.225 30.5644 138.326 31.4633L129.953 39.8357C129.817 39.9723 129.617 40.1065 129.405 40.1772L125.495 41.4807C125.36 41.5257 125.211 41.4906 125.11 41.3899C125.009 41.2892 124.974 41.1402 125.019 41.0051L126.323 37.0946C126.389 36.8955 126.514 36.7087 126.606 36.5711C126.61 36.5652 126.614 36.5594 126.617 36.5537C126.631 36.5328 126.647 36.5134 126.665 36.4956L135.037 28.1741C135.037 28.174 135.037 28.174 135.037 28.1739Z" fill="#1473E6"/>
<path d="M154.944 39.5H149.358V29.504H154.944V30.61H150.618V33.732H154.692V34.824H150.618V38.394H154.944V39.5ZM159.629 39.64C158.696 39.64 157.949 39.318 157.389 38.674C156.829 38.0207 156.549 37.05 156.549 35.762C156.549 34.474 156.829 33.5033 157.389 32.85C157.959 32.1873 158.71 31.856 159.643 31.856C160.222 31.856 160.693 31.9633 161.057 32.178C161.431 32.3927 161.734 32.654 161.967 32.962H162.051C162.033 32.8407 162.014 32.6633 161.995 32.43C161.977 32.1873 161.967 31.996 161.967 31.856V28.86H163.199V39.5H162.205L162.023 38.492H161.967C161.743 38.8093 161.445 39.08 161.071 39.304C160.698 39.528 160.217 39.64 159.629 39.64ZM159.825 38.618C160.619 38.618 161.174 38.4033 161.491 37.974C161.818 37.5353 161.981 36.8773 161.981 36V35.776C161.981 34.8427 161.827 34.1287 161.519 33.634C161.211 33.13 160.642 32.878 159.811 32.878C159.149 32.878 158.649 33.144 158.313 33.676C157.987 34.1987 157.823 34.9033 157.823 35.79C157.823 36.686 157.987 37.3813 158.313 37.876C158.649 38.3707 159.153 38.618 159.825 38.618ZM166.213 29.182C166.399 29.182 166.563 29.2473 166.703 29.378C166.852 29.4993 166.927 29.6953 166.927 29.966C166.927 30.2367 166.852 30.4373 166.703 30.568C166.563 30.6893 166.399 30.75 166.213 30.75C166.007 30.75 165.835 30.6893 165.695 30.568C165.555 30.4373 165.485 30.2367 165.485 29.966C165.485 29.6953 165.555 29.4993 165.695 29.378C165.835 29.2473 166.007 29.182 166.213 29.182ZM166.815 31.996V39.5H165.583V31.996H166.815ZM171.698 38.632C171.885 38.632 172.076 38.618 172.272 38.59C172.468 38.562 172.627 38.5247 172.748 38.478V39.416C172.617 39.4813 172.431 39.5327 172.188 39.57C171.945 39.6167 171.712 39.64 171.488 39.64C171.096 39.64 170.732 39.5747 170.396 39.444C170.069 39.304 169.803 39.066 169.598 38.73C169.393 38.394 169.29 37.9227 169.29 37.316V32.948H168.226V32.36L169.304 31.87L169.794 30.274H170.522V31.996H172.692V32.948H170.522V37.288C170.522 37.7453 170.629 38.086 170.844 38.31C171.068 38.5247 171.353 38.632 171.698 38.632Z" fill="#1473E6"/>
<path d="M228.6 29.6H225.45V28.95C225.45 28.15 224.8 27.5 224 27.5H220.45C219.7 27.5 219.05 28.15 219.05 28.95V29.65H215.9C215.65 29.6 215.5 29.8 215.5 30C215.5 30.2 215.65 30.4 215.9 30.4H217.15L217.6 40.15C217.6 40.9 218.25 41.5 219 41.5H225.45C226.2 41.5 226.85 40.9 226.9 40.15L227.35 30.4H228.6C228.8 30.4 229 30.25 229 30C229 29.75 228.8 29.6 228.6 29.6ZM219.8 28.95C219.8 28.55 220.1 28.25 220.5 28.25H224C224.4 28.25 224.7 28.55 224.7 28.95V29.65H219.8V28.95ZM226.15 40.1C226.15 40.45 225.85 40.75 225.45 40.75H219C218.65 40.75 218.35 40.45 218.3 40.1L217.85 30.35H226.6L226.15 40.1Z" fill="#D93D32"/>
<path d="M220.75 38.9C220.95 38.9 221.15 38.75 221.15 38.5V32.6C221.15 32.4 221 32.2 220.75 32.2C220.5 32.2 220.35 32.35 220.35 32.6V38.5C220.35 38.7 220.5 38.9 220.75 38.9Z" fill="#D93D32"/>
<path d="M223.75 38.9C223.95 38.9 224.15 38.75 224.15 38.5V32.6C224.15 32.4 224 32.2 223.75 32.2C223.5 32.2 223.35 32.35 223.35 32.6V38.5C223.35 38.7 223.55 38.9 223.75 38.9Z" fill="#D93D32"/>
<path d="M247.366 34.404C247.366 36.0933 246.904 37.3673 245.98 38.226C245.065 39.0753 243.787 39.5 242.144 39.5H239.358V29.504H242.438C243.437 29.504 244.305 29.6907 245.042 30.064C245.789 30.4373 246.363 30.988 246.764 31.716C247.165 32.444 247.366 33.34 247.366 34.404ZM246.036 34.446C246.036 33.1113 245.705 32.136 245.042 31.52C244.389 30.8947 243.46 30.582 242.256 30.582H240.618V38.422H241.976C244.683 38.422 246.036 37.0967 246.036 34.446ZM252.315 31.856C252.949 31.856 253.5 31.996 253.967 32.276C254.433 32.556 254.788 32.9527 255.031 33.466C255.283 33.97 255.409 34.5627 255.409 35.244V35.986H250.271C250.289 36.8353 250.504 37.484 250.915 37.932C251.335 38.3707 251.918 38.59 252.665 38.59C253.141 38.59 253.561 38.548 253.925 38.464C254.298 38.3707 254.681 38.24 255.073 38.072V39.15C254.69 39.318 254.312 39.4393 253.939 39.514C253.565 39.598 253.122 39.64 252.609 39.64C251.89 39.64 251.26 39.4953 250.719 39.206C250.177 38.9167 249.753 38.4873 249.445 37.918C249.146 37.3487 248.997 36.644 248.997 35.804C248.997 34.9827 249.132 34.278 249.403 33.69C249.683 33.102 250.07 32.6493 250.565 32.332C251.069 32.0147 251.652 31.856 252.315 31.856ZM252.301 32.864C251.713 32.864 251.246 33.0553 250.901 33.438C250.565 33.8113 250.364 34.334 250.299 35.006H254.121C254.111 34.3713 253.962 33.858 253.673 33.466C253.383 33.0647 252.926 32.864 252.301 32.864ZM258.551 39.5H257.319V28.86H258.551V39.5ZM263.826 31.856C264.461 31.856 265.012 31.996 265.478 32.276C265.945 32.556 266.3 32.9527 266.542 33.466C266.794 33.97 266.92 34.5627 266.92 35.244V35.986H261.782C261.801 36.8353 262.016 37.484 262.426 37.932C262.846 38.3707 263.43 38.59 264.176 38.59C264.652 38.59 265.072 38.548 265.436 38.464C265.81 38.3707 266.192 38.24 266.584 38.072V39.15C266.202 39.318 265.824 39.4393 265.45 39.514C265.077 39.598 264.634 39.64 264.12 39.64C263.402 39.64 262.772 39.4953 262.23 39.206C261.689 38.9167 261.264 38.4873 260.956 37.918C260.658 37.3487 260.508 36.644 260.508 35.804C260.508 34.9827 260.644 34.278 260.914 33.69C261.194 33.102 261.582 32.6493 262.076 32.332C262.58 32.0147 263.164 31.856 263.826 31.856ZM263.812 32.864C263.224 32.864 262.758 33.0553 262.412 33.438C262.076 33.8113 261.876 34.334 261.81 35.006H265.632C265.623 34.3713 265.474 33.858 265.184 33.466C264.895 33.0647 264.438 32.864 263.812 32.864ZM271.337 38.632C271.523 38.632 271.715 38.618 271.911 38.59C272.107 38.562 272.265 38.5247 272.387 38.478V39.416C272.256 39.4813 272.069 39.5327 271.827 39.57C271.584 39.6167 271.351 39.64 271.127 39.64C270.735 39.64 270.371 39.5747 270.035 39.444C269.708 39.304 269.442 39.066 269.237 38.73C269.031 38.394 268.929 37.9227 268.929 37.316V32.948H267.865V32.36L268.943 31.87L269.433 30.274H270.161V31.996H272.331V32.948H270.161V37.288C270.161 37.7453 270.268 38.086 270.483 38.31C270.707 38.5247 270.991 38.632 271.337 38.632ZM276.787 31.856C277.422 31.856 277.973 31.996 278.439 32.276C278.906 32.556 279.261 32.9527 279.503 33.466C279.755 33.97 279.881 34.5627 279.881 35.244V35.986H274.743C274.762 36.8353 274.977 37.484 275.387 37.932C275.807 38.3707 276.391 38.59 277.137 38.59C277.613 38.59 278.033 38.548 278.397 38.464C278.771 38.3707 279.153 38.24 279.545 38.072V39.15C279.163 39.318 278.785 39.4393 278.411 39.514C278.038 39.598 277.595 39.64 277.081 39.64C276.363 39.64 275.733 39.4953 275.191 39.206C274.65 38.9167 274.225 38.4873 273.917 37.918C273.619 37.3487 273.469 36.644 273.469 35.804C273.469 34.9827 273.605 34.278 273.875 33.69C274.155 33.102 274.543 32.6493 275.037 32.332C275.541 32.0147 276.125 31.856 276.787 31.856ZM276.773 32.864C276.185 32.864 275.719 33.0553 275.373 33.438C275.037 33.8113 274.837 34.334 274.771 35.006H278.593C278.584 34.3713 278.435 33.858 278.145 33.466C277.856 33.0647 277.399 32.864 276.773 32.864ZM284.798 35.664C284.798 34.5253 284.962 33.4287 285.288 32.374C285.624 31.31 286.147 30.3533 286.856 29.504H288.018C287.365 30.3813 286.87 31.3473 286.534 32.402C286.208 33.4567 286.044 34.5393 286.044 35.65C286.044 36.7327 286.208 37.7967 286.534 38.842C286.87 39.878 287.36 40.8347 288.004 41.712H286.856C286.147 40.8907 285.624 39.962 285.288 38.926C284.962 37.8807 284.798 36.7933 284.798 35.664ZM295.156 33.396L294.722 35.636H296.64V36.574H294.54L293.966 39.5H292.972L293.546 36.574H291.544L290.998 39.5H290.018L290.55 36.574H288.786V35.636H290.732L291.18 33.396H289.304V32.472H291.348L291.908 29.504H292.916L292.356 32.472H294.372L294.932 29.504H295.898L295.338 32.472H297.116V33.396H295.156ZM291.726 35.636H293.728L294.162 33.396H292.16L291.726 35.636ZM301.126 35.664C301.126 36.7933 300.958 37.8807 300.622 38.926C300.296 39.962 299.778 40.8907 299.068 41.712H297.92C298.564 40.8347 299.05 39.878 299.376 38.842C299.712 37.7967 299.88 36.7327 299.88 35.65C299.88 34.5393 299.712 33.4567 299.376 32.402C299.05 31.3473 298.56 30.3813 297.906 29.504H299.068C299.778 30.3533 300.296 31.31 300.622 32.374C300.958 33.4287 301.126 34.5253 301.126 35.664Z" fill="#D93D32"/>
<rect width="179" height="44" transform="translate(36 68.5)" fill="white"/>
<path d="M57.558 86.876C56.6527 86.876 55.948 87.2027 55.444 87.856C54.94 88.5 54.688 89.3867 54.688 90.516C54.688 91.6547 54.9213 92.5413 55.388 93.176C55.8547 93.8107 56.5733 94.128 57.544 94.128C57.964 94.128 58.3747 94.086 58.776 94.002C59.1867 93.9087 59.6067 93.7873 60.036 93.638V95.164C59.6253 95.332 59.21 95.4533 58.79 95.528C58.3793 95.6027 57.9033 95.64 57.362 95.64C56.3353 95.64 55.486 95.43 54.814 95.01C54.142 94.5807 53.6427 93.9833 53.316 93.218C52.9893 92.4433 52.826 91.538 52.826 90.502C52.826 89.494 53.008 88.6073 53.372 87.842C53.736 87.0673 54.268 86.4607 54.968 86.022C55.6773 85.5833 56.5407 85.364 57.558 85.364C58.062 85.364 58.5567 85.42 59.042 85.532C59.5367 85.644 59.9987 85.8073 60.428 86.022L59.812 87.492C59.4573 87.3333 59.0887 87.1933 58.706 87.072C58.3327 86.9413 57.95 86.876 57.558 86.876ZM68.7547 87.912V95.5H67.3687L67.1307 94.52H67.0467C66.8041 94.912 66.4681 95.1967 66.0387 95.374C65.6094 95.5513 65.1567 95.64 64.6807 95.64C63.8314 95.64 63.1641 95.4207 62.6787 94.982C62.2027 94.5433 61.9647 93.8387 61.9647 92.868V87.912H63.7287V92.518C63.7287 93.0873 63.8407 93.512 64.0647 93.792C64.2887 94.072 64.6434 94.212 65.1287 94.212C65.8381 94.212 66.3234 93.988 66.5847 93.54C66.8554 93.092 66.9907 92.4527 66.9907 91.622V87.912H68.7547ZM76.1691 93.302C76.1691 94.0673 75.8938 94.6507 75.3431 95.052C74.8018 95.444 74.0225 95.64 73.0051 95.64C72.4731 95.64 72.0158 95.6027 71.6331 95.528C71.2598 95.4533 70.8958 95.3367 70.5411 95.178V93.68C70.9145 93.8573 71.3251 94.0067 71.7731 94.128C72.2305 94.2493 72.6598 94.31 73.0611 94.31C73.5465 94.31 73.8965 94.2353 74.1111 94.086C74.3258 93.9367 74.4331 93.736 74.4331 93.484C74.4331 93.3347 74.3911 93.204 74.3071 93.092C74.2231 92.9707 74.0598 92.84 73.8171 92.7C73.5745 92.56 73.2058 92.3873 72.7111 92.182C72.2258 91.986 71.8198 91.79 71.4931 91.594C71.1758 91.398 70.9331 91.1647 70.7651 90.894C70.6065 90.6233 70.5271 90.2733 70.5271 89.844C70.5271 89.1627 70.7978 88.6493 71.3391 88.304C71.8805 87.9493 72.5945 87.772 73.4811 87.772C73.9478 87.772 74.3865 87.8187 74.7971 87.912C75.2171 88.0053 75.6371 88.1453 76.0571 88.332L75.4971 89.634C75.1425 89.4847 74.7971 89.3587 74.4611 89.256C74.1251 89.1533 73.7798 89.102 73.4251 89.102C72.6505 89.102 72.2631 89.3213 72.2631 89.76C72.2631 89.9187 72.3098 90.054 72.4031 90.166C72.5058 90.278 72.6785 90.3993 72.9211 90.53C73.1731 90.6513 73.5278 90.8007 73.9851 90.978C74.4331 91.1553 74.8205 91.342 75.1471 91.538C75.4738 91.7247 75.7258 91.958 75.9031 92.238C76.0805 92.5087 76.1691 92.8633 76.1691 93.302ZM80.8064 94.226C81.0211 94.226 81.2311 94.2073 81.4364 94.17C81.6511 94.1233 81.8471 94.072 82.0244 94.016V95.332C81.8378 95.4253 81.5951 95.5 81.2964 95.556C80.9978 95.612 80.6851 95.64 80.3584 95.64C79.9198 95.64 79.5231 95.57 79.1684 95.43C78.8231 95.29 78.5478 95.0427 78.3424 94.688C78.1371 94.3333 78.0344 93.834 78.0344 93.19V89.242H77.0124V88.472L78.1324 87.856L78.6924 86.246H79.7984V87.912H81.9544V89.242H79.7984V93.176C79.7984 93.5307 79.8918 93.7967 80.0784 93.974C80.2744 94.142 80.5171 94.226 80.8064 94.226ZM90.3299 91.692C90.3299 92.952 90.0033 93.9273 89.3499 94.618C88.6966 95.2993 87.8099 95.64 86.6899 95.64C85.9993 95.64 85.3833 95.486 84.8419 95.178C84.3006 94.87 83.8759 94.422 83.5679 93.834C83.2599 93.246 83.1059 92.532 83.1059 91.692C83.1059 90.432 83.4279 89.466 84.0719 88.794C84.7253 88.1127 85.6119 87.772 86.7319 87.772C87.4319 87.772 88.0526 87.926 88.5939 88.234C89.1353 88.5327 89.5599 88.976 89.8679 89.564C90.1759 90.1427 90.3299 90.852 90.3299 91.692ZM84.9119 91.692C84.9119 92.4947 85.0519 93.1153 85.3319 93.554C85.6213 93.9927 86.0833 94.212 86.7179 94.212C87.3433 94.212 87.8006 93.9927 88.0899 93.554C88.3793 93.1153 88.5239 92.4947 88.5239 91.692C88.5239 90.8893 88.3793 90.2733 88.0899 89.844C87.8006 89.4147 87.3386 89.2 86.7039 89.2C86.0693 89.2 85.6119 89.4147 85.3319 89.844C85.0519 90.2733 84.9119 90.8893 84.9119 91.692ZM100.848 87.772C101.706 87.772 102.35 87.9913 102.78 88.43C103.218 88.8687 103.438 89.578 103.438 90.558V95.5H101.674V90.894C101.674 89.7647 101.244 89.2 100.386 89.2C99.7695 89.2 99.3309 89.4007 99.0695 89.802C98.8082 90.2033 98.6775 90.7867 98.6775 91.552V95.5H96.9135V90.894C96.9135 89.7647 96.4795 89.2 95.6115 89.2C94.9675 89.2 94.5242 89.424 94.2815 89.872C94.0389 90.32 93.9175 90.9593 93.9175 91.79V95.5H92.1535V87.912H93.5115L93.7635 88.906H93.8615C94.0949 88.514 94.4122 88.2293 94.8135 88.052C95.2149 87.8653 95.6349 87.772 96.0735 87.772C96.6429 87.772 97.1189 87.8653 97.5015 88.052C97.8935 88.2387 98.1922 88.5373 98.3975 88.948H98.5375C98.7709 88.5373 99.0975 88.2387 99.5175 88.052C99.9375 87.8653 100.381 87.772 100.848 87.772ZM108.7 87.772C109.717 87.772 110.52 88.0753 111.108 88.682C111.705 89.2887 112.004 90.1333 112.004 91.216V92.112H106.992C107.01 92.8027 107.202 93.3393 107.566 93.722C107.93 94.0953 108.434 94.282 109.078 94.282C109.563 94.282 110.002 94.2353 110.394 94.142C110.786 94.0393 111.187 93.8947 111.598 93.708V95.122C111.224 95.2993 110.837 95.43 110.436 95.514C110.034 95.598 109.554 95.64 108.994 95.64C108.247 95.64 107.589 95.5 107.02 95.22C106.45 94.9307 106.002 94.5013 105.676 93.932C105.358 93.3533 105.2 92.63 105.2 91.762C105.2 90.4647 105.517 89.4753 106.152 88.794C106.796 88.1127 107.645 87.772 108.7 87.772ZM108.7 89.074C108.224 89.074 107.836 89.228 107.538 89.536C107.248 89.8347 107.08 90.2827 107.034 90.88H110.296C110.286 90.3573 110.151 89.928 109.89 89.592C109.638 89.2467 109.241 89.074 108.7 89.074ZM117.758 87.772C117.88 87.772 118.015 87.7813 118.164 87.8C118.314 87.8093 118.435 87.8233 118.528 87.842L118.374 89.48C118.281 89.4613 118.164 89.4473 118.024 89.438C117.894 89.4193 117.782 89.41 117.688 89.41C117.315 89.41 116.965 89.4893 116.638 89.648C116.312 89.7973 116.046 90.0307 115.84 90.348C115.644 90.6653 115.546 91.0713 115.546 91.566V95.5H113.782V87.912H115.14L115.392 89.228H115.476C115.7 88.8267 116.008 88.486 116.4 88.206C116.792 87.9167 117.245 87.772 117.758 87.772ZM132.238 95.5H130.012L125.28 87.66H125.224C125.242 88.08 125.261 88.5327 125.28 89.018C125.308 89.494 125.331 89.9747 125.35 90.46V95.5H123.74V85.504H125.952L130.669 93.288H130.712C130.702 92.9147 130.684 92.4853 130.656 92C130.637 91.5147 130.623 91.0433 130.614 90.586V85.504H132.238V95.5ZM137.697 87.772C138.677 87.772 139.419 87.9867 139.923 88.416C140.436 88.8453 140.693 89.508 140.693 90.404V95.5H139.447L139.097 94.45H139.041C138.714 94.8607 138.369 95.164 138.005 95.36C137.641 95.5467 137.146 95.64 136.521 95.64C135.84 95.64 135.275 95.4487 134.827 95.066C134.379 94.6833 134.155 94.0907 134.155 93.288C134.155 92.504 134.44 91.916 135.009 91.524C135.588 91.132 136.46 90.9127 137.627 90.866L138.943 90.824V90.446C138.943 89.9607 138.826 89.6153 138.593 89.41C138.36 89.2047 138.033 89.102 137.613 89.102C137.23 89.102 136.862 89.158 136.507 89.27C136.162 89.3727 135.816 89.5033 135.471 89.662L134.911 88.43C135.284 88.234 135.709 88.0753 136.185 87.954C136.67 87.8327 137.174 87.772 137.697 87.772ZM138.943 91.916L138.019 91.944C137.244 91.972 136.708 92.1073 136.409 92.35C136.11 92.5833 135.961 92.9007 135.961 93.302C135.961 93.666 136.064 93.9273 136.269 94.086C136.484 94.2353 136.764 94.31 137.109 94.31C137.622 94.31 138.056 94.1653 138.411 93.876C138.766 93.5773 138.943 93.1387 138.943 92.56V91.916ZM151.598 87.772C152.456 87.772 153.1 87.9913 153.53 88.43C153.968 88.8687 154.188 89.578 154.188 90.558V95.5H152.424V90.894C152.424 89.7647 151.994 89.2 151.136 89.2C150.52 89.2 150.081 89.4007 149.82 89.802C149.558 90.2033 149.428 90.7867 149.428 91.552V95.5H147.664V90.894C147.664 89.7647 147.23 89.2 146.362 89.2C145.718 89.2 145.274 89.424 145.032 89.872C144.789 90.32 144.668 90.9593 144.668 91.79V95.5H142.904V87.912H144.262L144.514 88.906H144.612C144.845 88.514 145.162 88.2293 145.564 88.052C145.965 87.8653 146.385 87.772 146.824 87.772C147.393 87.772 147.869 87.8653 148.252 88.052C148.644 88.2387 148.942 88.5373 149.148 88.948H149.288C149.521 88.5373 149.848 88.2387 150.268 88.052C150.688 87.8653 151.131 87.772 151.598 87.772ZM159.45 87.772C160.467 87.772 161.27 88.0753 161.858 88.682C162.455 89.2887 162.754 90.1333 162.754 91.216V92.112H157.742C157.76 92.8027 157.952 93.3393 158.316 93.722C158.68 94.0953 159.184 94.282 159.828 94.282C160.313 94.282 160.752 94.2353 161.144 94.142C161.536 94.0393 161.937 93.8947 162.348 93.708V95.122C161.974 95.2993 161.587 95.43 161.186 95.514C160.784 95.598 160.304 95.64 159.744 95.64C158.997 95.64 158.339 95.5 157.77 95.22C157.2 94.9307 156.752 94.5013 156.426 93.932C156.108 93.3533 155.95 92.63 155.95 91.762C155.95 90.4647 156.267 89.4753 156.902 88.794C157.546 88.1127 158.395 87.772 159.45 87.772ZM159.45 89.074C158.974 89.074 158.586 89.228 158.288 89.536C157.998 89.8347 157.83 90.2827 157.784 90.88H161.046C161.036 90.3573 160.901 89.928 160.64 89.592C160.388 89.2467 159.991 89.074 159.45 89.074Z" fill="black"/>
<path d="M180.012 93.8625C179.912 93.8625 179.812 93.8125 179.762 93.7625L174.113 88.1625C173.962 88.0125 173.962 87.7625 174.113 87.6125C174.263 87.4625 174.512 87.4625 174.662 87.6125L180.012 92.9625L185.312 87.6125C185.462 87.4625 185.713 87.4625 185.863 87.6125C186.012 87.7625 186.012 88.0125 185.863 88.1625L180.262 93.7625C180.162 93.8125 180.112 93.8625 180.012 93.8625Z" fill="#323232"/>
<line x1="36" y1="69" x2="215" y2="69" stroke="#C9C9C9"/>
<line x1="36" y1="112" x2="215" y2="112" stroke="#C9C9C9"/>
<rect width="179" height="44" transform="translate(36 112.5)" fill="white"/>
<path d="M51.944 142.16C51.72 142.16 51.524 142.141 51.356 142.104C51.188 142.076 51.0387 142.034 50.908 141.978V140.914C51.0573 140.961 51.216 140.993 51.384 141.012C51.552 141.04 51.7293 141.054 51.916 141.054C52.1493 141.054 52.3687 141.007 52.574 140.914C52.7887 140.821 52.9613 140.657 53.092 140.424C53.2227 140.2 53.288 139.873 53.288 139.444V129.504H54.548V139.346C54.548 140.307 54.31 141.017 53.834 141.474C53.358 141.931 52.728 142.16 51.944 142.16ZM59.8601 131.87C60.7748 131.87 61.4515 132.071 61.8901 132.472C62.3288 132.873 62.5481 133.513 62.5481 134.39V139.5H61.6521L61.4141 138.436H61.3581C61.0315 138.847 60.6861 139.15 60.3221 139.346C59.9581 139.542 59.4635 139.64 58.8381 139.64C58.1568 139.64 57.5921 139.463 57.1441 139.108C56.6961 138.744 56.4721 138.179 56.4721 137.414C56.4721 136.667 56.7661 136.093 57.3541 135.692C57.9421 135.281 58.8475 135.057 60.0701 135.02L61.3441 134.978V134.53C61.3441 133.905 61.2088 133.471 60.9381 133.228C60.6675 132.985 60.2848 132.864 59.7901 132.864C59.3981 132.864 59.0248 132.925 58.6701 133.046C58.3155 133.158 57.9841 133.289 57.6761 133.438L57.2981 132.514C57.6248 132.337 58.0121 132.187 58.4601 132.066C58.9081 131.935 59.3748 131.87 59.8601 131.87ZM61.3301 135.832L60.2241 135.874C59.2908 135.911 58.6421 136.061 58.2781 136.322C57.9235 136.583 57.7461 136.952 57.7461 137.428C57.7461 137.848 57.8721 138.156 58.1241 138.352C58.3855 138.548 58.7168 138.646 59.1181 138.646C59.7435 138.646 60.2661 138.473 60.6861 138.128C61.1155 137.773 61.3301 137.232 61.3301 136.504V135.832ZM73.0978 131.856C73.9471 131.856 74.5818 132.075 75.0018 132.514C75.4218 132.953 75.6318 133.653 75.6318 134.614V139.5H74.4138V134.67C74.4138 133.485 73.9051 132.892 72.8878 132.892C72.1598 132.892 71.6371 133.102 71.3198 133.522C71.0118 133.942 70.8578 134.553 70.8578 135.356V139.5H69.6398V134.67C69.6398 133.485 69.1264 132.892 68.0998 132.892C67.3438 132.892 66.8211 133.125 66.5318 133.592C66.2424 134.059 66.0978 134.731 66.0978 135.608V139.5H64.8658V131.996H65.8598L66.0418 133.018H66.1118C66.3451 132.626 66.6578 132.337 67.0498 132.15C67.4511 131.954 67.8758 131.856 68.3238 131.856C69.4998 131.856 70.2651 132.276 70.6198 133.116H70.6898C70.9418 132.687 71.2824 132.369 71.7118 132.164C72.1411 131.959 72.6031 131.856 73.0978 131.856ZM80.8478 131.856C81.4824 131.856 82.0331 131.996 82.4998 132.276C82.9664 132.556 83.3211 132.953 83.5638 133.466C83.8158 133.97 83.9418 134.563 83.9418 135.244V135.986H78.8038C78.8224 136.835 79.0371 137.484 79.4478 137.932C79.8678 138.371 80.4511 138.59 81.1978 138.59C81.6738 138.59 82.0938 138.548 82.4578 138.464C82.8311 138.371 83.2138 138.24 83.6058 138.072V139.15C83.2231 139.318 82.8451 139.439 82.4718 139.514C82.0984 139.598 81.6551 139.64 81.1418 139.64C80.4231 139.64 79.7931 139.495 79.2518 139.206C78.7104 138.917 78.2858 138.487 77.9778 137.918C77.6791 137.349 77.5298 136.644 77.5298 135.804C77.5298 134.983 77.6651 134.278 77.9358 133.69C78.2158 133.102 78.6031 132.649 79.0978 132.332C79.6018 132.015 80.1851 131.856 80.8478 131.856ZM80.8338 132.864C80.2458 132.864 79.7791 133.055 79.4338 133.438C79.0978 133.811 78.8971 134.334 78.8318 135.006H82.6538C82.6444 134.371 82.4951 133.858 82.2058 133.466C81.9164 133.065 81.4591 132.864 80.8338 132.864ZM90.7381 137.428C90.7381 138.156 90.4674 138.707 89.9261 139.08C89.3848 139.453 88.6568 139.64 87.7421 139.64C87.2194 139.64 86.7668 139.598 86.3841 139.514C86.0108 139.43 85.6794 139.313 85.3901 139.164V138.044C85.6888 138.193 86.0481 138.333 86.4681 138.464C86.8974 138.585 87.3314 138.646 87.7701 138.646C88.3954 138.646 88.8481 138.548 89.1281 138.352C89.4081 138.147 89.5481 137.876 89.5481 137.54C89.5481 137.353 89.4968 137.185 89.3941 137.036C89.2914 136.887 89.1048 136.737 88.8341 136.588C88.5728 136.439 88.1948 136.271 87.7001 136.084C87.2148 135.897 86.7994 135.711 86.4541 135.524C86.1088 135.337 85.8428 135.113 85.6561 134.852C85.4694 134.591 85.3761 134.255 85.3761 133.844C85.3761 133.209 85.6328 132.719 86.1461 132.374C86.6688 132.029 87.3501 131.856 88.1901 131.856C88.6474 131.856 89.0721 131.903 89.4641 131.996C89.8654 132.089 90.2388 132.211 90.5841 132.36L90.1641 133.34C89.8468 133.209 89.5154 133.097 89.1701 133.004C88.8248 132.911 88.4701 132.864 88.1061 132.864C87.6021 132.864 87.2148 132.948 86.9441 133.116C86.6828 133.275 86.5521 133.494 86.5521 133.774C86.5521 133.989 86.6128 134.166 86.7341 134.306C86.8554 134.446 87.0561 134.586 87.3361 134.726C87.6254 134.866 88.0081 135.025 88.4841 135.202C88.9601 135.379 89.3661 135.561 89.7021 135.748C90.0381 135.935 90.2948 136.163 90.4721 136.434C90.6494 136.695 90.7381 137.027 90.7381 137.428ZM99.114 129.504C100.355 129.504 101.27 129.742 101.858 130.218C102.455 130.685 102.754 131.394 102.754 132.346C102.754 132.878 102.656 133.321 102.46 133.676C102.264 134.031 102.012 134.315 101.704 134.53C101.405 134.745 101.088 134.908 100.752 135.02L103.496 139.5H102.026L99.604 135.37H97.616V139.5H96.356V129.504H99.114ZM99.044 130.596H97.616V134.306H99.114C99.926 134.306 100.519 134.147 100.892 133.83C101.265 133.503 101.452 133.027 101.452 132.402C101.452 131.749 101.256 131.287 100.864 131.016C100.472 130.736 99.8654 130.596 99.044 130.596ZM105.527 129.182C105.714 129.182 105.877 129.247 106.017 129.378C106.166 129.499 106.241 129.695 106.241 129.966C106.241 130.237 106.166 130.437 106.017 130.568C105.877 130.689 105.714 130.75 105.527 130.75C105.322 130.75 105.149 130.689 105.009 130.568C104.869 130.437 104.799 130.237 104.799 129.966C104.799 129.695 104.869 129.499 105.009 129.378C105.149 129.247 105.322 129.182 105.527 129.182ZM106.129 131.996V139.5H104.897V131.996H106.129ZM111.516 139.64C110.844 139.64 110.252 139.505 109.738 139.234C109.225 138.963 108.819 138.543 108.52 137.974C108.231 137.405 108.086 136.677 108.086 135.79C108.086 134.866 108.236 134.115 108.534 133.536C108.842 132.957 109.262 132.533 109.794 132.262C110.326 131.991 110.928 131.856 111.6 131.856C111.974 131.856 112.338 131.898 112.692 131.982C113.056 132.057 113.35 132.15 113.574 132.262L113.196 133.284C112.972 133.2 112.711 133.121 112.412 133.046C112.114 132.971 111.834 132.934 111.572 132.934C110.098 132.934 109.36 133.881 109.36 135.776C109.36 136.681 109.538 137.377 109.892 137.862C110.256 138.338 110.793 138.576 111.502 138.576C111.904 138.576 112.263 138.534 112.58 138.45C112.898 138.366 113.187 138.263 113.448 138.142V139.234C113.196 139.365 112.916 139.463 112.608 139.528C112.31 139.603 111.946 139.64 111.516 139.64ZM116.465 128.86V131.982C116.465 132.355 116.442 132.705 116.395 133.032H116.479C116.722 132.649 117.048 132.36 117.459 132.164C117.879 131.968 118.332 131.87 118.817 131.87C119.722 131.87 120.404 132.089 120.861 132.528C121.328 132.957 121.561 133.653 121.561 134.614V139.5H120.343V134.698C120.343 133.494 119.783 132.892 118.663 132.892C117.823 132.892 117.244 133.13 116.927 133.606C116.619 134.073 116.465 134.745 116.465 135.622V139.5H115.233V128.86H116.465ZM126.729 131.87C127.644 131.87 128.321 132.071 128.759 132.472C129.198 132.873 129.417 133.513 129.417 134.39V139.5H128.521L128.283 138.436H128.227C127.901 138.847 127.555 139.15 127.191 139.346C126.827 139.542 126.333 139.64 125.707 139.64C125.026 139.64 124.461 139.463 124.013 139.108C123.565 138.744 123.341 138.179 123.341 137.414C123.341 136.667 123.635 136.093 124.223 135.692C124.811 135.281 125.717 135.057 126.939 135.02L128.213 134.978V134.53C128.213 133.905 128.078 133.471 127.807 133.228C127.537 132.985 127.154 132.864 126.659 132.864C126.267 132.864 125.894 132.925 125.539 133.046C125.185 133.158 124.853 133.289 124.545 133.438L124.167 132.514C124.494 132.337 124.881 132.187 125.329 132.066C125.777 131.935 126.244 131.87 126.729 131.87ZM128.199 135.832L127.093 135.874C126.16 135.911 125.511 136.061 125.147 136.322C124.793 136.583 124.615 136.952 124.615 137.428C124.615 137.848 124.741 138.156 124.993 138.352C125.255 138.548 125.586 138.646 125.987 138.646C126.613 138.646 127.135 138.473 127.555 138.128C127.985 137.773 128.199 137.232 128.199 136.504V135.832ZM135.235 131.856C135.375 131.856 135.524 131.865 135.683 131.884C135.842 131.893 135.986 131.912 136.117 131.94L135.963 133.074C135.842 133.046 135.706 133.023 135.557 133.004C135.408 132.985 135.272 132.976 135.151 132.976C134.768 132.976 134.409 133.083 134.073 133.298C133.737 133.503 133.466 133.797 133.261 134.18C133.065 134.553 132.967 134.992 132.967 135.496V139.5H131.735V131.996H132.743L132.883 133.368H132.939C133.172 132.957 133.48 132.603 133.863 132.304C134.255 132.005 134.712 131.856 135.235 131.856ZM139.905 139.64C138.971 139.64 138.225 139.318 137.665 138.674C137.105 138.021 136.825 137.05 136.825 135.762C136.825 134.474 137.105 133.503 137.665 132.85C138.234 132.187 138.985 131.856 139.919 131.856C140.497 131.856 140.969 131.963 141.333 132.178C141.706 132.393 142.009 132.654 142.243 132.962H142.327C142.308 132.841 142.289 132.663 142.271 132.43C142.252 132.187 142.243 131.996 142.243 131.856V128.86H143.475V139.5H142.481L142.299 138.492H142.243C142.019 138.809 141.72 139.08 141.347 139.304C140.973 139.528 140.493 139.64 139.905 139.64ZM140.101 138.618C140.894 138.618 141.449 138.403 141.767 137.974C142.093 137.535 142.257 136.877 142.257 136V135.776C142.257 134.843 142.103 134.129 141.795 133.634C141.487 133.13 140.917 132.878 140.087 132.878C139.424 132.878 138.925 133.144 138.589 133.676C138.262 134.199 138.099 134.903 138.099 135.79C138.099 136.686 138.262 137.381 138.589 137.876C138.925 138.371 139.429 138.618 140.101 138.618Z" fill="#1473E6"/>
<line x1="36" y1="156" x2="215" y2="156" stroke="#F1F1F1"/>
<rect width="179" height="44" transform="translate(36 156.5)" fill="white"/>
<path d="M56.116 173.504C57.3573 173.504 58.272 173.742 58.86 174.218C59.4573 174.685 59.756 175.394 59.756 176.346C59.756 176.878 59.658 177.321 59.462 177.676C59.266 178.031 59.014 178.315 58.706 178.53C58.4073 178.745 58.09 178.908 57.754 179.02L60.498 183.5H59.028L56.606 179.37H54.618V183.5H53.358V173.504H56.116ZM56.046 174.596H54.618V178.306H56.116C56.928 178.306 57.5207 178.147 57.894 177.83C58.2673 177.503 58.454 177.027 58.454 176.402C58.454 175.749 58.258 175.287 57.866 175.016C57.474 174.736 56.8673 174.596 56.046 174.596ZM68.423 179.734C68.423 180.975 68.1057 181.937 67.471 182.618C66.8457 183.299 65.9963 183.64 64.923 183.64C64.2603 183.64 63.6677 183.491 63.145 183.192C62.6317 182.884 62.2257 182.441 61.927 181.862C61.6283 181.274 61.479 180.565 61.479 179.734C61.479 178.493 61.787 177.536 62.403 176.864C63.0283 176.192 63.8823 175.856 64.965 175.856C65.637 175.856 66.2343 176.01 66.757 176.318C67.2797 176.617 67.6857 177.055 67.975 177.634C68.2737 178.203 68.423 178.903 68.423 179.734ZM62.753 179.734C62.753 180.621 62.9257 181.325 63.271 181.848C63.6257 182.361 64.1857 182.618 64.951 182.618C65.707 182.618 66.2623 182.361 66.617 181.848C66.9717 181.325 67.149 180.621 67.149 179.734C67.149 178.847 66.9717 178.152 66.617 177.648C66.2623 177.144 65.7023 176.892 64.937 176.892C64.1717 176.892 63.6163 177.144 63.271 177.648C62.9257 178.152 62.753 178.847 62.753 179.734ZM71.6075 172.86V175.45C71.6075 175.767 71.5982 176.066 71.5795 176.346C71.5702 176.617 71.5562 176.831 71.5375 176.99H71.6075C71.8222 176.673 72.1162 176.407 72.4895 176.192C72.8629 175.977 73.3435 175.87 73.9315 175.87C74.8649 175.87 75.6115 176.197 76.1715 176.85C76.7409 177.494 77.0255 178.46 77.0255 179.748C77.0255 181.036 76.7409 182.007 76.1715 182.66C75.6022 183.313 74.8555 183.64 73.9315 183.64C73.3435 183.64 72.8629 183.533 72.4895 183.318C72.1162 183.103 71.8222 182.847 71.6075 182.548H71.5095L71.2575 183.5H70.3755V172.86H71.6075ZM73.7215 176.892C72.9189 176.892 72.3635 177.121 72.0555 177.578C71.7569 178.035 71.6075 178.745 71.6075 179.706V179.762C71.6075 180.686 71.7569 181.395 72.0555 181.89C72.3635 182.375 72.9282 182.618 73.7495 182.618C74.4215 182.618 74.9209 182.371 75.2475 181.876C75.5835 181.381 75.7515 180.667 75.7515 179.734C75.7515 177.839 75.0749 176.892 73.7215 176.892ZM81.8868 175.856C82.5215 175.856 83.0722 175.996 83.5388 176.276C84.0055 176.556 84.3602 176.953 84.6028 177.466C84.8548 177.97 84.9808 178.563 84.9808 179.244V179.986H79.8428C79.8615 180.835 80.0762 181.484 80.4868 181.932C80.9068 182.371 81.4902 182.59 82.2368 182.59C82.7128 182.59 83.1328 182.548 83.4968 182.464C83.8702 182.371 84.2528 182.24 84.6448 182.072V183.15C84.2622 183.318 83.8842 183.439 83.5108 183.514C83.1375 183.598 82.6942 183.64 82.1808 183.64C81.4622 183.64 80.8322 183.495 80.2908 183.206C79.7495 182.917 79.3248 182.487 79.0168 181.918C78.7182 181.349 78.5688 180.644 78.5688 179.804C78.5688 178.983 78.7042 178.278 78.9748 177.69C79.2548 177.102 79.6422 176.649 80.1368 176.332C80.6408 176.015 81.2242 175.856 81.8868 175.856ZM81.8728 176.864C81.2848 176.864 80.8182 177.055 80.4728 177.438C80.1368 177.811 79.9362 178.334 79.8708 179.006H83.6928C83.6835 178.371 83.5342 177.858 83.2448 177.466C82.9555 177.065 82.4982 176.864 81.8728 176.864ZM90.3912 175.856C90.5312 175.856 90.6805 175.865 90.8392 175.884C90.9978 175.893 91.1425 175.912 91.2732 175.94L91.1192 177.074C90.9978 177.046 90.8625 177.023 90.7132 177.004C90.5638 176.985 90.4285 176.976 90.3072 176.976C89.9245 176.976 89.5652 177.083 89.2292 177.298C88.8932 177.503 88.6225 177.797 88.4172 178.18C88.2212 178.553 88.1232 178.992 88.1232 179.496V183.5H86.8912V175.996H87.8992L88.0392 177.368H88.0952C88.3285 176.957 88.6365 176.603 89.0192 176.304C89.4112 176.005 89.8685 175.856 90.3912 175.856ZM95.1804 182.632C95.367 182.632 95.5584 182.618 95.7544 182.59C95.9504 182.562 96.109 182.525 96.2304 182.478V183.416C96.0997 183.481 95.913 183.533 95.6704 183.57C95.4277 183.617 95.1944 183.64 94.9704 183.64C94.5784 183.64 94.2144 183.575 93.8784 183.444C93.5517 183.304 93.2857 183.066 93.0804 182.73C92.875 182.394 92.7724 181.923 92.7724 181.316V176.948H91.7084V176.36L92.7864 175.87L93.2764 174.274H94.0044V175.996H96.1744V176.948H94.0044V181.288C94.0044 181.745 94.1117 182.086 94.3264 182.31C94.5504 182.525 94.835 182.632 95.1804 182.632ZM104.184 173.504C105.49 173.504 106.442 173.761 107.04 174.274C107.637 174.787 107.936 175.511 107.936 176.444C107.936 176.995 107.81 177.513 107.558 177.998C107.315 178.474 106.9 178.861 106.312 179.16C105.733 179.459 104.944 179.608 103.946 179.608H102.798V183.5H101.538V173.504H104.184ZM104.072 174.582H102.798V178.53H103.806C104.758 178.53 105.467 178.376 105.934 178.068C106.4 177.76 106.634 177.237 106.634 176.5C106.634 175.856 106.424 175.375 106.004 175.058C105.593 174.741 104.949 174.582 104.072 174.582ZM112.688 175.87C113.603 175.87 114.28 176.071 114.718 176.472C115.157 176.873 115.376 177.513 115.376 178.39V183.5H114.48L114.242 182.436H114.186C113.86 182.847 113.514 183.15 113.15 183.346C112.786 183.542 112.292 183.64 111.666 183.64C110.985 183.64 110.42 183.463 109.972 183.108C109.524 182.744 109.3 182.179 109.3 181.414C109.3 180.667 109.594 180.093 110.182 179.692C110.77 179.281 111.676 179.057 112.898 179.02L114.172 178.978V178.53C114.172 177.905 114.037 177.471 113.766 177.228C113.496 176.985 113.113 176.864 112.618 176.864C112.226 176.864 111.853 176.925 111.498 177.046C111.144 177.158 110.812 177.289 110.504 177.438L110.126 176.514C110.453 176.337 110.84 176.187 111.288 176.066C111.736 175.935 112.203 175.87 112.688 175.87ZM114.158 179.832L113.052 179.874C112.119 179.911 111.47 180.061 111.106 180.322C110.752 180.583 110.574 180.952 110.574 181.428C110.574 181.848 110.7 182.156 110.952 182.352C111.214 182.548 111.545 182.646 111.946 182.646C112.572 182.646 113.094 182.473 113.514 182.128C113.944 181.773 114.158 181.232 114.158 180.504V179.832ZM120.2 182.632C120.387 182.632 120.578 182.618 120.774 182.59C120.97 182.562 121.129 182.525 121.25 182.478V183.416C121.119 183.481 120.933 183.533 120.69 183.57C120.447 183.617 120.214 183.64 119.99 183.64C119.598 183.64 119.234 183.575 118.898 183.444C118.571 183.304 118.305 183.066 118.1 182.73C117.895 182.394 117.792 181.923 117.792 181.316V176.948H116.728V176.36L117.806 175.87L118.296 174.274H119.024V175.996H121.194V176.948H119.024V181.288C119.024 181.745 119.131 182.086 119.346 182.31C119.57 182.525 119.855 182.632 120.2 182.632ZM126.253 175.856C126.393 175.856 126.542 175.865 126.701 175.884C126.859 175.893 127.004 175.912 127.135 175.94L126.981 177.074C126.859 177.046 126.724 177.023 126.575 177.004C126.425 176.985 126.29 176.976 126.169 176.976C125.786 176.976 125.427 177.083 125.091 177.298C124.755 177.503 124.484 177.797 124.279 178.18C124.083 178.553 123.985 178.992 123.985 179.496V183.5H122.753V175.996H123.761L123.901 177.368H123.957C124.19 176.957 124.498 176.603 124.881 176.304C125.273 176.005 125.73 175.856 126.253 175.856ZM129.166 173.182C129.352 173.182 129.516 173.247 129.656 173.378C129.805 173.499 129.88 173.695 129.88 173.966C129.88 174.237 129.805 174.437 129.656 174.568C129.516 174.689 129.352 174.75 129.166 174.75C128.96 174.75 128.788 174.689 128.648 174.568C128.508 174.437 128.438 174.237 128.438 173.966C128.438 173.695 128.508 173.499 128.648 173.378C128.788 173.247 128.96 173.182 129.166 173.182ZM129.768 175.996V183.5H128.536V175.996H129.768ZM135.155 183.64C134.483 183.64 133.89 183.505 133.377 183.234C132.864 182.963 132.458 182.543 132.159 181.974C131.87 181.405 131.725 180.677 131.725 179.79C131.725 178.866 131.874 178.115 132.173 177.536C132.481 176.957 132.901 176.533 133.433 176.262C133.965 175.991 134.567 175.856 135.239 175.856C135.612 175.856 135.976 175.898 136.331 175.982C136.695 176.057 136.989 176.15 137.213 176.262L136.835 177.284C136.611 177.2 136.35 177.121 136.051 177.046C135.752 176.971 135.472 176.934 135.211 176.934C133.736 176.934 132.999 177.881 132.999 179.776C132.999 180.681 133.176 181.377 133.531 181.862C133.895 182.338 134.432 182.576 135.141 182.576C135.542 182.576 135.902 182.534 136.219 182.45C136.536 182.366 136.826 182.263 137.087 182.142V183.234C136.835 183.365 136.555 183.463 136.247 183.528C135.948 183.603 135.584 183.64 135.155 183.64ZM139.502 173.182C139.688 173.182 139.852 173.247 139.992 173.378C140.141 173.499 140.216 173.695 140.216 173.966C140.216 174.237 140.141 174.437 139.992 174.568C139.852 174.689 139.688 174.75 139.502 174.75C139.296 174.75 139.124 174.689 138.984 174.568C138.844 174.437 138.774 174.237 138.774 173.966C138.774 173.695 138.844 173.499 138.984 173.378C139.124 173.247 139.296 173.182 139.502 173.182ZM140.104 175.996V183.5H138.872V175.996H140.104ZM145.323 175.87C146.238 175.87 146.914 176.071 147.353 176.472C147.792 176.873 148.011 177.513 148.011 178.39V183.5H147.115L146.877 182.436H146.821C146.494 182.847 146.149 183.15 145.785 183.346C145.421 183.542 144.926 183.64 144.301 183.64C143.62 183.64 143.055 183.463 142.607 183.108C142.159 182.744 141.935 182.179 141.935 181.414C141.935 180.667 142.229 180.093 142.817 179.692C143.405 179.281 144.31 179.057 145.533 179.02L146.807 178.978V178.53C146.807 177.905 146.672 177.471 146.401 177.228C146.13 176.985 145.748 176.864 145.253 176.864C144.861 176.864 144.488 176.925 144.133 177.046C143.778 177.158 143.447 177.289 143.139 177.438L142.761 176.514C143.088 176.337 143.475 176.187 143.923 176.066C144.371 175.935 144.838 175.87 145.323 175.87ZM146.793 179.832L145.687 179.874C144.754 179.911 144.105 180.061 143.741 180.322C143.386 180.583 143.209 180.952 143.209 181.428C143.209 181.848 143.335 182.156 143.587 182.352C143.848 182.548 144.18 182.646 144.581 182.646C145.206 182.646 145.729 182.473 146.149 182.128C146.578 181.773 146.793 181.232 146.793 180.504V179.832Z" fill="#1473E6"/>
<line x1="36" y1="200" x2="215" y2="200" stroke="#F1F1F1"/>
<rect width="179" height="44" transform="translate(36 200.5)" fill="white"/>
<path d="M57.642 218.47C56.5687 218.47 55.724 218.829 55.108 219.548C54.492 220.267 54.184 221.251 54.184 222.502C54.184 223.743 54.4687 224.728 55.038 225.456C55.6167 226.175 56.48 226.534 57.628 226.534C58.0573 226.534 58.468 226.497 58.86 226.422C59.252 226.347 59.6393 226.254 60.022 226.142V227.234C59.6487 227.374 59.2613 227.477 58.86 227.542C58.468 227.607 57.9967 227.64 57.446 227.64C56.4287 227.64 55.5793 227.43 54.898 227.01C54.2167 226.59 53.7033 225.993 53.358 225.218C53.022 224.443 52.854 223.533 52.854 222.488C52.854 221.48 53.036 220.593 53.4 219.828C53.7733 219.053 54.3193 218.451 55.038 218.022C55.7567 217.583 56.6293 217.364 57.656 217.364C58.7107 217.364 59.63 217.56 60.414 217.952L59.91 219.016C59.602 218.876 59.2567 218.75 58.874 218.638C58.5007 218.526 58.09 218.47 57.642 218.47ZM63.2677 216.86V219.982C63.2677 220.355 63.2444 220.705 63.1977 221.032H63.2817C63.5244 220.649 63.851 220.36 64.2617 220.164C64.6817 219.968 65.1344 219.87 65.6197 219.87C66.525 219.87 67.2064 220.089 67.6637 220.528C68.1304 220.957 68.3637 221.653 68.3637 222.614V227.5H67.1457V222.698C67.1457 221.494 66.5857 220.892 65.4657 220.892C64.6257 220.892 64.047 221.13 63.7297 221.606C63.4217 222.073 63.2677 222.745 63.2677 223.622V227.5H62.0357V216.86H63.2677ZM74.19 219.856C74.33 219.856 74.4793 219.865 74.638 219.884C74.7967 219.893 74.9413 219.912 75.072 219.94L74.918 221.074C74.7967 221.046 74.6613 221.023 74.512 221.004C74.3627 220.985 74.2273 220.976 74.106 220.976C73.7233 220.976 73.364 221.083 73.028 221.298C72.692 221.503 72.4213 221.797 72.216 222.18C72.02 222.553 71.922 222.992 71.922 223.496V227.5H70.69V219.996H71.698L71.838 221.368H71.894C72.1273 220.957 72.4353 220.603 72.818 220.304C73.21 220.005 73.6673 219.856 74.19 219.856ZM77.1032 217.182C77.2899 217.182 77.4532 217.247 77.5932 217.378C77.7425 217.499 77.8172 217.695 77.8172 217.966C77.8172 218.237 77.7425 218.437 77.5932 218.568C77.4532 218.689 77.2899 218.75 77.1032 218.75C76.8979 218.75 76.7252 218.689 76.5852 218.568C76.4452 218.437 76.3752 218.237 76.3752 217.966C76.3752 217.695 76.4452 217.499 76.5852 217.378C76.7252 217.247 76.8979 217.182 77.1032 217.182ZM77.7052 219.996V227.5H76.4732V219.996H77.7052ZM84.9686 225.428C84.9686 226.156 84.6979 226.707 84.1566 227.08C83.6152 227.453 82.8872 227.64 81.9726 227.64C81.4499 227.64 80.9972 227.598 80.6146 227.514C80.2412 227.43 79.9099 227.313 79.6206 227.164V226.044C79.9192 226.193 80.2786 226.333 80.6986 226.464C81.1279 226.585 81.5619 226.646 82.0006 226.646C82.6259 226.646 83.0786 226.548 83.3586 226.352C83.6386 226.147 83.7786 225.876 83.7786 225.54C83.7786 225.353 83.7272 225.185 83.6246 225.036C83.5219 224.887 83.3352 224.737 83.0646 224.588C82.8032 224.439 82.4252 224.271 81.9306 224.084C81.4452 223.897 81.0299 223.711 80.6846 223.524C80.3392 223.337 80.0732 223.113 79.8866 222.852C79.6999 222.591 79.6066 222.255 79.6066 221.844C79.6066 221.209 79.8632 220.719 80.3766 220.374C80.8992 220.029 81.5806 219.856 82.4206 219.856C82.8779 219.856 83.3026 219.903 83.6946 219.996C84.0959 220.089 84.4692 220.211 84.8146 220.36L84.3946 221.34C84.0772 221.209 83.7459 221.097 83.4006 221.004C83.0552 220.911 82.7006 220.864 82.3366 220.864C81.8326 220.864 81.4452 220.948 81.1746 221.116C80.9132 221.275 80.7826 221.494 80.7826 221.774C80.7826 221.989 80.8432 222.166 80.9646 222.306C81.0859 222.446 81.2866 222.586 81.5666 222.726C81.8559 222.866 82.2386 223.025 82.7146 223.202C83.1906 223.379 83.5966 223.561 83.9326 223.748C84.2686 223.935 84.5252 224.163 84.7026 224.434C84.8799 224.695 84.9686 225.027 84.9686 225.428ZM94.9965 227.5L91.7065 218.736H91.6505C91.6785 219.025 91.7018 219.417 91.7205 219.912C91.7392 220.397 91.7485 220.906 91.7485 221.438V227.5H90.5865V217.504H92.4485L95.5285 225.694H95.5845L98.7205 217.504H100.569V227.5H99.3225V221.354C99.3225 220.869 99.3318 220.388 99.3505 219.912C99.3785 219.436 99.4018 219.049 99.4205 218.75H99.3645L96.0325 227.5H94.9965ZM105.962 219.87C106.876 219.87 107.553 220.071 107.992 220.472C108.43 220.873 108.65 221.513 108.65 222.39V227.5H107.754L107.516 226.436H107.46C107.133 226.847 106.788 227.15 106.424 227.346C106.06 227.542 105.565 227.64 104.94 227.64C104.258 227.64 103.694 227.463 103.246 227.108C102.798 226.744 102.574 226.179 102.574 225.414C102.574 224.667 102.868 224.093 103.456 223.692C104.044 223.281 104.949 223.057 106.172 223.02L107.446 222.978V222.53C107.446 221.905 107.31 221.471 107.04 221.228C106.769 220.985 106.386 220.864 105.892 220.864C105.5 220.864 105.126 220.925 104.772 221.046C104.417 221.158 104.086 221.289 103.778 221.438L103.4 220.514C103.726 220.337 104.114 220.187 104.562 220.066C105.01 219.935 105.476 219.87 105.962 219.87ZM107.432 223.832L106.326 223.874C105.392 223.911 104.744 224.061 104.38 224.322C104.025 224.583 103.848 224.952 103.848 225.428C103.848 225.848 103.974 226.156 104.226 226.352C104.487 226.548 104.818 226.646 105.22 226.646C105.845 226.646 106.368 226.473 106.788 226.128C107.217 225.773 107.432 225.232 107.432 224.504V223.832ZM113.473 226.632C113.66 226.632 113.851 226.618 114.047 226.59C114.243 226.562 114.402 226.525 114.523 226.478V227.416C114.393 227.481 114.206 227.533 113.963 227.57C113.721 227.617 113.487 227.64 113.263 227.64C112.871 227.64 112.507 227.575 112.171 227.444C111.845 227.304 111.579 227.066 111.373 226.73C111.168 226.394 111.065 225.923 111.065 225.316V220.948H110.001V220.36L111.079 219.87L111.569 218.274H112.297V219.996H114.467V220.948H112.297V225.288C112.297 225.745 112.405 226.086 112.619 226.31C112.843 226.525 113.128 226.632 113.473 226.632ZM118.532 226.632C118.719 226.632 118.91 226.618 119.106 226.59C119.302 226.562 119.461 226.525 119.582 226.478V227.416C119.451 227.481 119.265 227.533 119.022 227.57C118.779 227.617 118.546 227.64 118.322 227.64C117.93 227.64 117.566 227.575 117.23 227.444C116.903 227.304 116.637 227.066 116.432 226.73C116.227 226.394 116.124 225.923 116.124 225.316V220.948H115.06V220.36L116.138 219.87L116.628 218.274H117.356V219.996H119.526V220.948H117.356V225.288C117.356 225.745 117.463 226.086 117.678 226.31C117.902 226.525 118.187 226.632 118.532 226.632ZM122.317 216.86V219.982C122.317 220.355 122.293 220.705 122.247 221.032H122.331C122.573 220.649 122.9 220.36 123.311 220.164C123.731 219.968 124.183 219.87 124.669 219.87C125.574 219.87 126.255 220.089 126.713 220.528C127.179 220.957 127.413 221.653 127.413 222.614V227.5H126.195V222.698C126.195 221.494 125.635 220.892 124.515 220.892C123.675 220.892 123.096 221.13 122.779 221.606C122.471 222.073 122.317 222.745 122.317 223.622V227.5H121.085V216.86H122.317ZM132.637 219.856C133.271 219.856 133.822 219.996 134.289 220.276C134.755 220.556 135.11 220.953 135.353 221.466C135.605 221.97 135.731 222.563 135.731 223.244V223.986H130.593C130.611 224.835 130.826 225.484 131.237 225.932C131.657 226.371 132.24 226.59 132.987 226.59C133.463 226.59 133.883 226.548 134.247 226.464C134.62 226.371 135.003 226.24 135.395 226.072V227.15C135.012 227.318 134.634 227.439 134.261 227.514C133.887 227.598 133.444 227.64 132.931 227.64C132.212 227.64 131.582 227.495 131.041 227.206C130.499 226.917 130.075 226.487 129.767 225.918C129.468 225.349 129.319 224.644 129.319 223.804C129.319 222.983 129.454 222.278 129.725 221.69C130.005 221.102 130.392 220.649 130.887 220.332C131.391 220.015 131.974 219.856 132.637 219.856ZM132.623 220.864C132.035 220.864 131.568 221.055 131.223 221.438C130.887 221.811 130.686 222.334 130.621 223.006H134.443C134.433 222.371 134.284 221.858 133.995 221.466C133.705 221.065 133.248 220.864 132.623 220.864ZM143.5 227.486L142.212 223.258C142.09 222.875 141.983 222.502 141.89 222.138C141.796 221.774 141.731 221.485 141.694 221.27H141.638C141.6 221.485 141.54 221.774 141.456 222.138C141.372 222.502 141.264 222.88 141.134 223.272L139.79 227.486H138.39L136.332 219.982H137.606L138.642 223.986C138.744 224.387 138.842 224.793 138.936 225.204C139.029 225.615 139.094 225.955 139.132 226.226H139.188C139.216 226.067 139.258 225.871 139.314 225.638C139.37 225.405 139.43 225.162 139.496 224.91C139.561 224.649 139.626 224.415 139.692 224.21L141.022 219.982H142.366L143.654 224.21C143.747 224.537 143.845 224.887 143.948 225.26C144.05 225.633 144.12 225.951 144.158 226.212H144.214C144.242 225.979 144.302 225.657 144.396 225.246C144.498 224.835 144.606 224.415 144.718 223.986L145.768 219.982H147.028L144.942 227.486H143.5Z" fill="#1473E6"/>
<rect width="185" height="44" transform="translate(215 68.5)" fill="white"/>
<path d="M237.986 95.5H232.302V85.504H237.986V87.002H234.094V89.55H237.734V91.048H234.094V93.988H237.986V95.5ZM248.635 87.772C249.493 87.772 250.137 87.9913 250.567 88.43C251.005 88.8687 251.225 89.578 251.225 90.558V95.5H249.461V90.894C249.461 89.7647 249.031 89.2 248.173 89.2C247.557 89.2 247.118 89.4007 246.857 89.802C246.595 90.2033 246.465 90.7867 246.465 91.552V95.5H244.701V90.894C244.701 89.7647 244.267 89.2 243.399 89.2C242.755 89.2 242.311 89.424 242.069 89.872C241.826 90.32 241.705 90.9593 241.705 91.79V95.5H239.941V87.912H241.299L241.551 88.906H241.649C241.882 88.514 242.199 88.2293 242.601 88.052C243.002 87.8653 243.422 87.772 243.861 87.772C244.43 87.772 244.906 87.8653 245.289 88.052C245.681 88.2387 245.979 88.5373 246.185 88.948H246.325C246.558 88.5373 246.885 88.2387 247.305 88.052C247.725 87.8653 248.168 87.772 248.635 87.772ZM256.459 87.772C257.439 87.772 258.181 87.9867 258.685 88.416C259.198 88.8453 259.455 89.508 259.455 90.404V95.5H258.209L257.859 94.45H257.803C257.476 94.8607 257.131 95.164 256.767 95.36C256.403 95.5467 255.908 95.64 255.283 95.64C254.601 95.64 254.037 95.4487 253.589 95.066C253.141 94.6833 252.917 94.0907 252.917 93.288C252.917 92.504 253.201 91.916 253.771 91.524C254.349 91.132 255.222 90.9127 256.389 90.866L257.705 90.824V90.446C257.705 89.9607 257.588 89.6153 257.355 89.41C257.121 89.2047 256.795 89.102 256.375 89.102C255.992 89.102 255.623 89.158 255.269 89.27C254.923 89.3727 254.578 89.5033 254.233 89.662L253.673 88.43C254.046 88.234 254.471 88.0753 254.947 87.954C255.432 87.8327 255.936 87.772 256.459 87.772ZM257.705 91.916L256.781 91.944C256.006 91.972 255.469 92.1073 255.171 92.35C254.872 92.5833 254.723 92.9007 254.723 93.302C254.723 93.666 254.825 93.9273 255.031 94.086C255.245 94.2353 255.525 94.31 255.871 94.31C256.384 94.31 256.818 94.1653 257.173 93.876C257.527 93.5773 257.705 93.1387 257.705 92.56V91.916ZM262.547 84.986C262.809 84.986 263.037 85.056 263.233 85.196C263.429 85.3267 263.527 85.5647 263.527 85.91C263.527 86.2553 263.429 86.498 263.233 86.638C263.037 86.778 262.809 86.848 262.547 86.848C262.277 86.848 262.043 86.778 261.847 86.638C261.661 86.498 261.567 86.2553 261.567 85.91C261.567 85.5647 261.661 85.3267 261.847 85.196C262.043 85.056 262.277 84.986 262.547 84.986ZM263.429 87.912V95.5H261.665V87.912H263.429ZM267.449 95.5H265.685V84.86H267.449V95.5Z" fill="black"/>
<path d="M285.012 93.8625C284.912 93.8625 284.812 93.8125 284.762 93.7625L279.113 88.1625C278.962 88.0125 278.962 87.7625 279.113 87.6125C279.263 87.4625 279.512 87.4625 279.662 87.6125L285.012 92.9625L290.312 87.6125C290.462 87.4625 290.713 87.4625 290.863 87.6125C291.012 87.7625 291.012 88.0125 290.863 88.1625L285.262 93.7625C285.162 93.8125 285.112 93.8625 285.012 93.8625Z" fill="#323232"/>
<line x1="215" y1="69" x2="400" y2="69" stroke="#C9C9C9"/>
<line x1="215" y1="112" x2="400" y2="112" stroke="#C9C9C9"/>
<rect width="185" height="44" transform="translate(215 112.5)" fill="white"/>
<path d="M232.092 129.966C232.092 129.695 232.162 129.499 232.302 129.378C232.442 129.247 232.615 129.182 232.82 129.182C233.007 129.182 233.17 129.247 233.31 129.378C233.459 129.499 233.534 129.695 233.534 129.966C233.534 130.237 233.459 130.437 233.31 130.568C233.17 130.689 233.007 130.75 232.82 130.75C232.615 130.75 232.442 130.689 232.302 130.568C232.162 130.437 232.092 130.237 232.092 129.966ZM231.308 142.86C231.065 142.86 230.855 142.841 230.678 142.804C230.501 142.776 230.351 142.739 230.23 142.692V141.698C230.37 141.745 230.515 141.777 230.664 141.796C230.813 141.824 230.977 141.838 231.154 141.838C231.453 141.838 231.7 141.754 231.896 141.586C232.092 141.427 232.19 141.119 232.19 140.662V131.996H233.422V140.62C233.422 141.32 233.254 141.866 232.918 142.258C232.582 142.659 232.045 142.86 231.308 142.86ZM238.641 131.87C239.556 131.87 240.233 132.071 240.671 132.472C241.11 132.873 241.329 133.513 241.329 134.39V139.5H240.433L240.195 138.436H240.139C239.813 138.847 239.467 139.15 239.103 139.346C238.739 139.542 238.245 139.64 237.619 139.64C236.938 139.64 236.373 139.463 235.925 139.108C235.477 138.744 235.253 138.179 235.253 137.414C235.253 136.667 235.547 136.093 236.135 135.692C236.723 135.281 237.629 135.057 238.851 135.02L240.125 134.978V134.53C240.125 133.905 239.99 133.471 239.719 133.228C239.449 132.985 239.066 132.864 238.571 132.864C238.179 132.864 237.806 132.925 237.451 133.046C237.097 133.158 236.765 133.289 236.457 133.438L236.079 132.514C236.406 132.337 236.793 132.187 237.241 132.066C237.689 131.935 238.156 131.87 238.641 131.87ZM240.111 135.832L239.005 135.874C238.072 135.911 237.423 136.061 237.059 136.322C236.705 136.583 236.527 136.952 236.527 137.428C236.527 137.848 236.653 138.156 236.905 138.352C237.167 138.548 237.498 138.646 237.899 138.646C238.525 138.646 239.047 138.473 239.467 138.128C239.897 137.773 240.111 137.232 240.111 136.504V135.832ZM251.879 131.856C252.728 131.856 253.363 132.075 253.783 132.514C254.203 132.953 254.413 133.653 254.413 134.614V139.5H253.195V134.67C253.195 133.485 252.686 132.892 251.669 132.892C250.941 132.892 250.418 133.102 250.101 133.522C249.793 133.942 249.639 134.553 249.639 135.356V139.5H248.421V134.67C248.421 133.485 247.908 132.892 246.881 132.892C246.125 132.892 245.602 133.125 245.313 133.592C245.024 134.059 244.879 134.731 244.879 135.608V139.5H243.647V131.996H244.641L244.823 133.018H244.893C245.126 132.626 245.439 132.337 245.831 132.15C246.232 131.954 246.657 131.856 247.105 131.856C248.281 131.856 249.046 132.276 249.401 133.116H249.471C249.723 132.687 250.064 132.369 250.493 132.164C250.922 131.959 251.384 131.856 251.879 131.856ZM259.629 131.856C260.264 131.856 260.814 131.996 261.281 132.276C261.748 132.556 262.102 132.953 262.345 133.466C262.597 133.97 262.723 134.563 262.723 135.244V135.986H257.585C257.604 136.835 257.818 137.484 258.229 137.932C258.649 138.371 259.232 138.59 259.979 138.59C260.455 138.59 260.875 138.548 261.239 138.464C261.612 138.371 261.995 138.24 262.387 138.072V139.15C262.004 139.318 261.626 139.439 261.253 139.514C260.88 139.598 260.436 139.64 259.923 139.64C259.204 139.64 258.574 139.495 258.033 139.206C257.492 138.917 257.067 138.487 256.759 137.918C256.46 137.349 256.311 136.644 256.311 135.804C256.311 134.983 256.446 134.278 256.717 133.69C256.997 133.102 257.384 132.649 257.879 132.332C258.383 132.015 258.966 131.856 259.629 131.856ZM259.615 132.864C259.027 132.864 258.56 133.055 258.215 133.438C257.879 133.811 257.678 134.334 257.613 135.006H261.435C261.426 134.371 261.276 133.858 260.987 133.466C260.698 133.065 260.24 132.864 259.615 132.864ZM269.519 137.428C269.519 138.156 269.249 138.707 268.707 139.08C268.166 139.453 267.438 139.64 266.523 139.64C266.001 139.64 265.548 139.598 265.165 139.514C264.792 139.43 264.461 139.313 264.171 139.164V138.044C264.47 138.193 264.829 138.333 265.249 138.464C265.679 138.585 266.113 138.646 266.551 138.646C267.177 138.646 267.629 138.548 267.909 138.352C268.189 138.147 268.329 137.876 268.329 137.54C268.329 137.353 268.278 137.185 268.175 137.036C268.073 136.887 267.886 136.737 267.615 136.588C267.354 136.439 266.976 136.271 266.481 136.084C265.996 135.897 265.581 135.711 265.235 135.524C264.89 135.337 264.624 135.113 264.437 134.852C264.251 134.591 264.157 134.255 264.157 133.844C264.157 133.209 264.414 132.719 264.927 132.374C265.45 132.029 266.131 131.856 266.971 131.856C267.429 131.856 267.853 131.903 268.245 131.996C268.647 132.089 269.02 132.211 269.365 132.36L268.945 133.34C268.628 133.209 268.297 133.097 267.951 133.004C267.606 132.911 267.251 132.864 266.887 132.864C266.383 132.864 265.996 132.948 265.725 133.116C265.464 133.275 265.333 133.494 265.333 133.774C265.333 133.989 265.394 134.166 265.515 134.306C265.637 134.446 265.837 134.586 266.117 134.726C266.407 134.866 266.789 135.025 267.265 135.202C267.741 135.379 268.147 135.561 268.483 135.748C268.819 135.935 269.076 136.163 269.253 136.434C269.431 136.695 269.519 137.027 269.519 137.428ZM281.917 134.502C281.917 134.931 281.865 135.351 281.763 135.762C281.669 136.173 281.52 136.546 281.315 136.882C281.109 137.209 280.857 137.475 280.559 137.68C280.26 137.876 279.905 137.974 279.495 137.974C279.065 137.974 278.725 137.853 278.473 137.61C278.23 137.358 278.081 137.073 278.025 136.756H277.955C277.787 137.101 277.539 137.391 277.213 137.624C276.886 137.857 276.475 137.974 275.981 137.974C275.262 137.974 274.711 137.736 274.329 137.26C273.946 136.784 273.755 136.154 273.755 135.37C273.755 134.763 273.876 134.222 274.119 133.746C274.361 133.27 274.702 132.897 275.141 132.626C275.589 132.355 276.116 132.22 276.723 132.22C277.133 132.22 277.535 132.257 277.927 132.332C278.328 132.397 278.641 132.472 278.865 132.556L278.725 135.398C278.715 135.566 278.711 135.687 278.711 135.762C278.711 135.827 278.711 135.874 278.711 135.902C278.711 136.397 278.795 136.723 278.963 136.882C279.14 137.031 279.345 137.106 279.579 137.106C279.868 137.106 280.111 136.989 280.307 136.756C280.512 136.513 280.666 136.196 280.769 135.804C280.881 135.412 280.937 134.973 280.937 134.488C280.937 133.629 280.759 132.897 280.405 132.29C280.059 131.683 279.579 131.221 278.963 130.904C278.356 130.587 277.665 130.428 276.891 130.428C275.827 130.428 274.926 130.647 274.189 131.086C273.461 131.525 272.905 132.131 272.523 132.906C272.149 133.671 271.963 134.549 271.963 135.538C271.963 136.919 272.327 137.979 273.055 138.716C273.783 139.453 274.833 139.822 276.205 139.822C276.774 139.822 277.315 139.757 277.829 139.626C278.351 139.505 278.813 139.369 279.215 139.22V140.172C278.813 140.34 278.361 140.475 277.857 140.578C277.362 140.69 276.811 140.746 276.205 140.746C275.103 140.746 274.161 140.541 273.377 140.13C272.593 139.719 271.991 139.131 271.571 138.366C271.16 137.591 270.955 136.663 270.955 135.58C270.955 134.712 271.09 133.909 271.361 133.172C271.631 132.425 272.023 131.781 272.537 131.24C273.05 130.689 273.671 130.265 274.399 129.966C275.136 129.658 275.967 129.504 276.891 129.504C277.861 129.504 278.725 129.705 279.481 130.106C280.237 130.507 280.829 131.081 281.259 131.828C281.697 132.575 281.917 133.466 281.917 134.502ZM274.847 135.398C274.847 136.005 274.963 136.443 275.197 136.714C275.43 136.975 275.752 137.106 276.163 137.106C276.685 137.106 277.059 136.91 277.283 136.518C277.516 136.126 277.651 135.617 277.689 134.992L277.773 133.242C277.651 133.205 277.497 133.172 277.311 133.144C277.124 133.116 276.933 133.102 276.737 133.102C276.279 133.102 275.911 133.214 275.631 133.438C275.351 133.662 275.15 133.951 275.029 134.306C274.907 134.651 274.847 135.015 274.847 135.398ZM286.822 131.856C287.457 131.856 288.008 131.996 288.474 132.276C288.941 132.556 289.296 132.953 289.538 133.466C289.79 133.97 289.916 134.563 289.916 135.244V135.986H284.778C284.797 136.835 285.012 137.484 285.422 137.932C285.842 138.371 286.426 138.59 287.172 138.59C287.648 138.59 288.068 138.548 288.432 138.464C288.806 138.371 289.188 138.24 289.58 138.072V139.15C289.198 139.318 288.82 139.439 288.446 139.514C288.073 139.598 287.63 139.64 287.116 139.64C286.398 139.64 285.768 139.495 285.226 139.206C284.685 138.917 284.26 138.487 283.952 137.918C283.654 137.349 283.504 136.644 283.504 135.804C283.504 134.983 283.64 134.278 283.91 133.69C284.19 133.102 284.578 132.649 285.072 132.332C285.576 132.015 286.16 131.856 286.822 131.856ZM286.808 132.864C286.22 132.864 285.754 133.055 285.408 133.438C285.072 133.811 284.872 134.334 284.806 135.006H288.628C288.619 134.371 288.47 133.858 288.18 133.466C287.891 133.065 287.434 132.864 286.808 132.864ZM300.059 131.856C300.908 131.856 301.543 132.075 301.963 132.514C302.383 132.953 302.593 133.653 302.593 134.614V139.5H301.375V134.67C301.375 133.485 300.866 132.892 299.849 132.892C299.121 132.892 298.598 133.102 298.281 133.522C297.973 133.942 297.819 134.553 297.819 135.356V139.5H296.601V134.67C296.601 133.485 296.087 132.892 295.061 132.892C294.305 132.892 293.782 133.125 293.493 133.592C293.203 134.059 293.059 134.731 293.059 135.608V139.5H291.827V131.996H292.821L293.003 133.018H293.073C293.306 132.626 293.619 132.337 294.011 132.15C294.412 131.954 294.837 131.856 295.285 131.856C296.461 131.856 297.226 132.276 297.581 133.116H297.651C297.903 132.687 298.243 132.369 298.673 132.164C299.102 131.959 299.564 131.856 300.059 131.856ZM307.753 131.87C308.667 131.87 309.344 132.071 309.783 132.472C310.221 132.873 310.441 133.513 310.441 134.39V139.5H309.545L309.307 138.436H309.251C308.924 138.847 308.579 139.15 308.215 139.346C307.851 139.542 307.356 139.64 306.731 139.64C306.049 139.64 305.485 139.463 305.037 139.108C304.589 138.744 304.365 138.179 304.365 137.414C304.365 136.667 304.659 136.093 305.247 135.692C305.835 135.281 306.74 135.057 307.963 135.02L309.237 134.978V134.53C309.237 133.905 309.101 133.471 308.831 133.228C308.56 132.985 308.177 132.864 307.683 132.864C307.291 132.864 306.917 132.925 306.563 133.046C306.208 133.158 305.877 133.289 305.569 133.438L305.191 132.514C305.517 132.337 305.905 132.187 306.353 132.066C306.801 131.935 307.267 131.87 307.753 131.87ZM309.223 135.832L308.117 135.874C307.183 135.911 306.535 136.061 306.171 136.322C305.816 136.583 305.639 136.952 305.639 137.428C305.639 137.848 305.765 138.156 306.017 138.352C306.278 138.548 306.609 138.646 307.011 138.646C307.636 138.646 308.159 138.473 308.579 138.128C309.008 137.773 309.223 137.232 309.223 136.504V135.832ZM313.388 129.182C313.575 129.182 313.738 129.247 313.878 129.378C314.028 129.499 314.102 129.695 314.102 129.966C314.102 130.237 314.028 130.437 313.878 130.568C313.738 130.689 313.575 130.75 313.388 130.75C313.183 130.75 313.01 130.689 312.87 130.568C312.73 130.437 312.66 130.237 312.66 129.966C312.66 129.695 312.73 129.499 312.87 129.378C313.01 129.247 313.183 129.182 313.388 129.182ZM313.99 131.996V139.5H312.758V131.996H313.99ZM317.6 139.5H316.368V128.86H317.6V139.5ZM319.795 138.744C319.795 138.399 319.879 138.156 320.047 138.016C320.215 137.876 320.416 137.806 320.649 137.806C320.882 137.806 321.088 137.876 321.265 138.016C321.442 138.156 321.531 138.399 321.531 138.744C321.531 139.08 321.442 139.323 321.265 139.472C321.088 139.621 320.882 139.696 320.649 139.696C320.416 139.696 320.215 139.621 320.047 139.472C319.879 139.323 319.795 139.08 319.795 138.744ZM326.733 139.64C326.061 139.64 325.469 139.505 324.955 139.234C324.442 138.963 324.036 138.543 323.737 137.974C323.448 137.405 323.303 136.677 323.303 135.79C323.303 134.866 323.453 134.115 323.751 133.536C324.059 132.957 324.479 132.533 325.011 132.262C325.543 131.991 326.145 131.856 326.817 131.856C327.191 131.856 327.555 131.898 327.909 131.982C328.273 132.057 328.567 132.15 328.791 132.262L328.413 133.284C328.189 133.2 327.928 133.121 327.629 133.046C327.331 132.971 327.051 132.934 326.789 132.934C325.315 132.934 324.577 133.881 324.577 135.776C324.577 136.681 324.755 137.377 325.109 137.862C325.473 138.338 326.01 138.576 326.719 138.576C327.121 138.576 327.48 138.534 327.797 138.45C328.115 138.366 328.404 138.263 328.665 138.142V139.234C328.413 139.365 328.133 139.463 327.825 139.528C327.527 139.603 327.163 139.64 326.733 139.64ZM336.974 135.734C336.974 136.975 336.656 137.937 336.022 138.618C335.396 139.299 334.547 139.64 333.474 139.64C332.811 139.64 332.218 139.491 331.696 139.192C331.182 138.884 330.776 138.441 330.478 137.862C330.179 137.274 330.03 136.565 330.03 135.734C330.03 134.493 330.338 133.536 330.954 132.864C331.579 132.192 332.433 131.856 333.516 131.856C334.188 131.856 334.785 132.01 335.308 132.318C335.83 132.617 336.236 133.055 336.526 133.634C336.824 134.203 336.974 134.903 336.974 135.734ZM331.304 135.734C331.304 136.621 331.476 137.325 331.822 137.848C332.176 138.361 332.736 138.618 333.502 138.618C334.258 138.618 334.813 138.361 335.168 137.848C335.522 137.325 335.7 136.621 335.7 135.734C335.7 134.847 335.522 134.152 335.168 133.648C334.813 133.144 334.253 132.892 333.488 132.892C332.722 132.892 332.167 133.144 331.822 133.648C331.476 134.152 331.304 134.847 331.304 135.734ZM347.158 131.856C348.008 131.856 348.642 132.075 349.062 132.514C349.482 132.953 349.692 133.653 349.692 134.614V139.5H348.474V134.67C348.474 133.485 347.966 132.892 346.948 132.892C346.22 132.892 345.698 133.102 345.38 133.522C345.072 133.942 344.918 134.553 344.918 135.356V139.5H343.7V134.67C343.7 133.485 343.187 132.892 342.16 132.892C341.404 132.892 340.882 133.125 340.592 133.592C340.303 134.059 340.158 134.731 340.158 135.608V139.5H338.926V131.996H339.92L340.102 133.018H340.172C340.406 132.626 340.718 132.337 341.11 132.15C341.512 131.954 341.936 131.856 342.384 131.856C343.56 131.856 344.326 132.276 344.68 133.116H344.75C345.002 132.687 345.343 132.369 345.772 132.164C346.202 131.959 346.664 131.856 347.158 131.856Z" fill="black"/>
<line x1="215" y1="156" x2="400" y2="156" stroke="#F1F1F1"/>
<rect width="185" height="44" transform="translate(215 156.5)" fill="white"/>
<path d="M235.69 175.856C235.83 175.856 235.979 175.865 236.138 175.884C236.297 175.893 236.441 175.912 236.572 175.94L236.418 177.074C236.297 177.046 236.161 177.023 236.012 177.004C235.863 176.985 235.727 176.976 235.606 176.976C235.223 176.976 234.864 177.083 234.528 177.298C234.192 177.503 233.921 177.797 233.716 178.18C233.52 178.553 233.422 178.992 233.422 179.496V183.5H232.19V175.996H233.198L233.338 177.368H233.394C233.627 176.957 233.935 176.603 234.318 176.304C234.71 176.005 235.167 175.856 235.69 175.856ZM244.224 179.734C244.224 180.975 243.906 181.937 243.272 182.618C242.646 183.299 241.797 183.64 240.724 183.64C240.061 183.64 239.468 183.491 238.946 183.192C238.432 182.884 238.026 182.441 237.728 181.862C237.429 181.274 237.28 180.565 237.28 179.734C237.28 178.493 237.588 177.536 238.204 176.864C238.829 176.192 239.683 175.856 240.766 175.856C241.438 175.856 242.035 176.01 242.558 176.318C243.08 176.617 243.486 177.055 243.776 177.634C244.074 178.203 244.224 178.903 244.224 179.734ZM238.554 179.734C238.554 180.621 238.726 181.325 239.072 181.848C239.426 182.361 239.986 182.618 240.752 182.618C241.508 182.618 242.063 182.361 242.418 181.848C242.772 181.325 242.95 180.621 242.95 179.734C242.95 178.847 242.772 178.152 242.418 177.648C242.063 177.144 241.503 176.892 240.738 176.892C239.972 176.892 239.417 177.144 239.072 177.648C238.726 178.152 238.554 178.847 238.554 179.734ZM247.408 172.86V175.45C247.408 175.767 247.399 176.066 247.38 176.346C247.371 176.617 247.357 176.831 247.338 176.99H247.408C247.623 176.673 247.917 176.407 248.29 176.192C248.664 175.977 249.144 175.87 249.732 175.87C250.666 175.87 251.412 176.197 251.972 176.85C252.542 177.494 252.826 178.46 252.826 179.748C252.826 181.036 252.542 182.007 251.972 182.66C251.403 183.313 250.656 183.64 249.732 183.64C249.144 183.64 248.664 183.533 248.29 183.318C247.917 183.103 247.623 182.847 247.408 182.548H247.31L247.058 183.5H246.176V172.86H247.408ZM249.522 176.892C248.72 176.892 248.164 177.121 247.856 177.578C247.558 178.035 247.408 178.745 247.408 179.706V179.762C247.408 180.686 247.558 181.395 247.856 181.89C248.164 182.375 248.729 182.618 249.55 182.618C250.222 182.618 250.722 182.371 251.048 181.876C251.384 181.381 251.552 180.667 251.552 179.734C251.552 177.839 250.876 176.892 249.522 176.892ZM257.688 175.856C258.322 175.856 258.873 175.996 259.34 176.276C259.806 176.556 260.161 176.953 260.404 177.466C260.656 177.97 260.782 178.563 260.782 179.244V179.986H255.644C255.662 180.835 255.877 181.484 256.288 181.932C256.708 182.371 257.291 182.59 258.038 182.59C258.514 182.59 258.934 182.548 259.298 182.464C259.671 182.371 260.054 182.24 260.446 182.072V183.15C260.063 183.318 259.685 183.439 259.312 183.514C258.938 183.598 258.495 183.64 257.982 183.64C257.263 183.64 256.633 183.495 256.092 183.206C255.55 182.917 255.126 182.487 254.818 181.918C254.519 181.349 254.37 180.644 254.37 179.804C254.37 178.983 254.505 178.278 254.776 177.69C255.056 177.102 255.443 176.649 255.938 176.332C256.442 176.015 257.025 175.856 257.688 175.856ZM257.674 176.864C257.086 176.864 256.619 177.055 256.274 177.438C255.938 177.811 255.737 178.334 255.672 179.006H259.494C259.484 178.371 259.335 177.858 259.046 177.466C258.756 177.065 258.299 176.864 257.674 176.864ZM266.192 175.856C266.332 175.856 266.481 175.865 266.64 175.884C266.799 175.893 266.943 175.912 267.074 175.94L266.92 177.074C266.799 177.046 266.663 177.023 266.514 177.004C266.365 176.985 266.229 176.976 266.108 176.976C265.725 176.976 265.366 177.083 265.03 177.298C264.694 177.503 264.423 177.797 264.218 178.18C264.022 178.553 263.924 178.992 263.924 179.496V183.5H262.692V175.996H263.7L263.84 177.368H263.896C264.129 176.957 264.437 176.603 264.82 176.304C265.212 176.005 265.669 175.856 266.192 175.856ZM270.981 182.632C271.168 182.632 271.359 182.618 271.555 182.59C271.751 182.562 271.91 182.525 272.031 182.478V183.416C271.9 183.481 271.714 183.533 271.471 183.57C271.228 183.617 270.995 183.64 270.771 183.64C270.379 183.64 270.015 183.575 269.679 183.444C269.352 183.304 269.086 183.066 268.881 182.73C268.676 182.394 268.573 181.923 268.573 181.316V176.948H267.509V176.36L268.587 175.87L269.077 174.274H269.805V175.996H271.975V176.948H269.805V181.288C269.805 181.745 269.912 182.086 270.127 182.31C270.351 182.525 270.636 182.632 270.981 182.632ZM284.118 178.502C284.118 178.931 284.066 179.351 283.964 179.762C283.87 180.173 283.721 180.546 283.516 180.882C283.31 181.209 283.058 181.475 282.76 181.68C282.461 181.876 282.106 181.974 281.696 181.974C281.266 181.974 280.926 181.853 280.674 181.61C280.431 181.358 280.282 181.073 280.226 180.756H280.156C279.988 181.101 279.74 181.391 279.414 181.624C279.087 181.857 278.676 181.974 278.182 181.974C277.463 181.974 276.912 181.736 276.53 181.26C276.147 180.784 275.956 180.154 275.956 179.37C275.956 178.763 276.077 178.222 276.32 177.746C276.562 177.27 276.903 176.897 277.342 176.626C277.79 176.355 278.317 176.22 278.924 176.22C279.334 176.22 279.736 176.257 280.128 176.332C280.529 176.397 280.842 176.472 281.066 176.556L280.926 179.398C280.916 179.566 280.912 179.687 280.912 179.762C280.912 179.827 280.912 179.874 280.912 179.902C280.912 180.397 280.996 180.723 281.164 180.882C281.341 181.031 281.546 181.106 281.78 181.106C282.069 181.106 282.312 180.989 282.508 180.756C282.713 180.513 282.867 180.196 282.97 179.804C283.082 179.412 283.138 178.973 283.138 178.488C283.138 177.629 282.96 176.897 282.606 176.29C282.26 175.683 281.78 175.221 281.164 174.904C280.557 174.587 279.866 174.428 279.092 174.428C278.028 174.428 277.127 174.647 276.39 175.086C275.662 175.525 275.106 176.131 274.724 176.906C274.35 177.671 274.164 178.549 274.164 179.538C274.164 180.919 274.528 181.979 275.256 182.716C275.984 183.453 277.034 183.822 278.406 183.822C278.975 183.822 279.516 183.757 280.03 183.626C280.552 183.505 281.014 183.369 281.416 183.22V184.172C281.014 184.34 280.562 184.475 280.058 184.578C279.563 184.69 279.012 184.746 278.406 184.746C277.304 184.746 276.362 184.541 275.578 184.13C274.794 183.719 274.192 183.131 273.772 182.366C273.361 181.591 273.156 180.663 273.156 179.58C273.156 178.712 273.291 177.909 273.562 177.172C273.832 176.425 274.224 175.781 274.738 175.24C275.251 174.689 275.872 174.265 276.6 173.966C277.337 173.658 278.168 173.504 279.092 173.504C280.062 173.504 280.926 173.705 281.682 174.106C282.438 174.507 283.03 175.081 283.46 175.828C283.898 176.575 284.118 177.466 284.118 178.502ZM277.048 179.398C277.048 180.005 277.164 180.443 277.398 180.714C277.631 180.975 277.953 181.106 278.364 181.106C278.886 181.106 279.26 180.91 279.484 180.518C279.717 180.126 279.852 179.617 279.89 178.992L279.974 177.242C279.852 177.205 279.698 177.172 279.512 177.144C279.325 177.116 279.134 177.102 278.938 177.102C278.48 177.102 278.112 177.214 277.832 177.438C277.552 177.662 277.351 177.951 277.23 178.306C277.108 178.651 277.048 179.015 277.048 179.398ZM289.024 175.856C289.658 175.856 290.209 175.996 290.676 176.276C291.142 176.556 291.497 176.953 291.74 177.466C291.992 177.97 292.118 178.563 292.118 179.244V179.986H286.98C286.998 180.835 287.213 181.484 287.624 181.932C288.044 182.371 288.627 182.59 289.374 182.59C289.85 182.59 290.27 182.548 290.634 182.464C291.007 182.371 291.39 182.24 291.782 182.072V183.15C291.399 183.318 291.021 183.439 290.648 183.514C290.274 183.598 289.831 183.64 289.318 183.64C288.599 183.64 287.969 183.495 287.428 183.206C286.886 182.917 286.462 182.487 286.154 181.918C285.855 181.349 285.706 180.644 285.706 179.804C285.706 178.983 285.841 178.278 286.112 177.69C286.392 177.102 286.779 176.649 287.274 176.332C287.778 176.015 288.361 175.856 289.024 175.856ZM289.01 176.864C288.422 176.864 287.955 177.055 287.61 177.438C287.274 177.811 287.073 178.334 287.008 179.006H290.83C290.82 178.371 290.671 177.858 290.382 177.466C290.092 177.065 289.635 176.864 289.01 176.864ZM302.26 175.856C303.109 175.856 303.744 176.075 304.164 176.514C304.584 176.953 304.794 177.653 304.794 178.614V183.5H303.576V178.67C303.576 177.485 303.067 176.892 302.05 176.892C301.322 176.892 300.799 177.102 300.482 177.522C300.174 177.942 300.02 178.553 300.02 179.356V183.5H298.802V178.67C298.802 177.485 298.289 176.892 297.262 176.892C296.506 176.892 295.983 177.125 295.694 177.592C295.405 178.059 295.26 178.731 295.26 179.608V183.5H294.028V175.996H295.022L295.204 177.018H295.274C295.507 176.626 295.82 176.337 296.212 176.15C296.613 175.954 297.038 175.856 297.486 175.856C298.662 175.856 299.427 176.276 299.782 177.116H299.852C300.104 176.687 300.445 176.369 300.874 176.164C301.303 175.959 301.765 175.856 302.26 175.856ZM309.954 175.87C310.869 175.87 311.545 176.071 311.984 176.472C312.423 176.873 312.642 177.513 312.642 178.39V183.5H311.746L311.508 182.436H311.452C311.125 182.847 310.78 183.15 310.416 183.346C310.052 183.542 309.557 183.64 308.932 183.64C308.251 183.64 307.686 183.463 307.238 183.108C306.79 182.744 306.566 182.179 306.566 181.414C306.566 180.667 306.86 180.093 307.448 179.692C308.036 179.281 308.941 179.057 310.164 179.02L311.438 178.978V178.53C311.438 177.905 311.303 177.471 311.032 177.228C310.761 176.985 310.379 176.864 309.884 176.864C309.492 176.864 309.119 176.925 308.764 177.046C308.409 177.158 308.078 177.289 307.77 177.438L307.392 176.514C307.719 176.337 308.106 176.187 308.554 176.066C309.002 175.935 309.469 175.87 309.954 175.87ZM311.424 179.832L310.318 179.874C309.385 179.911 308.736 180.061 308.372 180.322C308.017 180.583 307.84 180.952 307.84 181.428C307.84 181.848 307.966 182.156 308.218 182.352C308.479 182.548 308.811 182.646 309.212 182.646C309.837 182.646 310.36 182.473 310.78 182.128C311.209 181.773 311.424 181.232 311.424 180.504V179.832ZM315.59 173.182C315.776 173.182 315.94 173.247 316.08 173.378C316.229 173.499 316.304 173.695 316.304 173.966C316.304 174.237 316.229 174.437 316.08 174.568C315.94 174.689 315.776 174.75 315.59 174.75C315.384 174.75 315.212 174.689 315.072 174.568C314.932 174.437 314.862 174.237 314.862 173.966C314.862 173.695 314.932 173.499 315.072 173.378C315.212 173.247 315.384 173.182 315.59 173.182ZM316.192 175.996V183.5H314.96V175.996H316.192ZM319.801 183.5H318.569V172.86H319.801V183.5ZM321.996 182.744C321.996 182.399 322.08 182.156 322.248 182.016C322.416 181.876 322.617 181.806 322.85 181.806C323.084 181.806 323.289 181.876 323.466 182.016C323.644 182.156 323.732 182.399 323.732 182.744C323.732 183.08 323.644 183.323 323.466 183.472C323.289 183.621 323.084 183.696 322.85 183.696C322.617 183.696 322.416 183.621 322.248 183.472C322.08 183.323 321.996 183.08 321.996 182.744ZM328.934 183.64C328.262 183.64 327.67 183.505 327.156 183.234C326.643 182.963 326.237 182.543 325.938 181.974C325.649 181.405 325.504 180.677 325.504 179.79C325.504 178.866 325.654 178.115 325.952 177.536C326.26 176.957 326.68 176.533 327.212 176.262C327.744 175.991 328.346 175.856 329.018 175.856C329.392 175.856 329.756 175.898 330.11 175.982C330.474 176.057 330.768 176.15 330.992 176.262L330.614 177.284C330.39 177.2 330.129 177.121 329.83 177.046C329.532 176.971 329.252 176.934 328.99 176.934C327.516 176.934 326.778 177.881 326.778 179.776C326.778 180.681 326.956 181.377 327.31 181.862C327.674 182.338 328.211 182.576 328.92 182.576C329.322 182.576 329.681 182.534 329.998 182.45C330.316 182.366 330.605 182.263 330.866 182.142V183.234C330.614 183.365 330.334 183.463 330.026 183.528C329.728 183.603 329.364 183.64 328.934 183.64ZM339.175 179.734C339.175 180.975 338.858 181.937 338.223 182.618C337.598 183.299 336.748 183.64 335.675 183.64C335.012 183.64 334.42 183.491 333.897 183.192C333.384 182.884 332.978 182.441 332.679 181.862C332.38 181.274 332.231 180.565 332.231 179.734C332.231 178.493 332.539 177.536 333.155 176.864C333.78 176.192 334.634 175.856 335.717 175.856C336.389 175.856 336.986 176.01 337.509 176.318C338.032 176.617 338.438 177.055 338.727 177.634C339.026 178.203 339.175 178.903 339.175 179.734ZM333.505 179.734C333.505 180.621 333.678 181.325 334.023 181.848C334.378 182.361 334.938 182.618 335.703 182.618C336.459 182.618 337.014 182.361 337.369 181.848C337.724 181.325 337.901 180.621 337.901 179.734C337.901 178.847 337.724 178.152 337.369 177.648C337.014 177.144 336.454 176.892 335.689 176.892C334.924 176.892 334.368 177.144 334.023 177.648C333.678 178.152 333.505 178.847 333.505 179.734ZM349.36 175.856C350.209 175.856 350.844 176.075 351.264 176.514C351.684 176.953 351.894 177.653 351.894 178.614V183.5H350.676V178.67C350.676 177.485 350.167 176.892 349.15 176.892C348.422 176.892 347.899 177.102 347.582 177.522C347.274 177.942 347.12 178.553 347.12 179.356V183.5H345.902V178.67C345.902 177.485 345.388 176.892 344.362 176.892C343.606 176.892 343.083 177.125 342.794 177.592C342.504 178.059 342.36 178.731 342.36 179.608V183.5H341.128V175.996H342.122L342.304 177.018H342.374C342.607 176.626 342.92 176.337 343.312 176.15C343.713 175.954 344.138 175.856 344.586 175.856C345.762 175.856 346.527 176.276 346.882 177.116H346.952C347.204 176.687 347.544 176.369 347.974 176.164C348.403 175.959 348.865 175.856 349.36 175.856Z" fill="black"/>
<line x1="215" y1="200" x2="400" y2="200" stroke="#F1F1F1"/>
<rect width="185" height="44" transform="translate(215 200.5)" fill="white"/>
<path d="M235.2 227.64C234.528 227.64 233.935 227.505 233.422 227.234C232.909 226.963 232.503 226.543 232.204 225.974C231.915 225.405 231.77 224.677 231.77 223.79C231.77 222.866 231.919 222.115 232.218 221.536C232.526 220.957 232.946 220.533 233.478 220.262C234.01 219.991 234.612 219.856 235.284 219.856C235.657 219.856 236.021 219.898 236.376 219.982C236.74 220.057 237.034 220.15 237.258 220.262L236.88 221.284C236.656 221.2 236.395 221.121 236.096 221.046C235.797 220.971 235.517 220.934 235.256 220.934C233.781 220.934 233.044 221.881 233.044 223.776C233.044 224.681 233.221 225.377 233.576 225.862C233.94 226.338 234.477 226.576 235.186 226.576C235.587 226.576 235.947 226.534 236.264 226.45C236.581 226.366 236.871 226.263 237.132 226.142V227.234C236.88 227.365 236.6 227.463 236.292 227.528C235.993 227.603 235.629 227.64 235.2 227.64ZM240.149 216.86V219.982C240.149 220.355 240.125 220.705 240.079 221.032H240.163C240.405 220.649 240.732 220.36 241.143 220.164C241.563 219.968 242.015 219.87 242.501 219.87C243.406 219.87 244.087 220.089 244.545 220.528C245.011 220.957 245.245 221.653 245.245 222.614V227.5H244.027V222.698C244.027 221.494 243.467 220.892 242.347 220.892C241.507 220.892 240.928 221.13 240.611 221.606C240.303 222.073 240.149 222.745 240.149 223.622V227.5H238.917V216.86H240.149ZM251.071 219.856C251.211 219.856 251.36 219.865 251.519 219.884C251.678 219.893 251.822 219.912 251.953 219.94L251.799 221.074C251.678 221.046 251.542 221.023 251.393 221.004C251.244 220.985 251.108 220.976 250.987 220.976C250.604 220.976 250.245 221.083 249.909 221.298C249.573 221.503 249.302 221.797 249.097 222.18C248.901 222.553 248.803 222.992 248.803 223.496V227.5H247.571V219.996H248.579L248.719 221.368H248.775C249.008 220.957 249.316 220.603 249.699 220.304C250.091 220.005 250.548 219.856 251.071 219.856ZM253.984 217.182C254.171 217.182 254.334 217.247 254.474 217.378C254.623 217.499 254.698 217.695 254.698 217.966C254.698 218.237 254.623 218.437 254.474 218.568C254.334 218.689 254.171 218.75 253.984 218.75C253.779 218.75 253.606 218.689 253.466 218.568C253.326 218.437 253.256 218.237 253.256 217.966C253.256 217.695 253.326 217.499 253.466 217.378C253.606 217.247 253.779 217.182 253.984 217.182ZM254.586 219.996V227.5H253.354V219.996H254.586ZM261.849 225.428C261.849 226.156 261.579 226.707 261.037 227.08C260.496 227.453 259.768 227.64 258.853 227.64C258.331 227.64 257.878 227.598 257.495 227.514C257.122 227.43 256.791 227.313 256.501 227.164V226.044C256.8 226.193 257.159 226.333 257.579 226.464C258.009 226.585 258.443 226.646 258.881 226.646C259.507 226.646 259.959 226.548 260.239 226.352C260.519 226.147 260.659 225.876 260.659 225.54C260.659 225.353 260.608 225.185 260.505 225.036C260.403 224.887 260.216 224.737 259.945 224.588C259.684 224.439 259.306 224.271 258.811 224.084C258.326 223.897 257.911 223.711 257.565 223.524C257.22 223.337 256.954 223.113 256.767 222.852C256.581 222.591 256.487 222.255 256.487 221.844C256.487 221.209 256.744 220.719 257.257 220.374C257.78 220.029 258.461 219.856 259.301 219.856C259.759 219.856 260.183 219.903 260.575 219.996C260.977 220.089 261.35 220.211 261.695 220.36L261.275 221.34C260.958 221.209 260.627 221.097 260.281 221.004C259.936 220.911 259.581 220.864 259.217 220.864C258.713 220.864 258.326 220.948 258.055 221.116C257.794 221.275 257.663 221.494 257.663 221.774C257.663 221.989 257.724 222.166 257.845 222.306C257.967 222.446 258.167 222.586 258.447 222.726C258.737 222.866 259.119 223.025 259.595 223.202C260.071 223.379 260.477 223.561 260.813 223.748C261.149 223.935 261.406 224.163 261.583 224.434C261.761 224.695 261.849 225.027 261.849 225.428ZM274.247 222.502C274.247 222.931 274.195 223.351 274.093 223.762C273.999 224.173 273.85 224.546 273.645 224.882C273.439 225.209 273.187 225.475 272.889 225.68C272.59 225.876 272.235 225.974 271.825 225.974C271.395 225.974 271.055 225.853 270.803 225.61C270.56 225.358 270.411 225.073 270.355 224.756H270.285C270.117 225.101 269.869 225.391 269.543 225.624C269.216 225.857 268.805 225.974 268.311 225.974C267.592 225.974 267.041 225.736 266.659 225.26C266.276 224.784 266.085 224.154 266.085 223.37C266.085 222.763 266.206 222.222 266.449 221.746C266.691 221.27 267.032 220.897 267.471 220.626C267.919 220.355 268.446 220.22 269.053 220.22C269.463 220.22 269.865 220.257 270.257 220.332C270.658 220.397 270.971 220.472 271.195 220.556L271.055 223.398C271.045 223.566 271.041 223.687 271.041 223.762C271.041 223.827 271.041 223.874 271.041 223.902C271.041 224.397 271.125 224.723 271.293 224.882C271.47 225.031 271.675 225.106 271.909 225.106C272.198 225.106 272.441 224.989 272.637 224.756C272.842 224.513 272.996 224.196 273.099 223.804C273.211 223.412 273.267 222.973 273.267 222.488C273.267 221.629 273.089 220.897 272.735 220.29C272.389 219.683 271.909 219.221 271.293 218.904C270.686 218.587 269.995 218.428 269.221 218.428C268.157 218.428 267.256 218.647 266.519 219.086C265.791 219.525 265.235 220.131 264.853 220.906C264.479 221.671 264.293 222.549 264.293 223.538C264.293 224.919 264.657 225.979 265.385 226.716C266.113 227.453 267.163 227.822 268.535 227.822C269.104 227.822 269.645 227.757 270.159 227.626C270.681 227.505 271.143 227.369 271.545 227.22V228.172C271.143 228.34 270.691 228.475 270.187 228.578C269.692 228.69 269.141 228.746 268.535 228.746C267.433 228.746 266.491 228.541 265.707 228.13C264.923 227.719 264.321 227.131 263.901 226.366C263.49 225.591 263.285 224.663 263.285 223.58C263.285 222.712 263.42 221.909 263.691 221.172C263.961 220.425 264.353 219.781 264.867 219.24C265.38 218.689 266.001 218.265 266.729 217.966C267.466 217.658 268.297 217.504 269.221 217.504C270.191 217.504 271.055 217.705 271.811 218.106C272.567 218.507 273.159 219.081 273.589 219.828C274.027 220.575 274.247 221.466 274.247 222.502ZM267.177 223.398C267.177 224.005 267.293 224.443 267.527 224.714C267.76 224.975 268.082 225.106 268.493 225.106C269.015 225.106 269.389 224.91 269.613 224.518C269.846 224.126 269.981 223.617 270.019 222.992L270.103 221.242C269.981 221.205 269.827 221.172 269.641 221.144C269.454 221.116 269.263 221.102 269.067 221.102C268.609 221.102 268.241 221.214 267.961 221.438C267.681 221.662 267.48 221.951 267.359 222.306C267.237 222.651 267.177 223.015 267.177 223.398ZM279.152 219.856C279.787 219.856 280.338 219.996 280.804 220.276C281.271 220.556 281.626 220.953 281.868 221.466C282.12 221.97 282.246 222.563 282.246 223.244V223.986H277.108C277.127 224.835 277.342 225.484 277.752 225.932C278.172 226.371 278.756 226.59 279.502 226.59C279.978 226.59 280.398 226.548 280.762 226.464C281.136 226.371 281.518 226.24 281.91 226.072V227.15C281.528 227.318 281.15 227.439 280.776 227.514C280.403 227.598 279.96 227.64 279.446 227.64C278.728 227.64 278.098 227.495 277.556 227.206C277.015 226.917 276.59 226.487 276.282 225.918C275.984 225.349 275.834 224.644 275.834 223.804C275.834 222.983 275.97 222.278 276.24 221.69C276.52 221.102 276.908 220.649 277.402 220.332C277.906 220.015 278.49 219.856 279.152 219.856ZM279.138 220.864C278.55 220.864 278.084 221.055 277.738 221.438C277.402 221.811 277.202 222.334 277.136 223.006H280.958C280.949 222.371 280.8 221.858 280.51 221.466C280.221 221.065 279.764 220.864 279.138 220.864ZM292.389 219.856C293.238 219.856 293.873 220.075 294.293 220.514C294.713 220.953 294.923 221.653 294.923 222.614V227.5H293.705V222.67C293.705 221.485 293.196 220.892 292.179 220.892C291.451 220.892 290.928 221.102 290.611 221.522C290.303 221.942 290.149 222.553 290.149 223.356V227.5H288.931V222.67C288.931 221.485 288.417 220.892 287.391 220.892C286.635 220.892 286.112 221.125 285.823 221.592C285.533 222.059 285.389 222.731 285.389 223.608V227.5H284.157V219.996H285.151L285.333 221.018H285.403C285.636 220.626 285.949 220.337 286.341 220.15C286.742 219.954 287.167 219.856 287.615 219.856C288.791 219.856 289.556 220.276 289.911 221.116H289.981C290.233 220.687 290.573 220.369 291.003 220.164C291.432 219.959 291.894 219.856 292.389 219.856ZM300.083 219.87C300.997 219.87 301.674 220.071 302.113 220.472C302.551 220.873 302.771 221.513 302.771 222.39V227.5H301.875L301.637 226.436H301.581C301.254 226.847 300.909 227.15 300.545 227.346C300.181 227.542 299.686 227.64 299.061 227.64C298.379 227.64 297.815 227.463 297.367 227.108C296.919 226.744 296.695 226.179 296.695 225.414C296.695 224.667 296.989 224.093 297.577 223.692C298.165 223.281 299.07 223.057 300.293 223.02L301.567 222.978V222.53C301.567 221.905 301.431 221.471 301.161 221.228C300.89 220.985 300.507 220.864 300.013 220.864C299.621 220.864 299.247 220.925 298.893 221.046C298.538 221.158 298.207 221.289 297.899 221.438L297.521 220.514C297.847 220.337 298.235 220.187 298.683 220.066C299.131 219.935 299.597 219.87 300.083 219.87ZM301.553 223.832L300.447 223.874C299.513 223.911 298.865 224.061 298.501 224.322C298.146 224.583 297.969 224.952 297.969 225.428C297.969 225.848 298.095 226.156 298.347 226.352C298.608 226.548 298.939 226.646 299.341 226.646C299.966 226.646 300.489 226.473 300.909 226.128C301.338 225.773 301.553 225.232 301.553 224.504V223.832ZM305.718 217.182C305.905 217.182 306.068 217.247 306.208 217.378C306.358 217.499 306.432 217.695 306.432 217.966C306.432 218.237 306.358 218.437 306.208 218.568C306.068 218.689 305.905 218.75 305.718 218.75C305.513 218.75 305.34 218.689 305.2 218.568C305.06 218.437 304.99 218.237 304.99 217.966C304.99 217.695 305.06 217.499 305.2 217.378C305.34 217.247 305.513 217.182 305.718 217.182ZM306.32 219.996V227.5H305.088V219.996H306.32ZM309.93 227.5H308.698V216.86H309.93V227.5ZM312.125 226.744C312.125 226.399 312.209 226.156 312.377 226.016C312.545 225.876 312.746 225.806 312.979 225.806C313.213 225.806 313.418 225.876 313.595 226.016C313.773 226.156 313.861 226.399 313.861 226.744C313.861 227.08 313.773 227.323 313.595 227.472C313.418 227.621 313.213 227.696 312.979 227.696C312.746 227.696 312.545 227.621 312.377 227.472C312.209 227.323 312.125 227.08 312.125 226.744ZM319.063 227.64C318.391 227.64 317.799 227.505 317.285 227.234C316.772 226.963 316.366 226.543 316.067 225.974C315.778 225.405 315.633 224.677 315.633 223.79C315.633 222.866 315.783 222.115 316.081 221.536C316.389 220.957 316.809 220.533 317.341 220.262C317.873 219.991 318.475 219.856 319.147 219.856C319.521 219.856 319.885 219.898 320.239 219.982C320.603 220.057 320.897 220.15 321.121 220.262L320.743 221.284C320.519 221.2 320.258 221.121 319.959 221.046C319.661 220.971 319.381 220.934 319.119 220.934C317.645 220.934 316.907 221.881 316.907 223.776C316.907 224.681 317.085 225.377 317.439 225.862C317.803 226.338 318.34 226.576 319.049 226.576C319.451 226.576 319.81 226.534 320.127 226.45C320.445 226.366 320.734 226.263 320.995 226.142V227.234C320.743 227.365 320.463 227.463 320.155 227.528C319.857 227.603 319.493 227.64 319.063 227.64ZM329.304 223.734C329.304 224.975 328.987 225.937 328.352 226.618C327.727 227.299 326.877 227.64 325.804 227.64C325.141 227.64 324.549 227.491 324.026 227.192C323.513 226.884 323.107 226.441 322.808 225.862C322.509 225.274 322.36 224.565 322.36 223.734C322.36 222.493 322.668 221.536 323.284 220.864C323.909 220.192 324.763 219.856 325.846 219.856C326.518 219.856 327.115 220.01 327.638 220.318C328.161 220.617 328.567 221.055 328.856 221.634C329.155 222.203 329.304 222.903 329.304 223.734ZM323.634 223.734C323.634 224.621 323.807 225.325 324.152 225.848C324.507 226.361 325.067 226.618 325.832 226.618C326.588 226.618 327.143 226.361 327.498 225.848C327.853 225.325 328.03 224.621 328.03 223.734C328.03 222.847 327.853 222.152 327.498 221.648C327.143 221.144 326.583 220.892 325.818 220.892C325.053 220.892 324.497 221.144 324.152 221.648C323.807 222.152 323.634 222.847 323.634 223.734ZM339.488 219.856C340.338 219.856 340.972 220.075 341.392 220.514C341.812 220.953 342.022 221.653 342.022 222.614V227.5H340.804V222.67C340.804 221.485 340.296 220.892 339.278 220.892C338.55 220.892 338.028 221.102 337.71 221.522C337.402 221.942 337.248 222.553 337.248 223.356V227.5H336.03V222.67C336.03 221.485 335.517 220.892 334.49 220.892C333.734 220.892 333.212 221.125 332.922 221.592C332.633 222.059 332.488 222.731 332.488 223.608V227.5H331.256V219.996H332.25L332.432 221.018H332.502C332.736 220.626 333.048 220.337 333.44 220.15C333.842 219.954 334.266 219.856 334.714 219.856C335.89 219.856 336.656 220.276 337.01 221.116H337.08C337.332 220.687 337.673 220.369 338.102 220.164C338.532 219.959 338.994 219.856 339.488 219.856Z" fill="black"/>
<g clip-path="url(#clip0_8107_327846)">
<rect width="36" height="44" transform="translate(0 68.5)" fill="white"/>
<rect x="10" y="82.5" width="16" height="16" rx="4" fill="#1473E6"/>
<path d="M23.05 90.75H12.9C12.65 90.75 12.5 90.6 12.5 90.4C12.5 90.2 12.65 90 12.9 90H23.1C23.3 90 23.5 90.15 23.5 90.4C23.5 90.65 23.25 90.75 23.05 90.75Z" fill="white"/>
<line x1="4.37114e-08" y1="69" x2="36" y2="69" stroke="#C9C9C9"/>
<line x1="4.37114e-08" y1="112" x2="36" y2="112" stroke="#C9C9C9"/>
</g>
<g clip-path="url(#clip1_8107_327846)">
<rect width="36" height="44" transform="translate(0 112.5)" fill="white"/>
<line x1="4.37114e-08" y1="156" x2="36" y2="156" stroke="#F1F1F1"/>
</g>
<g clip-path="url(#clip2_8107_327846)">
<rect width="36" height="44" transform="translate(0 156.5)" fill="white"/>
<rect x="10" y="170.5" width="16" height="16" rx="4" fill="white"/>
<rect x="10.5" y="171" width="15" height="15" rx="3.5" fill="#1473E6" stroke="#1473E6"/>
<path d="M16.5125 183.702C16.4125 183.702 16.3125 183.652 16.2625 183.602L12.1125 179.452C11.9625 179.302 11.9625 179.052 12.1125 178.902C12.2625 178.752 12.5125 178.752 12.6625 178.902L16.5125 182.752L23.3125 173.652C23.4125 173.502 23.6625 173.452 23.8125 173.552C23.9625 173.652 24.0125 173.902 23.9125 174.052L16.8125 183.552C16.7625 183.652 16.6625 183.702 16.5125 183.702Z" fill="white"/>
<line x1="4.37114e-08" y1="200" x2="36" y2="200" stroke="#F1F1F1"/>
</g>
<rect width="36" height="44" transform="translate(0 200.5)" fill="white"/>
<defs>
<clipPath id="clip0_8107_327846">
<rect width="36" height="44" fill="white" transform="translate(0 68.5)"/>
</clipPath>
<clipPath id="clip1_8107_327846">
<rect width="36" height="44" fill="white" transform="translate(0 112.5)"/>
</clipPath>
<clipPath id="clip2_8107_327846">
<rect width="36" height="44" fill="white" transform="translate(0 156.5)"/>
</clipPath>
</defs>
</svg>
