<svg width="60" height="88" viewBox="0 0 60 88" fill="none" xmlns="http://www.w3.org/2000/svg">
<path d="M26 27C22.15 27 19 30.15 19 34C19 37.85 22.15 41 26 41C29.85 41 33 37.85 33 34C33 30.15 29.85 27 26 27ZM22.65 39.25V38.9C22.65 37.05 24.15 35.55 26 35.55C27.85 35.55 29.35 37.05 29.35 38.9V39.25C28.4 39.85 27.25 40.25 26 40.25C24.75 40.25 23.6 39.9 22.65 39.25ZM30.1 38.7C30 36.55 28.2 34.8 26 34.8C23.8 34.8 22 36.5 21.9 38.7C20.6 37.55 19.75 35.85 19.75 34C19.75 30.55 22.55 27.75 26 27.75C29.45 27.75 32.25 30.55 32.25 34C32.25 35.9 31.4 37.55 30.1 38.7Z" fill="black"/>
<path d="M26 29.2C24.65 29.2 23.6 30.3 23.6 31.6C23.6 32.9 24.7 34 26 34C27.35 34 28.4 32.9 28.4 31.6C28.4 30.3 27.35 29.2 26 29.2ZM26 33.3C25.1 33.3 24.35 32.55 24.35 31.65C24.35 30.75 25.1 30 26 30C26.9 30 27.65 30.75 27.65 31.65C27.65 32.55 26.9 33.3 26 33.3Z" fill="black"/>
<path d="M17.2649 73H16.0609V66.014C16.0609 65.6127 16.0656 65.2907 16.0749 65.048C16.0843 64.8053 16.0983 64.5533 16.1169 64.292C15.9676 64.4413 15.8276 64.5673 15.6969 64.67C15.5756 64.7727 15.4263 64.9033 15.2489 65.062L14.1849 65.93L13.5409 65.104L16.2429 63.004H17.2649V73ZM21.0766 68.73C21.0766 68.0113 21.1373 67.3067 21.2586 66.616C21.3893 65.916 21.618 65.286 21.9446 64.726C22.2806 64.1567 22.7473 63.704 23.3446 63.368C23.942 63.032 24.712 62.864 25.6546 62.864C25.8506 62.864 26.0653 62.8733 26.2986 62.892C26.5413 62.9107 26.7373 62.9433 26.8866 62.99V64.04C26.7186 63.984 26.5273 63.942 26.3126 63.914C26.098 63.886 25.888 63.872 25.6826 63.872C25.0386 63.872 24.502 63.9793 24.0726 64.194C23.6433 64.4087 23.3026 64.7027 23.0506 65.076C22.808 65.4493 22.6306 65.8787 22.5186 66.364C22.4066 66.8493 22.3366 67.3673 22.3086 67.918H22.3926C22.6073 67.5913 22.906 67.316 23.2886 67.092C23.6713 66.8587 24.1613 66.742 24.7586 66.742C25.6266 66.742 26.3266 67.008 26.8586 67.54C27.3906 68.0627 27.6566 68.8093 27.6566 69.78C27.6566 70.8253 27.3673 71.6467 26.7886 72.244C26.2193 72.8413 25.4493 73.14 24.4786 73.14C23.844 73.14 23.27 72.9813 22.7566 72.664C22.2433 72.3467 21.8326 71.8613 21.5246 71.208C21.226 70.5547 21.0766 69.7287 21.0766 68.73ZM24.4646 72.104C25.0526 72.104 25.5286 71.9173 25.8926 71.544C26.2566 71.1613 26.4386 70.5733 26.4386 69.78C26.4386 69.1453 26.2753 68.6413 25.9486 68.268C25.6313 67.8947 25.1506 67.708 24.5066 67.708C24.068 67.708 23.6853 67.8013 23.3586 67.988C23.032 68.1653 22.7753 68.3987 22.5886 68.688C22.4113 68.968 22.3226 69.2527 22.3226 69.542C22.3226 69.9433 22.402 70.3447 22.5606 70.746C22.7193 71.138 22.9573 71.4647 23.2746 71.726C23.592 71.978 23.9886 72.104 24.4646 72.104ZM36.7151 65.356C37.6391 65.356 38.3811 65.678 38.9411 66.322C39.5104 66.966 39.7951 67.9367 39.7951 69.234C39.7951 70.5127 39.5104 71.4833 38.9411 72.146C38.3811 72.8087 37.6344 73.14 36.7011 73.14C36.1224 73.14 35.6417 73.0327 35.2591 72.818C34.8857 72.6033 34.5917 72.3467 34.3771 72.048H34.2931C34.3024 72.2067 34.3164 72.4073 34.3351 72.65C34.3631 72.8927 34.3771 73.1027 34.3771 73.28V76.36H33.1451V65.496H34.1531L34.3211 66.518H34.3771C34.6011 66.1913 34.8951 65.916 35.2591 65.692C35.6231 65.468 36.1084 65.356 36.7151 65.356ZM36.4911 66.392C35.7257 66.392 35.1844 66.6067 34.8671 67.036C34.5497 67.4653 34.3864 68.1187 34.3771 68.996V69.234C34.3771 70.158 34.5264 70.872 34.8251 71.376C35.1331 71.8707 35.6977 72.118 36.5191 72.118C36.9671 72.118 37.3404 71.9967 37.6391 71.754C37.9377 71.502 38.1571 71.1567 38.2971 70.718C38.4464 70.2793 38.5211 69.78 38.5211 69.22C38.5211 68.3613 38.3531 67.6753 38.0171 67.162C37.6904 66.6487 37.1817 66.392 36.4911 66.392ZM43.2629 69.164L40.6729 65.496H42.0729L44.0049 68.324L45.9229 65.496H47.3089L44.7189 69.164L47.4489 73H46.0489L44.0049 70.004L41.9329 73H40.5469L43.2629 69.164Z" fill="black"/>
</svg>
