<svg width="412" height="347" viewBox="0 0 412 347" fill="none" xmlns="http://www.w3.org/2000/svg">
<rect width="412" height="347" fill="white"/>
<rect width="221" height="44" transform="translate(11 131)" fill="white"/>
<path d="M33.986 158H28.302V148.004H33.986V149.502H30.094V152.05H33.734V153.548H30.094V156.488H33.986V158ZM44.6346 150.272C45.4933 150.272 46.1373 150.491 46.5666 150.93C47.0053 151.369 47.2246 152.078 47.2246 153.058V158H45.4606V153.394C45.4606 152.265 45.0313 151.7 44.1726 151.7C43.5566 151.7 43.118 151.901 42.8566 152.302C42.5953 152.703 42.4646 153.287 42.4646 154.052V158H40.7006V153.394C40.7006 152.265 40.2666 151.7 39.3986 151.7C38.7546 151.7 38.3113 151.924 38.0686 152.372C37.826 152.82 37.7046 153.459 37.7046 154.29V158H35.9406V150.412H37.2986L37.5506 151.406H37.6486C37.882 151.014 38.1993 150.729 38.6006 150.552C39.002 150.365 39.422 150.272 39.8606 150.272C40.43 150.272 40.906 150.365 41.2886 150.552C41.6806 150.739 41.9793 151.037 42.1846 151.448H42.3246C42.558 151.037 42.8846 150.739 43.3046 150.552C43.7246 150.365 44.168 150.272 44.6346 150.272ZM52.4588 150.272C53.4388 150.272 54.1808 150.487 54.6848 150.916C55.1981 151.345 55.4548 152.008 55.4548 152.904V158H54.2088L53.8588 156.95H53.8028C53.4761 157.361 53.1308 157.664 52.7668 157.86C52.4028 158.047 51.9081 158.14 51.2828 158.14C50.6014 158.14 50.0368 157.949 49.5888 157.566C49.1408 157.183 48.9168 156.591 48.9168 155.788C48.9168 155.004 49.2014 154.416 49.7708 154.024C50.3494 153.632 51.2221 153.413 52.3888 153.366L53.7048 153.324V152.946C53.7048 152.461 53.5881 152.115 53.3548 151.91C53.1214 151.705 52.7948 151.602 52.3748 151.602C51.9921 151.602 51.6234 151.658 51.2688 151.77C50.9234 151.873 50.5781 152.003 50.2328 152.162L49.6728 150.93C50.0461 150.734 50.4708 150.575 50.9468 150.454C51.4321 150.333 51.9361 150.272 52.4588 150.272ZM53.7048 154.416L52.7808 154.444C52.0061 154.472 51.4694 154.607 51.1708 154.85C50.8721 155.083 50.7228 155.401 50.7228 155.802C50.7228 156.166 50.8254 156.427 51.0308 156.586C51.2454 156.735 51.5254 156.81 51.8708 156.81C52.3841 156.81 52.8181 156.665 53.1728 156.376C53.5274 156.077 53.7048 155.639 53.7048 155.06V154.416ZM58.5473 147.486C58.8086 147.486 59.0373 147.556 59.2333 147.696C59.4293 147.827 59.5273 148.065 59.5273 148.41C59.5273 148.755 59.4293 148.998 59.2333 149.138C59.0373 149.278 58.8086 149.348 58.5473 149.348C58.2766 149.348 58.0433 149.278 57.8473 149.138C57.6606 148.998 57.5673 148.755 57.5673 148.41C57.5673 148.065 57.6606 147.827 57.8473 147.696C58.0433 147.556 58.2766 147.486 58.5473 147.486ZM59.4293 150.412V158H57.6653V150.412H59.4293ZM63.4488 158H61.6848V147.36H63.4488V158Z" fill="black"/>
<path d="M81.0125 156.363C80.9125 156.363 80.8125 156.313 80.7625 156.263L75.1125 150.663C74.9625 150.513 74.9625 150.263 75.1125 150.113C75.2625 149.962 75.5125 149.962 75.6625 150.113L81.0125 155.463L86.3125 150.113C86.4625 149.962 86.7125 149.962 86.8625 150.113C87.0125 150.263 87.0125 150.513 86.8625 150.663L81.2625 156.263C81.1625 156.313 81.1125 156.363 81.0125 156.363Z" fill="#323232"/>
<line x1="11" y1="131.5" x2="232" y2="131.5" stroke="#C9C9C9"/>
<line x1="11" y1="174.5" x2="232" y2="174.5" stroke="#C9C9C9"/>
<rect width="221" height="44" transform="translate(11 175)" fill="white"/>
<path d="M28.092 192.466C28.092 192.195 28.162 191.999 28.302 191.878C28.442 191.747 28.6147 191.682 28.82 191.682C29.0067 191.682 29.17 191.747 29.31 191.878C29.4593 191.999 29.534 192.195 29.534 192.466C29.534 192.737 29.4593 192.937 29.31 193.068C29.17 193.189 29.0067 193.25 28.82 193.25C28.6147 193.25 28.442 193.189 28.302 193.068C28.162 192.937 28.092 192.737 28.092 192.466ZM27.308 205.36C27.0653 205.36 26.8553 205.341 26.678 205.304C26.5007 205.276 26.3513 205.239 26.23 205.192V204.198C26.37 204.245 26.5147 204.277 26.664 204.296C26.8133 204.324 26.9767 204.338 27.154 204.338C27.4527 204.338 27.7 204.254 27.896 204.086C28.092 203.927 28.19 203.619 28.19 203.162V194.496H29.422V203.12C29.422 203.82 29.254 204.366 28.918 204.758C28.582 205.159 28.0453 205.36 27.308 205.36ZM34.6414 194.37C35.556 194.37 36.2327 194.571 36.6714 194.972C37.11 195.373 37.3294 196.013 37.3294 196.89V202H36.4334L36.1954 200.936H36.1394C35.8127 201.347 35.4674 201.65 35.1034 201.846C34.7394 202.042 34.2447 202.14 33.6194 202.14C32.938 202.14 32.3734 201.963 31.9254 201.608C31.4774 201.244 31.2534 200.679 31.2534 199.914C31.2534 199.167 31.5474 198.593 32.1354 198.192C32.7234 197.781 33.6287 197.557 34.8514 197.52L36.1254 197.478V197.03C36.1254 196.405 35.99 195.971 35.7194 195.728C35.4487 195.485 35.066 195.364 34.5714 195.364C34.1794 195.364 33.806 195.425 33.4514 195.546C33.0967 195.658 32.7654 195.789 32.4574 195.938L32.0794 195.014C32.406 194.837 32.7934 194.687 33.2414 194.566C33.6894 194.435 34.156 194.37 34.6414 194.37ZM36.1114 198.332L35.0054 198.374C34.072 198.411 33.4234 198.561 33.0594 198.822C32.7047 199.083 32.5274 199.452 32.5274 199.928C32.5274 200.348 32.6534 200.656 32.9054 200.852C33.1667 201.048 33.498 201.146 33.8994 201.146C34.5247 201.146 35.0474 200.973 35.4674 200.628C35.8967 200.273 36.1114 199.732 36.1114 199.004V198.332ZM47.879 194.356C48.7284 194.356 49.363 194.575 49.783 195.014C50.203 195.453 50.413 196.153 50.413 197.114V202H49.195V197.17C49.195 195.985 48.6864 195.392 47.669 195.392C46.941 195.392 46.4184 195.602 46.101 196.022C45.793 196.442 45.639 197.053 45.639 197.856V202H44.421V197.17C44.421 195.985 43.9077 195.392 42.881 195.392C42.125 195.392 41.6024 195.625 41.313 196.092C41.0237 196.559 40.879 197.231 40.879 198.108V202H39.647V194.496H40.641L40.823 195.518H40.893C41.1264 195.126 41.439 194.837 41.831 194.65C42.2324 194.454 42.657 194.356 43.105 194.356C44.281 194.356 45.0464 194.776 45.401 195.616H45.471C45.723 195.187 46.0637 194.869 46.493 194.664C46.9224 194.459 47.3844 194.356 47.879 194.356ZM55.629 194.356C56.2637 194.356 56.8143 194.496 57.281 194.776C57.7477 195.056 58.1023 195.453 58.345 195.966C58.597 196.47 58.723 197.063 58.723 197.744V198.486H53.585C53.6037 199.335 53.8183 199.984 54.229 200.432C54.649 200.871 55.2323 201.09 55.979 201.09C56.455 201.09 56.875 201.048 57.239 200.964C57.6123 200.871 57.995 200.74 58.387 200.572V201.65C58.0043 201.818 57.6263 201.939 57.253 202.014C56.8797 202.098 56.4363 202.14 55.923 202.14C55.2043 202.14 54.5743 201.995 54.033 201.706C53.4917 201.417 53.067 200.987 52.759 200.418C52.4603 199.849 52.311 199.144 52.311 198.304C52.311 197.483 52.4463 196.778 52.717 196.19C52.997 195.602 53.3843 195.149 53.879 194.832C54.383 194.515 54.9663 194.356 55.629 194.356ZM55.615 195.364C55.027 195.364 54.5603 195.555 54.215 195.938C53.879 196.311 53.6783 196.834 53.613 197.506H57.435C57.4257 196.871 57.2763 196.358 56.987 195.966C56.6977 195.565 56.2403 195.364 55.615 195.364ZM65.5194 199.928C65.5194 200.656 65.2487 201.207 64.7074 201.58C64.166 201.953 63.438 202.14 62.5234 202.14C62.0007 202.14 61.548 202.098 61.1654 202.014C60.792 201.93 60.4607 201.813 60.1714 201.664V200.544C60.47 200.693 60.8294 200.833 61.2494 200.964C61.6787 201.085 62.1127 201.146 62.5514 201.146C63.1767 201.146 63.6294 201.048 63.9094 200.852C64.1894 200.647 64.3294 200.376 64.3294 200.04C64.3294 199.853 64.278 199.685 64.1754 199.536C64.0727 199.387 63.886 199.237 63.6154 199.088C63.354 198.939 62.976 198.771 62.4814 198.584C61.996 198.397 61.5807 198.211 61.2354 198.024C60.89 197.837 60.624 197.613 60.4374 197.352C60.2507 197.091 60.1574 196.755 60.1574 196.344C60.1574 195.709 60.414 195.219 60.9274 194.874C61.45 194.529 62.1314 194.356 62.9714 194.356C63.4287 194.356 63.8534 194.403 64.2454 194.496C64.6467 194.589 65.02 194.711 65.3654 194.86L64.9454 195.84C64.628 195.709 64.2967 195.597 63.9514 195.504C63.606 195.411 63.2514 195.364 62.8874 195.364C62.3834 195.364 61.996 195.448 61.7254 195.616C61.464 195.775 61.3334 195.994 61.3334 196.274C61.3334 196.489 61.394 196.666 61.5154 196.806C61.6367 196.946 61.8374 197.086 62.1174 197.226C62.4067 197.366 62.7894 197.525 63.2654 197.702C63.7414 197.879 64.1474 198.061 64.4834 198.248C64.8194 198.435 65.076 198.663 65.2534 198.934C65.4307 199.195 65.5194 199.527 65.5194 199.928ZM77.9166 197.002C77.9166 197.431 77.8652 197.851 77.7626 198.262C77.6692 198.673 77.5199 199.046 77.3146 199.382C77.1092 199.709 76.8572 199.975 76.5586 200.18C76.2599 200.376 75.9052 200.474 75.4946 200.474C75.0652 200.474 74.7246 200.353 74.4726 200.11C74.2299 199.858 74.0806 199.573 74.0246 199.256H73.9546C73.7866 199.601 73.5392 199.891 73.2126 200.124C72.8859 200.357 72.4752 200.474 71.9806 200.474C71.2619 200.474 70.7112 200.236 70.3286 199.76C69.9459 199.284 69.7546 198.654 69.7546 197.87C69.7546 197.263 69.8759 196.722 70.1186 196.246C70.3612 195.77 70.7019 195.397 71.1406 195.126C71.5886 194.855 72.1159 194.72 72.7226 194.72C73.1332 194.72 73.5346 194.757 73.9266 194.832C74.3279 194.897 74.6406 194.972 74.8646 195.056L74.7246 197.898C74.7152 198.066 74.7106 198.187 74.7106 198.262C74.7106 198.327 74.7106 198.374 74.7106 198.402C74.7106 198.897 74.7946 199.223 74.9626 199.382C75.1399 199.531 75.3452 199.606 75.5786 199.606C75.8679 199.606 76.1106 199.489 76.3066 199.256C76.5119 199.013 76.6659 198.696 76.7686 198.304C76.8806 197.912 76.9366 197.473 76.9366 196.988C76.9366 196.129 76.7592 195.397 76.4046 194.79C76.0592 194.183 75.5786 193.721 74.9626 193.404C74.3559 193.087 73.6652 192.928 72.8906 192.928C71.8266 192.928 70.9259 193.147 70.1886 193.586C69.4606 194.025 68.9052 194.631 68.5226 195.406C68.1492 196.171 67.9626 197.049 67.9626 198.038C67.9626 199.419 68.3266 200.479 69.0546 201.216C69.7826 201.953 70.8326 202.322 72.2046 202.322C72.7739 202.322 73.3152 202.257 73.8286 202.126C74.3512 202.005 74.8132 201.869 75.2146 201.72V202.672C74.8132 202.84 74.3606 202.975 73.8566 203.078C73.3619 203.19 72.8112 203.246 72.2046 203.246C71.1032 203.246 70.1606 203.041 69.3766 202.63C68.5926 202.219 67.9906 201.631 67.5706 200.866C67.1599 200.091 66.9546 199.163 66.9546 198.08C66.9546 197.212 67.0899 196.409 67.3606 195.672C67.6312 194.925 68.0232 194.281 68.5366 193.74C69.0499 193.189 69.6706 192.765 70.3986 192.466C71.1359 192.158 71.9666 192.004 72.8906 192.004C73.8612 192.004 74.7246 192.205 75.4806 192.606C76.2366 193.007 76.8292 193.581 77.2586 194.328C77.6972 195.075 77.9166 195.966 77.9166 197.002ZM70.8466 197.898C70.8466 198.505 70.9632 198.943 71.1966 199.214C71.4299 199.475 71.7519 199.606 72.1626 199.606C72.6852 199.606 73.0586 199.41 73.2826 199.018C73.5159 198.626 73.6512 198.117 73.6886 197.492L73.7726 195.742C73.6512 195.705 73.4972 195.672 73.3106 195.644C73.1239 195.616 72.9326 195.602 72.7366 195.602C72.2792 195.602 71.9106 195.714 71.6306 195.938C71.3506 196.162 71.1499 196.451 71.0286 196.806C70.9072 197.151 70.8466 197.515 70.8466 197.898ZM82.8224 194.356C83.457 194.356 84.0077 194.496 84.4744 194.776C84.941 195.056 85.2957 195.453 85.5384 195.966C85.7904 196.47 85.9164 197.063 85.9164 197.744V198.486H80.7784C80.797 199.335 81.0117 199.984 81.4224 200.432C81.8424 200.871 82.4257 201.09 83.1724 201.09C83.6484 201.09 84.0684 201.048 84.4324 200.964C84.8057 200.871 85.1884 200.74 85.5804 200.572V201.65C85.1977 201.818 84.8197 201.939 84.4464 202.014C84.073 202.098 83.6297 202.14 83.1164 202.14C82.3977 202.14 81.7677 201.995 81.2264 201.706C80.685 201.417 80.2604 200.987 79.9524 200.418C79.6537 199.849 79.5044 199.144 79.5044 198.304C79.5044 197.483 79.6397 196.778 79.9104 196.19C80.1904 195.602 80.5777 195.149 81.0724 194.832C81.5764 194.515 82.1597 194.356 82.8224 194.356ZM82.8084 195.364C82.2204 195.364 81.7537 195.555 81.4084 195.938C81.0724 196.311 80.8717 196.834 80.8064 197.506H84.6284C84.619 196.871 84.4697 196.358 84.1804 195.966C83.891 195.565 83.4337 195.364 82.8084 195.364ZM96.0587 194.356C96.9081 194.356 97.5427 194.575 97.9627 195.014C98.3827 195.453 98.5927 196.153 98.5927 197.114V202H97.3747V197.17C97.3747 195.985 96.8661 195.392 95.8487 195.392C95.1207 195.392 94.5981 195.602 94.2807 196.022C93.9727 196.442 93.8187 197.053 93.8187 197.856V202H92.6007V197.17C92.6007 195.985 92.0874 195.392 91.0607 195.392C90.3047 195.392 89.7821 195.625 89.4927 196.092C89.2034 196.559 89.0587 197.231 89.0587 198.108V202H87.8267V194.496H88.8207L89.0027 195.518H89.0727C89.3061 195.126 89.6187 194.837 90.0107 194.65C90.4121 194.454 90.8367 194.356 91.2847 194.356C92.4607 194.356 93.2261 194.776 93.5807 195.616H93.6507C93.9027 195.187 94.2434 194.869 94.6727 194.664C95.1021 194.459 95.5641 194.356 96.0587 194.356ZM103.753 194.37C104.667 194.37 105.344 194.571 105.783 194.972C106.221 195.373 106.441 196.013 106.441 196.89V202H105.545L105.307 200.936H105.251C104.924 201.347 104.579 201.65 104.215 201.846C103.851 202.042 103.356 202.14 102.731 202.14C102.049 202.14 101.485 201.963 101.037 201.608C100.589 201.244 100.365 200.679 100.365 199.914C100.365 199.167 100.659 198.593 101.247 198.192C101.835 197.781 102.74 197.557 103.963 197.52L105.237 197.478V197.03C105.237 196.405 105.101 195.971 104.831 195.728C104.56 195.485 104.177 195.364 103.683 195.364C103.291 195.364 102.917 195.425 102.563 195.546C102.208 195.658 101.877 195.789 101.569 195.938L101.191 195.014C101.517 194.837 101.905 194.687 102.353 194.566C102.801 194.435 103.267 194.37 103.753 194.37ZM105.223 198.332L104.117 198.374C103.183 198.411 102.535 198.561 102.171 198.822C101.816 199.083 101.639 199.452 101.639 199.928C101.639 200.348 101.765 200.656 102.017 200.852C102.278 201.048 102.609 201.146 103.011 201.146C103.636 201.146 104.159 200.973 104.579 200.628C105.008 200.273 105.223 199.732 105.223 199.004V198.332ZM109.388 191.682C109.575 191.682 109.738 191.747 109.878 191.878C110.028 191.999 110.102 192.195 110.102 192.466C110.102 192.737 110.028 192.937 109.878 193.068C109.738 193.189 109.575 193.25 109.388 193.25C109.183 193.25 109.01 193.189 108.87 193.068C108.73 192.937 108.66 192.737 108.66 192.466C108.66 192.195 108.73 191.999 108.87 191.878C109.01 191.747 109.183 191.682 109.388 191.682ZM109.99 194.496V202H108.758V194.496H109.99ZM113.6 202H112.368V191.36H113.6V202ZM115.795 201.244C115.795 200.899 115.879 200.656 116.047 200.516C116.215 200.376 116.416 200.306 116.649 200.306C116.882 200.306 117.088 200.376 117.265 200.516C117.442 200.656 117.531 200.899 117.531 201.244C117.531 201.58 117.442 201.823 117.265 201.972C117.088 202.121 116.882 202.196 116.649 202.196C116.416 202.196 116.215 202.121 116.047 201.972C115.879 201.823 115.795 201.58 115.795 201.244ZM122.733 202.14C122.061 202.14 121.469 202.005 120.955 201.734C120.442 201.463 120.036 201.043 119.737 200.474C119.448 199.905 119.303 199.177 119.303 198.29C119.303 197.366 119.453 196.615 119.751 196.036C120.059 195.457 120.479 195.033 121.011 194.762C121.543 194.491 122.145 194.356 122.817 194.356C123.191 194.356 123.555 194.398 123.909 194.482C124.273 194.557 124.567 194.65 124.791 194.762L124.413 195.784C124.189 195.7 123.928 195.621 123.629 195.546C123.331 195.471 123.051 195.434 122.789 195.434C121.315 195.434 120.577 196.381 120.577 198.276C120.577 199.181 120.755 199.877 121.109 200.362C121.473 200.838 122.01 201.076 122.719 201.076C123.121 201.076 123.48 201.034 123.797 200.95C124.115 200.866 124.404 200.763 124.665 200.642V201.734C124.413 201.865 124.133 201.963 123.825 202.028C123.527 202.103 123.163 202.14 122.733 202.14ZM132.974 198.234C132.974 199.475 132.656 200.437 132.022 201.118C131.396 201.799 130.547 202.14 129.474 202.14C128.811 202.14 128.218 201.991 127.696 201.692C127.182 201.384 126.776 200.941 126.478 200.362C126.179 199.774 126.03 199.065 126.03 198.234C126.03 196.993 126.338 196.036 126.954 195.364C127.579 194.692 128.433 194.356 129.516 194.356C130.188 194.356 130.785 194.51 131.308 194.818C131.83 195.117 132.236 195.555 132.526 196.134C132.824 196.703 132.974 197.403 132.974 198.234ZM127.304 198.234C127.304 199.121 127.476 199.825 127.822 200.348C128.176 200.861 128.736 201.118 129.502 201.118C130.258 201.118 130.813 200.861 131.168 200.348C131.522 199.825 131.7 199.121 131.7 198.234C131.7 197.347 131.522 196.652 131.168 196.148C130.813 195.644 130.253 195.392 129.488 195.392C128.722 195.392 128.167 195.644 127.822 196.148C127.476 196.652 127.304 197.347 127.304 198.234ZM143.158 194.356C144.008 194.356 144.642 194.575 145.062 195.014C145.482 195.453 145.692 196.153 145.692 197.114V202H144.474V197.17C144.474 195.985 143.966 195.392 142.948 195.392C142.22 195.392 141.698 195.602 141.38 196.022C141.072 196.442 140.918 197.053 140.918 197.856V202H139.7V197.17C139.7 195.985 139.187 195.392 138.16 195.392C137.404 195.392 136.882 195.625 136.592 196.092C136.303 196.559 136.158 197.231 136.158 198.108V202H134.926V194.496H135.92L136.102 195.518H136.172C136.406 195.126 136.718 194.837 137.11 194.65C137.512 194.454 137.936 194.356 138.384 194.356C139.56 194.356 140.326 194.776 140.68 195.616H140.75C141.002 195.187 141.343 194.869 141.772 194.664C142.202 194.459 142.664 194.356 143.158 194.356Z" fill="black"/>
<line x1="11" y1="218.5" x2="232" y2="218.5" stroke="#F1F1F1"/>
<rect width="221" height="44" transform="translate(11 219)" fill="white"/>
<path d="M31.69 238.356C31.83 238.356 31.9793 238.365 32.138 238.384C32.2967 238.393 32.4413 238.412 32.572 238.44L32.418 239.574C32.2967 239.546 32.1613 239.523 32.012 239.504C31.8627 239.485 31.7273 239.476 31.606 239.476C31.2233 239.476 30.864 239.583 30.528 239.798C30.192 240.003 29.9213 240.297 29.716 240.68C29.52 241.053 29.422 241.492 29.422 241.996V246H28.19V238.496H29.198L29.338 239.868H29.394C29.6273 239.457 29.9353 239.103 30.318 238.804C30.71 238.505 31.1673 238.356 31.69 238.356ZM40.2238 242.234C40.2238 243.475 39.9064 244.437 39.2718 245.118C38.6464 245.799 37.7971 246.14 36.7238 246.14C36.0611 246.14 35.4684 245.991 34.9458 245.692C34.4324 245.384 34.0264 244.941 33.7278 244.362C33.4291 243.774 33.2798 243.065 33.2798 242.234C33.2798 240.993 33.5878 240.036 34.2038 239.364C34.8291 238.692 35.6831 238.356 36.7658 238.356C37.4378 238.356 38.0351 238.51 38.5578 238.818C39.0804 239.117 39.4864 239.555 39.7758 240.134C40.0744 240.703 40.2238 241.403 40.2238 242.234ZM34.5538 242.234C34.5538 243.121 34.7264 243.825 35.0718 244.348C35.4264 244.861 35.9864 245.118 36.7518 245.118C37.5078 245.118 38.0631 244.861 38.4178 244.348C38.7724 243.825 38.9498 243.121 38.9498 242.234C38.9498 241.347 38.7724 240.652 38.4178 240.148C38.0631 239.644 37.5031 239.392 36.7378 239.392C35.9724 239.392 35.4171 239.644 35.0718 240.148C34.7264 240.652 34.5538 241.347 34.5538 242.234ZM43.4083 235.36V237.95C43.4083 238.267 43.399 238.566 43.3803 238.846C43.371 239.117 43.357 239.331 43.3383 239.49H43.4083C43.623 239.173 43.917 238.907 44.2903 238.692C44.6637 238.477 45.1443 238.37 45.7323 238.37C46.6657 238.37 47.4123 238.697 47.9723 239.35C48.5417 239.994 48.8263 240.96 48.8263 242.248C48.8263 243.536 48.5417 244.507 47.9723 245.16C47.403 245.813 46.6563 246.14 45.7323 246.14C45.1443 246.14 44.6637 246.033 44.2903 245.818C43.917 245.603 43.623 245.347 43.4083 245.048H43.3103L43.0583 246H42.1763V235.36H43.4083ZM45.5223 239.392C44.7197 239.392 44.1643 239.621 43.8563 240.078C43.5577 240.535 43.4083 241.245 43.4083 242.206V242.262C43.4083 243.186 43.5577 243.895 43.8563 244.39C44.1643 244.875 44.729 245.118 45.5503 245.118C46.2223 245.118 46.7217 244.871 47.0483 244.376C47.3843 243.881 47.5523 243.167 47.5523 242.234C47.5523 240.339 46.8757 239.392 45.5223 239.392ZM53.6876 238.356C54.3223 238.356 54.8729 238.496 55.3396 238.776C55.8063 239.056 56.1609 239.453 56.4036 239.966C56.6556 240.47 56.7816 241.063 56.7816 241.744V242.486H51.6436C51.6623 243.335 51.8769 243.984 52.2876 244.432C52.7076 244.871 53.2909 245.09 54.0376 245.09C54.5136 245.09 54.9336 245.048 55.2976 244.964C55.6709 244.871 56.0536 244.74 56.4456 244.572V245.65C56.0629 245.818 55.6849 245.939 55.3116 246.014C54.9383 246.098 54.4949 246.14 53.9816 246.14C53.2629 246.14 52.6329 245.995 52.0916 245.706C51.5503 245.417 51.1256 244.987 50.8176 244.418C50.5189 243.849 50.3696 243.144 50.3696 242.304C50.3696 241.483 50.5049 240.778 50.7756 240.19C51.0556 239.602 51.4429 239.149 51.9376 238.832C52.4416 238.515 53.0249 238.356 53.6876 238.356ZM53.6736 239.364C53.0856 239.364 52.6189 239.555 52.2736 239.938C51.9376 240.311 51.7369 240.834 51.6716 241.506H55.4936C55.4843 240.871 55.3349 240.358 55.0456 239.966C54.7563 239.565 54.2989 239.364 53.6736 239.364ZM62.192 238.356C62.332 238.356 62.4813 238.365 62.64 238.384C62.7986 238.393 62.9433 238.412 63.074 238.44L62.92 239.574C62.7986 239.546 62.6633 239.523 62.514 239.504C62.3646 239.485 62.2293 239.476 62.108 239.476C61.7253 239.476 61.366 239.583 61.03 239.798C60.694 240.003 60.4233 240.297 60.218 240.68C60.022 241.053 59.924 241.492 59.924 241.996V246H58.692V238.496H59.7L59.84 239.868H59.896C60.1293 239.457 60.4373 239.103 60.82 238.804C61.212 238.505 61.6693 238.356 62.192 238.356ZM66.9812 245.132C67.1678 245.132 67.3592 245.118 67.5552 245.09C67.7512 245.062 67.9098 245.025 68.0312 244.978V245.916C67.9005 245.981 67.7138 246.033 67.4712 246.07C67.2285 246.117 66.9952 246.14 66.7712 246.14C66.3792 246.14 66.0152 246.075 65.6792 245.944C65.3525 245.804 65.0865 245.566 64.8812 245.23C64.6758 244.894 64.5732 244.423 64.5732 243.816V239.448H63.5092V238.86L64.5872 238.37L65.0772 236.774H65.8052V238.496H67.9752V239.448H65.8052V243.788C65.8052 244.245 65.9125 244.586 66.1272 244.81C66.3512 245.025 66.6358 245.132 66.9812 245.132ZM80.1178 241.002C80.1178 241.431 80.0664 241.851 79.9638 242.262C79.8704 242.673 79.7211 243.046 79.5158 243.382C79.3104 243.709 79.0584 243.975 78.7598 244.18C78.4611 244.376 78.1064 244.474 77.6958 244.474C77.2664 244.474 76.9258 244.353 76.6738 244.11C76.4311 243.858 76.2818 243.573 76.2258 243.256H76.1558C75.9878 243.601 75.7404 243.891 75.4137 244.124C75.0871 244.357 74.6764 244.474 74.1818 244.474C73.4631 244.474 72.9124 244.236 72.5298 243.76C72.1471 243.284 71.9558 242.654 71.9558 241.87C71.9558 241.263 72.0771 240.722 72.3198 240.246C72.5624 239.77 72.9031 239.397 73.3418 239.126C73.7898 238.855 74.3171 238.72 74.9238 238.72C75.3344 238.72 75.7358 238.757 76.1278 238.832C76.5291 238.897 76.8418 238.972 77.0658 239.056L76.9258 241.898C76.9164 242.066 76.9118 242.187 76.9118 242.262C76.9118 242.327 76.9118 242.374 76.9118 242.402C76.9118 242.897 76.9958 243.223 77.1638 243.382C77.3411 243.531 77.5464 243.606 77.7798 243.606C78.0691 243.606 78.3118 243.489 78.5078 243.256C78.7131 243.013 78.8671 242.696 78.9698 242.304C79.0818 241.912 79.1378 241.473 79.1378 240.988C79.1378 240.129 78.9604 239.397 78.6058 238.79C78.2604 238.183 77.7798 237.721 77.1638 237.404C76.5571 237.087 75.8664 236.928 75.0918 236.928C74.0278 236.928 73.1271 237.147 72.3898 237.586C71.6618 238.025 71.1064 238.631 70.7238 239.406C70.3504 240.171 70.1638 241.049 70.1638 242.038C70.1638 243.419 70.5278 244.479 71.2558 245.216C71.9838 245.953 73.0338 246.322 74.4058 246.322C74.9751 246.322 75.5164 246.257 76.0298 246.126C76.5524 246.005 77.0144 245.869 77.4158 245.72V246.672C77.0144 246.84 76.5618 246.975 76.0577 247.078C75.5631 247.19 75.0124 247.246 74.4058 247.246C73.3044 247.246 72.3618 247.041 71.5778 246.63C70.7938 246.219 70.1918 245.631 69.7718 244.866C69.3611 244.091 69.1558 243.163 69.1558 242.08C69.1558 241.212 69.2911 240.409 69.5618 239.672C69.8324 238.925 70.2244 238.281 70.7378 237.74C71.2511 237.189 71.8718 236.765 72.5998 236.466C73.3371 236.158 74.1678 236.004 75.0918 236.004C76.0624 236.004 76.9258 236.205 77.6818 236.606C78.4378 237.007 79.0304 237.581 79.4598 238.328C79.8984 239.075 80.1178 239.966 80.1178 241.002ZM73.0478 241.898C73.0478 242.505 73.1644 242.943 73.3978 243.214C73.6311 243.475 73.9531 243.606 74.3638 243.606C74.8864 243.606 75.2598 243.41 75.4838 243.018C75.7171 242.626 75.8524 242.117 75.8898 241.492L75.9738 239.742C75.8524 239.705 75.6984 239.672 75.5118 239.644C75.3251 239.616 75.1338 239.602 74.9378 239.602C74.4804 239.602 74.1118 239.714 73.8318 239.938C73.5518 240.162 73.3511 240.451 73.2298 240.806C73.1084 241.151 73.0478 241.515 73.0478 241.898ZM85.0235 238.356C85.6582 238.356 86.2089 238.496 86.6755 238.776C87.1422 239.056 87.4969 239.453 87.7395 239.966C87.9915 240.47 88.1175 241.063 88.1175 241.744V242.486H82.9795C82.9982 243.335 83.2129 243.984 83.6235 244.432C84.0435 244.871 84.6269 245.09 85.3735 245.09C85.8495 245.09 86.2695 245.048 86.6335 244.964C87.0069 244.871 87.3895 244.74 87.7815 244.572V245.65C87.3989 245.818 87.0209 245.939 86.6475 246.014C86.2742 246.098 85.8309 246.14 85.3175 246.14C84.5989 246.14 83.9689 245.995 83.4275 245.706C82.8862 245.417 82.4615 244.987 82.1535 244.418C81.8549 243.849 81.7055 243.144 81.7055 242.304C81.7055 241.483 81.8409 240.778 82.1115 240.19C82.3915 239.602 82.7789 239.149 83.2735 238.832C83.7775 238.515 84.3609 238.356 85.0235 238.356ZM85.0095 239.364C84.4215 239.364 83.9549 239.555 83.6095 239.938C83.2735 240.311 83.0729 240.834 83.0075 241.506H86.8295C86.8202 240.871 86.6709 240.358 86.3815 239.966C86.0922 239.565 85.6349 239.364 85.0095 239.364ZM98.2599 238.356C99.1092 238.356 99.7439 238.575 100.164 239.014C100.584 239.453 100.794 240.153 100.794 241.114V246H99.5759V241.17C99.5759 239.985 99.0672 239.392 98.0499 239.392C97.3219 239.392 96.7992 239.602 96.4819 240.022C96.1739 240.442 96.0199 241.053 96.0199 241.856V246H94.8019V241.17C94.8019 239.985 94.2886 239.392 93.2619 239.392C92.5059 239.392 91.9832 239.625 91.6939 240.092C91.4046 240.559 91.2599 241.231 91.2599 242.108V246H90.0279V238.496H91.0219L91.2039 239.518H91.2739C91.5072 239.126 91.8199 238.837 92.2119 238.65C92.6132 238.454 93.0379 238.356 93.4859 238.356C94.6619 238.356 95.4272 238.776 95.7819 239.616H95.8519C96.1039 239.187 96.4446 238.869 96.8739 238.664C97.3032 238.459 97.7652 238.356 98.2599 238.356ZM105.954 238.37C106.869 238.37 107.545 238.571 107.984 238.972C108.423 239.373 108.642 240.013 108.642 240.89V246H107.746L107.508 244.936H107.452C107.125 245.347 106.78 245.65 106.416 245.846C106.052 246.042 105.557 246.14 104.932 246.14C104.251 246.14 103.686 245.963 103.238 245.608C102.79 245.244 102.566 244.679 102.566 243.914C102.566 243.167 102.86 242.593 103.448 242.192C104.036 241.781 104.941 241.557 106.164 241.52L107.438 241.478V241.03C107.438 240.405 107.303 239.971 107.032 239.728C106.761 239.485 106.379 239.364 105.884 239.364C105.492 239.364 105.119 239.425 104.764 239.546C104.409 239.658 104.078 239.789 103.77 239.938L103.392 239.014C103.719 238.837 104.106 238.687 104.554 238.566C105.002 238.435 105.469 238.37 105.954 238.37ZM107.424 242.332L106.318 242.374C105.385 242.411 104.736 242.561 104.372 242.822C104.017 243.083 103.84 243.452 103.84 243.928C103.84 244.348 103.966 244.656 104.218 244.852C104.479 245.048 104.811 245.146 105.212 245.146C105.837 245.146 106.36 244.973 106.78 244.628C107.209 244.273 107.424 243.732 107.424 243.004V242.332ZM111.59 235.682C111.776 235.682 111.94 235.747 112.08 235.878C112.229 235.999 112.304 236.195 112.304 236.466C112.304 236.737 112.229 236.937 112.08 237.068C111.94 237.189 111.776 237.25 111.59 237.25C111.384 237.25 111.212 237.189 111.072 237.068C110.932 236.937 110.862 236.737 110.862 236.466C110.862 236.195 110.932 235.999 111.072 235.878C111.212 235.747 111.384 235.682 111.59 235.682ZM112.192 238.496V246H110.96V238.496H112.192ZM115.801 246H114.569V235.36H115.801V246ZM117.996 245.244C117.996 244.899 118.08 244.656 118.248 244.516C118.416 244.376 118.617 244.306 118.85 244.306C119.084 244.306 119.289 244.376 119.466 244.516C119.644 244.656 119.732 244.899 119.732 245.244C119.732 245.58 119.644 245.823 119.466 245.972C119.289 246.121 119.084 246.196 118.85 246.196C118.617 246.196 118.416 246.121 118.248 245.972C118.08 245.823 117.996 245.58 117.996 245.244ZM124.934 246.14C124.262 246.14 123.67 246.005 123.156 245.734C122.643 245.463 122.237 245.043 121.938 244.474C121.649 243.905 121.504 243.177 121.504 242.29C121.504 241.366 121.654 240.615 121.952 240.036C122.26 239.457 122.68 239.033 123.212 238.762C123.744 238.491 124.346 238.356 125.018 238.356C125.392 238.356 125.756 238.398 126.11 238.482C126.474 238.557 126.768 238.65 126.992 238.762L126.614 239.784C126.39 239.7 126.129 239.621 125.83 239.546C125.532 239.471 125.252 239.434 124.99 239.434C123.516 239.434 122.778 240.381 122.778 242.276C122.778 243.181 122.956 243.877 123.31 244.362C123.674 244.838 124.211 245.076 124.92 245.076C125.322 245.076 125.681 245.034 125.998 244.95C126.316 244.866 126.605 244.763 126.866 244.642V245.734C126.614 245.865 126.334 245.963 126.026 246.028C125.728 246.103 125.364 246.14 124.934 246.14ZM135.175 242.234C135.175 243.475 134.858 244.437 134.223 245.118C133.598 245.799 132.748 246.14 131.675 246.14C131.012 246.14 130.42 245.991 129.897 245.692C129.384 245.384 128.978 244.941 128.679 244.362C128.38 243.774 128.231 243.065 128.231 242.234C128.231 240.993 128.539 240.036 129.155 239.364C129.78 238.692 130.634 238.356 131.717 238.356C132.389 238.356 132.986 238.51 133.509 238.818C134.032 239.117 134.438 239.555 134.727 240.134C135.026 240.703 135.175 241.403 135.175 242.234ZM129.505 242.234C129.505 243.121 129.678 243.825 130.023 244.348C130.378 244.861 130.938 245.118 131.703 245.118C132.459 245.118 133.014 244.861 133.369 244.348C133.724 243.825 133.901 243.121 133.901 242.234C133.901 241.347 133.724 240.652 133.369 240.148C133.014 239.644 132.454 239.392 131.689 239.392C130.924 239.392 130.368 239.644 130.023 240.148C129.678 240.652 129.505 241.347 129.505 242.234ZM145.36 238.356C146.209 238.356 146.844 238.575 147.264 239.014C147.684 239.453 147.894 240.153 147.894 241.114V246H146.676V241.17C146.676 239.985 146.167 239.392 145.15 239.392C144.422 239.392 143.899 239.602 143.582 240.022C143.274 240.442 143.12 241.053 143.12 241.856V246H141.902V241.17C141.902 239.985 141.388 239.392 140.362 239.392C139.606 239.392 139.083 239.625 138.794 240.092C138.504 240.559 138.36 241.231 138.36 242.108V246H137.128V238.496H138.122L138.304 239.518H138.374C138.607 239.126 138.92 238.837 139.312 238.65C139.713 238.454 140.138 238.356 140.586 238.356C141.762 238.356 142.527 238.776 142.882 239.616H142.952C143.204 239.187 143.544 238.869 143.974 238.664C144.403 238.459 144.865 238.356 145.36 238.356Z" fill="black"/>
<line x1="11" y1="262.5" x2="232" y2="262.5" stroke="#F1F1F1"/>
<rect width="221" height="44" transform="translate(11 263)" fill="white"/>
<path d="M31.2 290.14C30.528 290.14 29.9353 290.005 29.422 289.734C28.9087 289.463 28.5027 289.043 28.204 288.474C27.9147 287.905 27.77 287.177 27.77 286.29C27.77 285.366 27.9193 284.615 28.218 284.036C28.526 283.457 28.946 283.033 29.478 282.762C30.01 282.491 30.612 282.356 31.284 282.356C31.6573 282.356 32.0213 282.398 32.376 282.482C32.74 282.557 33.034 282.65 33.258 282.762L32.88 283.784C32.656 283.7 32.3947 283.621 32.096 283.546C31.7973 283.471 31.5173 283.434 31.256 283.434C29.7813 283.434 29.044 284.381 29.044 286.276C29.044 287.181 29.2213 287.877 29.576 288.362C29.94 288.838 30.4767 289.076 31.186 289.076C31.5873 289.076 31.9467 289.034 32.264 288.95C32.5813 288.866 32.8707 288.763 33.132 288.642V289.734C32.88 289.865 32.6 289.963 32.292 290.028C31.9933 290.103 31.6293 290.14 31.2 290.14ZM36.1486 279.36V282.482C36.1486 282.855 36.1252 283.205 36.0786 283.532H36.1626C36.4052 283.149 36.7319 282.86 37.1426 282.664C37.5626 282.468 38.0152 282.37 38.5006 282.37C39.4059 282.37 40.0872 282.589 40.5446 283.028C41.0112 283.457 41.2446 284.153 41.2446 285.114V290H40.0266V285.198C40.0266 283.994 39.4666 283.392 38.3466 283.392C37.5066 283.392 36.9279 283.63 36.6106 284.106C36.3026 284.573 36.1486 285.245 36.1486 286.122V290H34.9166V279.36H36.1486ZM47.0709 282.356C47.2109 282.356 47.3602 282.365 47.5189 282.384C47.6775 282.393 47.8222 282.412 47.9529 282.44L47.7989 283.574C47.6775 283.546 47.5422 283.523 47.3929 283.504C47.2435 283.485 47.1082 283.476 46.9869 283.476C46.6042 283.476 46.2449 283.583 45.9089 283.798C45.5729 284.003 45.3022 284.297 45.0969 284.68C44.9009 285.053 44.8029 285.492 44.8029 285.996V290H43.5709V282.496H44.5789L44.7189 283.868H44.7749C45.0082 283.457 45.3162 283.103 45.6989 282.804C46.0909 282.505 46.5482 282.356 47.0709 282.356ZM49.9841 279.682C50.1707 279.682 50.3341 279.747 50.4741 279.878C50.6234 279.999 50.6981 280.195 50.6981 280.466C50.6981 280.737 50.6234 280.937 50.4741 281.068C50.3341 281.189 50.1707 281.25 49.9841 281.25C49.7787 281.25 49.6061 281.189 49.4661 281.068C49.3261 280.937 49.2561 280.737 49.2561 280.466C49.2561 280.195 49.3261 279.999 49.4661 279.878C49.6061 279.747 49.7787 279.682 49.9841 279.682ZM50.5861 282.496V290H49.3541V282.496H50.5861ZM57.8494 287.928C57.8494 288.656 57.5788 289.207 57.0374 289.58C56.4961 289.953 55.7681 290.14 54.8534 290.14C54.3308 290.14 53.8781 290.098 53.4954 290.014C53.1221 289.93 52.7908 289.813 52.5014 289.664V288.544C52.8001 288.693 53.1594 288.833 53.5794 288.964C54.0088 289.085 54.4428 289.146 54.8814 289.146C55.5068 289.146 55.9594 289.048 56.2394 288.852C56.5194 288.647 56.6594 288.376 56.6594 288.04C56.6594 287.853 56.6081 287.685 56.5054 287.536C56.4028 287.387 56.2161 287.237 55.9454 287.088C55.6841 286.939 55.3061 286.771 54.8114 286.584C54.3261 286.397 53.9108 286.211 53.5654 286.024C53.2201 285.837 52.9541 285.613 52.7674 285.352C52.5808 285.091 52.4874 284.755 52.4874 284.344C52.4874 283.709 52.7441 283.219 53.2574 282.874C53.7801 282.529 54.4614 282.356 55.3014 282.356C55.7588 282.356 56.1834 282.403 56.5754 282.496C56.9768 282.589 57.3501 282.711 57.6954 282.86L57.2754 283.84C56.9581 283.709 56.6268 283.597 56.2814 283.504C55.9361 283.411 55.5814 283.364 55.2174 283.364C54.7134 283.364 54.3261 283.448 54.0554 283.616C53.7941 283.775 53.6634 283.994 53.6634 284.274C53.6634 284.489 53.7241 284.666 53.8454 284.806C53.9668 284.946 54.1674 285.086 54.4474 285.226C54.7368 285.366 55.1194 285.525 55.5954 285.702C56.0714 285.879 56.4774 286.061 56.8134 286.248C57.1494 286.435 57.4061 286.663 57.5834 286.934C57.7608 287.195 57.8494 287.527 57.8494 287.928ZM70.2467 285.002C70.2467 285.431 70.1953 285.851 70.0927 286.262C69.9993 286.673 69.85 287.046 69.6447 287.382C69.4393 287.709 69.1873 287.975 68.8887 288.18C68.59 288.376 68.2353 288.474 67.8247 288.474C67.3953 288.474 67.0547 288.353 66.8027 288.11C66.56 287.858 66.4107 287.573 66.3547 287.256H66.2847C66.1167 287.601 65.8693 287.891 65.5427 288.124C65.216 288.357 64.8053 288.474 64.3107 288.474C63.592 288.474 63.0413 288.236 62.6587 287.76C62.276 287.284 62.0847 286.654 62.0847 285.87C62.0847 285.263 62.206 284.722 62.4487 284.246C62.6913 283.77 63.032 283.397 63.4707 283.126C63.9187 282.855 64.446 282.72 65.0527 282.72C65.4633 282.72 65.8647 282.757 66.2567 282.832C66.658 282.897 66.9707 282.972 67.1947 283.056L67.0547 285.898C67.0453 286.066 67.0407 286.187 67.0407 286.262C67.0407 286.327 67.0407 286.374 67.0407 286.402C67.0407 286.897 67.1247 287.223 67.2927 287.382C67.47 287.531 67.6753 287.606 67.9087 287.606C68.198 287.606 68.4407 287.489 68.6367 287.256C68.842 287.013 68.996 286.696 69.0987 286.304C69.2107 285.912 69.2667 285.473 69.2667 284.988C69.2667 284.129 69.0893 283.397 68.7347 282.79C68.3893 282.183 67.9087 281.721 67.2927 281.404C66.686 281.087 65.9953 280.928 65.2207 280.928C64.1567 280.928 63.256 281.147 62.5187 281.586C61.7907 282.025 61.2353 282.631 60.8527 283.406C60.4793 284.171 60.2927 285.049 60.2927 286.038C60.2927 287.419 60.6567 288.479 61.3847 289.216C62.1127 289.953 63.1627 290.322 64.5347 290.322C65.104 290.322 65.6453 290.257 66.1587 290.126C66.6813 290.005 67.1433 289.869 67.5447 289.72V290.672C67.1433 290.84 66.6907 290.975 66.1867 291.078C65.692 291.19 65.1413 291.246 64.5347 291.246C63.4333 291.246 62.4907 291.041 61.7067 290.63C60.9227 290.219 60.3207 289.631 59.9007 288.866C59.49 288.091 59.2847 287.163 59.2847 286.08C59.2847 285.212 59.42 284.409 59.6907 283.672C59.9613 282.925 60.3533 282.281 60.8667 281.74C61.38 281.189 62.0007 280.765 62.7287 280.466C63.466 280.158 64.2967 280.004 65.2207 280.004C66.1913 280.004 67.0547 280.205 67.8107 280.606C68.5667 281.007 69.1593 281.581 69.5887 282.328C70.0273 283.075 70.2467 283.966 70.2467 285.002ZM63.1767 285.898C63.1767 286.505 63.2933 286.943 63.5267 287.214C63.76 287.475 64.082 287.606 64.4927 287.606C65.0153 287.606 65.3887 287.41 65.6127 287.018C65.846 286.626 65.9813 286.117 66.0187 285.492L66.1027 283.742C65.9813 283.705 65.8273 283.672 65.6407 283.644C65.454 283.616 65.2627 283.602 65.0667 283.602C64.6093 283.602 64.2407 283.714 63.9607 283.938C63.6807 284.162 63.48 284.451 63.3587 284.806C63.2373 285.151 63.1767 285.515 63.1767 285.898ZM75.1525 282.356C75.7871 282.356 76.3378 282.496 76.8045 282.776C77.2711 283.056 77.6258 283.453 77.8685 283.966C78.1205 284.47 78.2465 285.063 78.2465 285.744V286.486H73.1085C73.1271 287.335 73.3418 287.984 73.7525 288.432C74.1725 288.871 74.7558 289.09 75.5025 289.09C75.9785 289.09 76.3985 289.048 76.7625 288.964C77.1358 288.871 77.5185 288.74 77.9105 288.572V289.65C77.5278 289.818 77.1498 289.939 76.7765 290.014C76.4031 290.098 75.9598 290.14 75.4465 290.14C74.7278 290.14 74.0978 289.995 73.5565 289.706C73.0151 289.417 72.5905 288.987 72.2825 288.418C71.9838 287.849 71.8345 287.144 71.8345 286.304C71.8345 285.483 71.9698 284.778 72.2405 284.19C72.5205 283.602 72.9078 283.149 73.4025 282.832C73.9065 282.515 74.4898 282.356 75.1525 282.356ZM75.1385 283.364C74.5505 283.364 74.0838 283.555 73.7385 283.938C73.4025 284.311 73.2018 284.834 73.1365 285.506H76.9585C76.9491 284.871 76.7998 284.358 76.5105 283.966C76.2211 283.565 75.7638 283.364 75.1385 283.364ZM88.3888 282.356C89.2381 282.356 89.8728 282.575 90.2928 283.014C90.7128 283.453 90.9228 284.153 90.9228 285.114V290H89.7048V285.17C89.7048 283.985 89.1961 283.392 88.1788 283.392C87.4508 283.392 86.9281 283.602 86.6108 284.022C86.3028 284.442 86.1488 285.053 86.1488 285.856V290H84.9308V285.17C84.9308 283.985 84.4175 283.392 83.3908 283.392C82.6348 283.392 82.1121 283.625 81.8228 284.092C81.5335 284.559 81.3888 285.231 81.3888 286.108V290H80.1568V282.496H81.1508L81.3328 283.518H81.4028C81.6361 283.126 81.9488 282.837 82.3408 282.65C82.7421 282.454 83.1668 282.356 83.6148 282.356C84.7908 282.356 85.5561 282.776 85.9108 283.616H85.9808C86.2328 283.187 86.5735 282.869 87.0028 282.664C87.4321 282.459 87.8941 282.356 88.3888 282.356ZM96.0828 282.37C96.9974 282.37 97.6741 282.571 98.1128 282.972C98.5514 283.373 98.7708 284.013 98.7708 284.89V290H97.8748L97.6368 288.936H97.5808C97.2541 289.347 96.9088 289.65 96.5448 289.846C96.1808 290.042 95.6861 290.14 95.0608 290.14C94.3794 290.14 93.8148 289.963 93.3668 289.608C92.9188 289.244 92.6948 288.679 92.6948 287.914C92.6948 287.167 92.9888 286.593 93.5768 286.192C94.1648 285.781 95.0701 285.557 96.2928 285.52L97.5668 285.478V285.03C97.5668 284.405 97.4314 283.971 97.1608 283.728C96.8901 283.485 96.5074 283.364 96.0128 283.364C95.6208 283.364 95.2474 283.425 94.8928 283.546C94.5381 283.658 94.2068 283.789 93.8988 283.938L93.5208 283.014C93.8474 282.837 94.2348 282.687 94.6828 282.566C95.1308 282.435 95.5974 282.37 96.0828 282.37ZM97.5528 286.332L96.4468 286.374C95.5134 286.411 94.8648 286.561 94.5008 286.822C94.1461 287.083 93.9688 287.452 93.9688 287.928C93.9688 288.348 94.0948 288.656 94.3468 288.852C94.6081 289.048 94.9394 289.146 95.3408 289.146C95.9661 289.146 96.4888 288.973 96.9088 288.628C97.3381 288.273 97.5528 287.732 97.5528 287.004V286.332ZM101.718 279.682C101.905 279.682 102.068 279.747 102.208 279.878C102.358 279.999 102.432 280.195 102.432 280.466C102.432 280.737 102.358 280.937 102.208 281.068C102.068 281.189 101.905 281.25 101.718 281.25C101.513 281.25 101.34 281.189 101.2 281.068C101.06 280.937 100.99 280.737 100.99 280.466C100.99 280.195 101.06 279.999 101.2 279.878C101.34 279.747 101.513 279.682 101.718 279.682ZM102.32 282.496V290H101.088V282.496H102.32ZM105.93 290H104.698V279.36H105.93V290ZM108.125 289.244C108.125 288.899 108.209 288.656 108.377 288.516C108.545 288.376 108.746 288.306 108.979 288.306C109.213 288.306 109.418 288.376 109.595 288.516C109.773 288.656 109.861 288.899 109.861 289.244C109.861 289.58 109.773 289.823 109.595 289.972C109.418 290.121 109.213 290.196 108.979 290.196C108.746 290.196 108.545 290.121 108.377 289.972C108.209 289.823 108.125 289.58 108.125 289.244ZM115.063 290.14C114.391 290.14 113.799 290.005 113.285 289.734C112.772 289.463 112.366 289.043 112.067 288.474C111.778 287.905 111.633 287.177 111.633 286.29C111.633 285.366 111.783 284.615 112.081 284.036C112.389 283.457 112.809 283.033 113.341 282.762C113.873 282.491 114.475 282.356 115.147 282.356C115.521 282.356 115.885 282.398 116.239 282.482C116.603 282.557 116.897 282.65 117.121 282.762L116.743 283.784C116.519 283.7 116.258 283.621 115.959 283.546C115.661 283.471 115.381 283.434 115.119 283.434C113.645 283.434 112.907 284.381 112.907 286.276C112.907 287.181 113.085 287.877 113.439 288.362C113.803 288.838 114.34 289.076 115.049 289.076C115.451 289.076 115.81 289.034 116.127 288.95C116.445 288.866 116.734 288.763 116.995 288.642V289.734C116.743 289.865 116.463 289.963 116.155 290.028C115.857 290.103 115.493 290.14 115.063 290.14ZM125.304 286.234C125.304 287.475 124.987 288.437 124.352 289.118C123.727 289.799 122.877 290.14 121.804 290.14C121.141 290.14 120.549 289.991 120.026 289.692C119.513 289.384 119.107 288.941 118.808 288.362C118.509 287.774 118.36 287.065 118.36 286.234C118.36 284.993 118.668 284.036 119.284 283.364C119.909 282.692 120.763 282.356 121.846 282.356C122.518 282.356 123.115 282.51 123.638 282.818C124.161 283.117 124.567 283.555 124.856 284.134C125.155 284.703 125.304 285.403 125.304 286.234ZM119.634 286.234C119.634 287.121 119.807 287.825 120.152 288.348C120.507 288.861 121.067 289.118 121.832 289.118C122.588 289.118 123.143 288.861 123.498 288.348C123.853 287.825 124.03 287.121 124.03 286.234C124.03 285.347 123.853 284.652 123.498 284.148C123.143 283.644 122.583 283.392 121.818 283.392C121.053 283.392 120.497 283.644 120.152 284.148C119.807 284.652 119.634 285.347 119.634 286.234ZM135.488 282.356C136.338 282.356 136.972 282.575 137.392 283.014C137.812 283.453 138.022 284.153 138.022 285.114V290H136.804V285.17C136.804 283.985 136.296 283.392 135.278 283.392C134.55 283.392 134.028 283.602 133.71 284.022C133.402 284.442 133.248 285.053 133.248 285.856V290H132.03V285.17C132.03 283.985 131.517 283.392 130.49 283.392C129.734 283.392 129.212 283.625 128.922 284.092C128.633 284.559 128.488 285.231 128.488 286.108V290H127.256V282.496H128.25L128.432 283.518H128.502C128.736 283.126 129.048 282.837 129.44 282.65C129.842 282.454 130.266 282.356 130.714 282.356C131.89 282.356 132.656 282.776 133.01 283.616H133.08C133.332 283.187 133.673 282.869 134.102 282.664C134.532 282.459 134.994 282.356 135.488 282.356Z" fill="black"/>
<rect width="121" height="44" transform="translate(232 131)" fill="white"/>
<path d="M257.478 152.904C257.478 154.593 257.007 155.867 256.064 156.726C255.121 157.575 253.805 158 252.116 158H249.302V148.004H252.41C253.446 148.004 254.342 148.191 255.098 148.564C255.854 148.937 256.437 149.488 256.848 150.216C257.268 150.944 257.478 151.84 257.478 152.904ZM255.602 152.96C255.602 151.765 255.327 150.888 254.776 150.328C254.225 149.768 253.437 149.488 252.41 149.488H251.094V156.502H252.172C254.459 156.502 255.602 155.321 255.602 152.96ZM262.467 150.272C263.447 150.272 264.189 150.487 264.693 150.916C265.206 151.345 265.463 152.008 265.463 152.904V158H264.217L263.867 156.95H263.811C263.484 157.361 263.139 157.664 262.775 157.86C262.411 158.047 261.916 158.14 261.291 158.14C260.609 158.14 260.045 157.949 259.597 157.566C259.149 157.183 258.925 156.591 258.925 155.788C258.925 155.004 259.209 154.416 259.779 154.024C260.357 153.632 261.23 153.413 262.397 153.366L263.713 153.324V152.946C263.713 152.461 263.596 152.115 263.363 151.91C263.129 151.705 262.803 151.602 262.383 151.602C262 151.602 261.631 151.658 261.277 151.77C260.931 151.873 260.586 152.003 260.241 152.162L259.681 150.93C260.054 150.734 260.479 150.575 260.955 150.454C261.44 150.333 261.944 150.272 262.467 150.272ZM263.713 154.416L262.789 154.444C262.014 154.472 261.477 154.607 261.179 154.85C260.88 155.083 260.731 155.401 260.731 155.802C260.731 156.166 260.833 156.427 261.039 156.586C261.253 156.735 261.533 156.81 261.879 156.81C262.392 156.81 262.826 156.665 263.181 156.376C263.535 156.077 263.713 155.639 263.713 155.06V154.416ZM270.613 156.726C270.828 156.726 271.038 156.707 271.243 156.67C271.458 156.623 271.654 156.572 271.831 156.516V157.832C271.644 157.925 271.402 158 271.103 158.056C270.804 158.112 270.492 158.14 270.165 158.14C269.726 158.14 269.33 158.07 268.975 157.93C268.63 157.79 268.354 157.543 268.149 157.188C267.944 156.833 267.841 156.334 267.841 155.69V151.742H266.819V150.972L267.939 150.356L268.499 148.746H269.605V150.412H271.761V151.742H269.605V155.676C269.605 156.031 269.698 156.297 269.885 156.474C270.081 156.642 270.324 156.726 270.613 156.726ZM276.413 150.272C277.43 150.272 278.233 150.575 278.821 151.182C279.418 151.789 279.717 152.633 279.717 153.716V154.612H274.705C274.723 155.303 274.915 155.839 275.279 156.222C275.643 156.595 276.147 156.782 276.791 156.782C277.276 156.782 277.715 156.735 278.107 156.642C278.499 156.539 278.9 156.395 279.311 156.208V157.622C278.937 157.799 278.55 157.93 278.149 158.014C277.747 158.098 277.267 158.14 276.707 158.14C275.96 158.14 275.302 158 274.733 157.72C274.163 157.431 273.715 157.001 273.389 156.432C273.071 155.853 272.913 155.13 272.913 154.262C272.913 152.965 273.23 151.975 273.865 151.294C274.509 150.613 275.358 150.272 276.413 150.272ZM276.413 151.574C275.937 151.574 275.549 151.728 275.251 152.036C274.961 152.335 274.793 152.783 274.747 153.38H278.009C277.999 152.857 277.864 152.428 277.603 152.092C277.351 151.747 276.954 151.574 276.413 151.574Z" fill="black"/>
<path d="M297.012 156.363C296.912 156.363 296.812 156.313 296.762 156.263L291.113 150.663C290.962 150.513 290.962 150.263 291.113 150.113C291.263 149.962 291.512 149.962 291.662 150.113L297.012 155.463L302.312 150.113C302.462 149.962 302.713 149.962 302.863 150.113C303.012 150.263 303.012 150.513 302.863 150.663L297.262 156.263C297.162 156.313 297.112 156.363 297.012 156.363Z" fill="#323232"/>
<line x1="232" y1="131.5" x2="353" y2="131.5" stroke="#C9C9C9"/>
<line x1="232" y1="174.5" x2="353" y2="174.5" stroke="#C9C9C9"/>
<rect width="121" height="44" transform="translate(232 175)" fill="white"/>
<path d="M255.322 196.988C255.322 198.071 255.21 198.995 254.986 199.76C254.762 200.525 254.403 201.113 253.908 201.524C253.423 201.935 252.783 202.14 251.99 202.14C250.861 202.14 250.025 201.687 249.484 200.782C248.952 199.867 248.686 198.603 248.686 196.988C248.686 195.905 248.793 194.981 249.008 194.216C249.232 193.451 249.587 192.867 250.072 192.466C250.557 192.055 251.197 191.85 251.99 191.85C253.11 191.85 253.945 192.303 254.496 193.208C255.047 194.104 255.322 195.364 255.322 196.988ZM249.918 196.988C249.918 198.36 250.072 199.387 250.38 200.068C250.697 200.749 251.234 201.09 251.99 201.09C252.737 201.09 253.269 200.754 253.586 200.082C253.913 199.401 254.076 198.369 254.076 196.988C254.076 195.625 253.913 194.603 253.586 193.922C253.269 193.241 252.737 192.9 251.99 192.9C251.234 192.9 250.697 193.241 250.38 193.922C250.072 194.603 249.918 195.625 249.918 196.988ZM260.982 202H259.778V195.014C259.778 194.613 259.782 194.291 259.792 194.048C259.801 193.805 259.815 193.553 259.834 193.292C259.684 193.441 259.544 193.567 259.414 193.67C259.292 193.773 259.143 193.903 258.966 194.062L257.902 194.93L257.258 194.104L259.96 192.004H260.982V202ZM269.091 192.004L265.367 202H264.163L267.887 192.004H269.091ZM274.202 202H272.998V195.014C272.998 194.613 273.003 194.291 273.012 194.048C273.022 193.805 273.036 193.553 273.054 193.292C272.905 193.441 272.765 193.567 272.634 193.67C272.513 193.773 272.364 193.903 272.186 194.062L271.122 194.93L270.478 194.104L273.18 192.004H274.202V202ZM284.146 194.342C284.146 195.014 283.955 195.551 283.572 195.952C283.199 196.344 282.699 196.605 282.074 196.736V196.792C282.867 196.885 283.46 197.137 283.852 197.548C284.253 197.959 284.454 198.495 284.454 199.158C284.454 199.746 284.319 200.264 284.048 200.712C283.777 201.16 283.357 201.51 282.788 201.762C282.228 202.014 281.505 202.14 280.618 202.14C280.095 202.14 279.61 202.098 279.162 202.014C278.714 201.939 278.285 201.799 277.874 201.594V200.446C278.294 200.661 278.747 200.824 279.232 200.936C279.717 201.048 280.184 201.104 280.632 201.104C281.528 201.104 282.172 200.931 282.564 200.586C282.965 200.231 283.166 199.746 283.166 199.13C283.166 198.505 282.919 198.057 282.424 197.786C281.939 197.506 281.253 197.366 280.366 197.366H279.4V196.316H280.38C281.201 196.316 281.822 196.143 282.242 195.798C282.671 195.453 282.886 194.995 282.886 194.426C282.886 193.941 282.723 193.567 282.396 193.306C282.069 193.035 281.626 192.9 281.066 192.9C280.525 192.9 280.063 192.979 279.68 193.138C279.297 193.297 278.919 193.497 278.546 193.74L277.93 192.9C278.285 192.62 278.723 192.377 279.246 192.172C279.778 191.967 280.38 191.864 281.052 191.864C282.097 191.864 282.872 192.097 283.376 192.564C283.889 193.031 284.146 193.623 284.146 194.342ZM290.324 192.004L286.6 202H285.396L289.12 192.004H290.324ZM297.745 202H291.137V200.978L293.755 198.332C294.25 197.828 294.67 197.38 295.015 196.988C295.37 196.596 295.636 196.213 295.813 195.84C295.99 195.467 296.079 195.051 296.079 194.594C296.079 194.043 295.916 193.628 295.589 193.348C295.262 193.059 294.838 192.914 294.315 192.914C293.82 192.914 293.391 192.998 293.027 193.166C292.663 193.334 292.29 193.567 291.907 193.866L291.249 193.04C291.641 192.713 292.089 192.438 292.593 192.214C293.106 191.981 293.68 191.864 294.315 191.864C295.248 191.864 295.986 192.102 296.527 192.578C297.068 193.054 297.339 193.703 297.339 194.524C297.339 195.047 297.232 195.537 297.017 195.994C296.802 196.451 296.504 196.904 296.121 197.352C295.738 197.8 295.29 198.271 294.777 198.766L292.691 200.824V200.88H297.745V202ZM305.799 196.988C305.799 198.071 305.687 198.995 305.463 199.76C305.239 200.525 304.879 201.113 304.385 201.524C303.899 201.935 303.26 202.14 302.467 202.14C301.337 202.14 300.502 201.687 299.961 200.782C299.429 199.867 299.163 198.603 299.163 196.988C299.163 195.905 299.27 194.981 299.485 194.216C299.709 193.451 300.063 192.867 300.549 192.466C301.034 192.055 301.673 191.85 302.467 191.85C303.587 191.85 304.422 192.303 304.973 193.208C305.523 194.104 305.799 195.364 305.799 196.988ZM300.395 196.988C300.395 198.36 300.549 199.387 300.857 200.068C301.174 200.749 301.711 201.09 302.467 201.09C303.213 201.09 303.745 200.754 304.063 200.082C304.389 199.401 304.553 198.369 304.553 196.988C304.553 195.625 304.389 194.603 304.063 193.922C303.745 193.241 303.213 192.9 302.467 192.9C301.711 192.9 301.174 193.241 300.857 193.922C300.549 194.603 300.395 195.625 300.395 196.988ZM313.768 202H307.16V200.978L309.778 198.332C310.273 197.828 310.693 197.38 311.038 196.988C311.393 196.596 311.659 196.213 311.836 195.84C312.014 195.467 312.102 195.051 312.102 194.594C312.102 194.043 311.939 193.628 311.612 193.348C311.286 193.059 310.861 192.914 310.338 192.914C309.844 192.914 309.414 192.998 309.05 193.166C308.686 193.334 308.313 193.567 307.93 193.866L307.272 193.04C307.664 192.713 308.112 192.438 308.616 192.214C309.13 191.981 309.704 191.864 310.338 191.864C311.272 191.864 312.009 192.102 312.55 192.578C313.092 193.054 313.362 193.703 313.362 194.524C313.362 195.047 313.255 195.537 313.04 195.994C312.826 196.451 312.527 196.904 312.144 197.352C311.762 197.8 311.314 198.271 310.8 198.766L308.714 200.824V200.88H313.768V202ZM319.47 202H318.266V195.014C318.266 194.613 318.271 194.291 318.28 194.048C318.289 193.805 318.303 193.553 318.322 193.292C318.173 193.441 318.033 193.567 317.902 193.67C317.781 193.773 317.631 193.903 317.454 194.062L316.39 194.93L315.746 194.104L318.448 192.004H319.47V202Z" fill="black"/>
<line x1="232" y1="218.5" x2="353" y2="218.5" stroke="#F1F1F1"/>
<rect width="121" height="44" transform="translate(232 219)" fill="white"/>
<path d="M255.322 240.988C255.322 242.071 255.21 242.995 254.986 243.76C254.762 244.525 254.403 245.113 253.908 245.524C253.423 245.935 252.783 246.14 251.99 246.14C250.861 246.14 250.025 245.687 249.484 244.782C248.952 243.867 248.686 242.603 248.686 240.988C248.686 239.905 248.793 238.981 249.008 238.216C249.232 237.451 249.587 236.867 250.072 236.466C250.557 236.055 251.197 235.85 251.99 235.85C253.11 235.85 253.945 236.303 254.496 237.208C255.047 238.104 255.322 239.364 255.322 240.988ZM249.918 240.988C249.918 242.36 250.072 243.387 250.38 244.068C250.697 244.749 251.234 245.09 251.99 245.09C252.737 245.09 253.269 244.754 253.586 244.082C253.913 243.401 254.076 242.369 254.076 240.988C254.076 239.625 253.913 238.603 253.586 237.922C253.269 237.241 252.737 236.9 251.99 236.9C251.234 236.9 250.697 237.241 250.38 237.922C250.072 238.603 249.918 239.625 249.918 240.988ZM260.982 246H259.778V239.014C259.778 238.613 259.782 238.291 259.792 238.048C259.801 237.805 259.815 237.553 259.834 237.292C259.684 237.441 259.544 237.567 259.414 237.67C259.292 237.773 259.143 237.903 258.966 238.062L257.902 238.93L257.258 238.104L259.96 236.004H260.982V246ZM269.091 236.004L265.367 246H264.163L267.887 236.004H269.091ZM274.202 246H272.998V239.014C272.998 238.613 273.003 238.291 273.012 238.048C273.022 237.805 273.036 237.553 273.054 237.292C272.905 237.441 272.765 237.567 272.634 237.67C272.513 237.773 272.364 237.903 272.186 238.062L271.122 238.93L270.478 238.104L273.18 236.004H274.202V246ZM284.972 243.732H283.516V246H282.326V243.732H277.538V242.682L282.242 235.948H283.516V242.626H284.972V243.732ZM282.326 242.626V239.476C282.326 238.991 282.331 238.58 282.34 238.244C282.359 237.899 282.377 237.572 282.396 237.264H282.34C282.265 237.441 282.172 237.633 282.06 237.838C281.948 238.043 281.841 238.216 281.738 238.356L278.742 242.626H282.326ZM290.324 236.004L286.6 246H285.396L289.12 236.004H290.324ZM297.745 246H291.137V244.978L293.755 242.332C294.25 241.828 294.67 241.38 295.015 240.988C295.37 240.596 295.636 240.213 295.813 239.84C295.99 239.467 296.079 239.051 296.079 238.594C296.079 238.043 295.916 237.628 295.589 237.348C295.262 237.059 294.838 236.914 294.315 236.914C293.82 236.914 293.391 236.998 293.027 237.166C292.663 237.334 292.29 237.567 291.907 237.866L291.249 237.04C291.641 236.713 292.089 236.438 292.593 236.214C293.106 235.981 293.68 235.864 294.315 235.864C295.248 235.864 295.986 236.102 296.527 236.578C297.068 237.054 297.339 237.703 297.339 238.524C297.339 239.047 297.232 239.537 297.017 239.994C296.802 240.451 296.504 240.904 296.121 241.352C295.738 241.8 295.29 242.271 294.777 242.766L292.691 244.824V244.88H297.745V246ZM305.799 240.988C305.799 242.071 305.687 242.995 305.463 243.76C305.239 244.525 304.879 245.113 304.385 245.524C303.899 245.935 303.26 246.14 302.467 246.14C301.337 246.14 300.502 245.687 299.961 244.782C299.429 243.867 299.163 242.603 299.163 240.988C299.163 239.905 299.27 238.981 299.485 238.216C299.709 237.451 300.063 236.867 300.549 236.466C301.034 236.055 301.673 235.85 302.467 235.85C303.587 235.85 304.422 236.303 304.973 237.208C305.523 238.104 305.799 239.364 305.799 240.988ZM300.395 240.988C300.395 242.36 300.549 243.387 300.857 244.068C301.174 244.749 301.711 245.09 302.467 245.09C303.213 245.09 303.745 244.754 304.063 244.082C304.389 243.401 304.553 242.369 304.553 240.988C304.553 239.625 304.389 238.603 304.063 237.922C303.745 237.241 303.213 236.9 302.467 236.9C301.711 236.9 301.174 237.241 300.857 237.922C300.549 238.603 300.395 239.625 300.395 240.988ZM313.768 246H307.16V244.978L309.778 242.332C310.273 241.828 310.693 241.38 311.038 240.988C311.393 240.596 311.659 240.213 311.836 239.84C312.014 239.467 312.102 239.051 312.102 238.594C312.102 238.043 311.939 237.628 311.612 237.348C311.286 237.059 310.861 236.914 310.338 236.914C309.844 236.914 309.414 236.998 309.05 237.166C308.686 237.334 308.313 237.567 307.93 237.866L307.272 237.04C307.664 236.713 308.112 236.438 308.616 236.214C309.13 235.981 309.704 235.864 310.338 235.864C311.272 235.864 312.009 236.102 312.55 236.578C313.092 237.054 313.362 237.703 313.362 238.524C313.362 239.047 313.255 239.537 313.04 239.994C312.826 240.451 312.527 240.904 312.144 241.352C311.762 241.8 311.314 242.271 310.8 242.766L308.714 244.824V244.88H313.768V246ZM319.47 246H318.266V239.014C318.266 238.613 318.271 238.291 318.28 238.048C318.289 237.805 318.303 237.553 318.322 237.292C318.173 237.441 318.033 237.567 317.902 237.67C317.781 237.773 317.631 237.903 317.454 238.062L316.39 238.93L315.746 238.104L318.448 236.004H319.47V246Z" fill="black"/>
<line x1="232" y1="262.5" x2="353" y2="262.5" stroke="#F1F1F1"/>
<rect width="121" height="44" transform="translate(232 263)" fill="white"/>
<path d="M255.322 284.988C255.322 286.071 255.21 286.995 254.986 287.76C254.762 288.525 254.403 289.113 253.908 289.524C253.423 289.935 252.783 290.14 251.99 290.14C250.861 290.14 250.025 289.687 249.484 288.782C248.952 287.867 248.686 286.603 248.686 284.988C248.686 283.905 248.793 282.981 249.008 282.216C249.232 281.451 249.587 280.867 250.072 280.466C250.557 280.055 251.197 279.85 251.99 279.85C253.11 279.85 253.945 280.303 254.496 281.208C255.047 282.104 255.322 283.364 255.322 284.988ZM249.918 284.988C249.918 286.36 250.072 287.387 250.38 288.068C250.697 288.749 251.234 289.09 251.99 289.09C252.737 289.09 253.269 288.754 253.586 288.082C253.913 287.401 254.076 286.369 254.076 284.988C254.076 283.625 253.913 282.603 253.586 281.922C253.269 281.241 252.737 280.9 251.99 280.9C251.234 280.9 250.697 281.241 250.38 281.922C250.072 282.603 249.918 283.625 249.918 284.988ZM263.292 290H256.684V288.978L259.302 286.332C259.796 285.828 260.216 285.38 260.562 284.988C260.916 284.596 261.182 284.213 261.36 283.84C261.537 283.467 261.626 283.051 261.626 282.594C261.626 282.043 261.462 281.628 261.136 281.348C260.809 281.059 260.384 280.914 259.862 280.914C259.367 280.914 258.938 280.998 258.574 281.166C258.21 281.334 257.836 281.567 257.454 281.866L256.796 281.04C257.188 280.713 257.636 280.438 258.14 280.214C258.653 279.981 259.227 279.864 259.862 279.864C260.795 279.864 261.532 280.102 262.074 280.578C262.615 281.054 262.886 281.703 262.886 282.524C262.886 283.047 262.778 283.537 262.564 283.994C262.349 284.451 262.05 284.904 261.668 285.352C261.285 285.8 260.837 286.271 260.324 286.766L258.238 288.824V288.88H263.292V290ZM269.091 280.004L265.367 290H264.163L267.887 280.004H269.091ZM276.512 290H269.904V288.978L272.522 286.332C273.017 285.828 273.437 285.38 273.782 284.988C274.137 284.596 274.403 284.213 274.58 283.84C274.758 283.467 274.846 283.051 274.846 282.594C274.846 282.043 274.683 281.628 274.356 281.348C274.03 281.059 273.605 280.914 273.082 280.914C272.588 280.914 272.158 280.998 271.794 281.166C271.43 281.334 271.057 281.567 270.674 281.866L270.016 281.04C270.408 280.713 270.856 280.438 271.36 280.214C271.874 279.981 272.448 279.864 273.082 279.864C274.016 279.864 274.753 280.102 275.294 280.578C275.836 281.054 276.106 281.703 276.106 282.524C276.106 283.047 275.999 283.537 275.784 283.994C275.57 284.451 275.271 284.904 274.888 285.352C274.506 285.8 274.058 286.271 273.544 286.766L271.458 288.824V288.88H276.512V290ZM284.146 282.342C284.146 283.014 283.955 283.551 283.572 283.952C283.199 284.344 282.699 284.605 282.074 284.736V284.792C282.867 284.885 283.46 285.137 283.852 285.548C284.253 285.959 284.454 286.495 284.454 287.158C284.454 287.746 284.319 288.264 284.048 288.712C283.777 289.16 283.357 289.51 282.788 289.762C282.228 290.014 281.505 290.14 280.618 290.14C280.095 290.14 279.61 290.098 279.162 290.014C278.714 289.939 278.285 289.799 277.874 289.594V288.446C278.294 288.661 278.747 288.824 279.232 288.936C279.717 289.048 280.184 289.104 280.632 289.104C281.528 289.104 282.172 288.931 282.564 288.586C282.965 288.231 283.166 287.746 283.166 287.13C283.166 286.505 282.919 286.057 282.424 285.786C281.939 285.506 281.253 285.366 280.366 285.366H279.4V284.316H280.38C281.201 284.316 281.822 284.143 282.242 283.798C282.671 283.453 282.886 282.995 282.886 282.426C282.886 281.941 282.723 281.567 282.396 281.306C282.069 281.035 281.626 280.9 281.066 280.9C280.525 280.9 280.063 280.979 279.68 281.138C279.297 281.297 278.919 281.497 278.546 281.74L277.93 280.9C278.285 280.62 278.723 280.377 279.246 280.172C279.778 279.967 280.38 279.864 281.052 279.864C282.097 279.864 282.872 280.097 283.376 280.564C283.889 281.031 284.146 281.623 284.146 282.342ZM290.324 280.004L286.6 290H285.396L289.12 280.004H290.324ZM297.745 290H291.137V288.978L293.755 286.332C294.25 285.828 294.67 285.38 295.015 284.988C295.37 284.596 295.636 284.213 295.813 283.84C295.99 283.467 296.079 283.051 296.079 282.594C296.079 282.043 295.916 281.628 295.589 281.348C295.262 281.059 294.838 280.914 294.315 280.914C293.82 280.914 293.391 280.998 293.027 281.166C292.663 281.334 292.29 281.567 291.907 281.866L291.249 281.04C291.641 280.713 292.089 280.438 292.593 280.214C293.106 279.981 293.68 279.864 294.315 279.864C295.248 279.864 295.986 280.102 296.527 280.578C297.068 281.054 297.339 281.703 297.339 282.524C297.339 283.047 297.232 283.537 297.017 283.994C296.802 284.451 296.504 284.904 296.121 285.352C295.738 285.8 295.29 286.271 294.777 286.766L292.691 288.824V288.88H297.745V290ZM305.799 284.988C305.799 286.071 305.687 286.995 305.463 287.76C305.239 288.525 304.879 289.113 304.385 289.524C303.899 289.935 303.26 290.14 302.467 290.14C301.337 290.14 300.502 289.687 299.961 288.782C299.429 287.867 299.163 286.603 299.163 284.988C299.163 283.905 299.27 282.981 299.485 282.216C299.709 281.451 300.063 280.867 300.549 280.466C301.034 280.055 301.673 279.85 302.467 279.85C303.587 279.85 304.422 280.303 304.973 281.208C305.523 282.104 305.799 283.364 305.799 284.988ZM300.395 284.988C300.395 286.36 300.549 287.387 300.857 288.068C301.174 288.749 301.711 289.09 302.467 289.09C303.213 289.09 303.745 288.754 304.063 288.082C304.389 287.401 304.553 286.369 304.553 284.988C304.553 283.625 304.389 282.603 304.063 281.922C303.745 281.241 303.213 280.9 302.467 280.9C301.711 280.9 301.174 281.241 300.857 281.922C300.549 282.603 300.395 283.625 300.395 284.988ZM313.768 290H307.16V288.978L309.778 286.332C310.273 285.828 310.693 285.38 311.038 284.988C311.393 284.596 311.659 284.213 311.836 283.84C312.014 283.467 312.102 283.051 312.102 282.594C312.102 282.043 311.939 281.628 311.612 281.348C311.286 281.059 310.861 280.914 310.338 280.914C309.844 280.914 309.414 280.998 309.05 281.166C308.686 281.334 308.313 281.567 307.93 281.866L307.272 281.04C307.664 280.713 308.112 280.438 308.616 280.214C309.13 279.981 309.704 279.864 310.338 279.864C311.272 279.864 312.009 280.102 312.55 280.578C313.092 281.054 313.362 281.703 313.362 282.524C313.362 283.047 313.255 283.537 313.04 283.994C312.826 284.451 312.527 284.904 312.144 285.352C311.762 285.8 311.314 286.271 310.8 286.766L308.714 288.824V288.88H313.768V290ZM319.47 290H318.266V283.014C318.266 282.613 318.271 282.291 318.28 282.048C318.289 281.805 318.303 281.553 318.322 281.292C318.173 281.441 318.033 281.567 317.902 281.67C317.781 281.773 317.631 281.903 317.454 282.062L316.39 282.93L315.746 282.104L318.448 280.004H319.47V290Z" fill="black"/>
<g clip-path="url(#clip0_8107_328449)">
<rect width="42" height="44" transform="translate(353 131)" fill="white"/>
<line x1="353" y1="131.5" x2="395" y2="131.5" stroke="#C9C9C9"/>
<line x1="353" y1="174.5" x2="395" y2="174.5" stroke="#C9C9C9"/>
</g>
<g clip-path="url(#clip1_8107_328449)">
<rect width="42" height="44" transform="translate(353 175)" fill="white"/>
<line x1="353" y1="218.5" x2="395" y2="218.5" stroke="#F1F1F1"/>
</g>
<g clip-path="url(#clip2_8107_328449)">
<rect width="42" height="44" transform="translate(353 219)" fill="white"/>
<line x1="353" y1="262.5" x2="395" y2="262.5" stroke="#F1F1F1"/>
</g>
<rect width="42" height="44" transform="translate(353 263)" fill="white"/>
<rect width="384" height="68" transform="translate(11 63)" fill="white"/>
<rect x="75.5" y="79.5" width="199" height="35" rx="1.5" fill="white"/>
<rect x="75.5" y="79.5" width="199" height="35" rx="1.5" stroke="#939393"/>
<path fill-rule="evenodd" clip-rule="evenodd" d="M93.62 90.7493C90.93 90.7493 88.7493 92.93 88.7493 95.62C88.7493 98.31 90.93 100.491 93.62 100.491C96.31 100.491 98.4906 98.31 98.4906 95.62C98.4906 92.93 96.31 90.7493 93.62 90.7493ZM88 95.62C88 92.5162 90.5162 90 93.62 90C96.7238 90 99.24 92.5162 99.24 95.62C99.24 98.7238 96.7238 101.24 93.62 101.24C90.5162 101.24 88 98.7238 88 95.62Z" fill="#323232"/>
<path fill-rule="evenodd" clip-rule="evenodd" d="M97.3015 99.3015C97.4478 99.1552 97.6851 99.1552 97.8314 99.3015L99.6797 101.15C99.8261 101.296 99.8261 101.533 99.6797 101.68C99.5334 101.826 99.2962 101.826 99.1499 101.68L97.3015 99.8314C97.1552 99.6851 97.1552 99.4478 97.3015 99.3015Z" fill="#323232"/>
<path fill-rule="evenodd" clip-rule="evenodd" d="M100.449 101.73C100.245 101.526 99.9331 101.526 99.7297 101.73C99.5263 101.933 99.5263 102.245 99.7297 102.449L100.379 103.098C100.386 103.105 100.392 103.112 100.399 103.119C100.538 103.282 100.882 103.314 101.098 103.098C101.302 102.895 101.302 102.582 101.098 102.379L100.449 101.73ZM99.1998 101.2C99.6958 100.704 100.483 100.704 100.979 101.2L101.628 101.849C102.124 102.345 102.124 103.132 101.628 103.628C101.148 104.108 100.302 104.143 99.8401 103.619L99.1998 102.979C98.7038 102.483 98.7038 101.696 99.1998 101.2Z" fill="#323232"/>
<path d="M307.182 88.5113C307.024 88.1782 306.774 87.897 306.462 87.7004C306.15 87.5037 305.789 87.3997 305.42 87.4004H292.72C292.352 87.4014 291.991 87.5065 291.68 87.7036C291.369 87.9007 291.12 88.1817 290.961 88.5143C290.803 88.8469 290.742 89.2175 290.785 89.5834C290.828 89.9492 290.974 90.2954 291.205 90.5821L296.691 97.3981C296.718 97.4363 296.732 97.4818 296.732 97.5284V105.366C296.737 105.692 296.869 106.003 297.099 106.233C297.33 106.463 297.64 106.595 297.966 106.6C298.191 106.602 298.412 106.54 298.604 106.422L300.764 105.126C300.946 105.017 301.097 104.862 301.202 104.677C301.306 104.492 301.361 104.283 301.36 104.07V97.5284C301.363 97.4811 301.38 97.4357 301.408 97.3981L306.894 90.5821C307.136 90.3008 307.291 89.9561 307.342 89.589C307.393 89.2218 307.338 88.8477 307.182 88.5113ZM306.14 89.9375L300.654 96.7535C300.479 96.9742 300.383 97.2468 300.38 97.5284V104.07C300.38 104.105 300.371 104.14 300.354 104.171C300.338 104.203 300.313 104.229 300.284 104.248L298.124 105.544C298.092 105.562 298.057 105.571 298.021 105.571C297.985 105.571 297.95 105.562 297.918 105.544C297.885 105.528 297.857 105.502 297.838 105.471C297.819 105.439 297.808 105.403 297.808 105.366V97.5284C297.809 97.2463 297.712 96.9726 297.534 96.7535L292 89.9375C291.89 89.8018 291.821 89.6372 291.801 89.4634C291.782 89.2895 291.813 89.1137 291.891 88.957C291.963 88.7983 292.08 88.6641 292.228 88.5704C292.375 88.4768 292.546 88.4276 292.72 88.429H305.42C305.594 88.4276 305.765 88.4768 305.913 88.5704C306.06 88.6641 306.177 88.7983 306.25 88.957C306.327 89.1137 306.358 89.2895 306.339 89.4634C306.319 89.6372 306.25 89.8018 306.14 89.9375Z" fill="#1B77AF"/>
<rect x="323" y="81" width="32" height="32" rx="2" fill="url(#paint0_angular_8107_328449)"/>
<path fill-rule="evenodd" clip-rule="evenodd" d="M335.949 89.8001C335.21 89.8001 334.611 90.3987 334.611 91.1372C334.611 91.8757 335.21 92.4743 335.949 92.4743C336.687 92.4743 337.286 91.8757 337.286 91.1372C337.286 90.3987 336.687 89.8001 335.949 89.8001ZM333.583 91.1372C333.583 89.8307 334.642 88.7715 335.949 88.7715C337.255 88.7715 338.314 89.8307 338.314 91.1372C338.314 92.4437 337.255 93.5029 335.949 93.5029C334.642 93.5029 333.583 92.4437 333.583 91.1372Z" fill="#155E8B"/>
<path fill-rule="evenodd" clip-rule="evenodd" d="M337.286 91.1372C337.286 90.8532 337.516 90.6229 337.8 90.6229H348.086C348.37 90.6229 348.6 90.8532 348.6 91.1372C348.6 91.4212 348.37 91.6515 348.086 91.6515H337.8C337.516 91.6515 337.286 91.4212 337.286 91.1372Z" fill="#155E8B"/>
<path fill-rule="evenodd" clip-rule="evenodd" d="M329.4 91.1372C329.4 90.8532 329.63 90.6229 329.914 90.6229H334.097C334.381 90.6229 334.611 90.8532 334.611 91.1372C334.611 91.4212 334.381 91.6515 334.097 91.6515H329.914C329.63 91.6515 329.4 91.4212 329.4 91.1372Z" fill="#155E8B"/>
<path fill-rule="evenodd" clip-rule="evenodd" d="M335.949 100.977C335.21 100.977 334.611 101.576 334.611 102.314C334.611 103.053 335.21 103.651 335.949 103.651C336.687 103.651 337.286 103.053 337.286 102.314C337.286 101.576 336.687 100.977 335.949 100.977ZM333.583 102.314C333.583 101.008 334.642 99.9486 335.949 99.9486C337.255 99.9486 338.314 101.008 338.314 102.314C338.314 103.621 337.255 104.68 335.949 104.68C334.642 104.68 333.583 103.621 333.583 102.314Z" fill="#155E8B"/>
<path fill-rule="evenodd" clip-rule="evenodd" d="M337.286 102.314C337.286 102.03 337.516 101.8 337.8 101.8H348.086C348.37 101.8 348.6 102.03 348.6 102.314C348.6 102.598 348.37 102.829 348.086 102.829H337.8C337.516 102.829 337.286 102.598 337.286 102.314Z" fill="#155E8B"/>
<path fill-rule="evenodd" clip-rule="evenodd" d="M329.4 102.314C329.4 102.03 329.63 101.8 329.914 101.8H334.097C334.381 101.8 334.611 102.03 334.611 102.314C334.611 102.598 334.381 102.829 334.097 102.829H329.914C329.63 102.829 329.4 102.598 329.4 102.314Z" fill="#155E8B"/>
<path fill-rule="evenodd" clip-rule="evenodd" d="M341.983 95.3543C341.244 95.3543 340.646 95.953 340.646 96.6915C340.646 97.43 341.244 98.0286 341.983 98.0286C342.721 98.0286 343.32 97.43 343.32 96.6915C343.32 95.953 342.721 95.3543 341.983 95.3543ZM339.617 96.6915C339.617 95.3849 340.676 94.3258 341.983 94.3258C343.289 94.3258 344.349 95.3849 344.349 96.6915C344.349 97.998 343.289 99.0572 341.983 99.0572C340.676 99.0572 339.617 97.998 339.617 96.6915Z" fill="#155E8B"/>
<path fill-rule="evenodd" clip-rule="evenodd" d="M329.4 96.6915C329.4 96.4075 329.63 96.1772 329.914 96.1772H340.131C340.415 96.1772 340.646 96.4075 340.646 96.6915C340.646 96.9755 340.415 97.2058 340.131 97.2058H329.914C329.63 97.2058 329.4 96.9755 329.4 96.6915Z" fill="#155E8B"/>
<path fill-rule="evenodd" clip-rule="evenodd" d="M343.32 96.6915C343.32 96.4075 343.55 96.1772 343.834 96.1772H348.086C348.37 96.1772 348.6 96.4075 348.6 96.6915C348.6 96.9755 348.37 97.2058 348.086 97.2058H343.834C343.55 97.2058 343.32 96.9755 343.32 96.6915Z" fill="#155E8B"/>
<path d="M379 98.5085C379.757 98.5085 380.371 97.8944 380.371 97.137C380.371 96.3796 379.757 95.7656 379 95.7656C378.243 95.7656 377.629 96.3796 377.629 97.137C377.629 97.8944 378.243 98.5085 379 98.5085Z" fill="#1B77AF"/>
<path d="M379 104.817C379.757 104.817 380.371 104.203 380.371 103.446C380.371 102.688 379.757 102.074 379 102.074C378.243 102.074 377.629 102.688 377.629 103.446C377.629 104.203 378.243 104.817 379 104.817Z" fill="#1B77AF"/>
<path d="M379 92.1999C379.757 92.1999 380.371 91.5859 380.371 90.8285C380.371 90.071 379.757 89.457 379 89.457C378.243 89.457 377.629 90.071 377.629 90.8285C377.629 91.5859 378.243 92.1999 379 92.1999Z" fill="#1B77AF"/>
<rect x="294" y="40" width="91" height="32" rx="4" fill="#323232"/>
<path d="M309.432 52.432C310.552 52.432 311.368 52.652 311.88 53.092C312.392 53.532 312.648 54.152 312.648 54.952C312.648 55.424 312.54 55.868 312.324 56.284C312.116 56.692 311.76 57.024 311.256 57.28C310.76 57.536 310.084 57.664 309.228 57.664H308.244V61H307.164V52.432H309.432ZM309.336 53.356H308.244V56.74H309.108C309.924 56.74 310.532 56.608 310.932 56.344C311.332 56.08 311.532 55.632 311.532 55C311.532 54.448 311.352 54.036 310.992 53.764C310.64 53.492 310.088 53.356 309.336 53.356ZM317.286 54.448C317.406 54.448 317.534 54.456 317.67 54.472C317.806 54.48 317.93 54.496 318.042 54.52L317.91 55.492C317.806 55.468 317.69 55.448 317.562 55.432C317.434 55.416 317.318 55.408 317.214 55.408C316.886 55.408 316.578 55.5 316.29 55.684C316.002 55.86 315.77 56.112 315.594 56.44C315.426 56.76 315.342 57.136 315.342 57.568V61H314.286V54.568H315.15L315.27 55.744H315.318C315.518 55.392 315.782 55.088 316.11 54.832C316.446 54.576 316.838 54.448 317.286 54.448ZM321.492 54.448C322.036 54.448 322.508 54.568 322.908 54.808C323.308 55.048 323.612 55.388 323.82 55.828C324.036 56.26 324.144 56.768 324.144 57.352V57.988H319.74C319.756 58.716 319.94 59.272 320.292 59.656C320.652 60.032 321.152 60.22 321.792 60.22C322.2 60.22 322.56 60.184 322.872 60.112C323.192 60.032 323.52 59.92 323.856 59.776V60.7C323.528 60.844 323.204 60.948 322.884 61.012C322.564 61.084 322.184 61.12 321.744 61.12C321.128 61.12 320.588 60.996 320.124 60.748C319.66 60.5 319.296 60.132 319.032 59.644C318.776 59.156 318.648 58.552 318.648 57.832C318.648 57.128 318.764 56.524 318.996 56.02C319.236 55.516 319.568 55.128 319.992 54.856C320.424 54.584 320.924 54.448 321.492 54.448ZM321.48 55.312C320.976 55.312 320.576 55.476 320.28 55.804C319.992 56.124 319.82 56.572 319.764 57.148H323.04C323.032 56.604 322.904 56.164 322.656 55.828C322.408 55.484 322.016 55.312 321.48 55.312ZM328.746 55.384H327.126V61H326.07V55.384H324.942V54.892L326.07 54.532V54.16C326.07 53.328 326.25 52.732 326.61 52.372C326.978 52.004 327.494 51.82 328.158 51.82C328.406 51.82 328.638 51.844 328.854 51.892C329.07 51.932 329.254 51.98 329.406 52.036L329.13 52.864C329.002 52.824 328.854 52.784 328.686 52.744C328.518 52.704 328.346 52.684 328.17 52.684C327.818 52.684 327.554 52.804 327.378 53.044C327.21 53.276 327.126 53.644 327.126 54.148V54.568H328.746V55.384ZM332.391 54.448C332.935 54.448 333.407 54.568 333.807 54.808C334.207 55.048 334.511 55.388 334.719 55.828C334.935 56.26 335.043 56.768 335.043 57.352V57.988H330.639C330.655 58.716 330.839 59.272 331.191 59.656C331.551 60.032 332.051 60.22 332.691 60.22C333.099 60.22 333.459 60.184 333.771 60.112C334.091 60.032 334.419 59.92 334.755 59.776V60.7C334.427 60.844 334.103 60.948 333.783 61.012C333.463 61.084 333.083 61.12 332.643 61.12C332.027 61.12 331.487 60.996 331.023 60.748C330.559 60.5 330.195 60.132 329.931 59.644C329.675 59.156 329.547 58.552 329.547 57.832C329.547 57.128 329.663 56.524 329.895 56.02C330.135 55.516 330.467 55.128 330.891 54.856C331.323 54.584 331.823 54.448 332.391 54.448ZM332.379 55.312C331.875 55.312 331.475 55.476 331.179 55.804C330.891 56.124 330.719 56.572 330.663 57.148H333.939C333.931 56.604 333.803 56.164 333.555 55.828C333.307 55.484 332.915 55.312 332.379 55.312ZM339.68 54.448C339.8 54.448 339.928 54.456 340.064 54.472C340.2 54.48 340.324 54.496 340.436 54.52L340.304 55.492C340.2 55.468 340.084 55.448 339.956 55.432C339.828 55.416 339.712 55.408 339.608 55.408C339.28 55.408 338.972 55.5 338.684 55.684C338.396 55.86 338.164 56.112 337.988 56.44C337.82 56.76 337.736 57.136 337.736 57.568V61H336.68V54.568H337.544L337.664 55.744H337.712C337.912 55.392 338.176 55.088 338.504 54.832C338.84 54.576 339.232 54.448 339.68 54.448ZM343.887 54.448C344.431 54.448 344.903 54.568 345.303 54.808C345.703 55.048 346.007 55.388 346.215 55.828C346.431 56.26 346.539 56.768 346.539 57.352V57.988H342.135C342.151 58.716 342.335 59.272 342.687 59.656C343.047 60.032 343.547 60.22 344.187 60.22C344.595 60.22 344.955 60.184 345.267 60.112C345.587 60.032 345.915 59.92 346.251 59.776V60.7C345.923 60.844 345.599 60.948 345.279 61.012C344.959 61.084 344.579 61.12 344.139 61.12C343.523 61.12 342.983 60.996 342.519 60.748C342.055 60.5 341.691 60.132 341.427 59.644C341.171 59.156 341.043 58.552 341.043 57.832C341.043 57.128 341.159 56.524 341.391 56.02C341.631 55.516 341.963 55.128 342.387 54.856C342.819 54.584 343.319 54.448 343.887 54.448ZM343.875 55.312C343.371 55.312 342.971 55.476 342.675 55.804C342.387 56.124 342.215 56.572 342.159 57.148H345.435C345.427 56.604 345.299 56.164 345.051 55.828C344.803 55.484 344.411 55.312 343.875 55.312ZM351.272 54.448C352.04 54.448 352.62 54.636 353.012 55.012C353.404 55.388 353.6 55.988 353.6 56.812V61H352.556V56.884C352.556 55.852 352.076 55.336 351.116 55.336C350.404 55.336 349.912 55.536 349.64 55.936C349.368 56.336 349.232 56.912 349.232 57.664V61H348.176V54.568H349.028L349.184 55.444H349.244C349.452 55.108 349.74 54.86 350.108 54.7C350.476 54.532 350.864 54.448 351.272 54.448ZM358.174 61.12C357.598 61.12 357.09 61.004 356.65 60.772C356.21 60.54 355.862 60.18 355.606 59.692C355.358 59.204 355.234 58.58 355.234 57.82C355.234 57.028 355.362 56.384 355.618 55.888C355.882 55.392 356.242 55.028 356.698 54.796C357.154 54.564 357.67 54.448 358.246 54.448C358.566 54.448 358.878 54.484 359.182 54.556C359.494 54.62 359.746 54.7 359.938 54.796L359.614 55.672C359.422 55.6 359.198 55.532 358.942 55.468C358.686 55.404 358.446 55.372 358.222 55.372C356.958 55.372 356.326 56.184 356.326 57.808C356.326 58.584 356.478 59.18 356.782 59.596C357.094 60.004 357.554 60.208 358.162 60.208C358.506 60.208 358.814 60.172 359.086 60.1C359.358 60.028 359.606 59.94 359.83 59.836V60.772C359.614 60.884 359.374 60.968 359.11 61.024C358.854 61.088 358.542 61.12 358.174 61.12ZM363.844 54.448C364.388 54.448 364.86 54.568 365.26 54.808C365.66 55.048 365.964 55.388 366.172 55.828C366.388 56.26 366.496 56.768 366.496 57.352V57.988H362.092C362.108 58.716 362.292 59.272 362.644 59.656C363.004 60.032 363.504 60.22 364.144 60.22C364.552 60.22 364.912 60.184 365.224 60.112C365.544 60.032 365.872 59.92 366.208 59.776V60.7C365.88 60.844 365.556 60.948 365.236 61.012C364.916 61.084 364.536 61.12 364.096 61.12C363.48 61.12 362.94 60.996 362.476 60.748C362.012 60.5 361.648 60.132 361.384 59.644C361.128 59.156 361 58.552 361 57.832C361 57.128 361.116 56.524 361.348 56.02C361.588 55.516 361.92 55.128 362.344 54.856C362.776 54.584 363.276 54.448 363.844 54.448ZM363.832 55.312C363.328 55.312 362.928 55.476 362.632 55.804C362.344 56.124 362.172 56.572 362.116 57.148H365.392C365.384 56.604 365.256 56.164 365.008 55.828C364.76 55.484 364.368 55.312 363.832 55.312ZM372.321 59.224C372.321 59.848 372.089 60.32 371.625 60.64C371.161 60.96 370.537 61.12 369.753 61.12C369.305 61.12 368.917 61.084 368.589 61.012C368.269 60.94 367.985 60.84 367.737 60.712V59.752C367.993 59.88 368.301 60 368.661 60.112C369.029 60.216 369.401 60.268 369.777 60.268C370.313 60.268 370.701 60.184 370.941 60.016C371.181 59.84 371.301 59.608 371.301 59.32C371.301 59.16 371.257 59.016 371.169 58.888C371.081 58.76 370.921 58.632 370.689 58.504C370.465 58.376 370.141 58.232 369.717 58.072C369.301 57.912 368.945 57.752 368.649 57.592C368.353 57.432 368.125 57.24 367.965 57.016C367.805 56.792 367.725 56.504 367.725 56.152C367.725 55.608 367.945 55.188 368.385 54.892C368.833 54.596 369.417 54.448 370.137 54.448C370.529 54.448 370.893 54.488 371.229 54.568C371.573 54.648 371.893 54.752 372.189 54.88L371.829 55.72C371.557 55.608 371.273 55.512 370.977 55.432C370.681 55.352 370.377 55.312 370.065 55.312C369.633 55.312 369.301 55.384 369.069 55.528C368.845 55.664 368.733 55.852 368.733 56.092C368.733 56.276 368.785 56.428 368.889 56.548C368.993 56.668 369.165 56.788 369.405 56.908C369.653 57.028 369.981 57.164 370.389 57.316C370.797 57.468 371.145 57.624 371.433 57.784C371.721 57.944 371.941 58.14 372.093 58.372C372.245 58.596 372.321 58.88 372.321 59.224Z" fill="white"/>
<path d="M332.5 72H346.5L339.5 79L332.5 72Z" fill="#323232"/>
<g filter="url(#filter0_d_8107_328449)">
<mask id="path-34-outside-1_8107_328449" maskUnits="userSpaceOnUse" x="341" y="97" width="16" height="19" fill="black">
<rect fill="white" x="341" y="97" width="16" height="19"/>
<path fill-rule="evenodd" clip-rule="evenodd" d="M345.836 108L344.949 106.645C344.344 105.72 343.054 105.383 342.068 105.89L342.298 105.772C342.053 105.898 341.935 106.211 342.036 106.472L343.263 109.647C343.458 110.151 343.955 110.863 344.367 111.22C344.367 111.22 346.836 113.264 346.836 114.03V115H350.836L351.836 113L352.836 115H353.836V114.03C353.836 113.264 355.344 110.851 355.344 110.851C355.622 110.382 355.854 109.555 355.854 109.007V104.972C355.836 104.078 355.076 103.355 354.139 103.355C353.671 103.355 353.291 103.717 353.291 104.163V104.487C353.291 103.593 352.532 102.869 351.595 102.869C351.126 102.869 350.746 103.231 350.746 103.678V104.001C350.746 103.108 349.987 102.384 349.05 102.384C348.581 102.384 348.201 102.746 348.201 103.193V103.516C348.201 103.373 348.186 103.258 348.157 103.168L347.898 99.0012C347.863 98.4378 347.388 98 346.836 98C346.279 98 345.836 98.4476 345.836 98.9998V103V108ZM352.854 107H353.854V111H352.854V107ZM350.854 107H351.854V111H350.854V107ZM348.854 107H349.854V111H348.854V107Z"/>
</mask>
<path fill-rule="evenodd" clip-rule="evenodd" d="M345.836 108L344.949 106.645C344.344 105.72 343.054 105.383 342.068 105.89L342.298 105.772C342.053 105.898 341.935 106.211 342.036 106.472L343.263 109.647C343.458 110.151 343.955 110.863 344.367 111.22C344.367 111.22 346.836 113.264 346.836 114.03V115H350.836L351.836 113L352.836 115H353.836V114.03C353.836 113.264 355.344 110.851 355.344 110.851C355.622 110.382 355.854 109.555 355.854 109.007V104.972C355.836 104.078 355.076 103.355 354.139 103.355C353.671 103.355 353.291 103.717 353.291 104.163V104.487C353.291 103.593 352.532 102.869 351.595 102.869C351.126 102.869 350.746 103.231 350.746 103.678V104.001C350.746 103.108 349.987 102.384 349.05 102.384C348.581 102.384 348.201 102.746 348.201 103.193V103.516C348.201 103.373 348.186 103.258 348.157 103.168L347.898 99.0012C347.863 98.4378 347.388 98 346.836 98C346.279 98 345.836 98.4476 345.836 98.9998V103V108ZM352.854 107H353.854V111H352.854V107ZM350.854 107H351.854V111H350.854V107ZM348.854 107H349.854V111H348.854V107Z" fill="white"/>
<path d="M345.836 108L344.999 108.548L346.836 111.354V108H345.836ZM344.949 106.645L345.786 106.098L344.949 106.645ZM342.036 106.472L341.103 106.833L342.036 106.472ZM343.263 109.647L344.196 109.287L343.263 109.647ZM344.367 111.22L343.711 111.975L343.72 111.983L343.729 111.991L344.367 111.22ZM346.836 115H345.836V116H346.836V115ZM350.836 115V116H351.454L351.73 115.447L350.836 115ZM351.836 113L352.73 112.553L351.836 110.764L350.941 112.553L351.836 113ZM352.836 115L351.941 115.447L352.218 116H352.836V115ZM353.836 115V116H354.836V115H353.836ZM355.344 110.851L356.192 111.381L356.199 111.371L356.205 111.36L355.344 110.851ZM355.854 104.972H356.854V104.962L356.853 104.952L355.854 104.972ZM348.157 103.168L347.158 103.23L347.166 103.358L347.206 103.479L348.157 103.168ZM347.898 99.0012L346.9 99.0632V99.0632L347.898 99.0012ZM345.836 98.9998H344.836H345.836ZM353.854 107H354.854V106H353.854V107ZM353.854 111V112H354.854V111H353.854ZM352.854 111H351.854V112H352.854V111ZM351.854 107H352.854V106H351.854V107ZM351.854 111V112H352.854V111H351.854ZM350.854 111H349.854V112H350.854V111ZM349.854 107H350.854V106H349.854V107ZM349.854 111V112H350.854V111H349.854ZM348.854 111H347.854V112H348.854V111ZM346.672 107.452L345.786 106.098L344.112 107.193L344.999 108.548L346.672 107.452ZM345.786 106.098C344.898 104.742 343.049 104.261 341.61 105.001L342.525 106.779C343.059 106.505 343.789 106.699 344.112 107.193L345.786 106.098ZM342.525 106.779L342.755 106.661L341.84 104.882L341.61 105.001L342.525 106.779ZM341.84 104.882C341.131 105.247 340.822 106.105 341.103 106.833L342.969 106.112C343.014 106.23 343.005 106.34 342.974 106.421C342.944 106.503 342.876 106.599 342.755 106.661L341.84 104.882ZM341.103 106.833L342.331 110.008L344.196 109.287L342.969 106.112L341.103 106.833ZM342.331 110.008C342.583 110.662 343.175 111.51 343.711 111.975L345.022 110.465C344.735 110.216 344.333 109.64 344.196 109.287L342.331 110.008ZM344.367 111.22C343.729 111.991 343.729 111.991 343.729 111.991C343.729 111.991 343.729 111.991 343.729 111.991C343.729 111.991 343.729 111.991 343.729 111.991C343.729 111.991 343.729 111.991 343.73 111.991C343.73 111.992 343.732 111.993 343.734 111.995C343.738 111.998 343.744 112.003 343.752 112.01C343.768 112.024 343.793 112.045 343.825 112.072C343.889 112.126 343.981 112.205 344.092 112.303C344.315 112.499 344.609 112.765 344.9 113.051C345.196 113.342 345.468 113.632 345.659 113.88C345.755 114.004 345.813 114.095 345.843 114.152C345.884 114.23 345.836 114.174 345.836 114.03H347.836C347.836 113.694 347.71 113.407 347.616 113.226C347.511 113.025 347.376 112.831 347.241 112.656C346.969 112.304 346.624 111.941 346.302 111.625C345.976 111.304 345.653 111.012 345.413 110.801C345.292 110.695 345.191 110.608 345.12 110.548C345.085 110.517 345.056 110.494 345.037 110.477C345.027 110.469 345.019 110.462 345.014 110.458C345.011 110.455 345.009 110.454 345.007 110.452C345.006 110.452 345.006 110.451 345.005 110.451C345.005 110.451 345.005 110.45 345.005 110.45C345.005 110.45 345.004 110.45 345.004 110.45C345.004 110.45 345.004 110.45 344.367 111.22ZM345.836 114.03V115H347.836V114.03H345.836ZM346.836 116H350.836V114H346.836V116ZM351.73 115.447L352.73 113.447L350.941 112.553L349.941 114.553L351.73 115.447ZM350.941 113.447L351.941 115.447L353.73 114.553L352.73 112.553L350.941 113.447ZM352.836 116H353.836V114H352.836V116ZM354.836 115V114.03H352.836V115H354.836ZM354.836 114.03C354.836 114.066 354.846 113.944 354.992 113.6C355.116 113.307 355.288 112.965 355.47 112.628C355.65 112.294 355.831 111.981 355.968 111.75C356.037 111.635 356.093 111.542 356.133 111.477C356.152 111.445 356.168 111.421 356.178 111.404C356.183 111.396 356.187 111.39 356.189 111.386C356.19 111.384 356.191 111.382 356.192 111.382C356.192 111.381 356.192 111.381 356.192 111.381C356.192 111.381 356.192 111.381 356.192 111.381C356.192 111.381 356.192 111.381 356.192 111.381C356.192 111.381 356.192 111.381 355.344 110.851C354.496 110.321 354.496 110.321 354.496 110.321C354.496 110.321 354.496 110.321 354.496 110.321C354.496 110.321 354.496 110.321 354.496 110.321C354.496 110.322 354.495 110.322 354.495 110.323C354.494 110.325 354.493 110.327 354.491 110.329C354.488 110.335 354.483 110.342 354.477 110.352C354.465 110.371 354.448 110.399 354.426 110.434C354.383 110.505 354.322 110.606 354.249 110.729C354.103 110.975 353.907 111.313 353.71 111.678C353.515 112.04 353.309 112.445 353.15 112.82C353.013 113.144 352.836 113.611 352.836 114.03H354.836ZM356.205 111.36C356.403 111.026 356.559 110.613 356.667 110.226C356.774 109.839 356.854 109.401 356.854 109.007H354.854C354.854 109.161 354.817 109.41 354.74 109.691C354.662 109.971 354.564 110.206 354.484 110.341L356.205 111.36ZM356.854 109.007V104.972H354.854V109.007H356.854ZM356.853 104.952C356.824 103.482 355.588 102.355 354.139 102.355V104.355C354.565 104.355 354.847 104.675 354.854 104.992L356.853 104.952ZM354.139 102.355C353.164 102.355 352.291 103.12 352.291 104.163H354.291C354.291 104.232 354.26 104.286 354.229 104.315C354.199 104.344 354.165 104.355 354.139 104.355V102.355ZM352.291 104.163V104.487H354.291V104.163H352.291ZM354.291 104.487C354.291 102.997 353.038 101.869 351.595 101.869V103.869C352.025 103.869 352.291 104.19 352.291 104.487H354.291ZM351.595 101.869C350.619 101.869 349.746 102.635 349.746 103.678H351.746C351.746 103.746 351.715 103.801 351.685 103.83C351.655 103.859 351.621 103.869 351.595 103.869V101.869ZM349.746 103.678V104.001H351.746V103.678H349.746ZM351.746 104.001C351.746 102.511 350.494 101.384 349.05 101.384V103.384C349.48 103.384 349.746 103.705 349.746 104.001H351.746ZM349.05 101.384C348.074 101.384 347.201 102.149 347.201 103.193H349.201C349.201 103.261 349.171 103.315 349.14 103.345C349.11 103.373 349.076 103.384 349.05 103.384V101.384ZM347.201 103.193V103.516H349.201V103.193H347.201ZM349.201 103.516C349.201 103.309 349.18 103.081 349.107 102.857L347.206 103.479C347.198 103.456 347.198 103.444 347.199 103.452C347.199 103.459 347.201 103.479 347.201 103.516H349.201ZM349.155 103.106L348.896 98.9392L346.9 99.0632L347.158 103.23L349.155 103.106ZM348.896 98.9392C348.828 97.845 347.912 97 346.836 97V99C346.844 99 346.86 99.0035 346.877 99.0193C346.893 99.0344 346.899 99.0498 346.9 99.0632L348.896 98.9392ZM346.836 97C345.725 97 344.836 97.8977 344.836 98.9998H346.836V99V97ZM344.836 98.9998V103H346.836V98.9998H344.836ZM344.836 103V108H346.836V103H344.836ZM352.854 108H353.854V106H352.854V108ZM352.854 107V111H354.854V107H352.854ZM353.854 110H352.854V112H353.854V110ZM353.854 111V107H351.854V111H353.854ZM350.854 108H351.854V106H350.854V108ZM350.854 107V111H352.854V107H350.854ZM351.854 110H350.854V112H351.854V110ZM351.854 111V107H349.854V111H351.854ZM348.854 108H349.854V106H348.854V108ZM348.854 107V111H350.854V107H348.854ZM349.854 110H348.854V112H349.854V110ZM349.854 111V107H347.854V111H349.854Z" fill="black" fill-opacity="0.8" mask="url(#path-34-outside-1_8107_328449)"/>
</g>
<defs>
<filter id="filter0_d_8107_328449" x="338" y="95" width="21.8535" height="25" filterUnits="userSpaceOnUse" color-interpolation-filters="sRGB">
<feFlood flood-opacity="0" result="BackgroundImageFix"/>
<feColorMatrix in="SourceAlpha" type="matrix" values="0 0 0 0 0 0 0 0 0 0 0 0 0 0 0 0 0 0 127 0" result="hardAlpha"/>
<feOffset dy="1"/>
<feGaussianBlur stdDeviation="1.5"/>
<feColorMatrix type="matrix" values="0 0 0 0 0 0 0 0 0 0 0 0 0 0 0 0 0 0 0.2 0"/>
<feBlend mode="normal" in2="BackgroundImageFix" result="effect1_dropShadow_8107_328449"/>
<feBlend mode="normal" in="SourceGraphic" in2="effect1_dropShadow_8107_328449" result="shape"/>
</filter>
<radialGradient id="paint0_angular_8107_328449" cx="0" cy="0" r="1" gradientUnits="userSpaceOnUse" gradientTransform="translate(331.123 81) rotate(48.3339) scale(35.9165 1.67835e-06)">
<stop stop-color="white"/>
<stop offset="1" stop-color="#DDDDDD"/>
</radialGradient>
<clipPath id="clip0_8107_328449">
<rect width="42" height="44" fill="white" transform="translate(353 131)"/>
</clipPath>
<clipPath id="clip1_8107_328449">
<rect width="42" height="44" fill="white" transform="translate(353 175)"/>
</clipPath>
<clipPath id="clip2_8107_328449">
<rect width="42" height="44" fill="white" transform="translate(353 219)"/>
</clipPath>
</defs>
</svg>
