<svg width="952" height="328" viewBox="0 0 952 328" fill="none" xmlns="http://www.w3.org/2000/svg">
<rect x="0.5" y="0.5" width="951" height="327" fill="white"/>
<path d="M33.478 49.904C33.478 51.5933 33.0067 52.8673 32.064 53.726C31.1213 54.5753 29.8053 55 28.116 55H25.302V45.004H28.41C29.446 45.004 30.342 45.1907 31.098 45.564C31.854 45.9373 32.4373 46.488 32.848 47.216C33.268 47.944 33.478 48.84 33.478 49.904ZM31.602 49.96C31.602 48.7653 31.3267 47.888 30.776 47.328C30.2253 46.768 29.4367 46.488 28.41 46.488H27.094V53.502H28.172C30.4587 53.502 31.602 52.3213 31.602 49.96ZM38.4946 47.272C39.5119 47.272 40.3146 47.5753 40.9026 48.182C41.4999 48.7887 41.7986 49.6333 41.7986 50.716V51.612H36.7866C36.8053 52.3027 36.9966 52.8393 37.3606 53.222C37.7246 53.5953 38.2286 53.782 38.8726 53.782C39.3579 53.782 39.7966 53.7353 40.1886 53.642C40.5806 53.5393 40.9819 53.3947 41.3926 53.208V54.622C41.0193 54.7993 40.6319 54.93 40.2306 55.014C39.8293 55.098 39.3486 55.14 38.7886 55.14C38.0419 55.14 37.3839 55 36.8146 54.72C36.2453 54.4307 35.7973 54.0013 35.4706 53.432C35.1533 52.8533 34.9946 52.13 34.9946 51.262C34.9946 49.9647 35.3119 48.9753 35.9466 48.294C36.5906 47.6127 37.4399 47.272 38.4946 47.272ZM38.4946 48.574C38.0186 48.574 37.6313 48.728 37.3326 49.036C37.0433 49.3347 36.8753 49.7827 36.8286 50.38H40.0906C40.0813 49.8573 39.9459 49.428 39.6846 49.092C39.4326 48.7467 39.0359 48.574 38.4946 48.574ZM47.5114 48.742H45.6774V55H43.9134V48.742H42.6954V47.902L43.9134 47.398V46.88C43.9134 45.9093 44.142 45.2373 44.5994 44.864C45.066 44.4813 45.7007 44.29 46.5034 44.29C46.8674 44.29 47.1987 44.3227 47.4974 44.388C47.8054 44.444 48.0574 44.5093 48.2534 44.584L47.8054 45.9C47.6467 45.8533 47.4694 45.8113 47.2734 45.774C47.0867 45.7273 46.8814 45.704 46.6574 45.704C46.312 45.704 46.06 45.8113 45.9014 46.026C45.752 46.2313 45.6774 46.53 45.6774 46.922V47.412H47.5114V48.742ZM51.7967 47.272C52.7767 47.272 53.5187 47.4867 54.0227 47.916C54.536 48.3453 54.7927 49.008 54.7927 49.904V55H53.5467L53.1967 53.95H53.1407C52.814 54.3607 52.4687 54.664 52.1047 54.86C51.7407 55.0467 51.246 55.14 50.6207 55.14C49.9393 55.14 49.3747 54.9487 48.9267 54.566C48.4787 54.1833 48.2547 53.5907 48.2547 52.788C48.2547 52.004 48.5393 51.416 49.1087 51.024C49.6873 50.632 50.56 50.4127 51.7267 50.366L53.0427 50.324V49.946C53.0427 49.4607 52.926 49.1153 52.6927 48.91C52.4593 48.7047 52.1327 48.602 51.7127 48.602C51.33 48.602 50.9613 48.658 50.6067 48.77C50.2613 48.8727 49.916 49.0033 49.5707 49.162L49.0107 47.93C49.384 47.734 49.8087 47.5753 50.2847 47.454C50.77 47.3327 51.274 47.272 51.7967 47.272ZM53.0427 51.416L52.1187 51.444C51.344 51.472 50.8073 51.6073 50.5087 51.85C50.21 52.0833 50.0607 52.4007 50.0607 52.802C50.0607 53.166 50.1633 53.4273 50.3687 53.586C50.5833 53.7353 50.8633 53.81 51.2087 53.81C51.722 53.81 52.156 53.6653 52.5107 53.376C52.8653 53.0773 53.0427 52.6387 53.0427 52.06V51.416ZM63.7371 47.412V55H62.3511L62.1131 54.02H62.0291C61.7865 54.412 61.4505 54.6967 61.0211 54.874C60.5918 55.0513 60.1391 55.14 59.6631 55.14C58.8138 55.14 58.1465 54.9207 57.6611 54.482C57.1851 54.0433 56.9471 53.3387 56.9471 52.368V47.412H58.7111V52.018C58.7111 52.5873 58.8231 53.012 59.0471 53.292C59.2711 53.572 59.6258 53.712 60.1111 53.712C60.8205 53.712 61.3058 53.488 61.5671 53.04C61.8378 52.592 61.9731 51.9527 61.9731 51.122V47.412H63.7371ZM67.7496 55H65.9856V44.36H67.7496V55ZM72.9451 53.726C73.1598 53.726 73.3698 53.7073 73.5751 53.67C73.7898 53.6233 73.9858 53.572 74.1631 53.516V54.832C73.9764 54.9253 73.7338 55 73.4351 55.056C73.1364 55.112 72.8238 55.14 72.4971 55.14C72.0584 55.14 71.6618 55.07 71.3071 54.93C70.9618 54.79 70.6864 54.5427 70.4811 54.188C70.2758 53.8333 70.1731 53.334 70.1731 52.69V48.742H69.1511V47.972L70.2711 47.356L70.8311 45.746H71.9371V47.412H74.0931V48.742H71.9371V52.676C71.9371 53.0307 72.0304 53.2967 72.2171 53.474C72.4131 53.642 72.6558 53.726 72.9451 53.726Z" fill="black"/>
<rect width="904" height="188" transform="translate(24 100)" fill="white"/>
<path d="M327.746 152.68V139.828H329.366V151.24H334.982V152.68H327.746Z" fill="#323232"/>
<path d="M340.623 142.87C341.799 142.87 342.669 143.128 343.233 143.644C343.797 144.16 344.079 144.982 344.079 146.11V152.68H342.927L342.621 151.312H342.549C342.129 151.84 341.685 152.23 341.217 152.482C340.749 152.734 340.113 152.86 339.309 152.86C338.433 152.86 337.707 152.632 337.131 152.176C336.555 151.708 336.267 150.982 336.267 149.998C336.267 149.038 336.645 148.3 337.401 147.784C338.157 147.256 339.321 146.968 340.893 146.92L342.531 146.866V146.29C342.531 145.486 342.357 144.928 342.009 144.616C341.661 144.304 341.169 144.148 340.533 144.148C340.029 144.148 339.549 144.226 339.093 144.382C338.637 144.526 338.211 144.694 337.815 144.886L337.329 143.698C337.749 143.47 338.247 143.278 338.823 143.122C339.399 142.954 339.999 142.87 340.623 142.87ZM342.513 147.964L341.091 148.018C339.891 148.066 339.057 148.258 338.589 148.594C338.133 148.93 337.905 149.404 337.905 150.016C337.905 150.556 338.067 150.952 338.391 151.204C338.727 151.456 339.153 151.582 339.669 151.582C340.473 151.582 341.145 151.36 341.685 150.916C342.237 150.46 342.513 149.764 342.513 148.828V147.964Z" fill="#323232"/>
<path d="M348.643 139V142.33C348.643 142.738 348.631 143.122 348.607 143.482C348.595 143.83 348.577 144.106 348.553 144.31H348.643C348.919 143.902 349.297 143.56 349.777 143.284C350.257 143.008 350.875 142.87 351.631 142.87C352.831 142.87 353.791 143.29 354.511 144.13C355.243 144.958 355.609 146.2 355.609 147.856C355.609 149.512 355.243 150.76 354.511 151.6C353.779 152.44 352.819 152.86 351.631 152.86C350.875 152.86 350.257 152.722 349.777 152.446C349.297 152.17 348.919 151.84 348.643 151.456H348.517L348.193 152.68H347.059V139H348.643ZM351.361 144.184C350.329 144.184 349.615 144.478 349.219 145.066C348.835 145.654 348.643 146.566 348.643 147.802V147.874C348.643 149.062 348.835 149.974 349.219 150.61C349.615 151.234 350.341 151.546 351.397 151.546C352.261 151.546 352.903 151.228 353.323 150.592C353.755 149.956 353.971 149.038 353.971 147.838C353.971 145.402 353.101 144.184 351.361 144.184Z" fill="#323232"/>
<path d="M361.86 142.852C362.676 142.852 363.384 143.032 363.984 143.392C364.584 143.752 365.04 144.262 365.352 144.922C365.676 145.57 365.838 146.332 365.838 147.208V148.162H359.232C359.256 149.254 359.532 150.088 360.06 150.664C360.6 151.228 361.35 151.51 362.31 151.51C362.922 151.51 363.462 151.456 363.93 151.348C364.41 151.228 364.902 151.06 365.406 150.844V152.23C364.914 152.446 364.428 152.602 363.948 152.698C363.468 152.806 362.898 152.86 362.238 152.86C361.314 152.86 360.504 152.674 359.808 152.302C359.112 151.93 358.566 151.378 358.17 150.646C357.786 149.914 357.594 149.008 357.594 147.928C357.594 146.872 357.768 145.966 358.116 145.21C358.476 144.454 358.974 143.872 359.61 143.464C360.258 143.056 361.008 142.852 361.86 142.852ZM361.842 144.148C361.086 144.148 360.486 144.394 360.042 144.886C359.61 145.366 359.352 146.038 359.268 146.902H364.182C364.17 146.086 363.978 145.426 363.606 144.922C363.234 144.406 362.646 144.148 361.842 144.148Z" fill="#323232"/>
<path d="M369.878 152.68H368.294V139H369.878V152.68Z" fill="#323232"/>
<path d="M350.783 197.68H348.893V184.345H344.21V182.686H355.445V184.345H350.783V197.68Z" fill="black"/>
<path d="M360.324 186.214C361.276 186.214 362.102 186.424 362.802 186.844C363.502 187.264 364.034 187.859 364.398 188.629C364.776 189.385 364.965 190.274 364.965 191.296V192.409H357.258C357.286 193.683 357.608 194.656 358.224 195.328C358.854 195.986 359.729 196.315 360.849 196.315C361.563 196.315 362.193 196.252 362.739 196.126C363.299 195.986 363.873 195.79 364.461 195.538V197.155C363.887 197.407 363.32 197.589 362.76 197.701C362.2 197.827 361.535 197.89 360.765 197.89C359.687 197.89 358.742 197.673 357.93 197.239C357.118 196.805 356.481 196.161 356.019 195.307C355.571 194.453 355.347 193.396 355.347 192.136C355.347 190.904 355.55 189.847 355.956 188.965C356.376 188.083 356.957 187.404 357.699 186.928C358.455 186.452 359.33 186.214 360.324 186.214ZM360.303 187.726C359.421 187.726 358.721 188.013 358.203 188.587C357.699 189.147 357.398 189.931 357.3 190.939H363.033C363.019 189.987 362.795 189.217 362.361 188.629C361.927 188.027 361.241 187.726 360.303 187.726Z" fill="black"/>
<path d="M370.088 191.926L366.203 186.424H368.303L371.201 190.666L374.078 186.424H376.157L372.272 191.926L376.367 197.68H374.267L371.201 193.186L368.093 197.68H366.014L370.088 191.926Z" fill="black"/>
<path d="M382.295 196.378C382.575 196.378 382.862 196.357 383.156 196.315C383.45 196.273 383.688 196.217 383.87 196.147V197.554C383.674 197.652 383.394 197.729 383.03 197.785C382.666 197.855 382.316 197.89 381.98 197.89C381.392 197.89 380.846 197.792 380.342 197.596C379.852 197.386 379.453 197.029 379.145 196.525C378.837 196.021 378.683 195.314 378.683 194.404V187.852H377.087V186.97L378.704 186.235L379.439 183.841H380.531V186.424H383.786V187.852H380.531V194.362C380.531 195.048 380.692 195.559 381.014 195.895C381.35 196.217 381.777 196.378 382.295 196.378Z" fill="black"/>
<path d="M335.81 242.68L334.262 238.702H329.168L327.638 242.68H326L331.022 229.774H332.48L337.484 242.68H335.81ZM333.776 237.262L332.336 233.374C332.3 233.278 332.24 233.104 332.156 232.852C332.072 232.6 331.988 232.342 331.904 232.078C331.832 231.802 331.772 231.592 331.724 231.448C331.628 231.82 331.526 232.186 331.418 232.546C331.322 232.894 331.238 233.17 331.166 233.374L329.708 237.262H333.776Z" fill="#5E5E5E"/>
<path d="M342.446 242.86C341.246 242.86 340.286 242.446 339.566 241.618C338.846 240.778 338.486 239.53 338.486 237.874C338.486 236.218 338.846 234.97 339.566 234.13C340.298 233.278 341.264 232.852 342.464 232.852C343.208 232.852 343.814 232.99 344.282 233.266C344.762 233.542 345.152 233.878 345.452 234.274H345.56C345.536 234.118 345.512 233.89 345.488 233.59C345.464 233.278 345.452 233.032 345.452 232.852V229H347.036V242.68H345.758L345.524 241.384H345.452C345.164 241.792 344.78 242.14 344.3 242.428C343.82 242.716 343.202 242.86 342.446 242.86ZM342.698 241.546C343.718 241.546 344.432 241.27 344.84 240.718C345.26 240.154 345.47 239.308 345.47 238.18V237.892C345.47 236.692 345.272 235.774 344.876 235.138C344.48 234.49 343.748 234.166 342.68 234.166C341.828 234.166 341.186 234.508 340.754 235.192C340.334 235.864 340.124 236.77 340.124 237.91C340.124 239.062 340.334 239.956 340.754 240.592C341.186 241.228 341.834 241.546 342.698 241.546Z" fill="#5E5E5E"/>
<path d="M353.52 242.86C352.32 242.86 351.36 242.446 350.64 241.618C349.92 240.778 349.56 239.53 349.56 237.874C349.56 236.218 349.92 234.97 350.64 234.13C351.372 233.278 352.338 232.852 353.538 232.852C354.282 232.852 354.888 232.99 355.356 233.266C355.836 233.542 356.226 233.878 356.526 234.274H356.634C356.61 234.118 356.586 233.89 356.562 233.59C356.538 233.278 356.526 233.032 356.526 232.852V229H358.11V242.68H356.832L356.598 241.384H356.526C356.238 241.792 355.854 242.14 355.374 242.428C354.894 242.716 354.276 242.86 353.52 242.86ZM353.772 241.546C354.792 241.546 355.506 241.27 355.914 240.718C356.334 240.154 356.544 239.308 356.544 238.18V237.892C356.544 236.692 356.346 235.774 355.95 235.138C355.554 234.49 354.822 234.166 353.754 234.166C352.902 234.166 352.26 234.508 351.828 235.192C351.408 235.864 351.198 236.77 351.198 237.91C351.198 239.062 351.408 239.956 351.828 240.592C352.26 241.228 352.908 241.546 353.772 241.546Z" fill="#5E5E5E"/>
<path d="M361.985 229.414C362.225 229.414 362.435 229.498 362.615 229.666C362.807 229.822 362.903 230.074 362.903 230.422C362.903 230.77 362.807 231.028 362.615 231.196C362.435 231.352 362.225 231.43 361.985 231.43C361.721 231.43 361.499 231.352 361.319 231.196C361.139 231.028 361.049 230.77 361.049 230.422C361.049 230.074 361.139 229.822 361.319 229.666C361.499 229.498 361.721 229.414 361.985 229.414ZM362.759 233.032V242.68H361.175V233.032H362.759Z" fill="#5E5E5E"/>
<path d="M369.037 241.564C369.277 241.564 369.523 241.546 369.775 241.51C370.027 241.474 370.231 241.426 370.387 241.366V242.572C370.219 242.656 369.979 242.722 369.667 242.77C369.355 242.83 369.055 242.86 368.767 242.86C368.263 242.86 367.795 242.776 367.363 242.608C366.943 242.428 366.601 242.122 366.337 241.69C366.073 241.258 365.941 240.652 365.941 239.872V234.256H364.573V233.5L365.959 232.87L366.589 230.818H367.525V233.032H370.315V234.256H367.525V239.836C367.525 240.424 367.663 240.862 367.939 241.15C368.227 241.426 368.593 241.564 369.037 241.564Z" fill="#5E5E5E"/>
<path d="M373.129 229.414C373.369 229.414 373.579 229.498 373.759 229.666C373.951 229.822 374.047 230.074 374.047 230.422C374.047 230.77 373.951 231.028 373.759 231.196C373.579 231.352 373.369 231.43 373.129 231.43C372.865 231.43 372.643 231.352 372.463 231.196C372.283 231.028 372.193 230.77 372.193 230.422C372.193 230.074 372.283 229.822 372.463 229.666C372.643 229.498 372.865 229.414 373.129 229.414ZM373.903 233.032V242.68H372.319V233.032H373.903Z" fill="#5E5E5E"/>
<path d="M385.348 237.838C385.348 239.434 384.94 240.67 384.124 241.546C383.32 242.422 382.228 242.86 380.848 242.86C379.996 242.86 379.234 242.668 378.562 242.284C377.902 241.888 377.38 241.318 376.996 240.574C376.612 239.818 376.42 238.906 376.42 237.838C376.42 236.242 376.816 235.012 377.608 234.148C378.412 233.284 379.51 232.852 380.902 232.852C381.766 232.852 382.534 233.05 383.206 233.446C383.878 233.83 384.4 234.394 384.772 235.138C385.156 235.87 385.348 236.77 385.348 237.838ZM378.058 237.838C378.058 238.978 378.28 239.884 378.724 240.556C379.18 241.216 379.9 241.546 380.884 241.546C381.856 241.546 382.57 241.216 383.026 240.556C383.482 239.884 383.71 238.978 383.71 237.838C383.71 236.698 383.482 235.804 383.026 235.156C382.57 234.508 381.85 234.184 380.866 234.184C379.882 234.184 379.168 234.508 378.724 235.156C378.28 235.804 378.058 236.698 378.058 237.838Z" fill="#5E5E5E"/>
<path d="M392.502 232.852C393.654 232.852 394.524 233.134 395.112 233.698C395.7 234.262 395.994 235.162 395.994 236.398V242.68H394.428V236.506C394.428 234.958 393.708 234.184 392.268 234.184C391.2 234.184 390.462 234.484 390.054 235.084C389.646 235.684 389.442 236.548 389.442 237.676V242.68H387.858V233.032H389.136L389.37 234.346H389.46C389.772 233.842 390.204 233.47 390.756 233.23C391.308 232.978 391.89 232.852 392.502 232.852Z" fill="#5E5E5E"/>
<path d="M402.639 232.87C403.815 232.87 404.685 233.128 405.249 233.644C405.813 234.16 406.095 234.982 406.095 236.11V242.68H404.943L404.637 241.312H404.565C404.145 241.84 403.701 242.23 403.233 242.482C402.765 242.734 402.129 242.86 401.325 242.86C400.449 242.86 399.723 242.632 399.147 242.176C398.571 241.708 398.283 240.982 398.283 239.998C398.283 239.038 398.661 238.3 399.417 237.784C400.173 237.256 401.337 236.968 402.909 236.92L404.547 236.866V236.29C404.547 235.486 404.373 234.928 404.025 234.616C403.677 234.304 403.185 234.148 402.549 234.148C402.045 234.148 401.565 234.226 401.109 234.382C400.653 234.526 400.227 234.694 399.831 234.886L399.345 233.698C399.765 233.47 400.263 233.278 400.839 233.122C401.415 232.954 402.015 232.87 402.639 232.87ZM404.529 237.964L403.107 238.018C401.907 238.066 401.073 238.258 400.605 238.594C400.149 238.93 399.921 239.404 399.921 240.016C399.921 240.556 400.083 240.952 400.407 241.204C400.743 241.456 401.169 241.582 401.685 241.582C402.489 241.582 403.161 241.36 403.701 240.916C404.253 240.46 404.529 239.764 404.529 238.828V237.964Z" fill="#5E5E5E"/>
<path d="M410.659 242.68H409.075V229H410.659V242.68Z" fill="#5E5E5E"/>
<path d="M422.261 242.86C421.397 242.86 420.635 242.686 419.975 242.338C419.315 241.99 418.793 241.45 418.409 240.718C418.037 239.986 417.851 239.05 417.851 237.91C417.851 236.722 418.043 235.756 418.427 235.012C418.823 234.268 419.363 233.722 420.047 233.374C420.731 233.026 421.505 232.852 422.369 232.852C422.849 232.852 423.317 232.906 423.773 233.014C424.241 233.11 424.619 233.23 424.907 233.374L424.421 234.688C424.133 234.58 423.797 234.478 423.413 234.382C423.029 234.286 422.669 234.238 422.333 234.238C420.437 234.238 419.489 235.456 419.489 237.892C419.489 239.056 419.717 239.95 420.173 240.574C420.641 241.186 421.331 241.492 422.243 241.492C422.759 241.492 423.221 241.438 423.629 241.33C424.037 241.222 424.409 241.09 424.745 240.934V242.338C424.421 242.506 424.061 242.632 423.665 242.716C423.281 242.812 422.813 242.86 422.261 242.86Z" fill="#5E5E5E"/>
<path d="M435.428 237.838C435.428 239.434 435.02 240.67 434.204 241.546C433.4 242.422 432.308 242.86 430.928 242.86C430.076 242.86 429.314 242.668 428.642 242.284C427.982 241.888 427.46 241.318 427.076 240.574C426.692 239.818 426.5 238.906 426.5 237.838C426.5 236.242 426.896 235.012 427.688 234.148C428.492 233.284 429.59 232.852 430.982 232.852C431.846 232.852 432.614 233.05 433.286 233.446C433.958 233.83 434.48 234.394 434.852 235.138C435.236 235.87 435.428 236.77 435.428 237.838ZM428.138 237.838C428.138 238.978 428.36 239.884 428.804 240.556C429.26 241.216 429.98 241.546 430.964 241.546C431.936 241.546 432.65 241.216 433.106 240.556C433.562 239.884 433.79 238.978 433.79 237.838C433.79 236.698 433.562 235.804 433.106 235.156C432.65 234.508 431.93 234.184 430.946 234.184C429.962 234.184 429.248 234.508 428.804 235.156C428.36 235.804 428.138 236.698 428.138 237.838Z" fill="#5E5E5E"/>
<path d="M442.582 232.852C443.734 232.852 444.604 233.134 445.192 233.698C445.78 234.262 446.074 235.162 446.074 236.398V242.68H444.508V236.506C444.508 234.958 443.788 234.184 442.348 234.184C441.28 234.184 440.542 234.484 440.134 235.084C439.726 235.684 439.522 236.548 439.522 237.676V242.68H437.938V233.032H439.216L439.45 234.346H439.54C439.852 233.842 440.284 233.47 440.836 233.23C441.388 232.978 441.97 232.852 442.582 232.852Z" fill="#5E5E5E"/>
<path d="M452.287 241.564C452.527 241.564 452.773 241.546 453.025 241.51C453.277 241.474 453.481 241.426 453.637 241.366V242.572C453.469 242.656 453.229 242.722 452.917 242.77C452.605 242.83 452.305 242.86 452.017 242.86C451.513 242.86 451.045 242.776 450.613 242.608C450.193 242.428 449.851 242.122 449.587 241.69C449.323 241.258 449.191 240.652 449.191 239.872V234.256H447.823V233.5L449.209 232.87L449.839 230.818H450.775V233.032H453.565V234.256H450.775V239.836C450.775 240.424 450.913 240.862 451.189 241.15C451.477 241.426 451.843 241.564 452.287 241.564Z" fill="#5E5E5E"/>
<path d="M459.295 232.852C460.111 232.852 460.819 233.032 461.419 233.392C462.019 233.752 462.475 234.262 462.787 234.922C463.111 235.57 463.273 236.332 463.273 237.208V238.162H456.667C456.691 239.254 456.967 240.088 457.495 240.664C458.035 241.228 458.785 241.51 459.745 241.51C460.357 241.51 460.897 241.456 461.365 241.348C461.845 241.228 462.337 241.06 462.841 240.844V242.23C462.349 242.446 461.863 242.602 461.383 242.698C460.903 242.806 460.333 242.86 459.673 242.86C458.749 242.86 457.939 242.674 457.243 242.302C456.547 241.93 456.001 241.378 455.605 240.646C455.221 239.914 455.029 239.008 455.029 237.928C455.029 236.872 455.203 235.966 455.551 235.21C455.911 234.454 456.409 233.872 457.045 233.464C457.693 233.056 458.443 232.852 459.295 232.852ZM459.277 234.148C458.521 234.148 457.921 234.394 457.477 234.886C457.045 235.366 456.787 236.038 456.703 236.902H461.617C461.605 236.086 461.413 235.426 461.041 234.922C460.669 234.406 460.081 234.148 459.277 234.148Z" fill="#5E5E5E"/>
<path d="M470.373 232.852C471.525 232.852 472.395 233.134 472.983 233.698C473.571 234.262 473.865 235.162 473.865 236.398V242.68H472.299V236.506C472.299 234.958 471.579 234.184 470.139 234.184C469.071 234.184 468.333 234.484 467.925 235.084C467.517 235.684 467.313 236.548 467.313 237.676V242.68H465.729V233.032H467.007L467.241 234.346H467.331C467.643 233.842 468.075 233.47 468.627 233.23C469.179 232.978 469.761 232.852 470.373 232.852Z" fill="#5E5E5E"/>
<path d="M480.078 241.564C480.318 241.564 480.564 241.546 480.816 241.51C481.068 241.474 481.272 241.426 481.428 241.366V242.572C481.26 242.656 481.02 242.722 480.708 242.77C480.396 242.83 480.096 242.86 479.808 242.86C479.304 242.86 478.836 242.776 478.404 242.608C477.984 242.428 477.642 242.122 477.378 241.69C477.114 241.258 476.982 240.652 476.982 239.872V234.256H475.614V233.5L477 232.87L477.63 230.818H478.566V233.032H481.356V234.256H478.566V239.836C478.566 240.424 478.704 240.862 478.98 241.15C479.268 241.426 479.634 241.564 480.078 241.564Z" fill="#5E5E5E"/>
<path fill-rule="evenodd" clip-rule="evenodd" d="M623 164.68H329C328.172 164.68 327.5 165.352 327.5 166.18V214.18C327.5 215.009 328.172 215.68 329 215.68H623C623.828 215.68 624.5 215.009 624.5 214.18V166.18C624.5 165.352 623.828 164.68 623 164.68ZM329 163.18C327.343 163.18 326 164.523 326 166.18V214.18C326 215.837 327.343 217.18 329 217.18H623C624.657 217.18 626 215.837 626 214.18V166.18C626 164.523 624.657 163.18 623 163.18H329Z" fill="#939393"/>
<rect x="0.5" y="0.5" width="951" height="327" stroke="#C9C9C9"/>
</svg>
