<svg width="476" height="332" viewBox="0 0 476 332" fill="none" xmlns="http://www.w3.org/2000/svg">
<mask id="path-1-inside-1_8387_67751" fill="white">
<path d="M0 0H476V332H0V0Z"/>
</mask>
<path d="M0 0H476V332H0V0Z" fill="white"/>
<path d="M33.282 55H31.49V50.562H27.094V55H25.302V45.004H27.094V49.036H31.49V45.004H33.282V55ZM42.492 51.192C42.492 52.452 42.1654 53.4273 41.512 54.118C40.8587 54.7993 39.972 55.14 38.852 55.14C38.1614 55.14 37.5454 54.986 37.004 54.678C36.4627 54.37 36.038 53.922 35.73 53.334C35.422 52.746 35.268 52.032 35.268 51.192C35.268 49.932 35.59 48.966 36.234 48.294C36.8874 47.6127 37.774 47.272 38.894 47.272C39.594 47.272 40.2147 47.426 40.756 47.734C41.2974 48.0327 41.722 48.476 42.03 49.064C42.338 49.6427 42.492 50.352 42.492 51.192ZM37.074 51.192C37.074 51.9947 37.214 52.6153 37.494 53.054C37.7834 53.4927 38.2454 53.712 38.88 53.712C39.5054 53.712 39.9627 53.4927 40.252 53.054C40.5414 52.6153 40.686 51.9947 40.686 51.192C40.686 50.3893 40.5414 49.7733 40.252 49.344C39.9627 48.9147 39.5007 48.7 38.866 48.7C38.2314 48.7 37.774 48.9147 37.494 49.344C37.214 49.7733 37.074 50.3893 37.074 51.192ZM45.7922 55L42.9082 47.412H44.7702L46.2822 51.794C46.3849 52.0647 46.4735 52.3633 46.5482 52.69C46.6229 53.0167 46.6695 53.292 46.6882 53.516H46.7442C46.7722 53.2733 46.8282 52.9933 46.9122 52.676C46.9962 52.3587 47.0849 52.0647 47.1782 51.794L48.6902 47.412H50.5522L47.6682 55H45.7922ZM54.7368 47.272C55.7541 47.272 56.5568 47.5753 57.1448 48.182C57.7421 48.7887 58.0408 49.6333 58.0408 50.716V51.612H53.0288C53.0474 52.3027 53.2388 52.8393 53.6028 53.222C53.9668 53.5953 54.4708 53.782 55.1148 53.782C55.6001 53.782 56.0388 53.7353 56.4308 53.642C56.8228 53.5393 57.2241 53.3947 57.6348 53.208V54.622C57.2614 54.7993 56.8741 54.93 56.4728 55.014C56.0714 55.098 55.5908 55.14 55.0308 55.14C54.2841 55.14 53.6261 55 53.0568 54.72C52.4874 54.4307 52.0394 54.0013 51.7128 53.432C51.3954 52.8533 51.2368 52.13 51.2368 51.262C51.2368 49.9647 51.5541 48.9753 52.1888 48.294C52.8328 47.6127 53.6821 47.272 54.7368 47.272ZM54.7368 48.574C54.2608 48.574 53.8734 48.728 53.5748 49.036C53.2854 49.3347 53.1174 49.7827 53.0708 50.38H56.3328C56.3234 49.8573 56.1881 49.428 55.9268 49.092C55.6748 48.7467 55.2781 48.574 54.7368 48.574ZM63.7955 47.272C63.9169 47.272 64.0522 47.2813 64.2015 47.3C64.3509 47.3093 64.4722 47.3233 64.5655 47.342L64.4115 48.98C64.3182 48.9613 64.2015 48.9473 64.0615 48.938C63.9309 48.9193 63.8189 48.91 63.7255 48.91C63.3522 48.91 63.0022 48.9893 62.6755 49.148C62.3489 49.2973 62.0829 49.5307 61.8775 49.848C61.6815 50.1653 61.5835 50.5713 61.5835 51.066V55H59.8195V47.412H61.1775L61.4295 48.728H61.5135C61.7375 48.3267 62.0455 47.986 62.4375 47.706C62.8295 47.4167 63.2822 47.272 63.7955 47.272Z" fill="black"/>
<rect width="428" height="188" transform="translate(24 100)" fill="white"/>
<path d="M89.746 152.68V139.828H91.366V151.24H96.982V152.68H89.746Z" fill="#323232"/>
<path d="M102.623 142.87C103.799 142.87 104.669 143.128 105.233 143.644C105.797 144.16 106.079 144.982 106.079 146.11V152.68H104.927L104.621 151.312H104.549C104.129 151.84 103.685 152.23 103.217 152.482C102.749 152.734 102.113 152.86 101.309 152.86C100.433 152.86 99.7075 152.632 99.1315 152.176C98.5555 151.708 98.2675 150.982 98.2675 149.998C98.2675 149.038 98.6455 148.3 99.4015 147.784C100.157 147.256 101.321 146.968 102.893 146.92L104.531 146.866V146.29C104.531 145.486 104.357 144.928 104.009 144.616C103.661 144.304 103.169 144.148 102.533 144.148C102.029 144.148 101.549 144.226 101.093 144.382C100.637 144.526 100.211 144.694 99.8155 144.886L99.3295 143.698C99.7495 143.47 100.247 143.278 100.823 143.122C101.399 142.954 101.999 142.87 102.623 142.87ZM104.513 147.964L103.091 148.018C101.891 148.066 101.057 148.258 100.589 148.594C100.133 148.93 99.9055 149.404 99.9055 150.016C99.9055 150.556 100.067 150.952 100.391 151.204C100.727 151.456 101.153 151.582 101.669 151.582C102.473 151.582 103.145 151.36 103.685 150.916C104.237 150.46 104.513 149.764 104.513 148.828V147.964Z" fill="#323232"/>
<path d="M110.643 139V142.33C110.643 142.738 110.631 143.122 110.607 143.482C110.595 143.83 110.577 144.106 110.553 144.31H110.643C110.919 143.902 111.297 143.56 111.777 143.284C112.257 143.008 112.875 142.87 113.631 142.87C114.831 142.87 115.791 143.29 116.511 144.13C117.243 144.958 117.609 146.2 117.609 147.856C117.609 149.512 117.243 150.76 116.511 151.6C115.779 152.44 114.819 152.86 113.631 152.86C112.875 152.86 112.257 152.722 111.777 152.446C111.297 152.17 110.919 151.84 110.643 151.456H110.517L110.193 152.68H109.059V139H110.643ZM113.361 144.184C112.329 144.184 111.615 144.478 111.219 145.066C110.835 145.654 110.643 146.566 110.643 147.802V147.874C110.643 149.062 110.835 149.974 111.219 150.61C111.615 151.234 112.341 151.546 113.397 151.546C114.261 151.546 114.903 151.228 115.323 150.592C115.755 149.956 115.971 149.038 115.971 147.838C115.971 145.402 115.101 144.184 113.361 144.184Z" fill="#323232"/>
<path d="M123.86 142.852C124.676 142.852 125.384 143.032 125.984 143.392C126.584 143.752 127.04 144.262 127.352 144.922C127.676 145.57 127.838 146.332 127.838 147.208V148.162H121.232C121.256 149.254 121.532 150.088 122.06 150.664C122.6 151.228 123.35 151.51 124.31 151.51C124.922 151.51 125.462 151.456 125.93 151.348C126.41 151.228 126.902 151.06 127.406 150.844V152.23C126.914 152.446 126.428 152.602 125.948 152.698C125.468 152.806 124.898 152.86 124.238 152.86C123.314 152.86 122.504 152.674 121.808 152.302C121.112 151.93 120.566 151.378 120.17 150.646C119.786 149.914 119.594 149.008 119.594 147.928C119.594 146.872 119.768 145.966 120.116 145.21C120.476 144.454 120.974 143.872 121.61 143.464C122.258 143.056 123.008 142.852 123.86 142.852ZM123.842 144.148C123.086 144.148 122.486 144.394 122.042 144.886C121.61 145.366 121.352 146.038 121.268 146.902H126.182C126.17 146.086 125.978 145.426 125.606 144.922C125.234 144.406 124.646 144.148 123.842 144.148Z" fill="#323232"/>
<path d="M131.878 152.68H130.294V139H131.878V152.68Z" fill="#323232"/>
<path d="M112.783 197.68H110.893V184.345H106.21V182.686H117.445V184.345H112.783V197.68Z" fill="black"/>
<path d="M122.324 186.214C123.276 186.214 124.102 186.424 124.802 186.844C125.502 187.264 126.034 187.859 126.398 188.629C126.776 189.385 126.965 190.274 126.965 191.296V192.409H119.258C119.286 193.683 119.608 194.656 120.224 195.328C120.854 195.986 121.729 196.315 122.849 196.315C123.563 196.315 124.193 196.252 124.739 196.126C125.299 195.986 125.873 195.79 126.461 195.538V197.155C125.887 197.407 125.32 197.589 124.76 197.701C124.2 197.827 123.535 197.89 122.765 197.89C121.687 197.89 120.742 197.673 119.93 197.239C119.118 196.805 118.481 196.161 118.019 195.307C117.571 194.453 117.347 193.396 117.347 192.136C117.347 190.904 117.55 189.847 117.956 188.965C118.376 188.083 118.957 187.404 119.699 186.928C120.455 186.452 121.33 186.214 122.324 186.214ZM122.303 187.726C121.421 187.726 120.721 188.013 120.203 188.587C119.699 189.147 119.398 189.931 119.3 190.939H125.033C125.019 189.987 124.795 189.217 124.361 188.629C123.927 188.027 123.241 187.726 122.303 187.726Z" fill="black"/>
<path d="M132.088 191.926L128.203 186.424H130.303L133.201 190.666L136.078 186.424H138.157L134.272 191.926L138.367 197.68H136.267L133.201 193.186L130.093 197.68H128.014L132.088 191.926Z" fill="black"/>
<path d="M144.295 196.378C144.575 196.378 144.862 196.357 145.156 196.315C145.45 196.273 145.688 196.217 145.87 196.147V197.554C145.674 197.652 145.394 197.729 145.03 197.785C144.666 197.855 144.316 197.89 143.98 197.89C143.392 197.89 142.846 197.792 142.342 197.596C141.852 197.386 141.453 197.029 141.145 196.525C140.837 196.021 140.683 195.314 140.683 194.404V187.852H139.087V186.97L140.704 186.235L141.439 183.841H142.531V186.424H145.786V187.852H142.531V194.362C142.531 195.048 142.692 195.559 143.014 195.895C143.35 196.217 143.777 196.378 144.295 196.378Z" fill="black"/>
<path d="M358.769 190.199L363.794 185.174C364.019 184.949 364.019 184.574 363.794 184.349C363.569 184.124 363.194 184.124 362.969 184.349L358.019 189.374L352.994 184.349C352.769 184.124 352.394 184.124 352.169 184.349C351.944 184.574 351.944 184.949 352.169 185.174L357.194 190.199L352.169 195.224C351.944 195.449 351.944 195.824 352.169 196.049C352.244 196.124 352.394 196.199 352.544 196.199C352.694 196.199 352.844 196.124 352.919 196.049L358.019 190.949L363.044 195.974C363.119 196.049 363.269 196.124 363.419 196.124C363.569 196.124 363.719 196.049 363.794 195.974C364.019 195.749 364.019 195.374 363.794 195.149L358.769 190.199Z" fill="#5E5E5E"/>
<path d="M97.81 242.68L96.262 238.702H91.168L89.638 242.68H88L93.022 229.774H94.48L99.484 242.68H97.81ZM95.776 237.262L94.336 233.374C94.3 233.278 94.24 233.104 94.156 232.852C94.072 232.6 93.988 232.342 93.904 232.078C93.832 231.802 93.772 231.592 93.724 231.448C93.628 231.82 93.526 232.186 93.418 232.546C93.322 232.894 93.238 233.17 93.166 233.374L91.708 237.262H95.776Z" fill="#5E5E5E"/>
<path d="M104.446 242.86C103.246 242.86 102.286 242.446 101.566 241.618C100.846 240.778 100.486 239.53 100.486 237.874C100.486 236.218 100.846 234.97 101.566 234.13C102.298 233.278 103.264 232.852 104.464 232.852C105.208 232.852 105.814 232.99 106.282 233.266C106.762 233.542 107.152 233.878 107.452 234.274H107.56C107.536 234.118 107.512 233.89 107.488 233.59C107.464 233.278 107.452 233.032 107.452 232.852V229H109.036V242.68H107.758L107.524 241.384H107.452C107.164 241.792 106.78 242.14 106.3 242.428C105.82 242.716 105.202 242.86 104.446 242.86ZM104.698 241.546C105.718 241.546 106.432 241.27 106.84 240.718C107.26 240.154 107.47 239.308 107.47 238.18V237.892C107.47 236.692 107.272 235.774 106.876 235.138C106.48 234.49 105.748 234.166 104.68 234.166C103.828 234.166 103.186 234.508 102.754 235.192C102.334 235.864 102.124 236.77 102.124 237.91C102.124 239.062 102.334 239.956 102.754 240.592C103.186 241.228 103.834 241.546 104.698 241.546Z" fill="#5E5E5E"/>
<path d="M115.52 242.86C114.32 242.86 113.36 242.446 112.64 241.618C111.92 240.778 111.56 239.53 111.56 237.874C111.56 236.218 111.92 234.97 112.64 234.13C113.372 233.278 114.338 232.852 115.538 232.852C116.282 232.852 116.888 232.99 117.356 233.266C117.836 233.542 118.226 233.878 118.526 234.274H118.634C118.61 234.118 118.586 233.89 118.562 233.59C118.538 233.278 118.526 233.032 118.526 232.852V229H120.11V242.68H118.832L118.598 241.384H118.526C118.238 241.792 117.854 242.14 117.374 242.428C116.894 242.716 116.276 242.86 115.52 242.86ZM115.772 241.546C116.792 241.546 117.506 241.27 117.914 240.718C118.334 240.154 118.544 239.308 118.544 238.18V237.892C118.544 236.692 118.346 235.774 117.95 235.138C117.554 234.49 116.822 234.166 115.754 234.166C114.902 234.166 114.26 234.508 113.828 235.192C113.408 235.864 113.198 236.77 113.198 237.91C113.198 239.062 113.408 239.956 113.828 240.592C114.26 241.228 114.908 241.546 115.772 241.546Z" fill="#5E5E5E"/>
<path d="M123.985 229.414C124.225 229.414 124.435 229.498 124.615 229.666C124.807 229.822 124.903 230.074 124.903 230.422C124.903 230.77 124.807 231.028 124.615 231.196C124.435 231.352 124.225 231.43 123.985 231.43C123.721 231.43 123.499 231.352 123.319 231.196C123.139 231.028 123.049 230.77 123.049 230.422C123.049 230.074 123.139 229.822 123.319 229.666C123.499 229.498 123.721 229.414 123.985 229.414ZM124.759 233.032V242.68H123.175V233.032H124.759Z" fill="#5E5E5E"/>
<path d="M131.037 241.564C131.277 241.564 131.523 241.546 131.775 241.51C132.027 241.474 132.231 241.426 132.387 241.366V242.572C132.219 242.656 131.979 242.722 131.667 242.77C131.355 242.83 131.055 242.86 130.767 242.86C130.263 242.86 129.795 242.776 129.363 242.608C128.943 242.428 128.601 242.122 128.337 241.69C128.073 241.258 127.941 240.652 127.941 239.872V234.256H126.573V233.5L127.959 232.87L128.589 230.818H129.525V233.032H132.315V234.256H129.525V239.836C129.525 240.424 129.663 240.862 129.939 241.15C130.227 241.426 130.593 241.564 131.037 241.564Z" fill="#5E5E5E"/>
<path d="M135.129 229.414C135.369 229.414 135.579 229.498 135.759 229.666C135.951 229.822 136.047 230.074 136.047 230.422C136.047 230.77 135.951 231.028 135.759 231.196C135.579 231.352 135.369 231.43 135.129 231.43C134.865 231.43 134.643 231.352 134.463 231.196C134.283 231.028 134.193 230.77 134.193 230.422C134.193 230.074 134.283 229.822 134.463 229.666C134.643 229.498 134.865 229.414 135.129 229.414ZM135.903 233.032V242.68H134.319V233.032H135.903Z" fill="#5E5E5E"/>
<path d="M147.348 237.838C147.348 239.434 146.94 240.67 146.124 241.546C145.32 242.422 144.228 242.86 142.848 242.86C141.996 242.86 141.234 242.668 140.562 242.284C139.902 241.888 139.38 241.318 138.996 240.574C138.612 239.818 138.42 238.906 138.42 237.838C138.42 236.242 138.816 235.012 139.608 234.148C140.412 233.284 141.51 232.852 142.902 232.852C143.766 232.852 144.534 233.05 145.206 233.446C145.878 233.83 146.4 234.394 146.772 235.138C147.156 235.87 147.348 236.77 147.348 237.838ZM140.058 237.838C140.058 238.978 140.28 239.884 140.724 240.556C141.18 241.216 141.9 241.546 142.884 241.546C143.856 241.546 144.57 241.216 145.026 240.556C145.482 239.884 145.71 238.978 145.71 237.838C145.71 236.698 145.482 235.804 145.026 235.156C144.57 234.508 143.85 234.184 142.866 234.184C141.882 234.184 141.168 234.508 140.724 235.156C140.28 235.804 140.058 236.698 140.058 237.838Z" fill="#5E5E5E"/>
<path d="M154.502 232.852C155.654 232.852 156.524 233.134 157.112 233.698C157.7 234.262 157.994 235.162 157.994 236.398V242.68H156.428V236.506C156.428 234.958 155.708 234.184 154.268 234.184C153.2 234.184 152.462 234.484 152.054 235.084C151.646 235.684 151.442 236.548 151.442 237.676V242.68H149.858V233.032H151.136L151.37 234.346H151.46C151.772 233.842 152.204 233.47 152.756 233.23C153.308 232.978 153.89 232.852 154.502 232.852Z" fill="#5E5E5E"/>
<path d="M164.639 232.87C165.815 232.87 166.685 233.128 167.249 233.644C167.813 234.16 168.095 234.982 168.095 236.11V242.68H166.943L166.637 241.312H166.565C166.145 241.84 165.701 242.23 165.233 242.482C164.765 242.734 164.129 242.86 163.325 242.86C162.449 242.86 161.723 242.632 161.147 242.176C160.571 241.708 160.283 240.982 160.283 239.998C160.283 239.038 160.661 238.3 161.417 237.784C162.173 237.256 163.337 236.968 164.909 236.92L166.547 236.866V236.29C166.547 235.486 166.373 234.928 166.025 234.616C165.677 234.304 165.185 234.148 164.549 234.148C164.045 234.148 163.565 234.226 163.109 234.382C162.653 234.526 162.227 234.694 161.831 234.886L161.345 233.698C161.765 233.47 162.263 233.278 162.839 233.122C163.415 232.954 164.015 232.87 164.639 232.87ZM166.529 237.964L165.107 238.018C163.907 238.066 163.073 238.258 162.605 238.594C162.149 238.93 161.921 239.404 161.921 240.016C161.921 240.556 162.083 240.952 162.407 241.204C162.743 241.456 163.169 241.582 163.685 241.582C164.489 241.582 165.161 241.36 165.701 240.916C166.253 240.46 166.529 239.764 166.529 238.828V237.964Z" fill="#5E5E5E"/>
<path d="M172.659 242.68H171.075V229H172.659V242.68Z" fill="#5E5E5E"/>
<path d="M184.261 242.86C183.397 242.86 182.635 242.686 181.975 242.338C181.315 241.99 180.793 241.45 180.409 240.718C180.037 239.986 179.851 239.05 179.851 237.91C179.851 236.722 180.043 235.756 180.427 235.012C180.823 234.268 181.363 233.722 182.047 233.374C182.731 233.026 183.505 232.852 184.369 232.852C184.849 232.852 185.317 232.906 185.773 233.014C186.241 233.11 186.619 233.23 186.907 233.374L186.421 234.688C186.133 234.58 185.797 234.478 185.413 234.382C185.029 234.286 184.669 234.238 184.333 234.238C182.437 234.238 181.489 235.456 181.489 237.892C181.489 239.056 181.717 239.95 182.173 240.574C182.641 241.186 183.331 241.492 184.243 241.492C184.759 241.492 185.221 241.438 185.629 241.33C186.037 241.222 186.409 241.09 186.745 240.934V242.338C186.421 242.506 186.061 242.632 185.665 242.716C185.281 242.812 184.813 242.86 184.261 242.86Z" fill="#5E5E5E"/>
<path d="M197.428 237.838C197.428 239.434 197.02 240.67 196.204 241.546C195.4 242.422 194.308 242.86 192.928 242.86C192.076 242.86 191.314 242.668 190.642 242.284C189.982 241.888 189.46 241.318 189.076 240.574C188.692 239.818 188.5 238.906 188.5 237.838C188.5 236.242 188.896 235.012 189.688 234.148C190.492 233.284 191.59 232.852 192.982 232.852C193.846 232.852 194.614 233.05 195.286 233.446C195.958 233.83 196.48 234.394 196.852 235.138C197.236 235.87 197.428 236.77 197.428 237.838ZM190.138 237.838C190.138 238.978 190.36 239.884 190.804 240.556C191.26 241.216 191.98 241.546 192.964 241.546C193.936 241.546 194.65 241.216 195.106 240.556C195.562 239.884 195.79 238.978 195.79 237.838C195.79 236.698 195.562 235.804 195.106 235.156C194.65 234.508 193.93 234.184 192.946 234.184C191.962 234.184 191.248 234.508 190.804 235.156C190.36 235.804 190.138 236.698 190.138 237.838Z" fill="#5E5E5E"/>
<path d="M204.582 232.852C205.734 232.852 206.604 233.134 207.192 233.698C207.78 234.262 208.074 235.162 208.074 236.398V242.68H206.508V236.506C206.508 234.958 205.788 234.184 204.348 234.184C203.28 234.184 202.542 234.484 202.134 235.084C201.726 235.684 201.522 236.548 201.522 237.676V242.68H199.938V233.032H201.216L201.45 234.346H201.54C201.852 233.842 202.284 233.47 202.836 233.23C203.388 232.978 203.97 232.852 204.582 232.852Z" fill="#5E5E5E"/>
<path d="M214.287 241.564C214.527 241.564 214.773 241.546 215.025 241.51C215.277 241.474 215.481 241.426 215.637 241.366V242.572C215.469 242.656 215.229 242.722 214.917 242.77C214.605 242.83 214.305 242.86 214.017 242.86C213.513 242.86 213.045 242.776 212.613 242.608C212.193 242.428 211.851 242.122 211.587 241.69C211.323 241.258 211.191 240.652 211.191 239.872V234.256H209.823V233.5L211.209 232.87L211.839 230.818H212.775V233.032H215.565V234.256H212.775V239.836C212.775 240.424 212.913 240.862 213.189 241.15C213.477 241.426 213.843 241.564 214.287 241.564Z" fill="#5E5E5E"/>
<path d="M221.295 232.852C222.111 232.852 222.819 233.032 223.419 233.392C224.019 233.752 224.475 234.262 224.787 234.922C225.111 235.57 225.273 236.332 225.273 237.208V238.162H218.667C218.691 239.254 218.967 240.088 219.495 240.664C220.035 241.228 220.785 241.51 221.745 241.51C222.357 241.51 222.897 241.456 223.365 241.348C223.845 241.228 224.337 241.06 224.841 240.844V242.23C224.349 242.446 223.863 242.602 223.383 242.698C222.903 242.806 222.333 242.86 221.673 242.86C220.749 242.86 219.939 242.674 219.243 242.302C218.547 241.93 218.001 241.378 217.605 240.646C217.221 239.914 217.029 239.008 217.029 237.928C217.029 236.872 217.203 235.966 217.551 235.21C217.911 234.454 218.409 233.872 219.045 233.464C219.693 233.056 220.443 232.852 221.295 232.852ZM221.277 234.148C220.521 234.148 219.921 234.394 219.477 234.886C219.045 235.366 218.787 236.038 218.703 236.902H223.617C223.605 236.086 223.413 235.426 223.041 234.922C222.669 234.406 222.081 234.148 221.277 234.148Z" fill="#5E5E5E"/>
<path d="M232.373 232.852C233.525 232.852 234.395 233.134 234.983 233.698C235.571 234.262 235.865 235.162 235.865 236.398V242.68H234.299V236.506C234.299 234.958 233.579 234.184 232.139 234.184C231.071 234.184 230.333 234.484 229.925 235.084C229.517 235.684 229.313 236.548 229.313 237.676V242.68H227.729V233.032H229.007L229.241 234.346H229.331C229.643 233.842 230.075 233.47 230.627 233.23C231.179 232.978 231.761 232.852 232.373 232.852Z" fill="#5E5E5E"/>
<path d="M242.078 241.564C242.318 241.564 242.564 241.546 242.816 241.51C243.068 241.474 243.272 241.426 243.428 241.366V242.572C243.26 242.656 243.02 242.722 242.708 242.77C242.396 242.83 242.096 242.86 241.808 242.86C241.304 242.86 240.836 242.776 240.404 242.608C239.984 242.428 239.642 242.122 239.378 241.69C239.114 241.258 238.982 240.652 238.982 239.872V234.256H237.614V233.5L239 232.87L239.63 230.818H240.566V233.032H243.356V234.256H240.566V239.836C240.566 240.424 240.704 240.862 240.98 241.15C241.268 241.426 241.634 241.564 242.078 241.564Z" fill="#5E5E5E"/>
<path fill-rule="evenodd" clip-rule="evenodd" d="M385 164.68H91C90.1716 164.68 89.5 165.352 89.5 166.18V214.18C89.5 215.009 90.1716 215.68 91 215.68H385C385.828 215.68 386.5 215.009 386.5 214.18V166.18C386.5 165.352 385.828 164.68 385 164.68ZM91 163.18C89.3431 163.18 88 164.523 88 166.18V214.18C88 215.837 89.3431 217.18 91 217.18H385C386.657 217.18 388 215.837 388 214.18V166.18C388 164.523 386.657 163.18 385 163.18H91Z" fill="#939393"/>
<path d="M476 332V333H477V332H476ZM0 332H-1V333H0V332ZM475 0V332H477V0H475ZM476 331H0V333H476V331ZM1 332V0H-1V332H1Z" fill="#C9C9C9" mask="url(#path-1-inside-1_8387_67751)"/>
</svg>
