<svg width="300" height="110" viewBox="0 0 300 110" fill="none" xmlns="http://www.w3.org/2000/svg">
<path d="M1.746 13.68V0.828H3.366V12.24H8.982V13.68H1.746Z" fill="#323232"/>
<path d="M14.6235 3.87C15.7995 3.87 16.6695 4.128 17.2335 4.644C17.7975 5.16 18.0795 5.982 18.0795 7.11V13.68H16.9275L16.6215 12.312H16.5495C16.1295 12.84 15.6855 13.23 15.2175 13.482C14.7495 13.734 14.1135 13.86 13.3095 13.86C12.4335 13.86 11.7075 13.632 11.1315 13.176C10.5555 12.708 10.2675 11.982 10.2675 10.998C10.2675 10.038 10.6455 9.3 11.4015 8.784C12.1575 8.256 13.3215 7.968 14.8935 7.92L16.5315 7.866V7.29C16.5315 6.486 16.3575 5.928 16.0095 5.616C15.6615 5.304 15.1695 5.148 14.5335 5.148C14.0295 5.148 13.5495 5.226 13.0935 5.382C12.6375 5.526 12.2115 5.694 11.8155 5.886L11.3295 4.698C11.7495 4.47 12.2475 4.278 12.8235 4.122C13.3995 3.954 13.9995 3.87 14.6235 3.87ZM16.5135 8.964L15.0915 9.018C13.8915 9.066 13.0575 9.258 12.5895 9.594C12.1335 9.93 11.9055 10.404 11.9055 11.016C11.9055 11.556 12.0675 11.952 12.3915 12.204C12.7275 12.456 13.1535 12.582 13.6695 12.582C14.4735 12.582 15.1455 12.36 15.6855 11.916C16.2375 11.46 16.5135 10.764 16.5135 9.828V8.964Z" fill="#323232"/>
<path d="M22.6433 0V3.33C22.6433 3.738 22.6313 4.122 22.6073 4.482C22.5953 4.83 22.5773 5.106 22.5533 5.31H22.6433C22.9193 4.902 23.2973 4.56 23.7773 4.284C24.2573 4.008 24.8753 3.87 25.6313 3.87C26.8313 3.87 27.7913 4.29 28.5113 5.13C29.2433 5.958 29.6093 7.2 29.6093 8.856C29.6093 10.512 29.2433 11.76 28.5113 12.6C27.7793 13.44 26.8193 13.86 25.6313 13.86C24.8753 13.86 24.2573 13.722 23.7773 13.446C23.2973 13.17 22.9193 12.84 22.6433 12.456H22.5173L22.1933 13.68H21.0593V0H22.6433ZM25.3613 5.184C24.3293 5.184 23.6153 5.478 23.2193 6.066C22.8353 6.654 22.6433 7.566 22.6433 8.802V8.874C22.6433 10.062 22.8353 10.974 23.2193 11.61C23.6153 12.234 24.3413 12.546 25.3973 12.546C26.2613 12.546 26.9033 12.228 27.3233 11.592C27.7553 10.956 27.9713 10.038 27.9713 8.838C27.9713 6.402 27.1013 5.184 25.3613 5.184Z" fill="#323232"/>
<path d="M35.8595 3.852C36.6755 3.852 37.3835 4.032 37.9835 4.392C38.5835 4.752 39.0395 5.262 39.3515 5.922C39.6755 6.57 39.8375 7.332 39.8375 8.208V9.162H33.2315C33.2555 10.254 33.5315 11.088 34.0595 11.664C34.5995 12.228 35.3495 12.51 36.3095 12.51C36.9215 12.51 37.4615 12.456 37.9295 12.348C38.4095 12.228 38.9015 12.06 39.4055 11.844V13.23C38.9135 13.446 38.4275 13.602 37.9475 13.698C37.4675 13.806 36.8975 13.86 36.2375 13.86C35.3135 13.86 34.5035 13.674 33.8075 13.302C33.1115 12.93 32.5655 12.378 32.1695 11.646C31.7855 10.914 31.5935 10.008 31.5935 8.928C31.5935 7.872 31.7675 6.966 32.1155 6.21C32.4755 5.454 32.9735 4.872 33.6095 4.464C34.2575 4.056 35.0075 3.852 35.8595 3.852ZM35.8415 5.148C35.0855 5.148 34.4855 5.394 34.0415 5.886C33.6095 6.366 33.3515 7.038 33.2675 7.902H38.1815C38.1695 7.086 37.9775 6.426 37.6055 5.922C37.2335 5.406 36.6455 5.148 35.8415 5.148Z" fill="#323232"/>
<path d="M43.8777 13.68H42.2937V0H43.8777V13.68Z" fill="#323232"/>
<path d="M24.783 58.68H22.893V45.345H18.21V43.686H29.445V45.345H24.783V58.68Z" fill="black"/>
<path d="M34.3244 47.214C35.2764 47.214 36.1024 47.424 36.8024 47.844C37.5024 48.264 38.0344 48.859 38.3984 49.629C38.7764 50.385 38.9654 51.274 38.9654 52.296V53.409H31.2584C31.2864 54.683 31.6084 55.656 32.2244 56.328C32.8544 56.986 33.7294 57.315 34.8494 57.315C35.5634 57.315 36.1934 57.252 36.7394 57.126C37.2994 56.986 37.8734 56.79 38.4614 56.538V58.155C37.8874 58.407 37.3204 58.589 36.7604 58.701C36.2004 58.827 35.5354 58.89 34.7654 58.89C33.6874 58.89 32.7424 58.673 31.9304 58.239C31.1184 57.805 30.4814 57.161 30.0194 56.307C29.5714 55.453 29.3474 54.396 29.3474 53.136C29.3474 51.904 29.5504 50.847 29.9564 49.965C30.3764 49.083 30.9574 48.404 31.6994 47.928C32.4554 47.452 33.3304 47.214 34.3244 47.214ZM34.3034 48.726C33.4214 48.726 32.7214 49.013 32.2034 49.587C31.6994 50.147 31.3984 50.931 31.3004 51.939H37.0334C37.0194 50.987 36.7954 50.217 36.3614 49.629C35.9274 49.027 35.2414 48.726 34.3034 48.726Z" fill="black"/>
<path d="M44.0877 52.926L40.2027 47.424H42.3027L45.2007 51.666L48.0777 47.424H50.1567L46.2717 52.926L50.3667 58.68H48.2667L45.2007 54.186L42.0927 58.68H40.0137L44.0877 52.926Z" fill="black"/>
<path d="M56.295 57.378C56.575 57.378 56.862 57.357 57.156 57.315C57.45 57.273 57.688 57.217 57.87 57.147V58.554C57.674 58.652 57.394 58.729 57.03 58.785C56.666 58.855 56.316 58.89 55.98 58.89C55.392 58.89 54.846 58.792 54.342 58.596C53.852 58.386 53.453 58.029 53.145 57.525C52.837 57.021 52.683 56.314 52.683 55.404V48.852H51.087V47.97L52.704 47.235L53.439 44.841H54.531V47.424H57.786V48.852H54.531V55.362C54.531 56.048 54.692 56.559 55.014 56.895C55.35 57.217 55.777 57.378 56.295 57.378Z" fill="black"/>
<path d="M9.81 103.68L8.262 99.702H3.168L1.638 103.68H0L5.022 90.774H6.48L11.484 103.68H9.81ZM7.776 98.262L6.336 94.374C6.3 94.278 6.24 94.104 6.156 93.852C6.072 93.6 5.988 93.342 5.904 93.078C5.832 92.802 5.772 92.592 5.724 92.448C5.628 92.82 5.526 93.186 5.418 93.546C5.322 93.894 5.238 94.17 5.166 94.374L3.708 98.262H7.776Z" fill="#5E5E5E"/>
<path d="M16.4461 103.86C15.2461 103.86 14.2861 103.446 13.5661 102.618C12.8461 101.778 12.4861 100.53 12.4861 98.874C12.4861 97.218 12.8461 95.97 13.5661 95.13C14.2981 94.278 15.2641 93.852 16.4641 93.852C17.2081 93.852 17.8141 93.99 18.2821 94.266C18.7621 94.542 19.1521 94.878 19.4521 95.274H19.5601C19.5361 95.118 19.5121 94.89 19.4881 94.59C19.4641 94.278 19.4521 94.032 19.4521 93.852V90H21.0361V103.68H19.7581L19.5241 102.384H19.4521C19.1641 102.792 18.7801 103.14 18.3001 103.428C17.8201 103.716 17.2021 103.86 16.4461 103.86ZM16.6981 102.546C17.7181 102.546 18.4321 102.27 18.8401 101.718C19.2601 101.154 19.4701 100.308 19.4701 99.18V98.892C19.4701 97.692 19.2721 96.774 18.8761 96.138C18.4801 95.49 17.7481 95.166 16.6801 95.166C15.8281 95.166 15.1861 95.508 14.7541 96.192C14.3341 96.864 14.1241 97.77 14.1241 98.91C14.1241 100.062 14.3341 100.956 14.7541 101.592C15.1861 102.228 15.8341 102.546 16.6981 102.546Z" fill="#5E5E5E"/>
<path d="M27.5203 103.86C26.3203 103.86 25.3603 103.446 24.6403 102.618C23.9203 101.778 23.5603 100.53 23.5603 98.874C23.5603 97.218 23.9203 95.97 24.6403 95.13C25.3723 94.278 26.3383 93.852 27.5383 93.852C28.2823 93.852 28.8883 93.99 29.3563 94.266C29.8363 94.542 30.2263 94.878 30.5263 95.274H30.6343C30.6103 95.118 30.5863 94.89 30.5623 94.59C30.5383 94.278 30.5263 94.032 30.5263 93.852V90H32.1103V103.68H30.8323L30.5983 102.384H30.5263C30.2383 102.792 29.8543 103.14 29.3743 103.428C28.8943 103.716 28.2763 103.86 27.5203 103.86ZM27.7723 102.546C28.7923 102.546 29.5063 102.27 29.9143 101.718C30.3343 101.154 30.5443 100.308 30.5443 99.18V98.892C30.5443 97.692 30.3463 96.774 29.9503 96.138C29.5543 95.49 28.8223 95.166 27.7543 95.166C26.9023 95.166 26.2603 95.508 25.8283 96.192C25.4083 96.864 25.1983 97.77 25.1983 98.91C25.1983 100.062 25.4083 100.956 25.8283 101.592C26.2603 102.228 26.9083 102.546 27.7723 102.546Z" fill="#5E5E5E"/>
<path d="M35.9845 90.414C36.2245 90.414 36.4345 90.498 36.6145 90.666C36.8065 90.822 36.9025 91.074 36.9025 91.422C36.9025 91.77 36.8065 92.028 36.6145 92.196C36.4345 92.352 36.2245 92.43 35.9845 92.43C35.7205 92.43 35.4985 92.352 35.3185 92.196C35.1385 92.028 35.0485 91.77 35.0485 91.422C35.0485 91.074 35.1385 90.822 35.3185 90.666C35.4985 90.498 35.7205 90.414 35.9845 90.414ZM36.7585 94.032V103.68H35.1745V94.032H36.7585Z" fill="#5E5E5E"/>
<path d="M43.0372 102.564C43.2772 102.564 43.5232 102.546 43.7752 102.51C44.0272 102.474 44.2312 102.426 44.3872 102.366V103.572C44.2192 103.656 43.9792 103.722 43.6672 103.77C43.3552 103.83 43.0552 103.86 42.7672 103.86C42.2632 103.86 41.7952 103.776 41.3632 103.608C40.9432 103.428 40.6012 103.122 40.3372 102.69C40.0732 102.258 39.9412 101.652 39.9412 100.872V95.256H38.5732V94.5L39.9592 93.87L40.5892 91.818H41.5252V94.032H44.3152V95.256H41.5252V100.836C41.5252 101.424 41.6632 101.862 41.9392 102.15C42.2272 102.426 42.5932 102.564 43.0372 102.564Z" fill="#5E5E5E"/>
<path d="M47.1291 90.414C47.3691 90.414 47.5791 90.498 47.7591 90.666C47.9511 90.822 48.0471 91.074 48.0471 91.422C48.0471 91.77 47.9511 92.028 47.7591 92.196C47.5791 92.352 47.3691 92.43 47.1291 92.43C46.8651 92.43 46.6431 92.352 46.4631 92.196C46.2831 92.028 46.1931 91.77 46.1931 91.422C46.1931 91.074 46.2831 90.822 46.4631 90.666C46.6431 90.498 46.8651 90.414 47.1291 90.414ZM47.9031 94.032V103.68H46.3191V94.032H47.9031Z" fill="#5E5E5E"/>
<path d="M59.3477 98.838C59.3477 100.434 58.9397 101.67 58.1237 102.546C57.3197 103.422 56.2277 103.86 54.8477 103.86C53.9957 103.86 53.2337 103.668 52.5617 103.284C51.9017 102.888 51.3797 102.318 50.9957 101.574C50.6117 100.818 50.4197 99.906 50.4197 98.838C50.4197 97.242 50.8157 96.012 51.6077 95.148C52.4117 94.284 53.5097 93.852 54.9017 93.852C55.7657 93.852 56.5337 94.05 57.2057 94.446C57.8777 94.83 58.3997 95.394 58.7717 96.138C59.1557 96.87 59.3477 97.77 59.3477 98.838ZM52.0577 98.838C52.0577 99.978 52.2797 100.884 52.7237 101.556C53.1797 102.216 53.8997 102.546 54.8837 102.546C55.8557 102.546 56.5697 102.216 57.0257 101.556C57.4817 100.884 57.7097 99.978 57.7097 98.838C57.7097 97.698 57.4817 96.804 57.0257 96.156C56.5697 95.508 55.8497 95.184 54.8657 95.184C53.8817 95.184 53.1677 95.508 52.7237 96.156C52.2797 96.804 52.0577 97.698 52.0577 98.838Z" fill="#5E5E5E"/>
<path d="M66.5021 93.852C67.6541 93.852 68.5241 94.134 69.1121 94.698C69.7001 95.262 69.9941 96.162 69.9941 97.398V103.68H68.4281V97.506C68.4281 95.958 67.7081 95.184 66.2681 95.184C65.2001 95.184 64.4621 95.484 64.0541 96.084C63.6461 96.684 63.4421 97.548 63.4421 98.676V103.68H61.8581V94.032H63.1361L63.3701 95.346H63.4601C63.7721 94.842 64.2041 94.47 64.7561 94.23C65.3081 93.978 65.8901 93.852 66.5021 93.852Z" fill="#5E5E5E"/>
<path d="M76.6391 93.87C77.8151 93.87 78.6851 94.128 79.2491 94.644C79.8131 95.16 80.0951 95.982 80.0951 97.11V103.68H78.9431L78.6371 102.312H78.5651C78.1451 102.84 77.7011 103.23 77.2331 103.482C76.7651 103.734 76.1291 103.86 75.3251 103.86C74.4491 103.86 73.7231 103.632 73.1471 103.176C72.5711 102.708 72.2831 101.982 72.2831 100.998C72.2831 100.038 72.6611 99.3 73.4171 98.784C74.1731 98.256 75.3371 97.968 76.9091 97.92L78.5471 97.866V97.29C78.5471 96.486 78.3731 95.928 78.0251 95.616C77.6771 95.304 77.1851 95.148 76.5491 95.148C76.0451 95.148 75.5651 95.226 75.1091 95.382C74.6531 95.526 74.2271 95.694 73.8311 95.886L73.3451 94.698C73.7651 94.47 74.2631 94.278 74.8391 94.122C75.4151 93.954 76.0151 93.87 76.6391 93.87ZM78.5291 98.964L77.1071 99.018C75.9071 99.066 75.0731 99.258 74.6051 99.594C74.1491 99.93 73.9211 100.404 73.9211 101.016C73.9211 101.556 74.0831 101.952 74.4071 102.204C74.7431 102.456 75.1691 102.582 75.6851 102.582C76.4891 102.582 77.1611 102.36 77.7011 101.916C78.2531 101.46 78.5291 100.764 78.5291 99.828V98.964Z" fill="#5E5E5E"/>
<path d="M84.6589 103.68H83.0749V90H84.6589V103.68Z" fill="#5E5E5E"/>
<path d="M96.2613 103.86C95.3973 103.86 94.6353 103.686 93.9753 103.338C93.3153 102.99 92.7933 102.45 92.4093 101.718C92.0373 100.986 91.8513 100.05 91.8513 98.91C91.8513 97.722 92.0433 96.756 92.4273 96.012C92.8233 95.268 93.3633 94.722 94.0473 94.374C94.7313 94.026 95.5053 93.852 96.3693 93.852C96.8493 93.852 97.3173 93.906 97.7733 94.014C98.2413 94.11 98.6193 94.23 98.9073 94.374L98.4213 95.688C98.1333 95.58 97.7973 95.478 97.4133 95.382C97.0293 95.286 96.6693 95.238 96.3333 95.238C94.4373 95.238 93.4893 96.456 93.4893 98.892C93.4893 100.056 93.7173 100.95 94.1733 101.574C94.6413 102.186 95.3313 102.492 96.2433 102.492C96.7593 102.492 97.2213 102.438 97.6293 102.33C98.0373 102.222 98.4093 102.09 98.7453 101.934V103.338C98.4213 103.506 98.0613 103.632 97.6653 103.716C97.2813 103.812 96.8133 103.86 96.2613 103.86Z" fill="#5E5E5E"/>
<path d="M109.428 98.838C109.428 100.434 109.02 101.67 108.204 102.546C107.4 103.422 106.308 103.86 104.928 103.86C104.076 103.86 103.314 103.668 102.642 103.284C101.982 102.888 101.46 102.318 101.076 101.574C100.692 100.818 100.5 99.906 100.5 98.838C100.5 97.242 100.896 96.012 101.688 95.148C102.492 94.284 103.59 93.852 104.982 93.852C105.846 93.852 106.614 94.05 107.286 94.446C107.958 94.83 108.48 95.394 108.852 96.138C109.236 96.87 109.428 97.77 109.428 98.838ZM102.138 98.838C102.138 99.978 102.36 100.884 102.804 101.556C103.26 102.216 103.98 102.546 104.964 102.546C105.936 102.546 106.65 102.216 107.106 101.556C107.562 100.884 107.79 99.978 107.79 98.838C107.79 97.698 107.562 96.804 107.106 96.156C106.65 95.508 105.93 95.184 104.946 95.184C103.962 95.184 103.248 95.508 102.804 96.156C102.36 96.804 102.138 97.698 102.138 98.838Z" fill="#5E5E5E"/>
<path d="M116.582 93.852C117.734 93.852 118.604 94.134 119.192 94.698C119.78 95.262 120.074 96.162 120.074 97.398V103.68H118.508V97.506C118.508 95.958 117.788 95.184 116.348 95.184C115.28 95.184 114.542 95.484 114.134 96.084C113.726 96.684 113.522 97.548 113.522 98.676V103.68H111.938V94.032H113.216L113.45 95.346H113.54C113.852 94.842 114.284 94.47 114.836 94.23C115.388 93.978 115.97 93.852 116.582 93.852Z" fill="#5E5E5E"/>
<path d="M126.287 102.564C126.527 102.564 126.773 102.546 127.025 102.51C127.277 102.474 127.481 102.426 127.637 102.366V103.572C127.469 103.656 127.229 103.722 126.917 103.77C126.605 103.83 126.305 103.86 126.017 103.86C125.513 103.86 125.045 103.776 124.613 103.608C124.193 103.428 123.851 103.122 123.587 102.69C123.323 102.258 123.191 101.652 123.191 100.872V95.256H121.823V94.5L123.209 93.87L123.839 91.818H124.775V94.032H127.565V95.256H124.775V100.836C124.775 101.424 124.913 101.862 125.189 102.15C125.477 102.426 125.843 102.564 126.287 102.564Z" fill="#5E5E5E"/>
<path d="M133.295 93.852C134.111 93.852 134.819 94.032 135.419 94.392C136.019 94.752 136.475 95.262 136.787 95.922C137.111 96.57 137.273 97.332 137.273 98.208V99.162H130.667C130.691 100.254 130.967 101.088 131.495 101.664C132.035 102.228 132.785 102.51 133.745 102.51C134.357 102.51 134.897 102.456 135.365 102.348C135.845 102.228 136.337 102.06 136.841 101.844V103.23C136.349 103.446 135.863 103.602 135.383 103.698C134.903 103.806 134.333 103.86 133.673 103.86C132.749 103.86 131.939 103.674 131.243 103.302C130.547 102.93 130.001 102.378 129.605 101.646C129.221 100.914 129.029 100.008 129.029 98.928C129.029 97.872 129.203 96.966 129.551 96.21C129.911 95.454 130.409 94.872 131.045 94.464C131.693 94.056 132.443 93.852 133.295 93.852ZM133.277 95.148C132.521 95.148 131.921 95.394 131.477 95.886C131.045 96.366 130.787 97.038 130.703 97.902H135.617C135.605 97.086 135.413 96.426 135.041 95.922C134.669 95.406 134.081 95.148 133.277 95.148Z" fill="#5E5E5E"/>
<path d="M144.373 93.852C145.525 93.852 146.395 94.134 146.983 94.698C147.571 95.262 147.865 96.162 147.865 97.398V103.68H146.299V97.506C146.299 95.958 145.579 95.184 144.139 95.184C143.071 95.184 142.333 95.484 141.925 96.084C141.517 96.684 141.313 97.548 141.313 98.676V103.68H139.729V94.032H141.007L141.241 95.346H141.331C141.643 94.842 142.075 94.47 142.627 94.23C143.179 93.978 143.761 93.852 144.373 93.852Z" fill="#5E5E5E"/>
<path d="M154.078 102.564C154.318 102.564 154.564 102.546 154.816 102.51C155.068 102.474 155.272 102.426 155.428 102.366V103.572C155.26 103.656 155.02 103.722 154.708 103.77C154.396 103.83 154.096 103.86 153.808 103.86C153.304 103.86 152.836 103.776 152.404 103.608C151.984 103.428 151.642 103.122 151.378 102.69C151.114 102.258 150.982 101.652 150.982 100.872V95.256H149.614V94.5L151 93.87L151.63 91.818H152.566V94.032H155.356V95.256H152.566V100.836C152.566 101.424 152.704 101.862 152.98 102.15C153.268 102.426 153.634 102.564 154.078 102.564Z" fill="#5E5E5E"/>
<path fill-rule="evenodd" clip-rule="evenodd" d="M297 25.6802H3C2.17157 25.6802 1.5 26.3517 1.5 27.1802V75.1802C1.5 76.0086 2.17157 76.6802 3 76.6802H297C297.828 76.6802 298.5 76.0086 298.5 75.1802V27.1802C298.5 26.3517 297.828 25.6802 297 25.6802ZM3 24.1802C1.34315 24.1802 0 25.5233 0 27.1802V75.1802C0 76.837 1.34314 78.1802 3 78.1802H297C298.657 78.1802 300 76.837 300 75.1802V27.1802C300 25.5233 298.657 24.1802 297 24.1802H3Z" fill="#939393"/>
</svg>
