<svg width="303" height="127" viewBox="0 0 303 127" fill="none" xmlns="http://www.w3.org/2000/svg">
<path d="M54.164 14.64V6.07201H55.244V13.68H58.988V14.64H54.164ZM62.749 8.10001C63.533 8.10001 64.113 8.27201 64.489 8.61601C64.865 8.96001 65.053 9.50801 65.053 10.26V14.64H64.285L64.081 13.728H64.033C63.753 14.08 63.457 14.34 63.145 14.508C62.833 14.676 62.409 14.76 61.873 14.76C61.289 14.76 60.805 14.608 60.421 14.304C60.037 13.992 59.845 13.508 59.845 12.852C59.845 12.212 60.097 11.72 60.601 11.376C61.105 11.024 61.881 10.832 62.929 10.8L64.021 10.764V10.38C64.021 9.84401 63.905 9.47201 63.673 9.26401C63.441 9.05601 63.113 8.95201 62.689 8.95201C62.353 8.95201 62.033 9.00401 61.729 9.10801C61.425 9.20401 61.141 9.31601 60.877 9.44401L60.553 8.65201C60.833 8.50001 61.165 8.37201 61.549 8.26801C61.933 8.15601 62.333 8.10001 62.749 8.10001ZM64.009 11.496L63.061 11.532C62.261 11.564 61.705 11.692 61.393 11.916C61.089 12.14 60.937 12.456 60.937 12.864C60.937 13.224 61.045 13.488 61.261 13.656C61.485 13.824 61.769 13.908 62.113 13.908C62.649 13.908 63.097 13.76 63.457 13.464C63.825 13.16 64.009 12.696 64.009 12.072V11.496ZM68.0955 5.52001V7.74001C68.0955 8.01201 68.0875 8.26801 68.0715 8.50801C68.0635 8.74001 68.0515 8.92401 68.0355 9.06001H68.0955C68.2795 8.78801 68.5315 8.56001 68.8515 8.37601C69.1715 8.19201 69.5835 8.10001 70.0875 8.10001C70.8875 8.10001 71.5275 8.38001 72.0075 8.94001C72.4955 9.49201 72.7395 10.32 72.7395 11.424C72.7395 12.528 72.4955 13.36 72.0075 13.92C71.5195 14.48 70.8795 14.76 70.0875 14.76C69.5835 14.76 69.1715 14.668 68.8515 14.484C68.5315 14.3 68.2795 14.08 68.0955 13.824H68.0115L67.7955 14.64H67.0395V5.52001H68.0955ZM69.9075 8.97601C69.2195 8.97601 68.7435 9.17201 68.4795 9.56401C68.2235 9.95601 68.0955 10.564 68.0955 11.388V11.436C68.0955 12.228 68.2235 12.836 68.4795 13.26C68.7435 13.676 69.2275 13.884 69.9315 13.884C70.5075 13.884 70.9355 13.672 71.2155 13.248C71.5035 12.824 71.6475 12.212 71.6475 11.412C71.6475 9.78801 71.0675 8.97601 69.9075 8.97601ZM76.9063 8.08801C77.4503 8.08801 77.9223 8.20801 78.3223 8.44801C78.7223 8.68801 79.0263 9.02801 79.2343 9.46801C79.4503 9.90001 79.5583 10.408 79.5583 10.992V11.628H75.1543C75.1703 12.356 75.3543 12.912 75.7063 13.296C76.0663 13.672 76.5663 13.86 77.2063 13.86C77.6143 13.86 77.9743 13.824 78.2863 13.752C78.6063 13.672 78.9343 13.56 79.2703 13.416V14.34C78.9423 14.484 78.6183 14.588 78.2983 14.652C77.9783 14.724 77.5983 14.76 77.1583 14.76C76.5423 14.76 76.0023 14.636 75.5383 14.388C75.0743 14.14 74.7103 13.772 74.4463 13.284C74.1903 12.796 74.0623 12.192 74.0623 11.472C74.0623 10.768 74.1783 10.164 74.4103 9.66001C74.6503 9.15601 74.9823 8.76801 75.4063 8.49601C75.8383 8.22401 76.3383 8.08801 76.9063 8.08801ZM76.8943 8.95201C76.3903 8.95201 75.9903 9.11601 75.6943 9.44401C75.4063 9.76401 75.2343 10.212 75.1783 10.788H78.4543C78.4463 10.244 78.3183 9.80401 78.0703 9.46801C77.8223 9.12401 77.4303 8.95201 76.8943 8.95201ZM82.2518 14.64H81.1958V5.52001H82.2518V14.64Z" fill="#323232"/>
<rect x="53.5" y="22.14" width="199" height="35" rx="1.5" fill="white"/>
<path d="M69.522 44.64H68.262V35.75H65.14V34.644H72.63V35.75H69.522V44.64ZM75.8829 36.996C76.5176 36.996 77.0683 37.136 77.5349 37.416C78.0016 37.696 78.3563 38.0927 78.5989 38.606C78.8509 39.11 78.9769 39.7027 78.9769 40.384V41.126H73.8389C73.8576 41.9753 74.0723 42.624 74.4829 43.072C74.9029 43.5107 75.4863 43.73 76.2329 43.73C76.7089 43.73 77.1289 43.688 77.4929 43.604C77.8663 43.5107 78.2489 43.38 78.6409 43.212V44.29C78.2583 44.458 77.8803 44.5793 77.5069 44.654C77.1336 44.738 76.6903 44.78 76.1769 44.78C75.4583 44.78 74.8283 44.6353 74.2869 44.346C73.7456 44.0567 73.3209 43.6273 73.0129 43.058C72.7143 42.4887 72.5649 41.784 72.5649 40.944C72.5649 40.1227 72.7003 39.418 72.9709 38.83C73.2509 38.242 73.6383 37.7893 74.1329 37.472C74.6369 37.1547 75.2203 36.996 75.8829 36.996ZM75.8689 38.004C75.2809 38.004 74.8143 38.1953 74.4689 38.578C74.1329 38.9513 73.9323 39.474 73.8669 40.146H77.6889C77.6796 39.5113 77.5303 38.998 77.2409 38.606C76.9516 38.2047 76.4943 38.004 75.8689 38.004ZM82.3918 40.804L79.8018 37.136H81.2018L83.1338 39.964L85.0518 37.136H86.4378L83.8478 40.804L86.5778 44.64H85.1778L83.1338 41.644L81.0618 44.64H79.6758L82.3918 40.804ZM90.53 43.772C90.7167 43.772 90.908 43.758 91.104 43.73C91.3 43.702 91.4587 43.6647 91.58 43.618V44.556C91.4493 44.6213 91.2627 44.6727 91.02 44.71C90.7773 44.7567 90.544 44.78 90.32 44.78C89.928 44.78 89.564 44.7147 89.228 44.584C88.9013 44.444 88.6353 44.206 88.43 43.87C88.2247 43.534 88.122 43.0627 88.122 42.456V38.088H87.058V37.5L88.136 37.01L88.626 35.414H89.354V37.136H91.524V38.088H89.354V42.428C89.354 42.8853 89.4613 43.226 89.676 43.45C89.9 43.6647 90.1847 43.772 90.53 43.772Z" fill="black"/>
<rect x="53.5" y="22.14" width="199" height="35" rx="1.5" stroke="#939393"/>
<path d="M59.54 74.64L58.508 71.988H55.112L54.092 74.64H53L56.348 66.036H57.32L60.656 74.64H59.54ZM58.184 71.028L57.224 68.436C57.2 68.372 57.16 68.256 57.104 68.088C57.048 67.92 56.992 67.748 56.936 67.572C56.888 67.388 56.848 67.248 56.816 67.152C56.752 67.4 56.684 67.644 56.612 67.884C56.548 68.116 56.492 68.3 56.444 68.436L55.472 71.028H58.184ZM63.9641 74.76C63.1641 74.76 62.5241 74.484 62.0441 73.932C61.5641 73.372 61.3241 72.54 61.3241 71.436C61.3241 70.332 61.5641 69.5 62.0441 68.94C62.5321 68.372 63.1761 68.088 63.9761 68.088C64.4721 68.088 64.8761 68.18 65.1881 68.364C65.5081 68.548 65.7681 68.772 65.9681 69.036H66.0401C66.0241 68.932 66.0081 68.78 65.9921 68.58C65.9761 68.372 65.9681 68.208 65.9681 68.088V65.52H67.0241V74.64H66.1721L66.0161 73.776H65.9681C65.7761 74.048 65.5201 74.28 65.2001 74.472C64.8801 74.664 64.4681 74.76 63.9641 74.76ZM64.1321 73.884C64.8121 73.884 65.2881 73.7 65.5601 73.332C65.8401 72.956 65.9801 72.392 65.9801 71.64V71.448C65.9801 70.648 65.8481 70.036 65.5841 69.612C65.3201 69.18 64.8321 68.964 64.1201 68.964C63.5521 68.964 63.1241 69.192 62.8361 69.648C62.5561 70.096 62.4161 70.7 62.4161 71.46C62.4161 72.228 62.5561 72.824 62.8361 73.248C63.1241 73.672 63.5561 73.884 64.1321 73.884ZM71.3469 74.76C70.5469 74.76 69.9069 74.484 69.4269 73.932C68.9469 73.372 68.7069 72.54 68.7069 71.436C68.7069 70.332 68.9469 69.5 69.4269 68.94C69.9149 68.372 70.5589 68.088 71.3589 68.088C71.8549 68.088 72.2589 68.18 72.5709 68.364C72.8909 68.548 73.1509 68.772 73.3509 69.036H73.4229C73.4069 68.932 73.3909 68.78 73.3749 68.58C73.3589 68.372 73.3509 68.208 73.3509 68.088V65.52H74.4069V74.64H73.5549L73.3989 73.776H73.3509C73.1589 74.048 72.9029 74.28 72.5829 74.472C72.2629 74.664 71.8509 74.76 71.3469 74.76ZM71.5149 73.884C72.1949 73.884 72.6709 73.7 72.9429 73.332C73.2229 72.956 73.3629 72.392 73.3629 71.64V71.448C73.3629 70.648 73.2309 70.036 72.9669 69.612C72.7029 69.18 72.2149 68.964 71.5029 68.964C70.9349 68.964 70.5069 69.192 70.2189 69.648C69.9389 70.096 69.7989 70.7 69.7989 71.46C69.7989 72.228 69.9389 72.824 70.2189 73.248C70.5069 73.672 70.9389 73.884 71.5149 73.884ZM76.9897 65.796C77.1497 65.796 77.2897 65.852 77.4097 65.964C77.5377 66.068 77.6017 66.236 77.6017 66.468C77.6017 66.7 77.5377 66.872 77.4097 66.984C77.2897 67.088 77.1497 67.14 76.9897 67.14C76.8137 67.14 76.6657 67.088 76.5457 66.984C76.4257 66.872 76.3657 66.7 76.3657 66.468C76.3657 66.236 76.4257 66.068 76.5457 65.964C76.6657 65.852 76.8137 65.796 76.9897 65.796ZM77.5057 68.208V74.64H76.4497V68.208H77.5057ZM81.6914 73.896C81.8514 73.896 82.0154 73.884 82.1834 73.86C82.3514 73.836 82.4874 73.804 82.5914 73.764V74.568C82.4794 74.624 82.3194 74.668 82.1114 74.7C81.9034 74.74 81.7034 74.76 81.5114 74.76C81.1754 74.76 80.8634 74.704 80.5754 74.592C80.2954 74.472 80.0674 74.268 79.8914 73.98C79.7154 73.692 79.6274 73.288 79.6274 72.768V69.024H78.7154V68.52L79.6394 68.1L80.0594 66.732H80.6834V68.208H82.5434V69.024H80.6834V72.744C80.6834 73.136 80.7754 73.428 80.9594 73.62C81.1514 73.804 81.3954 73.896 81.6914 73.896ZM84.4194 65.796C84.5794 65.796 84.7194 65.852 84.8394 65.964C84.9674 66.068 85.0314 66.236 85.0314 66.468C85.0314 66.7 84.9674 66.872 84.8394 66.984C84.7194 67.088 84.5794 67.14 84.4194 67.14C84.2434 67.14 84.0954 67.088 83.9754 66.984C83.8554 66.872 83.7954 66.7 83.7954 66.468C83.7954 66.236 83.8554 66.068 83.9754 65.964C84.0954 65.852 84.2434 65.796 84.4194 65.796ZM84.9354 68.208V74.64H83.8794V68.208H84.9354ZM92.5651 71.412C92.5651 72.476 92.2931 73.3 91.7491 73.884C91.2131 74.468 90.4851 74.76 89.5651 74.76C88.9971 74.76 88.4891 74.632 88.0411 74.376C87.6011 74.112 87.2531 73.732 86.9971 73.236C86.7411 72.732 86.6131 72.124 86.6131 71.412C86.6131 70.348 86.8771 69.528 87.4051 68.952C87.9411 68.376 88.6731 68.088 89.6011 68.088C90.1771 68.088 90.6891 68.22 91.1371 68.484C91.5851 68.74 91.9331 69.116 92.1811 69.612C92.4371 70.1 92.5651 70.7 92.5651 71.412ZM87.7051 71.412C87.7051 72.172 87.8531 72.776 88.1491 73.224C88.4531 73.664 88.9331 73.884 89.5891 73.884C90.2371 73.884 90.7131 73.664 91.0171 73.224C91.3211 72.776 91.4731 72.172 91.4731 71.412C91.4731 70.652 91.3211 70.056 91.0171 69.624C90.7131 69.192 90.2331 68.976 89.5771 68.976C88.9211 68.976 88.4451 69.192 88.1491 69.624C87.8531 70.056 87.7051 70.652 87.7051 71.412ZM97.3348 68.088C98.1028 68.088 98.6828 68.276 99.0748 68.652C99.4668 69.028 99.6628 69.628 99.6628 70.452V74.64H98.6188V70.524C98.6188 69.492 98.1388 68.976 97.1788 68.976C96.4668 68.976 95.9748 69.176 95.7028 69.576C95.4308 69.976 95.2948 70.552 95.2948 71.304V74.64H94.2388V68.208H95.0908L95.2468 69.084H95.3068C95.5148 68.748 95.8028 68.5 96.1708 68.34C96.5388 68.172 96.9268 68.088 97.3348 68.088ZM104.093 68.1C104.877 68.1 105.457 68.272 105.833 68.616C106.209 68.96 106.397 69.508 106.397 70.26V74.64H105.629L105.425 73.728H105.377C105.097 74.08 104.801 74.34 104.489 74.508C104.177 74.676 103.753 74.76 103.217 74.76C102.633 74.76 102.149 74.608 101.765 74.304C101.381 73.992 101.189 73.508 101.189 72.852C101.189 72.212 101.441 71.72 101.945 71.376C102.449 71.024 103.225 70.832 104.273 70.8L105.365 70.764V70.38C105.365 69.844 105.249 69.472 105.017 69.264C104.785 69.056 104.457 68.952 104.033 68.952C103.697 68.952 103.377 69.004 103.073 69.108C102.769 69.204 102.485 69.316 102.221 69.444L101.897 68.652C102.177 68.5 102.509 68.372 102.893 68.268C103.277 68.156 103.677 68.1 104.093 68.1ZM105.353 71.496L104.405 71.532C103.605 71.564 103.049 71.692 102.737 71.916C102.433 72.14 102.281 72.456 102.281 72.864C102.281 73.224 102.389 73.488 102.605 73.656C102.829 73.824 103.113 73.908 103.457 73.908C103.993 73.908 104.441 73.76 104.801 73.464C105.169 73.16 105.353 72.696 105.353 72.072V71.496ZM109.439 74.64H108.383V65.52H109.439V74.64ZM117.174 74.76C116.598 74.76 116.09 74.644 115.65 74.412C115.21 74.18 114.862 73.82 114.606 73.332C114.358 72.844 114.234 72.22 114.234 71.46C114.234 70.668 114.362 70.024 114.618 69.528C114.882 69.032 115.242 68.668 115.698 68.436C116.154 68.204 116.67 68.088 117.246 68.088C117.566 68.088 117.878 68.124 118.182 68.196C118.494 68.26 118.746 68.34 118.938 68.436L118.614 69.312C118.422 69.24 118.198 69.172 117.942 69.108C117.686 69.044 117.446 69.012 117.222 69.012C115.958 69.012 115.326 69.824 115.326 71.448C115.326 72.224 115.478 72.82 115.782 73.236C116.094 73.644 116.554 73.848 117.162 73.848C117.506 73.848 117.814 73.812 118.086 73.74C118.358 73.668 118.606 73.58 118.83 73.476V74.412C118.614 74.524 118.374 74.608 118.11 74.664C117.854 74.728 117.542 74.76 117.174 74.76ZM125.952 71.412C125.952 72.476 125.68 73.3 125.136 73.884C124.6 74.468 123.872 74.76 122.952 74.76C122.384 74.76 121.876 74.632 121.428 74.376C120.988 74.112 120.64 73.732 120.384 73.236C120.128 72.732 120 72.124 120 71.412C120 70.348 120.264 69.528 120.792 68.952C121.328 68.376 122.06 68.088 122.988 68.088C123.564 68.088 124.076 68.22 124.524 68.484C124.972 68.74 125.32 69.116 125.568 69.612C125.824 70.1 125.952 70.7 125.952 71.412ZM121.092 71.412C121.092 72.172 121.24 72.776 121.536 73.224C121.84 73.664 122.32 73.884 122.976 73.884C123.624 73.884 124.1 73.664 124.404 73.224C124.708 72.776 124.86 72.172 124.86 71.412C124.86 70.652 124.708 70.056 124.404 69.624C124.1 69.192 123.62 68.976 122.964 68.976C122.308 68.976 121.832 69.192 121.536 69.624C121.24 70.056 121.092 70.652 121.092 71.412ZM130.721 68.088C131.489 68.088 132.069 68.276 132.461 68.652C132.853 69.028 133.049 69.628 133.049 70.452V74.64H132.005V70.524C132.005 69.492 131.525 68.976 130.565 68.976C129.853 68.976 129.361 69.176 129.089 69.576C128.817 69.976 128.681 70.552 128.681 71.304V74.64H127.625V68.208H128.477L128.633 69.084H128.693C128.901 68.748 129.189 68.5 129.557 68.34C129.925 68.172 130.313 68.088 130.721 68.088ZM137.191 73.896C137.351 73.896 137.515 73.884 137.683 73.86C137.851 73.836 137.987 73.804 138.091 73.764V74.568C137.979 74.624 137.819 74.668 137.611 74.7C137.403 74.74 137.203 74.76 137.011 74.76C136.675 74.76 136.363 74.704 136.075 74.592C135.795 74.472 135.567 74.268 135.391 73.98C135.215 73.692 135.127 73.288 135.127 72.768V69.024H134.215V68.52L135.139 68.1L135.559 66.732H136.183V68.208H138.043V69.024H136.183V72.744C136.183 73.136 136.275 73.428 136.459 73.62C136.651 73.804 136.895 73.896 137.191 73.896ZM141.863 68.088C142.407 68.088 142.879 68.208 143.279 68.448C143.679 68.688 143.983 69.028 144.191 69.468C144.407 69.9 144.515 70.408 144.515 70.992V71.628H140.111C140.127 72.356 140.311 72.912 140.663 73.296C141.023 73.672 141.523 73.86 142.163 73.86C142.571 73.86 142.931 73.824 143.243 73.752C143.563 73.672 143.891 73.56 144.227 73.416V74.34C143.899 74.484 143.575 74.588 143.255 74.652C142.935 74.724 142.555 74.76 142.115 74.76C141.499 74.76 140.959 74.636 140.495 74.388C140.031 74.14 139.667 73.772 139.403 73.284C139.147 72.796 139.019 72.192 139.019 71.472C139.019 70.768 139.135 70.164 139.367 69.66C139.607 69.156 139.939 68.768 140.363 68.496C140.795 68.224 141.295 68.088 141.863 68.088ZM141.851 68.952C141.347 68.952 140.947 69.116 140.651 69.444C140.363 69.764 140.191 70.212 140.135 70.788H143.411C143.403 70.244 143.275 69.804 143.027 69.468C142.779 69.124 142.387 68.952 141.851 68.952ZM149.249 68.088C150.017 68.088 150.597 68.276 150.989 68.652C151.381 69.028 151.577 69.628 151.577 70.452V74.64H150.533V70.524C150.533 69.492 150.053 68.976 149.093 68.976C148.381 68.976 147.889 69.176 147.617 69.576C147.345 69.976 147.209 70.552 147.209 71.304V74.64H146.153V68.208H147.005L147.161 69.084H147.221C147.429 68.748 147.717 68.5 148.085 68.34C148.453 68.172 148.841 68.088 149.249 68.088ZM155.719 73.896C155.879 73.896 156.043 73.884 156.211 73.86C156.379 73.836 156.515 73.804 156.619 73.764V74.568C156.507 74.624 156.347 74.668 156.139 74.7C155.931 74.74 155.731 74.76 155.539 74.76C155.203 74.76 154.891 74.704 154.603 74.592C154.323 74.472 154.095 74.268 153.919 73.98C153.743 73.692 153.655 73.288 153.655 72.768V69.024H152.743V68.52L153.667 68.1L154.087 66.732H154.711V68.208H156.571V69.024H154.711V72.744C154.711 73.136 154.803 73.428 154.987 73.62C155.179 73.804 155.423 73.896 155.719 73.896Z" fill="#5E5E5E"/>
<path d="M57 77V103" stroke="#E60074"/>
<circle cx="57" cy="115" r="12" fill="#E60074"/>
<path d="M61.2501 117.858H59.9481V120H58.2121V117.858H53.7601V116.542L58.2541 109.976H59.9481V116.416H61.2501V117.858ZM58.2121 116.416V114.176C58.2121 113.915 58.2168 113.644 58.2261 113.364C58.2355 113.075 58.2448 112.809 58.2541 112.566C58.2728 112.314 58.2868 112.123 58.2961 111.992H58.2401C58.1561 112.179 58.0628 112.365 57.9601 112.552C57.8668 112.729 57.7595 112.907 57.6381 113.084L55.3701 116.416H58.2121Z" fill="white"/>
<circle cx="12" cy="12" r="12" fill="#E60074"/>
<path d="M13.9681 17H12.2041V10.77C12.2041 10.4713 12.2088 10.154 12.2181 9.818C12.2275 9.482 12.2415 9.16933 12.2601 8.88C12.1668 8.97333 12.0501 9.08533 11.9101 9.216C11.7795 9.34667 11.6348 9.47267 11.4761 9.594L10.3561 10.49L9.47414 9.398L12.4981 7.004H13.9681V17Z" fill="white"/>
<path d="M24 12L53 12" stroke="#E60074"/>
<circle cx="12" cy="40" r="12" fill="#E60074"/>
<path d="M15.9421 45H9.09614V43.698L11.6441 41.122C12.1481 40.6087 12.5588 40.17 12.8761 39.806C13.2028 39.442 13.4408 39.1013 13.5901 38.784C13.7488 38.4573 13.8281 38.1073 13.8281 37.734C13.8281 37.2767 13.6975 36.936 13.4361 36.712C13.1841 36.4787 12.8388 36.362 12.4001 36.362C11.9801 36.362 11.5881 36.4507 11.2241 36.628C10.8601 36.796 10.4821 37.0387 10.0901 37.356L9.12414 36.194C9.53481 35.8393 9.99681 35.5313 10.5101 35.27C11.0328 34.9993 11.6955 34.864 12.4981 34.864C13.1421 34.864 13.6928 34.9807 14.1501 35.214C14.6168 35.438 14.9761 35.7553 15.2281 36.166C15.4801 36.5673 15.6061 37.0293 15.6061 37.552C15.6061 38.0933 15.4988 38.5927 15.2841 39.05C15.0695 39.498 14.7568 39.9507 14.3461 40.408C13.9448 40.856 13.4641 41.3413 12.9041 41.864L11.3221 43.39V43.474H15.9421V45Z" fill="white"/>
<path d="M24 40H65" stroke="#E60074"/>
<path d="M253 40H279" stroke="#E60074"/>
<circle cx="291" cy="40" r="12" fill="#E60074"/>
<path d="M294.55 37.286C294.55 37.9673 294.349 38.5133 293.948 38.924C293.556 39.3253 293.047 39.596 292.422 39.736V39.778C293.225 39.8807 293.831 40.1327 294.242 40.534C294.653 40.9353 294.858 41.4627 294.858 42.116C294.858 42.6947 294.718 43.2127 294.438 43.67C294.158 44.1273 293.724 44.4867 293.136 44.748C292.557 45.0093 291.811 45.14 290.896 45.14C290.345 45.14 289.837 45.0933 289.37 45C288.913 44.916 288.479 44.7807 288.068 44.594V43.04C288.488 43.2547 288.936 43.418 289.412 43.53C289.888 43.642 290.336 43.698 290.756 43.698C291.568 43.698 292.142 43.5533 292.478 43.264C292.814 42.9653 292.982 42.5547 292.982 42.032C292.982 41.5373 292.786 41.1687 292.394 40.926C292.002 40.6833 291.349 40.562 290.434 40.562H289.594V39.148H290.448C291.335 39.148 291.946 39.0033 292.282 38.714C292.618 38.4247 292.786 38.0513 292.786 37.594C292.786 37.1927 292.655 36.88 292.394 36.656C292.133 36.432 291.741 36.32 291.218 36.32C290.714 36.32 290.28 36.404 289.916 36.572C289.552 36.7307 289.225 36.9033 288.936 37.09L288.096 35.872C288.479 35.592 288.931 35.354 289.454 35.158C289.977 34.962 290.593 34.864 291.302 34.864C292.338 34.864 293.136 35.0833 293.696 35.522C294.265 35.9607 294.55 36.5487 294.55 37.286Z" fill="white"/>
</svg>
