<svg width="428" height="24" viewBox="0 0 428 24" fill="none" xmlns="http://www.w3.org/2000/svg">
<rect width="428" height="24" fill="white"/>
<rect x="202" width="24" height="24" rx="12" fill="#088A08"/>
<path fill-rule="evenodd" clip-rule="evenodd" d="M219.794 6.20589C219.189 5.60072 218.174 5.60072 217.568 6.20589L217.568 6.20669L216.978 6.7929L219.185 9.04036L219.794 8.43152C220.399 7.82635 220.399 6.81107 219.794 6.20589ZM218.653 9.57214L216.445 7.32307L209.222 14.5022C209.219 14.5066 209.216 14.5109 209.214 14.5153L211.462 16.7637L218.653 9.57214ZM210.741 17.106L208.894 15.2592L207.971 18.0295L210.741 17.106ZM217.037 5.67386C217.936 4.77529 219.427 4.77538 220.326 5.67414C221.225 6.57299 221.225 8.06442 220.326 8.96328L211.953 17.3357C211.817 17.4723 211.617 17.6065 211.405 17.6772L207.495 18.9807C207.36 19.0257 207.211 18.9906 207.11 18.8899C207.009 18.7892 206.974 18.6402 207.019 18.5051L208.323 14.5946C208.389 14.3955 208.514 14.2087 208.606 14.0711C208.61 14.0652 208.614 14.0594 208.617 14.0537C208.631 14.0328 208.647 14.0134 208.665 13.9956L217.037 5.67414C217.037 5.67405 217.037 5.67395 217.037 5.67386Z" fill="white"/>
</svg>
