<svg width="412" height="200" viewBox="0 0 412 200" fill="none" xmlns="http://www.w3.org/2000/svg">
<rect width="412" height="200" fill="white"/>
<path d="M74 74C74 67.3726 79.3726 62 86 62V62C92.6274 62 98 67.3726 98 74V74C98 80.6274 92.6274 86 86 86V86C79.3726 86 74 80.6274 74 74V74Z" fill="#2E8523"/>
<path d="M90.5625 67.5C90.3625 67.5 90.1625 67.65 90.1625 67.9V79.8C90.1625 80 90.3125 80.2 90.5625 80.2C90.8125 80.2 90.9625 80.05 90.9625 79.8V67.9C90.9125 67.65 90.7625 67.5 90.5625 67.5Z" fill="white"/>
<path d="M81.6625 67.95C81.5125 67.8 81.2625 67.8 81.1125 67.95C80.9625 68.1 80.9625 68.35 81.1125 68.5L86.4625 73.85L81.1125 79.15C80.9625 79.3 80.9625 79.55 81.1125 79.7C81.1625 79.75 81.2625 79.8 81.3625 79.8C81.4625 79.8 81.5625 79.75 81.6125 79.7L87.2125 74.1C87.2625 74.05 87.3125 73.95 87.3125 73.85C87.3125 73.75 87.2625 73.65 87.2125 73.6L81.6625 67.95Z" fill="white"/>
<path d="M106 74H146" stroke="#2E8523" stroke-width="2"/>
<path d="M72.5749 114.326C72.5749 115.213 72.2529 115.903 71.6089 116.398C70.9649 116.893 70.0969 117.14 69.0049 117.14C68.4449 117.14 67.9269 117.098 67.4509 117.014C66.9749 116.93 66.5782 116.813 66.2609 116.664V115.46C66.5969 115.609 67.0122 115.745 67.5069 115.866C68.0109 115.987 68.5289 116.048 69.0609 116.048C69.7982 116.048 70.3582 115.903 70.7409 115.614C71.1235 115.325 71.3149 114.933 71.3149 114.438C71.3149 114.111 71.2449 113.836 71.1049 113.612C70.9649 113.388 70.7222 113.183 70.3769 112.996C70.0315 112.809 69.5602 112.604 68.9629 112.38C68.1042 112.072 67.4602 111.694 67.0309 111.246C66.6015 110.798 66.3869 110.187 66.3869 109.412C66.3869 108.889 66.5222 108.437 66.7929 108.054C67.0635 107.671 67.4369 107.377 67.9129 107.172C68.3889 106.967 68.9442 106.864 69.5789 106.864C70.1202 106.864 70.6195 106.915 71.0769 107.018C71.5342 107.121 71.9542 107.256 72.3369 107.424L71.9449 108.502C71.5995 108.353 71.2215 108.227 70.8109 108.124C70.4002 108.021 69.9802 107.97 69.5509 107.97C68.9255 107.97 68.4542 108.105 68.1369 108.376C67.8195 108.637 67.6609 108.987 67.6609 109.426C67.6609 109.762 67.7309 110.042 67.8709 110.266C68.0109 110.49 68.2395 110.695 68.5569 110.882C68.8742 111.059 69.3035 111.246 69.8449 111.442C70.4329 111.657 70.9275 111.89 71.3289 112.142C71.7395 112.385 72.0475 112.679 72.2529 113.024C72.4675 113.369 72.5749 113.803 72.5749 114.326ZM76.9265 116.132C77.1131 116.132 77.3045 116.118 77.5005 116.09C77.6965 116.062 77.8551 116.025 77.9765 115.978V116.916C77.8458 116.981 77.6591 117.033 77.4165 117.07C77.1738 117.117 76.9405 117.14 76.7165 117.14C76.3245 117.14 75.9605 117.075 75.6245 116.944C75.2978 116.804 75.0318 116.566 74.8265 116.23C74.6211 115.894 74.5185 115.423 74.5185 114.816V110.448H73.4545V109.86L74.5325 109.37L75.0225 107.774H75.7505V109.496H77.9205V110.448H75.7505V114.788C75.7505 115.245 75.8578 115.586 76.0725 115.81C76.2965 116.025 76.5811 116.132 76.9265 116.132ZM82.3771 109.356C83.0117 109.356 83.5624 109.496 84.0291 109.776C84.4957 110.056 84.8504 110.453 85.0931 110.966C85.3451 111.47 85.4711 112.063 85.4711 112.744V113.486H80.3331C80.3517 114.335 80.5664 114.984 80.9771 115.432C81.3971 115.871 81.9804 116.09 82.7271 116.09C83.2031 116.09 83.6231 116.048 83.9871 115.964C84.3604 115.871 84.7431 115.74 85.1351 115.572V116.65C84.7524 116.818 84.3744 116.939 84.0011 117.014C83.6277 117.098 83.1844 117.14 82.6711 117.14C81.9524 117.14 81.3224 116.995 80.7811 116.706C80.2397 116.417 79.8151 115.987 79.5071 115.418C79.2084 114.849 79.0591 114.144 79.0591 113.304C79.0591 112.483 79.1944 111.778 79.4651 111.19C79.7451 110.602 80.1324 110.149 80.6271 109.832C81.1311 109.515 81.7144 109.356 82.3771 109.356ZM82.3631 110.364C81.7751 110.364 81.3084 110.555 80.9631 110.938C80.6271 111.311 80.4264 111.834 80.3611 112.506H84.1831C84.1737 111.871 84.0244 111.358 83.7351 110.966C83.4457 110.565 82.9884 110.364 82.3631 110.364ZM90.9514 109.356C91.8754 109.356 92.6174 109.678 93.1774 110.322C93.7467 110.966 94.0314 111.937 94.0314 113.234C94.0314 114.513 93.7467 115.483 93.1774 116.146C92.6174 116.809 91.8707 117.14 90.9374 117.14C90.3587 117.14 89.8781 117.033 89.4954 116.818C89.1221 116.603 88.8281 116.347 88.6134 116.048H88.5294C88.5387 116.207 88.5527 116.407 88.5714 116.65C88.5994 116.893 88.6134 117.103 88.6134 117.28V120.36H87.3814V109.496H88.3894L88.5574 110.518H88.6134C88.8374 110.191 89.1314 109.916 89.4954 109.692C89.8594 109.468 90.3447 109.356 90.9514 109.356ZM90.7274 110.392C89.9621 110.392 89.4207 110.607 89.1034 111.036C88.7861 111.465 88.6227 112.119 88.6134 112.996V113.234C88.6134 114.158 88.7627 114.872 89.0614 115.376C89.3694 115.871 89.9341 116.118 90.7554 116.118C91.2034 116.118 91.5767 115.997 91.8754 115.754C92.1741 115.502 92.3934 115.157 92.5334 114.718C92.6827 114.279 92.7574 113.78 92.7574 113.22C92.7574 112.361 92.5894 111.675 92.2534 111.162C91.9267 110.649 91.4181 110.392 90.7274 110.392ZM103.411 117H102.207V110.014C102.207 109.613 102.212 109.291 102.221 109.048C102.231 108.805 102.245 108.553 102.263 108.292C102.114 108.441 101.974 108.567 101.843 108.67C101.722 108.773 101.573 108.903 101.395 109.062L100.331 109.93L99.6874 109.104L102.389 107.004H103.411V117Z" fill="#151515"/>
<path d="M57.9545 130.704C57.9545 131.592 57.8025 132.368 57.4985 133.032C57.2025 133.688 56.7585 134.2 56.1665 134.568C55.5825 134.936 54.8625 135.12 54.0065 135.12C53.1185 135.12 52.3785 134.936 51.7865 134.568C51.2025 134.2 50.7665 133.684 50.4785 133.02C50.1905 132.356 50.0465 131.58 50.0465 130.692C50.0465 129.82 50.1905 129.056 50.4785 128.4C50.7665 127.736 51.2025 127.22 51.7865 126.852C52.3785 126.484 53.1225 126.3 54.0185 126.3C54.8745 126.3 55.5945 126.484 56.1785 126.852C56.7625 127.212 57.2025 127.724 57.4985 128.388C57.8025 129.044 57.9545 129.816 57.9545 130.704ZM51.1865 130.704C51.1865 131.784 51.4145 132.636 51.8705 133.26C52.3265 133.876 53.0385 134.184 54.0065 134.184C54.9745 134.184 55.6825 133.876 56.1305 133.26C56.5865 132.636 56.8145 131.784 56.8145 130.704C56.8145 129.624 56.5905 128.78 56.1425 128.172C55.6945 127.556 54.9865 127.248 54.0185 127.248C53.0425 127.248 52.3265 127.556 51.8705 128.172C51.4145 128.78 51.1865 129.624 51.1865 130.704ZM62.7695 128.448C63.5615 128.448 64.1975 128.724 64.6775 129.276C65.1655 129.828 65.4095 130.66 65.4095 131.772C65.4095 132.868 65.1655 133.7 64.6775 134.268C64.1975 134.836 63.5575 135.12 62.7575 135.12C62.2615 135.12 61.8495 135.028 61.5215 134.844C61.2015 134.66 60.9495 134.44 60.7655 134.184H60.6935C60.7015 134.32 60.7135 134.492 60.7295 134.7C60.7535 134.908 60.7655 135.088 60.7655 135.24V137.88H59.7095V128.568H60.5735L60.7175 129.444H60.7655C60.9575 129.164 61.2095 128.928 61.5215 128.736C61.8335 128.544 62.2495 128.448 62.7695 128.448ZM62.5775 129.336C61.9215 129.336 61.4575 129.52 61.1855 129.888C60.9135 130.256 60.7735 130.816 60.7655 131.568V131.772C60.7655 132.564 60.8935 133.176 61.1495 133.608C61.4135 134.032 61.8975 134.244 62.6015 134.244C62.9855 134.244 63.3055 134.14 63.5615 133.932C63.8175 133.716 64.0055 133.42 64.1255 133.044C64.2535 132.668 64.3175 132.24 64.3175 131.76C64.3175 131.024 64.1735 130.436 63.8855 129.996C63.6055 129.556 63.1695 129.336 62.5775 129.336ZM69.2403 134.256C69.4003 134.256 69.5643 134.244 69.7323 134.22C69.9003 134.196 70.0363 134.164 70.1403 134.124V134.928C70.0283 134.984 69.8683 135.028 69.6603 135.06C69.4523 135.1 69.2523 135.12 69.0603 135.12C68.7243 135.12 68.4123 135.064 68.1243 134.952C67.8443 134.832 67.6163 134.628 67.4403 134.34C67.2643 134.052 67.1763 133.648 67.1763 133.128V129.384H66.2643V128.88L67.1883 128.46L67.6083 127.092H68.2323V128.568H70.0923V129.384H68.2323V133.104C68.2323 133.496 68.3243 133.788 68.5083 133.98C68.7003 134.164 68.9443 134.256 69.2403 134.256ZM71.9682 126.156C72.1282 126.156 72.2682 126.212 72.3882 126.324C72.5162 126.428 72.5802 126.596 72.5802 126.828C72.5802 127.06 72.5162 127.232 72.3882 127.344C72.2682 127.448 72.1282 127.5 71.9682 127.5C71.7922 127.5 71.6442 127.448 71.5242 127.344C71.4042 127.232 71.3442 127.06 71.3442 126.828C71.3442 126.596 71.4042 126.428 71.5242 126.324C71.6442 126.212 71.7922 126.156 71.9682 126.156ZM72.4842 128.568V135H71.4282V128.568H72.4842ZM80.114 131.772C80.114 132.836 79.842 133.66 79.298 134.244C78.762 134.828 78.034 135.12 77.114 135.12C76.546 135.12 76.038 134.992 75.59 134.736C75.15 134.472 74.802 134.092 74.546 133.596C74.29 133.092 74.162 132.484 74.162 131.772C74.162 130.708 74.426 129.888 74.954 129.312C75.49 128.736 76.222 128.448 77.15 128.448C77.726 128.448 78.238 128.58 78.686 128.844C79.134 129.1 79.482 129.476 79.73 129.972C79.986 130.46 80.114 131.06 80.114 131.772ZM75.254 131.772C75.254 132.532 75.402 133.136 75.698 133.584C76.002 134.024 76.482 134.244 77.138 134.244C77.786 134.244 78.262 134.024 78.566 133.584C78.87 133.136 79.022 132.532 79.022 131.772C79.022 131.012 78.87 130.416 78.566 129.984C78.262 129.552 77.782 129.336 77.126 129.336C76.47 129.336 75.994 129.552 75.698 129.984C75.402 130.416 75.254 131.012 75.254 131.772ZM84.8836 128.448C85.6516 128.448 86.2316 128.636 86.6236 129.012C87.0156 129.388 87.2116 129.988 87.2116 130.812V135H86.1676V130.884C86.1676 129.852 85.6876 129.336 84.7276 129.336C84.0156 129.336 83.5236 129.536 83.2516 129.936C82.9796 130.336 82.8436 130.912 82.8436 131.664V135H81.7876V128.568H82.6396L82.7956 129.444H82.8556C83.0636 129.108 83.3516 128.86 83.7196 128.7C84.0876 128.532 84.4756 128.448 84.8836 128.448ZM91.6415 128.46C92.4255 128.46 93.0055 128.632 93.3815 128.976C93.7575 129.32 93.9455 129.868 93.9455 130.62V135H93.1775L92.9735 134.088H92.9255C92.6455 134.44 92.3495 134.7 92.0375 134.868C91.7255 135.036 91.3015 135.12 90.7655 135.12C90.1815 135.12 89.6975 134.968 89.3135 134.664C88.9295 134.352 88.7375 133.868 88.7375 133.212C88.7375 132.572 88.9895 132.08 89.4935 131.736C89.9975 131.384 90.7735 131.192 91.8215 131.16L92.9135 131.124V130.74C92.9135 130.204 92.7975 129.832 92.5655 129.624C92.3335 129.416 92.0055 129.312 91.5815 129.312C91.2455 129.312 90.9255 129.364 90.6215 129.468C90.3175 129.564 90.0335 129.676 89.7695 129.804L89.4455 129.012C89.7255 128.86 90.0575 128.732 90.4415 128.628C90.8255 128.516 91.2255 128.46 91.6415 128.46ZM92.9015 131.856L91.9535 131.892C91.1535 131.924 90.5975 132.052 90.2855 132.276C89.9815 132.5 89.8295 132.816 89.8295 133.224C89.8295 133.584 89.9375 133.848 90.1535 134.016C90.3775 134.184 90.6615 134.268 91.0055 134.268C91.5415 134.268 91.9895 134.12 92.3495 133.824C92.7175 133.52 92.9015 133.056 92.9015 132.432V131.856ZM96.9881 135H95.9321V125.88H96.9881V135ZM104.291 134.256C104.451 134.256 104.615 134.244 104.783 134.22C104.951 134.196 105.087 134.164 105.191 134.124V134.928C105.079 134.984 104.919 135.028 104.711 135.06C104.503 135.1 104.303 135.12 104.111 135.12C103.775 135.12 103.463 135.064 103.175 134.952C102.895 134.832 102.667 134.628 102.491 134.34C102.315 134.052 102.227 133.648 102.227 133.128V129.384H101.315V128.88L102.239 128.46L102.659 127.092H103.283V128.568H105.143V129.384H103.283V133.104C103.283 133.496 103.375 133.788 103.559 133.98C103.751 134.164 103.995 134.256 104.291 134.256ZM108.963 128.448C109.507 128.448 109.979 128.568 110.379 128.808C110.779 129.048 111.083 129.388 111.291 129.828C111.507 130.26 111.615 130.768 111.615 131.352V131.988H107.211C107.227 132.716 107.411 133.272 107.763 133.656C108.123 134.032 108.623 134.22 109.263 134.22C109.671 134.22 110.031 134.184 110.343 134.112C110.663 134.032 110.991 133.92 111.327 133.776V134.7C110.999 134.844 110.675 134.948 110.355 135.012C110.035 135.084 109.655 135.12 109.215 135.12C108.599 135.12 108.059 134.996 107.595 134.748C107.131 134.5 106.767 134.132 106.503 133.644C106.247 133.156 106.119 132.552 106.119 131.832C106.119 131.128 106.235 130.524 106.467 130.02C106.707 129.516 107.039 129.128 107.463 128.856C107.895 128.584 108.395 128.448 108.963 128.448ZM108.951 129.312C108.447 129.312 108.047 129.476 107.751 129.804C107.463 130.124 107.291 130.572 107.235 131.148H110.511C110.503 130.604 110.375 130.164 110.127 129.828C109.879 129.484 109.487 129.312 108.951 129.312ZM114.542 131.712L112.322 128.568H113.522L115.178 130.992L116.822 128.568H118.01L115.79 131.712L118.13 135H116.93L115.178 132.432L113.402 135H112.214L114.542 131.712ZM121.518 134.256C121.678 134.256 121.842 134.244 122.01 134.22C122.178 134.196 122.314 134.164 122.418 134.124V134.928C122.306 134.984 122.146 135.028 121.938 135.06C121.73 135.1 121.53 135.12 121.338 135.12C121.002 135.12 120.69 135.064 120.402 134.952C120.122 134.832 119.894 134.628 119.718 134.34C119.542 134.052 119.454 133.648 119.454 133.128V129.384H118.542V128.88L119.466 128.46L119.886 127.092H120.51V128.568H122.37V129.384H120.51V133.104C120.51 133.496 120.602 133.788 120.786 133.98C120.978 134.164 121.222 134.256 121.518 134.256Z" fill="#575757"/>
<path d="M146 74H186" stroke="#2E8523" stroke-width="2"/>
<path d="M194 74C194 67.3726 199.373 62 206 62V62C212.627 62 218 67.3726 218 74V74C218 80.6274 212.627 86 206 86V86C199.373 86 194 80.6274 194 74V74Z" fill="#2E8523"/>
<path fill-rule="evenodd" clip-rule="evenodd" d="M207.708 69.1113C207.854 68.964 208.091 68.9627 208.239 69.1084L212.839 73.6584C212.91 73.7286 212.95 73.8242 212.95 73.924C212.95 74.0238 212.911 74.1196 212.84 74.1902L208.24 78.7902C208.094 78.9366 207.856 78.9366 207.71 78.7902C207.563 78.6437 207.563 78.4063 207.71 78.2598L211.67 74.3H199.875C199.668 74.3 199.5 74.1321 199.5 73.925C199.5 73.7179 199.668 73.55 199.875 73.55H211.663L207.711 69.6416C207.564 69.496 207.563 69.2585 207.708 69.1113Z" fill="white"/>
<path d="M226 74H266" stroke="#2E8523" stroke-width="2"/>
<path d="M192.575 114.326C192.575 115.213 192.253 115.903 191.609 116.398C190.965 116.893 190.097 117.14 189.005 117.14C188.445 117.14 187.927 117.098 187.451 117.014C186.975 116.93 186.578 116.813 186.261 116.664V115.46C186.597 115.609 187.012 115.745 187.507 115.866C188.011 115.987 188.529 116.048 189.061 116.048C189.798 116.048 190.358 115.903 190.741 115.614C191.124 115.325 191.315 114.933 191.315 114.438C191.315 114.111 191.245 113.836 191.105 113.612C190.965 113.388 190.722 113.183 190.377 112.996C190.032 112.809 189.56 112.604 188.963 112.38C188.104 112.072 187.46 111.694 187.031 111.246C186.602 110.798 186.387 110.187 186.387 109.412C186.387 108.889 186.522 108.437 186.793 108.054C187.064 107.671 187.437 107.377 187.913 107.172C188.389 106.967 188.944 106.864 189.579 106.864C190.12 106.864 190.62 106.915 191.077 107.018C191.534 107.121 191.954 107.256 192.337 107.424L191.945 108.502C191.6 108.353 191.222 108.227 190.811 108.124C190.4 108.021 189.98 107.97 189.551 107.97C188.926 107.97 188.454 108.105 188.137 108.376C187.82 108.637 187.661 108.987 187.661 109.426C187.661 109.762 187.731 110.042 187.871 110.266C188.011 110.49 188.24 110.695 188.557 110.882C188.874 111.059 189.304 111.246 189.845 111.442C190.433 111.657 190.928 111.89 191.329 112.142C191.74 112.385 192.048 112.679 192.253 113.024C192.468 113.369 192.575 113.803 192.575 114.326ZM196.926 116.132C197.113 116.132 197.304 116.118 197.5 116.09C197.696 116.062 197.855 116.025 197.976 115.978V116.916C197.846 116.981 197.659 117.033 197.416 117.07C197.174 117.117 196.94 117.14 196.716 117.14C196.324 117.14 195.96 117.075 195.624 116.944C195.298 116.804 195.032 116.566 194.826 116.23C194.621 115.894 194.518 115.423 194.518 114.816V110.448H193.454V109.86L194.532 109.37L195.022 107.774H195.75V109.496H197.92V110.448H195.75V114.788C195.75 115.245 195.858 115.586 196.072 115.81C196.296 116.025 196.581 116.132 196.926 116.132ZM202.377 109.356C203.012 109.356 203.562 109.496 204.029 109.776C204.496 110.056 204.85 110.453 205.093 110.966C205.345 111.47 205.471 112.063 205.471 112.744V113.486H200.333C200.352 114.335 200.566 114.984 200.977 115.432C201.397 115.871 201.98 116.09 202.727 116.09C203.203 116.09 203.623 116.048 203.987 115.964C204.36 115.871 204.743 115.74 205.135 115.572V116.65C204.752 116.818 204.374 116.939 204.001 117.014C203.628 117.098 203.184 117.14 202.671 117.14C201.952 117.14 201.322 116.995 200.781 116.706C200.24 116.417 199.815 115.987 199.507 115.418C199.208 114.849 199.059 114.144 199.059 113.304C199.059 112.483 199.194 111.778 199.465 111.19C199.745 110.602 200.132 110.149 200.627 109.832C201.131 109.515 201.714 109.356 202.377 109.356ZM202.363 110.364C201.775 110.364 201.308 110.555 200.963 110.938C200.627 111.311 200.426 111.834 200.361 112.506H204.183C204.174 111.871 204.024 111.358 203.735 110.966C203.446 110.565 202.988 110.364 202.363 110.364ZM210.951 109.356C211.875 109.356 212.617 109.678 213.177 110.322C213.747 110.966 214.031 111.937 214.031 113.234C214.031 114.513 213.747 115.483 213.177 116.146C212.617 116.809 211.871 117.14 210.937 117.14C210.359 117.14 209.878 117.033 209.495 116.818C209.122 116.603 208.828 116.347 208.613 116.048H208.529C208.539 116.207 208.553 116.407 208.571 116.65C208.599 116.893 208.613 117.103 208.613 117.28V120.36H207.381V109.496H208.389L208.557 110.518H208.613C208.837 110.191 209.131 109.916 209.495 109.692C209.859 109.468 210.345 109.356 210.951 109.356ZM210.727 110.392C209.962 110.392 209.421 110.607 209.103 111.036C208.786 111.465 208.623 112.119 208.613 112.996V113.234C208.613 114.158 208.763 114.872 209.061 115.376C209.369 115.871 209.934 116.118 210.755 116.118C211.203 116.118 211.577 115.997 211.875 115.754C212.174 115.502 212.393 115.157 212.533 114.718C212.683 114.279 212.757 113.78 212.757 113.22C212.757 112.361 212.589 111.675 212.253 111.162C211.927 110.649 211.418 110.392 210.727 110.392ZM225.721 117H219.113V115.978L221.731 113.332C222.226 112.828 222.646 112.38 222.991 111.988C223.346 111.596 223.612 111.213 223.789 110.84C223.967 110.467 224.055 110.051 224.055 109.594C224.055 109.043 223.892 108.628 223.565 108.348C223.239 108.059 222.814 107.914 222.291 107.914C221.797 107.914 221.367 107.998 221.003 108.166C220.639 108.334 220.266 108.567 219.883 108.866L219.225 108.04C219.617 107.713 220.065 107.438 220.569 107.214C221.083 106.981 221.657 106.864 222.291 106.864C223.225 106.864 223.962 107.102 224.503 107.578C225.045 108.054 225.315 108.703 225.315 109.524C225.315 110.047 225.208 110.537 224.993 110.994C224.779 111.451 224.48 111.904 224.097 112.352C223.715 112.8 223.267 113.271 222.753 113.766L220.667 115.824V115.88H225.721V117Z" fill="#151515"/>
<path d="M177.954 130.704C177.954 131.592 177.802 132.368 177.498 133.032C177.202 133.688 176.758 134.2 176.166 134.568C175.582 134.936 174.862 135.12 174.006 135.12C173.118 135.12 172.378 134.936 171.786 134.568C171.202 134.2 170.766 133.684 170.478 133.02C170.19 132.356 170.046 131.58 170.046 130.692C170.046 129.82 170.19 129.056 170.478 128.4C170.766 127.736 171.202 127.22 171.786 126.852C172.378 126.484 173.122 126.3 174.018 126.3C174.874 126.3 175.594 126.484 176.178 126.852C176.762 127.212 177.202 127.724 177.498 128.388C177.802 129.044 177.954 129.816 177.954 130.704ZM171.186 130.704C171.186 131.784 171.414 132.636 171.87 133.26C172.326 133.876 173.038 134.184 174.006 134.184C174.974 134.184 175.682 133.876 176.13 133.26C176.586 132.636 176.814 131.784 176.814 130.704C176.814 129.624 176.59 128.78 176.142 128.172C175.694 127.556 174.986 127.248 174.018 127.248C173.042 127.248 172.326 127.556 171.87 128.172C171.414 128.78 171.186 129.624 171.186 130.704ZM182.769 128.448C183.561 128.448 184.197 128.724 184.677 129.276C185.165 129.828 185.409 130.66 185.409 131.772C185.409 132.868 185.165 133.7 184.677 134.268C184.197 134.836 183.557 135.12 182.757 135.12C182.261 135.12 181.849 135.028 181.521 134.844C181.201 134.66 180.949 134.44 180.765 134.184H180.693C180.701 134.32 180.713 134.492 180.729 134.7C180.753 134.908 180.765 135.088 180.765 135.24V137.88H179.709V128.568H180.573L180.717 129.444H180.765C180.957 129.164 181.209 128.928 181.521 128.736C181.833 128.544 182.249 128.448 182.769 128.448ZM182.577 129.336C181.921 129.336 181.457 129.52 181.185 129.888C180.913 130.256 180.773 130.816 180.765 131.568V131.772C180.765 132.564 180.893 133.176 181.149 133.608C181.413 134.032 181.897 134.244 182.601 134.244C182.985 134.244 183.305 134.14 183.561 133.932C183.817 133.716 184.005 133.42 184.125 133.044C184.253 132.668 184.317 132.24 184.317 131.76C184.317 131.024 184.173 130.436 183.885 129.996C183.605 129.556 183.169 129.336 182.577 129.336ZM189.24 134.256C189.4 134.256 189.564 134.244 189.732 134.22C189.9 134.196 190.036 134.164 190.14 134.124V134.928C190.028 134.984 189.868 135.028 189.66 135.06C189.452 135.1 189.252 135.12 189.06 135.12C188.724 135.12 188.412 135.064 188.124 134.952C187.844 134.832 187.616 134.628 187.44 134.34C187.264 134.052 187.176 133.648 187.176 133.128V129.384H186.264V128.88L187.188 128.46L187.608 127.092H188.232V128.568H190.092V129.384H188.232V133.104C188.232 133.496 188.324 133.788 188.508 133.98C188.7 134.164 188.944 134.256 189.24 134.256ZM191.968 126.156C192.128 126.156 192.268 126.212 192.388 126.324C192.516 126.428 192.58 126.596 192.58 126.828C192.58 127.06 192.516 127.232 192.388 127.344C192.268 127.448 192.128 127.5 191.968 127.5C191.792 127.5 191.644 127.448 191.524 127.344C191.404 127.232 191.344 127.06 191.344 126.828C191.344 126.596 191.404 126.428 191.524 126.324C191.644 126.212 191.792 126.156 191.968 126.156ZM192.484 128.568V135H191.428V128.568H192.484ZM200.114 131.772C200.114 132.836 199.842 133.66 199.298 134.244C198.762 134.828 198.034 135.12 197.114 135.12C196.546 135.12 196.038 134.992 195.59 134.736C195.15 134.472 194.802 134.092 194.546 133.596C194.29 133.092 194.162 132.484 194.162 131.772C194.162 130.708 194.426 129.888 194.954 129.312C195.49 128.736 196.222 128.448 197.15 128.448C197.726 128.448 198.238 128.58 198.686 128.844C199.134 129.1 199.482 129.476 199.73 129.972C199.986 130.46 200.114 131.06 200.114 131.772ZM195.254 131.772C195.254 132.532 195.402 133.136 195.698 133.584C196.002 134.024 196.482 134.244 197.138 134.244C197.786 134.244 198.262 134.024 198.566 133.584C198.87 133.136 199.022 132.532 199.022 131.772C199.022 131.012 198.87 130.416 198.566 129.984C198.262 129.552 197.782 129.336 197.126 129.336C196.47 129.336 195.994 129.552 195.698 129.984C195.402 130.416 195.254 131.012 195.254 131.772ZM204.884 128.448C205.652 128.448 206.232 128.636 206.624 129.012C207.016 129.388 207.212 129.988 207.212 130.812V135H206.168V130.884C206.168 129.852 205.688 129.336 204.728 129.336C204.016 129.336 203.524 129.536 203.252 129.936C202.98 130.336 202.844 130.912 202.844 131.664V135H201.788V128.568H202.64L202.796 129.444H202.856C203.064 129.108 203.352 128.86 203.72 128.7C204.088 128.532 204.476 128.448 204.884 128.448ZM211.642 128.46C212.426 128.46 213.006 128.632 213.382 128.976C213.758 129.32 213.946 129.868 213.946 130.62V135H213.178L212.974 134.088H212.926C212.646 134.44 212.35 134.7 212.038 134.868C211.726 135.036 211.302 135.12 210.766 135.12C210.182 135.12 209.698 134.968 209.314 134.664C208.93 134.352 208.738 133.868 208.738 133.212C208.738 132.572 208.99 132.08 209.494 131.736C209.998 131.384 210.774 131.192 211.822 131.16L212.914 131.124V130.74C212.914 130.204 212.798 129.832 212.566 129.624C212.334 129.416 212.006 129.312 211.582 129.312C211.246 129.312 210.926 129.364 210.622 129.468C210.318 129.564 210.034 129.676 209.77 129.804L209.446 129.012C209.726 128.86 210.058 128.732 210.442 128.628C210.826 128.516 211.226 128.46 211.642 128.46ZM212.902 131.856L211.954 131.892C211.154 131.924 210.598 132.052 210.286 132.276C209.982 132.5 209.83 132.816 209.83 133.224C209.83 133.584 209.938 133.848 210.154 134.016C210.378 134.184 210.662 134.268 211.006 134.268C211.542 134.268 211.99 134.12 212.35 133.824C212.718 133.52 212.902 133.056 212.902 132.432V131.856ZM216.988 135H215.932V125.88H216.988V135ZM224.291 134.256C224.451 134.256 224.615 134.244 224.783 134.22C224.951 134.196 225.087 134.164 225.191 134.124V134.928C225.079 134.984 224.919 135.028 224.711 135.06C224.503 135.1 224.303 135.12 224.111 135.12C223.775 135.12 223.463 135.064 223.175 134.952C222.895 134.832 222.667 134.628 222.491 134.34C222.315 134.052 222.227 133.648 222.227 133.128V129.384H221.315V128.88L222.239 128.46L222.659 127.092H223.283V128.568H225.143V129.384H223.283V133.104C223.283 133.496 223.375 133.788 223.559 133.98C223.751 134.164 223.995 134.256 224.291 134.256ZM228.963 128.448C229.507 128.448 229.979 128.568 230.379 128.808C230.779 129.048 231.083 129.388 231.291 129.828C231.507 130.26 231.615 130.768 231.615 131.352V131.988H227.211C227.227 132.716 227.411 133.272 227.763 133.656C228.123 134.032 228.623 134.22 229.263 134.22C229.671 134.22 230.031 134.184 230.343 134.112C230.663 134.032 230.991 133.92 231.327 133.776V134.7C230.999 134.844 230.675 134.948 230.355 135.012C230.035 135.084 229.655 135.12 229.215 135.12C228.599 135.12 228.059 134.996 227.595 134.748C227.131 134.5 226.767 134.132 226.503 133.644C226.247 133.156 226.119 132.552 226.119 131.832C226.119 131.128 226.235 130.524 226.467 130.02C226.707 129.516 227.039 129.128 227.463 128.856C227.895 128.584 228.395 128.448 228.963 128.448ZM228.951 129.312C228.447 129.312 228.047 129.476 227.751 129.804C227.463 130.124 227.291 130.572 227.235 131.148H230.511C230.503 130.604 230.375 130.164 230.127 129.828C229.879 129.484 229.487 129.312 228.951 129.312ZM234.542 131.712L232.322 128.568H233.522L235.178 130.992L236.822 128.568H238.01L235.79 131.712L238.13 135H236.93L235.178 132.432L233.402 135H232.214L234.542 131.712ZM241.518 134.256C241.678 134.256 241.842 134.244 242.01 134.22C242.178 134.196 242.314 134.164 242.418 134.124V134.928C242.306 134.984 242.146 135.028 241.938 135.06C241.73 135.1 241.53 135.12 241.338 135.12C241.002 135.12 240.69 135.064 240.402 134.952C240.122 134.832 239.894 134.628 239.718 134.34C239.542 134.052 239.454 133.648 239.454 133.128V129.384H238.542V128.88L239.466 128.46L239.886 127.092H240.51V128.568H242.37V129.384H240.51V133.104C240.51 133.496 240.602 133.788 240.786 133.98C240.978 134.164 241.222 134.256 241.518 134.256Z" fill="#575757"/>
<path d="M266 74H306" stroke="#088A08" stroke-width="2"/>
<path d="M314 74C314 67.3726 319.373 62 326 62V62C332.627 62 338 67.3726 338 74V74C338 80.6274 332.627 86 326 86V86C319.373 86 314 80.6274 314 74V74Z" fill="#2E8523"/>
<ellipse cx="326" cy="74" rx="7" ry="7" transform="rotate(90 326 74)" fill="white"/>
<path d="M312.146 114.27C312.146 115.157 311.824 115.857 311.18 116.37C310.536 116.883 309.645 117.14 308.506 117.14C307.405 117.14 306.472 116.953 305.706 116.58V114.9C306.126 115.087 306.588 115.259 307.092 115.418C307.606 115.567 308.119 115.642 308.632 115.642C309.239 115.642 309.678 115.525 309.948 115.292C310.228 115.049 310.368 114.741 310.368 114.368C310.368 113.957 310.191 113.631 309.836 113.388C309.482 113.136 308.964 112.865 308.282 112.576C307.872 112.408 307.475 112.203 307.092 111.96C306.719 111.708 306.411 111.395 306.168 111.022C305.935 110.639 305.818 110.163 305.818 109.594C305.818 108.745 306.117 108.077 306.714 107.592C307.321 107.107 308.128 106.864 309.136 106.864C309.659 106.864 310.154 106.92 310.62 107.032C311.096 107.144 311.563 107.303 312.02 107.508L311.446 108.95C311.026 108.773 310.625 108.633 310.242 108.53C309.869 108.427 309.482 108.376 309.08 108.376C308.595 108.376 308.226 108.483 307.974 108.698C307.722 108.913 307.596 109.197 307.596 109.552C307.596 109.823 307.666 110.056 307.806 110.252C307.946 110.439 308.161 110.611 308.45 110.77C308.749 110.929 309.132 111.111 309.598 111.316C310.14 111.549 310.597 111.797 310.97 112.058C311.353 112.31 311.642 112.613 311.838 112.968C312.044 113.313 312.146 113.747 312.146 114.27ZM316.805 115.726C317.02 115.726 317.23 115.707 317.435 115.67C317.65 115.623 317.846 115.572 318.023 115.516V116.832C317.837 116.925 317.594 117 317.295 117.056C316.997 117.112 316.684 117.14 316.357 117.14C315.919 117.14 315.522 117.07 315.167 116.93C314.822 116.79 314.547 116.543 314.341 116.188C314.136 115.833 314.033 115.334 314.033 114.69V110.742H313.011V109.972L314.131 109.356L314.691 107.746H315.797V109.412H317.953V110.742H315.797V114.676C315.797 115.031 315.891 115.297 316.077 115.474C316.273 115.642 316.516 115.726 316.805 115.726ZM322.605 109.272C323.622 109.272 324.425 109.575 325.013 110.182C325.61 110.789 325.909 111.633 325.909 112.716V113.612H320.897C320.916 114.303 321.107 114.839 321.471 115.222C321.835 115.595 322.339 115.782 322.983 115.782C323.468 115.782 323.907 115.735 324.299 115.642C324.691 115.539 325.092 115.395 325.503 115.208V116.622C325.13 116.799 324.742 116.93 324.341 117.014C323.94 117.098 323.459 117.14 322.899 117.14C322.152 117.14 321.494 117 320.925 116.72C320.356 116.431 319.908 116.001 319.581 115.432C319.264 114.853 319.105 114.13 319.105 113.262C319.105 111.965 319.422 110.975 320.057 110.294C320.701 109.613 321.55 109.272 322.605 109.272ZM322.605 110.574C322.129 110.574 321.742 110.728 321.443 111.036C321.154 111.335 320.986 111.783 320.939 112.38H324.201C324.192 111.857 324.056 111.428 323.795 111.092C323.543 110.747 323.146 110.574 322.605 110.574ZM331.678 109.272C332.564 109.272 333.278 109.603 333.82 110.266C334.361 110.919 334.632 111.895 334.632 113.192C334.632 114.489 334.352 115.474 333.792 116.146C333.241 116.809 332.522 117.14 331.636 117.14C331.076 117.14 330.623 117.037 330.278 116.832C329.932 116.627 329.657 116.389 329.452 116.118H329.34C329.368 116.295 329.391 116.487 329.41 116.692C329.438 116.897 329.452 117.093 329.452 117.28V120.36H327.688V109.412H329.116L329.368 110.42H329.452C329.666 110.103 329.946 109.832 330.292 109.608C330.637 109.384 331.099 109.272 331.678 109.272ZM331.174 110.7C330.548 110.7 330.105 110.887 329.844 111.26C329.592 111.633 329.461 112.198 329.452 112.954V113.178C329.452 113.99 329.573 114.615 329.816 115.054C330.068 115.483 330.53 115.698 331.202 115.698C331.752 115.698 332.158 115.474 332.42 115.026C332.69 114.569 332.826 113.948 332.826 113.164C332.826 112.38 332.69 111.773 332.42 111.344C332.158 110.915 331.743 110.7 331.174 110.7ZM346.01 109.286C346.01 109.967 345.809 110.513 345.408 110.924C345.016 111.325 344.507 111.596 343.882 111.736V111.778C344.685 111.881 345.291 112.133 345.702 112.534C346.113 112.935 346.318 113.463 346.318 114.116C346.318 114.695 346.178 115.213 345.898 115.67C345.618 116.127 345.184 116.487 344.596 116.748C344.017 117.009 343.271 117.14 342.356 117.14C341.805 117.14 341.297 117.093 340.83 117C340.373 116.916 339.939 116.781 339.528 116.594V115.04C339.948 115.255 340.396 115.418 340.872 115.53C341.348 115.642 341.796 115.698 342.216 115.698C343.028 115.698 343.602 115.553 343.938 115.264C344.274 114.965 344.442 114.555 344.442 114.032C344.442 113.537 344.246 113.169 343.854 112.926C343.462 112.683 342.809 112.562 341.894 112.562H341.054V111.148H341.908C342.795 111.148 343.406 111.003 343.742 110.714C344.078 110.425 344.246 110.051 344.246 109.594C344.246 109.193 344.115 108.88 343.854 108.656C343.593 108.432 343.201 108.32 342.678 108.32C342.174 108.32 341.74 108.404 341.376 108.572C341.012 108.731 340.685 108.903 340.396 109.09L339.556 107.872C339.939 107.592 340.391 107.354 340.914 107.158C341.437 106.962 342.053 106.864 342.762 106.864C343.798 106.864 344.596 107.083 345.156 107.522C345.725 107.961 346.01 108.549 346.01 109.286Z" fill="#151515"/>
<path d="M297.954 130.704C297.954 131.592 297.802 132.368 297.498 133.032C297.202 133.688 296.758 134.2 296.166 134.568C295.582 134.936 294.862 135.12 294.006 135.12C293.118 135.12 292.378 134.936 291.786 134.568C291.202 134.2 290.766 133.684 290.478 133.02C290.19 132.356 290.046 131.58 290.046 130.692C290.046 129.82 290.19 129.056 290.478 128.4C290.766 127.736 291.202 127.22 291.786 126.852C292.378 126.484 293.122 126.3 294.018 126.3C294.874 126.3 295.594 126.484 296.178 126.852C296.762 127.212 297.202 127.724 297.498 128.388C297.802 129.044 297.954 129.816 297.954 130.704ZM291.186 130.704C291.186 131.784 291.414 132.636 291.87 133.26C292.326 133.876 293.038 134.184 294.006 134.184C294.974 134.184 295.682 133.876 296.13 133.26C296.586 132.636 296.814 131.784 296.814 130.704C296.814 129.624 296.59 128.78 296.142 128.172C295.694 127.556 294.986 127.248 294.018 127.248C293.042 127.248 292.326 127.556 291.87 128.172C291.414 128.78 291.186 129.624 291.186 130.704ZM302.769 128.448C303.561 128.448 304.197 128.724 304.677 129.276C305.165 129.828 305.409 130.66 305.409 131.772C305.409 132.868 305.165 133.7 304.677 134.268C304.197 134.836 303.557 135.12 302.757 135.12C302.261 135.12 301.849 135.028 301.521 134.844C301.201 134.66 300.949 134.44 300.765 134.184H300.693C300.701 134.32 300.713 134.492 300.729 134.7C300.753 134.908 300.765 135.088 300.765 135.24V137.88H299.709V128.568H300.573L300.717 129.444H300.765C300.957 129.164 301.209 128.928 301.521 128.736C301.833 128.544 302.249 128.448 302.769 128.448ZM302.577 129.336C301.921 129.336 301.457 129.52 301.185 129.888C300.913 130.256 300.773 130.816 300.765 131.568V131.772C300.765 132.564 300.893 133.176 301.149 133.608C301.413 134.032 301.897 134.244 302.601 134.244C302.985 134.244 303.305 134.14 303.561 133.932C303.817 133.716 304.005 133.42 304.125 133.044C304.253 132.668 304.317 132.24 304.317 131.76C304.317 131.024 304.173 130.436 303.885 129.996C303.605 129.556 303.169 129.336 302.577 129.336ZM309.24 134.256C309.4 134.256 309.564 134.244 309.732 134.22C309.9 134.196 310.036 134.164 310.14 134.124V134.928C310.028 134.984 309.868 135.028 309.66 135.06C309.452 135.1 309.252 135.12 309.06 135.12C308.724 135.12 308.412 135.064 308.124 134.952C307.844 134.832 307.616 134.628 307.44 134.34C307.264 134.052 307.176 133.648 307.176 133.128V129.384H306.264V128.88L307.188 128.46L307.608 127.092H308.232V128.568H310.092V129.384H308.232V133.104C308.232 133.496 308.324 133.788 308.508 133.98C308.7 134.164 308.944 134.256 309.24 134.256ZM311.968 126.156C312.128 126.156 312.268 126.212 312.388 126.324C312.516 126.428 312.58 126.596 312.58 126.828C312.58 127.06 312.516 127.232 312.388 127.344C312.268 127.448 312.128 127.5 311.968 127.5C311.792 127.5 311.644 127.448 311.524 127.344C311.404 127.232 311.344 127.06 311.344 126.828C311.344 126.596 311.404 126.428 311.524 126.324C311.644 126.212 311.792 126.156 311.968 126.156ZM312.484 128.568V135H311.428V128.568H312.484ZM320.114 131.772C320.114 132.836 319.842 133.66 319.298 134.244C318.762 134.828 318.034 135.12 317.114 135.12C316.546 135.12 316.038 134.992 315.59 134.736C315.15 134.472 314.802 134.092 314.546 133.596C314.29 133.092 314.162 132.484 314.162 131.772C314.162 130.708 314.426 129.888 314.954 129.312C315.49 128.736 316.222 128.448 317.15 128.448C317.726 128.448 318.238 128.58 318.686 128.844C319.134 129.1 319.482 129.476 319.73 129.972C319.986 130.46 320.114 131.06 320.114 131.772ZM315.254 131.772C315.254 132.532 315.402 133.136 315.698 133.584C316.002 134.024 316.482 134.244 317.138 134.244C317.786 134.244 318.262 134.024 318.566 133.584C318.87 133.136 319.022 132.532 319.022 131.772C319.022 131.012 318.87 130.416 318.566 129.984C318.262 129.552 317.782 129.336 317.126 129.336C316.47 129.336 315.994 129.552 315.698 129.984C315.402 130.416 315.254 131.012 315.254 131.772ZM324.884 128.448C325.652 128.448 326.232 128.636 326.624 129.012C327.016 129.388 327.212 129.988 327.212 130.812V135H326.168V130.884C326.168 129.852 325.688 129.336 324.728 129.336C324.016 129.336 323.524 129.536 323.252 129.936C322.98 130.336 322.844 130.912 322.844 131.664V135H321.788V128.568H322.64L322.796 129.444H322.856C323.064 129.108 323.352 128.86 323.72 128.7C324.088 128.532 324.476 128.448 324.884 128.448ZM331.642 128.46C332.426 128.46 333.006 128.632 333.382 128.976C333.758 129.32 333.946 129.868 333.946 130.62V135H333.178L332.974 134.088H332.926C332.646 134.44 332.35 134.7 332.038 134.868C331.726 135.036 331.302 135.12 330.766 135.12C330.182 135.12 329.698 134.968 329.314 134.664C328.93 134.352 328.738 133.868 328.738 133.212C328.738 132.572 328.99 132.08 329.494 131.736C329.998 131.384 330.774 131.192 331.822 131.16L332.914 131.124V130.74C332.914 130.204 332.798 129.832 332.566 129.624C332.334 129.416 332.006 129.312 331.582 129.312C331.246 129.312 330.926 129.364 330.622 129.468C330.318 129.564 330.034 129.676 329.77 129.804L329.446 129.012C329.726 128.86 330.058 128.732 330.442 128.628C330.826 128.516 331.226 128.46 331.642 128.46ZM332.902 131.856L331.954 131.892C331.154 131.924 330.598 132.052 330.286 132.276C329.982 132.5 329.83 132.816 329.83 133.224C329.83 133.584 329.938 133.848 330.154 134.016C330.378 134.184 330.662 134.268 331.006 134.268C331.542 134.268 331.99 134.12 332.35 133.824C332.718 133.52 332.902 133.056 332.902 132.432V131.856ZM336.988 135H335.932V125.88H336.988V135ZM344.291 134.256C344.451 134.256 344.615 134.244 344.783 134.22C344.951 134.196 345.087 134.164 345.191 134.124V134.928C345.079 134.984 344.919 135.028 344.711 135.06C344.503 135.1 344.303 135.12 344.111 135.12C343.775 135.12 343.463 135.064 343.175 134.952C342.895 134.832 342.667 134.628 342.491 134.34C342.315 134.052 342.227 133.648 342.227 133.128V129.384H341.315V128.88L342.239 128.46L342.659 127.092H343.283V128.568H345.143V129.384H343.283V133.104C343.283 133.496 343.375 133.788 343.559 133.98C343.751 134.164 343.995 134.256 344.291 134.256ZM348.963 128.448C349.507 128.448 349.979 128.568 350.379 128.808C350.779 129.048 351.083 129.388 351.291 129.828C351.507 130.26 351.615 130.768 351.615 131.352V131.988H347.211C347.227 132.716 347.411 133.272 347.763 133.656C348.123 134.032 348.623 134.22 349.263 134.22C349.671 134.22 350.031 134.184 350.343 134.112C350.663 134.032 350.991 133.92 351.327 133.776V134.7C350.999 134.844 350.675 134.948 350.355 135.012C350.035 135.084 349.655 135.12 349.215 135.12C348.599 135.12 348.059 134.996 347.595 134.748C347.131 134.5 346.767 134.132 346.503 133.644C346.247 133.156 346.119 132.552 346.119 131.832C346.119 131.128 346.235 130.524 346.467 130.02C346.707 129.516 347.039 129.128 347.463 128.856C347.895 128.584 348.395 128.448 348.963 128.448ZM348.951 129.312C348.447 129.312 348.047 129.476 347.751 129.804C347.463 130.124 347.291 130.572 347.235 131.148H350.511C350.503 130.604 350.375 130.164 350.127 129.828C349.879 129.484 349.487 129.312 348.951 129.312ZM354.542 131.712L352.322 128.568H353.522L355.178 130.992L356.822 128.568H358.01L355.79 131.712L358.13 135H356.93L355.178 132.432L353.402 135H352.214L354.542 131.712ZM361.518 134.256C361.678 134.256 361.842 134.244 362.01 134.22C362.178 134.196 362.314 134.164 362.418 134.124V134.928C362.306 134.984 362.146 135.028 361.938 135.06C361.73 135.1 361.53 135.12 361.338 135.12C361.002 135.12 360.69 135.064 360.402 134.952C360.122 134.832 359.894 134.628 359.718 134.34C359.542 134.052 359.454 133.648 359.454 133.128V129.384H358.542V128.88L359.466 128.46L359.886 127.092H360.51V128.568H362.37V129.384H360.51V133.104C360.51 133.496 360.602 133.788 360.786 133.98C360.978 134.164 361.222 134.256 361.518 134.256Z" fill="#575757"/>
</svg>
