<svg width="952" height="177" viewBox="0 0 952 177" fill="none" xmlns="http://www.w3.org/2000/svg">
<rect width="952" height="177" fill="#F1F1F1"/>
<mask id="path-1-inside-1_9474_630346" fill="white">
<path d="M124 44C124 41.7909 125.791 40 128 40H824C826.209 40 828 41.7909 828 44V176H124V44Z"/>
</mask>
<path d="M124 44C124 41.7909 125.791 40 128 40H824C826.209 40 828 41.7909 828 44V176H124V44Z" fill="white"/>
<path d="M123 44C123 41.2386 125.239 39 128 39H824C826.761 39 829 41.2386 829 44H827C827 42.3431 825.657 41 824 41H128C126.343 41 125 42.3431 125 44H123ZM828 176H124H828ZM123 176V44C123 41.2386 125.239 39 128 39V41C126.343 41 125 42.3431 125 44V176H123ZM824 39C826.761 39 829 41.2386 829 44V176H827V44C827 42.3431 825.657 41 824 41V39Z" fill="#C9C9C9" mask="url(#path-1-inside-1_9474_630346)"/>
<path d="M284 108C284 101.373 289.373 96 296 96V96C302.627 96 308 101.373 308 108V108C308 114.627 302.627 120 296 120V120C289.373 120 284 114.627 284 108V108Z" fill="#2E8523"/>
<path d="M294.512 113.202C294.412 113.202 294.312 113.152 294.262 113.102L290.113 108.952C289.962 108.802 289.962 108.552 290.113 108.402C290.263 108.252 290.512 108.252 290.662 108.402L294.512 112.252L301.312 103.152C301.413 103.002 301.662 102.952 301.812 103.052C301.963 103.152 302.012 103.402 301.912 103.552L294.812 113.052C294.762 113.152 294.662 113.202 294.512 113.202Z" fill="white"/>
<path d="M316 108H356" stroke="#2E8523" stroke-width="2"/>
<path d="M356 108H396" stroke="#2E8523" stroke-width="2"/>
<path d="M404 108C404 101.373 409.373 96 416 96V96C422.627 96 428 101.373 428 108V108C428 114.627 422.627 120 416 120V120C409.373 120 404 114.627 404 108V108Z" fill="#2E8523"/>
<ellipse cx="416" cy="108" rx="7" ry="7" transform="rotate(90 416 108)" fill="white"/>
<path d="M436 108H476" stroke="#949494"/>
<path d="M476 108H516" stroke="#949494"/>
<path d="M536 119.5C529.649 119.5 524.5 114.351 524.5 108C524.5 101.649 529.649 96.5 536 96.5C542.351 96.5 547.5 101.649 547.5 108C547.5 114.351 542.351 119.5 536 119.5Z" fill="white"/>
<path d="M536 119.5C529.649 119.5 524.5 114.351 524.5 108C524.5 101.649 529.649 96.5 536 96.5C542.351 96.5 547.5 101.649 547.5 108C547.5 114.351 542.351 119.5 536 119.5Z" stroke="#949494"/>
<path d="M556 108H596" stroke="#949494"/>
<path d="M596 108H636" stroke="#949494"/>
<path d="M656 119.5C649.649 119.5 644.5 114.351 644.5 108C644.5 101.649 649.649 96.5 656 96.5C662.351 96.5 667.5 101.649 667.5 108C667.5 114.351 662.351 119.5 656 119.5Z" fill="white"/>
<path d="M656 119.5C649.649 119.5 644.5 114.351 644.5 108C644.5 101.649 649.649 96.5 656 96.5C662.351 96.5 667.5 101.649 667.5 108C667.5 114.351 662.351 119.5 656 119.5Z" stroke="#949494"/>
</svg>
