<svg width="412" height="200" viewBox="0 0 412 200" fill="none" xmlns="http://www.w3.org/2000/svg">
<rect width="412" height="200" fill="white"/>
<rect x="70" y="92" width="32" height="16" rx="8" fill="#1473E6"/>
<g filter="url(#filter0_d_7689_548347)">
<circle cx="94" cy="100" r="7" fill="white"/>
</g>
<path d="M97.7706 97.4498L93.5706 103.15C93.5706 103.25 93.3706 103.45 93.0706 103.45C92.8706 103.45 92.7706 103.35 92.6706 103.25L90.2706 100.75C90.0706 100.55 90.0706 100.15 90.2706 99.8498C90.4706 99.6498 90.9706 99.6498 91.1706 99.8498L93.0706 101.85L96.7706 96.7498C96.8706 96.6498 96.9706 96.5498 97.1706 96.5498C97.3706 96.5498 97.4706 96.5498 97.6706 96.6498C97.8706 96.7498 97.9706 97.1498 97.7706 97.4498Z" fill="#1473E6"/>
<path d="M114.172 105H110.56V104.272L111.736 104.006V96.012L110.56 95.732V95.004H114.172V95.732L112.996 96.012V104.006L114.172 104.272V105ZM122.413 97.37C123.328 97.37 124.004 97.5707 124.443 97.972C124.882 98.3733 125.101 99.0127 125.101 99.89V105H124.205L123.967 103.936H123.911C123.584 104.347 123.239 104.65 122.875 104.846C122.511 105.042 122.016 105.14 121.391 105.14C120.71 105.14 120.145 104.963 119.697 104.608C119.249 104.244 119.025 103.679 119.025 102.914C119.025 102.167 119.319 101.593 119.907 101.192C120.495 100.781 121.4 100.557 122.623 100.52L123.897 100.478V100.03C123.897 99.4047 123.762 98.9707 123.491 98.728C123.22 98.4853 122.838 98.364 122.343 98.364C121.951 98.364 121.578 98.4247 121.223 98.546C120.868 98.658 120.537 98.7887 120.229 98.938L119.851 98.014C120.178 97.8367 120.565 97.6873 121.013 97.566C121.461 97.4353 121.928 97.37 122.413 97.37ZM123.883 101.332L122.777 101.374C121.844 101.411 121.195 101.561 120.831 101.822C120.476 102.083 120.299 102.452 120.299 102.928C120.299 103.348 120.425 103.656 120.677 103.852C120.938 104.048 121.27 104.146 121.671 104.146C122.296 104.146 122.819 103.973 123.239 103.628C123.668 103.273 123.883 102.732 123.883 102.004V101.332ZM130.079 97.356C130.573 97.356 131.017 97.4493 131.409 97.636C131.81 97.8227 132.151 98.1073 132.431 98.49H132.501L132.669 97.496H133.649V105.126C133.649 106.199 133.373 107.007 132.823 107.548C132.281 108.089 131.437 108.36 130.289 108.36C129.187 108.36 128.287 108.201 127.587 107.884V106.75C128.324 107.142 129.248 107.338 130.359 107.338C131.003 107.338 131.507 107.147 131.871 106.764C132.244 106.391 132.431 105.877 132.431 105.224V104.93C132.431 104.818 132.435 104.659 132.445 104.454C132.454 104.239 132.463 104.09 132.473 104.006H132.417C131.913 104.762 131.138 105.14 130.093 105.14C129.122 105.14 128.361 104.799 127.811 104.118C127.269 103.437 126.999 102.485 126.999 101.262C126.999 100.067 127.269 99.12 127.811 98.42C128.361 97.7107 129.117 97.356 130.079 97.356ZM130.247 98.392C129.621 98.392 129.136 98.644 128.791 99.148C128.445 99.6427 128.273 100.352 128.273 101.276C128.273 102.2 128.441 102.909 128.777 103.404C129.113 103.889 129.612 104.132 130.275 104.132C131.031 104.132 131.581 103.931 131.927 103.53C132.272 103.119 132.445 102.461 132.445 101.556V101.262C132.445 100.245 132.267 99.512 131.913 99.064C131.558 98.616 131.003 98.392 130.247 98.392ZM139.532 97.356C139.672 97.356 139.821 97.3653 139.98 97.384C140.138 97.3933 140.283 97.412 140.414 97.44L140.26 98.574C140.138 98.546 140.003 98.5227 139.854 98.504C139.704 98.4853 139.569 98.476 139.448 98.476C139.065 98.476 138.706 98.5833 138.37 98.798C138.034 99.0033 137.763 99.2973 137.558 99.68C137.362 100.053 137.264 100.492 137.264 100.996V105H136.032V97.496H137.04L137.18 98.868H137.236C137.469 98.4573 137.777 98.1027 138.16 97.804C138.552 97.5053 139.009 97.356 139.532 97.356ZM144.44 97.356C145.074 97.356 145.625 97.496 146.092 97.776C146.558 98.056 146.913 98.4527 147.156 98.966C147.408 99.47 147.534 100.063 147.534 100.744V101.486H142.396C142.414 102.335 142.629 102.984 143.04 103.432C143.46 103.871 144.043 104.09 144.79 104.09C145.266 104.09 145.686 104.048 146.05 103.964C146.423 103.871 146.806 103.74 147.198 103.572V104.65C146.815 104.818 146.437 104.939 146.064 105.014C145.69 105.098 145.247 105.14 144.734 105.14C144.015 105.14 143.385 104.995 142.844 104.706C142.302 104.417 141.878 103.987 141.57 103.418C141.271 102.849 141.122 102.144 141.122 101.304C141.122 100.483 141.257 99.778 141.528 99.19C141.808 98.602 142.195 98.1493 142.69 97.832C143.194 97.5147 143.777 97.356 144.44 97.356ZM144.426 98.364C143.838 98.364 143.371 98.5553 143.026 98.938C142.69 99.3113 142.489 99.834 142.424 100.506H146.246C146.236 99.8713 146.087 99.358 145.798 98.966C145.508 98.5647 145.051 98.364 144.426 98.364ZM152.342 97.356C152.977 97.356 153.527 97.496 153.994 97.776C154.461 98.056 154.815 98.4527 155.058 98.966C155.31 99.47 155.436 100.063 155.436 100.744V101.486H150.298C150.317 102.335 150.531 102.984 150.942 103.432C151.362 103.871 151.945 104.09 152.692 104.09C153.168 104.09 153.588 104.048 153.952 103.964C154.325 103.871 154.708 103.74 155.1 103.572V104.65C154.717 104.818 154.339 104.939 153.966 105.014C153.593 105.098 153.149 105.14 152.636 105.14C151.917 105.14 151.287 104.995 150.746 104.706C150.205 104.417 149.78 103.987 149.472 103.418C149.173 102.849 149.024 102.144 149.024 101.304C149.024 100.483 149.159 99.778 149.43 99.19C149.71 98.602 150.097 98.1493 150.592 97.832C151.096 97.5147 151.679 97.356 152.342 97.356ZM152.328 98.364C151.74 98.364 151.273 98.5553 150.928 98.938C150.592 99.3113 150.391 99.834 150.326 100.506H154.148C154.139 99.8713 153.989 99.358 153.7 98.966C153.411 98.5647 152.953 98.364 152.328 98.364ZM163.489 104.132C163.676 104.132 163.867 104.118 164.063 104.09C164.259 104.062 164.418 104.025 164.539 103.978V104.916C164.408 104.981 164.222 105.033 163.979 105.07C163.736 105.117 163.503 105.14 163.279 105.14C162.887 105.14 162.523 105.075 162.187 104.944C161.86 104.804 161.594 104.566 161.389 104.23C161.184 103.894 161.081 103.423 161.081 102.816V98.448H160.017V97.86L161.095 97.37L161.585 95.774H162.313V97.496H164.483V98.448H162.313V102.788C162.313 103.245 162.42 103.586 162.635 103.81C162.859 104.025 163.144 104.132 163.489 104.132ZM172.566 101.234C172.566 102.475 172.248 103.437 171.614 104.118C170.988 104.799 170.139 105.14 169.066 105.14C168.403 105.14 167.81 104.991 167.288 104.692C166.774 104.384 166.368 103.941 166.07 103.362C165.771 102.774 165.622 102.065 165.622 101.234C165.622 99.9927 165.93 99.036 166.546 98.364C167.171 97.692 168.025 97.356 169.108 97.356C169.78 97.356 170.377 97.51 170.9 97.818C171.422 98.1167 171.828 98.5553 172.118 99.134C172.416 99.7033 172.566 100.403 172.566 101.234ZM166.896 101.234C166.896 102.121 167.068 102.825 167.414 103.348C167.768 103.861 168.328 104.118 169.094 104.118C169.85 104.118 170.405 103.861 170.76 103.348C171.114 102.825 171.292 102.121 171.292 101.234C171.292 100.347 171.114 99.652 170.76 99.148C170.405 98.644 169.845 98.392 169.08 98.392C168.314 98.392 167.759 98.644 167.414 99.148C167.068 99.652 166.896 100.347 166.896 101.234ZM180.661 104.132C180.848 104.132 181.039 104.118 181.235 104.09C181.431 104.062 181.59 104.025 181.711 103.978V104.916C181.58 104.981 181.394 105.033 181.151 105.07C180.908 105.117 180.675 105.14 180.451 105.14C180.059 105.14 179.695 105.075 179.359 104.944C179.032 104.804 178.766 104.566 178.561 104.23C178.356 103.894 178.253 103.423 178.253 102.816V98.448H177.189V97.86L178.267 97.37L178.757 95.774H179.485V97.496H181.655V98.448H179.485V102.788C179.485 103.245 179.592 103.586 179.807 103.81C180.031 104.025 180.316 104.132 180.661 104.132ZM184.445 94.36V97.482C184.445 97.8553 184.422 98.2053 184.375 98.532H184.459C184.702 98.1493 185.029 97.86 185.439 97.664C185.859 97.468 186.312 97.37 186.797 97.37C187.703 97.37 188.384 97.5893 188.841 98.028C189.308 98.4573 189.541 99.1527 189.541 100.114V105H188.323V100.198C188.323 98.994 187.763 98.392 186.643 98.392C185.803 98.392 185.225 98.63 184.907 99.106C184.599 99.5727 184.445 100.245 184.445 101.122V105H183.213V94.36H184.445ZM194.766 97.356C195.4 97.356 195.951 97.496 196.418 97.776C196.884 98.056 197.239 98.4527 197.482 98.966C197.734 99.47 197.86 100.063 197.86 100.744V101.486H192.722C192.74 102.335 192.955 102.984 193.366 103.432C193.786 103.871 194.369 104.09 195.116 104.09C195.592 104.09 196.012 104.048 196.376 103.964C196.749 103.871 197.132 103.74 197.524 103.572V104.65C197.141 104.818 196.763 104.939 196.39 105.014C196.016 105.098 195.573 105.14 195.06 105.14C194.341 105.14 193.711 104.995 193.17 104.706C192.628 104.417 192.204 103.987 191.896 103.418C191.597 102.849 191.448 102.144 191.448 101.304C191.448 100.483 191.583 99.778 191.854 99.19C192.134 98.602 192.521 98.1493 193.016 97.832C193.52 97.5147 194.103 97.356 194.766 97.356ZM194.752 98.364C194.164 98.364 193.697 98.5553 193.352 98.938C193.016 99.3113 192.815 99.834 192.75 100.506H196.572C196.562 99.8713 196.413 99.358 196.124 98.966C195.834 98.5647 195.377 98.364 194.752 98.364ZM205.913 104.132C206.099 104.132 206.291 104.118 206.487 104.09C206.683 104.062 206.841 104.025 206.963 103.978V104.916C206.832 104.981 206.645 105.033 206.403 105.07C206.16 105.117 205.927 105.14 205.703 105.14C205.311 105.14 204.947 105.075 204.611 104.944C204.284 104.804 204.018 104.566 203.813 104.23C203.607 103.894 203.505 103.423 203.505 102.816V98.448H202.441V97.86L203.519 97.37L204.009 95.774H204.737V97.496H206.907V98.448H204.737V102.788C204.737 103.245 204.844 103.586 205.059 103.81C205.283 104.025 205.567 104.132 205.913 104.132ZM211.363 97.356C211.998 97.356 212.549 97.496 213.015 97.776C213.482 98.056 213.837 98.4527 214.079 98.966C214.331 99.47 214.457 100.063 214.457 100.744V101.486H209.319C209.338 102.335 209.553 102.984 209.963 103.432C210.383 103.871 210.967 104.09 211.713 104.09C212.189 104.09 212.609 104.048 212.973 103.964C213.347 103.871 213.729 103.74 214.121 103.572V104.65C213.739 104.818 213.361 104.939 212.987 105.014C212.614 105.098 212.171 105.14 211.657 105.14C210.939 105.14 210.309 104.995 209.767 104.706C209.226 104.417 208.801 103.987 208.493 103.418C208.195 102.849 208.045 102.144 208.045 101.304C208.045 100.483 208.181 99.778 208.451 99.19C208.731 98.602 209.119 98.1493 209.613 97.832C210.117 97.5147 210.701 97.356 211.363 97.356ZM211.349 98.364C210.761 98.364 210.295 98.5553 209.949 98.938C209.613 99.3113 209.413 99.834 209.347 100.506H213.169C213.16 99.8713 213.011 99.358 212.721 98.966C212.432 98.5647 211.975 98.364 211.349 98.364ZM219.868 97.356C220.008 97.356 220.157 97.3653 220.316 97.384C220.474 97.3933 220.619 97.412 220.75 97.44L220.596 98.574C220.474 98.546 220.339 98.5227 220.19 98.504C220.04 98.4853 219.905 98.476 219.784 98.476C219.401 98.476 219.042 98.5833 218.706 98.798C218.37 99.0033 218.099 99.2973 217.894 99.68C217.698 100.053 217.6 100.492 217.6 100.996V105H216.368V97.496H217.376L217.516 98.868H217.572C217.805 98.4573 218.113 98.1027 218.496 97.804C218.888 97.5053 219.345 97.356 219.868 97.356ZM230.383 97.356C231.232 97.356 231.867 97.5753 232.287 98.014C232.707 98.4527 232.917 99.1527 232.917 100.114V105H231.699V100.17C231.699 98.9847 231.19 98.392 230.173 98.392C229.445 98.392 228.922 98.602 228.605 99.022C228.297 99.442 228.143 100.053 228.143 100.856V105H226.925V100.17C226.925 98.9847 226.412 98.392 225.385 98.392C224.629 98.392 224.106 98.6253 223.817 99.092C223.528 99.5587 223.383 100.231 223.383 101.108V105H222.151V97.496H223.145L223.327 98.518H223.397C223.63 98.126 223.943 97.8367 224.335 97.65C224.736 97.454 225.161 97.356 225.609 97.356C226.785 97.356 227.55 97.776 227.905 98.616H227.975C228.227 98.1867 228.568 97.8693 228.997 97.664C229.426 97.4587 229.888 97.356 230.383 97.356ZM240.121 102.928C240.121 103.656 239.85 104.207 239.309 104.58C238.768 104.953 238.04 105.14 237.125 105.14C236.602 105.14 236.15 105.098 235.767 105.014C235.394 104.93 235.062 104.813 234.773 104.664V103.544C235.072 103.693 235.431 103.833 235.851 103.964C236.28 104.085 236.714 104.146 237.153 104.146C237.778 104.146 238.231 104.048 238.511 103.852C238.791 103.647 238.931 103.376 238.931 103.04C238.931 102.853 238.88 102.685 238.777 102.536C238.674 102.387 238.488 102.237 238.217 102.088C237.956 101.939 237.578 101.771 237.083 101.584C236.598 101.397 236.182 101.211 235.837 101.024C235.492 100.837 235.226 100.613 235.039 100.352C234.852 100.091 234.759 99.7547 234.759 99.344C234.759 98.7093 235.016 98.2193 235.529 97.874C236.052 97.5287 236.733 97.356 237.573 97.356C238.03 97.356 238.455 97.4027 238.847 97.496C239.248 97.5893 239.622 97.7107 239.967 97.86L239.547 98.84C239.23 98.7093 238.898 98.5973 238.553 98.504C238.208 98.4107 237.853 98.364 237.489 98.364C236.985 98.364 236.598 98.448 236.327 98.616C236.066 98.7747 235.935 98.994 235.935 99.274C235.935 99.4887 235.996 99.666 236.117 99.806C236.238 99.946 236.439 100.086 236.719 100.226C237.008 100.366 237.391 100.525 237.867 100.702C238.343 100.879 238.749 101.061 239.085 101.248C239.421 101.435 239.678 101.663 239.855 101.934C240.032 102.195 240.121 102.527 240.121 102.928ZM248.413 97.37C249.328 97.37 250.004 97.5707 250.443 97.972C250.882 98.3733 251.101 99.0127 251.101 99.89V105H250.205L249.967 103.936H249.911C249.584 104.347 249.239 104.65 248.875 104.846C248.511 105.042 248.016 105.14 247.391 105.14C246.71 105.14 246.145 104.963 245.697 104.608C245.249 104.244 245.025 103.679 245.025 102.914C245.025 102.167 245.319 101.593 245.907 101.192C246.495 100.781 247.4 100.557 248.623 100.52L249.897 100.478V100.03C249.897 99.4047 249.762 98.9707 249.491 98.728C249.22 98.4853 248.838 98.364 248.343 98.364C247.951 98.364 247.578 98.4247 247.223 98.546C246.868 98.658 246.537 98.7887 246.229 98.938L245.851 98.014C246.178 97.8367 246.565 97.6873 247.013 97.566C247.461 97.4353 247.928 97.37 248.413 97.37ZM249.883 101.332L248.777 101.374C247.844 101.411 247.195 101.561 246.831 101.822C246.476 102.083 246.299 102.452 246.299 102.928C246.299 103.348 246.425 103.656 246.677 103.852C246.938 104.048 247.27 104.146 247.671 104.146C248.296 104.146 248.819 103.973 249.239 103.628C249.668 103.273 249.883 102.732 249.883 102.004V101.332ZM257.031 97.356C257.927 97.356 258.603 97.5753 259.061 98.014C259.518 98.4527 259.747 99.1527 259.747 100.114V105H258.529V100.198C258.529 98.994 257.969 98.392 256.849 98.392C256.018 98.392 255.444 98.6253 255.127 99.092C254.809 99.5587 254.651 100.231 254.651 101.108V105H253.419V97.496H254.413L254.595 98.518H254.665C254.907 98.126 255.243 97.8367 255.673 97.65C256.102 97.454 256.555 97.356 257.031 97.356ZM264.733 105.14C263.799 105.14 263.053 104.818 262.493 104.174C261.933 103.521 261.653 102.55 261.653 101.262C261.653 99.974 261.933 99.0033 262.493 98.35C263.062 97.6873 263.813 97.356 264.747 97.356C265.325 97.356 265.797 97.4633 266.161 97.678C266.534 97.8927 266.837 98.154 267.071 98.462H267.155C267.136 98.3407 267.117 98.1633 267.099 97.93C267.08 97.6873 267.071 97.496 267.071 97.356V94.36H268.303V105H267.309L267.127 103.992H267.071C266.847 104.309 266.548 104.58 266.175 104.804C265.801 105.028 265.321 105.14 264.733 105.14ZM264.929 104.118C265.722 104.118 266.277 103.903 266.595 103.474C266.921 103.035 267.085 102.377 267.085 101.5V101.276C267.085 100.343 266.931 99.6287 266.623 99.134C266.315 98.63 265.745 98.378 264.915 98.378C264.252 98.378 263.753 98.644 263.417 99.176C263.09 99.6987 262.927 100.403 262.927 101.29C262.927 102.186 263.09 102.881 263.417 103.376C263.753 103.871 264.257 104.118 264.929 104.118ZM277.333 105.14C276.661 105.14 276.068 105.005 275.555 104.734C275.041 104.463 274.635 104.043 274.337 103.474C274.047 102.905 273.903 102.177 273.903 101.29C273.903 100.366 274.052 99.6147 274.351 99.036C274.659 98.4573 275.079 98.0327 275.611 97.762C276.143 97.4913 276.745 97.356 277.417 97.356C277.79 97.356 278.154 97.398 278.509 97.482C278.873 97.5567 279.167 97.65 279.391 97.762L279.013 98.784C278.789 98.7 278.527 98.6207 278.229 98.546C277.93 98.4713 277.65 98.434 277.389 98.434C275.914 98.434 275.177 99.3813 275.177 101.276C275.177 102.181 275.354 102.877 275.709 103.362C276.073 103.838 276.609 104.076 277.319 104.076C277.72 104.076 278.079 104.034 278.397 103.95C278.714 103.866 279.003 103.763 279.265 103.642V104.734C279.013 104.865 278.733 104.963 278.425 105.028C278.126 105.103 277.762 105.14 277.333 105.14ZM287.573 101.234C287.573 102.475 287.256 103.437 286.621 104.118C285.996 104.799 285.147 105.14 284.073 105.14C283.411 105.14 282.818 104.991 282.295 104.692C281.782 104.384 281.376 103.941 281.077 103.362C280.779 102.774 280.629 102.065 280.629 101.234C280.629 99.9927 280.937 99.036 281.553 98.364C282.179 97.692 283.033 97.356 284.115 97.356C284.787 97.356 285.385 97.51 285.907 97.818C286.43 98.1167 286.836 98.5553 287.125 99.134C287.424 99.7033 287.573 100.403 287.573 101.234ZM281.903 101.234C281.903 102.121 282.076 102.825 282.421 103.348C282.776 103.861 283.336 104.118 284.101 104.118C284.857 104.118 285.413 103.861 285.767 103.348C286.122 102.825 286.299 102.121 286.299 101.234C286.299 100.347 286.122 99.652 285.767 99.148C285.413 98.644 284.853 98.392 284.087 98.392C283.322 98.392 282.767 98.644 282.421 99.148C282.076 99.652 281.903 100.347 281.903 101.234ZM293.138 97.356C294.034 97.356 294.711 97.5753 295.168 98.014C295.625 98.4527 295.854 99.1527 295.854 100.114V105H294.636V100.198C294.636 98.994 294.076 98.392 292.956 98.392C292.125 98.392 291.551 98.6253 291.234 99.092C290.917 99.5587 290.758 100.231 290.758 101.108V105H289.526V97.496H290.52L290.702 98.518H290.772C291.015 98.126 291.351 97.8367 291.78 97.65C292.209 97.454 292.662 97.356 293.138 97.356ZM300.84 105.14C299.907 105.14 299.16 104.818 298.6 104.174C298.04 103.521 297.76 102.55 297.76 101.262C297.76 99.974 298.04 99.0033 298.6 98.35C299.17 97.6873 299.921 97.356 300.854 97.356C301.433 97.356 301.904 97.4633 302.268 97.678C302.642 97.8927 302.945 98.154 303.178 98.462H303.262C303.244 98.3407 303.225 98.1633 303.206 97.93C303.188 97.6873 303.178 97.496 303.178 97.356V94.36H304.41V105H303.416L303.234 103.992H303.178C302.954 104.309 302.656 104.58 302.282 104.804C301.909 105.028 301.428 105.14 300.84 105.14ZM301.036 104.118C301.83 104.118 302.385 103.903 302.702 103.474C303.029 103.035 303.192 102.377 303.192 101.5V101.276C303.192 100.343 303.038 99.6287 302.73 99.134C302.422 98.63 301.853 98.378 301.022 98.378C300.36 98.378 299.86 98.644 299.524 99.176C299.198 99.6987 299.034 100.403 299.034 101.29C299.034 102.186 299.198 102.881 299.524 103.376C299.86 103.871 300.364 104.118 301.036 104.118ZM307.424 94.682C307.61 94.682 307.774 94.7473 307.914 94.878C308.063 94.9993 308.138 95.1953 308.138 95.466C308.138 95.7367 308.063 95.9373 307.914 96.068C307.774 96.1893 307.61 96.25 307.424 96.25C307.218 96.25 307.046 96.1893 306.906 96.068C306.766 95.9373 306.696 95.7367 306.696 95.466C306.696 95.1953 306.766 94.9993 306.906 94.878C307.046 94.7473 307.218 94.682 307.424 94.682ZM308.026 97.496V105H306.794V97.496H308.026ZM312.909 104.132C313.096 104.132 313.287 104.118 313.483 104.09C313.679 104.062 313.838 104.025 313.959 103.978V104.916C313.828 104.981 313.642 105.033 313.399 105.07C313.156 105.117 312.923 105.14 312.699 105.14C312.307 105.14 311.943 105.075 311.607 104.944C311.28 104.804 311.014 104.566 310.809 104.23C310.604 103.894 310.501 103.423 310.501 102.816V98.448H309.437V97.86L310.515 97.37L311.005 95.774H311.733V97.496H313.903V98.448H311.733V102.788C311.733 103.245 311.84 103.586 312.055 103.81C312.279 104.025 312.564 104.132 312.909 104.132ZM316.091 94.682C316.278 94.682 316.441 94.7473 316.581 94.878C316.731 94.9993 316.805 95.1953 316.805 95.466C316.805 95.7367 316.731 95.9373 316.581 96.068C316.441 96.1893 316.278 96.25 316.091 96.25C315.886 96.25 315.713 96.1893 315.573 96.068C315.433 95.9373 315.363 95.7367 315.363 95.466C315.363 95.1953 315.433 94.9993 315.573 94.878C315.713 94.7473 315.886 94.682 316.091 94.682ZM316.693 97.496V105H315.461V97.496H316.693ZM325.595 101.234C325.595 102.475 325.278 103.437 324.643 104.118C324.018 104.799 323.168 105.14 322.095 105.14C321.432 105.14 320.84 104.991 320.317 104.692C319.804 104.384 319.398 103.941 319.099 103.362C318.8 102.774 318.651 102.065 318.651 101.234C318.651 99.9927 318.959 99.036 319.575 98.364C320.2 97.692 321.054 97.356 322.137 97.356C322.809 97.356 323.406 97.51 323.929 97.818C324.452 98.1167 324.858 98.5553 325.147 99.134C325.446 99.7033 325.595 100.403 325.595 101.234ZM319.925 101.234C319.925 102.121 320.098 102.825 320.443 103.348C320.798 103.861 321.358 104.118 322.123 104.118C322.879 104.118 323.434 103.861 323.789 103.348C324.144 102.825 324.321 102.121 324.321 101.234C324.321 100.347 324.144 99.652 323.789 99.148C323.434 98.644 322.874 98.392 322.109 98.392C321.344 98.392 320.788 98.644 320.443 99.148C320.098 99.652 319.925 100.347 319.925 101.234ZM331.159 97.356C332.055 97.356 332.732 97.5753 333.189 98.014C333.647 98.4527 333.875 99.1527 333.875 100.114V105H332.657V100.198C332.657 98.994 332.097 98.392 330.977 98.392C330.147 98.392 329.573 98.6253 329.255 99.092C328.938 99.5587 328.779 100.231 328.779 101.108V105H327.547V97.496H328.541L328.723 98.518H328.793C329.036 98.126 329.372 97.8367 329.801 97.65C330.231 97.454 330.683 97.356 331.159 97.356ZM341.088 102.928C341.088 103.656 340.817 104.207 340.276 104.58C339.734 104.953 339.006 105.14 338.092 105.14C337.569 105.14 337.116 105.098 336.734 105.014C336.36 104.93 336.029 104.813 335.74 104.664V103.544C336.038 103.693 336.398 103.833 336.818 103.964C337.247 104.085 337.681 104.146 338.12 104.146C338.745 104.146 339.198 104.048 339.478 103.852C339.758 103.647 339.898 103.376 339.898 103.04C339.898 102.853 339.846 102.685 339.744 102.536C339.641 102.387 339.454 102.237 339.184 102.088C338.922 101.939 338.544 101.771 338.05 101.584C337.564 101.397 337.149 101.211 336.804 101.024C336.458 100.837 336.192 100.613 336.006 100.352C335.819 100.091 335.726 99.7547 335.726 99.344C335.726 98.7093 335.982 98.2193 336.496 97.874C337.018 97.5287 337.7 97.356 338.54 97.356C338.997 97.356 339.422 97.4027 339.814 97.496C340.215 97.5893 340.588 97.7107 340.934 97.86L340.514 98.84C340.196 98.7093 339.865 98.5973 339.52 98.504C339.174 98.4107 338.82 98.364 338.456 98.364C337.952 98.364 337.564 98.448 337.294 98.616C337.032 98.7747 336.902 98.994 336.902 99.274C336.902 99.4887 336.962 99.666 337.084 99.806C337.205 99.946 337.406 100.086 337.686 100.226C337.975 100.366 338.358 100.525 338.834 100.702C339.31 100.879 339.716 101.061 340.052 101.248C340.388 101.435 340.644 101.663 340.822 101.934C340.999 102.195 341.088 102.527 341.088 102.928Z" fill="black"/>
<defs>
<filter id="filter0_d_7689_548347" x="83" y="93" width="22" height="22" filterUnits="userSpaceOnUse" color-interpolation-filters="sRGB">
<feFlood flood-opacity="0" result="BackgroundImageFix"/>
<feColorMatrix in="SourceAlpha" type="matrix" values="0 0 0 0 0 0 0 0 0 0 0 0 0 0 0 0 0 0 127 0" result="hardAlpha"/>
<feOffset dy="4"/>
<feGaussianBlur stdDeviation="2"/>
<feColorMatrix type="matrix" values="0 0 0 0 0 0 0 0 0 0 0 0 0 0 0 0 0 0 0.25 0"/>
<feBlend mode="normal" in2="BackgroundImageFix" result="effect1_dropShadow_7689_548347"/>
<feBlend mode="normal" in="SourceGraphic" in2="effect1_dropShadow_7689_548347" result="shape"/>
</filter>
</defs>
</svg>
