<svg width="904" height="143" viewBox="0 0 904 143" fill="none" xmlns="http://www.w3.org/2000/svg">
<rect width="904" height="143" fill="white"/>
<rect x="407" y="83" width="32" height="16" rx="8" fill="#1B77AF"/>
<g filter="url(#filter0_d_8298_498244)">
<circle cx="431" cy="91" r="7" fill="white"/>
</g>
<path d="M434.771 88.4498L430.571 94.1498C430.571 94.2498 430.371 94.4498 430.071 94.4498C429.871 94.4498 429.771 94.3498 429.671 94.2498L427.271 91.7498C427.071 91.5498 427.071 91.1498 427.271 90.8498C427.471 90.6498 427.971 90.6498 428.171 90.8498L430.071 92.8498L433.771 87.7498C433.871 87.6498 433.971 87.5498 434.171 87.5498C434.371 87.5498 434.471 87.5498 434.671 87.6498C434.871 87.7498 434.971 88.1498 434.771 88.4498Z" fill="#1B77AF"/>
<path d="M457.08 90.988C457.08 92.024 456.903 92.9293 456.548 93.704C456.203 94.4693 455.685 95.0667 454.994 95.496C454.313 95.9253 453.473 96.14 452.474 96.14C451.438 96.14 450.575 95.9253 449.884 95.496C449.203 95.0667 448.694 94.4647 448.358 93.69C448.022 92.9153 447.854 92.01 447.854 90.974C447.854 89.9567 448.022 89.0653 448.358 88.3C448.694 87.5253 449.203 86.9233 449.884 86.494C450.575 86.0647 451.443 85.85 452.488 85.85C453.487 85.85 454.327 86.0647 455.008 86.494C455.689 86.914 456.203 87.5113 456.548 88.286C456.903 89.0513 457.08 89.952 457.08 90.988ZM449.184 90.988C449.184 92.248 449.45 93.242 449.982 93.97C450.514 94.6887 451.345 95.048 452.474 95.048C453.603 95.048 454.429 94.6887 454.952 93.97C455.484 93.242 455.75 92.248 455.75 90.988C455.75 89.728 455.489 88.7433 454.966 88.034C454.443 87.3153 453.617 86.956 452.488 86.956C451.349 86.956 450.514 87.3153 449.982 88.034C449.45 88.7433 449.184 89.728 449.184 90.988ZM462.698 88.356C463.622 88.356 464.364 88.678 464.924 89.322C465.493 89.966 465.778 90.9367 465.778 92.234C465.778 93.5127 465.493 94.4833 464.924 95.146C464.364 95.8087 463.617 96.14 462.684 96.14C462.105 96.14 461.624 96.0327 461.242 95.818C460.868 95.6033 460.574 95.3467 460.36 95.048H460.276C460.285 95.2067 460.299 95.4073 460.318 95.65C460.346 95.8927 460.36 96.1027 460.36 96.28V99.36H459.128V88.496H460.136L460.304 89.518H460.36C460.584 89.1913 460.878 88.916 461.242 88.692C461.606 88.468 462.091 88.356 462.698 88.356ZM462.474 89.392C461.708 89.392 461.167 89.6067 460.85 90.036C460.532 90.4653 460.369 91.1187 460.36 91.996V92.234C460.36 93.158 460.509 93.872 460.808 94.376C461.116 94.8707 461.68 95.118 462.502 95.118C462.95 95.118 463.323 94.9967 463.622 94.754C463.92 94.502 464.14 94.1567 464.28 93.718C464.429 93.2793 464.504 92.78 464.504 92.22C464.504 91.3613 464.336 90.6753 464 90.162C463.673 89.6487 463.164 89.392 462.474 89.392ZM470.247 95.132C470.433 95.132 470.625 95.118 470.821 95.09C471.017 95.062 471.175 95.0247 471.297 94.978V95.916C471.166 95.9813 470.979 96.0327 470.737 96.07C470.494 96.1167 470.261 96.14 470.037 96.14C469.645 96.14 469.281 96.0747 468.945 95.944C468.618 95.804 468.352 95.566 468.147 95.23C467.941 94.894 467.839 94.4227 467.839 93.816V89.448H466.775V88.86L467.853 88.37L468.343 86.774H469.071V88.496H471.241V89.448H469.071V93.788C469.071 94.2453 469.178 94.586 469.393 94.81C469.617 95.0247 469.901 95.132 470.247 95.132ZM473.429 85.682C473.616 85.682 473.779 85.7473 473.919 85.878C474.069 85.9993 474.143 86.1953 474.143 86.466C474.143 86.7367 474.069 86.9373 473.919 87.068C473.779 87.1893 473.616 87.25 473.429 87.25C473.224 87.25 473.051 87.1893 472.911 87.068C472.771 86.9373 472.701 86.7367 472.701 86.466C472.701 86.1953 472.771 85.9993 472.911 85.878C473.051 85.7473 473.224 85.682 473.429 85.682ZM474.031 88.496V96H472.799V88.496H474.031ZM482.933 92.234C482.933 93.4753 482.615 94.4367 481.981 95.118C481.355 95.7993 480.506 96.14 479.433 96.14C478.77 96.14 478.177 95.9907 477.655 95.692C477.141 95.384 476.735 94.9407 476.437 94.362C476.138 93.774 475.989 93.0647 475.989 92.234C475.989 90.9927 476.297 90.036 476.913 89.364C477.538 88.692 478.392 88.356 479.475 88.356C480.147 88.356 480.744 88.51 481.267 88.818C481.789 89.1167 482.195 89.5553 482.485 90.134C482.783 90.7033 482.933 91.4033 482.933 92.234ZM477.263 92.234C477.263 93.1207 477.435 93.8253 477.781 94.348C478.135 94.8613 478.695 95.118 479.461 95.118C480.217 95.118 480.772 94.8613 481.127 94.348C481.481 93.8253 481.659 93.1207 481.659 92.234C481.659 91.3473 481.481 90.652 481.127 90.148C480.772 89.644 480.212 89.392 479.447 89.392C478.681 89.392 478.126 89.644 477.781 90.148C477.435 90.652 477.263 91.3473 477.263 92.234ZM488.497 88.356C489.393 88.356 490.07 88.5753 490.527 89.014C490.985 89.4527 491.213 90.1527 491.213 91.114V96H489.995V91.198C489.995 89.994 489.435 89.392 488.315 89.392C487.485 89.392 486.911 89.6253 486.593 90.092C486.276 90.5587 486.117 91.2307 486.117 92.108V96H484.885V88.496H485.879L486.061 89.518H486.131C486.374 89.126 486.71 88.8367 487.139 88.65C487.569 88.454 488.021 88.356 488.497 88.356Z" fill="black"/>
<circle cx="431" cy="52" r="12" fill="#D51588"/>
<path d="M434.942 57H428.096V55.698L430.644 53.122C431.148 52.6087 431.559 52.17 431.876 51.806C432.203 51.442 432.441 51.1013 432.59 50.784C432.749 50.4573 432.828 50.1073 432.828 49.734C432.828 49.2767 432.697 48.936 432.436 48.712C432.184 48.4787 431.839 48.362 431.4 48.362C430.98 48.362 430.588 48.4507 430.224 48.628C429.86 48.796 429.482 49.0387 429.09 49.356L428.124 48.194C428.535 47.8393 428.997 47.5313 429.51 47.27C430.033 46.9993 430.695 46.864 431.498 46.864C432.142 46.864 432.693 46.9807 433.15 47.214C433.617 47.438 433.976 47.7553 434.228 48.166C434.48 48.5673 434.606 49.0293 434.606 49.552C434.606 50.0933 434.499 50.5927 434.284 51.05C434.069 51.498 433.757 51.9507 433.346 52.408C432.945 52.856 432.464 53.3413 431.904 53.864L430.322 55.39V55.474H434.942V57Z" fill="white"/>
<path d="M431 64V84" stroke="#D51588"/>
<circle cx="377" cy="91" r="12" fill="#D51588"/>
<path d="M378.968 96H377.204V89.77C377.204 89.4713 377.209 89.154 377.218 88.818C377.227 88.482 377.241 88.1693 377.26 87.88C377.167 87.9733 377.05 88.0853 376.91 88.216C376.779 88.3467 376.635 88.4727 376.476 88.594L375.356 89.49L374.474 88.398L377.498 86.004H378.968V96Z" fill="white"/>
<path d="M389 91H407" stroke="#D51588"/>
<path d="M497 91H515" stroke="#D51588"/>
<circle cx="527" cy="91" r="12" fill="#D51588"/>
<path d="M530.55 88.286C530.55 88.9673 530.349 89.5133 529.948 89.924C529.556 90.3253 529.047 90.596 528.422 90.736V90.778C529.225 90.8807 529.831 91.1327 530.242 91.534C530.653 91.9353 530.858 92.4627 530.858 93.116C530.858 93.6947 530.718 94.2127 530.438 94.67C530.158 95.1273 529.724 95.4867 529.136 95.748C528.557 96.0093 527.811 96.14 526.896 96.14C526.345 96.14 525.837 96.0933 525.37 96C524.913 95.916 524.479 95.7807 524.068 95.594V94.04C524.488 94.2547 524.936 94.418 525.412 94.53C525.888 94.642 526.336 94.698 526.756 94.698C527.568 94.698 528.142 94.5533 528.478 94.264C528.814 93.9653 528.982 93.5547 528.982 93.032C528.982 92.5373 528.786 92.1687 528.394 91.926C528.002 91.6833 527.349 91.562 526.434 91.562H525.594V90.148H526.448C527.335 90.148 527.946 90.0033 528.282 89.714C528.618 89.4247 528.786 89.0513 528.786 88.594C528.786 88.1927 528.655 87.88 528.394 87.656C528.133 87.432 527.741 87.32 527.218 87.32C526.714 87.32 526.28 87.404 525.916 87.572C525.552 87.7307 525.225 87.9033 524.936 88.09L524.096 86.872C524.479 86.592 524.931 86.354 525.454 86.158C525.977 85.962 526.593 85.864 527.302 85.864C528.338 85.864 529.136 86.0833 529.696 86.522C530.265 86.9607 530.55 87.5487 530.55 88.286Z" fill="white"/>
<defs>
<filter id="filter0_d_8298_498244" x="420" y="84" width="22" height="22" filterUnits="userSpaceOnUse" color-interpolation-filters="sRGB">
<feFlood flood-opacity="0" result="BackgroundImageFix"/>
<feColorMatrix in="SourceAlpha" type="matrix" values="0 0 0 0 0 0 0 0 0 0 0 0 0 0 0 0 0 0 127 0" result="hardAlpha"/>
<feOffset dy="4"/>
<feGaussianBlur stdDeviation="2"/>
<feColorMatrix type="matrix" values="0 0 0 0 0 0 0 0 0 0 0 0 0 0 0 0 0 0 0.25 0"/>
<feBlend mode="normal" in2="BackgroundImageFix" result="effect1_dropShadow_8298_498244"/>
<feBlend mode="normal" in="SourceGraphic" in2="effect1_dropShadow_8298_498244" result="shape"/>
</filter>
</defs>
</svg>
