<svg width="428" height="98" viewBox="0 0 428 98" fill="none" xmlns="http://www.w3.org/2000/svg">
<rect width="428" height="98" fill="white"/>
<rect x="171" y="23" width="32" height="16" rx="8" fill="#1B77AF"/>
<g filter="url(#filter0_d_8276_503605)">
<circle cx="195" cy="31" r="7" fill="white"/>
</g>
<path d="M198.771 28.4498L194.571 34.1498C194.571 34.2498 194.371 34.4498 194.071 34.4498C193.871 34.4498 193.771 34.3498 193.671 34.2498L191.271 31.7498C191.071 31.5498 191.071 31.1498 191.271 30.8498C191.471 30.6498 191.971 30.6498 192.171 30.8498L194.071 32.8498L197.771 27.7498C197.871 27.6498 197.971 27.5498 198.171 27.5498C198.371 27.5498 198.471 27.5498 198.671 27.6498C198.871 27.7498 198.971 28.1498 198.771 28.4498Z" fill="#1B77AF"/>
<path d="M221.08 30.988C221.08 32.024 220.903 32.9293 220.548 33.704C220.203 34.4693 219.685 35.0667 218.994 35.496C218.313 35.9253 217.473 36.14 216.474 36.14C215.438 36.14 214.575 35.9253 213.884 35.496C213.203 35.0667 212.694 34.4647 212.358 33.69C212.022 32.9153 211.854 32.01 211.854 30.974C211.854 29.9567 212.022 29.0653 212.358 28.3C212.694 27.5253 213.203 26.9233 213.884 26.494C214.575 26.0647 215.443 25.85 216.488 25.85C217.487 25.85 218.327 26.0647 219.008 26.494C219.689 26.914 220.203 27.5113 220.548 28.286C220.903 29.0513 221.08 29.952 221.08 30.988ZM213.184 30.988C213.184 32.248 213.45 33.242 213.982 33.97C214.514 34.6887 215.345 35.048 216.474 35.048C217.603 35.048 218.429 34.6887 218.952 33.97C219.484 33.242 219.75 32.248 219.75 30.988C219.75 29.728 219.489 28.7433 218.966 28.034C218.443 27.3153 217.617 26.956 216.488 26.956C215.349 26.956 214.514 27.3153 213.982 28.034C213.45 28.7433 213.184 29.728 213.184 30.988ZM226.698 28.356C227.622 28.356 228.364 28.678 228.924 29.322C229.493 29.966 229.778 30.9367 229.778 32.234C229.778 33.5127 229.493 34.4833 228.924 35.146C228.364 35.8087 227.617 36.14 226.684 36.14C226.105 36.14 225.624 36.0327 225.242 35.818C224.868 35.6033 224.574 35.3467 224.36 35.048H224.276C224.285 35.2067 224.299 35.4073 224.318 35.65C224.346 35.8927 224.36 36.1027 224.36 36.28V39.36H223.128V28.496H224.136L224.304 29.518H224.36C224.584 29.1913 224.878 28.916 225.242 28.692C225.606 28.468 226.091 28.356 226.698 28.356ZM226.474 29.392C225.708 29.392 225.167 29.6067 224.85 30.036C224.532 30.4653 224.369 31.1187 224.36 31.996V32.234C224.36 33.158 224.509 33.872 224.808 34.376C225.116 34.8707 225.68 35.118 226.502 35.118C226.95 35.118 227.323 34.9967 227.622 34.754C227.92 34.502 228.14 34.1567 228.28 33.718C228.429 33.2793 228.504 32.78 228.504 32.22C228.504 31.3613 228.336 30.6753 228 30.162C227.673 29.6487 227.164 29.392 226.474 29.392ZM234.247 35.132C234.433 35.132 234.625 35.118 234.821 35.09C235.017 35.062 235.175 35.0247 235.297 34.978V35.916C235.166 35.9813 234.979 36.0327 234.737 36.07C234.494 36.1167 234.261 36.14 234.037 36.14C233.645 36.14 233.281 36.0747 232.945 35.944C232.618 35.804 232.352 35.566 232.147 35.23C231.941 34.894 231.839 34.4227 231.839 33.816V29.448H230.775V28.86L231.853 28.37L232.343 26.774H233.071V28.496H235.241V29.448H233.071V33.788C233.071 34.2453 233.178 34.586 233.393 34.81C233.617 35.0247 233.901 35.132 234.247 35.132ZM237.429 25.682C237.616 25.682 237.779 25.7473 237.919 25.878C238.069 25.9993 238.143 26.1953 238.143 26.466C238.143 26.7367 238.069 26.9373 237.919 27.068C237.779 27.1893 237.616 27.25 237.429 27.25C237.224 27.25 237.051 27.1893 236.911 27.068C236.771 26.9373 236.701 26.7367 236.701 26.466C236.701 26.1953 236.771 25.9993 236.911 25.878C237.051 25.7473 237.224 25.682 237.429 25.682ZM238.031 28.496V36H236.799V28.496H238.031ZM246.933 32.234C246.933 33.4753 246.615 34.4367 245.981 35.118C245.355 35.7993 244.506 36.14 243.433 36.14C242.77 36.14 242.177 35.9907 241.655 35.692C241.141 35.384 240.735 34.9407 240.437 34.362C240.138 33.774 239.989 33.0647 239.989 32.234C239.989 30.9927 240.297 30.036 240.913 29.364C241.538 28.692 242.392 28.356 243.475 28.356C244.147 28.356 244.744 28.51 245.267 28.818C245.789 29.1167 246.195 29.5553 246.485 30.134C246.783 30.7033 246.933 31.4033 246.933 32.234ZM241.263 32.234C241.263 33.1207 241.435 33.8253 241.781 34.348C242.135 34.8613 242.695 35.118 243.461 35.118C244.217 35.118 244.772 34.8613 245.127 34.348C245.481 33.8253 245.659 33.1207 245.659 32.234C245.659 31.3473 245.481 30.652 245.127 30.148C244.772 29.644 244.212 29.392 243.447 29.392C242.681 29.392 242.126 29.644 241.781 30.148C241.435 30.652 241.263 31.3473 241.263 32.234ZM252.497 28.356C253.393 28.356 254.07 28.5753 254.527 29.014C254.985 29.4527 255.213 30.1527 255.213 31.114V36H253.995V31.198C253.995 29.994 253.435 29.392 252.315 29.392C251.485 29.392 250.911 29.6253 250.593 30.092C250.276 30.5587 250.117 31.2307 250.117 32.108V36H248.885V28.496H249.879L250.061 29.518H250.131C250.374 29.126 250.71 28.8367 251.139 28.65C251.569 28.454 252.021 28.356 252.497 28.356Z" fill="black"/>
<rect opacity="0.4" x="203" y="21" width="8" height="20" fill="white"/>
<rect opacity="0.12" x="203" y="21" width="8" height="20" fill="#E60074"/>
<path opacity="0.5" d="M211 21L211 41" stroke="#E60074" stroke-dasharray="3 3"/>
<path opacity="0.5" d="M203 21L203 41" stroke="#E60074" stroke-dasharray="3 3"/>
<path d="M207 41V57" stroke="#E60074"/>
<path d="M197.018 61.878C197.596 61.878 198.119 61.9667 198.586 62.144C199.052 62.3213 199.426 62.592 199.706 62.956C199.986 63.3107 200.126 63.7493 200.126 64.272C200.126 64.8693 199.948 65.364 199.594 65.756C199.239 66.1387 198.805 66.4607 198.292 66.722C198.674 66.918 199.029 67.1373 199.356 67.38C199.682 67.6227 199.944 67.912 200.14 68.248C200.345 68.5747 200.448 68.962 200.448 69.41C200.448 69.9607 200.303 70.4413 200.014 70.852C199.724 71.2627 199.323 71.58 198.81 71.804C198.306 72.028 197.713 72.14 197.032 72.14C195.921 72.14 195.067 71.902 194.47 71.426C193.872 70.95 193.574 70.2967 193.574 69.466C193.574 69.0087 193.662 68.612 193.84 68.276C194.017 67.94 194.255 67.6507 194.554 67.408C194.852 67.1653 195.184 66.9553 195.548 66.778C195.09 66.498 194.698 66.162 194.372 65.77C194.054 65.3687 193.896 64.8647 193.896 64.258C193.896 63.7447 194.036 63.3107 194.316 62.956C194.605 62.6013 194.983 62.3353 195.45 62.158C195.926 61.9713 196.448 61.878 197.018 61.878ZM197.004 63.208C196.593 63.208 196.252 63.3107 195.982 63.516C195.72 63.7213 195.59 64.0107 195.59 64.384C195.59 64.7947 195.73 65.1213 196.01 65.364C196.29 65.6067 196.63 65.8167 197.032 65.994C197.414 65.826 197.741 65.6207 198.012 65.378C198.292 65.1353 198.432 64.804 198.432 64.384C198.432 64.0107 198.296 63.7213 198.026 63.516C197.764 63.3107 197.424 63.208 197.004 63.208ZM195.254 69.382C195.254 69.7927 195.398 70.1333 195.688 70.404C195.977 70.6653 196.416 70.796 197.004 70.796C197.582 70.796 198.021 70.6653 198.32 70.404C198.618 70.1427 198.768 69.802 198.768 69.382C198.768 68.962 198.6 68.612 198.264 68.332C197.928 68.052 197.531 67.8093 197.074 67.604L196.878 67.506C196.374 67.7393 195.977 68.0053 195.688 68.304C195.398 68.5933 195.254 68.9527 195.254 69.382ZM209.786 64.272C210.673 64.272 211.387 64.6033 211.928 65.266C212.469 65.9193 212.74 66.8947 212.74 68.192C212.74 69.4893 212.46 70.474 211.9 71.146C211.349 71.8087 210.631 72.14 209.744 72.14C209.184 72.14 208.731 72.0373 208.386 71.832C208.041 71.6267 207.765 71.3887 207.56 71.118H207.448C207.476 71.2953 207.499 71.4867 207.518 71.692C207.546 71.8973 207.56 72.0933 207.56 72.28V75.36H205.796V64.412H207.224L207.476 65.42H207.56C207.775 65.1027 208.055 64.832 208.4 64.608C208.745 64.384 209.207 64.272 209.786 64.272ZM209.282 65.7C208.657 65.7 208.213 65.8867 207.952 66.26C207.7 66.6333 207.569 67.198 207.56 67.954V68.178C207.56 68.99 207.681 69.6153 207.924 70.054C208.176 70.4833 208.638 70.698 209.31 70.698C209.861 70.698 210.267 70.474 210.528 70.026C210.799 69.5687 210.934 68.948 210.934 68.164C210.934 67.38 210.799 66.7733 210.528 66.344C210.267 65.9147 209.851 65.7 209.282 65.7ZM215.924 68.122L213.418 64.412H215.42L217.072 66.988L218.724 64.412H220.726L218.192 68.122L220.852 72H218.85L217.072 69.242L215.294 72H213.292L215.924 68.122Z" fill="#E60074"/>
<defs>
<filter id="filter0_d_8276_503605" x="184" y="24" width="22" height="22" filterUnits="userSpaceOnUse" color-interpolation-filters="sRGB">
<feFlood flood-opacity="0" result="BackgroundImageFix"/>
<feColorMatrix in="SourceAlpha" type="matrix" values="0 0 0 0 0 0 0 0 0 0 0 0 0 0 0 0 0 0 127 0" result="hardAlpha"/>
<feOffset dy="4"/>
<feGaussianBlur stdDeviation="2"/>
<feColorMatrix type="matrix" values="0 0 0 0 0 0 0 0 0 0 0 0 0 0 0 0 0 0 0.25 0"/>
<feBlend mode="normal" in2="BackgroundImageFix" result="effect1_dropShadow_8276_503605"/>
<feBlend mode="normal" in="SourceGraphic" in2="effect1_dropShadow_8276_503605" result="shape"/>
</filter>
</defs>
</svg>
