<svg width="238" height="77" viewBox="0 0 238 77" fill="none" xmlns="http://www.w3.org/2000/svg">
<rect width="238" height="77" fill="white"/>
<rect x="76" y="30.5" width="32" height="16" rx="8" fill="#939393"/>
<g filter="url(#filter0_d_8249_481495)">
<circle cx="84" cy="38.5" r="7" fill="white"/>
</g>
<path d="M87.3249 41.1251C87.5249 41.3251 87.5249 41.6251 87.3249 41.8251C87.3249 41.9251 87.1249 42.0251 87.0249 42.0251C86.8249 42.0251 86.7249 41.9251 86.7249 41.9251L84.0249 39.2251L81.3249 41.9251C81.3249 42.0251 81.1249 42.0251 81.0249 42.0251C80.9249 42.0251 80.7249 41.9251 80.7249 41.9251C80.6249 41.8251 80.5249 41.6251 80.5249 41.5251C80.5249 41.4251 80.6249 41.2251 80.7249 41.1251L83.3249 38.5251L80.7249 35.9251C80.6249 35.8251 80.5249 35.6251 80.5249 35.5251C80.5249 35.4251 80.6249 35.2251 80.7249 35.1251C80.9249 34.9251 81.2249 34.9251 81.4249 35.1251L84.0249 37.7251L86.6249 35.1251C86.8249 34.9251 87.1249 34.9251 87.3249 35.1251C87.5249 35.3251 87.5249 35.6251 87.3249 35.8251L84.7249 38.5251L87.3249 41.1251Z" fill="#939393"/>
<path d="M126.08 38.488C126.08 39.524 125.903 40.4293 125.548 41.204C125.203 41.9693 124.685 42.5667 123.994 42.996C123.313 43.4253 122.473 43.64 121.474 43.64C120.438 43.64 119.575 43.4253 118.884 42.996C118.203 42.5667 117.694 41.9647 117.358 41.19C117.022 40.4153 116.854 39.51 116.854 38.474C116.854 37.4567 117.022 36.5653 117.358 35.8C117.694 35.0253 118.203 34.4233 118.884 33.994C119.575 33.5647 120.443 33.35 121.488 33.35C122.487 33.35 123.327 33.5647 124.008 33.994C124.689 34.414 125.203 35.0113 125.548 35.786C125.903 36.5513 126.08 37.452 126.08 38.488ZM118.184 38.488C118.184 39.748 118.45 40.742 118.982 41.47C119.514 42.1887 120.345 42.548 121.474 42.548C122.603 42.548 123.429 42.1887 123.952 41.47C124.484 40.742 124.75 39.748 124.75 38.488C124.75 37.228 124.489 36.2433 123.966 35.534C123.443 34.8153 122.617 34.456 121.488 34.456C120.349 34.456 119.514 34.8153 118.982 35.534C118.45 36.2433 118.184 37.228 118.184 38.488ZM131.698 35.856C132.622 35.856 133.364 36.178 133.924 36.822C134.493 37.466 134.778 38.4367 134.778 39.734C134.778 41.0127 134.493 41.9833 133.924 42.646C133.364 43.3087 132.617 43.64 131.684 43.64C131.105 43.64 130.624 43.5327 130.242 43.318C129.868 43.1033 129.574 42.8467 129.36 42.548H129.276C129.285 42.7067 129.299 42.9073 129.318 43.15C129.346 43.3927 129.36 43.6027 129.36 43.78V46.86H128.128V35.996H129.136L129.304 37.018H129.36C129.584 36.6913 129.878 36.416 130.242 36.192C130.606 35.968 131.091 35.856 131.698 35.856ZM131.474 36.892C130.708 36.892 130.167 37.1067 129.85 37.536C129.532 37.9653 129.369 38.6187 129.36 39.496V39.734C129.36 40.658 129.509 41.372 129.808 41.876C130.116 42.3707 130.68 42.618 131.502 42.618C131.95 42.618 132.323 42.4967 132.622 42.254C132.92 42.002 133.14 41.6567 133.28 41.218C133.429 40.7793 133.504 40.28 133.504 39.72C133.504 38.8613 133.336 38.1753 133 37.662C132.673 37.1487 132.164 36.892 131.474 36.892ZM139.247 42.632C139.433 42.632 139.625 42.618 139.821 42.59C140.017 42.562 140.175 42.5247 140.297 42.478V43.416C140.166 43.4813 139.979 43.5327 139.737 43.57C139.494 43.6167 139.261 43.64 139.037 43.64C138.645 43.64 138.281 43.5747 137.945 43.444C137.618 43.304 137.352 43.066 137.147 42.73C136.941 42.394 136.839 41.9227 136.839 41.316V36.948H135.775V36.36L136.853 35.87L137.343 34.274H138.071V35.996H140.241V36.948H138.071V41.288C138.071 41.7453 138.178 42.086 138.393 42.31C138.617 42.5247 138.901 42.632 139.247 42.632ZM142.429 33.182C142.616 33.182 142.779 33.2473 142.919 33.378C143.069 33.4993 143.143 33.6953 143.143 33.966C143.143 34.2367 143.069 34.4373 142.919 34.568C142.779 34.6893 142.616 34.75 142.429 34.75C142.224 34.75 142.051 34.6893 141.911 34.568C141.771 34.4373 141.701 34.2367 141.701 33.966C141.701 33.6953 141.771 33.4993 141.911 33.378C142.051 33.2473 142.224 33.182 142.429 33.182ZM143.031 35.996V43.5H141.799V35.996H143.031ZM151.933 39.734C151.933 40.9753 151.615 41.9367 150.981 42.618C150.355 43.2993 149.506 43.64 148.433 43.64C147.77 43.64 147.177 43.4907 146.655 43.192C146.141 42.884 145.735 42.4407 145.437 41.862C145.138 41.274 144.989 40.5647 144.989 39.734C144.989 38.4927 145.297 37.536 145.913 36.864C146.538 36.192 147.392 35.856 148.475 35.856C149.147 35.856 149.744 36.01 150.267 36.318C150.789 36.6167 151.195 37.0553 151.485 37.634C151.783 38.2033 151.933 38.9033 151.933 39.734ZM146.263 39.734C146.263 40.6207 146.435 41.3253 146.781 41.848C147.135 42.3613 147.695 42.618 148.461 42.618C149.217 42.618 149.772 42.3613 150.127 41.848C150.481 41.3253 150.659 40.6207 150.659 39.734C150.659 38.8473 150.481 38.152 150.127 37.648C149.772 37.144 149.212 36.892 148.447 36.892C147.681 36.892 147.126 37.144 146.781 37.648C146.435 38.152 146.263 38.8473 146.263 39.734ZM157.497 35.856C158.393 35.856 159.07 36.0753 159.527 36.514C159.985 36.9527 160.213 37.6527 160.213 38.614V43.5H158.995V38.698C158.995 37.494 158.435 36.892 157.315 36.892C156.485 36.892 155.911 37.1253 155.593 37.592C155.276 38.0587 155.117 38.7307 155.117 39.608V43.5H153.885V35.996H154.879L155.061 37.018H155.131C155.374 36.626 155.71 36.3367 156.139 36.15C156.569 35.954 157.021 35.856 157.497 35.856Z" fill="black"/>
<defs>
<filter id="filter0_d_8249_481495" x="73" y="31.5" width="22" height="22" filterUnits="userSpaceOnUse" color-interpolation-filters="sRGB">
<feFlood flood-opacity="0" result="BackgroundImageFix"/>
<feColorMatrix in="SourceAlpha" type="matrix" values="0 0 0 0 0 0 0 0 0 0 0 0 0 0 0 0 0 0 127 0" result="hardAlpha"/>
<feOffset dy="4"/>
<feGaussianBlur stdDeviation="2"/>
<feColorMatrix type="matrix" values="0 0 0 0 0 0 0 0 0 0 0 0 0 0 0 0 0 0 0.25 0"/>
<feBlend mode="normal" in2="BackgroundImageFix" result="effect1_dropShadow_8249_481495"/>
<feBlend mode="normal" in="SourceGraphic" in2="effect1_dropShadow_8249_481495" result="shape"/>
</filter>
</defs>
</svg>
