<svg width="174" height="66" viewBox="0 0 174 66" fill="none" xmlns="http://www.w3.org/2000/svg">
<rect x="42" y="43" width="32" height="16" rx="8" fill="#1473E6"/>
<g filter="url(#filter0_d_8298_498132)">
<circle cx="66" cy="51" r="7" fill="white"/>
</g>
<path d="M69.7706 48.45L65.5706 54.15C65.5706 54.25 65.3706 54.45 65.0706 54.45C64.8706 54.45 64.7706 54.35 64.6706 54.25L62.2706 51.75C62.0706 51.55 62.0706 51.15 62.2706 50.85C62.4706 50.65 62.9706 50.65 63.1706 50.85L65.0706 52.85L68.7706 47.75C68.8706 47.65 68.9706 47.55 69.1706 47.55C69.3706 47.55 69.4706 47.55 69.6706 47.65C69.8706 47.75 69.9706 48.15 69.7706 48.45Z" fill="#1473E6"/>
<path d="M92.08 50.988C92.08 52.024 91.9027 52.9293 91.548 53.704C91.2027 54.4693 90.6847 55.0667 89.994 55.496C89.3127 55.9253 88.4727 56.14 87.474 56.14C86.438 56.14 85.5747 55.9253 84.884 55.496C84.2027 55.0667 83.694 54.4647 83.358 53.69C83.022 52.9153 82.854 52.01 82.854 50.974C82.854 49.9567 83.022 49.0653 83.358 48.3C83.694 47.5253 84.2027 46.9233 84.884 46.494C85.5747 46.0647 86.4427 45.85 87.488 45.85C88.4867 45.85 89.3267 46.0647 90.008 46.494C90.6893 46.914 91.2027 47.5113 91.548 48.286C91.9027 49.0513 92.08 49.952 92.08 50.988ZM84.184 50.988C84.184 52.248 84.45 53.242 84.982 53.97C85.514 54.6887 86.3447 55.048 87.474 55.048C88.6033 55.048 89.4293 54.6887 89.952 53.97C90.484 53.242 90.75 52.248 90.75 50.988C90.75 49.728 90.4887 48.7433 89.966 48.034C89.4433 47.3153 88.6173 46.956 87.488 46.956C86.3493 46.956 85.514 47.3153 84.982 48.034C84.45 48.7433 84.184 49.728 84.184 50.988ZM97.6975 48.356C98.6215 48.356 99.3635 48.678 99.9235 49.322C100.493 49.966 100.778 50.9367 100.778 52.234C100.778 53.5127 100.493 54.4833 99.9235 55.146C99.3635 55.8087 98.6168 56.14 97.6835 56.14C97.1048 56.14 96.6242 56.0327 96.2415 55.818C95.8682 55.6033 95.5742 55.3467 95.3595 55.048H95.2755C95.2848 55.2067 95.2988 55.4073 95.3175 55.65C95.3455 55.8927 95.3595 56.1027 95.3595 56.28V59.36H94.1275V48.496H95.1355L95.3035 49.518H95.3595C95.5835 49.1913 95.8775 48.916 96.2415 48.692C96.6055 48.468 97.0908 48.356 97.6975 48.356ZM97.4735 49.392C96.7082 49.392 96.1668 49.6067 95.8495 50.036C95.5322 50.4653 95.3688 51.1187 95.3595 51.996V52.234C95.3595 53.158 95.5088 53.872 95.8075 54.376C96.1155 54.8707 96.6802 55.118 97.5015 55.118C97.9495 55.118 98.3228 54.9967 98.6215 54.754C98.9202 54.502 99.1395 54.1567 99.2795 53.718C99.4288 53.2793 99.5035 52.78 99.5035 52.22C99.5035 51.3613 99.3355 50.6753 98.9995 50.162C98.6728 49.6487 98.1642 49.392 97.4735 49.392ZM105.247 55.132C105.433 55.132 105.625 55.118 105.821 55.09C106.017 55.062 106.175 55.0247 106.297 54.978V55.916C106.166 55.9813 105.979 56.0327 105.737 56.07C105.494 56.1167 105.261 56.14 105.037 56.14C104.645 56.14 104.281 56.0747 103.945 55.944C103.618 55.804 103.352 55.566 103.147 55.23C102.941 54.894 102.839 54.4227 102.839 53.816V49.448H101.775V48.86L102.853 48.37L103.343 46.774H104.071V48.496H106.241V49.448H104.071V53.788C104.071 54.2453 104.178 54.586 104.393 54.81C104.617 55.0247 104.901 55.132 105.247 55.132ZM108.429 45.682C108.616 45.682 108.779 45.7473 108.919 45.878C109.069 45.9993 109.143 46.1953 109.143 46.466C109.143 46.7367 109.069 46.9373 108.919 47.068C108.779 47.1893 108.616 47.25 108.429 47.25C108.224 47.25 108.051 47.1893 107.911 47.068C107.771 46.9373 107.701 46.7367 107.701 46.466C107.701 46.1953 107.771 45.9993 107.911 45.878C108.051 45.7473 108.224 45.682 108.429 45.682ZM109.031 48.496V56H107.799V48.496H109.031ZM117.933 52.234C117.933 53.4753 117.615 54.4367 116.981 55.118C116.355 55.7993 115.506 56.14 114.433 56.14C113.77 56.14 113.177 55.9907 112.655 55.692C112.141 55.384 111.735 54.9407 111.437 54.362C111.138 53.774 110.989 53.0647 110.989 52.234C110.989 50.9927 111.297 50.036 111.913 49.364C112.538 48.692 113.392 48.356 114.475 48.356C115.147 48.356 115.744 48.51 116.267 48.818C116.789 49.1167 117.195 49.5553 117.485 50.134C117.783 50.7033 117.933 51.4033 117.933 52.234ZM112.263 52.234C112.263 53.1207 112.435 53.8253 112.781 54.348C113.135 54.8613 113.695 55.118 114.461 55.118C115.217 55.118 115.772 54.8613 116.127 54.348C116.481 53.8253 116.659 53.1207 116.659 52.234C116.659 51.3473 116.481 50.652 116.127 50.148C115.772 49.644 115.212 49.392 114.447 49.392C113.681 49.392 113.126 49.644 112.781 50.148C112.435 50.652 112.263 51.3473 112.263 52.234ZM123.497 48.356C124.393 48.356 125.07 48.5753 125.527 49.014C125.985 49.4527 126.213 50.1527 126.213 51.114V56H124.995V51.198C124.995 49.994 124.435 49.392 123.315 49.392C122.485 49.392 121.911 49.6253 121.593 50.092C121.276 50.5587 121.117 51.2307 121.117 52.108V56H119.885V48.496H120.879L121.061 49.518H121.131C121.374 49.126 121.71 48.8367 122.139 48.65C122.569 48.454 123.021 48.356 123.497 48.356Z" fill="black"/>
<circle cx="66" cy="12" r="12" fill="#E60074"/>
<path d="M69.9421 17H63.0961V15.698L65.6441 13.122C66.1481 12.6087 66.5588 12.17 66.8761 11.806C67.2028 11.442 67.4408 11.1013 67.5901 10.784C67.7488 10.4573 67.8281 10.1073 67.8281 9.734C67.8281 9.27667 67.6975 8.936 67.4361 8.712C67.1841 8.47867 66.8388 8.362 66.4001 8.362C65.9801 8.362 65.5881 8.45067 65.2241 8.628C64.8601 8.796 64.4821 9.03867 64.0901 9.356L63.1241 8.194C63.5348 7.83933 63.9968 7.53133 64.5101 7.27C65.0328 6.99933 65.6955 6.864 66.4981 6.864C67.1421 6.864 67.6928 6.98067 68.1501 7.214C68.6168 7.438 68.9761 7.75533 69.2281 8.166C69.4801 8.56733 69.6061 9.02933 69.6061 9.552C69.6061 10.0933 69.4988 10.5927 69.2841 11.05C69.0695 11.498 68.7568 11.9507 68.3461 12.408C67.9448 12.856 67.4641 13.3413 66.9041 13.864L65.3221 15.39V15.474H69.9421V17Z" fill="white"/>
<path d="M66 24V44" stroke="#E60074"/>
<circle cx="12" cy="51" r="12" fill="#E60074"/>
<path d="M13.9681 56H12.2041V49.77C12.2041 49.4713 12.2088 49.154 12.2181 48.818C12.2275 48.482 12.2415 48.1693 12.2601 47.88C12.1668 47.9733 12.0501 48.0853 11.9101 48.216C11.7795 48.3467 11.6348 48.4727 11.4761 48.594L10.3561 49.49L9.47414 48.398L12.4981 46.004H13.9681V56Z" fill="white"/>
<path d="M24 51H42" stroke="#E60074"/>
<path d="M132 51H150" stroke="#E60074"/>
<circle cx="162" cy="51" r="12" fill="#E60074"/>
<path d="M165.55 48.286C165.55 48.9673 165.349 49.5133 164.948 49.924C164.556 50.3253 164.047 50.596 163.422 50.736V50.778C164.225 50.8807 164.831 51.1327 165.242 51.534C165.653 51.9353 165.858 52.4627 165.858 53.116C165.858 53.6947 165.718 54.2127 165.438 54.67C165.158 55.1273 164.724 55.4867 164.136 55.748C163.557 56.0093 162.811 56.14 161.896 56.14C161.345 56.14 160.837 56.0933 160.37 56C159.913 55.916 159.479 55.7807 159.068 55.594V54.04C159.488 54.2547 159.936 54.418 160.412 54.53C160.888 54.642 161.336 54.698 161.756 54.698C162.568 54.698 163.142 54.5533 163.478 54.264C163.814 53.9653 163.982 53.5547 163.982 53.032C163.982 52.5373 163.786 52.1687 163.394 51.926C163.002 51.6833 162.349 51.562 161.434 51.562H160.594V50.148H161.448C162.335 50.148 162.946 50.0033 163.282 49.714C163.618 49.4247 163.786 49.0513 163.786 48.594C163.786 48.1927 163.655 47.88 163.394 47.656C163.133 47.432 162.741 47.32 162.218 47.32C161.714 47.32 161.28 47.404 160.916 47.572C160.552 47.7307 160.225 47.9033 159.936 48.09L159.096 46.872C159.479 46.592 159.931 46.354 160.454 46.158C160.977 45.962 161.593 45.864 162.302 45.864C163.338 45.864 164.136 46.0833 164.696 46.522C165.265 46.9607 165.55 47.5487 165.55 48.286Z" fill="white"/>
<defs>
<filter id="filter0_d_8298_498132" x="55" y="44" width="22" height="22" filterUnits="userSpaceOnUse" color-interpolation-filters="sRGB">
<feFlood flood-opacity="0" result="BackgroundImageFix"/>
<feColorMatrix in="SourceAlpha" type="matrix" values="0 0 0 0 0 0 0 0 0 0 0 0 0 0 0 0 0 0 127 0" result="hardAlpha"/>
<feOffset dy="4"/>
<feGaussianBlur stdDeviation="2"/>
<feColorMatrix type="matrix" values="0 0 0 0 0 0 0 0 0 0 0 0 0 0 0 0 0 0 0.25 0"/>
<feBlend mode="normal" in2="BackgroundImageFix" result="effect1_dropShadow_8298_498132"/>
<feBlend mode="normal" in="SourceGraphic" in2="effect1_dropShadow_8298_498132" result="shape"/>
</filter>
</defs>
</svg>
