<svg width="408" height="176" viewBox="0 0 408 176" fill="none" xmlns="http://www.w3.org/2000/svg">
<rect width="408" height="176" transform="translate(0.000976562)" fill="white"/>
<path d="M256.702 91.1002C256.702 91.1002 235.902 118.5 203.702 118.5C171.502 118.5 152.902 91.1002 152.902 91.1002C152.902 91.1002 171.702 63.7002 203.802 63.7002C235.902 63.7002 256.702 91.1002 256.702 91.1002Z" stroke="#003A51" stroke-width="4" stroke-miterlimit="10"/>
<path d="M204.804 112.3C216.512 112.3 226.004 102.809 226.004 91.1004C226.004 79.392 216.512 69.9004 204.804 69.9004C193.095 69.9004 183.604 79.392 183.604 91.1004C183.604 102.809 193.095 112.3 204.804 112.3Z" stroke="#1B77AF" stroke-width="4" stroke-miterlimit="10"/>
<path d="M153.002 125.3L198.002 51.2002H187.802L142.802 125.3H153.002Z" fill="#F1F1F1"/>
<path d="M136.002 136.5L194.502 40" stroke="#003A51" stroke-width="4" stroke-miterlimit="10"/>
<path d="M177.803 125.3L222.803 51.2002H212.603L167.603 125.3H177.803Z" fill="#F1F1F1"/>
<path d="M160.803 136.5L219.303 40" stroke="#003A51" stroke-width="4" stroke-miterlimit="10"/>
<path d="M202.603 125.3L247.603 51.2002H237.303L192.403 125.3H202.603Z" fill="#F1F1F1"/>
<path d="M185.604 136.5L244.104 40" stroke="#003A51" stroke-width="4" stroke-miterlimit="10"/>
<path d="M227.403 125.3L272.403 51.2002H262.103L217.103 125.3H227.403Z" fill="#F1F1F1"/>
<path d="M210.402 136.5L268.902 40" stroke="#003A51" stroke-width="4" stroke-miterlimit="10"/>
</svg>
