<svg width="412" height="200" viewBox="0 0 412 200" fill="none" xmlns="http://www.w3.org/2000/svg">
<rect width="412" height="200" fill="white"/>
<path d="M31.711 100.084C31.711 102.377 31.084 104.106 29.83 105.271C28.5887 106.424 26.8533 107 24.624 107H20.843V93.434H25.023C26.3783 93.434 27.5563 93.6873 28.557 94.194C29.5703 94.7007 30.3493 95.448 30.894 96.436C31.4387 97.424 31.711 98.64 31.711 100.084ZM29.906 100.141C29.906 98.3297 29.4563 97.006 28.557 96.17C27.6703 95.3213 26.41 94.897 24.776 94.897H22.553V105.537H24.396C28.0693 105.537 29.906 103.738 29.906 100.141ZM38.3509 96.645C39.5922 96.645 40.5106 96.9173 41.1059 97.462C41.7012 98.0067 41.9989 98.8743 41.9989 100.065V107H40.7829L40.4599 105.556H40.3839C39.9406 106.113 39.4719 106.525 38.9779 106.791C38.4839 107.057 37.8126 107.19 36.9639 107.19C36.0392 107.19 35.2729 106.949 34.6649 106.468C34.0569 105.974 33.7529 105.208 33.7529 104.169C33.7529 103.156 34.1519 102.377 34.9499 101.832C35.7479 101.275 36.9766 100.971 38.6359 100.92L40.3649 100.863V100.255C40.3649 99.4063 40.1812 98.8173 39.8139 98.488C39.4466 98.1587 38.9272 97.994 38.2559 97.994C37.7239 97.994 37.2172 98.0763 36.7359 98.241C36.2546 98.393 35.8049 98.5703 35.3869 98.773L34.8739 97.519C35.3172 97.2783 35.8429 97.0757 36.4509 96.911C37.0589 96.7337 37.6922 96.645 38.3509 96.645ZM40.3459 102.022L38.8449 102.079C37.5782 102.13 36.6979 102.332 36.2039 102.687C35.7226 103.042 35.4819 103.542 35.4819 104.188C35.4819 104.758 35.6529 105.176 35.9949 105.442C36.3496 105.708 36.7992 105.841 37.3439 105.841C38.1926 105.841 38.9019 105.607 39.4719 105.138C40.0546 104.657 40.3459 103.922 40.3459 102.934V102.022ZM51.7753 104.188C51.7753 105.176 51.408 105.923 50.6733 106.43C49.9386 106.937 48.9506 107.19 47.7093 107.19C47 107.19 46.3856 107.133 45.8663 107.019C45.3596 106.905 44.91 106.747 44.5173 106.544V105.024C44.9226 105.227 45.4103 105.417 45.9803 105.594C46.563 105.759 47.152 105.841 47.7473 105.841C48.596 105.841 49.2103 105.708 49.5903 105.442C49.9703 105.163 50.1603 104.796 50.1603 104.34C50.1603 104.087 50.0906 103.859 49.9513 103.656C49.812 103.453 49.5586 103.251 49.1913 103.048C48.8366 102.845 48.3236 102.617 47.6523 102.364C46.9936 102.111 46.43 101.857 45.9613 101.604C45.4926 101.351 45.1316 101.047 44.8783 100.692C44.625 100.337 44.4983 99.8813 44.4983 99.324C44.4983 98.4627 44.8466 97.7977 45.5433 97.329C46.2526 96.8603 47.1773 96.626 48.3173 96.626C48.938 96.626 49.5143 96.6893 50.0463 96.816C50.591 96.9427 51.0976 97.1073 51.5663 97.31L50.9963 98.64C50.5656 98.4627 50.116 98.3107 49.6473 98.184C49.1786 98.0573 48.6973 97.994 48.2033 97.994C47.5193 97.994 46.9936 98.108 46.6263 98.336C46.2716 98.5513 46.0943 98.849 46.0943 99.229C46.0943 99.5203 46.1766 99.761 46.3413 99.951C46.506 100.141 46.7783 100.331 47.1583 100.521C47.551 100.711 48.0703 100.926 48.7163 101.167C49.3623 101.408 49.9133 101.655 50.3693 101.908C50.8253 102.161 51.1736 102.472 51.4143 102.839C51.655 103.194 51.7753 103.643 51.7753 104.188ZM55.9081 92.56V96.797C55.9081 97.3037 55.8764 97.7787 55.8131 98.222H55.9271C56.2564 97.7027 56.6998 97.31 57.2571 97.044C57.8271 96.778 58.4414 96.645 59.1001 96.645C60.3288 96.645 61.2534 96.9427 61.8741 97.538C62.5074 98.1207 62.8241 99.0643 62.8241 100.369V107H61.1711V100.483C61.1711 98.849 60.4111 98.032 58.8911 98.032C57.7511 98.032 56.9658 98.355 56.5351 99.001C56.1171 99.6343 55.9081 100.546 55.9081 101.737V107H54.2361V92.56H55.9081ZM67.6532 92.56V96.075C67.6532 96.5057 67.6405 96.911 67.6152 97.291C67.6025 97.6583 67.5835 97.9497 67.5582 98.165H67.6532C67.9445 97.7343 68.3435 97.3733 68.8502 97.082C69.3569 96.7907 70.0092 96.645 70.8072 96.645C72.0739 96.645 73.0872 97.0883 73.8472 97.975C74.6199 98.849 75.0062 100.16 75.0062 101.908C75.0062 103.656 74.6199 104.973 73.8472 105.86C73.0745 106.747 72.0612 107.19 70.8072 107.19C70.0092 107.19 69.3569 107.044 68.8502 106.753C68.3435 106.462 67.9445 106.113 67.6532 105.708H67.5202L67.1782 107H65.9812V92.56H67.6532ZM70.5222 98.032C69.4329 98.032 68.6792 98.3423 68.2612 98.963C67.8559 99.5837 67.6532 100.546 67.6532 101.851V101.927C67.6532 103.181 67.8559 104.144 68.2612 104.815C68.6792 105.474 69.4455 105.803 70.5602 105.803C71.4722 105.803 72.1499 105.467 72.5932 104.796C73.0492 104.125 73.2772 103.156 73.2772 101.889C73.2772 99.3177 72.3589 98.032 70.5222 98.032ZM86.5247 101.889C86.5247 103.574 86.094 104.878 85.2327 105.803C84.384 106.728 83.2313 107.19 81.7747 107.19C80.8753 107.19 80.071 106.987 79.3617 106.582C78.665 106.164 78.114 105.562 77.7087 104.777C77.3033 103.979 77.1007 103.016 77.1007 101.889C77.1007 100.204 77.5187 98.906 78.3547 97.994C79.2033 97.082 80.3623 96.626 81.8317 96.626C82.7437 96.626 83.5543 96.835 84.2637 97.253C84.973 97.6583 85.524 98.2537 85.9167 99.039C86.322 99.8117 86.5247 100.762 86.5247 101.889ZM78.8297 101.889C78.8297 103.092 79.064 104.049 79.5327 104.758C80.014 105.455 80.774 105.803 81.8127 105.803C82.8387 105.803 83.5923 105.455 84.0737 104.758C84.555 104.049 84.7957 103.092 84.7957 101.889C84.7957 100.686 84.555 99.742 84.0737 99.058C83.5923 98.374 82.8323 98.032 81.7937 98.032C80.755 98.032 80.0013 98.374 79.5327 99.058C79.064 99.742 78.8297 100.686 78.8297 101.889ZM93.0316 96.645C94.2729 96.645 95.1912 96.9173 95.7866 97.462C96.3819 98.0067 96.6796 98.8743 96.6796 100.065V107H95.4636L95.1406 105.556H95.0646C94.6212 106.113 94.1526 106.525 93.6586 106.791C93.1646 107.057 92.4932 107.19 91.6446 107.19C90.7199 107.19 89.9536 106.949 89.3456 106.468C88.7376 105.974 88.4336 105.208 88.4336 104.169C88.4336 103.156 88.8326 102.377 89.6306 101.832C90.4286 101.275 91.6572 100.971 93.3166 100.92L95.0456 100.863V100.255C95.0456 99.4063 94.8619 98.8173 94.4946 98.488C94.1272 98.1587 93.6079 97.994 92.9366 97.994C92.4046 97.994 91.8979 98.0763 91.4166 98.241C90.9352 98.393 90.4856 98.5703 90.0676 98.773L89.5546 97.519C89.9979 97.2783 90.5236 97.0757 91.1316 96.911C91.7396 96.7337 92.3729 96.645 93.0316 96.645ZM95.0266 102.022L93.5256 102.079C92.2589 102.13 91.3786 102.332 90.8846 102.687C90.4032 103.042 90.1626 103.542 90.1626 104.188C90.1626 104.758 90.3336 105.176 90.6756 105.442C91.0302 105.708 91.4799 105.841 92.0246 105.841C92.8732 105.841 93.5826 105.607 94.1526 105.138C94.7352 104.657 95.0266 103.922 95.0266 102.934V102.022ZM104.575 96.626C104.765 96.626 104.968 96.6387 105.183 96.664C105.398 96.6767 105.595 96.702 105.772 96.74L105.563 98.279C105.398 98.241 105.215 98.2093 105.012 98.184C104.809 98.1587 104.626 98.146 104.461 98.146C103.942 98.146 103.454 98.2917 102.998 98.583C102.542 98.8617 102.175 99.2607 101.896 99.78C101.63 100.287 101.497 100.882 101.497 101.566V107H99.825V96.816H101.193L101.383 98.678H101.459C101.776 98.1207 102.194 97.6393 102.713 97.234C103.245 96.8287 103.866 96.626 104.575 96.626ZM110.913 107.19C109.646 107.19 108.633 106.753 107.873 105.879C107.113 104.992 106.733 103.675 106.733 101.927C106.733 100.179 107.113 98.8617 107.873 97.975C108.645 97.0757 109.665 96.626 110.932 96.626C111.717 96.626 112.357 96.7717 112.851 97.063C113.357 97.3543 113.769 97.709 114.086 98.127H114.2C114.174 97.9623 114.149 97.7217 114.124 97.405C114.098 97.0757 114.086 96.816 114.086 96.626V92.56H115.758V107H114.409L114.162 105.632H114.086C113.782 106.063 113.376 106.43 112.87 106.734C112.363 107.038 111.711 107.19 110.913 107.19ZM111.179 105.803C112.255 105.803 113.009 105.512 113.44 104.929C113.883 104.334 114.105 103.441 114.105 102.25V101.946C114.105 100.679 113.896 99.7103 113.478 99.039C113.06 98.355 112.287 98.013 111.16 98.013C110.26 98.013 109.583 98.374 109.127 99.096C108.683 99.8053 108.462 100.762 108.462 101.965C108.462 103.181 108.683 104.125 109.127 104.796C109.583 105.467 110.267 105.803 111.179 105.803Z" fill="#1B77AF"/>
<path d="M132.878 93.434L127.824 107H126.19L131.244 93.434H132.878Z" fill="black"/>
<path d="M149.657 94.745C148.2 94.745 147.054 95.2327 146.218 96.208C145.382 97.1833 144.964 98.5197 144.964 100.217C144.964 101.902 145.35 103.238 146.123 104.226C146.908 105.201 148.08 105.689 149.638 105.689C150.221 105.689 150.778 105.638 151.31 105.537C151.842 105.436 152.368 105.309 152.887 105.157V106.639C152.38 106.829 151.855 106.968 151.31 107.057C150.778 107.146 150.138 107.19 149.391 107.19C148.01 107.19 146.858 106.905 145.933 106.335C145.008 105.765 144.312 104.954 143.843 103.903C143.387 102.852 143.159 101.617 143.159 100.198C143.159 98.83 143.406 97.6267 143.9 96.588C144.407 95.5367 145.148 94.7197 146.123 94.137C147.098 93.5417 148.283 93.244 149.676 93.244C151.107 93.244 152.355 93.51 153.419 94.042L152.735 95.486C152.317 95.296 151.848 95.125 151.329 94.973C150.822 94.821 150.265 94.745 149.657 94.745ZM159.477 96.645C160.718 96.645 161.637 96.9173 162.232 97.462C162.827 98.0067 163.125 98.8743 163.125 100.065V107H161.909L161.586 105.556H161.51C161.067 106.113 160.598 106.525 160.104 106.791C159.61 107.057 158.939 107.19 158.09 107.19C157.165 107.19 156.399 106.949 155.791 106.468C155.183 105.974 154.879 105.208 154.879 104.169C154.879 103.156 155.278 102.377 156.076 101.832C156.874 101.275 158.103 100.971 159.762 100.92L161.491 100.863V100.255C161.491 99.4063 161.307 98.8173 160.94 98.488C160.573 98.1587 160.053 97.994 159.382 97.994C158.85 97.994 158.343 98.0763 157.862 98.241C157.381 98.393 156.931 98.5703 156.513 98.773L156 97.519C156.443 97.2783 156.969 97.0757 157.577 96.911C158.185 96.7337 158.818 96.645 159.477 96.645ZM161.472 102.022L159.971 102.079C158.704 102.13 157.824 102.332 157.33 102.687C156.849 103.042 156.608 103.542 156.608 104.188C156.608 104.758 156.779 105.176 157.121 105.442C157.476 105.708 157.925 105.841 158.47 105.841C159.319 105.841 160.028 105.607 160.598 105.138C161.181 104.657 161.472 103.922 161.472 102.934V102.022ZM167.942 107H166.27V92.56H167.942V107ZM175.102 96.626C175.963 96.626 176.71 96.816 177.344 97.196C177.977 97.576 178.458 98.1143 178.788 98.811C179.13 99.495 179.301 100.299 179.301 101.224V102.231H172.328C172.353 103.384 172.644 104.264 173.202 104.872C173.772 105.467 174.563 105.765 175.577 105.765C176.223 105.765 176.793 105.708 177.287 105.594C177.793 105.467 178.313 105.29 178.845 105.062V106.525C178.325 106.753 177.812 106.918 177.306 107.019C176.799 107.133 176.197 107.19 175.501 107.19C174.525 107.19 173.67 106.994 172.936 106.601C172.201 106.208 171.625 105.626 171.207 104.853C170.801 104.08 170.599 103.124 170.599 101.984C170.599 100.869 170.782 99.913 171.15 99.115C171.53 98.317 172.055 97.7027 172.727 97.272C173.411 96.8413 174.202 96.626 175.102 96.626ZM175.083 97.994C174.285 97.994 173.651 98.2537 173.183 98.773C172.727 99.2797 172.454 99.989 172.366 100.901H177.553C177.54 100.04 177.337 99.343 176.945 98.811C176.552 98.2663 175.931 97.994 175.083 97.994ZM186.795 96.626C188.011 96.626 188.93 96.9237 189.55 97.519C190.171 98.1143 190.481 99.0643 190.481 100.369V107H188.828V100.483C188.828 98.849 188.068 98.032 186.548 98.032C185.421 98.032 184.642 98.3487 184.211 98.982C183.781 99.6153 183.565 100.527 183.565 101.718V107H181.893V96.816H183.242L183.489 98.203H183.584C183.914 97.671 184.37 97.2783 184.952 97.025C185.535 96.759 186.149 96.626 186.795 96.626ZM197.248 107.19C195.982 107.19 194.968 106.753 194.208 105.879C193.448 104.992 193.068 103.675 193.068 101.927C193.068 100.179 193.448 98.8617 194.208 97.975C194.981 97.0757 196.001 96.626 197.267 96.626C198.053 96.626 198.692 96.7717 199.186 97.063C199.693 97.3543 200.105 97.709 200.421 98.127H200.535C200.51 97.9623 200.485 97.7217 200.459 97.405C200.434 97.0757 200.421 96.816 200.421 96.626V92.56H202.093V107H200.744L200.497 105.632H200.421C200.117 106.063 199.712 106.43 199.205 106.734C198.699 107.038 198.046 107.19 197.248 107.19ZM197.514 105.803C198.591 105.803 199.345 105.512 199.775 104.929C200.219 104.334 200.44 103.441 200.44 102.25V101.946C200.44 100.679 200.231 99.7103 199.813 99.039C199.395 98.355 198.623 98.013 197.495 98.013C196.596 98.013 195.918 98.374 195.462 99.096C195.019 99.8053 194.797 100.762 194.797 101.965C194.797 103.181 195.019 104.125 195.462 104.796C195.918 105.467 196.602 105.803 197.514 105.803ZM209.185 96.645C210.426 96.645 211.345 96.9173 211.94 97.462C212.535 98.0067 212.833 98.8743 212.833 100.065V107H211.617L211.294 105.556H211.218C210.775 106.113 210.306 106.525 209.812 106.791C209.318 107.057 208.647 107.19 207.798 107.19C206.873 107.19 206.107 106.949 205.499 106.468C204.891 105.974 204.587 105.208 204.587 104.169C204.587 103.156 204.986 102.377 205.784 101.832C206.582 101.275 207.811 100.971 209.47 100.92L211.199 100.863V100.255C211.199 99.4063 211.015 98.8173 210.648 98.488C210.281 98.1587 209.761 97.994 209.09 97.994C208.558 97.994 208.051 98.0763 207.57 98.241C207.089 98.393 206.639 98.5703 206.221 98.773L205.708 97.519C206.151 97.2783 206.677 97.0757 207.285 96.911C207.893 96.7337 208.526 96.645 209.185 96.645ZM211.18 102.022L209.679 102.079C208.412 102.13 207.532 102.332 207.038 102.687C206.557 103.042 206.316 103.542 206.316 104.188C206.316 104.758 206.487 105.176 206.829 105.442C207.184 105.708 207.633 105.841 208.178 105.841C209.027 105.841 209.736 105.607 210.306 105.138C210.889 104.657 211.18 103.922 211.18 102.934V102.022ZM220.728 96.626C220.918 96.626 221.121 96.6387 221.336 96.664C221.552 96.6767 221.748 96.702 221.925 96.74L221.716 98.279C221.552 98.241 221.368 98.2093 221.165 98.184C220.963 98.1587 220.779 98.146 220.614 98.146C220.095 98.146 219.607 98.2917 219.151 98.583C218.695 98.8617 218.328 99.2607 218.049 99.78C217.783 100.287 217.65 100.882 217.65 101.566V107H215.978V96.816H217.346L217.536 98.678H217.612C217.929 98.1207 218.347 97.6393 218.866 97.234C219.398 96.8287 220.019 96.626 220.728 96.626Z" fill="#1B77AF"/>
<path d="M237.878 93.434L232.824 107H231.19L236.244 93.434H237.878Z" fill="black"/>
<path d="M256.538 103.371C256.538 104.574 256.101 105.512 255.227 106.183C254.353 106.854 253.175 107.19 251.693 107.19C250.933 107.19 250.23 107.133 249.584 107.019C248.938 106.905 248.4 106.747 247.969 106.544V104.91C248.425 105.113 248.989 105.296 249.66 105.461C250.344 105.626 251.047 105.708 251.769 105.708C252.77 105.708 253.53 105.512 254.049 105.119C254.568 104.726 254.828 104.194 254.828 103.523C254.828 103.08 254.733 102.706 254.543 102.402C254.353 102.098 254.024 101.819 253.555 101.566C253.086 101.313 252.447 101.034 251.636 100.73C250.471 100.312 249.597 99.799 249.014 99.191C248.431 98.583 248.14 97.7533 248.14 96.702C248.14 95.9927 248.324 95.3783 248.691 94.859C249.058 94.3397 249.565 93.9407 250.211 93.662C250.857 93.3833 251.611 93.244 252.472 93.244C253.207 93.244 253.884 93.3137 254.505 93.453C255.126 93.5923 255.696 93.776 256.215 94.004L255.683 95.467C255.214 95.2643 254.701 95.0933 254.144 94.954C253.587 94.8147 253.017 94.745 252.434 94.745C251.585 94.745 250.946 94.9287 250.515 95.296C250.084 95.6507 249.869 96.1257 249.869 96.721C249.869 97.177 249.964 97.557 250.154 97.861C250.344 98.165 250.654 98.4437 251.085 98.697C251.516 98.9377 252.098 99.191 252.833 99.457C253.631 99.7483 254.302 100.065 254.847 100.407C255.404 100.736 255.822 101.135 256.101 101.604C256.392 102.073 256.538 102.662 256.538 103.371ZM263.128 107.19C262.216 107.19 261.411 107.006 260.715 106.639C260.018 106.272 259.467 105.702 259.062 104.929C258.669 104.156 258.473 103.168 258.473 101.965C258.473 100.711 258.675 99.6913 259.081 98.906C259.499 98.1207 260.069 97.5443 260.791 97.177C261.513 96.8097 262.33 96.626 263.242 96.626C263.748 96.626 264.242 96.683 264.724 96.797C265.218 96.8983 265.617 97.025 265.921 97.177L265.408 98.564C265.104 98.45 264.749 98.3423 264.344 98.241C263.938 98.1397 263.558 98.089 263.204 98.089C261.202 98.089 260.202 99.3747 260.202 101.946C260.202 103.175 260.442 104.118 260.924 104.777C261.418 105.423 262.146 105.746 263.109 105.746C263.653 105.746 264.141 105.689 264.572 105.575C265.002 105.461 265.395 105.322 265.75 105.157V106.639C265.408 106.816 265.028 106.949 264.61 107.038C264.204 107.139 263.71 107.19 263.128 107.19ZM269.844 92.56V96.797C269.844 97.3037 269.812 97.7787 269.749 98.222H269.863C270.192 97.7027 270.635 97.31 271.193 97.044C271.763 96.778 272.377 96.645 273.036 96.645C274.264 96.645 275.189 96.9427 275.81 97.538C276.443 98.1207 276.76 99.0643 276.76 100.369V107H275.107V100.483C275.107 98.849 274.347 98.032 272.827 98.032C271.687 98.032 270.901 98.355 270.471 99.001C270.053 99.6343 269.844 100.546 269.844 101.737V107H268.172V92.56H269.844ZM283.85 96.626C284.711 96.626 285.458 96.816 286.092 97.196C286.725 97.576 287.206 98.1143 287.536 98.811C287.878 99.495 288.049 100.299 288.049 101.224V102.231H281.076C281.101 103.384 281.392 104.264 281.95 104.872C282.52 105.467 283.311 105.765 284.325 105.765C284.971 105.765 285.541 105.708 286.035 105.594C286.541 105.467 287.061 105.29 287.593 105.062V106.525C287.073 106.753 286.56 106.918 286.054 107.019C285.547 107.133 284.945 107.19 284.249 107.19C283.273 107.19 282.418 106.994 281.684 106.601C280.949 106.208 280.373 105.626 279.955 104.853C279.549 104.08 279.347 103.124 279.347 101.984C279.347 100.869 279.53 99.913 279.898 99.115C280.278 98.317 280.803 97.7027 281.475 97.272C282.159 96.8413 282.95 96.626 283.85 96.626ZM283.831 97.994C283.033 97.994 282.399 98.2537 281.931 98.773C281.475 99.2797 281.202 99.989 281.114 100.901H286.301C286.288 100.04 286.085 99.343 285.693 98.811C285.3 98.2663 284.679 97.994 283.831 97.994ZM294.251 107.19C292.985 107.19 291.971 106.753 291.211 105.879C290.451 104.992 290.071 103.675 290.071 101.927C290.071 100.179 290.451 98.8617 291.211 97.975C291.984 97.0757 293.004 96.626 294.27 96.626C295.056 96.626 295.695 96.7717 296.189 97.063C296.696 97.3543 297.108 97.709 297.424 98.127H297.538C297.513 97.9623 297.488 97.7217 297.462 97.405C297.437 97.0757 297.424 96.816 297.424 96.626V92.56H299.096V107H297.747L297.5 105.632H297.424C297.12 106.063 296.715 106.43 296.208 106.734C295.702 107.038 295.049 107.19 294.251 107.19ZM294.517 105.803C295.594 105.803 296.348 105.512 296.778 104.929C297.222 104.334 297.443 103.441 297.443 102.25V101.946C297.443 100.679 297.234 99.7103 296.816 99.039C296.398 98.355 295.626 98.013 294.498 98.013C293.599 98.013 292.921 98.374 292.465 99.096C292.022 99.8053 291.8 100.762 291.8 101.965C291.8 103.181 292.022 104.125 292.465 104.796C292.921 105.467 293.605 105.803 294.517 105.803ZM310.843 96.816V107H309.475L309.228 105.651H309.152C308.822 106.183 308.366 106.576 307.784 106.829C307.201 107.07 306.58 107.19 305.922 107.19C304.693 107.19 303.768 106.899 303.148 106.316C302.527 105.721 302.217 104.777 302.217 103.485V96.816H303.908V103.371C303.908 104.992 304.661 105.803 306.169 105.803C307.296 105.803 308.075 105.486 308.506 104.853C308.949 104.22 309.171 103.308 309.171 102.117V96.816H310.843ZM315.748 107H314.076V92.56H315.748V107ZM322.907 96.626C323.769 96.626 324.516 96.816 325.149 97.196C325.783 97.576 326.264 98.1143 326.593 98.811C326.935 99.495 327.106 100.299 327.106 101.224V102.231H320.133C320.159 103.384 320.45 104.264 321.007 104.872C321.577 105.467 322.369 105.765 323.382 105.765C324.028 105.765 324.598 105.708 325.092 105.594C325.599 105.467 326.118 105.29 326.65 105.062V106.525C326.131 106.753 325.618 106.918 325.111 107.019C324.605 107.133 324.003 107.19 323.306 107.19C322.331 107.19 321.476 106.994 320.741 106.601C320.007 106.208 319.43 105.626 319.012 104.853C318.607 104.08 318.404 103.124 318.404 101.984C318.404 100.869 318.588 99.913 318.955 99.115C319.335 98.317 319.861 97.7027 320.532 97.272C321.216 96.8413 322.008 96.626 322.907 96.626ZM322.888 97.994C322.09 97.994 321.457 98.2537 320.988 98.773C320.532 99.2797 320.26 99.989 320.171 100.901H325.358C325.346 100.04 325.143 99.343 324.75 98.811C324.358 98.2663 323.737 97.994 322.888 97.994ZM345.617 107H343.622L336.364 95.733H336.288C336.313 96.1763 336.345 96.7273 336.383 97.386C336.421 98.0447 336.44 98.7223 336.44 99.419V107H334.863V93.434H336.839L344.078 104.663H344.154C344.141 104.46 344.122 104.156 344.097 103.751C344.084 103.346 344.065 102.909 344.04 102.44C344.027 101.959 344.021 101.509 344.021 101.091V93.434H345.617V107ZM353.003 96.626C353.864 96.626 354.612 96.816 355.245 97.196C355.878 97.576 356.36 98.1143 356.689 98.811C357.031 99.495 357.202 100.299 357.202 101.224V102.231H350.229C350.254 103.384 350.546 104.264 351.103 104.872C351.673 105.467 352.465 105.765 353.478 105.765C354.124 105.765 354.694 105.708 355.188 105.594C355.695 105.467 356.214 105.29 356.746 105.062V106.525C356.227 106.753 355.714 106.918 355.207 107.019C354.7 107.133 354.099 107.19 353.402 107.19C352.427 107.19 351.572 106.994 350.837 106.601C350.102 106.208 349.526 105.626 349.108 104.853C348.703 104.08 348.5 103.124 348.5 101.984C348.5 100.869 348.684 99.913 349.051 99.115C349.431 98.317 349.957 97.7027 350.628 97.272C351.312 96.8413 352.104 96.626 353.003 96.626ZM352.984 97.994C352.186 97.994 351.553 98.2537 351.084 98.773C350.628 99.2797 350.356 99.989 350.267 100.901H355.454C355.441 100.04 355.239 99.343 354.846 98.811C354.453 98.2663 353.833 97.994 352.984 97.994ZM367.746 106.981L365.998 101.243C365.833 100.724 365.687 100.217 365.561 99.723C365.434 99.229 365.345 98.8363 365.295 98.545H365.219C365.168 98.8363 365.086 99.229 364.972 99.723C364.858 100.217 364.712 100.73 364.535 101.262L362.711 106.981H360.811L358.018 96.797H359.747L361.153 102.231C361.292 102.776 361.425 103.327 361.552 103.884C361.678 104.441 361.767 104.904 361.818 105.271H361.894C361.932 105.056 361.989 104.79 362.065 104.473C362.141 104.156 362.223 103.827 362.312 103.485C362.4 103.13 362.489 102.814 362.578 102.535L364.383 96.797H366.207L367.955 102.535C368.081 102.978 368.214 103.453 368.354 103.96C368.493 104.467 368.588 104.897 368.639 105.252H368.715C368.753 104.935 368.835 104.498 368.962 103.941C369.101 103.384 369.247 102.814 369.399 102.231L370.824 96.797H372.534L369.703 106.981H367.746ZM379.049 105.974C379.049 105.505 379.163 105.176 379.391 104.986C379.619 104.796 379.891 104.701 380.208 104.701C380.524 104.701 380.803 104.796 381.044 104.986C381.284 105.176 381.405 105.505 381.405 105.974C381.405 106.43 381.284 106.759 381.044 106.962C380.803 107.165 380.524 107.266 380.208 107.266C379.891 107.266 379.619 107.165 379.391 106.962C379.163 106.759 379.049 106.43 379.049 105.974ZM384.133 105.974C384.133 105.505 384.247 105.176 384.475 104.986C384.703 104.796 384.975 104.701 385.292 104.701C385.608 104.701 385.887 104.796 386.128 104.986C386.368 105.176 386.489 105.505 386.489 105.974C386.489 106.43 386.368 106.759 386.128 106.962C385.887 107.165 385.608 107.266 385.292 107.266C384.975 107.266 384.703 107.165 384.475 106.962C384.247 106.759 384.133 106.43 384.133 105.974ZM389.217 105.974C389.217 105.505 389.331 105.176 389.559 104.986C389.787 104.796 390.059 104.701 390.376 104.701C390.692 104.701 390.971 104.796 391.212 104.986C391.452 105.176 391.573 105.505 391.573 105.974C391.573 106.43 391.452 106.759 391.212 106.962C390.971 107.165 390.692 107.266 390.376 107.266C390.059 107.266 389.787 107.165 389.559 106.962C389.331 106.759 389.217 106.43 389.217 105.974Z" fill="black"/>
</svg>
