<svg width="285" height="190" viewBox="0 0 285 190" fill="none" xmlns="http://www.w3.org/2000/svg">
<g filter="url(#filter0_d_10306_24261)">
<g clip-path="url(#clip0_10306_24261)">
<rect x="8.15284" y="4.15284" width="268.694" height="175.156" rx="2.29261" stroke="#C9C9C9" stroke-width="0.305682"/>
<g clip-path="url(#clip1_10306_24261)" filter="url(#filter1_i_10306_24261)">
<rect width="61.1364" height="157.732" transform="translate(8 21.7296)" fill="white"/>
<rect width="61.1364" height="14.6727" transform="translate(8 21.7296)" fill="white"/>
<path d="M16.5588 32.7341C14.7861 32.7341 13.3491 31.2971 13.3491 29.5244C13.3491 27.7518 14.7861 26.3148 16.5588 26.3148C18.3314 26.3148 19.7684 27.7518 19.7684 29.5244C19.7684 31.2971 18.3314 32.7341 16.5588 32.7341Z" fill="#C9C9C9"/>
<rect x="22.3672" y="27.5375" width="36.6818" height="3.66818" rx="0.611364" fill="#C9C9C9"/>
<rect width="61.1364" height="14.6727" transform="translate(8 36.4023)" fill="white"/>
<path d="M16.5588 47.4068C14.7861 47.4068 13.3491 45.9698 13.3491 44.1972C13.3491 42.4245 14.7861 40.9875 16.5588 40.9875C18.3314 40.9875 19.7684 42.4245 19.7684 44.1972C19.7684 45.9698 18.3314 47.4068 16.5588 47.4068Z" fill="#C9C9C9"/>
<rect x="22.3672" y="42.2101" width="36.6818" height="3.66818" rx="0.611364" fill="#C9C9C9"/>
<rect width="61.1364" height="14.6727" transform="translate(8 51.075)" fill="white"/>
<path d="M16.5588 62.0796C14.7861 62.0796 13.3491 60.6426 13.3491 58.8699C13.3491 57.0973 14.7861 55.6603 16.5588 55.6603C18.3314 55.6603 19.7684 57.0973 19.7684 58.8699C19.7684 60.6426 18.3314 62.0796 16.5588 62.0796Z" fill="#C9C9C9"/>
<rect x="22.3672" y="56.883" width="36.6818" height="3.66818" rx="0.611364" fill="#C9C9C9"/>
<rect width="61.1364" height="14.6727" transform="translate(8 65.7477)" fill="white"/>
<path d="M16.5588 76.7523C14.7861 76.7523 13.3491 75.3153 13.3491 73.5427C13.3491 71.77 14.7861 70.333 16.5588 70.333C18.3314 70.333 19.7684 71.77 19.7684 73.5427C19.7684 75.3153 18.3314 76.7523 16.5588 76.7523Z" fill="#C9C9C9"/>
<rect x="22.3672" y="71.5556" width="36.6818" height="3.66818" rx="0.611364" fill="#C9C9C9"/>
</g>
<rect width="207.864" height="157.732" transform="translate(69.1362 21.7296)" fill="#F1F1F1"/>
<rect x="71.7344" y="24.3278" width="202.667" height="152.535" rx="1.06989" fill="white"/>
<rect x="71.7344" y="24.3278" width="202.667" height="152.535" rx="1.06989" stroke="#C9C9C9" stroke-width="0.305682"/>
<rect x="81.5166" y="36.5551" width="60.8307" height="7.03068" stroke="#C9C9C9" stroke-width="0.305682"/>
<rect x="81.5166" y="47.5597" width="60.8307" height="7.03068" rx="0.152841" stroke="#C9C9C9" stroke-width="0.305682"/>
<rect x="146.321" y="47.5597" width="60.8307" height="7.03068" rx="0.152841" stroke="#C9C9C9" stroke-width="0.305682"/>
<rect x="81.5166" y="58.5642" width="60.8307" height="7.03068" rx="0.152841" stroke="#C9C9C9" stroke-width="0.305682"/>
<rect x="146.321" y="58.5642" width="60.8307" height="7.03068" rx="0.152841" stroke="#C9C9C9" stroke-width="0.305682"/>
<rect x="81.5166" y="69.5688" width="60.8307" height="7.03068" stroke="#C9C9C9" stroke-width="0.305682"/>
<rect x="81.5166" y="80.5733" width="60.8307" height="7.03068" stroke="#C9C9C9" stroke-width="0.305682"/>
<rect x="81.5166" y="91.5779" width="60.8307" height="7.03068" stroke="#C9C9C9" stroke-width="0.305682"/>
<rect x="81.5166" y="102.582" width="60.8307" height="7.03068" stroke="#C9C9C9" stroke-width="0.305682"/>
<rect x="81.5166" y="113.587" width="60.8307" height="7.03068" stroke="#C9C9C9" stroke-width="0.305682"/>
<rect x="81.5166" y="124.592" width="60.8307" height="7.03068" rx="0.152841" stroke="#C9C9C9" stroke-width="0.305682"/>
<rect x="146.321" y="124.592" width="60.8307" height="7.03068" rx="0.152841" stroke="#C9C9C9" stroke-width="0.305682"/>
<rect x="81.5166" y="135.596" width="60.8307" height="23.2318" stroke="#C9C9C9" stroke-width="0.305682"/>
<path d="M84.2677 164.177C84.2677 164.937 83.6519 165.553 82.8922 165.553C82.1325 165.553 81.5166 164.937 81.5166 164.177C81.5166 163.418 82.1325 162.802 82.8922 162.802C83.6519 162.802 84.2677 163.418 84.2677 164.177Z" stroke="#C9C9C9" stroke-width="0.305682"/>
<rect x="85.7964" y="162.802" width="16.8125" height="2.75114" rx="0.152841" stroke="#C9C9C9" stroke-width="0.305682"/>
<path d="M110.556 164.177C110.556 164.937 109.94 165.553 109.181 165.553C108.421 165.553 107.805 164.937 107.805 164.177C107.805 163.418 108.421 162.802 109.181 162.802C109.94 162.802 110.556 163.418 110.556 164.177Z" stroke="#C9C9C9" stroke-width="0.305682"/>
<rect x="112.085" y="162.802" width="16.8125" height="2.75114" rx="0.152841" stroke="#C9C9C9" stroke-width="0.305682"/>
<path d="M136.845 164.177C136.845 164.937 136.229 165.553 135.469 165.553C134.71 165.553 134.094 164.937 134.094 164.177C134.094 163.418 134.71 162.802 135.469 162.802C136.229 162.802 136.845 163.418 136.845 164.177Z" stroke="#C9C9C9" stroke-width="0.305682"/>
<rect x="138.374" y="162.802" width="16.8125" height="2.75114" rx="0.152841" stroke="#C9C9C9" stroke-width="0.305682"/>
<rect opacity="0.3" x="8" y="4" width="269" height="175.461" fill="#242424"/>
<g filter="url(#filter2_d_10306_24261)">
<rect width="108.996" height="156.189" transform="translate(219 22)" fill="white"/>
<mask id="path-33-inside-1_10306_24261" fill="white">
<path d="M219 22H327.996V40.9088H219V22Z"/>
</mask>
<path d="M219 22H327.996V40.9088H219V22Z" fill="white"/>
<path d="M327.996 40.5991H219V41.2184H327.996V40.5991Z" fill="#C9C9C9" mask="url(#path-33-inside-1_10306_24261)"/>
<path d="M228.332 33.9544H227.802V30.2185H226.49V29.7537H229.638V30.2185H228.332V33.9544ZM230.466 29.6184C230.544 29.6184 230.613 29.6458 230.672 29.7007C230.734 29.7517 230.766 29.8341 230.766 29.9478C230.766 30.0616 230.734 30.1459 230.672 30.2008C230.613 30.2518 230.544 30.2773 230.466 30.2773C230.379 30.2773 230.307 30.2518 230.248 30.2008C230.189 30.1459 230.16 30.0616 230.16 29.9478C230.16 29.8341 230.189 29.7517 230.248 29.7007C230.307 29.6458 230.379 29.6184 230.466 29.6184ZM230.719 30.8009V33.9544H230.201V30.8009H230.719ZM232.771 33.5896C232.849 33.5896 232.93 33.5837 233.012 33.572C233.094 33.5602 233.161 33.5445 233.212 33.5249V33.9191C233.157 33.9465 233.079 33.9681 232.977 33.9838C232.875 34.0034 232.777 34.0132 232.683 34.0132C232.518 34.0132 232.365 33.9858 232.224 33.9308C232.086 33.872 231.975 33.772 231.888 33.6308C231.802 33.4896 231.759 33.2915 231.759 33.0366V31.201H231.312V30.9539L231.765 30.748L231.971 30.0773H232.277V30.8009H233.189V31.201H232.277V33.0248C232.277 33.217 232.322 33.3602 232.412 33.4543C232.506 33.5445 232.626 33.5896 232.771 33.5896ZM235.061 30.7421C235.328 30.7421 235.559 30.8009 235.756 30.9186C235.952 31.0362 236.101 31.2029 236.203 31.4187C236.309 31.6305 236.362 31.8795 236.362 32.1658V32.4777H234.202C234.21 32.8346 234.3 33.1072 234.473 33.2954C234.65 33.4798 234.895 33.572 235.208 33.572C235.408 33.572 235.585 33.5543 235.738 33.519C235.895 33.4798 236.056 33.4249 236.22 33.3543V33.8073C236.06 33.8779 235.901 33.9289 235.744 33.9603C235.587 33.9956 235.401 34.0132 235.185 34.0132C234.883 34.0132 234.618 33.9524 234.391 33.8308C234.163 33.7092 233.985 33.5288 233.855 33.2896C233.73 33.0503 233.667 32.7542 233.667 32.4012C233.667 32.056 233.724 31.7599 233.838 31.5128C233.955 31.2657 234.118 31.0755 234.326 30.9421C234.538 30.8088 234.783 30.7421 235.061 30.7421ZM235.055 31.1657C234.808 31.1657 234.612 31.2461 234.467 31.4069C234.326 31.5638 234.242 31.7834 234.214 32.0658H235.82C235.816 31.7991 235.754 31.5834 235.632 31.4187C235.51 31.25 235.318 31.1657 235.055 31.1657ZM237.682 33.9544H237.164V29.483H237.682V33.9544Z" fill="#242424"/>
<path d="M227.126 48.6245H226.792V45.9715H228.275V46.265H227.126V47.2051H228.204V47.4987H227.126V48.6245ZM228.842 45.886C228.891 45.886 228.934 45.9033 228.972 45.938C229.011 45.9702 229.031 46.0223 229.031 46.0941C229.031 46.1659 229.011 46.2192 228.972 46.2539C228.934 46.2861 228.891 46.3022 228.842 46.3022C228.787 46.3022 228.741 46.2861 228.704 46.2539C228.667 46.2192 228.648 46.1659 228.648 46.0941C228.648 46.0223 228.667 45.9702 228.704 45.938C228.741 45.9033 228.787 45.886 228.842 45.886ZM229.001 46.6329V48.6245H228.674V46.6329H229.001ZM230.561 46.5957C230.598 46.5957 230.638 46.5982 230.68 46.6032C230.722 46.6056 230.761 46.6106 230.795 46.618L230.754 46.919C230.722 46.9116 230.686 46.9054 230.647 46.9004C230.607 46.8955 230.571 46.893 230.539 46.893C230.437 46.893 230.342 46.9215 230.253 46.9784C230.164 47.0329 230.092 47.111 230.037 47.2125C229.985 47.3116 229.959 47.4281 229.959 47.5618V48.6245H229.632V46.6329H229.9L229.937 46.997H229.952C230.014 46.888 230.096 46.7939 230.197 46.7146C230.301 46.6354 230.423 46.5957 230.561 46.5957ZM232.464 48.0746C232.464 48.2678 232.392 48.414 232.249 48.5131C232.105 48.6122 231.912 48.6617 231.669 48.6617C231.53 48.6617 231.41 48.6506 231.308 48.6283C231.209 48.606 231.121 48.575 231.045 48.5354V48.2381C231.124 48.2777 231.219 48.3149 231.331 48.3496C231.445 48.3818 231.56 48.3979 231.676 48.3979C231.842 48.3979 231.962 48.3719 232.037 48.3198C232.111 48.2653 232.148 48.1935 232.148 48.1043C232.148 48.0548 232.135 48.0102 232.107 47.9706C232.08 47.9309 232.031 47.8913 231.959 47.8517C231.889 47.812 231.789 47.7674 231.658 47.7179C231.529 47.6683 231.419 47.6188 231.327 47.5693C231.235 47.5197 231.165 47.4603 231.115 47.3909C231.066 47.3215 231.041 47.2324 231.041 47.1234C231.041 46.9549 231.109 46.8249 231.245 46.7332C231.384 46.6415 231.565 46.5957 231.788 46.5957C231.909 46.5957 232.022 46.6081 232.126 46.6329C232.232 46.6577 232.332 46.6899 232.423 46.7295L232.312 46.9896C232.227 46.9549 232.14 46.9252 232.048 46.9004C231.956 46.8756 231.862 46.8633 231.765 46.8633C231.632 46.8633 231.529 46.8856 231.457 46.9301C231.388 46.9723 231.353 47.0305 231.353 47.1048C231.353 47.1618 231.369 47.2088 231.401 47.246C231.434 47.2831 231.487 47.3203 231.561 47.3575C231.638 47.3946 231.739 47.4367 231.866 47.4838C231.992 47.5309 232.1 47.5792 232.189 47.6287C232.278 47.6783 232.346 47.7389 232.393 47.8108C232.441 47.8801 232.464 47.9681 232.464 48.0746ZM233.61 48.3942C233.66 48.3942 233.711 48.3904 233.763 48.383C233.815 48.3756 233.857 48.3657 233.889 48.3533V48.6022C233.854 48.6196 233.805 48.6332 233.74 48.6431C233.676 48.6555 233.614 48.6617 233.555 48.6617C233.451 48.6617 233.354 48.6444 233.265 48.6097C233.178 48.5725 233.108 48.5094 233.053 48.4202C232.999 48.331 232.971 48.2059 232.971 48.0449V46.8856H232.689V46.7295L232.975 46.5994L233.105 46.1758H233.298V46.6329H233.874V46.8856H233.298V48.0374C233.298 48.1588 233.327 48.2492 233.384 48.3087C233.443 48.3657 233.519 48.3942 233.61 48.3942ZM237.401 48.6245H237.011L235.591 46.4211H235.576C235.581 46.5078 235.588 46.6155 235.595 46.7444C235.602 46.8732 235.606 47.0057 235.606 47.1419V48.6245H235.298V45.9715H235.684L237.1 48.1675H237.115C237.112 48.1279 237.109 48.0684 237.104 47.9891C237.101 47.9099 237.097 47.8244 237.092 47.7328C237.09 47.6386 237.089 47.5507 237.089 47.4689V45.9715H237.401V48.6245ZM238.831 46.5994C239.073 46.5994 239.253 46.6527 239.369 46.7592C239.486 46.8657 239.544 47.0354 239.544 47.2683V48.6245H239.306L239.243 48.3421H239.228C239.141 48.4511 239.05 48.5316 238.953 48.5837C238.857 48.6357 238.725 48.6617 238.559 48.6617C238.379 48.6617 238.229 48.6146 238.11 48.5205C237.991 48.4239 237.931 48.274 237.931 48.0709C237.931 47.8727 238.009 47.7204 238.165 47.6138C238.322 47.5049 238.562 47.4454 238.886 47.4355L239.224 47.4243V47.3054C239.224 47.1395 239.189 47.0243 239.117 46.9599C239.045 46.8955 238.943 46.8633 238.812 46.8633C238.708 46.8633 238.609 46.8794 238.515 46.9116C238.421 46.9413 238.333 46.976 238.251 47.0156L238.151 46.7704C238.237 46.7233 238.34 46.6837 238.459 46.6515C238.578 46.6168 238.702 46.5994 238.831 46.5994ZM239.221 47.651L238.927 47.6622C238.679 47.6721 238.507 47.7117 238.411 47.7811C238.317 47.8504 238.27 47.9483 238.27 48.0746C238.27 48.1861 238.303 48.2678 238.37 48.3198C238.439 48.3719 238.527 48.3979 238.634 48.3979C238.8 48.3979 238.938 48.3521 239.05 48.2604C239.164 48.1663 239.221 48.0226 239.221 47.8294V47.651ZM242.344 46.5957C242.569 46.5957 242.738 46.6539 242.849 46.7704C242.961 46.8868 243.017 47.0726 243.017 47.3277V48.6245H242.693V47.3426C242.693 47.028 242.558 46.8707 242.288 46.8707C242.095 46.8707 241.956 46.9264 241.872 47.0379C241.79 47.1494 241.75 47.3116 241.75 47.5247V48.6245H241.426V47.3426C241.426 47.028 241.29 46.8707 241.018 46.8707C240.817 46.8707 240.678 46.9326 240.601 47.0565C240.525 47.1803 240.486 47.3587 240.486 47.5916V48.6245H240.159V46.6329H240.423L240.471 46.9041H240.49C240.552 46.8001 240.635 46.7233 240.739 46.6738C240.845 46.6217 240.958 46.5957 241.077 46.5957C241.389 46.5957 241.592 46.7072 241.686 46.9301H241.705C241.772 46.8162 241.862 46.732 241.976 46.6775C242.09 46.623 242.213 46.5957 242.344 46.5957ZM244.401 46.5957C244.569 46.5957 244.716 46.6329 244.839 46.7072C244.963 46.7815 245.057 46.8868 245.122 47.023C245.189 47.1568 245.222 47.3141 245.222 47.4949V47.6919H243.858C243.863 47.9173 243.92 48.0895 244.029 48.2084C244.141 48.3248 244.296 48.383 244.494 48.383C244.62 48.383 244.732 48.3719 244.828 48.3496C244.927 48.3248 245.029 48.2901 245.133 48.2455V48.5316C245.031 48.5762 244.931 48.6084 244.832 48.6283C244.733 48.6506 244.615 48.6617 244.479 48.6617C244.288 48.6617 244.121 48.6233 243.977 48.5465C243.834 48.4697 243.721 48.3558 243.639 48.2047C243.56 48.0535 243.52 47.8665 243.52 47.6436C243.52 47.4256 243.556 47.2386 243.628 47.0825C243.702 46.9264 243.805 46.8063 243.937 46.7221C244.07 46.6378 244.225 46.5957 244.401 46.5957ZM244.397 46.8633C244.241 46.8633 244.117 46.914 244.026 47.0156C243.937 47.1147 243.883 47.2534 243.866 47.4318H244.88C244.878 47.2633 244.838 47.1271 244.761 47.023C244.685 46.9165 244.563 46.8633 244.397 46.8633Z" fill="#242424"/>
<path d="M226.586 51.4824C226.586 51.2259 226.794 51.018 227.051 51.018H319.946C320.202 51.018 320.41 51.2259 320.41 51.4824V61.3912C320.41 61.6477 320.202 61.8557 319.946 61.8557H227.051C226.794 61.8557 226.586 61.6477 226.586 61.3912V51.4824Z" fill="white"/>
<path d="M226.586 51.4824C226.586 51.2259 226.794 51.018 227.051 51.018H319.946C320.202 51.018 320.41 51.2259 320.41 51.4824V61.3912C320.41 61.6477 320.202 61.8557 319.946 61.8557H227.051C226.794 61.8557 226.586 61.6477 226.586 61.3912V51.4824Z" stroke="#939393" stroke-width="0.309649"/>
<path d="M226.792 70.9649V68.3118H227.126V70.6676H228.286V70.9649H226.792ZM229.45 68.9398C229.693 68.9398 229.873 68.993 229.989 69.0995C230.106 69.2061 230.164 69.3758 230.164 69.6086V70.9649H229.926L229.863 70.6825H229.848C229.761 70.7915 229.67 70.872 229.573 70.924C229.476 70.976 229.345 71.002 229.179 71.002C228.998 71.002 228.848 70.955 228.73 70.8608C228.611 70.7642 228.551 70.6144 228.551 70.4112C228.551 70.213 228.629 70.0607 228.785 69.9542C228.941 69.8452 229.182 69.7857 229.506 69.7758L229.844 69.7647V69.6458C229.844 69.4798 229.808 69.3646 229.737 69.3002C229.665 69.2358 229.563 69.2036 229.432 69.2036C229.328 69.2036 229.229 69.2197 229.135 69.2519C229.04 69.2816 228.952 69.3163 228.871 69.3559L228.77 69.1107C228.857 69.0636 228.96 69.024 229.079 68.9918C229.198 68.9571 229.322 68.9398 229.45 68.9398ZM229.841 69.9913L229.547 70.0025C229.299 70.0124 229.127 70.052 229.031 70.1214C228.936 70.1908 228.889 70.2886 228.889 70.4149C228.889 70.5264 228.923 70.6082 228.99 70.6602C229.059 70.7122 229.147 70.7382 229.253 70.7382C229.419 70.7382 229.558 70.6924 229.67 70.6007C229.784 70.5066 229.841 70.3629 229.841 70.1697V69.9913ZM232.076 70.4149C232.076 70.6082 232.004 70.7543 231.86 70.8534C231.717 70.9525 231.523 71.002 231.281 71.002C231.142 71.002 231.022 70.9909 230.92 70.9686C230.821 70.9463 230.733 70.9153 230.656 70.8757V70.5784C230.736 70.6181 230.831 70.6552 230.942 70.6899C231.056 70.7221 231.172 70.7382 231.288 70.7382C231.454 70.7382 231.574 70.7122 231.648 70.6602C231.723 70.6057 231.76 70.5338 231.76 70.4447C231.76 70.3951 231.746 70.3505 231.719 70.3109C231.692 70.2713 231.642 70.2316 231.57 70.192C231.501 70.1524 231.401 70.1078 231.269 70.0582C231.141 70.0087 231.03 69.9591 230.939 69.9096C230.847 69.86 230.776 69.8006 230.727 69.7312C230.677 69.6619 230.653 69.5727 230.653 69.4637C230.653 69.2952 230.721 69.1652 230.857 69.0735C230.996 68.9819 231.177 68.9361 231.4 68.9361C231.521 68.9361 231.634 68.9484 231.738 68.9732C231.844 68.998 231.943 69.0302 232.035 69.0698L231.923 69.3299C231.839 69.2952 231.751 69.2655 231.66 69.2407C231.568 69.216 231.474 69.2036 231.377 69.2036C231.243 69.2036 231.141 69.2259 231.069 69.2705C230.999 69.3126 230.965 69.3708 230.965 69.4451C230.965 69.5021 230.981 69.5492 231.013 69.5863C231.045 69.6235 231.099 69.6606 231.173 69.6978C231.25 69.7349 231.351 69.7771 231.478 69.8241C231.604 69.8712 231.712 69.9195 231.801 69.969C231.89 70.0186 231.958 70.0793 232.005 70.1511C232.052 70.2205 232.076 70.3084 232.076 70.4149ZM233.222 70.7345C233.272 70.7345 233.322 70.7308 233.375 70.7233C233.427 70.7159 233.469 70.706 233.501 70.6936V70.9426C233.466 70.9599 233.417 70.9735 233.352 70.9835C233.288 70.9958 233.226 71.002 233.166 71.002C233.062 71.002 232.966 70.9847 232.877 70.95C232.79 70.9129 232.719 70.8497 232.665 70.7605C232.61 70.6713 232.583 70.5462 232.583 70.3852V69.2259H232.301V69.0698L232.587 68.9398L232.717 68.5162H232.91V68.9732H233.486V69.2259H232.91V70.3778C232.91 70.4992 232.939 70.5896 232.995 70.649C233.055 70.706 233.131 70.7345 233.222 70.7345ZM237.013 70.9649H236.622L235.203 68.7614H235.188C235.193 68.8481 235.199 68.9559 235.207 69.0847C235.214 69.2135 235.218 69.346 235.218 69.4823V70.9649H234.909V68.3118H235.296L236.712 70.5078H236.726C236.724 70.4682 236.72 70.4087 236.715 70.3295C236.713 70.2502 236.709 70.1647 236.704 70.0731C236.702 69.979 236.7 69.891 236.7 69.8093V68.3118H237.013V70.9649ZM238.442 68.9398C238.685 68.9398 238.865 68.993 238.981 69.0995C239.098 69.2061 239.156 69.3758 239.156 69.6086V70.9649H238.918L238.855 70.6825H238.84C238.753 70.7915 238.662 70.872 238.565 70.924C238.468 70.976 238.337 71.002 238.171 71.002C237.99 71.002 237.84 70.955 237.721 70.8608C237.603 70.7642 237.543 70.6144 237.543 70.4112C237.543 70.213 237.621 70.0607 237.777 69.9542C237.933 69.8452 238.174 69.7857 238.498 69.7758L238.836 69.7647V69.6458C238.836 69.4798 238.8 69.3646 238.728 69.3002C238.657 69.2358 238.555 69.2036 238.424 69.2036C238.32 69.2036 238.221 69.2197 238.126 69.2519C238.032 69.2816 237.944 69.3163 237.863 69.3559L237.762 69.1107C237.849 69.0636 237.952 69.024 238.071 68.9918C238.19 68.9571 238.314 68.9398 238.442 68.9398ZM238.832 69.9913L238.539 70.0025C238.291 70.0124 238.119 70.052 238.022 70.1214C237.928 70.1908 237.881 70.2886 237.881 70.4149C237.881 70.5264 237.915 70.6082 237.982 70.6602C238.051 70.7122 238.139 70.7382 238.245 70.7382C238.411 70.7382 238.55 70.6924 238.662 70.6007C238.775 70.5066 238.832 70.3629 238.832 70.1697V69.9913ZM241.956 68.9361C242.181 68.9361 242.35 68.9943 242.461 69.1107C242.573 69.2271 242.628 69.4129 242.628 69.6681V70.9649H242.305V69.6829C242.305 69.3683 242.17 69.211 241.9 69.211C241.707 69.211 241.568 69.2668 241.484 69.3782C241.402 69.4897 241.361 69.652 241.361 69.865V70.9649H241.038V69.6829C241.038 69.3683 240.902 69.211 240.629 69.211C240.429 69.211 240.29 69.273 240.213 69.3968C240.136 69.5207 240.098 69.699 240.098 69.9319V70.9649H239.771V68.9732H240.035L240.083 69.2445H240.102C240.164 69.1404 240.247 69.0636 240.351 69.0141C240.457 68.9621 240.57 68.9361 240.689 68.9361C241.001 68.9361 241.204 69.0475 241.298 69.2705H241.317C241.384 69.1565 241.474 69.0723 241.588 69.0178C241.702 68.9633 241.824 68.9361 241.956 68.9361ZM244.013 68.9361C244.181 68.9361 244.327 68.9732 244.451 69.0475C244.575 69.1218 244.669 69.2271 244.734 69.3634C244.8 69.4971 244.834 69.6544 244.834 69.8353V70.0322H243.47C243.475 70.2576 243.532 70.4298 243.641 70.5487C243.753 70.6651 243.907 70.7233 244.106 70.7233C244.232 70.7233 244.343 70.7122 244.44 70.6899C244.539 70.6651 244.641 70.6305 244.745 70.5859V70.872C244.643 70.9166 244.543 70.9488 244.444 70.9686C244.345 70.9909 244.227 71.002 244.091 71.002C243.9 71.002 243.733 70.9636 243.589 70.8868C243.445 70.81 243.333 70.6961 243.251 70.545C243.172 70.3939 243.132 70.2069 243.132 69.9839C243.132 69.7659 243.168 69.5789 243.24 69.4228C243.314 69.2668 243.417 69.1466 243.548 69.0624C243.682 68.9782 243.837 68.9361 244.013 68.9361ZM244.009 69.2036C243.853 69.2036 243.729 69.2544 243.637 69.3559C243.548 69.455 243.495 69.5937 243.478 69.7721H244.492C244.49 69.6037 244.45 69.4674 244.373 69.3634C244.296 69.2569 244.175 69.2036 244.009 69.2036Z" fill="#242424"/>
<path d="M226.586 73.8228C226.586 73.5662 226.794 73.3583 227.051 73.3583H319.946C320.202 73.3583 320.41 73.5662 320.41 73.8228V83.7315C320.41 83.988 320.202 84.196 319.946 84.196H227.051C226.794 84.196 226.586 83.988 226.586 83.7315V73.8228Z" fill="white"/>
<path d="M226.586 73.8228C226.586 73.5662 226.794 73.3583 227.051 73.3583H319.946C320.202 73.3583 320.41 73.5662 320.41 73.8228V83.7315C320.41 83.988 320.202 84.196 319.946 84.196H227.051C226.794 84.196 226.586 83.988 226.586 83.7315V73.8228Z" stroke="#939393" stroke-width="0.309649"/>
<path d="M228.275 93.3052H226.792V90.6522H228.275V90.9457H227.126V91.7743H228.208V92.0642H227.126V93.0117H228.275V93.3052ZM230.997 91.2764C231.223 91.2764 231.391 91.3346 231.502 91.4511C231.614 91.5675 231.67 91.7533 231.67 92.0084V93.3052H231.346V92.0233C231.346 91.7087 231.211 91.5514 230.941 91.5514C230.748 91.5514 230.609 91.6071 230.525 91.7186C230.443 91.8301 230.403 91.9923 230.403 92.2054V93.3052H230.079V92.0233C230.079 91.7087 229.943 91.5514 229.671 91.5514C229.47 91.5514 229.331 91.6133 229.254 91.7372C229.178 91.861 229.139 92.0394 229.139 92.2722V93.3052H228.812V91.3136H229.076L229.124 91.5848H229.143C229.205 91.4808 229.288 91.404 229.392 91.3544C229.498 91.3024 229.611 91.2764 229.73 91.2764C230.042 91.2764 230.245 91.3879 230.339 91.6108H230.358C230.425 91.4969 230.515 91.4127 230.629 91.3582C230.743 91.3037 230.866 91.2764 230.997 91.2764ZM233.039 91.2801C233.282 91.2801 233.462 91.3334 233.578 91.4399C233.694 91.5464 233.753 91.7161 233.753 91.949V93.3052H233.515L233.452 93.0228H233.437C233.35 93.1318 233.258 93.2123 233.162 93.2644C233.065 93.3164 232.934 93.3424 232.768 93.3424C232.587 93.3424 232.437 93.2953 232.318 93.2012C232.199 93.1046 232.14 92.9547 232.14 92.7516C232.14 92.5534 232.218 92.4011 232.374 92.2945C232.53 92.1855 232.77 92.1261 233.095 92.1162L233.433 92.105V91.9861C233.433 91.8202 233.397 91.705 233.325 91.6406C233.253 91.5762 233.152 91.544 233.021 91.544C232.917 91.544 232.817 91.5601 232.723 91.5923C232.629 91.622 232.541 91.6567 232.46 91.6963L232.359 91.4511C232.446 91.404 232.549 91.3644 232.668 91.3322C232.787 91.2975 232.91 91.2801 233.039 91.2801ZM233.429 92.3317L233.136 92.3428C232.888 92.3528 232.716 92.3924 232.619 92.4618C232.525 92.5311 232.478 92.629 232.478 92.7553C232.478 92.8668 232.512 92.9485 232.578 93.0005C232.648 93.0526 232.736 93.0786 232.842 93.0786C233.008 93.0786 233.147 93.0327 233.258 92.9411C233.372 92.847 233.429 92.7033 233.429 92.5101V92.3317ZM234.535 90.5667C234.585 90.5667 234.628 90.584 234.665 90.6187C234.705 90.6509 234.724 90.7029 234.724 90.7748C234.724 90.8466 234.705 90.8999 234.665 90.9346C234.628 90.9668 234.585 90.9829 234.535 90.9829C234.48 90.9829 234.435 90.9668 234.397 90.9346C234.36 90.8999 234.342 90.8466 234.342 90.7748C234.342 90.7029 234.36 90.6509 234.397 90.6187C234.435 90.584 234.48 90.5667 234.535 90.5667ZM234.695 91.3136V93.3052H234.368V91.3136H234.695ZM235.653 93.3052H235.326V90.4812H235.653V93.3052Z" fill="#242424"/>
<path d="M226.586 96.1631C226.586 95.9066 226.794 95.6986 227.051 95.6986H319.946C320.202 95.6986 320.41 95.9066 320.41 96.1631V106.072C320.41 106.328 320.202 106.536 319.946 106.536H227.051C226.794 106.536 226.586 106.328 226.586 106.072V96.1631Z" fill="white"/>
<path d="M226.586 96.1631C226.586 95.9066 226.794 95.6986 227.051 95.6986H319.946C320.202 95.6986 320.41 95.9066 320.41 96.1631V106.072C320.41 106.328 320.202 106.536 319.946 106.536H227.051C226.794 106.536 226.586 106.328 226.586 106.072V96.1631Z" stroke="#939393" stroke-width="0.309649"/>
<path d="M227.929 113.249C227.644 113.249 227.42 113.344 227.257 113.535C227.093 113.726 227.011 113.987 227.011 114.319C227.011 114.648 227.087 114.91 227.238 115.103C227.392 115.294 227.621 115.389 227.925 115.389C228.039 115.389 228.148 115.379 228.252 115.359C228.356 115.34 228.459 115.315 228.561 115.285V115.575C228.462 115.612 228.359 115.639 228.252 115.657C228.148 115.674 228.023 115.683 227.877 115.683C227.607 115.683 227.382 115.627 227.201 115.516C227.02 115.404 226.884 115.246 226.792 115.04C226.703 114.834 226.658 114.593 226.658 114.315C226.658 114.048 226.707 113.812 226.803 113.609C226.902 113.404 227.047 113.244 227.238 113.13C227.429 113.014 227.66 112.955 227.933 112.955C228.213 112.955 228.457 113.007 228.665 113.111L228.531 113.394C228.449 113.357 228.358 113.323 228.256 113.293C228.157 113.264 228.048 113.249 227.929 113.249ZM230.827 114.646C230.827 114.975 230.743 115.231 230.574 115.411C230.408 115.592 230.183 115.683 229.898 115.683C229.722 115.683 229.565 115.643 229.426 115.564C229.29 115.482 229.182 115.364 229.103 115.211C229.023 115.055 228.984 114.866 228.984 114.646C228.984 114.317 229.066 114.063 229.229 113.884C229.395 113.706 229.622 113.617 229.909 113.617C230.087 113.617 230.246 113.658 230.385 113.739C230.523 113.819 230.631 113.935 230.708 114.089C230.787 114.24 230.827 114.426 230.827 114.646ZM229.322 114.646C229.322 114.881 229.368 115.068 229.459 115.207C229.554 115.343 229.702 115.411 229.905 115.411C230.106 115.411 230.253 115.343 230.347 115.207C230.442 115.068 230.489 114.881 230.489 114.646C230.489 114.411 230.442 114.226 230.347 114.092C230.253 113.959 230.105 113.892 229.902 113.892C229.698 113.892 229.551 113.959 229.459 114.092C229.368 114.226 229.322 114.411 229.322 114.646ZM233.53 113.617C233.755 113.617 233.924 113.675 234.035 113.791C234.147 113.908 234.202 114.094 234.202 114.349V115.646H233.879V114.364C233.879 114.049 233.744 113.892 233.474 113.892C233.281 113.892 233.142 113.947 233.058 114.059C232.976 114.17 232.935 114.333 232.935 114.546V115.646H232.612V114.364C232.612 114.049 232.476 113.892 232.203 113.892C232.003 113.892 231.864 113.954 231.787 114.078C231.71 114.201 231.672 114.38 231.672 114.613V115.646H231.345V113.654H231.609L231.657 113.925H231.676C231.738 113.821 231.821 113.744 231.925 113.695C232.031 113.643 232.144 113.617 232.263 113.617C232.575 113.617 232.778 113.728 232.872 113.951H232.891C232.958 113.837 233.048 113.753 233.162 113.698C233.276 113.644 233.399 113.617 233.53 113.617ZM235.765 113.617C236.01 113.617 236.207 113.702 236.356 113.873C236.507 114.044 236.583 114.302 236.583 114.646C236.583 114.985 236.507 115.243 236.356 115.419C236.207 115.595 236.009 115.683 235.762 115.683C235.608 115.683 235.48 115.654 235.379 115.597C235.28 115.54 235.202 115.472 235.145 115.393H235.122C235.125 115.435 235.129 115.488 235.134 115.553C235.141 115.617 235.145 115.673 235.145 115.72V116.537H234.818V113.654H235.085L235.13 113.925H235.145C235.204 113.838 235.282 113.765 235.379 113.706C235.475 113.646 235.604 113.617 235.765 113.617ZM235.706 113.892C235.503 113.892 235.359 113.949 235.275 114.063C235.191 114.177 235.147 114.35 235.145 114.583V114.646C235.145 114.891 235.184 115.081 235.264 115.215C235.345 115.346 235.495 115.411 235.713 115.411C235.832 115.411 235.931 115.379 236.01 115.315C236.09 115.248 236.148 115.156 236.185 115.04C236.225 114.923 236.245 114.791 236.245 114.642C236.245 114.414 236.2 114.232 236.111 114.096C236.024 113.96 235.889 113.892 235.706 113.892ZM237.858 113.62C238.101 113.62 238.28 113.674 238.397 113.78C238.513 113.887 238.572 114.056 238.572 114.289V115.646H238.334L238.271 115.363H238.256C238.169 115.472 238.077 115.553 237.981 115.605C237.884 115.657 237.753 115.683 237.587 115.683C237.406 115.683 237.256 115.636 237.137 115.542C237.018 115.445 236.959 115.295 236.959 115.092C236.959 114.894 237.037 114.741 237.193 114.635C237.349 114.526 237.589 114.466 237.914 114.457L238.252 114.445V114.326C238.252 114.16 238.216 114.045 238.144 113.981C238.072 113.916 237.971 113.884 237.84 113.884C237.735 113.884 237.636 113.9 237.542 113.933C237.448 113.962 237.36 113.997 237.278 114.037L237.178 113.791C237.265 113.744 237.368 113.705 237.487 113.672C237.605 113.638 237.729 113.62 237.858 113.62ZM238.248 114.672L237.955 114.683C237.707 114.693 237.535 114.733 237.438 114.802C237.344 114.871 237.297 114.969 237.297 115.096C237.297 115.207 237.33 115.289 237.397 115.341C237.467 115.393 237.555 115.419 237.661 115.419C237.827 115.419 237.966 115.373 238.077 115.281C238.191 115.187 238.248 115.044 238.248 114.85V114.672ZM240.145 113.617C240.383 113.617 240.563 113.675 240.684 113.791C240.806 113.908 240.866 114.094 240.866 114.349V115.646H240.543V114.371C240.543 114.051 240.394 113.892 240.097 113.892C239.877 113.892 239.724 113.954 239.64 114.078C239.556 114.201 239.514 114.38 239.514 114.613V115.646H239.187V113.654H239.45L239.499 113.925H239.517C239.582 113.821 239.671 113.744 239.785 113.695C239.899 113.643 240.019 113.617 240.145 113.617ZM241.172 113.654H241.521L241.952 114.787C241.989 114.889 242.022 114.984 242.052 115.073C242.082 115.163 242.104 115.248 242.119 115.33H242.134C242.149 115.268 242.172 115.187 242.204 115.088C242.237 114.987 242.27 114.885 242.305 114.784L242.71 113.654H243.063L242.204 115.921C242.133 116.109 242.042 116.259 241.933 116.37C241.824 116.482 241.673 116.537 241.48 116.537C241.42 116.537 241.368 116.534 241.324 116.526C241.279 116.521 241.241 116.515 241.209 116.508V116.248C241.236 116.252 241.268 116.257 241.305 116.262C241.345 116.267 241.386 116.27 241.428 116.27C241.542 116.27 241.634 116.238 241.703 116.173C241.772 116.109 241.828 116.023 241.87 115.917L241.974 115.653L241.172 113.654ZM245.135 115.646H244.176V115.452L244.488 115.382V113.26L244.176 113.186V112.992H245.135V113.186L244.822 113.26V115.382L245.135 115.452V115.646ZM247.772 114.293C247.772 114.741 247.65 115.08 247.404 115.307C247.162 115.533 246.822 115.646 246.386 115.646H245.647V112.992H246.464C246.729 112.992 246.96 113.042 247.155 113.141C247.354 113.24 247.506 113.386 247.612 113.58C247.719 113.773 247.772 114.011 247.772 114.293ZM247.419 114.304C247.419 113.95 247.331 113.691 247.155 113.528C246.982 113.362 246.736 113.279 246.416 113.279H245.981V115.359H246.342C247.06 115.359 247.419 115.008 247.419 114.304Z" fill="#242424"/>
<path d="M226.586 118.503C226.586 118.247 226.794 118.039 227.051 118.039H319.946C320.202 118.039 320.41 118.247 320.41 118.503V128.412C320.41 128.669 320.202 128.877 319.946 128.877H227.051C226.794 128.877 226.586 128.669 226.586 128.412V118.503Z" fill="white"/>
<path d="M226.586 118.503C226.586 118.247 226.794 118.039 227.051 118.039H319.946C320.202 118.039 320.41 118.247 320.41 118.503V128.412C320.41 128.669 320.202 128.877 319.946 128.877H227.051C226.794 128.877 226.586 128.669 226.586 128.412V118.503Z" stroke="#939393" stroke-width="0.309649"/>
<path d="M227.524 135.333C227.854 135.333 228.096 135.396 228.252 135.522C228.411 135.646 228.49 135.834 228.49 136.087C228.49 136.228 228.464 136.346 228.412 136.44C228.36 136.534 228.293 136.61 228.212 136.667C228.132 136.724 228.048 136.767 227.959 136.797L228.687 137.986H228.297L227.654 136.89H227.126V137.986H226.792V135.333H227.524ZM227.506 135.623H227.126V136.607H227.524C227.74 136.607 227.897 136.565 227.996 136.481C228.095 136.394 228.145 136.268 228.145 136.102C228.145 135.929 228.093 135.806 227.989 135.734C227.885 135.66 227.723 135.623 227.506 135.623ZM229.828 135.957C229.997 135.957 230.143 135.994 230.267 136.069C230.39 136.143 230.485 136.248 230.549 136.384C230.616 136.518 230.649 136.675 230.649 136.856V137.053H229.286C229.291 137.279 229.348 137.451 229.457 137.57C229.568 137.686 229.723 137.744 229.921 137.744C230.047 137.744 230.159 137.733 230.255 137.711C230.355 137.686 230.456 137.652 230.56 137.607V137.893C230.459 137.938 230.358 137.97 230.259 137.99C230.16 138.012 230.042 138.023 229.906 138.023C229.715 138.023 229.548 137.985 229.405 137.908C229.261 137.831 229.148 137.717 229.066 137.566C228.987 137.415 228.947 137.228 228.947 137.005C228.947 136.787 228.983 136.6 229.055 136.444C229.13 136.288 229.232 136.168 229.364 136.083C229.497 135.999 229.652 135.957 229.828 135.957ZM229.824 136.225C229.668 136.225 229.544 136.275 229.453 136.377C229.364 136.476 229.31 136.615 229.293 136.793H230.307C230.305 136.625 230.265 136.488 230.189 136.384C230.112 136.278 229.99 136.225 229.824 136.225ZM232.483 138.878V138.027C232.483 137.982 232.484 137.93 232.487 137.871C232.489 137.811 232.494 137.761 232.501 137.718H232.479C232.422 137.803 232.343 137.874 232.241 137.934C232.142 137.993 232.013 138.023 231.855 138.023C231.615 138.023 231.419 137.938 231.268 137.767C231.119 137.593 231.045 137.336 231.045 136.994C231.045 136.652 231.12 136.394 231.272 136.221C231.425 136.045 231.623 135.957 231.866 135.957C232.022 135.957 232.15 135.987 232.249 136.046C232.348 136.106 232.427 136.179 232.487 136.266H232.501L232.55 135.994H232.81V138.878H232.483ZM231.918 137.752C232.121 137.752 232.266 137.696 232.353 137.585C232.44 137.471 232.484 137.297 232.487 137.064V136.998C232.487 136.745 232.444 136.554 232.36 136.425C232.276 136.294 232.126 136.228 231.911 136.228C231.732 136.228 231.6 136.299 231.513 136.44C231.426 136.579 231.383 136.766 231.383 137.001C231.383 137.237 231.426 137.421 231.513 137.555C231.6 137.686 231.735 137.752 231.918 137.752ZM235.107 135.994V137.986H234.84L234.791 137.722H234.776C234.712 137.826 234.623 137.903 234.509 137.952C234.395 138 234.274 138.023 234.145 138.023C233.904 138.023 233.724 137.966 233.602 137.852C233.481 137.736 233.42 137.551 233.42 137.299V135.994H233.751V137.276C233.751 137.593 233.898 137.752 234.193 137.752C234.413 137.752 234.566 137.69 234.65 137.566C234.737 137.442 234.78 137.264 234.78 137.031V135.994H235.107ZM236.509 135.957C236.677 135.957 236.823 135.994 236.947 136.069C237.071 136.143 237.165 136.248 237.229 136.384C237.296 136.518 237.33 136.675 237.33 136.856V137.053H235.966C235.971 137.279 236.028 137.451 236.137 137.57C236.248 137.686 236.403 137.744 236.601 137.744C236.728 137.744 236.839 137.733 236.936 137.711C237.035 137.686 237.137 137.652 237.241 137.607V137.893C237.139 137.938 237.039 137.97 236.94 137.99C236.841 138.012 236.723 138.023 236.587 138.023C236.396 138.023 236.229 137.985 236.085 137.908C235.941 137.831 235.829 137.717 235.747 137.566C235.668 137.415 235.628 137.228 235.628 137.005C235.628 136.787 235.664 136.6 235.736 136.444C235.81 136.288 235.913 136.168 236.044 136.083C236.178 135.999 236.333 135.957 236.509 135.957ZM236.505 136.225C236.349 136.225 236.225 136.275 236.133 136.377C236.044 136.476 235.991 136.615 235.973 136.793H236.988C236.985 136.625 236.946 136.488 236.869 136.384C236.792 136.278 236.671 136.225 236.505 136.225ZM239.134 137.436C239.134 137.629 239.062 137.775 238.918 137.874C238.774 137.974 238.581 138.023 238.338 138.023C238.2 138.023 238.08 138.012 237.978 137.99C237.879 137.967 237.791 137.936 237.714 137.897V137.599C237.793 137.639 237.889 137.676 238 137.711C238.114 137.743 238.229 137.759 238.346 137.759C238.512 137.759 238.632 137.733 238.706 137.681C238.781 137.627 238.818 137.555 238.818 137.466C238.818 137.416 238.804 137.372 238.777 137.332C238.75 137.292 238.7 137.253 238.628 137.213C238.559 137.173 238.459 137.129 238.327 137.079C238.198 137.03 238.088 136.98 237.997 136.931C237.905 136.881 237.834 136.822 237.785 136.752C237.735 136.683 237.71 136.594 237.71 136.485C237.71 136.316 237.779 136.186 237.915 136.095C238.054 136.003 238.234 135.957 238.457 135.957C238.579 135.957 238.691 135.969 238.795 135.994C238.902 136.019 239.001 136.051 239.093 136.091L238.981 136.351C238.897 136.316 238.809 136.287 238.717 136.262C238.626 136.237 238.532 136.225 238.435 136.225C238.301 136.225 238.198 136.247 238.127 136.292C238.057 136.334 238.023 136.392 238.023 136.466C238.023 136.523 238.039 136.57 238.071 136.607C238.103 136.645 238.156 136.682 238.231 136.719C238.307 136.756 238.409 136.798 238.535 136.845C238.662 136.892 238.769 136.941 238.859 136.99C238.948 137.04 239.016 137.1 239.063 137.172C239.11 137.242 239.134 137.329 239.134 137.436ZM240.28 137.756C240.33 137.756 240.38 137.752 240.432 137.744C240.484 137.737 240.526 137.727 240.559 137.715V137.964C240.524 137.981 240.474 137.995 240.41 138.005C240.346 138.017 240.284 138.023 240.224 138.023C240.12 138.023 240.024 138.006 239.934 137.971C239.848 137.934 239.777 137.871 239.723 137.782C239.668 137.692 239.641 137.567 239.641 137.406V136.247H239.358V136.091L239.645 135.961L239.775 135.537H239.968V135.994H240.544V136.247H239.968V137.399C239.968 137.52 239.996 137.611 240.053 137.67C240.113 137.727 240.188 137.756 240.28 137.756ZM242.807 137.986H242.473V135.626H241.644V135.333H243.632V135.626H242.807V137.986ZM243.603 135.994H243.952L244.383 137.128C244.42 137.229 244.454 137.325 244.483 137.414C244.513 137.503 244.535 137.588 244.55 137.67H244.565C244.58 137.608 244.604 137.528 244.636 137.429C244.668 137.327 244.701 137.225 244.736 137.124L245.141 135.994H245.494L244.636 138.261C244.564 138.449 244.473 138.599 244.364 138.711C244.255 138.822 244.104 138.878 243.911 138.878C243.852 138.878 243.8 138.874 243.755 138.867C243.71 138.862 243.672 138.855 243.64 138.848V138.588C243.667 138.593 243.699 138.598 243.737 138.603C243.776 138.608 243.817 138.61 243.859 138.61C243.973 138.61 244.065 138.578 244.134 138.514C244.203 138.449 244.259 138.364 244.301 138.257L244.405 137.993L243.603 135.994ZM246.757 135.957C247.002 135.957 247.199 136.043 247.347 136.214C247.498 136.384 247.574 136.642 247.574 136.986C247.574 137.326 247.498 137.583 247.347 137.759C247.199 137.935 247.001 138.023 246.753 138.023C246.599 138.023 246.472 137.995 246.37 137.938C246.271 137.881 246.193 137.813 246.136 137.733H246.114C246.116 137.775 246.12 137.829 246.125 137.893C246.132 137.957 246.136 138.013 246.136 138.06V138.878H245.809V135.994H246.077L246.121 136.266H246.136C246.195 136.179 246.274 136.106 246.37 136.046C246.467 135.987 246.596 135.957 246.757 135.957ZM246.697 136.232C246.494 136.232 246.35 136.289 246.266 136.403C246.182 136.517 246.139 136.69 246.136 136.923V136.986C246.136 137.232 246.176 137.421 246.255 137.555C246.337 137.686 246.487 137.752 246.705 137.752C246.823 137.752 246.923 137.72 247.002 137.655C247.081 137.588 247.139 137.497 247.176 137.38C247.216 137.264 247.236 137.131 247.236 136.983C247.236 136.755 247.191 136.573 247.102 136.436C247.015 136.3 246.88 136.232 246.697 136.232ZM248.864 135.957C249.033 135.957 249.179 135.994 249.303 136.069C249.427 136.143 249.521 136.248 249.585 136.384C249.652 136.518 249.685 136.675 249.685 136.856V137.053H248.322C248.327 137.279 248.384 137.451 248.493 137.57C248.604 137.686 248.759 137.744 248.957 137.744C249.084 137.744 249.195 137.733 249.292 137.711C249.391 137.686 249.492 137.652 249.596 137.607V137.893C249.495 137.938 249.394 137.97 249.295 137.99C249.196 138.012 249.079 138.023 248.942 138.023C248.752 138.023 248.584 137.985 248.441 137.908C248.297 137.831 248.184 137.717 248.103 137.566C248.023 137.415 247.984 137.228 247.984 137.005C247.984 136.787 248.02 136.6 248.091 136.444C248.166 136.288 248.269 136.168 248.4 136.083C248.534 135.999 248.688 135.957 248.864 135.957ZM248.861 136.225C248.705 136.225 248.581 136.275 248.489 136.377C248.4 136.476 248.347 136.615 248.329 136.793H249.344C249.341 136.625 249.302 136.488 249.225 136.384C249.148 136.278 249.027 136.225 248.861 136.225Z" fill="#242424"/>
<path d="M226.586 140.844C226.586 140.587 226.794 140.379 227.051 140.379H319.946C320.202 140.379 320.41 140.587 320.41 140.844V150.753C320.41 151.009 320.202 151.217 319.946 151.217H227.051C226.794 151.217 226.586 151.009 226.586 150.753V140.844Z" fill="white"/>
<path d="M226.586 140.844C226.586 140.587 226.794 140.379 227.051 140.379H319.946C320.202 140.379 320.41 140.587 320.41 140.844V150.753C320.41 151.009 320.202 151.217 319.946 151.217H227.051C226.794 151.217 226.586 151.009 226.586 150.753V140.844Z" stroke="#939393" stroke-width="0.309649"/>
<mask id="path-46-inside-2_10306_24261" fill="white">
<path d="M219 156.326H327.996V178.189H219V156.326Z"/>
</mask>
<path d="M219 156.326H327.996V178.189H219V156.326Z" fill="white"/>
<path d="M219 156.636H327.996V156.017H219V156.636Z" fill="#C9C9C9" mask="url(#path-46-inside-2_10306_24261)"/>
<path d="M272.425 161.9C272.425 161.643 272.633 161.436 272.889 161.436H295.559C295.816 161.436 296.024 161.643 296.024 161.9V172.616C296.024 172.872 295.816 173.08 295.559 173.08H272.889C272.633 173.08 272.425 172.872 272.425 172.616V161.9Z" fill="white"/>
<path d="M272.425 161.9C272.425 161.643 272.633 161.436 272.889 161.436H295.559C295.816 161.436 296.024 161.643 296.024 161.9V172.616C296.024 172.872 295.816 173.08 295.559 173.08H272.889C272.633 173.08 272.425 172.872 272.425 172.616V161.9Z" stroke="#1B77AF" stroke-width="0.309649"/>
</g>
<g filter="url(#filter3_i_10306_24261)">
<rect width="269" height="17.7295" transform="translate(8 4)" fill="white"/>
<path d="M8 4H22.5992L31.5375 21.7295H8V4Z" fill="#DA291C"/>
<line x1="8" y1="21.5767" x2="31.5375" y2="21.5767" stroke="#C9C9C9" stroke-width="0.305682"/>
<path d="M15.0119 14.4707H17.4491L17.8462 15.3958H14.5552L14.0291 16.4607H12.5747L16.1784 9.45471H17.186L20.7897 16.4607H19.3403L16.6847 11.0496L15.0119 14.4707Z" fill="white"/>
<rect x="36.4282" y="11.0307" width="36.6818" height="3.66818" rx="0.611364" fill="#C9C9C9"/>
<g clip-path="url(#clip2_10306_24261)">
<rect x="161.024" y="7.51533" width="51.3546" height="10.6989" rx="0.458523" fill="white"/>
<rect x="161.024" y="7.51533" width="51.3546" height="10.6989" rx="0.458523" stroke="#C9C9C9" stroke-width="0.305682"/>
<g clip-path="url(#clip3_10306_24261)">
<path fill-rule="evenodd" clip-rule="evenodd" d="M166.563 10.954C165.741 10.954 165.074 11.6206 165.074 12.4429C165.074 13.2652 165.741 13.9318 166.563 13.9318C167.385 13.9318 168.052 13.2652 168.052 12.4429C168.052 11.6206 167.385 10.954 166.563 10.954ZM164.845 12.4429C164.845 11.4941 165.614 10.725 166.563 10.725C167.512 10.725 168.281 11.4941 168.281 12.4429C168.281 13.3917 167.512 14.1608 166.563 14.1608C165.614 14.1608 164.845 13.3917 164.845 12.4429Z" fill="#939393"/>
<path fill-rule="evenodd" clip-rule="evenodd" d="M167.689 13.5683C167.733 13.5236 167.806 13.5236 167.85 13.5683L168.415 14.1333C168.46 14.178 168.46 14.2505 168.415 14.2953C168.371 14.34 168.298 14.34 168.254 14.2953L167.689 13.7303C167.644 13.6855 167.644 13.613 167.689 13.5683Z" fill="#939393"/>
<path fill-rule="evenodd" clip-rule="evenodd" d="M168.651 14.3105C168.588 14.2484 168.493 14.2484 168.431 14.3105C168.369 14.3727 168.369 14.4682 168.431 14.5303L168.629 14.7288C168.631 14.7309 168.633 14.7331 168.635 14.7353C168.678 14.7851 168.783 14.7948 168.849 14.7288C168.911 14.6667 168.911 14.5712 168.849 14.509L168.651 14.3105ZM168.269 14.1486C168.42 13.9969 168.661 13.9969 168.813 14.1486L169.011 14.3471C169.163 14.4987 169.163 14.7392 169.011 14.8908C168.864 15.0376 168.606 15.0482 168.465 14.888L168.269 14.6923C168.117 14.5407 168.117 14.3002 168.269 14.1486Z" fill="#939393"/>
</g>
<path d="M233.899 16.0744C232.126 16.0744 230.689 14.6374 230.689 12.8648C230.689 11.0921 232.126 9.65512 233.899 9.65512C235.672 9.65512 237.109 11.0921 237.109 12.8648C237.109 14.6374 235.672 16.0744 233.899 16.0744Z" fill="#C9C9C9"/>
<path d="M248.572 16.0744C246.799 16.0744 245.362 14.6374 245.362 12.8648C245.362 11.0921 246.799 9.65512 248.572 9.65512C250.345 9.65512 251.782 11.0921 251.782 12.8648C251.782 14.6374 250.345 16.0744 248.572 16.0744Z" fill="#C9C9C9"/>
<circle cx="266.332" cy="12.8648" r="6.11364" fill="white"/>
<g clip-path="url(#clip4_10306_24261)">
<path d="M262.838 17.8819V17.1701C262.838 16.2436 263.206 15.355 263.862 14.6999C264.517 14.0447 265.405 13.6766 266.332 13.6766C267.258 13.6766 268.147 14.0447 268.802 14.6999C269.457 15.355 269.825 16.2436 269.825 17.1701V17.8819C270.894 17.1382 271.696 16.073 272.117 14.8413C272.538 13.6096 272.555 12.2758 272.165 11.034C271.775 9.79217 270.999 8.70714 269.95 7.93683C268.901 7.16651 267.633 6.75113 266.332 6.75113C265.03 6.75113 263.763 7.16651 262.714 7.93683C261.664 8.70714 260.889 9.79217 260.499 11.034C260.109 12.2758 260.126 13.6096 260.547 14.8413C260.967 16.073 261.77 17.1382 262.838 17.8819ZM266.332 8.77698C266.728 8.77698 267.116 8.89454 267.445 9.11478C267.775 9.33503 268.032 9.64807 268.184 10.0143C268.335 10.3806 268.375 10.7836 268.298 11.1724C268.22 11.5612 268.03 11.9184 267.749 12.1987C267.469 12.479 267.112 12.6699 266.723 12.7473C266.334 12.8246 265.931 12.7849 265.565 12.6332C265.199 12.4815 264.886 12.2246 264.665 11.895C264.445 11.5653 264.327 11.1778 264.327 10.7814C264.329 10.2501 264.54 9.74098 264.916 9.36533C265.291 8.98968 265.801 8.77814 266.332 8.77698Z" fill="#C9C9C9"/>
</g>
</g>
</g>
<path d="M214.394 101C214.394 103.544 216.456 105.606 219 105.606C221.544 105.606 223.606 103.544 223.606 101C223.606 98.4562 221.544 96.394 219 96.394C216.456 96.394 214.394 98.4562 214.394 101ZM163.389 100.389C163.052 100.727 163.052 101.273 163.389 101.611L168.885 107.107C169.223 107.444 169.769 107.444 170.107 107.107C170.444 106.769 170.444 106.223 170.107 105.885L165.221 101L170.107 96.1146C170.444 95.7773 170.444 95.2305 170.107 94.8933C169.769 94.556 169.223 94.556 168.885 94.8933L163.389 100.389ZM219 100.136H164V101.864H219V100.136Z" fill="#D51588"/>
</g>
</g>
<defs>
<filter id="filter0_d_10306_24261" x="0" y="0" width="285" height="190" filterUnits="userSpaceOnUse" color-interpolation-filters="sRGB">
<feFlood flood-opacity="0" result="BackgroundImageFix"/>
<feColorMatrix in="SourceAlpha" type="matrix" values="0 0 0 0 0 0 0 0 0 0 0 0 0 0 0 0 0 0 127 0" result="hardAlpha"/>
<feOffset dy="4"/>
<feGaussianBlur stdDeviation="4"/>
<feColorMatrix type="matrix" values="0 0 0 0 0 0 0 0 0 0 0 0 0 0 0 0 0 0 0.25 0"/>
<feBlend mode="normal" in2="BackgroundImageFix" result="effect1_dropShadow_10306_24261"/>
<feBlend mode="normal" in="SourceGraphic" in2="effect1_dropShadow_10306_24261" result="shape"/>
</filter>
<filter id="filter1_i_10306_24261" x="8" y="21.7296" width="61.1362" height="157.732" filterUnits="userSpaceOnUse" color-interpolation-filters="sRGB">
<feFlood flood-opacity="0" result="BackgroundImageFix"/>
<feBlend mode="normal" in="SourceGraphic" in2="BackgroundImageFix" result="shape"/>
<feColorMatrix in="SourceAlpha" type="matrix" values="0 0 0 0 0 0 0 0 0 0 0 0 0 0 0 0 0 0 127 0" result="hardAlpha"/>
<feOffset dx="-0.305682"/>
<feComposite in2="hardAlpha" operator="arithmetic" k2="-1" k3="1"/>
<feColorMatrix type="matrix" values="0 0 0 0 0.788235 0 0 0 0 0.788235 0 0 0 0 0.788235 0 0 0 1 0"/>
<feBlend mode="normal" in2="shape" result="effect1_innerShadow_10306_24261"/>
</filter>
<filter id="filter2_d_10306_24261" x="211" y="18" width="124.997" height="172.189" filterUnits="userSpaceOnUse" color-interpolation-filters="sRGB">
<feFlood flood-opacity="0" result="BackgroundImageFix"/>
<feColorMatrix in="SourceAlpha" type="matrix" values="0 0 0 0 0 0 0 0 0 0 0 0 0 0 0 0 0 0 127 0" result="hardAlpha"/>
<feOffset dy="4"/>
<feGaussianBlur stdDeviation="4"/>
<feColorMatrix type="matrix" values="0 0 0 0 0 0 0 0 0 0 0 0 0 0 0 0 0 0 0.25 0"/>
<feBlend mode="normal" in2="BackgroundImageFix" result="effect1_dropShadow_10306_24261"/>
<feBlend mode="normal" in="SourceGraphic" in2="effect1_dropShadow_10306_24261" result="shape"/>
</filter>
<filter id="filter3_i_10306_24261" x="8" y="4" width="269" height="17.7296" filterUnits="userSpaceOnUse" color-interpolation-filters="sRGB">
<feFlood flood-opacity="0" result="BackgroundImageFix"/>
<feBlend mode="normal" in="SourceGraphic" in2="BackgroundImageFix" result="shape"/>
<feColorMatrix in="SourceAlpha" type="matrix" values="0 0 0 0 0 0 0 0 0 0 0 0 0 0 0 0 0 0 127 0" result="hardAlpha"/>
<feOffset dy="-0.305682"/>
<feComposite in2="hardAlpha" operator="arithmetic" k2="-1" k3="1"/>
<feColorMatrix type="matrix" values="0 0 0 0 0.788235 0 0 0 0 0.788235 0 0 0 0 0.788235 0 0 0 1 0"/>
<feBlend mode="normal" in2="shape" result="effect1_innerShadow_10306_24261"/>
</filter>
<clipPath id="clip0_10306_24261">
<rect x="8" y="4" width="269" height="174" rx="2.44546" fill="white"/>
</clipPath>
<clipPath id="clip1_10306_24261">
<rect width="61.1364" height="157.732" fill="white" transform="translate(8 21.7296)"/>
</clipPath>
<clipPath id="clip2_10306_24261">
<rect width="198.999" height="17.7295" fill="white" transform="translate(78.001 4)"/>
</clipPath>
<clipPath id="clip3_10306_24261">
<rect width="4.89091" height="4.89091" fill="white" transform="translate(164.54 10.4193)"/>
</clipPath>
<clipPath id="clip4_10306_24261">
<rect width="12.2273" height="11.2083" fill="white" transform="translate(260.218 6.7511)"/>
</clipPath>
</defs>
</svg>
