<svg width="285" height="190" viewBox="0 0 285 190" fill="none" xmlns="http://www.w3.org/2000/svg">
<g filter="url(#filter0_d_10306_24360)">
<g clip-path="url(#clip0_10306_24360)">
<rect x="8.15284" y="4.15284" width="268.694" height="175.156" rx="2.29261" stroke="#C9C9C9" stroke-width="0.305682"/>
<g clip-path="url(#clip1_10306_24360)" filter="url(#filter1_i_10306_24360)">
<rect width="61.1364" height="157.732" transform="translate(8 21.7296)" fill="white"/>
<rect width="61.1364" height="14.6727" transform="translate(8 21.7296)" fill="white"/>
<path d="M16.5588 32.7341C14.7861 32.7341 13.3491 31.2971 13.3491 29.5244C13.3491 27.7518 14.7861 26.3148 16.5588 26.3148C18.3314 26.3148 19.7684 27.7518 19.7684 29.5244C19.7684 31.2971 18.3314 32.7341 16.5588 32.7341Z" fill="#C9C9C9"/>
<rect x="22.3672" y="27.5375" width="36.6818" height="3.66818" rx="0.611364" fill="#C9C9C9"/>
<rect width="61.1364" height="14.6727" transform="translate(8 36.4023)" fill="white"/>
<path d="M16.5588 47.4068C14.7861 47.4068 13.3491 45.9698 13.3491 44.1972C13.3491 42.4245 14.7861 40.9875 16.5588 40.9875C18.3314 40.9875 19.7684 42.4245 19.7684 44.1972C19.7684 45.9698 18.3314 47.4068 16.5588 47.4068Z" fill="#C9C9C9"/>
<rect x="22.3672" y="42.2101" width="36.6818" height="3.66818" rx="0.611364" fill="#C9C9C9"/>
<rect width="61.1364" height="14.6727" transform="translate(8 51.075)" fill="white"/>
<path d="M16.5588 62.0796C14.7861 62.0796 13.3491 60.6426 13.3491 58.8699C13.3491 57.0973 14.7861 55.6603 16.5588 55.6603C18.3314 55.6603 19.7684 57.0973 19.7684 58.8699C19.7684 60.6426 18.3314 62.0796 16.5588 62.0796Z" fill="#C9C9C9"/>
<rect x="22.3672" y="56.883" width="36.6818" height="3.66818" rx="0.611364" fill="#C9C9C9"/>
<rect width="61.1364" height="14.6727" transform="translate(8 65.7477)" fill="white"/>
<path d="M16.5588 76.7523C14.7861 76.7523 13.3491 75.3153 13.3491 73.5427C13.3491 71.77 14.7861 70.333 16.5588 70.333C18.3314 70.333 19.7684 71.77 19.7684 73.5427C19.7684 75.3153 18.3314 76.7523 16.5588 76.7523Z" fill="#C9C9C9"/>
<rect x="22.3672" y="71.5556" width="36.6818" height="3.66818" rx="0.611364" fill="#C9C9C9"/>
</g>
<rect width="207.864" height="157.732" transform="translate(69.1362 21.7296)" fill="#F1F1F1"/>
<rect x="71.7344" y="24.3278" width="202.667" height="152.535" rx="1.06989" fill="white"/>
<rect x="71.7344" y="24.3278" width="202.667" height="152.535" rx="1.06989" stroke="#C9C9C9" stroke-width="0.305682"/>
<rect x="81.5166" y="36.5551" width="60.8307" height="7.03068" stroke="#C9C9C9" stroke-width="0.305682"/>
<rect x="81.5166" y="47.5597" width="60.8307" height="7.03068" rx="0.152841" stroke="#C9C9C9" stroke-width="0.305682"/>
<rect x="146.321" y="47.5597" width="60.8307" height="7.03068" rx="0.152841" stroke="#C9C9C9" stroke-width="0.305682"/>
<rect x="81.5166" y="58.5642" width="60.8307" height="7.03068" rx="0.152841" stroke="#C9C9C9" stroke-width="0.305682"/>
<rect x="146.321" y="58.5642" width="60.8307" height="7.03068" rx="0.152841" stroke="#C9C9C9" stroke-width="0.305682"/>
<rect x="81.5166" y="69.5688" width="60.8307" height="7.03068" stroke="#C9C9C9" stroke-width="0.305682"/>
<rect x="81.5166" y="80.5733" width="60.8307" height="7.03068" stroke="#C9C9C9" stroke-width="0.305682"/>
<rect x="81.5166" y="91.5779" width="60.8307" height="7.03068" stroke="#C9C9C9" stroke-width="0.305682"/>
<rect x="81.5166" y="102.582" width="60.8307" height="7.03068" stroke="#C9C9C9" stroke-width="0.305682"/>
<rect x="81.5166" y="113.587" width="60.8307" height="7.03068" stroke="#C9C9C9" stroke-width="0.305682"/>
<rect x="81.5166" y="124.592" width="60.8307" height="7.03068" rx="0.152841" stroke="#C9C9C9" stroke-width="0.305682"/>
<rect x="146.321" y="124.592" width="60.8307" height="7.03068" rx="0.152841" stroke="#C9C9C9" stroke-width="0.305682"/>
<rect x="81.5166" y="135.596" width="60.8307" height="23.2318" stroke="#C9C9C9" stroke-width="0.305682"/>
<path d="M84.2677 164.177C84.2677 164.937 83.6519 165.553 82.8922 165.553C82.1325 165.553 81.5166 164.937 81.5166 164.177C81.5166 163.418 82.1325 162.802 82.8922 162.802C83.6519 162.802 84.2677 163.418 84.2677 164.177Z" stroke="#C9C9C9" stroke-width="0.305682"/>
<rect x="85.7964" y="162.802" width="16.8125" height="2.75114" rx="0.152841" stroke="#C9C9C9" stroke-width="0.305682"/>
<path d="M110.556 164.177C110.556 164.937 109.94 165.553 109.181 165.553C108.421 165.553 107.805 164.937 107.805 164.177C107.805 163.418 108.421 162.802 109.181 162.802C109.94 162.802 110.556 163.418 110.556 164.177Z" stroke="#C9C9C9" stroke-width="0.305682"/>
<rect x="112.085" y="162.802" width="16.8125" height="2.75114" rx="0.152841" stroke="#C9C9C9" stroke-width="0.305682"/>
<path d="M136.845 164.177C136.845 164.937 136.229 165.553 135.469 165.553C134.71 165.553 134.094 164.937 134.094 164.177C134.094 163.418 134.71 162.802 135.469 162.802C136.229 162.802 136.845 163.418 136.845 164.177Z" stroke="#C9C9C9" stroke-width="0.305682"/>
<rect x="138.374" y="162.802" width="16.8125" height="2.75114" rx="0.152841" stroke="#C9C9C9" stroke-width="0.305682"/>
<rect opacity="0.3" x="8" y="4" width="269" height="175.461" fill="#242424"/>
<g filter="url(#filter2_d_10306_24360)">
<rect width="109" height="156.189" transform="translate(180 22)" fill="white"/>
<mask id="path-33-inside-1_10306_24360" fill="white">
<path d="M180 22H277V40.9088H180V22Z"/>
</mask>
<path d="M180 22H277V40.9088H180V22Z" fill="white"/>
<path d="M277 40.5991H180V41.2184H277V40.5991Z" fill="#C9C9C9" mask="url(#path-33-inside-1_10306_24360)"/>
<path d="M189.332 33.9544H188.802V30.2185H187.49V29.7537H190.638V30.2185H189.332V33.9544ZM191.466 29.6184C191.544 29.6184 191.613 29.6458 191.672 29.7007C191.734 29.7517 191.766 29.8341 191.766 29.9478C191.766 30.0616 191.734 30.1459 191.672 30.2008C191.613 30.2518 191.544 30.2773 191.466 30.2773C191.379 30.2773 191.307 30.2518 191.248 30.2008C191.189 30.1459 191.16 30.0616 191.16 29.9478C191.16 29.8341 191.189 29.7517 191.248 29.7007C191.307 29.6458 191.379 29.6184 191.466 29.6184ZM191.719 30.8009V33.9544H191.201V30.8009H191.719ZM193.771 33.5896C193.849 33.5896 193.93 33.5837 194.012 33.572C194.094 33.5602 194.161 33.5445 194.212 33.5249V33.9191C194.157 33.9465 194.079 33.9681 193.977 33.9838C193.875 34.0034 193.777 34.0132 193.683 34.0132C193.518 34.0132 193.365 33.9858 193.224 33.9308C193.086 33.872 192.975 33.772 192.888 33.6308C192.802 33.4896 192.759 33.2915 192.759 33.0366V31.201H192.312V30.9539L192.765 30.748L192.971 30.0773H193.277V30.8009H194.189V31.201H193.277V33.0248C193.277 33.217 193.322 33.3602 193.412 33.4543C193.506 33.5445 193.626 33.5896 193.771 33.5896ZM196.061 30.7421C196.328 30.7421 196.559 30.8009 196.756 30.9186C196.952 31.0362 197.101 31.2029 197.203 31.4187C197.309 31.6305 197.362 31.8795 197.362 32.1658V32.4777H195.202C195.21 32.8346 195.3 33.1072 195.473 33.2954C195.65 33.4798 195.895 33.572 196.208 33.572C196.408 33.572 196.585 33.5543 196.738 33.519C196.895 33.4798 197.056 33.4249 197.22 33.3543V33.8073C197.06 33.8779 196.901 33.9289 196.744 33.9603C196.587 33.9956 196.401 34.0132 196.185 34.0132C195.883 34.0132 195.618 33.9524 195.391 33.8308C195.163 33.7092 194.985 33.5288 194.855 33.2896C194.73 33.0503 194.667 32.7542 194.667 32.4012C194.667 32.056 194.724 31.7599 194.838 31.5128C194.955 31.2657 195.118 31.0755 195.326 30.9421C195.538 30.8088 195.783 30.7421 196.061 30.7421ZM196.055 31.1657C195.808 31.1657 195.612 31.2461 195.467 31.4069C195.326 31.5638 195.242 31.7834 195.214 32.0658H196.82C196.816 31.7991 196.754 31.5834 196.632 31.4187C196.51 31.25 196.318 31.1657 196.055 31.1657ZM198.682 33.9544H198.164V29.483H198.682V33.9544Z" fill="#242424"/>
<path d="M188.126 48.6245H187.792V45.9715H189.275V46.265H188.126V47.2051H189.204V47.4987H188.126V48.6245ZM189.842 45.886C189.891 45.886 189.934 45.9033 189.972 45.938C190.011 45.9702 190.031 46.0223 190.031 46.0941C190.031 46.1659 190.011 46.2192 189.972 46.2539C189.934 46.2861 189.891 46.3022 189.842 46.3022C189.787 46.3022 189.741 46.2861 189.704 46.2539C189.667 46.2192 189.648 46.1659 189.648 46.0941C189.648 46.0223 189.667 45.9702 189.704 45.938C189.741 45.9033 189.787 45.886 189.842 45.886ZM190.001 46.6329V48.6245H189.674V46.6329H190.001ZM191.561 46.5957C191.598 46.5957 191.638 46.5982 191.68 46.6032C191.722 46.6056 191.761 46.6106 191.795 46.618L191.754 46.919C191.722 46.9116 191.686 46.9054 191.647 46.9004C191.607 46.8955 191.571 46.893 191.539 46.893C191.437 46.893 191.342 46.9215 191.253 46.9784C191.164 47.0329 191.092 47.111 191.037 47.2125C190.985 47.3116 190.959 47.4281 190.959 47.5618V48.6245H190.632V46.6329H190.9L190.937 46.997H190.952C191.014 46.888 191.096 46.7939 191.197 46.7146C191.301 46.6354 191.423 46.5957 191.561 46.5957ZM193.464 48.0746C193.464 48.2678 193.392 48.414 193.249 48.5131C193.105 48.6122 192.912 48.6617 192.669 48.6617C192.53 48.6617 192.41 48.6506 192.308 48.6283C192.209 48.606 192.121 48.575 192.045 48.5354V48.2381C192.124 48.2777 192.219 48.3149 192.331 48.3496C192.445 48.3818 192.56 48.3979 192.676 48.3979C192.842 48.3979 192.962 48.3719 193.037 48.3198C193.111 48.2653 193.148 48.1935 193.148 48.1043C193.148 48.0548 193.135 48.0102 193.107 47.9706C193.08 47.9309 193.031 47.8913 192.959 47.8517C192.889 47.812 192.789 47.7674 192.658 47.7179C192.529 47.6683 192.419 47.6188 192.327 47.5693C192.235 47.5197 192.165 47.4603 192.115 47.3909C192.066 47.3215 192.041 47.2324 192.041 47.1234C192.041 46.9549 192.109 46.8249 192.245 46.7332C192.384 46.6415 192.565 46.5957 192.788 46.5957C192.909 46.5957 193.022 46.6081 193.126 46.6329C193.232 46.6577 193.332 46.6899 193.423 46.7295L193.312 46.9896C193.227 46.9549 193.14 46.9252 193.048 46.9004C192.956 46.8756 192.862 46.8633 192.765 46.8633C192.632 46.8633 192.529 46.8856 192.457 46.9301C192.388 46.9723 192.353 47.0305 192.353 47.1048C192.353 47.1618 192.369 47.2088 192.401 47.246C192.434 47.2831 192.487 47.3203 192.561 47.3575C192.638 47.3946 192.739 47.4367 192.866 47.4838C192.992 47.5309 193.1 47.5792 193.189 47.6287C193.278 47.6783 193.346 47.7389 193.393 47.8108C193.441 47.8801 193.464 47.9681 193.464 48.0746ZM194.61 48.3942C194.66 48.3942 194.711 48.3904 194.763 48.383C194.815 48.3756 194.857 48.3657 194.889 48.3533V48.6022C194.854 48.6196 194.805 48.6332 194.74 48.6431C194.676 48.6555 194.614 48.6617 194.555 48.6617C194.451 48.6617 194.354 48.6444 194.265 48.6097C194.178 48.5725 194.108 48.5094 194.053 48.4202C193.999 48.331 193.971 48.2059 193.971 48.0449V46.8856H193.689V46.7295L193.975 46.5994L194.105 46.1758H194.298V46.6329H194.874V46.8856H194.298V48.0374C194.298 48.1588 194.327 48.2492 194.384 48.3087C194.443 48.3657 194.519 48.3942 194.61 48.3942ZM198.401 48.6245H198.011L196.591 46.4211H196.576C196.581 46.5078 196.588 46.6155 196.595 46.7444C196.602 46.8732 196.606 47.0057 196.606 47.1419V48.6245H196.298V45.9715H196.684L198.1 48.1675H198.115C198.112 48.1279 198.109 48.0684 198.104 47.9891C198.101 47.9099 198.097 47.8244 198.092 47.7328C198.09 47.6386 198.089 47.5507 198.089 47.4689V45.9715H198.401V48.6245ZM199.831 46.5994C200.073 46.5994 200.253 46.6527 200.369 46.7592C200.486 46.8657 200.544 47.0354 200.544 47.2683V48.6245H200.306L200.243 48.3421H200.228C200.141 48.4511 200.05 48.5316 199.953 48.5837C199.857 48.6357 199.725 48.6617 199.559 48.6617C199.379 48.6617 199.229 48.6146 199.11 48.5205C198.991 48.4239 198.931 48.274 198.931 48.0709C198.931 47.8727 199.009 47.7204 199.165 47.6138C199.322 47.5049 199.562 47.4454 199.886 47.4355L200.224 47.4243V47.3054C200.224 47.1395 200.189 47.0243 200.117 46.9599C200.045 46.8955 199.943 46.8633 199.812 46.8633C199.708 46.8633 199.609 46.8794 199.515 46.9116C199.421 46.9413 199.333 46.976 199.251 47.0156L199.151 46.7704C199.237 46.7233 199.34 46.6837 199.459 46.6515C199.578 46.6168 199.702 46.5994 199.831 46.5994ZM200.221 47.651L199.927 47.6622C199.679 47.6721 199.507 47.7117 199.411 47.7811C199.317 47.8504 199.27 47.9483 199.27 48.0746C199.27 48.1861 199.303 48.2678 199.37 48.3198C199.439 48.3719 199.527 48.3979 199.634 48.3979C199.8 48.3979 199.938 48.3521 200.05 48.2604C200.164 48.1663 200.221 48.0226 200.221 47.8294V47.651ZM203.344 46.5957C203.569 46.5957 203.738 46.6539 203.849 46.7704C203.961 46.8868 204.017 47.0726 204.017 47.3277V48.6245H203.693V47.3426C203.693 47.028 203.558 46.8707 203.288 46.8707C203.095 46.8707 202.956 46.9264 202.872 47.0379C202.79 47.1494 202.75 47.3116 202.75 47.5247V48.6245H202.426V47.3426C202.426 47.028 202.29 46.8707 202.018 46.8707C201.817 46.8707 201.678 46.9326 201.601 47.0565C201.525 47.1803 201.486 47.3587 201.486 47.5916V48.6245H201.159V46.6329H201.423L201.471 46.9041H201.49C201.552 46.8001 201.635 46.7233 201.739 46.6738C201.845 46.6217 201.958 46.5957 202.077 46.5957C202.389 46.5957 202.592 46.7072 202.686 46.9301H202.705C202.772 46.8162 202.862 46.732 202.976 46.6775C203.09 46.623 203.213 46.5957 203.344 46.5957ZM205.401 46.5957C205.569 46.5957 205.716 46.6329 205.839 46.7072C205.963 46.7815 206.057 46.8868 206.122 47.023C206.189 47.1568 206.222 47.3141 206.222 47.4949V47.6919H204.858C204.863 47.9173 204.92 48.0895 205.029 48.2084C205.141 48.3248 205.296 48.383 205.494 48.383C205.62 48.383 205.732 48.3719 205.828 48.3496C205.927 48.3248 206.029 48.2901 206.133 48.2455V48.5316C206.031 48.5762 205.931 48.6084 205.832 48.6283C205.733 48.6506 205.615 48.6617 205.479 48.6617C205.288 48.6617 205.121 48.6233 204.977 48.5465C204.834 48.4697 204.721 48.3558 204.639 48.2047C204.56 48.0535 204.52 47.8665 204.52 47.6436C204.52 47.4256 204.556 47.2386 204.628 47.0825C204.702 46.9264 204.805 46.8063 204.937 46.7221C205.07 46.6378 205.225 46.5957 205.401 46.5957ZM205.397 46.8633C205.241 46.8633 205.117 46.914 205.026 47.0156C204.937 47.1147 204.883 47.2534 204.866 47.4318H205.88C205.878 47.2633 205.838 47.1271 205.761 47.023C205.685 46.9165 205.563 46.8633 205.397 46.8633Z" fill="#242424"/>
<path d="M187.586 51.4824C187.586 51.2259 187.794 51.018 188.051 51.018H268.949C269.206 51.018 269.414 51.2259 269.414 51.4824V61.3912C269.414 61.6477 269.206 61.8557 268.949 61.8557H188.051C187.794 61.8557 187.586 61.6477 187.586 61.3912V51.4824Z" fill="white"/>
<path d="M187.586 51.4824C187.586 51.2259 187.794 51.018 188.051 51.018H268.949C269.206 51.018 269.414 51.2259 269.414 51.4824V61.3912C269.414 61.6477 269.206 61.8557 268.949 61.8557H188.051C187.794 61.8557 187.586 61.6477 187.586 61.3912V51.4824Z" stroke="#939393" stroke-width="0.309649"/>
<path d="M187.792 70.9649V68.3118H188.126V70.6676H189.286V70.9649H187.792ZM190.45 68.9398C190.693 68.9398 190.873 68.993 190.989 69.0995C191.106 69.2061 191.164 69.3758 191.164 69.6086V70.9649H190.926L190.863 70.6825H190.848C190.761 70.7915 190.67 70.872 190.573 70.924C190.476 70.976 190.345 71.002 190.179 71.002C189.998 71.002 189.848 70.955 189.73 70.8608C189.611 70.7642 189.551 70.6144 189.551 70.4112C189.551 70.213 189.629 70.0607 189.785 69.9542C189.941 69.8452 190.182 69.7857 190.506 69.7758L190.844 69.7647V69.6458C190.844 69.4798 190.808 69.3646 190.737 69.3002C190.665 69.2358 190.563 69.2036 190.432 69.2036C190.328 69.2036 190.229 69.2197 190.135 69.2519C190.04 69.2816 189.952 69.3163 189.871 69.3559L189.77 69.1107C189.857 69.0636 189.96 69.024 190.079 68.9918C190.198 68.9571 190.322 68.9398 190.45 68.9398ZM190.841 69.9913L190.547 70.0025C190.299 70.0124 190.127 70.052 190.031 70.1214C189.936 70.1908 189.889 70.2886 189.889 70.4149C189.889 70.5264 189.923 70.6082 189.99 70.6602C190.059 70.7122 190.147 70.7382 190.253 70.7382C190.419 70.7382 190.558 70.6924 190.67 70.6007C190.784 70.5066 190.841 70.3629 190.841 70.1697V69.9913ZM193.076 70.4149C193.076 70.6082 193.004 70.7543 192.86 70.8534C192.717 70.9525 192.523 71.002 192.281 71.002C192.142 71.002 192.022 70.9909 191.92 70.9686C191.821 70.9463 191.733 70.9153 191.656 70.8757V70.5784C191.736 70.6181 191.831 70.6552 191.942 70.6899C192.056 70.7221 192.172 70.7382 192.288 70.7382C192.454 70.7382 192.574 70.7122 192.648 70.6602C192.723 70.6057 192.76 70.5338 192.76 70.4447C192.76 70.3951 192.746 70.3505 192.719 70.3109C192.692 70.2713 192.642 70.2316 192.57 70.192C192.501 70.1524 192.401 70.1078 192.269 70.0582C192.141 70.0087 192.03 69.9591 191.939 69.9096C191.847 69.86 191.776 69.8006 191.727 69.7312C191.677 69.6619 191.653 69.5727 191.653 69.4637C191.653 69.2952 191.721 69.1652 191.857 69.0735C191.996 68.9819 192.177 68.9361 192.4 68.9361C192.521 68.9361 192.634 68.9484 192.738 68.9732C192.844 68.998 192.943 69.0302 193.035 69.0698L192.923 69.3299C192.839 69.2952 192.751 69.2655 192.66 69.2407C192.568 69.216 192.474 69.2036 192.377 69.2036C192.243 69.2036 192.141 69.2259 192.069 69.2705C191.999 69.3126 191.965 69.3708 191.965 69.4451C191.965 69.5021 191.981 69.5492 192.013 69.5863C192.045 69.6235 192.099 69.6606 192.173 69.6978C192.25 69.7349 192.351 69.7771 192.478 69.8241C192.604 69.8712 192.712 69.9195 192.801 69.969C192.89 70.0186 192.958 70.0793 193.005 70.1511C193.052 70.2205 193.076 70.3084 193.076 70.4149ZM194.222 70.7345C194.272 70.7345 194.322 70.7308 194.375 70.7233C194.427 70.7159 194.469 70.706 194.501 70.6936V70.9426C194.466 70.9599 194.417 70.9735 194.352 70.9835C194.288 70.9958 194.226 71.002 194.166 71.002C194.062 71.002 193.966 70.9847 193.877 70.95C193.79 70.9129 193.719 70.8497 193.665 70.7605C193.61 70.6713 193.583 70.5462 193.583 70.3852V69.2259H193.301V69.0698L193.587 68.9398L193.717 68.5162H193.91V68.9732H194.486V69.2259H193.91V70.3778C193.91 70.4992 193.939 70.5896 193.995 70.649C194.055 70.706 194.131 70.7345 194.222 70.7345ZM198.013 70.9649H197.622L196.203 68.7614H196.188C196.193 68.8481 196.199 68.9559 196.207 69.0847C196.214 69.2135 196.218 69.346 196.218 69.4823V70.9649H195.909V68.3118H196.296L197.712 70.5078H197.726C197.724 70.4682 197.72 70.4087 197.715 70.3295C197.713 70.2502 197.709 70.1647 197.704 70.0731C197.702 69.979 197.7 69.891 197.7 69.8093V68.3118H198.013V70.9649ZM199.442 68.9398C199.685 68.9398 199.865 68.993 199.981 69.0995C200.098 69.2061 200.156 69.3758 200.156 69.6086V70.9649H199.918L199.855 70.6825H199.84C199.753 70.7915 199.662 70.872 199.565 70.924C199.468 70.976 199.337 71.002 199.171 71.002C198.99 71.002 198.84 70.955 198.721 70.8608C198.603 70.7642 198.543 70.6144 198.543 70.4112C198.543 70.213 198.621 70.0607 198.777 69.9542C198.933 69.8452 199.174 69.7857 199.498 69.7758L199.836 69.7647V69.6458C199.836 69.4798 199.8 69.3646 199.728 69.3002C199.657 69.2358 199.555 69.2036 199.424 69.2036C199.32 69.2036 199.221 69.2197 199.126 69.2519C199.032 69.2816 198.944 69.3163 198.863 69.3559L198.762 69.1107C198.849 69.0636 198.952 69.024 199.071 68.9918C199.19 68.9571 199.314 68.9398 199.442 68.9398ZM199.832 69.9913L199.539 70.0025C199.291 70.0124 199.119 70.052 199.022 70.1214C198.928 70.1908 198.881 70.2886 198.881 70.4149C198.881 70.5264 198.915 70.6082 198.982 70.6602C199.051 70.7122 199.139 70.7382 199.245 70.7382C199.411 70.7382 199.55 70.6924 199.662 70.6007C199.775 70.5066 199.832 70.3629 199.832 70.1697V69.9913ZM202.956 68.9361C203.181 68.9361 203.35 68.9943 203.461 69.1107C203.573 69.2271 203.628 69.4129 203.628 69.6681V70.9649H203.305V69.6829C203.305 69.3683 203.17 69.211 202.9 69.211C202.707 69.211 202.568 69.2668 202.484 69.3782C202.402 69.4897 202.361 69.652 202.361 69.865V70.9649H202.038V69.6829C202.038 69.3683 201.902 69.211 201.629 69.211C201.429 69.211 201.29 69.273 201.213 69.3968C201.136 69.5207 201.098 69.699 201.098 69.9319V70.9649H200.771V68.9732H201.035L201.083 69.2445H201.102C201.164 69.1404 201.247 69.0636 201.351 69.0141C201.457 68.9621 201.57 68.9361 201.689 68.9361C202.001 68.9361 202.204 69.0475 202.298 69.2705H202.317C202.384 69.1565 202.474 69.0723 202.588 69.0178C202.702 68.9633 202.824 68.9361 202.956 68.9361ZM205.013 68.9361C205.181 68.9361 205.327 68.9732 205.451 69.0475C205.575 69.1218 205.669 69.2271 205.734 69.3634C205.8 69.4971 205.834 69.6544 205.834 69.8353V70.0322H204.47C204.475 70.2576 204.532 70.4298 204.641 70.5487C204.753 70.6651 204.907 70.7233 205.106 70.7233C205.232 70.7233 205.343 70.7122 205.44 70.6899C205.539 70.6651 205.641 70.6305 205.745 70.5859V70.872C205.643 70.9166 205.543 70.9488 205.444 70.9686C205.345 70.9909 205.227 71.002 205.091 71.002C204.9 71.002 204.733 70.9636 204.589 70.8868C204.445 70.81 204.333 70.6961 204.251 70.545C204.172 70.3939 204.132 70.2069 204.132 69.9839C204.132 69.7659 204.168 69.5789 204.24 69.4228C204.314 69.2668 204.417 69.1466 204.548 69.0624C204.682 68.9782 204.837 68.9361 205.013 68.9361ZM205.009 69.2036C204.853 69.2036 204.729 69.2544 204.637 69.3559C204.548 69.455 204.495 69.5937 204.478 69.7721H205.492C205.49 69.6037 205.45 69.4674 205.373 69.3634C205.296 69.2569 205.175 69.2036 205.009 69.2036Z" fill="#242424"/>
<path d="M187.586 73.8228C187.586 73.5662 187.794 73.3583 188.051 73.3583H268.949C269.206 73.3583 269.414 73.5662 269.414 73.8228V83.7315C269.414 83.988 269.206 84.196 268.949 84.196H188.051C187.794 84.196 187.586 83.988 187.586 83.7315V73.8228Z" fill="white"/>
<path d="M187.586 73.8228C187.586 73.5662 187.794 73.3583 188.051 73.3583H268.949C269.206 73.3583 269.414 73.5662 269.414 73.8228V83.7315C269.414 83.988 269.206 84.196 268.949 84.196H188.051C187.794 84.196 187.586 83.988 187.586 83.7315V73.8228Z" stroke="#939393" stroke-width="0.309649"/>
<path d="M189.275 93.3052H187.792V90.6522H189.275V90.9457H188.126V91.7743H189.208V92.0642H188.126V93.0117H189.275V93.3052ZM191.997 91.2764C192.223 91.2764 192.391 91.3346 192.502 91.4511C192.614 91.5675 192.67 91.7533 192.67 92.0084V93.3052H192.346V92.0233C192.346 91.7087 192.211 91.5514 191.941 91.5514C191.748 91.5514 191.609 91.6071 191.525 91.7186C191.443 91.8301 191.403 91.9923 191.403 92.2054V93.3052H191.079V92.0233C191.079 91.7087 190.943 91.5514 190.671 91.5514C190.47 91.5514 190.331 91.6133 190.254 91.7372C190.178 91.861 190.139 92.0394 190.139 92.2722V93.3052H189.812V91.3136H190.076L190.124 91.5848H190.143C190.205 91.4808 190.288 91.404 190.392 91.3544C190.498 91.3024 190.611 91.2764 190.73 91.2764C191.042 91.2764 191.245 91.3879 191.339 91.6108H191.358C191.425 91.4969 191.515 91.4127 191.629 91.3582C191.743 91.3037 191.866 91.2764 191.997 91.2764ZM194.039 91.2801C194.282 91.2801 194.462 91.3334 194.578 91.4399C194.694 91.5464 194.753 91.7161 194.753 91.949V93.3052H194.515L194.452 93.0228H194.437C194.35 93.1318 194.258 93.2123 194.162 93.2644C194.065 93.3164 193.934 93.3424 193.768 93.3424C193.587 93.3424 193.437 93.2953 193.318 93.2012C193.199 93.1046 193.14 92.9547 193.14 92.7516C193.14 92.5534 193.218 92.4011 193.374 92.2945C193.53 92.1855 193.77 92.1261 194.095 92.1162L194.433 92.105V91.9861C194.433 91.8202 194.397 91.705 194.325 91.6406C194.253 91.5762 194.152 91.544 194.021 91.544C193.917 91.544 193.817 91.5601 193.723 91.5923C193.629 91.622 193.541 91.6567 193.46 91.6963L193.359 91.4511C193.446 91.404 193.549 91.3644 193.668 91.3322C193.787 91.2975 193.91 91.2801 194.039 91.2801ZM194.429 92.3317L194.136 92.3428C193.888 92.3528 193.716 92.3924 193.619 92.4618C193.525 92.5311 193.478 92.629 193.478 92.7553C193.478 92.8668 193.512 92.9485 193.578 93.0005C193.648 93.0526 193.736 93.0786 193.842 93.0786C194.008 93.0786 194.147 93.0327 194.258 92.9411C194.372 92.847 194.429 92.7033 194.429 92.5101V92.3317ZM195.535 90.5667C195.585 90.5667 195.628 90.584 195.665 90.6187C195.705 90.6509 195.724 90.7029 195.724 90.7748C195.724 90.8466 195.705 90.8999 195.665 90.9346C195.628 90.9668 195.585 90.9829 195.535 90.9829C195.48 90.9829 195.435 90.9668 195.397 90.9346C195.36 90.8999 195.342 90.8466 195.342 90.7748C195.342 90.7029 195.36 90.6509 195.397 90.6187C195.435 90.584 195.48 90.5667 195.535 90.5667ZM195.695 91.3136V93.3052H195.368V91.3136H195.695ZM196.653 93.3052H196.326V90.4812H196.653V93.3052Z" fill="#242424"/>
<path d="M187.586 96.1631C187.586 95.9066 187.794 95.6986 188.051 95.6986H268.949C269.206 95.6986 269.414 95.9066 269.414 96.1631V106.072C269.414 106.328 269.206 106.536 268.949 106.536H188.051C187.794 106.536 187.586 106.328 187.586 106.072V96.1631Z" fill="white"/>
<path d="M187.586 96.1631C187.586 95.9066 187.794 95.6986 188.051 95.6986H268.949C269.206 95.6986 269.414 95.9066 269.414 96.1631V106.072C269.414 106.328 269.206 106.536 268.949 106.536H188.051C187.794 106.536 187.586 106.328 187.586 106.072V96.1631Z" stroke="#939393" stroke-width="0.309649"/>
<path d="M188.929 113.249C188.644 113.249 188.42 113.344 188.257 113.535C188.093 113.726 188.011 113.987 188.011 114.319C188.011 114.648 188.087 114.91 188.238 115.103C188.392 115.294 188.621 115.389 188.925 115.389C189.039 115.389 189.148 115.379 189.252 115.359C189.356 115.34 189.459 115.315 189.561 115.285V115.575C189.462 115.612 189.359 115.639 189.252 115.657C189.148 115.674 189.023 115.683 188.877 115.683C188.607 115.683 188.382 115.627 188.201 115.516C188.02 115.404 187.884 115.246 187.792 115.04C187.703 114.834 187.658 114.593 187.658 114.315C187.658 114.048 187.707 113.812 187.803 113.609C187.902 113.404 188.047 113.244 188.238 113.13C188.429 113.014 188.66 112.955 188.933 112.955C189.213 112.955 189.457 113.007 189.665 113.111L189.531 113.394C189.449 113.357 189.358 113.323 189.256 113.293C189.157 113.264 189.048 113.249 188.929 113.249ZM191.827 114.646C191.827 114.975 191.743 115.231 191.574 115.411C191.408 115.592 191.183 115.683 190.898 115.683C190.722 115.683 190.565 115.643 190.426 115.564C190.29 115.482 190.182 115.364 190.103 115.211C190.023 115.055 189.984 114.866 189.984 114.646C189.984 114.317 190.066 114.063 190.229 113.884C190.395 113.706 190.622 113.617 190.909 113.617C191.087 113.617 191.246 113.658 191.385 113.739C191.523 113.819 191.631 113.935 191.708 114.089C191.787 114.24 191.827 114.426 191.827 114.646ZM190.322 114.646C190.322 114.881 190.368 115.068 190.459 115.207C190.554 115.343 190.702 115.411 190.905 115.411C191.106 115.411 191.253 115.343 191.347 115.207C191.442 115.068 191.489 114.881 191.489 114.646C191.489 114.411 191.442 114.226 191.347 114.092C191.253 113.959 191.105 113.892 190.902 113.892C190.698 113.892 190.551 113.959 190.459 114.092C190.368 114.226 190.322 114.411 190.322 114.646ZM194.53 113.617C194.755 113.617 194.924 113.675 195.035 113.791C195.147 113.908 195.202 114.094 195.202 114.349V115.646H194.879V114.364C194.879 114.049 194.744 113.892 194.474 113.892C194.281 113.892 194.142 113.947 194.058 114.059C193.976 114.17 193.935 114.333 193.935 114.546V115.646H193.612V114.364C193.612 114.049 193.476 113.892 193.203 113.892C193.003 113.892 192.864 113.954 192.787 114.078C192.71 114.201 192.672 114.38 192.672 114.613V115.646H192.345V113.654H192.609L192.657 113.925H192.676C192.738 113.821 192.821 113.744 192.925 113.695C193.031 113.643 193.144 113.617 193.263 113.617C193.575 113.617 193.778 113.728 193.872 113.951H193.891C193.958 113.837 194.048 113.753 194.162 113.698C194.276 113.644 194.399 113.617 194.53 113.617ZM196.765 113.617C197.01 113.617 197.207 113.702 197.356 113.873C197.507 114.044 197.583 114.302 197.583 114.646C197.583 114.985 197.507 115.243 197.356 115.419C197.207 115.595 197.009 115.683 196.762 115.683C196.608 115.683 196.48 115.654 196.379 115.597C196.28 115.54 196.202 115.472 196.145 115.393H196.122C196.125 115.435 196.129 115.488 196.134 115.553C196.141 115.617 196.145 115.673 196.145 115.72V116.537H195.818V113.654H196.085L196.13 113.925H196.145C196.204 113.838 196.282 113.765 196.379 113.706C196.475 113.646 196.604 113.617 196.765 113.617ZM196.706 113.892C196.503 113.892 196.359 113.949 196.275 114.063C196.191 114.177 196.147 114.35 196.145 114.583V114.646C196.145 114.891 196.184 115.081 196.264 115.215C196.345 115.346 196.495 115.411 196.713 115.411C196.832 115.411 196.931 115.379 197.01 115.315C197.09 115.248 197.148 115.156 197.185 115.04C197.225 114.923 197.245 114.791 197.245 114.642C197.245 114.414 197.2 114.232 197.111 114.096C197.024 113.96 196.889 113.892 196.706 113.892ZM198.858 113.62C199.101 113.62 199.28 113.674 199.397 113.78C199.513 113.887 199.572 114.056 199.572 114.289V115.646H199.334L199.271 115.363H199.256C199.169 115.472 199.077 115.553 198.981 115.605C198.884 115.657 198.753 115.683 198.587 115.683C198.406 115.683 198.256 115.636 198.137 115.542C198.018 115.445 197.959 115.295 197.959 115.092C197.959 114.894 198.037 114.741 198.193 114.635C198.349 114.526 198.589 114.466 198.914 114.457L199.252 114.445V114.326C199.252 114.16 199.216 114.045 199.144 113.981C199.072 113.916 198.971 113.884 198.84 113.884C198.735 113.884 198.636 113.9 198.542 113.933C198.448 113.962 198.36 113.997 198.278 114.037L198.178 113.791C198.265 113.744 198.368 113.705 198.487 113.672C198.605 113.638 198.729 113.62 198.858 113.62ZM199.248 114.672L198.955 114.683C198.707 114.693 198.535 114.733 198.438 114.802C198.344 114.871 198.297 114.969 198.297 115.096C198.297 115.207 198.33 115.289 198.397 115.341C198.467 115.393 198.555 115.419 198.661 115.419C198.827 115.419 198.966 115.373 199.077 115.281C199.191 115.187 199.248 115.044 199.248 114.85V114.672ZM201.145 113.617C201.383 113.617 201.563 113.675 201.684 113.791C201.806 113.908 201.866 114.094 201.866 114.349V115.646H201.543V114.371C201.543 114.051 201.394 113.892 201.097 113.892C200.877 113.892 200.724 113.954 200.64 114.078C200.556 114.201 200.514 114.38 200.514 114.613V115.646H200.187V113.654H200.45L200.499 113.925H200.517C200.582 113.821 200.671 113.744 200.785 113.695C200.899 113.643 201.019 113.617 201.145 113.617ZM202.172 113.654H202.521L202.952 114.787C202.989 114.889 203.022 114.984 203.052 115.073C203.082 115.163 203.104 115.248 203.119 115.33H203.134C203.149 115.268 203.172 115.187 203.204 115.088C203.237 114.987 203.27 114.885 203.305 114.784L203.71 113.654H204.063L203.204 115.921C203.133 116.109 203.042 116.259 202.933 116.37C202.824 116.482 202.673 116.537 202.48 116.537C202.42 116.537 202.368 116.534 202.324 116.526C202.279 116.521 202.241 116.515 202.209 116.508V116.248C202.236 116.252 202.268 116.257 202.305 116.262C202.345 116.267 202.386 116.27 202.428 116.27C202.542 116.27 202.634 116.238 202.703 116.173C202.772 116.109 202.828 116.023 202.87 115.917L202.974 115.653L202.172 113.654ZM206.135 115.646H205.176V115.452L205.488 115.382V113.26L205.176 113.186V112.992H206.135V113.186L205.822 113.26V115.382L206.135 115.452V115.646ZM208.772 114.293C208.772 114.741 208.65 115.08 208.404 115.307C208.162 115.533 207.822 115.646 207.386 115.646H206.647V112.992H207.464C207.729 112.992 207.96 113.042 208.155 113.141C208.354 113.24 208.506 113.386 208.612 113.58C208.719 113.773 208.772 114.011 208.772 114.293ZM208.419 114.304C208.419 113.95 208.331 113.691 208.155 113.528C207.982 113.362 207.736 113.279 207.416 113.279H206.981V115.359H207.342C208.06 115.359 208.419 115.008 208.419 114.304Z" fill="#242424"/>
<path d="M187.586 118.503C187.586 118.247 187.794 118.039 188.051 118.039H268.949C269.206 118.039 269.414 118.247 269.414 118.503V128.412C269.414 128.669 269.206 128.877 268.949 128.877H188.051C187.794 128.877 187.586 128.669 187.586 128.412V118.503Z" fill="white"/>
<path d="M187.586 118.503C187.586 118.247 187.794 118.039 188.051 118.039H268.949C269.206 118.039 269.414 118.247 269.414 118.503V128.412C269.414 128.669 269.206 128.877 268.949 128.877H188.051C187.794 128.877 187.586 128.669 187.586 128.412V118.503Z" stroke="#939393" stroke-width="0.309649"/>
<path d="M188.524 135.333C188.854 135.333 189.096 135.396 189.252 135.522C189.411 135.646 189.49 135.834 189.49 136.087C189.49 136.228 189.464 136.346 189.412 136.44C189.36 136.534 189.293 136.61 189.212 136.667C189.132 136.724 189.048 136.767 188.959 136.797L189.687 137.986H189.297L188.654 136.89H188.126V137.986H187.792V135.333H188.524ZM188.506 135.623H188.126V136.607H188.524C188.74 136.607 188.897 136.565 188.996 136.481C189.095 136.394 189.145 136.268 189.145 136.102C189.145 135.929 189.093 135.806 188.989 135.734C188.885 135.66 188.723 135.623 188.506 135.623ZM190.828 135.957C190.997 135.957 191.143 135.994 191.267 136.069C191.39 136.143 191.485 136.248 191.549 136.384C191.616 136.518 191.649 136.675 191.649 136.856V137.053H190.286C190.291 137.279 190.348 137.451 190.457 137.57C190.568 137.686 190.723 137.744 190.921 137.744C191.047 137.744 191.159 137.733 191.255 137.711C191.355 137.686 191.456 137.652 191.56 137.607V137.893C191.459 137.938 191.358 137.97 191.259 137.99C191.16 138.012 191.042 138.023 190.906 138.023C190.715 138.023 190.548 137.985 190.405 137.908C190.261 137.831 190.148 137.717 190.066 137.566C189.987 137.415 189.947 137.228 189.947 137.005C189.947 136.787 189.983 136.6 190.055 136.444C190.13 136.288 190.232 136.168 190.364 136.083C190.497 135.999 190.652 135.957 190.828 135.957ZM190.824 136.225C190.668 136.225 190.544 136.275 190.453 136.377C190.364 136.476 190.31 136.615 190.293 136.793H191.307C191.305 136.625 191.265 136.488 191.189 136.384C191.112 136.278 190.99 136.225 190.824 136.225ZM193.483 138.878V138.027C193.483 137.982 193.484 137.93 193.487 137.871C193.489 137.811 193.494 137.761 193.501 137.718H193.479C193.422 137.803 193.343 137.874 193.241 137.934C193.142 137.993 193.013 138.023 192.855 138.023C192.615 138.023 192.419 137.938 192.268 137.767C192.119 137.593 192.045 137.336 192.045 136.994C192.045 136.652 192.12 136.394 192.272 136.221C192.425 136.045 192.623 135.957 192.866 135.957C193.022 135.957 193.15 135.987 193.249 136.046C193.348 136.106 193.427 136.179 193.487 136.266H193.501L193.55 135.994H193.81V138.878H193.483ZM192.918 137.752C193.121 137.752 193.266 137.696 193.353 137.585C193.44 137.471 193.484 137.297 193.487 137.064V136.998C193.487 136.745 193.444 136.554 193.36 136.425C193.276 136.294 193.126 136.228 192.911 136.228C192.732 136.228 192.6 136.299 192.513 136.44C192.426 136.579 192.383 136.766 192.383 137.001C192.383 137.237 192.426 137.421 192.513 137.555C192.6 137.686 192.735 137.752 192.918 137.752ZM196.107 135.994V137.986H195.84L195.791 137.722H195.776C195.712 137.826 195.623 137.903 195.509 137.952C195.395 138 195.274 138.023 195.145 138.023C194.904 138.023 194.724 137.966 194.602 137.852C194.481 137.736 194.42 137.551 194.42 137.299V135.994H194.751V137.276C194.751 137.593 194.898 137.752 195.193 137.752C195.413 137.752 195.566 137.69 195.65 137.566C195.737 137.442 195.78 137.264 195.78 137.031V135.994H196.107ZM197.509 135.957C197.677 135.957 197.823 135.994 197.947 136.069C198.071 136.143 198.165 136.248 198.229 136.384C198.296 136.518 198.33 136.675 198.33 136.856V137.053H196.966C196.971 137.279 197.028 137.451 197.137 137.57C197.248 137.686 197.403 137.744 197.601 137.744C197.728 137.744 197.839 137.733 197.936 137.711C198.035 137.686 198.137 137.652 198.241 137.607V137.893C198.139 137.938 198.039 137.97 197.94 137.99C197.841 138.012 197.723 138.023 197.587 138.023C197.396 138.023 197.229 137.985 197.085 137.908C196.941 137.831 196.829 137.717 196.747 137.566C196.668 137.415 196.628 137.228 196.628 137.005C196.628 136.787 196.664 136.6 196.736 136.444C196.81 136.288 196.913 136.168 197.044 136.083C197.178 135.999 197.333 135.957 197.509 135.957ZM197.505 136.225C197.349 136.225 197.225 136.275 197.133 136.377C197.044 136.476 196.991 136.615 196.973 136.793H197.988C197.985 136.625 197.946 136.488 197.869 136.384C197.792 136.278 197.671 136.225 197.505 136.225ZM200.134 137.436C200.134 137.629 200.062 137.775 199.918 137.874C199.774 137.974 199.581 138.023 199.338 138.023C199.2 138.023 199.08 138.012 198.978 137.99C198.879 137.967 198.791 137.936 198.714 137.897V137.599C198.793 137.639 198.889 137.676 199 137.711C199.114 137.743 199.229 137.759 199.346 137.759C199.512 137.759 199.632 137.733 199.706 137.681C199.781 137.627 199.818 137.555 199.818 137.466C199.818 137.416 199.804 137.372 199.777 137.332C199.75 137.292 199.7 137.253 199.628 137.213C199.559 137.173 199.459 137.129 199.327 137.079C199.198 137.03 199.088 136.98 198.997 136.931C198.905 136.881 198.834 136.822 198.785 136.752C198.735 136.683 198.71 136.594 198.71 136.485C198.71 136.316 198.779 136.186 198.915 136.095C199.054 136.003 199.234 135.957 199.457 135.957C199.579 135.957 199.691 135.969 199.795 135.994C199.902 136.019 200.001 136.051 200.093 136.091L199.981 136.351C199.897 136.316 199.809 136.287 199.717 136.262C199.626 136.237 199.532 136.225 199.435 136.225C199.301 136.225 199.198 136.247 199.127 136.292C199.057 136.334 199.023 136.392 199.023 136.466C199.023 136.523 199.039 136.57 199.071 136.607C199.103 136.645 199.156 136.682 199.231 136.719C199.307 136.756 199.409 136.798 199.535 136.845C199.662 136.892 199.769 136.941 199.859 136.99C199.948 137.04 200.016 137.1 200.063 137.172C200.11 137.242 200.134 137.329 200.134 137.436ZM201.28 137.756C201.33 137.756 201.38 137.752 201.432 137.744C201.484 137.737 201.526 137.727 201.559 137.715V137.964C201.524 137.981 201.474 137.995 201.41 138.005C201.346 138.017 201.284 138.023 201.224 138.023C201.12 138.023 201.024 138.006 200.934 137.971C200.848 137.934 200.777 137.871 200.723 137.782C200.668 137.692 200.641 137.567 200.641 137.406V136.247H200.358V136.091L200.645 135.961L200.775 135.537H200.968V135.994H201.544V136.247H200.968V137.399C200.968 137.52 200.996 137.611 201.053 137.67C201.113 137.727 201.188 137.756 201.28 137.756ZM203.807 137.986H203.473V135.626H202.644V135.333H204.632V135.626H203.807V137.986ZM204.603 135.994H204.952L205.383 137.128C205.42 137.229 205.454 137.325 205.483 137.414C205.513 137.503 205.535 137.588 205.55 137.67H205.565C205.58 137.608 205.604 137.528 205.636 137.429C205.668 137.327 205.701 137.225 205.736 137.124L206.141 135.994H206.494L205.636 138.261C205.564 138.449 205.473 138.599 205.364 138.711C205.255 138.822 205.104 138.878 204.911 138.878C204.852 138.878 204.8 138.874 204.755 138.867C204.71 138.862 204.672 138.855 204.64 138.848V138.588C204.667 138.593 204.699 138.598 204.737 138.603C204.776 138.608 204.817 138.61 204.859 138.61C204.973 138.61 205.065 138.578 205.134 138.514C205.203 138.449 205.259 138.364 205.301 138.257L205.405 137.993L204.603 135.994ZM207.757 135.957C208.002 135.957 208.199 136.043 208.347 136.214C208.498 136.384 208.574 136.642 208.574 136.986C208.574 137.326 208.498 137.583 208.347 137.759C208.199 137.935 208.001 138.023 207.753 138.023C207.599 138.023 207.472 137.995 207.37 137.938C207.271 137.881 207.193 137.813 207.136 137.733H207.114C207.116 137.775 207.12 137.829 207.125 137.893C207.132 137.957 207.136 138.013 207.136 138.06V138.878H206.809V135.994H207.077L207.121 136.266H207.136C207.195 136.179 207.274 136.106 207.37 136.046C207.467 135.987 207.596 135.957 207.757 135.957ZM207.697 136.232C207.494 136.232 207.35 136.289 207.266 136.403C207.182 136.517 207.139 136.69 207.136 136.923V136.986C207.136 137.232 207.176 137.421 207.255 137.555C207.337 137.686 207.487 137.752 207.705 137.752C207.823 137.752 207.923 137.72 208.002 137.655C208.081 137.588 208.139 137.497 208.176 137.38C208.216 137.264 208.236 137.131 208.236 136.983C208.236 136.755 208.191 136.573 208.102 136.436C208.015 136.3 207.88 136.232 207.697 136.232ZM209.864 135.957C210.033 135.957 210.179 135.994 210.303 136.069C210.427 136.143 210.521 136.248 210.585 136.384C210.652 136.518 210.685 136.675 210.685 136.856V137.053H209.322C209.327 137.279 209.384 137.451 209.493 137.57C209.604 137.686 209.759 137.744 209.957 137.744C210.084 137.744 210.195 137.733 210.292 137.711C210.391 137.686 210.492 137.652 210.596 137.607V137.893C210.495 137.938 210.394 137.97 210.295 137.99C210.196 138.012 210.079 138.023 209.942 138.023C209.752 138.023 209.584 137.985 209.441 137.908C209.297 137.831 209.184 137.717 209.103 137.566C209.023 137.415 208.984 137.228 208.984 137.005C208.984 136.787 209.02 136.6 209.091 136.444C209.166 136.288 209.269 136.168 209.4 136.083C209.534 135.999 209.688 135.957 209.864 135.957ZM209.861 136.225C209.705 136.225 209.581 136.275 209.489 136.377C209.4 136.476 209.347 136.615 209.329 136.793H210.344C210.341 136.625 210.302 136.488 210.225 136.384C210.148 136.278 210.027 136.225 209.861 136.225Z" fill="#242424"/>
<path d="M187.586 140.844C187.586 140.587 187.794 140.379 188.051 140.379H268.949C269.206 140.379 269.414 140.587 269.414 140.844V150.753C269.414 151.009 269.206 151.217 268.949 151.217H188.051C187.794 151.217 187.586 151.009 187.586 150.753V140.844Z" fill="white"/>
<path d="M187.586 140.844C187.586 140.587 187.794 140.379 188.051 140.379H268.949C269.206 140.379 269.414 140.587 269.414 140.844V150.753C269.414 151.009 269.206 151.217 268.949 151.217H188.051C187.794 151.217 187.586 151.009 187.586 150.753V140.844Z" stroke="#939393" stroke-width="0.309649"/>
<path d="M263.384 146.805C263.353 146.805 263.322 146.789 263.306 146.773L261.553 145.001C261.506 144.954 261.506 144.875 261.553 144.827C261.6 144.78 261.677 144.78 261.724 144.827L263.384 146.52L265.028 144.827C265.075 144.78 265.152 144.78 265.199 144.827C265.245 144.875 265.245 144.954 265.199 145.001L263.461 146.773C263.43 146.789 263.415 146.805 263.384 146.805Z" fill="#242424"/>
<mask id="path-47-inside-2_10306_24360" fill="white">
<path d="M180 156.326H277V178.189H180V156.326Z"/>
</mask>
<path d="M180 156.326H277V178.189H180V156.326Z" fill="white"/>
<path d="M180 156.636H277V156.017H180V156.636Z" fill="#C9C9C9" mask="url(#path-47-inside-2_10306_24360)"/>
<path d="M221.429 161.9C221.429 161.643 221.637 161.436 221.893 161.436H244.563C244.82 161.436 245.028 161.643 245.028 161.9V172.616C245.028 172.872 244.82 173.08 244.563 173.08H221.893C221.637 173.08 221.429 172.872 221.429 172.616V161.9Z" fill="white"/>
<path d="M221.429 161.9C221.429 161.643 221.637 161.436 221.893 161.436H244.563C244.82 161.436 245.028 161.643 245.028 161.9V172.616C245.028 172.872 244.82 173.08 244.563 173.08H221.893C221.637 173.08 221.429 172.872 221.429 172.616V161.9Z" stroke="#1B77AF" stroke-width="0.309649"/>
<path d="M228.227 165.962C227.895 165.962 227.633 166.073 227.443 166.296C227.252 166.518 227.157 166.823 227.157 167.21C227.157 167.595 227.245 167.9 227.421 168.125C227.6 168.347 227.868 168.459 228.223 168.459C228.356 168.459 228.483 168.447 228.605 168.424C228.726 168.401 228.846 168.372 228.964 168.337V168.676C228.849 168.719 228.729 168.751 228.605 168.771C228.483 168.791 228.337 168.801 228.167 168.801C227.852 168.801 227.589 168.736 227.378 168.606C227.167 168.476 227.008 168.291 226.901 168.051C226.797 167.811 226.745 167.53 226.745 167.206C226.745 166.894 226.801 166.619 226.914 166.382C227.029 166.142 227.199 165.956 227.421 165.823C227.644 165.687 227.914 165.619 228.232 165.619C228.558 165.619 228.843 165.68 229.086 165.801L228.93 166.131C228.834 166.087 228.727 166.048 228.609 166.014C228.493 165.979 228.366 165.962 228.227 165.962ZM230.468 166.395C230.751 166.395 230.961 166.457 231.097 166.582C231.232 166.706 231.3 166.904 231.3 167.176V168.758H231.023L230.949 168.428H230.932C230.831 168.556 230.724 168.649 230.611 168.71C230.498 168.771 230.345 168.801 230.151 168.801C229.94 168.801 229.766 168.746 229.627 168.636C229.488 168.524 229.419 168.349 229.419 168.112C229.419 167.881 229.51 167.703 229.692 167.579C229.874 167.452 230.154 167.382 230.533 167.371L230.927 167.358V167.219C230.927 167.025 230.886 166.891 230.802 166.816C230.718 166.741 230.599 166.703 230.446 166.703C230.325 166.703 230.209 166.722 230.099 166.759C229.99 166.794 229.887 166.835 229.792 166.881L229.675 166.595C229.776 166.54 229.896 166.494 230.034 166.456C230.173 166.415 230.318 166.395 230.468 166.395ZM230.923 167.622L230.581 167.635C230.292 167.647 230.091 167.693 229.978 167.774C229.868 167.855 229.813 167.969 229.813 168.116C229.813 168.246 229.852 168.342 229.93 168.402C230.011 168.463 230.114 168.493 230.238 168.493C230.432 168.493 230.594 168.44 230.724 168.333C230.857 168.223 230.923 168.056 230.923 167.83V167.622ZM233.136 166.391C233.414 166.391 233.623 166.459 233.765 166.595C233.907 166.73 233.977 166.947 233.977 167.245V168.758H233.6V167.271C233.6 166.898 233.427 166.712 233.08 166.712C232.823 166.712 232.645 166.784 232.547 166.928C232.449 167.073 232.399 167.281 232.399 167.553V168.758H232.018V166.434H232.326L232.382 166.751H232.404C232.479 166.629 232.583 166.54 232.716 166.482C232.849 166.421 232.989 166.391 233.136 166.391ZM235.63 168.801C235.422 168.801 235.238 168.759 235.079 168.676C234.92 168.592 234.795 168.462 234.702 168.285C234.612 168.109 234.568 167.884 234.568 167.609C234.568 167.323 234.614 167.09 234.706 166.911C234.802 166.732 234.932 166.6 235.097 166.517C235.261 166.433 235.448 166.391 235.656 166.391C235.771 166.391 235.884 166.404 235.994 166.43C236.107 166.453 236.198 166.482 236.267 166.517L236.15 166.833C236.081 166.807 236 166.783 235.907 166.759C235.815 166.736 235.728 166.725 235.647 166.725C235.19 166.725 234.962 167.018 234.962 167.605C234.962 167.885 235.017 168.1 235.127 168.251C235.24 168.398 235.406 168.472 235.625 168.472C235.75 168.472 235.861 168.459 235.959 168.433C236.057 168.407 236.147 168.375 236.228 168.337V168.676C236.15 168.716 236.063 168.746 235.968 168.767C235.875 168.79 235.763 168.801 235.63 168.801ZM237.678 166.391C237.874 166.391 238.045 166.434 238.189 166.521C238.334 166.608 238.444 166.73 238.519 166.889C238.597 167.046 238.636 167.229 238.636 167.44V167.67H237.045C237.051 167.933 237.117 168.134 237.244 168.272C237.374 168.408 237.555 168.476 237.786 168.476C237.934 168.476 238.064 168.463 238.176 168.437C238.292 168.408 238.411 168.368 238.532 168.316V168.649C238.413 168.702 238.296 168.739 238.181 168.762C238.065 168.788 237.928 168.801 237.769 168.801C237.546 168.801 237.351 168.756 237.184 168.667C237.016 168.577 236.885 168.444 236.789 168.268C236.697 168.092 236.651 167.874 236.651 167.613C236.651 167.359 236.692 167.141 236.776 166.959C236.863 166.777 236.983 166.637 237.136 166.538C237.292 166.44 237.473 166.391 237.678 166.391ZM237.674 166.703C237.492 166.703 237.347 166.762 237.24 166.881C237.136 166.996 237.074 167.158 237.054 167.366H238.237C238.234 167.17 238.188 167.011 238.098 166.889C238.009 166.765 237.867 166.703 237.674 166.703ZM239.609 168.758H239.228V165.463H239.609V168.758Z" fill="#1B77AF"/>
<path d="M247.66 161.9C247.66 161.558 247.937 161.281 248.279 161.281H268.949C269.291 161.281 269.568 161.558 269.568 161.9V172.616C269.568 172.958 269.291 173.235 268.949 173.235H248.279C247.937 173.235 247.66 172.958 247.66 172.616V161.9Z" fill="#1B77AF"/>
<path d="M255.262 168.758L254.889 167.8H253.662L253.294 168.758H252.899L254.109 165.65H254.46L255.665 168.758H255.262ZM254.772 167.453L254.425 166.517C254.416 166.494 254.402 166.452 254.382 166.391C254.361 166.33 254.341 166.268 254.321 166.205C254.304 166.138 254.289 166.087 254.278 166.053C254.254 166.142 254.23 166.231 254.204 166.317C254.181 166.401 254.161 166.468 254.143 166.517L253.792 167.453H254.772ZM257.142 166.391C257.428 166.391 257.658 166.491 257.831 166.69C258.007 166.889 258.095 167.19 258.095 167.592C258.095 167.988 258.007 168.288 257.831 168.493C257.658 168.699 257.426 168.801 257.137 168.801C256.958 168.801 256.809 168.768 256.691 168.702C256.575 168.635 256.484 168.556 256.418 168.463H256.392C256.395 168.512 256.399 168.574 256.405 168.649C256.413 168.725 256.418 168.79 256.418 168.845V169.798H256.036V166.434H256.348L256.4 166.751H256.418C256.487 166.65 256.578 166.564 256.691 166.495C256.804 166.426 256.954 166.391 257.142 166.391ZM257.072 166.712C256.835 166.712 256.668 166.778 256.569 166.911C256.471 167.044 256.421 167.246 256.418 167.518V167.592C256.418 167.878 256.464 168.099 256.556 168.255C256.652 168.408 256.827 168.485 257.081 168.485C257.22 168.485 257.335 168.447 257.428 168.372C257.52 168.294 257.588 168.187 257.632 168.051C257.678 167.915 257.701 167.761 257.701 167.587C257.701 167.322 257.649 167.109 257.545 166.95C257.444 166.791 257.286 166.712 257.072 166.712ZM259.809 166.391C260.095 166.391 260.325 166.491 260.498 166.69C260.674 166.889 260.762 167.19 260.762 167.592C260.762 167.988 260.674 168.288 260.498 168.493C260.325 168.699 260.093 168.801 259.804 168.801C259.625 168.801 259.476 168.768 259.358 168.702C259.242 168.635 259.151 168.556 259.085 168.463H259.059C259.062 168.512 259.066 168.574 259.072 168.649C259.08 168.725 259.085 168.79 259.085 168.845V169.798H258.703V166.434H259.015L259.067 166.751H259.085C259.154 166.65 259.245 166.564 259.358 166.495C259.471 166.426 259.621 166.391 259.809 166.391ZM259.739 166.712C259.502 166.712 259.335 166.778 259.237 166.911C259.138 167.044 259.088 167.246 259.085 167.518V167.592C259.085 167.878 259.131 168.099 259.224 168.255C259.319 168.408 259.494 168.485 259.748 168.485C259.887 168.485 260.002 168.447 260.095 168.372C260.187 168.294 260.255 168.187 260.299 168.051C260.345 167.915 260.368 167.761 260.368 167.587C260.368 167.322 260.316 167.109 260.212 166.95C260.111 166.791 259.953 166.712 259.739 166.712ZM261.752 168.758H261.37V165.463H261.752V168.758ZM262.124 166.434H262.531L263.034 167.756C263.078 167.875 263.117 167.986 263.151 168.09C263.186 168.194 263.212 168.294 263.229 168.389H263.247C263.264 168.317 263.291 168.223 263.329 168.108C263.367 167.989 263.406 167.871 263.446 167.752L263.919 166.434H264.33L263.329 169.079C263.245 169.298 263.14 169.473 263.013 169.603C262.885 169.733 262.709 169.798 262.484 169.798C262.414 169.798 262.354 169.794 262.302 169.785C262.25 169.78 262.205 169.772 262.167 169.764V169.46C262.199 169.466 262.237 169.472 262.28 169.477C262.326 169.483 262.374 169.486 262.423 169.486C262.556 169.486 262.663 169.449 262.744 169.373C262.825 169.298 262.89 169.199 262.939 169.074L263.06 168.767L262.124 166.434Z" fill="white"/>
</g>
<g filter="url(#filter3_i_10306_24360)">
<rect width="269" height="17.7295" transform="translate(8 4)" fill="white"/>
<path d="M8 4H22.5992L31.5375 21.7295H8V4Z" fill="#DA291C"/>
<line x1="8" y1="21.5767" x2="31.5375" y2="21.5767" stroke="#C9C9C9" stroke-width="0.305682"/>
<path d="M15.0119 14.4707H17.4491L17.8462 15.3958H14.5552L14.0291 16.4607H12.5747L16.1784 9.45471H17.186L20.7897 16.4607H19.3403L16.6847 11.0496L15.0119 14.4707Z" fill="white"/>
<rect x="36.4282" y="11.0307" width="36.6818" height="3.66818" rx="0.611364" fill="#C9C9C9"/>
<g clip-path="url(#clip2_10306_24360)">
<rect x="161.024" y="7.51533" width="51.3546" height="10.6989" rx="0.458523" fill="white"/>
<rect x="161.024" y="7.51533" width="51.3546" height="10.6989" rx="0.458523" stroke="#C9C9C9" stroke-width="0.305682"/>
<g clip-path="url(#clip3_10306_24360)">
<path fill-rule="evenodd" clip-rule="evenodd" d="M166.563 10.954C165.741 10.954 165.074 11.6206 165.074 12.4429C165.074 13.2652 165.741 13.9318 166.563 13.9318C167.385 13.9318 168.052 13.2652 168.052 12.4429C168.052 11.6206 167.385 10.954 166.563 10.954ZM164.845 12.4429C164.845 11.4941 165.614 10.725 166.563 10.725C167.512 10.725 168.281 11.4941 168.281 12.4429C168.281 13.3917 167.512 14.1608 166.563 14.1608C165.614 14.1608 164.845 13.3917 164.845 12.4429Z" fill="#939393"/>
<path fill-rule="evenodd" clip-rule="evenodd" d="M167.689 13.5683C167.733 13.5236 167.806 13.5236 167.85 13.5683L168.415 14.1333C168.46 14.178 168.46 14.2505 168.415 14.2953C168.371 14.34 168.298 14.34 168.254 14.2953L167.689 13.7303C167.644 13.6855 167.644 13.613 167.689 13.5683Z" fill="#939393"/>
<path fill-rule="evenodd" clip-rule="evenodd" d="M168.651 14.3105C168.588 14.2484 168.493 14.2484 168.431 14.3105C168.369 14.3727 168.369 14.4682 168.431 14.5303L168.629 14.7288C168.631 14.7309 168.633 14.7331 168.635 14.7353C168.678 14.7851 168.783 14.7948 168.849 14.7288C168.911 14.6667 168.911 14.5712 168.849 14.509L168.651 14.3105ZM168.269 14.1486C168.42 13.9969 168.661 13.9969 168.813 14.1486L169.011 14.3471C169.163 14.4987 169.163 14.7392 169.011 14.8908C168.864 15.0376 168.606 15.0482 168.465 14.888L168.269 14.6923C168.117 14.5407 168.117 14.3002 168.269 14.1486Z" fill="#939393"/>
</g>
<path d="M233.899 16.0744C232.126 16.0744 230.689 14.6374 230.689 12.8648C230.689 11.0921 232.126 9.65512 233.899 9.65512C235.672 9.65512 237.109 11.0921 237.109 12.8648C237.109 14.6374 235.672 16.0744 233.899 16.0744Z" fill="#C9C9C9"/>
<path d="M248.572 16.0744C246.799 16.0744 245.362 14.6374 245.362 12.8648C245.362 11.0921 246.799 9.65512 248.572 9.65512C250.345 9.65512 251.782 11.0921 251.782 12.8648C251.782 14.6374 250.345 16.0744 248.572 16.0744Z" fill="#C9C9C9"/>
<circle cx="266.332" cy="12.8648" r="6.11364" fill="white"/>
<g clip-path="url(#clip4_10306_24360)">
<path d="M262.838 17.8819V17.1701C262.838 16.2436 263.206 15.355 263.862 14.6999C264.517 14.0447 265.405 13.6766 266.332 13.6766C267.258 13.6766 268.147 14.0447 268.802 14.6999C269.457 15.355 269.825 16.2436 269.825 17.1701V17.8819C270.894 17.1382 271.696 16.073 272.117 14.8413C272.538 13.6096 272.555 12.2758 272.165 11.034C271.775 9.79217 270.999 8.70714 269.95 7.93683C268.901 7.16651 267.633 6.75113 266.332 6.75113C265.03 6.75113 263.763 7.16651 262.714 7.93683C261.664 8.70714 260.889 9.79217 260.499 11.034C260.109 12.2758 260.126 13.6096 260.547 14.8413C260.967 16.073 261.77 17.1382 262.838 17.8819ZM266.332 8.77698C266.728 8.77698 267.116 8.89454 267.445 9.11478C267.775 9.33503 268.032 9.64807 268.184 10.0143C268.335 10.3806 268.375 10.7836 268.298 11.1724C268.22 11.5612 268.03 11.9184 267.749 12.1987C267.469 12.479 267.112 12.6699 266.723 12.7473C266.334 12.8246 265.931 12.7849 265.565 12.6332C265.199 12.4815 264.886 12.2246 264.665 11.895C264.445 11.5653 264.327 11.1778 264.327 10.7814C264.329 10.2501 264.54 9.74098 264.916 9.36533C265.291 8.98968 265.801 8.77814 266.332 8.77698Z" fill="#C9C9C9"/>
</g>
</g>
</g>
</g>
</g>
<defs>
<filter id="filter0_d_10306_24360" x="0" y="0" width="285" height="190" filterUnits="userSpaceOnUse" color-interpolation-filters="sRGB">
<feFlood flood-opacity="0" result="BackgroundImageFix"/>
<feColorMatrix in="SourceAlpha" type="matrix" values="0 0 0 0 0 0 0 0 0 0 0 0 0 0 0 0 0 0 127 0" result="hardAlpha"/>
<feOffset dy="4"/>
<feGaussianBlur stdDeviation="4"/>
<feColorMatrix type="matrix" values="0 0 0 0 0 0 0 0 0 0 0 0 0 0 0 0 0 0 0.25 0"/>
<feBlend mode="normal" in2="BackgroundImageFix" result="effect1_dropShadow_10306_24360"/>
<feBlend mode="normal" in="SourceGraphic" in2="effect1_dropShadow_10306_24360" result="shape"/>
</filter>
<filter id="filter1_i_10306_24360" x="8" y="21.7296" width="61.1362" height="157.732" filterUnits="userSpaceOnUse" color-interpolation-filters="sRGB">
<feFlood flood-opacity="0" result="BackgroundImageFix"/>
<feBlend mode="normal" in="SourceGraphic" in2="BackgroundImageFix" result="shape"/>
<feColorMatrix in="SourceAlpha" type="matrix" values="0 0 0 0 0 0 0 0 0 0 0 0 0 0 0 0 0 0 127 0" result="hardAlpha"/>
<feOffset dx="-0.305682"/>
<feComposite in2="hardAlpha" operator="arithmetic" k2="-1" k3="1"/>
<feColorMatrix type="matrix" values="0 0 0 0 0.788235 0 0 0 0 0.788235 0 0 0 0 0.788235 0 0 0 1 0"/>
<feBlend mode="normal" in2="shape" result="effect1_innerShadow_10306_24360"/>
</filter>
<filter id="filter2_d_10306_24360" x="177.523" y="20.7614" width="113.954" height="161.144" filterUnits="userSpaceOnUse" color-interpolation-filters="sRGB">
<feFlood flood-opacity="0" result="BackgroundImageFix"/>
<feColorMatrix in="SourceAlpha" type="matrix" values="0 0 0 0 0 0 0 0 0 0 0 0 0 0 0 0 0 0 127 0" result="hardAlpha"/>
<feOffset dy="1.2386"/>
<feGaussianBlur stdDeviation="1.2386"/>
<feColorMatrix type="matrix" values="0 0 0 0 0 0 0 0 0 0 0 0 0 0 0 0 0 0 0.25 0"/>
<feBlend mode="normal" in2="BackgroundImageFix" result="effect1_dropShadow_10306_24360"/>
<feBlend mode="normal" in="SourceGraphic" in2="effect1_dropShadow_10306_24360" result="shape"/>
</filter>
<filter id="filter3_i_10306_24360" x="8" y="4" width="269" height="17.7296" filterUnits="userSpaceOnUse" color-interpolation-filters="sRGB">
<feFlood flood-opacity="0" result="BackgroundImageFix"/>
<feBlend mode="normal" in="SourceGraphic" in2="BackgroundImageFix" result="shape"/>
<feColorMatrix in="SourceAlpha" type="matrix" values="0 0 0 0 0 0 0 0 0 0 0 0 0 0 0 0 0 0 127 0" result="hardAlpha"/>
<feOffset dy="-0.305682"/>
<feComposite in2="hardAlpha" operator="arithmetic" k2="-1" k3="1"/>
<feColorMatrix type="matrix" values="0 0 0 0 0.788235 0 0 0 0 0.788235 0 0 0 0 0.788235 0 0 0 1 0"/>
<feBlend mode="normal" in2="shape" result="effect1_innerShadow_10306_24360"/>
</filter>
<clipPath id="clip0_10306_24360">
<rect x="8" y="4" width="269" height="174" rx="2.44546" fill="white"/>
</clipPath>
<clipPath id="clip1_10306_24360">
<rect width="61.1364" height="157.732" fill="white" transform="translate(8 21.7296)"/>
</clipPath>
<clipPath id="clip2_10306_24360">
<rect width="198.999" height="17.7295" fill="white" transform="translate(78.001 4)"/>
</clipPath>
<clipPath id="clip3_10306_24360">
<rect width="4.89091" height="4.89091" fill="white" transform="translate(164.54 10.4193)"/>
</clipPath>
<clipPath id="clip4_10306_24360">
<rect width="12.2273" height="11.2083" fill="white" transform="translate(260.218 6.7511)"/>
</clipPath>
</defs>
</svg>
