<svg width="85" height="36" viewBox="0 0 85 36" fill="none" xmlns="http://www.w3.org/2000/svg">
<rect width="85" height="36" rx="2" fill="#1473E6"/>
<path d="M23.028 20.326C23.028 21.2127 22.706 21.9033 22.062 22.398C21.418 22.8927 20.55 23.14 19.458 23.14C18.898 23.14 18.38 23.098 17.904 23.014C17.428 22.93 17.0313 22.8133 16.714 22.664V21.46C17.05 21.6093 17.4653 21.7447 17.96 21.866C18.464 21.9873 18.982 22.048 19.514 22.048C20.2513 22.048 20.8113 21.9033 21.194 21.614C21.5767 21.3247 21.768 20.9327 21.768 20.438C21.768 20.1113 21.698 19.836 21.558 19.612C21.418 19.388 21.1753 19.1827 20.83 18.996C20.4847 18.8093 20.0133 18.604 19.416 18.38C18.5573 18.072 17.9133 17.694 17.484 17.246C17.0547 16.798 16.84 16.1867 16.84 15.412C16.84 14.8893 16.9753 14.4367 17.246 14.054C17.5167 13.6713 17.89 13.3773 18.366 13.172C18.842 12.9667 19.3973 12.864 20.032 12.864C20.5733 12.864 21.0727 12.9153 21.53 13.018C21.9873 13.1207 22.4073 13.256 22.79 13.424L22.398 14.502C22.0527 14.3527 21.6747 14.2267 21.264 14.124C20.8533 14.0213 20.4333 13.97 20.004 13.97C19.3787 13.97 18.9073 14.1053 18.59 14.376C18.2727 14.6373 18.114 14.9873 18.114 15.426C18.114 15.762 18.184 16.042 18.324 16.266C18.464 16.49 18.6927 16.6953 19.01 16.882C19.3273 17.0593 19.7567 17.246 20.298 17.442C20.886 17.6567 21.3807 17.89 21.782 18.142C22.1927 18.3847 22.5007 18.6787 22.706 19.024C22.9207 19.3693 23.028 19.8033 23.028 20.326ZM27.8556 23H24.2436V22.272L25.4196 22.006V14.012L24.2436 13.732V13.004H27.8556V13.732L26.6796 14.012V22.006L27.8556 22.272V23ZM34.1257 17.722H37.5837V22.622C37.0424 22.7993 36.4964 22.93 35.9457 23.014C35.3951 23.098 34.7697 23.14 34.0697 23.14C33.0337 23.14 32.1611 22.9347 31.4517 22.524C30.7424 22.104 30.2011 21.5113 29.8277 20.746C29.4637 19.9713 29.2817 19.0567 29.2817 18.002C29.2817 16.966 29.4824 16.0653 29.8837 15.3C30.2944 14.5253 30.8871 13.928 31.6617 13.508C32.4364 13.0787 33.3697 12.864 34.4617 12.864C35.0217 12.864 35.5491 12.9153 36.0437 13.018C36.5477 13.1207 37.0144 13.2653 37.4437 13.452L36.9677 14.544C36.6131 14.3947 36.2117 14.264 35.7637 14.152C35.3251 14.0307 34.8677 13.97 34.3917 13.97C33.1971 13.97 32.2637 14.334 31.5917 15.062C30.9291 15.7807 30.5977 16.7607 30.5977 18.002C30.5977 18.7953 30.7237 19.5 30.9757 20.116C31.2371 20.7227 31.6431 21.1987 32.1937 21.544C32.7444 21.88 33.4677 22.048 34.3637 22.048C34.8024 22.048 35.1757 22.0247 35.4837 21.978C35.7917 21.9313 36.0717 21.8753 36.3237 21.81V18.842H34.1257V17.722ZM47.8953 23H46.4253L41.0773 14.698H41.0213C41.0399 15.0247 41.0633 15.4307 41.0913 15.916C41.1193 16.4013 41.1333 16.9007 41.1333 17.414V23H39.9713V13.004H41.4273L46.7613 21.278H46.8173C46.8079 21.1287 46.7939 20.9047 46.7753 20.606C46.7659 20.3073 46.7519 19.9853 46.7333 19.64C46.7239 19.2853 46.7193 18.954 46.7193 18.646V13.004H47.8953V23ZM57.0587 23H53.4467V22.272L54.6227 22.006V14.012L53.4467 13.732V13.004H57.0587V13.732L55.8827 14.012V22.006L57.0587 22.272V23ZM66.9129 23H65.4429L60.0949 14.698H60.0389C60.0575 15.0247 60.0809 15.4307 60.1089 15.916C60.1369 16.4013 60.1509 16.9007 60.1509 17.414V23H58.9889V13.004H60.4449L65.7789 21.278H65.8349C65.8255 21.1287 65.8115 20.9047 65.7929 20.606C65.7835 20.3073 65.7695 19.9853 65.7509 19.64C65.7415 19.2853 65.7369 18.954 65.7369 18.646V13.004H66.9129V23Z" fill="white"/>
</svg>
