<svg width="952" height="309" viewBox="0 0 952 309" fill="none" xmlns="http://www.w3.org/2000/svg">
<g clip-path="url(#clip0_8325_503980)">
<path d="M0 0H950C951.105 0 952 0.895431 952 2V309H0V0Z" fill="#F1F1F1"/>
<g filter="url(#filter0_d_8325_503980)">
<g clip-path="url(#clip1_8325_503980)">
<path d="M80 26C80 24.8954 80.8954 24 82 24H870C871.105 24 872 24.8954 872 26V398H80V26Z" fill="white"/>
<rect x="104" y="48" width="1066" height="326" rx="4" fill="white"/>
<rect width="1034" height="20" transform="translate(120 60)" fill="white"/>
<path d="M124.116 65.004C125.357 65.004 126.272 65.242 126.86 65.718C127.457 66.1847 127.756 66.894 127.756 67.846C127.756 68.378 127.658 68.8213 127.462 69.176C127.266 69.5307 127.014 69.8153 126.706 70.03C126.407 70.2447 126.09 70.408 125.754 70.52L128.498 75H127.028L124.606 70.87H122.618V75H121.358V65.004H124.116ZM124.046 66.096H122.618V69.806H124.116C124.928 69.806 125.521 69.6473 125.894 69.33C126.267 69.0033 126.454 68.5273 126.454 67.902C126.454 67.2487 126.258 66.7867 125.866 66.516C125.474 66.236 124.867 66.096 124.046 66.096ZM132.797 67.356C133.432 67.356 133.982 67.496 134.449 67.776C134.916 68.056 135.27 68.4527 135.513 68.966C135.765 69.47 135.891 70.0627 135.891 70.744V71.486H130.753C130.772 72.3353 130.986 72.984 131.397 73.432C131.817 73.8707 132.4 74.09 133.147 74.09C133.623 74.09 134.043 74.048 134.407 73.964C134.78 73.8707 135.163 73.74 135.555 73.572V74.65C135.172 74.818 134.794 74.9393 134.421 75.014C134.048 75.098 133.604 75.14 133.091 75.14C132.372 75.14 131.742 74.9953 131.201 74.706C130.66 74.4167 130.235 73.9873 129.927 73.418C129.628 72.8487 129.479 72.144 129.479 71.304C129.479 70.4827 129.614 69.778 129.885 69.19C130.165 68.602 130.552 68.1493 131.047 67.832C131.551 67.5147 132.134 67.356 132.797 67.356ZM132.783 68.364C132.195 68.364 131.728 68.5553 131.383 68.938C131.047 69.3113 130.846 69.834 130.781 70.506H134.603C134.594 69.8713 134.444 69.358 134.155 68.966C133.866 68.5647 133.408 68.364 132.783 68.364ZM142.687 72.928C142.687 73.656 142.417 74.2067 141.875 74.58C141.334 74.9533 140.606 75.14 139.691 75.14C139.169 75.14 138.716 75.098 138.333 75.014C137.96 74.93 137.629 74.8133 137.339 74.664V73.544C137.638 73.6933 137.997 73.8333 138.417 73.964C138.847 74.0853 139.281 74.146 139.719 74.146C140.345 74.146 140.797 74.048 141.077 73.852C141.357 73.6467 141.497 73.376 141.497 73.04C141.497 72.8533 141.446 72.6853 141.343 72.536C141.241 72.3867 141.054 72.2373 140.783 72.088C140.522 71.9387 140.144 71.7707 139.649 71.584C139.164 71.3973 138.749 71.2107 138.403 71.024C138.058 70.8373 137.792 70.6133 137.605 70.352C137.419 70.0907 137.325 69.7547 137.325 69.344C137.325 68.7093 137.582 68.2193 138.095 67.874C138.618 67.5287 139.299 67.356 140.139 67.356C140.597 67.356 141.021 67.4027 141.413 67.496C141.815 67.5893 142.188 67.7107 142.533 67.86L142.113 68.84C141.796 68.7093 141.465 68.5973 141.119 68.504C140.774 68.4107 140.419 68.364 140.055 68.364C139.551 68.364 139.164 68.448 138.893 68.616C138.632 68.7747 138.501 68.994 138.501 69.274C138.501 69.4887 138.562 69.666 138.683 69.806C138.805 69.946 139.005 70.086 139.285 70.226C139.575 70.366 139.957 70.5247 140.433 70.702C140.909 70.8793 141.315 71.0613 141.651 71.248C141.987 71.4347 142.244 71.6633 142.421 71.934C142.599 72.1953 142.687 72.5267 142.687 72.928ZM150.773 67.496V75H149.765L149.583 74.006H149.527C149.284 74.398 148.948 74.6873 148.519 74.874C148.089 75.0513 147.632 75.14 147.147 75.14C146.241 75.14 145.56 74.9253 145.103 74.496C144.645 74.0573 144.417 73.362 144.417 72.41V67.496H145.663V72.326C145.663 73.5207 146.218 74.118 147.329 74.118C148.159 74.118 148.733 73.8847 149.051 73.418C149.377 72.9513 149.541 72.2793 149.541 71.402V67.496H150.773ZM154.387 75H153.155V64.36H154.387V75ZM159.27 74.132C159.457 74.132 159.648 74.118 159.844 74.09C160.04 74.062 160.199 74.0247 160.32 73.978V74.916C160.19 74.9813 160.003 75.0327 159.76 75.07C159.518 75.1167 159.284 75.14 159.06 75.14C158.668 75.14 158.304 75.0747 157.968 74.944C157.642 74.804 157.376 74.566 157.17 74.23C156.965 73.894 156.862 73.4227 156.862 72.816V68.448H155.798V67.86L156.876 67.37L157.366 65.774H158.094V67.496H160.264V68.448H158.094V72.788C158.094 73.2453 158.202 73.586 158.416 73.81C158.64 74.0247 158.925 74.132 159.27 74.132ZM166.709 72.928C166.709 73.656 166.438 74.2067 165.897 74.58C165.355 74.9533 164.627 75.14 163.713 75.14C163.19 75.14 162.737 75.098 162.355 75.014C161.981 74.93 161.65 74.8133 161.361 74.664V73.544C161.659 73.6933 162.019 73.8333 162.439 73.964C162.868 74.0853 163.302 74.146 163.741 74.146C164.366 74.146 164.819 74.048 165.099 73.852C165.379 73.6467 165.519 73.376 165.519 73.04C165.519 72.8533 165.467 72.6853 165.365 72.536C165.262 72.3867 165.075 72.2373 164.805 72.088C164.543 71.9387 164.165 71.7707 163.671 71.584C163.185 71.3973 162.77 71.2107 162.425 71.024C162.079 70.8373 161.813 70.6133 161.627 70.352C161.44 70.0907 161.347 69.7547 161.347 69.344C161.347 68.7093 161.603 68.2193 162.117 67.874C162.639 67.5287 163.321 67.356 164.161 67.356C164.618 67.356 165.043 67.4027 165.435 67.496C165.836 67.5893 166.209 67.7107 166.555 67.86L166.135 68.84C165.817 68.7093 165.486 68.5973 165.141 68.504C164.795 68.4107 164.441 68.364 164.077 68.364C163.573 68.364 163.185 68.448 162.915 68.616C162.653 68.7747 162.523 68.994 162.523 69.274C162.523 69.4887 162.583 69.666 162.705 69.806C162.826 69.946 163.027 70.086 163.307 70.226C163.596 70.366 163.979 70.5247 164.455 70.702C164.931 70.8793 165.337 71.0613 165.673 71.248C166.009 71.4347 166.265 71.6633 166.443 71.934C166.62 72.1953 166.709 72.5267 166.709 72.928Z" fill="black"/>
<g clip-path="url(#clip2_8325_503980)">
<rect width="56" height="44" transform="translate(120 88)" fill="white"/>
<line x1="120" y1="88.5" x2="176" y2="88.5" stroke="#C9C9C9"/>
<line x1="120" y1="131.5" x2="176" y2="131.5" stroke="#C9C9C9"/>
</g>
<circle cx="148" cy="154" r="12" fill="#F1F1F1"/>
<circle cx="148" cy="198" r="12" fill="#F1F1F1"/>
<circle cx="148" cy="242" r="12" fill="#F1F1F1"/>
<circle cx="148" cy="286" r="12" fill="#F1F1F1"/>
<rect width="152" height="44" transform="translate(176 88)" fill="white"/>
<path d="M197.558 106.376C196.653 106.376 195.948 106.703 195.444 107.356C194.94 108 194.688 108.887 194.688 110.016C194.688 111.155 194.921 112.041 195.388 112.676C195.855 113.311 196.573 113.628 197.544 113.628C197.964 113.628 198.375 113.586 198.776 113.502C199.187 113.409 199.607 113.287 200.036 113.138V114.664C199.625 114.832 199.21 114.953 198.79 115.028C198.379 115.103 197.903 115.14 197.362 115.14C196.335 115.14 195.486 114.93 194.814 114.51C194.142 114.081 193.643 113.483 193.316 112.718C192.989 111.943 192.826 111.038 192.826 110.002C192.826 108.994 193.008 108.107 193.372 107.342C193.736 106.567 194.268 105.961 194.968 105.522C195.677 105.083 196.541 104.864 197.558 104.864C198.062 104.864 198.557 104.92 199.042 105.032C199.537 105.144 199.999 105.307 200.428 105.522L199.812 106.992C199.457 106.833 199.089 106.693 198.706 106.572C198.333 106.441 197.95 106.376 197.558 106.376ZM208.755 107.412V115H207.369L207.131 114.02H207.047C206.804 114.412 206.468 114.697 206.039 114.874C205.609 115.051 205.157 115.14 204.681 115.14C203.831 115.14 203.164 114.921 202.679 114.482C202.203 114.043 201.965 113.339 201.965 112.368V107.412H203.729V112.018C203.729 112.587 203.841 113.012 204.065 113.292C204.289 113.572 204.643 113.712 205.129 113.712C205.838 113.712 206.323 113.488 206.585 113.04C206.855 112.592 206.991 111.953 206.991 111.122V107.412H208.755ZM216.169 112.802C216.169 113.567 215.894 114.151 215.343 114.552C214.802 114.944 214.022 115.14 213.005 115.14C212.473 115.14 212.016 115.103 211.633 115.028C211.26 114.953 210.896 114.837 210.541 114.678V113.18C210.914 113.357 211.325 113.507 211.773 113.628C212.23 113.749 212.66 113.81 213.061 113.81C213.546 113.81 213.896 113.735 214.111 113.586C214.326 113.437 214.433 113.236 214.433 112.984C214.433 112.835 214.391 112.704 214.307 112.592C214.223 112.471 214.06 112.34 213.817 112.2C213.574 112.06 213.206 111.887 212.711 111.682C212.226 111.486 211.82 111.29 211.493 111.094C211.176 110.898 210.933 110.665 210.765 110.394C210.606 110.123 210.527 109.773 210.527 109.344C210.527 108.663 210.798 108.149 211.339 107.804C211.88 107.449 212.594 107.272 213.481 107.272C213.948 107.272 214.386 107.319 214.797 107.412C215.217 107.505 215.637 107.645 216.057 107.832L215.497 109.134C215.142 108.985 214.797 108.859 214.461 108.756C214.125 108.653 213.78 108.602 213.425 108.602C212.65 108.602 212.263 108.821 212.263 109.26C212.263 109.419 212.31 109.554 212.403 109.666C212.506 109.778 212.678 109.899 212.921 110.03C213.173 110.151 213.528 110.301 213.985 110.478C214.433 110.655 214.82 110.842 215.147 111.038C215.474 111.225 215.726 111.458 215.903 111.738C216.08 112.009 216.169 112.363 216.169 112.802ZM220.806 113.726C221.021 113.726 221.231 113.707 221.436 113.67C221.651 113.623 221.847 113.572 222.024 113.516V114.832C221.838 114.925 221.595 115 221.296 115.056C220.998 115.112 220.685 115.14 220.358 115.14C219.92 115.14 219.523 115.07 219.168 114.93C218.823 114.79 218.548 114.543 218.342 114.188C218.137 113.833 218.034 113.334 218.034 112.69V108.742H217.012V107.972L218.132 107.356L218.692 105.746H219.798V107.412H221.954V108.742H219.798V112.676C219.798 113.031 219.892 113.297 220.078 113.474C220.274 113.642 220.517 113.726 220.806 113.726ZM230.33 111.192C230.33 112.452 230.003 113.427 229.35 114.118C228.697 114.799 227.81 115.14 226.69 115.14C225.999 115.14 225.383 114.986 224.842 114.678C224.301 114.37 223.876 113.922 223.568 113.334C223.26 112.746 223.106 112.032 223.106 111.192C223.106 109.932 223.428 108.966 224.072 108.294C224.725 107.613 225.612 107.272 226.732 107.272C227.432 107.272 228.053 107.426 228.594 107.734C229.135 108.033 229.56 108.476 229.868 109.064C230.176 109.643 230.33 110.352 230.33 111.192ZM224.912 111.192C224.912 111.995 225.052 112.615 225.332 113.054C225.621 113.493 226.083 113.712 226.718 113.712C227.343 113.712 227.801 113.493 228.09 113.054C228.379 112.615 228.524 111.995 228.524 111.192C228.524 110.389 228.379 109.773 228.09 109.344C227.801 108.915 227.339 108.7 226.704 108.7C226.069 108.7 225.612 108.915 225.332 109.344C225.052 109.773 224.912 110.389 224.912 111.192ZM240.848 107.272C241.706 107.272 242.35 107.491 242.78 107.93C243.218 108.369 243.438 109.078 243.438 110.058V115H241.674V110.394C241.674 109.265 241.244 108.7 240.386 108.7C239.77 108.7 239.331 108.901 239.07 109.302C238.808 109.703 238.678 110.287 238.678 111.052V115H236.914V110.394C236.914 109.265 236.48 108.7 235.612 108.7C234.968 108.7 234.524 108.924 234.282 109.372C234.039 109.82 233.918 110.459 233.918 111.29V115H232.154V107.412H233.512L233.764 108.406H233.862C234.095 108.014 234.412 107.729 234.814 107.552C235.215 107.365 235.635 107.272 236.074 107.272C236.643 107.272 237.119 107.365 237.502 107.552C237.894 107.739 238.192 108.037 238.398 108.448H238.538C238.771 108.037 239.098 107.739 239.518 107.552C239.938 107.365 240.381 107.272 240.848 107.272ZM248.7 107.272C249.717 107.272 250.52 107.575 251.108 108.182C251.705 108.789 252.004 109.633 252.004 110.716V111.612H246.992C247.01 112.303 247.202 112.839 247.566 113.222C247.93 113.595 248.434 113.782 249.078 113.782C249.563 113.782 250.002 113.735 250.394 113.642C250.786 113.539 251.187 113.395 251.598 113.208V114.622C251.224 114.799 250.837 114.93 250.436 115.014C250.034 115.098 249.554 115.14 248.994 115.14C248.247 115.14 247.589 115 247.02 114.72C246.45 114.431 246.002 114.001 245.676 113.432C245.358 112.853 245.2 112.13 245.2 111.262C245.2 109.965 245.517 108.975 246.152 108.294C246.796 107.613 247.645 107.272 248.7 107.272ZM248.7 108.574C248.224 108.574 247.836 108.728 247.538 109.036C247.248 109.335 247.08 109.783 247.034 110.38H250.296C250.286 109.857 250.151 109.428 249.89 109.092C249.638 108.747 249.241 108.574 248.7 108.574ZM257.758 107.272C257.88 107.272 258.015 107.281 258.164 107.3C258.314 107.309 258.435 107.323 258.528 107.342L258.374 108.98C258.281 108.961 258.164 108.947 258.024 108.938C257.894 108.919 257.782 108.91 257.688 108.91C257.315 108.91 256.965 108.989 256.638 109.148C256.312 109.297 256.046 109.531 255.84 109.848C255.644 110.165 255.546 110.571 255.546 111.066V115H253.782V107.412H255.14L255.392 108.728H255.476C255.7 108.327 256.008 107.986 256.4 107.706C256.792 107.417 257.245 107.272 257.758 107.272ZM272.238 115H270.012L265.28 107.16H265.224C265.242 107.58 265.261 108.033 265.28 108.518C265.308 108.994 265.331 109.475 265.35 109.96V115H263.74V105.004H265.952L270.669 112.788H270.712C270.702 112.415 270.684 111.985 270.656 111.5C270.637 111.015 270.623 110.543 270.614 110.086V105.004H272.238V115ZM277.697 107.272C278.677 107.272 279.419 107.487 279.923 107.916C280.436 108.345 280.693 109.008 280.693 109.904V115H279.447L279.097 113.95H279.041C278.714 114.361 278.369 114.664 278.005 114.86C277.641 115.047 277.146 115.14 276.521 115.14C275.84 115.14 275.275 114.949 274.827 114.566C274.379 114.183 274.155 113.591 274.155 112.788C274.155 112.004 274.44 111.416 275.009 111.024C275.588 110.632 276.46 110.413 277.627 110.366L278.943 110.324V109.946C278.943 109.461 278.826 109.115 278.593 108.91C278.36 108.705 278.033 108.602 277.613 108.602C277.23 108.602 276.862 108.658 276.507 108.77C276.162 108.873 275.816 109.003 275.471 109.162L274.911 107.93C275.284 107.734 275.709 107.575 276.185 107.454C276.67 107.333 277.174 107.272 277.697 107.272ZM278.943 111.416L278.019 111.444C277.244 111.472 276.708 111.607 276.409 111.85C276.11 112.083 275.961 112.401 275.961 112.802C275.961 113.166 276.064 113.427 276.269 113.586C276.484 113.735 276.764 113.81 277.109 113.81C277.622 113.81 278.056 113.665 278.411 113.376C278.766 113.077 278.943 112.639 278.943 112.06V111.416ZM291.598 107.272C292.456 107.272 293.1 107.491 293.53 107.93C293.968 108.369 294.188 109.078 294.188 110.058V115H292.424V110.394C292.424 109.265 291.994 108.7 291.136 108.7C290.52 108.7 290.081 108.901 289.82 109.302C289.558 109.703 289.428 110.287 289.428 111.052V115H287.664V110.394C287.664 109.265 287.23 108.7 286.362 108.7C285.718 108.7 285.274 108.924 285.032 109.372C284.789 109.82 284.668 110.459 284.668 111.29V115H282.904V107.412H284.262L284.514 108.406H284.612C284.845 108.014 285.162 107.729 285.564 107.552C285.965 107.365 286.385 107.272 286.824 107.272C287.393 107.272 287.869 107.365 288.252 107.552C288.644 107.739 288.942 108.037 289.148 108.448H289.288C289.521 108.037 289.848 107.739 290.268 107.552C290.688 107.365 291.131 107.272 291.598 107.272ZM299.45 107.272C300.467 107.272 301.27 107.575 301.858 108.182C302.455 108.789 302.754 109.633 302.754 110.716V111.612H297.742C297.76 112.303 297.952 112.839 298.316 113.222C298.68 113.595 299.184 113.782 299.828 113.782C300.313 113.782 300.752 113.735 301.144 113.642C301.536 113.539 301.937 113.395 302.348 113.208V114.622C301.974 114.799 301.587 114.93 301.186 115.014C300.784 115.098 300.304 115.14 299.744 115.14C298.997 115.14 298.339 115 297.77 114.72C297.2 114.431 296.752 114.001 296.426 113.432C296.108 112.853 295.95 112.13 295.95 111.262C295.95 109.965 296.267 108.975 296.902 108.294C297.546 107.613 298.395 107.272 299.45 107.272ZM299.45 108.574C298.974 108.574 298.586 108.728 298.288 109.036C297.998 109.335 297.83 109.783 297.784 110.38H301.046C301.036 109.857 300.901 109.428 300.64 109.092C300.388 108.747 299.991 108.574 299.45 108.574Z" fill="black"/>
<path d="M320.012 113.363C319.912 113.363 319.812 113.313 319.762 113.263L314.113 107.663C313.962 107.513 313.962 107.263 314.113 107.113C314.263 106.962 314.512 106.962 314.662 107.113L320.012 112.463L325.312 107.113C325.462 106.962 325.713 106.962 325.863 107.113C326.012 107.263 326.012 107.513 325.863 107.663L320.262 113.263C320.162 113.313 320.112 113.363 320.012 113.363Z" fill="#323232"/>
<line x1="176" y1="88.5" x2="328" y2="88.5" stroke="#C9C9C9"/>
<line x1="176" y1="131.5" x2="328" y2="131.5" stroke="#C9C9C9"/>
<rect width="120" height="20" transform="translate(192 144)" fill="url(#paint0_linear_8325_503980)"/>
<rect width="120" height="20" transform="translate(192 188)" fill="url(#paint1_linear_8325_503980)"/>
<rect width="120" height="20" transform="translate(192 232)" fill="url(#paint2_linear_8325_503980)"/>
<rect width="120" height="20" transform="translate(192 276)" fill="url(#paint3_linear_8325_503980)"/>
<rect width="148" height="44" transform="translate(328 88)" fill="white"/>
<path d="M350.986 115H345.302V105.004H350.986V106.502H347.094V109.05H350.734V110.548H347.094V113.488H350.986V115ZM361.635 107.272C362.493 107.272 363.137 107.491 363.567 107.93C364.005 108.369 364.225 109.078 364.225 110.058V115H362.461V110.394C362.461 109.265 362.031 108.7 361.173 108.7C360.557 108.7 360.118 108.901 359.857 109.302C359.595 109.703 359.465 110.287 359.465 111.052V115H357.701V110.394C357.701 109.265 357.267 108.7 356.399 108.7C355.755 108.7 355.311 108.924 355.069 109.372C354.826 109.82 354.705 110.459 354.705 111.29V115H352.941V107.412H354.299L354.551 108.406H354.649C354.882 108.014 355.199 107.729 355.601 107.552C356.002 107.365 356.422 107.272 356.861 107.272C357.43 107.272 357.906 107.365 358.289 107.552C358.681 107.739 358.979 108.037 359.185 108.448H359.325C359.558 108.037 359.885 107.739 360.305 107.552C360.725 107.365 361.168 107.272 361.635 107.272ZM369.459 107.272C370.439 107.272 371.181 107.487 371.685 107.916C372.198 108.345 372.455 109.008 372.455 109.904V115H371.209L370.859 113.95H370.803C370.476 114.361 370.131 114.664 369.767 114.86C369.403 115.047 368.908 115.14 368.283 115.14C367.601 115.14 367.037 114.949 366.589 114.566C366.141 114.183 365.917 113.591 365.917 112.788C365.917 112.004 366.201 111.416 366.771 111.024C367.349 110.632 368.222 110.413 369.389 110.366L370.705 110.324V109.946C370.705 109.461 370.588 109.115 370.355 108.91C370.121 108.705 369.795 108.602 369.375 108.602C368.992 108.602 368.623 108.658 368.269 108.77C367.923 108.873 367.578 109.003 367.233 109.162L366.673 107.93C367.046 107.734 367.471 107.575 367.947 107.454C368.432 107.333 368.936 107.272 369.459 107.272ZM370.705 111.416L369.781 111.444C369.006 111.472 368.469 111.607 368.171 111.85C367.872 112.083 367.723 112.401 367.723 112.802C367.723 113.166 367.825 113.427 368.031 113.586C368.245 113.735 368.525 113.81 368.871 113.81C369.384 113.81 369.818 113.665 370.173 113.376C370.527 113.077 370.705 112.639 370.705 112.06V111.416ZM375.547 104.486C375.809 104.486 376.037 104.556 376.233 104.696C376.429 104.827 376.527 105.065 376.527 105.41C376.527 105.755 376.429 105.998 376.233 106.138C376.037 106.278 375.809 106.348 375.547 106.348C375.277 106.348 375.043 106.278 374.847 106.138C374.661 105.998 374.567 105.755 374.567 105.41C374.567 105.065 374.661 104.827 374.847 104.696C375.043 104.556 375.277 104.486 375.547 104.486ZM376.429 107.412V115H374.665V107.412H376.429ZM380.449 115H378.685V104.36H380.449V115ZM392.683 115L391.773 112.354H388.007L387.111 115H385.207L388.875 104.962H390.919L394.587 115H392.683ZM391.311 110.814L390.443 108.238C390.406 108.117 390.35 107.944 390.275 107.72C390.2 107.487 390.13 107.253 390.065 107.02C390 106.777 389.944 106.577 389.897 106.418C389.85 106.614 389.79 106.833 389.715 107.076C389.65 107.319 389.584 107.547 389.519 107.762C389.463 107.977 389.416 108.135 389.379 108.238L388.497 110.814H391.311ZM398.24 115.14C397.362 115.14 396.648 114.813 396.098 114.16C395.556 113.497 395.286 112.517 395.286 111.22C395.286 109.913 395.561 108.929 396.112 108.266C396.662 107.603 397.386 107.272 398.282 107.272C398.842 107.272 399.299 107.379 399.654 107.594C400.018 107.809 400.307 108.07 400.522 108.378H400.606C400.578 108.247 400.55 108.051 400.522 107.79C400.494 107.519 400.48 107.263 400.48 107.02V104.36H402.244V115H400.872L400.55 114.006H400.48C400.265 114.323 399.98 114.594 399.626 114.818C399.271 115.033 398.809 115.14 398.24 115.14ZM398.772 113.712C399.425 113.712 399.882 113.525 400.144 113.152C400.414 112.779 400.554 112.214 400.564 111.458V111.234C400.564 110.422 400.433 109.801 400.172 109.372C399.92 108.933 399.444 108.714 398.744 108.714C398.202 108.714 397.787 108.938 397.498 109.386C397.218 109.825 397.078 110.445 397.078 111.248C397.078 112.051 397.222 112.662 397.512 113.082C397.801 113.502 398.221 113.712 398.772 113.712ZM407.003 115.14C406.126 115.14 405.412 114.813 404.861 114.16C404.32 113.497 404.049 112.517 404.049 111.22C404.049 109.913 404.325 108.929 404.875 108.266C405.426 107.603 406.149 107.272 407.045 107.272C407.605 107.272 408.063 107.379 408.417 107.594C408.781 107.809 409.071 108.07 409.285 108.378H409.369C409.341 108.247 409.313 108.051 409.285 107.79C409.257 107.519 409.243 107.263 409.243 107.02V104.36H411.007V115H409.635L409.313 114.006H409.243C409.029 114.323 408.744 114.594 408.389 114.818C408.035 115.033 407.573 115.14 407.003 115.14ZM407.535 113.712C408.189 113.712 408.646 113.525 408.907 113.152C409.178 112.779 409.318 112.214 409.327 111.458V111.234C409.327 110.422 409.197 109.801 408.935 109.372C408.683 108.933 408.207 108.714 407.507 108.714C406.966 108.714 406.551 108.938 406.261 109.386C405.981 109.825 405.841 110.445 405.841 111.248C405.841 112.051 405.986 112.662 406.275 113.082C406.565 113.502 406.985 113.712 407.535 113.712ZM417.237 107.272C417.358 107.272 417.494 107.281 417.643 107.3C417.792 107.309 417.914 107.323 418.007 107.342L417.853 108.98C417.76 108.961 417.643 108.947 417.503 108.938C417.372 108.919 417.26 108.91 417.167 108.91C416.794 108.91 416.444 108.989 416.117 109.148C415.79 109.297 415.524 109.531 415.319 109.848C415.123 110.165 415.025 110.571 415.025 111.066V115H413.261V107.412H414.619L414.871 108.728H414.955C415.179 108.327 415.487 107.986 415.879 107.706C416.271 107.417 416.724 107.272 417.237 107.272ZM422.192 107.272C423.209 107.272 424.012 107.575 424.6 108.182C425.197 108.789 425.496 109.633 425.496 110.716V111.612H420.484C420.503 112.303 420.694 112.839 421.058 113.222C421.422 113.595 421.926 113.782 422.57 113.782C423.055 113.782 423.494 113.735 423.886 113.642C424.278 113.539 424.679 113.395 425.09 113.208V114.622C424.717 114.799 424.329 114.93 423.928 115.014C423.527 115.098 423.046 115.14 422.486 115.14C421.739 115.14 421.081 115 420.512 114.72C419.943 114.431 419.495 114.001 419.168 113.432C418.851 112.853 418.692 112.13 418.692 111.262C418.692 109.965 419.009 108.975 419.644 108.294C420.288 107.613 421.137 107.272 422.192 107.272ZM422.192 108.574C421.716 108.574 421.329 108.728 421.03 109.036C420.741 109.335 420.573 109.783 420.526 110.38H423.788C423.779 109.857 423.643 109.428 423.382 109.092C423.13 108.747 422.733 108.574 422.192 108.574ZM432.441 112.802C432.441 113.567 432.165 114.151 431.615 114.552C431.073 114.944 430.294 115.14 429.277 115.14C428.745 115.14 428.287 115.103 427.905 115.028C427.531 114.953 427.167 114.837 426.813 114.678V113.18C427.186 113.357 427.597 113.507 428.045 113.628C428.502 113.749 428.931 113.81 429.333 113.81C429.818 113.81 430.168 113.735 430.383 113.586C430.597 113.437 430.705 113.236 430.705 112.984C430.705 112.835 430.663 112.704 430.579 112.592C430.495 112.471 430.331 112.34 430.089 112.2C429.846 112.06 429.477 111.887 428.983 111.682C428.497 111.486 428.091 111.29 427.765 111.094C427.447 110.898 427.205 110.665 427.037 110.394C426.878 110.123 426.799 109.773 426.799 109.344C426.799 108.663 427.069 108.149 427.611 107.804C428.152 107.449 428.866 107.272 429.753 107.272C430.219 107.272 430.658 107.319 431.069 107.412C431.489 107.505 431.909 107.645 432.329 107.832L431.769 109.134C431.414 108.985 431.069 108.859 430.733 108.756C430.397 108.653 430.051 108.602 429.697 108.602C428.922 108.602 428.535 108.821 428.535 109.26C428.535 109.419 428.581 109.554 428.675 109.666C428.777 109.778 428.95 109.899 429.193 110.03C429.445 110.151 429.799 110.301 430.257 110.478C430.705 110.655 431.092 110.842 431.419 111.038C431.745 111.225 431.997 111.458 432.175 111.738C432.352 112.009 432.441 112.363 432.441 112.802ZM439.304 112.802C439.304 113.567 439.029 114.151 438.478 114.552C437.937 114.944 437.157 115.14 436.14 115.14C435.608 115.14 435.151 115.103 434.768 115.028C434.395 114.953 434.031 114.837 433.676 114.678V113.18C434.049 113.357 434.46 113.507 434.908 113.628C435.365 113.749 435.795 113.81 436.196 113.81C436.681 113.81 437.031 113.735 437.246 113.586C437.461 113.437 437.568 113.236 437.568 112.984C437.568 112.835 437.526 112.704 437.442 112.592C437.358 112.471 437.195 112.34 436.952 112.2C436.709 112.06 436.341 111.887 435.846 111.682C435.361 111.486 434.955 111.29 434.628 111.094C434.311 110.898 434.068 110.665 433.9 110.394C433.741 110.123 433.662 109.773 433.662 109.344C433.662 108.663 433.933 108.149 434.474 107.804C435.015 107.449 435.729 107.272 436.616 107.272C437.083 107.272 437.521 107.319 437.932 107.412C438.352 107.505 438.772 107.645 439.192 107.832L438.632 109.134C438.277 108.985 437.932 108.859 437.596 108.756C437.26 108.653 436.915 108.602 436.56 108.602C435.785 108.602 435.398 108.821 435.398 109.26C435.398 109.419 435.445 109.554 435.538 109.666C435.641 109.778 435.813 109.899 436.056 110.03C436.308 110.151 436.663 110.301 437.12 110.478C437.568 110.655 437.955 110.842 438.282 111.038C438.609 111.225 438.861 111.458 439.038 111.738C439.215 112.009 439.304 112.363 439.304 112.802Z" fill="black"/>
<path d="M456.012 113.363C455.912 113.363 455.812 113.313 455.762 113.263L450.113 107.663C449.962 107.513 449.962 107.263 450.113 107.113C450.263 106.962 450.512 106.962 450.662 107.113L456.012 112.463L461.312 107.113C461.462 106.962 461.713 106.962 461.863 107.113C462.012 107.263 462.012 107.513 461.863 107.663L456.262 113.263C456.162 113.313 456.112 113.363 456.012 113.363Z" fill="#323232"/>
<line x1="328" y1="88.5" x2="476" y2="88.5" stroke="#C9C9C9"/>
<line x1="328" y1="131.5" x2="476" y2="131.5" stroke="#C9C9C9"/>
<rect width="116" height="20" transform="translate(344 144)" fill="url(#paint4_linear_8325_503980)"/>
<rect width="116" height="20" transform="translate(344 188)" fill="url(#paint5_linear_8325_503980)"/>
<rect width="116" height="20" transform="translate(344 232)" fill="url(#paint6_linear_8325_503980)"/>
<rect width="116" height="20" transform="translate(344 276)" fill="url(#paint7_linear_8325_503980)"/>
<rect width="153" height="44" transform="translate(476 88)" fill="white"/>
<path d="M501.478 109.904C501.478 111.593 501.007 112.867 500.064 113.726C499.121 114.575 497.805 115 496.116 115H493.302V105.004H496.41C497.446 105.004 498.342 105.191 499.098 105.564C499.854 105.937 500.437 106.488 500.848 107.216C501.268 107.944 501.478 108.84 501.478 109.904ZM499.602 109.96C499.602 108.765 499.327 107.888 498.776 107.328C498.225 106.768 497.437 106.488 496.41 106.488H495.094V113.502H496.172C498.459 113.502 499.602 112.321 499.602 109.96ZM506.467 107.272C507.447 107.272 508.189 107.487 508.693 107.916C509.206 108.345 509.463 109.008 509.463 109.904V115H508.217L507.867 113.95H507.811C507.484 114.361 507.139 114.664 506.775 114.86C506.411 115.047 505.916 115.14 505.291 115.14C504.609 115.14 504.045 114.949 503.597 114.566C503.149 114.183 502.925 113.591 502.925 112.788C502.925 112.004 503.209 111.416 503.779 111.024C504.357 110.632 505.23 110.413 506.397 110.366L507.713 110.324V109.946C507.713 109.461 507.596 109.115 507.363 108.91C507.129 108.705 506.803 108.602 506.383 108.602C506 108.602 505.631 108.658 505.277 108.77C504.931 108.873 504.586 109.003 504.241 109.162L503.681 107.93C504.054 107.734 504.479 107.575 504.955 107.454C505.44 107.333 505.944 107.272 506.467 107.272ZM507.713 111.416L506.789 111.444C506.014 111.472 505.477 111.607 505.179 111.85C504.88 112.083 504.731 112.401 504.731 112.802C504.731 113.166 504.833 113.427 505.039 113.586C505.253 113.735 505.533 113.81 505.879 113.81C506.392 113.81 506.826 113.665 507.181 113.376C507.535 113.077 507.713 112.639 507.713 112.06V111.416ZM514.613 113.726C514.828 113.726 515.038 113.707 515.243 113.67C515.458 113.623 515.654 113.572 515.831 113.516V114.832C515.644 114.925 515.402 115 515.103 115.056C514.804 115.112 514.492 115.14 514.165 115.14C513.726 115.14 513.33 115.07 512.975 114.93C512.63 114.79 512.354 114.543 512.149 114.188C511.944 113.833 511.841 113.334 511.841 112.69V108.742H510.819V107.972L511.939 107.356L512.499 105.746H513.605V107.412H515.761V108.742H513.605V112.676C513.605 113.031 513.698 113.297 513.885 113.474C514.081 113.642 514.324 113.726 514.613 113.726ZM520.413 107.272C521.43 107.272 522.233 107.575 522.821 108.182C523.418 108.789 523.717 109.633 523.717 110.716V111.612H518.705C518.723 112.303 518.915 112.839 519.279 113.222C519.643 113.595 520.147 113.782 520.791 113.782C521.276 113.782 521.715 113.735 522.107 113.642C522.499 113.539 522.9 113.395 523.311 113.208V114.622C522.937 114.799 522.55 114.93 522.149 115.014C521.747 115.098 521.267 115.14 520.707 115.14C519.96 115.14 519.302 115 518.733 114.72C518.163 114.431 517.715 114.001 517.389 113.432C517.071 112.853 516.913 112.13 516.913 111.262C516.913 109.965 517.23 108.975 517.865 108.294C518.509 107.613 519.358 107.272 520.413 107.272ZM520.413 108.574C519.937 108.574 519.549 108.728 519.251 109.036C518.961 109.335 518.793 109.783 518.747 110.38H522.009C521.999 109.857 521.864 109.428 521.603 109.092C521.351 108.747 520.954 108.574 520.413 108.574ZM532.156 107.272C533.136 107.272 533.878 107.487 534.382 107.916C534.895 108.345 535.152 109.008 535.152 109.904V115H533.906L533.556 113.95H533.5C533.173 114.361 532.828 114.664 532.464 114.86C532.1 115.047 531.605 115.14 530.98 115.14C530.299 115.14 529.734 114.949 529.286 114.566C528.838 114.183 528.614 113.591 528.614 112.788C528.614 112.004 528.899 111.416 529.468 111.024C530.047 110.632 530.919 110.413 532.086 110.366L533.402 110.324V109.946C533.402 109.461 533.285 109.115 533.052 108.91C532.819 108.705 532.492 108.602 532.072 108.602C531.689 108.602 531.321 108.658 530.966 108.77C530.621 108.873 530.275 109.003 529.93 109.162L529.37 107.93C529.743 107.734 530.168 107.575 530.644 107.454C531.129 107.333 531.633 107.272 532.156 107.272ZM533.402 111.416L532.478 111.444C531.703 111.472 531.167 111.607 530.868 111.85C530.569 112.083 530.42 112.401 530.42 112.802C530.42 113.166 530.523 113.427 530.728 113.586C530.943 113.735 531.223 113.81 531.568 113.81C532.081 113.81 532.515 113.665 532.87 113.376C533.225 113.077 533.402 112.639 533.402 112.06V111.416ZM541.423 107.272C542.272 107.272 542.935 107.491 543.411 107.93C543.896 108.369 544.139 109.078 544.139 110.058V115H542.375V110.408C542.375 109.839 542.263 109.414 542.039 109.134C541.815 108.845 541.46 108.7 540.975 108.7C540.265 108.7 539.78 108.924 539.519 109.372C539.257 109.82 539.127 110.459 539.127 111.29V115H537.363V107.412H538.721L538.973 108.406H539.071C539.313 108.014 539.645 107.729 540.065 107.552C540.494 107.365 540.947 107.272 541.423 107.272ZM548.851 115.14C547.974 115.14 547.26 114.813 546.709 114.16C546.168 113.497 545.897 112.517 545.897 111.22C545.897 109.913 546.172 108.929 546.723 108.266C547.274 107.603 547.997 107.272 548.893 107.272C549.453 107.272 549.91 107.379 550.265 107.594C550.629 107.809 550.918 108.07 551.133 108.378H551.217C551.189 108.247 551.161 108.051 551.133 107.79C551.105 107.519 551.091 107.263 551.091 107.02V104.36H552.855V115H551.483L551.161 114.006H551.091C550.876 114.323 550.592 114.594 550.237 114.818C549.882 115.033 549.42 115.14 548.851 115.14ZM549.383 113.712C550.036 113.712 550.494 113.525 550.755 113.152C551.026 112.779 551.166 112.214 551.175 111.458V111.234C551.175 110.422 551.044 109.801 550.783 109.372C550.531 108.933 550.055 108.714 549.355 108.714C548.814 108.714 548.398 108.938 548.109 109.386C547.829 109.825 547.689 110.445 547.689 111.248C547.689 112.051 547.834 112.662 548.123 113.082C548.412 113.502 548.832 113.712 549.383 113.712ZM561.685 113.726C561.9 113.726 562.11 113.707 562.315 113.67C562.53 113.623 562.726 113.572 562.903 113.516V114.832C562.717 114.925 562.474 115 562.175 115.056C561.877 115.112 561.564 115.14 561.237 115.14C560.799 115.14 560.402 115.07 560.047 114.93C559.702 114.79 559.427 114.543 559.221 114.188C559.016 113.833 558.913 113.334 558.913 112.69V108.742H557.891V107.972L559.011 107.356L559.571 105.746H560.677V107.412H562.833V108.742H560.677V112.676C560.677 113.031 560.771 113.297 560.957 113.474C561.153 113.642 561.396 113.726 561.685 113.726ZM565.315 104.486C565.576 104.486 565.805 104.556 566.001 104.696C566.197 104.827 566.295 105.065 566.295 105.41C566.295 105.755 566.197 105.998 566.001 106.138C565.805 106.278 565.576 106.348 565.315 106.348C565.044 106.348 564.811 106.278 564.615 106.138C564.428 105.998 564.335 105.755 564.335 105.41C564.335 105.065 564.428 104.827 564.615 104.696C564.811 104.556 565.044 104.486 565.315 104.486ZM566.197 107.412V115H564.433V107.412H566.197ZM577.146 107.272C578.005 107.272 578.649 107.491 579.078 107.93C579.517 108.369 579.736 109.078 579.736 110.058V115H577.972V110.394C577.972 109.265 577.543 108.7 576.684 108.7C576.068 108.7 575.63 108.901 575.368 109.302C575.107 109.703 574.976 110.287 574.976 111.052V115H573.212V110.394C573.212 109.265 572.778 108.7 571.91 108.7C571.266 108.7 570.823 108.924 570.58 109.372C570.338 109.82 570.216 110.459 570.216 111.29V115H568.452V107.412H569.81L570.062 108.406H570.16C570.394 108.014 570.711 107.729 571.112 107.552C571.514 107.365 571.934 107.272 572.372 107.272C572.942 107.272 573.418 107.365 573.8 107.552C574.192 107.739 574.491 108.037 574.696 108.448H574.836C575.07 108.037 575.396 107.739 575.816 107.552C576.236 107.365 576.68 107.272 577.146 107.272ZM584.999 107.272C586.016 107.272 586.819 107.575 587.407 108.182C588.004 108.789 588.303 109.633 588.303 110.716V111.612H583.291C583.309 112.303 583.501 112.839 583.865 113.222C584.229 113.595 584.733 113.782 585.377 113.782C585.862 113.782 586.301 113.735 586.693 113.642C587.085 113.539 587.486 113.395 587.897 113.208V114.622C587.523 114.799 587.136 114.93 586.735 115.014C586.333 115.098 585.853 115.14 585.293 115.14C584.546 115.14 583.888 115 583.319 114.72C582.749 114.431 582.301 114.001 581.975 113.432C581.657 112.853 581.499 112.13 581.499 111.262C581.499 109.965 581.816 108.975 582.451 108.294C583.095 107.613 583.944 107.272 584.999 107.272ZM584.999 108.574C584.523 108.574 584.135 108.728 583.837 109.036C583.547 109.335 583.379 109.783 583.333 110.38H586.595C586.585 109.857 586.45 109.428 586.189 109.092C585.937 108.747 585.54 108.574 584.999 108.574Z" fill="black"/>
<path d="M605.012 113.363C604.912 113.363 604.812 113.313 604.762 113.263L599.113 107.663C598.962 107.513 598.962 107.263 599.113 107.113C599.263 106.962 599.512 106.962 599.662 107.113L605.012 112.463L610.312 107.113C610.462 106.962 610.713 106.962 610.863 107.113C611.012 107.263 611.012 107.513 610.863 107.663L605.262 113.263C605.162 113.313 605.112 113.363 605.012 113.363Z" fill="#323232"/>
<line x1="476" y1="88.5" x2="629" y2="88.5" stroke="#C9C9C9"/>
<line x1="476" y1="131.5" x2="629" y2="131.5" stroke="#C9C9C9"/>
<rect width="121" height="20" transform="translate(492 144)" fill="url(#paint8_linear_8325_503980)"/>
<rect width="121" height="20" transform="translate(492 188)" fill="url(#paint9_linear_8325_503980)"/>
<rect width="121" height="20" transform="translate(492 232)" fill="url(#paint10_linear_8325_503980)"/>
<rect width="121" height="20" transform="translate(492 276)" fill="url(#paint11_linear_8325_503980)"/>
<rect width="129" height="44" transform="translate(629 88)" fill="white"/>
<path d="M652.476 115L651.566 112.354H647.8L646.904 115H645L648.668 104.962H650.712L654.38 115H652.476ZM651.104 110.814L650.236 108.238C650.199 108.117 650.143 107.944 650.068 107.72C649.993 107.487 649.923 107.253 649.858 107.02C649.793 106.777 649.737 106.577 649.69 106.418C649.643 106.614 649.583 106.833 649.508 107.076C649.443 107.319 649.377 107.547 649.312 107.762C649.256 107.977 649.209 108.135 649.172 108.238L648.29 110.814H651.104ZM658.075 107.272C659.055 107.272 659.806 107.645 660.329 108.392H660.399L660.567 107.412H662.037V115.056C662.037 116.139 661.733 116.96 661.127 117.52C660.52 118.08 659.605 118.36 658.383 118.36C657.841 118.36 657.342 118.323 656.885 118.248C656.427 118.183 655.993 118.066 655.583 117.898V116.442C656.012 116.629 656.469 116.773 656.955 116.876C657.449 116.979 657.963 117.03 658.495 117.03C659.064 117.03 659.503 116.867 659.811 116.54C660.119 116.223 660.273 115.756 660.273 115.14V114.944C660.273 114.804 660.277 114.641 660.287 114.454C660.296 114.267 660.31 114.118 660.329 114.006H660.273C660.011 114.398 659.689 114.687 659.307 114.874C658.933 115.051 658.509 115.14 658.033 115.14C657.109 115.14 656.385 114.795 655.863 114.104C655.34 113.413 655.079 112.452 655.079 111.22C655.079 109.988 655.34 109.022 655.863 108.322C656.395 107.622 657.132 107.272 658.075 107.272ZM658.537 108.714C657.435 108.714 656.885 109.559 656.885 111.248C656.885 112.909 657.445 113.74 658.565 113.74C659.181 113.74 659.633 113.572 659.923 113.236C660.221 112.891 660.371 112.312 660.371 111.5V111.234C660.371 110.338 660.221 109.694 659.923 109.302C659.633 108.91 659.171 108.714 658.537 108.714ZM667.342 107.272C668.36 107.272 669.162 107.575 669.75 108.182C670.348 108.789 670.646 109.633 670.646 110.716V111.612H665.634C665.653 112.303 665.844 112.839 666.208 113.222C666.572 113.595 667.076 113.782 667.72 113.782C668.206 113.782 668.644 113.735 669.036 113.642C669.428 113.539 669.83 113.395 670.24 113.208V114.622C669.867 114.799 669.48 114.93 669.078 115.014C668.677 115.098 668.196 115.14 667.636 115.14C666.89 115.14 666.232 115 665.662 114.72C665.093 114.431 664.645 114.001 664.318 113.432C664.001 112.853 663.842 112.13 663.842 111.262C663.842 109.965 664.16 108.975 664.794 108.294C665.438 107.613 666.288 107.272 667.342 107.272ZM667.342 108.574C666.866 108.574 666.479 108.728 666.18 109.036C665.891 109.335 665.723 109.783 665.676 110.38H668.938C668.929 109.857 668.794 109.428 668.532 109.092C668.28 108.747 667.884 108.574 667.342 108.574ZM676.485 107.272C677.334 107.272 677.997 107.491 678.473 107.93C678.958 108.369 679.201 109.078 679.201 110.058V115H677.437V110.408C677.437 109.839 677.325 109.414 677.101 109.134C676.877 108.845 676.522 108.7 676.037 108.7C675.328 108.7 674.842 108.924 674.581 109.372C674.32 109.82 674.189 110.459 674.189 111.29V115H672.425V107.412H673.783L674.035 108.406H674.133C674.376 108.014 674.707 107.729 675.127 107.552C675.556 107.365 676.009 107.272 676.485 107.272ZM684.347 113.726C684.562 113.726 684.772 113.707 684.977 113.67C685.192 113.623 685.388 113.572 685.565 113.516V114.832C685.379 114.925 685.136 115 684.837 115.056C684.539 115.112 684.226 115.14 683.899 115.14C683.461 115.14 683.064 115.07 682.709 114.93C682.364 114.79 682.089 114.543 681.883 114.188C681.678 113.833 681.575 113.334 681.575 112.69V108.742H680.553V107.972L681.673 107.356L682.233 105.746H683.339V107.412H685.495V108.742H683.339V112.676C683.339 113.031 683.433 113.297 683.619 113.474C683.815 113.642 684.058 113.726 684.347 113.726Z" fill="black"/>
<path d="M702.012 113.363C701.912 113.363 701.812 113.313 701.762 113.263L696.113 107.663C695.962 107.513 695.962 107.263 696.113 107.113C696.263 106.962 696.512 106.962 696.662 107.113L702.012 112.463L707.312 107.113C707.462 106.962 707.713 106.962 707.863 107.113C708.012 107.263 708.012 107.513 707.863 107.663L702.262 113.263C702.162 113.313 702.112 113.363 702.012 113.363Z" fill="#323232"/>
<line x1="629" y1="88.5" x2="758" y2="88.5" stroke="#C9C9C9"/>
<line x1="629" y1="131.5" x2="758" y2="131.5" stroke="#C9C9C9"/>
<rect width="97" height="20" transform="translate(645 144)" fill="url(#paint12_linear_8325_503980)"/>
<rect width="97" height="20" transform="translate(645 188)" fill="url(#paint13_linear_8325_503980)"/>
<rect width="97" height="20" transform="translate(645 232)" fill="url(#paint14_linear_8325_503980)"/>
<rect width="97" height="20" transform="translate(645 276)" fill="url(#paint15_linear_8325_503980)"/>
<rect width="396" height="44" transform="translate(758 88)" fill="white"/>
<line x1="758" y1="88.5" x2="1154" y2="88.5" stroke="#C9C9C9"/>
<line x1="758" y1="131.5" x2="1154" y2="131.5" stroke="#C9C9C9"/>
<rect width="297" height="20" transform="translate(774 144)" fill="url(#paint16_linear_8325_503980)"/>
<rect width="297" height="20" transform="translate(774 188)" fill="url(#paint17_linear_8325_503980)"/>
<rect width="297" height="20" transform="translate(774 232)" fill="url(#paint18_linear_8325_503980)"/>
<rect width="297" height="20" transform="translate(774 276)" fill="url(#paint19_linear_8325_503980)"/>
<rect x="103.5" y="47.5" width="1067" height="327" rx="4.5" stroke="black" stroke-opacity="0.15"/>
</g>
</g>
</g>
<path d="M0.5 0.5H950C950.828 0.5 951.5 1.17157 951.5 2V308.5H0.5V0.5Z" stroke="#C9C9C9"/>
<defs>
<filter id="filter0_d_8325_503980" x="72" y="20" width="808" height="390" filterUnits="userSpaceOnUse" color-interpolation-filters="sRGB">
<feFlood flood-opacity="0" result="BackgroundImageFix"/>
<feColorMatrix in="SourceAlpha" type="matrix" values="0 0 0 0 0 0 0 0 0 0 0 0 0 0 0 0 0 0 127 0" result="hardAlpha"/>
<feOffset dy="4"/>
<feGaussianBlur stdDeviation="4"/>
<feColorMatrix type="matrix" values="0 0 0 0 0 0 0 0 0 0 0 0 0 0 0 0 0 0 0.25 0"/>
<feBlend mode="normal" in2="BackgroundImageFix" result="effect1_dropShadow_8325_503980"/>
<feBlend mode="normal" in="SourceGraphic" in2="effect1_dropShadow_8325_503980" result="shape"/>
</filter>
<linearGradient id="paint0_linear_8325_503980" x1="5.30855e-07" y1="9.99993" x2="120" y2="9.99993" gradientUnits="userSpaceOnUse">
<stop stop-color="#F1F1F1"/>
<stop offset="0.1875" stop-color="#F1F1F1"/>
<stop offset="0.364583" stop-color="white"/>
<stop offset="0.546875" stop-color="#F1F1F1"/>
<stop offset="0.979067" stop-color="#F1F1F1"/>
</linearGradient>
<linearGradient id="paint1_linear_8325_503980" x1="5.30855e-07" y1="9.99993" x2="120" y2="9.99993" gradientUnits="userSpaceOnUse">
<stop stop-color="#F1F1F1"/>
<stop offset="0.1875" stop-color="#F1F1F1"/>
<stop offset="0.364583" stop-color="white"/>
<stop offset="0.546875" stop-color="#F1F1F1"/>
<stop offset="0.979067" stop-color="#F1F1F1"/>
</linearGradient>
<linearGradient id="paint2_linear_8325_503980" x1="5.30855e-07" y1="9.99993" x2="120" y2="9.99993" gradientUnits="userSpaceOnUse">
<stop stop-color="#F1F1F1"/>
<stop offset="0.1875" stop-color="#F1F1F1"/>
<stop offset="0.364583" stop-color="white"/>
<stop offset="0.546875" stop-color="#F1F1F1"/>
<stop offset="0.979067" stop-color="#F1F1F1"/>
</linearGradient>
<linearGradient id="paint3_linear_8325_503980" x1="5.30855e-07" y1="9.99993" x2="120" y2="9.99993" gradientUnits="userSpaceOnUse">
<stop stop-color="#F1F1F1"/>
<stop offset="0.1875" stop-color="#F1F1F1"/>
<stop offset="0.364583" stop-color="white"/>
<stop offset="0.546875" stop-color="#F1F1F1"/>
<stop offset="0.979067" stop-color="#F1F1F1"/>
</linearGradient>
<linearGradient id="paint4_linear_8325_503980" x1="5.1316e-07" y1="9.99993" x2="116" y2="9.99993" gradientUnits="userSpaceOnUse">
<stop stop-color="#F1F1F1"/>
<stop offset="0.1875" stop-color="#F1F1F1"/>
<stop offset="0.364583" stop-color="white"/>
<stop offset="0.546875" stop-color="#F1F1F1"/>
<stop offset="0.979067" stop-color="#F1F1F1"/>
</linearGradient>
<linearGradient id="paint5_linear_8325_503980" x1="5.1316e-07" y1="9.99993" x2="116" y2="9.99993" gradientUnits="userSpaceOnUse">
<stop stop-color="#F1F1F1"/>
<stop offset="0.1875" stop-color="#F1F1F1"/>
<stop offset="0.364583" stop-color="white"/>
<stop offset="0.546875" stop-color="#F1F1F1"/>
<stop offset="0.979067" stop-color="#F1F1F1"/>
</linearGradient>
<linearGradient id="paint6_linear_8325_503980" x1="5.1316e-07" y1="9.99993" x2="116" y2="9.99993" gradientUnits="userSpaceOnUse">
<stop stop-color="#F1F1F1"/>
<stop offset="0.1875" stop-color="#F1F1F1"/>
<stop offset="0.364583" stop-color="white"/>
<stop offset="0.546875" stop-color="#F1F1F1"/>
<stop offset="0.979067" stop-color="#F1F1F1"/>
</linearGradient>
<linearGradient id="paint7_linear_8325_503980" x1="5.1316e-07" y1="9.99993" x2="116" y2="9.99993" gradientUnits="userSpaceOnUse">
<stop stop-color="#F1F1F1"/>
<stop offset="0.1875" stop-color="#F1F1F1"/>
<stop offset="0.364583" stop-color="white"/>
<stop offset="0.546875" stop-color="#F1F1F1"/>
<stop offset="0.979067" stop-color="#F1F1F1"/>
</linearGradient>
<linearGradient id="paint8_linear_8325_503980" x1="5.35279e-07" y1="9.99993" x2="121" y2="9.99993" gradientUnits="userSpaceOnUse">
<stop stop-color="#F1F1F1"/>
<stop offset="0.1875" stop-color="#F1F1F1"/>
<stop offset="0.364583" stop-color="white"/>
<stop offset="0.546875" stop-color="#F1F1F1"/>
<stop offset="0.979067" stop-color="#F1F1F1"/>
</linearGradient>
<linearGradient id="paint9_linear_8325_503980" x1="5.35279e-07" y1="9.99993" x2="121" y2="9.99993" gradientUnits="userSpaceOnUse">
<stop stop-color="#F1F1F1"/>
<stop offset="0.1875" stop-color="#F1F1F1"/>
<stop offset="0.364583" stop-color="white"/>
<stop offset="0.546875" stop-color="#F1F1F1"/>
<stop offset="0.979067" stop-color="#F1F1F1"/>
</linearGradient>
<linearGradient id="paint10_linear_8325_503980" x1="5.35279e-07" y1="9.99993" x2="121" y2="9.99993" gradientUnits="userSpaceOnUse">
<stop stop-color="#F1F1F1"/>
<stop offset="0.1875" stop-color="#F1F1F1"/>
<stop offset="0.364583" stop-color="white"/>
<stop offset="0.546875" stop-color="#F1F1F1"/>
<stop offset="0.979067" stop-color="#F1F1F1"/>
</linearGradient>
<linearGradient id="paint11_linear_8325_503980" x1="5.35279e-07" y1="9.99993" x2="121" y2="9.99993" gradientUnits="userSpaceOnUse">
<stop stop-color="#F1F1F1"/>
<stop offset="0.1875" stop-color="#F1F1F1"/>
<stop offset="0.364583" stop-color="white"/>
<stop offset="0.546875" stop-color="#F1F1F1"/>
<stop offset="0.979067" stop-color="#F1F1F1"/>
</linearGradient>
<linearGradient id="paint12_linear_8325_503980" x1="4.29108e-07" y1="9.99993" x2="97" y2="9.99993" gradientUnits="userSpaceOnUse">
<stop stop-color="#F1F1F1"/>
<stop offset="0.1875" stop-color="#F1F1F1"/>
<stop offset="0.364583" stop-color="white"/>
<stop offset="0.546875" stop-color="#F1F1F1"/>
<stop offset="0.979067" stop-color="#F1F1F1"/>
</linearGradient>
<linearGradient id="paint13_linear_8325_503980" x1="4.29108e-07" y1="9.99993" x2="97" y2="9.99993" gradientUnits="userSpaceOnUse">
<stop stop-color="#F1F1F1"/>
<stop offset="0.1875" stop-color="#F1F1F1"/>
<stop offset="0.364583" stop-color="white"/>
<stop offset="0.546875" stop-color="#F1F1F1"/>
<stop offset="0.979067" stop-color="#F1F1F1"/>
</linearGradient>
<linearGradient id="paint14_linear_8325_503980" x1="4.29108e-07" y1="9.99993" x2="97" y2="9.99993" gradientUnits="userSpaceOnUse">
<stop stop-color="#F1F1F1"/>
<stop offset="0.1875" stop-color="#F1F1F1"/>
<stop offset="0.364583" stop-color="white"/>
<stop offset="0.546875" stop-color="#F1F1F1"/>
<stop offset="0.979067" stop-color="#F1F1F1"/>
</linearGradient>
<linearGradient id="paint15_linear_8325_503980" x1="4.29108e-07" y1="9.99993" x2="97" y2="9.99993" gradientUnits="userSpaceOnUse">
<stop stop-color="#F1F1F1"/>
<stop offset="0.1875" stop-color="#F1F1F1"/>
<stop offset="0.364583" stop-color="white"/>
<stop offset="0.546875" stop-color="#F1F1F1"/>
<stop offset="0.979067" stop-color="#F1F1F1"/>
</linearGradient>
<linearGradient id="paint16_linear_8325_503980" x1="1.31387e-06" y1="9.99993" x2="297" y2="9.99995" gradientUnits="userSpaceOnUse">
<stop stop-color="#F1F1F1"/>
<stop offset="0.1875" stop-color="#F1F1F1"/>
<stop offset="0.364583" stop-color="white"/>
<stop offset="0.546875" stop-color="#F1F1F1"/>
<stop offset="0.979067" stop-color="#F1F1F1"/>
</linearGradient>
<linearGradient id="paint17_linear_8325_503980" x1="1.31387e-06" y1="9.99993" x2="297" y2="9.99995" gradientUnits="userSpaceOnUse">
<stop stop-color="#F1F1F1"/>
<stop offset="0.1875" stop-color="#F1F1F1"/>
<stop offset="0.364583" stop-color="white"/>
<stop offset="0.546875" stop-color="#F1F1F1"/>
<stop offset="0.979067" stop-color="#F1F1F1"/>
</linearGradient>
<linearGradient id="paint18_linear_8325_503980" x1="1.31387e-06" y1="9.99993" x2="297" y2="9.99995" gradientUnits="userSpaceOnUse">
<stop stop-color="#F1F1F1"/>
<stop offset="0.1875" stop-color="#F1F1F1"/>
<stop offset="0.364583" stop-color="white"/>
<stop offset="0.546875" stop-color="#F1F1F1"/>
<stop offset="0.979067" stop-color="#F1F1F1"/>
</linearGradient>
<linearGradient id="paint19_linear_8325_503980" x1="1.31387e-06" y1="9.99993" x2="297" y2="9.99995" gradientUnits="userSpaceOnUse">
<stop stop-color="#F1F1F1"/>
<stop offset="0.1875" stop-color="#F1F1F1"/>
<stop offset="0.364583" stop-color="white"/>
<stop offset="0.546875" stop-color="#F1F1F1"/>
<stop offset="0.979067" stop-color="#F1F1F1"/>
</linearGradient>
<clipPath id="clip0_8325_503980">
<path d="M0 0H950C951.105 0 952 0.895431 952 2V309H0V0Z" fill="white"/>
</clipPath>
<clipPath id="clip1_8325_503980">
<path d="M80 26C80 24.8954 80.8954 24 82 24H870C871.105 24 872 24.8954 872 26V398H80V26Z" fill="white"/>
</clipPath>
<clipPath id="clip2_8325_503980">
<rect width="56" height="44" fill="white" transform="translate(120 88)"/>
</clipPath>
</defs>
</svg>
