<svg width="904" height="406" viewBox="0 0 904 406" fill="none" xmlns="http://www.w3.org/2000/svg">
<rect width="904" height="406" fill="white"/>
<rect x="23.5" y="39.5" width="857" height="327" rx="4.5" fill="white"/>
<rect width="139" height="20" transform="translate(40 52)" fill="url(#paint0_linear_8325_503615)"/>
<g clip-path="url(#clip0_8325_503615)">
<rect width="56" height="44" transform="translate(40 80)" fill="white"/>
<line x1="40" y1="80.5" x2="96" y2="80.5" stroke="#C9C9C9"/>
<line x1="40" y1="123.5" x2="96" y2="123.5" stroke="#C9C9C9"/>
</g>
<circle cx="68" cy="146" r="12" fill="#F1F1F1"/>
<circle cx="68" cy="190" r="12" fill="#F1F1F1"/>
<circle cx="68" cy="234" r="12" fill="#F1F1F1"/>
<circle cx="68" cy="278" r="12" fill="#F1F1F1"/>
<circle cx="68" cy="322" r="12" fill="#F1F1F1"/>
<mask id="path-9-inside-1_8325_503615" fill="white">
<path d="M96 80H248V124H96V80Z"/>
</mask>
<path d="M96 80H248V124H96V80Z" fill="white"/>
<rect width="96" height="20" transform="translate(112 92)" fill="url(#paint1_linear_8325_503615)"/>
<circle cx="224" cy="102" r="8" fill="#F1F1F1"/>
<path d="M96 81H248V79H96V81ZM248 123H96V125H248V123Z" fill="#C9C9C9" mask="url(#path-9-inside-1_8325_503615)"/>
<rect width="120" height="20" transform="translate(112 136)" fill="url(#paint2_linear_8325_503615)"/>
<rect width="120" height="20" transform="translate(112 180)" fill="url(#paint3_linear_8325_503615)"/>
<rect width="120" height="20" transform="translate(112 224)" fill="url(#paint4_linear_8325_503615)"/>
<rect width="120" height="20" transform="translate(112 268)" fill="url(#paint5_linear_8325_503615)"/>
<rect width="120" height="20" transform="translate(112 312)" fill="url(#paint6_linear_8325_503615)"/>
<mask id="path-12-inside-2_8325_503615" fill="white">
<path d="M248 80H396V124H248V80Z"/>
</mask>
<path d="M248 80H396V124H248V80Z" fill="white"/>
<rect width="92" height="20" transform="translate(264 92)" fill="url(#paint7_linear_8325_503615)"/>
<circle cx="372" cy="102" r="8" fill="#F1F1F1"/>
<path d="M248 81H396V79H248V81ZM396 123H248V125H396V123Z" fill="#C9C9C9" mask="url(#path-12-inside-2_8325_503615)"/>
<rect width="116" height="20" transform="translate(264 136)" fill="url(#paint8_linear_8325_503615)"/>
<rect width="116" height="20" transform="translate(264 180)" fill="url(#paint9_linear_8325_503615)"/>
<rect width="116" height="20" transform="translate(264 224)" fill="url(#paint10_linear_8325_503615)"/>
<rect width="116" height="20" transform="translate(264 268)" fill="url(#paint11_linear_8325_503615)"/>
<rect width="116" height="20" transform="translate(264 312)" fill="url(#paint12_linear_8325_503615)"/>
<mask id="path-15-inside-3_8325_503615" fill="white">
<path d="M396 80H549V124H396V80Z"/>
</mask>
<path d="M396 80H549V124H396V80Z" fill="white"/>
<rect width="97" height="20" transform="translate(412 92)" fill="url(#paint13_linear_8325_503615)"/>
<circle cx="525" cy="102" r="8" fill="#F1F1F1"/>
<path d="M396 81H549V79H396V81ZM549 123H396V125H549V123Z" fill="#C9C9C9" mask="url(#path-15-inside-3_8325_503615)"/>
<rect width="121" height="20" transform="translate(412 136)" fill="url(#paint14_linear_8325_503615)"/>
<rect width="121" height="20" transform="translate(412 180)" fill="url(#paint15_linear_8325_503615)"/>
<rect width="121" height="20" transform="translate(412 224)" fill="url(#paint16_linear_8325_503615)"/>
<rect width="121" height="20" transform="translate(412 268)" fill="url(#paint17_linear_8325_503615)"/>
<rect width="121" height="20" transform="translate(412 312)" fill="url(#paint18_linear_8325_503615)"/>
<mask id="path-18-inside-4_8325_503615" fill="white">
<path d="M549 80H678V124H549V80Z"/>
</mask>
<path d="M549 80H678V124H549V80Z" fill="white"/>
<rect width="73" height="20" transform="translate(565 92)" fill="url(#paint19_linear_8325_503615)"/>
<circle cx="654" cy="102" r="8" fill="#F1F1F1"/>
<path d="M549 81H678V79H549V81ZM678 123H549V125H678V123Z" fill="#C9C9C9" mask="url(#path-18-inside-4_8325_503615)"/>
<rect width="97" height="20" transform="translate(565 136)" fill="url(#paint20_linear_8325_503615)"/>
<rect width="97" height="20" transform="translate(565 180)" fill="url(#paint21_linear_8325_503615)"/>
<rect width="97" height="20" transform="translate(565 224)" fill="url(#paint22_linear_8325_503615)"/>
<rect width="97" height="20" transform="translate(565 268)" fill="url(#paint23_linear_8325_503615)"/>
<rect width="97" height="20" transform="translate(565 312)" fill="url(#paint24_linear_8325_503615)"/>
<mask id="path-21-inside-5_8325_503615" fill="white">
<path d="M678 80H864V124H678V80Z"/>
</mask>
<path d="M678 80H864V124H678V80Z" fill="white"/>
<rect width="130" height="20" transform="translate(694 92)" fill="url(#paint25_linear_8325_503615)"/>
<circle cx="840" cy="102" r="8" fill="#F1F1F1"/>
<path d="M678 81H864V79H678V81ZM864 123H678V125H864V123Z" fill="#C9C9C9" mask="url(#path-21-inside-5_8325_503615)"/>
<rect width="154" height="20" transform="translate(694 136)" fill="url(#paint26_linear_8325_503615)"/>
<rect width="154" height="20" transform="translate(694 180)" fill="url(#paint27_linear_8325_503615)"/>
<rect width="154" height="20" transform="translate(694 224)" fill="url(#paint28_linear_8325_503615)"/>
<rect width="154" height="20" transform="translate(694 268)" fill="url(#paint29_linear_8325_503615)"/>
<rect width="154" height="20" transform="translate(694 312)" fill="url(#paint30_linear_8325_503615)"/>
<rect x="23.5" y="39.5" width="857" height="327" rx="4.5" stroke="#C9C9C9"/>
<defs>
<linearGradient id="paint0_linear_8325_503615" x1="6.14907e-07" y1="9.99993" x2="139" y2="9.99993" gradientUnits="userSpaceOnUse">
<stop stop-color="#F1F1F1"/>
<stop offset="0.1875" stop-color="#F1F1F1"/>
<stop offset="0.364583" stop-color="white"/>
<stop offset="0.546875" stop-color="#F1F1F1"/>
<stop offset="0.979067" stop-color="#F1F1F1"/>
</linearGradient>
<linearGradient id="paint1_linear_8325_503615" x1="4.24684e-07" y1="9.99993" x2="96" y2="9.99993" gradientUnits="userSpaceOnUse">
<stop stop-color="#F1F1F1"/>
<stop offset="0.1875" stop-color="#F1F1F1"/>
<stop offset="0.364583" stop-color="white"/>
<stop offset="0.546875" stop-color="#F1F1F1"/>
<stop offset="0.979067" stop-color="#F1F1F1"/>
</linearGradient>
<linearGradient id="paint2_linear_8325_503615" x1="5.30855e-07" y1="9.99993" x2="120" y2="9.99993" gradientUnits="userSpaceOnUse">
<stop stop-color="#F1F1F1"/>
<stop offset="0.1875" stop-color="#F1F1F1"/>
<stop offset="0.364583" stop-color="white"/>
<stop offset="0.546875" stop-color="#F1F1F1"/>
<stop offset="0.979067" stop-color="#F1F1F1"/>
</linearGradient>
<linearGradient id="paint3_linear_8325_503615" x1="5.30855e-07" y1="9.99993" x2="120" y2="9.99993" gradientUnits="userSpaceOnUse">
<stop stop-color="#F1F1F1"/>
<stop offset="0.1875" stop-color="#F1F1F1"/>
<stop offset="0.364583" stop-color="white"/>
<stop offset="0.546875" stop-color="#F1F1F1"/>
<stop offset="0.979067" stop-color="#F1F1F1"/>
</linearGradient>
<linearGradient id="paint4_linear_8325_503615" x1="5.30855e-07" y1="9.99993" x2="120" y2="9.99993" gradientUnits="userSpaceOnUse">
<stop stop-color="#F1F1F1"/>
<stop offset="0.1875" stop-color="#F1F1F1"/>
<stop offset="0.364583" stop-color="white"/>
<stop offset="0.546875" stop-color="#F1F1F1"/>
<stop offset="0.979067" stop-color="#F1F1F1"/>
</linearGradient>
<linearGradient id="paint5_linear_8325_503615" x1="5.30855e-07" y1="9.99993" x2="120" y2="9.99993" gradientUnits="userSpaceOnUse">
<stop stop-color="#F1F1F1"/>
<stop offset="0.1875" stop-color="#F1F1F1"/>
<stop offset="0.364583" stop-color="white"/>
<stop offset="0.546875" stop-color="#F1F1F1"/>
<stop offset="0.979067" stop-color="#F1F1F1"/>
</linearGradient>
<linearGradient id="paint6_linear_8325_503615" x1="5.30855e-07" y1="9.99993" x2="120" y2="9.99993" gradientUnits="userSpaceOnUse">
<stop stop-color="#F1F1F1"/>
<stop offset="0.1875" stop-color="#F1F1F1"/>
<stop offset="0.364583" stop-color="white"/>
<stop offset="0.546875" stop-color="#F1F1F1"/>
<stop offset="0.979067" stop-color="#F1F1F1"/>
</linearGradient>
<linearGradient id="paint7_linear_8325_503615" x1="4.06989e-07" y1="9.99993" x2="92" y2="9.99993" gradientUnits="userSpaceOnUse">
<stop stop-color="#F1F1F1"/>
<stop offset="0.1875" stop-color="#F1F1F1"/>
<stop offset="0.364583" stop-color="white"/>
<stop offset="0.546875" stop-color="#F1F1F1"/>
<stop offset="0.979067" stop-color="#F1F1F1"/>
</linearGradient>
<linearGradient id="paint8_linear_8325_503615" x1="5.1316e-07" y1="9.99993" x2="116" y2="9.99993" gradientUnits="userSpaceOnUse">
<stop stop-color="#F1F1F1"/>
<stop offset="0.1875" stop-color="#F1F1F1"/>
<stop offset="0.364583" stop-color="white"/>
<stop offset="0.546875" stop-color="#F1F1F1"/>
<stop offset="0.979067" stop-color="#F1F1F1"/>
</linearGradient>
<linearGradient id="paint9_linear_8325_503615" x1="5.1316e-07" y1="9.99993" x2="116" y2="9.99993" gradientUnits="userSpaceOnUse">
<stop stop-color="#F1F1F1"/>
<stop offset="0.1875" stop-color="#F1F1F1"/>
<stop offset="0.364583" stop-color="white"/>
<stop offset="0.546875" stop-color="#F1F1F1"/>
<stop offset="0.979067" stop-color="#F1F1F1"/>
</linearGradient>
<linearGradient id="paint10_linear_8325_503615" x1="5.1316e-07" y1="9.99993" x2="116" y2="9.99993" gradientUnits="userSpaceOnUse">
<stop stop-color="#F1F1F1"/>
<stop offset="0.1875" stop-color="#F1F1F1"/>
<stop offset="0.364583" stop-color="white"/>
<stop offset="0.546875" stop-color="#F1F1F1"/>
<stop offset="0.979067" stop-color="#F1F1F1"/>
</linearGradient>
<linearGradient id="paint11_linear_8325_503615" x1="5.1316e-07" y1="9.99993" x2="116" y2="9.99993" gradientUnits="userSpaceOnUse">
<stop stop-color="#F1F1F1"/>
<stop offset="0.1875" stop-color="#F1F1F1"/>
<stop offset="0.364583" stop-color="white"/>
<stop offset="0.546875" stop-color="#F1F1F1"/>
<stop offset="0.979067" stop-color="#F1F1F1"/>
</linearGradient>
<linearGradient id="paint12_linear_8325_503615" x1="5.1316e-07" y1="9.99993" x2="116" y2="9.99993" gradientUnits="userSpaceOnUse">
<stop stop-color="#F1F1F1"/>
<stop offset="0.1875" stop-color="#F1F1F1"/>
<stop offset="0.364583" stop-color="white"/>
<stop offset="0.546875" stop-color="#F1F1F1"/>
<stop offset="0.979067" stop-color="#F1F1F1"/>
</linearGradient>
<linearGradient id="paint13_linear_8325_503615" x1="4.29108e-07" y1="9.99993" x2="97" y2="9.99993" gradientUnits="userSpaceOnUse">
<stop stop-color="#F1F1F1"/>
<stop offset="0.1875" stop-color="#F1F1F1"/>
<stop offset="0.364583" stop-color="white"/>
<stop offset="0.546875" stop-color="#F1F1F1"/>
<stop offset="0.979067" stop-color="#F1F1F1"/>
</linearGradient>
<linearGradient id="paint14_linear_8325_503615" x1="5.35279e-07" y1="9.99993" x2="121" y2="9.99993" gradientUnits="userSpaceOnUse">
<stop stop-color="#F1F1F1"/>
<stop offset="0.1875" stop-color="#F1F1F1"/>
<stop offset="0.364583" stop-color="white"/>
<stop offset="0.546875" stop-color="#F1F1F1"/>
<stop offset="0.979067" stop-color="#F1F1F1"/>
</linearGradient>
<linearGradient id="paint15_linear_8325_503615" x1="5.35279e-07" y1="9.99993" x2="121" y2="9.99993" gradientUnits="userSpaceOnUse">
<stop stop-color="#F1F1F1"/>
<stop offset="0.1875" stop-color="#F1F1F1"/>
<stop offset="0.364583" stop-color="white"/>
<stop offset="0.546875" stop-color="#F1F1F1"/>
<stop offset="0.979067" stop-color="#F1F1F1"/>
</linearGradient>
<linearGradient id="paint16_linear_8325_503615" x1="5.35279e-07" y1="9.99993" x2="121" y2="9.99993" gradientUnits="userSpaceOnUse">
<stop stop-color="#F1F1F1"/>
<stop offset="0.1875" stop-color="#F1F1F1"/>
<stop offset="0.364583" stop-color="white"/>
<stop offset="0.546875" stop-color="#F1F1F1"/>
<stop offset="0.979067" stop-color="#F1F1F1"/>
</linearGradient>
<linearGradient id="paint17_linear_8325_503615" x1="5.35279e-07" y1="9.99993" x2="121" y2="9.99993" gradientUnits="userSpaceOnUse">
<stop stop-color="#F1F1F1"/>
<stop offset="0.1875" stop-color="#F1F1F1"/>
<stop offset="0.364583" stop-color="white"/>
<stop offset="0.546875" stop-color="#F1F1F1"/>
<stop offset="0.979067" stop-color="#F1F1F1"/>
</linearGradient>
<linearGradient id="paint18_linear_8325_503615" x1="5.35279e-07" y1="9.99993" x2="121" y2="9.99993" gradientUnits="userSpaceOnUse">
<stop stop-color="#F1F1F1"/>
<stop offset="0.1875" stop-color="#F1F1F1"/>
<stop offset="0.364583" stop-color="white"/>
<stop offset="0.546875" stop-color="#F1F1F1"/>
<stop offset="0.979067" stop-color="#F1F1F1"/>
</linearGradient>
<linearGradient id="paint19_linear_8325_503615" x1="3.22937e-07" y1="9.99993" x2="73" y2="9.99993" gradientUnits="userSpaceOnUse">
<stop stop-color="#F1F1F1"/>
<stop offset="0.1875" stop-color="#F1F1F1"/>
<stop offset="0.364583" stop-color="white"/>
<stop offset="0.546875" stop-color="#F1F1F1"/>
<stop offset="0.979067" stop-color="#F1F1F1"/>
</linearGradient>
<linearGradient id="paint20_linear_8325_503615" x1="4.29108e-07" y1="9.99993" x2="97" y2="9.99993" gradientUnits="userSpaceOnUse">
<stop stop-color="#F1F1F1"/>
<stop offset="0.1875" stop-color="#F1F1F1"/>
<stop offset="0.364583" stop-color="white"/>
<stop offset="0.546875" stop-color="#F1F1F1"/>
<stop offset="0.979067" stop-color="#F1F1F1"/>
</linearGradient>
<linearGradient id="paint21_linear_8325_503615" x1="4.29108e-07" y1="9.99993" x2="97" y2="9.99993" gradientUnits="userSpaceOnUse">
<stop stop-color="#F1F1F1"/>
<stop offset="0.1875" stop-color="#F1F1F1"/>
<stop offset="0.364583" stop-color="white"/>
<stop offset="0.546875" stop-color="#F1F1F1"/>
<stop offset="0.979067" stop-color="#F1F1F1"/>
</linearGradient>
<linearGradient id="paint22_linear_8325_503615" x1="4.29108e-07" y1="9.99993" x2="97" y2="9.99993" gradientUnits="userSpaceOnUse">
<stop stop-color="#F1F1F1"/>
<stop offset="0.1875" stop-color="#F1F1F1"/>
<stop offset="0.364583" stop-color="white"/>
<stop offset="0.546875" stop-color="#F1F1F1"/>
<stop offset="0.979067" stop-color="#F1F1F1"/>
</linearGradient>
<linearGradient id="paint23_linear_8325_503615" x1="4.29108e-07" y1="9.99993" x2="97" y2="9.99993" gradientUnits="userSpaceOnUse">
<stop stop-color="#F1F1F1"/>
<stop offset="0.1875" stop-color="#F1F1F1"/>
<stop offset="0.364583" stop-color="white"/>
<stop offset="0.546875" stop-color="#F1F1F1"/>
<stop offset="0.979067" stop-color="#F1F1F1"/>
</linearGradient>
<linearGradient id="paint24_linear_8325_503615" x1="4.29108e-07" y1="9.99993" x2="97" y2="9.99993" gradientUnits="userSpaceOnUse">
<stop stop-color="#F1F1F1"/>
<stop offset="0.1875" stop-color="#F1F1F1"/>
<stop offset="0.364583" stop-color="white"/>
<stop offset="0.546875" stop-color="#F1F1F1"/>
<stop offset="0.979067" stop-color="#F1F1F1"/>
</linearGradient>
<linearGradient id="paint25_linear_8325_503615" x1="5.75093e-07" y1="9.99993" x2="130" y2="9.99993" gradientUnits="userSpaceOnUse">
<stop stop-color="#F1F1F1"/>
<stop offset="0.1875" stop-color="#F1F1F1"/>
<stop offset="0.364583" stop-color="white"/>
<stop offset="0.546875" stop-color="#F1F1F1"/>
<stop offset="0.979067" stop-color="#F1F1F1"/>
</linearGradient>
<linearGradient id="paint26_linear_8325_503615" x1="6.81264e-07" y1="9.99993" x2="154" y2="9.99994" gradientUnits="userSpaceOnUse">
<stop stop-color="#F1F1F1"/>
<stop offset="0.1875" stop-color="#F1F1F1"/>
<stop offset="0.364583" stop-color="white"/>
<stop offset="0.546875" stop-color="#F1F1F1"/>
<stop offset="0.979067" stop-color="#F1F1F1"/>
</linearGradient>
<linearGradient id="paint27_linear_8325_503615" x1="6.81264e-07" y1="9.99993" x2="154" y2="9.99994" gradientUnits="userSpaceOnUse">
<stop stop-color="#F1F1F1"/>
<stop offset="0.1875" stop-color="#F1F1F1"/>
<stop offset="0.364583" stop-color="white"/>
<stop offset="0.546875" stop-color="#F1F1F1"/>
<stop offset="0.979067" stop-color="#F1F1F1"/>
</linearGradient>
<linearGradient id="paint28_linear_8325_503615" x1="6.81264e-07" y1="9.99993" x2="154" y2="9.99994" gradientUnits="userSpaceOnUse">
<stop stop-color="#F1F1F1"/>
<stop offset="0.1875" stop-color="#F1F1F1"/>
<stop offset="0.364583" stop-color="white"/>
<stop offset="0.546875" stop-color="#F1F1F1"/>
<stop offset="0.979067" stop-color="#F1F1F1"/>
</linearGradient>
<linearGradient id="paint29_linear_8325_503615" x1="6.81264e-07" y1="9.99993" x2="154" y2="9.99994" gradientUnits="userSpaceOnUse">
<stop stop-color="#F1F1F1"/>
<stop offset="0.1875" stop-color="#F1F1F1"/>
<stop offset="0.364583" stop-color="white"/>
<stop offset="0.546875" stop-color="#F1F1F1"/>
<stop offset="0.979067" stop-color="#F1F1F1"/>
</linearGradient>
<linearGradient id="paint30_linear_8325_503615" x1="6.81264e-07" y1="9.99993" x2="154" y2="9.99994" gradientUnits="userSpaceOnUse">
<stop stop-color="#F1F1F1"/>
<stop offset="0.1875" stop-color="#F1F1F1"/>
<stop offset="0.364583" stop-color="white"/>
<stop offset="0.546875" stop-color="#F1F1F1"/>
<stop offset="0.979067" stop-color="#F1F1F1"/>
</linearGradient>
<clipPath id="clip0_8325_503615">
<rect width="56" height="44" fill="white" transform="translate(40 80)"/>
</clipPath>
</defs>
</svg>
