<svg width="904" height="406" viewBox="0 0 904 406" fill="none" xmlns="http://www.w3.org/2000/svg">
<rect width="904" height="406" fill="white"/>
<rect x="23.5" y="39.5" width="857" height="327" rx="4.5" fill="white"/>
<path d="M44.144 57.004C45.46 57.004 46.4307 57.2467 47.056 57.732C47.6907 58.2173 48.008 58.9547 48.008 59.944C48.008 60.4293 47.9147 60.8447 47.728 61.19C47.5507 61.5353 47.3127 61.8247 47.014 62.058C46.7247 62.282 46.4167 62.464 46.09 62.604L48.96 67H46.944L44.55 63.052H43.094V67H41.302V57.004H44.144ZM44.032 58.502H43.094V61.582H44.088C44.8347 61.582 45.3713 61.4513 45.698 61.19C46.0247 60.9193 46.188 60.5227 46.188 60C46.188 59.4587 46.0107 59.076 45.656 58.852C45.3107 58.6187 44.7693 58.502 44.032 58.502ZM53.2368 59.272C54.2541 59.272 55.0568 59.5753 55.6448 60.182C56.2421 60.7887 56.5408 61.6333 56.5408 62.716V63.612H51.5288C51.5474 64.3027 51.7388 64.8393 52.1028 65.222C52.4668 65.5953 52.9708 65.782 53.6148 65.782C54.1001 65.782 54.5388 65.7353 54.9308 65.642C55.3228 65.5393 55.7241 65.3947 56.1348 65.208V66.622C55.7614 66.7993 55.3741 66.93 54.9728 67.014C54.5714 67.098 54.0908 67.14 53.5308 67.14C52.7841 67.14 52.1261 67 51.5568 66.72C50.9874 66.4307 50.5394 66.0013 50.2128 65.432C49.8954 64.8533 49.7368 64.13 49.7368 63.262C49.7368 61.9647 50.0541 60.9753 50.6888 60.294C51.3328 59.6127 52.1821 59.272 53.2368 59.272ZM53.2368 60.574C52.7608 60.574 52.3734 60.728 52.0748 61.036C51.7854 61.3347 51.6174 61.7827 51.5708 62.38H54.8328C54.8234 61.8573 54.6881 61.428 54.4268 61.092C54.1748 60.7467 53.7781 60.574 53.2368 60.574ZM63.4855 64.802C63.4855 65.5673 63.2102 66.1507 62.6595 66.552C62.1182 66.944 61.3389 67.14 60.3215 67.14C59.7895 67.14 59.3322 67.1027 58.9495 67.028C58.5762 66.9533 58.2122 66.8367 57.8575 66.678V65.18C58.2309 65.3573 58.6415 65.5067 59.0895 65.628C59.5469 65.7493 59.9762 65.81 60.3775 65.81C60.8629 65.81 61.2129 65.7353 61.4275 65.586C61.6422 65.4367 61.7495 65.236 61.7495 64.984C61.7495 64.8347 61.7075 64.704 61.6235 64.592C61.5395 64.4707 61.3762 64.34 61.1335 64.2C60.8909 64.06 60.5222 63.8873 60.0275 63.682C59.5422 63.486 59.1362 63.29 58.8095 63.094C58.4922 62.898 58.2495 62.6647 58.0815 62.394C57.9229 62.1233 57.8435 61.7733 57.8435 61.344C57.8435 60.6627 58.1142 60.1493 58.6555 59.804C59.1969 59.4493 59.9109 59.272 60.7975 59.272C61.2642 59.272 61.7029 59.3187 62.1135 59.412C62.5335 59.5053 62.9535 59.6453 63.3735 59.832L62.8135 61.134C62.4589 60.9847 62.1135 60.8587 61.7775 60.756C61.4415 60.6533 61.0962 60.602 60.7415 60.602C59.9669 60.602 59.5795 60.8213 59.5795 61.26C59.5795 61.4187 59.6262 61.554 59.7195 61.666C59.8222 61.778 59.9949 61.8993 60.2375 62.03C60.4895 62.1513 60.8442 62.3007 61.3015 62.478C61.7495 62.6553 62.1369 62.842 62.4635 63.038C62.7902 63.2247 63.0422 63.458 63.2195 63.738C63.3969 64.0087 63.4855 64.3633 63.4855 64.802ZM71.9168 59.412V67H70.5308L70.2928 66.02H70.2088C69.9662 66.412 69.6302 66.6967 69.2008 66.874C68.7715 67.0513 68.3188 67.14 67.8428 67.14C66.9935 67.14 66.3262 66.9207 65.8408 66.482C65.3648 66.0433 65.1268 65.3387 65.1268 64.368V59.412H66.8908V64.018C66.8908 64.5873 67.0028 65.012 67.2268 65.292C67.4508 65.572 67.8055 65.712 68.2908 65.712C69.0002 65.712 69.4855 65.488 69.7468 65.04C70.0175 64.592 70.1528 63.9527 70.1528 63.122V59.412H71.9168ZM75.9293 67H74.1653V56.36H75.9293V67ZM81.1248 65.726C81.3394 65.726 81.5494 65.7073 81.7548 65.67C81.9694 65.6233 82.1654 65.572 82.3428 65.516V66.832C82.1561 66.9253 81.9134 67 81.6148 67.056C81.3161 67.112 81.0034 67.14 80.6768 67.14C80.2381 67.14 79.8414 67.07 79.4868 66.93C79.1414 66.79 78.8661 66.5427 78.6608 66.188C78.4554 65.8333 78.3528 65.334 78.3528 64.69V60.742H77.3308V59.972L78.4508 59.356L79.0108 57.746H80.1168V59.412H82.2728V60.742H80.1168V64.676C80.1168 65.0307 80.2101 65.2967 80.3968 65.474C80.5928 65.642 80.8354 65.726 81.1248 65.726ZM89.0383 64.802C89.0383 65.5673 88.7629 66.1507 88.2123 66.552C87.6709 66.944 86.8916 67.14 85.8743 67.14C85.3423 67.14 84.8849 67.1027 84.5023 67.028C84.1289 66.9533 83.7649 66.8367 83.4103 66.678V65.18C83.7836 65.3573 84.1943 65.5067 84.6423 65.628C85.0996 65.7493 85.5289 65.81 85.9303 65.81C86.4156 65.81 86.7656 65.7353 86.9803 65.586C87.1949 65.4367 87.3023 65.236 87.3023 64.984C87.3023 64.8347 87.2603 64.704 87.1763 64.592C87.0923 64.4707 86.9289 64.34 86.6863 64.2C86.4436 64.06 86.0749 63.8873 85.5803 63.682C85.0949 63.486 84.6889 63.29 84.3623 63.094C84.0449 62.898 83.8023 62.6647 83.6343 62.394C83.4756 62.1233 83.3963 61.7733 83.3963 61.344C83.3963 60.6627 83.6669 60.1493 84.2083 59.804C84.7496 59.4493 85.4636 59.272 86.3503 59.272C86.8169 59.272 87.2556 59.3187 87.6663 59.412C88.0863 59.5053 88.5063 59.6453 88.9263 59.832L88.3663 61.134C88.0116 60.9847 87.6663 60.8587 87.3303 60.756C86.9943 60.6533 86.6489 60.602 86.2943 60.602C85.5196 60.602 85.1323 60.8213 85.1323 61.26C85.1323 61.4187 85.1789 61.554 85.2723 61.666C85.3749 61.778 85.5476 61.8993 85.7903 62.03C86.0423 62.1513 86.3969 62.3007 86.8543 62.478C87.3023 62.6553 87.6896 62.842 88.0163 63.038C88.3429 63.2247 88.5949 63.458 88.7723 63.738C88.9496 64.0087 89.0383 64.3633 89.0383 64.802Z" fill="black"/>
<g clip-path="url(#clip0_9450_627333)">
<rect width="56" height="44" transform="translate(40 80)" fill="white"/>
<line x1="40" y1="80.5" x2="96" y2="80.5" stroke="#C9C9C9"/>
<line x1="40" y1="123.5" x2="96" y2="123.5" stroke="#C9C9C9"/>
</g>
<circle cx="68" cy="146" r="12" fill="#F1F1F1"/>
<circle cx="68" cy="190" r="12" fill="#F1F1F1"/>
<circle cx="68" cy="234" r="12" fill="#F1F1F1"/>
<circle cx="68" cy="278" r="12" fill="#F1F1F1"/>
<circle cx="68" cy="322" r="12" fill="#F1F1F1"/>
<rect width="152" height="44" transform="translate(96 80)" fill="white"/>
<path d="M117.558 98.376C116.653 98.376 115.948 98.7027 115.444 99.356C114.94 100 114.688 100.887 114.688 102.016C114.688 103.155 114.921 104.041 115.388 104.676C115.855 105.311 116.573 105.628 117.544 105.628C117.964 105.628 118.375 105.586 118.776 105.502C119.187 105.409 119.607 105.287 120.036 105.138V106.664C119.625 106.832 119.21 106.953 118.79 107.028C118.379 107.103 117.903 107.14 117.362 107.14C116.335 107.14 115.486 106.93 114.814 106.51C114.142 106.081 113.643 105.483 113.316 104.718C112.989 103.943 112.826 103.038 112.826 102.002C112.826 100.994 113.008 100.107 113.372 99.342C113.736 98.5673 114.268 97.9607 114.968 97.522C115.677 97.0833 116.541 96.864 117.558 96.864C118.062 96.864 118.557 96.92 119.042 97.032C119.537 97.144 119.999 97.3073 120.428 97.522L119.812 98.992C119.457 98.8333 119.089 98.6933 118.706 98.572C118.333 98.4413 117.95 98.376 117.558 98.376ZM128.755 99.412V107H127.369L127.131 106.02H127.047C126.804 106.412 126.468 106.697 126.039 106.874C125.609 107.051 125.157 107.14 124.681 107.14C123.831 107.14 123.164 106.921 122.679 106.482C122.203 106.043 121.965 105.339 121.965 104.368V99.412H123.729V104.018C123.729 104.587 123.841 105.012 124.065 105.292C124.289 105.572 124.643 105.712 125.129 105.712C125.838 105.712 126.323 105.488 126.585 105.04C126.855 104.592 126.991 103.953 126.991 103.122V99.412H128.755ZM136.169 104.802C136.169 105.567 135.894 106.151 135.343 106.552C134.802 106.944 134.022 107.14 133.005 107.14C132.473 107.14 132.016 107.103 131.633 107.028C131.26 106.953 130.896 106.837 130.541 106.678V105.18C130.914 105.357 131.325 105.507 131.773 105.628C132.23 105.749 132.66 105.81 133.061 105.81C133.546 105.81 133.896 105.735 134.111 105.586C134.326 105.437 134.433 105.236 134.433 104.984C134.433 104.835 134.391 104.704 134.307 104.592C134.223 104.471 134.06 104.34 133.817 104.2C133.574 104.06 133.206 103.887 132.711 103.682C132.226 103.486 131.82 103.29 131.493 103.094C131.176 102.898 130.933 102.665 130.765 102.394C130.606 102.123 130.527 101.773 130.527 101.344C130.527 100.663 130.798 100.149 131.339 99.804C131.88 99.4493 132.594 99.272 133.481 99.272C133.948 99.272 134.386 99.3187 134.797 99.412C135.217 99.5053 135.637 99.6453 136.057 99.832L135.497 101.134C135.142 100.985 134.797 100.859 134.461 100.756C134.125 100.653 133.78 100.602 133.425 100.602C132.65 100.602 132.263 100.821 132.263 101.26C132.263 101.419 132.31 101.554 132.403 101.666C132.506 101.778 132.678 101.899 132.921 102.03C133.173 102.151 133.528 102.301 133.985 102.478C134.433 102.655 134.82 102.842 135.147 103.038C135.474 103.225 135.726 103.458 135.903 103.738C136.08 104.009 136.169 104.363 136.169 104.802ZM140.806 105.726C141.021 105.726 141.231 105.707 141.436 105.67C141.651 105.623 141.847 105.572 142.024 105.516V106.832C141.838 106.925 141.595 107 141.296 107.056C140.998 107.112 140.685 107.14 140.358 107.14C139.92 107.14 139.523 107.07 139.168 106.93C138.823 106.79 138.548 106.543 138.342 106.188C138.137 105.833 138.034 105.334 138.034 104.69V100.742H137.012V99.972L138.132 99.356L138.692 97.746H139.798V99.412H141.954V100.742H139.798V104.676C139.798 105.031 139.892 105.297 140.078 105.474C140.274 105.642 140.517 105.726 140.806 105.726ZM150.33 103.192C150.33 104.452 150.003 105.427 149.35 106.118C148.697 106.799 147.81 107.14 146.69 107.14C145.999 107.14 145.383 106.986 144.842 106.678C144.301 106.37 143.876 105.922 143.568 105.334C143.26 104.746 143.106 104.032 143.106 103.192C143.106 101.932 143.428 100.966 144.072 100.294C144.725 99.6127 145.612 99.272 146.732 99.272C147.432 99.272 148.053 99.426 148.594 99.734C149.135 100.033 149.56 100.476 149.868 101.064C150.176 101.643 150.33 102.352 150.33 103.192ZM144.912 103.192C144.912 103.995 145.052 104.615 145.332 105.054C145.621 105.493 146.083 105.712 146.718 105.712C147.343 105.712 147.801 105.493 148.09 105.054C148.379 104.615 148.524 103.995 148.524 103.192C148.524 102.389 148.379 101.773 148.09 101.344C147.801 100.915 147.339 100.7 146.704 100.7C146.069 100.7 145.612 100.915 145.332 101.344C145.052 101.773 144.912 102.389 144.912 103.192ZM160.848 99.272C161.706 99.272 162.35 99.4913 162.78 99.93C163.218 100.369 163.438 101.078 163.438 102.058V107H161.674V102.394C161.674 101.265 161.244 100.7 160.386 100.7C159.77 100.7 159.331 100.901 159.07 101.302C158.808 101.703 158.678 102.287 158.678 103.052V107H156.914V102.394C156.914 101.265 156.48 100.7 155.612 100.7C154.968 100.7 154.524 100.924 154.282 101.372C154.039 101.82 153.918 102.459 153.918 103.29V107H152.154V99.412H153.512L153.764 100.406H153.862C154.095 100.014 154.412 99.7293 154.814 99.552C155.215 99.3653 155.635 99.272 156.074 99.272C156.643 99.272 157.119 99.3653 157.502 99.552C157.894 99.7387 158.192 100.037 158.398 100.448H158.538C158.771 100.037 159.098 99.7387 159.518 99.552C159.938 99.3653 160.381 99.272 160.848 99.272ZM168.7 99.272C169.717 99.272 170.52 99.5753 171.108 100.182C171.705 100.789 172.004 101.633 172.004 102.716V103.612H166.992C167.01 104.303 167.202 104.839 167.566 105.222C167.93 105.595 168.434 105.782 169.078 105.782C169.563 105.782 170.002 105.735 170.394 105.642C170.786 105.539 171.187 105.395 171.598 105.208V106.622C171.224 106.799 170.837 106.93 170.436 107.014C170.034 107.098 169.554 107.14 168.994 107.14C168.247 107.14 167.589 107 167.02 106.72C166.45 106.431 166.002 106.001 165.676 105.432C165.358 104.853 165.2 104.13 165.2 103.262C165.2 101.965 165.517 100.975 166.152 100.294C166.796 99.6127 167.645 99.272 168.7 99.272ZM168.7 100.574C168.224 100.574 167.836 100.728 167.538 101.036C167.248 101.335 167.08 101.783 167.034 102.38H170.296C170.286 101.857 170.151 101.428 169.89 101.092C169.638 100.747 169.241 100.574 168.7 100.574ZM177.758 99.272C177.88 99.272 178.015 99.2813 178.164 99.3C178.314 99.3093 178.435 99.3233 178.528 99.342L178.374 100.98C178.281 100.961 178.164 100.947 178.024 100.938C177.894 100.919 177.782 100.91 177.688 100.91C177.315 100.91 176.965 100.989 176.638 101.148C176.312 101.297 176.046 101.531 175.84 101.848C175.644 102.165 175.546 102.571 175.546 103.066V107H173.782V99.412H175.14L175.392 100.728H175.476C175.7 100.327 176.008 99.986 176.4 99.706C176.792 99.4167 177.245 99.272 177.758 99.272ZM192.238 107H190.012L185.28 99.16H185.224C185.242 99.58 185.261 100.033 185.28 100.518C185.308 100.994 185.331 101.475 185.35 101.96V107H183.74V97.004H185.952L190.669 104.788H190.712C190.702 104.415 190.684 103.985 190.656 103.5C190.637 103.015 190.623 102.543 190.614 102.086V97.004H192.238V107ZM197.697 99.272C198.677 99.272 199.419 99.4867 199.923 99.916C200.436 100.345 200.693 101.008 200.693 101.904V107H199.447L199.097 105.95H199.041C198.714 106.361 198.369 106.664 198.005 106.86C197.641 107.047 197.146 107.14 196.521 107.14C195.84 107.14 195.275 106.949 194.827 106.566C194.379 106.183 194.155 105.591 194.155 104.788C194.155 104.004 194.44 103.416 195.009 103.024C195.588 102.632 196.46 102.413 197.627 102.366L198.943 102.324V101.946C198.943 101.461 198.826 101.115 198.593 100.91C198.36 100.705 198.033 100.602 197.613 100.602C197.23 100.602 196.862 100.658 196.507 100.77C196.162 100.873 195.816 101.003 195.471 101.162L194.911 99.93C195.284 99.734 195.709 99.5753 196.185 99.454C196.67 99.3327 197.174 99.272 197.697 99.272ZM198.943 103.416L198.019 103.444C197.244 103.472 196.708 103.607 196.409 103.85C196.11 104.083 195.961 104.401 195.961 104.802C195.961 105.166 196.064 105.427 196.269 105.586C196.484 105.735 196.764 105.81 197.109 105.81C197.622 105.81 198.056 105.665 198.411 105.376C198.766 105.077 198.943 104.639 198.943 104.06V103.416ZM211.598 99.272C212.456 99.272 213.1 99.4913 213.53 99.93C213.968 100.369 214.188 101.078 214.188 102.058V107H212.424V102.394C212.424 101.265 211.994 100.7 211.136 100.7C210.52 100.7 210.081 100.901 209.82 101.302C209.558 101.703 209.428 102.287 209.428 103.052V107H207.664V102.394C207.664 101.265 207.23 100.7 206.362 100.7C205.718 100.7 205.274 100.924 205.032 101.372C204.789 101.82 204.668 102.459 204.668 103.29V107H202.904V99.412H204.262L204.514 100.406H204.612C204.845 100.014 205.162 99.7293 205.564 99.552C205.965 99.3653 206.385 99.272 206.824 99.272C207.393 99.272 207.869 99.3653 208.252 99.552C208.644 99.7387 208.942 100.037 209.148 100.448H209.288C209.521 100.037 209.848 99.7387 210.268 99.552C210.688 99.3653 211.131 99.272 211.598 99.272ZM219.45 99.272C220.467 99.272 221.27 99.5753 221.858 100.182C222.455 100.789 222.754 101.633 222.754 102.716V103.612H217.742C217.76 104.303 217.952 104.839 218.316 105.222C218.68 105.595 219.184 105.782 219.828 105.782C220.313 105.782 220.752 105.735 221.144 105.642C221.536 105.539 221.937 105.395 222.348 105.208V106.622C221.974 106.799 221.587 106.93 221.186 107.014C220.784 107.098 220.304 107.14 219.744 107.14C218.997 107.14 218.339 107 217.77 106.72C217.2 106.431 216.752 106.001 216.426 105.432C216.108 104.853 215.95 104.13 215.95 103.262C215.95 101.965 216.267 100.975 216.902 100.294C217.546 99.6127 218.395 99.272 219.45 99.272ZM219.45 100.574C218.974 100.574 218.586 100.728 218.288 101.036C217.998 101.335 217.83 101.783 217.784 102.38H221.046C221.036 101.857 220.901 101.428 220.64 101.092C220.388 100.747 219.991 100.574 219.45 100.574Z" fill="black"/>
<path d="M240.012 105.363C239.912 105.363 239.812 105.313 239.762 105.263L234.113 99.6625C233.962 99.5125 233.962 99.2625 234.113 99.1125C234.263 98.9625 234.512 98.9625 234.662 99.1125L240.012 104.463L245.312 99.1125C245.462 98.9625 245.713 98.9625 245.863 99.1125C246.012 99.2625 246.012 99.5125 245.863 99.6625L240.262 105.263C240.162 105.313 240.112 105.363 240.012 105.363Z" fill="#323232"/>
<line x1="96" y1="80.5" x2="248" y2="80.5" stroke="#C9C9C9"/>
<line x1="96" y1="123.5" x2="248" y2="123.5" stroke="#C9C9C9"/>
<rect width="120" height="20" transform="translate(112 136)" fill="url(#paint0_linear_9450_627333)"/>
<rect width="120" height="20" transform="translate(112 180)" fill="url(#paint1_linear_9450_627333)"/>
<rect width="120" height="20" transform="translate(112 224)" fill="url(#paint2_linear_9450_627333)"/>
<rect width="120" height="20" transform="translate(112 268)" fill="url(#paint3_linear_9450_627333)"/>
<rect width="120" height="20" transform="translate(112 312)" fill="url(#paint4_linear_9450_627333)"/>
<rect width="152" height="44" transform="translate(248 80)" fill="white"/>
<path d="M270.986 107H265.302V97.004H270.986V98.502H267.094V101.05H270.734V102.548H267.094V105.488H270.986V107ZM281.635 99.272C282.493 99.272 283.137 99.4913 283.567 99.93C284.005 100.369 284.225 101.078 284.225 102.058V107H282.461V102.394C282.461 101.265 282.031 100.7 281.173 100.7C280.557 100.7 280.118 100.901 279.857 101.302C279.595 101.703 279.465 102.287 279.465 103.052V107H277.701V102.394C277.701 101.265 277.267 100.7 276.399 100.7C275.755 100.7 275.311 100.924 275.069 101.372C274.826 101.82 274.705 102.459 274.705 103.29V107H272.941V99.412H274.299L274.551 100.406H274.649C274.882 100.014 275.199 99.7293 275.601 99.552C276.002 99.3653 276.422 99.272 276.861 99.272C277.43 99.272 277.906 99.3653 278.289 99.552C278.681 99.7387 278.979 100.037 279.185 100.448H279.325C279.558 100.037 279.885 99.7387 280.305 99.552C280.725 99.3653 281.168 99.272 281.635 99.272ZM289.459 99.272C290.439 99.272 291.181 99.4867 291.685 99.916C292.198 100.345 292.455 101.008 292.455 101.904V107H291.209L290.859 105.95H290.803C290.476 106.361 290.131 106.664 289.767 106.86C289.403 107.047 288.908 107.14 288.283 107.14C287.601 107.14 287.037 106.949 286.589 106.566C286.141 106.183 285.917 105.591 285.917 104.788C285.917 104.004 286.201 103.416 286.771 103.024C287.349 102.632 288.222 102.413 289.389 102.366L290.705 102.324V101.946C290.705 101.461 290.588 101.115 290.355 100.91C290.121 100.705 289.795 100.602 289.375 100.602C288.992 100.602 288.623 100.658 288.269 100.77C287.923 100.873 287.578 101.003 287.233 101.162L286.673 99.93C287.046 99.734 287.471 99.5753 287.947 99.454C288.432 99.3327 288.936 99.272 289.459 99.272ZM290.705 103.416L289.781 103.444C289.006 103.472 288.469 103.607 288.171 103.85C287.872 104.083 287.723 104.401 287.723 104.802C287.723 105.166 287.825 105.427 288.031 105.586C288.245 105.735 288.525 105.81 288.871 105.81C289.384 105.81 289.818 105.665 290.173 105.376C290.527 105.077 290.705 104.639 290.705 104.06V103.416ZM295.547 96.486C295.809 96.486 296.037 96.556 296.233 96.696C296.429 96.8267 296.527 97.0647 296.527 97.41C296.527 97.7553 296.429 97.998 296.233 98.138C296.037 98.278 295.809 98.348 295.547 98.348C295.277 98.348 295.043 98.278 294.847 98.138C294.661 97.998 294.567 97.7553 294.567 97.41C294.567 97.0647 294.661 96.8267 294.847 96.696C295.043 96.556 295.277 96.486 295.547 96.486ZM296.429 99.412V107H294.665V99.412H296.429ZM300.449 107H298.685V96.36H300.449V107ZM312.683 107L311.773 104.354H308.007L307.111 107H305.207L308.875 96.962H310.919L314.587 107H312.683ZM311.311 102.814L310.443 100.238C310.406 100.117 310.35 99.944 310.275 99.72C310.2 99.4867 310.13 99.2533 310.065 99.02C310 98.7773 309.944 98.5767 309.897 98.418C309.85 98.614 309.79 98.8333 309.715 99.076C309.65 99.3187 309.584 99.5473 309.519 99.762C309.463 99.9767 309.416 100.135 309.379 100.238L308.497 102.814H311.311ZM318.24 107.14C317.362 107.14 316.648 106.813 316.098 106.16C315.556 105.497 315.286 104.517 315.286 103.22C315.286 101.913 315.561 100.929 316.112 100.266C316.662 99.6033 317.386 99.272 318.282 99.272C318.842 99.272 319.299 99.3793 319.654 99.594C320.018 99.8087 320.307 100.07 320.522 100.378H320.606C320.578 100.247 320.55 100.051 320.522 99.79C320.494 99.5193 320.48 99.2627 320.48 99.02V96.36H322.244V107H320.872L320.55 106.006H320.48C320.265 106.323 319.98 106.594 319.626 106.818C319.271 107.033 318.809 107.14 318.24 107.14ZM318.772 105.712C319.425 105.712 319.882 105.525 320.144 105.152C320.414 104.779 320.554 104.214 320.564 103.458V103.234C320.564 102.422 320.433 101.801 320.172 101.372C319.92 100.933 319.444 100.714 318.744 100.714C318.202 100.714 317.787 100.938 317.498 101.386C317.218 101.825 317.078 102.445 317.078 103.248C317.078 104.051 317.222 104.662 317.512 105.082C317.801 105.502 318.221 105.712 318.772 105.712ZM327.003 107.14C326.126 107.14 325.412 106.813 324.861 106.16C324.32 105.497 324.049 104.517 324.049 103.22C324.049 101.913 324.325 100.929 324.875 100.266C325.426 99.6033 326.149 99.272 327.045 99.272C327.605 99.272 328.063 99.3793 328.417 99.594C328.781 99.8087 329.071 100.07 329.285 100.378H329.369C329.341 100.247 329.313 100.051 329.285 99.79C329.257 99.5193 329.243 99.2627 329.243 99.02V96.36H331.007V107H329.635L329.313 106.006H329.243C329.029 106.323 328.744 106.594 328.389 106.818C328.035 107.033 327.573 107.14 327.003 107.14ZM327.535 105.712C328.189 105.712 328.646 105.525 328.907 105.152C329.178 104.779 329.318 104.214 329.327 103.458V103.234C329.327 102.422 329.197 101.801 328.935 101.372C328.683 100.933 328.207 100.714 327.507 100.714C326.966 100.714 326.551 100.938 326.261 101.386C325.981 101.825 325.841 102.445 325.841 103.248C325.841 104.051 325.986 104.662 326.275 105.082C326.565 105.502 326.985 105.712 327.535 105.712ZM337.237 99.272C337.358 99.272 337.494 99.2813 337.643 99.3C337.792 99.3093 337.914 99.3233 338.007 99.342L337.853 100.98C337.76 100.961 337.643 100.947 337.503 100.938C337.372 100.919 337.26 100.91 337.167 100.91C336.794 100.91 336.444 100.989 336.117 101.148C335.79 101.297 335.524 101.531 335.319 101.848C335.123 102.165 335.025 102.571 335.025 103.066V107H333.261V99.412H334.619L334.871 100.728H334.955C335.179 100.327 335.487 99.986 335.879 99.706C336.271 99.4167 336.724 99.272 337.237 99.272ZM342.192 99.272C343.209 99.272 344.012 99.5753 344.6 100.182C345.197 100.789 345.496 101.633 345.496 102.716V103.612H340.484C340.503 104.303 340.694 104.839 341.058 105.222C341.422 105.595 341.926 105.782 342.57 105.782C343.055 105.782 343.494 105.735 343.886 105.642C344.278 105.539 344.679 105.395 345.09 105.208V106.622C344.717 106.799 344.329 106.93 343.928 107.014C343.527 107.098 343.046 107.14 342.486 107.14C341.739 107.14 341.081 107 340.512 106.72C339.943 106.431 339.495 106.001 339.168 105.432C338.851 104.853 338.692 104.13 338.692 103.262C338.692 101.965 339.009 100.975 339.644 100.294C340.288 99.6127 341.137 99.272 342.192 99.272ZM342.192 100.574C341.716 100.574 341.329 100.728 341.03 101.036C340.741 101.335 340.573 101.783 340.526 102.38H343.788C343.779 101.857 343.643 101.428 343.382 101.092C343.13 100.747 342.733 100.574 342.192 100.574ZM352.441 104.802C352.441 105.567 352.165 106.151 351.615 106.552C351.073 106.944 350.294 107.14 349.277 107.14C348.745 107.14 348.287 107.103 347.905 107.028C347.531 106.953 347.167 106.837 346.813 106.678V105.18C347.186 105.357 347.597 105.507 348.045 105.628C348.502 105.749 348.931 105.81 349.333 105.81C349.818 105.81 350.168 105.735 350.383 105.586C350.597 105.437 350.705 105.236 350.705 104.984C350.705 104.835 350.663 104.704 350.579 104.592C350.495 104.471 350.331 104.34 350.089 104.2C349.846 104.06 349.477 103.887 348.983 103.682C348.497 103.486 348.091 103.29 347.765 103.094C347.447 102.898 347.205 102.665 347.037 102.394C346.878 102.123 346.799 101.773 346.799 101.344C346.799 100.663 347.069 100.149 347.611 99.804C348.152 99.4493 348.866 99.272 349.753 99.272C350.219 99.272 350.658 99.3187 351.069 99.412C351.489 99.5053 351.909 99.6453 352.329 99.832L351.769 101.134C351.414 100.985 351.069 100.859 350.733 100.756C350.397 100.653 350.051 100.602 349.697 100.602C348.922 100.602 348.535 100.821 348.535 101.26C348.535 101.419 348.581 101.554 348.675 101.666C348.777 101.778 348.95 101.899 349.193 102.03C349.445 102.151 349.799 102.301 350.257 102.478C350.705 102.655 351.092 102.842 351.419 103.038C351.745 103.225 351.997 103.458 352.175 103.738C352.352 104.009 352.441 104.363 352.441 104.802ZM359.304 104.802C359.304 105.567 359.029 106.151 358.478 106.552C357.937 106.944 357.157 107.14 356.14 107.14C355.608 107.14 355.151 107.103 354.768 107.028C354.395 106.953 354.031 106.837 353.676 106.678V105.18C354.049 105.357 354.46 105.507 354.908 105.628C355.365 105.749 355.795 105.81 356.196 105.81C356.681 105.81 357.031 105.735 357.246 105.586C357.461 105.437 357.568 105.236 357.568 104.984C357.568 104.835 357.526 104.704 357.442 104.592C357.358 104.471 357.195 104.34 356.952 104.2C356.709 104.06 356.341 103.887 355.846 103.682C355.361 103.486 354.955 103.29 354.628 103.094C354.311 102.898 354.068 102.665 353.9 102.394C353.741 102.123 353.662 101.773 353.662 101.344C353.662 100.663 353.933 100.149 354.474 99.804C355.015 99.4493 355.729 99.272 356.616 99.272C357.083 99.272 357.521 99.3187 357.932 99.412C358.352 99.5053 358.772 99.6453 359.192 99.832L358.632 101.134C358.277 100.985 357.932 100.859 357.596 100.756C357.26 100.653 356.915 100.602 356.56 100.602C355.785 100.602 355.398 100.821 355.398 101.26C355.398 101.419 355.445 101.554 355.538 101.666C355.641 101.778 355.813 101.899 356.056 102.03C356.308 102.151 356.663 102.301 357.12 102.478C357.568 102.655 357.955 102.842 358.282 103.038C358.609 103.225 358.861 103.458 359.038 103.738C359.215 104.009 359.304 104.363 359.304 104.802Z" fill="black"/>
<path d="M376.012 105.363C375.912 105.363 375.812 105.313 375.762 105.263L370.113 99.6625C369.962 99.5125 369.962 99.2625 370.113 99.1125C370.263 98.9625 370.512 98.9625 370.662 99.1125L376.012 104.463L381.312 99.1125C381.462 98.9625 381.713 98.9625 381.863 99.1125C382.012 99.2625 382.012 99.5125 381.863 99.6625L376.262 105.263C376.162 105.313 376.112 105.363 376.012 105.363Z" fill="#323232"/>
<line x1="248" y1="80.5" x2="400" y2="80.5" stroke="#C9C9C9"/>
<line x1="248" y1="123.5" x2="400" y2="123.5" stroke="#C9C9C9"/>
<rect width="120" height="20" transform="translate(264 136)" fill="url(#paint5_linear_9450_627333)"/>
<rect width="120" height="20" transform="translate(264 180)" fill="url(#paint6_linear_9450_627333)"/>
<rect width="120" height="20" transform="translate(264 224)" fill="url(#paint7_linear_9450_627333)"/>
<rect width="120" height="20" transform="translate(264 268)" fill="url(#paint8_linear_9450_627333)"/>
<rect width="120" height="20" transform="translate(264 312)" fill="url(#paint9_linear_9450_627333)"/>
<rect width="152" height="44" transform="translate(400 80)" fill="white"/>
<path d="M423.476 107L422.566 104.354H418.8L417.904 107H416L419.668 96.962H421.712L425.38 107H423.476ZM422.104 102.814L421.236 100.238C421.199 100.117 421.143 99.944 421.068 99.72C420.993 99.4867 420.923 99.2533 420.858 99.02C420.793 98.7773 420.737 98.5767 420.69 98.418C420.643 98.614 420.583 98.8333 420.508 99.076C420.443 99.3187 420.377 99.5473 420.312 99.762C420.256 99.9767 420.209 100.135 420.172 100.238L419.29 102.814H422.104ZM429.075 99.272C430.055 99.272 430.806 99.6453 431.329 100.392H431.399L431.567 99.412H433.037V107.056C433.037 108.139 432.733 108.96 432.127 109.52C431.52 110.08 430.605 110.36 429.383 110.36C428.841 110.36 428.342 110.323 427.885 110.248C427.427 110.183 426.993 110.066 426.583 109.898V108.442C427.012 108.629 427.469 108.773 427.955 108.876C428.449 108.979 428.963 109.03 429.495 109.03C430.064 109.03 430.503 108.867 430.811 108.54C431.119 108.223 431.273 107.756 431.273 107.14V106.944C431.273 106.804 431.277 106.641 431.287 106.454C431.296 106.267 431.31 106.118 431.329 106.006H431.273C431.011 106.398 430.689 106.687 430.307 106.874C429.933 107.051 429.509 107.14 429.033 107.14C428.109 107.14 427.385 106.795 426.863 106.104C426.34 105.413 426.079 104.452 426.079 103.22C426.079 101.988 426.34 101.022 426.863 100.322C427.395 99.622 428.132 99.272 429.075 99.272ZM429.537 100.714C428.435 100.714 427.885 101.559 427.885 103.248C427.885 104.909 428.445 105.74 429.565 105.74C430.181 105.74 430.633 105.572 430.923 105.236C431.221 104.891 431.371 104.312 431.371 103.5V103.234C431.371 102.338 431.221 101.694 430.923 101.302C430.633 100.91 430.171 100.714 429.537 100.714ZM438.342 99.272C439.36 99.272 440.162 99.5753 440.75 100.182C441.348 100.789 441.646 101.633 441.646 102.716V103.612H436.634C436.653 104.303 436.844 104.839 437.208 105.222C437.572 105.595 438.076 105.782 438.72 105.782C439.206 105.782 439.644 105.735 440.036 105.642C440.428 105.539 440.83 105.395 441.24 105.208V106.622C440.867 106.799 440.48 106.93 440.078 107.014C439.677 107.098 439.196 107.14 438.636 107.14C437.89 107.14 437.232 107 436.662 106.72C436.093 106.431 435.645 106.001 435.318 105.432C435.001 104.853 434.842 104.13 434.842 103.262C434.842 101.965 435.16 100.975 435.794 100.294C436.438 99.6127 437.288 99.272 438.342 99.272ZM438.342 100.574C437.866 100.574 437.479 100.728 437.18 101.036C436.891 101.335 436.723 101.783 436.676 102.38H439.938C439.929 101.857 439.794 101.428 439.532 101.092C439.28 100.747 438.884 100.574 438.342 100.574ZM447.485 99.272C448.334 99.272 448.997 99.4913 449.473 99.93C449.958 100.369 450.201 101.078 450.201 102.058V107H448.437V102.408C448.437 101.839 448.325 101.414 448.101 101.134C447.877 100.845 447.522 100.7 447.037 100.7C446.328 100.7 445.842 100.924 445.581 101.372C445.32 101.82 445.189 102.459 445.189 103.29V107H443.425V99.412H444.783L445.035 100.406H445.133C445.376 100.014 445.707 99.7293 446.127 99.552C446.556 99.3653 447.009 99.272 447.485 99.272ZM455.347 105.726C455.562 105.726 455.772 105.707 455.977 105.67C456.192 105.623 456.388 105.572 456.565 105.516V106.832C456.379 106.925 456.136 107 455.837 107.056C455.539 107.112 455.226 107.14 454.899 107.14C454.461 107.14 454.064 107.07 453.709 106.93C453.364 106.79 453.089 106.543 452.883 106.188C452.678 105.833 452.575 105.334 452.575 104.69V100.742H451.553V99.972L452.673 99.356L453.233 97.746H454.339V99.412H456.495V100.742H454.339V104.676C454.339 105.031 454.433 105.297 454.619 105.474C454.815 105.642 455.058 105.726 455.347 105.726Z" fill="black"/>
<path d="M473.012 105.363C472.912 105.363 472.812 105.313 472.762 105.263L467.113 99.6625C466.962 99.5125 466.962 99.2625 467.113 99.1125C467.263 98.9625 467.512 98.9625 467.662 99.1125L473.012 104.463L478.312 99.1125C478.462 98.9625 478.713 98.9625 478.863 99.1125C479.012 99.2625 479.012 99.5125 478.863 99.6625L473.262 105.263C473.162 105.313 473.112 105.363 473.012 105.363Z" fill="#323232"/>
<line x1="400" y1="80.5" x2="552" y2="80.5" stroke="#C9C9C9"/>
<line x1="400" y1="123.5" x2="552" y2="123.5" stroke="#C9C9C9"/>
<rect width="120" height="20" transform="translate(416 136)" fill="url(#paint10_linear_9450_627333)"/>
<rect width="120" height="20" transform="translate(416 180)" fill="url(#paint11_linear_9450_627333)"/>
<rect width="120" height="20" transform="translate(416 224)" fill="url(#paint12_linear_9450_627333)"/>
<rect width="120" height="20" transform="translate(416 268)" fill="url(#paint13_linear_9450_627333)"/>
<rect width="120" height="20" transform="translate(416 312)" fill="url(#paint14_linear_9450_627333)"/>
<rect width="152" height="44" transform="translate(552 80)" fill="white"/>
<path d="M577.478 101.904C577.478 103.593 577.007 104.867 576.064 105.726C575.121 106.575 573.805 107 572.116 107H569.302V97.004H572.41C573.446 97.004 574.342 97.1907 575.098 97.564C575.854 97.9373 576.437 98.488 576.848 99.216C577.268 99.944 577.478 100.84 577.478 101.904ZM575.602 101.96C575.602 100.765 575.327 99.888 574.776 99.328C574.225 98.768 573.437 98.488 572.41 98.488H571.094V105.502H572.172C574.459 105.502 575.602 104.321 575.602 101.96ZM582.467 99.272C583.447 99.272 584.189 99.4867 584.693 99.916C585.206 100.345 585.463 101.008 585.463 101.904V107H584.217L583.867 105.95H583.811C583.484 106.361 583.139 106.664 582.775 106.86C582.411 107.047 581.916 107.14 581.291 107.14C580.609 107.14 580.045 106.949 579.597 106.566C579.149 106.183 578.925 105.591 578.925 104.788C578.925 104.004 579.209 103.416 579.779 103.024C580.357 102.632 581.23 102.413 582.397 102.366L583.713 102.324V101.946C583.713 101.461 583.596 101.115 583.363 100.91C583.129 100.705 582.803 100.602 582.383 100.602C582 100.602 581.631 100.658 581.277 100.77C580.931 100.873 580.586 101.003 580.241 101.162L579.681 99.93C580.054 99.734 580.479 99.5753 580.955 99.454C581.44 99.3327 581.944 99.272 582.467 99.272ZM583.713 103.416L582.789 103.444C582.014 103.472 581.477 103.607 581.179 103.85C580.88 104.083 580.731 104.401 580.731 104.802C580.731 105.166 580.833 105.427 581.039 105.586C581.253 105.735 581.533 105.81 581.879 105.81C582.392 105.81 582.826 105.665 583.181 105.376C583.535 105.077 583.713 104.639 583.713 104.06V103.416ZM590.613 105.726C590.828 105.726 591.038 105.707 591.243 105.67C591.458 105.623 591.654 105.572 591.831 105.516V106.832C591.644 106.925 591.402 107 591.103 107.056C590.804 107.112 590.492 107.14 590.165 107.14C589.726 107.14 589.33 107.07 588.975 106.93C588.63 106.79 588.354 106.543 588.149 106.188C587.944 105.833 587.841 105.334 587.841 104.69V100.742H586.819V99.972L587.939 99.356L588.499 97.746H589.605V99.412H591.761V100.742H589.605V104.676C589.605 105.031 589.698 105.297 589.885 105.474C590.081 105.642 590.324 105.726 590.613 105.726ZM596.413 99.272C597.43 99.272 598.233 99.5753 598.821 100.182C599.418 100.789 599.717 101.633 599.717 102.716V103.612H594.705C594.723 104.303 594.915 104.839 595.279 105.222C595.643 105.595 596.147 105.782 596.791 105.782C597.276 105.782 597.715 105.735 598.107 105.642C598.499 105.539 598.9 105.395 599.311 105.208V106.622C598.937 106.799 598.55 106.93 598.149 107.014C597.747 107.098 597.267 107.14 596.707 107.14C595.96 107.14 595.302 107 594.733 106.72C594.163 106.431 593.715 106.001 593.389 105.432C593.071 104.853 592.913 104.13 592.913 103.262C592.913 101.965 593.23 100.975 593.865 100.294C594.509 99.6127 595.358 99.272 596.413 99.272ZM596.413 100.574C595.937 100.574 595.549 100.728 595.251 101.036C594.961 101.335 594.793 101.783 594.747 102.38H598.009C597.999 101.857 597.864 101.428 597.603 101.092C597.351 100.747 596.954 100.574 596.413 100.574Z" fill="black"/>
<path d="M617.012 105.363C616.912 105.363 616.812 105.313 616.762 105.263L611.113 99.6625C610.962 99.5125 610.962 99.2625 611.113 99.1125C611.263 98.9625 611.512 98.9625 611.662 99.1125L617.012 104.463L622.312 99.1125C622.462 98.9625 622.713 98.9625 622.863 99.1125C623.012 99.2625 623.012 99.5125 622.863 99.6625L617.262 105.263C617.162 105.313 617.112 105.363 617.012 105.363Z" fill="#323232"/>
<line x1="552" y1="80.5" x2="704" y2="80.5" stroke="#C9C9C9"/>
<line x1="552" y1="123.5" x2="704" y2="123.5" stroke="#C9C9C9"/>
<rect width="120" height="20" transform="translate(568 136)" fill="url(#paint15_linear_9450_627333)"/>
<rect width="120" height="20" transform="translate(568 180)" fill="url(#paint16_linear_9450_627333)"/>
<rect width="120" height="20" transform="translate(568 224)" fill="url(#paint17_linear_9450_627333)"/>
<rect width="120" height="20" transform="translate(568 268)" fill="url(#paint18_linear_9450_627333)"/>
<rect width="120" height="20" transform="translate(568 312)" fill="url(#paint19_linear_9450_627333)"/>
<rect width="152" height="44" transform="translate(704 80)" fill="white"/>
<path d="M724.284 97.004C725.581 97.004 726.524 97.2747 727.112 97.816C727.709 98.348 728.008 99.0947 728.008 100.056C728.008 100.625 727.887 101.157 727.644 101.652C727.401 102.147 726.991 102.548 726.412 102.856C725.843 103.164 725.068 103.318 724.088 103.318H723.094V107H721.302V97.004H724.284ZM724.172 98.488H723.094V101.834H723.906C724.634 101.834 725.194 101.703 725.586 101.442C725.987 101.171 726.188 100.733 726.188 100.126C726.188 99.5753 726.025 99.1647 725.698 98.894C725.371 98.6233 724.863 98.488 724.172 98.488ZM733.778 99.272C733.899 99.272 734.035 99.2813 734.184 99.3C734.333 99.3093 734.455 99.3233 734.548 99.342L734.394 100.98C734.301 100.961 734.184 100.947 734.044 100.938C733.913 100.919 733.801 100.91 733.708 100.91C733.335 100.91 732.985 100.989 732.658 101.148C732.331 101.297 732.065 101.531 731.86 101.848C731.664 102.165 731.566 102.571 731.566 103.066V107H729.802V99.412H731.16L731.412 100.728H731.496C731.72 100.327 732.028 99.986 732.42 99.706C732.812 99.4167 733.265 99.272 733.778 99.272ZM742.457 103.192C742.457 104.452 742.13 105.427 741.477 106.118C740.824 106.799 739.937 107.14 738.817 107.14C738.126 107.14 737.51 106.986 736.969 106.678C736.428 106.37 736.003 105.922 735.695 105.334C735.387 104.746 735.233 104.032 735.233 103.192C735.233 101.932 735.555 100.966 736.199 100.294C736.852 99.6127 737.739 99.272 738.859 99.272C739.559 99.272 740.18 99.426 740.721 99.734C741.262 100.033 741.687 100.476 741.995 101.064C742.303 101.643 742.457 102.352 742.457 103.192ZM737.039 103.192C737.039 103.995 737.179 104.615 737.459 105.054C737.748 105.493 738.21 105.712 738.845 105.712C739.47 105.712 739.928 105.493 740.217 105.054C740.506 104.615 740.651 103.995 740.651 103.192C740.651 102.389 740.506 101.773 740.217 101.344C739.928 100.915 739.466 100.7 738.831 100.7C738.196 100.7 737.739 100.915 737.459 101.344C737.179 101.773 737.039 102.389 737.039 103.192ZM746.786 107.14C745.909 107.14 745.195 106.813 744.644 106.16C744.103 105.497 743.832 104.517 743.832 103.22C743.832 101.913 744.108 100.929 744.658 100.266C745.209 99.6033 745.932 99.272 746.828 99.272C747.388 99.272 747.846 99.3793 748.2 99.594C748.564 99.8087 748.854 100.07 749.068 100.378H749.152C749.124 100.247 749.096 100.051 749.068 99.79C749.04 99.5193 749.026 99.2627 749.026 99.02V96.36H750.79V107H749.418L749.096 106.006H749.026C748.812 106.323 748.527 106.594 748.172 106.818C747.818 107.033 747.356 107.14 746.786 107.14ZM747.318 105.712C747.972 105.712 748.429 105.525 748.69 105.152C748.961 104.779 749.101 104.214 749.11 103.458V103.234C749.11 102.422 748.98 101.801 748.718 101.372C748.466 100.933 747.99 100.714 747.29 100.714C746.749 100.714 746.334 100.938 746.044 101.386C745.764 101.825 745.624 102.445 745.624 103.248C745.624 104.051 745.769 104.662 746.058 105.082C746.348 105.502 746.768 105.712 747.318 105.712ZM759.778 99.412V107H758.392L758.154 106.02H758.07C757.827 106.412 757.491 106.697 757.062 106.874C756.633 107.051 756.18 107.14 755.704 107.14C754.855 107.14 754.187 106.921 753.702 106.482C753.226 106.043 752.988 105.339 752.988 104.368V99.412H754.752V104.018C754.752 104.587 754.864 105.012 755.088 105.292C755.312 105.572 755.667 105.712 756.152 105.712C756.861 105.712 757.347 105.488 757.608 105.04C757.879 104.592 758.014 103.953 758.014 103.122V99.412H759.778ZM765.093 107.14C764.01 107.14 763.151 106.827 762.517 106.202C761.891 105.577 761.579 104.592 761.579 103.248C761.579 102.315 761.733 101.559 762.041 100.98C762.358 100.392 762.792 99.9627 763.343 99.692C763.893 99.412 764.523 99.272 765.233 99.272C765.699 99.272 766.119 99.3187 766.493 99.412C766.875 99.5053 767.197 99.6173 767.459 99.748L766.941 101.134C766.642 101.022 766.348 100.929 766.059 100.854C765.769 100.77 765.494 100.728 765.233 100.728C764.001 100.728 763.385 101.563 763.385 103.234C763.385 104.046 763.539 104.657 763.847 105.068C764.164 105.479 764.617 105.684 765.205 105.684C765.625 105.684 765.998 105.633 766.325 105.53C766.661 105.427 766.973 105.287 767.263 105.11V106.636C766.973 106.813 766.661 106.939 766.325 107.014C765.989 107.098 765.578 107.14 765.093 107.14ZM771.98 105.726C772.195 105.726 772.405 105.707 772.61 105.67C772.825 105.623 773.021 105.572 773.198 105.516V106.832C773.012 106.925 772.769 107 772.47 107.056C772.172 107.112 771.859 107.14 771.532 107.14C771.094 107.14 770.697 107.07 770.342 106.93C769.997 106.79 769.722 106.543 769.516 106.188C769.311 105.833 769.208 105.334 769.208 104.69V100.742H768.186V99.972L769.306 99.356L769.866 97.746H770.972V99.412H773.128V100.742H770.972V104.676C770.972 105.031 771.066 105.297 771.252 105.474C771.448 105.642 771.691 105.726 771.98 105.726ZM779.894 104.802C779.894 105.567 779.618 106.151 779.068 106.552C778.526 106.944 777.747 107.14 776.73 107.14C776.198 107.14 775.74 107.103 775.358 107.028C774.984 106.953 774.62 106.837 774.266 106.678V105.18C774.639 105.357 775.05 105.507 775.498 105.628C775.955 105.749 776.384 105.81 776.786 105.81C777.271 105.81 777.621 105.735 777.836 105.586C778.05 105.437 778.158 105.236 778.158 104.984C778.158 104.835 778.116 104.704 778.032 104.592C777.948 104.471 777.784 104.34 777.542 104.2C777.299 104.06 776.93 103.887 776.436 103.682C775.95 103.486 775.544 103.29 775.218 103.094C774.9 102.898 774.658 102.665 774.49 102.394C774.331 102.123 774.252 101.773 774.252 101.344C774.252 100.663 774.522 100.149 775.064 99.804C775.605 99.4493 776.319 99.272 777.206 99.272C777.672 99.272 778.111 99.3187 778.522 99.412C778.942 99.5053 779.362 99.6453 779.782 99.832L779.222 101.134C778.867 100.985 778.522 100.859 778.186 100.756C777.85 100.653 777.504 100.602 777.15 100.602C776.375 100.602 775.988 100.821 775.988 101.26C775.988 101.419 776.034 101.554 776.128 101.666C776.23 101.778 776.403 101.899 776.646 102.03C776.898 102.151 777.252 102.301 777.71 102.478C778.158 102.655 778.545 102.842 778.872 103.038C779.198 103.225 779.45 103.458 779.628 103.738C779.805 104.009 779.894 104.363 779.894 104.802Z" fill="black"/>
<path d="M797.012 105.363C796.912 105.363 796.812 105.313 796.762 105.263L791.113 99.6625C790.962 99.5125 790.962 99.2625 791.113 99.1125C791.263 98.9625 791.512 98.9625 791.662 99.1125L797.012 104.463L802.312 99.1125C802.462 98.9625 802.713 98.9625 802.863 99.1125C803.012 99.2625 803.012 99.5125 802.863 99.6625L797.262 105.263C797.162 105.313 797.112 105.363 797.012 105.363Z" fill="#323232"/>
<line x1="704" y1="80.5" x2="856" y2="80.5" stroke="#C9C9C9"/>
<line x1="704" y1="123.5" x2="856" y2="123.5" stroke="#C9C9C9"/>
<rect width="120" height="20" transform="translate(720 136)" fill="url(#paint20_linear_9450_627333)"/>
<rect width="120" height="20" transform="translate(720 180)" fill="url(#paint21_linear_9450_627333)"/>
<rect width="120" height="20" transform="translate(720 224)" fill="url(#paint22_linear_9450_627333)"/>
<rect width="120" height="20" transform="translate(720 268)" fill="url(#paint23_linear_9450_627333)"/>
<rect width="120" height="20" transform="translate(720 312)" fill="url(#paint24_linear_9450_627333)"/>
<rect x="23.5" y="39.5" width="857" height="327" rx="4.5" stroke="#C9C9C9"/>
<defs>
<linearGradient id="paint0_linear_9450_627333" x1="5.30855e-07" y1="9.99993" x2="120" y2="9.99993" gradientUnits="userSpaceOnUse">
<stop stop-color="#F1F1F1"/>
<stop offset="0.1875" stop-color="#F1F1F1"/>
<stop offset="0.364583" stop-color="white"/>
<stop offset="0.546875" stop-color="#F1F1F1"/>
<stop offset="0.979067" stop-color="#F1F1F1"/>
</linearGradient>
<linearGradient id="paint1_linear_9450_627333" x1="5.30855e-07" y1="9.99993" x2="120" y2="9.99993" gradientUnits="userSpaceOnUse">
<stop stop-color="#F1F1F1"/>
<stop offset="0.1875" stop-color="#F1F1F1"/>
<stop offset="0.364583" stop-color="white"/>
<stop offset="0.546875" stop-color="#F1F1F1"/>
<stop offset="0.979067" stop-color="#F1F1F1"/>
</linearGradient>
<linearGradient id="paint2_linear_9450_627333" x1="5.30855e-07" y1="9.99993" x2="120" y2="9.99993" gradientUnits="userSpaceOnUse">
<stop stop-color="#F1F1F1"/>
<stop offset="0.1875" stop-color="#F1F1F1"/>
<stop offset="0.364583" stop-color="white"/>
<stop offset="0.546875" stop-color="#F1F1F1"/>
<stop offset="0.979067" stop-color="#F1F1F1"/>
</linearGradient>
<linearGradient id="paint3_linear_9450_627333" x1="5.30855e-07" y1="9.99993" x2="120" y2="9.99993" gradientUnits="userSpaceOnUse">
<stop stop-color="#F1F1F1"/>
<stop offset="0.1875" stop-color="#F1F1F1"/>
<stop offset="0.364583" stop-color="white"/>
<stop offset="0.546875" stop-color="#F1F1F1"/>
<stop offset="0.979067" stop-color="#F1F1F1"/>
</linearGradient>
<linearGradient id="paint4_linear_9450_627333" x1="5.30855e-07" y1="9.99993" x2="120" y2="9.99993" gradientUnits="userSpaceOnUse">
<stop stop-color="#F1F1F1"/>
<stop offset="0.1875" stop-color="#F1F1F1"/>
<stop offset="0.364583" stop-color="white"/>
<stop offset="0.546875" stop-color="#F1F1F1"/>
<stop offset="0.979067" stop-color="#F1F1F1"/>
</linearGradient>
<linearGradient id="paint5_linear_9450_627333" x1="5.30855e-07" y1="9.99993" x2="120" y2="9.99993" gradientUnits="userSpaceOnUse">
<stop stop-color="#F1F1F1"/>
<stop offset="0.1875" stop-color="#F1F1F1"/>
<stop offset="0.364583" stop-color="white"/>
<stop offset="0.546875" stop-color="#F1F1F1"/>
<stop offset="0.979067" stop-color="#F1F1F1"/>
</linearGradient>
<linearGradient id="paint6_linear_9450_627333" x1="5.30855e-07" y1="9.99993" x2="120" y2="9.99993" gradientUnits="userSpaceOnUse">
<stop stop-color="#F1F1F1"/>
<stop offset="0.1875" stop-color="#F1F1F1"/>
<stop offset="0.364583" stop-color="white"/>
<stop offset="0.546875" stop-color="#F1F1F1"/>
<stop offset="0.979067" stop-color="#F1F1F1"/>
</linearGradient>
<linearGradient id="paint7_linear_9450_627333" x1="5.30855e-07" y1="9.99993" x2="120" y2="9.99993" gradientUnits="userSpaceOnUse">
<stop stop-color="#F1F1F1"/>
<stop offset="0.1875" stop-color="#F1F1F1"/>
<stop offset="0.364583" stop-color="white"/>
<stop offset="0.546875" stop-color="#F1F1F1"/>
<stop offset="0.979067" stop-color="#F1F1F1"/>
</linearGradient>
<linearGradient id="paint8_linear_9450_627333" x1="5.30855e-07" y1="9.99993" x2="120" y2="9.99993" gradientUnits="userSpaceOnUse">
<stop stop-color="#F1F1F1"/>
<stop offset="0.1875" stop-color="#F1F1F1"/>
<stop offset="0.364583" stop-color="white"/>
<stop offset="0.546875" stop-color="#F1F1F1"/>
<stop offset="0.979067" stop-color="#F1F1F1"/>
</linearGradient>
<linearGradient id="paint9_linear_9450_627333" x1="5.30855e-07" y1="9.99993" x2="120" y2="9.99993" gradientUnits="userSpaceOnUse">
<stop stop-color="#F1F1F1"/>
<stop offset="0.1875" stop-color="#F1F1F1"/>
<stop offset="0.364583" stop-color="white"/>
<stop offset="0.546875" stop-color="#F1F1F1"/>
<stop offset="0.979067" stop-color="#F1F1F1"/>
</linearGradient>
<linearGradient id="paint10_linear_9450_627333" x1="5.30855e-07" y1="9.99993" x2="120" y2="9.99993" gradientUnits="userSpaceOnUse">
<stop stop-color="#F1F1F1"/>
<stop offset="0.1875" stop-color="#F1F1F1"/>
<stop offset="0.364583" stop-color="white"/>
<stop offset="0.546875" stop-color="#F1F1F1"/>
<stop offset="0.979067" stop-color="#F1F1F1"/>
</linearGradient>
<linearGradient id="paint11_linear_9450_627333" x1="5.30855e-07" y1="9.99993" x2="120" y2="9.99993" gradientUnits="userSpaceOnUse">
<stop stop-color="#F1F1F1"/>
<stop offset="0.1875" stop-color="#F1F1F1"/>
<stop offset="0.364583" stop-color="white"/>
<stop offset="0.546875" stop-color="#F1F1F1"/>
<stop offset="0.979067" stop-color="#F1F1F1"/>
</linearGradient>
<linearGradient id="paint12_linear_9450_627333" x1="5.30855e-07" y1="9.99993" x2="120" y2="9.99993" gradientUnits="userSpaceOnUse">
<stop stop-color="#F1F1F1"/>
<stop offset="0.1875" stop-color="#F1F1F1"/>
<stop offset="0.364583" stop-color="white"/>
<stop offset="0.546875" stop-color="#F1F1F1"/>
<stop offset="0.979067" stop-color="#F1F1F1"/>
</linearGradient>
<linearGradient id="paint13_linear_9450_627333" x1="5.30855e-07" y1="9.99993" x2="120" y2="9.99993" gradientUnits="userSpaceOnUse">
<stop stop-color="#F1F1F1"/>
<stop offset="0.1875" stop-color="#F1F1F1"/>
<stop offset="0.364583" stop-color="white"/>
<stop offset="0.546875" stop-color="#F1F1F1"/>
<stop offset="0.979067" stop-color="#F1F1F1"/>
</linearGradient>
<linearGradient id="paint14_linear_9450_627333" x1="5.30855e-07" y1="9.99993" x2="120" y2="9.99993" gradientUnits="userSpaceOnUse">
<stop stop-color="#F1F1F1"/>
<stop offset="0.1875" stop-color="#F1F1F1"/>
<stop offset="0.364583" stop-color="white"/>
<stop offset="0.546875" stop-color="#F1F1F1"/>
<stop offset="0.979067" stop-color="#F1F1F1"/>
</linearGradient>
<linearGradient id="paint15_linear_9450_627333" x1="5.30855e-07" y1="9.99993" x2="120" y2="9.99993" gradientUnits="userSpaceOnUse">
<stop stop-color="#F1F1F1"/>
<stop offset="0.1875" stop-color="#F1F1F1"/>
<stop offset="0.364583" stop-color="white"/>
<stop offset="0.546875" stop-color="#F1F1F1"/>
<stop offset="0.979067" stop-color="#F1F1F1"/>
</linearGradient>
<linearGradient id="paint16_linear_9450_627333" x1="5.30855e-07" y1="9.99993" x2="120" y2="9.99993" gradientUnits="userSpaceOnUse">
<stop stop-color="#F1F1F1"/>
<stop offset="0.1875" stop-color="#F1F1F1"/>
<stop offset="0.364583" stop-color="white"/>
<stop offset="0.546875" stop-color="#F1F1F1"/>
<stop offset="0.979067" stop-color="#F1F1F1"/>
</linearGradient>
<linearGradient id="paint17_linear_9450_627333" x1="5.30855e-07" y1="9.99993" x2="120" y2="9.99993" gradientUnits="userSpaceOnUse">
<stop stop-color="#F1F1F1"/>
<stop offset="0.1875" stop-color="#F1F1F1"/>
<stop offset="0.364583" stop-color="white"/>
<stop offset="0.546875" stop-color="#F1F1F1"/>
<stop offset="0.979067" stop-color="#F1F1F1"/>
</linearGradient>
<linearGradient id="paint18_linear_9450_627333" x1="5.30855e-07" y1="9.99993" x2="120" y2="9.99993" gradientUnits="userSpaceOnUse">
<stop stop-color="#F1F1F1"/>
<stop offset="0.1875" stop-color="#F1F1F1"/>
<stop offset="0.364583" stop-color="white"/>
<stop offset="0.546875" stop-color="#F1F1F1"/>
<stop offset="0.979067" stop-color="#F1F1F1"/>
</linearGradient>
<linearGradient id="paint19_linear_9450_627333" x1="5.30855e-07" y1="9.99993" x2="120" y2="9.99993" gradientUnits="userSpaceOnUse">
<stop stop-color="#F1F1F1"/>
<stop offset="0.1875" stop-color="#F1F1F1"/>
<stop offset="0.364583" stop-color="white"/>
<stop offset="0.546875" stop-color="#F1F1F1"/>
<stop offset="0.979067" stop-color="#F1F1F1"/>
</linearGradient>
<linearGradient id="paint20_linear_9450_627333" x1="5.30855e-07" y1="9.99993" x2="120" y2="9.99993" gradientUnits="userSpaceOnUse">
<stop stop-color="#F1F1F1"/>
<stop offset="0.1875" stop-color="#F1F1F1"/>
<stop offset="0.364583" stop-color="white"/>
<stop offset="0.546875" stop-color="#F1F1F1"/>
<stop offset="0.979067" stop-color="#F1F1F1"/>
</linearGradient>
<linearGradient id="paint21_linear_9450_627333" x1="5.30855e-07" y1="9.99993" x2="120" y2="9.99993" gradientUnits="userSpaceOnUse">
<stop stop-color="#F1F1F1"/>
<stop offset="0.1875" stop-color="#F1F1F1"/>
<stop offset="0.364583" stop-color="white"/>
<stop offset="0.546875" stop-color="#F1F1F1"/>
<stop offset="0.979067" stop-color="#F1F1F1"/>
</linearGradient>
<linearGradient id="paint22_linear_9450_627333" x1="5.30855e-07" y1="9.99993" x2="120" y2="9.99993" gradientUnits="userSpaceOnUse">
<stop stop-color="#F1F1F1"/>
<stop offset="0.1875" stop-color="#F1F1F1"/>
<stop offset="0.364583" stop-color="white"/>
<stop offset="0.546875" stop-color="#F1F1F1"/>
<stop offset="0.979067" stop-color="#F1F1F1"/>
</linearGradient>
<linearGradient id="paint23_linear_9450_627333" x1="5.30855e-07" y1="9.99993" x2="120" y2="9.99993" gradientUnits="userSpaceOnUse">
<stop stop-color="#F1F1F1"/>
<stop offset="0.1875" stop-color="#F1F1F1"/>
<stop offset="0.364583" stop-color="white"/>
<stop offset="0.546875" stop-color="#F1F1F1"/>
<stop offset="0.979067" stop-color="#F1F1F1"/>
</linearGradient>
<linearGradient id="paint24_linear_9450_627333" x1="5.30855e-07" y1="9.99993" x2="120" y2="9.99993" gradientUnits="userSpaceOnUse">
<stop stop-color="#F1F1F1"/>
<stop offset="0.1875" stop-color="#F1F1F1"/>
<stop offset="0.364583" stop-color="white"/>
<stop offset="0.546875" stop-color="#F1F1F1"/>
<stop offset="0.979067" stop-color="#F1F1F1"/>
</linearGradient>
<clipPath id="clip0_9450_627333">
<rect width="56" height="44" fill="white" transform="translate(40 80)"/>
</clipPath>
</defs>
</svg>
