<svg width="408" height="177" viewBox="0 0 408 177" fill="none" xmlns="http://www.w3.org/2000/svg">
<g clip-path="url(#clip0_6334_48758)">
<rect width="408" height="176" transform="translate(0.000976562 0.299805)" fill="white"/>
<path d="M203.713 125.768H177.023C175.109 125.768 174.096 128.02 175.334 129.484C177.136 131.736 178.15 134.664 177.812 137.93C177.249 143.11 173.082 147.277 167.902 147.84C161.145 148.628 155.289 143.223 155.289 136.579C155.289 133.876 156.303 131.399 157.879 129.371C159.118 127.908 158.105 125.655 156.19 125.655H129.501V98.6283C129.501 96.7139 131.753 95.7003 133.217 96.9391C135.132 98.5157 137.609 99.5292 140.424 99.5292C147.069 99.5292 152.361 93.7859 151.573 86.9166C151.01 81.7364 146.843 77.5697 141.663 77.0067C138.397 76.6688 135.469 77.6823 133.217 79.4841C131.753 80.7229 129.501 79.7094 129.501 77.7949V50.5427H156.19C158.105 50.5427 159.118 48.2905 157.879 46.8265C156.303 44.9121 155.289 42.4346 155.289 39.6193C155.289 32.9752 161.032 27.6824 167.902 28.358C173.082 28.9211 177.249 33.0878 177.812 38.2679C178.15 41.5337 177.136 44.4616 175.334 46.7139C174.096 48.1778 175.222 50.4301 177.023 50.4301H203.713" stroke="#003A51" stroke-width="3" stroke-miterlimit="10"/>
<path d="M268.128 50.5433H279.389V77.6829C279.389 79.5973 277.137 80.6108 275.673 79.3721C273.421 77.4577 270.493 76.5568 267.227 76.8946C262.047 77.4577 257.88 81.6243 257.317 86.8045C256.529 93.5613 261.934 99.4171 268.578 99.4171C271.281 99.4171 273.759 98.4036 275.786 96.827C277.25 95.5883 279.502 96.6018 279.502 98.5162V125.656H268.241H252.362C250.448 125.656 249.434 123.404 250.673 121.94C252.25 120.025 253.263 117.548 253.263 114.732C253.263 108.088 247.52 102.795 240.651 103.471C235.47 104.034 231.304 108.201 230.741 113.381C230.403 116.647 231.416 119.575 233.218 121.827C234.457 123.291 233.331 125.543 231.529 125.543H215.538H203.714V98.6288C203.714 96.7144 201.461 95.7009 199.997 96.9396C198.083 98.5162 195.493 99.5297 192.79 99.5297C186.146 99.5297 180.853 93.7865 181.529 86.9171C182.092 81.737 186.259 77.5703 191.439 77.0072C194.592 76.6694 197.633 77.6829 199.885 79.4847C201.349 80.7234 203.601 79.7099 203.601 77.7955V50.5433H215.313H231.191C233.105 50.5433 234.119 52.7955 232.88 54.2595C231.078 56.5117 230.065 59.4397 230.403 62.7054C230.966 67.8856 235.133 72.0523 240.313 72.6153C247.069 73.4036 252.925 67.9982 252.925 61.3541C252.925 58.6514 251.912 56.1739 250.335 54.1469C249.096 52.6829 250.11 50.4307 252.024 50.4307C252.25 50.5433 268.128 50.5433 268.128 50.5433Z" stroke="#1B77AF" stroke-width="3" stroke-miterlimit="10"/>
</g>
<defs>
<clipPath id="clip0_6334_48758">
<rect width="408" height="176" fill="white" transform="translate(0.000976562 0.299805)"/>
</clipPath>
</defs>
</svg>
