<svg width="408" height="177" viewBox="0 0 408 177" fill="none" xmlns="http://www.w3.org/2000/svg">
<g clip-path="url(#clip0_6334_48755)">
<rect width="408" height="176" transform="translate(0.000976562 0.5)" fill="white"/>
<path d="M188.602 70.0002C192.302 64.1002 198.802 60.2002 206.302 60.2002C217.802 60.2002 227.202 69.6002 227.202 81.1002C227.202 89.8002 221.902 97.2002 214.402 100.4V107.1C214.402 107.4 214.402 107.7 214.402 108.1C213.902 117 206.502 124.1 197.502 124.1" stroke="#AB3FE0" stroke-width="3" stroke-miterlimit="10"/>
<path d="M195.701 73.8C197.001 71.9 198.801 70.4 200.901 69.5C203.401 68.4 206.301 68 209.301 68.6C214.101 69.7 217.901 73.6 219.001 78.4C220.501 85.7 215.901 92.2 209.401 93.8C207.601 94.2 206.401 95.8 206.401 97.6V106.8" stroke="#AB3FE0" stroke-width="3" stroke-miterlimit="10"/>
<path d="M203.902 136.8C230.356 136.8 251.802 115.354 251.802 88.9C251.802 62.4456 230.356 41 203.902 41C177.448 41 156.002 62.4456 156.002 88.9C156.002 115.354 177.448 136.8 203.902 136.8Z" stroke="#003A51" stroke-width="3" stroke-miterlimit="10"/>
<path d="M176.402 128.6L226.602 46" stroke="#003A51" stroke-width="3" stroke-miterlimit="10"/>
</g>
<defs>
<clipPath id="clip0_6334_48755">
<rect width="408" height="176" fill="white" transform="translate(0.000976562 0.5)"/>
</clipPath>
</defs>
</svg>
