<svg width="412" height="532" viewBox="0 0 412 532" fill="none" xmlns="http://www.w3.org/2000/svg">
<g filter="url(#filter0_d_7874_526176)">
<rect x="103" y="86" width="206" height="360" rx="4" fill="white"/>
<path d="M118.63 109L117.426 105.906H113.464L112.274 109H111L114.906 98.962H116.04L119.932 109H118.63ZM117.048 104.786L115.928 101.762C115.9 101.687 115.853 101.552 115.788 101.356C115.723 101.16 115.657 100.959 115.592 100.754C115.536 100.539 115.489 100.376 115.452 100.264C115.377 100.553 115.298 100.838 115.214 101.118C115.139 101.389 115.074 101.603 115.018 101.762L113.884 104.786H117.048ZM124.141 109.14C123.469 109.14 122.877 109.005 122.363 108.734C121.85 108.463 121.444 108.043 121.145 107.474C120.856 106.905 120.711 106.177 120.711 105.29C120.711 104.366 120.861 103.615 121.159 103.036C121.467 102.457 121.887 102.033 122.419 101.762C122.951 101.491 123.553 101.356 124.225 101.356C124.599 101.356 124.963 101.398 125.317 101.482C125.681 101.557 125.975 101.65 126.199 101.762L125.821 102.784C125.597 102.7 125.336 102.621 125.037 102.546C124.739 102.471 124.459 102.434 124.197 102.434C122.723 102.434 121.985 103.381 121.985 105.276C121.985 106.181 122.163 106.877 122.517 107.362C122.881 107.838 123.418 108.076 124.127 108.076C124.529 108.076 124.888 108.034 125.205 107.95C125.523 107.866 125.812 107.763 126.073 107.642V108.734C125.821 108.865 125.541 108.963 125.233 109.028C124.935 109.103 124.571 109.14 124.141 109.14ZM130.364 108.132C130.551 108.132 130.742 108.118 130.938 108.09C131.134 108.062 131.293 108.025 131.414 107.978V108.916C131.283 108.981 131.097 109.033 130.854 109.07C130.611 109.117 130.378 109.14 130.154 109.14C129.762 109.14 129.398 109.075 129.062 108.944C128.735 108.804 128.469 108.566 128.264 108.23C128.059 107.894 127.956 107.423 127.956 106.816V102.448H126.892V101.86L127.97 101.37L128.46 99.774H129.188V101.496H131.358V102.448H129.188V106.788C129.188 107.245 129.295 107.586 129.51 107.81C129.734 108.025 130.019 108.132 130.364 108.132ZM133.547 98.682C133.733 98.682 133.897 98.7473 134.037 98.878C134.186 98.9993 134.261 99.1953 134.261 99.466C134.261 99.7367 134.186 99.9373 134.037 100.068C133.897 100.189 133.733 100.25 133.547 100.25C133.341 100.25 133.169 100.189 133.029 100.068C132.889 99.9373 132.819 99.7367 132.819 99.466C132.819 99.1953 132.889 98.9993 133.029 98.878C133.169 98.7473 133.341 98.682 133.547 98.682ZM134.149 101.496V109H132.917V101.496H134.149ZM143.05 105.234C143.05 106.475 142.733 107.437 142.098 108.118C141.473 108.799 140.623 109.14 139.55 109.14C138.887 109.14 138.295 108.991 137.772 108.692C137.259 108.384 136.853 107.941 136.554 107.362C136.255 106.774 136.106 106.065 136.106 105.234C136.106 103.993 136.414 103.036 137.03 102.364C137.655 101.692 138.509 101.356 139.592 101.356C140.264 101.356 140.861 101.51 141.384 101.818C141.907 102.117 142.313 102.555 142.602 103.134C142.901 103.703 143.05 104.403 143.05 105.234ZM137.38 105.234C137.38 106.121 137.553 106.825 137.898 107.348C138.253 107.861 138.813 108.118 139.578 108.118C140.334 108.118 140.889 107.861 141.244 107.348C141.599 106.825 141.776 106.121 141.776 105.234C141.776 104.347 141.599 103.652 141.244 103.148C140.889 102.644 140.329 102.392 139.564 102.392C138.799 102.392 138.243 102.644 137.898 103.148C137.553 103.652 137.38 104.347 137.38 105.234ZM148.615 101.356C149.511 101.356 150.187 101.575 150.645 102.014C151.102 102.453 151.331 103.153 151.331 104.114V109H150.113V104.198C150.113 102.994 149.553 102.392 148.433 102.392C147.602 102.392 147.028 102.625 146.711 103.092C146.393 103.559 146.235 104.231 146.235 105.108V109H145.003V101.496H145.997L146.179 102.518H146.249C146.491 102.126 146.827 101.837 147.257 101.65C147.686 101.454 148.139 101.356 148.615 101.356ZM157.924 98.682C158.11 98.682 158.274 98.7473 158.414 98.878C158.563 98.9993 158.638 99.1953 158.638 99.466C158.638 99.7367 158.563 99.9373 158.414 100.068C158.274 100.189 158.11 100.25 157.924 100.25C157.718 100.25 157.546 100.189 157.406 100.068C157.266 99.9373 157.196 99.7367 157.196 99.466C157.196 99.1953 157.266 98.9993 157.406 98.878C157.546 98.7473 157.718 98.682 157.924 98.682ZM158.526 101.496V109H157.294V101.496H158.526ZM163.409 108.132C163.596 108.132 163.787 108.118 163.983 108.09C164.179 108.062 164.338 108.025 164.459 107.978V108.916C164.328 108.981 164.142 109.033 163.899 109.07C163.656 109.117 163.423 109.14 163.199 109.14C162.807 109.14 162.443 109.075 162.107 108.944C161.78 108.804 161.514 108.566 161.309 108.23C161.104 107.894 161.001 107.423 161.001 106.816V102.448H159.937V101.86L161.015 101.37L161.505 99.774H162.233V101.496H164.403V102.448H162.233V106.788C162.233 107.245 162.34 107.586 162.555 107.81C162.779 108.025 163.064 108.132 163.409 108.132ZM168.859 101.356C169.494 101.356 170.045 101.496 170.511 101.776C170.978 102.056 171.333 102.453 171.575 102.966C171.827 103.47 171.953 104.063 171.953 104.744V105.486H166.815C166.834 106.335 167.049 106.984 167.459 107.432C167.879 107.871 168.463 108.09 169.209 108.09C169.685 108.09 170.105 108.048 170.469 107.964C170.843 107.871 171.225 107.74 171.617 107.572V108.65C171.235 108.818 170.857 108.939 170.483 109.014C170.11 109.098 169.667 109.14 169.153 109.14C168.435 109.14 167.805 108.995 167.263 108.706C166.722 108.417 166.297 107.987 165.989 107.418C165.691 106.849 165.541 106.144 165.541 105.304C165.541 104.483 165.677 103.778 165.947 103.19C166.227 102.602 166.615 102.149 167.109 101.832C167.613 101.515 168.197 101.356 168.859 101.356ZM168.845 102.364C168.257 102.364 167.791 102.555 167.445 102.938C167.109 103.311 166.909 103.834 166.843 104.506H170.665C170.656 103.871 170.507 103.358 170.217 102.966C169.928 102.565 169.471 102.364 168.845 102.364ZM182.096 101.356C182.945 101.356 183.58 101.575 184 102.014C184.42 102.453 184.63 103.153 184.63 104.114V109H183.412V104.17C183.412 102.985 182.903 102.392 181.886 102.392C181.158 102.392 180.635 102.602 180.318 103.022C180.01 103.442 179.856 104.053 179.856 104.856V109H178.638V104.17C178.638 102.985 178.124 102.392 177.098 102.392C176.342 102.392 175.819 102.625 175.53 103.092C175.24 103.559 175.096 104.231 175.096 105.108V109H173.864V101.496H174.858L175.04 102.518H175.11C175.343 102.126 175.656 101.837 176.048 101.65C176.449 101.454 176.874 101.356 177.322 101.356C178.498 101.356 179.263 101.776 179.618 102.616H179.688C179.94 102.187 180.28 101.869 180.71 101.664C181.139 101.459 181.601 101.356 182.096 101.356Z" fill="black"/>
<path d="M118.63 145L117.426 141.906H113.464L112.274 145H111L114.906 134.962H116.04L119.932 145H118.63ZM117.048 140.786L115.928 137.762C115.9 137.687 115.853 137.552 115.788 137.356C115.723 137.16 115.657 136.959 115.592 136.754C115.536 136.539 115.489 136.376 115.452 136.264C115.377 136.553 115.298 136.838 115.214 137.118C115.139 137.389 115.074 137.603 115.018 137.762L113.884 140.786H117.048ZM124.141 145.14C123.469 145.14 122.877 145.005 122.363 144.734C121.85 144.463 121.444 144.043 121.145 143.474C120.856 142.905 120.711 142.177 120.711 141.29C120.711 140.366 120.861 139.615 121.159 139.036C121.467 138.457 121.887 138.033 122.419 137.762C122.951 137.491 123.553 137.356 124.225 137.356C124.599 137.356 124.963 137.398 125.317 137.482C125.681 137.557 125.975 137.65 126.199 137.762L125.821 138.784C125.597 138.7 125.336 138.621 125.037 138.546C124.739 138.471 124.459 138.434 124.197 138.434C122.723 138.434 121.985 139.381 121.985 141.276C121.985 142.181 122.163 142.877 122.517 143.362C122.881 143.838 123.418 144.076 124.127 144.076C124.529 144.076 124.888 144.034 125.205 143.95C125.523 143.866 125.812 143.763 126.073 143.642V144.734C125.821 144.865 125.541 144.963 125.233 145.028C124.935 145.103 124.571 145.14 124.141 145.14ZM130.364 144.132C130.551 144.132 130.742 144.118 130.938 144.09C131.134 144.062 131.293 144.025 131.414 143.978V144.916C131.283 144.981 131.097 145.033 130.854 145.07C130.611 145.117 130.378 145.14 130.154 145.14C129.762 145.14 129.398 145.075 129.062 144.944C128.735 144.804 128.469 144.566 128.264 144.23C128.059 143.894 127.956 143.423 127.956 142.816V138.448H126.892V137.86L127.97 137.37L128.46 135.774H129.188V137.496H131.358V138.448H129.188V142.788C129.188 143.245 129.295 143.586 129.51 143.81C129.734 144.025 130.019 144.132 130.364 144.132ZM133.547 134.682C133.733 134.682 133.897 134.747 134.037 134.878C134.186 134.999 134.261 135.195 134.261 135.466C134.261 135.737 134.186 135.937 134.037 136.068C133.897 136.189 133.733 136.25 133.547 136.25C133.341 136.25 133.169 136.189 133.029 136.068C132.889 135.937 132.819 135.737 132.819 135.466C132.819 135.195 132.889 134.999 133.029 134.878C133.169 134.747 133.341 134.682 133.547 134.682ZM134.149 137.496V145H132.917V137.496H134.149ZM143.05 141.234C143.05 142.475 142.733 143.437 142.098 144.118C141.473 144.799 140.623 145.14 139.55 145.14C138.887 145.14 138.295 144.991 137.772 144.692C137.259 144.384 136.853 143.941 136.554 143.362C136.255 142.774 136.106 142.065 136.106 141.234C136.106 139.993 136.414 139.036 137.03 138.364C137.655 137.692 138.509 137.356 139.592 137.356C140.264 137.356 140.861 137.51 141.384 137.818C141.907 138.117 142.313 138.555 142.602 139.134C142.901 139.703 143.05 140.403 143.05 141.234ZM137.38 141.234C137.38 142.121 137.553 142.825 137.898 143.348C138.253 143.861 138.813 144.118 139.578 144.118C140.334 144.118 140.889 143.861 141.244 143.348C141.599 142.825 141.776 142.121 141.776 141.234C141.776 140.347 141.599 139.652 141.244 139.148C140.889 138.644 140.329 138.392 139.564 138.392C138.799 138.392 138.243 138.644 137.898 139.148C137.553 139.652 137.38 140.347 137.38 141.234ZM148.615 137.356C149.511 137.356 150.187 137.575 150.645 138.014C151.102 138.453 151.331 139.153 151.331 140.114V145H150.113V140.198C150.113 138.994 149.553 138.392 148.433 138.392C147.602 138.392 147.028 138.625 146.711 139.092C146.393 139.559 146.235 140.231 146.235 141.108V145H145.003V137.496H145.997L146.179 138.518H146.249C146.491 138.126 146.827 137.837 147.257 137.65C147.686 137.454 148.139 137.356 148.615 137.356ZM157.924 134.682C158.11 134.682 158.274 134.747 158.414 134.878C158.563 134.999 158.638 135.195 158.638 135.466C158.638 135.737 158.563 135.937 158.414 136.068C158.274 136.189 158.11 136.25 157.924 136.25C157.718 136.25 157.546 136.189 157.406 136.068C157.266 135.937 157.196 135.737 157.196 135.466C157.196 135.195 157.266 134.999 157.406 134.878C157.546 134.747 157.718 134.682 157.924 134.682ZM158.526 137.496V145H157.294V137.496H158.526ZM163.409 144.132C163.596 144.132 163.787 144.118 163.983 144.09C164.179 144.062 164.338 144.025 164.459 143.978V144.916C164.328 144.981 164.142 145.033 163.899 145.07C163.656 145.117 163.423 145.14 163.199 145.14C162.807 145.14 162.443 145.075 162.107 144.944C161.78 144.804 161.514 144.566 161.309 144.23C161.104 143.894 161.001 143.423 161.001 142.816V138.448H159.937V137.86L161.015 137.37L161.505 135.774H162.233V137.496H164.403V138.448H162.233V142.788C162.233 143.245 162.34 143.586 162.555 143.81C162.779 144.025 163.064 144.132 163.409 144.132ZM168.859 137.356C169.494 137.356 170.045 137.496 170.511 137.776C170.978 138.056 171.333 138.453 171.575 138.966C171.827 139.47 171.953 140.063 171.953 140.744V141.486H166.815C166.834 142.335 167.049 142.984 167.459 143.432C167.879 143.871 168.463 144.09 169.209 144.09C169.685 144.09 170.105 144.048 170.469 143.964C170.843 143.871 171.225 143.74 171.617 143.572V144.65C171.235 144.818 170.857 144.939 170.483 145.014C170.11 145.098 169.667 145.14 169.153 145.14C168.435 145.14 167.805 144.995 167.263 144.706C166.722 144.417 166.297 143.987 165.989 143.418C165.691 142.849 165.541 142.144 165.541 141.304C165.541 140.483 165.677 139.778 165.947 139.19C166.227 138.602 166.615 138.149 167.109 137.832C167.613 137.515 168.197 137.356 168.859 137.356ZM168.845 138.364C168.257 138.364 167.791 138.555 167.445 138.938C167.109 139.311 166.909 139.834 166.843 140.506H170.665C170.656 139.871 170.507 139.358 170.217 138.966C169.928 138.565 169.471 138.364 168.845 138.364ZM182.096 137.356C182.945 137.356 183.58 137.575 184 138.014C184.42 138.453 184.63 139.153 184.63 140.114V145H183.412V140.17C183.412 138.985 182.903 138.392 181.886 138.392C181.158 138.392 180.635 138.602 180.318 139.022C180.01 139.442 179.856 140.053 179.856 140.856V145H178.638V140.17C178.638 138.985 178.124 138.392 177.098 138.392C176.342 138.392 175.819 138.625 175.53 139.092C175.24 139.559 175.096 140.231 175.096 141.108V145H173.864V137.496H174.858L175.04 138.518H175.11C175.343 138.126 175.656 137.837 176.048 137.65C176.449 137.454 176.874 137.356 177.322 137.356C178.498 137.356 179.263 137.776 179.618 138.616H179.688C179.94 138.187 180.28 137.869 180.71 137.664C181.139 137.459 181.601 137.356 182.096 137.356Z" fill="black"/>
<path d="M118.63 181L117.426 177.906H113.464L112.274 181H111L114.906 170.962H116.04L119.932 181H118.63ZM117.048 176.786L115.928 173.762C115.9 173.687 115.853 173.552 115.788 173.356C115.723 173.16 115.657 172.959 115.592 172.754C115.536 172.539 115.489 172.376 115.452 172.264C115.377 172.553 115.298 172.838 115.214 173.118C115.139 173.389 115.074 173.603 115.018 173.762L113.884 176.786H117.048ZM124.141 181.14C123.469 181.14 122.877 181.005 122.363 180.734C121.85 180.463 121.444 180.043 121.145 179.474C120.856 178.905 120.711 178.177 120.711 177.29C120.711 176.366 120.861 175.615 121.159 175.036C121.467 174.457 121.887 174.033 122.419 173.762C122.951 173.491 123.553 173.356 124.225 173.356C124.599 173.356 124.963 173.398 125.317 173.482C125.681 173.557 125.975 173.65 126.199 173.762L125.821 174.784C125.597 174.7 125.336 174.621 125.037 174.546C124.739 174.471 124.459 174.434 124.197 174.434C122.723 174.434 121.985 175.381 121.985 177.276C121.985 178.181 122.163 178.877 122.517 179.362C122.881 179.838 123.418 180.076 124.127 180.076C124.529 180.076 124.888 180.034 125.205 179.95C125.523 179.866 125.812 179.763 126.073 179.642V180.734C125.821 180.865 125.541 180.963 125.233 181.028C124.935 181.103 124.571 181.14 124.141 181.14ZM130.364 180.132C130.551 180.132 130.742 180.118 130.938 180.09C131.134 180.062 131.293 180.025 131.414 179.978V180.916C131.283 180.981 131.097 181.033 130.854 181.07C130.611 181.117 130.378 181.14 130.154 181.14C129.762 181.14 129.398 181.075 129.062 180.944C128.735 180.804 128.469 180.566 128.264 180.23C128.059 179.894 127.956 179.423 127.956 178.816V174.448H126.892V173.86L127.97 173.37L128.46 171.774H129.188V173.496H131.358V174.448H129.188V178.788C129.188 179.245 129.295 179.586 129.51 179.81C129.734 180.025 130.019 180.132 130.364 180.132ZM133.547 170.682C133.733 170.682 133.897 170.747 134.037 170.878C134.186 170.999 134.261 171.195 134.261 171.466C134.261 171.737 134.186 171.937 134.037 172.068C133.897 172.189 133.733 172.25 133.547 172.25C133.341 172.25 133.169 172.189 133.029 172.068C132.889 171.937 132.819 171.737 132.819 171.466C132.819 171.195 132.889 170.999 133.029 170.878C133.169 170.747 133.341 170.682 133.547 170.682ZM134.149 173.496V181H132.917V173.496H134.149ZM143.05 177.234C143.05 178.475 142.733 179.437 142.098 180.118C141.473 180.799 140.623 181.14 139.55 181.14C138.887 181.14 138.295 180.991 137.772 180.692C137.259 180.384 136.853 179.941 136.554 179.362C136.255 178.774 136.106 178.065 136.106 177.234C136.106 175.993 136.414 175.036 137.03 174.364C137.655 173.692 138.509 173.356 139.592 173.356C140.264 173.356 140.861 173.51 141.384 173.818C141.907 174.117 142.313 174.555 142.602 175.134C142.901 175.703 143.05 176.403 143.05 177.234ZM137.38 177.234C137.38 178.121 137.553 178.825 137.898 179.348C138.253 179.861 138.813 180.118 139.578 180.118C140.334 180.118 140.889 179.861 141.244 179.348C141.599 178.825 141.776 178.121 141.776 177.234C141.776 176.347 141.599 175.652 141.244 175.148C140.889 174.644 140.329 174.392 139.564 174.392C138.799 174.392 138.243 174.644 137.898 175.148C137.553 175.652 137.38 176.347 137.38 177.234ZM148.615 173.356C149.511 173.356 150.187 173.575 150.645 174.014C151.102 174.453 151.331 175.153 151.331 176.114V181H150.113V176.198C150.113 174.994 149.553 174.392 148.433 174.392C147.602 174.392 147.028 174.625 146.711 175.092C146.393 175.559 146.235 176.231 146.235 177.108V181H145.003V173.496H145.997L146.179 174.518H146.249C146.491 174.126 146.827 173.837 147.257 173.65C147.686 173.454 148.139 173.356 148.615 173.356ZM157.924 170.682C158.11 170.682 158.274 170.747 158.414 170.878C158.563 170.999 158.638 171.195 158.638 171.466C158.638 171.737 158.563 171.937 158.414 172.068C158.274 172.189 158.11 172.25 157.924 172.25C157.718 172.25 157.546 172.189 157.406 172.068C157.266 171.937 157.196 171.737 157.196 171.466C157.196 171.195 157.266 170.999 157.406 170.878C157.546 170.747 157.718 170.682 157.924 170.682ZM158.526 173.496V181H157.294V173.496H158.526ZM163.409 180.132C163.596 180.132 163.787 180.118 163.983 180.09C164.179 180.062 164.338 180.025 164.459 179.978V180.916C164.328 180.981 164.142 181.033 163.899 181.07C163.656 181.117 163.423 181.14 163.199 181.14C162.807 181.14 162.443 181.075 162.107 180.944C161.78 180.804 161.514 180.566 161.309 180.23C161.104 179.894 161.001 179.423 161.001 178.816V174.448H159.937V173.86L161.015 173.37L161.505 171.774H162.233V173.496H164.403V174.448H162.233V178.788C162.233 179.245 162.34 179.586 162.555 179.81C162.779 180.025 163.064 180.132 163.409 180.132ZM168.859 173.356C169.494 173.356 170.045 173.496 170.511 173.776C170.978 174.056 171.333 174.453 171.575 174.966C171.827 175.47 171.953 176.063 171.953 176.744V177.486H166.815C166.834 178.335 167.049 178.984 167.459 179.432C167.879 179.871 168.463 180.09 169.209 180.09C169.685 180.09 170.105 180.048 170.469 179.964C170.843 179.871 171.225 179.74 171.617 179.572V180.65C171.235 180.818 170.857 180.939 170.483 181.014C170.11 181.098 169.667 181.14 169.153 181.14C168.435 181.14 167.805 180.995 167.263 180.706C166.722 180.417 166.297 179.987 165.989 179.418C165.691 178.849 165.541 178.144 165.541 177.304C165.541 176.483 165.677 175.778 165.947 175.19C166.227 174.602 166.615 174.149 167.109 173.832C167.613 173.515 168.197 173.356 168.859 173.356ZM168.845 174.364C168.257 174.364 167.791 174.555 167.445 174.938C167.109 175.311 166.909 175.834 166.843 176.506H170.665C170.656 175.871 170.507 175.358 170.217 174.966C169.928 174.565 169.471 174.364 168.845 174.364ZM182.096 173.356C182.945 173.356 183.58 173.575 184 174.014C184.42 174.453 184.63 175.153 184.63 176.114V181H183.412V176.17C183.412 174.985 182.903 174.392 181.886 174.392C181.158 174.392 180.635 174.602 180.318 175.022C180.01 175.442 179.856 176.053 179.856 176.856V181H178.638V176.17C178.638 174.985 178.124 174.392 177.098 174.392C176.342 174.392 175.819 174.625 175.53 175.092C175.24 175.559 175.096 176.231 175.096 177.108V181H173.864V173.496H174.858L175.04 174.518H175.11C175.343 174.126 175.656 173.837 176.048 173.65C176.449 173.454 176.874 173.356 177.322 173.356C178.498 173.356 179.263 173.776 179.618 174.616H179.688C179.94 174.187 180.28 173.869 180.71 173.664C181.139 173.459 181.601 173.356 182.096 173.356Z" fill="black"/>
<path d="M118.63 217L117.426 213.906H113.464L112.274 217H111L114.906 206.962H116.04L119.932 217H118.63ZM117.048 212.786L115.928 209.762C115.9 209.687 115.853 209.552 115.788 209.356C115.723 209.16 115.657 208.959 115.592 208.754C115.536 208.539 115.489 208.376 115.452 208.264C115.377 208.553 115.298 208.838 115.214 209.118C115.139 209.389 115.074 209.603 115.018 209.762L113.884 212.786H117.048ZM124.141 217.14C123.469 217.14 122.877 217.005 122.363 216.734C121.85 216.463 121.444 216.043 121.145 215.474C120.856 214.905 120.711 214.177 120.711 213.29C120.711 212.366 120.861 211.615 121.159 211.036C121.467 210.457 121.887 210.033 122.419 209.762C122.951 209.491 123.553 209.356 124.225 209.356C124.599 209.356 124.963 209.398 125.317 209.482C125.681 209.557 125.975 209.65 126.199 209.762L125.821 210.784C125.597 210.7 125.336 210.621 125.037 210.546C124.739 210.471 124.459 210.434 124.197 210.434C122.723 210.434 121.985 211.381 121.985 213.276C121.985 214.181 122.163 214.877 122.517 215.362C122.881 215.838 123.418 216.076 124.127 216.076C124.529 216.076 124.888 216.034 125.205 215.95C125.523 215.866 125.812 215.763 126.073 215.642V216.734C125.821 216.865 125.541 216.963 125.233 217.028C124.935 217.103 124.571 217.14 124.141 217.14ZM130.364 216.132C130.551 216.132 130.742 216.118 130.938 216.09C131.134 216.062 131.293 216.025 131.414 215.978V216.916C131.283 216.981 131.097 217.033 130.854 217.07C130.611 217.117 130.378 217.14 130.154 217.14C129.762 217.14 129.398 217.075 129.062 216.944C128.735 216.804 128.469 216.566 128.264 216.23C128.059 215.894 127.956 215.423 127.956 214.816V210.448H126.892V209.86L127.97 209.37L128.46 207.774H129.188V209.496H131.358V210.448H129.188V214.788C129.188 215.245 129.295 215.586 129.51 215.81C129.734 216.025 130.019 216.132 130.364 216.132ZM133.547 206.682C133.733 206.682 133.897 206.747 134.037 206.878C134.186 206.999 134.261 207.195 134.261 207.466C134.261 207.737 134.186 207.937 134.037 208.068C133.897 208.189 133.733 208.25 133.547 208.25C133.341 208.25 133.169 208.189 133.029 208.068C132.889 207.937 132.819 207.737 132.819 207.466C132.819 207.195 132.889 206.999 133.029 206.878C133.169 206.747 133.341 206.682 133.547 206.682ZM134.149 209.496V217H132.917V209.496H134.149ZM143.05 213.234C143.05 214.475 142.733 215.437 142.098 216.118C141.473 216.799 140.623 217.14 139.55 217.14C138.887 217.14 138.295 216.991 137.772 216.692C137.259 216.384 136.853 215.941 136.554 215.362C136.255 214.774 136.106 214.065 136.106 213.234C136.106 211.993 136.414 211.036 137.03 210.364C137.655 209.692 138.509 209.356 139.592 209.356C140.264 209.356 140.861 209.51 141.384 209.818C141.907 210.117 142.313 210.555 142.602 211.134C142.901 211.703 143.05 212.403 143.05 213.234ZM137.38 213.234C137.38 214.121 137.553 214.825 137.898 215.348C138.253 215.861 138.813 216.118 139.578 216.118C140.334 216.118 140.889 215.861 141.244 215.348C141.599 214.825 141.776 214.121 141.776 213.234C141.776 212.347 141.599 211.652 141.244 211.148C140.889 210.644 140.329 210.392 139.564 210.392C138.799 210.392 138.243 210.644 137.898 211.148C137.553 211.652 137.38 212.347 137.38 213.234ZM148.615 209.356C149.511 209.356 150.187 209.575 150.645 210.014C151.102 210.453 151.331 211.153 151.331 212.114V217H150.113V212.198C150.113 210.994 149.553 210.392 148.433 210.392C147.602 210.392 147.028 210.625 146.711 211.092C146.393 211.559 146.235 212.231 146.235 213.108V217H145.003V209.496H145.997L146.179 210.518H146.249C146.491 210.126 146.827 209.837 147.257 209.65C147.686 209.454 148.139 209.356 148.615 209.356ZM157.924 206.682C158.11 206.682 158.274 206.747 158.414 206.878C158.563 206.999 158.638 207.195 158.638 207.466C158.638 207.737 158.563 207.937 158.414 208.068C158.274 208.189 158.11 208.25 157.924 208.25C157.718 208.25 157.546 208.189 157.406 208.068C157.266 207.937 157.196 207.737 157.196 207.466C157.196 207.195 157.266 206.999 157.406 206.878C157.546 206.747 157.718 206.682 157.924 206.682ZM158.526 209.496V217H157.294V209.496H158.526ZM163.409 216.132C163.596 216.132 163.787 216.118 163.983 216.09C164.179 216.062 164.338 216.025 164.459 215.978V216.916C164.328 216.981 164.142 217.033 163.899 217.07C163.656 217.117 163.423 217.14 163.199 217.14C162.807 217.14 162.443 217.075 162.107 216.944C161.78 216.804 161.514 216.566 161.309 216.23C161.104 215.894 161.001 215.423 161.001 214.816V210.448H159.937V209.86L161.015 209.37L161.505 207.774H162.233V209.496H164.403V210.448H162.233V214.788C162.233 215.245 162.34 215.586 162.555 215.81C162.779 216.025 163.064 216.132 163.409 216.132ZM168.859 209.356C169.494 209.356 170.045 209.496 170.511 209.776C170.978 210.056 171.333 210.453 171.575 210.966C171.827 211.47 171.953 212.063 171.953 212.744V213.486H166.815C166.834 214.335 167.049 214.984 167.459 215.432C167.879 215.871 168.463 216.09 169.209 216.09C169.685 216.09 170.105 216.048 170.469 215.964C170.843 215.871 171.225 215.74 171.617 215.572V216.65C171.235 216.818 170.857 216.939 170.483 217.014C170.11 217.098 169.667 217.14 169.153 217.14C168.435 217.14 167.805 216.995 167.263 216.706C166.722 216.417 166.297 215.987 165.989 215.418C165.691 214.849 165.541 214.144 165.541 213.304C165.541 212.483 165.677 211.778 165.947 211.19C166.227 210.602 166.615 210.149 167.109 209.832C167.613 209.515 168.197 209.356 168.859 209.356ZM168.845 210.364C168.257 210.364 167.791 210.555 167.445 210.938C167.109 211.311 166.909 211.834 166.843 212.506H170.665C170.656 211.871 170.507 211.358 170.217 210.966C169.928 210.565 169.471 210.364 168.845 210.364ZM182.096 209.356C182.945 209.356 183.58 209.575 184 210.014C184.42 210.453 184.63 211.153 184.63 212.114V217H183.412V212.17C183.412 210.985 182.903 210.392 181.886 210.392C181.158 210.392 180.635 210.602 180.318 211.022C180.01 211.442 179.856 212.053 179.856 212.856V217H178.638V212.17C178.638 210.985 178.124 210.392 177.098 210.392C176.342 210.392 175.819 210.625 175.53 211.092C175.24 211.559 175.096 212.231 175.096 213.108V217H173.864V209.496H174.858L175.04 210.518H175.11C175.343 210.126 175.656 209.837 176.048 209.65C176.449 209.454 176.874 209.356 177.322 209.356C178.498 209.356 179.263 209.776 179.618 210.616H179.688C179.94 210.187 180.28 209.869 180.71 209.664C181.139 209.459 181.601 209.356 182.096 209.356Z" fill="black"/>
<path d="M118.63 253L117.426 249.906H113.464L112.274 253H111L114.906 242.962H116.04L119.932 253H118.63ZM117.048 248.786L115.928 245.762C115.9 245.687 115.853 245.552 115.788 245.356C115.723 245.16 115.657 244.959 115.592 244.754C115.536 244.539 115.489 244.376 115.452 244.264C115.377 244.553 115.298 244.838 115.214 245.118C115.139 245.389 115.074 245.603 115.018 245.762L113.884 248.786H117.048ZM124.141 253.14C123.469 253.14 122.877 253.005 122.363 252.734C121.85 252.463 121.444 252.043 121.145 251.474C120.856 250.905 120.711 250.177 120.711 249.29C120.711 248.366 120.861 247.615 121.159 247.036C121.467 246.457 121.887 246.033 122.419 245.762C122.951 245.491 123.553 245.356 124.225 245.356C124.599 245.356 124.963 245.398 125.317 245.482C125.681 245.557 125.975 245.65 126.199 245.762L125.821 246.784C125.597 246.7 125.336 246.621 125.037 246.546C124.739 246.471 124.459 246.434 124.197 246.434C122.723 246.434 121.985 247.381 121.985 249.276C121.985 250.181 122.163 250.877 122.517 251.362C122.881 251.838 123.418 252.076 124.127 252.076C124.529 252.076 124.888 252.034 125.205 251.95C125.523 251.866 125.812 251.763 126.073 251.642V252.734C125.821 252.865 125.541 252.963 125.233 253.028C124.935 253.103 124.571 253.14 124.141 253.14ZM130.364 252.132C130.551 252.132 130.742 252.118 130.938 252.09C131.134 252.062 131.293 252.025 131.414 251.978V252.916C131.283 252.981 131.097 253.033 130.854 253.07C130.611 253.117 130.378 253.14 130.154 253.14C129.762 253.14 129.398 253.075 129.062 252.944C128.735 252.804 128.469 252.566 128.264 252.23C128.059 251.894 127.956 251.423 127.956 250.816V246.448H126.892V245.86L127.97 245.37L128.46 243.774H129.188V245.496H131.358V246.448H129.188V250.788C129.188 251.245 129.295 251.586 129.51 251.81C129.734 252.025 130.019 252.132 130.364 252.132ZM133.547 242.682C133.733 242.682 133.897 242.747 134.037 242.878C134.186 242.999 134.261 243.195 134.261 243.466C134.261 243.737 134.186 243.937 134.037 244.068C133.897 244.189 133.733 244.25 133.547 244.25C133.341 244.25 133.169 244.189 133.029 244.068C132.889 243.937 132.819 243.737 132.819 243.466C132.819 243.195 132.889 242.999 133.029 242.878C133.169 242.747 133.341 242.682 133.547 242.682ZM134.149 245.496V253H132.917V245.496H134.149ZM143.05 249.234C143.05 250.475 142.733 251.437 142.098 252.118C141.473 252.799 140.623 253.14 139.55 253.14C138.887 253.14 138.295 252.991 137.772 252.692C137.259 252.384 136.853 251.941 136.554 251.362C136.255 250.774 136.106 250.065 136.106 249.234C136.106 247.993 136.414 247.036 137.03 246.364C137.655 245.692 138.509 245.356 139.592 245.356C140.264 245.356 140.861 245.51 141.384 245.818C141.907 246.117 142.313 246.555 142.602 247.134C142.901 247.703 143.05 248.403 143.05 249.234ZM137.38 249.234C137.38 250.121 137.553 250.825 137.898 251.348C138.253 251.861 138.813 252.118 139.578 252.118C140.334 252.118 140.889 251.861 141.244 251.348C141.599 250.825 141.776 250.121 141.776 249.234C141.776 248.347 141.599 247.652 141.244 247.148C140.889 246.644 140.329 246.392 139.564 246.392C138.799 246.392 138.243 246.644 137.898 247.148C137.553 247.652 137.38 248.347 137.38 249.234ZM148.615 245.356C149.511 245.356 150.187 245.575 150.645 246.014C151.102 246.453 151.331 247.153 151.331 248.114V253H150.113V248.198C150.113 246.994 149.553 246.392 148.433 246.392C147.602 246.392 147.028 246.625 146.711 247.092C146.393 247.559 146.235 248.231 146.235 249.108V253H145.003V245.496H145.997L146.179 246.518H146.249C146.491 246.126 146.827 245.837 147.257 245.65C147.686 245.454 148.139 245.356 148.615 245.356ZM157.924 242.682C158.11 242.682 158.274 242.747 158.414 242.878C158.563 242.999 158.638 243.195 158.638 243.466C158.638 243.737 158.563 243.937 158.414 244.068C158.274 244.189 158.11 244.25 157.924 244.25C157.718 244.25 157.546 244.189 157.406 244.068C157.266 243.937 157.196 243.737 157.196 243.466C157.196 243.195 157.266 242.999 157.406 242.878C157.546 242.747 157.718 242.682 157.924 242.682ZM158.526 245.496V253H157.294V245.496H158.526ZM163.409 252.132C163.596 252.132 163.787 252.118 163.983 252.09C164.179 252.062 164.338 252.025 164.459 251.978V252.916C164.328 252.981 164.142 253.033 163.899 253.07C163.656 253.117 163.423 253.14 163.199 253.14C162.807 253.14 162.443 253.075 162.107 252.944C161.78 252.804 161.514 252.566 161.309 252.23C161.104 251.894 161.001 251.423 161.001 250.816V246.448H159.937V245.86L161.015 245.37L161.505 243.774H162.233V245.496H164.403V246.448H162.233V250.788C162.233 251.245 162.34 251.586 162.555 251.81C162.779 252.025 163.064 252.132 163.409 252.132ZM168.859 245.356C169.494 245.356 170.045 245.496 170.511 245.776C170.978 246.056 171.333 246.453 171.575 246.966C171.827 247.47 171.953 248.063 171.953 248.744V249.486H166.815C166.834 250.335 167.049 250.984 167.459 251.432C167.879 251.871 168.463 252.09 169.209 252.09C169.685 252.09 170.105 252.048 170.469 251.964C170.843 251.871 171.225 251.74 171.617 251.572V252.65C171.235 252.818 170.857 252.939 170.483 253.014C170.11 253.098 169.667 253.14 169.153 253.14C168.435 253.14 167.805 252.995 167.263 252.706C166.722 252.417 166.297 251.987 165.989 251.418C165.691 250.849 165.541 250.144 165.541 249.304C165.541 248.483 165.677 247.778 165.947 247.19C166.227 246.602 166.615 246.149 167.109 245.832C167.613 245.515 168.197 245.356 168.859 245.356ZM168.845 246.364C168.257 246.364 167.791 246.555 167.445 246.938C167.109 247.311 166.909 247.834 166.843 248.506H170.665C170.656 247.871 170.507 247.358 170.217 246.966C169.928 246.565 169.471 246.364 168.845 246.364ZM182.096 245.356C182.945 245.356 183.58 245.575 184 246.014C184.42 246.453 184.63 247.153 184.63 248.114V253H183.412V248.17C183.412 246.985 182.903 246.392 181.886 246.392C181.158 246.392 180.635 246.602 180.318 247.022C180.01 247.442 179.856 248.053 179.856 248.856V253H178.638V248.17C178.638 246.985 178.124 246.392 177.098 246.392C176.342 246.392 175.819 246.625 175.53 247.092C175.24 247.559 175.096 248.231 175.096 249.108V253H173.864V245.496H174.858L175.04 246.518H175.11C175.343 246.126 175.656 245.837 176.048 245.65C176.449 245.454 176.874 245.356 177.322 245.356C178.498 245.356 179.263 245.776 179.618 246.616H179.688C179.94 246.187 180.28 245.869 180.71 245.664C181.139 245.459 181.601 245.356 182.096 245.356Z" fill="black"/>
<path d="M118.63 289L117.426 285.906H113.464L112.274 289H111L114.906 278.962H116.04L119.932 289H118.63ZM117.048 284.786L115.928 281.762C115.9 281.687 115.853 281.552 115.788 281.356C115.723 281.16 115.657 280.959 115.592 280.754C115.536 280.539 115.489 280.376 115.452 280.264C115.377 280.553 115.298 280.838 115.214 281.118C115.139 281.389 115.074 281.603 115.018 281.762L113.884 284.786H117.048ZM124.141 289.14C123.469 289.14 122.877 289.005 122.363 288.734C121.85 288.463 121.444 288.043 121.145 287.474C120.856 286.905 120.711 286.177 120.711 285.29C120.711 284.366 120.861 283.615 121.159 283.036C121.467 282.457 121.887 282.033 122.419 281.762C122.951 281.491 123.553 281.356 124.225 281.356C124.599 281.356 124.963 281.398 125.317 281.482C125.681 281.557 125.975 281.65 126.199 281.762L125.821 282.784C125.597 282.7 125.336 282.621 125.037 282.546C124.739 282.471 124.459 282.434 124.197 282.434C122.723 282.434 121.985 283.381 121.985 285.276C121.985 286.181 122.163 286.877 122.517 287.362C122.881 287.838 123.418 288.076 124.127 288.076C124.529 288.076 124.888 288.034 125.205 287.95C125.523 287.866 125.812 287.763 126.073 287.642V288.734C125.821 288.865 125.541 288.963 125.233 289.028C124.935 289.103 124.571 289.14 124.141 289.14ZM130.364 288.132C130.551 288.132 130.742 288.118 130.938 288.09C131.134 288.062 131.293 288.025 131.414 287.978V288.916C131.283 288.981 131.097 289.033 130.854 289.07C130.611 289.117 130.378 289.14 130.154 289.14C129.762 289.14 129.398 289.075 129.062 288.944C128.735 288.804 128.469 288.566 128.264 288.23C128.059 287.894 127.956 287.423 127.956 286.816V282.448H126.892V281.86L127.97 281.37L128.46 279.774H129.188V281.496H131.358V282.448H129.188V286.788C129.188 287.245 129.295 287.586 129.51 287.81C129.734 288.025 130.019 288.132 130.364 288.132ZM133.547 278.682C133.733 278.682 133.897 278.747 134.037 278.878C134.186 278.999 134.261 279.195 134.261 279.466C134.261 279.737 134.186 279.937 134.037 280.068C133.897 280.189 133.733 280.25 133.547 280.25C133.341 280.25 133.169 280.189 133.029 280.068C132.889 279.937 132.819 279.737 132.819 279.466C132.819 279.195 132.889 278.999 133.029 278.878C133.169 278.747 133.341 278.682 133.547 278.682ZM134.149 281.496V289H132.917V281.496H134.149ZM143.05 285.234C143.05 286.475 142.733 287.437 142.098 288.118C141.473 288.799 140.623 289.14 139.55 289.14C138.887 289.14 138.295 288.991 137.772 288.692C137.259 288.384 136.853 287.941 136.554 287.362C136.255 286.774 136.106 286.065 136.106 285.234C136.106 283.993 136.414 283.036 137.03 282.364C137.655 281.692 138.509 281.356 139.592 281.356C140.264 281.356 140.861 281.51 141.384 281.818C141.907 282.117 142.313 282.555 142.602 283.134C142.901 283.703 143.05 284.403 143.05 285.234ZM137.38 285.234C137.38 286.121 137.553 286.825 137.898 287.348C138.253 287.861 138.813 288.118 139.578 288.118C140.334 288.118 140.889 287.861 141.244 287.348C141.599 286.825 141.776 286.121 141.776 285.234C141.776 284.347 141.599 283.652 141.244 283.148C140.889 282.644 140.329 282.392 139.564 282.392C138.799 282.392 138.243 282.644 137.898 283.148C137.553 283.652 137.38 284.347 137.38 285.234ZM148.615 281.356C149.511 281.356 150.187 281.575 150.645 282.014C151.102 282.453 151.331 283.153 151.331 284.114V289H150.113V284.198C150.113 282.994 149.553 282.392 148.433 282.392C147.602 282.392 147.028 282.625 146.711 283.092C146.393 283.559 146.235 284.231 146.235 285.108V289H145.003V281.496H145.997L146.179 282.518H146.249C146.491 282.126 146.827 281.837 147.257 281.65C147.686 281.454 148.139 281.356 148.615 281.356ZM157.924 278.682C158.11 278.682 158.274 278.747 158.414 278.878C158.563 278.999 158.638 279.195 158.638 279.466C158.638 279.737 158.563 279.937 158.414 280.068C158.274 280.189 158.11 280.25 157.924 280.25C157.718 280.25 157.546 280.189 157.406 280.068C157.266 279.937 157.196 279.737 157.196 279.466C157.196 279.195 157.266 278.999 157.406 278.878C157.546 278.747 157.718 278.682 157.924 278.682ZM158.526 281.496V289H157.294V281.496H158.526ZM163.409 288.132C163.596 288.132 163.787 288.118 163.983 288.09C164.179 288.062 164.338 288.025 164.459 287.978V288.916C164.328 288.981 164.142 289.033 163.899 289.07C163.656 289.117 163.423 289.14 163.199 289.14C162.807 289.14 162.443 289.075 162.107 288.944C161.78 288.804 161.514 288.566 161.309 288.23C161.104 287.894 161.001 287.423 161.001 286.816V282.448H159.937V281.86L161.015 281.37L161.505 279.774H162.233V281.496H164.403V282.448H162.233V286.788C162.233 287.245 162.34 287.586 162.555 287.81C162.779 288.025 163.064 288.132 163.409 288.132ZM168.859 281.356C169.494 281.356 170.045 281.496 170.511 281.776C170.978 282.056 171.333 282.453 171.575 282.966C171.827 283.47 171.953 284.063 171.953 284.744V285.486H166.815C166.834 286.335 167.049 286.984 167.459 287.432C167.879 287.871 168.463 288.09 169.209 288.09C169.685 288.09 170.105 288.048 170.469 287.964C170.843 287.871 171.225 287.74 171.617 287.572V288.65C171.235 288.818 170.857 288.939 170.483 289.014C170.11 289.098 169.667 289.14 169.153 289.14C168.435 289.14 167.805 288.995 167.263 288.706C166.722 288.417 166.297 287.987 165.989 287.418C165.691 286.849 165.541 286.144 165.541 285.304C165.541 284.483 165.677 283.778 165.947 283.19C166.227 282.602 166.615 282.149 167.109 281.832C167.613 281.515 168.197 281.356 168.859 281.356ZM168.845 282.364C168.257 282.364 167.791 282.555 167.445 282.938C167.109 283.311 166.909 283.834 166.843 284.506H170.665C170.656 283.871 170.507 283.358 170.217 282.966C169.928 282.565 169.471 282.364 168.845 282.364ZM182.096 281.356C182.945 281.356 183.58 281.575 184 282.014C184.42 282.453 184.63 283.153 184.63 284.114V289H183.412V284.17C183.412 282.985 182.903 282.392 181.886 282.392C181.158 282.392 180.635 282.602 180.318 283.022C180.01 283.442 179.856 284.053 179.856 284.856V289H178.638V284.17C178.638 282.985 178.124 282.392 177.098 282.392C176.342 282.392 175.819 282.625 175.53 283.092C175.24 283.559 175.096 284.231 175.096 285.108V289H173.864V281.496H174.858L175.04 282.518H175.11C175.343 282.126 175.656 281.837 176.048 281.65C176.449 281.454 176.874 281.356 177.322 281.356C178.498 281.356 179.263 281.776 179.618 282.616H179.688C179.94 282.187 180.28 281.869 180.71 281.664C181.139 281.459 181.601 281.356 182.096 281.356Z" fill="black"/>
<path d="M118.63 325L117.426 321.906H113.464L112.274 325H111L114.906 314.962H116.04L119.932 325H118.63ZM117.048 320.786L115.928 317.762C115.9 317.687 115.853 317.552 115.788 317.356C115.723 317.16 115.657 316.959 115.592 316.754C115.536 316.539 115.489 316.376 115.452 316.264C115.377 316.553 115.298 316.838 115.214 317.118C115.139 317.389 115.074 317.603 115.018 317.762L113.884 320.786H117.048ZM124.141 325.14C123.469 325.14 122.877 325.005 122.363 324.734C121.85 324.463 121.444 324.043 121.145 323.474C120.856 322.905 120.711 322.177 120.711 321.29C120.711 320.366 120.861 319.615 121.159 319.036C121.467 318.457 121.887 318.033 122.419 317.762C122.951 317.491 123.553 317.356 124.225 317.356C124.599 317.356 124.963 317.398 125.317 317.482C125.681 317.557 125.975 317.65 126.199 317.762L125.821 318.784C125.597 318.7 125.336 318.621 125.037 318.546C124.739 318.471 124.459 318.434 124.197 318.434C122.723 318.434 121.985 319.381 121.985 321.276C121.985 322.181 122.163 322.877 122.517 323.362C122.881 323.838 123.418 324.076 124.127 324.076C124.529 324.076 124.888 324.034 125.205 323.95C125.523 323.866 125.812 323.763 126.073 323.642V324.734C125.821 324.865 125.541 324.963 125.233 325.028C124.935 325.103 124.571 325.14 124.141 325.14ZM130.364 324.132C130.551 324.132 130.742 324.118 130.938 324.09C131.134 324.062 131.293 324.025 131.414 323.978V324.916C131.283 324.981 131.097 325.033 130.854 325.07C130.611 325.117 130.378 325.14 130.154 325.14C129.762 325.14 129.398 325.075 129.062 324.944C128.735 324.804 128.469 324.566 128.264 324.23C128.059 323.894 127.956 323.423 127.956 322.816V318.448H126.892V317.86L127.97 317.37L128.46 315.774H129.188V317.496H131.358V318.448H129.188V322.788C129.188 323.245 129.295 323.586 129.51 323.81C129.734 324.025 130.019 324.132 130.364 324.132ZM133.547 314.682C133.733 314.682 133.897 314.747 134.037 314.878C134.186 314.999 134.261 315.195 134.261 315.466C134.261 315.737 134.186 315.937 134.037 316.068C133.897 316.189 133.733 316.25 133.547 316.25C133.341 316.25 133.169 316.189 133.029 316.068C132.889 315.937 132.819 315.737 132.819 315.466C132.819 315.195 132.889 314.999 133.029 314.878C133.169 314.747 133.341 314.682 133.547 314.682ZM134.149 317.496V325H132.917V317.496H134.149ZM143.05 321.234C143.05 322.475 142.733 323.437 142.098 324.118C141.473 324.799 140.623 325.14 139.55 325.14C138.887 325.14 138.295 324.991 137.772 324.692C137.259 324.384 136.853 323.941 136.554 323.362C136.255 322.774 136.106 322.065 136.106 321.234C136.106 319.993 136.414 319.036 137.03 318.364C137.655 317.692 138.509 317.356 139.592 317.356C140.264 317.356 140.861 317.51 141.384 317.818C141.907 318.117 142.313 318.555 142.602 319.134C142.901 319.703 143.05 320.403 143.05 321.234ZM137.38 321.234C137.38 322.121 137.553 322.825 137.898 323.348C138.253 323.861 138.813 324.118 139.578 324.118C140.334 324.118 140.889 323.861 141.244 323.348C141.599 322.825 141.776 322.121 141.776 321.234C141.776 320.347 141.599 319.652 141.244 319.148C140.889 318.644 140.329 318.392 139.564 318.392C138.799 318.392 138.243 318.644 137.898 319.148C137.553 319.652 137.38 320.347 137.38 321.234ZM148.615 317.356C149.511 317.356 150.187 317.575 150.645 318.014C151.102 318.453 151.331 319.153 151.331 320.114V325H150.113V320.198C150.113 318.994 149.553 318.392 148.433 318.392C147.602 318.392 147.028 318.625 146.711 319.092C146.393 319.559 146.235 320.231 146.235 321.108V325H145.003V317.496H145.997L146.179 318.518H146.249C146.491 318.126 146.827 317.837 147.257 317.65C147.686 317.454 148.139 317.356 148.615 317.356ZM157.924 314.682C158.11 314.682 158.274 314.747 158.414 314.878C158.563 314.999 158.638 315.195 158.638 315.466C158.638 315.737 158.563 315.937 158.414 316.068C158.274 316.189 158.11 316.25 157.924 316.25C157.718 316.25 157.546 316.189 157.406 316.068C157.266 315.937 157.196 315.737 157.196 315.466C157.196 315.195 157.266 314.999 157.406 314.878C157.546 314.747 157.718 314.682 157.924 314.682ZM158.526 317.496V325H157.294V317.496H158.526ZM163.409 324.132C163.596 324.132 163.787 324.118 163.983 324.09C164.179 324.062 164.338 324.025 164.459 323.978V324.916C164.328 324.981 164.142 325.033 163.899 325.07C163.656 325.117 163.423 325.14 163.199 325.14C162.807 325.14 162.443 325.075 162.107 324.944C161.78 324.804 161.514 324.566 161.309 324.23C161.104 323.894 161.001 323.423 161.001 322.816V318.448H159.937V317.86L161.015 317.37L161.505 315.774H162.233V317.496H164.403V318.448H162.233V322.788C162.233 323.245 162.34 323.586 162.555 323.81C162.779 324.025 163.064 324.132 163.409 324.132ZM168.859 317.356C169.494 317.356 170.045 317.496 170.511 317.776C170.978 318.056 171.333 318.453 171.575 318.966C171.827 319.47 171.953 320.063 171.953 320.744V321.486H166.815C166.834 322.335 167.049 322.984 167.459 323.432C167.879 323.871 168.463 324.09 169.209 324.09C169.685 324.09 170.105 324.048 170.469 323.964C170.843 323.871 171.225 323.74 171.617 323.572V324.65C171.235 324.818 170.857 324.939 170.483 325.014C170.11 325.098 169.667 325.14 169.153 325.14C168.435 325.14 167.805 324.995 167.263 324.706C166.722 324.417 166.297 323.987 165.989 323.418C165.691 322.849 165.541 322.144 165.541 321.304C165.541 320.483 165.677 319.778 165.947 319.19C166.227 318.602 166.615 318.149 167.109 317.832C167.613 317.515 168.197 317.356 168.859 317.356ZM168.845 318.364C168.257 318.364 167.791 318.555 167.445 318.938C167.109 319.311 166.909 319.834 166.843 320.506H170.665C170.656 319.871 170.507 319.358 170.217 318.966C169.928 318.565 169.471 318.364 168.845 318.364ZM182.096 317.356C182.945 317.356 183.58 317.575 184 318.014C184.42 318.453 184.63 319.153 184.63 320.114V325H183.412V320.17C183.412 318.985 182.903 318.392 181.886 318.392C181.158 318.392 180.635 318.602 180.318 319.022C180.01 319.442 179.856 320.053 179.856 320.856V325H178.638V320.17C178.638 318.985 178.124 318.392 177.098 318.392C176.342 318.392 175.819 318.625 175.53 319.092C175.24 319.559 175.096 320.231 175.096 321.108V325H173.864V317.496H174.858L175.04 318.518H175.11C175.343 318.126 175.656 317.837 176.048 317.65C176.449 317.454 176.874 317.356 177.322 317.356C178.498 317.356 179.263 317.776 179.618 318.616H179.688C179.94 318.187 180.28 317.869 180.71 317.664C181.139 317.459 181.601 317.356 182.096 317.356Z" fill="black"/>
<path d="M118.63 361L117.426 357.906H113.464L112.274 361H111L114.906 350.962H116.04L119.932 361H118.63ZM117.048 356.786L115.928 353.762C115.9 353.687 115.853 353.552 115.788 353.356C115.723 353.16 115.657 352.959 115.592 352.754C115.536 352.539 115.489 352.376 115.452 352.264C115.377 352.553 115.298 352.838 115.214 353.118C115.139 353.389 115.074 353.603 115.018 353.762L113.884 356.786H117.048ZM124.141 361.14C123.469 361.14 122.877 361.005 122.363 360.734C121.85 360.463 121.444 360.043 121.145 359.474C120.856 358.905 120.711 358.177 120.711 357.29C120.711 356.366 120.861 355.615 121.159 355.036C121.467 354.457 121.887 354.033 122.419 353.762C122.951 353.491 123.553 353.356 124.225 353.356C124.599 353.356 124.963 353.398 125.317 353.482C125.681 353.557 125.975 353.65 126.199 353.762L125.821 354.784C125.597 354.7 125.336 354.621 125.037 354.546C124.739 354.471 124.459 354.434 124.197 354.434C122.723 354.434 121.985 355.381 121.985 357.276C121.985 358.181 122.163 358.877 122.517 359.362C122.881 359.838 123.418 360.076 124.127 360.076C124.529 360.076 124.888 360.034 125.205 359.95C125.523 359.866 125.812 359.763 126.073 359.642V360.734C125.821 360.865 125.541 360.963 125.233 361.028C124.935 361.103 124.571 361.14 124.141 361.14ZM130.364 360.132C130.551 360.132 130.742 360.118 130.938 360.09C131.134 360.062 131.293 360.025 131.414 359.978V360.916C131.283 360.981 131.097 361.033 130.854 361.07C130.611 361.117 130.378 361.14 130.154 361.14C129.762 361.14 129.398 361.075 129.062 360.944C128.735 360.804 128.469 360.566 128.264 360.23C128.059 359.894 127.956 359.423 127.956 358.816V354.448H126.892V353.86L127.97 353.37L128.46 351.774H129.188V353.496H131.358V354.448H129.188V358.788C129.188 359.245 129.295 359.586 129.51 359.81C129.734 360.025 130.019 360.132 130.364 360.132ZM133.547 350.682C133.733 350.682 133.897 350.747 134.037 350.878C134.186 350.999 134.261 351.195 134.261 351.466C134.261 351.737 134.186 351.937 134.037 352.068C133.897 352.189 133.733 352.25 133.547 352.25C133.341 352.25 133.169 352.189 133.029 352.068C132.889 351.937 132.819 351.737 132.819 351.466C132.819 351.195 132.889 350.999 133.029 350.878C133.169 350.747 133.341 350.682 133.547 350.682ZM134.149 353.496V361H132.917V353.496H134.149ZM143.05 357.234C143.05 358.475 142.733 359.437 142.098 360.118C141.473 360.799 140.623 361.14 139.55 361.14C138.887 361.14 138.295 360.991 137.772 360.692C137.259 360.384 136.853 359.941 136.554 359.362C136.255 358.774 136.106 358.065 136.106 357.234C136.106 355.993 136.414 355.036 137.03 354.364C137.655 353.692 138.509 353.356 139.592 353.356C140.264 353.356 140.861 353.51 141.384 353.818C141.907 354.117 142.313 354.555 142.602 355.134C142.901 355.703 143.05 356.403 143.05 357.234ZM137.38 357.234C137.38 358.121 137.553 358.825 137.898 359.348C138.253 359.861 138.813 360.118 139.578 360.118C140.334 360.118 140.889 359.861 141.244 359.348C141.599 358.825 141.776 358.121 141.776 357.234C141.776 356.347 141.599 355.652 141.244 355.148C140.889 354.644 140.329 354.392 139.564 354.392C138.799 354.392 138.243 354.644 137.898 355.148C137.553 355.652 137.38 356.347 137.38 357.234ZM148.615 353.356C149.511 353.356 150.187 353.575 150.645 354.014C151.102 354.453 151.331 355.153 151.331 356.114V361H150.113V356.198C150.113 354.994 149.553 354.392 148.433 354.392C147.602 354.392 147.028 354.625 146.711 355.092C146.393 355.559 146.235 356.231 146.235 357.108V361H145.003V353.496H145.997L146.179 354.518H146.249C146.491 354.126 146.827 353.837 147.257 353.65C147.686 353.454 148.139 353.356 148.615 353.356ZM157.924 350.682C158.11 350.682 158.274 350.747 158.414 350.878C158.563 350.999 158.638 351.195 158.638 351.466C158.638 351.737 158.563 351.937 158.414 352.068C158.274 352.189 158.11 352.25 157.924 352.25C157.718 352.25 157.546 352.189 157.406 352.068C157.266 351.937 157.196 351.737 157.196 351.466C157.196 351.195 157.266 350.999 157.406 350.878C157.546 350.747 157.718 350.682 157.924 350.682ZM158.526 353.496V361H157.294V353.496H158.526ZM163.409 360.132C163.596 360.132 163.787 360.118 163.983 360.09C164.179 360.062 164.338 360.025 164.459 359.978V360.916C164.328 360.981 164.142 361.033 163.899 361.07C163.656 361.117 163.423 361.14 163.199 361.14C162.807 361.14 162.443 361.075 162.107 360.944C161.78 360.804 161.514 360.566 161.309 360.23C161.104 359.894 161.001 359.423 161.001 358.816V354.448H159.937V353.86L161.015 353.37L161.505 351.774H162.233V353.496H164.403V354.448H162.233V358.788C162.233 359.245 162.34 359.586 162.555 359.81C162.779 360.025 163.064 360.132 163.409 360.132ZM168.859 353.356C169.494 353.356 170.045 353.496 170.511 353.776C170.978 354.056 171.333 354.453 171.575 354.966C171.827 355.47 171.953 356.063 171.953 356.744V357.486H166.815C166.834 358.335 167.049 358.984 167.459 359.432C167.879 359.871 168.463 360.09 169.209 360.09C169.685 360.09 170.105 360.048 170.469 359.964C170.843 359.871 171.225 359.74 171.617 359.572V360.65C171.235 360.818 170.857 360.939 170.483 361.014C170.11 361.098 169.667 361.14 169.153 361.14C168.435 361.14 167.805 360.995 167.263 360.706C166.722 360.417 166.297 359.987 165.989 359.418C165.691 358.849 165.541 358.144 165.541 357.304C165.541 356.483 165.677 355.778 165.947 355.19C166.227 354.602 166.615 354.149 167.109 353.832C167.613 353.515 168.197 353.356 168.859 353.356ZM168.845 354.364C168.257 354.364 167.791 354.555 167.445 354.938C167.109 355.311 166.909 355.834 166.843 356.506H170.665C170.656 355.871 170.507 355.358 170.217 354.966C169.928 354.565 169.471 354.364 168.845 354.364ZM182.096 353.356C182.945 353.356 183.58 353.575 184 354.014C184.42 354.453 184.63 355.153 184.63 356.114V361H183.412V356.17C183.412 354.985 182.903 354.392 181.886 354.392C181.158 354.392 180.635 354.602 180.318 355.022C180.01 355.442 179.856 356.053 179.856 356.856V361H178.638V356.17C178.638 354.985 178.124 354.392 177.098 354.392C176.342 354.392 175.819 354.625 175.53 355.092C175.24 355.559 175.096 356.231 175.096 357.108V361H173.864V353.496H174.858L175.04 354.518H175.11C175.343 354.126 175.656 353.837 176.048 353.65C176.449 353.454 176.874 353.356 177.322 353.356C178.498 353.356 179.263 353.776 179.618 354.616H179.688C179.94 354.187 180.28 353.869 180.71 353.664C181.139 353.459 181.601 353.356 182.096 353.356Z" fill="black"/>
<path d="M118.63 397L117.426 393.906H113.464L112.274 397H111L114.906 386.962H116.04L119.932 397H118.63ZM117.048 392.786L115.928 389.762C115.9 389.687 115.853 389.552 115.788 389.356C115.723 389.16 115.657 388.959 115.592 388.754C115.536 388.539 115.489 388.376 115.452 388.264C115.377 388.553 115.298 388.838 115.214 389.118C115.139 389.389 115.074 389.603 115.018 389.762L113.884 392.786H117.048ZM124.141 397.14C123.469 397.14 122.877 397.005 122.363 396.734C121.85 396.463 121.444 396.043 121.145 395.474C120.856 394.905 120.711 394.177 120.711 393.29C120.711 392.366 120.861 391.615 121.159 391.036C121.467 390.457 121.887 390.033 122.419 389.762C122.951 389.491 123.553 389.356 124.225 389.356C124.599 389.356 124.963 389.398 125.317 389.482C125.681 389.557 125.975 389.65 126.199 389.762L125.821 390.784C125.597 390.7 125.336 390.621 125.037 390.546C124.739 390.471 124.459 390.434 124.197 390.434C122.723 390.434 121.985 391.381 121.985 393.276C121.985 394.181 122.163 394.877 122.517 395.362C122.881 395.838 123.418 396.076 124.127 396.076C124.529 396.076 124.888 396.034 125.205 395.95C125.523 395.866 125.812 395.763 126.073 395.642V396.734C125.821 396.865 125.541 396.963 125.233 397.028C124.935 397.103 124.571 397.14 124.141 397.14ZM130.364 396.132C130.551 396.132 130.742 396.118 130.938 396.09C131.134 396.062 131.293 396.025 131.414 395.978V396.916C131.283 396.981 131.097 397.033 130.854 397.07C130.611 397.117 130.378 397.14 130.154 397.14C129.762 397.14 129.398 397.075 129.062 396.944C128.735 396.804 128.469 396.566 128.264 396.23C128.059 395.894 127.956 395.423 127.956 394.816V390.448H126.892V389.86L127.97 389.37L128.46 387.774H129.188V389.496H131.358V390.448H129.188V394.788C129.188 395.245 129.295 395.586 129.51 395.81C129.734 396.025 130.019 396.132 130.364 396.132ZM133.547 386.682C133.733 386.682 133.897 386.747 134.037 386.878C134.186 386.999 134.261 387.195 134.261 387.466C134.261 387.737 134.186 387.937 134.037 388.068C133.897 388.189 133.733 388.25 133.547 388.25C133.341 388.25 133.169 388.189 133.029 388.068C132.889 387.937 132.819 387.737 132.819 387.466C132.819 387.195 132.889 386.999 133.029 386.878C133.169 386.747 133.341 386.682 133.547 386.682ZM134.149 389.496V397H132.917V389.496H134.149ZM143.05 393.234C143.05 394.475 142.733 395.437 142.098 396.118C141.473 396.799 140.623 397.14 139.55 397.14C138.887 397.14 138.295 396.991 137.772 396.692C137.259 396.384 136.853 395.941 136.554 395.362C136.255 394.774 136.106 394.065 136.106 393.234C136.106 391.993 136.414 391.036 137.03 390.364C137.655 389.692 138.509 389.356 139.592 389.356C140.264 389.356 140.861 389.51 141.384 389.818C141.907 390.117 142.313 390.555 142.602 391.134C142.901 391.703 143.05 392.403 143.05 393.234ZM137.38 393.234C137.38 394.121 137.553 394.825 137.898 395.348C138.253 395.861 138.813 396.118 139.578 396.118C140.334 396.118 140.889 395.861 141.244 395.348C141.599 394.825 141.776 394.121 141.776 393.234C141.776 392.347 141.599 391.652 141.244 391.148C140.889 390.644 140.329 390.392 139.564 390.392C138.799 390.392 138.243 390.644 137.898 391.148C137.553 391.652 137.38 392.347 137.38 393.234ZM148.615 389.356C149.511 389.356 150.187 389.575 150.645 390.014C151.102 390.453 151.331 391.153 151.331 392.114V397H150.113V392.198C150.113 390.994 149.553 390.392 148.433 390.392C147.602 390.392 147.028 390.625 146.711 391.092C146.393 391.559 146.235 392.231 146.235 393.108V397H145.003V389.496H145.997L146.179 390.518H146.249C146.491 390.126 146.827 389.837 147.257 389.65C147.686 389.454 148.139 389.356 148.615 389.356ZM157.924 386.682C158.11 386.682 158.274 386.747 158.414 386.878C158.563 386.999 158.638 387.195 158.638 387.466C158.638 387.737 158.563 387.937 158.414 388.068C158.274 388.189 158.11 388.25 157.924 388.25C157.718 388.25 157.546 388.189 157.406 388.068C157.266 387.937 157.196 387.737 157.196 387.466C157.196 387.195 157.266 386.999 157.406 386.878C157.546 386.747 157.718 386.682 157.924 386.682ZM158.526 389.496V397H157.294V389.496H158.526ZM163.409 396.132C163.596 396.132 163.787 396.118 163.983 396.09C164.179 396.062 164.338 396.025 164.459 395.978V396.916C164.328 396.981 164.142 397.033 163.899 397.07C163.656 397.117 163.423 397.14 163.199 397.14C162.807 397.14 162.443 397.075 162.107 396.944C161.78 396.804 161.514 396.566 161.309 396.23C161.104 395.894 161.001 395.423 161.001 394.816V390.448H159.937V389.86L161.015 389.37L161.505 387.774H162.233V389.496H164.403V390.448H162.233V394.788C162.233 395.245 162.34 395.586 162.555 395.81C162.779 396.025 163.064 396.132 163.409 396.132ZM168.859 389.356C169.494 389.356 170.045 389.496 170.511 389.776C170.978 390.056 171.333 390.453 171.575 390.966C171.827 391.47 171.953 392.063 171.953 392.744V393.486H166.815C166.834 394.335 167.049 394.984 167.459 395.432C167.879 395.871 168.463 396.09 169.209 396.09C169.685 396.09 170.105 396.048 170.469 395.964C170.843 395.871 171.225 395.74 171.617 395.572V396.65C171.235 396.818 170.857 396.939 170.483 397.014C170.11 397.098 169.667 397.14 169.153 397.14C168.435 397.14 167.805 396.995 167.263 396.706C166.722 396.417 166.297 395.987 165.989 395.418C165.691 394.849 165.541 394.144 165.541 393.304C165.541 392.483 165.677 391.778 165.947 391.19C166.227 390.602 166.615 390.149 167.109 389.832C167.613 389.515 168.197 389.356 168.859 389.356ZM168.845 390.364C168.257 390.364 167.791 390.555 167.445 390.938C167.109 391.311 166.909 391.834 166.843 392.506H170.665C170.656 391.871 170.507 391.358 170.217 390.966C169.928 390.565 169.471 390.364 168.845 390.364ZM182.096 389.356C182.945 389.356 183.58 389.575 184 390.014C184.42 390.453 184.63 391.153 184.63 392.114V397H183.412V392.17C183.412 390.985 182.903 390.392 181.886 390.392C181.158 390.392 180.635 390.602 180.318 391.022C180.01 391.442 179.856 392.053 179.856 392.856V397H178.638V392.17C178.638 390.985 178.124 390.392 177.098 390.392C176.342 390.392 175.819 390.625 175.53 391.092C175.24 391.559 175.096 392.231 175.096 393.108V397H173.864V389.496H174.858L175.04 390.518H175.11C175.343 390.126 175.656 389.837 176.048 389.65C176.449 389.454 176.874 389.356 177.322 389.356C178.498 389.356 179.263 389.776 179.618 390.616H179.688C179.94 390.187 180.28 389.869 180.71 389.664C181.139 389.459 181.601 389.356 182.096 389.356Z" fill="black"/>
<path d="M118.63 433L117.426 429.906H113.464L112.274 433H111L114.906 422.962H116.04L119.932 433H118.63ZM117.048 428.786L115.928 425.762C115.9 425.687 115.853 425.552 115.788 425.356C115.723 425.16 115.657 424.959 115.592 424.754C115.536 424.539 115.489 424.376 115.452 424.264C115.377 424.553 115.298 424.838 115.214 425.118C115.139 425.389 115.074 425.603 115.018 425.762L113.884 428.786H117.048ZM124.141 433.14C123.469 433.14 122.877 433.005 122.363 432.734C121.85 432.463 121.444 432.043 121.145 431.474C120.856 430.905 120.711 430.177 120.711 429.29C120.711 428.366 120.861 427.615 121.159 427.036C121.467 426.457 121.887 426.033 122.419 425.762C122.951 425.491 123.553 425.356 124.225 425.356C124.599 425.356 124.963 425.398 125.317 425.482C125.681 425.557 125.975 425.65 126.199 425.762L125.821 426.784C125.597 426.7 125.336 426.621 125.037 426.546C124.739 426.471 124.459 426.434 124.197 426.434C122.723 426.434 121.985 427.381 121.985 429.276C121.985 430.181 122.163 430.877 122.517 431.362C122.881 431.838 123.418 432.076 124.127 432.076C124.529 432.076 124.888 432.034 125.205 431.95C125.523 431.866 125.812 431.763 126.073 431.642V432.734C125.821 432.865 125.541 432.963 125.233 433.028C124.935 433.103 124.571 433.14 124.141 433.14ZM130.364 432.132C130.551 432.132 130.742 432.118 130.938 432.09C131.134 432.062 131.293 432.025 131.414 431.978V432.916C131.283 432.981 131.097 433.033 130.854 433.07C130.611 433.117 130.378 433.14 130.154 433.14C129.762 433.14 129.398 433.075 129.062 432.944C128.735 432.804 128.469 432.566 128.264 432.23C128.059 431.894 127.956 431.423 127.956 430.816V426.448H126.892V425.86L127.97 425.37L128.46 423.774H129.188V425.496H131.358V426.448H129.188V430.788C129.188 431.245 129.295 431.586 129.51 431.81C129.734 432.025 130.019 432.132 130.364 432.132ZM133.547 422.682C133.733 422.682 133.897 422.747 134.037 422.878C134.186 422.999 134.261 423.195 134.261 423.466C134.261 423.737 134.186 423.937 134.037 424.068C133.897 424.189 133.733 424.25 133.547 424.25C133.341 424.25 133.169 424.189 133.029 424.068C132.889 423.937 132.819 423.737 132.819 423.466C132.819 423.195 132.889 422.999 133.029 422.878C133.169 422.747 133.341 422.682 133.547 422.682ZM134.149 425.496V433H132.917V425.496H134.149ZM143.05 429.234C143.05 430.475 142.733 431.437 142.098 432.118C141.473 432.799 140.623 433.14 139.55 433.14C138.887 433.14 138.295 432.991 137.772 432.692C137.259 432.384 136.853 431.941 136.554 431.362C136.255 430.774 136.106 430.065 136.106 429.234C136.106 427.993 136.414 427.036 137.03 426.364C137.655 425.692 138.509 425.356 139.592 425.356C140.264 425.356 140.861 425.51 141.384 425.818C141.907 426.117 142.313 426.555 142.602 427.134C142.901 427.703 143.05 428.403 143.05 429.234ZM137.38 429.234C137.38 430.121 137.553 430.825 137.898 431.348C138.253 431.861 138.813 432.118 139.578 432.118C140.334 432.118 140.889 431.861 141.244 431.348C141.599 430.825 141.776 430.121 141.776 429.234C141.776 428.347 141.599 427.652 141.244 427.148C140.889 426.644 140.329 426.392 139.564 426.392C138.799 426.392 138.243 426.644 137.898 427.148C137.553 427.652 137.38 428.347 137.38 429.234ZM148.615 425.356C149.511 425.356 150.187 425.575 150.645 426.014C151.102 426.453 151.331 427.153 151.331 428.114V433H150.113V428.198C150.113 426.994 149.553 426.392 148.433 426.392C147.602 426.392 147.028 426.625 146.711 427.092C146.393 427.559 146.235 428.231 146.235 429.108V433H145.003V425.496H145.997L146.179 426.518H146.249C146.491 426.126 146.827 425.837 147.257 425.65C147.686 425.454 148.139 425.356 148.615 425.356ZM157.924 422.682C158.11 422.682 158.274 422.747 158.414 422.878C158.563 422.999 158.638 423.195 158.638 423.466C158.638 423.737 158.563 423.937 158.414 424.068C158.274 424.189 158.11 424.25 157.924 424.25C157.718 424.25 157.546 424.189 157.406 424.068C157.266 423.937 157.196 423.737 157.196 423.466C157.196 423.195 157.266 422.999 157.406 422.878C157.546 422.747 157.718 422.682 157.924 422.682ZM158.526 425.496V433H157.294V425.496H158.526ZM163.409 432.132C163.596 432.132 163.787 432.118 163.983 432.09C164.179 432.062 164.338 432.025 164.459 431.978V432.916C164.328 432.981 164.142 433.033 163.899 433.07C163.656 433.117 163.423 433.14 163.199 433.14C162.807 433.14 162.443 433.075 162.107 432.944C161.78 432.804 161.514 432.566 161.309 432.23C161.104 431.894 161.001 431.423 161.001 430.816V426.448H159.937V425.86L161.015 425.37L161.505 423.774H162.233V425.496H164.403V426.448H162.233V430.788C162.233 431.245 162.34 431.586 162.555 431.81C162.779 432.025 163.064 432.132 163.409 432.132ZM168.859 425.356C169.494 425.356 170.045 425.496 170.511 425.776C170.978 426.056 171.333 426.453 171.575 426.966C171.827 427.47 171.953 428.063 171.953 428.744V429.486H166.815C166.834 430.335 167.049 430.984 167.459 431.432C167.879 431.871 168.463 432.09 169.209 432.09C169.685 432.09 170.105 432.048 170.469 431.964C170.843 431.871 171.225 431.74 171.617 431.572V432.65C171.235 432.818 170.857 432.939 170.483 433.014C170.11 433.098 169.667 433.14 169.153 433.14C168.435 433.14 167.805 432.995 167.263 432.706C166.722 432.417 166.297 431.987 165.989 431.418C165.691 430.849 165.541 430.144 165.541 429.304C165.541 428.483 165.677 427.778 165.947 427.19C166.227 426.602 166.615 426.149 167.109 425.832C167.613 425.515 168.197 425.356 168.859 425.356ZM168.845 426.364C168.257 426.364 167.791 426.555 167.445 426.938C167.109 427.311 166.909 427.834 166.843 428.506H170.665C170.656 427.871 170.507 427.358 170.217 426.966C169.928 426.565 169.471 426.364 168.845 426.364ZM182.096 425.356C182.945 425.356 183.58 425.575 184 426.014C184.42 426.453 184.63 427.153 184.63 428.114V433H183.412V428.17C183.412 426.985 182.903 426.392 181.886 426.392C181.158 426.392 180.635 426.602 180.318 427.022C180.01 427.442 179.856 428.053 179.856 428.856V433H178.638V428.17C178.638 426.985 178.124 426.392 177.098 426.392C176.342 426.392 175.819 426.625 175.53 427.092C175.24 427.559 175.096 428.231 175.096 429.108V433H173.864V425.496H174.858L175.04 426.518H175.11C175.343 426.126 175.656 425.837 176.048 425.65C176.449 425.454 176.874 425.356 177.322 425.356C178.498 425.356 179.263 425.776 179.618 426.616H179.688C179.94 426.187 180.28 425.869 180.71 425.664C181.139 425.459 181.601 425.356 182.096 425.356Z" fill="black"/>
<rect x="102.5" y="85.5" width="207" height="361" rx="4.5" stroke="black" stroke-opacity="0.15"/>
</g>
<path d="M292 86H305C307.209 86 309 87.7909 309 90V442C309 444.209 307.209 446 305 446H292V86Z" fill="#F1F1F1"/>
<path d="M304 97H297V96H298V95H299V94H300V93H301V94H302V95H303V96H304V97Z" fill="#505050"/>
<path d="M297 435L304 435V436L303 436V437H302V438L301 438V439H300V438H299V437L298 437L298 436L297 436L297 435Z" fill="#505050"/>
<rect width="13" height="25" transform="translate(294 100)" fill="#C1C1C1"/>
<defs>
<filter id="filter0_d_7874_526176" x="98" y="85" width="216" height="370" filterUnits="userSpaceOnUse" color-interpolation-filters="sRGB">
<feFlood flood-opacity="0" result="BackgroundImageFix"/>
<feColorMatrix in="SourceAlpha" type="matrix" values="0 0 0 0 0 0 0 0 0 0 0 0 0 0 0 0 0 0 127 0" result="hardAlpha"/>
<feOffset dy="4"/>
<feGaussianBlur stdDeviation="2"/>
<feColorMatrix type="matrix" values="0 0 0 0 0 0 0 0 0 0 0 0 0 0 0 0 0 0 0.25 0"/>
<feBlend mode="normal" in2="BackgroundImageFix" result="effect1_dropShadow_7874_526176"/>
<feBlend mode="normal" in="SourceGraphic" in2="effect1_dropShadow_7874_526176" result="shape"/>
</filter>
</defs>
</svg>
