<svg width="412" height="532" viewBox="0 0 412 532" fill="none" xmlns="http://www.w3.org/2000/svg">
<g filter="url(#filter0_d_7874_526290)">
<rect x="103" y="32" width="206" height="468" rx="4" fill="white"/>
<path d="M118.63 55L117.426 51.906H113.464L112.274 55H111L114.906 44.962H116.04L119.932 55H118.63ZM117.048 50.786L115.928 47.762C115.9 47.6873 115.853 47.552 115.788 47.356C115.723 47.16 115.657 46.9593 115.592 46.754C115.536 46.5393 115.489 46.376 115.452 46.264C115.377 46.5533 115.298 46.838 115.214 47.118C115.139 47.3887 115.074 47.6033 115.018 47.762L113.884 50.786H117.048ZM124.141 55.14C123.469 55.14 122.877 55.0047 122.363 54.734C121.85 54.4633 121.444 54.0433 121.145 53.474C120.856 52.9047 120.711 52.1767 120.711 51.29C120.711 50.366 120.861 49.6147 121.159 49.036C121.467 48.4573 121.887 48.0327 122.419 47.762C122.951 47.4913 123.553 47.356 124.225 47.356C124.599 47.356 124.963 47.398 125.317 47.482C125.681 47.5567 125.975 47.65 126.199 47.762L125.821 48.784C125.597 48.7 125.336 48.6207 125.037 48.546C124.739 48.4713 124.459 48.434 124.197 48.434C122.723 48.434 121.985 49.3813 121.985 51.276C121.985 52.1813 122.163 52.8767 122.517 53.362C122.881 53.838 123.418 54.076 124.127 54.076C124.529 54.076 124.888 54.034 125.205 53.95C125.523 53.866 125.812 53.7633 126.073 53.642V54.734C125.821 54.8647 125.541 54.9627 125.233 55.028C124.935 55.1027 124.571 55.14 124.141 55.14ZM130.364 54.132C130.551 54.132 130.742 54.118 130.938 54.09C131.134 54.062 131.293 54.0247 131.414 53.978V54.916C131.283 54.9813 131.097 55.0327 130.854 55.07C130.611 55.1167 130.378 55.14 130.154 55.14C129.762 55.14 129.398 55.0747 129.062 54.944C128.735 54.804 128.469 54.566 128.264 54.23C128.059 53.894 127.956 53.4227 127.956 52.816V48.448H126.892V47.86L127.97 47.37L128.46 45.774H129.188V47.496H131.358V48.448H129.188V52.788C129.188 53.2453 129.295 53.586 129.51 53.81C129.734 54.0247 130.019 54.132 130.364 54.132ZM133.547 44.682C133.733 44.682 133.897 44.7473 134.037 44.878C134.186 44.9993 134.261 45.1953 134.261 45.466C134.261 45.7367 134.186 45.9373 134.037 46.068C133.897 46.1893 133.733 46.25 133.547 46.25C133.341 46.25 133.169 46.1893 133.029 46.068C132.889 45.9373 132.819 45.7367 132.819 45.466C132.819 45.1953 132.889 44.9993 133.029 44.878C133.169 44.7473 133.341 44.682 133.547 44.682ZM134.149 47.496V55H132.917V47.496H134.149ZM143.05 51.234C143.05 52.4753 142.733 53.4367 142.098 54.118C141.473 54.7993 140.623 55.14 139.55 55.14C138.887 55.14 138.295 54.9907 137.772 54.692C137.259 54.384 136.853 53.9407 136.554 53.362C136.255 52.774 136.106 52.0647 136.106 51.234C136.106 49.9927 136.414 49.036 137.03 48.364C137.655 47.692 138.509 47.356 139.592 47.356C140.264 47.356 140.861 47.51 141.384 47.818C141.907 48.1167 142.313 48.5553 142.602 49.134C142.901 49.7033 143.05 50.4033 143.05 51.234ZM137.38 51.234C137.38 52.1207 137.553 52.8253 137.898 53.348C138.253 53.8613 138.813 54.118 139.578 54.118C140.334 54.118 140.889 53.8613 141.244 53.348C141.599 52.8253 141.776 52.1207 141.776 51.234C141.776 50.3473 141.599 49.652 141.244 49.148C140.889 48.644 140.329 48.392 139.564 48.392C138.799 48.392 138.243 48.644 137.898 49.148C137.553 49.652 137.38 50.3473 137.38 51.234ZM148.615 47.356C149.511 47.356 150.187 47.5753 150.645 48.014C151.102 48.4527 151.331 49.1527 151.331 50.114V55H150.113V50.198C150.113 48.994 149.553 48.392 148.433 48.392C147.602 48.392 147.028 48.6253 146.711 49.092C146.393 49.5587 146.235 50.2307 146.235 51.108V55H145.003V47.496H145.997L146.179 48.518H146.249C146.491 48.126 146.827 47.8367 147.257 47.65C147.686 47.454 148.139 47.356 148.615 47.356ZM157.924 44.682C158.11 44.682 158.274 44.7473 158.414 44.878C158.563 44.9993 158.638 45.1953 158.638 45.466C158.638 45.7367 158.563 45.9373 158.414 46.068C158.274 46.1893 158.11 46.25 157.924 46.25C157.718 46.25 157.546 46.1893 157.406 46.068C157.266 45.9373 157.196 45.7367 157.196 45.466C157.196 45.1953 157.266 44.9993 157.406 44.878C157.546 44.7473 157.718 44.682 157.924 44.682ZM158.526 47.496V55H157.294V47.496H158.526ZM163.409 54.132C163.596 54.132 163.787 54.118 163.983 54.09C164.179 54.062 164.338 54.0247 164.459 53.978V54.916C164.328 54.9813 164.142 55.0327 163.899 55.07C163.656 55.1167 163.423 55.14 163.199 55.14C162.807 55.14 162.443 55.0747 162.107 54.944C161.78 54.804 161.514 54.566 161.309 54.23C161.104 53.894 161.001 53.4227 161.001 52.816V48.448H159.937V47.86L161.015 47.37L161.505 45.774H162.233V47.496H164.403V48.448H162.233V52.788C162.233 53.2453 162.34 53.586 162.555 53.81C162.779 54.0247 163.064 54.132 163.409 54.132ZM168.859 47.356C169.494 47.356 170.045 47.496 170.511 47.776C170.978 48.056 171.333 48.4527 171.575 48.966C171.827 49.47 171.953 50.0627 171.953 50.744V51.486H166.815C166.834 52.3353 167.049 52.984 167.459 53.432C167.879 53.8707 168.463 54.09 169.209 54.09C169.685 54.09 170.105 54.048 170.469 53.964C170.843 53.8707 171.225 53.74 171.617 53.572V54.65C171.235 54.818 170.857 54.9393 170.483 55.014C170.11 55.098 169.667 55.14 169.153 55.14C168.435 55.14 167.805 54.9953 167.263 54.706C166.722 54.4167 166.297 53.9873 165.989 53.418C165.691 52.8487 165.541 52.144 165.541 51.304C165.541 50.4827 165.677 49.778 165.947 49.19C166.227 48.602 166.615 48.1493 167.109 47.832C167.613 47.5147 168.197 47.356 168.859 47.356ZM168.845 48.364C168.257 48.364 167.791 48.5553 167.445 48.938C167.109 49.3113 166.909 49.834 166.843 50.506H170.665C170.656 49.8713 170.507 49.358 170.217 48.966C169.928 48.5647 169.471 48.364 168.845 48.364ZM182.096 47.356C182.945 47.356 183.58 47.5753 184 48.014C184.42 48.4527 184.63 49.1527 184.63 50.114V55H183.412V50.17C183.412 48.9847 182.903 48.392 181.886 48.392C181.158 48.392 180.635 48.602 180.318 49.022C180.01 49.442 179.856 50.0533 179.856 50.856V55H178.638V50.17C178.638 48.9847 178.124 48.392 177.098 48.392C176.342 48.392 175.819 48.6253 175.53 49.092C175.24 49.5587 175.096 50.2307 175.096 51.108V55H173.864V47.496H174.858L175.04 48.518H175.11C175.343 48.126 175.656 47.8367 176.048 47.65C176.449 47.454 176.874 47.356 177.322 47.356C178.498 47.356 179.263 47.776 179.618 48.616H179.688C179.94 48.1867 180.28 47.8693 180.71 47.664C181.139 47.4587 181.601 47.356 182.096 47.356ZM194.365 55H193.161V48.014C193.161 47.6127 193.165 47.2907 193.175 47.048C193.184 46.8053 193.198 46.5533 193.217 46.292C193.067 46.4413 192.927 46.5673 192.797 46.67C192.675 46.7727 192.526 46.9033 192.349 47.062L191.285 47.93L190.641 47.104L193.343 45.004H194.365V55Z" fill="black"/>
<path d="M118.63 91L117.426 87.906H113.464L112.274 91H111L114.906 80.962H116.04L119.932 91H118.63ZM117.048 86.786L115.928 83.762C115.9 83.6873 115.853 83.552 115.788 83.356C115.723 83.16 115.657 82.9593 115.592 82.754C115.536 82.5393 115.489 82.376 115.452 82.264C115.377 82.5533 115.298 82.838 115.214 83.118C115.139 83.3887 115.074 83.6033 115.018 83.762L113.884 86.786H117.048ZM124.141 91.14C123.469 91.14 122.877 91.0047 122.363 90.734C121.85 90.4633 121.444 90.0433 121.145 89.474C120.856 88.9047 120.711 88.1767 120.711 87.29C120.711 86.366 120.861 85.6147 121.159 85.036C121.467 84.4573 121.887 84.0327 122.419 83.762C122.951 83.4913 123.553 83.356 124.225 83.356C124.599 83.356 124.963 83.398 125.317 83.482C125.681 83.5567 125.975 83.65 126.199 83.762L125.821 84.784C125.597 84.7 125.336 84.6207 125.037 84.546C124.739 84.4713 124.459 84.434 124.197 84.434C122.723 84.434 121.985 85.3813 121.985 87.276C121.985 88.1813 122.163 88.8767 122.517 89.362C122.881 89.838 123.418 90.076 124.127 90.076C124.529 90.076 124.888 90.034 125.205 89.95C125.523 89.866 125.812 89.7633 126.073 89.642V90.734C125.821 90.8647 125.541 90.9627 125.233 91.028C124.935 91.1027 124.571 91.14 124.141 91.14ZM130.364 90.132C130.551 90.132 130.742 90.118 130.938 90.09C131.134 90.062 131.293 90.0247 131.414 89.978V90.916C131.283 90.9813 131.097 91.0327 130.854 91.07C130.611 91.1167 130.378 91.14 130.154 91.14C129.762 91.14 129.398 91.0747 129.062 90.944C128.735 90.804 128.469 90.566 128.264 90.23C128.059 89.894 127.956 89.4227 127.956 88.816V84.448H126.892V83.86L127.97 83.37L128.46 81.774H129.188V83.496H131.358V84.448H129.188V88.788C129.188 89.2453 129.295 89.586 129.51 89.81C129.734 90.0247 130.019 90.132 130.364 90.132ZM133.547 80.682C133.733 80.682 133.897 80.7473 134.037 80.878C134.186 80.9993 134.261 81.1953 134.261 81.466C134.261 81.7367 134.186 81.9373 134.037 82.068C133.897 82.1893 133.733 82.25 133.547 82.25C133.341 82.25 133.169 82.1893 133.029 82.068C132.889 81.9373 132.819 81.7367 132.819 81.466C132.819 81.1953 132.889 80.9993 133.029 80.878C133.169 80.7473 133.341 80.682 133.547 80.682ZM134.149 83.496V91H132.917V83.496H134.149ZM143.05 87.234C143.05 88.4753 142.733 89.4367 142.098 90.118C141.473 90.7993 140.623 91.14 139.55 91.14C138.887 91.14 138.295 90.9907 137.772 90.692C137.259 90.384 136.853 89.9407 136.554 89.362C136.255 88.774 136.106 88.0647 136.106 87.234C136.106 85.9927 136.414 85.036 137.03 84.364C137.655 83.692 138.509 83.356 139.592 83.356C140.264 83.356 140.861 83.51 141.384 83.818C141.907 84.1167 142.313 84.5553 142.602 85.134C142.901 85.7033 143.05 86.4033 143.05 87.234ZM137.38 87.234C137.38 88.1207 137.553 88.8253 137.898 89.348C138.253 89.8613 138.813 90.118 139.578 90.118C140.334 90.118 140.889 89.8613 141.244 89.348C141.599 88.8253 141.776 88.1207 141.776 87.234C141.776 86.3473 141.599 85.652 141.244 85.148C140.889 84.644 140.329 84.392 139.564 84.392C138.799 84.392 138.243 84.644 137.898 85.148C137.553 85.652 137.38 86.3473 137.38 87.234ZM148.615 83.356C149.511 83.356 150.187 83.5753 150.645 84.014C151.102 84.4527 151.331 85.1527 151.331 86.114V91H150.113V86.198C150.113 84.994 149.553 84.392 148.433 84.392C147.602 84.392 147.028 84.6253 146.711 85.092C146.393 85.5587 146.235 86.2307 146.235 87.108V91H145.003V83.496H145.997L146.179 84.518H146.249C146.491 84.126 146.827 83.8367 147.257 83.65C147.686 83.454 148.139 83.356 148.615 83.356ZM157.924 80.682C158.11 80.682 158.274 80.7473 158.414 80.878C158.563 80.9993 158.638 81.1953 158.638 81.466C158.638 81.7367 158.563 81.9373 158.414 82.068C158.274 82.1893 158.11 82.25 157.924 82.25C157.718 82.25 157.546 82.1893 157.406 82.068C157.266 81.9373 157.196 81.7367 157.196 81.466C157.196 81.1953 157.266 80.9993 157.406 80.878C157.546 80.7473 157.718 80.682 157.924 80.682ZM158.526 83.496V91H157.294V83.496H158.526ZM163.409 90.132C163.596 90.132 163.787 90.118 163.983 90.09C164.179 90.062 164.338 90.0247 164.459 89.978V90.916C164.328 90.9813 164.142 91.0327 163.899 91.07C163.656 91.1167 163.423 91.14 163.199 91.14C162.807 91.14 162.443 91.0747 162.107 90.944C161.78 90.804 161.514 90.566 161.309 90.23C161.104 89.894 161.001 89.4227 161.001 88.816V84.448H159.937V83.86L161.015 83.37L161.505 81.774H162.233V83.496H164.403V84.448H162.233V88.788C162.233 89.2453 162.34 89.586 162.555 89.81C162.779 90.0247 163.064 90.132 163.409 90.132ZM168.859 83.356C169.494 83.356 170.045 83.496 170.511 83.776C170.978 84.056 171.333 84.4527 171.575 84.966C171.827 85.47 171.953 86.0627 171.953 86.744V87.486H166.815C166.834 88.3353 167.049 88.984 167.459 89.432C167.879 89.8707 168.463 90.09 169.209 90.09C169.685 90.09 170.105 90.048 170.469 89.964C170.843 89.8707 171.225 89.74 171.617 89.572V90.65C171.235 90.818 170.857 90.9393 170.483 91.014C170.11 91.098 169.667 91.14 169.153 91.14C168.435 91.14 167.805 90.9953 167.263 90.706C166.722 90.4167 166.297 89.9873 165.989 89.418C165.691 88.8487 165.541 88.144 165.541 87.304C165.541 86.4827 165.677 85.778 165.947 85.19C166.227 84.602 166.615 84.1493 167.109 83.832C167.613 83.5147 168.197 83.356 168.859 83.356ZM168.845 84.364C168.257 84.364 167.791 84.5553 167.445 84.938C167.109 85.3113 166.909 85.834 166.843 86.506H170.665C170.656 85.8713 170.507 85.358 170.217 84.966C169.928 84.5647 169.471 84.364 168.845 84.364ZM182.096 83.356C182.945 83.356 183.58 83.5753 184 84.014C184.42 84.4527 184.63 85.1527 184.63 86.114V91H183.412V86.17C183.412 84.9847 182.903 84.392 181.886 84.392C181.158 84.392 180.635 84.602 180.318 85.022C180.01 85.442 179.856 86.0533 179.856 86.856V91H178.638V86.17C178.638 84.9847 178.124 84.392 177.098 84.392C176.342 84.392 175.819 84.6253 175.53 85.092C175.24 85.5587 175.096 86.2307 175.096 87.108V91H173.864V83.496H174.858L175.04 84.518H175.11C175.343 84.126 175.656 83.8367 176.048 83.65C176.449 83.454 176.874 83.356 177.322 83.356C178.498 83.356 179.263 83.776 179.618 84.616H179.688C179.94 84.1867 180.28 83.8693 180.71 83.664C181.139 83.4587 181.601 83.356 182.096 83.356ZM196.675 91H190.067V89.978L192.685 87.332C193.179 86.828 193.599 86.38 193.945 85.988C194.299 85.596 194.565 85.2133 194.743 84.84C194.92 84.4667 195.009 84.0513 195.009 83.594C195.009 83.0433 194.845 82.628 194.519 82.348C194.192 82.0587 193.767 81.914 193.245 81.914C192.75 81.914 192.321 81.998 191.957 82.166C191.593 82.334 191.219 82.5673 190.837 82.866L190.179 82.04C190.571 81.7133 191.019 81.438 191.523 81.214C192.036 80.9807 192.61 80.864 193.245 80.864C194.178 80.864 194.915 81.102 195.457 81.578C195.998 82.054 196.269 82.7027 196.269 83.524C196.269 84.0467 196.161 84.5367 195.947 84.994C195.732 85.4513 195.433 85.904 195.051 86.352C194.668 86.8 194.22 87.2713 193.707 87.766L191.621 89.824V89.88H196.675V91Z" fill="black"/>
<path d="M118.63 127L117.426 123.906H113.464L112.274 127H111L114.906 116.962H116.04L119.932 127H118.63ZM117.048 122.786L115.928 119.762C115.9 119.687 115.853 119.552 115.788 119.356C115.723 119.16 115.657 118.959 115.592 118.754C115.536 118.539 115.489 118.376 115.452 118.264C115.377 118.553 115.298 118.838 115.214 119.118C115.139 119.389 115.074 119.603 115.018 119.762L113.884 122.786H117.048ZM124.141 127.14C123.469 127.14 122.877 127.005 122.363 126.734C121.85 126.463 121.444 126.043 121.145 125.474C120.856 124.905 120.711 124.177 120.711 123.29C120.711 122.366 120.861 121.615 121.159 121.036C121.467 120.457 121.887 120.033 122.419 119.762C122.951 119.491 123.553 119.356 124.225 119.356C124.599 119.356 124.963 119.398 125.317 119.482C125.681 119.557 125.975 119.65 126.199 119.762L125.821 120.784C125.597 120.7 125.336 120.621 125.037 120.546C124.739 120.471 124.459 120.434 124.197 120.434C122.723 120.434 121.985 121.381 121.985 123.276C121.985 124.181 122.163 124.877 122.517 125.362C122.881 125.838 123.418 126.076 124.127 126.076C124.529 126.076 124.888 126.034 125.205 125.95C125.523 125.866 125.812 125.763 126.073 125.642V126.734C125.821 126.865 125.541 126.963 125.233 127.028C124.935 127.103 124.571 127.14 124.141 127.14ZM130.364 126.132C130.551 126.132 130.742 126.118 130.938 126.09C131.134 126.062 131.293 126.025 131.414 125.978V126.916C131.283 126.981 131.097 127.033 130.854 127.07C130.611 127.117 130.378 127.14 130.154 127.14C129.762 127.14 129.398 127.075 129.062 126.944C128.735 126.804 128.469 126.566 128.264 126.23C128.059 125.894 127.956 125.423 127.956 124.816V120.448H126.892V119.86L127.97 119.37L128.46 117.774H129.188V119.496H131.358V120.448H129.188V124.788C129.188 125.245 129.295 125.586 129.51 125.81C129.734 126.025 130.019 126.132 130.364 126.132ZM133.547 116.682C133.733 116.682 133.897 116.747 134.037 116.878C134.186 116.999 134.261 117.195 134.261 117.466C134.261 117.737 134.186 117.937 134.037 118.068C133.897 118.189 133.733 118.25 133.547 118.25C133.341 118.25 133.169 118.189 133.029 118.068C132.889 117.937 132.819 117.737 132.819 117.466C132.819 117.195 132.889 116.999 133.029 116.878C133.169 116.747 133.341 116.682 133.547 116.682ZM134.149 119.496V127H132.917V119.496H134.149ZM143.05 123.234C143.05 124.475 142.733 125.437 142.098 126.118C141.473 126.799 140.623 127.14 139.55 127.14C138.887 127.14 138.295 126.991 137.772 126.692C137.259 126.384 136.853 125.941 136.554 125.362C136.255 124.774 136.106 124.065 136.106 123.234C136.106 121.993 136.414 121.036 137.03 120.364C137.655 119.692 138.509 119.356 139.592 119.356C140.264 119.356 140.861 119.51 141.384 119.818C141.907 120.117 142.313 120.555 142.602 121.134C142.901 121.703 143.05 122.403 143.05 123.234ZM137.38 123.234C137.38 124.121 137.553 124.825 137.898 125.348C138.253 125.861 138.813 126.118 139.578 126.118C140.334 126.118 140.889 125.861 141.244 125.348C141.599 124.825 141.776 124.121 141.776 123.234C141.776 122.347 141.599 121.652 141.244 121.148C140.889 120.644 140.329 120.392 139.564 120.392C138.799 120.392 138.243 120.644 137.898 121.148C137.553 121.652 137.38 122.347 137.38 123.234ZM148.615 119.356C149.511 119.356 150.187 119.575 150.645 120.014C151.102 120.453 151.331 121.153 151.331 122.114V127H150.113V122.198C150.113 120.994 149.553 120.392 148.433 120.392C147.602 120.392 147.028 120.625 146.711 121.092C146.393 121.559 146.235 122.231 146.235 123.108V127H145.003V119.496H145.997L146.179 120.518H146.249C146.491 120.126 146.827 119.837 147.257 119.65C147.686 119.454 148.139 119.356 148.615 119.356ZM157.924 116.682C158.11 116.682 158.274 116.747 158.414 116.878C158.563 116.999 158.638 117.195 158.638 117.466C158.638 117.737 158.563 117.937 158.414 118.068C158.274 118.189 158.11 118.25 157.924 118.25C157.718 118.25 157.546 118.189 157.406 118.068C157.266 117.937 157.196 117.737 157.196 117.466C157.196 117.195 157.266 116.999 157.406 116.878C157.546 116.747 157.718 116.682 157.924 116.682ZM158.526 119.496V127H157.294V119.496H158.526ZM163.409 126.132C163.596 126.132 163.787 126.118 163.983 126.09C164.179 126.062 164.338 126.025 164.459 125.978V126.916C164.328 126.981 164.142 127.033 163.899 127.07C163.656 127.117 163.423 127.14 163.199 127.14C162.807 127.14 162.443 127.075 162.107 126.944C161.78 126.804 161.514 126.566 161.309 126.23C161.104 125.894 161.001 125.423 161.001 124.816V120.448H159.937V119.86L161.015 119.37L161.505 117.774H162.233V119.496H164.403V120.448H162.233V124.788C162.233 125.245 162.34 125.586 162.555 125.81C162.779 126.025 163.064 126.132 163.409 126.132ZM168.859 119.356C169.494 119.356 170.045 119.496 170.511 119.776C170.978 120.056 171.333 120.453 171.575 120.966C171.827 121.47 171.953 122.063 171.953 122.744V123.486H166.815C166.834 124.335 167.049 124.984 167.459 125.432C167.879 125.871 168.463 126.09 169.209 126.09C169.685 126.09 170.105 126.048 170.469 125.964C170.843 125.871 171.225 125.74 171.617 125.572V126.65C171.235 126.818 170.857 126.939 170.483 127.014C170.11 127.098 169.667 127.14 169.153 127.14C168.435 127.14 167.805 126.995 167.263 126.706C166.722 126.417 166.297 125.987 165.989 125.418C165.691 124.849 165.541 124.144 165.541 123.304C165.541 122.483 165.677 121.778 165.947 121.19C166.227 120.602 166.615 120.149 167.109 119.832C167.613 119.515 168.197 119.356 168.859 119.356ZM168.845 120.364C168.257 120.364 167.791 120.555 167.445 120.938C167.109 121.311 166.909 121.834 166.843 122.506H170.665C170.656 121.871 170.507 121.358 170.217 120.966C169.928 120.565 169.471 120.364 168.845 120.364ZM182.096 119.356C182.945 119.356 183.58 119.575 184 120.014C184.42 120.453 184.63 121.153 184.63 122.114V127H183.412V122.17C183.412 120.985 182.903 120.392 181.886 120.392C181.158 120.392 180.635 120.602 180.318 121.022C180.01 121.442 179.856 122.053 179.856 122.856V127H178.638V122.17C178.638 120.985 178.124 120.392 177.098 120.392C176.342 120.392 175.819 120.625 175.53 121.092C175.24 121.559 175.096 122.231 175.096 123.108V127H173.864V119.496H174.858L175.04 120.518H175.11C175.343 120.126 175.656 119.837 176.048 119.65C176.449 119.454 176.874 119.356 177.322 119.356C178.498 119.356 179.263 119.776 179.618 120.616H179.688C179.94 120.187 180.28 119.869 180.71 119.664C181.139 119.459 181.601 119.356 182.096 119.356ZM196.297 119.342C196.297 120.014 196.105 120.551 195.723 120.952C195.349 121.344 194.85 121.605 194.225 121.736V121.792C195.018 121.885 195.611 122.137 196.003 122.548C196.404 122.959 196.605 123.495 196.605 124.158C196.605 124.746 196.469 125.264 196.199 125.712C195.928 126.16 195.508 126.51 194.939 126.762C194.379 127.014 193.655 127.14 192.769 127.14C192.246 127.14 191.761 127.098 191.313 127.014C190.865 126.939 190.435 126.799 190.025 126.594V125.446C190.445 125.661 190.897 125.824 191.383 125.936C191.868 126.048 192.335 126.104 192.783 126.104C193.679 126.104 194.323 125.931 194.715 125.586C195.116 125.231 195.317 124.746 195.317 124.13C195.317 123.505 195.069 123.057 194.575 122.786C194.089 122.506 193.403 122.366 192.517 122.366H191.551V121.316H192.531C193.352 121.316 193.973 121.143 194.393 120.798C194.822 120.453 195.037 119.995 195.037 119.426C195.037 118.941 194.873 118.567 194.547 118.306C194.22 118.035 193.777 117.9 193.217 117.9C192.675 117.9 192.213 117.979 191.831 118.138C191.448 118.297 191.07 118.497 190.697 118.74L190.081 117.9C190.435 117.62 190.874 117.377 191.397 117.172C191.929 116.967 192.531 116.864 193.203 116.864C194.248 116.864 195.023 117.097 195.527 117.564C196.04 118.031 196.297 118.623 196.297 119.342Z" fill="black"/>
<path d="M118.63 163L117.426 159.906H113.464L112.274 163H111L114.906 152.962H116.04L119.932 163H118.63ZM117.048 158.786L115.928 155.762C115.9 155.687 115.853 155.552 115.788 155.356C115.723 155.16 115.657 154.959 115.592 154.754C115.536 154.539 115.489 154.376 115.452 154.264C115.377 154.553 115.298 154.838 115.214 155.118C115.139 155.389 115.074 155.603 115.018 155.762L113.884 158.786H117.048ZM124.141 163.14C123.469 163.14 122.877 163.005 122.363 162.734C121.85 162.463 121.444 162.043 121.145 161.474C120.856 160.905 120.711 160.177 120.711 159.29C120.711 158.366 120.861 157.615 121.159 157.036C121.467 156.457 121.887 156.033 122.419 155.762C122.951 155.491 123.553 155.356 124.225 155.356C124.599 155.356 124.963 155.398 125.317 155.482C125.681 155.557 125.975 155.65 126.199 155.762L125.821 156.784C125.597 156.7 125.336 156.621 125.037 156.546C124.739 156.471 124.459 156.434 124.197 156.434C122.723 156.434 121.985 157.381 121.985 159.276C121.985 160.181 122.163 160.877 122.517 161.362C122.881 161.838 123.418 162.076 124.127 162.076C124.529 162.076 124.888 162.034 125.205 161.95C125.523 161.866 125.812 161.763 126.073 161.642V162.734C125.821 162.865 125.541 162.963 125.233 163.028C124.935 163.103 124.571 163.14 124.141 163.14ZM130.364 162.132C130.551 162.132 130.742 162.118 130.938 162.09C131.134 162.062 131.293 162.025 131.414 161.978V162.916C131.283 162.981 131.097 163.033 130.854 163.07C130.611 163.117 130.378 163.14 130.154 163.14C129.762 163.14 129.398 163.075 129.062 162.944C128.735 162.804 128.469 162.566 128.264 162.23C128.059 161.894 127.956 161.423 127.956 160.816V156.448H126.892V155.86L127.97 155.37L128.46 153.774H129.188V155.496H131.358V156.448H129.188V160.788C129.188 161.245 129.295 161.586 129.51 161.81C129.734 162.025 130.019 162.132 130.364 162.132ZM133.547 152.682C133.733 152.682 133.897 152.747 134.037 152.878C134.186 152.999 134.261 153.195 134.261 153.466C134.261 153.737 134.186 153.937 134.037 154.068C133.897 154.189 133.733 154.25 133.547 154.25C133.341 154.25 133.169 154.189 133.029 154.068C132.889 153.937 132.819 153.737 132.819 153.466C132.819 153.195 132.889 152.999 133.029 152.878C133.169 152.747 133.341 152.682 133.547 152.682ZM134.149 155.496V163H132.917V155.496H134.149ZM143.05 159.234C143.05 160.475 142.733 161.437 142.098 162.118C141.473 162.799 140.623 163.14 139.55 163.14C138.887 163.14 138.295 162.991 137.772 162.692C137.259 162.384 136.853 161.941 136.554 161.362C136.255 160.774 136.106 160.065 136.106 159.234C136.106 157.993 136.414 157.036 137.03 156.364C137.655 155.692 138.509 155.356 139.592 155.356C140.264 155.356 140.861 155.51 141.384 155.818C141.907 156.117 142.313 156.555 142.602 157.134C142.901 157.703 143.05 158.403 143.05 159.234ZM137.38 159.234C137.38 160.121 137.553 160.825 137.898 161.348C138.253 161.861 138.813 162.118 139.578 162.118C140.334 162.118 140.889 161.861 141.244 161.348C141.599 160.825 141.776 160.121 141.776 159.234C141.776 158.347 141.599 157.652 141.244 157.148C140.889 156.644 140.329 156.392 139.564 156.392C138.799 156.392 138.243 156.644 137.898 157.148C137.553 157.652 137.38 158.347 137.38 159.234ZM148.615 155.356C149.511 155.356 150.187 155.575 150.645 156.014C151.102 156.453 151.331 157.153 151.331 158.114V163H150.113V158.198C150.113 156.994 149.553 156.392 148.433 156.392C147.602 156.392 147.028 156.625 146.711 157.092C146.393 157.559 146.235 158.231 146.235 159.108V163H145.003V155.496H145.997L146.179 156.518H146.249C146.491 156.126 146.827 155.837 147.257 155.65C147.686 155.454 148.139 155.356 148.615 155.356ZM157.924 152.682C158.11 152.682 158.274 152.747 158.414 152.878C158.563 152.999 158.638 153.195 158.638 153.466C158.638 153.737 158.563 153.937 158.414 154.068C158.274 154.189 158.11 154.25 157.924 154.25C157.718 154.25 157.546 154.189 157.406 154.068C157.266 153.937 157.196 153.737 157.196 153.466C157.196 153.195 157.266 152.999 157.406 152.878C157.546 152.747 157.718 152.682 157.924 152.682ZM158.526 155.496V163H157.294V155.496H158.526ZM163.409 162.132C163.596 162.132 163.787 162.118 163.983 162.09C164.179 162.062 164.338 162.025 164.459 161.978V162.916C164.328 162.981 164.142 163.033 163.899 163.07C163.656 163.117 163.423 163.14 163.199 163.14C162.807 163.14 162.443 163.075 162.107 162.944C161.78 162.804 161.514 162.566 161.309 162.23C161.104 161.894 161.001 161.423 161.001 160.816V156.448H159.937V155.86L161.015 155.37L161.505 153.774H162.233V155.496H164.403V156.448H162.233V160.788C162.233 161.245 162.34 161.586 162.555 161.81C162.779 162.025 163.064 162.132 163.409 162.132ZM168.859 155.356C169.494 155.356 170.045 155.496 170.511 155.776C170.978 156.056 171.333 156.453 171.575 156.966C171.827 157.47 171.953 158.063 171.953 158.744V159.486H166.815C166.834 160.335 167.049 160.984 167.459 161.432C167.879 161.871 168.463 162.09 169.209 162.09C169.685 162.09 170.105 162.048 170.469 161.964C170.843 161.871 171.225 161.74 171.617 161.572V162.65C171.235 162.818 170.857 162.939 170.483 163.014C170.11 163.098 169.667 163.14 169.153 163.14C168.435 163.14 167.805 162.995 167.263 162.706C166.722 162.417 166.297 161.987 165.989 161.418C165.691 160.849 165.541 160.144 165.541 159.304C165.541 158.483 165.677 157.778 165.947 157.19C166.227 156.602 166.615 156.149 167.109 155.832C167.613 155.515 168.197 155.356 168.859 155.356ZM168.845 156.364C168.257 156.364 167.791 156.555 167.445 156.938C167.109 157.311 166.909 157.834 166.843 158.506H170.665C170.656 157.871 170.507 157.358 170.217 156.966C169.928 156.565 169.471 156.364 168.845 156.364ZM182.096 155.356C182.945 155.356 183.58 155.575 184 156.014C184.42 156.453 184.63 157.153 184.63 158.114V163H183.412V158.17C183.412 156.985 182.903 156.392 181.886 156.392C181.158 156.392 180.635 156.602 180.318 157.022C180.01 157.442 179.856 158.053 179.856 158.856V163H178.638V158.17C178.638 156.985 178.124 156.392 177.098 156.392C176.342 156.392 175.819 156.625 175.53 157.092C175.24 157.559 175.096 158.231 175.096 159.108V163H173.864V155.496H174.858L175.04 156.518H175.11C175.343 156.126 175.656 155.837 176.048 155.65C176.449 155.454 176.874 155.356 177.322 155.356C178.498 155.356 179.263 155.776 179.618 156.616H179.688C179.94 156.187 180.28 155.869 180.71 155.664C181.139 155.459 181.601 155.356 182.096 155.356ZM197.123 160.732H195.667V163H194.477V160.732H189.689V159.682L194.393 152.948H195.667V159.626H197.123V160.732ZM194.477 159.626V156.476C194.477 155.991 194.481 155.58 194.491 155.244C194.509 154.899 194.528 154.572 194.547 154.264H194.491C194.416 154.441 194.323 154.633 194.211 154.838C194.099 155.043 193.991 155.216 193.889 155.356L190.893 159.626H194.477Z" fill="black"/>
<path d="M118.63 199L117.426 195.906H113.464L112.274 199H111L114.906 188.962H116.04L119.932 199H118.63ZM117.048 194.786L115.928 191.762C115.9 191.687 115.853 191.552 115.788 191.356C115.723 191.16 115.657 190.959 115.592 190.754C115.536 190.539 115.489 190.376 115.452 190.264C115.377 190.553 115.298 190.838 115.214 191.118C115.139 191.389 115.074 191.603 115.018 191.762L113.884 194.786H117.048ZM124.141 199.14C123.469 199.14 122.877 199.005 122.363 198.734C121.85 198.463 121.444 198.043 121.145 197.474C120.856 196.905 120.711 196.177 120.711 195.29C120.711 194.366 120.861 193.615 121.159 193.036C121.467 192.457 121.887 192.033 122.419 191.762C122.951 191.491 123.553 191.356 124.225 191.356C124.599 191.356 124.963 191.398 125.317 191.482C125.681 191.557 125.975 191.65 126.199 191.762L125.821 192.784C125.597 192.7 125.336 192.621 125.037 192.546C124.739 192.471 124.459 192.434 124.197 192.434C122.723 192.434 121.985 193.381 121.985 195.276C121.985 196.181 122.163 196.877 122.517 197.362C122.881 197.838 123.418 198.076 124.127 198.076C124.529 198.076 124.888 198.034 125.205 197.95C125.523 197.866 125.812 197.763 126.073 197.642V198.734C125.821 198.865 125.541 198.963 125.233 199.028C124.935 199.103 124.571 199.14 124.141 199.14ZM130.364 198.132C130.551 198.132 130.742 198.118 130.938 198.09C131.134 198.062 131.293 198.025 131.414 197.978V198.916C131.283 198.981 131.097 199.033 130.854 199.07C130.611 199.117 130.378 199.14 130.154 199.14C129.762 199.14 129.398 199.075 129.062 198.944C128.735 198.804 128.469 198.566 128.264 198.23C128.059 197.894 127.956 197.423 127.956 196.816V192.448H126.892V191.86L127.97 191.37L128.46 189.774H129.188V191.496H131.358V192.448H129.188V196.788C129.188 197.245 129.295 197.586 129.51 197.81C129.734 198.025 130.019 198.132 130.364 198.132ZM133.547 188.682C133.733 188.682 133.897 188.747 134.037 188.878C134.186 188.999 134.261 189.195 134.261 189.466C134.261 189.737 134.186 189.937 134.037 190.068C133.897 190.189 133.733 190.25 133.547 190.25C133.341 190.25 133.169 190.189 133.029 190.068C132.889 189.937 132.819 189.737 132.819 189.466C132.819 189.195 132.889 188.999 133.029 188.878C133.169 188.747 133.341 188.682 133.547 188.682ZM134.149 191.496V199H132.917V191.496H134.149ZM143.05 195.234C143.05 196.475 142.733 197.437 142.098 198.118C141.473 198.799 140.623 199.14 139.55 199.14C138.887 199.14 138.295 198.991 137.772 198.692C137.259 198.384 136.853 197.941 136.554 197.362C136.255 196.774 136.106 196.065 136.106 195.234C136.106 193.993 136.414 193.036 137.03 192.364C137.655 191.692 138.509 191.356 139.592 191.356C140.264 191.356 140.861 191.51 141.384 191.818C141.907 192.117 142.313 192.555 142.602 193.134C142.901 193.703 143.05 194.403 143.05 195.234ZM137.38 195.234C137.38 196.121 137.553 196.825 137.898 197.348C138.253 197.861 138.813 198.118 139.578 198.118C140.334 198.118 140.889 197.861 141.244 197.348C141.599 196.825 141.776 196.121 141.776 195.234C141.776 194.347 141.599 193.652 141.244 193.148C140.889 192.644 140.329 192.392 139.564 192.392C138.799 192.392 138.243 192.644 137.898 193.148C137.553 193.652 137.38 194.347 137.38 195.234ZM148.615 191.356C149.511 191.356 150.187 191.575 150.645 192.014C151.102 192.453 151.331 193.153 151.331 194.114V199H150.113V194.198C150.113 192.994 149.553 192.392 148.433 192.392C147.602 192.392 147.028 192.625 146.711 193.092C146.393 193.559 146.235 194.231 146.235 195.108V199H145.003V191.496H145.997L146.179 192.518H146.249C146.491 192.126 146.827 191.837 147.257 191.65C147.686 191.454 148.139 191.356 148.615 191.356ZM157.924 188.682C158.11 188.682 158.274 188.747 158.414 188.878C158.563 188.999 158.638 189.195 158.638 189.466C158.638 189.737 158.563 189.937 158.414 190.068C158.274 190.189 158.11 190.25 157.924 190.25C157.718 190.25 157.546 190.189 157.406 190.068C157.266 189.937 157.196 189.737 157.196 189.466C157.196 189.195 157.266 188.999 157.406 188.878C157.546 188.747 157.718 188.682 157.924 188.682ZM158.526 191.496V199H157.294V191.496H158.526ZM163.409 198.132C163.596 198.132 163.787 198.118 163.983 198.09C164.179 198.062 164.338 198.025 164.459 197.978V198.916C164.328 198.981 164.142 199.033 163.899 199.07C163.656 199.117 163.423 199.14 163.199 199.14C162.807 199.14 162.443 199.075 162.107 198.944C161.78 198.804 161.514 198.566 161.309 198.23C161.104 197.894 161.001 197.423 161.001 196.816V192.448H159.937V191.86L161.015 191.37L161.505 189.774H162.233V191.496H164.403V192.448H162.233V196.788C162.233 197.245 162.34 197.586 162.555 197.81C162.779 198.025 163.064 198.132 163.409 198.132ZM168.859 191.356C169.494 191.356 170.045 191.496 170.511 191.776C170.978 192.056 171.333 192.453 171.575 192.966C171.827 193.47 171.953 194.063 171.953 194.744V195.486H166.815C166.834 196.335 167.049 196.984 167.459 197.432C167.879 197.871 168.463 198.09 169.209 198.09C169.685 198.09 170.105 198.048 170.469 197.964C170.843 197.871 171.225 197.74 171.617 197.572V198.65C171.235 198.818 170.857 198.939 170.483 199.014C170.11 199.098 169.667 199.14 169.153 199.14C168.435 199.14 167.805 198.995 167.263 198.706C166.722 198.417 166.297 197.987 165.989 197.418C165.691 196.849 165.541 196.144 165.541 195.304C165.541 194.483 165.677 193.778 165.947 193.19C166.227 192.602 166.615 192.149 167.109 191.832C167.613 191.515 168.197 191.356 168.859 191.356ZM168.845 192.364C168.257 192.364 167.791 192.555 167.445 192.938C167.109 193.311 166.909 193.834 166.843 194.506H170.665C170.656 193.871 170.507 193.358 170.217 192.966C169.928 192.565 169.471 192.364 168.845 192.364ZM182.096 191.356C182.945 191.356 183.58 191.575 184 192.014C184.42 192.453 184.63 193.153 184.63 194.114V199H183.412V194.17C183.412 192.985 182.903 192.392 181.886 192.392C181.158 192.392 180.635 192.602 180.318 193.022C180.01 193.442 179.856 194.053 179.856 194.856V199H178.638V194.17C178.638 192.985 178.124 192.392 177.098 192.392C176.342 192.392 175.819 192.625 175.53 193.092C175.24 193.559 175.096 194.231 175.096 195.108V199H173.864V191.496H174.858L175.04 192.518H175.11C175.343 192.126 175.656 191.837 176.048 191.65C176.449 191.454 176.874 191.356 177.322 191.356C178.498 191.356 179.263 191.776 179.618 192.616H179.688C179.94 192.187 180.28 191.869 180.71 191.664C181.139 191.459 181.601 191.356 182.096 191.356ZM193.245 192.868C194.262 192.868 195.074 193.125 195.681 193.638C196.297 194.151 196.605 194.875 196.605 195.808C196.605 196.844 196.273 197.661 195.611 198.258C194.957 198.846 194.043 199.14 192.867 199.14C192.344 199.14 191.859 199.093 191.411 199C190.963 198.907 190.585 198.771 190.277 198.594V197.432C190.613 197.637 191.019 197.801 191.495 197.922C191.98 198.034 192.442 198.09 192.881 198.09C193.618 198.09 194.211 197.917 194.659 197.572C195.116 197.217 195.345 196.671 195.345 195.934C195.345 195.281 195.144 194.781 194.743 194.436C194.341 194.081 193.707 193.904 192.839 193.904C192.577 193.904 192.279 193.927 191.943 193.974C191.607 194.021 191.336 194.067 191.131 194.114L190.515 193.722L190.893 189.004H195.905V190.124H191.943L191.705 193.022C191.863 192.994 192.078 192.961 192.349 192.924C192.619 192.887 192.918 192.868 193.245 192.868Z" fill="black"/>
<path d="M118.63 235L117.426 231.906H113.464L112.274 235H111L114.906 224.962H116.04L119.932 235H118.63ZM117.048 230.786L115.928 227.762C115.9 227.687 115.853 227.552 115.788 227.356C115.723 227.16 115.657 226.959 115.592 226.754C115.536 226.539 115.489 226.376 115.452 226.264C115.377 226.553 115.298 226.838 115.214 227.118C115.139 227.389 115.074 227.603 115.018 227.762L113.884 230.786H117.048ZM124.141 235.14C123.469 235.14 122.877 235.005 122.363 234.734C121.85 234.463 121.444 234.043 121.145 233.474C120.856 232.905 120.711 232.177 120.711 231.29C120.711 230.366 120.861 229.615 121.159 229.036C121.467 228.457 121.887 228.033 122.419 227.762C122.951 227.491 123.553 227.356 124.225 227.356C124.599 227.356 124.963 227.398 125.317 227.482C125.681 227.557 125.975 227.65 126.199 227.762L125.821 228.784C125.597 228.7 125.336 228.621 125.037 228.546C124.739 228.471 124.459 228.434 124.197 228.434C122.723 228.434 121.985 229.381 121.985 231.276C121.985 232.181 122.163 232.877 122.517 233.362C122.881 233.838 123.418 234.076 124.127 234.076C124.529 234.076 124.888 234.034 125.205 233.95C125.523 233.866 125.812 233.763 126.073 233.642V234.734C125.821 234.865 125.541 234.963 125.233 235.028C124.935 235.103 124.571 235.14 124.141 235.14ZM130.364 234.132C130.551 234.132 130.742 234.118 130.938 234.09C131.134 234.062 131.293 234.025 131.414 233.978V234.916C131.283 234.981 131.097 235.033 130.854 235.07C130.611 235.117 130.378 235.14 130.154 235.14C129.762 235.14 129.398 235.075 129.062 234.944C128.735 234.804 128.469 234.566 128.264 234.23C128.059 233.894 127.956 233.423 127.956 232.816V228.448H126.892V227.86L127.97 227.37L128.46 225.774H129.188V227.496H131.358V228.448H129.188V232.788C129.188 233.245 129.295 233.586 129.51 233.81C129.734 234.025 130.019 234.132 130.364 234.132ZM133.547 224.682C133.733 224.682 133.897 224.747 134.037 224.878C134.186 224.999 134.261 225.195 134.261 225.466C134.261 225.737 134.186 225.937 134.037 226.068C133.897 226.189 133.733 226.25 133.547 226.25C133.341 226.25 133.169 226.189 133.029 226.068C132.889 225.937 132.819 225.737 132.819 225.466C132.819 225.195 132.889 224.999 133.029 224.878C133.169 224.747 133.341 224.682 133.547 224.682ZM134.149 227.496V235H132.917V227.496H134.149ZM143.05 231.234C143.05 232.475 142.733 233.437 142.098 234.118C141.473 234.799 140.623 235.14 139.55 235.14C138.887 235.14 138.295 234.991 137.772 234.692C137.259 234.384 136.853 233.941 136.554 233.362C136.255 232.774 136.106 232.065 136.106 231.234C136.106 229.993 136.414 229.036 137.03 228.364C137.655 227.692 138.509 227.356 139.592 227.356C140.264 227.356 140.861 227.51 141.384 227.818C141.907 228.117 142.313 228.555 142.602 229.134C142.901 229.703 143.05 230.403 143.05 231.234ZM137.38 231.234C137.38 232.121 137.553 232.825 137.898 233.348C138.253 233.861 138.813 234.118 139.578 234.118C140.334 234.118 140.889 233.861 141.244 233.348C141.599 232.825 141.776 232.121 141.776 231.234C141.776 230.347 141.599 229.652 141.244 229.148C140.889 228.644 140.329 228.392 139.564 228.392C138.799 228.392 138.243 228.644 137.898 229.148C137.553 229.652 137.38 230.347 137.38 231.234ZM148.615 227.356C149.511 227.356 150.187 227.575 150.645 228.014C151.102 228.453 151.331 229.153 151.331 230.114V235H150.113V230.198C150.113 228.994 149.553 228.392 148.433 228.392C147.602 228.392 147.028 228.625 146.711 229.092C146.393 229.559 146.235 230.231 146.235 231.108V235H145.003V227.496H145.997L146.179 228.518H146.249C146.491 228.126 146.827 227.837 147.257 227.65C147.686 227.454 148.139 227.356 148.615 227.356ZM157.924 224.682C158.11 224.682 158.274 224.747 158.414 224.878C158.563 224.999 158.638 225.195 158.638 225.466C158.638 225.737 158.563 225.937 158.414 226.068C158.274 226.189 158.11 226.25 157.924 226.25C157.718 226.25 157.546 226.189 157.406 226.068C157.266 225.937 157.196 225.737 157.196 225.466C157.196 225.195 157.266 224.999 157.406 224.878C157.546 224.747 157.718 224.682 157.924 224.682ZM158.526 227.496V235H157.294V227.496H158.526ZM163.409 234.132C163.596 234.132 163.787 234.118 163.983 234.09C164.179 234.062 164.338 234.025 164.459 233.978V234.916C164.328 234.981 164.142 235.033 163.899 235.07C163.656 235.117 163.423 235.14 163.199 235.14C162.807 235.14 162.443 235.075 162.107 234.944C161.78 234.804 161.514 234.566 161.309 234.23C161.104 233.894 161.001 233.423 161.001 232.816V228.448H159.937V227.86L161.015 227.37L161.505 225.774H162.233V227.496H164.403V228.448H162.233V232.788C162.233 233.245 162.34 233.586 162.555 233.81C162.779 234.025 163.064 234.132 163.409 234.132ZM168.859 227.356C169.494 227.356 170.045 227.496 170.511 227.776C170.978 228.056 171.333 228.453 171.575 228.966C171.827 229.47 171.953 230.063 171.953 230.744V231.486H166.815C166.834 232.335 167.049 232.984 167.459 233.432C167.879 233.871 168.463 234.09 169.209 234.09C169.685 234.09 170.105 234.048 170.469 233.964C170.843 233.871 171.225 233.74 171.617 233.572V234.65C171.235 234.818 170.857 234.939 170.483 235.014C170.11 235.098 169.667 235.14 169.153 235.14C168.435 235.14 167.805 234.995 167.263 234.706C166.722 234.417 166.297 233.987 165.989 233.418C165.691 232.849 165.541 232.144 165.541 231.304C165.541 230.483 165.677 229.778 165.947 229.19C166.227 228.602 166.615 228.149 167.109 227.832C167.613 227.515 168.197 227.356 168.859 227.356ZM168.845 228.364C168.257 228.364 167.791 228.555 167.445 228.938C167.109 229.311 166.909 229.834 166.843 230.506H170.665C170.656 229.871 170.507 229.358 170.217 228.966C169.928 228.565 169.471 228.364 168.845 228.364ZM182.096 227.356C182.945 227.356 183.58 227.575 184 228.014C184.42 228.453 184.63 229.153 184.63 230.114V235H183.412V230.17C183.412 228.985 182.903 228.392 181.886 228.392C181.158 228.392 180.635 228.602 180.318 229.022C180.01 229.442 179.856 230.053 179.856 230.856V235H178.638V230.17C178.638 228.985 178.124 228.392 177.098 228.392C176.342 228.392 175.819 228.625 175.53 229.092C175.24 229.559 175.096 230.231 175.096 231.108V235H173.864V227.496H174.858L175.04 228.518H175.11C175.343 228.126 175.656 227.837 176.048 227.65C176.449 227.454 176.874 227.356 177.322 227.356C178.498 227.356 179.263 227.776 179.618 228.616H179.688C179.94 228.187 180.28 227.869 180.71 227.664C181.139 227.459 181.601 227.356 182.096 227.356ZM190.165 230.73C190.165 230.011 190.225 229.307 190.347 228.616C190.477 227.916 190.706 227.286 191.033 226.726C191.369 226.157 191.835 225.704 192.433 225.368C193.03 225.032 193.8 224.864 194.743 224.864C194.939 224.864 195.153 224.873 195.387 224.892C195.629 224.911 195.825 224.943 195.975 224.99V226.04C195.807 225.984 195.615 225.942 195.401 225.914C195.186 225.886 194.976 225.872 194.771 225.872C194.127 225.872 193.59 225.979 193.161 226.194C192.731 226.409 192.391 226.703 192.139 227.076C191.896 227.449 191.719 227.879 191.607 228.364C191.495 228.849 191.425 229.367 191.397 229.918H191.481C191.695 229.591 191.994 229.316 192.377 229.092C192.759 228.859 193.249 228.742 193.847 228.742C194.715 228.742 195.415 229.008 195.947 229.54C196.479 230.063 196.745 230.809 196.745 231.78C196.745 232.825 196.455 233.647 195.877 234.244C195.307 234.841 194.537 235.14 193.567 235.14C192.932 235.14 192.358 234.981 191.845 234.664C191.331 234.347 190.921 233.861 190.613 233.208C190.314 232.555 190.165 231.729 190.165 230.73ZM193.553 234.104C194.141 234.104 194.617 233.917 194.981 233.544C195.345 233.161 195.527 232.573 195.527 231.78C195.527 231.145 195.363 230.641 195.037 230.268C194.719 229.895 194.239 229.708 193.595 229.708C193.156 229.708 192.773 229.801 192.447 229.988C192.12 230.165 191.863 230.399 191.677 230.688C191.499 230.968 191.411 231.253 191.411 231.542C191.411 231.943 191.49 232.345 191.649 232.746C191.807 233.138 192.045 233.465 192.363 233.726C192.68 233.978 193.077 234.104 193.553 234.104Z" fill="black"/>
<path d="M118.63 271L117.426 267.906H113.464L112.274 271H111L114.906 260.962H116.04L119.932 271H118.63ZM117.048 266.786L115.928 263.762C115.9 263.687 115.853 263.552 115.788 263.356C115.723 263.16 115.657 262.959 115.592 262.754C115.536 262.539 115.489 262.376 115.452 262.264C115.377 262.553 115.298 262.838 115.214 263.118C115.139 263.389 115.074 263.603 115.018 263.762L113.884 266.786H117.048ZM124.141 271.14C123.469 271.14 122.877 271.005 122.363 270.734C121.85 270.463 121.444 270.043 121.145 269.474C120.856 268.905 120.711 268.177 120.711 267.29C120.711 266.366 120.861 265.615 121.159 265.036C121.467 264.457 121.887 264.033 122.419 263.762C122.951 263.491 123.553 263.356 124.225 263.356C124.599 263.356 124.963 263.398 125.317 263.482C125.681 263.557 125.975 263.65 126.199 263.762L125.821 264.784C125.597 264.7 125.336 264.621 125.037 264.546C124.739 264.471 124.459 264.434 124.197 264.434C122.723 264.434 121.985 265.381 121.985 267.276C121.985 268.181 122.163 268.877 122.517 269.362C122.881 269.838 123.418 270.076 124.127 270.076C124.529 270.076 124.888 270.034 125.205 269.95C125.523 269.866 125.812 269.763 126.073 269.642V270.734C125.821 270.865 125.541 270.963 125.233 271.028C124.935 271.103 124.571 271.14 124.141 271.14ZM130.364 270.132C130.551 270.132 130.742 270.118 130.938 270.09C131.134 270.062 131.293 270.025 131.414 269.978V270.916C131.283 270.981 131.097 271.033 130.854 271.07C130.611 271.117 130.378 271.14 130.154 271.14C129.762 271.14 129.398 271.075 129.062 270.944C128.735 270.804 128.469 270.566 128.264 270.23C128.059 269.894 127.956 269.423 127.956 268.816V264.448H126.892V263.86L127.97 263.37L128.46 261.774H129.188V263.496H131.358V264.448H129.188V268.788C129.188 269.245 129.295 269.586 129.51 269.81C129.734 270.025 130.019 270.132 130.364 270.132ZM133.547 260.682C133.733 260.682 133.897 260.747 134.037 260.878C134.186 260.999 134.261 261.195 134.261 261.466C134.261 261.737 134.186 261.937 134.037 262.068C133.897 262.189 133.733 262.25 133.547 262.25C133.341 262.25 133.169 262.189 133.029 262.068C132.889 261.937 132.819 261.737 132.819 261.466C132.819 261.195 132.889 260.999 133.029 260.878C133.169 260.747 133.341 260.682 133.547 260.682ZM134.149 263.496V271H132.917V263.496H134.149ZM143.05 267.234C143.05 268.475 142.733 269.437 142.098 270.118C141.473 270.799 140.623 271.14 139.55 271.14C138.887 271.14 138.295 270.991 137.772 270.692C137.259 270.384 136.853 269.941 136.554 269.362C136.255 268.774 136.106 268.065 136.106 267.234C136.106 265.993 136.414 265.036 137.03 264.364C137.655 263.692 138.509 263.356 139.592 263.356C140.264 263.356 140.861 263.51 141.384 263.818C141.907 264.117 142.313 264.555 142.602 265.134C142.901 265.703 143.05 266.403 143.05 267.234ZM137.38 267.234C137.38 268.121 137.553 268.825 137.898 269.348C138.253 269.861 138.813 270.118 139.578 270.118C140.334 270.118 140.889 269.861 141.244 269.348C141.599 268.825 141.776 268.121 141.776 267.234C141.776 266.347 141.599 265.652 141.244 265.148C140.889 264.644 140.329 264.392 139.564 264.392C138.799 264.392 138.243 264.644 137.898 265.148C137.553 265.652 137.38 266.347 137.38 267.234ZM148.615 263.356C149.511 263.356 150.187 263.575 150.645 264.014C151.102 264.453 151.331 265.153 151.331 266.114V271H150.113V266.198C150.113 264.994 149.553 264.392 148.433 264.392C147.602 264.392 147.028 264.625 146.711 265.092C146.393 265.559 146.235 266.231 146.235 267.108V271H145.003V263.496H145.997L146.179 264.518H146.249C146.491 264.126 146.827 263.837 147.257 263.65C147.686 263.454 148.139 263.356 148.615 263.356ZM157.924 260.682C158.11 260.682 158.274 260.747 158.414 260.878C158.563 260.999 158.638 261.195 158.638 261.466C158.638 261.737 158.563 261.937 158.414 262.068C158.274 262.189 158.11 262.25 157.924 262.25C157.718 262.25 157.546 262.189 157.406 262.068C157.266 261.937 157.196 261.737 157.196 261.466C157.196 261.195 157.266 260.999 157.406 260.878C157.546 260.747 157.718 260.682 157.924 260.682ZM158.526 263.496V271H157.294V263.496H158.526ZM163.409 270.132C163.596 270.132 163.787 270.118 163.983 270.09C164.179 270.062 164.338 270.025 164.459 269.978V270.916C164.328 270.981 164.142 271.033 163.899 271.07C163.656 271.117 163.423 271.14 163.199 271.14C162.807 271.14 162.443 271.075 162.107 270.944C161.78 270.804 161.514 270.566 161.309 270.23C161.104 269.894 161.001 269.423 161.001 268.816V264.448H159.937V263.86L161.015 263.37L161.505 261.774H162.233V263.496H164.403V264.448H162.233V268.788C162.233 269.245 162.34 269.586 162.555 269.81C162.779 270.025 163.064 270.132 163.409 270.132ZM168.859 263.356C169.494 263.356 170.045 263.496 170.511 263.776C170.978 264.056 171.333 264.453 171.575 264.966C171.827 265.47 171.953 266.063 171.953 266.744V267.486H166.815C166.834 268.335 167.049 268.984 167.459 269.432C167.879 269.871 168.463 270.09 169.209 270.09C169.685 270.09 170.105 270.048 170.469 269.964C170.843 269.871 171.225 269.74 171.617 269.572V270.65C171.235 270.818 170.857 270.939 170.483 271.014C170.11 271.098 169.667 271.14 169.153 271.14C168.435 271.14 167.805 270.995 167.263 270.706C166.722 270.417 166.297 269.987 165.989 269.418C165.691 268.849 165.541 268.144 165.541 267.304C165.541 266.483 165.677 265.778 165.947 265.19C166.227 264.602 166.615 264.149 167.109 263.832C167.613 263.515 168.197 263.356 168.859 263.356ZM168.845 264.364C168.257 264.364 167.791 264.555 167.445 264.938C167.109 265.311 166.909 265.834 166.843 266.506H170.665C170.656 265.871 170.507 265.358 170.217 264.966C169.928 264.565 169.471 264.364 168.845 264.364ZM182.096 263.356C182.945 263.356 183.58 263.575 184 264.014C184.42 264.453 184.63 265.153 184.63 266.114V271H183.412V266.17C183.412 264.985 182.903 264.392 181.886 264.392C181.158 264.392 180.635 264.602 180.318 265.022C180.01 265.442 179.856 266.053 179.856 266.856V271H178.638V266.17C178.638 264.985 178.124 264.392 177.098 264.392C176.342 264.392 175.819 264.625 175.53 265.092C175.24 265.559 175.096 266.231 175.096 267.108V271H173.864V263.496H174.858L175.04 264.518H175.11C175.343 264.126 175.656 263.837 176.048 263.65C176.449 263.454 176.874 263.356 177.322 263.356C178.498 263.356 179.263 263.776 179.618 264.616H179.688C179.94 264.187 180.28 263.869 180.71 263.664C181.139 263.459 181.601 263.356 182.096 263.356ZM191.299 271L195.401 262.124H190.011V261.004H196.717V261.956L192.657 271H191.299Z" fill="black"/>
<path d="M118.63 307L117.426 303.906H113.464L112.274 307H111L114.906 296.962H116.04L119.932 307H118.63ZM117.048 302.786L115.928 299.762C115.9 299.687 115.853 299.552 115.788 299.356C115.723 299.16 115.657 298.959 115.592 298.754C115.536 298.539 115.489 298.376 115.452 298.264C115.377 298.553 115.298 298.838 115.214 299.118C115.139 299.389 115.074 299.603 115.018 299.762L113.884 302.786H117.048ZM124.141 307.14C123.469 307.14 122.877 307.005 122.363 306.734C121.85 306.463 121.444 306.043 121.145 305.474C120.856 304.905 120.711 304.177 120.711 303.29C120.711 302.366 120.861 301.615 121.159 301.036C121.467 300.457 121.887 300.033 122.419 299.762C122.951 299.491 123.553 299.356 124.225 299.356C124.599 299.356 124.963 299.398 125.317 299.482C125.681 299.557 125.975 299.65 126.199 299.762L125.821 300.784C125.597 300.7 125.336 300.621 125.037 300.546C124.739 300.471 124.459 300.434 124.197 300.434C122.723 300.434 121.985 301.381 121.985 303.276C121.985 304.181 122.163 304.877 122.517 305.362C122.881 305.838 123.418 306.076 124.127 306.076C124.529 306.076 124.888 306.034 125.205 305.95C125.523 305.866 125.812 305.763 126.073 305.642V306.734C125.821 306.865 125.541 306.963 125.233 307.028C124.935 307.103 124.571 307.14 124.141 307.14ZM130.364 306.132C130.551 306.132 130.742 306.118 130.938 306.09C131.134 306.062 131.293 306.025 131.414 305.978V306.916C131.283 306.981 131.097 307.033 130.854 307.07C130.611 307.117 130.378 307.14 130.154 307.14C129.762 307.14 129.398 307.075 129.062 306.944C128.735 306.804 128.469 306.566 128.264 306.23C128.059 305.894 127.956 305.423 127.956 304.816V300.448H126.892V299.86L127.97 299.37L128.46 297.774H129.188V299.496H131.358V300.448H129.188V304.788C129.188 305.245 129.295 305.586 129.51 305.81C129.734 306.025 130.019 306.132 130.364 306.132ZM133.547 296.682C133.733 296.682 133.897 296.747 134.037 296.878C134.186 296.999 134.261 297.195 134.261 297.466C134.261 297.737 134.186 297.937 134.037 298.068C133.897 298.189 133.733 298.25 133.547 298.25C133.341 298.25 133.169 298.189 133.029 298.068C132.889 297.937 132.819 297.737 132.819 297.466C132.819 297.195 132.889 296.999 133.029 296.878C133.169 296.747 133.341 296.682 133.547 296.682ZM134.149 299.496V307H132.917V299.496H134.149ZM143.05 303.234C143.05 304.475 142.733 305.437 142.098 306.118C141.473 306.799 140.623 307.14 139.55 307.14C138.887 307.14 138.295 306.991 137.772 306.692C137.259 306.384 136.853 305.941 136.554 305.362C136.255 304.774 136.106 304.065 136.106 303.234C136.106 301.993 136.414 301.036 137.03 300.364C137.655 299.692 138.509 299.356 139.592 299.356C140.264 299.356 140.861 299.51 141.384 299.818C141.907 300.117 142.313 300.555 142.602 301.134C142.901 301.703 143.05 302.403 143.05 303.234ZM137.38 303.234C137.38 304.121 137.553 304.825 137.898 305.348C138.253 305.861 138.813 306.118 139.578 306.118C140.334 306.118 140.889 305.861 141.244 305.348C141.599 304.825 141.776 304.121 141.776 303.234C141.776 302.347 141.599 301.652 141.244 301.148C140.889 300.644 140.329 300.392 139.564 300.392C138.799 300.392 138.243 300.644 137.898 301.148C137.553 301.652 137.38 302.347 137.38 303.234ZM148.615 299.356C149.511 299.356 150.187 299.575 150.645 300.014C151.102 300.453 151.331 301.153 151.331 302.114V307H150.113V302.198C150.113 300.994 149.553 300.392 148.433 300.392C147.602 300.392 147.028 300.625 146.711 301.092C146.393 301.559 146.235 302.231 146.235 303.108V307H145.003V299.496H145.997L146.179 300.518H146.249C146.491 300.126 146.827 299.837 147.257 299.65C147.686 299.454 148.139 299.356 148.615 299.356ZM157.924 296.682C158.11 296.682 158.274 296.747 158.414 296.878C158.563 296.999 158.638 297.195 158.638 297.466C158.638 297.737 158.563 297.937 158.414 298.068C158.274 298.189 158.11 298.25 157.924 298.25C157.718 298.25 157.546 298.189 157.406 298.068C157.266 297.937 157.196 297.737 157.196 297.466C157.196 297.195 157.266 296.999 157.406 296.878C157.546 296.747 157.718 296.682 157.924 296.682ZM158.526 299.496V307H157.294V299.496H158.526ZM163.409 306.132C163.596 306.132 163.787 306.118 163.983 306.09C164.179 306.062 164.338 306.025 164.459 305.978V306.916C164.328 306.981 164.142 307.033 163.899 307.07C163.656 307.117 163.423 307.14 163.199 307.14C162.807 307.14 162.443 307.075 162.107 306.944C161.78 306.804 161.514 306.566 161.309 306.23C161.104 305.894 161.001 305.423 161.001 304.816V300.448H159.937V299.86L161.015 299.37L161.505 297.774H162.233V299.496H164.403V300.448H162.233V304.788C162.233 305.245 162.34 305.586 162.555 305.81C162.779 306.025 163.064 306.132 163.409 306.132ZM168.859 299.356C169.494 299.356 170.045 299.496 170.511 299.776C170.978 300.056 171.333 300.453 171.575 300.966C171.827 301.47 171.953 302.063 171.953 302.744V303.486H166.815C166.834 304.335 167.049 304.984 167.459 305.432C167.879 305.871 168.463 306.09 169.209 306.09C169.685 306.09 170.105 306.048 170.469 305.964C170.843 305.871 171.225 305.74 171.617 305.572V306.65C171.235 306.818 170.857 306.939 170.483 307.014C170.11 307.098 169.667 307.14 169.153 307.14C168.435 307.14 167.805 306.995 167.263 306.706C166.722 306.417 166.297 305.987 165.989 305.418C165.691 304.849 165.541 304.144 165.541 303.304C165.541 302.483 165.677 301.778 165.947 301.19C166.227 300.602 166.615 300.149 167.109 299.832C167.613 299.515 168.197 299.356 168.859 299.356ZM168.845 300.364C168.257 300.364 167.791 300.555 167.445 300.938C167.109 301.311 166.909 301.834 166.843 302.506H170.665C170.656 301.871 170.507 301.358 170.217 300.966C169.928 300.565 169.471 300.364 168.845 300.364ZM182.096 299.356C182.945 299.356 183.58 299.575 184 300.014C184.42 300.453 184.63 301.153 184.63 302.114V307H183.412V302.17C183.412 300.985 182.903 300.392 181.886 300.392C181.158 300.392 180.635 300.602 180.318 301.022C180.01 301.442 179.856 302.053 179.856 302.856V307H178.638V302.17C178.638 300.985 178.124 300.392 177.098 300.392C176.342 300.392 175.819 300.625 175.53 301.092C175.24 301.559 175.096 302.231 175.096 303.108V307H173.864V299.496H174.858L175.04 300.518H175.11C175.343 300.126 175.656 299.837 176.048 299.65C176.449 299.454 176.874 299.356 177.322 299.356C178.498 299.356 179.263 299.776 179.618 300.616H179.688C179.94 300.187 180.28 299.869 180.71 299.664C181.139 299.459 181.601 299.356 182.096 299.356ZM193.385 296.864C194.262 296.864 194.981 297.069 195.541 297.48C196.101 297.891 196.381 298.483 196.381 299.258C196.381 299.659 196.292 300.009 196.115 300.308C195.947 300.607 195.718 300.873 195.429 301.106C195.139 301.33 194.822 301.531 194.477 301.708C194.887 301.913 195.261 302.137 195.597 302.38C195.933 302.623 196.199 302.907 196.395 303.234C196.6 303.561 196.703 303.953 196.703 304.41C196.703 305.25 196.404 305.917 195.807 306.412C195.209 306.897 194.416 307.14 193.427 307.14C192.344 307.14 191.513 306.907 190.935 306.44C190.365 305.964 190.081 305.301 190.081 304.452C190.081 304.004 190.174 303.612 190.361 303.276C190.557 302.931 190.813 302.637 191.131 302.394C191.448 302.151 191.789 301.946 192.153 301.778C191.658 301.498 191.243 301.162 190.907 300.77C190.571 300.369 190.403 299.86 190.403 299.244C190.403 298.74 190.533 298.311 190.795 297.956C191.056 297.601 191.411 297.331 191.859 297.144C192.307 296.957 192.815 296.864 193.385 296.864ZM193.371 297.858C192.848 297.858 192.423 297.984 192.097 298.236C191.77 298.479 191.607 298.833 191.607 299.3C191.607 299.645 191.686 299.935 191.845 300.168C192.013 300.401 192.237 300.602 192.517 300.77C192.797 300.929 193.105 301.083 193.441 301.232C193.926 301.027 194.332 300.779 194.659 300.49C194.995 300.201 195.163 299.804 195.163 299.3C195.163 298.833 194.999 298.479 194.673 298.236C194.346 297.984 193.912 297.858 193.371 297.858ZM191.285 304.466C191.285 304.951 191.457 305.357 191.803 305.684C192.148 306.001 192.68 306.16 193.399 306.16C194.08 306.16 194.598 306.001 194.953 305.684C195.317 305.357 195.499 304.937 195.499 304.424C195.499 303.939 195.307 303.537 194.925 303.22C194.542 302.893 194.033 302.609 193.399 302.366L193.175 302.282C192.559 302.553 192.087 302.856 191.761 303.192C191.443 303.528 191.285 303.953 191.285 304.466Z" fill="black"/>
<path d="M118.63 343L117.426 339.906H113.464L112.274 343H111L114.906 332.962H116.04L119.932 343H118.63ZM117.048 338.786L115.928 335.762C115.9 335.687 115.853 335.552 115.788 335.356C115.723 335.16 115.657 334.959 115.592 334.754C115.536 334.539 115.489 334.376 115.452 334.264C115.377 334.553 115.298 334.838 115.214 335.118C115.139 335.389 115.074 335.603 115.018 335.762L113.884 338.786H117.048ZM124.141 343.14C123.469 343.14 122.877 343.005 122.363 342.734C121.85 342.463 121.444 342.043 121.145 341.474C120.856 340.905 120.711 340.177 120.711 339.29C120.711 338.366 120.861 337.615 121.159 337.036C121.467 336.457 121.887 336.033 122.419 335.762C122.951 335.491 123.553 335.356 124.225 335.356C124.599 335.356 124.963 335.398 125.317 335.482C125.681 335.557 125.975 335.65 126.199 335.762L125.821 336.784C125.597 336.7 125.336 336.621 125.037 336.546C124.739 336.471 124.459 336.434 124.197 336.434C122.723 336.434 121.985 337.381 121.985 339.276C121.985 340.181 122.163 340.877 122.517 341.362C122.881 341.838 123.418 342.076 124.127 342.076C124.529 342.076 124.888 342.034 125.205 341.95C125.523 341.866 125.812 341.763 126.073 341.642V342.734C125.821 342.865 125.541 342.963 125.233 343.028C124.935 343.103 124.571 343.14 124.141 343.14ZM130.364 342.132C130.551 342.132 130.742 342.118 130.938 342.09C131.134 342.062 131.293 342.025 131.414 341.978V342.916C131.283 342.981 131.097 343.033 130.854 343.07C130.611 343.117 130.378 343.14 130.154 343.14C129.762 343.14 129.398 343.075 129.062 342.944C128.735 342.804 128.469 342.566 128.264 342.23C128.059 341.894 127.956 341.423 127.956 340.816V336.448H126.892V335.86L127.97 335.37L128.46 333.774H129.188V335.496H131.358V336.448H129.188V340.788C129.188 341.245 129.295 341.586 129.51 341.81C129.734 342.025 130.019 342.132 130.364 342.132ZM133.547 332.682C133.733 332.682 133.897 332.747 134.037 332.878C134.186 332.999 134.261 333.195 134.261 333.466C134.261 333.737 134.186 333.937 134.037 334.068C133.897 334.189 133.733 334.25 133.547 334.25C133.341 334.25 133.169 334.189 133.029 334.068C132.889 333.937 132.819 333.737 132.819 333.466C132.819 333.195 132.889 332.999 133.029 332.878C133.169 332.747 133.341 332.682 133.547 332.682ZM134.149 335.496V343H132.917V335.496H134.149ZM143.05 339.234C143.05 340.475 142.733 341.437 142.098 342.118C141.473 342.799 140.623 343.14 139.55 343.14C138.887 343.14 138.295 342.991 137.772 342.692C137.259 342.384 136.853 341.941 136.554 341.362C136.255 340.774 136.106 340.065 136.106 339.234C136.106 337.993 136.414 337.036 137.03 336.364C137.655 335.692 138.509 335.356 139.592 335.356C140.264 335.356 140.861 335.51 141.384 335.818C141.907 336.117 142.313 336.555 142.602 337.134C142.901 337.703 143.05 338.403 143.05 339.234ZM137.38 339.234C137.38 340.121 137.553 340.825 137.898 341.348C138.253 341.861 138.813 342.118 139.578 342.118C140.334 342.118 140.889 341.861 141.244 341.348C141.599 340.825 141.776 340.121 141.776 339.234C141.776 338.347 141.599 337.652 141.244 337.148C140.889 336.644 140.329 336.392 139.564 336.392C138.799 336.392 138.243 336.644 137.898 337.148C137.553 337.652 137.38 338.347 137.38 339.234ZM148.615 335.356C149.511 335.356 150.187 335.575 150.645 336.014C151.102 336.453 151.331 337.153 151.331 338.114V343H150.113V338.198C150.113 336.994 149.553 336.392 148.433 336.392C147.602 336.392 147.028 336.625 146.711 337.092C146.393 337.559 146.235 338.231 146.235 339.108V343H145.003V335.496H145.997L146.179 336.518H146.249C146.491 336.126 146.827 335.837 147.257 335.65C147.686 335.454 148.139 335.356 148.615 335.356ZM157.924 332.682C158.11 332.682 158.274 332.747 158.414 332.878C158.563 332.999 158.638 333.195 158.638 333.466C158.638 333.737 158.563 333.937 158.414 334.068C158.274 334.189 158.11 334.25 157.924 334.25C157.718 334.25 157.546 334.189 157.406 334.068C157.266 333.937 157.196 333.737 157.196 333.466C157.196 333.195 157.266 332.999 157.406 332.878C157.546 332.747 157.718 332.682 157.924 332.682ZM158.526 335.496V343H157.294V335.496H158.526ZM163.409 342.132C163.596 342.132 163.787 342.118 163.983 342.09C164.179 342.062 164.338 342.025 164.459 341.978V342.916C164.328 342.981 164.142 343.033 163.899 343.07C163.656 343.117 163.423 343.14 163.199 343.14C162.807 343.14 162.443 343.075 162.107 342.944C161.78 342.804 161.514 342.566 161.309 342.23C161.104 341.894 161.001 341.423 161.001 340.816V336.448H159.937V335.86L161.015 335.37L161.505 333.774H162.233V335.496H164.403V336.448H162.233V340.788C162.233 341.245 162.34 341.586 162.555 341.81C162.779 342.025 163.064 342.132 163.409 342.132ZM168.859 335.356C169.494 335.356 170.045 335.496 170.511 335.776C170.978 336.056 171.333 336.453 171.575 336.966C171.827 337.47 171.953 338.063 171.953 338.744V339.486H166.815C166.834 340.335 167.049 340.984 167.459 341.432C167.879 341.871 168.463 342.09 169.209 342.09C169.685 342.09 170.105 342.048 170.469 341.964C170.843 341.871 171.225 341.74 171.617 341.572V342.65C171.235 342.818 170.857 342.939 170.483 343.014C170.11 343.098 169.667 343.14 169.153 343.14C168.435 343.14 167.805 342.995 167.263 342.706C166.722 342.417 166.297 341.987 165.989 341.418C165.691 340.849 165.541 340.144 165.541 339.304C165.541 338.483 165.677 337.778 165.947 337.19C166.227 336.602 166.615 336.149 167.109 335.832C167.613 335.515 168.197 335.356 168.859 335.356ZM168.845 336.364C168.257 336.364 167.791 336.555 167.445 336.938C167.109 337.311 166.909 337.834 166.843 338.506H170.665C170.656 337.871 170.507 337.358 170.217 336.966C169.928 336.565 169.471 336.364 168.845 336.364ZM182.096 335.356C182.945 335.356 183.58 335.575 184 336.014C184.42 336.453 184.63 337.153 184.63 338.114V343H183.412V338.17C183.412 336.985 182.903 336.392 181.886 336.392C181.158 336.392 180.635 336.602 180.318 337.022C180.01 337.442 179.856 338.053 179.856 338.856V343H178.638V338.17C178.638 336.985 178.124 336.392 177.098 336.392C176.342 336.392 175.819 336.625 175.53 337.092C175.24 337.559 175.096 338.231 175.096 339.108V343H173.864V335.496H174.858L175.04 336.518H175.11C175.343 336.126 175.656 335.837 176.048 335.65C176.449 335.454 176.874 335.356 177.322 335.356C178.498 335.356 179.263 335.776 179.618 336.616H179.688C179.94 336.187 180.28 335.869 180.71 335.664C181.139 335.459 181.601 335.356 182.096 335.356ZM196.675 337.274C196.675 337.993 196.609 338.702 196.479 339.402C196.357 340.093 196.129 340.723 195.793 341.292C195.466 341.852 194.999 342.3 194.393 342.636C193.795 342.972 193.025 343.14 192.083 343.14C191.896 343.14 191.677 343.126 191.425 343.098C191.173 343.079 190.972 343.047 190.823 343V341.95C191.187 342.071 191.597 342.132 192.055 342.132C192.708 342.132 193.245 342.025 193.665 341.81C194.094 341.595 194.435 341.306 194.687 340.942C194.939 340.569 195.121 340.139 195.233 339.654C195.345 339.159 195.41 338.641 195.429 338.1H195.345C195.13 338.417 194.831 338.693 194.449 338.926C194.066 339.15 193.571 339.262 192.965 339.262C192.106 339.262 191.411 339.001 190.879 338.478C190.356 337.946 190.095 337.199 190.095 336.238C190.095 335.538 190.225 334.936 190.487 334.432C190.748 333.928 191.117 333.541 191.593 333.27C192.078 332.999 192.643 332.864 193.287 332.864C193.921 332.864 194.495 333.027 195.009 333.354C195.522 333.671 195.928 334.157 196.227 334.81C196.525 335.454 196.675 336.275 196.675 337.274ZM193.287 333.9C192.708 333.9 192.232 334.091 191.859 334.474C191.495 334.857 191.313 335.44 191.313 336.224C191.313 336.868 191.467 337.377 191.775 337.75C192.092 338.114 192.577 338.296 193.231 338.296C193.679 338.296 194.066 338.207 194.393 338.03C194.719 337.843 194.971 337.61 195.149 337.33C195.335 337.05 195.429 336.761 195.429 336.462C195.429 336.061 195.349 335.664 195.191 335.272C195.032 334.88 194.794 334.553 194.477 334.292C194.159 334.031 193.763 333.9 193.287 333.9Z" fill="black"/>
<path d="M118.63 379L117.426 375.906H113.464L112.274 379H111L114.906 368.962H116.04L119.932 379H118.63ZM117.048 374.786L115.928 371.762C115.9 371.687 115.853 371.552 115.788 371.356C115.723 371.16 115.657 370.959 115.592 370.754C115.536 370.539 115.489 370.376 115.452 370.264C115.377 370.553 115.298 370.838 115.214 371.118C115.139 371.389 115.074 371.603 115.018 371.762L113.884 374.786H117.048ZM124.141 379.14C123.469 379.14 122.877 379.005 122.363 378.734C121.85 378.463 121.444 378.043 121.145 377.474C120.856 376.905 120.711 376.177 120.711 375.29C120.711 374.366 120.861 373.615 121.159 373.036C121.467 372.457 121.887 372.033 122.419 371.762C122.951 371.491 123.553 371.356 124.225 371.356C124.599 371.356 124.963 371.398 125.317 371.482C125.681 371.557 125.975 371.65 126.199 371.762L125.821 372.784C125.597 372.7 125.336 372.621 125.037 372.546C124.739 372.471 124.459 372.434 124.197 372.434C122.723 372.434 121.985 373.381 121.985 375.276C121.985 376.181 122.163 376.877 122.517 377.362C122.881 377.838 123.418 378.076 124.127 378.076C124.529 378.076 124.888 378.034 125.205 377.95C125.523 377.866 125.812 377.763 126.073 377.642V378.734C125.821 378.865 125.541 378.963 125.233 379.028C124.935 379.103 124.571 379.14 124.141 379.14ZM130.364 378.132C130.551 378.132 130.742 378.118 130.938 378.09C131.134 378.062 131.293 378.025 131.414 377.978V378.916C131.283 378.981 131.097 379.033 130.854 379.07C130.611 379.117 130.378 379.14 130.154 379.14C129.762 379.14 129.398 379.075 129.062 378.944C128.735 378.804 128.469 378.566 128.264 378.23C128.059 377.894 127.956 377.423 127.956 376.816V372.448H126.892V371.86L127.97 371.37L128.46 369.774H129.188V371.496H131.358V372.448H129.188V376.788C129.188 377.245 129.295 377.586 129.51 377.81C129.734 378.025 130.019 378.132 130.364 378.132ZM133.547 368.682C133.733 368.682 133.897 368.747 134.037 368.878C134.186 368.999 134.261 369.195 134.261 369.466C134.261 369.737 134.186 369.937 134.037 370.068C133.897 370.189 133.733 370.25 133.547 370.25C133.341 370.25 133.169 370.189 133.029 370.068C132.889 369.937 132.819 369.737 132.819 369.466C132.819 369.195 132.889 368.999 133.029 368.878C133.169 368.747 133.341 368.682 133.547 368.682ZM134.149 371.496V379H132.917V371.496H134.149ZM143.05 375.234C143.05 376.475 142.733 377.437 142.098 378.118C141.473 378.799 140.623 379.14 139.55 379.14C138.887 379.14 138.295 378.991 137.772 378.692C137.259 378.384 136.853 377.941 136.554 377.362C136.255 376.774 136.106 376.065 136.106 375.234C136.106 373.993 136.414 373.036 137.03 372.364C137.655 371.692 138.509 371.356 139.592 371.356C140.264 371.356 140.861 371.51 141.384 371.818C141.907 372.117 142.313 372.555 142.602 373.134C142.901 373.703 143.05 374.403 143.05 375.234ZM137.38 375.234C137.38 376.121 137.553 376.825 137.898 377.348C138.253 377.861 138.813 378.118 139.578 378.118C140.334 378.118 140.889 377.861 141.244 377.348C141.599 376.825 141.776 376.121 141.776 375.234C141.776 374.347 141.599 373.652 141.244 373.148C140.889 372.644 140.329 372.392 139.564 372.392C138.799 372.392 138.243 372.644 137.898 373.148C137.553 373.652 137.38 374.347 137.38 375.234ZM148.615 371.356C149.511 371.356 150.187 371.575 150.645 372.014C151.102 372.453 151.331 373.153 151.331 374.114V379H150.113V374.198C150.113 372.994 149.553 372.392 148.433 372.392C147.602 372.392 147.028 372.625 146.711 373.092C146.393 373.559 146.235 374.231 146.235 375.108V379H145.003V371.496H145.997L146.179 372.518H146.249C146.491 372.126 146.827 371.837 147.257 371.65C147.686 371.454 148.139 371.356 148.615 371.356ZM157.924 368.682C158.11 368.682 158.274 368.747 158.414 368.878C158.563 368.999 158.638 369.195 158.638 369.466C158.638 369.737 158.563 369.937 158.414 370.068C158.274 370.189 158.11 370.25 157.924 370.25C157.718 370.25 157.546 370.189 157.406 370.068C157.266 369.937 157.196 369.737 157.196 369.466C157.196 369.195 157.266 368.999 157.406 368.878C157.546 368.747 157.718 368.682 157.924 368.682ZM158.526 371.496V379H157.294V371.496H158.526ZM163.409 378.132C163.596 378.132 163.787 378.118 163.983 378.09C164.179 378.062 164.338 378.025 164.459 377.978V378.916C164.328 378.981 164.142 379.033 163.899 379.07C163.656 379.117 163.423 379.14 163.199 379.14C162.807 379.14 162.443 379.075 162.107 378.944C161.78 378.804 161.514 378.566 161.309 378.23C161.104 377.894 161.001 377.423 161.001 376.816V372.448H159.937V371.86L161.015 371.37L161.505 369.774H162.233V371.496H164.403V372.448H162.233V376.788C162.233 377.245 162.34 377.586 162.555 377.81C162.779 378.025 163.064 378.132 163.409 378.132ZM168.859 371.356C169.494 371.356 170.045 371.496 170.511 371.776C170.978 372.056 171.333 372.453 171.575 372.966C171.827 373.47 171.953 374.063 171.953 374.744V375.486H166.815C166.834 376.335 167.049 376.984 167.459 377.432C167.879 377.871 168.463 378.09 169.209 378.09C169.685 378.09 170.105 378.048 170.469 377.964C170.843 377.871 171.225 377.74 171.617 377.572V378.65C171.235 378.818 170.857 378.939 170.483 379.014C170.11 379.098 169.667 379.14 169.153 379.14C168.435 379.14 167.805 378.995 167.263 378.706C166.722 378.417 166.297 377.987 165.989 377.418C165.691 376.849 165.541 376.144 165.541 375.304C165.541 374.483 165.677 373.778 165.947 373.19C166.227 372.602 166.615 372.149 167.109 371.832C167.613 371.515 168.197 371.356 168.859 371.356ZM168.845 372.364C168.257 372.364 167.791 372.555 167.445 372.938C167.109 373.311 166.909 373.834 166.843 374.506H170.665C170.656 373.871 170.507 373.358 170.217 372.966C169.928 372.565 169.471 372.364 168.845 372.364ZM182.096 371.356C182.945 371.356 183.58 371.575 184 372.014C184.42 372.453 184.63 373.153 184.63 374.114V379H183.412V374.17C183.412 372.985 182.903 372.392 181.886 372.392C181.158 372.392 180.635 372.602 180.318 373.022C180.01 373.442 179.856 374.053 179.856 374.856V379H178.638V374.17C178.638 372.985 178.124 372.392 177.098 372.392C176.342 372.392 175.819 372.625 175.53 373.092C175.24 373.559 175.096 374.231 175.096 375.108V379H173.864V371.496H174.858L175.04 372.518H175.11C175.343 372.126 175.656 371.837 176.048 371.65C176.449 371.454 176.874 371.356 177.322 371.356C178.498 371.356 179.263 371.776 179.618 372.616H179.688C179.94 372.187 180.28 371.869 180.71 371.664C181.139 371.459 181.601 371.356 182.096 371.356ZM194.365 379H193.161V372.014C193.161 371.613 193.165 371.291 193.175 371.048C193.184 370.805 193.198 370.553 193.217 370.292C193.067 370.441 192.927 370.567 192.797 370.67C192.675 370.773 192.526 370.903 192.349 371.062L191.285 371.93L190.641 371.104L193.343 369.004H194.365V379ZM204.728 373.988C204.728 375.071 204.616 375.995 204.392 376.76C204.168 377.525 203.809 378.113 203.314 378.524C202.829 378.935 202.19 379.14 201.396 379.14C200.267 379.14 199.432 378.687 198.89 377.782C198.358 376.867 198.092 375.603 198.092 373.988C198.092 372.905 198.2 371.981 198.414 371.216C198.638 370.451 198.993 369.867 199.478 369.466C199.964 369.055 200.603 368.85 201.396 368.85C202.516 368.85 203.352 369.303 203.902 370.208C204.453 371.104 204.728 372.364 204.728 373.988ZM199.324 373.988C199.324 375.36 199.478 376.387 199.786 377.068C200.104 377.749 200.64 378.09 201.396 378.09C202.143 378.09 202.675 377.754 202.992 377.082C203.319 376.401 203.482 375.369 203.482 373.988C203.482 372.625 203.319 371.603 202.992 370.922C202.675 370.241 202.143 369.9 201.396 369.9C200.64 369.9 200.104 370.241 199.786 370.922C199.478 371.603 199.324 372.625 199.324 373.988Z" fill="black"/>
<path d="M118.63 415L117.426 411.906H113.464L112.274 415H111L114.906 404.962H116.04L119.932 415H118.63ZM117.048 410.786L115.928 407.762C115.9 407.687 115.853 407.552 115.788 407.356C115.723 407.16 115.657 406.959 115.592 406.754C115.536 406.539 115.489 406.376 115.452 406.264C115.377 406.553 115.298 406.838 115.214 407.118C115.139 407.389 115.074 407.603 115.018 407.762L113.884 410.786H117.048ZM124.141 415.14C123.469 415.14 122.877 415.005 122.363 414.734C121.85 414.463 121.444 414.043 121.145 413.474C120.856 412.905 120.711 412.177 120.711 411.29C120.711 410.366 120.861 409.615 121.159 409.036C121.467 408.457 121.887 408.033 122.419 407.762C122.951 407.491 123.553 407.356 124.225 407.356C124.599 407.356 124.963 407.398 125.317 407.482C125.681 407.557 125.975 407.65 126.199 407.762L125.821 408.784C125.597 408.7 125.336 408.621 125.037 408.546C124.739 408.471 124.459 408.434 124.197 408.434C122.723 408.434 121.985 409.381 121.985 411.276C121.985 412.181 122.163 412.877 122.517 413.362C122.881 413.838 123.418 414.076 124.127 414.076C124.529 414.076 124.888 414.034 125.205 413.95C125.523 413.866 125.812 413.763 126.073 413.642V414.734C125.821 414.865 125.541 414.963 125.233 415.028C124.935 415.103 124.571 415.14 124.141 415.14ZM130.364 414.132C130.551 414.132 130.742 414.118 130.938 414.09C131.134 414.062 131.293 414.025 131.414 413.978V414.916C131.283 414.981 131.097 415.033 130.854 415.07C130.611 415.117 130.378 415.14 130.154 415.14C129.762 415.14 129.398 415.075 129.062 414.944C128.735 414.804 128.469 414.566 128.264 414.23C128.059 413.894 127.956 413.423 127.956 412.816V408.448H126.892V407.86L127.97 407.37L128.46 405.774H129.188V407.496H131.358V408.448H129.188V412.788C129.188 413.245 129.295 413.586 129.51 413.81C129.734 414.025 130.019 414.132 130.364 414.132ZM133.547 404.682C133.733 404.682 133.897 404.747 134.037 404.878C134.186 404.999 134.261 405.195 134.261 405.466C134.261 405.737 134.186 405.937 134.037 406.068C133.897 406.189 133.733 406.25 133.547 406.25C133.341 406.25 133.169 406.189 133.029 406.068C132.889 405.937 132.819 405.737 132.819 405.466C132.819 405.195 132.889 404.999 133.029 404.878C133.169 404.747 133.341 404.682 133.547 404.682ZM134.149 407.496V415H132.917V407.496H134.149ZM143.05 411.234C143.05 412.475 142.733 413.437 142.098 414.118C141.473 414.799 140.623 415.14 139.55 415.14C138.887 415.14 138.295 414.991 137.772 414.692C137.259 414.384 136.853 413.941 136.554 413.362C136.255 412.774 136.106 412.065 136.106 411.234C136.106 409.993 136.414 409.036 137.03 408.364C137.655 407.692 138.509 407.356 139.592 407.356C140.264 407.356 140.861 407.51 141.384 407.818C141.907 408.117 142.313 408.555 142.602 409.134C142.901 409.703 143.05 410.403 143.05 411.234ZM137.38 411.234C137.38 412.121 137.553 412.825 137.898 413.348C138.253 413.861 138.813 414.118 139.578 414.118C140.334 414.118 140.889 413.861 141.244 413.348C141.599 412.825 141.776 412.121 141.776 411.234C141.776 410.347 141.599 409.652 141.244 409.148C140.889 408.644 140.329 408.392 139.564 408.392C138.799 408.392 138.243 408.644 137.898 409.148C137.553 409.652 137.38 410.347 137.38 411.234ZM148.615 407.356C149.511 407.356 150.187 407.575 150.645 408.014C151.102 408.453 151.331 409.153 151.331 410.114V415H150.113V410.198C150.113 408.994 149.553 408.392 148.433 408.392C147.602 408.392 147.028 408.625 146.711 409.092C146.393 409.559 146.235 410.231 146.235 411.108V415H145.003V407.496H145.997L146.179 408.518H146.249C146.491 408.126 146.827 407.837 147.257 407.65C147.686 407.454 148.139 407.356 148.615 407.356ZM157.924 404.682C158.11 404.682 158.274 404.747 158.414 404.878C158.563 404.999 158.638 405.195 158.638 405.466C158.638 405.737 158.563 405.937 158.414 406.068C158.274 406.189 158.11 406.25 157.924 406.25C157.718 406.25 157.546 406.189 157.406 406.068C157.266 405.937 157.196 405.737 157.196 405.466C157.196 405.195 157.266 404.999 157.406 404.878C157.546 404.747 157.718 404.682 157.924 404.682ZM158.526 407.496V415H157.294V407.496H158.526ZM163.409 414.132C163.596 414.132 163.787 414.118 163.983 414.09C164.179 414.062 164.338 414.025 164.459 413.978V414.916C164.328 414.981 164.142 415.033 163.899 415.07C163.656 415.117 163.423 415.14 163.199 415.14C162.807 415.14 162.443 415.075 162.107 414.944C161.78 414.804 161.514 414.566 161.309 414.23C161.104 413.894 161.001 413.423 161.001 412.816V408.448H159.937V407.86L161.015 407.37L161.505 405.774H162.233V407.496H164.403V408.448H162.233V412.788C162.233 413.245 162.34 413.586 162.555 413.81C162.779 414.025 163.064 414.132 163.409 414.132ZM168.859 407.356C169.494 407.356 170.045 407.496 170.511 407.776C170.978 408.056 171.333 408.453 171.575 408.966C171.827 409.47 171.953 410.063 171.953 410.744V411.486H166.815C166.834 412.335 167.049 412.984 167.459 413.432C167.879 413.871 168.463 414.09 169.209 414.09C169.685 414.09 170.105 414.048 170.469 413.964C170.843 413.871 171.225 413.74 171.617 413.572V414.65C171.235 414.818 170.857 414.939 170.483 415.014C170.11 415.098 169.667 415.14 169.153 415.14C168.435 415.14 167.805 414.995 167.263 414.706C166.722 414.417 166.297 413.987 165.989 413.418C165.691 412.849 165.541 412.144 165.541 411.304C165.541 410.483 165.677 409.778 165.947 409.19C166.227 408.602 166.615 408.149 167.109 407.832C167.613 407.515 168.197 407.356 168.859 407.356ZM168.845 408.364C168.257 408.364 167.791 408.555 167.445 408.938C167.109 409.311 166.909 409.834 166.843 410.506H170.665C170.656 409.871 170.507 409.358 170.217 408.966C169.928 408.565 169.471 408.364 168.845 408.364ZM182.096 407.356C182.945 407.356 183.58 407.575 184 408.014C184.42 408.453 184.63 409.153 184.63 410.114V415H183.412V410.17C183.412 408.985 182.903 408.392 181.886 408.392C181.158 408.392 180.635 408.602 180.318 409.022C180.01 409.442 179.856 410.053 179.856 410.856V415H178.638V410.17C178.638 408.985 178.124 408.392 177.098 408.392C176.342 408.392 175.819 408.625 175.53 409.092C175.24 409.559 175.096 410.231 175.096 411.108V415H173.864V407.496H174.858L175.04 408.518H175.11C175.343 408.126 175.656 407.837 176.048 407.65C176.449 407.454 176.874 407.356 177.322 407.356C178.498 407.356 179.263 407.776 179.618 408.616H179.688C179.94 408.187 180.28 407.869 180.71 407.664C181.139 407.459 181.601 407.356 182.096 407.356ZM194.365 415H193.161V408.014C193.161 407.613 193.165 407.291 193.175 407.048C193.184 406.805 193.198 406.553 193.217 406.292C193.067 406.441 192.927 406.567 192.797 406.67C192.675 406.773 192.526 406.903 192.349 407.062L191.285 407.93L190.641 407.104L193.343 405.004H194.365V415ZM202.376 415H201.172V408.014C201.172 407.613 201.177 407.291 201.186 407.048C201.196 406.805 201.21 406.553 201.228 406.292C201.079 406.441 200.939 406.567 200.808 406.67C200.687 406.773 200.538 406.903 200.36 407.062L199.296 407.93L198.652 407.104L201.354 405.004H202.376V415Z" fill="black"/>
<path d="M118.63 451L117.426 447.906H113.464L112.274 451H111L114.906 440.962H116.04L119.932 451H118.63ZM117.048 446.786L115.928 443.762C115.9 443.687 115.853 443.552 115.788 443.356C115.723 443.16 115.657 442.959 115.592 442.754C115.536 442.539 115.489 442.376 115.452 442.264C115.377 442.553 115.298 442.838 115.214 443.118C115.139 443.389 115.074 443.603 115.018 443.762L113.884 446.786H117.048ZM124.141 451.14C123.469 451.14 122.877 451.005 122.363 450.734C121.85 450.463 121.444 450.043 121.145 449.474C120.856 448.905 120.711 448.177 120.711 447.29C120.711 446.366 120.861 445.615 121.159 445.036C121.467 444.457 121.887 444.033 122.419 443.762C122.951 443.491 123.553 443.356 124.225 443.356C124.599 443.356 124.963 443.398 125.317 443.482C125.681 443.557 125.975 443.65 126.199 443.762L125.821 444.784C125.597 444.7 125.336 444.621 125.037 444.546C124.739 444.471 124.459 444.434 124.197 444.434C122.723 444.434 121.985 445.381 121.985 447.276C121.985 448.181 122.163 448.877 122.517 449.362C122.881 449.838 123.418 450.076 124.127 450.076C124.529 450.076 124.888 450.034 125.205 449.95C125.523 449.866 125.812 449.763 126.073 449.642V450.734C125.821 450.865 125.541 450.963 125.233 451.028C124.935 451.103 124.571 451.14 124.141 451.14ZM130.364 450.132C130.551 450.132 130.742 450.118 130.938 450.09C131.134 450.062 131.293 450.025 131.414 449.978V450.916C131.283 450.981 131.097 451.033 130.854 451.07C130.611 451.117 130.378 451.14 130.154 451.14C129.762 451.14 129.398 451.075 129.062 450.944C128.735 450.804 128.469 450.566 128.264 450.23C128.059 449.894 127.956 449.423 127.956 448.816V444.448H126.892V443.86L127.97 443.37L128.46 441.774H129.188V443.496H131.358V444.448H129.188V448.788C129.188 449.245 129.295 449.586 129.51 449.81C129.734 450.025 130.019 450.132 130.364 450.132ZM133.547 440.682C133.733 440.682 133.897 440.747 134.037 440.878C134.186 440.999 134.261 441.195 134.261 441.466C134.261 441.737 134.186 441.937 134.037 442.068C133.897 442.189 133.733 442.25 133.547 442.25C133.341 442.25 133.169 442.189 133.029 442.068C132.889 441.937 132.819 441.737 132.819 441.466C132.819 441.195 132.889 440.999 133.029 440.878C133.169 440.747 133.341 440.682 133.547 440.682ZM134.149 443.496V451H132.917V443.496H134.149ZM143.05 447.234C143.05 448.475 142.733 449.437 142.098 450.118C141.473 450.799 140.623 451.14 139.55 451.14C138.887 451.14 138.295 450.991 137.772 450.692C137.259 450.384 136.853 449.941 136.554 449.362C136.255 448.774 136.106 448.065 136.106 447.234C136.106 445.993 136.414 445.036 137.03 444.364C137.655 443.692 138.509 443.356 139.592 443.356C140.264 443.356 140.861 443.51 141.384 443.818C141.907 444.117 142.313 444.555 142.602 445.134C142.901 445.703 143.05 446.403 143.05 447.234ZM137.38 447.234C137.38 448.121 137.553 448.825 137.898 449.348C138.253 449.861 138.813 450.118 139.578 450.118C140.334 450.118 140.889 449.861 141.244 449.348C141.599 448.825 141.776 448.121 141.776 447.234C141.776 446.347 141.599 445.652 141.244 445.148C140.889 444.644 140.329 444.392 139.564 444.392C138.799 444.392 138.243 444.644 137.898 445.148C137.553 445.652 137.38 446.347 137.38 447.234ZM148.615 443.356C149.511 443.356 150.187 443.575 150.645 444.014C151.102 444.453 151.331 445.153 151.331 446.114V451H150.113V446.198C150.113 444.994 149.553 444.392 148.433 444.392C147.602 444.392 147.028 444.625 146.711 445.092C146.393 445.559 146.235 446.231 146.235 447.108V451H145.003V443.496H145.997L146.179 444.518H146.249C146.491 444.126 146.827 443.837 147.257 443.65C147.686 443.454 148.139 443.356 148.615 443.356ZM157.924 440.682C158.11 440.682 158.274 440.747 158.414 440.878C158.563 440.999 158.638 441.195 158.638 441.466C158.638 441.737 158.563 441.937 158.414 442.068C158.274 442.189 158.11 442.25 157.924 442.25C157.718 442.25 157.546 442.189 157.406 442.068C157.266 441.937 157.196 441.737 157.196 441.466C157.196 441.195 157.266 440.999 157.406 440.878C157.546 440.747 157.718 440.682 157.924 440.682ZM158.526 443.496V451H157.294V443.496H158.526ZM163.409 450.132C163.596 450.132 163.787 450.118 163.983 450.09C164.179 450.062 164.338 450.025 164.459 449.978V450.916C164.328 450.981 164.142 451.033 163.899 451.07C163.656 451.117 163.423 451.14 163.199 451.14C162.807 451.14 162.443 451.075 162.107 450.944C161.78 450.804 161.514 450.566 161.309 450.23C161.104 449.894 161.001 449.423 161.001 448.816V444.448H159.937V443.86L161.015 443.37L161.505 441.774H162.233V443.496H164.403V444.448H162.233V448.788C162.233 449.245 162.34 449.586 162.555 449.81C162.779 450.025 163.064 450.132 163.409 450.132ZM168.859 443.356C169.494 443.356 170.045 443.496 170.511 443.776C170.978 444.056 171.333 444.453 171.575 444.966C171.827 445.47 171.953 446.063 171.953 446.744V447.486H166.815C166.834 448.335 167.049 448.984 167.459 449.432C167.879 449.871 168.463 450.09 169.209 450.09C169.685 450.09 170.105 450.048 170.469 449.964C170.843 449.871 171.225 449.74 171.617 449.572V450.65C171.235 450.818 170.857 450.939 170.483 451.014C170.11 451.098 169.667 451.14 169.153 451.14C168.435 451.14 167.805 450.995 167.263 450.706C166.722 450.417 166.297 449.987 165.989 449.418C165.691 448.849 165.541 448.144 165.541 447.304C165.541 446.483 165.677 445.778 165.947 445.19C166.227 444.602 166.615 444.149 167.109 443.832C167.613 443.515 168.197 443.356 168.859 443.356ZM168.845 444.364C168.257 444.364 167.791 444.555 167.445 444.938C167.109 445.311 166.909 445.834 166.843 446.506H170.665C170.656 445.871 170.507 445.358 170.217 444.966C169.928 444.565 169.471 444.364 168.845 444.364ZM182.096 443.356C182.945 443.356 183.58 443.575 184 444.014C184.42 444.453 184.63 445.153 184.63 446.114V451H183.412V446.17C183.412 444.985 182.903 444.392 181.886 444.392C181.158 444.392 180.635 444.602 180.318 445.022C180.01 445.442 179.856 446.053 179.856 446.856V451H178.638V446.17C178.638 444.985 178.124 444.392 177.098 444.392C176.342 444.392 175.819 444.625 175.53 445.092C175.24 445.559 175.096 446.231 175.096 447.108V451H173.864V443.496H174.858L175.04 444.518H175.11C175.343 444.126 175.656 443.837 176.048 443.65C176.449 443.454 176.874 443.356 177.322 443.356C178.498 443.356 179.263 443.776 179.618 444.616H179.688C179.94 444.187 180.28 443.869 180.71 443.664C181.139 443.459 181.601 443.356 182.096 443.356ZM194.365 451H193.161V444.014C193.161 443.613 193.165 443.291 193.175 443.048C193.184 442.805 193.198 442.553 193.217 442.292C193.067 442.441 192.927 442.567 192.797 442.67C192.675 442.773 192.526 442.903 192.349 443.062L191.285 443.93L190.641 443.104L193.343 441.004H194.365V451ZM204.686 451H198.078V449.978L200.696 447.332C201.191 446.828 201.611 446.38 201.956 445.988C202.311 445.596 202.577 445.213 202.754 444.84C202.932 444.467 203.02 444.051 203.02 443.594C203.02 443.043 202.857 442.628 202.53 442.348C202.204 442.059 201.779 441.914 201.256 441.914C200.762 441.914 200.332 441.998 199.968 442.166C199.604 442.334 199.231 442.567 198.848 442.866L198.19 442.04C198.582 441.713 199.03 441.438 199.534 441.214C200.048 440.981 200.622 440.864 201.256 440.864C202.19 440.864 202.927 441.102 203.468 441.578C204.01 442.054 204.28 442.703 204.28 443.524C204.28 444.047 204.173 444.537 203.958 444.994C203.744 445.451 203.445 445.904 203.062 446.352C202.68 446.8 202.232 447.271 201.718 447.766L199.632 449.824V449.88H204.686V451Z" fill="black"/>
<path d="M118.63 487L117.426 483.906H113.464L112.274 487H111L114.906 476.962H116.04L119.932 487H118.63ZM117.048 482.786L115.928 479.762C115.9 479.687 115.853 479.552 115.788 479.356C115.723 479.16 115.657 478.959 115.592 478.754C115.536 478.539 115.489 478.376 115.452 478.264C115.377 478.553 115.298 478.838 115.214 479.118C115.139 479.389 115.074 479.603 115.018 479.762L113.884 482.786H117.048ZM124.141 487.14C123.469 487.14 122.877 487.005 122.363 486.734C121.85 486.463 121.444 486.043 121.145 485.474C120.856 484.905 120.711 484.177 120.711 483.29C120.711 482.366 120.861 481.615 121.159 481.036C121.467 480.457 121.887 480.033 122.419 479.762C122.951 479.491 123.553 479.356 124.225 479.356C124.599 479.356 124.963 479.398 125.317 479.482C125.681 479.557 125.975 479.65 126.199 479.762L125.821 480.784C125.597 480.7 125.336 480.621 125.037 480.546C124.739 480.471 124.459 480.434 124.197 480.434C122.723 480.434 121.985 481.381 121.985 483.276C121.985 484.181 122.163 484.877 122.517 485.362C122.881 485.838 123.418 486.076 124.127 486.076C124.529 486.076 124.888 486.034 125.205 485.95C125.523 485.866 125.812 485.763 126.073 485.642V486.734C125.821 486.865 125.541 486.963 125.233 487.028C124.935 487.103 124.571 487.14 124.141 487.14ZM130.364 486.132C130.551 486.132 130.742 486.118 130.938 486.09C131.134 486.062 131.293 486.025 131.414 485.978V486.916C131.283 486.981 131.097 487.033 130.854 487.07C130.611 487.117 130.378 487.14 130.154 487.14C129.762 487.14 129.398 487.075 129.062 486.944C128.735 486.804 128.469 486.566 128.264 486.23C128.059 485.894 127.956 485.423 127.956 484.816V480.448H126.892V479.86L127.97 479.37L128.46 477.774H129.188V479.496H131.358V480.448H129.188V484.788C129.188 485.245 129.295 485.586 129.51 485.81C129.734 486.025 130.019 486.132 130.364 486.132ZM133.547 476.682C133.733 476.682 133.897 476.747 134.037 476.878C134.186 476.999 134.261 477.195 134.261 477.466C134.261 477.737 134.186 477.937 134.037 478.068C133.897 478.189 133.733 478.25 133.547 478.25C133.341 478.25 133.169 478.189 133.029 478.068C132.889 477.937 132.819 477.737 132.819 477.466C132.819 477.195 132.889 476.999 133.029 476.878C133.169 476.747 133.341 476.682 133.547 476.682ZM134.149 479.496V487H132.917V479.496H134.149ZM143.05 483.234C143.05 484.475 142.733 485.437 142.098 486.118C141.473 486.799 140.623 487.14 139.55 487.14C138.887 487.14 138.295 486.991 137.772 486.692C137.259 486.384 136.853 485.941 136.554 485.362C136.255 484.774 136.106 484.065 136.106 483.234C136.106 481.993 136.414 481.036 137.03 480.364C137.655 479.692 138.509 479.356 139.592 479.356C140.264 479.356 140.861 479.51 141.384 479.818C141.907 480.117 142.313 480.555 142.602 481.134C142.901 481.703 143.05 482.403 143.05 483.234ZM137.38 483.234C137.38 484.121 137.553 484.825 137.898 485.348C138.253 485.861 138.813 486.118 139.578 486.118C140.334 486.118 140.889 485.861 141.244 485.348C141.599 484.825 141.776 484.121 141.776 483.234C141.776 482.347 141.599 481.652 141.244 481.148C140.889 480.644 140.329 480.392 139.564 480.392C138.799 480.392 138.243 480.644 137.898 481.148C137.553 481.652 137.38 482.347 137.38 483.234ZM148.615 479.356C149.511 479.356 150.187 479.575 150.645 480.014C151.102 480.453 151.331 481.153 151.331 482.114V487H150.113V482.198C150.113 480.994 149.553 480.392 148.433 480.392C147.602 480.392 147.028 480.625 146.711 481.092C146.393 481.559 146.235 482.231 146.235 483.108V487H145.003V479.496H145.997L146.179 480.518H146.249C146.491 480.126 146.827 479.837 147.257 479.65C147.686 479.454 148.139 479.356 148.615 479.356ZM157.924 476.682C158.11 476.682 158.274 476.747 158.414 476.878C158.563 476.999 158.638 477.195 158.638 477.466C158.638 477.737 158.563 477.937 158.414 478.068C158.274 478.189 158.11 478.25 157.924 478.25C157.718 478.25 157.546 478.189 157.406 478.068C157.266 477.937 157.196 477.737 157.196 477.466C157.196 477.195 157.266 476.999 157.406 476.878C157.546 476.747 157.718 476.682 157.924 476.682ZM158.526 479.496V487H157.294V479.496H158.526ZM163.409 486.132C163.596 486.132 163.787 486.118 163.983 486.09C164.179 486.062 164.338 486.025 164.459 485.978V486.916C164.328 486.981 164.142 487.033 163.899 487.07C163.656 487.117 163.423 487.14 163.199 487.14C162.807 487.14 162.443 487.075 162.107 486.944C161.78 486.804 161.514 486.566 161.309 486.23C161.104 485.894 161.001 485.423 161.001 484.816V480.448H159.937V479.86L161.015 479.37L161.505 477.774H162.233V479.496H164.403V480.448H162.233V484.788C162.233 485.245 162.34 485.586 162.555 485.81C162.779 486.025 163.064 486.132 163.409 486.132ZM168.859 479.356C169.494 479.356 170.045 479.496 170.511 479.776C170.978 480.056 171.333 480.453 171.575 480.966C171.827 481.47 171.953 482.063 171.953 482.744V483.486H166.815C166.834 484.335 167.049 484.984 167.459 485.432C167.879 485.871 168.463 486.09 169.209 486.09C169.685 486.09 170.105 486.048 170.469 485.964C170.843 485.871 171.225 485.74 171.617 485.572V486.65C171.235 486.818 170.857 486.939 170.483 487.014C170.11 487.098 169.667 487.14 169.153 487.14C168.435 487.14 167.805 486.995 167.263 486.706C166.722 486.417 166.297 485.987 165.989 485.418C165.691 484.849 165.541 484.144 165.541 483.304C165.541 482.483 165.677 481.778 165.947 481.19C166.227 480.602 166.615 480.149 167.109 479.832C167.613 479.515 168.197 479.356 168.859 479.356ZM168.845 480.364C168.257 480.364 167.791 480.555 167.445 480.938C167.109 481.311 166.909 481.834 166.843 482.506H170.665C170.656 481.871 170.507 481.358 170.217 480.966C169.928 480.565 169.471 480.364 168.845 480.364ZM182.096 479.356C182.945 479.356 183.58 479.575 184 480.014C184.42 480.453 184.63 481.153 184.63 482.114V487H183.412V482.17C183.412 480.985 182.903 480.392 181.886 480.392C181.158 480.392 180.635 480.602 180.318 481.022C180.01 481.442 179.856 482.053 179.856 482.856V487H178.638V482.17C178.638 480.985 178.124 480.392 177.098 480.392C176.342 480.392 175.819 480.625 175.53 481.092C175.24 481.559 175.096 482.231 175.096 483.108V487H173.864V479.496H174.858L175.04 480.518H175.11C175.343 480.126 175.656 479.837 176.048 479.65C176.449 479.454 176.874 479.356 177.322 479.356C178.498 479.356 179.263 479.776 179.618 480.616H179.688C179.94 480.187 180.28 479.869 180.71 479.664C181.139 479.459 181.601 479.356 182.096 479.356ZM194.365 487H193.161V480.014C193.161 479.613 193.165 479.291 193.175 479.048C193.184 478.805 193.198 478.553 193.217 478.292C193.067 478.441 192.927 478.567 192.797 478.67C192.675 478.773 192.526 478.903 192.349 479.062L191.285 479.93L190.641 479.104L193.343 477.004H194.365V487ZM204.308 479.342C204.308 480.014 204.117 480.551 203.734 480.952C203.361 481.344 202.862 481.605 202.236 481.736V481.792C203.03 481.885 203.622 482.137 204.014 482.548C204.416 482.959 204.616 483.495 204.616 484.158C204.616 484.746 204.481 485.264 204.21 485.712C203.94 486.16 203.52 486.51 202.95 486.762C202.39 487.014 201.667 487.14 200.78 487.14C200.258 487.14 199.772 487.098 199.324 487.014C198.876 486.939 198.447 486.799 198.036 486.594V485.446C198.456 485.661 198.909 485.824 199.394 485.936C199.88 486.048 200.346 486.104 200.794 486.104C201.69 486.104 202.334 485.931 202.726 485.586C203.128 485.231 203.328 484.746 203.328 484.13C203.328 483.505 203.081 483.057 202.586 482.786C202.101 482.506 201.415 482.366 200.528 482.366H199.562V481.316H200.542C201.364 481.316 201.984 481.143 202.404 480.798C202.834 480.453 203.048 479.995 203.048 479.426C203.048 478.941 202.885 478.567 202.558 478.306C202.232 478.035 201.788 477.9 201.228 477.9C200.687 477.9 200.225 477.979 199.842 478.138C199.46 478.297 199.082 478.497 198.708 478.74L198.092 477.9C198.447 477.62 198.886 477.377 199.408 477.172C199.94 476.967 200.542 476.864 201.214 476.864C202.26 476.864 203.034 477.097 203.538 477.564C204.052 478.031 204.308 478.623 204.308 479.342Z" fill="black"/>
<rect x="102.5" y="31.5" width="207" height="469" rx="4.5" stroke="black" stroke-opacity="0.15"/>
</g>
<defs>
<filter id="filter0_d_7874_526290" x="98" y="31" width="216" height="478" filterUnits="userSpaceOnUse" color-interpolation-filters="sRGB">
<feFlood flood-opacity="0" result="BackgroundImageFix"/>
<feColorMatrix in="SourceAlpha" type="matrix" values="0 0 0 0 0 0 0 0 0 0 0 0 0 0 0 0 0 0 127 0" result="hardAlpha"/>
<feOffset dy="4"/>
<feGaussianBlur stdDeviation="2"/>
<feColorMatrix type="matrix" values="0 0 0 0 0 0 0 0 0 0 0 0 0 0 0 0 0 0 0.25 0"/>
<feBlend mode="normal" in2="BackgroundImageFix" result="effect1_dropShadow_7874_526290"/>
<feBlend mode="normal" in="SourceGraphic" in2="effect1_dropShadow_7874_526290" result="shape"/>
</filter>
</defs>
</svg>
