<svg width="412" height="224" viewBox="0 0 412 224" fill="none" xmlns="http://www.w3.org/2000/svg">
<rect width="412" height="224" fill="white"/>
<g filter="url(#filter0_d_6659_524454)">
<rect x="104.5" y="40" width="203" height="144" rx="4" fill="white"/>
<path d="M116.616 53.004C117.857 53.004 118.772 53.242 119.36 53.718C119.957 54.1847 120.256 54.894 120.256 55.846C120.256 56.378 120.158 56.8213 119.962 57.176C119.766 57.5307 119.514 57.8153 119.206 58.03C118.907 58.2447 118.59 58.408 118.254 58.52L120.998 63H119.528L117.106 58.87H115.118V63H113.858V53.004H116.616ZM116.546 54.096H115.118V57.806H116.616C117.428 57.806 118.021 57.6473 118.394 57.33C118.767 57.0033 118.954 56.5273 118.954 55.902C118.954 55.2487 118.758 54.7867 118.366 54.516C117.974 54.236 117.367 54.096 116.546 54.096ZM125.297 55.356C125.932 55.356 126.482 55.496 126.949 55.776C127.416 56.056 127.77 56.4527 128.013 56.966C128.265 57.47 128.391 58.0627 128.391 58.744V59.486H123.253C123.272 60.3353 123.486 60.984 123.897 61.432C124.317 61.8707 124.9 62.09 125.647 62.09C126.123 62.09 126.543 62.048 126.907 61.964C127.28 61.8707 127.663 61.74 128.055 61.572V62.65C127.672 62.818 127.294 62.9393 126.921 63.014C126.548 63.098 126.104 63.14 125.591 63.14C124.872 63.14 124.242 62.9953 123.701 62.706C123.16 62.4167 122.735 61.9873 122.427 61.418C122.128 60.8487 121.979 60.144 121.979 59.304C121.979 58.4827 122.114 57.778 122.385 57.19C122.665 56.602 123.052 56.1493 123.547 55.832C124.051 55.5147 124.634 55.356 125.297 55.356ZM125.283 56.364C124.695 56.364 124.228 56.5553 123.883 56.938C123.547 57.3113 123.346 57.834 123.281 58.506H127.103C127.094 57.8713 126.944 57.358 126.655 56.966C126.366 56.5647 125.908 56.364 125.283 56.364ZM133.311 63.14C132.639 63.14 132.047 63.0047 131.533 62.734C131.02 62.4633 130.614 62.0433 130.315 61.474C130.026 60.9047 129.881 60.1767 129.881 59.29C129.881 58.366 130.031 57.6147 130.329 57.036C130.637 56.4573 131.057 56.0327 131.589 55.762C132.121 55.4913 132.723 55.356 133.395 55.356C133.769 55.356 134.133 55.398 134.487 55.482C134.851 55.5567 135.145 55.65 135.369 55.762L134.991 56.784C134.767 56.7 134.506 56.6207 134.207 56.546C133.909 56.4713 133.629 56.434 133.367 56.434C131.893 56.434 131.155 57.3813 131.155 59.276C131.155 60.1813 131.333 60.8767 131.687 61.362C132.051 61.838 132.588 62.076 133.297 62.076C133.699 62.076 134.058 62.034 134.375 61.95C134.693 61.866 134.982 61.7633 135.243 61.642V62.734C134.991 62.8647 134.711 62.9627 134.403 63.028C134.105 63.1027 133.741 63.14 133.311 63.14ZM143.552 59.234C143.552 60.4753 143.235 61.4367 142.6 62.118C141.975 62.7993 141.125 63.14 140.052 63.14C139.389 63.14 138.797 62.9907 138.274 62.692C137.761 62.384 137.355 61.9407 137.056 61.362C136.757 60.774 136.608 60.0647 136.608 59.234C136.608 57.9927 136.916 57.036 137.532 56.364C138.157 55.692 139.011 55.356 140.094 55.356C140.766 55.356 141.363 55.51 141.886 55.818C142.409 56.1167 142.815 56.5553 143.104 57.134C143.403 57.7033 143.552 58.4033 143.552 59.234ZM137.882 59.234C137.882 60.1207 138.055 60.8253 138.4 61.348C138.755 61.8613 139.315 62.118 140.08 62.118C140.836 62.118 141.391 61.8613 141.746 61.348C142.101 60.8253 142.278 60.1207 142.278 59.234C142.278 58.3473 142.101 57.652 141.746 57.148C141.391 56.644 140.831 56.392 140.066 56.392C139.301 56.392 138.745 56.644 138.4 57.148C138.055 57.652 137.882 58.3473 137.882 59.234ZM149.004 55.356C149.144 55.356 149.294 55.3653 149.452 55.384C149.611 55.3933 149.756 55.412 149.886 55.44L149.732 56.574C149.611 56.546 149.476 56.5227 149.326 56.504C149.177 56.4853 149.042 56.476 148.92 56.476C148.538 56.476 148.178 56.5833 147.842 56.798C147.506 57.0033 147.236 57.2973 147.03 57.68C146.834 58.0533 146.736 58.492 146.736 58.996V63H145.504V55.496H146.512L146.652 56.868H146.708C146.942 56.4573 147.25 56.1027 147.632 55.804C148.024 55.5053 148.482 55.356 149.004 55.356ZM153.674 63.14C152.741 63.14 151.994 62.818 151.434 62.174C150.874 61.5207 150.594 60.55 150.594 59.262C150.594 57.974 150.874 57.0033 151.434 56.35C152.004 55.6873 152.755 55.356 153.688 55.356C154.267 55.356 154.738 55.4633 155.102 55.678C155.476 55.8927 155.779 56.154 156.012 56.462H156.096C156.078 56.3407 156.059 56.1633 156.04 55.93C156.022 55.6873 156.012 55.496 156.012 55.356V52.36H157.244V63H156.25L156.068 61.992H156.012C155.788 62.3093 155.49 62.58 155.116 62.804C154.743 63.028 154.262 63.14 153.674 63.14ZM153.87 62.118C154.664 62.118 155.219 61.9033 155.536 61.474C155.863 61.0353 156.026 60.3773 156.026 59.5V59.276C156.026 58.3427 155.872 57.6287 155.564 57.134C155.256 56.63 154.687 56.378 153.856 56.378C153.194 56.378 152.694 56.644 152.358 57.176C152.032 57.6987 151.868 58.4033 151.868 59.29C151.868 60.186 152.032 60.8813 152.358 61.376C152.694 61.8707 153.198 62.118 153.87 62.118ZM165.77 62.132C165.957 62.132 166.148 62.118 166.344 62.09C166.54 62.062 166.699 62.0247 166.82 61.978V62.916C166.69 62.9813 166.503 63.0327 166.26 63.07C166.018 63.1167 165.784 63.14 165.56 63.14C165.168 63.14 164.804 63.0747 164.468 62.944C164.142 62.804 163.876 62.566 163.67 62.23C163.465 61.894 163.362 61.4227 163.362 60.816V56.448H162.298V55.86L163.376 55.37L163.866 53.774H164.594V55.496H166.764V56.448H164.594V60.788C164.594 61.2453 164.702 61.586 164.916 61.81C165.14 62.0247 165.425 62.132 165.77 62.132ZM169.555 52.36V55.482C169.555 55.8553 169.531 56.2053 169.485 56.532H169.569C169.811 56.1493 170.138 55.86 170.549 55.664C170.969 55.468 171.421 55.37 171.907 55.37C172.812 55.37 173.493 55.5893 173.951 56.028C174.417 56.4573 174.651 57.1527 174.651 58.114V63H173.433V58.198C173.433 56.994 172.873 56.392 171.753 56.392C170.913 56.392 170.334 56.63 170.017 57.106C169.709 57.5727 169.555 58.2447 169.555 59.122V63H168.323V52.36H169.555ZM177.607 52.682C177.794 52.682 177.957 52.7473 178.097 52.878C178.246 52.9993 178.321 53.1953 178.321 53.466C178.321 53.7367 178.246 53.9373 178.097 54.068C177.957 54.1893 177.794 54.25 177.607 54.25C177.402 54.25 177.229 54.1893 177.089 54.068C176.949 53.9373 176.879 53.7367 176.879 53.466C176.879 53.1953 176.949 52.9993 177.089 52.878C177.229 52.7473 177.402 52.682 177.607 52.682ZM178.209 55.496V63H176.977V55.496H178.209ZM185.472 60.928C185.472 61.656 185.202 62.2067 184.66 62.58C184.119 62.9533 183.391 63.14 182.476 63.14C181.954 63.14 181.501 63.098 181.118 63.014C180.745 62.93 180.414 62.8133 180.124 62.664V61.544C180.423 61.6933 180.782 61.8333 181.202 61.964C181.632 62.0853 182.066 62.146 182.504 62.146C183.13 62.146 183.582 62.048 183.862 61.852C184.142 61.6467 184.282 61.376 184.282 61.04C184.282 60.8533 184.231 60.6853 184.128 60.536C184.026 60.3867 183.839 60.2373 183.568 60.088C183.307 59.9387 182.929 59.7707 182.434 59.584C181.949 59.3973 181.534 59.2107 181.188 59.024C180.843 58.8373 180.577 58.6133 180.39 58.352C180.204 58.0907 180.11 57.7547 180.11 57.344C180.11 56.7093 180.367 56.2193 180.88 55.874C181.403 55.5287 182.084 55.356 182.924 55.356C183.382 55.356 183.806 55.4027 184.198 55.496C184.6 55.5893 184.973 55.7107 185.318 55.86L184.898 56.84C184.581 56.7093 184.25 56.5973 183.904 56.504C183.559 56.4107 183.204 56.364 182.84 56.364C182.336 56.364 181.949 56.448 181.678 56.616C181.417 56.7747 181.286 56.994 181.286 57.274C181.286 57.4887 181.347 57.666 181.468 57.806C181.59 57.946 181.79 58.086 182.07 58.226C182.36 58.366 182.742 58.5247 183.218 58.702C183.694 58.8793 184.1 59.0613 184.436 59.248C184.772 59.4347 185.029 59.6633 185.206 59.934C185.384 60.1953 185.472 60.5267 185.472 60.928ZM195.5 63L192.21 54.236H192.154C192.182 54.5253 192.206 54.9173 192.224 55.412C192.243 55.8973 192.252 56.406 192.252 56.938V63H191.09V53.004H192.952L196.032 61.194H196.088L199.224 53.004H201.072V63H199.826V56.854C199.826 56.3687 199.836 55.888 199.854 55.412C199.882 54.936 199.906 54.5487 199.924 54.25H199.868L196.536 63H195.5ZM206.522 55.356C207.156 55.356 207.707 55.496 208.174 55.776C208.64 56.056 208.995 56.4527 209.238 56.966C209.49 57.47 209.616 58.0627 209.616 58.744V59.486H204.478C204.496 60.3353 204.711 60.984 205.122 61.432C205.542 61.8707 206.125 62.09 206.872 62.09C207.348 62.09 207.768 62.048 208.132 61.964C208.505 61.8707 208.888 61.74 209.28 61.572V62.65C208.897 62.818 208.519 62.9393 208.146 63.014C207.772 63.098 207.329 63.14 206.816 63.14C206.097 63.14 205.467 62.9953 204.926 62.706C204.384 62.4167 203.96 61.9873 203.652 61.418C203.353 60.8487 203.204 60.144 203.204 59.304C203.204 58.4827 203.339 57.778 203.61 57.19C203.89 56.602 204.277 56.1493 204.772 55.832C205.276 55.5147 205.859 55.356 206.522 55.356ZM206.508 56.364C205.92 56.364 205.453 56.5553 205.108 56.938C204.772 57.3113 204.571 57.834 204.506 58.506H208.328C208.318 57.8713 208.169 57.358 207.88 56.966C207.59 56.5647 207.133 56.364 206.508 56.364ZM214.424 55.356C215.059 55.356 215.609 55.496 216.076 55.776C216.543 56.056 216.897 56.4527 217.14 56.966C217.392 57.47 217.518 58.0627 217.518 58.744V59.486H212.38C212.399 60.3353 212.613 60.984 213.024 61.432C213.444 61.8707 214.027 62.09 214.774 62.09C215.25 62.09 215.67 62.048 216.034 61.964C216.407 61.8707 216.79 61.74 217.182 61.572V62.65C216.799 62.818 216.421 62.9393 216.048 63.014C215.675 63.098 215.231 63.14 214.718 63.14C213.999 63.14 213.369 62.9953 212.828 62.706C212.287 62.4167 211.862 61.9873 211.554 61.418C211.255 60.8487 211.106 60.144 211.106 59.304C211.106 58.4827 211.241 57.778 211.512 57.19C211.792 56.602 212.179 56.1493 212.674 55.832C213.178 55.5147 213.761 55.356 214.424 55.356ZM214.41 56.364C213.822 56.364 213.355 56.5553 213.01 56.938C212.674 57.3113 212.473 57.834 212.408 58.506H216.23C216.221 57.8713 216.071 57.358 215.782 56.966C215.493 56.5647 215.035 56.364 214.41 56.364ZM221.934 62.132C222.121 62.132 222.312 62.118 222.508 62.09C222.704 62.062 222.863 62.0247 222.984 61.978V62.916C222.854 62.9813 222.667 63.0327 222.424 63.07C222.182 63.1167 221.948 63.14 221.724 63.14C221.332 63.14 220.968 63.0747 220.632 62.944C220.306 62.804 220.04 62.566 219.834 62.23C219.629 61.894 219.526 61.4227 219.526 60.816V56.448H218.462V55.86L219.54 55.37L220.03 53.774H220.758V55.496H222.928V56.448H220.758V60.788C220.758 61.2453 220.866 61.586 221.08 61.81C221.304 62.0247 221.589 62.132 221.934 62.132ZM225.117 52.682C225.304 52.682 225.467 52.7473 225.607 52.878C225.756 52.9993 225.831 53.1953 225.831 53.466C225.831 53.7367 225.756 53.9373 225.607 54.068C225.467 54.1893 225.304 54.25 225.117 54.25C224.912 54.25 224.739 54.1893 224.599 54.068C224.459 53.9373 224.389 53.7367 224.389 53.466C224.389 53.1953 224.459 52.9993 224.599 52.878C224.739 52.7473 224.912 52.682 225.117 52.682ZM225.719 55.496V63H224.487V55.496H225.719ZM231.708 55.356C232.604 55.356 233.281 55.5753 233.738 56.014C234.196 56.4527 234.424 57.1527 234.424 58.114V63H233.206V58.198C233.206 56.994 232.646 56.392 231.526 56.392C230.696 56.392 230.122 56.6253 229.804 57.092C229.487 57.5587 229.328 58.2307 229.328 59.108V63H228.096V55.496H229.09L229.272 56.518H229.342C229.585 56.126 229.921 55.8367 230.35 55.65C230.78 55.454 231.232 55.356 231.708 55.356ZM239.411 55.356C239.905 55.356 240.349 55.4493 240.741 55.636C241.142 55.8227 241.483 56.1073 241.763 56.49H241.833L242.001 55.496H242.981V63.126C242.981 64.1993 242.705 65.0067 242.155 65.548C241.613 66.0893 240.769 66.36 239.621 66.36C238.519 66.36 237.619 66.2013 236.919 65.884V64.75C237.656 65.142 238.58 65.338 239.691 65.338C240.335 65.338 240.839 65.1467 241.203 64.764C241.576 64.3907 241.763 63.8773 241.763 63.224V62.93C241.763 62.818 241.767 62.6593 241.777 62.454C241.786 62.2393 241.795 62.09 241.805 62.006H241.749C241.245 62.762 240.47 63.14 239.425 63.14C238.454 63.14 237.693 62.7993 237.143 62.118C236.601 61.4367 236.331 60.4847 236.331 59.262C236.331 58.0673 236.601 57.12 237.143 56.42C237.693 55.7107 238.449 55.356 239.411 55.356ZM239.579 56.392C238.953 56.392 238.468 56.644 238.123 57.148C237.777 57.6427 237.605 58.352 237.605 59.276C237.605 60.2 237.773 60.9093 238.109 61.404C238.445 61.8893 238.944 62.132 239.607 62.132C240.363 62.132 240.913 61.9313 241.259 61.53C241.604 61.1193 241.777 60.4613 241.777 59.556V59.262C241.777 58.2447 241.599 57.512 241.245 57.064C240.89 56.616 240.335 56.392 239.579 56.392Z" fill="black"/>
<path d="M125.875 92.82C125.776 92.8213 125.681 92.8612 125.611 92.9313C125.541 93.0013 125.501 93.0959 125.5 93.195V94.555C125.5 94.6545 125.54 94.7498 125.61 94.8202C125.68 94.8905 125.776 94.93 125.875 94.93C125.974 94.93 126.07 94.8905 126.14 94.8202C126.21 94.7498 126.25 94.6545 126.25 94.555V93.195C126.249 93.0959 126.209 93.0013 126.139 92.9313C126.069 92.8612 125.974 92.8213 125.875 92.82Z" fill="black"/>
<path d="M114.875 92.82C114.776 92.8213 114.681 92.8612 114.611 92.9313C114.541 93.0013 114.501 93.0959 114.5 93.195V94.555C114.501 94.6541 114.541 94.7487 114.611 94.8187C114.681 94.8888 114.776 94.9287 114.875 94.93C114.974 94.9287 115.069 94.8888 115.139 94.8187C115.209 94.7487 115.249 94.6541 115.25 94.555V93.195C115.249 93.0959 115.209 93.0013 115.139 92.9313C115.069 92.8612 114.974 92.8213 114.875 92.82Z" fill="black"/>
<path d="M123.125 90.29C123.026 90.2913 122.931 90.3312 122.861 90.4013C122.791 90.4713 122.751 90.5659 122.75 90.665V97.085C122.75 97.1845 122.79 97.2798 122.86 97.3502C122.93 97.4205 123.026 97.46 123.125 97.46C123.224 97.46 123.32 97.4205 123.39 97.3502C123.46 97.2798 123.5 97.1845 123.5 97.085V90.665C123.499 90.5659 123.459 90.4713 123.389 90.4013C123.319 90.3312 123.224 90.2913 123.125 90.29Z" fill="black"/>
<path d="M117.625 90.29C117.526 90.2913 117.431 90.3312 117.361 90.4013C117.291 90.4713 117.251 90.5659 117.25 90.665V97.085C117.25 97.1845 117.29 97.2798 117.36 97.3502C117.43 97.4205 117.526 97.46 117.625 97.46C117.724 97.46 117.82 97.4205 117.89 97.3502C117.96 97.2798 118 97.1845 118 97.085V90.665C117.999 90.5659 117.959 90.4713 117.889 90.4013C117.819 90.3312 117.724 90.2913 117.625 90.29Z" fill="black"/>
<path d="M120.375 89C120.276 89.0013 120.181 89.0412 120.111 89.1113C120.041 89.1813 120.001 89.2759 120 89.375V98.375C120 98.4745 120.04 98.5698 120.11 98.6402C120.18 98.7105 120.276 98.75 120.375 98.75C120.474 98.75 120.57 98.7105 120.64 98.6402C120.71 98.5698 120.75 98.4745 120.75 98.375V89.375C120.749 89.2759 120.709 89.1813 120.639 89.1113C120.569 89.0412 120.474 89.0013 120.375 89Z" fill="black"/>
<path d="M144.13 99L142.926 95.906H138.964L137.774 99H136.5L140.406 88.962H141.54L145.432 99H144.13ZM142.548 94.786L141.428 91.762C141.4 91.6873 141.353 91.552 141.288 91.356C141.223 91.16 141.157 90.9593 141.092 90.754C141.036 90.5393 140.989 90.376 140.952 90.264C140.877 90.5533 140.798 90.838 140.714 91.118C140.639 91.3887 140.574 91.6033 140.518 91.762L139.384 94.786H142.548ZM149.613 99H146.001V98.272L147.177 98.006V90.012L146.001 89.732V89.004H149.613V89.732L148.437 90.012V98.006L149.613 98.272V99ZM163.104 99H161.634L156.286 90.698H156.23C156.249 91.0247 156.272 91.4307 156.3 91.916C156.328 92.4013 156.342 92.9007 156.342 93.414V99H155.18V89.004H156.636L161.97 97.278H162.026C162.017 97.1287 162.003 96.9047 161.984 96.606C161.975 96.3073 161.961 95.9853 161.942 95.64C161.933 95.2853 161.928 94.954 161.928 94.646V89.004H163.104V99ZM172.173 95.234C172.173 96.4753 171.856 97.4367 171.221 98.118C170.596 98.7993 169.746 99.14 168.673 99.14C168.01 99.14 167.418 98.9907 166.895 98.692C166.382 98.384 165.976 97.9407 165.677 97.362C165.378 96.774 165.229 96.0647 165.229 95.234C165.229 93.9927 165.537 93.036 166.153 92.364C166.778 91.692 167.632 91.356 168.715 91.356C169.387 91.356 169.984 91.51 170.507 91.818C171.03 92.1167 171.436 92.5553 171.725 93.134C172.024 93.7033 172.173 94.4033 172.173 95.234ZM166.503 95.234C166.503 96.1207 166.676 96.8253 167.021 97.348C167.376 97.8613 167.936 98.118 168.701 98.118C169.457 98.118 170.012 97.8613 170.367 97.348C170.722 96.8253 170.899 96.1207 170.899 95.234C170.899 94.3473 170.722 93.652 170.367 93.148C170.012 92.644 169.452 92.392 168.687 92.392C167.922 92.392 167.366 92.644 167.021 93.148C166.676 93.652 166.503 94.3473 166.503 95.234ZM174.756 88.682C174.942 88.682 175.106 88.7473 175.246 88.878C175.395 88.9993 175.47 89.1953 175.47 89.466C175.47 89.7367 175.395 89.9373 175.246 90.068C175.106 90.1893 174.942 90.25 174.756 90.25C174.55 90.25 174.378 90.1893 174.238 90.068C174.098 89.9373 174.028 89.7367 174.028 89.466C174.028 89.1953 174.098 88.9993 174.238 88.878C174.378 88.7473 174.55 88.682 174.756 88.682ZM175.358 91.496V99H174.126V91.496H175.358ZM182.621 96.928C182.621 97.656 182.35 98.2067 181.809 98.58C181.268 98.9533 180.54 99.14 179.625 99.14C179.102 99.14 178.65 99.098 178.267 99.014C177.894 98.93 177.562 98.8133 177.273 98.664V97.544C177.572 97.6933 177.931 97.8333 178.351 97.964C178.78 98.0853 179.214 98.146 179.653 98.146C180.278 98.146 180.731 98.048 181.011 97.852C181.291 97.6467 181.431 97.376 181.431 97.04C181.431 96.8533 181.38 96.6853 181.277 96.536C181.174 96.3867 180.988 96.2373 180.717 96.088C180.456 95.9387 180.078 95.7707 179.583 95.584C179.098 95.3973 178.682 95.2107 178.337 95.024C177.992 94.8373 177.726 94.6133 177.539 94.352C177.352 94.0907 177.259 93.7547 177.259 93.344C177.259 92.7093 177.516 92.2193 178.029 91.874C178.552 91.5287 179.233 91.356 180.073 91.356C180.53 91.356 180.955 91.4027 181.347 91.496C181.748 91.5893 182.122 91.7107 182.467 91.86L182.047 92.84C181.73 92.7093 181.398 92.5973 181.053 92.504C180.708 92.4107 180.353 92.364 179.989 92.364C179.485 92.364 179.098 92.448 178.827 92.616C178.566 92.7747 178.435 92.994 178.435 93.274C178.435 93.4887 178.496 93.666 178.617 93.806C178.738 93.946 178.939 94.086 179.219 94.226C179.508 94.366 179.891 94.5247 180.367 94.702C180.843 94.8793 181.249 95.0613 181.585 95.248C181.921 95.4347 182.178 95.6633 182.355 95.934C182.532 96.1953 182.621 96.5267 182.621 96.928ZM187.332 91.356C187.967 91.356 188.517 91.496 188.984 91.776C189.451 92.056 189.805 92.4527 190.048 92.966C190.3 93.47 190.426 94.0627 190.426 94.744V95.486H185.288C185.307 96.3353 185.521 96.984 185.932 97.432C186.352 97.8707 186.935 98.09 187.682 98.09C188.158 98.09 188.578 98.048 188.942 97.964C189.315 97.8707 189.698 97.74 190.09 97.572V98.65C189.707 98.818 189.329 98.9393 188.956 99.014C188.583 99.098 188.139 99.14 187.626 99.14C186.907 99.14 186.277 98.9953 185.736 98.706C185.195 98.4167 184.77 97.9873 184.462 97.418C184.163 96.8487 184.014 96.144 184.014 95.304C184.014 94.4827 184.149 93.778 184.42 93.19C184.7 92.602 185.087 92.1493 185.582 91.832C186.086 91.5147 186.669 91.356 187.332 91.356ZM187.318 92.364C186.73 92.364 186.263 92.5553 185.918 92.938C185.582 93.3113 185.381 93.834 185.316 94.506H189.138C189.129 93.8713 188.979 93.358 188.69 92.966C188.401 92.5647 187.943 92.364 187.318 92.364ZM198.899 89.004C200.141 89.004 201.055 89.242 201.643 89.718C202.241 90.1847 202.539 90.894 202.539 91.846C202.539 92.378 202.441 92.8213 202.245 93.176C202.049 93.5307 201.797 93.8153 201.489 94.03C201.191 94.2447 200.873 94.408 200.537 94.52L203.281 99H201.811L199.389 94.87H197.401V99H196.141V89.004H198.899ZM198.829 90.096H197.401V93.806H198.899C199.711 93.806 200.304 93.6473 200.677 93.33C201.051 93.0033 201.237 92.5273 201.237 91.902C201.237 91.2487 201.041 90.7867 200.649 90.516C200.257 90.236 199.651 90.096 198.829 90.096ZM207.58 91.356C208.215 91.356 208.766 91.496 209.232 91.776C209.699 92.056 210.054 92.4527 210.296 92.966C210.548 93.47 210.674 94.0627 210.674 94.744V95.486H205.536C205.555 96.3353 205.77 96.984 206.18 97.432C206.6 97.8707 207.184 98.09 207.93 98.09C208.406 98.09 208.826 98.048 209.19 97.964C209.564 97.8707 209.946 97.74 210.338 97.572V98.65C209.956 98.818 209.578 98.9393 209.204 99.014C208.831 99.098 208.388 99.14 207.874 99.14C207.156 99.14 206.526 98.9953 205.984 98.706C205.443 98.4167 205.018 97.9873 204.71 97.418C204.412 96.8487 204.262 96.144 204.262 95.304C204.262 94.4827 204.398 93.778 204.668 93.19C204.948 92.602 205.336 92.1493 205.83 91.832C206.334 91.5147 206.918 91.356 207.58 91.356ZM207.566 92.364C206.978 92.364 206.512 92.5553 206.166 92.938C205.83 93.3113 205.63 93.834 205.564 94.506H209.386C209.377 93.8713 209.228 93.358 208.938 92.966C208.649 92.5647 208.192 92.364 207.566 92.364ZM220.817 91.356C221.666 91.356 222.301 91.5753 222.721 92.014C223.141 92.4527 223.351 93.1527 223.351 94.114V99H222.133V94.17C222.133 92.9847 221.624 92.392 220.607 92.392C219.879 92.392 219.356 92.602 219.039 93.022C218.731 93.442 218.577 94.0533 218.577 94.856V99H217.359V94.17C217.359 92.9847 216.845 92.392 215.819 92.392C215.063 92.392 214.54 92.6253 214.251 93.092C213.961 93.5587 213.817 94.2307 213.817 95.108V99H212.585V91.496H213.579L213.761 92.518H213.831C214.064 92.126 214.377 91.8367 214.769 91.65C215.17 91.454 215.595 91.356 216.043 91.356C217.219 91.356 217.984 91.776 218.339 92.616H218.409C218.661 92.1867 219.001 91.8693 219.431 91.664C219.86 91.4587 220.322 91.356 220.817 91.356ZM232.193 95.234C232.193 96.4753 231.875 97.4367 231.241 98.118C230.615 98.7993 229.766 99.14 228.693 99.14C228.03 99.14 227.437 98.9907 226.915 98.692C226.401 98.384 225.995 97.9407 225.697 97.362C225.398 96.774 225.249 96.0647 225.249 95.234C225.249 93.9927 225.557 93.036 226.173 92.364C226.798 91.692 227.652 91.356 228.735 91.356C229.407 91.356 230.004 91.51 230.527 91.818C231.049 92.1167 231.455 92.5553 231.745 93.134C232.043 93.7033 232.193 94.4033 232.193 95.234ZM226.523 95.234C226.523 96.1207 226.695 96.8253 227.041 97.348C227.395 97.8613 227.955 98.118 228.721 98.118C229.477 98.118 230.032 97.8613 230.387 97.348C230.741 96.8253 230.919 96.1207 230.919 95.234C230.919 94.3473 230.741 93.652 230.387 93.148C230.032 92.644 229.472 92.392 228.707 92.392C227.941 92.392 227.386 92.644 227.041 93.148C226.695 93.652 226.523 94.3473 226.523 95.234ZM235.524 99L232.682 91.496H233.998L235.594 95.92C235.668 96.1253 235.748 96.354 235.832 96.606C235.916 96.858 235.99 97.1007 236.056 97.334C236.121 97.5673 236.168 97.7587 236.196 97.908H236.252C236.28 97.7587 236.331 97.5673 236.406 97.334C236.48 97.0913 236.56 96.8487 236.644 96.606C236.728 96.354 236.807 96.1253 236.882 95.92L238.478 91.496H239.794L236.938 99H235.524ZM243.823 91.37C244.738 91.37 245.414 91.5707 245.853 91.972C246.292 92.3733 246.511 93.0127 246.511 93.89V99H245.615L245.377 97.936H245.321C244.994 98.3467 244.649 98.65 244.285 98.846C243.921 99.042 243.426 99.14 242.801 99.14C242.12 99.14 241.555 98.9627 241.107 98.608C240.659 98.244 240.435 97.6793 240.435 96.914C240.435 96.1673 240.729 95.5933 241.317 95.192C241.905 94.7813 242.81 94.5573 244.033 94.52L245.307 94.478V94.03C245.307 93.4047 245.172 92.9707 244.901 92.728C244.63 92.4853 244.248 92.364 243.753 92.364C243.361 92.364 242.988 92.4247 242.633 92.546C242.278 92.658 241.947 92.7887 241.639 92.938L241.261 92.014C241.588 91.8367 241.975 91.6873 242.423 91.566C242.871 91.4353 243.338 91.37 243.823 91.37ZM245.293 95.332L244.187 95.374C243.254 95.4113 242.605 95.5607 242.241 95.822C241.886 96.0833 241.709 96.452 241.709 96.928C241.709 97.348 241.835 97.656 242.087 97.852C242.348 98.048 242.68 98.146 243.081 98.146C243.706 98.146 244.229 97.9733 244.649 97.628C245.078 97.2733 245.293 96.732 245.293 96.004V95.332ZM250.061 99H248.829V88.36H250.061V99Z" fill="black"/>
<path d="M288.912 99.9625C288.812 99.9625 288.712 99.9125 288.662 99.8625C288.513 99.7125 288.513 99.4625 288.662 99.3125L293.962 94.0125L288.612 88.6625C288.463 88.5125 288.463 88.2625 288.612 88.1125C288.762 87.9625 289.012 87.9625 289.162 88.1125L294.762 93.7125C294.812 93.7625 294.862 93.8625 294.862 93.9625C294.862 94.0625 294.812 94.1625 294.762 94.2125L289.162 99.8625C289.062 99.9625 288.963 99.9625 288.912 99.9625Z" fill="black"/>
<path d="M120.9 125.004L117.33 135H116.07L112.5 125.004H113.816L116.07 131.416C116.219 131.827 116.341 132.214 116.434 132.578C116.537 132.933 116.625 133.273 116.7 133.6C116.765 133.273 116.849 132.928 116.952 132.564C117.055 132.2 117.181 131.808 117.33 131.388L119.57 125.004H120.9ZM122.715 124.682C122.901 124.682 123.065 124.747 123.205 124.878C123.354 124.999 123.429 125.195 123.429 125.466C123.429 125.737 123.354 125.937 123.205 126.068C123.065 126.189 122.901 126.25 122.715 126.25C122.509 126.25 122.337 126.189 122.197 126.068C122.057 125.937 121.987 125.737 121.987 125.466C121.987 125.195 122.057 124.999 122.197 124.878C122.337 124.747 122.509 124.682 122.715 124.682ZM123.317 127.496V135H122.085V127.496H123.317ZM128.354 135.14C127.421 135.14 126.674 134.818 126.114 134.174C125.554 133.521 125.274 132.55 125.274 131.262C125.274 129.974 125.554 129.003 126.114 128.35C126.683 127.687 127.435 127.356 128.368 127.356C128.947 127.356 129.418 127.463 129.782 127.678C130.155 127.893 130.459 128.154 130.692 128.462H130.776C130.757 128.341 130.739 128.163 130.72 127.93C130.701 127.687 130.692 127.496 130.692 127.356V124.36H131.924V135H130.93L130.748 133.992H130.692C130.468 134.309 130.169 134.58 129.796 134.804C129.423 135.028 128.942 135.14 128.354 135.14ZM128.55 134.118C129.343 134.118 129.899 133.903 130.216 133.474C130.543 133.035 130.706 132.377 130.706 131.5V131.276C130.706 130.343 130.552 129.629 130.244 129.134C129.936 128.63 129.367 128.378 128.536 128.378C127.873 128.378 127.374 128.644 127.038 129.176C126.711 129.699 126.548 130.403 126.548 131.29C126.548 132.186 126.711 132.881 127.038 133.376C127.374 133.871 127.878 134.118 128.55 134.118ZM137.205 127.356C137.84 127.356 138.391 127.496 138.857 127.776C139.324 128.056 139.679 128.453 139.921 128.966C140.173 129.47 140.299 130.063 140.299 130.744V131.486H135.161C135.18 132.335 135.395 132.984 135.805 133.432C136.225 133.871 136.809 134.09 137.555 134.09C138.031 134.09 138.451 134.048 138.815 133.964C139.189 133.871 139.571 133.74 139.963 133.572V134.65C139.581 134.818 139.203 134.939 138.829 135.014C138.456 135.098 138.013 135.14 137.499 135.14C136.781 135.14 136.151 134.995 135.609 134.706C135.068 134.417 134.643 133.987 134.335 133.418C134.037 132.849 133.887 132.144 133.887 131.304C133.887 130.483 134.023 129.778 134.293 129.19C134.573 128.602 134.961 128.149 135.455 127.832C135.959 127.515 136.543 127.356 137.205 127.356ZM137.191 128.364C136.603 128.364 136.137 128.555 135.791 128.938C135.455 129.311 135.255 129.834 135.189 130.506H139.011C139.002 129.871 138.853 129.358 138.563 128.966C138.274 128.565 137.817 128.364 137.191 128.364ZM148.734 131.234C148.734 132.475 148.416 133.437 147.782 134.118C147.156 134.799 146.307 135.14 145.234 135.14C144.571 135.14 143.978 134.991 143.456 134.692C142.942 134.384 142.536 133.941 142.238 133.362C141.939 132.774 141.79 132.065 141.79 131.234C141.79 129.993 142.098 129.036 142.714 128.364C143.339 127.692 144.193 127.356 145.276 127.356C145.948 127.356 146.545 127.51 147.068 127.818C147.59 128.117 147.996 128.555 148.286 129.134C148.584 129.703 148.734 130.403 148.734 131.234ZM143.064 131.234C143.064 132.121 143.236 132.825 143.582 133.348C143.936 133.861 144.496 134.118 145.262 134.118C146.018 134.118 146.573 133.861 146.928 133.348C147.282 132.825 147.46 132.121 147.46 131.234C147.46 130.347 147.282 129.652 146.928 129.148C146.573 128.644 146.013 128.392 145.248 128.392C144.482 128.392 143.927 128.644 143.582 129.148C143.236 129.652 143.064 130.347 143.064 131.234ZM163.213 129.988C163.213 131.211 162.965 132.256 162.471 133.124C161.985 133.983 161.262 134.571 160.301 134.888L162.695 137.38H160.889L158.957 135.126C158.901 135.126 158.84 135.126 158.775 135.126C158.719 135.135 158.663 135.14 158.607 135.14C157.571 135.14 156.707 134.925 156.017 134.496C155.335 134.067 154.827 133.465 154.491 132.69C154.155 131.915 153.987 131.01 153.987 129.974C153.987 128.957 154.155 128.065 154.491 127.3C154.827 126.525 155.335 125.923 156.017 125.494C156.707 125.065 157.575 124.85 158.621 124.85C159.619 124.85 160.459 125.065 161.141 125.494C161.822 125.914 162.335 126.511 162.681 127.286C163.035 128.051 163.213 128.952 163.213 129.988ZM155.317 129.988C155.317 131.248 155.583 132.242 156.115 132.97C156.647 133.689 157.477 134.048 158.607 134.048C159.736 134.048 160.562 133.689 161.085 132.97C161.617 132.242 161.883 131.248 161.883 129.988C161.883 128.728 161.621 127.743 161.099 127.034C160.576 126.315 159.75 125.956 158.621 125.956C157.482 125.956 156.647 126.315 156.115 127.034C155.583 127.743 155.317 128.728 155.317 129.988ZM171.532 127.496V135H170.524L170.342 134.006H170.286C170.044 134.398 169.708 134.687 169.278 134.874C168.849 135.051 168.392 135.14 167.906 135.14C167.001 135.14 166.32 134.925 165.862 134.496C165.405 134.057 165.176 133.362 165.176 132.41V127.496H166.422V132.326C166.422 133.521 166.978 134.118 168.088 134.118C168.919 134.118 169.493 133.885 169.81 133.418C170.137 132.951 170.3 132.279 170.3 131.402V127.496H171.532ZM176.757 127.37C177.671 127.37 178.348 127.571 178.787 127.972C179.225 128.373 179.445 129.013 179.445 129.89V135H178.549L178.311 133.936H178.255C177.928 134.347 177.583 134.65 177.219 134.846C176.855 135.042 176.36 135.14 175.735 135.14C175.053 135.14 174.489 134.963 174.041 134.608C173.593 134.244 173.369 133.679 173.369 132.914C173.369 132.167 173.663 131.593 174.251 131.192C174.839 130.781 175.744 130.557 176.967 130.52L178.241 130.478V130.03C178.241 129.405 178.105 128.971 177.835 128.728C177.564 128.485 177.181 128.364 176.687 128.364C176.295 128.364 175.921 128.425 175.567 128.546C175.212 128.658 174.881 128.789 174.573 128.938L174.195 128.014C174.521 127.837 174.909 127.687 175.357 127.566C175.805 127.435 176.271 127.37 176.757 127.37ZM178.227 131.332L177.121 131.374C176.187 131.411 175.539 131.561 175.175 131.822C174.82 132.083 174.643 132.452 174.643 132.928C174.643 133.348 174.769 133.656 175.021 133.852C175.282 134.048 175.613 134.146 176.015 134.146C176.64 134.146 177.163 133.973 177.583 133.628C178.012 133.273 178.227 132.732 178.227 132.004V131.332ZM182.994 135H181.762V124.36H182.994V135ZM186.002 124.682C186.188 124.682 186.352 124.747 186.492 124.878C186.641 124.999 186.716 125.195 186.716 125.466C186.716 125.737 186.641 125.937 186.492 126.068C186.352 126.189 186.188 126.25 186.002 126.25C185.796 126.25 185.624 126.189 185.484 126.068C185.344 125.937 185.274 125.737 185.274 125.466C185.274 125.195 185.344 124.999 185.484 124.878C185.624 124.747 185.796 124.682 186.002 124.682ZM186.604 127.496V135H185.372V127.496H186.604ZM192.481 127.356C192.621 127.356 192.77 127.365 192.929 127.384C193.088 127.393 193.232 127.412 193.363 127.44L193.209 128.574C193.088 128.546 192.952 128.523 192.803 128.504C192.654 128.485 192.518 128.476 192.397 128.476C192.014 128.476 191.655 128.583 191.319 128.798C190.983 129.003 190.712 129.297 190.507 129.68C190.311 130.053 190.213 130.492 190.213 130.996V135H188.981V127.496H189.989L190.129 128.868H190.185C190.418 128.457 190.726 128.103 191.109 127.804C191.501 127.505 191.958 127.356 192.481 127.356ZM193.588 127.496H194.904L196.528 131.766C196.668 132.149 196.794 132.508 196.906 132.844C197.018 133.18 197.102 133.502 197.158 133.81H197.214C197.27 133.577 197.359 133.273 197.48 132.9C197.602 132.517 197.728 132.135 197.858 131.752L199.384 127.496H200.714L197.48 136.036C197.21 136.745 196.869 137.31 196.458 137.73C196.048 138.15 195.478 138.36 194.75 138.36C194.526 138.36 194.33 138.346 194.162 138.318C193.994 138.299 193.85 138.276 193.728 138.248V137.268C193.831 137.287 193.952 137.305 194.092 137.324C194.242 137.343 194.396 137.352 194.554 137.352C194.984 137.352 195.329 137.231 195.59 136.988C195.852 136.745 196.062 136.423 196.22 136.022L196.612 135.028L193.588 127.496Z" fill="black"/>
<path d="M288.912 135.962C288.812 135.962 288.712 135.913 288.662 135.863C288.513 135.713 288.513 135.462 288.662 135.312L293.962 130.012L288.612 124.662C288.463 124.512 288.463 124.263 288.612 124.113C288.762 123.962 289.012 123.962 289.162 124.113L294.762 129.712C294.812 129.762 294.862 129.862 294.862 129.962C294.862 130.062 294.812 130.162 294.762 130.212L289.162 135.863C289.062 135.963 288.963 135.962 288.912 135.962Z" fill="black"/>
<path d="M120.5 168.223C120.1 168.223 119.7 168.123 119.35 167.923C118.2 167.323 117.8 165.873 118.4 164.723C119.05 163.573 120.45 163.173 121.6 163.773C122.15 164.073 122.55 164.573 122.75 165.173C122.95 165.773 122.85 166.423 122.55 166.973C122.25 167.523 121.75 167.923 121.15 168.123C120.95 168.173 120.7 168.223 120.5 168.223ZM119.1 165.073C118.65 165.873 118.95 166.823 119.75 167.273C120.15 167.473 120.55 167.523 121 167.423C121.4 167.323 121.75 167.023 121.95 166.673C122.15 166.273 122.2 165.873 122.1 165.423C122 165.023 121.7 164.673 121.35 164.473C120.5 164.023 119.5 164.323 119.1 165.073Z" fill="black"/>
<path d="M117.95 172.223C117.65 172.223 117.4 172.173 117.15 172.023C116.5 171.673 116.15 170.923 116.3 170.173L116.6 168.823C116.65 168.623 116.6 168.373 116.5 168.223C116.4 168.023 116.2 167.923 116 167.873L114.9 167.623C114.05 167.423 113.5 166.773 113.5 165.973C113.5 165.223 114 164.523 114.7 164.323L115.95 163.923C116.15 163.873 116.35 163.723 116.45 163.523C116.55 163.323 116.55 163.123 116.5 162.923L116.15 161.823C115.9 161.073 116.2 160.273 116.9 159.873C117.55 159.473 118.4 159.573 118.95 160.073L119.95 160.973C120.1 161.123 120.3 161.223 120.55 161.173C120.75 161.173 120.95 161.073 121.1 160.923L121.85 160.073C122.4 159.473 123.25 159.323 123.9 159.723C124.55 160.073 124.9 160.873 124.75 161.573L124.45 162.873C124.4 163.073 124.45 163.323 124.55 163.473C124.65 163.673 124.85 163.773 125.05 163.823L126.15 164.073C126.9 164.223 127.45 164.923 127.5 165.673C127.5 166.423 127.05 167.123 126.3 167.323L125 167.773C124.8 167.823 124.6 167.973 124.5 168.173C124.4 168.373 124.4 168.573 124.45 168.823L124.8 169.923C125.05 170.673 124.75 171.473 124.05 171.873C123.4 172.273 122.55 172.173 122 171.673L121.05 170.773C120.95 170.573 120.75 170.523 120.5 170.523C120.3 170.523 120.1 170.623 119.95 170.773L119.2 171.623C118.85 172.023 118.4 172.223 117.95 172.223ZM117.75 160.373C117.6 160.373 117.4 160.423 117.25 160.523C116.9 160.723 116.75 161.173 116.85 161.623L117.2 162.673C117.35 163.073 117.3 163.523 117.1 163.873C116.9 164.273 116.6 164.523 116.2 164.673L114.9 165.023C114.5 165.123 114.2 165.523 114.25 165.923C114.25 166.373 114.55 166.723 115 166.823L116.1 167.073C116.5 167.173 116.85 167.423 117.1 167.773C117.35 168.123 117.4 168.573 117.3 168.973L117 170.323C116.9 170.723 117.1 171.173 117.45 171.373C117.85 171.573 118.3 171.523 118.6 171.173L119.35 170.323C119.65 170.023 120 169.823 120.45 169.823C120.9 169.823 121.3 169.973 121.6 170.223L122.55 171.123C122.85 171.423 123.3 171.473 123.7 171.223C124.1 170.973 124.25 170.523 124.1 170.123L123.8 169.023C123.65 168.623 123.7 168.173 123.9 167.823C124.1 167.473 124.4 167.173 124.85 167.073L126.15 166.673C126.55 166.573 126.8 166.173 126.8 165.773C126.8 165.323 126.5 164.973 126.05 164.873L124.95 164.623C124.55 164.523 124.2 164.273 123.95 163.923C123.7 163.573 123.65 163.123 123.75 162.723L124 161.423C124.1 161.023 123.9 160.573 123.55 160.373C123.15 160.173 122.7 160.223 122.4 160.573L121.65 161.423C121.35 161.723 121 161.923 120.55 161.923C120.1 161.923 119.75 161.773 119.4 161.523L118.4 160.623C118.2 160.473 118 160.373 117.75 160.373Z" fill="black"/>
<path d="M145.866 165.904C145.866 167.593 145.404 168.867 144.48 169.726C143.565 170.575 142.287 171 140.644 171H137.858V161.004H140.938C141.937 161.004 142.805 161.191 143.542 161.564C144.289 161.937 144.863 162.488 145.264 163.216C145.665 163.944 145.866 164.84 145.866 165.904ZM144.536 165.946C144.536 164.611 144.205 163.636 143.542 163.02C142.889 162.395 141.96 162.082 140.756 162.082H139.118V169.922H140.476C143.183 169.922 144.536 168.597 144.536 165.946ZM150.815 163.356C151.449 163.356 152 163.496 152.467 163.776C152.933 164.056 153.288 164.453 153.531 164.966C153.783 165.47 153.909 166.063 153.909 166.744V167.486H148.771C148.789 168.335 149.004 168.984 149.415 169.432C149.835 169.871 150.418 170.09 151.165 170.09C151.641 170.09 152.061 170.048 152.425 169.964C152.798 169.871 153.181 169.74 153.573 169.572V170.65C153.19 170.818 152.812 170.939 152.439 171.014C152.065 171.098 151.622 171.14 151.109 171.14C150.39 171.14 149.76 170.995 149.219 170.706C148.677 170.417 148.253 169.987 147.945 169.418C147.646 168.849 147.497 168.144 147.497 167.304C147.497 166.483 147.632 165.778 147.903 165.19C148.183 164.602 148.57 164.149 149.065 163.832C149.569 163.515 150.152 163.356 150.815 163.356ZM150.801 164.364C150.213 164.364 149.746 164.555 149.401 164.938C149.065 165.311 148.864 165.834 148.799 166.506H152.621C152.611 165.871 152.462 165.358 152.173 164.966C151.883 164.565 151.426 164.364 150.801 164.364ZM157.197 171L154.355 163.496H155.671L157.267 167.92C157.342 168.125 157.421 168.354 157.505 168.606C157.589 168.858 157.664 169.101 157.729 169.334C157.795 169.567 157.841 169.759 157.869 169.908H157.925C157.953 169.759 158.005 169.567 158.079 169.334C158.154 169.091 158.233 168.849 158.317 168.606C158.401 168.354 158.481 168.125 158.555 167.92L160.151 163.496H161.467L158.611 171H157.197ZM163.285 160.682C163.472 160.682 163.635 160.747 163.775 160.878C163.924 160.999 163.999 161.195 163.999 161.466C163.999 161.737 163.924 161.937 163.775 162.068C163.635 162.189 163.472 162.25 163.285 162.25C163.08 162.25 162.907 162.189 162.767 162.068C162.627 161.937 162.557 161.737 162.557 161.466C162.557 161.195 162.627 160.999 162.767 160.878C162.907 160.747 163.08 160.682 163.285 160.682ZM163.887 163.496V171H162.655V163.496H163.887ZM169.274 171.14C168.602 171.14 168.01 171.005 167.496 170.734C166.983 170.463 166.577 170.043 166.278 169.474C165.989 168.905 165.844 168.177 165.844 167.29C165.844 166.366 165.994 165.615 166.292 165.036C166.6 164.457 167.02 164.033 167.552 163.762C168.084 163.491 168.686 163.356 169.358 163.356C169.732 163.356 170.096 163.398 170.45 163.482C170.814 163.557 171.108 163.65 171.332 163.762L170.954 164.784C170.73 164.7 170.469 164.621 170.17 164.546C169.872 164.471 169.592 164.434 169.33 164.434C167.856 164.434 167.118 165.381 167.118 167.276C167.118 168.181 167.296 168.877 167.65 169.362C168.014 169.838 168.551 170.076 169.26 170.076C169.662 170.076 170.021 170.034 170.338 169.95C170.656 169.866 170.945 169.763 171.206 169.642V170.734C170.954 170.865 170.674 170.963 170.366 171.028C170.068 171.103 169.704 171.14 169.274 171.14ZM175.889 163.356C176.523 163.356 177.074 163.496 177.541 163.776C178.007 164.056 178.362 164.453 178.605 164.966C178.857 165.47 178.983 166.063 178.983 166.744V167.486H173.845C173.863 168.335 174.078 168.984 174.489 169.432C174.909 169.871 175.492 170.09 176.239 170.09C176.715 170.09 177.135 170.048 177.499 169.964C177.872 169.871 178.255 169.74 178.647 169.572V170.65C178.264 170.818 177.886 170.939 177.513 171.014C177.139 171.098 176.696 171.14 176.183 171.14C175.464 171.14 174.834 170.995 174.293 170.706C173.751 170.417 173.327 169.987 173.019 169.418C172.72 168.849 172.571 168.144 172.571 167.304C172.571 166.483 172.706 165.778 172.977 165.19C173.257 164.602 173.644 164.149 174.139 163.832C174.643 163.515 175.226 163.356 175.889 163.356ZM175.875 164.364C175.287 164.364 174.82 164.555 174.475 164.938C174.139 165.311 173.938 165.834 173.873 166.506H177.695C177.685 165.871 177.536 165.358 177.247 164.966C176.957 164.565 176.5 164.364 175.875 164.364ZM190.368 168.326C190.368 169.213 190.046 169.903 189.402 170.398C188.758 170.893 187.89 171.14 186.798 171.14C186.238 171.14 185.72 171.098 185.244 171.014C184.768 170.93 184.371 170.813 184.054 170.664V169.46C184.39 169.609 184.805 169.745 185.3 169.866C185.804 169.987 186.322 170.048 186.854 170.048C187.591 170.048 188.151 169.903 188.534 169.614C188.917 169.325 189.108 168.933 189.108 168.438C189.108 168.111 189.038 167.836 188.898 167.612C188.758 167.388 188.515 167.183 188.17 166.996C187.825 166.809 187.353 166.604 186.756 166.38C185.897 166.072 185.253 165.694 184.824 165.246C184.395 164.798 184.18 164.187 184.18 163.412C184.18 162.889 184.315 162.437 184.586 162.054C184.857 161.671 185.23 161.377 185.706 161.172C186.182 160.967 186.737 160.864 187.372 160.864C187.913 160.864 188.413 160.915 188.87 161.018C189.327 161.121 189.747 161.256 190.13 161.424L189.738 162.502C189.393 162.353 189.015 162.227 188.604 162.124C188.193 162.021 187.773 161.97 187.344 161.97C186.719 161.97 186.247 162.105 185.93 162.376C185.613 162.637 185.454 162.987 185.454 163.426C185.454 163.762 185.524 164.042 185.664 164.266C185.804 164.49 186.033 164.695 186.35 164.882C186.667 165.059 187.097 165.246 187.638 165.442C188.226 165.657 188.721 165.89 189.122 166.142C189.533 166.385 189.841 166.679 190.046 167.024C190.261 167.369 190.368 167.803 190.368 168.326ZM195.111 163.356C195.746 163.356 196.297 163.496 196.763 163.776C197.23 164.056 197.585 164.453 197.827 164.966C198.079 165.47 198.205 166.063 198.205 166.744V167.486H193.067C193.086 168.335 193.301 168.984 193.711 169.432C194.131 169.871 194.715 170.09 195.461 170.09C195.937 170.09 196.357 170.048 196.721 169.964C197.095 169.871 197.477 169.74 197.869 169.572V170.65C197.487 170.818 197.109 170.939 196.735 171.014C196.362 171.098 195.919 171.14 195.405 171.14C194.687 171.14 194.057 170.995 193.515 170.706C192.974 170.417 192.549 169.987 192.241 169.418C191.943 168.849 191.793 168.144 191.793 167.304C191.793 166.483 191.929 165.778 192.199 165.19C192.479 164.602 192.867 164.149 193.361 163.832C193.865 163.515 194.449 163.356 195.111 163.356ZM195.097 164.364C194.509 164.364 194.043 164.555 193.697 164.938C193.361 165.311 193.161 165.834 193.095 166.506H196.917C196.908 165.871 196.759 165.358 196.469 164.966C196.18 164.565 195.723 164.364 195.097 164.364ZM202.622 170.132C202.808 170.132 203 170.118 203.196 170.09C203.392 170.062 203.55 170.025 203.672 169.978V170.916C203.541 170.981 203.354 171.033 203.112 171.07C202.869 171.117 202.636 171.14 202.412 171.14C202.02 171.14 201.656 171.075 201.32 170.944C200.993 170.804 200.727 170.566 200.522 170.23C200.316 169.894 200.214 169.423 200.214 168.816V164.448H199.15V163.86L200.228 163.37L200.718 161.774H201.446V163.496H203.616V164.448H201.446V168.788C201.446 169.245 201.553 169.586 201.768 169.81C201.992 170.025 202.276 170.132 202.622 170.132ZM207.68 170.132C207.867 170.132 208.058 170.118 208.254 170.09C208.45 170.062 208.609 170.025 208.73 169.978V170.916C208.6 170.981 208.413 171.033 208.17 171.07C207.928 171.117 207.694 171.14 207.47 171.14C207.078 171.14 206.714 171.075 206.378 170.944C206.052 170.804 205.786 170.566 205.58 170.23C205.375 169.894 205.272 169.423 205.272 168.816V164.448H204.208V163.86L205.286 163.37L205.776 161.774H206.504V163.496H208.674V164.448H206.504V168.788C206.504 169.245 206.612 169.586 206.826 169.81C207.05 170.025 207.335 170.132 207.68 170.132ZM210.863 160.682C211.05 160.682 211.213 160.747 211.353 160.878C211.502 160.999 211.577 161.195 211.577 161.466C211.577 161.737 211.502 161.937 211.353 162.068C211.213 162.189 211.05 162.25 210.863 162.25C210.658 162.25 210.485 162.189 210.345 162.068C210.205 161.937 210.135 161.737 210.135 161.466C210.135 161.195 210.205 160.999 210.345 160.878C210.485 160.747 210.658 160.682 210.863 160.682ZM211.465 163.496V171H210.233V163.496H211.465ZM217.454 163.356C218.35 163.356 219.027 163.575 219.484 164.014C219.942 164.453 220.17 165.153 220.17 166.114V171H218.952V166.198C218.952 164.994 218.392 164.392 217.272 164.392C216.442 164.392 215.868 164.625 215.55 165.092C215.233 165.559 215.074 166.231 215.074 167.108V171H213.842V163.496H214.836L215.018 164.518H215.088C215.331 164.126 215.667 163.837 216.096 163.65C216.526 163.454 216.978 163.356 217.454 163.356ZM225.157 163.356C225.651 163.356 226.095 163.449 226.487 163.636C226.888 163.823 227.229 164.107 227.509 164.49H227.579L227.747 163.496H228.727V171.126C228.727 172.199 228.451 173.007 227.901 173.548C227.359 174.089 226.515 174.36 225.367 174.36C224.265 174.36 223.365 174.201 222.665 173.884V172.75C223.402 173.142 224.326 173.338 225.437 173.338C226.081 173.338 226.585 173.147 226.949 172.764C227.322 172.391 227.509 171.877 227.509 171.224V170.93C227.509 170.818 227.513 170.659 227.523 170.454C227.532 170.239 227.541 170.09 227.551 170.006H227.495C226.991 170.762 226.216 171.14 225.171 171.14C224.2 171.14 223.439 170.799 222.889 170.118C222.347 169.437 222.077 168.485 222.077 167.262C222.077 166.067 222.347 165.12 222.889 164.42C223.439 163.711 224.195 163.356 225.157 163.356ZM225.325 164.392C224.699 164.392 224.214 164.644 223.869 165.148C223.523 165.643 223.351 166.352 223.351 167.276C223.351 168.2 223.519 168.909 223.855 169.404C224.191 169.889 224.69 170.132 225.353 170.132C226.109 170.132 226.659 169.931 227.005 169.53C227.35 169.119 227.523 168.461 227.523 167.556V167.262C227.523 166.245 227.345 165.512 226.991 165.064C226.636 164.616 226.081 164.392 225.325 164.392ZM235.996 168.928C235.996 169.656 235.725 170.207 235.184 170.58C234.643 170.953 233.915 171.14 233 171.14C232.477 171.14 232.025 171.098 231.642 171.014C231.269 170.93 230.937 170.813 230.648 170.664V169.544C230.947 169.693 231.306 169.833 231.726 169.964C232.155 170.085 232.589 170.146 233.028 170.146C233.653 170.146 234.106 170.048 234.386 169.852C234.666 169.647 234.806 169.376 234.806 169.04C234.806 168.853 234.755 168.685 234.652 168.536C234.549 168.387 234.363 168.237 234.092 168.088C233.831 167.939 233.453 167.771 232.958 167.584C232.473 167.397 232.057 167.211 231.712 167.024C231.367 166.837 231.101 166.613 230.914 166.352C230.727 166.091 230.634 165.755 230.634 165.344C230.634 164.709 230.891 164.219 231.404 163.874C231.927 163.529 232.608 163.356 233.448 163.356C233.905 163.356 234.33 163.403 234.722 163.496C235.123 163.589 235.497 163.711 235.842 163.86L235.422 164.84C235.105 164.709 234.773 164.597 234.428 164.504C234.083 164.411 233.728 164.364 233.364 164.364C232.86 164.364 232.473 164.448 232.202 164.616C231.941 164.775 231.81 164.994 231.81 165.274C231.81 165.489 231.871 165.666 231.992 165.806C232.113 165.946 232.314 166.086 232.594 166.226C232.883 166.366 233.266 166.525 233.742 166.702C234.218 166.879 234.624 167.061 234.96 167.248C235.296 167.435 235.553 167.663 235.73 167.934C235.907 168.195 235.996 168.527 235.996 168.928Z" fill="black"/>
<rect x="104" y="39.5" width="204" height="145" rx="4.5" stroke="black" stroke-opacity="0.15"/>
</g>
<defs>
<filter id="filter0_d_6659_524454" x="99.5" y="39" width="213" height="154" filterUnits="userSpaceOnUse" color-interpolation-filters="sRGB">
<feFlood flood-opacity="0" result="BackgroundImageFix"/>
<feColorMatrix in="SourceAlpha" type="matrix" values="0 0 0 0 0 0 0 0 0 0 0 0 0 0 0 0 0 0 127 0" result="hardAlpha"/>
<feOffset dy="4"/>
<feGaussianBlur stdDeviation="2"/>
<feColorMatrix type="matrix" values="0 0 0 0 0 0 0 0 0 0 0 0 0 0 0 0 0 0 0.25 0"/>
<feBlend mode="normal" in2="BackgroundImageFix" result="effect1_dropShadow_6659_524454"/>
<feBlend mode="normal" in="SourceGraphic" in2="effect1_dropShadow_6659_524454" result="shape"/>
</filter>
</defs>
</svg>
