<svg width="824" height="414" viewBox="0 0 824 414" fill="none" xmlns="http://www.w3.org/2000/svg">
<rect width="824" height="414" fill="white"/>
<g filter="url(#filter0_d_8122_329004)">
<g clip-path="url(#clip0_8122_329004)">
<rect x="30" y="76" width="254" height="127" rx="4" fill="white"/>
<rect x="38.5" y="84.5" width="197" height="35" rx="1.5" fill="white"/>
<rect x="38.5" y="84.5" width="197" height="35" rx="1.5" stroke="#939393"/>
<path fill-rule="evenodd" clip-rule="evenodd" d="M256.375 94.62C256.755 94.8044 257.051 95.1102 257.24 95.3364C257.285 95.3913 257.346 95.4635 257.417 95.5485C257.866 96.085 258.743 97.1344 259.107 97.6199C259.459 98.0883 259.407 98.5955 259.21 99.0014C259.027 99.3788 258.707 99.7081 258.418 99.9612C258.13 100.213 257.989 100.35 257.918 100.467C257.876 100.537 257.854 100.6 257.892 100.752C257.939 100.94 258.105 101.292 258.404 101.74C258.694 102.176 259.084 102.664 259.54 103.119C259.995 103.575 260.483 103.964 260.908 104.245C261.121 104.385 261.312 104.495 261.472 104.572C261.639 104.652 261.742 104.682 261.786 104.688C261.803 104.69 261.821 104.694 261.838 104.698C261.99 104.736 262.053 104.715 262.123 104.672C262.24 104.601 262.377 104.461 262.629 104.173C262.882 103.883 263.211 103.563 263.589 103.38C263.991 103.185 264.493 103.132 264.958 103.474C265.609 103.91 266.855 104.95 267.328 105.355C267.591 105.58 267.898 105.897 268.072 106.292C268.259 106.715 268.286 107.22 267.983 107.724C267.941 107.794 267.897 107.874 267.847 107.964C267.464 108.66 266.794 109.876 265.077 110.095C263.137 110.401 260.171 109.595 256.615 105.969C253.054 102.338 252.262 99.3791 252.494 97.5218C252.705 95.8342 253.947 95.1927 254.646 94.8312C254.758 94.7734 254.857 94.7227 254.934 94.676C255.455 94.3639 255.968 94.4228 256.375 94.62ZM255.926 95.5455C255.767 95.4684 255.629 95.4587 255.463 95.558C255.328 95.6393 255.188 95.7146 255.048 95.79C254.352 96.1642 253.654 96.5394 253.515 97.6494C253.336 99.0835 253.915 101.747 257.349 105.248C260.781 108.748 263.435 109.316 264.923 109.078C264.929 109.077 264.935 109.076 264.941 109.075C266.117 108.928 266.536 108.187 266.93 107.492C266.986 107.391 267.043 107.292 267.101 107.195C267.209 107.014 267.202 106.867 267.131 106.707C267.048 106.52 266.876 106.322 266.658 106.136C266.174 105.721 264.963 104.713 264.376 104.322C264.369 104.317 264.361 104.311 264.353 104.306C264.273 104.245 264.197 104.228 264.038 104.306C263.849 104.397 263.63 104.591 263.403 104.85C263.175 105.111 262.935 105.382 262.658 105.551C262.34 105.744 261.999 105.793 261.613 105.702C261.424 105.67 261.22 105.592 261.027 105.499C260.816 105.398 260.583 105.263 260.341 105.103C259.858 104.784 259.317 104.351 258.812 103.846C258.308 103.342 257.875 102.801 257.548 102.311C257.23 101.833 256.984 101.363 256.894 101.002C256.795 100.606 256.842 100.257 257.04 99.9325C257.208 99.6553 257.48 99.4151 257.74 99.1871C257.999 98.9603 258.193 98.741 258.285 98.5527C258.362 98.3928 258.345 98.3172 258.285 98.237C257.939 97.7768 257.089 96.7597 256.635 96.2168C256.561 96.1289 256.498 96.0535 256.45 95.9948C256.295 95.8096 256.111 95.6354 255.926 95.5455Z" fill="#1B77AF"/>
<rect width="254" height="36" transform="translate(30 128)" fill="#F1F1F1"/>
<path d="M45.028 148.326C45.028 149.213 44.706 149.903 44.062 150.398C43.418 150.893 42.55 151.14 41.458 151.14C40.898 151.14 40.38 151.098 39.904 151.014C39.428 150.93 39.0313 150.813 38.714 150.664V149.46C39.05 149.609 39.4653 149.745 39.96 149.866C40.464 149.987 40.982 150.048 41.514 150.048C42.2513 150.048 42.8113 149.903 43.194 149.614C43.5767 149.325 43.768 148.933 43.768 148.438C43.768 148.111 43.698 147.836 43.558 147.612C43.418 147.388 43.1753 147.183 42.83 146.996C42.4847 146.809 42.0133 146.604 41.416 146.38C40.5573 146.072 39.9133 145.694 39.484 145.246C39.0547 144.798 38.84 144.187 38.84 143.412C38.84 142.889 38.9753 142.437 39.246 142.054C39.5167 141.671 39.89 141.377 40.366 141.172C40.842 140.967 41.3973 140.864 42.032 140.864C42.5733 140.864 43.0727 140.915 43.53 141.018C43.9873 141.121 44.4073 141.256 44.79 141.424L44.398 142.502C44.0527 142.353 43.6747 142.227 43.264 142.124C42.8533 142.021 42.4333 141.97 42.004 141.97C41.3787 141.97 40.9073 142.105 40.59 142.376C40.2727 142.637 40.114 142.987 40.114 143.426C40.114 143.762 40.184 144.042 40.324 144.266C40.464 144.49 40.6927 144.695 41.01 144.882C41.3273 145.059 41.7567 145.246 42.298 145.442C42.886 145.657 43.3807 145.89 43.782 146.142C44.1927 146.385 44.5007 146.679 44.706 147.024C44.9207 147.369 45.028 147.803 45.028 148.326ZM49.7716 143.356C50.4063 143.356 50.9569 143.496 51.4236 143.776C51.8903 144.056 52.2449 144.453 52.4876 144.966C52.7396 145.47 52.8656 146.063 52.8656 146.744V147.486H47.7276C47.7463 148.335 47.9609 148.984 48.3716 149.432C48.7916 149.871 49.3749 150.09 50.1216 150.09C50.5976 150.09 51.0176 150.048 51.3816 149.964C51.7549 149.871 52.1376 149.74 52.5296 149.572V150.65C52.1469 150.818 51.7689 150.939 51.3956 151.014C51.0223 151.098 50.5789 151.14 50.0656 151.14C49.3469 151.14 48.7169 150.995 48.1756 150.706C47.6343 150.417 47.2096 149.987 46.9016 149.418C46.6029 148.849 46.4536 148.144 46.4536 147.304C46.4536 146.483 46.5889 145.778 46.8596 145.19C47.1396 144.602 47.5269 144.149 48.0216 143.832C48.5256 143.515 49.1089 143.356 49.7716 143.356ZM49.7576 144.364C49.1696 144.364 48.7029 144.555 48.3576 144.938C48.0216 145.311 47.8209 145.834 47.7556 146.506H51.5776C51.5683 145.871 51.4189 145.358 51.1296 144.966C50.8403 144.565 50.3829 144.364 49.7576 144.364ZM58.2759 143.356C58.4159 143.356 58.5653 143.365 58.7239 143.384C58.8826 143.393 59.0273 143.412 59.1579 143.44L59.0039 144.574C58.8826 144.546 58.7473 144.523 58.5979 144.504C58.4486 144.485 58.3133 144.476 58.1919 144.476C57.8093 144.476 57.4499 144.583 57.1139 144.798C56.7779 145.003 56.5073 145.297 56.3019 145.68C56.1059 146.053 56.0079 146.492 56.0079 146.996V151H54.7759V143.496H55.7839L55.9239 144.868H55.9799C56.2133 144.457 56.5213 144.103 56.9039 143.804C57.2959 143.505 57.7533 143.356 58.2759 143.356ZM62.2111 151L59.3691 143.496H60.6851L62.2811 147.92C62.3558 148.125 62.4351 148.354 62.5191 148.606C62.6031 148.858 62.6778 149.101 62.7431 149.334C62.8085 149.567 62.8551 149.759 62.8831 149.908H62.9391C62.9671 149.759 63.0185 149.567 63.0931 149.334C63.1678 149.091 63.2471 148.849 63.3311 148.606C63.4151 148.354 63.4945 148.125 63.5691 147.92L65.1651 143.496H66.4811L63.6251 151H62.2111ZM68.2985 140.682C68.4852 140.682 68.6485 140.747 68.7885 140.878C68.9378 140.999 69.0125 141.195 69.0125 141.466C69.0125 141.737 68.9378 141.937 68.7885 142.068C68.6485 142.189 68.4852 142.25 68.2985 142.25C68.0932 142.25 67.9205 142.189 67.7805 142.068C67.6405 141.937 67.5705 141.737 67.5705 141.466C67.5705 141.195 67.6405 140.999 67.7805 140.878C67.9205 140.747 68.0932 140.682 68.2985 140.682ZM68.9005 143.496V151H67.6685V143.496H68.9005ZM74.2879 151.14C73.6159 151.14 73.0232 151.005 72.5099 150.734C71.9966 150.463 71.5906 150.043 71.2919 149.474C71.0026 148.905 70.8579 148.177 70.8579 147.29C70.8579 146.366 71.0072 145.615 71.3059 145.036C71.6139 144.457 72.0339 144.033 72.5659 143.762C73.0979 143.491 73.6999 143.356 74.3719 143.356C74.7452 143.356 75.1092 143.398 75.4639 143.482C75.8279 143.557 76.1219 143.65 76.3459 143.762L75.9679 144.784C75.7439 144.7 75.4826 144.621 75.1839 144.546C74.8852 144.471 74.6052 144.434 74.3439 144.434C72.8692 144.434 72.1319 145.381 72.1319 147.276C72.1319 148.181 72.3092 148.877 72.6639 149.362C73.0279 149.838 73.5646 150.076 74.2739 150.076C74.6752 150.076 75.0346 150.034 75.3519 149.95C75.6692 149.866 75.9586 149.763 76.2199 149.642V150.734C75.9679 150.865 75.6879 150.963 75.3799 151.028C75.0812 151.103 74.7172 151.14 74.2879 151.14ZM80.9025 143.356C81.5371 143.356 82.0878 143.496 82.5545 143.776C83.0211 144.056 83.3758 144.453 83.6185 144.966C83.8705 145.47 83.9965 146.063 83.9965 146.744V147.486H78.8585C78.8771 148.335 79.0918 148.984 79.5025 149.432C79.9225 149.871 80.5058 150.09 81.2525 150.09C81.7285 150.09 82.1485 150.048 82.5125 149.964C82.8858 149.871 83.2685 149.74 83.6605 149.572V150.65C83.2778 150.818 82.8998 150.939 82.5265 151.014C82.1531 151.098 81.7098 151.14 81.1965 151.14C80.4778 151.14 79.8478 150.995 79.3065 150.706C78.7651 150.417 78.3405 149.987 78.0325 149.418C77.7338 148.849 77.5845 148.144 77.5845 147.304C77.5845 146.483 77.7198 145.778 77.9905 145.19C78.2705 144.602 78.6578 144.149 79.1525 143.832C79.6565 143.515 80.2398 143.356 80.9025 143.356ZM80.8885 144.364C80.3005 144.364 79.8338 144.555 79.4885 144.938C79.1525 145.311 78.9518 145.834 78.8865 146.506H82.7085C82.6991 145.871 82.5498 145.358 82.2605 144.966C81.9711 144.565 81.5138 144.364 80.8885 144.364ZM90.7928 148.928C90.7928 149.656 90.5221 150.207 89.9808 150.58C89.4395 150.953 88.7115 151.14 87.7968 151.14C87.2741 151.14 86.8215 151.098 86.4388 151.014C86.0655 150.93 85.7341 150.813 85.4448 150.664V149.544C85.7435 149.693 86.1028 149.833 86.5228 149.964C86.9521 150.085 87.3861 150.146 87.8248 150.146C88.4501 150.146 88.9028 150.048 89.1828 149.852C89.4628 149.647 89.6028 149.376 89.6028 149.04C89.6028 148.853 89.5515 148.685 89.4488 148.536C89.3461 148.387 89.1595 148.237 88.8888 148.088C88.6275 147.939 88.2495 147.771 87.7548 147.584C87.2695 147.397 86.8541 147.211 86.5088 147.024C86.1635 146.837 85.8975 146.613 85.7108 146.352C85.5241 146.091 85.4308 145.755 85.4308 145.344C85.4308 144.709 85.6875 144.219 86.2008 143.874C86.7235 143.529 87.4048 143.356 88.2448 143.356C88.7021 143.356 89.1268 143.403 89.5188 143.496C89.9201 143.589 90.2935 143.711 90.6388 143.86L90.2188 144.84C89.9015 144.709 89.5701 144.597 89.2248 144.504C88.8795 144.411 88.5248 144.364 88.1608 144.364C87.6568 144.364 87.2695 144.448 86.9988 144.616C86.7375 144.775 86.6068 144.994 86.6068 145.274C86.6068 145.489 86.6675 145.666 86.7888 145.806C86.9101 145.946 87.1108 146.086 87.3908 146.226C87.6801 146.366 88.0628 146.525 88.5388 146.702C89.0148 146.879 89.4208 147.061 89.7568 147.248C90.0928 147.435 90.3495 147.663 90.5268 147.934C90.7041 148.195 90.7928 148.527 90.7928 148.928Z" fill="black"/>
<path d="M265.412 151.962C265.312 151.962 265.212 151.913 265.162 151.863C265.013 151.713 265.013 151.462 265.162 151.312L270.462 146.012L265.112 140.662C264.963 140.512 264.963 140.263 265.112 140.113C265.262 139.962 265.512 139.962 265.662 140.113L271.262 145.712C271.312 145.762 271.362 145.862 271.362 145.962C271.362 146.062 271.312 146.162 271.262 146.212L265.662 151.863C265.562 151.963 265.463 151.962 265.412 151.962Z" fill="black"/>
<path d="M46.96 177.004V183.472C46.96 184.163 46.82 184.788 46.54 185.348C46.26 185.899 45.8307 186.337 45.252 186.664C44.6733 186.981 43.9453 187.14 43.068 187.14C41.8173 187.14 40.87 186.804 40.226 186.132C39.582 185.451 39.26 184.555 39.26 183.444V177.004H40.52V183.486C40.52 184.298 40.7347 184.928 41.164 185.376C41.6027 185.824 42.2607 186.048 43.138 186.048C44.0433 186.048 44.6967 185.81 45.098 185.334C45.5087 184.849 45.714 184.228 45.714 183.472V177.004H46.96ZM54.3162 184.928C54.3162 185.656 54.0456 186.207 53.5042 186.58C52.9629 186.953 52.2349 187.14 51.3202 187.14C50.7976 187.14 50.3449 187.098 49.9622 187.014C49.5889 186.93 49.2576 186.813 48.9682 186.664V185.544C49.2669 185.693 49.6262 185.833 50.0462 185.964C50.4756 186.085 50.9096 186.146 51.3482 186.146C51.9736 186.146 52.4262 186.048 52.7062 185.852C52.9862 185.647 53.1262 185.376 53.1262 185.04C53.1262 184.853 53.0749 184.685 52.9722 184.536C52.8696 184.387 52.6829 184.237 52.4122 184.088C52.1509 183.939 51.7729 183.771 51.2782 183.584C50.7929 183.397 50.3776 183.211 50.0322 183.024C49.6869 182.837 49.4209 182.613 49.2342 182.352C49.0476 182.091 48.9542 181.755 48.9542 181.344C48.9542 180.709 49.2109 180.219 49.7242 179.874C50.2469 179.529 50.9282 179.356 51.7682 179.356C52.2256 179.356 52.6502 179.403 53.0422 179.496C53.4436 179.589 53.8169 179.711 54.1622 179.86L53.7422 180.84C53.4249 180.709 53.0936 180.597 52.7482 180.504C52.4029 180.411 52.0482 180.364 51.6842 180.364C51.1802 180.364 50.7929 180.448 50.5222 180.616C50.2609 180.775 50.1302 180.994 50.1302 181.274C50.1302 181.489 50.1909 181.666 50.3122 181.806C50.4336 181.946 50.6342 182.086 50.9142 182.226C51.2036 182.366 51.5862 182.525 52.0622 182.702C52.5382 182.879 52.9442 183.061 53.2802 183.248C53.6162 183.435 53.8729 183.663 54.0502 183.934C54.2276 184.195 54.3162 184.527 54.3162 184.928ZM59.0275 179.356C59.6621 179.356 60.2128 179.496 60.6795 179.776C61.1461 180.056 61.5008 180.453 61.7435 180.966C61.9955 181.47 62.1215 182.063 62.1215 182.744V183.486H56.9835C57.0021 184.335 57.2168 184.984 57.6275 185.432C58.0475 185.871 58.6308 186.09 59.3775 186.09C59.8535 186.09 60.2735 186.048 60.6375 185.964C61.0108 185.871 61.3935 185.74 61.7855 185.572V186.65C61.4028 186.818 61.0248 186.939 60.6515 187.014C60.2781 187.098 59.8348 187.14 59.3215 187.14C58.6028 187.14 57.9728 186.995 57.4315 186.706C56.8901 186.417 56.4655 185.987 56.1575 185.418C55.8588 184.849 55.7095 184.144 55.7095 183.304C55.7095 182.483 55.8448 181.778 56.1155 181.19C56.3955 180.602 56.7828 180.149 57.2775 179.832C57.7815 179.515 58.3648 179.356 59.0275 179.356ZM59.0135 180.364C58.4255 180.364 57.9588 180.555 57.6135 180.938C57.2775 181.311 57.0768 181.834 57.0115 182.506H60.8335C60.8241 181.871 60.6748 181.358 60.3855 180.966C60.0961 180.565 59.6388 180.364 59.0135 180.364ZM67.5318 179.356C67.6718 179.356 67.8211 179.365 67.9798 179.384C68.1385 179.393 68.2831 179.412 68.4138 179.44L68.2598 180.574C68.1385 180.546 68.0031 180.523 67.8538 180.504C67.7045 180.485 67.5691 180.476 67.4478 180.476C67.0651 180.476 66.7058 180.583 66.3698 180.798C66.0338 181.003 65.7631 181.297 65.5578 181.68C65.3618 182.053 65.2638 182.492 65.2638 182.996V187H64.0318V179.496H65.0398L65.1798 180.868H65.2358C65.4691 180.457 65.7771 180.103 66.1598 179.804C66.5518 179.505 67.0091 179.356 67.5318 179.356ZM74.701 184.928C74.701 185.656 74.4303 186.207 73.889 186.58C73.3477 186.953 72.6197 187.14 71.705 187.14C71.1823 187.14 70.7297 187.098 70.347 187.014C69.9737 186.93 69.6423 186.813 69.353 186.664V185.544C69.6517 185.693 70.011 185.833 70.431 185.964C70.8603 186.085 71.2943 186.146 71.733 186.146C72.3583 186.146 72.811 186.048 73.091 185.852C73.371 185.647 73.511 185.376 73.511 185.04C73.511 184.853 73.4597 184.685 73.357 184.536C73.2543 184.387 73.0677 184.237 72.797 184.088C72.5357 183.939 72.1577 183.771 71.663 183.584C71.1777 183.397 70.7623 183.211 70.417 183.024C70.0717 182.837 69.8057 182.613 69.619 182.352C69.4323 182.091 69.339 181.755 69.339 181.344C69.339 180.709 69.5957 180.219 70.109 179.874C70.6317 179.529 71.313 179.356 72.153 179.356C72.6103 179.356 73.035 179.403 73.427 179.496C73.8283 179.589 74.2017 179.711 74.547 179.86L74.127 180.84C73.8097 180.709 73.4783 180.597 73.133 180.504C72.7877 180.411 72.433 180.364 72.069 180.364C71.565 180.364 71.1777 180.448 70.907 180.616C70.6457 180.775 70.515 180.994 70.515 181.274C70.515 181.489 70.5757 181.666 70.697 181.806C70.8183 181.946 71.019 182.086 71.299 182.226C71.5883 182.366 71.971 182.525 72.447 182.702C72.923 182.879 73.329 183.061 73.665 183.248C74.001 183.435 74.2577 183.663 74.435 183.934C74.6123 184.195 74.701 184.527 74.701 184.928Z" fill="black"/>
<path d="M265.412 187.962C265.312 187.962 265.212 187.913 265.162 187.863C265.013 187.713 265.013 187.462 265.162 187.312L270.462 182.012L265.112 176.662C264.963 176.512 264.963 176.263 265.112 176.113C265.262 175.962 265.512 175.962 265.662 176.113L271.262 181.712C271.312 181.762 271.362 181.862 271.362 181.962C271.362 182.062 271.312 182.162 271.262 182.212L265.662 187.863C265.562 187.963 265.463 187.962 265.412 187.962Z" fill="black"/>
</g>
<rect x="29.5" y="75.5" width="255" height="128" rx="4.5" stroke="black" stroke-opacity="0.15"/>
</g>
<g filter="url(#filter1_d_8122_329004)">
<g clip-path="url(#clip1_8122_329004)">
<rect x="285" y="128" width="254" height="160" rx="4" fill="white"/>
<rect x="293.5" y="136.5" width="237" height="35" rx="1.5" fill="white"/>
<path fill-rule="evenodd" clip-rule="evenodd" d="M311.62 147.749C308.93 147.749 306.749 149.93 306.749 152.62C306.749 155.31 308.93 157.491 311.62 157.491C314.31 157.491 316.491 155.31 316.491 152.62C316.491 149.93 314.31 147.749 311.62 147.749ZM306 152.62C306 149.516 308.516 147 311.62 147C314.724 147 317.24 149.516 317.24 152.62C317.24 155.724 314.724 158.24 311.62 158.24C308.516 158.24 306 155.724 306 152.62Z" fill="#323232"/>
<path fill-rule="evenodd" clip-rule="evenodd" d="M315.302 156.302C315.448 156.155 315.685 156.155 315.831 156.302L317.68 158.15C317.826 158.296 317.826 158.533 317.68 158.68C317.533 158.826 317.296 158.826 317.15 158.68L315.302 156.831C315.155 156.685 315.155 156.448 315.302 156.302Z" fill="#323232"/>
<path fill-rule="evenodd" clip-rule="evenodd" d="M318.449 158.73C318.245 158.526 317.933 158.526 317.73 158.73C317.526 158.933 317.526 159.245 317.73 159.449L318.379 160.098C318.386 160.105 318.392 160.112 318.399 160.119C318.538 160.282 318.882 160.314 319.098 160.098C319.302 159.895 319.302 159.582 319.098 159.379L318.449 158.73ZM317.2 158.2C317.696 157.704 318.483 157.704 318.979 158.2L319.628 158.849C320.124 159.345 320.124 160.132 319.628 160.628C319.148 161.108 318.302 161.143 317.84 160.619L317.2 159.979C316.704 159.483 316.704 158.696 317.2 158.2Z" fill="#323232"/>
<path d="M331.59 159.14C331.105 159.14 330.675 159.103 330.302 159.028C329.938 158.953 329.593 158.841 329.266 158.692V157.46C329.546 157.609 329.877 157.745 330.26 157.866C330.652 157.987 331.1 158.048 331.604 158.048C332.024 158.048 332.411 157.983 332.766 157.852C333.121 157.721 333.405 157.521 333.62 157.25C333.835 156.979 333.942 156.629 333.942 156.2C333.942 155.827 333.816 155.509 333.564 155.248C333.321 154.977 332.897 154.669 332.29 154.324C331.935 154.119 331.618 153.899 331.338 153.666C331.067 153.433 330.853 153.167 330.694 152.868C330.545 152.569 330.47 152.201 330.47 151.762C330.47 151.146 330.619 150.623 330.918 150.194C331.217 149.755 331.613 149.424 332.108 149.2C332.612 148.976 333.163 148.864 333.76 148.864C334.283 148.864 334.74 148.915 335.132 149.018C335.533 149.121 335.911 149.265 336.266 149.452L335.79 150.516C335.547 150.385 335.244 150.264 334.88 150.152C334.516 150.031 334.143 149.97 333.76 149.97C333.181 149.97 332.71 150.119 332.346 150.418C331.982 150.717 331.8 151.137 331.8 151.678C331.8 151.967 331.851 152.205 331.954 152.392C332.057 152.579 332.215 152.751 332.43 152.91C332.645 153.069 332.911 153.241 333.228 153.428C333.629 153.671 333.979 153.909 334.278 154.142C334.586 154.375 334.824 154.646 334.992 154.954C335.169 155.262 335.258 155.645 335.258 156.102C335.258 157.101 334.922 157.857 334.25 158.37C333.587 158.883 332.701 159.14 331.59 159.14ZM339.456 159.14C338.588 159.14 337.916 158.888 337.44 158.384C336.974 157.871 336.74 157.18 336.74 156.312C336.74 155.715 336.824 155.127 336.992 154.548C337.17 153.96 337.422 153.428 337.748 152.952C338.075 152.467 338.467 152.079 338.924 151.79C339.391 151.501 339.914 151.356 340.492 151.356C341.202 151.356 341.734 151.51 342.088 151.818C342.452 152.126 342.634 152.555 342.634 153.106C342.634 153.601 342.48 154.049 342.172 154.45C341.874 154.842 341.402 155.159 340.758 155.402C340.114 155.635 339.279 155.752 338.252 155.752H338.014C338.005 155.836 337.996 155.925 337.986 156.018C337.986 156.111 337.986 156.195 337.986 156.27C337.986 156.839 338.122 157.292 338.392 157.628C338.672 157.955 339.102 158.118 339.68 158.118C340.035 158.118 340.371 158.071 340.688 157.978C341.006 157.875 341.351 157.731 341.724 157.544V158.594C341.37 158.753 341.02 158.883 340.674 158.986C340.338 159.089 339.932 159.14 339.456 159.14ZM338.196 154.758H338.294C338.854 154.758 339.372 154.711 339.848 154.618C340.324 154.515 340.707 154.352 340.996 154.128C341.286 153.895 341.43 153.587 341.43 153.204C341.43 152.961 341.346 152.765 341.178 152.616C341.02 152.457 340.768 152.378 340.422 152.378C339.974 152.378 339.54 152.588 339.12 153.008C338.71 153.419 338.402 154.002 338.196 154.758ZM345.757 159.14C345.15 159.14 344.66 158.925 344.287 158.496C343.913 158.057 343.727 157.418 343.727 156.578C343.727 155.878 343.815 155.215 343.993 154.59C344.179 153.955 344.436 153.4 344.763 152.924C345.089 152.439 345.477 152.056 345.925 151.776C346.373 151.496 346.867 151.356 347.409 151.356C347.903 151.356 348.305 151.487 348.613 151.748C348.921 152.009 349.149 152.313 349.299 152.658H349.369L349.817 151.496H350.755L349.159 159H348.179L348.361 157.614H348.305C347.978 158.025 347.6 158.384 347.171 158.692C346.751 158.991 346.279 159.14 345.757 159.14ZM346.163 158.118C346.499 158.118 346.835 157.992 347.171 157.74C347.507 157.488 347.805 157.152 348.067 156.732C348.337 156.303 348.547 155.817 348.697 155.276C348.762 155.015 348.809 154.767 348.837 154.534C348.865 154.301 348.879 154.086 348.879 153.89C348.879 153.451 348.757 153.092 348.515 152.812C348.272 152.532 347.945 152.392 347.535 152.392C347.171 152.392 346.835 152.509 346.527 152.742C346.219 152.966 345.948 153.279 345.715 153.68C345.481 154.072 345.299 154.52 345.169 155.024C345.047 155.528 344.987 156.055 344.987 156.606C344.987 157.11 345.089 157.488 345.295 157.74C345.5 157.992 345.789 158.118 346.163 158.118ZM351.404 159L353 151.496H354.008L353.854 152.882H353.924C354.12 152.63 354.325 152.387 354.54 152.154C354.754 151.921 354.997 151.729 355.268 151.58C355.538 151.431 355.851 151.356 356.206 151.356C356.336 151.356 356.472 151.365 356.612 151.384C356.761 151.393 356.896 151.417 357.018 151.454L356.752 152.56C356.5 152.504 356.262 152.476 356.038 152.476C355.571 152.476 355.156 152.63 354.792 152.938C354.428 153.246 354.124 153.638 353.882 154.114C353.639 154.59 353.466 155.075 353.364 155.57L352.636 159H351.404ZM359.774 159.14C358.944 159.14 358.272 158.907 357.758 158.44C357.245 157.973 356.988 157.273 356.988 156.34C356.988 155.668 357.077 155.033 357.254 154.436C357.441 153.829 357.702 153.297 358.038 152.84C358.384 152.383 358.799 152.023 359.284 151.762C359.77 151.491 360.311 151.356 360.908 151.356C361.235 151.356 361.557 151.389 361.874 151.454C362.201 151.519 362.5 151.608 362.77 151.72L362.42 152.742C362.234 152.658 362.01 152.579 361.748 152.504C361.496 152.429 361.221 152.392 360.922 152.392C360.39 152.392 359.924 152.574 359.522 152.938C359.121 153.293 358.808 153.769 358.584 154.366C358.36 154.963 358.248 155.617 358.248 156.326C358.248 156.895 358.393 157.339 358.682 157.656C358.972 157.964 359.378 158.118 359.9 158.118C360.227 158.118 360.535 158.076 360.824 157.992C361.123 157.899 361.417 157.787 361.706 157.656V158.692C361.445 158.823 361.151 158.93 360.824 159.014C360.507 159.098 360.157 159.14 359.774 159.14ZM363.052 159L365.306 148.36H366.538L365.936 151.118C365.88 151.398 365.81 151.692 365.726 152C365.642 152.299 365.563 152.597 365.488 152.896H365.558C365.735 152.663 365.945 152.429 366.188 152.196C366.431 151.963 366.706 151.767 367.014 151.608C367.331 151.449 367.691 151.37 368.092 151.37C368.671 151.37 369.128 151.533 369.464 151.86C369.809 152.177 369.982 152.653 369.982 153.288C369.982 153.475 369.963 153.661 369.926 153.848C369.898 154.035 369.865 154.231 369.828 154.436L368.848 159H367.616L368.61 154.296C368.694 153.876 368.736 153.568 368.736 153.372C368.736 153.064 368.657 152.826 368.498 152.658C368.349 152.481 368.101 152.392 367.756 152.392C367.439 152.392 367.093 152.504 366.72 152.728C366.356 152.943 366.015 153.297 365.698 153.792C365.39 154.287 365.147 154.945 364.97 155.766L364.284 159H363.052Z" fill="#757474"/>
<rect x="293.5" y="136.5" width="237" height="35" rx="1.5" stroke="#939393"/>
<path d="M298.642 193.97C297.569 193.97 296.724 194.329 296.108 195.048C295.492 195.767 295.184 196.751 295.184 198.002C295.184 199.243 295.469 200.228 296.038 200.956C296.617 201.675 297.48 202.034 298.628 202.034C299.057 202.034 299.468 201.997 299.86 201.922C300.252 201.847 300.639 201.754 301.022 201.642V202.734C300.649 202.874 300.261 202.977 299.86 203.042C299.468 203.107 298.997 203.14 298.446 203.14C297.429 203.14 296.579 202.93 295.898 202.51C295.217 202.09 294.703 201.493 294.358 200.718C294.022 199.943 293.854 199.033 293.854 197.988C293.854 196.98 294.036 196.093 294.4 195.328C294.773 194.553 295.319 193.951 296.038 193.522C296.757 193.083 297.629 192.864 298.656 192.864C299.711 192.864 300.63 193.06 301.414 193.452L300.91 194.516C300.602 194.376 300.257 194.25 299.874 194.138C299.501 194.026 299.09 193.97 298.642 193.97ZM309.308 195.496V203H308.3L308.118 202.006H308.062C307.819 202.398 307.483 202.687 307.054 202.874C306.624 203.051 306.167 203.14 305.682 203.14C304.776 203.14 304.095 202.925 303.638 202.496C303.18 202.057 302.952 201.362 302.952 200.41V195.496H304.198V200.326C304.198 201.521 304.753 202.118 305.864 202.118C306.694 202.118 307.268 201.885 307.586 201.418C307.912 200.951 308.076 200.279 308.076 199.402V195.496H309.308ZM316.576 200.928C316.576 201.656 316.305 202.207 315.764 202.58C315.223 202.953 314.495 203.14 313.58 203.14C313.057 203.14 312.605 203.098 312.222 203.014C311.849 202.93 311.517 202.813 311.228 202.664V201.544C311.527 201.693 311.886 201.833 312.306 201.964C312.735 202.085 313.169 202.146 313.608 202.146C314.233 202.146 314.686 202.048 314.966 201.852C315.246 201.647 315.386 201.376 315.386 201.04C315.386 200.853 315.335 200.685 315.232 200.536C315.129 200.387 314.943 200.237 314.672 200.088C314.411 199.939 314.033 199.771 313.538 199.584C313.053 199.397 312.637 199.211 312.292 199.024C311.947 198.837 311.681 198.613 311.494 198.352C311.307 198.091 311.214 197.755 311.214 197.344C311.214 196.709 311.471 196.219 311.984 195.874C312.507 195.529 313.188 195.356 314.028 195.356C314.485 195.356 314.91 195.403 315.302 195.496C315.703 195.589 316.077 195.711 316.422 195.86L316.002 196.84C315.685 196.709 315.353 196.597 315.008 196.504C314.663 196.411 314.308 196.364 313.944 196.364C313.44 196.364 313.053 196.448 312.782 196.616C312.521 196.775 312.39 196.994 312.39 197.274C312.39 197.489 312.451 197.666 312.572 197.806C312.693 197.946 312.894 198.086 313.174 198.226C313.463 198.366 313.846 198.525 314.322 198.702C314.798 198.879 315.204 199.061 315.54 199.248C315.876 199.435 316.133 199.663 316.31 199.934C316.487 200.195 316.576 200.527 316.576 200.928ZM320.895 202.132C321.082 202.132 321.273 202.118 321.469 202.09C321.665 202.062 321.824 202.025 321.945 201.978V202.916C321.815 202.981 321.628 203.033 321.385 203.07C321.143 203.117 320.909 203.14 320.685 203.14C320.293 203.14 319.929 203.075 319.593 202.944C319.267 202.804 319.001 202.566 318.795 202.23C318.59 201.894 318.487 201.423 318.487 200.816V196.448H317.423V195.86L318.501 195.37L318.991 193.774H319.719V195.496H321.889V196.448H319.719V200.788C319.719 201.245 319.827 201.586 320.041 201.81C320.265 202.025 320.55 202.132 320.895 202.132ZM329.972 199.234C329.972 200.475 329.654 201.437 329.02 202.118C328.394 202.799 327.545 203.14 326.472 203.14C325.809 203.14 325.216 202.991 324.694 202.692C324.18 202.384 323.774 201.941 323.476 201.362C323.177 200.774 323.028 200.065 323.028 199.234C323.028 197.993 323.336 197.036 323.952 196.364C324.577 195.692 325.431 195.356 326.514 195.356C327.186 195.356 327.783 195.51 328.306 195.818C328.828 196.117 329.234 196.555 329.524 197.134C329.822 197.703 329.972 198.403 329.972 199.234ZM324.302 199.234C324.302 200.121 324.474 200.825 324.82 201.348C325.174 201.861 325.734 202.118 326.5 202.118C327.256 202.118 327.811 201.861 328.166 201.348C328.52 200.825 328.698 200.121 328.698 199.234C328.698 198.347 328.52 197.652 328.166 197.148C327.811 196.644 327.251 196.392 326.486 196.392C325.72 196.392 325.165 196.644 324.82 197.148C324.474 197.652 324.302 198.347 324.302 199.234ZM340.156 195.356C341.006 195.356 341.64 195.575 342.06 196.014C342.48 196.453 342.69 197.153 342.69 198.114V203H341.472V198.17C341.472 196.985 340.964 196.392 339.946 196.392C339.218 196.392 338.696 196.602 338.378 197.022C338.07 197.442 337.916 198.053 337.916 198.856V203H336.698V198.17C336.698 196.985 336.185 196.392 335.158 196.392C334.402 196.392 333.88 196.625 333.59 197.092C333.301 197.559 333.156 198.231 333.156 199.108V203H331.924V195.496H332.918L333.1 196.518H333.17C333.404 196.126 333.716 195.837 334.108 195.65C334.51 195.454 334.934 195.356 335.382 195.356C336.558 195.356 337.324 195.776 337.678 196.616H337.748C338 196.187 338.341 195.869 338.77 195.664C339.2 195.459 339.662 195.356 340.156 195.356ZM347.906 195.356C348.541 195.356 349.092 195.496 349.558 195.776C350.025 196.056 350.38 196.453 350.622 196.966C350.874 197.47 351 198.063 351 198.744V199.486H345.862C345.881 200.335 346.096 200.984 346.506 201.432C346.926 201.871 347.51 202.09 348.256 202.09C348.732 202.09 349.152 202.048 349.516 201.964C349.89 201.871 350.272 201.74 350.664 201.572V202.65C350.282 202.818 349.904 202.939 349.53 203.014C349.157 203.098 348.714 203.14 348.2 203.14C347.482 203.14 346.852 202.995 346.31 202.706C345.769 202.417 345.344 201.987 345.036 201.418C344.738 200.849 344.588 200.144 344.588 199.304C344.588 198.483 344.724 197.778 344.994 197.19C345.274 196.602 345.662 196.149 346.156 195.832C346.66 195.515 347.244 195.356 347.906 195.356ZM347.892 196.364C347.304 196.364 346.838 196.555 346.492 196.938C346.156 197.311 345.956 197.834 345.89 198.506H349.712C349.703 197.871 349.554 197.358 349.264 196.966C348.975 196.565 348.518 196.364 347.892 196.364ZM356.411 195.356C356.551 195.356 356.7 195.365 356.859 195.384C357.017 195.393 357.162 195.412 357.293 195.44L357.139 196.574C357.017 196.546 356.882 196.523 356.733 196.504C356.583 196.485 356.448 196.476 356.327 196.476C355.944 196.476 355.585 196.583 355.249 196.798C354.913 197.003 354.642 197.297 354.437 197.68C354.241 198.053 354.143 198.492 354.143 198.996V203H352.911V195.496H353.919L354.059 196.868H354.115C354.348 196.457 354.656 196.103 355.039 195.804C355.431 195.505 355.888 195.356 356.411 195.356ZM366.783 193.97C365.709 193.97 364.865 194.329 364.249 195.048C363.633 195.767 363.325 196.751 363.325 198.002C363.325 199.243 363.609 200.228 364.179 200.956C364.757 201.675 365.621 202.034 366.769 202.034C367.198 202.034 367.609 201.997 368.001 201.922C368.393 201.847 368.78 201.754 369.163 201.642V202.734C368.789 202.874 368.402 202.977 368.001 203.042C367.609 203.107 367.137 203.14 366.587 203.14C365.569 203.14 364.72 202.93 364.039 202.51C363.357 202.09 362.844 201.493 362.499 200.718C362.163 199.943 361.995 199.033 361.995 197.988C361.995 196.98 362.177 196.093 362.541 195.328C362.914 194.553 363.46 193.951 364.179 193.522C364.897 193.083 365.77 192.864 366.797 192.864C367.851 192.864 368.771 193.06 369.555 193.452L369.051 194.516C368.743 194.376 368.397 194.25 368.015 194.138C367.641 194.026 367.231 193.97 366.783 193.97ZM374.018 195.37C374.933 195.37 375.61 195.571 376.048 195.972C376.487 196.373 376.706 197.013 376.706 197.89V203H375.81L375.572 201.936H375.516C375.19 202.347 374.844 202.65 374.48 202.846C374.116 203.042 373.622 203.14 372.996 203.14C372.315 203.14 371.75 202.963 371.302 202.608C370.854 202.244 370.63 201.679 370.63 200.914C370.63 200.167 370.924 199.593 371.512 199.192C372.1 198.781 373.006 198.557 374.228 198.52L375.502 198.478V198.03C375.502 197.405 375.367 196.971 375.096 196.728C374.826 196.485 374.443 196.364 373.948 196.364C373.556 196.364 373.183 196.425 372.828 196.546C372.474 196.658 372.142 196.789 371.834 196.938L371.456 196.014C371.783 195.837 372.17 195.687 372.618 195.566C373.066 195.435 373.533 195.37 374.018 195.37ZM375.488 199.332L374.382 199.374C373.449 199.411 372.8 199.561 372.436 199.822C372.082 200.083 371.904 200.452 371.904 200.928C371.904 201.348 372.03 201.656 372.282 201.852C372.544 202.048 372.875 202.146 373.276 202.146C373.902 202.146 374.424 201.973 374.844 201.628C375.274 201.273 375.488 200.732 375.488 200.004V199.332ZM382.524 195.356C382.664 195.356 382.813 195.365 382.972 195.384C383.131 195.393 383.275 195.412 383.406 195.44L383.252 196.574C383.131 196.546 382.995 196.523 382.846 196.504C382.697 196.485 382.561 196.476 382.44 196.476C382.057 196.476 381.698 196.583 381.362 196.798C381.026 197.003 380.755 197.297 380.55 197.68C380.354 198.053 380.256 198.492 380.256 198.996V203H379.024V195.496H380.032L380.172 196.868H380.228C380.461 196.457 380.769 196.103 381.152 195.804C381.544 195.505 382.001 195.356 382.524 195.356ZM387.432 195.356C388.066 195.356 388.617 195.496 389.084 195.776C389.55 196.056 389.905 196.453 390.148 196.966C390.4 197.47 390.526 198.063 390.526 198.744V199.486H385.388C385.406 200.335 385.621 200.984 386.032 201.432C386.452 201.871 387.035 202.09 387.782 202.09C388.258 202.09 388.678 202.048 389.042 201.964C389.415 201.871 389.798 201.74 390.19 201.572V202.65C389.807 202.818 389.429 202.939 389.056 203.014C388.682 203.098 388.239 203.14 387.726 203.14C387.007 203.14 386.377 202.995 385.836 202.706C385.294 202.417 384.87 201.987 384.562 201.418C384.263 200.849 384.114 200.144 384.114 199.304C384.114 198.483 384.249 197.778 384.52 197.19C384.8 196.602 385.187 196.149 385.682 195.832C386.186 195.515 386.769 195.356 387.432 195.356ZM387.418 196.364C386.83 196.364 386.363 196.555 386.018 196.938C385.682 197.311 385.481 197.834 385.416 198.506H389.238C389.228 197.871 389.079 197.358 388.79 196.966C388.5 196.565 388.043 196.364 387.418 196.364Z" fill="black"/>
<rect width="254" height="36" transform="translate(285 216)" fill="#F1F1F1"/>
<path d="M295.618 239H294.358V229.004H299.944V230.11H295.618V233.652H299.678V234.758H295.618V239ZM302.08 228.682C302.266 228.682 302.43 228.747 302.57 228.878C302.719 228.999 302.794 229.195 302.794 229.466C302.794 229.737 302.719 229.937 302.57 230.068C302.43 230.189 302.266 230.25 302.08 230.25C301.874 230.25 301.702 230.189 301.562 230.068C301.422 229.937 301.352 229.737 301.352 229.466C301.352 229.195 301.422 228.999 301.562 228.878C301.702 228.747 301.874 228.682 302.08 228.682ZM302.682 231.496V239H301.45V231.496H302.682ZM308.671 231.356C309.567 231.356 310.244 231.575 310.701 232.014C311.158 232.453 311.387 233.153 311.387 234.114V239H310.169V234.198C310.169 232.994 309.609 232.392 308.489 232.392C307.658 232.392 307.084 232.625 306.767 233.092C306.45 233.559 306.291 234.231 306.291 235.108V239H305.059V231.496H306.053L306.235 232.518H306.305C306.548 232.126 306.884 231.837 307.313 231.65C307.742 231.454 308.195 231.356 308.671 231.356ZM316.555 231.37C317.47 231.37 318.147 231.571 318.585 231.972C319.024 232.373 319.243 233.013 319.243 233.89V239H318.347L318.109 237.936H318.053C317.727 238.347 317.381 238.65 317.017 238.846C316.653 239.042 316.159 239.14 315.533 239.14C314.852 239.14 314.287 238.963 313.839 238.608C313.391 238.244 313.167 237.679 313.167 236.914C313.167 236.167 313.461 235.593 314.049 235.192C314.637 234.781 315.543 234.557 316.765 234.52L318.039 234.478V234.03C318.039 233.405 317.904 232.971 317.633 232.728C317.363 232.485 316.98 232.364 316.485 232.364C316.093 232.364 315.72 232.425 315.365 232.546C315.011 232.658 314.679 232.789 314.371 232.938L313.993 232.014C314.32 231.837 314.707 231.687 315.155 231.566C315.603 231.435 316.07 231.37 316.555 231.37ZM318.025 235.332L316.919 235.374C315.986 235.411 315.337 235.561 314.973 235.822C314.619 236.083 314.441 236.452 314.441 236.928C314.441 237.348 314.567 237.656 314.819 237.852C315.081 238.048 315.412 238.146 315.813 238.146C316.439 238.146 316.961 237.973 317.381 237.628C317.811 237.273 318.025 236.732 318.025 236.004V235.332ZM325.173 231.356C326.069 231.356 326.746 231.575 327.203 232.014C327.66 232.453 327.889 233.153 327.889 234.114V239H326.671V234.198C326.671 232.994 326.111 232.392 324.991 232.392C324.16 232.392 323.586 232.625 323.269 233.092C322.952 233.559 322.793 234.231 322.793 235.108V239H321.561V231.496H322.555L322.737 232.518H322.807C323.05 232.126 323.386 231.837 323.815 231.65C324.244 231.454 324.697 231.356 325.173 231.356ZM333.225 239.14C332.553 239.14 331.961 239.005 331.447 238.734C330.934 238.463 330.528 238.043 330.229 237.474C329.94 236.905 329.795 236.177 329.795 235.29C329.795 234.366 329.945 233.615 330.243 233.036C330.551 232.457 330.971 232.033 331.503 231.762C332.035 231.491 332.637 231.356 333.309 231.356C333.683 231.356 334.047 231.398 334.401 231.482C334.765 231.557 335.059 231.65 335.283 231.762L334.905 232.784C334.681 232.7 334.42 232.621 334.121 232.546C333.823 232.471 333.543 232.434 333.281 232.434C331.807 232.434 331.069 233.381 331.069 235.276C331.069 236.181 331.247 236.877 331.601 237.362C331.965 237.838 332.502 238.076 333.211 238.076C333.613 238.076 333.972 238.034 334.289 237.95C334.607 237.866 334.896 237.763 335.157 237.642V238.734C334.905 238.865 334.625 238.963 334.317 239.028C334.019 239.103 333.655 239.14 333.225 239.14ZM339.84 231.356C340.475 231.356 341.025 231.496 341.492 231.776C341.959 232.056 342.313 232.453 342.556 232.966C342.808 233.47 342.934 234.063 342.934 234.744V235.486H337.796C337.815 236.335 338.029 236.984 338.44 237.432C338.86 237.871 339.443 238.09 340.19 238.09C340.666 238.09 341.086 238.048 341.45 237.964C341.823 237.871 342.206 237.74 342.598 237.572V238.65C342.215 238.818 341.837 238.939 341.464 239.014C341.091 239.098 340.647 239.14 340.134 239.14C339.415 239.14 338.785 238.995 338.244 238.706C337.703 238.417 337.278 237.987 336.97 237.418C336.671 236.849 336.522 236.144 336.522 235.304C336.522 234.483 336.657 233.778 336.928 233.19C337.208 232.602 337.595 232.149 338.09 231.832C338.594 231.515 339.177 231.356 339.84 231.356ZM339.826 232.364C339.238 232.364 338.771 232.555 338.426 232.938C338.09 233.311 337.889 233.834 337.824 234.506H341.646C341.637 233.871 341.487 233.358 341.198 232.966C340.909 232.565 340.451 232.364 339.826 232.364ZM356.657 233.904C356.657 235.593 356.195 236.867 355.271 237.726C354.356 238.575 353.078 239 351.435 239H348.649V229.004H351.729C352.728 229.004 353.596 229.191 354.333 229.564C355.08 229.937 355.654 230.488 356.055 231.216C356.456 231.944 356.657 232.84 356.657 233.904ZM355.327 233.946C355.327 232.611 354.996 231.636 354.333 231.02C353.68 230.395 352.751 230.082 351.547 230.082H349.909V237.922H351.267C353.974 237.922 355.327 236.597 355.327 233.946ZM361.606 231.356C362.24 231.356 362.791 231.496 363.258 231.776C363.724 232.056 364.079 232.453 364.322 232.966C364.574 233.47 364.7 234.063 364.7 234.744V235.486H359.562C359.58 236.335 359.795 236.984 360.206 237.432C360.626 237.871 361.209 238.09 361.956 238.09C362.432 238.09 362.852 238.048 363.216 237.964C363.589 237.871 363.972 237.74 364.364 237.572V238.65C363.981 238.818 363.603 238.939 363.23 239.014C362.856 239.098 362.413 239.14 361.9 239.14C361.181 239.14 360.551 238.995 360.01 238.706C359.468 238.417 359.044 237.987 358.736 237.418C358.437 236.849 358.288 236.144 358.288 235.304C358.288 234.483 358.423 233.778 358.694 233.19C358.974 232.602 359.361 232.149 359.856 231.832C360.36 231.515 360.943 231.356 361.606 231.356ZM361.592 232.364C361.004 232.364 360.537 232.555 360.192 232.938C359.856 233.311 359.655 233.834 359.59 234.506H363.412C363.402 233.871 363.253 233.358 362.964 232.966C362.674 232.565 362.217 232.364 361.592 232.364ZM370.18 231.356C371.104 231.356 371.846 231.678 372.406 232.322C372.975 232.966 373.26 233.937 373.26 235.234C373.26 236.513 372.975 237.483 372.406 238.146C371.846 238.809 371.099 239.14 370.166 239.14C369.587 239.14 369.107 239.033 368.724 238.818C368.351 238.603 368.057 238.347 367.842 238.048H367.758C367.767 238.207 367.781 238.407 367.8 238.65C367.828 238.893 367.842 239.103 367.842 239.28V242.36H366.61V231.496H367.618L367.786 232.518H367.842C368.066 232.191 368.36 231.916 368.724 231.692C369.088 231.468 369.573 231.356 370.18 231.356ZM369.956 232.392C369.191 232.392 368.649 232.607 368.332 233.036C368.015 233.465 367.851 234.119 367.842 234.996V235.234C367.842 236.158 367.991 236.872 368.29 237.376C368.598 237.871 369.163 238.118 369.984 238.118C370.432 238.118 370.805 237.997 371.104 237.754C371.403 237.502 371.622 237.157 371.762 236.718C371.911 236.279 371.986 235.78 371.986 235.22C371.986 234.361 371.818 233.675 371.482 233.162C371.155 232.649 370.647 232.392 369.956 232.392ZM378.065 231.37C378.98 231.37 379.657 231.571 380.095 231.972C380.534 232.373 380.753 233.013 380.753 233.89V239H379.857L379.619 237.936H379.563C379.237 238.347 378.891 238.65 378.527 238.846C378.163 239.042 377.669 239.14 377.043 239.14C376.362 239.14 375.797 238.963 375.349 238.608C374.901 238.244 374.677 237.679 374.677 236.914C374.677 236.167 374.971 235.593 375.559 235.192C376.147 234.781 377.053 234.557 378.275 234.52L379.549 234.478V234.03C379.549 233.405 379.414 232.971 379.143 232.728C378.873 232.485 378.49 232.364 377.995 232.364C377.603 232.364 377.23 232.425 376.875 232.546C376.521 232.658 376.189 232.789 375.881 232.938L375.503 232.014C375.83 231.837 376.217 231.687 376.665 231.566C377.113 231.435 377.58 231.37 378.065 231.37ZM379.535 235.332L378.429 235.374C377.496 235.411 376.847 235.561 376.483 235.822C376.129 236.083 375.951 236.452 375.951 236.928C375.951 237.348 376.077 237.656 376.329 237.852C376.591 238.048 376.922 238.146 377.323 238.146C377.949 238.146 378.471 237.973 378.891 237.628C379.321 237.273 379.535 236.732 379.535 236.004V235.332ZM386.571 231.356C386.711 231.356 386.86 231.365 387.019 231.384C387.178 231.393 387.322 231.412 387.453 231.44L387.299 232.574C387.178 232.546 387.042 232.523 386.893 232.504C386.744 232.485 386.608 232.476 386.487 232.476C386.104 232.476 385.745 232.583 385.409 232.798C385.073 233.003 384.802 233.297 384.597 233.68C384.401 234.053 384.303 234.492 384.303 234.996V239H383.071V231.496H384.079L384.219 232.868H384.275C384.508 232.457 384.816 232.103 385.199 231.804C385.591 231.505 386.048 231.356 386.571 231.356ZM391.36 238.132C391.547 238.132 391.738 238.118 391.934 238.09C392.13 238.062 392.289 238.025 392.41 237.978V238.916C392.279 238.981 392.093 239.033 391.85 239.07C391.607 239.117 391.374 239.14 391.15 239.14C390.758 239.14 390.394 239.075 390.058 238.944C389.731 238.804 389.465 238.566 389.26 238.23C389.055 237.894 388.952 237.423 388.952 236.816V232.448H387.888V231.86L388.966 231.37L389.456 229.774H390.184V231.496H392.354V232.448H390.184V236.788C390.184 237.245 390.291 237.586 390.506 237.81C390.73 238.025 391.015 238.132 391.36 238.132ZM402.145 231.356C402.994 231.356 403.629 231.575 404.049 232.014C404.469 232.453 404.679 233.153 404.679 234.114V239H403.461V234.17C403.461 232.985 402.952 232.392 401.935 232.392C401.207 232.392 400.684 232.602 400.367 233.022C400.059 233.442 399.905 234.053 399.905 234.856V239H398.687V234.17C398.687 232.985 398.173 232.392 397.147 232.392C396.391 232.392 395.868 232.625 395.579 233.092C395.289 233.559 395.145 234.231 395.145 235.108V239H393.913V231.496H394.907L395.089 232.518H395.159C395.392 232.126 395.705 231.837 396.097 231.65C396.498 231.454 396.923 231.356 397.371 231.356C398.547 231.356 399.312 231.776 399.667 232.616H399.737C399.989 232.187 400.329 231.869 400.759 231.664C401.188 231.459 401.65 231.356 402.145 231.356ZM409.895 231.356C410.529 231.356 411.08 231.496 411.547 231.776C412.013 232.056 412.368 232.453 412.611 232.966C412.863 233.47 412.989 234.063 412.989 234.744V235.486H407.851C407.869 236.335 408.084 236.984 408.495 237.432C408.915 237.871 409.498 238.09 410.245 238.09C410.721 238.09 411.141 238.048 411.505 237.964C411.878 237.871 412.261 237.74 412.653 237.572V238.65C412.27 238.818 411.892 238.939 411.519 239.014C411.145 239.098 410.702 239.14 410.189 239.14C409.47 239.14 408.84 238.995 408.299 238.706C407.757 238.417 407.333 237.987 407.025 237.418C406.726 236.849 406.577 236.144 406.577 235.304C406.577 234.483 406.712 233.778 406.983 233.19C407.263 232.602 407.65 232.149 408.145 231.832C408.649 231.515 409.232 231.356 409.895 231.356ZM409.881 232.364C409.293 232.364 408.826 232.555 408.481 232.938C408.145 233.311 407.944 233.834 407.879 234.506H411.701C411.691 233.871 411.542 233.358 411.253 232.966C410.963 232.565 410.506 232.364 409.881 232.364ZM418.511 231.356C419.407 231.356 420.084 231.575 420.541 232.014C420.998 232.453 421.227 233.153 421.227 234.114V239H420.009V234.198C420.009 232.994 419.449 232.392 418.329 232.392C417.498 232.392 416.924 232.625 416.607 233.092C416.29 233.559 416.131 234.231 416.131 235.108V239H414.899V231.496H415.893L416.075 232.518H416.145C416.388 232.126 416.724 231.837 417.153 231.65C417.582 231.454 418.035 231.356 418.511 231.356ZM426.059 238.132C426.246 238.132 426.437 238.118 426.633 238.09C426.829 238.062 426.988 238.025 427.109 237.978V238.916C426.979 238.981 426.792 239.033 426.549 239.07C426.307 239.117 426.073 239.14 425.849 239.14C425.457 239.14 425.093 239.075 424.757 238.944C424.431 238.804 424.165 238.566 423.959 238.23C423.754 237.894 423.651 237.423 423.651 236.816V232.448H422.587V231.86L423.665 231.37L424.155 229.774H424.883V231.496H427.053V232.448H424.883V236.788C424.883 237.245 424.991 237.586 425.205 237.81C425.429 238.025 425.714 238.132 426.059 238.132Z" fill="black"/>
<path d="M520.412 239.962C520.312 239.962 520.212 239.913 520.162 239.863C520.013 239.713 520.013 239.462 520.162 239.312L525.462 234.012L520.112 228.662C519.963 228.512 519.963 228.263 520.112 228.113C520.262 227.962 520.512 227.962 520.662 228.113L526.262 233.712C526.312 233.762 526.362 233.862 526.362 233.962C526.362 234.062 526.312 234.162 526.262 234.212L520.662 239.863C520.562 239.963 520.463 239.962 520.412 239.962Z" fill="black"/>
<path d="M298.642 265.97C297.569 265.97 296.724 266.329 296.108 267.048C295.492 267.767 295.184 268.751 295.184 270.002C295.184 271.243 295.469 272.228 296.038 272.956C296.617 273.675 297.48 274.034 298.628 274.034C299.057 274.034 299.468 273.997 299.86 273.922C300.252 273.847 300.639 273.754 301.022 273.642V274.734C300.649 274.874 300.261 274.977 299.86 275.042C299.468 275.107 298.997 275.14 298.446 275.14C297.429 275.14 296.579 274.93 295.898 274.51C295.217 274.09 294.703 273.493 294.358 272.718C294.022 271.943 293.854 271.033 293.854 269.988C293.854 268.98 294.036 268.093 294.4 267.328C294.773 266.553 295.319 265.951 296.038 265.522C296.757 265.083 297.629 264.864 298.656 264.864C299.711 264.864 300.63 265.06 301.414 265.452L300.91 266.516C300.602 266.376 300.257 266.25 299.874 266.138C299.501 266.026 299.09 265.97 298.642 265.97ZM309.56 271.234C309.56 272.475 309.242 273.437 308.608 274.118C307.982 274.799 307.133 275.14 306.06 275.14C305.397 275.14 304.804 274.991 304.282 274.692C303.768 274.384 303.362 273.941 303.064 273.362C302.765 272.774 302.616 272.065 302.616 271.234C302.616 269.993 302.924 269.036 303.54 268.364C304.165 267.692 305.019 267.356 306.102 267.356C306.774 267.356 307.371 267.51 307.894 267.818C308.416 268.117 308.822 268.555 309.112 269.134C309.41 269.703 309.56 270.403 309.56 271.234ZM303.89 271.234C303.89 272.121 304.062 272.825 304.408 273.348C304.762 273.861 305.322 274.118 306.088 274.118C306.844 274.118 307.399 273.861 307.754 273.348C308.108 272.825 308.286 272.121 308.286 271.234C308.286 270.347 308.108 269.652 307.754 269.148C307.399 268.644 306.839 268.392 306.074 268.392C305.308 268.392 304.753 268.644 304.408 269.148C304.062 269.652 303.89 270.347 303.89 271.234ZM319.744 267.356C320.594 267.356 321.228 267.575 321.648 268.014C322.068 268.453 322.278 269.153 322.278 270.114V275H321.06V270.17C321.06 268.985 320.552 268.392 319.534 268.392C318.806 268.392 318.284 268.602 317.966 269.022C317.658 269.442 317.504 270.053 317.504 270.856V275H316.286V270.17C316.286 268.985 315.773 268.392 314.746 268.392C313.99 268.392 313.468 268.625 313.178 269.092C312.889 269.559 312.744 270.231 312.744 271.108V275H311.512V267.496H312.506L312.688 268.518H312.758C312.992 268.126 313.304 267.837 313.696 267.65C314.098 267.454 314.522 267.356 314.97 267.356C316.146 267.356 316.912 267.776 317.266 268.616H317.336C317.588 268.187 317.929 267.869 318.358 267.664C318.788 267.459 319.25 267.356 319.744 267.356ZM328.166 267.356C329.09 267.356 329.832 267.678 330.392 268.322C330.962 268.966 331.246 269.937 331.246 271.234C331.246 272.513 330.962 273.483 330.392 274.146C329.832 274.809 329.086 275.14 328.152 275.14C327.574 275.14 327.093 275.033 326.71 274.818C326.337 274.603 326.043 274.347 325.828 274.048H325.744C325.754 274.207 325.768 274.407 325.786 274.65C325.814 274.893 325.828 275.103 325.828 275.28V278.36H324.596V267.496H325.604L325.772 268.518H325.828C326.052 268.191 326.346 267.916 326.71 267.692C327.074 267.468 327.56 267.356 328.166 267.356ZM327.942 268.392C327.177 268.392 326.636 268.607 326.318 269.036C326.001 269.465 325.838 270.119 325.828 270.996V271.234C325.828 272.158 325.978 272.872 326.276 273.376C326.584 273.871 327.149 274.118 327.97 274.118C328.418 274.118 328.792 273.997 329.09 273.754C329.389 273.502 329.608 273.157 329.748 272.718C329.898 272.279 329.972 271.78 329.972 271.22C329.972 270.361 329.804 269.675 329.468 269.162C329.142 268.649 328.633 268.392 327.942 268.392ZM334.442 275H333.21V264.36H334.442V275ZM339.661 267.37C340.576 267.37 341.252 267.571 341.691 267.972C342.13 268.373 342.349 269.013 342.349 269.89V275H341.453L341.215 273.936H341.159C340.832 274.347 340.487 274.65 340.123 274.846C339.759 275.042 339.264 275.14 338.639 275.14C337.958 275.14 337.393 274.963 336.945 274.608C336.497 274.244 336.273 273.679 336.273 272.914C336.273 272.167 336.567 271.593 337.155 271.192C337.743 270.781 338.648 270.557 339.871 270.52L341.145 270.478V270.03C341.145 269.405 341.01 268.971 340.739 268.728C340.468 268.485 340.086 268.364 339.591 268.364C339.199 268.364 338.826 268.425 338.471 268.546C338.116 268.658 337.785 268.789 337.477 268.938L337.099 268.014C337.426 267.837 337.813 267.687 338.261 267.566C338.709 267.435 339.176 267.37 339.661 267.37ZM341.131 271.332L340.025 271.374C339.092 271.411 338.443 271.561 338.079 271.822C337.724 272.083 337.547 272.452 337.547 272.928C337.547 273.348 337.673 273.656 337.925 273.852C338.186 274.048 338.518 274.146 338.919 274.146C339.544 274.146 340.067 273.973 340.487 273.628C340.916 273.273 341.131 272.732 341.131 272.004V271.332ZM345.297 264.682C345.483 264.682 345.647 264.747 345.787 264.878C345.936 264.999 346.011 265.195 346.011 265.466C346.011 265.737 345.936 265.937 345.787 266.068C345.647 266.189 345.483 266.25 345.297 266.25C345.091 266.25 344.919 266.189 344.779 266.068C344.639 265.937 344.569 265.737 344.569 265.466C344.569 265.195 344.639 264.999 344.779 264.878C344.919 264.747 345.091 264.682 345.297 264.682ZM345.899 267.496V275H344.667V267.496H345.899ZM351.888 267.356C352.784 267.356 353.461 267.575 353.918 268.014C354.375 268.453 354.604 269.153 354.604 270.114V275H353.386V270.198C353.386 268.994 352.826 268.392 351.706 268.392C350.875 268.392 350.301 268.625 349.984 269.092C349.667 269.559 349.508 270.231 349.508 271.108V275H348.276V267.496H349.27L349.452 268.518H349.522C349.765 268.126 350.101 267.837 350.53 267.65C350.959 267.454 351.412 267.356 351.888 267.356ZM359.436 274.132C359.623 274.132 359.814 274.118 360.01 274.09C360.206 274.062 360.365 274.025 360.486 273.978V274.916C360.356 274.981 360.169 275.033 359.926 275.07C359.684 275.117 359.45 275.14 359.226 275.14C358.834 275.14 358.47 275.075 358.134 274.944C357.808 274.804 357.542 274.566 357.336 274.23C357.131 273.894 357.028 273.423 357.028 272.816V268.448H355.964V267.86L357.042 267.37L357.532 265.774H358.26V267.496H360.43V268.448H358.26V272.788C358.26 273.245 358.368 273.586 358.582 273.81C358.806 274.025 359.091 274.132 359.436 274.132ZM366.875 272.928C366.875 273.656 366.604 274.207 366.063 274.58C365.521 274.953 364.793 275.14 363.879 275.14C363.356 275.14 362.903 275.098 362.521 275.014C362.147 274.93 361.816 274.813 361.527 274.664V273.544C361.825 273.693 362.185 273.833 362.605 273.964C363.034 274.085 363.468 274.146 363.907 274.146C364.532 274.146 364.985 274.048 365.265 273.852C365.545 273.647 365.685 273.376 365.685 273.04C365.685 272.853 365.633 272.685 365.531 272.536C365.428 272.387 365.241 272.237 364.971 272.088C364.709 271.939 364.331 271.771 363.837 271.584C363.351 271.397 362.936 271.211 362.591 271.024C362.245 270.837 361.979 270.613 361.793 270.352C361.606 270.091 361.513 269.755 361.513 269.344C361.513 268.709 361.769 268.219 362.283 267.874C362.805 267.529 363.487 267.356 364.327 267.356C364.784 267.356 365.209 267.403 365.601 267.496C366.002 267.589 366.375 267.711 366.721 267.86L366.301 268.84C365.983 268.709 365.652 268.597 365.307 268.504C364.961 268.411 364.607 268.364 364.243 268.364C363.739 268.364 363.351 268.448 363.081 268.616C362.819 268.775 362.689 268.994 362.689 269.274C362.689 269.489 362.749 269.666 362.871 269.806C362.992 269.946 363.193 270.086 363.473 270.226C363.762 270.366 364.145 270.525 364.621 270.702C365.097 270.879 365.503 271.061 365.839 271.248C366.175 271.435 366.431 271.663 366.609 271.934C366.786 272.195 366.875 272.527 366.875 272.928ZM380.501 269.904C380.501 271.593 380.039 272.867 379.115 273.726C378.2 274.575 376.921 275 375.279 275H372.493V265.004H375.573C376.571 265.004 377.439 265.191 378.177 265.564C378.923 265.937 379.497 266.488 379.899 267.216C380.3 267.944 380.501 268.84 380.501 269.904ZM379.171 269.946C379.171 268.611 378.839 267.636 378.177 267.02C377.523 266.395 376.595 266.082 375.391 266.082H373.753V273.922H375.111C377.817 273.922 379.171 272.597 379.171 269.946ZM385.449 267.356C386.084 267.356 386.635 267.496 387.101 267.776C387.568 268.056 387.923 268.453 388.165 268.966C388.417 269.47 388.543 270.063 388.543 270.744V271.486H383.405C383.424 272.335 383.639 272.984 384.049 273.432C384.469 273.871 385.053 274.09 385.799 274.09C386.275 274.09 386.695 274.048 387.059 273.964C387.433 273.871 387.815 273.74 388.207 273.572V274.65C387.825 274.818 387.447 274.939 387.073 275.014C386.7 275.098 386.257 275.14 385.743 275.14C385.025 275.14 384.395 274.995 383.853 274.706C383.312 274.417 382.887 273.987 382.579 273.418C382.281 272.849 382.131 272.144 382.131 271.304C382.131 270.483 382.267 269.778 382.537 269.19C382.817 268.602 383.205 268.149 383.699 267.832C384.203 267.515 384.787 267.356 385.449 267.356ZM385.435 268.364C384.847 268.364 384.381 268.555 384.035 268.938C383.699 269.311 383.499 269.834 383.433 270.506H387.255C387.246 269.871 387.097 269.358 386.807 268.966C386.518 268.565 386.061 268.364 385.435 268.364ZM394.024 267.356C394.948 267.356 395.69 267.678 396.25 268.322C396.819 268.966 397.104 269.937 397.104 271.234C397.104 272.513 396.819 273.483 396.25 274.146C395.69 274.809 394.943 275.14 394.01 275.14C393.431 275.14 392.95 275.033 392.568 274.818C392.194 274.603 391.9 274.347 391.686 274.048H391.602C391.611 274.207 391.625 274.407 391.644 274.65C391.672 274.893 391.686 275.103 391.686 275.28V278.36H390.454V267.496H391.462L391.63 268.518H391.686C391.91 268.191 392.204 267.916 392.568 267.692C392.932 267.468 393.417 267.356 394.024 267.356ZM393.8 268.392C393.034 268.392 392.493 268.607 392.176 269.036C391.858 269.465 391.695 270.119 391.686 270.996V271.234C391.686 272.158 391.835 272.872 392.134 273.376C392.442 273.871 393.006 274.118 393.828 274.118C394.276 274.118 394.649 273.997 394.948 273.754C395.246 273.502 395.466 273.157 395.606 272.718C395.755 272.279 395.83 271.78 395.83 271.22C395.83 270.361 395.662 269.675 395.326 269.162C394.999 268.649 394.49 268.392 393.8 268.392ZM401.909 267.37C402.824 267.37 403.5 267.571 403.939 267.972C404.378 268.373 404.597 269.013 404.597 269.89V275H403.701L403.463 273.936H403.407C403.08 274.347 402.735 274.65 402.371 274.846C402.007 275.042 401.512 275.14 400.887 275.14C400.206 275.14 399.641 274.963 399.193 274.608C398.745 274.244 398.521 273.679 398.521 272.914C398.521 272.167 398.815 271.593 399.403 271.192C399.991 270.781 400.896 270.557 402.119 270.52L403.393 270.478V270.03C403.393 269.405 403.258 268.971 402.987 268.728C402.716 268.485 402.334 268.364 401.839 268.364C401.447 268.364 401.074 268.425 400.719 268.546C400.364 268.658 400.033 268.789 399.725 268.938L399.347 268.014C399.674 267.837 400.061 267.687 400.509 267.566C400.957 267.435 401.424 267.37 401.909 267.37ZM403.379 271.332L402.273 271.374C401.34 271.411 400.691 271.561 400.327 271.822C399.972 272.083 399.795 272.452 399.795 272.928C399.795 273.348 399.921 273.656 400.173 273.852C400.434 274.048 400.766 274.146 401.167 274.146C401.792 274.146 402.315 273.973 402.735 273.628C403.164 273.273 403.379 272.732 403.379 272.004V271.332ZM410.415 267.356C410.555 267.356 410.704 267.365 410.863 267.384C411.021 267.393 411.166 267.412 411.297 267.44L411.143 268.574C411.021 268.546 410.886 268.523 410.737 268.504C410.587 268.485 410.452 268.476 410.331 268.476C409.948 268.476 409.589 268.583 409.253 268.798C408.917 269.003 408.646 269.297 408.441 269.68C408.245 270.053 408.147 270.492 408.147 270.996V275H406.915V267.496H407.923L408.063 268.868H408.119C408.352 268.457 408.66 268.103 409.043 267.804C409.435 267.505 409.892 267.356 410.415 267.356ZM415.204 274.132C415.39 274.132 415.582 274.118 415.778 274.09C415.974 274.062 416.132 274.025 416.254 273.978V274.916C416.123 274.981 415.936 275.033 415.694 275.07C415.451 275.117 415.218 275.14 414.994 275.14C414.602 275.14 414.238 275.075 413.902 274.944C413.575 274.804 413.309 274.566 413.104 274.23C412.898 273.894 412.796 273.423 412.796 272.816V268.448H411.732V267.86L412.81 267.37L413.3 265.774H414.028V267.496H416.198V268.448H414.028V272.788C414.028 273.245 414.135 273.586 414.35 273.81C414.574 274.025 414.858 274.132 415.204 274.132ZM425.988 267.356C426.838 267.356 427.472 267.575 427.892 268.014C428.312 268.453 428.522 269.153 428.522 270.114V275H427.304V270.17C427.304 268.985 426.796 268.392 425.778 268.392C425.05 268.392 424.528 268.602 424.21 269.022C423.902 269.442 423.748 270.053 423.748 270.856V275H422.53V270.17C422.53 268.985 422.017 268.392 420.99 268.392C420.234 268.392 419.712 268.625 419.422 269.092C419.133 269.559 418.988 270.231 418.988 271.108V275H417.756V267.496H418.75L418.932 268.518H419.002C419.236 268.126 419.548 267.837 419.94 267.65C420.342 267.454 420.766 267.356 421.214 267.356C422.39 267.356 423.156 267.776 423.51 268.616H423.58C423.832 268.187 424.173 267.869 424.602 267.664C425.032 267.459 425.494 267.356 425.988 267.356ZM433.738 267.356C434.373 267.356 434.924 267.496 435.39 267.776C435.857 268.056 436.212 268.453 436.454 268.966C436.706 269.47 436.832 270.063 436.832 270.744V271.486H431.694C431.713 272.335 431.928 272.984 432.338 273.432C432.758 273.871 433.342 274.09 434.088 274.09C434.564 274.09 434.984 274.048 435.348 273.964C435.722 273.871 436.104 273.74 436.496 273.572V274.65C436.114 274.818 435.736 274.939 435.362 275.014C434.989 275.098 434.546 275.14 434.032 275.14C433.314 275.14 432.684 274.995 432.142 274.706C431.601 274.417 431.176 273.987 430.868 273.418C430.57 272.849 430.42 272.144 430.42 271.304C430.42 270.483 430.556 269.778 430.826 269.19C431.106 268.602 431.494 268.149 431.988 267.832C432.492 267.515 433.076 267.356 433.738 267.356ZM433.724 268.364C433.136 268.364 432.67 268.555 432.324 268.938C431.988 269.311 431.788 269.834 431.722 270.506H435.544C435.535 269.871 435.386 269.358 435.096 268.966C434.807 268.565 434.35 268.364 433.724 268.364ZM442.355 267.356C443.251 267.356 443.927 267.575 444.385 268.014C444.842 268.453 445.071 269.153 445.071 270.114V275H443.853V270.198C443.853 268.994 443.293 268.392 442.173 268.392C441.342 268.392 440.768 268.625 440.451 269.092C440.133 269.559 439.975 270.231 439.975 271.108V275H438.743V267.496H439.737L439.919 268.518H439.989C440.231 268.126 440.567 267.837 440.997 267.65C441.426 267.454 441.879 267.356 442.355 267.356ZM449.903 274.132C450.09 274.132 450.281 274.118 450.477 274.09C450.673 274.062 450.832 274.025 450.953 273.978V274.916C450.822 274.981 450.636 275.033 450.393 275.07C450.15 275.117 449.917 275.14 449.693 275.14C449.301 275.14 448.937 275.075 448.601 274.944C448.274 274.804 448.008 274.566 447.803 274.23C447.598 273.894 447.495 273.423 447.495 272.816V268.448H446.431V267.86L447.509 267.37L447.999 265.774H448.727V267.496H450.897V268.448H448.727V272.788C448.727 273.245 448.834 273.586 449.049 273.81C449.273 274.025 449.558 274.132 449.903 274.132Z" fill="black"/>
</g>
<rect x="284.5" y="127.5" width="255" height="161" rx="4.5" stroke="black" stroke-opacity="0.15"/>
</g>
<g filter="url(#filter2_d_8122_329004)">
<rect x="540" y="218" width="254" height="108" rx="4" fill="white"/>
<path d="M558.08 235.988C558.08 237.211 557.833 238.256 557.338 239.124C556.853 239.983 556.129 240.571 555.168 240.888L557.562 243.38H555.756L553.824 241.126C553.768 241.126 553.707 241.126 553.642 241.126C553.586 241.135 553.53 241.14 553.474 241.14C552.438 241.14 551.575 240.925 550.884 240.496C550.203 240.067 549.694 239.465 549.358 238.69C549.022 237.915 548.854 237.01 548.854 235.974C548.854 234.957 549.022 234.065 549.358 233.3C549.694 232.525 550.203 231.923 550.884 231.494C551.575 231.065 552.443 230.85 553.488 230.85C554.487 230.85 555.327 231.065 556.008 231.494C556.689 231.914 557.203 232.511 557.548 233.286C557.903 234.051 558.08 234.952 558.08 235.988ZM550.184 235.988C550.184 237.248 550.45 238.242 550.982 238.97C551.514 239.689 552.345 240.048 553.474 240.048C554.603 240.048 555.429 239.689 555.952 238.97C556.484 238.242 556.75 237.248 556.75 235.988C556.75 234.728 556.489 233.743 555.966 233.034C555.443 232.315 554.617 231.956 553.488 231.956C552.349 231.956 551.514 232.315 550.982 233.034C550.45 233.743 550.184 234.728 550.184 235.988ZM566.4 233.496V241H565.392L565.21 240.006H565.154C564.911 240.398 564.575 240.687 564.146 240.874C563.716 241.051 563.259 241.14 562.774 241.14C561.868 241.14 561.187 240.925 560.73 240.496C560.272 240.057 560.044 239.362 560.044 238.41V233.496H561.29V238.326C561.29 239.521 561.845 240.118 562.956 240.118C563.786 240.118 564.36 239.885 564.678 239.418C565.004 238.951 565.168 238.279 565.168 237.402V233.496H566.4ZM575.306 237.234C575.306 238.475 574.988 239.437 574.354 240.118C573.728 240.799 572.879 241.14 571.806 241.14C571.143 241.14 570.55 240.991 570.028 240.692C569.514 240.384 569.108 239.941 568.81 239.362C568.511 238.774 568.362 238.065 568.362 237.234C568.362 235.993 568.67 235.036 569.286 234.364C569.911 233.692 570.765 233.356 571.848 233.356C572.52 233.356 573.117 233.51 573.64 233.818C574.162 234.117 574.568 234.555 574.858 235.134C575.156 235.703 575.306 236.403 575.306 237.234ZM569.636 237.234C569.636 238.121 569.808 238.825 570.154 239.348C570.508 239.861 571.068 240.118 571.834 240.118C572.59 240.118 573.145 239.861 573.5 239.348C573.854 238.825 574.032 238.121 574.032 237.234C574.032 236.347 573.854 235.652 573.5 235.148C573.145 234.644 572.585 234.392 571.82 234.392C571.054 234.392 570.499 234.644 570.154 235.148C569.808 235.652 569.636 236.347 569.636 237.234ZM579.764 240.132C579.951 240.132 580.142 240.118 580.338 240.09C580.534 240.062 580.693 240.025 580.814 239.978V240.916C580.684 240.981 580.497 241.033 580.254 241.07C580.012 241.117 579.778 241.14 579.554 241.14C579.162 241.14 578.798 241.075 578.462 240.944C578.136 240.804 577.87 240.566 577.664 240.23C577.459 239.894 577.356 239.423 577.356 238.816V234.448H576.292V233.86L577.37 233.37L577.86 231.774H578.588V233.496H580.758V234.448H578.588V238.788C578.588 239.245 578.696 239.586 578.91 239.81C579.134 240.025 579.419 240.132 579.764 240.132ZM585.215 233.356C585.85 233.356 586.4 233.496 586.867 233.776C587.334 234.056 587.688 234.453 587.931 234.966C588.183 235.47 588.309 236.063 588.309 236.744V237.486H583.171C583.19 238.335 583.404 238.984 583.815 239.432C584.235 239.871 584.818 240.09 585.565 240.09C586.041 240.09 586.461 240.048 586.825 239.964C587.198 239.871 587.581 239.74 587.973 239.572V240.65C587.59 240.818 587.212 240.939 586.839 241.014C586.466 241.098 586.022 241.14 585.509 241.14C584.79 241.14 584.16 240.995 583.619 240.706C583.078 240.417 582.653 239.987 582.345 239.418C582.046 238.849 581.897 238.144 581.897 237.304C581.897 236.483 582.032 235.778 582.303 235.19C582.583 234.602 582.97 234.149 583.465 233.832C583.969 233.515 584.552 233.356 585.215 233.356ZM585.201 234.364C584.613 234.364 584.146 234.555 583.801 234.938C583.465 235.311 583.264 235.834 583.199 236.506H587.021C587.012 235.871 586.862 235.358 586.573 234.966C586.284 234.565 585.826 234.364 585.201 234.364ZM595.105 238.928C595.105 239.656 594.835 240.207 594.293 240.58C593.752 240.953 593.024 241.14 592.109 241.14C591.587 241.14 591.134 241.098 590.751 241.014C590.378 240.93 590.047 240.813 589.757 240.664V239.544C590.056 239.693 590.415 239.833 590.835 239.964C591.265 240.085 591.699 240.146 592.137 240.146C592.763 240.146 593.215 240.048 593.495 239.852C593.775 239.647 593.915 239.376 593.915 239.04C593.915 238.853 593.864 238.685 593.761 238.536C593.659 238.387 593.472 238.237 593.201 238.088C592.94 237.939 592.562 237.771 592.067 237.584C591.582 237.397 591.167 237.211 590.821 237.024C590.476 236.837 590.21 236.613 590.023 236.352C589.837 236.091 589.743 235.755 589.743 235.344C589.743 234.709 590 234.219 590.513 233.874C591.036 233.529 591.717 233.356 592.557 233.356C593.015 233.356 593.439 233.403 593.831 233.496C594.233 233.589 594.606 233.711 594.951 233.86L594.531 234.84C594.214 234.709 593.883 234.597 593.537 234.504C593.192 234.411 592.837 234.364 592.473 234.364C591.969 234.364 591.582 234.448 591.311 234.616C591.05 234.775 590.919 234.994 590.919 235.274C590.919 235.489 590.98 235.666 591.101 235.806C591.223 235.946 591.423 236.086 591.703 236.226C591.993 236.366 592.375 236.525 592.851 236.702C593.327 236.879 593.733 237.061 594.069 237.248C594.405 237.435 594.662 237.663 594.839 237.934C595.017 238.195 595.105 238.527 595.105 238.928Z" fill="black"/>
<path d="M555.028 274.326C555.028 275.213 554.706 275.903 554.062 276.398C553.418 276.893 552.55 277.14 551.458 277.14C550.898 277.14 550.38 277.098 549.904 277.014C549.428 276.93 549.031 276.813 548.714 276.664V275.46C549.05 275.609 549.465 275.745 549.96 275.866C550.464 275.987 550.982 276.048 551.514 276.048C552.251 276.048 552.811 275.903 553.194 275.614C553.577 275.325 553.768 274.933 553.768 274.438C553.768 274.111 553.698 273.836 553.558 273.612C553.418 273.388 553.175 273.183 552.83 272.996C552.485 272.809 552.013 272.604 551.416 272.38C550.557 272.072 549.913 271.694 549.484 271.246C549.055 270.798 548.84 270.187 548.84 269.412C548.84 268.889 548.975 268.437 549.246 268.054C549.517 267.671 549.89 267.377 550.366 267.172C550.842 266.967 551.397 266.864 552.032 266.864C552.573 266.864 553.073 266.915 553.53 267.018C553.987 267.121 554.407 267.256 554.79 267.424L554.398 268.502C554.053 268.353 553.675 268.227 553.264 268.124C552.853 268.021 552.433 267.97 552.004 267.97C551.379 267.97 550.907 268.105 550.59 268.376C550.273 268.637 550.114 268.987 550.114 269.426C550.114 269.762 550.184 270.042 550.324 270.266C550.464 270.49 550.693 270.695 551.01 270.882C551.327 271.059 551.757 271.246 552.298 271.442C552.886 271.657 553.381 271.89 553.782 272.142C554.193 272.385 554.501 272.679 554.706 273.024C554.921 273.369 555.028 273.803 555.028 274.326ZM559.716 269.37C560.63 269.37 561.307 269.571 561.746 269.972C562.184 270.373 562.404 271.013 562.404 271.89V277H561.508L561.27 275.936H561.214C560.887 276.347 560.542 276.65 560.178 276.846C559.814 277.042 559.319 277.14 558.694 277.14C558.012 277.14 557.448 276.963 557 276.608C556.552 276.244 556.328 275.679 556.328 274.914C556.328 274.167 556.622 273.593 557.21 273.192C557.798 272.781 558.703 272.557 559.926 272.52L561.2 272.478V272.03C561.2 271.405 561.064 270.971 560.794 270.728C560.523 270.485 560.14 270.364 559.646 270.364C559.254 270.364 558.88 270.425 558.526 270.546C558.171 270.658 557.84 270.789 557.532 270.938L557.154 270.014C557.48 269.837 557.868 269.687 558.316 269.566C558.764 269.435 559.23 269.37 559.716 269.37ZM561.186 273.332L560.08 273.374C559.146 273.411 558.498 273.561 558.134 273.822C557.779 274.083 557.602 274.452 557.602 274.928C557.602 275.348 557.728 275.656 557.98 275.852C558.241 276.048 558.572 276.146 558.974 276.146C559.599 276.146 560.122 275.973 560.542 275.628C560.971 275.273 561.186 274.732 561.186 274.004V273.332ZM565.953 277H564.721V266.36H565.953V277ZM571.229 269.356C571.863 269.356 572.414 269.496 572.881 269.776C573.347 270.056 573.702 270.453 573.945 270.966C574.197 271.47 574.323 272.063 574.323 272.744V273.486H569.185C569.203 274.335 569.418 274.984 569.829 275.432C570.249 275.871 570.832 276.09 571.579 276.09C572.055 276.09 572.475 276.048 572.839 275.964C573.212 275.871 573.595 275.74 573.987 275.572V276.65C573.604 276.818 573.226 276.939 572.853 277.014C572.479 277.098 572.036 277.14 571.523 277.14C570.804 277.14 570.174 276.995 569.633 276.706C569.091 276.417 568.667 275.987 568.359 275.418C568.06 274.849 567.911 274.144 567.911 273.304C567.911 272.483 568.046 271.778 568.317 271.19C568.597 270.602 568.984 270.149 569.479 269.832C569.983 269.515 570.566 269.356 571.229 269.356ZM571.215 270.364C570.627 270.364 570.16 270.555 569.815 270.938C569.479 271.311 569.278 271.834 569.213 272.506H573.035C573.025 271.871 572.876 271.358 572.587 270.966C572.297 270.565 571.84 270.364 571.215 270.364ZM581.119 274.928C581.119 275.656 580.848 276.207 580.307 276.58C579.766 276.953 579.038 277.14 578.123 277.14C577.6 277.14 577.148 277.098 576.765 277.014C576.392 276.93 576.06 276.813 575.771 276.664V275.544C576.07 275.693 576.429 275.833 576.849 275.964C577.278 276.085 577.712 276.146 578.151 276.146C578.776 276.146 579.229 276.048 579.509 275.852C579.789 275.647 579.929 275.376 579.929 275.04C579.929 274.853 579.878 274.685 579.775 274.536C579.672 274.387 579.486 274.237 579.215 274.088C578.954 273.939 578.576 273.771 578.081 273.584C577.596 273.397 577.18 273.211 576.835 273.024C576.49 272.837 576.224 272.613 576.037 272.352C575.85 272.091 575.757 271.755 575.757 271.344C575.757 270.709 576.014 270.219 576.527 269.874C577.05 269.529 577.731 269.356 578.571 269.356C579.028 269.356 579.453 269.403 579.845 269.496C580.246 269.589 580.62 269.711 580.965 269.86L580.545 270.84C580.228 270.709 579.896 270.597 579.551 270.504C579.206 270.411 578.851 270.364 578.487 270.364C577.983 270.364 577.596 270.448 577.325 270.616C577.064 270.775 576.933 270.994 576.933 271.274C576.933 271.489 576.994 271.666 577.115 271.806C577.236 271.946 577.437 272.086 577.717 272.226C578.006 272.366 578.389 272.525 578.865 272.702C579.341 272.879 579.747 273.061 580.083 273.248C580.419 273.435 580.676 273.663 580.853 273.934C581.03 274.195 581.119 274.527 581.119 274.928Z" fill="black"/>
<path d="M555.028 310.326C555.028 311.213 554.706 311.903 554.062 312.398C553.418 312.893 552.55 313.14 551.458 313.14C550.898 313.14 550.38 313.098 549.904 313.014C549.428 312.93 549.031 312.813 548.714 312.664V311.46C549.05 311.609 549.465 311.745 549.96 311.866C550.464 311.987 550.982 312.048 551.514 312.048C552.251 312.048 552.811 311.903 553.194 311.614C553.577 311.325 553.768 310.933 553.768 310.438C553.768 310.111 553.698 309.836 553.558 309.612C553.418 309.388 553.175 309.183 552.83 308.996C552.485 308.809 552.013 308.604 551.416 308.38C550.557 308.072 549.913 307.694 549.484 307.246C549.055 306.798 548.84 306.187 548.84 305.412C548.84 304.889 548.975 304.437 549.246 304.054C549.517 303.671 549.89 303.377 550.366 303.172C550.842 302.967 551.397 302.864 552.032 302.864C552.573 302.864 553.073 302.915 553.53 303.018C553.987 303.121 554.407 303.256 554.79 303.424L554.398 304.502C554.053 304.353 553.675 304.227 553.264 304.124C552.853 304.021 552.433 303.97 552.004 303.97C551.379 303.97 550.907 304.105 550.59 304.376C550.273 304.637 550.114 304.987 550.114 305.426C550.114 305.762 550.184 306.042 550.324 306.266C550.464 306.49 550.693 306.695 551.01 306.882C551.327 307.059 551.757 307.246 552.298 307.442C552.886 307.657 553.381 307.89 553.782 308.142C554.193 308.385 554.501 308.679 554.706 309.024C554.921 309.369 555.028 309.803 555.028 310.326ZM563.146 305.496V313H562.138L561.956 312.006H561.9C561.657 312.398 561.321 312.687 560.892 312.874C560.462 313.051 560.005 313.14 559.52 313.14C558.614 313.14 557.933 312.925 557.476 312.496C557.018 312.057 556.79 311.362 556.79 310.41V305.496H558.036V310.326C558.036 311.521 558.591 312.118 559.702 312.118C560.532 312.118 561.106 311.885 561.424 311.418C561.75 310.951 561.914 310.279 561.914 309.402V305.496H563.146ZM569.098 305.356C570.022 305.356 570.764 305.678 571.324 306.322C571.893 306.966 572.178 307.937 572.178 309.234C572.178 310.513 571.893 311.483 571.324 312.146C570.764 312.809 570.017 313.14 569.084 313.14C568.505 313.14 568.025 313.033 567.642 312.818C567.269 312.603 566.975 312.347 566.76 312.048H566.676C566.685 312.207 566.699 312.407 566.718 312.65C566.746 312.893 566.76 313.103 566.76 313.28V316.36H565.528V305.496H566.536L566.704 306.518H566.76C566.984 306.191 567.278 305.916 567.642 305.692C568.006 305.468 568.491 305.356 569.098 305.356ZM568.874 306.392C568.109 306.392 567.567 306.607 567.25 307.036C566.933 307.465 566.769 308.119 566.76 308.996V309.234C566.76 310.158 566.909 310.872 567.208 311.376C567.516 311.871 568.081 312.118 568.902 312.118C569.35 312.118 569.723 311.997 570.022 311.754C570.321 311.502 570.54 311.157 570.68 310.718C570.829 310.279 570.904 309.78 570.904 309.22C570.904 308.361 570.736 307.675 570.4 307.162C570.073 306.649 569.565 306.392 568.874 306.392ZM577.711 305.356C578.635 305.356 579.377 305.678 579.937 306.322C580.507 306.966 580.791 307.937 580.791 309.234C580.791 310.513 580.507 311.483 579.937 312.146C579.377 312.809 578.631 313.14 577.697 313.14C577.119 313.14 576.638 313.033 576.255 312.818C575.882 312.603 575.588 312.347 575.373 312.048H575.289C575.299 312.207 575.313 312.407 575.331 312.65C575.359 312.893 575.373 313.103 575.373 313.28V316.36H574.141V305.496H575.149L575.317 306.518H575.373C575.597 306.191 575.891 305.916 576.255 305.692C576.619 305.468 577.105 305.356 577.711 305.356ZM577.487 306.392C576.722 306.392 576.181 306.607 575.863 307.036C575.546 307.465 575.383 308.119 575.373 308.996V309.234C575.373 310.158 575.523 310.872 575.821 311.376C576.129 311.871 576.694 312.118 577.515 312.118C577.963 312.118 578.337 311.997 578.635 311.754C578.934 311.502 579.153 311.157 579.293 310.718C579.443 310.279 579.517 309.78 579.517 309.22C579.517 308.361 579.349 307.675 579.013 307.162C578.687 306.649 578.178 306.392 577.487 306.392ZM589.278 309.234C589.278 310.475 588.961 311.437 588.326 312.118C587.701 312.799 586.852 313.14 585.778 313.14C585.116 313.14 584.523 312.991 584 312.692C583.487 312.384 583.081 311.941 582.782 311.362C582.484 310.774 582.334 310.065 582.334 309.234C582.334 307.993 582.642 307.036 583.258 306.364C583.884 305.692 584.738 305.356 585.82 305.356C586.492 305.356 587.09 305.51 587.612 305.818C588.135 306.117 588.541 306.555 588.83 307.134C589.129 307.703 589.278 308.403 589.278 309.234ZM583.608 309.234C583.608 310.121 583.781 310.825 584.126 311.348C584.481 311.861 585.041 312.118 585.806 312.118C586.562 312.118 587.118 311.861 587.472 311.348C587.827 310.825 588.004 310.121 588.004 309.234C588.004 308.347 587.827 307.652 587.472 307.148C587.118 306.644 586.558 306.392 585.792 306.392C585.027 306.392 584.472 306.644 584.126 307.148C583.781 307.652 583.608 308.347 583.608 309.234ZM594.731 305.356C594.871 305.356 595.02 305.365 595.179 305.384C595.338 305.393 595.482 305.412 595.613 305.44L595.459 306.574C595.338 306.546 595.202 306.523 595.053 306.504C594.904 306.485 594.768 306.476 594.647 306.476C594.264 306.476 593.905 306.583 593.569 306.798C593.233 307.003 592.962 307.297 592.757 307.68C592.561 308.053 592.463 308.492 592.463 308.996V313H591.231V305.496H592.239L592.379 306.868H592.435C592.668 306.457 592.976 306.103 593.359 305.804C593.751 305.505 594.208 305.356 594.731 305.356ZM599.52 312.132C599.707 312.132 599.898 312.118 600.094 312.09C600.29 312.062 600.449 312.025 600.57 311.978V312.916C600.44 312.981 600.253 313.033 600.01 313.07C599.768 313.117 599.534 313.14 599.31 313.14C598.918 313.14 598.554 313.075 598.218 312.944C597.892 312.804 597.626 312.566 597.42 312.23C597.215 311.894 597.112 311.423 597.112 310.816V306.448H596.048V305.86L597.126 305.37L597.616 303.774H598.344V305.496H600.514V306.448H598.344V310.788C598.344 311.245 598.452 311.586 598.666 311.81C598.89 312.025 599.175 312.132 599.52 312.132Z" fill="black"/>
<rect x="539.5" y="217.5" width="255" height="109" rx="4.5" stroke="black" stroke-opacity="0.15"/>
</g>
<rect x="30" y="40" width="98" height="36" rx="2" fill="#1B77AF"/>
<path d="M53.63 63L52.426 59.906H48.464L47.274 63H46L49.906 52.962H51.04L54.932 63H53.63ZM52.048 58.786L50.928 55.762C50.9 55.6873 50.8533 55.552 50.788 55.356C50.7227 55.16 50.6573 54.9593 50.592 54.754C50.536 54.5393 50.4893 54.376 50.452 54.264C50.3773 54.5533 50.298 54.838 50.214 55.118C50.1393 55.3887 50.074 55.6033 50.018 55.762L48.884 58.786H52.048ZM59.1414 63.14C58.4694 63.14 57.8767 63.0047 57.3634 62.734C56.8501 62.4633 56.4441 62.0433 56.1454 61.474C55.8561 60.9047 55.7114 60.1767 55.7114 59.29C55.7114 58.366 55.8607 57.6147 56.1594 57.036C56.4674 56.4573 56.8874 56.0327 57.4194 55.762C57.9514 55.4913 58.5534 55.356 59.2254 55.356C59.5987 55.356 59.9627 55.398 60.3174 55.482C60.6814 55.5567 60.9754 55.65 61.1994 55.762L60.8214 56.784C60.5974 56.7 60.3361 56.6207 60.0374 56.546C59.7387 56.4713 59.4587 56.434 59.1974 56.434C57.7227 56.434 56.9854 57.3813 56.9854 59.276C56.9854 60.1813 57.1627 60.8767 57.5174 61.362C57.8814 61.838 58.4181 62.076 59.1274 62.076C59.5287 62.076 59.8881 62.034 60.2054 61.95C60.5227 61.866 60.8121 61.7633 61.0734 61.642V62.734C60.8214 62.8647 60.5414 62.9627 60.2334 63.028C59.9347 63.1027 59.5707 63.14 59.1414 63.14ZM65.364 62.132C65.5506 62.132 65.742 62.118 65.938 62.09C66.134 62.062 66.2926 62.0247 66.414 61.978V62.916C66.2833 62.9813 66.0966 63.0327 65.854 63.07C65.6113 63.1167 65.378 63.14 65.154 63.14C64.762 63.14 64.398 63.0747 64.062 62.944C63.7353 62.804 63.4693 62.566 63.264 62.23C63.0586 61.894 62.956 61.4227 62.956 60.816V56.448H61.892V55.86L62.97 55.37L63.46 53.774H64.188V55.496H66.358V56.448H64.188V60.788C64.188 61.2453 64.2953 61.586 64.51 61.81C64.734 62.0247 65.0186 62.132 65.364 62.132ZM68.5466 52.682C68.7332 52.682 68.8966 52.7473 69.0366 52.878C69.1859 52.9993 69.2606 53.1953 69.2606 53.466C69.2606 53.7367 69.1859 53.9373 69.0366 54.068C68.8966 54.1893 68.7332 54.25 68.5466 54.25C68.3412 54.25 68.1686 54.1893 68.0286 54.068C67.8886 53.9373 67.8186 53.7367 67.8186 53.466C67.8186 53.1953 67.8886 52.9993 68.0286 52.878C68.1686 52.7473 68.3412 52.682 68.5466 52.682ZM69.1486 55.496V63H67.9166V55.496H69.1486ZM78.0499 59.234C78.0499 60.4753 77.7326 61.4367 77.0979 62.118C76.4726 62.7993 75.6233 63.14 74.5499 63.14C73.8873 63.14 73.2946 62.9907 72.7719 62.692C72.2586 62.384 71.8526 61.9407 71.5539 61.362C71.2553 60.774 71.1059 60.0647 71.1059 59.234C71.1059 57.9927 71.4139 57.036 72.0299 56.364C72.6553 55.692 73.5093 55.356 74.5919 55.356C75.2639 55.356 75.8613 55.51 76.3839 55.818C76.9066 56.1167 77.3126 56.5553 77.6019 57.134C77.9006 57.7033 78.0499 58.4033 78.0499 59.234ZM72.3799 59.234C72.3799 60.1207 72.5526 60.8253 72.8979 61.348C73.2526 61.8613 73.8126 62.118 74.5779 62.118C75.3339 62.118 75.8893 61.8613 76.2439 61.348C76.5986 60.8253 76.7759 60.1207 76.7759 59.234C76.7759 58.3473 76.5986 57.652 76.2439 57.148C75.8893 56.644 75.3293 56.392 74.5639 56.392C73.7986 56.392 73.2433 56.644 72.8979 57.148C72.5526 57.652 72.3799 58.3473 72.3799 59.234ZM83.6145 55.356C84.5105 55.356 85.1872 55.5753 85.6445 56.014C86.1018 56.4527 86.3305 57.1527 86.3305 58.114V63H85.1125V58.198C85.1125 56.994 84.5525 56.392 83.4325 56.392C82.6018 56.392 82.0278 56.6253 81.7105 57.092C81.3932 57.5587 81.2345 58.2307 81.2345 59.108V63H80.0025V55.496H80.9965L81.1785 56.518H81.2485C81.4912 56.126 81.8272 55.8367 82.2565 55.65C82.6858 55.454 83.1385 55.356 83.6145 55.356Z" fill="white"/>
<path d="M104.012 61.3625C103.912 61.3625 103.812 61.3125 103.762 61.2625L98.1125 55.6625C97.9625 55.5125 97.9625 55.2625 98.1125 55.1125C98.2625 54.9625 98.5125 54.9625 98.6625 55.1125L104.012 60.4625L109.312 55.1125C109.462 54.9625 109.713 54.9625 109.863 55.1125C110.012 55.2625 110.012 55.5125 109.863 55.6625L104.262 61.2625C104.162 61.3125 104.112 61.3625 104.012 61.3625Z" fill="white"/>
<circle cx="157" cy="362" r="12" fill="#D51588"/>
<path d="M158.968 367H157.204V360.77C157.204 360.471 157.209 360.154 157.218 359.818C157.227 359.482 157.241 359.169 157.26 358.88C157.167 358.973 157.05 359.085 156.91 359.216C156.779 359.347 156.635 359.473 156.476 359.594L155.356 360.49L154.474 359.398L157.498 357.004H158.968V367Z" fill="white"/>
<circle cx="412" cy="362" r="12" fill="#D51588"/>
<path d="M415.942 367H409.096V365.698L411.644 363.122C412.148 362.609 412.559 362.17 412.876 361.806C413.203 361.442 413.441 361.101 413.59 360.784C413.749 360.457 413.828 360.107 413.828 359.734C413.828 359.277 413.697 358.936 413.436 358.712C413.184 358.479 412.839 358.362 412.4 358.362C411.98 358.362 411.588 358.451 411.224 358.628C410.86 358.796 410.482 359.039 410.09 359.356L409.124 358.194C409.535 357.839 409.997 357.531 410.51 357.27C411.033 356.999 411.695 356.864 412.498 356.864C413.142 356.864 413.693 356.981 414.15 357.214C414.617 357.438 414.976 357.755 415.228 358.166C415.48 358.567 415.606 359.029 415.606 359.552C415.606 360.093 415.499 360.593 415.284 361.05C415.069 361.498 414.757 361.951 414.346 362.408C413.945 362.856 413.464 363.341 412.904 363.864L411.322 365.39V365.474H415.942V367Z" fill="white"/>
<circle cx="667" cy="362" r="12" fill="#D51588"/>
<path d="M670.55 359.286C670.55 359.967 670.349 360.513 669.948 360.924C669.556 361.325 669.047 361.596 668.422 361.736V361.778C669.225 361.881 669.831 362.133 670.242 362.534C670.653 362.935 670.858 363.463 670.858 364.116C670.858 364.695 670.718 365.213 670.438 365.67C670.158 366.127 669.724 366.487 669.136 366.748C668.557 367.009 667.811 367.14 666.896 367.14C666.345 367.14 665.837 367.093 665.37 367C664.913 366.916 664.479 366.781 664.068 366.594V365.04C664.488 365.255 664.936 365.418 665.412 365.53C665.888 365.642 666.336 365.698 666.756 365.698C667.568 365.698 668.142 365.553 668.478 365.264C668.814 364.965 668.982 364.555 668.982 364.032C668.982 363.537 668.786 363.169 668.394 362.926C668.002 362.683 667.349 362.562 666.434 362.562H665.594V361.148H666.448C667.335 361.148 667.946 361.003 668.282 360.714C668.618 360.425 668.786 360.051 668.786 359.594C668.786 359.193 668.655 358.88 668.394 358.656C668.133 358.432 667.741 358.32 667.218 358.32C666.714 358.32 666.28 358.404 665.916 358.572C665.552 358.731 665.225 358.903 664.936 359.09L664.096 357.872C664.479 357.592 664.931 357.354 665.454 357.158C665.977 356.962 666.593 356.864 667.302 356.864C668.338 356.864 669.136 357.083 669.696 357.522C670.265 357.961 670.55 358.549 670.55 359.286Z" fill="white"/>
<path d="M401 362H169" stroke="#D51588" stroke-width="2"/>
<path d="M656 362H423" stroke="#D51588" stroke-width="2"/>
<defs>
<filter id="filter0_d_8122_329004" x="25" y="75" width="264" height="137" filterUnits="userSpaceOnUse" color-interpolation-filters="sRGB">
<feFlood flood-opacity="0" result="BackgroundImageFix"/>
<feColorMatrix in="SourceAlpha" type="matrix" values="0 0 0 0 0 0 0 0 0 0 0 0 0 0 0 0 0 0 127 0" result="hardAlpha"/>
<feOffset dy="4"/>
<feGaussianBlur stdDeviation="2"/>
<feColorMatrix type="matrix" values="0 0 0 0 0 0 0 0 0 0 0 0 0 0 0 0 0 0 0.25 0"/>
<feBlend mode="normal" in2="BackgroundImageFix" result="effect1_dropShadow_8122_329004"/>
<feBlend mode="normal" in="SourceGraphic" in2="effect1_dropShadow_8122_329004" result="shape"/>
</filter>
<filter id="filter1_d_8122_329004" x="280" y="127" width="264" height="170" filterUnits="userSpaceOnUse" color-interpolation-filters="sRGB">
<feFlood flood-opacity="0" result="BackgroundImageFix"/>
<feColorMatrix in="SourceAlpha" type="matrix" values="0 0 0 0 0 0 0 0 0 0 0 0 0 0 0 0 0 0 127 0" result="hardAlpha"/>
<feOffset dy="4"/>
<feGaussianBlur stdDeviation="2"/>
<feColorMatrix type="matrix" values="0 0 0 0 0 0 0 0 0 0 0 0 0 0 0 0 0 0 0.25 0"/>
<feBlend mode="normal" in2="BackgroundImageFix" result="effect1_dropShadow_8122_329004"/>
<feBlend mode="normal" in="SourceGraphic" in2="effect1_dropShadow_8122_329004" result="shape"/>
</filter>
<filter id="filter2_d_8122_329004" x="535" y="217" width="264" height="118" filterUnits="userSpaceOnUse" color-interpolation-filters="sRGB">
<feFlood flood-opacity="0" result="BackgroundImageFix"/>
<feColorMatrix in="SourceAlpha" type="matrix" values="0 0 0 0 0 0 0 0 0 0 0 0 0 0 0 0 0 0 127 0" result="hardAlpha"/>
<feOffset dy="4"/>
<feGaussianBlur stdDeviation="2"/>
<feColorMatrix type="matrix" values="0 0 0 0 0 0 0 0 0 0 0 0 0 0 0 0 0 0 0.25 0"/>
<feBlend mode="normal" in2="BackgroundImageFix" result="effect1_dropShadow_8122_329004"/>
<feBlend mode="normal" in="SourceGraphic" in2="effect1_dropShadow_8122_329004" result="shape"/>
</filter>
<clipPath id="clip0_8122_329004">
<rect x="30" y="76" width="254" height="127" rx="4" fill="white"/>
</clipPath>
<clipPath id="clip1_8122_329004">
<rect x="285" y="128" width="254" height="160" rx="4" fill="white"/>
</clipPath>
</defs>
</svg>
