<svg width="824" height="414" viewBox="0 0 824 414" fill="none" xmlns="http://www.w3.org/2000/svg">
<rect width="824" height="414" fill="white"/>
<g filter="url(#filter0_d_8122_375798)">
<g clip-path="url(#clip0_8122_375798)">
<rect x="284.5" y="128" width="254" height="160" rx="4" fill="white"/>
<rect x="293" y="136.5" width="237" height="35" rx="1.5" fill="white"/>
<path fill-rule="evenodd" clip-rule="evenodd" d="M311.12 147.749C308.43 147.749 306.249 149.93 306.249 152.62C306.249 155.31 308.43 157.491 311.12 157.491C313.81 157.491 315.991 155.31 315.991 152.62C315.991 149.93 313.81 147.749 311.12 147.749ZM305.5 152.62C305.5 149.516 308.016 147 311.12 147C314.224 147 316.74 149.516 316.74 152.62C316.74 155.724 314.224 158.24 311.12 158.24C308.016 158.24 305.5 155.724 305.5 152.62Z" fill="#323232"/>
<path fill-rule="evenodd" clip-rule="evenodd" d="M314.802 156.302C314.948 156.155 315.185 156.155 315.331 156.302L317.18 158.15C317.326 158.296 317.326 158.533 317.18 158.68C317.033 158.826 316.796 158.826 316.65 158.68L314.802 156.831C314.655 156.685 314.655 156.448 314.802 156.302Z" fill="#323232"/>
<path fill-rule="evenodd" clip-rule="evenodd" d="M317.949 158.73C317.745 158.526 317.433 158.526 317.23 158.73C317.026 158.933 317.026 159.245 317.23 159.449L317.879 160.098C317.886 160.105 317.892 160.112 317.899 160.119C318.038 160.282 318.382 160.314 318.598 160.098C318.802 159.895 318.802 159.582 318.598 159.379L317.949 158.73ZM316.7 158.2C317.196 157.704 317.983 157.704 318.479 158.2L319.128 158.849C319.624 159.345 319.624 160.132 319.128 160.628C318.648 161.108 317.802 161.143 317.34 160.619L316.7 159.979C316.204 159.483 316.204 158.696 316.7 158.2Z" fill="#323232"/>
<path d="M331.09 159.14C330.605 159.14 330.175 159.103 329.802 159.028C329.438 158.953 329.093 158.841 328.766 158.692V157.46C329.046 157.609 329.377 157.745 329.76 157.866C330.152 157.987 330.6 158.048 331.104 158.048C331.524 158.048 331.911 157.983 332.266 157.852C332.621 157.721 332.905 157.521 333.12 157.25C333.335 156.979 333.442 156.629 333.442 156.2C333.442 155.827 333.316 155.509 333.064 155.248C332.821 154.977 332.397 154.669 331.79 154.324C331.435 154.119 331.118 153.899 330.838 153.666C330.567 153.433 330.353 153.167 330.194 152.868C330.045 152.569 329.97 152.201 329.97 151.762C329.97 151.146 330.119 150.623 330.418 150.194C330.717 149.755 331.113 149.424 331.608 149.2C332.112 148.976 332.663 148.864 333.26 148.864C333.783 148.864 334.24 148.915 334.632 149.018C335.033 149.121 335.411 149.265 335.766 149.452L335.29 150.516C335.047 150.385 334.744 150.264 334.38 150.152C334.016 150.031 333.643 149.97 333.26 149.97C332.681 149.97 332.21 150.119 331.846 150.418C331.482 150.717 331.3 151.137 331.3 151.678C331.3 151.967 331.351 152.205 331.454 152.392C331.557 152.579 331.715 152.751 331.93 152.91C332.145 153.069 332.411 153.241 332.728 153.428C333.129 153.671 333.479 153.909 333.778 154.142C334.086 154.375 334.324 154.646 334.492 154.954C334.669 155.262 334.758 155.645 334.758 156.102C334.758 157.101 334.422 157.857 333.75 158.37C333.087 158.883 332.201 159.14 331.09 159.14ZM338.956 159.14C338.088 159.14 337.416 158.888 336.94 158.384C336.474 157.871 336.24 157.18 336.24 156.312C336.24 155.715 336.324 155.127 336.492 154.548C336.67 153.96 336.922 153.428 337.248 152.952C337.575 152.467 337.967 152.079 338.424 151.79C338.891 151.501 339.414 151.356 339.992 151.356C340.702 151.356 341.234 151.51 341.588 151.818C341.952 152.126 342.134 152.555 342.134 153.106C342.134 153.601 341.98 154.049 341.672 154.45C341.374 154.842 340.902 155.159 340.258 155.402C339.614 155.635 338.779 155.752 337.752 155.752H337.514C337.505 155.836 337.496 155.925 337.486 156.018C337.486 156.111 337.486 156.195 337.486 156.27C337.486 156.839 337.622 157.292 337.892 157.628C338.172 157.955 338.602 158.118 339.18 158.118C339.535 158.118 339.871 158.071 340.188 157.978C340.506 157.875 340.851 157.731 341.224 157.544V158.594C340.87 158.753 340.52 158.883 340.174 158.986C339.838 159.089 339.432 159.14 338.956 159.14ZM337.696 154.758H337.794C338.354 154.758 338.872 154.711 339.348 154.618C339.824 154.515 340.207 154.352 340.496 154.128C340.786 153.895 340.93 153.587 340.93 153.204C340.93 152.961 340.846 152.765 340.678 152.616C340.52 152.457 340.268 152.378 339.922 152.378C339.474 152.378 339.04 152.588 338.62 153.008C338.21 153.419 337.902 154.002 337.696 154.758ZM345.257 159.14C344.65 159.14 344.16 158.925 343.787 158.496C343.413 158.057 343.227 157.418 343.227 156.578C343.227 155.878 343.315 155.215 343.493 154.59C343.679 153.955 343.936 153.4 344.263 152.924C344.589 152.439 344.977 152.056 345.425 151.776C345.873 151.496 346.367 151.356 346.909 151.356C347.403 151.356 347.805 151.487 348.113 151.748C348.421 152.009 348.649 152.313 348.799 152.658H348.869L349.317 151.496H350.255L348.659 159H347.679L347.861 157.614H347.805C347.478 158.025 347.1 158.384 346.671 158.692C346.251 158.991 345.779 159.14 345.257 159.14ZM345.663 158.118C345.999 158.118 346.335 157.992 346.671 157.74C347.007 157.488 347.305 157.152 347.567 156.732C347.837 156.303 348.047 155.817 348.197 155.276C348.262 155.015 348.309 154.767 348.337 154.534C348.365 154.301 348.379 154.086 348.379 153.89C348.379 153.451 348.257 153.092 348.015 152.812C347.772 152.532 347.445 152.392 347.035 152.392C346.671 152.392 346.335 152.509 346.027 152.742C345.719 152.966 345.448 153.279 345.215 153.68C344.981 154.072 344.799 154.52 344.669 155.024C344.547 155.528 344.487 156.055 344.487 156.606C344.487 157.11 344.589 157.488 344.795 157.74C345 157.992 345.289 158.118 345.663 158.118ZM350.904 159L352.5 151.496H353.508L353.354 152.882H353.424C353.62 152.63 353.825 152.387 354.04 152.154C354.254 151.921 354.497 151.729 354.768 151.58C355.038 151.431 355.351 151.356 355.706 151.356C355.836 151.356 355.972 151.365 356.112 151.384C356.261 151.393 356.396 151.417 356.518 151.454L356.252 152.56C356 152.504 355.762 152.476 355.538 152.476C355.071 152.476 354.656 152.63 354.292 152.938C353.928 153.246 353.624 153.638 353.382 154.114C353.139 154.59 352.966 155.075 352.864 155.57L352.136 159H350.904ZM359.274 159.14C358.444 159.14 357.772 158.907 357.258 158.44C356.745 157.973 356.488 157.273 356.488 156.34C356.488 155.668 356.577 155.033 356.754 154.436C356.941 153.829 357.202 153.297 357.538 152.84C357.884 152.383 358.299 152.023 358.784 151.762C359.27 151.491 359.811 151.356 360.408 151.356C360.735 151.356 361.057 151.389 361.374 151.454C361.701 151.519 362 151.608 362.27 151.72L361.92 152.742C361.734 152.658 361.51 152.579 361.248 152.504C360.996 152.429 360.721 152.392 360.422 152.392C359.89 152.392 359.424 152.574 359.022 152.938C358.621 153.293 358.308 153.769 358.084 154.366C357.86 154.963 357.748 155.617 357.748 156.326C357.748 156.895 357.893 157.339 358.182 157.656C358.472 157.964 358.878 158.118 359.4 158.118C359.727 158.118 360.035 158.076 360.324 157.992C360.623 157.899 360.917 157.787 361.206 157.656V158.692C360.945 158.823 360.651 158.93 360.324 159.014C360.007 159.098 359.657 159.14 359.274 159.14ZM362.552 159L364.806 148.36H366.038L365.436 151.118C365.38 151.398 365.31 151.692 365.226 152C365.142 152.299 365.063 152.597 364.988 152.896H365.058C365.235 152.663 365.445 152.429 365.688 152.196C365.931 151.963 366.206 151.767 366.514 151.608C366.831 151.449 367.191 151.37 367.592 151.37C368.171 151.37 368.628 151.533 368.964 151.86C369.309 152.177 369.482 152.653 369.482 153.288C369.482 153.475 369.463 153.661 369.426 153.848C369.398 154.035 369.365 154.231 369.328 154.436L368.348 159H367.116L368.11 154.296C368.194 153.876 368.236 153.568 368.236 153.372C368.236 153.064 368.157 152.826 367.998 152.658C367.849 152.481 367.601 152.392 367.256 152.392C366.939 152.392 366.593 152.504 366.22 152.728C365.856 152.943 365.515 153.297 365.198 153.792C364.89 154.287 364.647 154.945 364.47 155.766L363.784 159H362.552Z" fill="#757474"/>
<rect x="293" y="136.5" width="237" height="35" rx="1.5" stroke="#939393"/>
<path d="M298.142 193.97C297.069 193.97 296.224 194.329 295.608 195.048C294.992 195.767 294.684 196.751 294.684 198.002C294.684 199.243 294.969 200.228 295.538 200.956C296.117 201.675 296.98 202.034 298.128 202.034C298.557 202.034 298.968 201.997 299.36 201.922C299.752 201.847 300.139 201.754 300.522 201.642V202.734C300.149 202.874 299.761 202.977 299.36 203.042C298.968 203.107 298.497 203.14 297.946 203.14C296.929 203.14 296.079 202.93 295.398 202.51C294.717 202.09 294.203 201.493 293.858 200.718C293.522 199.943 293.354 199.033 293.354 197.988C293.354 196.98 293.536 196.093 293.9 195.328C294.273 194.553 294.819 193.951 295.538 193.522C296.257 193.083 297.129 192.864 298.156 192.864C299.211 192.864 300.13 193.06 300.914 193.452L300.41 194.516C300.102 194.376 299.757 194.25 299.374 194.138C299.001 194.026 298.59 193.97 298.142 193.97ZM308.808 195.496V203H307.8L307.618 202.006H307.562C307.319 202.398 306.983 202.687 306.554 202.874C306.124 203.051 305.667 203.14 305.182 203.14C304.276 203.14 303.595 202.925 303.138 202.496C302.68 202.057 302.452 201.362 302.452 200.41V195.496H303.698V200.326C303.698 201.521 304.253 202.118 305.364 202.118C306.194 202.118 306.768 201.885 307.086 201.418C307.412 200.951 307.576 200.279 307.576 199.402V195.496H308.808ZM316.076 200.928C316.076 201.656 315.805 202.207 315.264 202.58C314.723 202.953 313.995 203.14 313.08 203.14C312.557 203.14 312.105 203.098 311.722 203.014C311.349 202.93 311.017 202.813 310.728 202.664V201.544C311.027 201.693 311.386 201.833 311.806 201.964C312.235 202.085 312.669 202.146 313.108 202.146C313.733 202.146 314.186 202.048 314.466 201.852C314.746 201.647 314.886 201.376 314.886 201.04C314.886 200.853 314.835 200.685 314.732 200.536C314.629 200.387 314.443 200.237 314.172 200.088C313.911 199.939 313.533 199.771 313.038 199.584C312.553 199.397 312.137 199.211 311.792 199.024C311.447 198.837 311.181 198.613 310.994 198.352C310.807 198.091 310.714 197.755 310.714 197.344C310.714 196.709 310.971 196.219 311.484 195.874C312.007 195.529 312.688 195.356 313.528 195.356C313.985 195.356 314.41 195.403 314.802 195.496C315.203 195.589 315.577 195.711 315.922 195.86L315.502 196.84C315.185 196.709 314.853 196.597 314.508 196.504C314.163 196.411 313.808 196.364 313.444 196.364C312.94 196.364 312.553 196.448 312.282 196.616C312.021 196.775 311.89 196.994 311.89 197.274C311.89 197.489 311.951 197.666 312.072 197.806C312.193 197.946 312.394 198.086 312.674 198.226C312.963 198.366 313.346 198.525 313.822 198.702C314.298 198.879 314.704 199.061 315.04 199.248C315.376 199.435 315.633 199.663 315.81 199.934C315.987 200.195 316.076 200.527 316.076 200.928ZM320.395 202.132C320.582 202.132 320.773 202.118 320.969 202.09C321.165 202.062 321.324 202.025 321.445 201.978V202.916C321.315 202.981 321.128 203.033 320.885 203.07C320.643 203.117 320.409 203.14 320.185 203.14C319.793 203.14 319.429 203.075 319.093 202.944C318.767 202.804 318.501 202.566 318.295 202.23C318.09 201.894 317.987 201.423 317.987 200.816V196.448H316.923V195.86L318.001 195.37L318.491 193.774H319.219V195.496H321.389V196.448H319.219V200.788C319.219 201.245 319.327 201.586 319.541 201.81C319.765 202.025 320.05 202.132 320.395 202.132ZM329.472 199.234C329.472 200.475 329.154 201.437 328.52 202.118C327.894 202.799 327.045 203.14 325.972 203.14C325.309 203.14 324.716 202.991 324.194 202.692C323.68 202.384 323.274 201.941 322.976 201.362C322.677 200.774 322.528 200.065 322.528 199.234C322.528 197.993 322.836 197.036 323.452 196.364C324.077 195.692 324.931 195.356 326.014 195.356C326.686 195.356 327.283 195.51 327.806 195.818C328.328 196.117 328.734 196.555 329.024 197.134C329.322 197.703 329.472 198.403 329.472 199.234ZM323.802 199.234C323.802 200.121 323.974 200.825 324.32 201.348C324.674 201.861 325.234 202.118 326 202.118C326.756 202.118 327.311 201.861 327.666 201.348C328.02 200.825 328.198 200.121 328.198 199.234C328.198 198.347 328.02 197.652 327.666 197.148C327.311 196.644 326.751 196.392 325.986 196.392C325.22 196.392 324.665 196.644 324.32 197.148C323.974 197.652 323.802 198.347 323.802 199.234ZM339.656 195.356C340.506 195.356 341.14 195.575 341.56 196.014C341.98 196.453 342.19 197.153 342.19 198.114V203H340.972V198.17C340.972 196.985 340.464 196.392 339.446 196.392C338.718 196.392 338.196 196.602 337.878 197.022C337.57 197.442 337.416 198.053 337.416 198.856V203H336.198V198.17C336.198 196.985 335.685 196.392 334.658 196.392C333.902 196.392 333.38 196.625 333.09 197.092C332.801 197.559 332.656 198.231 332.656 199.108V203H331.424V195.496H332.418L332.6 196.518H332.67C332.904 196.126 333.216 195.837 333.608 195.65C334.01 195.454 334.434 195.356 334.882 195.356C336.058 195.356 336.824 195.776 337.178 196.616H337.248C337.5 196.187 337.841 195.869 338.27 195.664C338.7 195.459 339.162 195.356 339.656 195.356ZM347.406 195.356C348.041 195.356 348.592 195.496 349.058 195.776C349.525 196.056 349.88 196.453 350.122 196.966C350.374 197.47 350.5 198.063 350.5 198.744V199.486H345.362C345.381 200.335 345.596 200.984 346.006 201.432C346.426 201.871 347.01 202.09 347.756 202.09C348.232 202.09 348.652 202.048 349.016 201.964C349.39 201.871 349.772 201.74 350.164 201.572V202.65C349.782 202.818 349.404 202.939 349.03 203.014C348.657 203.098 348.214 203.14 347.7 203.14C346.982 203.14 346.352 202.995 345.81 202.706C345.269 202.417 344.844 201.987 344.536 201.418C344.238 200.849 344.088 200.144 344.088 199.304C344.088 198.483 344.224 197.778 344.494 197.19C344.774 196.602 345.162 196.149 345.656 195.832C346.16 195.515 346.744 195.356 347.406 195.356ZM347.392 196.364C346.804 196.364 346.338 196.555 345.992 196.938C345.656 197.311 345.456 197.834 345.39 198.506H349.212C349.203 197.871 349.054 197.358 348.764 196.966C348.475 196.565 348.018 196.364 347.392 196.364ZM355.911 195.356C356.051 195.356 356.2 195.365 356.359 195.384C356.517 195.393 356.662 195.412 356.793 195.44L356.639 196.574C356.517 196.546 356.382 196.523 356.233 196.504C356.083 196.485 355.948 196.476 355.827 196.476C355.444 196.476 355.085 196.583 354.749 196.798C354.413 197.003 354.142 197.297 353.937 197.68C353.741 198.053 353.643 198.492 353.643 198.996V203H352.411V195.496H353.419L353.559 196.868H353.615C353.848 196.457 354.156 196.103 354.539 195.804C354.931 195.505 355.388 195.356 355.911 195.356ZM366.283 193.97C365.209 193.97 364.365 194.329 363.749 195.048C363.133 195.767 362.825 196.751 362.825 198.002C362.825 199.243 363.109 200.228 363.679 200.956C364.257 201.675 365.121 202.034 366.269 202.034C366.698 202.034 367.109 201.997 367.501 201.922C367.893 201.847 368.28 201.754 368.663 201.642V202.734C368.289 202.874 367.902 202.977 367.501 203.042C367.109 203.107 366.637 203.14 366.087 203.14C365.069 203.14 364.22 202.93 363.539 202.51C362.857 202.09 362.344 201.493 361.999 200.718C361.663 199.943 361.495 199.033 361.495 197.988C361.495 196.98 361.677 196.093 362.041 195.328C362.414 194.553 362.96 193.951 363.679 193.522C364.397 193.083 365.27 192.864 366.297 192.864C367.351 192.864 368.271 193.06 369.055 193.452L368.551 194.516C368.243 194.376 367.897 194.25 367.515 194.138C367.141 194.026 366.731 193.97 366.283 193.97ZM373.518 195.37C374.433 195.37 375.11 195.571 375.548 195.972C375.987 196.373 376.206 197.013 376.206 197.89V203H375.31L375.072 201.936H375.016C374.69 202.347 374.344 202.65 373.98 202.846C373.616 203.042 373.122 203.14 372.496 203.14C371.815 203.14 371.25 202.963 370.802 202.608C370.354 202.244 370.13 201.679 370.13 200.914C370.13 200.167 370.424 199.593 371.012 199.192C371.6 198.781 372.506 198.557 373.728 198.52L375.002 198.478V198.03C375.002 197.405 374.867 196.971 374.596 196.728C374.326 196.485 373.943 196.364 373.448 196.364C373.056 196.364 372.683 196.425 372.328 196.546C371.974 196.658 371.642 196.789 371.334 196.938L370.956 196.014C371.283 195.837 371.67 195.687 372.118 195.566C372.566 195.435 373.033 195.37 373.518 195.37ZM374.988 199.332L373.882 199.374C372.949 199.411 372.3 199.561 371.936 199.822C371.582 200.083 371.404 200.452 371.404 200.928C371.404 201.348 371.53 201.656 371.782 201.852C372.044 202.048 372.375 202.146 372.776 202.146C373.402 202.146 373.924 201.973 374.344 201.628C374.774 201.273 374.988 200.732 374.988 200.004V199.332ZM382.024 195.356C382.164 195.356 382.313 195.365 382.472 195.384C382.631 195.393 382.775 195.412 382.906 195.44L382.752 196.574C382.631 196.546 382.495 196.523 382.346 196.504C382.197 196.485 382.061 196.476 381.94 196.476C381.557 196.476 381.198 196.583 380.862 196.798C380.526 197.003 380.255 197.297 380.05 197.68C379.854 198.053 379.756 198.492 379.756 198.996V203H378.524V195.496H379.532L379.672 196.868H379.728C379.961 196.457 380.269 196.103 380.652 195.804C381.044 195.505 381.501 195.356 382.024 195.356ZM386.932 195.356C387.566 195.356 388.117 195.496 388.584 195.776C389.05 196.056 389.405 196.453 389.648 196.966C389.9 197.47 390.026 198.063 390.026 198.744V199.486H384.888C384.906 200.335 385.121 200.984 385.532 201.432C385.952 201.871 386.535 202.09 387.282 202.09C387.758 202.09 388.178 202.048 388.542 201.964C388.915 201.871 389.298 201.74 389.69 201.572V202.65C389.307 202.818 388.929 202.939 388.556 203.014C388.182 203.098 387.739 203.14 387.226 203.14C386.507 203.14 385.877 202.995 385.336 202.706C384.794 202.417 384.37 201.987 384.062 201.418C383.763 200.849 383.614 200.144 383.614 199.304C383.614 198.483 383.749 197.778 384.02 197.19C384.3 196.602 384.687 196.149 385.182 195.832C385.686 195.515 386.269 195.356 386.932 195.356ZM386.918 196.364C386.33 196.364 385.863 196.555 385.518 196.938C385.182 197.311 384.981 197.834 384.916 198.506H388.738C388.728 197.871 388.579 197.358 388.29 196.966C388 196.565 387.543 196.364 386.918 196.364Z" fill="black"/>
<rect width="254" height="36" transform="translate(284.5 216)" fill="#F1F1F1"/>
<path d="M295.118 239H293.858V229.004H299.444V230.11H295.118V233.652H299.178V234.758H295.118V239ZM301.58 228.682C301.766 228.682 301.93 228.747 302.07 228.878C302.219 228.999 302.294 229.195 302.294 229.466C302.294 229.737 302.219 229.937 302.07 230.068C301.93 230.189 301.766 230.25 301.58 230.25C301.374 230.25 301.202 230.189 301.062 230.068C300.922 229.937 300.852 229.737 300.852 229.466C300.852 229.195 300.922 228.999 301.062 228.878C301.202 228.747 301.374 228.682 301.58 228.682ZM302.182 231.496V239H300.95V231.496H302.182ZM308.171 231.356C309.067 231.356 309.744 231.575 310.201 232.014C310.658 232.453 310.887 233.153 310.887 234.114V239H309.669V234.198C309.669 232.994 309.109 232.392 307.989 232.392C307.158 232.392 306.584 232.625 306.267 233.092C305.95 233.559 305.791 234.231 305.791 235.108V239H304.559V231.496H305.553L305.735 232.518H305.805C306.048 232.126 306.384 231.837 306.813 231.65C307.242 231.454 307.695 231.356 308.171 231.356ZM316.055 231.37C316.97 231.37 317.647 231.571 318.085 231.972C318.524 232.373 318.743 233.013 318.743 233.89V239H317.847L317.609 237.936H317.553C317.227 238.347 316.881 238.65 316.517 238.846C316.153 239.042 315.659 239.14 315.033 239.14C314.352 239.14 313.787 238.963 313.339 238.608C312.891 238.244 312.667 237.679 312.667 236.914C312.667 236.167 312.961 235.593 313.549 235.192C314.137 234.781 315.043 234.557 316.265 234.52L317.539 234.478V234.03C317.539 233.405 317.404 232.971 317.133 232.728C316.863 232.485 316.48 232.364 315.985 232.364C315.593 232.364 315.22 232.425 314.865 232.546C314.511 232.658 314.179 232.789 313.871 232.938L313.493 232.014C313.82 231.837 314.207 231.687 314.655 231.566C315.103 231.435 315.57 231.37 316.055 231.37ZM317.525 235.332L316.419 235.374C315.486 235.411 314.837 235.561 314.473 235.822C314.119 236.083 313.941 236.452 313.941 236.928C313.941 237.348 314.067 237.656 314.319 237.852C314.581 238.048 314.912 238.146 315.313 238.146C315.939 238.146 316.461 237.973 316.881 237.628C317.311 237.273 317.525 236.732 317.525 236.004V235.332ZM324.673 231.356C325.569 231.356 326.246 231.575 326.703 232.014C327.16 232.453 327.389 233.153 327.389 234.114V239H326.171V234.198C326.171 232.994 325.611 232.392 324.491 232.392C323.66 232.392 323.086 232.625 322.769 233.092C322.452 233.559 322.293 234.231 322.293 235.108V239H321.061V231.496H322.055L322.237 232.518H322.307C322.55 232.126 322.886 231.837 323.315 231.65C323.744 231.454 324.197 231.356 324.673 231.356ZM332.725 239.14C332.053 239.14 331.461 239.005 330.947 238.734C330.434 238.463 330.028 238.043 329.729 237.474C329.44 236.905 329.295 236.177 329.295 235.29C329.295 234.366 329.445 233.615 329.743 233.036C330.051 232.457 330.471 232.033 331.003 231.762C331.535 231.491 332.137 231.356 332.809 231.356C333.183 231.356 333.547 231.398 333.901 231.482C334.265 231.557 334.559 231.65 334.783 231.762L334.405 232.784C334.181 232.7 333.92 232.621 333.621 232.546C333.323 232.471 333.043 232.434 332.781 232.434C331.307 232.434 330.569 233.381 330.569 235.276C330.569 236.181 330.747 236.877 331.101 237.362C331.465 237.838 332.002 238.076 332.711 238.076C333.113 238.076 333.472 238.034 333.789 237.95C334.107 237.866 334.396 237.763 334.657 237.642V238.734C334.405 238.865 334.125 238.963 333.817 239.028C333.519 239.103 333.155 239.14 332.725 239.14ZM339.34 231.356C339.975 231.356 340.525 231.496 340.992 231.776C341.459 232.056 341.813 232.453 342.056 232.966C342.308 233.47 342.434 234.063 342.434 234.744V235.486H337.296C337.315 236.335 337.529 236.984 337.94 237.432C338.36 237.871 338.943 238.09 339.69 238.09C340.166 238.09 340.586 238.048 340.95 237.964C341.323 237.871 341.706 237.74 342.098 237.572V238.65C341.715 238.818 341.337 238.939 340.964 239.014C340.591 239.098 340.147 239.14 339.634 239.14C338.915 239.14 338.285 238.995 337.744 238.706C337.203 238.417 336.778 237.987 336.47 237.418C336.171 236.849 336.022 236.144 336.022 235.304C336.022 234.483 336.157 233.778 336.428 233.19C336.708 232.602 337.095 232.149 337.59 231.832C338.094 231.515 338.677 231.356 339.34 231.356ZM339.326 232.364C338.738 232.364 338.271 232.555 337.926 232.938C337.59 233.311 337.389 233.834 337.324 234.506H341.146C341.137 233.871 340.987 233.358 340.698 232.966C340.409 232.565 339.951 232.364 339.326 232.364ZM356.157 233.904C356.157 235.593 355.695 236.867 354.771 237.726C353.856 238.575 352.578 239 350.935 239H348.149V229.004H351.229C352.228 229.004 353.096 229.191 353.833 229.564C354.58 229.937 355.154 230.488 355.555 231.216C355.956 231.944 356.157 232.84 356.157 233.904ZM354.827 233.946C354.827 232.611 354.496 231.636 353.833 231.02C353.18 230.395 352.251 230.082 351.047 230.082H349.409V237.922H350.767C353.474 237.922 354.827 236.597 354.827 233.946ZM361.106 231.356C361.74 231.356 362.291 231.496 362.758 231.776C363.224 232.056 363.579 232.453 363.822 232.966C364.074 233.47 364.2 234.063 364.2 234.744V235.486H359.062C359.08 236.335 359.295 236.984 359.706 237.432C360.126 237.871 360.709 238.09 361.456 238.09C361.932 238.09 362.352 238.048 362.716 237.964C363.089 237.871 363.472 237.74 363.864 237.572V238.65C363.481 238.818 363.103 238.939 362.73 239.014C362.356 239.098 361.913 239.14 361.4 239.14C360.681 239.14 360.051 238.995 359.51 238.706C358.968 238.417 358.544 237.987 358.236 237.418C357.937 236.849 357.788 236.144 357.788 235.304C357.788 234.483 357.923 233.778 358.194 233.19C358.474 232.602 358.861 232.149 359.356 231.832C359.86 231.515 360.443 231.356 361.106 231.356ZM361.092 232.364C360.504 232.364 360.037 232.555 359.692 232.938C359.356 233.311 359.155 233.834 359.09 234.506H362.912C362.902 233.871 362.753 233.358 362.464 232.966C362.174 232.565 361.717 232.364 361.092 232.364ZM369.68 231.356C370.604 231.356 371.346 231.678 371.906 232.322C372.475 232.966 372.76 233.937 372.76 235.234C372.76 236.513 372.475 237.483 371.906 238.146C371.346 238.809 370.599 239.14 369.666 239.14C369.087 239.14 368.607 239.033 368.224 238.818C367.851 238.603 367.557 238.347 367.342 238.048H367.258C367.267 238.207 367.281 238.407 367.3 238.65C367.328 238.893 367.342 239.103 367.342 239.28V242.36H366.11V231.496H367.118L367.286 232.518H367.342C367.566 232.191 367.86 231.916 368.224 231.692C368.588 231.468 369.073 231.356 369.68 231.356ZM369.456 232.392C368.691 232.392 368.149 232.607 367.832 233.036C367.515 233.465 367.351 234.119 367.342 234.996V235.234C367.342 236.158 367.491 236.872 367.79 237.376C368.098 237.871 368.663 238.118 369.484 238.118C369.932 238.118 370.305 237.997 370.604 237.754C370.903 237.502 371.122 237.157 371.262 236.718C371.411 236.279 371.486 235.78 371.486 235.22C371.486 234.361 371.318 233.675 370.982 233.162C370.655 232.649 370.147 232.392 369.456 232.392ZM377.565 231.37C378.48 231.37 379.157 231.571 379.595 231.972C380.034 232.373 380.253 233.013 380.253 233.89V239H379.357L379.119 237.936H379.063C378.737 238.347 378.391 238.65 378.027 238.846C377.663 239.042 377.169 239.14 376.543 239.14C375.862 239.14 375.297 238.963 374.849 238.608C374.401 238.244 374.177 237.679 374.177 236.914C374.177 236.167 374.471 235.593 375.059 235.192C375.647 234.781 376.553 234.557 377.775 234.52L379.049 234.478V234.03C379.049 233.405 378.914 232.971 378.643 232.728C378.373 232.485 377.99 232.364 377.495 232.364C377.103 232.364 376.73 232.425 376.375 232.546C376.021 232.658 375.689 232.789 375.381 232.938L375.003 232.014C375.33 231.837 375.717 231.687 376.165 231.566C376.613 231.435 377.08 231.37 377.565 231.37ZM379.035 235.332L377.929 235.374C376.996 235.411 376.347 235.561 375.983 235.822C375.629 236.083 375.451 236.452 375.451 236.928C375.451 237.348 375.577 237.656 375.829 237.852C376.091 238.048 376.422 238.146 376.823 238.146C377.449 238.146 377.971 237.973 378.391 237.628C378.821 237.273 379.035 236.732 379.035 236.004V235.332ZM386.071 231.356C386.211 231.356 386.36 231.365 386.519 231.384C386.678 231.393 386.822 231.412 386.953 231.44L386.799 232.574C386.678 232.546 386.542 232.523 386.393 232.504C386.244 232.485 386.108 232.476 385.987 232.476C385.604 232.476 385.245 232.583 384.909 232.798C384.573 233.003 384.302 233.297 384.097 233.68C383.901 234.053 383.803 234.492 383.803 234.996V239H382.571V231.496H383.579L383.719 232.868H383.775C384.008 232.457 384.316 232.103 384.699 231.804C385.091 231.505 385.548 231.356 386.071 231.356ZM390.86 238.132C391.047 238.132 391.238 238.118 391.434 238.09C391.63 238.062 391.789 238.025 391.91 237.978V238.916C391.779 238.981 391.593 239.033 391.35 239.07C391.107 239.117 390.874 239.14 390.65 239.14C390.258 239.14 389.894 239.075 389.558 238.944C389.231 238.804 388.965 238.566 388.76 238.23C388.555 237.894 388.452 237.423 388.452 236.816V232.448H387.388V231.86L388.466 231.37L388.956 229.774H389.684V231.496H391.854V232.448H389.684V236.788C389.684 237.245 389.791 237.586 390.006 237.81C390.23 238.025 390.515 238.132 390.86 238.132ZM401.645 231.356C402.494 231.356 403.129 231.575 403.549 232.014C403.969 232.453 404.179 233.153 404.179 234.114V239H402.961V234.17C402.961 232.985 402.452 232.392 401.435 232.392C400.707 232.392 400.184 232.602 399.867 233.022C399.559 233.442 399.405 234.053 399.405 234.856V239H398.187V234.17C398.187 232.985 397.673 232.392 396.647 232.392C395.891 232.392 395.368 232.625 395.079 233.092C394.789 233.559 394.645 234.231 394.645 235.108V239H393.413V231.496H394.407L394.589 232.518H394.659C394.892 232.126 395.205 231.837 395.597 231.65C395.998 231.454 396.423 231.356 396.871 231.356C398.047 231.356 398.812 231.776 399.167 232.616H399.237C399.489 232.187 399.829 231.869 400.259 231.664C400.688 231.459 401.15 231.356 401.645 231.356ZM409.395 231.356C410.029 231.356 410.58 231.496 411.047 231.776C411.513 232.056 411.868 232.453 412.111 232.966C412.363 233.47 412.489 234.063 412.489 234.744V235.486H407.351C407.369 236.335 407.584 236.984 407.995 237.432C408.415 237.871 408.998 238.09 409.745 238.09C410.221 238.09 410.641 238.048 411.005 237.964C411.378 237.871 411.761 237.74 412.153 237.572V238.65C411.77 238.818 411.392 238.939 411.019 239.014C410.645 239.098 410.202 239.14 409.689 239.14C408.97 239.14 408.34 238.995 407.799 238.706C407.257 238.417 406.833 237.987 406.525 237.418C406.226 236.849 406.077 236.144 406.077 235.304C406.077 234.483 406.212 233.778 406.483 233.19C406.763 232.602 407.15 232.149 407.645 231.832C408.149 231.515 408.732 231.356 409.395 231.356ZM409.381 232.364C408.793 232.364 408.326 232.555 407.981 232.938C407.645 233.311 407.444 233.834 407.379 234.506H411.201C411.191 233.871 411.042 233.358 410.753 232.966C410.463 232.565 410.006 232.364 409.381 232.364ZM418.011 231.356C418.907 231.356 419.584 231.575 420.041 232.014C420.498 232.453 420.727 233.153 420.727 234.114V239H419.509V234.198C419.509 232.994 418.949 232.392 417.829 232.392C416.998 232.392 416.424 232.625 416.107 233.092C415.79 233.559 415.631 234.231 415.631 235.108V239H414.399V231.496H415.393L415.575 232.518H415.645C415.888 232.126 416.224 231.837 416.653 231.65C417.082 231.454 417.535 231.356 418.011 231.356ZM425.559 238.132C425.746 238.132 425.937 238.118 426.133 238.09C426.329 238.062 426.488 238.025 426.609 237.978V238.916C426.479 238.981 426.292 239.033 426.049 239.07C425.807 239.117 425.573 239.14 425.349 239.14C424.957 239.14 424.593 239.075 424.257 238.944C423.931 238.804 423.665 238.566 423.459 238.23C423.254 237.894 423.151 237.423 423.151 236.816V232.448H422.087V231.86L423.165 231.37L423.655 229.774H424.383V231.496H426.553V232.448H424.383V236.788C424.383 237.245 424.491 237.586 424.705 237.81C424.929 238.025 425.214 238.132 425.559 238.132Z" fill="black"/>
<path d="M519.912 239.962C519.812 239.962 519.712 239.913 519.662 239.863C519.513 239.713 519.513 239.462 519.662 239.312L524.962 234.012L519.612 228.662C519.463 228.512 519.463 228.263 519.612 228.113C519.762 227.962 520.012 227.962 520.162 228.113L525.762 233.712C525.812 233.762 525.862 233.862 525.862 233.962C525.862 234.062 525.812 234.162 525.762 234.212L520.162 239.863C520.062 239.963 519.963 239.962 519.912 239.962Z" fill="black"/>
<path d="M298.142 265.97C297.069 265.97 296.224 266.329 295.608 267.048C294.992 267.767 294.684 268.751 294.684 270.002C294.684 271.243 294.969 272.228 295.538 272.956C296.117 273.675 296.98 274.034 298.128 274.034C298.557 274.034 298.968 273.997 299.36 273.922C299.752 273.847 300.139 273.754 300.522 273.642V274.734C300.149 274.874 299.761 274.977 299.36 275.042C298.968 275.107 298.497 275.14 297.946 275.14C296.929 275.14 296.079 274.93 295.398 274.51C294.717 274.09 294.203 273.493 293.858 272.718C293.522 271.943 293.354 271.033 293.354 269.988C293.354 268.98 293.536 268.093 293.9 267.328C294.273 266.553 294.819 265.951 295.538 265.522C296.257 265.083 297.129 264.864 298.156 264.864C299.211 264.864 300.13 265.06 300.914 265.452L300.41 266.516C300.102 266.376 299.757 266.25 299.374 266.138C299.001 266.026 298.59 265.97 298.142 265.97ZM309.06 271.234C309.06 272.475 308.742 273.437 308.108 274.118C307.482 274.799 306.633 275.14 305.56 275.14C304.897 275.14 304.304 274.991 303.782 274.692C303.268 274.384 302.862 273.941 302.564 273.362C302.265 272.774 302.116 272.065 302.116 271.234C302.116 269.993 302.424 269.036 303.04 268.364C303.665 267.692 304.519 267.356 305.602 267.356C306.274 267.356 306.871 267.51 307.394 267.818C307.916 268.117 308.322 268.555 308.612 269.134C308.91 269.703 309.06 270.403 309.06 271.234ZM303.39 271.234C303.39 272.121 303.562 272.825 303.908 273.348C304.262 273.861 304.822 274.118 305.588 274.118C306.344 274.118 306.899 273.861 307.254 273.348C307.608 272.825 307.786 272.121 307.786 271.234C307.786 270.347 307.608 269.652 307.254 269.148C306.899 268.644 306.339 268.392 305.574 268.392C304.808 268.392 304.253 268.644 303.908 269.148C303.562 269.652 303.39 270.347 303.39 271.234ZM319.244 267.356C320.094 267.356 320.728 267.575 321.148 268.014C321.568 268.453 321.778 269.153 321.778 270.114V275H320.56V270.17C320.56 268.985 320.052 268.392 319.034 268.392C318.306 268.392 317.784 268.602 317.466 269.022C317.158 269.442 317.004 270.053 317.004 270.856V275H315.786V270.17C315.786 268.985 315.273 268.392 314.246 268.392C313.49 268.392 312.968 268.625 312.678 269.092C312.389 269.559 312.244 270.231 312.244 271.108V275H311.012V267.496H312.006L312.188 268.518H312.258C312.492 268.126 312.804 267.837 313.196 267.65C313.598 267.454 314.022 267.356 314.47 267.356C315.646 267.356 316.412 267.776 316.766 268.616H316.836C317.088 268.187 317.429 267.869 317.858 267.664C318.288 267.459 318.75 267.356 319.244 267.356ZM327.666 267.356C328.59 267.356 329.332 267.678 329.892 268.322C330.462 268.966 330.746 269.937 330.746 271.234C330.746 272.513 330.462 273.483 329.892 274.146C329.332 274.809 328.586 275.14 327.652 275.14C327.074 275.14 326.593 275.033 326.21 274.818C325.837 274.603 325.543 274.347 325.328 274.048H325.244C325.254 274.207 325.268 274.407 325.286 274.65C325.314 274.893 325.328 275.103 325.328 275.28V278.36H324.096V267.496H325.104L325.272 268.518H325.328C325.552 268.191 325.846 267.916 326.21 267.692C326.574 267.468 327.06 267.356 327.666 267.356ZM327.442 268.392C326.677 268.392 326.136 268.607 325.818 269.036C325.501 269.465 325.338 270.119 325.328 270.996V271.234C325.328 272.158 325.478 272.872 325.776 273.376C326.084 273.871 326.649 274.118 327.47 274.118C327.918 274.118 328.292 273.997 328.59 273.754C328.889 273.502 329.108 273.157 329.248 272.718C329.398 272.279 329.472 271.78 329.472 271.22C329.472 270.361 329.304 269.675 328.968 269.162C328.642 268.649 328.133 268.392 327.442 268.392ZM333.942 275H332.71V264.36H333.942V275ZM339.161 267.37C340.076 267.37 340.752 267.571 341.191 267.972C341.63 268.373 341.849 269.013 341.849 269.89V275H340.953L340.715 273.936H340.659C340.332 274.347 339.987 274.65 339.623 274.846C339.259 275.042 338.764 275.14 338.139 275.14C337.458 275.14 336.893 274.963 336.445 274.608C335.997 274.244 335.773 273.679 335.773 272.914C335.773 272.167 336.067 271.593 336.655 271.192C337.243 270.781 338.148 270.557 339.371 270.52L340.645 270.478V270.03C340.645 269.405 340.51 268.971 340.239 268.728C339.968 268.485 339.586 268.364 339.091 268.364C338.699 268.364 338.326 268.425 337.971 268.546C337.616 268.658 337.285 268.789 336.977 268.938L336.599 268.014C336.926 267.837 337.313 267.687 337.761 267.566C338.209 267.435 338.676 267.37 339.161 267.37ZM340.631 271.332L339.525 271.374C338.592 271.411 337.943 271.561 337.579 271.822C337.224 272.083 337.047 272.452 337.047 272.928C337.047 273.348 337.173 273.656 337.425 273.852C337.686 274.048 338.018 274.146 338.419 274.146C339.044 274.146 339.567 273.973 339.987 273.628C340.416 273.273 340.631 272.732 340.631 272.004V271.332ZM344.797 264.682C344.983 264.682 345.147 264.747 345.287 264.878C345.436 264.999 345.511 265.195 345.511 265.466C345.511 265.737 345.436 265.937 345.287 266.068C345.147 266.189 344.983 266.25 344.797 266.25C344.591 266.25 344.419 266.189 344.279 266.068C344.139 265.937 344.069 265.737 344.069 265.466C344.069 265.195 344.139 264.999 344.279 264.878C344.419 264.747 344.591 264.682 344.797 264.682ZM345.399 267.496V275H344.167V267.496H345.399ZM351.388 267.356C352.284 267.356 352.961 267.575 353.418 268.014C353.875 268.453 354.104 269.153 354.104 270.114V275H352.886V270.198C352.886 268.994 352.326 268.392 351.206 268.392C350.375 268.392 349.801 268.625 349.484 269.092C349.167 269.559 349.008 270.231 349.008 271.108V275H347.776V267.496H348.77L348.952 268.518H349.022C349.265 268.126 349.601 267.837 350.03 267.65C350.459 267.454 350.912 267.356 351.388 267.356ZM358.936 274.132C359.123 274.132 359.314 274.118 359.51 274.09C359.706 274.062 359.865 274.025 359.986 273.978V274.916C359.856 274.981 359.669 275.033 359.426 275.07C359.184 275.117 358.95 275.14 358.726 275.14C358.334 275.14 357.97 275.075 357.634 274.944C357.308 274.804 357.042 274.566 356.836 274.23C356.631 273.894 356.528 273.423 356.528 272.816V268.448H355.464V267.86L356.542 267.37L357.032 265.774H357.76V267.496H359.93V268.448H357.76V272.788C357.76 273.245 357.868 273.586 358.082 273.81C358.306 274.025 358.591 274.132 358.936 274.132ZM366.375 272.928C366.375 273.656 366.104 274.207 365.563 274.58C365.021 274.953 364.293 275.14 363.379 275.14C362.856 275.14 362.403 275.098 362.021 275.014C361.647 274.93 361.316 274.813 361.027 274.664V273.544C361.325 273.693 361.685 273.833 362.105 273.964C362.534 274.085 362.968 274.146 363.407 274.146C364.032 274.146 364.485 274.048 364.765 273.852C365.045 273.647 365.185 273.376 365.185 273.04C365.185 272.853 365.133 272.685 365.031 272.536C364.928 272.387 364.741 272.237 364.471 272.088C364.209 271.939 363.831 271.771 363.337 271.584C362.851 271.397 362.436 271.211 362.091 271.024C361.745 270.837 361.479 270.613 361.293 270.352C361.106 270.091 361.013 269.755 361.013 269.344C361.013 268.709 361.269 268.219 361.783 267.874C362.305 267.529 362.987 267.356 363.827 267.356C364.284 267.356 364.709 267.403 365.101 267.496C365.502 267.589 365.875 267.711 366.221 267.86L365.801 268.84C365.483 268.709 365.152 268.597 364.807 268.504C364.461 268.411 364.107 268.364 363.743 268.364C363.239 268.364 362.851 268.448 362.581 268.616C362.319 268.775 362.189 268.994 362.189 269.274C362.189 269.489 362.249 269.666 362.371 269.806C362.492 269.946 362.693 270.086 362.973 270.226C363.262 270.366 363.645 270.525 364.121 270.702C364.597 270.879 365.003 271.061 365.339 271.248C365.675 271.435 365.931 271.663 366.109 271.934C366.286 272.195 366.375 272.527 366.375 272.928ZM380.001 269.904C380.001 271.593 379.539 272.867 378.615 273.726C377.7 274.575 376.421 275 374.779 275H371.993V265.004H375.073C376.071 265.004 376.939 265.191 377.677 265.564C378.423 265.937 378.997 266.488 379.399 267.216C379.8 267.944 380.001 268.84 380.001 269.904ZM378.671 269.946C378.671 268.611 378.339 267.636 377.677 267.02C377.023 266.395 376.095 266.082 374.891 266.082H373.253V273.922H374.611C377.317 273.922 378.671 272.597 378.671 269.946ZM384.949 267.356C385.584 267.356 386.135 267.496 386.601 267.776C387.068 268.056 387.423 268.453 387.665 268.966C387.917 269.47 388.043 270.063 388.043 270.744V271.486H382.905C382.924 272.335 383.139 272.984 383.549 273.432C383.969 273.871 384.553 274.09 385.299 274.09C385.775 274.09 386.195 274.048 386.559 273.964C386.933 273.871 387.315 273.74 387.707 273.572V274.65C387.325 274.818 386.947 274.939 386.573 275.014C386.2 275.098 385.757 275.14 385.243 275.14C384.525 275.14 383.895 274.995 383.353 274.706C382.812 274.417 382.387 273.987 382.079 273.418C381.781 272.849 381.631 272.144 381.631 271.304C381.631 270.483 381.767 269.778 382.037 269.19C382.317 268.602 382.705 268.149 383.199 267.832C383.703 267.515 384.287 267.356 384.949 267.356ZM384.935 268.364C384.347 268.364 383.881 268.555 383.535 268.938C383.199 269.311 382.999 269.834 382.933 270.506H386.755C386.746 269.871 386.597 269.358 386.307 268.966C386.018 268.565 385.561 268.364 384.935 268.364ZM393.524 267.356C394.448 267.356 395.19 267.678 395.75 268.322C396.319 268.966 396.604 269.937 396.604 271.234C396.604 272.513 396.319 273.483 395.75 274.146C395.19 274.809 394.443 275.14 393.51 275.14C392.931 275.14 392.45 275.033 392.068 274.818C391.694 274.603 391.4 274.347 391.186 274.048H391.102C391.111 274.207 391.125 274.407 391.144 274.65C391.172 274.893 391.186 275.103 391.186 275.28V278.36H389.954V267.496H390.962L391.13 268.518H391.186C391.41 268.191 391.704 267.916 392.068 267.692C392.432 267.468 392.917 267.356 393.524 267.356ZM393.3 268.392C392.534 268.392 391.993 268.607 391.676 269.036C391.358 269.465 391.195 270.119 391.186 270.996V271.234C391.186 272.158 391.335 272.872 391.634 273.376C391.942 273.871 392.506 274.118 393.328 274.118C393.776 274.118 394.149 273.997 394.448 273.754C394.746 273.502 394.966 273.157 395.106 272.718C395.255 272.279 395.33 271.78 395.33 271.22C395.33 270.361 395.162 269.675 394.826 269.162C394.499 268.649 393.99 268.392 393.3 268.392ZM401.409 267.37C402.324 267.37 403 267.571 403.439 267.972C403.878 268.373 404.097 269.013 404.097 269.89V275H403.201L402.963 273.936H402.907C402.58 274.347 402.235 274.65 401.871 274.846C401.507 275.042 401.012 275.14 400.387 275.14C399.706 275.14 399.141 274.963 398.693 274.608C398.245 274.244 398.021 273.679 398.021 272.914C398.021 272.167 398.315 271.593 398.903 271.192C399.491 270.781 400.396 270.557 401.619 270.52L402.893 270.478V270.03C402.893 269.405 402.758 268.971 402.487 268.728C402.216 268.485 401.834 268.364 401.339 268.364C400.947 268.364 400.574 268.425 400.219 268.546C399.864 268.658 399.533 268.789 399.225 268.938L398.847 268.014C399.174 267.837 399.561 267.687 400.009 267.566C400.457 267.435 400.924 267.37 401.409 267.37ZM402.879 271.332L401.773 271.374C400.84 271.411 400.191 271.561 399.827 271.822C399.472 272.083 399.295 272.452 399.295 272.928C399.295 273.348 399.421 273.656 399.673 273.852C399.934 274.048 400.266 274.146 400.667 274.146C401.292 274.146 401.815 273.973 402.235 273.628C402.664 273.273 402.879 272.732 402.879 272.004V271.332ZM409.915 267.356C410.055 267.356 410.204 267.365 410.363 267.384C410.521 267.393 410.666 267.412 410.797 267.44L410.643 268.574C410.521 268.546 410.386 268.523 410.237 268.504C410.087 268.485 409.952 268.476 409.831 268.476C409.448 268.476 409.089 268.583 408.753 268.798C408.417 269.003 408.146 269.297 407.941 269.68C407.745 270.053 407.647 270.492 407.647 270.996V275H406.415V267.496H407.423L407.563 268.868H407.619C407.852 268.457 408.16 268.103 408.543 267.804C408.935 267.505 409.392 267.356 409.915 267.356ZM414.704 274.132C414.89 274.132 415.082 274.118 415.278 274.09C415.474 274.062 415.632 274.025 415.754 273.978V274.916C415.623 274.981 415.436 275.033 415.194 275.07C414.951 275.117 414.718 275.14 414.494 275.14C414.102 275.14 413.738 275.075 413.402 274.944C413.075 274.804 412.809 274.566 412.604 274.23C412.398 273.894 412.296 273.423 412.296 272.816V268.448H411.232V267.86L412.31 267.37L412.8 265.774H413.528V267.496H415.698V268.448H413.528V272.788C413.528 273.245 413.635 273.586 413.85 273.81C414.074 274.025 414.358 274.132 414.704 274.132ZM425.488 267.356C426.338 267.356 426.972 267.575 427.392 268.014C427.812 268.453 428.022 269.153 428.022 270.114V275H426.804V270.17C426.804 268.985 426.296 268.392 425.278 268.392C424.55 268.392 424.028 268.602 423.71 269.022C423.402 269.442 423.248 270.053 423.248 270.856V275H422.03V270.17C422.03 268.985 421.517 268.392 420.49 268.392C419.734 268.392 419.212 268.625 418.922 269.092C418.633 269.559 418.488 270.231 418.488 271.108V275H417.256V267.496H418.25L418.432 268.518H418.502C418.736 268.126 419.048 267.837 419.44 267.65C419.842 267.454 420.266 267.356 420.714 267.356C421.89 267.356 422.656 267.776 423.01 268.616H423.08C423.332 268.187 423.673 267.869 424.102 267.664C424.532 267.459 424.994 267.356 425.488 267.356ZM433.238 267.356C433.873 267.356 434.424 267.496 434.89 267.776C435.357 268.056 435.712 268.453 435.954 268.966C436.206 269.47 436.332 270.063 436.332 270.744V271.486H431.194C431.213 272.335 431.428 272.984 431.838 273.432C432.258 273.871 432.842 274.09 433.588 274.09C434.064 274.09 434.484 274.048 434.848 273.964C435.222 273.871 435.604 273.74 435.996 273.572V274.65C435.614 274.818 435.236 274.939 434.862 275.014C434.489 275.098 434.046 275.14 433.532 275.14C432.814 275.14 432.184 274.995 431.642 274.706C431.101 274.417 430.676 273.987 430.368 273.418C430.07 272.849 429.92 272.144 429.92 271.304C429.92 270.483 430.056 269.778 430.326 269.19C430.606 268.602 430.994 268.149 431.488 267.832C431.992 267.515 432.576 267.356 433.238 267.356ZM433.224 268.364C432.636 268.364 432.17 268.555 431.824 268.938C431.488 269.311 431.288 269.834 431.222 270.506H435.044C435.035 269.871 434.886 269.358 434.596 268.966C434.307 268.565 433.85 268.364 433.224 268.364ZM441.855 267.356C442.751 267.356 443.427 267.575 443.885 268.014C444.342 268.453 444.571 269.153 444.571 270.114V275H443.353V270.198C443.353 268.994 442.793 268.392 441.673 268.392C440.842 268.392 440.268 268.625 439.951 269.092C439.633 269.559 439.475 270.231 439.475 271.108V275H438.243V267.496H439.237L439.419 268.518H439.489C439.731 268.126 440.067 267.837 440.497 267.65C440.926 267.454 441.379 267.356 441.855 267.356ZM449.403 274.132C449.59 274.132 449.781 274.118 449.977 274.09C450.173 274.062 450.332 274.025 450.453 273.978V274.916C450.322 274.981 450.136 275.033 449.893 275.07C449.65 275.117 449.417 275.14 449.193 275.14C448.801 275.14 448.437 275.075 448.101 274.944C447.774 274.804 447.508 274.566 447.303 274.23C447.098 273.894 446.995 273.423 446.995 272.816V268.448H445.931V267.86L447.009 267.37L447.499 265.774H448.227V267.496H450.397V268.448H448.227V272.788C448.227 273.245 448.334 273.586 448.549 273.81C448.773 274.025 449.058 274.132 449.403 274.132Z" fill="black"/>
</g>
<rect x="284" y="127.5" width="255" height="161" rx="4.5" stroke="black" stroke-opacity="0.15"/>
</g>
<g filter="url(#filter1_d_8122_375798)">
<rect x="30.5" y="216" width="254" height="108" rx="4" fill="white"/>
<path d="M48.58 233.988C48.58 235.211 48.3327 236.256 47.838 237.124C47.3527 237.983 46.6293 238.571 45.668 238.888L48.062 241.38H46.256L44.324 239.126C44.268 239.126 44.2073 239.126 44.142 239.126C44.086 239.135 44.03 239.14 43.974 239.14C42.938 239.14 42.0747 238.925 41.384 238.496C40.7027 238.067 40.194 237.465 39.858 236.69C39.522 235.915 39.354 235.01 39.354 233.974C39.354 232.957 39.522 232.065 39.858 231.3C40.194 230.525 40.7027 229.923 41.384 229.494C42.0747 229.065 42.9427 228.85 43.988 228.85C44.9867 228.85 45.8267 229.065 46.508 229.494C47.1893 229.914 47.7027 230.511 48.048 231.286C48.4027 232.051 48.58 232.952 48.58 233.988ZM40.684 233.988C40.684 235.248 40.95 236.242 41.482 236.97C42.014 237.689 42.8447 238.048 43.974 238.048C45.1033 238.048 45.9293 237.689 46.452 236.97C46.984 236.242 47.25 235.248 47.25 233.988C47.25 232.728 46.9887 231.743 46.466 231.034C45.9433 230.315 45.1173 229.956 43.988 229.956C42.8493 229.956 42.014 230.315 41.482 231.034C40.95 231.743 40.684 232.728 40.684 233.988ZM56.8995 231.496V239H55.8915L55.7095 238.006H55.6535C55.4108 238.398 55.0748 238.687 54.6455 238.874C54.2162 239.051 53.7588 239.14 53.2735 239.14C52.3682 239.14 51.6868 238.925 51.2295 238.496C50.7722 238.057 50.5435 237.362 50.5435 236.41V231.496H51.7895V236.326C51.7895 237.521 52.3448 238.118 53.4555 238.118C54.2862 238.118 54.8602 237.885 55.1775 237.418C55.5042 236.951 55.6675 236.279 55.6675 235.402V231.496H56.8995ZM65.8058 235.234C65.8058 236.475 65.4885 237.437 64.8538 238.118C64.2285 238.799 63.3791 239.14 62.3058 239.14C61.6431 239.14 61.0505 238.991 60.5278 238.692C60.0145 238.384 59.6085 237.941 59.3098 237.362C59.0111 236.774 58.8618 236.065 58.8618 235.234C58.8618 233.993 59.1698 233.036 59.7858 232.364C60.4111 231.692 61.2651 231.356 62.3478 231.356C63.0198 231.356 63.6171 231.51 64.1398 231.818C64.6625 232.117 65.0685 232.555 65.3578 233.134C65.6565 233.703 65.8058 234.403 65.8058 235.234ZM60.1358 235.234C60.1358 236.121 60.3085 236.825 60.6538 237.348C61.0085 237.861 61.5685 238.118 62.3338 238.118C63.0898 238.118 63.6451 237.861 63.9998 237.348C64.3545 236.825 64.5318 236.121 64.5318 235.234C64.5318 234.347 64.3545 233.652 63.9998 233.148C63.6451 232.644 63.0851 232.392 62.3198 232.392C61.5545 232.392 60.9991 232.644 60.6538 233.148C60.3085 233.652 60.1358 234.347 60.1358 235.234ZM70.2644 238.132C70.451 238.132 70.6424 238.118 70.8384 238.09C71.0344 238.062 71.193 238.025 71.3144 237.978V238.916C71.1837 238.981 70.997 239.033 70.7544 239.07C70.5117 239.117 70.2784 239.14 70.0544 239.14C69.6624 239.14 69.2984 239.075 68.9624 238.944C68.6357 238.804 68.3697 238.566 68.1644 238.23C67.959 237.894 67.8564 237.423 67.8564 236.816V232.448H66.7924V231.86L67.8704 231.37L68.3604 229.774H69.0884V231.496H71.2584V232.448H69.0884V236.788C69.0884 237.245 69.1957 237.586 69.4104 237.81C69.6344 238.025 69.919 238.132 70.2644 238.132ZM75.715 231.356C76.3496 231.356 76.9003 231.496 77.367 231.776C77.8336 232.056 78.1883 232.453 78.431 232.966C78.683 233.47 78.809 234.063 78.809 234.744V235.486H73.671C73.6896 236.335 73.9043 236.984 74.315 237.432C74.735 237.871 75.3183 238.09 76.065 238.09C76.541 238.09 76.961 238.048 77.325 237.964C77.6983 237.871 78.081 237.74 78.473 237.572V238.65C78.0903 238.818 77.7123 238.939 77.339 239.014C76.9656 239.098 76.5223 239.14 76.009 239.14C75.2903 239.14 74.6603 238.995 74.119 238.706C73.5776 238.417 73.153 237.987 72.845 237.418C72.5463 236.849 72.397 236.144 72.397 235.304C72.397 234.483 72.5323 233.778 72.803 233.19C73.083 232.602 73.4703 232.149 73.965 231.832C74.469 231.515 75.0523 231.356 75.715 231.356ZM75.701 232.364C75.113 232.364 74.6463 232.555 74.301 232.938C73.965 233.311 73.7643 233.834 73.699 234.506H77.521C77.5116 233.871 77.3623 233.358 77.073 232.966C76.7836 232.565 76.3263 232.364 75.701 232.364ZM85.6053 236.928C85.6053 237.656 85.3346 238.207 84.7933 238.58C84.252 238.953 83.524 239.14 82.6093 239.14C82.0866 239.14 81.634 239.098 81.2513 239.014C80.878 238.93 80.5466 238.813 80.2573 238.664V237.544C80.556 237.693 80.9153 237.833 81.3353 237.964C81.7646 238.085 82.1986 238.146 82.6373 238.146C83.2626 238.146 83.7153 238.048 83.9953 237.852C84.2753 237.647 84.4153 237.376 84.4153 237.04C84.4153 236.853 84.364 236.685 84.2613 236.536C84.1586 236.387 83.972 236.237 83.7013 236.088C83.44 235.939 83.062 235.771 82.5673 235.584C82.082 235.397 81.6666 235.211 81.3213 235.024C80.976 234.837 80.71 234.613 80.5233 234.352C80.3366 234.091 80.2433 233.755 80.2433 233.344C80.2433 232.709 80.5 232.219 81.0133 231.874C81.536 231.529 82.2173 231.356 83.0573 231.356C83.5146 231.356 83.9393 231.403 84.3313 231.496C84.7326 231.589 85.106 231.711 85.4513 231.86L85.0313 232.84C84.714 232.709 84.3826 232.597 84.0373 232.504C83.692 232.411 83.3373 232.364 82.9733 232.364C82.4693 232.364 82.082 232.448 81.8113 232.616C81.55 232.775 81.4193 232.994 81.4193 233.274C81.4193 233.489 81.48 233.666 81.6013 233.806C81.7226 233.946 81.9233 234.086 82.2033 234.226C82.4926 234.366 82.8753 234.525 83.3513 234.702C83.8273 234.879 84.2333 235.061 84.5693 235.248C84.9053 235.435 85.162 235.663 85.3393 235.934C85.5166 236.195 85.6053 236.527 85.6053 236.928Z" fill="black"/>
<path d="M45.528 272.326C45.528 273.213 45.206 273.903 44.562 274.398C43.918 274.893 43.05 275.14 41.958 275.14C41.398 275.14 40.88 275.098 40.404 275.014C39.928 274.93 39.5313 274.813 39.214 274.664V273.46C39.55 273.609 39.9653 273.745 40.46 273.866C40.964 273.987 41.482 274.048 42.014 274.048C42.7513 274.048 43.3113 273.903 43.694 273.614C44.0767 273.325 44.268 272.933 44.268 272.438C44.268 272.111 44.198 271.836 44.058 271.612C43.918 271.388 43.6753 271.183 43.33 270.996C42.9847 270.809 42.5133 270.604 41.916 270.38C41.0573 270.072 40.4133 269.694 39.984 269.246C39.5547 268.798 39.34 268.187 39.34 267.412C39.34 266.889 39.4753 266.437 39.746 266.054C40.0167 265.671 40.39 265.377 40.866 265.172C41.342 264.967 41.8973 264.864 42.532 264.864C43.0733 264.864 43.5727 264.915 44.03 265.018C44.4873 265.121 44.9073 265.256 45.29 265.424L44.898 266.502C44.5527 266.353 44.1747 266.227 43.764 266.124C43.3533 266.021 42.9333 265.97 42.504 265.97C41.8787 265.97 41.4073 266.105 41.09 266.376C40.7727 266.637 40.614 266.987 40.614 267.426C40.614 267.762 40.684 268.042 40.824 268.266C40.964 268.49 41.1927 268.695 41.51 268.882C41.8273 269.059 42.2567 269.246 42.798 269.442C43.386 269.657 43.8807 269.89 44.282 270.142C44.6927 270.385 45.0007 270.679 45.206 271.024C45.4207 271.369 45.528 271.803 45.528 272.326ZM50.2156 267.37C51.1303 267.37 51.8069 267.571 52.2456 267.972C52.6843 268.373 52.9036 269.013 52.9036 269.89V275H52.0076L51.7696 273.936H51.7136C51.3869 274.347 51.0416 274.65 50.6776 274.846C50.3136 275.042 49.8189 275.14 49.1936 275.14C48.5123 275.14 47.9476 274.963 47.4996 274.608C47.0516 274.244 46.8276 273.679 46.8276 272.914C46.8276 272.167 47.1216 271.593 47.7096 271.192C48.2976 270.781 49.2029 270.557 50.4256 270.52L51.6996 270.478V270.03C51.6996 269.405 51.5643 268.971 51.2936 268.728C51.0229 268.485 50.6403 268.364 50.1456 268.364C49.7536 268.364 49.3803 268.425 49.0256 268.546C48.6709 268.658 48.3396 268.789 48.0316 268.938L47.6536 268.014C47.9803 267.837 48.3676 267.687 48.8156 267.566C49.2636 267.435 49.7303 267.37 50.2156 267.37ZM51.6856 271.332L50.5796 271.374C49.6463 271.411 48.9976 271.561 48.6336 271.822C48.2789 272.083 48.1016 272.452 48.1016 272.928C48.1016 273.348 48.2276 273.656 48.4796 273.852C48.7409 274.048 49.0723 274.146 49.4736 274.146C50.0989 274.146 50.6216 273.973 51.0416 273.628C51.4709 273.273 51.6856 272.732 51.6856 272.004V271.332ZM56.4533 275H55.2213V264.36H56.4533V275ZM61.7286 267.356C62.3633 267.356 62.914 267.496 63.3806 267.776C63.8473 268.056 64.202 268.453 64.4446 268.966C64.6966 269.47 64.8226 270.063 64.8226 270.744V271.486H59.6846C59.7033 272.335 59.918 272.984 60.3286 273.432C60.7486 273.871 61.332 274.09 62.0786 274.09C62.5546 274.09 62.9746 274.048 63.3386 273.964C63.712 273.871 64.0946 273.74 64.4866 273.572V274.65C64.104 274.818 63.726 274.939 63.3526 275.014C62.9793 275.098 62.536 275.14 62.0226 275.14C61.304 275.14 60.674 274.995 60.1326 274.706C59.5913 274.417 59.1666 273.987 58.8586 273.418C58.56 272.849 58.4106 272.144 58.4106 271.304C58.4106 270.483 58.546 269.778 58.8166 269.19C59.0966 268.602 59.484 268.149 59.9786 267.832C60.4826 267.515 61.066 267.356 61.7286 267.356ZM61.7146 268.364C61.1266 268.364 60.66 268.555 60.3146 268.938C59.9786 269.311 59.778 269.834 59.7126 270.506H63.5346C63.5253 269.871 63.376 269.358 63.0866 268.966C62.7973 268.565 62.34 268.364 61.7146 268.364ZM71.619 272.928C71.619 273.656 71.3483 274.207 70.807 274.58C70.2656 274.953 69.5376 275.14 68.623 275.14C68.1003 275.14 67.6476 275.098 67.265 275.014C66.8916 274.93 66.5603 274.813 66.271 274.664V273.544C66.5696 273.693 66.929 273.833 67.349 273.964C67.7783 274.085 68.2123 274.146 68.651 274.146C69.2763 274.146 69.729 274.048 70.009 273.852C70.289 273.647 70.429 273.376 70.429 273.04C70.429 272.853 70.3776 272.685 70.275 272.536C70.1723 272.387 69.9856 272.237 69.715 272.088C69.4536 271.939 69.0756 271.771 68.581 271.584C68.0956 271.397 67.6803 271.211 67.335 271.024C66.9896 270.837 66.7236 270.613 66.537 270.352C66.3503 270.091 66.257 269.755 66.257 269.344C66.257 268.709 66.5136 268.219 67.027 267.874C67.5496 267.529 68.231 267.356 69.071 267.356C69.5283 267.356 69.953 267.403 70.345 267.496C70.7463 267.589 71.1196 267.711 71.465 267.86L71.045 268.84C70.7276 268.709 70.3963 268.597 70.051 268.504C69.7056 268.411 69.351 268.364 68.987 268.364C68.483 268.364 68.0956 268.448 67.825 268.616C67.5636 268.775 67.433 268.994 67.433 269.274C67.433 269.489 67.4936 269.666 67.615 269.806C67.7363 269.946 67.937 270.086 68.217 270.226C68.5063 270.366 68.889 270.525 69.365 270.702C69.841 270.879 70.247 271.061 70.583 271.248C70.919 271.435 71.1756 271.663 71.353 271.934C71.5303 272.195 71.619 272.527 71.619 272.928Z" fill="black"/>
<path d="M45.528 308.326C45.528 309.213 45.206 309.903 44.562 310.398C43.918 310.893 43.05 311.14 41.958 311.14C41.398 311.14 40.88 311.098 40.404 311.014C39.928 310.93 39.5313 310.813 39.214 310.664V309.46C39.55 309.609 39.9653 309.745 40.46 309.866C40.964 309.987 41.482 310.048 42.014 310.048C42.7513 310.048 43.3113 309.903 43.694 309.614C44.0767 309.325 44.268 308.933 44.268 308.438C44.268 308.111 44.198 307.836 44.058 307.612C43.918 307.388 43.6753 307.183 43.33 306.996C42.9847 306.809 42.5133 306.604 41.916 306.38C41.0573 306.072 40.4133 305.694 39.984 305.246C39.5547 304.798 39.34 304.187 39.34 303.412C39.34 302.889 39.4753 302.437 39.746 302.054C40.0167 301.671 40.39 301.377 40.866 301.172C41.342 300.967 41.8973 300.864 42.532 300.864C43.0733 300.864 43.5727 300.915 44.03 301.018C44.4873 301.121 44.9073 301.256 45.29 301.424L44.898 302.502C44.5527 302.353 44.1747 302.227 43.764 302.124C43.3533 302.021 42.9333 301.97 42.504 301.97C41.8787 301.97 41.4073 302.105 41.09 302.376C40.7727 302.637 40.614 302.987 40.614 303.426C40.614 303.762 40.684 304.042 40.824 304.266C40.964 304.49 41.1927 304.695 41.51 304.882C41.8273 305.059 42.2567 305.246 42.798 305.442C43.386 305.657 43.8807 305.89 44.282 306.142C44.6927 306.385 45.0007 306.679 45.206 307.024C45.4207 307.369 45.528 307.803 45.528 308.326ZM53.6456 303.496V311H52.6376L52.4556 310.006H52.3996C52.1569 310.398 51.8209 310.687 51.3916 310.874C50.9623 311.051 50.5049 311.14 50.0196 311.14C49.1143 311.14 48.4329 310.925 47.9756 310.496C47.5183 310.057 47.2896 309.362 47.2896 308.41V303.496H48.5356V308.326C48.5356 309.521 49.0909 310.118 50.2016 310.118C51.0323 310.118 51.6063 309.885 51.9236 309.418C52.2503 308.951 52.4136 308.279 52.4136 307.402V303.496H53.6456ZM59.5979 303.356C60.5219 303.356 61.2639 303.678 61.8239 304.322C62.3932 304.966 62.6779 305.937 62.6779 307.234C62.6779 308.513 62.3932 309.483 61.8239 310.146C61.2639 310.809 60.5172 311.14 59.5839 311.14C59.0052 311.14 58.5246 311.033 58.1419 310.818C57.7686 310.603 57.4746 310.347 57.2599 310.048H57.1759C57.1852 310.207 57.1992 310.407 57.2179 310.65C57.2459 310.893 57.2599 311.103 57.2599 311.28V314.36H56.0279V303.496H57.0359L57.2039 304.518H57.2599C57.4839 304.191 57.7779 303.916 58.1419 303.692C58.5059 303.468 58.9912 303.356 59.5979 303.356ZM59.3739 304.392C58.6086 304.392 58.0672 304.607 57.7499 305.036C57.4326 305.465 57.2692 306.119 57.2599 306.996V307.234C57.2599 308.158 57.4092 308.872 57.7079 309.376C58.0159 309.871 58.5806 310.118 59.4019 310.118C59.8499 310.118 60.2232 309.997 60.5219 309.754C60.8206 309.502 61.0399 309.157 61.1799 308.718C61.3292 308.279 61.4039 307.78 61.4039 307.22C61.4039 306.361 61.2359 305.675 60.8999 305.162C60.5732 304.649 60.0646 304.392 59.3739 304.392ZM68.2112 303.356C69.1352 303.356 69.8772 303.678 70.4372 304.322C71.0065 304.966 71.2912 305.937 71.2912 307.234C71.2912 308.513 71.0065 309.483 70.4372 310.146C69.8772 310.809 69.1305 311.14 68.1972 311.14C67.6185 311.14 67.1378 311.033 66.7552 310.818C66.3818 310.603 66.0878 310.347 65.8732 310.048H65.7892C65.7985 310.207 65.8125 310.407 65.8312 310.65C65.8592 310.893 65.8732 311.103 65.8732 311.28V314.36H64.6412V303.496H65.6492L65.8172 304.518H65.8732C66.0972 304.191 66.3912 303.916 66.7552 303.692C67.1192 303.468 67.6045 303.356 68.2112 303.356ZM67.9872 304.392C67.2218 304.392 66.6805 304.607 66.3632 305.036C66.0458 305.465 65.8825 306.119 65.8732 306.996V307.234C65.8732 308.158 66.0225 308.872 66.3212 309.376C66.6292 309.871 67.1938 310.118 68.0152 310.118C68.4632 310.118 68.8365 309.997 69.1352 309.754C69.4338 309.502 69.6532 309.157 69.7932 308.718C69.9425 308.279 70.0172 307.78 70.0172 307.22C70.0172 306.361 69.8492 305.675 69.5132 305.162C69.1865 304.649 68.6778 304.392 67.9872 304.392ZM79.7785 307.234C79.7785 308.475 79.4611 309.437 78.8265 310.118C78.2011 310.799 77.3518 311.14 76.2785 311.14C75.6158 311.14 75.0231 310.991 74.5005 310.692C73.9871 310.384 73.5811 309.941 73.2825 309.362C72.9838 308.774 72.8345 308.065 72.8345 307.234C72.8345 305.993 73.1425 305.036 73.7585 304.364C74.3838 303.692 75.2378 303.356 76.3205 303.356C76.9925 303.356 77.5898 303.51 78.1125 303.818C78.6351 304.117 79.0411 304.555 79.3305 305.134C79.6291 305.703 79.7785 306.403 79.7785 307.234ZM74.1085 307.234C74.1085 308.121 74.2811 308.825 74.6265 309.348C74.9811 309.861 75.5411 310.118 76.3065 310.118C77.0625 310.118 77.6178 309.861 77.9725 309.348C78.3271 308.825 78.5045 308.121 78.5045 307.234C78.5045 306.347 78.3271 305.652 77.9725 305.148C77.6178 304.644 77.0578 304.392 76.2925 304.392C75.5271 304.392 74.9718 304.644 74.6265 305.148C74.2811 305.652 74.1085 306.347 74.1085 307.234ZM85.231 303.356C85.371 303.356 85.5203 303.365 85.679 303.384C85.8377 303.393 85.9823 303.412 86.113 303.44L85.959 304.574C85.8377 304.546 85.7023 304.523 85.553 304.504C85.4037 304.485 85.2683 304.476 85.147 304.476C84.7643 304.476 84.405 304.583 84.069 304.798C83.733 305.003 83.4623 305.297 83.257 305.68C83.061 306.053 82.963 306.492 82.963 306.996V311H81.731V303.496H82.739L82.879 304.868H82.935C83.1683 304.457 83.4763 304.103 83.859 303.804C84.251 303.505 84.7083 303.356 85.231 303.356ZM90.0202 310.132C90.2069 310.132 90.3982 310.118 90.5942 310.09C90.7902 310.062 90.9489 310.025 91.0702 309.978V310.916C90.9396 310.981 90.7529 311.033 90.5102 311.07C90.2676 311.117 90.0342 311.14 89.8102 311.14C89.4182 311.14 89.0542 311.075 88.7182 310.944C88.3916 310.804 88.1256 310.566 87.9202 310.23C87.7149 309.894 87.6122 309.423 87.6122 308.816V304.448H86.5482V303.86L87.6262 303.37L88.1162 301.774H88.8442V303.496H91.0142V304.448H88.8442V308.788C88.8442 309.245 88.9516 309.586 89.1662 309.81C89.3902 310.025 89.6749 310.132 90.0202 310.132Z" fill="black"/>
<rect x="30" y="215.5" width="255" height="109" rx="4.5" stroke="black" stroke-opacity="0.15"/>
</g>
<g filter="url(#filter2_d_8122_375798)">
<rect x="539.5" y="76" width="254" height="160" rx="4" fill="white"/>
<rect x="548" y="84.5" width="197" height="35" rx="1.5" fill="white"/>
<rect x="548" y="84.5" width="197" height="35" rx="1.5" stroke="#939393"/>
<path fill-rule="evenodd" clip-rule="evenodd" d="M765.875 94.62C766.255 94.8044 766.551 95.1102 766.74 95.3364C766.785 95.3913 766.846 95.4635 766.917 95.5485C767.366 96.085 768.243 97.1344 768.607 97.6199C768.959 98.0883 768.907 98.5955 768.71 99.0014C768.527 99.3788 768.207 99.7081 767.918 99.9612C767.63 100.213 767.489 100.35 767.418 100.467C767.376 100.537 767.354 100.6 767.392 100.752C767.439 100.94 767.605 101.292 767.904 101.74C768.194 102.176 768.584 102.664 769.04 103.119C769.495 103.575 769.983 103.964 770.408 104.245C770.621 104.385 770.812 104.495 770.972 104.572C771.139 104.652 771.242 104.682 771.286 104.688C771.303 104.69 771.321 104.694 771.338 104.698C771.49 104.736 771.553 104.715 771.623 104.672C771.74 104.601 771.877 104.461 772.129 104.173C772.382 103.883 772.711 103.563 773.089 103.38C773.491 103.185 773.993 103.132 774.458 103.474C775.109 103.91 776.355 104.95 776.828 105.355C777.091 105.58 777.398 105.897 777.572 106.292C777.759 106.715 777.786 107.22 777.483 107.724C777.441 107.794 777.397 107.874 777.347 107.964C776.964 108.66 776.294 109.876 774.577 110.095C772.637 110.401 769.671 109.595 766.115 105.969C762.554 102.338 761.762 99.3791 761.994 97.5218C762.205 95.8342 763.447 95.1927 764.146 94.8312C764.258 94.7734 764.357 94.7227 764.434 94.676C764.955 94.3639 765.468 94.4228 765.875 94.62ZM765.426 95.5455C765.267 95.4684 765.129 95.4587 764.963 95.558C764.828 95.6393 764.688 95.7146 764.548 95.79C763.852 96.1642 763.154 96.5394 763.015 97.6494C762.836 99.0835 763.415 101.747 766.849 105.248C770.281 108.748 772.935 109.316 774.423 109.078C774.429 109.077 774.435 109.076 774.441 109.075C775.617 108.928 776.036 108.187 776.43 107.492C776.486 107.391 776.543 107.292 776.601 107.195C776.709 107.014 776.702 106.867 776.631 106.707C776.548 106.52 776.376 106.322 776.158 106.136C775.674 105.721 774.463 104.713 773.876 104.322C773.869 104.317 773.861 104.311 773.853 104.306C773.773 104.245 773.697 104.228 773.538 104.306C773.349 104.397 773.13 104.591 772.903 104.85C772.675 105.111 772.435 105.382 772.158 105.551C771.84 105.744 771.499 105.793 771.113 105.702C770.924 105.67 770.72 105.592 770.527 105.499C770.316 105.398 770.083 105.263 769.841 105.103C769.358 104.784 768.817 104.351 768.312 103.846C767.808 103.342 767.375 102.801 767.048 102.311C766.73 101.833 766.484 101.363 766.394 101.002C766.295 100.606 766.342 100.257 766.54 99.9325C766.708 99.6553 766.98 99.4151 767.24 99.1871C767.499 98.9603 767.693 98.741 767.785 98.5527C767.862 98.3928 767.845 98.3172 767.785 98.237C767.439 97.7768 766.589 96.7597 766.135 96.2168C766.061 96.1289 765.998 96.0535 765.95 95.9948C765.795 95.8096 765.611 95.6354 765.426 95.5455Z" fill="#1B77AF"/>
<rect width="254" height="36" transform="translate(539.5 128)" fill="#F1F1F1"/>
<path d="M554.528 148.326C554.528 149.213 554.206 149.903 553.562 150.398C552.918 150.893 552.05 151.14 550.958 151.14C550.398 151.14 549.88 151.098 549.404 151.014C548.928 150.93 548.531 150.813 548.214 150.664V149.46C548.55 149.609 548.965 149.745 549.46 149.866C549.964 149.987 550.482 150.048 551.014 150.048C551.751 150.048 552.311 149.903 552.694 149.614C553.077 149.325 553.268 148.933 553.268 148.438C553.268 148.111 553.198 147.836 553.058 147.612C552.918 147.388 552.675 147.183 552.33 146.996C551.985 146.809 551.513 146.604 550.916 146.38C550.057 146.072 549.413 145.694 548.984 145.246C548.555 144.798 548.34 144.187 548.34 143.412C548.34 142.889 548.475 142.437 548.746 142.054C549.017 141.671 549.39 141.377 549.866 141.172C550.342 140.967 550.897 140.864 551.532 140.864C552.073 140.864 552.573 140.915 553.03 141.018C553.487 141.121 553.907 141.256 554.29 141.424L553.898 142.502C553.553 142.353 553.175 142.227 552.764 142.124C552.353 142.021 551.933 141.97 551.504 141.97C550.879 141.97 550.407 142.105 550.09 142.376C549.773 142.637 549.614 142.987 549.614 143.426C549.614 143.762 549.684 144.042 549.824 144.266C549.964 144.49 550.193 144.695 550.51 144.882C550.827 145.059 551.257 145.246 551.798 145.442C552.386 145.657 552.881 145.89 553.282 146.142C553.693 146.385 554.001 146.679 554.206 147.024C554.421 147.369 554.528 147.803 554.528 148.326ZM559.272 143.356C559.906 143.356 560.457 143.496 560.924 143.776C561.39 144.056 561.745 144.453 561.988 144.966C562.24 145.47 562.366 146.063 562.366 146.744V147.486H557.228C557.246 148.335 557.461 148.984 557.872 149.432C558.292 149.871 558.875 150.09 559.622 150.09C560.098 150.09 560.518 150.048 560.882 149.964C561.255 149.871 561.638 149.74 562.03 149.572V150.65C561.647 150.818 561.269 150.939 560.896 151.014C560.522 151.098 560.079 151.14 559.566 151.14C558.847 151.14 558.217 150.995 557.676 150.706C557.134 150.417 556.71 149.987 556.402 149.418C556.103 148.849 555.954 148.144 555.954 147.304C555.954 146.483 556.089 145.778 556.36 145.19C556.64 144.602 557.027 144.149 557.522 143.832C558.026 143.515 558.609 143.356 559.272 143.356ZM559.258 144.364C558.67 144.364 558.203 144.555 557.858 144.938C557.522 145.311 557.321 145.834 557.256 146.506H561.078C561.068 145.871 560.919 145.358 560.63 144.966C560.34 144.565 559.883 144.364 559.258 144.364ZM567.776 143.356C567.916 143.356 568.065 143.365 568.224 143.384C568.383 143.393 568.527 143.412 568.658 143.44L568.504 144.574C568.383 144.546 568.247 144.523 568.098 144.504C567.949 144.485 567.813 144.476 567.692 144.476C567.309 144.476 566.95 144.583 566.614 144.798C566.278 145.003 566.007 145.297 565.802 145.68C565.606 146.053 565.508 146.492 565.508 146.996V151H564.276V143.496H565.284L565.424 144.868H565.48C565.713 144.457 566.021 144.103 566.404 143.804C566.796 143.505 567.253 143.356 567.776 143.356ZM571.711 151L568.869 143.496H570.185L571.781 147.92C571.856 148.125 571.935 148.354 572.019 148.606C572.103 148.858 572.178 149.101 572.243 149.334C572.308 149.567 572.355 149.759 572.383 149.908H572.439C572.467 149.759 572.518 149.567 572.593 149.334C572.668 149.091 572.747 148.849 572.831 148.606C572.915 148.354 572.994 148.125 573.069 147.92L574.665 143.496H575.981L573.125 151H571.711ZM577.799 140.682C577.985 140.682 578.149 140.747 578.289 140.878C578.438 140.999 578.513 141.195 578.513 141.466C578.513 141.737 578.438 141.937 578.289 142.068C578.149 142.189 577.985 142.25 577.799 142.25C577.593 142.25 577.421 142.189 577.281 142.068C577.141 141.937 577.071 141.737 577.071 141.466C577.071 141.195 577.141 140.999 577.281 140.878C577.421 140.747 577.593 140.682 577.799 140.682ZM578.401 143.496V151H577.169V143.496H578.401ZM583.788 151.14C583.116 151.14 582.523 151.005 582.01 150.734C581.497 150.463 581.091 150.043 580.792 149.474C580.503 148.905 580.358 148.177 580.358 147.29C580.358 146.366 580.507 145.615 580.806 145.036C581.114 144.457 581.534 144.033 582.066 143.762C582.598 143.491 583.2 143.356 583.872 143.356C584.245 143.356 584.609 143.398 584.964 143.482C585.328 143.557 585.622 143.65 585.846 143.762L585.468 144.784C585.244 144.7 584.983 144.621 584.684 144.546C584.385 144.471 584.105 144.434 583.844 144.434C582.369 144.434 581.632 145.381 581.632 147.276C581.632 148.181 581.809 148.877 582.164 149.362C582.528 149.838 583.065 150.076 583.774 150.076C584.175 150.076 584.535 150.034 584.852 149.95C585.169 149.866 585.459 149.763 585.72 149.642V150.734C585.468 150.865 585.188 150.963 584.88 151.028C584.581 151.103 584.217 151.14 583.788 151.14ZM590.402 143.356C591.037 143.356 591.588 143.496 592.054 143.776C592.521 144.056 592.876 144.453 593.118 144.966C593.37 145.47 593.496 146.063 593.496 146.744V147.486H588.358C588.377 148.335 588.592 148.984 589.002 149.432C589.422 149.871 590.006 150.09 590.752 150.09C591.228 150.09 591.648 150.048 592.012 149.964C592.386 149.871 592.768 149.74 593.16 149.572V150.65C592.778 150.818 592.4 150.939 592.026 151.014C591.653 151.098 591.21 151.14 590.696 151.14C589.978 151.14 589.348 150.995 588.806 150.706C588.265 150.417 587.84 149.987 587.532 149.418C587.234 148.849 587.084 148.144 587.084 147.304C587.084 146.483 587.22 145.778 587.49 145.19C587.77 144.602 588.158 144.149 588.652 143.832C589.156 143.515 589.74 143.356 590.402 143.356ZM590.388 144.364C589.8 144.364 589.334 144.555 588.988 144.938C588.652 145.311 588.452 145.834 588.386 146.506H592.208C592.199 145.871 592.05 145.358 591.76 144.966C591.471 144.565 591.014 144.364 590.388 144.364ZM600.293 148.928C600.293 149.656 600.022 150.207 599.481 150.58C598.939 150.953 598.211 151.14 597.297 151.14C596.774 151.14 596.321 151.098 595.939 151.014C595.565 150.93 595.234 150.813 594.945 150.664V149.544C595.243 149.693 595.603 149.833 596.023 149.964C596.452 150.085 596.886 150.146 597.325 150.146C597.95 150.146 598.403 150.048 598.683 149.852C598.963 149.647 599.103 149.376 599.103 149.04C599.103 148.853 599.051 148.685 598.949 148.536C598.846 148.387 598.659 148.237 598.389 148.088C598.127 147.939 597.749 147.771 597.255 147.584C596.769 147.397 596.354 147.211 596.009 147.024C595.663 146.837 595.397 146.613 595.211 146.352C595.024 146.091 594.931 145.755 594.931 145.344C594.931 144.709 595.187 144.219 595.701 143.874C596.223 143.529 596.905 143.356 597.745 143.356C598.202 143.356 598.627 143.403 599.019 143.496C599.42 143.589 599.793 143.711 600.139 143.86L599.719 144.84C599.401 144.709 599.07 144.597 598.725 144.504C598.379 144.411 598.025 144.364 597.661 144.364C597.157 144.364 596.769 144.448 596.499 144.616C596.237 144.775 596.107 144.994 596.107 145.274C596.107 145.489 596.167 145.666 596.289 145.806C596.41 145.946 596.611 146.086 596.891 146.226C597.18 146.366 597.563 146.525 598.039 146.702C598.515 146.879 598.921 147.061 599.257 147.248C599.593 147.435 599.849 147.663 600.027 147.934C600.204 148.195 600.293 148.527 600.293 148.928Z" fill="black"/>
<path d="M774.912 151.962C774.812 151.962 774.712 151.913 774.662 151.863C774.513 151.713 774.513 151.462 774.662 151.312L779.962 146.012L774.612 140.662C774.463 140.512 774.463 140.263 774.612 140.113C774.762 139.962 775.012 139.962 775.162 140.113L780.762 145.712C780.812 145.762 780.862 145.862 780.862 145.962C780.862 146.062 780.812 146.162 780.762 146.212L775.162 151.863C775.062 151.963 774.963 151.962 774.912 151.962Z" fill="black"/>
<path d="M556.46 177.004V183.472C556.46 184.163 556.32 184.788 556.04 185.348C555.76 185.899 555.331 186.337 554.752 186.664C554.173 186.981 553.445 187.14 552.568 187.14C551.317 187.14 550.37 186.804 549.726 186.132C549.082 185.451 548.76 184.555 548.76 183.444V177.004H550.02V183.486C550.02 184.298 550.235 184.928 550.664 185.376C551.103 185.824 551.761 186.048 552.638 186.048C553.543 186.048 554.197 185.81 554.598 185.334C555.009 184.849 555.214 184.228 555.214 183.472V177.004H556.46ZM563.816 184.928C563.816 185.656 563.546 186.207 563.004 186.58C562.463 186.953 561.735 187.14 560.82 187.14C560.298 187.14 559.845 187.098 559.462 187.014C559.089 186.93 558.758 186.813 558.468 186.664V185.544C558.767 185.693 559.126 185.833 559.546 185.964C559.976 186.085 560.41 186.146 560.848 186.146C561.474 186.146 561.926 186.048 562.206 185.852C562.486 185.647 562.626 185.376 562.626 185.04C562.626 184.853 562.575 184.685 562.472 184.536C562.37 184.387 562.183 184.237 561.912 184.088C561.651 183.939 561.273 183.771 560.778 183.584C560.293 183.397 559.878 183.211 559.532 183.024C559.187 182.837 558.921 182.613 558.734 182.352C558.548 182.091 558.454 181.755 558.454 181.344C558.454 180.709 558.711 180.219 559.224 179.874C559.747 179.529 560.428 179.356 561.268 179.356C561.726 179.356 562.15 179.403 562.542 179.496C562.944 179.589 563.317 179.711 563.662 179.86L563.242 180.84C562.925 180.709 562.594 180.597 562.248 180.504C561.903 180.411 561.548 180.364 561.184 180.364C560.68 180.364 560.293 180.448 560.022 180.616C559.761 180.775 559.63 180.994 559.63 181.274C559.63 181.489 559.691 181.666 559.812 181.806C559.934 181.946 560.134 182.086 560.414 182.226C560.704 182.366 561.086 182.525 561.562 182.702C562.038 182.879 562.444 183.061 562.78 183.248C563.116 183.435 563.373 183.663 563.55 183.934C563.728 184.195 563.816 184.527 563.816 184.928ZM568.527 179.356C569.162 179.356 569.713 179.496 570.179 179.776C570.646 180.056 571.001 180.453 571.243 180.966C571.495 181.47 571.621 182.063 571.621 182.744V183.486H566.483C566.502 184.335 566.717 184.984 567.127 185.432C567.547 185.871 568.131 186.09 568.877 186.09C569.353 186.09 569.773 186.048 570.137 185.964C570.511 185.871 570.893 185.74 571.285 185.572V186.65C570.903 186.818 570.525 186.939 570.151 187.014C569.778 187.098 569.335 187.14 568.821 187.14C568.103 187.14 567.473 186.995 566.931 186.706C566.39 186.417 565.965 185.987 565.657 185.418C565.359 184.849 565.209 184.144 565.209 183.304C565.209 182.483 565.345 181.778 565.615 181.19C565.895 180.602 566.283 180.149 566.777 179.832C567.281 179.515 567.865 179.356 568.527 179.356ZM568.513 180.364C567.925 180.364 567.459 180.555 567.113 180.938C566.777 181.311 566.577 181.834 566.511 182.506H570.333C570.324 181.871 570.175 181.358 569.885 180.966C569.596 180.565 569.139 180.364 568.513 180.364ZM577.032 179.356C577.172 179.356 577.321 179.365 577.48 179.384C577.638 179.393 577.783 179.412 577.914 179.44L577.76 180.574C577.638 180.546 577.503 180.523 577.354 180.504C577.204 180.485 577.069 180.476 576.948 180.476C576.565 180.476 576.206 180.583 575.87 180.798C575.534 181.003 575.263 181.297 575.058 181.68C574.862 182.053 574.764 182.492 574.764 182.996V187H573.532V179.496H574.54L574.68 180.868H574.736C574.969 180.457 575.277 180.103 575.66 179.804C576.052 179.505 576.509 179.356 577.032 179.356ZM584.201 184.928C584.201 185.656 583.93 186.207 583.389 186.58C582.848 186.953 582.12 187.14 581.205 187.14C580.682 187.14 580.23 187.098 579.847 187.014C579.474 186.93 579.142 186.813 578.853 186.664V185.544C579.152 185.693 579.511 185.833 579.931 185.964C580.36 186.085 580.794 186.146 581.233 186.146C581.858 186.146 582.311 186.048 582.591 185.852C582.871 185.647 583.011 185.376 583.011 185.04C583.011 184.853 582.96 184.685 582.857 184.536C582.754 184.387 582.568 184.237 582.297 184.088C582.036 183.939 581.658 183.771 581.163 183.584C580.678 183.397 580.262 183.211 579.917 183.024C579.572 182.837 579.306 182.613 579.119 182.352C578.932 182.091 578.839 181.755 578.839 181.344C578.839 180.709 579.096 180.219 579.609 179.874C580.132 179.529 580.813 179.356 581.653 179.356C582.11 179.356 582.535 179.403 582.927 179.496C583.328 179.589 583.702 179.711 584.047 179.86L583.627 180.84C583.31 180.709 582.978 180.597 582.633 180.504C582.288 180.411 581.933 180.364 581.569 180.364C581.065 180.364 580.678 180.448 580.407 180.616C580.146 180.775 580.015 180.994 580.015 181.274C580.015 181.489 580.076 181.666 580.197 181.806C580.318 181.946 580.519 182.086 580.799 182.226C581.088 182.366 581.471 182.525 581.947 182.702C582.423 182.879 582.829 183.061 583.165 183.248C583.501 183.435 583.758 183.663 583.935 183.934C584.112 184.195 584.201 184.527 584.201 184.928Z" fill="black"/>
<path d="M774.912 187.962C774.812 187.962 774.712 187.913 774.662 187.863C774.513 187.713 774.513 187.462 774.662 187.312L779.962 182.012L774.612 176.662C774.463 176.512 774.463 176.263 774.612 176.113C774.762 175.962 775.012 175.962 775.162 176.113L780.762 181.712C780.812 181.762 780.862 181.862 780.862 181.962C780.862 182.062 780.812 182.162 780.762 182.212L775.162 187.863C775.062 187.963 774.963 187.962 774.912 187.962Z" fill="black"/>
<path d="M552.022 223H550.762V214.11H547.64V213.004H555.13V214.11H552.022V223ZM558.383 215.356C559.018 215.356 559.568 215.496 560.035 215.776C560.502 216.056 560.856 216.453 561.099 216.966C561.351 217.47 561.477 218.063 561.477 218.744V219.486H556.339C556.358 220.335 556.572 220.984 556.983 221.432C557.403 221.871 557.986 222.09 558.733 222.09C559.209 222.09 559.629 222.048 559.993 221.964C560.366 221.871 560.749 221.74 561.141 221.572V222.65C560.758 222.818 560.38 222.939 560.007 223.014C559.634 223.098 559.19 223.14 558.677 223.14C557.958 223.14 557.328 222.995 556.787 222.706C556.246 222.417 555.821 221.987 555.513 221.418C555.214 220.849 555.065 220.144 555.065 219.304C555.065 218.483 555.2 217.778 555.471 217.19C555.751 216.602 556.138 216.149 556.633 215.832C557.137 215.515 557.72 215.356 558.383 215.356ZM558.369 216.364C557.781 216.364 557.314 216.555 556.969 216.938C556.633 217.311 556.432 217.834 556.367 218.506H560.189C560.18 217.871 560.03 217.358 559.741 216.966C559.452 216.565 558.994 216.364 558.369 216.364ZM566.229 215.37C567.144 215.37 567.821 215.571 568.259 215.972C568.698 216.373 568.917 217.013 568.917 217.89V223H568.021L567.783 221.936H567.727C567.401 222.347 567.055 222.65 566.691 222.846C566.327 223.042 565.833 223.14 565.207 223.14C564.526 223.14 563.961 222.963 563.513 222.608C563.065 222.244 562.841 221.679 562.841 220.914C562.841 220.167 563.135 219.593 563.723 219.192C564.311 218.781 565.217 218.557 566.439 218.52L567.713 218.478V218.03C567.713 217.405 567.578 216.971 567.307 216.728C567.037 216.485 566.654 216.364 566.159 216.364C565.767 216.364 565.394 216.425 565.039 216.546C564.685 216.658 564.353 216.789 564.045 216.938L563.667 216.014C563.994 215.837 564.381 215.687 564.829 215.566C565.277 215.435 565.744 215.37 566.229 215.37ZM567.699 219.332L566.593 219.374C565.66 219.411 565.011 219.561 564.647 219.822C564.293 220.083 564.115 220.452 564.115 220.928C564.115 221.348 564.241 221.656 564.493 221.852C564.755 222.048 565.086 222.146 565.487 222.146C566.113 222.146 566.635 221.973 567.055 221.628C567.485 221.273 567.699 220.732 567.699 220.004V219.332ZM579.467 215.356C580.316 215.356 580.951 215.575 581.371 216.014C581.791 216.453 582.001 217.153 582.001 218.114V223H580.783V218.17C580.783 216.985 580.274 216.392 579.257 216.392C578.529 216.392 578.006 216.602 577.689 217.022C577.381 217.442 577.227 218.053 577.227 218.856V223H576.009V218.17C576.009 216.985 575.496 216.392 574.469 216.392C573.713 216.392 573.19 216.625 572.901 217.092C572.612 217.559 572.467 218.231 572.467 219.108V223H571.235V215.496H572.229L572.411 216.518H572.481C572.714 216.126 573.027 215.837 573.419 215.65C573.82 215.454 574.245 215.356 574.693 215.356C575.869 215.356 576.634 215.776 576.989 216.616H577.059C577.311 216.187 577.652 215.869 578.081 215.664C578.51 215.459 578.972 215.356 579.467 215.356Z" fill="black"/>
<path d="M774.912 223.962C774.812 223.962 774.712 223.913 774.662 223.863C774.513 223.713 774.513 223.462 774.662 223.312L779.962 218.012L774.612 212.662C774.463 212.512 774.463 212.263 774.612 212.113C774.762 211.962 775.012 211.962 775.162 212.113L780.762 217.712C780.812 217.762 780.862 217.862 780.862 217.962C780.862 218.062 780.812 218.162 780.762 218.212L775.162 223.863C775.062 223.963 774.963 223.962 774.912 223.962Z" fill="black"/>
<rect x="539" y="75.5" width="255" height="161" rx="4.5" stroke="black" stroke-opacity="0.15"/>
</g>
<rect x="695.5" y="40" width="98" height="36" rx="2" fill="#1B77AF"/>
<path d="M719.13 63L717.926 59.906H713.964L712.774 63H711.5L715.406 52.962H716.54L720.432 63H719.13ZM717.548 58.786L716.428 55.762C716.4 55.6873 716.353 55.552 716.288 55.356C716.223 55.16 716.157 54.9593 716.092 54.754C716.036 54.5393 715.989 54.376 715.952 54.264C715.877 54.5533 715.798 54.838 715.714 55.118C715.639 55.3887 715.574 55.6033 715.518 55.762L714.384 58.786H717.548ZM724.641 63.14C723.969 63.14 723.377 63.0047 722.863 62.734C722.35 62.4633 721.944 62.0433 721.645 61.474C721.356 60.9047 721.211 60.1767 721.211 59.29C721.211 58.366 721.361 57.6147 721.659 57.036C721.967 56.4573 722.387 56.0327 722.919 55.762C723.451 55.4913 724.053 55.356 724.725 55.356C725.099 55.356 725.463 55.398 725.817 55.482C726.181 55.5567 726.475 55.65 726.699 55.762L726.321 56.784C726.097 56.7 725.836 56.6207 725.537 56.546C725.239 56.4713 724.959 56.434 724.697 56.434C723.223 56.434 722.485 57.3813 722.485 59.276C722.485 60.1813 722.663 60.8767 723.017 61.362C723.381 61.838 723.918 62.076 724.627 62.076C725.029 62.076 725.388 62.034 725.705 61.95C726.023 61.866 726.312 61.7633 726.573 61.642V62.734C726.321 62.8647 726.041 62.9627 725.733 63.028C725.435 63.1027 725.071 63.14 724.641 63.14ZM730.864 62.132C731.051 62.132 731.242 62.118 731.438 62.09C731.634 62.062 731.793 62.0247 731.914 61.978V62.916C731.783 62.9813 731.597 63.0327 731.354 63.07C731.111 63.1167 730.878 63.14 730.654 63.14C730.262 63.14 729.898 63.0747 729.562 62.944C729.235 62.804 728.969 62.566 728.764 62.23C728.559 61.894 728.456 61.4227 728.456 60.816V56.448H727.392V55.86L728.47 55.37L728.96 53.774H729.688V55.496H731.858V56.448H729.688V60.788C729.688 61.2453 729.795 61.586 730.01 61.81C730.234 62.0247 730.519 62.132 730.864 62.132ZM734.047 52.682C734.233 52.682 734.397 52.7473 734.537 52.878C734.686 52.9993 734.761 53.1953 734.761 53.466C734.761 53.7367 734.686 53.9373 734.537 54.068C734.397 54.1893 734.233 54.25 734.047 54.25C733.841 54.25 733.669 54.1893 733.529 54.068C733.389 53.9373 733.319 53.7367 733.319 53.466C733.319 53.1953 733.389 52.9993 733.529 52.878C733.669 52.7473 733.841 52.682 734.047 52.682ZM734.649 55.496V63H733.417V55.496H734.649ZM743.55 59.234C743.55 60.4753 743.233 61.4367 742.598 62.118C741.973 62.7993 741.123 63.14 740.05 63.14C739.387 63.14 738.795 62.9907 738.272 62.692C737.759 62.384 737.353 61.9407 737.054 61.362C736.755 60.774 736.606 60.0647 736.606 59.234C736.606 57.9927 736.914 57.036 737.53 56.364C738.155 55.692 739.009 55.356 740.092 55.356C740.764 55.356 741.361 55.51 741.884 55.818C742.407 56.1167 742.813 56.5553 743.102 57.134C743.401 57.7033 743.55 58.4033 743.55 59.234ZM737.88 59.234C737.88 60.1207 738.053 60.8253 738.398 61.348C738.753 61.8613 739.313 62.118 740.078 62.118C740.834 62.118 741.389 61.8613 741.744 61.348C742.099 60.8253 742.276 60.1207 742.276 59.234C742.276 58.3473 742.099 57.652 741.744 57.148C741.389 56.644 740.829 56.392 740.064 56.392C739.299 56.392 738.743 56.644 738.398 57.148C738.053 57.652 737.88 58.3473 737.88 59.234ZM749.115 55.356C750.011 55.356 750.687 55.5753 751.145 56.014C751.602 56.4527 751.831 57.1527 751.831 58.114V63H750.613V58.198C750.613 56.994 750.053 56.392 748.933 56.392C748.102 56.392 747.528 56.6253 747.211 57.092C746.893 57.5587 746.735 58.2307 746.735 59.108V63H745.503V55.496H746.497L746.679 56.518H746.749C746.991 56.126 747.327 55.8367 747.757 55.65C748.186 55.454 748.639 55.356 749.115 55.356Z" fill="white"/>
<path d="M769.512 61.3625C769.412 61.3625 769.312 61.3125 769.262 61.2625L763.613 55.6625C763.462 55.5125 763.462 55.2625 763.613 55.1125C763.763 54.9625 764.012 54.9625 764.162 55.1125L769.512 60.4625L774.812 55.1125C774.962 54.9625 775.213 54.9625 775.363 55.1125C775.512 55.2625 775.512 55.5125 775.363 55.6625L769.762 61.2625C769.662 61.3125 769.612 61.3625 769.512 61.3625Z" fill="white"/>
<circle cx="144.5" cy="360" r="12" fill="#D51588"/>
<path d="M148.05 357.286C148.05 357.967 147.849 358.513 147.448 358.924C147.056 359.325 146.547 359.596 145.922 359.736V359.778C146.725 359.881 147.331 360.133 147.742 360.534C148.153 360.935 148.358 361.463 148.358 362.116C148.358 362.695 148.218 363.213 147.938 363.67C147.658 364.127 147.224 364.487 146.636 364.748C146.057 365.009 145.311 365.14 144.396 365.14C143.845 365.14 143.337 365.093 142.87 365C142.413 364.916 141.979 364.781 141.568 364.594V363.04C141.988 363.255 142.436 363.418 142.912 363.53C143.388 363.642 143.836 363.698 144.256 363.698C145.068 363.698 145.642 363.553 145.978 363.264C146.314 362.965 146.482 362.555 146.482 362.032C146.482 361.537 146.286 361.169 145.894 360.926C145.502 360.683 144.849 360.562 143.934 360.562H143.094V359.148H143.948C144.835 359.148 145.446 359.003 145.782 358.714C146.118 358.425 146.286 358.051 146.286 357.594C146.286 357.193 146.155 356.88 145.894 356.656C145.633 356.432 145.241 356.32 144.718 356.32C144.214 356.32 143.78 356.404 143.416 356.572C143.052 356.731 142.725 356.903 142.436 357.09L141.596 355.872C141.979 355.592 142.431 355.354 142.954 355.158C143.477 354.962 144.093 354.864 144.802 354.864C145.838 354.864 146.636 355.083 147.196 355.522C147.765 355.961 148.05 356.549 148.05 357.286Z" fill="white"/>
<circle cx="399.5" cy="360" r="12" fill="#D51588"/>
<path d="M403.442 365H396.596V363.698L399.144 361.122C399.648 360.609 400.059 360.17 400.376 359.806C400.703 359.442 400.941 359.101 401.09 358.784C401.249 358.457 401.328 358.107 401.328 357.734C401.328 357.277 401.197 356.936 400.936 356.712C400.684 356.479 400.339 356.362 399.9 356.362C399.48 356.362 399.088 356.451 398.724 356.628C398.36 356.796 397.982 357.039 397.59 357.356L396.624 356.194C397.035 355.839 397.497 355.531 398.01 355.27C398.533 354.999 399.195 354.864 399.998 354.864C400.642 354.864 401.193 354.981 401.65 355.214C402.117 355.438 402.476 355.755 402.728 356.166C402.98 356.567 403.106 357.029 403.106 357.552C403.106 358.093 402.999 358.593 402.784 359.05C402.569 359.498 402.257 359.951 401.846 360.408C401.445 360.856 400.964 361.341 400.404 361.864L398.822 363.39V363.474H403.442V365Z" fill="white"/>
<circle cx="654.5" cy="360" r="12" fill="#D51588"/>
<path d="M656.468 365H654.704V358.77C654.704 358.471 654.709 358.154 654.718 357.818C654.727 357.482 654.741 357.169 654.76 356.88C654.667 356.973 654.55 357.085 654.41 357.216C654.279 357.347 654.135 357.473 653.976 357.594L652.856 358.49L651.974 357.398L654.998 355.004H656.468V365Z" fill="white"/>
<path d="M388.5 360H156.5" stroke="#D51588" stroke-width="2"/>
<path d="M643.5 360H410.5" stroke="#D51588" stroke-width="2"/>
<defs>
<filter id="filter0_d_8122_375798" x="279.5" y="127" width="264" height="170" filterUnits="userSpaceOnUse" color-interpolation-filters="sRGB">
<feFlood flood-opacity="0" result="BackgroundImageFix"/>
<feColorMatrix in="SourceAlpha" type="matrix" values="0 0 0 0 0 0 0 0 0 0 0 0 0 0 0 0 0 0 127 0" result="hardAlpha"/>
<feOffset dy="4"/>
<feGaussianBlur stdDeviation="2"/>
<feColorMatrix type="matrix" values="0 0 0 0 0 0 0 0 0 0 0 0 0 0 0 0 0 0 0.25 0"/>
<feBlend mode="normal" in2="BackgroundImageFix" result="effect1_dropShadow_8122_375798"/>
<feBlend mode="normal" in="SourceGraphic" in2="effect1_dropShadow_8122_375798" result="shape"/>
</filter>
<filter id="filter1_d_8122_375798" x="25.5" y="215" width="264" height="118" filterUnits="userSpaceOnUse" color-interpolation-filters="sRGB">
<feFlood flood-opacity="0" result="BackgroundImageFix"/>
<feColorMatrix in="SourceAlpha" type="matrix" values="0 0 0 0 0 0 0 0 0 0 0 0 0 0 0 0 0 0 127 0" result="hardAlpha"/>
<feOffset dy="4"/>
<feGaussianBlur stdDeviation="2"/>
<feColorMatrix type="matrix" values="0 0 0 0 0 0 0 0 0 0 0 0 0 0 0 0 0 0 0.25 0"/>
<feBlend mode="normal" in2="BackgroundImageFix" result="effect1_dropShadow_8122_375798"/>
<feBlend mode="normal" in="SourceGraphic" in2="effect1_dropShadow_8122_375798" result="shape"/>
</filter>
<filter id="filter2_d_8122_375798" x="534.5" y="75" width="264" height="170" filterUnits="userSpaceOnUse" color-interpolation-filters="sRGB">
<feFlood flood-opacity="0" result="BackgroundImageFix"/>
<feColorMatrix in="SourceAlpha" type="matrix" values="0 0 0 0 0 0 0 0 0 0 0 0 0 0 0 0 0 0 127 0" result="hardAlpha"/>
<feOffset dy="4"/>
<feGaussianBlur stdDeviation="2"/>
<feColorMatrix type="matrix" values="0 0 0 0 0 0 0 0 0 0 0 0 0 0 0 0 0 0 0.25 0"/>
<feBlend mode="normal" in2="BackgroundImageFix" result="effect1_dropShadow_8122_375798"/>
<feBlend mode="normal" in="SourceGraphic" in2="effect1_dropShadow_8122_375798" result="shape"/>
</filter>
<clipPath id="clip0_8122_375798">
<rect x="284.5" y="128" width="254" height="160" rx="4" fill="white"/>
</clipPath>
</defs>
</svg>
