<svg width="696" height="432" viewBox="0 0 696 432" fill="none" xmlns="http://www.w3.org/2000/svg">
<rect width="696" height="432" fill="white"/>
<g filter="url(#filter0_d_8122_312397)">
<rect x="165" y="248" width="139" height="144" rx="4" fill="white"/>
<path d="M183.08 265.988C183.08 267.024 182.903 267.929 182.548 268.704C182.203 269.469 181.685 270.067 180.994 270.496C180.313 270.925 179.473 271.14 178.474 271.14C177.438 271.14 176.575 270.925 175.884 270.496C175.203 270.067 174.694 269.465 174.358 268.69C174.022 267.915 173.854 267.01 173.854 265.974C173.854 264.957 174.022 264.065 174.358 263.3C174.694 262.525 175.203 261.923 175.884 261.494C176.575 261.065 177.443 260.85 178.488 260.85C179.487 260.85 180.327 261.065 181.008 261.494C181.689 261.914 182.203 262.511 182.548 263.286C182.903 264.051 183.08 264.952 183.08 265.988ZM175.184 265.988C175.184 267.248 175.45 268.242 175.982 268.97C176.514 269.689 177.345 270.048 178.474 270.048C179.603 270.048 180.429 269.689 180.952 268.97C181.484 268.242 181.75 267.248 181.75 265.988C181.75 264.728 181.489 263.743 180.966 263.034C180.443 262.315 179.617 261.956 178.488 261.956C177.349 261.956 176.514 262.315 175.982 263.034C175.45 263.743 175.184 264.728 175.184 265.988ZM188.698 263.356C189.622 263.356 190.364 263.678 190.924 264.322C191.493 264.966 191.778 265.937 191.778 267.234C191.778 268.513 191.493 269.483 190.924 270.146C190.364 270.809 189.617 271.14 188.684 271.14C188.105 271.14 187.624 271.033 187.242 270.818C186.868 270.603 186.574 270.347 186.36 270.048H186.276C186.285 270.207 186.299 270.407 186.318 270.65C186.346 270.893 186.36 271.103 186.36 271.28V274.36H185.128V263.496H186.136L186.304 264.518H186.36C186.584 264.191 186.878 263.916 187.242 263.692C187.606 263.468 188.091 263.356 188.698 263.356ZM188.474 264.392C187.708 264.392 187.167 264.607 186.85 265.036C186.532 265.465 186.369 266.119 186.36 266.996V267.234C186.36 268.158 186.509 268.872 186.808 269.376C187.116 269.871 187.68 270.118 188.502 270.118C188.95 270.118 189.323 269.997 189.622 269.754C189.92 269.502 190.14 269.157 190.28 268.718C190.429 268.279 190.504 267.78 190.504 267.22C190.504 266.361 190.336 265.675 190 265.162C189.673 264.649 189.164 264.392 188.474 264.392ZM196.247 270.132C196.433 270.132 196.625 270.118 196.821 270.09C197.017 270.062 197.175 270.025 197.297 269.978V270.916C197.166 270.981 196.979 271.033 196.737 271.07C196.494 271.117 196.261 271.14 196.037 271.14C195.645 271.14 195.281 271.075 194.945 270.944C194.618 270.804 194.352 270.566 194.147 270.23C193.941 269.894 193.839 269.423 193.839 268.816V264.448H192.775V263.86L193.853 263.37L194.343 261.774H195.071V263.496H197.241V264.448H195.071V268.788C195.071 269.245 195.178 269.586 195.393 269.81C195.617 270.025 195.901 270.132 196.247 270.132ZM199.429 260.682C199.616 260.682 199.779 260.747 199.919 260.878C200.069 260.999 200.143 261.195 200.143 261.466C200.143 261.737 200.069 261.937 199.919 262.068C199.779 262.189 199.616 262.25 199.429 262.25C199.224 262.25 199.051 262.189 198.911 262.068C198.771 261.937 198.701 261.737 198.701 261.466C198.701 261.195 198.771 260.999 198.911 260.878C199.051 260.747 199.224 260.682 199.429 260.682ZM200.031 263.496V271H198.799V263.496H200.031ZM208.933 267.234C208.933 268.475 208.615 269.437 207.981 270.118C207.355 270.799 206.506 271.14 205.433 271.14C204.77 271.14 204.177 270.991 203.655 270.692C203.141 270.384 202.735 269.941 202.437 269.362C202.138 268.774 201.989 268.065 201.989 267.234C201.989 265.993 202.297 265.036 202.913 264.364C203.538 263.692 204.392 263.356 205.475 263.356C206.147 263.356 206.744 263.51 207.267 263.818C207.789 264.117 208.195 264.555 208.485 265.134C208.783 265.703 208.933 266.403 208.933 267.234ZM203.263 267.234C203.263 268.121 203.435 268.825 203.781 269.348C204.135 269.861 204.695 270.118 205.461 270.118C206.217 270.118 206.772 269.861 207.127 269.348C207.481 268.825 207.659 268.121 207.659 267.234C207.659 266.347 207.481 265.652 207.127 265.148C206.772 264.644 206.212 264.392 205.447 264.392C204.681 264.392 204.126 264.644 203.781 265.148C203.435 265.652 203.263 266.347 203.263 267.234ZM214.497 263.356C215.393 263.356 216.07 263.575 216.527 264.014C216.985 264.453 217.213 265.153 217.213 266.114V271H215.995V266.198C215.995 264.994 215.435 264.392 214.315 264.392C213.485 264.392 212.911 264.625 212.593 265.092C212.276 265.559 212.117 266.231 212.117 267.108V271H210.885V263.496H211.879L212.061 264.518H212.131C212.374 264.126 212.71 263.837 213.139 263.65C213.569 263.454 214.021 263.356 214.497 263.356ZM226.956 271H225.752V264.014C225.752 263.613 225.757 263.291 225.766 263.048C225.776 262.805 225.79 262.553 225.808 262.292C225.659 262.441 225.519 262.567 225.388 262.67C225.267 262.773 225.118 262.903 224.94 263.062L223.876 263.93L223.232 263.104L225.934 261.004H226.956V271Z" fill="black"/>
<path d="M183.08 301.988C183.08 303.024 182.903 303.929 182.548 304.704C182.203 305.469 181.685 306.067 180.994 306.496C180.313 306.925 179.473 307.14 178.474 307.14C177.438 307.14 176.575 306.925 175.884 306.496C175.203 306.067 174.694 305.465 174.358 304.69C174.022 303.915 173.854 303.01 173.854 301.974C173.854 300.957 174.022 300.065 174.358 299.3C174.694 298.525 175.203 297.923 175.884 297.494C176.575 297.065 177.443 296.85 178.488 296.85C179.487 296.85 180.327 297.065 181.008 297.494C181.689 297.914 182.203 298.511 182.548 299.286C182.903 300.051 183.08 300.952 183.08 301.988ZM175.184 301.988C175.184 303.248 175.45 304.242 175.982 304.97C176.514 305.689 177.345 306.048 178.474 306.048C179.603 306.048 180.429 305.689 180.952 304.97C181.484 304.242 181.75 303.248 181.75 301.988C181.75 300.728 181.489 299.743 180.966 299.034C180.443 298.315 179.617 297.956 178.488 297.956C177.349 297.956 176.514 298.315 175.982 299.034C175.45 299.743 175.184 300.728 175.184 301.988ZM188.698 299.356C189.622 299.356 190.364 299.678 190.924 300.322C191.493 300.966 191.778 301.937 191.778 303.234C191.778 304.513 191.493 305.483 190.924 306.146C190.364 306.809 189.617 307.14 188.684 307.14C188.105 307.14 187.624 307.033 187.242 306.818C186.868 306.603 186.574 306.347 186.36 306.048H186.276C186.285 306.207 186.299 306.407 186.318 306.65C186.346 306.893 186.36 307.103 186.36 307.28V310.36H185.128V299.496H186.136L186.304 300.518H186.36C186.584 300.191 186.878 299.916 187.242 299.692C187.606 299.468 188.091 299.356 188.698 299.356ZM188.474 300.392C187.708 300.392 187.167 300.607 186.85 301.036C186.532 301.465 186.369 302.119 186.36 302.996V303.234C186.36 304.158 186.509 304.872 186.808 305.376C187.116 305.871 187.68 306.118 188.502 306.118C188.95 306.118 189.323 305.997 189.622 305.754C189.92 305.502 190.14 305.157 190.28 304.718C190.429 304.279 190.504 303.78 190.504 303.22C190.504 302.361 190.336 301.675 190 301.162C189.673 300.649 189.164 300.392 188.474 300.392ZM196.247 306.132C196.433 306.132 196.625 306.118 196.821 306.09C197.017 306.062 197.175 306.025 197.297 305.978V306.916C197.166 306.981 196.979 307.033 196.737 307.07C196.494 307.117 196.261 307.14 196.037 307.14C195.645 307.14 195.281 307.075 194.945 306.944C194.618 306.804 194.352 306.566 194.147 306.23C193.941 305.894 193.839 305.423 193.839 304.816V300.448H192.775V299.86L193.853 299.37L194.343 297.774H195.071V299.496H197.241V300.448H195.071V304.788C195.071 305.245 195.178 305.586 195.393 305.81C195.617 306.025 195.901 306.132 196.247 306.132ZM199.429 296.682C199.616 296.682 199.779 296.747 199.919 296.878C200.069 296.999 200.143 297.195 200.143 297.466C200.143 297.737 200.069 297.937 199.919 298.068C199.779 298.189 199.616 298.25 199.429 298.25C199.224 298.25 199.051 298.189 198.911 298.068C198.771 297.937 198.701 297.737 198.701 297.466C198.701 297.195 198.771 296.999 198.911 296.878C199.051 296.747 199.224 296.682 199.429 296.682ZM200.031 299.496V307H198.799V299.496H200.031ZM208.933 303.234C208.933 304.475 208.615 305.437 207.981 306.118C207.355 306.799 206.506 307.14 205.433 307.14C204.77 307.14 204.177 306.991 203.655 306.692C203.141 306.384 202.735 305.941 202.437 305.362C202.138 304.774 201.989 304.065 201.989 303.234C201.989 301.993 202.297 301.036 202.913 300.364C203.538 299.692 204.392 299.356 205.475 299.356C206.147 299.356 206.744 299.51 207.267 299.818C207.789 300.117 208.195 300.555 208.485 301.134C208.783 301.703 208.933 302.403 208.933 303.234ZM203.263 303.234C203.263 304.121 203.435 304.825 203.781 305.348C204.135 305.861 204.695 306.118 205.461 306.118C206.217 306.118 206.772 305.861 207.127 305.348C207.481 304.825 207.659 304.121 207.659 303.234C207.659 302.347 207.481 301.652 207.127 301.148C206.772 300.644 206.212 300.392 205.447 300.392C204.681 300.392 204.126 300.644 203.781 301.148C203.435 301.652 203.263 302.347 203.263 303.234ZM214.497 299.356C215.393 299.356 216.07 299.575 216.527 300.014C216.985 300.453 217.213 301.153 217.213 302.114V307H215.995V302.198C215.995 300.994 215.435 300.392 214.315 300.392C213.485 300.392 212.911 300.625 212.593 301.092C212.276 301.559 212.117 302.231 212.117 303.108V307H210.885V299.496H211.879L212.061 300.518H212.131C212.374 300.126 212.71 299.837 213.139 299.65C213.569 299.454 214.021 299.356 214.497 299.356ZM229.266 307H222.658V305.978L225.276 303.332C225.771 302.828 226.191 302.38 226.536 301.988C226.891 301.596 227.157 301.213 227.334 300.84C227.512 300.467 227.6 300.051 227.6 299.594C227.6 299.043 227.437 298.628 227.11 298.348C226.784 298.059 226.359 297.914 225.836 297.914C225.342 297.914 224.912 297.998 224.548 298.166C224.184 298.334 223.811 298.567 223.428 298.866L222.77 298.04C223.162 297.713 223.61 297.438 224.114 297.214C224.628 296.981 225.202 296.864 225.836 296.864C226.77 296.864 227.507 297.102 228.048 297.578C228.59 298.054 228.86 298.703 228.86 299.524C228.86 300.047 228.753 300.537 228.538 300.994C228.324 301.451 228.025 301.904 227.642 302.352C227.26 302.8 226.812 303.271 226.298 303.766L224.212 305.824V305.88H229.266V307Z" fill="black"/>
<path d="M183.08 337.988C183.08 339.024 182.903 339.929 182.548 340.704C182.203 341.469 181.685 342.067 180.994 342.496C180.313 342.925 179.473 343.14 178.474 343.14C177.438 343.14 176.575 342.925 175.884 342.496C175.203 342.067 174.694 341.465 174.358 340.69C174.022 339.915 173.854 339.01 173.854 337.974C173.854 336.957 174.022 336.065 174.358 335.3C174.694 334.525 175.203 333.923 175.884 333.494C176.575 333.065 177.443 332.85 178.488 332.85C179.487 332.85 180.327 333.065 181.008 333.494C181.689 333.914 182.203 334.511 182.548 335.286C182.903 336.051 183.08 336.952 183.08 337.988ZM175.184 337.988C175.184 339.248 175.45 340.242 175.982 340.97C176.514 341.689 177.345 342.048 178.474 342.048C179.603 342.048 180.429 341.689 180.952 340.97C181.484 340.242 181.75 339.248 181.75 337.988C181.75 336.728 181.489 335.743 180.966 335.034C180.443 334.315 179.617 333.956 178.488 333.956C177.349 333.956 176.514 334.315 175.982 335.034C175.45 335.743 175.184 336.728 175.184 337.988ZM188.698 335.356C189.622 335.356 190.364 335.678 190.924 336.322C191.493 336.966 191.778 337.937 191.778 339.234C191.778 340.513 191.493 341.483 190.924 342.146C190.364 342.809 189.617 343.14 188.684 343.14C188.105 343.14 187.624 343.033 187.242 342.818C186.868 342.603 186.574 342.347 186.36 342.048H186.276C186.285 342.207 186.299 342.407 186.318 342.65C186.346 342.893 186.36 343.103 186.36 343.28V346.36H185.128V335.496H186.136L186.304 336.518H186.36C186.584 336.191 186.878 335.916 187.242 335.692C187.606 335.468 188.091 335.356 188.698 335.356ZM188.474 336.392C187.708 336.392 187.167 336.607 186.85 337.036C186.532 337.465 186.369 338.119 186.36 338.996V339.234C186.36 340.158 186.509 340.872 186.808 341.376C187.116 341.871 187.68 342.118 188.502 342.118C188.95 342.118 189.323 341.997 189.622 341.754C189.92 341.502 190.14 341.157 190.28 340.718C190.429 340.279 190.504 339.78 190.504 339.22C190.504 338.361 190.336 337.675 190 337.162C189.673 336.649 189.164 336.392 188.474 336.392ZM196.247 342.132C196.433 342.132 196.625 342.118 196.821 342.09C197.017 342.062 197.175 342.025 197.297 341.978V342.916C197.166 342.981 196.979 343.033 196.737 343.07C196.494 343.117 196.261 343.14 196.037 343.14C195.645 343.14 195.281 343.075 194.945 342.944C194.618 342.804 194.352 342.566 194.147 342.23C193.941 341.894 193.839 341.423 193.839 340.816V336.448H192.775V335.86L193.853 335.37L194.343 333.774H195.071V335.496H197.241V336.448H195.071V340.788C195.071 341.245 195.178 341.586 195.393 341.81C195.617 342.025 195.901 342.132 196.247 342.132ZM199.429 332.682C199.616 332.682 199.779 332.747 199.919 332.878C200.069 332.999 200.143 333.195 200.143 333.466C200.143 333.737 200.069 333.937 199.919 334.068C199.779 334.189 199.616 334.25 199.429 334.25C199.224 334.25 199.051 334.189 198.911 334.068C198.771 333.937 198.701 333.737 198.701 333.466C198.701 333.195 198.771 332.999 198.911 332.878C199.051 332.747 199.224 332.682 199.429 332.682ZM200.031 335.496V343H198.799V335.496H200.031ZM208.933 339.234C208.933 340.475 208.615 341.437 207.981 342.118C207.355 342.799 206.506 343.14 205.433 343.14C204.77 343.14 204.177 342.991 203.655 342.692C203.141 342.384 202.735 341.941 202.437 341.362C202.138 340.774 201.989 340.065 201.989 339.234C201.989 337.993 202.297 337.036 202.913 336.364C203.538 335.692 204.392 335.356 205.475 335.356C206.147 335.356 206.744 335.51 207.267 335.818C207.789 336.117 208.195 336.555 208.485 337.134C208.783 337.703 208.933 338.403 208.933 339.234ZM203.263 339.234C203.263 340.121 203.435 340.825 203.781 341.348C204.135 341.861 204.695 342.118 205.461 342.118C206.217 342.118 206.772 341.861 207.127 341.348C207.481 340.825 207.659 340.121 207.659 339.234C207.659 338.347 207.481 337.652 207.127 337.148C206.772 336.644 206.212 336.392 205.447 336.392C204.681 336.392 204.126 336.644 203.781 337.148C203.435 337.652 203.263 338.347 203.263 339.234ZM214.497 335.356C215.393 335.356 216.07 335.575 216.527 336.014C216.985 336.453 217.213 337.153 217.213 338.114V343H215.995V338.198C215.995 336.994 215.435 336.392 214.315 336.392C213.485 336.392 212.911 336.625 212.593 337.092C212.276 337.559 212.117 338.231 212.117 339.108V343H210.885V335.496H211.879L212.061 336.518H212.131C212.374 336.126 212.71 335.837 213.139 335.65C213.569 335.454 214.021 335.356 214.497 335.356ZM228.888 335.342C228.888 336.014 228.697 336.551 228.314 336.952C227.941 337.344 227.442 337.605 226.816 337.736V337.792C227.61 337.885 228.202 338.137 228.594 338.548C228.996 338.959 229.196 339.495 229.196 340.158C229.196 340.746 229.061 341.264 228.79 341.712C228.52 342.16 228.1 342.51 227.53 342.762C226.97 343.014 226.247 343.14 225.36 343.14C224.838 343.14 224.352 343.098 223.904 343.014C223.456 342.939 223.027 342.799 222.616 342.594V341.446C223.036 341.661 223.489 341.824 223.974 341.936C224.46 342.048 224.926 342.104 225.374 342.104C226.27 342.104 226.914 341.931 227.306 341.586C227.708 341.231 227.908 340.746 227.908 340.13C227.908 339.505 227.661 339.057 227.166 338.786C226.681 338.506 225.995 338.366 225.108 338.366H224.142V337.316H225.122C225.944 337.316 226.564 337.143 226.984 336.798C227.414 336.453 227.628 335.995 227.628 335.426C227.628 334.941 227.465 334.567 227.138 334.306C226.812 334.035 226.368 333.9 225.808 333.9C225.267 333.9 224.805 333.979 224.422 334.138C224.04 334.297 223.662 334.497 223.288 334.74L222.672 333.9C223.027 333.62 223.466 333.377 223.988 333.172C224.52 332.967 225.122 332.864 225.794 332.864C226.84 332.864 227.614 333.097 228.118 333.564C228.632 334.031 228.888 334.623 228.888 335.342Z" fill="black"/>
<path d="M183.08 373.988C183.08 375.024 182.903 375.929 182.548 376.704C182.203 377.469 181.685 378.067 180.994 378.496C180.313 378.925 179.473 379.14 178.474 379.14C177.438 379.14 176.575 378.925 175.884 378.496C175.203 378.067 174.694 377.465 174.358 376.69C174.022 375.915 173.854 375.01 173.854 373.974C173.854 372.957 174.022 372.065 174.358 371.3C174.694 370.525 175.203 369.923 175.884 369.494C176.575 369.065 177.443 368.85 178.488 368.85C179.487 368.85 180.327 369.065 181.008 369.494C181.689 369.914 182.203 370.511 182.548 371.286C182.903 372.051 183.08 372.952 183.08 373.988ZM175.184 373.988C175.184 375.248 175.45 376.242 175.982 376.97C176.514 377.689 177.345 378.048 178.474 378.048C179.603 378.048 180.429 377.689 180.952 376.97C181.484 376.242 181.75 375.248 181.75 373.988C181.75 372.728 181.489 371.743 180.966 371.034C180.443 370.315 179.617 369.956 178.488 369.956C177.349 369.956 176.514 370.315 175.982 371.034C175.45 371.743 175.184 372.728 175.184 373.988ZM188.698 371.356C189.622 371.356 190.364 371.678 190.924 372.322C191.493 372.966 191.778 373.937 191.778 375.234C191.778 376.513 191.493 377.483 190.924 378.146C190.364 378.809 189.617 379.14 188.684 379.14C188.105 379.14 187.624 379.033 187.242 378.818C186.868 378.603 186.574 378.347 186.36 378.048H186.276C186.285 378.207 186.299 378.407 186.318 378.65C186.346 378.893 186.36 379.103 186.36 379.28V382.36H185.128V371.496H186.136L186.304 372.518H186.36C186.584 372.191 186.878 371.916 187.242 371.692C187.606 371.468 188.091 371.356 188.698 371.356ZM188.474 372.392C187.708 372.392 187.167 372.607 186.85 373.036C186.532 373.465 186.369 374.119 186.36 374.996V375.234C186.36 376.158 186.509 376.872 186.808 377.376C187.116 377.871 187.68 378.118 188.502 378.118C188.95 378.118 189.323 377.997 189.622 377.754C189.92 377.502 190.14 377.157 190.28 376.718C190.429 376.279 190.504 375.78 190.504 375.22C190.504 374.361 190.336 373.675 190 373.162C189.673 372.649 189.164 372.392 188.474 372.392ZM196.247 378.132C196.433 378.132 196.625 378.118 196.821 378.09C197.017 378.062 197.175 378.025 197.297 377.978V378.916C197.166 378.981 196.979 379.033 196.737 379.07C196.494 379.117 196.261 379.14 196.037 379.14C195.645 379.14 195.281 379.075 194.945 378.944C194.618 378.804 194.352 378.566 194.147 378.23C193.941 377.894 193.839 377.423 193.839 376.816V372.448H192.775V371.86L193.853 371.37L194.343 369.774H195.071V371.496H197.241V372.448H195.071V376.788C195.071 377.245 195.178 377.586 195.393 377.81C195.617 378.025 195.901 378.132 196.247 378.132ZM199.429 368.682C199.616 368.682 199.779 368.747 199.919 368.878C200.069 368.999 200.143 369.195 200.143 369.466C200.143 369.737 200.069 369.937 199.919 370.068C199.779 370.189 199.616 370.25 199.429 370.25C199.224 370.25 199.051 370.189 198.911 370.068C198.771 369.937 198.701 369.737 198.701 369.466C198.701 369.195 198.771 368.999 198.911 368.878C199.051 368.747 199.224 368.682 199.429 368.682ZM200.031 371.496V379H198.799V371.496H200.031ZM208.933 375.234C208.933 376.475 208.615 377.437 207.981 378.118C207.355 378.799 206.506 379.14 205.433 379.14C204.77 379.14 204.177 378.991 203.655 378.692C203.141 378.384 202.735 377.941 202.437 377.362C202.138 376.774 201.989 376.065 201.989 375.234C201.989 373.993 202.297 373.036 202.913 372.364C203.538 371.692 204.392 371.356 205.475 371.356C206.147 371.356 206.744 371.51 207.267 371.818C207.789 372.117 208.195 372.555 208.485 373.134C208.783 373.703 208.933 374.403 208.933 375.234ZM203.263 375.234C203.263 376.121 203.435 376.825 203.781 377.348C204.135 377.861 204.695 378.118 205.461 378.118C206.217 378.118 206.772 377.861 207.127 377.348C207.481 376.825 207.659 376.121 207.659 375.234C207.659 374.347 207.481 373.652 207.127 373.148C206.772 372.644 206.212 372.392 205.447 372.392C204.681 372.392 204.126 372.644 203.781 373.148C203.435 373.652 203.263 374.347 203.263 375.234ZM214.497 371.356C215.393 371.356 216.07 371.575 216.527 372.014C216.985 372.453 217.213 373.153 217.213 374.114V379H215.995V374.198C215.995 372.994 215.435 372.392 214.315 372.392C213.485 372.392 212.911 372.625 212.593 373.092C212.276 373.559 212.117 374.231 212.117 375.108V379H210.885V371.496H211.879L212.061 372.518H212.131C212.374 372.126 212.71 371.837 213.139 371.65C213.569 371.454 214.021 371.356 214.497 371.356ZM229.714 376.732H228.258V379H227.068V376.732H222.28V375.682L226.984 368.948H228.258V375.626H229.714V376.732ZM227.068 375.626V372.476C227.068 371.991 227.073 371.58 227.082 371.244C227.101 370.899 227.12 370.572 227.138 370.264H227.082C227.008 370.441 226.914 370.633 226.802 370.838C226.69 371.043 226.583 371.216 226.48 371.356L223.484 375.626H227.068Z" fill="black"/>
<rect x="164.5" y="247.5" width="140" height="145" rx="4.5" stroke="black" stroke-opacity="0.15"/>
</g>
<rect x="67" y="356" width="98" height="36" rx="2" fill="#1B77AF"/>
<path d="M90.63 379L89.426 375.906H85.464L84.274 379H83L86.906 368.962H88.04L91.932 379H90.63ZM89.048 374.786L87.928 371.762C87.9 371.687 87.8533 371.552 87.788 371.356C87.7227 371.16 87.6573 370.959 87.592 370.754C87.536 370.539 87.4893 370.376 87.452 370.264C87.3773 370.553 87.298 370.838 87.214 371.118C87.1393 371.389 87.074 371.603 87.018 371.762L85.884 374.786H89.048ZM96.1414 379.14C95.4694 379.14 94.8767 379.005 94.3634 378.734C93.8501 378.463 93.4441 378.043 93.1454 377.474C92.8561 376.905 92.7114 376.177 92.7114 375.29C92.7114 374.366 92.8607 373.615 93.1594 373.036C93.4674 372.457 93.8874 372.033 94.4194 371.762C94.9514 371.491 95.5534 371.356 96.2254 371.356C96.5987 371.356 96.9627 371.398 97.3174 371.482C97.6814 371.557 97.9754 371.65 98.1994 371.762L97.8214 372.784C97.5974 372.7 97.3361 372.621 97.0374 372.546C96.7387 372.471 96.4587 372.434 96.1974 372.434C94.7227 372.434 93.9854 373.381 93.9854 375.276C93.9854 376.181 94.1627 376.877 94.5174 377.362C94.8814 377.838 95.4181 378.076 96.1274 378.076C96.5287 378.076 96.8881 378.034 97.2054 377.95C97.5227 377.866 97.8121 377.763 98.0734 377.642V378.734C97.8214 378.865 97.5414 378.963 97.2334 379.028C96.9347 379.103 96.5707 379.14 96.1414 379.14ZM102.364 378.132C102.551 378.132 102.742 378.118 102.938 378.09C103.134 378.062 103.293 378.025 103.414 377.978V378.916C103.283 378.981 103.097 379.033 102.854 379.07C102.611 379.117 102.378 379.14 102.154 379.14C101.762 379.14 101.398 379.075 101.062 378.944C100.735 378.804 100.469 378.566 100.264 378.23C100.059 377.894 99.956 377.423 99.956 376.816V372.448H98.892V371.86L99.97 371.37L100.46 369.774H101.188V371.496H103.358V372.448H101.188V376.788C101.188 377.245 101.295 377.586 101.51 377.81C101.734 378.025 102.019 378.132 102.364 378.132ZM105.547 368.682C105.733 368.682 105.897 368.747 106.037 368.878C106.186 368.999 106.261 369.195 106.261 369.466C106.261 369.737 106.186 369.937 106.037 370.068C105.897 370.189 105.733 370.25 105.547 370.25C105.341 370.25 105.169 370.189 105.029 370.068C104.889 369.937 104.819 369.737 104.819 369.466C104.819 369.195 104.889 368.999 105.029 368.878C105.169 368.747 105.341 368.682 105.547 368.682ZM106.149 371.496V379H104.917V371.496H106.149ZM115.05 375.234C115.05 376.475 114.733 377.437 114.098 378.118C113.473 378.799 112.623 379.14 111.55 379.14C110.887 379.14 110.295 378.991 109.772 378.692C109.259 378.384 108.853 377.941 108.554 377.362C108.255 376.774 108.106 376.065 108.106 375.234C108.106 373.993 108.414 373.036 109.03 372.364C109.655 371.692 110.509 371.356 111.592 371.356C112.264 371.356 112.861 371.51 113.384 371.818C113.907 372.117 114.313 372.555 114.602 373.134C114.901 373.703 115.05 374.403 115.05 375.234ZM109.38 375.234C109.38 376.121 109.553 376.825 109.898 377.348C110.253 377.861 110.813 378.118 111.578 378.118C112.334 378.118 112.889 377.861 113.244 377.348C113.599 376.825 113.776 376.121 113.776 375.234C113.776 374.347 113.599 373.652 113.244 373.148C112.889 372.644 112.329 372.392 111.564 372.392C110.799 372.392 110.243 372.644 109.898 373.148C109.553 373.652 109.38 374.347 109.38 375.234ZM120.615 371.356C121.511 371.356 122.187 371.575 122.645 372.014C123.102 372.453 123.331 373.153 123.331 374.114V379H122.113V374.198C122.113 372.994 121.553 372.392 120.433 372.392C119.602 372.392 119.028 372.625 118.711 373.092C118.393 373.559 118.235 374.231 118.235 375.108V379H117.003V371.496H117.997L118.179 372.518H118.249C118.491 372.126 118.827 371.837 119.257 371.65C119.686 371.454 120.139 371.356 120.615 371.356Z" fill="white"/>
<path d="M141.012 377.362C140.912 377.362 140.812 377.312 140.762 377.262L135.113 371.662C134.962 371.512 134.962 371.262 135.113 371.112C135.263 370.963 135.512 370.963 135.662 371.112L141.012 376.462L146.312 371.112C146.462 370.963 146.713 370.963 146.863 371.112C147.012 371.262 147.012 371.512 146.863 371.662L141.262 377.262C141.162 377.312 141.112 377.362 141.012 377.362Z" fill="white"/>
<g filter="url(#filter1_d_8122_312397)">
<rect x="392" y="248" width="139" height="144" rx="4" fill="white"/>
<path d="M410.08 265.988C410.08 267.024 409.903 267.929 409.548 268.704C409.203 269.469 408.685 270.067 407.994 270.496C407.313 270.925 406.473 271.14 405.474 271.14C404.438 271.14 403.575 270.925 402.884 270.496C402.203 270.067 401.694 269.465 401.358 268.69C401.022 267.915 400.854 267.01 400.854 265.974C400.854 264.957 401.022 264.065 401.358 263.3C401.694 262.525 402.203 261.923 402.884 261.494C403.575 261.065 404.443 260.85 405.488 260.85C406.487 260.85 407.327 261.065 408.008 261.494C408.689 261.914 409.203 262.511 409.548 263.286C409.903 264.051 410.08 264.952 410.08 265.988ZM402.184 265.988C402.184 267.248 402.45 268.242 402.982 268.97C403.514 269.689 404.345 270.048 405.474 270.048C406.603 270.048 407.429 269.689 407.952 268.97C408.484 268.242 408.75 267.248 408.75 265.988C408.75 264.728 408.489 263.743 407.966 263.034C407.443 262.315 406.617 261.956 405.488 261.956C404.349 261.956 403.514 262.315 402.982 263.034C402.45 263.743 402.184 264.728 402.184 265.988ZM415.698 263.356C416.622 263.356 417.364 263.678 417.924 264.322C418.493 264.966 418.778 265.937 418.778 267.234C418.778 268.513 418.493 269.483 417.924 270.146C417.364 270.809 416.617 271.14 415.684 271.14C415.105 271.14 414.624 271.033 414.242 270.818C413.868 270.603 413.574 270.347 413.36 270.048H413.276C413.285 270.207 413.299 270.407 413.318 270.65C413.346 270.893 413.36 271.103 413.36 271.28V274.36H412.128V263.496H413.136L413.304 264.518H413.36C413.584 264.191 413.878 263.916 414.242 263.692C414.606 263.468 415.091 263.356 415.698 263.356ZM415.474 264.392C414.708 264.392 414.167 264.607 413.85 265.036C413.532 265.465 413.369 266.119 413.36 266.996V267.234C413.36 268.158 413.509 268.872 413.808 269.376C414.116 269.871 414.68 270.118 415.502 270.118C415.95 270.118 416.323 269.997 416.622 269.754C416.92 269.502 417.14 269.157 417.28 268.718C417.429 268.279 417.504 267.78 417.504 267.22C417.504 266.361 417.336 265.675 417 265.162C416.673 264.649 416.164 264.392 415.474 264.392ZM423.247 270.132C423.433 270.132 423.625 270.118 423.821 270.09C424.017 270.062 424.175 270.025 424.297 269.978V270.916C424.166 270.981 423.979 271.033 423.737 271.07C423.494 271.117 423.261 271.14 423.037 271.14C422.645 271.14 422.281 271.075 421.945 270.944C421.618 270.804 421.352 270.566 421.147 270.23C420.941 269.894 420.839 269.423 420.839 268.816V264.448H419.775V263.86L420.853 263.37L421.343 261.774H422.071V263.496H424.241V264.448H422.071V268.788C422.071 269.245 422.178 269.586 422.393 269.81C422.617 270.025 422.901 270.132 423.247 270.132ZM426.429 260.682C426.616 260.682 426.779 260.747 426.919 260.878C427.069 260.999 427.143 261.195 427.143 261.466C427.143 261.737 427.069 261.937 426.919 262.068C426.779 262.189 426.616 262.25 426.429 262.25C426.224 262.25 426.051 262.189 425.911 262.068C425.771 261.937 425.701 261.737 425.701 261.466C425.701 261.195 425.771 260.999 425.911 260.878C426.051 260.747 426.224 260.682 426.429 260.682ZM427.031 263.496V271H425.799V263.496H427.031ZM435.933 267.234C435.933 268.475 435.615 269.437 434.981 270.118C434.355 270.799 433.506 271.14 432.433 271.14C431.77 271.14 431.177 270.991 430.655 270.692C430.141 270.384 429.735 269.941 429.437 269.362C429.138 268.774 428.989 268.065 428.989 267.234C428.989 265.993 429.297 265.036 429.913 264.364C430.538 263.692 431.392 263.356 432.475 263.356C433.147 263.356 433.744 263.51 434.267 263.818C434.789 264.117 435.195 264.555 435.485 265.134C435.783 265.703 435.933 266.403 435.933 267.234ZM430.263 267.234C430.263 268.121 430.435 268.825 430.781 269.348C431.135 269.861 431.695 270.118 432.461 270.118C433.217 270.118 433.772 269.861 434.127 269.348C434.481 268.825 434.659 268.121 434.659 267.234C434.659 266.347 434.481 265.652 434.127 265.148C433.772 264.644 433.212 264.392 432.447 264.392C431.681 264.392 431.126 264.644 430.781 265.148C430.435 265.652 430.263 266.347 430.263 267.234ZM441.497 263.356C442.393 263.356 443.07 263.575 443.527 264.014C443.985 264.453 444.213 265.153 444.213 266.114V271H442.995V266.198C442.995 264.994 442.435 264.392 441.315 264.392C440.485 264.392 439.911 264.625 439.593 265.092C439.276 265.559 439.117 266.231 439.117 267.108V271H437.885V263.496H438.879L439.061 264.518H439.131C439.374 264.126 439.71 263.837 440.139 263.65C440.569 263.454 441.021 263.356 441.497 263.356ZM453.956 271H452.752V264.014C452.752 263.613 452.757 263.291 452.766 263.048C452.776 262.805 452.79 262.553 452.808 262.292C452.659 262.441 452.519 262.567 452.388 262.67C452.267 262.773 452.118 262.903 451.94 263.062L450.876 263.93L450.232 263.104L452.934 261.004H453.956V271Z" fill="black"/>
<path d="M410.08 301.988C410.08 303.024 409.903 303.929 409.548 304.704C409.203 305.469 408.685 306.067 407.994 306.496C407.313 306.925 406.473 307.14 405.474 307.14C404.438 307.14 403.575 306.925 402.884 306.496C402.203 306.067 401.694 305.465 401.358 304.69C401.022 303.915 400.854 303.01 400.854 301.974C400.854 300.957 401.022 300.065 401.358 299.3C401.694 298.525 402.203 297.923 402.884 297.494C403.575 297.065 404.443 296.85 405.488 296.85C406.487 296.85 407.327 297.065 408.008 297.494C408.689 297.914 409.203 298.511 409.548 299.286C409.903 300.051 410.08 300.952 410.08 301.988ZM402.184 301.988C402.184 303.248 402.45 304.242 402.982 304.97C403.514 305.689 404.345 306.048 405.474 306.048C406.603 306.048 407.429 305.689 407.952 304.97C408.484 304.242 408.75 303.248 408.75 301.988C408.75 300.728 408.489 299.743 407.966 299.034C407.443 298.315 406.617 297.956 405.488 297.956C404.349 297.956 403.514 298.315 402.982 299.034C402.45 299.743 402.184 300.728 402.184 301.988ZM415.698 299.356C416.622 299.356 417.364 299.678 417.924 300.322C418.493 300.966 418.778 301.937 418.778 303.234C418.778 304.513 418.493 305.483 417.924 306.146C417.364 306.809 416.617 307.14 415.684 307.14C415.105 307.14 414.624 307.033 414.242 306.818C413.868 306.603 413.574 306.347 413.36 306.048H413.276C413.285 306.207 413.299 306.407 413.318 306.65C413.346 306.893 413.36 307.103 413.36 307.28V310.36H412.128V299.496H413.136L413.304 300.518H413.36C413.584 300.191 413.878 299.916 414.242 299.692C414.606 299.468 415.091 299.356 415.698 299.356ZM415.474 300.392C414.708 300.392 414.167 300.607 413.85 301.036C413.532 301.465 413.369 302.119 413.36 302.996V303.234C413.36 304.158 413.509 304.872 413.808 305.376C414.116 305.871 414.68 306.118 415.502 306.118C415.95 306.118 416.323 305.997 416.622 305.754C416.92 305.502 417.14 305.157 417.28 304.718C417.429 304.279 417.504 303.78 417.504 303.22C417.504 302.361 417.336 301.675 417 301.162C416.673 300.649 416.164 300.392 415.474 300.392ZM423.247 306.132C423.433 306.132 423.625 306.118 423.821 306.09C424.017 306.062 424.175 306.025 424.297 305.978V306.916C424.166 306.981 423.979 307.033 423.737 307.07C423.494 307.117 423.261 307.14 423.037 307.14C422.645 307.14 422.281 307.075 421.945 306.944C421.618 306.804 421.352 306.566 421.147 306.23C420.941 305.894 420.839 305.423 420.839 304.816V300.448H419.775V299.86L420.853 299.37L421.343 297.774H422.071V299.496H424.241V300.448H422.071V304.788C422.071 305.245 422.178 305.586 422.393 305.81C422.617 306.025 422.901 306.132 423.247 306.132ZM426.429 296.682C426.616 296.682 426.779 296.747 426.919 296.878C427.069 296.999 427.143 297.195 427.143 297.466C427.143 297.737 427.069 297.937 426.919 298.068C426.779 298.189 426.616 298.25 426.429 298.25C426.224 298.25 426.051 298.189 425.911 298.068C425.771 297.937 425.701 297.737 425.701 297.466C425.701 297.195 425.771 296.999 425.911 296.878C426.051 296.747 426.224 296.682 426.429 296.682ZM427.031 299.496V307H425.799V299.496H427.031ZM435.933 303.234C435.933 304.475 435.615 305.437 434.981 306.118C434.355 306.799 433.506 307.14 432.433 307.14C431.77 307.14 431.177 306.991 430.655 306.692C430.141 306.384 429.735 305.941 429.437 305.362C429.138 304.774 428.989 304.065 428.989 303.234C428.989 301.993 429.297 301.036 429.913 300.364C430.538 299.692 431.392 299.356 432.475 299.356C433.147 299.356 433.744 299.51 434.267 299.818C434.789 300.117 435.195 300.555 435.485 301.134C435.783 301.703 435.933 302.403 435.933 303.234ZM430.263 303.234C430.263 304.121 430.435 304.825 430.781 305.348C431.135 305.861 431.695 306.118 432.461 306.118C433.217 306.118 433.772 305.861 434.127 305.348C434.481 304.825 434.659 304.121 434.659 303.234C434.659 302.347 434.481 301.652 434.127 301.148C433.772 300.644 433.212 300.392 432.447 300.392C431.681 300.392 431.126 300.644 430.781 301.148C430.435 301.652 430.263 302.347 430.263 303.234ZM441.497 299.356C442.393 299.356 443.07 299.575 443.527 300.014C443.985 300.453 444.213 301.153 444.213 302.114V307H442.995V302.198C442.995 300.994 442.435 300.392 441.315 300.392C440.485 300.392 439.911 300.625 439.593 301.092C439.276 301.559 439.117 302.231 439.117 303.108V307H437.885V299.496H438.879L439.061 300.518H439.131C439.374 300.126 439.71 299.837 440.139 299.65C440.569 299.454 441.021 299.356 441.497 299.356ZM456.266 307H449.658V305.978L452.276 303.332C452.771 302.828 453.191 302.38 453.536 301.988C453.891 301.596 454.157 301.213 454.334 300.84C454.512 300.467 454.6 300.051 454.6 299.594C454.6 299.043 454.437 298.628 454.11 298.348C453.784 298.059 453.359 297.914 452.836 297.914C452.342 297.914 451.912 297.998 451.548 298.166C451.184 298.334 450.811 298.567 450.428 298.866L449.77 298.04C450.162 297.713 450.61 297.438 451.114 297.214C451.628 296.981 452.202 296.864 452.836 296.864C453.77 296.864 454.507 297.102 455.048 297.578C455.59 298.054 455.86 298.703 455.86 299.524C455.86 300.047 455.753 300.537 455.538 300.994C455.324 301.451 455.025 301.904 454.642 302.352C454.26 302.8 453.812 303.271 453.298 303.766L451.212 305.824V305.88H456.266V307Z" fill="black"/>
<path d="M410.08 337.988C410.08 339.024 409.903 339.929 409.548 340.704C409.203 341.469 408.685 342.067 407.994 342.496C407.313 342.925 406.473 343.14 405.474 343.14C404.438 343.14 403.575 342.925 402.884 342.496C402.203 342.067 401.694 341.465 401.358 340.69C401.022 339.915 400.854 339.01 400.854 337.974C400.854 336.957 401.022 336.065 401.358 335.3C401.694 334.525 402.203 333.923 402.884 333.494C403.575 333.065 404.443 332.85 405.488 332.85C406.487 332.85 407.327 333.065 408.008 333.494C408.689 333.914 409.203 334.511 409.548 335.286C409.903 336.051 410.08 336.952 410.08 337.988ZM402.184 337.988C402.184 339.248 402.45 340.242 402.982 340.97C403.514 341.689 404.345 342.048 405.474 342.048C406.603 342.048 407.429 341.689 407.952 340.97C408.484 340.242 408.75 339.248 408.75 337.988C408.75 336.728 408.489 335.743 407.966 335.034C407.443 334.315 406.617 333.956 405.488 333.956C404.349 333.956 403.514 334.315 402.982 335.034C402.45 335.743 402.184 336.728 402.184 337.988ZM415.698 335.356C416.622 335.356 417.364 335.678 417.924 336.322C418.493 336.966 418.778 337.937 418.778 339.234C418.778 340.513 418.493 341.483 417.924 342.146C417.364 342.809 416.617 343.14 415.684 343.14C415.105 343.14 414.624 343.033 414.242 342.818C413.868 342.603 413.574 342.347 413.36 342.048H413.276C413.285 342.207 413.299 342.407 413.318 342.65C413.346 342.893 413.36 343.103 413.36 343.28V346.36H412.128V335.496H413.136L413.304 336.518H413.36C413.584 336.191 413.878 335.916 414.242 335.692C414.606 335.468 415.091 335.356 415.698 335.356ZM415.474 336.392C414.708 336.392 414.167 336.607 413.85 337.036C413.532 337.465 413.369 338.119 413.36 338.996V339.234C413.36 340.158 413.509 340.872 413.808 341.376C414.116 341.871 414.68 342.118 415.502 342.118C415.95 342.118 416.323 341.997 416.622 341.754C416.92 341.502 417.14 341.157 417.28 340.718C417.429 340.279 417.504 339.78 417.504 339.22C417.504 338.361 417.336 337.675 417 337.162C416.673 336.649 416.164 336.392 415.474 336.392ZM423.247 342.132C423.433 342.132 423.625 342.118 423.821 342.09C424.017 342.062 424.175 342.025 424.297 341.978V342.916C424.166 342.981 423.979 343.033 423.737 343.07C423.494 343.117 423.261 343.14 423.037 343.14C422.645 343.14 422.281 343.075 421.945 342.944C421.618 342.804 421.352 342.566 421.147 342.23C420.941 341.894 420.839 341.423 420.839 340.816V336.448H419.775V335.86L420.853 335.37L421.343 333.774H422.071V335.496H424.241V336.448H422.071V340.788C422.071 341.245 422.178 341.586 422.393 341.81C422.617 342.025 422.901 342.132 423.247 342.132ZM426.429 332.682C426.616 332.682 426.779 332.747 426.919 332.878C427.069 332.999 427.143 333.195 427.143 333.466C427.143 333.737 427.069 333.937 426.919 334.068C426.779 334.189 426.616 334.25 426.429 334.25C426.224 334.25 426.051 334.189 425.911 334.068C425.771 333.937 425.701 333.737 425.701 333.466C425.701 333.195 425.771 332.999 425.911 332.878C426.051 332.747 426.224 332.682 426.429 332.682ZM427.031 335.496V343H425.799V335.496H427.031ZM435.933 339.234C435.933 340.475 435.615 341.437 434.981 342.118C434.355 342.799 433.506 343.14 432.433 343.14C431.77 343.14 431.177 342.991 430.655 342.692C430.141 342.384 429.735 341.941 429.437 341.362C429.138 340.774 428.989 340.065 428.989 339.234C428.989 337.993 429.297 337.036 429.913 336.364C430.538 335.692 431.392 335.356 432.475 335.356C433.147 335.356 433.744 335.51 434.267 335.818C434.789 336.117 435.195 336.555 435.485 337.134C435.783 337.703 435.933 338.403 435.933 339.234ZM430.263 339.234C430.263 340.121 430.435 340.825 430.781 341.348C431.135 341.861 431.695 342.118 432.461 342.118C433.217 342.118 433.772 341.861 434.127 341.348C434.481 340.825 434.659 340.121 434.659 339.234C434.659 338.347 434.481 337.652 434.127 337.148C433.772 336.644 433.212 336.392 432.447 336.392C431.681 336.392 431.126 336.644 430.781 337.148C430.435 337.652 430.263 338.347 430.263 339.234ZM441.497 335.356C442.393 335.356 443.07 335.575 443.527 336.014C443.985 336.453 444.213 337.153 444.213 338.114V343H442.995V338.198C442.995 336.994 442.435 336.392 441.315 336.392C440.485 336.392 439.911 336.625 439.593 337.092C439.276 337.559 439.117 338.231 439.117 339.108V343H437.885V335.496H438.879L439.061 336.518H439.131C439.374 336.126 439.71 335.837 440.139 335.65C440.569 335.454 441.021 335.356 441.497 335.356ZM455.888 335.342C455.888 336.014 455.697 336.551 455.314 336.952C454.941 337.344 454.442 337.605 453.816 337.736V337.792C454.61 337.885 455.202 338.137 455.594 338.548C455.996 338.959 456.196 339.495 456.196 340.158C456.196 340.746 456.061 341.264 455.79 341.712C455.52 342.16 455.1 342.51 454.53 342.762C453.97 343.014 453.247 343.14 452.36 343.14C451.838 343.14 451.352 343.098 450.904 343.014C450.456 342.939 450.027 342.799 449.616 342.594V341.446C450.036 341.661 450.489 341.824 450.974 341.936C451.46 342.048 451.926 342.104 452.374 342.104C453.27 342.104 453.914 341.931 454.306 341.586C454.708 341.231 454.908 340.746 454.908 340.13C454.908 339.505 454.661 339.057 454.166 338.786C453.681 338.506 452.995 338.366 452.108 338.366H451.142V337.316H452.122C452.944 337.316 453.564 337.143 453.984 336.798C454.414 336.453 454.628 335.995 454.628 335.426C454.628 334.941 454.465 334.567 454.138 334.306C453.812 334.035 453.368 333.9 452.808 333.9C452.267 333.9 451.805 333.979 451.422 334.138C451.04 334.297 450.662 334.497 450.288 334.74L449.672 333.9C450.027 333.62 450.466 333.377 450.988 333.172C451.52 332.967 452.122 332.864 452.794 332.864C453.84 332.864 454.614 333.097 455.118 333.564C455.632 334.031 455.888 334.623 455.888 335.342Z" fill="black"/>
<path d="M410.08 373.988C410.08 375.024 409.903 375.929 409.548 376.704C409.203 377.469 408.685 378.067 407.994 378.496C407.313 378.925 406.473 379.14 405.474 379.14C404.438 379.14 403.575 378.925 402.884 378.496C402.203 378.067 401.694 377.465 401.358 376.69C401.022 375.915 400.854 375.01 400.854 373.974C400.854 372.957 401.022 372.065 401.358 371.3C401.694 370.525 402.203 369.923 402.884 369.494C403.575 369.065 404.443 368.85 405.488 368.85C406.487 368.85 407.327 369.065 408.008 369.494C408.689 369.914 409.203 370.511 409.548 371.286C409.903 372.051 410.08 372.952 410.08 373.988ZM402.184 373.988C402.184 375.248 402.45 376.242 402.982 376.97C403.514 377.689 404.345 378.048 405.474 378.048C406.603 378.048 407.429 377.689 407.952 376.97C408.484 376.242 408.75 375.248 408.75 373.988C408.75 372.728 408.489 371.743 407.966 371.034C407.443 370.315 406.617 369.956 405.488 369.956C404.349 369.956 403.514 370.315 402.982 371.034C402.45 371.743 402.184 372.728 402.184 373.988ZM415.698 371.356C416.622 371.356 417.364 371.678 417.924 372.322C418.493 372.966 418.778 373.937 418.778 375.234C418.778 376.513 418.493 377.483 417.924 378.146C417.364 378.809 416.617 379.14 415.684 379.14C415.105 379.14 414.624 379.033 414.242 378.818C413.868 378.603 413.574 378.347 413.36 378.048H413.276C413.285 378.207 413.299 378.407 413.318 378.65C413.346 378.893 413.36 379.103 413.36 379.28V382.36H412.128V371.496H413.136L413.304 372.518H413.36C413.584 372.191 413.878 371.916 414.242 371.692C414.606 371.468 415.091 371.356 415.698 371.356ZM415.474 372.392C414.708 372.392 414.167 372.607 413.85 373.036C413.532 373.465 413.369 374.119 413.36 374.996V375.234C413.36 376.158 413.509 376.872 413.808 377.376C414.116 377.871 414.68 378.118 415.502 378.118C415.95 378.118 416.323 377.997 416.622 377.754C416.92 377.502 417.14 377.157 417.28 376.718C417.429 376.279 417.504 375.78 417.504 375.22C417.504 374.361 417.336 373.675 417 373.162C416.673 372.649 416.164 372.392 415.474 372.392ZM423.247 378.132C423.433 378.132 423.625 378.118 423.821 378.09C424.017 378.062 424.175 378.025 424.297 377.978V378.916C424.166 378.981 423.979 379.033 423.737 379.07C423.494 379.117 423.261 379.14 423.037 379.14C422.645 379.14 422.281 379.075 421.945 378.944C421.618 378.804 421.352 378.566 421.147 378.23C420.941 377.894 420.839 377.423 420.839 376.816V372.448H419.775V371.86L420.853 371.37L421.343 369.774H422.071V371.496H424.241V372.448H422.071V376.788C422.071 377.245 422.178 377.586 422.393 377.81C422.617 378.025 422.901 378.132 423.247 378.132ZM426.429 368.682C426.616 368.682 426.779 368.747 426.919 368.878C427.069 368.999 427.143 369.195 427.143 369.466C427.143 369.737 427.069 369.937 426.919 370.068C426.779 370.189 426.616 370.25 426.429 370.25C426.224 370.25 426.051 370.189 425.911 370.068C425.771 369.937 425.701 369.737 425.701 369.466C425.701 369.195 425.771 368.999 425.911 368.878C426.051 368.747 426.224 368.682 426.429 368.682ZM427.031 371.496V379H425.799V371.496H427.031ZM435.933 375.234C435.933 376.475 435.615 377.437 434.981 378.118C434.355 378.799 433.506 379.14 432.433 379.14C431.77 379.14 431.177 378.991 430.655 378.692C430.141 378.384 429.735 377.941 429.437 377.362C429.138 376.774 428.989 376.065 428.989 375.234C428.989 373.993 429.297 373.036 429.913 372.364C430.538 371.692 431.392 371.356 432.475 371.356C433.147 371.356 433.744 371.51 434.267 371.818C434.789 372.117 435.195 372.555 435.485 373.134C435.783 373.703 435.933 374.403 435.933 375.234ZM430.263 375.234C430.263 376.121 430.435 376.825 430.781 377.348C431.135 377.861 431.695 378.118 432.461 378.118C433.217 378.118 433.772 377.861 434.127 377.348C434.481 376.825 434.659 376.121 434.659 375.234C434.659 374.347 434.481 373.652 434.127 373.148C433.772 372.644 433.212 372.392 432.447 372.392C431.681 372.392 431.126 372.644 430.781 373.148C430.435 373.652 430.263 374.347 430.263 375.234ZM441.497 371.356C442.393 371.356 443.07 371.575 443.527 372.014C443.985 372.453 444.213 373.153 444.213 374.114V379H442.995V374.198C442.995 372.994 442.435 372.392 441.315 372.392C440.485 372.392 439.911 372.625 439.593 373.092C439.276 373.559 439.117 374.231 439.117 375.108V379H437.885V371.496H438.879L439.061 372.518H439.131C439.374 372.126 439.71 371.837 440.139 371.65C440.569 371.454 441.021 371.356 441.497 371.356ZM456.714 376.732H455.258V379H454.068V376.732H449.28V375.682L453.984 368.948H455.258V375.626H456.714V376.732ZM454.068 375.626V372.476C454.068 371.991 454.073 371.58 454.082 371.244C454.101 370.899 454.12 370.572 454.138 370.264H454.082C454.008 370.441 453.914 370.633 453.802 370.838C453.69 371.043 453.583 371.216 453.48 371.356L450.484 375.626H454.068Z" fill="black"/>
<rect x="391.5" y="247.5" width="140" height="145" rx="4.5" stroke="black" stroke-opacity="0.15"/>
</g>
<rect x="531" y="356" width="98" height="36" rx="2" fill="#1B77AF"/>
<path d="M554.63 379L553.426 375.906H549.464L548.274 379H547L550.906 368.962H552.04L555.932 379H554.63ZM553.048 374.786L551.928 371.762C551.9 371.687 551.853 371.552 551.788 371.356C551.723 371.16 551.657 370.959 551.592 370.754C551.536 370.539 551.489 370.376 551.452 370.264C551.377 370.553 551.298 370.838 551.214 371.118C551.139 371.389 551.074 371.603 551.018 371.762L549.884 374.786H553.048ZM560.141 379.14C559.469 379.14 558.877 379.005 558.363 378.734C557.85 378.463 557.444 378.043 557.145 377.474C556.856 376.905 556.711 376.177 556.711 375.29C556.711 374.366 556.861 373.615 557.159 373.036C557.467 372.457 557.887 372.033 558.419 371.762C558.951 371.491 559.553 371.356 560.225 371.356C560.599 371.356 560.963 371.398 561.317 371.482C561.681 371.557 561.975 371.65 562.199 371.762L561.821 372.784C561.597 372.7 561.336 372.621 561.037 372.546C560.739 372.471 560.459 372.434 560.197 372.434C558.723 372.434 557.985 373.381 557.985 375.276C557.985 376.181 558.163 376.877 558.517 377.362C558.881 377.838 559.418 378.076 560.127 378.076C560.529 378.076 560.888 378.034 561.205 377.95C561.523 377.866 561.812 377.763 562.073 377.642V378.734C561.821 378.865 561.541 378.963 561.233 379.028C560.935 379.103 560.571 379.14 560.141 379.14ZM566.364 378.132C566.551 378.132 566.742 378.118 566.938 378.09C567.134 378.062 567.293 378.025 567.414 377.978V378.916C567.283 378.981 567.097 379.033 566.854 379.07C566.611 379.117 566.378 379.14 566.154 379.14C565.762 379.14 565.398 379.075 565.062 378.944C564.735 378.804 564.469 378.566 564.264 378.23C564.059 377.894 563.956 377.423 563.956 376.816V372.448H562.892V371.86L563.97 371.37L564.46 369.774H565.188V371.496H567.358V372.448H565.188V376.788C565.188 377.245 565.295 377.586 565.51 377.81C565.734 378.025 566.019 378.132 566.364 378.132ZM569.547 368.682C569.733 368.682 569.897 368.747 570.037 368.878C570.186 368.999 570.261 369.195 570.261 369.466C570.261 369.737 570.186 369.937 570.037 370.068C569.897 370.189 569.733 370.25 569.547 370.25C569.341 370.25 569.169 370.189 569.029 370.068C568.889 369.937 568.819 369.737 568.819 369.466C568.819 369.195 568.889 368.999 569.029 368.878C569.169 368.747 569.341 368.682 569.547 368.682ZM570.149 371.496V379H568.917V371.496H570.149ZM579.05 375.234C579.05 376.475 578.733 377.437 578.098 378.118C577.473 378.799 576.623 379.14 575.55 379.14C574.887 379.14 574.295 378.991 573.772 378.692C573.259 378.384 572.853 377.941 572.554 377.362C572.255 376.774 572.106 376.065 572.106 375.234C572.106 373.993 572.414 373.036 573.03 372.364C573.655 371.692 574.509 371.356 575.592 371.356C576.264 371.356 576.861 371.51 577.384 371.818C577.907 372.117 578.313 372.555 578.602 373.134C578.901 373.703 579.05 374.403 579.05 375.234ZM573.38 375.234C573.38 376.121 573.553 376.825 573.898 377.348C574.253 377.861 574.813 378.118 575.578 378.118C576.334 378.118 576.889 377.861 577.244 377.348C577.599 376.825 577.776 376.121 577.776 375.234C577.776 374.347 577.599 373.652 577.244 373.148C576.889 372.644 576.329 372.392 575.564 372.392C574.799 372.392 574.243 372.644 573.898 373.148C573.553 373.652 573.38 374.347 573.38 375.234ZM584.615 371.356C585.511 371.356 586.187 371.575 586.645 372.014C587.102 372.453 587.331 373.153 587.331 374.114V379H586.113V374.198C586.113 372.994 585.553 372.392 584.433 372.392C583.602 372.392 583.028 372.625 582.711 373.092C582.393 373.559 582.235 374.231 582.235 375.108V379H581.003V371.496H581.997L582.179 372.518H582.249C582.491 372.126 582.827 371.837 583.257 371.65C583.686 371.454 584.139 371.356 584.615 371.356Z" fill="white"/>
<path d="M605.012 377.362C604.912 377.362 604.812 377.312 604.762 377.262L599.113 371.662C598.962 371.512 598.962 371.262 599.113 371.112C599.263 370.963 599.512 370.963 599.662 371.112L605.012 376.462L610.312 371.112C610.462 370.963 610.713 370.963 610.863 371.112C611.012 371.262 611.012 371.512 610.863 371.662L605.262 377.262C605.162 377.312 605.112 377.362 605.012 377.362Z" fill="white"/>
<g filter="url(#filter2_d_8122_312397)">
<rect x="165" y="40" width="139" height="144" rx="4" fill="white"/>
<path d="M183.08 57.988C183.08 59.024 182.903 59.9293 182.548 60.704C182.203 61.4693 181.685 62.0667 180.994 62.496C180.313 62.9253 179.473 63.14 178.474 63.14C177.438 63.14 176.575 62.9253 175.884 62.496C175.203 62.0667 174.694 61.4647 174.358 60.69C174.022 59.9153 173.854 59.01 173.854 57.974C173.854 56.9567 174.022 56.0653 174.358 55.3C174.694 54.5253 175.203 53.9233 175.884 53.494C176.575 53.0647 177.443 52.85 178.488 52.85C179.487 52.85 180.327 53.0647 181.008 53.494C181.689 53.914 182.203 54.5113 182.548 55.286C182.903 56.0513 183.08 56.952 183.08 57.988ZM175.184 57.988C175.184 59.248 175.45 60.242 175.982 60.97C176.514 61.6887 177.345 62.048 178.474 62.048C179.603 62.048 180.429 61.6887 180.952 60.97C181.484 60.242 181.75 59.248 181.75 57.988C181.75 56.728 181.489 55.7433 180.966 55.034C180.443 54.3153 179.617 53.956 178.488 53.956C177.349 53.956 176.514 54.3153 175.982 55.034C175.45 55.7433 175.184 56.728 175.184 57.988ZM188.698 55.356C189.622 55.356 190.364 55.678 190.924 56.322C191.493 56.966 191.778 57.9367 191.778 59.234C191.778 60.5127 191.493 61.4833 190.924 62.146C190.364 62.8087 189.617 63.14 188.684 63.14C188.105 63.14 187.624 63.0327 187.242 62.818C186.868 62.6033 186.574 62.3467 186.36 62.048H186.276C186.285 62.2067 186.299 62.4073 186.318 62.65C186.346 62.8927 186.36 63.1027 186.36 63.28V66.36H185.128V55.496H186.136L186.304 56.518H186.36C186.584 56.1913 186.878 55.916 187.242 55.692C187.606 55.468 188.091 55.356 188.698 55.356ZM188.474 56.392C187.708 56.392 187.167 56.6067 186.85 57.036C186.532 57.4653 186.369 58.1187 186.36 58.996V59.234C186.36 60.158 186.509 60.872 186.808 61.376C187.116 61.8707 187.68 62.118 188.502 62.118C188.95 62.118 189.323 61.9967 189.622 61.754C189.92 61.502 190.14 61.1567 190.28 60.718C190.429 60.2793 190.504 59.78 190.504 59.22C190.504 58.3613 190.336 57.6753 190 57.162C189.673 56.6487 189.164 56.392 188.474 56.392ZM196.247 62.132C196.433 62.132 196.625 62.118 196.821 62.09C197.017 62.062 197.175 62.0247 197.297 61.978V62.916C197.166 62.9813 196.979 63.0327 196.737 63.07C196.494 63.1167 196.261 63.14 196.037 63.14C195.645 63.14 195.281 63.0747 194.945 62.944C194.618 62.804 194.352 62.566 194.147 62.23C193.941 61.894 193.839 61.4227 193.839 60.816V56.448H192.775V55.86L193.853 55.37L194.343 53.774H195.071V55.496H197.241V56.448H195.071V60.788C195.071 61.2453 195.178 61.586 195.393 61.81C195.617 62.0247 195.901 62.132 196.247 62.132ZM199.429 52.682C199.616 52.682 199.779 52.7473 199.919 52.878C200.069 52.9993 200.143 53.1953 200.143 53.466C200.143 53.7367 200.069 53.9373 199.919 54.068C199.779 54.1893 199.616 54.25 199.429 54.25C199.224 54.25 199.051 54.1893 198.911 54.068C198.771 53.9373 198.701 53.7367 198.701 53.466C198.701 53.1953 198.771 52.9993 198.911 52.878C199.051 52.7473 199.224 52.682 199.429 52.682ZM200.031 55.496V63H198.799V55.496H200.031ZM208.933 59.234C208.933 60.4753 208.615 61.4367 207.981 62.118C207.355 62.7993 206.506 63.14 205.433 63.14C204.77 63.14 204.177 62.9907 203.655 62.692C203.141 62.384 202.735 61.9407 202.437 61.362C202.138 60.774 201.989 60.0647 201.989 59.234C201.989 57.9927 202.297 57.036 202.913 56.364C203.538 55.692 204.392 55.356 205.475 55.356C206.147 55.356 206.744 55.51 207.267 55.818C207.789 56.1167 208.195 56.5553 208.485 57.134C208.783 57.7033 208.933 58.4033 208.933 59.234ZM203.263 59.234C203.263 60.1207 203.435 60.8253 203.781 61.348C204.135 61.8613 204.695 62.118 205.461 62.118C206.217 62.118 206.772 61.8613 207.127 61.348C207.481 60.8253 207.659 60.1207 207.659 59.234C207.659 58.3473 207.481 57.652 207.127 57.148C206.772 56.644 206.212 56.392 205.447 56.392C204.681 56.392 204.126 56.644 203.781 57.148C203.435 57.652 203.263 58.3473 203.263 59.234ZM214.497 55.356C215.393 55.356 216.07 55.5753 216.527 56.014C216.985 56.4527 217.213 57.1527 217.213 58.114V63H215.995V58.198C215.995 56.994 215.435 56.392 214.315 56.392C213.485 56.392 212.911 56.6253 212.593 57.092C212.276 57.5587 212.117 58.2307 212.117 59.108V63H210.885V55.496H211.879L212.061 56.518H212.131C212.374 56.126 212.71 55.8367 213.139 55.65C213.569 55.454 214.021 55.356 214.497 55.356ZM226.956 63H225.752V56.014C225.752 55.6127 225.757 55.2907 225.766 55.048C225.776 54.8053 225.79 54.5533 225.808 54.292C225.659 54.4413 225.519 54.5673 225.388 54.67C225.267 54.7727 225.118 54.9033 224.94 55.062L223.876 55.93L223.232 55.104L225.934 53.004H226.956V63Z" fill="black"/>
<path d="M183.08 93.988C183.08 95.024 182.903 95.9293 182.548 96.704C182.203 97.4693 181.685 98.0667 180.994 98.496C180.313 98.9253 179.473 99.14 178.474 99.14C177.438 99.14 176.575 98.9253 175.884 98.496C175.203 98.0667 174.694 97.4647 174.358 96.69C174.022 95.9153 173.854 95.01 173.854 93.974C173.854 92.9567 174.022 92.0653 174.358 91.3C174.694 90.5253 175.203 89.9233 175.884 89.494C176.575 89.0647 177.443 88.85 178.488 88.85C179.487 88.85 180.327 89.0647 181.008 89.494C181.689 89.914 182.203 90.5113 182.548 91.286C182.903 92.0513 183.08 92.952 183.08 93.988ZM175.184 93.988C175.184 95.248 175.45 96.242 175.982 96.97C176.514 97.6887 177.345 98.048 178.474 98.048C179.603 98.048 180.429 97.6887 180.952 96.97C181.484 96.242 181.75 95.248 181.75 93.988C181.75 92.728 181.489 91.7433 180.966 91.034C180.443 90.3153 179.617 89.956 178.488 89.956C177.349 89.956 176.514 90.3153 175.982 91.034C175.45 91.7433 175.184 92.728 175.184 93.988ZM188.698 91.356C189.622 91.356 190.364 91.678 190.924 92.322C191.493 92.966 191.778 93.9367 191.778 95.234C191.778 96.5127 191.493 97.4833 190.924 98.146C190.364 98.8087 189.617 99.14 188.684 99.14C188.105 99.14 187.624 99.0327 187.242 98.818C186.868 98.6033 186.574 98.3467 186.36 98.048H186.276C186.285 98.2067 186.299 98.4073 186.318 98.65C186.346 98.8927 186.36 99.1027 186.36 99.28V102.36H185.128V91.496H186.136L186.304 92.518H186.36C186.584 92.1913 186.878 91.916 187.242 91.692C187.606 91.468 188.091 91.356 188.698 91.356ZM188.474 92.392C187.708 92.392 187.167 92.6067 186.85 93.036C186.532 93.4653 186.369 94.1187 186.36 94.996V95.234C186.36 96.158 186.509 96.872 186.808 97.376C187.116 97.8707 187.68 98.118 188.502 98.118C188.95 98.118 189.323 97.9967 189.622 97.754C189.92 97.502 190.14 97.1567 190.28 96.718C190.429 96.2793 190.504 95.78 190.504 95.22C190.504 94.3613 190.336 93.6753 190 93.162C189.673 92.6487 189.164 92.392 188.474 92.392ZM196.247 98.132C196.433 98.132 196.625 98.118 196.821 98.09C197.017 98.062 197.175 98.0247 197.297 97.978V98.916C197.166 98.9813 196.979 99.0327 196.737 99.07C196.494 99.1167 196.261 99.14 196.037 99.14C195.645 99.14 195.281 99.0747 194.945 98.944C194.618 98.804 194.352 98.566 194.147 98.23C193.941 97.894 193.839 97.4227 193.839 96.816V92.448H192.775V91.86L193.853 91.37L194.343 89.774H195.071V91.496H197.241V92.448H195.071V96.788C195.071 97.2453 195.178 97.586 195.393 97.81C195.617 98.0247 195.901 98.132 196.247 98.132ZM199.429 88.682C199.616 88.682 199.779 88.7473 199.919 88.878C200.069 88.9993 200.143 89.1953 200.143 89.466C200.143 89.7367 200.069 89.9373 199.919 90.068C199.779 90.1893 199.616 90.25 199.429 90.25C199.224 90.25 199.051 90.1893 198.911 90.068C198.771 89.9373 198.701 89.7367 198.701 89.466C198.701 89.1953 198.771 88.9993 198.911 88.878C199.051 88.7473 199.224 88.682 199.429 88.682ZM200.031 91.496V99H198.799V91.496H200.031ZM208.933 95.234C208.933 96.4753 208.615 97.4367 207.981 98.118C207.355 98.7993 206.506 99.14 205.433 99.14C204.77 99.14 204.177 98.9907 203.655 98.692C203.141 98.384 202.735 97.9407 202.437 97.362C202.138 96.774 201.989 96.0647 201.989 95.234C201.989 93.9927 202.297 93.036 202.913 92.364C203.538 91.692 204.392 91.356 205.475 91.356C206.147 91.356 206.744 91.51 207.267 91.818C207.789 92.1167 208.195 92.5553 208.485 93.134C208.783 93.7033 208.933 94.4033 208.933 95.234ZM203.263 95.234C203.263 96.1207 203.435 96.8253 203.781 97.348C204.135 97.8613 204.695 98.118 205.461 98.118C206.217 98.118 206.772 97.8613 207.127 97.348C207.481 96.8253 207.659 96.1207 207.659 95.234C207.659 94.3473 207.481 93.652 207.127 93.148C206.772 92.644 206.212 92.392 205.447 92.392C204.681 92.392 204.126 92.644 203.781 93.148C203.435 93.652 203.263 94.3473 203.263 95.234ZM214.497 91.356C215.393 91.356 216.07 91.5753 216.527 92.014C216.985 92.4527 217.213 93.1527 217.213 94.114V99H215.995V94.198C215.995 92.994 215.435 92.392 214.315 92.392C213.485 92.392 212.911 92.6253 212.593 93.092C212.276 93.5587 212.117 94.2307 212.117 95.108V99H210.885V91.496H211.879L212.061 92.518H212.131C212.374 92.126 212.71 91.8367 213.139 91.65C213.569 91.454 214.021 91.356 214.497 91.356ZM229.266 99H222.658V97.978L225.276 95.332C225.771 94.828 226.191 94.38 226.536 93.988C226.891 93.596 227.157 93.2133 227.334 92.84C227.512 92.4667 227.6 92.0513 227.6 91.594C227.6 91.0433 227.437 90.628 227.11 90.348C226.784 90.0587 226.359 89.914 225.836 89.914C225.342 89.914 224.912 89.998 224.548 90.166C224.184 90.334 223.811 90.5673 223.428 90.866L222.77 90.04C223.162 89.7133 223.61 89.438 224.114 89.214C224.628 88.9807 225.202 88.864 225.836 88.864C226.77 88.864 227.507 89.102 228.048 89.578C228.59 90.054 228.86 90.7027 228.86 91.524C228.86 92.0467 228.753 92.5367 228.538 92.994C228.324 93.4513 228.025 93.904 227.642 94.352C227.26 94.8 226.812 95.2713 226.298 95.766L224.212 97.824V97.88H229.266V99Z" fill="black"/>
<path d="M183.08 129.988C183.08 131.024 182.903 131.929 182.548 132.704C182.203 133.469 181.685 134.067 180.994 134.496C180.313 134.925 179.473 135.14 178.474 135.14C177.438 135.14 176.575 134.925 175.884 134.496C175.203 134.067 174.694 133.465 174.358 132.69C174.022 131.915 173.854 131.01 173.854 129.974C173.854 128.957 174.022 128.065 174.358 127.3C174.694 126.525 175.203 125.923 175.884 125.494C176.575 125.065 177.443 124.85 178.488 124.85C179.487 124.85 180.327 125.065 181.008 125.494C181.689 125.914 182.203 126.511 182.548 127.286C182.903 128.051 183.08 128.952 183.08 129.988ZM175.184 129.988C175.184 131.248 175.45 132.242 175.982 132.97C176.514 133.689 177.345 134.048 178.474 134.048C179.603 134.048 180.429 133.689 180.952 132.97C181.484 132.242 181.75 131.248 181.75 129.988C181.75 128.728 181.489 127.743 180.966 127.034C180.443 126.315 179.617 125.956 178.488 125.956C177.349 125.956 176.514 126.315 175.982 127.034C175.45 127.743 175.184 128.728 175.184 129.988ZM188.698 127.356C189.622 127.356 190.364 127.678 190.924 128.322C191.493 128.966 191.778 129.937 191.778 131.234C191.778 132.513 191.493 133.483 190.924 134.146C190.364 134.809 189.617 135.14 188.684 135.14C188.105 135.14 187.624 135.033 187.242 134.818C186.868 134.603 186.574 134.347 186.36 134.048H186.276C186.285 134.207 186.299 134.407 186.318 134.65C186.346 134.893 186.36 135.103 186.36 135.28V138.36H185.128V127.496H186.136L186.304 128.518H186.36C186.584 128.191 186.878 127.916 187.242 127.692C187.606 127.468 188.091 127.356 188.698 127.356ZM188.474 128.392C187.708 128.392 187.167 128.607 186.85 129.036C186.532 129.465 186.369 130.119 186.36 130.996V131.234C186.36 132.158 186.509 132.872 186.808 133.376C187.116 133.871 187.68 134.118 188.502 134.118C188.95 134.118 189.323 133.997 189.622 133.754C189.92 133.502 190.14 133.157 190.28 132.718C190.429 132.279 190.504 131.78 190.504 131.22C190.504 130.361 190.336 129.675 190 129.162C189.673 128.649 189.164 128.392 188.474 128.392ZM196.247 134.132C196.433 134.132 196.625 134.118 196.821 134.09C197.017 134.062 197.175 134.025 197.297 133.978V134.916C197.166 134.981 196.979 135.033 196.737 135.07C196.494 135.117 196.261 135.14 196.037 135.14C195.645 135.14 195.281 135.075 194.945 134.944C194.618 134.804 194.352 134.566 194.147 134.23C193.941 133.894 193.839 133.423 193.839 132.816V128.448H192.775V127.86L193.853 127.37L194.343 125.774H195.071V127.496H197.241V128.448H195.071V132.788C195.071 133.245 195.178 133.586 195.393 133.81C195.617 134.025 195.901 134.132 196.247 134.132ZM199.429 124.682C199.616 124.682 199.779 124.747 199.919 124.878C200.069 124.999 200.143 125.195 200.143 125.466C200.143 125.737 200.069 125.937 199.919 126.068C199.779 126.189 199.616 126.25 199.429 126.25C199.224 126.25 199.051 126.189 198.911 126.068C198.771 125.937 198.701 125.737 198.701 125.466C198.701 125.195 198.771 124.999 198.911 124.878C199.051 124.747 199.224 124.682 199.429 124.682ZM200.031 127.496V135H198.799V127.496H200.031ZM208.933 131.234C208.933 132.475 208.615 133.437 207.981 134.118C207.355 134.799 206.506 135.14 205.433 135.14C204.77 135.14 204.177 134.991 203.655 134.692C203.141 134.384 202.735 133.941 202.437 133.362C202.138 132.774 201.989 132.065 201.989 131.234C201.989 129.993 202.297 129.036 202.913 128.364C203.538 127.692 204.392 127.356 205.475 127.356C206.147 127.356 206.744 127.51 207.267 127.818C207.789 128.117 208.195 128.555 208.485 129.134C208.783 129.703 208.933 130.403 208.933 131.234ZM203.263 131.234C203.263 132.121 203.435 132.825 203.781 133.348C204.135 133.861 204.695 134.118 205.461 134.118C206.217 134.118 206.772 133.861 207.127 133.348C207.481 132.825 207.659 132.121 207.659 131.234C207.659 130.347 207.481 129.652 207.127 129.148C206.772 128.644 206.212 128.392 205.447 128.392C204.681 128.392 204.126 128.644 203.781 129.148C203.435 129.652 203.263 130.347 203.263 131.234ZM214.497 127.356C215.393 127.356 216.07 127.575 216.527 128.014C216.985 128.453 217.213 129.153 217.213 130.114V135H215.995V130.198C215.995 128.994 215.435 128.392 214.315 128.392C213.485 128.392 212.911 128.625 212.593 129.092C212.276 129.559 212.117 130.231 212.117 131.108V135H210.885V127.496H211.879L212.061 128.518H212.131C212.374 128.126 212.71 127.837 213.139 127.65C213.569 127.454 214.021 127.356 214.497 127.356ZM228.888 127.342C228.888 128.014 228.697 128.551 228.314 128.952C227.941 129.344 227.442 129.605 226.816 129.736V129.792C227.61 129.885 228.202 130.137 228.594 130.548C228.996 130.959 229.196 131.495 229.196 132.158C229.196 132.746 229.061 133.264 228.79 133.712C228.52 134.16 228.1 134.51 227.53 134.762C226.97 135.014 226.247 135.14 225.36 135.14C224.838 135.14 224.352 135.098 223.904 135.014C223.456 134.939 223.027 134.799 222.616 134.594V133.446C223.036 133.661 223.489 133.824 223.974 133.936C224.46 134.048 224.926 134.104 225.374 134.104C226.27 134.104 226.914 133.931 227.306 133.586C227.708 133.231 227.908 132.746 227.908 132.13C227.908 131.505 227.661 131.057 227.166 130.786C226.681 130.506 225.995 130.366 225.108 130.366H224.142V129.316H225.122C225.944 129.316 226.564 129.143 226.984 128.798C227.414 128.453 227.628 127.995 227.628 127.426C227.628 126.941 227.465 126.567 227.138 126.306C226.812 126.035 226.368 125.9 225.808 125.9C225.267 125.9 224.805 125.979 224.422 126.138C224.04 126.297 223.662 126.497 223.288 126.74L222.672 125.9C223.027 125.62 223.466 125.377 223.988 125.172C224.52 124.967 225.122 124.864 225.794 124.864C226.84 124.864 227.614 125.097 228.118 125.564C228.632 126.031 228.888 126.623 228.888 127.342Z" fill="black"/>
<path d="M183.08 165.988C183.08 167.024 182.903 167.929 182.548 168.704C182.203 169.469 181.685 170.067 180.994 170.496C180.313 170.925 179.473 171.14 178.474 171.14C177.438 171.14 176.575 170.925 175.884 170.496C175.203 170.067 174.694 169.465 174.358 168.69C174.022 167.915 173.854 167.01 173.854 165.974C173.854 164.957 174.022 164.065 174.358 163.3C174.694 162.525 175.203 161.923 175.884 161.494C176.575 161.065 177.443 160.85 178.488 160.85C179.487 160.85 180.327 161.065 181.008 161.494C181.689 161.914 182.203 162.511 182.548 163.286C182.903 164.051 183.08 164.952 183.08 165.988ZM175.184 165.988C175.184 167.248 175.45 168.242 175.982 168.97C176.514 169.689 177.345 170.048 178.474 170.048C179.603 170.048 180.429 169.689 180.952 168.97C181.484 168.242 181.75 167.248 181.75 165.988C181.75 164.728 181.489 163.743 180.966 163.034C180.443 162.315 179.617 161.956 178.488 161.956C177.349 161.956 176.514 162.315 175.982 163.034C175.45 163.743 175.184 164.728 175.184 165.988ZM188.698 163.356C189.622 163.356 190.364 163.678 190.924 164.322C191.493 164.966 191.778 165.937 191.778 167.234C191.778 168.513 191.493 169.483 190.924 170.146C190.364 170.809 189.617 171.14 188.684 171.14C188.105 171.14 187.624 171.033 187.242 170.818C186.868 170.603 186.574 170.347 186.36 170.048H186.276C186.285 170.207 186.299 170.407 186.318 170.65C186.346 170.893 186.36 171.103 186.36 171.28V174.36H185.128V163.496H186.136L186.304 164.518H186.36C186.584 164.191 186.878 163.916 187.242 163.692C187.606 163.468 188.091 163.356 188.698 163.356ZM188.474 164.392C187.708 164.392 187.167 164.607 186.85 165.036C186.532 165.465 186.369 166.119 186.36 166.996V167.234C186.36 168.158 186.509 168.872 186.808 169.376C187.116 169.871 187.68 170.118 188.502 170.118C188.95 170.118 189.323 169.997 189.622 169.754C189.92 169.502 190.14 169.157 190.28 168.718C190.429 168.279 190.504 167.78 190.504 167.22C190.504 166.361 190.336 165.675 190 165.162C189.673 164.649 189.164 164.392 188.474 164.392ZM196.247 170.132C196.433 170.132 196.625 170.118 196.821 170.09C197.017 170.062 197.175 170.025 197.297 169.978V170.916C197.166 170.981 196.979 171.033 196.737 171.07C196.494 171.117 196.261 171.14 196.037 171.14C195.645 171.14 195.281 171.075 194.945 170.944C194.618 170.804 194.352 170.566 194.147 170.23C193.941 169.894 193.839 169.423 193.839 168.816V164.448H192.775V163.86L193.853 163.37L194.343 161.774H195.071V163.496H197.241V164.448H195.071V168.788C195.071 169.245 195.178 169.586 195.393 169.81C195.617 170.025 195.901 170.132 196.247 170.132ZM199.429 160.682C199.616 160.682 199.779 160.747 199.919 160.878C200.069 160.999 200.143 161.195 200.143 161.466C200.143 161.737 200.069 161.937 199.919 162.068C199.779 162.189 199.616 162.25 199.429 162.25C199.224 162.25 199.051 162.189 198.911 162.068C198.771 161.937 198.701 161.737 198.701 161.466C198.701 161.195 198.771 160.999 198.911 160.878C199.051 160.747 199.224 160.682 199.429 160.682ZM200.031 163.496V171H198.799V163.496H200.031ZM208.933 167.234C208.933 168.475 208.615 169.437 207.981 170.118C207.355 170.799 206.506 171.14 205.433 171.14C204.77 171.14 204.177 170.991 203.655 170.692C203.141 170.384 202.735 169.941 202.437 169.362C202.138 168.774 201.989 168.065 201.989 167.234C201.989 165.993 202.297 165.036 202.913 164.364C203.538 163.692 204.392 163.356 205.475 163.356C206.147 163.356 206.744 163.51 207.267 163.818C207.789 164.117 208.195 164.555 208.485 165.134C208.783 165.703 208.933 166.403 208.933 167.234ZM203.263 167.234C203.263 168.121 203.435 168.825 203.781 169.348C204.135 169.861 204.695 170.118 205.461 170.118C206.217 170.118 206.772 169.861 207.127 169.348C207.481 168.825 207.659 168.121 207.659 167.234C207.659 166.347 207.481 165.652 207.127 165.148C206.772 164.644 206.212 164.392 205.447 164.392C204.681 164.392 204.126 164.644 203.781 165.148C203.435 165.652 203.263 166.347 203.263 167.234ZM214.497 163.356C215.393 163.356 216.07 163.575 216.527 164.014C216.985 164.453 217.213 165.153 217.213 166.114V171H215.995V166.198C215.995 164.994 215.435 164.392 214.315 164.392C213.485 164.392 212.911 164.625 212.593 165.092C212.276 165.559 212.117 166.231 212.117 167.108V171H210.885V163.496H211.879L212.061 164.518H212.131C212.374 164.126 212.71 163.837 213.139 163.65C213.569 163.454 214.021 163.356 214.497 163.356ZM229.714 168.732H228.258V171H227.068V168.732H222.28V167.682L226.984 160.948H228.258V167.626H229.714V168.732ZM227.068 167.626V164.476C227.068 163.991 227.073 163.58 227.082 163.244C227.101 162.899 227.12 162.572 227.138 162.264H227.082C227.008 162.441 226.914 162.633 226.802 162.838C226.69 163.043 226.583 163.216 226.48 163.356L223.484 167.626H227.068Z" fill="black"/>
<rect x="164.5" y="39.5" width="140" height="145" rx="4.5" stroke="black" stroke-opacity="0.15"/>
</g>
<rect x="67" y="40" width="98" height="36" rx="2" fill="#1B77AF"/>
<path d="M90.63 63L89.426 59.906H85.464L84.274 63H83L86.906 52.962H88.04L91.932 63H90.63ZM89.048 58.786L87.928 55.762C87.9 55.6873 87.8533 55.552 87.788 55.356C87.7227 55.16 87.6573 54.9593 87.592 54.754C87.536 54.5393 87.4893 54.376 87.452 54.264C87.3773 54.5533 87.298 54.838 87.214 55.118C87.1393 55.3887 87.074 55.6033 87.018 55.762L85.884 58.786H89.048ZM96.1414 63.14C95.4694 63.14 94.8767 63.0047 94.3634 62.734C93.8501 62.4633 93.4441 62.0433 93.1454 61.474C92.8561 60.9047 92.7114 60.1767 92.7114 59.29C92.7114 58.366 92.8607 57.6147 93.1594 57.036C93.4674 56.4573 93.8874 56.0327 94.4194 55.762C94.9514 55.4913 95.5534 55.356 96.2254 55.356C96.5987 55.356 96.9627 55.398 97.3174 55.482C97.6814 55.5567 97.9754 55.65 98.1994 55.762L97.8214 56.784C97.5974 56.7 97.3361 56.6207 97.0374 56.546C96.7387 56.4713 96.4587 56.434 96.1974 56.434C94.7227 56.434 93.9854 57.3813 93.9854 59.276C93.9854 60.1813 94.1627 60.8767 94.5174 61.362C94.8814 61.838 95.4181 62.076 96.1274 62.076C96.5287 62.076 96.8881 62.034 97.2054 61.95C97.5227 61.866 97.8121 61.7633 98.0734 61.642V62.734C97.8214 62.8647 97.5414 62.9627 97.2334 63.028C96.9347 63.1027 96.5707 63.14 96.1414 63.14ZM102.364 62.132C102.551 62.132 102.742 62.118 102.938 62.09C103.134 62.062 103.293 62.0247 103.414 61.978V62.916C103.283 62.9813 103.097 63.0327 102.854 63.07C102.611 63.1167 102.378 63.14 102.154 63.14C101.762 63.14 101.398 63.0747 101.062 62.944C100.735 62.804 100.469 62.566 100.264 62.23C100.059 61.894 99.956 61.4227 99.956 60.816V56.448H98.892V55.86L99.97 55.37L100.46 53.774H101.188V55.496H103.358V56.448H101.188V60.788C101.188 61.2453 101.295 61.586 101.51 61.81C101.734 62.0247 102.019 62.132 102.364 62.132ZM105.547 52.682C105.733 52.682 105.897 52.7473 106.037 52.878C106.186 52.9993 106.261 53.1953 106.261 53.466C106.261 53.7367 106.186 53.9373 106.037 54.068C105.897 54.1893 105.733 54.25 105.547 54.25C105.341 54.25 105.169 54.1893 105.029 54.068C104.889 53.9373 104.819 53.7367 104.819 53.466C104.819 53.1953 104.889 52.9993 105.029 52.878C105.169 52.7473 105.341 52.682 105.547 52.682ZM106.149 55.496V63H104.917V55.496H106.149ZM115.05 59.234C115.05 60.4753 114.733 61.4367 114.098 62.118C113.473 62.7993 112.623 63.14 111.55 63.14C110.887 63.14 110.295 62.9907 109.772 62.692C109.259 62.384 108.853 61.9407 108.554 61.362C108.255 60.774 108.106 60.0647 108.106 59.234C108.106 57.9927 108.414 57.036 109.03 56.364C109.655 55.692 110.509 55.356 111.592 55.356C112.264 55.356 112.861 55.51 113.384 55.818C113.907 56.1167 114.313 56.5553 114.602 57.134C114.901 57.7033 115.05 58.4033 115.05 59.234ZM109.38 59.234C109.38 60.1207 109.553 60.8253 109.898 61.348C110.253 61.8613 110.813 62.118 111.578 62.118C112.334 62.118 112.889 61.8613 113.244 61.348C113.599 60.8253 113.776 60.1207 113.776 59.234C113.776 58.3473 113.599 57.652 113.244 57.148C112.889 56.644 112.329 56.392 111.564 56.392C110.799 56.392 110.243 56.644 109.898 57.148C109.553 57.652 109.38 58.3473 109.38 59.234ZM120.615 55.356C121.511 55.356 122.187 55.5753 122.645 56.014C123.102 56.4527 123.331 57.1527 123.331 58.114V63H122.113V58.198C122.113 56.994 121.553 56.392 120.433 56.392C119.602 56.392 119.028 56.6253 118.711 57.092C118.393 57.5587 118.235 58.2307 118.235 59.108V63H117.003V55.496H117.997L118.179 56.518H118.249C118.491 56.126 118.827 55.8367 119.257 55.65C119.686 55.454 120.139 55.356 120.615 55.356Z" fill="white"/>
<path d="M141.012 61.3625C140.912 61.3625 140.812 61.3125 140.762 61.2625L135.113 55.6625C134.962 55.5125 134.962 55.2625 135.113 55.1125C135.263 54.9625 135.512 54.9625 135.662 55.1125L141.012 60.4625L146.312 55.1125C146.462 54.9625 146.713 54.9625 146.863 55.1125C147.012 55.2625 147.012 55.5125 146.863 55.6625L141.262 61.2625C141.162 61.3125 141.112 61.3625 141.012 61.3625Z" fill="white"/>
<g filter="url(#filter3_d_8122_312397)">
<rect x="392" y="40" width="139" height="144" rx="4" fill="white"/>
<path d="M410.08 57.988C410.08 59.024 409.903 59.9293 409.548 60.704C409.203 61.4693 408.685 62.0667 407.994 62.496C407.313 62.9253 406.473 63.14 405.474 63.14C404.438 63.14 403.575 62.9253 402.884 62.496C402.203 62.0667 401.694 61.4647 401.358 60.69C401.022 59.9153 400.854 59.01 400.854 57.974C400.854 56.9567 401.022 56.0653 401.358 55.3C401.694 54.5253 402.203 53.9233 402.884 53.494C403.575 53.0647 404.443 52.85 405.488 52.85C406.487 52.85 407.327 53.0647 408.008 53.494C408.689 53.914 409.203 54.5113 409.548 55.286C409.903 56.0513 410.08 56.952 410.08 57.988ZM402.184 57.988C402.184 59.248 402.45 60.242 402.982 60.97C403.514 61.6887 404.345 62.048 405.474 62.048C406.603 62.048 407.429 61.6887 407.952 60.97C408.484 60.242 408.75 59.248 408.75 57.988C408.75 56.728 408.489 55.7433 407.966 55.034C407.443 54.3153 406.617 53.956 405.488 53.956C404.349 53.956 403.514 54.3153 402.982 55.034C402.45 55.7433 402.184 56.728 402.184 57.988ZM415.698 55.356C416.622 55.356 417.364 55.678 417.924 56.322C418.493 56.966 418.778 57.9367 418.778 59.234C418.778 60.5127 418.493 61.4833 417.924 62.146C417.364 62.8087 416.617 63.14 415.684 63.14C415.105 63.14 414.624 63.0327 414.242 62.818C413.868 62.6033 413.574 62.3467 413.36 62.048H413.276C413.285 62.2067 413.299 62.4073 413.318 62.65C413.346 62.8927 413.36 63.1027 413.36 63.28V66.36H412.128V55.496H413.136L413.304 56.518H413.36C413.584 56.1913 413.878 55.916 414.242 55.692C414.606 55.468 415.091 55.356 415.698 55.356ZM415.474 56.392C414.708 56.392 414.167 56.6067 413.85 57.036C413.532 57.4653 413.369 58.1187 413.36 58.996V59.234C413.36 60.158 413.509 60.872 413.808 61.376C414.116 61.8707 414.68 62.118 415.502 62.118C415.95 62.118 416.323 61.9967 416.622 61.754C416.92 61.502 417.14 61.1567 417.28 60.718C417.429 60.2793 417.504 59.78 417.504 59.22C417.504 58.3613 417.336 57.6753 417 57.162C416.673 56.6487 416.164 56.392 415.474 56.392ZM423.247 62.132C423.433 62.132 423.625 62.118 423.821 62.09C424.017 62.062 424.175 62.0247 424.297 61.978V62.916C424.166 62.9813 423.979 63.0327 423.737 63.07C423.494 63.1167 423.261 63.14 423.037 63.14C422.645 63.14 422.281 63.0747 421.945 62.944C421.618 62.804 421.352 62.566 421.147 62.23C420.941 61.894 420.839 61.4227 420.839 60.816V56.448H419.775V55.86L420.853 55.37L421.343 53.774H422.071V55.496H424.241V56.448H422.071V60.788C422.071 61.2453 422.178 61.586 422.393 61.81C422.617 62.0247 422.901 62.132 423.247 62.132ZM426.429 52.682C426.616 52.682 426.779 52.7473 426.919 52.878C427.069 52.9993 427.143 53.1953 427.143 53.466C427.143 53.7367 427.069 53.9373 426.919 54.068C426.779 54.1893 426.616 54.25 426.429 54.25C426.224 54.25 426.051 54.1893 425.911 54.068C425.771 53.9373 425.701 53.7367 425.701 53.466C425.701 53.1953 425.771 52.9993 425.911 52.878C426.051 52.7473 426.224 52.682 426.429 52.682ZM427.031 55.496V63H425.799V55.496H427.031ZM435.933 59.234C435.933 60.4753 435.615 61.4367 434.981 62.118C434.355 62.7993 433.506 63.14 432.433 63.14C431.77 63.14 431.177 62.9907 430.655 62.692C430.141 62.384 429.735 61.9407 429.437 61.362C429.138 60.774 428.989 60.0647 428.989 59.234C428.989 57.9927 429.297 57.036 429.913 56.364C430.538 55.692 431.392 55.356 432.475 55.356C433.147 55.356 433.744 55.51 434.267 55.818C434.789 56.1167 435.195 56.5553 435.485 57.134C435.783 57.7033 435.933 58.4033 435.933 59.234ZM430.263 59.234C430.263 60.1207 430.435 60.8253 430.781 61.348C431.135 61.8613 431.695 62.118 432.461 62.118C433.217 62.118 433.772 61.8613 434.127 61.348C434.481 60.8253 434.659 60.1207 434.659 59.234C434.659 58.3473 434.481 57.652 434.127 57.148C433.772 56.644 433.212 56.392 432.447 56.392C431.681 56.392 431.126 56.644 430.781 57.148C430.435 57.652 430.263 58.3473 430.263 59.234ZM441.497 55.356C442.393 55.356 443.07 55.5753 443.527 56.014C443.985 56.4527 444.213 57.1527 444.213 58.114V63H442.995V58.198C442.995 56.994 442.435 56.392 441.315 56.392C440.485 56.392 439.911 56.6253 439.593 57.092C439.276 57.5587 439.117 58.2307 439.117 59.108V63H437.885V55.496H438.879L439.061 56.518H439.131C439.374 56.126 439.71 55.8367 440.139 55.65C440.569 55.454 441.021 55.356 441.497 55.356ZM453.956 63H452.752V56.014C452.752 55.6127 452.757 55.2907 452.766 55.048C452.776 54.8053 452.79 54.5533 452.808 54.292C452.659 54.4413 452.519 54.5673 452.388 54.67C452.267 54.7727 452.118 54.9033 451.94 55.062L450.876 55.93L450.232 55.104L452.934 53.004H453.956V63Z" fill="black"/>
<path d="M410.08 93.988C410.08 95.024 409.903 95.9293 409.548 96.704C409.203 97.4693 408.685 98.0667 407.994 98.496C407.313 98.9253 406.473 99.14 405.474 99.14C404.438 99.14 403.575 98.9253 402.884 98.496C402.203 98.0667 401.694 97.4647 401.358 96.69C401.022 95.9153 400.854 95.01 400.854 93.974C400.854 92.9567 401.022 92.0653 401.358 91.3C401.694 90.5253 402.203 89.9233 402.884 89.494C403.575 89.0647 404.443 88.85 405.488 88.85C406.487 88.85 407.327 89.0647 408.008 89.494C408.689 89.914 409.203 90.5113 409.548 91.286C409.903 92.0513 410.08 92.952 410.08 93.988ZM402.184 93.988C402.184 95.248 402.45 96.242 402.982 96.97C403.514 97.6887 404.345 98.048 405.474 98.048C406.603 98.048 407.429 97.6887 407.952 96.97C408.484 96.242 408.75 95.248 408.75 93.988C408.75 92.728 408.489 91.7433 407.966 91.034C407.443 90.3153 406.617 89.956 405.488 89.956C404.349 89.956 403.514 90.3153 402.982 91.034C402.45 91.7433 402.184 92.728 402.184 93.988ZM415.698 91.356C416.622 91.356 417.364 91.678 417.924 92.322C418.493 92.966 418.778 93.9367 418.778 95.234C418.778 96.5127 418.493 97.4833 417.924 98.146C417.364 98.8087 416.617 99.14 415.684 99.14C415.105 99.14 414.624 99.0327 414.242 98.818C413.868 98.6033 413.574 98.3467 413.36 98.048H413.276C413.285 98.2067 413.299 98.4073 413.318 98.65C413.346 98.8927 413.36 99.1027 413.36 99.28V102.36H412.128V91.496H413.136L413.304 92.518H413.36C413.584 92.1913 413.878 91.916 414.242 91.692C414.606 91.468 415.091 91.356 415.698 91.356ZM415.474 92.392C414.708 92.392 414.167 92.6067 413.85 93.036C413.532 93.4653 413.369 94.1187 413.36 94.996V95.234C413.36 96.158 413.509 96.872 413.808 97.376C414.116 97.8707 414.68 98.118 415.502 98.118C415.95 98.118 416.323 97.9967 416.622 97.754C416.92 97.502 417.14 97.1567 417.28 96.718C417.429 96.2793 417.504 95.78 417.504 95.22C417.504 94.3613 417.336 93.6753 417 93.162C416.673 92.6487 416.164 92.392 415.474 92.392ZM423.247 98.132C423.433 98.132 423.625 98.118 423.821 98.09C424.017 98.062 424.175 98.0247 424.297 97.978V98.916C424.166 98.9813 423.979 99.0327 423.737 99.07C423.494 99.1167 423.261 99.14 423.037 99.14C422.645 99.14 422.281 99.0747 421.945 98.944C421.618 98.804 421.352 98.566 421.147 98.23C420.941 97.894 420.839 97.4227 420.839 96.816V92.448H419.775V91.86L420.853 91.37L421.343 89.774H422.071V91.496H424.241V92.448H422.071V96.788C422.071 97.2453 422.178 97.586 422.393 97.81C422.617 98.0247 422.901 98.132 423.247 98.132ZM426.429 88.682C426.616 88.682 426.779 88.7473 426.919 88.878C427.069 88.9993 427.143 89.1953 427.143 89.466C427.143 89.7367 427.069 89.9373 426.919 90.068C426.779 90.1893 426.616 90.25 426.429 90.25C426.224 90.25 426.051 90.1893 425.911 90.068C425.771 89.9373 425.701 89.7367 425.701 89.466C425.701 89.1953 425.771 88.9993 425.911 88.878C426.051 88.7473 426.224 88.682 426.429 88.682ZM427.031 91.496V99H425.799V91.496H427.031ZM435.933 95.234C435.933 96.4753 435.615 97.4367 434.981 98.118C434.355 98.7993 433.506 99.14 432.433 99.14C431.77 99.14 431.177 98.9907 430.655 98.692C430.141 98.384 429.735 97.9407 429.437 97.362C429.138 96.774 428.989 96.0647 428.989 95.234C428.989 93.9927 429.297 93.036 429.913 92.364C430.538 91.692 431.392 91.356 432.475 91.356C433.147 91.356 433.744 91.51 434.267 91.818C434.789 92.1167 435.195 92.5553 435.485 93.134C435.783 93.7033 435.933 94.4033 435.933 95.234ZM430.263 95.234C430.263 96.1207 430.435 96.8253 430.781 97.348C431.135 97.8613 431.695 98.118 432.461 98.118C433.217 98.118 433.772 97.8613 434.127 97.348C434.481 96.8253 434.659 96.1207 434.659 95.234C434.659 94.3473 434.481 93.652 434.127 93.148C433.772 92.644 433.212 92.392 432.447 92.392C431.681 92.392 431.126 92.644 430.781 93.148C430.435 93.652 430.263 94.3473 430.263 95.234ZM441.497 91.356C442.393 91.356 443.07 91.5753 443.527 92.014C443.985 92.4527 444.213 93.1527 444.213 94.114V99H442.995V94.198C442.995 92.994 442.435 92.392 441.315 92.392C440.485 92.392 439.911 92.6253 439.593 93.092C439.276 93.5587 439.117 94.2307 439.117 95.108V99H437.885V91.496H438.879L439.061 92.518H439.131C439.374 92.126 439.71 91.8367 440.139 91.65C440.569 91.454 441.021 91.356 441.497 91.356ZM456.266 99H449.658V97.978L452.276 95.332C452.771 94.828 453.191 94.38 453.536 93.988C453.891 93.596 454.157 93.2133 454.334 92.84C454.512 92.4667 454.6 92.0513 454.6 91.594C454.6 91.0433 454.437 90.628 454.11 90.348C453.784 90.0587 453.359 89.914 452.836 89.914C452.342 89.914 451.912 89.998 451.548 90.166C451.184 90.334 450.811 90.5673 450.428 90.866L449.77 90.04C450.162 89.7133 450.61 89.438 451.114 89.214C451.628 88.9807 452.202 88.864 452.836 88.864C453.77 88.864 454.507 89.102 455.048 89.578C455.59 90.054 455.86 90.7027 455.86 91.524C455.86 92.0467 455.753 92.5367 455.538 92.994C455.324 93.4513 455.025 93.904 454.642 94.352C454.26 94.8 453.812 95.2713 453.298 95.766L451.212 97.824V97.88H456.266V99Z" fill="black"/>
<path d="M410.08 129.988C410.08 131.024 409.903 131.929 409.548 132.704C409.203 133.469 408.685 134.067 407.994 134.496C407.313 134.925 406.473 135.14 405.474 135.14C404.438 135.14 403.575 134.925 402.884 134.496C402.203 134.067 401.694 133.465 401.358 132.69C401.022 131.915 400.854 131.01 400.854 129.974C400.854 128.957 401.022 128.065 401.358 127.3C401.694 126.525 402.203 125.923 402.884 125.494C403.575 125.065 404.443 124.85 405.488 124.85C406.487 124.85 407.327 125.065 408.008 125.494C408.689 125.914 409.203 126.511 409.548 127.286C409.903 128.051 410.08 128.952 410.08 129.988ZM402.184 129.988C402.184 131.248 402.45 132.242 402.982 132.97C403.514 133.689 404.345 134.048 405.474 134.048C406.603 134.048 407.429 133.689 407.952 132.97C408.484 132.242 408.75 131.248 408.75 129.988C408.75 128.728 408.489 127.743 407.966 127.034C407.443 126.315 406.617 125.956 405.488 125.956C404.349 125.956 403.514 126.315 402.982 127.034C402.45 127.743 402.184 128.728 402.184 129.988ZM415.698 127.356C416.622 127.356 417.364 127.678 417.924 128.322C418.493 128.966 418.778 129.937 418.778 131.234C418.778 132.513 418.493 133.483 417.924 134.146C417.364 134.809 416.617 135.14 415.684 135.14C415.105 135.14 414.624 135.033 414.242 134.818C413.868 134.603 413.574 134.347 413.36 134.048H413.276C413.285 134.207 413.299 134.407 413.318 134.65C413.346 134.893 413.36 135.103 413.36 135.28V138.36H412.128V127.496H413.136L413.304 128.518H413.36C413.584 128.191 413.878 127.916 414.242 127.692C414.606 127.468 415.091 127.356 415.698 127.356ZM415.474 128.392C414.708 128.392 414.167 128.607 413.85 129.036C413.532 129.465 413.369 130.119 413.36 130.996V131.234C413.36 132.158 413.509 132.872 413.808 133.376C414.116 133.871 414.68 134.118 415.502 134.118C415.95 134.118 416.323 133.997 416.622 133.754C416.92 133.502 417.14 133.157 417.28 132.718C417.429 132.279 417.504 131.78 417.504 131.22C417.504 130.361 417.336 129.675 417 129.162C416.673 128.649 416.164 128.392 415.474 128.392ZM423.247 134.132C423.433 134.132 423.625 134.118 423.821 134.09C424.017 134.062 424.175 134.025 424.297 133.978V134.916C424.166 134.981 423.979 135.033 423.737 135.07C423.494 135.117 423.261 135.14 423.037 135.14C422.645 135.14 422.281 135.075 421.945 134.944C421.618 134.804 421.352 134.566 421.147 134.23C420.941 133.894 420.839 133.423 420.839 132.816V128.448H419.775V127.86L420.853 127.37L421.343 125.774H422.071V127.496H424.241V128.448H422.071V132.788C422.071 133.245 422.178 133.586 422.393 133.81C422.617 134.025 422.901 134.132 423.247 134.132ZM426.429 124.682C426.616 124.682 426.779 124.747 426.919 124.878C427.069 124.999 427.143 125.195 427.143 125.466C427.143 125.737 427.069 125.937 426.919 126.068C426.779 126.189 426.616 126.25 426.429 126.25C426.224 126.25 426.051 126.189 425.911 126.068C425.771 125.937 425.701 125.737 425.701 125.466C425.701 125.195 425.771 124.999 425.911 124.878C426.051 124.747 426.224 124.682 426.429 124.682ZM427.031 127.496V135H425.799V127.496H427.031ZM435.933 131.234C435.933 132.475 435.615 133.437 434.981 134.118C434.355 134.799 433.506 135.14 432.433 135.14C431.77 135.14 431.177 134.991 430.655 134.692C430.141 134.384 429.735 133.941 429.437 133.362C429.138 132.774 428.989 132.065 428.989 131.234C428.989 129.993 429.297 129.036 429.913 128.364C430.538 127.692 431.392 127.356 432.475 127.356C433.147 127.356 433.744 127.51 434.267 127.818C434.789 128.117 435.195 128.555 435.485 129.134C435.783 129.703 435.933 130.403 435.933 131.234ZM430.263 131.234C430.263 132.121 430.435 132.825 430.781 133.348C431.135 133.861 431.695 134.118 432.461 134.118C433.217 134.118 433.772 133.861 434.127 133.348C434.481 132.825 434.659 132.121 434.659 131.234C434.659 130.347 434.481 129.652 434.127 129.148C433.772 128.644 433.212 128.392 432.447 128.392C431.681 128.392 431.126 128.644 430.781 129.148C430.435 129.652 430.263 130.347 430.263 131.234ZM441.497 127.356C442.393 127.356 443.07 127.575 443.527 128.014C443.985 128.453 444.213 129.153 444.213 130.114V135H442.995V130.198C442.995 128.994 442.435 128.392 441.315 128.392C440.485 128.392 439.911 128.625 439.593 129.092C439.276 129.559 439.117 130.231 439.117 131.108V135H437.885V127.496H438.879L439.061 128.518H439.131C439.374 128.126 439.71 127.837 440.139 127.65C440.569 127.454 441.021 127.356 441.497 127.356ZM455.888 127.342C455.888 128.014 455.697 128.551 455.314 128.952C454.941 129.344 454.442 129.605 453.816 129.736V129.792C454.61 129.885 455.202 130.137 455.594 130.548C455.996 130.959 456.196 131.495 456.196 132.158C456.196 132.746 456.061 133.264 455.79 133.712C455.52 134.16 455.1 134.51 454.53 134.762C453.97 135.014 453.247 135.14 452.36 135.14C451.838 135.14 451.352 135.098 450.904 135.014C450.456 134.939 450.027 134.799 449.616 134.594V133.446C450.036 133.661 450.489 133.824 450.974 133.936C451.46 134.048 451.926 134.104 452.374 134.104C453.27 134.104 453.914 133.931 454.306 133.586C454.708 133.231 454.908 132.746 454.908 132.13C454.908 131.505 454.661 131.057 454.166 130.786C453.681 130.506 452.995 130.366 452.108 130.366H451.142V129.316H452.122C452.944 129.316 453.564 129.143 453.984 128.798C454.414 128.453 454.628 127.995 454.628 127.426C454.628 126.941 454.465 126.567 454.138 126.306C453.812 126.035 453.368 125.9 452.808 125.9C452.267 125.9 451.805 125.979 451.422 126.138C451.04 126.297 450.662 126.497 450.288 126.74L449.672 125.9C450.027 125.62 450.466 125.377 450.988 125.172C451.52 124.967 452.122 124.864 452.794 124.864C453.84 124.864 454.614 125.097 455.118 125.564C455.632 126.031 455.888 126.623 455.888 127.342Z" fill="black"/>
<path d="M410.08 165.988C410.08 167.024 409.903 167.929 409.548 168.704C409.203 169.469 408.685 170.067 407.994 170.496C407.313 170.925 406.473 171.14 405.474 171.14C404.438 171.14 403.575 170.925 402.884 170.496C402.203 170.067 401.694 169.465 401.358 168.69C401.022 167.915 400.854 167.01 400.854 165.974C400.854 164.957 401.022 164.065 401.358 163.3C401.694 162.525 402.203 161.923 402.884 161.494C403.575 161.065 404.443 160.85 405.488 160.85C406.487 160.85 407.327 161.065 408.008 161.494C408.689 161.914 409.203 162.511 409.548 163.286C409.903 164.051 410.08 164.952 410.08 165.988ZM402.184 165.988C402.184 167.248 402.45 168.242 402.982 168.97C403.514 169.689 404.345 170.048 405.474 170.048C406.603 170.048 407.429 169.689 407.952 168.97C408.484 168.242 408.75 167.248 408.75 165.988C408.75 164.728 408.489 163.743 407.966 163.034C407.443 162.315 406.617 161.956 405.488 161.956C404.349 161.956 403.514 162.315 402.982 163.034C402.45 163.743 402.184 164.728 402.184 165.988ZM415.698 163.356C416.622 163.356 417.364 163.678 417.924 164.322C418.493 164.966 418.778 165.937 418.778 167.234C418.778 168.513 418.493 169.483 417.924 170.146C417.364 170.809 416.617 171.14 415.684 171.14C415.105 171.14 414.624 171.033 414.242 170.818C413.868 170.603 413.574 170.347 413.36 170.048H413.276C413.285 170.207 413.299 170.407 413.318 170.65C413.346 170.893 413.36 171.103 413.36 171.28V174.36H412.128V163.496H413.136L413.304 164.518H413.36C413.584 164.191 413.878 163.916 414.242 163.692C414.606 163.468 415.091 163.356 415.698 163.356ZM415.474 164.392C414.708 164.392 414.167 164.607 413.85 165.036C413.532 165.465 413.369 166.119 413.36 166.996V167.234C413.36 168.158 413.509 168.872 413.808 169.376C414.116 169.871 414.68 170.118 415.502 170.118C415.95 170.118 416.323 169.997 416.622 169.754C416.92 169.502 417.14 169.157 417.28 168.718C417.429 168.279 417.504 167.78 417.504 167.22C417.504 166.361 417.336 165.675 417 165.162C416.673 164.649 416.164 164.392 415.474 164.392ZM423.247 170.132C423.433 170.132 423.625 170.118 423.821 170.09C424.017 170.062 424.175 170.025 424.297 169.978V170.916C424.166 170.981 423.979 171.033 423.737 171.07C423.494 171.117 423.261 171.14 423.037 171.14C422.645 171.14 422.281 171.075 421.945 170.944C421.618 170.804 421.352 170.566 421.147 170.23C420.941 169.894 420.839 169.423 420.839 168.816V164.448H419.775V163.86L420.853 163.37L421.343 161.774H422.071V163.496H424.241V164.448H422.071V168.788C422.071 169.245 422.178 169.586 422.393 169.81C422.617 170.025 422.901 170.132 423.247 170.132ZM426.429 160.682C426.616 160.682 426.779 160.747 426.919 160.878C427.069 160.999 427.143 161.195 427.143 161.466C427.143 161.737 427.069 161.937 426.919 162.068C426.779 162.189 426.616 162.25 426.429 162.25C426.224 162.25 426.051 162.189 425.911 162.068C425.771 161.937 425.701 161.737 425.701 161.466C425.701 161.195 425.771 160.999 425.911 160.878C426.051 160.747 426.224 160.682 426.429 160.682ZM427.031 163.496V171H425.799V163.496H427.031ZM435.933 167.234C435.933 168.475 435.615 169.437 434.981 170.118C434.355 170.799 433.506 171.14 432.433 171.14C431.77 171.14 431.177 170.991 430.655 170.692C430.141 170.384 429.735 169.941 429.437 169.362C429.138 168.774 428.989 168.065 428.989 167.234C428.989 165.993 429.297 165.036 429.913 164.364C430.538 163.692 431.392 163.356 432.475 163.356C433.147 163.356 433.744 163.51 434.267 163.818C434.789 164.117 435.195 164.555 435.485 165.134C435.783 165.703 435.933 166.403 435.933 167.234ZM430.263 167.234C430.263 168.121 430.435 168.825 430.781 169.348C431.135 169.861 431.695 170.118 432.461 170.118C433.217 170.118 433.772 169.861 434.127 169.348C434.481 168.825 434.659 168.121 434.659 167.234C434.659 166.347 434.481 165.652 434.127 165.148C433.772 164.644 433.212 164.392 432.447 164.392C431.681 164.392 431.126 164.644 430.781 165.148C430.435 165.652 430.263 166.347 430.263 167.234ZM441.497 163.356C442.393 163.356 443.07 163.575 443.527 164.014C443.985 164.453 444.213 165.153 444.213 166.114V171H442.995V166.198C442.995 164.994 442.435 164.392 441.315 164.392C440.485 164.392 439.911 164.625 439.593 165.092C439.276 165.559 439.117 166.231 439.117 167.108V171H437.885V163.496H438.879L439.061 164.518H439.131C439.374 164.126 439.71 163.837 440.139 163.65C440.569 163.454 441.021 163.356 441.497 163.356ZM456.714 168.732H455.258V171H454.068V168.732H449.28V167.682L453.984 160.948H455.258V167.626H456.714V168.732ZM454.068 167.626V164.476C454.068 163.991 454.073 163.58 454.082 163.244C454.101 162.899 454.12 162.572 454.138 162.264H454.082C454.008 162.441 453.914 162.633 453.802 162.838C453.69 163.043 453.583 163.216 453.48 163.356L450.484 167.626H454.068Z" fill="black"/>
<rect x="391.5" y="39.5" width="140" height="145" rx="4.5" stroke="black" stroke-opacity="0.15"/>
</g>
<rect x="531" y="40" width="98" height="36" rx="2" fill="#1B77AF"/>
<path d="M554.63 63L553.426 59.906H549.464L548.274 63H547L550.906 52.962H552.04L555.932 63H554.63ZM553.048 58.786L551.928 55.762C551.9 55.6873 551.853 55.552 551.788 55.356C551.723 55.16 551.657 54.9593 551.592 54.754C551.536 54.5393 551.489 54.376 551.452 54.264C551.377 54.5533 551.298 54.838 551.214 55.118C551.139 55.3887 551.074 55.6033 551.018 55.762L549.884 58.786H553.048ZM560.141 63.14C559.469 63.14 558.877 63.0047 558.363 62.734C557.85 62.4633 557.444 62.0433 557.145 61.474C556.856 60.9047 556.711 60.1767 556.711 59.29C556.711 58.366 556.861 57.6147 557.159 57.036C557.467 56.4573 557.887 56.0327 558.419 55.762C558.951 55.4913 559.553 55.356 560.225 55.356C560.599 55.356 560.963 55.398 561.317 55.482C561.681 55.5567 561.975 55.65 562.199 55.762L561.821 56.784C561.597 56.7 561.336 56.6207 561.037 56.546C560.739 56.4713 560.459 56.434 560.197 56.434C558.723 56.434 557.985 57.3813 557.985 59.276C557.985 60.1813 558.163 60.8767 558.517 61.362C558.881 61.838 559.418 62.076 560.127 62.076C560.529 62.076 560.888 62.034 561.205 61.95C561.523 61.866 561.812 61.7633 562.073 61.642V62.734C561.821 62.8647 561.541 62.9627 561.233 63.028C560.935 63.1027 560.571 63.14 560.141 63.14ZM566.364 62.132C566.551 62.132 566.742 62.118 566.938 62.09C567.134 62.062 567.293 62.0247 567.414 61.978V62.916C567.283 62.9813 567.097 63.0327 566.854 63.07C566.611 63.1167 566.378 63.14 566.154 63.14C565.762 63.14 565.398 63.0747 565.062 62.944C564.735 62.804 564.469 62.566 564.264 62.23C564.059 61.894 563.956 61.4227 563.956 60.816V56.448H562.892V55.86L563.97 55.37L564.46 53.774H565.188V55.496H567.358V56.448H565.188V60.788C565.188 61.2453 565.295 61.586 565.51 61.81C565.734 62.0247 566.019 62.132 566.364 62.132ZM569.547 52.682C569.733 52.682 569.897 52.7473 570.037 52.878C570.186 52.9993 570.261 53.1953 570.261 53.466C570.261 53.7367 570.186 53.9373 570.037 54.068C569.897 54.1893 569.733 54.25 569.547 54.25C569.341 54.25 569.169 54.1893 569.029 54.068C568.889 53.9373 568.819 53.7367 568.819 53.466C568.819 53.1953 568.889 52.9993 569.029 52.878C569.169 52.7473 569.341 52.682 569.547 52.682ZM570.149 55.496V63H568.917V55.496H570.149ZM579.05 59.234C579.05 60.4753 578.733 61.4367 578.098 62.118C577.473 62.7993 576.623 63.14 575.55 63.14C574.887 63.14 574.295 62.9907 573.772 62.692C573.259 62.384 572.853 61.9407 572.554 61.362C572.255 60.774 572.106 60.0647 572.106 59.234C572.106 57.9927 572.414 57.036 573.03 56.364C573.655 55.692 574.509 55.356 575.592 55.356C576.264 55.356 576.861 55.51 577.384 55.818C577.907 56.1167 578.313 56.5553 578.602 57.134C578.901 57.7033 579.05 58.4033 579.05 59.234ZM573.38 59.234C573.38 60.1207 573.553 60.8253 573.898 61.348C574.253 61.8613 574.813 62.118 575.578 62.118C576.334 62.118 576.889 61.8613 577.244 61.348C577.599 60.8253 577.776 60.1207 577.776 59.234C577.776 58.3473 577.599 57.652 577.244 57.148C576.889 56.644 576.329 56.392 575.564 56.392C574.799 56.392 574.243 56.644 573.898 57.148C573.553 57.652 573.38 58.3473 573.38 59.234ZM584.615 55.356C585.511 55.356 586.187 55.5753 586.645 56.014C587.102 56.4527 587.331 57.1527 587.331 58.114V63H586.113V58.198C586.113 56.994 585.553 56.392 584.433 56.392C583.602 56.392 583.028 56.6253 582.711 57.092C582.393 57.5587 582.235 58.2307 582.235 59.108V63H581.003V55.496H581.997L582.179 56.518H582.249C582.491 56.126 582.827 55.8367 583.257 55.65C583.686 55.454 584.139 55.356 584.615 55.356Z" fill="white"/>
<path d="M605.012 61.3625C604.912 61.3625 604.812 61.3125 604.762 61.2625L599.113 55.6625C598.962 55.5125 598.962 55.2625 599.113 55.1125C599.263 54.9625 599.512 54.9625 599.662 55.1125L605.012 60.4625L610.312 55.1125C610.462 54.9625 610.713 54.9625 610.863 55.1125C611.012 55.2625 611.012 55.5125 610.863 55.6625L605.262 61.2625C605.162 61.3125 605.112 61.3625 605.012 61.3625Z" fill="white"/>
<defs>
<filter id="filter0_d_8122_312397" x="160" y="247" width="149" height="154" filterUnits="userSpaceOnUse" color-interpolation-filters="sRGB">
<feFlood flood-opacity="0" result="BackgroundImageFix"/>
<feColorMatrix in="SourceAlpha" type="matrix" values="0 0 0 0 0 0 0 0 0 0 0 0 0 0 0 0 0 0 127 0" result="hardAlpha"/>
<feOffset dy="4"/>
<feGaussianBlur stdDeviation="2"/>
<feColorMatrix type="matrix" values="0 0 0 0 0 0 0 0 0 0 0 0 0 0 0 0 0 0 0.25 0"/>
<feBlend mode="normal" in2="BackgroundImageFix" result="effect1_dropShadow_8122_312397"/>
<feBlend mode="normal" in="SourceGraphic" in2="effect1_dropShadow_8122_312397" result="shape"/>
</filter>
<filter id="filter1_d_8122_312397" x="387" y="247" width="149" height="154" filterUnits="userSpaceOnUse" color-interpolation-filters="sRGB">
<feFlood flood-opacity="0" result="BackgroundImageFix"/>
<feColorMatrix in="SourceAlpha" type="matrix" values="0 0 0 0 0 0 0 0 0 0 0 0 0 0 0 0 0 0 127 0" result="hardAlpha"/>
<feOffset dy="4"/>
<feGaussianBlur stdDeviation="2"/>
<feColorMatrix type="matrix" values="0 0 0 0 0 0 0 0 0 0 0 0 0 0 0 0 0 0 0.25 0"/>
<feBlend mode="normal" in2="BackgroundImageFix" result="effect1_dropShadow_8122_312397"/>
<feBlend mode="normal" in="SourceGraphic" in2="effect1_dropShadow_8122_312397" result="shape"/>
</filter>
<filter id="filter2_d_8122_312397" x="160" y="39" width="149" height="154" filterUnits="userSpaceOnUse" color-interpolation-filters="sRGB">
<feFlood flood-opacity="0" result="BackgroundImageFix"/>
<feColorMatrix in="SourceAlpha" type="matrix" values="0 0 0 0 0 0 0 0 0 0 0 0 0 0 0 0 0 0 127 0" result="hardAlpha"/>
<feOffset dy="4"/>
<feGaussianBlur stdDeviation="2"/>
<feColorMatrix type="matrix" values="0 0 0 0 0 0 0 0 0 0 0 0 0 0 0 0 0 0 0.25 0"/>
<feBlend mode="normal" in2="BackgroundImageFix" result="effect1_dropShadow_8122_312397"/>
<feBlend mode="normal" in="SourceGraphic" in2="effect1_dropShadow_8122_312397" result="shape"/>
</filter>
<filter id="filter3_d_8122_312397" x="387" y="39" width="149" height="154" filterUnits="userSpaceOnUse" color-interpolation-filters="sRGB">
<feFlood flood-opacity="0" result="BackgroundImageFix"/>
<feColorMatrix in="SourceAlpha" type="matrix" values="0 0 0 0 0 0 0 0 0 0 0 0 0 0 0 0 0 0 127 0" result="hardAlpha"/>
<feOffset dy="4"/>
<feGaussianBlur stdDeviation="2"/>
<feColorMatrix type="matrix" values="0 0 0 0 0 0 0 0 0 0 0 0 0 0 0 0 0 0 0.25 0"/>
<feBlend mode="normal" in2="BackgroundImageFix" result="effect1_dropShadow_8122_312397"/>
<feBlend mode="normal" in="SourceGraphic" in2="effect1_dropShadow_8122_312397" result="shape"/>
</filter>
</defs>
</svg>
