<svg width="412" height="224" viewBox="0 0 412 224" fill="none" xmlns="http://www.w3.org/2000/svg">
<rect width="412" height="224" fill="white"/>
<g filter="url(#filter0_d_6659_524388)">
<rect x="104.5" y="40" width="203" height="144" rx="4" fill="white"/>
<path d="M120.5 61.2616C122.301 61.2616 123.762 59.8014 123.762 58C123.762 56.1986 122.301 54.7384 120.5 54.7384C118.699 54.7384 117.238 56.1986 117.238 58C117.238 59.8014 118.699 61.2616 120.5 61.2616Z" fill="black"/>
<path fill-rule="evenodd" clip-rule="evenodd" d="M120.5 51.7527C117.05 51.7527 114.253 54.5497 114.253 58C114.253 61.4503 117.05 64.2473 120.5 64.2473C123.95 64.2473 126.747 61.4503 126.747 58C126.747 54.5497 123.95 51.7527 120.5 51.7527ZM113.5 58C113.5 54.134 116.634 51 120.5 51C124.366 51 127.5 54.134 127.5 58C127.5 61.866 124.366 65 120.5 65C116.634 65 113.5 61.866 113.5 58Z" fill="black"/>
<path d="M140.616 53.004C141.857 53.004 142.772 53.242 143.36 53.718C143.957 54.1847 144.256 54.894 144.256 55.846C144.256 56.378 144.158 56.8213 143.962 57.176C143.766 57.5307 143.514 57.8153 143.206 58.03C142.907 58.2447 142.59 58.408 142.254 58.52L144.998 63H143.528L141.106 58.87H139.118V63H137.858V53.004H140.616ZM140.546 54.096H139.118V57.806H140.616C141.428 57.806 142.021 57.6473 142.394 57.33C142.767 57.0033 142.954 56.5273 142.954 55.902C142.954 55.2487 142.758 54.7867 142.366 54.516C141.974 54.236 141.367 54.096 140.546 54.096ZM149.297 55.356C149.932 55.356 150.482 55.496 150.949 55.776C151.416 56.056 151.77 56.4527 152.013 56.966C152.265 57.47 152.391 58.0627 152.391 58.744V59.486H147.253C147.272 60.3353 147.486 60.984 147.897 61.432C148.317 61.8707 148.9 62.09 149.647 62.09C150.123 62.09 150.543 62.048 150.907 61.964C151.28 61.8707 151.663 61.74 152.055 61.572V62.65C151.672 62.818 151.294 62.9393 150.921 63.014C150.548 63.098 150.104 63.14 149.591 63.14C148.872 63.14 148.242 62.9953 147.701 62.706C147.16 62.4167 146.735 61.9873 146.427 61.418C146.128 60.8487 145.979 60.144 145.979 59.304C145.979 58.4827 146.114 57.778 146.385 57.19C146.665 56.602 147.052 56.1493 147.547 55.832C148.051 55.5147 148.634 55.356 149.297 55.356ZM149.283 56.364C148.695 56.364 148.228 56.5553 147.883 56.938C147.547 57.3113 147.346 57.834 147.281 58.506H151.103C151.094 57.8713 150.944 57.358 150.655 56.966C150.366 56.5647 149.908 56.364 149.283 56.364ZM157.311 63.14C156.639 63.14 156.047 63.0047 155.533 62.734C155.02 62.4633 154.614 62.0433 154.315 61.474C154.026 60.9047 153.881 60.1767 153.881 59.29C153.881 58.366 154.031 57.6147 154.329 57.036C154.637 56.4573 155.057 56.0327 155.589 55.762C156.121 55.4913 156.723 55.356 157.395 55.356C157.769 55.356 158.133 55.398 158.487 55.482C158.851 55.5567 159.145 55.65 159.369 55.762L158.991 56.784C158.767 56.7 158.506 56.6207 158.207 56.546C157.909 56.4713 157.629 56.434 157.367 56.434C155.893 56.434 155.155 57.3813 155.155 59.276C155.155 60.1813 155.333 60.8767 155.687 61.362C156.051 61.838 156.588 62.076 157.297 62.076C157.699 62.076 158.058 62.034 158.375 61.95C158.693 61.866 158.982 61.7633 159.243 61.642V62.734C158.991 62.8647 158.711 62.9627 158.403 63.028C158.105 63.1027 157.741 63.14 157.311 63.14ZM167.552 59.234C167.552 60.4753 167.235 61.4367 166.6 62.118C165.975 62.7993 165.125 63.14 164.052 63.14C163.389 63.14 162.797 62.9907 162.274 62.692C161.761 62.384 161.355 61.9407 161.056 61.362C160.757 60.774 160.608 60.0647 160.608 59.234C160.608 57.9927 160.916 57.036 161.532 56.364C162.157 55.692 163.011 55.356 164.094 55.356C164.766 55.356 165.363 55.51 165.886 55.818C166.409 56.1167 166.815 56.5553 167.104 57.134C167.403 57.7033 167.552 58.4033 167.552 59.234ZM161.882 59.234C161.882 60.1207 162.055 60.8253 162.4 61.348C162.755 61.8613 163.315 62.118 164.08 62.118C164.836 62.118 165.391 61.8613 165.746 61.348C166.101 60.8253 166.278 60.1207 166.278 59.234C166.278 58.3473 166.101 57.652 165.746 57.148C165.391 56.644 164.831 56.392 164.066 56.392C163.301 56.392 162.745 56.644 162.4 57.148C162.055 57.652 161.882 58.3473 161.882 59.234ZM173.004 55.356C173.144 55.356 173.294 55.3653 173.452 55.384C173.611 55.3933 173.756 55.412 173.886 55.44L173.732 56.574C173.611 56.546 173.476 56.5227 173.326 56.504C173.177 56.4853 173.042 56.476 172.92 56.476C172.538 56.476 172.178 56.5833 171.842 56.798C171.506 57.0033 171.236 57.2973 171.03 57.68C170.834 58.0533 170.736 58.492 170.736 58.996V63H169.504V55.496H170.512L170.652 56.868H170.708C170.942 56.4573 171.25 56.1027 171.632 55.804C172.024 55.5053 172.482 55.356 173.004 55.356ZM177.674 63.14C176.741 63.14 175.994 62.818 175.434 62.174C174.874 61.5207 174.594 60.55 174.594 59.262C174.594 57.974 174.874 57.0033 175.434 56.35C176.004 55.6873 176.755 55.356 177.688 55.356C178.267 55.356 178.738 55.4633 179.102 55.678C179.476 55.8927 179.779 56.154 180.012 56.462H180.096C180.078 56.3407 180.059 56.1633 180.04 55.93C180.022 55.6873 180.012 55.496 180.012 55.356V52.36H181.244V63H180.25L180.068 61.992H180.012C179.788 62.3093 179.49 62.58 179.116 62.804C178.743 63.028 178.262 63.14 177.674 63.14ZM177.87 62.118C178.664 62.118 179.219 61.9033 179.536 61.474C179.863 61.0353 180.026 60.3773 180.026 59.5V59.276C180.026 58.3427 179.872 57.6287 179.564 57.134C179.256 56.63 178.687 56.378 177.856 56.378C177.194 56.378 176.694 56.644 176.358 57.176C176.032 57.6987 175.868 58.4033 175.868 59.29C175.868 60.186 176.032 60.8813 176.358 61.376C176.694 61.8707 177.198 62.118 177.87 62.118ZM189.77 62.132C189.957 62.132 190.148 62.118 190.344 62.09C190.54 62.062 190.699 62.0247 190.82 61.978V62.916C190.69 62.9813 190.503 63.0327 190.26 63.07C190.018 63.1167 189.784 63.14 189.56 63.14C189.168 63.14 188.804 63.0747 188.468 62.944C188.142 62.804 187.876 62.566 187.67 62.23C187.465 61.894 187.362 61.4227 187.362 60.816V56.448H186.298V55.86L187.376 55.37L187.866 53.774H188.594V55.496H190.764V56.448H188.594V60.788C188.594 61.2453 188.702 61.586 188.916 61.81C189.14 62.0247 189.425 62.132 189.77 62.132ZM193.555 52.36V55.482C193.555 55.8553 193.531 56.2053 193.485 56.532H193.569C193.811 56.1493 194.138 55.86 194.549 55.664C194.969 55.468 195.421 55.37 195.907 55.37C196.812 55.37 197.493 55.5893 197.951 56.028C198.417 56.4573 198.651 57.1527 198.651 58.114V63H197.433V58.198C197.433 56.994 196.873 56.392 195.753 56.392C194.913 56.392 194.334 56.63 194.017 57.106C193.709 57.5727 193.555 58.2447 193.555 59.122V63H192.323V52.36H193.555ZM201.607 52.682C201.794 52.682 201.957 52.7473 202.097 52.878C202.246 52.9993 202.321 53.1953 202.321 53.466C202.321 53.7367 202.246 53.9373 202.097 54.068C201.957 54.1893 201.794 54.25 201.607 54.25C201.402 54.25 201.229 54.1893 201.089 54.068C200.949 53.9373 200.879 53.7367 200.879 53.466C200.879 53.1953 200.949 52.9993 201.089 52.878C201.229 52.7473 201.402 52.682 201.607 52.682ZM202.209 55.496V63H200.977V55.496H202.209ZM209.472 60.928C209.472 61.656 209.202 62.2067 208.66 62.58C208.119 62.9533 207.391 63.14 206.476 63.14C205.954 63.14 205.501 63.098 205.118 63.014C204.745 62.93 204.414 62.8133 204.124 62.664V61.544C204.423 61.6933 204.782 61.8333 205.202 61.964C205.632 62.0853 206.066 62.146 206.504 62.146C207.13 62.146 207.582 62.048 207.862 61.852C208.142 61.6467 208.282 61.376 208.282 61.04C208.282 60.8533 208.231 60.6853 208.128 60.536C208.026 60.3867 207.839 60.2373 207.568 60.088C207.307 59.9387 206.929 59.7707 206.434 59.584C205.949 59.3973 205.534 59.2107 205.188 59.024C204.843 58.8373 204.577 58.6133 204.39 58.352C204.204 58.0907 204.11 57.7547 204.11 57.344C204.11 56.7093 204.367 56.2193 204.88 55.874C205.403 55.5287 206.084 55.356 206.924 55.356C207.382 55.356 207.806 55.4027 208.198 55.496C208.6 55.5893 208.973 55.7107 209.318 55.86L208.898 56.84C208.581 56.7093 208.25 56.5973 207.904 56.504C207.559 56.4107 207.204 56.364 206.84 56.364C206.336 56.364 205.949 56.448 205.678 56.616C205.417 56.7747 205.286 56.994 205.286 57.274C205.286 57.4887 205.347 57.666 205.468 57.806C205.59 57.946 205.79 58.086 206.07 58.226C206.36 58.366 206.742 58.5247 207.218 58.702C207.694 58.8793 208.1 59.0613 208.436 59.248C208.772 59.4347 209.029 59.6633 209.206 59.934C209.384 60.1953 209.472 60.5267 209.472 60.928ZM219.5 63L216.21 54.236H216.154C216.182 54.5253 216.206 54.9173 216.224 55.412C216.243 55.8973 216.252 56.406 216.252 56.938V63H215.09V53.004H216.952L220.032 61.194H220.088L223.224 53.004H225.072V63H223.826V56.854C223.826 56.3687 223.836 55.888 223.854 55.412C223.882 54.936 223.906 54.5487 223.924 54.25H223.868L220.536 63H219.5ZM230.522 55.356C231.156 55.356 231.707 55.496 232.174 55.776C232.64 56.056 232.995 56.4527 233.238 56.966C233.49 57.47 233.616 58.0627 233.616 58.744V59.486H228.478C228.496 60.3353 228.711 60.984 229.122 61.432C229.542 61.8707 230.125 62.09 230.872 62.09C231.348 62.09 231.768 62.048 232.132 61.964C232.505 61.8707 232.888 61.74 233.28 61.572V62.65C232.897 62.818 232.519 62.9393 232.146 63.014C231.772 63.098 231.329 63.14 230.816 63.14C230.097 63.14 229.467 62.9953 228.926 62.706C228.384 62.4167 227.96 61.9873 227.652 61.418C227.353 60.8487 227.204 60.144 227.204 59.304C227.204 58.4827 227.339 57.778 227.61 57.19C227.89 56.602 228.277 56.1493 228.772 55.832C229.276 55.5147 229.859 55.356 230.522 55.356ZM230.508 56.364C229.92 56.364 229.453 56.5553 229.108 56.938C228.772 57.3113 228.571 57.834 228.506 58.506H232.328C232.318 57.8713 232.169 57.358 231.88 56.966C231.59 56.5647 231.133 56.364 230.508 56.364ZM238.424 55.356C239.059 55.356 239.609 55.496 240.076 55.776C240.543 56.056 240.897 56.4527 241.14 56.966C241.392 57.47 241.518 58.0627 241.518 58.744V59.486H236.38C236.399 60.3353 236.613 60.984 237.024 61.432C237.444 61.8707 238.027 62.09 238.774 62.09C239.25 62.09 239.67 62.048 240.034 61.964C240.407 61.8707 240.79 61.74 241.182 61.572V62.65C240.799 62.818 240.421 62.9393 240.048 63.014C239.675 63.098 239.231 63.14 238.718 63.14C237.999 63.14 237.369 62.9953 236.828 62.706C236.287 62.4167 235.862 61.9873 235.554 61.418C235.255 60.8487 235.106 60.144 235.106 59.304C235.106 58.4827 235.241 57.778 235.512 57.19C235.792 56.602 236.179 56.1493 236.674 55.832C237.178 55.5147 237.761 55.356 238.424 55.356ZM238.41 56.364C237.822 56.364 237.355 56.5553 237.01 56.938C236.674 57.3113 236.473 57.834 236.408 58.506H240.23C240.221 57.8713 240.071 57.358 239.782 56.966C239.493 56.5647 239.035 56.364 238.41 56.364ZM245.934 62.132C246.121 62.132 246.312 62.118 246.508 62.09C246.704 62.062 246.863 62.0247 246.984 61.978V62.916C246.854 62.9813 246.667 63.0327 246.424 63.07C246.182 63.1167 245.948 63.14 245.724 63.14C245.332 63.14 244.968 63.0747 244.632 62.944C244.306 62.804 244.04 62.566 243.834 62.23C243.629 61.894 243.526 61.4227 243.526 60.816V56.448H242.462V55.86L243.54 55.37L244.03 53.774H244.758V55.496H246.928V56.448H244.758V60.788C244.758 61.2453 244.866 61.586 245.08 61.81C245.304 62.0247 245.589 62.132 245.934 62.132ZM249.117 52.682C249.304 52.682 249.467 52.7473 249.607 52.878C249.756 52.9993 249.831 53.1953 249.831 53.466C249.831 53.7367 249.756 53.9373 249.607 54.068C249.467 54.1893 249.304 54.25 249.117 54.25C248.912 54.25 248.739 54.1893 248.599 54.068C248.459 53.9373 248.389 53.7367 248.389 53.466C248.389 53.1953 248.459 52.9993 248.599 52.878C248.739 52.7473 248.912 52.682 249.117 52.682ZM249.719 55.496V63H248.487V55.496H249.719ZM255.708 55.356C256.604 55.356 257.281 55.5753 257.738 56.014C258.196 56.4527 258.424 57.1527 258.424 58.114V63H257.206V58.198C257.206 56.994 256.646 56.392 255.526 56.392C254.696 56.392 254.122 56.6253 253.804 57.092C253.487 57.5587 253.328 58.2307 253.328 59.108V63H252.096V55.496H253.09L253.272 56.518H253.342C253.585 56.126 253.921 55.8367 254.35 55.65C254.78 55.454 255.232 55.356 255.708 55.356ZM263.411 55.356C263.905 55.356 264.349 55.4493 264.741 55.636C265.142 55.8227 265.483 56.1073 265.763 56.49H265.833L266.001 55.496H266.981V63.126C266.981 64.1993 266.705 65.0067 266.155 65.548C265.613 66.0893 264.769 66.36 263.621 66.36C262.519 66.36 261.619 66.2013 260.919 65.884V64.75C261.656 65.142 262.58 65.338 263.691 65.338C264.335 65.338 264.839 65.1467 265.203 64.764C265.576 64.3907 265.763 63.8773 265.763 63.224V62.93C265.763 62.818 265.767 62.6593 265.777 62.454C265.786 62.2393 265.795 62.09 265.805 62.006H265.749C265.245 62.762 264.47 63.14 263.425 63.14C262.454 63.14 261.693 62.7993 261.143 62.118C260.601 61.4367 260.331 60.4847 260.331 59.262C260.331 58.0673 260.601 57.12 261.143 56.42C261.693 55.7107 262.449 55.356 263.411 55.356ZM263.579 56.392C262.953 56.392 262.468 56.644 262.123 57.148C261.777 57.6427 261.605 58.352 261.605 59.276C261.605 60.2 261.773 60.9093 262.109 61.404C262.445 61.8893 262.944 62.132 263.607 62.132C264.363 62.132 264.913 61.9313 265.259 61.53C265.604 61.1193 265.777 60.4613 265.777 59.556V59.262C265.777 58.2447 265.599 57.512 265.245 57.064C264.89 56.616 264.335 56.392 263.579 56.392Z" fill="black"/>
<path d="M125.875 92.82C125.776 92.8213 125.681 92.8612 125.611 92.9313C125.541 93.0013 125.501 93.0959 125.5 93.195V94.555C125.5 94.6545 125.54 94.7498 125.61 94.8202C125.68 94.8905 125.776 94.93 125.875 94.93C125.974 94.93 126.07 94.8905 126.14 94.8202C126.21 94.7498 126.25 94.6545 126.25 94.555V93.195C126.249 93.0959 126.209 93.0013 126.139 92.9313C126.069 92.8612 125.974 92.8213 125.875 92.82Z" fill="black"/>
<path d="M114.875 92.82C114.776 92.8213 114.681 92.8612 114.611 92.9313C114.541 93.0013 114.501 93.0959 114.5 93.195V94.555C114.501 94.6541 114.541 94.7487 114.611 94.8187C114.681 94.8888 114.776 94.9287 114.875 94.93C114.974 94.9287 115.069 94.8888 115.139 94.8187C115.209 94.7487 115.249 94.6541 115.25 94.555V93.195C115.249 93.0959 115.209 93.0013 115.139 92.9313C115.069 92.8612 114.974 92.8213 114.875 92.82Z" fill="black"/>
<path d="M123.125 90.29C123.026 90.2913 122.931 90.3312 122.861 90.4013C122.791 90.4713 122.751 90.5659 122.75 90.665V97.085C122.75 97.1845 122.79 97.2798 122.86 97.3502C122.93 97.4205 123.026 97.46 123.125 97.46C123.224 97.46 123.32 97.4205 123.39 97.3502C123.46 97.2798 123.5 97.1845 123.5 97.085V90.665C123.499 90.5659 123.459 90.4713 123.389 90.4013C123.319 90.3312 123.224 90.2913 123.125 90.29Z" fill="black"/>
<path d="M117.625 90.29C117.526 90.2913 117.431 90.3312 117.361 90.4013C117.291 90.4713 117.251 90.5659 117.25 90.665V97.085C117.25 97.1845 117.29 97.2798 117.36 97.3502C117.43 97.4205 117.526 97.46 117.625 97.46C117.724 97.46 117.82 97.4205 117.89 97.3502C117.96 97.2798 118 97.1845 118 97.085V90.665C117.999 90.5659 117.959 90.4713 117.889 90.4013C117.819 90.3312 117.724 90.2913 117.625 90.29Z" fill="black"/>
<path d="M120.375 89C120.276 89.0013 120.181 89.0412 120.111 89.1113C120.041 89.1813 120.001 89.2759 120 89.375V98.375C120 98.4745 120.04 98.5698 120.11 98.6402C120.18 98.7105 120.276 98.75 120.375 98.75C120.474 98.75 120.57 98.7105 120.64 98.6402C120.71 98.5698 120.75 98.4745 120.75 98.375V89.375C120.749 89.2759 120.709 89.1813 120.639 89.1113C120.569 89.0412 120.474 89.0013 120.375 89Z" fill="black"/>
<path d="M144.13 99L142.926 95.906H138.964L137.774 99H136.5L140.406 88.962H141.54L145.432 99H144.13ZM142.548 94.786L141.428 91.762C141.4 91.6873 141.353 91.552 141.288 91.356C141.223 91.16 141.157 90.9593 141.092 90.754C141.036 90.5393 140.989 90.376 140.952 90.264C140.877 90.5533 140.798 90.838 140.714 91.118C140.639 91.3887 140.574 91.6033 140.518 91.762L139.384 94.786H142.548ZM149.613 99H146.001V98.272L147.177 98.006V90.012L146.001 89.732V89.004H149.613V89.732L148.437 90.012V98.006L149.613 98.272V99ZM163.104 99H161.634L156.286 90.698H156.23C156.249 91.0247 156.272 91.4307 156.3 91.916C156.328 92.4013 156.342 92.9007 156.342 93.414V99H155.18V89.004H156.636L161.97 97.278H162.026C162.017 97.1287 162.003 96.9047 161.984 96.606C161.975 96.3073 161.961 95.9853 161.942 95.64C161.933 95.2853 161.928 94.954 161.928 94.646V89.004H163.104V99ZM172.173 95.234C172.173 96.4753 171.856 97.4367 171.221 98.118C170.596 98.7993 169.746 99.14 168.673 99.14C168.01 99.14 167.418 98.9907 166.895 98.692C166.382 98.384 165.976 97.9407 165.677 97.362C165.378 96.774 165.229 96.0647 165.229 95.234C165.229 93.9927 165.537 93.036 166.153 92.364C166.778 91.692 167.632 91.356 168.715 91.356C169.387 91.356 169.984 91.51 170.507 91.818C171.03 92.1167 171.436 92.5553 171.725 93.134C172.024 93.7033 172.173 94.4033 172.173 95.234ZM166.503 95.234C166.503 96.1207 166.676 96.8253 167.021 97.348C167.376 97.8613 167.936 98.118 168.701 98.118C169.457 98.118 170.012 97.8613 170.367 97.348C170.722 96.8253 170.899 96.1207 170.899 95.234C170.899 94.3473 170.722 93.652 170.367 93.148C170.012 92.644 169.452 92.392 168.687 92.392C167.922 92.392 167.366 92.644 167.021 93.148C166.676 93.652 166.503 94.3473 166.503 95.234ZM174.756 88.682C174.942 88.682 175.106 88.7473 175.246 88.878C175.395 88.9993 175.47 89.1953 175.47 89.466C175.47 89.7367 175.395 89.9373 175.246 90.068C175.106 90.1893 174.942 90.25 174.756 90.25C174.55 90.25 174.378 90.1893 174.238 90.068C174.098 89.9373 174.028 89.7367 174.028 89.466C174.028 89.1953 174.098 88.9993 174.238 88.878C174.378 88.7473 174.55 88.682 174.756 88.682ZM175.358 91.496V99H174.126V91.496H175.358ZM182.621 96.928C182.621 97.656 182.35 98.2067 181.809 98.58C181.268 98.9533 180.54 99.14 179.625 99.14C179.102 99.14 178.65 99.098 178.267 99.014C177.894 98.93 177.562 98.8133 177.273 98.664V97.544C177.572 97.6933 177.931 97.8333 178.351 97.964C178.78 98.0853 179.214 98.146 179.653 98.146C180.278 98.146 180.731 98.048 181.011 97.852C181.291 97.6467 181.431 97.376 181.431 97.04C181.431 96.8533 181.38 96.6853 181.277 96.536C181.174 96.3867 180.988 96.2373 180.717 96.088C180.456 95.9387 180.078 95.7707 179.583 95.584C179.098 95.3973 178.682 95.2107 178.337 95.024C177.992 94.8373 177.726 94.6133 177.539 94.352C177.352 94.0907 177.259 93.7547 177.259 93.344C177.259 92.7093 177.516 92.2193 178.029 91.874C178.552 91.5287 179.233 91.356 180.073 91.356C180.53 91.356 180.955 91.4027 181.347 91.496C181.748 91.5893 182.122 91.7107 182.467 91.86L182.047 92.84C181.73 92.7093 181.398 92.5973 181.053 92.504C180.708 92.4107 180.353 92.364 179.989 92.364C179.485 92.364 179.098 92.448 178.827 92.616C178.566 92.7747 178.435 92.994 178.435 93.274C178.435 93.4887 178.496 93.666 178.617 93.806C178.738 93.946 178.939 94.086 179.219 94.226C179.508 94.366 179.891 94.5247 180.367 94.702C180.843 94.8793 181.249 95.0613 181.585 95.248C181.921 95.4347 182.178 95.6633 182.355 95.934C182.532 96.1953 182.621 96.5267 182.621 96.928ZM187.332 91.356C187.967 91.356 188.517 91.496 188.984 91.776C189.451 92.056 189.805 92.4527 190.048 92.966C190.3 93.47 190.426 94.0627 190.426 94.744V95.486H185.288C185.307 96.3353 185.521 96.984 185.932 97.432C186.352 97.8707 186.935 98.09 187.682 98.09C188.158 98.09 188.578 98.048 188.942 97.964C189.315 97.8707 189.698 97.74 190.09 97.572V98.65C189.707 98.818 189.329 98.9393 188.956 99.014C188.583 99.098 188.139 99.14 187.626 99.14C186.907 99.14 186.277 98.9953 185.736 98.706C185.195 98.4167 184.77 97.9873 184.462 97.418C184.163 96.8487 184.014 96.144 184.014 95.304C184.014 94.4827 184.149 93.778 184.42 93.19C184.7 92.602 185.087 92.1493 185.582 91.832C186.086 91.5147 186.669 91.356 187.332 91.356ZM187.318 92.364C186.73 92.364 186.263 92.5553 185.918 92.938C185.582 93.3113 185.381 93.834 185.316 94.506H189.138C189.129 93.8713 188.979 93.358 188.69 92.966C188.401 92.5647 187.943 92.364 187.318 92.364ZM198.899 89.004C200.141 89.004 201.055 89.242 201.643 89.718C202.241 90.1847 202.539 90.894 202.539 91.846C202.539 92.378 202.441 92.8213 202.245 93.176C202.049 93.5307 201.797 93.8153 201.489 94.03C201.191 94.2447 200.873 94.408 200.537 94.52L203.281 99H201.811L199.389 94.87H197.401V99H196.141V89.004H198.899ZM198.829 90.096H197.401V93.806H198.899C199.711 93.806 200.304 93.6473 200.677 93.33C201.051 93.0033 201.237 92.5273 201.237 91.902C201.237 91.2487 201.041 90.7867 200.649 90.516C200.257 90.236 199.651 90.096 198.829 90.096ZM207.58 91.356C208.215 91.356 208.766 91.496 209.232 91.776C209.699 92.056 210.054 92.4527 210.296 92.966C210.548 93.47 210.674 94.0627 210.674 94.744V95.486H205.536C205.555 96.3353 205.77 96.984 206.18 97.432C206.6 97.8707 207.184 98.09 207.93 98.09C208.406 98.09 208.826 98.048 209.19 97.964C209.564 97.8707 209.946 97.74 210.338 97.572V98.65C209.956 98.818 209.578 98.9393 209.204 99.014C208.831 99.098 208.388 99.14 207.874 99.14C207.156 99.14 206.526 98.9953 205.984 98.706C205.443 98.4167 205.018 97.9873 204.71 97.418C204.412 96.8487 204.262 96.144 204.262 95.304C204.262 94.4827 204.398 93.778 204.668 93.19C204.948 92.602 205.336 92.1493 205.83 91.832C206.334 91.5147 206.918 91.356 207.58 91.356ZM207.566 92.364C206.978 92.364 206.512 92.5553 206.166 92.938C205.83 93.3113 205.63 93.834 205.564 94.506H209.386C209.377 93.8713 209.228 93.358 208.938 92.966C208.649 92.5647 208.192 92.364 207.566 92.364ZM220.817 91.356C221.666 91.356 222.301 91.5753 222.721 92.014C223.141 92.4527 223.351 93.1527 223.351 94.114V99H222.133V94.17C222.133 92.9847 221.624 92.392 220.607 92.392C219.879 92.392 219.356 92.602 219.039 93.022C218.731 93.442 218.577 94.0533 218.577 94.856V99H217.359V94.17C217.359 92.9847 216.845 92.392 215.819 92.392C215.063 92.392 214.54 92.6253 214.251 93.092C213.961 93.5587 213.817 94.2307 213.817 95.108V99H212.585V91.496H213.579L213.761 92.518H213.831C214.064 92.126 214.377 91.8367 214.769 91.65C215.17 91.454 215.595 91.356 216.043 91.356C217.219 91.356 217.984 91.776 218.339 92.616H218.409C218.661 92.1867 219.001 91.8693 219.431 91.664C219.86 91.4587 220.322 91.356 220.817 91.356ZM232.193 95.234C232.193 96.4753 231.875 97.4367 231.241 98.118C230.615 98.7993 229.766 99.14 228.693 99.14C228.03 99.14 227.437 98.9907 226.915 98.692C226.401 98.384 225.995 97.9407 225.697 97.362C225.398 96.774 225.249 96.0647 225.249 95.234C225.249 93.9927 225.557 93.036 226.173 92.364C226.798 91.692 227.652 91.356 228.735 91.356C229.407 91.356 230.004 91.51 230.527 91.818C231.049 92.1167 231.455 92.5553 231.745 93.134C232.043 93.7033 232.193 94.4033 232.193 95.234ZM226.523 95.234C226.523 96.1207 226.695 96.8253 227.041 97.348C227.395 97.8613 227.955 98.118 228.721 98.118C229.477 98.118 230.032 97.8613 230.387 97.348C230.741 96.8253 230.919 96.1207 230.919 95.234C230.919 94.3473 230.741 93.652 230.387 93.148C230.032 92.644 229.472 92.392 228.707 92.392C227.941 92.392 227.386 92.644 227.041 93.148C226.695 93.652 226.523 94.3473 226.523 95.234ZM235.524 99L232.682 91.496H233.998L235.594 95.92C235.668 96.1253 235.748 96.354 235.832 96.606C235.916 96.858 235.99 97.1007 236.056 97.334C236.121 97.5673 236.168 97.7587 236.196 97.908H236.252C236.28 97.7587 236.331 97.5673 236.406 97.334C236.48 97.0913 236.56 96.8487 236.644 96.606C236.728 96.354 236.807 96.1253 236.882 95.92L238.478 91.496H239.794L236.938 99H235.524ZM243.823 91.37C244.738 91.37 245.414 91.5707 245.853 91.972C246.292 92.3733 246.511 93.0127 246.511 93.89V99H245.615L245.377 97.936H245.321C244.994 98.3467 244.649 98.65 244.285 98.846C243.921 99.042 243.426 99.14 242.801 99.14C242.12 99.14 241.555 98.9627 241.107 98.608C240.659 98.244 240.435 97.6793 240.435 96.914C240.435 96.1673 240.729 95.5933 241.317 95.192C241.905 94.7813 242.81 94.5573 244.033 94.52L245.307 94.478V94.03C245.307 93.4047 245.172 92.9707 244.901 92.728C244.63 92.4853 244.248 92.364 243.753 92.364C243.361 92.364 242.988 92.4247 242.633 92.546C242.278 92.658 241.947 92.7887 241.639 92.938L241.261 92.014C241.588 91.8367 241.975 91.6873 242.423 91.566C242.871 91.4353 243.338 91.37 243.823 91.37ZM245.293 95.332L244.187 95.374C243.254 95.4113 242.605 95.5607 242.241 95.822C241.886 96.0833 241.709 96.452 241.709 96.928C241.709 97.348 241.835 97.656 242.087 97.852C242.348 98.048 242.68 98.146 243.081 98.146C243.706 98.146 244.229 97.9733 244.649 97.628C245.078 97.2733 245.293 96.732 245.293 96.004V95.332ZM250.061 99H248.829V88.36H250.061V99Z" fill="black"/>
<path d="M288.912 99.9625C288.812 99.9625 288.712 99.9125 288.662 99.8625C288.513 99.7125 288.513 99.4625 288.662 99.3125L293.962 94.0125L288.612 88.6625C288.463 88.5125 288.463 88.2625 288.612 88.1125C288.762 87.9625 289.012 87.9625 289.162 88.1125L294.762 93.7125C294.812 93.7625 294.862 93.8625 294.862 93.9625C294.862 94.0625 294.812 94.1625 294.762 94.2125L289.162 99.8625C289.062 99.9625 288.963 99.9625 288.912 99.9625Z" fill="black"/>
<path fill-rule="evenodd" clip-rule="evenodd" d="M113.5 123.875C113.5 123.668 113.668 123.5 113.875 123.5H127.125C127.332 123.5 127.5 123.668 127.5 123.875V133.825C127.5 134.032 127.332 134.2 127.125 134.2H121.75V136.2H123.575C123.782 136.2 123.95 136.368 123.95 136.575C123.95 136.782 123.782 136.95 123.575 136.95H117.375C117.168 136.95 117 136.782 117 136.575C117 136.368 117.168 136.2 117.375 136.2H119.2V134.2H113.875C113.668 134.2 113.5 134.032 113.5 133.825V123.875ZM119.95 134.2V136.2H121V134.2H119.95ZM114.25 124.25V133.45H126.75V124.25H114.25ZM115 125.375C115 125.168 115.168 125 115.375 125H125.625C125.832 125 126 125.168 126 125.375V132.325C126 132.532 125.832 132.7 125.625 132.7H115.375C115.168 132.7 115 132.532 115 132.325V125.375ZM115.75 125.75V131.95H125.25V125.75H115.75Z" fill="black"/>
<path d="M144.9 125.004L141.33 135H140.07L136.5 125.004H137.816L140.07 131.416C140.219 131.827 140.341 132.214 140.434 132.578C140.537 132.933 140.625 133.273 140.7 133.6C140.765 133.273 140.849 132.928 140.952 132.564C141.055 132.2 141.181 131.808 141.33 131.388L143.57 125.004H144.9ZM146.715 124.682C146.901 124.682 147.065 124.747 147.205 124.878C147.354 124.999 147.429 125.195 147.429 125.466C147.429 125.737 147.354 125.937 147.205 126.068C147.065 126.189 146.901 126.25 146.715 126.25C146.509 126.25 146.337 126.189 146.197 126.068C146.057 125.937 145.987 125.737 145.987 125.466C145.987 125.195 146.057 124.999 146.197 124.878C146.337 124.747 146.509 124.682 146.715 124.682ZM147.317 127.496V135H146.085V127.496H147.317ZM152.354 135.14C151.421 135.14 150.674 134.818 150.114 134.174C149.554 133.521 149.274 132.55 149.274 131.262C149.274 129.974 149.554 129.003 150.114 128.35C150.683 127.687 151.435 127.356 152.368 127.356C152.947 127.356 153.418 127.463 153.782 127.678C154.155 127.893 154.459 128.154 154.692 128.462H154.776C154.757 128.341 154.739 128.163 154.72 127.93C154.701 127.687 154.692 127.496 154.692 127.356V124.36H155.924V135H154.93L154.748 133.992H154.692C154.468 134.309 154.169 134.58 153.796 134.804C153.423 135.028 152.942 135.14 152.354 135.14ZM152.55 134.118C153.343 134.118 153.899 133.903 154.216 133.474C154.543 133.035 154.706 132.377 154.706 131.5V131.276C154.706 130.343 154.552 129.629 154.244 129.134C153.936 128.63 153.367 128.378 152.536 128.378C151.873 128.378 151.374 128.644 151.038 129.176C150.711 129.699 150.548 130.403 150.548 131.29C150.548 132.186 150.711 132.881 151.038 133.376C151.374 133.871 151.878 134.118 152.55 134.118ZM161.205 127.356C161.84 127.356 162.391 127.496 162.857 127.776C163.324 128.056 163.679 128.453 163.921 128.966C164.173 129.47 164.299 130.063 164.299 130.744V131.486H159.161C159.18 132.335 159.395 132.984 159.805 133.432C160.225 133.871 160.809 134.09 161.555 134.09C162.031 134.09 162.451 134.048 162.815 133.964C163.189 133.871 163.571 133.74 163.963 133.572V134.65C163.581 134.818 163.203 134.939 162.829 135.014C162.456 135.098 162.013 135.14 161.499 135.14C160.781 135.14 160.151 134.995 159.609 134.706C159.068 134.417 158.643 133.987 158.335 133.418C158.037 132.849 157.887 132.144 157.887 131.304C157.887 130.483 158.023 129.778 158.293 129.19C158.573 128.602 158.961 128.149 159.455 127.832C159.959 127.515 160.543 127.356 161.205 127.356ZM161.191 128.364C160.603 128.364 160.137 128.555 159.791 128.938C159.455 129.311 159.255 129.834 159.189 130.506H163.011C163.002 129.871 162.853 129.358 162.563 128.966C162.274 128.565 161.817 128.364 161.191 128.364ZM172.734 131.234C172.734 132.475 172.416 133.437 171.782 134.118C171.156 134.799 170.307 135.14 169.234 135.14C168.571 135.14 167.978 134.991 167.456 134.692C166.942 134.384 166.536 133.941 166.238 133.362C165.939 132.774 165.79 132.065 165.79 131.234C165.79 129.993 166.098 129.036 166.714 128.364C167.339 127.692 168.193 127.356 169.276 127.356C169.948 127.356 170.545 127.51 171.068 127.818C171.59 128.117 171.996 128.555 172.286 129.134C172.584 129.703 172.734 130.403 172.734 131.234ZM167.064 131.234C167.064 132.121 167.236 132.825 167.582 133.348C167.936 133.861 168.496 134.118 169.262 134.118C170.018 134.118 170.573 133.861 170.928 133.348C171.282 132.825 171.46 132.121 171.46 131.234C171.46 130.347 171.282 129.652 170.928 129.148C170.573 128.644 170.013 128.392 169.248 128.392C168.482 128.392 167.927 128.644 167.582 129.148C167.236 129.652 167.064 130.347 167.064 131.234ZM187.213 129.988C187.213 131.211 186.965 132.256 186.471 133.124C185.985 133.983 185.262 134.571 184.301 134.888L186.695 137.38H184.889L182.957 135.126C182.901 135.126 182.84 135.126 182.775 135.126C182.719 135.135 182.663 135.14 182.607 135.14C181.571 135.14 180.707 134.925 180.017 134.496C179.335 134.067 178.827 133.465 178.491 132.69C178.155 131.915 177.987 131.01 177.987 129.974C177.987 128.957 178.155 128.065 178.491 127.3C178.827 126.525 179.335 125.923 180.017 125.494C180.707 125.065 181.575 124.85 182.621 124.85C183.619 124.85 184.459 125.065 185.141 125.494C185.822 125.914 186.335 126.511 186.681 127.286C187.035 128.051 187.213 128.952 187.213 129.988ZM179.317 129.988C179.317 131.248 179.583 132.242 180.115 132.97C180.647 133.689 181.477 134.048 182.607 134.048C183.736 134.048 184.562 133.689 185.085 132.97C185.617 132.242 185.883 131.248 185.883 129.988C185.883 128.728 185.621 127.743 185.099 127.034C184.576 126.315 183.75 125.956 182.621 125.956C181.482 125.956 180.647 126.315 180.115 127.034C179.583 127.743 179.317 128.728 179.317 129.988ZM195.532 127.496V135H194.524L194.342 134.006H194.286C194.044 134.398 193.708 134.687 193.278 134.874C192.849 135.051 192.392 135.14 191.906 135.14C191.001 135.14 190.32 134.925 189.862 134.496C189.405 134.057 189.176 133.362 189.176 132.41V127.496H190.422V132.326C190.422 133.521 190.978 134.118 192.088 134.118C192.919 134.118 193.493 133.885 193.81 133.418C194.137 132.951 194.3 132.279 194.3 131.402V127.496H195.532ZM200.757 127.37C201.671 127.37 202.348 127.571 202.787 127.972C203.225 128.373 203.445 129.013 203.445 129.89V135H202.549L202.311 133.936H202.255C201.928 134.347 201.583 134.65 201.219 134.846C200.855 135.042 200.36 135.14 199.735 135.14C199.053 135.14 198.489 134.963 198.041 134.608C197.593 134.244 197.369 133.679 197.369 132.914C197.369 132.167 197.663 131.593 198.251 131.192C198.839 130.781 199.744 130.557 200.967 130.52L202.241 130.478V130.03C202.241 129.405 202.105 128.971 201.835 128.728C201.564 128.485 201.181 128.364 200.687 128.364C200.295 128.364 199.921 128.425 199.567 128.546C199.212 128.658 198.881 128.789 198.573 128.938L198.195 128.014C198.521 127.837 198.909 127.687 199.357 127.566C199.805 127.435 200.271 127.37 200.757 127.37ZM202.227 131.332L201.121 131.374C200.187 131.411 199.539 131.561 199.175 131.822C198.82 132.083 198.643 132.452 198.643 132.928C198.643 133.348 198.769 133.656 199.021 133.852C199.282 134.048 199.613 134.146 200.015 134.146C200.64 134.146 201.163 133.973 201.583 133.628C202.012 133.273 202.227 132.732 202.227 132.004V131.332ZM206.994 135H205.762V124.36H206.994V135ZM210.002 124.682C210.188 124.682 210.352 124.747 210.492 124.878C210.641 124.999 210.716 125.195 210.716 125.466C210.716 125.737 210.641 125.937 210.492 126.068C210.352 126.189 210.188 126.25 210.002 126.25C209.796 126.25 209.624 126.189 209.484 126.068C209.344 125.937 209.274 125.737 209.274 125.466C209.274 125.195 209.344 124.999 209.484 124.878C209.624 124.747 209.796 124.682 210.002 124.682ZM210.604 127.496V135H209.372V127.496H210.604ZM216.481 127.356C216.621 127.356 216.77 127.365 216.929 127.384C217.088 127.393 217.232 127.412 217.363 127.44L217.209 128.574C217.088 128.546 216.952 128.523 216.803 128.504C216.654 128.485 216.518 128.476 216.397 128.476C216.014 128.476 215.655 128.583 215.319 128.798C214.983 129.003 214.712 129.297 214.507 129.68C214.311 130.053 214.213 130.492 214.213 130.996V135H212.981V127.496H213.989L214.129 128.868H214.185C214.418 128.457 214.726 128.103 215.109 127.804C215.501 127.505 215.958 127.356 216.481 127.356ZM217.588 127.496H218.904L220.528 131.766C220.668 132.149 220.794 132.508 220.906 132.844C221.018 133.18 221.102 133.502 221.158 133.81H221.214C221.27 133.577 221.359 133.273 221.48 132.9C221.602 132.517 221.728 132.135 221.858 131.752L223.384 127.496H224.714L221.48 136.036C221.21 136.745 220.869 137.31 220.458 137.73C220.048 138.15 219.478 138.36 218.75 138.36C218.526 138.36 218.33 138.346 218.162 138.318C217.994 138.299 217.85 138.276 217.728 138.248V137.268C217.831 137.287 217.952 137.305 218.092 137.324C218.242 137.343 218.396 137.352 218.554 137.352C218.984 137.352 219.329 137.231 219.59 136.988C219.852 136.745 220.062 136.423 220.22 136.022L220.612 135.028L217.588 127.496Z" fill="black"/>
<path d="M288.912 135.962C288.812 135.962 288.712 135.913 288.662 135.863C288.513 135.713 288.513 135.462 288.662 135.312L293.962 130.012L288.612 124.662C288.463 124.512 288.463 124.263 288.612 124.113C288.762 123.962 289.012 123.962 289.162 124.113L294.762 129.712C294.812 129.762 294.862 129.862 294.862 129.962C294.862 130.062 294.812 130.162 294.762 130.212L289.162 135.863C289.062 135.963 288.963 135.962 288.912 135.962Z" fill="black"/>
<path d="M120.5 168.223C120.1 168.223 119.7 168.123 119.35 167.923C118.2 167.323 117.8 165.873 118.4 164.723C119.05 163.573 120.45 163.173 121.6 163.773C122.15 164.073 122.55 164.573 122.75 165.173C122.95 165.773 122.85 166.423 122.55 166.973C122.25 167.523 121.75 167.923 121.15 168.123C120.95 168.173 120.7 168.223 120.5 168.223ZM119.1 165.073C118.65 165.873 118.95 166.823 119.75 167.273C120.15 167.473 120.55 167.523 121 167.423C121.4 167.323 121.75 167.023 121.95 166.673C122.15 166.273 122.2 165.873 122.1 165.423C122 165.023 121.7 164.673 121.35 164.473C120.5 164.023 119.5 164.323 119.1 165.073Z" fill="black"/>
<path d="M117.95 172.223C117.65 172.223 117.4 172.173 117.15 172.023C116.5 171.673 116.15 170.923 116.3 170.173L116.6 168.823C116.65 168.623 116.6 168.373 116.5 168.223C116.4 168.023 116.2 167.923 116 167.873L114.9 167.623C114.05 167.423 113.5 166.773 113.5 165.973C113.5 165.223 114 164.523 114.7 164.323L115.95 163.923C116.15 163.873 116.35 163.723 116.45 163.523C116.55 163.323 116.55 163.123 116.5 162.923L116.15 161.823C115.9 161.073 116.2 160.273 116.9 159.873C117.55 159.473 118.4 159.573 118.95 160.073L119.95 160.973C120.1 161.123 120.3 161.223 120.55 161.173C120.75 161.173 120.95 161.073 121.1 160.923L121.85 160.073C122.4 159.473 123.25 159.323 123.9 159.723C124.55 160.073 124.9 160.873 124.75 161.573L124.45 162.873C124.4 163.073 124.45 163.323 124.55 163.473C124.65 163.673 124.85 163.773 125.05 163.823L126.15 164.073C126.9 164.223 127.45 164.923 127.5 165.673C127.5 166.423 127.05 167.123 126.3 167.323L125 167.773C124.8 167.823 124.6 167.973 124.5 168.173C124.4 168.373 124.4 168.573 124.45 168.823L124.8 169.923C125.05 170.673 124.75 171.473 124.05 171.873C123.4 172.273 122.55 172.173 122 171.673L121.05 170.773C120.95 170.573 120.75 170.523 120.5 170.523C120.3 170.523 120.1 170.623 119.95 170.773L119.2 171.623C118.85 172.023 118.4 172.223 117.95 172.223ZM117.75 160.373C117.6 160.373 117.4 160.423 117.25 160.523C116.9 160.723 116.75 161.173 116.85 161.623L117.2 162.673C117.35 163.073 117.3 163.523 117.1 163.873C116.9 164.273 116.6 164.523 116.2 164.673L114.9 165.023C114.5 165.123 114.2 165.523 114.25 165.923C114.25 166.373 114.55 166.723 115 166.823L116.1 167.073C116.5 167.173 116.85 167.423 117.1 167.773C117.35 168.123 117.4 168.573 117.3 168.973L117 170.323C116.9 170.723 117.1 171.173 117.45 171.373C117.85 171.573 118.3 171.523 118.6 171.173L119.35 170.323C119.65 170.023 120 169.823 120.45 169.823C120.9 169.823 121.3 169.973 121.6 170.223L122.55 171.123C122.85 171.423 123.3 171.473 123.7 171.223C124.1 170.973 124.25 170.523 124.1 170.123L123.8 169.023C123.65 168.623 123.7 168.173 123.9 167.823C124.1 167.473 124.4 167.173 124.85 167.073L126.15 166.673C126.55 166.573 126.8 166.173 126.8 165.773C126.8 165.323 126.5 164.973 126.05 164.873L124.95 164.623C124.55 164.523 124.2 164.273 123.95 163.923C123.7 163.573 123.65 163.123 123.75 162.723L124 161.423C124.1 161.023 123.9 160.573 123.55 160.373C123.15 160.173 122.7 160.223 122.4 160.573L121.65 161.423C121.35 161.723 121 161.923 120.55 161.923C120.1 161.923 119.75 161.773 119.4 161.523L118.4 160.623C118.2 160.473 118 160.373 117.75 160.373Z" fill="black"/>
<path d="M145.866 165.904C145.866 167.593 145.404 168.867 144.48 169.726C143.565 170.575 142.287 171 140.644 171H137.858V161.004H140.938C141.937 161.004 142.805 161.191 143.542 161.564C144.289 161.937 144.863 162.488 145.264 163.216C145.665 163.944 145.866 164.84 145.866 165.904ZM144.536 165.946C144.536 164.611 144.205 163.636 143.542 163.02C142.889 162.395 141.96 162.082 140.756 162.082H139.118V169.922H140.476C143.183 169.922 144.536 168.597 144.536 165.946ZM150.815 163.356C151.449 163.356 152 163.496 152.467 163.776C152.933 164.056 153.288 164.453 153.531 164.966C153.783 165.47 153.909 166.063 153.909 166.744V167.486H148.771C148.789 168.335 149.004 168.984 149.415 169.432C149.835 169.871 150.418 170.09 151.165 170.09C151.641 170.09 152.061 170.048 152.425 169.964C152.798 169.871 153.181 169.74 153.573 169.572V170.65C153.19 170.818 152.812 170.939 152.439 171.014C152.065 171.098 151.622 171.14 151.109 171.14C150.39 171.14 149.76 170.995 149.219 170.706C148.677 170.417 148.253 169.987 147.945 169.418C147.646 168.849 147.497 168.144 147.497 167.304C147.497 166.483 147.632 165.778 147.903 165.19C148.183 164.602 148.57 164.149 149.065 163.832C149.569 163.515 150.152 163.356 150.815 163.356ZM150.801 164.364C150.213 164.364 149.746 164.555 149.401 164.938C149.065 165.311 148.864 165.834 148.799 166.506H152.621C152.611 165.871 152.462 165.358 152.173 164.966C151.883 164.565 151.426 164.364 150.801 164.364ZM157.197 171L154.355 163.496H155.671L157.267 167.92C157.342 168.125 157.421 168.354 157.505 168.606C157.589 168.858 157.664 169.101 157.729 169.334C157.795 169.567 157.841 169.759 157.869 169.908H157.925C157.953 169.759 158.005 169.567 158.079 169.334C158.154 169.091 158.233 168.849 158.317 168.606C158.401 168.354 158.481 168.125 158.555 167.92L160.151 163.496H161.467L158.611 171H157.197ZM163.285 160.682C163.472 160.682 163.635 160.747 163.775 160.878C163.924 160.999 163.999 161.195 163.999 161.466C163.999 161.737 163.924 161.937 163.775 162.068C163.635 162.189 163.472 162.25 163.285 162.25C163.08 162.25 162.907 162.189 162.767 162.068C162.627 161.937 162.557 161.737 162.557 161.466C162.557 161.195 162.627 160.999 162.767 160.878C162.907 160.747 163.08 160.682 163.285 160.682ZM163.887 163.496V171H162.655V163.496H163.887ZM169.274 171.14C168.602 171.14 168.01 171.005 167.496 170.734C166.983 170.463 166.577 170.043 166.278 169.474C165.989 168.905 165.844 168.177 165.844 167.29C165.844 166.366 165.994 165.615 166.292 165.036C166.6 164.457 167.02 164.033 167.552 163.762C168.084 163.491 168.686 163.356 169.358 163.356C169.732 163.356 170.096 163.398 170.45 163.482C170.814 163.557 171.108 163.65 171.332 163.762L170.954 164.784C170.73 164.7 170.469 164.621 170.17 164.546C169.872 164.471 169.592 164.434 169.33 164.434C167.856 164.434 167.118 165.381 167.118 167.276C167.118 168.181 167.296 168.877 167.65 169.362C168.014 169.838 168.551 170.076 169.26 170.076C169.662 170.076 170.021 170.034 170.338 169.95C170.656 169.866 170.945 169.763 171.206 169.642V170.734C170.954 170.865 170.674 170.963 170.366 171.028C170.068 171.103 169.704 171.14 169.274 171.14ZM175.889 163.356C176.523 163.356 177.074 163.496 177.541 163.776C178.007 164.056 178.362 164.453 178.605 164.966C178.857 165.47 178.983 166.063 178.983 166.744V167.486H173.845C173.863 168.335 174.078 168.984 174.489 169.432C174.909 169.871 175.492 170.09 176.239 170.09C176.715 170.09 177.135 170.048 177.499 169.964C177.872 169.871 178.255 169.74 178.647 169.572V170.65C178.264 170.818 177.886 170.939 177.513 171.014C177.139 171.098 176.696 171.14 176.183 171.14C175.464 171.14 174.834 170.995 174.293 170.706C173.751 170.417 173.327 169.987 173.019 169.418C172.72 168.849 172.571 168.144 172.571 167.304C172.571 166.483 172.706 165.778 172.977 165.19C173.257 164.602 173.644 164.149 174.139 163.832C174.643 163.515 175.226 163.356 175.889 163.356ZM175.875 164.364C175.287 164.364 174.82 164.555 174.475 164.938C174.139 165.311 173.938 165.834 173.873 166.506H177.695C177.685 165.871 177.536 165.358 177.247 164.966C176.957 164.565 176.5 164.364 175.875 164.364ZM190.368 168.326C190.368 169.213 190.046 169.903 189.402 170.398C188.758 170.893 187.89 171.14 186.798 171.14C186.238 171.14 185.72 171.098 185.244 171.014C184.768 170.93 184.371 170.813 184.054 170.664V169.46C184.39 169.609 184.805 169.745 185.3 169.866C185.804 169.987 186.322 170.048 186.854 170.048C187.591 170.048 188.151 169.903 188.534 169.614C188.917 169.325 189.108 168.933 189.108 168.438C189.108 168.111 189.038 167.836 188.898 167.612C188.758 167.388 188.515 167.183 188.17 166.996C187.825 166.809 187.353 166.604 186.756 166.38C185.897 166.072 185.253 165.694 184.824 165.246C184.395 164.798 184.18 164.187 184.18 163.412C184.18 162.889 184.315 162.437 184.586 162.054C184.857 161.671 185.23 161.377 185.706 161.172C186.182 160.967 186.737 160.864 187.372 160.864C187.913 160.864 188.413 160.915 188.87 161.018C189.327 161.121 189.747 161.256 190.13 161.424L189.738 162.502C189.393 162.353 189.015 162.227 188.604 162.124C188.193 162.021 187.773 161.97 187.344 161.97C186.719 161.97 186.247 162.105 185.93 162.376C185.613 162.637 185.454 162.987 185.454 163.426C185.454 163.762 185.524 164.042 185.664 164.266C185.804 164.49 186.033 164.695 186.35 164.882C186.667 165.059 187.097 165.246 187.638 165.442C188.226 165.657 188.721 165.89 189.122 166.142C189.533 166.385 189.841 166.679 190.046 167.024C190.261 167.369 190.368 167.803 190.368 168.326ZM195.111 163.356C195.746 163.356 196.297 163.496 196.763 163.776C197.23 164.056 197.585 164.453 197.827 164.966C198.079 165.47 198.205 166.063 198.205 166.744V167.486H193.067C193.086 168.335 193.301 168.984 193.711 169.432C194.131 169.871 194.715 170.09 195.461 170.09C195.937 170.09 196.357 170.048 196.721 169.964C197.095 169.871 197.477 169.74 197.869 169.572V170.65C197.487 170.818 197.109 170.939 196.735 171.014C196.362 171.098 195.919 171.14 195.405 171.14C194.687 171.14 194.057 170.995 193.515 170.706C192.974 170.417 192.549 169.987 192.241 169.418C191.943 168.849 191.793 168.144 191.793 167.304C191.793 166.483 191.929 165.778 192.199 165.19C192.479 164.602 192.867 164.149 193.361 163.832C193.865 163.515 194.449 163.356 195.111 163.356ZM195.097 164.364C194.509 164.364 194.043 164.555 193.697 164.938C193.361 165.311 193.161 165.834 193.095 166.506H196.917C196.908 165.871 196.759 165.358 196.469 164.966C196.18 164.565 195.723 164.364 195.097 164.364ZM202.622 170.132C202.808 170.132 203 170.118 203.196 170.09C203.392 170.062 203.55 170.025 203.672 169.978V170.916C203.541 170.981 203.354 171.033 203.112 171.07C202.869 171.117 202.636 171.14 202.412 171.14C202.02 171.14 201.656 171.075 201.32 170.944C200.993 170.804 200.727 170.566 200.522 170.23C200.316 169.894 200.214 169.423 200.214 168.816V164.448H199.15V163.86L200.228 163.37L200.718 161.774H201.446V163.496H203.616V164.448H201.446V168.788C201.446 169.245 201.553 169.586 201.768 169.81C201.992 170.025 202.276 170.132 202.622 170.132ZM207.68 170.132C207.867 170.132 208.058 170.118 208.254 170.09C208.45 170.062 208.609 170.025 208.73 169.978V170.916C208.6 170.981 208.413 171.033 208.17 171.07C207.928 171.117 207.694 171.14 207.47 171.14C207.078 171.14 206.714 171.075 206.378 170.944C206.052 170.804 205.786 170.566 205.58 170.23C205.375 169.894 205.272 169.423 205.272 168.816V164.448H204.208V163.86L205.286 163.37L205.776 161.774H206.504V163.496H208.674V164.448H206.504V168.788C206.504 169.245 206.612 169.586 206.826 169.81C207.05 170.025 207.335 170.132 207.68 170.132ZM210.863 160.682C211.05 160.682 211.213 160.747 211.353 160.878C211.502 160.999 211.577 161.195 211.577 161.466C211.577 161.737 211.502 161.937 211.353 162.068C211.213 162.189 211.05 162.25 210.863 162.25C210.658 162.25 210.485 162.189 210.345 162.068C210.205 161.937 210.135 161.737 210.135 161.466C210.135 161.195 210.205 160.999 210.345 160.878C210.485 160.747 210.658 160.682 210.863 160.682ZM211.465 163.496V171H210.233V163.496H211.465ZM217.454 163.356C218.35 163.356 219.027 163.575 219.484 164.014C219.942 164.453 220.17 165.153 220.17 166.114V171H218.952V166.198C218.952 164.994 218.392 164.392 217.272 164.392C216.442 164.392 215.868 164.625 215.55 165.092C215.233 165.559 215.074 166.231 215.074 167.108V171H213.842V163.496H214.836L215.018 164.518H215.088C215.331 164.126 215.667 163.837 216.096 163.65C216.526 163.454 216.978 163.356 217.454 163.356ZM225.157 163.356C225.651 163.356 226.095 163.449 226.487 163.636C226.888 163.823 227.229 164.107 227.509 164.49H227.579L227.747 163.496H228.727V171.126C228.727 172.199 228.451 173.007 227.901 173.548C227.359 174.089 226.515 174.36 225.367 174.36C224.265 174.36 223.365 174.201 222.665 173.884V172.75C223.402 173.142 224.326 173.338 225.437 173.338C226.081 173.338 226.585 173.147 226.949 172.764C227.322 172.391 227.509 171.877 227.509 171.224V170.93C227.509 170.818 227.513 170.659 227.523 170.454C227.532 170.239 227.541 170.09 227.551 170.006H227.495C226.991 170.762 226.216 171.14 225.171 171.14C224.2 171.14 223.439 170.799 222.889 170.118C222.347 169.437 222.077 168.485 222.077 167.262C222.077 166.067 222.347 165.12 222.889 164.42C223.439 163.711 224.195 163.356 225.157 163.356ZM225.325 164.392C224.699 164.392 224.214 164.644 223.869 165.148C223.523 165.643 223.351 166.352 223.351 167.276C223.351 168.2 223.519 168.909 223.855 169.404C224.191 169.889 224.69 170.132 225.353 170.132C226.109 170.132 226.659 169.931 227.005 169.53C227.35 169.119 227.523 168.461 227.523 167.556V167.262C227.523 166.245 227.345 165.512 226.991 165.064C226.636 164.616 226.081 164.392 225.325 164.392ZM235.996 168.928C235.996 169.656 235.725 170.207 235.184 170.58C234.643 170.953 233.915 171.14 233 171.14C232.477 171.14 232.025 171.098 231.642 171.014C231.269 170.93 230.937 170.813 230.648 170.664V169.544C230.947 169.693 231.306 169.833 231.726 169.964C232.155 170.085 232.589 170.146 233.028 170.146C233.653 170.146 234.106 170.048 234.386 169.852C234.666 169.647 234.806 169.376 234.806 169.04C234.806 168.853 234.755 168.685 234.652 168.536C234.549 168.387 234.363 168.237 234.092 168.088C233.831 167.939 233.453 167.771 232.958 167.584C232.473 167.397 232.057 167.211 231.712 167.024C231.367 166.837 231.101 166.613 230.914 166.352C230.727 166.091 230.634 165.755 230.634 165.344C230.634 164.709 230.891 164.219 231.404 163.874C231.927 163.529 232.608 163.356 233.448 163.356C233.905 163.356 234.33 163.403 234.722 163.496C235.123 163.589 235.497 163.711 235.842 163.86L235.422 164.84C235.105 164.709 234.773 164.597 234.428 164.504C234.083 164.411 233.728 164.364 233.364 164.364C232.86 164.364 232.473 164.448 232.202 164.616C231.941 164.775 231.81 164.994 231.81 165.274C231.81 165.489 231.871 165.666 231.992 165.806C232.113 165.946 232.314 166.086 232.594 166.226C232.883 166.366 233.266 166.525 233.742 166.702C234.218 166.879 234.624 167.061 234.96 167.248C235.296 167.435 235.553 167.663 235.73 167.934C235.907 168.195 235.996 168.527 235.996 168.928Z" fill="black"/>
<rect x="104" y="39.5" width="204" height="145" rx="4.5" stroke="black" stroke-opacity="0.15"/>
</g>
<defs>
<filter id="filter0_d_6659_524388" x="99.5" y="39" width="213" height="154" filterUnits="userSpaceOnUse" color-interpolation-filters="sRGB">
<feFlood flood-opacity="0" result="BackgroundImageFix"/>
<feColorMatrix in="SourceAlpha" type="matrix" values="0 0 0 0 0 0 0 0 0 0 0 0 0 0 0 0 0 0 127 0" result="hardAlpha"/>
<feOffset dy="4"/>
<feGaussianBlur stdDeviation="2"/>
<feColorMatrix type="matrix" values="0 0 0 0 0 0 0 0 0 0 0 0 0 0 0 0 0 0 0.25 0"/>
<feBlend mode="normal" in2="BackgroundImageFix" result="effect1_dropShadow_6659_524388"/>
<feBlend mode="normal" in="SourceGraphic" in2="effect1_dropShadow_6659_524388" result="shape"/>
</filter>
</defs>
</svg>
