<svg width="460" height="563" viewBox="0 0 460 563" fill="none" xmlns="http://www.w3.org/2000/svg">
<mask id="path-1-outside-1_7837_524712" maskUnits="userSpaceOnUse" x="0" y="0" width="460" height="491" fill="black">
<rect fill="white" width="460" height="491"/>
<path d="M0 0H460V483H0V0Z"/>
</mask>
<path d="M0 0H460V483H0V0Z" fill="#F1F1F1"/>
<path d="M36 38.5C38.0767 38.5 40.1068 37.8842 41.8335 36.7304C43.5602 35.5767 44.906 33.9368 45.7007 32.0182C46.4954 30.0996 46.7034 27.9884 46.2982 25.9516C45.8931 23.9148 44.8931 22.0438 43.4246 20.5754C41.9562 19.1069 40.0852 18.1069 38.0484 17.7018C36.0116 17.2966 33.9004 17.5045 31.9818 18.2993C30.0632 19.094 28.4233 20.4398 27.2696 22.1665C26.1158 23.8932 25.5 25.9233 25.5 28C25.5 30.7848 26.6062 33.4555 28.5754 35.4246C30.5445 37.3938 33.2152 38.5 36 38.5ZM32.4169 26.0706C32.1976 25.8513 32.0744 25.5539 32.0744 25.2438C32.0744 24.9336 32.1976 24.6362 32.4169 24.4169C32.6362 24.1976 32.9336 24.0744 33.2437 24.0744C33.5539 24.0744 33.8513 24.1976 34.0706 24.4169L36 26.3463L37.9294 24.4169C38.038 24.3083 38.1669 24.2222 38.3087 24.1634C38.4506 24.1046 38.6027 24.0744 38.7562 24.0744C38.9098 24.0744 39.0619 24.1046 39.2037 24.1634C39.3456 24.2222 39.4745 24.3083 39.5831 24.4169C39.6917 24.5255 39.7778 24.6544 39.8366 24.7963C39.8954 24.9381 39.9256 25.0902 39.9256 25.2438C39.9256 25.3973 39.8954 25.5494 39.8366 25.6913C39.7778 25.8331 39.6917 25.962 39.5831 26.0706L37.6537 28L39.5831 29.9294C39.7965 30.1518 39.9156 30.448 39.9156 30.7563C39.9156 31.0645 39.7965 31.3607 39.5831 31.5831C39.3606 31.7974 39.0651 31.9194 38.7562 31.9244C38.6027 31.9253 38.4504 31.8956 38.3084 31.837C38.1665 31.7785 38.0376 31.6921 37.9294 31.5831L36 29.6538L34.0706 31.5831C33.8517 31.8045 33.555 31.9317 33.2437 31.9375C32.9349 31.9325 32.6394 31.8105 32.4169 31.5963C32.2035 31.3739 32.0844 31.0776 32.0844 30.7694C32.0844 30.4612 32.2035 30.1649 32.4169 29.9425L34.3462 28L32.4169 26.0706Z" fill="#D93D32"/>
<g filter="url(#filter0_d_7837_524712)">
<rect x="90.833" y="149" width="198.333" height="252" rx="4" fill="white"/>
<path d="M108.913 166.988C108.913 168.024 108.736 168.929 108.381 169.704C108.036 170.469 107.518 171.067 106.827 171.496C106.146 171.925 105.306 172.14 104.307 172.14C103.271 172.14 102.408 171.925 101.717 171.496C101.036 171.067 100.527 170.465 100.191 169.69C99.855 168.915 99.687 168.01 99.687 166.974C99.687 165.957 99.855 165.065 100.191 164.3C100.527 163.525 101.036 162.923 101.717 162.494C102.408 162.065 103.276 161.85 104.321 161.85C105.32 161.85 106.16 162.065 106.841 162.494C107.522 162.914 108.036 163.511 108.381 164.286C108.736 165.051 108.913 165.952 108.913 166.988ZM101.017 166.988C101.017 168.248 101.283 169.242 101.815 169.97C102.347 170.689 103.178 171.048 104.307 171.048C105.436 171.048 106.262 170.689 106.785 169.97C107.317 169.242 107.583 168.248 107.583 166.988C107.583 165.728 107.322 164.743 106.799 164.034C106.276 163.315 105.45 162.956 104.321 162.956C103.182 162.956 102.347 163.315 101.815 164.034C101.283 164.743 101.017 165.728 101.017 166.988ZM114.531 164.356C115.455 164.356 116.197 164.678 116.757 165.322C117.326 165.966 117.611 166.937 117.611 168.234C117.611 169.513 117.326 170.483 116.757 171.146C116.197 171.809 115.45 172.14 114.517 172.14C113.938 172.14 113.457 172.033 113.075 171.818C112.701 171.603 112.407 171.347 112.193 171.048H112.109C112.118 171.207 112.132 171.407 112.151 171.65C112.179 171.893 112.193 172.103 112.193 172.28V175.36H110.961V164.496H111.969L112.137 165.518H112.193C112.417 165.191 112.711 164.916 113.075 164.692C113.439 164.468 113.924 164.356 114.531 164.356ZM114.307 165.392C113.541 165.392 113 165.607 112.683 166.036C112.365 166.465 112.202 167.119 112.193 167.996V168.234C112.193 169.158 112.342 169.872 112.641 170.376C112.949 170.871 113.513 171.118 114.335 171.118C114.783 171.118 115.156 170.997 115.455 170.754C115.753 170.502 115.973 170.157 116.113 169.718C116.262 169.279 116.337 168.78 116.337 168.22C116.337 167.361 116.169 166.675 115.833 166.162C115.506 165.649 114.997 165.392 114.307 165.392ZM122.08 171.132C122.266 171.132 122.458 171.118 122.654 171.09C122.85 171.062 123.008 171.025 123.13 170.978V171.916C122.999 171.981 122.812 172.033 122.57 172.07C122.327 172.117 122.094 172.14 121.87 172.14C121.478 172.14 121.114 172.075 120.778 171.944C120.451 171.804 120.185 171.566 119.98 171.23C119.774 170.894 119.672 170.423 119.672 169.816V165.448H118.608V164.86L119.686 164.37L120.176 162.774H120.904V164.496H123.074V165.448H120.904V169.788C120.904 170.245 121.011 170.586 121.226 170.81C121.45 171.025 121.734 171.132 122.08 171.132ZM125.262 161.682C125.449 161.682 125.612 161.747 125.752 161.878C125.902 161.999 125.976 162.195 125.976 162.466C125.976 162.737 125.902 162.937 125.752 163.068C125.612 163.189 125.449 163.25 125.262 163.25C125.057 163.25 124.884 163.189 124.744 163.068C124.604 162.937 124.534 162.737 124.534 162.466C124.534 162.195 124.604 161.999 124.744 161.878C124.884 161.747 125.057 161.682 125.262 161.682ZM125.864 164.496V172H124.632V164.496H125.864ZM134.766 168.234C134.766 169.475 134.448 170.437 133.814 171.118C133.188 171.799 132.339 172.14 131.266 172.14C130.603 172.14 130.01 171.991 129.488 171.692C128.974 171.384 128.568 170.941 128.27 170.362C127.971 169.774 127.822 169.065 127.822 168.234C127.822 166.993 128.13 166.036 128.746 165.364C129.371 164.692 130.225 164.356 131.308 164.356C131.98 164.356 132.577 164.51 133.1 164.818C133.622 165.117 134.028 165.555 134.318 166.134C134.616 166.703 134.766 167.403 134.766 168.234ZM129.096 168.234C129.096 169.121 129.268 169.825 129.614 170.348C129.968 170.861 130.528 171.118 131.294 171.118C132.05 171.118 132.605 170.861 132.96 170.348C133.314 169.825 133.492 169.121 133.492 168.234C133.492 167.347 133.314 166.652 132.96 166.148C132.605 165.644 132.045 165.392 131.28 165.392C130.514 165.392 129.959 165.644 129.614 166.148C129.268 166.652 129.096 167.347 129.096 168.234ZM140.33 164.356C141.226 164.356 141.903 164.575 142.36 165.014C142.818 165.453 143.046 166.153 143.046 167.114V172H141.828V167.198C141.828 165.994 141.268 165.392 140.148 165.392C139.318 165.392 138.744 165.625 138.426 166.092C138.109 166.559 137.95 167.231 137.95 168.108V172H136.718V164.496H137.712L137.894 165.518H137.964C138.207 165.126 138.543 164.837 138.972 164.65C139.402 164.454 139.854 164.356 140.33 164.356ZM152.789 172H151.585V165.014C151.585 164.613 151.59 164.291 151.599 164.048C151.609 163.805 151.623 163.553 151.641 163.292C151.492 163.441 151.352 163.567 151.221 163.67C151.1 163.773 150.951 163.903 150.773 164.062L149.709 164.93L149.065 164.104L151.767 162.004H152.789V172Z" fill="black"/>
<path d="M270.579 172.962C270.479 172.962 270.379 172.913 270.329 172.863C270.179 172.713 270.179 172.462 270.329 172.312L275.629 167.012L270.279 161.662C270.129 161.512 270.129 161.263 270.279 161.113C270.429 160.962 270.679 160.962 270.829 161.113L276.429 166.712C276.479 166.762 276.529 166.862 276.529 166.962C276.529 167.062 276.479 167.162 276.429 167.212L270.829 172.863C270.729 172.963 270.629 172.962 270.579 172.962Z" fill="black"/>
<path d="M108.913 202.988C108.913 204.024 108.736 204.929 108.381 205.704C108.036 206.469 107.518 207.067 106.827 207.496C106.146 207.925 105.306 208.14 104.307 208.14C103.271 208.14 102.408 207.925 101.717 207.496C101.036 207.067 100.527 206.465 100.191 205.69C99.855 204.915 99.687 204.01 99.687 202.974C99.687 201.957 99.855 201.065 100.191 200.3C100.527 199.525 101.036 198.923 101.717 198.494C102.408 198.065 103.276 197.85 104.321 197.85C105.32 197.85 106.16 198.065 106.841 198.494C107.522 198.914 108.036 199.511 108.381 200.286C108.736 201.051 108.913 201.952 108.913 202.988ZM101.017 202.988C101.017 204.248 101.283 205.242 101.815 205.97C102.347 206.689 103.178 207.048 104.307 207.048C105.436 207.048 106.262 206.689 106.785 205.97C107.317 205.242 107.583 204.248 107.583 202.988C107.583 201.728 107.322 200.743 106.799 200.034C106.276 199.315 105.45 198.956 104.321 198.956C103.182 198.956 102.347 199.315 101.815 200.034C101.283 200.743 101.017 201.728 101.017 202.988ZM114.531 200.356C115.455 200.356 116.197 200.678 116.757 201.322C117.326 201.966 117.611 202.937 117.611 204.234C117.611 205.513 117.326 206.483 116.757 207.146C116.197 207.809 115.45 208.14 114.517 208.14C113.938 208.14 113.457 208.033 113.075 207.818C112.701 207.603 112.407 207.347 112.193 207.048H112.109C112.118 207.207 112.132 207.407 112.151 207.65C112.179 207.893 112.193 208.103 112.193 208.28V211.36H110.961V200.496H111.969L112.137 201.518H112.193C112.417 201.191 112.711 200.916 113.075 200.692C113.439 200.468 113.924 200.356 114.531 200.356ZM114.307 201.392C113.541 201.392 113 201.607 112.683 202.036C112.365 202.465 112.202 203.119 112.193 203.996V204.234C112.193 205.158 112.342 205.872 112.641 206.376C112.949 206.871 113.513 207.118 114.335 207.118C114.783 207.118 115.156 206.997 115.455 206.754C115.753 206.502 115.973 206.157 116.113 205.718C116.262 205.279 116.337 204.78 116.337 204.22C116.337 203.361 116.169 202.675 115.833 202.162C115.506 201.649 114.997 201.392 114.307 201.392ZM122.08 207.132C122.266 207.132 122.458 207.118 122.654 207.09C122.85 207.062 123.008 207.025 123.13 206.978V207.916C122.999 207.981 122.812 208.033 122.57 208.07C122.327 208.117 122.094 208.14 121.87 208.14C121.478 208.14 121.114 208.075 120.778 207.944C120.451 207.804 120.185 207.566 119.98 207.23C119.774 206.894 119.672 206.423 119.672 205.816V201.448H118.608V200.86L119.686 200.37L120.176 198.774H120.904V200.496H123.074V201.448H120.904V205.788C120.904 206.245 121.011 206.586 121.226 206.81C121.45 207.025 121.734 207.132 122.08 207.132ZM125.262 197.682C125.449 197.682 125.612 197.747 125.752 197.878C125.902 197.999 125.976 198.195 125.976 198.466C125.976 198.737 125.902 198.937 125.752 199.068C125.612 199.189 125.449 199.25 125.262 199.25C125.057 199.25 124.884 199.189 124.744 199.068C124.604 198.937 124.534 198.737 124.534 198.466C124.534 198.195 124.604 197.999 124.744 197.878C124.884 197.747 125.057 197.682 125.262 197.682ZM125.864 200.496V208H124.632V200.496H125.864ZM134.766 204.234C134.766 205.475 134.448 206.437 133.814 207.118C133.188 207.799 132.339 208.14 131.266 208.14C130.603 208.14 130.01 207.991 129.488 207.692C128.974 207.384 128.568 206.941 128.27 206.362C127.971 205.774 127.822 205.065 127.822 204.234C127.822 202.993 128.13 202.036 128.746 201.364C129.371 200.692 130.225 200.356 131.308 200.356C131.98 200.356 132.577 200.51 133.1 200.818C133.622 201.117 134.028 201.555 134.318 202.134C134.616 202.703 134.766 203.403 134.766 204.234ZM129.096 204.234C129.096 205.121 129.268 205.825 129.614 206.348C129.968 206.861 130.528 207.118 131.294 207.118C132.05 207.118 132.605 206.861 132.96 206.348C133.314 205.825 133.492 205.121 133.492 204.234C133.492 203.347 133.314 202.652 132.96 202.148C132.605 201.644 132.045 201.392 131.28 201.392C130.514 201.392 129.959 201.644 129.614 202.148C129.268 202.652 129.096 203.347 129.096 204.234ZM140.33 200.356C141.226 200.356 141.903 200.575 142.36 201.014C142.818 201.453 143.046 202.153 143.046 203.114V208H141.828V203.198C141.828 201.994 141.268 201.392 140.148 201.392C139.318 201.392 138.744 201.625 138.426 202.092C138.109 202.559 137.95 203.231 137.95 204.108V208H136.718V200.496H137.712L137.894 201.518H137.964C138.207 201.126 138.543 200.837 138.972 200.65C139.402 200.454 139.854 200.356 140.33 200.356ZM155.099 208H148.491V206.978L151.109 204.332C151.604 203.828 152.024 203.38 152.369 202.988C152.724 202.596 152.99 202.213 153.167 201.84C153.345 201.467 153.433 201.051 153.433 200.594C153.433 200.043 153.27 199.628 152.943 199.348C152.617 199.059 152.192 198.914 151.669 198.914C151.175 198.914 150.745 198.998 150.381 199.166C150.017 199.334 149.644 199.567 149.261 199.866L148.603 199.04C148.995 198.713 149.443 198.438 149.947 198.214C150.461 197.981 151.035 197.864 151.669 197.864C152.603 197.864 153.34 198.102 153.881 198.578C154.423 199.054 154.693 199.703 154.693 200.524C154.693 201.047 154.586 201.537 154.371 201.994C154.157 202.451 153.858 202.904 153.475 203.352C153.093 203.8 152.645 204.271 152.131 204.766L150.045 206.824V206.88H155.099V208Z" fill="black"/>
<path d="M270.579 208.962C270.479 208.962 270.379 208.913 270.329 208.863C270.179 208.713 270.179 208.462 270.329 208.312L275.629 203.012L270.279 197.662C270.129 197.512 270.129 197.263 270.279 197.113C270.429 196.962 270.679 196.962 270.829 197.113L276.429 202.712C276.479 202.762 276.529 202.862 276.529 202.962C276.529 203.062 276.479 203.162 276.429 203.212L270.829 208.863C270.729 208.963 270.629 208.962 270.579 208.962Z" fill="black"/>
<path d="M108.913 238.988C108.913 240.024 108.736 240.929 108.381 241.704C108.036 242.469 107.518 243.067 106.827 243.496C106.146 243.925 105.306 244.14 104.307 244.14C103.271 244.14 102.408 243.925 101.717 243.496C101.036 243.067 100.527 242.465 100.191 241.69C99.855 240.915 99.687 240.01 99.687 238.974C99.687 237.957 99.855 237.065 100.191 236.3C100.527 235.525 101.036 234.923 101.717 234.494C102.408 234.065 103.276 233.85 104.321 233.85C105.32 233.85 106.16 234.065 106.841 234.494C107.522 234.914 108.036 235.511 108.381 236.286C108.736 237.051 108.913 237.952 108.913 238.988ZM101.017 238.988C101.017 240.248 101.283 241.242 101.815 241.97C102.347 242.689 103.178 243.048 104.307 243.048C105.436 243.048 106.262 242.689 106.785 241.97C107.317 241.242 107.583 240.248 107.583 238.988C107.583 237.728 107.322 236.743 106.799 236.034C106.276 235.315 105.45 234.956 104.321 234.956C103.182 234.956 102.347 235.315 101.815 236.034C101.283 236.743 101.017 237.728 101.017 238.988ZM114.531 236.356C115.455 236.356 116.197 236.678 116.757 237.322C117.326 237.966 117.611 238.937 117.611 240.234C117.611 241.513 117.326 242.483 116.757 243.146C116.197 243.809 115.45 244.14 114.517 244.14C113.938 244.14 113.457 244.033 113.075 243.818C112.701 243.603 112.407 243.347 112.193 243.048H112.109C112.118 243.207 112.132 243.407 112.151 243.65C112.179 243.893 112.193 244.103 112.193 244.28V247.36H110.961V236.496H111.969L112.137 237.518H112.193C112.417 237.191 112.711 236.916 113.075 236.692C113.439 236.468 113.924 236.356 114.531 236.356ZM114.307 237.392C113.541 237.392 113 237.607 112.683 238.036C112.365 238.465 112.202 239.119 112.193 239.996V240.234C112.193 241.158 112.342 241.872 112.641 242.376C112.949 242.871 113.513 243.118 114.335 243.118C114.783 243.118 115.156 242.997 115.455 242.754C115.753 242.502 115.973 242.157 116.113 241.718C116.262 241.279 116.337 240.78 116.337 240.22C116.337 239.361 116.169 238.675 115.833 238.162C115.506 237.649 114.997 237.392 114.307 237.392ZM122.08 243.132C122.266 243.132 122.458 243.118 122.654 243.09C122.85 243.062 123.008 243.025 123.13 242.978V243.916C122.999 243.981 122.812 244.033 122.57 244.07C122.327 244.117 122.094 244.14 121.87 244.14C121.478 244.14 121.114 244.075 120.778 243.944C120.451 243.804 120.185 243.566 119.98 243.23C119.774 242.894 119.672 242.423 119.672 241.816V237.448H118.608V236.86L119.686 236.37L120.176 234.774H120.904V236.496H123.074V237.448H120.904V241.788C120.904 242.245 121.011 242.586 121.226 242.81C121.45 243.025 121.734 243.132 122.08 243.132ZM125.262 233.682C125.449 233.682 125.612 233.747 125.752 233.878C125.902 233.999 125.976 234.195 125.976 234.466C125.976 234.737 125.902 234.937 125.752 235.068C125.612 235.189 125.449 235.25 125.262 235.25C125.057 235.25 124.884 235.189 124.744 235.068C124.604 234.937 124.534 234.737 124.534 234.466C124.534 234.195 124.604 233.999 124.744 233.878C124.884 233.747 125.057 233.682 125.262 233.682ZM125.864 236.496V244H124.632V236.496H125.864ZM134.766 240.234C134.766 241.475 134.448 242.437 133.814 243.118C133.188 243.799 132.339 244.14 131.266 244.14C130.603 244.14 130.01 243.991 129.488 243.692C128.974 243.384 128.568 242.941 128.27 242.362C127.971 241.774 127.822 241.065 127.822 240.234C127.822 238.993 128.13 238.036 128.746 237.364C129.371 236.692 130.225 236.356 131.308 236.356C131.98 236.356 132.577 236.51 133.1 236.818C133.622 237.117 134.028 237.555 134.318 238.134C134.616 238.703 134.766 239.403 134.766 240.234ZM129.096 240.234C129.096 241.121 129.268 241.825 129.614 242.348C129.968 242.861 130.528 243.118 131.294 243.118C132.05 243.118 132.605 242.861 132.96 242.348C133.314 241.825 133.492 241.121 133.492 240.234C133.492 239.347 133.314 238.652 132.96 238.148C132.605 237.644 132.045 237.392 131.28 237.392C130.514 237.392 129.959 237.644 129.614 238.148C129.268 238.652 129.096 239.347 129.096 240.234ZM140.33 236.356C141.226 236.356 141.903 236.575 142.36 237.014C142.818 237.453 143.046 238.153 143.046 239.114V244H141.828V239.198C141.828 237.994 141.268 237.392 140.148 237.392C139.318 237.392 138.744 237.625 138.426 238.092C138.109 238.559 137.95 239.231 137.95 240.108V244H136.718V236.496H137.712L137.894 237.518H137.964C138.207 237.126 138.543 236.837 138.972 236.65C139.402 236.454 139.854 236.356 140.33 236.356ZM154.721 236.342C154.721 237.014 154.53 237.551 154.147 237.952C153.774 238.344 153.275 238.605 152.649 238.736V238.792C153.443 238.885 154.035 239.137 154.427 239.548C154.829 239.959 155.029 240.495 155.029 241.158C155.029 241.746 154.894 242.264 154.623 242.712C154.353 243.16 153.933 243.51 153.363 243.762C152.803 244.014 152.08 244.14 151.193 244.14C150.671 244.14 150.185 244.098 149.737 244.014C149.289 243.939 148.86 243.799 148.449 243.594V242.446C148.869 242.661 149.322 242.824 149.807 242.936C150.293 243.048 150.759 243.104 151.207 243.104C152.103 243.104 152.747 242.931 153.139 242.586C153.541 242.231 153.741 241.746 153.741 241.13C153.741 240.505 153.494 240.057 152.999 239.786C152.514 239.506 151.828 239.366 150.941 239.366H149.975V238.316H150.955C151.777 238.316 152.397 238.143 152.817 237.798C153.247 237.453 153.461 236.995 153.461 236.426C153.461 235.941 153.298 235.567 152.971 235.306C152.645 235.035 152.201 234.9 151.641 234.9C151.1 234.9 150.638 234.979 150.255 235.138C149.873 235.297 149.495 235.497 149.121 235.74L148.505 234.9C148.86 234.62 149.299 234.377 149.821 234.172C150.353 233.967 150.955 233.864 151.627 233.864C152.673 233.864 153.447 234.097 153.951 234.564C154.465 235.031 154.721 235.623 154.721 236.342Z" fill="black"/>
<path d="M108.913 274.988C108.913 276.024 108.736 276.929 108.381 277.704C108.036 278.469 107.518 279.067 106.827 279.496C106.146 279.925 105.306 280.14 104.307 280.14C103.271 280.14 102.408 279.925 101.717 279.496C101.036 279.067 100.527 278.465 100.191 277.69C99.855 276.915 99.687 276.01 99.687 274.974C99.687 273.957 99.855 273.065 100.191 272.3C100.527 271.525 101.036 270.923 101.717 270.494C102.408 270.065 103.276 269.85 104.321 269.85C105.32 269.85 106.16 270.065 106.841 270.494C107.522 270.914 108.036 271.511 108.381 272.286C108.736 273.051 108.913 273.952 108.913 274.988ZM101.017 274.988C101.017 276.248 101.283 277.242 101.815 277.97C102.347 278.689 103.178 279.048 104.307 279.048C105.436 279.048 106.262 278.689 106.785 277.97C107.317 277.242 107.583 276.248 107.583 274.988C107.583 273.728 107.322 272.743 106.799 272.034C106.276 271.315 105.45 270.956 104.321 270.956C103.182 270.956 102.347 271.315 101.815 272.034C101.283 272.743 101.017 273.728 101.017 274.988ZM114.531 272.356C115.455 272.356 116.197 272.678 116.757 273.322C117.326 273.966 117.611 274.937 117.611 276.234C117.611 277.513 117.326 278.483 116.757 279.146C116.197 279.809 115.45 280.14 114.517 280.14C113.938 280.14 113.457 280.033 113.075 279.818C112.701 279.603 112.407 279.347 112.193 279.048H112.109C112.118 279.207 112.132 279.407 112.151 279.65C112.179 279.893 112.193 280.103 112.193 280.28V283.36H110.961V272.496H111.969L112.137 273.518H112.193C112.417 273.191 112.711 272.916 113.075 272.692C113.439 272.468 113.924 272.356 114.531 272.356ZM114.307 273.392C113.541 273.392 113 273.607 112.683 274.036C112.365 274.465 112.202 275.119 112.193 275.996V276.234C112.193 277.158 112.342 277.872 112.641 278.376C112.949 278.871 113.513 279.118 114.335 279.118C114.783 279.118 115.156 278.997 115.455 278.754C115.753 278.502 115.973 278.157 116.113 277.718C116.262 277.279 116.337 276.78 116.337 276.22C116.337 275.361 116.169 274.675 115.833 274.162C115.506 273.649 114.997 273.392 114.307 273.392ZM122.08 279.132C122.266 279.132 122.458 279.118 122.654 279.09C122.85 279.062 123.008 279.025 123.13 278.978V279.916C122.999 279.981 122.812 280.033 122.57 280.07C122.327 280.117 122.094 280.14 121.87 280.14C121.478 280.14 121.114 280.075 120.778 279.944C120.451 279.804 120.185 279.566 119.98 279.23C119.774 278.894 119.672 278.423 119.672 277.816V273.448H118.608V272.86L119.686 272.37L120.176 270.774H120.904V272.496H123.074V273.448H120.904V277.788C120.904 278.245 121.011 278.586 121.226 278.81C121.45 279.025 121.734 279.132 122.08 279.132ZM125.262 269.682C125.449 269.682 125.612 269.747 125.752 269.878C125.902 269.999 125.976 270.195 125.976 270.466C125.976 270.737 125.902 270.937 125.752 271.068C125.612 271.189 125.449 271.25 125.262 271.25C125.057 271.25 124.884 271.189 124.744 271.068C124.604 270.937 124.534 270.737 124.534 270.466C124.534 270.195 124.604 269.999 124.744 269.878C124.884 269.747 125.057 269.682 125.262 269.682ZM125.864 272.496V280H124.632V272.496H125.864ZM134.766 276.234C134.766 277.475 134.448 278.437 133.814 279.118C133.188 279.799 132.339 280.14 131.266 280.14C130.603 280.14 130.01 279.991 129.488 279.692C128.974 279.384 128.568 278.941 128.27 278.362C127.971 277.774 127.822 277.065 127.822 276.234C127.822 274.993 128.13 274.036 128.746 273.364C129.371 272.692 130.225 272.356 131.308 272.356C131.98 272.356 132.577 272.51 133.1 272.818C133.622 273.117 134.028 273.555 134.318 274.134C134.616 274.703 134.766 275.403 134.766 276.234ZM129.096 276.234C129.096 277.121 129.268 277.825 129.614 278.348C129.968 278.861 130.528 279.118 131.294 279.118C132.05 279.118 132.605 278.861 132.96 278.348C133.314 277.825 133.492 277.121 133.492 276.234C133.492 275.347 133.314 274.652 132.96 274.148C132.605 273.644 132.045 273.392 131.28 273.392C130.514 273.392 129.959 273.644 129.614 274.148C129.268 274.652 129.096 275.347 129.096 276.234ZM140.33 272.356C141.226 272.356 141.903 272.575 142.36 273.014C142.818 273.453 143.046 274.153 143.046 275.114V280H141.828V275.198C141.828 273.994 141.268 273.392 140.148 273.392C139.318 273.392 138.744 273.625 138.426 274.092C138.109 274.559 137.95 275.231 137.95 276.108V280H136.718V272.496H137.712L137.894 273.518H137.964C138.207 273.126 138.543 272.837 138.972 272.65C139.402 272.454 139.854 272.356 140.33 272.356ZM155.547 277.732H154.091V280H152.901V277.732H148.113V276.682L152.817 269.948H154.091V276.626H155.547V277.732ZM152.901 276.626V273.476C152.901 272.991 152.906 272.58 152.915 272.244C152.934 271.899 152.953 271.572 152.971 271.264H152.915C152.841 271.441 152.747 271.633 152.635 271.838C152.523 272.043 152.416 272.216 152.313 272.356L149.317 276.626H152.901Z" fill="black"/>
<path d="M108.913 310.988C108.913 312.024 108.736 312.929 108.381 313.704C108.036 314.469 107.518 315.067 106.827 315.496C106.146 315.925 105.306 316.14 104.307 316.14C103.271 316.14 102.408 315.925 101.717 315.496C101.036 315.067 100.527 314.465 100.191 313.69C99.855 312.915 99.687 312.01 99.687 310.974C99.687 309.957 99.855 309.065 100.191 308.3C100.527 307.525 101.036 306.923 101.717 306.494C102.408 306.065 103.276 305.85 104.321 305.85C105.32 305.85 106.16 306.065 106.841 306.494C107.522 306.914 108.036 307.511 108.381 308.286C108.736 309.051 108.913 309.952 108.913 310.988ZM101.017 310.988C101.017 312.248 101.283 313.242 101.815 313.97C102.347 314.689 103.178 315.048 104.307 315.048C105.436 315.048 106.262 314.689 106.785 313.97C107.317 313.242 107.583 312.248 107.583 310.988C107.583 309.728 107.322 308.743 106.799 308.034C106.276 307.315 105.45 306.956 104.321 306.956C103.182 306.956 102.347 307.315 101.815 308.034C101.283 308.743 101.017 309.728 101.017 310.988ZM114.531 308.356C115.455 308.356 116.197 308.678 116.757 309.322C117.326 309.966 117.611 310.937 117.611 312.234C117.611 313.513 117.326 314.483 116.757 315.146C116.197 315.809 115.45 316.14 114.517 316.14C113.938 316.14 113.457 316.033 113.075 315.818C112.701 315.603 112.407 315.347 112.193 315.048H112.109C112.118 315.207 112.132 315.407 112.151 315.65C112.179 315.893 112.193 316.103 112.193 316.28V319.36H110.961V308.496H111.969L112.137 309.518H112.193C112.417 309.191 112.711 308.916 113.075 308.692C113.439 308.468 113.924 308.356 114.531 308.356ZM114.307 309.392C113.541 309.392 113 309.607 112.683 310.036C112.365 310.465 112.202 311.119 112.193 311.996V312.234C112.193 313.158 112.342 313.872 112.641 314.376C112.949 314.871 113.513 315.118 114.335 315.118C114.783 315.118 115.156 314.997 115.455 314.754C115.753 314.502 115.973 314.157 116.113 313.718C116.262 313.279 116.337 312.78 116.337 312.22C116.337 311.361 116.169 310.675 115.833 310.162C115.506 309.649 114.997 309.392 114.307 309.392ZM122.08 315.132C122.266 315.132 122.458 315.118 122.654 315.09C122.85 315.062 123.008 315.025 123.13 314.978V315.916C122.999 315.981 122.812 316.033 122.57 316.07C122.327 316.117 122.094 316.14 121.87 316.14C121.478 316.14 121.114 316.075 120.778 315.944C120.451 315.804 120.185 315.566 119.98 315.23C119.774 314.894 119.672 314.423 119.672 313.816V309.448H118.608V308.86L119.686 308.37L120.176 306.774H120.904V308.496H123.074V309.448H120.904V313.788C120.904 314.245 121.011 314.586 121.226 314.81C121.45 315.025 121.734 315.132 122.08 315.132ZM125.262 305.682C125.449 305.682 125.612 305.747 125.752 305.878C125.902 305.999 125.976 306.195 125.976 306.466C125.976 306.737 125.902 306.937 125.752 307.068C125.612 307.189 125.449 307.25 125.262 307.25C125.057 307.25 124.884 307.189 124.744 307.068C124.604 306.937 124.534 306.737 124.534 306.466C124.534 306.195 124.604 305.999 124.744 305.878C124.884 305.747 125.057 305.682 125.262 305.682ZM125.864 308.496V316H124.632V308.496H125.864ZM134.766 312.234C134.766 313.475 134.448 314.437 133.814 315.118C133.188 315.799 132.339 316.14 131.266 316.14C130.603 316.14 130.01 315.991 129.488 315.692C128.974 315.384 128.568 314.941 128.27 314.362C127.971 313.774 127.822 313.065 127.822 312.234C127.822 310.993 128.13 310.036 128.746 309.364C129.371 308.692 130.225 308.356 131.308 308.356C131.98 308.356 132.577 308.51 133.1 308.818C133.622 309.117 134.028 309.555 134.318 310.134C134.616 310.703 134.766 311.403 134.766 312.234ZM129.096 312.234C129.096 313.121 129.268 313.825 129.614 314.348C129.968 314.861 130.528 315.118 131.294 315.118C132.05 315.118 132.605 314.861 132.96 314.348C133.314 313.825 133.492 313.121 133.492 312.234C133.492 311.347 133.314 310.652 132.96 310.148C132.605 309.644 132.045 309.392 131.28 309.392C130.514 309.392 129.959 309.644 129.614 310.148C129.268 310.652 129.096 311.347 129.096 312.234ZM140.33 308.356C141.226 308.356 141.903 308.575 142.36 309.014C142.818 309.453 143.046 310.153 143.046 311.114V316H141.828V311.198C141.828 309.994 141.268 309.392 140.148 309.392C139.318 309.392 138.744 309.625 138.426 310.092C138.109 310.559 137.95 311.231 137.95 312.108V316H136.718V308.496H137.712L137.894 309.518H137.964C138.207 309.126 138.543 308.837 138.972 308.65C139.402 308.454 139.854 308.356 140.33 308.356ZM151.669 309.868C152.687 309.868 153.499 310.125 154.105 310.638C154.721 311.151 155.029 311.875 155.029 312.808C155.029 313.844 154.698 314.661 154.035 315.258C153.382 315.846 152.467 316.14 151.291 316.14C150.769 316.14 150.283 316.093 149.835 316C149.387 315.907 149.009 315.771 148.701 315.594V314.432C149.037 314.637 149.443 314.801 149.919 314.922C150.405 315.034 150.867 315.09 151.305 315.09C152.043 315.09 152.635 314.917 153.083 314.572C153.541 314.217 153.769 313.671 153.769 312.934C153.769 312.281 153.569 311.781 153.167 311.436C152.766 311.081 152.131 310.904 151.263 310.904C151.002 310.904 150.703 310.927 150.367 310.974C150.031 311.021 149.761 311.067 149.555 311.114L148.939 310.722L149.317 306.004H154.329V307.124H150.367L150.129 310.022C150.288 309.994 150.503 309.961 150.773 309.924C151.044 309.887 151.343 309.868 151.669 309.868Z" fill="black"/>
<path d="M108.913 346.988C108.913 348.024 108.736 348.929 108.381 349.704C108.036 350.469 107.518 351.067 106.827 351.496C106.146 351.925 105.306 352.14 104.307 352.14C103.271 352.14 102.408 351.925 101.717 351.496C101.036 351.067 100.527 350.465 100.191 349.69C99.855 348.915 99.687 348.01 99.687 346.974C99.687 345.957 99.855 345.065 100.191 344.3C100.527 343.525 101.036 342.923 101.717 342.494C102.408 342.065 103.276 341.85 104.321 341.85C105.32 341.85 106.16 342.065 106.841 342.494C107.522 342.914 108.036 343.511 108.381 344.286C108.736 345.051 108.913 345.952 108.913 346.988ZM101.017 346.988C101.017 348.248 101.283 349.242 101.815 349.97C102.347 350.689 103.178 351.048 104.307 351.048C105.436 351.048 106.262 350.689 106.785 349.97C107.317 349.242 107.583 348.248 107.583 346.988C107.583 345.728 107.322 344.743 106.799 344.034C106.276 343.315 105.45 342.956 104.321 342.956C103.182 342.956 102.347 343.315 101.815 344.034C101.283 344.743 101.017 345.728 101.017 346.988ZM114.531 344.356C115.455 344.356 116.197 344.678 116.757 345.322C117.326 345.966 117.611 346.937 117.611 348.234C117.611 349.513 117.326 350.483 116.757 351.146C116.197 351.809 115.45 352.14 114.517 352.14C113.938 352.14 113.457 352.033 113.075 351.818C112.701 351.603 112.407 351.347 112.193 351.048H112.109C112.118 351.207 112.132 351.407 112.151 351.65C112.179 351.893 112.193 352.103 112.193 352.28V355.36H110.961V344.496H111.969L112.137 345.518H112.193C112.417 345.191 112.711 344.916 113.075 344.692C113.439 344.468 113.924 344.356 114.531 344.356ZM114.307 345.392C113.541 345.392 113 345.607 112.683 346.036C112.365 346.465 112.202 347.119 112.193 347.996V348.234C112.193 349.158 112.342 349.872 112.641 350.376C112.949 350.871 113.513 351.118 114.335 351.118C114.783 351.118 115.156 350.997 115.455 350.754C115.753 350.502 115.973 350.157 116.113 349.718C116.262 349.279 116.337 348.78 116.337 348.22C116.337 347.361 116.169 346.675 115.833 346.162C115.506 345.649 114.997 345.392 114.307 345.392ZM122.08 351.132C122.266 351.132 122.458 351.118 122.654 351.09C122.85 351.062 123.008 351.025 123.13 350.978V351.916C122.999 351.981 122.812 352.033 122.57 352.07C122.327 352.117 122.094 352.14 121.87 352.14C121.478 352.14 121.114 352.075 120.778 351.944C120.451 351.804 120.185 351.566 119.98 351.23C119.774 350.894 119.672 350.423 119.672 349.816V345.448H118.608V344.86L119.686 344.37L120.176 342.774H120.904V344.496H123.074V345.448H120.904V349.788C120.904 350.245 121.011 350.586 121.226 350.81C121.45 351.025 121.734 351.132 122.08 351.132ZM125.262 341.682C125.449 341.682 125.612 341.747 125.752 341.878C125.902 341.999 125.976 342.195 125.976 342.466C125.976 342.737 125.902 342.937 125.752 343.068C125.612 343.189 125.449 343.25 125.262 343.25C125.057 343.25 124.884 343.189 124.744 343.068C124.604 342.937 124.534 342.737 124.534 342.466C124.534 342.195 124.604 341.999 124.744 341.878C124.884 341.747 125.057 341.682 125.262 341.682ZM125.864 344.496V352H124.632V344.496H125.864ZM134.766 348.234C134.766 349.475 134.448 350.437 133.814 351.118C133.188 351.799 132.339 352.14 131.266 352.14C130.603 352.14 130.01 351.991 129.488 351.692C128.974 351.384 128.568 350.941 128.27 350.362C127.971 349.774 127.822 349.065 127.822 348.234C127.822 346.993 128.13 346.036 128.746 345.364C129.371 344.692 130.225 344.356 131.308 344.356C131.98 344.356 132.577 344.51 133.1 344.818C133.622 345.117 134.028 345.555 134.318 346.134C134.616 346.703 134.766 347.403 134.766 348.234ZM129.096 348.234C129.096 349.121 129.268 349.825 129.614 350.348C129.968 350.861 130.528 351.118 131.294 351.118C132.05 351.118 132.605 350.861 132.96 350.348C133.314 349.825 133.492 349.121 133.492 348.234C133.492 347.347 133.314 346.652 132.96 346.148C132.605 345.644 132.045 345.392 131.28 345.392C130.514 345.392 129.959 345.644 129.614 346.148C129.268 346.652 129.096 347.347 129.096 348.234ZM140.33 344.356C141.226 344.356 141.903 344.575 142.36 345.014C142.818 345.453 143.046 346.153 143.046 347.114V352H141.828V347.198C141.828 345.994 141.268 345.392 140.148 345.392C139.318 345.392 138.744 345.625 138.426 346.092C138.109 346.559 137.95 347.231 137.95 348.108V352H136.718V344.496H137.712L137.894 345.518H137.964C138.207 345.126 138.543 344.837 138.972 344.65C139.402 344.454 139.854 344.356 140.33 344.356ZM148.589 347.73C148.589 347.011 148.65 346.307 148.771 345.616C148.902 344.916 149.131 344.286 149.457 343.726C149.793 343.157 150.26 342.704 150.857 342.368C151.455 342.032 152.225 341.864 153.167 341.864C153.363 341.864 153.578 341.873 153.811 341.892C154.054 341.911 154.25 341.943 154.399 341.99V343.04C154.231 342.984 154.04 342.942 153.825 342.914C153.611 342.886 153.401 342.872 153.195 342.872C152.551 342.872 152.015 342.979 151.585 343.194C151.156 343.409 150.815 343.703 150.563 344.076C150.321 344.449 150.143 344.879 150.031 345.364C149.919 345.849 149.849 346.367 149.821 346.918H149.905C150.12 346.591 150.419 346.316 150.801 346.092C151.184 345.859 151.674 345.742 152.271 345.742C153.139 345.742 153.839 346.008 154.371 346.54C154.903 347.063 155.169 347.809 155.169 348.78C155.169 349.825 154.88 350.647 154.301 351.244C153.732 351.841 152.962 352.14 151.991 352.14C151.357 352.14 150.783 351.981 150.269 351.664C149.756 351.347 149.345 350.861 149.037 350.208C148.739 349.555 148.589 348.729 148.589 347.73ZM151.977 351.104C152.565 351.104 153.041 350.917 153.405 350.544C153.769 350.161 153.951 349.573 153.951 348.78C153.951 348.145 153.788 347.641 153.461 347.268C153.144 346.895 152.663 346.708 152.019 346.708C151.581 346.708 151.198 346.801 150.871 346.988C150.545 347.165 150.288 347.399 150.101 347.688C149.924 347.968 149.835 348.253 149.835 348.542C149.835 348.943 149.915 349.345 150.073 349.746C150.232 350.138 150.47 350.465 150.787 350.726C151.105 350.978 151.501 351.104 151.977 351.104Z" fill="black"/>
<path d="M270.579 352.962C270.479 352.962 270.379 352.913 270.329 352.863C270.179 352.713 270.179 352.462 270.329 352.312L275.629 347.012L270.279 341.662C270.129 341.512 270.129 341.263 270.279 341.113C270.429 340.962 270.679 340.962 270.829 341.113L276.429 346.712C276.479 346.762 276.529 346.862 276.529 346.962C276.529 347.062 276.479 347.162 276.429 347.212L270.829 352.863C270.729 352.963 270.629 352.962 270.579 352.962Z" fill="black"/>
<path d="M108.913 382.988C108.913 384.024 108.736 384.929 108.381 385.704C108.036 386.469 107.518 387.067 106.827 387.496C106.146 387.925 105.306 388.14 104.307 388.14C103.271 388.14 102.408 387.925 101.717 387.496C101.036 387.067 100.527 386.465 100.191 385.69C99.855 384.915 99.687 384.01 99.687 382.974C99.687 381.957 99.855 381.065 100.191 380.3C100.527 379.525 101.036 378.923 101.717 378.494C102.408 378.065 103.276 377.85 104.321 377.85C105.32 377.85 106.16 378.065 106.841 378.494C107.522 378.914 108.036 379.511 108.381 380.286C108.736 381.051 108.913 381.952 108.913 382.988ZM101.017 382.988C101.017 384.248 101.283 385.242 101.815 385.97C102.347 386.689 103.178 387.048 104.307 387.048C105.436 387.048 106.262 386.689 106.785 385.97C107.317 385.242 107.583 384.248 107.583 382.988C107.583 381.728 107.322 380.743 106.799 380.034C106.276 379.315 105.45 378.956 104.321 378.956C103.182 378.956 102.347 379.315 101.815 380.034C101.283 380.743 101.017 381.728 101.017 382.988ZM114.531 380.356C115.455 380.356 116.197 380.678 116.757 381.322C117.326 381.966 117.611 382.937 117.611 384.234C117.611 385.513 117.326 386.483 116.757 387.146C116.197 387.809 115.45 388.14 114.517 388.14C113.938 388.14 113.457 388.033 113.075 387.818C112.701 387.603 112.407 387.347 112.193 387.048H112.109C112.118 387.207 112.132 387.407 112.151 387.65C112.179 387.893 112.193 388.103 112.193 388.28V391.36H110.961V380.496H111.969L112.137 381.518H112.193C112.417 381.191 112.711 380.916 113.075 380.692C113.439 380.468 113.924 380.356 114.531 380.356ZM114.307 381.392C113.541 381.392 113 381.607 112.683 382.036C112.365 382.465 112.202 383.119 112.193 383.996V384.234C112.193 385.158 112.342 385.872 112.641 386.376C112.949 386.871 113.513 387.118 114.335 387.118C114.783 387.118 115.156 386.997 115.455 386.754C115.753 386.502 115.973 386.157 116.113 385.718C116.262 385.279 116.337 384.78 116.337 384.22C116.337 383.361 116.169 382.675 115.833 382.162C115.506 381.649 114.997 381.392 114.307 381.392ZM122.08 387.132C122.266 387.132 122.458 387.118 122.654 387.09C122.85 387.062 123.008 387.025 123.13 386.978V387.916C122.999 387.981 122.812 388.033 122.57 388.07C122.327 388.117 122.094 388.14 121.87 388.14C121.478 388.14 121.114 388.075 120.778 387.944C120.451 387.804 120.185 387.566 119.98 387.23C119.774 386.894 119.672 386.423 119.672 385.816V381.448H118.608V380.86L119.686 380.37L120.176 378.774H120.904V380.496H123.074V381.448H120.904V385.788C120.904 386.245 121.011 386.586 121.226 386.81C121.45 387.025 121.734 387.132 122.08 387.132ZM125.262 377.682C125.449 377.682 125.612 377.747 125.752 377.878C125.902 377.999 125.976 378.195 125.976 378.466C125.976 378.737 125.902 378.937 125.752 379.068C125.612 379.189 125.449 379.25 125.262 379.25C125.057 379.25 124.884 379.189 124.744 379.068C124.604 378.937 124.534 378.737 124.534 378.466C124.534 378.195 124.604 377.999 124.744 377.878C124.884 377.747 125.057 377.682 125.262 377.682ZM125.864 380.496V388H124.632V380.496H125.864ZM134.766 384.234C134.766 385.475 134.448 386.437 133.814 387.118C133.188 387.799 132.339 388.14 131.266 388.14C130.603 388.14 130.01 387.991 129.488 387.692C128.974 387.384 128.568 386.941 128.27 386.362C127.971 385.774 127.822 385.065 127.822 384.234C127.822 382.993 128.13 382.036 128.746 381.364C129.371 380.692 130.225 380.356 131.308 380.356C131.98 380.356 132.577 380.51 133.1 380.818C133.622 381.117 134.028 381.555 134.318 382.134C134.616 382.703 134.766 383.403 134.766 384.234ZM129.096 384.234C129.096 385.121 129.268 385.825 129.614 386.348C129.968 386.861 130.528 387.118 131.294 387.118C132.05 387.118 132.605 386.861 132.96 386.348C133.314 385.825 133.492 385.121 133.492 384.234C133.492 383.347 133.314 382.652 132.96 382.148C132.605 381.644 132.045 381.392 131.28 381.392C130.514 381.392 129.959 381.644 129.614 382.148C129.268 382.652 129.096 383.347 129.096 384.234ZM140.33 380.356C141.226 380.356 141.903 380.575 142.36 381.014C142.818 381.453 143.046 382.153 143.046 383.114V388H141.828V383.198C141.828 381.994 141.268 381.392 140.148 381.392C139.318 381.392 138.744 381.625 138.426 382.092C138.109 382.559 137.95 383.231 137.95 384.108V388H136.718V380.496H137.712L137.894 381.518H137.964C138.207 381.126 138.543 380.837 138.972 380.65C139.402 380.454 139.854 380.356 140.33 380.356ZM149.723 388L153.825 379.124H148.435V378.004H155.141V378.956L151.081 388H149.723Z" fill="black"/>
<rect x="90.333" y="148.5" width="199.333" height="253" rx="4.5" stroke="black" stroke-opacity="0.15"/>
</g>
<rect x="90.5" y="113.5" width="279" height="35" rx="1.5" fill="white"/>
<path d="M109.028 133.326C109.028 134.213 108.706 134.903 108.062 135.398C107.418 135.893 106.55 136.14 105.458 136.14C104.898 136.14 104.38 136.098 103.904 136.014C103.428 135.93 103.031 135.813 102.714 135.664V134.46C103.05 134.609 103.465 134.745 103.96 134.866C104.464 134.987 104.982 135.048 105.514 135.048C106.251 135.048 106.811 134.903 107.194 134.614C107.577 134.325 107.768 133.933 107.768 133.438C107.768 133.111 107.698 132.836 107.558 132.612C107.418 132.388 107.175 132.183 106.83 131.996C106.485 131.809 106.013 131.604 105.416 131.38C104.557 131.072 103.913 130.694 103.484 130.246C103.055 129.798 102.84 129.187 102.84 128.412C102.84 127.889 102.975 127.437 103.246 127.054C103.517 126.671 103.89 126.377 104.366 126.172C104.842 125.967 105.397 125.864 106.032 125.864C106.573 125.864 107.073 125.915 107.53 126.018C107.987 126.121 108.407 126.256 108.79 126.424L108.398 127.502C108.053 127.353 107.675 127.227 107.264 127.124C106.853 127.021 106.433 126.97 106.004 126.97C105.379 126.97 104.907 127.105 104.59 127.376C104.273 127.637 104.114 127.987 104.114 128.426C104.114 128.762 104.184 129.042 104.324 129.266C104.464 129.49 104.693 129.695 105.01 129.882C105.327 130.059 105.757 130.246 106.298 130.442C106.886 130.657 107.381 130.89 107.782 131.142C108.193 131.385 108.501 131.679 108.706 132.024C108.921 132.369 109.028 132.803 109.028 133.326ZM113.772 128.356C114.406 128.356 114.957 128.496 115.424 128.776C115.89 129.056 116.245 129.453 116.488 129.966C116.74 130.47 116.866 131.063 116.866 131.744V132.486H111.728C111.746 133.335 111.961 133.984 112.372 134.432C112.792 134.871 113.375 135.09 114.122 135.09C114.598 135.09 115.018 135.048 115.382 134.964C115.755 134.871 116.138 134.74 116.53 134.572V135.65C116.147 135.818 115.769 135.939 115.396 136.014C115.022 136.098 114.579 136.14 114.066 136.14C113.347 136.14 112.717 135.995 112.176 135.706C111.634 135.417 111.21 134.987 110.902 134.418C110.603 133.849 110.454 133.144 110.454 132.304C110.454 131.483 110.589 130.778 110.86 130.19C111.14 129.602 111.527 129.149 112.022 128.832C112.526 128.515 113.109 128.356 113.772 128.356ZM113.758 129.364C113.17 129.364 112.703 129.555 112.358 129.938C112.022 130.311 111.821 130.834 111.756 131.506H115.578C115.568 130.871 115.419 130.358 115.13 129.966C114.84 129.565 114.383 129.364 113.758 129.364ZM120.008 136H118.776V125.36H120.008V136ZM125.283 128.356C125.918 128.356 126.469 128.496 126.935 128.776C127.402 129.056 127.757 129.453 127.999 129.966C128.251 130.47 128.377 131.063 128.377 131.744V132.486H123.239C123.258 133.335 123.473 133.984 123.883 134.432C124.303 134.871 124.887 135.09 125.633 135.09C126.109 135.09 126.529 135.048 126.893 134.964C127.267 134.871 127.649 134.74 128.041 134.572V135.65C127.659 135.818 127.281 135.939 126.907 136.014C126.534 136.098 126.091 136.14 125.577 136.14C124.859 136.14 124.229 135.995 123.687 135.706C123.146 135.417 122.721 134.987 122.413 134.418C122.115 133.849 121.965 133.144 121.965 132.304C121.965 131.483 122.101 130.778 122.371 130.19C122.651 129.602 123.039 129.149 123.533 128.832C124.037 128.515 124.621 128.356 125.283 128.356ZM125.269 129.364C124.681 129.364 124.215 129.555 123.869 129.938C123.533 130.311 123.333 130.834 123.267 131.506H127.089C127.08 130.871 126.931 130.358 126.641 129.966C126.352 129.565 125.895 129.364 125.269 129.364ZM133.298 136.14C132.626 136.14 132.033 136.005 131.52 135.734C131.006 135.463 130.6 135.043 130.302 134.474C130.012 133.905 129.868 133.177 129.868 132.29C129.868 131.366 130.017 130.615 130.316 130.036C130.624 129.457 131.044 129.033 131.576 128.762C132.108 128.491 132.71 128.356 133.382 128.356C133.755 128.356 134.119 128.398 134.474 128.482C134.838 128.557 135.132 128.65 135.356 128.762L134.978 129.784C134.754 129.7 134.492 129.621 134.194 129.546C133.895 129.471 133.615 129.434 133.354 129.434C131.879 129.434 131.142 130.381 131.142 132.276C131.142 133.181 131.319 133.877 131.674 134.362C132.038 134.838 132.574 135.076 133.284 135.076C133.685 135.076 134.044 135.034 134.362 134.95C134.679 134.866 134.968 134.763 135.23 134.642V135.734C134.978 135.865 134.698 135.963 134.39 136.028C134.091 136.103 133.727 136.14 133.298 136.14ZM139.52 135.132C139.707 135.132 139.898 135.118 140.094 135.09C140.29 135.062 140.449 135.025 140.57 134.978V135.916C140.44 135.981 140.253 136.033 140.01 136.07C139.768 136.117 139.534 136.14 139.31 136.14C138.918 136.14 138.554 136.075 138.218 135.944C137.892 135.804 137.626 135.566 137.42 135.23C137.215 134.894 137.112 134.423 137.112 133.816V129.448H136.048V128.86L137.126 128.37L137.616 126.774H138.344V128.496H140.514V129.448H138.344V133.788C138.344 134.245 138.452 134.586 138.666 134.81C138.89 135.025 139.175 135.132 139.52 135.132Z" fill="black"/>
<path d="M350.012 134.362C349.912 134.362 349.812 134.312 349.762 134.262L344.113 128.662C343.962 128.512 343.962 128.262 344.113 128.112C344.263 127.963 344.512 127.963 344.662 128.112L350.012 133.462L355.312 128.112C355.462 127.963 355.713 127.963 355.863 128.112C356.012 128.262 356.012 128.512 355.863 128.662L350.262 134.262C350.162 134.312 350.112 134.362 350.012 134.362Z" fill="#323232"/>
<rect x="90.5" y="113.5" width="279" height="35" rx="1.5" stroke="#939393"/>
<path d="M460 475H0V491H460V475Z" fill="#D93D32" mask="url(#path-1-outside-1_7837_524712)"/>
<path d="M10.832 527.176C10.832 529.107 10.2933 530.563 9.216 531.544C8.13867 532.515 6.63467 533 4.704 533H1.488V521.576H5.04C6.224 521.576 7.248 521.789 8.112 522.216C8.976 522.643 9.64267 523.272 10.112 524.104C10.592 524.936 10.832 525.96 10.832 527.176ZM8.688 527.24C8.688 525.875 8.37333 524.872 7.744 524.232C7.11467 523.592 6.21333 523.272 5.04 523.272H3.536V531.288H4.768C7.38133 531.288 8.688 529.939 8.688 527.24ZM23.4773 527.272C23.4773 528.456 23.2799 529.491 22.8853 530.376C22.5013 531.251 21.9093 531.933 21.1093 532.424C20.3093 532.915 19.3066 533.16 18.1013 533.16C16.8746 533.16 15.8666 532.915 15.0773 532.424C14.2879 531.933 13.6959 531.245 13.3013 530.36C12.9173 529.475 12.7253 528.44 12.7253 527.256C12.7253 526.083 12.9173 525.059 13.3013 524.184C13.6959 523.299 14.2879 522.616 15.0773 522.136C15.8773 521.645 16.8906 521.4 18.1173 521.4C19.3226 521.4 20.3199 521.645 21.1093 522.136C21.9093 522.616 22.5013 523.299 22.8853 524.184C23.2799 525.059 23.4773 526.088 23.4773 527.272ZM14.8853 527.272C14.8853 528.563 15.1413 529.576 15.6533 530.312C16.1759 531.048 16.9919 531.416 18.1013 531.416C19.2426 531.416 20.0639 531.048 20.5653 530.312C21.0666 529.576 21.3173 528.563 21.3173 527.272C21.3173 525.981 21.0666 524.968 20.5653 524.232C20.0639 523.496 19.2479 523.128 18.1173 523.128C16.9973 523.128 16.1759 523.496 15.6533 524.232C15.1413 524.968 14.8853 525.981 14.8853 527.272ZM35.6219 533H33.0779L27.6699 524.04H27.6059C27.6272 524.52 27.6485 525.037 27.6699 525.592C27.7019 526.136 27.7285 526.685 27.7499 527.24V533H25.9099V521.576H28.4379L33.8299 530.472H33.8779C33.8672 530.045 33.8459 529.555 33.8139 529C33.7925 528.445 33.7765 527.907 33.7659 527.384V521.576H35.6219V533ZM40.0214 521.576L40.1334 521.752C39.9947 522.317 39.7974 522.941 39.5414 523.624C39.2854 524.296 39.024 524.92 38.7574 525.496H37.3014C37.4507 524.877 37.6 524.211 37.7494 523.496C37.8987 522.771 38.0107 522.131 38.0854 521.576H40.0214ZM46.2246 533H44.1766V523.304H40.8966V521.576H49.5046V523.304H46.2246V533ZM50.7736 525.384C50.7736 524.925 50.891 524.605 51.1256 524.424C51.371 524.232 51.659 524.136 51.9896 524.136C52.3203 524.136 52.6083 524.232 52.8536 524.424C53.099 524.605 53.2216 524.925 53.2216 525.384C53.2216 525.811 53.099 526.125 52.8536 526.328C52.6083 526.52 52.3203 526.616 51.9896 526.616C51.659 526.616 51.371 526.52 51.1256 526.328C50.891 526.125 50.7736 525.811 50.7736 525.384ZM50.7736 531.976C50.7736 531.528 50.891 531.213 51.1256 531.032C51.371 530.84 51.659 530.744 51.9896 530.744C52.3203 530.744 52.6083 530.84 52.8536 531.032C53.099 531.213 53.2216 531.528 53.2216 531.976C53.2216 532.413 53.099 532.728 52.8536 532.92C52.6083 533.112 52.3203 533.208 51.9896 533.208C51.659 533.208 51.371 533.112 51.1256 532.92C50.891 532.728 50.7736 532.413 50.7736 531.976ZM69.0946 527.176C69.0946 529.107 68.5666 530.563 67.5106 531.544C66.4653 532.515 65.004 533 63.1266 533H59.9426V521.576H63.4626C64.604 521.576 65.596 521.789 66.4386 522.216C67.292 522.643 67.948 523.272 68.4066 524.104C68.8653 524.936 69.0946 525.96 69.0946 527.176ZM67.5746 527.224C67.5746 525.699 67.196 524.584 66.4386 523.88C65.692 523.165 64.6306 522.808 63.2546 522.808H61.3826V531.768H62.9346C66.028 531.768 67.5746 530.253 67.5746 527.224ZM78.8941 528.696C78.8941 530.115 78.5315 531.213 77.8061 531.992C77.0915 532.771 76.1208 533.16 74.8941 533.16C74.1368 533.16 73.4595 532.989 72.8621 532.648C72.2755 532.296 71.8115 531.789 71.4701 531.128C71.1288 530.456 70.9581 529.645 70.9581 528.696C70.9581 527.277 71.3101 526.184 72.0141 525.416C72.7288 524.648 73.7048 524.264 74.9421 524.264C75.7101 524.264 76.3928 524.44 76.9901 524.792C77.5875 525.133 78.0515 525.635 78.3821 526.296C78.7235 526.947 78.8941 527.747 78.8941 528.696ZM72.4141 528.696C72.4141 529.709 72.6115 530.515 73.0061 531.112C73.4115 531.699 74.0515 531.992 74.9261 531.992C75.7901 531.992 76.4248 531.699 76.8301 531.112C77.2355 530.515 77.4381 529.709 77.4381 528.696C77.4381 527.683 77.2355 526.888 76.8301 526.312C76.4248 525.736 75.7848 525.448 74.9101 525.448C74.0355 525.448 73.4008 525.736 73.0061 526.312C72.6115 526.888 72.4141 527.683 72.4141 528.696ZM89.4099 524.264C90.4339 524.264 91.2072 524.515 91.7299 525.016C92.2525 525.517 92.5139 526.317 92.5139 527.416V533H91.1219V527.512C91.1219 526.136 90.4819 525.448 89.2019 525.448C88.2525 525.448 87.5965 525.715 87.2339 526.248C86.8712 526.781 86.6899 527.549 86.6899 528.552V533H85.2819V524.424H86.4179L86.6259 525.592H86.7059C86.9832 525.144 87.3672 524.813 87.8579 524.6C88.3485 524.376 88.8659 524.264 89.4099 524.264ZM102.628 528.696C102.628 530.115 102.266 531.213 101.541 531.992C100.826 532.771 99.8552 533.16 98.6285 533.16C97.8712 533.16 97.1938 532.989 96.5965 532.648C96.0098 532.296 95.5458 531.789 95.2045 531.128C94.8632 530.456 94.6925 529.645 94.6925 528.696C94.6925 527.277 95.0445 526.184 95.7485 525.416C96.4632 524.648 97.4392 524.264 98.6765 524.264C99.4445 524.264 100.127 524.44 100.725 524.792C101.322 525.133 101.786 525.635 102.117 526.296C102.458 526.947 102.628 527.747 102.628 528.696ZM96.1485 528.696C96.1485 529.709 96.3458 530.515 96.7405 531.112C97.1458 531.699 97.7858 531.992 98.6605 531.992C99.5245 531.992 100.159 531.699 100.565 531.112C100.97 530.515 101.173 529.709 101.173 528.696C101.173 527.683 100.97 526.888 100.565 526.312C100.159 525.736 99.5192 525.448 98.6445 525.448C97.7698 525.448 97.1352 525.736 96.7405 526.312C96.3458 526.888 96.1485 527.683 96.1485 528.696ZM107.724 532.008C107.937 532.008 108.156 531.992 108.38 531.96C108.604 531.928 108.785 531.885 108.924 531.832V532.904C108.775 532.979 108.561 533.037 108.284 533.08C108.007 533.133 107.74 533.16 107.484 533.16C107.036 533.16 106.62 533.085 106.236 532.936C105.863 532.776 105.559 532.504 105.324 532.12C105.089 531.736 104.972 531.197 104.972 530.504V525.512H103.756V524.84L104.988 524.28L105.548 522.456H106.38V524.424H108.86V525.512H106.38V530.472C106.38 530.995 106.503 531.384 106.748 531.64C107.004 531.885 107.329 532.008 107.724 532.008ZM124.206 524.264C125.176 524.264 125.902 524.515 126.382 525.016C126.862 525.517 127.102 526.317 127.102 527.416V533H125.71V527.48C125.71 526.125 125.128 525.448 123.966 525.448C123.134 525.448 122.536 525.688 122.174 526.168C121.822 526.648 121.646 527.347 121.646 528.264V533H120.254V527.48C120.254 526.125 119.667 525.448 118.494 525.448C117.63 525.448 117.032 525.715 116.702 526.248C116.371 526.781 116.206 527.549 116.206 528.552V533H114.798V524.424H115.934L116.142 525.592H116.222C116.488 525.144 116.846 524.813 117.294 524.6C117.752 524.376 118.238 524.264 118.75 524.264C120.094 524.264 120.968 524.744 121.374 525.704H121.454C121.742 525.213 122.131 524.851 122.622 524.616C123.112 524.381 123.64 524.264 124.206 524.264ZM132.999 524.28C134.044 524.28 134.817 524.509 135.319 524.968C135.82 525.427 136.071 526.157 136.071 527.16V533H135.047L134.775 531.784H134.711C134.337 532.253 133.943 532.6 133.527 532.824C133.111 533.048 132.545 533.16 131.831 533.16C131.052 533.16 130.407 532.957 129.895 532.552C129.383 532.136 129.127 531.491 129.127 530.616C129.127 529.763 129.463 529.107 130.135 528.648C130.807 528.179 131.841 527.923 133.239 527.88L134.695 527.832V527.32C134.695 526.605 134.54 526.109 134.231 525.832C133.921 525.555 133.484 525.416 132.919 525.416C132.471 525.416 132.044 525.485 131.639 525.624C131.233 525.752 130.855 525.901 130.503 526.072L130.071 525.016C130.444 524.813 130.887 524.643 131.399 524.504C131.911 524.355 132.444 524.28 132.999 524.28ZM134.679 528.808L133.415 528.856C132.348 528.899 131.607 529.069 131.191 529.368C130.785 529.667 130.583 530.088 130.583 530.632C130.583 531.112 130.727 531.464 131.015 531.688C131.313 531.912 131.692 532.024 132.151 532.024C132.865 532.024 133.463 531.827 133.943 531.432C134.433 531.027 134.679 530.408 134.679 529.576V528.808ZM140.111 520.84V527.192C140.111 527.363 140.101 527.587 140.079 527.864C140.069 528.141 140.058 528.381 140.047 528.584H140.111C140.175 528.499 140.271 528.376 140.399 528.216C140.527 528.056 140.655 527.896 140.783 527.736C140.922 527.565 141.039 527.427 141.135 527.32L143.871 524.424H145.519L142.047 528.088L145.759 533H144.063L141.087 529L140.111 529.848V533H138.719V520.84H140.111ZM150.578 524.264C151.304 524.264 151.933 524.424 152.466 524.744C153 525.064 153.405 525.517 153.682 526.104C153.97 526.68 154.114 527.357 154.114 528.136V528.984H148.242C148.264 529.955 148.509 530.696 148.978 531.208C149.458 531.709 150.125 531.96 150.978 531.96C151.522 531.96 152.002 531.912 152.418 531.816C152.845 531.709 153.282 531.56 153.73 531.368V532.6C153.293 532.792 152.861 532.931 152.434 533.016C152.008 533.112 151.501 533.16 150.914 533.16C150.093 533.16 149.373 532.995 148.754 532.664C148.136 532.333 147.65 531.843 147.298 531.192C146.957 530.541 146.786 529.736 146.786 528.776C146.786 527.837 146.941 527.032 147.25 526.36C147.57 525.688 148.013 525.171 148.578 524.808C149.154 524.445 149.821 524.264 150.578 524.264ZM150.562 525.416C149.89 525.416 149.357 525.635 148.962 526.072C148.578 526.499 148.349 527.096 148.274 527.864H152.642C152.632 527.139 152.461 526.552 152.13 526.104C151.8 525.645 151.277 525.416 150.562 525.416ZM163.318 532.008C163.531 532.008 163.75 531.992 163.974 531.96C164.198 531.928 164.379 531.885 164.518 531.832V532.904C164.368 532.979 164.155 533.037 163.878 533.08C163.6 533.133 163.334 533.16 163.078 533.16C162.63 533.16 162.214 533.085 161.83 532.936C161.456 532.776 161.152 532.504 160.918 532.12C160.683 531.736 160.566 531.197 160.566 530.504V525.512H159.35V524.84L160.582 524.28L161.142 522.456H161.974V524.424H164.454V525.512H161.974V530.472C161.974 530.995 162.096 531.384 162.342 531.64C162.598 531.885 162.923 532.008 163.318 532.008ZM167.643 520.84V524.408C167.643 524.835 167.616 525.235 167.563 525.608H167.659C167.936 525.171 168.31 524.84 168.779 524.616C169.259 524.392 169.776 524.28 170.331 524.28C171.366 524.28 172.144 524.531 172.667 525.032C173.2 525.523 173.467 526.317 173.467 527.416V533H172.075V527.512C172.075 526.136 171.435 525.448 170.155 525.448C169.195 525.448 168.534 525.72 168.171 526.264C167.819 526.797 167.643 527.565 167.643 528.568V533H166.235V520.84H167.643ZM179.438 524.264C180.163 524.264 180.792 524.424 181.326 524.744C181.859 525.064 182.264 525.517 182.542 526.104C182.83 526.68 182.974 527.357 182.974 528.136V528.984H177.102C177.123 529.955 177.368 530.696 177.838 531.208C178.318 531.709 178.984 531.96 179.838 531.96C180.382 531.96 180.862 531.912 181.278 531.816C181.704 531.709 182.142 531.56 182.59 531.368V532.6C182.152 532.792 181.72 532.931 181.294 533.016C180.867 533.112 180.36 533.16 179.774 533.16C178.952 533.16 178.232 532.995 177.614 532.664C176.995 532.333 176.51 531.843 176.158 531.192C175.816 530.541 175.646 529.736 175.646 528.776C175.646 527.837 175.8 527.032 176.11 526.36C176.43 525.688 176.872 525.171 177.438 524.808C178.014 524.445 178.68 524.264 179.438 524.264ZM179.422 525.416C178.75 525.416 178.216 525.635 177.822 526.072C177.438 526.499 177.208 527.096 177.134 527.864H181.502C181.491 527.139 181.32 526.552 180.99 526.104C180.659 525.645 180.136 525.416 179.422 525.416ZM192.753 533.16C191.985 533.16 191.308 533.005 190.721 532.696C190.134 532.387 189.67 531.907 189.329 531.256C188.998 530.605 188.833 529.773 188.833 528.76C188.833 527.704 189.004 526.845 189.345 526.184C189.697 525.523 190.177 525.037 190.785 524.728C191.393 524.419 192.081 524.264 192.849 524.264C193.276 524.264 193.692 524.312 194.097 524.408C194.513 524.493 194.849 524.6 195.105 524.728L194.673 525.896C194.417 525.8 194.118 525.709 193.777 525.624C193.436 525.539 193.116 525.496 192.817 525.496C191.132 525.496 190.289 526.579 190.289 528.744C190.289 529.779 190.492 530.573 190.897 531.128C191.313 531.672 191.926 531.944 192.737 531.944C193.196 531.944 193.606 531.896 193.969 531.8C194.332 531.704 194.662 531.587 194.961 531.448V532.696C194.673 532.845 194.353 532.957 194.001 533.032C193.66 533.117 193.244 533.16 192.753 533.16ZM204.457 528.696C204.457 530.115 204.094 531.213 203.369 531.992C202.654 532.771 201.683 533.16 200.457 533.16C199.699 533.16 199.022 532.989 198.425 532.648C197.838 532.296 197.374 531.789 197.033 531.128C196.691 530.456 196.521 529.645 196.521 528.696C196.521 527.277 196.873 526.184 197.577 525.416C198.291 524.648 199.267 524.264 200.505 524.264C201.273 524.264 201.955 524.44 202.553 524.792C203.15 525.133 203.614 525.635 203.945 526.296C204.286 526.947 204.457 527.747 204.457 528.696ZM197.977 528.696C197.977 529.709 198.174 530.515 198.569 531.112C198.974 531.699 199.614 531.992 200.489 531.992C201.353 531.992 201.987 531.699 202.393 531.112C202.798 530.515 203.001 529.709 203.001 528.696C203.001 527.683 202.798 526.888 202.393 526.312C201.987 525.736 201.347 525.448 200.473 525.448C199.598 525.448 198.963 525.736 198.569 526.312C198.174 526.888 197.977 527.683 197.977 528.696ZM210.816 524.264C211.84 524.264 212.613 524.515 213.136 525.016C213.659 525.517 213.92 526.317 213.92 527.416V533H212.528V527.512C212.528 526.136 211.888 525.448 210.608 525.448C209.659 525.448 209.003 525.715 208.64 526.248C208.277 526.781 208.096 527.549 208.096 528.552V533H206.688V524.424H207.824L208.032 525.592H208.112C208.389 525.144 208.773 524.813 209.264 524.6C209.755 524.376 210.272 524.264 210.816 524.264ZM219.443 532.008C219.656 532.008 219.875 531.992 220.099 531.96C220.323 531.928 220.504 531.885 220.643 531.832V532.904C220.493 532.979 220.28 533.037 220.003 533.08C219.725 533.133 219.459 533.16 219.203 533.16C218.755 533.16 218.339 533.085 217.955 532.936C217.581 532.776 217.277 532.504 217.043 532.12C216.808 531.736 216.691 531.197 216.691 530.504V525.512H215.475V524.84L216.707 524.28L217.267 522.456H218.099V524.424H220.579V525.512H218.099V530.472C218.099 530.995 218.221 531.384 218.467 531.64C218.723 531.885 219.048 532.008 219.443 532.008ZM225.608 524.28C226.653 524.28 227.427 524.509 227.928 524.968C228.429 525.427 228.68 526.157 228.68 527.16V533H227.656L227.384 531.784H227.32C226.947 532.253 226.552 532.6 226.136 532.824C225.72 533.048 225.155 533.16 224.44 533.16C223.661 533.16 223.016 532.957 222.504 532.552C221.992 532.136 221.736 531.491 221.736 530.616C221.736 529.763 222.072 529.107 222.744 528.648C223.416 528.179 224.451 527.923 225.848 527.88L227.304 527.832V527.32C227.304 526.605 227.149 526.109 226.84 525.832C226.531 525.555 226.093 525.416 225.528 525.416C225.08 525.416 224.653 525.485 224.248 525.624C223.843 525.752 223.464 525.901 223.112 526.072L222.68 525.016C223.053 524.813 223.496 524.643 224.008 524.504C224.52 524.355 225.053 524.28 225.608 524.28ZM227.288 528.808L226.024 528.856C224.957 528.899 224.216 529.069 223.8 529.368C223.395 529.667 223.192 530.088 223.192 530.632C223.192 531.112 223.336 531.464 223.624 531.688C223.923 531.912 224.301 532.024 224.76 532.024C225.475 532.024 226.072 531.827 226.552 531.432C227.043 531.027 227.288 530.408 227.288 529.576V528.808ZM232.049 521.208C232.262 521.208 232.449 521.283 232.609 521.432C232.779 521.571 232.865 521.795 232.865 522.104C232.865 522.413 232.779 522.643 232.609 522.792C232.449 522.931 232.262 523 232.049 523C231.814 523 231.617 522.931 231.457 522.792C231.297 522.643 231.217 522.413 231.217 522.104C231.217 521.795 231.297 521.571 231.457 521.432C231.617 521.283 231.814 521.208 232.049 521.208ZM232.737 524.424V533H231.329V524.424H232.737ZM239.582 524.264C240.606 524.264 241.379 524.515 241.902 525.016C242.424 525.517 242.686 526.317 242.686 527.416V533H241.294V527.512C241.294 526.136 240.654 525.448 239.374 525.448C238.424 525.448 237.768 525.715 237.406 526.248C237.043 526.781 236.862 527.549 236.862 528.552V533H235.454V524.424H236.59L236.798 525.592H236.878C237.155 525.144 237.539 524.813 238.03 524.6C238.52 524.376 239.038 524.264 239.582 524.264ZM248.656 524.264C249.382 524.264 250.011 524.424 250.544 524.744C251.078 525.064 251.483 525.517 251.76 526.104C252.048 526.68 252.192 527.357 252.192 528.136V528.984H246.32C246.342 529.955 246.587 530.696 247.056 531.208C247.536 531.709 248.203 531.96 249.056 531.96C249.6 531.96 250.08 531.912 250.496 531.816C250.923 531.709 251.36 531.56 251.808 531.368V532.6C251.371 532.792 250.939 532.931 250.512 533.016C250.086 533.112 249.579 533.16 248.992 533.16C248.171 533.16 247.451 532.995 246.832 532.664C246.214 532.333 245.728 531.843 245.376 531.192C245.035 530.541 244.864 529.736 244.864 528.776C244.864 527.837 245.019 527.032 245.328 526.36C245.648 525.688 246.091 525.171 246.656 524.808C247.232 524.445 247.899 524.264 248.656 524.264ZM248.64 525.416C247.968 525.416 247.435 525.635 247.04 526.072C246.656 526.499 246.427 527.096 246.352 527.864H250.72C250.71 527.139 250.539 526.552 250.208 526.104C249.878 525.645 249.355 525.416 248.64 525.416ZM258.376 524.264C258.536 524.264 258.706 524.275 258.888 524.296C259.069 524.307 259.234 524.328 259.384 524.36L259.208 525.656C259.069 525.624 258.914 525.597 258.744 525.576C258.573 525.555 258.418 525.544 258.28 525.544C257.842 525.544 257.432 525.667 257.048 525.912C256.664 526.147 256.354 526.483 256.12 526.92C255.896 527.347 255.784 527.848 255.784 528.424V533H254.376V524.424H255.528L255.688 525.992H255.752C256.018 525.523 256.37 525.117 256.808 524.776C257.256 524.435 257.778 524.264 258.376 524.264ZM269.269 524.264C270.293 524.264 271.067 524.515 271.589 525.016C272.112 525.517 272.373 526.317 272.373 527.416V533H270.981V527.512C270.981 526.136 270.341 525.448 269.061 525.448C268.112 525.448 267.456 525.715 267.093 526.248C266.731 526.781 266.549 527.549 266.549 528.552V533H265.141V524.424H266.277L266.485 525.592H266.565C266.843 525.144 267.227 524.813 267.717 524.6C268.208 524.376 268.725 524.264 269.269 524.264ZM278.28 524.28C279.325 524.28 280.099 524.509 280.6 524.968C281.101 525.427 281.352 526.157 281.352 527.16V533H280.328L280.056 531.784H279.992C279.619 532.253 279.224 532.6 278.808 532.824C278.392 533.048 277.827 533.16 277.112 533.16C276.333 533.16 275.688 532.957 275.176 532.552C274.664 532.136 274.408 531.491 274.408 530.616C274.408 529.763 274.744 529.107 275.416 528.648C276.088 528.179 277.123 527.923 278.52 527.88L279.976 527.832V527.32C279.976 526.605 279.821 526.109 279.512 525.832C279.203 525.555 278.765 525.416 278.2 525.416C277.752 525.416 277.325 525.485 276.92 525.624C276.515 525.752 276.136 525.901 275.784 526.072L275.352 525.016C275.725 524.813 276.168 524.643 276.68 524.504C277.192 524.355 277.725 524.28 278.28 524.28ZM279.96 528.808L278.696 528.856C277.629 528.899 276.888 529.069 276.472 529.368C276.067 529.667 275.864 530.088 275.864 530.632C275.864 531.112 276.008 531.464 276.296 531.688C276.595 531.912 276.973 532.024 277.432 532.024C278.147 532.024 278.744 531.827 279.224 531.432C279.715 531.027 279.96 530.408 279.96 529.576V528.808ZM288.001 524.264C288.161 524.264 288.331 524.275 288.513 524.296C288.694 524.307 288.859 524.328 289.009 524.36L288.833 525.656C288.694 525.624 288.539 525.597 288.369 525.576C288.198 525.555 288.043 525.544 287.905 525.544C287.467 525.544 287.057 525.667 286.673 525.912C286.289 526.147 285.979 526.483 285.745 526.92C285.521 527.347 285.409 527.848 285.409 528.424V533H284.001V524.424H285.153L285.313 525.992H285.377C285.643 525.523 285.995 525.117 286.433 524.776C286.881 524.435 287.403 524.264 288.001 524.264ZM294.61 524.264C294.77 524.264 294.941 524.275 295.122 524.296C295.303 524.307 295.469 524.328 295.618 524.36L295.442 525.656C295.303 525.624 295.149 525.597 294.978 525.576C294.807 525.555 294.653 525.544 294.514 525.544C294.077 525.544 293.666 525.667 293.282 525.912C292.898 526.147 292.589 526.483 292.354 526.92C292.13 527.347 292.018 527.848 292.018 528.424V533H290.61V524.424H291.762L291.922 525.992H291.986C292.253 525.523 292.605 525.117 293.042 524.776C293.49 524.435 294.013 524.264 294.61 524.264ZM304.363 528.696C304.363 530.115 304 531.213 303.275 531.992C302.56 532.771 301.59 533.16 300.363 533.16C299.606 533.16 298.928 532.989 298.331 532.648C297.744 532.296 297.28 531.789 296.939 531.128C296.598 530.456 296.427 529.645 296.427 528.696C296.427 527.277 296.779 526.184 297.483 525.416C298.198 524.648 299.174 524.264 300.411 524.264C301.179 524.264 301.862 524.44 302.459 524.792C303.056 525.133 303.52 525.635 303.851 526.296C304.192 526.947 304.363 527.747 304.363 528.696ZM297.883 528.696C297.883 529.709 298.08 530.515 298.475 531.112C298.88 531.699 299.52 531.992 300.395 531.992C301.259 531.992 301.894 531.699 302.299 531.112C302.704 530.515 302.907 529.709 302.907 528.696C302.907 527.683 302.704 526.888 302.299 526.312C301.894 525.736 301.254 525.448 300.379 525.448C299.504 525.448 298.87 525.736 298.475 526.312C298.08 526.888 297.883 527.683 297.883 528.696ZM313.29 532.984L311.818 528.152C311.679 527.715 311.557 527.288 311.45 526.872C311.343 526.456 311.269 526.125 311.226 525.88H311.162C311.119 526.125 311.05 526.456 310.954 526.872C310.858 527.288 310.735 527.72 310.586 528.168L309.05 532.984H307.45L305.098 524.408H306.554L307.738 528.984C307.855 529.443 307.967 529.907 308.074 530.376C308.181 530.845 308.255 531.235 308.298 531.544H308.362C308.394 531.363 308.442 531.139 308.506 530.872C308.57 530.605 308.639 530.328 308.714 530.04C308.789 529.741 308.863 529.475 308.938 529.24L310.458 524.408H311.994L313.466 529.24C313.573 529.613 313.685 530.013 313.802 530.44C313.919 530.867 313.999 531.229 314.042 531.528H314.106C314.138 531.261 314.207 530.893 314.314 530.424C314.431 529.955 314.554 529.475 314.682 528.984L315.882 524.408H317.322L314.938 532.984H313.29ZM322.172 524.264C322.897 524.264 323.527 524.424 324.06 524.744C324.593 525.064 324.999 525.517 325.276 526.104C325.564 526.68 325.708 527.357 325.708 528.136V528.984H319.836C319.857 529.955 320.103 530.696 320.572 531.208C321.052 531.709 321.719 531.96 322.572 531.96C323.116 531.96 323.596 531.912 324.012 531.816C324.439 531.709 324.876 531.56 325.324 531.368V532.6C324.887 532.792 324.455 532.931 324.028 533.016C323.601 533.112 323.095 533.16 322.508 533.16C321.687 533.16 320.967 532.995 320.348 532.664C319.729 532.333 319.244 531.843 318.892 531.192C318.551 530.541 318.38 529.736 318.38 528.776C318.38 527.837 318.535 527.032 318.844 526.36C319.164 525.688 319.607 525.171 320.172 524.808C320.748 524.445 321.415 524.264 322.172 524.264ZM322.156 525.416C321.484 525.416 320.951 525.635 320.556 526.072C320.172 526.499 319.943 527.096 319.868 527.864H324.236C324.225 527.139 324.055 526.552 323.724 526.104C323.393 525.645 322.871 525.416 322.156 525.416ZM331.891 524.264C332.051 524.264 332.222 524.275 332.403 524.296C332.585 524.307 332.75 524.328 332.899 524.36L332.723 525.656C332.585 525.624 332.43 525.597 332.259 525.576C332.089 525.555 331.934 525.544 331.795 525.544C331.358 525.544 330.947 525.667 330.563 525.912C330.179 526.147 329.87 526.483 329.635 526.92C329.411 527.347 329.299 527.848 329.299 528.424V533H327.891V524.424H329.043L329.203 525.992H329.267C329.534 525.523 329.886 525.117 330.323 524.776C330.771 524.435 331.294 524.264 331.891 524.264ZM341.521 532.008C341.734 532.008 341.953 531.992 342.177 531.96C342.401 531.928 342.582 531.885 342.721 531.832V532.904C342.572 532.979 342.358 533.037 342.081 533.08C341.804 533.133 341.537 533.16 341.281 533.16C340.833 533.16 340.417 533.085 340.033 532.936C339.66 532.776 339.356 532.504 339.121 532.12C338.886 531.736 338.769 531.197 338.769 530.504V525.512H337.553V524.84L338.785 524.28L339.345 522.456H340.177V524.424H342.657V525.512H340.177V530.472C340.177 530.995 340.3 531.384 340.545 531.64C340.801 531.885 341.126 532.008 341.521 532.008ZM345.846 520.84V524.408C345.846 524.835 345.819 525.235 345.766 525.608H345.862C346.139 525.171 346.513 524.84 346.982 524.616C347.462 524.392 347.979 524.28 348.534 524.28C349.569 524.28 350.347 524.531 350.87 525.032C351.403 525.523 351.67 526.317 351.67 527.416V533H350.278V527.512C350.278 526.136 349.638 525.448 348.358 525.448C347.398 525.448 346.737 525.72 346.374 526.264C346.022 526.797 345.846 527.565 345.846 528.568V533H344.438V520.84H345.846ZM357.577 524.28C358.622 524.28 359.395 524.509 359.897 524.968C360.398 525.427 360.649 526.157 360.649 527.16V533H359.625L359.353 531.784H359.289C358.915 532.253 358.521 532.6 358.105 532.824C357.689 533.048 357.123 533.16 356.409 533.16C355.63 533.16 354.985 532.957 354.473 532.552C353.961 532.136 353.705 531.491 353.705 530.616C353.705 529.763 354.041 529.107 354.713 528.648C355.385 528.179 356.419 527.923 357.817 527.88L359.273 527.832V527.32C359.273 526.605 359.118 526.109 358.809 525.832C358.499 525.555 358.062 525.416 357.497 525.416C357.049 525.416 356.622 525.485 356.217 525.624C355.811 525.752 355.433 525.901 355.081 526.072L354.649 525.016C355.022 524.813 355.465 524.643 355.977 524.504C356.489 524.355 357.022 524.28 357.577 524.28ZM359.257 528.808L357.993 528.856C356.926 528.899 356.185 529.069 355.769 529.368C355.363 529.667 355.161 530.088 355.161 530.632C355.161 531.112 355.305 531.464 355.593 531.688C355.891 531.912 356.27 532.024 356.729 532.024C357.443 532.024 358.041 531.827 358.521 531.432C359.011 531.027 359.257 530.408 359.257 529.576V528.808ZM367.426 524.264C368.45 524.264 369.223 524.515 369.746 525.016C370.268 525.517 370.53 526.317 370.53 527.416V533H369.138V527.512C369.138 526.136 368.498 525.448 367.218 525.448C366.268 525.448 365.612 525.715 365.25 526.248C364.887 526.781 364.706 527.549 364.706 528.552V533H363.298V524.424H364.434L364.642 525.592H364.722C364.999 525.144 365.383 524.813 365.874 524.6C366.364 524.376 366.882 524.264 367.426 524.264ZM380.208 532.008C380.422 532.008 380.64 531.992 380.864 531.96C381.088 531.928 381.27 531.885 381.408 531.832V532.904C381.259 532.979 381.046 533.037 380.768 533.08C380.491 533.133 380.224 533.16 379.968 533.16C379.52 533.16 379.104 533.085 378.72 532.936C378.347 532.776 378.043 532.504 377.808 532.12C377.574 531.736 377.456 531.197 377.456 530.504V525.512H376.24V524.84L377.472 524.28L378.032 522.456H378.864V524.424H381.344V525.512H378.864V530.472C378.864 530.995 378.987 531.384 379.232 531.64C379.488 531.885 379.814 532.008 380.208 532.008ZM384.534 520.84V524.408C384.534 524.835 384.507 525.235 384.454 525.608H384.55C384.827 525.171 385.2 524.84 385.67 524.616C386.15 524.392 386.667 524.28 387.222 524.28C388.256 524.28 389.035 524.531 389.558 525.032C390.091 525.523 390.358 526.317 390.358 527.416V533H388.966V527.512C388.966 526.136 388.326 525.448 387.046 525.448C386.086 525.448 385.424 525.72 385.062 526.264C384.71 526.797 384.534 527.565 384.534 528.568V533H383.126V520.84H384.534ZM396.328 524.264C397.054 524.264 397.683 524.424 398.216 524.744C398.75 525.064 399.155 525.517 399.432 526.104C399.72 526.68 399.864 527.357 399.864 528.136V528.984H393.992C394.014 529.955 394.259 530.696 394.728 531.208C395.208 531.709 395.875 531.96 396.728 531.96C397.272 531.96 397.752 531.912 398.168 531.816C398.595 531.709 399.032 531.56 399.48 531.368V532.6C399.043 532.792 398.611 532.931 398.184 533.016C397.758 533.112 397.251 533.16 396.664 533.16C395.843 533.16 395.123 532.995 394.504 532.664C393.886 532.333 393.4 531.843 393.048 531.192C392.707 530.541 392.536 529.736 392.536 528.776C392.536 527.837 392.691 527.032 393 526.36C393.32 525.688 393.763 525.171 394.328 524.808C394.904 524.445 395.571 524.264 396.328 524.264ZM396.312 525.416C395.64 525.416 395.107 525.635 394.712 526.072C394.328 526.499 394.099 527.096 394.024 527.864H398.392C398.382 527.139 398.211 526.552 397.88 526.104C397.55 525.645 397.027 525.416 396.312 525.416ZM4.8 557.16C4.032 557.16 3.35467 557.005 2.768 556.696C2.18133 556.387 1.71733 555.907 1.376 555.256C1.04533 554.605 0.88 553.773 0.88 552.76C0.88 551.704 1.05067 550.845 1.392 550.184C1.744 549.523 2.224 549.037 2.832 548.728C3.44 548.419 4.128 548.264 4.896 548.264C5.32267 548.264 5.73867 548.312 6.144 548.408C6.56 548.493 6.896 548.6 7.152 548.728L6.72 549.896C6.464 549.8 6.16533 549.709 5.824 549.624C5.48267 549.539 5.16267 549.496 4.864 549.496C3.17867 549.496 2.336 550.579 2.336 552.744C2.336 553.779 2.53867 554.573 2.944 555.128C3.36 555.672 3.97333 555.944 4.784 555.944C5.24267 555.944 5.65333 555.896 6.016 555.8C6.37867 555.704 6.70933 555.587 7.008 555.448V556.696C6.72 556.845 6.4 556.957 6.048 557.032C5.70667 557.117 5.29067 557.16 4.8 557.16ZM16.5035 552.696C16.5035 554.115 16.1408 555.213 15.4155 555.992C14.7008 556.771 13.7302 557.16 12.5035 557.16C11.7462 557.16 11.0688 556.989 10.4715 556.648C9.88483 556.296 9.42083 555.789 9.0795 555.128C8.73817 554.456 8.5675 553.645 8.5675 552.696C8.5675 551.277 8.9195 550.184 9.6235 549.416C10.3382 548.648 11.3142 548.264 12.5515 548.264C13.3195 548.264 14.0022 548.44 14.5995 548.792C15.1968 549.133 15.6608 549.635 15.9915 550.296C16.3328 550.947 16.5035 551.747 16.5035 552.696ZM10.0235 552.696C10.0235 553.709 10.2208 554.515 10.6155 555.112C11.0208 555.699 11.6608 555.992 12.5355 555.992C13.3995 555.992 14.0342 555.699 14.4395 555.112C14.8448 554.515 15.0475 553.709 15.0475 552.696C15.0475 551.683 14.8448 550.888 14.4395 550.312C14.0342 549.736 13.3942 549.448 12.5195 549.448C11.6448 549.448 11.0102 549.736 10.6155 550.312C10.2208 550.888 10.0235 551.683 10.0235 552.696ZM22.863 548.264C23.887 548.264 24.6603 548.515 25.183 549.016C25.7057 549.517 25.967 550.317 25.967 551.416V557H24.575V551.512C24.575 550.136 23.935 549.448 22.655 549.448C21.7057 549.448 21.0497 549.715 20.687 550.248C20.3243 550.781 20.143 551.549 20.143 552.552V557H18.735V548.424H19.871L20.079 549.592H20.159C20.4363 549.144 20.8203 548.813 21.311 548.6C21.8017 548.376 22.319 548.264 22.863 548.264ZM31.4896 556.008C31.703 556.008 31.9216 555.992 32.1456 555.96C32.3696 555.928 32.551 555.885 32.6896 555.832V556.904C32.5403 556.979 32.327 557.037 32.0496 557.08C31.7723 557.133 31.5056 557.16 31.2496 557.16C30.8016 557.16 30.3856 557.085 30.0016 556.936C29.6283 556.776 29.3243 556.504 29.0896 556.12C28.855 555.736 28.7376 555.197 28.7376 554.504V549.512H27.5216V548.84L28.7536 548.28L29.3136 546.456H30.1456V548.424H32.6256V549.512H30.1456V554.472C30.1456 554.995 30.2683 555.384 30.5136 555.64C30.7696 555.885 31.095 556.008 31.4896 556.008ZM38.4069 548.264C38.5669 548.264 38.7375 548.275 38.9189 548.296C39.1002 548.307 39.2655 548.328 39.4149 548.36L39.2389 549.656C39.1002 549.624 38.9455 549.597 38.7749 549.576C38.6042 549.555 38.4495 549.544 38.3109 549.544C37.8735 549.544 37.4629 549.667 37.0789 549.912C36.6949 550.147 36.3855 550.483 36.1509 550.92C35.9269 551.347 35.8149 551.848 35.8149 552.424V557H34.4069V548.424H35.5589L35.7189 549.992H35.7829C36.0495 549.523 36.4015 549.117 36.8389 548.776C37.2869 548.435 37.8095 548.264 38.4069 548.264ZM48.1597 552.696C48.1597 554.115 47.7971 555.213 47.0718 555.992C46.3571 556.771 45.3864 557.16 44.1598 557.16C43.4024 557.16 42.7251 556.989 42.1278 556.648C41.5411 556.296 41.0771 555.789 40.7358 555.128C40.3944 554.456 40.2238 553.645 40.2238 552.696C40.2238 551.277 40.5758 550.184 41.2798 549.416C41.9944 548.648 42.9704 548.264 44.2078 548.264C44.9758 548.264 45.6584 548.44 46.2558 548.792C46.8531 549.133 47.3171 549.635 47.6478 550.296C47.9891 550.947 48.1597 551.747 48.1597 552.696ZM41.6798 552.696C41.6798 553.709 41.8771 554.515 42.2718 555.112C42.6771 555.699 43.3171 555.992 44.1918 555.992C45.0558 555.992 45.6904 555.699 46.0958 555.112C46.5011 554.515 46.7038 553.709 46.7038 552.696C46.7038 551.683 46.5011 550.888 46.0958 550.312C45.6904 549.736 45.0504 549.448 44.1758 549.448C43.3011 549.448 42.6664 549.736 42.2718 550.312C41.8771 550.888 41.6798 551.683 41.6798 552.696ZM51.7993 557H50.3913V544.84H51.7993V557ZM54.3083 556.136C54.3083 555.741 54.4043 555.464 54.5963 555.304C54.7883 555.144 55.0176 555.064 55.2843 555.064C55.5509 555.064 55.7856 555.144 55.9883 555.304C56.1909 555.464 56.2923 555.741 56.2923 556.136C56.2923 556.52 56.1909 556.797 55.9883 556.968C55.7856 557.139 55.5509 557.224 55.2843 557.224C55.0176 557.224 54.7883 557.139 54.5963 556.968C54.4043 556.797 54.3083 556.52 54.3083 556.136Z" fill="#242424"/>
<defs>
<filter id="filter0_d_7837_524712" x="85.833" y="148" width="208.333" height="262" filterUnits="userSpaceOnUse" color-interpolation-filters="sRGB">
<feFlood flood-opacity="0" result="BackgroundImageFix"/>
<feColorMatrix in="SourceAlpha" type="matrix" values="0 0 0 0 0 0 0 0 0 0 0 0 0 0 0 0 0 0 127 0" result="hardAlpha"/>
<feOffset dy="4"/>
<feGaussianBlur stdDeviation="2"/>
<feColorMatrix type="matrix" values="0 0 0 0 0 0 0 0 0 0 0 0 0 0 0 0 0 0 0.25 0"/>
<feBlend mode="normal" in2="BackgroundImageFix" result="effect1_dropShadow_7837_524712"/>
<feBlend mode="normal" in="SourceGraphic" in2="effect1_dropShadow_7837_524712" result="shape"/>
</filter>
</defs>
</svg>
