<svg width="904" height="328" viewBox="0 0 904 328" fill="none" xmlns="http://www.w3.org/2000/svg">
<rect width="904" height="328" fill="white"/>
<g filter="url(#filter0_d_6659_525551)">
<rect x="231" y="40" width="254" height="160" rx="4" fill="white"/>
<rect x="239.5" y="48.5" width="197" height="35" rx="1.5" fill="white"/>
<rect x="239.5" y="48.5" width="197" height="35" rx="1.5" stroke="#939393"/>
<path fill-rule="evenodd" clip-rule="evenodd" d="M457.375 58.62C457.755 58.8044 458.051 59.1102 458.24 59.3364C458.285 59.3913 458.346 59.4635 458.417 59.5485C458.866 60.085 459.743 61.1344 460.107 61.6199C460.459 62.0883 460.407 62.5955 460.21 63.0014C460.027 63.3788 459.707 63.7081 459.418 63.9612C459.13 64.2132 458.989 64.3502 458.918 64.4673C458.876 64.5371 458.854 64.5998 458.892 64.7523C458.939 64.9398 459.105 65.2922 459.404 65.7403C459.694 66.1758 460.084 66.6637 460.54 67.1191C460.995 67.5747 461.483 67.9642 461.908 68.245C462.121 68.3854 462.312 68.495 462.472 68.5716C462.639 68.6519 462.742 68.6817 462.786 68.6879C462.803 68.6904 462.821 68.6938 462.838 68.6981C462.99 68.7362 463.053 68.7145 463.123 68.672C463.24 68.6007 463.377 68.4607 463.629 68.1727C463.882 67.8834 464.211 67.563 464.589 67.38C464.991 67.1849 465.493 67.1324 465.958 67.4736C466.609 67.9097 467.855 68.95 468.328 69.3551C468.591 69.5803 468.898 69.8974 469.072 70.2923C469.259 70.7154 469.286 71.2196 468.983 71.7245C468.941 71.7935 468.897 71.8745 468.847 71.964C468.464 72.6597 467.794 73.8763 466.077 74.0948C464.137 74.4015 461.171 73.5952 457.615 69.9686C454.054 66.3383 453.262 63.3791 453.494 61.5218C453.705 59.8342 454.947 59.1927 455.646 58.8312C455.758 58.7734 455.857 58.7227 455.934 58.676C456.455 58.3639 456.968 58.4228 457.375 58.62ZM456.926 59.5455C456.767 59.4684 456.629 59.4587 456.463 59.558C456.328 59.6393 456.188 59.7146 456.048 59.79C455.352 60.1642 454.654 60.5394 454.515 61.6494C454.336 63.0835 454.915 65.7472 458.349 69.2484C461.781 72.7478 464.435 73.3159 465.923 73.0778C465.929 73.0768 465.935 73.076 465.941 73.0753C467.117 72.9283 467.536 72.1872 467.93 71.492C467.986 71.3915 468.043 71.2919 468.101 71.1953C468.209 71.0144 468.202 70.8672 468.131 70.7075C468.048 70.5195 467.876 70.3224 467.658 70.1361C467.174 69.7206 465.963 68.7132 465.376 68.3221C465.369 68.3168 465.361 68.3113 465.353 68.3056C465.273 68.2455 465.197 68.228 465.038 68.3055C464.849 68.3968 464.63 68.5907 464.403 68.85C464.175 69.1105 463.935 69.3819 463.658 69.5506C463.34 69.7441 462.999 69.793 462.613 69.7018C462.424 69.6704 462.22 69.5918 462.027 69.4989C461.816 69.3976 461.583 69.2629 461.341 69.1033C460.858 68.7842 460.317 68.3508 459.812 67.8464C459.308 67.3418 458.875 66.8011 458.548 66.3109C458.23 65.8332 457.984 65.3628 457.894 65.0018C457.795 64.6057 457.842 64.257 458.04 63.9325C458.208 63.6553 458.48 63.4151 458.74 63.1871C458.999 62.9603 459.193 62.741 459.285 62.5527C459.362 62.3928 459.345 62.3172 459.285 62.237C458.939 61.7768 458.089 60.7597 457.635 60.2168C457.561 60.1289 457.498 60.0535 457.45 59.9948C457.295 59.8096 457.111 59.6354 456.926 59.5455Z" fill="#1B77AF"/>
<rect width="254" height="36" transform="translate(231 92)" fill="#F1F1F1"/>
<path d="M246.028 112.326C246.028 113.213 245.706 113.903 245.062 114.398C244.418 114.893 243.55 115.14 242.458 115.14C241.898 115.14 241.38 115.098 240.904 115.014C240.428 114.93 240.031 114.813 239.714 114.664V113.46C240.05 113.609 240.465 113.745 240.96 113.866C241.464 113.987 241.982 114.048 242.514 114.048C243.251 114.048 243.811 113.903 244.194 113.614C244.577 113.325 244.768 112.933 244.768 112.438C244.768 112.111 244.698 111.836 244.558 111.612C244.418 111.388 244.175 111.183 243.83 110.996C243.485 110.809 243.013 110.604 242.416 110.38C241.557 110.072 240.913 109.694 240.484 109.246C240.055 108.798 239.84 108.187 239.84 107.412C239.84 106.889 239.975 106.437 240.246 106.054C240.517 105.671 240.89 105.377 241.366 105.172C241.842 104.967 242.397 104.864 243.032 104.864C243.573 104.864 244.073 104.915 244.53 105.018C244.987 105.121 245.407 105.256 245.79 105.424L245.398 106.502C245.053 106.353 244.675 106.227 244.264 106.124C243.853 106.021 243.433 105.97 243.004 105.97C242.379 105.97 241.907 106.105 241.59 106.376C241.273 106.637 241.114 106.987 241.114 107.426C241.114 107.762 241.184 108.042 241.324 108.266C241.464 108.49 241.693 108.695 242.01 108.882C242.327 109.059 242.757 109.246 243.298 109.442C243.886 109.657 244.381 109.89 244.782 110.142C245.193 110.385 245.501 110.679 245.706 111.024C245.921 111.369 246.028 111.803 246.028 112.326ZM250.772 107.356C251.406 107.356 251.957 107.496 252.424 107.776C252.89 108.056 253.245 108.453 253.488 108.966C253.74 109.47 253.866 110.063 253.866 110.744V111.486H248.728C248.746 112.335 248.961 112.984 249.372 113.432C249.792 113.871 250.375 114.09 251.122 114.09C251.598 114.09 252.018 114.048 252.382 113.964C252.755 113.871 253.138 113.74 253.53 113.572V114.65C253.147 114.818 252.769 114.939 252.396 115.014C252.022 115.098 251.579 115.14 251.066 115.14C250.347 115.14 249.717 114.995 249.176 114.706C248.634 114.417 248.21 113.987 247.902 113.418C247.603 112.849 247.454 112.144 247.454 111.304C247.454 110.483 247.589 109.778 247.86 109.19C248.14 108.602 248.527 108.149 249.022 107.832C249.526 107.515 250.109 107.356 250.772 107.356ZM250.758 108.364C250.17 108.364 249.703 108.555 249.358 108.938C249.022 109.311 248.821 109.834 248.756 110.506H252.578C252.568 109.871 252.419 109.358 252.13 108.966C251.84 108.565 251.383 108.364 250.758 108.364ZM259.276 107.356C259.416 107.356 259.565 107.365 259.724 107.384C259.883 107.393 260.027 107.412 260.158 107.44L260.004 108.574C259.883 108.546 259.747 108.523 259.598 108.504C259.449 108.485 259.313 108.476 259.192 108.476C258.809 108.476 258.45 108.583 258.114 108.798C257.778 109.003 257.507 109.297 257.302 109.68C257.106 110.053 257.008 110.492 257.008 110.996V115H255.776V107.496H256.784L256.924 108.868H256.98C257.213 108.457 257.521 108.103 257.904 107.804C258.296 107.505 258.753 107.356 259.276 107.356ZM263.211 115L260.369 107.496H261.685L263.281 111.92C263.356 112.125 263.435 112.354 263.519 112.606C263.603 112.858 263.678 113.101 263.743 113.334C263.808 113.567 263.855 113.759 263.883 113.908H263.939C263.967 113.759 264.018 113.567 264.093 113.334C264.168 113.091 264.247 112.849 264.331 112.606C264.415 112.354 264.494 112.125 264.569 111.92L266.165 107.496H267.481L264.625 115H263.211ZM269.299 104.682C269.485 104.682 269.649 104.747 269.789 104.878C269.938 104.999 270.013 105.195 270.013 105.466C270.013 105.737 269.938 105.937 269.789 106.068C269.649 106.189 269.485 106.25 269.299 106.25C269.093 106.25 268.921 106.189 268.781 106.068C268.641 105.937 268.571 105.737 268.571 105.466C268.571 105.195 268.641 104.999 268.781 104.878C268.921 104.747 269.093 104.682 269.299 104.682ZM269.901 107.496V115H268.669V107.496H269.901ZM275.288 115.14C274.616 115.14 274.023 115.005 273.51 114.734C272.997 114.463 272.591 114.043 272.292 113.474C272.003 112.905 271.858 112.177 271.858 111.29C271.858 110.366 272.007 109.615 272.306 109.036C272.614 108.457 273.034 108.033 273.566 107.762C274.098 107.491 274.7 107.356 275.372 107.356C275.745 107.356 276.109 107.398 276.464 107.482C276.828 107.557 277.122 107.65 277.346 107.762L276.968 108.784C276.744 108.7 276.483 108.621 276.184 108.546C275.885 108.471 275.605 108.434 275.344 108.434C273.869 108.434 273.132 109.381 273.132 111.276C273.132 112.181 273.309 112.877 273.664 113.362C274.028 113.838 274.565 114.076 275.274 114.076C275.675 114.076 276.035 114.034 276.352 113.95C276.669 113.866 276.959 113.763 277.22 113.642V114.734C276.968 114.865 276.688 114.963 276.38 115.028C276.081 115.103 275.717 115.14 275.288 115.14ZM281.902 107.356C282.537 107.356 283.088 107.496 283.554 107.776C284.021 108.056 284.376 108.453 284.618 108.966C284.87 109.47 284.996 110.063 284.996 110.744V111.486H279.858C279.877 112.335 280.092 112.984 280.502 113.432C280.922 113.871 281.506 114.09 282.252 114.09C282.728 114.09 283.148 114.048 283.512 113.964C283.886 113.871 284.268 113.74 284.66 113.572V114.65C284.278 114.818 283.9 114.939 283.526 115.014C283.153 115.098 282.71 115.14 282.196 115.14C281.478 115.14 280.848 114.995 280.306 114.706C279.765 114.417 279.34 113.987 279.032 113.418C278.734 112.849 278.584 112.144 278.584 111.304C278.584 110.483 278.72 109.778 278.99 109.19C279.27 108.602 279.658 108.149 280.152 107.832C280.656 107.515 281.24 107.356 281.902 107.356ZM281.888 108.364C281.3 108.364 280.834 108.555 280.488 108.938C280.152 109.311 279.952 109.834 279.886 110.506H283.708C283.699 109.871 283.55 109.358 283.26 108.966C282.971 108.565 282.514 108.364 281.888 108.364ZM291.793 112.928C291.793 113.656 291.522 114.207 290.981 114.58C290.439 114.953 289.711 115.14 288.797 115.14C288.274 115.14 287.821 115.098 287.439 115.014C287.065 114.93 286.734 114.813 286.445 114.664V113.544C286.743 113.693 287.103 113.833 287.523 113.964C287.952 114.085 288.386 114.146 288.825 114.146C289.45 114.146 289.903 114.048 290.183 113.852C290.463 113.647 290.603 113.376 290.603 113.04C290.603 112.853 290.551 112.685 290.449 112.536C290.346 112.387 290.159 112.237 289.889 112.088C289.627 111.939 289.249 111.771 288.755 111.584C288.269 111.397 287.854 111.211 287.509 111.024C287.163 110.837 286.897 110.613 286.711 110.352C286.524 110.091 286.431 109.755 286.431 109.344C286.431 108.709 286.687 108.219 287.201 107.874C287.723 107.529 288.405 107.356 289.245 107.356C289.702 107.356 290.127 107.403 290.519 107.496C290.92 107.589 291.293 107.711 291.639 107.86L291.219 108.84C290.901 108.709 290.57 108.597 290.225 108.504C289.879 108.411 289.525 108.364 289.161 108.364C288.657 108.364 288.269 108.448 287.999 108.616C287.737 108.775 287.607 108.994 287.607 109.274C287.607 109.489 287.667 109.666 287.789 109.806C287.91 109.946 288.111 110.086 288.391 110.226C288.68 110.366 289.063 110.525 289.539 110.702C290.015 110.879 290.421 111.061 290.757 111.248C291.093 111.435 291.349 111.663 291.527 111.934C291.704 112.195 291.793 112.527 291.793 112.928Z" fill="black"/>
<path d="M466.412 115.962C466.312 115.962 466.212 115.913 466.162 115.863C466.013 115.713 466.013 115.462 466.162 115.312L471.462 110.012L466.112 104.662C465.963 104.512 465.963 104.263 466.112 104.113C466.262 103.962 466.512 103.962 466.662 104.113L472.262 109.712C472.312 109.762 472.362 109.862 472.362 109.962C472.362 110.062 472.312 110.162 472.262 110.212L466.662 115.863C466.562 115.963 466.463 115.962 466.412 115.962Z" fill="black"/>
<path d="M247.96 141.004V147.472C247.96 148.163 247.82 148.788 247.54 149.348C247.26 149.899 246.831 150.337 246.252 150.664C245.673 150.981 244.945 151.14 244.068 151.14C242.817 151.14 241.87 150.804 241.226 150.132C240.582 149.451 240.26 148.555 240.26 147.444V141.004H241.52V147.486C241.52 148.298 241.735 148.928 242.164 149.376C242.603 149.824 243.261 150.048 244.138 150.048C245.043 150.048 245.697 149.81 246.098 149.334C246.509 148.849 246.714 148.228 246.714 147.472V141.004H247.96ZM255.316 148.928C255.316 149.656 255.046 150.207 254.504 150.58C253.963 150.953 253.235 151.14 252.32 151.14C251.798 151.14 251.345 151.098 250.962 151.014C250.589 150.93 250.258 150.813 249.968 150.664V149.544C250.267 149.693 250.626 149.833 251.046 149.964C251.476 150.085 251.91 150.146 252.348 150.146C252.974 150.146 253.426 150.048 253.706 149.852C253.986 149.647 254.126 149.376 254.126 149.04C254.126 148.853 254.075 148.685 253.972 148.536C253.87 148.387 253.683 148.237 253.412 148.088C253.151 147.939 252.773 147.771 252.278 147.584C251.793 147.397 251.378 147.211 251.032 147.024C250.687 146.837 250.421 146.613 250.234 146.352C250.048 146.091 249.954 145.755 249.954 145.344C249.954 144.709 250.211 144.219 250.724 143.874C251.247 143.529 251.928 143.356 252.768 143.356C253.226 143.356 253.65 143.403 254.042 143.496C254.444 143.589 254.817 143.711 255.162 143.86L254.742 144.84C254.425 144.709 254.094 144.597 253.748 144.504C253.403 144.411 253.048 144.364 252.684 144.364C252.18 144.364 251.793 144.448 251.522 144.616C251.261 144.775 251.13 144.994 251.13 145.274C251.13 145.489 251.191 145.666 251.312 145.806C251.434 145.946 251.634 146.086 251.914 146.226C252.204 146.366 252.586 146.525 253.062 146.702C253.538 146.879 253.944 147.061 254.28 147.248C254.616 147.435 254.873 147.663 255.05 147.934C255.228 148.195 255.316 148.527 255.316 148.928ZM260.027 143.356C260.662 143.356 261.213 143.496 261.679 143.776C262.146 144.056 262.501 144.453 262.743 144.966C262.995 145.47 263.121 146.063 263.121 146.744V147.486H257.983C258.002 148.335 258.217 148.984 258.627 149.432C259.047 149.871 259.631 150.09 260.377 150.09C260.853 150.09 261.273 150.048 261.637 149.964C262.011 149.871 262.393 149.74 262.785 149.572V150.65C262.403 150.818 262.025 150.939 261.651 151.014C261.278 151.098 260.835 151.14 260.321 151.14C259.603 151.14 258.973 150.995 258.431 150.706C257.89 150.417 257.465 149.987 257.157 149.418C256.859 148.849 256.709 148.144 256.709 147.304C256.709 146.483 256.845 145.778 257.115 145.19C257.395 144.602 257.783 144.149 258.277 143.832C258.781 143.515 259.365 143.356 260.027 143.356ZM260.013 144.364C259.425 144.364 258.959 144.555 258.613 144.938C258.277 145.311 258.077 145.834 258.011 146.506H261.833C261.824 145.871 261.675 145.358 261.385 144.966C261.096 144.565 260.639 144.364 260.013 144.364ZM268.532 143.356C268.672 143.356 268.821 143.365 268.98 143.384C269.138 143.393 269.283 143.412 269.414 143.44L269.26 144.574C269.138 144.546 269.003 144.523 268.854 144.504C268.704 144.485 268.569 144.476 268.448 144.476C268.065 144.476 267.706 144.583 267.37 144.798C267.034 145.003 266.763 145.297 266.558 145.68C266.362 146.053 266.264 146.492 266.264 146.996V151H265.032V143.496H266.04L266.18 144.868H266.236C266.469 144.457 266.777 144.103 267.16 143.804C267.552 143.505 268.009 143.356 268.532 143.356ZM275.701 148.928C275.701 149.656 275.43 150.207 274.889 150.58C274.348 150.953 273.62 151.14 272.705 151.14C272.182 151.14 271.73 151.098 271.347 151.014C270.974 150.93 270.642 150.813 270.353 150.664V149.544C270.652 149.693 271.011 149.833 271.431 149.964C271.86 150.085 272.294 150.146 272.733 150.146C273.358 150.146 273.811 150.048 274.091 149.852C274.371 149.647 274.511 149.376 274.511 149.04C274.511 148.853 274.46 148.685 274.357 148.536C274.254 148.387 274.068 148.237 273.797 148.088C273.536 147.939 273.158 147.771 272.663 147.584C272.178 147.397 271.762 147.211 271.417 147.024C271.072 146.837 270.806 146.613 270.619 146.352C270.432 146.091 270.339 145.755 270.339 145.344C270.339 144.709 270.596 144.219 271.109 143.874C271.632 143.529 272.313 143.356 273.153 143.356C273.61 143.356 274.035 143.403 274.427 143.496C274.828 143.589 275.202 143.711 275.547 143.86L275.127 144.84C274.81 144.709 274.478 144.597 274.133 144.504C273.788 144.411 273.433 144.364 273.069 144.364C272.565 144.364 272.178 144.448 271.907 144.616C271.646 144.775 271.515 144.994 271.515 145.274C271.515 145.489 271.576 145.666 271.697 145.806C271.818 145.946 272.019 146.086 272.299 146.226C272.588 146.366 272.971 146.525 273.447 146.702C273.923 146.879 274.329 147.061 274.665 147.248C275.001 147.435 275.258 147.663 275.435 147.934C275.612 148.195 275.701 148.527 275.701 148.928Z" fill="black"/>
<path d="M466.412 151.962C466.312 151.962 466.212 151.913 466.162 151.863C466.013 151.713 466.013 151.462 466.162 151.312L471.462 146.012L466.112 140.662C465.963 140.512 465.963 140.263 466.112 140.113C466.262 139.962 466.512 139.962 466.662 140.113L472.262 145.712C472.312 145.762 472.362 145.862 472.362 145.962C472.362 146.062 472.312 146.162 472.262 146.212L466.662 151.863C466.562 151.963 466.463 151.962 466.412 151.962Z" fill="black"/>
<path d="M243.522 187H242.262V178.11H239.14V177.004H246.63V178.11H243.522V187ZM249.883 179.356C250.518 179.356 251.068 179.496 251.535 179.776C252.002 180.056 252.356 180.453 252.599 180.966C252.851 181.47 252.977 182.063 252.977 182.744V183.486H247.839C247.858 184.335 248.072 184.984 248.483 185.432C248.903 185.871 249.486 186.09 250.233 186.09C250.709 186.09 251.129 186.048 251.493 185.964C251.866 185.871 252.249 185.74 252.641 185.572V186.65C252.258 186.818 251.88 186.939 251.507 187.014C251.134 187.098 250.69 187.14 250.177 187.14C249.458 187.14 248.828 186.995 248.287 186.706C247.746 186.417 247.321 185.987 247.013 185.418C246.714 184.849 246.565 184.144 246.565 183.304C246.565 182.483 246.7 181.778 246.971 181.19C247.251 180.602 247.638 180.149 248.133 179.832C248.637 179.515 249.22 179.356 249.883 179.356ZM249.869 180.364C249.281 180.364 248.814 180.555 248.469 180.938C248.133 181.311 247.932 181.834 247.867 182.506H251.689C251.68 181.871 251.53 181.358 251.241 180.966C250.952 180.565 250.494 180.364 249.869 180.364ZM257.729 179.37C258.644 179.37 259.321 179.571 259.759 179.972C260.198 180.373 260.417 181.013 260.417 181.89V187H259.521L259.283 185.936H259.227C258.901 186.347 258.555 186.65 258.191 186.846C257.827 187.042 257.333 187.14 256.707 187.14C256.026 187.14 255.461 186.963 255.013 186.608C254.565 186.244 254.341 185.679 254.341 184.914C254.341 184.167 254.635 183.593 255.223 183.192C255.811 182.781 256.717 182.557 257.939 182.52L259.213 182.478V182.03C259.213 181.405 259.078 180.971 258.807 180.728C258.537 180.485 258.154 180.364 257.659 180.364C257.267 180.364 256.894 180.425 256.539 180.546C256.185 180.658 255.853 180.789 255.545 180.938L255.167 180.014C255.494 179.837 255.881 179.687 256.329 179.566C256.777 179.435 257.244 179.37 257.729 179.37ZM259.199 183.332L258.093 183.374C257.16 183.411 256.511 183.561 256.147 183.822C255.793 184.083 255.615 184.452 255.615 184.928C255.615 185.348 255.741 185.656 255.993 185.852C256.255 186.048 256.586 186.146 256.987 186.146C257.613 186.146 258.135 185.973 258.555 185.628C258.985 185.273 259.199 184.732 259.199 184.004V183.332ZM270.967 179.356C271.816 179.356 272.451 179.575 272.871 180.014C273.291 180.453 273.501 181.153 273.501 182.114V187H272.283V182.17C272.283 180.985 271.774 180.392 270.757 180.392C270.029 180.392 269.506 180.602 269.189 181.022C268.881 181.442 268.727 182.053 268.727 182.856V187H267.509V182.17C267.509 180.985 266.996 180.392 265.969 180.392C265.213 180.392 264.69 180.625 264.401 181.092C264.112 181.559 263.967 182.231 263.967 183.108V187H262.735V179.496H263.729L263.911 180.518H263.981C264.214 180.126 264.527 179.837 264.919 179.65C265.32 179.454 265.745 179.356 266.193 179.356C267.369 179.356 268.134 179.776 268.489 180.616H268.559C268.811 180.187 269.152 179.869 269.581 179.664C270.01 179.459 270.472 179.356 270.967 179.356Z" fill="black"/>
<path d="M466.412 187.962C466.312 187.962 466.212 187.913 466.162 187.863C466.013 187.713 466.013 187.462 466.162 187.312L471.462 182.012L466.112 176.662C465.963 176.512 465.963 176.263 466.112 176.113C466.262 175.962 466.512 175.962 466.662 176.113L472.262 181.712C472.312 181.762 472.362 181.862 472.362 181.962C472.362 182.062 472.312 182.162 472.262 182.212L466.662 187.863C466.562 187.963 466.463 187.962 466.412 187.962Z" fill="black"/>
<rect x="230.5" y="39.5" width="255" height="161" rx="4.5" stroke="black" stroke-opacity="0.15"/>
</g>
<g filter="url(#filter1_d_6659_525551)">
<rect x="486" y="92" width="187" height="196" rx="4" fill="white"/>
<rect x="494.5" y="100.5" width="170" height="35" rx="1.5" fill="white"/>
<path fill-rule="evenodd" clip-rule="evenodd" d="M512.62 111.749C509.93 111.749 507.749 113.93 507.749 116.62C507.749 119.31 509.93 121.491 512.62 121.491C515.31 121.491 517.491 119.31 517.491 116.62C517.491 113.93 515.31 111.749 512.62 111.749ZM507 116.62C507 113.516 509.516 111 512.62 111C515.724 111 518.24 113.516 518.24 116.62C518.24 119.724 515.724 122.24 512.62 122.24C509.516 122.24 507 119.724 507 116.62Z" fill="#323232"/>
<path fill-rule="evenodd" clip-rule="evenodd" d="M516.302 120.302C516.448 120.155 516.685 120.155 516.831 120.302L518.68 122.15C518.826 122.296 518.826 122.533 518.68 122.68C518.533 122.826 518.296 122.826 518.15 122.68L516.302 120.831C516.155 120.685 516.155 120.448 516.302 120.302Z" fill="#323232"/>
<path fill-rule="evenodd" clip-rule="evenodd" d="M519.449 122.73C519.245 122.526 518.933 122.526 518.73 122.73C518.526 122.933 518.526 123.245 518.73 123.449L519.379 124.098C519.386 124.105 519.392 124.112 519.399 124.119C519.538 124.282 519.882 124.314 520.098 124.098C520.302 123.895 520.302 123.582 520.098 123.379L519.449 122.73ZM518.2 122.2C518.696 121.704 519.483 121.704 519.979 122.2L520.628 122.849C521.124 123.345 521.124 124.132 520.628 124.628C520.148 125.108 519.302 125.143 518.84 124.619L518.2 123.979C517.704 123.483 517.704 122.696 518.2 122.2Z" fill="#323232"/>
<path d="M532.59 123.14C532.105 123.14 531.675 123.103 531.302 123.028C530.938 122.953 530.593 122.841 530.266 122.692V121.46C530.546 121.609 530.877 121.745 531.26 121.866C531.652 121.987 532.1 122.048 532.604 122.048C533.024 122.048 533.411 121.983 533.766 121.852C534.121 121.721 534.405 121.521 534.62 121.25C534.835 120.979 534.942 120.629 534.942 120.2C534.942 119.827 534.816 119.509 534.564 119.248C534.321 118.977 533.897 118.669 533.29 118.324C532.935 118.119 532.618 117.899 532.338 117.666C532.067 117.433 531.853 117.167 531.694 116.868C531.545 116.569 531.47 116.201 531.47 115.762C531.47 115.146 531.619 114.623 531.918 114.194C532.217 113.755 532.613 113.424 533.108 113.2C533.612 112.976 534.163 112.864 534.76 112.864C535.283 112.864 535.74 112.915 536.132 113.018C536.533 113.121 536.911 113.265 537.266 113.452L536.79 114.516C536.547 114.385 536.244 114.264 535.88 114.152C535.516 114.031 535.143 113.97 534.76 113.97C534.181 113.97 533.71 114.119 533.346 114.418C532.982 114.717 532.8 115.137 532.8 115.678C532.8 115.967 532.851 116.205 532.954 116.392C533.057 116.579 533.215 116.751 533.43 116.91C533.645 117.069 533.911 117.241 534.228 117.428C534.629 117.671 534.979 117.909 535.278 118.142C535.586 118.375 535.824 118.646 535.992 118.954C536.169 119.262 536.258 119.645 536.258 120.102C536.258 121.101 535.922 121.857 535.25 122.37C534.587 122.883 533.701 123.14 532.59 123.14ZM540.456 123.14C539.588 123.14 538.916 122.888 538.44 122.384C537.974 121.871 537.74 121.18 537.74 120.312C537.74 119.715 537.824 119.127 537.992 118.548C538.17 117.96 538.422 117.428 538.748 116.952C539.075 116.467 539.467 116.079 539.924 115.79C540.391 115.501 540.914 115.356 541.492 115.356C542.202 115.356 542.734 115.51 543.088 115.818C543.452 116.126 543.634 116.555 543.634 117.106C543.634 117.601 543.48 118.049 543.172 118.45C542.874 118.842 542.402 119.159 541.758 119.402C541.114 119.635 540.279 119.752 539.252 119.752H539.014C539.005 119.836 538.996 119.925 538.986 120.018C538.986 120.111 538.986 120.195 538.986 120.27C538.986 120.839 539.122 121.292 539.392 121.628C539.672 121.955 540.102 122.118 540.68 122.118C541.035 122.118 541.371 122.071 541.688 121.978C542.006 121.875 542.351 121.731 542.724 121.544V122.594C542.37 122.753 542.02 122.883 541.674 122.986C541.338 123.089 540.932 123.14 540.456 123.14ZM539.196 118.758H539.294C539.854 118.758 540.372 118.711 540.848 118.618C541.324 118.515 541.707 118.352 541.996 118.128C542.286 117.895 542.43 117.587 542.43 117.204C542.43 116.961 542.346 116.765 542.178 116.616C542.02 116.457 541.768 116.378 541.422 116.378C540.974 116.378 540.54 116.588 540.12 117.008C539.71 117.419 539.402 118.002 539.196 118.758ZM546.757 123.14C546.15 123.14 545.66 122.925 545.287 122.496C544.913 122.057 544.727 121.418 544.727 120.578C544.727 119.878 544.815 119.215 544.993 118.59C545.179 117.955 545.436 117.4 545.763 116.924C546.089 116.439 546.477 116.056 546.925 115.776C547.373 115.496 547.867 115.356 548.409 115.356C548.903 115.356 549.305 115.487 549.613 115.748C549.921 116.009 550.149 116.313 550.299 116.658H550.369L550.817 115.496H551.755L550.159 123H549.179L549.361 121.614H549.305C548.978 122.025 548.6 122.384 548.171 122.692C547.751 122.991 547.279 123.14 546.757 123.14ZM547.163 122.118C547.499 122.118 547.835 121.992 548.171 121.74C548.507 121.488 548.805 121.152 549.067 120.732C549.337 120.303 549.547 119.817 549.697 119.276C549.762 119.015 549.809 118.767 549.837 118.534C549.865 118.301 549.879 118.086 549.879 117.89C549.879 117.451 549.757 117.092 549.515 116.812C549.272 116.532 548.945 116.392 548.535 116.392C548.171 116.392 547.835 116.509 547.527 116.742C547.219 116.966 546.948 117.279 546.715 117.68C546.481 118.072 546.299 118.52 546.169 119.024C546.047 119.528 545.987 120.055 545.987 120.606C545.987 121.11 546.089 121.488 546.295 121.74C546.5 121.992 546.789 122.118 547.163 122.118ZM552.404 123L554 115.496H555.008L554.854 116.882H554.924C555.12 116.63 555.325 116.387 555.54 116.154C555.754 115.921 555.997 115.729 556.268 115.58C556.538 115.431 556.851 115.356 557.206 115.356C557.336 115.356 557.472 115.365 557.612 115.384C557.761 115.393 557.896 115.417 558.018 115.454L557.752 116.56C557.5 116.504 557.262 116.476 557.038 116.476C556.571 116.476 556.156 116.63 555.792 116.938C555.428 117.246 555.124 117.638 554.882 118.114C554.639 118.59 554.466 119.075 554.364 119.57L553.636 123H552.404ZM560.774 123.14C559.944 123.14 559.272 122.907 558.758 122.44C558.245 121.973 557.988 121.273 557.988 120.34C557.988 119.668 558.077 119.033 558.254 118.436C558.441 117.829 558.702 117.297 559.038 116.84C559.384 116.383 559.799 116.023 560.284 115.762C560.77 115.491 561.311 115.356 561.908 115.356C562.235 115.356 562.557 115.389 562.874 115.454C563.201 115.519 563.5 115.608 563.77 115.72L563.42 116.742C563.234 116.658 563.01 116.579 562.748 116.504C562.496 116.429 562.221 116.392 561.922 116.392C561.39 116.392 560.924 116.574 560.522 116.938C560.121 117.293 559.808 117.769 559.584 118.366C559.36 118.963 559.248 119.617 559.248 120.326C559.248 120.895 559.393 121.339 559.682 121.656C559.972 121.964 560.378 122.118 560.9 122.118C561.227 122.118 561.535 122.076 561.824 121.992C562.123 121.899 562.417 121.787 562.706 121.656V122.692C562.445 122.823 562.151 122.93 561.824 123.014C561.507 123.098 561.157 123.14 560.774 123.14ZM564.052 123L566.306 112.36H567.538L566.936 115.118C566.88 115.398 566.81 115.692 566.726 116C566.642 116.299 566.563 116.597 566.488 116.896H566.558C566.735 116.663 566.945 116.429 567.188 116.196C567.431 115.963 567.706 115.767 568.014 115.608C568.331 115.449 568.691 115.37 569.092 115.37C569.671 115.37 570.128 115.533 570.464 115.86C570.809 116.177 570.982 116.653 570.982 117.288C570.982 117.475 570.963 117.661 570.926 117.848C570.898 118.035 570.865 118.231 570.828 118.436L569.848 123H568.616L569.61 118.296C569.694 117.876 569.736 117.568 569.736 117.372C569.736 117.064 569.657 116.826 569.498 116.658C569.349 116.481 569.101 116.392 568.756 116.392C568.439 116.392 568.093 116.504 567.72 116.728C567.356 116.943 567.015 117.297 566.698 117.792C566.39 118.287 566.147 118.945 565.97 119.766L565.284 123H564.052Z" fill="#757474"/>
<rect x="494.5" y="100.5" width="170" height="35" rx="1.5" stroke="#939393"/>
<path d="M499.642 157.97C498.569 157.97 497.724 158.329 497.108 159.048C496.492 159.767 496.184 160.751 496.184 162.002C496.184 163.243 496.469 164.228 497.038 164.956C497.617 165.675 498.48 166.034 499.628 166.034C500.057 166.034 500.468 165.997 500.86 165.922C501.252 165.847 501.639 165.754 502.022 165.642V166.734C501.649 166.874 501.261 166.977 500.86 167.042C500.468 167.107 499.997 167.14 499.446 167.14C498.429 167.14 497.579 166.93 496.898 166.51C496.217 166.09 495.703 165.493 495.358 164.718C495.022 163.943 494.854 163.033 494.854 161.988C494.854 160.98 495.036 160.093 495.4 159.328C495.773 158.553 496.319 157.951 497.038 157.522C497.757 157.083 498.629 156.864 499.656 156.864C500.711 156.864 501.63 157.06 502.414 157.452L501.91 158.516C501.602 158.376 501.257 158.25 500.874 158.138C500.501 158.026 500.09 157.97 499.642 157.97ZM510.308 159.496V167H509.3L509.118 166.006H509.062C508.819 166.398 508.483 166.687 508.054 166.874C507.624 167.051 507.167 167.14 506.682 167.14C505.776 167.14 505.095 166.925 504.638 166.496C504.18 166.057 503.952 165.362 503.952 164.41V159.496H505.198V164.326C505.198 165.521 505.753 166.118 506.864 166.118C507.694 166.118 508.268 165.885 508.586 165.418C508.912 164.951 509.076 164.279 509.076 163.402V159.496H510.308ZM517.576 164.928C517.576 165.656 517.305 166.207 516.764 166.58C516.223 166.953 515.495 167.14 514.58 167.14C514.057 167.14 513.605 167.098 513.222 167.014C512.849 166.93 512.517 166.813 512.228 166.664V165.544C512.527 165.693 512.886 165.833 513.306 165.964C513.735 166.085 514.169 166.146 514.608 166.146C515.233 166.146 515.686 166.048 515.966 165.852C516.246 165.647 516.386 165.376 516.386 165.04C516.386 164.853 516.335 164.685 516.232 164.536C516.129 164.387 515.943 164.237 515.672 164.088C515.411 163.939 515.033 163.771 514.538 163.584C514.053 163.397 513.637 163.211 513.292 163.024C512.947 162.837 512.681 162.613 512.494 162.352C512.307 162.091 512.214 161.755 512.214 161.344C512.214 160.709 512.471 160.219 512.984 159.874C513.507 159.529 514.188 159.356 515.028 159.356C515.485 159.356 515.91 159.403 516.302 159.496C516.703 159.589 517.077 159.711 517.422 159.86L517.002 160.84C516.685 160.709 516.353 160.597 516.008 160.504C515.663 160.411 515.308 160.364 514.944 160.364C514.44 160.364 514.053 160.448 513.782 160.616C513.521 160.775 513.39 160.994 513.39 161.274C513.39 161.489 513.451 161.666 513.572 161.806C513.693 161.946 513.894 162.086 514.174 162.226C514.463 162.366 514.846 162.525 515.322 162.702C515.798 162.879 516.204 163.061 516.54 163.248C516.876 163.435 517.133 163.663 517.31 163.934C517.487 164.195 517.576 164.527 517.576 164.928ZM521.895 166.132C522.082 166.132 522.273 166.118 522.469 166.09C522.665 166.062 522.824 166.025 522.945 165.978V166.916C522.815 166.981 522.628 167.033 522.385 167.07C522.143 167.117 521.909 167.14 521.685 167.14C521.293 167.14 520.929 167.075 520.593 166.944C520.267 166.804 520.001 166.566 519.795 166.23C519.59 165.894 519.487 165.423 519.487 164.816V160.448H518.423V159.86L519.501 159.37L519.991 157.774H520.719V159.496H522.889V160.448H520.719V164.788C520.719 165.245 520.827 165.586 521.041 165.81C521.265 166.025 521.55 166.132 521.895 166.132ZM530.972 163.234C530.972 164.475 530.654 165.437 530.02 166.118C529.394 166.799 528.545 167.14 527.472 167.14C526.809 167.14 526.216 166.991 525.694 166.692C525.18 166.384 524.774 165.941 524.476 165.362C524.177 164.774 524.028 164.065 524.028 163.234C524.028 161.993 524.336 161.036 524.952 160.364C525.577 159.692 526.431 159.356 527.514 159.356C528.186 159.356 528.783 159.51 529.306 159.818C529.828 160.117 530.234 160.555 530.524 161.134C530.822 161.703 530.972 162.403 530.972 163.234ZM525.302 163.234C525.302 164.121 525.474 164.825 525.82 165.348C526.174 165.861 526.734 166.118 527.5 166.118C528.256 166.118 528.811 165.861 529.166 165.348C529.52 164.825 529.698 164.121 529.698 163.234C529.698 162.347 529.52 161.652 529.166 161.148C528.811 160.644 528.251 160.392 527.486 160.392C526.72 160.392 526.165 160.644 525.82 161.148C525.474 161.652 525.302 162.347 525.302 163.234ZM541.156 159.356C542.006 159.356 542.64 159.575 543.06 160.014C543.48 160.453 543.69 161.153 543.69 162.114V167H542.472V162.17C542.472 160.985 541.964 160.392 540.946 160.392C540.218 160.392 539.696 160.602 539.378 161.022C539.07 161.442 538.916 162.053 538.916 162.856V167H537.698V162.17C537.698 160.985 537.185 160.392 536.158 160.392C535.402 160.392 534.88 160.625 534.59 161.092C534.301 161.559 534.156 162.231 534.156 163.108V167H532.924V159.496H533.918L534.1 160.518H534.17C534.404 160.126 534.716 159.837 535.108 159.65C535.51 159.454 535.934 159.356 536.382 159.356C537.558 159.356 538.324 159.776 538.678 160.616H538.748C539 160.187 539.341 159.869 539.77 159.664C540.2 159.459 540.662 159.356 541.156 159.356ZM548.906 159.356C549.541 159.356 550.092 159.496 550.558 159.776C551.025 160.056 551.38 160.453 551.622 160.966C551.874 161.47 552 162.063 552 162.744V163.486H546.862C546.881 164.335 547.096 164.984 547.506 165.432C547.926 165.871 548.51 166.09 549.256 166.09C549.732 166.09 550.152 166.048 550.516 165.964C550.89 165.871 551.272 165.74 551.664 165.572V166.65C551.282 166.818 550.904 166.939 550.53 167.014C550.157 167.098 549.714 167.14 549.2 167.14C548.482 167.14 547.852 166.995 547.31 166.706C546.769 166.417 546.344 165.987 546.036 165.418C545.738 164.849 545.588 164.144 545.588 163.304C545.588 162.483 545.724 161.778 545.994 161.19C546.274 160.602 546.662 160.149 547.156 159.832C547.66 159.515 548.244 159.356 548.906 159.356ZM548.892 160.364C548.304 160.364 547.838 160.555 547.492 160.938C547.156 161.311 546.956 161.834 546.89 162.506H550.712C550.703 161.871 550.554 161.358 550.264 160.966C549.975 160.565 549.518 160.364 548.892 160.364ZM557.411 159.356C557.551 159.356 557.7 159.365 557.859 159.384C558.017 159.393 558.162 159.412 558.293 159.44L558.139 160.574C558.017 160.546 557.882 160.523 557.733 160.504C557.583 160.485 557.448 160.476 557.327 160.476C556.944 160.476 556.585 160.583 556.249 160.798C555.913 161.003 555.642 161.297 555.437 161.68C555.241 162.053 555.143 162.492 555.143 162.996V167H553.911V159.496H554.919L555.059 160.868H555.115C555.348 160.457 555.656 160.103 556.039 159.804C556.431 159.505 556.888 159.356 557.411 159.356ZM567.783 157.97C566.709 157.97 565.865 158.329 565.249 159.048C564.633 159.767 564.325 160.751 564.325 162.002C564.325 163.243 564.609 164.228 565.179 164.956C565.757 165.675 566.621 166.034 567.769 166.034C568.198 166.034 568.609 165.997 569.001 165.922C569.393 165.847 569.78 165.754 570.163 165.642V166.734C569.789 166.874 569.402 166.977 569.001 167.042C568.609 167.107 568.137 167.14 567.587 167.14C566.569 167.14 565.72 166.93 565.039 166.51C564.357 166.09 563.844 165.493 563.499 164.718C563.163 163.943 562.995 163.033 562.995 161.988C562.995 160.98 563.177 160.093 563.541 159.328C563.914 158.553 564.46 157.951 565.179 157.522C565.897 157.083 566.77 156.864 567.797 156.864C568.851 156.864 569.771 157.06 570.555 157.452L570.051 158.516C569.743 158.376 569.397 158.25 569.015 158.138C568.641 158.026 568.231 157.97 567.783 157.97ZM575.018 159.37C575.933 159.37 576.61 159.571 577.048 159.972C577.487 160.373 577.706 161.013 577.706 161.89V167H576.81L576.572 165.936H576.516C576.19 166.347 575.844 166.65 575.48 166.846C575.116 167.042 574.622 167.14 573.996 167.14C573.315 167.14 572.75 166.963 572.302 166.608C571.854 166.244 571.63 165.679 571.63 164.914C571.63 164.167 571.924 163.593 572.512 163.192C573.1 162.781 574.006 162.557 575.228 162.52L576.502 162.478V162.03C576.502 161.405 576.367 160.971 576.096 160.728C575.826 160.485 575.443 160.364 574.948 160.364C574.556 160.364 574.183 160.425 573.828 160.546C573.474 160.658 573.142 160.789 572.834 160.938L572.456 160.014C572.783 159.837 573.17 159.687 573.618 159.566C574.066 159.435 574.533 159.37 575.018 159.37ZM576.488 163.332L575.382 163.374C574.449 163.411 573.8 163.561 573.436 163.822C573.082 164.083 572.904 164.452 572.904 164.928C572.904 165.348 573.03 165.656 573.282 165.852C573.544 166.048 573.875 166.146 574.276 166.146C574.902 166.146 575.424 165.973 575.844 165.628C576.274 165.273 576.488 164.732 576.488 164.004V163.332ZM583.524 159.356C583.664 159.356 583.813 159.365 583.972 159.384C584.131 159.393 584.275 159.412 584.406 159.44L584.252 160.574C584.131 160.546 583.995 160.523 583.846 160.504C583.697 160.485 583.561 160.476 583.44 160.476C583.057 160.476 582.698 160.583 582.362 160.798C582.026 161.003 581.755 161.297 581.55 161.68C581.354 162.053 581.256 162.492 581.256 162.996V167H580.024V159.496H581.032L581.172 160.868H581.228C581.461 160.457 581.769 160.103 582.152 159.804C582.544 159.505 583.001 159.356 583.524 159.356ZM588.432 159.356C589.066 159.356 589.617 159.496 590.084 159.776C590.55 160.056 590.905 160.453 591.148 160.966C591.4 161.47 591.526 162.063 591.526 162.744V163.486H586.388C586.406 164.335 586.621 164.984 587.032 165.432C587.452 165.871 588.035 166.09 588.782 166.09C589.258 166.09 589.678 166.048 590.042 165.964C590.415 165.871 590.798 165.74 591.19 165.572V166.65C590.807 166.818 590.429 166.939 590.056 167.014C589.682 167.098 589.239 167.14 588.726 167.14C588.007 167.14 587.377 166.995 586.836 166.706C586.294 166.417 585.87 165.987 585.562 165.418C585.263 164.849 585.114 164.144 585.114 163.304C585.114 162.483 585.249 161.778 585.52 161.19C585.8 160.602 586.187 160.149 586.682 159.832C587.186 159.515 587.769 159.356 588.432 159.356ZM588.418 160.364C587.83 160.364 587.363 160.555 587.018 160.938C586.682 161.311 586.481 161.834 586.416 162.506H590.238C590.228 161.871 590.079 161.358 589.79 160.966C589.5 160.565 589.043 160.364 588.418 160.364Z" fill="black"/>
<path d="M499.642 193.97C498.569 193.97 497.724 194.329 497.108 195.048C496.492 195.767 496.184 196.751 496.184 198.002C496.184 199.243 496.469 200.228 497.038 200.956C497.617 201.675 498.48 202.034 499.628 202.034C500.057 202.034 500.468 201.997 500.86 201.922C501.252 201.847 501.639 201.754 502.022 201.642V202.734C501.649 202.874 501.261 202.977 500.86 203.042C500.468 203.107 499.997 203.14 499.446 203.14C498.429 203.14 497.579 202.93 496.898 202.51C496.217 202.09 495.703 201.493 495.358 200.718C495.022 199.943 494.854 199.033 494.854 197.988C494.854 196.98 495.036 196.093 495.4 195.328C495.773 194.553 496.319 193.951 497.038 193.522C497.757 193.083 498.629 192.864 499.656 192.864C500.711 192.864 501.63 193.06 502.414 193.452L501.91 194.516C501.602 194.376 501.257 194.25 500.874 194.138C500.501 194.026 500.09 193.97 499.642 193.97ZM510.56 199.234C510.56 200.475 510.242 201.437 509.608 202.118C508.982 202.799 508.133 203.14 507.06 203.14C506.397 203.14 505.804 202.991 505.282 202.692C504.768 202.384 504.362 201.941 504.064 201.362C503.765 200.774 503.616 200.065 503.616 199.234C503.616 197.993 503.924 197.036 504.54 196.364C505.165 195.692 506.019 195.356 507.102 195.356C507.774 195.356 508.371 195.51 508.894 195.818C509.416 196.117 509.822 196.555 510.112 197.134C510.41 197.703 510.56 198.403 510.56 199.234ZM504.89 199.234C504.89 200.121 505.062 200.825 505.408 201.348C505.762 201.861 506.322 202.118 507.088 202.118C507.844 202.118 508.399 201.861 508.754 201.348C509.108 200.825 509.286 200.121 509.286 199.234C509.286 198.347 509.108 197.652 508.754 197.148C508.399 196.644 507.839 196.392 507.074 196.392C506.308 196.392 505.753 196.644 505.408 197.148C505.062 197.652 504.89 198.347 504.89 199.234ZM520.744 195.356C521.594 195.356 522.228 195.575 522.648 196.014C523.068 196.453 523.278 197.153 523.278 198.114V203H522.06V198.17C522.06 196.985 521.552 196.392 520.534 196.392C519.806 196.392 519.284 196.602 518.966 197.022C518.658 197.442 518.504 198.053 518.504 198.856V203H517.286V198.17C517.286 196.985 516.773 196.392 515.746 196.392C514.99 196.392 514.468 196.625 514.178 197.092C513.889 197.559 513.744 198.231 513.744 199.108V203H512.512V195.496H513.506L513.688 196.518H513.758C513.992 196.126 514.304 195.837 514.696 195.65C515.098 195.454 515.522 195.356 515.97 195.356C517.146 195.356 517.912 195.776 518.266 196.616H518.336C518.588 196.187 518.929 195.869 519.358 195.664C519.788 195.459 520.25 195.356 520.744 195.356ZM529.166 195.356C530.09 195.356 530.832 195.678 531.392 196.322C531.962 196.966 532.246 197.937 532.246 199.234C532.246 200.513 531.962 201.483 531.392 202.146C530.832 202.809 530.086 203.14 529.152 203.14C528.574 203.14 528.093 203.033 527.71 202.818C527.337 202.603 527.043 202.347 526.828 202.048H526.744C526.754 202.207 526.768 202.407 526.786 202.65C526.814 202.893 526.828 203.103 526.828 203.28V206.36H525.596V195.496H526.604L526.772 196.518H526.828C527.052 196.191 527.346 195.916 527.71 195.692C528.074 195.468 528.56 195.356 529.166 195.356ZM528.942 196.392C528.177 196.392 527.636 196.607 527.318 197.036C527.001 197.465 526.838 198.119 526.828 198.996V199.234C526.828 200.158 526.978 200.872 527.276 201.376C527.584 201.871 528.149 202.118 528.97 202.118C529.418 202.118 529.792 201.997 530.09 201.754C530.389 201.502 530.608 201.157 530.748 200.718C530.898 200.279 530.972 199.78 530.972 199.22C530.972 198.361 530.804 197.675 530.468 197.162C530.142 196.649 529.633 196.392 528.942 196.392ZM535.442 203H534.21V192.36H535.442V203ZM540.661 195.37C541.576 195.37 542.252 195.571 542.691 195.972C543.13 196.373 543.349 197.013 543.349 197.89V203H542.453L542.215 201.936H542.159C541.832 202.347 541.487 202.65 541.123 202.846C540.759 203.042 540.264 203.14 539.639 203.14C538.958 203.14 538.393 202.963 537.945 202.608C537.497 202.244 537.273 201.679 537.273 200.914C537.273 200.167 537.567 199.593 538.155 199.192C538.743 198.781 539.648 198.557 540.871 198.52L542.145 198.478V198.03C542.145 197.405 542.01 196.971 541.739 196.728C541.468 196.485 541.086 196.364 540.591 196.364C540.199 196.364 539.826 196.425 539.471 196.546C539.116 196.658 538.785 196.789 538.477 196.938L538.099 196.014C538.426 195.837 538.813 195.687 539.261 195.566C539.709 195.435 540.176 195.37 540.661 195.37ZM542.131 199.332L541.025 199.374C540.092 199.411 539.443 199.561 539.079 199.822C538.724 200.083 538.547 200.452 538.547 200.928C538.547 201.348 538.673 201.656 538.925 201.852C539.186 202.048 539.518 202.146 539.919 202.146C540.544 202.146 541.067 201.973 541.487 201.628C541.916 201.273 542.131 200.732 542.131 200.004V199.332ZM546.297 192.682C546.483 192.682 546.647 192.747 546.787 192.878C546.936 192.999 547.011 193.195 547.011 193.466C547.011 193.737 546.936 193.937 546.787 194.068C546.647 194.189 546.483 194.25 546.297 194.25C546.091 194.25 545.919 194.189 545.779 194.068C545.639 193.937 545.569 193.737 545.569 193.466C545.569 193.195 545.639 192.999 545.779 192.878C545.919 192.747 546.091 192.682 546.297 192.682ZM546.899 195.496V203H545.667V195.496H546.899ZM552.888 195.356C553.784 195.356 554.461 195.575 554.918 196.014C555.375 196.453 555.604 197.153 555.604 198.114V203H554.386V198.198C554.386 196.994 553.826 196.392 552.706 196.392C551.875 196.392 551.301 196.625 550.984 197.092C550.667 197.559 550.508 198.231 550.508 199.108V203H549.276V195.496H550.27L550.452 196.518H550.522C550.765 196.126 551.101 195.837 551.53 195.65C551.959 195.454 552.412 195.356 552.888 195.356ZM560.436 202.132C560.623 202.132 560.814 202.118 561.01 202.09C561.206 202.062 561.365 202.025 561.486 201.978V202.916C561.356 202.981 561.169 203.033 560.926 203.07C560.684 203.117 560.45 203.14 560.226 203.14C559.834 203.14 559.47 203.075 559.134 202.944C558.808 202.804 558.542 202.566 558.336 202.23C558.131 201.894 558.028 201.423 558.028 200.816V196.448H556.964V195.86L558.042 195.37L558.532 193.774H559.26V195.496H561.43V196.448H559.26V200.788C559.26 201.245 559.368 201.586 559.582 201.81C559.806 202.025 560.091 202.132 560.436 202.132ZM567.875 200.928C567.875 201.656 567.604 202.207 567.063 202.58C566.521 202.953 565.793 203.14 564.879 203.14C564.356 203.14 563.903 203.098 563.521 203.014C563.147 202.93 562.816 202.813 562.527 202.664V201.544C562.825 201.693 563.185 201.833 563.605 201.964C564.034 202.085 564.468 202.146 564.907 202.146C565.532 202.146 565.985 202.048 566.265 201.852C566.545 201.647 566.685 201.376 566.685 201.04C566.685 200.853 566.633 200.685 566.531 200.536C566.428 200.387 566.241 200.237 565.971 200.088C565.709 199.939 565.331 199.771 564.837 199.584C564.351 199.397 563.936 199.211 563.591 199.024C563.245 198.837 562.979 198.613 562.793 198.352C562.606 198.091 562.513 197.755 562.513 197.344C562.513 196.709 562.769 196.219 563.283 195.874C563.805 195.529 564.487 195.356 565.327 195.356C565.784 195.356 566.209 195.403 566.601 195.496C567.002 195.589 567.375 195.711 567.721 195.86L567.301 196.84C566.983 196.709 566.652 196.597 566.307 196.504C565.961 196.411 565.607 196.364 565.243 196.364C564.739 196.364 564.351 196.448 564.081 196.616C563.819 196.775 563.689 196.994 563.689 197.274C563.689 197.489 563.749 197.666 563.871 197.806C563.992 197.946 564.193 198.086 564.473 198.226C564.762 198.366 565.145 198.525 565.621 198.702C566.097 198.879 566.503 199.061 566.839 199.248C567.175 199.435 567.431 199.663 567.609 199.934C567.786 200.195 567.875 200.527 567.875 200.928ZM581.501 197.904C581.501 199.593 581.039 200.867 580.115 201.726C579.2 202.575 577.921 203 576.279 203H573.493V193.004H576.573C577.571 193.004 578.439 193.191 579.177 193.564C579.923 193.937 580.497 194.488 580.899 195.216C581.3 195.944 581.501 196.84 581.501 197.904ZM580.171 197.946C580.171 196.611 579.839 195.636 579.177 195.02C578.523 194.395 577.595 194.082 576.391 194.082H574.753V201.922H576.111C578.817 201.922 580.171 200.597 580.171 197.946ZM586.449 195.356C587.084 195.356 587.635 195.496 588.101 195.776C588.568 196.056 588.923 196.453 589.165 196.966C589.417 197.47 589.543 198.063 589.543 198.744V199.486H584.405C584.424 200.335 584.639 200.984 585.049 201.432C585.469 201.871 586.053 202.09 586.799 202.09C587.275 202.09 587.695 202.048 588.059 201.964C588.433 201.871 588.815 201.74 589.207 201.572V202.65C588.825 202.818 588.447 202.939 588.073 203.014C587.7 203.098 587.257 203.14 586.743 203.14C586.025 203.14 585.395 202.995 584.853 202.706C584.312 202.417 583.887 201.987 583.579 201.418C583.281 200.849 583.131 200.144 583.131 199.304C583.131 198.483 583.267 197.778 583.537 197.19C583.817 196.602 584.205 196.149 584.699 195.832C585.203 195.515 585.787 195.356 586.449 195.356ZM586.435 196.364C585.847 196.364 585.381 196.555 585.035 196.938C584.699 197.311 584.499 197.834 584.433 198.506H588.255C588.246 197.871 588.097 197.358 587.807 196.966C587.518 196.565 587.061 196.364 586.435 196.364ZM595.024 195.356C595.948 195.356 596.69 195.678 597.25 196.322C597.819 196.966 598.104 197.937 598.104 199.234C598.104 200.513 597.819 201.483 597.25 202.146C596.69 202.809 595.943 203.14 595.01 203.14C594.431 203.14 593.95 203.033 593.568 202.818C593.194 202.603 592.9 202.347 592.686 202.048H592.602C592.611 202.207 592.625 202.407 592.644 202.65C592.672 202.893 592.686 203.103 592.686 203.28V206.36H591.454V195.496H592.462L592.63 196.518H592.686C592.91 196.191 593.204 195.916 593.568 195.692C593.932 195.468 594.417 195.356 595.024 195.356ZM594.8 196.392C594.034 196.392 593.493 196.607 593.176 197.036C592.858 197.465 592.695 198.119 592.686 198.996V199.234C592.686 200.158 592.835 200.872 593.134 201.376C593.442 201.871 594.006 202.118 594.828 202.118C595.276 202.118 595.649 201.997 595.948 201.754C596.246 201.502 596.466 201.157 596.606 200.718C596.755 200.279 596.83 199.78 596.83 199.22C596.83 198.361 596.662 197.675 596.326 197.162C595.999 196.649 595.49 196.392 594.8 196.392ZM602.909 195.37C603.824 195.37 604.5 195.571 604.939 195.972C605.378 196.373 605.597 197.013 605.597 197.89V203H604.701L604.463 201.936H604.407C604.08 202.347 603.735 202.65 603.371 202.846C603.007 203.042 602.512 203.14 601.887 203.14C601.206 203.14 600.641 202.963 600.193 202.608C599.745 202.244 599.521 201.679 599.521 200.914C599.521 200.167 599.815 199.593 600.403 199.192C600.991 198.781 601.896 198.557 603.119 198.52L604.393 198.478V198.03C604.393 197.405 604.258 196.971 603.987 196.728C603.716 196.485 603.334 196.364 602.839 196.364C602.447 196.364 602.074 196.425 601.719 196.546C601.364 196.658 601.033 196.789 600.725 196.938L600.347 196.014C600.674 195.837 601.061 195.687 601.509 195.566C601.957 195.435 602.424 195.37 602.909 195.37ZM604.379 199.332L603.273 199.374C602.34 199.411 601.691 199.561 601.327 199.822C600.972 200.083 600.795 200.452 600.795 200.928C600.795 201.348 600.921 201.656 601.173 201.852C601.434 202.048 601.766 202.146 602.167 202.146C602.792 202.146 603.315 201.973 603.735 201.628C604.164 201.273 604.379 200.732 604.379 200.004V199.332ZM611.415 195.356C611.555 195.356 611.704 195.365 611.863 195.384C612.021 195.393 612.166 195.412 612.297 195.44L612.143 196.574C612.021 196.546 611.886 196.523 611.737 196.504C611.587 196.485 611.452 196.476 611.331 196.476C610.948 196.476 610.589 196.583 610.253 196.798C609.917 197.003 609.646 197.297 609.441 197.68C609.245 198.053 609.147 198.492 609.147 198.996V203H607.915V195.496H608.923L609.063 196.868H609.119C609.352 196.457 609.66 196.103 610.043 195.804C610.435 195.505 610.892 195.356 611.415 195.356ZM616.204 202.132C616.39 202.132 616.582 202.118 616.778 202.09C616.974 202.062 617.132 202.025 617.254 201.978V202.916C617.123 202.981 616.936 203.033 616.694 203.07C616.451 203.117 616.218 203.14 615.994 203.14C615.602 203.14 615.238 203.075 614.902 202.944C614.575 202.804 614.309 202.566 614.104 202.23C613.898 201.894 613.796 201.423 613.796 200.816V196.448H612.732V195.86L613.81 195.37L614.3 193.774H615.028V195.496H617.198V196.448H615.028V200.788C615.028 201.245 615.135 201.586 615.35 201.81C615.574 202.025 615.858 202.132 616.204 202.132ZM626.988 195.356C627.838 195.356 628.472 195.575 628.892 196.014C629.312 196.453 629.522 197.153 629.522 198.114V203H628.304V198.17C628.304 196.985 627.796 196.392 626.778 196.392C626.05 196.392 625.528 196.602 625.21 197.022C624.902 197.442 624.748 198.053 624.748 198.856V203H623.53V198.17C623.53 196.985 623.017 196.392 621.99 196.392C621.234 196.392 620.712 196.625 620.422 197.092C620.133 197.559 619.988 198.231 619.988 199.108V203H618.756V195.496H619.75L619.932 196.518H620.002C620.236 196.126 620.548 195.837 620.94 195.65C621.342 195.454 621.766 195.356 622.214 195.356C623.39 195.356 624.156 195.776 624.51 196.616H624.58C624.832 196.187 625.173 195.869 625.602 195.664C626.032 195.459 626.494 195.356 626.988 195.356ZM634.738 195.356C635.373 195.356 635.924 195.496 636.39 195.776C636.857 196.056 637.212 196.453 637.454 196.966C637.706 197.47 637.832 198.063 637.832 198.744V199.486H632.694C632.713 200.335 632.928 200.984 633.338 201.432C633.758 201.871 634.342 202.09 635.088 202.09C635.564 202.09 635.984 202.048 636.348 201.964C636.722 201.871 637.104 201.74 637.496 201.572V202.65C637.114 202.818 636.736 202.939 636.362 203.014C635.989 203.098 635.546 203.14 635.032 203.14C634.314 203.14 633.684 202.995 633.142 202.706C632.601 202.417 632.176 201.987 631.868 201.418C631.57 200.849 631.42 200.144 631.42 199.304C631.42 198.483 631.556 197.778 631.826 197.19C632.106 196.602 632.494 196.149 632.988 195.832C633.492 195.515 634.076 195.356 634.738 195.356ZM634.724 196.364C634.136 196.364 633.67 196.555 633.324 196.938C632.988 197.311 632.788 197.834 632.722 198.506H636.544C636.535 197.871 636.386 197.358 636.096 196.966C635.807 196.565 635.35 196.364 634.724 196.364ZM643.355 195.356C644.251 195.356 644.927 195.575 645.385 196.014C645.842 196.453 646.071 197.153 646.071 198.114V203H644.853V198.198C644.853 196.994 644.293 196.392 643.173 196.392C642.342 196.392 641.768 196.625 641.451 197.092C641.133 197.559 640.975 198.231 640.975 199.108V203H639.743V195.496H640.737L640.919 196.518H640.989C641.231 196.126 641.567 195.837 641.997 195.65C642.426 195.454 642.879 195.356 643.355 195.356ZM650.903 202.132C651.09 202.132 651.281 202.118 651.477 202.09C651.673 202.062 651.832 202.025 651.953 201.978V202.916C651.822 202.981 651.636 203.033 651.393 203.07C651.15 203.117 650.917 203.14 650.693 203.14C650.301 203.14 649.937 203.075 649.601 202.944C649.274 202.804 649.008 202.566 648.803 202.23C648.598 201.894 648.495 201.423 648.495 200.816V196.448H647.431V195.86L648.509 195.37L648.999 193.774H649.727V195.496H651.897V196.448H649.727V200.788C649.727 201.245 649.834 201.586 650.049 201.81C650.273 202.025 650.558 202.132 650.903 202.132Z" fill="black"/>
<path d="M496.618 239H495.358V229.004H500.944V230.11H496.618V233.652H500.678V234.758H496.618V239ZM503.08 228.682C503.266 228.682 503.43 228.747 503.57 228.878C503.719 228.999 503.794 229.195 503.794 229.466C503.794 229.737 503.719 229.937 503.57 230.068C503.43 230.189 503.266 230.25 503.08 230.25C502.874 230.25 502.702 230.189 502.562 230.068C502.422 229.937 502.352 229.737 502.352 229.466C502.352 229.195 502.422 228.999 502.562 228.878C502.702 228.747 502.874 228.682 503.08 228.682ZM503.682 231.496V239H502.45V231.496H503.682ZM509.671 231.356C510.567 231.356 511.244 231.575 511.701 232.014C512.158 232.453 512.387 233.153 512.387 234.114V239H511.169V234.198C511.169 232.994 510.609 232.392 509.489 232.392C508.658 232.392 508.084 232.625 507.767 233.092C507.45 233.559 507.291 234.231 507.291 235.108V239H506.059V231.496H507.053L507.235 232.518H507.305C507.548 232.126 507.884 231.837 508.313 231.65C508.742 231.454 509.195 231.356 509.671 231.356ZM517.555 231.37C518.47 231.37 519.147 231.571 519.585 231.972C520.024 232.373 520.243 233.013 520.243 233.89V239H519.347L519.109 237.936H519.053C518.727 238.347 518.381 238.65 518.017 238.846C517.653 239.042 517.159 239.14 516.533 239.14C515.852 239.14 515.287 238.963 514.839 238.608C514.391 238.244 514.167 237.679 514.167 236.914C514.167 236.167 514.461 235.593 515.049 235.192C515.637 234.781 516.543 234.557 517.765 234.52L519.039 234.478V234.03C519.039 233.405 518.904 232.971 518.633 232.728C518.363 232.485 517.98 232.364 517.485 232.364C517.093 232.364 516.72 232.425 516.365 232.546C516.011 232.658 515.679 232.789 515.371 232.938L514.993 232.014C515.32 231.837 515.707 231.687 516.155 231.566C516.603 231.435 517.07 231.37 517.555 231.37ZM519.025 235.332L517.919 235.374C516.986 235.411 516.337 235.561 515.973 235.822C515.619 236.083 515.441 236.452 515.441 236.928C515.441 237.348 515.567 237.656 515.819 237.852C516.081 238.048 516.412 238.146 516.813 238.146C517.439 238.146 517.961 237.973 518.381 237.628C518.811 237.273 519.025 236.732 519.025 236.004V235.332ZM526.173 231.356C527.069 231.356 527.746 231.575 528.203 232.014C528.66 232.453 528.889 233.153 528.889 234.114V239H527.671V234.198C527.671 232.994 527.111 232.392 525.991 232.392C525.16 232.392 524.586 232.625 524.269 233.092C523.952 233.559 523.793 234.231 523.793 235.108V239H522.561V231.496H523.555L523.737 232.518H523.807C524.05 232.126 524.386 231.837 524.815 231.65C525.244 231.454 525.697 231.356 526.173 231.356ZM534.225 239.14C533.553 239.14 532.961 239.005 532.447 238.734C531.934 238.463 531.528 238.043 531.229 237.474C530.94 236.905 530.795 236.177 530.795 235.29C530.795 234.366 530.945 233.615 531.243 233.036C531.551 232.457 531.971 232.033 532.503 231.762C533.035 231.491 533.637 231.356 534.309 231.356C534.683 231.356 535.047 231.398 535.401 231.482C535.765 231.557 536.059 231.65 536.283 231.762L535.905 232.784C535.681 232.7 535.42 232.621 535.121 232.546C534.823 232.471 534.543 232.434 534.281 232.434C532.807 232.434 532.069 233.381 532.069 235.276C532.069 236.181 532.247 236.877 532.601 237.362C532.965 237.838 533.502 238.076 534.211 238.076C534.613 238.076 534.972 238.034 535.289 237.95C535.607 237.866 535.896 237.763 536.157 237.642V238.734C535.905 238.865 535.625 238.963 535.317 239.028C535.019 239.103 534.655 239.14 534.225 239.14ZM540.84 231.356C541.475 231.356 542.025 231.496 542.492 231.776C542.959 232.056 543.313 232.453 543.556 232.966C543.808 233.47 543.934 234.063 543.934 234.744V235.486H538.796C538.815 236.335 539.029 236.984 539.44 237.432C539.86 237.871 540.443 238.09 541.19 238.09C541.666 238.09 542.086 238.048 542.45 237.964C542.823 237.871 543.206 237.74 543.598 237.572V238.65C543.215 238.818 542.837 238.939 542.464 239.014C542.091 239.098 541.647 239.14 541.134 239.14C540.415 239.14 539.785 238.995 539.244 238.706C538.703 238.417 538.278 237.987 537.97 237.418C537.671 236.849 537.522 236.144 537.522 235.304C537.522 234.483 537.657 233.778 537.928 233.19C538.208 232.602 538.595 232.149 539.09 231.832C539.594 231.515 540.177 231.356 540.84 231.356ZM540.826 232.364C540.238 232.364 539.771 232.555 539.426 232.938C539.09 233.311 538.889 233.834 538.824 234.506H542.646C542.637 233.871 542.487 233.358 542.198 232.966C541.909 232.565 541.451 232.364 540.826 232.364ZM557.657 233.904C557.657 235.593 557.195 236.867 556.271 237.726C555.356 238.575 554.078 239 552.435 239H549.649V229.004H552.729C553.728 229.004 554.596 229.191 555.333 229.564C556.08 229.937 556.654 230.488 557.055 231.216C557.456 231.944 557.657 232.84 557.657 233.904ZM556.327 233.946C556.327 232.611 555.996 231.636 555.333 231.02C554.68 230.395 553.751 230.082 552.547 230.082H550.909V237.922H552.267C554.974 237.922 556.327 236.597 556.327 233.946ZM562.606 231.356C563.24 231.356 563.791 231.496 564.258 231.776C564.724 232.056 565.079 232.453 565.322 232.966C565.574 233.47 565.7 234.063 565.7 234.744V235.486H560.562C560.58 236.335 560.795 236.984 561.206 237.432C561.626 237.871 562.209 238.09 562.956 238.09C563.432 238.09 563.852 238.048 564.216 237.964C564.589 237.871 564.972 237.74 565.364 237.572V238.65C564.981 238.818 564.603 238.939 564.23 239.014C563.856 239.098 563.413 239.14 562.9 239.14C562.181 239.14 561.551 238.995 561.01 238.706C560.468 238.417 560.044 237.987 559.736 237.418C559.437 236.849 559.288 236.144 559.288 235.304C559.288 234.483 559.423 233.778 559.694 233.19C559.974 232.602 560.361 232.149 560.856 231.832C561.36 231.515 561.943 231.356 562.606 231.356ZM562.592 232.364C562.004 232.364 561.537 232.555 561.192 232.938C560.856 233.311 560.655 233.834 560.59 234.506H564.412C564.402 233.871 564.253 233.358 563.964 232.966C563.674 232.565 563.217 232.364 562.592 232.364ZM571.18 231.356C572.104 231.356 572.846 231.678 573.406 232.322C573.975 232.966 574.26 233.937 574.26 235.234C574.26 236.513 573.975 237.483 573.406 238.146C572.846 238.809 572.099 239.14 571.166 239.14C570.587 239.14 570.107 239.033 569.724 238.818C569.351 238.603 569.057 238.347 568.842 238.048H568.758C568.767 238.207 568.781 238.407 568.8 238.65C568.828 238.893 568.842 239.103 568.842 239.28V242.36H567.61V231.496H568.618L568.786 232.518H568.842C569.066 232.191 569.36 231.916 569.724 231.692C570.088 231.468 570.573 231.356 571.18 231.356ZM570.956 232.392C570.191 232.392 569.649 232.607 569.332 233.036C569.015 233.465 568.851 234.119 568.842 234.996V235.234C568.842 236.158 568.991 236.872 569.29 237.376C569.598 237.871 570.163 238.118 570.984 238.118C571.432 238.118 571.805 237.997 572.104 237.754C572.403 237.502 572.622 237.157 572.762 236.718C572.911 236.279 572.986 235.78 572.986 235.22C572.986 234.361 572.818 233.675 572.482 233.162C572.155 232.649 571.647 232.392 570.956 232.392ZM579.065 231.37C579.98 231.37 580.657 231.571 581.095 231.972C581.534 232.373 581.753 233.013 581.753 233.89V239H580.857L580.619 237.936H580.563C580.237 238.347 579.891 238.65 579.527 238.846C579.163 239.042 578.669 239.14 578.043 239.14C577.362 239.14 576.797 238.963 576.349 238.608C575.901 238.244 575.677 237.679 575.677 236.914C575.677 236.167 575.971 235.593 576.559 235.192C577.147 234.781 578.053 234.557 579.275 234.52L580.549 234.478V234.03C580.549 233.405 580.414 232.971 580.143 232.728C579.873 232.485 579.49 232.364 578.995 232.364C578.603 232.364 578.23 232.425 577.875 232.546C577.521 232.658 577.189 232.789 576.881 232.938L576.503 232.014C576.83 231.837 577.217 231.687 577.665 231.566C578.113 231.435 578.58 231.37 579.065 231.37ZM580.535 235.332L579.429 235.374C578.496 235.411 577.847 235.561 577.483 235.822C577.129 236.083 576.951 236.452 576.951 236.928C576.951 237.348 577.077 237.656 577.329 237.852C577.591 238.048 577.922 238.146 578.323 238.146C578.949 238.146 579.471 237.973 579.891 237.628C580.321 237.273 580.535 236.732 580.535 236.004V235.332ZM587.571 231.356C587.711 231.356 587.86 231.365 588.019 231.384C588.178 231.393 588.322 231.412 588.453 231.44L588.299 232.574C588.178 232.546 588.042 232.523 587.893 232.504C587.744 232.485 587.608 232.476 587.487 232.476C587.104 232.476 586.745 232.583 586.409 232.798C586.073 233.003 585.802 233.297 585.597 233.68C585.401 234.053 585.303 234.492 585.303 234.996V239H584.071V231.496H585.079L585.219 232.868H585.275C585.508 232.457 585.816 232.103 586.199 231.804C586.591 231.505 587.048 231.356 587.571 231.356ZM592.36 238.132C592.547 238.132 592.738 238.118 592.934 238.09C593.13 238.062 593.289 238.025 593.41 237.978V238.916C593.279 238.981 593.093 239.033 592.85 239.07C592.607 239.117 592.374 239.14 592.15 239.14C591.758 239.14 591.394 239.075 591.058 238.944C590.731 238.804 590.465 238.566 590.26 238.23C590.055 237.894 589.952 237.423 589.952 236.816V232.448H588.888V231.86L589.966 231.37L590.456 229.774H591.184V231.496H593.354V232.448H591.184V236.788C591.184 237.245 591.291 237.586 591.506 237.81C591.73 238.025 592.015 238.132 592.36 238.132ZM603.145 231.356C603.994 231.356 604.629 231.575 605.049 232.014C605.469 232.453 605.679 233.153 605.679 234.114V239H604.461V234.17C604.461 232.985 603.952 232.392 602.935 232.392C602.207 232.392 601.684 232.602 601.367 233.022C601.059 233.442 600.905 234.053 600.905 234.856V239H599.687V234.17C599.687 232.985 599.173 232.392 598.147 232.392C597.391 232.392 596.868 232.625 596.579 233.092C596.289 233.559 596.145 234.231 596.145 235.108V239H594.913V231.496H595.907L596.089 232.518H596.159C596.392 232.126 596.705 231.837 597.097 231.65C597.498 231.454 597.923 231.356 598.371 231.356C599.547 231.356 600.312 231.776 600.667 232.616H600.737C600.989 232.187 601.329 231.869 601.759 231.664C602.188 231.459 602.65 231.356 603.145 231.356ZM610.895 231.356C611.529 231.356 612.08 231.496 612.547 231.776C613.013 232.056 613.368 232.453 613.611 232.966C613.863 233.47 613.989 234.063 613.989 234.744V235.486H608.851C608.869 236.335 609.084 236.984 609.495 237.432C609.915 237.871 610.498 238.09 611.245 238.09C611.721 238.09 612.141 238.048 612.505 237.964C612.878 237.871 613.261 237.74 613.653 237.572V238.65C613.27 238.818 612.892 238.939 612.519 239.014C612.145 239.098 611.702 239.14 611.189 239.14C610.47 239.14 609.84 238.995 609.299 238.706C608.757 238.417 608.333 237.987 608.025 237.418C607.726 236.849 607.577 236.144 607.577 235.304C607.577 234.483 607.712 233.778 607.983 233.19C608.263 232.602 608.65 232.149 609.145 231.832C609.649 231.515 610.232 231.356 610.895 231.356ZM610.881 232.364C610.293 232.364 609.826 232.555 609.481 232.938C609.145 233.311 608.944 233.834 608.879 234.506H612.701C612.691 233.871 612.542 233.358 612.253 232.966C611.963 232.565 611.506 232.364 610.881 232.364ZM619.511 231.356C620.407 231.356 621.084 231.575 621.541 232.014C621.998 232.453 622.227 233.153 622.227 234.114V239H621.009V234.198C621.009 232.994 620.449 232.392 619.329 232.392C618.498 232.392 617.924 232.625 617.607 233.092C617.29 233.559 617.131 234.231 617.131 235.108V239H615.899V231.496H616.893L617.075 232.518H617.145C617.388 232.126 617.724 231.837 618.153 231.65C618.582 231.454 619.035 231.356 619.511 231.356ZM627.059 238.132C627.246 238.132 627.437 238.118 627.633 238.09C627.829 238.062 627.988 238.025 628.109 237.978V238.916C627.979 238.981 627.792 239.033 627.549 239.07C627.307 239.117 627.073 239.14 626.849 239.14C626.457 239.14 626.093 239.075 625.757 238.944C625.431 238.804 625.165 238.566 624.959 238.23C624.754 237.894 624.651 237.423 624.651 236.816V232.448H623.587V231.86L624.665 231.37L625.155 229.774H625.883V231.496H628.053V232.448H625.883V236.788C625.883 237.245 625.991 237.586 626.205 237.81C626.429 238.025 626.714 238.132 627.059 238.132Z" fill="black"/>
<path d="M503.002 275H501.742V270.338H496.618V275H495.358V265.004H496.618V269.232H501.742V265.004H503.002V275ZM508.493 265.004C509.734 265.004 510.649 265.242 511.237 265.718C511.834 266.185 512.133 266.894 512.133 267.846C512.133 268.378 512.035 268.821 511.839 269.176C511.643 269.531 511.391 269.815 511.083 270.03C510.784 270.245 510.467 270.408 510.131 270.52L512.875 275H511.405L508.983 270.87H506.995V275H505.735V265.004H508.493ZM508.423 266.096H506.995V269.806H508.493C509.305 269.806 509.898 269.647 510.271 269.33C510.644 269.003 510.831 268.527 510.831 267.902C510.831 267.249 510.635 266.787 510.243 266.516C509.851 266.236 509.244 266.096 508.423 266.096ZM526.089 269.904C526.089 271.593 525.627 272.867 524.703 273.726C523.788 274.575 522.509 275 520.867 275H518.081V265.004H521.161C522.159 265.004 523.027 265.191 523.765 265.564C524.511 265.937 525.085 266.488 525.487 267.216C525.888 267.944 526.089 268.84 526.089 269.904ZM524.759 269.946C524.759 268.611 524.427 267.636 523.765 267.02C523.111 266.395 522.183 266.082 520.979 266.082H519.341V273.922H520.699C523.405 273.922 524.759 272.597 524.759 269.946ZM531.037 267.356C531.672 267.356 532.223 267.496 532.689 267.776C533.156 268.056 533.511 268.453 533.753 268.966C534.005 269.47 534.131 270.063 534.131 270.744V271.486H528.993C529.012 272.335 529.227 272.984 529.637 273.432C530.057 273.871 530.641 274.09 531.387 274.09C531.863 274.09 532.283 274.048 532.647 273.964C533.021 273.871 533.403 273.74 533.795 273.572V274.65C533.413 274.818 533.035 274.939 532.661 275.014C532.288 275.098 531.845 275.14 531.331 275.14C530.613 275.14 529.983 274.995 529.441 274.706C528.9 274.417 528.475 273.987 528.167 273.418C527.869 272.849 527.719 272.144 527.719 271.304C527.719 270.483 527.855 269.778 528.125 269.19C528.405 268.602 528.793 268.149 529.287 267.832C529.791 267.515 530.375 267.356 531.037 267.356ZM531.023 268.364C530.435 268.364 529.969 268.555 529.623 268.938C529.287 269.311 529.087 269.834 529.021 270.506H532.843C532.834 269.871 532.685 269.358 532.395 268.966C532.106 268.565 531.649 268.364 531.023 268.364ZM539.612 267.356C540.536 267.356 541.278 267.678 541.838 268.322C542.407 268.966 542.692 269.937 542.692 271.234C542.692 272.513 542.407 273.483 541.838 274.146C541.278 274.809 540.531 275.14 539.598 275.14C539.019 275.14 538.538 275.033 538.156 274.818C537.782 274.603 537.488 274.347 537.274 274.048H537.19C537.199 274.207 537.213 274.407 537.232 274.65C537.26 274.893 537.274 275.103 537.274 275.28V278.36H536.042V267.496H537.05L537.218 268.518H537.274C537.498 268.191 537.792 267.916 538.156 267.692C538.52 267.468 539.005 267.356 539.612 267.356ZM539.388 268.392C538.622 268.392 538.081 268.607 537.764 269.036C537.446 269.465 537.283 270.119 537.274 270.996V271.234C537.274 272.158 537.423 272.872 537.722 273.376C538.03 273.871 538.594 274.118 539.416 274.118C539.864 274.118 540.237 273.997 540.536 273.754C540.834 273.502 541.054 273.157 541.194 272.718C541.343 272.279 541.418 271.78 541.418 271.22C541.418 270.361 541.25 269.675 540.914 269.162C540.587 268.649 540.078 268.392 539.388 268.392ZM547.497 267.37C548.412 267.37 549.088 267.571 549.527 267.972C549.966 268.373 550.185 269.013 550.185 269.89V275H549.289L549.051 273.936H548.995C548.668 274.347 548.323 274.65 547.959 274.846C547.595 275.042 547.1 275.14 546.475 275.14C545.794 275.14 545.229 274.963 544.781 274.608C544.333 274.244 544.109 273.679 544.109 272.914C544.109 272.167 544.403 271.593 544.991 271.192C545.579 270.781 546.484 270.557 547.707 270.52L548.981 270.478V270.03C548.981 269.405 548.846 268.971 548.575 268.728C548.304 268.485 547.922 268.364 547.427 268.364C547.035 268.364 546.662 268.425 546.307 268.546C545.952 268.658 545.621 268.789 545.313 268.938L544.935 268.014C545.262 267.837 545.649 267.687 546.097 267.566C546.545 267.435 547.012 267.37 547.497 267.37ZM548.967 271.332L547.861 271.374C546.928 271.411 546.279 271.561 545.915 271.822C545.56 272.083 545.383 272.452 545.383 272.928C545.383 273.348 545.509 273.656 545.761 273.852C546.022 274.048 546.354 274.146 546.755 274.146C547.38 274.146 547.903 273.973 548.323 273.628C548.752 273.273 548.967 272.732 548.967 272.004V271.332ZM556.003 267.356C556.143 267.356 556.292 267.365 556.451 267.384C556.609 267.393 556.754 267.412 556.885 267.44L556.731 268.574C556.609 268.546 556.474 268.523 556.325 268.504C556.175 268.485 556.04 268.476 555.919 268.476C555.536 268.476 555.177 268.583 554.841 268.798C554.505 269.003 554.234 269.297 554.029 269.68C553.833 270.053 553.735 270.492 553.735 270.996V275H552.503V267.496H553.511L553.651 268.868H553.707C553.94 268.457 554.248 268.103 554.631 267.804C555.023 267.505 555.48 267.356 556.003 267.356ZM560.792 274.132C560.978 274.132 561.17 274.118 561.366 274.09C561.562 274.062 561.72 274.025 561.842 273.978V274.916C561.711 274.981 561.524 275.033 561.282 275.07C561.039 275.117 560.806 275.14 560.582 275.14C560.19 275.14 559.826 275.075 559.49 274.944C559.163 274.804 558.897 274.566 558.692 274.23C558.486 273.894 558.384 273.423 558.384 272.816V268.448H557.32V267.86L558.398 267.37L558.888 265.774H559.616V267.496H561.786V268.448H559.616V272.788C559.616 273.245 559.723 273.586 559.938 273.81C560.162 274.025 560.446 274.132 560.792 274.132ZM571.576 267.356C572.426 267.356 573.06 267.575 573.48 268.014C573.9 268.453 574.11 269.153 574.11 270.114V275H572.892V270.17C572.892 268.985 572.384 268.392 571.366 268.392C570.638 268.392 570.116 268.602 569.798 269.022C569.49 269.442 569.336 270.053 569.336 270.856V275H568.118V270.17C568.118 268.985 567.605 268.392 566.578 268.392C565.822 268.392 565.3 268.625 565.01 269.092C564.721 269.559 564.576 270.231 564.576 271.108V275H563.344V267.496H564.338L564.52 268.518H564.59C564.824 268.126 565.136 267.837 565.528 267.65C565.93 267.454 566.354 267.356 566.802 267.356C567.978 267.356 568.744 267.776 569.098 268.616H569.168C569.42 268.187 569.761 267.869 570.19 267.664C570.62 267.459 571.082 267.356 571.576 267.356ZM579.326 267.356C579.961 267.356 580.512 267.496 580.978 267.776C581.445 268.056 581.8 268.453 582.042 268.966C582.294 269.47 582.42 270.063 582.42 270.744V271.486H577.282C577.301 272.335 577.516 272.984 577.926 273.432C578.346 273.871 578.93 274.09 579.676 274.09C580.152 274.09 580.572 274.048 580.936 273.964C581.31 273.871 581.692 273.74 582.084 273.572V274.65C581.702 274.818 581.324 274.939 580.95 275.014C580.577 275.098 580.134 275.14 579.62 275.14C578.902 275.14 578.272 274.995 577.73 274.706C577.189 274.417 576.764 273.987 576.456 273.418C576.158 272.849 576.008 272.144 576.008 271.304C576.008 270.483 576.144 269.778 576.414 269.19C576.694 268.602 577.082 268.149 577.576 267.832C578.08 267.515 578.664 267.356 579.326 267.356ZM579.312 268.364C578.724 268.364 578.258 268.555 577.912 268.938C577.576 269.311 577.376 269.834 577.31 270.506H581.132C581.123 269.871 580.974 269.358 580.684 268.966C580.395 268.565 579.938 268.364 579.312 268.364ZM587.943 267.356C588.839 267.356 589.515 267.575 589.973 268.014C590.43 268.453 590.659 269.153 590.659 270.114V275H589.441V270.198C589.441 268.994 588.881 268.392 587.761 268.392C586.93 268.392 586.356 268.625 586.039 269.092C585.721 269.559 585.563 270.231 585.563 271.108V275H584.331V267.496H585.325L585.507 268.518H585.577C585.819 268.126 586.155 267.837 586.585 267.65C587.014 267.454 587.467 267.356 587.943 267.356ZM595.491 274.132C595.678 274.132 595.869 274.118 596.065 274.09C596.261 274.062 596.42 274.025 596.541 273.978V274.916C596.41 274.981 596.224 275.033 595.981 275.07C595.738 275.117 595.505 275.14 595.281 275.14C594.889 275.14 594.525 275.075 594.189 274.944C593.862 274.804 593.596 274.566 593.391 274.23C593.186 273.894 593.083 273.423 593.083 272.816V268.448H592.019V267.86L593.097 267.37L593.587 265.774H594.315V267.496H596.485V268.448H594.315V272.788C594.315 273.245 594.422 273.586 594.637 273.81C594.861 274.025 595.146 274.132 595.491 274.132Z" fill="black"/>
<rect x="485.5" y="91.5" width="188" height="197" rx="4.5" stroke="black" stroke-opacity="0.15"/>
</g>
<defs>
<filter id="filter0_d_6659_525551" x="226" y="39" width="264" height="170" filterUnits="userSpaceOnUse" color-interpolation-filters="sRGB">
<feFlood flood-opacity="0" result="BackgroundImageFix"/>
<feColorMatrix in="SourceAlpha" type="matrix" values="0 0 0 0 0 0 0 0 0 0 0 0 0 0 0 0 0 0 127 0" result="hardAlpha"/>
<feOffset dy="4"/>
<feGaussianBlur stdDeviation="2"/>
<feColorMatrix type="matrix" values="0 0 0 0 0 0 0 0 0 0 0 0 0 0 0 0 0 0 0.25 0"/>
<feBlend mode="normal" in2="BackgroundImageFix" result="effect1_dropShadow_6659_525551"/>
<feBlend mode="normal" in="SourceGraphic" in2="effect1_dropShadow_6659_525551" result="shape"/>
</filter>
<filter id="filter1_d_6659_525551" x="481" y="91" width="197" height="206" filterUnits="userSpaceOnUse" color-interpolation-filters="sRGB">
<feFlood flood-opacity="0" result="BackgroundImageFix"/>
<feColorMatrix in="SourceAlpha" type="matrix" values="0 0 0 0 0 0 0 0 0 0 0 0 0 0 0 0 0 0 127 0" result="hardAlpha"/>
<feOffset dy="4"/>
<feGaussianBlur stdDeviation="2"/>
<feColorMatrix type="matrix" values="0 0 0 0 0 0 0 0 0 0 0 0 0 0 0 0 0 0 0.25 0"/>
<feBlend mode="normal" in2="BackgroundImageFix" result="effect1_dropShadow_6659_525551"/>
<feBlend mode="normal" in="SourceGraphic" in2="effect1_dropShadow_6659_525551" result="shape"/>
</filter>
</defs>
</svg>
