<svg width="952" height="406" viewBox="0 0 952 406" fill="none" xmlns="http://www.w3.org/2000/svg">
<g clip-path="url(#clip0_7837_524398)">
<rect x="0.5" y="0.5" width="951" height="405" fill="#F1F1F1"/>
<rect x="0.5" y="0.5" width="951" height="405" stroke="#C9C9C9"/>
<g filter="url(#filter0_d_7837_524398)">
<rect x="1" y="24" width="815" height="381" fill="white"/>
</g>
<g filter="url(#filter1_d_7837_524398)">
<g clip-path="url(#clip1_7837_524398)">
<rect x="279" y="136" width="254" height="160" rx="4" fill="white"/>
<rect x="287.5" y="144.5" width="237" height="35" rx="1.5" fill="white"/>
<path fill-rule="evenodd" clip-rule="evenodd" d="M305.62 155.749C302.93 155.749 300.749 157.93 300.749 160.62C300.749 163.31 302.93 165.491 305.62 165.491C308.31 165.491 310.491 163.31 310.491 160.62C310.491 157.93 308.31 155.749 305.62 155.749ZM300 160.62C300 157.516 302.516 155 305.62 155C308.724 155 311.24 157.516 311.24 160.62C311.24 163.724 308.724 166.24 305.62 166.24C302.516 166.24 300 163.724 300 160.62Z" fill="#323232"/>
<path fill-rule="evenodd" clip-rule="evenodd" d="M309.302 164.302C309.448 164.155 309.685 164.155 309.831 164.302L311.68 166.15C311.826 166.296 311.826 166.533 311.68 166.68C311.533 166.826 311.296 166.826 311.15 166.68L309.302 164.831C309.155 164.685 309.155 164.448 309.302 164.302Z" fill="#323232"/>
<path fill-rule="evenodd" clip-rule="evenodd" d="M312.449 166.73C312.245 166.526 311.933 166.526 311.73 166.73C311.526 166.933 311.526 167.245 311.73 167.449L312.379 168.098C312.386 168.105 312.392 168.112 312.399 168.119C312.538 168.282 312.882 168.314 313.098 168.098C313.302 167.895 313.302 167.582 313.098 167.379L312.449 166.73ZM311.2 166.2C311.696 165.704 312.483 165.704 312.979 166.2L313.628 166.849C314.124 167.345 314.124 168.132 313.628 168.628C313.148 169.108 312.302 169.143 311.84 168.619L311.2 167.979C310.704 167.483 310.704 166.696 311.2 166.2Z" fill="#323232"/>
<path d="M325.59 167.14C325.105 167.14 324.675 167.103 324.302 167.028C323.938 166.953 323.593 166.841 323.266 166.692V165.46C323.546 165.609 323.877 165.745 324.26 165.866C324.652 165.987 325.1 166.048 325.604 166.048C326.024 166.048 326.411 165.983 326.766 165.852C327.121 165.721 327.405 165.521 327.62 165.25C327.835 164.979 327.942 164.629 327.942 164.2C327.942 163.827 327.816 163.509 327.564 163.248C327.321 162.977 326.897 162.669 326.29 162.324C325.935 162.119 325.618 161.899 325.338 161.666C325.067 161.433 324.853 161.167 324.694 160.868C324.545 160.569 324.47 160.201 324.47 159.762C324.47 159.146 324.619 158.623 324.918 158.194C325.217 157.755 325.613 157.424 326.108 157.2C326.612 156.976 327.163 156.864 327.76 156.864C328.283 156.864 328.74 156.915 329.132 157.018C329.533 157.121 329.911 157.265 330.266 157.452L329.79 158.516C329.547 158.385 329.244 158.264 328.88 158.152C328.516 158.031 328.143 157.97 327.76 157.97C327.181 157.97 326.71 158.119 326.346 158.418C325.982 158.717 325.8 159.137 325.8 159.678C325.8 159.967 325.851 160.205 325.954 160.392C326.057 160.579 326.215 160.751 326.43 160.91C326.645 161.069 326.911 161.241 327.228 161.428C327.629 161.671 327.979 161.909 328.278 162.142C328.586 162.375 328.824 162.646 328.992 162.954C329.169 163.262 329.258 163.645 329.258 164.102C329.258 165.101 328.922 165.857 328.25 166.37C327.587 166.883 326.701 167.14 325.59 167.14ZM333.456 167.14C332.588 167.14 331.916 166.888 331.44 166.384C330.974 165.871 330.74 165.18 330.74 164.312C330.74 163.715 330.824 163.127 330.992 162.548C331.17 161.96 331.422 161.428 331.748 160.952C332.075 160.467 332.467 160.079 332.924 159.79C333.391 159.501 333.914 159.356 334.492 159.356C335.202 159.356 335.734 159.51 336.088 159.818C336.452 160.126 336.634 160.555 336.634 161.106C336.634 161.601 336.48 162.049 336.172 162.45C335.874 162.842 335.402 163.159 334.758 163.402C334.114 163.635 333.279 163.752 332.252 163.752H332.014C332.005 163.836 331.996 163.925 331.986 164.018C331.986 164.111 331.986 164.195 331.986 164.27C331.986 164.839 332.122 165.292 332.392 165.628C332.672 165.955 333.102 166.118 333.68 166.118C334.035 166.118 334.371 166.071 334.688 165.978C335.006 165.875 335.351 165.731 335.724 165.544V166.594C335.37 166.753 335.02 166.883 334.674 166.986C334.338 167.089 333.932 167.14 333.456 167.14ZM332.196 162.758H332.294C332.854 162.758 333.372 162.711 333.848 162.618C334.324 162.515 334.707 162.352 334.996 162.128C335.286 161.895 335.43 161.587 335.43 161.204C335.43 160.961 335.346 160.765 335.178 160.616C335.02 160.457 334.768 160.378 334.422 160.378C333.974 160.378 333.54 160.588 333.12 161.008C332.71 161.419 332.402 162.002 332.196 162.758ZM339.757 167.14C339.15 167.14 338.66 166.925 338.287 166.496C337.913 166.057 337.727 165.418 337.727 164.578C337.727 163.878 337.815 163.215 337.993 162.59C338.179 161.955 338.436 161.4 338.763 160.924C339.089 160.439 339.477 160.056 339.925 159.776C340.373 159.496 340.867 159.356 341.409 159.356C341.903 159.356 342.305 159.487 342.613 159.748C342.921 160.009 343.149 160.313 343.299 160.658H343.369L343.817 159.496H344.755L343.159 167H342.179L342.361 165.614H342.305C341.978 166.025 341.6 166.384 341.171 166.692C340.751 166.991 340.279 167.14 339.757 167.14ZM340.163 166.118C340.499 166.118 340.835 165.992 341.171 165.74C341.507 165.488 341.805 165.152 342.067 164.732C342.337 164.303 342.547 163.817 342.697 163.276C342.762 163.015 342.809 162.767 342.837 162.534C342.865 162.301 342.879 162.086 342.879 161.89C342.879 161.451 342.757 161.092 342.515 160.812C342.272 160.532 341.945 160.392 341.535 160.392C341.171 160.392 340.835 160.509 340.527 160.742C340.219 160.966 339.948 161.279 339.715 161.68C339.481 162.072 339.299 162.52 339.169 163.024C339.047 163.528 338.987 164.055 338.987 164.606C338.987 165.11 339.089 165.488 339.295 165.74C339.5 165.992 339.789 166.118 340.163 166.118ZM345.404 167L347 159.496H348.008L347.854 160.882H347.924C348.12 160.63 348.325 160.387 348.54 160.154C348.754 159.921 348.997 159.729 349.268 159.58C349.538 159.431 349.851 159.356 350.206 159.356C350.336 159.356 350.472 159.365 350.612 159.384C350.761 159.393 350.896 159.417 351.018 159.454L350.752 160.56C350.5 160.504 350.262 160.476 350.038 160.476C349.571 160.476 349.156 160.63 348.792 160.938C348.428 161.246 348.124 161.638 347.882 162.114C347.639 162.59 347.466 163.075 347.364 163.57L346.636 167H345.404ZM353.774 167.14C352.944 167.14 352.272 166.907 351.758 166.44C351.245 165.973 350.988 165.273 350.988 164.34C350.988 163.668 351.077 163.033 351.254 162.436C351.441 161.829 351.702 161.297 352.038 160.84C352.384 160.383 352.799 160.023 353.284 159.762C353.77 159.491 354.311 159.356 354.908 159.356C355.235 159.356 355.557 159.389 355.874 159.454C356.201 159.519 356.5 159.608 356.77 159.72L356.42 160.742C356.234 160.658 356.01 160.579 355.748 160.504C355.496 160.429 355.221 160.392 354.922 160.392C354.39 160.392 353.924 160.574 353.522 160.938C353.121 161.293 352.808 161.769 352.584 162.366C352.36 162.963 352.248 163.617 352.248 164.326C352.248 164.895 352.393 165.339 352.682 165.656C352.972 165.964 353.378 166.118 353.9 166.118C354.227 166.118 354.535 166.076 354.824 165.992C355.123 165.899 355.417 165.787 355.706 165.656V166.692C355.445 166.823 355.151 166.93 354.824 167.014C354.507 167.098 354.157 167.14 353.774 167.14ZM357.052 167L359.306 156.36H360.538L359.936 159.118C359.88 159.398 359.81 159.692 359.726 160C359.642 160.299 359.563 160.597 359.488 160.896H359.558C359.735 160.663 359.945 160.429 360.188 160.196C360.431 159.963 360.706 159.767 361.014 159.608C361.331 159.449 361.691 159.37 362.092 159.37C362.671 159.37 363.128 159.533 363.464 159.86C363.809 160.177 363.982 160.653 363.982 161.288C363.982 161.475 363.963 161.661 363.926 161.848C363.898 162.035 363.865 162.231 363.828 162.436L362.848 167H361.616L362.61 162.296C362.694 161.876 362.736 161.568 362.736 161.372C362.736 161.064 362.657 160.826 362.498 160.658C362.349 160.481 362.101 160.392 361.756 160.392C361.439 160.392 361.093 160.504 360.72 160.728C360.356 160.943 360.015 161.297 359.698 161.792C359.39 162.287 359.147 162.945 358.97 163.766L358.284 167H357.052Z" fill="#757474"/>
<rect x="287.5" y="144.5" width="237" height="35" rx="1.5" stroke="#939393"/>
<path d="M292.642 201.97C291.569 201.97 290.724 202.329 290.108 203.048C289.492 203.767 289.184 204.751 289.184 206.002C289.184 207.243 289.469 208.228 290.038 208.956C290.617 209.675 291.48 210.034 292.628 210.034C293.057 210.034 293.468 209.997 293.86 209.922C294.252 209.847 294.639 209.754 295.022 209.642V210.734C294.649 210.874 294.261 210.977 293.86 211.042C293.468 211.107 292.997 211.14 292.446 211.14C291.429 211.14 290.579 210.93 289.898 210.51C289.217 210.09 288.703 209.493 288.358 208.718C288.022 207.943 287.854 207.033 287.854 205.988C287.854 204.98 288.036 204.093 288.4 203.328C288.773 202.553 289.319 201.951 290.038 201.522C290.757 201.083 291.629 200.864 292.656 200.864C293.711 200.864 294.63 201.06 295.414 201.452L294.91 202.516C294.602 202.376 294.257 202.25 293.874 202.138C293.501 202.026 293.09 201.97 292.642 201.97ZM303.308 203.496V211H302.3L302.118 210.006H302.062C301.819 210.398 301.483 210.687 301.054 210.874C300.624 211.051 300.167 211.14 299.682 211.14C298.776 211.14 298.095 210.925 297.638 210.496C297.18 210.057 296.952 209.362 296.952 208.41V203.496H298.198V208.326C298.198 209.521 298.753 210.118 299.864 210.118C300.694 210.118 301.268 209.885 301.586 209.418C301.912 208.951 302.076 208.279 302.076 207.402V203.496H303.308ZM310.576 208.928C310.576 209.656 310.305 210.207 309.764 210.58C309.223 210.953 308.495 211.14 307.58 211.14C307.057 211.14 306.605 211.098 306.222 211.014C305.849 210.93 305.517 210.813 305.228 210.664V209.544C305.527 209.693 305.886 209.833 306.306 209.964C306.735 210.085 307.169 210.146 307.608 210.146C308.233 210.146 308.686 210.048 308.966 209.852C309.246 209.647 309.386 209.376 309.386 209.04C309.386 208.853 309.335 208.685 309.232 208.536C309.129 208.387 308.943 208.237 308.672 208.088C308.411 207.939 308.033 207.771 307.538 207.584C307.053 207.397 306.637 207.211 306.292 207.024C305.947 206.837 305.681 206.613 305.494 206.352C305.307 206.091 305.214 205.755 305.214 205.344C305.214 204.709 305.471 204.219 305.984 203.874C306.507 203.529 307.188 203.356 308.028 203.356C308.485 203.356 308.91 203.403 309.302 203.496C309.703 203.589 310.077 203.711 310.422 203.86L310.002 204.84C309.685 204.709 309.353 204.597 309.008 204.504C308.663 204.411 308.308 204.364 307.944 204.364C307.44 204.364 307.053 204.448 306.782 204.616C306.521 204.775 306.39 204.994 306.39 205.274C306.39 205.489 306.451 205.666 306.572 205.806C306.693 205.946 306.894 206.086 307.174 206.226C307.463 206.366 307.846 206.525 308.322 206.702C308.798 206.879 309.204 207.061 309.54 207.248C309.876 207.435 310.133 207.663 310.31 207.934C310.487 208.195 310.576 208.527 310.576 208.928ZM314.895 210.132C315.082 210.132 315.273 210.118 315.469 210.09C315.665 210.062 315.824 210.025 315.945 209.978V210.916C315.815 210.981 315.628 211.033 315.385 211.07C315.143 211.117 314.909 211.14 314.685 211.14C314.293 211.14 313.929 211.075 313.593 210.944C313.267 210.804 313.001 210.566 312.795 210.23C312.59 209.894 312.487 209.423 312.487 208.816V204.448H311.423V203.86L312.501 203.37L312.991 201.774H313.719V203.496H315.889V204.448H313.719V208.788C313.719 209.245 313.827 209.586 314.041 209.81C314.265 210.025 314.55 210.132 314.895 210.132ZM323.972 207.234C323.972 208.475 323.654 209.437 323.02 210.118C322.394 210.799 321.545 211.14 320.472 211.14C319.809 211.14 319.216 210.991 318.694 210.692C318.18 210.384 317.774 209.941 317.476 209.362C317.177 208.774 317.028 208.065 317.028 207.234C317.028 205.993 317.336 205.036 317.952 204.364C318.577 203.692 319.431 203.356 320.514 203.356C321.186 203.356 321.783 203.51 322.306 203.818C322.828 204.117 323.234 204.555 323.524 205.134C323.822 205.703 323.972 206.403 323.972 207.234ZM318.302 207.234C318.302 208.121 318.474 208.825 318.82 209.348C319.174 209.861 319.734 210.118 320.5 210.118C321.256 210.118 321.811 209.861 322.166 209.348C322.52 208.825 322.698 208.121 322.698 207.234C322.698 206.347 322.52 205.652 322.166 205.148C321.811 204.644 321.251 204.392 320.486 204.392C319.72 204.392 319.165 204.644 318.82 205.148C318.474 205.652 318.302 206.347 318.302 207.234ZM334.156 203.356C335.006 203.356 335.64 203.575 336.06 204.014C336.48 204.453 336.69 205.153 336.69 206.114V211H335.472V206.17C335.472 204.985 334.964 204.392 333.946 204.392C333.218 204.392 332.696 204.602 332.378 205.022C332.07 205.442 331.916 206.053 331.916 206.856V211H330.698V206.17C330.698 204.985 330.185 204.392 329.158 204.392C328.402 204.392 327.88 204.625 327.59 205.092C327.301 205.559 327.156 206.231 327.156 207.108V211H325.924V203.496H326.918L327.1 204.518H327.17C327.404 204.126 327.716 203.837 328.108 203.65C328.51 203.454 328.934 203.356 329.382 203.356C330.558 203.356 331.324 203.776 331.678 204.616H331.748C332 204.187 332.341 203.869 332.77 203.664C333.2 203.459 333.662 203.356 334.156 203.356ZM341.906 203.356C342.541 203.356 343.092 203.496 343.558 203.776C344.025 204.056 344.38 204.453 344.622 204.966C344.874 205.47 345 206.063 345 206.744V207.486H339.862C339.881 208.335 340.096 208.984 340.506 209.432C340.926 209.871 341.51 210.09 342.256 210.09C342.732 210.09 343.152 210.048 343.516 209.964C343.89 209.871 344.272 209.74 344.664 209.572V210.65C344.282 210.818 343.904 210.939 343.53 211.014C343.157 211.098 342.714 211.14 342.2 211.14C341.482 211.14 340.852 210.995 340.31 210.706C339.769 210.417 339.344 209.987 339.036 209.418C338.738 208.849 338.588 208.144 338.588 207.304C338.588 206.483 338.724 205.778 338.994 205.19C339.274 204.602 339.662 204.149 340.156 203.832C340.66 203.515 341.244 203.356 341.906 203.356ZM341.892 204.364C341.304 204.364 340.838 204.555 340.492 204.938C340.156 205.311 339.956 205.834 339.89 206.506H343.712C343.703 205.871 343.554 205.358 343.264 204.966C342.975 204.565 342.518 204.364 341.892 204.364ZM350.411 203.356C350.551 203.356 350.7 203.365 350.859 203.384C351.017 203.393 351.162 203.412 351.293 203.44L351.139 204.574C351.017 204.546 350.882 204.523 350.733 204.504C350.583 204.485 350.448 204.476 350.327 204.476C349.944 204.476 349.585 204.583 349.249 204.798C348.913 205.003 348.642 205.297 348.437 205.68C348.241 206.053 348.143 206.492 348.143 206.996V211H346.911V203.496H347.919L348.059 204.868H348.115C348.348 204.457 348.656 204.103 349.039 203.804C349.431 203.505 349.888 203.356 350.411 203.356ZM360.783 201.97C359.709 201.97 358.865 202.329 358.249 203.048C357.633 203.767 357.325 204.751 357.325 206.002C357.325 207.243 357.609 208.228 358.179 208.956C358.757 209.675 359.621 210.034 360.769 210.034C361.198 210.034 361.609 209.997 362.001 209.922C362.393 209.847 362.78 209.754 363.163 209.642V210.734C362.789 210.874 362.402 210.977 362.001 211.042C361.609 211.107 361.137 211.14 360.587 211.14C359.569 211.14 358.72 210.93 358.039 210.51C357.357 210.09 356.844 209.493 356.499 208.718C356.163 207.943 355.995 207.033 355.995 205.988C355.995 204.98 356.177 204.093 356.541 203.328C356.914 202.553 357.46 201.951 358.179 201.522C358.897 201.083 359.77 200.864 360.797 200.864C361.851 200.864 362.771 201.06 363.555 201.452L363.051 202.516C362.743 202.376 362.397 202.25 362.015 202.138C361.641 202.026 361.231 201.97 360.783 201.97ZM368.018 203.37C368.933 203.37 369.61 203.571 370.048 203.972C370.487 204.373 370.706 205.013 370.706 205.89V211H369.81L369.572 209.936H369.516C369.19 210.347 368.844 210.65 368.48 210.846C368.116 211.042 367.622 211.14 366.996 211.14C366.315 211.14 365.75 210.963 365.302 210.608C364.854 210.244 364.63 209.679 364.63 208.914C364.63 208.167 364.924 207.593 365.512 207.192C366.1 206.781 367.006 206.557 368.228 206.52L369.502 206.478V206.03C369.502 205.405 369.367 204.971 369.096 204.728C368.826 204.485 368.443 204.364 367.948 204.364C367.556 204.364 367.183 204.425 366.828 204.546C366.474 204.658 366.142 204.789 365.834 204.938L365.456 204.014C365.783 203.837 366.17 203.687 366.618 203.566C367.066 203.435 367.533 203.37 368.018 203.37ZM369.488 207.332L368.382 207.374C367.449 207.411 366.8 207.561 366.436 207.822C366.082 208.083 365.904 208.452 365.904 208.928C365.904 209.348 366.03 209.656 366.282 209.852C366.544 210.048 366.875 210.146 367.276 210.146C367.902 210.146 368.424 209.973 368.844 209.628C369.274 209.273 369.488 208.732 369.488 208.004V207.332ZM376.524 203.356C376.664 203.356 376.813 203.365 376.972 203.384C377.131 203.393 377.275 203.412 377.406 203.44L377.252 204.574C377.131 204.546 376.995 204.523 376.846 204.504C376.697 204.485 376.561 204.476 376.44 204.476C376.057 204.476 375.698 204.583 375.362 204.798C375.026 205.003 374.755 205.297 374.55 205.68C374.354 206.053 374.256 206.492 374.256 206.996V211H373.024V203.496H374.032L374.172 204.868H374.228C374.461 204.457 374.769 204.103 375.152 203.804C375.544 203.505 376.001 203.356 376.524 203.356ZM381.432 203.356C382.066 203.356 382.617 203.496 383.084 203.776C383.55 204.056 383.905 204.453 384.148 204.966C384.4 205.47 384.526 206.063 384.526 206.744V207.486H379.388C379.406 208.335 379.621 208.984 380.032 209.432C380.452 209.871 381.035 210.09 381.782 210.09C382.258 210.09 382.678 210.048 383.042 209.964C383.415 209.871 383.798 209.74 384.19 209.572V210.65C383.807 210.818 383.429 210.939 383.056 211.014C382.682 211.098 382.239 211.14 381.726 211.14C381.007 211.14 380.377 210.995 379.836 210.706C379.294 210.417 378.87 209.987 378.562 209.418C378.263 208.849 378.114 208.144 378.114 207.304C378.114 206.483 378.249 205.778 378.52 205.19C378.8 204.602 379.187 204.149 379.682 203.832C380.186 203.515 380.769 203.356 381.432 203.356ZM381.418 204.364C380.83 204.364 380.363 204.555 380.018 204.938C379.682 205.311 379.481 205.834 379.416 206.506H383.238C383.228 205.871 383.079 205.358 382.79 204.966C382.5 204.565 382.043 204.364 381.418 204.364Z" fill="black"/>
<rect width="254" height="36" transform="translate(279 224)" fill="#F1F1F1"/>
<path d="M289.618 247H288.358V237.004H293.944V238.11H289.618V241.652H293.678V242.758H289.618V247ZM296.08 236.682C296.266 236.682 296.43 236.747 296.57 236.878C296.719 236.999 296.794 237.195 296.794 237.466C296.794 237.737 296.719 237.937 296.57 238.068C296.43 238.189 296.266 238.25 296.08 238.25C295.874 238.25 295.702 238.189 295.562 238.068C295.422 237.937 295.352 237.737 295.352 237.466C295.352 237.195 295.422 236.999 295.562 236.878C295.702 236.747 295.874 236.682 296.08 236.682ZM296.682 239.496V247H295.45V239.496H296.682ZM302.671 239.356C303.567 239.356 304.244 239.575 304.701 240.014C305.158 240.453 305.387 241.153 305.387 242.114V247H304.169V242.198C304.169 240.994 303.609 240.392 302.489 240.392C301.658 240.392 301.084 240.625 300.767 241.092C300.45 241.559 300.291 242.231 300.291 243.108V247H299.059V239.496H300.053L300.235 240.518H300.305C300.548 240.126 300.884 239.837 301.313 239.65C301.742 239.454 302.195 239.356 302.671 239.356ZM310.555 239.37C311.47 239.37 312.147 239.571 312.585 239.972C313.024 240.373 313.243 241.013 313.243 241.89V247H312.347L312.109 245.936H312.053C311.727 246.347 311.381 246.65 311.017 246.846C310.653 247.042 310.159 247.14 309.533 247.14C308.852 247.14 308.287 246.963 307.839 246.608C307.391 246.244 307.167 245.679 307.167 244.914C307.167 244.167 307.461 243.593 308.049 243.192C308.637 242.781 309.543 242.557 310.765 242.52L312.039 242.478V242.03C312.039 241.405 311.904 240.971 311.633 240.728C311.363 240.485 310.98 240.364 310.485 240.364C310.093 240.364 309.72 240.425 309.365 240.546C309.011 240.658 308.679 240.789 308.371 240.938L307.993 240.014C308.32 239.837 308.707 239.687 309.155 239.566C309.603 239.435 310.07 239.37 310.555 239.37ZM312.025 243.332L310.919 243.374C309.986 243.411 309.337 243.561 308.973 243.822C308.619 244.083 308.441 244.452 308.441 244.928C308.441 245.348 308.567 245.656 308.819 245.852C309.081 246.048 309.412 246.146 309.813 246.146C310.439 246.146 310.961 245.973 311.381 245.628C311.811 245.273 312.025 244.732 312.025 244.004V243.332ZM319.173 239.356C320.069 239.356 320.746 239.575 321.203 240.014C321.66 240.453 321.889 241.153 321.889 242.114V247H320.671V242.198C320.671 240.994 320.111 240.392 318.991 240.392C318.16 240.392 317.586 240.625 317.269 241.092C316.952 241.559 316.793 242.231 316.793 243.108V247H315.561V239.496H316.555L316.737 240.518H316.807C317.05 240.126 317.386 239.837 317.815 239.65C318.244 239.454 318.697 239.356 319.173 239.356ZM327.225 247.14C326.553 247.14 325.961 247.005 325.447 246.734C324.934 246.463 324.528 246.043 324.229 245.474C323.94 244.905 323.795 244.177 323.795 243.29C323.795 242.366 323.945 241.615 324.243 241.036C324.551 240.457 324.971 240.033 325.503 239.762C326.035 239.491 326.637 239.356 327.309 239.356C327.683 239.356 328.047 239.398 328.401 239.482C328.765 239.557 329.059 239.65 329.283 239.762L328.905 240.784C328.681 240.7 328.42 240.621 328.121 240.546C327.823 240.471 327.543 240.434 327.281 240.434C325.807 240.434 325.069 241.381 325.069 243.276C325.069 244.181 325.247 244.877 325.601 245.362C325.965 245.838 326.502 246.076 327.211 246.076C327.613 246.076 327.972 246.034 328.289 245.95C328.607 245.866 328.896 245.763 329.157 245.642V246.734C328.905 246.865 328.625 246.963 328.317 247.028C328.019 247.103 327.655 247.14 327.225 247.14ZM333.84 239.356C334.475 239.356 335.025 239.496 335.492 239.776C335.959 240.056 336.313 240.453 336.556 240.966C336.808 241.47 336.934 242.063 336.934 242.744V243.486H331.796C331.815 244.335 332.029 244.984 332.44 245.432C332.86 245.871 333.443 246.09 334.19 246.09C334.666 246.09 335.086 246.048 335.45 245.964C335.823 245.871 336.206 245.74 336.598 245.572V246.65C336.215 246.818 335.837 246.939 335.464 247.014C335.091 247.098 334.647 247.14 334.134 247.14C333.415 247.14 332.785 246.995 332.244 246.706C331.703 246.417 331.278 245.987 330.97 245.418C330.671 244.849 330.522 244.144 330.522 243.304C330.522 242.483 330.657 241.778 330.928 241.19C331.208 240.602 331.595 240.149 332.09 239.832C332.594 239.515 333.177 239.356 333.84 239.356ZM333.826 240.364C333.238 240.364 332.771 240.555 332.426 240.938C332.09 241.311 331.889 241.834 331.824 242.506H335.646C335.637 241.871 335.487 241.358 335.198 240.966C334.909 240.565 334.451 240.364 333.826 240.364ZM350.657 241.904C350.657 243.593 350.195 244.867 349.271 245.726C348.356 246.575 347.078 247 345.435 247H342.649V237.004H345.729C346.728 237.004 347.596 237.191 348.333 237.564C349.08 237.937 349.654 238.488 350.055 239.216C350.456 239.944 350.657 240.84 350.657 241.904ZM349.327 241.946C349.327 240.611 348.996 239.636 348.333 239.02C347.68 238.395 346.751 238.082 345.547 238.082H343.909V245.922H345.267C347.974 245.922 349.327 244.597 349.327 241.946ZM355.606 239.356C356.24 239.356 356.791 239.496 357.258 239.776C357.724 240.056 358.079 240.453 358.322 240.966C358.574 241.47 358.7 242.063 358.7 242.744V243.486H353.562C353.58 244.335 353.795 244.984 354.206 245.432C354.626 245.871 355.209 246.09 355.956 246.09C356.432 246.09 356.852 246.048 357.216 245.964C357.589 245.871 357.972 245.74 358.364 245.572V246.65C357.981 246.818 357.603 246.939 357.23 247.014C356.856 247.098 356.413 247.14 355.9 247.14C355.181 247.14 354.551 246.995 354.01 246.706C353.468 246.417 353.044 245.987 352.736 245.418C352.437 244.849 352.288 244.144 352.288 243.304C352.288 242.483 352.423 241.778 352.694 241.19C352.974 240.602 353.361 240.149 353.856 239.832C354.36 239.515 354.943 239.356 355.606 239.356ZM355.592 240.364C355.004 240.364 354.537 240.555 354.192 240.938C353.856 241.311 353.655 241.834 353.59 242.506H357.412C357.402 241.871 357.253 241.358 356.964 240.966C356.674 240.565 356.217 240.364 355.592 240.364ZM364.18 239.356C365.104 239.356 365.846 239.678 366.406 240.322C366.975 240.966 367.26 241.937 367.26 243.234C367.26 244.513 366.975 245.483 366.406 246.146C365.846 246.809 365.099 247.14 364.166 247.14C363.587 247.14 363.107 247.033 362.724 246.818C362.351 246.603 362.057 246.347 361.842 246.048H361.758C361.767 246.207 361.781 246.407 361.8 246.65C361.828 246.893 361.842 247.103 361.842 247.28V250.36H360.61V239.496H361.618L361.786 240.518H361.842C362.066 240.191 362.36 239.916 362.724 239.692C363.088 239.468 363.573 239.356 364.18 239.356ZM363.956 240.392C363.191 240.392 362.649 240.607 362.332 241.036C362.015 241.465 361.851 242.119 361.842 242.996V243.234C361.842 244.158 361.991 244.872 362.29 245.376C362.598 245.871 363.163 246.118 363.984 246.118C364.432 246.118 364.805 245.997 365.104 245.754C365.403 245.502 365.622 245.157 365.762 244.718C365.911 244.279 365.986 243.78 365.986 243.22C365.986 242.361 365.818 241.675 365.482 241.162C365.155 240.649 364.647 240.392 363.956 240.392ZM372.065 239.37C372.98 239.37 373.657 239.571 374.095 239.972C374.534 240.373 374.753 241.013 374.753 241.89V247H373.857L373.619 245.936H373.563C373.237 246.347 372.891 246.65 372.527 246.846C372.163 247.042 371.669 247.14 371.043 247.14C370.362 247.14 369.797 246.963 369.349 246.608C368.901 246.244 368.677 245.679 368.677 244.914C368.677 244.167 368.971 243.593 369.559 243.192C370.147 242.781 371.053 242.557 372.275 242.52L373.549 242.478V242.03C373.549 241.405 373.414 240.971 373.143 240.728C372.873 240.485 372.49 240.364 371.995 240.364C371.603 240.364 371.23 240.425 370.875 240.546C370.521 240.658 370.189 240.789 369.881 240.938L369.503 240.014C369.83 239.837 370.217 239.687 370.665 239.566C371.113 239.435 371.58 239.37 372.065 239.37ZM373.535 243.332L372.429 243.374C371.496 243.411 370.847 243.561 370.483 243.822C370.129 244.083 369.951 244.452 369.951 244.928C369.951 245.348 370.077 245.656 370.329 245.852C370.591 246.048 370.922 246.146 371.323 246.146C371.949 246.146 372.471 245.973 372.891 245.628C373.321 245.273 373.535 244.732 373.535 244.004V243.332ZM380.571 239.356C380.711 239.356 380.86 239.365 381.019 239.384C381.178 239.393 381.322 239.412 381.453 239.44L381.299 240.574C381.178 240.546 381.042 240.523 380.893 240.504C380.744 240.485 380.608 240.476 380.487 240.476C380.104 240.476 379.745 240.583 379.409 240.798C379.073 241.003 378.802 241.297 378.597 241.68C378.401 242.053 378.303 242.492 378.303 242.996V247H377.071V239.496H378.079L378.219 240.868H378.275C378.508 240.457 378.816 240.103 379.199 239.804C379.591 239.505 380.048 239.356 380.571 239.356ZM385.36 246.132C385.547 246.132 385.738 246.118 385.934 246.09C386.13 246.062 386.289 246.025 386.41 245.978V246.916C386.279 246.981 386.093 247.033 385.85 247.07C385.607 247.117 385.374 247.14 385.15 247.14C384.758 247.14 384.394 247.075 384.058 246.944C383.731 246.804 383.465 246.566 383.26 246.23C383.055 245.894 382.952 245.423 382.952 244.816V240.448H381.888V239.86L382.966 239.37L383.456 237.774H384.184V239.496H386.354V240.448H384.184V244.788C384.184 245.245 384.291 245.586 384.506 245.81C384.73 246.025 385.015 246.132 385.36 246.132ZM396.145 239.356C396.994 239.356 397.629 239.575 398.049 240.014C398.469 240.453 398.679 241.153 398.679 242.114V247H397.461V242.17C397.461 240.985 396.952 240.392 395.935 240.392C395.207 240.392 394.684 240.602 394.367 241.022C394.059 241.442 393.905 242.053 393.905 242.856V247H392.687V242.17C392.687 240.985 392.173 240.392 391.147 240.392C390.391 240.392 389.868 240.625 389.579 241.092C389.289 241.559 389.145 242.231 389.145 243.108V247H387.913V239.496H388.907L389.089 240.518H389.159C389.392 240.126 389.705 239.837 390.097 239.65C390.498 239.454 390.923 239.356 391.371 239.356C392.547 239.356 393.312 239.776 393.667 240.616H393.737C393.989 240.187 394.329 239.869 394.759 239.664C395.188 239.459 395.65 239.356 396.145 239.356ZM403.895 239.356C404.529 239.356 405.08 239.496 405.547 239.776C406.013 240.056 406.368 240.453 406.611 240.966C406.863 241.47 406.989 242.063 406.989 242.744V243.486H401.851C401.869 244.335 402.084 244.984 402.495 245.432C402.915 245.871 403.498 246.09 404.245 246.09C404.721 246.09 405.141 246.048 405.505 245.964C405.878 245.871 406.261 245.74 406.653 245.572V246.65C406.27 246.818 405.892 246.939 405.519 247.014C405.145 247.098 404.702 247.14 404.189 247.14C403.47 247.14 402.84 246.995 402.299 246.706C401.757 246.417 401.333 245.987 401.025 245.418C400.726 244.849 400.577 244.144 400.577 243.304C400.577 242.483 400.712 241.778 400.983 241.19C401.263 240.602 401.65 240.149 402.145 239.832C402.649 239.515 403.232 239.356 403.895 239.356ZM403.881 240.364C403.293 240.364 402.826 240.555 402.481 240.938C402.145 241.311 401.944 241.834 401.879 242.506H405.701C405.691 241.871 405.542 241.358 405.253 240.966C404.963 240.565 404.506 240.364 403.881 240.364ZM412.511 239.356C413.407 239.356 414.084 239.575 414.541 240.014C414.998 240.453 415.227 241.153 415.227 242.114V247H414.009V242.198C414.009 240.994 413.449 240.392 412.329 240.392C411.498 240.392 410.924 240.625 410.607 241.092C410.29 241.559 410.131 242.231 410.131 243.108V247H408.899V239.496H409.893L410.075 240.518H410.145C410.388 240.126 410.724 239.837 411.153 239.65C411.582 239.454 412.035 239.356 412.511 239.356ZM420.059 246.132C420.246 246.132 420.437 246.118 420.633 246.09C420.829 246.062 420.988 246.025 421.109 245.978V246.916C420.979 246.981 420.792 247.033 420.549 247.07C420.307 247.117 420.073 247.14 419.849 247.14C419.457 247.14 419.093 247.075 418.757 246.944C418.431 246.804 418.165 246.566 417.959 246.23C417.754 245.894 417.651 245.423 417.651 244.816V240.448H416.587V239.86L417.665 239.37L418.155 237.774H418.883V239.496H421.053V240.448H418.883V244.788C418.883 245.245 418.991 245.586 419.205 245.81C419.429 246.025 419.714 246.132 420.059 246.132Z" fill="black"/>
<path d="M514.412 247.962C514.312 247.962 514.212 247.913 514.162 247.863C514.013 247.713 514.013 247.462 514.162 247.312L519.462 242.012L514.112 236.662C513.963 236.512 513.963 236.263 514.112 236.113C514.262 235.962 514.512 235.962 514.662 236.113L520.262 241.712C520.312 241.762 520.362 241.862 520.362 241.962C520.362 242.062 520.312 242.162 520.262 242.212L514.662 247.863C514.562 247.963 514.463 247.962 514.412 247.962Z" fill="black"/>
<path d="M292.642 273.97C291.569 273.97 290.724 274.329 290.108 275.048C289.492 275.767 289.184 276.751 289.184 278.002C289.184 279.243 289.469 280.228 290.038 280.956C290.617 281.675 291.48 282.034 292.628 282.034C293.057 282.034 293.468 281.997 293.86 281.922C294.252 281.847 294.639 281.754 295.022 281.642V282.734C294.649 282.874 294.261 282.977 293.86 283.042C293.468 283.107 292.997 283.14 292.446 283.14C291.429 283.14 290.579 282.93 289.898 282.51C289.217 282.09 288.703 281.493 288.358 280.718C288.022 279.943 287.854 279.033 287.854 277.988C287.854 276.98 288.036 276.093 288.4 275.328C288.773 274.553 289.319 273.951 290.038 273.522C290.757 273.083 291.629 272.864 292.656 272.864C293.711 272.864 294.63 273.06 295.414 273.452L294.91 274.516C294.602 274.376 294.257 274.25 293.874 274.138C293.501 274.026 293.09 273.97 292.642 273.97ZM303.56 279.234C303.56 280.475 303.242 281.437 302.608 282.118C301.982 282.799 301.133 283.14 300.06 283.14C299.397 283.14 298.804 282.991 298.282 282.692C297.768 282.384 297.362 281.941 297.064 281.362C296.765 280.774 296.616 280.065 296.616 279.234C296.616 277.993 296.924 277.036 297.54 276.364C298.165 275.692 299.019 275.356 300.102 275.356C300.774 275.356 301.371 275.51 301.894 275.818C302.416 276.117 302.822 276.555 303.112 277.134C303.41 277.703 303.56 278.403 303.56 279.234ZM297.89 279.234C297.89 280.121 298.062 280.825 298.408 281.348C298.762 281.861 299.322 282.118 300.088 282.118C300.844 282.118 301.399 281.861 301.754 281.348C302.108 280.825 302.286 280.121 302.286 279.234C302.286 278.347 302.108 277.652 301.754 277.148C301.399 276.644 300.839 276.392 300.074 276.392C299.308 276.392 298.753 276.644 298.408 277.148C298.062 277.652 297.89 278.347 297.89 279.234ZM313.744 275.356C314.594 275.356 315.228 275.575 315.648 276.014C316.068 276.453 316.278 277.153 316.278 278.114V283H315.06V278.17C315.06 276.985 314.552 276.392 313.534 276.392C312.806 276.392 312.284 276.602 311.966 277.022C311.658 277.442 311.504 278.053 311.504 278.856V283H310.286V278.17C310.286 276.985 309.773 276.392 308.746 276.392C307.99 276.392 307.468 276.625 307.178 277.092C306.889 277.559 306.744 278.231 306.744 279.108V283H305.512V275.496H306.506L306.688 276.518H306.758C306.992 276.126 307.304 275.837 307.696 275.65C308.098 275.454 308.522 275.356 308.97 275.356C310.146 275.356 310.912 275.776 311.266 276.616H311.336C311.588 276.187 311.929 275.869 312.358 275.664C312.788 275.459 313.25 275.356 313.744 275.356ZM322.166 275.356C323.09 275.356 323.832 275.678 324.392 276.322C324.962 276.966 325.246 277.937 325.246 279.234C325.246 280.513 324.962 281.483 324.392 282.146C323.832 282.809 323.086 283.14 322.152 283.14C321.574 283.14 321.093 283.033 320.71 282.818C320.337 282.603 320.043 282.347 319.828 282.048H319.744C319.754 282.207 319.768 282.407 319.786 282.65C319.814 282.893 319.828 283.103 319.828 283.28V286.36H318.596V275.496H319.604L319.772 276.518H319.828C320.052 276.191 320.346 275.916 320.71 275.692C321.074 275.468 321.56 275.356 322.166 275.356ZM321.942 276.392C321.177 276.392 320.636 276.607 320.318 277.036C320.001 277.465 319.838 278.119 319.828 278.996V279.234C319.828 280.158 319.978 280.872 320.276 281.376C320.584 281.871 321.149 282.118 321.97 282.118C322.418 282.118 322.792 281.997 323.09 281.754C323.389 281.502 323.608 281.157 323.748 280.718C323.898 280.279 323.972 279.78 323.972 279.22C323.972 278.361 323.804 277.675 323.468 277.162C323.142 276.649 322.633 276.392 321.942 276.392ZM328.442 283H327.21V272.36H328.442V283ZM333.661 275.37C334.576 275.37 335.252 275.571 335.691 275.972C336.13 276.373 336.349 277.013 336.349 277.89V283H335.453L335.215 281.936H335.159C334.832 282.347 334.487 282.65 334.123 282.846C333.759 283.042 333.264 283.14 332.639 283.14C331.958 283.14 331.393 282.963 330.945 282.608C330.497 282.244 330.273 281.679 330.273 280.914C330.273 280.167 330.567 279.593 331.155 279.192C331.743 278.781 332.648 278.557 333.871 278.52L335.145 278.478V278.03C335.145 277.405 335.01 276.971 334.739 276.728C334.468 276.485 334.086 276.364 333.591 276.364C333.199 276.364 332.826 276.425 332.471 276.546C332.116 276.658 331.785 276.789 331.477 276.938L331.099 276.014C331.426 275.837 331.813 275.687 332.261 275.566C332.709 275.435 333.176 275.37 333.661 275.37ZM335.131 279.332L334.025 279.374C333.092 279.411 332.443 279.561 332.079 279.822C331.724 280.083 331.547 280.452 331.547 280.928C331.547 281.348 331.673 281.656 331.925 281.852C332.186 282.048 332.518 282.146 332.919 282.146C333.544 282.146 334.067 281.973 334.487 281.628C334.916 281.273 335.131 280.732 335.131 280.004V279.332ZM339.297 272.682C339.483 272.682 339.647 272.747 339.787 272.878C339.936 272.999 340.011 273.195 340.011 273.466C340.011 273.737 339.936 273.937 339.787 274.068C339.647 274.189 339.483 274.25 339.297 274.25C339.091 274.25 338.919 274.189 338.779 274.068C338.639 273.937 338.569 273.737 338.569 273.466C338.569 273.195 338.639 272.999 338.779 272.878C338.919 272.747 339.091 272.682 339.297 272.682ZM339.899 275.496V283H338.667V275.496H339.899ZM345.888 275.356C346.784 275.356 347.461 275.575 347.918 276.014C348.375 276.453 348.604 277.153 348.604 278.114V283H347.386V278.198C347.386 276.994 346.826 276.392 345.706 276.392C344.875 276.392 344.301 276.625 343.984 277.092C343.667 277.559 343.508 278.231 343.508 279.108V283H342.276V275.496H343.27L343.452 276.518H343.522C343.765 276.126 344.101 275.837 344.53 275.65C344.959 275.454 345.412 275.356 345.888 275.356ZM353.436 282.132C353.623 282.132 353.814 282.118 354.01 282.09C354.206 282.062 354.365 282.025 354.486 281.978V282.916C354.356 282.981 354.169 283.033 353.926 283.07C353.684 283.117 353.45 283.14 353.226 283.14C352.834 283.14 352.47 283.075 352.134 282.944C351.808 282.804 351.542 282.566 351.336 282.23C351.131 281.894 351.028 281.423 351.028 280.816V276.448H349.964V275.86L351.042 275.37L351.532 273.774H352.26V275.496H354.43V276.448H352.26V280.788C352.26 281.245 352.368 281.586 352.582 281.81C352.806 282.025 353.091 282.132 353.436 282.132ZM360.875 280.928C360.875 281.656 360.604 282.207 360.063 282.58C359.521 282.953 358.793 283.14 357.879 283.14C357.356 283.14 356.903 283.098 356.521 283.014C356.147 282.93 355.816 282.813 355.527 282.664V281.544C355.825 281.693 356.185 281.833 356.605 281.964C357.034 282.085 357.468 282.146 357.907 282.146C358.532 282.146 358.985 282.048 359.265 281.852C359.545 281.647 359.685 281.376 359.685 281.04C359.685 280.853 359.633 280.685 359.531 280.536C359.428 280.387 359.241 280.237 358.971 280.088C358.709 279.939 358.331 279.771 357.837 279.584C357.351 279.397 356.936 279.211 356.591 279.024C356.245 278.837 355.979 278.613 355.793 278.352C355.606 278.091 355.513 277.755 355.513 277.344C355.513 276.709 355.769 276.219 356.283 275.874C356.805 275.529 357.487 275.356 358.327 275.356C358.784 275.356 359.209 275.403 359.601 275.496C360.002 275.589 360.375 275.711 360.721 275.86L360.301 276.84C359.983 276.709 359.652 276.597 359.307 276.504C358.961 276.411 358.607 276.364 358.243 276.364C357.739 276.364 357.351 276.448 357.081 276.616C356.819 276.775 356.689 276.994 356.689 277.274C356.689 277.489 356.749 277.666 356.871 277.806C356.992 277.946 357.193 278.086 357.473 278.226C357.762 278.366 358.145 278.525 358.621 278.702C359.097 278.879 359.503 279.061 359.839 279.248C360.175 279.435 360.431 279.663 360.609 279.934C360.786 280.195 360.875 280.527 360.875 280.928ZM374.501 277.904C374.501 279.593 374.039 280.867 373.115 281.726C372.2 282.575 370.921 283 369.279 283H366.493V273.004H369.573C370.571 273.004 371.439 273.191 372.177 273.564C372.923 273.937 373.497 274.488 373.899 275.216C374.3 275.944 374.501 276.84 374.501 277.904ZM373.171 277.946C373.171 276.611 372.839 275.636 372.177 275.02C371.523 274.395 370.595 274.082 369.391 274.082H367.753V281.922H369.111C371.817 281.922 373.171 280.597 373.171 277.946ZM379.449 275.356C380.084 275.356 380.635 275.496 381.101 275.776C381.568 276.056 381.923 276.453 382.165 276.966C382.417 277.47 382.543 278.063 382.543 278.744V279.486H377.405C377.424 280.335 377.639 280.984 378.049 281.432C378.469 281.871 379.053 282.09 379.799 282.09C380.275 282.09 380.695 282.048 381.059 281.964C381.433 281.871 381.815 281.74 382.207 281.572V282.65C381.825 282.818 381.447 282.939 381.073 283.014C380.7 283.098 380.257 283.14 379.743 283.14C379.025 283.14 378.395 282.995 377.853 282.706C377.312 282.417 376.887 281.987 376.579 281.418C376.281 280.849 376.131 280.144 376.131 279.304C376.131 278.483 376.267 277.778 376.537 277.19C376.817 276.602 377.205 276.149 377.699 275.832C378.203 275.515 378.787 275.356 379.449 275.356ZM379.435 276.364C378.847 276.364 378.381 276.555 378.035 276.938C377.699 277.311 377.499 277.834 377.433 278.506H381.255C381.246 277.871 381.097 277.358 380.807 276.966C380.518 276.565 380.061 276.364 379.435 276.364ZM388.024 275.356C388.948 275.356 389.69 275.678 390.25 276.322C390.819 276.966 391.104 277.937 391.104 279.234C391.104 280.513 390.819 281.483 390.25 282.146C389.69 282.809 388.943 283.14 388.01 283.14C387.431 283.14 386.95 283.033 386.568 282.818C386.194 282.603 385.9 282.347 385.686 282.048H385.602C385.611 282.207 385.625 282.407 385.644 282.65C385.672 282.893 385.686 283.103 385.686 283.28V286.36H384.454V275.496H385.462L385.63 276.518H385.686C385.91 276.191 386.204 275.916 386.568 275.692C386.932 275.468 387.417 275.356 388.024 275.356ZM387.8 276.392C387.034 276.392 386.493 276.607 386.176 277.036C385.858 277.465 385.695 278.119 385.686 278.996V279.234C385.686 280.158 385.835 280.872 386.134 281.376C386.442 281.871 387.006 282.118 387.828 282.118C388.276 282.118 388.649 281.997 388.948 281.754C389.246 281.502 389.466 281.157 389.606 280.718C389.755 280.279 389.83 279.78 389.83 279.22C389.83 278.361 389.662 277.675 389.326 277.162C388.999 276.649 388.49 276.392 387.8 276.392ZM395.909 275.37C396.824 275.37 397.5 275.571 397.939 275.972C398.378 276.373 398.597 277.013 398.597 277.89V283H397.701L397.463 281.936H397.407C397.08 282.347 396.735 282.65 396.371 282.846C396.007 283.042 395.512 283.14 394.887 283.14C394.206 283.14 393.641 282.963 393.193 282.608C392.745 282.244 392.521 281.679 392.521 280.914C392.521 280.167 392.815 279.593 393.403 279.192C393.991 278.781 394.896 278.557 396.119 278.52L397.393 278.478V278.03C397.393 277.405 397.258 276.971 396.987 276.728C396.716 276.485 396.334 276.364 395.839 276.364C395.447 276.364 395.074 276.425 394.719 276.546C394.364 276.658 394.033 276.789 393.725 276.938L393.347 276.014C393.674 275.837 394.061 275.687 394.509 275.566C394.957 275.435 395.424 275.37 395.909 275.37ZM397.379 279.332L396.273 279.374C395.34 279.411 394.691 279.561 394.327 279.822C393.972 280.083 393.795 280.452 393.795 280.928C393.795 281.348 393.921 281.656 394.173 281.852C394.434 282.048 394.766 282.146 395.167 282.146C395.792 282.146 396.315 281.973 396.735 281.628C397.164 281.273 397.379 280.732 397.379 280.004V279.332ZM404.415 275.356C404.555 275.356 404.704 275.365 404.863 275.384C405.021 275.393 405.166 275.412 405.297 275.44L405.143 276.574C405.021 276.546 404.886 276.523 404.737 276.504C404.587 276.485 404.452 276.476 404.331 276.476C403.948 276.476 403.589 276.583 403.253 276.798C402.917 277.003 402.646 277.297 402.441 277.68C402.245 278.053 402.147 278.492 402.147 278.996V283H400.915V275.496H401.923L402.063 276.868H402.119C402.352 276.457 402.66 276.103 403.043 275.804C403.435 275.505 403.892 275.356 404.415 275.356ZM409.204 282.132C409.39 282.132 409.582 282.118 409.778 282.09C409.974 282.062 410.132 282.025 410.254 281.978V282.916C410.123 282.981 409.936 283.033 409.694 283.07C409.451 283.117 409.218 283.14 408.994 283.14C408.602 283.14 408.238 283.075 407.902 282.944C407.575 282.804 407.309 282.566 407.104 282.23C406.898 281.894 406.796 281.423 406.796 280.816V276.448H405.732V275.86L406.81 275.37L407.3 273.774H408.028V275.496H410.198V276.448H408.028V280.788C408.028 281.245 408.135 281.586 408.35 281.81C408.574 282.025 408.858 282.132 409.204 282.132ZM419.988 275.356C420.838 275.356 421.472 275.575 421.892 276.014C422.312 276.453 422.522 277.153 422.522 278.114V283H421.304V278.17C421.304 276.985 420.796 276.392 419.778 276.392C419.05 276.392 418.528 276.602 418.21 277.022C417.902 277.442 417.748 278.053 417.748 278.856V283H416.53V278.17C416.53 276.985 416.017 276.392 414.99 276.392C414.234 276.392 413.712 276.625 413.422 277.092C413.133 277.559 412.988 278.231 412.988 279.108V283H411.756V275.496H412.75L412.932 276.518H413.002C413.236 276.126 413.548 275.837 413.94 275.65C414.342 275.454 414.766 275.356 415.214 275.356C416.39 275.356 417.156 275.776 417.51 276.616H417.58C417.832 276.187 418.173 275.869 418.602 275.664C419.032 275.459 419.494 275.356 419.988 275.356ZM427.738 275.356C428.373 275.356 428.924 275.496 429.39 275.776C429.857 276.056 430.212 276.453 430.454 276.966C430.706 277.47 430.832 278.063 430.832 278.744V279.486H425.694C425.713 280.335 425.928 280.984 426.338 281.432C426.758 281.871 427.342 282.09 428.088 282.09C428.564 282.09 428.984 282.048 429.348 281.964C429.722 281.871 430.104 281.74 430.496 281.572V282.65C430.114 282.818 429.736 282.939 429.362 283.014C428.989 283.098 428.546 283.14 428.032 283.14C427.314 283.14 426.684 282.995 426.142 282.706C425.601 282.417 425.176 281.987 424.868 281.418C424.57 280.849 424.42 280.144 424.42 279.304C424.42 278.483 424.556 277.778 424.826 277.19C425.106 276.602 425.494 276.149 425.988 275.832C426.492 275.515 427.076 275.356 427.738 275.356ZM427.724 276.364C427.136 276.364 426.67 276.555 426.324 276.938C425.988 277.311 425.788 277.834 425.722 278.506H429.544C429.535 277.871 429.386 277.358 429.096 276.966C428.807 276.565 428.35 276.364 427.724 276.364ZM436.355 275.356C437.251 275.356 437.927 275.575 438.385 276.014C438.842 276.453 439.071 277.153 439.071 278.114V283H437.853V278.198C437.853 276.994 437.293 276.392 436.173 276.392C435.342 276.392 434.768 276.625 434.451 277.092C434.133 277.559 433.975 278.231 433.975 279.108V283H432.743V275.496H433.737L433.919 276.518H433.989C434.231 276.126 434.567 275.837 434.997 275.65C435.426 275.454 435.879 275.356 436.355 275.356ZM443.903 282.132C444.09 282.132 444.281 282.118 444.477 282.09C444.673 282.062 444.832 282.025 444.953 281.978V282.916C444.822 282.981 444.636 283.033 444.393 283.07C444.15 283.117 443.917 283.14 443.693 283.14C443.301 283.14 442.937 283.075 442.601 282.944C442.274 282.804 442.008 282.566 441.803 282.23C441.598 281.894 441.495 281.423 441.495 280.816V276.448H440.431V275.86L441.509 275.37L441.999 273.774H442.727V275.496H444.897V276.448H442.727V280.788C442.727 281.245 442.834 281.586 443.049 281.81C443.273 282.025 443.558 282.132 443.903 282.132Z" fill="black"/>
</g>
<rect x="278.5" y="135.5" width="255" height="161" rx="4.5" stroke="black" stroke-opacity="0.15"/>
</g>
<g filter="url(#filter2_d_7837_524398)">
<rect x="25" y="224" width="254" height="108" rx="4" fill="white"/>
<path d="M43.08 241.988C43.08 243.211 42.8327 244.256 42.338 245.124C41.8527 245.983 41.1293 246.571 40.168 246.888L42.562 249.38H40.756L38.824 247.126C38.768 247.126 38.7073 247.126 38.642 247.126C38.586 247.135 38.53 247.14 38.474 247.14C37.438 247.14 36.5747 246.925 35.884 246.496C35.2027 246.067 34.694 245.465 34.358 244.69C34.022 243.915 33.854 243.01 33.854 241.974C33.854 240.957 34.022 240.065 34.358 239.3C34.694 238.525 35.2027 237.923 35.884 237.494C36.5747 237.065 37.4427 236.85 38.488 236.85C39.4867 236.85 40.3267 237.065 41.008 237.494C41.6893 237.914 42.2027 238.511 42.548 239.286C42.9027 240.051 43.08 240.952 43.08 241.988ZM35.184 241.988C35.184 243.248 35.45 244.242 35.982 244.97C36.514 245.689 37.3447 246.048 38.474 246.048C39.6033 246.048 40.4293 245.689 40.952 244.97C41.484 244.242 41.75 243.248 41.75 241.988C41.75 240.728 41.4887 239.743 40.966 239.034C40.4433 238.315 39.6173 237.956 38.488 237.956C37.3493 237.956 36.514 238.315 35.982 239.034C35.45 239.743 35.184 240.728 35.184 241.988ZM51.3995 239.496V247H50.3915L50.2095 246.006H50.1535C49.9108 246.398 49.5748 246.687 49.1455 246.874C48.7162 247.051 48.2588 247.14 47.7735 247.14C46.8682 247.14 46.1868 246.925 45.7295 246.496C45.2722 246.057 45.0435 245.362 45.0435 244.41V239.496H46.2895V244.326C46.2895 245.521 46.8448 246.118 47.9555 246.118C48.7862 246.118 49.3602 245.885 49.6775 245.418C50.0042 244.951 50.1675 244.279 50.1675 243.402V239.496H51.3995ZM60.3058 243.234C60.3058 244.475 59.9885 245.437 59.3538 246.118C58.7285 246.799 57.8791 247.14 56.8058 247.14C56.1431 247.14 55.5505 246.991 55.0278 246.692C54.5145 246.384 54.1085 245.941 53.8098 245.362C53.5111 244.774 53.3618 244.065 53.3618 243.234C53.3618 241.993 53.6698 241.036 54.2858 240.364C54.9111 239.692 55.7651 239.356 56.8478 239.356C57.5198 239.356 58.1171 239.51 58.6398 239.818C59.1625 240.117 59.5685 240.555 59.8578 241.134C60.1565 241.703 60.3058 242.403 60.3058 243.234ZM54.6358 243.234C54.6358 244.121 54.8085 244.825 55.1538 245.348C55.5085 245.861 56.0685 246.118 56.8338 246.118C57.5898 246.118 58.1451 245.861 58.4998 245.348C58.8545 244.825 59.0318 244.121 59.0318 243.234C59.0318 242.347 58.8545 241.652 58.4998 241.148C58.1451 240.644 57.5851 240.392 56.8198 240.392C56.0545 240.392 55.4991 240.644 55.1538 241.148C54.8085 241.652 54.6358 242.347 54.6358 243.234ZM64.7644 246.132C64.951 246.132 65.1424 246.118 65.3384 246.09C65.5344 246.062 65.693 246.025 65.8144 245.978V246.916C65.6837 246.981 65.497 247.033 65.2544 247.07C65.0117 247.117 64.7784 247.14 64.5544 247.14C64.1624 247.14 63.7984 247.075 63.4624 246.944C63.1357 246.804 62.8697 246.566 62.6644 246.23C62.459 245.894 62.3564 245.423 62.3564 244.816V240.448H61.2924V239.86L62.3704 239.37L62.8604 237.774H63.5884V239.496H65.7584V240.448H63.5884V244.788C63.5884 245.245 63.6957 245.586 63.9104 245.81C64.1344 246.025 64.419 246.132 64.7644 246.132ZM70.215 239.356C70.8496 239.356 71.4003 239.496 71.867 239.776C72.3336 240.056 72.6883 240.453 72.931 240.966C73.183 241.47 73.309 242.063 73.309 242.744V243.486H68.171C68.1896 244.335 68.4043 244.984 68.815 245.432C69.235 245.871 69.8183 246.09 70.565 246.09C71.041 246.09 71.461 246.048 71.825 245.964C72.1983 245.871 72.581 245.74 72.973 245.572V246.65C72.5903 246.818 72.2123 246.939 71.839 247.014C71.4656 247.098 71.0223 247.14 70.509 247.14C69.7903 247.14 69.1603 246.995 68.619 246.706C68.0776 246.417 67.653 245.987 67.345 245.418C67.0463 244.849 66.897 244.144 66.897 243.304C66.897 242.483 67.0323 241.778 67.303 241.19C67.583 240.602 67.9703 240.149 68.465 239.832C68.969 239.515 69.5523 239.356 70.215 239.356ZM70.201 240.364C69.613 240.364 69.1463 240.555 68.801 240.938C68.465 241.311 68.2643 241.834 68.199 242.506H72.021C72.0116 241.871 71.8623 241.358 71.573 240.966C71.2836 240.565 70.8263 240.364 70.201 240.364ZM80.1053 244.928C80.1053 245.656 79.8346 246.207 79.2933 246.58C78.752 246.953 78.024 247.14 77.1093 247.14C76.5866 247.14 76.134 247.098 75.7513 247.014C75.378 246.93 75.0466 246.813 74.7573 246.664V245.544C75.056 245.693 75.4153 245.833 75.8353 245.964C76.2646 246.085 76.6986 246.146 77.1373 246.146C77.7626 246.146 78.2153 246.048 78.4953 245.852C78.7753 245.647 78.9153 245.376 78.9153 245.04C78.9153 244.853 78.864 244.685 78.7613 244.536C78.6586 244.387 78.472 244.237 78.2013 244.088C77.94 243.939 77.562 243.771 77.0673 243.584C76.582 243.397 76.1666 243.211 75.8213 243.024C75.476 242.837 75.21 242.613 75.0233 242.352C74.8366 242.091 74.7433 241.755 74.7433 241.344C74.7433 240.709 75 240.219 75.5133 239.874C76.036 239.529 76.7173 239.356 77.5573 239.356C78.0146 239.356 78.4393 239.403 78.8313 239.496C79.2326 239.589 79.606 239.711 79.9513 239.86L79.5313 240.84C79.214 240.709 78.8826 240.597 78.5373 240.504C78.192 240.411 77.8373 240.364 77.4733 240.364C76.9693 240.364 76.582 240.448 76.3113 240.616C76.05 240.775 75.9193 240.994 75.9193 241.274C75.9193 241.489 75.98 241.666 76.1013 241.806C76.2226 241.946 76.4233 242.086 76.7033 242.226C76.9926 242.366 77.3753 242.525 77.8513 242.702C78.3273 242.879 78.7333 243.061 79.0693 243.248C79.4053 243.435 79.662 243.663 79.8393 243.934C80.0166 244.195 80.1053 244.527 80.1053 244.928Z" fill="black"/>
<path d="M40.028 280.326C40.028 281.213 39.706 281.903 39.062 282.398C38.418 282.893 37.55 283.14 36.458 283.14C35.898 283.14 35.38 283.098 34.904 283.014C34.428 282.93 34.0313 282.813 33.714 282.664V281.46C34.05 281.609 34.4653 281.745 34.96 281.866C35.464 281.987 35.982 282.048 36.514 282.048C37.2513 282.048 37.8113 281.903 38.194 281.614C38.5767 281.325 38.768 280.933 38.768 280.438C38.768 280.111 38.698 279.836 38.558 279.612C38.418 279.388 38.1753 279.183 37.83 278.996C37.4847 278.809 37.0133 278.604 36.416 278.38C35.5573 278.072 34.9133 277.694 34.484 277.246C34.0547 276.798 33.84 276.187 33.84 275.412C33.84 274.889 33.9753 274.437 34.246 274.054C34.5167 273.671 34.89 273.377 35.366 273.172C35.842 272.967 36.3973 272.864 37.032 272.864C37.5733 272.864 38.0727 272.915 38.53 273.018C38.9873 273.121 39.4073 273.256 39.79 273.424L39.398 274.502C39.0527 274.353 38.6747 274.227 38.264 274.124C37.8533 274.021 37.4333 273.97 37.004 273.97C36.3787 273.97 35.9073 274.105 35.59 274.376C35.2727 274.637 35.114 274.987 35.114 275.426C35.114 275.762 35.184 276.042 35.324 276.266C35.464 276.49 35.6927 276.695 36.01 276.882C36.3273 277.059 36.7567 277.246 37.298 277.442C37.886 277.657 38.3807 277.89 38.782 278.142C39.1927 278.385 39.5007 278.679 39.706 279.024C39.9207 279.369 40.028 279.803 40.028 280.326ZM44.7156 275.37C45.6303 275.37 46.3069 275.571 46.7456 275.972C47.1843 276.373 47.4036 277.013 47.4036 277.89V283H46.5076L46.2696 281.936H46.2136C45.8869 282.347 45.5416 282.65 45.1776 282.846C44.8136 283.042 44.3189 283.14 43.6936 283.14C43.0123 283.14 42.4476 282.963 41.9996 282.608C41.5516 282.244 41.3276 281.679 41.3276 280.914C41.3276 280.167 41.6216 279.593 42.2096 279.192C42.7976 278.781 43.7029 278.557 44.9256 278.52L46.1996 278.478V278.03C46.1996 277.405 46.0643 276.971 45.7936 276.728C45.5229 276.485 45.1403 276.364 44.6456 276.364C44.2536 276.364 43.8803 276.425 43.5256 276.546C43.1709 276.658 42.8396 276.789 42.5316 276.938L42.1536 276.014C42.4803 275.837 42.8676 275.687 43.3156 275.566C43.7636 275.435 44.2303 275.37 44.7156 275.37ZM46.1856 279.332L45.0796 279.374C44.1463 279.411 43.4976 279.561 43.1336 279.822C42.7789 280.083 42.6016 280.452 42.6016 280.928C42.6016 281.348 42.7276 281.656 42.9796 281.852C43.2409 282.048 43.5723 282.146 43.9736 282.146C44.5989 282.146 45.1216 281.973 45.5416 281.628C45.9709 281.273 46.1856 280.732 46.1856 280.004V279.332ZM50.9533 283H49.7213V272.36H50.9533V283ZM56.2286 275.356C56.8633 275.356 57.414 275.496 57.8806 275.776C58.3473 276.056 58.702 276.453 58.9446 276.966C59.1966 277.47 59.3226 278.063 59.3226 278.744V279.486H54.1846C54.2033 280.335 54.418 280.984 54.8286 281.432C55.2486 281.871 55.832 282.09 56.5786 282.09C57.0546 282.09 57.4746 282.048 57.8386 281.964C58.212 281.871 58.5946 281.74 58.9866 281.572V282.65C58.604 282.818 58.226 282.939 57.8526 283.014C57.4793 283.098 57.036 283.14 56.5226 283.14C55.804 283.14 55.174 282.995 54.6326 282.706C54.0913 282.417 53.6666 281.987 53.3586 281.418C53.06 280.849 52.9106 280.144 52.9106 279.304C52.9106 278.483 53.046 277.778 53.3166 277.19C53.5966 276.602 53.984 276.149 54.4786 275.832C54.9826 275.515 55.566 275.356 56.2286 275.356ZM56.2146 276.364C55.6266 276.364 55.16 276.555 54.8146 276.938C54.4786 277.311 54.278 277.834 54.2126 278.506H58.0346C58.0253 277.871 57.876 277.358 57.5866 276.966C57.2973 276.565 56.84 276.364 56.2146 276.364ZM66.119 280.928C66.119 281.656 65.8483 282.207 65.307 282.58C64.7656 282.953 64.0376 283.14 63.123 283.14C62.6003 283.14 62.1476 283.098 61.765 283.014C61.3916 282.93 61.0603 282.813 60.771 282.664V281.544C61.0696 281.693 61.429 281.833 61.849 281.964C62.2783 282.085 62.7123 282.146 63.151 282.146C63.7763 282.146 64.229 282.048 64.509 281.852C64.789 281.647 64.929 281.376 64.929 281.04C64.929 280.853 64.8776 280.685 64.775 280.536C64.6723 280.387 64.4856 280.237 64.215 280.088C63.9536 279.939 63.5756 279.771 63.081 279.584C62.5956 279.397 62.1803 279.211 61.835 279.024C61.4896 278.837 61.2236 278.613 61.037 278.352C60.8503 278.091 60.757 277.755 60.757 277.344C60.757 276.709 61.0136 276.219 61.527 275.874C62.0496 275.529 62.731 275.356 63.571 275.356C64.0283 275.356 64.453 275.403 64.845 275.496C65.2463 275.589 65.6196 275.711 65.965 275.86L65.545 276.84C65.2276 276.709 64.8963 276.597 64.551 276.504C64.2056 276.411 63.851 276.364 63.487 276.364C62.983 276.364 62.5956 276.448 62.325 276.616C62.0636 276.775 61.933 276.994 61.933 277.274C61.933 277.489 61.9936 277.666 62.115 277.806C62.2363 277.946 62.437 278.086 62.717 278.226C63.0063 278.366 63.389 278.525 63.865 278.702C64.341 278.879 64.747 279.061 65.083 279.248C65.419 279.435 65.6756 279.663 65.853 279.934C66.0303 280.195 66.119 280.527 66.119 280.928Z" fill="black"/>
<path d="M40.028 316.326C40.028 317.213 39.706 317.903 39.062 318.398C38.418 318.893 37.55 319.14 36.458 319.14C35.898 319.14 35.38 319.098 34.904 319.014C34.428 318.93 34.0313 318.813 33.714 318.664V317.46C34.05 317.609 34.4653 317.745 34.96 317.866C35.464 317.987 35.982 318.048 36.514 318.048C37.2513 318.048 37.8113 317.903 38.194 317.614C38.5767 317.325 38.768 316.933 38.768 316.438C38.768 316.111 38.698 315.836 38.558 315.612C38.418 315.388 38.1753 315.183 37.83 314.996C37.4847 314.809 37.0133 314.604 36.416 314.38C35.5573 314.072 34.9133 313.694 34.484 313.246C34.0547 312.798 33.84 312.187 33.84 311.412C33.84 310.889 33.9753 310.437 34.246 310.054C34.5167 309.671 34.89 309.377 35.366 309.172C35.842 308.967 36.3973 308.864 37.032 308.864C37.5733 308.864 38.0727 308.915 38.53 309.018C38.9873 309.121 39.4073 309.256 39.79 309.424L39.398 310.502C39.0527 310.353 38.6747 310.227 38.264 310.124C37.8533 310.021 37.4333 309.97 37.004 309.97C36.3787 309.97 35.9073 310.105 35.59 310.376C35.2727 310.637 35.114 310.987 35.114 311.426C35.114 311.762 35.184 312.042 35.324 312.266C35.464 312.49 35.6927 312.695 36.01 312.882C36.3273 313.059 36.7567 313.246 37.298 313.442C37.886 313.657 38.3807 313.89 38.782 314.142C39.1927 314.385 39.5007 314.679 39.706 315.024C39.9207 315.369 40.028 315.803 40.028 316.326ZM48.1456 311.496V319H47.1376L46.9556 318.006H46.8996C46.6569 318.398 46.3209 318.687 45.8916 318.874C45.4623 319.051 45.0049 319.14 44.5196 319.14C43.6143 319.14 42.9329 318.925 42.4756 318.496C42.0183 318.057 41.7896 317.362 41.7896 316.41V311.496H43.0356V316.326C43.0356 317.521 43.5909 318.118 44.7016 318.118C45.5323 318.118 46.1063 317.885 46.4236 317.418C46.7503 316.951 46.9136 316.279 46.9136 315.402V311.496H48.1456ZM54.0979 311.356C55.0219 311.356 55.7639 311.678 56.3239 312.322C56.8932 312.966 57.1779 313.937 57.1779 315.234C57.1779 316.513 56.8932 317.483 56.3239 318.146C55.7639 318.809 55.0172 319.14 54.0839 319.14C53.5052 319.14 53.0246 319.033 52.6419 318.818C52.2686 318.603 51.9746 318.347 51.7599 318.048H51.6759C51.6852 318.207 51.6992 318.407 51.7179 318.65C51.7459 318.893 51.7599 319.103 51.7599 319.28V322.36H50.5279V311.496H51.5359L51.7039 312.518H51.7599C51.9839 312.191 52.2779 311.916 52.6419 311.692C53.0059 311.468 53.4912 311.356 54.0979 311.356ZM53.8739 312.392C53.1086 312.392 52.5672 312.607 52.2499 313.036C51.9326 313.465 51.7692 314.119 51.7599 314.996V315.234C51.7599 316.158 51.9092 316.872 52.2079 317.376C52.5159 317.871 53.0806 318.118 53.9019 318.118C54.3499 318.118 54.7232 317.997 55.0219 317.754C55.3206 317.502 55.5399 317.157 55.6799 316.718C55.8292 316.279 55.9039 315.78 55.9039 315.22C55.9039 314.361 55.7359 313.675 55.3999 313.162C55.0732 312.649 54.5646 312.392 53.8739 312.392ZM62.7112 311.356C63.6352 311.356 64.3772 311.678 64.9372 312.322C65.5065 312.966 65.7912 313.937 65.7912 315.234C65.7912 316.513 65.5065 317.483 64.9372 318.146C64.3772 318.809 63.6305 319.14 62.6972 319.14C62.1185 319.14 61.6378 319.033 61.2552 318.818C60.8818 318.603 60.5878 318.347 60.3732 318.048H60.2892C60.2985 318.207 60.3125 318.407 60.3312 318.65C60.3592 318.893 60.3732 319.103 60.3732 319.28V322.36H59.1412V311.496H60.1492L60.3172 312.518H60.3732C60.5972 312.191 60.8912 311.916 61.2552 311.692C61.6192 311.468 62.1045 311.356 62.7112 311.356ZM62.4872 312.392C61.7218 312.392 61.1805 312.607 60.8632 313.036C60.5458 313.465 60.3825 314.119 60.3732 314.996V315.234C60.3732 316.158 60.5225 316.872 60.8212 317.376C61.1292 317.871 61.6938 318.118 62.5152 318.118C62.9632 318.118 63.3365 317.997 63.6352 317.754C63.9338 317.502 64.1532 317.157 64.2932 316.718C64.4425 316.279 64.5172 315.78 64.5172 315.22C64.5172 314.361 64.3492 313.675 64.0132 313.162C63.6865 312.649 63.1778 312.392 62.4872 312.392ZM74.2785 315.234C74.2785 316.475 73.9611 317.437 73.3265 318.118C72.7011 318.799 71.8518 319.14 70.7785 319.14C70.1158 319.14 69.5231 318.991 69.0005 318.692C68.4871 318.384 68.0811 317.941 67.7825 317.362C67.4838 316.774 67.3345 316.065 67.3345 315.234C67.3345 313.993 67.6425 313.036 68.2585 312.364C68.8838 311.692 69.7378 311.356 70.8205 311.356C71.4925 311.356 72.0898 311.51 72.6125 311.818C73.1351 312.117 73.5411 312.555 73.8305 313.134C74.1291 313.703 74.2785 314.403 74.2785 315.234ZM68.6085 315.234C68.6085 316.121 68.7811 316.825 69.1265 317.348C69.4811 317.861 70.0411 318.118 70.8065 318.118C71.5625 318.118 72.1178 317.861 72.4725 317.348C72.8271 316.825 73.0045 316.121 73.0045 315.234C73.0045 314.347 72.8271 313.652 72.4725 313.148C72.1178 312.644 71.5578 312.392 70.7925 312.392C70.0271 312.392 69.4718 312.644 69.1265 313.148C68.7811 313.652 68.6085 314.347 68.6085 315.234ZM79.731 311.356C79.871 311.356 80.0203 311.365 80.179 311.384C80.3377 311.393 80.4823 311.412 80.613 311.44L80.459 312.574C80.3377 312.546 80.2023 312.523 80.053 312.504C79.9037 312.485 79.7683 312.476 79.647 312.476C79.2643 312.476 78.905 312.583 78.569 312.798C78.233 313.003 77.9623 313.297 77.757 313.68C77.561 314.053 77.463 314.492 77.463 314.996V319H76.231V311.496H77.239L77.379 312.868H77.435C77.6683 312.457 77.9763 312.103 78.359 311.804C78.751 311.505 79.2083 311.356 79.731 311.356ZM84.5202 318.132C84.7069 318.132 84.8982 318.118 85.0942 318.09C85.2902 318.062 85.4489 318.025 85.5702 317.978V318.916C85.4396 318.981 85.2529 319.033 85.0102 319.07C84.7676 319.117 84.5342 319.14 84.3102 319.14C83.9182 319.14 83.5542 319.075 83.2182 318.944C82.8916 318.804 82.6256 318.566 82.4202 318.23C82.2149 317.894 82.1122 317.423 82.1122 316.816V312.448H81.0482V311.86L82.1262 311.37L82.6162 309.774H83.3442V311.496H85.5142V312.448H83.3442V316.788C83.3442 317.245 83.4516 317.586 83.6662 317.81C83.8902 318.025 84.1749 318.132 84.5202 318.132Z" fill="black"/>
<rect x="24.5" y="223.5" width="255" height="109" rx="4.5" stroke="black" stroke-opacity="0.15"/>
</g>
<g filter="url(#filter3_d_7837_524398)">
<rect x="534" y="84" width="254" height="160" rx="4" fill="white"/>
<rect x="542.5" y="92.5" width="197" height="35" rx="1.5" fill="white"/>
<rect x="542.5" y="92.5" width="197" height="35" rx="1.5" stroke="#939393"/>
<path fill-rule="evenodd" clip-rule="evenodd" d="M760.375 102.62C760.755 102.804 761.051 103.11 761.24 103.336C761.285 103.391 761.346 103.463 761.417 103.549C761.866 104.085 762.743 105.134 763.107 105.62C763.459 106.088 763.407 106.596 763.21 107.001C763.027 107.379 762.707 107.708 762.418 107.961C762.13 108.213 761.989 108.35 761.918 108.467C761.876 108.537 761.854 108.6 761.892 108.752C761.939 108.94 762.105 109.292 762.404 109.74C762.694 110.176 763.084 110.664 763.54 111.119C763.995 111.575 764.483 111.964 764.908 112.245C765.121 112.385 765.312 112.495 765.472 112.572C765.639 112.652 765.742 112.682 765.786 112.688C765.803 112.69 765.821 112.694 765.838 112.698C765.99 112.736 766.053 112.715 766.123 112.672C766.24 112.601 766.377 112.461 766.629 112.173C766.882 111.883 767.211 111.563 767.589 111.38C767.991 111.185 768.493 111.132 768.958 111.474C769.609 111.91 770.855 112.95 771.328 113.355C771.591 113.58 771.898 113.897 772.072 114.292C772.259 114.715 772.286 115.22 771.983 115.724C771.941 115.794 771.897 115.874 771.847 115.964C771.464 116.66 770.794 117.876 769.077 118.095C767.137 118.401 764.171 117.595 760.615 113.969C757.054 110.338 756.262 107.379 756.494 105.522C756.705 103.834 757.947 103.193 758.646 102.831C758.758 102.773 758.857 102.723 758.934 102.676C759.455 102.364 759.968 102.423 760.375 102.62ZM759.926 103.546C759.767 103.468 759.629 103.459 759.463 103.558C759.328 103.639 759.188 103.715 759.048 103.79C758.352 104.164 757.654 104.539 757.515 105.649C757.336 107.084 757.915 109.747 761.349 113.248C764.781 116.748 767.435 117.316 768.923 117.078C768.929 117.077 768.935 117.076 768.941 117.075C770.117 116.928 770.536 116.187 770.93 115.492C770.986 115.391 771.043 115.292 771.101 115.195C771.209 115.014 771.202 114.867 771.131 114.707C771.048 114.52 770.876 114.322 770.658 114.136C770.174 113.721 768.963 112.713 768.376 112.322C768.369 112.317 768.361 112.311 768.353 112.306C768.273 112.245 768.197 112.228 768.038 112.306C767.849 112.397 767.63 112.591 767.403 112.85C767.175 113.111 766.935 113.382 766.658 113.551C766.34 113.744 765.999 113.793 765.613 113.702C765.424 113.67 765.22 113.592 765.027 113.499C764.816 113.398 764.583 113.263 764.341 113.103C763.858 112.784 763.317 112.351 762.812 111.846C762.308 111.342 761.875 110.801 761.548 110.311C761.23 109.833 760.984 109.363 760.894 109.002C760.795 108.606 760.842 108.257 761.04 107.932C761.208 107.655 761.48 107.415 761.74 107.187C761.999 106.96 762.193 106.741 762.285 106.553C762.362 106.393 762.345 106.317 762.285 106.237C761.939 105.777 761.089 104.76 760.635 104.217C760.561 104.129 760.498 104.053 760.45 103.995C760.295 103.81 760.111 103.635 759.926 103.546Z" fill="#1473E6"/>
<rect width="254" height="36" transform="translate(534 136)" fill="#F1F1F1"/>
<path d="M549.028 156.326C549.028 157.213 548.706 157.903 548.062 158.398C547.418 158.893 546.55 159.14 545.458 159.14C544.898 159.14 544.38 159.098 543.904 159.014C543.428 158.93 543.031 158.813 542.714 158.664V157.46C543.05 157.609 543.465 157.745 543.96 157.866C544.464 157.987 544.982 158.048 545.514 158.048C546.251 158.048 546.811 157.903 547.194 157.614C547.577 157.325 547.768 156.933 547.768 156.438C547.768 156.111 547.698 155.836 547.558 155.612C547.418 155.388 547.175 155.183 546.83 154.996C546.485 154.809 546.013 154.604 545.416 154.38C544.557 154.072 543.913 153.694 543.484 153.246C543.055 152.798 542.84 152.187 542.84 151.412C542.84 150.889 542.975 150.437 543.246 150.054C543.517 149.671 543.89 149.377 544.366 149.172C544.842 148.967 545.397 148.864 546.032 148.864C546.573 148.864 547.073 148.915 547.53 149.018C547.987 149.121 548.407 149.256 548.79 149.424L548.398 150.502C548.053 150.353 547.675 150.227 547.264 150.124C546.853 150.021 546.433 149.97 546.004 149.97C545.379 149.97 544.907 150.105 544.59 150.376C544.273 150.637 544.114 150.987 544.114 151.426C544.114 151.762 544.184 152.042 544.324 152.266C544.464 152.49 544.693 152.695 545.01 152.882C545.327 153.059 545.757 153.246 546.298 153.442C546.886 153.657 547.381 153.89 547.782 154.142C548.193 154.385 548.501 154.679 548.706 155.024C548.921 155.369 549.028 155.803 549.028 156.326ZM553.772 151.356C554.406 151.356 554.957 151.496 555.424 151.776C555.89 152.056 556.245 152.453 556.488 152.966C556.74 153.47 556.866 154.063 556.866 154.744V155.486H551.728C551.746 156.335 551.961 156.984 552.372 157.432C552.792 157.871 553.375 158.09 554.122 158.09C554.598 158.09 555.018 158.048 555.382 157.964C555.755 157.871 556.138 157.74 556.53 157.572V158.65C556.147 158.818 555.769 158.939 555.396 159.014C555.022 159.098 554.579 159.14 554.066 159.14C553.347 159.14 552.717 158.995 552.176 158.706C551.634 158.417 551.21 157.987 550.902 157.418C550.603 156.849 550.454 156.144 550.454 155.304C550.454 154.483 550.589 153.778 550.86 153.19C551.14 152.602 551.527 152.149 552.022 151.832C552.526 151.515 553.109 151.356 553.772 151.356ZM553.758 152.364C553.17 152.364 552.703 152.555 552.358 152.938C552.022 153.311 551.821 153.834 551.756 154.506H555.578C555.568 153.871 555.419 153.358 555.13 152.966C554.84 152.565 554.383 152.364 553.758 152.364ZM562.276 151.356C562.416 151.356 562.565 151.365 562.724 151.384C562.883 151.393 563.027 151.412 563.158 151.44L563.004 152.574C562.883 152.546 562.747 152.523 562.598 152.504C562.449 152.485 562.313 152.476 562.192 152.476C561.809 152.476 561.45 152.583 561.114 152.798C560.778 153.003 560.507 153.297 560.302 153.68C560.106 154.053 560.008 154.492 560.008 154.996V159H558.776V151.496H559.784L559.924 152.868H559.98C560.213 152.457 560.521 152.103 560.904 151.804C561.296 151.505 561.753 151.356 562.276 151.356ZM566.211 159L563.369 151.496H564.685L566.281 155.92C566.356 156.125 566.435 156.354 566.519 156.606C566.603 156.858 566.678 157.101 566.743 157.334C566.808 157.567 566.855 157.759 566.883 157.908H566.939C566.967 157.759 567.018 157.567 567.093 157.334C567.168 157.091 567.247 156.849 567.331 156.606C567.415 156.354 567.494 156.125 567.569 155.92L569.165 151.496H570.481L567.625 159H566.211ZM572.299 148.682C572.485 148.682 572.649 148.747 572.789 148.878C572.938 148.999 573.013 149.195 573.013 149.466C573.013 149.737 572.938 149.937 572.789 150.068C572.649 150.189 572.485 150.25 572.299 150.25C572.093 150.25 571.921 150.189 571.781 150.068C571.641 149.937 571.571 149.737 571.571 149.466C571.571 149.195 571.641 148.999 571.781 148.878C571.921 148.747 572.093 148.682 572.299 148.682ZM572.901 151.496V159H571.669V151.496H572.901ZM578.288 159.14C577.616 159.14 577.023 159.005 576.51 158.734C575.997 158.463 575.591 158.043 575.292 157.474C575.003 156.905 574.858 156.177 574.858 155.29C574.858 154.366 575.007 153.615 575.306 153.036C575.614 152.457 576.034 152.033 576.566 151.762C577.098 151.491 577.7 151.356 578.372 151.356C578.745 151.356 579.109 151.398 579.464 151.482C579.828 151.557 580.122 151.65 580.346 151.762L579.968 152.784C579.744 152.7 579.483 152.621 579.184 152.546C578.885 152.471 578.605 152.434 578.344 152.434C576.869 152.434 576.132 153.381 576.132 155.276C576.132 156.181 576.309 156.877 576.664 157.362C577.028 157.838 577.565 158.076 578.274 158.076C578.675 158.076 579.035 158.034 579.352 157.95C579.669 157.866 579.959 157.763 580.22 157.642V158.734C579.968 158.865 579.688 158.963 579.38 159.028C579.081 159.103 578.717 159.14 578.288 159.14ZM584.902 151.356C585.537 151.356 586.088 151.496 586.554 151.776C587.021 152.056 587.376 152.453 587.618 152.966C587.87 153.47 587.996 154.063 587.996 154.744V155.486H582.858C582.877 156.335 583.092 156.984 583.502 157.432C583.922 157.871 584.506 158.09 585.252 158.09C585.728 158.09 586.148 158.048 586.512 157.964C586.886 157.871 587.268 157.74 587.66 157.572V158.65C587.278 158.818 586.9 158.939 586.526 159.014C586.153 159.098 585.71 159.14 585.196 159.14C584.478 159.14 583.848 158.995 583.306 158.706C582.765 158.417 582.34 157.987 582.032 157.418C581.734 156.849 581.584 156.144 581.584 155.304C581.584 154.483 581.72 153.778 581.99 153.19C582.27 152.602 582.658 152.149 583.152 151.832C583.656 151.515 584.24 151.356 584.902 151.356ZM584.888 152.364C584.3 152.364 583.834 152.555 583.488 152.938C583.152 153.311 582.952 153.834 582.886 154.506H586.708C586.699 153.871 586.55 153.358 586.26 152.966C585.971 152.565 585.514 152.364 584.888 152.364ZM594.793 156.928C594.793 157.656 594.522 158.207 593.981 158.58C593.439 158.953 592.711 159.14 591.797 159.14C591.274 159.14 590.821 159.098 590.439 159.014C590.065 158.93 589.734 158.813 589.445 158.664V157.544C589.743 157.693 590.103 157.833 590.523 157.964C590.952 158.085 591.386 158.146 591.825 158.146C592.45 158.146 592.903 158.048 593.183 157.852C593.463 157.647 593.603 157.376 593.603 157.04C593.603 156.853 593.551 156.685 593.449 156.536C593.346 156.387 593.159 156.237 592.889 156.088C592.627 155.939 592.249 155.771 591.755 155.584C591.269 155.397 590.854 155.211 590.509 155.024C590.163 154.837 589.897 154.613 589.711 154.352C589.524 154.091 589.431 153.755 589.431 153.344C589.431 152.709 589.687 152.219 590.201 151.874C590.723 151.529 591.405 151.356 592.245 151.356C592.702 151.356 593.127 151.403 593.519 151.496C593.92 151.589 594.293 151.711 594.639 151.86L594.219 152.84C593.901 152.709 593.57 152.597 593.225 152.504C592.879 152.411 592.525 152.364 592.161 152.364C591.657 152.364 591.269 152.448 590.999 152.616C590.737 152.775 590.607 152.994 590.607 153.274C590.607 153.489 590.667 153.666 590.789 153.806C590.91 153.946 591.111 154.086 591.391 154.226C591.68 154.366 592.063 154.525 592.539 154.702C593.015 154.879 593.421 155.061 593.757 155.248C594.093 155.435 594.349 155.663 594.527 155.934C594.704 156.195 594.793 156.527 594.793 156.928Z" fill="black"/>
<path d="M769.412 159.962C769.312 159.962 769.212 159.913 769.162 159.863C769.013 159.713 769.013 159.462 769.162 159.312L774.462 154.012L769.112 148.662C768.963 148.512 768.963 148.263 769.112 148.113C769.262 147.962 769.512 147.962 769.662 148.113L775.262 153.712C775.312 153.762 775.362 153.862 775.362 153.962C775.362 154.062 775.312 154.162 775.262 154.212L769.662 159.863C769.562 159.963 769.463 159.962 769.412 159.962Z" fill="black"/>
<path d="M550.96 185.004V191.472C550.96 192.163 550.82 192.788 550.54 193.348C550.26 193.899 549.831 194.337 549.252 194.664C548.673 194.981 547.945 195.14 547.068 195.14C545.817 195.14 544.87 194.804 544.226 194.132C543.582 193.451 543.26 192.555 543.26 191.444V185.004H544.52V191.486C544.52 192.298 544.735 192.928 545.164 193.376C545.603 193.824 546.261 194.048 547.138 194.048C548.043 194.048 548.697 193.81 549.098 193.334C549.509 192.849 549.714 192.228 549.714 191.472V185.004H550.96ZM558.316 192.928C558.316 193.656 558.046 194.207 557.504 194.58C556.963 194.953 556.235 195.14 555.32 195.14C554.798 195.14 554.345 195.098 553.962 195.014C553.589 194.93 553.258 194.813 552.968 194.664V193.544C553.267 193.693 553.626 193.833 554.046 193.964C554.476 194.085 554.91 194.146 555.348 194.146C555.974 194.146 556.426 194.048 556.706 193.852C556.986 193.647 557.126 193.376 557.126 193.04C557.126 192.853 557.075 192.685 556.972 192.536C556.87 192.387 556.683 192.237 556.412 192.088C556.151 191.939 555.773 191.771 555.278 191.584C554.793 191.397 554.378 191.211 554.032 191.024C553.687 190.837 553.421 190.613 553.234 190.352C553.048 190.091 552.954 189.755 552.954 189.344C552.954 188.709 553.211 188.219 553.724 187.874C554.247 187.529 554.928 187.356 555.768 187.356C556.226 187.356 556.65 187.403 557.042 187.496C557.444 187.589 557.817 187.711 558.162 187.86L557.742 188.84C557.425 188.709 557.094 188.597 556.748 188.504C556.403 188.411 556.048 188.364 555.684 188.364C555.18 188.364 554.793 188.448 554.522 188.616C554.261 188.775 554.13 188.994 554.13 189.274C554.13 189.489 554.191 189.666 554.312 189.806C554.434 189.946 554.634 190.086 554.914 190.226C555.204 190.366 555.586 190.525 556.062 190.702C556.538 190.879 556.944 191.061 557.28 191.248C557.616 191.435 557.873 191.663 558.05 191.934C558.228 192.195 558.316 192.527 558.316 192.928ZM563.027 187.356C563.662 187.356 564.213 187.496 564.679 187.776C565.146 188.056 565.501 188.453 565.743 188.966C565.995 189.47 566.121 190.063 566.121 190.744V191.486H560.983C561.002 192.335 561.217 192.984 561.627 193.432C562.047 193.871 562.631 194.09 563.377 194.09C563.853 194.09 564.273 194.048 564.637 193.964C565.011 193.871 565.393 193.74 565.785 193.572V194.65C565.403 194.818 565.025 194.939 564.651 195.014C564.278 195.098 563.835 195.14 563.321 195.14C562.603 195.14 561.973 194.995 561.431 194.706C560.89 194.417 560.465 193.987 560.157 193.418C559.859 192.849 559.709 192.144 559.709 191.304C559.709 190.483 559.845 189.778 560.115 189.19C560.395 188.602 560.783 188.149 561.277 187.832C561.781 187.515 562.365 187.356 563.027 187.356ZM563.013 188.364C562.425 188.364 561.959 188.555 561.613 188.938C561.277 189.311 561.077 189.834 561.011 190.506H564.833C564.824 189.871 564.675 189.358 564.385 188.966C564.096 188.565 563.639 188.364 563.013 188.364ZM571.532 187.356C571.672 187.356 571.821 187.365 571.98 187.384C572.138 187.393 572.283 187.412 572.414 187.44L572.26 188.574C572.138 188.546 572.003 188.523 571.854 188.504C571.704 188.485 571.569 188.476 571.448 188.476C571.065 188.476 570.706 188.583 570.37 188.798C570.034 189.003 569.763 189.297 569.558 189.68C569.362 190.053 569.264 190.492 569.264 190.996V195H568.032V187.496H569.04L569.18 188.868H569.236C569.469 188.457 569.777 188.103 570.16 187.804C570.552 187.505 571.009 187.356 571.532 187.356ZM578.701 192.928C578.701 193.656 578.43 194.207 577.889 194.58C577.348 194.953 576.62 195.14 575.705 195.14C575.182 195.14 574.73 195.098 574.347 195.014C573.974 194.93 573.642 194.813 573.353 194.664V193.544C573.652 193.693 574.011 193.833 574.431 193.964C574.86 194.085 575.294 194.146 575.733 194.146C576.358 194.146 576.811 194.048 577.091 193.852C577.371 193.647 577.511 193.376 577.511 193.04C577.511 192.853 577.46 192.685 577.357 192.536C577.254 192.387 577.068 192.237 576.797 192.088C576.536 191.939 576.158 191.771 575.663 191.584C575.178 191.397 574.762 191.211 574.417 191.024C574.072 190.837 573.806 190.613 573.619 190.352C573.432 190.091 573.339 189.755 573.339 189.344C573.339 188.709 573.596 188.219 574.109 187.874C574.632 187.529 575.313 187.356 576.153 187.356C576.61 187.356 577.035 187.403 577.427 187.496C577.828 187.589 578.202 187.711 578.547 187.86L578.127 188.84C577.81 188.709 577.478 188.597 577.133 188.504C576.788 188.411 576.433 188.364 576.069 188.364C575.565 188.364 575.178 188.448 574.907 188.616C574.646 188.775 574.515 188.994 574.515 189.274C574.515 189.489 574.576 189.666 574.697 189.806C574.818 189.946 575.019 190.086 575.299 190.226C575.588 190.366 575.971 190.525 576.447 190.702C576.923 190.879 577.329 191.061 577.665 191.248C578.001 191.435 578.258 191.663 578.435 191.934C578.612 192.195 578.701 192.527 578.701 192.928Z" fill="black"/>
<path d="M769.412 195.962C769.312 195.962 769.212 195.913 769.162 195.863C769.013 195.713 769.013 195.462 769.162 195.312L774.462 190.012L769.112 184.662C768.963 184.512 768.963 184.263 769.112 184.113C769.262 183.962 769.512 183.962 769.662 184.113L775.262 189.712C775.312 189.762 775.362 189.862 775.362 189.962C775.362 190.062 775.312 190.162 775.262 190.212L769.662 195.863C769.562 195.963 769.463 195.962 769.412 195.962Z" fill="black"/>
<path d="M546.522 231H545.262V222.11H542.14V221.004H549.63V222.11H546.522V231ZM552.883 223.356C553.518 223.356 554.068 223.496 554.535 223.776C555.002 224.056 555.356 224.453 555.599 224.966C555.851 225.47 555.977 226.063 555.977 226.744V227.486H550.839C550.858 228.335 551.072 228.984 551.483 229.432C551.903 229.871 552.486 230.09 553.233 230.09C553.709 230.09 554.129 230.048 554.493 229.964C554.866 229.871 555.249 229.74 555.641 229.572V230.65C555.258 230.818 554.88 230.939 554.507 231.014C554.134 231.098 553.69 231.14 553.177 231.14C552.458 231.14 551.828 230.995 551.287 230.706C550.746 230.417 550.321 229.987 550.013 229.418C549.714 228.849 549.565 228.144 549.565 227.304C549.565 226.483 549.7 225.778 549.971 225.19C550.251 224.602 550.638 224.149 551.133 223.832C551.637 223.515 552.22 223.356 552.883 223.356ZM552.869 224.364C552.281 224.364 551.814 224.555 551.469 224.938C551.133 225.311 550.932 225.834 550.867 226.506H554.689C554.68 225.871 554.53 225.358 554.241 224.966C553.952 224.565 553.494 224.364 552.869 224.364ZM560.729 223.37C561.644 223.37 562.321 223.571 562.759 223.972C563.198 224.373 563.417 225.013 563.417 225.89V231H562.521L562.283 229.936H562.227C561.901 230.347 561.555 230.65 561.191 230.846C560.827 231.042 560.333 231.14 559.707 231.14C559.026 231.14 558.461 230.963 558.013 230.608C557.565 230.244 557.341 229.679 557.341 228.914C557.341 228.167 557.635 227.593 558.223 227.192C558.811 226.781 559.717 226.557 560.939 226.52L562.213 226.478V226.03C562.213 225.405 562.078 224.971 561.807 224.728C561.537 224.485 561.154 224.364 560.659 224.364C560.267 224.364 559.894 224.425 559.539 224.546C559.185 224.658 558.853 224.789 558.545 224.938L558.167 224.014C558.494 223.837 558.881 223.687 559.329 223.566C559.777 223.435 560.244 223.37 560.729 223.37ZM562.199 227.332L561.093 227.374C560.16 227.411 559.511 227.561 559.147 227.822C558.793 228.083 558.615 228.452 558.615 228.928C558.615 229.348 558.741 229.656 558.993 229.852C559.255 230.048 559.586 230.146 559.987 230.146C560.613 230.146 561.135 229.973 561.555 229.628C561.985 229.273 562.199 228.732 562.199 228.004V227.332ZM573.967 223.356C574.816 223.356 575.451 223.575 575.871 224.014C576.291 224.453 576.501 225.153 576.501 226.114V231H575.283V226.17C575.283 224.985 574.774 224.392 573.757 224.392C573.029 224.392 572.506 224.602 572.189 225.022C571.881 225.442 571.727 226.053 571.727 226.856V231H570.509V226.17C570.509 224.985 569.996 224.392 568.969 224.392C568.213 224.392 567.69 224.625 567.401 225.092C567.112 225.559 566.967 226.231 566.967 227.108V231H565.735V223.496H566.729L566.911 224.518H566.981C567.214 224.126 567.527 223.837 567.919 223.65C568.32 223.454 568.745 223.356 569.193 223.356C570.369 223.356 571.134 223.776 571.489 224.616H571.559C571.811 224.187 572.152 223.869 572.581 223.664C573.01 223.459 573.472 223.356 573.967 223.356Z" fill="black"/>
<path d="M769.412 231.962C769.312 231.962 769.212 231.913 769.162 231.863C769.013 231.713 769.013 231.462 769.162 231.312L774.462 226.012L769.112 220.662C768.963 220.512 768.963 220.263 769.112 220.113C769.262 219.962 769.512 219.962 769.662 220.113L775.262 225.712C775.312 225.762 775.362 225.862 775.362 225.962C775.362 226.062 775.312 226.162 775.262 226.212L769.662 231.863C769.562 231.963 769.463 231.962 769.412 231.962Z" fill="black"/>
<rect x="533.5" y="83.5" width="255" height="161" rx="4.5" stroke="black" stroke-opacity="0.15"/>
</g>
<rect x="690" y="48" width="98" height="36" rx="2" fill="#1473E6"/>
<path d="M713.63 71L712.426 67.906H708.464L707.274 71H706L709.906 60.962H711.04L714.932 71H713.63ZM712.048 66.786L710.928 63.762C710.9 63.6873 710.853 63.552 710.788 63.356C710.723 63.16 710.657 62.9593 710.592 62.754C710.536 62.5393 710.489 62.376 710.452 62.264C710.377 62.5533 710.298 62.838 710.214 63.118C710.139 63.3887 710.074 63.6033 710.018 63.762L708.884 66.786H712.048ZM719.141 71.14C718.469 71.14 717.877 71.0047 717.363 70.734C716.85 70.4633 716.444 70.0433 716.145 69.474C715.856 68.9047 715.711 68.1767 715.711 67.29C715.711 66.366 715.861 65.6147 716.159 65.036C716.467 64.4573 716.887 64.0327 717.419 63.762C717.951 63.4913 718.553 63.356 719.225 63.356C719.599 63.356 719.963 63.398 720.317 63.482C720.681 63.5567 720.975 63.65 721.199 63.762L720.821 64.784C720.597 64.7 720.336 64.6207 720.037 64.546C719.739 64.4713 719.459 64.434 719.197 64.434C717.723 64.434 716.985 65.3813 716.985 67.276C716.985 68.1813 717.163 68.8767 717.517 69.362C717.881 69.838 718.418 70.076 719.127 70.076C719.529 70.076 719.888 70.034 720.205 69.95C720.523 69.866 720.812 69.7633 721.073 69.642V70.734C720.821 70.8647 720.541 70.9627 720.233 71.028C719.935 71.1027 719.571 71.14 719.141 71.14ZM725.364 70.132C725.551 70.132 725.742 70.118 725.938 70.09C726.134 70.062 726.293 70.0247 726.414 69.978V70.916C726.283 70.9813 726.097 71.0327 725.854 71.07C725.611 71.1167 725.378 71.14 725.154 71.14C724.762 71.14 724.398 71.0747 724.062 70.944C723.735 70.804 723.469 70.566 723.264 70.23C723.059 69.894 722.956 69.4227 722.956 68.816V64.448H721.892V63.86L722.97 63.37L723.46 61.774H724.188V63.496H726.358V64.448H724.188V68.788C724.188 69.2453 724.295 69.586 724.51 69.81C724.734 70.0247 725.019 70.132 725.364 70.132ZM728.547 60.682C728.733 60.682 728.897 60.7473 729.037 60.878C729.186 60.9993 729.261 61.1953 729.261 61.466C729.261 61.7367 729.186 61.9373 729.037 62.068C728.897 62.1893 728.733 62.25 728.547 62.25C728.341 62.25 728.169 62.1893 728.029 62.068C727.889 61.9373 727.819 61.7367 727.819 61.466C727.819 61.1953 727.889 60.9993 728.029 60.878C728.169 60.7473 728.341 60.682 728.547 60.682ZM729.149 63.496V71H727.917V63.496H729.149ZM738.05 67.234C738.05 68.4753 737.733 69.4367 737.098 70.118C736.473 70.7993 735.623 71.14 734.55 71.14C733.887 71.14 733.295 70.9907 732.772 70.692C732.259 70.384 731.853 69.9407 731.554 69.362C731.255 68.774 731.106 68.0647 731.106 67.234C731.106 65.9927 731.414 65.036 732.03 64.364C732.655 63.692 733.509 63.356 734.592 63.356C735.264 63.356 735.861 63.51 736.384 63.818C736.907 64.1167 737.313 64.5553 737.602 65.134C737.901 65.7033 738.05 66.4033 738.05 67.234ZM732.38 67.234C732.38 68.1207 732.553 68.8253 732.898 69.348C733.253 69.8613 733.813 70.118 734.578 70.118C735.334 70.118 735.889 69.8613 736.244 69.348C736.599 68.8253 736.776 68.1207 736.776 67.234C736.776 66.3473 736.599 65.652 736.244 65.148C735.889 64.644 735.329 64.392 734.564 64.392C733.799 64.392 733.243 64.644 732.898 65.148C732.553 65.652 732.38 66.3473 732.38 67.234ZM743.615 63.356C744.511 63.356 745.187 63.5753 745.645 64.014C746.102 64.4527 746.331 65.1527 746.331 66.114V71H745.113V66.198C745.113 64.994 744.553 64.392 743.433 64.392C742.602 64.392 742.028 64.6253 741.711 65.092C741.393 65.5587 741.235 66.2307 741.235 67.108V71H740.003V63.496H740.997L741.179 64.518H741.249C741.491 64.126 741.827 63.8367 742.257 63.65C742.686 63.454 743.139 63.356 743.615 63.356Z" fill="white"/>
<path d="M764.012 69.3625C763.912 69.3625 763.812 69.3125 763.762 69.2625L758.113 63.6625C757.962 63.5125 757.962 63.2625 758.113 63.1125C758.263 62.9625 758.512 62.9625 758.662 63.1125L764.012 68.4625L769.312 63.1125C769.462 62.9625 769.713 62.9625 769.863 63.1125C770.012 63.2625 770.012 63.5125 769.863 63.6625L764.262 69.2625C764.162 69.3125 764.112 69.3625 764.012 69.3625Z" fill="white"/>
<circle cx="139" cy="368" r="12" fill="#E60074"/>
<path d="M142.55 365.286C142.55 365.967 142.349 366.513 141.948 366.924C141.556 367.325 141.047 367.596 140.422 367.736V367.778C141.225 367.881 141.831 368.133 142.242 368.534C142.653 368.935 142.858 369.463 142.858 370.116C142.858 370.695 142.718 371.213 142.438 371.67C142.158 372.127 141.724 372.487 141.136 372.748C140.557 373.009 139.811 373.14 138.896 373.14C138.345 373.14 137.837 373.093 137.37 373C136.913 372.916 136.479 372.781 136.068 372.594V371.04C136.488 371.255 136.936 371.418 137.412 371.53C137.888 371.642 138.336 371.698 138.756 371.698C139.568 371.698 140.142 371.553 140.478 371.264C140.814 370.965 140.982 370.555 140.982 370.032C140.982 369.537 140.786 369.169 140.394 368.926C140.002 368.683 139.349 368.562 138.434 368.562H137.594V367.148H138.448C139.335 367.148 139.946 367.003 140.282 366.714C140.618 366.425 140.786 366.051 140.786 365.594C140.786 365.193 140.655 364.88 140.394 364.656C140.133 364.432 139.741 364.32 139.218 364.32C138.714 364.32 138.28 364.404 137.916 364.572C137.552 364.731 137.225 364.903 136.936 365.09L136.096 363.872C136.479 363.592 136.931 363.354 137.454 363.158C137.977 362.962 138.593 362.864 139.302 362.864C140.338 362.864 141.136 363.083 141.696 363.522C142.265 363.961 142.55 364.549 142.55 365.286Z" fill="white"/>
<circle cx="394" cy="368" r="12" fill="#E60074"/>
<path d="M397.942 373H391.096V371.698L393.644 369.122C394.148 368.609 394.559 368.17 394.876 367.806C395.203 367.442 395.441 367.101 395.59 366.784C395.749 366.457 395.828 366.107 395.828 365.734C395.828 365.277 395.697 364.936 395.436 364.712C395.184 364.479 394.839 364.362 394.4 364.362C393.98 364.362 393.588 364.451 393.224 364.628C392.86 364.796 392.482 365.039 392.09 365.356L391.124 364.194C391.535 363.839 391.997 363.531 392.51 363.27C393.033 362.999 393.695 362.864 394.498 362.864C395.142 362.864 395.693 362.981 396.15 363.214C396.617 363.438 396.976 363.755 397.228 364.166C397.48 364.567 397.606 365.029 397.606 365.552C397.606 366.093 397.499 366.593 397.284 367.05C397.069 367.498 396.757 367.951 396.346 368.408C395.945 368.856 395.464 369.341 394.904 369.864L393.322 371.39V371.474H397.942V373Z" fill="white"/>
<circle cx="649" cy="368" r="12" fill="#E60074"/>
<path d="M650.968 373H649.204V366.77C649.204 366.471 649.209 366.154 649.218 365.818C649.227 365.482 649.241 365.169 649.26 364.88C649.167 364.973 649.05 365.085 648.91 365.216C648.779 365.347 648.635 365.473 648.476 365.594L647.356 366.49L646.474 365.398L649.498 363.004H650.968V373Z" fill="white"/>
<path d="M383 368H151" stroke="#E60074" stroke-width="2"/>
<path d="M638 368H405" stroke="#E60074" stroke-width="2"/>
</g>
<defs>
<filter id="filter0_d_7837_524398" x="-7" y="20" width="831" height="397" filterUnits="userSpaceOnUse" color-interpolation-filters="sRGB">
<feFlood flood-opacity="0" result="BackgroundImageFix"/>
<feColorMatrix in="SourceAlpha" type="matrix" values="0 0 0 0 0 0 0 0 0 0 0 0 0 0 0 0 0 0 127 0" result="hardAlpha"/>
<feOffset dy="4"/>
<feGaussianBlur stdDeviation="4"/>
<feColorMatrix type="matrix" values="0 0 0 0 0 0 0 0 0 0 0 0 0 0 0 0 0 0 0.25 0"/>
<feBlend mode="normal" in2="BackgroundImageFix" result="effect1_dropShadow_7837_524398"/>
<feBlend mode="normal" in="SourceGraphic" in2="effect1_dropShadow_7837_524398" result="shape"/>
</filter>
<filter id="filter1_d_7837_524398" x="274" y="135" width="264" height="170" filterUnits="userSpaceOnUse" color-interpolation-filters="sRGB">
<feFlood flood-opacity="0" result="BackgroundImageFix"/>
<feColorMatrix in="SourceAlpha" type="matrix" values="0 0 0 0 0 0 0 0 0 0 0 0 0 0 0 0 0 0 127 0" result="hardAlpha"/>
<feOffset dy="4"/>
<feGaussianBlur stdDeviation="2"/>
<feColorMatrix type="matrix" values="0 0 0 0 0 0 0 0 0 0 0 0 0 0 0 0 0 0 0.25 0"/>
<feBlend mode="normal" in2="BackgroundImageFix" result="effect1_dropShadow_7837_524398"/>
<feBlend mode="normal" in="SourceGraphic" in2="effect1_dropShadow_7837_524398" result="shape"/>
</filter>
<filter id="filter2_d_7837_524398" x="20" y="223" width="264" height="118" filterUnits="userSpaceOnUse" color-interpolation-filters="sRGB">
<feFlood flood-opacity="0" result="BackgroundImageFix"/>
<feColorMatrix in="SourceAlpha" type="matrix" values="0 0 0 0 0 0 0 0 0 0 0 0 0 0 0 0 0 0 127 0" result="hardAlpha"/>
<feOffset dy="4"/>
<feGaussianBlur stdDeviation="2"/>
<feColorMatrix type="matrix" values="0 0 0 0 0 0 0 0 0 0 0 0 0 0 0 0 0 0 0.25 0"/>
<feBlend mode="normal" in2="BackgroundImageFix" result="effect1_dropShadow_7837_524398"/>
<feBlend mode="normal" in="SourceGraphic" in2="effect1_dropShadow_7837_524398" result="shape"/>
</filter>
<filter id="filter3_d_7837_524398" x="529" y="83" width="264" height="170" filterUnits="userSpaceOnUse" color-interpolation-filters="sRGB">
<feFlood flood-opacity="0" result="BackgroundImageFix"/>
<feColorMatrix in="SourceAlpha" type="matrix" values="0 0 0 0 0 0 0 0 0 0 0 0 0 0 0 0 0 0 127 0" result="hardAlpha"/>
<feOffset dy="4"/>
<feGaussianBlur stdDeviation="2"/>
<feColorMatrix type="matrix" values="0 0 0 0 0 0 0 0 0 0 0 0 0 0 0 0 0 0 0.25 0"/>
<feBlend mode="normal" in2="BackgroundImageFix" result="effect1_dropShadow_7837_524398"/>
<feBlend mode="normal" in="SourceGraphic" in2="effect1_dropShadow_7837_524398" result="shape"/>
</filter>
<clipPath id="clip0_7837_524398">
<rect width="952" height="406" fill="white"/>
</clipPath>
<clipPath id="clip1_7837_524398">
<rect x="279" y="136" width="254" height="160" rx="4" fill="white"/>
</clipPath>
</defs>
</svg>
