<svg width="412" height="548" viewBox="0 0 412 548" fill="none" xmlns="http://www.w3.org/2000/svg">
<rect width="412" height="548" fill="white"/>
<g filter="url(#filter0_d_7141_532186)">
<rect x="103" y="94" width="206" height="360" rx="4" fill="white"/>
<path d="M118.63 117L117.426 113.906H113.464L112.274 117H111L114.906 106.962H116.04L119.932 117H118.63ZM117.048 112.786L115.928 109.762C115.9 109.687 115.853 109.552 115.788 109.356C115.723 109.16 115.657 108.959 115.592 108.754C115.536 108.539 115.489 108.376 115.452 108.264C115.377 108.553 115.298 108.838 115.214 109.118C115.139 109.389 115.074 109.603 115.018 109.762L113.884 112.786H117.048ZM124.141 117.14C123.469 117.14 122.877 117.005 122.363 116.734C121.85 116.463 121.444 116.043 121.145 115.474C120.856 114.905 120.711 114.177 120.711 113.29C120.711 112.366 120.861 111.615 121.159 111.036C121.467 110.457 121.887 110.033 122.419 109.762C122.951 109.491 123.553 109.356 124.225 109.356C124.599 109.356 124.963 109.398 125.317 109.482C125.681 109.557 125.975 109.65 126.199 109.762L125.821 110.784C125.597 110.7 125.336 110.621 125.037 110.546C124.739 110.471 124.459 110.434 124.197 110.434C122.723 110.434 121.985 111.381 121.985 113.276C121.985 114.181 122.163 114.877 122.517 115.362C122.881 115.838 123.418 116.076 124.127 116.076C124.529 116.076 124.888 116.034 125.205 115.95C125.523 115.866 125.812 115.763 126.073 115.642V116.734C125.821 116.865 125.541 116.963 125.233 117.028C124.935 117.103 124.571 117.14 124.141 117.14ZM130.364 116.132C130.551 116.132 130.742 116.118 130.938 116.09C131.134 116.062 131.293 116.025 131.414 115.978V116.916C131.283 116.981 131.097 117.033 130.854 117.07C130.611 117.117 130.378 117.14 130.154 117.14C129.762 117.14 129.398 117.075 129.062 116.944C128.735 116.804 128.469 116.566 128.264 116.23C128.059 115.894 127.956 115.423 127.956 114.816V110.448H126.892V109.86L127.97 109.37L128.46 107.774H129.188V109.496H131.358V110.448H129.188V114.788C129.188 115.245 129.295 115.586 129.51 115.81C129.734 116.025 130.019 116.132 130.364 116.132ZM133.547 106.682C133.733 106.682 133.897 106.747 134.037 106.878C134.186 106.999 134.261 107.195 134.261 107.466C134.261 107.737 134.186 107.937 134.037 108.068C133.897 108.189 133.733 108.25 133.547 108.25C133.341 108.25 133.169 108.189 133.029 108.068C132.889 107.937 132.819 107.737 132.819 107.466C132.819 107.195 132.889 106.999 133.029 106.878C133.169 106.747 133.341 106.682 133.547 106.682ZM134.149 109.496V117H132.917V109.496H134.149ZM143.05 113.234C143.05 114.475 142.733 115.437 142.098 116.118C141.473 116.799 140.623 117.14 139.55 117.14C138.887 117.14 138.295 116.991 137.772 116.692C137.259 116.384 136.853 115.941 136.554 115.362C136.255 114.774 136.106 114.065 136.106 113.234C136.106 111.993 136.414 111.036 137.03 110.364C137.655 109.692 138.509 109.356 139.592 109.356C140.264 109.356 140.861 109.51 141.384 109.818C141.907 110.117 142.313 110.555 142.602 111.134C142.901 111.703 143.05 112.403 143.05 113.234ZM137.38 113.234C137.38 114.121 137.553 114.825 137.898 115.348C138.253 115.861 138.813 116.118 139.578 116.118C140.334 116.118 140.889 115.861 141.244 115.348C141.599 114.825 141.776 114.121 141.776 113.234C141.776 112.347 141.599 111.652 141.244 111.148C140.889 110.644 140.329 110.392 139.564 110.392C138.799 110.392 138.243 110.644 137.898 111.148C137.553 111.652 137.38 112.347 137.38 113.234ZM148.615 109.356C149.511 109.356 150.187 109.575 150.645 110.014C151.102 110.453 151.331 111.153 151.331 112.114V117H150.113V112.198C150.113 110.994 149.553 110.392 148.433 110.392C147.602 110.392 147.028 110.625 146.711 111.092C146.393 111.559 146.235 112.231 146.235 113.108V117H145.003V109.496H145.997L146.179 110.518H146.249C146.491 110.126 146.827 109.837 147.257 109.65C147.686 109.454 148.139 109.356 148.615 109.356ZM157.924 106.682C158.11 106.682 158.274 106.747 158.414 106.878C158.563 106.999 158.638 107.195 158.638 107.466C158.638 107.737 158.563 107.937 158.414 108.068C158.274 108.189 158.11 108.25 157.924 108.25C157.718 108.25 157.546 108.189 157.406 108.068C157.266 107.937 157.196 107.737 157.196 107.466C157.196 107.195 157.266 106.999 157.406 106.878C157.546 106.747 157.718 106.682 157.924 106.682ZM158.526 109.496V117H157.294V109.496H158.526ZM163.409 116.132C163.596 116.132 163.787 116.118 163.983 116.09C164.179 116.062 164.338 116.025 164.459 115.978V116.916C164.328 116.981 164.142 117.033 163.899 117.07C163.656 117.117 163.423 117.14 163.199 117.14C162.807 117.14 162.443 117.075 162.107 116.944C161.78 116.804 161.514 116.566 161.309 116.23C161.104 115.894 161.001 115.423 161.001 114.816V110.448H159.937V109.86L161.015 109.37L161.505 107.774H162.233V109.496H164.403V110.448H162.233V114.788C162.233 115.245 162.34 115.586 162.555 115.81C162.779 116.025 163.064 116.132 163.409 116.132ZM168.859 109.356C169.494 109.356 170.045 109.496 170.511 109.776C170.978 110.056 171.333 110.453 171.575 110.966C171.827 111.47 171.953 112.063 171.953 112.744V113.486H166.815C166.834 114.335 167.049 114.984 167.459 115.432C167.879 115.871 168.463 116.09 169.209 116.09C169.685 116.09 170.105 116.048 170.469 115.964C170.843 115.871 171.225 115.74 171.617 115.572V116.65C171.235 116.818 170.857 116.939 170.483 117.014C170.11 117.098 169.667 117.14 169.153 117.14C168.435 117.14 167.805 116.995 167.263 116.706C166.722 116.417 166.297 115.987 165.989 115.418C165.691 114.849 165.541 114.144 165.541 113.304C165.541 112.483 165.677 111.778 165.947 111.19C166.227 110.602 166.615 110.149 167.109 109.832C167.613 109.515 168.197 109.356 168.859 109.356ZM168.845 110.364C168.257 110.364 167.791 110.555 167.445 110.938C167.109 111.311 166.909 111.834 166.843 112.506H170.665C170.656 111.871 170.507 111.358 170.217 110.966C169.928 110.565 169.471 110.364 168.845 110.364ZM182.096 109.356C182.945 109.356 183.58 109.575 184 110.014C184.42 110.453 184.63 111.153 184.63 112.114V117H183.412V112.17C183.412 110.985 182.903 110.392 181.886 110.392C181.158 110.392 180.635 110.602 180.318 111.022C180.01 111.442 179.856 112.053 179.856 112.856V117H178.638V112.17C178.638 110.985 178.124 110.392 177.098 110.392C176.342 110.392 175.819 110.625 175.53 111.092C175.24 111.559 175.096 112.231 175.096 113.108V117H173.864V109.496H174.858L175.04 110.518H175.11C175.343 110.126 175.656 109.837 176.048 109.65C176.449 109.454 176.874 109.356 177.322 109.356C178.498 109.356 179.263 109.776 179.618 110.616H179.688C179.94 110.187 180.28 109.869 180.71 109.664C181.139 109.459 181.601 109.356 182.096 109.356Z" fill="black"/>
<path d="M118.63 153L117.426 149.906H113.464L112.274 153H111L114.906 142.962H116.04L119.932 153H118.63ZM117.048 148.786L115.928 145.762C115.9 145.687 115.853 145.552 115.788 145.356C115.723 145.16 115.657 144.959 115.592 144.754C115.536 144.539 115.489 144.376 115.452 144.264C115.377 144.553 115.298 144.838 115.214 145.118C115.139 145.389 115.074 145.603 115.018 145.762L113.884 148.786H117.048ZM124.141 153.14C123.469 153.14 122.877 153.005 122.363 152.734C121.85 152.463 121.444 152.043 121.145 151.474C120.856 150.905 120.711 150.177 120.711 149.29C120.711 148.366 120.861 147.615 121.159 147.036C121.467 146.457 121.887 146.033 122.419 145.762C122.951 145.491 123.553 145.356 124.225 145.356C124.599 145.356 124.963 145.398 125.317 145.482C125.681 145.557 125.975 145.65 126.199 145.762L125.821 146.784C125.597 146.7 125.336 146.621 125.037 146.546C124.739 146.471 124.459 146.434 124.197 146.434C122.723 146.434 121.985 147.381 121.985 149.276C121.985 150.181 122.163 150.877 122.517 151.362C122.881 151.838 123.418 152.076 124.127 152.076C124.529 152.076 124.888 152.034 125.205 151.95C125.523 151.866 125.812 151.763 126.073 151.642V152.734C125.821 152.865 125.541 152.963 125.233 153.028C124.935 153.103 124.571 153.14 124.141 153.14ZM130.364 152.132C130.551 152.132 130.742 152.118 130.938 152.09C131.134 152.062 131.293 152.025 131.414 151.978V152.916C131.283 152.981 131.097 153.033 130.854 153.07C130.611 153.117 130.378 153.14 130.154 153.14C129.762 153.14 129.398 153.075 129.062 152.944C128.735 152.804 128.469 152.566 128.264 152.23C128.059 151.894 127.956 151.423 127.956 150.816V146.448H126.892V145.86L127.97 145.37L128.46 143.774H129.188V145.496H131.358V146.448H129.188V150.788C129.188 151.245 129.295 151.586 129.51 151.81C129.734 152.025 130.019 152.132 130.364 152.132ZM133.547 142.682C133.733 142.682 133.897 142.747 134.037 142.878C134.186 142.999 134.261 143.195 134.261 143.466C134.261 143.737 134.186 143.937 134.037 144.068C133.897 144.189 133.733 144.25 133.547 144.25C133.341 144.25 133.169 144.189 133.029 144.068C132.889 143.937 132.819 143.737 132.819 143.466C132.819 143.195 132.889 142.999 133.029 142.878C133.169 142.747 133.341 142.682 133.547 142.682ZM134.149 145.496V153H132.917V145.496H134.149ZM143.05 149.234C143.05 150.475 142.733 151.437 142.098 152.118C141.473 152.799 140.623 153.14 139.55 153.14C138.887 153.14 138.295 152.991 137.772 152.692C137.259 152.384 136.853 151.941 136.554 151.362C136.255 150.774 136.106 150.065 136.106 149.234C136.106 147.993 136.414 147.036 137.03 146.364C137.655 145.692 138.509 145.356 139.592 145.356C140.264 145.356 140.861 145.51 141.384 145.818C141.907 146.117 142.313 146.555 142.602 147.134C142.901 147.703 143.05 148.403 143.05 149.234ZM137.38 149.234C137.38 150.121 137.553 150.825 137.898 151.348C138.253 151.861 138.813 152.118 139.578 152.118C140.334 152.118 140.889 151.861 141.244 151.348C141.599 150.825 141.776 150.121 141.776 149.234C141.776 148.347 141.599 147.652 141.244 147.148C140.889 146.644 140.329 146.392 139.564 146.392C138.799 146.392 138.243 146.644 137.898 147.148C137.553 147.652 137.38 148.347 137.38 149.234ZM148.615 145.356C149.511 145.356 150.187 145.575 150.645 146.014C151.102 146.453 151.331 147.153 151.331 148.114V153H150.113V148.198C150.113 146.994 149.553 146.392 148.433 146.392C147.602 146.392 147.028 146.625 146.711 147.092C146.393 147.559 146.235 148.231 146.235 149.108V153H145.003V145.496H145.997L146.179 146.518H146.249C146.491 146.126 146.827 145.837 147.257 145.65C147.686 145.454 148.139 145.356 148.615 145.356ZM157.924 142.682C158.11 142.682 158.274 142.747 158.414 142.878C158.563 142.999 158.638 143.195 158.638 143.466C158.638 143.737 158.563 143.937 158.414 144.068C158.274 144.189 158.11 144.25 157.924 144.25C157.718 144.25 157.546 144.189 157.406 144.068C157.266 143.937 157.196 143.737 157.196 143.466C157.196 143.195 157.266 142.999 157.406 142.878C157.546 142.747 157.718 142.682 157.924 142.682ZM158.526 145.496V153H157.294V145.496H158.526ZM163.409 152.132C163.596 152.132 163.787 152.118 163.983 152.09C164.179 152.062 164.338 152.025 164.459 151.978V152.916C164.328 152.981 164.142 153.033 163.899 153.07C163.656 153.117 163.423 153.14 163.199 153.14C162.807 153.14 162.443 153.075 162.107 152.944C161.78 152.804 161.514 152.566 161.309 152.23C161.104 151.894 161.001 151.423 161.001 150.816V146.448H159.937V145.86L161.015 145.37L161.505 143.774H162.233V145.496H164.403V146.448H162.233V150.788C162.233 151.245 162.34 151.586 162.555 151.81C162.779 152.025 163.064 152.132 163.409 152.132ZM168.859 145.356C169.494 145.356 170.045 145.496 170.511 145.776C170.978 146.056 171.333 146.453 171.575 146.966C171.827 147.47 171.953 148.063 171.953 148.744V149.486H166.815C166.834 150.335 167.049 150.984 167.459 151.432C167.879 151.871 168.463 152.09 169.209 152.09C169.685 152.09 170.105 152.048 170.469 151.964C170.843 151.871 171.225 151.74 171.617 151.572V152.65C171.235 152.818 170.857 152.939 170.483 153.014C170.11 153.098 169.667 153.14 169.153 153.14C168.435 153.14 167.805 152.995 167.263 152.706C166.722 152.417 166.297 151.987 165.989 151.418C165.691 150.849 165.541 150.144 165.541 149.304C165.541 148.483 165.677 147.778 165.947 147.19C166.227 146.602 166.615 146.149 167.109 145.832C167.613 145.515 168.197 145.356 168.859 145.356ZM168.845 146.364C168.257 146.364 167.791 146.555 167.445 146.938C167.109 147.311 166.909 147.834 166.843 148.506H170.665C170.656 147.871 170.507 147.358 170.217 146.966C169.928 146.565 169.471 146.364 168.845 146.364ZM182.096 145.356C182.945 145.356 183.58 145.575 184 146.014C184.42 146.453 184.63 147.153 184.63 148.114V153H183.412V148.17C183.412 146.985 182.903 146.392 181.886 146.392C181.158 146.392 180.635 146.602 180.318 147.022C180.01 147.442 179.856 148.053 179.856 148.856V153H178.638V148.17C178.638 146.985 178.124 146.392 177.098 146.392C176.342 146.392 175.819 146.625 175.53 147.092C175.24 147.559 175.096 148.231 175.096 149.108V153H173.864V145.496H174.858L175.04 146.518H175.11C175.343 146.126 175.656 145.837 176.048 145.65C176.449 145.454 176.874 145.356 177.322 145.356C178.498 145.356 179.263 145.776 179.618 146.616H179.688C179.94 146.187 180.28 145.869 180.71 145.664C181.139 145.459 181.601 145.356 182.096 145.356Z" fill="black"/>
<path d="M118.63 189L117.426 185.906H113.464L112.274 189H111L114.906 178.962H116.04L119.932 189H118.63ZM117.048 184.786L115.928 181.762C115.9 181.687 115.853 181.552 115.788 181.356C115.723 181.16 115.657 180.959 115.592 180.754C115.536 180.539 115.489 180.376 115.452 180.264C115.377 180.553 115.298 180.838 115.214 181.118C115.139 181.389 115.074 181.603 115.018 181.762L113.884 184.786H117.048ZM124.141 189.14C123.469 189.14 122.877 189.005 122.363 188.734C121.85 188.463 121.444 188.043 121.145 187.474C120.856 186.905 120.711 186.177 120.711 185.29C120.711 184.366 120.861 183.615 121.159 183.036C121.467 182.457 121.887 182.033 122.419 181.762C122.951 181.491 123.553 181.356 124.225 181.356C124.599 181.356 124.963 181.398 125.317 181.482C125.681 181.557 125.975 181.65 126.199 181.762L125.821 182.784C125.597 182.7 125.336 182.621 125.037 182.546C124.739 182.471 124.459 182.434 124.197 182.434C122.723 182.434 121.985 183.381 121.985 185.276C121.985 186.181 122.163 186.877 122.517 187.362C122.881 187.838 123.418 188.076 124.127 188.076C124.529 188.076 124.888 188.034 125.205 187.95C125.523 187.866 125.812 187.763 126.073 187.642V188.734C125.821 188.865 125.541 188.963 125.233 189.028C124.935 189.103 124.571 189.14 124.141 189.14ZM130.364 188.132C130.551 188.132 130.742 188.118 130.938 188.09C131.134 188.062 131.293 188.025 131.414 187.978V188.916C131.283 188.981 131.097 189.033 130.854 189.07C130.611 189.117 130.378 189.14 130.154 189.14C129.762 189.14 129.398 189.075 129.062 188.944C128.735 188.804 128.469 188.566 128.264 188.23C128.059 187.894 127.956 187.423 127.956 186.816V182.448H126.892V181.86L127.97 181.37L128.46 179.774H129.188V181.496H131.358V182.448H129.188V186.788C129.188 187.245 129.295 187.586 129.51 187.81C129.734 188.025 130.019 188.132 130.364 188.132ZM133.547 178.682C133.733 178.682 133.897 178.747 134.037 178.878C134.186 178.999 134.261 179.195 134.261 179.466C134.261 179.737 134.186 179.937 134.037 180.068C133.897 180.189 133.733 180.25 133.547 180.25C133.341 180.25 133.169 180.189 133.029 180.068C132.889 179.937 132.819 179.737 132.819 179.466C132.819 179.195 132.889 178.999 133.029 178.878C133.169 178.747 133.341 178.682 133.547 178.682ZM134.149 181.496V189H132.917V181.496H134.149ZM143.05 185.234C143.05 186.475 142.733 187.437 142.098 188.118C141.473 188.799 140.623 189.14 139.55 189.14C138.887 189.14 138.295 188.991 137.772 188.692C137.259 188.384 136.853 187.941 136.554 187.362C136.255 186.774 136.106 186.065 136.106 185.234C136.106 183.993 136.414 183.036 137.03 182.364C137.655 181.692 138.509 181.356 139.592 181.356C140.264 181.356 140.861 181.51 141.384 181.818C141.907 182.117 142.313 182.555 142.602 183.134C142.901 183.703 143.05 184.403 143.05 185.234ZM137.38 185.234C137.38 186.121 137.553 186.825 137.898 187.348C138.253 187.861 138.813 188.118 139.578 188.118C140.334 188.118 140.889 187.861 141.244 187.348C141.599 186.825 141.776 186.121 141.776 185.234C141.776 184.347 141.599 183.652 141.244 183.148C140.889 182.644 140.329 182.392 139.564 182.392C138.799 182.392 138.243 182.644 137.898 183.148C137.553 183.652 137.38 184.347 137.38 185.234ZM148.615 181.356C149.511 181.356 150.187 181.575 150.645 182.014C151.102 182.453 151.331 183.153 151.331 184.114V189H150.113V184.198C150.113 182.994 149.553 182.392 148.433 182.392C147.602 182.392 147.028 182.625 146.711 183.092C146.393 183.559 146.235 184.231 146.235 185.108V189H145.003V181.496H145.997L146.179 182.518H146.249C146.491 182.126 146.827 181.837 147.257 181.65C147.686 181.454 148.139 181.356 148.615 181.356ZM157.924 178.682C158.11 178.682 158.274 178.747 158.414 178.878C158.563 178.999 158.638 179.195 158.638 179.466C158.638 179.737 158.563 179.937 158.414 180.068C158.274 180.189 158.11 180.25 157.924 180.25C157.718 180.25 157.546 180.189 157.406 180.068C157.266 179.937 157.196 179.737 157.196 179.466C157.196 179.195 157.266 178.999 157.406 178.878C157.546 178.747 157.718 178.682 157.924 178.682ZM158.526 181.496V189H157.294V181.496H158.526ZM163.409 188.132C163.596 188.132 163.787 188.118 163.983 188.09C164.179 188.062 164.338 188.025 164.459 187.978V188.916C164.328 188.981 164.142 189.033 163.899 189.07C163.656 189.117 163.423 189.14 163.199 189.14C162.807 189.14 162.443 189.075 162.107 188.944C161.78 188.804 161.514 188.566 161.309 188.23C161.104 187.894 161.001 187.423 161.001 186.816V182.448H159.937V181.86L161.015 181.37L161.505 179.774H162.233V181.496H164.403V182.448H162.233V186.788C162.233 187.245 162.34 187.586 162.555 187.81C162.779 188.025 163.064 188.132 163.409 188.132ZM168.859 181.356C169.494 181.356 170.045 181.496 170.511 181.776C170.978 182.056 171.333 182.453 171.575 182.966C171.827 183.47 171.953 184.063 171.953 184.744V185.486H166.815C166.834 186.335 167.049 186.984 167.459 187.432C167.879 187.871 168.463 188.09 169.209 188.09C169.685 188.09 170.105 188.048 170.469 187.964C170.843 187.871 171.225 187.74 171.617 187.572V188.65C171.235 188.818 170.857 188.939 170.483 189.014C170.11 189.098 169.667 189.14 169.153 189.14C168.435 189.14 167.805 188.995 167.263 188.706C166.722 188.417 166.297 187.987 165.989 187.418C165.691 186.849 165.541 186.144 165.541 185.304C165.541 184.483 165.677 183.778 165.947 183.19C166.227 182.602 166.615 182.149 167.109 181.832C167.613 181.515 168.197 181.356 168.859 181.356ZM168.845 182.364C168.257 182.364 167.791 182.555 167.445 182.938C167.109 183.311 166.909 183.834 166.843 184.506H170.665C170.656 183.871 170.507 183.358 170.217 182.966C169.928 182.565 169.471 182.364 168.845 182.364ZM182.096 181.356C182.945 181.356 183.58 181.575 184 182.014C184.42 182.453 184.63 183.153 184.63 184.114V189H183.412V184.17C183.412 182.985 182.903 182.392 181.886 182.392C181.158 182.392 180.635 182.602 180.318 183.022C180.01 183.442 179.856 184.053 179.856 184.856V189H178.638V184.17C178.638 182.985 178.124 182.392 177.098 182.392C176.342 182.392 175.819 182.625 175.53 183.092C175.24 183.559 175.096 184.231 175.096 185.108V189H173.864V181.496H174.858L175.04 182.518H175.11C175.343 182.126 175.656 181.837 176.048 181.65C176.449 181.454 176.874 181.356 177.322 181.356C178.498 181.356 179.263 181.776 179.618 182.616H179.688C179.94 182.187 180.28 181.869 180.71 181.664C181.139 181.459 181.601 181.356 182.096 181.356Z" fill="black"/>
<path d="M118.63 225L117.426 221.906H113.464L112.274 225H111L114.906 214.962H116.04L119.932 225H118.63ZM117.048 220.786L115.928 217.762C115.9 217.687 115.853 217.552 115.788 217.356C115.723 217.16 115.657 216.959 115.592 216.754C115.536 216.539 115.489 216.376 115.452 216.264C115.377 216.553 115.298 216.838 115.214 217.118C115.139 217.389 115.074 217.603 115.018 217.762L113.884 220.786H117.048ZM124.141 225.14C123.469 225.14 122.877 225.005 122.363 224.734C121.85 224.463 121.444 224.043 121.145 223.474C120.856 222.905 120.711 222.177 120.711 221.29C120.711 220.366 120.861 219.615 121.159 219.036C121.467 218.457 121.887 218.033 122.419 217.762C122.951 217.491 123.553 217.356 124.225 217.356C124.599 217.356 124.963 217.398 125.317 217.482C125.681 217.557 125.975 217.65 126.199 217.762L125.821 218.784C125.597 218.7 125.336 218.621 125.037 218.546C124.739 218.471 124.459 218.434 124.197 218.434C122.723 218.434 121.985 219.381 121.985 221.276C121.985 222.181 122.163 222.877 122.517 223.362C122.881 223.838 123.418 224.076 124.127 224.076C124.529 224.076 124.888 224.034 125.205 223.95C125.523 223.866 125.812 223.763 126.073 223.642V224.734C125.821 224.865 125.541 224.963 125.233 225.028C124.935 225.103 124.571 225.14 124.141 225.14ZM130.364 224.132C130.551 224.132 130.742 224.118 130.938 224.09C131.134 224.062 131.293 224.025 131.414 223.978V224.916C131.283 224.981 131.097 225.033 130.854 225.07C130.611 225.117 130.378 225.14 130.154 225.14C129.762 225.14 129.398 225.075 129.062 224.944C128.735 224.804 128.469 224.566 128.264 224.23C128.059 223.894 127.956 223.423 127.956 222.816V218.448H126.892V217.86L127.97 217.37L128.46 215.774H129.188V217.496H131.358V218.448H129.188V222.788C129.188 223.245 129.295 223.586 129.51 223.81C129.734 224.025 130.019 224.132 130.364 224.132ZM133.547 214.682C133.733 214.682 133.897 214.747 134.037 214.878C134.186 214.999 134.261 215.195 134.261 215.466C134.261 215.737 134.186 215.937 134.037 216.068C133.897 216.189 133.733 216.25 133.547 216.25C133.341 216.25 133.169 216.189 133.029 216.068C132.889 215.937 132.819 215.737 132.819 215.466C132.819 215.195 132.889 214.999 133.029 214.878C133.169 214.747 133.341 214.682 133.547 214.682ZM134.149 217.496V225H132.917V217.496H134.149ZM143.05 221.234C143.05 222.475 142.733 223.437 142.098 224.118C141.473 224.799 140.623 225.14 139.55 225.14C138.887 225.14 138.295 224.991 137.772 224.692C137.259 224.384 136.853 223.941 136.554 223.362C136.255 222.774 136.106 222.065 136.106 221.234C136.106 219.993 136.414 219.036 137.03 218.364C137.655 217.692 138.509 217.356 139.592 217.356C140.264 217.356 140.861 217.51 141.384 217.818C141.907 218.117 142.313 218.555 142.602 219.134C142.901 219.703 143.05 220.403 143.05 221.234ZM137.38 221.234C137.38 222.121 137.553 222.825 137.898 223.348C138.253 223.861 138.813 224.118 139.578 224.118C140.334 224.118 140.889 223.861 141.244 223.348C141.599 222.825 141.776 222.121 141.776 221.234C141.776 220.347 141.599 219.652 141.244 219.148C140.889 218.644 140.329 218.392 139.564 218.392C138.799 218.392 138.243 218.644 137.898 219.148C137.553 219.652 137.38 220.347 137.38 221.234ZM148.615 217.356C149.511 217.356 150.187 217.575 150.645 218.014C151.102 218.453 151.331 219.153 151.331 220.114V225H150.113V220.198C150.113 218.994 149.553 218.392 148.433 218.392C147.602 218.392 147.028 218.625 146.711 219.092C146.393 219.559 146.235 220.231 146.235 221.108V225H145.003V217.496H145.997L146.179 218.518H146.249C146.491 218.126 146.827 217.837 147.257 217.65C147.686 217.454 148.139 217.356 148.615 217.356ZM157.924 214.682C158.11 214.682 158.274 214.747 158.414 214.878C158.563 214.999 158.638 215.195 158.638 215.466C158.638 215.737 158.563 215.937 158.414 216.068C158.274 216.189 158.11 216.25 157.924 216.25C157.718 216.25 157.546 216.189 157.406 216.068C157.266 215.937 157.196 215.737 157.196 215.466C157.196 215.195 157.266 214.999 157.406 214.878C157.546 214.747 157.718 214.682 157.924 214.682ZM158.526 217.496V225H157.294V217.496H158.526ZM163.409 224.132C163.596 224.132 163.787 224.118 163.983 224.09C164.179 224.062 164.338 224.025 164.459 223.978V224.916C164.328 224.981 164.142 225.033 163.899 225.07C163.656 225.117 163.423 225.14 163.199 225.14C162.807 225.14 162.443 225.075 162.107 224.944C161.78 224.804 161.514 224.566 161.309 224.23C161.104 223.894 161.001 223.423 161.001 222.816V218.448H159.937V217.86L161.015 217.37L161.505 215.774H162.233V217.496H164.403V218.448H162.233V222.788C162.233 223.245 162.34 223.586 162.555 223.81C162.779 224.025 163.064 224.132 163.409 224.132ZM168.859 217.356C169.494 217.356 170.045 217.496 170.511 217.776C170.978 218.056 171.333 218.453 171.575 218.966C171.827 219.47 171.953 220.063 171.953 220.744V221.486H166.815C166.834 222.335 167.049 222.984 167.459 223.432C167.879 223.871 168.463 224.09 169.209 224.09C169.685 224.09 170.105 224.048 170.469 223.964C170.843 223.871 171.225 223.74 171.617 223.572V224.65C171.235 224.818 170.857 224.939 170.483 225.014C170.11 225.098 169.667 225.14 169.153 225.14C168.435 225.14 167.805 224.995 167.263 224.706C166.722 224.417 166.297 223.987 165.989 223.418C165.691 222.849 165.541 222.144 165.541 221.304C165.541 220.483 165.677 219.778 165.947 219.19C166.227 218.602 166.615 218.149 167.109 217.832C167.613 217.515 168.197 217.356 168.859 217.356ZM168.845 218.364C168.257 218.364 167.791 218.555 167.445 218.938C167.109 219.311 166.909 219.834 166.843 220.506H170.665C170.656 219.871 170.507 219.358 170.217 218.966C169.928 218.565 169.471 218.364 168.845 218.364ZM182.096 217.356C182.945 217.356 183.58 217.575 184 218.014C184.42 218.453 184.63 219.153 184.63 220.114V225H183.412V220.17C183.412 218.985 182.903 218.392 181.886 218.392C181.158 218.392 180.635 218.602 180.318 219.022C180.01 219.442 179.856 220.053 179.856 220.856V225H178.638V220.17C178.638 218.985 178.124 218.392 177.098 218.392C176.342 218.392 175.819 218.625 175.53 219.092C175.24 219.559 175.096 220.231 175.096 221.108V225H173.864V217.496H174.858L175.04 218.518H175.11C175.343 218.126 175.656 217.837 176.048 217.65C176.449 217.454 176.874 217.356 177.322 217.356C178.498 217.356 179.263 217.776 179.618 218.616H179.688C179.94 218.187 180.28 217.869 180.71 217.664C181.139 217.459 181.601 217.356 182.096 217.356Z" fill="black"/>
<path d="M118.63 261L117.426 257.906H113.464L112.274 261H111L114.906 250.962H116.04L119.932 261H118.63ZM117.048 256.786L115.928 253.762C115.9 253.687 115.853 253.552 115.788 253.356C115.723 253.16 115.657 252.959 115.592 252.754C115.536 252.539 115.489 252.376 115.452 252.264C115.377 252.553 115.298 252.838 115.214 253.118C115.139 253.389 115.074 253.603 115.018 253.762L113.884 256.786H117.048ZM124.141 261.14C123.469 261.14 122.877 261.005 122.363 260.734C121.85 260.463 121.444 260.043 121.145 259.474C120.856 258.905 120.711 258.177 120.711 257.29C120.711 256.366 120.861 255.615 121.159 255.036C121.467 254.457 121.887 254.033 122.419 253.762C122.951 253.491 123.553 253.356 124.225 253.356C124.599 253.356 124.963 253.398 125.317 253.482C125.681 253.557 125.975 253.65 126.199 253.762L125.821 254.784C125.597 254.7 125.336 254.621 125.037 254.546C124.739 254.471 124.459 254.434 124.197 254.434C122.723 254.434 121.985 255.381 121.985 257.276C121.985 258.181 122.163 258.877 122.517 259.362C122.881 259.838 123.418 260.076 124.127 260.076C124.529 260.076 124.888 260.034 125.205 259.95C125.523 259.866 125.812 259.763 126.073 259.642V260.734C125.821 260.865 125.541 260.963 125.233 261.028C124.935 261.103 124.571 261.14 124.141 261.14ZM130.364 260.132C130.551 260.132 130.742 260.118 130.938 260.09C131.134 260.062 131.293 260.025 131.414 259.978V260.916C131.283 260.981 131.097 261.033 130.854 261.07C130.611 261.117 130.378 261.14 130.154 261.14C129.762 261.14 129.398 261.075 129.062 260.944C128.735 260.804 128.469 260.566 128.264 260.23C128.059 259.894 127.956 259.423 127.956 258.816V254.448H126.892V253.86L127.97 253.37L128.46 251.774H129.188V253.496H131.358V254.448H129.188V258.788C129.188 259.245 129.295 259.586 129.51 259.81C129.734 260.025 130.019 260.132 130.364 260.132ZM133.547 250.682C133.733 250.682 133.897 250.747 134.037 250.878C134.186 250.999 134.261 251.195 134.261 251.466C134.261 251.737 134.186 251.937 134.037 252.068C133.897 252.189 133.733 252.25 133.547 252.25C133.341 252.25 133.169 252.189 133.029 252.068C132.889 251.937 132.819 251.737 132.819 251.466C132.819 251.195 132.889 250.999 133.029 250.878C133.169 250.747 133.341 250.682 133.547 250.682ZM134.149 253.496V261H132.917V253.496H134.149ZM143.05 257.234C143.05 258.475 142.733 259.437 142.098 260.118C141.473 260.799 140.623 261.14 139.55 261.14C138.887 261.14 138.295 260.991 137.772 260.692C137.259 260.384 136.853 259.941 136.554 259.362C136.255 258.774 136.106 258.065 136.106 257.234C136.106 255.993 136.414 255.036 137.03 254.364C137.655 253.692 138.509 253.356 139.592 253.356C140.264 253.356 140.861 253.51 141.384 253.818C141.907 254.117 142.313 254.555 142.602 255.134C142.901 255.703 143.05 256.403 143.05 257.234ZM137.38 257.234C137.38 258.121 137.553 258.825 137.898 259.348C138.253 259.861 138.813 260.118 139.578 260.118C140.334 260.118 140.889 259.861 141.244 259.348C141.599 258.825 141.776 258.121 141.776 257.234C141.776 256.347 141.599 255.652 141.244 255.148C140.889 254.644 140.329 254.392 139.564 254.392C138.799 254.392 138.243 254.644 137.898 255.148C137.553 255.652 137.38 256.347 137.38 257.234ZM148.615 253.356C149.511 253.356 150.187 253.575 150.645 254.014C151.102 254.453 151.331 255.153 151.331 256.114V261H150.113V256.198C150.113 254.994 149.553 254.392 148.433 254.392C147.602 254.392 147.028 254.625 146.711 255.092C146.393 255.559 146.235 256.231 146.235 257.108V261H145.003V253.496H145.997L146.179 254.518H146.249C146.491 254.126 146.827 253.837 147.257 253.65C147.686 253.454 148.139 253.356 148.615 253.356ZM157.924 250.682C158.11 250.682 158.274 250.747 158.414 250.878C158.563 250.999 158.638 251.195 158.638 251.466C158.638 251.737 158.563 251.937 158.414 252.068C158.274 252.189 158.11 252.25 157.924 252.25C157.718 252.25 157.546 252.189 157.406 252.068C157.266 251.937 157.196 251.737 157.196 251.466C157.196 251.195 157.266 250.999 157.406 250.878C157.546 250.747 157.718 250.682 157.924 250.682ZM158.526 253.496V261H157.294V253.496H158.526ZM163.409 260.132C163.596 260.132 163.787 260.118 163.983 260.09C164.179 260.062 164.338 260.025 164.459 259.978V260.916C164.328 260.981 164.142 261.033 163.899 261.07C163.656 261.117 163.423 261.14 163.199 261.14C162.807 261.14 162.443 261.075 162.107 260.944C161.78 260.804 161.514 260.566 161.309 260.23C161.104 259.894 161.001 259.423 161.001 258.816V254.448H159.937V253.86L161.015 253.37L161.505 251.774H162.233V253.496H164.403V254.448H162.233V258.788C162.233 259.245 162.34 259.586 162.555 259.81C162.779 260.025 163.064 260.132 163.409 260.132ZM168.859 253.356C169.494 253.356 170.045 253.496 170.511 253.776C170.978 254.056 171.333 254.453 171.575 254.966C171.827 255.47 171.953 256.063 171.953 256.744V257.486H166.815C166.834 258.335 167.049 258.984 167.459 259.432C167.879 259.871 168.463 260.09 169.209 260.09C169.685 260.09 170.105 260.048 170.469 259.964C170.843 259.871 171.225 259.74 171.617 259.572V260.65C171.235 260.818 170.857 260.939 170.483 261.014C170.11 261.098 169.667 261.14 169.153 261.14C168.435 261.14 167.805 260.995 167.263 260.706C166.722 260.417 166.297 259.987 165.989 259.418C165.691 258.849 165.541 258.144 165.541 257.304C165.541 256.483 165.677 255.778 165.947 255.19C166.227 254.602 166.615 254.149 167.109 253.832C167.613 253.515 168.197 253.356 168.859 253.356ZM168.845 254.364C168.257 254.364 167.791 254.555 167.445 254.938C167.109 255.311 166.909 255.834 166.843 256.506H170.665C170.656 255.871 170.507 255.358 170.217 254.966C169.928 254.565 169.471 254.364 168.845 254.364ZM182.096 253.356C182.945 253.356 183.58 253.575 184 254.014C184.42 254.453 184.63 255.153 184.63 256.114V261H183.412V256.17C183.412 254.985 182.903 254.392 181.886 254.392C181.158 254.392 180.635 254.602 180.318 255.022C180.01 255.442 179.856 256.053 179.856 256.856V261H178.638V256.17C178.638 254.985 178.124 254.392 177.098 254.392C176.342 254.392 175.819 254.625 175.53 255.092C175.24 255.559 175.096 256.231 175.096 257.108V261H173.864V253.496H174.858L175.04 254.518H175.11C175.343 254.126 175.656 253.837 176.048 253.65C176.449 253.454 176.874 253.356 177.322 253.356C178.498 253.356 179.263 253.776 179.618 254.616H179.688C179.94 254.187 180.28 253.869 180.71 253.664C181.139 253.459 181.601 253.356 182.096 253.356Z" fill="black"/>
<path d="M118.63 297L117.426 293.906H113.464L112.274 297H111L114.906 286.962H116.04L119.932 297H118.63ZM117.048 292.786L115.928 289.762C115.9 289.687 115.853 289.552 115.788 289.356C115.723 289.16 115.657 288.959 115.592 288.754C115.536 288.539 115.489 288.376 115.452 288.264C115.377 288.553 115.298 288.838 115.214 289.118C115.139 289.389 115.074 289.603 115.018 289.762L113.884 292.786H117.048ZM124.141 297.14C123.469 297.14 122.877 297.005 122.363 296.734C121.85 296.463 121.444 296.043 121.145 295.474C120.856 294.905 120.711 294.177 120.711 293.29C120.711 292.366 120.861 291.615 121.159 291.036C121.467 290.457 121.887 290.033 122.419 289.762C122.951 289.491 123.553 289.356 124.225 289.356C124.599 289.356 124.963 289.398 125.317 289.482C125.681 289.557 125.975 289.65 126.199 289.762L125.821 290.784C125.597 290.7 125.336 290.621 125.037 290.546C124.739 290.471 124.459 290.434 124.197 290.434C122.723 290.434 121.985 291.381 121.985 293.276C121.985 294.181 122.163 294.877 122.517 295.362C122.881 295.838 123.418 296.076 124.127 296.076C124.529 296.076 124.888 296.034 125.205 295.95C125.523 295.866 125.812 295.763 126.073 295.642V296.734C125.821 296.865 125.541 296.963 125.233 297.028C124.935 297.103 124.571 297.14 124.141 297.14ZM130.364 296.132C130.551 296.132 130.742 296.118 130.938 296.09C131.134 296.062 131.293 296.025 131.414 295.978V296.916C131.283 296.981 131.097 297.033 130.854 297.07C130.611 297.117 130.378 297.14 130.154 297.14C129.762 297.14 129.398 297.075 129.062 296.944C128.735 296.804 128.469 296.566 128.264 296.23C128.059 295.894 127.956 295.423 127.956 294.816V290.448H126.892V289.86L127.97 289.37L128.46 287.774H129.188V289.496H131.358V290.448H129.188V294.788C129.188 295.245 129.295 295.586 129.51 295.81C129.734 296.025 130.019 296.132 130.364 296.132ZM133.547 286.682C133.733 286.682 133.897 286.747 134.037 286.878C134.186 286.999 134.261 287.195 134.261 287.466C134.261 287.737 134.186 287.937 134.037 288.068C133.897 288.189 133.733 288.25 133.547 288.25C133.341 288.25 133.169 288.189 133.029 288.068C132.889 287.937 132.819 287.737 132.819 287.466C132.819 287.195 132.889 286.999 133.029 286.878C133.169 286.747 133.341 286.682 133.547 286.682ZM134.149 289.496V297H132.917V289.496H134.149ZM143.05 293.234C143.05 294.475 142.733 295.437 142.098 296.118C141.473 296.799 140.623 297.14 139.55 297.14C138.887 297.14 138.295 296.991 137.772 296.692C137.259 296.384 136.853 295.941 136.554 295.362C136.255 294.774 136.106 294.065 136.106 293.234C136.106 291.993 136.414 291.036 137.03 290.364C137.655 289.692 138.509 289.356 139.592 289.356C140.264 289.356 140.861 289.51 141.384 289.818C141.907 290.117 142.313 290.555 142.602 291.134C142.901 291.703 143.05 292.403 143.05 293.234ZM137.38 293.234C137.38 294.121 137.553 294.825 137.898 295.348C138.253 295.861 138.813 296.118 139.578 296.118C140.334 296.118 140.889 295.861 141.244 295.348C141.599 294.825 141.776 294.121 141.776 293.234C141.776 292.347 141.599 291.652 141.244 291.148C140.889 290.644 140.329 290.392 139.564 290.392C138.799 290.392 138.243 290.644 137.898 291.148C137.553 291.652 137.38 292.347 137.38 293.234ZM148.615 289.356C149.511 289.356 150.187 289.575 150.645 290.014C151.102 290.453 151.331 291.153 151.331 292.114V297H150.113V292.198C150.113 290.994 149.553 290.392 148.433 290.392C147.602 290.392 147.028 290.625 146.711 291.092C146.393 291.559 146.235 292.231 146.235 293.108V297H145.003V289.496H145.997L146.179 290.518H146.249C146.491 290.126 146.827 289.837 147.257 289.65C147.686 289.454 148.139 289.356 148.615 289.356ZM157.924 286.682C158.11 286.682 158.274 286.747 158.414 286.878C158.563 286.999 158.638 287.195 158.638 287.466C158.638 287.737 158.563 287.937 158.414 288.068C158.274 288.189 158.11 288.25 157.924 288.25C157.718 288.25 157.546 288.189 157.406 288.068C157.266 287.937 157.196 287.737 157.196 287.466C157.196 287.195 157.266 286.999 157.406 286.878C157.546 286.747 157.718 286.682 157.924 286.682ZM158.526 289.496V297H157.294V289.496H158.526ZM163.409 296.132C163.596 296.132 163.787 296.118 163.983 296.09C164.179 296.062 164.338 296.025 164.459 295.978V296.916C164.328 296.981 164.142 297.033 163.899 297.07C163.656 297.117 163.423 297.14 163.199 297.14C162.807 297.14 162.443 297.075 162.107 296.944C161.78 296.804 161.514 296.566 161.309 296.23C161.104 295.894 161.001 295.423 161.001 294.816V290.448H159.937V289.86L161.015 289.37L161.505 287.774H162.233V289.496H164.403V290.448H162.233V294.788C162.233 295.245 162.34 295.586 162.555 295.81C162.779 296.025 163.064 296.132 163.409 296.132ZM168.859 289.356C169.494 289.356 170.045 289.496 170.511 289.776C170.978 290.056 171.333 290.453 171.575 290.966C171.827 291.47 171.953 292.063 171.953 292.744V293.486H166.815C166.834 294.335 167.049 294.984 167.459 295.432C167.879 295.871 168.463 296.09 169.209 296.09C169.685 296.09 170.105 296.048 170.469 295.964C170.843 295.871 171.225 295.74 171.617 295.572V296.65C171.235 296.818 170.857 296.939 170.483 297.014C170.11 297.098 169.667 297.14 169.153 297.14C168.435 297.14 167.805 296.995 167.263 296.706C166.722 296.417 166.297 295.987 165.989 295.418C165.691 294.849 165.541 294.144 165.541 293.304C165.541 292.483 165.677 291.778 165.947 291.19C166.227 290.602 166.615 290.149 167.109 289.832C167.613 289.515 168.197 289.356 168.859 289.356ZM168.845 290.364C168.257 290.364 167.791 290.555 167.445 290.938C167.109 291.311 166.909 291.834 166.843 292.506H170.665C170.656 291.871 170.507 291.358 170.217 290.966C169.928 290.565 169.471 290.364 168.845 290.364ZM182.096 289.356C182.945 289.356 183.58 289.575 184 290.014C184.42 290.453 184.63 291.153 184.63 292.114V297H183.412V292.17C183.412 290.985 182.903 290.392 181.886 290.392C181.158 290.392 180.635 290.602 180.318 291.022C180.01 291.442 179.856 292.053 179.856 292.856V297H178.638V292.17C178.638 290.985 178.124 290.392 177.098 290.392C176.342 290.392 175.819 290.625 175.53 291.092C175.24 291.559 175.096 292.231 175.096 293.108V297H173.864V289.496H174.858L175.04 290.518H175.11C175.343 290.126 175.656 289.837 176.048 289.65C176.449 289.454 176.874 289.356 177.322 289.356C178.498 289.356 179.263 289.776 179.618 290.616H179.688C179.94 290.187 180.28 289.869 180.71 289.664C181.139 289.459 181.601 289.356 182.096 289.356Z" fill="black"/>
<path d="M118.63 333L117.426 329.906H113.464L112.274 333H111L114.906 322.962H116.04L119.932 333H118.63ZM117.048 328.786L115.928 325.762C115.9 325.687 115.853 325.552 115.788 325.356C115.723 325.16 115.657 324.959 115.592 324.754C115.536 324.539 115.489 324.376 115.452 324.264C115.377 324.553 115.298 324.838 115.214 325.118C115.139 325.389 115.074 325.603 115.018 325.762L113.884 328.786H117.048ZM124.141 333.14C123.469 333.14 122.877 333.005 122.363 332.734C121.85 332.463 121.444 332.043 121.145 331.474C120.856 330.905 120.711 330.177 120.711 329.29C120.711 328.366 120.861 327.615 121.159 327.036C121.467 326.457 121.887 326.033 122.419 325.762C122.951 325.491 123.553 325.356 124.225 325.356C124.599 325.356 124.963 325.398 125.317 325.482C125.681 325.557 125.975 325.65 126.199 325.762L125.821 326.784C125.597 326.7 125.336 326.621 125.037 326.546C124.739 326.471 124.459 326.434 124.197 326.434C122.723 326.434 121.985 327.381 121.985 329.276C121.985 330.181 122.163 330.877 122.517 331.362C122.881 331.838 123.418 332.076 124.127 332.076C124.529 332.076 124.888 332.034 125.205 331.95C125.523 331.866 125.812 331.763 126.073 331.642V332.734C125.821 332.865 125.541 332.963 125.233 333.028C124.935 333.103 124.571 333.14 124.141 333.14ZM130.364 332.132C130.551 332.132 130.742 332.118 130.938 332.09C131.134 332.062 131.293 332.025 131.414 331.978V332.916C131.283 332.981 131.097 333.033 130.854 333.07C130.611 333.117 130.378 333.14 130.154 333.14C129.762 333.14 129.398 333.075 129.062 332.944C128.735 332.804 128.469 332.566 128.264 332.23C128.059 331.894 127.956 331.423 127.956 330.816V326.448H126.892V325.86L127.97 325.37L128.46 323.774H129.188V325.496H131.358V326.448H129.188V330.788C129.188 331.245 129.295 331.586 129.51 331.81C129.734 332.025 130.019 332.132 130.364 332.132ZM133.547 322.682C133.733 322.682 133.897 322.747 134.037 322.878C134.186 322.999 134.261 323.195 134.261 323.466C134.261 323.737 134.186 323.937 134.037 324.068C133.897 324.189 133.733 324.25 133.547 324.25C133.341 324.25 133.169 324.189 133.029 324.068C132.889 323.937 132.819 323.737 132.819 323.466C132.819 323.195 132.889 322.999 133.029 322.878C133.169 322.747 133.341 322.682 133.547 322.682ZM134.149 325.496V333H132.917V325.496H134.149ZM143.05 329.234C143.05 330.475 142.733 331.437 142.098 332.118C141.473 332.799 140.623 333.14 139.55 333.14C138.887 333.14 138.295 332.991 137.772 332.692C137.259 332.384 136.853 331.941 136.554 331.362C136.255 330.774 136.106 330.065 136.106 329.234C136.106 327.993 136.414 327.036 137.03 326.364C137.655 325.692 138.509 325.356 139.592 325.356C140.264 325.356 140.861 325.51 141.384 325.818C141.907 326.117 142.313 326.555 142.602 327.134C142.901 327.703 143.05 328.403 143.05 329.234ZM137.38 329.234C137.38 330.121 137.553 330.825 137.898 331.348C138.253 331.861 138.813 332.118 139.578 332.118C140.334 332.118 140.889 331.861 141.244 331.348C141.599 330.825 141.776 330.121 141.776 329.234C141.776 328.347 141.599 327.652 141.244 327.148C140.889 326.644 140.329 326.392 139.564 326.392C138.799 326.392 138.243 326.644 137.898 327.148C137.553 327.652 137.38 328.347 137.38 329.234ZM148.615 325.356C149.511 325.356 150.187 325.575 150.645 326.014C151.102 326.453 151.331 327.153 151.331 328.114V333H150.113V328.198C150.113 326.994 149.553 326.392 148.433 326.392C147.602 326.392 147.028 326.625 146.711 327.092C146.393 327.559 146.235 328.231 146.235 329.108V333H145.003V325.496H145.997L146.179 326.518H146.249C146.491 326.126 146.827 325.837 147.257 325.65C147.686 325.454 148.139 325.356 148.615 325.356ZM157.924 322.682C158.11 322.682 158.274 322.747 158.414 322.878C158.563 322.999 158.638 323.195 158.638 323.466C158.638 323.737 158.563 323.937 158.414 324.068C158.274 324.189 158.11 324.25 157.924 324.25C157.718 324.25 157.546 324.189 157.406 324.068C157.266 323.937 157.196 323.737 157.196 323.466C157.196 323.195 157.266 322.999 157.406 322.878C157.546 322.747 157.718 322.682 157.924 322.682ZM158.526 325.496V333H157.294V325.496H158.526ZM163.409 332.132C163.596 332.132 163.787 332.118 163.983 332.09C164.179 332.062 164.338 332.025 164.459 331.978V332.916C164.328 332.981 164.142 333.033 163.899 333.07C163.656 333.117 163.423 333.14 163.199 333.14C162.807 333.14 162.443 333.075 162.107 332.944C161.78 332.804 161.514 332.566 161.309 332.23C161.104 331.894 161.001 331.423 161.001 330.816V326.448H159.937V325.86L161.015 325.37L161.505 323.774H162.233V325.496H164.403V326.448H162.233V330.788C162.233 331.245 162.34 331.586 162.555 331.81C162.779 332.025 163.064 332.132 163.409 332.132ZM168.859 325.356C169.494 325.356 170.045 325.496 170.511 325.776C170.978 326.056 171.333 326.453 171.575 326.966C171.827 327.47 171.953 328.063 171.953 328.744V329.486H166.815C166.834 330.335 167.049 330.984 167.459 331.432C167.879 331.871 168.463 332.09 169.209 332.09C169.685 332.09 170.105 332.048 170.469 331.964C170.843 331.871 171.225 331.74 171.617 331.572V332.65C171.235 332.818 170.857 332.939 170.483 333.014C170.11 333.098 169.667 333.14 169.153 333.14C168.435 333.14 167.805 332.995 167.263 332.706C166.722 332.417 166.297 331.987 165.989 331.418C165.691 330.849 165.541 330.144 165.541 329.304C165.541 328.483 165.677 327.778 165.947 327.19C166.227 326.602 166.615 326.149 167.109 325.832C167.613 325.515 168.197 325.356 168.859 325.356ZM168.845 326.364C168.257 326.364 167.791 326.555 167.445 326.938C167.109 327.311 166.909 327.834 166.843 328.506H170.665C170.656 327.871 170.507 327.358 170.217 326.966C169.928 326.565 169.471 326.364 168.845 326.364ZM182.096 325.356C182.945 325.356 183.58 325.575 184 326.014C184.42 326.453 184.63 327.153 184.63 328.114V333H183.412V328.17C183.412 326.985 182.903 326.392 181.886 326.392C181.158 326.392 180.635 326.602 180.318 327.022C180.01 327.442 179.856 328.053 179.856 328.856V333H178.638V328.17C178.638 326.985 178.124 326.392 177.098 326.392C176.342 326.392 175.819 326.625 175.53 327.092C175.24 327.559 175.096 328.231 175.096 329.108V333H173.864V325.496H174.858L175.04 326.518H175.11C175.343 326.126 175.656 325.837 176.048 325.65C176.449 325.454 176.874 325.356 177.322 325.356C178.498 325.356 179.263 325.776 179.618 326.616H179.688C179.94 326.187 180.28 325.869 180.71 325.664C181.139 325.459 181.601 325.356 182.096 325.356Z" fill="black"/>
<path d="M118.63 369L117.426 365.906H113.464L112.274 369H111L114.906 358.962H116.04L119.932 369H118.63ZM117.048 364.786L115.928 361.762C115.9 361.687 115.853 361.552 115.788 361.356C115.723 361.16 115.657 360.959 115.592 360.754C115.536 360.539 115.489 360.376 115.452 360.264C115.377 360.553 115.298 360.838 115.214 361.118C115.139 361.389 115.074 361.603 115.018 361.762L113.884 364.786H117.048ZM124.141 369.14C123.469 369.14 122.877 369.005 122.363 368.734C121.85 368.463 121.444 368.043 121.145 367.474C120.856 366.905 120.711 366.177 120.711 365.29C120.711 364.366 120.861 363.615 121.159 363.036C121.467 362.457 121.887 362.033 122.419 361.762C122.951 361.491 123.553 361.356 124.225 361.356C124.599 361.356 124.963 361.398 125.317 361.482C125.681 361.557 125.975 361.65 126.199 361.762L125.821 362.784C125.597 362.7 125.336 362.621 125.037 362.546C124.739 362.471 124.459 362.434 124.197 362.434C122.723 362.434 121.985 363.381 121.985 365.276C121.985 366.181 122.163 366.877 122.517 367.362C122.881 367.838 123.418 368.076 124.127 368.076C124.529 368.076 124.888 368.034 125.205 367.95C125.523 367.866 125.812 367.763 126.073 367.642V368.734C125.821 368.865 125.541 368.963 125.233 369.028C124.935 369.103 124.571 369.14 124.141 369.14ZM130.364 368.132C130.551 368.132 130.742 368.118 130.938 368.09C131.134 368.062 131.293 368.025 131.414 367.978V368.916C131.283 368.981 131.097 369.033 130.854 369.07C130.611 369.117 130.378 369.14 130.154 369.14C129.762 369.14 129.398 369.075 129.062 368.944C128.735 368.804 128.469 368.566 128.264 368.23C128.059 367.894 127.956 367.423 127.956 366.816V362.448H126.892V361.86L127.97 361.37L128.46 359.774H129.188V361.496H131.358V362.448H129.188V366.788C129.188 367.245 129.295 367.586 129.51 367.81C129.734 368.025 130.019 368.132 130.364 368.132ZM133.547 358.682C133.733 358.682 133.897 358.747 134.037 358.878C134.186 358.999 134.261 359.195 134.261 359.466C134.261 359.737 134.186 359.937 134.037 360.068C133.897 360.189 133.733 360.25 133.547 360.25C133.341 360.25 133.169 360.189 133.029 360.068C132.889 359.937 132.819 359.737 132.819 359.466C132.819 359.195 132.889 358.999 133.029 358.878C133.169 358.747 133.341 358.682 133.547 358.682ZM134.149 361.496V369H132.917V361.496H134.149ZM143.05 365.234C143.05 366.475 142.733 367.437 142.098 368.118C141.473 368.799 140.623 369.14 139.55 369.14C138.887 369.14 138.295 368.991 137.772 368.692C137.259 368.384 136.853 367.941 136.554 367.362C136.255 366.774 136.106 366.065 136.106 365.234C136.106 363.993 136.414 363.036 137.03 362.364C137.655 361.692 138.509 361.356 139.592 361.356C140.264 361.356 140.861 361.51 141.384 361.818C141.907 362.117 142.313 362.555 142.602 363.134C142.901 363.703 143.05 364.403 143.05 365.234ZM137.38 365.234C137.38 366.121 137.553 366.825 137.898 367.348C138.253 367.861 138.813 368.118 139.578 368.118C140.334 368.118 140.889 367.861 141.244 367.348C141.599 366.825 141.776 366.121 141.776 365.234C141.776 364.347 141.599 363.652 141.244 363.148C140.889 362.644 140.329 362.392 139.564 362.392C138.799 362.392 138.243 362.644 137.898 363.148C137.553 363.652 137.38 364.347 137.38 365.234ZM148.615 361.356C149.511 361.356 150.187 361.575 150.645 362.014C151.102 362.453 151.331 363.153 151.331 364.114V369H150.113V364.198C150.113 362.994 149.553 362.392 148.433 362.392C147.602 362.392 147.028 362.625 146.711 363.092C146.393 363.559 146.235 364.231 146.235 365.108V369H145.003V361.496H145.997L146.179 362.518H146.249C146.491 362.126 146.827 361.837 147.257 361.65C147.686 361.454 148.139 361.356 148.615 361.356ZM157.924 358.682C158.11 358.682 158.274 358.747 158.414 358.878C158.563 358.999 158.638 359.195 158.638 359.466C158.638 359.737 158.563 359.937 158.414 360.068C158.274 360.189 158.11 360.25 157.924 360.25C157.718 360.25 157.546 360.189 157.406 360.068C157.266 359.937 157.196 359.737 157.196 359.466C157.196 359.195 157.266 358.999 157.406 358.878C157.546 358.747 157.718 358.682 157.924 358.682ZM158.526 361.496V369H157.294V361.496H158.526ZM163.409 368.132C163.596 368.132 163.787 368.118 163.983 368.09C164.179 368.062 164.338 368.025 164.459 367.978V368.916C164.328 368.981 164.142 369.033 163.899 369.07C163.656 369.117 163.423 369.14 163.199 369.14C162.807 369.14 162.443 369.075 162.107 368.944C161.78 368.804 161.514 368.566 161.309 368.23C161.104 367.894 161.001 367.423 161.001 366.816V362.448H159.937V361.86L161.015 361.37L161.505 359.774H162.233V361.496H164.403V362.448H162.233V366.788C162.233 367.245 162.34 367.586 162.555 367.81C162.779 368.025 163.064 368.132 163.409 368.132ZM168.859 361.356C169.494 361.356 170.045 361.496 170.511 361.776C170.978 362.056 171.333 362.453 171.575 362.966C171.827 363.47 171.953 364.063 171.953 364.744V365.486H166.815C166.834 366.335 167.049 366.984 167.459 367.432C167.879 367.871 168.463 368.09 169.209 368.09C169.685 368.09 170.105 368.048 170.469 367.964C170.843 367.871 171.225 367.74 171.617 367.572V368.65C171.235 368.818 170.857 368.939 170.483 369.014C170.11 369.098 169.667 369.14 169.153 369.14C168.435 369.14 167.805 368.995 167.263 368.706C166.722 368.417 166.297 367.987 165.989 367.418C165.691 366.849 165.541 366.144 165.541 365.304C165.541 364.483 165.677 363.778 165.947 363.19C166.227 362.602 166.615 362.149 167.109 361.832C167.613 361.515 168.197 361.356 168.859 361.356ZM168.845 362.364C168.257 362.364 167.791 362.555 167.445 362.938C167.109 363.311 166.909 363.834 166.843 364.506H170.665C170.656 363.871 170.507 363.358 170.217 362.966C169.928 362.565 169.471 362.364 168.845 362.364ZM182.096 361.356C182.945 361.356 183.58 361.575 184 362.014C184.42 362.453 184.63 363.153 184.63 364.114V369H183.412V364.17C183.412 362.985 182.903 362.392 181.886 362.392C181.158 362.392 180.635 362.602 180.318 363.022C180.01 363.442 179.856 364.053 179.856 364.856V369H178.638V364.17C178.638 362.985 178.124 362.392 177.098 362.392C176.342 362.392 175.819 362.625 175.53 363.092C175.24 363.559 175.096 364.231 175.096 365.108V369H173.864V361.496H174.858L175.04 362.518H175.11C175.343 362.126 175.656 361.837 176.048 361.65C176.449 361.454 176.874 361.356 177.322 361.356C178.498 361.356 179.263 361.776 179.618 362.616H179.688C179.94 362.187 180.28 361.869 180.71 361.664C181.139 361.459 181.601 361.356 182.096 361.356Z" fill="black"/>
<path d="M118.63 405L117.426 401.906H113.464L112.274 405H111L114.906 394.962H116.04L119.932 405H118.63ZM117.048 400.786L115.928 397.762C115.9 397.687 115.853 397.552 115.788 397.356C115.723 397.16 115.657 396.959 115.592 396.754C115.536 396.539 115.489 396.376 115.452 396.264C115.377 396.553 115.298 396.838 115.214 397.118C115.139 397.389 115.074 397.603 115.018 397.762L113.884 400.786H117.048ZM124.141 405.14C123.469 405.14 122.877 405.005 122.363 404.734C121.85 404.463 121.444 404.043 121.145 403.474C120.856 402.905 120.711 402.177 120.711 401.29C120.711 400.366 120.861 399.615 121.159 399.036C121.467 398.457 121.887 398.033 122.419 397.762C122.951 397.491 123.553 397.356 124.225 397.356C124.599 397.356 124.963 397.398 125.317 397.482C125.681 397.557 125.975 397.65 126.199 397.762L125.821 398.784C125.597 398.7 125.336 398.621 125.037 398.546C124.739 398.471 124.459 398.434 124.197 398.434C122.723 398.434 121.985 399.381 121.985 401.276C121.985 402.181 122.163 402.877 122.517 403.362C122.881 403.838 123.418 404.076 124.127 404.076C124.529 404.076 124.888 404.034 125.205 403.95C125.523 403.866 125.812 403.763 126.073 403.642V404.734C125.821 404.865 125.541 404.963 125.233 405.028C124.935 405.103 124.571 405.14 124.141 405.14ZM130.364 404.132C130.551 404.132 130.742 404.118 130.938 404.09C131.134 404.062 131.293 404.025 131.414 403.978V404.916C131.283 404.981 131.097 405.033 130.854 405.07C130.611 405.117 130.378 405.14 130.154 405.14C129.762 405.14 129.398 405.075 129.062 404.944C128.735 404.804 128.469 404.566 128.264 404.23C128.059 403.894 127.956 403.423 127.956 402.816V398.448H126.892V397.86L127.97 397.37L128.46 395.774H129.188V397.496H131.358V398.448H129.188V402.788C129.188 403.245 129.295 403.586 129.51 403.81C129.734 404.025 130.019 404.132 130.364 404.132ZM133.547 394.682C133.733 394.682 133.897 394.747 134.037 394.878C134.186 394.999 134.261 395.195 134.261 395.466C134.261 395.737 134.186 395.937 134.037 396.068C133.897 396.189 133.733 396.25 133.547 396.25C133.341 396.25 133.169 396.189 133.029 396.068C132.889 395.937 132.819 395.737 132.819 395.466C132.819 395.195 132.889 394.999 133.029 394.878C133.169 394.747 133.341 394.682 133.547 394.682ZM134.149 397.496V405H132.917V397.496H134.149ZM143.05 401.234C143.05 402.475 142.733 403.437 142.098 404.118C141.473 404.799 140.623 405.14 139.55 405.14C138.887 405.14 138.295 404.991 137.772 404.692C137.259 404.384 136.853 403.941 136.554 403.362C136.255 402.774 136.106 402.065 136.106 401.234C136.106 399.993 136.414 399.036 137.03 398.364C137.655 397.692 138.509 397.356 139.592 397.356C140.264 397.356 140.861 397.51 141.384 397.818C141.907 398.117 142.313 398.555 142.602 399.134C142.901 399.703 143.05 400.403 143.05 401.234ZM137.38 401.234C137.38 402.121 137.553 402.825 137.898 403.348C138.253 403.861 138.813 404.118 139.578 404.118C140.334 404.118 140.889 403.861 141.244 403.348C141.599 402.825 141.776 402.121 141.776 401.234C141.776 400.347 141.599 399.652 141.244 399.148C140.889 398.644 140.329 398.392 139.564 398.392C138.799 398.392 138.243 398.644 137.898 399.148C137.553 399.652 137.38 400.347 137.38 401.234ZM148.615 397.356C149.511 397.356 150.187 397.575 150.645 398.014C151.102 398.453 151.331 399.153 151.331 400.114V405H150.113V400.198C150.113 398.994 149.553 398.392 148.433 398.392C147.602 398.392 147.028 398.625 146.711 399.092C146.393 399.559 146.235 400.231 146.235 401.108V405H145.003V397.496H145.997L146.179 398.518H146.249C146.491 398.126 146.827 397.837 147.257 397.65C147.686 397.454 148.139 397.356 148.615 397.356ZM157.924 394.682C158.11 394.682 158.274 394.747 158.414 394.878C158.563 394.999 158.638 395.195 158.638 395.466C158.638 395.737 158.563 395.937 158.414 396.068C158.274 396.189 158.11 396.25 157.924 396.25C157.718 396.25 157.546 396.189 157.406 396.068C157.266 395.937 157.196 395.737 157.196 395.466C157.196 395.195 157.266 394.999 157.406 394.878C157.546 394.747 157.718 394.682 157.924 394.682ZM158.526 397.496V405H157.294V397.496H158.526ZM163.409 404.132C163.596 404.132 163.787 404.118 163.983 404.09C164.179 404.062 164.338 404.025 164.459 403.978V404.916C164.328 404.981 164.142 405.033 163.899 405.07C163.656 405.117 163.423 405.14 163.199 405.14C162.807 405.14 162.443 405.075 162.107 404.944C161.78 404.804 161.514 404.566 161.309 404.23C161.104 403.894 161.001 403.423 161.001 402.816V398.448H159.937V397.86L161.015 397.37L161.505 395.774H162.233V397.496H164.403V398.448H162.233V402.788C162.233 403.245 162.34 403.586 162.555 403.81C162.779 404.025 163.064 404.132 163.409 404.132ZM168.859 397.356C169.494 397.356 170.045 397.496 170.511 397.776C170.978 398.056 171.333 398.453 171.575 398.966C171.827 399.47 171.953 400.063 171.953 400.744V401.486H166.815C166.834 402.335 167.049 402.984 167.459 403.432C167.879 403.871 168.463 404.09 169.209 404.09C169.685 404.09 170.105 404.048 170.469 403.964C170.843 403.871 171.225 403.74 171.617 403.572V404.65C171.235 404.818 170.857 404.939 170.483 405.014C170.11 405.098 169.667 405.14 169.153 405.14C168.435 405.14 167.805 404.995 167.263 404.706C166.722 404.417 166.297 403.987 165.989 403.418C165.691 402.849 165.541 402.144 165.541 401.304C165.541 400.483 165.677 399.778 165.947 399.19C166.227 398.602 166.615 398.149 167.109 397.832C167.613 397.515 168.197 397.356 168.859 397.356ZM168.845 398.364C168.257 398.364 167.791 398.555 167.445 398.938C167.109 399.311 166.909 399.834 166.843 400.506H170.665C170.656 399.871 170.507 399.358 170.217 398.966C169.928 398.565 169.471 398.364 168.845 398.364ZM182.096 397.356C182.945 397.356 183.58 397.575 184 398.014C184.42 398.453 184.63 399.153 184.63 400.114V405H183.412V400.17C183.412 398.985 182.903 398.392 181.886 398.392C181.158 398.392 180.635 398.602 180.318 399.022C180.01 399.442 179.856 400.053 179.856 400.856V405H178.638V400.17C178.638 398.985 178.124 398.392 177.098 398.392C176.342 398.392 175.819 398.625 175.53 399.092C175.24 399.559 175.096 400.231 175.096 401.108V405H173.864V397.496H174.858L175.04 398.518H175.11C175.343 398.126 175.656 397.837 176.048 397.65C176.449 397.454 176.874 397.356 177.322 397.356C178.498 397.356 179.263 397.776 179.618 398.616H179.688C179.94 398.187 180.28 397.869 180.71 397.664C181.139 397.459 181.601 397.356 182.096 397.356Z" fill="black"/>
<path d="M118.63 441L117.426 437.906H113.464L112.274 441H111L114.906 430.962H116.04L119.932 441H118.63ZM117.048 436.786L115.928 433.762C115.9 433.687 115.853 433.552 115.788 433.356C115.723 433.16 115.657 432.959 115.592 432.754C115.536 432.539 115.489 432.376 115.452 432.264C115.377 432.553 115.298 432.838 115.214 433.118C115.139 433.389 115.074 433.603 115.018 433.762L113.884 436.786H117.048ZM124.141 441.14C123.469 441.14 122.877 441.005 122.363 440.734C121.85 440.463 121.444 440.043 121.145 439.474C120.856 438.905 120.711 438.177 120.711 437.29C120.711 436.366 120.861 435.615 121.159 435.036C121.467 434.457 121.887 434.033 122.419 433.762C122.951 433.491 123.553 433.356 124.225 433.356C124.599 433.356 124.963 433.398 125.317 433.482C125.681 433.557 125.975 433.65 126.199 433.762L125.821 434.784C125.597 434.7 125.336 434.621 125.037 434.546C124.739 434.471 124.459 434.434 124.197 434.434C122.723 434.434 121.985 435.381 121.985 437.276C121.985 438.181 122.163 438.877 122.517 439.362C122.881 439.838 123.418 440.076 124.127 440.076C124.529 440.076 124.888 440.034 125.205 439.95C125.523 439.866 125.812 439.763 126.073 439.642V440.734C125.821 440.865 125.541 440.963 125.233 441.028C124.935 441.103 124.571 441.14 124.141 441.14ZM130.364 440.132C130.551 440.132 130.742 440.118 130.938 440.09C131.134 440.062 131.293 440.025 131.414 439.978V440.916C131.283 440.981 131.097 441.033 130.854 441.07C130.611 441.117 130.378 441.14 130.154 441.14C129.762 441.14 129.398 441.075 129.062 440.944C128.735 440.804 128.469 440.566 128.264 440.23C128.059 439.894 127.956 439.423 127.956 438.816V434.448H126.892V433.86L127.97 433.37L128.46 431.774H129.188V433.496H131.358V434.448H129.188V438.788C129.188 439.245 129.295 439.586 129.51 439.81C129.734 440.025 130.019 440.132 130.364 440.132ZM133.547 430.682C133.733 430.682 133.897 430.747 134.037 430.878C134.186 430.999 134.261 431.195 134.261 431.466C134.261 431.737 134.186 431.937 134.037 432.068C133.897 432.189 133.733 432.25 133.547 432.25C133.341 432.25 133.169 432.189 133.029 432.068C132.889 431.937 132.819 431.737 132.819 431.466C132.819 431.195 132.889 430.999 133.029 430.878C133.169 430.747 133.341 430.682 133.547 430.682ZM134.149 433.496V441H132.917V433.496H134.149ZM143.05 437.234C143.05 438.475 142.733 439.437 142.098 440.118C141.473 440.799 140.623 441.14 139.55 441.14C138.887 441.14 138.295 440.991 137.772 440.692C137.259 440.384 136.853 439.941 136.554 439.362C136.255 438.774 136.106 438.065 136.106 437.234C136.106 435.993 136.414 435.036 137.03 434.364C137.655 433.692 138.509 433.356 139.592 433.356C140.264 433.356 140.861 433.51 141.384 433.818C141.907 434.117 142.313 434.555 142.602 435.134C142.901 435.703 143.05 436.403 143.05 437.234ZM137.38 437.234C137.38 438.121 137.553 438.825 137.898 439.348C138.253 439.861 138.813 440.118 139.578 440.118C140.334 440.118 140.889 439.861 141.244 439.348C141.599 438.825 141.776 438.121 141.776 437.234C141.776 436.347 141.599 435.652 141.244 435.148C140.889 434.644 140.329 434.392 139.564 434.392C138.799 434.392 138.243 434.644 137.898 435.148C137.553 435.652 137.38 436.347 137.38 437.234ZM148.615 433.356C149.511 433.356 150.187 433.575 150.645 434.014C151.102 434.453 151.331 435.153 151.331 436.114V441H150.113V436.198C150.113 434.994 149.553 434.392 148.433 434.392C147.602 434.392 147.028 434.625 146.711 435.092C146.393 435.559 146.235 436.231 146.235 437.108V441H145.003V433.496H145.997L146.179 434.518H146.249C146.491 434.126 146.827 433.837 147.257 433.65C147.686 433.454 148.139 433.356 148.615 433.356ZM157.924 430.682C158.11 430.682 158.274 430.747 158.414 430.878C158.563 430.999 158.638 431.195 158.638 431.466C158.638 431.737 158.563 431.937 158.414 432.068C158.274 432.189 158.11 432.25 157.924 432.25C157.718 432.25 157.546 432.189 157.406 432.068C157.266 431.937 157.196 431.737 157.196 431.466C157.196 431.195 157.266 430.999 157.406 430.878C157.546 430.747 157.718 430.682 157.924 430.682ZM158.526 433.496V441H157.294V433.496H158.526ZM163.409 440.132C163.596 440.132 163.787 440.118 163.983 440.09C164.179 440.062 164.338 440.025 164.459 439.978V440.916C164.328 440.981 164.142 441.033 163.899 441.07C163.656 441.117 163.423 441.14 163.199 441.14C162.807 441.14 162.443 441.075 162.107 440.944C161.78 440.804 161.514 440.566 161.309 440.23C161.104 439.894 161.001 439.423 161.001 438.816V434.448H159.937V433.86L161.015 433.37L161.505 431.774H162.233V433.496H164.403V434.448H162.233V438.788C162.233 439.245 162.34 439.586 162.555 439.81C162.779 440.025 163.064 440.132 163.409 440.132ZM168.859 433.356C169.494 433.356 170.045 433.496 170.511 433.776C170.978 434.056 171.333 434.453 171.575 434.966C171.827 435.47 171.953 436.063 171.953 436.744V437.486H166.815C166.834 438.335 167.049 438.984 167.459 439.432C167.879 439.871 168.463 440.09 169.209 440.09C169.685 440.09 170.105 440.048 170.469 439.964C170.843 439.871 171.225 439.74 171.617 439.572V440.65C171.235 440.818 170.857 440.939 170.483 441.014C170.11 441.098 169.667 441.14 169.153 441.14C168.435 441.14 167.805 440.995 167.263 440.706C166.722 440.417 166.297 439.987 165.989 439.418C165.691 438.849 165.541 438.144 165.541 437.304C165.541 436.483 165.677 435.778 165.947 435.19C166.227 434.602 166.615 434.149 167.109 433.832C167.613 433.515 168.197 433.356 168.859 433.356ZM168.845 434.364C168.257 434.364 167.791 434.555 167.445 434.938C167.109 435.311 166.909 435.834 166.843 436.506H170.665C170.656 435.871 170.507 435.358 170.217 434.966C169.928 434.565 169.471 434.364 168.845 434.364ZM182.096 433.356C182.945 433.356 183.58 433.575 184 434.014C184.42 434.453 184.63 435.153 184.63 436.114V441H183.412V436.17C183.412 434.985 182.903 434.392 181.886 434.392C181.158 434.392 180.635 434.602 180.318 435.022C180.01 435.442 179.856 436.053 179.856 436.856V441H178.638V436.17C178.638 434.985 178.124 434.392 177.098 434.392C176.342 434.392 175.819 434.625 175.53 435.092C175.24 435.559 175.096 436.231 175.096 437.108V441H173.864V433.496H174.858L175.04 434.518H175.11C175.343 434.126 175.656 433.837 176.048 433.65C176.449 433.454 176.874 433.356 177.322 433.356C178.498 433.356 179.263 433.776 179.618 434.616H179.688C179.94 434.187 180.28 433.869 180.71 433.664C181.139 433.459 181.601 433.356 182.096 433.356Z" fill="black"/>
<rect x="102.5" y="93.5" width="207" height="361" rx="4.5" stroke="black" stroke-opacity="0.15"/>
</g>
<path d="M292 94H305C307.209 94 309 95.7909 309 98V450C309 452.209 307.209 454 305 454H292V94Z" fill="#F1F1F1"/>
<path d="M304 105H297V104H298V103H299V102H300V101H301V102H302V103H303V104H304V105Z" fill="#505050"/>
<path d="M297 443L304 443V444L303 444V445H302V446L301 446V447H300V446H299V445L298 445L298 444L297 444L297 443Z" fill="#505050"/>
<rect width="13" height="25" transform="translate(294 108)" fill="#C1C1C1"/>
<defs>
<filter id="filter0_d_7141_532186" x="98" y="93" width="216" height="370" filterUnits="userSpaceOnUse" color-interpolation-filters="sRGB">
<feFlood flood-opacity="0" result="BackgroundImageFix"/>
<feColorMatrix in="SourceAlpha" type="matrix" values="0 0 0 0 0 0 0 0 0 0 0 0 0 0 0 0 0 0 127 0" result="hardAlpha"/>
<feOffset dy="4"/>
<feGaussianBlur stdDeviation="2"/>
<feColorMatrix type="matrix" values="0 0 0 0 0 0 0 0 0 0 0 0 0 0 0 0 0 0 0.25 0"/>
<feBlend mode="normal" in2="BackgroundImageFix" result="effect1_dropShadow_7141_532186"/>
<feBlend mode="normal" in="SourceGraphic" in2="effect1_dropShadow_7141_532186" result="shape"/>
</filter>
</defs>
</svg>
