<svg width="428" height="190" viewBox="0 0 428 190" fill="none" xmlns="http://www.w3.org/2000/svg">
<rect width="428" height="180" transform="translate(0 1)" fill="white"/>
<g filter="url(#filter0_d_8122_199649)">
<rect x="144" y="1" width="140" height="180" rx="4" fill="white"/>
<path d="M162.08 18.988C162.08 20.024 161.903 20.9293 161.548 21.704C161.203 22.4693 160.685 23.0667 159.994 23.496C159.313 23.9253 158.473 24.14 157.474 24.14C156.438 24.14 155.575 23.9253 154.884 23.496C154.203 23.0667 153.694 22.4647 153.358 21.69C153.022 20.9153 152.854 20.01 152.854 18.974C152.854 17.9567 153.022 17.0653 153.358 16.3C153.694 15.5253 154.203 14.9233 154.884 14.494C155.575 14.0647 156.443 13.85 157.488 13.85C158.487 13.85 159.327 14.0647 160.008 14.494C160.689 14.914 161.203 15.5113 161.548 16.286C161.903 17.0513 162.08 17.952 162.08 18.988ZM154.184 18.988C154.184 20.248 154.45 21.242 154.982 21.97C155.514 22.6887 156.345 23.048 157.474 23.048C158.603 23.048 159.429 22.6887 159.952 21.97C160.484 21.242 160.75 20.248 160.75 18.988C160.75 17.728 160.489 16.7433 159.966 16.034C159.443 15.3153 158.617 14.956 157.488 14.956C156.349 14.956 155.514 15.3153 154.982 16.034C154.45 16.7433 154.184 17.728 154.184 18.988ZM167.698 16.356C168.622 16.356 169.364 16.678 169.924 17.322C170.493 17.966 170.778 18.9367 170.778 20.234C170.778 21.5127 170.493 22.4833 169.924 23.146C169.364 23.8087 168.617 24.14 167.684 24.14C167.105 24.14 166.624 24.0327 166.242 23.818C165.868 23.6033 165.574 23.3467 165.36 23.048H165.276C165.285 23.2067 165.299 23.4073 165.318 23.65C165.346 23.8927 165.36 24.1027 165.36 24.28V27.36H164.128V16.496H165.136L165.304 17.518H165.36C165.584 17.1913 165.878 16.916 166.242 16.692C166.606 16.468 167.091 16.356 167.698 16.356ZM167.474 17.392C166.708 17.392 166.167 17.6067 165.85 18.036C165.532 18.4653 165.369 19.1187 165.36 19.996V20.234C165.36 21.158 165.509 21.872 165.808 22.376C166.116 22.8707 166.68 23.118 167.502 23.118C167.95 23.118 168.323 22.9967 168.622 22.754C168.92 22.502 169.14 22.1567 169.28 21.718C169.429 21.2793 169.504 20.78 169.504 20.22C169.504 19.3613 169.336 18.6753 169 18.162C168.673 17.6487 168.164 17.392 167.474 17.392ZM175.247 23.132C175.433 23.132 175.625 23.118 175.821 23.09C176.017 23.062 176.175 23.0247 176.297 22.978V23.916C176.166 23.9813 175.979 24.0327 175.737 24.07C175.494 24.1167 175.261 24.14 175.037 24.14C174.645 24.14 174.281 24.0747 173.945 23.944C173.618 23.804 173.352 23.566 173.147 23.23C172.941 22.894 172.839 22.4227 172.839 21.816V17.448H171.775V16.86L172.853 16.37L173.343 14.774H174.071V16.496H176.241V17.448H174.071V21.788C174.071 22.2453 174.178 22.586 174.393 22.81C174.617 23.0247 174.901 23.132 175.247 23.132ZM178.429 13.682C178.616 13.682 178.779 13.7473 178.919 13.878C179.069 13.9993 179.143 14.1953 179.143 14.466C179.143 14.7367 179.069 14.9373 178.919 15.068C178.779 15.1893 178.616 15.25 178.429 15.25C178.224 15.25 178.051 15.1893 177.911 15.068C177.771 14.9373 177.701 14.7367 177.701 14.466C177.701 14.1953 177.771 13.9993 177.911 13.878C178.051 13.7473 178.224 13.682 178.429 13.682ZM179.031 16.496V24H177.799V16.496H179.031ZM187.933 20.234C187.933 21.4753 187.615 22.4367 186.981 23.118C186.355 23.7993 185.506 24.14 184.433 24.14C183.77 24.14 183.177 23.9907 182.655 23.692C182.141 23.384 181.735 22.9407 181.437 22.362C181.138 21.774 180.989 21.0647 180.989 20.234C180.989 18.9927 181.297 18.036 181.913 17.364C182.538 16.692 183.392 16.356 184.475 16.356C185.147 16.356 185.744 16.51 186.267 16.818C186.789 17.1167 187.195 17.5553 187.485 18.134C187.783 18.7033 187.933 19.4033 187.933 20.234ZM182.263 20.234C182.263 21.1207 182.435 21.8253 182.781 22.348C183.135 22.8613 183.695 23.118 184.461 23.118C185.217 23.118 185.772 22.8613 186.127 22.348C186.481 21.8253 186.659 21.1207 186.659 20.234C186.659 19.3473 186.481 18.652 186.127 18.148C185.772 17.644 185.212 17.392 184.447 17.392C183.681 17.392 183.126 17.644 182.781 18.148C182.435 18.652 182.263 19.3473 182.263 20.234ZM193.497 16.356C194.393 16.356 195.07 16.5753 195.527 17.014C195.985 17.4527 196.213 18.1527 196.213 19.114V24H194.995V19.198C194.995 17.994 194.435 17.392 193.315 17.392C192.485 17.392 191.911 17.6253 191.593 18.092C191.276 18.5587 191.117 19.2307 191.117 20.108V24H189.885V16.496H190.879L191.061 17.518H191.131C191.374 17.126 191.71 16.8367 192.139 16.65C192.569 16.454 193.021 16.356 193.497 16.356ZM205.956 24H204.752V17.014C204.752 16.6127 204.757 16.2907 204.766 16.048C204.776 15.8053 204.79 15.5533 204.808 15.292C204.659 15.4413 204.519 15.5673 204.388 15.67C204.267 15.7727 204.118 15.9033 203.94 16.062L202.876 16.93L202.232 16.104L204.934 14.004H205.956V24Z" fill="black"/>
<path d="M162.08 54.988C162.08 56.024 161.903 56.9293 161.548 57.704C161.203 58.4693 160.685 59.0667 159.994 59.496C159.313 59.9253 158.473 60.14 157.474 60.14C156.438 60.14 155.575 59.9253 154.884 59.496C154.203 59.0667 153.694 58.4647 153.358 57.69C153.022 56.9153 152.854 56.01 152.854 54.974C152.854 53.9567 153.022 53.0653 153.358 52.3C153.694 51.5253 154.203 50.9233 154.884 50.494C155.575 50.0647 156.443 49.85 157.488 49.85C158.487 49.85 159.327 50.0647 160.008 50.494C160.689 50.914 161.203 51.5113 161.548 52.286C161.903 53.0513 162.08 53.952 162.08 54.988ZM154.184 54.988C154.184 56.248 154.45 57.242 154.982 57.97C155.514 58.6887 156.345 59.048 157.474 59.048C158.603 59.048 159.429 58.6887 159.952 57.97C160.484 57.242 160.75 56.248 160.75 54.988C160.75 53.728 160.489 52.7433 159.966 52.034C159.443 51.3153 158.617 50.956 157.488 50.956C156.349 50.956 155.514 51.3153 154.982 52.034C154.45 52.7433 154.184 53.728 154.184 54.988ZM167.698 52.356C168.622 52.356 169.364 52.678 169.924 53.322C170.493 53.966 170.778 54.9367 170.778 56.234C170.778 57.5127 170.493 58.4833 169.924 59.146C169.364 59.8087 168.617 60.14 167.684 60.14C167.105 60.14 166.624 60.0327 166.242 59.818C165.868 59.6033 165.574 59.3467 165.36 59.048H165.276C165.285 59.2067 165.299 59.4073 165.318 59.65C165.346 59.8927 165.36 60.1027 165.36 60.28V63.36H164.128V52.496H165.136L165.304 53.518H165.36C165.584 53.1913 165.878 52.916 166.242 52.692C166.606 52.468 167.091 52.356 167.698 52.356ZM167.474 53.392C166.708 53.392 166.167 53.6067 165.85 54.036C165.532 54.4653 165.369 55.1187 165.36 55.996V56.234C165.36 57.158 165.509 57.872 165.808 58.376C166.116 58.8707 166.68 59.118 167.502 59.118C167.95 59.118 168.323 58.9967 168.622 58.754C168.92 58.502 169.14 58.1567 169.28 57.718C169.429 57.2793 169.504 56.78 169.504 56.22C169.504 55.3613 169.336 54.6753 169 54.162C168.673 53.6487 168.164 53.392 167.474 53.392ZM175.247 59.132C175.433 59.132 175.625 59.118 175.821 59.09C176.017 59.062 176.175 59.0247 176.297 58.978V59.916C176.166 59.9813 175.979 60.0327 175.737 60.07C175.494 60.1167 175.261 60.14 175.037 60.14C174.645 60.14 174.281 60.0747 173.945 59.944C173.618 59.804 173.352 59.566 173.147 59.23C172.941 58.894 172.839 58.4227 172.839 57.816V53.448H171.775V52.86L172.853 52.37L173.343 50.774H174.071V52.496H176.241V53.448H174.071V57.788C174.071 58.2453 174.178 58.586 174.393 58.81C174.617 59.0247 174.901 59.132 175.247 59.132ZM178.429 49.682C178.616 49.682 178.779 49.7473 178.919 49.878C179.069 49.9993 179.143 50.1953 179.143 50.466C179.143 50.7367 179.069 50.9373 178.919 51.068C178.779 51.1893 178.616 51.25 178.429 51.25C178.224 51.25 178.051 51.1893 177.911 51.068C177.771 50.9373 177.701 50.7367 177.701 50.466C177.701 50.1953 177.771 49.9993 177.911 49.878C178.051 49.7473 178.224 49.682 178.429 49.682ZM179.031 52.496V60H177.799V52.496H179.031ZM187.933 56.234C187.933 57.4753 187.615 58.4367 186.981 59.118C186.355 59.7993 185.506 60.14 184.433 60.14C183.77 60.14 183.177 59.9907 182.655 59.692C182.141 59.384 181.735 58.9407 181.437 58.362C181.138 57.774 180.989 57.0647 180.989 56.234C180.989 54.9927 181.297 54.036 181.913 53.364C182.538 52.692 183.392 52.356 184.475 52.356C185.147 52.356 185.744 52.51 186.267 52.818C186.789 53.1167 187.195 53.5553 187.485 54.134C187.783 54.7033 187.933 55.4033 187.933 56.234ZM182.263 56.234C182.263 57.1207 182.435 57.8253 182.781 58.348C183.135 58.8613 183.695 59.118 184.461 59.118C185.217 59.118 185.772 58.8613 186.127 58.348C186.481 57.8253 186.659 57.1207 186.659 56.234C186.659 55.3473 186.481 54.652 186.127 54.148C185.772 53.644 185.212 53.392 184.447 53.392C183.681 53.392 183.126 53.644 182.781 54.148C182.435 54.652 182.263 55.3473 182.263 56.234ZM193.497 52.356C194.393 52.356 195.07 52.5753 195.527 53.014C195.985 53.4527 196.213 54.1527 196.213 55.114V60H194.995V55.198C194.995 53.994 194.435 53.392 193.315 53.392C192.485 53.392 191.911 53.6253 191.593 54.092C191.276 54.5587 191.117 55.2307 191.117 56.108V60H189.885V52.496H190.879L191.061 53.518H191.131C191.374 53.126 191.71 52.8367 192.139 52.65C192.569 52.454 193.021 52.356 193.497 52.356ZM208.266 60H201.658V58.978L204.276 56.332C204.771 55.828 205.191 55.38 205.536 54.988C205.891 54.596 206.157 54.2133 206.334 53.84C206.512 53.4667 206.6 53.0513 206.6 52.594C206.6 52.0433 206.437 51.628 206.11 51.348C205.784 51.0587 205.359 50.914 204.836 50.914C204.342 50.914 203.912 50.998 203.548 51.166C203.184 51.334 202.811 51.5673 202.428 51.866L201.77 51.04C202.162 50.7133 202.61 50.438 203.114 50.214C203.628 49.9807 204.202 49.864 204.836 49.864C205.77 49.864 206.507 50.102 207.048 50.578C207.59 51.054 207.86 51.7027 207.86 52.524C207.86 53.0467 207.753 53.5367 207.538 53.994C207.324 54.4513 207.025 54.904 206.642 55.352C206.26 55.8 205.812 56.2713 205.298 56.766L203.212 58.824V58.88H208.266V60Z" fill="black"/>
<path d="M162.08 90.988C162.08 92.024 161.903 92.9293 161.548 93.704C161.203 94.4693 160.685 95.0667 159.994 95.496C159.313 95.9253 158.473 96.14 157.474 96.14C156.438 96.14 155.575 95.9253 154.884 95.496C154.203 95.0667 153.694 94.4647 153.358 93.69C153.022 92.9153 152.854 92.01 152.854 90.974C152.854 89.9567 153.022 89.0653 153.358 88.3C153.694 87.5253 154.203 86.9233 154.884 86.494C155.575 86.0647 156.443 85.85 157.488 85.85C158.487 85.85 159.327 86.0647 160.008 86.494C160.689 86.914 161.203 87.5113 161.548 88.286C161.903 89.0513 162.08 89.952 162.08 90.988ZM154.184 90.988C154.184 92.248 154.45 93.242 154.982 93.97C155.514 94.6887 156.345 95.048 157.474 95.048C158.603 95.048 159.429 94.6887 159.952 93.97C160.484 93.242 160.75 92.248 160.75 90.988C160.75 89.728 160.489 88.7433 159.966 88.034C159.443 87.3153 158.617 86.956 157.488 86.956C156.349 86.956 155.514 87.3153 154.982 88.034C154.45 88.7433 154.184 89.728 154.184 90.988ZM167.698 88.356C168.622 88.356 169.364 88.678 169.924 89.322C170.493 89.966 170.778 90.9367 170.778 92.234C170.778 93.5127 170.493 94.4833 169.924 95.146C169.364 95.8087 168.617 96.14 167.684 96.14C167.105 96.14 166.624 96.0327 166.242 95.818C165.868 95.6033 165.574 95.3467 165.36 95.048H165.276C165.285 95.2067 165.299 95.4073 165.318 95.65C165.346 95.8927 165.36 96.1027 165.36 96.28V99.36H164.128V88.496H165.136L165.304 89.518H165.36C165.584 89.1913 165.878 88.916 166.242 88.692C166.606 88.468 167.091 88.356 167.698 88.356ZM167.474 89.392C166.708 89.392 166.167 89.6067 165.85 90.036C165.532 90.4653 165.369 91.1187 165.36 91.996V92.234C165.36 93.158 165.509 93.872 165.808 94.376C166.116 94.8707 166.68 95.118 167.502 95.118C167.95 95.118 168.323 94.9967 168.622 94.754C168.92 94.502 169.14 94.1567 169.28 93.718C169.429 93.2793 169.504 92.78 169.504 92.22C169.504 91.3613 169.336 90.6753 169 90.162C168.673 89.6487 168.164 89.392 167.474 89.392ZM175.247 95.132C175.433 95.132 175.625 95.118 175.821 95.09C176.017 95.062 176.175 95.0247 176.297 94.978V95.916C176.166 95.9813 175.979 96.0327 175.737 96.07C175.494 96.1167 175.261 96.14 175.037 96.14C174.645 96.14 174.281 96.0747 173.945 95.944C173.618 95.804 173.352 95.566 173.147 95.23C172.941 94.894 172.839 94.4227 172.839 93.816V89.448H171.775V88.86L172.853 88.37L173.343 86.774H174.071V88.496H176.241V89.448H174.071V93.788C174.071 94.2453 174.178 94.586 174.393 94.81C174.617 95.0247 174.901 95.132 175.247 95.132ZM178.429 85.682C178.616 85.682 178.779 85.7473 178.919 85.878C179.069 85.9993 179.143 86.1953 179.143 86.466C179.143 86.7367 179.069 86.9373 178.919 87.068C178.779 87.1893 178.616 87.25 178.429 87.25C178.224 87.25 178.051 87.1893 177.911 87.068C177.771 86.9373 177.701 86.7367 177.701 86.466C177.701 86.1953 177.771 85.9993 177.911 85.878C178.051 85.7473 178.224 85.682 178.429 85.682ZM179.031 88.496V96H177.799V88.496H179.031ZM187.933 92.234C187.933 93.4753 187.615 94.4367 186.981 95.118C186.355 95.7993 185.506 96.14 184.433 96.14C183.77 96.14 183.177 95.9907 182.655 95.692C182.141 95.384 181.735 94.9407 181.437 94.362C181.138 93.774 180.989 93.0647 180.989 92.234C180.989 90.9927 181.297 90.036 181.913 89.364C182.538 88.692 183.392 88.356 184.475 88.356C185.147 88.356 185.744 88.51 186.267 88.818C186.789 89.1167 187.195 89.5553 187.485 90.134C187.783 90.7033 187.933 91.4033 187.933 92.234ZM182.263 92.234C182.263 93.1207 182.435 93.8253 182.781 94.348C183.135 94.8613 183.695 95.118 184.461 95.118C185.217 95.118 185.772 94.8613 186.127 94.348C186.481 93.8253 186.659 93.1207 186.659 92.234C186.659 91.3473 186.481 90.652 186.127 90.148C185.772 89.644 185.212 89.392 184.447 89.392C183.681 89.392 183.126 89.644 182.781 90.148C182.435 90.652 182.263 91.3473 182.263 92.234ZM193.497 88.356C194.393 88.356 195.07 88.5753 195.527 89.014C195.985 89.4527 196.213 90.1527 196.213 91.114V96H194.995V91.198C194.995 89.994 194.435 89.392 193.315 89.392C192.485 89.392 191.911 89.6253 191.593 90.092C191.276 90.5587 191.117 91.2307 191.117 92.108V96H189.885V88.496H190.879L191.061 89.518H191.131C191.374 89.126 191.71 88.8367 192.139 88.65C192.569 88.454 193.021 88.356 193.497 88.356ZM207.888 88.342C207.888 89.014 207.697 89.5507 207.314 89.952C206.941 90.344 206.442 90.6053 205.816 90.736V90.792C206.61 90.8853 207.202 91.1373 207.594 91.548C207.996 91.9587 208.196 92.4953 208.196 93.158C208.196 93.746 208.061 94.264 207.79 94.712C207.52 95.16 207.1 95.51 206.53 95.762C205.97 96.014 205.247 96.14 204.36 96.14C203.838 96.14 203.352 96.098 202.904 96.014C202.456 95.9393 202.027 95.7993 201.616 95.594V94.446C202.036 94.6607 202.489 94.824 202.974 94.936C203.46 95.048 203.926 95.104 204.374 95.104C205.27 95.104 205.914 94.9313 206.306 94.586C206.708 94.2313 206.908 93.746 206.908 93.13C206.908 92.5047 206.661 92.0567 206.166 91.786C205.681 91.506 204.995 91.366 204.108 91.366H203.142V90.316H204.122C204.944 90.316 205.564 90.1433 205.984 89.798C206.414 89.4527 206.628 88.9953 206.628 88.426C206.628 87.9407 206.465 87.5673 206.138 87.306C205.812 87.0353 205.368 86.9 204.808 86.9C204.267 86.9 203.805 86.9793 203.422 87.138C203.04 87.2967 202.662 87.4973 202.288 87.74L201.672 86.9C202.027 86.62 202.466 86.3773 202.988 86.172C203.52 85.9667 204.122 85.864 204.794 85.864C205.84 85.864 206.614 86.0973 207.118 86.564C207.632 87.0307 207.888 87.6233 207.888 88.342Z" fill="black"/>
<path d="M162.08 126.988C162.08 128.024 161.903 128.929 161.548 129.704C161.203 130.469 160.685 131.067 159.994 131.496C159.313 131.925 158.473 132.14 157.474 132.14C156.438 132.14 155.575 131.925 154.884 131.496C154.203 131.067 153.694 130.465 153.358 129.69C153.022 128.915 152.854 128.01 152.854 126.974C152.854 125.957 153.022 125.065 153.358 124.3C153.694 123.525 154.203 122.923 154.884 122.494C155.575 122.065 156.443 121.85 157.488 121.85C158.487 121.85 159.327 122.065 160.008 122.494C160.689 122.914 161.203 123.511 161.548 124.286C161.903 125.051 162.08 125.952 162.08 126.988ZM154.184 126.988C154.184 128.248 154.45 129.242 154.982 129.97C155.514 130.689 156.345 131.048 157.474 131.048C158.603 131.048 159.429 130.689 159.952 129.97C160.484 129.242 160.75 128.248 160.75 126.988C160.75 125.728 160.489 124.743 159.966 124.034C159.443 123.315 158.617 122.956 157.488 122.956C156.349 122.956 155.514 123.315 154.982 124.034C154.45 124.743 154.184 125.728 154.184 126.988ZM167.698 124.356C168.622 124.356 169.364 124.678 169.924 125.322C170.493 125.966 170.778 126.937 170.778 128.234C170.778 129.513 170.493 130.483 169.924 131.146C169.364 131.809 168.617 132.14 167.684 132.14C167.105 132.14 166.624 132.033 166.242 131.818C165.868 131.603 165.574 131.347 165.36 131.048H165.276C165.285 131.207 165.299 131.407 165.318 131.65C165.346 131.893 165.36 132.103 165.36 132.28V135.36H164.128V124.496H165.136L165.304 125.518H165.36C165.584 125.191 165.878 124.916 166.242 124.692C166.606 124.468 167.091 124.356 167.698 124.356ZM167.474 125.392C166.708 125.392 166.167 125.607 165.85 126.036C165.532 126.465 165.369 127.119 165.36 127.996V128.234C165.36 129.158 165.509 129.872 165.808 130.376C166.116 130.871 166.68 131.118 167.502 131.118C167.95 131.118 168.323 130.997 168.622 130.754C168.92 130.502 169.14 130.157 169.28 129.718C169.429 129.279 169.504 128.78 169.504 128.22C169.504 127.361 169.336 126.675 169 126.162C168.673 125.649 168.164 125.392 167.474 125.392ZM175.247 131.132C175.433 131.132 175.625 131.118 175.821 131.09C176.017 131.062 176.175 131.025 176.297 130.978V131.916C176.166 131.981 175.979 132.033 175.737 132.07C175.494 132.117 175.261 132.14 175.037 132.14C174.645 132.14 174.281 132.075 173.945 131.944C173.618 131.804 173.352 131.566 173.147 131.23C172.941 130.894 172.839 130.423 172.839 129.816V125.448H171.775V124.86L172.853 124.37L173.343 122.774H174.071V124.496H176.241V125.448H174.071V129.788C174.071 130.245 174.178 130.586 174.393 130.81C174.617 131.025 174.901 131.132 175.247 131.132ZM178.429 121.682C178.616 121.682 178.779 121.747 178.919 121.878C179.069 121.999 179.143 122.195 179.143 122.466C179.143 122.737 179.069 122.937 178.919 123.068C178.779 123.189 178.616 123.25 178.429 123.25C178.224 123.25 178.051 123.189 177.911 123.068C177.771 122.937 177.701 122.737 177.701 122.466C177.701 122.195 177.771 121.999 177.911 121.878C178.051 121.747 178.224 121.682 178.429 121.682ZM179.031 124.496V132H177.799V124.496H179.031ZM187.933 128.234C187.933 129.475 187.615 130.437 186.981 131.118C186.355 131.799 185.506 132.14 184.433 132.14C183.77 132.14 183.177 131.991 182.655 131.692C182.141 131.384 181.735 130.941 181.437 130.362C181.138 129.774 180.989 129.065 180.989 128.234C180.989 126.993 181.297 126.036 181.913 125.364C182.538 124.692 183.392 124.356 184.475 124.356C185.147 124.356 185.744 124.51 186.267 124.818C186.789 125.117 187.195 125.555 187.485 126.134C187.783 126.703 187.933 127.403 187.933 128.234ZM182.263 128.234C182.263 129.121 182.435 129.825 182.781 130.348C183.135 130.861 183.695 131.118 184.461 131.118C185.217 131.118 185.772 130.861 186.127 130.348C186.481 129.825 186.659 129.121 186.659 128.234C186.659 127.347 186.481 126.652 186.127 126.148C185.772 125.644 185.212 125.392 184.447 125.392C183.681 125.392 183.126 125.644 182.781 126.148C182.435 126.652 182.263 127.347 182.263 128.234ZM193.497 124.356C194.393 124.356 195.07 124.575 195.527 125.014C195.985 125.453 196.213 126.153 196.213 127.114V132H194.995V127.198C194.995 125.994 194.435 125.392 193.315 125.392C192.485 125.392 191.911 125.625 191.593 126.092C191.276 126.559 191.117 127.231 191.117 128.108V132H189.885V124.496H190.879L191.061 125.518H191.131C191.374 125.126 191.71 124.837 192.139 124.65C192.569 124.454 193.021 124.356 193.497 124.356ZM208.714 129.732H207.258V132H206.068V129.732H201.28V128.682L205.984 121.948H207.258V128.626H208.714V129.732ZM206.068 128.626V125.476C206.068 124.991 206.073 124.58 206.082 124.244C206.101 123.899 206.12 123.572 206.138 123.264H206.082C206.008 123.441 205.914 123.633 205.802 123.838C205.69 124.043 205.583 124.216 205.48 124.356L202.484 128.626H206.068Z" fill="black"/>
<path d="M162.08 162.988C162.08 164.024 161.903 164.929 161.548 165.704C161.203 166.469 160.685 167.067 159.994 167.496C159.313 167.925 158.473 168.14 157.474 168.14C156.438 168.14 155.575 167.925 154.884 167.496C154.203 167.067 153.694 166.465 153.358 165.69C153.022 164.915 152.854 164.01 152.854 162.974C152.854 161.957 153.022 161.065 153.358 160.3C153.694 159.525 154.203 158.923 154.884 158.494C155.575 158.065 156.443 157.85 157.488 157.85C158.487 157.85 159.327 158.065 160.008 158.494C160.689 158.914 161.203 159.511 161.548 160.286C161.903 161.051 162.08 161.952 162.08 162.988ZM154.184 162.988C154.184 164.248 154.45 165.242 154.982 165.97C155.514 166.689 156.345 167.048 157.474 167.048C158.603 167.048 159.429 166.689 159.952 165.97C160.484 165.242 160.75 164.248 160.75 162.988C160.75 161.728 160.489 160.743 159.966 160.034C159.443 159.315 158.617 158.956 157.488 158.956C156.349 158.956 155.514 159.315 154.982 160.034C154.45 160.743 154.184 161.728 154.184 162.988ZM167.698 160.356C168.622 160.356 169.364 160.678 169.924 161.322C170.493 161.966 170.778 162.937 170.778 164.234C170.778 165.513 170.493 166.483 169.924 167.146C169.364 167.809 168.617 168.14 167.684 168.14C167.105 168.14 166.624 168.033 166.242 167.818C165.868 167.603 165.574 167.347 165.36 167.048H165.276C165.285 167.207 165.299 167.407 165.318 167.65C165.346 167.893 165.36 168.103 165.36 168.28V171.36H164.128V160.496H165.136L165.304 161.518H165.36C165.584 161.191 165.878 160.916 166.242 160.692C166.606 160.468 167.091 160.356 167.698 160.356ZM167.474 161.392C166.708 161.392 166.167 161.607 165.85 162.036C165.532 162.465 165.369 163.119 165.36 163.996V164.234C165.36 165.158 165.509 165.872 165.808 166.376C166.116 166.871 166.68 167.118 167.502 167.118C167.95 167.118 168.323 166.997 168.622 166.754C168.92 166.502 169.14 166.157 169.28 165.718C169.429 165.279 169.504 164.78 169.504 164.22C169.504 163.361 169.336 162.675 169 162.162C168.673 161.649 168.164 161.392 167.474 161.392ZM175.247 167.132C175.433 167.132 175.625 167.118 175.821 167.09C176.017 167.062 176.175 167.025 176.297 166.978V167.916C176.166 167.981 175.979 168.033 175.737 168.07C175.494 168.117 175.261 168.14 175.037 168.14C174.645 168.14 174.281 168.075 173.945 167.944C173.618 167.804 173.352 167.566 173.147 167.23C172.941 166.894 172.839 166.423 172.839 165.816V161.448H171.775V160.86L172.853 160.37L173.343 158.774H174.071V160.496H176.241V161.448H174.071V165.788C174.071 166.245 174.178 166.586 174.393 166.81C174.617 167.025 174.901 167.132 175.247 167.132ZM178.429 157.682C178.616 157.682 178.779 157.747 178.919 157.878C179.069 157.999 179.143 158.195 179.143 158.466C179.143 158.737 179.069 158.937 178.919 159.068C178.779 159.189 178.616 159.25 178.429 159.25C178.224 159.25 178.051 159.189 177.911 159.068C177.771 158.937 177.701 158.737 177.701 158.466C177.701 158.195 177.771 157.999 177.911 157.878C178.051 157.747 178.224 157.682 178.429 157.682ZM179.031 160.496V168H177.799V160.496H179.031ZM187.933 164.234C187.933 165.475 187.615 166.437 186.981 167.118C186.355 167.799 185.506 168.14 184.433 168.14C183.77 168.14 183.177 167.991 182.655 167.692C182.141 167.384 181.735 166.941 181.437 166.362C181.138 165.774 180.989 165.065 180.989 164.234C180.989 162.993 181.297 162.036 181.913 161.364C182.538 160.692 183.392 160.356 184.475 160.356C185.147 160.356 185.744 160.51 186.267 160.818C186.789 161.117 187.195 161.555 187.485 162.134C187.783 162.703 187.933 163.403 187.933 164.234ZM182.263 164.234C182.263 165.121 182.435 165.825 182.781 166.348C183.135 166.861 183.695 167.118 184.461 167.118C185.217 167.118 185.772 166.861 186.127 166.348C186.481 165.825 186.659 165.121 186.659 164.234C186.659 163.347 186.481 162.652 186.127 162.148C185.772 161.644 185.212 161.392 184.447 161.392C183.681 161.392 183.126 161.644 182.781 162.148C182.435 162.652 182.263 163.347 182.263 164.234ZM193.497 160.356C194.393 160.356 195.07 160.575 195.527 161.014C195.985 161.453 196.213 162.153 196.213 163.114V168H194.995V163.198C194.995 161.994 194.435 161.392 193.315 161.392C192.485 161.392 191.911 161.625 191.593 162.092C191.276 162.559 191.117 163.231 191.117 164.108V168H189.885V160.496H190.879L191.061 161.518H191.131C191.374 161.126 191.71 160.837 192.139 160.65C192.569 160.454 193.021 160.356 193.497 160.356ZM204.836 161.868C205.854 161.868 206.666 162.125 207.272 162.638C207.888 163.151 208.196 163.875 208.196 164.808C208.196 165.844 207.865 166.661 207.202 167.258C206.549 167.846 205.634 168.14 204.458 168.14C203.936 168.14 203.45 168.093 203.002 168C202.554 167.907 202.176 167.771 201.868 167.594V166.432C202.204 166.637 202.61 166.801 203.086 166.922C203.572 167.034 204.034 167.09 204.472 167.09C205.21 167.09 205.802 166.917 206.25 166.572C206.708 166.217 206.936 165.671 206.936 164.934C206.936 164.281 206.736 163.781 206.334 163.436C205.933 163.081 205.298 162.904 204.43 162.904C204.169 162.904 203.87 162.927 203.534 162.974C203.198 163.021 202.928 163.067 202.722 163.114L202.106 162.722L202.484 158.004H207.496V159.124H203.534L203.296 162.022C203.455 161.994 203.67 161.961 203.94 161.924C204.211 161.887 204.51 161.868 204.836 161.868Z" fill="black"/>
<rect x="143.5" y="0.5" width="141" height="181" rx="4.5" stroke="black" stroke-opacity="0.15"/>
</g>
<defs>
<filter id="filter0_d_8122_199649" x="139" y="0" width="150" height="190" filterUnits="userSpaceOnUse" color-interpolation-filters="sRGB">
<feFlood flood-opacity="0" result="BackgroundImageFix"/>
<feColorMatrix in="SourceAlpha" type="matrix" values="0 0 0 0 0 0 0 0 0 0 0 0 0 0 0 0 0 0 127 0" result="hardAlpha"/>
<feOffset dy="4"/>
<feGaussianBlur stdDeviation="2"/>
<feColorMatrix type="matrix" values="0 0 0 0 0 0 0 0 0 0 0 0 0 0 0 0 0 0 0.25 0"/>
<feBlend mode="normal" in2="BackgroundImageFix" result="effect1_dropShadow_8122_199649"/>
<feBlend mode="normal" in="SourceGraphic" in2="effect1_dropShadow_8122_199649" result="shape"/>
</filter>
</defs>
</svg>
