<svg width="428" height="262" viewBox="0 0 428 262" fill="none" xmlns="http://www.w3.org/2000/svg">
<rect width="428" height="252" transform="translate(0 1)" fill="white"/>
<g filter="url(#filter0_d_8122_268417)">
<rect x="144.5" y="1" width="139" height="252" rx="4" fill="white"/>
<path d="M186.58 18.988C186.58 20.024 186.403 20.9293 186.048 21.704C185.703 22.4693 185.185 23.0667 184.494 23.496C183.813 23.9253 182.973 24.14 181.974 24.14C180.938 24.14 180.075 23.9253 179.384 23.496C178.703 23.0667 178.194 22.4647 177.858 21.69C177.522 20.9153 177.354 20.01 177.354 18.974C177.354 17.9567 177.522 17.0653 177.858 16.3C178.194 15.5253 178.703 14.9233 179.384 14.494C180.075 14.0647 180.943 13.85 181.988 13.85C182.987 13.85 183.827 14.0647 184.508 14.494C185.189 14.914 185.703 15.5113 186.048 16.286C186.403 17.0513 186.58 17.952 186.58 18.988ZM178.684 18.988C178.684 20.248 178.95 21.242 179.482 21.97C180.014 22.6887 180.845 23.048 181.974 23.048C183.103 23.048 183.929 22.6887 184.452 21.97C184.984 21.242 185.25 20.248 185.25 18.988C185.25 17.728 184.989 16.7433 184.466 16.034C183.943 15.3153 183.117 14.956 181.988 14.956C180.849 14.956 180.014 15.3153 179.482 16.034C178.95 16.7433 178.684 17.728 178.684 18.988ZM192.198 16.356C193.122 16.356 193.864 16.678 194.424 17.322C194.993 17.966 195.278 18.9367 195.278 20.234C195.278 21.5127 194.993 22.4833 194.424 23.146C193.864 23.8087 193.117 24.14 192.184 24.14C191.605 24.14 191.124 24.0327 190.742 23.818C190.368 23.6033 190.074 23.3467 189.86 23.048H189.776C189.785 23.2067 189.799 23.4073 189.818 23.65C189.846 23.8927 189.86 24.1027 189.86 24.28V27.36H188.628V16.496H189.636L189.804 17.518H189.86C190.084 17.1913 190.378 16.916 190.742 16.692C191.106 16.468 191.591 16.356 192.198 16.356ZM191.974 17.392C191.208 17.392 190.667 17.6067 190.35 18.036C190.032 18.4653 189.869 19.1187 189.86 19.996V20.234C189.86 21.158 190.009 21.872 190.308 22.376C190.616 22.8707 191.18 23.118 192.002 23.118C192.45 23.118 192.823 22.9967 193.122 22.754C193.42 22.502 193.64 22.1567 193.78 21.718C193.929 21.2793 194.004 20.78 194.004 20.22C194.004 19.3613 193.836 18.6753 193.5 18.162C193.173 17.6487 192.664 17.392 191.974 17.392ZM199.747 23.132C199.933 23.132 200.125 23.118 200.321 23.09C200.517 23.062 200.675 23.0247 200.797 22.978V23.916C200.666 23.9813 200.479 24.0327 200.237 24.07C199.994 24.1167 199.761 24.14 199.537 24.14C199.145 24.14 198.781 24.0747 198.445 23.944C198.118 23.804 197.852 23.566 197.647 23.23C197.441 22.894 197.339 22.4227 197.339 21.816V17.448H196.275V16.86L197.353 16.37L197.843 14.774H198.571V16.496H200.741V17.448H198.571V21.788C198.571 22.2453 198.678 22.586 198.893 22.81C199.117 23.0247 199.401 23.132 199.747 23.132ZM202.929 13.682C203.116 13.682 203.279 13.7473 203.419 13.878C203.569 13.9993 203.643 14.1953 203.643 14.466C203.643 14.7367 203.569 14.9373 203.419 15.068C203.279 15.1893 203.116 15.25 202.929 15.25C202.724 15.25 202.551 15.1893 202.411 15.068C202.271 14.9373 202.201 14.7367 202.201 14.466C202.201 14.1953 202.271 13.9993 202.411 13.878C202.551 13.7473 202.724 13.682 202.929 13.682ZM203.531 16.496V24H202.299V16.496H203.531ZM212.433 20.234C212.433 21.4753 212.115 22.4367 211.481 23.118C210.855 23.7993 210.006 24.14 208.933 24.14C208.27 24.14 207.677 23.9907 207.155 23.692C206.641 23.384 206.235 22.9407 205.937 22.362C205.638 21.774 205.489 21.0647 205.489 20.234C205.489 18.9927 205.797 18.036 206.413 17.364C207.038 16.692 207.892 16.356 208.975 16.356C209.647 16.356 210.244 16.51 210.767 16.818C211.289 17.1167 211.695 17.5553 211.985 18.134C212.283 18.7033 212.433 19.4033 212.433 20.234ZM206.763 20.234C206.763 21.1207 206.935 21.8253 207.281 22.348C207.635 22.8613 208.195 23.118 208.961 23.118C209.717 23.118 210.272 22.8613 210.627 22.348C210.981 21.8253 211.159 21.1207 211.159 20.234C211.159 19.3473 210.981 18.652 210.627 18.148C210.272 17.644 209.712 17.392 208.947 17.392C208.181 17.392 207.626 17.644 207.281 18.148C206.935 18.652 206.763 19.3473 206.763 20.234ZM217.997 16.356C218.893 16.356 219.57 16.5753 220.027 17.014C220.485 17.4527 220.713 18.1527 220.713 19.114V24H219.495V19.198C219.495 17.994 218.935 17.392 217.815 17.392C216.985 17.392 216.411 17.6253 216.093 18.092C215.776 18.5587 215.617 19.2307 215.617 20.108V24H214.385V16.496H215.379L215.561 17.518H215.631C215.874 17.126 216.21 16.8367 216.639 16.65C217.069 16.454 217.521 16.356 217.997 16.356ZM230.456 24H229.252V17.014C229.252 16.6127 229.257 16.2907 229.266 16.048C229.276 15.8053 229.29 15.5533 229.308 15.292C229.159 15.4413 229.019 15.5673 228.888 15.67C228.767 15.7727 228.618 15.9033 228.44 16.062L227.376 16.93L226.732 16.104L229.434 14.004H230.456V24Z" fill="black"/>
<path d="M159.012 60.202C158.912 60.202 158.812 60.152 158.762 60.102L154.613 55.952C154.462 55.802 154.462 55.552 154.613 55.402C154.763 55.252 155.012 55.252 155.162 55.402L159.012 59.252L165.812 50.152C165.913 50.002 166.163 49.952 166.312 50.052C166.462 50.152 166.512 50.402 166.412 50.552L159.312 60.052C159.262 60.152 159.162 60.202 159.012 60.202Z" fill="black"/>
<path d="M183.528 57.326C183.528 58.2127 183.206 58.9033 182.562 59.398C181.918 59.8927 181.05 60.14 179.958 60.14C179.398 60.14 178.88 60.098 178.404 60.014C177.928 59.93 177.531 59.8133 177.214 59.664V58.46C177.55 58.6093 177.965 58.7447 178.46 58.866C178.964 58.9873 179.482 59.048 180.014 59.048C180.751 59.048 181.311 58.9033 181.694 58.614C182.077 58.3247 182.268 57.9327 182.268 57.438C182.268 57.1113 182.198 56.836 182.058 56.612C181.918 56.388 181.675 56.1827 181.33 55.996C180.985 55.8093 180.513 55.604 179.916 55.38C179.057 55.072 178.413 54.694 177.984 54.246C177.555 53.798 177.34 53.1867 177.34 52.412C177.34 51.8893 177.475 51.4367 177.746 51.054C178.017 50.6713 178.39 50.3773 178.866 50.172C179.342 49.9667 179.897 49.864 180.532 49.864C181.073 49.864 181.573 49.9153 182.03 50.018C182.487 50.1207 182.907 50.256 183.29 50.424L182.898 51.502C182.553 51.3527 182.175 51.2267 181.764 51.124C181.353 51.0213 180.933 50.97 180.504 50.97C179.879 50.97 179.407 51.1053 179.09 51.376C178.773 51.6373 178.614 51.9873 178.614 52.426C178.614 52.762 178.684 53.042 178.824 53.266C178.964 53.49 179.193 53.6953 179.51 53.882C179.827 54.0593 180.257 54.246 180.798 54.442C181.386 54.6567 181.881 54.89 182.282 55.142C182.693 55.3847 183.001 55.6787 183.206 56.024C183.421 56.3693 183.528 56.8033 183.528 57.326ZM188.272 52.356C188.906 52.356 189.457 52.496 189.924 52.776C190.39 53.056 190.745 53.4527 190.988 53.966C191.24 54.47 191.366 55.0627 191.366 55.744V56.486H186.228C186.246 57.3353 186.461 57.984 186.872 58.432C187.292 58.8707 187.875 59.09 188.622 59.09C189.098 59.09 189.518 59.048 189.882 58.964C190.255 58.8707 190.638 58.74 191.03 58.572V59.65C190.647 59.818 190.269 59.9393 189.896 60.014C189.522 60.098 189.079 60.14 188.566 60.14C187.847 60.14 187.217 59.9953 186.676 59.706C186.134 59.4167 185.71 58.9873 185.402 58.418C185.103 57.8487 184.954 57.144 184.954 56.304C184.954 55.4827 185.089 54.778 185.36 54.19C185.64 53.602 186.027 53.1493 186.522 52.832C187.026 52.5147 187.609 52.356 188.272 52.356ZM188.258 53.364C187.67 53.364 187.203 53.5553 186.858 53.938C186.522 54.3113 186.321 54.834 186.256 55.506H190.078C190.068 54.8713 189.919 54.358 189.63 53.966C189.34 53.5647 188.883 53.364 188.258 53.364ZM194.508 60H193.276V49.36H194.508V60ZM199.783 52.356C200.418 52.356 200.969 52.496 201.435 52.776C201.902 53.056 202.257 53.4527 202.499 53.966C202.751 54.47 202.877 55.0627 202.877 55.744V56.486H197.739C197.758 57.3353 197.973 57.984 198.383 58.432C198.803 58.8707 199.387 59.09 200.133 59.09C200.609 59.09 201.029 59.048 201.393 58.964C201.767 58.8707 202.149 58.74 202.541 58.572V59.65C202.159 59.818 201.781 59.9393 201.407 60.014C201.034 60.098 200.591 60.14 200.077 60.14C199.359 60.14 198.729 59.9953 198.187 59.706C197.646 59.4167 197.221 58.9873 196.913 58.418C196.615 57.8487 196.465 57.144 196.465 56.304C196.465 55.4827 196.601 54.778 196.871 54.19C197.151 53.602 197.539 53.1493 198.033 52.832C198.537 52.5147 199.121 52.356 199.783 52.356ZM199.769 53.364C199.181 53.364 198.715 53.5553 198.369 53.938C198.033 54.3113 197.833 54.834 197.767 55.506H201.589C201.58 54.8713 201.431 54.358 201.141 53.966C200.852 53.5647 200.395 53.364 199.769 53.364ZM207.798 60.14C207.126 60.14 206.533 60.0047 206.02 59.734C205.506 59.4633 205.1 59.0433 204.802 58.474C204.512 57.9047 204.368 57.1767 204.368 56.29C204.368 55.366 204.517 54.6147 204.816 54.036C205.124 53.4573 205.544 53.0327 206.076 52.762C206.608 52.4913 207.21 52.356 207.882 52.356C208.255 52.356 208.619 52.398 208.974 52.482C209.338 52.5567 209.632 52.65 209.856 52.762L209.478 53.784C209.254 53.7 208.992 53.6207 208.694 53.546C208.395 53.4713 208.115 53.434 207.854 53.434C206.379 53.434 205.642 54.3813 205.642 56.276C205.642 57.1813 205.819 57.8767 206.174 58.362C206.538 58.838 207.074 59.076 207.784 59.076C208.185 59.076 208.544 59.034 208.862 58.95C209.179 58.866 209.468 58.7633 209.73 58.642V59.734C209.478 59.8647 209.198 59.9627 208.89 60.028C208.591 60.1027 208.227 60.14 207.798 60.14ZM214.02 59.132C214.207 59.132 214.398 59.118 214.594 59.09C214.79 59.062 214.949 59.0247 215.07 58.978V59.916C214.94 59.9813 214.753 60.0327 214.51 60.07C214.268 60.1167 214.034 60.14 213.81 60.14C213.418 60.14 213.054 60.0747 212.718 59.944C212.392 59.804 212.126 59.566 211.92 59.23C211.715 58.894 211.612 58.4227 211.612 57.816V53.448H210.548V52.86L211.626 52.37L212.116 50.774H212.844V52.496H215.014V53.448H212.844V57.788C212.844 58.2453 212.952 58.586 213.166 58.81C213.39 59.0247 213.675 59.132 214.02 59.132ZM219.471 52.356C220.105 52.356 220.656 52.496 221.123 52.776C221.589 53.056 221.944 53.4527 222.187 53.966C222.439 54.47 222.565 55.0627 222.565 55.744V56.486H217.427C217.445 57.3353 217.66 57.984 218.071 58.432C218.491 58.8707 219.074 59.09 219.821 59.09C220.297 59.09 220.717 59.048 221.081 58.964C221.454 58.8707 221.837 58.74 222.229 58.572V59.65C221.846 59.818 221.468 59.9393 221.095 60.014C220.721 60.098 220.278 60.14 219.765 60.14C219.046 60.14 218.416 59.9953 217.875 59.706C217.333 59.4167 216.909 58.9873 216.601 58.418C216.302 57.8487 216.153 57.144 216.153 56.304C216.153 55.4827 216.288 54.778 216.559 54.19C216.839 53.602 217.226 53.1493 217.721 52.832C218.225 52.5147 218.808 52.356 219.471 52.356ZM219.457 53.364C218.869 53.364 218.402 53.5553 218.057 53.938C217.721 54.3113 217.52 54.834 217.455 55.506H221.277C221.267 54.8713 221.118 54.358 220.829 53.966C220.539 53.5647 220.082 53.364 219.457 53.364ZM227.135 60.14C226.202 60.14 225.455 59.818 224.895 59.174C224.335 58.5207 224.055 57.55 224.055 56.262C224.055 54.974 224.335 54.0033 224.895 53.35C225.464 52.6873 226.216 52.356 227.149 52.356C227.728 52.356 228.199 52.4633 228.563 52.678C228.936 52.8927 229.24 53.154 229.473 53.462H229.557C229.538 53.3407 229.52 53.1633 229.501 52.93C229.482 52.6873 229.473 52.496 229.473 52.356V49.36H230.705V60H229.711L229.529 58.992H229.473C229.249 59.3093 228.95 59.58 228.577 59.804C228.204 60.028 227.723 60.14 227.135 60.14ZM227.331 59.118C228.124 59.118 228.68 58.9033 228.997 58.474C229.324 58.0353 229.487 57.3773 229.487 56.5V56.276C229.487 55.3427 229.333 54.6287 229.025 54.134C228.717 53.63 228.148 53.378 227.317 53.378C226.654 53.378 226.155 53.644 225.819 54.176C225.492 54.6987 225.329 55.4033 225.329 56.29C225.329 57.186 225.492 57.8813 225.819 58.376C226.155 58.8707 226.659 59.118 227.331 59.118Z" fill="black"/>
<path d="M186.58 90.988C186.58 92.024 186.403 92.9293 186.048 93.704C185.703 94.4693 185.185 95.0667 184.494 95.496C183.813 95.9253 182.973 96.14 181.974 96.14C180.938 96.14 180.075 95.9253 179.384 95.496C178.703 95.0667 178.194 94.4647 177.858 93.69C177.522 92.9153 177.354 92.01 177.354 90.974C177.354 89.9567 177.522 89.0653 177.858 88.3C178.194 87.5253 178.703 86.9233 179.384 86.494C180.075 86.0647 180.943 85.85 181.988 85.85C182.987 85.85 183.827 86.0647 184.508 86.494C185.189 86.914 185.703 87.5113 186.048 88.286C186.403 89.0513 186.58 89.952 186.58 90.988ZM178.684 90.988C178.684 92.248 178.95 93.242 179.482 93.97C180.014 94.6887 180.845 95.048 181.974 95.048C183.103 95.048 183.929 94.6887 184.452 93.97C184.984 93.242 185.25 92.248 185.25 90.988C185.25 89.728 184.989 88.7433 184.466 88.034C183.943 87.3153 183.117 86.956 181.988 86.956C180.849 86.956 180.014 87.3153 179.482 88.034C178.95 88.7433 178.684 89.728 178.684 90.988ZM192.198 88.356C193.122 88.356 193.864 88.678 194.424 89.322C194.993 89.966 195.278 90.9367 195.278 92.234C195.278 93.5127 194.993 94.4833 194.424 95.146C193.864 95.8087 193.117 96.14 192.184 96.14C191.605 96.14 191.124 96.0327 190.742 95.818C190.368 95.6033 190.074 95.3467 189.86 95.048H189.776C189.785 95.2067 189.799 95.4073 189.818 95.65C189.846 95.8927 189.86 96.1027 189.86 96.28V99.36H188.628V88.496H189.636L189.804 89.518H189.86C190.084 89.1913 190.378 88.916 190.742 88.692C191.106 88.468 191.591 88.356 192.198 88.356ZM191.974 89.392C191.208 89.392 190.667 89.6067 190.35 90.036C190.032 90.4653 189.869 91.1187 189.86 91.996V92.234C189.86 93.158 190.009 93.872 190.308 94.376C190.616 94.8707 191.18 95.118 192.002 95.118C192.45 95.118 192.823 94.9967 193.122 94.754C193.42 94.502 193.64 94.1567 193.78 93.718C193.929 93.2793 194.004 92.78 194.004 92.22C194.004 91.3613 193.836 90.6753 193.5 90.162C193.173 89.6487 192.664 89.392 191.974 89.392ZM199.747 95.132C199.933 95.132 200.125 95.118 200.321 95.09C200.517 95.062 200.675 95.0247 200.797 94.978V95.916C200.666 95.9813 200.479 96.0327 200.237 96.07C199.994 96.1167 199.761 96.14 199.537 96.14C199.145 96.14 198.781 96.0747 198.445 95.944C198.118 95.804 197.852 95.566 197.647 95.23C197.441 94.894 197.339 94.4227 197.339 93.816V89.448H196.275V88.86L197.353 88.37L197.843 86.774H198.571V88.496H200.741V89.448H198.571V93.788C198.571 94.2453 198.678 94.586 198.893 94.81C199.117 95.0247 199.401 95.132 199.747 95.132ZM202.929 85.682C203.116 85.682 203.279 85.7473 203.419 85.878C203.569 85.9993 203.643 86.1953 203.643 86.466C203.643 86.7367 203.569 86.9373 203.419 87.068C203.279 87.1893 203.116 87.25 202.929 87.25C202.724 87.25 202.551 87.1893 202.411 87.068C202.271 86.9373 202.201 86.7367 202.201 86.466C202.201 86.1953 202.271 85.9993 202.411 85.878C202.551 85.7473 202.724 85.682 202.929 85.682ZM203.531 88.496V96H202.299V88.496H203.531ZM212.433 92.234C212.433 93.4753 212.115 94.4367 211.481 95.118C210.855 95.7993 210.006 96.14 208.933 96.14C208.27 96.14 207.677 95.9907 207.155 95.692C206.641 95.384 206.235 94.9407 205.937 94.362C205.638 93.774 205.489 93.0647 205.489 92.234C205.489 90.9927 205.797 90.036 206.413 89.364C207.038 88.692 207.892 88.356 208.975 88.356C209.647 88.356 210.244 88.51 210.767 88.818C211.289 89.1167 211.695 89.5553 211.985 90.134C212.283 90.7033 212.433 91.4033 212.433 92.234ZM206.763 92.234C206.763 93.1207 206.935 93.8253 207.281 94.348C207.635 94.8613 208.195 95.118 208.961 95.118C209.717 95.118 210.272 94.8613 210.627 94.348C210.981 93.8253 211.159 93.1207 211.159 92.234C211.159 91.3473 210.981 90.652 210.627 90.148C210.272 89.644 209.712 89.392 208.947 89.392C208.181 89.392 207.626 89.644 207.281 90.148C206.935 90.652 206.763 91.3473 206.763 92.234ZM217.997 88.356C218.893 88.356 219.57 88.5753 220.027 89.014C220.485 89.4527 220.713 90.1527 220.713 91.114V96H219.495V91.198C219.495 89.994 218.935 89.392 217.815 89.392C216.985 89.392 216.411 89.6253 216.093 90.092C215.776 90.5587 215.617 91.2307 215.617 92.108V96H214.385V88.496H215.379L215.561 89.518H215.631C215.874 89.126 216.21 88.8367 216.639 88.65C217.069 88.454 217.521 88.356 217.997 88.356ZM232.388 88.342C232.388 89.014 232.197 89.5507 231.814 89.952C231.441 90.344 230.942 90.6053 230.316 90.736V90.792C231.11 90.8853 231.702 91.1373 232.094 91.548C232.496 91.9587 232.696 92.4953 232.696 93.158C232.696 93.746 232.561 94.264 232.29 94.712C232.02 95.16 231.6 95.51 231.03 95.762C230.47 96.014 229.747 96.14 228.86 96.14C228.338 96.14 227.852 96.098 227.404 96.014C226.956 95.9393 226.527 95.7993 226.116 95.594V94.446C226.536 94.6607 226.989 94.824 227.474 94.936C227.96 95.048 228.426 95.104 228.874 95.104C229.77 95.104 230.414 94.9313 230.806 94.586C231.208 94.2313 231.408 93.746 231.408 93.13C231.408 92.5047 231.161 92.0567 230.666 91.786C230.181 91.506 229.495 91.366 228.608 91.366H227.642V90.316H228.622C229.444 90.316 230.064 90.1433 230.484 89.798C230.914 89.4527 231.128 88.9953 231.128 88.426C231.128 87.9407 230.965 87.5673 230.638 87.306C230.312 87.0353 229.868 86.9 229.308 86.9C228.767 86.9 228.305 86.9793 227.922 87.138C227.54 87.2967 227.162 87.4973 226.788 87.74L226.172 86.9C226.527 86.62 226.966 86.3773 227.488 86.172C228.02 85.9667 228.622 85.864 229.294 85.864C230.34 85.864 231.114 86.0973 231.618 86.564C232.132 87.0307 232.388 87.6233 232.388 88.342Z" fill="black"/>
<path d="M186.58 126.988C186.58 128.024 186.403 128.929 186.048 129.704C185.703 130.469 185.185 131.067 184.494 131.496C183.813 131.925 182.973 132.14 181.974 132.14C180.938 132.14 180.075 131.925 179.384 131.496C178.703 131.067 178.194 130.465 177.858 129.69C177.522 128.915 177.354 128.01 177.354 126.974C177.354 125.957 177.522 125.065 177.858 124.3C178.194 123.525 178.703 122.923 179.384 122.494C180.075 122.065 180.943 121.85 181.988 121.85C182.987 121.85 183.827 122.065 184.508 122.494C185.189 122.914 185.703 123.511 186.048 124.286C186.403 125.051 186.58 125.952 186.58 126.988ZM178.684 126.988C178.684 128.248 178.95 129.242 179.482 129.97C180.014 130.689 180.845 131.048 181.974 131.048C183.103 131.048 183.929 130.689 184.452 129.97C184.984 129.242 185.25 128.248 185.25 126.988C185.25 125.728 184.989 124.743 184.466 124.034C183.943 123.315 183.117 122.956 181.988 122.956C180.849 122.956 180.014 123.315 179.482 124.034C178.95 124.743 178.684 125.728 178.684 126.988ZM192.198 124.356C193.122 124.356 193.864 124.678 194.424 125.322C194.993 125.966 195.278 126.937 195.278 128.234C195.278 129.513 194.993 130.483 194.424 131.146C193.864 131.809 193.117 132.14 192.184 132.14C191.605 132.14 191.124 132.033 190.742 131.818C190.368 131.603 190.074 131.347 189.86 131.048H189.776C189.785 131.207 189.799 131.407 189.818 131.65C189.846 131.893 189.86 132.103 189.86 132.28V135.36H188.628V124.496H189.636L189.804 125.518H189.86C190.084 125.191 190.378 124.916 190.742 124.692C191.106 124.468 191.591 124.356 192.198 124.356ZM191.974 125.392C191.208 125.392 190.667 125.607 190.35 126.036C190.032 126.465 189.869 127.119 189.86 127.996V128.234C189.86 129.158 190.009 129.872 190.308 130.376C190.616 130.871 191.18 131.118 192.002 131.118C192.45 131.118 192.823 130.997 193.122 130.754C193.42 130.502 193.64 130.157 193.78 129.718C193.929 129.279 194.004 128.78 194.004 128.22C194.004 127.361 193.836 126.675 193.5 126.162C193.173 125.649 192.664 125.392 191.974 125.392ZM199.747 131.132C199.933 131.132 200.125 131.118 200.321 131.09C200.517 131.062 200.675 131.025 200.797 130.978V131.916C200.666 131.981 200.479 132.033 200.237 132.07C199.994 132.117 199.761 132.14 199.537 132.14C199.145 132.14 198.781 132.075 198.445 131.944C198.118 131.804 197.852 131.566 197.647 131.23C197.441 130.894 197.339 130.423 197.339 129.816V125.448H196.275V124.86L197.353 124.37L197.843 122.774H198.571V124.496H200.741V125.448H198.571V129.788C198.571 130.245 198.678 130.586 198.893 130.81C199.117 131.025 199.401 131.132 199.747 131.132ZM202.929 121.682C203.116 121.682 203.279 121.747 203.419 121.878C203.569 121.999 203.643 122.195 203.643 122.466C203.643 122.737 203.569 122.937 203.419 123.068C203.279 123.189 203.116 123.25 202.929 123.25C202.724 123.25 202.551 123.189 202.411 123.068C202.271 122.937 202.201 122.737 202.201 122.466C202.201 122.195 202.271 121.999 202.411 121.878C202.551 121.747 202.724 121.682 202.929 121.682ZM203.531 124.496V132H202.299V124.496H203.531ZM212.433 128.234C212.433 129.475 212.115 130.437 211.481 131.118C210.855 131.799 210.006 132.14 208.933 132.14C208.27 132.14 207.677 131.991 207.155 131.692C206.641 131.384 206.235 130.941 205.937 130.362C205.638 129.774 205.489 129.065 205.489 128.234C205.489 126.993 205.797 126.036 206.413 125.364C207.038 124.692 207.892 124.356 208.975 124.356C209.647 124.356 210.244 124.51 210.767 124.818C211.289 125.117 211.695 125.555 211.985 126.134C212.283 126.703 212.433 127.403 212.433 128.234ZM206.763 128.234C206.763 129.121 206.935 129.825 207.281 130.348C207.635 130.861 208.195 131.118 208.961 131.118C209.717 131.118 210.272 130.861 210.627 130.348C210.981 129.825 211.159 129.121 211.159 128.234C211.159 127.347 210.981 126.652 210.627 126.148C210.272 125.644 209.712 125.392 208.947 125.392C208.181 125.392 207.626 125.644 207.281 126.148C206.935 126.652 206.763 127.347 206.763 128.234ZM217.997 124.356C218.893 124.356 219.57 124.575 220.027 125.014C220.485 125.453 220.713 126.153 220.713 127.114V132H219.495V127.198C219.495 125.994 218.935 125.392 217.815 125.392C216.985 125.392 216.411 125.625 216.093 126.092C215.776 126.559 215.617 127.231 215.617 128.108V132H214.385V124.496H215.379L215.561 125.518H215.631C215.874 125.126 216.21 124.837 216.639 124.65C217.069 124.454 217.521 124.356 217.997 124.356ZM233.214 129.732H231.758V132H230.568V129.732H225.78V128.682L230.484 121.948H231.758V128.626H233.214V129.732ZM230.568 128.626V125.476C230.568 124.991 230.573 124.58 230.582 124.244C230.601 123.899 230.62 123.572 230.638 123.264H230.582C230.508 123.441 230.414 123.633 230.302 123.838C230.19 124.043 230.083 124.216 229.98 124.356L226.984 128.626H230.568Z" fill="black"/>
<path d="M186.58 162.988C186.58 164.024 186.403 164.929 186.048 165.704C185.703 166.469 185.185 167.067 184.494 167.496C183.813 167.925 182.973 168.14 181.974 168.14C180.938 168.14 180.075 167.925 179.384 167.496C178.703 167.067 178.194 166.465 177.858 165.69C177.522 164.915 177.354 164.01 177.354 162.974C177.354 161.957 177.522 161.065 177.858 160.3C178.194 159.525 178.703 158.923 179.384 158.494C180.075 158.065 180.943 157.85 181.988 157.85C182.987 157.85 183.827 158.065 184.508 158.494C185.189 158.914 185.703 159.511 186.048 160.286C186.403 161.051 186.58 161.952 186.58 162.988ZM178.684 162.988C178.684 164.248 178.95 165.242 179.482 165.97C180.014 166.689 180.845 167.048 181.974 167.048C183.103 167.048 183.929 166.689 184.452 165.97C184.984 165.242 185.25 164.248 185.25 162.988C185.25 161.728 184.989 160.743 184.466 160.034C183.943 159.315 183.117 158.956 181.988 158.956C180.849 158.956 180.014 159.315 179.482 160.034C178.95 160.743 178.684 161.728 178.684 162.988ZM192.198 160.356C193.122 160.356 193.864 160.678 194.424 161.322C194.993 161.966 195.278 162.937 195.278 164.234C195.278 165.513 194.993 166.483 194.424 167.146C193.864 167.809 193.117 168.14 192.184 168.14C191.605 168.14 191.124 168.033 190.742 167.818C190.368 167.603 190.074 167.347 189.86 167.048H189.776C189.785 167.207 189.799 167.407 189.818 167.65C189.846 167.893 189.86 168.103 189.86 168.28V171.36H188.628V160.496H189.636L189.804 161.518H189.86C190.084 161.191 190.378 160.916 190.742 160.692C191.106 160.468 191.591 160.356 192.198 160.356ZM191.974 161.392C191.208 161.392 190.667 161.607 190.35 162.036C190.032 162.465 189.869 163.119 189.86 163.996V164.234C189.86 165.158 190.009 165.872 190.308 166.376C190.616 166.871 191.18 167.118 192.002 167.118C192.45 167.118 192.823 166.997 193.122 166.754C193.42 166.502 193.64 166.157 193.78 165.718C193.929 165.279 194.004 164.78 194.004 164.22C194.004 163.361 193.836 162.675 193.5 162.162C193.173 161.649 192.664 161.392 191.974 161.392ZM199.747 167.132C199.933 167.132 200.125 167.118 200.321 167.09C200.517 167.062 200.675 167.025 200.797 166.978V167.916C200.666 167.981 200.479 168.033 200.237 168.07C199.994 168.117 199.761 168.14 199.537 168.14C199.145 168.14 198.781 168.075 198.445 167.944C198.118 167.804 197.852 167.566 197.647 167.23C197.441 166.894 197.339 166.423 197.339 165.816V161.448H196.275V160.86L197.353 160.37L197.843 158.774H198.571V160.496H200.741V161.448H198.571V165.788C198.571 166.245 198.678 166.586 198.893 166.81C199.117 167.025 199.401 167.132 199.747 167.132ZM202.929 157.682C203.116 157.682 203.279 157.747 203.419 157.878C203.569 157.999 203.643 158.195 203.643 158.466C203.643 158.737 203.569 158.937 203.419 159.068C203.279 159.189 203.116 159.25 202.929 159.25C202.724 159.25 202.551 159.189 202.411 159.068C202.271 158.937 202.201 158.737 202.201 158.466C202.201 158.195 202.271 157.999 202.411 157.878C202.551 157.747 202.724 157.682 202.929 157.682ZM203.531 160.496V168H202.299V160.496H203.531ZM212.433 164.234C212.433 165.475 212.115 166.437 211.481 167.118C210.855 167.799 210.006 168.14 208.933 168.14C208.27 168.14 207.677 167.991 207.155 167.692C206.641 167.384 206.235 166.941 205.937 166.362C205.638 165.774 205.489 165.065 205.489 164.234C205.489 162.993 205.797 162.036 206.413 161.364C207.038 160.692 207.892 160.356 208.975 160.356C209.647 160.356 210.244 160.51 210.767 160.818C211.289 161.117 211.695 161.555 211.985 162.134C212.283 162.703 212.433 163.403 212.433 164.234ZM206.763 164.234C206.763 165.121 206.935 165.825 207.281 166.348C207.635 166.861 208.195 167.118 208.961 167.118C209.717 167.118 210.272 166.861 210.627 166.348C210.981 165.825 211.159 165.121 211.159 164.234C211.159 163.347 210.981 162.652 210.627 162.148C210.272 161.644 209.712 161.392 208.947 161.392C208.181 161.392 207.626 161.644 207.281 162.148C206.935 162.652 206.763 163.347 206.763 164.234ZM217.997 160.356C218.893 160.356 219.57 160.575 220.027 161.014C220.485 161.453 220.713 162.153 220.713 163.114V168H219.495V163.198C219.495 161.994 218.935 161.392 217.815 161.392C216.985 161.392 216.411 161.625 216.093 162.092C215.776 162.559 215.617 163.231 215.617 164.108V168H214.385V160.496H215.379L215.561 161.518H215.631C215.874 161.126 216.21 160.837 216.639 160.65C217.069 160.454 217.521 160.356 217.997 160.356ZM229.336 161.868C230.354 161.868 231.166 162.125 231.772 162.638C232.388 163.151 232.696 163.875 232.696 164.808C232.696 165.844 232.365 166.661 231.702 167.258C231.049 167.846 230.134 168.14 228.958 168.14C228.436 168.14 227.95 168.093 227.502 168C227.054 167.907 226.676 167.771 226.368 167.594V166.432C226.704 166.637 227.11 166.801 227.586 166.922C228.072 167.034 228.534 167.09 228.972 167.09C229.71 167.09 230.302 166.917 230.75 166.572C231.208 166.217 231.436 165.671 231.436 164.934C231.436 164.281 231.236 163.781 230.834 163.436C230.433 163.081 229.798 162.904 228.93 162.904C228.669 162.904 228.37 162.927 228.034 162.974C227.698 163.021 227.428 163.067 227.222 163.114L226.606 162.722L226.984 158.004H231.996V159.124H228.034L227.796 162.022C227.955 161.994 228.17 161.961 228.44 161.924C228.711 161.887 229.01 161.868 229.336 161.868Z" fill="black"/>
<path d="M186.58 198.988C186.58 200.024 186.403 200.929 186.048 201.704C185.703 202.469 185.185 203.067 184.494 203.496C183.813 203.925 182.973 204.14 181.974 204.14C180.938 204.14 180.075 203.925 179.384 203.496C178.703 203.067 178.194 202.465 177.858 201.69C177.522 200.915 177.354 200.01 177.354 198.974C177.354 197.957 177.522 197.065 177.858 196.3C178.194 195.525 178.703 194.923 179.384 194.494C180.075 194.065 180.943 193.85 181.988 193.85C182.987 193.85 183.827 194.065 184.508 194.494C185.189 194.914 185.703 195.511 186.048 196.286C186.403 197.051 186.58 197.952 186.58 198.988ZM178.684 198.988C178.684 200.248 178.95 201.242 179.482 201.97C180.014 202.689 180.845 203.048 181.974 203.048C183.103 203.048 183.929 202.689 184.452 201.97C184.984 201.242 185.25 200.248 185.25 198.988C185.25 197.728 184.989 196.743 184.466 196.034C183.943 195.315 183.117 194.956 181.988 194.956C180.849 194.956 180.014 195.315 179.482 196.034C178.95 196.743 178.684 197.728 178.684 198.988ZM192.198 196.356C193.122 196.356 193.864 196.678 194.424 197.322C194.993 197.966 195.278 198.937 195.278 200.234C195.278 201.513 194.993 202.483 194.424 203.146C193.864 203.809 193.117 204.14 192.184 204.14C191.605 204.14 191.124 204.033 190.742 203.818C190.368 203.603 190.074 203.347 189.86 203.048H189.776C189.785 203.207 189.799 203.407 189.818 203.65C189.846 203.893 189.86 204.103 189.86 204.28V207.36H188.628V196.496H189.636L189.804 197.518H189.86C190.084 197.191 190.378 196.916 190.742 196.692C191.106 196.468 191.591 196.356 192.198 196.356ZM191.974 197.392C191.208 197.392 190.667 197.607 190.35 198.036C190.032 198.465 189.869 199.119 189.86 199.996V200.234C189.86 201.158 190.009 201.872 190.308 202.376C190.616 202.871 191.18 203.118 192.002 203.118C192.45 203.118 192.823 202.997 193.122 202.754C193.42 202.502 193.64 202.157 193.78 201.718C193.929 201.279 194.004 200.78 194.004 200.22C194.004 199.361 193.836 198.675 193.5 198.162C193.173 197.649 192.664 197.392 191.974 197.392ZM199.747 203.132C199.933 203.132 200.125 203.118 200.321 203.09C200.517 203.062 200.675 203.025 200.797 202.978V203.916C200.666 203.981 200.479 204.033 200.237 204.07C199.994 204.117 199.761 204.14 199.537 204.14C199.145 204.14 198.781 204.075 198.445 203.944C198.118 203.804 197.852 203.566 197.647 203.23C197.441 202.894 197.339 202.423 197.339 201.816V197.448H196.275V196.86L197.353 196.37L197.843 194.774H198.571V196.496H200.741V197.448H198.571V201.788C198.571 202.245 198.678 202.586 198.893 202.81C199.117 203.025 199.401 203.132 199.747 203.132ZM202.929 193.682C203.116 193.682 203.279 193.747 203.419 193.878C203.569 193.999 203.643 194.195 203.643 194.466C203.643 194.737 203.569 194.937 203.419 195.068C203.279 195.189 203.116 195.25 202.929 195.25C202.724 195.25 202.551 195.189 202.411 195.068C202.271 194.937 202.201 194.737 202.201 194.466C202.201 194.195 202.271 193.999 202.411 193.878C202.551 193.747 202.724 193.682 202.929 193.682ZM203.531 196.496V204H202.299V196.496H203.531ZM212.433 200.234C212.433 201.475 212.115 202.437 211.481 203.118C210.855 203.799 210.006 204.14 208.933 204.14C208.27 204.14 207.677 203.991 207.155 203.692C206.641 203.384 206.235 202.941 205.937 202.362C205.638 201.774 205.489 201.065 205.489 200.234C205.489 198.993 205.797 198.036 206.413 197.364C207.038 196.692 207.892 196.356 208.975 196.356C209.647 196.356 210.244 196.51 210.767 196.818C211.289 197.117 211.695 197.555 211.985 198.134C212.283 198.703 212.433 199.403 212.433 200.234ZM206.763 200.234C206.763 201.121 206.935 201.825 207.281 202.348C207.635 202.861 208.195 203.118 208.961 203.118C209.717 203.118 210.272 202.861 210.627 202.348C210.981 201.825 211.159 201.121 211.159 200.234C211.159 199.347 210.981 198.652 210.627 198.148C210.272 197.644 209.712 197.392 208.947 197.392C208.181 197.392 207.626 197.644 207.281 198.148C206.935 198.652 206.763 199.347 206.763 200.234ZM217.997 196.356C218.893 196.356 219.57 196.575 220.027 197.014C220.485 197.453 220.713 198.153 220.713 199.114V204H219.495V199.198C219.495 197.994 218.935 197.392 217.815 197.392C216.985 197.392 216.411 197.625 216.093 198.092C215.776 198.559 215.617 199.231 215.617 200.108V204H214.385V196.496H215.379L215.561 197.518H215.631C215.874 197.126 216.21 196.837 216.639 196.65C217.069 196.454 217.521 196.356 217.997 196.356ZM226.256 199.73C226.256 199.011 226.317 198.307 226.438 197.616C226.569 196.916 226.798 196.286 227.124 195.726C227.46 195.157 227.927 194.704 228.524 194.368C229.122 194.032 229.892 193.864 230.834 193.864C231.03 193.864 231.245 193.873 231.478 193.892C231.721 193.911 231.917 193.943 232.066 193.99V195.04C231.898 194.984 231.707 194.942 231.492 194.914C231.278 194.886 231.068 194.872 230.862 194.872C230.218 194.872 229.682 194.979 229.252 195.194C228.823 195.409 228.482 195.703 228.23 196.076C227.988 196.449 227.81 196.879 227.698 197.364C227.586 197.849 227.516 198.367 227.488 198.918H227.572C227.787 198.591 228.086 198.316 228.468 198.092C228.851 197.859 229.341 197.742 229.938 197.742C230.806 197.742 231.506 198.008 232.038 198.54C232.57 199.063 232.836 199.809 232.836 200.78C232.836 201.825 232.547 202.647 231.968 203.244C231.399 203.841 230.629 204.14 229.658 204.14C229.024 204.14 228.45 203.981 227.936 203.664C227.423 203.347 227.012 202.861 226.704 202.208C226.406 201.555 226.256 200.729 226.256 199.73ZM229.644 203.104C230.232 203.104 230.708 202.917 231.072 202.544C231.436 202.161 231.618 201.573 231.618 200.78C231.618 200.145 231.455 199.641 231.128 199.268C230.811 198.895 230.33 198.708 229.686 198.708C229.248 198.708 228.865 198.801 228.538 198.988C228.212 199.165 227.955 199.399 227.768 199.688C227.591 199.968 227.502 200.253 227.502 200.542C227.502 200.943 227.582 201.345 227.74 201.746C227.899 202.138 228.137 202.465 228.454 202.726C228.772 202.978 229.168 203.104 229.644 203.104Z" fill="black"/>
<path d="M186.58 234.988C186.58 236.024 186.403 236.929 186.048 237.704C185.703 238.469 185.185 239.067 184.494 239.496C183.813 239.925 182.973 240.14 181.974 240.14C180.938 240.14 180.075 239.925 179.384 239.496C178.703 239.067 178.194 238.465 177.858 237.69C177.522 236.915 177.354 236.01 177.354 234.974C177.354 233.957 177.522 233.065 177.858 232.3C178.194 231.525 178.703 230.923 179.384 230.494C180.075 230.065 180.943 229.85 181.988 229.85C182.987 229.85 183.827 230.065 184.508 230.494C185.189 230.914 185.703 231.511 186.048 232.286C186.403 233.051 186.58 233.952 186.58 234.988ZM178.684 234.988C178.684 236.248 178.95 237.242 179.482 237.97C180.014 238.689 180.845 239.048 181.974 239.048C183.103 239.048 183.929 238.689 184.452 237.97C184.984 237.242 185.25 236.248 185.25 234.988C185.25 233.728 184.989 232.743 184.466 232.034C183.943 231.315 183.117 230.956 181.988 230.956C180.849 230.956 180.014 231.315 179.482 232.034C178.95 232.743 178.684 233.728 178.684 234.988ZM192.198 232.356C193.122 232.356 193.864 232.678 194.424 233.322C194.993 233.966 195.278 234.937 195.278 236.234C195.278 237.513 194.993 238.483 194.424 239.146C193.864 239.809 193.117 240.14 192.184 240.14C191.605 240.14 191.124 240.033 190.742 239.818C190.368 239.603 190.074 239.347 189.86 239.048H189.776C189.785 239.207 189.799 239.407 189.818 239.65C189.846 239.893 189.86 240.103 189.86 240.28V243.36H188.628V232.496H189.636L189.804 233.518H189.86C190.084 233.191 190.378 232.916 190.742 232.692C191.106 232.468 191.591 232.356 192.198 232.356ZM191.974 233.392C191.208 233.392 190.667 233.607 190.35 234.036C190.032 234.465 189.869 235.119 189.86 235.996V236.234C189.86 237.158 190.009 237.872 190.308 238.376C190.616 238.871 191.18 239.118 192.002 239.118C192.45 239.118 192.823 238.997 193.122 238.754C193.42 238.502 193.64 238.157 193.78 237.718C193.929 237.279 194.004 236.78 194.004 236.22C194.004 235.361 193.836 234.675 193.5 234.162C193.173 233.649 192.664 233.392 191.974 233.392ZM199.747 239.132C199.933 239.132 200.125 239.118 200.321 239.09C200.517 239.062 200.675 239.025 200.797 238.978V239.916C200.666 239.981 200.479 240.033 200.237 240.07C199.994 240.117 199.761 240.14 199.537 240.14C199.145 240.14 198.781 240.075 198.445 239.944C198.118 239.804 197.852 239.566 197.647 239.23C197.441 238.894 197.339 238.423 197.339 237.816V233.448H196.275V232.86L197.353 232.37L197.843 230.774H198.571V232.496H200.741V233.448H198.571V237.788C198.571 238.245 198.678 238.586 198.893 238.81C199.117 239.025 199.401 239.132 199.747 239.132ZM202.929 229.682C203.116 229.682 203.279 229.747 203.419 229.878C203.569 229.999 203.643 230.195 203.643 230.466C203.643 230.737 203.569 230.937 203.419 231.068C203.279 231.189 203.116 231.25 202.929 231.25C202.724 231.25 202.551 231.189 202.411 231.068C202.271 230.937 202.201 230.737 202.201 230.466C202.201 230.195 202.271 229.999 202.411 229.878C202.551 229.747 202.724 229.682 202.929 229.682ZM203.531 232.496V240H202.299V232.496H203.531ZM212.433 236.234C212.433 237.475 212.115 238.437 211.481 239.118C210.855 239.799 210.006 240.14 208.933 240.14C208.27 240.14 207.677 239.991 207.155 239.692C206.641 239.384 206.235 238.941 205.937 238.362C205.638 237.774 205.489 237.065 205.489 236.234C205.489 234.993 205.797 234.036 206.413 233.364C207.038 232.692 207.892 232.356 208.975 232.356C209.647 232.356 210.244 232.51 210.767 232.818C211.289 233.117 211.695 233.555 211.985 234.134C212.283 234.703 212.433 235.403 212.433 236.234ZM206.763 236.234C206.763 237.121 206.935 237.825 207.281 238.348C207.635 238.861 208.195 239.118 208.961 239.118C209.717 239.118 210.272 238.861 210.627 238.348C210.981 237.825 211.159 237.121 211.159 236.234C211.159 235.347 210.981 234.652 210.627 234.148C210.272 233.644 209.712 233.392 208.947 233.392C208.181 233.392 207.626 233.644 207.281 234.148C206.935 234.652 206.763 235.347 206.763 236.234ZM217.997 232.356C218.893 232.356 219.57 232.575 220.027 233.014C220.485 233.453 220.713 234.153 220.713 235.114V240H219.495V235.198C219.495 233.994 218.935 233.392 217.815 233.392C216.985 233.392 216.411 233.625 216.093 234.092C215.776 234.559 215.617 235.231 215.617 236.108V240H214.385V232.496H215.379L215.561 233.518H215.631C215.874 233.126 216.21 232.837 216.639 232.65C217.069 232.454 217.521 232.356 217.997 232.356ZM227.39 240L231.492 231.124H226.102V230.004H232.808V230.956L228.748 240H227.39Z" fill="black"/>
<rect x="144" y="0.5" width="140" height="253" rx="4.5" stroke="black" stroke-opacity="0.15"/>
</g>
<defs>
<filter id="filter0_d_8122_268417" x="139.5" y="0" width="149" height="262" filterUnits="userSpaceOnUse" color-interpolation-filters="sRGB">
<feFlood flood-opacity="0" result="BackgroundImageFix"/>
<feColorMatrix in="SourceAlpha" type="matrix" values="0 0 0 0 0 0 0 0 0 0 0 0 0 0 0 0 0 0 127 0" result="hardAlpha"/>
<feOffset dy="4"/>
<feGaussianBlur stdDeviation="2"/>
<feColorMatrix type="matrix" values="0 0 0 0 0 0 0 0 0 0 0 0 0 0 0 0 0 0 0.25 0"/>
<feBlend mode="normal" in2="BackgroundImageFix" result="effect1_dropShadow_8122_268417"/>
<feBlend mode="normal" in="SourceGraphic" in2="effect1_dropShadow_8122_268417" result="shape"/>
</filter>
</defs>
</svg>
