<svg width="412" height="368" viewBox="0 0 412 368" fill="none" xmlns="http://www.w3.org/2000/svg">
<rect width="412" height="368" fill="white"/>
<g filter="url(#filter0_d_7567_551355)">
<rect x="65" y="76" width="283" height="252" rx="4" fill="white"/>
<path d="M83.08 93.988C83.08 95.024 82.9027 95.9293 82.548 96.704C82.2027 97.4693 81.6847 98.0667 80.994 98.496C80.3127 98.9253 79.4727 99.14 78.474 99.14C77.438 99.14 76.5747 98.9253 75.884 98.496C75.2027 98.0667 74.694 97.4647 74.358 96.69C74.022 95.9153 73.854 95.01 73.854 93.974C73.854 92.9567 74.022 92.0653 74.358 91.3C74.694 90.5253 75.2027 89.9233 75.884 89.494C76.5747 89.0647 77.4427 88.85 78.488 88.85C79.4867 88.85 80.3267 89.0647 81.008 89.494C81.6893 89.914 82.2027 90.5113 82.548 91.286C82.9027 92.0513 83.08 92.952 83.08 93.988ZM75.184 93.988C75.184 95.248 75.45 96.242 75.982 96.97C76.514 97.6887 77.3447 98.048 78.474 98.048C79.6033 98.048 80.4293 97.6887 80.952 96.97C81.484 96.242 81.75 95.248 81.75 93.988C81.75 92.728 81.4887 91.7433 80.966 91.034C80.4433 90.3153 79.6173 89.956 78.488 89.956C77.3493 89.956 76.514 90.3153 75.982 91.034C75.45 91.7433 75.184 92.728 75.184 93.988ZM88.6975 91.356C89.6215 91.356 90.3635 91.678 90.9235 92.322C91.4928 92.966 91.7775 93.9367 91.7775 95.234C91.7775 96.5127 91.4928 97.4833 90.9235 98.146C90.3635 98.8087 89.6168 99.14 88.6835 99.14C88.1048 99.14 87.6242 99.0327 87.2415 98.818C86.8682 98.6033 86.5742 98.3467 86.3595 98.048H86.2755C86.2848 98.2067 86.2988 98.4073 86.3175 98.65C86.3455 98.8927 86.3595 99.1027 86.3595 99.28V102.36H85.1275V91.496H86.1355L86.3035 92.518H86.3595C86.5835 92.1913 86.8775 91.916 87.2415 91.692C87.6055 91.468 88.0908 91.356 88.6975 91.356ZM88.4735 92.392C87.7082 92.392 87.1668 92.6067 86.8495 93.036C86.5322 93.4653 86.3688 94.1187 86.3595 94.996V95.234C86.3595 96.158 86.5088 96.872 86.8075 97.376C87.1155 97.8707 87.6802 98.118 88.5015 98.118C88.9495 98.118 89.3228 97.9967 89.6215 97.754C89.9202 97.502 90.1395 97.1567 90.2795 96.718C90.4288 96.2793 90.5035 95.78 90.5035 95.22C90.5035 94.3613 90.3355 93.6753 89.9995 93.162C89.6728 92.6487 89.1642 92.392 88.4735 92.392ZM96.2468 98.132C96.4334 98.132 96.6248 98.118 96.8208 98.09C97.0168 98.062 97.1754 98.0247 97.2968 97.978V98.916C97.1661 98.9813 96.9794 99.0327 96.7368 99.07C96.4941 99.1167 96.2608 99.14 96.0368 99.14C95.6448 99.14 95.2808 99.0747 94.9448 98.944C94.6181 98.804 94.3521 98.566 94.1468 98.23C93.9414 97.894 93.8388 97.4227 93.8388 96.816V92.448H92.7748V91.86L93.8528 91.37L94.3428 89.774H95.0708V91.496H97.2408V92.448H95.0708V96.788C95.0708 97.2453 95.1781 97.586 95.3928 97.81C95.6168 98.0247 95.9014 98.132 96.2468 98.132ZM99.4294 88.682C99.616 88.682 99.7794 88.7473 99.9194 88.878C100.069 88.9993 100.143 89.1953 100.143 89.466C100.143 89.7367 100.069 89.9373 99.9194 90.068C99.7794 90.1893 99.616 90.25 99.4294 90.25C99.224 90.25 99.0514 90.1893 98.9114 90.068C98.7714 89.9373 98.7014 89.7367 98.7014 89.466C98.7014 89.1953 98.7714 88.9993 98.9114 88.878C99.0514 88.7473 99.224 88.682 99.4294 88.682ZM100.031 91.496V99H98.7994V91.496H100.031ZM108.933 95.234C108.933 96.4753 108.615 97.4367 107.981 98.118C107.355 98.7993 106.506 99.14 105.433 99.14C104.77 99.14 104.177 98.9907 103.655 98.692C103.141 98.384 102.735 97.9407 102.437 97.362C102.138 96.774 101.989 96.0647 101.989 95.234C101.989 93.9927 102.297 93.036 102.913 92.364C103.538 91.692 104.392 91.356 105.475 91.356C106.147 91.356 106.744 91.51 107.267 91.818C107.789 92.1167 108.195 92.5553 108.485 93.134C108.783 93.7033 108.933 94.4033 108.933 95.234ZM103.263 95.234C103.263 96.1207 103.435 96.8253 103.781 97.348C104.135 97.8613 104.695 98.118 105.461 98.118C106.217 98.118 106.772 97.8613 107.127 97.348C107.481 96.8253 107.659 96.1207 107.659 95.234C107.659 94.3473 107.481 93.652 107.127 93.148C106.772 92.644 106.212 92.392 105.447 92.392C104.681 92.392 104.126 92.644 103.781 93.148C103.435 93.652 103.263 94.3473 103.263 95.234ZM114.497 91.356C115.393 91.356 116.07 91.5753 116.527 92.014C116.985 92.4527 117.213 93.1527 117.213 94.114V99H115.995V94.198C115.995 92.994 115.435 92.392 114.315 92.392C113.485 92.392 112.911 92.6253 112.593 93.092C112.276 93.5587 112.117 94.2307 112.117 95.108V99H110.885V91.496H111.879L112.061 92.518H112.131C112.374 92.126 112.71 91.8367 113.139 91.65C113.569 91.454 114.021 91.356 114.497 91.356ZM126.956 99H125.752V92.014C125.752 91.6127 125.757 91.2907 125.766 91.048C125.776 90.8053 125.79 90.5533 125.808 90.292C125.659 90.4413 125.519 90.5673 125.388 90.67C125.267 90.7727 125.118 90.9033 124.94 91.062L123.876 91.93L123.232 91.104L125.934 89.004H126.956V99Z" fill="black"/>
<path d="M329.412 99.9625C329.312 99.9625 329.212 99.9125 329.162 99.8625C329.013 99.7125 329.013 99.4625 329.162 99.3125L334.462 94.0125L329.112 88.6625C328.963 88.5125 328.963 88.2625 329.112 88.1125C329.262 87.9625 329.512 87.9625 329.662 88.1125L335.262 93.7125C335.312 93.7625 335.362 93.8625 335.362 93.9625C335.362 94.0625 335.312 94.1625 335.262 94.2125L329.662 99.8625C329.562 99.9625 329.463 99.9625 329.412 99.9625Z" fill="black"/>
<path d="M83.08 129.988C83.08 131.024 82.9027 131.929 82.548 132.704C82.2027 133.469 81.6847 134.067 80.994 134.496C80.3127 134.925 79.4727 135.14 78.474 135.14C77.438 135.14 76.5747 134.925 75.884 134.496C75.2027 134.067 74.694 133.465 74.358 132.69C74.022 131.915 73.854 131.01 73.854 129.974C73.854 128.957 74.022 128.065 74.358 127.3C74.694 126.525 75.2027 125.923 75.884 125.494C76.5747 125.065 77.4427 124.85 78.488 124.85C79.4867 124.85 80.3267 125.065 81.008 125.494C81.6893 125.914 82.2027 126.511 82.548 127.286C82.9027 128.051 83.08 128.952 83.08 129.988ZM75.184 129.988C75.184 131.248 75.45 132.242 75.982 132.97C76.514 133.689 77.3447 134.048 78.474 134.048C79.6033 134.048 80.4293 133.689 80.952 132.97C81.484 132.242 81.75 131.248 81.75 129.988C81.75 128.728 81.4887 127.743 80.966 127.034C80.4433 126.315 79.6173 125.956 78.488 125.956C77.3493 125.956 76.514 126.315 75.982 127.034C75.45 127.743 75.184 128.728 75.184 129.988ZM88.6975 127.356C89.6215 127.356 90.3635 127.678 90.9235 128.322C91.4928 128.966 91.7775 129.937 91.7775 131.234C91.7775 132.513 91.4928 133.483 90.9235 134.146C90.3635 134.809 89.6168 135.14 88.6835 135.14C88.1048 135.14 87.6242 135.033 87.2415 134.818C86.8682 134.603 86.5742 134.347 86.3595 134.048H86.2755C86.2848 134.207 86.2988 134.407 86.3175 134.65C86.3455 134.893 86.3595 135.103 86.3595 135.28V138.36H85.1275V127.496H86.1355L86.3035 128.518H86.3595C86.5835 128.191 86.8775 127.916 87.2415 127.692C87.6055 127.468 88.0908 127.356 88.6975 127.356ZM88.4735 128.392C87.7082 128.392 87.1668 128.607 86.8495 129.036C86.5322 129.465 86.3688 130.119 86.3595 130.996V131.234C86.3595 132.158 86.5088 132.872 86.8075 133.376C87.1155 133.871 87.6802 134.118 88.5015 134.118C88.9495 134.118 89.3228 133.997 89.6215 133.754C89.9202 133.502 90.1395 133.157 90.2795 132.718C90.4288 132.279 90.5035 131.78 90.5035 131.22C90.5035 130.361 90.3355 129.675 89.9995 129.162C89.6728 128.649 89.1642 128.392 88.4735 128.392ZM96.2468 134.132C96.4334 134.132 96.6248 134.118 96.8208 134.09C97.0168 134.062 97.1754 134.025 97.2968 133.978V134.916C97.1661 134.981 96.9794 135.033 96.7368 135.07C96.4941 135.117 96.2608 135.14 96.0368 135.14C95.6448 135.14 95.2808 135.075 94.9448 134.944C94.6181 134.804 94.3521 134.566 94.1468 134.23C93.9414 133.894 93.8388 133.423 93.8388 132.816V128.448H92.7748V127.86L93.8528 127.37L94.3428 125.774H95.0708V127.496H97.2408V128.448H95.0708V132.788C95.0708 133.245 95.1781 133.586 95.3928 133.81C95.6168 134.025 95.9014 134.132 96.2468 134.132ZM99.4294 124.682C99.616 124.682 99.7794 124.747 99.9194 124.878C100.069 124.999 100.143 125.195 100.143 125.466C100.143 125.737 100.069 125.937 99.9194 126.068C99.7794 126.189 99.616 126.25 99.4294 126.25C99.224 126.25 99.0514 126.189 98.9114 126.068C98.7714 125.937 98.7014 125.737 98.7014 125.466C98.7014 125.195 98.7714 124.999 98.9114 124.878C99.0514 124.747 99.224 124.682 99.4294 124.682ZM100.031 127.496V135H98.7994V127.496H100.031ZM108.933 131.234C108.933 132.475 108.615 133.437 107.981 134.118C107.355 134.799 106.506 135.14 105.433 135.14C104.77 135.14 104.177 134.991 103.655 134.692C103.141 134.384 102.735 133.941 102.437 133.362C102.138 132.774 101.989 132.065 101.989 131.234C101.989 129.993 102.297 129.036 102.913 128.364C103.538 127.692 104.392 127.356 105.475 127.356C106.147 127.356 106.744 127.51 107.267 127.818C107.789 128.117 108.195 128.555 108.485 129.134C108.783 129.703 108.933 130.403 108.933 131.234ZM103.263 131.234C103.263 132.121 103.435 132.825 103.781 133.348C104.135 133.861 104.695 134.118 105.461 134.118C106.217 134.118 106.772 133.861 107.127 133.348C107.481 132.825 107.659 132.121 107.659 131.234C107.659 130.347 107.481 129.652 107.127 129.148C106.772 128.644 106.212 128.392 105.447 128.392C104.681 128.392 104.126 128.644 103.781 129.148C103.435 129.652 103.263 130.347 103.263 131.234ZM114.497 127.356C115.393 127.356 116.07 127.575 116.527 128.014C116.985 128.453 117.213 129.153 117.213 130.114V135H115.995V130.198C115.995 128.994 115.435 128.392 114.315 128.392C113.485 128.392 112.911 128.625 112.593 129.092C112.276 129.559 112.117 130.231 112.117 131.108V135H110.885V127.496H111.879L112.061 128.518H112.131C112.374 128.126 112.71 127.837 113.139 127.65C113.569 127.454 114.021 127.356 114.497 127.356ZM129.266 135H122.658V133.978L125.276 131.332C125.771 130.828 126.191 130.38 126.536 129.988C126.891 129.596 127.157 129.213 127.334 128.84C127.512 128.467 127.6 128.051 127.6 127.594C127.6 127.043 127.437 126.628 127.11 126.348C126.784 126.059 126.359 125.914 125.836 125.914C125.342 125.914 124.912 125.998 124.548 126.166C124.184 126.334 123.811 126.567 123.428 126.866L122.77 126.04C123.162 125.713 123.61 125.438 124.114 125.214C124.628 124.981 125.202 124.864 125.836 124.864C126.77 124.864 127.507 125.102 128.048 125.578C128.59 126.054 128.86 126.703 128.86 127.524C128.86 128.047 128.753 128.537 128.538 128.994C128.324 129.451 128.025 129.904 127.642 130.352C127.26 130.8 126.812 131.271 126.298 131.766L124.212 133.824V133.88H129.266V135Z" fill="black"/>
<path d="M329.412 135.962C329.312 135.962 329.212 135.913 329.162 135.863C329.013 135.713 329.013 135.462 329.162 135.312L334.462 130.012L329.112 124.662C328.963 124.512 328.963 124.263 329.112 124.113C329.262 123.962 329.512 123.962 329.662 124.113L335.262 129.712C335.312 129.762 335.362 129.862 335.362 129.962C335.362 130.062 335.312 130.162 335.262 130.212L329.662 135.863C329.562 135.963 329.463 135.962 329.412 135.962Z" fill="black"/>
<path d="M83.08 165.988C83.08 167.024 82.9027 167.929 82.548 168.704C82.2027 169.469 81.6847 170.067 80.994 170.496C80.3127 170.925 79.4727 171.14 78.474 171.14C77.438 171.14 76.5747 170.925 75.884 170.496C75.2027 170.067 74.694 169.465 74.358 168.69C74.022 167.915 73.854 167.01 73.854 165.974C73.854 164.957 74.022 164.065 74.358 163.3C74.694 162.525 75.2027 161.923 75.884 161.494C76.5747 161.065 77.4427 160.85 78.488 160.85C79.4867 160.85 80.3267 161.065 81.008 161.494C81.6893 161.914 82.2027 162.511 82.548 163.286C82.9027 164.051 83.08 164.952 83.08 165.988ZM75.184 165.988C75.184 167.248 75.45 168.242 75.982 168.97C76.514 169.689 77.3447 170.048 78.474 170.048C79.6033 170.048 80.4293 169.689 80.952 168.97C81.484 168.242 81.75 167.248 81.75 165.988C81.75 164.728 81.4887 163.743 80.966 163.034C80.4433 162.315 79.6173 161.956 78.488 161.956C77.3493 161.956 76.514 162.315 75.982 163.034C75.45 163.743 75.184 164.728 75.184 165.988ZM88.6975 163.356C89.6215 163.356 90.3635 163.678 90.9235 164.322C91.4928 164.966 91.7775 165.937 91.7775 167.234C91.7775 168.513 91.4928 169.483 90.9235 170.146C90.3635 170.809 89.6168 171.14 88.6835 171.14C88.1048 171.14 87.6242 171.033 87.2415 170.818C86.8682 170.603 86.5742 170.347 86.3595 170.048H86.2755C86.2848 170.207 86.2988 170.407 86.3175 170.65C86.3455 170.893 86.3595 171.103 86.3595 171.28V174.36H85.1275V163.496H86.1355L86.3035 164.518H86.3595C86.5835 164.191 86.8775 163.916 87.2415 163.692C87.6055 163.468 88.0908 163.356 88.6975 163.356ZM88.4735 164.392C87.7082 164.392 87.1668 164.607 86.8495 165.036C86.5322 165.465 86.3688 166.119 86.3595 166.996V167.234C86.3595 168.158 86.5088 168.872 86.8075 169.376C87.1155 169.871 87.6802 170.118 88.5015 170.118C88.9495 170.118 89.3228 169.997 89.6215 169.754C89.9202 169.502 90.1395 169.157 90.2795 168.718C90.4288 168.279 90.5035 167.78 90.5035 167.22C90.5035 166.361 90.3355 165.675 89.9995 165.162C89.6728 164.649 89.1642 164.392 88.4735 164.392ZM96.2468 170.132C96.4334 170.132 96.6248 170.118 96.8208 170.09C97.0168 170.062 97.1754 170.025 97.2968 169.978V170.916C97.1661 170.981 96.9794 171.033 96.7368 171.07C96.4941 171.117 96.2608 171.14 96.0368 171.14C95.6448 171.14 95.2808 171.075 94.9448 170.944C94.6181 170.804 94.3521 170.566 94.1468 170.23C93.9414 169.894 93.8388 169.423 93.8388 168.816V164.448H92.7748V163.86L93.8528 163.37L94.3428 161.774H95.0708V163.496H97.2408V164.448H95.0708V168.788C95.0708 169.245 95.1781 169.586 95.3928 169.81C95.6168 170.025 95.9014 170.132 96.2468 170.132ZM99.4294 160.682C99.616 160.682 99.7794 160.747 99.9194 160.878C100.069 160.999 100.143 161.195 100.143 161.466C100.143 161.737 100.069 161.937 99.9194 162.068C99.7794 162.189 99.616 162.25 99.4294 162.25C99.224 162.25 99.0514 162.189 98.9114 162.068C98.7714 161.937 98.7014 161.737 98.7014 161.466C98.7014 161.195 98.7714 160.999 98.9114 160.878C99.0514 160.747 99.224 160.682 99.4294 160.682ZM100.031 163.496V171H98.7994V163.496H100.031ZM108.933 167.234C108.933 168.475 108.615 169.437 107.981 170.118C107.355 170.799 106.506 171.14 105.433 171.14C104.77 171.14 104.177 170.991 103.655 170.692C103.141 170.384 102.735 169.941 102.437 169.362C102.138 168.774 101.989 168.065 101.989 167.234C101.989 165.993 102.297 165.036 102.913 164.364C103.538 163.692 104.392 163.356 105.475 163.356C106.147 163.356 106.744 163.51 107.267 163.818C107.789 164.117 108.195 164.555 108.485 165.134C108.783 165.703 108.933 166.403 108.933 167.234ZM103.263 167.234C103.263 168.121 103.435 168.825 103.781 169.348C104.135 169.861 104.695 170.118 105.461 170.118C106.217 170.118 106.772 169.861 107.127 169.348C107.481 168.825 107.659 168.121 107.659 167.234C107.659 166.347 107.481 165.652 107.127 165.148C106.772 164.644 106.212 164.392 105.447 164.392C104.681 164.392 104.126 164.644 103.781 165.148C103.435 165.652 103.263 166.347 103.263 167.234ZM114.497 163.356C115.393 163.356 116.07 163.575 116.527 164.014C116.985 164.453 117.213 165.153 117.213 166.114V171H115.995V166.198C115.995 164.994 115.435 164.392 114.315 164.392C113.485 164.392 112.911 164.625 112.593 165.092C112.276 165.559 112.117 166.231 112.117 167.108V171H110.885V163.496H111.879L112.061 164.518H112.131C112.374 164.126 112.71 163.837 113.139 163.65C113.569 163.454 114.021 163.356 114.497 163.356ZM128.888 163.342C128.888 164.014 128.697 164.551 128.314 164.952C127.941 165.344 127.442 165.605 126.816 165.736V165.792C127.61 165.885 128.202 166.137 128.594 166.548C128.996 166.959 129.196 167.495 129.196 168.158C129.196 168.746 129.061 169.264 128.79 169.712C128.52 170.16 128.1 170.51 127.53 170.762C126.97 171.014 126.247 171.14 125.36 171.14C124.838 171.14 124.352 171.098 123.904 171.014C123.456 170.939 123.027 170.799 122.616 170.594V169.446C123.036 169.661 123.489 169.824 123.974 169.936C124.46 170.048 124.926 170.104 125.374 170.104C126.27 170.104 126.914 169.931 127.306 169.586C127.708 169.231 127.908 168.746 127.908 168.13C127.908 167.505 127.661 167.057 127.166 166.786C126.681 166.506 125.995 166.366 125.108 166.366H124.142V165.316H125.122C125.944 165.316 126.564 165.143 126.984 164.798C127.414 164.453 127.628 163.995 127.628 163.426C127.628 162.941 127.465 162.567 127.138 162.306C126.812 162.035 126.368 161.9 125.808 161.9C125.267 161.9 124.805 161.979 124.422 162.138C124.04 162.297 123.662 162.497 123.288 162.74L122.672 161.9C123.027 161.62 123.466 161.377 123.988 161.172C124.52 160.967 125.122 160.864 125.794 160.864C126.84 160.864 127.614 161.097 128.118 161.564C128.632 162.031 128.888 162.623 128.888 163.342Z" fill="black"/>
<path d="M83.08 201.988C83.08 203.024 82.9027 203.929 82.548 204.704C82.2027 205.469 81.6847 206.067 80.994 206.496C80.3127 206.925 79.4727 207.14 78.474 207.14C77.438 207.14 76.5747 206.925 75.884 206.496C75.2027 206.067 74.694 205.465 74.358 204.69C74.022 203.915 73.854 203.01 73.854 201.974C73.854 200.957 74.022 200.065 74.358 199.3C74.694 198.525 75.2027 197.923 75.884 197.494C76.5747 197.065 77.4427 196.85 78.488 196.85C79.4867 196.85 80.3267 197.065 81.008 197.494C81.6893 197.914 82.2027 198.511 82.548 199.286C82.9027 200.051 83.08 200.952 83.08 201.988ZM75.184 201.988C75.184 203.248 75.45 204.242 75.982 204.97C76.514 205.689 77.3447 206.048 78.474 206.048C79.6033 206.048 80.4293 205.689 80.952 204.97C81.484 204.242 81.75 203.248 81.75 201.988C81.75 200.728 81.4887 199.743 80.966 199.034C80.4433 198.315 79.6173 197.956 78.488 197.956C77.3493 197.956 76.514 198.315 75.982 199.034C75.45 199.743 75.184 200.728 75.184 201.988ZM88.6975 199.356C89.6215 199.356 90.3635 199.678 90.9235 200.322C91.4928 200.966 91.7775 201.937 91.7775 203.234C91.7775 204.513 91.4928 205.483 90.9235 206.146C90.3635 206.809 89.6168 207.14 88.6835 207.14C88.1048 207.14 87.6242 207.033 87.2415 206.818C86.8682 206.603 86.5742 206.347 86.3595 206.048H86.2755C86.2848 206.207 86.2988 206.407 86.3175 206.65C86.3455 206.893 86.3595 207.103 86.3595 207.28V210.36H85.1275V199.496H86.1355L86.3035 200.518H86.3595C86.5835 200.191 86.8775 199.916 87.2415 199.692C87.6055 199.468 88.0908 199.356 88.6975 199.356ZM88.4735 200.392C87.7082 200.392 87.1668 200.607 86.8495 201.036C86.5322 201.465 86.3688 202.119 86.3595 202.996V203.234C86.3595 204.158 86.5088 204.872 86.8075 205.376C87.1155 205.871 87.6802 206.118 88.5015 206.118C88.9495 206.118 89.3228 205.997 89.6215 205.754C89.9202 205.502 90.1395 205.157 90.2795 204.718C90.4288 204.279 90.5035 203.78 90.5035 203.22C90.5035 202.361 90.3355 201.675 89.9995 201.162C89.6728 200.649 89.1642 200.392 88.4735 200.392ZM96.2468 206.132C96.4334 206.132 96.6248 206.118 96.8208 206.09C97.0168 206.062 97.1754 206.025 97.2968 205.978V206.916C97.1661 206.981 96.9794 207.033 96.7368 207.07C96.4941 207.117 96.2608 207.14 96.0368 207.14C95.6448 207.14 95.2808 207.075 94.9448 206.944C94.6181 206.804 94.3521 206.566 94.1468 206.23C93.9414 205.894 93.8388 205.423 93.8388 204.816V200.448H92.7748V199.86L93.8528 199.37L94.3428 197.774H95.0708V199.496H97.2408V200.448H95.0708V204.788C95.0708 205.245 95.1781 205.586 95.3928 205.81C95.6168 206.025 95.9014 206.132 96.2468 206.132ZM99.4294 196.682C99.616 196.682 99.7794 196.747 99.9194 196.878C100.069 196.999 100.143 197.195 100.143 197.466C100.143 197.737 100.069 197.937 99.9194 198.068C99.7794 198.189 99.616 198.25 99.4294 198.25C99.224 198.25 99.0514 198.189 98.9114 198.068C98.7714 197.937 98.7014 197.737 98.7014 197.466C98.7014 197.195 98.7714 196.999 98.9114 196.878C99.0514 196.747 99.224 196.682 99.4294 196.682ZM100.031 199.496V207H98.7994V199.496H100.031ZM108.933 203.234C108.933 204.475 108.615 205.437 107.981 206.118C107.355 206.799 106.506 207.14 105.433 207.14C104.77 207.14 104.177 206.991 103.655 206.692C103.141 206.384 102.735 205.941 102.437 205.362C102.138 204.774 101.989 204.065 101.989 203.234C101.989 201.993 102.297 201.036 102.913 200.364C103.538 199.692 104.392 199.356 105.475 199.356C106.147 199.356 106.744 199.51 107.267 199.818C107.789 200.117 108.195 200.555 108.485 201.134C108.783 201.703 108.933 202.403 108.933 203.234ZM103.263 203.234C103.263 204.121 103.435 204.825 103.781 205.348C104.135 205.861 104.695 206.118 105.461 206.118C106.217 206.118 106.772 205.861 107.127 205.348C107.481 204.825 107.659 204.121 107.659 203.234C107.659 202.347 107.481 201.652 107.127 201.148C106.772 200.644 106.212 200.392 105.447 200.392C104.681 200.392 104.126 200.644 103.781 201.148C103.435 201.652 103.263 202.347 103.263 203.234ZM114.497 199.356C115.393 199.356 116.07 199.575 116.527 200.014C116.985 200.453 117.213 201.153 117.213 202.114V207H115.995V202.198C115.995 200.994 115.435 200.392 114.315 200.392C113.485 200.392 112.911 200.625 112.593 201.092C112.276 201.559 112.117 202.231 112.117 203.108V207H110.885V199.496H111.879L112.061 200.518H112.131C112.374 200.126 112.71 199.837 113.139 199.65C113.569 199.454 114.021 199.356 114.497 199.356ZM129.714 204.732H128.258V207H127.068V204.732H122.28V203.682L126.984 196.948H128.258V203.626H129.714V204.732ZM127.068 203.626V200.476C127.068 199.991 127.073 199.58 127.082 199.244C127.101 198.899 127.12 198.572 127.138 198.264H127.082C127.008 198.441 126.914 198.633 126.802 198.838C126.69 199.043 126.583 199.216 126.48 199.356L123.484 203.626H127.068ZM140.957 206.986L139.669 202.758C139.547 202.375 139.44 202.002 139.347 201.638C139.253 201.274 139.188 200.985 139.151 200.77H139.095C139.057 200.985 138.997 201.274 138.913 201.638C138.829 202.002 138.721 202.38 138.591 202.772L137.247 206.986H135.847L133.789 199.482H135.063L136.099 203.486C136.201 203.887 136.299 204.293 136.393 204.704C136.486 205.115 136.551 205.455 136.589 205.726H136.645C136.673 205.567 136.715 205.371 136.771 205.138C136.827 204.905 136.887 204.662 136.953 204.41C137.018 204.149 137.083 203.915 137.149 203.71L138.479 199.482H139.823L141.111 203.71C141.204 204.037 141.302 204.387 141.405 204.76C141.507 205.133 141.577 205.451 141.615 205.712H141.671C141.699 205.479 141.759 205.157 141.853 204.746C141.955 204.335 142.063 203.915 142.175 203.486L143.225 199.482H144.485L142.399 206.986H140.957ZM146.461 196.682C146.647 196.682 146.811 196.747 146.951 196.878C147.1 196.999 147.175 197.195 147.175 197.466C147.175 197.737 147.1 197.937 146.951 198.068C146.811 198.189 146.647 198.25 146.461 198.25C146.255 198.25 146.083 198.189 145.943 198.068C145.803 197.937 145.733 197.737 145.733 197.466C145.733 197.195 145.803 196.999 145.943 196.878C146.083 196.747 146.255 196.682 146.461 196.682ZM147.063 199.496V207H145.831V199.496H147.063ZM151.946 206.132C152.133 206.132 152.324 206.118 152.52 206.09C152.716 206.062 152.875 206.025 152.996 205.978V206.916C152.865 206.981 152.679 207.033 152.436 207.07C152.193 207.117 151.96 207.14 151.736 207.14C151.344 207.14 150.98 207.075 150.644 206.944C150.317 206.804 150.051 206.566 149.846 206.23C149.641 205.894 149.538 205.423 149.538 204.816V200.448H148.474V199.86L149.552 199.37L150.042 197.774H150.77V199.496H152.94V200.448H150.77V204.788C150.77 205.245 150.877 205.586 151.092 205.81C151.316 206.025 151.601 206.132 151.946 206.132ZM155.731 196.36V199.482C155.731 199.855 155.707 200.205 155.661 200.532H155.745C155.987 200.149 156.314 199.86 156.725 199.664C157.145 199.468 157.597 199.37 158.083 199.37C158.988 199.37 159.669 199.589 160.127 200.028C160.593 200.457 160.827 201.153 160.827 202.114V207H159.609V202.198C159.609 200.994 159.049 200.392 157.929 200.392C157.089 200.392 156.51 200.63 156.193 201.106C155.885 201.573 155.731 202.245 155.731 203.122V207H154.499V196.36H155.731ZM169.632 199.37C170.546 199.37 171.223 199.571 171.662 199.972C172.1 200.373 172.32 201.013 172.32 201.89V207H171.424L171.186 205.936H171.13C170.803 206.347 170.458 206.65 170.094 206.846C169.73 207.042 169.235 207.14 168.61 207.14C167.928 207.14 167.364 206.963 166.916 206.608C166.468 206.244 166.244 205.679 166.244 204.914C166.244 204.167 166.538 203.593 167.126 203.192C167.714 202.781 168.619 202.557 169.842 202.52L171.116 202.478V202.03C171.116 201.405 170.98 200.971 170.71 200.728C170.439 200.485 170.056 200.364 169.562 200.364C169.17 200.364 168.796 200.425 168.442 200.546C168.087 200.658 167.756 200.789 167.448 200.938L167.07 200.014C167.396 199.837 167.784 199.687 168.232 199.566C168.68 199.435 169.146 199.37 169.632 199.37ZM171.102 203.332L169.996 203.374C169.062 203.411 168.414 203.561 168.05 203.822C167.695 204.083 167.518 204.452 167.518 204.928C167.518 205.348 167.644 205.656 167.896 205.852C168.157 206.048 168.488 206.146 168.89 206.146C169.515 206.146 170.038 205.973 170.458 205.628C170.887 205.273 171.102 204.732 171.102 204.004V203.332ZM179.506 207H178.274V196.36H179.506V207ZM188.407 203.234C188.407 204.475 188.09 205.437 187.455 206.118C186.83 206.799 185.981 207.14 184.907 207.14C184.245 207.14 183.652 206.991 183.129 206.692C182.616 206.384 182.21 205.941 181.911 205.362C181.613 204.774 181.463 204.065 181.463 203.234C181.463 201.993 181.771 201.036 182.387 200.364C183.013 199.692 183.867 199.356 184.949 199.356C185.621 199.356 186.219 199.51 186.741 199.818C187.264 200.117 187.67 200.555 187.959 201.134C188.258 201.703 188.407 202.403 188.407 203.234ZM182.737 203.234C182.737 204.121 182.91 204.825 183.255 205.348C183.61 205.861 184.17 206.118 184.935 206.118C185.691 206.118 186.247 205.861 186.601 205.348C186.956 204.825 187.133 204.121 187.133 203.234C187.133 202.347 186.956 201.652 186.601 201.148C186.247 200.644 185.687 200.392 184.921 200.392C184.156 200.392 183.601 200.644 183.255 201.148C182.91 201.652 182.737 202.347 182.737 203.234ZM193.972 199.356C194.868 199.356 195.545 199.575 196.002 200.014C196.459 200.453 196.688 201.153 196.688 202.114V207H195.47V202.198C195.47 200.994 194.91 200.392 193.79 200.392C192.959 200.392 192.385 200.625 192.068 201.092C191.751 201.559 191.592 202.231 191.592 203.108V207H190.36V199.496H191.354L191.536 200.518H191.606C191.849 200.126 192.185 199.837 192.614 199.65C193.043 199.454 193.496 199.356 193.972 199.356ZM201.674 199.356C202.169 199.356 202.612 199.449 203.004 199.636C203.406 199.823 203.746 200.107 204.026 200.49H204.096L204.264 199.496H205.244V207.126C205.244 208.199 204.969 209.007 204.418 209.548C203.877 210.089 203.032 210.36 201.884 210.36C200.783 210.36 199.882 210.201 199.182 209.884V208.75C199.92 209.142 200.844 209.338 201.954 209.338C202.598 209.338 203.102 209.147 203.466 208.764C203.84 208.391 204.026 207.877 204.026 207.224V206.93C204.026 206.818 204.031 206.659 204.04 206.454C204.05 206.239 204.059 206.09 204.068 206.006H204.012C203.508 206.762 202.734 207.14 201.688 207.14C200.718 207.14 199.957 206.799 199.406 206.118C198.865 205.437 198.594 204.485 198.594 203.262C198.594 202.067 198.865 201.12 199.406 200.42C199.957 199.711 200.713 199.356 201.674 199.356ZM201.842 200.392C201.217 200.392 200.732 200.644 200.386 201.148C200.041 201.643 199.868 202.352 199.868 203.276C199.868 204.2 200.036 204.909 200.372 205.404C200.708 205.889 201.208 206.132 201.87 206.132C202.626 206.132 203.177 205.931 203.522 205.53C203.868 205.119 204.04 204.461 204.04 203.556V203.262C204.04 202.245 203.863 201.512 203.508 201.064C203.154 200.616 202.598 200.392 201.842 200.392ZM216.15 204.928C216.15 205.656 215.88 206.207 215.338 206.58C214.797 206.953 214.069 207.14 213.154 207.14C212.632 207.14 212.179 207.098 211.796 207.014C211.423 206.93 211.092 206.813 210.802 206.664V205.544C211.101 205.693 211.46 205.833 211.88 205.964C212.31 206.085 212.744 206.146 213.182 206.146C213.808 206.146 214.26 206.048 214.54 205.852C214.82 205.647 214.96 205.376 214.96 205.04C214.96 204.853 214.909 204.685 214.806 204.536C214.704 204.387 214.517 204.237 214.246 204.088C213.985 203.939 213.607 203.771 213.112 203.584C212.627 203.397 212.212 203.211 211.866 203.024C211.521 202.837 211.255 202.613 211.068 202.352C210.882 202.091 210.788 201.755 210.788 201.344C210.788 200.709 211.045 200.219 211.558 199.874C212.081 199.529 212.762 199.356 213.602 199.356C214.06 199.356 214.484 199.403 214.876 199.496C215.278 199.589 215.651 199.711 215.996 199.86L215.576 200.84C215.259 200.709 214.928 200.597 214.582 200.504C214.237 200.411 213.882 200.364 213.518 200.364C213.014 200.364 212.627 200.448 212.356 200.616C212.095 200.775 211.964 200.994 211.964 201.274C211.964 201.489 212.025 201.666 212.146 201.806C212.268 201.946 212.468 202.086 212.748 202.226C213.038 202.366 213.42 202.525 213.896 202.702C214.372 202.879 214.778 203.061 215.114 203.248C215.45 203.435 215.707 203.663 215.884 203.934C216.062 204.195 216.15 204.527 216.15 204.928ZM220.469 206.132C220.656 206.132 220.847 206.118 221.043 206.09C221.239 206.062 221.398 206.025 221.519 205.978V206.916C221.389 206.981 221.202 207.033 220.959 207.07C220.717 207.117 220.483 207.14 220.259 207.14C219.867 207.14 219.503 207.075 219.167 206.944C218.841 206.804 218.575 206.566 218.369 206.23C218.164 205.894 218.061 205.423 218.061 204.816V200.448H216.997V199.86L218.075 199.37L218.565 197.774H219.293V199.496H221.463V200.448H219.293V204.788C219.293 205.245 219.401 205.586 219.615 205.81C219.839 206.025 220.124 206.132 220.469 206.132ZM226.522 199.356C226.662 199.356 226.811 199.365 226.97 199.384C227.129 199.393 227.273 199.412 227.404 199.44L227.25 200.574C227.129 200.546 226.993 200.523 226.844 200.504C226.695 200.485 226.559 200.476 226.438 200.476C226.055 200.476 225.696 200.583 225.36 200.798C225.024 201.003 224.753 201.297 224.548 201.68C224.352 202.053 224.254 202.492 224.254 202.996V207H223.022V199.496H224.03L224.17 200.868H224.226C224.459 200.457 224.767 200.103 225.15 199.804C225.542 199.505 225.999 199.356 226.522 199.356ZM229.435 196.682C229.622 196.682 229.785 196.747 229.925 196.878C230.075 196.999 230.149 197.195 230.149 197.466C230.149 197.737 230.075 197.937 229.925 198.068C229.785 198.189 229.622 198.25 229.435 198.25C229.23 198.25 229.057 198.189 228.917 198.068C228.777 197.937 228.707 197.737 228.707 197.466C228.707 197.195 228.777 196.999 228.917 196.878C229.057 196.747 229.23 196.682 229.435 196.682ZM230.037 199.496V207H228.805V199.496H230.037ZM236.027 199.356C236.923 199.356 237.599 199.575 238.057 200.014C238.514 200.453 238.743 201.153 238.743 202.114V207H237.525V202.198C237.525 200.994 236.965 200.392 235.845 200.392C235.014 200.392 234.44 200.625 234.123 201.092C233.805 201.559 233.647 202.231 233.647 203.108V207H232.415V199.496H233.409L233.591 200.518H233.661C233.903 200.126 234.239 199.837 234.669 199.65C235.098 199.454 235.551 199.356 236.027 199.356ZM243.729 199.356C244.224 199.356 244.667 199.449 245.059 199.636C245.46 199.823 245.801 200.107 246.081 200.49H246.151L246.319 199.496H247.299V207.126C247.299 208.199 247.024 209.007 246.473 209.548C245.932 210.089 245.087 210.36 243.939 210.36C242.838 210.36 241.937 210.201 241.237 209.884V208.75C241.974 209.142 242.898 209.338 244.009 209.338C244.653 209.338 245.157 209.147 245.521 208.764C245.894 208.391 246.081 207.877 246.081 207.224V206.93C246.081 206.818 246.086 206.659 246.095 206.454C246.104 206.239 246.114 206.09 246.123 206.006H246.067C245.563 206.762 244.788 207.14 243.743 207.14C242.772 207.14 242.012 206.799 241.461 206.118C240.92 205.437 240.649 204.485 240.649 203.262C240.649 202.067 240.92 201.12 241.461 200.42C242.012 199.711 242.768 199.356 243.729 199.356ZM243.897 200.392C243.272 200.392 242.786 200.644 242.441 201.148C242.096 201.643 241.923 202.352 241.923 203.276C241.923 204.2 242.091 204.909 242.427 205.404C242.763 205.889 243.262 206.132 243.925 206.132C244.681 206.132 245.232 205.931 245.577 205.53C245.922 205.119 246.095 204.461 246.095 203.556V203.262C246.095 202.245 245.918 201.512 245.563 201.064C245.208 200.616 244.653 200.392 243.897 200.392ZM259.843 203.234C259.843 204.475 259.526 205.437 258.891 206.118C258.266 206.799 257.416 207.14 256.343 207.14C255.68 207.14 255.088 206.991 254.565 206.692C254.052 206.384 253.646 205.941 253.347 205.362C253.048 204.774 252.899 204.065 252.899 203.234C252.899 201.993 253.207 201.036 253.823 200.364C254.448 199.692 255.302 199.356 256.385 199.356C257.057 199.356 257.654 199.51 258.177 199.818C258.7 200.117 259.106 200.555 259.395 201.134C259.694 201.703 259.843 202.403 259.843 203.234ZM254.173 203.234C254.173 204.121 254.346 204.825 254.691 205.348C255.046 205.861 255.606 206.118 256.371 206.118C257.127 206.118 257.682 205.861 258.037 205.348C258.392 204.825 258.569 204.121 258.569 203.234C258.569 202.347 258.392 201.652 258.037 201.148C257.682 200.644 257.122 200.392 256.357 200.392C255.592 200.392 255.036 200.644 254.691 201.148C254.346 201.652 254.173 202.347 254.173 203.234ZM265.253 200.448H263.363V207H262.131V200.448H260.815V199.874L262.131 199.454V199.02C262.131 198.049 262.341 197.354 262.761 196.934C263.191 196.505 263.793 196.29 264.567 196.29C264.857 196.29 265.127 196.318 265.379 196.374C265.631 196.421 265.846 196.477 266.023 196.542L265.701 197.508C265.552 197.461 265.379 197.415 265.183 197.368C264.987 197.321 264.787 197.298 264.581 197.298C264.171 197.298 263.863 197.438 263.657 197.718C263.461 197.989 263.363 198.418 263.363 199.006V199.496H265.253V200.448ZM272.751 206.132C272.937 206.132 273.129 206.118 273.325 206.09C273.521 206.062 273.679 206.025 273.801 205.978V206.916C273.67 206.981 273.483 207.033 273.241 207.07C272.998 207.117 272.765 207.14 272.541 207.14C272.149 207.14 271.785 207.075 271.449 206.944C271.122 206.804 270.856 206.566 270.651 206.23C270.445 205.894 270.343 205.423 270.343 204.816V200.448H269.279V199.86L270.357 199.37L270.847 197.774H271.575V199.496H273.745V200.448H271.575V204.788C271.575 205.245 271.682 205.586 271.897 205.81C272.121 206.025 272.405 206.132 272.751 206.132ZM278.201 199.356C278.836 199.356 279.387 199.496 279.853 199.776C280.32 200.056 280.675 200.453 280.917 200.966C281.169 201.47 281.295 202.063 281.295 202.744V203.486H276.157C276.176 204.335 276.391 204.984 276.801 205.432C277.221 205.871 277.805 206.09 278.551 206.09C279.027 206.09 279.447 206.048 279.811 205.964C280.185 205.871 280.567 205.74 280.959 205.572V206.65C280.577 206.818 280.199 206.939 279.825 207.014C279.452 207.098 279.009 207.14 278.495 207.14C277.777 207.14 277.147 206.995 276.605 206.706C276.064 206.417 275.639 205.987 275.331 205.418C275.033 204.849 274.883 204.144 274.883 203.304C274.883 202.483 275.019 201.778 275.289 201.19C275.569 200.602 275.957 200.149 276.451 199.832C276.955 199.515 277.539 199.356 278.201 199.356ZM278.187 200.364C277.599 200.364 277.133 200.555 276.787 200.938C276.451 201.311 276.251 201.834 276.185 202.506H280.007C279.998 201.871 279.849 201.358 279.559 200.966C279.27 200.565 278.813 200.364 278.187 200.364ZM284.71 203.164L282.12 199.496H283.52L285.452 202.324L287.37 199.496H288.756L286.166 203.164L288.896 207H287.496L285.452 204.004L283.38 207H281.994L284.71 203.164ZM292.848 206.132C293.035 206.132 293.226 206.118 293.422 206.09C293.618 206.062 293.777 206.025 293.898 205.978V206.916C293.768 206.981 293.581 207.033 293.338 207.07C293.096 207.117 292.862 207.14 292.638 207.14C292.246 207.14 291.882 207.075 291.546 206.944C291.22 206.804 290.954 206.566 290.748 206.23C290.543 205.894 290.44 205.423 290.44 204.816V200.448H289.376V199.86L290.454 199.37L290.944 197.774H291.672V199.496H293.842V200.448H291.672V204.788C291.672 205.245 291.78 205.586 291.994 205.81C292.218 206.025 292.503 206.132 292.848 206.132Z" fill="black"/>
<path d="M83.08 237.988C83.08 239.024 82.9027 239.929 82.548 240.704C82.2027 241.469 81.6847 242.067 80.994 242.496C80.3127 242.925 79.4727 243.14 78.474 243.14C77.438 243.14 76.5747 242.925 75.884 242.496C75.2027 242.067 74.694 241.465 74.358 240.69C74.022 239.915 73.854 239.01 73.854 237.974C73.854 236.957 74.022 236.065 74.358 235.3C74.694 234.525 75.2027 233.923 75.884 233.494C76.5747 233.065 77.4427 232.85 78.488 232.85C79.4867 232.85 80.3267 233.065 81.008 233.494C81.6893 233.914 82.2027 234.511 82.548 235.286C82.9027 236.051 83.08 236.952 83.08 237.988ZM75.184 237.988C75.184 239.248 75.45 240.242 75.982 240.97C76.514 241.689 77.3447 242.048 78.474 242.048C79.6033 242.048 80.4293 241.689 80.952 240.97C81.484 240.242 81.75 239.248 81.75 237.988C81.75 236.728 81.4887 235.743 80.966 235.034C80.4433 234.315 79.6173 233.956 78.488 233.956C77.3493 233.956 76.514 234.315 75.982 235.034C75.45 235.743 75.184 236.728 75.184 237.988ZM88.6975 235.356C89.6215 235.356 90.3635 235.678 90.9235 236.322C91.4928 236.966 91.7775 237.937 91.7775 239.234C91.7775 240.513 91.4928 241.483 90.9235 242.146C90.3635 242.809 89.6168 243.14 88.6835 243.14C88.1048 243.14 87.6242 243.033 87.2415 242.818C86.8682 242.603 86.5742 242.347 86.3595 242.048H86.2755C86.2848 242.207 86.2988 242.407 86.3175 242.65C86.3455 242.893 86.3595 243.103 86.3595 243.28V246.36H85.1275V235.496H86.1355L86.3035 236.518H86.3595C86.5835 236.191 86.8775 235.916 87.2415 235.692C87.6055 235.468 88.0908 235.356 88.6975 235.356ZM88.4735 236.392C87.7082 236.392 87.1668 236.607 86.8495 237.036C86.5322 237.465 86.3688 238.119 86.3595 238.996V239.234C86.3595 240.158 86.5088 240.872 86.8075 241.376C87.1155 241.871 87.6802 242.118 88.5015 242.118C88.9495 242.118 89.3228 241.997 89.6215 241.754C89.9202 241.502 90.1395 241.157 90.2795 240.718C90.4288 240.279 90.5035 239.78 90.5035 239.22C90.5035 238.361 90.3355 237.675 89.9995 237.162C89.6728 236.649 89.1642 236.392 88.4735 236.392ZM96.2468 242.132C96.4334 242.132 96.6248 242.118 96.8208 242.09C97.0168 242.062 97.1754 242.025 97.2968 241.978V242.916C97.1661 242.981 96.9794 243.033 96.7368 243.07C96.4941 243.117 96.2608 243.14 96.0368 243.14C95.6448 243.14 95.2808 243.075 94.9448 242.944C94.6181 242.804 94.3521 242.566 94.1468 242.23C93.9414 241.894 93.8388 241.423 93.8388 240.816V236.448H92.7748V235.86L93.8528 235.37L94.3428 233.774H95.0708V235.496H97.2408V236.448H95.0708V240.788C95.0708 241.245 95.1781 241.586 95.3928 241.81C95.6168 242.025 95.9014 242.132 96.2468 242.132ZM99.4294 232.682C99.616 232.682 99.7794 232.747 99.9194 232.878C100.069 232.999 100.143 233.195 100.143 233.466C100.143 233.737 100.069 233.937 99.9194 234.068C99.7794 234.189 99.616 234.25 99.4294 234.25C99.224 234.25 99.0514 234.189 98.9114 234.068C98.7714 233.937 98.7014 233.737 98.7014 233.466C98.7014 233.195 98.7714 232.999 98.9114 232.878C99.0514 232.747 99.224 232.682 99.4294 232.682ZM100.031 235.496V243H98.7994V235.496H100.031ZM108.933 239.234C108.933 240.475 108.615 241.437 107.981 242.118C107.355 242.799 106.506 243.14 105.433 243.14C104.77 243.14 104.177 242.991 103.655 242.692C103.141 242.384 102.735 241.941 102.437 241.362C102.138 240.774 101.989 240.065 101.989 239.234C101.989 237.993 102.297 237.036 102.913 236.364C103.538 235.692 104.392 235.356 105.475 235.356C106.147 235.356 106.744 235.51 107.267 235.818C107.789 236.117 108.195 236.555 108.485 237.134C108.783 237.703 108.933 238.403 108.933 239.234ZM103.263 239.234C103.263 240.121 103.435 240.825 103.781 241.348C104.135 241.861 104.695 242.118 105.461 242.118C106.217 242.118 106.772 241.861 107.127 241.348C107.481 240.825 107.659 240.121 107.659 239.234C107.659 238.347 107.481 237.652 107.127 237.148C106.772 236.644 106.212 236.392 105.447 236.392C104.681 236.392 104.126 236.644 103.781 237.148C103.435 237.652 103.263 238.347 103.263 239.234ZM114.497 235.356C115.393 235.356 116.07 235.575 116.527 236.014C116.985 236.453 117.213 237.153 117.213 238.114V243H115.995V238.198C115.995 236.994 115.435 236.392 114.315 236.392C113.485 236.392 112.911 236.625 112.593 237.092C112.276 237.559 112.117 238.231 112.117 239.108V243H110.885V235.496H111.879L112.061 236.518H112.131C112.374 236.126 112.71 235.837 113.139 235.65C113.569 235.454 114.021 235.356 114.497 235.356ZM125.836 236.868C126.854 236.868 127.666 237.125 128.272 237.638C128.888 238.151 129.196 238.875 129.196 239.808C129.196 240.844 128.865 241.661 128.202 242.258C127.549 242.846 126.634 243.14 125.458 243.14C124.936 243.14 124.45 243.093 124.002 243C123.554 242.907 123.176 242.771 122.868 242.594V241.432C123.204 241.637 123.61 241.801 124.086 241.922C124.572 242.034 125.034 242.09 125.472 242.09C126.21 242.09 126.802 241.917 127.25 241.572C127.708 241.217 127.936 240.671 127.936 239.934C127.936 239.281 127.736 238.781 127.334 238.436C126.933 238.081 126.298 237.904 125.43 237.904C125.169 237.904 124.87 237.927 124.534 237.974C124.198 238.021 123.928 238.067 123.722 238.114L123.106 237.722L123.484 233.004H128.496V234.124H124.534L124.296 237.022C124.455 236.994 124.67 236.961 124.94 236.924C125.211 236.887 125.51 236.868 125.836 236.868Z" fill="black"/>
<path d="M83.08 273.988C83.08 275.024 82.9027 275.929 82.548 276.704C82.2027 277.469 81.6847 278.067 80.994 278.496C80.3127 278.925 79.4727 279.14 78.474 279.14C77.438 279.14 76.5747 278.925 75.884 278.496C75.2027 278.067 74.694 277.465 74.358 276.69C74.022 275.915 73.854 275.01 73.854 273.974C73.854 272.957 74.022 272.065 74.358 271.3C74.694 270.525 75.2027 269.923 75.884 269.494C76.5747 269.065 77.4427 268.85 78.488 268.85C79.4867 268.85 80.3267 269.065 81.008 269.494C81.6893 269.914 82.2027 270.511 82.548 271.286C82.9027 272.051 83.08 272.952 83.08 273.988ZM75.184 273.988C75.184 275.248 75.45 276.242 75.982 276.97C76.514 277.689 77.3447 278.048 78.474 278.048C79.6033 278.048 80.4293 277.689 80.952 276.97C81.484 276.242 81.75 275.248 81.75 273.988C81.75 272.728 81.4887 271.743 80.966 271.034C80.4433 270.315 79.6173 269.956 78.488 269.956C77.3493 269.956 76.514 270.315 75.982 271.034C75.45 271.743 75.184 272.728 75.184 273.988ZM88.6975 271.356C89.6215 271.356 90.3635 271.678 90.9235 272.322C91.4928 272.966 91.7775 273.937 91.7775 275.234C91.7775 276.513 91.4928 277.483 90.9235 278.146C90.3635 278.809 89.6168 279.14 88.6835 279.14C88.1048 279.14 87.6242 279.033 87.2415 278.818C86.8682 278.603 86.5742 278.347 86.3595 278.048H86.2755C86.2848 278.207 86.2988 278.407 86.3175 278.65C86.3455 278.893 86.3595 279.103 86.3595 279.28V282.36H85.1275V271.496H86.1355L86.3035 272.518H86.3595C86.5835 272.191 86.8775 271.916 87.2415 271.692C87.6055 271.468 88.0908 271.356 88.6975 271.356ZM88.4735 272.392C87.7082 272.392 87.1668 272.607 86.8495 273.036C86.5322 273.465 86.3688 274.119 86.3595 274.996V275.234C86.3595 276.158 86.5088 276.872 86.8075 277.376C87.1155 277.871 87.6802 278.118 88.5015 278.118C88.9495 278.118 89.3228 277.997 89.6215 277.754C89.9202 277.502 90.1395 277.157 90.2795 276.718C90.4288 276.279 90.5035 275.78 90.5035 275.22C90.5035 274.361 90.3355 273.675 89.9995 273.162C89.6728 272.649 89.1642 272.392 88.4735 272.392ZM96.2468 278.132C96.4334 278.132 96.6248 278.118 96.8208 278.09C97.0168 278.062 97.1754 278.025 97.2968 277.978V278.916C97.1661 278.981 96.9794 279.033 96.7368 279.07C96.4941 279.117 96.2608 279.14 96.0368 279.14C95.6448 279.14 95.2808 279.075 94.9448 278.944C94.6181 278.804 94.3521 278.566 94.1468 278.23C93.9414 277.894 93.8388 277.423 93.8388 276.816V272.448H92.7748V271.86L93.8528 271.37L94.3428 269.774H95.0708V271.496H97.2408V272.448H95.0708V276.788C95.0708 277.245 95.1781 277.586 95.3928 277.81C95.6168 278.025 95.9014 278.132 96.2468 278.132ZM99.4294 268.682C99.616 268.682 99.7794 268.747 99.9194 268.878C100.069 268.999 100.143 269.195 100.143 269.466C100.143 269.737 100.069 269.937 99.9194 270.068C99.7794 270.189 99.616 270.25 99.4294 270.25C99.224 270.25 99.0514 270.189 98.9114 270.068C98.7714 269.937 98.7014 269.737 98.7014 269.466C98.7014 269.195 98.7714 268.999 98.9114 268.878C99.0514 268.747 99.224 268.682 99.4294 268.682ZM100.031 271.496V279H98.7994V271.496H100.031ZM108.933 275.234C108.933 276.475 108.615 277.437 107.981 278.118C107.355 278.799 106.506 279.14 105.433 279.14C104.77 279.14 104.177 278.991 103.655 278.692C103.141 278.384 102.735 277.941 102.437 277.362C102.138 276.774 101.989 276.065 101.989 275.234C101.989 273.993 102.297 273.036 102.913 272.364C103.538 271.692 104.392 271.356 105.475 271.356C106.147 271.356 106.744 271.51 107.267 271.818C107.789 272.117 108.195 272.555 108.485 273.134C108.783 273.703 108.933 274.403 108.933 275.234ZM103.263 275.234C103.263 276.121 103.435 276.825 103.781 277.348C104.135 277.861 104.695 278.118 105.461 278.118C106.217 278.118 106.772 277.861 107.127 277.348C107.481 276.825 107.659 276.121 107.659 275.234C107.659 274.347 107.481 273.652 107.127 273.148C106.772 272.644 106.212 272.392 105.447 272.392C104.681 272.392 104.126 272.644 103.781 273.148C103.435 273.652 103.263 274.347 103.263 275.234ZM114.497 271.356C115.393 271.356 116.07 271.575 116.527 272.014C116.985 272.453 117.213 273.153 117.213 274.114V279H115.995V274.198C115.995 272.994 115.435 272.392 114.315 272.392C113.485 272.392 112.911 272.625 112.593 273.092C112.276 273.559 112.117 274.231 112.117 275.108V279H110.885V271.496H111.879L112.061 272.518H112.131C112.374 272.126 112.71 271.837 113.139 271.65C113.569 271.454 114.021 271.356 114.497 271.356ZM122.756 274.73C122.756 274.011 122.817 273.307 122.938 272.616C123.069 271.916 123.298 271.286 123.624 270.726C123.96 270.157 124.427 269.704 125.024 269.368C125.622 269.032 126.392 268.864 127.334 268.864C127.53 268.864 127.745 268.873 127.978 268.892C128.221 268.911 128.417 268.943 128.566 268.99V270.04C128.398 269.984 128.207 269.942 127.992 269.914C127.778 269.886 127.568 269.872 127.362 269.872C126.718 269.872 126.182 269.979 125.752 270.194C125.323 270.409 124.982 270.703 124.73 271.076C124.488 271.449 124.31 271.879 124.198 272.364C124.086 272.849 124.016 273.367 123.988 273.918H124.072C124.287 273.591 124.586 273.316 124.968 273.092C125.351 272.859 125.841 272.742 126.438 272.742C127.306 272.742 128.006 273.008 128.538 273.54C129.07 274.063 129.336 274.809 129.336 275.78C129.336 276.825 129.047 277.647 128.468 278.244C127.899 278.841 127.129 279.14 126.158 279.14C125.524 279.14 124.95 278.981 124.436 278.664C123.923 278.347 123.512 277.861 123.204 277.208C122.906 276.555 122.756 275.729 122.756 274.73ZM126.144 278.104C126.732 278.104 127.208 277.917 127.572 277.544C127.936 277.161 128.118 276.573 128.118 275.78C128.118 275.145 127.955 274.641 127.628 274.268C127.311 273.895 126.83 273.708 126.186 273.708C125.748 273.708 125.365 273.801 125.038 273.988C124.712 274.165 124.455 274.399 124.268 274.688C124.091 274.968 124.002 275.253 124.002 275.542C124.002 275.943 124.082 276.345 124.24 276.746C124.399 277.138 124.637 277.465 124.954 277.726C125.272 277.978 125.668 278.104 126.144 278.104Z" fill="black"/>
<path d="M329.412 279.962C329.312 279.962 329.212 279.913 329.162 279.863C329.013 279.713 329.013 279.462 329.162 279.312L334.462 274.012L329.112 268.662C328.963 268.512 328.963 268.263 329.112 268.113C329.262 267.962 329.512 267.962 329.662 268.113L335.262 273.712C335.312 273.762 335.362 273.862 335.362 273.962C335.362 274.062 335.312 274.162 335.262 274.212L329.662 279.863C329.562 279.963 329.463 279.962 329.412 279.962Z" fill="black"/>
<path d="M83.08 309.988C83.08 311.024 82.9027 311.929 82.548 312.704C82.2027 313.469 81.6847 314.067 80.994 314.496C80.3127 314.925 79.4727 315.14 78.474 315.14C77.438 315.14 76.5747 314.925 75.884 314.496C75.2027 314.067 74.694 313.465 74.358 312.69C74.022 311.915 73.854 311.01 73.854 309.974C73.854 308.957 74.022 308.065 74.358 307.3C74.694 306.525 75.2027 305.923 75.884 305.494C76.5747 305.065 77.4427 304.85 78.488 304.85C79.4867 304.85 80.3267 305.065 81.008 305.494C81.6893 305.914 82.2027 306.511 82.548 307.286C82.9027 308.051 83.08 308.952 83.08 309.988ZM75.184 309.988C75.184 311.248 75.45 312.242 75.982 312.97C76.514 313.689 77.3447 314.048 78.474 314.048C79.6033 314.048 80.4293 313.689 80.952 312.97C81.484 312.242 81.75 311.248 81.75 309.988C81.75 308.728 81.4887 307.743 80.966 307.034C80.4433 306.315 79.6173 305.956 78.488 305.956C77.3493 305.956 76.514 306.315 75.982 307.034C75.45 307.743 75.184 308.728 75.184 309.988ZM88.6975 307.356C89.6215 307.356 90.3635 307.678 90.9235 308.322C91.4928 308.966 91.7775 309.937 91.7775 311.234C91.7775 312.513 91.4928 313.483 90.9235 314.146C90.3635 314.809 89.6168 315.14 88.6835 315.14C88.1048 315.14 87.6242 315.033 87.2415 314.818C86.8682 314.603 86.5742 314.347 86.3595 314.048H86.2755C86.2848 314.207 86.2988 314.407 86.3175 314.65C86.3455 314.893 86.3595 315.103 86.3595 315.28V318.36H85.1275V307.496H86.1355L86.3035 308.518H86.3595C86.5835 308.191 86.8775 307.916 87.2415 307.692C87.6055 307.468 88.0908 307.356 88.6975 307.356ZM88.4735 308.392C87.7082 308.392 87.1668 308.607 86.8495 309.036C86.5322 309.465 86.3688 310.119 86.3595 310.996V311.234C86.3595 312.158 86.5088 312.872 86.8075 313.376C87.1155 313.871 87.6802 314.118 88.5015 314.118C88.9495 314.118 89.3228 313.997 89.6215 313.754C89.9202 313.502 90.1395 313.157 90.2795 312.718C90.4288 312.279 90.5035 311.78 90.5035 311.22C90.5035 310.361 90.3355 309.675 89.9995 309.162C89.6728 308.649 89.1642 308.392 88.4735 308.392ZM96.2468 314.132C96.4334 314.132 96.6248 314.118 96.8208 314.09C97.0168 314.062 97.1754 314.025 97.2968 313.978V314.916C97.1661 314.981 96.9794 315.033 96.7368 315.07C96.4941 315.117 96.2608 315.14 96.0368 315.14C95.6448 315.14 95.2808 315.075 94.9448 314.944C94.6181 314.804 94.3521 314.566 94.1468 314.23C93.9414 313.894 93.8388 313.423 93.8388 312.816V308.448H92.7748V307.86L93.8528 307.37L94.3428 305.774H95.0708V307.496H97.2408V308.448H95.0708V312.788C95.0708 313.245 95.1781 313.586 95.3928 313.81C95.6168 314.025 95.9014 314.132 96.2468 314.132ZM99.4294 304.682C99.616 304.682 99.7794 304.747 99.9194 304.878C100.069 304.999 100.143 305.195 100.143 305.466C100.143 305.737 100.069 305.937 99.9194 306.068C99.7794 306.189 99.616 306.25 99.4294 306.25C99.224 306.25 99.0514 306.189 98.9114 306.068C98.7714 305.937 98.7014 305.737 98.7014 305.466C98.7014 305.195 98.7714 304.999 98.9114 304.878C99.0514 304.747 99.224 304.682 99.4294 304.682ZM100.031 307.496V315H98.7994V307.496H100.031ZM108.933 311.234C108.933 312.475 108.615 313.437 107.981 314.118C107.355 314.799 106.506 315.14 105.433 315.14C104.77 315.14 104.177 314.991 103.655 314.692C103.141 314.384 102.735 313.941 102.437 313.362C102.138 312.774 101.989 312.065 101.989 311.234C101.989 309.993 102.297 309.036 102.913 308.364C103.538 307.692 104.392 307.356 105.475 307.356C106.147 307.356 106.744 307.51 107.267 307.818C107.789 308.117 108.195 308.555 108.485 309.134C108.783 309.703 108.933 310.403 108.933 311.234ZM103.263 311.234C103.263 312.121 103.435 312.825 103.781 313.348C104.135 313.861 104.695 314.118 105.461 314.118C106.217 314.118 106.772 313.861 107.127 313.348C107.481 312.825 107.659 312.121 107.659 311.234C107.659 310.347 107.481 309.652 107.127 309.148C106.772 308.644 106.212 308.392 105.447 308.392C104.681 308.392 104.126 308.644 103.781 309.148C103.435 309.652 103.263 310.347 103.263 311.234ZM114.497 307.356C115.393 307.356 116.07 307.575 116.527 308.014C116.985 308.453 117.213 309.153 117.213 310.114V315H115.995V310.198C115.995 308.994 115.435 308.392 114.315 308.392C113.485 308.392 112.911 308.625 112.593 309.092C112.276 309.559 112.117 310.231 112.117 311.108V315H110.885V307.496H111.879L112.061 308.518H112.131C112.374 308.126 112.71 307.837 113.139 307.65C113.569 307.454 114.021 307.356 114.497 307.356ZM123.89 315L127.992 306.124H122.602V305.004H129.308V305.956L125.248 315H123.89Z" fill="black"/>
<rect x="64.5" y="75.5" width="284" height="253" rx="4.5" stroke="black" stroke-opacity="0.15"/>
</g>
<rect x="64.5" y="40.5" width="199" height="35" rx="1.5" fill="white"/>
<path d="M83.028 60.326C83.028 61.2127 82.706 61.9033 82.062 62.398C81.418 62.8927 80.55 63.14 79.458 63.14C78.898 63.14 78.38 63.098 77.904 63.014C77.428 62.93 77.0313 62.8133 76.714 62.664V61.46C77.05 61.6093 77.4653 61.7447 77.96 61.866C78.464 61.9873 78.982 62.048 79.514 62.048C80.2513 62.048 80.8113 61.9033 81.194 61.614C81.5767 61.3247 81.768 60.9327 81.768 60.438C81.768 60.1113 81.698 59.836 81.558 59.612C81.418 59.388 81.1753 59.1827 80.83 58.996C80.4847 58.8093 80.0133 58.604 79.416 58.38C78.5573 58.072 77.9133 57.694 77.484 57.246C77.0547 56.798 76.84 56.1867 76.84 55.412C76.84 54.8893 76.9753 54.4367 77.246 54.054C77.5167 53.6713 77.89 53.3773 78.366 53.172C78.842 52.9667 79.3973 52.864 80.032 52.864C80.5733 52.864 81.0727 52.9153 81.53 53.018C81.9873 53.1207 82.4073 53.256 82.79 53.424L82.398 54.502C82.0527 54.3527 81.6747 54.2267 81.264 54.124C80.8533 54.0213 80.4333 53.97 80.004 53.97C79.3787 53.97 78.9073 54.1053 78.59 54.376C78.2727 54.6373 78.114 54.9873 78.114 55.426C78.114 55.762 78.184 56.042 78.324 56.266C78.464 56.49 78.6927 56.6953 79.01 56.882C79.3273 57.0593 79.7567 57.246 80.298 57.442C80.886 57.6567 81.3807 57.89 81.782 58.142C82.1927 58.3847 82.5007 58.6787 82.706 59.024C82.9207 59.3693 83.028 59.8033 83.028 60.326ZM87.7716 55.356C88.4063 55.356 88.9569 55.496 89.4236 55.776C89.8903 56.056 90.2449 56.4527 90.4876 56.966C90.7396 57.47 90.8656 58.0627 90.8656 58.744V59.486H85.7276C85.7463 60.3353 85.9609 60.984 86.3716 61.432C86.7916 61.8707 87.3749 62.09 88.1216 62.09C88.5976 62.09 89.0176 62.048 89.3816 61.964C89.7549 61.8707 90.1376 61.74 90.5296 61.572V62.65C90.1469 62.818 89.7689 62.9393 89.3956 63.014C89.0223 63.098 88.5789 63.14 88.0656 63.14C87.3469 63.14 86.7169 62.9953 86.1756 62.706C85.6343 62.4167 85.2096 61.9873 84.9016 61.418C84.6029 60.8487 84.4536 60.144 84.4536 59.304C84.4536 58.4827 84.5889 57.778 84.8596 57.19C85.1396 56.602 85.5269 56.1493 86.0216 55.832C86.5256 55.5147 87.1089 55.356 87.7716 55.356ZM87.7576 56.364C87.1696 56.364 86.7029 56.5553 86.3576 56.938C86.0216 57.3113 85.8209 57.834 85.7556 58.506H89.5776C89.5683 57.8713 89.4189 57.358 89.1296 56.966C88.8403 56.5647 88.3829 56.364 87.7576 56.364ZM94.0079 63H92.7759V52.36H94.0079V63ZM99.2833 55.356C99.918 55.356 100.469 55.496 100.935 55.776C101.402 56.056 101.757 56.4527 101.999 56.966C102.251 57.47 102.377 58.0627 102.377 58.744V59.486H97.2393C97.258 60.3353 97.4726 60.984 97.8833 61.432C98.3033 61.8707 98.8866 62.09 99.6333 62.09C100.109 62.09 100.529 62.048 100.893 61.964C101.267 61.8707 101.649 61.74 102.041 61.572V62.65C101.659 62.818 101.281 62.9393 100.907 63.014C100.534 63.098 100.091 63.14 99.5773 63.14C98.8586 63.14 98.2286 62.9953 97.6873 62.706C97.146 62.4167 96.7213 61.9873 96.4133 61.418C96.1146 60.8487 95.9653 60.144 95.9653 59.304C95.9653 58.4827 96.1006 57.778 96.3713 57.19C96.6513 56.602 97.0386 56.1493 97.5333 55.832C98.0373 55.5147 98.6206 55.356 99.2833 55.356ZM99.2693 56.364C98.6813 56.364 98.2146 56.5553 97.8693 56.938C97.5333 57.3113 97.3326 57.834 97.2673 58.506H101.089C101.08 57.8713 100.931 57.358 100.641 56.966C100.352 56.5647 99.8946 56.364 99.2693 56.364ZM107.298 63.14C106.626 63.14 106.033 63.0047 105.52 62.734C105.006 62.4633 104.6 62.0433 104.302 61.474C104.012 60.9047 103.868 60.1767 103.868 59.29C103.868 58.366 104.017 57.6147 104.316 57.036C104.624 56.4573 105.044 56.0327 105.576 55.762C106.108 55.4913 106.71 55.356 107.382 55.356C107.755 55.356 108.119 55.398 108.474 55.482C108.838 55.5567 109.132 55.65 109.356 55.762L108.978 56.784C108.754 56.7 108.492 56.6207 108.194 56.546C107.895 56.4713 107.615 56.434 107.354 56.434C105.879 56.434 105.142 57.3813 105.142 59.276C105.142 60.1813 105.319 60.8767 105.674 61.362C106.038 61.838 106.574 62.076 107.284 62.076C107.685 62.076 108.044 62.034 108.362 61.95C108.679 61.866 108.968 61.7633 109.23 61.642V62.734C108.978 62.8647 108.698 62.9627 108.39 63.028C108.091 63.1027 107.727 63.14 107.298 63.14ZM113.52 62.132C113.707 62.132 113.898 62.118 114.094 62.09C114.29 62.062 114.449 62.0247 114.57 61.978V62.916C114.44 62.9813 114.253 63.0327 114.01 63.07C113.768 63.1167 113.534 63.14 113.31 63.14C112.918 63.14 112.554 63.0747 112.218 62.944C111.892 62.804 111.626 62.566 111.42 62.23C111.215 61.894 111.112 61.4227 111.112 60.816V56.448H110.048V55.86L111.126 55.37L111.616 53.774H112.344V55.496H114.514V56.448H112.344V60.788C112.344 61.2453 112.452 61.586 112.666 61.81C112.89 62.0247 113.175 62.132 113.52 62.132Z" fill="black"/>
<path d="M244.012 61.3625C243.912 61.3625 243.812 61.3125 243.762 61.2625L238.113 55.6625C237.962 55.5125 237.962 55.2625 238.113 55.1125C238.263 54.9625 238.512 54.9625 238.662 55.1125L244.012 60.4625L249.312 55.1125C249.462 54.9625 249.713 54.9625 249.863 55.1125C250.012 55.2625 250.012 55.5125 249.863 55.6625L244.262 61.2625C244.162 61.3125 244.112 61.3625 244.012 61.3625Z" fill="#323232"/>
<rect x="64.5" y="40.5" width="199" height="35" rx="1.5" stroke="#939393"/>
<defs>
<filter id="filter0_d_7567_551355" x="60" y="75" width="293" height="262" filterUnits="userSpaceOnUse" color-interpolation-filters="sRGB">
<feFlood flood-opacity="0" result="BackgroundImageFix"/>
<feColorMatrix in="SourceAlpha" type="matrix" values="0 0 0 0 0 0 0 0 0 0 0 0 0 0 0 0 0 0 127 0" result="hardAlpha"/>
<feOffset dy="4"/>
<feGaussianBlur stdDeviation="2"/>
<feColorMatrix type="matrix" values="0 0 0 0 0 0 0 0 0 0 0 0 0 0 0 0 0 0 0.25 0"/>
<feBlend mode="normal" in2="BackgroundImageFix" result="effect1_dropShadow_7567_551355"/>
<feBlend mode="normal" in="SourceGraphic" in2="effect1_dropShadow_7567_551355" result="shape"/>
</filter>
</defs>
</svg>
