<svg width="412" height="402" viewBox="0 0 412 402" fill="none" xmlns="http://www.w3.org/2000/svg">
<g filter="url(#filter0_d_7874_524648)">
<rect x="106.833" y="93" width="198.333" height="252" rx="4" fill="white"/>
<path d="M124.913 110.988C124.913 112.024 124.736 112.929 124.381 113.704C124.036 114.469 123.518 115.067 122.827 115.496C122.146 115.925 121.306 116.14 120.307 116.14C119.271 116.14 118.408 115.925 117.717 115.496C117.036 115.067 116.527 114.465 116.191 113.69C115.855 112.915 115.687 112.01 115.687 110.974C115.687 109.957 115.855 109.065 116.191 108.3C116.527 107.525 117.036 106.923 117.717 106.494C118.408 106.065 119.276 105.85 120.321 105.85C121.32 105.85 122.16 106.065 122.841 106.494C123.522 106.914 124.036 107.511 124.381 108.286C124.736 109.051 124.913 109.952 124.913 110.988ZM117.017 110.988C117.017 112.248 117.283 113.242 117.815 113.97C118.347 114.689 119.178 115.048 120.307 115.048C121.436 115.048 122.262 114.689 122.785 113.97C123.317 113.242 123.583 112.248 123.583 110.988C123.583 109.728 123.322 108.743 122.799 108.034C122.276 107.315 121.45 106.956 120.321 106.956C119.182 106.956 118.347 107.315 117.815 108.034C117.283 108.743 117.017 109.728 117.017 110.988ZM130.531 108.356C131.455 108.356 132.197 108.678 132.757 109.322C133.326 109.966 133.611 110.937 133.611 112.234C133.611 113.513 133.326 114.483 132.757 115.146C132.197 115.809 131.45 116.14 130.517 116.14C129.938 116.14 129.457 116.033 129.075 115.818C128.701 115.603 128.407 115.347 128.193 115.048H128.109C128.118 115.207 128.132 115.407 128.151 115.65C128.179 115.893 128.193 116.103 128.193 116.28V119.36H126.961V108.496H127.969L128.137 109.518H128.193C128.417 109.191 128.711 108.916 129.075 108.692C129.439 108.468 129.924 108.356 130.531 108.356ZM130.307 109.392C129.541 109.392 129 109.607 128.683 110.036C128.365 110.465 128.202 111.119 128.193 111.996V112.234C128.193 113.158 128.342 113.872 128.641 114.376C128.949 114.871 129.513 115.118 130.335 115.118C130.783 115.118 131.156 114.997 131.455 114.754C131.753 114.502 131.973 114.157 132.113 113.718C132.262 113.279 132.337 112.78 132.337 112.22C132.337 111.361 132.169 110.675 131.833 110.162C131.506 109.649 130.997 109.392 130.307 109.392ZM138.08 115.132C138.266 115.132 138.458 115.118 138.654 115.09C138.85 115.062 139.008 115.025 139.13 114.978V115.916C138.999 115.981 138.812 116.033 138.57 116.07C138.327 116.117 138.094 116.14 137.87 116.14C137.478 116.14 137.114 116.075 136.778 115.944C136.451 115.804 136.185 115.566 135.98 115.23C135.774 114.894 135.672 114.423 135.672 113.816V109.448H134.608V108.86L135.686 108.37L136.176 106.774H136.904V108.496H139.074V109.448H136.904V113.788C136.904 114.245 137.011 114.586 137.226 114.81C137.45 115.025 137.734 115.132 138.08 115.132ZM141.262 105.682C141.449 105.682 141.612 105.747 141.752 105.878C141.902 105.999 141.976 106.195 141.976 106.466C141.976 106.737 141.902 106.937 141.752 107.068C141.612 107.189 141.449 107.25 141.262 107.25C141.057 107.25 140.884 107.189 140.744 107.068C140.604 106.937 140.534 106.737 140.534 106.466C140.534 106.195 140.604 105.999 140.744 105.878C140.884 105.747 141.057 105.682 141.262 105.682ZM141.864 108.496V116H140.632V108.496H141.864ZM150.766 112.234C150.766 113.475 150.448 114.437 149.814 115.118C149.188 115.799 148.339 116.14 147.266 116.14C146.603 116.14 146.01 115.991 145.488 115.692C144.974 115.384 144.568 114.941 144.27 114.362C143.971 113.774 143.822 113.065 143.822 112.234C143.822 110.993 144.13 110.036 144.746 109.364C145.371 108.692 146.225 108.356 147.308 108.356C147.98 108.356 148.577 108.51 149.1 108.818C149.622 109.117 150.028 109.555 150.318 110.134C150.616 110.703 150.766 111.403 150.766 112.234ZM145.096 112.234C145.096 113.121 145.268 113.825 145.614 114.348C145.968 114.861 146.528 115.118 147.294 115.118C148.05 115.118 148.605 114.861 148.96 114.348C149.314 113.825 149.492 113.121 149.492 112.234C149.492 111.347 149.314 110.652 148.96 110.148C148.605 109.644 148.045 109.392 147.28 109.392C146.514 109.392 145.959 109.644 145.614 110.148C145.268 110.652 145.096 111.347 145.096 112.234ZM156.33 108.356C157.226 108.356 157.903 108.575 158.36 109.014C158.818 109.453 159.046 110.153 159.046 111.114V116H157.828V111.198C157.828 109.994 157.268 109.392 156.148 109.392C155.318 109.392 154.744 109.625 154.426 110.092C154.109 110.559 153.95 111.231 153.95 112.108V116H152.718V108.496H153.712L153.894 109.518H153.964C154.207 109.126 154.543 108.837 154.972 108.65C155.402 108.454 155.854 108.356 156.33 108.356ZM168.789 116H167.585V109.014C167.585 108.613 167.59 108.291 167.599 108.048C167.609 107.805 167.623 107.553 167.641 107.292C167.492 107.441 167.352 107.567 167.221 107.67C167.1 107.773 166.951 107.903 166.773 108.062L165.709 108.93L165.065 108.104L167.767 106.004H168.789V116Z" fill="black"/>
<path d="M286.579 116.962C286.479 116.962 286.379 116.913 286.329 116.863C286.179 116.713 286.179 116.462 286.329 116.312L291.629 111.012L286.279 105.662C286.129 105.512 286.129 105.263 286.279 105.113C286.429 104.962 286.679 104.962 286.829 105.113L292.429 110.712C292.479 110.762 292.529 110.862 292.529 110.962C292.529 111.062 292.479 111.162 292.429 111.212L286.829 116.863C286.729 116.963 286.629 116.962 286.579 116.962Z" fill="black"/>
<path d="M124.913 146.988C124.913 148.024 124.736 148.929 124.381 149.704C124.036 150.469 123.518 151.067 122.827 151.496C122.146 151.925 121.306 152.14 120.307 152.14C119.271 152.14 118.408 151.925 117.717 151.496C117.036 151.067 116.527 150.465 116.191 149.69C115.855 148.915 115.687 148.01 115.687 146.974C115.687 145.957 115.855 145.065 116.191 144.3C116.527 143.525 117.036 142.923 117.717 142.494C118.408 142.065 119.276 141.85 120.321 141.85C121.32 141.85 122.16 142.065 122.841 142.494C123.522 142.914 124.036 143.511 124.381 144.286C124.736 145.051 124.913 145.952 124.913 146.988ZM117.017 146.988C117.017 148.248 117.283 149.242 117.815 149.97C118.347 150.689 119.178 151.048 120.307 151.048C121.436 151.048 122.262 150.689 122.785 149.97C123.317 149.242 123.583 148.248 123.583 146.988C123.583 145.728 123.322 144.743 122.799 144.034C122.276 143.315 121.45 142.956 120.321 142.956C119.182 142.956 118.347 143.315 117.815 144.034C117.283 144.743 117.017 145.728 117.017 146.988ZM130.531 144.356C131.455 144.356 132.197 144.678 132.757 145.322C133.326 145.966 133.611 146.937 133.611 148.234C133.611 149.513 133.326 150.483 132.757 151.146C132.197 151.809 131.45 152.14 130.517 152.14C129.938 152.14 129.457 152.033 129.075 151.818C128.701 151.603 128.407 151.347 128.193 151.048H128.109C128.118 151.207 128.132 151.407 128.151 151.65C128.179 151.893 128.193 152.103 128.193 152.28V155.36H126.961V144.496H127.969L128.137 145.518H128.193C128.417 145.191 128.711 144.916 129.075 144.692C129.439 144.468 129.924 144.356 130.531 144.356ZM130.307 145.392C129.541 145.392 129 145.607 128.683 146.036C128.365 146.465 128.202 147.119 128.193 147.996V148.234C128.193 149.158 128.342 149.872 128.641 150.376C128.949 150.871 129.513 151.118 130.335 151.118C130.783 151.118 131.156 150.997 131.455 150.754C131.753 150.502 131.973 150.157 132.113 149.718C132.262 149.279 132.337 148.78 132.337 148.22C132.337 147.361 132.169 146.675 131.833 146.162C131.506 145.649 130.997 145.392 130.307 145.392ZM138.08 151.132C138.266 151.132 138.458 151.118 138.654 151.09C138.85 151.062 139.008 151.025 139.13 150.978V151.916C138.999 151.981 138.812 152.033 138.57 152.07C138.327 152.117 138.094 152.14 137.87 152.14C137.478 152.14 137.114 152.075 136.778 151.944C136.451 151.804 136.185 151.566 135.98 151.23C135.774 150.894 135.672 150.423 135.672 149.816V145.448H134.608V144.86L135.686 144.37L136.176 142.774H136.904V144.496H139.074V145.448H136.904V149.788C136.904 150.245 137.011 150.586 137.226 150.81C137.45 151.025 137.734 151.132 138.08 151.132ZM141.262 141.682C141.449 141.682 141.612 141.747 141.752 141.878C141.902 141.999 141.976 142.195 141.976 142.466C141.976 142.737 141.902 142.937 141.752 143.068C141.612 143.189 141.449 143.25 141.262 143.25C141.057 143.25 140.884 143.189 140.744 143.068C140.604 142.937 140.534 142.737 140.534 142.466C140.534 142.195 140.604 141.999 140.744 141.878C140.884 141.747 141.057 141.682 141.262 141.682ZM141.864 144.496V152H140.632V144.496H141.864ZM150.766 148.234C150.766 149.475 150.448 150.437 149.814 151.118C149.188 151.799 148.339 152.14 147.266 152.14C146.603 152.14 146.01 151.991 145.488 151.692C144.974 151.384 144.568 150.941 144.27 150.362C143.971 149.774 143.822 149.065 143.822 148.234C143.822 146.993 144.13 146.036 144.746 145.364C145.371 144.692 146.225 144.356 147.308 144.356C147.98 144.356 148.577 144.51 149.1 144.818C149.622 145.117 150.028 145.555 150.318 146.134C150.616 146.703 150.766 147.403 150.766 148.234ZM145.096 148.234C145.096 149.121 145.268 149.825 145.614 150.348C145.968 150.861 146.528 151.118 147.294 151.118C148.05 151.118 148.605 150.861 148.96 150.348C149.314 149.825 149.492 149.121 149.492 148.234C149.492 147.347 149.314 146.652 148.96 146.148C148.605 145.644 148.045 145.392 147.28 145.392C146.514 145.392 145.959 145.644 145.614 146.148C145.268 146.652 145.096 147.347 145.096 148.234ZM156.33 144.356C157.226 144.356 157.903 144.575 158.36 145.014C158.818 145.453 159.046 146.153 159.046 147.114V152H157.828V147.198C157.828 145.994 157.268 145.392 156.148 145.392C155.318 145.392 154.744 145.625 154.426 146.092C154.109 146.559 153.95 147.231 153.95 148.108V152H152.718V144.496H153.712L153.894 145.518H153.964C154.207 145.126 154.543 144.837 154.972 144.65C155.402 144.454 155.854 144.356 156.33 144.356ZM171.099 152H164.491V150.978L167.109 148.332C167.604 147.828 168.024 147.38 168.369 146.988C168.724 146.596 168.99 146.213 169.167 145.84C169.345 145.467 169.433 145.051 169.433 144.594C169.433 144.043 169.27 143.628 168.943 143.348C168.617 143.059 168.192 142.914 167.669 142.914C167.175 142.914 166.745 142.998 166.381 143.166C166.017 143.334 165.644 143.567 165.261 143.866L164.603 143.04C164.995 142.713 165.443 142.438 165.947 142.214C166.461 141.981 167.035 141.864 167.669 141.864C168.603 141.864 169.34 142.102 169.881 142.578C170.423 143.054 170.693 143.703 170.693 144.524C170.693 145.047 170.586 145.537 170.371 145.994C170.157 146.451 169.858 146.904 169.475 147.352C169.093 147.8 168.645 148.271 168.131 148.766L166.045 150.824V150.88H171.099V152Z" fill="black"/>
<path d="M286.579 152.962C286.479 152.962 286.379 152.913 286.329 152.863C286.179 152.713 286.179 152.462 286.329 152.312L291.629 147.012L286.279 141.662C286.129 141.512 286.129 141.263 286.279 141.113C286.429 140.962 286.679 140.962 286.829 141.113L292.429 146.712C292.479 146.762 292.529 146.862 292.529 146.962C292.529 147.062 292.479 147.162 292.429 147.212L286.829 152.863C286.729 152.963 286.629 152.962 286.579 152.962Z" fill="black"/>
<path d="M124.913 182.988C124.913 184.024 124.736 184.929 124.381 185.704C124.036 186.469 123.518 187.067 122.827 187.496C122.146 187.925 121.306 188.14 120.307 188.14C119.271 188.14 118.408 187.925 117.717 187.496C117.036 187.067 116.527 186.465 116.191 185.69C115.855 184.915 115.687 184.01 115.687 182.974C115.687 181.957 115.855 181.065 116.191 180.3C116.527 179.525 117.036 178.923 117.717 178.494C118.408 178.065 119.276 177.85 120.321 177.85C121.32 177.85 122.16 178.065 122.841 178.494C123.522 178.914 124.036 179.511 124.381 180.286C124.736 181.051 124.913 181.952 124.913 182.988ZM117.017 182.988C117.017 184.248 117.283 185.242 117.815 185.97C118.347 186.689 119.178 187.048 120.307 187.048C121.436 187.048 122.262 186.689 122.785 185.97C123.317 185.242 123.583 184.248 123.583 182.988C123.583 181.728 123.322 180.743 122.799 180.034C122.276 179.315 121.45 178.956 120.321 178.956C119.182 178.956 118.347 179.315 117.815 180.034C117.283 180.743 117.017 181.728 117.017 182.988ZM130.531 180.356C131.455 180.356 132.197 180.678 132.757 181.322C133.326 181.966 133.611 182.937 133.611 184.234C133.611 185.513 133.326 186.483 132.757 187.146C132.197 187.809 131.45 188.14 130.517 188.14C129.938 188.14 129.457 188.033 129.075 187.818C128.701 187.603 128.407 187.347 128.193 187.048H128.109C128.118 187.207 128.132 187.407 128.151 187.65C128.179 187.893 128.193 188.103 128.193 188.28V191.36H126.961V180.496H127.969L128.137 181.518H128.193C128.417 181.191 128.711 180.916 129.075 180.692C129.439 180.468 129.924 180.356 130.531 180.356ZM130.307 181.392C129.541 181.392 129 181.607 128.683 182.036C128.365 182.465 128.202 183.119 128.193 183.996V184.234C128.193 185.158 128.342 185.872 128.641 186.376C128.949 186.871 129.513 187.118 130.335 187.118C130.783 187.118 131.156 186.997 131.455 186.754C131.753 186.502 131.973 186.157 132.113 185.718C132.262 185.279 132.337 184.78 132.337 184.22C132.337 183.361 132.169 182.675 131.833 182.162C131.506 181.649 130.997 181.392 130.307 181.392ZM138.08 187.132C138.266 187.132 138.458 187.118 138.654 187.09C138.85 187.062 139.008 187.025 139.13 186.978V187.916C138.999 187.981 138.812 188.033 138.57 188.07C138.327 188.117 138.094 188.14 137.87 188.14C137.478 188.14 137.114 188.075 136.778 187.944C136.451 187.804 136.185 187.566 135.98 187.23C135.774 186.894 135.672 186.423 135.672 185.816V181.448H134.608V180.86L135.686 180.37L136.176 178.774H136.904V180.496H139.074V181.448H136.904V185.788C136.904 186.245 137.011 186.586 137.226 186.81C137.45 187.025 137.734 187.132 138.08 187.132ZM141.262 177.682C141.449 177.682 141.612 177.747 141.752 177.878C141.902 177.999 141.976 178.195 141.976 178.466C141.976 178.737 141.902 178.937 141.752 179.068C141.612 179.189 141.449 179.25 141.262 179.25C141.057 179.25 140.884 179.189 140.744 179.068C140.604 178.937 140.534 178.737 140.534 178.466C140.534 178.195 140.604 177.999 140.744 177.878C140.884 177.747 141.057 177.682 141.262 177.682ZM141.864 180.496V188H140.632V180.496H141.864ZM150.766 184.234C150.766 185.475 150.448 186.437 149.814 187.118C149.188 187.799 148.339 188.14 147.266 188.14C146.603 188.14 146.01 187.991 145.488 187.692C144.974 187.384 144.568 186.941 144.27 186.362C143.971 185.774 143.822 185.065 143.822 184.234C143.822 182.993 144.13 182.036 144.746 181.364C145.371 180.692 146.225 180.356 147.308 180.356C147.98 180.356 148.577 180.51 149.1 180.818C149.622 181.117 150.028 181.555 150.318 182.134C150.616 182.703 150.766 183.403 150.766 184.234ZM145.096 184.234C145.096 185.121 145.268 185.825 145.614 186.348C145.968 186.861 146.528 187.118 147.294 187.118C148.05 187.118 148.605 186.861 148.96 186.348C149.314 185.825 149.492 185.121 149.492 184.234C149.492 183.347 149.314 182.652 148.96 182.148C148.605 181.644 148.045 181.392 147.28 181.392C146.514 181.392 145.959 181.644 145.614 182.148C145.268 182.652 145.096 183.347 145.096 184.234ZM156.33 180.356C157.226 180.356 157.903 180.575 158.36 181.014C158.818 181.453 159.046 182.153 159.046 183.114V188H157.828V183.198C157.828 181.994 157.268 181.392 156.148 181.392C155.318 181.392 154.744 181.625 154.426 182.092C154.109 182.559 153.95 183.231 153.95 184.108V188H152.718V180.496H153.712L153.894 181.518H153.964C154.207 181.126 154.543 180.837 154.972 180.65C155.402 180.454 155.854 180.356 156.33 180.356ZM170.721 180.342C170.721 181.014 170.53 181.551 170.147 181.952C169.774 182.344 169.275 182.605 168.649 182.736V182.792C169.443 182.885 170.035 183.137 170.427 183.548C170.829 183.959 171.029 184.495 171.029 185.158C171.029 185.746 170.894 186.264 170.623 186.712C170.353 187.16 169.933 187.51 169.363 187.762C168.803 188.014 168.08 188.14 167.193 188.14C166.671 188.14 166.185 188.098 165.737 188.014C165.289 187.939 164.86 187.799 164.449 187.594V186.446C164.869 186.661 165.322 186.824 165.807 186.936C166.293 187.048 166.759 187.104 167.207 187.104C168.103 187.104 168.747 186.931 169.139 186.586C169.541 186.231 169.741 185.746 169.741 185.13C169.741 184.505 169.494 184.057 168.999 183.786C168.514 183.506 167.828 183.366 166.941 183.366H165.975V182.316H166.955C167.777 182.316 168.397 182.143 168.817 181.798C169.247 181.453 169.461 180.995 169.461 180.426C169.461 179.941 169.298 179.567 168.971 179.306C168.645 179.035 168.201 178.9 167.641 178.9C167.1 178.9 166.638 178.979 166.255 179.138C165.873 179.297 165.495 179.497 165.121 179.74L164.505 178.9C164.86 178.62 165.299 178.377 165.821 178.172C166.353 177.967 166.955 177.864 167.627 177.864C168.673 177.864 169.447 178.097 169.951 178.564C170.465 179.031 170.721 179.623 170.721 180.342Z" fill="black"/>
<path d="M124.913 218.988C124.913 220.024 124.736 220.929 124.381 221.704C124.036 222.469 123.518 223.067 122.827 223.496C122.146 223.925 121.306 224.14 120.307 224.14C119.271 224.14 118.408 223.925 117.717 223.496C117.036 223.067 116.527 222.465 116.191 221.69C115.855 220.915 115.687 220.01 115.687 218.974C115.687 217.957 115.855 217.065 116.191 216.3C116.527 215.525 117.036 214.923 117.717 214.494C118.408 214.065 119.276 213.85 120.321 213.85C121.32 213.85 122.16 214.065 122.841 214.494C123.522 214.914 124.036 215.511 124.381 216.286C124.736 217.051 124.913 217.952 124.913 218.988ZM117.017 218.988C117.017 220.248 117.283 221.242 117.815 221.97C118.347 222.689 119.178 223.048 120.307 223.048C121.436 223.048 122.262 222.689 122.785 221.97C123.317 221.242 123.583 220.248 123.583 218.988C123.583 217.728 123.322 216.743 122.799 216.034C122.276 215.315 121.45 214.956 120.321 214.956C119.182 214.956 118.347 215.315 117.815 216.034C117.283 216.743 117.017 217.728 117.017 218.988ZM130.531 216.356C131.455 216.356 132.197 216.678 132.757 217.322C133.326 217.966 133.611 218.937 133.611 220.234C133.611 221.513 133.326 222.483 132.757 223.146C132.197 223.809 131.45 224.14 130.517 224.14C129.938 224.14 129.457 224.033 129.075 223.818C128.701 223.603 128.407 223.347 128.193 223.048H128.109C128.118 223.207 128.132 223.407 128.151 223.65C128.179 223.893 128.193 224.103 128.193 224.28V227.36H126.961V216.496H127.969L128.137 217.518H128.193C128.417 217.191 128.711 216.916 129.075 216.692C129.439 216.468 129.924 216.356 130.531 216.356ZM130.307 217.392C129.541 217.392 129 217.607 128.683 218.036C128.365 218.465 128.202 219.119 128.193 219.996V220.234C128.193 221.158 128.342 221.872 128.641 222.376C128.949 222.871 129.513 223.118 130.335 223.118C130.783 223.118 131.156 222.997 131.455 222.754C131.753 222.502 131.973 222.157 132.113 221.718C132.262 221.279 132.337 220.78 132.337 220.22C132.337 219.361 132.169 218.675 131.833 218.162C131.506 217.649 130.997 217.392 130.307 217.392ZM138.08 223.132C138.266 223.132 138.458 223.118 138.654 223.09C138.85 223.062 139.008 223.025 139.13 222.978V223.916C138.999 223.981 138.812 224.033 138.57 224.07C138.327 224.117 138.094 224.14 137.87 224.14C137.478 224.14 137.114 224.075 136.778 223.944C136.451 223.804 136.185 223.566 135.98 223.23C135.774 222.894 135.672 222.423 135.672 221.816V217.448H134.608V216.86L135.686 216.37L136.176 214.774H136.904V216.496H139.074V217.448H136.904V221.788C136.904 222.245 137.011 222.586 137.226 222.81C137.45 223.025 137.734 223.132 138.08 223.132ZM141.262 213.682C141.449 213.682 141.612 213.747 141.752 213.878C141.902 213.999 141.976 214.195 141.976 214.466C141.976 214.737 141.902 214.937 141.752 215.068C141.612 215.189 141.449 215.25 141.262 215.25C141.057 215.25 140.884 215.189 140.744 215.068C140.604 214.937 140.534 214.737 140.534 214.466C140.534 214.195 140.604 213.999 140.744 213.878C140.884 213.747 141.057 213.682 141.262 213.682ZM141.864 216.496V224H140.632V216.496H141.864ZM150.766 220.234C150.766 221.475 150.448 222.437 149.814 223.118C149.188 223.799 148.339 224.14 147.266 224.14C146.603 224.14 146.01 223.991 145.488 223.692C144.974 223.384 144.568 222.941 144.27 222.362C143.971 221.774 143.822 221.065 143.822 220.234C143.822 218.993 144.13 218.036 144.746 217.364C145.371 216.692 146.225 216.356 147.308 216.356C147.98 216.356 148.577 216.51 149.1 216.818C149.622 217.117 150.028 217.555 150.318 218.134C150.616 218.703 150.766 219.403 150.766 220.234ZM145.096 220.234C145.096 221.121 145.268 221.825 145.614 222.348C145.968 222.861 146.528 223.118 147.294 223.118C148.05 223.118 148.605 222.861 148.96 222.348C149.314 221.825 149.492 221.121 149.492 220.234C149.492 219.347 149.314 218.652 148.96 218.148C148.605 217.644 148.045 217.392 147.28 217.392C146.514 217.392 145.959 217.644 145.614 218.148C145.268 218.652 145.096 219.347 145.096 220.234ZM156.33 216.356C157.226 216.356 157.903 216.575 158.36 217.014C158.818 217.453 159.046 218.153 159.046 219.114V224H157.828V219.198C157.828 217.994 157.268 217.392 156.148 217.392C155.318 217.392 154.744 217.625 154.426 218.092C154.109 218.559 153.95 219.231 153.95 220.108V224H152.718V216.496H153.712L153.894 217.518H153.964C154.207 217.126 154.543 216.837 154.972 216.65C155.402 216.454 155.854 216.356 156.33 216.356ZM171.547 221.732H170.091V224H168.901V221.732H164.113V220.682L168.817 213.948H170.091V220.626H171.547V221.732ZM168.901 220.626V217.476C168.901 216.991 168.906 216.58 168.915 216.244C168.934 215.899 168.953 215.572 168.971 215.264H168.915C168.841 215.441 168.747 215.633 168.635 215.838C168.523 216.043 168.416 216.216 168.313 216.356L165.317 220.626H168.901Z" fill="black"/>
<path d="M124.913 254.988C124.913 256.024 124.736 256.929 124.381 257.704C124.036 258.469 123.518 259.067 122.827 259.496C122.146 259.925 121.306 260.14 120.307 260.14C119.271 260.14 118.408 259.925 117.717 259.496C117.036 259.067 116.527 258.465 116.191 257.69C115.855 256.915 115.687 256.01 115.687 254.974C115.687 253.957 115.855 253.065 116.191 252.3C116.527 251.525 117.036 250.923 117.717 250.494C118.408 250.065 119.276 249.85 120.321 249.85C121.32 249.85 122.16 250.065 122.841 250.494C123.522 250.914 124.036 251.511 124.381 252.286C124.736 253.051 124.913 253.952 124.913 254.988ZM117.017 254.988C117.017 256.248 117.283 257.242 117.815 257.97C118.347 258.689 119.178 259.048 120.307 259.048C121.436 259.048 122.262 258.689 122.785 257.97C123.317 257.242 123.583 256.248 123.583 254.988C123.583 253.728 123.322 252.743 122.799 252.034C122.276 251.315 121.45 250.956 120.321 250.956C119.182 250.956 118.347 251.315 117.815 252.034C117.283 252.743 117.017 253.728 117.017 254.988ZM130.531 252.356C131.455 252.356 132.197 252.678 132.757 253.322C133.326 253.966 133.611 254.937 133.611 256.234C133.611 257.513 133.326 258.483 132.757 259.146C132.197 259.809 131.45 260.14 130.517 260.14C129.938 260.14 129.457 260.033 129.075 259.818C128.701 259.603 128.407 259.347 128.193 259.048H128.109C128.118 259.207 128.132 259.407 128.151 259.65C128.179 259.893 128.193 260.103 128.193 260.28V263.36H126.961V252.496H127.969L128.137 253.518H128.193C128.417 253.191 128.711 252.916 129.075 252.692C129.439 252.468 129.924 252.356 130.531 252.356ZM130.307 253.392C129.541 253.392 129 253.607 128.683 254.036C128.365 254.465 128.202 255.119 128.193 255.996V256.234C128.193 257.158 128.342 257.872 128.641 258.376C128.949 258.871 129.513 259.118 130.335 259.118C130.783 259.118 131.156 258.997 131.455 258.754C131.753 258.502 131.973 258.157 132.113 257.718C132.262 257.279 132.337 256.78 132.337 256.22C132.337 255.361 132.169 254.675 131.833 254.162C131.506 253.649 130.997 253.392 130.307 253.392ZM138.08 259.132C138.266 259.132 138.458 259.118 138.654 259.09C138.85 259.062 139.008 259.025 139.13 258.978V259.916C138.999 259.981 138.812 260.033 138.57 260.07C138.327 260.117 138.094 260.14 137.87 260.14C137.478 260.14 137.114 260.075 136.778 259.944C136.451 259.804 136.185 259.566 135.98 259.23C135.774 258.894 135.672 258.423 135.672 257.816V253.448H134.608V252.86L135.686 252.37L136.176 250.774H136.904V252.496H139.074V253.448H136.904V257.788C136.904 258.245 137.011 258.586 137.226 258.81C137.45 259.025 137.734 259.132 138.08 259.132ZM141.262 249.682C141.449 249.682 141.612 249.747 141.752 249.878C141.902 249.999 141.976 250.195 141.976 250.466C141.976 250.737 141.902 250.937 141.752 251.068C141.612 251.189 141.449 251.25 141.262 251.25C141.057 251.25 140.884 251.189 140.744 251.068C140.604 250.937 140.534 250.737 140.534 250.466C140.534 250.195 140.604 249.999 140.744 249.878C140.884 249.747 141.057 249.682 141.262 249.682ZM141.864 252.496V260H140.632V252.496H141.864ZM150.766 256.234C150.766 257.475 150.448 258.437 149.814 259.118C149.188 259.799 148.339 260.14 147.266 260.14C146.603 260.14 146.01 259.991 145.488 259.692C144.974 259.384 144.568 258.941 144.27 258.362C143.971 257.774 143.822 257.065 143.822 256.234C143.822 254.993 144.13 254.036 144.746 253.364C145.371 252.692 146.225 252.356 147.308 252.356C147.98 252.356 148.577 252.51 149.1 252.818C149.622 253.117 150.028 253.555 150.318 254.134C150.616 254.703 150.766 255.403 150.766 256.234ZM145.096 256.234C145.096 257.121 145.268 257.825 145.614 258.348C145.968 258.861 146.528 259.118 147.294 259.118C148.05 259.118 148.605 258.861 148.96 258.348C149.314 257.825 149.492 257.121 149.492 256.234C149.492 255.347 149.314 254.652 148.96 254.148C148.605 253.644 148.045 253.392 147.28 253.392C146.514 253.392 145.959 253.644 145.614 254.148C145.268 254.652 145.096 255.347 145.096 256.234ZM156.33 252.356C157.226 252.356 157.903 252.575 158.36 253.014C158.818 253.453 159.046 254.153 159.046 255.114V260H157.828V255.198C157.828 253.994 157.268 253.392 156.148 253.392C155.318 253.392 154.744 253.625 154.426 254.092C154.109 254.559 153.95 255.231 153.95 256.108V260H152.718V252.496H153.712L153.894 253.518H153.964C154.207 253.126 154.543 252.837 154.972 252.65C155.402 252.454 155.854 252.356 156.33 252.356ZM167.669 253.868C168.687 253.868 169.499 254.125 170.105 254.638C170.721 255.151 171.029 255.875 171.029 256.808C171.029 257.844 170.698 258.661 170.035 259.258C169.382 259.846 168.467 260.14 167.291 260.14C166.769 260.14 166.283 260.093 165.835 260C165.387 259.907 165.009 259.771 164.701 259.594V258.432C165.037 258.637 165.443 258.801 165.919 258.922C166.405 259.034 166.867 259.09 167.305 259.09C168.043 259.09 168.635 258.917 169.083 258.572C169.541 258.217 169.769 257.671 169.769 256.934C169.769 256.281 169.569 255.781 169.167 255.436C168.766 255.081 168.131 254.904 167.263 254.904C167.002 254.904 166.703 254.927 166.367 254.974C166.031 255.021 165.761 255.067 165.555 255.114L164.939 254.722L165.317 250.004H170.329V251.124H166.367L166.129 254.022C166.288 253.994 166.503 253.961 166.773 253.924C167.044 253.887 167.343 253.868 167.669 253.868Z" fill="black"/>
<path d="M124.913 290.988C124.913 292.024 124.736 292.929 124.381 293.704C124.036 294.469 123.518 295.067 122.827 295.496C122.146 295.925 121.306 296.14 120.307 296.14C119.271 296.14 118.408 295.925 117.717 295.496C117.036 295.067 116.527 294.465 116.191 293.69C115.855 292.915 115.687 292.01 115.687 290.974C115.687 289.957 115.855 289.065 116.191 288.3C116.527 287.525 117.036 286.923 117.717 286.494C118.408 286.065 119.276 285.85 120.321 285.85C121.32 285.85 122.16 286.065 122.841 286.494C123.522 286.914 124.036 287.511 124.381 288.286C124.736 289.051 124.913 289.952 124.913 290.988ZM117.017 290.988C117.017 292.248 117.283 293.242 117.815 293.97C118.347 294.689 119.178 295.048 120.307 295.048C121.436 295.048 122.262 294.689 122.785 293.97C123.317 293.242 123.583 292.248 123.583 290.988C123.583 289.728 123.322 288.743 122.799 288.034C122.276 287.315 121.45 286.956 120.321 286.956C119.182 286.956 118.347 287.315 117.815 288.034C117.283 288.743 117.017 289.728 117.017 290.988ZM130.531 288.356C131.455 288.356 132.197 288.678 132.757 289.322C133.326 289.966 133.611 290.937 133.611 292.234C133.611 293.513 133.326 294.483 132.757 295.146C132.197 295.809 131.45 296.14 130.517 296.14C129.938 296.14 129.457 296.033 129.075 295.818C128.701 295.603 128.407 295.347 128.193 295.048H128.109C128.118 295.207 128.132 295.407 128.151 295.65C128.179 295.893 128.193 296.103 128.193 296.28V299.36H126.961V288.496H127.969L128.137 289.518H128.193C128.417 289.191 128.711 288.916 129.075 288.692C129.439 288.468 129.924 288.356 130.531 288.356ZM130.307 289.392C129.541 289.392 129 289.607 128.683 290.036C128.365 290.465 128.202 291.119 128.193 291.996V292.234C128.193 293.158 128.342 293.872 128.641 294.376C128.949 294.871 129.513 295.118 130.335 295.118C130.783 295.118 131.156 294.997 131.455 294.754C131.753 294.502 131.973 294.157 132.113 293.718C132.262 293.279 132.337 292.78 132.337 292.22C132.337 291.361 132.169 290.675 131.833 290.162C131.506 289.649 130.997 289.392 130.307 289.392ZM138.08 295.132C138.266 295.132 138.458 295.118 138.654 295.09C138.85 295.062 139.008 295.025 139.13 294.978V295.916C138.999 295.981 138.812 296.033 138.57 296.07C138.327 296.117 138.094 296.14 137.87 296.14C137.478 296.14 137.114 296.075 136.778 295.944C136.451 295.804 136.185 295.566 135.98 295.23C135.774 294.894 135.672 294.423 135.672 293.816V289.448H134.608V288.86L135.686 288.37L136.176 286.774H136.904V288.496H139.074V289.448H136.904V293.788C136.904 294.245 137.011 294.586 137.226 294.81C137.45 295.025 137.734 295.132 138.08 295.132ZM141.262 285.682C141.449 285.682 141.612 285.747 141.752 285.878C141.902 285.999 141.976 286.195 141.976 286.466C141.976 286.737 141.902 286.937 141.752 287.068C141.612 287.189 141.449 287.25 141.262 287.25C141.057 287.25 140.884 287.189 140.744 287.068C140.604 286.937 140.534 286.737 140.534 286.466C140.534 286.195 140.604 285.999 140.744 285.878C140.884 285.747 141.057 285.682 141.262 285.682ZM141.864 288.496V296H140.632V288.496H141.864ZM150.766 292.234C150.766 293.475 150.448 294.437 149.814 295.118C149.188 295.799 148.339 296.14 147.266 296.14C146.603 296.14 146.01 295.991 145.488 295.692C144.974 295.384 144.568 294.941 144.27 294.362C143.971 293.774 143.822 293.065 143.822 292.234C143.822 290.993 144.13 290.036 144.746 289.364C145.371 288.692 146.225 288.356 147.308 288.356C147.98 288.356 148.577 288.51 149.1 288.818C149.622 289.117 150.028 289.555 150.318 290.134C150.616 290.703 150.766 291.403 150.766 292.234ZM145.096 292.234C145.096 293.121 145.268 293.825 145.614 294.348C145.968 294.861 146.528 295.118 147.294 295.118C148.05 295.118 148.605 294.861 148.96 294.348C149.314 293.825 149.492 293.121 149.492 292.234C149.492 291.347 149.314 290.652 148.96 290.148C148.605 289.644 148.045 289.392 147.28 289.392C146.514 289.392 145.959 289.644 145.614 290.148C145.268 290.652 145.096 291.347 145.096 292.234ZM156.33 288.356C157.226 288.356 157.903 288.575 158.36 289.014C158.818 289.453 159.046 290.153 159.046 291.114V296H157.828V291.198C157.828 289.994 157.268 289.392 156.148 289.392C155.318 289.392 154.744 289.625 154.426 290.092C154.109 290.559 153.95 291.231 153.95 292.108V296H152.718V288.496H153.712L153.894 289.518H153.964C154.207 289.126 154.543 288.837 154.972 288.65C155.402 288.454 155.854 288.356 156.33 288.356ZM164.589 291.73C164.589 291.011 164.65 290.307 164.771 289.616C164.902 288.916 165.131 288.286 165.457 287.726C165.793 287.157 166.26 286.704 166.857 286.368C167.455 286.032 168.225 285.864 169.167 285.864C169.363 285.864 169.578 285.873 169.811 285.892C170.054 285.911 170.25 285.943 170.399 285.99V287.04C170.231 286.984 170.04 286.942 169.825 286.914C169.611 286.886 169.401 286.872 169.195 286.872C168.551 286.872 168.015 286.979 167.585 287.194C167.156 287.409 166.815 287.703 166.563 288.076C166.321 288.449 166.143 288.879 166.031 289.364C165.919 289.849 165.849 290.367 165.821 290.918H165.905C166.12 290.591 166.419 290.316 166.801 290.092C167.184 289.859 167.674 289.742 168.271 289.742C169.139 289.742 169.839 290.008 170.371 290.54C170.903 291.063 171.169 291.809 171.169 292.78C171.169 293.825 170.88 294.647 170.301 295.244C169.732 295.841 168.962 296.14 167.991 296.14C167.357 296.14 166.783 295.981 166.269 295.664C165.756 295.347 165.345 294.861 165.037 294.208C164.739 293.555 164.589 292.729 164.589 291.73ZM167.977 295.104C168.565 295.104 169.041 294.917 169.405 294.544C169.769 294.161 169.951 293.573 169.951 292.78C169.951 292.145 169.788 291.641 169.461 291.268C169.144 290.895 168.663 290.708 168.019 290.708C167.581 290.708 167.198 290.801 166.871 290.988C166.545 291.165 166.288 291.399 166.101 291.688C165.924 291.968 165.835 292.253 165.835 292.542C165.835 292.943 165.915 293.345 166.073 293.746C166.232 294.138 166.47 294.465 166.787 294.726C167.105 294.978 167.501 295.104 167.977 295.104Z" fill="black"/>
<path d="M286.579 296.962C286.479 296.962 286.379 296.913 286.329 296.863C286.179 296.713 286.179 296.462 286.329 296.312L291.629 291.012L286.279 285.662C286.129 285.512 286.129 285.263 286.279 285.113C286.429 284.962 286.679 284.962 286.829 285.113L292.429 290.712C292.479 290.762 292.529 290.862 292.529 290.962C292.529 291.062 292.479 291.162 292.429 291.212L286.829 296.863C286.729 296.963 286.629 296.962 286.579 296.962Z" fill="black"/>
<path d="M124.913 326.988C124.913 328.024 124.736 328.929 124.381 329.704C124.036 330.469 123.518 331.067 122.827 331.496C122.146 331.925 121.306 332.14 120.307 332.14C119.271 332.14 118.408 331.925 117.717 331.496C117.036 331.067 116.527 330.465 116.191 329.69C115.855 328.915 115.687 328.01 115.687 326.974C115.687 325.957 115.855 325.065 116.191 324.3C116.527 323.525 117.036 322.923 117.717 322.494C118.408 322.065 119.276 321.85 120.321 321.85C121.32 321.85 122.16 322.065 122.841 322.494C123.522 322.914 124.036 323.511 124.381 324.286C124.736 325.051 124.913 325.952 124.913 326.988ZM117.017 326.988C117.017 328.248 117.283 329.242 117.815 329.97C118.347 330.689 119.178 331.048 120.307 331.048C121.436 331.048 122.262 330.689 122.785 329.97C123.317 329.242 123.583 328.248 123.583 326.988C123.583 325.728 123.322 324.743 122.799 324.034C122.276 323.315 121.45 322.956 120.321 322.956C119.182 322.956 118.347 323.315 117.815 324.034C117.283 324.743 117.017 325.728 117.017 326.988ZM130.531 324.356C131.455 324.356 132.197 324.678 132.757 325.322C133.326 325.966 133.611 326.937 133.611 328.234C133.611 329.513 133.326 330.483 132.757 331.146C132.197 331.809 131.45 332.14 130.517 332.14C129.938 332.14 129.457 332.033 129.075 331.818C128.701 331.603 128.407 331.347 128.193 331.048H128.109C128.118 331.207 128.132 331.407 128.151 331.65C128.179 331.893 128.193 332.103 128.193 332.28V335.36H126.961V324.496H127.969L128.137 325.518H128.193C128.417 325.191 128.711 324.916 129.075 324.692C129.439 324.468 129.924 324.356 130.531 324.356ZM130.307 325.392C129.541 325.392 129 325.607 128.683 326.036C128.365 326.465 128.202 327.119 128.193 327.996V328.234C128.193 329.158 128.342 329.872 128.641 330.376C128.949 330.871 129.513 331.118 130.335 331.118C130.783 331.118 131.156 330.997 131.455 330.754C131.753 330.502 131.973 330.157 132.113 329.718C132.262 329.279 132.337 328.78 132.337 328.22C132.337 327.361 132.169 326.675 131.833 326.162C131.506 325.649 130.997 325.392 130.307 325.392ZM138.08 331.132C138.266 331.132 138.458 331.118 138.654 331.09C138.85 331.062 139.008 331.025 139.13 330.978V331.916C138.999 331.981 138.812 332.033 138.57 332.07C138.327 332.117 138.094 332.14 137.87 332.14C137.478 332.14 137.114 332.075 136.778 331.944C136.451 331.804 136.185 331.566 135.98 331.23C135.774 330.894 135.672 330.423 135.672 329.816V325.448H134.608V324.86L135.686 324.37L136.176 322.774H136.904V324.496H139.074V325.448H136.904V329.788C136.904 330.245 137.011 330.586 137.226 330.81C137.45 331.025 137.734 331.132 138.08 331.132ZM141.262 321.682C141.449 321.682 141.612 321.747 141.752 321.878C141.902 321.999 141.976 322.195 141.976 322.466C141.976 322.737 141.902 322.937 141.752 323.068C141.612 323.189 141.449 323.25 141.262 323.25C141.057 323.25 140.884 323.189 140.744 323.068C140.604 322.937 140.534 322.737 140.534 322.466C140.534 322.195 140.604 321.999 140.744 321.878C140.884 321.747 141.057 321.682 141.262 321.682ZM141.864 324.496V332H140.632V324.496H141.864ZM150.766 328.234C150.766 329.475 150.448 330.437 149.814 331.118C149.188 331.799 148.339 332.14 147.266 332.14C146.603 332.14 146.01 331.991 145.488 331.692C144.974 331.384 144.568 330.941 144.27 330.362C143.971 329.774 143.822 329.065 143.822 328.234C143.822 326.993 144.13 326.036 144.746 325.364C145.371 324.692 146.225 324.356 147.308 324.356C147.98 324.356 148.577 324.51 149.1 324.818C149.622 325.117 150.028 325.555 150.318 326.134C150.616 326.703 150.766 327.403 150.766 328.234ZM145.096 328.234C145.096 329.121 145.268 329.825 145.614 330.348C145.968 330.861 146.528 331.118 147.294 331.118C148.05 331.118 148.605 330.861 148.96 330.348C149.314 329.825 149.492 329.121 149.492 328.234C149.492 327.347 149.314 326.652 148.96 326.148C148.605 325.644 148.045 325.392 147.28 325.392C146.514 325.392 145.959 325.644 145.614 326.148C145.268 326.652 145.096 327.347 145.096 328.234ZM156.33 324.356C157.226 324.356 157.903 324.575 158.36 325.014C158.818 325.453 159.046 326.153 159.046 327.114V332H157.828V327.198C157.828 325.994 157.268 325.392 156.148 325.392C155.318 325.392 154.744 325.625 154.426 326.092C154.109 326.559 153.95 327.231 153.95 328.108V332H152.718V324.496H153.712L153.894 325.518H153.964C154.207 325.126 154.543 324.837 154.972 324.65C155.402 324.454 155.854 324.356 156.33 324.356ZM165.723 332L169.825 323.124H164.435V322.004H171.141V322.956L167.081 332H165.723Z" fill="black"/>
<rect x="106.333" y="92.5" width="199.333" height="253" rx="4.5" stroke="black" stroke-opacity="0.15"/>
</g>
<rect x="106.5" y="57.5" width="199" height="35" rx="1.5" fill="white"/>
<path d="M125.028 77.326C125.028 78.2127 124.706 78.9033 124.062 79.398C123.418 79.8927 122.55 80.14 121.458 80.14C120.898 80.14 120.38 80.098 119.904 80.014C119.428 79.93 119.031 79.8133 118.714 79.664V78.46C119.05 78.6093 119.465 78.7447 119.96 78.866C120.464 78.9873 120.982 79.048 121.514 79.048C122.251 79.048 122.811 78.9033 123.194 78.614C123.577 78.3247 123.768 77.9327 123.768 77.438C123.768 77.1113 123.698 76.836 123.558 76.612C123.418 76.388 123.175 76.1827 122.83 75.996C122.485 75.8093 122.013 75.604 121.416 75.38C120.557 75.072 119.913 74.694 119.484 74.246C119.055 73.798 118.84 73.1867 118.84 72.412C118.84 71.8893 118.975 71.4367 119.246 71.054C119.517 70.6713 119.89 70.3773 120.366 70.172C120.842 69.9667 121.397 69.864 122.032 69.864C122.573 69.864 123.073 69.9153 123.53 70.018C123.987 70.1207 124.407 70.256 124.79 70.424L124.398 71.502C124.053 71.3527 123.675 71.2267 123.264 71.124C122.853 71.0213 122.433 70.97 122.004 70.97C121.379 70.97 120.907 71.1053 120.59 71.376C120.273 71.6373 120.114 71.9873 120.114 72.426C120.114 72.762 120.184 73.042 120.324 73.266C120.464 73.49 120.693 73.6953 121.01 73.882C121.327 74.0593 121.757 74.246 122.298 74.442C122.886 74.6567 123.381 74.89 123.782 75.142C124.193 75.3847 124.501 75.6787 124.706 76.024C124.921 76.3693 125.028 76.8033 125.028 77.326ZM129.772 72.356C130.406 72.356 130.957 72.496 131.424 72.776C131.89 73.056 132.245 73.4527 132.488 73.966C132.74 74.47 132.866 75.0627 132.866 75.744V76.486H127.728C127.746 77.3353 127.961 77.984 128.372 78.432C128.792 78.8707 129.375 79.09 130.122 79.09C130.598 79.09 131.018 79.048 131.382 78.964C131.755 78.8707 132.138 78.74 132.53 78.572V79.65C132.147 79.818 131.769 79.9393 131.396 80.014C131.022 80.098 130.579 80.14 130.066 80.14C129.347 80.14 128.717 79.9953 128.176 79.706C127.634 79.4167 127.21 78.9873 126.902 78.418C126.603 77.8487 126.454 77.144 126.454 76.304C126.454 75.4827 126.589 74.778 126.86 74.19C127.14 73.602 127.527 73.1493 128.022 72.832C128.526 72.5147 129.109 72.356 129.772 72.356ZM129.758 73.364C129.17 73.364 128.703 73.5553 128.358 73.938C128.022 74.3113 127.821 74.834 127.756 75.506H131.578C131.568 74.8713 131.419 74.358 131.13 73.966C130.84 73.5647 130.383 73.364 129.758 73.364ZM136.008 80H134.776V69.36H136.008V80ZM141.283 72.356C141.918 72.356 142.469 72.496 142.935 72.776C143.402 73.056 143.757 73.4527 143.999 73.966C144.251 74.47 144.377 75.0627 144.377 75.744V76.486H139.239C139.258 77.3353 139.473 77.984 139.883 78.432C140.303 78.8707 140.887 79.09 141.633 79.09C142.109 79.09 142.529 79.048 142.893 78.964C143.267 78.8707 143.649 78.74 144.041 78.572V79.65C143.659 79.818 143.281 79.9393 142.907 80.014C142.534 80.098 142.091 80.14 141.577 80.14C140.859 80.14 140.229 79.9953 139.687 79.706C139.146 79.4167 138.721 78.9873 138.413 78.418C138.115 77.8487 137.965 77.144 137.965 76.304C137.965 75.4827 138.101 74.778 138.371 74.19C138.651 73.602 139.039 73.1493 139.533 72.832C140.037 72.5147 140.621 72.356 141.283 72.356ZM141.269 73.364C140.681 73.364 140.215 73.5553 139.869 73.938C139.533 74.3113 139.333 74.834 139.267 75.506H143.089C143.08 74.8713 142.931 74.358 142.641 73.966C142.352 73.5647 141.895 73.364 141.269 73.364ZM149.298 80.14C148.626 80.14 148.033 80.0047 147.52 79.734C147.006 79.4633 146.6 79.0433 146.302 78.474C146.012 77.9047 145.868 77.1767 145.868 76.29C145.868 75.366 146.017 74.6147 146.316 74.036C146.624 73.4573 147.044 73.0327 147.576 72.762C148.108 72.4913 148.71 72.356 149.382 72.356C149.755 72.356 150.119 72.398 150.474 72.482C150.838 72.5567 151.132 72.65 151.356 72.762L150.978 73.784C150.754 73.7 150.492 73.6207 150.194 73.546C149.895 73.4713 149.615 73.434 149.354 73.434C147.879 73.434 147.142 74.3813 147.142 76.276C147.142 77.1813 147.319 77.8767 147.674 78.362C148.038 78.838 148.574 79.076 149.284 79.076C149.685 79.076 150.044 79.034 150.362 78.95C150.679 78.866 150.968 78.7633 151.23 78.642V79.734C150.978 79.8647 150.698 79.9627 150.39 80.028C150.091 80.1027 149.727 80.14 149.298 80.14ZM155.52 79.132C155.707 79.132 155.898 79.118 156.094 79.09C156.29 79.062 156.449 79.0247 156.57 78.978V79.916C156.44 79.9813 156.253 80.0327 156.01 80.07C155.768 80.1167 155.534 80.14 155.31 80.14C154.918 80.14 154.554 80.0747 154.218 79.944C153.892 79.804 153.626 79.566 153.42 79.23C153.215 78.894 153.112 78.4227 153.112 77.816V73.448H152.048V72.86L153.126 72.37L153.616 70.774H154.344V72.496H156.514V73.448H154.344V77.788C154.344 78.2453 154.452 78.586 154.666 78.81C154.89 79.0247 155.175 79.132 155.52 79.132Z" fill="black"/>
<path d="M286.012 78.3625C285.912 78.3625 285.812 78.3125 285.762 78.2625L280.113 72.6625C279.962 72.5125 279.962 72.2625 280.113 72.1125C280.263 71.9625 280.512 71.9625 280.662 72.1125L286.012 77.4625L291.312 72.1125C291.462 71.9625 291.713 71.9625 291.863 72.1125C292.012 72.2625 292.012 72.5125 291.863 72.6625L286.262 78.2625C286.162 78.3125 286.112 78.3625 286.012 78.3625Z" fill="#323232"/>
<rect x="106.5" y="57.5" width="199" height="35" rx="1.5" stroke="#939393"/>
<defs>
<filter id="filter0_d_7874_524648" x="101.833" y="92" width="208.333" height="262" filterUnits="userSpaceOnUse" color-interpolation-filters="sRGB">
<feFlood flood-opacity="0" result="BackgroundImageFix"/>
<feColorMatrix in="SourceAlpha" type="matrix" values="0 0 0 0 0 0 0 0 0 0 0 0 0 0 0 0 0 0 127 0" result="hardAlpha"/>
<feOffset dy="4"/>
<feGaussianBlur stdDeviation="2"/>
<feColorMatrix type="matrix" values="0 0 0 0 0 0 0 0 0 0 0 0 0 0 0 0 0 0 0.25 0"/>
<feBlend mode="normal" in2="BackgroundImageFix" result="effect1_dropShadow_7874_524648"/>
<feBlend mode="normal" in="SourceGraphic" in2="effect1_dropShadow_7874_524648" result="shape"/>
</filter>
</defs>
</svg>
