<svg width="428" height="162" viewBox="0 0 428 162" fill="none" xmlns="http://www.w3.org/2000/svg">
<rect width="428" height="162" fill="white"/>
<path d="M65.746 43V30.148H67.366V41.56H72.982V43H65.746ZM78.6235 33.19C79.7995 33.19 80.6695 33.448 81.2335 33.964C81.7975 34.48 82.0795 35.302 82.0795 36.43V43H80.9275L80.6215 41.632H80.5495C80.1295 42.16 79.6855 42.55 79.2175 42.802C78.7495 43.054 78.1135 43.18 77.3095 43.18C76.4335 43.18 75.7075 42.952 75.1315 42.496C74.5555 42.028 74.2675 41.302 74.2675 40.318C74.2675 39.358 74.6455 38.62 75.4015 38.104C76.1575 37.576 77.3215 37.288 78.8935 37.24L80.5315 37.186V36.61C80.5315 35.806 80.3575 35.248 80.0095 34.936C79.6615 34.624 79.1695 34.468 78.5335 34.468C78.0295 34.468 77.5495 34.546 77.0935 34.702C76.6375 34.846 76.2115 35.014 75.8155 35.206L75.3295 34.018C75.7495 33.79 76.2475 33.598 76.8235 33.442C77.3995 33.274 77.9995 33.19 78.6235 33.19ZM80.5135 38.284L79.0915 38.338C77.8915 38.386 77.0575 38.578 76.5895 38.914C76.1335 39.25 75.9055 39.724 75.9055 40.336C75.9055 40.876 76.0675 41.272 76.3915 41.524C76.7275 41.776 77.1535 41.902 77.6695 41.902C78.4735 41.902 79.1455 41.68 79.6855 41.236C80.2375 40.78 80.5135 40.084 80.5135 39.148V38.284ZM86.6433 29.32V32.65C86.6433 33.058 86.6313 33.442 86.6073 33.802C86.5953 34.15 86.5773 34.426 86.5533 34.63H86.6433C86.9193 34.222 87.2973 33.88 87.7773 33.604C88.2573 33.328 88.8753 33.19 89.6313 33.19C90.8313 33.19 91.7913 33.61 92.5113 34.45C93.2433 35.278 93.6093 36.52 93.6093 38.176C93.6093 39.832 93.2433 41.08 92.5113 41.92C91.7793 42.76 90.8193 43.18 89.6313 43.18C88.8753 43.18 88.2573 43.042 87.7773 42.766C87.2973 42.49 86.9193 42.16 86.6433 41.776H86.5173L86.1933 43H85.0593V29.32H86.6433ZM89.3613 34.504C88.3293 34.504 87.6153 34.798 87.2193 35.386C86.8353 35.974 86.6433 36.886 86.6433 38.122V38.194C86.6433 39.382 86.8353 40.294 87.2193 40.93C87.6153 41.554 88.3413 41.866 89.3973 41.866C90.2613 41.866 90.9033 41.548 91.3233 40.912C91.7553 40.276 91.9713 39.358 91.9713 38.158C91.9713 35.722 91.1013 34.504 89.3613 34.504ZM99.8595 33.172C100.676 33.172 101.384 33.352 101.984 33.712C102.584 34.072 103.04 34.582 103.352 35.242C103.676 35.89 103.838 36.652 103.838 37.528V38.482H97.2315C97.2555 39.574 97.5315 40.408 98.0595 40.984C98.5995 41.548 99.3495 41.83 100.31 41.83C100.922 41.83 101.462 41.776 101.93 41.668C102.41 41.548 102.902 41.38 103.406 41.164V42.55C102.914 42.766 102.428 42.922 101.948 43.018C101.468 43.126 100.898 43.18 100.238 43.18C99.3135 43.18 98.5035 42.994 97.8075 42.622C97.1115 42.25 96.5655 41.698 96.1695 40.966C95.7855 40.234 95.5935 39.328 95.5935 38.248C95.5935 37.192 95.7675 36.286 96.1155 35.53C96.4755 34.774 96.9735 34.192 97.6095 33.784C98.2575 33.376 99.0075 33.172 99.8595 33.172ZM99.8415 34.468C99.0855 34.468 98.4855 34.714 98.0415 35.206C97.6095 35.686 97.3515 36.358 97.2675 37.222H102.182C102.17 36.406 101.978 35.746 101.606 35.242C101.234 34.726 100.646 34.468 99.8415 34.468ZM107.878 43H106.294V29.32H107.878V43Z" fill="#323232"/>
<rect x="64.75" y="54.75" width="298.5" height="52.5" rx="2.25" fill="white"/>
<path d="M88.783 89H86.893V75.665H82.21V74.006H93.445V75.665H88.783V89ZM98.3244 77.534C99.2764 77.534 100.102 77.744 100.802 78.164C101.502 78.584 102.034 79.179 102.398 79.949C102.776 80.705 102.965 81.594 102.965 82.616V83.729H95.2584C95.2864 85.003 95.6084 85.976 96.2244 86.648C96.8544 87.306 97.7294 87.635 98.8494 87.635C99.5634 87.635 100.193 87.572 100.739 87.446C101.299 87.306 101.873 87.11 102.461 86.858V88.475C101.887 88.727 101.32 88.909 100.76 89.021C100.2 89.147 99.5354 89.21 98.7654 89.21C97.6874 89.21 96.7424 88.993 95.9304 88.559C95.1184 88.125 94.4814 87.481 94.0194 86.627C93.5714 85.773 93.3474 84.716 93.3474 83.456C93.3474 82.224 93.5504 81.167 93.9564 80.285C94.3764 79.403 94.9574 78.724 95.6994 78.248C96.4554 77.772 97.3304 77.534 98.3244 77.534ZM98.3034 79.046C97.4214 79.046 96.7214 79.333 96.2034 79.907C95.6994 80.467 95.3984 81.251 95.3004 82.259H101.033C101.019 81.307 100.795 80.537 100.361 79.949C99.9274 79.347 99.2414 79.046 98.3034 79.046ZM108.088 83.246L104.203 77.744H106.303L109.201 81.986L112.078 77.744H114.157L110.272 83.246L114.367 89H112.267L109.201 84.506L106.093 89H104.014L108.088 83.246ZM120.295 87.698C120.575 87.698 120.862 87.677 121.156 87.635C121.45 87.593 121.688 87.537 121.87 87.467V88.874C121.674 88.972 121.394 89.049 121.03 89.105C120.666 89.175 120.316 89.21 119.98 89.21C119.392 89.21 118.846 89.112 118.342 88.916C117.852 88.706 117.453 88.349 117.145 87.845C116.837 87.341 116.683 86.634 116.683 85.724V79.172H115.087V78.29L116.704 77.555L117.439 75.161H118.531V77.744H121.786V79.172H118.531V85.682C118.531 86.368 118.692 86.879 119.014 87.215C119.35 87.537 119.777 87.698 120.295 87.698Z" fill="black"/>
<path d="M334.019 86.0437C333.869 86.0437 333.719 85.9687 333.644 85.8937L325.169 77.4937C324.944 77.2687 324.944 76.8937 325.169 76.6687C325.394 76.4438 325.769 76.4438 325.994 76.6687L334.019 84.6937L341.969 76.6687C342.194 76.4438 342.569 76.4438 342.794 76.6687C343.019 76.8937 343.019 77.2687 342.794 77.4937L334.394 85.8937C334.244 85.9687 334.169 86.0437 334.019 86.0437Z" fill="#323232"/>
<rect x="64.75" y="54.75" width="298.5" height="52.5" rx="2.25" stroke="#B51418" stroke-width="1.5"/>
<path d="M75.9849 132.063C76.526 132.063 76.9646 131.625 76.9646 131.084C76.9646 130.543 76.526 130.104 75.9849 130.104C75.4438 130.104 75.0052 130.543 75.0052 131.084C75.0052 131.625 75.4438 132.063 75.9849 132.063Z" fill="#B51418"/>
<path d="M75.9849 128.406C76.0589 128.407 76.1323 128.394 76.2008 128.366C76.2693 128.338 76.3315 128.297 76.3838 128.244C76.4361 128.192 76.4774 128.13 76.5052 128.061C76.533 127.993 76.5468 127.919 76.5458 127.845V122.042C76.5458 121.893 76.4867 121.75 76.3815 121.645C76.2764 121.54 76.1337 121.481 75.9849 121.481C75.8362 121.481 75.6935 121.54 75.5883 121.645C75.4831 121.75 75.424 121.893 75.424 122.042V127.845C75.424 127.994 75.4831 128.137 75.5883 128.242C75.6935 128.347 75.8362 128.406 75.9849 128.406Z" fill="#B51418"/>
<path d="M86.1561 131.936L77.9294 117.435C77.7378 117.077 77.4526 116.778 77.1042 116.569C76.7558 116.36 76.3574 116.25 75.9513 116.25C75.5452 116.25 75.1467 116.36 74.7983 116.569C74.45 116.778 74.1647 117.077 73.9731 117.435L65.8137 131.936C65.6111 132.278 65.5029 132.667 65.5001 133.065C65.4972 133.462 65.6 133.853 65.7977 134.197C65.9955 134.542 66.2812 134.828 66.6257 135.026C66.9701 135.224 67.361 135.327 67.7582 135.324H84.2116C84.6114 135.332 85.0061 135.233 85.3548 135.037C85.7035 134.842 85.9935 134.556 86.1948 134.211C86.3962 133.865 86.5015 133.472 86.5 133.072C86.4984 132.672 86.39 132.28 86.186 131.936H86.1561ZM85.1764 133.634C85.0821 133.81 84.9434 133.957 84.774 134.062C84.6047 134.167 84.4108 134.226 84.2116 134.232H67.7582C67.557 134.234 67.3588 134.182 67.1841 134.083C67.0093 133.983 66.8642 133.838 66.7636 133.664C66.6646 133.49 66.6125 133.292 66.6125 133.092C66.6125 132.891 66.6646 132.694 66.7636 132.52L74.9902 118.018C75.0907 117.841 75.2364 117.693 75.4124 117.591C75.5885 117.488 75.7886 117.434 75.9924 117.434C76.1962 117.434 76.3963 117.488 76.5724 117.591C76.7485 117.693 76.8941 117.841 76.9946 118.018L85.2213 132.52C85.3101 132.694 85.3527 132.888 85.3449 133.083C85.337 133.278 85.279 133.468 85.1764 133.634Z" fill="#B51418"/>
<path d="M102.928 133H95.746V120.148H102.928V121.57H97.366V125.584H102.604V126.988H97.366V131.578H102.928V133ZM110.032 123.172C110.212 123.172 110.404 123.184 110.608 123.208C110.812 123.22 110.998 123.244 111.166 123.28L110.968 124.738C110.812 124.702 110.638 124.672 110.446 124.648C110.254 124.624 110.08 124.612 109.924 124.612C109.432 124.612 108.97 124.75 108.538 125.026C108.106 125.29 107.758 125.668 107.494 126.16C107.242 126.64 107.116 127.204 107.116 127.852V133H105.532V123.352H106.828L107.008 125.116H107.08C107.38 124.588 107.776 124.132 108.268 123.748C108.772 123.364 109.36 123.172 110.032 123.172ZM117.468 123.172C117.648 123.172 117.84 123.184 118.044 123.208C118.248 123.22 118.434 123.244 118.602 123.28L118.404 124.738C118.248 124.702 118.074 124.672 117.882 124.648C117.69 124.624 117.516 124.612 117.36 124.612C116.868 124.612 116.406 124.75 115.974 125.026C115.542 125.29 115.194 125.668 114.93 126.16C114.678 126.64 114.552 127.204 114.552 127.852V133H112.968V123.352H114.264L114.444 125.116H114.516C114.816 124.588 115.212 124.132 115.704 123.748C116.208 123.364 116.796 123.172 117.468 123.172ZM128.439 128.158C128.439 129.754 128.031 130.99 127.215 131.866C126.411 132.742 125.319 133.18 123.939 133.18C123.087 133.18 122.325 132.988 121.653 132.604C120.993 132.208 120.471 131.638 120.087 130.894C119.703 130.138 119.511 129.226 119.511 128.158C119.511 126.562 119.907 125.332 120.699 124.468C121.503 123.604 122.601 123.172 123.993 123.172C124.857 123.172 125.625 123.37 126.297 123.766C126.969 124.15 127.491 124.714 127.863 125.458C128.247 126.19 128.439 127.09 128.439 128.158ZM121.149 128.158C121.149 129.298 121.371 130.204 121.815 130.876C122.271 131.536 122.991 131.866 123.975 131.866C124.947 131.866 125.661 131.536 126.117 130.876C126.573 130.204 126.801 129.298 126.801 128.158C126.801 127.018 126.573 126.124 126.117 125.476C125.661 124.828 124.941 124.504 123.957 124.504C122.973 124.504 122.259 124.828 121.815 125.476C121.371 126.124 121.149 127.018 121.149 128.158ZM135.45 123.172C135.63 123.172 135.822 123.184 136.026 123.208C136.23 123.22 136.416 123.244 136.584 123.28L136.386 124.738C136.23 124.702 136.056 124.672 135.864 124.648C135.672 124.624 135.498 124.612 135.342 124.612C134.85 124.612 134.388 124.75 133.956 125.026C133.524 125.29 133.176 125.668 132.912 126.16C132.66 126.64 132.534 127.204 132.534 127.852V133H130.95V123.352H132.246L132.426 125.116H132.498C132.798 124.588 133.194 124.132 133.686 123.748C134.19 123.364 134.778 123.172 135.45 123.172ZM153.645 123.172C154.737 123.172 155.553 123.454 156.093 124.018C156.633 124.582 156.903 125.482 156.903 126.718V133H155.337V126.79C155.337 125.266 154.683 124.504 153.375 124.504C152.439 124.504 151.767 124.774 151.359 125.314C150.963 125.854 150.765 126.64 150.765 127.672V133H149.199V126.79C149.199 125.266 148.539 124.504 147.219 124.504C146.247 124.504 145.575 124.804 145.203 125.404C144.831 126.004 144.645 126.868 144.645 127.996V133H143.061V123.352H144.339L144.573 124.666H144.663C144.963 124.162 145.365 123.79 145.869 123.55C146.385 123.298 146.931 123.172 147.507 123.172C149.019 123.172 150.003 123.712 150.459 124.792H150.549C150.873 124.24 151.311 123.832 151.863 123.568C152.415 123.304 153.009 123.172 153.645 123.172ZM163.61 123.172C164.426 123.172 165.134 123.352 165.734 123.712C166.334 124.072 166.79 124.582 167.102 125.242C167.426 125.89 167.588 126.652 167.588 127.528V128.482H160.982C161.006 129.574 161.282 130.408 161.81 130.984C162.35 131.548 163.1 131.83 164.06 131.83C164.672 131.83 165.212 131.776 165.68 131.668C166.16 131.548 166.652 131.38 167.156 131.164V132.55C166.664 132.766 166.178 132.922 165.698 133.018C165.218 133.126 164.648 133.18 163.988 133.18C163.064 133.18 162.254 132.994 161.558 132.622C160.862 132.25 160.316 131.698 159.92 130.966C159.536 130.234 159.344 129.328 159.344 128.248C159.344 127.192 159.518 126.286 159.866 125.53C160.226 124.774 160.724 124.192 161.36 123.784C162.008 123.376 162.758 123.172 163.61 123.172ZM163.592 124.468C162.836 124.468 162.236 124.714 161.792 125.206C161.36 125.686 161.102 126.358 161.018 127.222H165.932C165.92 126.406 165.728 125.746 165.356 125.242C164.984 124.726 164.396 124.468 163.592 124.468ZM176.326 130.336C176.326 131.272 175.978 131.98 175.282 132.46C174.586 132.94 173.65 133.18 172.474 133.18C171.802 133.18 171.22 133.126 170.728 133.018C170.248 132.91 169.822 132.76 169.45 132.568V131.128C169.834 131.32 170.296 131.5 170.836 131.668C171.388 131.824 171.946 131.902 172.51 131.902C173.314 131.902 173.896 131.776 174.256 131.524C174.616 131.26 174.796 130.912 174.796 130.48C174.796 130.24 174.73 130.024 174.598 129.832C174.466 129.64 174.226 129.448 173.878 129.256C173.542 129.064 173.056 128.848 172.42 128.608C171.796 128.368 171.262 128.128 170.818 127.888C170.374 127.648 170.032 127.36 169.792 127.024C169.552 126.688 169.432 126.256 169.432 125.728C169.432 124.912 169.762 124.282 170.422 123.838C171.094 123.394 171.97 123.172 173.05 123.172C173.638 123.172 174.184 123.232 174.688 123.352C175.204 123.472 175.684 123.628 176.128 123.82L175.588 125.08C175.18 124.912 174.754 124.768 174.31 124.648C173.866 124.528 173.41 124.468 172.942 124.468C172.294 124.468 171.796 124.576 171.448 124.792C171.112 124.996 170.944 125.278 170.944 125.638C170.944 125.914 171.022 126.142 171.178 126.322C171.334 126.502 171.592 126.682 171.952 126.862C172.324 127.042 172.816 127.246 173.428 127.474C174.04 127.702 174.562 127.936 174.994 128.176C175.426 128.416 175.756 128.71 175.984 129.058C176.212 129.394 176.326 129.82 176.326 130.336ZM184.939 130.336C184.939 131.272 184.591 131.98 183.895 132.46C183.199 132.94 182.263 133.18 181.087 133.18C180.415 133.18 179.833 133.126 179.341 133.018C178.861 132.91 178.435 132.76 178.063 132.568V131.128C178.447 131.32 178.909 131.5 179.449 131.668C180.001 131.824 180.559 131.902 181.123 131.902C181.927 131.902 182.509 131.776 182.869 131.524C183.229 131.26 183.409 130.912 183.409 130.48C183.409 130.24 183.343 130.024 183.211 129.832C183.079 129.64 182.839 129.448 182.491 129.256C182.155 129.064 181.669 128.848 181.033 128.608C180.409 128.368 179.875 128.128 179.431 127.888C178.987 127.648 178.645 127.36 178.405 127.024C178.165 126.688 178.045 126.256 178.045 125.728C178.045 124.912 178.375 124.282 179.035 123.838C179.707 123.394 180.583 123.172 181.663 123.172C182.251 123.172 182.797 123.232 183.301 123.352C183.817 123.472 184.297 123.628 184.741 123.82L184.201 125.08C183.793 124.912 183.367 124.768 182.923 124.648C182.479 124.528 182.023 124.468 181.555 124.468C180.907 124.468 180.409 124.576 180.061 124.792C179.725 124.996 179.557 125.278 179.557 125.638C179.557 125.914 179.635 126.142 179.791 126.322C179.947 126.502 180.205 126.682 180.565 126.862C180.937 127.042 181.429 127.246 182.041 127.474C182.653 127.702 183.175 127.936 183.607 128.176C184.039 128.416 184.369 128.71 184.597 129.058C184.825 129.394 184.939 129.82 184.939 130.336ZM190.924 123.19C192.1 123.19 192.97 123.448 193.534 123.964C194.098 124.48 194.38 125.302 194.38 126.43V133H193.228L192.922 131.632H192.85C192.43 132.16 191.986 132.55 191.518 132.802C191.05 133.054 190.414 133.18 189.61 133.18C188.734 133.18 188.008 132.952 187.432 132.496C186.856 132.028 186.568 131.302 186.568 130.318C186.568 129.358 186.946 128.62 187.702 128.104C188.458 127.576 189.622 127.288 191.194 127.24L192.832 127.186V126.61C192.832 125.806 192.658 125.248 192.31 124.936C191.962 124.624 191.47 124.468 190.834 124.468C190.33 124.468 189.85 124.546 189.394 124.702C188.938 124.846 188.512 125.014 188.116 125.206L187.63 124.018C188.05 123.79 188.548 123.598 189.124 123.442C189.7 123.274 190.3 123.19 190.924 123.19ZM192.814 128.284L191.392 128.338C190.192 128.386 189.358 128.578 188.89 128.914C188.434 129.25 188.206 129.724 188.206 130.336C188.206 130.876 188.368 131.272 188.692 131.524C189.028 131.776 189.454 131.902 189.97 131.902C190.774 131.902 191.446 131.68 191.986 131.236C192.538 130.78 192.814 130.084 192.814 129.148V128.284ZM200.78 123.172C201.416 123.172 201.986 123.292 202.49 123.532C203.006 123.772 203.444 124.138 203.804 124.63H203.894L204.11 123.352H205.37V133.162C205.37 134.542 205.016 135.58 204.308 136.276C203.612 136.972 202.526 137.32 201.05 137.32C199.634 137.32 198.476 137.116 197.576 136.708V135.25C198.524 135.754 199.712 136.006 201.14 136.006C201.968 136.006 202.616 135.76 203.084 135.268C203.564 134.788 203.804 134.128 203.804 133.288V132.91C203.804 132.766 203.81 132.562 203.822 132.298C203.834 132.022 203.846 131.83 203.858 131.722H203.786C203.138 132.694 202.142 133.18 200.798 133.18C199.55 133.18 198.572 132.742 197.864 131.866C197.168 130.99 196.82 129.766 196.82 128.194C196.82 126.658 197.168 125.44 197.864 124.54C198.572 123.628 199.544 123.172 200.78 123.172ZM200.996 124.504C200.192 124.504 199.568 124.828 199.124 125.476C198.68 126.112 198.458 127.024 198.458 128.212C198.458 129.4 198.674 130.312 199.106 130.948C199.538 131.572 200.18 131.884 201.032 131.884C202.004 131.884 202.712 131.626 203.156 131.11C203.6 130.582 203.822 129.736 203.822 128.572V128.194C203.822 126.886 203.594 125.944 203.138 125.368C202.682 124.792 201.968 124.504 200.996 124.504ZM212.16 123.172C212.976 123.172 213.684 123.352 214.284 123.712C214.884 124.072 215.34 124.582 215.652 125.242C215.976 125.89 216.138 126.652 216.138 127.528V128.482H209.532C209.556 129.574 209.832 130.408 210.36 130.984C210.9 131.548 211.65 131.83 212.61 131.83C213.222 131.83 213.762 131.776 214.23 131.668C214.71 131.548 215.202 131.38 215.706 131.164V132.55C215.214 132.766 214.728 132.922 214.248 133.018C213.768 133.126 213.198 133.18 212.538 133.18C211.614 133.18 210.804 132.994 210.108 132.622C209.412 132.25 208.866 131.698 208.47 130.966C208.086 130.234 207.894 129.328 207.894 128.248C207.894 127.192 208.068 126.286 208.416 125.53C208.776 124.774 209.274 124.192 209.91 123.784C210.558 123.376 211.308 123.172 212.16 123.172ZM212.142 124.468C211.386 124.468 210.786 124.714 210.342 125.206C209.91 125.686 209.652 126.358 209.568 127.222H214.482C214.47 126.406 214.278 125.746 213.906 125.242C213.534 124.726 212.946 124.468 212.142 124.468Z" fill="#B51418"/>
</svg>
