<svg width="428" height="250" viewBox="0 0 428 250" fill="none" xmlns="http://www.w3.org/2000/svg">
<rect width="428" height="250" fill="white"/>
<g filter="url(#filter0_d_8211_481086)">
<rect x="141" y="81" width="200" height="144" rx="4" fill="white"/>
<path d="M159.08 98.988C159.08 100.024 158.903 100.929 158.548 101.704C158.203 102.469 157.685 103.067 156.994 103.496C156.313 103.925 155.473 104.14 154.474 104.14C153.438 104.14 152.575 103.925 151.884 103.496C151.203 103.067 150.694 102.465 150.358 101.69C150.022 100.915 149.854 100.01 149.854 98.974C149.854 97.9567 150.022 97.0653 150.358 96.3C150.694 95.5253 151.203 94.9233 151.884 94.494C152.575 94.0647 153.443 93.85 154.488 93.85C155.487 93.85 156.327 94.0647 157.008 94.494C157.689 94.914 158.203 95.5113 158.548 96.286C158.903 97.0513 159.08 97.952 159.08 98.988ZM151.184 98.988C151.184 100.248 151.45 101.242 151.982 101.97C152.514 102.689 153.345 103.048 154.474 103.048C155.603 103.048 156.429 102.689 156.952 101.97C157.484 101.242 157.75 100.248 157.75 98.988C157.75 97.728 157.489 96.7433 156.966 96.034C156.443 95.3153 155.617 94.956 154.488 94.956C153.349 94.956 152.514 95.3153 151.982 96.034C151.45 96.7433 151.184 97.728 151.184 98.988ZM164.698 96.356C165.622 96.356 166.364 96.678 166.924 97.322C167.493 97.966 167.778 98.9367 167.778 100.234C167.778 101.513 167.493 102.483 166.924 103.146C166.364 103.809 165.617 104.14 164.684 104.14C164.105 104.14 163.624 104.033 163.242 103.818C162.868 103.603 162.574 103.347 162.36 103.048H162.276C162.285 103.207 162.299 103.407 162.318 103.65C162.346 103.893 162.36 104.103 162.36 104.28V107.36H161.128V96.496H162.136L162.304 97.518H162.36C162.584 97.1913 162.878 96.916 163.242 96.692C163.606 96.468 164.091 96.356 164.698 96.356ZM164.474 97.392C163.708 97.392 163.167 97.6067 162.85 98.036C162.532 98.4653 162.369 99.1187 162.36 99.996V100.234C162.36 101.158 162.509 101.872 162.808 102.376C163.116 102.871 163.68 103.118 164.502 103.118C164.95 103.118 165.323 102.997 165.622 102.754C165.92 102.502 166.14 102.157 166.28 101.718C166.429 101.279 166.504 100.78 166.504 100.22C166.504 99.3613 166.336 98.6753 166 98.162C165.673 97.6487 165.164 97.392 164.474 97.392ZM172.247 103.132C172.433 103.132 172.625 103.118 172.821 103.09C173.017 103.062 173.175 103.025 173.297 102.978V103.916C173.166 103.981 172.979 104.033 172.737 104.07C172.494 104.117 172.261 104.14 172.037 104.14C171.645 104.14 171.281 104.075 170.945 103.944C170.618 103.804 170.352 103.566 170.147 103.23C169.941 102.894 169.839 102.423 169.839 101.816V97.448H168.775V96.86L169.853 96.37L170.343 94.774H171.071V96.496H173.241V97.448H171.071V101.788C171.071 102.245 171.178 102.586 171.393 102.81C171.617 103.025 171.901 103.132 172.247 103.132ZM175.429 93.682C175.616 93.682 175.779 93.7473 175.919 93.878C176.069 93.9993 176.143 94.1953 176.143 94.466C176.143 94.7367 176.069 94.9373 175.919 95.068C175.779 95.1893 175.616 95.25 175.429 95.25C175.224 95.25 175.051 95.1893 174.911 95.068C174.771 94.9373 174.701 94.7367 174.701 94.466C174.701 94.1953 174.771 93.9993 174.911 93.878C175.051 93.7473 175.224 93.682 175.429 93.682ZM176.031 96.496V104H174.799V96.496H176.031ZM184.933 100.234C184.933 101.475 184.615 102.437 183.981 103.118C183.355 103.799 182.506 104.14 181.433 104.14C180.77 104.14 180.177 103.991 179.655 103.692C179.141 103.384 178.735 102.941 178.437 102.362C178.138 101.774 177.989 101.065 177.989 100.234C177.989 98.9927 178.297 98.036 178.913 97.364C179.538 96.692 180.392 96.356 181.475 96.356C182.147 96.356 182.744 96.51 183.267 96.818C183.789 97.1167 184.195 97.5553 184.485 98.134C184.783 98.7033 184.933 99.4033 184.933 100.234ZM179.263 100.234C179.263 101.121 179.435 101.825 179.781 102.348C180.135 102.861 180.695 103.118 181.461 103.118C182.217 103.118 182.772 102.861 183.127 102.348C183.481 101.825 183.659 101.121 183.659 100.234C183.659 99.3473 183.481 98.652 183.127 98.148C182.772 97.644 182.212 97.392 181.447 97.392C180.681 97.392 180.126 97.644 179.781 98.148C179.435 98.652 179.263 99.3473 179.263 100.234ZM190.497 96.356C191.393 96.356 192.07 96.5753 192.527 97.014C192.985 97.4527 193.213 98.1527 193.213 99.114V104H191.995V99.198C191.995 97.994 191.435 97.392 190.315 97.392C189.485 97.392 188.911 97.6253 188.593 98.092C188.276 98.5587 188.117 99.2307 188.117 100.108V104H186.885V96.496H187.879L188.061 97.518H188.131C188.374 97.126 188.71 96.8367 189.139 96.65C189.569 96.454 190.021 96.356 190.497 96.356ZM202.956 104H201.752V97.014C201.752 96.6127 201.757 96.2907 201.766 96.048C201.776 95.8053 201.79 95.5533 201.808 95.292C201.659 95.4413 201.519 95.5673 201.388 95.67C201.267 95.7727 201.118 95.9033 200.94 96.062L199.876 96.93L199.232 96.104L201.934 94.004H202.956V104Z" fill="black"/>
<path d="M159.08 134.988C159.08 136.024 158.903 136.929 158.548 137.704C158.203 138.469 157.685 139.067 156.994 139.496C156.313 139.925 155.473 140.14 154.474 140.14C153.438 140.14 152.575 139.925 151.884 139.496C151.203 139.067 150.694 138.465 150.358 137.69C150.022 136.915 149.854 136.01 149.854 134.974C149.854 133.957 150.022 133.065 150.358 132.3C150.694 131.525 151.203 130.923 151.884 130.494C152.575 130.065 153.443 129.85 154.488 129.85C155.487 129.85 156.327 130.065 157.008 130.494C157.689 130.914 158.203 131.511 158.548 132.286C158.903 133.051 159.08 133.952 159.08 134.988ZM151.184 134.988C151.184 136.248 151.45 137.242 151.982 137.97C152.514 138.689 153.345 139.048 154.474 139.048C155.603 139.048 156.429 138.689 156.952 137.97C157.484 137.242 157.75 136.248 157.75 134.988C157.75 133.728 157.489 132.743 156.966 132.034C156.443 131.315 155.617 130.956 154.488 130.956C153.349 130.956 152.514 131.315 151.982 132.034C151.45 132.743 151.184 133.728 151.184 134.988ZM164.698 132.356C165.622 132.356 166.364 132.678 166.924 133.322C167.493 133.966 167.778 134.937 167.778 136.234C167.778 137.513 167.493 138.483 166.924 139.146C166.364 139.809 165.617 140.14 164.684 140.14C164.105 140.14 163.624 140.033 163.242 139.818C162.868 139.603 162.574 139.347 162.36 139.048H162.276C162.285 139.207 162.299 139.407 162.318 139.65C162.346 139.893 162.36 140.103 162.36 140.28V143.36H161.128V132.496H162.136L162.304 133.518H162.36C162.584 133.191 162.878 132.916 163.242 132.692C163.606 132.468 164.091 132.356 164.698 132.356ZM164.474 133.392C163.708 133.392 163.167 133.607 162.85 134.036C162.532 134.465 162.369 135.119 162.36 135.996V136.234C162.36 137.158 162.509 137.872 162.808 138.376C163.116 138.871 163.68 139.118 164.502 139.118C164.95 139.118 165.323 138.997 165.622 138.754C165.92 138.502 166.14 138.157 166.28 137.718C166.429 137.279 166.504 136.78 166.504 136.22C166.504 135.361 166.336 134.675 166 134.162C165.673 133.649 165.164 133.392 164.474 133.392ZM172.247 139.132C172.433 139.132 172.625 139.118 172.821 139.09C173.017 139.062 173.175 139.025 173.297 138.978V139.916C173.166 139.981 172.979 140.033 172.737 140.07C172.494 140.117 172.261 140.14 172.037 140.14C171.645 140.14 171.281 140.075 170.945 139.944C170.618 139.804 170.352 139.566 170.147 139.23C169.941 138.894 169.839 138.423 169.839 137.816V133.448H168.775V132.86L169.853 132.37L170.343 130.774H171.071V132.496H173.241V133.448H171.071V137.788C171.071 138.245 171.178 138.586 171.393 138.81C171.617 139.025 171.901 139.132 172.247 139.132ZM175.429 129.682C175.616 129.682 175.779 129.747 175.919 129.878C176.069 129.999 176.143 130.195 176.143 130.466C176.143 130.737 176.069 130.937 175.919 131.068C175.779 131.189 175.616 131.25 175.429 131.25C175.224 131.25 175.051 131.189 174.911 131.068C174.771 130.937 174.701 130.737 174.701 130.466C174.701 130.195 174.771 129.999 174.911 129.878C175.051 129.747 175.224 129.682 175.429 129.682ZM176.031 132.496V140H174.799V132.496H176.031ZM184.933 136.234C184.933 137.475 184.615 138.437 183.981 139.118C183.355 139.799 182.506 140.14 181.433 140.14C180.77 140.14 180.177 139.991 179.655 139.692C179.141 139.384 178.735 138.941 178.437 138.362C178.138 137.774 177.989 137.065 177.989 136.234C177.989 134.993 178.297 134.036 178.913 133.364C179.538 132.692 180.392 132.356 181.475 132.356C182.147 132.356 182.744 132.51 183.267 132.818C183.789 133.117 184.195 133.555 184.485 134.134C184.783 134.703 184.933 135.403 184.933 136.234ZM179.263 136.234C179.263 137.121 179.435 137.825 179.781 138.348C180.135 138.861 180.695 139.118 181.461 139.118C182.217 139.118 182.772 138.861 183.127 138.348C183.481 137.825 183.659 137.121 183.659 136.234C183.659 135.347 183.481 134.652 183.127 134.148C182.772 133.644 182.212 133.392 181.447 133.392C180.681 133.392 180.126 133.644 179.781 134.148C179.435 134.652 179.263 135.347 179.263 136.234ZM190.497 132.356C191.393 132.356 192.07 132.575 192.527 133.014C192.985 133.453 193.213 134.153 193.213 135.114V140H191.995V135.198C191.995 133.994 191.435 133.392 190.315 133.392C189.485 133.392 188.911 133.625 188.593 134.092C188.276 134.559 188.117 135.231 188.117 136.108V140H186.885V132.496H187.879L188.061 133.518H188.131C188.374 133.126 188.71 132.837 189.139 132.65C189.569 132.454 190.021 132.356 190.497 132.356ZM205.266 140H198.658V138.978L201.276 136.332C201.771 135.828 202.191 135.38 202.536 134.988C202.891 134.596 203.157 134.213 203.334 133.84C203.512 133.467 203.6 133.051 203.6 132.594C203.6 132.043 203.437 131.628 203.11 131.348C202.784 131.059 202.359 130.914 201.836 130.914C201.342 130.914 200.912 130.998 200.548 131.166C200.184 131.334 199.811 131.567 199.428 131.866L198.77 131.04C199.162 130.713 199.61 130.438 200.114 130.214C200.628 129.981 201.202 129.864 201.836 129.864C202.77 129.864 203.507 130.102 204.048 130.578C204.59 131.054 204.86 131.703 204.86 132.524C204.86 133.047 204.753 133.537 204.538 133.994C204.324 134.451 204.025 134.904 203.642 135.352C203.26 135.8 202.812 136.271 202.298 136.766L200.212 138.824V138.88H205.266V140Z" fill="black"/>
<path d="M159.08 170.988C159.08 172.024 158.903 172.929 158.548 173.704C158.203 174.469 157.685 175.067 156.994 175.496C156.313 175.925 155.473 176.14 154.474 176.14C153.438 176.14 152.575 175.925 151.884 175.496C151.203 175.067 150.694 174.465 150.358 173.69C150.022 172.915 149.854 172.01 149.854 170.974C149.854 169.957 150.022 169.065 150.358 168.3C150.694 167.525 151.203 166.923 151.884 166.494C152.575 166.065 153.443 165.85 154.488 165.85C155.487 165.85 156.327 166.065 157.008 166.494C157.689 166.914 158.203 167.511 158.548 168.286C158.903 169.051 159.08 169.952 159.08 170.988ZM151.184 170.988C151.184 172.248 151.45 173.242 151.982 173.97C152.514 174.689 153.345 175.048 154.474 175.048C155.603 175.048 156.429 174.689 156.952 173.97C157.484 173.242 157.75 172.248 157.75 170.988C157.75 169.728 157.489 168.743 156.966 168.034C156.443 167.315 155.617 166.956 154.488 166.956C153.349 166.956 152.514 167.315 151.982 168.034C151.45 168.743 151.184 169.728 151.184 170.988ZM164.698 168.356C165.622 168.356 166.364 168.678 166.924 169.322C167.493 169.966 167.778 170.937 167.778 172.234C167.778 173.513 167.493 174.483 166.924 175.146C166.364 175.809 165.617 176.14 164.684 176.14C164.105 176.14 163.624 176.033 163.242 175.818C162.868 175.603 162.574 175.347 162.36 175.048H162.276C162.285 175.207 162.299 175.407 162.318 175.65C162.346 175.893 162.36 176.103 162.36 176.28V179.36H161.128V168.496H162.136L162.304 169.518H162.36C162.584 169.191 162.878 168.916 163.242 168.692C163.606 168.468 164.091 168.356 164.698 168.356ZM164.474 169.392C163.708 169.392 163.167 169.607 162.85 170.036C162.532 170.465 162.369 171.119 162.36 171.996V172.234C162.36 173.158 162.509 173.872 162.808 174.376C163.116 174.871 163.68 175.118 164.502 175.118C164.95 175.118 165.323 174.997 165.622 174.754C165.92 174.502 166.14 174.157 166.28 173.718C166.429 173.279 166.504 172.78 166.504 172.22C166.504 171.361 166.336 170.675 166 170.162C165.673 169.649 165.164 169.392 164.474 169.392ZM172.247 175.132C172.433 175.132 172.625 175.118 172.821 175.09C173.017 175.062 173.175 175.025 173.297 174.978V175.916C173.166 175.981 172.979 176.033 172.737 176.07C172.494 176.117 172.261 176.14 172.037 176.14C171.645 176.14 171.281 176.075 170.945 175.944C170.618 175.804 170.352 175.566 170.147 175.23C169.941 174.894 169.839 174.423 169.839 173.816V169.448H168.775V168.86L169.853 168.37L170.343 166.774H171.071V168.496H173.241V169.448H171.071V173.788C171.071 174.245 171.178 174.586 171.393 174.81C171.617 175.025 171.901 175.132 172.247 175.132ZM175.429 165.682C175.616 165.682 175.779 165.747 175.919 165.878C176.069 165.999 176.143 166.195 176.143 166.466C176.143 166.737 176.069 166.937 175.919 167.068C175.779 167.189 175.616 167.25 175.429 167.25C175.224 167.25 175.051 167.189 174.911 167.068C174.771 166.937 174.701 166.737 174.701 166.466C174.701 166.195 174.771 165.999 174.911 165.878C175.051 165.747 175.224 165.682 175.429 165.682ZM176.031 168.496V176H174.799V168.496H176.031ZM184.933 172.234C184.933 173.475 184.615 174.437 183.981 175.118C183.355 175.799 182.506 176.14 181.433 176.14C180.77 176.14 180.177 175.991 179.655 175.692C179.141 175.384 178.735 174.941 178.437 174.362C178.138 173.774 177.989 173.065 177.989 172.234C177.989 170.993 178.297 170.036 178.913 169.364C179.538 168.692 180.392 168.356 181.475 168.356C182.147 168.356 182.744 168.51 183.267 168.818C183.789 169.117 184.195 169.555 184.485 170.134C184.783 170.703 184.933 171.403 184.933 172.234ZM179.263 172.234C179.263 173.121 179.435 173.825 179.781 174.348C180.135 174.861 180.695 175.118 181.461 175.118C182.217 175.118 182.772 174.861 183.127 174.348C183.481 173.825 183.659 173.121 183.659 172.234C183.659 171.347 183.481 170.652 183.127 170.148C182.772 169.644 182.212 169.392 181.447 169.392C180.681 169.392 180.126 169.644 179.781 170.148C179.435 170.652 179.263 171.347 179.263 172.234ZM190.497 168.356C191.393 168.356 192.07 168.575 192.527 169.014C192.985 169.453 193.213 170.153 193.213 171.114V176H191.995V171.198C191.995 169.994 191.435 169.392 190.315 169.392C189.485 169.392 188.911 169.625 188.593 170.092C188.276 170.559 188.117 171.231 188.117 172.108V176H186.885V168.496H187.879L188.061 169.518H188.131C188.374 169.126 188.71 168.837 189.139 168.65C189.569 168.454 190.021 168.356 190.497 168.356ZM204.888 168.342C204.888 169.014 204.697 169.551 204.314 169.952C203.941 170.344 203.442 170.605 202.816 170.736V170.792C203.61 170.885 204.202 171.137 204.594 171.548C204.996 171.959 205.196 172.495 205.196 173.158C205.196 173.746 205.061 174.264 204.79 174.712C204.52 175.16 204.1 175.51 203.53 175.762C202.97 176.014 202.247 176.14 201.36 176.14C200.838 176.14 200.352 176.098 199.904 176.014C199.456 175.939 199.027 175.799 198.616 175.594V174.446C199.036 174.661 199.489 174.824 199.974 174.936C200.46 175.048 200.926 175.104 201.374 175.104C202.27 175.104 202.914 174.931 203.306 174.586C203.708 174.231 203.908 173.746 203.908 173.13C203.908 172.505 203.661 172.057 203.166 171.786C202.681 171.506 201.995 171.366 201.108 171.366H200.142V170.316H201.122C201.944 170.316 202.564 170.143 202.984 169.798C203.414 169.453 203.628 168.995 203.628 168.426C203.628 167.941 203.465 167.567 203.138 167.306C202.812 167.035 202.368 166.9 201.808 166.9C201.267 166.9 200.805 166.979 200.422 167.138C200.04 167.297 199.662 167.497 199.288 167.74L198.672 166.9C199.027 166.62 199.466 166.377 199.988 166.172C200.52 165.967 201.122 165.864 201.794 165.864C202.84 165.864 203.614 166.097 204.118 166.564C204.632 167.031 204.888 167.623 204.888 168.342Z" fill="black"/>
<path d="M159.08 206.988C159.08 208.024 158.903 208.929 158.548 209.704C158.203 210.469 157.685 211.067 156.994 211.496C156.313 211.925 155.473 212.14 154.474 212.14C153.438 212.14 152.575 211.925 151.884 211.496C151.203 211.067 150.694 210.465 150.358 209.69C150.022 208.915 149.854 208.01 149.854 206.974C149.854 205.957 150.022 205.065 150.358 204.3C150.694 203.525 151.203 202.923 151.884 202.494C152.575 202.065 153.443 201.85 154.488 201.85C155.487 201.85 156.327 202.065 157.008 202.494C157.689 202.914 158.203 203.511 158.548 204.286C158.903 205.051 159.08 205.952 159.08 206.988ZM151.184 206.988C151.184 208.248 151.45 209.242 151.982 209.97C152.514 210.689 153.345 211.048 154.474 211.048C155.603 211.048 156.429 210.689 156.952 209.97C157.484 209.242 157.75 208.248 157.75 206.988C157.75 205.728 157.489 204.743 156.966 204.034C156.443 203.315 155.617 202.956 154.488 202.956C153.349 202.956 152.514 203.315 151.982 204.034C151.45 204.743 151.184 205.728 151.184 206.988ZM164.698 204.356C165.622 204.356 166.364 204.678 166.924 205.322C167.493 205.966 167.778 206.937 167.778 208.234C167.778 209.513 167.493 210.483 166.924 211.146C166.364 211.809 165.617 212.14 164.684 212.14C164.105 212.14 163.624 212.033 163.242 211.818C162.868 211.603 162.574 211.347 162.36 211.048H162.276C162.285 211.207 162.299 211.407 162.318 211.65C162.346 211.893 162.36 212.103 162.36 212.28V215.36H161.128V204.496H162.136L162.304 205.518H162.36C162.584 205.191 162.878 204.916 163.242 204.692C163.606 204.468 164.091 204.356 164.698 204.356ZM164.474 205.392C163.708 205.392 163.167 205.607 162.85 206.036C162.532 206.465 162.369 207.119 162.36 207.996V208.234C162.36 209.158 162.509 209.872 162.808 210.376C163.116 210.871 163.68 211.118 164.502 211.118C164.95 211.118 165.323 210.997 165.622 210.754C165.92 210.502 166.14 210.157 166.28 209.718C166.429 209.279 166.504 208.78 166.504 208.22C166.504 207.361 166.336 206.675 166 206.162C165.673 205.649 165.164 205.392 164.474 205.392ZM172.247 211.132C172.433 211.132 172.625 211.118 172.821 211.09C173.017 211.062 173.175 211.025 173.297 210.978V211.916C173.166 211.981 172.979 212.033 172.737 212.07C172.494 212.117 172.261 212.14 172.037 212.14C171.645 212.14 171.281 212.075 170.945 211.944C170.618 211.804 170.352 211.566 170.147 211.23C169.941 210.894 169.839 210.423 169.839 209.816V205.448H168.775V204.86L169.853 204.37L170.343 202.774H171.071V204.496H173.241V205.448H171.071V209.788C171.071 210.245 171.178 210.586 171.393 210.81C171.617 211.025 171.901 211.132 172.247 211.132ZM175.429 201.682C175.616 201.682 175.779 201.747 175.919 201.878C176.069 201.999 176.143 202.195 176.143 202.466C176.143 202.737 176.069 202.937 175.919 203.068C175.779 203.189 175.616 203.25 175.429 203.25C175.224 203.25 175.051 203.189 174.911 203.068C174.771 202.937 174.701 202.737 174.701 202.466C174.701 202.195 174.771 201.999 174.911 201.878C175.051 201.747 175.224 201.682 175.429 201.682ZM176.031 204.496V212H174.799V204.496H176.031ZM184.933 208.234C184.933 209.475 184.615 210.437 183.981 211.118C183.355 211.799 182.506 212.14 181.433 212.14C180.77 212.14 180.177 211.991 179.655 211.692C179.141 211.384 178.735 210.941 178.437 210.362C178.138 209.774 177.989 209.065 177.989 208.234C177.989 206.993 178.297 206.036 178.913 205.364C179.538 204.692 180.392 204.356 181.475 204.356C182.147 204.356 182.744 204.51 183.267 204.818C183.789 205.117 184.195 205.555 184.485 206.134C184.783 206.703 184.933 207.403 184.933 208.234ZM179.263 208.234C179.263 209.121 179.435 209.825 179.781 210.348C180.135 210.861 180.695 211.118 181.461 211.118C182.217 211.118 182.772 210.861 183.127 210.348C183.481 209.825 183.659 209.121 183.659 208.234C183.659 207.347 183.481 206.652 183.127 206.148C182.772 205.644 182.212 205.392 181.447 205.392C180.681 205.392 180.126 205.644 179.781 206.148C179.435 206.652 179.263 207.347 179.263 208.234ZM190.497 204.356C191.393 204.356 192.07 204.575 192.527 205.014C192.985 205.453 193.213 206.153 193.213 207.114V212H191.995V207.198C191.995 205.994 191.435 205.392 190.315 205.392C189.485 205.392 188.911 205.625 188.593 206.092C188.276 206.559 188.117 207.231 188.117 208.108V212H186.885V204.496H187.879L188.061 205.518H188.131C188.374 205.126 188.71 204.837 189.139 204.65C189.569 204.454 190.021 204.356 190.497 204.356ZM205.714 209.732H204.258V212H203.068V209.732H198.28V208.682L202.984 201.948H204.258V208.626H205.714V209.732ZM203.068 208.626V205.476C203.068 204.991 203.073 204.58 203.082 204.244C203.101 203.899 203.12 203.572 203.138 203.264H203.082C203.008 203.441 202.914 203.633 202.802 203.838C202.69 204.043 202.583 204.216 202.48 204.356L199.484 208.626H203.068Z" fill="black"/>
<rect x="140.5" y="80.5" width="201" height="145" rx="4.5" stroke="black" stroke-opacity="0.15"/>
</g>
<circle cx="98" cy="135" r="12" fill="#D51588"/>
<path d="M98.5681 133.714C99.2028 133.714 99.7628 133.831 100.248 134.064C100.733 134.297 101.111 134.638 101.382 135.086C101.662 135.525 101.802 136.066 101.802 136.71C101.802 137.783 101.466 138.623 100.794 139.23C100.131 139.837 99.1701 140.14 97.9101 140.14C97.3875 140.14 96.8928 140.093 96.4261 140C95.9688 139.907 95.5768 139.771 95.2501 139.594V138.026C95.5955 138.213 96.0061 138.367 96.4821 138.488C96.9675 138.609 97.4295 138.67 97.8681 138.67C98.5308 138.67 99.0488 138.525 99.4221 138.236C99.8048 137.947 99.9961 137.494 99.9961 136.878C99.9961 136.327 99.8188 135.907 99.4641 135.618C99.1095 135.319 98.5588 135.17 97.8121 135.17C97.5415 135.17 97.2568 135.193 96.9581 135.24C96.6595 135.287 96.4121 135.333 96.2161 135.38L95.4601 134.96L95.8381 130.004H101.102V131.544H97.3921L97.1821 133.854C97.3408 133.826 97.5275 133.798 97.7421 133.77C97.9661 133.733 98.2415 133.714 98.5681 133.714Z" fill="white"/>
<path d="M110 135H141" stroke="#D51588"/>
<path d="M142.164 37V28.432H143.244V36.04H146.988V37H142.164ZM150.749 30.46C151.533 30.46 152.113 30.632 152.489 30.976C152.865 31.32 153.053 31.868 153.053 32.62V37H152.285L152.081 36.088H152.033C151.753 36.44 151.457 36.7 151.145 36.868C150.833 37.036 150.409 37.12 149.873 37.12C149.289 37.12 148.805 36.968 148.421 36.664C148.037 36.352 147.845 35.868 147.845 35.212C147.845 34.572 148.097 34.08 148.601 33.736C149.105 33.384 149.881 33.192 150.929 33.16L152.021 33.124V32.74C152.021 32.204 151.905 31.832 151.673 31.624C151.441 31.416 151.113 31.312 150.689 31.312C150.353 31.312 150.033 31.364 149.729 31.468C149.425 31.564 149.141 31.676 148.877 31.804L148.553 31.012C148.833 30.86 149.165 30.732 149.549 30.628C149.933 30.516 150.333 30.46 150.749 30.46ZM152.009 33.856L151.061 33.892C150.261 33.924 149.705 34.052 149.393 34.276C149.089 34.5 148.937 34.816 148.937 35.224C148.937 35.584 149.045 35.848 149.261 36.016C149.485 36.184 149.769 36.268 150.113 36.268C150.649 36.268 151.097 36.12 151.457 35.824C151.825 35.52 152.009 35.056 152.009 34.432V33.856ZM156.096 27.88V30.1C156.096 30.372 156.088 30.628 156.072 30.868C156.064 31.1 156.052 31.284 156.036 31.42H156.096C156.28 31.148 156.532 30.92 156.852 30.736C157.172 30.552 157.584 30.46 158.088 30.46C158.888 30.46 159.528 30.74 160.008 31.3C160.496 31.852 160.74 32.68 160.74 33.784C160.74 34.888 160.496 35.72 160.008 36.28C159.52 36.84 158.88 37.12 158.088 37.12C157.584 37.12 157.172 37.028 156.852 36.844C156.532 36.66 156.28 36.44 156.096 36.184H156.012L155.796 37H155.04V27.88H156.096ZM157.908 31.336C157.22 31.336 156.744 31.532 156.48 31.924C156.224 32.316 156.096 32.924 156.096 33.748V33.796C156.096 34.588 156.224 35.196 156.48 35.62C156.744 36.036 157.228 36.244 157.932 36.244C158.508 36.244 158.936 36.032 159.216 35.608C159.504 35.184 159.648 34.572 159.648 33.772C159.648 32.148 159.068 31.336 157.908 31.336ZM164.906 30.448C165.45 30.448 165.922 30.568 166.322 30.808C166.722 31.048 167.026 31.388 167.234 31.828C167.45 32.26 167.558 32.768 167.558 33.352V33.988H163.154C163.17 34.716 163.354 35.272 163.706 35.656C164.066 36.032 164.566 36.22 165.206 36.22C165.614 36.22 165.974 36.184 166.286 36.112C166.606 36.032 166.934 35.92 167.27 35.776V36.7C166.942 36.844 166.618 36.948 166.298 37.012C165.978 37.084 165.598 37.12 165.158 37.12C164.542 37.12 164.002 36.996 163.538 36.748C163.074 36.5 162.71 36.132 162.446 35.644C162.19 35.156 162.062 34.552 162.062 33.832C162.062 33.128 162.178 32.524 162.41 32.02C162.65 31.516 162.982 31.128 163.406 30.856C163.838 30.584 164.338 30.448 164.906 30.448ZM164.894 31.312C164.39 31.312 163.99 31.476 163.694 31.804C163.406 32.124 163.234 32.572 163.178 33.148H166.454C166.446 32.604 166.318 32.164 166.07 31.828C165.822 31.484 165.43 31.312 164.894 31.312ZM170.252 37H169.196V27.88H170.252V37Z" fill="#323232"/>
<rect x="141.5" y="44.5" width="199" height="35" rx="1.5" fill="white"/>
<path d="M157.522 67H156.262V58.11H153.14V57.004H160.63V58.11H157.522V67ZM163.883 59.356C164.518 59.356 165.068 59.496 165.535 59.776C166.002 60.056 166.356 60.4527 166.599 60.966C166.851 61.47 166.977 62.0627 166.977 62.744V63.486H161.839C161.858 64.3353 162.072 64.984 162.483 65.432C162.903 65.8707 163.486 66.09 164.233 66.09C164.709 66.09 165.129 66.048 165.493 65.964C165.866 65.8707 166.249 65.74 166.641 65.572V66.65C166.258 66.818 165.88 66.9393 165.507 67.014C165.134 67.098 164.69 67.14 164.177 67.14C163.458 67.14 162.828 66.9953 162.287 66.706C161.746 66.4167 161.321 65.9873 161.013 65.418C160.714 64.8487 160.565 64.144 160.565 63.304C160.565 62.4827 160.7 61.778 160.971 61.19C161.251 60.602 161.638 60.1493 162.133 59.832C162.637 59.5147 163.22 59.356 163.883 59.356ZM163.869 60.364C163.281 60.364 162.814 60.5553 162.469 60.938C162.133 61.3113 161.932 61.834 161.867 62.506H165.689C165.68 61.8713 165.53 61.358 165.241 60.966C164.952 60.5647 164.494 60.364 163.869 60.364ZM170.392 63.164L167.802 59.496H169.202L171.134 62.324L173.052 59.496H174.438L171.848 63.164L174.578 67H173.178L171.134 64.004L169.062 67H167.676L170.392 63.164ZM178.53 66.132C178.717 66.132 178.908 66.118 179.104 66.09C179.3 66.062 179.459 66.0247 179.58 65.978V66.916C179.449 66.9813 179.263 67.0327 179.02 67.07C178.777 67.1167 178.544 67.14 178.32 67.14C177.928 67.14 177.564 67.0747 177.228 66.944C176.901 66.804 176.635 66.566 176.43 66.23C176.225 65.894 176.122 65.4227 176.122 64.816V60.448H175.058V59.86L176.136 59.37L176.626 57.774H177.354V59.496H179.524V60.448H177.354V64.788C177.354 65.2453 177.461 65.586 177.676 65.81C177.9 66.0247 178.185 66.132 178.53 66.132Z" fill="black"/>
<path d="M321.012 65.3625C320.912 65.3625 320.812 65.3125 320.762 65.2625L315.113 59.6625C314.962 59.5125 314.962 59.2625 315.113 59.1125C315.263 58.9625 315.512 58.9625 315.662 59.1125L321.012 64.4625L326.312 59.1125C326.462 58.9625 326.713 58.9625 326.863 59.1125C327.012 59.2625 327.012 59.5125 326.863 59.6625L321.262 65.2625C321.162 65.3125 321.112 65.3625 321.012 65.3625Z" fill="#323232"/>
<rect x="141.5" y="44.5" width="199" height="35" rx="1.5" stroke="#939393"/>
<defs>
<filter id="filter0_d_8211_481086" x="136" y="80" width="210" height="154" filterUnits="userSpaceOnUse" color-interpolation-filters="sRGB">
<feFlood flood-opacity="0" result="BackgroundImageFix"/>
<feColorMatrix in="SourceAlpha" type="matrix" values="0 0 0 0 0 0 0 0 0 0 0 0 0 0 0 0 0 0 127 0" result="hardAlpha"/>
<feOffset dy="4"/>
<feGaussianBlur stdDeviation="2"/>
<feColorMatrix type="matrix" values="0 0 0 0 0 0 0 0 0 0 0 0 0 0 0 0 0 0 0.25 0"/>
<feBlend mode="normal" in2="BackgroundImageFix" result="effect1_dropShadow_8211_481086"/>
<feBlend mode="normal" in="SourceGraphic" in2="effect1_dropShadow_8211_481086" result="shape"/>
</filter>
</defs>
</svg>
