<svg width="428" height="76" viewBox="0 0 428 76" fill="none" xmlns="http://www.w3.org/2000/svg">
<rect width="428" height="76" fill="white"/>
<path d="M116.664 13V4.432H117.744V12.04H121.488V13H116.664ZM125.249 6.46C126.033 6.46 126.613 6.632 126.989 6.976C127.365 7.32 127.553 7.868 127.553 8.62V13H126.785L126.581 12.088H126.533C126.253 12.44 125.957 12.7 125.645 12.868C125.333 13.036 124.909 13.12 124.373 13.12C123.789 13.12 123.305 12.968 122.921 12.664C122.537 12.352 122.345 11.868 122.345 11.212C122.345 10.572 122.597 10.08 123.101 9.736C123.605 9.384 124.381 9.192 125.429 9.16L126.521 9.124V8.74C126.521 8.204 126.405 7.832 126.173 7.624C125.941 7.416 125.613 7.312 125.189 7.312C124.853 7.312 124.533 7.364 124.229 7.468C123.925 7.564 123.641 7.676 123.377 7.804L123.053 7.012C123.333 6.86 123.665 6.732 124.049 6.628C124.433 6.516 124.833 6.46 125.249 6.46ZM126.509 9.856L125.561 9.892C124.761 9.924 124.205 10.052 123.893 10.276C123.589 10.5 123.437 10.816 123.437 11.224C123.437 11.584 123.545 11.848 123.761 12.016C123.985 12.184 124.269 12.268 124.613 12.268C125.149 12.268 125.597 12.12 125.957 11.824C126.325 11.52 126.509 11.056 126.509 10.432V9.856ZM130.596 3.88V6.1C130.596 6.372 130.588 6.628 130.572 6.868C130.564 7.1 130.552 7.284 130.536 7.42H130.596C130.78 7.148 131.032 6.92 131.352 6.736C131.672 6.552 132.084 6.46 132.588 6.46C133.388 6.46 134.028 6.74 134.508 7.3C134.996 7.852 135.24 8.68 135.24 9.784C135.24 10.888 134.996 11.72 134.508 12.28C134.02 12.84 133.38 13.12 132.588 13.12C132.084 13.12 131.672 13.028 131.352 12.844C131.032 12.66 130.78 12.44 130.596 12.184H130.512L130.296 13H129.54V3.88H130.596ZM132.408 7.336C131.72 7.336 131.244 7.532 130.98 7.924C130.724 8.316 130.596 8.924 130.596 9.748V9.796C130.596 10.588 130.724 11.196 130.98 11.62C131.244 12.036 131.728 12.244 132.432 12.244C133.008 12.244 133.436 12.032 133.716 11.608C134.004 11.184 134.148 10.572 134.148 9.772C134.148 8.148 133.568 7.336 132.408 7.336ZM139.406 6.448C139.95 6.448 140.422 6.568 140.822 6.808C141.222 7.048 141.526 7.388 141.734 7.828C141.95 8.26 142.058 8.768 142.058 9.352V9.988H137.654C137.67 10.716 137.854 11.272 138.206 11.656C138.566 12.032 139.066 12.22 139.706 12.22C140.114 12.22 140.474 12.184 140.786 12.112C141.106 12.032 141.434 11.92 141.77 11.776V12.7C141.442 12.844 141.118 12.948 140.798 13.012C140.478 13.084 140.098 13.12 139.658 13.12C139.042 13.12 138.502 12.996 138.038 12.748C137.574 12.5 137.21 12.132 136.946 11.644C136.69 11.156 136.562 10.552 136.562 9.832C136.562 9.128 136.678 8.524 136.91 8.02C137.15 7.516 137.482 7.128 137.906 6.856C138.338 6.584 138.838 6.448 139.406 6.448ZM139.394 7.312C138.89 7.312 138.49 7.476 138.194 7.804C137.906 8.124 137.734 8.572 137.678 9.148H140.954C140.946 8.604 140.818 8.164 140.57 7.828C140.322 7.484 139.93 7.312 139.394 7.312ZM144.752 13H143.696V3.88H144.752V13Z" fill="#323232"/>
<rect x="116" y="20.5" width="199" height="35" rx="1.5" fill="white"/>
<path d="M132.022 43H130.762V34.11H127.64V33.004H135.13V34.11H132.022V43ZM138.383 35.356C139.018 35.356 139.568 35.496 140.035 35.776C140.502 36.056 140.856 36.4527 141.099 36.966C141.351 37.47 141.477 38.0627 141.477 38.744V39.486H136.339C136.358 40.3353 136.572 40.984 136.983 41.432C137.403 41.8707 137.986 42.09 138.733 42.09C139.209 42.09 139.629 42.048 139.993 41.964C140.366 41.8707 140.749 41.74 141.141 41.572V42.65C140.758 42.818 140.38 42.9393 140.007 43.014C139.634 43.098 139.19 43.14 138.677 43.14C137.958 43.14 137.328 42.9953 136.787 42.706C136.246 42.4167 135.821 41.9873 135.513 41.418C135.214 40.8487 135.065 40.144 135.065 39.304C135.065 38.4827 135.2 37.778 135.471 37.19C135.751 36.602 136.138 36.1493 136.633 35.832C137.137 35.5147 137.72 35.356 138.383 35.356ZM138.369 36.364C137.781 36.364 137.314 36.5553 136.969 36.938C136.633 37.3113 136.432 37.834 136.367 38.506H140.189C140.18 37.8713 140.03 37.358 139.741 36.966C139.452 36.5647 138.994 36.364 138.369 36.364ZM144.892 39.164L142.302 35.496H143.702L145.634 38.324L147.552 35.496H148.938L146.348 39.164L149.078 43H147.678L145.634 40.004L143.562 43H142.176L144.892 39.164ZM153.03 42.132C153.217 42.132 153.408 42.118 153.604 42.09C153.8 42.062 153.959 42.0247 154.08 41.978V42.916C153.949 42.9813 153.763 43.0327 153.52 43.07C153.277 43.1167 153.044 43.14 152.82 43.14C152.428 43.14 152.064 43.0747 151.728 42.944C151.401 42.804 151.135 42.566 150.93 42.23C150.725 41.894 150.622 41.4227 150.622 40.816V36.448H149.558V35.86L150.636 35.37L151.126 33.774H151.854V35.496H154.024V36.448H151.854V40.788C151.854 41.2453 151.961 41.586 152.176 41.81C152.4 42.0247 152.685 42.132 153.03 42.132Z" fill="black"/>
<path d="M295.512 41.3625C295.412 41.3625 295.312 41.3125 295.262 41.2625L289.613 35.6625C289.462 35.5125 289.462 35.2625 289.613 35.1125C289.763 34.9625 290.012 34.9625 290.162 35.1125L295.512 40.4625L300.812 35.1125C300.962 34.9625 301.213 34.9625 301.363 35.1125C301.512 35.2625 301.512 35.5125 301.363 35.6625L295.762 41.2625C295.662 41.3125 295.612 41.3625 295.512 41.3625Z" fill="#323232"/>
<rect x="116" y="20.5" width="199" height="35" rx="1.5" stroke="#939393"/>
<path d="M122.04 73L121.008 70.348H117.612L116.592 73H115.5L118.848 64.396H119.82L123.156 73H122.04ZM120.684 69.388L119.724 66.796C119.7 66.732 119.66 66.616 119.604 66.448C119.548 66.28 119.492 66.108 119.436 65.932C119.388 65.748 119.348 65.608 119.316 65.512C119.252 65.76 119.184 66.004 119.112 66.244C119.048 66.476 118.992 66.66 118.944 66.796L117.972 69.388H120.684ZM126.464 73.12C125.664 73.12 125.024 72.844 124.544 72.292C124.064 71.732 123.824 70.9 123.824 69.796C123.824 68.692 124.064 67.86 124.544 67.3C125.032 66.732 125.676 66.448 126.476 66.448C126.972 66.448 127.376 66.54 127.688 66.724C128.008 66.908 128.268 67.132 128.468 67.396H128.54C128.524 67.292 128.508 67.14 128.492 66.94C128.476 66.732 128.468 66.568 128.468 66.448V63.88H129.524V73H128.672L128.516 72.136H128.468C128.276 72.408 128.02 72.64 127.7 72.832C127.38 73.024 126.968 73.12 126.464 73.12ZM126.632 72.244C127.312 72.244 127.788 72.06 128.06 71.692C128.34 71.316 128.48 70.752 128.48 70V69.808C128.48 69.008 128.348 68.396 128.084 67.972C127.82 67.54 127.332 67.324 126.62 67.324C126.052 67.324 125.624 67.552 125.336 68.008C125.056 68.456 124.916 69.06 124.916 69.82C124.916 70.588 125.056 71.184 125.336 71.608C125.624 72.032 126.056 72.244 126.632 72.244ZM133.847 73.12C133.047 73.12 132.407 72.844 131.927 72.292C131.447 71.732 131.207 70.9 131.207 69.796C131.207 68.692 131.447 67.86 131.927 67.3C132.415 66.732 133.059 66.448 133.859 66.448C134.355 66.448 134.759 66.54 135.071 66.724C135.391 66.908 135.651 67.132 135.851 67.396H135.923C135.907 67.292 135.891 67.14 135.875 66.94C135.859 66.732 135.851 66.568 135.851 66.448V63.88H136.907V73H136.055L135.899 72.136H135.851C135.659 72.408 135.403 72.64 135.083 72.832C134.763 73.024 134.351 73.12 133.847 73.12ZM134.015 72.244C134.695 72.244 135.171 72.06 135.443 71.692C135.723 71.316 135.863 70.752 135.863 70V69.808C135.863 69.008 135.731 68.396 135.467 67.972C135.203 67.54 134.715 67.324 134.003 67.324C133.435 67.324 133.007 67.552 132.719 68.008C132.439 68.456 132.299 69.06 132.299 69.82C132.299 70.588 132.439 71.184 132.719 71.608C133.007 72.032 133.439 72.244 134.015 72.244ZM139.49 64.156C139.65 64.156 139.79 64.212 139.91 64.324C140.038 64.428 140.102 64.596 140.102 64.828C140.102 65.06 140.038 65.232 139.91 65.344C139.79 65.448 139.65 65.5 139.49 65.5C139.314 65.5 139.166 65.448 139.046 65.344C138.926 65.232 138.866 65.06 138.866 64.828C138.866 64.596 138.926 64.428 139.046 64.324C139.166 64.212 139.314 64.156 139.49 64.156ZM140.006 66.568V73H138.95V66.568H140.006ZM144.191 72.256C144.351 72.256 144.515 72.244 144.683 72.22C144.851 72.196 144.987 72.164 145.091 72.124V72.928C144.979 72.984 144.819 73.028 144.611 73.06C144.403 73.1 144.203 73.12 144.011 73.12C143.675 73.12 143.363 73.064 143.075 72.952C142.795 72.832 142.567 72.628 142.391 72.34C142.215 72.052 142.127 71.648 142.127 71.128V67.384H141.215V66.88L142.139 66.46L142.559 65.092H143.183V66.568H145.043V67.384H143.183V71.104C143.183 71.496 143.275 71.788 143.459 71.98C143.651 72.164 143.895 72.256 144.191 72.256ZM146.919 64.156C147.079 64.156 147.219 64.212 147.339 64.324C147.467 64.428 147.531 64.596 147.531 64.828C147.531 65.06 147.467 65.232 147.339 65.344C147.219 65.448 147.079 65.5 146.919 65.5C146.743 65.5 146.595 65.448 146.475 65.344C146.355 65.232 146.295 65.06 146.295 64.828C146.295 64.596 146.355 64.428 146.475 64.324C146.595 64.212 146.743 64.156 146.919 64.156ZM147.435 66.568V73H146.379V66.568H147.435ZM155.065 69.772C155.065 70.836 154.793 71.66 154.249 72.244C153.713 72.828 152.985 73.12 152.065 73.12C151.497 73.12 150.989 72.992 150.541 72.736C150.101 72.472 149.753 72.092 149.497 71.596C149.241 71.092 149.113 70.484 149.113 69.772C149.113 68.708 149.377 67.888 149.905 67.312C150.441 66.736 151.173 66.448 152.101 66.448C152.677 66.448 153.189 66.58 153.637 66.844C154.085 67.1 154.433 67.476 154.681 67.972C154.937 68.46 155.065 69.06 155.065 69.772ZM150.205 69.772C150.205 70.532 150.353 71.136 150.649 71.584C150.953 72.024 151.433 72.244 152.089 72.244C152.737 72.244 153.213 72.024 153.517 71.584C153.821 71.136 153.973 70.532 153.973 69.772C153.973 69.012 153.821 68.416 153.517 67.984C153.213 67.552 152.733 67.336 152.077 67.336C151.421 67.336 150.945 67.552 150.649 67.984C150.353 68.416 150.205 69.012 150.205 69.772ZM159.835 66.448C160.603 66.448 161.183 66.636 161.575 67.012C161.967 67.388 162.163 67.988 162.163 68.812V73H161.119V68.884C161.119 67.852 160.639 67.336 159.679 67.336C158.967 67.336 158.475 67.536 158.203 67.936C157.931 68.336 157.795 68.912 157.795 69.664V73H156.739V66.568H157.591L157.747 67.444H157.807C158.015 67.108 158.303 66.86 158.671 66.7C159.039 66.532 159.427 66.448 159.835 66.448ZM166.593 66.46C167.377 66.46 167.957 66.632 168.333 66.976C168.709 67.32 168.897 67.868 168.897 68.62V73H168.129L167.925 72.088H167.877C167.597 72.44 167.301 72.7 166.989 72.868C166.677 73.036 166.253 73.12 165.717 73.12C165.133 73.12 164.649 72.968 164.265 72.664C163.881 72.352 163.689 71.868 163.689 71.212C163.689 70.572 163.941 70.08 164.445 69.736C164.949 69.384 165.725 69.192 166.773 69.16L167.865 69.124V68.74C167.865 68.204 167.749 67.832 167.517 67.624C167.285 67.416 166.957 67.312 166.533 67.312C166.197 67.312 165.877 67.364 165.573 67.468C165.269 67.564 164.985 67.676 164.721 67.804L164.397 67.012C164.677 66.86 165.009 66.732 165.393 66.628C165.777 66.516 166.177 66.46 166.593 66.46ZM167.853 69.856L166.905 69.892C166.105 69.924 165.549 70.052 165.237 70.276C164.933 70.5 164.781 70.816 164.781 71.224C164.781 71.584 164.889 71.848 165.105 72.016C165.329 72.184 165.613 72.268 165.957 72.268C166.493 72.268 166.941 72.12 167.301 71.824C167.669 71.52 167.853 71.056 167.853 70.432V69.856ZM171.939 73H170.883V63.88H171.939V73ZM179.674 73.12C179.098 73.12 178.59 73.004 178.15 72.772C177.71 72.54 177.362 72.18 177.106 71.692C176.858 71.204 176.734 70.58 176.734 69.82C176.734 69.028 176.862 68.384 177.118 67.888C177.382 67.392 177.742 67.028 178.198 66.796C178.654 66.564 179.17 66.448 179.746 66.448C180.066 66.448 180.378 66.484 180.682 66.556C180.994 66.62 181.246 66.7 181.438 66.796L181.114 67.672C180.922 67.6 180.698 67.532 180.442 67.468C180.186 67.404 179.946 67.372 179.722 67.372C178.458 67.372 177.826 68.184 177.826 69.808C177.826 70.584 177.978 71.18 178.282 71.596C178.594 72.004 179.054 72.208 179.662 72.208C180.006 72.208 180.314 72.172 180.586 72.1C180.858 72.028 181.106 71.94 181.33 71.836V72.772C181.114 72.884 180.874 72.968 180.61 73.024C180.354 73.088 180.042 73.12 179.674 73.12ZM188.452 69.772C188.452 70.836 188.18 71.66 187.636 72.244C187.1 72.828 186.372 73.12 185.452 73.12C184.884 73.12 184.376 72.992 183.928 72.736C183.488 72.472 183.14 72.092 182.884 71.596C182.628 71.092 182.5 70.484 182.5 69.772C182.5 68.708 182.764 67.888 183.292 67.312C183.828 66.736 184.56 66.448 185.488 66.448C186.064 66.448 186.576 66.58 187.024 66.844C187.472 67.1 187.82 67.476 188.068 67.972C188.324 68.46 188.452 69.06 188.452 69.772ZM183.592 69.772C183.592 70.532 183.74 71.136 184.036 71.584C184.34 72.024 184.82 72.244 185.476 72.244C186.124 72.244 186.6 72.024 186.904 71.584C187.208 71.136 187.36 70.532 187.36 69.772C187.36 69.012 187.208 68.416 186.904 67.984C186.6 67.552 186.12 67.336 185.464 67.336C184.808 67.336 184.332 67.552 184.036 67.984C183.74 68.416 183.592 69.012 183.592 69.772ZM193.221 66.448C193.989 66.448 194.569 66.636 194.961 67.012C195.353 67.388 195.549 67.988 195.549 68.812V73H194.505V68.884C194.505 67.852 194.025 67.336 193.065 67.336C192.353 67.336 191.861 67.536 191.589 67.936C191.317 68.336 191.181 68.912 191.181 69.664V73H190.125V66.568H190.977L191.133 67.444H191.193C191.401 67.108 191.689 66.86 192.057 66.7C192.425 66.532 192.813 66.448 193.221 66.448ZM199.691 72.256C199.851 72.256 200.015 72.244 200.183 72.22C200.351 72.196 200.487 72.164 200.591 72.124V72.928C200.479 72.984 200.319 73.028 200.111 73.06C199.903 73.1 199.703 73.12 199.511 73.12C199.175 73.12 198.863 73.064 198.575 72.952C198.295 72.832 198.067 72.628 197.891 72.34C197.715 72.052 197.627 71.648 197.627 71.128V67.384H196.715V66.88L197.639 66.46L198.059 65.092H198.683V66.568H200.543V67.384H198.683V71.104C198.683 71.496 198.775 71.788 198.959 71.98C199.151 72.164 199.395 72.256 199.691 72.256ZM204.363 66.448C204.907 66.448 205.379 66.568 205.779 66.808C206.179 67.048 206.483 67.388 206.691 67.828C206.907 68.26 207.015 68.768 207.015 69.352V69.988H202.611C202.627 70.716 202.811 71.272 203.163 71.656C203.523 72.032 204.023 72.22 204.663 72.22C205.071 72.22 205.431 72.184 205.743 72.112C206.063 72.032 206.391 71.92 206.727 71.776V72.7C206.399 72.844 206.075 72.948 205.755 73.012C205.435 73.084 205.055 73.12 204.615 73.12C203.999 73.12 203.459 72.996 202.995 72.748C202.531 72.5 202.167 72.132 201.903 71.644C201.647 71.156 201.519 70.552 201.519 69.832C201.519 69.128 201.635 68.524 201.867 68.02C202.107 67.516 202.439 67.128 202.863 66.856C203.295 66.584 203.795 66.448 204.363 66.448ZM204.351 67.312C203.847 67.312 203.447 67.476 203.151 67.804C202.863 68.124 202.691 68.572 202.635 69.148H205.911C205.903 68.604 205.775 68.164 205.527 67.828C205.279 67.484 204.887 67.312 204.351 67.312ZM211.749 66.448C212.517 66.448 213.097 66.636 213.489 67.012C213.881 67.388 214.077 67.988 214.077 68.812V73H213.033V68.884C213.033 67.852 212.553 67.336 211.593 67.336C210.881 67.336 210.389 67.536 210.117 67.936C209.845 68.336 209.709 68.912 209.709 69.664V73H208.653V66.568H209.505L209.661 67.444H209.721C209.929 67.108 210.217 66.86 210.585 66.7C210.953 66.532 211.341 66.448 211.749 66.448ZM218.219 72.256C218.379 72.256 218.543 72.244 218.711 72.22C218.879 72.196 219.015 72.164 219.119 72.124V72.928C219.007 72.984 218.847 73.028 218.639 73.06C218.431 73.1 218.231 73.12 218.039 73.12C217.703 73.12 217.391 73.064 217.103 72.952C216.823 72.832 216.595 72.628 216.419 72.34C216.243 72.052 216.155 71.648 216.155 71.128V67.384H215.243V66.88L216.167 66.46L216.587 65.092H217.211V66.568H219.071V67.384H217.211V71.104C217.211 71.496 217.303 71.788 217.487 71.98C217.679 72.164 217.923 72.256 218.219 72.256Z" fill="#5E5E5E"/>
<path d="M66.5716 35.286C66.5716 35.9673 66.371 36.5133 65.9696 36.924C65.5776 37.3253 65.069 37.596 64.4436 37.736V37.778C65.2463 37.8807 65.853 38.1327 66.2636 38.534C66.6743 38.9353 66.8796 39.4627 66.8796 40.116C66.8796 40.6947 66.7396 41.2127 66.4596 41.67C66.1796 42.1273 65.7456 42.4867 65.1576 42.748C64.579 43.0093 63.8323 43.14 62.9176 43.14C62.367 43.14 61.8583 43.0933 61.3916 43C60.9343 42.916 60.5003 42.7807 60.0896 42.594V41.04C60.5096 41.2547 60.9576 41.418 61.4336 41.53C61.9096 41.642 62.3576 41.698 62.7776 41.698C63.5896 41.698 64.1636 41.5533 64.4996 41.264C64.8356 40.9653 65.0036 40.5547 65.0036 40.032C65.0036 39.5373 64.8076 39.1687 64.4156 38.926C64.0236 38.6833 63.3703 38.562 62.4556 38.562H61.6156V37.148H62.4696C63.3563 37.148 63.9676 37.0033 64.3036 36.714C64.6396 36.4247 64.8076 36.0513 64.8076 35.594C64.8076 35.1927 64.677 34.88 64.4156 34.656C64.1543 34.432 63.7623 34.32 63.2396 34.32C62.7356 34.32 62.3016 34.404 61.9376 34.572C61.5736 34.7307 61.247 34.9033 60.9576 35.09L60.1176 33.872C60.5003 33.592 60.953 33.354 61.4756 33.158C61.9983 32.962 62.6143 32.864 63.3236 32.864C64.3596 32.864 65.1576 33.0833 65.7176 33.522C66.287 33.9607 66.5716 34.5487 66.5716 35.286ZM68.1293 38.744C68.1293 38.1653 68.1667 37.596 68.2413 37.036C68.3253 36.476 68.47 35.9487 68.6753 35.454C68.8807 34.95 69.1653 34.5067 69.5293 34.124C69.8933 33.732 70.3553 33.4287 70.9153 33.214C71.4847 32.99 72.1707 32.878 72.9733 32.878C73.1693 32.878 73.3933 32.8873 73.6453 32.906C73.8973 32.9247 74.1073 32.9527 74.2753 32.99V34.446C73.9113 34.3433 73.51 34.292 73.0713 34.292C72.2313 34.292 71.578 34.446 71.1113 34.754C70.6447 35.0527 70.318 35.468 70.1313 36C69.9447 36.5227 69.8327 37.1107 69.7953 37.764H69.8793C70.0753 37.4373 70.3553 37.162 70.7193 36.938C71.0833 36.7047 71.5547 36.588 72.1333 36.588C73.0013 36.588 73.6967 36.8587 74.2193 37.4C74.742 37.9413 75.0033 38.7113 75.0033 39.71C75.0033 40.7833 74.7047 41.6233 74.1073 42.23C73.51 42.8367 72.7027 43.14 71.6853 43.14C71.0227 43.14 70.4207 42.9813 69.8793 42.664C69.3473 42.3467 68.9227 41.866 68.6053 41.222C68.288 40.5687 68.1293 39.7427 68.1293 38.744ZM71.6573 41.698C72.1333 41.698 72.5207 41.5393 72.8193 41.222C73.118 40.8953 73.2673 40.396 73.2673 39.724C73.2673 39.1827 73.1367 38.758 72.8753 38.45C72.614 38.1327 72.222 37.974 71.6993 37.974C71.3353 37.974 71.018 38.0533 70.7473 38.212C70.486 38.3613 70.2807 38.5573 70.1313 38.8C69.982 39.0333 69.9073 39.276 69.9073 39.528C69.9073 39.8733 69.9727 40.214 70.1033 40.55C70.234 40.8767 70.4253 41.152 70.6773 41.376C70.9387 41.5907 71.2653 41.698 71.6573 41.698ZM84.2998 35.272C85.1864 35.272 85.9004 35.6033 86.4418 36.266C86.9831 36.9193 87.2538 37.8947 87.2538 39.192C87.2538 40.4893 86.9738 41.474 86.4138 42.146C85.8631 42.8087 85.1444 43.14 84.2578 43.14C83.6978 43.14 83.2451 43.0373 82.8998 42.832C82.5544 42.6267 82.2791 42.3887 82.0738 42.118H81.9618C81.9898 42.2953 82.0131 42.4867 82.0318 42.692C82.0598 42.8973 82.0738 43.0933 82.0738 43.28V46.36H80.3098V35.412H81.7378L81.9898 36.42H82.0738C82.2884 36.1027 82.5684 35.832 82.9138 35.608C83.2591 35.384 83.7211 35.272 84.2998 35.272ZM83.7958 36.7C83.1704 36.7 82.7271 36.8867 82.4658 37.26C82.2138 37.6333 82.0831 38.198 82.0738 38.954V39.178C82.0738 39.99 82.1951 40.6153 82.4378 41.054C82.6898 41.4833 83.1518 41.698 83.8238 41.698C84.3744 41.698 84.7804 41.474 85.0418 41.026C85.3124 40.5687 85.4478 39.948 85.4478 39.164C85.4478 38.38 85.3124 37.7733 85.0418 37.344C84.7804 36.9147 84.3651 36.7 83.7958 36.7ZM90.438 39.122L87.932 35.412H89.934L91.586 37.988L93.238 35.412H95.24L92.706 39.122L95.366 43H93.364L91.586 40.242L89.808 43H87.806L90.438 39.122Z" fill="#D51588"/>
<path fill-rule="evenodd" clip-rule="evenodd" d="M99.5 55H107.5V56H99.5V55Z" fill="#D51588"/>
<path fill-rule="evenodd" clip-rule="evenodd" d="M103 55L103 21L104 21L104 55L103 55Z" fill="#D51588"/>
<path fill-rule="evenodd" clip-rule="evenodd" d="M99.5 20H107.5V21H99.5V20Z" fill="#D51588"/>
<path d="M348.27 60.858H346.968V63H345.232V60.858H340.78V59.542L345.274 52.976H346.968V59.416H348.27V60.858ZM345.232 59.416V57.176C345.232 56.9147 345.236 56.644 345.246 56.364C345.255 56.0747 345.264 55.8087 345.274 55.566C345.292 55.314 345.306 55.1227 345.316 54.992H345.26C345.176 55.1787 345.082 55.3653 344.98 55.552C344.886 55.7293 344.779 55.9067 344.658 56.084L342.39 59.416H345.232ZM357.286 55.272C358.173 55.272 358.887 55.6033 359.428 56.266C359.969 56.9193 360.24 57.8947 360.24 59.192C360.24 60.4893 359.96 61.474 359.4 62.146C358.849 62.8087 358.131 63.14 357.244 63.14C356.684 63.14 356.231 63.0373 355.886 62.832C355.541 62.6267 355.265 62.3887 355.06 62.118H354.948C354.976 62.2953 354.999 62.4867 355.018 62.692C355.046 62.8973 355.06 63.0933 355.06 63.28V66.36H353.296V55.412H354.724L354.976 56.42H355.06C355.275 56.1027 355.555 55.832 355.9 55.608C356.245 55.384 356.707 55.272 357.286 55.272ZM356.782 56.7C356.157 56.7 355.713 56.8867 355.452 57.26C355.2 57.6333 355.069 58.198 355.06 58.954V59.178C355.06 59.99 355.181 60.6153 355.424 61.054C355.676 61.4833 356.138 61.698 356.81 61.698C357.361 61.698 357.767 61.474 358.028 61.026C358.299 60.5687 358.434 59.948 358.434 59.164C358.434 58.38 358.299 57.7733 358.028 57.344C357.767 56.9147 357.351 56.7 356.782 56.7ZM363.424 59.122L360.918 55.412H362.92L364.572 57.988L366.224 55.412H368.226L365.692 59.122L368.352 63H366.35L364.572 60.242L362.794 63H360.792L363.424 59.122Z" fill="#D51588"/>
<path d="M348.27 20.858H346.968V23H345.232V20.858H340.78V19.542L345.274 12.976H346.968V19.416H348.27V20.858ZM345.232 19.416V17.176C345.232 16.9147 345.236 16.644 345.246 16.364C345.255 16.0747 345.264 15.8087 345.274 15.566C345.292 15.314 345.306 15.1227 345.316 14.992H345.26C345.176 15.1787 345.082 15.3653 344.98 15.552C344.886 15.7293 344.779 15.9067 344.658 16.084L342.39 19.416H345.232ZM357.286 15.272C358.173 15.272 358.887 15.6033 359.428 16.266C359.969 16.9193 360.24 17.8947 360.24 19.192C360.24 20.4893 359.96 21.474 359.4 22.146C358.849 22.8087 358.131 23.14 357.244 23.14C356.684 23.14 356.231 23.0373 355.886 22.832C355.541 22.6267 355.265 22.3887 355.06 22.118H354.948C354.976 22.2953 354.999 22.4867 355.018 22.692C355.046 22.8973 355.06 23.0933 355.06 23.28V26.36H353.296V15.412H354.724L354.976 16.42H355.06C355.275 16.1027 355.555 15.832 355.9 15.608C356.245 15.384 356.707 15.272 357.286 15.272ZM356.782 16.7C356.157 16.7 355.713 16.8867 355.452 17.26C355.2 17.6333 355.069 18.198 355.06 18.954V19.178C355.06 19.99 355.181 20.6153 355.424 21.054C355.676 21.4833 356.138 21.698 356.81 21.698C357.361 21.698 357.767 21.474 358.028 21.026C358.299 20.5687 358.434 19.948 358.434 19.164C358.434 18.38 358.299 17.7733 358.028 17.344C357.767 16.9147 357.351 16.7 356.782 16.7ZM363.424 19.122L360.918 15.412H362.92L364.572 17.988L366.224 15.412H368.226L365.692 19.122L368.352 23H366.35L364.572 20.242L362.794 23H360.792L363.424 19.122Z" fill="#D51588"/>
<rect opacity="0.4" x="315.5" y="16" width="4" height="200" transform="rotate(90 315.5 16)" fill="white"/>
<rect opacity="0.12" x="315.5" y="16" width="4" height="200" transform="rotate(90 315.5 16)" fill="#D51588"/>
<path opacity="0.5" d="M315.5 20L115.5 20" stroke="#D51588" stroke-dasharray="3 3"/>
<path opacity="0.5" d="M315.5 16L115.5 16" stroke="#D51588" stroke-dasharray="3 3"/>
<line x1="315.5" y1="57.5" x2="336.5" y2="57.5" stroke="#D51588"/>
<rect opacity="0.4" x="315.5" y="56" width="4" height="200" transform="rotate(90 315.5 56)" fill="white"/>
<rect opacity="0.12" x="315.5" y="56" width="4" height="200" transform="rotate(90 315.5 56)" fill="#D51588"/>
<path opacity="0.5" d="M315.5 60L115.5 60" stroke="#D51588" stroke-dasharray="3 3"/>
<path opacity="0.5" d="M315.5 56L115.5 56" stroke="#D51588" stroke-dasharray="3 3"/>
<line x1="315.5" y1="17.5" x2="336.5" y2="17.5" stroke="#D51588"/>
</svg>
