<svg width="904" height="130" viewBox="0 0 904 130" fill="none" xmlns="http://www.w3.org/2000/svg">
<rect width="904" height="130" fill="white"/>
<path d="M303.746 27V14.148H305.366V25.56H310.982V27H303.746ZM316.623 17.19C317.799 17.19 318.669 17.448 319.233 17.964C319.797 18.48 320.079 19.302 320.079 20.43V27H318.927L318.621 25.632H318.549C318.129 26.16 317.685 26.55 317.217 26.802C316.749 27.054 316.113 27.18 315.309 27.18C314.433 27.18 313.707 26.952 313.131 26.496C312.555 26.028 312.267 25.302 312.267 24.318C312.267 23.358 312.645 22.62 313.401 22.104C314.157 21.576 315.321 21.288 316.893 21.24L318.531 21.186V20.61C318.531 19.806 318.357 19.248 318.009 18.936C317.661 18.624 317.169 18.468 316.533 18.468C316.029 18.468 315.549 18.546 315.093 18.702C314.637 18.846 314.211 19.014 313.815 19.206L313.329 18.018C313.749 17.79 314.247 17.598 314.823 17.442C315.399 17.274 315.999 17.19 316.623 17.19ZM318.513 22.284L317.091 22.338C315.891 22.386 315.057 22.578 314.589 22.914C314.133 23.25 313.905 23.724 313.905 24.336C313.905 24.876 314.067 25.272 314.391 25.524C314.727 25.776 315.153 25.902 315.669 25.902C316.473 25.902 317.145 25.68 317.685 25.236C318.237 24.78 318.513 24.084 318.513 23.148V22.284ZM324.643 13.32V16.65C324.643 17.058 324.631 17.442 324.607 17.802C324.595 18.15 324.577 18.426 324.553 18.63H324.643C324.919 18.222 325.297 17.88 325.777 17.604C326.257 17.328 326.875 17.19 327.631 17.19C328.831 17.19 329.791 17.61 330.511 18.45C331.243 19.278 331.609 20.52 331.609 22.176C331.609 23.832 331.243 25.08 330.511 25.92C329.779 26.76 328.819 27.18 327.631 27.18C326.875 27.18 326.257 27.042 325.777 26.766C325.297 26.49 324.919 26.16 324.643 25.776H324.517L324.193 27H323.059V13.32H324.643ZM327.361 18.504C326.329 18.504 325.615 18.798 325.219 19.386C324.835 19.974 324.643 20.886 324.643 22.122V22.194C324.643 23.382 324.835 24.294 325.219 24.93C325.615 25.554 326.341 25.866 327.397 25.866C328.261 25.866 328.903 25.548 329.323 24.912C329.755 24.276 329.971 23.358 329.971 22.158C329.971 19.722 329.101 18.504 327.361 18.504ZM337.86 17.172C338.676 17.172 339.384 17.352 339.984 17.712C340.584 18.072 341.04 18.582 341.352 19.242C341.676 19.89 341.838 20.652 341.838 21.528V22.482H335.232C335.256 23.574 335.532 24.408 336.06 24.984C336.6 25.548 337.35 25.83 338.31 25.83C338.922 25.83 339.462 25.776 339.93 25.668C340.41 25.548 340.902 25.38 341.406 25.164V26.55C340.914 26.766 340.428 26.922 339.948 27.018C339.468 27.126 338.898 27.18 338.238 27.18C337.314 27.18 336.504 26.994 335.808 26.622C335.112 26.25 334.566 25.698 334.17 24.966C333.786 24.234 333.594 23.328 333.594 22.248C333.594 21.192 333.768 20.286 334.116 19.53C334.476 18.774 334.974 18.192 335.61 17.784C336.258 17.376 337.008 17.172 337.86 17.172ZM337.842 18.468C337.086 18.468 336.486 18.714 336.042 19.206C335.61 19.686 335.352 20.358 335.268 21.222H340.182C340.17 20.406 339.978 19.746 339.606 19.242C339.234 18.726 338.646 18.468 337.842 18.468ZM345.878 27H344.294V13.32H345.878V27Z" fill="#323232"/>
<rect x="302.75" y="38.75" width="298.5" height="52.5" rx="2.25" fill="white"/>
<path d="M326.783 73H324.893V59.665H320.21V58.006H331.445V59.665H326.783V73ZM336.324 61.534C337.276 61.534 338.102 61.744 338.802 62.164C339.502 62.584 340.034 63.179 340.398 63.949C340.776 64.705 340.965 65.594 340.965 66.616V67.729H333.258C333.286 69.003 333.608 69.976 334.224 70.648C334.854 71.306 335.729 71.635 336.849 71.635C337.563 71.635 338.193 71.572 338.739 71.446C339.299 71.306 339.873 71.11 340.461 70.858V72.475C339.887 72.727 339.32 72.909 338.76 73.021C338.2 73.147 337.535 73.21 336.765 73.21C335.687 73.21 334.742 72.993 333.93 72.559C333.118 72.125 332.481 71.481 332.019 70.627C331.571 69.773 331.347 68.716 331.347 67.456C331.347 66.224 331.55 65.167 331.956 64.285C332.376 63.403 332.957 62.724 333.699 62.248C334.455 61.772 335.33 61.534 336.324 61.534ZM336.303 63.046C335.421 63.046 334.721 63.333 334.203 63.907C333.699 64.467 333.398 65.251 333.3 66.259H339.033C339.019 65.307 338.795 64.537 338.361 63.949C337.927 63.347 337.241 63.046 336.303 63.046ZM346.088 67.246L342.203 61.744H344.303L347.201 65.986L350.078 61.744H352.157L348.272 67.246L352.367 73H350.267L347.201 68.506L344.093 73H342.014L346.088 67.246ZM358.295 71.698C358.575 71.698 358.862 71.677 359.156 71.635C359.45 71.593 359.688 71.537 359.87 71.467V72.874C359.674 72.972 359.394 73.049 359.03 73.105C358.666 73.175 358.316 73.21 357.98 73.21C357.392 73.21 356.846 73.112 356.342 72.916C355.852 72.706 355.453 72.349 355.145 71.845C354.837 71.341 354.683 70.634 354.683 69.724V63.172H353.087V62.29L354.704 61.555L355.439 59.161H356.531V61.744H359.786V63.172H356.531V69.682C356.531 70.368 356.692 70.879 357.014 71.215C357.35 71.537 357.777 71.698 358.295 71.698Z" fill="black"/>
<path d="M572.012 68.3625C571.912 68.3625 571.812 68.3125 571.762 68.2625L566.113 62.6625C565.962 62.5125 565.962 62.2625 566.113 62.1125C566.263 61.9625 566.512 61.9625 566.662 62.1125L572.012 67.4625L577.312 62.1125C577.462 61.9625 577.713 61.9625 577.863 62.1125C578.012 62.2625 578.012 62.5125 577.863 62.6625L572.262 68.2625C572.162 68.3125 572.112 68.3625 572.012 68.3625Z" fill="#323232"/>
<rect x="302.75" y="38.75" width="298.5" height="52.5" rx="2.25" stroke="#939393" stroke-width="1.5"/>
<path d="M311.81 117L310.262 113.022H305.168L303.638 117H302L307.022 104.094H308.48L313.484 117H311.81ZM309.776 111.582L308.336 107.694C308.3 107.598 308.24 107.424 308.156 107.172C308.072 106.92 307.988 106.662 307.904 106.398C307.832 106.122 307.772 105.912 307.724 105.768C307.628 106.14 307.526 106.506 307.418 106.866C307.322 107.214 307.238 107.49 307.166 107.694L305.708 111.582H309.776ZM318.446 117.18C317.246 117.18 316.286 116.766 315.566 115.938C314.846 115.098 314.486 113.85 314.486 112.194C314.486 110.538 314.846 109.29 315.566 108.45C316.298 107.598 317.264 107.172 318.464 107.172C319.208 107.172 319.814 107.31 320.282 107.586C320.762 107.862 321.152 108.198 321.452 108.594H321.56C321.536 108.438 321.512 108.21 321.488 107.91C321.464 107.598 321.452 107.352 321.452 107.172V103.32H323.036V117H321.758L321.524 115.704H321.452C321.164 116.112 320.78 116.46 320.3 116.748C319.82 117.036 319.202 117.18 318.446 117.18ZM318.698 115.866C319.718 115.866 320.432 115.59 320.84 115.038C321.26 114.474 321.47 113.628 321.47 112.5V112.212C321.47 111.012 321.272 110.094 320.876 109.458C320.48 108.81 319.748 108.486 318.68 108.486C317.828 108.486 317.186 108.828 316.754 109.512C316.334 110.184 316.124 111.09 316.124 112.23C316.124 113.382 316.334 114.276 316.754 114.912C317.186 115.548 317.834 115.866 318.698 115.866ZM329.52 117.18C328.32 117.18 327.36 116.766 326.64 115.938C325.92 115.098 325.56 113.85 325.56 112.194C325.56 110.538 325.92 109.29 326.64 108.45C327.372 107.598 328.338 107.172 329.538 107.172C330.282 107.172 330.888 107.31 331.356 107.586C331.836 107.862 332.226 108.198 332.526 108.594H332.634C332.61 108.438 332.586 108.21 332.562 107.91C332.538 107.598 332.526 107.352 332.526 107.172V103.32H334.11V117H332.832L332.598 115.704H332.526C332.238 116.112 331.854 116.46 331.374 116.748C330.894 117.036 330.276 117.18 329.52 117.18ZM329.772 115.866C330.792 115.866 331.506 115.59 331.914 115.038C332.334 114.474 332.544 113.628 332.544 112.5V112.212C332.544 111.012 332.346 110.094 331.95 109.458C331.554 108.81 330.822 108.486 329.754 108.486C328.902 108.486 328.26 108.828 327.828 109.512C327.408 110.184 327.198 111.09 327.198 112.23C327.198 113.382 327.408 114.276 327.828 114.912C328.26 115.548 328.908 115.866 329.772 115.866ZM337.985 103.734C338.225 103.734 338.435 103.818 338.615 103.986C338.807 104.142 338.903 104.394 338.903 104.742C338.903 105.09 338.807 105.348 338.615 105.516C338.435 105.672 338.225 105.75 337.985 105.75C337.721 105.75 337.499 105.672 337.319 105.516C337.139 105.348 337.049 105.09 337.049 104.742C337.049 104.394 337.139 104.142 337.319 103.986C337.499 103.818 337.721 103.734 337.985 103.734ZM338.759 107.352V117H337.175V107.352H338.759ZM345.037 115.884C345.277 115.884 345.523 115.866 345.775 115.83C346.027 115.794 346.231 115.746 346.387 115.686V116.892C346.219 116.976 345.979 117.042 345.667 117.09C345.355 117.15 345.055 117.18 344.767 117.18C344.263 117.18 343.795 117.096 343.363 116.928C342.943 116.748 342.601 116.442 342.337 116.01C342.073 115.578 341.941 114.972 341.941 114.192V108.576H340.573V107.82L341.959 107.19L342.589 105.138H343.525V107.352H346.315V108.576H343.525V114.156C343.525 114.744 343.663 115.182 343.939 115.47C344.227 115.746 344.593 115.884 345.037 115.884ZM349.129 103.734C349.369 103.734 349.579 103.818 349.759 103.986C349.951 104.142 350.047 104.394 350.047 104.742C350.047 105.09 349.951 105.348 349.759 105.516C349.579 105.672 349.369 105.75 349.129 105.75C348.865 105.75 348.643 105.672 348.463 105.516C348.283 105.348 348.193 105.09 348.193 104.742C348.193 104.394 348.283 104.142 348.463 103.986C348.643 103.818 348.865 103.734 349.129 103.734ZM349.903 107.352V117H348.319V107.352H349.903ZM361.348 112.158C361.348 113.754 360.94 114.99 360.124 115.866C359.32 116.742 358.228 117.18 356.848 117.18C355.996 117.18 355.234 116.988 354.562 116.604C353.902 116.208 353.38 115.638 352.996 114.894C352.612 114.138 352.42 113.226 352.42 112.158C352.42 110.562 352.816 109.332 353.608 108.468C354.412 107.604 355.51 107.172 356.902 107.172C357.766 107.172 358.534 107.37 359.206 107.766C359.878 108.15 360.4 108.714 360.772 109.458C361.156 110.19 361.348 111.09 361.348 112.158ZM354.058 112.158C354.058 113.298 354.28 114.204 354.724 114.876C355.18 115.536 355.9 115.866 356.884 115.866C357.856 115.866 358.57 115.536 359.026 114.876C359.482 114.204 359.71 113.298 359.71 112.158C359.71 111.018 359.482 110.124 359.026 109.476C358.57 108.828 357.85 108.504 356.866 108.504C355.882 108.504 355.168 108.828 354.724 109.476C354.28 110.124 354.058 111.018 354.058 112.158ZM368.502 107.172C369.654 107.172 370.524 107.454 371.112 108.018C371.7 108.582 371.994 109.482 371.994 110.718V117H370.428V110.826C370.428 109.278 369.708 108.504 368.268 108.504C367.2 108.504 366.462 108.804 366.054 109.404C365.646 110.004 365.442 110.868 365.442 111.996V117H363.858V107.352H365.136L365.37 108.666H365.46C365.772 108.162 366.204 107.79 366.756 107.55C367.308 107.298 367.89 107.172 368.502 107.172ZM378.639 107.19C379.815 107.19 380.685 107.448 381.249 107.964C381.813 108.48 382.095 109.302 382.095 110.43V117H380.943L380.637 115.632H380.565C380.145 116.16 379.701 116.55 379.233 116.802C378.765 117.054 378.129 117.18 377.325 117.18C376.449 117.18 375.723 116.952 375.147 116.496C374.571 116.028 374.283 115.302 374.283 114.318C374.283 113.358 374.661 112.62 375.417 112.104C376.173 111.576 377.337 111.288 378.909 111.24L380.547 111.186V110.61C380.547 109.806 380.373 109.248 380.025 108.936C379.677 108.624 379.185 108.468 378.549 108.468C378.045 108.468 377.565 108.546 377.109 108.702C376.653 108.846 376.227 109.014 375.831 109.206L375.345 108.018C375.765 107.79 376.263 107.598 376.839 107.442C377.415 107.274 378.015 107.19 378.639 107.19ZM380.529 112.284L379.107 112.338C377.907 112.386 377.073 112.578 376.605 112.914C376.149 113.25 375.921 113.724 375.921 114.336C375.921 114.876 376.083 115.272 376.407 115.524C376.743 115.776 377.169 115.902 377.685 115.902C378.489 115.902 379.161 115.68 379.701 115.236C380.253 114.78 380.529 114.084 380.529 113.148V112.284ZM386.659 117H385.075V103.32H386.659V117ZM398.261 117.18C397.397 117.18 396.635 117.006 395.975 116.658C395.315 116.31 394.793 115.77 394.409 115.038C394.037 114.306 393.851 113.37 393.851 112.23C393.851 111.042 394.043 110.076 394.427 109.332C394.823 108.588 395.363 108.042 396.047 107.694C396.731 107.346 397.505 107.172 398.369 107.172C398.849 107.172 399.317 107.226 399.773 107.334C400.241 107.43 400.619 107.55 400.907 107.694L400.421 109.008C400.133 108.9 399.797 108.798 399.413 108.702C399.029 108.606 398.669 108.558 398.333 108.558C396.437 108.558 395.489 109.776 395.489 112.212C395.489 113.376 395.717 114.27 396.173 114.894C396.641 115.506 397.331 115.812 398.243 115.812C398.759 115.812 399.221 115.758 399.629 115.65C400.037 115.542 400.409 115.41 400.745 115.254V116.658C400.421 116.826 400.061 116.952 399.665 117.036C399.281 117.132 398.813 117.18 398.261 117.18ZM411.428 112.158C411.428 113.754 411.02 114.99 410.204 115.866C409.4 116.742 408.308 117.18 406.928 117.18C406.076 117.18 405.314 116.988 404.642 116.604C403.982 116.208 403.46 115.638 403.076 114.894C402.692 114.138 402.5 113.226 402.5 112.158C402.5 110.562 402.896 109.332 403.688 108.468C404.492 107.604 405.59 107.172 406.982 107.172C407.846 107.172 408.614 107.37 409.286 107.766C409.958 108.15 410.48 108.714 410.852 109.458C411.236 110.19 411.428 111.09 411.428 112.158ZM404.138 112.158C404.138 113.298 404.36 114.204 404.804 114.876C405.26 115.536 405.98 115.866 406.964 115.866C407.936 115.866 408.65 115.536 409.106 114.876C409.562 114.204 409.79 113.298 409.79 112.158C409.79 111.018 409.562 110.124 409.106 109.476C408.65 108.828 407.93 108.504 406.946 108.504C405.962 108.504 405.248 108.828 404.804 109.476C404.36 110.124 404.138 111.018 404.138 112.158ZM418.582 107.172C419.734 107.172 420.604 107.454 421.192 108.018C421.78 108.582 422.074 109.482 422.074 110.718V117H420.508V110.826C420.508 109.278 419.788 108.504 418.348 108.504C417.28 108.504 416.542 108.804 416.134 109.404C415.726 110.004 415.522 110.868 415.522 111.996V117H413.938V107.352H415.216L415.45 108.666H415.54C415.852 108.162 416.284 107.79 416.836 107.55C417.388 107.298 417.97 107.172 418.582 107.172ZM428.287 115.884C428.527 115.884 428.773 115.866 429.025 115.83C429.277 115.794 429.481 115.746 429.637 115.686V116.892C429.469 116.976 429.229 117.042 428.917 117.09C428.605 117.15 428.305 117.18 428.017 117.18C427.513 117.18 427.045 117.096 426.613 116.928C426.193 116.748 425.851 116.442 425.587 116.01C425.323 115.578 425.191 114.972 425.191 114.192V108.576H423.823V107.82L425.209 107.19L425.839 105.138H426.775V107.352H429.565V108.576H426.775V114.156C426.775 114.744 426.913 115.182 427.189 115.47C427.477 115.746 427.843 115.884 428.287 115.884ZM435.295 107.172C436.111 107.172 436.819 107.352 437.419 107.712C438.019 108.072 438.475 108.582 438.787 109.242C439.111 109.89 439.273 110.652 439.273 111.528V112.482H432.667C432.691 113.574 432.967 114.408 433.495 114.984C434.035 115.548 434.785 115.83 435.745 115.83C436.357 115.83 436.897 115.776 437.365 115.668C437.845 115.548 438.337 115.38 438.841 115.164V116.55C438.349 116.766 437.863 116.922 437.383 117.018C436.903 117.126 436.333 117.18 435.673 117.18C434.749 117.18 433.939 116.994 433.243 116.622C432.547 116.25 432.001 115.698 431.605 114.966C431.221 114.234 431.029 113.328 431.029 112.248C431.029 111.192 431.203 110.286 431.551 109.53C431.911 108.774 432.409 108.192 433.045 107.784C433.693 107.376 434.443 107.172 435.295 107.172ZM435.277 108.468C434.521 108.468 433.921 108.714 433.477 109.206C433.045 109.686 432.787 110.358 432.703 111.222H437.617C437.605 110.406 437.413 109.746 437.041 109.242C436.669 108.726 436.081 108.468 435.277 108.468ZM446.373 107.172C447.525 107.172 448.395 107.454 448.983 108.018C449.571 108.582 449.865 109.482 449.865 110.718V117H448.299V110.826C448.299 109.278 447.579 108.504 446.139 108.504C445.071 108.504 444.333 108.804 443.925 109.404C443.517 110.004 443.313 110.868 443.313 111.996V117H441.729V107.352H443.007L443.241 108.666H443.331C443.643 108.162 444.075 107.79 444.627 107.55C445.179 107.298 445.761 107.172 446.373 107.172ZM456.078 115.884C456.318 115.884 456.564 115.866 456.816 115.83C457.068 115.794 457.272 115.746 457.428 115.686V116.892C457.26 116.976 457.02 117.042 456.708 117.09C456.396 117.15 456.096 117.18 455.808 117.18C455.304 117.18 454.836 117.096 454.404 116.928C453.984 116.748 453.642 116.442 453.378 116.01C453.114 115.578 452.982 114.972 452.982 114.192V108.576H451.614V107.82L453 107.19L453.63 105.138H454.566V107.352H457.356V108.576H454.566V114.156C454.566 114.744 454.704 115.182 454.98 115.47C455.268 115.746 455.634 115.884 456.078 115.884Z" fill="#5E5E5E"/>
</svg>
