<svg width="408" height="176" viewBox="0 0 408 176" fill="none" xmlns="http://www.w3.org/2000/svg">
<rect width="408" height="176" fill="white"/>
<path d="M240.5 88C240.5 107.569 224.196 123.5 204 123.5C183.804 123.5 167.5 107.569 167.5 88C167.5 68.4313 183.804 52.5 204 52.5C224.196 52.5 240.5 68.4313 240.5 88Z" stroke="#003A51" stroke-width="3"/>
<path d="M223.5 88C223.5 98.7696 214.77 107.5 204 107.5C193.23 107.5 184.5 98.7696 184.5 88C184.5 77.2304 193.23 68.5 204 68.5C214.77 68.5 223.5 77.2304 223.5 88Z" stroke="#003A51" stroke-width="3"/>
<path d="M208.5 88C208.5 90.4853 206.485 92.5 204 92.5C201.515 92.5 199.5 90.4853 199.5 88C199.5 85.5147 201.515 83.5 204 83.5C206.485 83.5 208.5 85.5147 208.5 88Z" stroke="#088A08" stroke-width="3"/>
</svg>
