<svg width="408" height="176" viewBox="0 0 408 176" fill="none" xmlns="http://www.w3.org/2000/svg">
<rect width="408" height="176" fill="white"/>
<path d="M217.5 88C217.5 106.462 202.094 121.5 183 121.5C163.906 121.5 148.5 106.462 148.5 88C148.5 69.538 163.906 54.5 183 54.5C202.094 54.5 217.5 69.538 217.5 88Z" stroke="#003A51" stroke-width="3"/>
<path d="M197.5 88C197.5 96.0081 191.008 102.5 183 102.5C174.992 102.5 168.5 96.0081 168.5 88C168.5 79.9919 174.992 73.5 183 73.5C191.008 73.5 197.5 79.9919 197.5 88Z" stroke="#003A51" stroke-width="3"/>
<path d="M183 87.7793L247.717 70.4384" stroke="#AB3FE0" stroke-width="3"/>
<path d="M255.237 55.9996L246.751 70.6966L261.448 79.1819" stroke="#AB3FE0" stroke-width="3"/>
<path d="M243.645 59.1071L235.16 73.804L249.856 82.2893" stroke="#AB3FE0" stroke-width="3"/>
</svg>
