<svg width="903" height="156" viewBox="0 0 903 156" fill="none" xmlns="http://www.w3.org/2000/svg">
<rect width="903" height="156" fill="white"/>
<g clip-path="url(#clip0_6255_167605)">
<path d="M120.801 105.917H109.398L68.5495 42.6376H68.2091L68.5495 46.8675C68.8899 53.1278 69.2303 58.7113 69.2303 63.2797V105.748H60.0396V29.6094H71.2727L73.6555 33.3317L98.8451 71.9087L112.121 92.5508H112.461C112.461 91.7048 112.291 88.8285 112.121 83.5834C111.951 78.3382 111.78 74.7851 111.78 72.4163V29.7786H120.801V105.917Z" fill="#004E6C"/>
<path d="M164.713 106.933C156.033 106.933 149.395 104.395 144.459 99.1499C139.523 93.9048 137.141 86.7985 137.141 77.6618C137.141 68.5252 139.353 61.2497 143.949 55.8353C148.544 50.421 154.671 47.7139 162.5 47.7139C169.649 47.7139 175.436 50.0826 179.861 54.651C184.116 59.2193 186.328 65.4796 186.328 73.4319V79.1846H146.672C146.842 85.6141 148.544 90.5208 151.608 93.9048C154.671 97.2887 159.267 98.9807 164.883 98.9807C167.947 98.9807 170.84 98.6423 173.563 98.1347C176.287 97.6271 179.52 96.6119 183.265 94.9199V103.211C180.031 104.564 177.138 105.579 174.244 106.087C171.691 106.595 168.457 106.933 164.713 106.933ZM162.33 55.3278C157.905 55.3278 154.331 56.8505 151.608 59.7269C148.884 62.6032 147.353 66.664 147.012 71.7399H176.287C176.287 66.3256 174.925 62.2648 172.542 59.5577C170.159 56.8505 166.755 55.3278 162.33 55.3278Z" fill="#004E6C"/>
<path d="M246.578 105.917L236.707 73.77C235.856 71.0628 234.494 65.9869 232.792 58.5422H232.452C230.92 65.3101 229.728 70.386 228.537 73.77L218.155 105.748H207.432L191.604 48.5596H201.305C204.879 62.603 207.773 73.2624 209.645 80.5379C211.517 87.8134 212.708 93.0585 213.049 96.104H213.389L214.07 92.8893C215.091 87.9826 216.283 83.9218 217.134 80.7071L227.346 48.5596H237.558L247.429 80.7071C247.77 81.8915 248.11 83.245 248.621 84.5986C248.961 85.9522 249.472 87.3058 249.812 88.6594C250.152 90.0129 250.493 91.3665 250.833 92.5509C251.174 93.7353 251.344 94.9197 251.514 95.9348H252.025C252.365 93.2277 253.556 87.6442 255.769 79.0151L263.768 48.5596H273.47L257.471 105.748H246.578V105.917Z" fill="#004E6C"/>
<path d="M402.142 105.918L376.952 39.2541H376.612C377.122 44.8376 377.463 51.6055 377.463 59.8962V106.087H368.612V29.9482H382.909L406.567 92.3821H406.907L430.905 29.9482H445.032V106.087H435.501V59.0502C435.501 53.8051 435.671 47.2064 436.182 39.2541H435.841L410.311 105.918H402.142Z" fill="#004E6C"/>
<path d="M514.304 77.1541C514.304 86.4599 511.921 93.7354 507.155 98.9806C502.39 104.226 495.922 106.764 487.412 106.764C482.136 106.764 477.54 105.579 473.626 103.21C469.711 100.842 466.477 97.2886 464.435 92.8895C462.222 88.3211 461.201 83.076 461.201 77.1541C461.201 67.8482 463.584 60.5728 468.179 55.4968C472.775 50.2517 479.413 47.7137 487.923 47.7137C491.667 47.7137 495.241 48.3905 498.305 49.5749C501.368 50.7593 504.262 52.6205 506.474 54.9892C508.176 54.4816 509.538 53.6357 510.559 52.4513C511.58 51.2669 512.431 49.9133 512.772 48.0521C513.112 46.191 513.453 43.653 513.453 39.9307H523.494L524.175 41.115C522.984 46.6986 521.452 50.9285 519.239 53.974C517.027 57.0196 514.133 59.2192 510.389 60.5728C513.112 65.6487 514.304 71.063 514.304 77.1541ZM470.903 77.1541C470.903 84.5988 472.264 90.1823 474.987 93.7354C477.711 97.2886 481.966 99.1497 487.752 99.1497C493.709 99.1497 497.964 97.2886 500.517 93.5662C503.07 89.8439 504.432 84.4296 504.432 77.1541C504.432 70.0478 503.07 64.6335 500.347 60.9111C497.624 57.1888 493.369 55.4968 487.412 55.4968C481.455 55.4968 477.2 57.358 474.647 60.9111C472.094 64.4643 470.903 70.0478 470.903 77.1541ZM481.285 39.9307C482.646 38.2387 484.348 35.8699 486.391 32.8244C488.433 29.7788 490.135 26.9025 491.497 24.1953H502.9V25.3797C501.368 27.5793 498.986 30.4556 495.752 33.8396C492.518 37.2235 489.795 39.7615 487.582 41.4534H481.285V39.9307Z" fill="#004E6C"/>
<path d="M529.623 33.3321C529.623 31.3017 530.133 29.7789 531.154 28.7637C532.176 27.7485 533.537 27.4102 535.069 27.4102C536.601 27.4102 537.792 27.9177 538.984 28.7637C540.005 29.7789 540.686 31.1325 540.686 33.3321C540.686 35.3624 540.175 36.8852 538.984 37.9004C537.962 38.9156 536.601 39.4232 535.069 39.4232C533.537 39.4232 532.176 38.9156 531.154 37.9004C530.303 36.8852 529.623 35.3624 529.623 33.3321ZM539.835 105.918H530.474V48.729H539.835V105.918Z" fill="#004E6C"/>
<path d="M641.614 47.0369V41.2842H706.29V47.0369H695.567V105.918H693.525C690.291 96.2733 686.036 88.8287 680.76 83.5835C675.484 78.3384 671.058 75.8005 667.484 75.8005C666.123 75.8005 665.442 76.4772 665.442 77.6616C665.782 79.3536 665.952 80.1996 665.952 80.538C665.952 82.9067 665.101 84.9371 663.399 86.4599C661.697 87.9827 659.485 88.8287 656.591 88.8287C653.698 88.8287 651.315 87.8135 649.273 85.9523C647.23 84.0911 646.379 81.384 646.379 78C646.379 74.7853 647.741 72.0781 650.294 69.8785C652.847 67.679 655.911 66.6638 659.315 66.6638C664.421 66.6638 669.527 68.6942 674.462 72.7549C679.398 76.8156 684.164 82.7375 688.929 90.859V47.0369H641.614Z" fill="#004E6C"/>
<path d="M705.439 47.0369V41.2842H779.136V47.0369H705.439ZM709.524 53.128L712.247 52.9588C713.779 64.9718 717.694 75.1237 723.651 83.7527C729.608 92.3818 737.267 96.6117 746.798 96.6117C753.436 96.6117 758.542 94.5814 762.457 90.6898C766.371 86.7983 768.243 81.7224 768.243 75.4621C768.243 70.5553 766.712 66.3254 763.478 62.9415C760.244 59.5575 756.5 57.8655 752.245 57.8655C749.181 57.8655 747.479 58.5423 747.479 59.8959C747.479 60.2343 748.16 61.0803 749.692 62.4339C751.223 63.7874 751.904 65.4794 751.904 67.679C751.904 70.3861 751.053 72.5857 749.181 74.6161C747.309 76.6464 744.926 77.6616 742.203 77.6616C738.799 77.6616 736.246 76.4772 734.203 74.2777C732.161 72.0781 731.14 69.2018 731.14 65.8178C731.14 61.5879 732.672 58.2039 735.735 55.4968C738.799 52.9588 743.054 51.6052 748.5 51.6052C755.478 51.6052 761.095 54.1432 765.35 59.2191C769.605 64.295 771.818 70.7245 771.818 78.5076C771.818 86.6291 769.435 93.2278 764.669 98.3037C759.904 103.38 754.287 105.748 747.649 105.748C740.671 105.748 734.884 103.38 729.948 98.6421C725.012 93.9046 720.587 87.3059 716.673 78.5076C712.758 69.7094 710.205 61.4187 709.524 53.128Z" fill="#004E6C"/>
<path d="M764.669 117.592L765.52 113.87H768.243C768.413 114.378 768.243 116.239 767.562 119.454C771.817 121.653 776.753 126.052 782.369 132.651L780.327 134.681C775.051 129.267 770.285 125.545 766.2 123.514C762.626 129.605 757.69 132.82 751.223 132.82C747.989 132.82 745.096 131.974 743.053 130.451C740.841 128.929 739.819 126.729 739.819 124.191C739.819 121.653 741.011 119.454 743.394 117.592C745.776 115.731 748.67 114.885 752.074 114.885C755.308 114.716 759.392 115.731 764.669 117.592ZM762.967 121.992C760.754 120.976 758.201 120.638 755.308 120.469H754.967C753.095 120.469 751.393 120.807 750.031 121.653C748.67 122.499 748.159 123.514 748.159 124.868C748.159 127.406 749.861 128.59 753.435 128.59C755.308 128.59 757.18 127.914 759.052 126.729C760.924 125.545 762.286 124.022 762.967 121.992Z" fill="#004E6C"/>
<path d="M778.284 47.0369V41.2842H842.96V47.0369H832.237V105.918H830.195C826.961 96.2733 822.706 88.8287 817.43 83.5835C812.154 78.3384 807.729 75.8005 804.154 75.8005C802.793 75.8005 802.112 76.4772 802.112 77.6616C802.452 79.3536 802.622 80.1996 802.622 80.538C802.622 82.9067 801.771 84.9371 800.069 86.4599C798.367 87.9827 796.155 88.8287 793.261 88.8287C790.368 88.8287 787.985 87.8135 785.943 85.9523C783.901 84.0911 783.05 81.384 783.05 78C783.05 74.7853 784.411 72.0781 786.964 69.8785C789.517 67.679 792.581 66.6638 795.985 66.6638C801.091 66.6638 806.197 68.6942 811.132 72.7549C816.068 76.8156 820.834 82.7375 825.599 90.859V47.0369H778.284Z" fill="#004E6C"/>
<path d="M877 0V29.7787H842.96V41.115H641.613V29.7787H540.685V24.1952H368.442V29.7787H26V0H877Z" fill="#FFF7EB"/>
<path d="M877 105.918V156H26V105.918H641.613V134.512H842.96V105.918H877Z" fill="#FFF7EB"/>
<path d="M877 28.0864H842.96V39.4227H641.613V28.0864H540.685V22.5029H368.442V28.0864H26" stroke="#B35C00" stroke-width="2" stroke-miterlimit="10"/>
<path d="M26 107.609H641.613V136.204H842.96V107.609H877" stroke="#B35C00" stroke-width="2" stroke-miterlimit="10"/>
</g>
<defs>
<clipPath id="clip0_6255_167605">
<rect width="851" height="156" fill="white" transform="translate(26)"/>
</clipPath>
</defs>
</svg>
