<svg width="408" height="178" viewBox="0 0 408 178" fill="none" xmlns="http://www.w3.org/2000/svg">
<rect width="408" height="178" fill="white"/>
<path d="M84.4708 69H4V109H84.4708V69Z" fill="#FFD79B"/>
<path d="M23.7903 95.2727L21.6107 89.3636H14.3744L12.1948 95.2727H9.84082L16.9899 76.1818H19.0823L26.1442 95.2727H23.7903ZM18.8208 81.4545C18.7336 81.2727 18.6464 81.0909 18.5592 80.7273C18.472 80.3636 18.2977 80 18.2105 79.5455C18.1233 79.1818 18.0361 78.8182 17.9489 78.6364C17.8617 79.1818 17.6874 79.7273 17.513 80.2727C17.3386 80.8182 17.2515 81.1818 17.1643 81.4545L15.0719 87.1818H20.826L18.8208 81.4545ZM31.3753 95.2727L26.2314 81H28.6726L31.5496 89.4545C31.724 89.8182 31.8112 90.2727 31.9856 90.7273C32.1599 91.1818 32.2471 91.6364 32.4215 92.0909C32.5087 92.5455 32.5958 92.9091 32.683 93.1818V93.1818C32.7702 92.9091 32.8574 92.5455 32.9446 92.0909C33.119 91.6364 33.2061 91.1818 33.3805 90.7273C33.5549 90.2727 33.7292 89.8182 33.8164 89.4545L36.6935 81H39.1346L33.9036 95.2727H31.3753ZM46.4581 80.7273C48.1146 80.7273 49.3352 81.0909 50.1198 81.9091C50.9045 82.6364 51.3404 83.9091 51.3404 85.5454V95.2727H49.6839L49.248 93.2727C48.6377 94.0909 48.0274 94.6364 47.3299 95C46.7197 95.3636 45.7606 95.5454 44.6272 95.5454C43.4067 95.5454 42.3605 95.1818 41.5758 94.5454C40.7911 93.8182 40.3552 92.8182 40.3552 91.3636C40.3552 89.9091 40.8783 88.8182 41.9245 88.0909C42.9707 87.2727 44.6272 86.9091 46.894 86.8182L49.248 86.7273V85.9091C49.248 84.7273 48.9864 83.9091 48.5505 83.4545C48.0274 83 47.3299 82.7273 46.4581 82.7273C45.7606 82.7273 45.0632 82.8182 44.4529 83.0909C43.8426 83.2727 43.2323 83.5455 42.622 83.8182L41.9245 82.0909C42.5348 81.7273 43.2323 81.4545 44.0169 81.2727C44.7144 80.8182 45.5863 80.7273 46.4581 80.7273ZM47.1556 88.3636C45.4119 88.4545 44.2785 88.7273 43.581 89.1818C42.9707 89.6364 42.622 90.3636 42.622 91.2727C42.622 92.0909 42.8836 92.6364 43.3195 93C43.7554 93.3636 44.3657 93.5454 45.1503 93.5454C46.2837 93.5454 47.2428 93.1818 48.0274 92.5455C48.8121 91.9091 49.1608 90.8182 49.1608 89.4545V88.1818L47.1556 88.3636ZM53.4328 81H55.874L58.8382 89.0909C59.0998 89.8182 59.3613 90.4545 59.5357 91.1818C59.7101 91.8182 59.8844 92.4545 59.9716 93H60.0588C60.146 92.5455 60.3204 92 60.5819 91.2727C60.8435 90.5455 61.0178 89.8182 61.2794 89.0909L64.0693 81H66.5104L60.5819 97.1818C60.146 98.5454 59.4485 99.6364 58.751 100.364C57.9664 101.182 56.9202 101.545 55.6124 101.545C55.1765 101.545 54.8278 101.545 54.5662 101.455C54.2175 101.455 53.9559 101.364 53.7816 101.364V99.4545C53.9559 99.4545 54.2175 99.5454 54.479 99.5454C54.7406 99.5454 55.0021 99.6364 55.3509 99.6364C56.1355 99.6364 56.7458 99.3636 57.2689 98.9091C57.792 98.4545 58.1408 97.8182 58.4023 97.0909L59.0998 95.1818L53.4328 81ZM73.8339 80.7273C75.4904 80.7273 76.711 81.0909 77.4956 81.9091C78.2803 82.6364 78.7162 83.9091 78.7162 85.5454V95.2727H77.0597L76.6238 93.2727H76.5366C75.9263 94.0909 75.316 94.6364 74.6185 95C74.0082 95.3636 73.0492 95.5454 71.9158 95.5454C70.6952 95.5454 69.649 95.1818 68.8644 94.5454C68.0797 93.8182 67.6438 92.8182 67.6438 91.3636C67.6438 89.9091 68.1669 88.8182 69.2131 88.0909C70.2593 87.2727 71.9158 86.9091 74.1826 86.8182L76.5366 86.7273V85.9091C76.5366 84.7273 76.275 83.9091 75.8391 83.4545C75.316 83 74.6185 82.7273 73.7467 82.7273C73.0492 82.7273 72.3517 82.8182 71.7415 83.0909C71.1312 83.2727 70.5209 83.5455 69.9106 83.8182L69.2131 82.0909C69.8234 81.7273 70.5209 81.4545 71.3055 81.2727C72.0902 80.8182 72.962 80.7273 73.8339 80.7273ZM74.4442 88.3636C72.7005 88.4545 71.5671 88.7273 70.8696 89.1818C70.2593 89.6364 69.9106 90.3636 69.9106 91.2727C69.9106 92.0909 70.1721 92.6364 70.6081 93C71.044 93.3636 71.6543 93.5454 72.4389 93.5454C73.5723 93.5454 74.5314 93.1818 75.316 92.5455C76.1007 91.9091 76.4494 90.8182 76.4494 89.4545V88.1818L74.4442 88.3636ZM91.9681 79.4545H101.384V81.2727L96.5889 95.2727H94.1477L98.9429 81.7273H89.6142V75H91.881V79.4545H91.9681ZM104.697 95.2727L103.302 79.4545H105.569L106.266 87.5455L108.01 87C108.707 86.7273 109.231 86.3636 109.579 85.8182C109.928 85.2727 110.19 84.4545 110.277 83.5455L110.626 79.4545H112.892L112.544 83.0909C112.456 84.0909 112.282 85 112.108 85.8182C111.933 86.5455 111.497 87.2727 110.974 87.8182C110.451 88.3636 109.492 88.8182 108.359 89.1818L106.441 89.7273L106.702 93H109.928C111.061 93 112.108 92.7273 113.067 92.2727C114.026 91.8182 114.81 91 115.421 89.9091C116.031 88.8182 116.38 87.4545 116.554 85.7273L117.077 79.4545H119.344L118.821 85.7273C118.734 86.3636 118.646 87.1818 118.472 88C118.298 88.8182 118.036 89.6364 117.6 90.5454C117.252 91.3636 116.641 92.1818 116.031 92.8182C115.333 93.5454 114.549 94.0909 113.503 94.5454C112.456 95 111.323 95.1818 109.841 95.1818H104.697V95.2727ZM127.801 95.2727V93.0909H128.934C129.893 93.0909 130.329 92.2727 130.329 90.6364V81.7273H127.888V79.5455H136.781C138.524 79.5455 139.832 79.9091 140.617 80.7273C141.489 81.5455 141.925 82.8182 141.925 84.5455V95.2727H139.658V85C139.658 83.7273 139.396 82.9091 138.873 82.4545C138.35 82 137.653 81.7273 136.694 81.7273H132.77V90.4545C132.77 92.0909 132.509 93.2727 131.898 94.0909C131.288 94.9091 130.329 95.2727 128.934 95.2727H127.801V95.2727ZM145.848 89.5454V79.4545H148.115V87.1818L146.981 89.5454H145.848ZM152.648 79.4545H162.064V81.2727L157.356 95.2727H154.915L159.71 81.7273H150.381V75H152.648V79.4545ZM163.721 95.2727V93.0909H171.829V85.0909C171.829 83.8182 171.567 83 171.044 82.5455C170.521 82.0909 169.823 81.8182 168.864 81.8182H163.721V79.6364H169.039C170.782 79.6364 172.09 80 172.875 80.8182C173.747 81.6364 174.183 82.9091 174.183 84.6364V93.1818H176.188V95.3636H163.721V95.2727ZM178.978 95.2727V79.4545H181.245V95.1818H178.978V95.2727ZM186.127 79.4545H195.543V81.2727L190.748 95.2727H188.306L193.102 81.7273H183.773V75H186.04V79.4545H186.127ZM196.851 95.5454V93C197.548 92.7273 198.158 92.4545 198.681 92.0909C199.204 91.7273 199.728 91.2727 200.076 90.7273C201.21 89.3636 201.733 87.8182 201.733 86.1818V83.4545C201.733 82.8182 201.646 82.3636 201.384 82.1818C201.123 81.9091 200.774 81.8182 200.251 81.8182H197.81V79.6364H200.948C201.82 79.6364 202.605 79.9091 203.128 80.4545C203.738 81 204 81.9091 204 83.2727V90.6364L204.523 95.3636H202.692L201.994 91H201.907C201.471 91.9091 200.948 92.6364 200.338 93.2727C199.728 93.9091 199.117 94.3636 198.507 94.7273C197.897 95 197.374 95.2727 196.851 95.5454ZM217.687 95.2727V85C217.687 83.7273 217.426 82.9091 216.903 82.4545C216.38 82 215.682 81.7273 214.723 81.7273H207.574V79.5455H214.898C216.641 79.5455 217.949 79.9091 218.734 80.7273C219.606 81.5455 220.041 82.8182 220.041 84.5455V95.2727H217.687V95.2727ZM207.487 95.2727V85.8182H209.754V95.2727H207.487ZM240.966 95.2727V85C240.966 83.7273 240.704 82.9091 240.181 82.4545C239.658 82 238.96 81.7273 238.001 81.7273H230.852V79.5455H238.176C239.919 79.5455 241.227 79.9091 242.012 80.7273C242.884 81.5455 243.32 82.8182 243.32 84.5455V95.2727H240.966V95.2727ZM230.852 95.2727V85.8182H233.119V95.2727H230.852ZM247.243 89.5454V79.4545H249.51V87.1818L248.376 89.5454H247.243ZM260.233 79.1818C261.977 79.1818 263.372 79.7273 264.331 80.7273C265.29 81.7273 265.726 83 265.726 84.6364V95.2727H259.1V93.0909H263.459V85C263.459 83.9091 263.198 83 262.674 82.3636C262.151 81.7273 261.279 81.3636 260.146 81.3636C258.838 81.3636 257.792 81.8182 257.095 82.8182C256.397 83.7273 255.961 85 255.787 86.6364L254.915 95.3636H252.648L253.782 84.4545L252.735 79.6364H255.002L255.438 81.9091H255.525C255.787 81.4545 256.136 81.0909 256.572 80.6364C257.007 80.1818 257.443 79.9091 258.054 79.7273C258.664 79.2727 259.361 79.1818 260.233 79.1818ZM275.926 95.2727V81.6364H268.08V79.4545H280.547V81.6364H278.193V95.1818H275.926V95.2727ZM289.178 95.2727L293.973 81.7273H283.25V79.5455H296.415V81.3636L291.62 95.2727H289.178ZM283.163 101.636V85.6364H285.429V101.727H283.163V101.636ZM298.681 95.2727V91.0909C298.681 89.3636 298.943 88 299.466 86.9091C299.989 85.8182 300.774 85 301.733 84.4545L298.507 79.4545H301.21L306.877 88.2727C308.097 87.4545 308.708 85.9091 308.708 83.5455V79.4545H310.974V83.3636C310.974 85.0909 310.713 86.4545 310.19 87.5455C309.667 88.6364 308.882 89.4545 307.923 90L311.41 95.2727H308.708L302.779 86.0909C301.558 86.9091 300.948 88.4545 300.948 90.8182V95.1818H298.681V95.2727ZM325.098 95.2727V85C325.098 83.7273 324.837 82.9091 324.314 82.4545C323.79 82 323.093 81.7273 322.134 81.7273H314.985V79.5455H322.308C324.052 79.5455 325.36 79.9091 326.144 80.7273C327.016 81.5455 327.452 82.8182 327.452 84.5455V95.2727H325.098V95.2727ZM314.898 95.2727V85.8182H317.164V95.2727H314.898ZM336.955 95.2727V93.0909H338.089C339.048 93.0909 339.484 92.2727 339.484 90.6364V81.7273H337.042V79.5455H345.935C347.679 79.5455 348.987 79.9091 349.771 80.7273C350.643 81.5455 351.079 82.8182 351.079 84.5455V95.2727H348.812V85C348.812 83.7273 348.551 82.9091 348.028 82.4545C347.504 82 346.807 81.7273 345.848 81.7273H341.925V90.4545C341.925 92.0909 341.663 93.2727 341.053 94.0909C340.443 94.9091 339.484 95.2727 338.089 95.2727H336.955V95.2727ZM355.787 79.4545H365.203V81.2727L360.408 95.2727H357.967L362.762 81.7273H353.433V75H355.7V79.4545H355.787ZM367.993 89.5454V79.4545H370.259V87.1818L369.126 89.5454H367.993ZM384.47 95.2727V85C384.47 83.7273 384.209 82.9091 383.686 82.4545C383.163 82 382.465 81.7273 381.506 81.7273H374.357V79.5455H381.681C383.424 79.5455 384.732 79.9091 385.517 80.7273C386.389 81.5455 386.824 82.8182 386.824 84.5455V95.2727H384.47V95.2727ZM374.27 95.2727V85.8182H376.537V95.2727H374.27ZM396.763 95.2727L401.559 81.7273H390.835V79.5455H404V81.3636L399.205 95.3636H396.763V95.2727ZM390.835 101.636V85.6364H393.102V101.727H390.835V101.636Z" fill="#004E6C"/>
</svg>
