<svg width="408" height="256" viewBox="0 0 408 256" fill="none" xmlns="http://www.w3.org/2000/svg">
<rect width="408" height="256" fill="white"/>
<path d="M129.371 87.4566L136.842 79.9969L129.371 72.6367" stroke="#AB3FE0" stroke-width="3" stroke-miterlimit="10" stroke-linecap="round" stroke-linejoin="round"/>
<path d="M66.1167 79.9971H135.946" stroke="#AB3FE0" stroke-width="3" stroke-miterlimit="10" stroke-linecap="round" stroke-linejoin="round"/>
<path d="M52.1712 93.922C55.6577 90.4409 57.8492 85.5672 57.8492 80.2957C57.8492 73.7312 54.5619 67.8629 49.4817 64.3817C46.3936 62.1935 42.5087 61 38.4246 61C34.3404 61 30.4555 62.1935 27.3675 64.2823C22.2872 67.7634 19 73.6317 19 80.1962C19 87.1586 22.5861 93.2258 28.0648 96.6075C29.9575 97.8011 32.0493 98.5968 34.2408 99.0941" fill="#004E6C"/>
<path d="M52.1712 93.922C55.6577 90.4409 57.8492 85.5672 57.8492 80.2957C57.8492 73.7312 54.5619 67.8629 49.4817 64.3817C46.3936 62.1935 42.5087 61 38.4246 61C34.3404 61 30.4555 62.1935 27.3675 64.2823C22.2872 67.7634 19 73.6317 19 80.1962C19 87.1586 22.5861 93.2258 28.0648 96.6075C29.9575 97.8011 32.0493 98.5968 34.2408 99.0941" stroke="#004E6C" stroke-width="3" stroke-miterlimit="10" stroke-linecap="round" stroke-linejoin="round"/>
<path d="M49.3818 64.2822H133.057C142.022 64.2822 149.294 71.543 149.294 80.4946C149.294 84.9704 147.501 88.9489 144.513 91.9328C141.624 94.9166 137.54 96.707 133.057 96.707H61.0366" stroke="#004E6C" stroke-width="3" stroke-miterlimit="10" stroke-linecap="round" stroke-linejoin="round"/>
<path d="M38.9224 145.245V137.388C38.9224 137.388 35.0375 133.707 31.6506 130.823C28.5626 128.138 25.375 124.955 25.375 117.694C25.375 110.433 25.375 116.5 25.375 111.527C25.375 105.261 31.3518 102.277 34.2406 102.277" stroke="#004E6C" stroke-width="3" stroke-miterlimit="10" stroke-linecap="round" stroke-linejoin="round"/>
<path d="M43.604 96.3095C43.604 90.9385 52.6688 90.6401 52.6688 95.8122C52.6688 100.984 52.6688 106.654 52.6688 106.654" fill="white"/>
<path d="M43.604 96.3095C43.604 90.9385 52.6688 90.6401 52.6688 95.8122C52.6688 100.984 52.6688 106.654 52.6688 106.654" stroke="#004E6C" stroke-width="3" stroke-miterlimit="10" stroke-linecap="round" stroke-linejoin="round"/>
<path d="M52.6694 95.8125C54.4625 93.127 61.6346 92.3313 61.6346 99.5921C61.6346 106.853 61.6346 107.052 61.6346 107.052" stroke="#004E6C" stroke-width="3" stroke-miterlimit="10" stroke-linecap="round" stroke-linejoin="round"/>
<path d="M61.5352 101.482C63.3282 98.9951 70.8988 99.8902 70.8988 105.759C70.8988 113.914 70.8988 117.296 70.8988 124.855C70.8988 132.414 65.9181 138.581 65.9181 138.581V145.345" stroke="#004E6C" stroke-width="3" stroke-miterlimit="10" stroke-linecap="round" stroke-linejoin="round"/>
<path d="M43.6044 108.742V80.2958C43.6044 77.7098 41.5125 75.6211 38.9225 75.6211C36.3326 75.6211 34.2407 77.7098 34.2407 80.2958V108.742" fill="white"/>
<path d="M43.6044 108.742V80.2958C43.6044 77.7098 41.5125 75.6211 38.9225 75.6211C36.3326 75.6211 34.2407 77.7098 34.2407 80.2958V108.742" stroke="#004E6C" stroke-width="3" stroke-miterlimit="10" stroke-linecap="round" stroke-linejoin="round"/>
<path d="M265.48 87.4566L258.009 79.9969L265.48 72.6367" stroke="#AB3FE0" stroke-width="3" stroke-miterlimit="10" stroke-linecap="round" stroke-linejoin="round"/>
<path d="M328.734 79.9971H258.905" stroke="#AB3FE0" stroke-width="3" stroke-miterlimit="10" stroke-linecap="round" stroke-linejoin="round"/>
<path d="M370.273 93.922C373.759 90.4409 375.951 85.5672 375.951 80.2957C375.951 73.7312 372.663 67.8629 367.583 64.3817C364.495 62.1935 360.61 61 356.526 61C352.442 61 348.657 62.293 345.469 64.3817C340.389 67.8629 337.102 73.7312 337.102 80.2957C337.102 87.2581 340.688 93.3253 346.166 96.707C348.059 97.9005 350.051 98.6962 352.342 99.1935" fill="#004E6C"/>
<path d="M370.273 93.922C373.759 90.4409 375.951 85.5672 375.951 80.2957C375.951 73.7312 372.663 67.8629 367.583 64.3817C364.495 62.1935 360.61 61 356.526 61C352.442 61 348.657 62.293 345.469 64.3817C340.389 67.8629 337.102 73.7312 337.102 80.2957C337.102 87.2581 340.688 93.3253 346.166 96.707C348.059 97.9005 350.051 98.6962 352.342 99.1935" stroke="#004E6C" stroke-width="3" stroke-miterlimit="10" stroke-linecap="round" stroke-linejoin="round"/>
<path d="M345.469 64.2822H261.794C257.311 64.2822 253.227 66.0726 250.338 69.0564C247.45 72.0403 245.557 76.0188 245.557 80.4946C245.557 89.4462 252.829 96.707 261.794 96.707H346.166" stroke="#004E6C" stroke-width="3" stroke-miterlimit="10" stroke-linecap="round" stroke-linejoin="round"/>
<path d="M356.925 145.245V137.388C356.925 137.388 353.04 133.707 349.653 130.823C346.565 128.138 343.377 124.955 343.377 117.694C343.377 110.433 343.377 116.5 343.377 111.527C343.377 105.261 349.354 102.277 352.243 102.277" stroke="#004E6C" stroke-width="3" stroke-miterlimit="10" stroke-linecap="round" stroke-linejoin="round"/>
<path d="M361.706 96.3095C361.706 90.9385 370.771 90.6401 370.771 95.8122C370.771 100.984 370.771 106.654 370.771 106.654" fill="white"/>
<path d="M361.706 96.3095C361.706 90.9385 370.771 90.6401 370.771 95.8122C370.771 100.984 370.771 106.654 370.771 106.654" stroke="#004E6C" stroke-width="3" stroke-miterlimit="10" stroke-linecap="round" stroke-linejoin="round"/>
<path d="M370.771 95.8125C372.564 93.127 379.736 92.3313 379.736 99.5921C379.736 106.853 379.736 107.052 379.736 107.052" stroke="#004E6C" stroke-width="3" stroke-miterlimit="10" stroke-linecap="round" stroke-linejoin="round"/>
<path d="M379.636 101.482C381.429 98.9951 389 99.8902 389 105.759C389 113.914 389 117.296 389 124.855C389 132.414 384.019 138.581 384.019 138.581V145.345" stroke="#004E6C" stroke-width="3" stroke-miterlimit="10" stroke-linecap="round" stroke-linejoin="round"/>
<path d="M361.706 108.742V80.2958C361.706 77.7098 359.614 75.6211 357.024 75.6211C354.434 75.6211 352.342 77.7098 352.342 80.2958V108.742" fill="white"/>
<path d="M361.706 108.742V80.2958C361.706 77.7098 359.614 75.6211 357.024 75.6211C354.434 75.6211 352.342 77.7098 352.342 80.2958V108.742" stroke="#004E6C" stroke-width="3" stroke-miterlimit="10" stroke-linecap="round" stroke-linejoin="round"/>
<path fill-rule="evenodd" clip-rule="evenodd" d="M76.8867 224.848V213.424H78.3239V223.568H83.3062V224.848H76.8867ZM88.558 224.848H87.1208V214.688H83.5598V213.424H92.1031V214.688H88.558V224.848ZM97.1271 213.424C98.543 213.424 99.5863 213.696 100.257 214.24C100.938 214.773 101.279 215.584 101.279 216.672C101.279 217.28 101.167 217.786 100.944 218.192C100.72 218.597 100.433 218.922 100.081 219.168C99.7407 219.413 99.3787 219.6 98.9955 219.728L102.125 224.848H100.449L97.686 220.128H95.4185V224.848H93.9813V213.424H97.1271ZM97.0473 214.672H95.4185V218.912H97.1271C98.0533 218.912 98.7293 218.73 99.1552 218.368C99.581 217.994 99.7939 217.45 99.7939 216.736C99.7939 215.989 99.5704 215.461 99.1232 215.152C98.6761 214.832 97.9841 214.672 97.0473 214.672ZM308.648 213.424C310.064 213.424 311.107 213.696 311.778 214.24C312.459 214.773 312.8 215.584 312.8 216.672C312.8 217.28 312.688 217.786 312.465 218.192C312.241 218.597 311.954 218.922 311.602 219.168C311.262 219.413 310.9 219.6 310.516 219.728L313.646 224.848H311.97L309.207 220.128H306.939V224.848H305.502V213.424H308.648ZM308.568 214.672H306.939V218.912H308.648C309.574 218.912 310.25 218.73 310.676 218.368C311.102 217.994 311.315 217.45 311.315 216.736C311.315 215.989 311.091 215.461 310.644 215.152C310.197 214.832 309.505 214.672 308.568 214.672ZM319.045 224.848H317.608V214.688H314.047V213.424H322.59V214.688H319.045V224.848ZM324.309 213.424V224.848H330.729V223.568H325.746V213.424H324.309Z" fill="#004E6C"/>
<path d="M203.639 0V256" stroke="#C9C9C9"/>
</svg>
