<svg width="408" height="176" viewBox="0 0 408 176" fill="none" xmlns="http://www.w3.org/2000/svg">
<rect width="408" height="176" fill="white"/>
<path d="M382.99 144H25.0095C22.2042 144 20 141.8 20 139V75.7002C20 72.9002 22.2042 70.7002 25.0095 70.7002H382.99C385.796 70.7002 388 72.9002 388 75.7002V138.9C388 141.7 385.796 144 382.99 144Z" fill="white" stroke="#004E6C" stroke-width="2" stroke-miterlimit="10"/>
<path d="M178.016 122.879L177.83 123.436C176.871 122.777 175.909 121.827 175.007 120.517L175.002 120.511L174.998 120.505C172.873 117.613 171.889 113.925 171.889 109.701C171.889 107.655 172.18 105.802 172.671 103.94C173.258 102.087 174.038 100.436 175.107 98.8844C176 97.5878 176.882 96.7136 177.809 96.0771L178.028 96.8214C176.754 97.8969 175.697 99.4995 174.837 101.503C173.903 103.677 173.496 106.043 173.394 108.681L173.393 108.691V108.701V109.901C173.393 113.456 174.004 116.637 175.35 119.325L175.35 119.325L175.356 119.336C176.1 120.729 176.957 122.007 178.016 122.879Z" fill="#088A08" stroke="#088A08"/>
<path d="M181.123 103.3C181.224 101.849 181.772 100.661 182.747 99.7691C183.846 98.7633 185.324 98.2002 187.118 98.2002C188.925 98.2002 190.199 98.6708 191.191 99.5705C192.171 100.46 192.63 101.617 192.63 103.1C192.63 104.906 191.537 107.086 189.056 109.76L189.054 109.763L183.744 115.563L182.977 116.4H184.113H193.632V117.3H181.306V116.192L188.092 108.634L188.098 108.628L188.103 108.621C189.102 107.424 189.832 106.492 190.257 105.749C190.701 104.974 190.925 104.088 190.925 103.3C190.925 102.198 190.592 101.178 189.902 100.374C189.177 99.5297 188.114 99.2002 187.018 99.2002C185.596 99.2002 184.563 99.6443 183.759 100.446C183.031 101.173 182.697 102.148 182.626 103.3H181.123Z" fill="#088A08" stroke="#088A08"/>
<path d="M208.66 108.8H208.56V109.3C208.56 112.265 208.061 114.337 207.151 115.609C206.256 116.86 204.815 117.6 202.848 117.6C200.86 117.6 199.43 116.945 198.546 115.709C197.631 114.431 197.136 112.454 197.036 109.691V106.3C197.036 103.438 197.534 101.365 198.446 100.091C199.328 98.8584 200.755 98.2002 202.848 98.2002C204.836 98.2002 206.266 98.8553 207.151 100.091C208.065 101.368 208.56 103.344 208.66 106.209V108.8ZM199.404 114.74L199.409 114.749L199.414 114.758C200.117 115.928 201.294 116.5 202.648 116.5C203.995 116.5 205.164 115.934 205.869 114.878L205.876 114.868L205.882 114.858C206.55 113.746 206.854 112.139 206.954 110.024L206.955 110.012V110V105.9C206.955 103.775 206.655 102.062 205.982 100.943C205.274 99.7658 204.093 99.2002 202.648 99.2002C201.932 99.2002 201.296 99.3379 200.745 99.6351C200.192 99.9335 199.754 100.377 199.414 100.943C198.743 102.058 198.441 103.666 198.441 105.7V109.7C198.441 111.937 198.745 113.534 199.404 114.74Z" fill="#088A08" stroke="#088A08"/>
<path d="M212.866 109.1C212.866 105.468 213.653 102.796 215.058 101.017C216.546 99.2558 218.697 98.2996 221.685 98.2004V99.5002H221.684C219.569 99.5002 217.936 100.139 216.629 101.439C215.305 102.655 214.679 104.393 214.473 106.553L214.32 108.16L215.355 106.921C216.241 105.859 217.589 105.3 219.279 105.3C220.855 105.3 222.109 105.849 223.003 106.921C223.925 108.025 224.49 109.509 224.49 111.3C224.49 113.298 223.922 114.77 222.919 115.862C221.927 116.941 220.568 117.5 218.778 117.5C217.009 117.5 215.567 116.857 214.573 115.504L214.566 115.496L214.56 115.487C213.44 114.091 212.866 112.407 212.866 110.1V109.1ZM214.503 109.524L214.471 109.609V109.7V110.6C214.471 112.278 214.891 113.785 215.664 114.887C216.457 116.018 217.61 116.6 218.879 116.6C220.12 116.6 221.168 116.141 221.969 115.119C222.774 114.194 223.086 112.959 223.086 111.5C223.086 110.041 222.774 108.806 221.969 107.882C221.168 106.86 220.12 106.4 218.879 106.4C217.859 106.4 216.958 106.741 216.184 107.293C215.392 107.857 214.834 108.643 214.503 109.524Z" fill="#088A08" stroke="#088A08"/>
<path d="M232.723 104.128L232.731 104.161L232.744 104.192C233.408 105.801 233.608 107.722 233.608 109.901C233.608 111.853 233.314 113.807 232.825 115.567C232.337 117.319 231.558 119.067 230.49 120.617C229.57 121.953 228.67 122.901 227.673 123.554L227.478 122.97C228.838 121.811 229.9 120.192 230.766 117.983C231.695 115.614 232.103 113.051 232.103 110.301V109.701C232.103 107.767 231.899 105.926 231.487 104.279C231.076 102.638 230.459 101.099 229.739 99.7636C229.083 98.5491 228.332 97.5662 227.478 96.8322L227.666 96.2686C228.594 96.9217 229.485 97.8546 230.394 99.0909C231.463 100.644 232.238 102.29 232.723 104.128Z" fill="#088A08" stroke="#088A08"/>
<path d="M245.045 103.3C245.146 101.849 245.694 100.661 246.669 99.7691C247.768 98.7633 249.246 98.2002 251.04 98.2002C252.847 98.2002 254.121 98.6708 255.113 99.5705C256.093 100.46 256.552 101.617 256.552 103.1C256.552 104.906 255.459 107.086 252.978 109.76L252.976 109.763L247.666 115.563L246.899 116.4H248.035H257.554V117.3H245.228V116.192L252.013 108.634L252.019 108.628L252.025 108.621C253.024 107.424 253.754 106.492 254.179 105.749C254.623 104.974 254.847 104.088 254.847 103.3C254.847 102.198 254.514 101.178 253.824 100.374C253.099 99.5297 252.036 99.2002 250.94 99.2002C249.518 99.2002 248.485 99.6443 247.681 100.446C246.953 101.173 246.619 102.148 246.548 103.3H245.045Z" fill="#088A08" stroke="#088A08"/>
<path d="M272.181 112.102C272.181 113.768 271.633 115.028 270.549 116.025C269.438 116.945 268.052 117.502 266.269 117.502C264.459 117.502 263.076 117.029 261.98 116.117C261.017 115.317 260.482 114.313 260.376 113.002H261.885C261.975 113.914 262.321 114.768 263.038 115.381C263.847 116.073 264.871 116.402 266.068 116.402C267.327 116.402 268.5 116.092 269.24 115.242C269.943 114.532 270.376 113.404 270.376 112.202C270.376 110.86 269.915 109.935 269.127 109.148C268.282 108.305 267.104 108.103 265.703 108.003L265.685 108.002H265.668H264.264V107.102H266.068C267.359 107.102 268.386 106.777 269.199 106.081C270.04 105.362 270.376 104.404 270.376 103.202C270.376 101.969 270.052 100.947 269.34 100.235C268.627 99.5238 267.603 99.2016 266.369 99.2016C265.19 99.2016 264.148 99.5206 263.424 100.234C262.718 100.846 262.375 101.696 262.286 102.602H260.779C260.89 101.377 261.412 100.377 262.289 99.579C263.407 98.651 264.697 98.1016 266.369 98.1016C268.176 98.1016 269.45 98.5722 270.441 99.4718C271.413 100.353 271.88 101.603 271.88 103.202C271.88 103.98 271.623 104.689 271.155 105.436C270.724 106.125 270.018 106.666 269.089 107.037L267.701 107.591L269.143 107.984C270.13 108.253 270.84 108.784 271.379 109.502C271.906 110.203 272.181 111.093 272.181 112.102Z" fill="#088A08" stroke="#088A08"/>
<path d="M286.408 98.4004V111.1V111.6H286.908H289.214V112.7H286.908H286.408V113.2V117.3H284.903V113.2V112.7H284.403H275.786V111.848L284.475 98.4004H286.408ZM277.77 110.832L277.281 111.6H278.192H284.403H284.903V111.1V101.3V99.4981L283.975 101.043L283.678 101.537L277.77 110.832Z" fill="#088A08" stroke="#088A08"/>
<path d="M297.029 109.901H291.316V108.801H297.029V109.901Z" fill="#088A08" stroke="#088A08"/>
<path d="M308.747 107.143L307.662 107.624L308.765 108.065C309.68 108.43 310.498 109.068 311.039 109.878C311.59 110.703 311.856 111.507 311.856 112.5C311.856 114.074 311.304 115.334 310.317 116.23C309.335 117.121 307.868 117.6 306.044 117.6C304.235 117.6 302.852 117.128 301.755 116.216C300.698 115.336 300.232 114.096 300.232 112.5C300.232 111.507 300.499 110.703 301.05 109.878C301.588 109.072 302.311 108.522 303.262 108.048L304.212 107.574L303.241 107.143C302.427 106.782 301.804 106.246 301.358 105.535C300.898 104.799 300.633 103.99 300.633 103.2C300.633 101.611 301.095 100.457 302.072 99.5705C303.066 98.6685 304.342 98.2002 306.044 98.2002C307.753 98.2002 309.015 98.6715 309.899 99.5541C310.815 100.468 311.355 101.543 311.355 103.1C311.355 103.995 311.088 104.804 310.63 105.535C310.185 106.246 309.562 106.782 308.747 107.143ZM303.16 105.926L303.173 105.941L303.186 105.954C303.898 106.664 304.835 107 305.944 107C307.053 107 307.99 106.664 308.702 105.954C309.418 105.239 309.751 104.3 309.751 103.1C309.751 101.877 309.405 101.063 308.728 100.274C307.989 99.4143 307.011 99.2002 305.944 99.2002C304.835 99.2002 303.898 99.5361 303.186 100.246C302.466 100.966 302.138 102.008 302.138 103.1C302.138 104.216 302.479 105.132 303.16 105.926ZM310.251 112.4C310.251 111.166 309.797 110.139 309.003 109.346C308.204 108.549 307.173 108.1 305.844 108.1C304.678 108.1 303.509 108.414 302.772 109.26C301.965 110.074 301.637 111.109 301.637 112.3C301.637 113.498 301.968 114.538 302.786 115.354C303.607 116.174 304.652 116.5 305.944 116.5C307.23 116.5 308.27 116.177 309.089 115.367C309.929 114.64 310.251 113.58 310.251 112.4Z" fill="#088A08" stroke="#088A08"/>
<path d="M319.847 117.3H318.248L326.136 100.21L326.464 99.5004H325.682H315.362V98.4004H327.888V99.1944L319.847 117.3Z" fill="#088A08" stroke="#088A08"/>
<path d="M331.893 109.1C331.893 105.468 332.68 102.796 334.085 101.017C335.573 99.2558 337.724 98.2996 340.712 98.2004V99.5002H340.711C338.596 99.5002 336.963 100.139 335.656 101.439C334.332 102.655 333.706 104.393 333.5 106.553L333.347 108.16L334.382 106.921C335.268 105.859 336.616 105.3 338.306 105.3C339.882 105.3 341.136 105.849 342.03 106.921C342.952 108.025 343.517 109.509 343.517 111.3C343.517 113.298 342.949 114.77 341.946 115.862C340.954 116.941 339.595 117.5 337.805 117.5C336.036 117.5 334.594 116.857 333.599 115.504L333.593 115.496L333.587 115.487C332.467 114.091 331.893 112.407 331.893 110.1V109.1ZM333.43 109.524L333.398 109.609V109.7V110.6C333.398 112.278 333.817 113.785 334.591 114.887C335.384 116.018 336.537 116.6 337.805 116.6C339.046 116.6 340.095 116.141 340.896 115.119C341.701 114.194 342.012 112.959 342.012 111.5C342.012 110.041 341.701 108.806 340.896 107.882C340.095 106.86 339.046 106.4 337.805 106.4C336.785 106.4 335.884 106.741 335.11 107.293C334.319 107.857 333.761 108.643 333.43 109.524Z" fill="#088A08" stroke="#088A08"/>
<path d="M349.579 98.4004H358.846V99.7004H351.231H350.783L350.734 100.145L350.133 105.545L350.021 106.548L350.886 106.029C351.808 105.477 352.821 105.2 353.936 105.2C355.626 105.2 356.974 105.759 357.86 106.821C358.778 107.92 359.347 109.402 359.347 111.4C359.347 113.404 358.776 114.863 357.791 115.846C356.787 116.848 355.313 117.5 353.535 117.5C351.832 117.5 350.557 117.032 349.563 116.13C348.687 115.335 348.149 114.326 347.904 113H349.322C349.555 113.987 349.963 114.842 350.577 115.454C351.301 116.177 352.349 116.5 353.535 116.5C354.868 116.5 355.912 116.048 356.716 115.13C357.528 114.204 357.842 112.965 357.842 111.5C357.842 110.096 357.408 108.874 356.616 107.971C355.803 107.043 354.653 106.6 353.335 106.6C352.2 106.6 351.16 106.801 350.425 107.403L349.929 107.757L348.665 107.425L349.579 98.4004Z" fill="#088A08" stroke="#088A08"/>
<path d="M293.974 48.4457L293.819 48.2903C293.328 47.4511 293.226 46.6914 293.22 45.794C293.619 46.9535 294.538 47.9655 296.177 48.4769L296.285 48.5105L296.397 48.4946C297.211 48.3785 298.019 47.9533 298.621 47.4619C298.814 47.3045 298.992 47.1351 299.146 46.9595C298.95 47.471 298.7 47.9596 298.405 48.4372L298.059 48.9993L298.694 49.1804C299.46 49.399 300.516 49.4996 301.737 49.4996H301.838V50.8996H301.837C300.093 50.8996 298.743 50.7101 296.384 49.9251L296.209 49.8669L296.038 49.9364C293.405 51.0069 289.164 51.6996 286.107 51.6996C283.542 51.6996 281.451 51.3035 279.866 50.2795C278.29 49.262 277.289 47.7128 277.289 45.5996C277.289 44.4894 277.461 43.3814 277.898 42.225C277.739 42.9278 277.692 43.5668 277.692 44.1996C277.692 46.202 278.81 47.8528 280.44 48.8285C282.064 49.801 284.282 50.0996 286.708 50.0996C288.952 50.0996 291.494 49.7947 293.732 49.2872L294.616 49.0865L293.974 48.4457ZM294.409 43.0195C293.911 43.5495 293.508 44.1968 293.277 44.8166C293.421 43.7285 293.852 42.5755 294.776 41.6535C295.255 41.1748 295.78 40.7477 296.248 40.4441C296.482 40.2921 296.694 40.1764 296.873 40.1003C297.06 40.0206 297.175 39.9996 297.228 39.9996C297.333 39.9996 297.589 40.0895 297.951 40.4275C298.292 40.7461 298.662 41.225 298.992 41.837L298.992 41.837L298.995 41.8428C299.452 42.6634 299.633 43.4787 299.633 44.2996C299.633 44.4869 299.627 44.6704 299.614 44.8504C299.496 44.4099 299.313 44.0449 299.188 43.7956L299.178 43.7756C298.916 43.2526 298.61 42.7702 298.238 42.4136C297.858 42.0499 297.39 41.7996 296.827 41.7996C295.879 41.7996 295.03 42.3592 294.409 43.0195ZM294.999 34.9145C295.303 34.4945 295.595 34.1026 295.882 33.7724C296.431 34.1999 296.943 34.6429 297.496 35.1774C297.235 35.5732 296.932 35.926 296.561 36.2399C296.147 35.8556 295.706 35.4947 295.293 35.1557C295.193 35.074 295.095 34.9936 294.999 34.9145Z" fill="#004E6C" stroke="#004E6C"/>
<path d="M302.439 49.5114V49.6004H302.939C304.525 49.6004 305.905 49.5057 306.802 49.1757C307.178 49.067 307.507 48.923 307.755 48.7413C307.995 48.5658 308.248 48.2855 308.248 47.9004C308.248 47.6023 308.175 47.2658 308.07 46.9209C307.962 46.57 307.81 46.1796 307.631 45.7647C307.304 45.006 306.871 44.1336 306.417 43.2269C306.465 43.1496 306.512 43.0738 306.558 42.9995C306.801 42.6058 307.018 42.2534 307.243 41.931C307.574 42.5494 307.902 43.268 308.167 44.0067C308.521 44.9934 308.751 45.9818 308.751 46.8004C308.751 48.0294 308.235 49.0154 307.565 49.9756C307.255 50.2728 306.808 50.5046 306.078 50.6615C305.316 50.8252 304.281 50.9004 302.839 50.9004H302.638C302.29 50.9004 302.113 50.7707 302.009 50.6345C301.888 50.4767 301.836 50.2651 301.836 50.1004C301.836 49.9441 301.883 49.8036 301.975 49.7059C302.044 49.6328 302.177 49.5424 302.439 49.5114ZM303.689 36.3716C304.201 36.7872 304.641 37.2202 305.119 37.7492C304.835 38.1782 304.581 38.5074 304.31 38.809C303.769 38.3379 303.279 37.9083 302.797 37.4463C303.096 37.0492 303.393 36.6911 303.689 36.3716ZM306.417 37.1287C306.712 36.7386 307.005 36.3864 307.295 36.0716C307.808 36.4872 308.247 36.9202 308.725 37.4492C308.443 37.8768 308.19 38.2052 307.919 38.506C307.666 38.278 307.427 38.0571 307.186 37.8337L307.184 37.8318C306.937 37.6025 306.687 37.3706 306.417 37.1287Z" fill="#004E6C" stroke="#004E6C"/>
<path d="M317.167 49.4974V50.9955C315.942 50.9576 315.248 50.6756 314.621 50.0537C313.676 49.0199 313.558 47.9217 313.558 45.1C313.558 41.5448 313.364 37.8968 313.071 33.9705C313.389 33.6091 313.704 33.278 314.019 32.9766C314.261 36.875 314.261 41.407 314.261 45.7V46.8C314.261 47.503 314.469 48.067 314.811 48.4895C315.142 48.899 315.577 49.1478 316.002 49.2736C316.453 49.4488 316.894 49.4884 317.167 49.4974Z" fill="#004E6C" stroke="#004E6C"/>
<path d="M319.771 49.6002H320.1H320.168H320.773C321.904 49.6002 322.943 49.4975 323.887 49.2883C324.388 49.1771 324.783 48.9981 325.059 48.741C325.347 48.4719 325.481 48.1397 325.481 47.8002C325.481 47.0658 325.15 46.2713 324.716 45.4939C324.275 44.7044 323.683 43.8579 323.085 43.0115L322.935 42.8002H322.676H322.576H322.21L322.099 43.1494C321.532 44.942 320.964 46.7381 320.396 48.619C320.652 47.5171 320.917 46.4126 321.253 45.2378L321.253 45.2378L321.254 45.2342C321.686 43.685 322.267 42.2947 322.995 41.0602C323.108 41.2327 323.231 41.4042 323.374 41.594C324.074 42.5924 324.68 43.4899 325.112 44.3292C325.546 45.1705 325.783 45.9132 325.783 46.6002C325.783 47.3648 325.687 48.1998 325.414 48.9243L325.16 49.6002H325.882H329.09V51.0002H329.089C328.939 51.0002 328.682 51 328.404 50.9769C328.116 50.953 327.851 50.9076 327.671 50.8358L327.582 50.8002H327.486H327.385H326.482L326.962 51.5655C327.422 52.3015 327.687 53.2108 327.687 53.8002C327.687 54.5382 327.498 55.3307 327.17 55.8224L327.159 55.8393L327.149 55.857C326.942 56.2285 326.575 56.6228 326.129 56.923C325.682 57.2244 325.202 57.4002 324.78 57.4002C324.037 57.4002 323.057 57.2107 322.375 56.6999L322.358 56.6872L322.34 56.6759C320.891 55.7723 319.97 54.0374 319.97 52.3002V51.4002V50.7601L319.349 50.915C319.022 50.9967 318.493 51.0002 317.967 51.0002H317.567C317.219 51.0002 317.041 50.8706 316.937 50.7343C316.817 50.5765 316.764 50.3649 316.764 50.2002C316.764 50.0439 316.811 49.9034 316.903 49.8057C316.988 49.716 317.169 49.6002 317.567 49.6002H319.771ZM326.198 52.4224L326.19 52.4109L326.182 52.3998C325.51 51.5051 324.472 50.7002 322.777 50.7002C322.04 50.7002 321.309 50.8044 320.619 50.9028L320.602 50.9052L320.173 50.9664V51.4002C320.173 52.4601 320.747 53.5702 321.393 54.3233C322.47 55.6112 324.003 56.4002 325.381 56.4002C325.826 56.4002 326.226 56.2726 326.523 56.0158C326.824 55.7555 326.984 55.391 326.984 55.0002C326.984 54.4382 326.872 53.4307 326.198 52.4224Z" fill="#004E6C" stroke="#004E6C"/>
<path d="M332.318 49.0479L332.33 49.0417L332.342 49.0349C333.247 48.5185 333.596 47.6171 333.596 46.6006C333.596 43.5801 333.395 40.264 333.093 36.7578L333.094 36.7578L333.092 36.7453C333.081 36.6437 333.07 36.5439 333.059 36.446C332.97 35.6612 332.895 34.9916 332.895 34.4006C332.895 34.1794 333.001 33.8977 333.37 33.4338C333.469 33.3335 333.575 33.2169 333.674 33.1073C333.674 33.1065 333.675 33.1058 333.676 33.105C333.843 34.1213 334.28 35.2478 334.961 36.4087C334.802 36.5438 334.619 36.6886 334.404 36.8585C334.305 36.9365 334.199 37.0198 334.087 37.1098L333.888 37.2688L333.899 37.5233C334 39.7256 334.099 41.914 334.099 44.0006C334.099 45.9917 333.895 47.4799 333.359 48.4608L333.345 48.4869L333.333 48.5145C332.932 49.517 332.592 50.1329 331.892 50.4435L331.869 50.4537L331.847 50.4662C331.233 50.816 330.42 51.0005 329.69 51.0005H329.59C329.242 51.0005 329.064 50.8709 328.96 50.7347C328.84 50.5769 328.787 50.3653 328.787 50.2005C328.787 50.0443 328.834 49.9038 328.926 49.8061C329.011 49.7164 329.192 49.6005 329.59 49.6005H329.99C330.654 49.6005 331.435 49.4886 332.318 49.0479Z" fill="#004E6C" stroke="#004E6C"/>
<path d="M338.922 34.6435C339.225 34.2449 339.618 33.8175 339.985 33.4381C340.323 37.3331 340.411 41.7851 340.411 45.9C340.411 47.0134 340.41 48.1762 340.315 48.9378L340.315 48.9378L340.313 48.9501C340.255 49.5334 340.038 50.0511 339.539 50.7168C339.608 49.8264 339.608 48.9124 339.608 48.0226V48V46.2C339.608 42.8415 339.22 37.8538 338.922 34.6435Z" fill="#004E6C" stroke="#004E6C"/>
<path d="M367.963 50.9996C367.336 50.987 366.88 50.8544 366.491 50.6216C366.071 50.3704 365.692 49.9801 365.256 49.4002L365.106 49.2006H364.856H364.756H364.323L364.261 49.6297C364.173 50.2445 363.907 50.8591 363.541 51.3106C363.171 51.7665 362.75 52.0006 362.352 52.0006C360.115 52.0006 358.137 49.7252 358.042 46.6849L358.011 45.6866L357.23 46.3098C356.459 46.9259 355.873 47.506 355.476 48.0394C355.086 48.5627 354.838 49.0936 354.838 49.6006C354.838 50.4863 355.164 51.8566 355.761 53.8445L355.761 53.8445L355.763 53.85C355.855 54.1445 355.947 54.4378 356.038 54.7284C356.444 56.0201 356.832 57.257 357.138 58.3031C357.324 58.9436 357.478 59.5056 357.585 59.96C357.695 60.4286 357.744 60.7399 357.744 60.9005C357.744 61.1865 357.722 61.4971 357.685 61.8133C357.267 60.3759 356.709 58.8486 356.184 57.4104C356.125 57.2489 356.066 57.0884 356.008 56.9294L356.008 56.9294L356.007 56.9247C355.559 55.7324 355.163 54.5724 354.881 53.5543C354.595 52.5257 354.436 51.6798 354.436 51.1006C354.436 50.348 354.529 49.6892 354.721 48.9221L354.721 48.9221L354.723 48.9132C354.998 47.7242 355.739 46.6152 356.467 45.9788C357.789 44.8477 359.033 43.7078 360.025 42.6443C360.947 43.3921 361.865 44.229 362.783 45.2363C363.215 45.7159 363.578 46.1984 363.938 46.6944C364.009 46.7916 364.08 46.8897 364.151 46.9885C364.438 47.3862 364.733 47.7957 365.059 48.2033C365.381 48.6462 365.89 48.9897 366.423 49.2216C366.904 49.431 367.444 49.5668 367.963 49.5951V50.9996ZM363.359 47.6096L363.353 47.6013L363.347 47.5932C362.623 46.664 361.695 45.6367 360.062 44.3122L359.635 43.9667L359.331 44.4229C359.317 44.4436 359.272 44.4933 359.161 44.5995C359.143 44.6168 359.123 44.6352 359.102 44.6547C359.015 44.7372 358.908 44.8381 358.808 44.9439C358.577 45.1869 358.245 45.5886 358.245 46.1006C358.245 47.5744 358.932 48.6943 359.794 49.5545C360.387 50.1459 361.314 50.6006 362.452 50.6006C362.867 50.6006 363.261 50.5128 363.569 50.3317C363.877 50.151 364.154 49.8361 364.154 49.4006C364.154 49.1505 364.074 48.8763 363.947 48.5951C363.817 48.3069 363.623 47.978 363.359 47.6096Z" fill="#004E6C" stroke="#004E6C"/>
<path d="M374.206 49.182L374.219 49.1784L374.232 49.174C374.872 48.9612 375.47 48.6653 375.919 48.3433C376.142 48.1829 376.344 48.0052 376.495 47.8149C376.64 47.6325 376.778 47.3864 376.778 47.0996V47.099V47.0984V47.0978V47.0972V47.0966V47.096V47.0954V47.0948V47.0942V47.0936V47.093V47.0924V47.0918V47.0911V47.0905V47.0899V47.0893V47.0887V47.088V47.0874V47.0868V47.0861V47.0855V47.0849V47.0842V47.0836V47.0829V47.0823V47.0817V47.081V47.0804V47.0797V47.079V47.0784V47.0777V47.0771V47.0764V47.0757V47.0751V47.0744V47.0737V47.0731V47.0724V47.0717V47.071V47.0703V47.0697V47.069V47.0683V47.0676V47.0669V47.0662V47.0655V47.0648V47.0641V47.0634V47.0627V47.062V47.0613V47.0606V47.0599V47.0592V47.0585V47.0578V47.0571V47.0563V47.0556V47.0549V47.0542V47.0535V47.0527V47.052V47.0513V47.0506V47.0498V47.0491V47.0484V47.0476V47.0469V47.0461V47.0454V47.0447V47.0439V47.0432V47.0424V47.0417V47.0409V47.0402V47.0394V47.0387V47.0379V47.0371V47.0364V47.0356V47.0349V47.0341V47.0333V47.0326V47.0318V47.031V47.0303V47.0295V47.0287V47.0279V47.0272V47.0264V47.0256V47.0248V47.024V47.0233V47.0225V47.0217V47.0209V47.0201V47.0193V47.0185V47.0177V47.0169V47.0162V47.0154V47.0146V47.0138V47.013V47.0122V47.0114V47.0106V47.0098V47.0089V47.0081V47.0073V47.0065V47.0057V47.0049V47.0041V47.0033V47.0025V47.0017V47.0008V47V46.9992V46.9984V46.9976V46.9967V46.9959V46.9951V46.9943V46.9934V46.9926V46.9918V46.991V46.9901V46.9893V46.9885V46.9876V46.9868V46.986V46.9851V46.9843V46.9835V46.9826V46.9818V46.981V46.9801V46.9793V46.9784V46.9776V46.9767V46.9759V46.9751V46.9742V46.9734V46.9725V46.9717V46.9708V46.97V46.9691V46.9683V46.9674V46.9666V46.9657V46.9649V46.964V46.9632V46.9623V46.9614V46.9606V46.9597V46.9589V46.958V46.9572V46.9563V46.9554V46.9546V46.9537V46.9528V46.952V46.9511V46.9503V46.9494V46.9485V46.9477V46.9468V46.9459V46.9451V46.9442V46.9433V46.9425V46.9416V46.9407V46.9399V46.939V46.9381V46.9372V46.9364V46.9355V46.9346V46.9338V46.9329V46.932V46.9311V46.9303V46.9294V46.9285V46.9276V46.9268V46.9259V46.925V46.9241V46.9233V46.9224V46.9215V46.9206V46.9198V46.9189V46.918V46.9171V46.9163V46.9154V46.9145V46.9136V46.9128V46.9119V46.911V46.9101V46.9092V46.9084V46.9075V46.9066V46.9057V46.9048V46.904V46.9031V46.9022V46.9013V46.9005V46.8996V46.8987V46.8978V46.8969V46.8961V46.8952V46.8943V46.8934V46.8925V46.8917V46.8908V46.8899V46.889V46.8882V46.8873V46.8864V46.8855V46.8846V46.8838V46.8829V46.882V46.8811V46.8803V46.8794V46.8785V46.8776V46.8767V46.8759V46.875V46.8741V46.8732V46.8724V46.8715V46.8706V46.8697V46.8689V46.868V46.8671V46.8663V46.8654V46.8645V46.8636V46.8628V46.8619V46.861V46.8602V46.8593V46.8584V46.8575V46.8567V46.8558V46.8549V46.8541V46.8532V46.8523V46.8515V46.8506V46.8498V46.8489V46.848V46.8472V46.8463V46.8454V46.8446V46.8437V46.8429V46.842V46.8411V46.8403V46.8394V46.8386V46.8377V46.8368V46.836V46.8351V46.8343V46.8334V46.8326V46.8317V46.8309V46.83V46.8292V46.8283V46.8275V46.8266V46.8258V46.8249V46.8241V46.8232V46.8224V46.8216V46.8207V46.8199V46.819V46.8182V46.8174V46.8165V46.8157V46.8148V46.814V46.8132V46.8123V46.8115V46.8107V46.8098V46.809V46.8082V46.8074V46.8065V46.8057V46.8049V46.8041V46.8032V46.8024V46.8016V46.8008V46.7999V46.7991V46.7983V46.7975V46.7967V46.7959V46.7951V46.7942V46.7934V46.7926V46.7918V46.791V46.7902V46.7894V46.7886V46.7878V46.787V46.7862V46.7854V46.7846V46.7838V46.783V46.7822V46.7814V46.7806V46.7798V46.779V46.7782V46.7775V46.7767V46.7759V46.7751V46.7743V46.7735V46.7728V46.772V46.7712V46.7704V46.7697V46.7689V46.7681V46.7674V46.7666V46.7658V46.7651V46.7643V46.7635V46.7628V46.762V46.7612V46.7605V46.7597V46.759V46.7582V46.7575V46.7567V46.756V46.7552V46.7545V46.7537V46.753V46.7523V46.7515V46.7508V46.7501V46.7493V46.7486V46.7479V46.7471V46.7464V46.7457V46.745V46.7442V46.7435V46.7428V46.7421V46.7414V46.7407V46.7399V46.7392V46.7385V46.7378V46.7371V46.7364V46.7357V46.735V46.7343V46.7336V46.7329V46.7322V46.7315V46.7309V46.7302V46.7295V46.7288V46.7281V46.7274V46.7268V46.7261V46.7254V46.7247V46.7241V46.7234V46.7227V46.7221V46.7214V46.7208V46.7201V46.7194V46.7188V46.7181V46.7175V46.7168V46.7162V46.7156V46.7149V46.7143V46.7136V46.713V46.7124V46.7117V46.7111V46.7105V46.7099V46.7092V46.7086V46.708V46.7074V46.7068V46.7062V46.7055V46.7049V46.7043V46.7037V46.7031V46.7025V46.7019V46.7013V46.7007V46.7002V46.6996V46.1232L376.208 46.2046C375.548 46.2987 374.783 46.2996 374.174 46.2996C372.001 46.2996 370.598 45.7021 370.125 44.6023L370.12 44.5888L370.113 44.5756C369.951 44.253 369.865 43.9311 369.865 43.3996C369.865 42.1053 370.331 40.8422 371.121 40.0535C371.899 39.2776 372.577 38.8996 373.173 38.8996C373.751 38.8996 374.304 39.1638 374.838 39.7301C375.378 40.3032 375.875 41.1634 376.314 42.2821L376.314 42.2821L376.318 42.2922C376.789 43.4215 377.081 44.8543 377.081 46.5996C377.081 47.7065 376.807 48.5909 376.289 49.2861C375.244 50.4908 373.261 50.9996 369.966 50.9996H368.464C368.116 50.9996 367.938 50.8699 367.834 50.7337C367.714 50.5759 367.661 50.3643 367.661 50.1996C367.661 50.0433 367.708 49.9028 367.8 49.8051C367.885 49.7154 368.066 49.5996 368.464 49.5996H369.966C371.581 49.5996 373.038 49.5 374.206 49.182ZM374.243 35.7082C373.702 35.2371 373.212 34.8075 372.73 34.3455C373.029 33.9484 373.326 33.5904 373.622 33.2708C374.134 33.6864 374.574 34.1195 375.052 34.6484C374.768 35.0775 374.514 35.4066 374.243 35.7082ZM370.015 33.4708C370.532 33.8901 370.975 34.3272 371.458 34.8626C371.171 35.3447 370.922 35.6738 370.664 35.9329C370.112 35.4521 369.614 35.0156 369.123 34.5455C369.422 34.1484 369.72 33.7904 370.015 33.4708ZM375.978 45.0996H376.563L376.472 44.5215C376.309 43.492 375.875 42.4825 375.25 41.7201C374.627 40.9602 373.772 40.3996 372.772 40.3996C372.036 40.3996 371.354 40.7023 370.858 41.0952C370.608 41.2932 370.393 41.5243 370.236 41.7705C370.083 42.012 369.967 42.2987 369.967 42.5996C369.967 43.7078 370.91 44.316 371.947 44.6394C373.021 44.9746 374.459 45.0996 375.978 45.0996Z" fill="#004E6C" stroke="#004E6C"/>
<path d="M383.78 43.1393C383.901 42.9261 384.023 42.7093 384.142 42.4905L385.153 44.4302L385.153 44.4303L385.159 44.4424C385.624 45.2782 385.998 46.2952 385.998 47.7992V49.8992C385.998 51.4256 385.183 53.1103 383.722 54.7644C382.68 55.8978 381.703 56.2992 380.987 56.2992C380.043 56.2992 378.976 56.0518 377.777 55.5728C378.005 55.5905 378.24 55.5992 378.483 55.5992C381.44 55.5992 384.278 53.133 385.538 50.2354C385.796 49.8227 385.796 49.4151 385.796 49.2123C385.796 49.2078 385.796 49.2035 385.796 49.1992C385.796 48.9561 385.718 48.7108 385.654 48.5307C385.623 48.4449 385.59 48.3594 385.56 48.2838C385.557 48.2751 385.553 48.2666 385.55 48.2583C385.517 48.1728 385.49 48.1025 385.469 48.0408L385.46 48.0135L385.448 47.9874C384.793 46.5869 384.123 45.2385 383.277 44.0531C383.434 43.7546 383.603 43.4534 383.777 43.1447L383.78 43.1393Z" fill="#004E6C" stroke="#004E6C"/>
</svg>
