<svg width="408" height="224" viewBox="0 0 408 224" fill="none" xmlns="http://www.w3.org/2000/svg">
<rect width="408" height="224" fill="white"/>
<path d="M10.952 135.865H6.16398V127.183H10.952V128.144H7.24398V130.856H10.736V131.804H7.24398V134.905H10.952V135.865Z" fill="#004E6C"/>
<path d="M15.7839 129.226C16.5519 129.226 17.1319 129.417 17.5239 129.798C17.9159 130.179 18.1119 130.787 18.1119 131.622V135.865H17.0679V131.695C17.0679 130.649 16.5879 130.126 15.6279 130.126C14.9159 130.126 14.4239 130.329 14.1519 130.734C13.8799 131.139 13.7439 131.723 13.7439 132.485V135.865H12.6879V129.348H13.5399L13.6959 130.235H13.7559C13.9639 129.895 14.2519 129.644 14.6199 129.482C14.9879 129.311 15.3759 129.226 15.7839 129.226Z" fill="#004E6C"/>
<path d="M22.3859 129.226C22.8099 129.226 23.1899 129.307 23.5259 129.469C23.8699 129.632 24.1619 129.879 24.4019 130.211H24.4619L24.6059 129.348H25.4459V135.975C25.4459 136.907 25.2099 137.608 24.7379 138.079C24.2739 138.549 23.5499 138.784 22.5659 138.784C21.6219 138.784 20.8499 138.646 20.2499 138.37V137.385C20.8819 137.726 21.6739 137.896 22.6259 137.896C23.1779 137.896 23.6099 137.73 23.9219 137.398C24.2419 137.073 24.4019 136.628 24.4019 136.06V135.805C24.4019 135.707 24.4059 135.57 24.4139 135.391C24.4219 135.205 24.4299 135.075 24.4379 135.002H24.3899C23.9579 135.659 23.2939 135.987 22.3979 135.987C21.5659 135.987 20.9139 135.691 20.4419 135.099C19.9779 134.508 19.7459 133.681 19.7459 132.619C19.7459 131.581 19.9779 130.758 20.4419 130.15C20.9139 129.534 21.5619 129.226 22.3859 129.226ZM22.5299 130.126C21.9939 130.126 21.5779 130.345 21.2819 130.783C20.9859 131.212 20.8379 131.828 20.8379 132.631C20.8379 133.434 20.9819 134.05 21.2699 134.479C21.5579 134.901 21.9859 135.112 22.5539 135.112C23.2019 135.112 23.6739 134.937 23.9699 134.589C24.2659 134.232 24.4139 133.661 24.4139 132.874V132.619C24.4139 131.735 24.2619 131.099 23.9579 130.71C23.6539 130.321 23.1779 130.126 22.5299 130.126Z" fill="#004E6C"/>
<path d="M28.5447 135.865H27.4887V126.624H28.5447V135.865Z" fill="#004E6C"/>
<path d="M31.1225 126.904C31.2825 126.904 31.4225 126.96 31.5425 127.074C31.6705 127.179 31.7345 127.35 31.7345 127.585C31.7345 127.82 31.6705 127.994 31.5425 128.108C31.4225 128.213 31.2825 128.266 31.1225 128.266C30.9465 128.266 30.7985 128.213 30.6785 128.108C30.5585 127.994 30.4985 127.82 30.4985 127.585C30.4985 127.35 30.5585 127.179 30.6785 127.074C30.7985 126.96 30.9465 126.904 31.1225 126.904ZM31.6385 129.348V135.865H30.5825V129.348H31.6385Z" fill="#004E6C"/>
<path d="M37.8642 134.066C37.8642 134.698 37.6322 135.176 37.1682 135.501C36.7042 135.825 36.0802 135.987 35.2962 135.987C34.8482 135.987 34.4602 135.951 34.1322 135.878C33.8122 135.805 33.5282 135.703 33.2802 135.574V134.601C33.5362 134.731 33.8442 134.852 34.2042 134.966C34.5722 135.071 34.9442 135.124 35.3202 135.124C35.8562 135.124 36.2442 135.039 36.4842 134.868C36.7242 134.69 36.8442 134.455 36.8442 134.163C36.8442 134.001 36.8002 133.855 36.7122 133.725C36.6242 133.596 36.4642 133.466 36.2322 133.336C36.0082 133.207 35.6842 133.061 35.2602 132.898C34.8442 132.736 34.4882 132.574 34.1922 132.412C33.8962 132.25 33.6682 132.055 33.5082 131.828C33.3482 131.601 33.2682 131.31 33.2682 130.953C33.2682 130.402 33.4882 129.976 33.9282 129.676C34.3762 129.376 34.9602 129.226 35.6802 129.226C36.0722 129.226 36.4362 129.267 36.7722 129.348C37.1162 129.429 37.4362 129.534 37.7322 129.664L37.3722 130.515C37.1002 130.402 36.8162 130.304 36.5202 130.223C36.2242 130.142 35.9202 130.102 35.6082 130.102C35.1762 130.102 34.8442 130.175 34.6122 130.321C34.3882 130.458 34.2762 130.649 34.2762 130.892C34.2762 131.079 34.3282 131.233 34.4322 131.354C34.5362 131.476 34.7082 131.597 34.9482 131.719C35.1962 131.841 35.5242 131.978 35.9322 132.132C36.3402 132.286 36.6882 132.445 36.9762 132.607C37.2642 132.769 37.4842 132.967 37.6362 133.202C37.7882 133.429 37.8642 133.717 37.8642 134.066Z" fill="#004E6C"/>
<path d="M40.4744 126.624V129.336C40.4744 129.66 40.4544 129.964 40.4144 130.248H40.4864C40.6944 129.915 40.9744 129.664 41.3264 129.494C41.6864 129.324 42.0744 129.238 42.4904 129.238C43.2664 129.238 43.8504 129.429 44.2424 129.81C44.6424 130.183 44.8424 130.787 44.8424 131.622V135.865H43.7984V131.695C43.7984 130.649 43.3184 130.126 42.3584 130.126C41.6384 130.126 41.1424 130.333 40.8704 130.746C40.6064 131.152 40.4744 131.735 40.4744 132.497V135.865H39.4184V126.624H40.4744Z" fill="#004E6C"/>
<path d="M5.47998 148.747C5.47998 147.758 5.61998 146.805 5.89998 145.889C6.18798 144.965 6.63598 144.134 7.24398 143.396H8.23998C7.67998 144.159 7.25598 144.998 6.96798 145.914C6.68798 146.83 6.54798 147.77 6.54798 148.735C6.54798 149.675 6.68798 150.599 6.96798 151.507C7.25598 152.407 7.67598 153.238 8.22798 154H7.24398C6.63598 153.286 6.18798 152.48 5.89998 151.58C5.61998 150.672 5.47998 149.728 5.47998 148.747Z" fill="#004E6C"/>
<path d="M9.25764 148.37C9.25764 147.746 9.30964 147.134 9.41364 146.534C9.52564 145.926 9.72164 145.379 10.0016 144.892C10.2896 144.398 10.6896 144.004 11.2016 143.713C11.7136 143.421 12.3736 143.275 13.1816 143.275C13.3496 143.275 13.5336 143.283 13.7336 143.299C13.9416 143.315 14.1096 143.344 14.2376 143.384V144.296C14.0936 144.248 13.9296 144.211 13.7456 144.187C13.5616 144.163 13.3816 144.15 13.2056 144.15C12.6536 144.15 12.1936 144.244 11.8256 144.43C11.4576 144.617 11.1656 144.872 10.9496 145.196C10.7416 145.52 10.5896 145.893 10.4936 146.315C10.3976 146.736 10.3376 147.186 10.3136 147.665H10.3856C10.5696 147.381 10.8256 147.142 11.1536 146.947C11.4816 146.744 11.9016 146.643 12.4136 146.643C13.1576 146.643 13.7576 146.874 14.2136 147.336C14.6696 147.79 14.8976 148.439 14.8976 149.282C14.8976 150.19 14.6496 150.903 14.1536 151.422C13.6656 151.941 13.0056 152.2 12.1736 152.2C11.6296 152.2 11.1376 152.062 10.6976 151.787C10.2576 151.511 9.90564 151.09 9.64164 150.522C9.38564 149.955 9.25764 149.237 9.25764 148.37ZM12.1616 151.3C12.6656 151.3 13.0736 151.138 13.3856 150.814C13.6976 150.482 13.8536 149.971 13.8536 149.282C13.8536 148.731 13.7136 148.293 13.4336 147.969C13.1616 147.644 12.7496 147.482 12.1976 147.482C11.8216 147.482 11.4936 147.563 11.2136 147.725C10.9336 147.879 10.7136 148.082 10.5536 148.333C10.4016 148.577 10.3256 148.824 10.3256 149.075C10.3256 149.424 10.3936 149.772 10.5296 150.121C10.6656 150.461 10.8696 150.745 11.1416 150.972C11.4136 151.191 11.7536 151.3 12.1616 151.3Z" fill="#004E6C"/>
<path d="M22.182 152.2C21.606 152.2 21.098 152.083 20.658 151.848C20.218 151.612 19.87 151.248 19.614 150.753C19.366 150.259 19.242 149.626 19.242 148.856C19.242 148.054 19.37 147.401 19.626 146.899C19.89 146.396 20.25 146.027 20.706 145.792C21.162 145.557 21.678 145.439 22.254 145.439C22.574 145.439 22.886 145.476 23.19 145.549C23.502 145.614 23.754 145.695 23.946 145.792L23.622 146.68C23.43 146.607 23.206 146.538 22.95 146.473C22.694 146.408 22.454 146.376 22.23 146.376C20.966 146.376 20.334 147.198 20.334 148.844C20.334 149.63 20.486 150.234 20.79 150.656C21.102 151.069 21.562 151.276 22.17 151.276C22.514 151.276 22.822 151.24 23.094 151.167C23.366 151.094 23.614 151.004 23.838 150.899V151.848C23.622 151.961 23.382 152.046 23.118 152.103C22.862 152.168 22.55 152.2 22.182 152.2Z" fill="#004E6C"/>
<path d="M26.4236 142.837V145.549C26.4236 145.873 26.4036 146.177 26.3636 146.461H26.4356C26.6436 146.128 26.9236 145.877 27.2756 145.707C27.6356 145.537 28.0236 145.451 28.4396 145.451C29.2156 145.451 29.7996 145.642 30.1916 146.023C30.5916 146.396 30.7916 147 30.7916 147.835V152.079H29.7476V147.908C29.7476 146.862 29.2676 146.339 28.3076 146.339C27.5876 146.339 27.0916 146.546 26.8196 146.959C26.5556 147.365 26.4236 147.948 26.4236 148.71V152.079H25.3676V142.837H26.4236Z" fill="#004E6C"/>
<path d="M35.2216 145.451C36.0056 145.451 36.5856 145.626 36.9616 145.974C37.3376 146.323 37.5256 146.878 37.5256 147.64V152.079H36.7576L36.5536 151.154H36.5056C36.2256 151.511 35.9296 151.775 35.6176 151.945C35.3056 152.115 34.8816 152.2 34.3456 152.2C33.7616 152.2 33.2776 152.046 32.8936 151.738C32.5096 151.422 32.3176 150.932 32.3176 150.267C32.3176 149.618 32.5696 149.12 33.0736 148.771C33.5776 148.414 34.3536 148.22 35.4016 148.187L36.4936 148.151V147.762C36.4936 147.219 36.3776 146.842 36.1456 146.631C35.9136 146.42 35.5856 146.315 35.1616 146.315C34.8256 146.315 34.5056 146.368 34.2016 146.473C33.8976 146.57 33.6136 146.684 33.3496 146.813L33.0256 146.011C33.3056 145.857 33.6376 145.727 34.0216 145.622C34.4056 145.508 34.8056 145.451 35.2216 145.451ZM36.4816 148.893L35.5336 148.929C34.7336 148.962 34.1776 149.091 33.8656 149.318C33.5616 149.545 33.4096 149.866 33.4096 150.279C33.4096 150.644 33.5176 150.911 33.7336 151.081C33.9576 151.252 34.2416 151.337 34.5856 151.337C35.1216 151.337 35.5696 151.187 35.9296 150.887C36.2976 150.579 36.4816 150.109 36.4816 149.476V148.893Z" fill="#004E6C"/>
<path d="M42.5122 145.439C42.6322 145.439 42.7602 145.447 42.8962 145.464C43.0322 145.472 43.1562 145.488 43.2682 145.512L43.1362 146.497C43.0322 146.473 42.9162 146.453 42.7882 146.436C42.6602 146.42 42.5442 146.412 42.4402 146.412C42.1122 146.412 41.8042 146.505 41.5162 146.692C41.2282 146.87 40.9962 147.126 40.8202 147.458C40.6522 147.782 40.5682 148.163 40.5682 148.601V152.079H39.5122V145.561H40.3762L40.4962 146.753H40.5442C40.7442 146.396 41.0082 146.088 41.3362 145.828C41.6722 145.569 42.0642 145.439 42.5122 145.439Z" fill="#004E6C"/>
<path d="M46.6708 145.451C47.4548 145.451 48.0348 145.626 48.4108 145.974C48.7868 146.323 48.9748 146.878 48.9748 147.64V152.079H48.2068L48.0028 151.154H47.9548C47.6748 151.511 47.3788 151.775 47.0668 151.945C46.7548 152.115 46.3308 152.2 45.7948 152.2C45.2108 152.2 44.7268 152.046 44.3428 151.738C43.9588 151.422 43.7668 150.932 43.7668 150.267C43.7668 149.618 44.0188 149.12 44.5228 148.771C45.0268 148.414 45.8028 148.22 46.8508 148.187L47.9428 148.151V147.762C47.9428 147.219 47.8268 146.842 47.5948 146.631C47.3628 146.42 47.0348 146.315 46.6108 146.315C46.2748 146.315 45.9548 146.368 45.6508 146.473C45.3468 146.57 45.0628 146.684 44.7988 146.813L44.4748 146.011C44.7548 145.857 45.0868 145.727 45.4708 145.622C45.8548 145.508 46.2548 145.451 46.6708 145.451ZM47.9308 148.893L46.9828 148.929C46.1828 148.962 45.6268 149.091 45.3148 149.318C45.0108 149.545 44.8588 149.866 44.8588 150.279C44.8588 150.644 44.9668 150.911 45.1828 151.081C45.4068 151.252 45.6908 151.337 46.0348 151.337C46.5708 151.337 47.0188 151.187 47.3788 150.887C47.7468 150.579 47.9308 150.109 47.9308 149.476V148.893Z" fill="#004E6C"/>
<path d="M53.5414 152.2C52.9654 152.2 52.4574 152.083 52.0174 151.848C51.5774 151.612 51.2294 151.248 50.9734 150.753C50.7254 150.259 50.6014 149.626 50.6014 148.856C50.6014 148.054 50.7294 147.401 50.9854 146.899C51.2494 146.396 51.6094 146.027 52.0654 145.792C52.5214 145.557 53.0374 145.439 53.6134 145.439C53.9334 145.439 54.2454 145.476 54.5494 145.549C54.8614 145.614 55.1134 145.695 55.3054 145.792L54.9814 146.68C54.7894 146.607 54.5654 146.538 54.3094 146.473C54.0534 146.408 53.8134 146.376 53.5894 146.376C52.3254 146.376 51.6934 147.198 51.6934 148.844C51.6934 149.63 51.8454 150.234 52.1494 150.656C52.4614 151.069 52.9214 151.276 53.5294 151.276C53.8734 151.276 54.1814 151.24 54.4534 151.167C54.7254 151.094 54.9734 151.004 55.1974 150.899V151.848C54.9814 151.961 54.7414 152.046 54.4774 152.103C54.2214 152.168 53.9094 152.2 53.5414 152.2Z" fill="#004E6C"/>
<path d="M58.875 151.325C59.035 151.325 59.199 151.313 59.367 151.288C59.535 151.264 59.671 151.231 59.775 151.191V152.006C59.663 152.062 59.503 152.107 59.295 152.139C59.087 152.18 58.887 152.2 58.695 152.2C58.359 152.2 58.047 152.143 57.759 152.03C57.479 151.908 57.251 151.702 57.075 151.41C56.899 151.118 56.811 150.709 56.811 150.182V146.388H55.899V145.877L56.823 145.451L57.243 144.065H57.867V145.561H59.727V146.388H57.867V150.157C57.867 150.555 57.959 150.85 58.143 151.045C58.335 151.231 58.579 151.325 58.875 151.325Z" fill="#004E6C"/>
<path d="M63.547 145.439C64.091 145.439 64.5629 145.561 64.9629 145.804C65.3629 146.047 65.667 146.392 65.875 146.838C66.091 147.275 66.1989 147.79 66.1989 148.382V149.026H61.7949C61.8109 149.764 61.995 150.328 62.347 150.717C62.707 151.098 63.207 151.288 63.847 151.288C64.255 151.288 64.6149 151.252 64.9269 151.179C65.2469 151.098 65.5749 150.984 65.9109 150.838V151.775C65.5829 151.921 65.2589 152.026 64.9389 152.091C64.6189 152.164 64.239 152.2 63.799 152.2C63.183 152.2 62.6429 152.075 62.1789 151.823C61.7149 151.572 61.3509 151.199 61.0869 150.705C60.8309 150.21 60.7029 149.598 60.7029 148.868C60.7029 148.155 60.8189 147.543 61.0509 147.032C61.2909 146.522 61.6229 146.128 62.0469 145.853C62.4789 145.577 62.979 145.439 63.547 145.439ZM63.535 146.315C63.031 146.315 62.6309 146.481 62.3349 146.813C62.0469 147.138 61.875 147.592 61.819 148.175H65.0949C65.0869 147.624 64.9589 147.178 64.7109 146.838C64.4629 146.489 64.071 146.315 63.535 146.315Z" fill="#004E6C"/>
<path d="M70.8364 145.439C70.9564 145.439 71.0844 145.447 71.2204 145.464C71.3564 145.472 71.4804 145.488 71.5924 145.512L71.4604 146.497C71.3564 146.473 71.2404 146.453 71.1124 146.436C70.9844 146.42 70.8684 146.412 70.7644 146.412C70.4364 146.412 70.1284 146.505 69.8404 146.692C69.5524 146.87 69.3204 147.126 69.1444 147.458C68.9764 147.782 68.8924 148.163 68.8924 148.601V152.079H67.8364V145.561H68.7004L68.8204 146.753H68.8684C69.0684 146.396 69.3324 146.088 69.6604 145.828C69.9964 145.569 70.3884 145.439 70.8364 145.439Z" fill="#004E6C"/>
<path d="M76.9814 150.279C76.9814 150.911 76.7494 151.39 76.2854 151.714C75.8214 152.038 75.1974 152.2 74.4134 152.2C73.9654 152.2 73.5774 152.164 73.2494 152.091C72.9294 152.018 72.6454 151.916 72.3974 151.787V150.814C72.6534 150.944 72.9614 151.065 73.3214 151.179C73.6894 151.284 74.0614 151.337 74.4374 151.337C74.9734 151.337 75.3614 151.252 75.6014 151.081C75.8414 150.903 75.9614 150.668 75.9614 150.376C75.9614 150.214 75.9174 150.068 75.8294 149.938C75.7414 149.809 75.5814 149.679 75.3494 149.549C75.1254 149.42 74.8014 149.274 74.3774 149.112C73.9614 148.949 73.6054 148.787 73.3094 148.625C73.0134 148.463 72.7854 148.269 72.6254 148.042C72.4654 147.815 72.3854 147.523 72.3854 147.166C72.3854 146.615 72.6054 146.189 73.0454 145.889C73.4934 145.589 74.0774 145.439 74.7974 145.439C75.1894 145.439 75.5534 145.48 75.8894 145.561C76.2334 145.642 76.5534 145.747 76.8494 145.877L76.4894 146.728C76.2174 146.615 75.9334 146.518 75.6374 146.436C75.3414 146.355 75.0374 146.315 74.7254 146.315C74.2934 146.315 73.9614 146.388 73.7294 146.534C73.5054 146.672 73.3934 146.862 73.3934 147.105C73.3934 147.292 73.4454 147.446 73.5494 147.567C73.6534 147.689 73.8254 147.811 74.0654 147.932C74.3134 148.054 74.6414 148.192 75.0494 148.346C75.4574 148.5 75.8054 148.658 76.0934 148.82C76.3814 148.982 76.6014 149.181 76.7534 149.416C76.9054 149.643 76.9814 149.93 76.9814 150.279Z" fill="#004E6C"/>
<path d="M80.6356 148.747C80.6356 149.728 80.4916 150.672 80.2036 151.58C79.9236 152.48 79.4796 153.286 78.8716 154H77.8876C78.4396 153.238 78.8556 152.407 79.1356 151.507C79.4236 150.599 79.5676 149.675 79.5676 148.735C79.5676 147.77 79.4236 146.83 79.1356 145.914C78.8556 144.998 78.4356 144.159 77.8756 143.396H78.8716C79.4796 144.134 79.9236 144.965 80.2036 145.889C80.4916 146.805 80.6356 147.758 80.6356 148.747Z" fill="#004E6C"/>
<path d="M165.952 138.176C165.76 138.176 165.592 138.16 165.448 138.127C165.304 138.103 165.176 138.067 165.064 138.018V137.094C165.192 137.134 165.328 137.163 165.472 137.179C165.616 137.203 165.768 137.215 165.928 137.215C166.128 137.215 166.316 137.175 166.492 137.094C166.676 137.013 166.824 136.871 166.936 136.668C167.048 136.474 167.104 136.19 167.104 135.817V127.184H168.184V135.732C168.184 136.567 167.98 137.183 167.572 137.58C167.164 137.977 166.624 138.176 165.952 138.176Z" fill="#004E6C"/>
<path d="M172.737 129.239C173.521 129.239 174.101 129.413 174.477 129.761C174.853 130.11 175.041 130.665 175.041 131.427V135.866H174.273L174.069 134.942H174.021C173.741 135.298 173.445 135.562 173.133 135.732C172.821 135.902 172.397 135.987 171.861 135.987C171.277 135.987 170.793 135.833 170.409 135.525C170.025 135.209 169.833 134.719 169.833 134.054C169.833 133.405 170.085 132.907 170.589 132.558C171.093 132.202 171.869 132.007 172.917 131.975L174.009 131.938V131.549C174.009 131.006 173.893 130.629 173.661 130.418C173.429 130.207 173.101 130.102 172.677 130.102C172.341 130.102 172.021 130.155 171.717 130.26C171.413 130.357 171.129 130.471 170.865 130.601L170.541 129.798C170.821 129.644 171.153 129.514 171.537 129.409C171.921 129.295 172.321 129.239 172.737 129.239ZM173.997 132.68L173.049 132.716C172.249 132.749 171.693 132.878 171.381 133.105C171.077 133.332 170.925 133.653 170.925 134.066C170.925 134.431 171.033 134.698 171.249 134.869C171.473 135.039 171.757 135.124 172.101 135.124C172.637 135.124 173.085 134.974 173.445 134.674C173.813 134.366 173.997 133.896 173.997 133.264V132.68Z" fill="#004E6C"/>
<path d="M180.088 129.226C180.88 129.226 181.516 129.506 181.996 130.065C182.484 130.625 182.728 131.468 182.728 132.595C182.728 133.705 182.484 134.548 181.996 135.124C181.516 135.7 180.876 135.987 180.076 135.987C179.58 135.987 179.168 135.894 178.84 135.708C178.52 135.521 178.268 135.298 178.084 135.039H178.012C178.02 135.177 178.032 135.351 178.048 135.562C178.072 135.772 178.084 135.955 178.084 136.109V138.784H177.028V129.348H177.892L178.036 130.236H178.084C178.276 129.952 178.528 129.713 178.84 129.518C179.152 129.324 179.568 129.226 180.088 129.226ZM179.896 130.126C179.24 130.126 178.776 130.313 178.504 130.686C178.232 131.059 178.092 131.626 178.084 132.388V132.595C178.084 133.397 178.212 134.017 178.468 134.455C178.732 134.885 179.216 135.1 179.92 135.1C180.304 135.1 180.624 134.994 180.88 134.783C181.136 134.565 181.324 134.265 181.444 133.884C181.572 133.503 181.636 133.069 181.636 132.583C181.636 131.837 181.492 131.241 181.204 130.795C180.924 130.349 180.488 130.126 179.896 130.126Z" fill="#004E6C"/>
<path d="M186.847 129.239C187.631 129.239 188.211 129.413 188.587 129.761C188.963 130.11 189.151 130.665 189.151 131.427V135.866H188.383L188.179 134.942H188.131C187.851 135.298 187.555 135.562 187.243 135.732C186.931 135.902 186.507 135.987 185.971 135.987C185.387 135.987 184.903 135.833 184.519 135.525C184.135 135.209 183.943 134.719 183.943 134.054C183.943 133.405 184.195 132.907 184.699 132.558C185.203 132.202 185.979 132.007 187.027 131.975L188.119 131.938V131.549C188.119 131.006 188.003 130.629 187.771 130.418C187.539 130.207 187.211 130.102 186.787 130.102C186.451 130.102 186.131 130.155 185.827 130.26C185.523 130.357 185.239 130.471 184.975 130.601L184.651 129.798C184.931 129.644 185.263 129.514 185.647 129.409C186.031 129.295 186.431 129.239 186.847 129.239ZM188.107 132.68L187.159 132.716C186.359 132.749 185.803 132.878 185.491 133.105C185.187 133.332 185.035 133.653 185.035 134.066C185.035 134.431 185.143 134.698 185.359 134.869C185.583 135.039 185.867 135.124 186.211 135.124C186.747 135.124 187.195 134.974 187.555 134.674C187.923 134.366 188.107 133.896 188.107 133.264V132.68Z" fill="#004E6C"/>
<path d="M194.233 129.226C195.001 129.226 195.581 129.417 195.973 129.798C196.365 130.179 196.561 130.787 196.561 131.622V135.866H195.517V131.695C195.517 130.649 195.037 130.126 194.077 130.126C193.365 130.126 192.873 130.329 192.601 130.734C192.329 131.14 192.193 131.723 192.193 132.485V135.866H191.137V129.348H191.989L192.145 130.236H192.205C192.413 129.895 192.701 129.644 193.069 129.482C193.437 129.312 193.825 129.226 194.233 129.226Z" fill="#004E6C"/>
<path d="M201.039 129.226C201.583 129.226 202.055 129.348 202.455 129.591C202.855 129.834 203.159 130.179 203.367 130.625C203.583 131.063 203.691 131.577 203.691 132.169V132.814H199.287C199.303 133.551 199.487 134.115 199.839 134.504C200.199 134.885 200.699 135.075 201.339 135.075C201.747 135.075 202.107 135.039 202.419 134.966C202.739 134.885 203.067 134.771 203.403 134.625V135.562C203.075 135.708 202.751 135.813 202.431 135.878C202.111 135.951 201.731 135.987 201.291 135.987C200.675 135.987 200.135 135.862 199.671 135.61C199.207 135.359 198.843 134.986 198.579 134.492C198.323 133.997 198.195 133.385 198.195 132.656C198.195 131.942 198.311 131.33 198.543 130.819C198.783 130.309 199.115 129.916 199.539 129.64C199.971 129.364 200.471 129.226 201.039 129.226ZM201.027 130.102C200.523 130.102 200.123 130.268 199.827 130.601C199.539 130.925 199.367 131.379 199.311 131.962H202.587C202.579 131.411 202.451 130.965 202.203 130.625C201.955 130.276 201.563 130.102 201.027 130.102Z" fill="#004E6C"/>
<path d="M209.517 134.066C209.517 134.698 209.285 135.177 208.821 135.501C208.357 135.825 207.733 135.987 206.949 135.987C206.501 135.987 206.113 135.951 205.785 135.878C205.465 135.805 205.181 135.704 204.933 135.574V134.601C205.189 134.731 205.497 134.852 205.857 134.966C206.225 135.071 206.597 135.124 206.973 135.124C207.509 135.124 207.897 135.039 208.137 134.869C208.377 134.69 208.497 134.455 208.497 134.163C208.497 134.001 208.453 133.855 208.365 133.726C208.277 133.596 208.117 133.466 207.885 133.336C207.661 133.207 207.337 133.061 206.913 132.899C206.497 132.737 206.141 132.574 205.845 132.412C205.549 132.25 205.321 132.056 205.161 131.829C205.001 131.602 204.921 131.31 204.921 130.953C204.921 130.402 205.141 129.976 205.581 129.676C206.029 129.376 206.613 129.226 207.333 129.226C207.725 129.226 208.089 129.267 208.425 129.348C208.769 129.429 209.089 129.534 209.385 129.664L209.025 130.515C208.753 130.402 208.469 130.305 208.173 130.224C207.877 130.142 207.573 130.102 207.261 130.102C206.829 130.102 206.497 130.175 206.265 130.321C206.041 130.459 205.929 130.649 205.929 130.892C205.929 131.079 205.981 131.233 206.085 131.354C206.189 131.476 206.361 131.598 206.601 131.719C206.849 131.841 207.177 131.979 207.585 132.133C207.993 132.287 208.341 132.445 208.629 132.607C208.917 132.769 209.137 132.968 209.289 133.203C209.441 133.43 209.517 133.717 209.517 134.066Z" fill="#004E6C"/>
<path d="M213.555 129.226C214.099 129.226 214.571 129.348 214.971 129.591C215.371 129.834 215.675 130.179 215.883 130.625C216.099 131.063 216.207 131.577 216.207 132.169V132.814H211.803C211.819 133.551 212.003 134.115 212.355 134.504C212.715 134.885 213.215 135.075 213.855 135.075C214.263 135.075 214.623 135.039 214.935 134.966C215.255 134.885 215.583 134.771 215.919 134.625V135.562C215.591 135.708 215.267 135.813 214.947 135.878C214.627 135.951 214.247 135.987 213.807 135.987C213.191 135.987 212.651 135.862 212.187 135.61C211.723 135.359 211.359 134.986 211.095 134.492C210.839 133.997 210.711 133.385 210.711 132.656C210.711 131.942 210.827 131.33 211.059 130.819C211.299 130.309 211.631 129.916 212.055 129.64C212.487 129.364 212.987 129.226 213.555 129.226ZM213.543 130.102C213.039 130.102 212.639 130.268 212.343 130.601C212.055 130.925 211.883 131.379 211.827 131.962H215.103C215.095 131.411 214.967 130.965 214.719 130.625C214.471 130.276 214.079 130.102 213.543 130.102Z" fill="#004E6C"/>
<path d="M298.884 131.282H301.848V135.538C301.384 135.692 300.916 135.805 300.444 135.878C299.972 135.951 299.436 135.988 298.836 135.988C297.948 135.988 297.2 135.809 296.592 135.453C295.984 135.088 295.52 134.573 295.2 133.908C294.888 133.236 294.732 132.441 294.732 131.525C294.732 130.625 294.904 129.843 295.248 129.178C295.6 128.505 296.108 127.987 296.772 127.622C297.436 127.249 298.236 127.062 299.172 127.062C299.652 127.062 300.104 127.107 300.528 127.196C300.96 127.285 301.36 127.411 301.728 127.573L301.32 128.522C301.016 128.392 300.672 128.278 300.288 128.181C299.912 128.076 299.52 128.023 299.112 128.023C298.088 128.023 297.288 128.339 296.712 128.972C296.144 129.596 295.86 130.447 295.86 131.525C295.86 132.214 295.968 132.826 296.184 133.361C296.408 133.888 296.756 134.302 297.228 134.602C297.7 134.893 298.32 135.039 299.088 135.039C299.464 135.039 299.784 135.019 300.048 134.979C300.312 134.938 300.552 134.889 300.768 134.833V132.255H298.884V131.282Z" fill="#004E6C"/>
<path d="M306.234 129.227C306.778 129.227 307.25 129.349 307.65 129.592C308.05 129.835 308.354 130.179 308.562 130.625C308.778 131.063 308.886 131.578 308.886 132.17V132.814H304.482C304.498 133.552 304.682 134.115 305.034 134.504C305.394 134.885 305.894 135.076 306.534 135.076C306.942 135.076 307.302 135.039 307.614 134.966C307.934 134.885 308.262 134.772 308.598 134.626V135.562C308.27 135.708 307.946 135.814 307.626 135.878C307.306 135.951 306.926 135.988 306.486 135.988C305.87 135.988 305.33 135.862 304.866 135.611C304.402 135.36 304.038 134.987 303.774 134.492C303.518 133.998 303.39 133.386 303.39 132.656C303.39 131.943 303.506 131.331 303.738 130.82C303.978 130.309 304.31 129.916 304.734 129.64C305.166 129.365 305.666 129.227 306.234 129.227ZM306.222 130.102C305.718 130.102 305.318 130.269 305.022 130.601C304.734 130.925 304.562 131.379 304.506 131.963H307.782C307.774 131.412 307.646 130.966 307.398 130.625C307.15 130.277 306.758 130.102 306.222 130.102Z" fill="#004E6C"/>
<path d="M313.524 129.227C313.644 129.227 313.772 129.235 313.908 129.251C314.044 129.259 314.168 129.276 314.28 129.3L314.148 130.285C314.044 130.261 313.928 130.24 313.8 130.224C313.672 130.208 313.556 130.2 313.452 130.2C313.124 130.2 312.816 130.293 312.528 130.479C312.24 130.658 312.008 130.913 311.832 131.245C311.664 131.57 311.58 131.951 311.58 132.389V135.866H310.524V129.349H311.388L311.508 130.54H311.556C311.756 130.184 312.02 129.875 312.348 129.616C312.684 129.357 313.076 129.227 313.524 129.227Z" fill="#004E6C"/>
<path d="M322.537 129.227C323.265 129.227 323.809 129.417 324.169 129.798C324.529 130.179 324.709 130.787 324.709 131.622V135.866H323.665V131.671C323.665 130.642 323.229 130.127 322.357 130.127C321.733 130.127 321.285 130.309 321.013 130.674C320.749 131.039 320.617 131.57 320.617 132.267V135.866H319.573V131.671C319.573 130.642 319.133 130.127 318.253 130.127C317.605 130.127 317.157 130.329 316.909 130.735C316.661 131.14 316.537 131.724 316.537 132.486V135.866H315.481V129.349H316.333L316.489 130.236H316.549C316.749 129.896 317.017 129.644 317.353 129.482C317.697 129.312 318.061 129.227 318.445 129.227C319.453 129.227 320.109 129.592 320.413 130.321H320.473C320.689 129.948 320.981 129.673 321.349 129.494C321.717 129.316 322.113 129.227 322.537 129.227Z" fill="#004E6C"/>
<path d="M329.132 129.239C329.916 129.239 330.496 129.413 330.872 129.762C331.248 130.111 331.436 130.666 331.436 131.428V135.866H330.668L330.464 134.942H330.416C330.136 135.299 329.84 135.562 329.528 135.732C329.216 135.903 328.792 135.988 328.256 135.988C327.672 135.988 327.188 135.834 326.804 135.526C326.42 135.21 326.228 134.719 326.228 134.054C326.228 133.406 326.48 132.907 326.984 132.559C327.488 132.202 328.264 132.007 329.312 131.975L330.404 131.939V131.549C330.404 131.006 330.288 130.629 330.056 130.419C329.824 130.208 329.496 130.102 329.072 130.102C328.736 130.102 328.416 130.155 328.112 130.261C327.808 130.358 327.524 130.471 327.26 130.601L326.936 129.798C327.216 129.644 327.548 129.515 327.932 129.409C328.316 129.296 328.716 129.239 329.132 129.239ZM330.392 132.68L329.444 132.717C328.644 132.749 328.088 132.879 327.776 133.106C327.472 133.333 327.32 133.653 327.32 134.067C327.32 134.431 327.428 134.699 327.644 134.869C327.868 135.039 328.152 135.124 328.496 135.124C329.032 135.124 329.48 134.974 329.84 134.675C330.208 134.367 330.392 133.896 330.392 133.264V132.68Z" fill="#004E6C"/>
<path d="M336.518 129.227C337.286 129.227 337.866 129.417 338.258 129.798C338.65 130.179 338.846 130.787 338.846 131.622V135.866H337.802V131.695C337.802 130.65 337.322 130.127 336.362 130.127C335.65 130.127 335.158 130.329 334.886 130.735C334.614 131.14 334.478 131.724 334.478 132.486V135.866H333.422V129.349H334.274L334.43 130.236H334.49C334.698 129.896 334.986 129.644 335.354 129.482C335.722 129.312 336.11 129.227 336.518 129.227Z" fill="#004E6C"/>
<rect x="5.5" y="70.5" width="107" height="35.4795" stroke="#1B77AF" stroke-dasharray="5 5"/>
<rect x="294.5" y="71.5127" width="107" height="34.4662" stroke="#939393" stroke-dasharray="5 5"/>
<rect x="5.5" y="70.5" width="83" height="35" fill="white"/>
<path d="M28.028 90.326C28.028 91.2127 27.706 91.9033 27.062 92.398C26.418 92.8927 25.55 93.14 24.458 93.14C23.898 93.14 23.38 93.098 22.904 93.014C22.428 92.93 22.0313 92.8133 21.714 92.664V91.46C22.05 91.6093 22.4653 91.7447 22.96 91.866C23.464 91.9873 23.982 92.048 24.514 92.048C25.2513 92.048 25.8113 91.9033 26.194 91.614C26.5767 91.3247 26.768 90.9327 26.768 90.438C26.768 90.1113 26.698 89.836 26.558 89.612C26.418 89.388 26.1753 89.1827 25.83 88.996C25.4847 88.8093 25.0133 88.604 24.416 88.38C23.5573 88.072 22.9133 87.694 22.484 87.246C22.0547 86.798 21.84 86.1867 21.84 85.412C21.84 84.8893 21.9753 84.4367 22.246 84.054C22.5167 83.6713 22.89 83.3773 23.366 83.172C23.842 82.9667 24.3973 82.864 25.032 82.864C25.5733 82.864 26.0727 82.9153 26.53 83.018C26.9873 83.1207 27.4073 83.256 27.79 83.424L27.398 84.502C27.0527 84.3527 26.6747 84.2267 26.264 84.124C25.8533 84.0213 25.4333 83.97 25.004 83.97C24.3787 83.97 23.9073 84.1053 23.59 84.376C23.2727 84.6373 23.114 84.9873 23.114 85.426C23.114 85.762 23.184 86.042 23.324 86.266C23.464 86.49 23.6927 86.6953 24.01 86.882C24.3273 87.0593 24.7567 87.246 25.298 87.442C25.886 87.6567 26.3807 87.89 26.782 88.142C27.1927 88.3847 27.5007 88.6787 27.706 89.024C27.9207 89.3693 28.028 89.8033 28.028 90.326ZM30.5036 82.682C30.6903 82.682 30.8536 82.7473 30.9936 82.878C31.1429 82.9993 31.2176 83.1953 31.2176 83.466C31.2176 83.7367 31.1429 83.9373 30.9936 84.068C30.8536 84.1893 30.6903 84.25 30.5036 84.25C30.2983 84.25 30.1256 84.1893 29.9856 84.068C29.8456 83.9373 29.7756 83.7367 29.7756 83.466C29.7756 83.1953 29.8456 82.9993 29.9856 82.878C30.1256 82.7473 30.2983 82.682 30.5036 82.682ZM31.1056 85.496V93H29.8736V85.496H31.1056ZM36.143 85.356C36.6376 85.356 37.081 85.4493 37.473 85.636C37.8743 85.8227 38.215 86.1073 38.495 86.49H38.565L38.733 85.496H39.713V93.126C39.713 94.1993 39.4376 95.0067 38.887 95.548C38.3456 96.0893 37.501 96.36 36.353 96.36C35.2516 96.36 34.351 96.2013 33.651 95.884V94.75C34.3883 95.142 35.3123 95.338 36.423 95.338C37.067 95.338 37.571 95.1467 37.935 94.764C38.3083 94.3907 38.495 93.8773 38.495 93.224V92.93C38.495 92.818 38.4996 92.6593 38.509 92.454C38.5183 92.2393 38.5276 92.09 38.537 92.006H38.481C37.977 92.762 37.2023 93.14 36.157 93.14C35.1863 93.14 34.4256 92.7993 33.875 92.118C33.3336 91.4367 33.063 90.4847 33.063 89.262C33.063 88.0673 33.3336 87.12 33.875 86.42C34.4256 85.7107 35.1816 85.356 36.143 85.356ZM36.311 86.392C35.6856 86.392 35.2003 86.644 34.855 87.148C34.5096 87.6427 34.337 88.352 34.337 89.276C34.337 90.2 34.505 90.9093 34.841 91.404C35.177 91.8893 35.6763 92.132 36.339 92.132C37.095 92.132 37.6456 91.9313 37.991 91.53C38.3363 91.1193 38.509 90.4613 38.509 89.556V89.262C38.509 88.2447 38.3316 87.512 37.977 87.064C37.6223 86.616 37.067 86.392 36.311 86.392ZM45.7083 85.356C46.6043 85.356 47.2809 85.5753 47.7383 86.014C48.1956 86.4527 48.4243 87.1527 48.4243 88.114V93H47.2063V88.198C47.2063 86.994 46.6463 86.392 45.5263 86.392C44.6956 86.392 44.1216 86.6253 43.8043 87.092C43.4869 87.5587 43.3283 88.2307 43.3283 89.108V93H42.0963V85.496H43.0903L43.2723 86.518H43.3423C43.5849 86.126 43.9209 85.8367 44.3503 85.65C44.7796 85.454 45.2323 85.356 45.7083 85.356ZM62.1573 83.004V89.472C62.1573 90.1627 62.0173 90.788 61.7373 91.348C61.4573 91.8987 61.0279 92.3373 60.4493 92.664C59.8706 92.9813 59.1426 93.14 58.2653 93.14C57.0146 93.14 56.0673 92.804 55.4233 92.132C54.7793 91.4507 54.4573 90.5547 54.4573 89.444V83.004H55.7173V89.486C55.7173 90.298 55.9319 90.928 56.3613 91.376C56.7999 91.824 57.4579 92.048 58.3353 92.048C59.2406 92.048 59.8939 91.81 60.2953 91.334C60.7059 90.8487 60.9113 90.228 60.9113 89.472V83.004H62.1573ZM68.1975 85.356C69.1215 85.356 69.8635 85.678 70.4235 86.322C70.9928 86.966 71.2775 87.9367 71.2775 89.234C71.2775 90.5127 70.9928 91.4833 70.4235 92.146C69.8635 92.8087 69.1168 93.14 68.1835 93.14C67.6048 93.14 67.1242 93.0327 66.7415 92.818C66.3682 92.6033 66.0742 92.3467 65.8595 92.048H65.7755C65.7848 92.2067 65.7988 92.4073 65.8175 92.65C65.8455 92.8927 65.8595 93.1027 65.8595 93.28V96.36H64.6275V85.496H65.6355L65.8035 86.518H65.8595C66.0835 86.1913 66.3775 85.916 66.7415 85.692C67.1055 85.468 67.5908 85.356 68.1975 85.356ZM67.9735 86.392C67.2082 86.392 66.6668 86.6067 66.3495 87.036C66.0322 87.4653 65.8688 88.1187 65.8595 88.996V89.234C65.8595 90.158 66.0088 90.872 66.3075 91.376C66.6155 91.8707 67.1802 92.118 68.0015 92.118C68.4495 92.118 68.8228 91.9967 69.1215 91.754C69.4202 91.502 69.6395 91.1567 69.7795 90.718C69.9288 90.2793 70.0035 89.78 70.0035 89.22C70.0035 88.3613 69.8355 87.6753 69.4995 87.162C69.1728 86.6487 68.6642 86.392 67.9735 86.392Z" fill="#1B77AF"/>
<rect x="5.5" y="70.5" width="83" height="35" stroke="#1B77AF"/>
<rect x="166.5" y="70.5" width="87" height="35" fill="white"/>
<path d="M190.47 91.866H194.278V92.888H190.47V91.866ZM182.742 83.9H188.118V84.922H182.742V83.9ZM189.994 82.99H194.782V93.812H193.718V83.998H191.016V93.91H189.994V82.99ZM187.838 83.9H188.86C188.86 83.9 188.86 84.292 188.86 84.432C188.748 90.662 188.65 92.706 188.202 93.322C187.95 93.686 187.698 93.812 187.278 93.854C186.886 93.91 186.242 93.91 185.612 93.868C185.598 93.56 185.486 93.098 185.304 92.804C185.962 92.86 186.564 92.86 186.83 92.86C187.04 92.874 187.166 92.832 187.292 92.65C187.614 92.216 187.74 90.144 187.838 84.152V83.9ZM184.73 81.436H185.752C185.738 86.602 185.668 91.46 183.204 94.134C183.022 93.896 182.658 93.574 182.392 93.42C184.73 90.956 184.716 86.336 184.73 81.436ZM199.178 82.094H203.14V83.158H199.178V82.094ZM202.608 82.094H203.686C203.686 84.6 203.994 89.92 209.524 93.196C209.286 93.378 208.866 93.826 208.67 94.078C203.07 90.69 202.608 84.726 202.608 82.094ZM202.216 84.838L203.406 85.062C202.398 89.332 200.55 92.286 197.456 94.106C197.26 93.882 196.784 93.448 196.504 93.252C199.612 91.628 201.362 88.8 202.216 84.838ZM218.778 81.912C218.75 82.08 218.708 82.626 218.708 82.794C218.666 83.704 218.694 86.406 218.708 87.526L217.644 86.98C217.644 86.364 217.63 83.578 217.588 82.808C217.56 82.43 217.518 82.038 217.49 81.912H218.778ZM211.33 83.872C213.234 83.844 216.734 83.718 218.89 83.718C220.598 83.718 222.334 83.718 222.992 83.732L222.978 84.768C222.194 84.726 220.934 84.698 218.876 84.698C216.468 84.698 213.472 84.796 211.358 84.95L211.33 83.872ZM218.68 87.932C218.68 89.808 217.812 90.746 216.538 90.746C215.362 90.746 214.228 89.92 214.228 88.394C214.228 87.008 215.376 85.972 216.706 85.972C218.33 85.972 219.156 87.176 219.156 88.786C219.156 90.69 218.232 92.79 214.984 93.756L214.046 92.846C216.594 92.244 218.078 90.998 218.078 88.688C218.078 87.428 217.462 86.896 216.706 86.896C215.964 86.896 215.278 87.47 215.278 88.38C215.278 89.262 215.936 89.766 216.706 89.766C217.574 89.766 218.134 89.038 217.91 87.54L218.68 87.932ZM227.332 82.696C227.64 82.724 228.032 82.738 228.312 82.738C229.054 82.738 232.372 82.64 233.114 82.57C233.534 82.528 233.73 82.5 233.884 82.444L234.528 83.27C234.276 83.438 233.996 83.62 233.73 83.83C233.044 84.362 231.14 86 230.048 86.896C230.692 86.686 231.364 86.616 231.994 86.616C234.318 86.616 235.984 88.002 235.984 89.892C235.984 92.146 234.122 93.616 231.154 93.616C229.25 93.616 228.088 92.79 228.088 91.614C228.088 90.662 228.956 89.794 230.244 89.794C232.106 89.794 233.044 91.11 233.142 92.524L232.134 92.692C232.05 91.502 231.364 90.648 230.244 90.648C229.6 90.648 229.11 91.04 229.11 91.53C229.11 92.216 229.88 92.622 230.986 92.622C233.366 92.622 234.864 91.642 234.864 89.892C234.864 88.506 233.548 87.484 231.714 87.484C229.39 87.484 228.13 88.464 226.366 90.27L225.554 89.458C226.716 88.506 228.522 86.994 229.32 86.308C230.104 85.664 231.868 84.194 232.568 83.564C231.826 83.606 229.026 83.718 228.298 83.76C227.976 83.788 227.668 83.802 227.36 83.844L227.332 82.696Z" fill="#1B77AF"/>
<rect x="166.5" y="70.5" width="87" height="35" stroke="#1B77AF"/>
<rect x="294.5" y="70.5" width="108" height="35" fill="white"/>
<path d="M314.69 85.356C314.83 85.356 314.979 85.3653 315.138 85.384C315.297 85.3933 315.441 85.412 315.572 85.44L315.418 86.574C315.297 86.546 315.161 86.5227 315.012 86.504C314.863 86.4853 314.727 86.476 314.606 86.476C314.223 86.476 313.864 86.5833 313.528 86.798C313.192 87.0033 312.921 87.2973 312.716 87.68C312.52 88.0533 312.422 88.492 312.422 88.996V93H311.19V85.496H312.198L312.338 86.868H312.394C312.627 86.4573 312.935 86.1027 313.318 85.804C313.71 85.5053 314.167 85.356 314.69 85.356ZM319.598 85.356C320.232 85.356 320.783 85.496 321.25 85.776C321.716 86.056 322.071 86.4527 322.314 86.966C322.566 87.47 322.692 88.0627 322.692 88.744V89.486H317.554C317.572 90.3353 317.787 90.984 318.198 91.432C318.618 91.8707 319.201 92.09 319.948 92.09C320.424 92.09 320.844 92.048 321.208 91.964C321.581 91.8707 321.964 91.74 322.356 91.572V92.65C321.973 92.818 321.595 92.9393 321.222 93.014C320.848 93.098 320.405 93.14 319.892 93.14C319.173 93.14 318.543 92.9953 318.002 92.706C317.46 92.4167 317.036 91.9873 316.728 91.418C316.429 90.8487 316.28 90.144 316.28 89.304C316.28 88.4827 316.415 87.778 316.686 87.19C316.966 86.602 317.353 86.1493 317.848 85.832C318.352 85.5147 318.935 85.356 319.598 85.356ZM319.584 86.364C318.996 86.364 318.529 86.5553 318.184 86.938C317.848 87.3113 317.647 87.834 317.582 88.506H321.404C321.394 87.8713 321.245 87.358 320.956 86.966C320.666 86.5647 320.209 86.364 319.584 86.364ZM327.262 85.356C327.757 85.356 328.2 85.4493 328.592 85.636C328.993 85.8227 329.334 86.1073 329.614 86.49H329.684L329.852 85.496H330.832V93.126C330.832 94.1993 330.557 95.0067 330.006 95.548C329.465 96.0893 328.62 96.36 327.472 96.36C326.371 96.36 325.47 96.2013 324.77 95.884V94.75C325.507 95.142 326.431 95.338 327.542 95.338C328.186 95.338 328.69 95.1467 329.054 94.764C329.427 94.3907 329.614 93.8773 329.614 93.224V92.93C329.614 92.818 329.619 92.6593 329.628 92.454C329.637 92.2393 329.647 92.09 329.656 92.006H329.6C329.096 92.762 328.321 93.14 327.276 93.14C326.305 93.14 325.545 92.7993 324.994 92.118C324.453 91.4367 324.182 90.4847 324.182 89.262C324.182 88.0673 324.453 87.12 324.994 86.42C325.545 85.7107 326.301 85.356 327.262 85.356ZM327.43 86.392C326.805 86.392 326.319 86.644 325.974 87.148C325.629 87.6427 325.456 88.352 325.456 89.276C325.456 90.2 325.624 90.9093 325.96 91.404C326.296 91.8893 326.795 92.132 327.458 92.132C328.214 92.132 328.765 91.9313 329.11 91.53C329.455 91.1193 329.628 90.4613 329.628 89.556V89.262C329.628 88.2447 329.451 87.512 329.096 87.064C328.741 86.616 328.186 86.392 327.43 86.392ZM333.845 82.682C334.032 82.682 334.195 82.7473 334.335 82.878C334.485 82.9993 334.559 83.1953 334.559 83.466C334.559 83.7367 334.485 83.9373 334.335 84.068C334.195 84.1893 334.032 84.25 333.845 84.25C333.64 84.25 333.467 84.1893 333.327 84.068C333.187 83.9373 333.117 83.7367 333.117 83.466C333.117 83.1953 333.187 82.9993 333.327 82.878C333.467 82.7473 333.64 82.682 333.845 82.682ZM334.447 85.496V93H333.215V85.496H334.447ZM341.711 90.928C341.711 91.656 341.44 92.2067 340.899 92.58C340.357 92.9533 339.629 93.14 338.715 93.14C338.192 93.14 337.739 93.098 337.357 93.014C336.983 92.93 336.652 92.8133 336.363 92.664V91.544C336.661 91.6933 337.021 91.8333 337.441 91.964C337.87 92.0853 338.304 92.146 338.743 92.146C339.368 92.146 339.821 92.048 340.101 91.852C340.381 91.6467 340.521 91.376 340.521 91.04C340.521 90.8533 340.469 90.6853 340.367 90.536C340.264 90.3867 340.077 90.2373 339.807 90.088C339.545 89.9387 339.167 89.7707 338.673 89.584C338.187 89.3973 337.772 89.2107 337.427 89.024C337.081 88.8373 336.815 88.6133 336.629 88.352C336.442 88.0907 336.349 87.7547 336.349 87.344C336.349 86.7093 336.605 86.2193 337.119 85.874C337.641 85.5287 338.323 85.356 339.163 85.356C339.62 85.356 340.045 85.4027 340.437 85.496C340.838 85.5893 341.211 85.7107 341.557 85.86L341.137 86.84C340.819 86.7093 340.488 86.5973 340.143 86.504C339.797 86.4107 339.443 86.364 339.079 86.364C338.575 86.364 338.187 86.448 337.917 86.616C337.655 86.7747 337.525 86.994 337.525 87.274C337.525 87.4887 337.585 87.666 337.707 87.806C337.828 87.946 338.029 88.086 338.309 88.226C338.598 88.366 338.981 88.5247 339.457 88.702C339.933 88.8793 340.339 89.0613 340.675 89.248C341.011 89.4347 341.267 89.6633 341.445 89.934C341.622 90.1953 341.711 90.5267 341.711 90.928ZM346.03 92.132C346.217 92.132 346.408 92.118 346.604 92.09C346.8 92.062 346.959 92.0247 347.08 91.978V92.916C346.949 92.9813 346.763 93.0327 346.52 93.07C346.277 93.1167 346.044 93.14 345.82 93.14C345.428 93.14 345.064 93.0747 344.728 92.944C344.401 92.804 344.135 92.566 343.93 92.23C343.725 91.894 343.622 91.4227 343.622 90.816V86.448H342.558V85.86L343.636 85.37L344.126 83.774H344.854V85.496H347.024V86.448H344.854V90.788C344.854 91.2453 344.961 91.586 345.176 91.81C345.4 92.0247 345.685 92.132 346.03 92.132ZM352.083 85.356C352.223 85.356 352.372 85.3653 352.531 85.384C352.689 85.3933 352.834 85.412 352.965 85.44L352.811 86.574C352.689 86.546 352.554 86.5227 352.405 86.504C352.255 86.4853 352.12 86.476 351.999 86.476C351.616 86.476 351.257 86.5833 350.921 86.798C350.585 87.0033 350.314 87.2973 350.109 87.68C349.913 88.0533 349.815 88.492 349.815 88.996V93H348.583V85.496H349.591L349.731 86.868H349.787C350.02 86.4573 350.328 86.1027 350.711 85.804C351.103 85.5053 351.56 85.356 352.083 85.356ZM354.996 82.682C355.182 82.682 355.346 82.7473 355.486 82.878C355.635 82.9993 355.71 83.1953 355.71 83.466C355.71 83.7367 355.635 83.9373 355.486 84.068C355.346 84.1893 355.182 84.25 354.996 84.25C354.79 84.25 354.618 84.1893 354.478 84.068C354.338 83.9373 354.268 83.7367 354.268 83.466C354.268 83.1953 354.338 82.9993 354.478 82.878C354.618 82.7473 354.79 82.682 354.996 82.682ZM355.598 85.496V93H354.366V85.496H355.598ZM360.873 85.356C361.508 85.356 362.058 85.496 362.525 85.776C362.992 86.056 363.346 86.4527 363.589 86.966C363.841 87.47 363.967 88.0627 363.967 88.744V89.486H358.829C358.848 90.3353 359.062 90.984 359.473 91.432C359.893 91.8707 360.476 92.09 361.223 92.09C361.699 92.09 362.119 92.048 362.483 91.964C362.856 91.8707 363.239 91.74 363.631 91.572V92.65C363.248 92.818 362.87 92.9393 362.497 93.014C362.124 93.098 361.68 93.14 361.167 93.14C360.448 93.14 359.818 92.9953 359.277 92.706C358.736 92.4167 358.311 91.9873 358.003 91.418C357.704 90.8487 357.555 90.144 357.555 89.304C357.555 88.4827 357.69 87.778 357.961 87.19C358.241 86.602 358.628 86.1493 359.123 85.832C359.627 85.5147 360.21 85.356 360.873 85.356ZM360.859 86.364C360.271 86.364 359.804 86.5553 359.459 86.938C359.123 87.3113 358.922 87.834 358.857 88.506H362.679C362.67 87.8713 362.52 87.358 362.231 86.966C361.942 86.5647 361.484 86.364 360.859 86.364ZM369.378 85.356C369.518 85.356 369.667 85.3653 369.826 85.384C369.984 85.3933 370.129 85.412 370.26 85.44L370.106 86.574C369.984 86.546 369.849 86.5227 369.7 86.504C369.55 86.4853 369.415 86.476 369.294 86.476C368.911 86.476 368.552 86.5833 368.216 86.798C367.88 87.0033 367.609 87.2973 367.404 87.68C367.208 88.0533 367.11 88.492 367.11 88.996V93H365.878V85.496H366.886L367.026 86.868H367.082C367.315 86.4573 367.623 86.1027 368.006 85.804C368.398 85.5053 368.855 85.356 369.378 85.356ZM374.285 85.356C374.92 85.356 375.471 85.496 375.937 85.776C376.404 86.056 376.759 86.4527 377.001 86.966C377.253 87.47 377.379 88.0627 377.379 88.744V89.486H372.241C372.26 90.3353 372.475 90.984 372.885 91.432C373.305 91.8707 373.889 92.09 374.635 92.09C375.111 92.09 375.531 92.048 375.895 91.964C376.269 91.8707 376.651 91.74 377.043 91.572V92.65C376.661 92.818 376.283 92.9393 375.909 93.014C375.536 93.098 375.093 93.14 374.579 93.14C373.861 93.14 373.231 92.9953 372.689 92.706C372.148 92.4167 371.723 91.9873 371.415 91.418C371.117 90.8487 370.967 90.144 370.967 89.304C370.967 88.4827 371.103 87.778 371.373 87.19C371.653 86.602 372.041 86.1493 372.535 85.832C373.039 85.5147 373.623 85.356 374.285 85.356ZM374.271 86.364C373.683 86.364 373.217 86.5553 372.871 86.938C372.535 87.3113 372.335 87.834 372.269 88.506H376.091C376.082 87.8713 375.933 87.358 375.643 86.966C375.354 86.5647 374.897 86.364 374.271 86.364ZM382.902 85.356C383.798 85.356 384.474 85.5753 384.932 86.014C385.389 86.4527 385.618 87.1527 385.618 88.114V93H384.4V88.198C384.4 86.994 383.84 86.392 382.72 86.392C381.889 86.392 381.315 86.6253 380.998 87.092C380.68 87.5587 380.522 88.2307 380.522 89.108V93H379.29V85.496H380.284L380.466 86.518H380.536C380.778 86.126 381.114 85.8367 381.544 85.65C381.973 85.454 382.426 85.356 382.902 85.356Z" fill="#1B77AF"/>
<rect x="294.5" y="70.5" width="108" height="35" stroke="#1B77AF"/>
</svg>
