<svg width="412" height="208" viewBox="0 0 412 208" fill="none" xmlns="http://www.w3.org/2000/svg">
<rect x="154" y="88" width="32" height="32" rx="2" fill="#D93D32"/>
<path fill-rule="evenodd" clip-rule="evenodd" d="M161.109 102.907C162.274 101.353 164.937 99.8857 169.966 99.8857C174.985 99.8857 177.718 101.347 178.887 102.902C179.976 104.285 179.554 105.653 179.322 106.407C179.295 106.496 179.27 106.576 179.251 106.647C179.101 107.196 178.737 107.535 178.315 107.708C177.915 107.873 177.477 107.887 177.118 107.847C176.976 107.831 176.767 107.811 176.521 107.787C175.774 107.714 174.692 107.608 174.144 107.501C173.885 107.471 173.656 107.372 173.47 107.204C173.284 107.035 173.173 106.824 173.106 106.618C172.978 106.222 172.988 105.757 173.023 105.366C173.059 104.968 173.063 104.783 173.035 104.666C173.025 104.624 173.013 104.603 173 104.587C172.984 104.567 172.949 104.533 172.868 104.487C172.853 104.478 172.839 104.469 172.825 104.459C172.674 104.351 172.332 104.214 171.81 104.106C171.306 104.002 170.689 103.937 170.034 103.937C169.38 103.937 168.76 104.002 168.251 104.099C167.728 104.199 167.366 104.323 167.2 104.418C167.064 104.496 167.02 104.565 166.992 104.658C166.953 104.789 166.943 104.996 166.977 105.366C167.012 105.756 167.022 106.207 166.892 106.597C166.824 106.801 166.714 107.003 166.536 107.169C166.356 107.338 166.133 107.446 165.878 107.497C165.338 107.605 164.236 107.713 163.479 107.787C163.235 107.811 163.027 107.831 162.885 107.847C162.549 107.888 162.116 107.87 161.716 107.71C161.297 107.543 160.903 107.211 160.749 106.647C160.729 106.572 160.702 106.487 160.673 106.394C160.44 105.645 160.033 104.341 161.109 102.907ZM169.966 100.916C165.107 100.916 162.827 102.332 161.932 103.525C161.187 104.519 161.429 105.323 161.652 106.066C161.684 106.171 161.715 106.274 161.743 106.376C161.795 106.567 161.915 106.681 162.098 106.754C162.297 106.834 162.548 106.851 162.761 106.824L162.768 106.823L162.768 106.823C162.942 106.804 163.181 106.781 163.451 106.754C164.202 106.681 165.193 106.584 165.676 106.487C165.765 106.469 165.808 106.44 165.832 106.418C165.858 106.393 165.889 106.351 165.915 106.271C165.974 106.095 165.984 105.825 165.951 105.459C165.916 105.074 165.906 104.698 166.005 104.365C166.114 103.995 166.344 103.721 166.689 103.524C167.004 103.344 167.5 103.194 168.058 103.087C168.63 102.979 169.315 102.907 170.034 102.907C170.753 102.907 171.44 102.978 172.018 103.098C172.565 103.21 173.071 103.377 173.401 103.605C173.73 103.798 173.948 104.057 174.037 104.426C174.112 104.738 174.081 105.103 174.049 105.459C174.016 105.824 174.025 106.114 174.086 106.301C174.114 106.387 174.144 106.425 174.161 106.441C174.174 106.452 174.2 106.472 174.274 106.48C174.29 106.481 174.307 106.484 174.323 106.487C174.807 106.584 175.798 106.681 176.549 106.754C176.819 106.781 177.058 106.804 177.232 106.823C177.491 106.852 177.739 106.832 177.923 106.756C178.085 106.689 178.201 106.582 178.257 106.376C178.283 106.28 178.312 106.183 178.341 106.084C178.567 105.32 178.817 104.474 178.075 103.535L178.067 103.525C177.175 102.334 174.828 100.916 169.966 100.916Z" fill="white"/>
<rect x="226" y="88" width="32" height="32" rx="2" fill="#1473E6"/>
<path fill-rule="evenodd" clip-rule="evenodd" d="M238.375 96.62C238.755 96.8044 239.051 97.1102 239.24 97.3364C239.285 97.3913 239.346 97.4635 239.417 97.5485C239.866 98.085 240.743 99.1344 241.107 99.6199C241.459 100.088 241.407 100.596 241.21 101.001C241.027 101.379 240.707 101.708 240.418 101.961C240.13 102.213 239.989 102.35 239.918 102.467C239.876 102.537 239.854 102.6 239.892 102.752C239.939 102.94 240.105 103.292 240.404 103.74C240.694 104.176 241.084 104.664 241.54 105.119C241.995 105.575 242.483 105.964 242.908 106.245C243.121 106.385 243.312 106.495 243.472 106.572C243.639 106.652 243.742 106.682 243.786 106.688C243.803 106.69 243.821 106.694 243.838 106.698C243.99 106.736 244.053 106.715 244.123 106.672C244.24 106.601 244.377 106.461 244.629 106.173C244.882 105.883 245.211 105.563 245.589 105.38C245.991 105.185 246.493 105.132 246.958 105.474C247.609 105.91 248.855 106.95 249.328 107.355C249.591 107.58 249.898 107.897 250.072 108.292C250.259 108.715 250.286 109.22 249.983 109.724C249.941 109.794 249.897 109.874 249.847 109.964C249.464 110.66 248.794 111.876 247.077 112.095C245.137 112.401 242.171 111.595 238.615 107.969C235.054 104.338 234.262 101.379 234.494 99.5218C234.705 97.8342 235.947 97.1927 236.646 96.8312C236.758 96.7734 236.857 96.7227 236.934 96.676C237.455 96.3639 237.968 96.4228 238.375 96.62ZM237.926 97.5455C237.767 97.4684 237.629 97.4587 237.463 97.558C237.328 97.6393 237.188 97.7146 237.048 97.79C236.352 98.1642 235.654 98.5394 235.515 99.6494C235.336 101.084 235.915 103.747 239.349 107.248C242.781 110.748 245.435 111.316 246.923 111.078C246.929 111.077 246.935 111.076 246.941 111.075C248.117 110.928 248.536 110.187 248.93 109.492C248.986 109.391 249.043 109.292 249.101 109.195C249.209 109.014 249.202 108.867 249.131 108.707C249.048 108.52 248.876 108.322 248.658 108.136C248.174 107.721 246.963 106.713 246.376 106.322C246.369 106.317 246.361 106.311 246.353 106.306C246.273 106.245 246.197 106.228 246.038 106.306C245.849 106.397 245.63 106.591 245.403 106.85C245.175 107.111 244.935 107.382 244.658 107.551C244.34 107.744 243.999 107.793 243.613 107.702C243.424 107.67 243.22 107.592 243.027 107.499C242.816 107.398 242.583 107.263 242.341 107.103C241.858 106.784 241.317 106.351 240.812 105.846C240.308 105.342 239.875 104.801 239.548 104.311C239.23 103.833 238.984 103.363 238.894 103.002C238.795 102.606 238.842 102.257 239.04 101.932C239.208 101.655 239.48 101.415 239.74 101.187C239.999 100.96 240.193 100.741 240.285 100.553C240.362 100.393 240.345 100.317 240.285 100.237C239.939 99.7768 239.089 98.7597 238.635 98.2168C238.561 98.1289 238.498 98.0535 238.45 97.9948C238.295 97.8096 238.111 97.6354 237.926 97.5455Z" fill="white"/>
</svg>
