<svg width="408" height="176" viewBox="0 0 408 176" fill="none" xmlns="http://www.w3.org/2000/svg">
<rect width="408" height="176" fill="white"/>
<g clip-path="url(#clip0_6289_163699)">
<path d="M50.2876 45.1137C50.087 45.8168 49.485 46.8211 48.6823 48.2272C47.8796 49.6334 47.0769 50.6377 46.4749 51.3408C46.2742 51.5417 45.8729 51.843 45.3712 51.9434C44.8696 52.0438 44.3679 52.1443 43.7659 52.2447C43.2642 52.3451 42.6622 52.3451 41.9599 52.3451C41.2575 52.3451 40.7559 52.3451 40.2542 52.3451C39.2508 52.3451 38.4482 52.3451 37.8462 52.2447C37.2441 52.1443 36.7425 52.0438 36.4415 51.7425C36.0401 51.4412 35.8395 51.0395 35.7391 50.5373C35.6388 50.0351 35.5385 49.332 35.5385 48.4281V39.9914H38.5485C39.3512 39.9914 40.0535 40.0919 40.6555 40.2927C41.2575 40.4936 41.7592 40.7949 42.2609 41.2971C42.5619 41.5984 42.8629 42.201 43.1639 43.105C43.4649 44.0089 43.6656 44.712 43.7659 45.3146H45.2709V33.0613H43.7659C43.6656 33.6639 43.4649 34.367 43.1639 35.1705C42.8629 35.974 42.5619 36.4762 42.2609 36.7775C41.7592 37.2796 41.1572 37.6814 40.5552 37.7818C39.9532 37.9827 39.2508 38.0831 38.5485 38.0831H35.5385V26.9347H39.7525C40.2542 26.9347 40.8562 26.9347 41.5585 26.9347C42.2609 26.9347 42.8629 27.0351 43.2642 27.1355C44.1672 27.3364 45.1706 28.0395 46.1739 29.1443C47.1773 30.2491 47.8796 31.3539 48.1806 32.4587H49.786V25.0264H24V26.6334C24.301 26.6334 24.8027 26.7338 25.505 26.9347C26.107 27.0351 26.6087 27.236 26.9097 27.3364C27.5117 27.6377 27.913 27.939 28.0134 28.2403C28.214 28.5417 28.214 28.9434 28.214 29.4456V49.9347C28.214 50.4368 28.1137 50.8386 27.913 51.2403C27.7124 51.5417 27.4114 51.843 26.9097 52.0438C26.6087 52.1443 26.2074 52.2447 25.505 52.3451C24.903 52.4456 24.301 52.4456 24 52.546V54.153H51.291L51.893 45.1137H50.2876Z" fill="#ABD8F1"/>
<path d="M120.822 32.6596C119.719 30.7513 118.314 29.1443 116.508 28.0395C114.802 26.9347 112.896 26.1312 111.09 25.629C109.284 25.1268 107.378 25.0264 105.772 25.0264H90.3208V26.6334C90.6218 26.6334 91.1235 26.7338 91.6252 26.8342C92.2272 26.9347 92.7288 27.0351 93.2305 27.236C93.7322 27.4368 94.1335 27.7382 94.2338 28.1399C94.4345 28.5417 94.5349 28.9434 94.5349 29.3451V49.9347C94.5349 50.4368 94.4345 50.8386 94.2338 51.2403C94.0332 51.6421 93.7322 51.843 93.2305 52.0438C93.0298 52.1443 92.6285 52.2447 91.9262 52.2447C91.2238 52.3451 90.7221 52.3451 90.3208 52.3451V54.153H104.97C107.277 54.153 109.384 53.8517 111.491 53.3495C113.598 52.7469 115.404 51.9434 117.11 50.7382C118.715 49.5329 120.02 48.0264 121.023 46.2185C122.026 44.4106 122.528 42.3015 122.528 39.7906C122.428 36.9783 121.926 34.6683 120.822 32.6596ZM113.799 45.0133C113.498 46.5198 112.996 47.8255 112.294 48.9303C111.592 50.0351 110.689 50.8386 109.585 51.4412C108.481 52.0438 107.177 52.3451 105.572 52.3451C104.869 52.3451 104.267 52.2447 103.766 52.1443C103.264 52.0438 102.963 51.7425 102.562 51.4412C102.261 51.1399 102.06 50.8386 101.859 50.4368C101.759 50.0351 101.659 49.6334 101.659 49.1312V27.0351C101.96 27.0351 102.461 27.0351 103.063 26.9347C103.665 26.9347 104.167 26.9347 104.669 26.9347C106.174 26.9347 107.478 27.236 108.682 27.8386C109.886 28.4412 110.889 29.3451 111.592 30.4499C112.394 31.5548 112.996 32.9609 113.398 34.5679C113.799 36.1748 114 37.8823 114 39.7906C114.301 41.6989 114.1 43.5067 113.799 45.0133Z" fill="#ABD8F1"/>
<path d="M161.358 25.0264V26.6334C161.659 26.6334 162.161 26.7338 162.763 26.9347C163.365 27.0351 163.867 27.236 164.268 27.3364C164.77 27.5373 165.171 27.8386 165.372 28.2403C165.572 28.6421 165.673 29.0438 165.673 29.4456V32.4587C167.98 30.8517 170.388 29.3451 172.897 28.0395V26.9347H175.305C176.709 26.2316 178.214 25.629 179.619 25.0264H161.358Z" fill="#ABD8F1"/>
<path d="M252.26 25.0252H250.454L249.15 26.13C248.247 25.6278 247.143 25.226 245.739 24.8243C244.434 24.4226 242.929 24.2217 241.324 24.2217C239.117 24.2217 237.01 24.6234 235.103 25.3265C234.1 25.7282 233.197 26.2304 232.294 26.7326C233.699 27.3352 235.003 28.0383 236.307 28.7413C237.612 27.0339 239.418 26.13 241.625 26.13C243.632 26.13 245.438 26.9335 246.842 28.44C248.247 29.9466 249.451 32.3571 250.555 35.571H252.361L252.26 25.0252Z" fill="#ABD8F1"/>
<path d="M317.377 44.3102C316.775 45.5155 316.173 46.7207 315.571 47.9259C314.869 49.0307 314.167 50.1355 313.364 51.0395C312.963 51.5417 312.361 51.843 311.558 52.0438C310.755 52.2447 309.15 52.3451 306.842 52.3451H299.518L318.28 26.332V25.0264H292.996L292.093 33.8648H293.799C295.003 31.6552 295.906 30.0482 296.608 29.1443C297.311 28.2403 298.013 27.6377 298.515 27.4368C299.016 27.236 299.518 27.0351 300.12 26.9347C300.722 26.8342 301.625 26.8342 302.929 26.8342H309.25L290.488 52.8473V54.153H317.979L318.983 44.3102H317.377Z" fill="#ABD8F1"/>
<path d="M381.191 26.8342C379.385 25.629 376.475 25.0264 372.763 25.0264H356.709V26.6334C357.01 26.6334 357.512 26.7338 358.114 26.8342C358.716 26.9347 359.218 27.1355 359.619 27.236C360.221 27.4368 360.522 27.7382 360.723 28.1399C360.924 28.5417 360.923 28.9434 360.923 29.3451V49.8342C360.923 50.4368 360.823 50.8386 360.623 51.1399C360.422 51.4412 360.121 51.7425 359.519 51.9434C359.218 52.0438 358.816 52.1443 358.114 52.2447C357.412 52.3451 356.91 52.3451 356.509 52.4456V54.153H372.261V52.546C371.86 52.546 371.358 52.4456 370.756 52.3451C370.154 52.2447 369.653 52.1443 369.452 52.0438C368.95 51.843 368.549 51.5417 368.348 51.1399C368.148 50.7382 368.047 50.3364 368.047 49.8342V41.6989H370.455C372.462 41.6989 374.168 41.498 375.773 41.1967C377.378 40.8954 378.783 40.2927 379.987 39.5897C381.191 38.8866 382.094 37.8823 382.796 36.677C383.499 35.4718 383.8 34.0657 383.8 32.4587C384 29.8473 382.997 28.0395 381.191 26.8342ZM374.268 38.1836C373.064 39.1879 371.358 39.6901 369.151 39.6901H368.248V26.9347H369.954C372.161 26.9347 373.766 27.4368 374.669 28.5417C375.572 29.6465 375.974 31.2534 375.974 33.463C375.974 35.4718 375.372 37.0788 374.268 38.1836Z" fill="#ABD8F1"/>
<path d="M24.8035 76.4491V77.7547C25.1045 77.7547 25.5058 77.8552 26.0075 77.9556C26.5092 78.0561 26.9105 78.1565 27.2115 78.3574C27.6128 78.5582 27.9138 78.7591 28.1145 79.0604C28.2148 79.3617 28.3152 79.663 28.3152 80.0648V97.0386C28.3152 97.4403 28.2148 97.8421 28.1145 98.1434C27.9138 98.4447 27.7132 98.6456 27.3118 98.8465C27.1112 98.9469 26.7098 99.0473 26.2081 99.0473C25.7065 99.0473 25.2048 99.1478 24.9038 99.1478V100.453H37.8469V99.1478C37.4456 99.1478 36.9439 99.0473 36.5426 98.9469C36.1413 98.8465 35.7399 98.746 35.5393 98.6456C35.1379 98.4447 34.8369 98.2438 34.6362 97.9425C34.4356 97.6412 34.4356 97.3399 34.4356 96.9382V89.0037H36.8436C37.5459 89.0037 38.1479 89.1041 38.6496 89.305C39.1513 89.5058 39.5526 89.7067 39.8536 90.1085C40.0543 90.3093 40.3553 90.8115 40.6563 91.5146C40.9573 92.2176 41.158 92.8203 41.158 93.3224H42.4623V83.2788H41.0576C40.9573 83.7809 40.857 84.2831 40.556 84.9862C40.255 85.6892 40.0543 86.091 39.7533 86.3923C39.352 86.794 38.9506 87.0954 38.4489 87.1958C37.9473 87.3967 37.3453 87.3967 36.6429 87.3967H34.2349V77.9556H38.0476C38.5493 77.9556 39.051 77.9556 39.653 77.9556C40.255 77.9556 40.6563 78.0561 40.9573 78.0561C41.6597 78.1565 42.4623 78.7591 43.265 79.7635C44.0677 80.7678 44.6697 81.7722 44.9707 82.7766H46.275V76.3486H24.8035V76.4491Z" fill="#ABD8F1"/>
<path d="M99.5514 93.0219C99.3507 93.6246 98.849 94.4281 98.247 95.5329C97.5447 96.6377 96.9427 97.5416 96.441 98.0438C96.2403 98.2447 95.9394 98.4455 95.538 98.546C95.1367 98.6464 94.635 98.7468 94.2337 98.7468C93.8323 98.8473 93.3306 98.8473 92.829 98.8473C92.227 98.8473 91.8256 98.8473 91.4243 98.8473C90.6216 98.8473 89.9193 98.8473 89.4176 98.7468C88.9159 98.6464 88.5146 98.546 88.2136 98.3451C87.9126 98.1442 87.7119 97.8429 87.6116 97.3407C87.5113 96.939 87.4109 96.3364 87.4109 95.6333V88.7032H89.9193C90.6216 88.7032 91.1233 88.8036 91.7253 88.904C92.227 89.0045 92.6283 89.3058 93.0296 89.7075C93.2303 90.0089 93.5313 90.511 93.8323 91.2141C94.1333 91.9171 94.2337 92.5198 94.334 93.0219H95.6383V82.9783H94.334C94.2337 83.4805 94.1333 84.0831 93.8323 84.6857C93.5313 85.2883 93.3307 85.7905 93.0296 86.0918C92.6283 86.4936 92.1266 86.7949 91.625 86.8953C91.1233 86.9957 90.5213 87.0962 89.9193 87.0962H87.4109V77.856H90.9226C91.324 77.856 91.8256 77.856 92.4276 77.856C93.0296 77.856 93.5313 77.9564 93.8323 77.9564C94.635 78.1573 95.4377 78.6595 96.2403 79.5634C97.043 80.4674 97.645 81.3713 97.946 82.3757H99.2504V76.249H77.7788V77.5547C78.0798 77.5547 78.4812 77.6551 78.9828 77.7556C79.4845 77.856 79.8858 77.9564 80.1868 78.1573C80.6885 78.3582 80.9895 78.5591 81.0898 78.8604C81.1902 79.1617 81.2905 79.463 81.2905 79.8647V96.8385C81.2905 97.2403 81.1902 97.642 81.0898 97.9433C80.8892 98.2447 80.6885 98.4455 80.1868 98.6464C79.9862 98.7468 79.5848 98.8473 79.0832 98.8473C78.5815 98.8473 78.0798 98.9477 77.7788 98.9477V100.253H100.254L100.755 92.8211H99.5514V93.0219Z" fill="#ABD8F1"/>
<path d="M136.574 87.9986C136.574 84.0816 136.875 80.265 137.578 76.5488H132.561V77.8545C132.862 77.8545 133.263 77.9549 133.765 78.0554C134.267 78.1558 134.668 78.2563 134.969 78.4571C135.471 78.658 135.772 78.8589 135.872 79.1602C135.972 79.4615 136.073 79.7628 136.073 80.1646V97.1384C136.073 97.5401 135.972 97.9418 135.872 98.2432C135.671 98.5445 135.471 98.7453 134.969 98.9462C134.768 99.0466 134.467 99.0466 133.966 99.1471C133.464 99.2475 132.962 99.2475 132.561 99.2475V100.553H137.778C136.976 96.4353 136.574 92.2169 136.574 87.9986Z" fill="#ABD8F1"/>
<path d="M323.7 99.0466C323.298 98.9462 322.997 98.8458 322.797 98.7453C322.195 98.5445 321.693 98.1427 321.091 97.6405C320.489 97.1384 320.088 96.6362 319.787 96.0335C318.884 94.8283 317.981 93.5226 317.078 92.1165C316.074 90.7104 314.971 89.003 313.566 86.9942C314.67 85.6886 315.573 84.6842 316.375 83.7803C317.178 82.8763 317.981 81.9724 318.783 81.0685C319.385 80.4659 319.887 79.8632 320.288 79.4615C320.79 78.9593 321.392 78.5576 322.094 78.2563C322.496 78.0554 322.797 77.9549 323.098 77.9549C323.399 77.8545 323.7 77.8545 324.101 77.8545V76.5488H314.77V77.8545C315.974 77.9549 316.676 78.0554 316.977 78.2563C317.278 78.4571 317.479 78.658 317.479 78.9593C317.479 79.2606 317.178 79.7628 316.676 80.5663C316.175 81.3698 314.77 82.9768 312.663 85.4877C311.961 84.3829 311.258 83.3785 310.757 82.575C310.155 81.6711 309.753 81.0685 309.452 80.5663C309.151 80.0641 308.951 79.6624 308.85 79.4615C308.75 79.2606 308.65 79.0597 308.65 78.8589C308.65 78.5576 308.951 78.2563 309.452 78.1558C309.954 77.9549 310.857 77.8545 311.961 77.8545V76.5488H297.312V77.8545C297.813 77.8545 298.215 77.9549 298.616 78.0554C299.017 78.1558 299.318 78.2563 299.619 78.3567C300.221 78.5576 300.723 78.9593 301.325 79.4615C301.827 79.9637 302.329 80.4659 302.63 81.0685C303.332 82.0728 304.235 83.3785 305.238 84.8851C306.242 86.3916 307.345 87.8982 308.349 89.4047C307.245 90.7104 306.242 91.9156 305.238 93.0204C304.235 94.1252 303.332 95.1296 302.529 96.0335C302.027 96.6362 301.425 97.2388 300.924 97.6405C300.422 98.1427 299.82 98.5445 299.218 98.8458C298.917 98.9462 298.616 99.0466 298.415 99.1471C298.114 99.2475 297.713 99.2475 297.211 99.2475V100.553H306.543V99.2475C306.041 99.2475 305.539 99.1471 305.138 99.0466C304.737 98.9462 304.436 98.8458 304.335 98.8458C304.135 98.7453 303.934 98.6449 303.934 98.5445C303.934 98.444 303.834 98.3436 303.834 98.1427C303.834 97.8414 304.135 97.2388 304.837 96.3349C305.439 95.4309 306.944 93.6231 309.352 90.9113C310.054 92.0161 310.757 93.0204 311.459 94.0248C312.161 95.0292 312.663 95.8327 313.064 96.5357C313.365 96.9375 313.566 97.3392 313.666 97.6405C313.867 97.9418 313.867 98.2432 313.867 98.3436C313.867 98.6449 313.666 98.8458 313.265 98.9462C312.864 99.1471 311.961 99.2475 310.556 99.348V100.654H325.205V99.348C324.502 99.1471 324.101 99.1471 323.7 99.0466Z" fill="#ABD8F1"/>
<path d="M381.192 82.7759C380.289 81.1689 379.084 79.8632 377.68 78.9593C376.275 78.0554 374.77 77.3523 373.165 77.051C371.559 76.6493 370.155 76.5488 368.75 76.5488H356.008V77.8545C356.208 77.8545 356.61 77.9549 357.111 77.9549C357.613 78.0554 358.014 78.1558 358.416 78.3567C358.817 78.5576 359.118 78.7584 359.319 79.1602C359.419 79.4615 359.519 79.8632 359.519 80.1646V97.1384C359.519 97.5401 359.419 97.9418 359.319 98.1427C359.118 98.444 358.917 98.6449 358.416 98.8458C358.215 98.9462 357.914 98.9462 357.312 99.0466C356.81 99.1471 356.309 99.1471 355.907 99.1471V100.453H367.947C369.854 100.453 371.66 100.252 373.365 99.7497C375.071 99.2475 376.576 98.5445 377.981 97.6405C379.285 96.6362 380.389 95.4309 381.192 93.9244C381.994 92.4178 382.396 90.61 382.396 88.6012C382.496 86.3916 381.994 84.3829 381.192 82.7759ZM375.372 92.92C375.071 94.1252 374.67 95.2301 374.168 96.134C373.566 97.0379 372.864 97.741 371.961 98.2432C371.058 98.7453 369.954 98.9462 368.65 98.9462C368.048 98.9462 367.546 98.8458 367.145 98.7453C366.743 98.6449 366.442 98.444 366.141 98.1427C365.84 97.9418 365.74 97.6405 365.64 97.3392C365.539 97.0379 365.439 96.6362 365.439 96.2344V78.1558C365.64 78.1558 366.041 78.1558 366.543 78.1558C367.044 78.1558 367.446 78.1558 367.847 78.1558C369.051 78.1558 370.155 78.3567 371.158 78.9593C372.161 79.4615 372.964 80.1645 373.566 81.0685C374.268 81.9724 374.67 83.0772 375.071 84.3829C375.372 85.6886 375.573 87.1951 375.573 88.7017C375.673 90.3087 375.573 91.7148 375.372 92.92Z" fill="#ABD8F1"/>
<path d="M46.3747 139.222C45.9733 140.126 45.572 141.03 44.97 142.135C44.368 143.139 43.766 144.043 43.164 144.545C42.7626 144.947 42.1606 145.148 41.3579 145.248C40.5553 145.349 39.6522 145.449 38.7492 145.449C37.8462 145.449 37.0436 145.449 36.5419 145.349C36.0402 145.248 35.6389 145.148 35.3379 144.947C35.0369 144.746 34.8362 144.445 34.7359 144.043C34.6355 143.641 34.5352 143.039 34.5352 142.235V126.467C34.5352 126.065 34.6355 125.764 34.7359 125.462C34.8362 125.161 35.1372 124.96 35.6389 124.759C36.0402 124.659 36.4415 124.558 36.9432 124.458C37.4449 124.357 37.8462 124.357 38.2476 124.357V123.052H25.0034V124.357C25.3044 124.458 25.7058 124.458 26.2074 124.558C26.7091 124.659 27.1104 124.759 27.4114 124.96C27.9131 125.161 28.2141 125.362 28.3145 125.663C28.4148 125.964 28.5151 126.266 28.5151 126.667V143.641C28.5151 144.043 28.4148 144.445 28.3145 144.746C28.1138 145.047 27.9131 145.248 27.5118 145.449C27.3111 145.55 27.0101 145.55 26.5084 145.65C26.0068 145.75 25.5051 145.75 25.1038 145.851V147.157H47.1773L47.679 139.423H46.3747V139.222Z" fill="#ABD8F1"/>
<path d="M102.261 140.025C101.257 141.732 100.154 143.038 98.8492 143.942C97.6452 144.745 96.2405 145.247 94.6352 145.247C93.5315 145.247 92.5282 145.046 91.6251 144.645C90.7221 144.243 89.9195 143.64 89.3175 142.736C88.7154 141.933 88.2138 140.828 87.8124 139.522C87.4111 138.217 87.2104 136.509 87.2104 134.601C87.2104 131.186 87.7121 128.575 88.8158 126.767C89.9195 124.859 91.5248 123.955 93.6318 123.955C95.3375 123.955 96.7422 124.557 97.9462 125.863C99.1502 127.068 100.154 129.077 100.956 131.789H102.461L102.261 123.051H100.756L99.7522 123.955C98.9496 123.553 98.0466 123.151 96.9429 122.85C95.8392 122.549 94.6352 122.348 93.3308 122.348C91.5248 122.348 89.7188 122.649 88.1134 123.252C86.5081 123.854 85.1034 124.758 83.9997 125.863C82.7957 127.068 81.8927 128.374 81.2907 129.981C80.5884 131.588 80.2874 133.295 80.2874 135.204C80.2874 137.112 80.5884 138.819 81.2907 140.326C81.8927 141.933 82.7957 143.238 83.8994 144.243C85.0031 145.348 86.4078 146.151 87.9128 146.754C89.4178 147.356 91.1235 147.658 92.8292 147.658C94.3342 147.658 95.5382 147.457 96.6419 147.156C97.7456 146.854 98.6486 146.352 99.5516 145.749C100.354 145.147 101.057 144.544 101.659 143.741C102.261 142.937 102.863 142.033 103.364 141.029L102.261 140.025Z" fill="#ABD8F1"/>
<path d="M148.716 136.511C150.322 136.511 151.827 136.411 153.131 136.109C154.134 135.908 155.037 135.607 155.84 135.105C154.837 134.101 153.833 132.996 152.83 131.791C152.629 132.494 152.228 133.096 151.726 133.598C150.723 134.502 149.318 134.904 147.512 134.904H146.81V124.459H147.312C147.011 123.957 146.71 123.454 146.308 122.952H137.278V124.258C137.579 124.258 137.98 124.358 138.482 124.459C138.984 124.559 139.385 124.66 139.686 124.86C140.188 125.061 140.388 125.262 140.589 125.564C140.689 125.865 140.79 126.166 140.79 126.568V143.542C140.79 144.044 140.689 144.345 140.589 144.646C140.489 144.948 140.188 145.149 139.686 145.35C139.485 145.45 139.084 145.55 138.582 145.55C138.081 145.651 137.579 145.651 137.278 145.651V146.957H150.322V145.55C150.021 145.55 149.519 145.45 149.017 145.35C148.516 145.249 148.114 145.149 147.914 145.048C147.512 144.847 147.211 144.646 147.011 144.345C146.91 144.044 146.81 143.743 146.81 143.24V136.511H148.716Z" fill="#ABD8F1"/>
<path d="M270.02 138.819C269.518 139.823 269.016 140.828 268.515 141.732C267.913 142.636 267.411 143.54 266.709 144.343C266.408 144.745 265.906 145.046 265.204 145.147C264.501 145.347 263.197 145.347 261.291 145.347H255.27L270.822 123.854V122.85H261.692C261.391 123.352 261.09 123.854 260.689 124.356H263.398L247.846 145.85V146.854H270.321L271.123 138.719H270.02V138.819Z" fill="#ABD8F1"/>
<path d="M304.535 122.85V124.155C304.836 124.155 305.237 124.256 305.739 124.356C306.24 124.457 306.642 124.557 306.943 124.758C307.344 124.959 307.645 125.16 307.846 125.461C307.946 125.762 308.046 126.064 308.046 126.465V143.439C308.046 143.841 307.946 144.243 307.846 144.544C307.645 144.845 307.444 145.046 307.043 145.247C306.842 145.347 306.441 145.448 305.939 145.448C305.438 145.548 304.936 145.548 304.635 145.548V146.854H317.578V145.548C317.177 145.448 316.675 145.448 316.274 145.347C315.872 145.247 315.471 145.147 315.27 145.046C314.869 144.845 314.568 144.644 314.367 144.343C314.167 144.042 314.167 143.74 314.167 143.339V135.404H316.575C317.277 135.404 317.879 135.505 318.381 135.706C318.882 135.906 319.284 136.107 319.585 136.509C319.786 136.71 320.086 137.212 320.387 137.915C320.689 138.618 320.889 139.221 320.889 139.723H322.194V129.579H320.889C320.789 130.081 320.689 130.583 320.387 131.286C320.086 131.989 319.886 132.391 319.585 132.692C319.183 133.094 318.782 133.395 318.28 133.496C317.779 133.596 317.177 133.697 316.474 133.697H314.066V124.457H317.779C318.28 124.457 318.782 124.457 319.384 124.557C319.986 124.557 320.387 124.657 320.789 124.657C321.491 124.758 322.294 125.361 323.097 126.365C323.899 127.369 324.501 128.374 324.802 129.378H326.107V122.95H304.535V122.85Z" fill="#ABD8F1"/>
<path d="M381.391 139.422C381.19 140.024 380.689 140.828 380.087 141.933C379.384 143.037 378.782 143.941 378.281 144.443C378.08 144.644 377.779 144.845 377.378 144.946C376.976 145.046 376.575 145.147 376.073 145.147C375.672 145.247 375.17 145.247 374.568 145.247C374.067 145.247 373.565 145.247 373.164 145.247C372.361 145.247 371.659 145.247 371.157 145.147C370.655 145.046 370.254 144.946 369.953 144.745C369.652 144.544 369.451 144.142 369.351 143.74C369.251 143.339 369.15 142.736 369.15 142.033V135.103H371.659C372.361 135.103 372.863 135.203 373.465 135.304C373.966 135.404 374.368 135.706 374.769 136.107C374.97 136.409 375.271 136.911 375.572 137.614C375.873 138.317 376.073 138.919 376.073 139.422H377.378V129.378H376.073C375.973 129.88 375.873 130.483 375.572 131.085C375.271 131.688 375.07 132.19 374.769 132.492C374.368 132.893 373.866 133.195 373.364 133.395C372.863 133.496 372.261 133.596 371.659 133.596H369.15V124.457H372.662C373.063 124.457 373.565 124.457 374.167 124.457C374.769 124.457 375.271 124.557 375.572 124.557C376.374 124.758 377.177 125.26 377.98 126.164C378.782 127.068 379.384 128.072 379.685 128.976H380.99V122.85H359.719V124.155C360.02 124.155 360.421 124.256 360.923 124.356C361.424 124.457 361.826 124.557 362.127 124.758C362.628 124.959 362.929 125.16 363.03 125.461C363.13 125.762 363.23 126.064 363.23 126.465V143.439C363.23 143.841 363.13 144.243 363.03 144.544C362.929 144.845 362.628 145.046 362.127 145.247C361.926 145.347 361.525 145.448 361.023 145.448C360.521 145.548 360.02 145.548 359.719 145.548V146.854H382.194L382.595 139.422H381.391Z" fill="#ABD8F1"/>
<path d="M179.619 25.0264C178.114 25.629 176.709 26.2316 175.305 26.9347H177.412C178.014 26.9347 178.616 26.9347 179.318 27.0351C180.02 27.1355 180.522 27.1355 180.923 27.236C181.826 27.3364 182.729 28.0395 183.733 29.3451C184.736 30.6508 185.438 31.8561 185.84 32.9609H187.445V25.0264H179.619ZM181.124 33.2622C181.024 33.8648 180.823 34.5679 180.522 35.3713C180.221 36.1748 179.82 36.7775 179.519 37.0788C179.017 37.581 178.515 37.8823 177.913 38.0831C177.311 38.284 176.609 38.3844 175.806 38.3844H172.897V28.1399C170.388 29.4456 167.98 30.9521 165.673 32.5591V50.0351C165.673 50.5373 165.572 51.0395 165.372 51.3408C165.171 51.6421 164.87 51.9434 164.368 52.1443C164.067 52.2447 163.666 52.3451 162.964 52.4456C162.261 52.546 161.759 52.546 161.358 52.6465V54.153H177.01V52.546C176.509 52.4456 176.007 52.4456 175.405 52.3451C174.903 52.2447 174.502 52.1443 174.201 52.0438C173.699 51.843 173.298 51.5417 173.198 51.2403C172.997 50.939 172.897 50.4368 172.897 50.0351V40.3932H175.806C176.709 40.3932 177.412 40.4936 178.014 40.6945C178.616 40.8954 179.117 41.1967 179.519 41.6989C179.82 42.0002 180.121 42.6028 180.422 43.4063C180.823 44.3102 181.024 45.0133 181.024 45.6159H182.629V33.2622H181.124Z" fill="#155E8B"/>
<path d="M251.96 45.8175C250.756 47.9267 249.352 49.5337 247.847 50.538C246.342 51.5424 244.636 52.0446 242.729 52.0446C241.425 52.0446 240.221 51.8437 239.117 51.3415C238.014 50.8393 237.111 50.1363 236.308 49.0315C235.606 48.0271 235.004 46.7214 234.502 45.1144C234 43.5075 233.8 41.4987 233.8 39.1887C233.8 35.0708 234.502 31.9572 235.806 29.6472C236.007 29.3459 236.107 29.0446 236.308 28.8437C235.004 28.1406 233.699 27.4376 232.295 26.835C231.492 27.3371 230.689 27.9398 230.087 28.6428C228.683 30.0489 227.579 31.7564 226.776 33.6647C225.974 35.573 225.572 37.6821 225.572 39.8917C225.572 42.2018 225.974 44.2105 226.776 46.1188C227.579 48.0271 228.582 49.6341 229.987 50.9398C231.392 52.2454 232.997 53.2498 234.803 53.9529C236.609 54.6559 238.616 54.9572 240.823 54.9572C242.629 54.9572 244.134 54.7564 245.438 54.3546C246.743 53.9529 247.947 53.3502 249.051 52.5468C250.054 51.8437 250.957 51.0402 251.659 50.1363C252.462 49.2323 253.064 48.1275 253.666 46.9223L251.96 45.8175Z" fill="#155E8B"/>
<path d="M153.833 92.8204C153.432 93.7243 153.031 94.6283 152.429 95.7331C151.827 96.7374 151.225 97.5409 150.623 98.1435C150.221 98.5453 149.619 98.7462 148.817 98.8466C147.914 98.947 147.111 99.0475 146.208 99.0475C145.305 99.0475 144.603 99.0475 144.001 98.947C143.499 98.8466 143.098 98.7462 142.797 98.5453C142.496 98.3444 142.295 98.0431 142.195 97.6414C142.094 97.2396 142.094 96.637 142.094 95.8335V79.9645C142.094 79.5628 142.195 79.161 142.295 78.8597C142.496 78.5584 142.696 78.3575 143.198 78.1566C143.499 78.0562 144.001 77.9558 144.502 77.8553C145.004 77.7549 145.405 77.7549 145.807 77.7549V76.4492H137.68C137.078 80.1654 136.676 83.982 136.676 87.899C136.676 92.2178 137.078 96.3357 137.88 100.454H154.736L155.238 92.72H153.833V92.8204Z" fill="#155E8B"/>
<path d="M211.023 83.0781C210.321 81.5716 209.418 80.2659 208.214 79.1611C207.11 78.1567 205.706 77.2528 204.1 76.7506C202.495 76.148 200.89 75.8467 199.084 75.8467C197.277 75.8467 195.572 76.148 193.966 76.7506C192.361 77.3532 190.956 78.2572 189.853 79.362C188.649 80.4668 187.746 81.8729 187.043 83.4799C186.341 85.0869 186.04 86.8947 186.04 88.803C186.04 90.7113 186.341 92.4187 187.043 93.9253C187.746 95.4318 188.649 96.7375 189.853 97.8423C191.057 98.9471 192.361 99.7506 193.966 100.353C195.572 100.956 197.177 101.257 198.883 101.257C201.09 101.257 202.896 100.956 204.502 100.253C206.107 99.5497 207.411 98.6458 208.615 97.4406C209.719 96.3358 210.522 94.9297 211.124 93.3227C211.726 91.7157 212.027 90.1087 212.027 88.3008C212.027 86.3925 211.726 84.6851 211.023 83.0781ZM204.903 92.9209C204.702 94.2266 204.301 95.3314 203.799 96.4362C203.298 97.4406 202.696 98.2441 201.893 98.7462C201.09 99.3489 200.087 99.5497 198.983 99.5497C197.879 99.5497 196.876 99.2484 196.073 98.7462C195.271 98.1436 194.669 97.4406 194.167 96.4362C193.665 95.4318 193.264 94.2266 193.063 92.9209C192.863 91.6152 192.762 90.2091 192.762 88.7026C192.762 85.1873 193.264 82.4755 194.368 80.4668C195.471 78.5585 196.976 77.5541 198.983 77.5541C200.187 77.5541 201.191 77.8554 201.993 78.458C202.796 79.0607 203.398 79.8641 203.9 80.969C204.401 81.9733 204.702 83.1786 204.903 84.4842C205.104 85.7899 205.204 87.196 205.204 88.5017C205.304 90.1087 205.204 91.6152 204.903 92.9209Z" fill="#155E8B"/>
<path d="M264.401 77.9558C262.896 76.9514 260.589 76.4492 257.478 76.4492H244.234V77.7549C244.535 77.7549 244.836 77.8553 245.438 77.9558C245.94 78.0562 246.341 78.1566 246.742 78.3575C247.144 78.5584 247.445 78.7593 247.645 79.0606C247.746 79.3619 247.846 79.6632 247.846 80.0649V97.0387C247.846 97.5409 247.746 97.8422 247.645 98.1435C247.545 98.4449 247.244 98.6457 246.742 98.8466C246.542 98.947 246.14 99.0475 245.639 99.0475C245.137 99.1479 244.635 99.1479 244.334 99.1479V100.454H257.378V99.1479C256.977 99.1479 256.575 99.0475 256.074 98.947C255.572 98.8466 255.171 98.7462 254.97 98.6457C254.569 98.4449 254.268 98.244 254.067 97.9427C253.866 97.6414 253.866 97.34 253.866 96.8379V90.1086H255.773C257.378 90.1086 258.883 90.0082 260.187 89.7069C261.492 89.4056 262.696 89.0038 263.699 88.3007C264.702 87.6981 265.505 86.8946 266.007 85.8903C266.609 84.8859 266.809 83.7811 266.809 82.375C266.709 80.4667 265.906 78.9601 264.401 77.9558ZM258.582 87.2964C257.579 88.0999 256.174 88.6021 254.368 88.6021H253.666V78.0562H255.07C256.977 78.0562 258.281 78.458 258.983 79.3619C259.686 80.2658 260.087 81.5715 260.087 83.3793C260.087 85.1872 259.585 86.4929 258.582 87.2964Z" fill="#155E8B"/>
<path d="M157.445 124.359C155.94 123.355 153.633 122.853 150.522 122.853H146.308C146.609 123.355 146.91 123.857 147.311 124.359H148.214C150.02 124.359 151.325 124.761 152.127 125.665C152.83 126.569 153.231 127.874 153.231 129.682C153.231 130.486 153.131 131.189 152.93 131.791C153.934 132.896 154.937 134.001 155.94 135.106C156.241 135.005 156.442 134.805 156.743 134.704C157.746 134.101 158.449 133.298 159.051 132.294C159.653 131.289 159.853 130.184 159.853 128.778C159.653 126.87 158.95 125.363 157.445 124.359Z" fill="#155E8B"/>
<path d="M192.362 122.853V129.682H193.666C193.967 128.678 194.569 127.573 195.372 126.368C196.175 125.163 196.877 124.56 197.479 124.46C197.78 124.359 198.282 124.359 198.783 124.359C199.285 124.359 199.787 124.259 200.188 124.259H200.991V143.241C200.991 143.643 200.89 144.045 200.79 144.346C200.589 144.647 200.389 144.949 199.887 145.049C199.686 145.149 199.285 145.25 198.683 145.25C198.081 145.35 197.579 145.35 197.278 145.35V146.656H210.623V145.551C210.221 145.451 209.82 145.451 209.218 145.35C208.616 145.25 208.315 145.149 208.014 145.049C207.613 144.848 207.312 144.647 207.111 144.346C207.011 144.045 206.91 143.643 206.91 143.241V124.359H207.713C208.114 124.359 208.516 124.359 209.118 124.46C209.619 124.46 210.121 124.56 210.422 124.56C211.124 124.66 211.827 125.263 212.529 126.468C213.332 127.673 213.833 128.778 214.235 129.783H215.539V122.953H192.362V122.853Z" fill="#155E8B"/>
<path d="M249.953 122.853L249.251 130.184H250.655C251.659 128.377 252.461 127.071 252.963 126.267C253.565 125.464 254.067 125.062 254.568 124.861C254.97 124.66 255.471 124.56 255.873 124.46C256.374 124.359 257.077 124.359 258.18 124.359H260.689C260.99 123.857 261.291 123.355 261.692 122.853H249.953Z" fill="#155E8B"/>
<path d="M271.424 88.0001C271.424 100.756 267.913 112.708 261.692 122.852C261.391 123.354 261.09 123.856 260.689 124.358C248.749 143.039 227.779 155.393 203.899 155.393C185.036 155.393 167.98 147.66 155.739 135.105C154.735 134.101 153.732 132.996 152.729 131.791C150.722 129.48 148.816 126.97 147.21 124.358C146.909 123.856 146.608 123.354 146.207 122.852C142.093 116.122 139.184 108.59 137.679 100.454C136.876 96.4368 136.475 92.2185 136.475 87.8997C136.475 83.9827 136.776 80.1661 137.478 76.4499C140.588 58.2709 151.023 42.5023 165.572 32.4587C167.879 30.8517 170.287 29.3451 172.796 28.0394C173.598 27.6377 174.401 27.2359 175.204 26.8342C176.608 26.1311 178.113 25.5285 179.518 24.9259C187.043 22.0132 195.271 20.4062 203.899 20.4062C214.033 20.4062 223.665 22.6159 232.294 26.7338C233.699 27.3364 235.003 28.0394 236.307 28.7425C257.277 40.2927 271.424 62.4892 271.424 88.0001Z" stroke="#155E8B" stroke-width="3" stroke-miterlimit="10"/>
</g>
<defs>
<clipPath id="clip0_6289_163699">
<rect width="360" height="138" fill="white" transform="translate(24 19)"/>
</clipPath>
</defs>
</svg>
