<svg width="408" height="176" viewBox="0 0 408 176" fill="none" xmlns="http://www.w3.org/2000/svg">
<rect width="408" height="176" fill="white"/>
<path d="M176 53.0238C176 50.2521 178.315 48 181.164 48H208.87C221.744 48 232 57.9957 232 70.5032C232 70.5552 232 70.6072 232 70.6418C231.786 77.5886 228.492 83.7904 223.364 87.8787C228.635 91.9844 232 98.3248 232 105.479C232 105.531 232 105.583 232 105.635C231.626 118.004 221.477 128 208.567 128H181.164C178.315 128 176 125.748 176 122.976V53.0238ZM208.567 82.9935C215.69 82.9935 221.423 77.5366 221.69 70.4513C221.655 63.5045 216.01 58.0476 208.87 58.0476H186.31V82.9935H208.567ZM186.31 93.0238V117.97H208.567C215.69 117.97 221.423 112.513 221.69 105.427C221.655 98.4807 216.01 93.0238 208.87 93.0238H186.31Z" stroke="#003A51" stroke-width="3" stroke-linecap="round" stroke-linejoin="round"/>
</svg>
