<svg width="269" height="94" viewBox="0 0 269 94" fill="none" xmlns="http://www.w3.org/2000/svg">
<rect width="269" height="94" fill="#F1F1F1"/>
<rect width="248" height="36" transform="translate(11.5 58)" fill="white"/>
<path d="M11.5 58H13.5V94H11.5V58Z" fill="#1B77AF"/>
<path d="M48.9125 81.9625C48.8125 81.9625 48.7125 81.9125 48.6625 81.8625C48.5125 81.7125 48.5125 81.4625 48.6625 81.3125L53.9625 76.0125L48.6125 70.6625C48.4625 70.5125 48.4625 70.2625 48.6125 70.1125C48.7625 69.9625 49.0125 69.9625 49.1625 70.1125L54.7625 75.7125C54.8125 75.7625 54.8625 75.8625 54.8625 75.9625C54.8625 76.0625 54.8125 76.1625 54.7625 76.2125L49.1625 81.8625C49.0625 81.9625 48.9625 81.9625 48.9125 81.9625Z" fill="#323232"/>
<path d="M74.612 78.27C74.612 79.1567 74.29 79.8567 73.646 80.37C73.002 80.8833 72.1107 81.14 70.972 81.14C69.8707 81.14 68.9373 80.9533 68.172 80.58V78.9C68.592 79.0867 69.054 79.2593 69.558 79.418C70.0713 79.5673 70.5847 79.642 71.098 79.642C71.7047 79.642 72.1433 79.5253 72.414 79.292C72.694 79.0493 72.834 78.7413 72.834 78.368C72.834 77.9573 72.6567 77.6307 72.302 77.388C71.9473 77.136 71.4293 76.8653 70.748 76.576C70.3373 76.408 69.9407 76.2027 69.558 75.96C69.1847 75.708 68.8767 75.3953 68.634 75.022C68.4007 74.6393 68.284 74.1633 68.284 73.594C68.284 72.7447 68.5827 72.0773 69.18 71.592C69.7867 71.1067 70.594 70.864 71.602 70.864C72.1247 70.864 72.6193 70.92 73.086 71.032C73.562 71.144 74.0287 71.3027 74.486 71.508L73.912 72.95C73.492 72.7727 73.0907 72.6327 72.708 72.53C72.3347 72.4273 71.9473 72.376 71.546 72.376C71.0607 72.376 70.692 72.4833 70.44 72.698C70.188 72.9127 70.062 73.1973 70.062 73.552C70.062 73.8227 70.132 74.056 70.272 74.252C70.412 74.4387 70.6267 74.6113 70.916 74.77C71.2147 74.9287 71.5973 75.1107 72.064 75.316C72.6053 75.5493 73.0627 75.7967 73.436 76.058C73.8187 76.31 74.108 76.6133 74.304 76.968C74.5093 77.3133 74.612 77.7473 74.612 78.27ZM79.3833 73.272C80.4006 73.272 81.2033 73.5753 81.7913 74.182C82.3886 74.7887 82.6873 75.6333 82.6873 76.716V77.612H77.6753C77.6939 78.3027 77.8853 78.8393 78.2493 79.222C78.6133 79.5953 79.1173 79.782 79.7613 79.782C80.2466 79.782 80.6853 79.7353 81.0773 79.642C81.4693 79.5393 81.8706 79.3947 82.2813 79.208V80.622C81.9079 80.7993 81.5206 80.93 81.1193 81.014C80.7179 81.098 80.2373 81.14 79.6773 81.14C78.9306 81.14 78.2726 81 77.7033 80.72C77.1339 80.4307 76.6859 80.0013 76.3593 79.432C76.0419 78.8533 75.8833 78.13 75.8833 77.262C75.8833 75.9647 76.2006 74.9753 76.8353 74.294C77.4793 73.6127 78.3286 73.272 79.3833 73.272ZM79.3833 74.574C78.9073 74.574 78.5199 74.728 78.2213 75.036C77.9319 75.3347 77.7639 75.7827 77.7173 76.38H80.9793C80.9699 75.8573 80.8346 75.428 80.5733 75.092C80.3213 74.7467 79.9246 74.574 79.3833 74.574ZM87.532 81.14C86.4494 81.14 85.5907 80.8273 84.956 80.202C84.3307 79.5767 84.018 78.592 84.018 77.248C84.018 76.3147 84.172 75.5587 84.48 74.98C84.7974 74.392 85.2314 73.9627 85.782 73.692C86.3327 73.412 86.9627 73.272 87.672 73.272C88.1387 73.272 88.5587 73.3187 88.932 73.412C89.3147 73.5053 89.6367 73.6173 89.898 73.748L89.38 75.134C89.0814 75.022 88.7874 74.9287 88.498 74.854C88.2087 74.77 87.9334 74.728 87.672 74.728C86.44 74.728 85.824 75.5633 85.824 77.234C85.824 78.046 85.978 78.6573 86.286 79.068C86.6034 79.4787 87.056 79.684 87.644 79.684C88.064 79.684 88.4374 79.6327 88.764 79.53C89.1 79.4273 89.4127 79.2873 89.702 79.11V80.636C89.4127 80.8133 89.1 80.9393 88.764 81.014C88.428 81.098 88.0174 81.14 87.532 81.14ZM94.4197 79.726C94.6344 79.726 94.8444 79.7073 95.0497 79.67C95.2644 79.6233 95.4604 79.572 95.6377 79.516V80.832C95.451 80.9253 95.2084 81 94.9097 81.056C94.611 81.112 94.2984 81.14 93.9717 81.14C93.533 81.14 93.1364 81.07 92.7817 80.93C92.4364 80.79 92.161 80.5427 91.9557 80.188C91.7504 79.8333 91.6477 79.334 91.6477 78.69V74.742H90.6257V73.972L91.7457 73.356L92.3057 71.746H93.4117V73.412H95.5677V74.742H93.4117V78.676C93.4117 79.0307 93.505 79.2967 93.6917 79.474C93.8877 79.642 94.1304 79.726 94.4197 79.726ZM98.0492 70.486C98.3105 70.486 98.5392 70.556 98.7352 70.696C98.9312 70.8267 99.0292 71.0647 99.0292 71.41C99.0292 71.7553 98.9312 71.998 98.7352 72.138C98.5392 72.278 98.3105 72.348 98.0492 72.348C97.7785 72.348 97.5452 72.278 97.3492 72.138C97.1625 71.998 97.0692 71.7553 97.0692 71.41C97.0692 71.0647 97.1625 70.8267 97.3492 70.696C97.5452 70.556 97.7785 70.486 98.0492 70.486ZM98.9312 73.412V81H97.1672V73.412H98.9312ZM107.963 77.192C107.963 78.452 107.636 79.4273 106.983 80.118C106.329 80.7993 105.443 81.14 104.323 81.14C103.632 81.14 103.016 80.986 102.475 80.678C101.933 80.37 101.509 79.922 101.201 79.334C100.893 78.746 100.739 78.032 100.739 77.192C100.739 75.932 101.061 74.966 101.705 74.294C102.358 73.6127 103.245 73.272 104.365 73.272C105.065 73.272 105.685 73.426 106.227 73.734C106.768 74.0327 107.193 74.476 107.501 75.064C107.809 75.6427 107.963 76.352 107.963 77.192ZM102.545 77.192C102.545 77.9947 102.685 78.6153 102.965 79.054C103.254 79.4927 103.716 79.712 104.351 79.712C104.976 79.712 105.433 79.4927 105.723 79.054C106.012 78.6153 106.157 77.9947 106.157 77.192C106.157 76.3893 106.012 75.7733 105.723 75.344C105.433 74.9147 104.971 74.7 104.337 74.7C103.702 74.7 103.245 74.9147 102.965 75.344C102.685 75.7733 102.545 76.3893 102.545 77.192ZM113.846 73.272C114.696 73.272 115.358 73.4913 115.834 73.93C116.32 74.3687 116.562 75.078 116.562 76.058V81H114.798V76.408C114.798 75.8387 114.686 75.414 114.462 75.134C114.238 74.8447 113.884 74.7 113.398 74.7C112.689 74.7 112.204 74.924 111.942 75.372C111.681 75.82 111.55 76.4593 111.55 77.29V81H109.786V73.412H111.144L111.396 74.406H111.494C111.737 74.014 112.068 73.7293 112.488 73.552C112.918 73.3653 113.37 73.272 113.846 73.272ZM124.169 81H122.405V70.36H124.169V81ZM129.449 73.272C130.429 73.272 131.171 73.4867 131.675 73.916C132.188 74.3453 132.445 75.008 132.445 75.904V81H131.199L130.849 79.95H130.793C130.466 80.3607 130.121 80.664 129.757 80.86C129.393 81.0467 128.898 81.14 128.273 81.14C127.592 81.14 127.027 80.9487 126.579 80.566C126.131 80.1833 125.907 79.5907 125.907 78.788C125.907 78.004 126.192 77.416 126.761 77.024C127.34 76.632 128.212 76.4127 129.379 76.366L130.695 76.324V75.946C130.695 75.4607 130.578 75.1153 130.345 74.91C130.112 74.7047 129.785 74.602 129.365 74.602C128.982 74.602 128.614 74.658 128.259 74.77C127.914 74.8727 127.568 75.0033 127.223 75.162L126.663 73.93C127.036 73.734 127.461 73.5753 127.937 73.454C128.422 73.3327 128.926 73.272 129.449 73.272ZM130.695 77.416L129.771 77.444C128.996 77.472 128.46 77.6073 128.161 77.85C127.862 78.0833 127.713 78.4007 127.713 78.802C127.713 79.166 127.816 79.4273 128.021 79.586C128.236 79.7353 128.516 79.81 128.861 79.81C129.374 79.81 129.808 79.6653 130.163 79.376C130.518 79.0773 130.695 78.6387 130.695 78.06V77.416ZM136.419 70.36V72.88C136.419 73.1787 136.41 73.468 136.391 73.748C136.373 74.028 136.354 74.2473 136.335 74.406H136.419C136.625 74.0887 136.905 73.8227 137.259 73.608C137.614 73.384 138.076 73.272 138.645 73.272C139.523 73.272 140.232 73.6033 140.773 74.266C141.324 74.9287 141.599 75.904 141.599 77.192C141.599 78.4987 141.324 79.4833 140.773 80.146C140.223 80.8087 139.499 81.14 138.603 81.14C138.034 81.14 137.577 81.0373 137.231 80.832C136.895 80.6267 136.625 80.3887 136.419 80.118H136.293L135.971 81H134.655V70.36H136.419ZM138.141 74.7C137.507 74.7 137.063 74.8913 136.811 75.274C136.559 75.6567 136.429 76.2447 136.419 77.038V77.192C136.419 78.004 136.541 78.6247 136.783 79.054C137.035 79.4833 137.497 79.698 138.169 79.698C138.692 79.698 139.093 79.4833 139.373 79.054C139.653 78.6153 139.793 77.99 139.793 77.178C139.793 76.3473 139.649 75.7267 139.359 75.316C139.079 74.9053 138.673 74.7 138.141 74.7ZM146.471 73.272C147.488 73.272 148.291 73.5753 148.879 74.182C149.476 74.7887 149.775 75.6333 149.775 76.716V77.612H144.763C144.782 78.3027 144.973 78.8393 145.337 79.222C145.701 79.5953 146.205 79.782 146.849 79.782C147.334 79.782 147.773 79.7353 148.165 79.642C148.557 79.5393 148.958 79.3947 149.369 79.208V80.622C148.996 80.7993 148.608 80.93 148.207 81.014C147.806 81.098 147.325 81.14 146.765 81.14C146.018 81.14 145.36 81 144.791 80.72C144.222 80.4307 143.774 80.0013 143.447 79.432C143.13 78.8533 142.971 78.13 142.971 77.262C142.971 75.9647 143.288 74.9753 143.923 74.294C144.567 73.6127 145.416 73.272 146.471 73.272ZM146.471 74.574C145.995 74.574 145.608 74.728 145.309 75.036C145.02 75.3347 144.852 75.7827 144.805 76.38H148.067C148.058 75.8573 147.922 75.428 147.661 75.092C147.409 74.7467 147.012 74.574 146.471 74.574ZM153.318 81H151.554V70.36H153.318V81Z" fill="#1B77AF"/>
<path d="M16.5638 7.286C16.5638 7.96733 16.3631 8.51333 15.9618 8.924C15.5698 9.32533 15.0611 9.596 14.4358 9.736V9.778C15.2385 9.88067 15.8451 10.1327 16.2558 10.534C16.6665 10.9353 16.8718 11.4627 16.8718 12.116C16.8718 12.6947 16.7318 13.2127 16.4518 13.67C16.1718 14.1273 15.7378 14.4867 15.1498 14.748C14.5711 15.0093 13.8245 15.14 12.9098 15.14C12.3591 15.14 11.8505 15.0933 11.3838 15C10.9265 14.916 10.4925 14.7807 10.0818 14.594V13.04C10.5018 13.2547 10.9498 13.418 11.4258 13.53C11.9018 13.642 12.3498 13.698 12.7698 13.698C13.5818 13.698 14.1558 13.5533 14.4918 13.264C14.8278 12.9653 14.9958 12.5547 14.9958 12.032C14.9958 11.5373 14.7998 11.1687 14.4078 10.926C14.0158 10.6833 13.3625 10.562 12.4478 10.562H11.6078V9.148H12.4618C13.3485 9.148 13.9598 9.00333 14.2958 8.714C14.6318 8.42467 14.7998 8.05133 14.7998 7.594C14.7998 7.19267 14.6691 6.88 14.4078 6.656C14.1465 6.432 13.7545 6.32 13.2318 6.32C12.7278 6.32 12.2938 6.404 11.9298 6.572C11.5658 6.73067 11.2391 6.90333 10.9498 7.09L10.1098 5.872C10.4925 5.592 10.9451 5.354 11.4678 5.158C11.9905 4.962 12.6065 4.864 13.3158 4.864C14.3518 4.864 15.1498 5.08333 15.7098 5.522C16.2791 5.96067 16.5638 6.54867 16.5638 7.286ZM24.9675 15H18.1215V13.698L20.6695 11.122C21.1735 10.6087 21.5842 10.17 21.9015 9.806C22.2282 9.442 22.4662 9.10133 22.6155 8.784C22.7742 8.45733 22.8535 8.10733 22.8535 7.734C22.8535 7.27667 22.7229 6.936 22.4615 6.712C22.2095 6.47867 21.8642 6.362 21.4255 6.362C21.0055 6.362 20.6135 6.45067 20.2495 6.628C19.8855 6.796 19.5075 7.03867 19.1155 7.356L18.1495 6.194C18.5602 5.83933 19.0222 5.53133 19.5355 5.27C20.0582 4.99933 20.7209 4.864 21.5235 4.864C22.1675 4.864 22.7182 4.98067 23.1755 5.214C23.6422 5.438 24.0015 5.75533 24.2535 6.166C24.5055 6.56733 24.6315 7.02933 24.6315 7.552C24.6315 8.09333 24.5242 8.59267 24.3095 9.05C24.0949 9.498 23.7822 9.95067 23.3715 10.408C22.9702 10.856 22.4895 11.3413 21.9295 11.864L20.3475 13.39V13.474H24.9675V15ZM34.292 7.272C35.1786 7.272 35.8926 7.60333 36.434 8.266C36.9753 8.91933 37.246 9.89467 37.246 11.192C37.246 12.4893 36.966 13.474 36.406 14.146C35.8553 14.8087 35.1366 15.14 34.25 15.14C33.69 15.14 33.2373 15.0373 32.892 14.832C32.5466 14.6267 32.2713 14.3887 32.066 14.118H31.954C31.982 14.2953 32.0053 14.4867 32.024 14.692C32.052 14.8973 32.066 15.0933 32.066 15.28V18.36H30.302V7.412H31.73L31.982 8.42H32.066C32.2806 8.10267 32.5606 7.832 32.906 7.608C33.2513 7.384 33.7133 7.272 34.292 7.272ZM33.788 8.7C33.1626 8.7 32.7193 8.88667 32.458 9.26C32.206 9.63333 32.0753 10.198 32.066 10.954V11.178C32.066 11.99 32.1873 12.6153 32.43 13.054C32.682 13.4833 33.144 13.698 33.816 13.698C34.3666 13.698 34.7726 13.474 35.034 13.026C35.3046 12.5687 35.44 11.948 35.44 11.164C35.44 10.38 35.3046 9.77333 35.034 9.344C34.7726 8.91467 34.3573 8.7 33.788 8.7ZM40.4302 11.122L37.9242 7.412H39.9262L41.5782 9.988L43.2302 7.412H45.2322L42.6982 11.122L45.3582 15H43.3562L41.5782 12.242L39.8002 15H37.7982L40.4302 11.122Z" fill="#D51588"/>
<path d="M27.5 22V38" stroke="#D51588"/>
<rect opacity="0.4" x="11.5" y="38" width="32" height="56" fill="white"/>
<rect opacity="0.12" x="11.5" y="38" width="32" height="56" fill="#D51588"/>
<path opacity="0.5" d="M43.5 38L43.5 94" stroke="#D51588" stroke-dasharray="3 3"/>
<path opacity="0.5" d="M11.5 38L11.5 94" stroke="#D51588" stroke-dasharray="3 3"/>
</svg>
