<svg width="269" height="94" viewBox="0 0 269 94" fill="none" xmlns="http://www.w3.org/2000/svg">
<rect width="269" height="94" fill="#F1F1F1"/>
<rect width="248" height="36" transform="translate(10.5 58)" fill="white"/>
<path d="M10.5 58H12.5V94H10.5V58Z" fill="#1B77AF"/>
<path d="M71.9125 81.9625C71.8125 81.9625 71.7125 81.9125 71.6625 81.8625C71.5125 81.7125 71.5125 81.4625 71.6625 81.3125L76.9625 76.0125L71.6125 70.6625C71.4625 70.5125 71.4625 70.2625 71.6125 70.1125C71.7625 69.9625 72.0125 69.9625 72.1625 70.1125L77.7625 75.7125C77.8125 75.7625 77.8625 75.8625 77.8625 75.9625C77.8625 76.0625 77.8125 76.1625 77.7625 76.2125L72.1625 81.8625C72.0625 81.9625 71.9625 81.9625 71.9125 81.9625Z" fill="#323232"/>
<path d="M97.612 78.27C97.612 79.1567 97.29 79.8567 96.646 80.37C96.002 80.8833 95.1107 81.14 93.972 81.14C92.8707 81.14 91.9373 80.9533 91.172 80.58V78.9C91.592 79.0867 92.054 79.2593 92.558 79.418C93.0713 79.5673 93.5847 79.642 94.098 79.642C94.7047 79.642 95.1433 79.5253 95.414 79.292C95.694 79.0493 95.834 78.7413 95.834 78.368C95.834 77.9573 95.6567 77.6307 95.302 77.388C94.9473 77.136 94.4293 76.8653 93.748 76.576C93.3373 76.408 92.9407 76.2027 92.558 75.96C92.1847 75.708 91.8767 75.3953 91.634 75.022C91.4007 74.6393 91.284 74.1633 91.284 73.594C91.284 72.7447 91.5827 72.0773 92.18 71.592C92.7867 71.1067 93.594 70.864 94.602 70.864C95.1247 70.864 95.6193 70.92 96.086 71.032C96.562 71.144 97.0287 71.3027 97.486 71.508L96.912 72.95C96.492 72.7727 96.0907 72.6327 95.708 72.53C95.3347 72.4273 94.9473 72.376 94.546 72.376C94.0607 72.376 93.692 72.4833 93.44 72.698C93.188 72.9127 93.062 73.1973 93.062 73.552C93.062 73.8227 93.132 74.056 93.272 74.252C93.412 74.4387 93.6267 74.6113 93.916 74.77C94.2147 74.9287 94.5973 75.1107 95.064 75.316C95.6053 75.5493 96.0627 75.7967 96.436 76.058C96.8187 76.31 97.108 76.6133 97.304 76.968C97.5093 77.3133 97.612 77.7473 97.612 78.27ZM102.383 73.272C103.401 73.272 104.203 73.5753 104.791 74.182C105.389 74.7887 105.687 75.6333 105.687 76.716V77.612H100.675C100.694 78.3027 100.885 78.8393 101.249 79.222C101.613 79.5953 102.117 79.782 102.761 79.782C103.247 79.782 103.685 79.7353 104.077 79.642C104.469 79.5393 104.871 79.3947 105.281 79.208V80.622C104.908 80.7993 104.521 80.93 104.119 81.014C103.718 81.098 103.237 81.14 102.677 81.14C101.931 81.14 101.273 81 100.703 80.72C100.134 80.4307 99.6859 80.0013 99.3593 79.432C99.0419 78.8533 98.8833 78.13 98.8833 77.262C98.8833 75.9647 99.2006 74.9753 99.8353 74.294C100.479 73.6127 101.329 73.272 102.383 73.272ZM102.383 74.574C101.907 74.574 101.52 74.728 101.221 75.036C100.932 75.3347 100.764 75.7827 100.717 76.38H103.979C103.97 75.8573 103.835 75.428 103.573 75.092C103.321 74.7467 102.925 74.574 102.383 74.574ZM110.532 81.14C109.449 81.14 108.591 80.8273 107.956 80.202C107.331 79.5767 107.018 78.592 107.018 77.248C107.018 76.3147 107.172 75.5587 107.48 74.98C107.797 74.392 108.231 73.9627 108.782 73.692C109.333 73.412 109.963 73.272 110.672 73.272C111.139 73.272 111.559 73.3187 111.932 73.412C112.315 73.5053 112.637 73.6173 112.898 73.748L112.38 75.134C112.081 75.022 111.787 74.9287 111.498 74.854C111.209 74.77 110.933 74.728 110.672 74.728C109.44 74.728 108.824 75.5633 108.824 77.234C108.824 78.046 108.978 78.6573 109.286 79.068C109.603 79.4787 110.056 79.684 110.644 79.684C111.064 79.684 111.437 79.6327 111.764 79.53C112.1 79.4273 112.413 79.2873 112.702 79.11V80.636C112.413 80.8133 112.1 80.9393 111.764 81.014C111.428 81.098 111.017 81.14 110.532 81.14ZM117.42 79.726C117.634 79.726 117.844 79.7073 118.05 79.67C118.264 79.6233 118.46 79.572 118.638 79.516V80.832C118.451 80.9253 118.208 81 117.91 81.056C117.611 81.112 117.298 81.14 116.972 81.14C116.533 81.14 116.136 81.07 115.782 80.93C115.436 80.79 115.161 80.5427 114.956 80.188C114.75 79.8333 114.648 79.334 114.648 78.69V74.742H113.626V73.972L114.746 73.356L115.306 71.746H116.412V73.412H118.568V74.742H116.412V78.676C116.412 79.0307 116.505 79.2967 116.692 79.474C116.888 79.642 117.13 79.726 117.42 79.726ZM121.049 70.486C121.311 70.486 121.539 70.556 121.735 70.696C121.931 70.8267 122.029 71.0647 122.029 71.41C122.029 71.7553 121.931 71.998 121.735 72.138C121.539 72.278 121.311 72.348 121.049 72.348C120.779 72.348 120.545 72.278 120.349 72.138C120.163 71.998 120.069 71.7553 120.069 71.41C120.069 71.0647 120.163 70.8267 120.349 70.696C120.545 70.556 120.779 70.486 121.049 70.486ZM121.931 73.412V81H120.167V73.412H121.931ZM130.963 77.192C130.963 78.452 130.636 79.4273 129.983 80.118C129.329 80.7993 128.443 81.14 127.323 81.14C126.632 81.14 126.016 80.986 125.475 80.678C124.933 80.37 124.509 79.922 124.201 79.334C123.893 78.746 123.739 78.032 123.739 77.192C123.739 75.932 124.061 74.966 124.705 74.294C125.358 73.6127 126.245 73.272 127.365 73.272C128.065 73.272 128.685 73.426 129.227 73.734C129.768 74.0327 130.193 74.476 130.501 75.064C130.809 75.6427 130.963 76.352 130.963 77.192ZM125.545 77.192C125.545 77.9947 125.685 78.6153 125.965 79.054C126.254 79.4927 126.716 79.712 127.351 79.712C127.976 79.712 128.433 79.4927 128.723 79.054C129.012 78.6153 129.157 77.9947 129.157 77.192C129.157 76.3893 129.012 75.7733 128.723 75.344C128.433 74.9147 127.971 74.7 127.337 74.7C126.702 74.7 126.245 74.9147 125.965 75.344C125.685 75.7733 125.545 76.3893 125.545 77.192ZM136.846 73.272C137.696 73.272 138.358 73.4913 138.834 73.93C139.32 74.3687 139.562 75.078 139.562 76.058V81H137.798V76.408C137.798 75.8387 137.686 75.414 137.462 75.134C137.238 74.8447 136.884 74.7 136.398 74.7C135.689 74.7 135.204 74.924 134.942 75.372C134.681 75.82 134.55 76.4593 134.55 77.29V81H132.786V73.412H134.144L134.396 74.406H134.494C134.737 74.014 135.068 73.7293 135.488 73.552C135.918 73.3653 136.37 73.272 136.846 73.272ZM147.169 81H145.405V70.36H147.169V81ZM152.449 73.272C153.429 73.272 154.171 73.4867 154.675 73.916C155.188 74.3453 155.445 75.008 155.445 75.904V81H154.199L153.849 79.95H153.793C153.466 80.3607 153.121 80.664 152.757 80.86C152.393 81.0467 151.898 81.14 151.273 81.14C150.592 81.14 150.027 80.9487 149.579 80.566C149.131 80.1833 148.907 79.5907 148.907 78.788C148.907 78.004 149.192 77.416 149.761 77.024C150.34 76.632 151.212 76.4127 152.379 76.366L153.695 76.324V75.946C153.695 75.4607 153.578 75.1153 153.345 74.91C153.112 74.7047 152.785 74.602 152.365 74.602C151.982 74.602 151.614 74.658 151.259 74.77C150.914 74.8727 150.568 75.0033 150.223 75.162L149.663 73.93C150.036 73.734 150.461 73.5753 150.937 73.454C151.422 73.3327 151.926 73.272 152.449 73.272ZM153.695 77.416L152.771 77.444C151.996 77.472 151.46 77.6073 151.161 77.85C150.862 78.0833 150.713 78.4007 150.713 78.802C150.713 79.166 150.816 79.4273 151.021 79.586C151.236 79.7353 151.516 79.81 151.861 79.81C152.374 79.81 152.808 79.6653 153.163 79.376C153.518 79.0773 153.695 78.6387 153.695 78.06V77.416ZM159.419 70.36V72.88C159.419 73.1787 159.41 73.468 159.391 73.748C159.373 74.028 159.354 74.2473 159.335 74.406H159.419C159.625 74.0887 159.905 73.8227 160.259 73.608C160.614 73.384 161.076 73.272 161.645 73.272C162.523 73.272 163.232 73.6033 163.773 74.266C164.324 74.9287 164.599 75.904 164.599 77.192C164.599 78.4987 164.324 79.4833 163.773 80.146C163.223 80.8087 162.499 81.14 161.603 81.14C161.034 81.14 160.577 81.0373 160.231 80.832C159.895 80.6267 159.625 80.3887 159.419 80.118H159.293L158.971 81H157.655V70.36H159.419ZM161.141 74.7C160.507 74.7 160.063 74.8913 159.811 75.274C159.559 75.6567 159.429 76.2447 159.419 77.038V77.192C159.419 78.004 159.541 78.6247 159.783 79.054C160.035 79.4833 160.497 79.698 161.169 79.698C161.692 79.698 162.093 79.4833 162.373 79.054C162.653 78.6153 162.793 77.99 162.793 77.178C162.793 76.3473 162.649 75.7267 162.359 75.316C162.079 74.9053 161.673 74.7 161.141 74.7ZM169.471 73.272C170.488 73.272 171.291 73.5753 171.879 74.182C172.476 74.7887 172.775 75.6333 172.775 76.716V77.612H167.763C167.782 78.3027 167.973 78.8393 168.337 79.222C168.701 79.5953 169.205 79.782 169.849 79.782C170.334 79.782 170.773 79.7353 171.165 79.642C171.557 79.5393 171.958 79.3947 172.369 79.208V80.622C171.996 80.7993 171.608 80.93 171.207 81.014C170.806 81.098 170.325 81.14 169.765 81.14C169.018 81.14 168.36 81 167.791 80.72C167.222 80.4307 166.774 80.0013 166.447 79.432C166.13 78.8533 165.971 78.13 165.971 77.262C165.971 75.9647 166.288 74.9753 166.923 74.294C167.567 73.6127 168.416 73.272 169.471 73.272ZM169.471 74.574C168.995 74.574 168.608 74.728 168.309 75.036C168.02 75.3347 167.852 75.7827 167.805 76.38H171.067C171.058 75.8573 170.922 75.428 170.661 75.092C170.409 74.7467 170.012 74.574 169.471 74.574ZM176.318 81H174.554V70.36H176.318V81Z" fill="#1B77AF"/>
<path d="M24.5818 8.714C25.2165 8.714 25.7765 8.83067 26.2618 9.064C26.7471 9.29733 27.1251 9.638 27.3958 10.086C27.6758 10.5247 27.8158 11.066 27.8158 11.71C27.8158 12.7833 27.4798 13.6233 26.8078 14.23C26.1451 14.8367 25.1838 15.14 23.9238 15.14C23.4011 15.14 22.9065 15.0933 22.4398 15C21.9825 14.9067 21.5905 14.7713 21.2638 14.594V13.026C21.6091 13.2127 22.0198 13.3667 22.4958 13.488C22.9811 13.6093 23.4431 13.67 23.8818 13.67C24.5445 13.67 25.0625 13.5253 25.4358 13.236C25.8185 12.9467 26.0098 12.494 26.0098 11.878C26.0098 11.3273 25.8325 10.9073 25.4778 10.618C25.1231 10.3193 24.5725 10.17 23.8258 10.17C23.5551 10.17 23.2705 10.1933 22.9718 10.24C22.6731 10.2867 22.4258 10.3333 22.2298 10.38L21.4738 9.96L21.8518 5.004H27.1158V6.544H23.4058L23.1958 8.854C23.3545 8.826 23.5411 8.798 23.7558 8.77C23.9798 8.73267 24.2551 8.714 24.5818 8.714ZM29.1215 10.744C29.1215 10.1653 29.1589 9.596 29.2335 9.036C29.3175 8.476 29.4622 7.94867 29.6675 7.454C29.8729 6.95 30.1575 6.50667 30.5215 6.124C30.8855 5.732 31.3475 5.42867 31.9075 5.214C32.4769 4.99 33.1629 4.878 33.9655 4.878C34.1615 4.878 34.3855 4.88733 34.6375 4.906C34.8895 4.92467 35.0995 4.95267 35.2675 4.99V6.446C34.9035 6.34333 34.5022 6.292 34.0635 6.292C33.2235 6.292 32.5702 6.446 32.1035 6.754C31.6369 7.05267 31.3102 7.468 31.1235 8C30.9369 8.52267 30.8249 9.11067 30.7875 9.764H30.8715C31.0675 9.43733 31.3475 9.162 31.7115 8.938C32.0755 8.70467 32.5469 8.588 33.1255 8.588C33.9935 8.588 34.6889 8.85867 35.2115 9.4C35.7342 9.94133 35.9955 10.7113 35.9955 11.71C35.9955 12.7833 35.6969 13.6233 35.0995 14.23C34.5022 14.8367 33.6949 15.14 32.6775 15.14C32.0149 15.14 31.4129 14.9813 30.8715 14.664C30.3395 14.3467 29.9149 13.866 29.5975 13.222C29.2802 12.5687 29.1215 11.7427 29.1215 10.744ZM32.6495 13.698C33.1255 13.698 33.5129 13.5393 33.8115 13.222C34.1102 12.8953 34.2595 12.396 34.2595 11.724C34.2595 11.1827 34.1289 10.758 33.8675 10.45C33.6062 10.1327 33.2142 9.974 32.6915 9.974C32.3275 9.974 32.0102 10.0533 31.7395 10.212C31.4782 10.3613 31.2729 10.5573 31.1235 10.8C30.9742 11.0333 30.8995 11.276 30.8995 11.528C30.8995 11.8733 30.9649 12.214 31.0955 12.55C31.2262 12.8767 31.4175 13.152 31.6695 13.376C31.9309 13.5907 32.2575 13.698 32.6495 13.698ZM45.292 7.272C46.1786 7.272 46.8926 7.60333 47.434 8.266C47.9753 8.91933 48.246 9.89467 48.246 11.192C48.246 12.4893 47.966 13.474 47.406 14.146C46.8553 14.8087 46.1366 15.14 45.25 15.14C44.69 15.14 44.2373 15.0373 43.892 14.832C43.5466 14.6267 43.2713 14.3887 43.066 14.118H42.954C42.982 14.2953 43.0053 14.4867 43.024 14.692C43.052 14.8973 43.066 15.0933 43.066 15.28V18.36H41.302V7.412H42.73L42.982 8.42H43.066C43.2806 8.10267 43.5606 7.832 43.906 7.608C44.2513 7.384 44.7133 7.272 45.292 7.272ZM44.788 8.7C44.1626 8.7 43.7193 8.88667 43.458 9.26C43.206 9.63333 43.0753 10.198 43.066 10.954V11.178C43.066 11.99 43.1873 12.6153 43.43 13.054C43.682 13.4833 44.144 13.698 44.816 13.698C45.3666 13.698 45.7726 13.474 46.034 13.026C46.3046 12.5687 46.44 11.948 46.44 11.164C46.44 10.38 46.3046 9.77333 46.034 9.344C45.7726 8.91467 45.3573 8.7 44.788 8.7ZM51.4302 11.122L48.9242 7.412H50.9262L52.5782 9.988L54.2302 7.412H56.2322L53.6982 11.122L56.3582 15H54.3562L52.5782 12.242L50.8002 15H48.7982L51.4302 11.122Z" fill="#D51588"/>
<path d="M38.5 22V38" stroke="#D51588"/>
<rect opacity="0.4" x="10.5" y="38" width="56" height="56" fill="white"/>
<rect opacity="0.12" x="10.5" y="38" width="56" height="56" fill="#D51588"/>
<path opacity="0.5" d="M66.5 38L66.5 94" stroke="#D51588" stroke-dasharray="3 3"/>
<path opacity="0.5" d="M10.5 38L10.5 94" stroke="#D51588" stroke-dasharray="3 3"/>
</svg>
