<svg width="412" height="304" viewBox="0 0 412 304" fill="none" xmlns="http://www.w3.org/2000/svg">
<rect width="412" height="304" fill="white"/>
<rect width="296" height="36" transform="translate(58 26)" fill="white"/>
<path d="M74.0125 47.3625C73.9125 47.3625 73.8125 47.3125 73.7625 47.2625L68.1125 41.6625C67.9625 41.5125 67.9625 41.2625 68.1125 41.1125C68.2625 40.9625 68.5125 40.9625 68.6625 41.1125L74.0125 46.4625L79.3125 41.1125C79.4625 40.9625 79.7125 40.9625 79.8625 41.1125C80.0125 41.2625 80.0125 41.5125 79.8625 41.6625L74.2625 47.2625C74.1625 47.3125 74.1125 47.3625 74.0125 47.3625Z" fill="#323232"/>
<path d="M99.282 49H97.812L92.464 40.698H92.408C92.4267 41.0247 92.45 41.4307 92.478 41.916C92.506 42.4013 92.52 42.9007 92.52 43.414V49H91.358V39.004H92.814L98.148 47.278H98.204C98.1947 47.1287 98.1807 46.9047 98.162 46.606C98.1527 46.3073 98.1387 45.9853 98.12 45.64C98.1107 45.2853 98.106 44.954 98.106 44.646V39.004H99.282V49ZM108.351 45.234C108.351 46.4753 108.033 47.4367 107.399 48.118C106.773 48.7993 105.924 49.14 104.851 49.14C104.188 49.14 103.595 48.9907 103.073 48.692C102.559 48.384 102.153 47.9407 101.855 47.362C101.556 46.774 101.407 46.0647 101.407 45.234C101.407 43.9927 101.715 43.036 102.331 42.364C102.956 41.692 103.81 41.356 104.893 41.356C105.565 41.356 106.162 41.51 106.685 41.818C107.207 42.1167 107.613 42.5553 107.903 43.134C108.201 43.7033 108.351 44.4033 108.351 45.234ZM102.681 45.234C102.681 46.1207 102.853 46.8253 103.199 47.348C103.553 47.8613 104.113 48.118 104.879 48.118C105.635 48.118 106.19 47.8613 106.545 47.348C106.899 46.8253 107.077 46.1207 107.077 45.234C107.077 44.3473 106.899 43.652 106.545 43.148C106.19 42.644 105.63 42.392 104.865 42.392C104.099 42.392 103.544 42.644 103.199 43.148C102.853 43.652 102.681 44.3473 102.681 45.234ZM113.803 41.356C113.943 41.356 114.093 41.3653 114.251 41.384C114.41 41.3933 114.555 41.412 114.685 41.44L114.531 42.574C114.41 42.546 114.275 42.5227 114.125 42.504C113.976 42.4853 113.841 42.476 113.719 42.476C113.337 42.476 112.977 42.5833 112.641 42.798C112.305 43.0033 112.035 43.2973 111.829 43.68C111.633 44.0533 111.535 44.492 111.535 44.996V49H110.303V41.496H111.311L111.451 42.868H111.507C111.741 42.4573 112.049 42.1027 112.431 41.804C112.823 41.5053 113.281 41.356 113.803 41.356ZM118.592 48.132C118.779 48.132 118.97 48.118 119.166 48.09C119.362 48.062 119.521 48.0247 119.642 47.978V48.916C119.512 48.9813 119.325 49.0327 119.082 49.07C118.84 49.1167 118.606 49.14 118.382 49.14C117.99 49.14 117.626 49.0747 117.29 48.944C116.964 48.804 116.698 48.566 116.492 48.23C116.287 47.894 116.184 47.4227 116.184 46.816V42.448H115.12V41.86L116.198 41.37L116.688 39.774H117.416V41.496H119.586V42.448H117.416V46.788C117.416 47.2453 117.524 47.586 117.738 47.81C117.962 48.0247 118.247 48.132 118.592 48.132ZM122.377 38.36V41.482C122.377 41.8553 122.354 42.2053 122.307 42.532H122.391C122.634 42.1493 122.96 41.86 123.371 41.664C123.791 41.468 124.244 41.37 124.729 41.37C125.634 41.37 126.316 41.5893 126.773 42.028C127.24 42.4573 127.473 43.1527 127.473 44.114V49H126.255V44.198C126.255 42.994 125.695 42.392 124.575 42.392C123.735 42.392 123.156 42.63 122.839 43.106C122.531 43.5727 122.377 44.2447 122.377 45.122V49H121.145V38.36H122.377ZM139.876 49L138.672 45.906H134.71L133.52 49H132.246L136.152 38.962H137.286L141.178 49H139.876ZM138.294 44.786L137.174 41.762C137.146 41.6873 137.099 41.552 137.034 41.356C136.969 41.16 136.903 40.9593 136.838 40.754C136.782 40.5393 136.735 40.376 136.698 40.264C136.623 40.5533 136.544 40.838 136.46 41.118C136.385 41.3887 136.32 41.6033 136.264 41.762L135.13 44.786H138.294ZM150.61 41.356C151.459 41.356 152.094 41.5753 152.514 42.014C152.934 42.4527 153.144 43.1527 153.144 44.114V49H151.926V44.17C151.926 42.9847 151.417 42.392 150.4 42.392C149.672 42.392 149.149 42.602 148.832 43.022C148.524 43.442 148.37 44.0533 148.37 44.856V49H147.152V44.17C147.152 42.9847 146.638 42.392 145.612 42.392C144.856 42.392 144.333 42.6253 144.044 43.092C143.754 43.5587 143.61 44.2307 143.61 45.108V49H142.378V41.496H143.372L143.554 42.518H143.624C143.857 42.126 144.17 41.8367 144.562 41.65C144.963 41.454 145.388 41.356 145.836 41.356C147.012 41.356 147.777 41.776 148.132 42.616H148.202C148.454 42.1867 148.794 41.8693 149.224 41.664C149.653 41.4587 150.115 41.356 150.61 41.356ZM158.359 41.356C158.994 41.356 159.545 41.496 160.011 41.776C160.478 42.056 160.833 42.4527 161.075 42.966C161.327 43.47 161.453 44.0627 161.453 44.744V45.486H156.315C156.334 46.3353 156.549 46.984 156.959 47.432C157.379 47.8707 157.963 48.09 158.709 48.09C159.185 48.09 159.605 48.048 159.969 47.964C160.343 47.8707 160.725 47.74 161.117 47.572V48.65C160.735 48.818 160.357 48.9393 159.983 49.014C159.61 49.098 159.167 49.14 158.653 49.14C157.935 49.14 157.305 48.9953 156.763 48.706C156.222 48.4167 155.797 47.9873 155.489 47.418C155.191 46.8487 155.041 46.144 155.041 45.304C155.041 44.4827 155.177 43.778 155.447 43.19C155.727 42.602 156.115 42.1493 156.609 41.832C157.113 41.5147 157.697 41.356 158.359 41.356ZM158.345 42.364C157.757 42.364 157.291 42.5553 156.945 42.938C156.609 43.3113 156.409 43.834 156.343 44.506H160.165C160.156 43.8713 160.007 43.358 159.717 42.966C159.428 42.5647 158.971 42.364 158.345 42.364ZM166.864 41.356C167.004 41.356 167.153 41.3653 167.312 41.384C167.47 41.3933 167.615 41.412 167.746 41.44L167.592 42.574C167.47 42.546 167.335 42.5227 167.186 42.504C167.036 42.4853 166.901 42.476 166.78 42.476C166.397 42.476 166.038 42.5833 165.702 42.798C165.366 43.0033 165.095 43.2973 164.89 43.68C164.694 44.0533 164.596 44.492 164.596 44.996V49H163.364V41.496H164.372L164.512 42.868H164.568C164.801 42.4573 165.109 42.1027 165.492 41.804C165.884 41.5053 166.341 41.356 166.864 41.356ZM169.777 38.682C169.964 38.682 170.127 38.7473 170.267 38.878C170.416 38.9993 170.491 39.1953 170.491 39.466C170.491 39.7367 170.416 39.9373 170.267 40.068C170.127 40.1893 169.964 40.25 169.777 40.25C169.572 40.25 169.399 40.1893 169.259 40.068C169.119 39.9373 169.049 39.7367 169.049 39.466C169.049 39.1953 169.119 38.9993 169.259 38.878C169.399 38.7473 169.572 38.682 169.777 38.682ZM170.379 41.496V49H169.147V41.496H170.379ZM175.766 49.14C175.094 49.14 174.502 49.0047 173.988 48.734C173.475 48.4633 173.069 48.0433 172.77 47.474C172.481 46.9047 172.336 46.1767 172.336 45.29C172.336 44.366 172.486 43.6147 172.784 43.036C173.092 42.4573 173.512 42.0327 174.044 41.762C174.576 41.4913 175.178 41.356 175.85 41.356C176.224 41.356 176.588 41.398 176.942 41.482C177.306 41.5567 177.6 41.65 177.824 41.762L177.446 42.784C177.222 42.7 176.961 42.6207 176.662 42.546C176.364 42.4713 176.084 42.434 175.822 42.434C174.348 42.434 173.61 43.3813 173.61 45.276C173.61 46.1813 173.788 46.8767 174.142 47.362C174.506 47.838 175.043 48.076 175.752 48.076C176.154 48.076 176.513 48.034 176.83 47.95C177.148 47.866 177.437 47.7633 177.698 47.642V48.734C177.446 48.8647 177.166 48.9627 176.858 49.028C176.56 49.1027 176.196 49.14 175.766 49.14ZM182.325 41.37C183.24 41.37 183.916 41.5707 184.355 41.972C184.794 42.3733 185.013 43.0127 185.013 43.89V49H184.117L183.879 47.936H183.823C183.496 48.3467 183.151 48.65 182.787 48.846C182.423 49.042 181.928 49.14 181.303 49.14C180.622 49.14 180.057 48.9627 179.609 48.608C179.161 48.244 178.937 47.6793 178.937 46.914C178.937 46.1673 179.231 45.5933 179.819 45.192C180.407 44.7813 181.312 44.5573 182.535 44.52L183.809 44.478V44.03C183.809 43.4047 183.674 42.9707 183.403 42.728C183.132 42.4853 182.75 42.364 182.255 42.364C181.863 42.364 181.49 42.4247 181.135 42.546C180.78 42.658 180.449 42.7887 180.141 42.938L179.763 42.014C180.09 41.8367 180.477 41.6873 180.925 41.566C181.373 41.4353 181.84 41.37 182.325 41.37ZM183.795 45.332L182.689 45.374C181.756 45.4113 181.107 45.5607 180.743 45.822C180.388 46.0833 180.211 46.452 180.211 46.928C180.211 47.348 180.337 47.656 180.589 47.852C180.85 48.048 181.182 48.146 181.583 48.146C182.208 48.146 182.731 47.9733 183.151 47.628C183.58 47.2733 183.795 46.732 183.795 46.004V45.332Z" fill="#323232"/>
<rect width="296" height="36" transform="translate(58 62)" fill="white"/>
<path d="M98.0125 83.3625C97.9125 83.3625 97.8125 83.3125 97.7625 83.2625L92.1125 77.6625C91.9625 77.5125 91.9625 77.2625 92.1125 77.1125C92.2625 76.9625 92.5125 76.9625 92.6625 77.1125L98.0125 82.4625L103.312 77.1125C103.462 76.9625 103.713 76.9625 103.863 77.1125C104.012 77.2625 104.012 77.5125 103.863 77.6625L98.2625 83.2625C98.1625 83.3125 98.1125 83.3625 98.0125 83.3625Z" fill="#323232"/>
<path d="M119.642 75.97C118.569 75.97 117.724 76.3293 117.108 77.048C116.492 77.7667 116.184 78.7513 116.184 80.002C116.184 81.2433 116.469 82.228 117.038 82.956C117.617 83.6747 118.48 84.034 119.628 84.034C120.057 84.034 120.468 83.9967 120.86 83.922C121.252 83.8473 121.639 83.754 122.022 83.642V84.734C121.649 84.874 121.261 84.9767 120.86 85.042C120.468 85.1073 119.997 85.14 119.446 85.14C118.429 85.14 117.579 84.93 116.898 84.51C116.217 84.09 115.703 83.4927 115.358 82.718C115.022 81.9433 114.854 81.0333 114.854 79.988C114.854 78.98 115.036 78.0933 115.4 77.328C115.773 76.5533 116.319 75.9513 117.038 75.522C117.757 75.0833 118.629 74.864 119.656 74.864C120.711 74.864 121.63 75.06 122.414 75.452L121.91 76.516C121.602 76.376 121.257 76.25 120.874 76.138C120.501 76.026 120.09 75.97 119.642 75.97ZM126.878 77.37C127.792 77.37 128.469 77.5707 128.908 77.972C129.346 78.3733 129.566 79.0127 129.566 79.89V85H128.67L128.432 83.936H128.376C128.049 84.3467 127.704 84.65 127.34 84.846C126.976 85.042 126.481 85.14 125.856 85.14C125.174 85.14 124.61 84.9627 124.162 84.608C123.714 84.244 123.49 83.6793 123.49 82.914C123.49 82.1673 123.784 81.5933 124.372 81.192C124.96 80.7813 125.865 80.5573 127.088 80.52L128.362 80.478V80.03C128.362 79.4047 128.226 78.9707 127.956 78.728C127.685 78.4853 127.302 78.364 126.808 78.364C126.416 78.364 126.042 78.4247 125.688 78.546C125.333 78.658 125.002 78.7887 124.694 78.938L124.316 78.014C124.642 77.8367 125.03 77.6873 125.478 77.566C125.926 77.4353 126.392 77.37 126.878 77.37ZM128.348 81.332L127.242 81.374C126.308 81.4113 125.66 81.5607 125.296 81.822C124.941 82.0833 124.764 82.452 124.764 82.928C124.764 83.348 124.89 83.656 125.142 83.852C125.403 84.048 125.734 84.146 126.136 84.146C126.761 84.146 127.284 83.9733 127.704 83.628C128.133 83.2733 128.348 82.732 128.348 82.004V81.332ZM135.495 77.356C136.391 77.356 137.068 77.5753 137.525 78.014C137.983 78.4527 138.211 79.1527 138.211 80.114V85H136.993V80.198C136.993 78.994 136.433 78.392 135.313 78.392C134.483 78.392 133.909 78.6253 133.591 79.092C133.274 79.5587 133.115 80.2307 133.115 81.108V85H131.883V77.496H132.877L133.059 78.518H133.129C133.372 78.126 133.708 77.8367 134.137 77.65C134.567 77.454 135.019 77.356 135.495 77.356ZM143.38 77.37C144.294 77.37 144.971 77.5707 145.41 77.972C145.848 78.3733 146.068 79.0127 146.068 79.89V85H145.172L144.934 83.936H144.878C144.551 84.3467 144.206 84.65 143.842 84.846C143.478 85.042 142.983 85.14 142.358 85.14C141.676 85.14 141.112 84.9627 140.664 84.608C140.216 84.244 139.992 83.6793 139.992 82.914C139.992 82.1673 140.286 81.5933 140.874 81.192C141.462 80.7813 142.367 80.5573 143.59 80.52L144.864 80.478V80.03C144.864 79.4047 144.728 78.9707 144.458 78.728C144.187 78.4853 143.804 78.364 143.31 78.364C142.918 78.364 142.544 78.4247 142.19 78.546C141.835 78.658 141.504 78.7887 141.196 78.938L140.818 78.014C141.144 77.8367 141.532 77.6873 141.98 77.566C142.428 77.4353 142.894 77.37 143.38 77.37ZM144.85 81.332L143.744 81.374C142.81 81.4113 142.162 81.5607 141.798 81.822C141.443 82.0833 141.266 82.452 141.266 82.928C141.266 83.348 141.392 83.656 141.644 83.852C141.905 84.048 142.236 84.146 142.638 84.146C143.263 84.146 143.786 83.9733 144.206 83.628C144.635 83.2733 144.85 82.732 144.85 82.004V81.332ZM151.045 85.14C150.112 85.14 149.365 84.818 148.805 84.174C148.245 83.5207 147.965 82.55 147.965 81.262C147.965 79.974 148.245 79.0033 148.805 78.35C149.375 77.6873 150.126 77.356 151.059 77.356C151.638 77.356 152.109 77.4633 152.473 77.678C152.847 77.8927 153.15 78.154 153.383 78.462H153.467C153.449 78.3407 153.43 78.1633 153.411 77.93C153.393 77.6873 153.383 77.496 153.383 77.356V74.36H154.615V85H153.621L153.439 83.992H153.383C153.159 84.3093 152.861 84.58 152.487 84.804C152.114 85.028 151.633 85.14 151.045 85.14ZM151.241 84.118C152.035 84.118 152.59 83.9033 152.907 83.474C153.234 83.0353 153.397 82.3773 153.397 81.5V81.276C153.397 80.3427 153.243 79.6287 152.935 79.134C152.627 78.63 152.058 78.378 151.227 78.378C150.565 78.378 150.065 78.644 149.729 79.176C149.403 79.6987 149.239 80.4033 149.239 81.29C149.239 82.186 149.403 82.8813 149.729 83.376C150.065 83.8707 150.569 84.118 151.241 84.118ZM159.841 77.37C160.755 77.37 161.432 77.5707 161.871 77.972C162.309 78.3733 162.529 79.0127 162.529 79.89V85H161.633L161.395 83.936H161.339C161.012 84.3467 160.667 84.65 160.303 84.846C159.939 85.042 159.444 85.14 158.819 85.14C158.137 85.14 157.573 84.9627 157.125 84.608C156.677 84.244 156.453 83.6793 156.453 82.914C156.453 82.1673 156.747 81.5933 157.335 81.192C157.923 80.7813 158.828 80.5573 160.051 80.52L161.325 80.478V80.03C161.325 79.4047 161.189 78.9707 160.919 78.728C160.648 78.4853 160.265 78.364 159.771 78.364C159.379 78.364 159.005 78.4247 158.651 78.546C158.296 78.658 157.965 78.7887 157.657 78.938L157.279 78.014C157.605 77.8367 157.993 77.6873 158.441 77.566C158.889 77.4353 159.355 77.37 159.841 77.37ZM161.311 81.332L160.205 81.374C159.271 81.4113 158.623 81.5607 158.259 81.822C157.904 82.0833 157.727 82.452 157.727 82.928C157.727 83.348 157.853 83.656 158.105 83.852C158.366 84.048 158.697 84.146 159.099 84.146C159.724 84.146 160.247 83.9733 160.667 83.628C161.096 83.2733 161.311 82.732 161.311 82.004V81.332Z" fill="#323232"/>
<rect width="296" height="36" transform="translate(58 98)" fill="white"/>
<path d="M143.642 111.97C142.569 111.97 141.724 112.329 141.108 113.048C140.492 113.767 140.184 114.751 140.184 116.002C140.184 117.243 140.469 118.228 141.038 118.956C141.617 119.675 142.48 120.034 143.628 120.034C144.057 120.034 144.468 119.997 144.86 119.922C145.252 119.847 145.639 119.754 146.022 119.642V120.734C145.649 120.874 145.261 120.977 144.86 121.042C144.468 121.107 143.997 121.14 143.446 121.14C142.429 121.14 141.579 120.93 140.898 120.51C140.217 120.09 139.703 119.493 139.358 118.718C139.022 117.943 138.854 117.033 138.854 115.988C138.854 114.98 139.036 114.093 139.4 113.328C139.773 112.553 140.319 111.951 141.038 111.522C141.757 111.083 142.629 110.864 143.656 110.864C144.711 110.864 145.63 111.06 146.414 111.452L145.91 112.516C145.602 112.376 145.257 112.25 144.874 112.138C144.501 112.026 144.09 111.97 143.642 111.97ZM150.878 113.37C151.792 113.37 152.469 113.571 152.908 113.972C153.346 114.373 153.566 115.013 153.566 115.89V121H152.67L152.432 119.936H152.376C152.049 120.347 151.704 120.65 151.34 120.846C150.976 121.042 150.481 121.14 149.856 121.14C149.174 121.14 148.61 120.963 148.162 120.608C147.714 120.244 147.49 119.679 147.49 118.914C147.49 118.167 147.784 117.593 148.372 117.192C148.96 116.781 149.865 116.557 151.088 116.52L152.362 116.478V116.03C152.362 115.405 152.226 114.971 151.956 114.728C151.685 114.485 151.302 114.364 150.808 114.364C150.416 114.364 150.042 114.425 149.688 114.546C149.333 114.658 149.002 114.789 148.694 114.938L148.316 114.014C148.642 113.837 149.03 113.687 149.478 113.566C149.926 113.435 150.392 113.37 150.878 113.37ZM152.348 117.332L151.242 117.374C150.308 117.411 149.66 117.561 149.296 117.822C148.941 118.083 148.764 118.452 148.764 118.928C148.764 119.348 148.89 119.656 149.142 119.852C149.403 120.048 149.734 120.146 150.136 120.146C150.761 120.146 151.284 119.973 151.704 119.628C152.133 119.273 152.348 118.732 152.348 118.004V117.332ZM157.115 121H155.883V110.36H157.115V121ZM162.153 113.356C162.647 113.356 163.091 113.449 163.483 113.636C163.884 113.823 164.225 114.107 164.505 114.49H164.575L164.743 113.496H165.723V121.126C165.723 122.199 165.447 123.007 164.897 123.548C164.355 124.089 163.511 124.36 162.363 124.36C161.261 124.36 160.361 124.201 159.661 123.884V122.75C160.398 123.142 161.322 123.338 162.433 123.338C163.077 123.338 163.581 123.147 163.945 122.764C164.318 122.391 164.505 121.877 164.505 121.224V120.93C164.505 120.818 164.509 120.659 164.519 120.454C164.528 120.239 164.537 120.09 164.547 120.006H164.491C163.987 120.762 163.212 121.14 162.167 121.14C161.196 121.14 160.435 120.799 159.885 120.118C159.343 119.437 159.073 118.485 159.073 117.262C159.073 116.067 159.343 115.12 159.885 114.42C160.435 113.711 161.191 113.356 162.153 113.356ZM162.321 114.392C161.695 114.392 161.21 114.644 160.865 115.148C160.519 115.643 160.347 116.352 160.347 117.276C160.347 118.2 160.515 118.909 160.851 119.404C161.187 119.889 161.686 120.132 162.349 120.132C163.105 120.132 163.655 119.931 164.001 119.53C164.346 119.119 164.519 118.461 164.519 117.556V117.262C164.519 116.245 164.341 115.512 163.987 115.064C163.632 114.616 163.077 114.392 162.321 114.392ZM170.948 113.37C171.863 113.37 172.539 113.571 172.978 113.972C173.417 114.373 173.636 115.013 173.636 115.89V121H172.74L172.502 119.936H172.446C172.119 120.347 171.774 120.65 171.41 120.846C171.046 121.042 170.551 121.14 169.926 121.14C169.245 121.14 168.68 120.963 168.232 120.608C167.784 120.244 167.56 119.679 167.56 118.914C167.56 118.167 167.854 117.593 168.442 117.192C169.03 116.781 169.935 116.557 171.158 116.52L172.432 116.478V116.03C172.432 115.405 172.297 114.971 172.026 114.728C171.755 114.485 171.373 114.364 170.878 114.364C170.486 114.364 170.113 114.425 169.758 114.546C169.403 114.658 169.072 114.789 168.764 114.938L168.386 114.014C168.713 113.837 169.1 113.687 169.548 113.566C169.996 113.435 170.463 113.37 170.948 113.37ZM172.418 117.332L171.312 117.374C170.379 117.411 169.73 117.561 169.366 117.822C169.011 118.083 168.834 118.452 168.834 118.928C168.834 119.348 168.96 119.656 169.212 119.852C169.473 120.048 169.805 120.146 170.206 120.146C170.831 120.146 171.354 119.973 171.774 119.628C172.203 119.273 172.418 118.732 172.418 118.004V117.332ZM179.454 113.356C179.594 113.356 179.743 113.365 179.902 113.384C180.06 113.393 180.205 113.412 180.336 113.44L180.182 114.574C180.06 114.546 179.925 114.523 179.776 114.504C179.626 114.485 179.491 114.476 179.37 114.476C178.987 114.476 178.628 114.583 178.292 114.798C177.956 115.003 177.685 115.297 177.48 115.68C177.284 116.053 177.186 116.492 177.186 116.996V121H175.954V113.496H176.962L177.102 114.868H177.158C177.391 114.457 177.699 114.103 178.082 113.804C178.474 113.505 178.931 113.356 179.454 113.356ZM180.561 113.496H181.877L183.501 117.766C183.641 118.149 183.767 118.508 183.879 118.844C183.991 119.18 184.075 119.502 184.131 119.81H184.187C184.243 119.577 184.332 119.273 184.453 118.9C184.574 118.517 184.7 118.135 184.831 117.752L186.357 113.496H187.687L184.453 122.036C184.182 122.745 183.842 123.31 183.431 123.73C183.02 124.15 182.451 124.36 181.723 124.36C181.499 124.36 181.303 124.346 181.135 124.318C180.967 124.299 180.822 124.276 180.701 124.248V123.268C180.804 123.287 180.925 123.305 181.065 123.324C181.214 123.343 181.368 123.352 181.527 123.352C181.956 123.352 182.302 123.231 182.563 122.988C182.824 122.745 183.034 122.423 183.193 122.022L183.585 121.028L180.561 113.496Z" fill="#323232"/>
<rect width="296" height="36" transform="translate(58 134)" fill="white"/>
<path d="M144.944 157H139.358V147.004H144.944V148.11H140.618V151.232H144.692V152.324H140.618V155.894H144.944V157ZM149.629 157.14C148.696 157.14 147.949 156.818 147.389 156.174C146.829 155.521 146.549 154.55 146.549 153.262C146.549 151.974 146.829 151.003 147.389 150.35C147.959 149.687 148.71 149.356 149.643 149.356C150.222 149.356 150.693 149.463 151.057 149.678C151.431 149.893 151.734 150.154 151.967 150.462H152.051C152.033 150.341 152.014 150.163 151.995 149.93C151.977 149.687 151.967 149.496 151.967 149.356V146.36H153.199V157H152.205L152.023 155.992H151.967C151.743 156.309 151.445 156.58 151.071 156.804C150.698 157.028 150.217 157.14 149.629 157.14ZM149.825 156.118C150.619 156.118 151.174 155.903 151.491 155.474C151.818 155.035 151.981 154.377 151.981 153.5V153.276C151.981 152.343 151.827 151.629 151.519 151.134C151.211 150.63 150.642 150.378 149.811 150.378C149.149 150.378 148.649 150.644 148.313 151.176C147.987 151.699 147.823 152.403 147.823 153.29C147.823 154.186 147.987 154.881 148.313 155.376C148.649 155.871 149.153 156.118 149.825 156.118ZM163.815 149.356C164.664 149.356 165.299 149.575 165.719 150.014C166.139 150.453 166.349 151.153 166.349 152.114V157H165.131V152.17C165.131 150.985 164.622 150.392 163.605 150.392C162.877 150.392 162.354 150.602 162.037 151.022C161.729 151.442 161.575 152.053 161.575 152.856V157H160.357V152.17C160.357 150.985 159.843 150.392 158.817 150.392C158.061 150.392 157.538 150.625 157.249 151.092C156.959 151.559 156.815 152.231 156.815 153.108V157H155.583V149.496H156.577L156.759 150.518H156.829C157.062 150.126 157.375 149.837 157.767 149.65C158.168 149.454 158.593 149.356 159.041 149.356C160.217 149.356 160.982 149.776 161.337 150.616H161.407C161.659 150.187 161.999 149.869 162.429 149.664C162.858 149.459 163.32 149.356 163.815 149.356ZM175.191 153.234C175.191 154.475 174.873 155.437 174.239 156.118C173.613 156.799 172.764 157.14 171.691 157.14C171.028 157.14 170.435 156.991 169.913 156.692C169.399 156.384 168.993 155.941 168.695 155.362C168.396 154.774 168.247 154.065 168.247 153.234C168.247 151.993 168.555 151.036 169.171 150.364C169.796 149.692 170.65 149.356 171.733 149.356C172.405 149.356 173.002 149.51 173.525 149.818C174.047 150.117 174.453 150.555 174.743 151.134C175.041 151.703 175.191 152.403 175.191 153.234ZM169.521 153.234C169.521 154.121 169.693 154.825 170.039 155.348C170.393 155.861 170.953 156.118 171.719 156.118C172.475 156.118 173.03 155.861 173.385 155.348C173.739 154.825 173.917 154.121 173.917 153.234C173.917 152.347 173.739 151.652 173.385 151.148C173.03 150.644 172.47 150.392 171.705 150.392C170.939 150.392 170.384 150.644 170.039 151.148C169.693 151.652 169.521 152.347 169.521 153.234ZM180.755 149.356C181.651 149.356 182.328 149.575 182.785 150.014C183.242 150.453 183.471 151.153 183.471 152.114V157H182.253V152.198C182.253 150.994 181.693 150.392 180.573 150.392C179.742 150.392 179.168 150.625 178.851 151.092C178.534 151.559 178.375 152.231 178.375 153.108V157H177.143V149.496H178.137L178.319 150.518H178.389C178.632 150.126 178.968 149.837 179.397 149.65C179.826 149.454 180.279 149.356 180.755 149.356ZM188.303 156.132C188.49 156.132 188.681 156.118 188.877 156.09C189.073 156.062 189.232 156.025 189.353 155.978V156.916C189.223 156.981 189.036 157.033 188.793 157.07C188.551 157.117 188.317 157.14 188.093 157.14C187.701 157.14 187.337 157.075 187.001 156.944C186.675 156.804 186.409 156.566 186.203 156.23C185.998 155.894 185.895 155.423 185.895 154.816V150.448H184.831V149.86L185.909 149.37L186.399 147.774H187.127V149.496H189.297V150.448H187.127V154.788C187.127 155.245 187.235 155.586 187.449 155.81C187.673 156.025 187.958 156.132 188.303 156.132ZM197.38 153.234C197.38 154.475 197.063 155.437 196.428 156.118C195.803 156.799 194.953 157.14 193.88 157.14C193.217 157.14 192.625 156.991 192.102 156.692C191.589 156.384 191.183 155.941 190.884 155.362C190.585 154.774 190.436 154.065 190.436 153.234C190.436 151.993 190.744 151.036 191.36 150.364C191.985 149.692 192.839 149.356 193.922 149.356C194.594 149.356 195.191 149.51 195.714 149.818C196.237 150.117 196.643 150.555 196.932 151.134C197.231 151.703 197.38 152.403 197.38 153.234ZM191.71 153.234C191.71 154.121 191.883 154.825 192.228 155.348C192.583 155.861 193.143 156.118 193.908 156.118C194.664 156.118 195.219 155.861 195.574 155.348C195.929 154.825 196.106 154.121 196.106 153.234C196.106 152.347 195.929 151.652 195.574 151.148C195.219 150.644 194.659 150.392 193.894 150.392C193.129 150.392 192.573 150.644 192.228 151.148C191.883 151.652 191.71 152.347 191.71 153.234ZM202.945 149.356C203.841 149.356 204.517 149.575 204.975 150.014C205.432 150.453 205.661 151.153 205.661 152.114V157H204.443V152.198C204.443 150.994 203.883 150.392 202.763 150.392C201.932 150.392 201.358 150.625 201.041 151.092C200.723 151.559 200.565 152.231 200.565 153.108V157H199.333V149.496H200.327L200.509 150.518H200.579C200.821 150.126 201.157 149.837 201.587 149.65C202.016 149.454 202.469 149.356 202.945 149.356Z" fill="#323232"/>
<rect width="296" height="36" transform="translate(58 170)" fill="white"/>
<path d="M143.768 193L140.478 184.236H140.422C140.45 184.525 140.473 184.917 140.492 185.412C140.511 185.897 140.52 186.406 140.52 186.938V193H139.358V183.004H141.22L144.3 191.194H144.356L147.492 183.004H149.34V193H148.094V186.854C148.094 186.369 148.103 185.888 148.122 185.412C148.15 184.936 148.173 184.549 148.192 184.25H148.136L144.804 193H143.768ZM158.415 189.234C158.415 190.475 158.098 191.437 157.463 192.118C156.838 192.799 155.989 193.14 154.915 193.14C154.253 193.14 153.66 192.991 153.137 192.692C152.624 192.384 152.218 191.941 151.919 191.362C151.621 190.774 151.471 190.065 151.471 189.234C151.471 187.993 151.779 187.036 152.395 186.364C153.021 185.692 153.875 185.356 154.957 185.356C155.629 185.356 156.227 185.51 156.749 185.818C157.272 186.117 157.678 186.555 157.967 187.134C158.266 187.703 158.415 188.403 158.415 189.234ZM152.745 189.234C152.745 190.121 152.918 190.825 153.263 191.348C153.618 191.861 154.178 192.118 154.943 192.118C155.699 192.118 156.255 191.861 156.609 191.348C156.964 190.825 157.141 190.121 157.141 189.234C157.141 188.347 156.964 187.652 156.609 187.148C156.255 186.644 155.695 186.392 154.929 186.392C154.164 186.392 153.609 186.644 153.263 187.148C152.918 187.652 152.745 188.347 152.745 189.234ZM163.98 185.356C164.876 185.356 165.552 185.575 166.01 186.014C166.467 186.453 166.696 187.153 166.696 188.114V193H165.478V188.198C165.478 186.994 164.918 186.392 163.798 186.392C162.967 186.392 162.393 186.625 162.076 187.092C161.758 187.559 161.6 188.231 161.6 189.108V193H160.368V185.496H161.362L161.544 186.518H161.614C161.856 186.126 162.192 185.837 162.622 185.65C163.051 185.454 163.504 185.356 163.98 185.356ZM171.528 192.132C171.715 192.132 171.906 192.118 172.102 192.09C172.298 192.062 172.457 192.025 172.578 191.978V192.916C172.447 192.981 172.261 193.033 172.018 193.07C171.775 193.117 171.542 193.14 171.318 193.14C170.926 193.14 170.562 193.075 170.226 192.944C169.899 192.804 169.633 192.566 169.428 192.23C169.223 191.894 169.12 191.423 169.12 190.816V186.448H168.056V185.86L169.134 185.37L169.624 183.774H170.352V185.496H172.522V186.448H170.352V190.788C170.352 191.245 170.459 191.586 170.674 191.81C170.898 192.025 171.183 192.132 171.528 192.132ZM177.581 185.356C177.721 185.356 177.87 185.365 178.029 185.384C178.187 185.393 178.332 185.412 178.463 185.44L178.309 186.574C178.187 186.546 178.052 186.523 177.903 186.504C177.753 186.485 177.618 186.476 177.497 186.476C177.114 186.476 176.755 186.583 176.419 186.798C176.083 187.003 175.812 187.297 175.607 187.68C175.411 188.053 175.313 188.492 175.313 188.996V193H174.081V185.496H175.089L175.229 186.868H175.285C175.518 186.457 175.826 186.103 176.209 185.804C176.601 185.505 177.058 185.356 177.581 185.356ZM182.488 185.356C183.123 185.356 183.674 185.496 184.14 185.776C184.607 186.056 184.962 186.453 185.204 186.966C185.456 187.47 185.582 188.063 185.582 188.744V189.486H180.444C180.463 190.335 180.678 190.984 181.088 191.432C181.508 191.871 182.092 192.09 182.838 192.09C183.314 192.09 183.734 192.048 184.098 191.964C184.472 191.871 184.854 191.74 185.246 191.572V192.65C184.864 192.818 184.486 192.939 184.112 193.014C183.739 193.098 183.296 193.14 182.782 193.14C182.064 193.14 181.434 192.995 180.892 192.706C180.351 192.417 179.926 191.987 179.618 191.418C179.32 190.849 179.17 190.144 179.17 189.304C179.17 188.483 179.306 187.778 179.576 187.19C179.856 186.602 180.244 186.149 180.738 185.832C181.242 185.515 181.826 185.356 182.488 185.356ZM182.474 186.364C181.886 186.364 181.42 186.555 181.074 186.938C180.738 187.311 180.538 187.834 180.472 188.506H184.294C184.285 187.871 184.136 187.358 183.846 186.966C183.557 186.565 183.1 186.364 182.474 186.364ZM190.335 185.37C191.249 185.37 191.926 185.571 192.365 185.972C192.803 186.373 193.023 187.013 193.023 187.89V193H192.127L191.889 191.936H191.833C191.506 192.347 191.161 192.65 190.797 192.846C190.433 193.042 189.938 193.14 189.313 193.14C188.631 193.14 188.067 192.963 187.619 192.608C187.171 192.244 186.947 191.679 186.947 190.914C186.947 190.167 187.241 189.593 187.829 189.192C188.417 188.781 189.322 188.557 190.545 188.52L191.819 188.478V188.03C191.819 187.405 191.683 186.971 191.413 186.728C191.142 186.485 190.759 186.364 190.265 186.364C189.873 186.364 189.499 186.425 189.145 186.546C188.79 186.658 188.459 186.789 188.151 186.938L187.773 186.014C188.099 185.837 188.487 185.687 188.935 185.566C189.383 185.435 189.849 185.37 190.335 185.37ZM191.805 189.332L190.699 189.374C189.765 189.411 189.117 189.561 188.753 189.822C188.398 190.083 188.221 190.452 188.221 190.928C188.221 191.348 188.347 191.656 188.599 191.852C188.86 192.048 189.191 192.146 189.593 192.146C190.218 192.146 190.741 191.973 191.161 191.628C191.59 191.273 191.805 190.732 191.805 190.004V189.332ZM196.572 193H195.34V182.36H196.572V193Z" fill="#323232"/>
<rect width="296" height="36" transform="translate(58 206)" fill="white"/>
<path d="M142.522 229H141.262V220.11H138.14V219.004H145.63V220.11H142.522V229ZM152.509 225.234C152.509 226.475 152.192 227.437 151.557 228.118C150.932 228.799 150.082 229.14 149.009 229.14C148.346 229.14 147.754 228.991 147.231 228.692C146.718 228.384 146.312 227.941 146.013 227.362C145.714 226.774 145.565 226.065 145.565 225.234C145.565 223.993 145.873 223.036 146.489 222.364C147.114 221.692 147.968 221.356 149.051 221.356C149.723 221.356 150.32 221.51 150.843 221.818C151.366 222.117 151.772 222.555 152.061 223.134C152.36 223.703 152.509 224.403 152.509 225.234ZM146.839 225.234C146.839 226.121 147.012 226.825 147.357 227.348C147.712 227.861 148.272 228.118 149.037 228.118C149.793 228.118 150.348 227.861 150.703 227.348C151.058 226.825 151.235 226.121 151.235 225.234C151.235 224.347 151.058 223.652 150.703 223.148C150.348 222.644 149.788 222.392 149.023 222.392C148.258 222.392 147.702 222.644 147.357 223.148C147.012 223.652 146.839 224.347 146.839 225.234ZM157.961 221.356C158.101 221.356 158.251 221.365 158.409 221.384C158.568 221.393 158.713 221.412 158.843 221.44L158.689 222.574C158.568 222.546 158.433 222.523 158.283 222.504C158.134 222.485 157.999 222.476 157.877 222.476C157.495 222.476 157.135 222.583 156.799 222.798C156.463 223.003 156.193 223.297 155.987 223.68C155.791 224.053 155.693 224.492 155.693 224.996V229H154.461V221.496H155.469L155.609 222.868H155.665C155.899 222.457 156.207 222.103 156.589 221.804C156.981 221.505 157.439 221.356 157.961 221.356ZM166.495 225.234C166.495 226.475 166.178 227.437 165.543 228.118C164.918 228.799 164.069 229.14 162.995 229.14C162.333 229.14 161.74 228.991 161.217 228.692C160.704 228.384 160.298 227.941 159.999 227.362C159.701 226.774 159.551 226.065 159.551 225.234C159.551 223.993 159.859 223.036 160.475 222.364C161.101 221.692 161.955 221.356 163.037 221.356C163.709 221.356 164.307 221.51 164.829 221.818C165.352 222.117 165.758 222.555 166.047 223.134C166.346 223.703 166.495 224.403 166.495 225.234ZM160.825 225.234C160.825 226.121 160.998 226.825 161.343 227.348C161.698 227.861 162.258 228.118 163.023 228.118C163.779 228.118 164.335 227.861 164.689 227.348C165.044 226.825 165.221 226.121 165.221 225.234C165.221 224.347 165.044 223.652 164.689 223.148C164.335 222.644 163.775 222.392 163.009 222.392C162.244 222.392 161.689 222.644 161.343 223.148C160.998 223.652 160.825 224.347 160.825 225.234ZM172.06 221.356C172.956 221.356 173.632 221.575 174.09 222.014C174.547 222.453 174.776 223.153 174.776 224.114V229H173.558V224.198C173.558 222.994 172.998 222.392 171.878 222.392C171.047 222.392 170.473 222.625 170.156 223.092C169.838 223.559 169.68 224.231 169.68 225.108V229H168.448V221.496H169.442L169.624 222.518H169.694C169.936 222.126 170.272 221.837 170.702 221.65C171.131 221.454 171.584 221.356 172.06 221.356ZM179.608 228.132C179.795 228.132 179.986 228.118 180.182 228.09C180.378 228.062 180.537 228.025 180.658 227.978V228.916C180.527 228.981 180.341 229.033 180.098 229.07C179.855 229.117 179.622 229.14 179.398 229.14C179.006 229.14 178.642 229.075 178.306 228.944C177.979 228.804 177.713 228.566 177.508 228.23C177.303 227.894 177.2 227.423 177.2 226.816V222.448H176.136V221.86L177.214 221.37L177.704 219.774H178.432V221.496H180.602V222.448H178.432V226.788C178.432 227.245 178.539 227.586 178.754 227.81C178.978 228.025 179.263 228.132 179.608 228.132ZM188.685 225.234C188.685 226.475 188.367 227.437 187.733 228.118C187.107 228.799 186.258 229.14 185.185 229.14C184.522 229.14 183.929 228.991 183.407 228.692C182.893 228.384 182.487 227.941 182.189 227.362C181.89 226.774 181.741 226.065 181.741 225.234C181.741 223.993 182.049 223.036 182.665 222.364C183.29 221.692 184.144 221.356 185.227 221.356C185.899 221.356 186.496 221.51 187.019 221.818C187.541 222.117 187.947 222.555 188.237 223.134C188.535 223.703 188.685 224.403 188.685 225.234ZM183.015 225.234C183.015 226.121 183.187 226.825 183.533 227.348C183.887 227.861 184.447 228.118 185.213 228.118C185.969 228.118 186.524 227.861 186.879 227.348C187.233 226.825 187.411 226.121 187.411 225.234C187.411 224.347 187.233 223.652 186.879 223.148C186.524 222.644 185.964 222.392 185.199 222.392C184.433 222.392 183.878 222.644 183.533 223.148C183.187 223.652 183.015 224.347 183.015 225.234Z" fill="#323232"/>
<rect width="296" height="36" transform="translate(58 242)" fill="white"/>
<path d="M146.4 255.004L142.83 265H141.57L138 255.004H139.316L141.57 261.416C141.719 261.827 141.841 262.214 141.934 262.578C142.037 262.933 142.125 263.273 142.2 263.6C142.265 263.273 142.349 262.928 142.452 262.564C142.555 262.2 142.681 261.808 142.83 261.388L145.07 255.004H146.4ZM150.153 257.37C151.068 257.37 151.744 257.571 152.183 257.972C152.622 258.373 152.841 259.013 152.841 259.89V265H151.945L151.707 263.936H151.651C151.324 264.347 150.979 264.65 150.615 264.846C150.251 265.042 149.756 265.14 149.131 265.14C148.45 265.14 147.885 264.963 147.437 264.608C146.989 264.244 146.765 263.679 146.765 262.914C146.765 262.167 147.059 261.593 147.647 261.192C148.235 260.781 149.14 260.557 150.363 260.52L151.637 260.478V260.03C151.637 259.405 151.502 258.971 151.231 258.728C150.96 258.485 150.578 258.364 150.083 258.364C149.691 258.364 149.318 258.425 148.963 258.546C148.608 258.658 148.277 258.789 147.969 258.938L147.591 258.014C147.918 257.837 148.305 257.687 148.753 257.566C149.201 257.435 149.668 257.37 150.153 257.37ZM151.623 261.332L150.517 261.374C149.584 261.411 148.935 261.561 148.571 261.822C148.216 262.083 148.039 262.452 148.039 262.928C148.039 263.348 148.165 263.656 148.417 263.852C148.678 264.048 149.01 264.146 149.411 264.146C150.036 264.146 150.559 263.973 150.979 263.628C151.408 263.273 151.623 262.732 151.623 262.004V261.332ZM158.771 257.356C159.667 257.356 160.343 257.575 160.801 258.014C161.258 258.453 161.487 259.153 161.487 260.114V265H160.269V260.198C160.269 258.994 159.709 258.392 158.589 258.392C157.758 258.392 157.184 258.625 156.867 259.092C156.549 259.559 156.391 260.231 156.391 261.108V265H155.159V257.496H156.153L156.335 258.518H156.405C156.647 258.126 156.983 257.837 157.413 257.65C157.842 257.454 158.295 257.356 158.771 257.356ZM166.823 265.14C166.151 265.14 165.558 265.005 165.045 264.734C164.532 264.463 164.126 264.043 163.827 263.474C163.538 262.905 163.393 262.177 163.393 261.29C163.393 260.366 163.542 259.615 163.841 259.036C164.149 258.457 164.569 258.033 165.101 257.762C165.633 257.491 166.235 257.356 166.907 257.356C167.28 257.356 167.644 257.398 167.999 257.482C168.363 257.557 168.657 257.65 168.881 257.762L168.503 258.784C168.279 258.7 168.018 258.621 167.719 258.546C167.42 258.471 167.14 258.434 166.879 258.434C165.404 258.434 164.667 259.381 164.667 261.276C164.667 262.181 164.844 262.877 165.199 263.362C165.563 263.838 166.1 264.076 166.809 264.076C167.21 264.076 167.57 264.034 167.887 263.95C168.204 263.866 168.494 263.763 168.755 263.642V264.734C168.503 264.865 168.223 264.963 167.915 265.028C167.616 265.103 167.252 265.14 166.823 265.14ZM177.064 261.234C177.064 262.475 176.746 263.437 176.112 264.118C175.486 264.799 174.637 265.14 173.564 265.14C172.901 265.14 172.308 264.991 171.786 264.692C171.272 264.384 170.866 263.941 170.568 263.362C170.269 262.774 170.12 262.065 170.12 261.234C170.12 259.993 170.428 259.036 171.044 258.364C171.669 257.692 172.523 257.356 173.606 257.356C174.278 257.356 174.875 257.51 175.398 257.818C175.92 258.117 176.326 258.555 176.616 259.134C176.914 259.703 177.064 260.403 177.064 261.234ZM171.394 261.234C171.394 262.121 171.566 262.825 171.912 263.348C172.266 263.861 172.826 264.118 173.592 264.118C174.348 264.118 174.903 263.861 175.258 263.348C175.612 262.825 175.79 262.121 175.79 261.234C175.79 260.347 175.612 259.652 175.258 259.148C174.903 258.644 174.343 258.392 173.578 258.392C172.812 258.392 172.257 258.644 171.912 259.148C171.566 259.652 171.394 260.347 171.394 261.234ZM185.288 257.496V265H184.28L184.098 264.006H184.042C183.8 264.398 183.464 264.687 183.034 264.874C182.605 265.051 182.148 265.14 181.662 265.14C180.757 265.14 180.076 264.925 179.618 264.496C179.161 264.057 178.932 263.362 178.932 262.41V257.496H180.178V262.326C180.178 263.521 180.734 264.118 181.844 264.118C182.675 264.118 183.249 263.885 183.566 263.418C183.893 262.951 184.056 262.279 184.056 261.402V257.496H185.288ZM189.322 265L186.48 257.496H187.796L189.392 261.92C189.467 262.125 189.546 262.354 189.63 262.606C189.714 262.858 189.789 263.101 189.854 263.334C189.92 263.567 189.966 263.759 189.994 263.908H190.05C190.078 263.759 190.13 263.567 190.204 263.334C190.279 263.091 190.358 262.849 190.442 262.606C190.526 262.354 190.606 262.125 190.68 261.92L192.276 257.496H193.592L190.736 265H189.322ZM197.678 257.356C198.313 257.356 198.863 257.496 199.33 257.776C199.797 258.056 200.151 258.453 200.394 258.966C200.646 259.47 200.772 260.063 200.772 260.744V261.486H195.634C195.653 262.335 195.867 262.984 196.278 263.432C196.698 263.871 197.281 264.09 198.028 264.09C198.504 264.09 198.924 264.048 199.288 263.964C199.661 263.871 200.044 263.74 200.436 263.572V264.65C200.053 264.818 199.675 264.939 199.302 265.014C198.929 265.098 198.485 265.14 197.972 265.14C197.253 265.14 196.623 264.995 196.082 264.706C195.541 264.417 195.116 263.987 194.808 263.418C194.509 262.849 194.36 262.144 194.36 261.304C194.36 260.483 194.495 259.778 194.766 259.19C195.046 258.602 195.433 258.149 195.928 257.832C196.432 257.515 197.015 257.356 197.678 257.356ZM197.664 258.364C197.076 258.364 196.609 258.555 196.264 258.938C195.928 259.311 195.727 259.834 195.662 260.506H199.484C199.475 259.871 199.325 259.358 199.036 258.966C198.747 258.565 198.289 258.364 197.664 258.364ZM206.182 257.356C206.322 257.356 206.472 257.365 206.63 257.384C206.789 257.393 206.934 257.412 207.064 257.44L206.91 258.574C206.789 258.546 206.654 258.523 206.504 258.504C206.355 258.485 206.22 258.476 206.098 258.476C205.716 258.476 205.356 258.583 205.02 258.798C204.684 259.003 204.414 259.297 204.208 259.68C204.012 260.053 203.914 260.492 203.914 260.996V265H202.682V257.496H203.69L203.83 258.868H203.886C204.12 258.457 204.428 258.103 204.81 257.804C205.202 257.505 205.66 257.356 206.182 257.356Z" fill="#323232"/>
</svg>
