<svg width="904" height="152" viewBox="0 0 904 152" fill="none" xmlns="http://www.w3.org/2000/svg">
<rect width="904" height="152" fill="#F1F1F1"/>
<circle cx="222" cy="76" r="12" fill="#D51588"/>
<path d="M223.968 81H222.204V74.77C222.204 74.4713 222.209 74.154 222.218 73.818C222.227 73.482 222.241 73.1693 222.26 72.88C222.167 72.9733 222.05 73.0853 221.91 73.216C221.779 73.3467 221.635 73.4727 221.476 73.594L220.356 74.49L219.474 73.398L222.498 71.004H223.968V81Z" fill="white"/>
<path d="M234 76H258" stroke="#D51588"/>
<rect width="437" height="36" transform="translate(257 58)" fill="white"/>
<path d="M257 58H259V94H257V58Z" fill="#1B77AF"/>
<rect x="654" y="68" width="32" height="16" rx="8" fill="#1B77AF"/>
<g filter="url(#filter0_d_9722_663852)">
<circle cx="678" cy="76" r="7" fill="white"/>
</g>
<path d="M271 74.85C270.45 74.85 270 75.3 270 75.85C270 76.4 270.45 76.85 271 76.85C271.55 76.85 272 76.4 272 75.85C272.05 75.3 271.6 74.85 271 74.85Z" fill="#5E5E5E"/>
<path d="M275.4 74.85C274.85 74.85 274.4 75.3 274.4 75.85C274.4 76.4 274.85 76.85 275.4 76.85C275.95 76.85 276.4 76.4 276.4 75.85C276.45 75.3 276 74.85 275.4 74.85Z" fill="#5E5E5E"/>
<path d="M271 70.5C270.45 70.5 270 70.95 270 71.5C270 72.05 270.45 72.5 271 72.5C271.55 72.5 272 72.05 272 71.5C272 70.95 271.6 70.5 271 70.5Z" fill="#5E5E5E"/>
<path d="M275.4 72.55C275.95 72.55 276.4 72.1 276.4 71.55C276.4 71 275.95 70.55 275.4 70.55C274.85 70.55 274.4 71 274.4 71.55C274.4 72.1 274.85 72.55 275.4 72.55Z" fill="#5E5E5E"/>
<path d="M271 79.15C270.45 79.15 270 79.6 270 80.15C270 80.7 270.45 81.15 271 81.15C271.55 81.15 272 80.7 272 80.15C272.05 79.6 271.6 79.15 271 79.15Z" fill="#5E5E5E"/>
<path d="M275.4 79.15C274.85 79.15 274.4 79.6 274.4 80.15C274.4 80.7 274.85 81.15 275.4 81.15C275.95 81.15 276.4 80.7 276.4 80.15C276.45 79.6 276 79.15 275.4 79.15Z" fill="#5E5E5E"/>
<path d="M297.012 79.3625C296.912 79.3625 296.812 79.3125 296.762 79.2625L291.113 73.6625C290.962 73.5125 290.962 73.2625 291.113 73.1125C291.263 72.9625 291.512 72.9625 291.662 73.1125L297.012 78.4625L302.312 73.1125C302.462 72.9625 302.713 72.9625 302.863 73.1125C303.012 73.2625 303.012 73.5125 302.863 73.6625L297.262 79.2625C297.162 79.3125 297.112 79.3625 297.012 79.3625Z" fill="#323232"/>
<rect x="313" y="68" width="16" height="16" rx="4" fill="#1B77AF"/>
<path d="M319.512 81.202C319.412 81.202 319.312 81.152 319.262 81.102L315.113 76.952C314.962 76.802 314.962 76.552 315.113 76.402C315.263 76.252 315.512 76.252 315.662 76.402L319.512 80.252L326.312 71.152C326.413 71.002 326.663 70.952 326.812 71.052C326.962 71.152 327.012 71.402 326.912 71.552L319.812 81.052C319.762 81.152 319.662 81.202 319.512 81.202Z" fill="white"/>
<path d="M345 69C341.15 69 338 72.15 338 76C338 79.85 341.15 83 345 83C348.85 83 352 79.85 352 76C352 72.15 348.85 69 345 69ZM341.65 81.25V80.9C341.65 79.05 343.15 77.55 345 77.55C346.85 77.55 348.35 79.05 348.35 80.9V81.25C347.4 81.85 346.25 82.25 345 82.25C343.75 82.25 342.6 81.9 341.65 81.25ZM349.1 80.7C349 78.55 347.2 76.8 345 76.8C342.8 76.8 341 78.5 340.9 80.7C339.6 79.55 338.75 77.85 338.75 76C338.75 72.55 341.55 69.75 345 69.75C348.45 69.75 351.25 72.55 351.25 76C351.25 77.9 350.4 79.55 349.1 80.7Z" fill="black"/>
<path d="M345 71.2C343.65 71.2 342.6 72.3 342.6 73.6C342.6 74.9 343.7 76 345 76C346.35 76 347.4 74.9 347.4 73.6C347.4 72.3 346.35 71.2 345 71.2ZM345 75.3C344.1 75.3 343.35 74.55 343.35 73.65C343.35 72.75 344.1 72 345 72C345.9 72 346.65 72.75 346.65 73.65C346.65 74.55 345.9 75.3 345 75.3Z" fill="black"/>
<path d="M368.112 78.27C368.112 79.1567 367.79 79.8567 367.146 80.37C366.502 80.8833 365.611 81.14 364.472 81.14C363.371 81.14 362.437 80.9533 361.672 80.58V78.9C362.092 79.0867 362.554 79.2593 363.058 79.418C363.571 79.5673 364.085 79.642 364.598 79.642C365.205 79.642 365.643 79.5253 365.914 79.292C366.194 79.0493 366.334 78.7413 366.334 78.368C366.334 77.9573 366.157 77.6307 365.802 77.388C365.447 77.136 364.929 76.8653 364.248 76.576C363.837 76.408 363.441 76.2027 363.058 75.96C362.685 75.708 362.377 75.3953 362.134 75.022C361.901 74.6393 361.784 74.1633 361.784 73.594C361.784 72.7447 362.083 72.0773 362.68 71.592C363.287 71.1067 364.094 70.864 365.102 70.864C365.625 70.864 366.119 70.92 366.586 71.032C367.062 71.144 367.529 71.3027 367.986 71.508L367.412 72.95C366.992 72.7727 366.591 72.6327 366.208 72.53C365.835 72.4273 365.447 72.376 365.046 72.376C364.561 72.376 364.192 72.4833 363.94 72.698C363.688 72.9127 363.562 73.1973 363.562 73.552C363.562 73.8227 363.632 74.056 363.772 74.252C363.912 74.4387 364.127 74.6113 364.416 74.77C364.715 74.9287 365.097 75.1107 365.564 75.316C366.105 75.5493 366.563 75.7967 366.936 76.058C367.319 76.31 367.608 76.6133 367.804 76.968C368.009 77.3133 368.112 77.7473 368.112 78.27ZM372.883 73.272C373.901 73.272 374.703 73.5753 375.291 74.182C375.889 74.7887 376.187 75.6333 376.187 76.716V77.612H371.175C371.194 78.3027 371.385 78.8393 371.749 79.222C372.113 79.5953 372.617 79.782 373.261 79.782C373.747 79.782 374.185 79.7353 374.577 79.642C374.969 79.5393 375.371 79.3947 375.781 79.208V80.622C375.408 80.7993 375.021 80.93 374.619 81.014C374.218 81.098 373.737 81.14 373.177 81.14C372.431 81.14 371.773 81 371.203 80.72C370.634 80.4307 370.186 80.0013 369.859 79.432C369.542 78.8533 369.383 78.13 369.383 77.262C369.383 75.9647 369.701 74.9753 370.335 74.294C370.979 73.6127 371.829 73.272 372.883 73.272ZM372.883 74.574C372.407 74.574 372.02 74.728 371.721 75.036C371.432 75.3347 371.264 75.7827 371.217 76.38H374.479C374.47 75.8573 374.335 75.428 374.073 75.092C373.821 74.7467 373.425 74.574 372.883 74.574ZM381.032 81.14C379.949 81.14 379.091 80.8273 378.456 80.202C377.831 79.5767 377.518 78.592 377.518 77.248C377.518 76.3147 377.672 75.5587 377.98 74.98C378.297 74.392 378.731 73.9627 379.282 73.692C379.833 73.412 380.463 73.272 381.172 73.272C381.639 73.272 382.059 73.3187 382.432 73.412C382.815 73.5053 383.137 73.6173 383.398 73.748L382.88 75.134C382.581 75.022 382.287 74.9287 381.998 74.854C381.709 74.77 381.433 74.728 381.172 74.728C379.94 74.728 379.324 75.5633 379.324 77.234C379.324 78.046 379.478 78.6573 379.786 79.068C380.103 79.4787 380.556 79.684 381.144 79.684C381.564 79.684 381.937 79.6327 382.264 79.53C382.6 79.4273 382.913 79.2873 383.202 79.11V80.636C382.913 80.8133 382.6 80.9393 382.264 81.014C381.928 81.098 381.517 81.14 381.032 81.14ZM387.92 79.726C388.134 79.726 388.344 79.7073 388.55 79.67C388.764 79.6233 388.96 79.572 389.138 79.516V80.832C388.951 80.9253 388.708 81 388.41 81.056C388.111 81.112 387.798 81.14 387.472 81.14C387.033 81.14 386.636 81.07 386.282 80.93C385.936 80.79 385.661 80.5427 385.456 80.188C385.25 79.8333 385.148 79.334 385.148 78.69V74.742H384.126V73.972L385.246 73.356L385.806 71.746H386.912V73.412H389.068V74.742H386.912V78.676C386.912 79.0307 387.005 79.2967 387.192 79.474C387.388 79.642 387.63 79.726 387.92 79.726ZM391.549 70.486C391.811 70.486 392.039 70.556 392.235 70.696C392.431 70.8267 392.529 71.0647 392.529 71.41C392.529 71.7553 392.431 71.998 392.235 72.138C392.039 72.278 391.811 72.348 391.549 72.348C391.279 72.348 391.045 72.278 390.849 72.138C390.663 71.998 390.569 71.7553 390.569 71.41C390.569 71.0647 390.663 70.8267 390.849 70.696C391.045 70.556 391.279 70.486 391.549 70.486ZM392.431 73.412V81H390.667V73.412H392.431ZM401.463 77.192C401.463 78.452 401.136 79.4273 400.483 80.118C399.829 80.7993 398.943 81.14 397.823 81.14C397.132 81.14 396.516 80.986 395.975 80.678C395.433 80.37 395.009 79.922 394.701 79.334C394.393 78.746 394.239 78.032 394.239 77.192C394.239 75.932 394.561 74.966 395.205 74.294C395.858 73.6127 396.745 73.272 397.865 73.272C398.565 73.272 399.185 73.426 399.727 73.734C400.268 74.0327 400.693 74.476 401.001 75.064C401.309 75.6427 401.463 76.352 401.463 77.192ZM396.045 77.192C396.045 77.9947 396.185 78.6153 396.465 79.054C396.754 79.4927 397.216 79.712 397.851 79.712C398.476 79.712 398.933 79.4927 399.223 79.054C399.512 78.6153 399.657 77.9947 399.657 77.192C399.657 76.3893 399.512 75.7733 399.223 75.344C398.933 74.9147 398.471 74.7 397.837 74.7C397.202 74.7 396.745 74.9147 396.465 75.344C396.185 75.7733 396.045 76.3893 396.045 77.192ZM407.346 73.272C408.196 73.272 408.858 73.4913 409.334 73.93C409.82 74.3687 410.062 75.078 410.062 76.058V81H408.298V76.408C408.298 75.8387 408.186 75.414 407.962 75.134C407.738 74.8447 407.384 74.7 406.898 74.7C406.189 74.7 405.704 74.924 405.442 75.372C405.181 75.82 405.05 76.4593 405.05 77.29V81H403.286V73.412H404.644L404.896 74.406H404.994C405.237 74.014 405.568 73.7293 405.988 73.552C406.418 73.3653 406.87 73.272 407.346 73.272ZM417.669 81H415.905V70.36H417.669V81ZM422.949 73.272C423.929 73.272 424.671 73.4867 425.175 73.916C425.688 74.3453 425.945 75.008 425.945 75.904V81H424.699L424.349 79.95H424.293C423.966 80.3607 423.621 80.664 423.257 80.86C422.893 81.0467 422.398 81.14 421.773 81.14C421.092 81.14 420.527 80.9487 420.079 80.566C419.631 80.1833 419.407 79.5907 419.407 78.788C419.407 78.004 419.692 77.416 420.261 77.024C420.84 76.632 421.712 76.4127 422.879 76.366L424.195 76.324V75.946C424.195 75.4607 424.078 75.1153 423.845 74.91C423.612 74.7047 423.285 74.602 422.865 74.602C422.482 74.602 422.114 74.658 421.759 74.77C421.414 74.8727 421.068 75.0033 420.723 75.162L420.163 73.93C420.536 73.734 420.961 73.5753 421.437 73.454C421.922 73.3327 422.426 73.272 422.949 73.272ZM424.195 77.416L423.271 77.444C422.496 77.472 421.96 77.6073 421.661 77.85C421.362 78.0833 421.213 78.4007 421.213 78.802C421.213 79.166 421.316 79.4273 421.521 79.586C421.736 79.7353 422.016 79.81 422.361 79.81C422.874 79.81 423.308 79.6653 423.663 79.376C424.018 79.0773 424.195 78.6387 424.195 78.06V77.416ZM429.919 70.36V72.88C429.919 73.1787 429.91 73.468 429.891 73.748C429.873 74.028 429.854 74.2473 429.835 74.406H429.919C430.125 74.0887 430.405 73.8227 430.759 73.608C431.114 73.384 431.576 73.272 432.145 73.272C433.023 73.272 433.732 73.6033 434.273 74.266C434.824 74.9287 435.099 75.904 435.099 77.192C435.099 78.4987 434.824 79.4833 434.273 80.146C433.723 80.8087 432.999 81.14 432.103 81.14C431.534 81.14 431.077 81.0373 430.731 80.832C430.395 80.6267 430.125 80.3887 429.919 80.118H429.793L429.471 81H428.155V70.36H429.919ZM431.641 74.7C431.007 74.7 430.563 74.8913 430.311 75.274C430.059 75.6567 429.929 76.2447 429.919 77.038V77.192C429.919 78.004 430.041 78.6247 430.283 79.054C430.535 79.4833 430.997 79.698 431.669 79.698C432.192 79.698 432.593 79.4833 432.873 79.054C433.153 78.6153 433.293 77.99 433.293 77.178C433.293 76.3473 433.149 75.7267 432.859 75.316C432.579 74.9053 432.173 74.7 431.641 74.7ZM439.971 73.272C440.988 73.272 441.791 73.5753 442.379 74.182C442.976 74.7887 443.275 75.6333 443.275 76.716V77.612H438.263C438.282 78.3027 438.473 78.8393 438.837 79.222C439.201 79.5953 439.705 79.782 440.349 79.782C440.834 79.782 441.273 79.7353 441.665 79.642C442.057 79.5393 442.458 79.3947 442.869 79.208V80.622C442.496 80.7993 442.108 80.93 441.707 81.014C441.306 81.098 440.825 81.14 440.265 81.14C439.518 81.14 438.86 81 438.291 80.72C437.722 80.4307 437.274 80.0013 436.947 79.432C436.63 78.8533 436.471 78.13 436.471 77.262C436.471 75.9647 436.788 74.9753 437.423 74.294C438.067 73.6127 438.916 73.272 439.971 73.272ZM439.971 74.574C439.495 74.574 439.108 74.728 438.809 75.036C438.52 75.3347 438.352 75.7827 438.305 76.38H441.567C441.558 75.8573 441.422 75.428 441.161 75.092C440.909 74.7467 440.512 74.574 439.971 74.574ZM446.818 81H445.054V70.36H446.818V81Z" fill="#1B77AF"/>
<path d="M297 86V128" stroke="#D51588"/>
<circle cx="297" cy="140" r="12" fill="#D51588"/>
<path d="M300.55 137.286C300.55 137.967 300.349 138.513 299.948 138.924C299.556 139.325 299.047 139.596 298.422 139.736V139.778C299.225 139.881 299.831 140.133 300.242 140.534C300.653 140.935 300.858 141.463 300.858 142.116C300.858 142.695 300.718 143.213 300.438 143.67C300.158 144.127 299.724 144.487 299.136 144.748C298.557 145.009 297.811 145.14 296.896 145.14C296.345 145.14 295.837 145.093 295.37 145C294.913 144.916 294.479 144.781 294.068 144.594V143.04C294.488 143.255 294.936 143.418 295.412 143.53C295.888 143.642 296.336 143.698 296.756 143.698C297.568 143.698 298.142 143.553 298.478 143.264C298.814 142.965 298.982 142.555 298.982 142.032C298.982 141.537 298.786 141.169 298.394 140.926C298.002 140.683 297.349 140.562 296.434 140.562H295.594V139.148H296.448C297.335 139.148 297.946 139.003 298.282 138.714C298.618 138.425 298.786 138.051 298.786 137.594C298.786 137.193 298.655 136.88 298.394 136.656C298.133 136.432 297.741 136.32 297.218 136.32C296.714 136.32 296.28 136.404 295.916 136.572C295.552 136.731 295.225 136.903 294.936 137.09L294.096 135.872C294.479 135.592 294.931 135.354 295.454 135.158C295.977 134.962 296.593 134.864 297.302 134.864C298.338 134.864 299.136 135.083 299.696 135.522C300.265 135.961 300.55 136.549 300.55 137.286Z" fill="white"/>
<path d="M345 86V128" stroke="#D51588"/>
<circle cx="345" cy="140" r="12" fill="#D51588"/>
<path d="M345.568 138.714C346.203 138.714 346.763 138.831 347.248 139.064C347.733 139.297 348.111 139.638 348.382 140.086C348.662 140.525 348.802 141.066 348.802 141.71C348.802 142.783 348.466 143.623 347.794 144.23C347.131 144.837 346.17 145.14 344.91 145.14C344.387 145.14 343.893 145.093 343.426 145C342.969 144.907 342.577 144.771 342.25 144.594V143.026C342.595 143.213 343.006 143.367 343.482 143.488C343.967 143.609 344.429 143.67 344.868 143.67C345.531 143.67 346.049 143.525 346.422 143.236C346.805 142.947 346.996 142.494 346.996 141.878C346.996 141.327 346.819 140.907 346.464 140.618C346.109 140.319 345.559 140.17 344.812 140.17C344.541 140.17 344.257 140.193 343.958 140.24C343.659 140.287 343.412 140.333 343.216 140.38L342.46 139.96L342.838 135.004H348.102V136.544H344.392L344.182 138.854C344.341 138.826 344.527 138.798 344.742 138.77C344.966 138.733 345.241 138.714 345.568 138.714Z" fill="white"/>
<circle cx="273" cy="12" r="12" fill="#D51588"/>
<path d="M276.942 17H270.096V15.698L272.644 13.122C273.148 12.6087 273.559 12.17 273.876 11.806C274.203 11.442 274.441 11.1013 274.59 10.784C274.749 10.4573 274.828 10.1073 274.828 9.734C274.828 9.27667 274.697 8.936 274.436 8.712C274.184 8.47867 273.839 8.362 273.4 8.362C272.98 8.362 272.588 8.45067 272.224 8.628C271.86 8.796 271.482 9.03867 271.09 9.356L270.124 8.194C270.535 7.83933 270.997 7.53133 271.51 7.27C272.033 6.99933 272.695 6.864 273.498 6.864C274.142 6.864 274.693 6.98067 275.15 7.214C275.617 7.438 275.976 7.75533 276.228 8.166C276.48 8.56733 276.606 9.02933 276.606 9.552C276.606 10.0933 276.499 10.5927 276.284 11.05C276.069 11.498 275.757 11.9507 275.346 12.408C274.945 12.856 274.464 13.3413 273.904 13.864L272.322 15.39V15.474H276.942V17Z" fill="white"/>
<path d="M273 24V66" stroke="#D51588"/>
<circle cx="321" cy="12" r="12" fill="#D51588"/>
<path d="M325.25 14.858H323.948V17H322.212V14.858H317.76V13.542L322.254 6.976H323.948V13.416H325.25V14.858ZM322.212 13.416V11.176C322.212 10.9147 322.217 10.644 322.226 10.364C322.235 10.0747 322.245 9.80867 322.254 9.566C322.273 9.314 322.287 9.12267 322.296 8.992H322.24C322.156 9.17867 322.063 9.36533 321.96 9.552C321.867 9.72933 321.759 9.90667 321.638 10.084L319.37 13.416H322.212Z" fill="white"/>
<path d="M321 24V66" stroke="#D51588"/>
<circle cx="402" cy="12" r="12" fill="#D51588"/>
<path d="M399.096 12.744C399.096 12.1653 399.133 11.596 399.208 11.036C399.292 10.476 399.437 9.94867 399.642 9.454C399.847 8.95 400.132 8.50667 400.496 8.124C400.86 7.732 401.322 7.42867 401.882 7.214C402.451 6.99 403.137 6.878 403.94 6.878C404.136 6.878 404.36 6.88733 404.612 6.906C404.864 6.92467 405.074 6.95267 405.242 6.99V8.446C404.878 8.34333 404.477 8.292 404.038 8.292C403.198 8.292 402.545 8.446 402.078 8.754C401.611 9.05267 401.285 9.468 401.098 10C400.911 10.5227 400.799 11.1107 400.762 11.764H400.846C401.042 11.4373 401.322 11.162 401.686 10.938C402.05 10.7047 402.521 10.588 403.1 10.588C403.968 10.588 404.663 10.8587 405.186 11.4C405.709 11.9413 405.97 12.7113 405.97 13.71C405.97 14.7833 405.671 15.6233 405.074 16.23C404.477 16.8367 403.669 17.14 402.652 17.14C401.989 17.14 401.387 16.9813 400.846 16.664C400.314 16.3467 399.889 15.866 399.572 15.222C399.255 14.5687 399.096 13.7427 399.096 12.744ZM402.624 15.698C403.1 15.698 403.487 15.5393 403.786 15.222C404.085 14.8953 404.234 14.396 404.234 13.724C404.234 13.1827 404.103 12.758 403.842 12.45C403.581 12.1327 403.189 11.974 402.666 11.974C402.302 11.974 401.985 12.0533 401.714 12.212C401.453 12.3613 401.247 12.5573 401.098 12.8C400.949 13.0333 400.874 13.276 400.874 13.528C400.874 13.8733 400.939 14.214 401.07 14.55C401.201 14.8767 401.392 15.152 401.644 15.376C401.905 15.5907 402.232 15.698 402.624 15.698Z" fill="white"/>
<path d="M402 24V66" stroke="#D51588"/>
<circle cx="671" cy="12" r="12" fill="#D51588"/>
<path d="M669.174 17L673.066 8.53H667.956V7.004H674.956V8.194L671.064 17H669.174Z" fill="white"/>
<path d="M671 24V66" stroke="#D51588"/>
<defs>
<filter id="filter0_d_9722_663852" x="667" y="69" width="22" height="22" filterUnits="userSpaceOnUse" color-interpolation-filters="sRGB">
<feFlood flood-opacity="0" result="BackgroundImageFix"/>
<feColorMatrix in="SourceAlpha" type="matrix" values="0 0 0 0 0 0 0 0 0 0 0 0 0 0 0 0 0 0 127 0" result="hardAlpha"/>
<feOffset dy="4"/>
<feGaussianBlur stdDeviation="2"/>
<feColorMatrix type="matrix" values="0 0 0 0 0 0 0 0 0 0 0 0 0 0 0 0 0 0 0.25 0"/>
<feBlend mode="normal" in2="BackgroundImageFix" result="effect1_dropShadow_9722_663852"/>
<feBlend mode="normal" in="SourceGraphic" in2="effect1_dropShadow_9722_663852" result="shape"/>
</filter>
</defs>
</svg>
