<svg width="904" height="153" viewBox="0 0 904 153" fill="none" xmlns="http://www.w3.org/2000/svg">
<rect width="904" height="153" fill="#F1F1F1"/>
<rect width="411" height="36" transform="translate(250 73)" fill="white"/>
<path d="M250 73H252V109H250V73Z" fill="#1B77AF"/>
<path d="M264 89.85C263.45 89.85 263 90.3 263 90.85C263 91.4 263.45 91.85 264 91.85C264.55 91.85 265 91.4 265 90.85C265.05 90.3 264.6 89.85 264 89.85Z" fill="#323232"/>
<path d="M268.4 89.85C267.85 89.85 267.4 90.3 267.4 90.85C267.4 91.4 267.85 91.85 268.4 91.85C268.95 91.85 269.4 91.4 269.4 90.85C269.45 90.3 269 89.85 268.4 89.85Z" fill="#323232"/>
<path d="M264 85.5C263.45 85.5 263 85.95 263 86.5C263 87.05 263.45 87.5 264 87.5C264.55 87.5 265 87.05 265 86.5C265 85.95 264.6 85.5 264 85.5Z" fill="#323232"/>
<path d="M268.4 87.55C268.95 87.55 269.4 87.1 269.4 86.55C269.4 86 268.95 85.55 268.4 85.55C267.85 85.55 267.4 86 267.4 86.55C267.4 87.1 267.85 87.55 268.4 87.55Z" fill="#323232"/>
<path d="M264 94.15C263.45 94.15 263 94.6 263 95.15C263 95.7 263.45 96.15 264 96.15C264.55 96.15 265 95.7 265 95.15C265.05 94.6 264.6 94.15 264 94.15Z" fill="#323232"/>
<path d="M268.4 94.15C267.85 94.15 267.4 94.6 267.4 95.15C267.4 95.7 267.85 96.15 268.4 96.15C268.95 96.15 269.4 95.7 269.4 95.15C269.45 94.6 269 94.15 268.4 94.15Z" fill="#323232"/>
<path d="M287.412 96.9625C287.312 96.9625 287.212 96.9125 287.162 96.8625C287.013 96.7125 287.013 96.4625 287.162 96.3125L292.462 91.0125L287.112 85.6625C286.963 85.5125 286.963 85.2625 287.112 85.1125C287.262 84.9625 287.512 84.9625 287.662 85.1125L293.262 90.7125C293.312 90.7625 293.362 90.8625 293.362 90.9625C293.362 91.0625 293.312 91.1625 293.262 91.2125L287.662 96.8625C287.562 96.9625 287.463 96.9625 287.412 96.9625Z" fill="#323232"/>
<rect x="306" y="83" width="16" height="16" rx="4" fill="#1B77AF"/>
<path d="M312.512 96.202C312.412 96.202 312.312 96.152 312.262 96.102L308.113 91.952C307.962 91.802 307.962 91.552 308.113 91.402C308.263 91.252 308.512 91.252 308.662 91.402L312.512 95.252L319.312 86.152C319.413 86.002 319.663 85.952 319.812 86.052C319.962 86.152 320.012 86.402 319.912 86.552L312.812 96.052C312.762 96.152 312.662 96.202 312.512 96.202Z" fill="white"/>
<path d="M344.44 94.8897L339.59 89.9897C339.79 89.4897 339.89 88.9897 339.89 88.4397C339.89 87.2397 339.44 86.1397 338.59 85.2897C337.29 83.9897 335.29 83.6397 333.64 84.3897C333.49 84.4397 333.44 84.5397 333.39 84.6397C333.39 84.7397 333.39 84.8897 333.49 84.9897L335.79 87.2897C335.99 87.4897 336.09 87.7397 336.09 88.0397C336.09 88.3397 335.99 88.5897 335.79 88.7897C335.39 89.1897 334.69 89.1897 334.29 88.7897L331.99 86.4897C331.89 86.3897 331.79 86.3897 331.64 86.3897C331.54 86.4397 331.44 86.4897 331.39 86.6397C330.64 88.3397 330.99 90.2897 332.29 91.5897C333.14 92.4397 334.24 92.8897 335.44 92.8897C335.99 92.8897 336.49 92.7897 336.99 92.5897L341.84 97.4397C342.19 97.7897 342.64 97.9897 343.14 97.9897C343.64 97.9897 344.09 97.7897 344.44 97.4397C345.19 96.7397 345.19 95.5897 344.44 94.8897ZM332.84 91.0397C331.89 90.0897 331.54 88.7397 331.89 87.4397L333.74 89.2897C334.44 89.9897 335.59 89.9897 336.34 89.2897C336.69 88.9397 336.89 88.4897 336.89 87.9897C336.89 87.4897 336.69 87.0397 336.34 86.6897L334.44 84.8897C335.69 84.5397 337.09 84.8897 338.04 85.8397C338.74 86.5397 339.14 87.4397 339.14 88.4397C339.14 89.4397 338.74 90.3397 338.04 91.0397C337.34 91.7397 336.44 92.1397 335.44 92.1397C334.44 92.1397 333.54 91.7397 332.84 91.0397ZM338.59 91.5897C338.84 91.3397 339.09 91.0397 339.24 90.7397L342.74 94.2397L341.24 95.7397L337.74 92.2397C338.04 92.0397 338.34 91.8397 338.59 91.5897ZM343.94 96.9397C343.54 97.3397 342.84 97.3397 342.44 96.9397L341.79 96.2897L343.29 94.7897L343.94 95.4397C344.14 95.6397 344.24 95.8897 344.24 96.1897C344.24 96.4397 344.14 96.7397 343.94 96.9397Z" fill="black"/>
<path d="M361.028 93.326C361.028 94.2127 360.706 94.9033 360.062 95.398C359.418 95.8927 358.55 96.14 357.458 96.14C356.898 96.14 356.38 96.098 355.904 96.014C355.428 95.93 355.031 95.8133 354.714 95.664V94.46C355.05 94.6093 355.465 94.7447 355.96 94.866C356.464 94.9873 356.982 95.048 357.514 95.048C358.251 95.048 358.811 94.9033 359.194 94.614C359.577 94.3247 359.768 93.9327 359.768 93.438C359.768 93.1113 359.698 92.836 359.558 92.612C359.418 92.388 359.175 92.1827 358.83 91.996C358.485 91.8093 358.013 91.604 357.416 91.38C356.557 91.072 355.913 90.694 355.484 90.246C355.055 89.798 354.84 89.1867 354.84 88.412C354.84 87.8893 354.975 87.4367 355.246 87.054C355.517 86.6713 355.89 86.3773 356.366 86.172C356.842 85.9667 357.397 85.864 358.032 85.864C358.573 85.864 359.073 85.9153 359.53 86.018C359.987 86.1207 360.407 86.256 360.79 86.424L360.398 87.502C360.053 87.3527 359.675 87.2267 359.264 87.124C358.853 87.0213 358.433 86.97 358.004 86.97C357.379 86.97 356.907 87.1053 356.59 87.376C356.273 87.6373 356.114 87.9873 356.114 88.426C356.114 88.762 356.184 89.042 356.324 89.266C356.464 89.49 356.693 89.6953 357.01 89.882C357.327 90.0593 357.757 90.246 358.298 90.442C358.886 90.6567 359.381 90.89 359.782 91.142C360.193 91.3847 360.501 91.6787 360.706 92.024C360.921 92.3693 361.028 92.8033 361.028 93.326ZM365.772 88.356C366.406 88.356 366.957 88.496 367.424 88.776C367.89 89.056 368.245 89.4527 368.488 89.966C368.74 90.47 368.866 91.0627 368.866 91.744V92.486H363.728C363.746 93.3353 363.961 93.984 364.372 94.432C364.792 94.8707 365.375 95.09 366.122 95.09C366.598 95.09 367.018 95.048 367.382 94.964C367.755 94.8707 368.138 94.74 368.53 94.572V95.65C368.147 95.818 367.769 95.9393 367.396 96.014C367.022 96.098 366.579 96.14 366.066 96.14C365.347 96.14 364.717 95.9953 364.176 95.706C363.634 95.4167 363.21 94.9873 362.902 94.418C362.603 93.8487 362.454 93.144 362.454 92.304C362.454 91.4827 362.589 90.778 362.86 90.19C363.14 89.602 363.527 89.1493 364.022 88.832C364.526 88.5147 365.109 88.356 365.772 88.356ZM365.758 89.364C365.17 89.364 364.703 89.5553 364.358 89.938C364.022 90.3113 363.821 90.834 363.756 91.506H367.578C367.568 90.8713 367.419 90.358 367.13 89.966C366.84 89.5647 366.383 89.364 365.758 89.364ZM373.786 96.14C373.114 96.14 372.521 96.0047 372.008 95.734C371.495 95.4633 371.089 95.0433 370.79 94.474C370.501 93.9047 370.356 93.1767 370.356 92.29C370.356 91.366 370.505 90.6147 370.804 90.036C371.112 89.4573 371.532 89.0327 372.064 88.762C372.596 88.4913 373.198 88.356 373.87 88.356C374.243 88.356 374.607 88.398 374.962 88.482C375.326 88.5567 375.62 88.65 375.844 88.762L375.466 89.784C375.242 89.7 374.981 89.6207 374.682 89.546C374.383 89.4713 374.103 89.434 373.842 89.434C372.367 89.434 371.63 90.3813 371.63 92.276C371.63 93.1813 371.807 93.8767 372.162 94.362C372.526 94.838 373.063 95.076 373.772 95.076C374.173 95.076 374.533 95.034 374.85 94.95C375.167 94.866 375.457 94.7633 375.718 94.642V95.734C375.466 95.8647 375.186 95.9627 374.878 96.028C374.579 96.1027 374.215 96.14 373.786 96.14ZM380.008 95.132C380.195 95.132 380.387 95.118 380.583 95.09C380.779 95.062 380.937 95.0247 381.059 94.978V95.916C380.928 95.9813 380.741 96.0327 380.499 96.07C380.256 96.1167 380.023 96.14 379.799 96.14C379.407 96.14 379.043 96.0747 378.707 95.944C378.38 95.804 378.114 95.566 377.909 95.23C377.703 94.894 377.601 94.4227 377.601 93.816V89.448H376.537V88.86L377.615 88.37L378.105 86.774H378.833V88.496H381.003V89.448H378.833V93.788C378.833 94.2453 378.94 94.586 379.155 94.81C379.379 95.0247 379.663 95.132 380.008 95.132ZM383.191 85.682C383.378 85.682 383.541 85.7473 383.681 85.878C383.83 85.9993 383.905 86.1953 383.905 86.466C383.905 86.7367 383.83 86.9373 383.681 87.068C383.541 87.1893 383.378 87.25 383.191 87.25C382.986 87.25 382.813 87.1893 382.673 87.068C382.533 86.9373 382.463 86.7367 382.463 86.466C382.463 86.1953 382.533 85.9993 382.673 85.878C382.813 85.7473 382.986 85.682 383.191 85.682ZM383.793 88.496V96H382.561V88.496H383.793ZM392.694 92.234C392.694 93.4753 392.377 94.4367 391.742 95.118C391.117 95.7993 390.268 96.14 389.194 96.14C388.532 96.14 387.939 95.9907 387.416 95.692C386.903 95.384 386.497 94.9407 386.198 94.362C385.9 93.774 385.75 93.0647 385.75 92.234C385.75 90.9927 386.058 90.036 386.674 89.364C387.3 88.692 388.154 88.356 389.236 88.356C389.908 88.356 390.506 88.51 391.028 88.818C391.551 89.1167 391.957 89.5553 392.246 90.134C392.545 90.7033 392.694 91.4033 392.694 92.234ZM387.024 92.234C387.024 93.1207 387.197 93.8253 387.542 94.348C387.897 94.8613 388.457 95.118 389.222 95.118C389.978 95.118 390.534 94.8613 390.888 94.348C391.243 93.8253 391.42 93.1207 391.42 92.234C391.42 91.3473 391.243 90.652 390.888 90.148C390.534 89.644 389.974 89.392 389.208 89.392C388.443 89.392 387.888 89.644 387.542 90.148C387.197 90.652 387.024 91.3473 387.024 92.234ZM398.259 88.356C399.155 88.356 399.832 88.5753 400.289 89.014C400.746 89.4527 400.975 90.1527 400.975 91.114V96H399.757V91.198C399.757 89.994 399.197 89.392 398.077 89.392C397.246 89.392 396.672 89.6253 396.355 90.092C396.038 90.5587 395.879 91.2307 395.879 92.108V96H394.647V88.496H395.641L395.823 89.518H395.893C396.136 89.126 396.472 88.8367 396.901 88.65C397.33 88.454 397.783 88.356 398.259 88.356ZM408.17 96H406.938V85.36H408.17V96ZM413.389 88.37C414.304 88.37 414.981 88.5707 415.419 88.972C415.858 89.3733 416.077 90.0127 416.077 90.89V96H415.181L414.943 94.936H414.887C414.561 95.3467 414.215 95.65 413.851 95.846C413.487 96.042 412.993 96.14 412.367 96.14C411.686 96.14 411.121 95.9627 410.673 95.608C410.225 95.244 410.001 94.6793 410.001 93.914C410.001 93.1673 410.295 92.5933 410.883 92.192C411.471 91.7813 412.377 91.5573 413.599 91.52L414.873 91.478V91.03C414.873 90.4047 414.738 89.9707 414.467 89.728C414.197 89.4853 413.814 89.364 413.319 89.364C412.927 89.364 412.554 89.4247 412.199 89.546C411.845 89.658 411.513 89.7887 411.205 89.938L410.827 89.014C411.154 88.8367 411.541 88.6873 411.989 88.566C412.437 88.4353 412.904 88.37 413.389 88.37ZM414.859 92.332L413.753 92.374C412.82 92.4113 412.171 92.5607 411.807 92.822C411.453 93.0833 411.275 93.452 411.275 93.928C411.275 94.348 411.401 94.656 411.653 94.852C411.915 95.048 412.246 95.146 412.647 95.146C413.273 95.146 413.795 94.9733 414.215 94.628C414.645 94.2733 414.859 93.732 414.859 93.004V92.332ZM419.627 85.36V87.95C419.627 88.2673 419.618 88.566 419.599 88.846C419.59 89.1167 419.576 89.3313 419.557 89.49H419.627C419.842 89.1727 420.136 88.9067 420.509 88.692C420.882 88.4773 421.363 88.37 421.951 88.37C422.884 88.37 423.631 88.6967 424.191 89.35C424.76 89.994 425.045 90.96 425.045 92.248C425.045 93.536 424.76 94.5067 424.191 95.16C423.622 95.8133 422.875 96.14 421.951 96.14C421.363 96.14 420.882 96.0327 420.509 95.818C420.136 95.6033 419.842 95.3467 419.627 95.048H419.529L419.277 96H418.395V85.36H419.627ZM421.741 89.392C420.938 89.392 420.383 89.6207 420.075 90.078C419.776 90.5353 419.627 91.2447 419.627 92.206V92.262C419.627 93.186 419.776 93.8953 420.075 94.39C420.383 94.8753 420.948 95.118 421.769 95.118C422.441 95.118 422.94 94.8707 423.267 94.376C423.603 93.8813 423.771 93.1673 423.771 92.234C423.771 90.3393 423.094 89.392 421.741 89.392ZM429.906 88.356C430.541 88.356 431.092 88.496 431.558 88.776C432.025 89.056 432.38 89.4527 432.622 89.966C432.874 90.47 433 91.0627 433 91.744V92.486H427.862C427.881 93.3353 428.096 93.984 428.506 94.432C428.926 94.8707 429.51 95.09 430.256 95.09C430.732 95.09 431.152 95.048 431.516 94.964C431.89 94.8707 432.272 94.74 432.664 94.572V95.65C432.282 95.818 431.904 95.9393 431.53 96.014C431.157 96.098 430.714 96.14 430.2 96.14C429.482 96.14 428.852 95.9953 428.31 95.706C427.769 95.4167 427.344 94.9873 427.036 94.418C426.738 93.8487 426.588 93.144 426.588 92.304C426.588 91.4827 426.724 90.778 426.994 90.19C427.274 89.602 427.662 89.1493 428.156 88.832C428.66 88.5147 429.244 88.356 429.906 88.356ZM429.892 89.364C429.304 89.364 428.838 89.5553 428.492 89.938C428.156 90.3113 427.956 90.834 427.89 91.506H431.712C431.703 90.8713 431.554 90.358 431.264 89.966C430.975 89.5647 430.518 89.364 429.892 89.364ZM436.143 96H434.911V85.36H436.143V96Z" fill="#323232"/>
<rect x="621" y="83" width="32" height="16" rx="8" fill="#1B77AF"/>
<g filter="url(#filter0_d_9239_665440)">
<circle cx="645" cy="91" r="7" fill="white"/>
</g>
<path d="M648.77 88.4498L644.57 94.1498C644.57 94.2498 644.37 94.4498 644.07 94.4498C643.87 94.4498 643.77 94.3498 643.67 94.2498L641.27 91.7498C641.07 91.5498 641.07 91.1498 641.27 90.8498C641.47 90.6498 641.97 90.6498 642.17 90.8498L644.07 92.8498L647.77 87.7498C647.87 87.6498 647.97 87.5498 648.17 87.5498C648.37 87.5498 648.47 87.5498 648.67 87.6498C648.87 87.7498 648.97 88.1498 648.77 88.4498Z" fill="#1B77AF"/>
<path d="M255 37V53" stroke="#D51588"/>
<rect opacity="0.4" x="251" y="53" width="8" height="56" fill="white"/>
<rect opacity="0.12" x="251" y="53" width="8" height="56" fill="#D51588"/>
<path opacity="0.5" d="M259 53L259 109" stroke="#D51588" stroke-dasharray="3 3"/>
<path opacity="0.5" d="M251 53L251 109" stroke="#D51588" stroke-dasharray="3 3"/>
<path d="M277 37V53" stroke="#D51588"/>
<rect opacity="0.4" x="273" y="53" width="8" height="56" fill="white"/>
<rect opacity="0.12" x="273" y="53" width="8" height="56" fill="#D51588"/>
<path opacity="0.5" d="M281 53L281 109" stroke="#D51588" stroke-dasharray="3 3"/>
<path opacity="0.5" d="M273 53L273 109" stroke="#D51588" stroke-dasharray="3 3"/>
<path d="M302 37V53" stroke="#D51588"/>
<rect opacity="0.4" x="298" y="53" width="8" height="56" fill="white"/>
<rect opacity="0.12" x="298" y="53" width="8" height="56" fill="#D51588"/>
<path opacity="0.5" d="M306 53L306 109" stroke="#D51588" stroke-dasharray="3 3"/>
<path opacity="0.5" d="M298 53L298 109" stroke="#D51588" stroke-dasharray="3 3"/>
<path d="M306.018 4.878C306.596 4.878 307.119 4.96667 307.586 5.144C308.052 5.32133 308.426 5.592 308.706 5.956C308.986 6.31067 309.126 6.74933 309.126 7.272C309.126 7.86933 308.948 8.364 308.594 8.756C308.239 9.13867 307.805 9.46067 307.292 9.722C307.674 9.918 308.029 10.1373 308.356 10.38C308.682 10.6227 308.944 10.912 309.14 11.248C309.345 11.5747 309.448 11.962 309.448 12.41C309.448 12.9607 309.303 13.4413 309.014 13.852C308.724 14.2627 308.323 14.58 307.81 14.804C307.306 15.028 306.713 15.14 306.032 15.14C304.921 15.14 304.067 14.902 303.47 14.426C302.872 13.95 302.574 13.2967 302.574 12.466C302.574 12.0087 302.662 11.612 302.84 11.276C303.017 10.94 303.255 10.6507 303.554 10.408C303.852 10.1653 304.184 9.95533 304.548 9.778C304.09 9.498 303.698 9.162 303.372 8.77C303.054 8.36867 302.896 7.86467 302.896 7.258C302.896 6.74467 303.036 6.31067 303.316 5.956C303.605 5.60133 303.983 5.33533 304.45 5.158C304.926 4.97133 305.448 4.878 306.018 4.878ZM306.004 6.208C305.593 6.208 305.252 6.31067 304.982 6.516C304.72 6.72133 304.59 7.01067 304.59 7.384C304.59 7.79467 304.73 8.12133 305.01 8.364C305.29 8.60667 305.63 8.81667 306.032 8.994C306.414 8.826 306.741 8.62067 307.012 8.378C307.292 8.13533 307.432 7.804 307.432 7.384C307.432 7.01067 307.296 6.72133 307.026 6.516C306.764 6.31067 306.424 6.208 306.004 6.208ZM304.254 12.382C304.254 12.7927 304.398 13.1333 304.688 13.404C304.977 13.6653 305.416 13.796 306.004 13.796C306.582 13.796 307.021 13.6653 307.32 13.404C307.618 13.1427 307.768 12.802 307.768 12.382C307.768 11.962 307.6 11.612 307.264 11.332C306.928 11.052 306.531 10.8093 306.074 10.604L305.878 10.506C305.374 10.7393 304.977 11.0053 304.688 11.304C304.398 11.5933 304.254 11.9527 304.254 12.382ZM318.786 7.272C319.673 7.272 320.387 7.60333 320.928 8.266C321.469 8.91933 321.74 9.89467 321.74 11.192C321.74 12.4893 321.46 13.474 320.9 14.146C320.349 14.8087 319.631 15.14 318.744 15.14C318.184 15.14 317.731 15.0373 317.386 14.832C317.041 14.6267 316.765 14.3887 316.56 14.118H316.448C316.476 14.2953 316.499 14.4867 316.518 14.692C316.546 14.8973 316.56 15.0933 316.56 15.28V18.36H314.796V7.412H316.224L316.476 8.42H316.56C316.775 8.10267 317.055 7.832 317.4 7.608C317.745 7.384 318.207 7.272 318.786 7.272ZM318.282 8.7C317.657 8.7 317.213 8.88667 316.952 9.26C316.7 9.63333 316.569 10.198 316.56 10.954V11.178C316.56 11.99 316.681 12.6153 316.924 13.054C317.176 13.4833 317.638 13.698 318.31 13.698C318.861 13.698 319.267 13.474 319.528 13.026C319.799 12.5687 319.934 11.948 319.934 11.164C319.934 10.38 319.799 9.77333 319.528 9.344C319.267 8.91467 318.851 8.7 318.282 8.7ZM324.924 11.122L322.418 7.412H324.42L326.072 9.988L327.724 7.412H329.726L327.192 11.122L329.852 15H327.85L326.072 12.242L324.294 15H322.292L324.924 11.122Z" fill="#D51588"/>
<path d="M315 21V37" stroke="#D51588"/>
<path d="M255 53L255 37H302.5H350V53" stroke="#D51588"/>
<path d="M326 37V53" stroke="#D51588"/>
<rect opacity="0.4" x="322" y="53" width="8" height="56" fill="white"/>
<rect opacity="0.12" x="322" y="53" width="8" height="56" fill="#D51588"/>
<path opacity="0.5" d="M330 53L330 109" stroke="#D51588" stroke-dasharray="3 3"/>
<path opacity="0.5" d="M322 53L322 109" stroke="#D51588" stroke-dasharray="3 3"/>
<path d="M350 37V53" stroke="#D51588"/>
<rect opacity="0.4" x="346" y="53" width="8" height="56" fill="white"/>
<rect opacity="0.12" x="346" y="53" width="8" height="56" fill="#D51588"/>
<path opacity="0.5" d="M354 53L354 109" stroke="#D51588" stroke-dasharray="3 3"/>
<path opacity="0.5" d="M346 53L346 109" stroke="#D51588" stroke-dasharray="3 3"/>
<path d="M647.018 19.878C647.596 19.878 648.119 19.9667 648.586 20.144C649.052 20.3213 649.426 20.592 649.706 20.956C649.986 21.3107 650.126 21.7493 650.126 22.272C650.126 22.8693 649.948 23.364 649.594 23.756C649.239 24.1387 648.805 24.4607 648.292 24.722C648.674 24.918 649.029 25.1373 649.356 25.38C649.682 25.6227 649.944 25.912 650.14 26.248C650.345 26.5747 650.448 26.962 650.448 27.41C650.448 27.9607 650.303 28.4413 650.014 28.852C649.724 29.2627 649.323 29.58 648.81 29.804C648.306 30.028 647.713 30.14 647.032 30.14C645.921 30.14 645.067 29.902 644.47 29.426C643.872 28.95 643.574 28.2967 643.574 27.466C643.574 27.0087 643.662 26.612 643.84 26.276C644.017 25.94 644.255 25.6507 644.554 25.408C644.852 25.1653 645.184 24.9553 645.548 24.778C645.09 24.498 644.698 24.162 644.372 23.77C644.054 23.3687 643.896 22.8647 643.896 22.258C643.896 21.7447 644.036 21.3107 644.316 20.956C644.605 20.6013 644.983 20.3353 645.45 20.158C645.926 19.9713 646.448 19.878 647.018 19.878ZM647.004 21.208C646.593 21.208 646.252 21.3107 645.982 21.516C645.72 21.7213 645.59 22.0107 645.59 22.384C645.59 22.7947 645.73 23.1213 646.01 23.364C646.29 23.6067 646.63 23.8167 647.032 23.994C647.414 23.826 647.741 23.6207 648.012 23.378C648.292 23.1353 648.432 22.804 648.432 22.384C648.432 22.0107 648.296 21.7213 648.026 21.516C647.764 21.3107 647.424 21.208 647.004 21.208ZM645.254 27.382C645.254 27.7927 645.398 28.1333 645.688 28.404C645.977 28.6653 646.416 28.796 647.004 28.796C647.582 28.796 648.021 28.6653 648.32 28.404C648.618 28.1427 648.768 27.802 648.768 27.382C648.768 26.962 648.6 26.612 648.264 26.332C647.928 26.052 647.531 25.8093 647.074 25.604L646.878 25.506C646.374 25.7393 645.977 26.0053 645.688 26.304C645.398 26.5933 645.254 26.9527 645.254 27.382ZM659.786 22.272C660.673 22.272 661.387 22.6033 661.928 23.266C662.469 23.9193 662.74 24.8947 662.74 26.192C662.74 27.4893 662.46 28.474 661.9 29.146C661.349 29.8087 660.631 30.14 659.744 30.14C659.184 30.14 658.731 30.0373 658.386 29.832C658.041 29.6267 657.765 29.3887 657.56 29.118H657.448C657.476 29.2953 657.499 29.4867 657.518 29.692C657.546 29.8973 657.56 30.0933 657.56 30.28V33.36H655.796V22.412H657.224L657.476 23.42H657.56C657.775 23.1027 658.055 22.832 658.4 22.608C658.745 22.384 659.207 22.272 659.786 22.272ZM659.282 23.7C658.657 23.7 658.213 23.8867 657.952 24.26C657.7 24.6333 657.569 25.198 657.56 25.954V26.178C657.56 26.99 657.681 27.6153 657.924 28.054C658.176 28.4833 658.638 28.698 659.31 28.698C659.861 28.698 660.267 28.474 660.528 28.026C660.799 27.5687 660.934 26.948 660.934 26.164C660.934 25.38 660.799 24.7733 660.528 24.344C660.267 23.9147 659.851 23.7 659.282 23.7ZM665.924 26.122L663.418 22.412H665.42L667.072 24.988L668.724 22.412H670.726L668.192 26.122L670.852 30H668.85L667.072 27.242L665.294 30H663.292L665.924 26.122Z" fill="#D51588"/>
<path d="M657 37V53" stroke="#D51588"/>
<rect opacity="0.4" x="653" y="53" width="8" height="56" fill="white"/>
<rect opacity="0.12" x="653" y="53" width="8" height="56" fill="#D51588"/>
<path opacity="0.5" d="M661 53L661 109" stroke="#D51588" stroke-dasharray="3 3"/>
<path opacity="0.5" d="M653 53L653 109" stroke="#D51588" stroke-dasharray="3 3"/>
<path d="M188.018 71.878C188.596 71.878 189.119 71.9667 189.586 72.144C190.052 72.3213 190.426 72.592 190.706 72.956C190.986 73.3107 191.126 73.7493 191.126 74.272C191.126 74.8693 190.948 75.364 190.594 75.756C190.239 76.1387 189.805 76.4607 189.292 76.722C189.674 76.918 190.029 77.1373 190.356 77.38C190.682 77.6227 190.944 77.912 191.14 78.248C191.345 78.5747 191.448 78.962 191.448 79.41C191.448 79.9607 191.303 80.4413 191.014 80.852C190.724 81.2627 190.323 81.58 189.81 81.804C189.306 82.028 188.713 82.14 188.032 82.14C186.921 82.14 186.067 81.902 185.47 81.426C184.872 80.95 184.574 80.2967 184.574 79.466C184.574 79.0087 184.662 78.612 184.84 78.276C185.017 77.94 185.255 77.6507 185.554 77.408C185.852 77.1653 186.184 76.9553 186.548 76.778C186.09 76.498 185.698 76.162 185.372 75.77C185.054 75.3687 184.896 74.8647 184.896 74.258C184.896 73.7447 185.036 73.3107 185.316 72.956C185.605 72.6013 185.983 72.3353 186.45 72.158C186.926 71.9713 187.448 71.878 188.018 71.878ZM188.004 73.208C187.593 73.208 187.252 73.3107 186.982 73.516C186.72 73.7213 186.59 74.0107 186.59 74.384C186.59 74.7947 186.73 75.1213 187.01 75.364C187.29 75.6067 187.63 75.8167 188.032 75.994C188.414 75.826 188.741 75.6207 189.012 75.378C189.292 75.1353 189.432 74.804 189.432 74.384C189.432 74.0107 189.296 73.7213 189.026 73.516C188.764 73.3107 188.424 73.208 188.004 73.208ZM186.254 79.382C186.254 79.7927 186.398 80.1333 186.688 80.404C186.977 80.6653 187.416 80.796 188.004 80.796C188.582 80.796 189.021 80.6653 189.32 80.404C189.618 80.1427 189.768 79.802 189.768 79.382C189.768 78.962 189.6 78.612 189.264 78.332C188.928 78.052 188.531 77.8093 188.074 77.604L187.878 77.506C187.374 77.7393 186.977 78.0053 186.688 78.304C186.398 78.5933 186.254 78.9527 186.254 79.382ZM200.786 74.272C201.673 74.272 202.387 74.6033 202.928 75.266C203.469 75.9193 203.74 76.8947 203.74 78.192C203.74 79.4893 203.46 80.474 202.9 81.146C202.349 81.8087 201.631 82.14 200.744 82.14C200.184 82.14 199.731 82.0373 199.386 81.832C199.041 81.6267 198.765 81.3887 198.56 81.118H198.448C198.476 81.2953 198.499 81.4867 198.518 81.692C198.546 81.8973 198.56 82.0933 198.56 82.28V85.36H196.796V74.412H198.224L198.476 75.42H198.56C198.775 75.1027 199.055 74.832 199.4 74.608C199.745 74.384 200.207 74.272 200.786 74.272ZM200.282 75.7C199.657 75.7 199.213 75.8867 198.952 76.26C198.7 76.6333 198.569 77.198 198.56 77.954V78.178C198.56 78.99 198.681 79.6153 198.924 80.054C199.176 80.4833 199.638 80.698 200.31 80.698C200.861 80.698 201.267 80.474 201.528 80.026C201.799 79.5687 201.934 78.948 201.934 78.164C201.934 77.38 201.799 76.7733 201.528 76.344C201.267 75.9147 200.851 75.7 200.282 75.7ZM206.924 78.122L204.418 74.412H206.42L208.072 76.988L209.724 74.412H211.726L209.192 78.122L211.852 82H209.85L208.072 79.242L206.294 82H204.292L206.924 78.122Z" fill="#D51588"/>
<path d="M230 77L214 77" stroke="#D51588"/>
<rect opacity="0.4" x="661" y="73" width="8" height="431" transform="rotate(90 661 73)" fill="white"/>
<rect opacity="0.12" x="661" y="73" width="8" height="431" transform="rotate(90 661 73)" fill="#D51588"/>
<path opacity="0.5" d="M661 81L230 81" stroke="#D51588" stroke-dasharray="3 3"/>
<path opacity="0.5" d="M661 73L230 73" stroke="#D51588" stroke-dasharray="3 3"/>
<path d="M188.018 99.878C188.596 99.878 189.119 99.9667 189.586 100.144C190.052 100.321 190.426 100.592 190.706 100.956C190.986 101.311 191.126 101.749 191.126 102.272C191.126 102.869 190.948 103.364 190.594 103.756C190.239 104.139 189.805 104.461 189.292 104.722C189.674 104.918 190.029 105.137 190.356 105.38C190.682 105.623 190.944 105.912 191.14 106.248C191.345 106.575 191.448 106.962 191.448 107.41C191.448 107.961 191.303 108.441 191.014 108.852C190.724 109.263 190.323 109.58 189.81 109.804C189.306 110.028 188.713 110.14 188.032 110.14C186.921 110.14 186.067 109.902 185.47 109.426C184.872 108.95 184.574 108.297 184.574 107.466C184.574 107.009 184.662 106.612 184.84 106.276C185.017 105.94 185.255 105.651 185.554 105.408C185.852 105.165 186.184 104.955 186.548 104.778C186.09 104.498 185.698 104.162 185.372 103.77C185.054 103.369 184.896 102.865 184.896 102.258C184.896 101.745 185.036 101.311 185.316 100.956C185.605 100.601 185.983 100.335 186.45 100.158C186.926 99.9713 187.448 99.878 188.018 99.878ZM188.004 101.208C187.593 101.208 187.252 101.311 186.982 101.516C186.72 101.721 186.59 102.011 186.59 102.384C186.59 102.795 186.73 103.121 187.01 103.364C187.29 103.607 187.63 103.817 188.032 103.994C188.414 103.826 188.741 103.621 189.012 103.378C189.292 103.135 189.432 102.804 189.432 102.384C189.432 102.011 189.296 101.721 189.026 101.516C188.764 101.311 188.424 101.208 188.004 101.208ZM186.254 107.382C186.254 107.793 186.398 108.133 186.688 108.404C186.977 108.665 187.416 108.796 188.004 108.796C188.582 108.796 189.021 108.665 189.32 108.404C189.618 108.143 189.768 107.802 189.768 107.382C189.768 106.962 189.6 106.612 189.264 106.332C188.928 106.052 188.531 105.809 188.074 105.604L187.878 105.506C187.374 105.739 186.977 106.005 186.688 106.304C186.398 106.593 186.254 106.953 186.254 107.382ZM200.786 102.272C201.673 102.272 202.387 102.603 202.928 103.266C203.469 103.919 203.74 104.895 203.74 106.192C203.74 107.489 203.46 108.474 202.9 109.146C202.349 109.809 201.631 110.14 200.744 110.14C200.184 110.14 199.731 110.037 199.386 109.832C199.041 109.627 198.765 109.389 198.56 109.118H198.448C198.476 109.295 198.499 109.487 198.518 109.692C198.546 109.897 198.56 110.093 198.56 110.28V113.36H196.796V102.412H198.224L198.476 103.42H198.56C198.775 103.103 199.055 102.832 199.4 102.608C199.745 102.384 200.207 102.272 200.786 102.272ZM200.282 103.7C199.657 103.7 199.213 103.887 198.952 104.26C198.7 104.633 198.569 105.198 198.56 105.954V106.178C198.56 106.99 198.681 107.615 198.924 108.054C199.176 108.483 199.638 108.698 200.31 108.698C200.861 108.698 201.267 108.474 201.528 108.026C201.799 107.569 201.934 106.948 201.934 106.164C201.934 105.38 201.799 104.773 201.528 104.344C201.267 103.915 200.851 103.7 200.282 103.7ZM206.924 106.122L204.418 102.412H206.42L208.072 104.988L209.724 102.412H211.726L209.192 106.122L211.852 110H209.85L208.072 107.242L206.294 110H204.292L206.924 106.122Z" fill="#D51588"/>
<path d="M230 105L214 105" stroke="#D51588"/>
<rect opacity="0.4" x="661" y="101" width="8" height="431" transform="rotate(90 661 101)" fill="white"/>
<rect opacity="0.12" x="661" y="101" width="8" height="431" transform="rotate(90 661 101)" fill="#D51588"/>
<path opacity="0.5" d="M661 109L230 109" stroke="#D51588" stroke-dasharray="3 3"/>
<path opacity="0.5" d="M661 101L230 101" stroke="#D51588" stroke-dasharray="3 3"/>
<path d="M691.072 88.286C691.072 88.9673 690.871 89.5133 690.47 89.924C690.078 90.3253 689.569 90.596 688.944 90.736V90.778C689.746 90.8807 690.353 91.1327 690.764 91.534C691.174 91.9353 691.38 92.4627 691.38 93.116C691.38 93.6947 691.24 94.2127 690.96 94.67C690.68 95.1273 690.246 95.4867 689.658 95.748C689.079 96.0093 688.332 96.14 687.418 96.14C686.867 96.14 686.358 96.0933 685.892 96C685.434 95.916 685 95.7807 684.59 95.594V94.04C685.01 94.2547 685.458 94.418 685.934 94.53C686.41 94.642 686.858 94.698 687.278 94.698C688.09 94.698 688.664 94.5533 689 94.264C689.336 93.9653 689.504 93.5547 689.504 93.032C689.504 92.5373 689.308 92.1687 688.916 91.926C688.524 91.6833 687.87 91.562 686.956 91.562H686.116V90.148H686.97C687.856 90.148 688.468 90.0033 688.804 89.714C689.14 89.4247 689.308 89.0513 689.308 88.594C689.308 88.1927 689.177 87.88 688.916 87.656C688.654 87.432 688.262 87.32 687.74 87.32C687.236 87.32 686.802 87.404 686.438 87.572C686.074 87.7307 685.747 87.9033 685.458 88.09L684.618 86.872C685 86.592 685.453 86.354 685.976 86.158C686.498 85.962 687.114 85.864 687.824 85.864C688.86 85.864 689.658 86.0833 690.218 86.522C690.787 86.9607 691.072 87.5487 691.072 88.286ZM692.629 91.744C692.629 91.1653 692.667 90.596 692.741 90.036C692.825 89.476 692.97 88.9487 693.175 88.454C693.381 87.95 693.665 87.5067 694.029 87.124C694.393 86.732 694.855 86.4287 695.415 86.214C695.985 85.99 696.671 85.878 697.473 85.878C697.669 85.878 697.893 85.8873 698.145 85.906C698.397 85.9247 698.607 85.9527 698.775 85.99V87.446C698.411 87.3433 698.01 87.292 697.571 87.292C696.731 87.292 696.078 87.446 695.611 87.754C695.145 88.0527 694.818 88.468 694.631 89C694.445 89.5227 694.333 90.1107 694.295 90.764H694.379C694.575 90.4373 694.855 90.162 695.219 89.938C695.583 89.7047 696.055 89.588 696.633 89.588C697.501 89.588 698.197 89.8587 698.719 90.4C699.242 90.9413 699.503 91.7113 699.503 92.71C699.503 93.7833 699.205 94.6233 698.607 95.23C698.01 95.8367 697.203 96.14 696.185 96.14C695.523 96.14 694.921 95.9813 694.379 95.664C693.847 95.3467 693.423 94.866 693.105 94.222C692.788 93.5687 692.629 92.7427 692.629 91.744ZM696.157 94.698C696.633 94.698 697.021 94.5393 697.319 94.222C697.618 93.8953 697.767 93.396 697.767 92.724C697.767 92.1827 697.637 91.758 697.375 91.45C697.114 91.1327 696.722 90.974 696.199 90.974C695.835 90.974 695.518 91.0533 695.247 91.212C694.986 91.3613 694.781 91.5573 694.631 91.8C694.482 92.0333 694.407 92.276 694.407 92.528C694.407 92.8733 694.473 93.214 694.603 93.55C694.734 93.8767 694.925 94.152 695.177 94.376C695.439 94.5907 695.765 94.698 696.157 94.698ZM708.8 88.272C709.686 88.272 710.4 88.6033 710.942 89.266C711.483 89.9193 711.754 90.8947 711.754 92.192C711.754 93.4893 711.474 94.474 710.914 95.146C710.363 95.8087 709.644 96.14 708.758 96.14C708.198 96.14 707.745 96.0373 707.4 95.832C707.054 95.6267 706.779 95.3887 706.574 95.118H706.462C706.49 95.2953 706.513 95.4867 706.532 95.692C706.56 95.8973 706.574 96.0933 706.574 96.28V99.36H704.81V88.412H706.238L706.49 89.42H706.574C706.788 89.1027 707.068 88.832 707.414 88.608C707.759 88.384 708.221 88.272 708.8 88.272ZM708.296 89.7C707.67 89.7 707.227 89.8867 706.966 90.26C706.714 90.6333 706.583 91.198 706.574 91.954V92.178C706.574 92.99 706.695 93.6153 706.938 94.054C707.19 94.4833 707.652 94.698 708.324 94.698C708.874 94.698 709.28 94.474 709.542 94.026C709.812 93.5687 709.948 92.948 709.948 92.164C709.948 91.38 709.812 90.7733 709.542 90.344C709.28 89.9147 708.865 89.7 708.296 89.7ZM714.938 92.122L712.432 88.412H714.434L716.086 90.988L717.738 88.412H719.74L717.206 92.122L719.866 96H717.864L716.086 93.242L714.308 96H712.306L714.938 92.122Z" fill="#D51588"/>
<path d="M677 73H669" stroke="#D51588"/>
<path d="M677 109H669" stroke="#D51588"/>
<path d="M673 73L673 109" stroke="#D51588"/>
<path d="M414.063 138.004L410.605 148H408.687L405.229 138.004H407.063L409.079 144.122C409.135 144.29 409.2 144.509 409.275 144.78C409.349 145.041 409.419 145.312 409.485 145.592C409.559 145.872 409.615 146.115 409.653 146.32C409.69 146.115 409.741 145.877 409.807 145.606C409.872 145.326 409.942 145.055 410.017 144.794C410.091 144.523 410.157 144.299 410.213 144.122L412.229 138.004H414.063ZM417.945 140.272C418.925 140.272 419.667 140.487 420.171 140.916C420.684 141.345 420.941 142.008 420.941 142.904V148H419.695L419.345 146.95H419.289C418.962 147.361 418.617 147.664 418.253 147.86C417.889 148.047 417.394 148.14 416.769 148.14C416.088 148.14 415.523 147.949 415.075 147.566C414.627 147.183 414.403 146.591 414.403 145.788C414.403 145.004 414.688 144.416 415.257 144.024C415.836 143.632 416.708 143.413 417.875 143.366L419.191 143.324V142.946C419.191 142.461 419.074 142.115 418.841 141.91C418.608 141.705 418.281 141.602 417.861 141.602C417.478 141.602 417.11 141.658 416.755 141.77C416.41 141.873 416.064 142.003 415.719 142.162L415.159 140.93C415.532 140.734 415.957 140.575 416.433 140.454C416.918 140.333 417.422 140.272 417.945 140.272ZM419.191 144.416L418.267 144.444C417.492 144.472 416.956 144.607 416.657 144.85C416.358 145.083 416.209 145.401 416.209 145.802C416.209 146.166 416.312 146.427 416.517 146.586C416.732 146.735 417.012 146.81 417.357 146.81C417.87 146.81 418.304 146.665 418.659 146.376C419.014 146.077 419.191 145.639 419.191 145.06V144.416ZM427.128 140.272C427.249 140.272 427.384 140.281 427.534 140.3C427.683 140.309 427.804 140.323 427.898 140.342L427.744 141.98C427.65 141.961 427.534 141.947 427.394 141.938C427.263 141.919 427.151 141.91 427.058 141.91C426.684 141.91 426.334 141.989 426.008 142.148C425.681 142.297 425.415 142.531 425.21 142.848C425.014 143.165 424.916 143.571 424.916 144.066V148H423.152V140.412H424.51L424.762 141.728H424.846C425.07 141.327 425.378 140.986 425.77 140.706C426.162 140.417 426.614 140.272 427.128 140.272ZM430.186 137.486C430.447 137.486 430.676 137.556 430.872 137.696C431.068 137.827 431.166 138.065 431.166 138.41C431.166 138.755 431.068 138.998 430.872 139.138C430.676 139.278 430.447 139.348 430.186 139.348C429.915 139.348 429.682 139.278 429.486 139.138C429.299 138.998 429.206 138.755 429.206 138.41C429.206 138.065 429.299 137.827 429.486 137.696C429.682 137.556 429.915 137.486 430.186 137.486ZM431.068 140.412V148H429.304V140.412H431.068ZM436.347 140.272C437.327 140.272 438.069 140.487 438.573 140.916C439.087 141.345 439.343 142.008 439.343 142.904V148H438.097L437.747 146.95H437.691C437.365 147.361 437.019 147.664 436.655 147.86C436.291 148.047 435.797 148.14 435.171 148.14C434.49 148.14 433.925 147.949 433.477 147.566C433.029 147.183 432.805 146.591 432.805 145.788C432.805 145.004 433.09 144.416 433.659 144.024C434.238 143.632 435.111 143.413 436.277 143.366L437.593 143.324V142.946C437.593 142.461 437.477 142.115 437.243 141.91C437.01 141.705 436.683 141.602 436.263 141.602C435.881 141.602 435.512 141.658 435.157 141.77C434.812 141.873 434.467 142.003 434.121 142.162L433.561 140.93C433.935 140.734 434.359 140.575 434.835 140.454C435.321 140.333 435.825 140.272 436.347 140.272ZM437.593 144.416L436.669 144.444C435.895 144.472 435.358 144.607 435.059 144.85C434.761 145.083 434.611 145.401 434.611 145.802C434.611 146.166 434.714 146.427 434.919 146.586C435.134 146.735 435.414 146.81 435.759 146.81C436.273 146.81 436.707 146.665 437.061 146.376C437.416 146.077 437.593 145.639 437.593 145.06V144.416ZM443.318 137.36V139.88C443.318 140.179 443.309 140.468 443.29 140.748C443.271 141.028 443.253 141.247 443.234 141.406H443.318C443.523 141.089 443.803 140.823 444.158 140.608C444.513 140.384 444.975 140.272 445.544 140.272C446.421 140.272 447.131 140.603 447.672 141.266C448.223 141.929 448.498 142.904 448.498 144.192C448.498 145.499 448.223 146.483 447.672 147.146C447.121 147.809 446.398 148.14 445.502 148.14C444.933 148.14 444.475 148.037 444.13 147.832C443.794 147.627 443.523 147.389 443.318 147.118H443.192L442.87 148H441.554V137.36H443.318ZM445.04 141.7C444.405 141.7 443.962 141.891 443.71 142.274C443.458 142.657 443.327 143.245 443.318 144.038V144.192C443.318 145.004 443.439 145.625 443.682 146.054C443.934 146.483 444.396 146.698 445.068 146.698C445.591 146.698 445.992 146.483 446.272 146.054C446.552 145.615 446.692 144.99 446.692 144.178C446.692 143.347 446.547 142.727 446.258 142.316C445.978 141.905 445.572 141.7 445.04 141.7ZM452.082 148H450.318V137.36H452.082V148ZM457.389 140.272C458.406 140.272 459.209 140.575 459.797 141.182C460.394 141.789 460.693 142.633 460.693 143.716V144.612H455.681C455.7 145.303 455.891 145.839 456.255 146.222C456.619 146.595 457.123 146.782 457.767 146.782C458.252 146.782 458.691 146.735 459.083 146.642C459.475 146.539 459.876 146.395 460.287 146.208V147.622C459.914 147.799 459.526 147.93 459.125 148.014C458.724 148.098 458.243 148.14 457.683 148.14C456.936 148.14 456.278 148 455.709 147.72C455.14 147.431 454.692 147.001 454.365 146.432C454.048 145.853 453.889 145.13 453.889 144.262C453.889 142.965 454.206 141.975 454.841 141.294C455.485 140.613 456.334 140.272 457.389 140.272ZM457.389 141.574C456.913 141.574 456.526 141.728 456.227 142.036C455.938 142.335 455.77 142.783 455.723 143.38H458.985C458.976 142.857 458.84 142.428 458.579 142.092C458.327 141.747 457.93 141.574 457.389 141.574ZM478.247 138.004L475.657 148H473.683L472.101 142.26C472.054 142.073 471.993 141.835 471.919 141.546C471.853 141.247 471.788 140.963 471.723 140.692C471.667 140.412 471.634 140.202 471.625 140.062C471.606 140.202 471.569 140.412 471.513 140.692C471.457 140.963 471.396 141.247 471.331 141.546C471.265 141.835 471.205 142.083 471.149 142.288L469.609 148H467.621L465.045 138.004H466.837L468.209 143.702C468.274 143.945 468.335 144.22 468.391 144.528C468.456 144.836 468.517 145.144 468.573 145.452C468.629 145.751 468.671 146.012 468.699 146.236C468.727 145.993 468.769 145.723 468.825 145.424C468.881 145.116 468.937 144.817 468.993 144.528C469.058 144.229 469.123 143.977 469.189 143.772L470.757 138.004H472.493L474.089 143.786C474.154 144.001 474.219 144.257 474.285 144.556C474.35 144.855 474.411 145.153 474.467 145.452C474.523 145.751 474.565 146.012 474.593 146.236C474.621 146.012 474.663 145.751 474.719 145.452C474.775 145.144 474.835 144.841 474.901 144.542C474.966 144.234 475.027 143.954 475.083 143.702L476.455 138.004H478.247ZM480.334 137.486C480.596 137.486 480.824 137.556 481.02 137.696C481.216 137.827 481.314 138.065 481.314 138.41C481.314 138.755 481.216 138.998 481.02 139.138C480.824 139.278 480.596 139.348 480.334 139.348C480.064 139.348 479.83 139.278 479.634 139.138C479.448 138.998 479.354 138.755 479.354 138.41C479.354 138.065 479.448 137.827 479.634 137.696C479.83 137.556 480.064 137.486 480.334 137.486ZM481.216 140.412V148H479.452V140.412H481.216ZM485.978 148.14C485.101 148.14 484.387 147.813 483.836 147.16C483.295 146.497 483.024 145.517 483.024 144.22C483.024 142.913 483.299 141.929 483.85 141.266C484.401 140.603 485.124 140.272 486.02 140.272C486.58 140.272 487.037 140.379 487.392 140.594C487.756 140.809 488.045 141.07 488.26 141.378H488.344C488.316 141.247 488.288 141.051 488.26 140.79C488.232 140.519 488.218 140.263 488.218 140.02V137.36H489.982V148H488.61L488.288 147.006H488.218C488.003 147.323 487.719 147.594 487.364 147.818C487.009 148.033 486.547 148.14 485.978 148.14ZM486.51 146.712C487.163 146.712 487.621 146.525 487.882 146.152C488.153 145.779 488.293 145.214 488.302 144.458V144.234C488.302 143.422 488.171 142.801 487.91 142.372C487.658 141.933 487.182 141.714 486.482 141.714C485.941 141.714 485.525 141.938 485.236 142.386C484.956 142.825 484.816 143.445 484.816 144.248C484.816 145.051 484.961 145.662 485.25 146.082C485.539 146.502 485.959 146.712 486.51 146.712ZM495.176 146.726C495.39 146.726 495.6 146.707 495.806 146.67C496.02 146.623 496.216 146.572 496.394 146.516V147.832C496.207 147.925 495.964 148 495.666 148.056C495.367 148.112 495.054 148.14 494.728 148.14C494.289 148.14 493.892 148.07 493.538 147.93C493.192 147.79 492.917 147.543 492.712 147.188C492.506 146.833 492.404 146.334 492.404 145.69V141.742H491.382V140.972L492.502 140.356L493.062 138.746H494.168V140.412H496.324V141.742H494.168V145.676C494.168 146.031 494.261 146.297 494.448 146.474C494.644 146.642 494.886 146.726 495.176 146.726ZM499.687 137.36V139.894C499.687 140.193 499.673 140.487 499.645 140.776C499.626 141.056 499.608 141.266 499.589 141.406H499.701C499.944 141.023 500.261 140.739 500.653 140.552C501.045 140.365 501.479 140.272 501.955 140.272C502.814 140.272 503.486 140.496 503.971 140.944C504.456 141.383 504.699 142.087 504.699 143.058V148H502.935V143.408C502.935 142.839 502.823 142.414 502.599 142.134C502.375 141.845 502.02 141.7 501.535 141.7C500.826 141.7 500.34 141.924 500.079 142.372C499.818 142.82 499.687 143.459 499.687 144.29V148H497.923V137.36H499.687Z" fill="#D51588"/>
<path d="M250 121L250 129" stroke="#D51588"/>
<path d="M661 121L661 129" stroke="#D51588"/>
<path d="M250 125L661 125" stroke="#D51588"/>
<defs>
<filter id="filter0_d_9239_665440" x="634" y="84" width="22" height="22" filterUnits="userSpaceOnUse" color-interpolation-filters="sRGB">
<feFlood flood-opacity="0" result="BackgroundImageFix"/>
<feColorMatrix in="SourceAlpha" type="matrix" values="0 0 0 0 0 0 0 0 0 0 0 0 0 0 0 0 0 0 127 0" result="hardAlpha"/>
<feOffset dy="4"/>
<feGaussianBlur stdDeviation="2"/>
<feColorMatrix type="matrix" values="0 0 0 0 0 0 0 0 0 0 0 0 0 0 0 0 0 0 0.25 0"/>
<feBlend mode="normal" in2="BackgroundImageFix" result="effect1_dropShadow_9239_665440"/>
<feBlend mode="normal" in="SourceGraphic" in2="effect1_dropShadow_9239_665440" result="shape"/>
</filter>
</defs>
</svg>
