<svg width="412" height="244" viewBox="0 0 412 244" fill="none" xmlns="http://www.w3.org/2000/svg">
<rect width="412" height="244" fill="white"/>
<rect width="240" height="36" transform="translate(86 16)" fill="white"/>
<path d="M102.012 37.3625C101.912 37.3625 101.812 37.3125 101.762 37.2625L96.1125 31.6625C95.9625 31.5125 95.9625 31.2625 96.1125 31.1125C96.2625 30.9625 96.5125 30.9625 96.6625 31.1125L102.012 36.4625L107.312 31.1125C107.462 30.9625 107.713 30.9625 107.863 31.1125C108.012 31.2625 108.012 31.5125 107.863 31.6625L102.262 37.2625C102.162 37.3125 102.112 37.3625 102.012 37.3625Z" fill="#323232"/>
<path d="M128.08 33.988C128.08 35.024 127.903 35.9293 127.548 36.704C127.203 37.4693 126.685 38.0667 125.994 38.496C125.313 38.9253 124.473 39.14 123.474 39.14C122.438 39.14 121.575 38.9253 120.884 38.496C120.203 38.0667 119.694 37.4647 119.358 36.69C119.022 35.9153 118.854 35.01 118.854 33.974C118.854 32.9567 119.022 32.0653 119.358 31.3C119.694 30.5253 120.203 29.9233 120.884 29.494C121.575 29.0647 122.443 28.85 123.488 28.85C124.487 28.85 125.327 29.0647 126.008 29.494C126.689 29.914 127.203 30.5113 127.548 31.286C127.903 32.0513 128.08 32.952 128.08 33.988ZM120.184 33.988C120.184 35.248 120.45 36.242 120.982 36.97C121.514 37.6887 122.345 38.048 123.474 38.048C124.603 38.048 125.429 37.6887 125.952 36.97C126.484 36.242 126.75 35.248 126.75 33.988C126.75 32.728 126.489 31.7433 125.966 31.034C125.443 30.3153 124.617 29.956 123.488 29.956C122.349 29.956 121.514 30.3153 120.982 31.034C120.45 31.7433 120.184 32.728 120.184 33.988ZM133.74 31.356C134.636 31.356 135.312 31.5753 135.77 32.014C136.227 32.4527 136.456 33.1527 136.456 34.114V39H135.238V34.198C135.238 32.994 134.678 32.392 133.558 32.392C132.727 32.392 132.153 32.6253 131.836 33.092C131.518 33.5587 131.36 34.2307 131.36 35.108V39H130.128V31.496H131.122L131.304 32.518H131.374C131.616 32.126 131.952 31.8367 132.382 31.65C132.811 31.454 133.264 31.356 133.74 31.356ZM141.68 31.356C142.314 31.356 142.865 31.496 143.332 31.776C143.798 32.056 144.153 32.4527 144.396 32.966C144.648 33.47 144.774 34.0627 144.774 34.744V35.486H139.636C139.654 36.3353 139.869 36.984 140.28 37.432C140.7 37.8707 141.283 38.09 142.03 38.09C142.506 38.09 142.926 38.048 143.29 37.964C143.663 37.8707 144.046 37.74 144.438 37.572V38.65C144.055 38.818 143.677 38.9393 143.304 39.014C142.93 39.098 142.487 39.14 141.974 39.14C141.255 39.14 140.625 38.9953 140.084 38.706C139.542 38.4167 139.118 37.9873 138.81 37.418C138.511 36.8487 138.362 36.144 138.362 35.304C138.362 34.4827 138.497 33.778 138.768 33.19C139.048 32.602 139.435 32.1493 139.93 31.832C140.434 31.5147 141.017 31.356 141.68 31.356ZM141.666 32.364C141.078 32.364 140.611 32.5553 140.266 32.938C139.93 33.3113 139.729 33.834 139.664 34.506H143.486C143.476 33.8713 143.327 33.358 143.038 32.966C142.748 32.5647 142.291 32.364 141.666 32.364ZM151.136 29.97C150.063 29.97 149.218 30.3293 148.602 31.048C147.986 31.7667 147.678 32.7513 147.678 34.002C147.678 35.2433 147.963 36.228 148.532 36.956C149.111 37.6747 149.974 38.034 151.122 38.034C151.551 38.034 151.962 37.9967 152.354 37.922C152.746 37.8473 153.133 37.754 153.516 37.642V38.734C153.143 38.874 152.755 38.9767 152.354 39.042C151.962 39.1073 151.491 39.14 150.94 39.14C149.923 39.14 149.073 38.93 148.392 38.51C147.711 38.09 147.197 37.4927 146.852 36.718C146.516 35.9433 146.348 35.0333 146.348 33.988C146.348 32.98 146.53 32.0933 146.894 31.328C147.267 30.5533 147.813 29.9513 148.532 29.522C149.251 29.0833 150.123 28.864 151.15 28.864C152.205 28.864 153.124 29.06 153.908 29.452L153.404 30.516C153.096 30.376 152.751 30.25 152.368 30.138C151.995 30.026 151.584 29.97 151.136 29.97ZM156.762 39H155.53V28.36H156.762V39ZM165.663 35.234C165.663 36.4753 165.346 37.4367 164.711 38.118C164.086 38.7993 163.237 39.14 162.163 39.14C161.501 39.14 160.908 38.9907 160.385 38.692C159.872 38.384 159.466 37.9407 159.167 37.362C158.869 36.774 158.719 36.0647 158.719 35.234C158.719 33.9927 159.027 33.036 159.643 32.364C160.269 31.692 161.123 31.356 162.205 31.356C162.877 31.356 163.475 31.51 163.997 31.818C164.52 32.1167 164.926 32.5553 165.215 33.134C165.514 33.7033 165.663 34.4033 165.663 35.234ZM159.993 35.234C159.993 36.1207 160.166 36.8253 160.511 37.348C160.866 37.8613 161.426 38.118 162.191 38.118C162.947 38.118 163.503 37.8613 163.857 37.348C164.212 36.8253 164.389 36.1207 164.389 35.234C164.389 34.3473 164.212 33.652 163.857 33.148C163.503 32.644 162.943 32.392 162.177 32.392C161.412 32.392 160.857 32.644 160.511 33.148C160.166 33.652 159.993 34.3473 159.993 35.234ZM173.888 31.496V39H172.88L172.698 38.006H172.642C172.399 38.398 172.063 38.6873 171.634 38.874C171.204 39.0513 170.747 39.14 170.262 39.14C169.356 39.14 168.675 38.9253 168.218 38.496C167.76 38.0573 167.532 37.362 167.532 36.41V31.496H168.778V36.326C168.778 37.5207 169.333 38.118 170.444 38.118C171.274 38.118 171.848 37.8847 172.166 37.418C172.492 36.9513 172.656 36.2793 172.656 35.402V31.496H173.888ZM178.93 39.14C177.997 39.14 177.25 38.818 176.69 38.174C176.13 37.5207 175.85 36.55 175.85 35.262C175.85 33.974 176.13 33.0033 176.69 32.35C177.259 31.6873 178.011 31.356 178.944 31.356C179.523 31.356 179.994 31.4633 180.358 31.678C180.731 31.8927 181.035 32.154 181.268 32.462H181.352C181.333 32.3407 181.315 32.1633 181.296 31.93C181.277 31.6873 181.268 31.496 181.268 31.356V28.36H182.5V39H181.506L181.324 37.992H181.268C181.044 38.3093 180.745 38.58 180.372 38.804C179.999 39.028 179.518 39.14 178.93 39.14ZM179.126 38.118C179.919 38.118 180.475 37.9033 180.792 37.474C181.119 37.0353 181.282 36.3773 181.282 35.5V35.276C181.282 34.3427 181.128 33.6287 180.82 33.134C180.512 32.63 179.943 32.378 179.112 32.378C178.449 32.378 177.95 32.644 177.614 33.176C177.287 33.6987 177.124 34.4033 177.124 35.29C177.124 36.186 177.287 36.8813 177.614 37.376C177.95 37.8707 178.454 38.118 179.126 38.118ZM192.972 29.97C191.899 29.97 191.054 30.3293 190.438 31.048C189.822 31.7667 189.514 32.7513 189.514 34.002C189.514 35.2433 189.799 36.228 190.368 36.956C190.947 37.6747 191.81 38.034 192.958 38.034C193.387 38.034 193.798 37.9967 194.19 37.922C194.582 37.8473 194.969 37.754 195.352 37.642V38.734C194.979 38.874 194.591 38.9767 194.19 39.042C193.798 39.1073 193.327 39.14 192.776 39.14C191.759 39.14 190.909 38.93 190.228 38.51C189.547 38.09 189.033 37.4927 188.688 36.718C188.352 35.9433 188.184 35.0333 188.184 33.988C188.184 32.98 188.366 32.0933 188.73 31.328C189.103 30.5533 189.649 29.9513 190.368 29.522C191.087 29.0833 191.959 28.864 192.986 28.864C194.041 28.864 194.96 29.06 195.744 29.452L195.24 30.516C194.932 30.376 194.587 30.25 194.204 30.138C193.831 30.026 193.42 29.97 192.972 29.97ZM201.544 29.97C200.471 29.97 199.626 30.3293 199.01 31.048C198.394 31.7667 198.086 32.7513 198.086 34.002C198.086 35.2433 198.371 36.228 198.94 36.956C199.519 37.6747 200.382 38.034 201.53 38.034C201.96 38.034 202.37 37.9967 202.762 37.922C203.154 37.8473 203.542 37.754 203.924 37.642V38.734C203.551 38.874 203.164 38.9767 202.762 39.042C202.37 39.1073 201.899 39.14 201.348 39.14C200.331 39.14 199.482 38.93 198.8 38.51C198.119 38.09 197.606 37.4927 197.26 36.718C196.924 35.9433 196.756 35.0333 196.756 33.988C196.756 32.98 196.938 32.0933 197.302 31.328C197.676 30.5533 198.222 29.9513 198.94 29.522C199.659 29.0833 200.532 28.864 201.558 28.864C202.613 28.864 203.532 29.06 204.316 29.452L203.812 30.516C203.504 30.376 203.159 30.25 202.776 30.138C202.403 30.026 201.992 29.97 201.544 29.97ZM208.78 31.37C209.695 31.37 210.371 31.5707 210.81 31.972C211.249 32.3733 211.468 33.0127 211.468 33.89V39H210.572L210.334 37.936H210.278C209.951 38.3467 209.606 38.65 209.242 38.846C208.878 39.042 208.383 39.14 207.758 39.14C207.077 39.14 206.512 38.9627 206.064 38.608C205.616 38.244 205.392 37.6793 205.392 36.914C205.392 36.1673 205.686 35.5933 206.274 35.192C206.862 34.7813 207.767 34.5573 208.99 34.52L210.264 34.478V34.03C210.264 33.4047 210.129 32.9707 209.858 32.728C209.587 32.4853 209.205 32.364 208.71 32.364C208.318 32.364 207.945 32.4247 207.59 32.546C207.235 32.658 206.904 32.7887 206.596 32.938L206.218 32.014C206.545 31.8367 206.932 31.6873 207.38 31.566C207.828 31.4353 208.295 31.37 208.78 31.37ZM210.25 35.332L209.144 35.374C208.211 35.4113 207.562 35.5607 207.198 35.822C206.843 36.0833 206.666 36.452 206.666 36.928C206.666 37.348 206.792 37.656 207.044 37.852C207.305 38.048 207.637 38.146 208.038 38.146C208.663 38.146 209.186 37.9733 209.606 37.628C210.035 37.2733 210.25 36.732 210.25 36.004V35.332ZM216.628 31.37C217.542 31.37 218.219 31.5707 218.658 31.972C219.096 32.3733 219.316 33.0127 219.316 33.89V39H218.42L218.182 37.936H218.126C217.799 38.3467 217.454 38.65 217.09 38.846C216.726 39.042 216.231 39.14 215.606 39.14C214.924 39.14 214.36 38.9627 213.912 38.608C213.464 38.244 213.24 37.6793 213.24 36.914C213.24 36.1673 213.534 35.5933 214.122 35.192C214.71 34.7813 215.615 34.5573 216.838 34.52L218.112 34.478V34.03C218.112 33.4047 217.976 32.9707 217.706 32.728C217.435 32.4853 217.052 32.364 216.558 32.364C216.166 32.364 215.792 32.4247 215.438 32.546C215.083 32.658 214.752 32.7887 214.444 32.938L214.066 32.014C214.392 31.8367 214.78 31.6873 215.228 31.566C215.676 31.4353 216.142 31.37 216.628 31.37ZM218.098 35.332L216.992 35.374C216.058 35.4113 215.41 35.5607 215.046 35.822C214.691 36.0833 214.514 36.452 214.514 36.928C214.514 37.348 214.64 37.656 214.892 37.852C215.153 38.048 215.484 38.146 215.886 38.146C216.511 38.146 217.034 37.9733 217.454 37.628C217.883 37.2733 218.098 36.732 218.098 36.004V35.332ZM227.471 36.326C227.471 37.2127 227.149 37.9033 226.505 38.398C225.861 38.8927 224.993 39.14 223.901 39.14C223.341 39.14 222.823 39.098 222.347 39.014C221.871 38.93 221.475 38.8133 221.157 38.664V37.46C221.493 37.6093 221.909 37.7447 222.403 37.866C222.907 37.9873 223.425 38.048 223.957 38.048C224.695 38.048 225.255 37.9033 225.637 37.614C226.02 37.3247 226.211 36.9327 226.211 36.438C226.211 36.1113 226.141 35.836 226.001 35.612C225.861 35.388 225.619 35.1827 225.273 34.996C224.928 34.8093 224.457 34.604 223.859 34.38C223.001 34.072 222.357 33.694 221.927 33.246C221.498 32.798 221.283 32.1867 221.283 31.412C221.283 30.8893 221.419 30.4367 221.689 30.054C221.96 29.6713 222.333 29.3773 222.809 29.172C223.285 28.9667 223.841 28.864 224.475 28.864C225.017 28.864 225.516 28.9153 225.973 29.018C226.431 29.1207 226.851 29.256 227.233 29.424L226.841 30.502C226.496 30.3527 226.118 30.2267 225.707 30.124C225.297 30.0213 224.877 29.97 224.447 29.97C223.822 29.97 223.351 30.1053 223.033 30.376C222.716 30.6373 222.557 30.9873 222.557 31.426C222.557 31.762 222.627 32.042 222.767 32.266C222.907 32.49 223.136 32.6953 223.453 32.882C223.771 33.0593 224.2 33.246 224.741 33.442C225.329 33.6567 225.824 33.89 226.225 34.142C226.636 34.3847 226.944 34.6787 227.149 35.024C227.364 35.3693 227.471 35.8033 227.471 36.326Z" fill="#323232"/>
<rect width="240" height="36" transform="translate(86 60)" fill="white"/>
<path d="M86 60H88V96H86V60Z" fill="#1B77AF"/>
<path d="M126.012 81.3625C125.912 81.3625 125.812 81.3125 125.762 81.2625L120.113 75.6625C119.962 75.5125 119.962 75.2625 120.113 75.1125C120.263 74.9625 120.512 74.9625 120.662 75.1125L126.012 80.4625L131.312 75.1125C131.462 74.9625 131.713 74.9625 131.863 75.1125C132.012 75.2625 132.012 75.5125 131.863 75.6625L126.262 81.2625C126.162 81.3125 126.112 81.3625 126.012 81.3625Z" fill="#323232"/>
<path d="M155.605 75.065H155.47V74.71C155.47 74.34 155.323 73.9852 155.062 73.7236C154.8 73.462 154.445 73.315 154.075 73.315H149.25V72.895C149.25 72.525 149.103 72.1702 148.842 71.9086C148.58 71.647 148.225 71.5 147.855 71.5H144.395C144.025 71.5 143.67 71.647 143.409 71.9086C143.147 72.1702 143 72.525 143 72.895V83.085C142.997 83.2699 143.032 83.4534 143.101 83.625C143.169 83.7966 143.272 83.9527 143.402 84.0844C143.531 84.216 143.686 84.3206 143.857 84.3919C144.027 84.4633 144.21 84.5 144.395 84.5H155.605C155.79 84.5 155.973 84.4633 156.144 84.3919C156.314 84.3206 156.469 84.216 156.599 84.0844C156.728 83.9527 156.831 83.7966 156.9 83.625C156.969 83.4534 157.003 83.2699 157 83.085V76.46C156.999 76.0904 156.851 75.7364 156.59 75.475C156.329 75.2137 155.975 75.0663 155.605 75.065ZM145.04 76.46V83.085C145.04 83.2561 144.972 83.4201 144.851 83.5411C144.73 83.662 144.566 83.73 144.395 83.73C144.224 83.73 144.06 83.662 143.939 83.5411C143.818 83.4201 143.75 83.2561 143.75 83.085V72.895C143.75 72.7239 143.818 72.5599 143.939 72.4389C144.06 72.318 144.224 72.25 144.395 72.25H147.855C148.026 72.25 148.19 72.318 148.311 72.4389C148.432 72.5599 148.5 72.7239 148.5 72.895V73.69C148.5 73.7895 148.54 73.8848 148.61 73.9552C148.68 74.0255 148.776 74.065 148.875 74.065H154.075C154.246 74.065 154.41 74.133 154.531 74.2539C154.652 74.3749 154.72 74.5389 154.72 74.71V75.065H146.435C146.066 75.0663 145.712 75.2137 145.45 75.475C145.189 75.7364 145.041 76.0904 145.04 76.46ZM156.25 83.085C156.25 83.2561 156.182 83.4201 156.061 83.5411C155.94 83.662 155.776 83.73 155.605 83.73H145.605C145.711 83.5313 145.768 83.3101 145.77 83.085V76.46C145.77 76.3736 145.787 76.288 145.821 76.2085C145.855 76.1289 145.904 76.0569 145.966 75.9967C146.028 75.9365 146.102 75.8894 146.182 75.8582C146.263 75.827 146.349 75.8123 146.435 75.815H155.605C155.776 75.815 155.94 75.883 156.061 76.0039C156.182 76.1249 156.25 76.2889 156.25 76.46V83.085Z" fill="#1B77AF"/>
<path d="M179.272 73.004L176.682 83H174.708L173.126 77.26C173.079 77.0733 173.019 76.8353 172.944 76.546C172.879 76.2473 172.813 75.9627 172.748 75.692C172.692 75.412 172.659 75.202 172.65 75.062C172.631 75.202 172.594 75.412 172.538 75.692C172.482 75.9627 172.421 76.2473 172.356 76.546C172.291 76.8353 172.23 77.0827 172.174 77.288L170.634 83H168.646L166.07 73.004H167.862L169.234 78.702C169.299 78.9447 169.36 79.22 169.416 79.528C169.481 79.836 169.542 80.144 169.598 80.452C169.654 80.7507 169.696 81.012 169.724 81.236C169.752 80.9933 169.794 80.7227 169.85 80.424C169.906 80.116 169.962 79.8173 170.018 79.528C170.083 79.2293 170.149 78.9773 170.214 78.772L171.782 73.004H173.518L175.114 78.786C175.179 79.0007 175.245 79.2573 175.31 79.556C175.375 79.8547 175.436 80.1533 175.492 80.452C175.548 80.7507 175.59 81.012 175.618 81.236C175.646 81.012 175.688 80.7507 175.744 80.452C175.8 80.144 175.861 79.8407 175.926 79.542C175.991 79.234 176.052 78.954 176.108 78.702L177.48 73.004H179.272ZM186.98 79.192C186.98 80.452 186.654 81.4273 186 82.118C185.347 82.7993 184.46 83.14 183.34 83.14C182.65 83.14 182.034 82.986 181.492 82.678C180.951 82.37 180.526 81.922 180.218 81.334C179.91 80.746 179.756 80.032 179.756 79.192C179.756 77.932 180.078 76.966 180.722 76.294C181.376 75.6127 182.262 75.272 183.382 75.272C184.082 75.272 184.703 75.426 185.244 75.734C185.786 76.0327 186.21 76.476 186.518 77.064C186.826 77.6427 186.98 78.352 186.98 79.192ZM181.562 79.192C181.562 79.9947 181.702 80.6153 181.982 81.054C182.272 81.4927 182.734 81.712 183.368 81.712C183.994 81.712 184.451 81.4927 184.74 81.054C185.03 80.6153 185.174 79.9947 185.174 79.192C185.174 78.3893 185.03 77.7733 184.74 77.344C184.451 76.9147 183.989 76.7 183.354 76.7C182.72 76.7 182.262 76.9147 181.982 77.344C181.702 77.7733 181.562 78.3893 181.562 79.192ZM192.78 75.272C192.901 75.272 193.037 75.2813 193.186 75.3C193.335 75.3093 193.457 75.3233 193.55 75.342L193.396 76.98C193.303 76.9613 193.186 76.9473 193.046 76.938C192.915 76.9193 192.803 76.91 192.71 76.91C192.337 76.91 191.987 76.9893 191.66 77.148C191.333 77.2973 191.067 77.5307 190.862 77.848C190.666 78.1653 190.568 78.5713 190.568 79.066V83H188.804V75.412H190.162L190.414 76.728H190.498C190.722 76.3267 191.03 75.986 191.422 75.706C191.814 75.4167 192.267 75.272 192.78 75.272ZM196.706 72.36V77.414C196.706 77.6473 196.697 77.904 196.678 78.184C196.66 78.4547 196.641 78.7113 196.622 78.954H196.664C196.786 78.786 196.926 78.5947 197.084 78.38C197.243 78.1653 197.402 77.974 197.56 77.806L199.8 75.412H201.802L198.764 78.688L201.998 83H199.94L197.588 79.752L196.706 80.48V83H194.956V72.36H196.706ZM208.353 80.802C208.353 81.5673 208.077 82.1507 207.527 82.552C206.985 82.944 206.206 83.14 205.189 83.14C204.657 83.14 204.199 83.1027 203.817 83.028C203.443 82.9533 203.079 82.8367 202.725 82.678V81.18C203.098 81.3573 203.509 81.5067 203.957 81.628C204.414 81.7493 204.843 81.81 205.245 81.81C205.73 81.81 206.08 81.7353 206.295 81.586C206.509 81.4367 206.617 81.236 206.617 80.984C206.617 80.8347 206.575 80.704 206.491 80.592C206.407 80.4707 206.243 80.34 206.001 80.2C205.758 80.06 205.389 79.8873 204.895 79.682C204.409 79.486 204.003 79.29 203.677 79.094C203.359 78.898 203.117 78.6647 202.949 78.394C202.79 78.1233 202.711 77.7733 202.711 77.344C202.711 76.6627 202.981 76.1493 203.523 75.804C204.064 75.4493 204.778 75.272 205.665 75.272C206.131 75.272 206.57 75.3187 206.981 75.412C207.401 75.5053 207.821 75.6453 208.241 75.832L207.681 77.134C207.326 76.9847 206.981 76.8587 206.645 76.756C206.309 76.6533 205.963 76.602 205.609 76.602C204.834 76.602 204.447 76.8213 204.447 77.26C204.447 77.4187 204.493 77.554 204.587 77.666C204.689 77.778 204.862 77.8993 205.105 78.03C205.357 78.1513 205.711 78.3007 206.169 78.478C206.617 78.6553 207.004 78.842 207.331 79.038C207.657 79.2247 207.909 79.458 208.087 79.738C208.264 80.0087 208.353 80.3633 208.353 80.802ZM214.04 75.272C214.927 75.272 215.641 75.6033 216.182 76.266C216.723 76.9193 216.994 77.8947 216.994 79.192C216.994 80.4893 216.714 81.474 216.154 82.146C215.603 82.8087 214.885 83.14 213.998 83.14C213.438 83.14 212.985 83.0373 212.64 82.832C212.295 82.6267 212.019 82.3887 211.814 82.118H211.702C211.73 82.2953 211.753 82.4867 211.772 82.692C211.8 82.8973 211.814 83.0933 211.814 83.28V86.36H210.05V75.412H211.478L211.73 76.42H211.814C212.029 76.1027 212.309 75.832 212.654 75.608C212.999 75.384 213.461 75.272 214.04 75.272ZM213.536 76.7C212.911 76.7 212.467 76.8867 212.206 77.26C211.954 77.6333 211.823 78.198 211.814 78.954V79.178C211.814 79.99 211.935 80.6153 212.178 81.054C212.43 81.4833 212.892 81.698 213.564 81.698C214.115 81.698 214.521 81.474 214.782 81.026C215.053 80.5687 215.188 79.948 215.188 79.164C215.188 78.38 215.053 77.7733 214.782 77.344C214.521 76.9147 214.105 76.7 213.536 76.7ZM221.838 75.272C222.818 75.272 223.56 75.4867 224.064 75.916C224.577 76.3453 224.834 77.008 224.834 77.904V83H223.588L223.238 81.95H223.182C222.855 82.3607 222.51 82.664 222.146 82.86C221.782 83.0467 221.287 83.14 220.662 83.14C219.98 83.14 219.416 82.9487 218.968 82.566C218.52 82.1833 218.296 81.5907 218.296 80.788C218.296 80.004 218.58 79.416 219.15 79.024C219.728 78.632 220.601 78.4127 221.768 78.366L223.084 78.324V77.946C223.084 77.4607 222.967 77.1153 222.734 76.91C222.5 76.7047 222.174 76.602 221.754 76.602C221.371 76.602 221.002 76.658 220.648 76.77C220.302 76.8727 219.957 77.0033 219.612 77.162L219.052 75.93C219.425 75.734 219.85 75.5753 220.326 75.454C220.811 75.3327 221.315 75.272 221.838 75.272ZM223.084 79.416L222.16 79.444C221.385 79.472 220.848 79.6073 220.55 79.85C220.251 80.0833 220.102 80.4007 220.102 80.802C220.102 81.166 220.204 81.4273 220.41 81.586C220.624 81.7353 220.904 81.81 221.25 81.81C221.763 81.81 222.197 81.6653 222.552 81.376C222.906 81.0773 223.084 80.6387 223.084 80.06V79.416ZM230.11 83.14C229.027 83.14 228.169 82.8273 227.534 82.202C226.909 81.5767 226.596 80.592 226.596 79.248C226.596 78.3147 226.75 77.5587 227.058 76.98C227.375 76.392 227.809 75.9627 228.36 75.692C228.911 75.412 229.541 75.272 230.25 75.272C230.717 75.272 231.137 75.3187 231.51 75.412C231.893 75.5053 232.215 75.6173 232.476 75.748L231.958 77.134C231.659 77.022 231.365 76.9287 231.076 76.854C230.787 76.77 230.511 76.728 230.25 76.728C229.018 76.728 228.402 77.5633 228.402 79.234C228.402 80.046 228.556 80.6573 228.864 81.068C229.181 81.4787 229.634 81.684 230.222 81.684C230.642 81.684 231.015 81.6327 231.342 81.53C231.678 81.4273 231.991 81.2873 232.28 81.11V82.636C231.991 82.8133 231.678 82.9393 231.342 83.014C231.006 83.098 230.595 83.14 230.11 83.14ZM237.11 75.272C238.127 75.272 238.93 75.5753 239.518 76.182C240.115 76.7887 240.414 77.6333 240.414 78.716V79.612H235.402C235.42 80.3027 235.612 80.8393 235.976 81.222C236.34 81.5953 236.844 81.782 237.488 81.782C237.973 81.782 238.412 81.7353 238.804 81.642C239.196 81.5393 239.597 81.3947 240.008 81.208V82.622C239.634 82.7993 239.247 82.93 238.846 83.014C238.444 83.098 237.964 83.14 237.404 83.14C236.657 83.14 235.999 83 235.43 82.72C234.86 82.4307 234.412 82.0013 234.086 81.432C233.768 80.8533 233.61 80.13 233.61 79.262C233.61 77.9647 233.927 76.9753 234.562 76.294C235.206 75.6127 236.055 75.272 237.11 75.272ZM237.11 76.574C236.634 76.574 236.246 76.728 235.948 77.036C235.658 77.3347 235.49 77.7827 235.444 78.38H238.706C238.696 77.8573 238.561 77.428 238.3 77.092C238.048 76.7467 237.651 76.574 237.11 76.574ZM247.359 80.802C247.359 81.5673 247.083 82.1507 246.533 82.552C245.991 82.944 245.212 83.14 244.195 83.14C243.663 83.14 243.205 83.1027 242.823 83.028C242.449 82.9533 242.085 82.8367 241.731 82.678V81.18C242.104 81.3573 242.515 81.5067 242.963 81.628C243.42 81.7493 243.849 81.81 244.251 81.81C244.736 81.81 245.086 81.7353 245.301 81.586C245.515 81.4367 245.623 81.236 245.623 80.984C245.623 80.8347 245.581 80.704 245.497 80.592C245.413 80.4707 245.249 80.34 245.007 80.2C244.764 80.06 244.395 79.8873 243.901 79.682C243.415 79.486 243.009 79.29 242.683 79.094C242.365 78.898 242.123 78.6647 241.955 78.394C241.796 78.1233 241.717 77.7733 241.717 77.344C241.717 76.6627 241.987 76.1493 242.529 75.804C243.07 75.4493 243.784 75.272 244.671 75.272C245.137 75.272 245.576 75.3187 245.987 75.412C246.407 75.5053 246.827 75.6453 247.247 75.832L246.687 77.134C246.332 76.9847 245.987 76.8587 245.651 76.756C245.315 76.6533 244.969 76.602 244.615 76.602C243.84 76.602 243.453 76.8213 243.453 77.26C243.453 77.4187 243.499 77.554 243.593 77.666C243.695 77.778 243.868 77.8993 244.111 78.03C244.363 78.1513 244.717 78.3007 245.175 78.478C245.623 78.6553 246.01 78.842 246.337 79.038C246.663 79.2247 246.915 79.458 247.093 79.738C247.27 80.0087 247.359 80.3633 247.359 80.802Z" fill="#1B77AF"/>
<rect width="240" height="36" transform="translate(86 104)" fill="white"/>
<path d="M123.412 127.962C123.312 127.962 123.212 127.913 123.162 127.863C123.013 127.713 123.013 127.462 123.162 127.312L128.462 122.012L123.112 116.662C122.963 116.512 122.963 116.263 123.112 116.113C123.262 115.962 123.512 115.962 123.662 116.113L129.262 121.712C129.312 121.762 129.362 121.862 129.362 121.962C129.362 122.062 129.312 122.162 129.262 122.212L123.662 127.863C123.562 127.963 123.463 127.962 123.412 127.962Z" fill="#323232"/>
<path d="M149.63 127L148.426 123.906H144.464L143.274 127H142L145.906 116.962H147.04L150.932 127H149.63ZM148.048 122.786L146.928 119.762C146.9 119.687 146.853 119.552 146.788 119.356C146.723 119.16 146.657 118.959 146.592 118.754C146.536 118.539 146.489 118.376 146.452 118.264C146.377 118.553 146.298 118.838 146.214 119.118C146.139 119.389 146.074 119.603 146.018 119.762L144.884 122.786H148.048ZM154.791 127.14C153.858 127.14 153.111 126.818 152.551 126.174C151.991 125.521 151.711 124.55 151.711 123.262C151.711 121.974 151.991 121.003 152.551 120.35C153.121 119.687 153.872 119.356 154.805 119.356C155.384 119.356 155.855 119.463 156.219 119.678C156.593 119.893 156.896 120.154 157.129 120.462H157.213C157.195 120.341 157.176 120.163 157.157 119.93C157.139 119.687 157.129 119.496 157.129 119.356V116.36H158.361V127H157.367L157.185 125.992H157.129C156.905 126.309 156.607 126.58 156.233 126.804C155.86 127.028 155.379 127.14 154.791 127.14ZM154.987 126.118C155.781 126.118 156.336 125.903 156.653 125.474C156.98 125.035 157.143 124.377 157.143 123.5V123.276C157.143 122.343 156.989 121.629 156.681 121.134C156.373 120.63 155.804 120.378 154.973 120.378C154.311 120.378 153.811 120.644 153.475 121.176C153.149 121.699 152.985 122.403 152.985 123.29C152.985 124.186 153.149 124.881 153.475 125.376C153.811 125.871 154.315 126.118 154.987 126.118ZM168.977 119.356C169.826 119.356 170.461 119.575 170.881 120.014C171.301 120.453 171.511 121.153 171.511 122.114V127H170.293V122.17C170.293 120.985 169.784 120.392 168.767 120.392C168.039 120.392 167.516 120.602 167.199 121.022C166.891 121.442 166.737 122.053 166.737 122.856V127H165.519V122.17C165.519 120.985 165.005 120.392 163.979 120.392C163.223 120.392 162.7 120.625 162.411 121.092C162.121 121.559 161.977 122.231 161.977 123.108V127H160.745V119.496H161.739L161.921 120.518H161.991C162.224 120.126 162.537 119.837 162.929 119.65C163.33 119.454 163.755 119.356 164.203 119.356C165.379 119.356 166.144 119.776 166.499 120.616H166.569C166.821 120.187 167.161 119.869 167.591 119.664C168.02 119.459 168.482 119.356 168.977 119.356ZM174.459 116.682C174.645 116.682 174.809 116.747 174.949 116.878C175.098 116.999 175.173 117.195 175.173 117.466C175.173 117.737 175.098 117.937 174.949 118.068C174.809 118.189 174.645 118.25 174.459 118.25C174.253 118.25 174.081 118.189 173.941 118.068C173.801 117.937 173.731 117.737 173.731 117.466C173.731 117.195 173.801 116.999 173.941 116.878C174.081 116.747 174.253 116.682 174.459 116.682ZM175.061 119.496V127H173.829V119.496H175.061ZM181.05 119.356C181.946 119.356 182.623 119.575 183.08 120.014C183.537 120.453 183.766 121.153 183.766 122.114V127H182.548V122.198C182.548 120.994 181.988 120.392 180.868 120.392C180.037 120.392 179.463 120.625 179.146 121.092C178.829 121.559 178.67 122.231 178.67 123.108V127H177.438V119.496H178.432L178.614 120.518H178.684C178.927 120.126 179.263 119.837 179.692 119.65C180.121 119.454 180.574 119.356 181.05 119.356Z" fill="#323232"/>
<rect width="240" height="36" transform="translate(86 148)" fill="white"/>
<path d="M123.412 171.962C123.312 171.962 123.212 171.913 123.162 171.863C123.013 171.713 123.013 171.462 123.162 171.312L128.462 166.012L123.112 160.662C122.963 160.512 122.963 160.263 123.112 160.113C123.262 159.962 123.512 159.962 123.662 160.113L129.262 165.712C129.312 165.762 129.362 165.862 129.362 165.962C129.362 166.062 129.312 166.162 129.262 166.212L123.662 171.863C123.562 171.963 123.463 171.962 123.412 171.962Z" fill="#323232"/>
<path d="M155.605 163.065H155.47V162.71C155.47 162.34 155.323 161.985 155.062 161.724C154.8 161.462 154.445 161.315 154.075 161.315H149.25V160.895C149.25 160.525 149.103 160.17 148.842 159.909C148.58 159.647 148.225 159.5 147.855 159.5H144.395C144.025 159.5 143.67 159.647 143.409 159.909C143.147 160.17 143 160.525 143 160.895V171.085C142.997 171.27 143.032 171.453 143.101 171.625C143.169 171.797 143.272 171.953 143.402 172.084C143.531 172.216 143.686 172.321 143.857 172.392C144.027 172.463 144.21 172.5 144.395 172.5H155.605C155.79 172.5 155.973 172.463 156.144 172.392C156.314 172.321 156.469 172.216 156.599 172.084C156.728 171.953 156.831 171.797 156.9 171.625C156.969 171.453 157.003 171.27 157 171.085V164.46C156.999 164.09 156.851 163.736 156.59 163.475C156.329 163.214 155.975 163.066 155.605 163.065ZM145.04 164.46V171.085C145.04 171.256 144.972 171.42 144.851 171.541C144.73 171.662 144.566 171.73 144.395 171.73C144.224 171.73 144.06 171.662 143.939 171.541C143.818 171.42 143.75 171.256 143.75 171.085V160.895C143.75 160.724 143.818 160.56 143.939 160.439C144.06 160.318 144.224 160.25 144.395 160.25H147.855C148.026 160.25 148.19 160.318 148.311 160.439C148.432 160.56 148.5 160.724 148.5 160.895V161.69C148.5 161.789 148.54 161.885 148.61 161.955C148.68 162.025 148.776 162.065 148.875 162.065H154.075C154.246 162.065 154.41 162.133 154.531 162.254C154.652 162.375 154.72 162.539 154.72 162.71V163.065H146.435C146.066 163.066 145.712 163.214 145.45 163.475C145.189 163.736 145.041 164.09 145.04 164.46ZM156.25 171.085C156.25 171.256 156.182 171.42 156.061 171.541C155.94 171.662 155.776 171.73 155.605 171.73H145.605C145.711 171.531 145.768 171.31 145.77 171.085V164.46C145.77 164.374 145.787 164.288 145.821 164.208C145.855 164.129 145.904 164.057 145.966 163.997C146.028 163.937 146.102 163.889 146.182 163.858C146.263 163.827 146.349 163.812 146.435 163.815H155.605C155.776 163.815 155.94 163.883 156.061 164.004C156.182 164.125 156.25 164.289 156.25 164.46V171.085Z" fill="black"/>
<path d="M176.08 165.988C176.08 167.024 175.903 167.929 175.548 168.704C175.203 169.469 174.685 170.067 173.994 170.496C173.313 170.925 172.473 171.14 171.474 171.14C170.438 171.14 169.575 170.925 168.884 170.496C168.203 170.067 167.694 169.465 167.358 168.69C167.022 167.915 166.854 167.01 166.854 165.974C166.854 164.957 167.022 164.065 167.358 163.3C167.694 162.525 168.203 161.923 168.884 161.494C169.575 161.065 170.443 160.85 171.488 160.85C172.487 160.85 173.327 161.065 174.008 161.494C174.689 161.914 175.203 162.511 175.548 163.286C175.903 164.051 176.08 164.952 176.08 165.988ZM168.184 165.988C168.184 167.248 168.45 168.242 168.982 168.97C169.514 169.689 170.345 170.048 171.474 170.048C172.603 170.048 173.429 169.689 173.952 168.97C174.484 168.242 174.75 167.248 174.75 165.988C174.75 164.728 174.489 163.743 173.966 163.034C173.443 162.315 172.617 161.956 171.488 161.956C170.349 161.956 169.514 162.315 168.982 163.034C168.45 163.743 168.184 164.728 168.184 165.988ZM181.628 163.356C181.768 163.356 181.917 163.365 182.076 163.384C182.234 163.393 182.379 163.412 182.51 163.44L182.356 164.574C182.234 164.546 182.099 164.523 181.95 164.504C181.8 164.485 181.665 164.476 181.544 164.476C181.161 164.476 180.802 164.583 180.466 164.798C180.13 165.003 179.859 165.297 179.654 165.68C179.458 166.053 179.36 166.492 179.36 166.996V171H178.128V163.496H179.136L179.276 164.868H179.332C179.565 164.457 179.873 164.103 180.256 163.804C180.648 163.505 181.105 163.356 181.628 163.356ZM186.647 171.14C185.975 171.14 185.383 171.005 184.869 170.734C184.356 170.463 183.95 170.043 183.651 169.474C183.362 168.905 183.217 168.177 183.217 167.29C183.217 166.366 183.367 165.615 183.665 165.036C183.973 164.457 184.393 164.033 184.925 163.762C185.457 163.491 186.059 163.356 186.731 163.356C187.105 163.356 187.469 163.398 187.823 163.482C188.187 163.557 188.481 163.65 188.705 163.762L188.327 164.784C188.103 164.7 187.842 164.621 187.543 164.546C187.245 164.471 186.965 164.434 186.703 164.434C185.229 164.434 184.491 165.381 184.491 167.276C184.491 168.181 184.669 168.877 185.023 169.362C185.387 169.838 185.924 170.076 186.633 170.076C187.035 170.076 187.394 170.034 187.711 169.95C188.029 169.866 188.318 169.763 188.579 169.642V170.734C188.327 170.865 188.047 170.963 187.739 171.028C187.441 171.103 187.077 171.14 186.647 171.14ZM191.596 160.36V163.482C191.596 163.855 191.572 164.205 191.526 164.532H191.61C191.852 164.149 192.179 163.86 192.59 163.664C193.01 163.468 193.462 163.37 193.948 163.37C194.853 163.37 195.534 163.589 195.992 164.028C196.458 164.457 196.692 165.153 196.692 166.114V171H195.474V166.198C195.474 164.994 194.914 164.392 193.794 164.392C192.954 164.392 192.375 164.63 192.058 165.106C191.75 165.573 191.596 166.245 191.596 167.122V171H190.364V160.36H191.596ZM201.916 163.356C202.551 163.356 203.101 163.496 203.568 163.776C204.035 164.056 204.389 164.453 204.632 164.966C204.884 165.47 205.01 166.063 205.01 166.744V167.486H199.872C199.891 168.335 200.105 168.984 200.516 169.432C200.936 169.871 201.519 170.09 202.266 170.09C202.742 170.09 203.162 170.048 203.526 169.964C203.899 169.871 204.282 169.74 204.674 169.572V170.65C204.291 170.818 203.913 170.939 203.54 171.014C203.167 171.098 202.723 171.14 202.21 171.14C201.491 171.14 200.861 170.995 200.32 170.706C199.779 170.417 199.354 169.987 199.046 169.418C198.747 168.849 198.598 168.144 198.598 167.304C198.598 166.483 198.733 165.778 199.004 165.19C199.284 164.602 199.671 164.149 200.166 163.832C200.67 163.515 201.253 163.356 201.916 163.356ZM201.902 164.364C201.314 164.364 200.847 164.555 200.502 164.938C200.166 165.311 199.965 165.834 199.9 166.506H203.722C203.713 165.871 203.563 165.358 203.274 164.966C202.985 164.565 202.527 164.364 201.902 164.364ZM211.806 168.928C211.806 169.656 211.536 170.207 210.994 170.58C210.453 170.953 209.725 171.14 208.81 171.14C208.288 171.14 207.835 171.098 207.452 171.014C207.079 170.93 206.748 170.813 206.458 170.664V169.544C206.757 169.693 207.116 169.833 207.536 169.964C207.966 170.085 208.4 170.146 208.838 170.146C209.464 170.146 209.916 170.048 210.196 169.852C210.476 169.647 210.616 169.376 210.616 169.04C210.616 168.853 210.565 168.685 210.462 168.536C210.36 168.387 210.173 168.237 209.902 168.088C209.641 167.939 209.263 167.771 208.768 167.584C208.283 167.397 207.868 167.211 207.522 167.024C207.177 166.837 206.911 166.613 206.724 166.352C206.538 166.091 206.444 165.755 206.444 165.344C206.444 164.709 206.701 164.219 207.214 163.874C207.737 163.529 208.418 163.356 209.258 163.356C209.716 163.356 210.14 163.403 210.532 163.496C210.934 163.589 211.307 163.711 211.652 163.86L211.232 164.84C210.915 164.709 210.584 164.597 210.238 164.504C209.893 164.411 209.538 164.364 209.174 164.364C208.67 164.364 208.283 164.448 208.012 164.616C207.751 164.775 207.62 164.994 207.62 165.274C207.62 165.489 207.681 165.666 207.802 165.806C207.924 165.946 208.124 166.086 208.404 166.226C208.694 166.366 209.076 166.525 209.552 166.702C210.028 166.879 210.434 167.061 210.77 167.248C211.106 167.435 211.363 167.663 211.54 167.934C211.718 168.195 211.806 168.527 211.806 168.928ZM216.126 170.132C216.312 170.132 216.504 170.118 216.7 170.09C216.896 170.062 217.054 170.025 217.176 169.978V170.916C217.045 170.981 216.858 171.033 216.616 171.07C216.373 171.117 216.14 171.14 215.916 171.14C215.524 171.14 215.16 171.075 214.824 170.944C214.497 170.804 214.231 170.566 214.026 170.23C213.82 169.894 213.718 169.423 213.718 168.816V164.448H212.654V163.86L213.732 163.37L214.222 161.774H214.95V163.496H217.12V164.448H214.95V168.788C214.95 169.245 215.057 169.586 215.272 169.81C215.496 170.025 215.78 170.132 216.126 170.132ZM222.178 163.356C222.318 163.356 222.468 163.365 222.626 163.384C222.785 163.393 222.93 163.412 223.06 163.44L222.906 164.574C222.785 164.546 222.65 164.523 222.5 164.504C222.351 164.485 222.216 164.476 222.094 164.476C221.712 164.476 221.352 164.583 221.016 164.798C220.68 165.003 220.41 165.297 220.204 165.68C220.008 166.053 219.91 166.492 219.91 166.996V171H218.678V163.496H219.686L219.826 164.868H219.882C220.116 164.457 220.424 164.103 220.806 163.804C221.198 163.505 221.656 163.356 222.178 163.356ZM227.03 163.37C227.945 163.37 228.621 163.571 229.06 163.972C229.499 164.373 229.718 165.013 229.718 165.89V171H228.822L228.584 169.936H228.528C228.201 170.347 227.856 170.65 227.492 170.846C227.128 171.042 226.633 171.14 226.008 171.14C225.327 171.14 224.762 170.963 224.314 170.608C223.866 170.244 223.642 169.679 223.642 168.914C223.642 168.167 223.936 167.593 224.524 167.192C225.112 166.781 226.017 166.557 227.24 166.52L228.514 166.478V166.03C228.514 165.405 228.379 164.971 228.108 164.728C227.837 164.485 227.455 164.364 226.96 164.364C226.568 164.364 226.195 164.425 225.84 164.546C225.485 164.658 225.154 164.789 224.846 164.938L224.468 164.014C224.795 163.837 225.182 163.687 225.63 163.566C226.078 163.435 226.545 163.37 227.03 163.37ZM228.5 167.332L227.394 167.374C226.461 167.411 225.812 167.561 225.448 167.822C225.093 168.083 224.916 168.452 224.916 168.928C224.916 169.348 225.042 169.656 225.294 169.852C225.555 170.048 225.887 170.146 226.288 170.146C226.913 170.146 227.436 169.973 227.856 169.628C228.285 169.273 228.5 168.732 228.5 168.004V167.332ZM234.542 170.132C234.728 170.132 234.92 170.118 235.116 170.09C235.312 170.062 235.47 170.025 235.592 169.978V170.916C235.461 170.981 235.274 171.033 235.032 171.07C234.789 171.117 234.556 171.14 234.332 171.14C233.94 171.14 233.576 171.075 233.24 170.944C232.913 170.804 232.647 170.566 232.442 170.23C232.236 169.894 232.134 169.423 232.134 168.816V164.448H231.07V163.86L232.148 163.37L232.638 161.774H233.366V163.496H235.536V164.448H233.366V168.788C233.366 169.245 233.473 169.586 233.688 169.81C233.912 170.025 234.196 170.132 234.542 170.132ZM237.724 160.682C237.911 160.682 238.074 160.747 238.214 160.878C238.364 160.999 238.438 161.195 238.438 161.466C238.438 161.737 238.364 161.937 238.214 162.068C238.074 162.189 237.911 162.25 237.724 162.25C237.519 162.25 237.346 162.189 237.206 162.068C237.066 161.937 236.996 161.737 236.996 161.466C236.996 161.195 237.066 160.999 237.206 160.878C237.346 160.747 237.519 160.682 237.724 160.682ZM238.326 163.496V171H237.094V163.496H238.326ZM247.228 167.234C247.228 168.475 246.91 169.437 246.276 170.118C245.65 170.799 244.801 171.14 243.728 171.14C243.065 171.14 242.472 170.991 241.95 170.692C241.436 170.384 241.03 169.941 240.732 169.362C240.433 168.774 240.284 168.065 240.284 167.234C240.284 165.993 240.592 165.036 241.208 164.364C241.833 163.692 242.687 163.356 243.77 163.356C244.442 163.356 245.039 163.51 245.562 163.818C246.084 164.117 246.49 164.555 246.78 165.134C247.078 165.703 247.228 166.403 247.228 167.234ZM241.558 167.234C241.558 168.121 241.73 168.825 242.076 169.348C242.43 169.861 242.99 170.118 243.756 170.118C244.512 170.118 245.067 169.861 245.422 169.348C245.776 168.825 245.954 168.121 245.954 167.234C245.954 166.347 245.776 165.652 245.422 165.148C245.067 164.644 244.507 164.392 243.742 164.392C242.976 164.392 242.421 164.644 242.076 165.148C241.73 165.652 241.558 166.347 241.558 167.234ZM252.792 163.356C253.688 163.356 254.365 163.575 254.822 164.014C255.28 164.453 255.508 165.153 255.508 166.114V171H254.29V166.198C254.29 164.994 253.73 164.392 252.61 164.392C251.78 164.392 251.206 164.625 250.888 165.092C250.571 165.559 250.412 166.231 250.412 167.108V171H249.18V163.496H250.174L250.356 164.518H250.426C250.669 164.126 251.005 163.837 251.434 163.65C251.864 163.454 252.316 163.356 252.792 163.356Z" fill="#323232"/>
<rect width="240" height="36" transform="translate(86 192)" fill="white"/>
<path d="M169.85 215.14C168.917 215.14 168.17 214.818 167.61 214.174C167.05 213.521 166.77 212.55 166.77 211.262C166.77 209.974 167.05 209.003 167.61 208.35C168.179 207.687 168.931 207.356 169.864 207.356C170.443 207.356 170.914 207.463 171.278 207.678C171.651 207.893 171.955 208.154 172.188 208.462H172.272C172.253 208.341 172.235 208.163 172.216 207.93C172.197 207.687 172.188 207.496 172.188 207.356V204.36H173.42V215H172.426L172.244 213.992H172.188C171.964 214.309 171.665 214.58 171.292 214.804C170.919 215.028 170.438 215.14 169.85 215.14ZM170.046 214.118C170.839 214.118 171.395 213.903 171.712 213.474C172.039 213.035 172.202 212.377 172.202 211.5V211.276C172.202 210.343 172.048 209.629 171.74 209.134C171.432 208.63 170.863 208.378 170.032 208.378C169.369 208.378 168.87 208.644 168.534 209.176C168.207 209.699 168.044 210.403 168.044 211.29C168.044 212.186 168.207 212.881 168.534 213.376C168.87 213.871 169.374 214.118 170.046 214.118ZM178.701 207.356C179.336 207.356 179.887 207.496 180.353 207.776C180.82 208.056 181.175 208.453 181.417 208.966C181.669 209.47 181.795 210.063 181.795 210.744V211.486H176.657C176.676 212.335 176.891 212.984 177.301 213.432C177.721 213.871 178.305 214.09 179.051 214.09C179.527 214.09 179.947 214.048 180.311 213.964C180.685 213.871 181.067 213.74 181.459 213.572V214.65C181.077 214.818 180.699 214.939 180.325 215.014C179.952 215.098 179.509 215.14 178.995 215.14C178.277 215.14 177.647 214.995 177.105 214.706C176.564 214.417 176.139 213.987 175.831 213.418C175.533 212.849 175.383 212.144 175.383 211.304C175.383 210.483 175.519 209.778 175.789 209.19C176.069 208.602 176.457 208.149 176.951 207.832C177.455 207.515 178.039 207.356 178.701 207.356ZM178.687 208.364C178.099 208.364 177.633 208.555 177.287 208.938C176.951 209.311 176.751 209.834 176.685 210.506H180.507C180.498 209.871 180.349 209.358 180.059 208.966C179.77 208.565 179.313 208.364 178.687 208.364ZM188.592 212.928C188.592 213.656 188.321 214.207 187.78 214.58C187.238 214.953 186.51 215.14 185.596 215.14C185.073 215.14 184.62 215.098 184.238 215.014C183.864 214.93 183.533 214.813 183.244 214.664V213.544C183.542 213.693 183.902 213.833 184.322 213.964C184.751 214.085 185.185 214.146 185.624 214.146C186.249 214.146 186.702 214.048 186.982 213.852C187.262 213.647 187.402 213.376 187.402 213.04C187.402 212.853 187.35 212.685 187.248 212.536C187.145 212.387 186.958 212.237 186.688 212.088C186.426 211.939 186.048 211.771 185.554 211.584C185.068 211.397 184.653 211.211 184.308 211.024C183.962 210.837 183.696 210.613 183.51 210.352C183.323 210.091 183.23 209.755 183.23 209.344C183.23 208.709 183.486 208.219 184 207.874C184.522 207.529 185.204 207.356 186.044 207.356C186.501 207.356 186.926 207.403 187.318 207.496C187.719 207.589 188.092 207.711 188.438 207.86L188.018 208.84C187.7 208.709 187.369 208.597 187.024 208.504C186.678 208.411 186.324 208.364 185.96 208.364C185.456 208.364 185.068 208.448 184.798 208.616C184.536 208.775 184.406 208.994 184.406 209.274C184.406 209.489 184.466 209.666 184.588 209.806C184.709 209.946 184.91 210.086 185.19 210.226C185.479 210.366 185.862 210.525 186.338 210.702C186.814 210.879 187.22 211.061 187.556 211.248C187.892 211.435 188.148 211.663 188.326 211.934C188.503 212.195 188.592 212.527 188.592 212.928ZM191.035 204.682C191.222 204.682 191.385 204.747 191.525 204.878C191.674 204.999 191.749 205.195 191.749 205.466C191.749 205.737 191.674 205.937 191.525 206.068C191.385 206.189 191.222 206.25 191.035 206.25C190.83 206.25 190.657 206.189 190.517 206.068C190.377 205.937 190.307 205.737 190.307 205.466C190.307 205.195 190.377 204.999 190.517 204.878C190.657 204.747 190.83 204.682 191.035 204.682ZM191.637 207.496V215H190.405V207.496H191.637ZM196.674 207.356C197.169 207.356 197.612 207.449 198.004 207.636C198.406 207.823 198.746 208.107 199.026 208.49H199.096L199.264 207.496H200.244V215.126C200.244 216.199 199.969 217.007 199.418 217.548C198.877 218.089 198.032 218.36 196.884 218.36C195.783 218.36 194.882 218.201 194.182 217.884V216.75C194.92 217.142 195.844 217.338 196.954 217.338C197.598 217.338 198.102 217.147 198.466 216.764C198.84 216.391 199.026 215.877 199.026 215.224V214.93C199.026 214.818 199.031 214.659 199.04 214.454C199.05 214.239 199.059 214.09 199.068 214.006H199.012C198.508 214.762 197.734 215.14 196.688 215.14C195.718 215.14 194.957 214.799 194.406 214.118C193.865 213.437 193.594 212.485 193.594 211.262C193.594 210.067 193.865 209.12 194.406 208.42C194.957 207.711 195.713 207.356 196.674 207.356ZM196.842 208.392C196.217 208.392 195.732 208.644 195.386 209.148C195.041 209.643 194.868 210.352 194.868 211.276C194.868 212.2 195.036 212.909 195.372 213.404C195.708 213.889 196.208 214.132 196.87 214.132C197.626 214.132 198.177 213.931 198.522 213.53C198.868 213.119 199.04 212.461 199.04 211.556V211.262C199.04 210.245 198.863 209.512 198.508 209.064C198.154 208.616 197.598 208.392 196.842 208.392ZM206.24 207.356C207.136 207.356 207.812 207.575 208.27 208.014C208.727 208.453 208.956 209.153 208.956 210.114V215H207.738V210.198C207.738 208.994 207.178 208.392 206.058 208.392C205.227 208.392 204.653 208.625 204.336 209.092C204.018 209.559 203.86 210.231 203.86 211.108V215H202.628V207.496H203.622L203.804 208.518H203.874C204.116 208.126 204.452 207.837 204.882 207.65C205.311 207.454 205.764 207.356 206.24 207.356ZM211.1 214.244C211.1 213.899 211.184 213.656 211.352 213.516C211.52 213.376 211.72 213.306 211.954 213.306C212.187 213.306 212.392 213.376 212.57 213.516C212.747 213.656 212.836 213.899 212.836 214.244C212.836 214.58 212.747 214.823 212.57 214.972C212.392 215.121 212.187 215.196 211.954 215.196C211.72 215.196 211.52 215.121 211.352 214.972C211.184 214.823 211.1 214.58 211.1 214.244ZM218.486 208.448H216.596V215H215.364V208.448H214.048V207.874L215.364 207.454V207.02C215.364 206.049 215.574 205.354 215.994 204.934C216.423 204.505 217.025 204.29 217.8 204.29C218.089 204.29 218.36 204.318 218.612 204.374C218.864 204.421 219.079 204.477 219.256 204.542L218.934 205.508C218.785 205.461 218.612 205.415 218.416 205.368C218.22 205.321 218.019 205.298 217.814 205.298C217.403 205.298 217.095 205.438 216.89 205.718C216.694 205.989 216.596 206.418 216.596 207.006V207.496H218.486V208.448ZM220.47 204.682C220.657 204.682 220.82 204.747 220.96 204.878C221.11 204.999 221.184 205.195 221.184 205.466C221.184 205.737 221.11 205.937 220.96 206.068C220.82 206.189 220.657 206.25 220.47 206.25C220.265 206.25 220.092 206.189 219.952 206.068C219.812 205.937 219.742 205.737 219.742 205.466C219.742 205.195 219.812 204.999 219.952 204.878C220.092 204.747 220.265 204.682 220.47 204.682ZM221.072 207.496V215H219.84V207.496H221.072ZM226.11 207.356C226.604 207.356 227.048 207.449 227.44 207.636C227.841 207.823 228.182 208.107 228.462 208.49H228.532L228.7 207.496H229.68V215.126C229.68 216.199 229.404 217.007 228.854 217.548C228.312 218.089 227.468 218.36 226.32 218.36C225.218 218.36 224.318 218.201 223.618 217.884V216.75C224.355 217.142 225.279 217.338 226.39 217.338C227.034 217.338 227.538 217.147 227.902 216.764C228.275 216.391 228.462 215.877 228.462 215.224V214.93C228.462 214.818 228.466 214.659 228.476 214.454C228.485 214.239 228.494 214.09 228.504 214.006H228.448C227.944 214.762 227.169 215.14 226.124 215.14C225.153 215.14 224.392 214.799 223.842 214.118C223.3 213.437 223.03 212.485 223.03 211.262C223.03 210.067 223.3 209.12 223.842 208.42C224.392 207.711 225.148 207.356 226.11 207.356ZM226.278 208.392C225.652 208.392 225.167 208.644 224.822 209.148C224.476 209.643 224.304 210.352 224.304 211.276C224.304 212.2 224.472 212.909 224.808 213.404C225.144 213.889 225.643 214.132 226.306 214.132C227.062 214.132 227.612 213.931 227.958 213.53C228.303 213.119 228.476 212.461 228.476 211.556V211.262C228.476 210.245 228.298 209.512 227.944 209.064C227.589 208.616 227.034 208.392 226.278 208.392Z" fill="#323232"/>
</svg>
