<svg width="412" height="228" viewBox="0 0 412 228" fill="none" xmlns="http://www.w3.org/2000/svg">
<rect width="412" height="228" fill="white"/>
<rect width="272" height="36" transform="translate(70 24)" fill="white"/>
<path d="M86.0125 45.3625C85.9125 45.3625 85.8125 45.3125 85.7625 45.2625L80.1125 39.6625C79.9625 39.5125 79.9625 39.2625 80.1125 39.1125C80.2625 38.9625 80.5125 38.9625 80.6625 39.1125L86.0125 44.4625L91.3125 39.1125C91.4625 38.9625 91.7125 38.9625 91.8625 39.1125C92.0125 39.2625 92.0125 39.5125 91.8625 39.6625L86.2625 45.2625C86.1625 45.3125 86.1125 45.3625 86.0125 45.3625Z" fill="#323232"/>
<path d="M110 35C106.15 35 103 38.15 103 42C103 43.45 103.45 44.9 104.3 46.1C104.35 46.2 104.5 46.25 104.6 46.25H115.35C115.45 46.25 115.6 46.2 115.65 46.1C116.55 44.9 117 43.5 117 42C117 38.15 113.85 35 110 35ZM115.2 45.5H104.8C104.15 44.55 103.8 43.5 103.75 42.4H104.2C104.4 42.4 104.6 42.25 104.6 42C104.6 41.75 104.45 41.6 104.2 41.6H103.75C103.85 40.15 104.4 38.85 105.3 37.85L105.6 38.15C105.65 38.2 105.75 38.25 105.85 38.25C105.95 38.25 106.05 38.2 106.1 38.15C106.25 38 106.25 37.75 106.1 37.6L105.85 37.35C106.85 36.45 108.15 35.9 109.6 35.8V36.25C109.6 36.45 109.75 36.65 110 36.65C110.25 36.65 110.4 36.5 110.4 36.25V35.75C111.85 35.85 113.15 36.4 114.15 37.3L113.85 37.6C113.7 37.75 113.7 38 113.85 38.15C113.9 38.2 114 38.25 114.1 38.25C114.2 38.25 114.3 38.2 114.35 38.15L114.65 37.85C115.55 38.85 116.15 40.15 116.2 41.6H115.75C115.55 41.6 115.35 41.75 115.35 42C115.35 42.25 115.5 42.4 115.75 42.4H116.2C116.15 43.5 115.8 44.55 115.2 45.5Z" fill="black"/>
<path d="M112.55 39L111 40.55C110.7 40.35 110.4 40.25 110 40.25C109.05 40.25 108.25 41.05 108.25 42C108.25 42.95 109.05 43.75 110 43.75C110.95 43.75 111.75 42.95 111.75 42C111.75 41.7 111.65 41.35 111.5 41.1L113.1 39.5C113.25 39.35 113.25 39.1 113.1 38.95C112.95 38.8 112.7 38.85 112.55 39ZM110 43C109.45 43 109 42.55 109 42C109 41.45 109.45 41 110 41C110.55 41 111 41.45 111 42C111 42.55 110.55 43 110 43Z" fill="black"/>
<path d="M112.65 48.25H107.35C107.15 48.25 106.95 48.4 106.95 48.65C106.95 48.9 107.15 49 107.35 49H112.6C112.8 49 113 48.85 113 48.6C113 48.35 112.85 48.25 112.65 48.25Z" fill="black"/>
<path d="M135.366 41.904C135.366 43.5933 134.904 44.8673 133.98 45.726C133.065 46.5753 131.787 47 130.144 47H127.358V37.004H130.438C131.437 37.004 132.305 37.1907 133.042 37.564C133.789 37.9373 134.363 38.488 134.764 39.216C135.165 39.944 135.366 40.84 135.366 41.904ZM134.036 41.946C134.036 40.6113 133.705 39.636 133.042 39.02C132.389 38.3947 131.46 38.082 130.256 38.082H128.618V45.922H129.976C132.683 45.922 134.036 44.5967 134.036 41.946ZM140.259 39.37C141.173 39.37 141.85 39.5707 142.289 39.972C142.727 40.3733 142.947 41.0127 142.947 41.89V47H142.051L141.813 45.936H141.757C141.43 46.3467 141.085 46.65 140.721 46.846C140.357 47.042 139.862 47.14 139.237 47.14C138.555 47.14 137.991 46.9627 137.543 46.608C137.095 46.244 136.871 45.6793 136.871 44.914C136.871 44.1673 137.165 43.5933 137.753 43.192C138.341 42.7813 139.246 42.5573 140.469 42.52L141.743 42.478V42.03C141.743 41.4047 141.607 40.9707 141.337 40.728C141.066 40.4853 140.683 40.364 140.189 40.364C139.797 40.364 139.423 40.4247 139.069 40.546C138.714 40.658 138.383 40.7887 138.075 40.938L137.697 40.014C138.023 39.8367 138.411 39.6873 138.859 39.566C139.307 39.4353 139.773 39.37 140.259 39.37ZM141.729 43.332L140.623 43.374C139.689 43.4113 139.041 43.5607 138.677 43.822C138.322 44.0833 138.145 44.452 138.145 44.928C138.145 45.348 138.271 45.656 138.523 45.852C138.784 46.048 139.115 46.146 139.517 46.146C140.142 46.146 140.665 45.9733 141.085 45.628C141.514 45.2733 141.729 44.732 141.729 44.004V43.332ZM150.15 44.928C150.15 45.656 149.88 46.2067 149.338 46.58C148.797 46.9533 148.069 47.14 147.154 47.14C146.632 47.14 146.179 47.098 145.796 47.014C145.423 46.93 145.092 46.8133 144.802 46.664V45.544C145.101 45.6933 145.46 45.8333 145.88 45.964C146.31 46.0853 146.744 46.146 147.182 46.146C147.808 46.146 148.26 46.048 148.54 45.852C148.82 45.6467 148.96 45.376 148.96 45.04C148.96 44.8533 148.909 44.6853 148.806 44.536C148.704 44.3867 148.517 44.2373 148.246 44.088C147.985 43.9387 147.607 43.7707 147.112 43.584C146.627 43.3973 146.212 43.2107 145.866 43.024C145.521 42.8373 145.255 42.6133 145.068 42.352C144.882 42.0907 144.788 41.7547 144.788 41.344C144.788 40.7093 145.045 40.2193 145.558 39.874C146.081 39.5287 146.762 39.356 147.602 39.356C148.06 39.356 148.484 39.4027 148.876 39.496C149.278 39.5893 149.651 39.7107 149.996 39.86L149.576 40.84C149.259 40.7093 148.928 40.5973 148.582 40.504C148.237 40.4107 147.882 40.364 147.518 40.364C147.014 40.364 146.627 40.448 146.356 40.616C146.095 40.7747 145.964 40.994 145.964 41.274C145.964 41.4887 146.025 41.666 146.146 41.806C146.268 41.946 146.468 42.086 146.748 42.226C147.038 42.366 147.42 42.5247 147.896 42.702C148.372 42.8793 148.778 43.0613 149.114 43.248C149.45 43.4347 149.707 43.6633 149.884 43.934C150.062 44.1953 150.15 44.5267 150.15 44.928ZM153.195 36.36V39.482C153.195 39.8553 153.172 40.2053 153.125 40.532H153.209C153.452 40.1493 153.779 39.86 154.189 39.664C154.609 39.468 155.062 39.37 155.547 39.37C156.453 39.37 157.134 39.5893 157.591 40.028C158.058 40.4573 158.291 41.1527 158.291 42.114V47H157.073V42.198C157.073 40.994 156.513 40.392 155.393 40.392C154.553 40.392 153.975 40.63 153.657 41.106C153.349 41.5727 153.195 42.2447 153.195 43.122V47H151.963V36.36H153.195ZM161.85 36.36V38.95C161.85 39.2673 161.84 39.566 161.822 39.846C161.812 40.1167 161.798 40.3313 161.78 40.49H161.85C162.064 40.1727 162.358 39.9067 162.732 39.692C163.105 39.4773 163.586 39.37 164.174 39.37C165.107 39.37 165.854 39.6967 166.414 40.35C166.983 40.994 167.268 41.96 167.268 43.248C167.268 44.536 166.983 45.5067 166.414 46.16C165.844 46.8133 165.098 47.14 164.174 47.14C163.586 47.14 163.105 47.0327 162.732 46.818C162.358 46.6033 162.064 46.3467 161.85 46.048H161.752L161.5 47H160.618V36.36H161.85ZM163.964 40.392C163.161 40.392 162.606 40.6207 162.298 41.078C161.999 41.5353 161.85 42.2447 161.85 43.206V43.262C161.85 44.186 161.999 44.8953 162.298 45.39C162.606 45.8753 163.17 46.118 163.992 46.118C164.664 46.118 165.163 45.8707 165.49 45.376C165.826 44.8813 165.994 44.1673 165.994 43.234C165.994 41.3393 165.317 40.392 163.964 40.392ZM175.755 43.234C175.755 44.4753 175.438 45.4367 174.803 46.118C174.178 46.7993 173.328 47.14 172.255 47.14C171.592 47.14 171 46.9907 170.477 46.692C169.964 46.384 169.558 45.9407 169.259 45.362C168.96 44.774 168.811 44.0647 168.811 43.234C168.811 41.9927 169.119 41.036 169.735 40.364C170.36 39.692 171.214 39.356 172.297 39.356C172.969 39.356 173.566 39.51 174.089 39.818C174.612 40.1167 175.018 40.5553 175.307 41.134C175.606 41.7033 175.755 42.4033 175.755 43.234ZM170.085 43.234C170.085 44.1207 170.258 44.8253 170.603 45.348C170.958 45.8613 171.518 46.118 172.283 46.118C173.039 46.118 173.594 45.8613 173.949 45.348C174.304 44.8253 174.481 44.1207 174.481 43.234C174.481 42.3473 174.304 41.652 173.949 41.148C173.594 40.644 173.034 40.392 172.269 40.392C171.504 40.392 170.948 40.644 170.603 41.148C170.258 41.652 170.085 42.3473 170.085 43.234ZM180.55 39.37C181.464 39.37 182.141 39.5707 182.58 39.972C183.018 40.3733 183.238 41.0127 183.238 41.89V47H182.342L182.104 45.936H182.048C181.721 46.3467 181.376 46.65 181.012 46.846C180.648 47.042 180.153 47.14 179.528 47.14C178.846 47.14 178.282 46.9627 177.834 46.608C177.386 46.244 177.162 45.6793 177.162 44.914C177.162 44.1673 177.456 43.5933 178.044 43.192C178.632 42.7813 179.537 42.5573 180.76 42.52L182.034 42.478V42.03C182.034 41.4047 181.898 40.9707 181.628 40.728C181.357 40.4853 180.974 40.364 180.48 40.364C180.088 40.364 179.714 40.4247 179.36 40.546C179.005 40.658 178.674 40.7887 178.366 40.938L177.988 40.014C178.314 39.8367 178.702 39.6873 179.15 39.566C179.598 39.4353 180.064 39.37 180.55 39.37ZM182.02 43.332L180.914 43.374C179.98 43.4113 179.332 43.5607 178.968 43.822C178.613 44.0833 178.436 44.452 178.436 44.928C178.436 45.348 178.562 45.656 178.814 45.852C179.075 46.048 179.406 46.146 179.808 46.146C180.433 46.146 180.956 45.9733 181.376 45.628C181.805 45.2733 182.02 44.732 182.02 44.004V43.332ZM189.055 39.356C189.195 39.356 189.345 39.3653 189.503 39.384C189.662 39.3933 189.807 39.412 189.937 39.44L189.783 40.574C189.662 40.546 189.527 40.5227 189.377 40.504C189.228 40.4853 189.093 40.476 188.971 40.476C188.589 40.476 188.229 40.5833 187.893 40.798C187.557 41.0033 187.287 41.2973 187.081 41.68C186.885 42.0533 186.787 42.492 186.787 42.996V47H185.555V39.496H186.563L186.703 40.868H186.759C186.993 40.4573 187.301 40.1027 187.683 39.804C188.075 39.5053 188.533 39.356 189.055 39.356ZM193.725 47.14C192.792 47.14 192.045 46.818 191.485 46.174C190.925 45.5207 190.645 44.55 190.645 43.262C190.645 41.974 190.925 41.0033 191.485 40.35C192.054 39.6873 192.806 39.356 193.739 39.356C194.318 39.356 194.789 39.4633 195.153 39.678C195.526 39.8927 195.83 40.154 196.063 40.462H196.147C196.128 40.3407 196.11 40.1633 196.091 39.93C196.072 39.6873 196.063 39.496 196.063 39.356V36.36H197.295V47H196.301L196.119 45.992H196.063C195.839 46.3093 195.54 46.58 195.167 46.804C194.794 47.028 194.313 47.14 193.725 47.14ZM193.921 46.118C194.714 46.118 195.27 45.9033 195.587 45.474C195.914 45.0353 196.077 44.3773 196.077 43.5V43.276C196.077 42.3427 195.923 41.6287 195.615 41.134C195.307 40.63 194.738 40.378 193.907 40.378C193.244 40.378 192.745 40.644 192.409 41.176C192.082 41.6987 191.919 42.4033 191.919 43.29C191.919 44.186 192.082 44.8813 192.409 45.376C192.745 45.8707 193.249 46.118 193.921 46.118Z" fill="#323232"/>
<rect width="272" height="36" transform="translate(70 60)" fill="white"/>
<path d="M86.0125 81.3625C85.9125 81.3625 85.8125 81.3125 85.7625 81.2625L80.1125 75.6625C79.9625 75.5125 79.9625 75.2625 80.1125 75.1125C80.2625 74.9625 80.5125 74.9625 80.6625 75.1125L86.0125 80.4625L91.3125 75.1125C91.4625 74.9625 91.7125 74.9625 91.8625 75.1125C92.0125 75.2625 92.0125 75.5125 91.8625 75.6625L86.2625 81.2625C86.1625 81.3125 86.1125 81.3625 86.0125 81.3625Z" fill="#323232"/>
<path d="M110 71C106.15 71 103 74.15 103 78C103 81.85 106.15 85 110 85C113.85 85 117 81.85 117 78C117 74.15 113.85 71 110 71ZM106.65 83.25V82.9C106.65 81.05 108.15 79.55 110 79.55C111.85 79.55 113.35 81.05 113.35 82.9V83.25C112.4 83.85 111.25 84.25 110 84.25C108.75 84.25 107.6 83.9 106.65 83.25ZM114.1 82.7C114 80.55 112.2 78.8 110 78.8C107.8 78.8 106 80.5 105.9 82.7C104.6 81.55 103.75 79.85 103.75 78C103.75 74.55 106.55 71.75 110 71.75C113.45 71.75 116.25 74.55 116.25 78C116.25 79.9 115.4 81.55 114.1 82.7Z" fill="black"/>
<path d="M110 73.2C108.65 73.2 107.6 74.3 107.6 75.6C107.6 76.9 108.7 78 110 78C111.35 78 112.4 76.9 112.4 75.6C112.4 74.3 111.35 73.2 110 73.2ZM110 77.3C109.1 77.3 108.35 76.55 108.35 75.65C108.35 74.75 109.1 74 110 74C110.9 74 111.65 74.75 111.65 75.65C111.65 76.55 110.9 77.3 110 77.3Z" fill="black"/>
<path d="M133.63 83L132.426 79.906H128.464L127.274 83H126L129.906 72.962H131.04L134.932 83H133.63ZM132.048 78.786L130.928 75.762C130.9 75.6873 130.853 75.552 130.788 75.356C130.723 75.16 130.657 74.9593 130.592 74.754C130.536 74.5393 130.489 74.376 130.452 74.264C130.377 74.5533 130.298 74.838 130.214 75.118C130.139 75.3887 130.074 75.6033 130.018 75.762L128.884 78.786H132.048ZM139.141 83.14C138.469 83.14 137.877 83.0047 137.363 82.734C136.85 82.4633 136.444 82.0433 136.145 81.474C135.856 80.9047 135.711 80.1767 135.711 79.29C135.711 78.366 135.861 77.6147 136.159 77.036C136.467 76.4573 136.887 76.0327 137.419 75.762C137.951 75.4913 138.553 75.356 139.225 75.356C139.599 75.356 139.963 75.398 140.317 75.482C140.681 75.5567 140.975 75.65 141.199 75.762L140.821 76.784C140.597 76.7 140.336 76.6207 140.037 76.546C139.739 76.4713 139.459 76.434 139.197 76.434C137.723 76.434 136.985 77.3813 136.985 79.276C136.985 80.1813 137.163 80.8767 137.517 81.362C137.881 81.838 138.418 82.076 139.127 82.076C139.529 82.076 139.888 82.034 140.205 81.95C140.523 81.866 140.812 81.7633 141.073 81.642V82.734C140.821 82.8647 140.541 82.9627 140.233 83.028C139.935 83.1027 139.571 83.14 139.141 83.14ZM145.868 83.14C145.196 83.14 144.603 83.0047 144.09 82.734C143.577 82.4633 143.171 82.0433 142.872 81.474C142.583 80.9047 142.438 80.1767 142.438 79.29C142.438 78.366 142.587 77.6147 142.886 77.036C143.194 76.4573 143.614 76.0327 144.146 75.762C144.678 75.4913 145.28 75.356 145.952 75.356C146.325 75.356 146.689 75.398 147.044 75.482C147.408 75.5567 147.702 75.65 147.926 75.762L147.548 76.784C147.324 76.7 147.063 76.6207 146.764 76.546C146.465 76.4713 146.185 76.434 145.924 76.434C144.449 76.434 143.712 77.3813 143.712 79.276C143.712 80.1813 143.889 80.8767 144.244 81.362C144.608 81.838 145.145 82.076 145.854 82.076C146.255 82.076 146.615 82.034 146.932 81.95C147.249 81.866 147.539 81.7633 147.8 81.642V82.734C147.548 82.8647 147.268 82.9627 146.96 83.028C146.661 83.1027 146.297 83.14 145.868 83.14ZM156.109 79.234C156.109 80.4753 155.791 81.4367 155.157 82.118C154.531 82.7993 153.682 83.14 152.609 83.14C151.946 83.14 151.353 82.9907 150.831 82.692C150.317 82.384 149.911 81.9407 149.613 81.362C149.314 80.774 149.165 80.0647 149.165 79.234C149.165 77.9927 149.473 77.036 150.089 76.364C150.714 75.692 151.568 75.356 152.651 75.356C153.323 75.356 153.92 75.51 154.443 75.818C154.965 76.1167 155.371 76.5553 155.661 77.134C155.959 77.7033 156.109 78.4033 156.109 79.234ZM150.439 79.234C150.439 80.1207 150.611 80.8253 150.957 81.348C151.311 81.8613 151.871 82.118 152.637 82.118C153.393 82.118 153.948 81.8613 154.303 81.348C154.657 80.8253 154.835 80.1207 154.835 79.234C154.835 78.3473 154.657 77.652 154.303 77.148C153.948 76.644 153.388 76.392 152.623 76.392C151.857 76.392 151.302 76.644 150.957 77.148C150.611 77.652 150.439 78.3473 150.439 79.234ZM164.333 75.496V83H163.325L163.143 82.006H163.087C162.844 82.398 162.508 82.6873 162.079 82.874C161.65 83.0513 161.192 83.14 160.707 83.14C159.802 83.14 159.12 82.9253 158.663 82.496C158.206 82.0573 157.977 81.362 157.977 80.41V75.496H159.223V80.326C159.223 81.5207 159.778 82.118 160.889 82.118C161.72 82.118 162.294 81.8847 162.611 81.418C162.938 80.9513 163.101 80.2793 163.101 79.402V75.496H164.333ZM170.327 75.356C171.223 75.356 171.9 75.5753 172.357 76.014C172.815 76.4527 173.043 77.1527 173.043 78.114V83H171.825V78.198C171.825 76.994 171.265 76.392 170.145 76.392C169.315 76.392 168.741 76.6253 168.423 77.092C168.106 77.5587 167.947 78.2307 167.947 79.108V83H166.715V75.496H167.709L167.891 76.518H167.961C168.204 76.126 168.54 75.8367 168.969 75.65C169.399 75.454 169.851 75.356 170.327 75.356ZM177.876 82.132C178.062 82.132 178.254 82.118 178.45 82.09C178.646 82.062 178.804 82.0247 178.926 81.978V82.916C178.795 82.9813 178.608 83.0327 178.366 83.07C178.123 83.1167 177.89 83.14 177.666 83.14C177.274 83.14 176.91 83.0747 176.574 82.944C176.247 82.804 175.981 82.566 175.776 82.23C175.57 81.894 175.468 81.4227 175.468 80.816V76.448H174.404V75.86L175.482 75.37L175.972 73.774H176.7V75.496H178.87V76.448H176.7V80.788C176.7 81.2453 176.807 81.586 177.022 81.81C177.246 82.0247 177.53 82.132 177.876 82.132ZM185.314 80.928C185.314 81.656 185.044 82.2067 184.502 82.58C183.961 82.9533 183.233 83.14 182.318 83.14C181.796 83.14 181.343 83.098 180.96 83.014C180.587 82.93 180.256 82.8133 179.966 82.664V81.544C180.265 81.6933 180.624 81.8333 181.044 81.964C181.474 82.0853 181.908 82.146 182.346 82.146C182.972 82.146 183.424 82.048 183.704 81.852C183.984 81.6467 184.124 81.376 184.124 81.04C184.124 80.8533 184.073 80.6853 183.97 80.536C183.868 80.3867 183.681 80.2373 183.41 80.088C183.149 79.9387 182.771 79.7707 182.276 79.584C181.791 79.3973 181.376 79.2107 181.03 79.024C180.685 78.8373 180.419 78.6133 180.232 78.352C180.046 78.0907 179.952 77.7547 179.952 77.344C179.952 76.7093 180.209 76.2193 180.722 75.874C181.245 75.5287 181.926 75.356 182.766 75.356C183.224 75.356 183.648 75.4027 184.04 75.496C184.442 75.5893 184.815 75.7107 185.16 75.86L184.74 76.84C184.423 76.7093 184.092 76.5973 183.746 76.504C183.401 76.4107 183.046 76.364 182.682 76.364C182.178 76.364 181.791 76.448 181.52 76.616C181.259 76.7747 181.128 76.994 181.128 77.274C181.128 77.4887 181.189 77.666 181.31 77.806C181.432 77.946 181.632 78.086 181.912 78.226C182.202 78.366 182.584 78.5247 183.06 78.702C183.536 78.8793 183.942 79.0613 184.278 79.248C184.614 79.4347 184.871 79.6633 185.048 79.934C185.226 80.1953 185.314 80.5267 185.314 80.928Z" fill="#323232"/>
<rect width="272" height="36" transform="translate(70 96)" fill="white"/>
<path d="M136.08 113.988C136.08 115.024 135.903 115.929 135.548 116.704C135.203 117.469 134.685 118.067 133.994 118.496C133.313 118.925 132.473 119.14 131.474 119.14C130.438 119.14 129.575 118.925 128.884 118.496C128.203 118.067 127.694 117.465 127.358 116.69C127.022 115.915 126.854 115.01 126.854 113.974C126.854 112.957 127.022 112.065 127.358 111.3C127.694 110.525 128.203 109.923 128.884 109.494C129.575 109.065 130.443 108.85 131.488 108.85C132.487 108.85 133.327 109.065 134.008 109.494C134.689 109.914 135.203 110.511 135.548 111.286C135.903 112.051 136.08 112.952 136.08 113.988ZM128.184 113.988C128.184 115.248 128.45 116.242 128.982 116.97C129.514 117.689 130.345 118.048 131.474 118.048C132.603 118.048 133.429 117.689 133.952 116.97C134.484 116.242 134.75 115.248 134.75 113.988C134.75 112.728 134.489 111.743 133.966 111.034C133.443 110.315 132.617 109.956 131.488 109.956C130.349 109.956 129.514 110.315 128.982 111.034C128.45 111.743 128.184 112.728 128.184 113.988ZM139.78 119L136.938 111.496H138.254L139.85 115.92C139.924 116.125 140.004 116.354 140.088 116.606C140.172 116.858 140.246 117.101 140.312 117.334C140.377 117.567 140.424 117.759 140.452 117.908H140.508C140.536 117.759 140.587 117.567 140.662 117.334C140.736 117.091 140.816 116.849 140.9 116.606C140.984 116.354 141.063 116.125 141.138 115.92L142.734 111.496H144.05L141.194 119H139.78ZM148.135 111.356C148.77 111.356 149.32 111.496 149.787 111.776C150.254 112.056 150.608 112.453 150.851 112.966C151.103 113.47 151.229 114.063 151.229 114.744V115.486H146.091C146.11 116.335 146.324 116.984 146.735 117.432C147.155 117.871 147.738 118.09 148.485 118.09C148.961 118.09 149.381 118.048 149.745 117.964C150.118 117.871 150.501 117.74 150.893 117.572V118.65C150.51 118.818 150.132 118.939 149.759 119.014C149.386 119.098 148.942 119.14 148.429 119.14C147.71 119.14 147.08 118.995 146.539 118.706C145.998 118.417 145.573 117.987 145.265 117.418C144.966 116.849 144.817 116.144 144.817 115.304C144.817 114.483 144.952 113.778 145.223 113.19C145.503 112.602 145.89 112.149 146.385 111.832C146.889 111.515 147.472 111.356 148.135 111.356ZM148.121 112.364C147.533 112.364 147.066 112.555 146.721 112.938C146.385 113.311 146.184 113.834 146.119 114.506H149.941C149.932 113.871 149.782 113.358 149.493 112.966C149.204 112.565 148.746 112.364 148.121 112.364ZM156.639 111.356C156.779 111.356 156.929 111.365 157.087 111.384C157.246 111.393 157.391 111.412 157.521 111.44L157.367 112.574C157.246 112.546 157.111 112.523 156.961 112.504C156.812 112.485 156.677 112.476 156.555 112.476C156.173 112.476 155.813 112.583 155.477 112.798C155.141 113.003 154.871 113.297 154.665 113.68C154.469 114.053 154.371 114.492 154.371 114.996V119H153.139V111.496H154.147L154.287 112.868H154.343C154.577 112.457 154.885 112.103 155.267 111.804C155.659 111.505 156.117 111.356 156.639 111.356ZM160.574 119L157.732 111.496H159.048L160.644 115.92C160.719 116.125 160.798 116.354 160.882 116.606C160.966 116.858 161.041 117.101 161.106 117.334C161.172 117.567 161.218 117.759 161.246 117.908H161.302C161.33 117.759 161.382 117.567 161.456 117.334C161.531 117.091 161.61 116.849 161.694 116.606C161.778 116.354 161.858 116.125 161.932 115.92L163.528 111.496H164.844L161.988 119H160.574ZM166.662 108.682C166.848 108.682 167.012 108.747 167.152 108.878C167.301 108.999 167.376 109.195 167.376 109.466C167.376 109.737 167.301 109.937 167.152 110.068C167.012 110.189 166.848 110.25 166.662 110.25C166.456 110.25 166.284 110.189 166.144 110.068C166.004 109.937 165.934 109.737 165.934 109.466C165.934 109.195 166.004 108.999 166.144 108.878C166.284 108.747 166.456 108.682 166.662 108.682ZM167.264 111.496V119H166.032V111.496H167.264ZM172.539 111.356C173.174 111.356 173.725 111.496 174.191 111.776C174.658 112.056 175.013 112.453 175.255 112.966C175.507 113.47 175.633 114.063 175.633 114.744V115.486H170.495C170.514 116.335 170.729 116.984 171.139 117.432C171.559 117.871 172.143 118.09 172.889 118.09C173.365 118.09 173.785 118.048 174.149 117.964C174.523 117.871 174.905 117.74 175.297 117.572V118.65C174.915 118.818 174.537 118.939 174.163 119.014C173.79 119.098 173.347 119.14 172.833 119.14C172.115 119.14 171.485 118.995 170.943 118.706C170.402 118.417 169.977 117.987 169.669 117.418C169.371 116.849 169.221 116.144 169.221 115.304C169.221 114.483 169.357 113.778 169.627 113.19C169.907 112.602 170.295 112.149 170.789 111.832C171.293 111.515 171.877 111.356 172.539 111.356ZM172.525 112.364C171.937 112.364 171.471 112.555 171.125 112.938C170.789 113.311 170.589 113.834 170.523 114.506H174.345C174.336 113.871 174.187 113.358 173.897 112.966C173.608 112.565 173.151 112.364 172.525 112.364ZM183.402 118.986L182.114 114.758C181.993 114.375 181.885 114.002 181.792 113.638C181.699 113.274 181.633 112.985 181.596 112.77H181.54C181.503 112.985 181.442 113.274 181.358 113.638C181.274 114.002 181.167 114.38 181.036 114.772L179.692 118.986H178.292L176.234 111.482H177.508L178.544 115.486C178.647 115.887 178.745 116.293 178.838 116.704C178.931 117.115 178.997 117.455 179.034 117.726H179.09C179.118 117.567 179.16 117.371 179.216 117.138C179.272 116.905 179.333 116.662 179.398 116.41C179.463 116.149 179.529 115.915 179.594 115.71L180.924 111.482H182.268L183.556 115.71C183.649 116.037 183.747 116.387 183.85 116.76C183.953 117.133 184.023 117.451 184.06 117.712H184.116C184.144 117.479 184.205 117.157 184.298 116.746C184.401 116.335 184.508 115.915 184.62 115.486L185.67 111.482H186.93L184.844 118.986H183.402Z" fill="#323232"/>
<rect width="272" height="36" transform="translate(70 132)" fill="white"/>
<path d="M70 132H72V168H70V132Z" fill="#1B77AF"/>
<path d="M127.302 145.004H130.312C131.609 145.004 132.589 145.191 133.252 145.564C133.924 145.937 134.26 146.586 134.26 147.51C134.26 148.089 134.115 148.574 133.826 148.966C133.537 149.349 133.121 149.591 132.58 149.694V149.764C132.944 149.839 133.271 149.96 133.56 150.128C133.859 150.296 134.097 150.543 134.274 150.87C134.451 151.187 134.54 151.607 134.54 152.13C134.54 153.035 134.218 153.74 133.574 154.244C132.93 154.748 132.057 155 130.956 155H127.302V145.004ZM129.094 149.078H130.55C131.259 149.078 131.745 148.966 132.006 148.742C132.277 148.509 132.412 148.177 132.412 147.748C132.412 147.3 132.249 146.978 131.922 146.782C131.605 146.586 131.101 146.488 130.41 146.488H129.094V149.078ZM129.094 150.52V153.502H130.718C131.446 153.502 131.95 153.362 132.23 153.082C132.519 152.793 132.664 152.419 132.664 151.962C132.664 151.523 132.515 151.173 132.216 150.912C131.927 150.651 131.399 150.52 130.634 150.52H129.094ZM137.313 144.486C137.574 144.486 137.803 144.556 137.999 144.696C138.195 144.827 138.293 145.065 138.293 145.41C138.293 145.755 138.195 145.998 137.999 146.138C137.803 146.278 137.574 146.348 137.313 146.348C137.042 146.348 136.809 146.278 136.613 146.138C136.426 145.998 136.333 145.755 136.333 145.41C136.333 145.065 136.426 144.827 136.613 144.696C136.809 144.556 137.042 144.486 137.313 144.486ZM138.195 147.412V155H136.431V147.412H138.195ZM142.214 155H140.45V144.36H142.214V155ZM146.234 155H144.47V144.36H146.234V155ZM149.371 144.486C149.633 144.486 149.861 144.556 150.057 144.696C150.253 144.827 150.351 145.065 150.351 145.41C150.351 145.755 150.253 145.998 150.057 146.138C149.861 146.278 149.633 146.348 149.371 146.348C149.101 146.348 148.867 146.278 148.671 146.138C148.485 145.998 148.391 145.755 148.391 145.41C148.391 145.065 148.485 144.827 148.671 144.696C148.867 144.556 149.101 144.486 149.371 144.486ZM150.253 147.412V155H148.489V147.412H150.253ZM156.569 147.272C157.418 147.272 158.081 147.491 158.557 147.93C159.042 148.369 159.285 149.078 159.285 150.058V155H157.521V150.408C157.521 149.839 157.409 149.414 157.185 149.134C156.961 148.845 156.606 148.7 156.121 148.7C155.412 148.7 154.926 148.924 154.665 149.372C154.404 149.82 154.273 150.459 154.273 151.29V155H152.509V147.412H153.867L154.119 148.406H154.217C154.46 148.014 154.791 147.729 155.211 147.552C155.64 147.365 156.093 147.272 156.569 147.272ZM164.039 147.272C165.019 147.272 165.771 147.645 166.293 148.392H166.363L166.531 147.412H168.001V155.056C168.001 156.139 167.698 156.96 167.091 157.52C166.485 158.08 165.57 158.36 164.347 158.36C163.806 158.36 163.307 158.323 162.849 158.248C162.392 158.183 161.958 158.066 161.547 157.898V156.442C161.977 156.629 162.434 156.773 162.919 156.876C163.414 156.979 163.927 157.03 164.459 157.03C165.029 157.03 165.467 156.867 165.775 156.54C166.083 156.223 166.237 155.756 166.237 155.14V154.944C166.237 154.804 166.242 154.641 166.251 154.454C166.261 154.267 166.275 154.118 166.293 154.006H166.237C165.976 154.398 165.654 154.687 165.271 154.874C164.898 155.051 164.473 155.14 163.997 155.14C163.073 155.14 162.35 154.795 161.827 154.104C161.305 153.413 161.043 152.452 161.043 151.22C161.043 149.988 161.305 149.022 161.827 148.322C162.359 147.622 163.097 147.272 164.039 147.272ZM164.501 148.714C163.4 148.714 162.849 149.559 162.849 151.248C162.849 152.909 163.409 153.74 164.529 153.74C165.145 153.74 165.598 153.572 165.887 153.236C166.186 152.891 166.335 152.312 166.335 151.5V151.234C166.335 150.338 166.186 149.694 165.887 149.302C165.598 148.91 165.136 148.714 164.501 148.714Z" fill="#1B77AF"/>
<rect width="272" height="36" transform="translate(70 168)" fill="white"/>
<path d="M130.004 181.004C131.311 181.004 132.263 181.261 132.86 181.774C133.457 182.287 133.756 183.011 133.756 183.944C133.756 184.495 133.63 185.013 133.378 185.498C133.135 185.974 132.72 186.361 132.132 186.66C131.553 186.959 130.765 187.108 129.766 187.108H128.618V191H127.358V181.004H130.004ZM129.892 182.082H128.618V186.03H129.626C130.578 186.03 131.287 185.876 131.754 185.568C132.221 185.26 132.454 184.737 132.454 184C132.454 183.356 132.244 182.875 131.824 182.558C131.413 182.241 130.769 182.082 129.892 182.082ZM138.509 183.37C139.423 183.37 140.1 183.571 140.539 183.972C140.977 184.373 141.197 185.013 141.197 185.89V191H140.301L140.063 189.936H140.007C139.68 190.347 139.335 190.65 138.971 190.846C138.607 191.042 138.112 191.14 137.487 191.14C136.805 191.14 136.241 190.963 135.793 190.608C135.345 190.244 135.121 189.679 135.121 188.914C135.121 188.167 135.415 187.593 136.003 187.192C136.591 186.781 137.496 186.557 138.719 186.52L139.993 186.478V186.03C139.993 185.405 139.857 184.971 139.587 184.728C139.316 184.485 138.933 184.364 138.439 184.364C138.047 184.364 137.673 184.425 137.319 184.546C136.964 184.658 136.633 184.789 136.325 184.938L135.947 184.014C136.273 183.837 136.661 183.687 137.109 183.566C137.557 183.435 138.023 183.37 138.509 183.37ZM139.979 187.332L138.873 187.374C137.939 187.411 137.291 187.561 136.927 187.822C136.572 188.083 136.395 188.452 136.395 188.928C136.395 189.348 136.521 189.656 136.773 189.852C137.034 190.048 137.365 190.146 137.767 190.146C138.392 190.146 138.915 189.973 139.335 189.628C139.764 189.273 139.979 188.732 139.979 188.004V187.332ZM142.338 183.496H143.654L145.278 187.766C145.418 188.149 145.544 188.508 145.656 188.844C145.768 189.18 145.852 189.502 145.908 189.81H145.964C146.02 189.577 146.109 189.273 146.23 188.9C146.352 188.517 146.478 188.135 146.608 187.752L148.134 183.496H149.464L146.23 192.036C145.96 192.745 145.619 193.31 145.208 193.73C144.798 194.15 144.228 194.36 143.5 194.36C143.276 194.36 143.08 194.346 142.912 194.318C142.744 194.299 142.6 194.276 142.478 194.248V193.268C142.581 193.287 142.702 193.305 142.842 193.324C142.992 193.343 143.146 193.352 143.304 193.352C143.734 193.352 144.079 193.231 144.34 192.988C144.602 192.745 144.812 192.423 144.97 192.022L145.362 191.028L142.338 183.496ZM158.883 183.356C159.732 183.356 160.367 183.575 160.787 184.014C161.207 184.453 161.417 185.153 161.417 186.114V191H160.199V186.17C160.199 184.985 159.69 184.392 158.673 184.392C157.945 184.392 157.422 184.602 157.105 185.022C156.797 185.442 156.643 186.053 156.643 186.856V191H155.425V186.17C155.425 184.985 154.912 184.392 153.885 184.392C153.129 184.392 152.606 184.625 152.317 185.092C152.028 185.559 151.883 186.231 151.883 187.108V191H150.651V183.496H151.645L151.827 184.518H151.897C152.13 184.126 152.443 183.837 152.835 183.65C153.236 183.454 153.661 183.356 154.109 183.356C155.285 183.356 156.05 183.776 156.405 184.616H156.475C156.727 184.187 157.068 183.869 157.497 183.664C157.926 183.459 158.388 183.356 158.883 183.356ZM166.633 183.356C167.268 183.356 167.818 183.496 168.285 183.776C168.752 184.056 169.106 184.453 169.349 184.966C169.601 185.47 169.727 186.063 169.727 186.744V187.486H164.589C164.608 188.335 164.822 188.984 165.233 189.432C165.653 189.871 166.236 190.09 166.983 190.09C167.459 190.09 167.879 190.048 168.243 189.964C168.616 189.871 168.999 189.74 169.391 189.572V190.65C169.008 190.818 168.63 190.939 168.257 191.014C167.884 191.098 167.44 191.14 166.927 191.14C166.208 191.14 165.578 190.995 165.037 190.706C164.496 190.417 164.071 189.987 163.763 189.418C163.464 188.849 163.315 188.144 163.315 187.304C163.315 186.483 163.45 185.778 163.721 185.19C164.001 184.602 164.388 184.149 164.883 183.832C165.387 183.515 165.97 183.356 166.633 183.356ZM166.619 184.364C166.031 184.364 165.564 184.555 165.219 184.938C164.883 185.311 164.682 185.834 164.617 186.506H168.439C168.43 185.871 168.28 185.358 167.991 184.966C167.702 184.565 167.244 184.364 166.619 184.364ZM175.249 183.356C176.145 183.356 176.822 183.575 177.279 184.014C177.737 184.453 177.965 185.153 177.965 186.114V191H176.747V186.198C176.747 184.994 176.187 184.392 175.067 184.392C174.237 184.392 173.663 184.625 173.345 185.092C173.028 185.559 172.869 186.231 172.869 187.108V191H171.637V183.496H172.631L172.813 184.518H172.883C173.126 184.126 173.462 183.837 173.891 183.65C174.321 183.454 174.773 183.356 175.249 183.356ZM182.798 190.132C182.984 190.132 183.176 190.118 183.372 190.09C183.568 190.062 183.726 190.025 183.848 189.978V190.916C183.717 190.981 183.53 191.033 183.288 191.07C183.045 191.117 182.812 191.14 182.588 191.14C182.196 191.14 181.832 191.075 181.496 190.944C181.169 190.804 180.903 190.566 180.698 190.23C180.492 189.894 180.39 189.423 180.39 188.816V184.448H179.326V183.86L180.404 183.37L180.894 181.774H181.622V183.496H183.792V184.448H181.622V188.788C181.622 189.245 181.729 189.586 181.944 189.81C182.168 190.025 182.452 190.132 182.798 190.132Z" fill="#323232"/>
</svg>
