<svg width="412" height="284" viewBox="0 0 412 284" fill="none" xmlns="http://www.w3.org/2000/svg">
<rect width="412" height="284" fill="white"/>
<rect width="272" height="36" transform="translate(70 16)" fill="white"/>
<path d="M86.0125 37.3625C85.9125 37.3625 85.8125 37.3125 85.7625 37.2625L80.1125 31.6625C79.9625 31.5125 79.9625 31.2625 80.1125 31.1125C80.2625 30.9625 80.5125 30.9625 80.6625 31.1125L86.0125 36.4625L91.3125 31.1125C91.4625 30.9625 91.7125 30.9625 91.8625 31.1125C92.0125 31.2625 92.0125 31.5125 91.8625 31.6625L86.2625 37.2625C86.1625 37.3125 86.1125 37.3625 86.0125 37.3625Z" fill="#323232"/>
<rect x="102" y="26" width="16" height="16" rx="4" fill="white"/>
<rect x="102.5" y="26.5" width="15" height="15" rx="3.5" stroke="#1B77AF"/>
<path d="M131.768 39L128.478 30.236H128.422C128.45 30.5253 128.473 30.9173 128.492 31.412C128.511 31.8973 128.52 32.406 128.52 32.938V39H127.358V29.004H129.22L132.3 37.194H132.356L135.492 29.004H137.34V39H136.094V32.854C136.094 32.3687 136.103 31.888 136.122 31.412C136.15 30.936 136.173 30.5487 136.192 30.25H136.136L132.804 39H131.768ZM142.733 31.37C143.648 31.37 144.325 31.5707 144.763 31.972C145.202 32.3733 145.421 33.0127 145.421 33.89V39H144.525L144.287 37.936H144.231C143.905 38.3467 143.559 38.65 143.195 38.846C142.831 39.042 142.337 39.14 141.711 39.14C141.03 39.14 140.465 38.9627 140.017 38.608C139.569 38.244 139.345 37.6793 139.345 36.914C139.345 36.1673 139.639 35.5933 140.227 35.192C140.815 34.7813 141.721 34.5573 142.943 34.52L144.217 34.478V34.03C144.217 33.4047 144.082 32.9707 143.811 32.728C143.541 32.4853 143.158 32.364 142.663 32.364C142.271 32.364 141.898 32.4247 141.543 32.546C141.189 32.658 140.857 32.7887 140.549 32.938L140.171 32.014C140.498 31.8367 140.885 31.6873 141.333 31.566C141.781 31.4353 142.248 31.37 142.733 31.37ZM144.203 35.332L143.097 35.374C142.164 35.4113 141.515 35.5607 141.151 35.822C140.797 36.0833 140.619 36.452 140.619 36.928C140.619 37.348 140.745 37.656 140.997 37.852C141.259 38.048 141.59 38.146 141.991 38.146C142.617 38.146 143.139 37.9733 143.559 37.628C143.989 37.2733 144.203 36.732 144.203 36.004V35.332ZM151.351 31.356C152.247 31.356 152.923 31.5753 153.381 32.014C153.838 32.4527 154.067 33.1527 154.067 34.114V39H152.849V34.198C152.849 32.994 152.289 32.392 151.169 32.392C150.338 32.392 149.764 32.6253 149.447 33.092C149.129 33.5587 148.971 34.2307 148.971 35.108V39H147.739V31.496H148.733L148.915 32.518H148.985C149.227 32.126 149.563 31.8367 149.993 31.65C150.422 31.454 150.875 31.356 151.351 31.356ZM159.235 31.37C160.15 31.37 160.826 31.5707 161.265 31.972C161.704 32.3733 161.923 33.0127 161.923 33.89V39H161.027L160.789 37.936H160.733C160.406 38.3467 160.061 38.65 159.697 38.846C159.333 39.042 158.838 39.14 158.213 39.14C157.532 39.14 156.967 38.9627 156.519 38.608C156.071 38.244 155.847 37.6793 155.847 36.914C155.847 36.1673 156.141 35.5933 156.729 35.192C157.317 34.7813 158.222 34.5573 159.445 34.52L160.719 34.478V34.03C160.719 33.4047 160.584 32.9707 160.313 32.728C160.042 32.4853 159.66 32.364 159.165 32.364C158.773 32.364 158.4 32.4247 158.045 32.546C157.69 32.658 157.359 32.7887 157.051 32.938L156.673 32.014C157 31.8367 157.387 31.6873 157.835 31.566C158.283 31.4353 158.75 31.37 159.235 31.37ZM160.705 35.332L159.599 35.374C158.666 35.4113 158.017 35.5607 157.653 35.822C157.298 36.0833 157.121 36.452 157.121 36.928C157.121 37.348 157.247 37.656 157.499 37.852C157.76 38.048 158.092 38.146 158.493 38.146C159.118 38.146 159.641 37.9733 160.061 37.628C160.49 37.2733 160.705 36.732 160.705 36.004V35.332ZM166.901 31.356C167.395 31.356 167.839 31.4493 168.231 31.636C168.632 31.8227 168.973 32.1073 169.253 32.49H169.323L169.491 31.496H170.471V39.126C170.471 40.1993 170.195 41.0067 169.645 41.548C169.103 42.0893 168.259 42.36 167.111 42.36C166.009 42.36 165.109 42.2013 164.409 41.884V40.75C165.146 41.142 166.07 41.338 167.181 41.338C167.825 41.338 168.329 41.1467 168.693 40.764C169.066 40.3907 169.253 39.8773 169.253 39.224V38.93C169.253 38.818 169.257 38.6593 169.267 38.454C169.276 38.2393 169.285 38.09 169.295 38.006H169.239C168.735 38.762 167.96 39.14 166.915 39.14C165.944 39.14 165.183 38.7993 164.633 38.118C164.091 37.4367 163.821 36.4847 163.821 35.262C163.821 34.0673 164.091 33.12 164.633 32.42C165.183 31.7107 165.939 31.356 166.901 31.356ZM167.069 32.392C166.443 32.392 165.958 32.644 165.613 33.148C165.267 33.6427 165.095 34.352 165.095 35.276C165.095 36.2 165.263 36.9093 165.599 37.404C165.935 37.8893 166.434 38.132 167.097 38.132C167.853 38.132 168.403 37.9313 168.749 37.53C169.094 37.1193 169.267 36.4613 169.267 35.556V35.262C169.267 34.2447 169.089 33.512 168.735 33.064C168.38 32.616 167.825 32.392 167.069 32.392ZM175.752 31.356C176.387 31.356 176.937 31.496 177.404 31.776C177.871 32.056 178.225 32.4527 178.468 32.966C178.72 33.47 178.846 34.0627 178.846 34.744V35.486H173.708C173.727 36.3353 173.941 36.984 174.352 37.432C174.772 37.8707 175.355 38.09 176.102 38.09C176.578 38.09 176.998 38.048 177.362 37.964C177.735 37.8707 178.118 37.74 178.51 37.572V38.65C178.127 38.818 177.749 38.9393 177.376 39.014C177.003 39.098 176.559 39.14 176.046 39.14C175.327 39.14 174.697 38.9953 174.156 38.706C173.615 38.4167 173.19 37.9873 172.882 37.418C172.583 36.8487 172.434 36.144 172.434 35.304C172.434 34.4827 172.569 33.778 172.84 33.19C173.12 32.602 173.507 32.1493 174.002 31.832C174.506 31.5147 175.089 31.356 175.752 31.356ZM175.738 32.364C175.15 32.364 174.683 32.5553 174.338 32.938C174.002 33.3113 173.801 33.834 173.736 34.506H177.558C177.549 33.8713 177.399 33.358 177.11 32.966C176.821 32.5647 176.363 32.364 175.738 32.364Z" fill="#323232"/>
<rect width="272" height="36" transform="translate(70 52)" fill="white"/>
<path d="M107.412 75.9625C107.312 75.9625 107.212 75.9125 107.162 75.8625C107.013 75.7125 107.013 75.4625 107.162 75.3125L112.462 70.0125L107.112 64.6625C106.963 64.5125 106.963 64.2625 107.112 64.1125C107.262 63.9625 107.512 63.9625 107.662 64.1125L113.262 69.7125C113.312 69.7625 113.362 69.8625 113.362 69.9625C113.362 70.0625 113.312 70.1625 113.262 70.2125L107.662 75.8625C107.562 75.9625 107.463 75.9625 107.412 75.9625Z" fill="#323232"/>
<rect x="126" y="62" width="16" height="16" rx="4" fill="white"/>
<rect x="126.5" y="62.5" width="15" height="15" rx="3.5" stroke="#1B77AF"/>
<path d="M157.63 75L156.426 71.906H152.464L151.274 75H150L153.906 64.962H155.04L158.932 75H157.63ZM156.048 70.786L154.928 67.762C154.9 67.6873 154.853 67.552 154.788 67.356C154.723 67.16 154.657 66.9593 154.592 66.754C154.536 66.5393 154.489 66.376 154.452 66.264C154.377 66.5533 154.298 66.838 154.214 67.118C154.139 67.3887 154.074 67.6033 154.018 67.762L152.884 70.786H156.048ZM162.791 67.356C163.286 67.356 163.729 67.4493 164.121 67.636C164.523 67.8227 164.863 68.1073 165.143 68.49H165.213L165.381 67.496H166.361V75.126C166.361 76.1993 166.086 77.0067 165.535 77.548C164.994 78.0893 164.149 78.36 163.001 78.36C161.9 78.36 160.999 78.2013 160.299 77.884V76.75C161.037 77.142 161.961 77.338 163.071 77.338C163.715 77.338 164.219 77.1467 164.583 76.764C164.957 76.3907 165.143 75.8773 165.143 75.224V74.93C165.143 74.818 165.148 74.6593 165.157 74.454C165.167 74.2393 165.176 74.09 165.185 74.006H165.129C164.625 74.762 163.851 75.14 162.805 75.14C161.835 75.14 161.074 74.7993 160.523 74.118C159.982 73.4367 159.711 72.4847 159.711 71.262C159.711 70.0673 159.982 69.12 160.523 68.42C161.074 67.7107 161.83 67.356 162.791 67.356ZM162.959 68.392C162.334 68.392 161.849 68.644 161.503 69.148C161.158 69.6427 160.985 70.352 160.985 71.276C160.985 72.2 161.153 72.9093 161.489 73.404C161.825 73.8893 162.325 74.132 162.987 74.132C163.743 74.132 164.294 73.9313 164.639 73.53C164.985 73.1193 165.157 72.4613 165.157 71.556V71.262C165.157 70.2447 164.98 69.512 164.625 69.064C164.271 68.616 163.715 68.392 162.959 68.392ZM171.643 67.356C172.277 67.356 172.828 67.496 173.295 67.776C173.761 68.056 174.116 68.4527 174.359 68.966C174.611 69.47 174.737 70.0627 174.737 70.744V71.486H169.599C169.617 72.3353 169.832 72.984 170.243 73.432C170.663 73.8707 171.246 74.09 171.993 74.09C172.469 74.09 172.889 74.048 173.253 73.964C173.626 73.8707 174.009 73.74 174.401 73.572V74.65C174.018 74.818 173.64 74.9393 173.267 75.014C172.893 75.098 172.45 75.14 171.937 75.14C171.218 75.14 170.588 74.9953 170.047 74.706C169.505 74.4167 169.081 73.9873 168.773 73.418C168.474 72.8487 168.325 72.144 168.325 71.304C168.325 70.4827 168.46 69.778 168.731 69.19C169.011 68.602 169.398 68.1493 169.893 67.832C170.397 67.5147 170.98 67.356 171.643 67.356ZM171.629 68.364C171.041 68.364 170.574 68.5553 170.229 68.938C169.893 69.3113 169.692 69.834 169.627 70.506H173.449C173.439 69.8713 173.29 69.358 173.001 68.966C172.711 68.5647 172.254 68.364 171.629 68.364ZM180.259 67.356C181.155 67.356 181.832 67.5753 182.289 68.014C182.746 68.4527 182.975 69.1527 182.975 70.114V75H181.757V70.198C181.757 68.994 181.197 68.392 180.077 68.392C179.246 68.392 178.672 68.6253 178.355 69.092C178.038 69.5587 177.879 70.2307 177.879 71.108V75H176.647V67.496H177.641L177.823 68.518H177.893C178.136 68.126 178.472 67.8367 178.901 67.65C179.33 67.454 179.783 67.356 180.259 67.356ZM187.807 74.132C187.994 74.132 188.185 74.118 188.381 74.09C188.577 74.062 188.736 74.0247 188.857 73.978V74.916C188.727 74.9813 188.54 75.0327 188.297 75.07C188.055 75.1167 187.821 75.14 187.597 75.14C187.205 75.14 186.841 75.0747 186.505 74.944C186.179 74.804 185.913 74.566 185.707 74.23C185.502 73.894 185.399 73.4227 185.399 72.816V68.448H184.335V67.86L185.413 67.37L185.903 65.774H186.631V67.496H188.801V68.448H186.631V72.788C186.631 73.2453 186.739 73.586 186.953 73.81C187.177 74.0247 187.462 74.132 187.807 74.132ZM195.246 72.928C195.246 73.656 194.975 74.2067 194.434 74.58C193.893 74.9533 193.165 75.14 192.25 75.14C191.727 75.14 191.275 75.098 190.892 75.014C190.519 74.93 190.187 74.8133 189.898 74.664V73.544C190.197 73.6933 190.556 73.8333 190.976 73.964C191.405 74.0853 191.839 74.146 192.278 74.146C192.903 74.146 193.356 74.048 193.636 73.852C193.916 73.6467 194.056 73.376 194.056 73.04C194.056 72.8533 194.005 72.6853 193.902 72.536C193.799 72.3867 193.613 72.2373 193.342 72.088C193.081 71.9387 192.703 71.7707 192.208 71.584C191.723 71.3973 191.307 71.2107 190.962 71.024C190.617 70.8373 190.351 70.6133 190.164 70.352C189.977 70.0907 189.884 69.7547 189.884 69.344C189.884 68.7093 190.141 68.2193 190.654 67.874C191.177 67.5287 191.858 67.356 192.698 67.356C193.155 67.356 193.58 67.4027 193.972 67.496C194.373 67.5893 194.747 67.7107 195.092 67.86L194.672 68.84C194.355 68.7093 194.023 68.5973 193.678 68.504C193.333 68.4107 192.978 68.364 192.614 68.364C192.11 68.364 191.723 68.448 191.452 68.616C191.191 68.7747 191.06 68.994 191.06 69.274C191.06 69.4887 191.121 69.666 191.242 69.806C191.363 69.946 191.564 70.086 191.844 70.226C192.133 70.366 192.516 70.5247 192.992 70.702C193.468 70.8793 193.874 71.0613 194.21 71.248C194.546 71.4347 194.803 71.6633 194.98 71.934C195.157 72.1953 195.246 72.5267 195.246 72.928Z" fill="#323232"/>
<rect width="272" height="36" transform="translate(70 88)" fill="white"/>
<path d="M110.012 109.362C109.912 109.362 109.812 109.312 109.762 109.262L104.113 103.662C103.962 103.512 103.962 103.262 104.113 103.112C104.263 102.963 104.512 102.963 104.662 103.112L110.012 108.462L115.312 103.112C115.462 102.963 115.713 102.963 115.863 103.112C116.012 103.262 116.012 103.512 115.863 103.662L110.262 109.262C110.162 109.312 110.112 109.362 110.012 109.362Z" fill="#323232"/>
<rect x="126" y="98" width="16" height="16" rx="4" fill="white"/>
<rect x="126.5" y="98.5" width="15" height="15" rx="3.5" stroke="#1B77AF"/>
<path d="M132.512 111.202C132.412 111.202 132.312 111.152 132.262 111.102L128.113 106.952C127.962 106.802 127.962 106.552 128.113 106.402C128.263 106.252 128.512 106.252 128.662 106.402L132.512 110.252L139.312 101.152C139.413 101.002 139.663 100.952 139.812 101.052C139.962 101.152 140.012 101.402 139.912 101.552L132.812 111.052C132.762 111.152 132.662 111.202 132.512 111.202Z" fill="white"/>
<path d="M158.96 101.004V107.472C158.96 108.163 158.82 108.788 158.54 109.348C158.26 109.899 157.831 110.337 157.252 110.664C156.673 110.981 155.945 111.14 155.068 111.14C153.817 111.14 152.87 110.804 152.226 110.132C151.582 109.451 151.26 108.555 151.26 107.444V101.004H152.52V107.486C152.52 108.298 152.735 108.928 153.164 109.376C153.603 109.824 154.261 110.048 155.138 110.048C156.043 110.048 156.697 109.81 157.098 109.334C157.509 108.849 157.714 108.228 157.714 107.472V101.004H158.96ZM166.316 108.928C166.316 109.656 166.046 110.207 165.504 110.58C164.963 110.953 164.235 111.14 163.32 111.14C162.798 111.14 162.345 111.098 161.962 111.014C161.589 110.93 161.258 110.813 160.968 110.664V109.544C161.267 109.693 161.626 109.833 162.046 109.964C162.476 110.085 162.91 110.146 163.348 110.146C163.974 110.146 164.426 110.048 164.706 109.852C164.986 109.647 165.126 109.376 165.126 109.04C165.126 108.853 165.075 108.685 164.972 108.536C164.87 108.387 164.683 108.237 164.412 108.088C164.151 107.939 163.773 107.771 163.278 107.584C162.793 107.397 162.378 107.211 162.032 107.024C161.687 106.837 161.421 106.613 161.234 106.352C161.048 106.091 160.954 105.755 160.954 105.344C160.954 104.709 161.211 104.219 161.724 103.874C162.247 103.529 162.928 103.356 163.768 103.356C164.226 103.356 164.65 103.403 165.042 103.496C165.444 103.589 165.817 103.711 166.162 103.86L165.742 104.84C165.425 104.709 165.094 104.597 164.748 104.504C164.403 104.411 164.048 104.364 163.684 104.364C163.18 104.364 162.793 104.448 162.522 104.616C162.261 104.775 162.13 104.994 162.13 105.274C162.13 105.489 162.191 105.666 162.312 105.806C162.434 105.946 162.634 106.086 162.914 106.226C163.204 106.366 163.586 106.525 164.062 106.702C164.538 106.879 164.944 107.061 165.28 107.248C165.616 107.435 165.873 107.663 166.05 107.934C166.228 108.195 166.316 108.527 166.316 108.928ZM171.027 103.356C171.662 103.356 172.213 103.496 172.679 103.776C173.146 104.056 173.501 104.453 173.743 104.966C173.995 105.47 174.121 106.063 174.121 106.744V107.486H168.983C169.002 108.335 169.217 108.984 169.627 109.432C170.047 109.871 170.631 110.09 171.377 110.09C171.853 110.09 172.273 110.048 172.637 109.964C173.011 109.871 173.393 109.74 173.785 109.572V110.65C173.403 110.818 173.025 110.939 172.651 111.014C172.278 111.098 171.835 111.14 171.321 111.14C170.603 111.14 169.973 110.995 169.431 110.706C168.89 110.417 168.465 109.987 168.157 109.418C167.859 108.849 167.709 108.144 167.709 107.304C167.709 106.483 167.845 105.778 168.115 105.19C168.395 104.602 168.783 104.149 169.277 103.832C169.781 103.515 170.365 103.356 171.027 103.356ZM171.013 104.364C170.425 104.364 169.959 104.555 169.613 104.938C169.277 105.311 169.077 105.834 169.011 106.506H172.833C172.824 105.871 172.675 105.358 172.385 104.966C172.096 104.565 171.639 104.364 171.013 104.364ZM179.532 103.356C179.672 103.356 179.821 103.365 179.98 103.384C180.138 103.393 180.283 103.412 180.414 103.44L180.26 104.574C180.138 104.546 180.003 104.523 179.854 104.504C179.704 104.485 179.569 104.476 179.448 104.476C179.065 104.476 178.706 104.583 178.37 104.798C178.034 105.003 177.763 105.297 177.558 105.68C177.362 106.053 177.264 106.492 177.264 106.996V111H176.032V103.496H177.04L177.18 104.868H177.236C177.469 104.457 177.777 104.103 178.16 103.804C178.552 103.505 179.009 103.356 179.532 103.356ZM186.701 108.928C186.701 109.656 186.43 110.207 185.889 110.58C185.348 110.953 184.62 111.14 183.705 111.14C183.182 111.14 182.73 111.098 182.347 111.014C181.974 110.93 181.642 110.813 181.353 110.664V109.544C181.652 109.693 182.011 109.833 182.431 109.964C182.86 110.085 183.294 110.146 183.733 110.146C184.358 110.146 184.811 110.048 185.091 109.852C185.371 109.647 185.511 109.376 185.511 109.04C185.511 108.853 185.46 108.685 185.357 108.536C185.254 108.387 185.068 108.237 184.797 108.088C184.536 107.939 184.158 107.771 183.663 107.584C183.178 107.397 182.762 107.211 182.417 107.024C182.072 106.837 181.806 106.613 181.619 106.352C181.432 106.091 181.339 105.755 181.339 105.344C181.339 104.709 181.596 104.219 182.109 103.874C182.632 103.529 183.313 103.356 184.153 103.356C184.61 103.356 185.035 103.403 185.427 103.496C185.828 103.589 186.202 103.711 186.547 103.86L186.127 104.84C185.81 104.709 185.478 104.597 185.133 104.504C184.788 104.411 184.433 104.364 184.069 104.364C183.565 104.364 183.178 104.448 182.907 104.616C182.646 104.775 182.515 104.994 182.515 105.274C182.515 105.489 182.576 105.666 182.697 105.806C182.818 105.946 183.019 106.086 183.299 106.226C183.588 106.366 183.971 106.525 184.447 106.702C184.923 106.879 185.329 107.061 185.665 107.248C186.001 107.435 186.258 107.663 186.435 107.934C186.612 108.195 186.701 108.527 186.701 108.928Z" fill="#323232"/>
<rect width="272" height="36" transform="translate(70 124)" fill="white"/>
<rect x="150" y="134" width="16" height="16" rx="4" fill="white"/>
<rect x="150.5" y="134.5" width="15" height="15" rx="3.5" stroke="#1B77AF"/>
<path d="M182.96 137.004V143.472C182.96 144.163 182.82 144.788 182.54 145.348C182.26 145.899 181.831 146.337 181.252 146.664C180.673 146.981 179.945 147.14 179.068 147.14C177.817 147.14 176.87 146.804 176.226 146.132C175.582 145.451 175.26 144.555 175.26 143.444V137.004H176.52V143.486C176.52 144.298 176.735 144.928 177.164 145.376C177.603 145.824 178.261 146.048 179.138 146.048C180.043 146.048 180.697 145.81 181.098 145.334C181.509 144.849 181.714 144.228 181.714 143.472V137.004H182.96ZM190.316 144.928C190.316 145.656 190.046 146.207 189.504 146.58C188.963 146.953 188.235 147.14 187.32 147.14C186.798 147.14 186.345 147.098 185.962 147.014C185.589 146.93 185.258 146.813 184.968 146.664V145.544C185.267 145.693 185.626 145.833 186.046 145.964C186.476 146.085 186.91 146.146 187.348 146.146C187.974 146.146 188.426 146.048 188.706 145.852C188.986 145.647 189.126 145.376 189.126 145.04C189.126 144.853 189.075 144.685 188.972 144.536C188.87 144.387 188.683 144.237 188.412 144.088C188.151 143.939 187.773 143.771 187.278 143.584C186.793 143.397 186.378 143.211 186.032 143.024C185.687 142.837 185.421 142.613 185.234 142.352C185.048 142.091 184.954 141.755 184.954 141.344C184.954 140.709 185.211 140.219 185.724 139.874C186.247 139.529 186.928 139.356 187.768 139.356C188.226 139.356 188.65 139.403 189.042 139.496C189.444 139.589 189.817 139.711 190.162 139.86L189.742 140.84C189.425 140.709 189.094 140.597 188.748 140.504C188.403 140.411 188.048 140.364 187.684 140.364C187.18 140.364 186.793 140.448 186.522 140.616C186.261 140.775 186.13 140.994 186.13 141.274C186.13 141.489 186.191 141.666 186.312 141.806C186.434 141.946 186.634 142.086 186.914 142.226C187.204 142.366 187.586 142.525 188.062 142.702C188.538 142.879 188.944 143.061 189.28 143.248C189.616 143.435 189.873 143.663 190.05 143.934C190.228 144.195 190.316 144.527 190.316 144.928ZM195.027 139.356C195.662 139.356 196.213 139.496 196.679 139.776C197.146 140.056 197.501 140.453 197.743 140.966C197.995 141.47 198.121 142.063 198.121 142.744V143.486H192.983C193.002 144.335 193.217 144.984 193.627 145.432C194.047 145.871 194.631 146.09 195.377 146.09C195.853 146.09 196.273 146.048 196.637 145.964C197.011 145.871 197.393 145.74 197.785 145.572V146.65C197.403 146.818 197.025 146.939 196.651 147.014C196.278 147.098 195.835 147.14 195.321 147.14C194.603 147.14 193.973 146.995 193.431 146.706C192.89 146.417 192.465 145.987 192.157 145.418C191.859 144.849 191.709 144.144 191.709 143.304C191.709 142.483 191.845 141.778 192.115 141.19C192.395 140.602 192.783 140.149 193.277 139.832C193.781 139.515 194.365 139.356 195.027 139.356ZM195.013 140.364C194.425 140.364 193.959 140.555 193.613 140.938C193.277 141.311 193.077 141.834 193.011 142.506H196.833C196.824 141.871 196.675 141.358 196.385 140.966C196.096 140.565 195.639 140.364 195.013 140.364ZM203.532 139.356C203.672 139.356 203.821 139.365 203.98 139.384C204.138 139.393 204.283 139.412 204.414 139.44L204.26 140.574C204.138 140.546 204.003 140.523 203.854 140.504C203.704 140.485 203.569 140.476 203.448 140.476C203.065 140.476 202.706 140.583 202.37 140.798C202.034 141.003 201.763 141.297 201.558 141.68C201.362 142.053 201.264 142.492 201.264 142.996V147H200.032V139.496H201.04L201.18 140.868H201.236C201.469 140.457 201.777 140.103 202.16 139.804C202.552 139.505 203.009 139.356 203.532 139.356ZM213.232 147H212.028V140.014C212.028 139.613 212.032 139.291 212.042 139.048C212.051 138.805 212.065 138.553 212.084 138.292C211.934 138.441 211.794 138.567 211.664 138.67C211.542 138.773 211.393 138.903 211.216 139.062L210.152 139.93L209.508 139.104L212.21 137.004H213.232V147Z" fill="#323232"/>
<rect width="272" height="36" transform="translate(70 160)" fill="white"/>
<path d="M70 160H72V196H70V160Z" fill="#1B77AF"/>
<rect x="150" y="170" width="16" height="16" rx="4" fill="#1B77AF"/>
<path d="M156.512 183.202C156.412 183.202 156.312 183.152 156.262 183.102L152.113 178.952C151.962 178.802 151.962 178.552 152.113 178.402C152.263 178.252 152.512 178.252 152.662 178.402L156.512 182.252L163.312 173.152C163.413 173.002 163.663 172.952 163.812 173.052C163.962 173.152 164.012 173.402 163.912 173.552L156.812 183.052C156.762 183.152 156.662 183.202 156.512 183.202Z" fill="white"/>
<path d="M183.226 173.004V179.472C183.226 180.163 183.077 180.788 182.778 181.348C182.489 181.899 182.045 182.337 181.448 182.664C180.851 182.981 180.095 183.14 179.18 183.14C177.883 183.14 176.898 182.804 176.226 182.132C175.554 181.451 175.218 180.555 175.218 179.444V173.004H177.01V179.262C177.01 180.083 177.192 180.681 177.556 181.054C177.929 181.427 178.489 181.614 179.236 181.614C180.011 181.614 180.571 181.413 180.916 181.012C181.271 180.601 181.448 180.013 181.448 179.248V173.004H183.226ZM190.759 180.802C190.759 181.567 190.484 182.151 189.933 182.552C189.392 182.944 188.612 183.14 187.595 183.14C187.063 183.14 186.606 183.103 186.223 183.028C185.85 182.953 185.486 182.837 185.131 182.678V181.18C185.504 181.357 185.915 181.507 186.363 181.628C186.82 181.749 187.25 181.81 187.651 181.81C188.136 181.81 188.486 181.735 188.701 181.586C188.916 181.437 189.023 181.236 189.023 180.984C189.023 180.835 188.981 180.704 188.897 180.592C188.813 180.471 188.65 180.34 188.407 180.2C188.164 180.06 187.796 179.887 187.301 179.682C186.816 179.486 186.41 179.29 186.083 179.094C185.766 178.898 185.523 178.665 185.355 178.394C185.196 178.123 185.117 177.773 185.117 177.344C185.117 176.663 185.388 176.149 185.929 175.804C186.47 175.449 187.184 175.272 188.071 175.272C188.538 175.272 188.976 175.319 189.387 175.412C189.807 175.505 190.227 175.645 190.647 175.832L190.087 177.134C189.732 176.985 189.387 176.859 189.051 176.756C188.715 176.653 188.37 176.602 188.015 176.602C187.24 176.602 186.853 176.821 186.853 177.26C186.853 177.419 186.9 177.554 186.993 177.666C187.096 177.778 187.268 177.899 187.511 178.03C187.763 178.151 188.118 178.301 188.575 178.478C189.023 178.655 189.41 178.842 189.737 179.038C190.064 179.225 190.316 179.458 190.493 179.738C190.67 180.009 190.759 180.363 190.759 180.802ZM195.508 175.272C196.526 175.272 197.328 175.575 197.916 176.182C198.514 176.789 198.812 177.633 198.812 178.716V179.612H193.8C193.819 180.303 194.01 180.839 194.374 181.222C194.738 181.595 195.242 181.782 195.886 181.782C196.372 181.782 196.81 181.735 197.202 181.642C197.594 181.539 197.996 181.395 198.406 181.208V182.622C198.033 182.799 197.646 182.93 197.244 183.014C196.843 183.098 196.362 183.14 195.802 183.14C195.056 183.14 194.398 183 193.828 182.72C193.259 182.431 192.811 182.001 192.484 181.432C192.167 180.853 192.008 180.13 192.008 179.262C192.008 177.965 192.326 176.975 192.96 176.294C193.604 175.613 194.454 175.272 195.508 175.272ZM195.508 176.574C195.032 176.574 194.645 176.728 194.346 177.036C194.057 177.335 193.889 177.783 193.842 178.38H197.104C197.095 177.857 196.96 177.428 196.698 177.092C196.446 176.747 196.05 176.574 195.508 176.574ZM204.567 175.272C204.688 175.272 204.824 175.281 204.973 175.3C205.122 175.309 205.244 175.323 205.337 175.342L205.183 176.98C205.09 176.961 204.973 176.947 204.833 176.938C204.702 176.919 204.59 176.91 204.497 176.91C204.124 176.91 203.774 176.989 203.447 177.148C203.12 177.297 202.854 177.531 202.649 177.848C202.453 178.165 202.355 178.571 202.355 179.066V183H200.591V175.412H201.949L202.201 176.728H202.285C202.509 176.327 202.817 175.986 203.209 175.706C203.601 175.417 204.054 175.272 204.567 175.272ZM216.694 183H209.848V181.698L212.396 179.122C212.9 178.609 213.311 178.17 213.628 177.806C213.955 177.442 214.193 177.101 214.342 176.784C214.501 176.457 214.58 176.107 214.58 175.734C214.58 175.277 214.449 174.936 214.188 174.712C213.936 174.479 213.591 174.362 213.152 174.362C212.732 174.362 212.34 174.451 211.976 174.628C211.612 174.796 211.234 175.039 210.842 175.356L209.876 174.194C210.287 173.839 210.749 173.531 211.262 173.27C211.785 172.999 212.447 172.864 213.25 172.864C213.894 172.864 214.445 172.981 214.902 173.214C215.369 173.438 215.728 173.755 215.98 174.166C216.232 174.567 216.358 175.029 216.358 175.552C216.358 176.093 216.251 176.593 216.036 177.05C215.821 177.498 215.509 177.951 215.098 178.408C214.697 178.856 214.216 179.341 213.656 179.864L212.074 181.39V181.474H216.694V183Z" fill="#1B77AF"/>
<rect width="272" height="36" transform="translate(70 196)" fill="white"/>
<rect x="150" y="206" width="16" height="16" rx="4" fill="white"/>
<rect x="150.5" y="206.5" width="15" height="15" rx="3.5" stroke="#1B77AF"/>
<path d="M182.96 209.004V215.472C182.96 216.163 182.82 216.788 182.54 217.348C182.26 217.899 181.831 218.337 181.252 218.664C180.673 218.981 179.945 219.14 179.068 219.14C177.817 219.14 176.87 218.804 176.226 218.132C175.582 217.451 175.26 216.555 175.26 215.444V209.004H176.52V215.486C176.52 216.298 176.735 216.928 177.164 217.376C177.603 217.824 178.261 218.048 179.138 218.048C180.043 218.048 180.697 217.81 181.098 217.334C181.509 216.849 181.714 216.228 181.714 215.472V209.004H182.96ZM190.316 216.928C190.316 217.656 190.046 218.207 189.504 218.58C188.963 218.953 188.235 219.14 187.32 219.14C186.798 219.14 186.345 219.098 185.962 219.014C185.589 218.93 185.258 218.813 184.968 218.664V217.544C185.267 217.693 185.626 217.833 186.046 217.964C186.476 218.085 186.91 218.146 187.348 218.146C187.974 218.146 188.426 218.048 188.706 217.852C188.986 217.647 189.126 217.376 189.126 217.04C189.126 216.853 189.075 216.685 188.972 216.536C188.87 216.387 188.683 216.237 188.412 216.088C188.151 215.939 187.773 215.771 187.278 215.584C186.793 215.397 186.378 215.211 186.032 215.024C185.687 214.837 185.421 214.613 185.234 214.352C185.048 214.091 184.954 213.755 184.954 213.344C184.954 212.709 185.211 212.219 185.724 211.874C186.247 211.529 186.928 211.356 187.768 211.356C188.226 211.356 188.65 211.403 189.042 211.496C189.444 211.589 189.817 211.711 190.162 211.86L189.742 212.84C189.425 212.709 189.094 212.597 188.748 212.504C188.403 212.411 188.048 212.364 187.684 212.364C187.18 212.364 186.793 212.448 186.522 212.616C186.261 212.775 186.13 212.994 186.13 213.274C186.13 213.489 186.191 213.666 186.312 213.806C186.434 213.946 186.634 214.086 186.914 214.226C187.204 214.366 187.586 214.525 188.062 214.702C188.538 214.879 188.944 215.061 189.28 215.248C189.616 215.435 189.873 215.663 190.05 215.934C190.228 216.195 190.316 216.527 190.316 216.928ZM195.027 211.356C195.662 211.356 196.213 211.496 196.679 211.776C197.146 212.056 197.501 212.453 197.743 212.966C197.995 213.47 198.121 214.063 198.121 214.744V215.486H192.983C193.002 216.335 193.217 216.984 193.627 217.432C194.047 217.871 194.631 218.09 195.377 218.09C195.853 218.09 196.273 218.048 196.637 217.964C197.011 217.871 197.393 217.74 197.785 217.572V218.65C197.403 218.818 197.025 218.939 196.651 219.014C196.278 219.098 195.835 219.14 195.321 219.14C194.603 219.14 193.973 218.995 193.431 218.706C192.89 218.417 192.465 217.987 192.157 217.418C191.859 216.849 191.709 216.144 191.709 215.304C191.709 214.483 191.845 213.778 192.115 213.19C192.395 212.602 192.783 212.149 193.277 211.832C193.781 211.515 194.365 211.356 195.027 211.356ZM195.013 212.364C194.425 212.364 193.959 212.555 193.613 212.938C193.277 213.311 193.077 213.834 193.011 214.506H196.833C196.824 213.871 196.675 213.358 196.385 212.966C196.096 212.565 195.639 212.364 195.013 212.364ZM203.532 211.356C203.672 211.356 203.821 211.365 203.98 211.384C204.138 211.393 204.283 211.412 204.414 211.44L204.26 212.574C204.138 212.546 204.003 212.523 203.854 212.504C203.704 212.485 203.569 212.476 203.448 212.476C203.065 212.476 202.706 212.583 202.37 212.798C202.034 213.003 201.763 213.297 201.558 213.68C201.362 214.053 201.264 214.492 201.264 214.996V219H200.032V211.496H201.04L201.18 212.868H201.236C201.469 212.457 201.777 212.103 202.16 211.804C202.552 211.505 203.009 211.356 203.532 211.356ZM215.164 211.342C215.164 212.014 214.972 212.551 214.59 212.952C214.216 213.344 213.717 213.605 213.092 213.736V213.792C213.885 213.885 214.478 214.137 214.87 214.548C215.271 214.959 215.472 215.495 215.472 216.158C215.472 216.746 215.336 217.264 215.066 217.712C214.795 218.16 214.375 218.51 213.806 218.762C213.246 219.014 212.522 219.14 211.636 219.14C211.113 219.14 210.628 219.098 210.18 219.014C209.732 218.939 209.302 218.799 208.892 218.594V217.446C209.312 217.661 209.764 217.824 210.25 217.936C210.735 218.048 211.202 218.104 211.65 218.104C212.546 218.104 213.19 217.931 213.582 217.586C213.983 217.231 214.184 216.746 214.184 216.13C214.184 215.505 213.936 215.057 213.442 214.786C212.956 214.506 212.27 214.366 211.384 214.366H210.418V213.316H211.398C212.219 213.316 212.84 213.143 213.26 212.798C213.689 212.453 213.904 211.995 213.904 211.426C213.904 210.941 213.74 210.567 213.414 210.306C213.087 210.035 212.644 209.9 212.084 209.9C211.542 209.9 211.08 209.979 210.698 210.138C210.315 210.297 209.937 210.497 209.564 210.74L208.948 209.9C209.302 209.62 209.741 209.377 210.264 209.172C210.796 208.967 211.398 208.864 212.07 208.864C213.115 208.864 213.89 209.097 214.394 209.564C214.907 210.031 215.164 210.623 215.164 211.342Z" fill="#323232"/>
<rect width="272" height="36" transform="translate(70 232)" fill="white"/>
<path d="M107.412 255.962C107.312 255.962 107.212 255.913 107.162 255.863C107.013 255.713 107.013 255.462 107.162 255.312L112.462 250.012L107.112 244.662C106.963 244.512 106.963 244.263 107.112 244.113C107.262 243.962 107.512 243.962 107.662 244.113L113.262 249.712C113.312 249.762 113.362 249.862 113.362 249.962C113.362 250.062 113.312 250.162 113.262 250.212L107.662 255.863C107.562 255.963 107.463 255.962 107.412 255.962Z" fill="#323232"/>
<rect x="126" y="242" width="16" height="16" rx="4" fill="white"/>
<rect x="126.5" y="242.5" width="15" height="15" rx="3.5" stroke="#1B77AF"/>
<path d="M155.642 245.97C154.569 245.97 153.724 246.329 153.108 247.048C152.492 247.767 152.184 248.751 152.184 250.002C152.184 251.243 152.469 252.228 153.038 252.956C153.617 253.675 154.48 254.034 155.628 254.034C156.057 254.034 156.468 253.997 156.86 253.922C157.252 253.847 157.639 253.754 158.022 253.642V254.734C157.649 254.874 157.261 254.977 156.86 255.042C156.468 255.107 155.997 255.14 155.446 255.14C154.429 255.14 153.579 254.93 152.898 254.51C152.217 254.09 151.703 253.493 151.358 252.718C151.022 251.943 150.854 251.033 150.854 249.988C150.854 248.98 151.036 248.093 151.4 247.328C151.773 246.553 152.319 245.951 153.038 245.522C153.757 245.083 154.629 244.864 155.656 244.864C156.711 244.864 157.63 245.06 158.414 245.452L157.91 246.516C157.602 246.376 157.257 246.25 156.874 246.138C156.501 246.026 156.09 245.97 155.642 245.97ZM161.268 255H160.036V244.36H161.268V255ZM164.275 244.682C164.462 244.682 164.625 244.747 164.765 244.878C164.914 244.999 164.989 245.195 164.989 245.466C164.989 245.737 164.914 245.937 164.765 246.068C164.625 246.189 164.462 246.25 164.275 246.25C164.07 246.25 163.897 246.189 163.757 246.068C163.617 245.937 163.547 245.737 163.547 245.466C163.547 245.195 163.617 244.999 163.757 244.878C163.897 244.747 164.07 244.682 164.275 244.682ZM164.877 247.496V255H163.645V247.496H164.877ZM170.152 247.356C170.787 247.356 171.338 247.496 171.804 247.776C172.271 248.056 172.626 248.453 172.868 248.966C173.12 249.47 173.246 250.063 173.246 250.744V251.486H168.108C168.127 252.335 168.342 252.984 168.752 253.432C169.172 253.871 169.756 254.09 170.502 254.09C170.978 254.09 171.398 254.048 171.762 253.964C172.136 253.871 172.518 253.74 172.91 253.572V254.65C172.528 254.818 172.15 254.939 171.776 255.014C171.403 255.098 170.96 255.14 170.446 255.14C169.728 255.14 169.098 254.995 168.556 254.706C168.015 254.417 167.59 253.987 167.282 253.418C166.984 252.849 166.834 252.144 166.834 251.304C166.834 250.483 166.97 249.778 167.24 249.19C167.52 248.602 167.908 248.149 168.402 247.832C168.906 247.515 169.49 247.356 170.152 247.356ZM170.138 248.364C169.55 248.364 169.084 248.555 168.738 248.938C168.402 249.311 168.202 249.834 168.136 250.506H171.958C171.949 249.871 171.8 249.358 171.51 248.966C171.221 248.565 170.764 248.364 170.138 248.364ZM178.769 247.356C179.665 247.356 180.341 247.575 180.799 248.014C181.256 248.453 181.485 249.153 181.485 250.114V255H180.267V250.198C180.267 248.994 179.707 248.392 178.587 248.392C177.756 248.392 177.182 248.625 176.865 249.092C176.547 249.559 176.389 250.231 176.389 251.108V255H175.157V247.496H176.151L176.333 248.518H176.403C176.645 248.126 176.981 247.837 177.411 247.65C177.84 247.454 178.293 247.356 178.769 247.356ZM186.317 254.132C186.504 254.132 186.695 254.118 186.891 254.09C187.087 254.062 187.246 254.025 187.367 253.978V254.916C187.236 254.981 187.05 255.033 186.807 255.07C186.564 255.117 186.331 255.14 186.107 255.14C185.715 255.14 185.351 255.075 185.015 254.944C184.688 254.804 184.422 254.566 184.217 254.23C184.012 253.894 183.909 253.423 183.909 252.816V248.448H182.845V247.86L183.923 247.37L184.413 245.774H185.141V247.496H187.311V248.448H185.141V252.788C185.141 253.245 185.248 253.586 185.463 253.81C185.687 254.025 185.972 254.132 186.317 254.132ZM193.756 252.928C193.756 253.656 193.485 254.207 192.944 254.58C192.402 254.953 191.674 255.14 190.76 255.14C190.237 255.14 189.784 255.098 189.402 255.014C189.028 254.93 188.697 254.813 188.408 254.664V253.544C188.706 253.693 189.066 253.833 189.486 253.964C189.915 254.085 190.349 254.146 190.788 254.146C191.413 254.146 191.866 254.048 192.146 253.852C192.426 253.647 192.566 253.376 192.566 253.04C192.566 252.853 192.514 252.685 192.412 252.536C192.309 252.387 192.122 252.237 191.852 252.088C191.59 251.939 191.212 251.771 190.718 251.584C190.232 251.397 189.817 251.211 189.472 251.024C189.126 250.837 188.86 250.613 188.674 250.352C188.487 250.091 188.394 249.755 188.394 249.344C188.394 248.709 188.65 248.219 189.164 247.874C189.686 247.529 190.368 247.356 191.208 247.356C191.665 247.356 192.09 247.403 192.482 247.496C192.883 247.589 193.256 247.711 193.602 247.86L193.182 248.84C192.864 248.709 192.533 248.597 192.188 248.504C191.842 248.411 191.488 248.364 191.124 248.364C190.62 248.364 190.232 248.448 189.962 248.616C189.7 248.775 189.57 248.994 189.57 249.274C189.57 249.489 189.63 249.666 189.752 249.806C189.873 249.946 190.074 250.086 190.354 250.226C190.643 250.366 191.026 250.525 191.502 250.702C191.978 250.879 192.384 251.061 192.72 251.248C193.056 251.435 193.312 251.663 193.49 251.934C193.667 252.195 193.756 252.527 193.756 252.928Z" fill="#323232"/>
</svg>
