<svg width="400" height="200" viewBox="0 0 400 200" fill="none" xmlns="http://www.w3.org/2000/svg">
<rect width="400" height="200" fill="white"/>
<g clip-path="url(#clip0_8689_347452)">
<rect width="634" height="58" transform="translate(21 71)" fill="white"/>
<g clip-path="url(#clip1_8689_347452)">
<g clip-path="url(#clip2_8689_347452)">
<rect x="21" y="91.5" width="8" height="17" fill="white"/>
<path fill-rule="evenodd" clip-rule="evenodd" d="M56.4625 90.625C54.9092 90.625 53.65 91.8842 53.65 93.4375C53.65 94.9908 54.9092 96.25 56.4625 96.25C58.0158 96.25 59.275 94.9908 59.275 93.4375C59.275 91.8842 58.0158 90.625 56.4625 90.625ZM52.525 93.4375C52.525 91.2629 54.2879 89.5 56.4625 89.5C58.6371 89.5 60.4 91.2629 60.4 93.4375C60.4 95.6121 58.6371 97.375 56.4625 97.375C54.2879 97.375 52.525 95.6121 52.525 93.4375ZM56.4625 99.925C53.3982 99.925 50.875 102.448 50.875 105.512V108.062C50.875 108.373 50.6232 108.625 50.3125 108.625C50.0018 108.625 49.75 108.373 49.75 108.062V105.512C49.75 101.827 52.7768 98.8 56.4625 98.8C58.0117 98.8 59.4095 99.2912 60.56 100.195C60.8043 100.387 60.8467 100.741 60.6548 100.985C60.4629 101.229 60.1093 101.272 59.865 101.08C58.9155 100.334 57.7633 99.925 56.4625 99.925ZM65.8896 104.174C66.1319 104.368 66.1706 104.722 65.9761 104.965L61.7011 110.29C61.5909 110.427 61.4227 110.505 61.2467 110.5C61.0707 110.495 60.9071 110.408 60.8048 110.264L58.9298 107.639C58.7492 107.387 58.8078 107.035 59.0606 106.855C59.3133 106.674 59.6647 106.733 59.8452 106.986L61.2887 109.006L65.0989 104.26C65.2933 104.018 65.6474 103.979 65.8896 104.174Z" fill="#323232"/>
<path d="M123.575 99.4H116.525V92.35C116.525 92.05 116.3 91.75 115.925 91.75C115.55 91.75 115.325 91.975 115.325 92.35V99.4H108.35C108.05 99.4 107.75 99.625 107.75 100C107.75 100.375 107.975 100.6 108.35 100.6H115.4V107.65C115.4 107.95 115.625 108.25 116 108.25C116.375 108.25 116.6 108.025 116.6 107.65V100.6H123.65C123.95 100.6 124.25 100.375 124.25 100C124.25 99.625 123.875 99.4 123.575 99.4Z" fill="#323232"/>
</g>
<g clip-path="url(#clip3_8689_347452)">
<path d="M292 89.5C286.225 89.5 281.5 94.225 281.5 100C281.5 102.175 282.175 104.35 283.45 106.15C283.525 106.3 283.75 106.375 283.9 106.375H300.025C300.175 106.375 300.4 106.3 300.475 106.15C301.825 104.35 302.5 102.25 302.5 100C302.5 94.225 297.775 89.5 292 89.5ZM299.8 105.25H284.2C283.225 103.825 282.7 102.25 282.625 100.6H283.3C283.6 100.6 283.9 100.375 283.9 100C283.9 99.625 283.675 99.4 283.3 99.4H282.625C282.775 97.225 283.6 95.275 284.95 93.775L285.4 94.225C285.475 94.3 285.625 94.375 285.775 94.375C285.925 94.375 286.075 94.3 286.15 94.225C286.375 94 286.375 93.625 286.15 93.4L285.775 93.025C287.275 91.675 289.225 90.85 291.4 90.7V91.375C291.4 91.675 291.625 91.975 292 91.975C292.375 91.975 292.6 91.75 292.6 91.375V90.625C294.775 90.775 296.725 91.6 298.225 92.95L297.775 93.4C297.55 93.625 297.55 94 297.775 94.225C297.85 94.3 298 94.375 298.15 94.375C298.3 94.375 298.45 94.3 298.525 94.225L298.975 93.775C300.325 95.275 301.225 97.225 301.3 99.4H300.625C300.325 99.4 300.025 99.625 300.025 100C300.025 100.375 300.25 100.6 300.625 100.6H301.3C301.225 102.25 300.7 103.825 299.8 105.25Z" fill="#323232"/>
<path d="M295.825 95.5L293.5 97.825C293.05 97.525 292.6 97.375 292 97.375C290.575 97.375 289.375 98.575 289.375 100C289.375 101.425 290.575 102.625 292 102.625C293.425 102.625 294.625 101.425 294.625 100C294.625 99.55 294.475 99.025 294.25 98.65L296.65 96.25C296.875 96.025 296.875 95.65 296.65 95.425C296.425 95.2 296.05 95.275 295.825 95.5ZM292 101.5C291.175 101.5 290.5 100.825 290.5 100C290.5 99.175 291.175 98.5 292 98.5C292.825 98.5 293.5 99.175 293.5 100C293.5 100.825 292.825 101.5 292 101.5Z" fill="#323232"/>
<path d="M295.975 109.375H288.025C287.725 109.375 287.425 109.6 287.425 109.975C287.425 110.35 287.725 110.5 288.025 110.5H295.9C296.2 110.5 296.5 110.275 296.5 109.9C296.5 109.525 296.275 109.375 295.975 109.375Z" fill="#323232"/>
<path d="M359.703 106.75C357.453 104.8 356.253 101.275 356.253 96.775C356.253 93.55 354.153 90.25 350.103 90.25C346.053 90.25 343.953 93.55 343.953 96.775C343.953 101.275 342.753 104.875 340.503 106.75C340.278 106.9 340.203 107.2 340.278 107.35C340.353 107.575 340.578 107.725 340.803 107.725H346.878C347.178 109.225 348.453 110.425 350.103 110.425C351.753 110.425 353.028 109.225 353.328 107.725H359.403C359.628 107.725 359.853 107.575 359.928 107.35C360.003 107.2 359.928 106.9 359.703 106.75ZM350.103 109.3C349.128 109.3 348.303 108.625 348.078 107.725H352.203C351.903 108.625 351.078 109.3 350.103 109.3ZM342.153 106.6C344.028 104.35 345.078 100.9 345.078 96.7C345.078 94.075 346.653 91.3 350.103 91.3C353.553 91.3 355.128 94.075 355.128 96.7C355.128 100.9 356.178 104.35 358.053 106.6H342.153Z" fill="#323232"/>
<rect x="350" y="81" width="15" height="16" rx="7.5" fill="#DA291C"/>
<path d="M360.306 89.092C360.306 89.708 360.25 90.316 360.138 90.916C360.034 91.508 359.838 92.048 359.55 92.536C359.27 93.016 358.87 93.4 358.35 93.688C357.838 93.976 357.178 94.12 356.37 94.12C356.21 94.12 356.022 94.108 355.806 94.084C355.59 94.068 355.418 94.04 355.29 94V93.1C355.602 93.204 355.954 93.256 356.346 93.256C356.906 93.256 357.366 93.164 357.726 92.98C358.094 92.796 358.386 92.548 358.602 92.236C358.818 91.916 358.974 91.548 359.07 91.132C359.166 90.708 359.222 90.264 359.238 89.8H359.166C358.982 90.072 358.726 90.308 358.398 90.508C358.07 90.7 357.646 90.796 357.126 90.796C356.39 90.796 355.794 90.572 355.338 90.124C354.89 89.668 354.666 89.028 354.666 88.204C354.666 87.604 354.778 87.088 355.002 86.656C355.226 86.224 355.542 85.892 355.95 85.66C356.366 85.428 356.85 85.312 357.402 85.312C357.946 85.312 358.438 85.452 358.878 85.732C359.318 86.004 359.666 86.42 359.922 86.98C360.178 87.532 360.306 88.236 360.306 89.092ZM357.402 86.2C356.906 86.2 356.498 86.364 356.178 86.692C355.866 87.02 355.71 87.52 355.71 88.192C355.71 88.744 355.842 89.18 356.106 89.5C356.378 89.812 356.794 89.968 357.354 89.968C357.738 89.968 358.07 89.892 358.35 89.74C358.63 89.58 358.846 89.38 358.998 89.14C359.158 88.9 359.238 88.652 359.238 88.396C359.238 88.052 359.17 87.712 359.034 87.376C358.898 87.04 358.694 86.76 358.422 86.536C358.15 86.312 357.81 86.2 357.402 86.2Z" fill="white"/>
</g>
</g>
<line x1="21" y1="128.5" x2="655" y2="128.5" stroke="#C9C9C9"/>
</g>
<defs>
<clipPath id="clip0_8689_347452">
<rect width="358" height="58" fill="white" transform="translate(21 71)"/>
</clipPath>
<clipPath id="clip1_8689_347452">
<rect width="634" height="58" fill="white" transform="translate(21 71)"/>
</clipPath>
<clipPath id="clip2_8689_347452">
<rect width="124" height="58" fill="white" transform="translate(21 71)"/>
</clipPath>
<clipPath id="clip3_8689_347452">
<rect width="392" height="58" fill="white" transform="translate(263 71)"/>
</clipPath>
</defs>
</svg>
