<svg width="412" height="200" viewBox="0 0 412 200" fill="none" xmlns="http://www.w3.org/2000/svg">
<rect width="412" height="200" fill="white"/>
<path d="M130.836 25.76C129.916 25.76 129.192 26.068 128.664 26.684C128.136 27.3 127.872 28.144 127.872 29.216C127.872 30.28 128.116 31.124 128.604 31.748C129.1 32.364 129.84 32.672 130.824 32.672C131.192 32.672 131.544 32.64 131.88 32.576C132.216 32.512 132.548 32.432 132.876 32.336V33.272C132.556 33.392 132.224 33.48 131.88 33.536C131.544 33.592 131.14 33.62 130.668 33.62C129.796 33.62 129.068 33.44 128.484 33.08C127.9 32.72 127.46 32.208 127.164 31.544C126.876 30.88 126.732 30.1 126.732 29.204C126.732 28.34 126.888 27.58 127.2 26.924C127.52 26.26 127.988 25.744 128.604 25.376C129.22 25 129.968 24.812 130.848 24.812C131.752 24.812 132.54 24.98 133.212 25.316L132.78 26.228C132.516 26.108 132.22 26 131.892 25.904C131.572 25.808 131.22 25.76 130.836 25.76ZM137.038 26.96C137.822 26.96 138.402 27.132 138.778 27.476C139.154 27.82 139.342 28.368 139.342 29.12V33.5H138.574L138.37 32.588H138.322C138.042 32.94 137.746 33.2 137.434 33.368C137.122 33.536 136.698 33.62 136.162 33.62C135.578 33.62 135.094 33.468 134.71 33.164C134.326 32.852 134.134 32.368 134.134 31.712C134.134 31.072 134.386 30.58 134.89 30.236C135.394 29.884 136.17 29.692 137.218 29.66L138.31 29.624V29.24C138.31 28.704 138.194 28.332 137.962 28.124C137.73 27.916 137.402 27.812 136.978 27.812C136.642 27.812 136.322 27.864 136.018 27.968C135.714 28.064 135.43 28.176 135.166 28.304L134.842 27.512C135.122 27.36 135.454 27.232 135.838 27.128C136.222 27.016 136.622 26.96 137.038 26.96ZM138.298 30.356L137.35 30.392C136.55 30.424 135.994 30.552 135.682 30.776C135.378 31 135.226 31.316 135.226 31.724C135.226 32.084 135.334 32.348 135.55 32.516C135.774 32.684 136.058 32.768 136.402 32.768C136.938 32.768 137.386 32.62 137.746 32.324C138.114 32.02 138.298 31.556 138.298 30.932V30.356ZM143.477 32.756C143.637 32.756 143.801 32.744 143.969 32.72C144.137 32.696 144.273 32.664 144.377 32.624V33.428C144.265 33.484 144.105 33.528 143.897 33.56C143.689 33.6 143.489 33.62 143.297 33.62C142.961 33.62 142.649 33.564 142.361 33.452C142.081 33.332 141.853 33.128 141.677 32.84C141.501 32.552 141.413 32.148 141.413 31.628V27.884H140.501V27.38L141.425 26.96L141.845 25.592H142.469V27.068H144.329V27.884H142.469V31.604C142.469 31.996 142.561 32.288 142.745 32.48C142.937 32.664 143.181 32.756 143.477 32.756ZM148.149 26.948C148.693 26.948 149.165 27.068 149.565 27.308C149.965 27.548 150.269 27.888 150.477 28.328C150.693 28.76 150.801 29.268 150.801 29.852V30.488H146.397C146.413 31.216 146.597 31.772 146.949 32.156C147.309 32.532 147.809 32.72 148.449 32.72C148.857 32.72 149.217 32.684 149.529 32.612C149.849 32.532 150.177 32.42 150.513 32.276V33.2C150.185 33.344 149.861 33.448 149.541 33.512C149.221 33.584 148.841 33.62 148.401 33.62C147.785 33.62 147.245 33.496 146.781 33.248C146.317 33 145.953 32.632 145.689 32.144C145.433 31.656 145.305 31.052 145.305 30.332C145.305 29.628 145.421 29.024 145.653 28.52C145.893 28.016 146.225 27.628 146.649 27.356C147.081 27.084 147.581 26.948 148.149 26.948ZM148.137 27.812C147.633 27.812 147.233 27.976 146.937 28.304C146.649 28.624 146.477 29.072 146.421 29.648H149.697C149.689 29.104 149.561 28.664 149.313 28.328C149.065 27.984 148.673 27.812 148.137 27.812ZM154.718 26.948C155.142 26.948 155.522 27.028 155.858 27.188C156.202 27.348 156.494 27.592 156.734 27.92H156.794L156.938 27.068H157.778V33.608C157.778 34.528 157.542 35.22 157.07 35.684C156.606 36.148 155.882 36.38 154.898 36.38C153.954 36.38 153.182 36.244 152.582 35.972V35C153.214 35.336 154.006 35.504 154.958 35.504C155.51 35.504 155.942 35.34 156.254 35.012C156.574 34.692 156.734 34.252 156.734 33.692V33.44C156.734 33.344 156.738 33.208 156.746 33.032C156.754 32.848 156.762 32.72 156.77 32.648H156.722C156.29 33.296 155.626 33.62 154.73 33.62C153.898 33.62 153.246 33.328 152.774 32.744C152.31 32.16 152.078 31.344 152.078 30.296C152.078 29.272 152.31 28.46 152.774 27.86C153.246 27.252 153.894 26.948 154.718 26.948ZM154.862 27.836C154.326 27.836 153.91 28.052 153.614 28.484C153.318 28.908 153.17 29.516 153.17 30.308C153.17 31.1 153.314 31.708 153.602 32.132C153.89 32.548 154.318 32.756 154.886 32.756C155.534 32.756 156.006 32.584 156.302 32.24C156.598 31.888 156.746 31.324 156.746 30.548V30.296C156.746 29.424 156.594 28.796 156.29 28.412C155.986 28.028 155.51 27.836 154.862 27.836ZM165.413 30.272C165.413 31.336 165.141 32.16 164.597 32.744C164.061 33.328 163.333 33.62 162.413 33.62C161.845 33.62 161.337 33.492 160.889 33.236C160.449 32.972 160.101 32.592 159.845 32.096C159.589 31.592 159.461 30.984 159.461 30.272C159.461 29.208 159.725 28.388 160.253 27.812C160.789 27.236 161.521 26.948 162.449 26.948C163.025 26.948 163.537 27.08 163.985 27.344C164.433 27.6 164.781 27.976 165.029 28.472C165.285 28.96 165.413 29.56 165.413 30.272ZM160.553 30.272C160.553 31.032 160.701 31.636 160.997 32.084C161.301 32.524 161.781 32.744 162.437 32.744C163.085 32.744 163.561 32.524 163.865 32.084C164.169 31.636 164.321 31.032 164.321 30.272C164.321 29.512 164.169 28.916 163.865 28.484C163.561 28.052 163.081 27.836 162.425 27.836C161.769 27.836 161.293 28.052 160.997 28.484C160.701 28.916 160.553 29.512 160.553 30.272ZM170.086 26.948C170.206 26.948 170.334 26.956 170.47 26.972C170.606 26.98 170.73 26.996 170.842 27.02L170.71 27.992C170.606 27.968 170.49 27.948 170.362 27.932C170.234 27.916 170.118 27.908 170.014 27.908C169.686 27.908 169.378 28 169.09 28.184C168.802 28.36 168.57 28.612 168.394 28.94C168.226 29.26 168.142 29.636 168.142 30.068V33.5H167.086V27.068H167.95L168.07 28.244H168.118C168.318 27.892 168.582 27.588 168.91 27.332C169.246 27.076 169.638 26.948 170.086 26.948ZM171.035 27.068H172.163L173.555 30.728C173.675 31.056 173.783 31.364 173.879 31.652C173.975 31.94 174.047 32.216 174.095 32.48H174.143C174.191 32.28 174.267 32.02 174.371 31.7C174.475 31.372 174.583 31.044 174.695 30.716L176.003 27.068H177.143L174.371 34.388C174.139 34.996 173.847 35.48 173.495 35.84C173.143 36.2 172.655 36.38 172.031 36.38C171.839 36.38 171.671 36.368 171.527 36.344C171.383 36.328 171.259 36.308 171.155 36.284V35.444C171.243 35.46 171.347 35.476 171.467 35.492C171.595 35.508 171.727 35.516 171.863 35.516C172.231 35.516 172.527 35.412 172.751 35.204C172.975 34.996 173.155 34.72 173.291 34.376L173.627 33.524L171.035 27.068ZM181.422 33.5V24.932H182.502V32.54H186.246V33.5H181.422ZM190.007 26.96C190.791 26.96 191.371 27.132 191.747 27.476C192.123 27.82 192.311 28.368 192.311 29.12V33.5H191.543L191.339 32.588H191.291C191.011 32.94 190.715 33.2 190.403 33.368C190.091 33.536 189.667 33.62 189.131 33.62C188.547 33.62 188.063 33.468 187.679 33.164C187.295 32.852 187.103 32.368 187.103 31.712C187.103 31.072 187.355 30.58 187.859 30.236C188.363 29.884 189.139 29.692 190.187 29.66L191.279 29.624V29.24C191.279 28.704 191.163 28.332 190.931 28.124C190.699 27.916 190.371 27.812 189.947 27.812C189.611 27.812 189.291 27.864 188.987 27.968C188.683 28.064 188.399 28.176 188.135 28.304L187.811 27.512C188.091 27.36 188.423 27.232 188.807 27.128C189.191 27.016 189.591 26.96 190.007 26.96ZM191.267 30.356L190.319 30.392C189.519 30.424 188.963 30.552 188.651 30.776C188.347 31 188.195 31.316 188.195 31.724C188.195 32.084 188.303 32.348 188.519 32.516C188.743 32.684 189.027 32.768 189.371 32.768C189.907 32.768 190.355 32.62 190.715 32.324C191.083 32.02 191.267 31.556 191.267 30.932V30.356ZM195.353 24.38V26.6C195.353 26.872 195.345 27.128 195.329 27.368C195.321 27.6 195.309 27.784 195.293 27.92H195.353C195.537 27.648 195.789 27.42 196.109 27.236C196.429 27.052 196.841 26.96 197.345 26.96C198.145 26.96 198.785 27.24 199.265 27.8C199.753 28.352 199.997 29.18 199.997 30.284C199.997 31.388 199.753 32.22 199.265 32.78C198.777 33.34 198.137 33.62 197.345 33.62C196.841 33.62 196.429 33.528 196.109 33.344C195.789 33.16 195.537 32.94 195.353 32.684H195.269L195.053 33.5H194.297V24.38H195.353ZM197.165 27.836C196.477 27.836 196.001 28.032 195.737 28.424C195.481 28.816 195.353 29.424 195.353 30.248V30.296C195.353 31.088 195.481 31.696 195.737 32.12C196.001 32.536 196.485 32.744 197.189 32.744C197.765 32.744 198.193 32.532 198.473 32.108C198.761 31.684 198.905 31.072 198.905 30.272C198.905 28.648 198.325 27.836 197.165 27.836ZM204.164 26.948C204.708 26.948 205.18 27.068 205.58 27.308C205.98 27.548 206.284 27.888 206.492 28.328C206.708 28.76 206.816 29.268 206.816 29.852V30.488H202.412C202.428 31.216 202.612 31.772 202.964 32.156C203.324 32.532 203.824 32.72 204.464 32.72C204.872 32.72 205.232 32.684 205.544 32.612C205.864 32.532 206.192 32.42 206.528 32.276V33.2C206.2 33.344 205.876 33.448 205.556 33.512C205.236 33.584 204.856 33.62 204.416 33.62C203.8 33.62 203.26 33.496 202.796 33.248C202.332 33 201.968 32.632 201.704 32.144C201.448 31.656 201.32 31.052 201.32 30.332C201.32 29.628 201.436 29.024 201.668 28.52C201.908 28.016 202.24 27.628 202.664 27.356C203.096 27.084 203.596 26.948 204.164 26.948ZM204.152 27.812C203.648 27.812 203.248 27.976 202.952 28.304C202.664 28.624 202.492 29.072 202.436 29.648H205.712C205.704 29.104 205.576 28.664 205.328 28.328C205.08 27.984 204.688 27.812 204.152 27.812ZM209.51 33.5H208.454V24.38H209.51V33.5Z" fill="black"/>
<circle cx="134" cy="64.5" r="7.5" fill="white" stroke="#1B77AF"/>
<circle cx="134" cy="64.5" r="5" fill="#1B77AF"/>
<path d="M154.116 49.504C155.357 49.504 156.272 49.742 156.86 50.218C157.457 50.6847 157.756 51.394 157.756 52.346C157.756 52.878 157.658 53.3213 157.462 53.676C157.266 54.0307 157.014 54.3153 156.706 54.53C156.407 54.7447 156.09 54.908 155.754 55.02L158.498 59.5H157.028L154.606 55.37H152.618V59.5H151.358V49.504H154.116ZM154.046 50.596H152.618V54.306H154.116C154.928 54.306 155.521 54.1473 155.894 53.83C156.267 53.5033 156.454 53.0273 156.454 52.402C156.454 51.7487 156.258 51.2867 155.866 51.016C155.474 50.736 154.867 50.596 154.046 50.596ZM162.741 51.87C163.656 51.87 164.332 52.0707 164.771 52.472C165.21 52.8733 165.429 53.5127 165.429 54.39V59.5H164.533L164.295 58.436H164.239C163.912 58.8467 163.567 59.15 163.203 59.346C162.839 59.542 162.344 59.64 161.719 59.64C161.038 59.64 160.473 59.4627 160.025 59.108C159.577 58.744 159.353 58.1793 159.353 57.414C159.353 56.6673 159.647 56.0933 160.235 55.692C160.823 55.2813 161.728 55.0573 162.951 55.02L164.225 54.978V54.53C164.225 53.9047 164.09 53.4707 163.819 53.228C163.548 52.9853 163.166 52.864 162.671 52.864C162.279 52.864 161.906 52.9247 161.551 53.046C161.196 53.158 160.865 53.2887 160.557 53.438L160.179 52.514C160.506 52.3367 160.893 52.1873 161.341 52.066C161.789 51.9353 162.256 51.87 162.741 51.87ZM164.211 55.832L163.105 55.874C162.172 55.9113 161.523 56.0607 161.159 56.322C160.804 56.5833 160.627 56.952 160.627 57.428C160.627 57.848 160.753 58.156 161.005 58.352C161.266 58.548 161.598 58.646 161.999 58.646C162.624 58.646 163.147 58.4733 163.567 58.128C163.996 57.7733 164.211 57.232 164.211 56.504V55.832ZM170.407 59.64C169.473 59.64 168.727 59.318 168.167 58.674C167.607 58.0207 167.327 57.05 167.327 55.762C167.327 54.474 167.607 53.5033 168.167 52.85C168.736 52.1873 169.487 51.856 170.421 51.856C170.999 51.856 171.471 51.9633 171.835 52.178C172.208 52.3927 172.511 52.654 172.745 52.962H172.829C172.81 52.8407 172.791 52.6633 172.773 52.43C172.754 52.1873 172.745 51.996 172.745 51.856V48.86H173.977V59.5H172.983L172.801 58.492H172.745C172.521 58.8093 172.222 59.08 171.849 59.304C171.475 59.528 170.995 59.64 170.407 59.64ZM170.603 58.618C171.396 58.618 171.951 58.4033 172.269 57.974C172.595 57.5353 172.759 56.8773 172.759 56V55.776C172.759 54.8427 172.605 54.1287 172.297 53.634C171.989 53.13 171.419 52.878 170.589 52.878C169.926 52.878 169.427 53.144 169.091 53.676C168.764 54.1987 168.601 54.9033 168.601 55.79C168.601 56.686 168.764 57.3813 169.091 57.876C169.427 58.3707 169.931 58.618 170.603 58.618ZM176.99 49.182C177.177 49.182 177.34 49.2473 177.48 49.378C177.629 49.4993 177.704 49.6953 177.704 49.966C177.704 50.2367 177.629 50.4373 177.48 50.568C177.34 50.6893 177.177 50.75 176.99 50.75C176.785 50.75 176.612 50.6893 176.472 50.568C176.332 50.4373 176.262 50.2367 176.262 49.966C176.262 49.6953 176.332 49.4993 176.472 49.378C176.612 49.2473 176.785 49.182 176.99 49.182ZM177.592 51.996V59.5H176.36V51.996H177.592ZM186.493 55.734C186.493 56.9753 186.176 57.9367 185.541 58.618C184.916 59.2993 184.067 59.64 182.993 59.64C182.331 59.64 181.738 59.4907 181.215 59.192C180.702 58.884 180.296 58.4407 179.997 57.862C179.699 57.274 179.549 56.5647 179.549 55.734C179.549 54.4927 179.857 53.536 180.473 52.864C181.099 52.192 181.953 51.856 183.035 51.856C183.707 51.856 184.305 52.01 184.827 52.318C185.35 52.6167 185.756 53.0553 186.045 53.634C186.344 54.2033 186.493 54.9033 186.493 55.734ZM180.823 55.734C180.823 56.6207 180.996 57.3253 181.341 57.848C181.696 58.3613 182.256 58.618 183.021 58.618C183.777 58.618 184.333 58.3613 184.687 57.848C185.042 57.3253 185.219 56.6207 185.219 55.734C185.219 54.8473 185.042 54.152 184.687 53.648C184.333 53.144 183.773 52.892 183.007 52.892C182.242 52.892 181.687 53.144 181.341 53.648C180.996 54.152 180.823 54.8473 180.823 55.734ZM192.251 49.504H195.107C196.348 49.504 197.291 49.6907 197.935 50.064C198.579 50.4373 198.901 51.0767 198.901 51.982C198.901 52.57 198.737 53.06 198.411 53.452C198.084 53.8347 197.613 54.082 196.997 54.194V54.264C197.417 54.3387 197.795 54.4647 198.131 54.642C198.476 54.8193 198.747 55.0713 198.943 55.398C199.139 55.7247 199.237 56.1447 199.237 56.658C199.237 57.5633 198.924 58.2633 198.299 58.758C197.683 59.2527 196.838 59.5 195.765 59.5H192.251V49.504ZM193.511 53.76H195.359C196.208 53.76 196.791 53.6247 197.109 53.354C197.435 53.074 197.599 52.6633 197.599 52.122C197.599 51.5713 197.403 51.1793 197.011 50.946C196.628 50.7033 196.012 50.582 195.163 50.582H193.511V53.76ZM193.511 54.81V58.436H195.527C196.413 58.436 197.029 58.2633 197.375 57.918C197.72 57.5727 197.893 57.12 197.893 56.56C197.893 56.0373 197.711 55.6173 197.347 55.3C196.992 54.9733 196.353 54.81 195.429 54.81H193.511ZM207.46 51.996V59.5H206.452L206.27 58.506H206.214C205.971 58.898 205.635 59.1873 205.206 59.374C204.777 59.5513 204.319 59.64 203.834 59.64C202.929 59.64 202.247 59.4253 201.79 58.996C201.333 58.5573 201.104 57.862 201.104 56.91V51.996H202.35V56.826C202.35 58.0207 202.905 58.618 204.016 58.618C204.847 58.618 205.421 58.3847 205.738 57.918C206.065 57.4513 206.228 56.7793 206.228 55.902V51.996H207.46ZM212.348 58.632C212.535 58.632 212.726 58.618 212.922 58.59C213.118 58.562 213.277 58.5247 213.398 58.478V59.416C213.268 59.4813 213.081 59.5327 212.838 59.57C212.596 59.6167 212.362 59.64 212.138 59.64C211.746 59.64 211.382 59.5747 211.046 59.444C210.72 59.304 210.454 59.066 210.248 58.73C210.043 58.394 209.94 57.9227 209.94 57.316V52.948H208.876V52.36L209.954 51.87L210.444 50.274H211.172V51.996H213.342V52.948H211.172V57.288C211.172 57.7453 211.28 58.086 211.494 58.31C211.718 58.5247 212.003 58.632 212.348 58.632ZM217.407 58.632C217.594 58.632 217.785 58.618 217.981 58.59C218.177 58.562 218.336 58.5247 218.457 58.478V59.416C218.326 59.4813 218.14 59.5327 217.897 59.57C217.654 59.6167 217.421 59.64 217.197 59.64C216.805 59.64 216.441 59.5747 216.105 59.444C215.778 59.304 215.512 59.066 215.307 58.73C215.102 58.394 214.999 57.9227 214.999 57.316V52.948H213.935V52.36L215.013 51.87L215.503 50.274H216.231V51.996H218.401V52.948H216.231V57.288C216.231 57.7453 216.338 58.086 216.553 58.31C216.777 58.5247 217.062 58.632 217.407 58.632ZM226.484 55.734C226.484 56.9753 226.166 57.9367 225.532 58.618C224.906 59.2993 224.057 59.64 222.984 59.64C222.321 59.64 221.728 59.4907 221.206 59.192C220.692 58.884 220.286 58.4407 219.988 57.862C219.689 57.274 219.54 56.5647 219.54 55.734C219.54 54.4927 219.848 53.536 220.464 52.864C221.089 52.192 221.943 51.856 223.026 51.856C223.698 51.856 224.295 52.01 224.818 52.318C225.34 52.6167 225.746 53.0553 226.036 53.634C226.334 54.2033 226.484 54.9033 226.484 55.734ZM220.814 55.734C220.814 56.6207 220.986 57.3253 221.332 57.848C221.686 58.3613 222.246 58.618 223.012 58.618C223.768 58.618 224.323 58.3613 224.678 57.848C225.032 57.3253 225.21 56.6207 225.21 55.734C225.21 54.8473 225.032 54.152 224.678 53.648C224.323 53.144 223.763 52.892 222.998 52.892C222.232 52.892 221.677 53.144 221.332 53.648C220.986 54.152 220.814 54.8473 220.814 55.734ZM232.048 51.856C232.944 51.856 233.621 52.0753 234.078 52.514C234.535 52.9527 234.764 53.6527 234.764 54.614V59.5H233.546V54.698C233.546 53.494 232.986 52.892 231.866 52.892C231.035 52.892 230.461 53.1253 230.144 53.592C229.827 54.0587 229.668 54.7307 229.668 55.608V59.5H228.436V51.996H229.43L229.612 53.018H229.682C229.925 52.626 230.261 52.3367 230.69 52.15C231.119 51.954 231.572 51.856 232.048 51.856ZM162.838 69.504L160.178 79.5H158.904L156.958 72.948C156.874 72.6867 156.795 72.4207 156.72 72.15C156.655 71.87 156.594 71.6273 156.538 71.422C156.491 71.2073 156.463 71.058 156.454 70.974C156.445 71.0953 156.393 71.3567 156.3 71.758C156.207 72.15 156.099 72.5607 155.978 72.99L154.088 79.5H152.814L150.168 69.504H151.484L153.038 75.608C153.15 76.0373 153.243 76.4527 153.318 76.854C153.402 77.2553 153.467 77.6333 153.514 77.988C153.561 77.624 153.631 77.2273 153.724 76.798C153.817 76.3687 153.925 75.9487 154.046 75.538L155.81 69.504H157.112L158.946 75.58C159.077 76.0093 159.189 76.4387 159.282 76.868C159.375 77.2973 159.445 77.6707 159.492 77.988C159.529 77.6427 159.59 77.2693 159.674 76.868C159.767 76.4573 159.87 76.0327 159.982 75.594L161.522 69.504H162.838ZM164.836 69.182C165.022 69.182 165.186 69.2473 165.326 69.378C165.475 69.4993 165.55 69.6953 165.55 69.966C165.55 70.2367 165.475 70.4373 165.326 70.568C165.186 70.6893 165.022 70.75 164.836 70.75C164.63 70.75 164.458 70.6893 164.318 70.568C164.178 70.4373 164.108 70.2367 164.108 69.966C164.108 69.6953 164.178 69.4993 164.318 69.378C164.458 69.2473 164.63 69.182 164.836 69.182ZM165.438 71.996V79.5H164.206V71.996H165.438ZM170.321 78.632C170.508 78.632 170.699 78.618 170.895 78.59C171.091 78.562 171.25 78.5247 171.371 78.478V79.416C171.24 79.4813 171.054 79.5327 170.811 79.57C170.568 79.6167 170.335 79.64 170.111 79.64C169.719 79.64 169.355 79.5747 169.019 79.444C168.692 79.304 168.426 79.066 168.221 78.73C168.016 78.394 167.913 77.9227 167.913 77.316V72.948H166.849V72.36L167.927 71.87L168.417 70.274H169.145V71.996H171.315V72.948H169.145V77.288C169.145 77.7453 169.252 78.086 169.467 78.31C169.691 78.5247 169.976 78.632 170.321 78.632ZM174.106 68.86V71.982C174.106 72.3553 174.082 72.7053 174.036 73.032H174.12C174.362 72.6493 174.689 72.36 175.1 72.164C175.52 71.968 175.972 71.87 176.458 71.87C177.363 71.87 178.044 72.0893 178.502 72.528C178.968 72.9573 179.202 73.6527 179.202 74.614V79.5H177.984V74.698C177.984 73.494 177.424 72.892 176.304 72.892C175.464 72.892 174.885 73.13 174.568 73.606C174.26 74.0727 174.106 74.7447 174.106 75.622V79.5H172.874V68.86H174.106ZM189.743 79.5L186.453 70.736H186.397C186.425 71.0253 186.448 71.4173 186.467 71.912C186.485 72.3973 186.495 72.906 186.495 73.438V79.5H185.333V69.504H187.195L190.275 77.694H190.331L193.467 69.504H195.315V79.5H194.069V73.354C194.069 72.8687 194.078 72.388 194.097 71.912C194.125 71.436 194.148 71.0487 194.167 70.75H194.111L190.779 79.5H189.743ZM204.138 71.996V79.5H203.13L202.948 78.506H202.892C202.649 78.898 202.313 79.1873 201.884 79.374C201.454 79.5513 200.997 79.64 200.512 79.64C199.606 79.64 198.925 79.4253 198.468 78.996C198.01 78.5573 197.782 77.862 197.782 76.91V71.996H199.028V76.826C199.028 78.0207 199.583 78.618 200.694 78.618C201.524 78.618 202.098 78.3847 202.416 77.918C202.742 77.4513 202.906 76.7793 202.906 75.902V71.996H204.138ZM207.752 79.5H206.52V68.86H207.752V79.5ZM212.635 78.632C212.822 78.632 213.013 78.618 213.209 78.59C213.405 78.562 213.564 78.5247 213.685 78.478V79.416C213.555 79.4813 213.368 79.5327 213.125 79.57C212.883 79.6167 212.649 79.64 212.425 79.64C212.033 79.64 211.669 79.5747 211.333 79.444C211.007 79.304 210.741 79.066 210.535 78.73C210.33 78.394 210.227 77.9227 210.227 77.316V72.948H209.163V72.36L210.241 71.87L210.731 70.274H211.459V71.996H213.629V72.948H211.459V77.288C211.459 77.7453 211.567 78.086 211.781 78.31C212.005 78.5247 212.29 78.632 212.635 78.632ZM215.818 69.182C216.005 69.182 216.168 69.2473 216.308 69.378C216.457 69.4993 216.532 69.6953 216.532 69.966C216.532 70.2367 216.457 70.4373 216.308 70.568C216.168 70.6893 216.005 70.75 215.818 70.75C215.613 70.75 215.44 70.6893 215.3 70.568C215.16 70.4373 215.09 70.2367 215.09 69.966C215.09 69.6953 215.16 69.4993 215.3 69.378C215.44 69.2473 215.613 69.182 215.818 69.182ZM216.42 71.996V79.5H215.188V71.996H216.42ZM220.029 79.5H218.797V68.86H220.029V79.5ZM223.037 69.182C223.223 69.182 223.387 69.2473 223.527 69.378C223.676 69.4993 223.751 69.6953 223.751 69.966C223.751 70.2367 223.676 70.4373 223.527 70.568C223.387 70.6893 223.223 70.75 223.037 70.75C222.831 70.75 222.659 70.6893 222.519 70.568C222.379 70.4373 222.309 70.2367 222.309 69.966C222.309 69.6953 222.379 69.4993 222.519 69.378C222.659 69.2473 222.831 69.182 223.037 69.182ZM223.639 71.996V79.5H222.407V71.996H223.639ZM229.628 71.856C230.524 71.856 231.201 72.0753 231.658 72.514C232.116 72.9527 232.344 73.6527 232.344 74.614V79.5H231.126V74.698C231.126 73.494 230.566 72.892 229.446 72.892C228.616 72.892 228.042 73.1253 227.724 73.592C227.407 74.0587 227.248 74.7307 227.248 75.608V79.5H226.016V71.996H227.01L227.192 73.018H227.262C227.505 72.626 227.841 72.3367 228.27 72.15C228.7 71.954 229.152 71.856 229.628 71.856ZM237.568 71.856C238.203 71.856 238.754 71.996 239.22 72.276C239.687 72.556 240.042 72.9527 240.284 73.466C240.536 73.97 240.662 74.5627 240.662 75.244V75.986H235.524C235.543 76.8353 235.758 77.484 236.168 77.932C236.588 78.3707 237.172 78.59 237.918 78.59C238.394 78.59 238.814 78.548 239.178 78.464C239.552 78.3707 239.934 78.24 240.326 78.072V79.15C239.944 79.318 239.566 79.4393 239.192 79.514C238.819 79.598 238.376 79.64 237.862 79.64C237.144 79.64 236.514 79.4953 235.972 79.206C235.431 78.9167 235.006 78.4873 234.698 77.918C234.4 77.3487 234.25 76.644 234.25 75.804C234.25 74.9827 234.386 74.278 234.656 73.69C234.936 73.102 235.324 72.6493 235.818 72.332C236.322 72.0147 236.906 71.856 237.568 71.856ZM237.554 72.864C236.966 72.864 236.5 73.0553 236.154 73.438C235.818 73.8113 235.618 74.334 235.552 75.006H239.374C239.365 74.3713 239.216 73.858 238.926 73.466C238.637 73.0647 238.18 72.864 237.554 72.864ZM249.542 79.5H248.282V70.61H245.16V69.504H252.65V70.61H249.542V79.5ZM255.902 71.856C256.537 71.856 257.088 71.996 257.554 72.276C258.021 72.556 258.376 72.9527 258.618 73.466C258.87 73.97 258.996 74.5627 258.996 75.244V75.986H253.858C253.877 76.8353 254.092 77.484 254.502 77.932C254.922 78.3707 255.506 78.59 256.252 78.59C256.728 78.59 257.148 78.548 257.512 78.464C257.886 78.3707 258.268 78.24 258.66 78.072V79.15C258.278 79.318 257.9 79.4393 257.526 79.514C257.153 79.598 256.71 79.64 256.196 79.64C255.478 79.64 254.848 79.4953 254.306 79.206C253.765 78.9167 253.34 78.4873 253.032 77.918C252.734 77.3487 252.584 76.644 252.584 75.804C252.584 74.9827 252.72 74.278 252.99 73.69C253.27 73.102 253.658 72.6493 254.152 72.332C254.656 72.0147 255.24 71.856 255.902 71.856ZM255.888 72.864C255.3 72.864 254.834 73.0553 254.488 73.438C254.152 73.8113 253.952 74.334 253.886 75.006H257.708C257.699 74.3713 257.55 73.858 257.26 73.466C256.971 73.0647 256.514 72.864 255.888 72.864ZM262.411 75.664L259.821 71.996H261.221L263.153 74.824L265.071 71.996H266.457L263.867 75.664L266.597 79.5H265.197L263.153 76.504L261.081 79.5H259.695L262.411 75.664ZM270.55 78.632C270.736 78.632 270.928 78.618 271.124 78.59C271.32 78.562 271.478 78.5247 271.6 78.478V79.416C271.469 79.4813 271.282 79.5327 271.04 79.57C270.797 79.6167 270.564 79.64 270.34 79.64C269.948 79.64 269.584 79.5747 269.248 79.444C268.921 79.304 268.655 79.066 268.45 78.73C268.244 78.394 268.142 77.9227 268.142 77.316V72.948H267.078V72.36L268.156 71.87L268.646 70.274H269.374V71.996H271.544V72.948H269.374V77.288C269.374 77.7453 269.481 78.086 269.696 78.31C269.92 78.5247 270.204 78.632 270.55 78.632Z" fill="black"/>
<circle cx="134" cy="112.5" r="7.5" fill="white" stroke="#1B77AF"/>
<path d="M154.116 97.504C155.357 97.504 156.272 97.742 156.86 98.218C157.457 98.6847 157.756 99.394 157.756 100.346C157.756 100.878 157.658 101.321 157.462 101.676C157.266 102.031 157.014 102.315 156.706 102.53C156.407 102.745 156.09 102.908 155.754 103.02L158.498 107.5H157.028L154.606 103.37H152.618V107.5H151.358V97.504H154.116ZM154.046 98.596H152.618V102.306H154.116C154.928 102.306 155.521 102.147 155.894 101.83C156.267 101.503 156.454 101.027 156.454 100.402C156.454 99.7487 156.258 99.2867 155.866 99.016C155.474 98.736 154.867 98.596 154.046 98.596ZM162.741 99.87C163.656 99.87 164.332 100.071 164.771 100.472C165.21 100.873 165.429 101.513 165.429 102.39V107.5H164.533L164.295 106.436H164.239C163.912 106.847 163.567 107.15 163.203 107.346C162.839 107.542 162.344 107.64 161.719 107.64C161.038 107.64 160.473 107.463 160.025 107.108C159.577 106.744 159.353 106.179 159.353 105.414C159.353 104.667 159.647 104.093 160.235 103.692C160.823 103.281 161.728 103.057 162.951 103.02L164.225 102.978V102.53C164.225 101.905 164.09 101.471 163.819 101.228C163.548 100.985 163.166 100.864 162.671 100.864C162.279 100.864 161.906 100.925 161.551 101.046C161.196 101.158 160.865 101.289 160.557 101.438L160.179 100.514C160.506 100.337 160.893 100.187 161.341 100.066C161.789 99.9353 162.256 99.87 162.741 99.87ZM164.211 103.832L163.105 103.874C162.172 103.911 161.523 104.061 161.159 104.322C160.804 104.583 160.627 104.952 160.627 105.428C160.627 105.848 160.753 106.156 161.005 106.352C161.266 106.548 161.598 106.646 161.999 106.646C162.624 106.646 163.147 106.473 163.567 106.128C163.996 105.773 164.211 105.232 164.211 104.504V103.832ZM170.407 107.64C169.473 107.64 168.727 107.318 168.167 106.674C167.607 106.021 167.327 105.05 167.327 103.762C167.327 102.474 167.607 101.503 168.167 100.85C168.736 100.187 169.487 99.856 170.421 99.856C170.999 99.856 171.471 99.9633 171.835 100.178C172.208 100.393 172.511 100.654 172.745 100.962H172.829C172.81 100.841 172.791 100.663 172.773 100.43C172.754 100.187 172.745 99.996 172.745 99.856V96.86H173.977V107.5H172.983L172.801 106.492H172.745C172.521 106.809 172.222 107.08 171.849 107.304C171.475 107.528 170.995 107.64 170.407 107.64ZM170.603 106.618C171.396 106.618 171.951 106.403 172.269 105.974C172.595 105.535 172.759 104.877 172.759 104V103.776C172.759 102.843 172.605 102.129 172.297 101.634C171.989 101.13 171.419 100.878 170.589 100.878C169.926 100.878 169.427 101.144 169.091 101.676C168.764 102.199 168.601 102.903 168.601 103.79C168.601 104.686 168.764 105.381 169.091 105.876C169.427 106.371 169.931 106.618 170.603 106.618ZM176.99 97.182C177.177 97.182 177.34 97.2473 177.48 97.378C177.629 97.4993 177.704 97.6953 177.704 97.966C177.704 98.2367 177.629 98.4373 177.48 98.568C177.34 98.6893 177.177 98.75 176.99 98.75C176.785 98.75 176.612 98.6893 176.472 98.568C176.332 98.4373 176.262 98.2367 176.262 97.966C176.262 97.6953 176.332 97.4993 176.472 97.378C176.612 97.2473 176.785 97.182 176.99 97.182ZM177.592 99.996V107.5H176.36V99.996H177.592ZM186.493 103.734C186.493 104.975 186.176 105.937 185.541 106.618C184.916 107.299 184.067 107.64 182.993 107.64C182.331 107.64 181.738 107.491 181.215 107.192C180.702 106.884 180.296 106.441 179.997 105.862C179.699 105.274 179.549 104.565 179.549 103.734C179.549 102.493 179.857 101.536 180.473 100.864C181.099 100.192 181.953 99.856 183.035 99.856C183.707 99.856 184.305 100.01 184.827 100.318C185.35 100.617 185.756 101.055 186.045 101.634C186.344 102.203 186.493 102.903 186.493 103.734ZM180.823 103.734C180.823 104.621 180.996 105.325 181.341 105.848C181.696 106.361 182.256 106.618 183.021 106.618C183.777 106.618 184.333 106.361 184.687 105.848C185.042 105.325 185.219 104.621 185.219 103.734C185.219 102.847 185.042 102.152 184.687 101.648C184.333 101.144 183.773 100.892 183.007 100.892C182.242 100.892 181.687 101.144 181.341 101.648C180.996 102.152 180.823 102.847 180.823 103.734ZM192.251 97.504H195.107C196.348 97.504 197.291 97.6907 197.935 98.064C198.579 98.4373 198.901 99.0767 198.901 99.982C198.901 100.57 198.737 101.06 198.411 101.452C198.084 101.835 197.613 102.082 196.997 102.194V102.264C197.417 102.339 197.795 102.465 198.131 102.642C198.476 102.819 198.747 103.071 198.943 103.398C199.139 103.725 199.237 104.145 199.237 104.658C199.237 105.563 198.924 106.263 198.299 106.758C197.683 107.253 196.838 107.5 195.765 107.5H192.251V97.504ZM193.511 101.76H195.359C196.208 101.76 196.791 101.625 197.109 101.354C197.435 101.074 197.599 100.663 197.599 100.122C197.599 99.5713 197.403 99.1793 197.011 98.946C196.628 98.7033 196.012 98.582 195.163 98.582H193.511V101.76ZM193.511 102.81V106.436H195.527C196.413 106.436 197.029 106.263 197.375 105.918C197.72 105.573 197.893 105.12 197.893 104.56C197.893 104.037 197.711 103.617 197.347 103.3C196.992 102.973 196.353 102.81 195.429 102.81H193.511ZM207.46 99.996V107.5H206.452L206.27 106.506H206.214C205.971 106.898 205.635 107.187 205.206 107.374C204.777 107.551 204.319 107.64 203.834 107.64C202.929 107.64 202.247 107.425 201.79 106.996C201.333 106.557 201.104 105.862 201.104 104.91V99.996H202.35V104.826C202.35 106.021 202.905 106.618 204.016 106.618C204.847 106.618 205.421 106.385 205.738 105.918C206.065 105.451 206.228 104.779 206.228 103.902V99.996H207.46ZM212.348 106.632C212.535 106.632 212.726 106.618 212.922 106.59C213.118 106.562 213.277 106.525 213.398 106.478V107.416C213.268 107.481 213.081 107.533 212.838 107.57C212.596 107.617 212.362 107.64 212.138 107.64C211.746 107.64 211.382 107.575 211.046 107.444C210.72 107.304 210.454 107.066 210.248 106.73C210.043 106.394 209.94 105.923 209.94 105.316V100.948H208.876V100.36L209.954 99.87L210.444 98.274H211.172V99.996H213.342V100.948H211.172V105.288C211.172 105.745 211.28 106.086 211.494 106.31C211.718 106.525 212.003 106.632 212.348 106.632ZM217.407 106.632C217.594 106.632 217.785 106.618 217.981 106.59C218.177 106.562 218.336 106.525 218.457 106.478V107.416C218.326 107.481 218.14 107.533 217.897 107.57C217.654 107.617 217.421 107.64 217.197 107.64C216.805 107.64 216.441 107.575 216.105 107.444C215.778 107.304 215.512 107.066 215.307 106.73C215.102 106.394 214.999 105.923 214.999 105.316V100.948H213.935V100.36L215.013 99.87L215.503 98.274H216.231V99.996H218.401V100.948H216.231V105.288C216.231 105.745 216.338 106.086 216.553 106.31C216.777 106.525 217.062 106.632 217.407 106.632ZM226.484 103.734C226.484 104.975 226.166 105.937 225.532 106.618C224.906 107.299 224.057 107.64 222.984 107.64C222.321 107.64 221.728 107.491 221.206 107.192C220.692 106.884 220.286 106.441 219.988 105.862C219.689 105.274 219.54 104.565 219.54 103.734C219.54 102.493 219.848 101.536 220.464 100.864C221.089 100.192 221.943 99.856 223.026 99.856C223.698 99.856 224.295 100.01 224.818 100.318C225.34 100.617 225.746 101.055 226.036 101.634C226.334 102.203 226.484 102.903 226.484 103.734ZM220.814 103.734C220.814 104.621 220.986 105.325 221.332 105.848C221.686 106.361 222.246 106.618 223.012 106.618C223.768 106.618 224.323 106.361 224.678 105.848C225.032 105.325 225.21 104.621 225.21 103.734C225.21 102.847 225.032 102.152 224.678 101.648C224.323 101.144 223.763 100.892 222.998 100.892C222.232 100.892 221.677 101.144 221.332 101.648C220.986 102.152 220.814 102.847 220.814 103.734ZM232.048 99.856C232.944 99.856 233.621 100.075 234.078 100.514C234.535 100.953 234.764 101.653 234.764 102.614V107.5H233.546V102.698C233.546 101.494 232.986 100.892 231.866 100.892C231.035 100.892 230.461 101.125 230.144 101.592C229.827 102.059 229.668 102.731 229.668 103.608V107.5H228.436V99.996H229.43L229.612 101.018H229.682C229.925 100.626 230.261 100.337 230.69 100.15C231.119 99.954 231.572 99.856 232.048 99.856ZM162.838 117.504L160.178 127.5H158.904L156.958 120.948C156.874 120.687 156.795 120.421 156.72 120.15C156.655 119.87 156.594 119.627 156.538 119.422C156.491 119.207 156.463 119.058 156.454 118.974C156.445 119.095 156.393 119.357 156.3 119.758C156.207 120.15 156.099 120.561 155.978 120.99L154.088 127.5H152.814L150.168 117.504H151.484L153.038 123.608C153.15 124.037 153.243 124.453 153.318 124.854C153.402 125.255 153.467 125.633 153.514 125.988C153.561 125.624 153.631 125.227 153.724 124.798C153.817 124.369 153.925 123.949 154.046 123.538L155.81 117.504H157.112L158.946 123.58C159.077 124.009 159.189 124.439 159.282 124.868C159.375 125.297 159.445 125.671 159.492 125.988C159.529 125.643 159.59 125.269 159.674 124.868C159.767 124.457 159.87 124.033 159.982 123.594L161.522 117.504H162.838ZM164.836 117.182C165.022 117.182 165.186 117.247 165.326 117.378C165.475 117.499 165.55 117.695 165.55 117.966C165.55 118.237 165.475 118.437 165.326 118.568C165.186 118.689 165.022 118.75 164.836 118.75C164.63 118.75 164.458 118.689 164.318 118.568C164.178 118.437 164.108 118.237 164.108 117.966C164.108 117.695 164.178 117.499 164.318 117.378C164.458 117.247 164.63 117.182 164.836 117.182ZM165.438 119.996V127.5H164.206V119.996H165.438ZM170.321 126.632C170.508 126.632 170.699 126.618 170.895 126.59C171.091 126.562 171.25 126.525 171.371 126.478V127.416C171.24 127.481 171.054 127.533 170.811 127.57C170.568 127.617 170.335 127.64 170.111 127.64C169.719 127.64 169.355 127.575 169.019 127.444C168.692 127.304 168.426 127.066 168.221 126.73C168.016 126.394 167.913 125.923 167.913 125.316V120.948H166.849V120.36L167.927 119.87L168.417 118.274H169.145V119.996H171.315V120.948H169.145V125.288C169.145 125.745 169.252 126.086 169.467 126.31C169.691 126.525 169.976 126.632 170.321 126.632ZM174.106 116.86V119.982C174.106 120.355 174.082 120.705 174.036 121.032H174.12C174.362 120.649 174.689 120.36 175.1 120.164C175.52 119.968 175.972 119.87 176.458 119.87C177.363 119.87 178.044 120.089 178.502 120.528C178.968 120.957 179.202 121.653 179.202 122.614V127.5H177.984V122.698C177.984 121.494 177.424 120.892 176.304 120.892C175.464 120.892 174.885 121.13 174.568 121.606C174.26 122.073 174.106 122.745 174.106 123.622V127.5H172.874V116.86H174.106ZM189.743 127.5L186.453 118.736H186.397C186.425 119.025 186.448 119.417 186.467 119.912C186.485 120.397 186.495 120.906 186.495 121.438V127.5H185.333V117.504H187.195L190.275 125.694H190.331L193.467 117.504H195.315V127.5H194.069V121.354C194.069 120.869 194.078 120.388 194.097 119.912C194.125 119.436 194.148 119.049 194.167 118.75H194.111L190.779 127.5H189.743ZM204.138 119.996V127.5H203.13L202.948 126.506H202.892C202.649 126.898 202.313 127.187 201.884 127.374C201.454 127.551 200.997 127.64 200.512 127.64C199.606 127.64 198.925 127.425 198.468 126.996C198.01 126.557 197.782 125.862 197.782 124.91V119.996H199.028V124.826C199.028 126.021 199.583 126.618 200.694 126.618C201.524 126.618 202.098 126.385 202.416 125.918C202.742 125.451 202.906 124.779 202.906 123.902V119.996H204.138ZM207.752 127.5H206.52V116.86H207.752V127.5ZM212.635 126.632C212.822 126.632 213.013 126.618 213.209 126.59C213.405 126.562 213.564 126.525 213.685 126.478V127.416C213.555 127.481 213.368 127.533 213.125 127.57C212.883 127.617 212.649 127.64 212.425 127.64C212.033 127.64 211.669 127.575 211.333 127.444C211.007 127.304 210.741 127.066 210.535 126.73C210.33 126.394 210.227 125.923 210.227 125.316V120.948H209.163V120.36L210.241 119.87L210.731 118.274H211.459V119.996H213.629V120.948H211.459V125.288C211.459 125.745 211.567 126.086 211.781 126.31C212.005 126.525 212.29 126.632 212.635 126.632ZM215.818 117.182C216.005 117.182 216.168 117.247 216.308 117.378C216.457 117.499 216.532 117.695 216.532 117.966C216.532 118.237 216.457 118.437 216.308 118.568C216.168 118.689 216.005 118.75 215.818 118.75C215.613 118.75 215.44 118.689 215.3 118.568C215.16 118.437 215.09 118.237 215.09 117.966C215.09 117.695 215.16 117.499 215.3 117.378C215.44 117.247 215.613 117.182 215.818 117.182ZM216.42 119.996V127.5H215.188V119.996H216.42ZM220.029 127.5H218.797V116.86H220.029V127.5ZM223.037 117.182C223.223 117.182 223.387 117.247 223.527 117.378C223.676 117.499 223.751 117.695 223.751 117.966C223.751 118.237 223.676 118.437 223.527 118.568C223.387 118.689 223.223 118.75 223.037 118.75C222.831 118.75 222.659 118.689 222.519 118.568C222.379 118.437 222.309 118.237 222.309 117.966C222.309 117.695 222.379 117.499 222.519 117.378C222.659 117.247 222.831 117.182 223.037 117.182ZM223.639 119.996V127.5H222.407V119.996H223.639ZM229.628 119.856C230.524 119.856 231.201 120.075 231.658 120.514C232.116 120.953 232.344 121.653 232.344 122.614V127.5H231.126V122.698C231.126 121.494 230.566 120.892 229.446 120.892C228.616 120.892 228.042 121.125 227.724 121.592C227.407 122.059 227.248 122.731 227.248 123.608V127.5H226.016V119.996H227.01L227.192 121.018H227.262C227.505 120.626 227.841 120.337 228.27 120.15C228.7 119.954 229.152 119.856 229.628 119.856ZM237.568 119.856C238.203 119.856 238.754 119.996 239.22 120.276C239.687 120.556 240.042 120.953 240.284 121.466C240.536 121.97 240.662 122.563 240.662 123.244V123.986H235.524C235.543 124.835 235.758 125.484 236.168 125.932C236.588 126.371 237.172 126.59 237.918 126.59C238.394 126.59 238.814 126.548 239.178 126.464C239.552 126.371 239.934 126.24 240.326 126.072V127.15C239.944 127.318 239.566 127.439 239.192 127.514C238.819 127.598 238.376 127.64 237.862 127.64C237.144 127.64 236.514 127.495 235.972 127.206C235.431 126.917 235.006 126.487 234.698 125.918C234.4 125.349 234.25 124.644 234.25 123.804C234.25 122.983 234.386 122.278 234.656 121.69C234.936 121.102 235.324 120.649 235.818 120.332C236.322 120.015 236.906 119.856 237.568 119.856ZM237.554 120.864C236.966 120.864 236.5 121.055 236.154 121.438C235.818 121.811 235.618 122.334 235.552 123.006H239.374C239.365 122.371 239.216 121.858 238.926 121.466C238.637 121.065 238.18 120.864 237.554 120.864ZM249.542 127.5H248.282V118.61H245.16V117.504H252.65V118.61H249.542V127.5ZM255.902 119.856C256.537 119.856 257.088 119.996 257.554 120.276C258.021 120.556 258.376 120.953 258.618 121.466C258.87 121.97 258.996 122.563 258.996 123.244V123.986H253.858C253.877 124.835 254.092 125.484 254.502 125.932C254.922 126.371 255.506 126.59 256.252 126.59C256.728 126.59 257.148 126.548 257.512 126.464C257.886 126.371 258.268 126.24 258.66 126.072V127.15C258.278 127.318 257.9 127.439 257.526 127.514C257.153 127.598 256.71 127.64 256.196 127.64C255.478 127.64 254.848 127.495 254.306 127.206C253.765 126.917 253.34 126.487 253.032 125.918C252.734 125.349 252.584 124.644 252.584 123.804C252.584 122.983 252.72 122.278 252.99 121.69C253.27 121.102 253.658 120.649 254.152 120.332C254.656 120.015 255.24 119.856 255.902 119.856ZM255.888 120.864C255.3 120.864 254.834 121.055 254.488 121.438C254.152 121.811 253.952 122.334 253.886 123.006H257.708C257.699 122.371 257.55 121.858 257.26 121.466C256.971 121.065 256.514 120.864 255.888 120.864ZM262.411 123.664L259.821 119.996H261.221L263.153 122.824L265.071 119.996H266.457L263.867 123.664L266.597 127.5H265.197L263.153 124.504L261.081 127.5H259.695L262.411 123.664ZM270.55 126.632C270.736 126.632 270.928 126.618 271.124 126.59C271.32 126.562 271.478 126.525 271.6 126.478V127.416C271.469 127.481 271.282 127.533 271.04 127.57C270.797 127.617 270.564 127.64 270.34 127.64C269.948 127.64 269.584 127.575 269.248 127.444C268.921 127.304 268.655 127.066 268.45 126.73C268.244 126.394 268.142 125.923 268.142 125.316V120.948H267.078V120.36L268.156 119.87L268.646 118.274H269.374V119.996H271.544V120.948H269.374V125.288C269.374 125.745 269.481 126.086 269.696 126.31C269.92 126.525 270.204 126.632 270.55 126.632Z" fill="black"/>
<circle cx="134" cy="160.5" r="7.5" fill="white" stroke="#1B77AF"/>
<path d="M154.116 145.504C155.357 145.504 156.272 145.742 156.86 146.218C157.457 146.685 157.756 147.394 157.756 148.346C157.756 148.878 157.658 149.321 157.462 149.676C157.266 150.031 157.014 150.315 156.706 150.53C156.407 150.745 156.09 150.908 155.754 151.02L158.498 155.5H157.028L154.606 151.37H152.618V155.5H151.358V145.504H154.116ZM154.046 146.596H152.618V150.306H154.116C154.928 150.306 155.521 150.147 155.894 149.83C156.267 149.503 156.454 149.027 156.454 148.402C156.454 147.749 156.258 147.287 155.866 147.016C155.474 146.736 154.867 146.596 154.046 146.596ZM162.741 147.87C163.656 147.87 164.332 148.071 164.771 148.472C165.21 148.873 165.429 149.513 165.429 150.39V155.5H164.533L164.295 154.436H164.239C163.912 154.847 163.567 155.15 163.203 155.346C162.839 155.542 162.344 155.64 161.719 155.64C161.038 155.64 160.473 155.463 160.025 155.108C159.577 154.744 159.353 154.179 159.353 153.414C159.353 152.667 159.647 152.093 160.235 151.692C160.823 151.281 161.728 151.057 162.951 151.02L164.225 150.978V150.53C164.225 149.905 164.09 149.471 163.819 149.228C163.548 148.985 163.166 148.864 162.671 148.864C162.279 148.864 161.906 148.925 161.551 149.046C161.196 149.158 160.865 149.289 160.557 149.438L160.179 148.514C160.506 148.337 160.893 148.187 161.341 148.066C161.789 147.935 162.256 147.87 162.741 147.87ZM164.211 151.832L163.105 151.874C162.172 151.911 161.523 152.061 161.159 152.322C160.804 152.583 160.627 152.952 160.627 153.428C160.627 153.848 160.753 154.156 161.005 154.352C161.266 154.548 161.598 154.646 161.999 154.646C162.624 154.646 163.147 154.473 163.567 154.128C163.996 153.773 164.211 153.232 164.211 152.504V151.832ZM170.407 155.64C169.473 155.64 168.727 155.318 168.167 154.674C167.607 154.021 167.327 153.05 167.327 151.762C167.327 150.474 167.607 149.503 168.167 148.85C168.736 148.187 169.487 147.856 170.421 147.856C170.999 147.856 171.471 147.963 171.835 148.178C172.208 148.393 172.511 148.654 172.745 148.962H172.829C172.81 148.841 172.791 148.663 172.773 148.43C172.754 148.187 172.745 147.996 172.745 147.856V144.86H173.977V155.5H172.983L172.801 154.492H172.745C172.521 154.809 172.222 155.08 171.849 155.304C171.475 155.528 170.995 155.64 170.407 155.64ZM170.603 154.618C171.396 154.618 171.951 154.403 172.269 153.974C172.595 153.535 172.759 152.877 172.759 152V151.776C172.759 150.843 172.605 150.129 172.297 149.634C171.989 149.13 171.419 148.878 170.589 148.878C169.926 148.878 169.427 149.144 169.091 149.676C168.764 150.199 168.601 150.903 168.601 151.79C168.601 152.686 168.764 153.381 169.091 153.876C169.427 154.371 169.931 154.618 170.603 154.618ZM176.99 145.182C177.177 145.182 177.34 145.247 177.48 145.378C177.629 145.499 177.704 145.695 177.704 145.966C177.704 146.237 177.629 146.437 177.48 146.568C177.34 146.689 177.177 146.75 176.99 146.75C176.785 146.75 176.612 146.689 176.472 146.568C176.332 146.437 176.262 146.237 176.262 145.966C176.262 145.695 176.332 145.499 176.472 145.378C176.612 145.247 176.785 145.182 176.99 145.182ZM177.592 147.996V155.5H176.36V147.996H177.592ZM186.493 151.734C186.493 152.975 186.176 153.937 185.541 154.618C184.916 155.299 184.067 155.64 182.993 155.64C182.331 155.64 181.738 155.491 181.215 155.192C180.702 154.884 180.296 154.441 179.997 153.862C179.699 153.274 179.549 152.565 179.549 151.734C179.549 150.493 179.857 149.536 180.473 148.864C181.099 148.192 181.953 147.856 183.035 147.856C183.707 147.856 184.305 148.01 184.827 148.318C185.35 148.617 185.756 149.055 186.045 149.634C186.344 150.203 186.493 150.903 186.493 151.734ZM180.823 151.734C180.823 152.621 180.996 153.325 181.341 153.848C181.696 154.361 182.256 154.618 183.021 154.618C183.777 154.618 184.333 154.361 184.687 153.848C185.042 153.325 185.219 152.621 185.219 151.734C185.219 150.847 185.042 150.152 184.687 149.648C184.333 149.144 183.773 148.892 183.007 148.892C182.242 148.892 181.687 149.144 181.341 149.648C180.996 150.152 180.823 150.847 180.823 151.734ZM192.251 145.504H195.107C196.348 145.504 197.291 145.691 197.935 146.064C198.579 146.437 198.901 147.077 198.901 147.982C198.901 148.57 198.737 149.06 198.411 149.452C198.084 149.835 197.613 150.082 196.997 150.194V150.264C197.417 150.339 197.795 150.465 198.131 150.642C198.476 150.819 198.747 151.071 198.943 151.398C199.139 151.725 199.237 152.145 199.237 152.658C199.237 153.563 198.924 154.263 198.299 154.758C197.683 155.253 196.838 155.5 195.765 155.5H192.251V145.504ZM193.511 149.76H195.359C196.208 149.76 196.791 149.625 197.109 149.354C197.435 149.074 197.599 148.663 197.599 148.122C197.599 147.571 197.403 147.179 197.011 146.946C196.628 146.703 196.012 146.582 195.163 146.582H193.511V149.76ZM193.511 150.81V154.436H195.527C196.413 154.436 197.029 154.263 197.375 153.918C197.72 153.573 197.893 153.12 197.893 152.56C197.893 152.037 197.711 151.617 197.347 151.3C196.992 150.973 196.353 150.81 195.429 150.81H193.511ZM207.46 147.996V155.5H206.452L206.27 154.506H206.214C205.971 154.898 205.635 155.187 205.206 155.374C204.777 155.551 204.319 155.64 203.834 155.64C202.929 155.64 202.247 155.425 201.79 154.996C201.333 154.557 201.104 153.862 201.104 152.91V147.996H202.35V152.826C202.35 154.021 202.905 154.618 204.016 154.618C204.847 154.618 205.421 154.385 205.738 153.918C206.065 153.451 206.228 152.779 206.228 151.902V147.996H207.46ZM212.348 154.632C212.535 154.632 212.726 154.618 212.922 154.59C213.118 154.562 213.277 154.525 213.398 154.478V155.416C213.268 155.481 213.081 155.533 212.838 155.57C212.596 155.617 212.362 155.64 212.138 155.64C211.746 155.64 211.382 155.575 211.046 155.444C210.72 155.304 210.454 155.066 210.248 154.73C210.043 154.394 209.94 153.923 209.94 153.316V148.948H208.876V148.36L209.954 147.87L210.444 146.274H211.172V147.996H213.342V148.948H211.172V153.288C211.172 153.745 211.28 154.086 211.494 154.31C211.718 154.525 212.003 154.632 212.348 154.632ZM217.407 154.632C217.594 154.632 217.785 154.618 217.981 154.59C218.177 154.562 218.336 154.525 218.457 154.478V155.416C218.326 155.481 218.14 155.533 217.897 155.57C217.654 155.617 217.421 155.64 217.197 155.64C216.805 155.64 216.441 155.575 216.105 155.444C215.778 155.304 215.512 155.066 215.307 154.73C215.102 154.394 214.999 153.923 214.999 153.316V148.948H213.935V148.36L215.013 147.87L215.503 146.274H216.231V147.996H218.401V148.948H216.231V153.288C216.231 153.745 216.338 154.086 216.553 154.31C216.777 154.525 217.062 154.632 217.407 154.632ZM226.484 151.734C226.484 152.975 226.166 153.937 225.532 154.618C224.906 155.299 224.057 155.64 222.984 155.64C222.321 155.64 221.728 155.491 221.206 155.192C220.692 154.884 220.286 154.441 219.988 153.862C219.689 153.274 219.54 152.565 219.54 151.734C219.54 150.493 219.848 149.536 220.464 148.864C221.089 148.192 221.943 147.856 223.026 147.856C223.698 147.856 224.295 148.01 224.818 148.318C225.34 148.617 225.746 149.055 226.036 149.634C226.334 150.203 226.484 150.903 226.484 151.734ZM220.814 151.734C220.814 152.621 220.986 153.325 221.332 153.848C221.686 154.361 222.246 154.618 223.012 154.618C223.768 154.618 224.323 154.361 224.678 153.848C225.032 153.325 225.21 152.621 225.21 151.734C225.21 150.847 225.032 150.152 224.678 149.648C224.323 149.144 223.763 148.892 222.998 148.892C222.232 148.892 221.677 149.144 221.332 149.648C220.986 150.152 220.814 150.847 220.814 151.734ZM232.048 147.856C232.944 147.856 233.621 148.075 234.078 148.514C234.535 148.953 234.764 149.653 234.764 150.614V155.5H233.546V150.698C233.546 149.494 232.986 148.892 231.866 148.892C231.035 148.892 230.461 149.125 230.144 149.592C229.827 150.059 229.668 150.731 229.668 151.608V155.5H228.436V147.996H229.43L229.612 149.018H229.682C229.925 148.626 230.261 148.337 230.69 148.15C231.119 147.954 231.572 147.856 232.048 147.856ZM162.838 165.504L160.178 175.5H158.904L156.958 168.948C156.874 168.687 156.795 168.421 156.72 168.15C156.655 167.87 156.594 167.627 156.538 167.422C156.491 167.207 156.463 167.058 156.454 166.974C156.445 167.095 156.393 167.357 156.3 167.758C156.207 168.15 156.099 168.561 155.978 168.99L154.088 175.5H152.814L150.168 165.504H151.484L153.038 171.608C153.15 172.037 153.243 172.453 153.318 172.854C153.402 173.255 153.467 173.633 153.514 173.988C153.561 173.624 153.631 173.227 153.724 172.798C153.817 172.369 153.925 171.949 154.046 171.538L155.81 165.504H157.112L158.946 171.58C159.077 172.009 159.189 172.439 159.282 172.868C159.375 173.297 159.445 173.671 159.492 173.988C159.529 173.643 159.59 173.269 159.674 172.868C159.767 172.457 159.87 172.033 159.982 171.594L161.522 165.504H162.838ZM164.836 165.182C165.022 165.182 165.186 165.247 165.326 165.378C165.475 165.499 165.55 165.695 165.55 165.966C165.55 166.237 165.475 166.437 165.326 166.568C165.186 166.689 165.022 166.75 164.836 166.75C164.63 166.75 164.458 166.689 164.318 166.568C164.178 166.437 164.108 166.237 164.108 165.966C164.108 165.695 164.178 165.499 164.318 165.378C164.458 165.247 164.63 165.182 164.836 165.182ZM165.438 167.996V175.5H164.206V167.996H165.438ZM170.321 174.632C170.508 174.632 170.699 174.618 170.895 174.59C171.091 174.562 171.25 174.525 171.371 174.478V175.416C171.24 175.481 171.054 175.533 170.811 175.57C170.568 175.617 170.335 175.64 170.111 175.64C169.719 175.64 169.355 175.575 169.019 175.444C168.692 175.304 168.426 175.066 168.221 174.73C168.016 174.394 167.913 173.923 167.913 173.316V168.948H166.849V168.36L167.927 167.87L168.417 166.274H169.145V167.996H171.315V168.948H169.145V173.288C169.145 173.745 169.252 174.086 169.467 174.31C169.691 174.525 169.976 174.632 170.321 174.632ZM174.106 164.86V167.982C174.106 168.355 174.082 168.705 174.036 169.032H174.12C174.362 168.649 174.689 168.36 175.1 168.164C175.52 167.968 175.972 167.87 176.458 167.87C177.363 167.87 178.044 168.089 178.502 168.528C178.968 168.957 179.202 169.653 179.202 170.614V175.5H177.984V170.698C177.984 169.494 177.424 168.892 176.304 168.892C175.464 168.892 174.885 169.13 174.568 169.606C174.26 170.073 174.106 170.745 174.106 171.622V175.5H172.874V164.86H174.106ZM189.743 175.5L186.453 166.736H186.397C186.425 167.025 186.448 167.417 186.467 167.912C186.485 168.397 186.495 168.906 186.495 169.438V175.5H185.333V165.504H187.195L190.275 173.694H190.331L193.467 165.504H195.315V175.5H194.069V169.354C194.069 168.869 194.078 168.388 194.097 167.912C194.125 167.436 194.148 167.049 194.167 166.75H194.111L190.779 175.5H189.743ZM204.138 167.996V175.5H203.13L202.948 174.506H202.892C202.649 174.898 202.313 175.187 201.884 175.374C201.454 175.551 200.997 175.64 200.512 175.64C199.606 175.64 198.925 175.425 198.468 174.996C198.01 174.557 197.782 173.862 197.782 172.91V167.996H199.028V172.826C199.028 174.021 199.583 174.618 200.694 174.618C201.524 174.618 202.098 174.385 202.416 173.918C202.742 173.451 202.906 172.779 202.906 171.902V167.996H204.138ZM207.752 175.5H206.52V164.86H207.752V175.5ZM212.635 174.632C212.822 174.632 213.013 174.618 213.209 174.59C213.405 174.562 213.564 174.525 213.685 174.478V175.416C213.555 175.481 213.368 175.533 213.125 175.57C212.883 175.617 212.649 175.64 212.425 175.64C212.033 175.64 211.669 175.575 211.333 175.444C211.007 175.304 210.741 175.066 210.535 174.73C210.33 174.394 210.227 173.923 210.227 173.316V168.948H209.163V168.36L210.241 167.87L210.731 166.274H211.459V167.996H213.629V168.948H211.459V173.288C211.459 173.745 211.567 174.086 211.781 174.31C212.005 174.525 212.29 174.632 212.635 174.632ZM215.818 165.182C216.005 165.182 216.168 165.247 216.308 165.378C216.457 165.499 216.532 165.695 216.532 165.966C216.532 166.237 216.457 166.437 216.308 166.568C216.168 166.689 216.005 166.75 215.818 166.75C215.613 166.75 215.44 166.689 215.3 166.568C215.16 166.437 215.09 166.237 215.09 165.966C215.09 165.695 215.16 165.499 215.3 165.378C215.44 165.247 215.613 165.182 215.818 165.182ZM216.42 167.996V175.5H215.188V167.996H216.42ZM220.029 175.5H218.797V164.86H220.029V175.5ZM223.037 165.182C223.223 165.182 223.387 165.247 223.527 165.378C223.676 165.499 223.751 165.695 223.751 165.966C223.751 166.237 223.676 166.437 223.527 166.568C223.387 166.689 223.223 166.75 223.037 166.75C222.831 166.75 222.659 166.689 222.519 166.568C222.379 166.437 222.309 166.237 222.309 165.966C222.309 165.695 222.379 165.499 222.519 165.378C222.659 165.247 222.831 165.182 223.037 165.182ZM223.639 167.996V175.5H222.407V167.996H223.639ZM229.628 167.856C230.524 167.856 231.201 168.075 231.658 168.514C232.116 168.953 232.344 169.653 232.344 170.614V175.5H231.126V170.698C231.126 169.494 230.566 168.892 229.446 168.892C228.616 168.892 228.042 169.125 227.724 169.592C227.407 170.059 227.248 170.731 227.248 171.608V175.5H226.016V167.996H227.01L227.192 169.018H227.262C227.505 168.626 227.841 168.337 228.27 168.15C228.7 167.954 229.152 167.856 229.628 167.856ZM237.568 167.856C238.203 167.856 238.754 167.996 239.22 168.276C239.687 168.556 240.042 168.953 240.284 169.466C240.536 169.97 240.662 170.563 240.662 171.244V171.986H235.524C235.543 172.835 235.758 173.484 236.168 173.932C236.588 174.371 237.172 174.59 237.918 174.59C238.394 174.59 238.814 174.548 239.178 174.464C239.552 174.371 239.934 174.24 240.326 174.072V175.15C239.944 175.318 239.566 175.439 239.192 175.514C238.819 175.598 238.376 175.64 237.862 175.64C237.144 175.64 236.514 175.495 235.972 175.206C235.431 174.917 235.006 174.487 234.698 173.918C234.4 173.349 234.25 172.644 234.25 171.804C234.25 170.983 234.386 170.278 234.656 169.69C234.936 169.102 235.324 168.649 235.818 168.332C236.322 168.015 236.906 167.856 237.568 167.856ZM237.554 168.864C236.966 168.864 236.5 169.055 236.154 169.438C235.818 169.811 235.618 170.334 235.552 171.006H239.374C239.365 170.371 239.216 169.858 238.926 169.466C238.637 169.065 238.18 168.864 237.554 168.864ZM249.542 175.5H248.282V166.61H245.16V165.504H252.65V166.61H249.542V175.5ZM255.902 167.856C256.537 167.856 257.088 167.996 257.554 168.276C258.021 168.556 258.376 168.953 258.618 169.466C258.87 169.97 258.996 170.563 258.996 171.244V171.986H253.858C253.877 172.835 254.092 173.484 254.502 173.932C254.922 174.371 255.506 174.59 256.252 174.59C256.728 174.59 257.148 174.548 257.512 174.464C257.886 174.371 258.268 174.24 258.66 174.072V175.15C258.278 175.318 257.9 175.439 257.526 175.514C257.153 175.598 256.71 175.64 256.196 175.64C255.478 175.64 254.848 175.495 254.306 175.206C253.765 174.917 253.34 174.487 253.032 173.918C252.734 173.349 252.584 172.644 252.584 171.804C252.584 170.983 252.72 170.278 252.99 169.69C253.27 169.102 253.658 168.649 254.152 168.332C254.656 168.015 255.24 167.856 255.902 167.856ZM255.888 168.864C255.3 168.864 254.834 169.055 254.488 169.438C254.152 169.811 253.952 170.334 253.886 171.006H257.708C257.699 170.371 257.55 169.858 257.26 169.466C256.971 169.065 256.514 168.864 255.888 168.864ZM262.411 171.664L259.821 167.996H261.221L263.153 170.824L265.071 167.996H266.457L263.867 171.664L266.597 175.5H265.197L263.153 172.504L261.081 175.5H259.695L262.411 171.664ZM270.55 174.632C270.736 174.632 270.928 174.618 271.124 174.59C271.32 174.562 271.478 174.525 271.6 174.478V175.416C271.469 175.481 271.282 175.533 271.04 175.57C270.797 175.617 270.564 175.64 270.34 175.64C269.948 175.64 269.584 175.575 269.248 175.444C268.921 175.304 268.655 175.066 268.45 174.73C268.244 174.394 268.142 173.923 268.142 173.316V168.948H267.078V168.36L268.156 167.87L268.646 166.274H269.374V167.996H271.544V168.948H269.374V173.288C269.374 173.745 269.481 174.086 269.696 174.31C269.92 174.525 270.204 174.632 270.55 174.632Z" fill="black"/>
<path d="M126 53L147.818 53L147.818 43L286 43" stroke="#DA291C"/>
</svg>
