<svg width="412" height="200" viewBox="0 0 412 200" fill="none" xmlns="http://www.w3.org/2000/svg">
<rect width="412" height="200" fill="white"/>
<rect width="124" height="124" transform="translate(144 38)" fill="white"/>
<path d="M150.024 48.708C150.024 49.468 149.748 50.06 149.196 50.484C148.644 50.908 147.9 51.12 146.964 51.12C146.484 51.12 146.04 51.084 145.632 51.012C145.224 50.94 144.884 50.84 144.612 50.712V49.68C144.9 49.808 145.256 49.924 145.68 50.028C146.112 50.132 146.556 50.184 147.012 50.184C147.644 50.184 148.124 50.06 148.452 49.812C148.78 49.564 148.944 49.228 148.944 48.804C148.944 48.524 148.884 48.288 148.764 48.096C148.644 47.904 148.436 47.728 148.14 47.568C147.844 47.408 147.44 47.232 146.928 47.04C146.192 46.776 145.64 46.452 145.272 46.068C144.904 45.684 144.72 45.16 144.72 44.496C144.72 44.048 144.836 43.66 145.068 43.332C145.3 43.004 145.62 42.752 146.028 42.576C146.436 42.4 146.912 42.312 147.456 42.312C147.92 42.312 148.348 42.356 148.74 42.444C149.132 42.532 149.492 42.648 149.82 42.792L149.484 43.716C149.188 43.588 148.864 43.48 148.512 43.392C148.16 43.304 147.8 43.26 147.432 43.26C146.896 43.26 146.492 43.376 146.22 43.608C145.948 43.832 145.812 44.132 145.812 44.508C145.812 44.796 145.872 45.036 145.992 45.228C146.112 45.42 146.308 45.596 146.58 45.756C146.852 45.908 147.22 46.068 147.684 46.236C148.188 46.42 148.612 46.62 148.956 46.836C149.308 47.044 149.572 47.296 149.748 47.592C149.932 47.888 150.024 48.26 150.024 48.708ZM154.09 44.448C154.634 44.448 155.106 44.568 155.506 44.808C155.906 45.048 156.21 45.388 156.418 45.828C156.634 46.26 156.742 46.768 156.742 47.352V47.988H152.338C152.354 48.716 152.538 49.272 152.89 49.656C153.25 50.032 153.75 50.22 154.39 50.22C154.798 50.22 155.158 50.184 155.47 50.112C155.79 50.032 156.118 49.92 156.454 49.776V50.7C156.126 50.844 155.802 50.948 155.482 51.012C155.162 51.084 154.782 51.12 154.342 51.12C153.726 51.12 153.186 50.996 152.722 50.748C152.258 50.5 151.894 50.132 151.63 49.644C151.374 49.156 151.246 48.552 151.246 47.832C151.246 47.128 151.362 46.524 151.594 46.02C151.834 45.516 152.166 45.128 152.59 44.856C153.022 44.584 153.522 44.448 154.09 44.448ZM154.078 45.312C153.574 45.312 153.174 45.476 152.878 45.804C152.59 46.124 152.418 46.572 152.362 47.148H155.638C155.63 46.604 155.502 46.164 155.254 45.828C155.006 45.484 154.614 45.312 154.078 45.312ZM159.435 51H158.379V41.88H159.435V51ZM163.957 44.448C164.501 44.448 164.973 44.568 165.373 44.808C165.773 45.048 166.077 45.388 166.285 45.828C166.501 46.26 166.609 46.768 166.609 47.352V47.988H162.205C162.221 48.716 162.405 49.272 162.757 49.656C163.117 50.032 163.617 50.22 164.257 50.22C164.665 50.22 165.025 50.184 165.337 50.112C165.657 50.032 165.985 49.92 166.321 49.776V50.7C165.993 50.844 165.669 50.948 165.349 51.012C165.029 51.084 164.649 51.12 164.209 51.12C163.593 51.12 163.053 50.996 162.589 50.748C162.125 50.5 161.761 50.132 161.497 49.644C161.241 49.156 161.113 48.552 161.113 47.832C161.113 47.128 161.229 46.524 161.461 46.02C161.701 45.516 162.033 45.128 162.457 44.856C162.889 44.584 163.389 44.448 163.957 44.448ZM163.945 45.312C163.441 45.312 163.041 45.476 162.745 45.804C162.457 46.124 162.285 46.572 162.229 47.148H165.505C165.497 46.604 165.369 46.164 165.121 45.828C164.873 45.484 164.481 45.312 163.945 45.312ZM170.827 51.12C170.251 51.12 169.743 51.004 169.303 50.772C168.863 50.54 168.515 50.18 168.259 49.692C168.011 49.204 167.887 48.58 167.887 47.82C167.887 47.028 168.015 46.384 168.271 45.888C168.535 45.392 168.895 45.028 169.351 44.796C169.807 44.564 170.323 44.448 170.899 44.448C171.219 44.448 171.531 44.484 171.835 44.556C172.147 44.62 172.399 44.7 172.591 44.796L172.267 45.672C172.075 45.6 171.851 45.532 171.595 45.468C171.339 45.404 171.099 45.372 170.875 45.372C169.611 45.372 168.979 46.184 168.979 47.808C168.979 48.584 169.131 49.18 169.435 49.596C169.747 50.004 170.207 50.208 170.815 50.208C171.159 50.208 171.467 50.172 171.739 50.1C172.011 50.028 172.259 49.94 172.483 49.836V50.772C172.267 50.884 172.027 50.968 171.763 51.024C171.507 51.088 171.195 51.12 170.827 51.12ZM176.16 50.256C176.32 50.256 176.484 50.244 176.652 50.22C176.82 50.196 176.956 50.164 177.06 50.124V50.928C176.948 50.984 176.788 51.028 176.58 51.06C176.372 51.1 176.172 51.12 175.98 51.12C175.644 51.12 175.332 51.064 175.044 50.952C174.764 50.832 174.536 50.628 174.36 50.34C174.184 50.052 174.096 49.648 174.096 49.128V45.384H173.184V44.88L174.108 44.46L174.528 43.092H175.152V44.568H177.012V45.384H175.152V49.104C175.152 49.496 175.244 49.788 175.428 49.98C175.62 50.164 175.864 50.256 176.16 50.256ZM183.901 44.46C184.685 44.46 185.265 44.632 185.641 44.976C186.017 45.32 186.205 45.868 186.205 46.62V51H185.437L185.233 50.088H185.185C184.905 50.44 184.609 50.7 184.297 50.868C183.985 51.036 183.561 51.12 183.025 51.12C182.441 51.12 181.957 50.968 181.573 50.664C181.189 50.352 180.997 49.868 180.997 49.212C180.997 48.572 181.249 48.08 181.753 47.736C182.257 47.384 183.033 47.192 184.081 47.16L185.173 47.124V46.74C185.173 46.204 185.057 45.832 184.825 45.624C184.593 45.416 184.265 45.312 183.841 45.312C183.505 45.312 183.185 45.364 182.881 45.468C182.577 45.564 182.293 45.676 182.029 45.804L181.705 45.012C181.985 44.86 182.317 44.732 182.701 44.628C183.085 44.516 183.485 44.46 183.901 44.46ZM185.161 47.856L184.213 47.892C183.413 47.924 182.857 48.052 182.545 48.276C182.241 48.5 182.089 48.816 182.089 49.224C182.089 49.584 182.197 49.848 182.413 50.016C182.637 50.184 182.921 50.268 183.265 50.268C183.801 50.268 184.249 50.12 184.609 49.824C184.977 49.52 185.161 49.056 185.161 48.432V47.856ZM194.369 44.448C195.161 44.448 195.797 44.724 196.277 45.276C196.765 45.828 197.009 46.66 197.009 47.772C197.009 48.868 196.765 49.7 196.277 50.268C195.797 50.836 195.157 51.12 194.357 51.12C193.861 51.12 193.449 51.028 193.121 50.844C192.801 50.66 192.549 50.44 192.365 50.184H192.293C192.301 50.32 192.313 50.492 192.329 50.7C192.353 50.908 192.365 51.088 192.365 51.24V53.88H191.309V44.568H192.173L192.317 45.444H192.365C192.557 45.164 192.809 44.928 193.121 44.736C193.433 44.544 193.849 44.448 194.369 44.448ZM194.177 45.336C193.521 45.336 193.057 45.52 192.785 45.888C192.513 46.256 192.373 46.816 192.365 47.568V47.772C192.365 48.564 192.493 49.176 192.749 49.608C193.013 50.032 193.497 50.244 194.201 50.244C194.585 50.244 194.905 50.14 195.161 49.932C195.417 49.716 195.605 49.42 195.725 49.044C195.853 48.668 195.917 48.24 195.917 47.76C195.917 47.024 195.773 46.436 195.485 45.996C195.205 45.556 194.769 45.336 194.177 45.336ZM201.692 44.448C201.812 44.448 201.94 44.456 202.076 44.472C202.212 44.48 202.336 44.496 202.448 44.52L202.316 45.492C202.212 45.468 202.096 45.448 201.968 45.432C201.84 45.416 201.724 45.408 201.62 45.408C201.292 45.408 200.984 45.5 200.696 45.684C200.408 45.86 200.176 46.112 200 46.44C199.832 46.76 199.748 47.136 199.748 47.568V51H198.692V44.568H199.556L199.676 45.744H199.724C199.924 45.392 200.188 45.088 200.516 44.832C200.852 44.576 201.244 44.448 201.692 44.448ZM209.007 47.772C209.007 48.836 208.735 49.66 208.191 50.244C207.655 50.828 206.927 51.12 206.007 51.12C205.439 51.12 204.931 50.992 204.483 50.736C204.043 50.472 203.695 50.092 203.439 49.596C203.183 49.092 203.055 48.484 203.055 47.772C203.055 46.708 203.319 45.888 203.847 45.312C204.383 44.736 205.115 44.448 206.043 44.448C206.619 44.448 207.131 44.58 207.579 44.844C208.027 45.1 208.375 45.476 208.623 45.972C208.879 46.46 209.007 47.06 209.007 47.772ZM204.147 47.772C204.147 48.532 204.295 49.136 204.591 49.584C204.895 50.024 205.375 50.244 206.031 50.244C206.679 50.244 207.155 50.024 207.459 49.584C207.763 49.136 207.915 48.532 207.915 47.772C207.915 47.012 207.763 46.416 207.459 45.984C207.155 45.552 206.675 45.336 206.019 45.336C205.363 45.336 204.887 45.552 204.591 45.984C204.295 46.416 204.147 47.012 204.147 47.772ZM212.96 51.12C212.16 51.12 211.52 50.844 211.04 50.292C210.56 49.732 210.32 48.9 210.32 47.796C210.32 46.692 210.56 45.86 211.04 45.3C211.528 44.732 212.172 44.448 212.972 44.448C213.468 44.448 213.872 44.54 214.184 44.724C214.504 44.908 214.764 45.132 214.964 45.396H215.036C215.02 45.292 215.004 45.14 214.988 44.94C214.972 44.732 214.964 44.568 214.964 44.448V41.88H216.02V51H215.168L215.012 50.136H214.964C214.772 50.408 214.516 50.64 214.196 50.832C213.876 51.024 213.464 51.12 212.96 51.12ZM213.128 50.244C213.808 50.244 214.284 50.06 214.556 49.692C214.836 49.316 214.976 48.752 214.976 48V47.808C214.976 47.008 214.844 46.396 214.58 45.972C214.316 45.54 213.828 45.324 213.116 45.324C212.548 45.324 212.12 45.552 211.832 46.008C211.552 46.456 211.412 47.06 211.412 47.82C211.412 48.588 211.552 49.184 211.832 49.608C212.12 50.032 212.552 50.244 213.128 50.244ZM223.439 44.568V51H222.575L222.419 50.148H222.371C222.163 50.484 221.875 50.732 221.507 50.892C221.139 51.044 220.747 51.12 220.331 51.12C219.555 51.12 218.971 50.936 218.579 50.568C218.187 50.192 217.991 49.596 217.991 48.78V44.568H219.059V48.708C219.059 49.732 219.535 50.244 220.487 50.244C221.199 50.244 221.691 50.044 221.963 49.644C222.243 49.244 222.383 48.668 222.383 47.916V44.568H223.439ZM228.061 51.12C227.485 51.12 226.977 51.004 226.537 50.772C226.097 50.54 225.749 50.18 225.493 49.692C225.245 49.204 225.121 48.58 225.121 47.82C225.121 47.028 225.249 46.384 225.505 45.888C225.769 45.392 226.129 45.028 226.585 44.796C227.041 44.564 227.557 44.448 228.133 44.448C228.453 44.448 228.765 44.484 229.069 44.556C229.381 44.62 229.633 44.7 229.825 44.796L229.501 45.672C229.309 45.6 229.085 45.532 228.829 45.468C228.573 45.404 228.333 45.372 228.109 45.372C226.845 45.372 226.213 46.184 226.213 47.808C226.213 48.584 226.365 49.18 226.669 49.596C226.981 50.004 227.441 50.208 228.049 50.208C228.393 50.208 228.701 50.172 228.973 50.1C229.245 50.028 229.493 49.94 229.717 49.836V50.772C229.501 50.884 229.261 50.968 228.997 51.024C228.741 51.088 228.429 51.12 228.061 51.12ZM233.395 50.256C233.555 50.256 233.719 50.244 233.887 50.22C234.055 50.196 234.191 50.164 234.295 50.124V50.928C234.183 50.984 234.023 51.028 233.815 51.06C233.607 51.1 233.407 51.12 233.215 51.12C232.879 51.12 232.567 51.064 232.279 50.952C231.999 50.832 231.771 50.628 231.595 50.34C231.419 50.052 231.331 49.648 231.331 49.128V45.384H230.419V44.88L231.343 44.46L231.763 43.092H232.387V44.568H234.247V45.384H232.387V49.104C232.387 49.496 232.479 49.788 232.663 49.98C232.855 50.164 233.099 50.256 233.395 50.256Z" fill="#323232"/>
<path d="M240.864 41.88L240.624 44.184L242.928 43.536L243.096 44.64L240.888 44.82L242.316 46.716L241.284 47.28L240.264 45.18L239.34 47.28L238.272 46.716L239.676 44.82L237.492 44.64L237.66 43.536L239.94 44.184L239.688 41.88H240.864Z" fill="#B51418"/>
<circle cx="152" cy="72" r="7.5" fill="white" stroke="#DA291C"/>
<path d="M180.838 67.004L178.178 77H176.904L174.958 70.448C174.874 70.1867 174.795 69.9207 174.72 69.65C174.655 69.37 174.594 69.1273 174.538 68.922C174.491 68.7073 174.463 68.558 174.454 68.474C174.445 68.5953 174.393 68.8567 174.3 69.258C174.207 69.65 174.099 70.0607 173.978 70.49L172.088 77H170.814L168.168 67.004H169.484L171.038 73.108C171.15 73.5373 171.243 73.9527 171.318 74.354C171.402 74.7553 171.467 75.1333 171.514 75.488C171.561 75.124 171.631 74.7273 171.724 74.298C171.817 73.8687 171.925 73.4487 172.046 73.038L173.81 67.004H175.112L176.946 73.08C177.077 73.5093 177.189 73.9387 177.282 74.368C177.375 74.7973 177.445 75.1707 177.492 75.488C177.529 75.1427 177.59 74.7693 177.674 74.368C177.767 73.9573 177.87 73.5327 177.982 73.094L179.522 67.004H180.838ZM188.456 73.234C188.456 74.4753 188.139 75.4367 187.504 76.118C186.879 76.7993 186.03 77.14 184.956 77.14C184.294 77.14 183.701 76.9907 183.178 76.692C182.665 76.384 182.259 75.9407 181.96 75.362C181.662 74.774 181.512 74.0647 181.512 73.234C181.512 71.9927 181.82 71.036 182.436 70.364C183.062 69.692 183.916 69.356 184.998 69.356C185.67 69.356 186.268 69.51 186.79 69.818C187.313 70.1167 187.719 70.5553 188.008 71.134C188.307 71.7033 188.456 72.4033 188.456 73.234ZM182.786 73.234C182.786 74.1207 182.959 74.8253 183.304 75.348C183.659 75.8613 184.219 76.118 184.984 76.118C185.74 76.118 186.296 75.8613 186.65 75.348C187.005 74.8253 187.182 74.1207 187.182 73.234C187.182 72.3473 187.005 71.652 186.65 71.148C186.296 70.644 185.736 70.392 184.97 70.392C184.205 70.392 183.65 70.644 183.304 71.148C182.959 71.652 182.786 72.3473 182.786 73.234ZM193.909 69.356C194.049 69.356 194.198 69.3653 194.357 69.384C194.515 69.3933 194.66 69.412 194.791 69.44L194.637 70.574C194.515 70.546 194.38 70.5227 194.231 70.504C194.081 70.4853 193.946 70.476 193.825 70.476C193.442 70.476 193.083 70.5833 192.747 70.798C192.411 71.0033 192.14 71.2973 191.935 71.68C191.739 72.0533 191.641 72.492 191.641 72.996V77H190.409V69.496H191.417L191.557 70.868H191.613C191.846 70.4573 192.154 70.1027 192.537 69.804C192.929 69.5053 193.386 69.356 193.909 69.356ZM197.41 66.36V71.918C197.41 72.0673 197.401 72.2633 197.382 72.506C197.373 72.7487 197.363 72.9587 197.354 73.136H197.41C197.466 73.0613 197.55 72.954 197.662 72.814C197.774 72.674 197.886 72.534 197.998 72.394C198.119 72.2447 198.222 72.1233 198.306 72.03L200.7 69.496H202.142L199.104 72.702L202.352 77H200.868L198.264 73.5L197.41 74.242V77H196.192V66.36H197.41ZM208.556 74.928C208.556 75.656 208.286 76.2067 207.744 76.58C207.203 76.9533 206.475 77.14 205.56 77.14C205.038 77.14 204.585 77.098 204.202 77.014C203.829 76.93 203.498 76.8133 203.208 76.664V75.544C203.507 75.6933 203.866 75.8333 204.286 75.964C204.716 76.0853 205.15 76.146 205.588 76.146C206.214 76.146 206.666 76.048 206.946 75.852C207.226 75.6467 207.366 75.376 207.366 75.04C207.366 74.8533 207.315 74.6853 207.212 74.536C207.11 74.3867 206.923 74.2373 206.652 74.088C206.391 73.9387 206.013 73.7707 205.518 73.584C205.033 73.3973 204.618 73.2107 204.272 73.024C203.927 72.8373 203.661 72.6133 203.474 72.352C203.288 72.0907 203.194 71.7547 203.194 71.344C203.194 70.7093 203.451 70.2193 203.964 69.874C204.487 69.5287 205.168 69.356 206.008 69.356C206.466 69.356 206.89 69.4027 207.282 69.496C207.684 69.5893 208.057 69.7107 208.402 69.86L207.982 70.84C207.665 70.7093 207.334 70.5973 206.988 70.504C206.643 70.4107 206.288 70.364 205.924 70.364C205.42 70.364 205.033 70.448 204.762 70.616C204.501 70.7747 204.37 70.994 204.37 71.274C204.37 71.4887 204.431 71.666 204.552 71.806C204.674 71.946 204.874 72.086 205.154 72.226C205.444 72.366 205.826 72.5247 206.302 72.702C206.778 72.8793 207.184 73.0613 207.52 73.248C207.856 73.4347 208.113 73.6633 208.29 73.934C208.468 74.1953 208.556 74.5267 208.556 74.928ZM213.94 69.356C214.864 69.356 215.606 69.678 216.166 70.322C216.735 70.966 217.02 71.9367 217.02 73.234C217.02 74.5127 216.735 75.4833 216.166 76.146C215.606 76.8087 214.859 77.14 213.926 77.14C213.347 77.14 212.866 77.0327 212.484 76.818C212.11 76.6033 211.816 76.3467 211.602 76.048H211.518C211.527 76.2067 211.541 76.4073 211.56 76.65C211.588 76.8927 211.602 77.1027 211.602 77.28V80.36H210.37V69.496H211.378L211.546 70.518H211.602C211.826 70.1913 212.12 69.916 212.484 69.692C212.848 69.468 213.333 69.356 213.94 69.356ZM213.716 70.392C212.95 70.392 212.409 70.6067 212.092 71.036C211.774 71.4653 211.611 72.1187 211.602 72.996V73.234C211.602 74.158 211.751 74.872 212.05 75.376C212.358 75.8707 212.922 76.118 213.744 76.118C214.192 76.118 214.565 75.9967 214.864 75.754C215.162 75.502 215.382 75.1567 215.522 74.718C215.671 74.2793 215.746 73.78 215.746 73.22C215.746 72.3613 215.578 71.6753 215.242 71.162C214.915 70.6487 214.406 70.392 213.716 70.392ZM221.825 69.37C222.74 69.37 223.416 69.5707 223.855 69.972C224.294 70.3733 224.513 71.0127 224.513 71.89V77H223.617L223.379 75.936H223.323C222.996 76.3467 222.651 76.65 222.287 76.846C221.923 77.042 221.428 77.14 220.803 77.14C220.122 77.14 219.557 76.9627 219.109 76.608C218.661 76.244 218.437 75.6793 218.437 74.914C218.437 74.1673 218.731 73.5933 219.319 73.192C219.907 72.7813 220.812 72.5573 222.035 72.52L223.309 72.478V72.03C223.309 71.4047 223.174 70.9707 222.903 70.728C222.632 70.4853 222.25 70.364 221.755 70.364C221.363 70.364 220.99 70.4247 220.635 70.546C220.28 70.658 219.949 70.7887 219.641 70.938L219.263 70.014C219.59 69.8367 219.977 69.6873 220.425 69.566C220.873 69.4353 221.34 69.37 221.825 69.37ZM223.295 73.332L222.189 73.374C221.256 73.4113 220.607 73.5607 220.243 73.822C219.888 74.0833 219.711 74.452 219.711 74.928C219.711 75.348 219.837 75.656 220.089 75.852C220.35 76.048 220.682 76.146 221.083 76.146C221.708 76.146 222.231 75.9733 222.651 75.628C223.08 75.2733 223.295 74.732 223.295 74.004V73.332ZM229.841 77.14C229.169 77.14 228.576 77.0047 228.063 76.734C227.549 76.4633 227.143 76.0433 226.845 75.474C226.555 74.9047 226.411 74.1767 226.411 73.29C226.411 72.366 226.56 71.6147 226.859 71.036C227.167 70.4573 227.587 70.0327 228.119 69.762C228.651 69.4913 229.253 69.356 229.925 69.356C230.298 69.356 230.662 69.398 231.017 69.482C231.381 69.5567 231.675 69.65 231.899 69.762L231.521 70.784C231.297 70.7 231.035 70.6207 230.737 70.546C230.438 70.4713 230.158 70.434 229.897 70.434C228.422 70.434 227.685 71.3813 227.685 73.276C227.685 74.1813 227.862 74.8767 228.217 75.362C228.581 75.838 229.117 76.076 229.827 76.076C230.228 76.076 230.587 76.034 230.905 75.95C231.222 75.866 231.511 75.7633 231.773 75.642V76.734C231.521 76.8647 231.241 76.9627 230.933 77.028C230.634 77.1027 230.27 77.14 229.841 77.14ZM236.455 69.356C237.09 69.356 237.641 69.496 238.107 69.776C238.574 70.056 238.929 70.4527 239.171 70.966C239.423 71.47 239.549 72.0627 239.549 72.744V73.486H234.411C234.43 74.3353 234.645 74.984 235.055 75.432C235.475 75.8707 236.059 76.09 236.805 76.09C237.281 76.09 237.701 76.048 238.065 75.964C238.439 75.8707 238.821 75.74 239.213 75.572V76.65C238.831 76.818 238.453 76.9393 238.079 77.014C237.706 77.098 237.263 77.14 236.749 77.14C236.031 77.14 235.401 76.9953 234.859 76.706C234.318 76.4167 233.893 75.9873 233.585 75.418C233.287 74.8487 233.137 74.144 233.137 73.304C233.137 72.4827 233.273 71.778 233.543 71.19C233.823 70.602 234.211 70.1493 234.705 69.832C235.209 69.5147 235.793 69.356 236.455 69.356ZM236.441 70.364C235.853 70.364 235.387 70.5553 235.041 70.938C234.705 71.3113 234.505 71.834 234.439 72.506H238.261C238.252 71.8713 238.103 71.358 237.813 70.966C237.524 70.5647 237.067 70.364 236.441 70.364ZM246.346 74.928C246.346 75.656 246.075 76.2067 245.534 76.58C244.992 76.9533 244.264 77.14 243.35 77.14C242.827 77.14 242.374 77.098 241.992 77.014C241.618 76.93 241.287 76.8133 240.998 76.664V75.544C241.296 75.6933 241.656 75.8333 242.076 75.964C242.505 76.0853 242.939 76.146 243.378 76.146C244.003 76.146 244.456 76.048 244.736 75.852C245.016 75.6467 245.156 75.376 245.156 75.04C245.156 74.8533 245.104 74.6853 245.002 74.536C244.899 74.3867 244.712 74.2373 244.442 74.088C244.18 73.9387 243.802 73.7707 243.308 73.584C242.822 73.3973 242.407 73.2107 242.062 73.024C241.716 72.8373 241.45 72.6133 241.264 72.352C241.077 72.0907 240.984 71.7547 240.984 71.344C240.984 70.7093 241.24 70.2193 241.754 69.874C242.276 69.5287 242.958 69.356 243.798 69.356C244.255 69.356 244.68 69.4027 245.072 69.496C245.473 69.5893 245.846 69.7107 246.192 69.86L245.772 70.84C245.454 70.7093 245.123 70.5973 244.778 70.504C244.432 70.4107 244.078 70.364 243.714 70.364C243.21 70.364 242.822 70.448 242.552 70.616C242.29 70.7747 242.16 70.994 242.16 71.274C242.16 71.4887 242.22 71.666 242.342 71.806C242.463 71.946 242.664 72.086 242.944 72.226C243.233 72.366 243.616 72.5247 244.092 72.702C244.568 72.8793 244.974 73.0613 245.31 73.248C245.646 73.4347 245.902 73.6633 246.08 73.934C246.257 74.1953 246.346 74.5267 246.346 74.928Z" fill="black"/>
<circle cx="152" cy="100" r="7.5" fill="white" stroke="#DA291C"/>
<path d="M175.63 105L174.426 101.906H170.464L169.274 105H168L171.906 94.962H173.04L176.932 105H175.63ZM174.048 100.786L172.928 97.762C172.9 97.6873 172.853 97.552 172.788 97.356C172.723 97.16 172.657 96.9593 172.592 96.754C172.536 96.5393 172.489 96.376 172.452 96.264C172.377 96.5533 172.298 96.838 172.214 97.118C172.139 97.3887 172.074 97.6033 172.018 97.762L170.884 100.786H174.048ZM180.791 105.14C179.858 105.14 179.111 104.818 178.551 104.174C177.991 103.521 177.711 102.55 177.711 101.262C177.711 99.974 177.991 99.0033 178.551 98.35C179.121 97.6873 179.872 97.356 180.805 97.356C181.384 97.356 181.855 97.4633 182.219 97.678C182.593 97.8927 182.896 98.154 183.129 98.462H183.213C183.195 98.3407 183.176 98.1633 183.157 97.93C183.139 97.6873 183.129 97.496 183.129 97.356V94.36H184.361V105H183.367L183.185 103.992H183.129C182.905 104.309 182.607 104.58 182.233 104.804C181.86 105.028 181.379 105.14 180.791 105.14ZM180.987 104.118C181.781 104.118 182.336 103.903 182.653 103.474C182.98 103.035 183.143 102.377 183.143 101.5V101.276C183.143 100.343 182.989 99.6287 182.681 99.134C182.373 98.63 181.804 98.378 180.973 98.378C180.311 98.378 179.811 98.644 179.475 99.176C179.149 99.6987 178.985 100.403 178.985 101.29C178.985 102.186 179.149 102.881 179.475 103.376C179.811 103.871 180.315 104.118 180.987 104.118ZM194.977 97.356C195.826 97.356 196.461 97.5753 196.881 98.014C197.301 98.4527 197.511 99.1527 197.511 100.114V105H196.293V100.17C196.293 98.9847 195.784 98.392 194.767 98.392C194.039 98.392 193.516 98.602 193.199 99.022C192.891 99.442 192.737 100.053 192.737 100.856V105H191.519V100.17C191.519 98.9847 191.005 98.392 189.979 98.392C189.223 98.392 188.7 98.6253 188.411 99.092C188.121 99.5587 187.977 100.231 187.977 101.108V105H186.745V97.496H187.739L187.921 98.518H187.991C188.224 98.126 188.537 97.8367 188.929 97.65C189.33 97.454 189.755 97.356 190.203 97.356C191.379 97.356 192.144 97.776 192.499 98.616H192.569C192.821 98.1867 193.161 97.8693 193.591 97.664C194.02 97.4587 194.482 97.356 194.977 97.356ZM200.459 94.682C200.645 94.682 200.809 94.7473 200.949 94.878C201.098 94.9993 201.173 95.1953 201.173 95.466C201.173 95.7367 201.098 95.9373 200.949 96.068C200.809 96.1893 200.645 96.25 200.459 96.25C200.253 96.25 200.081 96.1893 199.941 96.068C199.801 95.9373 199.731 95.7367 199.731 95.466C199.731 95.1953 199.801 94.9993 199.941 94.878C200.081 94.7473 200.253 94.682 200.459 94.682ZM201.061 97.496V105H199.829V97.496H201.061ZM207.05 97.356C207.946 97.356 208.623 97.5753 209.08 98.014C209.537 98.4527 209.766 99.1527 209.766 100.114V105H208.548V100.198C208.548 98.994 207.988 98.392 206.868 98.392C206.037 98.392 205.463 98.6253 205.146 99.092C204.829 99.5587 204.67 100.231 204.67 101.108V105H203.438V97.496H204.432L204.614 98.518H204.684C204.927 98.126 205.263 97.8367 205.692 97.65C206.121 97.454 206.574 97.356 207.05 97.356ZM219.061 105H217.801V96.11H214.679V95.004H222.169V96.11H219.061V105ZM229.048 101.234C229.048 102.475 228.731 103.437 228.096 104.118C227.471 104.799 226.621 105.14 225.548 105.14C224.885 105.14 224.293 104.991 223.77 104.692C223.257 104.384 222.851 103.941 222.552 103.362C222.253 102.774 222.104 102.065 222.104 101.234C222.104 99.9927 222.412 99.036 223.028 98.364C223.653 97.692 224.507 97.356 225.59 97.356C226.262 97.356 226.859 97.51 227.382 97.818C227.905 98.1167 228.311 98.5553 228.6 99.134C228.899 99.7033 229.048 100.403 229.048 101.234ZM223.378 101.234C223.378 102.121 223.551 102.825 223.896 103.348C224.251 103.861 224.811 104.118 225.576 104.118C226.332 104.118 226.887 103.861 227.242 103.348C227.597 102.825 227.774 102.121 227.774 101.234C227.774 100.347 227.597 99.652 227.242 99.148C226.887 98.644 226.327 98.392 225.562 98.392C224.797 98.392 224.241 98.644 223.896 99.148C223.551 99.652 223.378 100.347 223.378 101.234ZM237.525 101.234C237.525 102.475 237.207 103.437 236.573 104.118C235.947 104.799 235.098 105.14 234.025 105.14C233.362 105.14 232.769 104.991 232.247 104.692C231.733 104.384 231.327 103.941 231.029 103.362C230.73 102.774 230.581 102.065 230.581 101.234C230.581 99.9927 230.889 99.036 231.505 98.364C232.13 97.692 232.984 97.356 234.067 97.356C234.739 97.356 235.336 97.51 235.859 97.818C236.381 98.1167 236.787 98.5553 237.077 99.134C237.375 99.7033 237.525 100.403 237.525 101.234ZM231.855 101.234C231.855 102.121 232.027 102.825 232.373 103.348C232.727 103.861 233.287 104.118 234.053 104.118C234.809 104.118 235.364 103.861 235.719 103.348C236.073 102.825 236.251 102.121 236.251 101.234C236.251 100.347 236.073 99.652 235.719 99.148C235.364 98.644 234.804 98.392 234.039 98.392C233.273 98.392 232.718 98.644 232.373 99.148C232.027 99.652 231.855 100.347 231.855 101.234ZM240.709 105H239.477V94.36H240.709V105ZM247.972 102.928C247.972 103.656 247.702 104.207 247.16 104.58C246.619 104.953 245.891 105.14 244.976 105.14C244.454 105.14 244.001 105.098 243.618 105.014C243.245 104.93 242.914 104.813 242.624 104.664V103.544C242.923 103.693 243.282 103.833 243.702 103.964C244.132 104.085 244.566 104.146 245.004 104.146C245.63 104.146 246.082 104.048 246.362 103.852C246.642 103.647 246.782 103.376 246.782 103.04C246.782 102.853 246.731 102.685 246.628 102.536C246.526 102.387 246.339 102.237 246.068 102.088C245.807 101.939 245.429 101.771 244.934 101.584C244.449 101.397 244.034 101.211 243.688 101.024C243.343 100.837 243.077 100.613 242.89 100.352C242.704 100.091 242.61 99.7547 242.61 99.344C242.61 98.7093 242.867 98.2193 243.38 97.874C243.903 97.5287 244.584 97.356 245.424 97.356C245.882 97.356 246.306 97.4027 246.698 97.496C247.1 97.5893 247.473 97.7107 247.818 97.86L247.398 98.84C247.081 98.7093 246.75 98.5973 246.404 98.504C246.059 98.4107 245.704 98.364 245.34 98.364C244.836 98.364 244.449 98.448 244.178 98.616C243.917 98.7747 243.786 98.994 243.786 99.274C243.786 99.4887 243.847 99.666 243.968 99.806C244.09 99.946 244.29 100.086 244.57 100.226C244.86 100.366 245.242 100.525 245.718 100.702C246.194 100.879 246.6 101.061 246.936 101.248C247.272 101.435 247.529 101.663 247.706 101.934C247.884 102.195 247.972 102.527 247.972 102.928Z" fill="black"/>
<circle cx="152" cy="128" r="7.5" fill="white" stroke="#DA291C"/>
<path d="M175.028 130.326C175.028 131.213 174.706 131.903 174.062 132.398C173.418 132.893 172.55 133.14 171.458 133.14C170.898 133.14 170.38 133.098 169.904 133.014C169.428 132.93 169.031 132.813 168.714 132.664V131.46C169.05 131.609 169.465 131.745 169.96 131.866C170.464 131.987 170.982 132.048 171.514 132.048C172.251 132.048 172.811 131.903 173.194 131.614C173.577 131.325 173.768 130.933 173.768 130.438C173.768 130.111 173.698 129.836 173.558 129.612C173.418 129.388 173.175 129.183 172.83 128.996C172.485 128.809 172.013 128.604 171.416 128.38C170.557 128.072 169.913 127.694 169.484 127.246C169.055 126.798 168.84 126.187 168.84 125.412C168.84 124.889 168.975 124.437 169.246 124.054C169.517 123.671 169.89 123.377 170.366 123.172C170.842 122.967 171.397 122.864 172.032 122.864C172.573 122.864 173.073 122.915 173.53 123.018C173.987 123.121 174.407 123.256 174.79 123.424L174.398 124.502C174.053 124.353 173.675 124.227 173.264 124.124C172.853 124.021 172.433 123.97 172.004 123.97C171.379 123.97 170.907 124.105 170.59 124.376C170.273 124.637 170.114 124.987 170.114 125.426C170.114 125.762 170.184 126.042 170.324 126.266C170.464 126.49 170.693 126.695 171.01 126.882C171.327 127.059 171.757 127.246 172.298 127.442C172.886 127.657 173.381 127.89 173.782 128.142C174.193 128.385 174.501 128.679 174.706 129.024C174.921 129.369 175.028 129.803 175.028 130.326ZM180.444 125.356C181.368 125.356 182.11 125.678 182.67 126.322C183.239 126.966 183.524 127.937 183.524 129.234C183.524 130.513 183.239 131.483 182.67 132.146C182.11 132.809 181.363 133.14 180.43 133.14C179.851 133.14 179.37 133.033 178.988 132.818C178.614 132.603 178.32 132.347 178.106 132.048H178.022C178.031 132.207 178.045 132.407 178.064 132.65C178.092 132.893 178.106 133.103 178.106 133.28V136.36H176.874V125.496H177.882L178.05 126.518H178.106C178.33 126.191 178.624 125.916 178.988 125.692C179.352 125.468 179.837 125.356 180.444 125.356ZM180.22 126.392C179.454 126.392 178.913 126.607 178.596 127.036C178.278 127.465 178.115 128.119 178.106 128.996V129.234C178.106 130.158 178.255 130.872 178.554 131.376C178.862 131.871 179.426 132.118 180.248 132.118C180.696 132.118 181.069 131.997 181.368 131.754C181.666 131.502 181.886 131.157 182.026 130.718C182.175 130.279 182.25 129.78 182.25 129.22C182.25 128.361 182.082 127.675 181.746 127.162C181.419 126.649 180.91 126.392 180.22 126.392ZM188.329 125.37C189.244 125.37 189.92 125.571 190.359 125.972C190.798 126.373 191.017 127.013 191.017 127.89V133H190.121L189.883 131.936H189.827C189.5 132.347 189.155 132.65 188.791 132.846C188.427 133.042 187.932 133.14 187.307 133.14C186.626 133.14 186.061 132.963 185.613 132.608C185.165 132.244 184.941 131.679 184.941 130.914C184.941 130.167 185.235 129.593 185.823 129.192C186.411 128.781 187.316 128.557 188.539 128.52L189.813 128.478V128.03C189.813 127.405 189.678 126.971 189.407 126.728C189.136 126.485 188.754 126.364 188.259 126.364C187.867 126.364 187.494 126.425 187.139 126.546C186.784 126.658 186.453 126.789 186.145 126.938L185.767 126.014C186.094 125.837 186.481 125.687 186.929 125.566C187.377 125.435 187.844 125.37 188.329 125.37ZM189.799 129.332L188.693 129.374C187.76 129.411 187.111 129.561 186.747 129.822C186.392 130.083 186.215 130.452 186.215 130.928C186.215 131.348 186.341 131.656 186.593 131.852C186.854 132.048 187.186 132.146 187.587 132.146C188.212 132.146 188.735 131.973 189.155 131.628C189.584 131.273 189.799 130.732 189.799 130.004V129.332ZM196.345 133.14C195.673 133.14 195.08 133.005 194.567 132.734C194.053 132.463 193.647 132.043 193.349 131.474C193.059 130.905 192.915 130.177 192.915 129.29C192.915 128.366 193.064 127.615 193.363 127.036C193.671 126.457 194.091 126.033 194.623 125.762C195.155 125.491 195.757 125.356 196.429 125.356C196.802 125.356 197.166 125.398 197.521 125.482C197.885 125.557 198.179 125.65 198.403 125.762L198.025 126.784C197.801 126.7 197.539 126.621 197.241 126.546C196.942 126.471 196.662 126.434 196.401 126.434C194.926 126.434 194.189 127.381 194.189 129.276C194.189 130.181 194.366 130.877 194.721 131.362C195.085 131.838 195.621 132.076 196.331 132.076C196.732 132.076 197.091 132.034 197.409 131.95C197.726 131.866 198.015 131.763 198.277 131.642V132.734C198.025 132.865 197.745 132.963 197.437 133.028C197.138 133.103 196.774 133.14 196.345 133.14ZM202.959 125.356C203.594 125.356 204.144 125.496 204.611 125.776C205.078 126.056 205.432 126.453 205.675 126.966C205.927 127.47 206.053 128.063 206.053 128.744V129.486H200.915C200.934 130.335 201.148 130.984 201.559 131.432C201.979 131.871 202.562 132.09 203.309 132.09C203.785 132.09 204.205 132.048 204.569 131.964C204.942 131.871 205.325 131.74 205.717 131.572V132.65C205.334 132.818 204.956 132.939 204.583 133.014C204.21 133.098 203.766 133.14 203.253 133.14C202.534 133.14 201.904 132.995 201.363 132.706C200.822 132.417 200.397 131.987 200.089 131.418C199.79 130.849 199.641 130.144 199.641 129.304C199.641 128.483 199.776 127.778 200.047 127.19C200.327 126.602 200.714 126.149 201.209 125.832C201.713 125.515 202.296 125.356 202.959 125.356ZM202.945 126.364C202.357 126.364 201.89 126.555 201.545 126.938C201.209 127.311 201.008 127.834 200.943 128.506H204.765C204.756 127.871 204.606 127.358 204.317 126.966C204.028 126.565 203.57 126.364 202.945 126.364ZM212.849 130.928C212.849 131.656 212.579 132.207 212.037 132.58C211.496 132.953 210.768 133.14 209.853 133.14C209.331 133.14 208.878 133.098 208.495 133.014C208.122 132.93 207.791 132.813 207.501 132.664V131.544C207.8 131.693 208.159 131.833 208.579 131.964C209.009 132.085 209.443 132.146 209.881 132.146C210.507 132.146 210.959 132.048 211.239 131.852C211.519 131.647 211.659 131.376 211.659 131.04C211.659 130.853 211.608 130.685 211.505 130.536C211.403 130.387 211.216 130.237 210.945 130.088C210.684 129.939 210.306 129.771 209.811 129.584C209.326 129.397 208.911 129.211 208.565 129.024C208.22 128.837 207.954 128.613 207.767 128.352C207.581 128.091 207.487 127.755 207.487 127.344C207.487 126.709 207.744 126.219 208.257 125.874C208.78 125.529 209.461 125.356 210.301 125.356C210.759 125.356 211.183 125.403 211.575 125.496C211.977 125.589 212.35 125.711 212.695 125.86L212.275 126.84C211.958 126.709 211.627 126.597 211.281 126.504C210.936 126.411 210.581 126.364 210.217 126.364C209.713 126.364 209.326 126.448 209.055 126.616C208.794 126.775 208.663 126.994 208.663 127.274C208.663 127.489 208.724 127.666 208.845 127.806C208.967 127.946 209.167 128.086 209.447 128.226C209.737 128.366 210.119 128.525 210.595 128.702C211.071 128.879 211.477 129.061 211.813 129.248C212.149 129.435 212.406 129.663 212.583 129.934C212.761 130.195 212.849 130.527 212.849 130.928Z" fill="black"/>
</svg>
