<svg width="94" height="104" viewBox="0 0 94 104" fill="none" xmlns="http://www.w3.org/2000/svg">
<circle cx="8" cy="10" r="7.5" fill="white" stroke="#1473E6"/>
<circle cx="8" cy="10" r="5" fill="#1473E6"/>
<path d="M25.904 15L30.006 6.124H24.616V5.004H31.322V5.956L27.262 15H25.904ZM39.2917 15H32.6837V13.978L35.3017 11.332C35.7964 10.828 36.2164 10.38 36.5617 9.988C36.9164 9.596 37.1824 9.21333 37.3597 8.84C37.5371 8.46667 37.6257 8.05133 37.6257 7.594C37.6257 7.04333 37.4624 6.628 37.1357 6.348C36.8091 6.05867 36.3844 5.914 35.8617 5.914C35.3671 5.914 34.9377 5.998 34.5737 6.166C34.2097 6.334 33.8364 6.56733 33.4537 6.866L32.7957 6.04C33.1877 5.71333 33.6357 5.438 34.1397 5.214C34.6531 4.98067 35.2271 4.864 35.8617 4.864C36.7951 4.864 37.5324 5.102 38.0737 5.578C38.6151 6.054 38.8857 6.70267 38.8857 7.524C38.8857 8.04667 38.7784 8.53667 38.5637 8.994C38.3491 9.45133 38.0504 9.904 37.6677 10.352C37.2851 10.8 36.8371 11.2713 36.3237 11.766L34.2377 13.824V13.88H39.2917V15ZM47.3454 9.988C47.3454 11.0707 47.2334 11.9947 47.0094 12.76C46.7854 13.5253 46.4261 14.1133 45.9314 14.524C45.4461 14.9347 44.8068 15.14 44.0134 15.14C42.8841 15.14 42.0488 14.6873 41.5074 13.782C40.9754 12.8673 40.7094 11.6027 40.7094 9.988C40.7094 8.90533 40.8168 7.98133 41.0314 7.216C41.2554 6.45067 41.6101 5.86733 42.0954 5.466C42.5808 5.05533 43.2201 4.85 44.0134 4.85C45.1334 4.85 45.9688 5.30267 46.5194 6.208C47.0701 7.104 47.3454 8.364 47.3454 9.988ZM41.9414 9.988C41.9414 11.36 42.0954 12.3867 42.4034 13.068C42.7208 13.7493 43.2574 14.09 44.0134 14.09C44.7601 14.09 45.2921 13.754 45.6094 13.082C45.9361 12.4007 46.0994 11.3693 46.0994 9.988C46.0994 8.62533 45.9361 7.60333 45.6094 6.922C45.2921 6.24067 44.7601 5.9 44.0134 5.9C43.2574 5.9 42.7208 6.24067 42.4034 6.922C42.0954 7.60333 41.9414 8.62533 41.9414 9.988ZM52.7952 7.356C53.7192 7.356 54.4612 7.678 55.0212 8.322C55.5905 8.966 55.8752 9.93667 55.8752 11.234C55.8752 12.5127 55.5905 13.4833 55.0212 14.146C54.4612 14.8087 53.7145 15.14 52.7812 15.14C52.2025 15.14 51.7218 15.0327 51.3392 14.818C50.9658 14.6033 50.6718 14.3467 50.4572 14.048H50.3732C50.3825 14.2067 50.3965 14.4073 50.4152 14.65C50.4432 14.8927 50.4572 15.1027 50.4572 15.28V18.36H49.2252V7.496H50.2332L50.4012 8.518H50.4572C50.6812 8.19133 50.9752 7.916 51.3392 7.692C51.7032 7.468 52.1885 7.356 52.7952 7.356ZM52.5712 8.392C51.8058 8.392 51.2645 8.60667 50.9472 9.036C50.6298 9.46533 50.4665 10.1187 50.4572 10.996V11.234C50.4572 12.158 50.6065 12.872 50.9052 13.376C51.2132 13.8707 51.7778 14.118 52.5992 14.118C53.0472 14.118 53.4205 13.9967 53.7192 13.754C54.0178 13.502 54.2372 13.1567 54.3772 12.718C54.5265 12.2793 54.6012 11.78 54.6012 11.22C54.6012 10.3613 54.4332 9.67533 54.0972 9.162C53.7705 8.64867 53.2618 8.392 52.5712 8.392Z" fill="black"/>
<circle cx="8" cy="38" r="7.5" fill="white" stroke="#1473E6"/>
<path d="M31.728 40.732H30.272V43H29.082V40.732H24.294V39.682L28.998 32.948H30.272V39.626H31.728V40.732ZM29.082 39.626V36.476C29.082 35.9907 29.0867 35.58 29.096 35.244C29.1147 34.8987 29.1333 34.572 29.152 34.264H29.096C29.0213 34.4413 28.928 34.6327 28.816 34.838C28.704 35.0433 28.5967 35.216 28.494 35.356L25.498 39.626H29.082ZM36.0017 32.864C36.8791 32.864 37.5977 33.0693 38.1577 33.48C38.7177 33.8907 38.9977 34.4833 38.9977 35.258C38.9977 35.6593 38.9091 36.0093 38.7317 36.308C38.5637 36.6067 38.3351 36.8727 38.0457 37.106C37.7564 37.33 37.4391 37.5307 37.0937 37.708C37.5044 37.9133 37.8777 38.1373 38.2137 38.38C38.5497 38.6227 38.8157 38.9073 39.0117 39.234C39.2171 39.5607 39.3197 39.9527 39.3197 40.41C39.3197 41.25 39.0211 41.9173 38.4237 42.412C37.8264 42.8973 37.0331 43.14 36.0437 43.14C34.9611 43.14 34.1304 42.9067 33.5517 42.44C32.9824 41.964 32.6977 41.3013 32.6977 40.452C32.6977 40.004 32.7911 39.612 32.9777 39.276C33.1737 38.9307 33.4304 38.6367 33.7477 38.394C34.0651 38.1513 34.4057 37.946 34.7697 37.778C34.2751 37.498 33.8597 37.162 33.5237 36.77C33.1877 36.3687 33.0197 35.86 33.0197 35.244C33.0197 34.74 33.1504 34.3107 33.4117 33.956C33.6731 33.6013 34.0277 33.3307 34.4757 33.144C34.9237 32.9573 35.4324 32.864 36.0017 32.864ZM35.9877 33.858C35.4651 33.858 35.0404 33.984 34.7137 34.236C34.3871 34.4787 34.2237 34.8333 34.2237 35.3C34.2237 35.6453 34.3031 35.9347 34.4617 36.168C34.6297 36.4013 34.8537 36.602 35.1337 36.77C35.4137 36.9287 35.7217 37.0827 36.0577 37.232C36.5431 37.0267 36.9491 36.7793 37.2757 36.49C37.6117 36.2007 37.7797 35.804 37.7797 35.3C37.7797 34.8333 37.6164 34.4787 37.2897 34.236C36.9631 33.984 36.5291 33.858 35.9877 33.858ZM33.9017 40.466C33.9017 40.9513 34.0744 41.3573 34.4197 41.684C34.7651 42.0013 35.2971 42.16 36.0157 42.16C36.6971 42.16 37.2151 42.0013 37.5697 41.684C37.9337 41.3573 38.1157 40.9373 38.1157 40.424C38.1157 39.9387 37.9244 39.5373 37.5417 39.22C37.1591 38.8933 36.6504 38.6087 36.0157 38.366L35.7917 38.282C35.1757 38.5527 34.7044 38.856 34.3777 39.192C34.0604 39.528 33.9017 39.9527 33.9017 40.466ZM47.3454 37.988C47.3454 39.0707 47.2334 39.9947 47.0094 40.76C46.7854 41.5253 46.4261 42.1133 45.9314 42.524C45.4461 42.9347 44.8068 43.14 44.0134 43.14C42.8841 43.14 42.0488 42.6873 41.5074 41.782C40.9754 40.8673 40.7094 39.6027 40.7094 37.988C40.7094 36.9053 40.8168 35.9813 41.0314 35.216C41.2554 34.4507 41.6101 33.8673 42.0954 33.466C42.5808 33.0553 43.2201 32.85 44.0134 32.85C45.1334 32.85 45.9688 33.3027 46.5194 34.208C47.0701 35.104 47.3454 36.364 47.3454 37.988ZM41.9414 37.988C41.9414 39.36 42.0954 40.3867 42.4034 41.068C42.7208 41.7493 43.2574 42.09 44.0134 42.09C44.7601 42.09 45.2921 41.754 45.6094 41.082C45.9361 40.4007 46.0994 39.3693 46.0994 37.988C46.0994 36.6253 45.9361 35.6033 45.6094 34.922C45.2921 34.2407 44.7601 33.9 44.0134 33.9C43.2574 33.9 42.7208 34.2407 42.4034 34.922C42.0954 35.6033 41.9414 36.6253 41.9414 37.988ZM52.7952 35.356C53.7192 35.356 54.4612 35.678 55.0212 36.322C55.5905 36.966 55.8752 37.9367 55.8752 39.234C55.8752 40.5127 55.5905 41.4833 55.0212 42.146C54.4612 42.8087 53.7145 43.14 52.7812 43.14C52.2025 43.14 51.7218 43.0327 51.3392 42.818C50.9658 42.6033 50.6718 42.3467 50.4572 42.048H50.3732C50.3825 42.2067 50.3965 42.4073 50.4152 42.65C50.4432 42.8927 50.4572 43.1027 50.4572 43.28V46.36H49.2252V35.496H50.2332L50.4012 36.518H50.4572C50.6812 36.1913 50.9752 35.916 51.3392 35.692C51.7032 35.468 52.1885 35.356 52.7952 35.356ZM52.5712 36.392C51.8058 36.392 51.2645 36.6067 50.9472 37.036C50.6298 37.4653 50.4665 38.1187 50.4572 38.996V39.234C50.4572 40.158 50.6065 40.872 50.9052 41.376C51.2132 41.8707 51.7778 42.118 52.5992 42.118C53.0472 42.118 53.4205 41.9967 53.7192 41.754C54.0178 41.502 54.2372 41.1567 54.3772 40.718C54.5265 40.2793 54.6012 39.78 54.6012 39.22C54.6012 38.3613 54.4332 37.6753 54.0972 37.162C53.7705 36.6487 53.2618 36.392 52.5712 36.392Z" fill="black"/>
<circle cx="8" cy="66" r="7.5" fill="white" stroke="#1473E6"/>
<path d="M30.902 63.342C30.902 64.014 30.7107 64.5507 30.328 64.952C29.9547 65.344 29.4553 65.6053 28.83 65.736V65.792C29.6233 65.8853 30.216 66.1373 30.608 66.548C31.0093 66.9587 31.21 67.4953 31.21 68.158C31.21 68.746 31.0747 69.264 30.804 69.712C30.5333 70.16 30.1133 70.51 29.544 70.762C28.984 71.014 28.2607 71.14 27.374 71.14C26.8513 71.14 26.366 71.098 25.918 71.014C25.47 70.9393 25.0407 70.7993 24.63 70.594V69.446C25.05 69.6607 25.5027 69.824 25.988 69.936C26.4733 70.048 26.94 70.104 27.388 70.104C28.284 70.104 28.928 69.9313 29.32 69.586C29.7213 69.2313 29.922 68.746 29.922 68.13C29.922 67.5047 29.6747 67.0567 29.18 66.786C28.6947 66.506 28.0087 66.366 27.122 66.366H26.156V65.316H27.136C27.9573 65.316 28.578 65.1433 28.998 64.798C29.4273 64.4527 29.642 63.9953 29.642 63.426C29.642 62.9407 29.4787 62.5673 29.152 62.306C28.8253 62.0353 28.382 61.9 27.822 61.9C27.2807 61.9 26.8187 61.9793 26.436 62.138C26.0533 62.2967 25.6753 62.4973 25.302 62.74L24.686 61.9C25.0407 61.62 25.4793 61.3773 26.002 61.172C26.534 60.9667 27.136 60.864 27.808 60.864C28.8533 60.864 29.628 61.0973 30.132 61.564C30.6453 62.0307 30.902 62.6233 30.902 63.342ZM32.7817 66.73C32.7817 66.0113 32.8424 65.3067 32.9637 64.616C33.0944 63.916 33.3231 63.286 33.6497 62.726C33.9857 62.1567 34.4524 61.704 35.0497 61.368C35.6471 61.032 36.4171 60.864 37.3597 60.864C37.5557 60.864 37.7704 60.8733 38.0037 60.892C38.2464 60.9107 38.4424 60.9433 38.5917 60.99V62.04C38.4237 61.984 38.2324 61.942 38.0177 61.914C37.8031 61.886 37.5931 61.872 37.3877 61.872C36.7437 61.872 36.2071 61.9793 35.7777 62.194C35.3484 62.4087 35.0077 62.7027 34.7557 63.076C34.5131 63.4493 34.3357 63.8787 34.2237 64.364C34.1117 64.8493 34.0417 65.3673 34.0137 65.918H34.0977C34.3124 65.5913 34.6111 65.316 34.9937 65.092C35.3764 64.8587 35.8664 64.742 36.4637 64.742C37.3317 64.742 38.0317 65.008 38.5637 65.54C39.0957 66.0627 39.3617 66.8093 39.3617 67.78C39.3617 68.8253 39.0724 69.6467 38.4937 70.244C37.9244 70.8413 37.1544 71.14 36.1837 71.14C35.5491 71.14 34.9751 70.9813 34.4617 70.664C33.9484 70.3467 33.5377 69.8613 33.2297 69.208C32.9311 68.5547 32.7817 67.7287 32.7817 66.73ZM36.1697 70.104C36.7577 70.104 37.2337 69.9173 37.5977 69.544C37.9617 69.1613 38.1437 68.5733 38.1437 67.78C38.1437 67.1453 37.9804 66.6413 37.6537 66.268C37.3364 65.8947 36.8557 65.708 36.2117 65.708C35.7731 65.708 35.3904 65.8013 35.0637 65.988C34.7371 66.1653 34.4804 66.3987 34.2937 66.688C34.1164 66.968 34.0277 67.2527 34.0277 67.542C34.0277 67.9433 34.1071 68.3447 34.2657 68.746C34.4244 69.138 34.6624 69.4647 34.9797 69.726C35.2971 69.978 35.6937 70.104 36.1697 70.104ZM47.3454 65.988C47.3454 67.0707 47.2334 67.9947 47.0094 68.76C46.7854 69.5253 46.4261 70.1133 45.9314 70.524C45.4461 70.9347 44.8068 71.14 44.0134 71.14C42.8841 71.14 42.0488 70.6873 41.5074 69.782C40.9754 68.8673 40.7094 67.6027 40.7094 65.988C40.7094 64.9053 40.8168 63.9813 41.0314 63.216C41.2554 62.4507 41.6101 61.8673 42.0954 61.466C42.5808 61.0553 43.2201 60.85 44.0134 60.85C45.1334 60.85 45.9688 61.3027 46.5194 62.208C47.0701 63.104 47.3454 64.364 47.3454 65.988ZM41.9414 65.988C41.9414 67.36 42.0954 68.3867 42.4034 69.068C42.7208 69.7493 43.2574 70.09 44.0134 70.09C44.7601 70.09 45.2921 69.754 45.6094 69.082C45.9361 68.4007 46.0994 67.3693 46.0994 65.988C46.0994 64.6253 45.9361 63.6033 45.6094 62.922C45.2921 62.2407 44.7601 61.9 44.0134 61.9C43.2574 61.9 42.7208 62.2407 42.4034 62.922C42.0954 63.6033 41.9414 64.6253 41.9414 65.988ZM52.7952 63.356C53.7192 63.356 54.4612 63.678 55.0212 64.322C55.5905 64.966 55.8752 65.9367 55.8752 67.234C55.8752 68.5127 55.5905 69.4833 55.0212 70.146C54.4612 70.8087 53.7145 71.14 52.7812 71.14C52.2025 71.14 51.7218 71.0327 51.3392 70.818C50.9658 70.6033 50.6718 70.3467 50.4572 70.048H50.3732C50.3825 70.2067 50.3965 70.4073 50.4152 70.65C50.4432 70.8927 50.4572 71.1027 50.4572 71.28V74.36H49.2252V63.496H50.2332L50.4012 64.518H50.4572C50.6812 64.1913 50.9752 63.916 51.3392 63.692C51.7032 63.468 52.1885 63.356 52.7952 63.356ZM52.5712 64.392C51.8058 64.392 51.2645 64.6067 50.9472 65.036C50.6298 65.4653 50.4665 66.1187 50.4572 66.996V67.234C50.4572 68.158 50.6065 68.872 50.9052 69.376C51.2132 69.8707 51.7778 70.118 52.5992 70.118C53.0472 70.118 53.4205 69.9967 53.7192 69.754C54.0178 69.502 54.2372 69.1567 54.3772 68.718C54.5265 68.2793 54.6012 67.78 54.6012 67.22C54.6012 66.3613 54.4332 65.6753 54.0972 65.162C53.7705 64.6487 53.2618 64.392 52.5712 64.392Z" fill="black"/>
<circle cx="8" cy="94" r="7.5" fill="white" stroke="#1473E6"/>
<path d="M31.63 99L30.426 95.906H26.464L25.274 99H24L27.906 88.962H29.04L32.932 99H31.63ZM30.048 94.786L28.928 91.762C28.9 91.6873 28.8533 91.552 28.788 91.356C28.7227 91.16 28.6573 90.9593 28.592 90.754C28.536 90.5393 28.4893 90.376 28.452 90.264C28.3773 90.5533 28.298 90.838 28.214 91.118C28.1393 91.3887 28.074 91.6033 28.018 91.762L26.884 94.786H30.048ZM40.4034 91.496V99H39.3954L39.2134 98.006H39.1574C38.9147 98.398 38.5787 98.6873 38.1494 98.874C37.7201 99.0513 37.2627 99.14 36.7774 99.14C35.8721 99.14 35.1907 98.9253 34.7334 98.496C34.2761 98.0573 34.0474 97.362 34.0474 96.41V91.496H35.2934V96.326C35.2934 97.5207 35.8487 98.118 36.9594 98.118C37.7901 98.118 38.3641 97.8847 38.6814 97.418C39.0081 96.9513 39.1714 96.2793 39.1714 95.402V91.496H40.4034ZM45.4457 99.14C44.5124 99.14 43.7657 98.818 43.2057 98.174C42.6457 97.5207 42.3657 96.55 42.3657 95.262C42.3657 93.974 42.6457 93.0033 43.2057 92.35C43.775 91.6873 44.5264 91.356 45.4597 91.356C46.0384 91.356 46.5097 91.4633 46.8737 91.678C47.247 91.8927 47.5504 92.154 47.7837 92.462H47.8677C47.849 92.3407 47.8304 92.1633 47.8117 91.93C47.793 91.6873 47.7837 91.496 47.7837 91.356V88.36H49.0157V99H48.0217L47.8397 97.992H47.7837C47.5597 98.3093 47.261 98.58 46.8877 98.804C46.5144 99.028 46.0337 99.14 45.4457 99.14ZM45.6417 98.118C46.435 98.118 46.9904 97.9033 47.3077 97.474C47.6344 97.0353 47.7977 96.3773 47.7977 95.5V95.276C47.7977 94.3427 47.6437 93.6287 47.3357 93.134C47.0277 92.63 46.4584 92.378 45.6277 92.378C44.965 92.378 44.4657 92.644 44.1297 93.176C43.803 93.6987 43.6397 94.4033 43.6397 95.29C43.6397 96.186 43.803 96.8813 44.1297 97.376C44.4657 97.8707 44.9697 98.118 45.6417 98.118ZM52.029 88.682C52.2157 88.682 52.379 88.7473 52.519 88.878C52.6683 88.9993 52.743 89.1953 52.743 89.466C52.743 89.7367 52.6683 89.9373 52.519 90.068C52.379 90.1893 52.2157 90.25 52.029 90.25C51.8237 90.25 51.651 90.1893 51.511 90.068C51.371 89.9373 51.301 89.7367 51.301 89.466C51.301 89.1953 51.371 88.9993 51.511 88.878C51.651 88.7473 51.8237 88.682 52.029 88.682ZM52.631 91.496V99H51.399V91.496H52.631ZM61.5324 95.234C61.5324 96.4753 61.215 97.4367 60.5804 98.118C59.955 98.7993 59.1057 99.14 58.0324 99.14C57.3697 99.14 56.777 98.9907 56.2544 98.692C55.741 98.384 55.335 97.9407 55.0364 97.362C54.7377 96.774 54.5884 96.0647 54.5884 95.234C54.5884 93.9927 54.8964 93.036 55.5124 92.364C56.1377 91.692 56.9917 91.356 58.0744 91.356C58.7464 91.356 59.3437 91.51 59.8664 91.818C60.389 92.1167 60.795 92.5553 61.0844 93.134C61.383 93.7033 61.5324 94.4033 61.5324 95.234ZM55.8624 95.234C55.8624 96.1207 56.035 96.8253 56.3804 97.348C56.735 97.8613 57.295 98.118 58.0604 98.118C58.8164 98.118 59.3717 97.8613 59.7264 97.348C60.081 96.8253 60.2584 96.1207 60.2584 95.234C60.2584 94.3473 60.081 93.652 59.7264 93.148C59.3717 92.644 58.8117 92.392 58.0464 92.392C57.281 92.392 56.7257 92.644 56.3804 93.148C56.035 93.652 55.8624 94.3473 55.8624 95.234ZM73.6456 95.234C73.6456 96.4753 73.3283 97.4367 72.6936 98.118C72.0683 98.7993 71.219 99.14 70.1456 99.14C69.483 99.14 68.8903 98.9907 68.3676 98.692C67.8543 98.384 67.4483 97.9407 67.1496 97.362C66.851 96.774 66.7016 96.0647 66.7016 95.234C66.7016 93.9927 67.0096 93.036 67.6256 92.364C68.251 91.692 69.105 91.356 70.1876 91.356C70.8596 91.356 71.457 91.51 71.9796 91.818C72.5023 92.1167 72.9083 92.5553 73.1976 93.134C73.4963 93.7033 73.6456 94.4033 73.6456 95.234ZM67.9756 95.234C67.9756 96.1207 68.1483 96.8253 68.4936 97.348C68.8483 97.8613 69.4083 98.118 70.1736 98.118C70.9296 98.118 71.485 97.8613 71.8396 97.348C72.1943 96.8253 72.3716 96.1207 72.3716 95.234C72.3716 94.3473 72.1943 93.652 71.8396 93.148C71.485 92.644 70.925 92.392 70.1596 92.392C69.3943 92.392 68.839 92.644 68.4936 93.148C68.1483 93.652 67.9756 94.3473 67.9756 95.234ZM79.2102 91.356C80.1062 91.356 80.7829 91.5753 81.2402 92.014C81.6975 92.4527 81.9262 93.1527 81.9262 94.114V99H80.7082V94.198C80.7082 92.994 80.1482 92.392 79.0282 92.392C78.1975 92.392 77.6235 92.6253 77.3062 93.092C76.9889 93.5587 76.8302 94.2307 76.8302 95.108V99H75.5982V91.496H76.5922L76.7742 92.518H76.8442C77.0869 92.126 77.4229 91.8367 77.8522 91.65C78.2815 91.454 78.7342 91.356 79.2102 91.356ZM85.4845 99H84.2525V88.36H85.4845V99ZM86.6859 91.496H88.0019L89.6259 95.766C89.7659 96.1487 89.8919 96.508 90.0039 96.844C90.1159 97.18 90.1999 97.502 90.2559 97.81H90.3119C90.3679 97.5767 90.4565 97.2733 90.5779 96.9C90.6992 96.5173 90.8252 96.1347 90.9559 95.752L92.4819 91.496H93.8119L90.5779 100.036C90.3072 100.745 89.9665 101.31 89.5559 101.73C89.1452 102.15 88.5759 102.36 87.8479 102.36C87.6239 102.36 87.4279 102.346 87.2599 102.318C87.0919 102.299 86.9472 102.276 86.8259 102.248V101.268C86.9285 101.287 87.0499 101.305 87.1899 101.324C87.3392 101.343 87.4932 101.352 87.6519 101.352C88.0812 101.352 88.4265 101.231 88.6879 100.988C88.9492 100.745 89.1592 100.423 89.3179 100.022L89.7099 99.028L86.6859 91.496Z" fill="black"/>
</svg>
