<svg width="401" height="200" viewBox="0 0 401 200" fill="none" xmlns="http://www.w3.org/2000/svg">
<rect width="401" height="200" fill="white"/>
<path d="M47.68 34.432V39.976C47.68 40.568 47.56 41.104 47.32 41.584C47.08 42.056 46.712 42.432 46.216 42.712C45.72 42.984 45.096 43.12 44.344 43.12C43.272 43.12 42.46 42.832 41.908 42.256C41.356 41.672 41.08 40.904 41.08 39.952V34.432H42.16V39.988C42.16 40.684 42.344 41.224 42.712 41.608C43.088 41.992 43.652 42.184 44.404 42.184C45.18 42.184 45.74 41.98 46.084 41.572C46.436 41.156 46.612 40.624 46.612 39.976V34.432H47.68ZM53.9853 41.224C53.9853 41.848 53.7533 42.32 53.2893 42.64C52.8253 42.96 52.2013 43.12 51.4173 43.12C50.9693 43.12 50.5813 43.084 50.2533 43.012C49.9333 42.94 49.6493 42.84 49.4013 42.712V41.752C49.6573 41.88 49.9653 42 50.3253 42.112C50.6933 42.216 51.0653 42.268 51.4413 42.268C51.9773 42.268 52.3653 42.184 52.6053 42.016C52.8453 41.84 52.9653 41.608 52.9653 41.32C52.9653 41.16 52.9213 41.016 52.8333 40.888C52.7453 40.76 52.5853 40.632 52.3533 40.504C52.1293 40.376 51.8053 40.232 51.3813 40.072C50.9653 39.912 50.6093 39.752 50.3133 39.592C50.0173 39.432 49.7893 39.24 49.6293 39.016C49.4693 38.792 49.3893 38.504 49.3893 38.152C49.3893 37.608 49.6093 37.188 50.0493 36.892C50.4973 36.596 51.0813 36.448 51.8013 36.448C52.1933 36.448 52.5573 36.488 52.8933 36.568C53.2373 36.648 53.5573 36.752 53.8533 36.88L53.4933 37.72C53.2213 37.608 52.9373 37.512 52.6413 37.432C52.3453 37.352 52.0413 37.312 51.7293 37.312C51.2973 37.312 50.9653 37.384 50.7333 37.528C50.5093 37.664 50.3973 37.852 50.3973 38.092C50.3973 38.276 50.4493 38.428 50.5533 38.548C50.6573 38.668 50.8293 38.788 51.0693 38.908C51.3173 39.028 51.6453 39.164 52.0533 39.316C52.4613 39.468 52.8093 39.624 53.0973 39.784C53.3853 39.944 53.6053 40.14 53.7573 40.372C53.9093 40.596 53.9853 40.88 53.9853 41.224ZM58.0235 36.448C58.5675 36.448 59.0395 36.568 59.4395 36.808C59.8395 37.048 60.1435 37.388 60.3515 37.828C60.5675 38.26 60.6755 38.768 60.6755 39.352V39.988H56.2715C56.2875 40.716 56.4715 41.272 56.8235 41.656C57.1835 42.032 57.6835 42.22 58.3235 42.22C58.7315 42.22 59.0915 42.184 59.4035 42.112C59.7235 42.032 60.0515 41.92 60.3875 41.776V42.7C60.0595 42.844 59.7355 42.948 59.4155 43.012C59.0955 43.084 58.7155 43.12 58.2755 43.12C57.6595 43.12 57.1195 42.996 56.6555 42.748C56.1915 42.5 55.8275 42.132 55.5635 41.644C55.3075 41.156 55.1795 40.552 55.1795 39.832C55.1795 39.128 55.2955 38.524 55.5275 38.02C55.7675 37.516 56.0995 37.128 56.5235 36.856C56.9555 36.584 57.4555 36.448 58.0235 36.448ZM58.0115 37.312C57.5075 37.312 57.1075 37.476 56.8115 37.804C56.5235 38.124 56.3515 38.572 56.2955 39.148H59.5715C59.5635 38.604 59.4355 38.164 59.1875 37.828C58.9395 37.484 58.5475 37.312 58.0115 37.312ZM70.9502 43L69.9182 40.348H66.5222L65.5022 43H64.4102L67.7582 34.396H68.7302L72.0662 43H70.9502ZM69.5942 39.388L68.6342 36.796C68.6102 36.732 68.5702 36.616 68.5142 36.448C68.4582 36.28 68.4022 36.108 68.3462 35.932C68.2982 35.748 68.2582 35.608 68.2262 35.512C68.1622 35.76 68.0942 36.004 68.0222 36.244C67.9582 36.476 67.9022 36.66 67.8542 36.796L66.8822 39.388H69.5942ZM74.5102 43L72.0742 36.568H73.2022L74.5702 40.36C74.6342 40.536 74.7022 40.732 74.7742 40.948C74.8462 41.164 74.9102 41.372 74.9662 41.572C75.0222 41.772 75.0622 41.936 75.0862 42.064H75.1342C75.1582 41.936 75.2022 41.772 75.2662 41.572C75.3302 41.364 75.3982 41.156 75.4702 40.948C75.5422 40.732 75.6102 40.536 75.6742 40.36L77.0422 36.568H78.1702L75.7222 43H74.5102ZM81.624 36.46C82.408 36.46 82.988 36.632 83.364 36.976C83.74 37.32 83.928 37.868 83.928 38.62V43H83.16L82.956 42.088H82.908C82.628 42.44 82.332 42.7 82.02 42.868C81.708 43.036 81.284 43.12 80.748 43.12C80.164 43.12 79.68 42.968 79.296 42.664C78.912 42.352 78.72 41.868 78.72 41.212C78.72 40.572 78.972 40.08 79.476 39.736C79.98 39.384 80.756 39.192 81.804 39.16L82.896 39.124V38.74C82.896 38.204 82.78 37.832 82.548 37.624C82.316 37.416 81.988 37.312 81.564 37.312C81.228 37.312 80.908 37.364 80.604 37.468C80.3 37.564 80.016 37.676 79.752 37.804L79.428 37.012C79.708 36.86 80.04 36.732 80.424 36.628C80.808 36.516 81.208 36.46 81.624 36.46ZM82.884 39.856L81.936 39.892C81.136 39.924 80.58 40.052 80.268 40.276C79.964 40.5 79.812 40.816 79.812 41.224C79.812 41.584 79.92 41.848 80.136 42.016C80.36 42.184 80.644 42.268 80.988 42.268C81.524 42.268 81.972 42.12 82.332 41.824C82.7 41.52 82.884 41.056 82.884 40.432V39.856ZM84.9065 36.568H86.0345L87.4265 40.228C87.5465 40.556 87.6545 40.864 87.7505 41.152C87.8465 41.44 87.9185 41.716 87.9665 41.98H88.0145C88.0625 41.78 88.1385 41.52 88.2425 41.2C88.3465 40.872 88.4545 40.544 88.5665 40.216L89.8745 36.568H91.0145L88.2425 43.888C88.0105 44.496 87.7185 44.98 87.3665 45.34C87.0145 45.7 86.5265 45.88 85.9025 45.88C85.7105 45.88 85.5425 45.868 85.3985 45.844C85.2545 45.828 85.1305 45.808 85.0265 45.784V44.944C85.1145 44.96 85.2185 44.976 85.3385 44.992C85.4665 45.008 85.5985 45.016 85.7345 45.016C86.1025 45.016 86.3985 44.912 86.6225 44.704C86.8465 44.496 87.0265 44.22 87.1625 43.876L87.4985 43.024L84.9065 36.568ZM94.4677 36.46C95.2517 36.46 95.8317 36.632 96.2077 36.976C96.5837 37.32 96.7717 37.868 96.7717 38.62V43H96.0037L95.7997 42.088H95.7517C95.4717 42.44 95.1757 42.7 94.8637 42.868C94.5517 43.036 94.1277 43.12 93.5917 43.12C93.0077 43.12 92.5237 42.968 92.1397 42.664C91.7557 42.352 91.5637 41.868 91.5637 41.212C91.5637 40.572 91.8157 40.08 92.3197 39.736C92.8237 39.384 93.5997 39.192 94.6477 39.16L95.7397 39.124V38.74C95.7397 38.204 95.6237 37.832 95.3917 37.624C95.1597 37.416 94.8317 37.312 94.4077 37.312C94.0717 37.312 93.7517 37.364 93.4477 37.468C93.1437 37.564 92.8597 37.676 92.5957 37.804L92.2717 37.012C92.5517 36.86 92.8837 36.732 93.2677 36.628C93.6517 36.516 94.0517 36.46 94.4677 36.46ZM95.7277 39.856L94.7797 39.892C93.9797 39.924 93.4237 40.052 93.1117 40.276C92.8077 40.5 92.6557 40.816 92.6557 41.224C92.6557 41.584 92.7637 41.848 92.9797 42.016C93.2037 42.184 93.4877 42.268 93.8317 42.268C94.3677 42.268 94.8157 42.12 95.1757 41.824C95.5437 41.52 95.7277 41.056 95.7277 40.432V39.856ZM106.879 40.708C106.879 41.468 106.603 42.06 106.051 42.484C105.499 42.908 104.755 43.12 103.819 43.12C103.339 43.12 102.895 43.084 102.487 43.012C102.079 42.94 101.739 42.84 101.467 42.712V41.68C101.755 41.808 102.111 41.924 102.535 42.028C102.967 42.132 103.411 42.184 103.867 42.184C104.499 42.184 104.979 42.06 105.307 41.812C105.635 41.564 105.799 41.228 105.799 40.804C105.799 40.524 105.739 40.288 105.619 40.096C105.499 39.904 105.291 39.728 104.995 39.568C104.699 39.408 104.295 39.232 103.783 39.04C103.047 38.776 102.495 38.452 102.127 38.068C101.759 37.684 101.575 37.16 101.575 36.496C101.575 36.048 101.691 35.66 101.923 35.332C102.155 35.004 102.475 34.752 102.883 34.576C103.291 34.4 103.767 34.312 104.311 34.312C104.775 34.312 105.203 34.356 105.595 34.444C105.987 34.532 106.347 34.648 106.675 34.792L106.339 35.716C106.043 35.588 105.719 35.48 105.367 35.392C105.015 35.304 104.655 35.26 104.287 35.26C103.751 35.26 103.347 35.376 103.075 35.608C102.803 35.832 102.667 36.132 102.667 36.508C102.667 36.796 102.727 37.036 102.847 37.228C102.967 37.42 103.163 37.596 103.435 37.756C103.707 37.908 104.075 38.068 104.539 38.236C105.043 38.42 105.467 38.62 105.811 38.836C106.163 39.044 106.427 39.296 106.603 39.592C106.787 39.888 106.879 40.26 106.879 40.708ZM111.521 36.448C112.313 36.448 112.949 36.724 113.429 37.276C113.917 37.828 114.161 38.66 114.161 39.772C114.161 40.868 113.917 41.7 113.429 42.268C112.949 42.836 112.309 43.12 111.509 43.12C111.013 43.12 110.601 43.028 110.273 42.844C109.953 42.66 109.701 42.44 109.517 42.184H109.445C109.453 42.32 109.465 42.492 109.481 42.7C109.505 42.908 109.517 43.088 109.517 43.24V45.88H108.461V36.568H109.325L109.469 37.444H109.517C109.709 37.164 109.961 36.928 110.273 36.736C110.585 36.544 111.001 36.448 111.521 36.448ZM111.329 37.336C110.673 37.336 110.209 37.52 109.937 37.888C109.665 38.256 109.525 38.816 109.517 39.568V39.772C109.517 40.564 109.645 41.176 109.901 41.608C110.165 42.032 110.649 42.244 111.353 42.244C111.737 42.244 112.057 42.14 112.313 41.932C112.569 41.716 112.757 41.42 112.877 41.044C113.005 40.668 113.069 40.24 113.069 39.76C113.069 39.024 112.925 38.436 112.637 37.996C112.357 37.556 111.921 37.336 111.329 37.336ZM118.28 36.46C119.064 36.46 119.644 36.632 120.02 36.976C120.396 37.32 120.584 37.868 120.584 38.62V43H119.816L119.612 42.088H119.564C119.284 42.44 118.988 42.7 118.676 42.868C118.364 43.036 117.94 43.12 117.404 43.12C116.82 43.12 116.336 42.968 115.952 42.664C115.568 42.352 115.376 41.868 115.376 41.212C115.376 40.572 115.628 40.08 116.132 39.736C116.636 39.384 117.412 39.192 118.46 39.16L119.552 39.124V38.74C119.552 38.204 119.436 37.832 119.204 37.624C118.972 37.416 118.644 37.312 118.22 37.312C117.884 37.312 117.564 37.364 117.26 37.468C116.956 37.564 116.672 37.676 116.408 37.804L116.084 37.012C116.364 36.86 116.696 36.732 117.08 36.628C117.464 36.516 117.864 36.46 118.28 36.46ZM119.54 39.856L118.592 39.892C117.792 39.924 117.236 40.052 116.924 40.276C116.62 40.5 116.468 40.816 116.468 41.224C116.468 41.584 116.576 41.848 116.792 42.016C117.016 42.184 117.3 42.268 117.644 42.268C118.18 42.268 118.628 42.12 118.988 41.824C119.356 41.52 119.54 41.056 119.54 40.432V39.856ZM125.151 43.12C124.575 43.12 124.067 43.004 123.627 42.772C123.187 42.54 122.839 42.18 122.583 41.692C122.335 41.204 122.211 40.58 122.211 39.82C122.211 39.028 122.339 38.384 122.595 37.888C122.859 37.392 123.219 37.028 123.675 36.796C124.131 36.564 124.647 36.448 125.223 36.448C125.543 36.448 125.855 36.484 126.159 36.556C126.471 36.62 126.723 36.7 126.915 36.796L126.591 37.672C126.399 37.6 126.175 37.532 125.919 37.468C125.663 37.404 125.423 37.372 125.199 37.372C123.935 37.372 123.303 38.184 123.303 39.808C123.303 40.584 123.455 41.18 123.759 41.596C124.071 42.004 124.531 42.208 125.139 42.208C125.483 42.208 125.791 42.172 126.063 42.1C126.335 42.028 126.583 41.94 126.807 41.836V42.772C126.591 42.884 126.351 42.968 126.087 43.024C125.831 43.088 125.519 43.12 125.151 43.12ZM130.82 36.448C131.364 36.448 131.836 36.568 132.236 36.808C132.636 37.048 132.94 37.388 133.148 37.828C133.364 38.26 133.472 38.768 133.472 39.352V39.988H129.068C129.084 40.716 129.268 41.272 129.62 41.656C129.98 42.032 130.48 42.22 131.12 42.22C131.528 42.22 131.888 42.184 132.2 42.112C132.52 42.032 132.848 41.92 133.184 41.776V42.7C132.856 42.844 132.532 42.948 132.212 43.012C131.892 43.084 131.512 43.12 131.072 43.12C130.456 43.12 129.916 42.996 129.452 42.748C128.988 42.5 128.624 42.132 128.36 41.644C128.104 41.156 127.976 40.552 127.976 39.832C127.976 39.128 128.092 38.524 128.324 38.02C128.564 37.516 128.896 37.128 129.32 36.856C129.752 36.584 130.252 36.448 130.82 36.448ZM130.808 37.312C130.304 37.312 129.904 37.476 129.608 37.804C129.32 38.124 129.148 38.572 129.092 39.148H132.368C132.36 38.604 132.232 38.164 131.984 37.828C131.736 37.484 131.344 37.312 130.808 37.312ZM139.298 41.224C139.298 41.848 139.066 42.32 138.602 42.64C138.138 42.96 137.514 43.12 136.73 43.12C136.282 43.12 135.894 43.084 135.566 43.012C135.246 42.94 134.962 42.84 134.714 42.712V41.752C134.97 41.88 135.278 42 135.638 42.112C136.006 42.216 136.378 42.268 136.754 42.268C137.29 42.268 137.678 42.184 137.918 42.016C138.158 41.84 138.278 41.608 138.278 41.32C138.278 41.16 138.234 41.016 138.146 40.888C138.058 40.76 137.898 40.632 137.666 40.504C137.442 40.376 137.118 40.232 136.694 40.072C136.278 39.912 135.922 39.752 135.626 39.592C135.33 39.432 135.102 39.24 134.942 39.016C134.782 38.792 134.702 38.504 134.702 38.152C134.702 37.608 134.922 37.188 135.362 36.892C135.81 36.596 136.394 36.448 137.114 36.448C137.506 36.448 137.87 36.488 138.206 36.568C138.55 36.648 138.87 36.752 139.166 36.88L138.806 37.72C138.534 37.608 138.25 37.512 137.954 37.432C137.658 37.352 137.354 37.312 137.042 37.312C136.61 37.312 136.278 37.384 136.046 37.528C135.822 37.664 135.71 37.852 135.71 38.092C135.71 38.276 135.762 38.428 135.866 38.548C135.97 38.668 136.142 38.788 136.382 38.908C136.63 39.028 136.958 39.164 137.366 39.316C137.774 39.468 138.122 39.624 138.41 39.784C138.698 39.944 138.918 40.14 139.07 40.372C139.222 40.596 139.298 40.88 139.298 41.224ZM144.824 43.12C144.184 43.12 143.596 43.012 143.06 42.796C142.524 42.58 142.056 42.276 141.656 41.884C141.264 41.484 140.96 41.016 140.744 40.48C140.528 39.944 140.42 39.356 140.42 38.716C140.42 38.076 140.528 37.488 140.744 36.952C140.96 36.416 141.264 35.952 141.656 35.56C142.056 35.16 142.524 34.852 143.06 34.636C143.596 34.42 144.184 34.312 144.824 34.312C145.432 34.312 146 34.42 146.528 34.636C147.064 34.852 147.532 35.16 147.932 35.56C148.34 35.952 148.656 36.416 148.88 36.952C149.112 37.488 149.228 38.076 149.228 38.716C149.228 39.356 149.12 39.944 148.904 40.48C148.688 41.016 148.38 41.484 147.98 41.884C147.588 42.276 147.124 42.58 146.588 42.796C146.052 43.012 145.464 43.12 144.824 43.12ZM144.824 42.484C145.336 42.484 145.816 42.392 146.264 42.208C146.712 42.024 147.108 41.764 147.452 41.428C147.796 41.084 148.064 40.684 148.256 40.228C148.448 39.772 148.544 39.268 148.544 38.716C148.544 38.196 148.452 37.708 148.268 37.252C148.084 36.796 147.824 36.396 147.488 36.052C147.16 35.708 146.768 35.44 146.312 35.248C145.864 35.048 145.368 34.948 144.824 34.948C144.104 34.948 143.46 35.112 142.892 35.44C142.332 35.76 141.892 36.204 141.572 36.772C141.252 37.34 141.092 37.988 141.092 38.716C141.092 39.236 141.184 39.724 141.368 40.18C141.552 40.636 141.808 41.036 142.136 41.38C142.472 41.724 142.868 41.996 143.324 42.196C143.78 42.388 144.28 42.484 144.824 42.484ZM143.18 41.344V36.1H144.716C145.372 36.1 145.852 36.232 146.156 36.496C146.46 36.752 146.612 37.136 146.612 37.648C146.612 38.024 146.516 38.324 146.324 38.548C146.132 38.764 145.916 38.92 145.676 39.016L147.068 41.344H146.036L144.836 39.268H144.092V41.344H143.18ZM144.092 38.524H144.692C145.004 38.524 145.248 38.448 145.424 38.296C145.6 38.136 145.688 37.928 145.688 37.672C145.688 37.392 145.608 37.188 145.448 37.06C145.288 36.932 145.032 36.868 144.68 36.868H144.092V38.524ZM157.77 35.26C156.85 35.26 156.126 35.568 155.598 36.184C155.07 36.8 154.806 37.644 154.806 38.716C154.806 39.78 155.05 40.624 155.538 41.248C156.034 41.864 156.774 42.172 157.758 42.172C158.126 42.172 158.478 42.14 158.814 42.076C159.15 42.012 159.482 41.932 159.81 41.836V42.772C159.49 42.892 159.158 42.98 158.814 43.036C158.478 43.092 158.074 43.12 157.602 43.12C156.73 43.12 156.002 42.94 155.418 42.58C154.834 42.22 154.394 41.708 154.098 41.044C153.81 40.38 153.666 39.6 153.666 38.704C153.666 37.84 153.822 37.08 154.134 36.424C154.454 35.76 154.922 35.244 155.538 34.876C156.154 34.5 156.902 34.312 157.782 34.312C158.686 34.312 159.474 34.48 160.146 34.816L159.714 35.728C159.45 35.608 159.154 35.5 158.826 35.404C158.506 35.308 158.154 35.26 157.77 35.26ZM163.972 36.46C164.756 36.46 165.336 36.632 165.712 36.976C166.088 37.32 166.276 37.868 166.276 38.62V43H165.508L165.304 42.088H165.256C164.976 42.44 164.68 42.7 164.368 42.868C164.056 43.036 163.632 43.12 163.096 43.12C162.512 43.12 162.028 42.968 161.644 42.664C161.26 42.352 161.068 41.868 161.068 41.212C161.068 40.572 161.32 40.08 161.824 39.736C162.328 39.384 163.104 39.192 164.152 39.16L165.244 39.124V38.74C165.244 38.204 165.128 37.832 164.896 37.624C164.664 37.416 164.336 37.312 163.912 37.312C163.576 37.312 163.256 37.364 162.952 37.468C162.648 37.564 162.364 37.676 162.1 37.804L161.776 37.012C162.056 36.86 162.388 36.732 162.772 36.628C163.156 36.516 163.556 36.46 163.972 36.46ZM165.232 39.856L164.284 39.892C163.484 39.924 162.928 40.052 162.616 40.276C162.312 40.5 162.16 40.816 162.16 41.224C162.16 41.584 162.268 41.848 162.484 42.016C162.708 42.184 162.992 42.268 163.336 42.268C163.872 42.268 164.32 42.12 164.68 41.824C165.048 41.52 165.232 41.056 165.232 40.432V39.856ZM169.318 43H168.262V33.88H169.318V43ZM172.412 43H171.356V33.88H172.412V43ZM174.99 34.156C175.15 34.156 175.29 34.212 175.41 34.324C175.538 34.428 175.602 34.596 175.602 34.828C175.602 35.06 175.538 35.232 175.41 35.344C175.29 35.448 175.15 35.5 174.99 35.5C174.814 35.5 174.666 35.448 174.546 35.344C174.426 35.232 174.366 35.06 174.366 34.828C174.366 34.596 174.426 34.428 174.546 34.324C174.666 34.212 174.814 34.156 174.99 34.156ZM175.506 36.568V43H174.45V36.568H175.506ZM180.639 36.448C181.407 36.448 181.987 36.636 182.379 37.012C182.771 37.388 182.967 37.988 182.967 38.812V43H181.923V38.884C181.923 37.852 181.443 37.336 180.483 37.336C179.771 37.336 179.279 37.536 179.007 37.936C178.735 38.336 178.599 38.912 178.599 39.664V43H177.543V36.568H178.395L178.551 37.444H178.611C178.819 37.108 179.107 36.86 179.475 36.7C179.843 36.532 180.231 36.448 180.639 36.448ZM187.241 36.448C187.665 36.448 188.045 36.528 188.381 36.688C188.725 36.848 189.017 37.092 189.257 37.42H189.317L189.461 36.568H190.301V43.108C190.301 44.028 190.065 44.72 189.593 45.184C189.129 45.648 188.405 45.88 187.421 45.88C186.477 45.88 185.705 45.744 185.105 45.472V44.5C185.737 44.836 186.529 45.004 187.481 45.004C188.033 45.004 188.465 44.84 188.777 44.512C189.097 44.192 189.257 43.752 189.257 43.192V42.94C189.257 42.844 189.261 42.708 189.269 42.532C189.277 42.348 189.285 42.22 189.293 42.148H189.245C188.813 42.796 188.149 43.12 187.253 43.12C186.421 43.12 185.769 42.828 185.297 42.244C184.833 41.66 184.601 40.844 184.601 39.796C184.601 38.772 184.833 37.96 185.297 37.36C185.769 36.752 186.417 36.448 187.241 36.448ZM187.385 37.336C186.849 37.336 186.433 37.552 186.137 37.984C185.841 38.408 185.693 39.016 185.693 39.808C185.693 40.6 185.837 41.208 186.125 41.632C186.413 42.048 186.841 42.256 187.409 42.256C188.057 42.256 188.529 42.084 188.825 41.74C189.121 41.388 189.269 40.824 189.269 40.048V39.796C189.269 38.924 189.117 38.296 188.813 37.912C188.509 37.528 188.033 37.336 187.385 37.336ZM200.717 42.988L199.613 39.364C199.509 39.036 199.417 38.716 199.337 38.404C199.257 38.092 199.201 37.844 199.169 37.66H199.121C199.089 37.844 199.037 38.092 198.965 38.404C198.893 38.716 198.801 39.04 198.689 39.376L197.537 42.988H196.337L194.573 36.556H195.665L196.553 39.988C196.641 40.332 196.725 40.68 196.805 41.032C196.885 41.384 196.941 41.676 196.973 41.908H197.021C197.045 41.772 197.081 41.604 197.129 41.404C197.177 41.204 197.229 40.996 197.285 40.78C197.341 40.556 197.397 40.356 197.453 40.18L198.593 36.556H199.745L200.849 40.18C200.929 40.46 201.013 40.76 201.101 41.08C201.189 41.4 201.249 41.672 201.281 41.896H201.329C201.353 41.696 201.405 41.42 201.485 41.068C201.573 40.716 201.665 40.356 201.761 39.988L202.661 36.556H203.741L201.953 42.988H200.717ZM205.435 34.156C205.595 34.156 205.735 34.212 205.855 34.324C205.983 34.428 206.047 34.596 206.047 34.828C206.047 35.06 205.983 35.232 205.855 35.344C205.735 35.448 205.595 35.5 205.435 35.5C205.259 35.5 205.111 35.448 204.991 35.344C204.871 35.232 204.811 35.06 204.811 34.828C204.811 34.596 204.871 34.428 204.991 34.324C205.111 34.212 205.259 34.156 205.435 34.156ZM205.951 36.568V43H204.895V36.568H205.951ZM210.137 42.256C210.297 42.256 210.461 42.244 210.629 42.22C210.797 42.196 210.933 42.164 211.037 42.124V42.928C210.925 42.984 210.765 43.028 210.557 43.06C210.349 43.1 210.149 43.12 209.957 43.12C209.621 43.12 209.309 43.064 209.021 42.952C208.741 42.832 208.513 42.628 208.337 42.34C208.161 42.052 208.073 41.648 208.073 41.128V37.384H207.161V36.88L208.085 36.46L208.505 35.092H209.129V36.568H210.989V37.384H209.129V41.104C209.129 41.496 209.221 41.788 209.405 41.98C209.597 42.164 209.841 42.256 210.137 42.256ZM213.381 33.88V36.556C213.381 36.876 213.361 37.176 213.321 37.456H213.393C213.601 37.128 213.881 36.88 214.233 36.712C214.593 36.544 214.981 36.46 215.397 36.46C216.173 36.46 216.757 36.648 217.149 37.024C217.549 37.392 217.749 37.988 217.749 38.812V43H216.705V38.884C216.705 37.852 216.225 37.336 215.265 37.336C214.545 37.336 214.049 37.54 213.777 37.948C213.513 38.348 213.381 38.924 213.381 39.676V43H212.325V33.88H213.381ZM225.008 42.256C225.168 42.256 225.332 42.244 225.5 42.22C225.668 42.196 225.804 42.164 225.908 42.124V42.928C225.796 42.984 225.636 43.028 225.428 43.06C225.22 43.1 225.02 43.12 224.828 43.12C224.492 43.12 224.18 43.064 223.892 42.952C223.612 42.832 223.384 42.628 223.208 42.34C223.032 42.052 222.944 41.648 222.944 41.128V37.384H222.032V36.88L222.956 36.46L223.376 35.092H224V36.568H225.86V37.384H224V41.104C224 41.496 224.092 41.788 224.276 41.98C224.468 42.164 224.712 42.256 225.008 42.256ZM228.252 33.88V36.556C228.252 36.876 228.232 37.176 228.192 37.456H228.264C228.472 37.128 228.752 36.88 229.104 36.712C229.464 36.544 229.852 36.46 230.268 36.46C231.044 36.46 231.628 36.648 232.02 37.024C232.42 37.392 232.62 37.988 232.62 38.812V43H231.576V38.884C231.576 37.852 231.096 37.336 230.136 37.336C229.416 37.336 228.92 37.54 228.648 37.948C228.384 38.348 228.252 38.924 228.252 39.676V43H227.196V33.88H228.252ZM237.098 36.448C237.642 36.448 238.114 36.568 238.514 36.808C238.914 37.048 239.218 37.388 239.426 37.828C239.642 38.26 239.75 38.768 239.75 39.352V39.988H235.346C235.362 40.716 235.546 41.272 235.898 41.656C236.258 42.032 236.758 42.22 237.398 42.22C237.806 42.22 238.166 42.184 238.478 42.112C238.798 42.032 239.126 41.92 239.462 41.776V42.7C239.134 42.844 238.81 42.948 238.49 43.012C238.17 43.084 237.79 43.12 237.35 43.12C236.734 43.12 236.194 42.996 235.73 42.748C235.266 42.5 234.902 42.132 234.638 41.644C234.382 41.156 234.254 40.552 234.254 39.832C234.254 39.128 234.37 38.524 234.602 38.02C234.842 37.516 235.174 37.128 235.598 36.856C236.03 36.584 236.53 36.448 237.098 36.448ZM237.086 37.312C236.582 37.312 236.182 37.476 235.886 37.804C235.598 38.124 235.426 38.572 235.37 39.148H238.646C238.638 38.604 238.51 38.164 238.262 37.828C238.014 37.484 237.622 37.312 237.086 37.312ZM247.468 37.384H245.848V43H244.792V37.384H243.664V36.892L244.792 36.532V36.16C244.792 35.328 244.972 34.732 245.332 34.372C245.7 34.004 246.216 33.82 246.88 33.82C247.128 33.82 247.36 33.844 247.576 33.892C247.792 33.932 247.976 33.98 248.128 34.036L247.852 34.864C247.724 34.824 247.576 34.784 247.408 34.744C247.24 34.704 247.068 34.684 246.892 34.684C246.54 34.684 246.276 34.804 246.1 35.044C245.932 35.276 245.848 35.644 245.848 36.148V36.568H247.468V37.384ZM254.221 39.772C254.221 40.836 253.949 41.66 253.405 42.244C252.869 42.828 252.141 43.12 251.221 43.12C250.653 43.12 250.145 42.992 249.697 42.736C249.257 42.472 248.909 42.092 248.653 41.596C248.397 41.092 248.269 40.484 248.269 39.772C248.269 38.708 248.533 37.888 249.061 37.312C249.597 36.736 250.329 36.448 251.257 36.448C251.833 36.448 252.345 36.58 252.793 36.844C253.241 37.1 253.589 37.476 253.837 37.972C254.093 38.46 254.221 39.06 254.221 39.772ZM249.361 39.772C249.361 40.532 249.509 41.136 249.805 41.584C250.109 42.024 250.589 42.244 251.245 42.244C251.893 42.244 252.369 42.024 252.673 41.584C252.977 41.136 253.129 40.532 253.129 39.772C253.129 39.012 252.977 38.416 252.673 37.984C252.369 37.552 251.889 37.336 251.233 37.336C250.577 37.336 250.101 37.552 249.805 37.984C249.509 38.416 249.361 39.012 249.361 39.772ZM256.951 43H255.895V33.88H256.951V43ZM260.045 43H258.989V33.88H260.045V43ZM267.674 39.772C267.674 40.836 267.403 41.66 266.859 42.244C266.323 42.828 265.595 43.12 264.675 43.12C264.107 43.12 263.599 42.992 263.151 42.736C262.711 42.472 262.363 42.092 262.107 41.596C261.851 41.092 261.723 40.484 261.723 39.772C261.723 38.708 261.987 37.888 262.515 37.312C263.051 36.736 263.783 36.448 264.711 36.448C265.287 36.448 265.799 36.58 266.247 36.844C266.695 37.1 267.043 37.476 267.291 37.972C267.547 38.46 267.674 39.06 267.674 39.772ZM262.815 39.772C262.815 40.532 262.963 41.136 263.259 41.584C263.563 42.024 264.043 42.244 264.699 42.244C265.347 42.244 265.823 42.024 266.127 41.584C266.431 41.136 266.583 40.532 266.583 39.772C266.583 39.012 266.431 38.416 266.127 37.984C265.823 37.552 265.343 37.336 264.687 37.336C264.031 37.336 263.555 37.552 263.259 37.984C262.963 38.416 262.815 39.012 262.815 39.772ZM274.37 42.988L273.266 39.364C273.162 39.036 273.07 38.716 272.99 38.404C272.91 38.092 272.854 37.844 272.822 37.66H272.774C272.742 37.844 272.69 38.092 272.618 38.404C272.546 38.716 272.454 39.04 272.342 39.376L271.19 42.988H269.99L268.226 36.556H269.318L270.206 39.988C270.294 40.332 270.378 40.68 270.458 41.032C270.538 41.384 270.594 41.676 270.626 41.908H270.674C270.698 41.772 270.734 41.604 270.782 41.404C270.83 41.204 270.882 40.996 270.938 40.78C270.994 40.556 271.05 40.356 271.106 40.18L272.246 36.556H273.398L274.502 40.18C274.582 40.46 274.666 40.76 274.754 41.08C274.842 41.4 274.902 41.672 274.934 41.896H274.982C275.006 41.696 275.058 41.42 275.138 41.068C275.226 40.716 275.318 40.356 275.414 39.988L276.314 36.556H277.394L275.606 42.988H274.37ZM279.087 34.156C279.247 34.156 279.387 34.212 279.507 34.324C279.635 34.428 279.699 34.596 279.699 34.828C279.699 35.06 279.635 35.232 279.507 35.344C279.387 35.448 279.247 35.5 279.087 35.5C278.911 35.5 278.763 35.448 278.643 35.344C278.523 35.232 278.463 35.06 278.463 34.828C278.463 34.596 278.523 34.428 278.643 34.324C278.763 34.212 278.911 34.156 279.087 34.156ZM279.603 36.568V43H278.547V36.568H279.603ZM284.737 36.448C285.505 36.448 286.085 36.636 286.477 37.012C286.869 37.388 287.065 37.988 287.065 38.812V43H286.021V38.884C286.021 37.852 285.541 37.336 284.581 37.336C283.869 37.336 283.377 37.536 283.105 37.936C282.833 38.336 282.697 38.912 282.697 39.664V43H281.641V36.568H282.493L282.649 37.444H282.709C282.917 37.108 283.205 36.86 283.573 36.7C283.941 36.532 284.329 36.448 284.737 36.448ZM291.339 36.448C291.763 36.448 292.143 36.528 292.479 36.688C292.823 36.848 293.115 37.092 293.355 37.42H293.415L293.559 36.568H294.399V43.108C294.399 44.028 294.163 44.72 293.691 45.184C293.227 45.648 292.503 45.88 291.519 45.88C290.575 45.88 289.803 45.744 289.203 45.472V44.5C289.835 44.836 290.627 45.004 291.579 45.004C292.131 45.004 292.563 44.84 292.875 44.512C293.195 44.192 293.355 43.752 293.355 43.192V42.94C293.355 42.844 293.359 42.708 293.367 42.532C293.375 42.348 293.383 42.22 293.391 42.148H293.343C292.911 42.796 292.247 43.12 291.351 43.12C290.519 43.12 289.867 42.828 289.395 42.244C288.931 41.66 288.699 40.844 288.699 39.796C288.699 38.772 288.931 37.96 289.395 37.36C289.867 36.752 290.515 36.448 291.339 36.448ZM291.483 37.336C290.947 37.336 290.531 37.552 290.235 37.984C289.939 38.408 289.791 39.016 289.791 39.808C289.791 40.6 289.935 41.208 290.223 41.632C290.511 42.048 290.939 42.256 291.507 42.256C292.155 42.256 292.627 42.084 292.923 41.74C293.219 41.388 293.367 40.824 293.367 40.048V39.796C293.367 38.924 293.215 38.296 292.911 37.912C292.607 37.528 292.131 37.336 291.483 37.336ZM301.995 36.46C302.779 36.46 303.359 36.632 303.735 36.976C304.111 37.32 304.299 37.868 304.299 38.62V43H303.531L303.327 42.088H303.279C302.999 42.44 302.703 42.7 302.391 42.868C302.079 43.036 301.655 43.12 301.119 43.12C300.535 43.12 300.051 42.968 299.667 42.664C299.283 42.352 299.091 41.868 299.091 41.212C299.091 40.572 299.343 40.08 299.847 39.736C300.351 39.384 301.127 39.192 302.175 39.16L303.267 39.124V38.74C303.267 38.204 303.151 37.832 302.919 37.624C302.687 37.416 302.359 37.312 301.935 37.312C301.599 37.312 301.279 37.364 300.975 37.468C300.671 37.564 300.387 37.676 300.123 37.804L299.799 37.012C300.079 36.86 300.411 36.732 300.795 36.628C301.179 36.516 301.579 36.46 301.995 36.46ZM303.255 39.856L302.307 39.892C301.507 39.924 300.951 40.052 300.639 40.276C300.335 40.5 300.183 40.816 300.183 41.224C300.183 41.584 300.291 41.848 300.507 42.016C300.731 42.184 301.015 42.268 301.359 42.268C301.895 42.268 302.343 42.12 302.703 41.824C303.071 41.52 303.255 41.056 303.255 40.432V39.856ZM309.346 36.448C310.138 36.448 310.774 36.724 311.254 37.276C311.742 37.828 311.986 38.66 311.986 39.772C311.986 40.868 311.742 41.7 311.254 42.268C310.774 42.836 310.134 43.12 309.334 43.12C308.838 43.12 308.426 43.028 308.098 42.844C307.778 42.66 307.526 42.44 307.342 42.184H307.27C307.278 42.32 307.29 42.492 307.306 42.7C307.33 42.908 307.342 43.088 307.342 43.24V45.88H306.286V36.568H307.15L307.294 37.444H307.342C307.534 37.164 307.786 36.928 308.098 36.736C308.41 36.544 308.826 36.448 309.346 36.448ZM309.154 37.336C308.498 37.336 308.034 37.52 307.762 37.888C307.49 38.256 307.35 38.816 307.342 39.568V39.772C307.342 40.564 307.47 41.176 307.726 41.608C307.99 42.032 308.474 42.244 309.178 42.244C309.562 42.244 309.882 42.14 310.138 41.932C310.394 41.716 310.582 41.42 310.702 41.044C310.83 40.668 310.894 40.24 310.894 39.76C310.894 39.024 310.75 38.436 310.462 37.996C310.182 37.556 309.746 37.336 309.154 37.336ZM316.728 36.448C317.52 36.448 318.156 36.724 318.636 37.276C319.124 37.828 319.368 38.66 319.368 39.772C319.368 40.868 319.124 41.7 318.636 42.268C318.156 42.836 317.516 43.12 316.716 43.12C316.22 43.12 315.808 43.028 315.48 42.844C315.16 42.66 314.908 42.44 314.724 42.184H314.652C314.66 42.32 314.672 42.492 314.688 42.7C314.712 42.908 314.724 43.088 314.724 43.24V45.88H313.668V36.568H314.532L314.676 37.444H314.724C314.916 37.164 315.168 36.928 315.48 36.736C315.792 36.544 316.208 36.448 316.728 36.448ZM316.536 37.336C315.88 37.336 315.416 37.52 315.144 37.888C314.872 38.256 314.732 38.816 314.724 39.568V39.772C314.724 40.564 314.852 41.176 315.108 41.608C315.372 42.032 315.856 42.244 316.56 42.244C316.944 42.244 317.264 42.14 317.52 41.932C317.776 41.716 317.964 41.42 318.084 41.044C318.212 40.668 318.276 40.24 318.276 39.76C318.276 39.024 318.132 38.436 317.844 37.996C317.564 37.556 317.128 37.336 316.536 37.336ZM322.107 43H321.051V33.88H322.107V43ZM324.685 34.156C324.845 34.156 324.985 34.212 325.105 34.324C325.233 34.428 325.297 34.596 325.297 34.828C325.297 35.06 325.233 35.232 325.105 35.344C324.985 35.448 324.845 35.5 324.685 35.5C324.509 35.5 324.361 35.448 324.241 35.344C324.121 35.232 324.061 35.06 324.061 34.828C324.061 34.596 324.121 34.428 324.241 34.324C324.361 34.212 324.509 34.156 324.685 34.156ZM325.201 36.568V43H324.145V36.568H325.201ZM329.819 43.12C329.243 43.12 328.735 43.004 328.295 42.772C327.855 42.54 327.507 42.18 327.251 41.692C327.003 41.204 326.879 40.58 326.879 39.82C326.879 39.028 327.007 38.384 327.263 37.888C327.527 37.392 327.887 37.028 328.343 36.796C328.799 36.564 329.315 36.448 329.891 36.448C330.211 36.448 330.523 36.484 330.827 36.556C331.139 36.62 331.391 36.7 331.583 36.796L331.259 37.672C331.067 37.6 330.843 37.532 330.587 37.468C330.331 37.404 330.091 37.372 329.867 37.372C328.603 37.372 327.971 38.184 327.971 39.808C327.971 40.584 328.123 41.18 328.427 41.596C328.739 42.004 329.199 42.208 329.807 42.208C330.151 42.208 330.459 42.172 330.731 42.1C331.003 42.028 331.251 41.94 331.475 41.836V42.772C331.259 42.884 331.019 42.968 330.755 43.024C330.499 43.088 330.187 43.12 329.819 43.12ZM335.44 36.46C336.224 36.46 336.804 36.632 337.18 36.976C337.556 37.32 337.744 37.868 337.744 38.62V43H336.976L336.772 42.088H336.724C336.444 42.44 336.148 42.7 335.836 42.868C335.524 43.036 335.1 43.12 334.564 43.12C333.98 43.12 333.496 42.968 333.112 42.664C332.728 42.352 332.536 41.868 332.536 41.212C332.536 40.572 332.788 40.08 333.292 39.736C333.796 39.384 334.572 39.192 335.62 39.16L336.712 39.124V38.74C336.712 38.204 336.596 37.832 336.364 37.624C336.132 37.416 335.804 37.312 335.38 37.312C335.044 37.312 334.724 37.364 334.42 37.468C334.116 37.564 333.832 37.676 333.568 37.804L333.244 37.012C333.524 36.86 333.856 36.732 334.24 36.628C334.624 36.516 335.024 36.46 335.44 36.46ZM336.7 39.856L335.752 39.892C334.952 39.924 334.396 40.052 334.084 40.276C333.78 40.5 333.628 40.816 333.628 41.224C333.628 41.584 333.736 41.848 333.952 42.016C334.176 42.184 334.46 42.268 334.804 42.268C335.34 42.268 335.788 42.12 336.148 41.824C336.516 41.52 336.7 41.056 336.7 40.432V39.856ZM341.879 42.256C342.039 42.256 342.203 42.244 342.371 42.22C342.539 42.196 342.675 42.164 342.779 42.124V42.928C342.667 42.984 342.507 43.028 342.299 43.06C342.091 43.1 341.891 43.12 341.699 43.12C341.363 43.12 341.051 43.064 340.763 42.952C340.483 42.832 340.255 42.628 340.079 42.34C339.903 42.052 339.815 41.648 339.815 41.128V37.384H338.903V36.88L339.827 36.46L340.247 35.092H340.871V36.568H342.731V37.384H340.871V41.104C340.871 41.496 340.963 41.788 341.147 41.98C341.339 42.164 341.583 42.256 341.879 42.256ZM344.607 34.156C344.767 34.156 344.907 34.212 345.027 34.324C345.155 34.428 345.219 34.596 345.219 34.828C345.219 35.06 345.155 35.232 345.027 35.344C344.907 35.448 344.767 35.5 344.607 35.5C344.431 35.5 344.283 35.448 344.163 35.344C344.043 35.232 343.983 35.06 343.983 34.828C343.983 34.596 344.043 34.428 344.163 34.324C344.283 34.212 344.431 34.156 344.607 34.156ZM345.123 36.568V43H344.067V36.568H345.123ZM352.753 39.772C352.753 40.836 352.481 41.66 351.937 42.244C351.401 42.828 350.673 43.12 349.753 43.12C349.185 43.12 348.677 42.992 348.229 42.736C347.789 42.472 347.441 42.092 347.185 41.596C346.929 41.092 346.801 40.484 346.801 39.772C346.801 38.708 347.065 37.888 347.593 37.312C348.129 36.736 348.861 36.448 349.789 36.448C350.365 36.448 350.877 36.58 351.325 36.844C351.773 37.1 352.121 37.476 352.369 37.972C352.625 38.46 352.753 39.06 352.753 39.772ZM347.893 39.772C347.893 40.532 348.041 41.136 348.337 41.584C348.641 42.024 349.121 42.244 349.777 42.244C350.425 42.244 350.901 42.024 351.205 41.584C351.509 41.136 351.661 40.532 351.661 39.772C351.661 39.012 351.509 38.416 351.205 37.984C350.901 37.552 350.421 37.336 349.765 37.336C349.109 37.336 348.633 37.552 348.337 37.984C348.041 38.416 347.893 39.012 347.893 39.772ZM357.522 36.448C358.29 36.448 358.87 36.636 359.262 37.012C359.654 37.388 359.85 37.988 359.85 38.812V43H358.806V38.884C358.806 37.852 358.326 37.336 357.366 37.336C356.654 37.336 356.162 37.536 355.89 37.936C355.618 38.336 355.482 38.912 355.482 39.664V43H354.426V36.568H355.278L355.434 37.444H355.494C355.702 37.108 355.99 36.86 356.358 36.7C356.726 36.532 357.114 36.448 357.522 36.448Z" fill="black"/>
<circle cx="48" cy="64" r="7.5" fill="white" stroke="#1B77AF"/>
<path d="M73.282 69H71.812L66.464 60.698H66.408C66.4267 61.0247 66.45 61.4307 66.478 61.916C66.506 62.4013 66.52 62.9007 66.52 63.414V69H65.358V59.004H66.814L72.148 67.278H72.204C72.1947 67.1287 72.1807 66.9047 72.162 66.606C72.1527 66.3073 72.1387 65.9853 72.12 65.64C72.1107 65.2853 72.106 64.954 72.106 64.646V59.004H73.282V69ZM82.3507 65.234C82.3507 66.4753 82.0334 67.4367 81.3987 68.118C80.7734 68.7993 79.9241 69.14 78.8507 69.14C78.1881 69.14 77.5954 68.9907 77.0727 68.692C76.5594 68.384 76.1534 67.9407 75.8547 67.362C75.5561 66.774 75.4067 66.0647 75.4067 65.234C75.4067 63.9927 75.7147 63.036 76.3307 62.364C76.9561 61.692 77.8101 61.356 78.8927 61.356C79.5647 61.356 80.1621 61.51 80.6847 61.818C81.2074 62.1167 81.6134 62.5553 81.9027 63.134C82.2014 63.7033 82.3507 64.4033 82.3507 65.234ZM76.6807 65.234C76.6807 66.1207 76.8534 66.8253 77.1987 67.348C77.5534 67.8613 78.1134 68.118 78.8787 68.118C79.6347 68.118 80.1901 67.8613 80.5447 67.348C80.8994 66.8253 81.0767 66.1207 81.0767 65.234C81.0767 64.3473 80.8994 63.652 80.5447 63.148C80.1901 62.644 79.6301 62.392 78.8647 62.392C78.0994 62.392 77.5441 62.644 77.1987 63.148C76.8534 63.652 76.6807 64.3473 76.6807 65.234ZM87.9153 61.356C88.8113 61.356 89.4879 61.5753 89.9453 62.014C90.4026 62.4527 90.6313 63.1527 90.6313 64.114V69H89.4133V64.198C89.4133 62.994 88.8533 62.392 87.7333 62.392C86.9026 62.392 86.3286 62.6253 86.0113 63.092C85.6939 63.5587 85.5353 64.2307 85.5353 65.108V69H84.3033V61.496H85.2973L85.4793 62.518H85.5493C85.7919 62.126 86.1279 61.8367 86.5573 61.65C86.9866 61.454 87.4393 61.356 87.9153 61.356ZM95.8556 61.356C96.4902 61.356 97.0409 61.496 97.5076 61.776C97.9742 62.056 98.3289 62.4527 98.5716 62.966C98.8236 63.47 98.9496 64.0627 98.9496 64.744V65.486H93.8116C93.8302 66.3353 94.0449 66.984 94.4556 67.432C94.8756 67.8707 95.4589 68.09 96.2056 68.09C96.6816 68.09 97.1016 68.048 97.4656 67.964C97.8389 67.8707 98.2216 67.74 98.6136 67.572V68.65C98.2309 68.818 97.8529 68.9393 97.4796 69.014C97.1062 69.098 96.6629 69.14 96.1496 69.14C95.4309 69.14 94.8009 68.9953 94.2596 68.706C93.7182 68.4167 93.2936 67.9873 92.9856 67.418C92.6869 66.8487 92.5376 66.144 92.5376 65.304C92.5376 64.4827 92.6729 63.778 92.9436 63.19C93.2236 62.602 93.6109 62.1493 94.1056 61.832C94.6096 61.5147 95.1929 61.356 95.8556 61.356ZM95.8416 62.364C95.2536 62.364 94.7869 62.5553 94.4416 62.938C94.1056 63.3113 93.9049 63.834 93.8396 64.506H97.6616C97.6522 63.8713 97.5029 63.358 97.2136 62.966C96.9242 62.5647 96.4669 62.364 95.8416 62.364Z" fill="black"/>
<circle cx="48" cy="92" r="7.5" fill="white" stroke="#1B77AF"/>
<circle cx="48" cy="92" r="5" fill="#1B77AF"/>
<path d="M71.63 97L70.426 93.906H66.464L65.274 97H64L67.906 86.962H69.04L72.932 97H71.63ZM70.048 92.786L68.928 89.762C68.9 89.6873 68.8533 89.552 68.788 89.356C68.7227 89.16 68.6573 88.9593 68.592 88.754C68.536 88.5393 68.4893 88.376 68.452 88.264C68.3773 88.5533 68.298 88.838 68.214 89.118C68.1393 89.3887 68.074 89.6033 68.018 89.762L66.884 92.786H70.048ZM75.7834 97L72.9414 89.496H74.2574L75.8534 93.92C75.9281 94.1253 76.0074 94.354 76.0914 94.606C76.1754 94.858 76.2501 95.1007 76.3154 95.334C76.3807 95.5673 76.4274 95.7587 76.4554 95.908H76.5114C76.5394 95.7587 76.5907 95.5673 76.6654 95.334C76.7401 95.0913 76.8194 94.8487 76.9034 94.606C76.9874 94.354 77.0667 94.1253 77.1414 93.92L78.7374 89.496H80.0534L77.1974 97H75.7834ZM84.0828 89.37C84.9974 89.37 85.6741 89.5707 86.1128 89.972C86.5514 90.3733 86.7708 91.0127 86.7708 91.89V97H85.8748L85.6368 95.936H85.5808C85.2541 96.3467 84.9088 96.65 84.5448 96.846C84.1808 97.042 83.6861 97.14 83.0608 97.14C82.3794 97.14 81.8148 96.9627 81.3668 96.608C80.9188 96.244 80.6948 95.6793 80.6948 94.914C80.6948 94.1673 80.9888 93.5933 81.5768 93.192C82.1648 92.7813 83.0701 92.5573 84.2928 92.52L85.5668 92.478V92.03C85.5668 91.4047 85.4314 90.9707 85.1608 90.728C84.8901 90.4853 84.5074 90.364 84.0128 90.364C83.6208 90.364 83.2474 90.4247 82.8928 90.546C82.5381 90.658 82.2068 90.7887 81.8988 90.938L81.5208 90.014C81.8474 89.8367 82.2348 89.6873 82.6828 89.566C83.1308 89.4353 83.5974 89.37 84.0828 89.37ZM85.5528 93.332L84.4468 93.374C83.5134 93.4113 82.8648 93.5607 82.5008 93.822C82.1461 94.0833 81.9688 94.452 81.9688 94.928C81.9688 95.348 82.0948 95.656 82.3468 95.852C82.6081 96.048 82.9394 96.146 83.3408 96.146C83.9661 96.146 84.4888 95.9733 84.9088 95.628C85.3381 95.2733 85.5528 94.732 85.5528 94.004V93.332ZM87.9124 89.496H89.2284L90.8524 93.766C90.9924 94.1487 91.1184 94.508 91.2304 94.844C91.3424 95.18 91.4264 95.502 91.4824 95.81H91.5384C91.5944 95.5767 91.6831 95.2733 91.8044 94.9C91.9258 94.5173 92.0518 94.1347 92.1824 93.752L93.7084 89.496H95.0384L91.8044 98.036C91.5338 98.7453 91.1931 99.31 90.7824 99.73C90.3718 100.15 89.8024 100.36 89.0744 100.36C88.8504 100.36 88.6544 100.346 88.4864 100.318C88.3184 100.299 88.1738 100.276 88.0524 100.248V99.268C88.1551 99.2867 88.2764 99.3053 88.4164 99.324C88.5658 99.3427 88.7198 99.352 88.8784 99.352C89.3078 99.352 89.6531 99.2307 89.9144 98.988C90.1758 98.7453 90.3858 98.4233 90.5444 98.022L90.9364 97.028L87.9124 89.496ZM99.0672 89.37C99.9818 89.37 100.658 89.5707 101.097 89.972C101.536 90.3733 101.755 91.0127 101.755 91.89V97H100.859L100.621 95.936H100.565C100.238 96.3467 99.8932 96.65 99.5292 96.846C99.1652 97.042 98.6705 97.14 98.0452 97.14C97.3638 97.14 96.7992 96.9627 96.3512 96.608C95.9032 96.244 95.6792 95.6793 95.6792 94.914C95.6792 94.1673 95.9732 93.5933 96.5612 93.192C97.1492 92.7813 98.0545 92.5573 99.2772 92.52L100.551 92.478V92.03C100.551 91.4047 100.416 90.9707 100.145 90.728C99.8745 90.4853 99.4918 90.364 98.9972 90.364C98.6052 90.364 98.2318 90.4247 97.8772 90.546C97.5225 90.658 97.1912 90.7887 96.8832 90.938L96.5052 90.014C96.8318 89.8367 97.2192 89.6873 97.6672 89.566C98.1152 89.4353 98.5818 89.37 99.0672 89.37ZM100.537 93.332L99.4312 93.374C98.4978 93.4113 97.8492 93.5607 97.4852 93.822C97.1305 94.0833 96.9532 94.452 96.9532 94.928C96.9532 95.348 97.0792 95.656 97.3312 95.852C97.5925 96.048 97.9238 96.146 98.3252 96.146C98.9505 96.146 99.4732 95.9733 99.8932 95.628C100.322 95.2733 100.537 94.732 100.537 94.004V93.332ZM113.548 94.326C113.548 95.2127 113.226 95.9033 112.582 96.398C111.938 96.8927 111.07 97.14 109.978 97.14C109.418 97.14 108.9 97.098 108.424 97.014C107.948 96.93 107.551 96.8133 107.234 96.664V95.46C107.57 95.6093 107.985 95.7447 108.48 95.866C108.984 95.9873 109.502 96.048 110.034 96.048C110.771 96.048 111.331 95.9033 111.714 95.614C112.096 95.3247 112.288 94.9327 112.288 94.438C112.288 94.1113 112.218 93.836 112.078 93.612C111.938 93.388 111.695 93.1827 111.35 92.996C111.004 92.8093 110.533 92.604 109.936 92.38C109.077 92.072 108.433 91.694 108.004 91.246C107.574 90.798 107.36 90.1867 107.36 89.412C107.36 88.8893 107.495 88.4367 107.766 88.054C108.036 87.6713 108.41 87.3773 108.886 87.172C109.362 86.9667 109.917 86.864 110.552 86.864C111.093 86.864 111.592 86.9153 112.05 87.018C112.507 87.1207 112.927 87.256 113.31 87.424L112.918 88.502C112.572 88.3527 112.194 88.2267 111.784 88.124C111.373 88.0213 110.953 87.97 110.524 87.97C109.898 87.97 109.427 88.1053 109.11 88.376C108.792 88.6373 108.634 88.9873 108.634 89.426C108.634 89.762 108.704 90.042 108.844 90.266C108.984 90.49 109.212 90.6953 109.53 90.882C109.847 91.0593 110.276 91.246 110.818 91.442C111.406 91.6567 111.9 91.89 112.302 92.142C112.712 92.3847 113.02 92.6787 113.226 93.024C113.44 93.3693 113.548 93.8033 113.548 94.326ZM118.963 89.356C119.887 89.356 120.629 89.678 121.189 90.322C121.758 90.966 122.043 91.9367 122.043 93.234C122.043 94.5127 121.758 95.4833 121.189 96.146C120.629 96.8087 119.882 97.14 118.949 97.14C118.37 97.14 117.89 97.0327 117.507 96.818C117.134 96.6033 116.84 96.3467 116.625 96.048H116.541C116.55 96.2067 116.564 96.4073 116.583 96.65C116.611 96.8927 116.625 97.1027 116.625 97.28V100.36H115.393V89.496H116.401L116.569 90.518H116.625C116.849 90.1913 117.143 89.916 117.507 89.692C117.871 89.468 118.356 89.356 118.963 89.356ZM118.739 90.392C117.974 90.392 117.432 90.6067 117.115 91.036C116.798 91.4653 116.634 92.1187 116.625 92.996V93.234C116.625 94.158 116.774 94.872 117.073 95.376C117.381 95.8707 117.946 96.118 118.767 96.118C119.215 96.118 119.588 95.9967 119.887 95.754C120.186 95.502 120.405 95.1567 120.545 94.718C120.694 94.2793 120.769 93.78 120.769 93.22C120.769 92.3613 120.601 91.6753 120.265 91.162C119.938 90.6487 119.43 90.392 118.739 90.392ZM126.848 89.37C127.763 89.37 128.44 89.5707 128.878 89.972C129.317 90.3733 129.536 91.0127 129.536 91.89V97H128.64L128.402 95.936H128.346C128.02 96.3467 127.674 96.65 127.31 96.846C126.946 97.042 126.452 97.14 125.826 97.14C125.145 97.14 124.58 96.9627 124.132 96.608C123.684 96.244 123.46 95.6793 123.46 94.914C123.46 94.1673 123.754 93.5933 124.342 93.192C124.93 92.7813 125.836 92.5573 127.058 92.52L128.332 92.478V92.03C128.332 91.4047 128.197 90.9707 127.926 90.728C127.656 90.4853 127.273 90.364 126.778 90.364C126.386 90.364 126.013 90.4247 125.658 90.546C125.304 90.658 124.972 90.7887 124.664 90.938L124.286 90.014C124.613 89.8367 125 89.6873 125.448 89.566C125.896 89.4353 126.363 89.37 126.848 89.37ZM128.318 93.332L127.212 93.374C126.279 93.4113 125.63 93.5607 125.266 93.822C124.912 94.0833 124.734 94.452 124.734 94.928C124.734 95.348 124.86 95.656 125.112 95.852C125.374 96.048 125.705 96.146 126.106 96.146C126.732 96.146 127.254 95.9733 127.674 95.628C128.104 95.2733 128.318 94.732 128.318 94.004V93.332ZM134.864 97.14C134.192 97.14 133.599 97.0047 133.086 96.734C132.573 96.4633 132.167 96.0433 131.868 95.474C131.579 94.9047 131.434 94.1767 131.434 93.29C131.434 92.366 131.583 91.6147 131.882 91.036C132.19 90.4573 132.61 90.0327 133.142 89.762C133.674 89.4913 134.276 89.356 134.948 89.356C135.321 89.356 135.685 89.398 136.04 89.482C136.404 89.5567 136.698 89.65 136.922 89.762L136.544 90.784C136.32 90.7 136.059 90.6207 135.76 90.546C135.461 90.4713 135.181 90.434 134.92 90.434C133.445 90.434 132.708 91.3813 132.708 93.276C132.708 94.1813 132.885 94.8767 133.24 95.362C133.604 95.838 134.141 96.076 134.85 96.076C135.251 96.076 135.611 96.034 135.928 95.95C136.245 95.866 136.535 95.7633 136.796 95.642V96.734C136.544 96.8647 136.264 96.9627 135.956 97.028C135.657 97.1027 135.293 97.14 134.864 97.14ZM141.479 89.356C142.113 89.356 142.664 89.496 143.131 89.776C143.597 90.056 143.952 90.4527 144.195 90.966C144.447 91.47 144.573 92.0627 144.573 92.744V93.486H139.435C139.453 94.3353 139.668 94.984 140.079 95.432C140.499 95.8707 141.082 96.09 141.829 96.09C142.305 96.09 142.725 96.048 143.089 95.964C143.462 95.8707 143.845 95.74 144.237 95.572V96.65C143.854 96.818 143.476 96.9393 143.103 97.014C142.729 97.098 142.286 97.14 141.773 97.14C141.054 97.14 140.424 96.9953 139.883 96.706C139.341 96.4167 138.917 95.9873 138.609 95.418C138.31 94.8487 138.161 94.144 138.161 93.304C138.161 92.4827 138.296 91.778 138.567 91.19C138.847 90.602 139.234 90.1493 139.729 89.832C140.233 89.5147 140.816 89.356 141.479 89.356ZM141.465 90.364C140.877 90.364 140.41 90.5553 140.065 90.938C139.729 91.3113 139.528 91.834 139.463 92.506H143.285C143.275 91.8713 143.126 91.358 142.837 90.966C142.547 90.5647 142.09 90.364 141.465 90.364ZM151.369 94.928C151.369 95.656 151.098 96.2067 150.557 96.58C150.016 96.9533 149.288 97.14 148.373 97.14C147.85 97.14 147.398 97.098 147.015 97.014C146.642 96.93 146.31 96.8133 146.021 96.664V95.544C146.32 95.6933 146.679 95.8333 147.099 95.964C147.528 96.0853 147.962 96.146 148.401 96.146C149.026 96.146 149.479 96.048 149.759 95.852C150.039 95.6467 150.179 95.376 150.179 95.04C150.179 94.8533 150.128 94.6853 150.025 94.536C149.922 94.3867 149.736 94.2373 149.465 94.088C149.204 93.9387 148.826 93.7707 148.331 93.584C147.846 93.3973 147.43 93.2107 147.085 93.024C146.74 92.8373 146.474 92.6133 146.287 92.352C146.1 92.0907 146.007 91.7547 146.007 91.344C146.007 90.7093 146.264 90.2193 146.777 89.874C147.3 89.5287 147.981 89.356 148.821 89.356C149.278 89.356 149.703 89.4027 150.095 89.496C150.496 89.5893 150.87 89.7107 151.215 89.86L150.795 90.84C150.478 90.7093 150.146 90.5973 149.801 90.504C149.456 90.4107 149.101 90.364 148.737 90.364C148.233 90.364 147.846 90.448 147.575 90.616C147.314 90.7747 147.183 90.994 147.183 91.274C147.183 91.4887 147.244 91.666 147.365 91.806C147.486 91.946 147.687 92.086 147.967 92.226C148.256 92.366 148.639 92.5247 149.115 92.702C149.591 92.8793 149.997 93.0613 150.333 93.248C150.669 93.4347 150.926 93.6633 151.103 93.934C151.28 94.1953 151.369 94.5267 151.369 94.928ZM161.271 87.97C160.198 87.97 159.353 88.3293 158.737 89.048C158.121 89.7667 157.813 90.7513 157.813 92.002C157.813 93.2433 158.098 94.228 158.667 94.956C159.246 95.6747 160.109 96.034 161.257 96.034C161.686 96.034 162.097 95.9967 162.489 95.922C162.881 95.8473 163.268 95.754 163.651 95.642V96.734C163.278 96.874 162.89 96.9767 162.489 97.042C162.097 97.1073 161.626 97.14 161.075 97.14C160.058 97.14 159.208 96.93 158.527 96.51C157.846 96.09 157.332 95.4927 156.987 94.718C156.651 93.9433 156.483 93.0333 156.483 91.988C156.483 90.98 156.665 90.0933 157.029 89.328C157.402 88.5533 157.948 87.9513 158.667 87.522C159.386 87.0833 160.258 86.864 161.285 86.864C162.34 86.864 163.259 87.06 164.043 87.452L163.539 88.516C163.231 88.376 162.886 88.25 162.503 88.138C162.13 88.026 161.719 87.97 161.271 87.97ZM168.507 89.37C169.421 89.37 170.098 89.5707 170.537 89.972C170.975 90.3733 171.195 91.0127 171.195 91.89V97H170.299L170.061 95.936H170.005C169.678 96.3467 169.333 96.65 168.969 96.846C168.605 97.042 168.11 97.14 167.485 97.14C166.803 97.14 166.239 96.9627 165.791 96.608C165.343 96.244 165.119 95.6793 165.119 94.914C165.119 94.1673 165.413 93.5933 166.001 93.192C166.589 92.7813 167.494 92.5573 168.717 92.52L169.991 92.478V92.03C169.991 91.4047 169.855 90.9707 169.585 90.728C169.314 90.4853 168.931 90.364 168.437 90.364C168.045 90.364 167.671 90.4247 167.317 90.546C166.962 90.658 166.631 90.7887 166.323 90.938L165.945 90.014C166.271 89.8367 166.659 89.6873 167.107 89.566C167.555 89.4353 168.021 89.37 168.507 89.37ZM169.977 93.332L168.871 93.374C167.937 93.4113 167.289 93.5607 166.925 93.822C166.57 94.0833 166.393 94.452 166.393 94.928C166.393 95.348 166.519 95.656 166.771 95.852C167.032 96.048 167.363 96.146 167.765 96.146C168.39 96.146 168.913 95.9733 169.333 95.628C169.762 95.2733 169.977 94.732 169.977 94.004V93.332ZM174.744 97H173.512V86.36H174.744V97ZM178.354 97H177.122V86.36H178.354V97ZM181.361 86.682C181.548 86.682 181.711 86.7473 181.851 86.878C182 86.9993 182.075 87.1953 182.075 87.466C182.075 87.7367 182 87.9373 181.851 88.068C181.711 88.1893 181.548 88.25 181.361 88.25C181.156 88.25 180.983 88.1893 180.843 88.068C180.703 87.9373 180.633 87.7367 180.633 87.466C180.633 87.1953 180.703 86.9993 180.843 86.878C180.983 86.7473 181.156 86.682 181.361 86.682ZM181.963 89.496V97H180.731V89.496H181.963ZM187.952 89.356C188.848 89.356 189.525 89.5753 189.982 90.014C190.44 90.4527 190.668 91.1527 190.668 92.114V97H189.45V92.198C189.45 90.994 188.89 90.392 187.77 90.392C186.94 90.392 186.366 90.6253 186.048 91.092C185.731 91.5587 185.572 92.2307 185.572 93.108V97H184.34V89.496H185.334L185.516 90.518H185.586C185.829 90.126 186.165 89.8367 186.594 89.65C187.024 89.454 187.476 89.356 187.952 89.356ZM195.655 89.356C196.149 89.356 196.593 89.4493 196.985 89.636C197.386 89.8227 197.727 90.1073 198.007 90.49H198.077L198.245 89.496H199.225V97.126C199.225 98.1993 198.949 99.0067 198.399 99.548C197.857 100.089 197.013 100.36 195.865 100.36C194.763 100.36 193.863 100.201 193.163 99.884V98.75C193.9 99.142 194.824 99.338 195.935 99.338C196.579 99.338 197.083 99.1467 197.447 98.764C197.82 98.3907 198.007 97.8773 198.007 97.224V96.93C198.007 96.818 198.011 96.6593 198.021 96.454C198.03 96.2393 198.039 96.09 198.049 96.006H197.993C197.489 96.762 196.714 97.14 195.669 97.14C194.698 97.14 193.937 96.7993 193.387 96.118C192.845 95.4367 192.575 94.4847 192.575 93.262C192.575 92.0673 192.845 91.12 193.387 90.42C193.937 89.7107 194.693 89.356 195.655 89.356ZM195.823 90.392C195.197 90.392 194.712 90.644 194.367 91.148C194.021 91.6427 193.849 92.352 193.849 93.276C193.849 94.2 194.017 94.9093 194.353 95.404C194.689 95.8893 195.188 96.132 195.851 96.132C196.607 96.132 197.157 95.9313 197.503 95.53C197.848 95.1193 198.021 94.4613 198.021 93.556V93.262C198.021 92.2447 197.843 91.512 197.489 91.064C197.134 90.616 196.579 90.392 195.823 90.392Z" fill="black"/>
<path d="M69.642 107.97C68.5687 107.97 67.724 108.329 67.108 109.048C66.492 109.767 66.184 110.751 66.184 112.002C66.184 113.243 66.4687 114.228 67.038 114.956C67.6167 115.675 68.48 116.034 69.628 116.034C70.0573 116.034 70.468 115.997 70.86 115.922C71.252 115.847 71.6393 115.754 72.022 115.642V116.734C71.6487 116.874 71.2613 116.977 70.86 117.042C70.468 117.107 69.9967 117.14 69.446 117.14C68.4287 117.14 67.5793 116.93 66.898 116.51C66.2167 116.09 65.7033 115.493 65.358 114.718C65.022 113.943 64.854 113.033 64.854 111.988C64.854 110.98 65.036 110.093 65.4 109.328C65.7733 108.553 66.3193 107.951 67.038 107.522C67.7567 107.083 68.6293 106.864 69.656 106.864C70.7107 106.864 71.63 107.06 72.414 107.452L71.91 108.516C71.602 108.376 71.2567 108.25 70.874 108.138C70.5007 108.026 70.09 107.97 69.642 107.97ZM75.2677 106.36V109.482C75.2677 109.855 75.2444 110.205 75.1977 110.532H75.2817C75.5244 110.149 75.851 109.86 76.2617 109.664C76.6817 109.468 77.1344 109.37 77.6197 109.37C78.525 109.37 79.2064 109.589 79.6637 110.028C80.1304 110.457 80.3637 111.153 80.3637 112.114V117H79.1457V112.198C79.1457 110.994 78.5857 110.392 77.4657 110.392C76.6257 110.392 76.047 110.63 75.7297 111.106C75.4217 111.573 75.2677 112.245 75.2677 113.122V117H74.0357V106.36H75.2677ZM86.19 109.356C86.33 109.356 86.4793 109.365 86.638 109.384C86.7967 109.393 86.9413 109.412 87.072 109.44L86.918 110.574C86.7967 110.546 86.6613 110.523 86.512 110.504C86.3627 110.485 86.2273 110.476 86.106 110.476C85.7233 110.476 85.364 110.583 85.028 110.798C84.692 111.003 84.4213 111.297 84.216 111.68C84.02 112.053 83.922 112.492 83.922 112.996V117H82.69V109.496H83.698L83.838 110.868H83.894C84.1273 110.457 84.4353 110.103 84.818 109.804C85.21 109.505 85.6673 109.356 86.19 109.356ZM94.7238 113.234C94.7238 114.475 94.4064 115.437 93.7718 116.118C93.1464 116.799 92.2971 117.14 91.2238 117.14C90.5611 117.14 89.9684 116.991 89.4458 116.692C88.9324 116.384 88.5264 115.941 88.2278 115.362C87.9291 114.774 87.7798 114.065 87.7798 113.234C87.7798 111.993 88.0878 111.036 88.7038 110.364C89.3291 109.692 90.1831 109.356 91.2658 109.356C91.9378 109.356 92.5351 109.51 93.0578 109.818C93.5804 110.117 93.9864 110.555 94.2758 111.134C94.5744 111.703 94.7238 112.403 94.7238 113.234ZM89.0538 113.234C89.0538 114.121 89.2264 114.825 89.5718 115.348C89.9264 115.861 90.4864 116.118 91.2518 116.118C92.0078 116.118 92.5631 115.861 92.9178 115.348C93.2724 114.825 93.4498 114.121 93.4498 113.234C93.4498 112.347 93.2724 111.652 92.9178 111.148C92.5631 110.644 92.0031 110.392 91.2378 110.392C90.4724 110.392 89.9171 110.644 89.5718 111.148C89.2264 111.652 89.0538 112.347 89.0538 113.234ZM104.908 109.356C105.758 109.356 106.392 109.575 106.812 110.014C107.232 110.453 107.442 111.153 107.442 112.114V117H106.224V112.17C106.224 110.985 105.716 110.392 104.698 110.392C103.97 110.392 103.448 110.602 103.13 111.022C102.822 111.442 102.668 112.053 102.668 112.856V117H101.45V112.17C101.45 110.985 100.937 110.392 99.9103 110.392C99.1543 110.392 98.6317 110.625 98.3423 111.092C98.053 111.559 97.9083 112.231 97.9083 113.108V117H96.6763V109.496H97.6703L97.8523 110.518H97.9223C98.1557 110.126 98.4683 109.837 98.8603 109.65C99.2617 109.454 99.6863 109.356 100.134 109.356C101.31 109.356 102.076 109.776 102.43 110.616H102.5C102.752 110.187 103.093 109.869 103.522 109.664C103.952 109.459 104.414 109.356 104.908 109.356ZM112.658 109.356C113.293 109.356 113.844 109.496 114.31 109.776C114.777 110.056 115.132 110.453 115.374 110.966C115.626 111.47 115.752 112.063 115.752 112.744V113.486H110.614C110.633 114.335 110.848 114.984 111.258 115.432C111.678 115.871 112.262 116.09 113.008 116.09C113.484 116.09 113.904 116.048 114.268 115.964C114.642 115.871 115.024 115.74 115.416 115.572V116.65C115.034 116.818 114.656 116.939 114.282 117.014C113.909 117.098 113.466 117.14 112.952 117.14C112.234 117.14 111.604 116.995 111.062 116.706C110.521 116.417 110.096 115.987 109.788 115.418C109.49 114.849 109.34 114.144 109.34 113.304C109.34 112.483 109.476 111.778 109.746 111.19C110.026 110.602 110.414 110.149 110.908 109.832C111.412 109.515 111.996 109.356 112.658 109.356ZM112.644 110.364C112.056 110.364 111.59 110.555 111.244 110.938C110.908 111.311 110.708 111.834 110.642 112.506H114.464C114.455 111.871 114.306 111.358 114.016 110.966C113.727 110.565 113.27 110.364 112.644 110.364ZM127.053 117H121.467V107.004H127.053V108.11H122.727V111.232H126.801V112.324H122.727V115.894H127.053V117ZM130.857 113.164L128.267 109.496H129.667L131.599 112.324L133.517 109.496H134.903L132.313 113.164L135.043 117H133.643L131.599 114.004L129.527 117H128.141L130.857 113.164ZM138.995 116.132C139.181 116.132 139.373 116.118 139.569 116.09C139.765 116.062 139.923 116.025 140.045 115.978V116.916C139.914 116.981 139.727 117.033 139.485 117.07C139.242 117.117 139.009 117.14 138.785 117.14C138.393 117.14 138.029 117.075 137.693 116.944C137.366 116.804 137.1 116.566 136.895 116.23C136.689 115.894 136.587 115.423 136.587 114.816V110.448H135.523V109.86L136.601 109.37L137.091 107.774H137.819V109.496H139.989V110.448H137.819V114.788C137.819 115.245 137.926 115.586 138.141 115.81C138.365 116.025 138.649 116.132 138.995 116.132ZM144.445 109.356C145.08 109.356 145.631 109.496 146.097 109.776C146.564 110.056 146.919 110.453 147.161 110.966C147.413 111.47 147.539 112.063 147.539 112.744V113.486H142.401C142.42 114.335 142.635 114.984 143.045 115.432C143.465 115.871 144.049 116.09 144.795 116.09C145.271 116.09 145.691 116.048 146.055 115.964C146.429 115.871 146.811 115.74 147.203 115.572V116.65C146.821 116.818 146.443 116.939 146.069 117.014C145.696 117.098 145.253 117.14 144.739 117.14C144.021 117.14 143.391 116.995 142.849 116.706C142.308 116.417 141.883 115.987 141.575 115.418C141.277 114.849 141.127 114.144 141.127 113.304C141.127 112.483 141.263 111.778 141.533 111.19C141.813 110.602 142.201 110.149 142.695 109.832C143.199 109.515 143.783 109.356 144.445 109.356ZM144.431 110.364C143.843 110.364 143.377 110.555 143.031 110.938C142.695 111.311 142.495 111.834 142.429 112.506H146.251C146.242 111.871 146.093 111.358 145.803 110.966C145.514 110.565 145.057 110.364 144.431 110.364ZM153.062 109.356C153.958 109.356 154.634 109.575 155.092 110.014C155.549 110.453 155.778 111.153 155.778 112.114V117H154.56V112.198C154.56 110.994 154 110.392 152.88 110.392C152.049 110.392 151.475 110.625 151.158 111.092C150.84 111.559 150.682 112.231 150.682 113.108V117H149.45V109.496H150.444L150.626 110.518H150.696C150.938 110.126 151.274 109.837 151.704 109.65C152.133 109.454 152.586 109.356 153.062 109.356ZM162.99 114.928C162.99 115.656 162.719 116.207 162.178 116.58C161.637 116.953 160.909 117.14 159.994 117.14C159.471 117.14 159.019 117.098 158.636 117.014C158.263 116.93 157.931 116.813 157.642 116.664V115.544C157.941 115.693 158.3 115.833 158.72 115.964C159.149 116.085 159.583 116.146 160.022 116.146C160.647 116.146 161.1 116.048 161.38 115.852C161.66 115.647 161.8 115.376 161.8 115.04C161.8 114.853 161.749 114.685 161.646 114.536C161.543 114.387 161.357 114.237 161.086 114.088C160.825 113.939 160.447 113.771 159.952 113.584C159.467 113.397 159.051 113.211 158.706 113.024C158.361 112.837 158.095 112.613 157.908 112.352C157.721 112.091 157.628 111.755 157.628 111.344C157.628 110.709 157.885 110.219 158.398 109.874C158.921 109.529 159.602 109.356 160.442 109.356C160.899 109.356 161.324 109.403 161.716 109.496C162.117 109.589 162.491 109.711 162.836 109.86L162.416 110.84C162.099 110.709 161.767 110.597 161.422 110.504C161.077 110.411 160.722 110.364 160.358 110.364C159.854 110.364 159.467 110.448 159.196 110.616C158.935 110.775 158.804 110.994 158.804 111.274C158.804 111.489 158.865 111.666 158.986 111.806C159.107 111.946 159.308 112.086 159.588 112.226C159.877 112.366 160.26 112.525 160.736 112.702C161.212 112.879 161.618 113.061 161.954 113.248C162.29 113.435 162.547 113.663 162.724 113.934C162.901 114.195 162.99 114.527 162.99 114.928ZM165.433 106.682C165.62 106.682 165.783 106.747 165.923 106.878C166.073 106.999 166.147 107.195 166.147 107.466C166.147 107.737 166.073 107.937 165.923 108.068C165.783 108.189 165.62 108.25 165.433 108.25C165.228 108.25 165.055 108.189 164.915 108.068C164.775 107.937 164.705 107.737 164.705 107.466C164.705 107.195 164.775 106.999 164.915 106.878C165.055 106.747 165.228 106.682 165.433 106.682ZM166.035 109.496V117H164.803V109.496H166.035ZM174.937 113.234C174.937 114.475 174.619 115.437 173.985 116.118C173.359 116.799 172.51 117.14 171.437 117.14C170.774 117.14 170.181 116.991 169.659 116.692C169.145 116.384 168.739 115.941 168.441 115.362C168.142 114.774 167.993 114.065 167.993 113.234C167.993 111.993 168.301 111.036 168.917 110.364C169.542 109.692 170.396 109.356 171.479 109.356C172.151 109.356 172.748 109.51 173.271 109.818C173.793 110.117 174.199 110.555 174.489 111.134C174.787 111.703 174.937 112.403 174.937 113.234ZM169.267 113.234C169.267 114.121 169.439 114.825 169.785 115.348C170.139 115.861 170.699 116.118 171.465 116.118C172.221 116.118 172.776 115.861 173.131 115.348C173.485 114.825 173.663 114.121 173.663 113.234C173.663 112.347 173.485 111.652 173.131 111.148C172.776 110.644 172.216 110.392 171.451 110.392C170.685 110.392 170.13 110.644 169.785 111.148C169.439 111.652 169.267 112.347 169.267 113.234ZM180.501 109.356C181.397 109.356 182.074 109.575 182.531 110.014C182.989 110.453 183.217 111.153 183.217 112.114V117H181.999V112.198C181.999 110.994 181.439 110.392 180.319 110.392C179.489 110.392 178.915 110.625 178.597 111.092C178.28 111.559 178.121 112.231 178.121 113.108V117H176.889V109.496H177.883L178.065 110.518H178.135C178.378 110.126 178.714 109.837 179.143 109.65C179.573 109.454 180.025 109.356 180.501 109.356Z" fill="black"/>
<circle cx="48" cy="140" r="7.5" fill="white" stroke="#1B77AF"/>
<path d="M71.63 145L70.426 141.906H66.464L65.274 145H64L67.906 134.962H69.04L72.932 145H71.63ZM70.048 140.786L68.928 137.762C68.9 137.687 68.8533 137.552 68.788 137.356C68.7227 137.16 68.6573 136.959 68.592 136.754C68.536 136.539 68.4893 136.376 68.452 136.264C68.3773 136.553 68.298 136.838 68.214 137.118C68.1393 137.389 68.074 137.603 68.018 137.762L66.884 140.786H70.048ZM75.7834 145L72.9414 137.496H74.2574L75.8534 141.92C75.9281 142.125 76.0074 142.354 76.0914 142.606C76.1754 142.858 76.2501 143.101 76.3154 143.334C76.3807 143.567 76.4274 143.759 76.4554 143.908H76.5114C76.5394 143.759 76.5907 143.567 76.6654 143.334C76.7401 143.091 76.8194 142.849 76.9034 142.606C76.9874 142.354 77.0667 142.125 77.1414 141.92L78.7374 137.496H80.0534L77.1974 145H75.7834ZM84.0828 137.37C84.9974 137.37 85.6741 137.571 86.1128 137.972C86.5514 138.373 86.7708 139.013 86.7708 139.89V145H85.8748L85.6368 143.936H85.5808C85.2541 144.347 84.9088 144.65 84.5448 144.846C84.1808 145.042 83.6861 145.14 83.0608 145.14C82.3794 145.14 81.8148 144.963 81.3668 144.608C80.9188 144.244 80.6948 143.679 80.6948 142.914C80.6948 142.167 80.9888 141.593 81.5768 141.192C82.1648 140.781 83.0701 140.557 84.2928 140.52L85.5668 140.478V140.03C85.5668 139.405 85.4314 138.971 85.1608 138.728C84.8901 138.485 84.5074 138.364 84.0128 138.364C83.6208 138.364 83.2474 138.425 82.8928 138.546C82.5381 138.658 82.2068 138.789 81.8988 138.938L81.5208 138.014C81.8474 137.837 82.2348 137.687 82.6828 137.566C83.1308 137.435 83.5974 137.37 84.0828 137.37ZM85.5528 141.332L84.4468 141.374C83.5134 141.411 82.8648 141.561 82.5008 141.822C82.1461 142.083 81.9688 142.452 81.9688 142.928C81.9688 143.348 82.0948 143.656 82.3468 143.852C82.6081 144.048 82.9394 144.146 83.3408 144.146C83.9661 144.146 84.4888 143.973 84.9088 143.628C85.3381 143.273 85.5528 142.732 85.5528 142.004V141.332ZM87.9124 137.496H89.2284L90.8524 141.766C90.9924 142.149 91.1184 142.508 91.2304 142.844C91.3424 143.18 91.4264 143.502 91.4824 143.81H91.5384C91.5944 143.577 91.6831 143.273 91.8044 142.9C91.9258 142.517 92.0518 142.135 92.1824 141.752L93.7084 137.496H95.0384L91.8044 146.036C91.5338 146.745 91.1931 147.31 90.7824 147.73C90.3718 148.15 89.8024 148.36 89.0744 148.36C88.8504 148.36 88.6544 148.346 88.4864 148.318C88.3184 148.299 88.1738 148.276 88.0524 148.248V147.268C88.1551 147.287 88.2764 147.305 88.4164 147.324C88.5658 147.343 88.7198 147.352 88.8784 147.352C89.3078 147.352 89.6531 147.231 89.9144 146.988C90.1758 146.745 90.3858 146.423 90.5444 146.022L90.9364 145.028L87.9124 137.496ZM99.0672 137.37C99.9818 137.37 100.658 137.571 101.097 137.972C101.536 138.373 101.755 139.013 101.755 139.89V145H100.859L100.621 143.936H100.565C100.238 144.347 99.8932 144.65 99.5292 144.846C99.1652 145.042 98.6705 145.14 98.0452 145.14C97.3638 145.14 96.7992 144.963 96.3512 144.608C95.9032 144.244 95.6792 143.679 95.6792 142.914C95.6792 142.167 95.9732 141.593 96.5612 141.192C97.1492 140.781 98.0545 140.557 99.2772 140.52L100.551 140.478V140.03C100.551 139.405 100.416 138.971 100.145 138.728C99.8745 138.485 99.4918 138.364 98.9972 138.364C98.6052 138.364 98.2318 138.425 97.8772 138.546C97.5225 138.658 97.1912 138.789 96.8832 138.938L96.5052 138.014C96.8318 137.837 97.2192 137.687 97.6672 137.566C98.1152 137.435 98.5818 137.37 99.0672 137.37ZM100.537 141.332L99.4312 141.374C98.4978 141.411 97.8492 141.561 97.4852 141.822C97.1305 142.083 96.9532 142.452 96.9532 142.928C96.9532 143.348 97.0792 143.656 97.3312 143.852C97.5925 144.048 97.9238 144.146 98.3252 144.146C98.9505 144.146 99.4732 143.973 99.8932 143.628C100.322 143.273 100.537 142.732 100.537 142.004V141.332ZM119.358 135.004L116.698 145H115.424L113.478 138.448C113.394 138.187 113.314 137.921 113.24 137.65C113.174 137.37 113.114 137.127 113.058 136.922C113.011 136.707 112.983 136.558 112.974 136.474C112.964 136.595 112.913 136.857 112.82 137.258C112.726 137.65 112.619 138.061 112.498 138.49L110.608 145H109.334L106.688 135.004H108.004L109.558 141.108C109.67 141.537 109.763 141.953 109.838 142.354C109.922 142.755 109.987 143.133 110.034 143.488C110.08 143.124 110.15 142.727 110.244 142.298C110.337 141.869 110.444 141.449 110.566 141.038L112.33 135.004H113.632L115.466 141.08C115.596 141.509 115.708 141.939 115.802 142.368C115.895 142.797 115.965 143.171 116.012 143.488C116.049 143.143 116.11 142.769 116.194 142.368C116.287 141.957 116.39 141.533 116.502 141.094L118.042 135.004H119.358ZM126.976 141.234C126.976 142.475 126.658 143.437 126.024 144.118C125.398 144.799 124.549 145.14 123.476 145.14C122.813 145.14 122.22 144.991 121.698 144.692C121.184 144.384 120.778 143.941 120.48 143.362C120.181 142.774 120.032 142.065 120.032 141.234C120.032 139.993 120.34 139.036 120.956 138.364C121.581 137.692 122.435 137.356 123.518 137.356C124.19 137.356 124.787 137.51 125.31 137.818C125.832 138.117 126.238 138.555 126.528 139.134C126.826 139.703 126.976 140.403 126.976 141.234ZM121.306 141.234C121.306 142.121 121.478 142.825 121.824 143.348C122.178 143.861 122.738 144.118 123.504 144.118C124.26 144.118 124.815 143.861 125.17 143.348C125.524 142.825 125.702 142.121 125.702 141.234C125.702 140.347 125.524 139.652 125.17 139.148C124.815 138.644 124.255 138.392 123.49 138.392C122.724 138.392 122.169 138.644 121.824 139.148C121.478 139.652 121.306 140.347 121.306 141.234ZM132.428 137.356C132.568 137.356 132.718 137.365 132.876 137.384C133.035 137.393 133.18 137.412 133.31 137.44L133.156 138.574C133.035 138.546 132.9 138.523 132.75 138.504C132.601 138.485 132.466 138.476 132.344 138.476C131.962 138.476 131.602 138.583 131.266 138.798C130.93 139.003 130.66 139.297 130.454 139.68C130.258 140.053 130.16 140.492 130.16 140.996V145H128.928V137.496H129.936L130.076 138.868H130.132C130.366 138.457 130.674 138.103 131.056 137.804C131.448 137.505 131.906 137.356 132.428 137.356ZM135.929 134.36V139.918C135.929 140.067 135.92 140.263 135.901 140.506C135.892 140.749 135.883 140.959 135.873 141.136H135.929C135.985 141.061 136.069 140.954 136.181 140.814C136.293 140.674 136.405 140.534 136.517 140.394C136.639 140.245 136.741 140.123 136.825 140.03L139.219 137.496H140.661L137.623 140.702L140.871 145H139.387L136.783 141.5L135.929 142.242V145H134.711V134.36H135.929ZM145.76 137.356C146.684 137.356 147.426 137.678 147.986 138.322C148.555 138.966 148.84 139.937 148.84 141.234C148.84 142.513 148.555 143.483 147.986 144.146C147.426 144.809 146.679 145.14 145.746 145.14C145.167 145.14 144.687 145.033 144.304 144.818C143.931 144.603 143.637 144.347 143.422 144.048H143.338C143.347 144.207 143.361 144.407 143.38 144.65C143.408 144.893 143.422 145.103 143.422 145.28V148.36H142.19V137.496H143.198L143.366 138.518H143.422C143.646 138.191 143.94 137.916 144.304 137.692C144.668 137.468 145.153 137.356 145.76 137.356ZM145.536 138.392C144.771 138.392 144.229 138.607 143.912 139.036C143.595 139.465 143.431 140.119 143.422 140.996V141.234C143.422 142.158 143.571 142.872 143.87 143.376C144.178 143.871 144.743 144.118 145.564 144.118C146.012 144.118 146.385 143.997 146.684 143.754C146.983 143.502 147.202 143.157 147.342 142.718C147.491 142.279 147.566 141.78 147.566 141.22C147.566 140.361 147.398 139.675 147.062 139.162C146.735 138.649 146.227 138.392 145.536 138.392ZM152.035 145H150.803V134.36H152.035V145ZM157.255 137.37C158.169 137.37 158.846 137.571 159.285 137.972C159.723 138.373 159.943 139.013 159.943 139.89V145H159.047L158.809 143.936H158.753C158.426 144.347 158.081 144.65 157.717 144.846C157.353 145.042 156.858 145.14 156.233 145.14C155.551 145.14 154.987 144.963 154.539 144.608C154.091 144.244 153.867 143.679 153.867 142.914C153.867 142.167 154.161 141.593 154.749 141.192C155.337 140.781 156.242 140.557 157.465 140.52L158.739 140.478V140.03C158.739 139.405 158.603 138.971 158.333 138.728C158.062 138.485 157.679 138.364 157.185 138.364C156.793 138.364 156.419 138.425 156.065 138.546C155.71 138.658 155.379 138.789 155.071 138.938L154.693 138.014C155.019 137.837 155.407 137.687 155.855 137.566C156.303 137.435 156.769 137.37 157.255 137.37ZM158.725 141.332L157.619 141.374C156.685 141.411 156.037 141.561 155.673 141.822C155.318 142.083 155.141 142.452 155.141 142.928C155.141 143.348 155.267 143.656 155.519 143.852C155.78 144.048 156.111 144.146 156.513 144.146C157.138 144.146 157.661 143.973 158.081 143.628C158.51 143.273 158.725 142.732 158.725 142.004V141.332ZM165.27 145.14C164.598 145.14 164.006 145.005 163.492 144.734C162.979 144.463 162.573 144.043 162.274 143.474C161.985 142.905 161.84 142.177 161.84 141.29C161.84 140.366 161.99 139.615 162.288 139.036C162.596 138.457 163.016 138.033 163.548 137.762C164.08 137.491 164.682 137.356 165.354 137.356C165.728 137.356 166.092 137.398 166.446 137.482C166.81 137.557 167.104 137.65 167.328 137.762L166.95 138.784C166.726 138.7 166.465 138.621 166.166 138.546C165.868 138.471 165.588 138.434 165.326 138.434C163.852 138.434 163.114 139.381 163.114 141.276C163.114 142.181 163.292 142.877 163.646 143.362C164.01 143.838 164.547 144.076 165.256 144.076C165.658 144.076 166.017 144.034 166.334 143.95C166.652 143.866 166.941 143.763 167.202 143.642V144.734C166.95 144.865 166.67 144.963 166.362 145.028C166.064 145.103 165.7 145.14 165.27 145.14ZM171.885 137.356C172.52 137.356 173.07 137.496 173.537 137.776C174.004 138.056 174.358 138.453 174.601 138.966C174.853 139.47 174.979 140.063 174.979 140.744V141.486H169.841C169.86 142.335 170.074 142.984 170.485 143.432C170.905 143.871 171.488 144.09 172.235 144.09C172.711 144.09 173.131 144.048 173.495 143.964C173.868 143.871 174.251 143.74 174.643 143.572V144.65C174.26 144.818 173.882 144.939 173.509 145.014C173.136 145.098 172.692 145.14 172.179 145.14C171.46 145.14 170.83 144.995 170.289 144.706C169.748 144.417 169.323 143.987 169.015 143.418C168.716 142.849 168.567 142.144 168.567 141.304C168.567 140.483 168.702 139.778 168.973 139.19C169.253 138.602 169.64 138.149 170.135 137.832C170.639 137.515 171.222 137.356 171.885 137.356ZM171.871 138.364C171.283 138.364 170.816 138.555 170.471 138.938C170.135 139.311 169.934 139.834 169.869 140.506H173.691C173.682 139.871 173.532 139.358 173.243 138.966C172.954 138.565 172.496 138.364 171.871 138.364Z" fill="black"/>
<path d="M71.63 165L70.426 161.906H66.464L65.274 165H64L67.906 154.962H69.04L72.932 165H71.63ZM70.048 160.786L68.928 157.762C68.9 157.687 68.8533 157.552 68.788 157.356C68.7227 157.16 68.6573 156.959 68.592 156.754C68.536 156.539 68.4893 156.376 68.452 156.264C68.3773 156.553 68.298 156.838 68.214 157.118C68.1393 157.389 68.074 157.603 68.018 157.762L66.884 160.786H70.048ZM76.7914 165.14C75.8581 165.14 75.1114 164.818 74.5514 164.174C73.9914 163.521 73.7114 162.55 73.7114 161.262C73.7114 159.974 73.9914 159.003 74.5514 158.35C75.1207 157.687 75.8721 157.356 76.8054 157.356C77.3841 157.356 77.8554 157.463 78.2194 157.678C78.5927 157.893 78.8961 158.154 79.1294 158.462H79.2134C79.1947 158.341 79.1761 158.163 79.1574 157.93C79.1387 157.687 79.1294 157.496 79.1294 157.356V154.36H80.3614V165H79.3674L79.1854 163.992H79.1294C78.9054 164.309 78.6067 164.58 78.2334 164.804C77.8601 165.028 77.3794 165.14 76.7914 165.14ZM76.9874 164.118C77.7807 164.118 78.3361 163.903 78.6534 163.474C78.9801 163.035 79.1434 162.377 79.1434 161.5V161.276C79.1434 160.343 78.9894 159.629 78.6814 159.134C78.3734 158.63 77.8041 158.378 76.9734 158.378C76.3107 158.378 75.8114 158.644 75.4754 159.176C75.1487 159.699 74.9854 160.403 74.9854 161.29C74.9854 162.186 75.1487 162.881 75.4754 163.376C75.8114 163.871 76.3154 164.118 76.9874 164.118ZM90.9767 157.356C91.826 157.356 92.4607 157.575 92.8807 158.014C93.3007 158.453 93.5107 159.153 93.5107 160.114V165H92.2927V160.17C92.2927 158.985 91.784 158.392 90.7667 158.392C90.0387 158.392 89.516 158.602 89.1987 159.022C88.8907 159.442 88.7367 160.053 88.7367 160.856V165H87.5187V160.17C87.5187 158.985 87.0054 158.392 85.9787 158.392C85.2227 158.392 84.7 158.625 84.4107 159.092C84.1214 159.559 83.9767 160.231 83.9767 161.108V165H82.7447V157.496H83.7387L83.9207 158.518H83.9907C84.224 158.126 84.5367 157.837 84.9287 157.65C85.33 157.454 85.7547 157.356 86.2027 157.356C87.3787 157.356 88.144 157.776 88.4987 158.616H88.5687C88.8207 158.187 89.1614 157.869 89.5907 157.664C90.02 157.459 90.482 157.356 90.9767 157.356ZM96.4587 154.682C96.6453 154.682 96.8087 154.747 96.9487 154.878C97.098 154.999 97.1727 155.195 97.1727 155.466C97.1727 155.737 97.098 155.937 96.9487 156.068C96.8087 156.189 96.6453 156.25 96.4587 156.25C96.2533 156.25 96.0807 156.189 95.9407 156.068C95.8007 155.937 95.7307 155.737 95.7307 155.466C95.7307 155.195 95.8007 154.999 95.9407 154.878C96.0807 154.747 96.2533 154.682 96.4587 154.682ZM97.0607 157.496V165H95.8287V157.496H97.0607ZM103.05 157.356C103.946 157.356 104.623 157.575 105.08 158.014C105.537 158.453 105.766 159.153 105.766 160.114V165H104.548V160.198C104.548 158.994 103.988 158.392 102.868 158.392C102.037 158.392 101.463 158.625 101.146 159.092C100.829 159.559 100.67 160.231 100.67 161.108V165H99.438V157.496H100.432L100.614 158.518H100.684C100.927 158.126 101.263 157.837 101.692 157.65C102.121 157.454 102.574 157.356 103.05 157.356ZM116.181 155.97C115.108 155.97 114.263 156.329 113.647 157.048C113.031 157.767 112.723 158.751 112.723 160.002C112.723 161.243 113.008 162.228 113.577 162.956C114.156 163.675 115.019 164.034 116.167 164.034C116.596 164.034 117.007 163.997 117.399 163.922C117.791 163.847 118.178 163.754 118.561 163.642V164.734C118.188 164.874 117.8 164.977 117.399 165.042C117.007 165.107 116.536 165.14 115.985 165.14C114.968 165.14 114.118 164.93 113.437 164.51C112.756 164.09 112.242 163.493 111.897 162.718C111.561 161.943 111.393 161.033 111.393 159.988C111.393 158.98 111.575 158.093 111.939 157.328C112.312 156.553 112.858 155.951 113.577 155.522C114.296 155.083 115.168 154.864 116.195 154.864C117.25 154.864 118.169 155.06 118.953 155.452L118.449 156.516C118.141 156.376 117.796 156.25 117.413 156.138C117.04 156.026 116.629 155.97 116.181 155.97ZM121.807 165H120.575V154.36H121.807V165ZM124.814 154.682C125.001 154.682 125.164 154.747 125.304 154.878C125.453 154.999 125.528 155.195 125.528 155.466C125.528 155.737 125.453 155.937 125.304 156.068C125.164 156.189 125.001 156.25 124.814 156.25C124.609 156.25 124.436 156.189 124.296 156.068C124.156 155.937 124.086 155.737 124.086 155.466C124.086 155.195 124.156 154.999 124.296 154.878C124.436 154.747 124.609 154.682 124.814 154.682ZM125.416 157.496V165H124.184V157.496H125.416ZM130.692 157.356C131.326 157.356 131.877 157.496 132.344 157.776C132.81 158.056 133.165 158.453 133.408 158.966C133.66 159.47 133.786 160.063 133.786 160.744V161.486H128.648C128.666 162.335 128.881 162.984 129.292 163.432C129.712 163.871 130.295 164.09 131.042 164.09C131.518 164.09 131.938 164.048 132.302 163.964C132.675 163.871 133.058 163.74 133.45 163.572V164.65C133.067 164.818 132.689 164.939 132.316 165.014C131.942 165.098 131.499 165.14 130.986 165.14C130.267 165.14 129.637 164.995 129.096 164.706C128.554 164.417 128.13 163.987 127.822 163.418C127.523 162.849 127.374 162.144 127.374 161.304C127.374 160.483 127.509 159.778 127.78 159.19C128.06 158.602 128.447 158.149 128.942 157.832C129.446 157.515 130.029 157.356 130.692 157.356ZM130.678 158.364C130.09 158.364 129.623 158.555 129.278 158.938C128.942 159.311 128.741 159.834 128.676 160.506H132.498C132.488 159.871 132.339 159.358 132.05 158.966C131.76 158.565 131.303 158.364 130.678 158.364ZM139.308 157.356C140.204 157.356 140.881 157.575 141.338 158.014C141.795 158.453 142.024 159.153 142.024 160.114V165H140.806V160.198C140.806 158.994 140.246 158.392 139.126 158.392C138.295 158.392 137.721 158.625 137.404 159.092C137.087 159.559 136.928 160.231 136.928 161.108V165H135.696V157.496H136.69L136.872 158.518H136.942C137.185 158.126 137.521 157.837 137.95 157.65C138.379 157.454 138.832 157.356 139.308 157.356ZM146.856 164.132C147.043 164.132 147.234 164.118 147.43 164.09C147.626 164.062 147.785 164.025 147.906 163.978V164.916C147.775 164.981 147.589 165.033 147.346 165.07C147.103 165.117 146.87 165.14 146.646 165.14C146.254 165.14 145.89 165.075 145.554 164.944C145.227 164.804 144.961 164.566 144.756 164.23C144.551 163.894 144.448 163.423 144.448 162.816V158.448H143.384V157.86L144.462 157.37L144.952 155.774H145.68V157.496H147.85V158.448H145.68V162.788C145.68 163.245 145.787 163.586 146.002 163.81C146.226 164.025 146.511 164.132 146.856 164.132ZM157.497 155.97C156.424 155.97 155.579 156.329 154.963 157.048C154.347 157.767 154.039 158.751 154.039 160.002C154.039 161.243 154.324 162.228 154.893 162.956C155.472 163.675 156.335 164.034 157.483 164.034C157.913 164.034 158.323 163.997 158.715 163.922C159.107 163.847 159.495 163.754 159.877 163.642V164.734C159.504 164.874 159.117 164.977 158.715 165.042C158.323 165.107 157.852 165.14 157.301 165.14C156.284 165.14 155.435 164.93 154.753 164.51C154.072 164.09 153.559 163.493 153.213 162.718C152.877 161.943 152.709 161.033 152.709 159.988C152.709 158.98 152.891 158.093 153.255 157.328C153.629 156.553 154.175 155.951 154.893 155.522C155.612 155.083 156.485 154.864 157.511 154.864C158.566 154.864 159.485 155.06 160.269 155.452L159.765 156.516C159.457 156.376 159.112 156.25 158.729 156.138C158.356 156.026 157.945 155.97 157.497 155.97ZM164.789 157.356C165.424 157.356 165.975 157.496 166.441 157.776C166.908 158.056 167.263 158.453 167.505 158.966C167.757 159.47 167.883 160.063 167.883 160.744V161.486H162.745C162.764 162.335 162.979 162.984 163.389 163.432C163.809 163.871 164.393 164.09 165.139 164.09C165.615 164.09 166.035 164.048 166.399 163.964C166.773 163.871 167.155 163.74 167.547 163.572V164.65C167.165 164.818 166.787 164.939 166.413 165.014C166.04 165.098 165.597 165.14 165.083 165.14C164.365 165.14 163.735 164.995 163.193 164.706C162.652 164.417 162.227 163.987 161.919 163.418C161.621 162.849 161.471 162.144 161.471 161.304C161.471 160.483 161.607 159.778 161.877 159.19C162.157 158.602 162.545 158.149 163.039 157.832C163.543 157.515 164.127 157.356 164.789 157.356ZM164.775 158.364C164.187 158.364 163.721 158.555 163.375 158.938C163.039 159.311 162.839 159.834 162.773 160.506H166.595C166.586 159.871 166.437 159.358 166.147 158.966C165.858 158.565 165.401 158.364 164.775 158.364ZM173.406 157.356C174.302 157.356 174.978 157.575 175.436 158.014C175.893 158.453 176.122 159.153 176.122 160.114V165H174.904V160.198C174.904 158.994 174.344 158.392 173.224 158.392C172.393 158.392 171.819 158.625 171.502 159.092C171.184 159.559 171.026 160.231 171.026 161.108V165H169.794V157.496H170.788L170.97 158.518H171.04C171.282 158.126 171.618 157.837 172.048 157.65C172.477 157.454 172.93 157.356 173.406 157.356ZM180.954 164.132C181.14 164.132 181.332 164.118 181.528 164.09C181.724 164.062 181.882 164.025 182.004 163.978V164.916C181.873 164.981 181.686 165.033 181.444 165.07C181.201 165.117 180.968 165.14 180.744 165.14C180.352 165.14 179.988 165.075 179.652 164.944C179.325 164.804 179.059 164.566 178.854 164.23C178.648 163.894 178.546 163.423 178.546 162.816V158.448H177.482V157.86L178.56 157.37L179.05 155.774H179.778V157.496H181.948V158.448H179.778V162.788C179.778 163.245 179.885 163.586 180.1 163.81C180.324 164.025 180.608 164.132 180.954 164.132ZM186.404 157.356C187.039 157.356 187.59 157.496 188.056 157.776C188.523 158.056 188.878 158.453 189.12 158.966C189.372 159.47 189.498 160.063 189.498 160.744V161.486H184.36C184.379 162.335 184.594 162.984 185.004 163.432C185.424 163.871 186.008 164.09 186.754 164.09C187.23 164.09 187.65 164.048 188.014 163.964C188.388 163.871 188.77 163.74 189.162 163.572V164.65C188.78 164.818 188.402 164.939 188.028 165.014C187.655 165.098 187.212 165.14 186.698 165.14C185.98 165.14 185.35 164.995 184.808 164.706C184.267 164.417 183.842 163.987 183.534 163.418C183.236 162.849 183.086 162.144 183.086 161.304C183.086 160.483 183.222 159.778 183.492 159.19C183.772 158.602 184.16 158.149 184.654 157.832C185.158 157.515 185.742 157.356 186.404 157.356ZM186.39 158.364C185.802 158.364 185.336 158.555 184.99 158.938C184.654 159.311 184.454 159.834 184.388 160.506H188.21C188.201 159.871 188.052 159.358 187.762 158.966C187.473 158.565 187.016 158.364 186.39 158.364ZM194.909 157.356C195.049 157.356 195.198 157.365 195.357 157.384C195.515 157.393 195.66 157.412 195.791 157.44L195.637 158.574C195.515 158.546 195.38 158.523 195.231 158.504C195.081 158.485 194.946 158.476 194.825 158.476C194.442 158.476 194.083 158.583 193.747 158.798C193.411 159.003 193.14 159.297 192.935 159.68C192.739 160.053 192.641 160.492 192.641 160.996V165H191.409V157.496H192.417L192.557 158.868H192.613C192.846 158.457 193.154 158.103 193.537 157.804C193.929 157.505 194.386 157.356 194.909 157.356Z" fill="black"/>
</svg>
