<svg width="412" height="200" viewBox="0 0 412 200" fill="none" xmlns="http://www.w3.org/2000/svg">
<rect width="412" height="200" fill="white"/>
<path d="M130.836 25.26C129.916 25.26 129.192 25.568 128.664 26.184C128.136 26.8 127.872 27.644 127.872 28.716C127.872 29.78 128.116 30.624 128.604 31.248C129.1 31.864 129.84 32.172 130.824 32.172C131.192 32.172 131.544 32.14 131.88 32.076C132.216 32.012 132.548 31.932 132.876 31.836V32.772C132.556 32.892 132.224 32.98 131.88 33.036C131.544 33.092 131.14 33.12 130.668 33.12C129.796 33.12 129.068 32.94 128.484 32.58C127.9 32.22 127.46 31.708 127.164 31.044C126.876 30.38 126.732 29.6 126.732 28.704C126.732 27.84 126.888 27.08 127.2 26.424C127.52 25.76 127.988 25.244 128.604 24.876C129.22 24.5 129.968 24.312 130.848 24.312C131.752 24.312 132.54 24.48 133.212 24.816L132.78 25.728C132.516 25.608 132.22 25.5 131.892 25.404C131.572 25.308 131.22 25.26 130.836 25.26ZM137.038 26.46C137.822 26.46 138.402 26.632 138.778 26.976C139.154 27.32 139.342 27.868 139.342 28.62V33H138.574L138.37 32.088H138.322C138.042 32.44 137.746 32.7 137.434 32.868C137.122 33.036 136.698 33.12 136.162 33.12C135.578 33.12 135.094 32.968 134.71 32.664C134.326 32.352 134.134 31.868 134.134 31.212C134.134 30.572 134.386 30.08 134.89 29.736C135.394 29.384 136.17 29.192 137.218 29.16L138.31 29.124V28.74C138.31 28.204 138.194 27.832 137.962 27.624C137.73 27.416 137.402 27.312 136.978 27.312C136.642 27.312 136.322 27.364 136.018 27.468C135.714 27.564 135.43 27.676 135.166 27.804L134.842 27.012C135.122 26.86 135.454 26.732 135.838 26.628C136.222 26.516 136.622 26.46 137.038 26.46ZM138.298 29.856L137.35 29.892C136.55 29.924 135.994 30.052 135.682 30.276C135.378 30.5 135.226 30.816 135.226 31.224C135.226 31.584 135.334 31.848 135.55 32.016C135.774 32.184 136.058 32.268 136.402 32.268C136.938 32.268 137.386 32.12 137.746 31.824C138.114 31.52 138.298 31.056 138.298 30.432V29.856ZM143.477 32.256C143.637 32.256 143.801 32.244 143.969 32.22C144.137 32.196 144.273 32.164 144.377 32.124V32.928C144.265 32.984 144.105 33.028 143.897 33.06C143.689 33.1 143.489 33.12 143.297 33.12C142.961 33.12 142.649 33.064 142.361 32.952C142.081 32.832 141.853 32.628 141.677 32.34C141.501 32.052 141.413 31.648 141.413 31.128V27.384H140.501V26.88L141.425 26.46L141.845 25.092H142.469V26.568H144.329V27.384H142.469V31.104C142.469 31.496 142.561 31.788 142.745 31.98C142.937 32.164 143.181 32.256 143.477 32.256ZM148.149 26.448C148.693 26.448 149.165 26.568 149.565 26.808C149.965 27.048 150.269 27.388 150.477 27.828C150.693 28.26 150.801 28.768 150.801 29.352V29.988H146.397C146.413 30.716 146.597 31.272 146.949 31.656C147.309 32.032 147.809 32.22 148.449 32.22C148.857 32.22 149.217 32.184 149.529 32.112C149.849 32.032 150.177 31.92 150.513 31.776V32.7C150.185 32.844 149.861 32.948 149.541 33.012C149.221 33.084 148.841 33.12 148.401 33.12C147.785 33.12 147.245 32.996 146.781 32.748C146.317 32.5 145.953 32.132 145.689 31.644C145.433 31.156 145.305 30.552 145.305 29.832C145.305 29.128 145.421 28.524 145.653 28.02C145.893 27.516 146.225 27.128 146.649 26.856C147.081 26.584 147.581 26.448 148.149 26.448ZM148.137 27.312C147.633 27.312 147.233 27.476 146.937 27.804C146.649 28.124 146.477 28.572 146.421 29.148H149.697C149.689 28.604 149.561 28.164 149.313 27.828C149.065 27.484 148.673 27.312 148.137 27.312ZM154.718 26.448C155.142 26.448 155.522 26.528 155.858 26.688C156.202 26.848 156.494 27.092 156.734 27.42H156.794L156.938 26.568H157.778V33.108C157.778 34.028 157.542 34.72 157.07 35.184C156.606 35.648 155.882 35.88 154.898 35.88C153.954 35.88 153.182 35.744 152.582 35.472V34.5C153.214 34.836 154.006 35.004 154.958 35.004C155.51 35.004 155.942 34.84 156.254 34.512C156.574 34.192 156.734 33.752 156.734 33.192V32.94C156.734 32.844 156.738 32.708 156.746 32.532C156.754 32.348 156.762 32.22 156.77 32.148H156.722C156.29 32.796 155.626 33.12 154.73 33.12C153.898 33.12 153.246 32.828 152.774 32.244C152.31 31.66 152.078 30.844 152.078 29.796C152.078 28.772 152.31 27.96 152.774 27.36C153.246 26.752 153.894 26.448 154.718 26.448ZM154.862 27.336C154.326 27.336 153.91 27.552 153.614 27.984C153.318 28.408 153.17 29.016 153.17 29.808C153.17 30.6 153.314 31.208 153.602 31.632C153.89 32.048 154.318 32.256 154.886 32.256C155.534 32.256 156.006 32.084 156.302 31.74C156.598 31.388 156.746 30.824 156.746 30.048V29.796C156.746 28.924 156.594 28.296 156.29 27.912C155.986 27.528 155.51 27.336 154.862 27.336ZM165.413 29.772C165.413 30.836 165.141 31.66 164.597 32.244C164.061 32.828 163.333 33.12 162.413 33.12C161.845 33.12 161.337 32.992 160.889 32.736C160.449 32.472 160.101 32.092 159.845 31.596C159.589 31.092 159.461 30.484 159.461 29.772C159.461 28.708 159.725 27.888 160.253 27.312C160.789 26.736 161.521 26.448 162.449 26.448C163.025 26.448 163.537 26.58 163.985 26.844C164.433 27.1 164.781 27.476 165.029 27.972C165.285 28.46 165.413 29.06 165.413 29.772ZM160.553 29.772C160.553 30.532 160.701 31.136 160.997 31.584C161.301 32.024 161.781 32.244 162.437 32.244C163.085 32.244 163.561 32.024 163.865 31.584C164.169 31.136 164.321 30.532 164.321 29.772C164.321 29.012 164.169 28.416 163.865 27.984C163.561 27.552 163.081 27.336 162.425 27.336C161.769 27.336 161.293 27.552 160.997 27.984C160.701 28.416 160.553 29.012 160.553 29.772ZM170.086 26.448C170.206 26.448 170.334 26.456 170.47 26.472C170.606 26.48 170.73 26.496 170.842 26.52L170.71 27.492C170.606 27.468 170.49 27.448 170.362 27.432C170.234 27.416 170.118 27.408 170.014 27.408C169.686 27.408 169.378 27.5 169.09 27.684C168.802 27.86 168.57 28.112 168.394 28.44C168.226 28.76 168.142 29.136 168.142 29.568V33H167.086V26.568H167.95L168.07 27.744H168.118C168.318 27.392 168.582 27.088 168.91 26.832C169.246 26.576 169.638 26.448 170.086 26.448ZM171.035 26.568H172.163L173.555 30.228C173.675 30.556 173.783 30.864 173.879 31.152C173.975 31.44 174.047 31.716 174.095 31.98H174.143C174.191 31.78 174.267 31.52 174.371 31.2C174.475 30.872 174.583 30.544 174.695 30.216L176.003 26.568H177.143L174.371 33.888C174.139 34.496 173.847 34.98 173.495 35.34C173.143 35.7 172.655 35.88 172.031 35.88C171.839 35.88 171.671 35.868 171.527 35.844C171.383 35.828 171.259 35.808 171.155 35.784V34.944C171.243 34.96 171.347 34.976 171.467 34.992C171.595 35.008 171.727 35.016 171.863 35.016C172.231 35.016 172.527 34.912 172.751 34.704C172.975 34.496 173.155 34.22 173.291 33.876L173.627 33.024L171.035 26.568ZM181.422 33V24.432H182.502V32.04H186.246V33H181.422ZM190.007 26.46C190.791 26.46 191.371 26.632 191.747 26.976C192.123 27.32 192.311 27.868 192.311 28.62V33H191.543L191.339 32.088H191.291C191.011 32.44 190.715 32.7 190.403 32.868C190.091 33.036 189.667 33.12 189.131 33.12C188.547 33.12 188.063 32.968 187.679 32.664C187.295 32.352 187.103 31.868 187.103 31.212C187.103 30.572 187.355 30.08 187.859 29.736C188.363 29.384 189.139 29.192 190.187 29.16L191.279 29.124V28.74C191.279 28.204 191.163 27.832 190.931 27.624C190.699 27.416 190.371 27.312 189.947 27.312C189.611 27.312 189.291 27.364 188.987 27.468C188.683 27.564 188.399 27.676 188.135 27.804L187.811 27.012C188.091 26.86 188.423 26.732 188.807 26.628C189.191 26.516 189.591 26.46 190.007 26.46ZM191.267 29.856L190.319 29.892C189.519 29.924 188.963 30.052 188.651 30.276C188.347 30.5 188.195 30.816 188.195 31.224C188.195 31.584 188.303 31.848 188.519 32.016C188.743 32.184 189.027 32.268 189.371 32.268C189.907 32.268 190.355 32.12 190.715 31.824C191.083 31.52 191.267 31.056 191.267 30.432V29.856ZM195.353 23.88V26.1C195.353 26.372 195.345 26.628 195.329 26.868C195.321 27.1 195.309 27.284 195.293 27.42H195.353C195.537 27.148 195.789 26.92 196.109 26.736C196.429 26.552 196.841 26.46 197.345 26.46C198.145 26.46 198.785 26.74 199.265 27.3C199.753 27.852 199.997 28.68 199.997 29.784C199.997 30.888 199.753 31.72 199.265 32.28C198.777 32.84 198.137 33.12 197.345 33.12C196.841 33.12 196.429 33.028 196.109 32.844C195.789 32.66 195.537 32.44 195.353 32.184H195.269L195.053 33H194.297V23.88H195.353ZM197.165 27.336C196.477 27.336 196.001 27.532 195.737 27.924C195.481 28.316 195.353 28.924 195.353 29.748V29.796C195.353 30.588 195.481 31.196 195.737 31.62C196.001 32.036 196.485 32.244 197.189 32.244C197.765 32.244 198.193 32.032 198.473 31.608C198.761 31.184 198.905 30.572 198.905 29.772C198.905 28.148 198.325 27.336 197.165 27.336ZM204.164 26.448C204.708 26.448 205.18 26.568 205.58 26.808C205.98 27.048 206.284 27.388 206.492 27.828C206.708 28.26 206.816 28.768 206.816 29.352V29.988H202.412C202.428 30.716 202.612 31.272 202.964 31.656C203.324 32.032 203.824 32.22 204.464 32.22C204.872 32.22 205.232 32.184 205.544 32.112C205.864 32.032 206.192 31.92 206.528 31.776V32.7C206.2 32.844 205.876 32.948 205.556 33.012C205.236 33.084 204.856 33.12 204.416 33.12C203.8 33.12 203.26 32.996 202.796 32.748C202.332 32.5 201.968 32.132 201.704 31.644C201.448 31.156 201.32 30.552 201.32 29.832C201.32 29.128 201.436 28.524 201.668 28.02C201.908 27.516 202.24 27.128 202.664 26.856C203.096 26.584 203.596 26.448 204.164 26.448ZM204.152 27.312C203.648 27.312 203.248 27.476 202.952 27.804C202.664 28.124 202.492 28.572 202.436 29.148H205.712C205.704 28.604 205.576 28.164 205.328 27.828C205.08 27.484 204.688 27.312 204.152 27.312ZM209.51 33H208.454V23.88H209.51V33Z" fill="black"/>
<circle cx="134" cy="54" r="7.5" fill="white" stroke="#1B77AF"/>
<circle cx="134" cy="54" r="5" fill="#1B77AF"/>
<path d="M154.116 49.004C155.357 49.004 156.272 49.242 156.86 49.718C157.457 50.1847 157.756 50.894 157.756 51.846C157.756 52.378 157.658 52.8213 157.462 53.176C157.266 53.5307 157.014 53.8153 156.706 54.03C156.407 54.2447 156.09 54.408 155.754 54.52L158.498 59H157.028L154.606 54.87H152.618V59H151.358V49.004H154.116ZM154.046 50.096H152.618V53.806H154.116C154.928 53.806 155.521 53.6473 155.894 53.33C156.267 53.0033 156.454 52.5273 156.454 51.902C156.454 51.2487 156.258 50.7867 155.866 50.516C155.474 50.236 154.867 50.096 154.046 50.096ZM162.741 51.37C163.656 51.37 164.332 51.5707 164.771 51.972C165.21 52.3733 165.429 53.0127 165.429 53.89V59H164.533L164.295 57.936H164.239C163.912 58.3467 163.567 58.65 163.203 58.846C162.839 59.042 162.344 59.14 161.719 59.14C161.038 59.14 160.473 58.9627 160.025 58.608C159.577 58.244 159.353 57.6793 159.353 56.914C159.353 56.1673 159.647 55.5933 160.235 55.192C160.823 54.7813 161.728 54.5573 162.951 54.52L164.225 54.478V54.03C164.225 53.4047 164.09 52.9707 163.819 52.728C163.548 52.4853 163.166 52.364 162.671 52.364C162.279 52.364 161.906 52.4247 161.551 52.546C161.196 52.658 160.865 52.7887 160.557 52.938L160.179 52.014C160.506 51.8367 160.893 51.6873 161.341 51.566C161.789 51.4353 162.256 51.37 162.741 51.37ZM164.211 55.332L163.105 55.374C162.172 55.4113 161.523 55.5607 161.159 55.822C160.804 56.0833 160.627 56.452 160.627 56.928C160.627 57.348 160.753 57.656 161.005 57.852C161.266 58.048 161.598 58.146 161.999 58.146C162.624 58.146 163.147 57.9733 163.567 57.628C163.996 57.2733 164.211 56.732 164.211 56.004V55.332ZM170.407 59.14C169.473 59.14 168.727 58.818 168.167 58.174C167.607 57.5207 167.327 56.55 167.327 55.262C167.327 53.974 167.607 53.0033 168.167 52.35C168.736 51.6873 169.487 51.356 170.421 51.356C170.999 51.356 171.471 51.4633 171.835 51.678C172.208 51.8927 172.511 52.154 172.745 52.462H172.829C172.81 52.3407 172.791 52.1633 172.773 51.93C172.754 51.6873 172.745 51.496 172.745 51.356V48.36H173.977V59H172.983L172.801 57.992H172.745C172.521 58.3093 172.222 58.58 171.849 58.804C171.475 59.028 170.995 59.14 170.407 59.14ZM170.603 58.118C171.396 58.118 171.951 57.9033 172.269 57.474C172.595 57.0353 172.759 56.3773 172.759 55.5V55.276C172.759 54.3427 172.605 53.6287 172.297 53.134C171.989 52.63 171.419 52.378 170.589 52.378C169.926 52.378 169.427 52.644 169.091 53.176C168.764 53.6987 168.601 54.4033 168.601 55.29C168.601 56.186 168.764 56.8813 169.091 57.376C169.427 57.8707 169.931 58.118 170.603 58.118ZM176.99 48.682C177.177 48.682 177.34 48.7473 177.48 48.878C177.629 48.9993 177.704 49.1953 177.704 49.466C177.704 49.7367 177.629 49.9373 177.48 50.068C177.34 50.1893 177.177 50.25 176.99 50.25C176.785 50.25 176.612 50.1893 176.472 50.068C176.332 49.9373 176.262 49.7367 176.262 49.466C176.262 49.1953 176.332 48.9993 176.472 48.878C176.612 48.7473 176.785 48.682 176.99 48.682ZM177.592 51.496V59H176.36V51.496H177.592ZM186.493 55.234C186.493 56.4753 186.176 57.4367 185.541 58.118C184.916 58.7993 184.067 59.14 182.993 59.14C182.331 59.14 181.738 58.9907 181.215 58.692C180.702 58.384 180.296 57.9407 179.997 57.362C179.699 56.774 179.549 56.0647 179.549 55.234C179.549 53.9927 179.857 53.036 180.473 52.364C181.099 51.692 181.953 51.356 183.035 51.356C183.707 51.356 184.305 51.51 184.827 51.818C185.35 52.1167 185.756 52.5553 186.045 53.134C186.344 53.7033 186.493 54.4033 186.493 55.234ZM180.823 55.234C180.823 56.1207 180.996 56.8253 181.341 57.348C181.696 57.8613 182.256 58.118 183.021 58.118C183.777 58.118 184.333 57.8613 184.687 57.348C185.042 56.8253 185.219 56.1207 185.219 55.234C185.219 54.3473 185.042 53.652 184.687 53.148C184.333 52.644 183.773 52.392 183.007 52.392C182.242 52.392 181.687 52.644 181.341 53.148C180.996 53.652 180.823 54.3473 180.823 55.234ZM192.251 49.004H195.107C196.348 49.004 197.291 49.1907 197.935 49.564C198.579 49.9373 198.901 50.5767 198.901 51.482C198.901 52.07 198.737 52.56 198.411 52.952C198.084 53.3347 197.613 53.582 196.997 53.694V53.764C197.417 53.8387 197.795 53.9647 198.131 54.142C198.476 54.3193 198.747 54.5713 198.943 54.898C199.139 55.2247 199.237 55.6447 199.237 56.158C199.237 57.0633 198.924 57.7633 198.299 58.258C197.683 58.7527 196.838 59 195.765 59H192.251V49.004ZM193.511 53.26H195.359C196.208 53.26 196.791 53.1247 197.109 52.854C197.435 52.574 197.599 52.1633 197.599 51.622C197.599 51.0713 197.403 50.6793 197.011 50.446C196.628 50.2033 196.012 50.082 195.163 50.082H193.511V53.26ZM193.511 54.31V57.936H195.527C196.413 57.936 197.029 57.7633 197.375 57.418C197.72 57.0727 197.893 56.62 197.893 56.06C197.893 55.5373 197.711 55.1173 197.347 54.8C196.992 54.4733 196.353 54.31 195.429 54.31H193.511ZM207.46 51.496V59H206.452L206.27 58.006H206.214C205.971 58.398 205.635 58.6873 205.206 58.874C204.777 59.0513 204.319 59.14 203.834 59.14C202.929 59.14 202.247 58.9253 201.79 58.496C201.333 58.0573 201.104 57.362 201.104 56.41V51.496H202.35V56.326C202.35 57.5207 202.905 58.118 204.016 58.118C204.847 58.118 205.421 57.8847 205.738 57.418C206.065 56.9513 206.228 56.2793 206.228 55.402V51.496H207.46ZM212.348 58.132C212.535 58.132 212.726 58.118 212.922 58.09C213.118 58.062 213.277 58.0247 213.398 57.978V58.916C213.268 58.9813 213.081 59.0327 212.838 59.07C212.596 59.1167 212.362 59.14 212.138 59.14C211.746 59.14 211.382 59.0747 211.046 58.944C210.72 58.804 210.454 58.566 210.248 58.23C210.043 57.894 209.94 57.4227 209.94 56.816V52.448H208.876V51.86L209.954 51.37L210.444 49.774H211.172V51.496H213.342V52.448H211.172V56.788C211.172 57.2453 211.28 57.586 211.494 57.81C211.718 58.0247 212.003 58.132 212.348 58.132ZM217.407 58.132C217.594 58.132 217.785 58.118 217.981 58.09C218.177 58.062 218.336 58.0247 218.457 57.978V58.916C218.326 58.9813 218.14 59.0327 217.897 59.07C217.654 59.1167 217.421 59.14 217.197 59.14C216.805 59.14 216.441 59.0747 216.105 58.944C215.778 58.804 215.512 58.566 215.307 58.23C215.102 57.894 214.999 57.4227 214.999 56.816V52.448H213.935V51.86L215.013 51.37L215.503 49.774H216.231V51.496H218.401V52.448H216.231V56.788C216.231 57.2453 216.338 57.586 216.553 57.81C216.777 58.0247 217.062 58.132 217.407 58.132ZM226.484 55.234C226.484 56.4753 226.166 57.4367 225.532 58.118C224.906 58.7993 224.057 59.14 222.984 59.14C222.321 59.14 221.728 58.9907 221.206 58.692C220.692 58.384 220.286 57.9407 219.988 57.362C219.689 56.774 219.54 56.0647 219.54 55.234C219.54 53.9927 219.848 53.036 220.464 52.364C221.089 51.692 221.943 51.356 223.026 51.356C223.698 51.356 224.295 51.51 224.818 51.818C225.34 52.1167 225.746 52.5553 226.036 53.134C226.334 53.7033 226.484 54.4033 226.484 55.234ZM220.814 55.234C220.814 56.1207 220.986 56.8253 221.332 57.348C221.686 57.8613 222.246 58.118 223.012 58.118C223.768 58.118 224.323 57.8613 224.678 57.348C225.032 56.8253 225.21 56.1207 225.21 55.234C225.21 54.3473 225.032 53.652 224.678 53.148C224.323 52.644 223.763 52.392 222.998 52.392C222.232 52.392 221.677 52.644 221.332 53.148C220.986 53.652 220.814 54.3473 220.814 55.234ZM232.048 51.356C232.944 51.356 233.621 51.5753 234.078 52.014C234.535 52.4527 234.764 53.1527 234.764 54.114V59H233.546V54.198C233.546 52.994 232.986 52.392 231.866 52.392C231.035 52.392 230.461 52.6253 230.144 53.092C229.827 53.5587 229.668 54.2307 229.668 55.108V59H228.436V51.496H229.43L229.612 52.518H229.682C229.925 52.126 230.261 51.8367 230.69 51.65C231.119 51.454 231.572 51.356 232.048 51.356Z" fill="black"/>
<path d="M162.838 69.004L160.178 79H158.904L156.958 72.448C156.874 72.1867 156.795 71.9207 156.72 71.65C156.655 71.37 156.594 71.1273 156.538 70.922C156.491 70.7073 156.463 70.558 156.454 70.474C156.445 70.5953 156.393 70.8567 156.3 71.258C156.207 71.65 156.099 72.0607 155.978 72.49L154.088 79H152.814L150.168 69.004H151.484L153.038 75.108C153.15 75.5373 153.243 75.9527 153.318 76.354C153.402 76.7553 153.467 77.1333 153.514 77.488C153.561 77.124 153.631 76.7273 153.724 76.298C153.817 75.8687 153.925 75.4487 154.046 75.038L155.81 69.004H157.112L158.946 75.08C159.077 75.5093 159.189 75.9387 159.282 76.368C159.375 76.7973 159.445 77.1707 159.492 77.488C159.529 77.1427 159.59 76.7693 159.674 76.368C159.767 75.9573 159.87 75.5327 159.982 75.094L161.522 69.004H162.838ZM164.836 68.682C165.022 68.682 165.186 68.7473 165.326 68.878C165.475 68.9993 165.55 69.1953 165.55 69.466C165.55 69.7367 165.475 69.9373 165.326 70.068C165.186 70.1893 165.022 70.25 164.836 70.25C164.63 70.25 164.458 70.1893 164.318 70.068C164.178 69.9373 164.108 69.7367 164.108 69.466C164.108 69.1953 164.178 68.9993 164.318 68.878C164.458 68.7473 164.63 68.682 164.836 68.682ZM165.438 71.496V79H164.206V71.496H165.438ZM170.321 78.132C170.508 78.132 170.699 78.118 170.895 78.09C171.091 78.062 171.25 78.0247 171.371 77.978V78.916C171.24 78.9813 171.054 79.0327 170.811 79.07C170.568 79.1167 170.335 79.14 170.111 79.14C169.719 79.14 169.355 79.0747 169.019 78.944C168.692 78.804 168.426 78.566 168.221 78.23C168.016 77.894 167.913 77.4227 167.913 76.816V72.448H166.849V71.86L167.927 71.37L168.417 69.774H169.145V71.496H171.315V72.448H169.145V76.788C169.145 77.2453 169.252 77.586 169.467 77.81C169.691 78.0247 169.976 78.132 170.321 78.132ZM174.106 68.36V71.482C174.106 71.8553 174.082 72.2053 174.036 72.532H174.12C174.362 72.1493 174.689 71.86 175.1 71.664C175.52 71.468 175.972 71.37 176.458 71.37C177.363 71.37 178.044 71.5893 178.502 72.028C178.968 72.4573 179.202 73.1527 179.202 74.114V79H177.984V74.198C177.984 72.994 177.424 72.392 176.304 72.392C175.464 72.392 174.885 72.63 174.568 73.106C174.26 73.5727 174.106 74.2447 174.106 75.122V79H172.874V68.36H174.106ZM189.743 79L186.453 70.236H186.397C186.425 70.5253 186.448 70.9173 186.467 71.412C186.485 71.8973 186.495 72.406 186.495 72.938V79H185.333V69.004H187.195L190.275 77.194H190.331L193.467 69.004H195.315V79H194.069V72.854C194.069 72.3687 194.078 71.888 194.097 71.412C194.125 70.936 194.148 70.5487 194.167 70.25H194.111L190.779 79H189.743ZM204.138 71.496V79H203.13L202.948 78.006H202.892C202.649 78.398 202.313 78.6873 201.884 78.874C201.454 79.0513 200.997 79.14 200.512 79.14C199.606 79.14 198.925 78.9253 198.468 78.496C198.01 78.0573 197.782 77.362 197.782 76.41V71.496H199.028V76.326C199.028 77.5207 199.583 78.118 200.694 78.118C201.524 78.118 202.098 77.8847 202.416 77.418C202.742 76.9513 202.906 76.2793 202.906 75.402V71.496H204.138ZM207.752 79H206.52V68.36H207.752V79ZM212.635 78.132C212.822 78.132 213.013 78.118 213.209 78.09C213.405 78.062 213.564 78.0247 213.685 77.978V78.916C213.555 78.9813 213.368 79.0327 213.125 79.07C212.883 79.1167 212.649 79.14 212.425 79.14C212.033 79.14 211.669 79.0747 211.333 78.944C211.007 78.804 210.741 78.566 210.535 78.23C210.33 77.894 210.227 77.4227 210.227 76.816V72.448H209.163V71.86L210.241 71.37L210.731 69.774H211.459V71.496H213.629V72.448H211.459V76.788C211.459 77.2453 211.567 77.586 211.781 77.81C212.005 78.0247 212.29 78.132 212.635 78.132ZM215.818 68.682C216.005 68.682 216.168 68.7473 216.308 68.878C216.457 68.9993 216.532 69.1953 216.532 69.466C216.532 69.7367 216.457 69.9373 216.308 70.068C216.168 70.1893 216.005 70.25 215.818 70.25C215.613 70.25 215.44 70.1893 215.3 70.068C215.16 69.9373 215.09 69.7367 215.09 69.466C215.09 69.1953 215.16 68.9993 215.3 68.878C215.44 68.7473 215.613 68.682 215.818 68.682ZM216.42 71.496V79H215.188V71.496H216.42ZM220.029 79H218.797V68.36H220.029V79ZM223.037 68.682C223.223 68.682 223.387 68.7473 223.527 68.878C223.676 68.9993 223.751 69.1953 223.751 69.466C223.751 69.7367 223.676 69.9373 223.527 70.068C223.387 70.1893 223.223 70.25 223.037 70.25C222.831 70.25 222.659 70.1893 222.519 70.068C222.379 69.9373 222.309 69.7367 222.309 69.466C222.309 69.1953 222.379 68.9993 222.519 68.878C222.659 68.7473 222.831 68.682 223.037 68.682ZM223.639 71.496V79H222.407V71.496H223.639ZM229.628 71.356C230.524 71.356 231.201 71.5753 231.658 72.014C232.116 72.4527 232.344 73.1527 232.344 74.114V79H231.126V74.198C231.126 72.994 230.566 72.392 229.446 72.392C228.616 72.392 228.042 72.6253 227.724 73.092C227.407 73.5587 227.248 74.2307 227.248 75.108V79H226.016V71.496H227.01L227.192 72.518H227.262C227.505 72.126 227.841 71.8367 228.27 71.65C228.7 71.454 229.152 71.356 229.628 71.356ZM237.568 71.356C238.203 71.356 238.754 71.496 239.22 71.776C239.687 72.056 240.042 72.4527 240.284 72.966C240.536 73.47 240.662 74.0627 240.662 74.744V75.486H235.524C235.543 76.3353 235.758 76.984 236.168 77.432C236.588 77.8707 237.172 78.09 237.918 78.09C238.394 78.09 238.814 78.048 239.178 77.964C239.552 77.8707 239.934 77.74 240.326 77.572V78.65C239.944 78.818 239.566 78.9393 239.192 79.014C238.819 79.098 238.376 79.14 237.862 79.14C237.144 79.14 236.514 78.9953 235.972 78.706C235.431 78.4167 235.006 77.9873 234.698 77.418C234.4 76.8487 234.25 76.144 234.25 75.304C234.25 74.4827 234.386 73.778 234.656 73.19C234.936 72.602 235.324 72.1493 235.818 71.832C236.322 71.5147 236.906 71.356 237.568 71.356ZM237.554 72.364C236.966 72.364 236.5 72.5553 236.154 72.938C235.818 73.3113 235.618 73.834 235.552 74.506H239.374C239.365 73.8713 239.216 73.358 238.926 72.966C238.637 72.5647 238.18 72.364 237.554 72.364ZM249.542 79H248.282V70.11H245.16V69.004H252.65V70.11H249.542V79ZM255.902 71.356C256.537 71.356 257.088 71.496 257.554 71.776C258.021 72.056 258.376 72.4527 258.618 72.966C258.87 73.47 258.996 74.0627 258.996 74.744V75.486H253.858C253.877 76.3353 254.092 76.984 254.502 77.432C254.922 77.8707 255.506 78.09 256.252 78.09C256.728 78.09 257.148 78.048 257.512 77.964C257.886 77.8707 258.268 77.74 258.66 77.572V78.65C258.278 78.818 257.9 78.9393 257.526 79.014C257.153 79.098 256.71 79.14 256.196 79.14C255.478 79.14 254.848 78.9953 254.306 78.706C253.765 78.4167 253.34 77.9873 253.032 77.418C252.734 76.8487 252.584 76.144 252.584 75.304C252.584 74.4827 252.72 73.778 252.99 73.19C253.27 72.602 253.658 72.1493 254.152 71.832C254.656 71.5147 255.24 71.356 255.902 71.356ZM255.888 72.364C255.3 72.364 254.834 72.5553 254.488 72.938C254.152 73.3113 253.952 73.834 253.886 74.506H257.708C257.699 73.8713 257.55 73.358 257.26 72.966C256.971 72.5647 256.514 72.364 255.888 72.364ZM262.411 75.164L259.821 71.496H261.221L263.153 74.324L265.071 71.496H266.457L263.867 75.164L266.597 79H265.197L263.153 76.004L261.081 79H259.695L262.411 75.164ZM270.55 78.132C270.736 78.132 270.928 78.118 271.124 78.09C271.32 78.062 271.478 78.0247 271.6 77.978V78.916C271.469 78.9813 271.282 79.0327 271.04 79.07C270.797 79.1167 270.564 79.14 270.34 79.14C269.948 79.14 269.584 79.0747 269.248 78.944C268.921 78.804 268.655 78.566 268.45 78.23C268.244 77.894 268.142 77.4227 268.142 76.816V72.448H267.078V71.86L268.156 71.37L268.646 69.774H269.374V71.496H271.544V72.448H269.374V76.788C269.374 77.2453 269.481 77.586 269.696 77.81C269.92 78.0247 270.204 78.132 270.55 78.132Z" fill="black"/>
<circle cx="134" cy="102" r="7.5" fill="white" stroke="#1B77AF"/>
<path d="M154.116 97.004C155.357 97.004 156.272 97.242 156.86 97.718C157.457 98.1847 157.756 98.894 157.756 99.846C157.756 100.378 157.658 100.821 157.462 101.176C157.266 101.531 157.014 101.815 156.706 102.03C156.407 102.245 156.09 102.408 155.754 102.52L158.498 107H157.028L154.606 102.87H152.618V107H151.358V97.004H154.116ZM154.046 98.096H152.618V101.806H154.116C154.928 101.806 155.521 101.647 155.894 101.33C156.267 101.003 156.454 100.527 156.454 99.902C156.454 99.2487 156.258 98.7867 155.866 98.516C155.474 98.236 154.867 98.096 154.046 98.096ZM162.741 99.37C163.656 99.37 164.332 99.5707 164.771 99.972C165.21 100.373 165.429 101.013 165.429 101.89V107H164.533L164.295 105.936H164.239C163.912 106.347 163.567 106.65 163.203 106.846C162.839 107.042 162.344 107.14 161.719 107.14C161.038 107.14 160.473 106.963 160.025 106.608C159.577 106.244 159.353 105.679 159.353 104.914C159.353 104.167 159.647 103.593 160.235 103.192C160.823 102.781 161.728 102.557 162.951 102.52L164.225 102.478V102.03C164.225 101.405 164.09 100.971 163.819 100.728C163.548 100.485 163.166 100.364 162.671 100.364C162.279 100.364 161.906 100.425 161.551 100.546C161.196 100.658 160.865 100.789 160.557 100.938L160.179 100.014C160.506 99.8367 160.893 99.6873 161.341 99.566C161.789 99.4353 162.256 99.37 162.741 99.37ZM164.211 103.332L163.105 103.374C162.172 103.411 161.523 103.561 161.159 103.822C160.804 104.083 160.627 104.452 160.627 104.928C160.627 105.348 160.753 105.656 161.005 105.852C161.266 106.048 161.598 106.146 161.999 106.146C162.624 106.146 163.147 105.973 163.567 105.628C163.996 105.273 164.211 104.732 164.211 104.004V103.332ZM170.407 107.14C169.473 107.14 168.727 106.818 168.167 106.174C167.607 105.521 167.327 104.55 167.327 103.262C167.327 101.974 167.607 101.003 168.167 100.35C168.736 99.6873 169.487 99.356 170.421 99.356C170.999 99.356 171.471 99.4633 171.835 99.678C172.208 99.8927 172.511 100.154 172.745 100.462H172.829C172.81 100.341 172.791 100.163 172.773 99.93C172.754 99.6873 172.745 99.496 172.745 99.356V96.36H173.977V107H172.983L172.801 105.992H172.745C172.521 106.309 172.222 106.58 171.849 106.804C171.475 107.028 170.995 107.14 170.407 107.14ZM170.603 106.118C171.396 106.118 171.951 105.903 172.269 105.474C172.595 105.035 172.759 104.377 172.759 103.5V103.276C172.759 102.343 172.605 101.629 172.297 101.134C171.989 100.63 171.419 100.378 170.589 100.378C169.926 100.378 169.427 100.644 169.091 101.176C168.764 101.699 168.601 102.403 168.601 103.29C168.601 104.186 168.764 104.881 169.091 105.376C169.427 105.871 169.931 106.118 170.603 106.118ZM176.99 96.682C177.177 96.682 177.34 96.7473 177.48 96.878C177.629 96.9993 177.704 97.1953 177.704 97.466C177.704 97.7367 177.629 97.9373 177.48 98.068C177.34 98.1893 177.177 98.25 176.99 98.25C176.785 98.25 176.612 98.1893 176.472 98.068C176.332 97.9373 176.262 97.7367 176.262 97.466C176.262 97.1953 176.332 96.9993 176.472 96.878C176.612 96.7473 176.785 96.682 176.99 96.682ZM177.592 99.496V107H176.36V99.496H177.592ZM186.493 103.234C186.493 104.475 186.176 105.437 185.541 106.118C184.916 106.799 184.067 107.14 182.993 107.14C182.331 107.14 181.738 106.991 181.215 106.692C180.702 106.384 180.296 105.941 179.997 105.362C179.699 104.774 179.549 104.065 179.549 103.234C179.549 101.993 179.857 101.036 180.473 100.364C181.099 99.692 181.953 99.356 183.035 99.356C183.707 99.356 184.305 99.51 184.827 99.818C185.35 100.117 185.756 100.555 186.045 101.134C186.344 101.703 186.493 102.403 186.493 103.234ZM180.823 103.234C180.823 104.121 180.996 104.825 181.341 105.348C181.696 105.861 182.256 106.118 183.021 106.118C183.777 106.118 184.333 105.861 184.687 105.348C185.042 104.825 185.219 104.121 185.219 103.234C185.219 102.347 185.042 101.652 184.687 101.148C184.333 100.644 183.773 100.392 183.007 100.392C182.242 100.392 181.687 100.644 181.341 101.148C180.996 101.652 180.823 102.347 180.823 103.234ZM192.251 97.004H195.107C196.348 97.004 197.291 97.1907 197.935 97.564C198.579 97.9373 198.901 98.5767 198.901 99.482C198.901 100.07 198.737 100.56 198.411 100.952C198.084 101.335 197.613 101.582 196.997 101.694V101.764C197.417 101.839 197.795 101.965 198.131 102.142C198.476 102.319 198.747 102.571 198.943 102.898C199.139 103.225 199.237 103.645 199.237 104.158C199.237 105.063 198.924 105.763 198.299 106.258C197.683 106.753 196.838 107 195.765 107H192.251V97.004ZM193.511 101.26H195.359C196.208 101.26 196.791 101.125 197.109 100.854C197.435 100.574 197.599 100.163 197.599 99.622C197.599 99.0713 197.403 98.6793 197.011 98.446C196.628 98.2033 196.012 98.082 195.163 98.082H193.511V101.26ZM193.511 102.31V105.936H195.527C196.413 105.936 197.029 105.763 197.375 105.418C197.72 105.073 197.893 104.62 197.893 104.06C197.893 103.537 197.711 103.117 197.347 102.8C196.992 102.473 196.353 102.31 195.429 102.31H193.511ZM207.46 99.496V107H206.452L206.27 106.006H206.214C205.971 106.398 205.635 106.687 205.206 106.874C204.777 107.051 204.319 107.14 203.834 107.14C202.929 107.14 202.247 106.925 201.79 106.496C201.333 106.057 201.104 105.362 201.104 104.41V99.496H202.35V104.326C202.35 105.521 202.905 106.118 204.016 106.118C204.847 106.118 205.421 105.885 205.738 105.418C206.065 104.951 206.228 104.279 206.228 103.402V99.496H207.46ZM212.348 106.132C212.535 106.132 212.726 106.118 212.922 106.09C213.118 106.062 213.277 106.025 213.398 105.978V106.916C213.268 106.981 213.081 107.033 212.838 107.07C212.596 107.117 212.362 107.14 212.138 107.14C211.746 107.14 211.382 107.075 211.046 106.944C210.72 106.804 210.454 106.566 210.248 106.23C210.043 105.894 209.94 105.423 209.94 104.816V100.448H208.876V99.86L209.954 99.37L210.444 97.774H211.172V99.496H213.342V100.448H211.172V104.788C211.172 105.245 211.28 105.586 211.494 105.81C211.718 106.025 212.003 106.132 212.348 106.132ZM217.407 106.132C217.594 106.132 217.785 106.118 217.981 106.09C218.177 106.062 218.336 106.025 218.457 105.978V106.916C218.326 106.981 218.14 107.033 217.897 107.07C217.654 107.117 217.421 107.14 217.197 107.14C216.805 107.14 216.441 107.075 216.105 106.944C215.778 106.804 215.512 106.566 215.307 106.23C215.102 105.894 214.999 105.423 214.999 104.816V100.448H213.935V99.86L215.013 99.37L215.503 97.774H216.231V99.496H218.401V100.448H216.231V104.788C216.231 105.245 216.338 105.586 216.553 105.81C216.777 106.025 217.062 106.132 217.407 106.132ZM226.484 103.234C226.484 104.475 226.166 105.437 225.532 106.118C224.906 106.799 224.057 107.14 222.984 107.14C222.321 107.14 221.728 106.991 221.206 106.692C220.692 106.384 220.286 105.941 219.988 105.362C219.689 104.774 219.54 104.065 219.54 103.234C219.54 101.993 219.848 101.036 220.464 100.364C221.089 99.692 221.943 99.356 223.026 99.356C223.698 99.356 224.295 99.51 224.818 99.818C225.34 100.117 225.746 100.555 226.036 101.134C226.334 101.703 226.484 102.403 226.484 103.234ZM220.814 103.234C220.814 104.121 220.986 104.825 221.332 105.348C221.686 105.861 222.246 106.118 223.012 106.118C223.768 106.118 224.323 105.861 224.678 105.348C225.032 104.825 225.21 104.121 225.21 103.234C225.21 102.347 225.032 101.652 224.678 101.148C224.323 100.644 223.763 100.392 222.998 100.392C222.232 100.392 221.677 100.644 221.332 101.148C220.986 101.652 220.814 102.347 220.814 103.234ZM232.048 99.356C232.944 99.356 233.621 99.5753 234.078 100.014C234.535 100.453 234.764 101.153 234.764 102.114V107H233.546V102.198C233.546 100.994 232.986 100.392 231.866 100.392C231.035 100.392 230.461 100.625 230.144 101.092C229.827 101.559 229.668 102.231 229.668 103.108V107H228.436V99.496H229.43L229.612 100.518H229.682C229.925 100.126 230.261 99.8367 230.69 99.65C231.119 99.454 231.572 99.356 232.048 99.356Z" fill="black"/>
<path d="M162.838 117.004L160.178 127H158.904L156.958 120.448C156.874 120.187 156.795 119.921 156.72 119.65C156.655 119.37 156.594 119.127 156.538 118.922C156.491 118.707 156.463 118.558 156.454 118.474C156.445 118.595 156.393 118.857 156.3 119.258C156.207 119.65 156.099 120.061 155.978 120.49L154.088 127H152.814L150.168 117.004H151.484L153.038 123.108C153.15 123.537 153.243 123.953 153.318 124.354C153.402 124.755 153.467 125.133 153.514 125.488C153.561 125.124 153.631 124.727 153.724 124.298C153.817 123.869 153.925 123.449 154.046 123.038L155.81 117.004H157.112L158.946 123.08C159.077 123.509 159.189 123.939 159.282 124.368C159.375 124.797 159.445 125.171 159.492 125.488C159.529 125.143 159.59 124.769 159.674 124.368C159.767 123.957 159.87 123.533 159.982 123.094L161.522 117.004H162.838ZM164.836 116.682C165.022 116.682 165.186 116.747 165.326 116.878C165.475 116.999 165.55 117.195 165.55 117.466C165.55 117.737 165.475 117.937 165.326 118.068C165.186 118.189 165.022 118.25 164.836 118.25C164.63 118.25 164.458 118.189 164.318 118.068C164.178 117.937 164.108 117.737 164.108 117.466C164.108 117.195 164.178 116.999 164.318 116.878C164.458 116.747 164.63 116.682 164.836 116.682ZM165.438 119.496V127H164.206V119.496H165.438ZM170.321 126.132C170.508 126.132 170.699 126.118 170.895 126.09C171.091 126.062 171.25 126.025 171.371 125.978V126.916C171.24 126.981 171.054 127.033 170.811 127.07C170.568 127.117 170.335 127.14 170.111 127.14C169.719 127.14 169.355 127.075 169.019 126.944C168.692 126.804 168.426 126.566 168.221 126.23C168.016 125.894 167.913 125.423 167.913 124.816V120.448H166.849V119.86L167.927 119.37L168.417 117.774H169.145V119.496H171.315V120.448H169.145V124.788C169.145 125.245 169.252 125.586 169.467 125.81C169.691 126.025 169.976 126.132 170.321 126.132ZM174.106 116.36V119.482C174.106 119.855 174.082 120.205 174.036 120.532H174.12C174.362 120.149 174.689 119.86 175.1 119.664C175.52 119.468 175.972 119.37 176.458 119.37C177.363 119.37 178.044 119.589 178.502 120.028C178.968 120.457 179.202 121.153 179.202 122.114V127H177.984V122.198C177.984 120.994 177.424 120.392 176.304 120.392C175.464 120.392 174.885 120.63 174.568 121.106C174.26 121.573 174.106 122.245 174.106 123.122V127H172.874V116.36H174.106ZM189.743 127L186.453 118.236H186.397C186.425 118.525 186.448 118.917 186.467 119.412C186.485 119.897 186.495 120.406 186.495 120.938V127H185.333V117.004H187.195L190.275 125.194H190.331L193.467 117.004H195.315V127H194.069V120.854C194.069 120.369 194.078 119.888 194.097 119.412C194.125 118.936 194.148 118.549 194.167 118.25H194.111L190.779 127H189.743ZM204.138 119.496V127H203.13L202.948 126.006H202.892C202.649 126.398 202.313 126.687 201.884 126.874C201.454 127.051 200.997 127.14 200.512 127.14C199.606 127.14 198.925 126.925 198.468 126.496C198.01 126.057 197.782 125.362 197.782 124.41V119.496H199.028V124.326C199.028 125.521 199.583 126.118 200.694 126.118C201.524 126.118 202.098 125.885 202.416 125.418C202.742 124.951 202.906 124.279 202.906 123.402V119.496H204.138ZM207.752 127H206.52V116.36H207.752V127ZM212.635 126.132C212.822 126.132 213.013 126.118 213.209 126.09C213.405 126.062 213.564 126.025 213.685 125.978V126.916C213.555 126.981 213.368 127.033 213.125 127.07C212.883 127.117 212.649 127.14 212.425 127.14C212.033 127.14 211.669 127.075 211.333 126.944C211.007 126.804 210.741 126.566 210.535 126.23C210.33 125.894 210.227 125.423 210.227 124.816V120.448H209.163V119.86L210.241 119.37L210.731 117.774H211.459V119.496H213.629V120.448H211.459V124.788C211.459 125.245 211.567 125.586 211.781 125.81C212.005 126.025 212.29 126.132 212.635 126.132ZM215.818 116.682C216.005 116.682 216.168 116.747 216.308 116.878C216.457 116.999 216.532 117.195 216.532 117.466C216.532 117.737 216.457 117.937 216.308 118.068C216.168 118.189 216.005 118.25 215.818 118.25C215.613 118.25 215.44 118.189 215.3 118.068C215.16 117.937 215.09 117.737 215.09 117.466C215.09 117.195 215.16 116.999 215.3 116.878C215.44 116.747 215.613 116.682 215.818 116.682ZM216.42 119.496V127H215.188V119.496H216.42ZM220.029 127H218.797V116.36H220.029V127ZM223.037 116.682C223.223 116.682 223.387 116.747 223.527 116.878C223.676 116.999 223.751 117.195 223.751 117.466C223.751 117.737 223.676 117.937 223.527 118.068C223.387 118.189 223.223 118.25 223.037 118.25C222.831 118.25 222.659 118.189 222.519 118.068C222.379 117.937 222.309 117.737 222.309 117.466C222.309 117.195 222.379 116.999 222.519 116.878C222.659 116.747 222.831 116.682 223.037 116.682ZM223.639 119.496V127H222.407V119.496H223.639ZM229.628 119.356C230.524 119.356 231.201 119.575 231.658 120.014C232.116 120.453 232.344 121.153 232.344 122.114V127H231.126V122.198C231.126 120.994 230.566 120.392 229.446 120.392C228.616 120.392 228.042 120.625 227.724 121.092C227.407 121.559 227.248 122.231 227.248 123.108V127H226.016V119.496H227.01L227.192 120.518H227.262C227.505 120.126 227.841 119.837 228.27 119.65C228.7 119.454 229.152 119.356 229.628 119.356ZM237.568 119.356C238.203 119.356 238.754 119.496 239.22 119.776C239.687 120.056 240.042 120.453 240.284 120.966C240.536 121.47 240.662 122.063 240.662 122.744V123.486H235.524C235.543 124.335 235.758 124.984 236.168 125.432C236.588 125.871 237.172 126.09 237.918 126.09C238.394 126.09 238.814 126.048 239.178 125.964C239.552 125.871 239.934 125.74 240.326 125.572V126.65C239.944 126.818 239.566 126.939 239.192 127.014C238.819 127.098 238.376 127.14 237.862 127.14C237.144 127.14 236.514 126.995 235.972 126.706C235.431 126.417 235.006 125.987 234.698 125.418C234.4 124.849 234.25 124.144 234.25 123.304C234.25 122.483 234.386 121.778 234.656 121.19C234.936 120.602 235.324 120.149 235.818 119.832C236.322 119.515 236.906 119.356 237.568 119.356ZM237.554 120.364C236.966 120.364 236.5 120.555 236.154 120.938C235.818 121.311 235.618 121.834 235.552 122.506H239.374C239.365 121.871 239.216 121.358 238.926 120.966C238.637 120.565 238.18 120.364 237.554 120.364ZM249.542 127H248.282V118.11H245.16V117.004H252.65V118.11H249.542V127ZM255.902 119.356C256.537 119.356 257.088 119.496 257.554 119.776C258.021 120.056 258.376 120.453 258.618 120.966C258.87 121.47 258.996 122.063 258.996 122.744V123.486H253.858C253.877 124.335 254.092 124.984 254.502 125.432C254.922 125.871 255.506 126.09 256.252 126.09C256.728 126.09 257.148 126.048 257.512 125.964C257.886 125.871 258.268 125.74 258.66 125.572V126.65C258.278 126.818 257.9 126.939 257.526 127.014C257.153 127.098 256.71 127.14 256.196 127.14C255.478 127.14 254.848 126.995 254.306 126.706C253.765 126.417 253.34 125.987 253.032 125.418C252.734 124.849 252.584 124.144 252.584 123.304C252.584 122.483 252.72 121.778 252.99 121.19C253.27 120.602 253.658 120.149 254.152 119.832C254.656 119.515 255.24 119.356 255.902 119.356ZM255.888 120.364C255.3 120.364 254.834 120.555 254.488 120.938C254.152 121.311 253.952 121.834 253.886 122.506H257.708C257.699 121.871 257.55 121.358 257.26 120.966C256.971 120.565 256.514 120.364 255.888 120.364ZM262.411 123.164L259.821 119.496H261.221L263.153 122.324L265.071 119.496H266.457L263.867 123.164L266.597 127H265.197L263.153 124.004L261.081 127H259.695L262.411 123.164ZM270.55 126.132C270.736 126.132 270.928 126.118 271.124 126.09C271.32 126.062 271.478 126.025 271.6 125.978V126.916C271.469 126.981 271.282 127.033 271.04 127.07C270.797 127.117 270.564 127.14 270.34 127.14C269.948 127.14 269.584 127.075 269.248 126.944C268.921 126.804 268.655 126.566 268.45 126.23C268.244 125.894 268.142 125.423 268.142 124.816V120.448H267.078V119.86L268.156 119.37L268.646 117.774H269.374V119.496H271.544V120.448H269.374V124.788C269.374 125.245 269.481 125.586 269.696 125.81C269.92 126.025 270.204 126.132 270.55 126.132Z" fill="black"/>
<circle cx="134" cy="150" r="7.5" fill="white" stroke="#1B77AF"/>
<path d="M154.116 145.004C155.357 145.004 156.272 145.242 156.86 145.718C157.457 146.185 157.756 146.894 157.756 147.846C157.756 148.378 157.658 148.821 157.462 149.176C157.266 149.531 157.014 149.815 156.706 150.03C156.407 150.245 156.09 150.408 155.754 150.52L158.498 155H157.028L154.606 150.87H152.618V155H151.358V145.004H154.116ZM154.046 146.096H152.618V149.806H154.116C154.928 149.806 155.521 149.647 155.894 149.33C156.267 149.003 156.454 148.527 156.454 147.902C156.454 147.249 156.258 146.787 155.866 146.516C155.474 146.236 154.867 146.096 154.046 146.096ZM162.741 147.37C163.656 147.37 164.332 147.571 164.771 147.972C165.21 148.373 165.429 149.013 165.429 149.89V155H164.533L164.295 153.936H164.239C163.912 154.347 163.567 154.65 163.203 154.846C162.839 155.042 162.344 155.14 161.719 155.14C161.038 155.14 160.473 154.963 160.025 154.608C159.577 154.244 159.353 153.679 159.353 152.914C159.353 152.167 159.647 151.593 160.235 151.192C160.823 150.781 161.728 150.557 162.951 150.52L164.225 150.478V150.03C164.225 149.405 164.09 148.971 163.819 148.728C163.548 148.485 163.166 148.364 162.671 148.364C162.279 148.364 161.906 148.425 161.551 148.546C161.196 148.658 160.865 148.789 160.557 148.938L160.179 148.014C160.506 147.837 160.893 147.687 161.341 147.566C161.789 147.435 162.256 147.37 162.741 147.37ZM164.211 151.332L163.105 151.374C162.172 151.411 161.523 151.561 161.159 151.822C160.804 152.083 160.627 152.452 160.627 152.928C160.627 153.348 160.753 153.656 161.005 153.852C161.266 154.048 161.598 154.146 161.999 154.146C162.624 154.146 163.147 153.973 163.567 153.628C163.996 153.273 164.211 152.732 164.211 152.004V151.332ZM170.407 155.14C169.473 155.14 168.727 154.818 168.167 154.174C167.607 153.521 167.327 152.55 167.327 151.262C167.327 149.974 167.607 149.003 168.167 148.35C168.736 147.687 169.487 147.356 170.421 147.356C170.999 147.356 171.471 147.463 171.835 147.678C172.208 147.893 172.511 148.154 172.745 148.462H172.829C172.81 148.341 172.791 148.163 172.773 147.93C172.754 147.687 172.745 147.496 172.745 147.356V144.36H173.977V155H172.983L172.801 153.992H172.745C172.521 154.309 172.222 154.58 171.849 154.804C171.475 155.028 170.995 155.14 170.407 155.14ZM170.603 154.118C171.396 154.118 171.951 153.903 172.269 153.474C172.595 153.035 172.759 152.377 172.759 151.5V151.276C172.759 150.343 172.605 149.629 172.297 149.134C171.989 148.63 171.419 148.378 170.589 148.378C169.926 148.378 169.427 148.644 169.091 149.176C168.764 149.699 168.601 150.403 168.601 151.29C168.601 152.186 168.764 152.881 169.091 153.376C169.427 153.871 169.931 154.118 170.603 154.118ZM176.99 144.682C177.177 144.682 177.34 144.747 177.48 144.878C177.629 144.999 177.704 145.195 177.704 145.466C177.704 145.737 177.629 145.937 177.48 146.068C177.34 146.189 177.177 146.25 176.99 146.25C176.785 146.25 176.612 146.189 176.472 146.068C176.332 145.937 176.262 145.737 176.262 145.466C176.262 145.195 176.332 144.999 176.472 144.878C176.612 144.747 176.785 144.682 176.99 144.682ZM177.592 147.496V155H176.36V147.496H177.592ZM186.493 151.234C186.493 152.475 186.176 153.437 185.541 154.118C184.916 154.799 184.067 155.14 182.993 155.14C182.331 155.14 181.738 154.991 181.215 154.692C180.702 154.384 180.296 153.941 179.997 153.362C179.699 152.774 179.549 152.065 179.549 151.234C179.549 149.993 179.857 149.036 180.473 148.364C181.099 147.692 181.953 147.356 183.035 147.356C183.707 147.356 184.305 147.51 184.827 147.818C185.35 148.117 185.756 148.555 186.045 149.134C186.344 149.703 186.493 150.403 186.493 151.234ZM180.823 151.234C180.823 152.121 180.996 152.825 181.341 153.348C181.696 153.861 182.256 154.118 183.021 154.118C183.777 154.118 184.333 153.861 184.687 153.348C185.042 152.825 185.219 152.121 185.219 151.234C185.219 150.347 185.042 149.652 184.687 149.148C184.333 148.644 183.773 148.392 183.007 148.392C182.242 148.392 181.687 148.644 181.341 149.148C180.996 149.652 180.823 150.347 180.823 151.234ZM192.251 145.004H195.107C196.348 145.004 197.291 145.191 197.935 145.564C198.579 145.937 198.901 146.577 198.901 147.482C198.901 148.07 198.737 148.56 198.411 148.952C198.084 149.335 197.613 149.582 196.997 149.694V149.764C197.417 149.839 197.795 149.965 198.131 150.142C198.476 150.319 198.747 150.571 198.943 150.898C199.139 151.225 199.237 151.645 199.237 152.158C199.237 153.063 198.924 153.763 198.299 154.258C197.683 154.753 196.838 155 195.765 155H192.251V145.004ZM193.511 149.26H195.359C196.208 149.26 196.791 149.125 197.109 148.854C197.435 148.574 197.599 148.163 197.599 147.622C197.599 147.071 197.403 146.679 197.011 146.446C196.628 146.203 196.012 146.082 195.163 146.082H193.511V149.26ZM193.511 150.31V153.936H195.527C196.413 153.936 197.029 153.763 197.375 153.418C197.72 153.073 197.893 152.62 197.893 152.06C197.893 151.537 197.711 151.117 197.347 150.8C196.992 150.473 196.353 150.31 195.429 150.31H193.511ZM207.46 147.496V155H206.452L206.27 154.006H206.214C205.971 154.398 205.635 154.687 205.206 154.874C204.777 155.051 204.319 155.14 203.834 155.14C202.929 155.14 202.247 154.925 201.79 154.496C201.333 154.057 201.104 153.362 201.104 152.41V147.496H202.35V152.326C202.35 153.521 202.905 154.118 204.016 154.118C204.847 154.118 205.421 153.885 205.738 153.418C206.065 152.951 206.228 152.279 206.228 151.402V147.496H207.46ZM212.348 154.132C212.535 154.132 212.726 154.118 212.922 154.09C213.118 154.062 213.277 154.025 213.398 153.978V154.916C213.268 154.981 213.081 155.033 212.838 155.07C212.596 155.117 212.362 155.14 212.138 155.14C211.746 155.14 211.382 155.075 211.046 154.944C210.72 154.804 210.454 154.566 210.248 154.23C210.043 153.894 209.94 153.423 209.94 152.816V148.448H208.876V147.86L209.954 147.37L210.444 145.774H211.172V147.496H213.342V148.448H211.172V152.788C211.172 153.245 211.28 153.586 211.494 153.81C211.718 154.025 212.003 154.132 212.348 154.132ZM217.407 154.132C217.594 154.132 217.785 154.118 217.981 154.09C218.177 154.062 218.336 154.025 218.457 153.978V154.916C218.326 154.981 218.14 155.033 217.897 155.07C217.654 155.117 217.421 155.14 217.197 155.14C216.805 155.14 216.441 155.075 216.105 154.944C215.778 154.804 215.512 154.566 215.307 154.23C215.102 153.894 214.999 153.423 214.999 152.816V148.448H213.935V147.86L215.013 147.37L215.503 145.774H216.231V147.496H218.401V148.448H216.231V152.788C216.231 153.245 216.338 153.586 216.553 153.81C216.777 154.025 217.062 154.132 217.407 154.132ZM226.484 151.234C226.484 152.475 226.166 153.437 225.532 154.118C224.906 154.799 224.057 155.14 222.984 155.14C222.321 155.14 221.728 154.991 221.206 154.692C220.692 154.384 220.286 153.941 219.988 153.362C219.689 152.774 219.54 152.065 219.54 151.234C219.54 149.993 219.848 149.036 220.464 148.364C221.089 147.692 221.943 147.356 223.026 147.356C223.698 147.356 224.295 147.51 224.818 147.818C225.34 148.117 225.746 148.555 226.036 149.134C226.334 149.703 226.484 150.403 226.484 151.234ZM220.814 151.234C220.814 152.121 220.986 152.825 221.332 153.348C221.686 153.861 222.246 154.118 223.012 154.118C223.768 154.118 224.323 153.861 224.678 153.348C225.032 152.825 225.21 152.121 225.21 151.234C225.21 150.347 225.032 149.652 224.678 149.148C224.323 148.644 223.763 148.392 222.998 148.392C222.232 148.392 221.677 148.644 221.332 149.148C220.986 149.652 220.814 150.347 220.814 151.234ZM232.048 147.356C232.944 147.356 233.621 147.575 234.078 148.014C234.535 148.453 234.764 149.153 234.764 150.114V155H233.546V150.198C233.546 148.994 232.986 148.392 231.866 148.392C231.035 148.392 230.461 148.625 230.144 149.092C229.827 149.559 229.668 150.231 229.668 151.108V155H228.436V147.496H229.43L229.612 148.518H229.682C229.925 148.126 230.261 147.837 230.69 147.65C231.119 147.454 231.572 147.356 232.048 147.356Z" fill="black"/>
<path d="M162.838 165.004L160.178 175H158.904L156.958 168.448C156.874 168.187 156.795 167.921 156.72 167.65C156.655 167.37 156.594 167.127 156.538 166.922C156.491 166.707 156.463 166.558 156.454 166.474C156.445 166.595 156.393 166.857 156.3 167.258C156.207 167.65 156.099 168.061 155.978 168.49L154.088 175H152.814L150.168 165.004H151.484L153.038 171.108C153.15 171.537 153.243 171.953 153.318 172.354C153.402 172.755 153.467 173.133 153.514 173.488C153.561 173.124 153.631 172.727 153.724 172.298C153.817 171.869 153.925 171.449 154.046 171.038L155.81 165.004H157.112L158.946 171.08C159.077 171.509 159.189 171.939 159.282 172.368C159.375 172.797 159.445 173.171 159.492 173.488C159.529 173.143 159.59 172.769 159.674 172.368C159.767 171.957 159.87 171.533 159.982 171.094L161.522 165.004H162.838ZM164.836 164.682C165.022 164.682 165.186 164.747 165.326 164.878C165.475 164.999 165.55 165.195 165.55 165.466C165.55 165.737 165.475 165.937 165.326 166.068C165.186 166.189 165.022 166.25 164.836 166.25C164.63 166.25 164.458 166.189 164.318 166.068C164.178 165.937 164.108 165.737 164.108 165.466C164.108 165.195 164.178 164.999 164.318 164.878C164.458 164.747 164.63 164.682 164.836 164.682ZM165.438 167.496V175H164.206V167.496H165.438ZM170.321 174.132C170.508 174.132 170.699 174.118 170.895 174.09C171.091 174.062 171.25 174.025 171.371 173.978V174.916C171.24 174.981 171.054 175.033 170.811 175.07C170.568 175.117 170.335 175.14 170.111 175.14C169.719 175.14 169.355 175.075 169.019 174.944C168.692 174.804 168.426 174.566 168.221 174.23C168.016 173.894 167.913 173.423 167.913 172.816V168.448H166.849V167.86L167.927 167.37L168.417 165.774H169.145V167.496H171.315V168.448H169.145V172.788C169.145 173.245 169.252 173.586 169.467 173.81C169.691 174.025 169.976 174.132 170.321 174.132ZM174.106 164.36V167.482C174.106 167.855 174.082 168.205 174.036 168.532H174.12C174.362 168.149 174.689 167.86 175.1 167.664C175.52 167.468 175.972 167.37 176.458 167.37C177.363 167.37 178.044 167.589 178.502 168.028C178.968 168.457 179.202 169.153 179.202 170.114V175H177.984V170.198C177.984 168.994 177.424 168.392 176.304 168.392C175.464 168.392 174.885 168.63 174.568 169.106C174.26 169.573 174.106 170.245 174.106 171.122V175H172.874V164.36H174.106ZM189.743 175L186.453 166.236H186.397C186.425 166.525 186.448 166.917 186.467 167.412C186.485 167.897 186.495 168.406 186.495 168.938V175H185.333V165.004H187.195L190.275 173.194H190.331L193.467 165.004H195.315V175H194.069V168.854C194.069 168.369 194.078 167.888 194.097 167.412C194.125 166.936 194.148 166.549 194.167 166.25H194.111L190.779 175H189.743ZM204.138 167.496V175H203.13L202.948 174.006H202.892C202.649 174.398 202.313 174.687 201.884 174.874C201.454 175.051 200.997 175.14 200.512 175.14C199.606 175.14 198.925 174.925 198.468 174.496C198.01 174.057 197.782 173.362 197.782 172.41V167.496H199.028V172.326C199.028 173.521 199.583 174.118 200.694 174.118C201.524 174.118 202.098 173.885 202.416 173.418C202.742 172.951 202.906 172.279 202.906 171.402V167.496H204.138ZM207.752 175H206.52V164.36H207.752V175ZM212.635 174.132C212.822 174.132 213.013 174.118 213.209 174.09C213.405 174.062 213.564 174.025 213.685 173.978V174.916C213.555 174.981 213.368 175.033 213.125 175.07C212.883 175.117 212.649 175.14 212.425 175.14C212.033 175.14 211.669 175.075 211.333 174.944C211.007 174.804 210.741 174.566 210.535 174.23C210.33 173.894 210.227 173.423 210.227 172.816V168.448H209.163V167.86L210.241 167.37L210.731 165.774H211.459V167.496H213.629V168.448H211.459V172.788C211.459 173.245 211.567 173.586 211.781 173.81C212.005 174.025 212.29 174.132 212.635 174.132ZM215.818 164.682C216.005 164.682 216.168 164.747 216.308 164.878C216.457 164.999 216.532 165.195 216.532 165.466C216.532 165.737 216.457 165.937 216.308 166.068C216.168 166.189 216.005 166.25 215.818 166.25C215.613 166.25 215.44 166.189 215.3 166.068C215.16 165.937 215.09 165.737 215.09 165.466C215.09 165.195 215.16 164.999 215.3 164.878C215.44 164.747 215.613 164.682 215.818 164.682ZM216.42 167.496V175H215.188V167.496H216.42ZM220.029 175H218.797V164.36H220.029V175ZM223.037 164.682C223.223 164.682 223.387 164.747 223.527 164.878C223.676 164.999 223.751 165.195 223.751 165.466C223.751 165.737 223.676 165.937 223.527 166.068C223.387 166.189 223.223 166.25 223.037 166.25C222.831 166.25 222.659 166.189 222.519 166.068C222.379 165.937 222.309 165.737 222.309 165.466C222.309 165.195 222.379 164.999 222.519 164.878C222.659 164.747 222.831 164.682 223.037 164.682ZM223.639 167.496V175H222.407V167.496H223.639ZM229.628 167.356C230.524 167.356 231.201 167.575 231.658 168.014C232.116 168.453 232.344 169.153 232.344 170.114V175H231.126V170.198C231.126 168.994 230.566 168.392 229.446 168.392C228.616 168.392 228.042 168.625 227.724 169.092C227.407 169.559 227.248 170.231 227.248 171.108V175H226.016V167.496H227.01L227.192 168.518H227.262C227.505 168.126 227.841 167.837 228.27 167.65C228.7 167.454 229.152 167.356 229.628 167.356ZM237.568 167.356C238.203 167.356 238.754 167.496 239.22 167.776C239.687 168.056 240.042 168.453 240.284 168.966C240.536 169.47 240.662 170.063 240.662 170.744V171.486H235.524C235.543 172.335 235.758 172.984 236.168 173.432C236.588 173.871 237.172 174.09 237.918 174.09C238.394 174.09 238.814 174.048 239.178 173.964C239.552 173.871 239.934 173.74 240.326 173.572V174.65C239.944 174.818 239.566 174.939 239.192 175.014C238.819 175.098 238.376 175.14 237.862 175.14C237.144 175.14 236.514 174.995 235.972 174.706C235.431 174.417 235.006 173.987 234.698 173.418C234.4 172.849 234.25 172.144 234.25 171.304C234.25 170.483 234.386 169.778 234.656 169.19C234.936 168.602 235.324 168.149 235.818 167.832C236.322 167.515 236.906 167.356 237.568 167.356ZM237.554 168.364C236.966 168.364 236.5 168.555 236.154 168.938C235.818 169.311 235.618 169.834 235.552 170.506H239.374C239.365 169.871 239.216 169.358 238.926 168.966C238.637 168.565 238.18 168.364 237.554 168.364ZM249.542 175H248.282V166.11H245.16V165.004H252.65V166.11H249.542V175ZM255.902 167.356C256.537 167.356 257.088 167.496 257.554 167.776C258.021 168.056 258.376 168.453 258.618 168.966C258.87 169.47 258.996 170.063 258.996 170.744V171.486H253.858C253.877 172.335 254.092 172.984 254.502 173.432C254.922 173.871 255.506 174.09 256.252 174.09C256.728 174.09 257.148 174.048 257.512 173.964C257.886 173.871 258.268 173.74 258.66 173.572V174.65C258.278 174.818 257.9 174.939 257.526 175.014C257.153 175.098 256.71 175.14 256.196 175.14C255.478 175.14 254.848 174.995 254.306 174.706C253.765 174.417 253.34 173.987 253.032 173.418C252.734 172.849 252.584 172.144 252.584 171.304C252.584 170.483 252.72 169.778 252.99 169.19C253.27 168.602 253.658 168.149 254.152 167.832C254.656 167.515 255.24 167.356 255.902 167.356ZM255.888 168.364C255.3 168.364 254.834 168.555 254.488 168.938C254.152 169.311 253.952 169.834 253.886 170.506H257.708C257.699 169.871 257.55 169.358 257.26 168.966C256.971 168.565 256.514 168.364 255.888 168.364ZM262.411 171.164L259.821 167.496H261.221L263.153 170.324L265.071 167.496H266.457L263.867 171.164L266.597 175H265.197L263.153 172.004L261.081 175H259.695L262.411 171.164ZM270.55 174.132C270.736 174.132 270.928 174.118 271.124 174.09C271.32 174.062 271.478 174.025 271.6 173.978V174.916C271.469 174.981 271.282 175.033 271.04 175.07C270.797 175.117 270.564 175.14 270.34 175.14C269.948 175.14 269.584 175.075 269.248 174.944C268.921 174.804 268.655 174.566 268.45 174.23C268.244 173.894 268.142 173.423 268.142 172.816V168.448H267.078V167.86L268.156 167.37L268.646 165.774H269.374V167.496H271.544V168.448H269.374V172.788C269.374 173.245 269.481 173.586 269.696 173.81C269.92 174.025 270.204 174.132 270.55 174.132Z" fill="black"/>
<path d="M126 44L286 44" stroke="#088A08"/>
</svg>
