<svg width="270" height="98" viewBox="0 0 270 98" fill="none" xmlns="http://www.w3.org/2000/svg">
<rect width="269.333" height="98" transform="translate(0.666748)" fill="white"/>
<rect x="100.333" y="41" width="16" height="16" rx="4" fill="#757474"/>
<path d="M106.846 54.202C106.746 54.202 106.646 54.152 106.596 54.102L102.446 49.952C102.296 49.802 102.296 49.552 102.446 49.402C102.596 49.252 102.846 49.252 102.996 49.402L106.846 53.252L113.646 44.152C113.746 44.002 113.996 43.952 114.146 44.052C114.296 44.152 114.346 44.402 114.246 44.552L107.146 54.052C107.096 54.152 106.996 54.202 106.846 54.202Z" fill="white"/>
<path d="M134.413 48.988C134.413 50.024 134.236 50.9293 133.881 51.704C133.536 52.4693 133.018 53.0667 132.327 53.496C131.646 53.9253 130.806 54.14 129.807 54.14C128.771 54.14 127.908 53.9253 127.217 53.496C126.536 53.0667 126.027 52.4647 125.691 51.69C125.355 50.9153 125.187 50.01 125.187 48.974C125.187 47.9567 125.355 47.0653 125.691 46.3C126.027 45.5253 126.536 44.9233 127.217 44.494C127.908 44.0647 128.776 43.85 129.821 43.85C130.82 43.85 131.66 44.0647 132.341 44.494C133.023 44.914 133.536 45.5113 133.881 46.286C134.236 47.0513 134.413 47.952 134.413 48.988ZM126.517 48.988C126.517 50.248 126.783 51.242 127.315 51.97C127.847 52.6887 128.678 53.048 129.807 53.048C130.937 53.048 131.763 52.6887 132.285 51.97C132.817 51.242 133.083 50.248 133.083 48.988C133.083 47.728 132.822 46.7433 132.299 46.034C131.777 45.3153 130.951 44.956 129.821 44.956C128.683 44.956 127.847 45.3153 127.315 46.034C126.783 46.7433 126.517 47.728 126.517 48.988ZM140.031 46.356C140.955 46.356 141.697 46.678 142.257 47.322C142.826 47.966 143.111 48.9367 143.111 50.234C143.111 51.5127 142.826 52.4833 142.257 53.146C141.697 53.8087 140.95 54.14 140.017 54.14C139.438 54.14 138.958 54.0327 138.575 53.818C138.202 53.6033 137.908 53.3467 137.693 53.048H137.609C137.618 53.2067 137.632 53.4073 137.651 53.65C137.679 53.8927 137.693 54.1027 137.693 54.28V57.36H136.461V46.496H137.469L137.637 47.518H137.693C137.917 47.1913 138.211 46.916 138.575 46.692C138.939 46.468 139.424 46.356 140.031 46.356ZM139.807 47.392C139.042 47.392 138.5 47.6067 138.183 48.036C137.866 48.4653 137.702 49.1187 137.693 49.996V50.234C137.693 51.158 137.842 51.872 138.141 52.376C138.449 52.8707 139.014 53.118 139.835 53.118C140.283 53.118 140.656 52.9967 140.955 52.754C141.254 52.502 141.473 52.1567 141.613 51.718C141.762 51.2793 141.837 50.78 141.837 50.22C141.837 49.3613 141.669 48.6753 141.333 48.162C141.006 47.6487 140.498 47.392 139.807 47.392ZM147.58 53.132C147.767 53.132 147.958 53.118 148.154 53.09C148.35 53.062 148.509 53.0247 148.63 52.978V53.916C148.5 53.9813 148.313 54.0327 148.07 54.07C147.828 54.1167 147.594 54.14 147.37 54.14C146.978 54.14 146.614 54.0747 146.278 53.944C145.952 53.804 145.686 53.566 145.48 53.23C145.275 52.894 145.172 52.4227 145.172 51.816V47.448H144.108V46.86L145.186 46.37L145.676 44.774H146.404V46.496H148.574V47.448H146.404V51.788C146.404 52.2453 146.512 52.586 146.726 52.81C146.95 53.0247 147.235 53.132 147.58 53.132ZM150.763 43.682C150.95 43.682 151.113 43.7473 151.253 43.878C151.402 43.9993 151.477 44.1953 151.477 44.466C151.477 44.7367 151.402 44.9373 151.253 45.068C151.113 45.1893 150.95 45.25 150.763 45.25C150.558 45.25 150.385 45.1893 150.245 45.068C150.105 44.9373 150.035 44.7367 150.035 44.466C150.035 44.1953 150.105 43.9993 150.245 43.878C150.385 43.7473 150.558 43.682 150.763 43.682ZM151.365 46.496V54H150.133V46.496H151.365ZM160.266 50.234C160.266 51.4753 159.949 52.4367 159.314 53.118C158.689 53.7993 157.84 54.14 156.766 54.14C156.104 54.14 155.511 53.9907 154.988 53.692C154.475 53.384 154.069 52.9407 153.77 52.362C153.472 51.774 153.322 51.0647 153.322 50.234C153.322 48.9927 153.63 48.036 154.246 47.364C154.872 46.692 155.726 46.356 156.808 46.356C157.48 46.356 158.078 46.51 158.6 46.818C159.123 47.1167 159.529 47.5553 159.818 48.134C160.117 48.7033 160.266 49.4033 160.266 50.234ZM154.596 50.234C154.596 51.1207 154.769 51.8253 155.114 52.348C155.469 52.8613 156.029 53.118 156.794 53.118C157.55 53.118 158.106 52.8613 158.46 52.348C158.815 51.8253 158.992 51.1207 158.992 50.234C158.992 49.3473 158.815 48.652 158.46 48.148C158.106 47.644 157.546 47.392 156.78 47.392C156.015 47.392 155.46 47.644 155.114 48.148C154.769 48.652 154.596 49.3473 154.596 50.234ZM165.831 46.356C166.727 46.356 167.403 46.5753 167.861 47.014C168.318 47.4527 168.547 48.1527 168.547 49.114V54H167.329V49.198C167.329 47.994 166.769 47.392 165.649 47.392C164.818 47.392 164.244 47.6253 163.927 48.092C163.609 48.5587 163.451 49.2307 163.451 50.108V54H162.219V46.496H163.213L163.395 47.518H163.465C163.707 47.126 164.043 46.8367 164.473 46.65C164.902 46.454 165.355 46.356 165.831 46.356Z" fill="black"/>
</svg>
