<svg width="412" height="208" viewBox="0 0 412 208" fill="none" xmlns="http://www.w3.org/2000/svg">
<rect width="412" height="208" fill="white"/>
<path d="M145.952 69.28C145.76 69.28 145.592 69.264 145.448 69.232C145.304 69.208 145.176 69.172 145.064 69.124V68.212C145.192 68.252 145.328 68.28 145.472 68.296C145.616 68.32 145.768 68.332 145.928 68.332C146.128 68.332 146.316 68.292 146.492 68.212C146.676 68.132 146.824 67.992 146.936 67.792C147.048 67.6 147.104 67.32 147.104 66.952V58.432H148.184V66.868C148.184 67.692 147.98 68.3 147.572 68.692C147.164 69.084 146.624 69.28 145.952 69.28ZM155.893 63.772C155.893 64.836 155.621 65.66 155.077 66.244C154.541 66.828 153.813 67.12 152.893 67.12C152.325 67.12 151.817 66.992 151.369 66.736C150.929 66.472 150.581 66.092 150.325 65.596C150.069 65.092 149.941 64.484 149.941 63.772C149.941 62.708 150.205 61.888 150.733 61.312C151.269 60.736 152.001 60.448 152.929 60.448C153.505 60.448 154.017 60.58 154.465 60.844C154.913 61.1 155.261 61.476 155.509 61.972C155.765 62.46 155.893 63.06 155.893 63.772ZM151.033 63.772C151.033 64.532 151.181 65.136 151.477 65.584C151.781 66.024 152.261 66.244 152.917 66.244C153.565 66.244 154.041 66.024 154.345 65.584C154.649 65.136 154.801 64.532 154.801 63.772C154.801 63.012 154.649 62.416 154.345 61.984C154.041 61.552 153.561 61.336 152.905 61.336C152.249 61.336 151.773 61.552 151.477 61.984C151.181 62.416 151.033 63.012 151.033 63.772ZM158.107 58.156C158.267 58.156 158.407 58.212 158.527 58.324C158.655 58.428 158.719 58.596 158.719 58.828C158.719 59.06 158.655 59.232 158.527 59.344C158.407 59.448 158.267 59.5 158.107 59.5C157.931 59.5 157.783 59.448 157.663 59.344C157.543 59.232 157.483 59.06 157.483 58.828C157.483 58.596 157.543 58.428 157.663 58.324C157.783 58.212 157.931 58.156 158.107 58.156ZM158.623 60.568V67H157.567V60.568H158.623ZM163.757 60.448C164.525 60.448 165.105 60.636 165.497 61.012C165.889 61.388 166.085 61.988 166.085 62.812V67H165.041V62.884C165.041 61.852 164.561 61.336 163.601 61.336C162.889 61.336 162.397 61.536 162.125 61.936C161.853 62.336 161.717 62.912 161.717 63.664V67H160.661V60.568H161.513L161.669 61.444H161.729C161.937 61.108 162.225 60.86 162.593 60.7C162.961 60.532 163.349 60.448 163.757 60.448ZM178.252 60.448C178.98 60.448 179.524 60.636 179.884 61.012C180.244 61.388 180.424 61.988 180.424 62.812V67H179.38V62.86C179.38 61.844 178.944 61.336 178.072 61.336C177.448 61.336 177 61.516 176.728 61.876C176.464 62.236 176.332 62.76 176.332 63.448V67H175.288V62.86C175.288 61.844 174.848 61.336 173.968 61.336C173.32 61.336 172.872 61.536 172.624 61.936C172.376 62.336 172.252 62.912 172.252 63.664V67H171.196V60.568H172.048L172.204 61.444H172.264C172.464 61.108 172.732 60.86 173.068 60.7C173.412 60.532 173.776 60.448 174.16 60.448C175.168 60.448 175.824 60.808 176.128 61.528H176.188C176.404 61.16 176.696 60.888 177.064 60.712C177.432 60.536 177.828 60.448 178.252 60.448ZM184.895 60.448C185.439 60.448 185.911 60.568 186.311 60.808C186.711 61.048 187.015 61.388 187.223 61.828C187.439 62.26 187.547 62.768 187.547 63.352V63.988H183.143C183.159 64.716 183.343 65.272 183.695 65.656C184.055 66.032 184.555 66.22 185.195 66.22C185.603 66.22 185.963 66.184 186.275 66.112C186.595 66.032 186.923 65.92 187.259 65.776V66.7C186.931 66.844 186.607 66.948 186.287 67.012C185.967 67.084 185.587 67.12 185.147 67.12C184.531 67.12 183.991 66.996 183.527 66.748C183.063 66.5 182.699 66.132 182.435 65.644C182.179 65.156 182.051 64.552 182.051 63.832C182.051 63.128 182.167 62.524 182.399 62.02C182.639 61.516 182.971 61.128 183.395 60.856C183.827 60.584 184.327 60.448 184.895 60.448ZM184.883 61.312C184.379 61.312 183.979 61.476 183.683 61.804C183.395 62.124 183.223 62.572 183.167 63.148H186.443C186.435 62.604 186.307 62.164 186.059 61.828C185.811 61.484 185.419 61.312 184.883 61.312ZM191.668 60.448C192.212 60.448 192.684 60.568 193.084 60.808C193.484 61.048 193.788 61.388 193.996 61.828C194.212 62.26 194.32 62.768 194.32 63.352V63.988H189.916C189.932 64.716 190.116 65.272 190.468 65.656C190.828 66.032 191.328 66.22 191.968 66.22C192.376 66.22 192.736 66.184 193.048 66.112C193.368 66.032 193.696 65.92 194.032 65.776V66.7C193.704 66.844 193.38 66.948 193.06 67.012C192.74 67.084 192.36 67.12 191.92 67.12C191.304 67.12 190.764 66.996 190.3 66.748C189.836 66.5 189.472 66.132 189.208 65.644C188.952 65.156 188.824 64.552 188.824 63.832C188.824 63.128 188.94 62.524 189.172 62.02C189.412 61.516 189.744 61.128 190.168 60.856C190.6 60.584 191.1 60.448 191.668 60.448ZM191.656 61.312C191.152 61.312 190.752 61.476 190.456 61.804C190.168 62.124 189.996 62.572 189.94 63.148H193.216C193.208 62.604 193.08 62.164 192.832 61.828C192.584 61.484 192.192 61.312 191.656 61.312ZM198.105 66.256C198.266 66.256 198.43 66.244 198.598 66.22C198.766 66.196 198.902 66.164 199.006 66.124V66.928C198.894 66.984 198.734 67.028 198.526 67.06C198.318 67.1 198.118 67.12 197.926 67.12C197.59 67.12 197.278 67.064 196.99 66.952C196.71 66.832 196.482 66.628 196.306 66.34C196.13 66.052 196.042 65.648 196.042 65.128V61.384H195.13V60.88L196.054 60.46L196.474 59.092H197.098V60.568H198.958V61.384H197.098V65.104C197.098 65.496 197.19 65.788 197.374 65.98C197.566 66.164 197.81 66.256 198.105 66.256ZM200.833 58.156C200.993 58.156 201.133 58.212 201.253 58.324C201.381 58.428 201.445 58.596 201.445 58.828C201.445 59.06 201.381 59.232 201.253 59.344C201.133 59.448 200.993 59.5 200.833 59.5C200.657 59.5 200.509 59.448 200.389 59.344C200.269 59.232 200.209 59.06 200.209 58.828C200.209 58.596 200.269 58.428 200.389 58.324C200.509 58.212 200.657 58.156 200.833 58.156ZM201.349 60.568V67H200.293V60.568H201.349ZM206.483 60.448C207.251 60.448 207.831 60.636 208.223 61.012C208.615 61.388 208.811 61.988 208.811 62.812V67H207.767V62.884C207.767 61.852 207.287 61.336 206.327 61.336C205.615 61.336 205.123 61.536 204.851 61.936C204.579 62.336 204.443 62.912 204.443 63.664V67H203.387V60.568H204.239L204.395 61.444H204.455C204.663 61.108 204.951 60.86 205.319 60.7C205.687 60.532 206.075 60.448 206.483 60.448ZM213.085 60.448C213.509 60.448 213.889 60.528 214.225 60.688C214.569 60.848 214.861 61.092 215.101 61.42H215.161L215.305 60.568H216.145V67.108C216.145 68.028 215.909 68.72 215.437 69.184C214.973 69.648 214.249 69.88 213.265 69.88C212.321 69.88 211.549 69.744 210.949 69.472V68.5C211.581 68.836 212.373 69.004 213.325 69.004C213.877 69.004 214.309 68.84 214.621 68.512C214.941 68.192 215.101 67.752 215.101 67.192V66.94C215.101 66.844 215.105 66.708 215.113 66.532C215.121 66.348 215.129 66.22 215.137 66.148H215.089C214.657 66.796 213.993 67.12 213.097 67.12C212.265 67.12 211.613 66.828 211.141 66.244C210.677 65.66 210.445 64.844 210.445 63.796C210.445 62.772 210.677 61.96 211.141 61.36C211.613 60.752 212.261 60.448 213.085 60.448ZM213.229 61.336C212.693 61.336 212.277 61.552 211.981 61.984C211.685 62.408 211.537 63.016 211.537 63.808C211.537 64.6 211.681 65.208 211.969 65.632C212.257 66.048 212.685 66.256 213.253 66.256C213.901 66.256 214.373 66.084 214.669 65.74C214.965 65.388 215.113 64.824 215.113 64.048V63.796C215.113 62.924 214.961 62.296 214.657 61.912C214.353 61.528 213.877 61.336 213.229 61.336ZM226.681 60.568V67H225.817L225.661 66.148H225.613C225.405 66.484 225.117 66.732 224.749 66.892C224.381 67.044 223.989 67.12 223.573 67.12C222.797 67.12 222.213 66.936 221.821 66.568C221.429 66.192 221.233 65.596 221.233 64.78V60.568H222.301V64.708C222.301 65.732 222.777 66.244 223.729 66.244C224.441 66.244 224.933 66.044 225.205 65.644C225.485 65.244 225.625 64.668 225.625 63.916V60.568H226.681ZM232.911 65.224C232.911 65.848 232.679 66.32 232.215 66.64C231.751 66.96 231.127 67.12 230.343 67.12C229.895 67.12 229.507 67.084 229.179 67.012C228.859 66.94 228.575 66.84 228.327 66.712V65.752C228.583 65.88 228.891 66 229.251 66.112C229.619 66.216 229.991 66.268 230.367 66.268C230.903 66.268 231.291 66.184 231.531 66.016C231.771 65.84 231.891 65.608 231.891 65.32C231.891 65.16 231.847 65.016 231.759 64.888C231.671 64.76 231.511 64.632 231.279 64.504C231.055 64.376 230.731 64.232 230.307 64.072C229.891 63.912 229.535 63.752 229.239 63.592C228.943 63.432 228.715 63.24 228.555 63.016C228.395 62.792 228.315 62.504 228.315 62.152C228.315 61.608 228.535 61.188 228.975 60.892C229.423 60.596 230.007 60.448 230.727 60.448C231.119 60.448 231.483 60.488 231.819 60.568C232.163 60.648 232.483 60.752 232.779 60.88L232.419 61.72C232.147 61.608 231.863 61.512 231.567 61.432C231.271 61.352 230.967 61.312 230.655 61.312C230.223 61.312 229.891 61.384 229.659 61.528C229.435 61.664 229.323 61.852 229.323 62.092C229.323 62.276 229.375 62.428 229.479 62.548C229.583 62.668 229.755 62.788 229.995 62.908C230.243 63.028 230.571 63.164 230.979 63.316C231.387 63.468 231.735 63.624 232.023 63.784C232.311 63.944 232.531 64.14 232.683 64.372C232.835 64.596 232.911 64.88 232.911 65.224ZM235.005 58.156C235.165 58.156 235.305 58.212 235.425 58.324C235.553 58.428 235.617 58.596 235.617 58.828C235.617 59.06 235.553 59.232 235.425 59.344C235.305 59.448 235.165 59.5 235.005 59.5C234.829 59.5 234.681 59.448 234.561 59.344C234.441 59.232 234.381 59.06 234.381 58.828C234.381 58.596 234.441 58.428 234.561 58.324C234.681 58.212 234.829 58.156 235.005 58.156ZM235.521 60.568V67H234.465V60.568H235.521ZM240.655 60.448C241.423 60.448 242.003 60.636 242.395 61.012C242.787 61.388 242.983 61.988 242.983 62.812V67H241.939V62.884C241.939 61.852 241.459 61.336 240.499 61.336C239.787 61.336 239.295 61.536 239.023 61.936C238.751 62.336 238.615 62.912 238.615 63.664V67H237.559V60.568H238.411L238.567 61.444H238.627C238.835 61.108 239.123 60.86 239.491 60.7C239.859 60.532 240.247 60.448 240.655 60.448ZM247.257 60.448C247.681 60.448 248.061 60.528 248.397 60.688C248.741 60.848 249.033 61.092 249.273 61.42H249.333L249.477 60.568H250.317V67.108C250.317 68.028 250.081 68.72 249.609 69.184C249.145 69.648 248.421 69.88 247.437 69.88C246.493 69.88 245.721 69.744 245.121 69.472V68.5C245.753 68.836 246.545 69.004 247.497 69.004C248.049 69.004 248.481 68.84 248.793 68.512C249.113 68.192 249.273 67.752 249.273 67.192V66.94C249.273 66.844 249.277 66.708 249.285 66.532C249.293 66.348 249.301 66.22 249.309 66.148H249.261C248.829 66.796 248.165 67.12 247.269 67.12C246.437 67.12 245.785 66.828 245.313 66.244C244.849 65.66 244.617 64.844 244.617 63.796C244.617 62.772 244.849 61.96 245.313 61.36C245.785 60.752 246.433 60.448 247.257 60.448ZM247.401 61.336C246.865 61.336 246.449 61.552 246.153 61.984C245.857 62.408 245.709 63.016 245.709 63.808C245.709 64.6 245.853 65.208 246.141 65.632C246.429 66.048 246.857 66.256 247.425 66.256C248.073 66.256 248.545 66.084 248.841 65.74C249.137 65.388 249.285 64.824 249.285 64.048V63.796C249.285 62.924 249.133 62.296 248.829 61.912C248.525 61.528 248.049 61.336 247.401 61.336Z" fill="#323232"/>
<rect x="146" y="80" width="16" height="16" rx="4" fill="white"/>
<rect x="146.5" y="80.5" width="15" height="15" rx="3.5" stroke="#1B77AF"/>
<path d="M177.63 93L176.426 89.906H172.464L171.274 93H170L173.906 82.962H175.04L178.932 93H177.63ZM176.048 88.786L174.928 85.762C174.9 85.6873 174.853 85.552 174.788 85.356C174.723 85.16 174.657 84.9593 174.592 84.754C174.536 84.5393 174.489 84.376 174.452 84.264C174.377 84.5533 174.298 84.838 174.214 85.118C174.139 85.3887 174.074 85.6033 174.018 85.762L172.884 88.786H176.048ZM185.017 90.928C185.017 91.656 184.747 92.2067 184.205 92.58C183.664 92.9533 182.936 93.14 182.021 93.14C181.499 93.14 181.046 93.098 180.663 93.014C180.29 92.93 179.959 92.8133 179.669 92.664V91.544C179.968 91.6933 180.327 91.8333 180.747 91.964C181.177 92.0853 181.611 92.146 182.049 92.146C182.675 92.146 183.127 92.048 183.407 91.852C183.687 91.6467 183.827 91.376 183.827 91.04C183.827 90.8533 183.776 90.6853 183.673 90.536C183.571 90.3867 183.384 90.2373 183.113 90.088C182.852 89.9387 182.474 89.7707 181.979 89.584C181.494 89.3973 181.079 89.2107 180.733 89.024C180.388 88.8373 180.122 88.6133 179.935 88.352C179.749 88.0907 179.655 87.7547 179.655 87.344C179.655 86.7093 179.912 86.2193 180.425 85.874C180.948 85.5287 181.629 85.356 182.469 85.356C182.927 85.356 183.351 85.4027 183.743 85.496C184.145 85.5893 184.518 85.7107 184.863 85.86L184.443 86.84C184.126 86.7093 183.795 86.5973 183.449 86.504C183.104 86.4107 182.749 86.364 182.385 86.364C181.881 86.364 181.494 86.448 181.223 86.616C180.962 86.7747 180.831 86.994 180.831 87.274C180.831 87.4887 180.892 87.666 181.013 87.806C181.135 87.946 181.335 88.086 181.615 88.226C181.905 88.366 182.287 88.5247 182.763 88.702C183.239 88.8793 183.645 89.0613 183.981 89.248C184.317 89.4347 184.574 89.6633 184.751 89.934C184.929 90.1953 185.017 90.5267 185.017 90.928ZM188.049 82.36V87.918C188.049 88.0673 188.039 88.2633 188.021 88.506C188.011 88.7487 188.002 88.9587 187.993 89.136H188.049C188.105 89.0613 188.189 88.954 188.301 88.814C188.413 88.674 188.525 88.534 188.637 88.394C188.758 88.2447 188.861 88.1233 188.945 88.03L191.339 85.496H192.781L189.743 88.702L192.991 93H191.507L188.903 89.5L188.049 90.242V93H186.831V82.36H188.049ZM200.844 85.356C201.479 85.356 202.029 85.496 202.496 85.776C202.963 86.056 203.317 86.4527 203.56 86.966C203.812 87.47 203.938 88.0627 203.938 88.744V89.486H198.8C198.819 90.3353 199.033 90.984 199.444 91.432C199.864 91.8707 200.447 92.09 201.194 92.09C201.67 92.09 202.09 92.048 202.454 91.964C202.827 91.8707 203.21 91.74 203.602 91.572V92.65C203.219 92.818 202.841 92.9393 202.468 93.014C202.095 93.098 201.651 93.14 201.138 93.14C200.419 93.14 199.789 92.9953 199.248 92.706C198.707 92.4167 198.282 91.9873 197.974 91.418C197.675 90.8487 197.526 90.144 197.526 89.304C197.526 88.4827 197.661 87.778 197.932 87.19C198.212 86.602 198.599 86.1493 199.094 85.832C199.598 85.5147 200.181 85.356 200.844 85.356ZM200.83 86.364C200.242 86.364 199.775 86.5553 199.43 86.938C199.094 87.3113 198.893 87.834 198.828 88.506H202.65C202.641 87.8713 202.491 87.358 202.202 86.966C201.913 86.5647 201.455 86.364 200.83 86.364ZM207.227 93L204.385 85.496H205.701L207.297 89.92C207.371 90.1253 207.451 90.354 207.535 90.606C207.619 90.858 207.693 91.1007 207.759 91.334C207.824 91.5673 207.871 91.7587 207.899 91.908H207.955C207.983 91.7587 208.034 91.5673 208.109 91.334C208.183 91.0913 208.263 90.8487 208.347 90.606C208.431 90.354 208.51 90.1253 208.585 89.92L210.181 85.496H211.497L208.641 93H207.227ZM215.582 85.356C216.217 85.356 216.767 85.496 217.234 85.776C217.701 86.056 218.055 86.4527 218.298 86.966C218.55 87.47 218.676 88.0627 218.676 88.744V89.486H213.538C213.557 90.3353 213.771 90.984 214.182 91.432C214.602 91.8707 215.185 92.09 215.932 92.09C216.408 92.09 216.828 92.048 217.192 91.964C217.565 91.8707 217.948 91.74 218.34 91.572V92.65C217.957 92.818 217.579 92.9393 217.206 93.014C216.833 93.098 216.389 93.14 215.876 93.14C215.157 93.14 214.527 92.9953 213.986 92.706C213.445 92.4167 213.02 91.9873 212.712 91.418C212.413 90.8487 212.264 90.144 212.264 89.304C212.264 88.4827 212.399 87.778 212.67 87.19C212.95 86.602 213.337 86.1493 213.832 85.832C214.336 85.5147 214.919 85.356 215.582 85.356ZM215.568 86.364C214.98 86.364 214.513 86.5553 214.168 86.938C213.832 87.3113 213.631 87.834 213.566 88.506H217.388C217.379 87.8713 217.229 87.358 216.94 86.966C216.651 86.5647 216.193 86.364 215.568 86.364ZM224.086 85.356C224.226 85.356 224.376 85.3653 224.534 85.384C224.693 85.3933 224.838 85.412 224.968 85.44L224.814 86.574C224.693 86.546 224.558 86.5227 224.408 86.504C224.259 86.4853 224.124 86.476 224.002 86.476C223.62 86.476 223.26 86.5833 222.924 86.798C222.588 87.0033 222.318 87.2973 222.112 87.68C221.916 88.0533 221.818 88.492 221.818 88.996V93H220.586V85.496H221.594L221.734 86.868H221.79C222.024 86.4573 222.332 86.1027 222.714 85.804C223.106 85.5053 223.564 85.356 224.086 85.356ZM225.194 85.496H226.51L228.134 89.766C228.274 90.1487 228.4 90.508 228.512 90.844C228.624 91.18 228.708 91.502 228.764 91.81H228.82C228.876 91.5767 228.964 91.2733 229.086 90.9C229.207 90.5173 229.333 90.1347 229.464 89.752L230.99 85.496H232.32L229.086 94.036C228.815 94.7453 228.474 95.31 228.064 95.73C227.653 96.15 227.084 96.36 226.356 96.36C226.132 96.36 225.936 96.346 225.768 96.318C225.6 96.2993 225.455 96.276 225.334 96.248V95.268C225.436 95.2867 225.558 95.3053 225.698 95.324C225.847 95.3427 226.001 95.352 226.16 95.352C226.589 95.352 226.934 95.2307 227.196 94.988C227.457 94.7453 227.667 94.4233 227.826 94.022L228.218 93.028L225.194 85.496ZM239.649 92.132C239.836 92.132 240.027 92.118 240.223 92.09C240.419 92.062 240.578 92.0247 240.699 91.978V92.916C240.568 92.9813 240.382 93.0327 240.139 93.07C239.896 93.1167 239.663 93.14 239.439 93.14C239.047 93.14 238.683 93.0747 238.347 92.944C238.02 92.804 237.754 92.566 237.549 92.23C237.344 91.894 237.241 91.4227 237.241 90.816V86.448H236.177V85.86L237.255 85.37L237.745 83.774H238.473V85.496H240.643V86.448H238.473V90.788C238.473 91.2453 238.58 91.586 238.795 91.81C239.019 92.0247 239.304 92.132 239.649 92.132ZM242.832 82.682C243.018 82.682 243.182 82.7473 243.322 82.878C243.471 82.9993 243.546 83.1953 243.546 83.466C243.546 83.7367 243.471 83.9373 243.322 84.068C243.182 84.1893 243.018 84.25 242.832 84.25C242.626 84.25 242.454 84.1893 242.314 84.068C242.174 83.9373 242.104 83.7367 242.104 83.466C242.104 83.1953 242.174 82.9993 242.314 82.878C242.454 82.7473 242.626 82.682 242.832 82.682ZM243.434 85.496V93H242.202V85.496H243.434ZM254.043 85.356C254.892 85.356 255.527 85.5753 255.947 86.014C256.367 86.4527 256.577 87.1527 256.577 88.114V93H255.359V88.17C255.359 86.9847 254.85 86.392 253.833 86.392C253.105 86.392 252.582 86.602 252.265 87.022C251.957 87.442 251.803 88.0533 251.803 88.856V93H250.585V88.17C250.585 86.9847 250.072 86.392 249.045 86.392C248.289 86.392 247.766 86.6253 247.477 87.092C247.188 87.5587 247.043 88.2307 247.043 89.108V93H245.811V85.496H246.805L246.987 86.518H247.057C247.29 86.126 247.603 85.8367 247.995 85.65C248.396 85.454 248.821 85.356 249.269 85.356C250.445 85.356 251.21 85.776 251.565 86.616H251.635C251.887 86.1867 252.228 85.8693 252.657 85.664C253.086 85.4587 253.548 85.356 254.043 85.356ZM261.793 85.356C262.428 85.356 262.978 85.496 263.445 85.776C263.912 86.056 264.266 86.4527 264.509 86.966C264.761 87.47 264.887 88.0627 264.887 88.744V89.486H259.749C259.768 90.3353 259.982 90.984 260.393 91.432C260.813 91.8707 261.396 92.09 262.143 92.09C262.619 92.09 263.039 92.048 263.403 91.964C263.776 91.8707 264.159 91.74 264.551 91.572V92.65C264.168 92.818 263.79 92.9393 263.417 93.014C263.044 93.098 262.6 93.14 262.087 93.14C261.368 93.14 260.738 92.9953 260.197 92.706C259.656 92.4167 259.231 91.9873 258.923 91.418C258.624 90.8487 258.475 90.144 258.475 89.304C258.475 88.4827 258.61 87.778 258.881 87.19C259.161 86.602 259.548 86.1493 260.043 85.832C260.547 85.5147 261.13 85.356 261.793 85.356ZM261.779 86.364C261.191 86.364 260.724 86.5553 260.379 86.938C260.043 87.3113 259.842 87.834 259.777 88.506H263.599C263.59 87.8713 263.44 87.358 263.151 86.966C262.862 86.5647 262.404 86.364 261.779 86.364Z" fill="black"/>
<rect x="146" y="108" width="16" height="16" rx="4" fill="#1B77AF"/>
<path d="M152.512 121.202C152.412 121.202 152.312 121.152 152.262 121.102L148.113 116.952C147.962 116.802 147.962 116.552 148.113 116.402C148.263 116.252 148.512 116.252 148.662 116.402L152.512 120.252L159.312 111.152C159.413 111.002 159.662 110.952 159.812 111.052C159.963 111.152 160.012 111.402 159.912 111.552L152.812 121.052C152.762 121.152 152.662 121.202 152.512 121.202Z" fill="white"/>
<path d="M182.838 111.004L180.178 121H178.904L176.958 114.448C176.874 114.187 176.795 113.921 176.72 113.65C176.655 113.37 176.594 113.127 176.538 112.922C176.491 112.707 176.463 112.558 176.454 112.474C176.445 112.595 176.393 112.857 176.3 113.258C176.207 113.65 176.099 114.061 175.978 114.49L174.088 121H172.814L170.168 111.004H171.484L173.038 117.108C173.15 117.537 173.243 117.953 173.318 118.354C173.402 118.755 173.467 119.133 173.514 119.488C173.561 119.124 173.631 118.727 173.724 118.298C173.817 117.869 173.925 117.449 174.046 117.038L175.81 111.004H177.112L178.946 117.08C179.077 117.509 179.189 117.939 179.282 118.368C179.375 118.797 179.445 119.171 179.492 119.488C179.529 119.143 179.59 118.769 179.674 118.368C179.767 117.957 179.87 117.533 179.982 117.094L181.522 111.004H182.838ZM186.83 113.356C187.465 113.356 188.016 113.496 188.482 113.776C188.949 114.056 189.304 114.453 189.546 114.966C189.798 115.47 189.924 116.063 189.924 116.744V117.486H184.786C184.805 118.335 185.02 118.984 185.43 119.432C185.85 119.871 186.434 120.09 187.18 120.09C187.656 120.09 188.076 120.048 188.44 119.964C188.814 119.871 189.196 119.74 189.588 119.572V120.65C189.206 120.818 188.828 120.939 188.454 121.014C188.081 121.098 187.638 121.14 187.124 121.14C186.406 121.14 185.776 120.995 185.234 120.706C184.693 120.417 184.268 119.987 183.96 119.418C183.662 118.849 183.512 118.144 183.512 117.304C183.512 116.483 183.648 115.778 183.918 115.19C184.198 114.602 184.586 114.149 185.08 113.832C185.584 113.515 186.168 113.356 186.83 113.356ZM186.816 114.364C186.228 114.364 185.762 114.555 185.416 114.938C185.08 115.311 184.88 115.834 184.814 116.506H188.636C188.627 115.871 188.478 115.358 188.188 114.966C187.899 114.565 187.442 114.364 186.816 114.364ZM193.067 110.36V112.95C193.067 113.267 193.057 113.566 193.039 113.846C193.029 114.117 193.015 114.331 192.997 114.49H193.067C193.281 114.173 193.575 113.907 193.949 113.692C194.322 113.477 194.803 113.37 195.391 113.37C196.324 113.37 197.071 113.697 197.631 114.35C198.2 114.994 198.485 115.96 198.485 117.248C198.485 118.536 198.2 119.507 197.631 120.16C197.061 120.813 196.315 121.14 195.391 121.14C194.803 121.14 194.322 121.033 193.949 120.818C193.575 120.603 193.281 120.347 193.067 120.048H192.969L192.717 121H191.835V110.36H193.067ZM195.181 114.392C194.378 114.392 193.823 114.621 193.515 115.078C193.216 115.535 193.067 116.245 193.067 117.206V117.262C193.067 118.186 193.216 118.895 193.515 119.39C193.823 119.875 194.387 120.118 195.209 120.118C195.881 120.118 196.38 119.871 196.707 119.376C197.043 118.881 197.211 118.167 197.211 117.234C197.211 115.339 196.534 114.392 195.181 114.392ZM205.317 110.36V112.95C205.317 113.267 205.307 113.566 205.289 113.846C205.279 114.117 205.265 114.331 205.247 114.49H205.317C205.531 114.173 205.825 113.907 206.199 113.692C206.572 113.477 207.053 113.37 207.641 113.37C208.574 113.37 209.321 113.697 209.881 114.35C210.45 114.994 210.735 115.96 210.735 117.248C210.735 118.536 210.45 119.507 209.881 120.16C209.311 120.813 208.565 121.14 207.641 121.14C207.053 121.14 206.572 121.033 206.199 120.818C205.825 120.603 205.531 120.347 205.317 120.048H205.219L204.967 121H204.085V110.36H205.317ZM207.431 114.392C206.628 114.392 206.073 114.621 205.765 115.078C205.466 115.535 205.317 116.245 205.317 117.206V117.262C205.317 118.186 205.466 118.895 205.765 119.39C206.073 119.875 206.637 120.118 207.459 120.118C208.131 120.118 208.63 119.871 208.957 119.376C209.293 118.881 209.461 118.167 209.461 117.234C209.461 115.339 208.784 114.392 207.431 114.392ZM216.198 113.356C216.338 113.356 216.487 113.365 216.646 113.384C216.804 113.393 216.949 113.412 217.08 113.44L216.926 114.574C216.804 114.546 216.669 114.523 216.52 114.504C216.37 114.485 216.235 114.476 216.114 114.476C215.731 114.476 215.372 114.583 215.036 114.798C214.7 115.003 214.429 115.297 214.224 115.68C214.028 116.053 213.93 116.492 213.93 116.996V121H212.698V113.496H213.706L213.846 114.868H213.902C214.135 114.457 214.443 114.103 214.826 113.804C215.218 113.505 215.675 113.356 216.198 113.356ZM224.732 117.234C224.732 118.475 224.414 119.437 223.78 120.118C223.154 120.799 222.305 121.14 221.232 121.14C220.569 121.14 219.976 120.991 219.454 120.692C218.94 120.384 218.534 119.941 218.236 119.362C217.937 118.774 217.788 118.065 217.788 117.234C217.788 115.993 218.096 115.036 218.712 114.364C219.337 113.692 220.191 113.356 221.274 113.356C221.946 113.356 222.543 113.51 223.066 113.818C223.588 114.117 223.994 114.555 224.284 115.134C224.582 115.703 224.732 116.403 224.732 117.234ZM219.062 117.234C219.062 118.121 219.234 118.825 219.58 119.348C219.934 119.861 220.494 120.118 221.26 120.118C222.016 120.118 222.571 119.861 222.926 119.348C223.28 118.825 223.458 118.121 223.458 117.234C223.458 116.347 223.28 115.652 222.926 115.148C222.571 114.644 222.011 114.392 221.246 114.392C220.48 114.392 219.925 114.644 219.58 115.148C219.234 115.652 219.062 116.347 219.062 117.234ZM232.543 120.986L231.255 116.758C231.133 116.375 231.026 116.002 230.933 115.638C230.839 115.274 230.774 114.985 230.737 114.77H230.681C230.643 114.985 230.583 115.274 230.499 115.638C230.415 116.002 230.307 116.38 230.177 116.772L228.833 120.986H227.433L225.375 113.482H226.649L227.685 117.486C227.787 117.887 227.885 118.293 227.979 118.704C228.072 119.115 228.137 119.455 228.175 119.726H228.231C228.259 119.567 228.301 119.371 228.357 119.138C228.413 118.905 228.473 118.662 228.539 118.41C228.604 118.149 228.669 117.915 228.735 117.71L230.065 113.482H231.409L232.697 117.71C232.79 118.037 232.888 118.387 232.991 118.76C233.093 119.133 233.163 119.451 233.201 119.712H233.257C233.285 119.479 233.345 119.157 233.439 118.746C233.541 118.335 233.649 117.915 233.761 117.486L234.811 113.482H236.071L233.985 120.986H232.543ZM242.303 118.928C242.303 119.656 242.032 120.207 241.491 120.58C240.949 120.953 240.221 121.14 239.307 121.14C238.784 121.14 238.331 121.098 237.949 121.014C237.575 120.93 237.244 120.813 236.955 120.664V119.544C237.253 119.693 237.613 119.833 238.033 119.964C238.462 120.085 238.896 120.146 239.335 120.146C239.96 120.146 240.413 120.048 240.693 119.852C240.973 119.647 241.113 119.376 241.113 119.04C241.113 118.853 241.061 118.685 240.959 118.536C240.856 118.387 240.669 118.237 240.399 118.088C240.137 117.939 239.759 117.771 239.265 117.584C238.779 117.397 238.364 117.211 238.019 117.024C237.673 116.837 237.407 116.613 237.221 116.352C237.034 116.091 236.941 115.755 236.941 115.344C236.941 114.709 237.197 114.219 237.711 113.874C238.233 113.529 238.915 113.356 239.755 113.356C240.212 113.356 240.637 113.403 241.029 113.496C241.43 113.589 241.803 113.711 242.149 113.86L241.729 114.84C241.411 114.709 241.08 114.597 240.735 114.504C240.389 114.411 240.035 114.364 239.671 114.364C239.167 114.364 238.779 114.448 238.509 114.616C238.247 114.775 238.117 114.994 238.117 115.274C238.117 115.489 238.177 115.666 238.299 115.806C238.42 115.946 238.621 116.086 238.901 116.226C239.19 116.366 239.573 116.525 240.049 116.702C240.525 116.879 240.931 117.061 241.267 117.248C241.603 117.435 241.859 117.663 242.037 117.934C242.214 118.195 242.303 118.527 242.303 118.928ZM247.014 113.356C247.648 113.356 248.199 113.496 248.666 113.776C249.132 114.056 249.487 114.453 249.73 114.966C249.982 115.47 250.108 116.063 250.108 116.744V117.486H244.97C244.988 118.335 245.203 118.984 245.614 119.432C246.034 119.871 246.617 120.09 247.364 120.09C247.84 120.09 248.26 120.048 248.624 119.964C248.997 119.871 249.38 119.74 249.772 119.572V120.65C249.389 120.818 249.011 120.939 248.638 121.014C248.264 121.098 247.821 121.14 247.308 121.14C246.589 121.14 245.959 120.995 245.418 120.706C244.876 120.417 244.452 119.987 244.144 119.418C243.845 118.849 243.696 118.144 243.696 117.304C243.696 116.483 243.831 115.778 244.102 115.19C244.382 114.602 244.769 114.149 245.264 113.832C245.768 113.515 246.351 113.356 247.014 113.356ZM247 114.364C246.412 114.364 245.945 114.555 245.6 114.938C245.264 115.311 245.063 115.834 244.998 116.506H248.82C248.81 115.871 248.661 115.358 248.372 114.966C248.082 114.565 247.625 114.364 247 114.364ZM255.518 113.356C255.658 113.356 255.807 113.365 255.966 113.384C256.125 113.393 256.269 113.412 256.4 113.44L256.246 114.574C256.125 114.546 255.989 114.523 255.84 114.504C255.691 114.485 255.555 114.476 255.434 114.476C255.051 114.476 254.692 114.583 254.356 114.798C254.02 115.003 253.749 115.297 253.544 115.68C253.348 116.053 253.25 116.492 253.25 116.996V121H252.018V113.496H253.026L253.166 114.868H253.222C253.455 114.457 253.763 114.103 254.146 113.804C254.538 113.505 254.995 113.356 255.518 113.356Z" fill="black"/>
<rect x="146" y="136" width="16" height="16" rx="4" fill="white"/>
<rect x="146.5" y="136.5" width="15" height="15" rx="3.5" stroke="#1B77AF"/>
<path d="M179.366 143.904C179.366 145.593 178.904 146.867 177.98 147.726C177.065 148.575 175.787 149 174.144 149H171.358V139.004H174.438C175.437 139.004 176.305 139.191 177.042 139.564C177.789 139.937 178.363 140.488 178.764 141.216C179.165 141.944 179.366 142.84 179.366 143.904ZM178.036 143.946C178.036 142.611 177.705 141.636 177.042 141.02C176.389 140.395 175.46 140.082 174.256 140.082H172.618V147.922H173.976C176.683 147.922 178.036 146.597 178.036 143.946ZM184.315 141.356C184.949 141.356 185.5 141.496 185.967 141.776C186.433 142.056 186.788 142.453 187.031 142.966C187.283 143.47 187.409 144.063 187.409 144.744V145.486H182.271C182.289 146.335 182.504 146.984 182.915 147.432C183.335 147.871 183.918 148.09 184.665 148.09C185.141 148.09 185.561 148.048 185.925 147.964C186.298 147.871 186.681 147.74 187.073 147.572V148.65C186.69 148.818 186.312 148.939 185.939 149.014C185.565 149.098 185.122 149.14 184.609 149.14C183.89 149.14 183.26 148.995 182.719 148.706C182.177 148.417 181.753 147.987 181.445 147.418C181.146 146.849 180.997 146.144 180.997 145.304C180.997 144.483 181.132 143.778 181.403 143.19C181.683 142.602 182.07 142.149 182.565 141.832C183.069 141.515 183.652 141.356 184.315 141.356ZM184.301 142.364C183.713 142.364 183.246 142.555 182.901 142.938C182.565 143.311 182.364 143.834 182.299 144.506H186.121C186.111 143.871 185.962 143.358 185.673 142.966C185.383 142.565 184.926 142.364 184.301 142.364ZM194.205 146.928C194.205 147.656 193.934 148.207 193.393 148.58C192.852 148.953 192.124 149.14 191.209 149.14C190.686 149.14 190.234 149.098 189.851 149.014C189.478 148.93 189.146 148.813 188.857 148.664V147.544C189.156 147.693 189.515 147.833 189.935 147.964C190.364 148.085 190.798 148.146 191.237 148.146C191.862 148.146 192.315 148.048 192.595 147.852C192.875 147.647 193.015 147.376 193.015 147.04C193.015 146.853 192.964 146.685 192.861 146.536C192.758 146.387 192.572 146.237 192.301 146.088C192.04 145.939 191.662 145.771 191.167 145.584C190.682 145.397 190.266 145.211 189.921 145.024C189.576 144.837 189.31 144.613 189.123 144.352C188.936 144.091 188.843 143.755 188.843 143.344C188.843 142.709 189.1 142.219 189.613 141.874C190.136 141.529 190.817 141.356 191.657 141.356C192.114 141.356 192.539 141.403 192.931 141.496C193.332 141.589 193.706 141.711 194.051 141.86L193.631 142.84C193.314 142.709 192.982 142.597 192.637 142.504C192.292 142.411 191.937 142.364 191.573 142.364C191.069 142.364 190.682 142.448 190.411 142.616C190.15 142.775 190.019 142.994 190.019 143.274C190.019 143.489 190.08 143.666 190.201 143.806C190.322 143.946 190.523 144.086 190.803 144.226C191.092 144.366 191.475 144.525 191.951 144.702C192.427 144.879 192.833 145.061 193.169 145.248C193.505 145.435 193.762 145.663 193.939 145.934C194.116 146.195 194.205 146.527 194.205 146.928ZM197.236 138.36V143.918C197.236 144.067 197.227 144.263 197.208 144.506C197.199 144.749 197.189 144.959 197.18 145.136H197.236C197.292 145.061 197.376 144.954 197.488 144.814C197.6 144.674 197.712 144.534 197.824 144.394C197.945 144.245 198.048 144.123 198.132 144.03L200.526 141.496H201.968L198.93 144.702L202.178 149H200.694L198.09 145.5L197.236 146.242V149H196.018V138.36H197.236ZM206.003 148.132C206.189 148.132 206.381 148.118 206.577 148.09C206.773 148.062 206.931 148.025 207.053 147.978V148.916C206.922 148.981 206.735 149.033 206.493 149.07C206.25 149.117 206.017 149.14 205.793 149.14C205.401 149.14 205.037 149.075 204.701 148.944C204.374 148.804 204.108 148.566 203.903 148.23C203.697 147.894 203.595 147.423 203.595 146.816V142.448H202.531V141.86L203.609 141.37L204.099 139.774H204.827V141.496H206.997V142.448H204.827V146.788C204.827 147.245 204.934 147.586 205.149 147.81C205.373 148.025 205.657 148.132 206.003 148.132ZM215.079 145.234C215.079 146.475 214.762 147.437 214.127 148.118C213.502 148.799 212.653 149.14 211.579 149.14C210.917 149.14 210.324 148.991 209.801 148.692C209.288 148.384 208.882 147.941 208.583 147.362C208.285 146.774 208.135 146.065 208.135 145.234C208.135 143.993 208.443 143.036 209.059 142.364C209.685 141.692 210.539 141.356 211.621 141.356C212.293 141.356 212.891 141.51 213.413 141.818C213.936 142.117 214.342 142.555 214.631 143.134C214.93 143.703 215.079 144.403 215.079 145.234ZM209.409 145.234C209.409 146.121 209.582 146.825 209.927 147.348C210.282 147.861 210.842 148.118 211.607 148.118C212.363 148.118 212.919 147.861 213.273 147.348C213.628 146.825 213.805 146.121 213.805 145.234C213.805 144.347 213.628 143.652 213.273 143.148C212.919 142.644 212.359 142.392 211.593 142.392C210.828 142.392 210.273 142.644 209.927 143.148C209.582 143.652 209.409 144.347 209.409 145.234ZM220.602 141.356C221.526 141.356 222.268 141.678 222.828 142.322C223.397 142.966 223.682 143.937 223.682 145.234C223.682 146.513 223.397 147.483 222.828 148.146C222.268 148.809 221.521 149.14 220.588 149.14C220.009 149.14 219.528 149.033 219.146 148.818C218.772 148.603 218.478 148.347 218.264 148.048H218.18C218.189 148.207 218.203 148.407 218.222 148.65C218.25 148.893 218.264 149.103 218.264 149.28V152.36H217.032V141.496H218.04L218.208 142.518H218.264C218.488 142.191 218.782 141.916 219.146 141.692C219.51 141.468 219.995 141.356 220.602 141.356ZM220.378 142.392C219.612 142.392 219.071 142.607 218.754 143.036C218.436 143.465 218.273 144.119 218.264 144.996V145.234C218.264 146.158 218.413 146.872 218.712 147.376C219.02 147.871 219.584 148.118 220.406 148.118C220.854 148.118 221.227 147.997 221.526 147.754C221.824 147.502 222.044 147.157 222.184 146.718C222.333 146.279 222.408 145.78 222.408 145.22C222.408 144.361 222.24 143.675 221.904 143.162C221.577 142.649 221.068 142.392 220.378 142.392ZM232.124 141.37C233.038 141.37 233.715 141.571 234.154 141.972C234.592 142.373 234.812 143.013 234.812 143.89V149H233.916L233.678 147.936H233.622C233.295 148.347 232.95 148.65 232.586 148.846C232.222 149.042 231.727 149.14 231.102 149.14C230.42 149.14 229.856 148.963 229.408 148.608C228.96 148.244 228.736 147.679 228.736 146.914C228.736 146.167 229.03 145.593 229.618 145.192C230.206 144.781 231.111 144.557 232.334 144.52L233.608 144.478V144.03C233.608 143.405 233.472 142.971 233.202 142.728C232.931 142.485 232.548 142.364 232.054 142.364C231.662 142.364 231.288 142.425 230.934 142.546C230.579 142.658 230.248 142.789 229.94 142.938L229.562 142.014C229.888 141.837 230.276 141.687 230.724 141.566C231.172 141.435 231.638 141.37 232.124 141.37ZM233.594 145.332L232.488 145.374C231.554 145.411 230.906 145.561 230.542 145.822C230.187 146.083 230.01 146.452 230.01 146.928C230.01 147.348 230.136 147.656 230.388 147.852C230.649 148.048 230.98 148.146 231.382 148.146C232.007 148.146 232.53 147.973 232.95 147.628C233.379 147.273 233.594 146.732 233.594 146.004V145.332ZM240.699 141.356C241.623 141.356 242.365 141.678 242.925 142.322C243.495 142.966 243.779 143.937 243.779 145.234C243.779 146.513 243.495 147.483 242.925 148.146C242.365 148.809 241.619 149.14 240.685 149.14C240.107 149.14 239.626 149.033 239.243 148.818C238.87 148.603 238.576 148.347 238.361 148.048H238.277C238.287 148.207 238.301 148.407 238.319 148.65C238.347 148.893 238.361 149.103 238.361 149.28V152.36H237.129V141.496H238.137L238.305 142.518H238.361C238.585 142.191 238.879 141.916 239.243 141.692C239.607 141.468 240.093 141.356 240.699 141.356ZM240.475 142.392C239.71 142.392 239.169 142.607 238.851 143.036C238.534 143.465 238.371 144.119 238.361 144.996V145.234C238.361 146.158 238.511 146.872 238.809 147.376C239.117 147.871 239.682 148.118 240.503 148.118C240.951 148.118 241.325 147.997 241.623 147.754C241.922 147.502 242.141 147.157 242.281 146.718C242.431 146.279 242.505 145.78 242.505 145.22C242.505 144.361 242.337 143.675 242.001 143.162C241.675 142.649 241.166 142.392 240.475 142.392ZM249.313 141.356C250.237 141.356 250.979 141.678 251.539 142.322C252.108 142.966 252.393 143.937 252.393 145.234C252.393 146.513 252.108 147.483 251.539 148.146C250.979 148.809 250.232 149.14 249.299 149.14C248.72 149.14 248.239 149.033 247.857 148.818C247.483 148.603 247.189 148.347 246.975 148.048H246.891C246.9 148.207 246.914 148.407 246.933 148.65C246.961 148.893 246.975 149.103 246.975 149.28V152.36H245.743V141.496H246.751L246.919 142.518H246.975C247.199 142.191 247.493 141.916 247.857 141.692C248.221 141.468 248.706 141.356 249.313 141.356ZM249.089 142.392C248.323 142.392 247.782 142.607 247.465 143.036C247.147 143.465 246.984 144.119 246.975 144.996V145.234C246.975 146.158 247.124 146.872 247.423 147.376C247.731 147.871 248.295 148.118 249.117 148.118C249.565 148.118 249.938 147.997 250.237 147.754C250.535 147.502 250.755 147.157 250.895 146.718C251.044 146.279 251.119 145.78 251.119 145.22C251.119 144.361 250.951 143.675 250.615 143.162C250.288 142.649 249.779 142.392 249.089 142.392Z" fill="black"/>
</svg>
