<svg width="270" height="98" viewBox="0 0 270 98" fill="none" xmlns="http://www.w3.org/2000/svg">
<rect width="269.333" height="98" fill="white"/>
<rect x="99.6667" y="41" width="16" height="16" rx="4" fill="#1473E6"/>
<path d="M112.717 49.25H102.567C102.317 49.25 102.167 49.1 102.167 48.9C102.167 48.7 102.317 48.5 102.567 48.5H112.767C112.967 48.5 113.167 48.65 113.167 48.9C113.167 49.15 112.917 49.25 112.717 49.25Z" fill="white"/>
<path d="M133.747 48.988C133.747 50.024 133.569 50.9293 133.215 51.704C132.869 52.4693 132.351 53.0667 131.661 53.496C130.979 53.9253 130.139 54.14 129.141 54.14C128.105 54.14 127.241 53.9253 126.551 53.496C125.869 53.0667 125.361 52.4647 125.025 51.69C124.689 50.9153 124.521 50.01 124.521 48.974C124.521 47.9567 124.689 47.0653 125.025 46.3C125.361 45.5253 125.869 44.9233 126.551 44.494C127.241 44.0647 128.109 43.85 129.155 43.85C130.153 43.85 130.993 44.0647 131.675 44.494C132.356 44.914 132.869 45.5113 133.215 46.286C133.569 47.0513 133.747 47.952 133.747 48.988ZM125.851 48.988C125.851 50.248 126.117 51.242 126.649 51.97C127.181 52.6887 128.011 53.048 129.141 53.048C130.27 53.048 131.096 52.6887 131.619 51.97C132.151 51.242 132.417 50.248 132.417 48.988C132.417 47.728 132.155 46.7433 131.633 46.034C131.11 45.3153 130.284 44.956 129.155 44.956C128.016 44.956 127.181 45.3153 126.649 46.034C126.117 46.7433 125.851 47.728 125.851 48.988ZM139.364 46.356C140.288 46.356 141.03 46.678 141.59 47.322C142.16 47.966 142.444 48.9367 142.444 50.234C142.444 51.5127 142.16 52.4833 141.59 53.146C141.03 53.8087 140.284 54.14 139.35 54.14C138.772 54.14 138.291 54.0327 137.908 53.818C137.535 53.6033 137.241 53.3467 137.026 53.048H136.942C136.952 53.2067 136.966 53.4073 136.984 53.65C137.012 53.8927 137.026 54.1027 137.026 54.28V57.36H135.794V46.496H136.802L136.97 47.518H137.026C137.25 47.1913 137.544 46.916 137.908 46.692C138.272 46.468 138.758 46.356 139.364 46.356ZM139.14 47.392C138.375 47.392 137.834 47.6067 137.516 48.036C137.199 48.4653 137.036 49.1187 137.026 49.996V50.234C137.026 51.158 137.176 51.872 137.474 52.376C137.782 52.8707 138.347 53.118 139.168 53.118C139.616 53.118 139.99 52.9967 140.288 52.754C140.587 52.502 140.806 52.1567 140.946 51.718C141.096 51.2793 141.17 50.78 141.17 50.22C141.17 49.3613 141.002 48.6753 140.666 48.162C140.34 47.6487 139.831 47.392 139.14 47.392ZM146.914 53.132C147.1 53.132 147.292 53.118 147.488 53.09C147.684 53.062 147.842 53.0247 147.964 52.978V53.916C147.833 53.9813 147.646 54.0327 147.404 54.07C147.161 54.1167 146.928 54.14 146.704 54.14C146.312 54.14 145.948 54.0747 145.612 53.944C145.285 53.804 145.019 53.566 144.814 53.23C144.608 52.894 144.506 52.4227 144.506 51.816V47.448H143.442V46.86L144.52 46.37L145.01 44.774H145.738V46.496H147.908V47.448H145.738V51.788C145.738 52.2453 145.845 52.586 146.06 52.81C146.284 53.0247 146.568 53.132 146.914 53.132ZM150.096 43.682C150.283 43.682 150.446 43.7473 150.586 43.878C150.735 43.9993 150.81 44.1953 150.81 44.466C150.81 44.7367 150.735 44.9373 150.586 45.068C150.446 45.1893 150.283 45.25 150.096 45.25C149.891 45.25 149.718 45.1893 149.578 45.068C149.438 44.9373 149.368 44.7367 149.368 44.466C149.368 44.1953 149.438 43.9993 149.578 43.878C149.718 43.7473 149.891 43.682 150.096 43.682ZM150.698 46.496V54H149.466V46.496H150.698ZM159.599 50.234C159.599 51.4753 159.282 52.4367 158.647 53.118C158.022 53.7993 157.173 54.14 156.099 54.14C155.437 54.14 154.844 53.9907 154.321 53.692C153.808 53.384 153.402 52.9407 153.103 52.362C152.805 51.774 152.655 51.0647 152.655 50.234C152.655 48.9927 152.963 48.036 153.579 47.364C154.205 46.692 155.059 46.356 156.141 46.356C156.813 46.356 157.411 46.51 157.933 46.818C158.456 47.1167 158.862 47.5553 159.151 48.134C159.45 48.7033 159.599 49.4033 159.599 50.234ZM153.929 50.234C153.929 51.1207 154.102 51.8253 154.447 52.348C154.802 52.8613 155.362 53.118 156.127 53.118C156.883 53.118 157.439 52.8613 157.793 52.348C158.148 51.8253 158.325 51.1207 158.325 50.234C158.325 49.3473 158.148 48.652 157.793 48.148C157.439 47.644 156.879 47.392 156.113 47.392C155.348 47.392 154.793 47.644 154.447 48.148C154.102 48.652 153.929 49.3473 153.929 50.234ZM165.164 46.356C166.06 46.356 166.737 46.5753 167.194 47.014C167.651 47.4527 167.88 48.1527 167.88 49.114V54H166.662V49.198C166.662 47.994 166.102 47.392 164.982 47.392C164.151 47.392 163.577 47.6253 163.26 48.092C162.943 48.5587 162.784 49.2307 162.784 50.108V54H161.552V46.496H162.546L162.728 47.518H162.798C163.041 47.126 163.377 46.8367 163.806 46.65C164.235 46.454 164.688 46.356 165.164 46.356Z" fill="black"/>
</svg>
