<svg width="434" height="128" viewBox="0 0 434 128" fill="none" xmlns="http://www.w3.org/2000/svg">
<rect width="434" height="128" fill="white"/>
<path d="M84.024 18.708C84.024 19.468 83.748 20.06 83.196 20.484C82.644 20.908 81.9 21.12 80.964 21.12C80.484 21.12 80.04 21.084 79.632 21.012C79.224 20.94 78.884 20.84 78.612 20.712V19.68C78.9 19.808 79.256 19.924 79.68 20.028C80.112 20.132 80.556 20.184 81.012 20.184C81.644 20.184 82.124 20.06 82.452 19.812C82.78 19.564 82.944 19.228 82.944 18.804C82.944 18.524 82.884 18.288 82.764 18.096C82.644 17.904 82.436 17.728 82.14 17.568C81.844 17.408 81.44 17.232 80.928 17.04C80.192 16.776 79.64 16.452 79.272 16.068C78.904 15.684 78.72 15.16 78.72 14.496C78.72 14.048 78.836 13.66 79.068 13.332C79.3 13.004 79.62 12.752 80.028 12.576C80.436 12.4 80.912 12.312 81.456 12.312C81.92 12.312 82.348 12.356 82.74 12.444C83.132 12.532 83.492 12.648 83.82 12.792L83.484 13.716C83.188 13.588 82.864 13.48 82.512 13.392C82.16 13.304 81.8 13.26 81.432 13.26C80.896 13.26 80.492 13.376 80.22 13.608C79.948 13.832 79.812 14.132 79.812 14.508C79.812 14.796 79.872 15.036 79.992 15.228C80.112 15.42 80.308 15.596 80.58 15.756C80.852 15.908 81.22 16.068 81.684 16.236C82.188 16.42 82.612 16.62 82.956 16.836C83.308 17.044 83.572 17.296 83.748 17.592C83.932 17.888 84.024 18.26 84.024 18.708ZM88.0899 14.448C88.6339 14.448 89.1059 14.568 89.5059 14.808C89.9059 15.048 90.2099 15.388 90.4179 15.828C90.6339 16.26 90.7419 16.768 90.7419 17.352V17.988H86.3379C86.3539 18.716 86.5379 19.272 86.8899 19.656C87.2499 20.032 87.7499 20.22 88.3899 20.22C88.7979 20.22 89.1579 20.184 89.4699 20.112C89.7899 20.032 90.1179 19.92 90.4539 19.776V20.7C90.1259 20.844 89.8019 20.948 89.4819 21.012C89.1619 21.084 88.7819 21.12 88.3419 21.12C87.7259 21.12 87.1859 20.996 86.7219 20.748C86.2579 20.5 85.8939 20.132 85.6299 19.644C85.3739 19.156 85.2459 18.552 85.2459 17.832C85.2459 17.128 85.3619 16.524 85.5939 16.02C85.8339 15.516 86.1659 15.128 86.5899 14.856C87.0219 14.584 87.5219 14.448 88.0899 14.448ZM88.0779 15.312C87.5739 15.312 87.1739 15.476 86.8779 15.804C86.5899 16.124 86.4179 16.572 86.3619 17.148H89.6379C89.6299 16.604 89.5019 16.164 89.2539 15.828C89.0059 15.484 88.6139 15.312 88.0779 15.312ZM93.4354 21H92.3794V11.88H93.4354V21ZM97.9571 14.448C98.5011 14.448 98.9731 14.568 99.3731 14.808C99.7731 15.048 100.077 15.388 100.285 15.828C100.501 16.26 100.609 16.768 100.609 17.352V17.988H96.2051C96.2211 18.716 96.4051 19.272 96.7571 19.656C97.1171 20.032 97.6171 20.22 98.2571 20.22C98.6651 20.22 99.0251 20.184 99.3371 20.112C99.6571 20.032 99.9851 19.92 100.321 19.776V20.7C99.9931 20.844 99.6691 20.948 99.3491 21.012C99.0291 21.084 98.6491 21.12 98.2091 21.12C97.5931 21.12 97.0531 20.996 96.5891 20.748C96.1251 20.5 95.7611 20.132 95.4971 19.644C95.2411 19.156 95.1131 18.552 95.1131 17.832C95.1131 17.128 95.2291 16.524 95.4611 16.02C95.7011 15.516 96.0331 15.128 96.4571 14.856C96.8891 14.584 97.3891 14.448 97.9571 14.448ZM97.9451 15.312C97.4411 15.312 97.0411 15.476 96.7451 15.804C96.4571 16.124 96.2851 16.572 96.2291 17.148H99.5051C99.4971 16.604 99.3691 16.164 99.1211 15.828C98.8731 15.484 98.4811 15.312 97.9451 15.312ZM104.827 21.12C104.251 21.12 103.743 21.004 103.303 20.772C102.863 20.54 102.515 20.18 102.259 19.692C102.011 19.204 101.887 18.58 101.887 17.82C101.887 17.028 102.015 16.384 102.271 15.888C102.535 15.392 102.895 15.028 103.351 14.796C103.807 14.564 104.323 14.448 104.899 14.448C105.219 14.448 105.531 14.484 105.835 14.556C106.147 14.62 106.399 14.7 106.591 14.796L106.267 15.672C106.075 15.6 105.851 15.532 105.595 15.468C105.339 15.404 105.099 15.372 104.875 15.372C103.611 15.372 102.979 16.184 102.979 17.808C102.979 18.584 103.131 19.18 103.435 19.596C103.747 20.004 104.207 20.208 104.815 20.208C105.159 20.208 105.467 20.172 105.739 20.1C106.011 20.028 106.259 19.94 106.483 19.836V20.772C106.267 20.884 106.027 20.968 105.763 21.024C105.507 21.088 105.195 21.12 104.827 21.12ZM110.16 20.256C110.32 20.256 110.484 20.244 110.652 20.22C110.82 20.196 110.956 20.164 111.06 20.124V20.928C110.948 20.984 110.788 21.028 110.58 21.06C110.372 21.1 110.172 21.12 109.98 21.12C109.644 21.12 109.332 21.064 109.044 20.952C108.764 20.832 108.536 20.628 108.36 20.34C108.184 20.052 108.096 19.648 108.096 19.128V15.384H107.184V14.88L108.108 14.46L108.528 13.092H109.152V14.568H111.012V15.384H109.152V19.104C109.152 19.496 109.244 19.788 109.428 19.98C109.62 20.164 109.864 20.256 110.16 20.256ZM118.321 21H117.241V13.38H114.565V12.432H120.985V13.38H118.321V21ZM126.882 17.772C126.882 18.836 126.61 19.66 126.066 20.244C125.53 20.828 124.802 21.12 123.882 21.12C123.314 21.12 122.806 20.992 122.358 20.736C121.918 20.472 121.57 20.092 121.314 19.596C121.058 19.092 120.93 18.484 120.93 17.772C120.93 16.708 121.194 15.888 121.722 15.312C122.258 14.736 122.99 14.448 123.918 14.448C124.494 14.448 125.006 14.58 125.454 14.844C125.902 15.1 126.25 15.476 126.498 15.972C126.754 16.46 126.882 17.06 126.882 17.772ZM122.022 17.772C122.022 18.532 122.17 19.136 122.466 19.584C122.77 20.024 123.25 20.244 123.906 20.244C124.554 20.244 125.03 20.024 125.334 19.584C125.638 19.136 125.79 18.532 125.79 17.772C125.79 17.012 125.638 16.416 125.334 15.984C125.03 15.552 124.55 15.336 123.894 15.336C123.238 15.336 122.762 15.552 122.466 15.984C122.17 16.416 122.022 17.012 122.022 17.772ZM134.147 17.772C134.147 18.836 133.875 19.66 133.331 20.244C132.795 20.828 132.067 21.12 131.147 21.12C130.579 21.12 130.071 20.992 129.623 20.736C129.183 20.472 128.835 20.092 128.579 19.596C128.323 19.092 128.195 18.484 128.195 17.772C128.195 16.708 128.459 15.888 128.987 15.312C129.523 14.736 130.255 14.448 131.183 14.448C131.759 14.448 132.271 14.58 132.719 14.844C133.167 15.1 133.515 15.476 133.763 15.972C134.019 16.46 134.147 17.06 134.147 17.772ZM129.287 17.772C129.287 18.532 129.435 19.136 129.731 19.584C130.035 20.024 130.515 20.244 131.171 20.244C131.819 20.244 132.295 20.024 132.599 19.584C132.903 19.136 133.055 18.532 133.055 17.772C133.055 17.012 132.903 16.416 132.599 15.984C132.295 15.552 131.815 15.336 131.159 15.336C130.503 15.336 130.027 15.552 129.731 15.984C129.435 16.416 129.287 17.012 129.287 17.772ZM136.877 21H135.821V11.88H136.877V21ZM143.103 19.224C143.103 19.848 142.871 20.32 142.407 20.64C141.943 20.96 141.319 21.12 140.535 21.12C140.087 21.12 139.699 21.084 139.371 21.012C139.051 20.94 138.767 20.84 138.519 20.712V19.752C138.775 19.88 139.083 20 139.443 20.112C139.811 20.216 140.183 20.268 140.559 20.268C141.095 20.268 141.483 20.184 141.723 20.016C141.963 19.84 142.083 19.608 142.083 19.32C142.083 19.16 142.039 19.016 141.951 18.888C141.863 18.76 141.703 18.632 141.471 18.504C141.247 18.376 140.923 18.232 140.499 18.072C140.083 17.912 139.727 17.752 139.431 17.592C139.135 17.432 138.907 17.24 138.747 17.016C138.587 16.792 138.507 16.504 138.507 16.152C138.507 15.608 138.727 15.188 139.167 14.892C139.615 14.596 140.199 14.448 140.919 14.448C141.311 14.448 141.675 14.488 142.011 14.568C142.355 14.648 142.675 14.752 142.971 14.88L142.611 15.72C142.339 15.608 142.055 15.512 141.759 15.432C141.463 15.352 141.159 15.312 140.847 15.312C140.415 15.312 140.083 15.384 139.851 15.528C139.627 15.664 139.515 15.852 139.515 16.092C139.515 16.276 139.567 16.428 139.671 16.548C139.775 16.668 139.947 16.788 140.187 16.908C140.435 17.028 140.763 17.164 141.171 17.316C141.579 17.468 141.927 17.624 142.215 17.784C142.503 17.944 142.723 18.14 142.875 18.372C143.027 18.596 143.103 18.88 143.103 19.224Z" fill="#323232"/>
<rect x="78" y="34" width="16" height="16" rx="4" fill="white"/>
<rect x="78.5" y="34.5" width="15" height="15" rx="3.5" stroke="#1B77AF"/>
<path d="M107.642 37.97C106.569 37.97 105.724 38.3293 105.108 39.048C104.492 39.7667 104.184 40.7513 104.184 42.002C104.184 43.2433 104.469 44.228 105.038 44.956C105.617 45.6747 106.48 46.034 107.628 46.034C108.057 46.034 108.468 45.9967 108.86 45.922C109.252 45.8473 109.639 45.754 110.022 45.642V46.734C109.649 46.874 109.261 46.9767 108.86 47.042C108.468 47.1073 107.997 47.14 107.446 47.14C106.429 47.14 105.579 46.93 104.898 46.51C104.217 46.09 103.703 45.4927 103.358 44.718C103.022 43.9433 102.854 43.0333 102.854 41.988C102.854 40.98 103.036 40.0933 103.4 39.328C103.773 38.5533 104.319 37.9513 105.038 37.522C105.757 37.0833 106.629 36.864 107.656 36.864C108.711 36.864 109.63 37.06 110.414 37.452L109.91 38.516C109.602 38.376 109.257 38.25 108.874 38.138C108.501 38.026 108.09 37.97 107.642 37.97ZM114.878 39.37C115.792 39.37 116.469 39.5707 116.908 39.972C117.346 40.3733 117.566 41.0127 117.566 41.89V47H116.67L116.432 45.936H116.376C116.049 46.3467 115.704 46.65 115.34 46.846C114.976 47.042 114.481 47.14 113.856 47.14C113.174 47.14 112.61 46.9627 112.162 46.608C111.714 46.244 111.49 45.6793 111.49 44.914C111.49 44.1673 111.784 43.5933 112.372 43.192C112.96 42.7813 113.865 42.5573 115.088 42.52L116.362 42.478V42.03C116.362 41.4047 116.226 40.9707 115.956 40.728C115.685 40.4853 115.302 40.364 114.808 40.364C114.416 40.364 114.042 40.4247 113.688 40.546C113.333 40.658 113.002 40.7887 112.694 40.938L112.316 40.014C112.642 39.8367 113.03 39.6873 113.478 39.566C113.926 39.4353 114.392 39.37 114.878 39.37ZM116.348 43.332L115.242 43.374C114.308 43.4113 113.66 43.5607 113.296 43.822C112.941 44.0833 112.764 44.452 112.764 44.928C112.764 45.348 112.89 45.656 113.142 45.852C113.403 46.048 113.734 46.146 114.136 46.146C114.761 46.146 115.284 45.9733 115.704 45.628C116.133 45.2733 116.348 44.732 116.348 44.004V43.332ZM121.115 47H119.883V36.36H121.115V47ZM126.503 47.14C125.831 47.14 125.238 47.0047 124.725 46.734C124.211 46.4633 123.805 46.0433 123.507 45.474C123.217 44.9047 123.073 44.1767 123.073 43.29C123.073 42.366 123.222 41.6147 123.521 41.036C123.829 40.4573 124.249 40.0327 124.781 39.762C125.313 39.4913 125.915 39.356 126.587 39.356C126.96 39.356 127.324 39.398 127.679 39.482C128.043 39.5567 128.337 39.65 128.561 39.762L128.183 40.784C127.959 40.7 127.697 40.6207 127.399 40.546C127.1 40.4713 126.82 40.434 126.559 40.434C125.084 40.434 124.347 41.3813 124.347 43.276C124.347 44.1813 124.524 44.8767 124.879 45.362C125.243 45.838 125.779 46.076 126.489 46.076C126.89 46.076 127.249 46.034 127.567 45.95C127.884 45.866 128.173 45.7633 128.435 45.642V46.734C128.183 46.8647 127.903 46.9627 127.595 47.028C127.296 47.1027 126.932 47.14 126.503 47.14ZM136.491 39.496V47H135.483L135.301 46.006H135.245C135.003 46.398 134.667 46.6873 134.237 46.874C133.808 47.0513 133.351 47.14 132.865 47.14C131.96 47.14 131.279 46.9253 130.821 46.496C130.364 46.0573 130.135 45.362 130.135 44.41V39.496H131.381V44.326C131.381 45.5207 131.937 46.118 133.047 46.118C133.878 46.118 134.452 45.8847 134.769 45.418C135.096 44.9513 135.259 44.2793 135.259 43.402V39.496H136.491ZM140.106 47H138.874V36.36H140.106V47ZM145.325 39.37C146.24 39.37 146.916 39.5707 147.355 39.972C147.794 40.3733 148.013 41.0127 148.013 41.89V47H147.117L146.879 45.936H146.823C146.496 46.3467 146.151 46.65 145.787 46.846C145.423 47.042 144.928 47.14 144.303 47.14C143.622 47.14 143.057 46.9627 142.609 46.608C142.161 46.244 141.937 45.6793 141.937 44.914C141.937 44.1673 142.231 43.5933 142.819 43.192C143.407 42.7813 144.312 42.5573 145.535 42.52L146.809 42.478V42.03C146.809 41.4047 146.674 40.9707 146.403 40.728C146.132 40.4853 145.75 40.364 145.255 40.364C144.863 40.364 144.49 40.4247 144.135 40.546C143.78 40.658 143.449 40.7887 143.141 40.938L142.763 40.014C143.09 39.8367 143.477 39.6873 143.925 39.566C144.373 39.4353 144.84 39.37 145.325 39.37ZM146.795 43.332L145.689 43.374C144.756 43.4113 144.107 43.5607 143.743 43.822C143.388 44.0833 143.211 44.452 143.211 44.928C143.211 45.348 143.337 45.656 143.589 45.852C143.85 46.048 144.182 46.146 144.583 46.146C145.208 46.146 145.731 45.9733 146.151 45.628C146.58 45.2733 146.795 44.732 146.795 44.004V43.332ZM152.837 46.132C153.023 46.132 153.215 46.118 153.411 46.09C153.607 46.062 153.765 46.0247 153.887 45.978V46.916C153.756 46.9813 153.569 47.0327 153.327 47.07C153.084 47.1167 152.851 47.14 152.627 47.14C152.235 47.14 151.871 47.0747 151.535 46.944C151.208 46.804 150.942 46.566 150.737 46.23C150.531 45.894 150.429 45.4227 150.429 44.816V40.448H149.365V39.86L150.443 39.37L150.933 37.774H151.661V39.496H153.831V40.448H151.661V44.788C151.661 45.2453 151.768 45.586 151.983 45.81C152.207 46.0247 152.491 46.132 152.837 46.132ZM161.913 43.234C161.913 44.4753 161.596 45.4367 160.961 46.118C160.336 46.7993 159.487 47.14 158.413 47.14C157.751 47.14 157.158 46.9907 156.635 46.692C156.122 46.384 155.716 45.9407 155.417 45.362C155.119 44.774 154.969 44.0647 154.969 43.234C154.969 41.9927 155.277 41.036 155.893 40.364C156.519 39.692 157.373 39.356 158.455 39.356C159.127 39.356 159.725 39.51 160.247 39.818C160.77 40.1167 161.176 40.5553 161.465 41.134C161.764 41.7033 161.913 42.4033 161.913 43.234ZM156.243 43.234C156.243 44.1207 156.416 44.8253 156.761 45.348C157.116 45.8613 157.676 46.118 158.441 46.118C159.197 46.118 159.753 45.8613 160.107 45.348C160.462 44.8253 160.639 44.1207 160.639 43.234C160.639 42.3473 160.462 41.652 160.107 41.148C159.753 40.644 159.193 40.392 158.427 40.392C157.662 40.392 157.107 40.644 156.761 41.148C156.416 41.652 156.243 42.3473 156.243 43.234ZM167.366 39.356C167.506 39.356 167.655 39.3653 167.814 39.384C167.972 39.3933 168.117 39.412 168.248 39.44L168.094 40.574C167.972 40.546 167.837 40.5227 167.688 40.504C167.538 40.4853 167.403 40.476 167.282 40.476C166.899 40.476 166.54 40.5833 166.204 40.798C165.868 41.0033 165.597 41.2973 165.392 41.68C165.196 42.0533 165.098 42.492 165.098 42.996V47H163.866V39.496H164.874L165.014 40.868H165.07C165.303 40.4573 165.611 40.1027 165.994 39.804C166.386 39.5053 166.843 39.356 167.366 39.356Z" fill="black"/>
<rect x="185" y="34" width="16" height="16" rx="4" fill="white"/>
<rect x="185.5" y="34.5" width="15" height="15" rx="3.5" stroke="#1B77AF"/>
<path d="M216.028 44.326C216.028 45.2127 215.706 45.9033 215.062 46.398C214.418 46.8927 213.55 47.14 212.458 47.14C211.898 47.14 211.38 47.098 210.904 47.014C210.428 46.93 210.031 46.8133 209.714 46.664V45.46C210.05 45.6093 210.465 45.7447 210.96 45.866C211.464 45.9873 211.982 46.048 212.514 46.048C213.251 46.048 213.811 45.9033 214.194 45.614C214.577 45.3247 214.768 44.9327 214.768 44.438C214.768 44.1113 214.698 43.836 214.558 43.612C214.418 43.388 214.175 43.1827 213.83 42.996C213.485 42.8093 213.013 42.604 212.416 42.38C211.557 42.072 210.913 41.694 210.484 41.246C210.055 40.798 209.84 40.1867 209.84 39.412C209.84 38.8893 209.975 38.4367 210.246 38.054C210.517 37.6713 210.89 37.3773 211.366 37.172C211.842 36.9667 212.397 36.864 213.032 36.864C213.573 36.864 214.073 36.9153 214.53 37.018C214.987 37.1207 215.407 37.256 215.79 37.424L215.398 38.502C215.053 38.3527 214.675 38.2267 214.264 38.124C213.853 38.0213 213.433 37.97 213.004 37.97C212.379 37.97 211.907 38.1053 211.59 38.376C211.273 38.6373 211.114 38.9873 211.114 39.426C211.114 39.762 211.184 40.042 211.324 40.266C211.464 40.49 211.693 40.6953 212.01 40.882C212.327 41.0593 212.757 41.246 213.298 41.442C213.886 41.6567 214.381 41.89 214.782 42.142C215.193 42.3847 215.501 42.6787 215.706 43.024C215.921 43.3693 216.028 43.8033 216.028 44.326ZM220.716 39.37C221.63 39.37 222.307 39.5707 222.746 39.972C223.184 40.3733 223.404 41.0127 223.404 41.89V47H222.508L222.27 45.936H222.214C221.887 46.3467 221.542 46.65 221.178 46.846C220.814 47.042 220.319 47.14 219.694 47.14C219.012 47.14 218.448 46.9627 218 46.608C217.552 46.244 217.328 45.6793 217.328 44.914C217.328 44.1673 217.622 43.5933 218.21 43.192C218.798 42.7813 219.703 42.5573 220.926 42.52L222.2 42.478V42.03C222.2 41.4047 222.064 40.9707 221.794 40.728C221.523 40.4853 221.14 40.364 220.646 40.364C220.254 40.364 219.88 40.4247 219.526 40.546C219.171 40.658 218.84 40.7887 218.532 40.938L218.154 40.014C218.48 39.8367 218.868 39.6873 219.316 39.566C219.764 39.4353 220.23 39.37 220.716 39.37ZM222.186 43.332L221.08 43.374C220.146 43.4113 219.498 43.5607 219.134 43.822C218.779 44.0833 218.602 44.452 218.602 44.928C218.602 45.348 218.728 45.656 218.98 45.852C219.241 46.048 219.572 46.146 219.974 46.146C220.599 46.146 221.122 45.9733 221.542 45.628C221.971 45.2733 222.186 44.732 222.186 44.004V43.332ZM226.953 47H225.721V36.36H226.953V47ZM232.229 39.356C232.863 39.356 233.414 39.496 233.881 39.776C234.347 40.056 234.702 40.4527 234.945 40.966C235.197 41.47 235.323 42.0627 235.323 42.744V43.486H230.185C230.203 44.3353 230.418 44.984 230.829 45.432C231.249 45.8707 231.832 46.09 232.579 46.09C233.055 46.09 233.475 46.048 233.839 45.964C234.212 45.8707 234.595 45.74 234.987 45.572V46.65C234.604 46.818 234.226 46.9393 233.853 47.014C233.479 47.098 233.036 47.14 232.523 47.14C231.804 47.14 231.174 46.9953 230.633 46.706C230.091 46.4167 229.667 45.9873 229.359 45.418C229.06 44.8487 228.911 44.144 228.911 43.304C228.911 42.4827 229.046 41.778 229.317 41.19C229.597 40.602 229.984 40.1493 230.479 39.832C230.983 39.5147 231.566 39.356 232.229 39.356ZM232.215 40.364C231.627 40.364 231.16 40.5553 230.815 40.938C230.479 41.3113 230.278 41.834 230.213 42.506H234.035C234.025 41.8713 233.876 41.358 233.587 40.966C233.297 40.5647 232.84 40.364 232.215 40.364ZM242.119 44.928C242.119 45.656 241.848 46.2067 241.307 46.58C240.766 46.9533 240.038 47.14 239.123 47.14C238.6 47.14 238.148 47.098 237.765 47.014C237.392 46.93 237.06 46.8133 236.771 46.664V45.544C237.07 45.6933 237.429 45.8333 237.849 45.964C238.278 46.0853 238.712 46.146 239.151 46.146C239.776 46.146 240.229 46.048 240.509 45.852C240.789 45.6467 240.929 45.376 240.929 45.04C240.929 44.8533 240.878 44.6853 240.775 44.536C240.672 44.3867 240.486 44.2373 240.215 44.088C239.954 43.9387 239.576 43.7707 239.081 43.584C238.596 43.3973 238.18 43.2107 237.835 43.024C237.49 42.8373 237.224 42.6133 237.037 42.352C236.85 42.0907 236.757 41.7547 236.757 41.344C236.757 40.7093 237.014 40.2193 237.527 39.874C238.05 39.5287 238.731 39.356 239.571 39.356C240.028 39.356 240.453 39.4027 240.845 39.496C241.246 39.5893 241.62 39.7107 241.965 39.86L241.545 40.84C241.228 40.7093 240.896 40.5973 240.551 40.504C240.206 40.4107 239.851 40.364 239.487 40.364C238.983 40.364 238.596 40.448 238.325 40.616C238.064 40.7747 237.933 40.994 237.933 41.274C237.933 41.4887 237.994 41.666 238.115 41.806C238.236 41.946 238.437 42.086 238.717 42.226C239.006 42.366 239.389 42.5247 239.865 42.702C240.341 42.8793 240.747 43.0613 241.083 43.248C241.419 43.4347 241.676 43.6633 241.853 43.934C242.03 44.1953 242.119 44.5267 242.119 44.928Z" fill="black"/>
<rect x="259" y="34" width="16" height="16" rx="4" fill="white"/>
<rect x="259.5" y="34.5" width="15" height="15" rx="3.5" stroke="#1B77AF"/>
<path d="M288.642 37.97C287.569 37.97 286.724 38.3293 286.108 39.048C285.492 39.7667 285.184 40.7513 285.184 42.002C285.184 43.2433 285.469 44.228 286.038 44.956C286.617 45.6747 287.48 46.034 288.628 46.034C289.057 46.034 289.468 45.9967 289.86 45.922C290.252 45.8473 290.639 45.754 291.022 45.642V46.734C290.649 46.874 290.261 46.9767 289.86 47.042C289.468 47.1073 288.997 47.14 288.446 47.14C287.429 47.14 286.579 46.93 285.898 46.51C285.217 46.09 284.703 45.4927 284.358 44.718C284.022 43.9433 283.854 43.0333 283.854 41.988C283.854 40.98 284.036 40.0933 284.4 39.328C284.773 38.5533 285.319 37.9513 286.038 37.522C286.757 37.0833 287.629 36.864 288.656 36.864C289.711 36.864 290.63 37.06 291.414 37.452L290.91 38.516C290.602 38.376 290.257 38.25 289.874 38.138C289.501 38.026 289.09 37.97 288.642 37.97ZM295.878 39.37C296.792 39.37 297.469 39.5707 297.908 39.972C298.346 40.3733 298.566 41.0127 298.566 41.89V47H297.67L297.432 45.936H297.376C297.049 46.3467 296.704 46.65 296.34 46.846C295.976 47.042 295.481 47.14 294.856 47.14C294.174 47.14 293.61 46.9627 293.162 46.608C292.714 46.244 292.49 45.6793 292.49 44.914C292.49 44.1673 292.784 43.5933 293.372 43.192C293.96 42.7813 294.865 42.5573 296.088 42.52L297.362 42.478V42.03C297.362 41.4047 297.226 40.9707 296.956 40.728C296.685 40.4853 296.302 40.364 295.808 40.364C295.416 40.364 295.042 40.4247 294.688 40.546C294.333 40.658 294.002 40.7887 293.694 40.938L293.316 40.014C293.642 39.8367 294.03 39.6873 294.478 39.566C294.926 39.4353 295.392 39.37 295.878 39.37ZM297.348 43.332L296.242 43.374C295.308 43.4113 294.66 43.5607 294.296 43.822C293.941 44.0833 293.764 44.452 293.764 44.928C293.764 45.348 293.89 45.656 294.142 45.852C294.403 46.048 294.734 46.146 295.136 46.146C295.761 46.146 296.284 45.9733 296.704 45.628C297.133 45.2733 297.348 44.732 297.348 44.004V43.332ZM302.115 47H300.883V36.36H302.115V47ZM305.725 47H304.493V36.36H305.725V47ZM316.191 37.97C315.117 37.97 314.273 38.3293 313.657 39.048C313.041 39.7667 312.733 40.7513 312.733 42.002C312.733 43.2433 313.017 44.228 313.587 44.956C314.165 45.6747 315.029 46.034 316.177 46.034C316.606 46.034 317.017 45.9967 317.409 45.922C317.801 45.8473 318.188 45.754 318.571 45.642V46.734C318.197 46.874 317.81 46.9767 317.409 47.042C317.017 47.1073 316.545 47.14 315.995 47.14C314.977 47.14 314.128 46.93 313.447 46.51C312.765 46.09 312.252 45.4927 311.907 44.718C311.571 43.9433 311.403 43.0333 311.403 41.988C311.403 40.98 311.585 40.0933 311.949 39.328C312.322 38.5533 312.868 37.9513 313.587 37.522C314.305 37.0833 315.178 36.864 316.205 36.864C317.259 36.864 318.179 37.06 318.963 37.452L318.459 38.516C318.151 38.376 317.805 38.25 317.423 38.138C317.049 38.026 316.639 37.97 316.191 37.97ZM323.483 39.356C324.117 39.356 324.668 39.496 325.135 39.776C325.601 40.056 325.956 40.4527 326.199 40.966C326.451 41.47 326.577 42.0627 326.577 42.744V43.486H321.439C321.457 44.3353 321.672 44.984 322.083 45.432C322.503 45.8707 323.086 46.09 323.833 46.09C324.309 46.09 324.729 46.048 325.093 45.964C325.466 45.8707 325.849 45.74 326.241 45.572V46.65C325.858 46.818 325.48 46.9393 325.107 47.014C324.733 47.098 324.29 47.14 323.777 47.14C323.058 47.14 322.428 46.9953 321.887 46.706C321.345 46.4167 320.921 45.9873 320.613 45.418C320.314 44.8487 320.165 44.144 320.165 43.304C320.165 42.4827 320.3 41.778 320.571 41.19C320.851 40.602 321.238 40.1493 321.733 39.832C322.237 39.5147 322.82 39.356 323.483 39.356ZM323.469 40.364C322.881 40.364 322.414 40.5553 322.069 40.938C321.733 41.3113 321.532 41.834 321.467 42.506H325.289C325.279 41.8713 325.13 41.358 324.841 40.966C324.551 40.5647 324.094 40.364 323.469 40.364ZM332.099 39.356C332.995 39.356 333.672 39.5753 334.129 40.014C334.586 40.4527 334.815 41.1527 334.815 42.114V47H333.597V42.198C333.597 40.994 333.037 40.392 331.917 40.392C331.086 40.392 330.512 40.6253 330.195 41.092C329.878 41.5587 329.719 42.2307 329.719 43.108V47H328.487V39.496H329.481L329.663 40.518H329.733C329.976 40.126 330.312 39.8367 330.741 39.65C331.17 39.454 331.623 39.356 332.099 39.356ZM339.647 46.132C339.834 46.132 340.025 46.118 340.221 46.09C340.417 46.062 340.576 46.0247 340.697 45.978V46.916C340.567 46.9813 340.38 47.0327 340.137 47.07C339.895 47.1167 339.661 47.14 339.437 47.14C339.045 47.14 338.681 47.0747 338.345 46.944C338.019 46.804 337.753 46.566 337.547 46.23C337.342 45.894 337.239 45.4227 337.239 44.816V40.448H336.175V39.86L337.253 39.37L337.743 37.774H338.471V39.496H340.641V40.448H338.471V44.788C338.471 45.2453 338.579 45.586 338.793 45.81C339.017 46.0247 339.302 46.132 339.647 46.132ZM345.098 39.356C345.732 39.356 346.283 39.496 346.75 39.776C347.216 40.056 347.571 40.4527 347.814 40.966C348.066 41.47 348.192 42.0627 348.192 42.744V43.486H343.054C343.072 44.3353 343.287 44.984 343.698 45.432C344.118 45.8707 344.701 46.09 345.448 46.09C345.924 46.09 346.344 46.048 346.708 45.964C347.081 45.8707 347.464 45.74 347.856 45.572V46.65C347.473 46.818 347.095 46.9393 346.722 47.014C346.348 47.098 345.905 47.14 345.392 47.14C344.673 47.14 344.043 46.9953 343.502 46.706C342.96 46.4167 342.536 45.9873 342.228 45.418C341.929 44.8487 341.78 44.144 341.78 43.304C341.78 42.4827 341.915 41.778 342.186 41.19C342.466 40.602 342.853 40.1493 343.348 39.832C343.852 39.5147 344.435 39.356 345.098 39.356ZM345.084 40.364C344.496 40.364 344.029 40.5553 343.684 40.938C343.348 41.3113 343.147 41.834 343.082 42.506H346.904C346.894 41.8713 346.745 41.358 346.456 40.966C346.166 40.5647 345.709 40.364 345.084 40.364ZM353.602 39.356C353.742 39.356 353.891 39.3653 354.05 39.384C354.209 39.3933 354.353 39.412 354.484 39.44L354.33 40.574C354.209 40.546 354.073 40.5227 353.924 40.504C353.775 40.4853 353.639 40.476 353.518 40.476C353.135 40.476 352.776 40.5833 352.44 40.798C352.104 41.0033 351.833 41.2973 351.628 41.68C351.432 42.0533 351.334 42.492 351.334 42.996V47H350.102V39.496H351.11L351.25 40.868H351.306C351.539 40.4573 351.847 40.1027 352.23 39.804C352.622 39.5053 353.079 39.356 353.602 39.356Z" fill="black"/>
<rect x="371" y="34" width="16" height="16" rx="4" fill="white"/>
<rect x="371.5" y="34.5" width="15" height="15" rx="3.5" stroke="#1B77AF"/>
<path d="M403.4 37.004L399.83 47H398.57L395 37.004H396.316L398.57 43.416C398.719 43.8267 398.841 44.214 398.934 44.578C399.037 44.9327 399.125 45.2733 399.2 45.6C399.265 45.2733 399.349 44.928 399.452 44.564C399.555 44.2 399.681 43.808 399.83 43.388L402.07 37.004H403.4ZM410.835 43.234C410.835 44.4753 410.518 45.4367 409.883 46.118C409.258 46.7993 408.408 47.14 407.335 47.14C406.672 47.14 406.08 46.9907 405.557 46.692C405.044 46.384 404.638 45.9407 404.339 45.362C404.04 44.774 403.891 44.0647 403.891 43.234C403.891 41.9927 404.199 41.036 404.815 40.364C405.44 39.692 406.294 39.356 407.377 39.356C408.049 39.356 408.646 39.51 409.169 39.818C409.692 40.1167 410.098 40.5553 410.387 41.134C410.686 41.7033 410.835 42.4033 410.835 43.234ZM405.165 43.234C405.165 44.1207 405.338 44.8253 405.683 45.348C406.038 45.8613 406.598 46.118 407.363 46.118C408.119 46.118 408.674 45.8613 409.029 45.348C409.384 44.8253 409.561 44.1207 409.561 43.234C409.561 42.3473 409.384 41.652 409.029 41.148C408.674 40.644 408.114 40.392 407.349 40.392C406.584 40.392 406.028 40.644 405.683 41.148C405.338 41.652 405.165 42.3473 405.165 43.234ZM413.418 36.682C413.604 36.682 413.768 36.7473 413.908 36.878C414.057 36.9993 414.132 37.1953 414.132 37.466C414.132 37.7367 414.057 37.9373 413.908 38.068C413.768 38.1893 413.604 38.25 413.418 38.25C413.212 38.25 413.04 38.1893 412.9 38.068C412.76 37.9373 412.69 37.7367 412.69 37.466C412.69 37.1953 412.76 36.9993 412.9 36.878C413.04 36.7473 413.212 36.682 413.418 36.682ZM414.02 39.496V47H412.788V39.496H414.02ZM419.407 47.14C418.735 47.14 418.142 47.0047 417.629 46.734C417.116 46.4633 416.71 46.0433 416.411 45.474C416.122 44.9047 415.977 44.1767 415.977 43.29C415.977 42.366 416.126 41.6147 416.425 41.036C416.733 40.4573 417.153 40.0327 417.685 39.762C418.217 39.4913 418.819 39.356 419.491 39.356C419.864 39.356 420.228 39.398 420.583 39.482C420.947 39.5567 421.241 39.65 421.465 39.762L421.087 40.784C420.863 40.7 420.602 40.6207 420.303 40.546C420.004 40.4713 419.724 40.434 419.463 40.434C417.988 40.434 417.251 41.3813 417.251 43.276C417.251 44.1813 417.428 44.8767 417.783 45.362C418.147 45.838 418.684 46.076 419.393 46.076C419.794 46.076 420.154 46.034 420.471 45.95C420.788 45.866 421.078 45.7633 421.339 45.642V46.734C421.087 46.8647 420.807 46.9627 420.499 47.028C420.2 47.1027 419.836 47.14 419.407 47.14ZM426.022 39.356C426.656 39.356 427.207 39.496 427.674 39.776C428.14 40.056 428.495 40.4527 428.738 40.966C428.99 41.47 429.116 42.0627 429.116 42.744V43.486H423.978C423.996 44.3353 424.211 44.984 424.622 45.432C425.042 45.8707 425.625 46.09 426.372 46.09C426.848 46.09 427.268 46.048 427.632 45.964C428.005 45.8707 428.388 45.74 428.78 45.572V46.65C428.397 46.818 428.019 46.9393 427.646 47.014C427.272 47.098 426.829 47.14 426.316 47.14C425.597 47.14 424.967 46.9953 424.426 46.706C423.884 46.4167 423.46 45.9873 423.152 45.418C422.853 44.8487 422.704 44.144 422.704 43.304C422.704 42.4827 422.839 41.778 423.11 41.19C423.39 40.602 423.777 40.1493 424.272 39.832C424.776 39.5147 425.359 39.356 426.022 39.356ZM426.008 40.364C425.42 40.364 424.953 40.5553 424.608 40.938C424.272 41.3113 424.071 41.834 424.006 42.506H427.828C427.818 41.8713 427.669 41.358 427.38 40.966C427.09 40.5647 426.633 40.364 426.008 40.364Z" fill="black"/>
<path d="M20.0177 22.6221C20.5963 22.6221 21.119 22.7108 21.5857 22.8881C22.0523 23.0655 22.4257 23.3361 22.7057 23.7001C22.9857 24.0548 23.1257 24.4935 23.1257 25.0161C23.1257 25.6135 22.9483 26.1081 22.5937 26.5001C22.239 26.8828 21.805 27.2048 21.2917 27.4661C21.6743 27.6621 22.029 27.8815 22.3557 28.1241C22.6823 28.3668 22.9437 28.6561 23.1397 28.9921C23.345 29.3188 23.4477 29.7061 23.4477 30.1541C23.4477 30.7048 23.303 31.1855 23.0137 31.5961C22.7243 32.0068 22.323 32.3241 21.8097 32.5481C21.3057 32.7721 20.713 32.8841 20.0317 32.8841C18.921 32.8841 18.067 32.6461 17.4697 32.1701C16.8723 31.6941 16.5737 31.0408 16.5737 30.2101C16.5737 29.7528 16.6623 29.3561 16.8397 29.0201C17.017 28.6841 17.255 28.3948 17.5537 28.1521C17.8523 27.9095 18.1837 27.6995 18.5477 27.5221C18.0903 27.2421 17.6983 26.9061 17.3717 26.5141C17.0543 26.1128 16.8957 25.6088 16.8957 25.0021C16.8957 24.4888 17.0357 24.0548 17.3157 23.7001C17.605 23.3455 17.983 23.0795 18.4497 22.9021C18.9257 22.7155 19.4483 22.6221 20.0177 22.6221ZM20.0037 23.9521C19.593 23.9521 19.2523 24.0548 18.9817 24.2601C18.7203 24.4655 18.5897 24.7548 18.5897 25.1281C18.5897 25.5388 18.7297 25.8655 19.0097 26.1081C19.2897 26.3508 19.6303 26.5608 20.0317 26.7381C20.4143 26.5701 20.741 26.3648 21.0117 26.1221C21.2917 25.8795 21.4317 25.5481 21.4317 25.1281C21.4317 24.7548 21.2963 24.4655 21.0257 24.2601C20.7643 24.0548 20.4237 23.9521 20.0037 23.9521ZM18.2537 30.1261C18.2537 30.5368 18.3983 30.8775 18.6877 31.1481C18.977 31.4095 19.4157 31.5401 20.0037 31.5401C20.5823 31.5401 21.021 31.4095 21.3197 31.1481C21.6183 30.8868 21.7677 30.5461 21.7677 30.1261C21.7677 29.7061 21.5997 29.3561 21.2637 29.0761C20.9277 28.7961 20.531 28.5535 20.0737 28.3481L19.8777 28.2501C19.3737 28.4835 18.977 28.7495 18.6877 29.0481C18.3983 29.3375 18.2537 29.6968 18.2537 30.1261ZM32.7861 25.0161C33.6728 25.0161 34.3868 25.3475 34.9281 26.0101C35.4694 26.6635 35.7401 27.6388 35.7401 28.9361C35.7401 30.2335 35.4601 31.2181 34.9001 31.8901C34.3494 32.5528 33.6308 32.8841 32.7441 32.8841C32.1841 32.8841 31.7314 32.7815 31.3861 32.5761C31.0408 32.3708 30.7654 32.1328 30.5601 31.8621H30.4481C30.4761 32.0395 30.4994 32.2308 30.5181 32.4361C30.5461 32.6415 30.5601 32.8375 30.5601 33.0241V36.1041H28.7961V25.1561H30.2241L30.4761 26.1641H30.5601C30.7748 25.8468 31.0548 25.5761 31.4001 25.3521C31.7454 25.1281 32.2074 25.0161 32.7861 25.0161ZM32.2821 26.4441C31.6568 26.4441 31.2134 26.6308 30.9521 27.0041C30.7001 27.3775 30.5694 27.9421 30.5601 28.6981V28.9221C30.5601 29.7341 30.6814 30.3595 30.9241 30.7981C31.1761 31.2275 31.6381 31.4421 32.3101 31.4421C32.8608 31.4421 33.2668 31.2181 33.5281 30.7701C33.7988 30.3128 33.9341 29.6921 33.9341 28.9081C33.9341 28.1241 33.7988 27.5175 33.5281 27.0881C33.2668 26.6588 32.8514 26.4441 32.2821 26.4441ZM38.9243 28.8661L36.4183 25.1561H38.4203L40.0723 27.7321L41.7243 25.1561H43.7263L41.1923 28.8661L43.8523 32.7441H41.8503L40.0723 29.9861L38.2943 32.7441H36.2923L38.9243 28.8661Z" fill="#D51588"/>
<path d="M62 27.7441L46 27.7441" stroke="#D51588"/>
<rect opacity="0.4" x="429" y="23.7441" width="8.00002" height="367" transform="rotate(90 429 23.7441)" fill="white"/>
<rect opacity="0.12" x="429" y="23.7441" width="8.00002" height="367" transform="rotate(90 429 23.7441)" fill="#D51588"/>
<path opacity="0.5" d="M429 31.7442L62 31.7441" stroke="#D51588" stroke-dasharray="3 3"/>
<path opacity="0.5" d="M429 23.7442L62 23.7441" stroke="#D51588" stroke-dasharray="3 3"/>
<rect opacity="0.4" x="169" y="24.4189" width="16" height="59.8139" fill="white"/>
<rect opacity="0.12" x="169" y="24.4189" width="16" height="59.8139" fill="#D51588"/>
<path opacity="0.5" d="M185 24.4185L185 84.2324" stroke="#D51588" stroke-dasharray="3 3"/>
<path opacity="0.5" d="M169 24.4185L169 84.2324" stroke="#D51588" stroke-dasharray="3 3"/>
<path d="M177 84.2324V100.232" stroke="#D51588"/>
<path d="M164.482 115.232H162.718V109.002C162.718 108.704 162.722 108.386 162.732 108.05C162.741 107.714 162.755 107.402 162.774 107.112C162.68 107.206 162.564 107.318 162.424 107.448C162.293 107.579 162.148 107.705 161.99 107.826L160.87 108.722L159.988 107.63L163.012 105.236H164.482V115.232ZM167.622 110.976C167.622 110.398 167.659 109.828 167.734 109.268C167.818 108.708 167.962 108.181 168.168 107.686C168.373 107.182 168.658 106.739 169.022 106.356C169.386 105.964 169.848 105.661 170.408 105.446C170.977 105.222 171.663 105.11 172.466 105.11C172.662 105.11 172.886 105.12 173.138 105.138C173.39 105.157 173.6 105.185 173.768 105.222V106.678C173.404 106.576 173.002 106.524 172.564 106.524C171.724 106.524 171.07 106.678 170.604 106.986C170.137 107.285 169.81 107.7 169.624 108.232C169.437 108.755 169.325 109.343 169.288 109.996H169.372C169.568 109.67 169.848 109.394 170.212 109.17C170.576 108.937 171.047 108.82 171.626 108.82C172.494 108.82 173.189 109.091 173.712 109.632C174.234 110.174 174.496 110.944 174.496 111.942C174.496 113.016 174.197 113.856 173.6 114.462C173.002 115.069 172.195 115.372 171.178 115.372C170.515 115.372 169.913 115.214 169.372 114.896C168.84 114.579 168.415 114.098 168.098 113.454C167.78 112.801 167.622 111.975 167.622 110.976ZM171.15 113.93C171.626 113.93 172.013 113.772 172.312 113.454C172.61 113.128 172.76 112.628 172.76 111.956C172.76 111.415 172.629 110.99 172.368 110.682C172.106 110.365 171.714 110.206 171.192 110.206C170.828 110.206 170.51 110.286 170.24 110.444C169.978 110.594 169.773 110.79 169.624 111.032C169.474 111.266 169.4 111.508 169.4 111.76C169.4 112.106 169.465 112.446 169.596 112.782C169.726 113.109 169.918 113.384 170.17 113.608C170.431 113.823 170.758 113.93 171.15 113.93ZM183.792 107.504C184.679 107.504 185.393 107.836 185.934 108.498C186.475 109.152 186.746 110.127 186.746 111.424C186.746 112.722 186.466 113.706 185.906 114.378C185.355 115.041 184.637 115.372 183.75 115.372C183.19 115.372 182.737 115.27 182.392 115.064C182.047 114.859 181.771 114.621 181.566 114.35H181.454C181.482 114.528 181.505 114.719 181.524 114.924C181.552 115.13 181.566 115.326 181.566 115.512V118.592H179.802V107.644H181.23L181.482 108.652H181.566C181.781 108.335 182.061 108.064 182.406 107.84C182.751 107.616 183.213 107.504 183.792 107.504ZM183.288 108.932C182.663 108.932 182.219 109.119 181.958 109.492C181.706 109.866 181.575 110.43 181.566 111.186V111.41C181.566 112.222 181.687 112.848 181.93 113.286C182.182 113.716 182.644 113.93 183.316 113.93C183.867 113.93 184.273 113.706 184.534 113.258C184.805 112.801 184.94 112.18 184.94 111.396C184.94 110.612 184.805 110.006 184.534 109.576C184.273 109.147 183.857 108.932 183.288 108.932ZM189.93 111.354L187.424 107.644H189.426L191.078 110.22L192.73 107.644H194.732L192.198 111.354L194.858 115.232H192.856L191.078 112.474L189.3 115.232H187.298L189.93 111.354Z" fill="#D51588"/>
<rect opacity="0.4" x="243" y="24.4189" width="16" height="59.8139" fill="white"/>
<rect opacity="0.12" x="243" y="24.4189" width="16" height="59.8139" fill="#D51588"/>
<path opacity="0.5" d="M259 24.4185L259 84.2324" stroke="#D51588" stroke-dasharray="3 3"/>
<path opacity="0.5" d="M243 24.4185L243 84.2324" stroke="#D51588" stroke-dasharray="3 3"/>
<path d="M251 84.2324V100.232" stroke="#D51588"/>
<path d="M238.482 115.232H236.718V109.002C236.718 108.704 236.722 108.386 236.732 108.05C236.741 107.714 236.755 107.402 236.774 107.112C236.68 107.206 236.564 107.318 236.424 107.448C236.293 107.579 236.148 107.705 235.99 107.826L234.87 108.722L233.988 107.63L237.012 105.236H238.482V115.232ZM241.622 110.976C241.622 110.398 241.659 109.828 241.734 109.268C241.818 108.708 241.962 108.181 242.168 107.686C242.373 107.182 242.658 106.739 243.022 106.356C243.386 105.964 243.848 105.661 244.408 105.446C244.977 105.222 245.663 105.11 246.466 105.11C246.662 105.11 246.886 105.12 247.138 105.138C247.39 105.157 247.6 105.185 247.768 105.222V106.678C247.404 106.576 247.002 106.524 246.564 106.524C245.724 106.524 245.07 106.678 244.604 106.986C244.137 107.285 243.81 107.7 243.624 108.232C243.437 108.755 243.325 109.343 243.288 109.996H243.372C243.568 109.67 243.848 109.394 244.212 109.17C244.576 108.937 245.047 108.82 245.626 108.82C246.494 108.82 247.189 109.091 247.712 109.632C248.234 110.174 248.496 110.944 248.496 111.942C248.496 113.016 248.197 113.856 247.6 114.462C247.002 115.069 246.195 115.372 245.178 115.372C244.515 115.372 243.913 115.214 243.372 114.896C242.84 114.579 242.415 114.098 242.098 113.454C241.78 112.801 241.622 111.975 241.622 110.976ZM245.15 113.93C245.626 113.93 246.013 113.772 246.312 113.454C246.61 113.128 246.76 112.628 246.76 111.956C246.76 111.415 246.629 110.99 246.368 110.682C246.106 110.365 245.714 110.206 245.192 110.206C244.828 110.206 244.51 110.286 244.24 110.444C243.978 110.594 243.773 110.79 243.624 111.032C243.474 111.266 243.4 111.508 243.4 111.76C243.4 112.106 243.465 112.446 243.596 112.782C243.726 113.109 243.918 113.384 244.17 113.608C244.431 113.823 244.758 113.93 245.15 113.93ZM257.792 107.504C258.679 107.504 259.393 107.836 259.934 108.498C260.475 109.152 260.746 110.127 260.746 111.424C260.746 112.722 260.466 113.706 259.906 114.378C259.355 115.041 258.637 115.372 257.75 115.372C257.19 115.372 256.737 115.27 256.392 115.064C256.047 114.859 255.771 114.621 255.566 114.35H255.454C255.482 114.528 255.505 114.719 255.524 114.924C255.552 115.13 255.566 115.326 255.566 115.512V118.592H253.802V107.644H255.23L255.482 108.652H255.566C255.781 108.335 256.061 108.064 256.406 107.84C256.751 107.616 257.213 107.504 257.792 107.504ZM257.288 108.932C256.663 108.932 256.219 109.119 255.958 109.492C255.706 109.866 255.575 110.43 255.566 111.186V111.41C255.566 112.222 255.687 112.848 255.93 113.286C256.182 113.716 256.644 113.93 257.316 113.93C257.867 113.93 258.273 113.706 258.534 113.258C258.805 112.801 258.94 112.18 258.94 111.396C258.94 110.612 258.805 110.006 258.534 109.576C258.273 109.147 257.857 108.932 257.288 108.932ZM263.93 111.354L261.424 107.644H263.426L265.078 110.22L266.73 107.644H268.732L266.198 111.354L268.858 115.232H266.856L265.078 112.474L263.3 115.232H261.298L263.93 111.354Z" fill="#D51588"/>
<rect opacity="0.4" x="355" y="24.4189" width="16" height="59.8139" fill="white"/>
<rect opacity="0.12" x="355" y="24.4189" width="16" height="59.8139" fill="#D51588"/>
<path opacity="0.5" d="M371 24.4185L371 84.2324" stroke="#D51588" stroke-dasharray="3 3"/>
<path opacity="0.5" d="M355 24.4185L355 84.2324" stroke="#D51588" stroke-dasharray="3 3"/>
<path d="M363 84.2324V100.232" stroke="#D51588"/>
<path d="M350.482 115.232H348.718V109.002C348.718 108.704 348.722 108.386 348.732 108.05C348.741 107.714 348.755 107.402 348.774 107.112C348.68 107.206 348.564 107.318 348.424 107.448C348.293 107.579 348.148 107.705 347.99 107.826L346.87 108.722L345.988 107.63L349.012 105.236H350.482V115.232ZM353.622 110.976C353.622 110.398 353.659 109.828 353.734 109.268C353.818 108.708 353.962 108.181 354.168 107.686C354.373 107.182 354.658 106.739 355.022 106.356C355.386 105.964 355.848 105.661 356.408 105.446C356.977 105.222 357.663 105.11 358.466 105.11C358.662 105.11 358.886 105.12 359.138 105.138C359.39 105.157 359.6 105.185 359.768 105.222V106.678C359.404 106.576 359.002 106.524 358.564 106.524C357.724 106.524 357.07 106.678 356.604 106.986C356.137 107.285 355.81 107.7 355.624 108.232C355.437 108.755 355.325 109.343 355.288 109.996H355.372C355.568 109.67 355.848 109.394 356.212 109.17C356.576 108.937 357.047 108.82 357.626 108.82C358.494 108.82 359.189 109.091 359.712 109.632C360.234 110.174 360.496 110.944 360.496 111.942C360.496 113.016 360.197 113.856 359.6 114.462C359.002 115.069 358.195 115.372 357.178 115.372C356.515 115.372 355.913 115.214 355.372 114.896C354.84 114.579 354.415 114.098 354.098 113.454C353.78 112.801 353.622 111.975 353.622 110.976ZM357.15 113.93C357.626 113.93 358.013 113.772 358.312 113.454C358.61 113.128 358.76 112.628 358.76 111.956C358.76 111.415 358.629 110.99 358.368 110.682C358.106 110.365 357.714 110.206 357.192 110.206C356.828 110.206 356.51 110.286 356.24 110.444C355.978 110.594 355.773 110.79 355.624 111.032C355.474 111.266 355.4 111.508 355.4 111.76C355.4 112.106 355.465 112.446 355.596 112.782C355.726 113.109 355.918 113.384 356.17 113.608C356.431 113.823 356.758 113.93 357.15 113.93ZM369.792 107.504C370.679 107.504 371.393 107.836 371.934 108.498C372.475 109.152 372.746 110.127 372.746 111.424C372.746 112.722 372.466 113.706 371.906 114.378C371.355 115.041 370.637 115.372 369.75 115.372C369.19 115.372 368.737 115.27 368.392 115.064C368.047 114.859 367.771 114.621 367.566 114.35H367.454C367.482 114.528 367.505 114.719 367.524 114.924C367.552 115.13 367.566 115.326 367.566 115.512V118.592H365.802V107.644H367.23L367.482 108.652H367.566C367.781 108.335 368.061 108.064 368.406 107.84C368.751 107.616 369.213 107.504 369.792 107.504ZM369.288 108.932C368.663 108.932 368.219 109.119 367.958 109.492C367.706 109.866 367.575 110.43 367.566 111.186V111.41C367.566 112.222 367.687 112.848 367.93 113.286C368.182 113.716 368.644 113.93 369.316 113.93C369.867 113.93 370.273 113.706 370.534 113.258C370.805 112.801 370.94 112.18 370.94 111.396C370.94 110.612 370.805 110.006 370.534 109.576C370.273 109.147 369.857 108.932 369.288 108.932ZM375.93 111.354L373.424 107.644H375.426L377.078 110.22L378.73 107.644H380.732L378.198 111.354L380.858 115.232H378.856L377.078 112.474L375.3 115.232H373.298L375.93 111.354Z" fill="#D51588"/>
</svg>
