<svg width="428" height="20" viewBox="0 0 428 20" fill="none" xmlns="http://www.w3.org/2000/svg">
<rect width="428" height="20" fill="white"/>
<rect x="179" y="2" width="16" height="16" rx="4" fill="white"/>
<rect x="179.5" y="2.5" width="15" height="15" rx="3.5" stroke="#1B77AF"/>
<path d="M213.08 9.988C213.08 11.024 212.903 11.9293 212.548 12.704C212.203 13.4693 211.685 14.0667 210.994 14.496C210.313 14.9253 209.473 15.14 208.474 15.14C207.438 15.14 206.575 14.9253 205.884 14.496C205.203 14.0667 204.694 13.4647 204.358 12.69C204.022 11.9153 203.854 11.01 203.854 9.974C203.854 8.95667 204.022 8.06533 204.358 7.3C204.694 6.52533 205.203 5.92333 205.884 5.494C206.575 5.06467 207.443 4.85 208.488 4.85C209.487 4.85 210.327 5.06467 211.008 5.494C211.689 5.914 212.203 6.51133 212.548 7.286C212.903 8.05133 213.08 8.952 213.08 9.988ZM205.184 9.988C205.184 11.248 205.45 12.242 205.982 12.97C206.514 13.6887 207.345 14.048 208.474 14.048C209.603 14.048 210.429 13.6887 210.952 12.97C211.484 12.242 211.75 11.248 211.75 9.988C211.75 8.728 211.489 7.74333 210.966 7.034C210.443 6.31533 209.617 5.956 208.488 5.956C207.349 5.956 206.514 6.31533 205.982 7.034C205.45 7.74333 205.184 8.728 205.184 9.988ZM218.698 7.356C219.622 7.356 220.364 7.678 220.924 8.322C221.493 8.966 221.778 9.93667 221.778 11.234C221.778 12.5127 221.493 13.4833 220.924 14.146C220.364 14.8087 219.617 15.14 218.684 15.14C218.105 15.14 217.624 15.0327 217.242 14.818C216.868 14.6033 216.574 14.3467 216.36 14.048H216.276C216.285 14.2067 216.299 14.4073 216.318 14.65C216.346 14.8927 216.36 15.1027 216.36 15.28V18.36H215.128V7.496H216.136L216.304 8.518H216.36C216.584 8.19133 216.878 7.916 217.242 7.692C217.606 7.468 218.091 7.356 218.698 7.356ZM218.474 8.392C217.708 8.392 217.167 8.60667 216.85 9.036C216.532 9.46533 216.369 10.1187 216.36 10.996V11.234C216.36 12.158 216.509 12.872 216.808 13.376C217.116 13.8707 217.68 14.118 218.502 14.118C218.95 14.118 219.323 13.9967 219.622 13.754C219.92 13.502 220.14 13.1567 220.28 12.718C220.429 12.2793 220.504 11.78 220.504 11.22C220.504 10.3613 220.336 9.67533 220 9.162C219.673 8.64867 219.164 8.392 218.474 8.392ZM226.247 14.132C226.433 14.132 226.625 14.118 226.821 14.09C227.017 14.062 227.175 14.0247 227.297 13.978V14.916C227.166 14.9813 226.979 15.0327 226.737 15.07C226.494 15.1167 226.261 15.14 226.037 15.14C225.645 15.14 225.281 15.0747 224.945 14.944C224.618 14.804 224.352 14.566 224.147 14.23C223.941 13.894 223.839 13.4227 223.839 12.816V8.448H222.775V7.86L223.853 7.37L224.343 5.774H225.071V7.496H227.241V8.448H225.071V12.788C225.071 13.2453 225.178 13.586 225.393 13.81C225.617 14.0247 225.901 14.132 226.247 14.132ZM229.429 4.682C229.616 4.682 229.779 4.74733 229.919 4.878C230.069 4.99933 230.143 5.19533 230.143 5.466C230.143 5.73667 230.069 5.93733 229.919 6.068C229.779 6.18933 229.616 6.25 229.429 6.25C229.224 6.25 229.051 6.18933 228.911 6.068C228.771 5.93733 228.701 5.73667 228.701 5.466C228.701 5.19533 228.771 4.99933 228.911 4.878C229.051 4.74733 229.224 4.682 229.429 4.682ZM230.031 7.496V15H228.799V7.496H230.031ZM238.933 11.234C238.933 12.4753 238.615 13.4367 237.981 14.118C237.355 14.7993 236.506 15.14 235.433 15.14C234.77 15.14 234.177 14.9907 233.655 14.692C233.141 14.384 232.735 13.9407 232.437 13.362C232.138 12.774 231.989 12.0647 231.989 11.234C231.989 9.99267 232.297 9.036 232.913 8.364C233.538 7.692 234.392 7.356 235.475 7.356C236.147 7.356 236.744 7.51 237.267 7.818C237.789 8.11667 238.195 8.55533 238.485 9.134C238.783 9.70333 238.933 10.4033 238.933 11.234ZM233.263 11.234C233.263 12.1207 233.435 12.8253 233.781 13.348C234.135 13.8613 234.695 14.118 235.461 14.118C236.217 14.118 236.772 13.8613 237.127 13.348C237.481 12.8253 237.659 12.1207 237.659 11.234C237.659 10.3473 237.481 9.652 237.127 9.148C236.772 8.644 236.212 8.392 235.447 8.392C234.681 8.392 234.126 8.644 233.781 9.148C233.435 9.652 233.263 10.3473 233.263 11.234ZM244.497 7.356C245.393 7.356 246.07 7.57533 246.527 8.014C246.985 8.45267 247.213 9.15267 247.213 10.114V15H245.995V10.198C245.995 8.994 245.435 8.392 244.315 8.392C243.485 8.392 242.911 8.62533 242.593 9.092C242.276 9.55867 242.117 10.2307 242.117 11.108V15H240.885V7.496H241.879L242.061 8.518H242.131C242.374 8.126 242.71 7.83667 243.139 7.65C243.569 7.454 244.021 7.356 244.497 7.356Z" fill="black"/>
</svg>
