<svg width="412" height="232" viewBox="0 0 412 232" fill="none" xmlns="http://www.w3.org/2000/svg">
<rect width="412" height="232" fill="white"/>
<rect x="78" y="108" width="16" height="16" rx="4" fill="#1473E6"/>
<path d="M84.5125 121.202C84.4125 121.202 84.3125 121.152 84.2625 121.102L80.1125 116.952C79.9625 116.802 79.9625 116.552 80.1125 116.402C80.2625 116.252 80.5125 116.252 80.6625 116.402L84.5125 120.252L91.3125 111.152C91.4125 111.002 91.6625 110.952 91.8125 111.052C91.9625 111.152 92.0125 111.402 91.9125 111.552L84.8125 121.052C84.7625 121.152 84.6625 121.202 84.5125 121.202Z" fill="white"/>
<path d="M106.172 121H102.56V120.272L103.736 120.006V112.012L102.56 111.732V111.004H106.172V111.732L104.996 112.012V120.006L106.172 120.272V121ZM114.413 113.37C115.328 113.37 116.004 113.571 116.443 113.972C116.882 114.373 117.101 115.013 117.101 115.89V121H116.205L115.967 119.936H115.911C115.584 120.347 115.239 120.65 114.875 120.846C114.511 121.042 114.016 121.14 113.391 121.14C112.71 121.14 112.145 120.963 111.697 120.608C111.249 120.244 111.025 119.679 111.025 118.914C111.025 118.167 111.319 117.593 111.907 117.192C112.495 116.781 113.4 116.557 114.623 116.52L115.897 116.478V116.03C115.897 115.405 115.762 114.971 115.491 114.728C115.22 114.485 114.838 114.364 114.343 114.364C113.951 114.364 113.578 114.425 113.223 114.546C112.868 114.658 112.537 114.789 112.229 114.938L111.851 114.014C112.178 113.837 112.565 113.687 113.013 113.566C113.461 113.435 113.928 113.37 114.413 113.37ZM115.883 117.332L114.777 117.374C113.844 117.411 113.195 117.561 112.831 117.822C112.476 118.083 112.299 118.452 112.299 118.928C112.299 119.348 112.425 119.656 112.677 119.852C112.938 120.048 113.27 120.146 113.671 120.146C114.296 120.146 114.819 119.973 115.239 119.628C115.668 119.273 115.883 118.732 115.883 118.004V117.332ZM122.079 113.356C122.573 113.356 123.017 113.449 123.409 113.636C123.81 113.823 124.151 114.107 124.431 114.49H124.501L124.669 113.496H125.649V121.126C125.649 122.199 125.373 123.007 124.823 123.548C124.281 124.089 123.437 124.36 122.289 124.36C121.187 124.36 120.287 124.201 119.587 123.884V122.75C120.324 123.142 121.248 123.338 122.359 123.338C123.003 123.338 123.507 123.147 123.871 122.764C124.244 122.391 124.431 121.877 124.431 121.224V120.93C124.431 120.818 124.435 120.659 124.445 120.454C124.454 120.239 124.463 120.09 124.473 120.006H124.417C123.913 120.762 123.138 121.14 122.093 121.14C121.122 121.14 120.361 120.799 119.811 120.118C119.269 119.437 118.999 118.485 118.999 117.262C118.999 116.067 119.269 115.12 119.811 114.42C120.361 113.711 121.117 113.356 122.079 113.356ZM122.247 114.392C121.621 114.392 121.136 114.644 120.791 115.148C120.445 115.643 120.273 116.352 120.273 117.276C120.273 118.2 120.441 118.909 120.777 119.404C121.113 119.889 121.612 120.132 122.275 120.132C123.031 120.132 123.581 119.931 123.927 119.53C124.272 119.119 124.445 118.461 124.445 117.556V117.262C124.445 116.245 124.267 115.512 123.913 115.064C123.558 114.616 123.003 114.392 122.247 114.392ZM131.532 113.356C131.672 113.356 131.821 113.365 131.98 113.384C132.138 113.393 132.283 113.412 132.414 113.44L132.26 114.574C132.138 114.546 132.003 114.523 131.854 114.504C131.704 114.485 131.569 114.476 131.448 114.476C131.065 114.476 130.706 114.583 130.37 114.798C130.034 115.003 129.763 115.297 129.558 115.68C129.362 116.053 129.264 116.492 129.264 116.996V121H128.032V113.496H129.04L129.18 114.868H129.236C129.469 114.457 129.777 114.103 130.16 113.804C130.552 113.505 131.009 113.356 131.532 113.356ZM136.44 113.356C137.074 113.356 137.625 113.496 138.092 113.776C138.558 114.056 138.913 114.453 139.156 114.966C139.408 115.47 139.534 116.063 139.534 116.744V117.486H134.396C134.414 118.335 134.629 118.984 135.04 119.432C135.46 119.871 136.043 120.09 136.79 120.09C137.266 120.09 137.686 120.048 138.05 119.964C138.423 119.871 138.806 119.74 139.198 119.572V120.65C138.815 120.818 138.437 120.939 138.064 121.014C137.69 121.098 137.247 121.14 136.734 121.14C136.015 121.14 135.385 120.995 134.844 120.706C134.302 120.417 133.878 119.987 133.57 119.418C133.271 118.849 133.122 118.144 133.122 117.304C133.122 116.483 133.257 115.778 133.528 115.19C133.808 114.602 134.195 114.149 134.69 113.832C135.194 113.515 135.777 113.356 136.44 113.356ZM136.426 114.364C135.838 114.364 135.371 114.555 135.026 114.938C134.69 115.311 134.489 115.834 134.424 116.506H138.246C138.236 115.871 138.087 115.358 137.798 114.966C137.508 114.565 137.051 114.364 136.426 114.364ZM144.342 113.356C144.977 113.356 145.527 113.496 145.994 113.776C146.461 114.056 146.815 114.453 147.058 114.966C147.31 115.47 147.436 116.063 147.436 116.744V117.486H142.298C142.317 118.335 142.531 118.984 142.942 119.432C143.362 119.871 143.945 120.09 144.692 120.09C145.168 120.09 145.588 120.048 145.952 119.964C146.325 119.871 146.708 119.74 147.1 119.572V120.65C146.717 120.818 146.339 120.939 145.966 121.014C145.593 121.098 145.149 121.14 144.636 121.14C143.917 121.14 143.287 120.995 142.746 120.706C142.205 120.417 141.78 119.987 141.472 119.418C141.173 118.849 141.024 118.144 141.024 117.304C141.024 116.483 141.159 115.778 141.43 115.19C141.71 114.602 142.097 114.149 142.592 113.832C143.096 113.515 143.679 113.356 144.342 113.356ZM144.328 114.364C143.74 114.364 143.273 114.555 142.928 114.938C142.592 115.311 142.391 115.834 142.326 116.506H146.148C146.139 115.871 145.989 115.358 145.7 114.966C145.411 114.565 144.953 114.364 144.328 114.364ZM155.489 120.132C155.676 120.132 155.867 120.118 156.063 120.09C156.259 120.062 156.418 120.025 156.539 119.978V120.916C156.408 120.981 156.222 121.033 155.979 121.07C155.736 121.117 155.503 121.14 155.279 121.14C154.887 121.14 154.523 121.075 154.187 120.944C153.86 120.804 153.594 120.566 153.389 120.23C153.184 119.894 153.081 119.423 153.081 118.816V114.448H152.017V113.86L153.095 113.37L153.585 111.774H154.313V113.496H156.483V114.448H154.313V118.788C154.313 119.245 154.42 119.586 154.635 119.81C154.859 120.025 155.144 120.132 155.489 120.132ZM164.566 117.234C164.566 118.475 164.248 119.437 163.614 120.118C162.988 120.799 162.139 121.14 161.066 121.14C160.403 121.14 159.81 120.991 159.288 120.692C158.774 120.384 158.368 119.941 158.07 119.362C157.771 118.774 157.622 118.065 157.622 117.234C157.622 115.993 157.93 115.036 158.546 114.364C159.171 113.692 160.025 113.356 161.108 113.356C161.78 113.356 162.377 113.51 162.9 113.818C163.422 114.117 163.828 114.555 164.118 115.134C164.416 115.703 164.566 116.403 164.566 117.234ZM158.896 117.234C158.896 118.121 159.068 118.825 159.414 119.348C159.768 119.861 160.328 120.118 161.094 120.118C161.85 120.118 162.405 119.861 162.76 119.348C163.114 118.825 163.292 118.121 163.292 117.234C163.292 116.347 163.114 115.652 162.76 115.148C162.405 114.644 161.845 114.392 161.08 114.392C160.314 114.392 159.759 114.644 159.414 115.148C159.068 115.652 158.896 116.347 158.896 117.234ZM172.661 120.132C172.848 120.132 173.039 120.118 173.235 120.09C173.431 120.062 173.59 120.025 173.711 119.978V120.916C173.58 120.981 173.394 121.033 173.151 121.07C172.908 121.117 172.675 121.14 172.451 121.14C172.059 121.14 171.695 121.075 171.359 120.944C171.032 120.804 170.766 120.566 170.561 120.23C170.356 119.894 170.253 119.423 170.253 118.816V114.448H169.189V113.86L170.267 113.37L170.757 111.774H171.485V113.496H173.655V114.448H171.485V118.788C171.485 119.245 171.592 119.586 171.807 119.81C172.031 120.025 172.316 120.132 172.661 120.132ZM176.445 110.36V113.482C176.445 113.855 176.422 114.205 176.375 114.532H176.459C176.702 114.149 177.029 113.86 177.439 113.664C177.859 113.468 178.312 113.37 178.797 113.37C179.703 113.37 180.384 113.589 180.841 114.028C181.308 114.457 181.541 115.153 181.541 116.114V121H180.323V116.198C180.323 114.994 179.763 114.392 178.643 114.392C177.803 114.392 177.225 114.63 176.907 115.106C176.599 115.573 176.445 116.245 176.445 117.122V121H175.213V110.36H176.445ZM186.766 113.356C187.4 113.356 187.951 113.496 188.418 113.776C188.884 114.056 189.239 114.453 189.482 114.966C189.734 115.47 189.86 116.063 189.86 116.744V117.486H184.722C184.74 118.335 184.955 118.984 185.366 119.432C185.786 119.871 186.369 120.09 187.116 120.09C187.592 120.09 188.012 120.048 188.376 119.964C188.749 119.871 189.132 119.74 189.524 119.572V120.65C189.141 120.818 188.763 120.939 188.39 121.014C188.016 121.098 187.573 121.14 187.06 121.14C186.341 121.14 185.711 120.995 185.17 120.706C184.628 120.417 184.204 119.987 183.896 119.418C183.597 118.849 183.448 118.144 183.448 117.304C183.448 116.483 183.583 115.778 183.854 115.19C184.134 114.602 184.521 114.149 185.016 113.832C185.52 113.515 186.103 113.356 186.766 113.356ZM186.752 114.364C186.164 114.364 185.697 114.555 185.352 114.938C185.016 115.311 184.815 115.834 184.75 116.506H188.572C188.562 115.871 188.413 115.358 188.124 114.966C187.834 114.565 187.377 114.364 186.752 114.364ZM197.913 120.132C198.099 120.132 198.291 120.118 198.487 120.09C198.683 120.062 198.841 120.025 198.963 119.978V120.916C198.832 120.981 198.645 121.033 198.403 121.07C198.16 121.117 197.927 121.14 197.703 121.14C197.311 121.14 196.947 121.075 196.611 120.944C196.284 120.804 196.018 120.566 195.813 120.23C195.607 119.894 195.505 119.423 195.505 118.816V114.448H194.441V113.86L195.519 113.37L196.009 111.774H196.737V113.496H198.907V114.448H196.737V118.788C196.737 119.245 196.844 119.586 197.059 119.81C197.283 120.025 197.567 120.132 197.913 120.132ZM203.363 113.356C203.998 113.356 204.549 113.496 205.015 113.776C205.482 114.056 205.837 114.453 206.079 114.966C206.331 115.47 206.457 116.063 206.457 116.744V117.486H201.319C201.338 118.335 201.553 118.984 201.963 119.432C202.383 119.871 202.967 120.09 203.713 120.09C204.189 120.09 204.609 120.048 204.973 119.964C205.347 119.871 205.729 119.74 206.121 119.572V120.65C205.739 120.818 205.361 120.939 204.987 121.014C204.614 121.098 204.171 121.14 203.657 121.14C202.939 121.14 202.309 120.995 201.767 120.706C201.226 120.417 200.801 119.987 200.493 119.418C200.195 118.849 200.045 118.144 200.045 117.304C200.045 116.483 200.181 115.778 200.451 115.19C200.731 114.602 201.119 114.149 201.613 113.832C202.117 113.515 202.701 113.356 203.363 113.356ZM203.349 114.364C202.761 114.364 202.295 114.555 201.949 114.938C201.613 115.311 201.413 115.834 201.347 116.506H205.169C205.16 115.871 205.011 115.358 204.721 114.966C204.432 114.565 203.975 114.364 203.349 114.364ZM211.868 113.356C212.008 113.356 212.157 113.365 212.316 113.384C212.474 113.393 212.619 113.412 212.75 113.44L212.596 114.574C212.474 114.546 212.339 114.523 212.19 114.504C212.04 114.485 211.905 114.476 211.784 114.476C211.401 114.476 211.042 114.583 210.706 114.798C210.37 115.003 210.099 115.297 209.894 115.68C209.698 116.053 209.6 116.492 209.6 116.996V121H208.368V113.496H209.376L209.516 114.868H209.572C209.805 114.457 210.113 114.103 210.496 113.804C210.888 113.505 211.345 113.356 211.868 113.356ZM222.383 113.356C223.232 113.356 223.867 113.575 224.287 114.014C224.707 114.453 224.917 115.153 224.917 116.114V121H223.699V116.17C223.699 114.985 223.19 114.392 222.173 114.392C221.445 114.392 220.922 114.602 220.605 115.022C220.297 115.442 220.143 116.053 220.143 116.856V121H218.925V116.17C218.925 114.985 218.412 114.392 217.385 114.392C216.629 114.392 216.106 114.625 215.817 115.092C215.528 115.559 215.383 116.231 215.383 117.108V121H214.151V113.496H215.145L215.327 114.518H215.397C215.63 114.126 215.943 113.837 216.335 113.65C216.736 113.454 217.161 113.356 217.609 113.356C218.785 113.356 219.55 113.776 219.905 114.616H219.975C220.227 114.187 220.568 113.869 220.997 113.664C221.426 113.459 221.888 113.356 222.383 113.356ZM232.121 118.928C232.121 119.656 231.85 120.207 231.309 120.58C230.768 120.953 230.04 121.14 229.125 121.14C228.602 121.14 228.15 121.098 227.767 121.014C227.394 120.93 227.062 120.813 226.773 120.664V119.544C227.072 119.693 227.431 119.833 227.851 119.964C228.28 120.085 228.714 120.146 229.153 120.146C229.778 120.146 230.231 120.048 230.511 119.852C230.791 119.647 230.931 119.376 230.931 119.04C230.931 118.853 230.88 118.685 230.777 118.536C230.674 118.387 230.488 118.237 230.217 118.088C229.956 117.939 229.578 117.771 229.083 117.584C228.598 117.397 228.182 117.211 227.837 117.024C227.492 116.837 227.226 116.613 227.039 116.352C226.852 116.091 226.759 115.755 226.759 115.344C226.759 114.709 227.016 114.219 227.529 113.874C228.052 113.529 228.733 113.356 229.573 113.356C230.03 113.356 230.455 113.403 230.847 113.496C231.248 113.589 231.622 113.711 231.967 113.86L231.547 114.84C231.23 114.709 230.898 114.597 230.553 114.504C230.208 114.411 229.853 114.364 229.489 114.364C228.985 114.364 228.598 114.448 228.327 114.616C228.066 114.775 227.935 114.994 227.935 115.274C227.935 115.489 227.996 115.666 228.117 115.806C228.238 115.946 228.439 116.086 228.719 116.226C229.008 116.366 229.391 116.525 229.867 116.702C230.343 116.879 230.749 117.061 231.085 117.248C231.421 117.435 231.678 117.663 231.855 117.934C232.032 118.195 232.121 118.527 232.121 118.928ZM240.413 113.37C241.328 113.37 242.004 113.571 242.443 113.972C242.882 114.373 243.101 115.013 243.101 115.89V121H242.205L241.967 119.936H241.911C241.584 120.347 241.239 120.65 240.875 120.846C240.511 121.042 240.016 121.14 239.391 121.14C238.71 121.14 238.145 120.963 237.697 120.608C237.249 120.244 237.025 119.679 237.025 118.914C237.025 118.167 237.319 117.593 237.907 117.192C238.495 116.781 239.4 116.557 240.623 116.52L241.897 116.478V116.03C241.897 115.405 241.762 114.971 241.491 114.728C241.22 114.485 240.838 114.364 240.343 114.364C239.951 114.364 239.578 114.425 239.223 114.546C238.868 114.658 238.537 114.789 238.229 114.938L237.851 114.014C238.178 113.837 238.565 113.687 239.013 113.566C239.461 113.435 239.928 113.37 240.413 113.37ZM241.883 117.332L240.777 117.374C239.844 117.411 239.195 117.561 238.831 117.822C238.476 118.083 238.299 118.452 238.299 118.928C238.299 119.348 238.425 119.656 238.677 119.852C238.938 120.048 239.27 120.146 239.671 120.146C240.296 120.146 240.819 119.973 241.239 119.628C241.668 119.273 241.883 118.732 241.883 118.004V117.332ZM249.031 113.356C249.927 113.356 250.603 113.575 251.061 114.014C251.518 114.453 251.747 115.153 251.747 116.114V121H250.529V116.198C250.529 114.994 249.969 114.392 248.849 114.392C248.018 114.392 247.444 114.625 247.127 115.092C246.809 115.559 246.651 116.231 246.651 117.108V121H245.419V113.496H246.413L246.595 114.518H246.665C246.907 114.126 247.243 113.837 247.673 113.65C248.102 113.454 248.555 113.356 249.031 113.356ZM256.733 121.14C255.799 121.14 255.053 120.818 254.493 120.174C253.933 119.521 253.653 118.55 253.653 117.262C253.653 115.974 253.933 115.003 254.493 114.35C255.062 113.687 255.813 113.356 256.747 113.356C257.325 113.356 257.797 113.463 258.161 113.678C258.534 113.893 258.837 114.154 259.071 114.462H259.155C259.136 114.341 259.117 114.163 259.099 113.93C259.08 113.687 259.071 113.496 259.071 113.356V110.36H260.303V121H259.309L259.127 119.992H259.071C258.847 120.309 258.548 120.58 258.175 120.804C257.801 121.028 257.321 121.14 256.733 121.14ZM256.929 120.118C257.722 120.118 258.277 119.903 258.595 119.474C258.921 119.035 259.085 118.377 259.085 117.5V117.276C259.085 116.343 258.931 115.629 258.623 115.134C258.315 114.63 257.745 114.378 256.915 114.378C256.252 114.378 255.753 114.644 255.417 115.176C255.09 115.699 254.927 116.403 254.927 117.29C254.927 118.186 255.09 118.881 255.417 119.376C255.753 119.871 256.257 120.118 256.929 120.118ZM269.333 121.14C268.661 121.14 268.068 121.005 267.555 120.734C267.041 120.463 266.635 120.043 266.337 119.474C266.047 118.905 265.903 118.177 265.903 117.29C265.903 116.366 266.052 115.615 266.351 115.036C266.659 114.457 267.079 114.033 267.611 113.762C268.143 113.491 268.745 113.356 269.417 113.356C269.79 113.356 270.154 113.398 270.509 113.482C270.873 113.557 271.167 113.65 271.391 113.762L271.013 114.784C270.789 114.7 270.527 114.621 270.229 114.546C269.93 114.471 269.65 114.434 269.389 114.434C267.914 114.434 267.177 115.381 267.177 117.276C267.177 118.181 267.354 118.877 267.709 119.362C268.073 119.838 268.609 120.076 269.319 120.076C269.72 120.076 270.079 120.034 270.397 119.95C270.714 119.866 271.003 119.763 271.265 119.642V120.734C271.013 120.865 270.733 120.963 270.425 121.028C270.126 121.103 269.762 121.14 269.333 121.14ZM279.573 117.234C279.573 118.475 279.256 119.437 278.621 120.118C277.996 120.799 277.147 121.14 276.073 121.14C275.411 121.14 274.818 120.991 274.295 120.692C273.782 120.384 273.376 119.941 273.077 119.362C272.779 118.774 272.629 118.065 272.629 117.234C272.629 115.993 272.937 115.036 273.553 114.364C274.179 113.692 275.033 113.356 276.115 113.356C276.787 113.356 277.385 113.51 277.907 113.818C278.43 114.117 278.836 114.555 279.125 115.134C279.424 115.703 279.573 116.403 279.573 117.234ZM273.903 117.234C273.903 118.121 274.076 118.825 274.421 119.348C274.776 119.861 275.336 120.118 276.101 120.118C276.857 120.118 277.413 119.861 277.767 119.348C278.122 118.825 278.299 118.121 278.299 117.234C278.299 116.347 278.122 115.652 277.767 115.148C277.413 114.644 276.853 114.392 276.087 114.392C275.322 114.392 274.767 114.644 274.421 115.148C274.076 115.652 273.903 116.347 273.903 117.234ZM285.138 113.356C286.034 113.356 286.711 113.575 287.168 114.014C287.625 114.453 287.854 115.153 287.854 116.114V121H286.636V116.198C286.636 114.994 286.076 114.392 284.956 114.392C284.125 114.392 283.551 114.625 283.234 115.092C282.917 115.559 282.758 116.231 282.758 117.108V121H281.526V113.496H282.52L282.702 114.518H282.772C283.015 114.126 283.351 113.837 283.78 113.65C284.209 113.454 284.662 113.356 285.138 113.356ZM292.84 121.14C291.907 121.14 291.16 120.818 290.6 120.174C290.04 119.521 289.76 118.55 289.76 117.262C289.76 115.974 290.04 115.003 290.6 114.35C291.17 113.687 291.921 113.356 292.854 113.356C293.433 113.356 293.904 113.463 294.268 113.678C294.642 113.893 294.945 114.154 295.178 114.462H295.262C295.244 114.341 295.225 114.163 295.206 113.93C295.188 113.687 295.178 113.496 295.178 113.356V110.36H296.41V121H295.416L295.234 119.992H295.178C294.954 120.309 294.656 120.58 294.282 120.804C293.909 121.028 293.428 121.14 292.84 121.14ZM293.036 120.118C293.83 120.118 294.385 119.903 294.702 119.474C295.029 119.035 295.192 118.377 295.192 117.5V117.276C295.192 116.343 295.038 115.629 294.73 115.134C294.422 114.63 293.853 114.378 293.022 114.378C292.36 114.378 291.86 114.644 291.524 115.176C291.198 115.699 291.034 116.403 291.034 117.29C291.034 118.186 291.198 118.881 291.524 119.376C291.86 119.871 292.364 120.118 293.036 120.118ZM299.424 110.682C299.61 110.682 299.774 110.747 299.914 110.878C300.063 110.999 300.138 111.195 300.138 111.466C300.138 111.737 300.063 111.937 299.914 112.068C299.774 112.189 299.61 112.25 299.424 112.25C299.218 112.25 299.046 112.189 298.906 112.068C298.766 111.937 298.696 111.737 298.696 111.466C298.696 111.195 298.766 110.999 298.906 110.878C299.046 110.747 299.218 110.682 299.424 110.682ZM300.026 113.496V121H298.794V113.496H300.026ZM304.909 120.132C305.096 120.132 305.287 120.118 305.483 120.09C305.679 120.062 305.838 120.025 305.959 119.978V120.916C305.828 120.981 305.642 121.033 305.399 121.07C305.156 121.117 304.923 121.14 304.699 121.14C304.307 121.14 303.943 121.075 303.607 120.944C303.28 120.804 303.014 120.566 302.809 120.23C302.604 119.894 302.501 119.423 302.501 118.816V114.448H301.437V113.86L302.515 113.37L303.005 111.774H303.733V113.496H305.903V114.448H303.733V118.788C303.733 119.245 303.84 119.586 304.055 119.81C304.279 120.025 304.564 120.132 304.909 120.132ZM308.091 110.682C308.278 110.682 308.441 110.747 308.581 110.878C308.731 110.999 308.805 111.195 308.805 111.466C308.805 111.737 308.731 111.937 308.581 112.068C308.441 112.189 308.278 112.25 308.091 112.25C307.886 112.25 307.713 112.189 307.573 112.068C307.433 111.937 307.363 111.737 307.363 111.466C307.363 111.195 307.433 110.999 307.573 110.878C307.713 110.747 307.886 110.682 308.091 110.682ZM308.693 113.496V121H307.461V113.496H308.693ZM317.595 117.234C317.595 118.475 317.278 119.437 316.643 120.118C316.018 120.799 315.168 121.14 314.095 121.14C313.432 121.14 312.84 120.991 312.317 120.692C311.804 120.384 311.398 119.941 311.099 119.362C310.8 118.774 310.651 118.065 310.651 117.234C310.651 115.993 310.959 115.036 311.575 114.364C312.2 113.692 313.054 113.356 314.137 113.356C314.809 113.356 315.406 113.51 315.929 113.818C316.452 114.117 316.858 114.555 317.147 115.134C317.446 115.703 317.595 116.403 317.595 117.234ZM311.925 117.234C311.925 118.121 312.098 118.825 312.443 119.348C312.798 119.861 313.358 120.118 314.123 120.118C314.879 120.118 315.434 119.861 315.789 119.348C316.144 118.825 316.321 118.121 316.321 117.234C316.321 116.347 316.144 115.652 315.789 115.148C315.434 114.644 314.874 114.392 314.109 114.392C313.344 114.392 312.788 114.644 312.443 115.148C312.098 115.652 311.925 116.347 311.925 117.234ZM323.159 113.356C324.055 113.356 324.732 113.575 325.189 114.014C325.647 114.453 325.875 115.153 325.875 116.114V121H324.657V116.198C324.657 114.994 324.097 114.392 322.977 114.392C322.147 114.392 321.573 114.625 321.255 115.092C320.938 115.559 320.779 116.231 320.779 117.108V121H319.547V113.496H320.541L320.723 114.518H320.793C321.036 114.126 321.372 113.837 321.801 113.65C322.231 113.454 322.683 113.356 323.159 113.356ZM333.088 118.928C333.088 119.656 332.817 120.207 332.276 120.58C331.734 120.953 331.006 121.14 330.092 121.14C329.569 121.14 329.116 121.098 328.734 121.014C328.36 120.93 328.029 120.813 327.74 120.664V119.544C328.038 119.693 328.398 119.833 328.818 119.964C329.247 120.085 329.681 120.146 330.12 120.146C330.745 120.146 331.198 120.048 331.478 119.852C331.758 119.647 331.898 119.376 331.898 119.04C331.898 118.853 331.846 118.685 331.744 118.536C331.641 118.387 331.454 118.237 331.184 118.088C330.922 117.939 330.544 117.771 330.05 117.584C329.564 117.397 329.149 117.211 328.804 117.024C328.458 116.837 328.192 116.613 328.006 116.352C327.819 116.091 327.726 115.755 327.726 115.344C327.726 114.709 327.982 114.219 328.496 113.874C329.018 113.529 329.7 113.356 330.54 113.356C330.997 113.356 331.422 113.403 331.814 113.496C332.215 113.589 332.588 113.711 332.934 113.86L332.514 114.84C332.196 114.709 331.865 114.597 331.52 114.504C331.174 114.411 330.82 114.364 330.456 114.364C329.952 114.364 329.564 114.448 329.294 114.616C329.032 114.775 328.902 114.994 328.902 115.274C328.902 115.489 328.962 115.666 329.084 115.806C329.205 115.946 329.406 116.086 329.686 116.226C329.975 116.366 330.358 116.525 330.834 116.702C331.31 116.879 331.716 117.061 332.052 117.248C332.388 117.435 332.644 117.663 332.822 117.934C332.999 118.195 333.088 118.527 333.088 118.928Z" fill="black"/>
<rect x="78" y="136" width="16" height="16" rx="4" fill="white"/>
<rect x="78.5" y="136.5" width="15" height="15" rx="3.5" stroke="#1473E6"/>
<path d="M109.028 146.326C109.028 147.213 108.706 147.903 108.062 148.398C107.418 148.893 106.55 149.14 105.458 149.14C104.898 149.14 104.38 149.098 103.904 149.014C103.428 148.93 103.031 148.813 102.714 148.664V147.46C103.05 147.609 103.465 147.745 103.96 147.866C104.464 147.987 104.982 148.048 105.514 148.048C106.251 148.048 106.811 147.903 107.194 147.614C107.577 147.325 107.768 146.933 107.768 146.438C107.768 146.111 107.698 145.836 107.558 145.612C107.418 145.388 107.175 145.183 106.83 144.996C106.485 144.809 106.013 144.604 105.416 144.38C104.557 144.072 103.913 143.694 103.484 143.246C103.055 142.798 102.84 142.187 102.84 141.412C102.84 140.889 102.975 140.437 103.246 140.054C103.517 139.671 103.89 139.377 104.366 139.172C104.842 138.967 105.397 138.864 106.032 138.864C106.573 138.864 107.073 138.915 107.53 139.018C107.987 139.121 108.407 139.256 108.79 139.424L108.398 140.502C108.053 140.353 107.675 140.227 107.264 140.124C106.853 140.021 106.433 139.97 106.004 139.97C105.379 139.97 104.907 140.105 104.59 140.376C104.273 140.637 104.114 140.987 104.114 141.426C104.114 141.762 104.184 142.042 104.324 142.266C104.464 142.49 104.693 142.695 105.01 142.882C105.327 143.059 105.757 143.246 106.298 143.442C106.886 143.657 107.381 143.89 107.782 144.142C108.193 144.385 108.501 144.679 108.706 145.024C108.921 145.369 109.028 145.803 109.028 146.326ZM113.772 141.356C114.406 141.356 114.957 141.496 115.424 141.776C115.89 142.056 116.245 142.453 116.488 142.966C116.74 143.47 116.866 144.063 116.866 144.744V145.486H111.728C111.746 146.335 111.961 146.984 112.372 147.432C112.792 147.871 113.375 148.09 114.122 148.09C114.598 148.09 115.018 148.048 115.382 147.964C115.755 147.871 116.138 147.74 116.53 147.572V148.65C116.147 148.818 115.769 148.939 115.396 149.014C115.022 149.098 114.579 149.14 114.066 149.14C113.347 149.14 112.717 148.995 112.176 148.706C111.634 148.417 111.21 147.987 110.902 147.418C110.603 146.849 110.454 146.144 110.454 145.304C110.454 144.483 110.589 143.778 110.86 143.19C111.14 142.602 111.527 142.149 112.022 141.832C112.526 141.515 113.109 141.356 113.772 141.356ZM113.758 142.364C113.17 142.364 112.703 142.555 112.358 142.938C112.022 143.311 111.821 143.834 111.756 144.506H115.578C115.568 143.871 115.419 143.358 115.13 142.966C114.84 142.565 114.383 142.364 113.758 142.364ZM122.388 141.356C123.284 141.356 123.961 141.575 124.418 142.014C124.875 142.453 125.104 143.153 125.104 144.114V149H123.886V144.198C123.886 142.994 123.326 142.392 122.206 142.392C121.375 142.392 120.801 142.625 120.484 143.092C120.167 143.559 120.008 144.231 120.008 145.108V149H118.776V141.496H119.77L119.952 142.518H120.022C120.265 142.126 120.601 141.837 121.03 141.65C121.459 141.454 121.912 141.356 122.388 141.356ZM130.09 149.14C129.157 149.14 128.41 148.818 127.85 148.174C127.29 147.521 127.01 146.55 127.01 145.262C127.01 143.974 127.29 143.003 127.85 142.35C128.42 141.687 129.171 141.356 130.104 141.356C130.683 141.356 131.154 141.463 131.518 141.678C131.892 141.893 132.195 142.154 132.428 142.462H132.512C132.494 142.341 132.475 142.163 132.456 141.93C132.438 141.687 132.428 141.496 132.428 141.356V138.36H133.66V149H132.666L132.484 147.992H132.428C132.204 148.309 131.906 148.58 131.532 148.804C131.159 149.028 130.678 149.14 130.09 149.14ZM130.286 148.118C131.08 148.118 131.635 147.903 131.952 147.474C132.279 147.035 132.442 146.377 132.442 145.5V145.276C132.442 144.343 132.288 143.629 131.98 143.134C131.672 142.63 131.103 142.378 130.272 142.378C129.61 142.378 129.11 142.644 128.774 143.176C128.448 143.699 128.284 144.403 128.284 145.29C128.284 146.186 128.448 146.881 128.774 147.376C129.11 147.871 129.614 148.118 130.286 148.118ZM147.912 141.356C148.762 141.356 149.396 141.575 149.816 142.014C150.236 142.453 150.446 143.153 150.446 144.114V149H149.228V144.17C149.228 142.985 148.72 142.392 147.702 142.392C146.974 142.392 146.452 142.602 146.134 143.022C145.826 143.442 145.672 144.053 145.672 144.856V149H144.454V144.17C144.454 142.985 143.941 142.392 142.914 142.392C142.158 142.392 141.636 142.625 141.346 143.092C141.057 143.559 140.912 144.231 140.912 145.108V149H139.68V141.496H140.674L140.856 142.518H140.926C141.16 142.126 141.472 141.837 141.864 141.65C142.266 141.454 142.69 141.356 143.138 141.356C144.314 141.356 145.08 141.776 145.434 142.616H145.504C145.756 142.187 146.097 141.869 146.526 141.664C146.956 141.459 147.418 141.356 147.912 141.356ZM155.662 141.356C156.297 141.356 156.848 141.496 157.314 141.776C157.781 142.056 158.136 142.453 158.378 142.966C158.63 143.47 158.756 144.063 158.756 144.744V145.486H153.618C153.637 146.335 153.852 146.984 154.262 147.432C154.682 147.871 155.266 148.09 156.012 148.09C156.488 148.09 156.908 148.048 157.272 147.964C157.646 147.871 158.028 147.74 158.42 147.572V148.65C158.038 148.818 157.66 148.939 157.286 149.014C156.913 149.098 156.47 149.14 155.956 149.14C155.238 149.14 154.608 148.995 154.066 148.706C153.525 148.417 153.1 147.987 152.792 147.418C152.494 146.849 152.344 146.144 152.344 145.304C152.344 144.483 152.48 143.778 152.75 143.19C153.03 142.602 153.418 142.149 153.912 141.832C154.416 141.515 155 141.356 155.662 141.356ZM155.648 142.364C155.06 142.364 154.594 142.555 154.248 142.938C153.912 143.311 153.712 143.834 153.646 144.506H157.468C157.459 143.871 157.31 143.358 157.02 142.966C156.731 142.565 156.274 142.364 155.648 142.364ZM167.873 141.356C168.797 141.356 169.539 141.678 170.099 142.322C170.669 142.966 170.953 143.937 170.953 145.234C170.953 146.513 170.669 147.483 170.099 148.146C169.539 148.809 168.793 149.14 167.859 149.14C167.281 149.14 166.8 149.033 166.417 148.818C166.044 148.603 165.75 148.347 165.535 148.048H165.451C165.461 148.207 165.475 148.407 165.493 148.65C165.521 148.893 165.535 149.103 165.535 149.28V152.36H164.303V141.496H165.311L165.479 142.518H165.535C165.759 142.191 166.053 141.916 166.417 141.692C166.781 141.468 167.267 141.356 167.873 141.356ZM167.649 142.392C166.884 142.392 166.343 142.607 166.025 143.036C165.708 143.465 165.545 144.119 165.535 144.996V145.234C165.535 146.158 165.685 146.872 165.983 147.376C166.291 147.871 166.856 148.118 167.677 148.118C168.125 148.118 168.499 147.997 168.797 147.754C169.096 147.502 169.315 147.157 169.455 146.718C169.605 146.279 169.679 145.78 169.679 145.22C169.679 144.361 169.511 143.675 169.175 143.162C168.849 142.649 168.34 142.392 167.649 142.392ZM176.417 141.356C176.557 141.356 176.706 141.365 176.865 141.384C177.023 141.393 177.168 141.412 177.299 141.44L177.145 142.574C177.023 142.546 176.888 142.523 176.739 142.504C176.589 142.485 176.454 142.476 176.333 142.476C175.95 142.476 175.591 142.583 175.255 142.798C174.919 143.003 174.648 143.297 174.443 143.68C174.247 144.053 174.149 144.492 174.149 144.996V149H172.917V141.496H173.925L174.065 142.868H174.121C174.354 142.457 174.662 142.103 175.045 141.804C175.437 141.505 175.894 141.356 176.417 141.356ZM184.95 145.234C184.95 146.475 184.633 147.437 183.998 148.118C183.373 148.799 182.524 149.14 181.45 149.14C180.788 149.14 180.195 148.991 179.672 148.692C179.159 148.384 178.753 147.941 178.454 147.362C178.156 146.774 178.006 146.065 178.006 145.234C178.006 143.993 178.314 143.036 178.93 142.364C179.556 141.692 180.41 141.356 181.492 141.356C182.164 141.356 182.762 141.51 183.284 141.818C183.807 142.117 184.213 142.555 184.502 143.134C184.801 143.703 184.95 144.403 184.95 145.234ZM179.28 145.234C179.28 146.121 179.453 146.825 179.798 147.348C180.153 147.861 180.713 148.118 181.478 148.118C182.234 148.118 182.79 147.861 183.144 147.348C183.499 146.825 183.676 146.121 183.676 145.234C183.676 144.347 183.499 143.652 183.144 143.148C182.79 142.644 182.23 142.392 181.464 142.392C180.699 142.392 180.144 142.644 179.798 143.148C179.453 143.652 179.28 144.347 179.28 145.234ZM195.135 141.356C195.984 141.356 196.619 141.575 197.039 142.014C197.459 142.453 197.669 143.153 197.669 144.114V149H196.451V144.17C196.451 142.985 195.942 142.392 194.925 142.392C194.197 142.392 193.674 142.602 193.357 143.022C193.049 143.442 192.895 144.053 192.895 144.856V149H191.677V144.17C191.677 142.985 191.164 142.392 190.137 142.392C189.381 142.392 188.858 142.625 188.569 143.092C188.28 143.559 188.135 144.231 188.135 145.108V149H186.903V141.496H187.897L188.079 142.518H188.149C188.382 142.126 188.695 141.837 189.087 141.65C189.488 141.454 189.913 141.356 190.361 141.356C191.537 141.356 192.302 141.776 192.657 142.616H192.727C192.979 142.187 193.32 141.869 193.749 141.664C194.178 141.459 194.64 141.356 195.135 141.356ZM206.511 145.234C206.511 146.475 206.194 147.437 205.559 148.118C204.934 148.799 204.084 149.14 203.011 149.14C202.348 149.14 201.756 148.991 201.233 148.692C200.72 148.384 200.314 147.941 200.015 147.362C199.716 146.774 199.567 146.065 199.567 145.234C199.567 143.993 199.875 143.036 200.491 142.364C201.116 141.692 201.97 141.356 203.053 141.356C203.725 141.356 204.322 141.51 204.845 141.818C205.368 142.117 205.774 142.555 206.063 143.134C206.362 143.703 206.511 144.403 206.511 145.234ZM200.841 145.234C200.841 146.121 201.014 146.825 201.359 147.348C201.714 147.861 202.274 148.118 203.039 148.118C203.795 148.118 204.35 147.861 204.705 147.348C205.06 146.825 205.237 146.121 205.237 145.234C205.237 144.347 205.06 143.652 204.705 143.148C204.35 142.644 203.79 142.392 203.025 142.392C202.26 142.392 201.704 142.644 201.359 143.148C201.014 143.652 200.841 144.347 200.841 145.234ZM210.969 148.132C211.156 148.132 211.347 148.118 211.543 148.09C211.739 148.062 211.898 148.025 212.019 147.978V148.916C211.889 148.981 211.702 149.033 211.459 149.07C211.217 149.117 210.983 149.14 210.759 149.14C210.367 149.14 210.003 149.075 209.667 148.944C209.341 148.804 209.075 148.566 208.869 148.23C208.664 147.894 208.561 147.423 208.561 146.816V142.448H207.497V141.86L208.575 141.37L209.065 139.774H209.793V141.496H211.963V142.448H209.793V146.788C209.793 147.245 209.901 147.586 210.115 147.81C210.339 148.025 210.624 148.132 210.969 148.132ZM214.152 138.682C214.339 138.682 214.502 138.747 214.642 138.878C214.791 138.999 214.866 139.195 214.866 139.466C214.866 139.737 214.791 139.937 214.642 140.068C214.502 140.189 214.339 140.25 214.152 140.25C213.947 140.25 213.774 140.189 213.634 140.068C213.494 139.937 213.424 139.737 213.424 139.466C213.424 139.195 213.494 138.999 213.634 138.878C213.774 138.747 213.947 138.682 214.152 138.682ZM214.754 141.496V149H213.522V141.496H214.754ZM223.655 145.234C223.655 146.475 223.338 147.437 222.703 148.118C222.078 148.799 221.229 149.14 220.155 149.14C219.493 149.14 218.9 148.991 218.377 148.692C217.864 148.384 217.458 147.941 217.159 147.362C216.861 146.774 216.711 146.065 216.711 145.234C216.711 143.993 217.019 143.036 217.635 142.364C218.261 141.692 219.115 141.356 220.197 141.356C220.869 141.356 221.467 141.51 221.989 141.818C222.512 142.117 222.918 142.555 223.207 143.134C223.506 143.703 223.655 144.403 223.655 145.234ZM217.985 145.234C217.985 146.121 218.158 146.825 218.503 147.348C218.858 147.861 219.418 148.118 220.183 148.118C220.939 148.118 221.495 147.861 221.849 147.348C222.204 146.825 222.381 146.121 222.381 145.234C222.381 144.347 222.204 143.652 221.849 143.148C221.495 142.644 220.935 142.392 220.169 142.392C219.404 142.392 218.849 142.644 218.503 143.148C218.158 143.652 217.985 144.347 217.985 145.234ZM229.22 141.356C230.116 141.356 230.793 141.575 231.25 142.014C231.707 142.453 231.936 143.153 231.936 144.114V149H230.718V144.198C230.718 142.994 230.158 142.392 229.038 142.392C228.207 142.392 227.633 142.625 227.316 143.092C226.999 143.559 226.84 144.231 226.84 145.108V149H225.608V141.496H226.602L226.784 142.518H226.854C227.097 142.126 227.433 141.837 227.862 141.65C228.291 141.454 228.744 141.356 229.22 141.356ZM237.104 141.37C238.019 141.37 238.696 141.571 239.134 141.972C239.573 142.373 239.792 143.013 239.792 143.89V149H238.896L238.658 147.936H238.602C238.276 148.347 237.93 148.65 237.566 148.846C237.202 149.042 236.708 149.14 236.082 149.14C235.401 149.14 234.836 148.963 234.388 148.608C233.94 148.244 233.716 147.679 233.716 146.914C233.716 146.167 234.01 145.593 234.598 145.192C235.186 144.781 236.092 144.557 237.314 144.52L238.588 144.478V144.03C238.588 143.405 238.453 142.971 238.182 142.728C237.912 142.485 237.529 142.364 237.034 142.364C236.642 142.364 236.269 142.425 235.914 142.546C235.56 142.658 235.228 142.789 234.92 142.938L234.542 142.014C234.869 141.837 235.256 141.687 235.704 141.566C236.152 141.435 236.619 141.37 237.104 141.37ZM238.574 145.332L237.468 145.374C236.535 145.411 235.886 145.561 235.522 145.822C235.168 146.083 234.99 146.452 234.99 146.928C234.99 147.348 235.116 147.656 235.368 147.852C235.63 148.048 235.961 148.146 236.362 148.146C236.988 148.146 237.51 147.973 237.93 147.628C238.36 147.273 238.574 146.732 238.574 146.004V145.332ZM243.342 149H242.11V138.36H243.342V149ZM255.628 141.496V149H254.62L254.438 148.006H254.382C254.139 148.398 253.803 148.687 253.374 148.874C252.945 149.051 252.487 149.14 252.002 149.14C251.097 149.14 250.415 148.925 249.958 148.496C249.501 148.057 249.272 147.362 249.272 146.41V141.496H250.518V146.326C250.518 147.521 251.073 148.118 252.184 148.118C253.015 148.118 253.589 147.885 253.906 147.418C254.233 146.951 254.396 146.279 254.396 145.402V141.496H255.628ZM261.58 141.356C262.504 141.356 263.246 141.678 263.806 142.322C264.376 142.966 264.66 143.937 264.66 145.234C264.66 146.513 264.376 147.483 263.806 148.146C263.246 148.809 262.5 149.14 261.566 149.14C260.988 149.14 260.507 149.033 260.124 148.818C259.751 148.603 259.457 148.347 259.242 148.048H259.158C259.168 148.207 259.182 148.407 259.2 148.65C259.228 148.893 259.242 149.103 259.242 149.28V152.36H258.01V141.496H259.018L259.186 142.518H259.242C259.466 142.191 259.76 141.916 260.124 141.692C260.488 141.468 260.974 141.356 261.58 141.356ZM261.356 142.392C260.591 142.392 260.05 142.607 259.732 143.036C259.415 143.465 259.252 144.119 259.242 144.996V145.234C259.242 146.158 259.392 146.872 259.69 147.376C259.998 147.871 260.563 148.118 261.384 148.118C261.832 148.118 262.206 147.997 262.504 147.754C262.803 147.502 263.022 147.157 263.162 146.718C263.312 146.279 263.386 145.78 263.386 145.22C263.386 144.361 263.218 143.675 262.882 143.162C262.556 142.649 262.047 142.392 261.356 142.392ZM269.284 149.14C268.35 149.14 267.604 148.818 267.044 148.174C266.484 147.521 266.204 146.55 266.204 145.262C266.204 143.974 266.484 143.003 267.044 142.35C267.613 141.687 268.364 141.356 269.298 141.356C269.876 141.356 270.348 141.463 270.712 141.678C271.085 141.893 271.388 142.154 271.622 142.462H271.706C271.687 142.341 271.668 142.163 271.65 141.93C271.631 141.687 271.622 141.496 271.622 141.356V138.36H272.854V149H271.86L271.678 147.992H271.622C271.398 148.309 271.099 148.58 270.726 148.804C270.352 149.028 269.872 149.14 269.284 149.14ZM269.48 148.118C270.273 148.118 270.828 147.903 271.146 147.474C271.472 147.035 271.636 146.377 271.636 145.5V145.276C271.636 144.343 271.482 143.629 271.174 143.134C270.866 142.63 270.296 142.378 269.466 142.378C268.803 142.378 268.304 142.644 267.968 143.176C267.641 143.699 267.478 144.403 267.478 145.29C267.478 146.186 267.641 146.881 267.968 147.376C268.304 147.871 268.808 148.118 269.48 148.118ZM278.079 141.37C278.994 141.37 279.67 141.571 280.109 141.972C280.548 142.373 280.767 143.013 280.767 143.89V149H279.871L279.633 147.936H279.577C279.25 148.347 278.905 148.65 278.541 148.846C278.177 149.042 277.682 149.14 277.057 149.14C276.376 149.14 275.811 148.963 275.363 148.608C274.915 148.244 274.691 147.679 274.691 146.914C274.691 146.167 274.985 145.593 275.573 145.192C276.161 144.781 277.066 144.557 278.289 144.52L279.563 144.478V144.03C279.563 143.405 279.428 142.971 279.157 142.728C278.886 142.485 278.504 142.364 278.009 142.364C277.617 142.364 277.244 142.425 276.889 142.546C276.534 142.658 276.203 142.789 275.895 142.938L275.517 142.014C275.844 141.837 276.231 141.687 276.679 141.566C277.127 141.435 277.594 141.37 278.079 141.37ZM279.549 145.332L278.443 145.374C277.51 145.411 276.861 145.561 276.497 145.822C276.142 146.083 275.965 146.452 275.965 146.928C275.965 147.348 276.091 147.656 276.343 147.852C276.604 148.048 276.936 148.146 277.337 148.146C277.962 148.146 278.485 147.973 278.905 147.628C279.334 147.273 279.549 146.732 279.549 146.004V145.332ZM285.591 148.132C285.777 148.132 285.969 148.118 286.165 148.09C286.361 148.062 286.519 148.025 286.641 147.978V148.916C286.51 148.981 286.323 149.033 286.081 149.07C285.838 149.117 285.605 149.14 285.381 149.14C284.989 149.14 284.625 149.075 284.289 148.944C283.962 148.804 283.696 148.566 283.491 148.23C283.285 147.894 283.183 147.423 283.183 146.816V142.448H282.119V141.86L283.197 141.37L283.687 139.774H284.415V141.496H286.585V142.448H284.415V146.788C284.415 147.245 284.522 147.586 284.737 147.81C284.961 148.025 285.245 148.132 285.591 148.132ZM291.041 141.356C291.676 141.356 292.226 141.496 292.693 141.776C293.16 142.056 293.514 142.453 293.757 142.966C294.009 143.47 294.135 144.063 294.135 144.744V145.486H288.997C289.016 146.335 289.23 146.984 289.641 147.432C290.061 147.871 290.644 148.09 291.391 148.09C291.867 148.09 292.287 148.048 292.651 147.964C293.024 147.871 293.407 147.74 293.799 147.572V148.65C293.416 148.818 293.038 148.939 292.665 149.014C292.292 149.098 291.848 149.14 291.335 149.14C290.616 149.14 289.986 148.995 289.445 148.706C288.904 148.417 288.479 147.987 288.171 147.418C287.872 146.849 287.723 146.144 287.723 145.304C287.723 144.483 287.858 143.778 288.129 143.19C288.409 142.602 288.796 142.149 289.291 141.832C289.795 141.515 290.378 141.356 291.041 141.356ZM291.027 142.364C290.439 142.364 289.972 142.555 289.627 142.938C289.291 143.311 289.09 143.834 289.025 144.506H292.847C292.838 143.871 292.688 143.358 292.399 142.966C292.11 142.565 291.652 142.364 291.027 142.364ZM300.931 146.928C300.931 147.656 300.661 148.207 300.119 148.58C299.578 148.953 298.85 149.14 297.935 149.14C297.413 149.14 296.96 149.098 296.577 149.014C296.204 148.93 295.873 148.813 295.583 148.664V147.544C295.882 147.693 296.241 147.833 296.661 147.964C297.091 148.085 297.525 148.146 297.963 148.146C298.589 148.146 299.041 148.048 299.321 147.852C299.601 147.647 299.741 147.376 299.741 147.04C299.741 146.853 299.69 146.685 299.587 146.536C299.485 146.387 299.298 146.237 299.027 146.088C298.766 145.939 298.388 145.771 297.893 145.584C297.408 145.397 296.993 145.211 296.647 145.024C296.302 144.837 296.036 144.613 295.849 144.352C295.663 144.091 295.569 143.755 295.569 143.344C295.569 142.709 295.826 142.219 296.339 141.874C296.862 141.529 297.543 141.356 298.383 141.356C298.841 141.356 299.265 141.403 299.657 141.496C300.059 141.589 300.432 141.711 300.777 141.86L300.357 142.84C300.04 142.709 299.709 142.597 299.363 142.504C299.018 142.411 298.663 142.364 298.299 142.364C297.795 142.364 297.408 142.448 297.137 142.616C296.876 142.775 296.745 142.994 296.745 143.274C296.745 143.489 296.806 143.666 296.927 143.806C297.049 143.946 297.249 144.086 297.529 144.226C297.819 144.366 298.201 144.525 298.677 144.702C299.153 144.879 299.559 145.061 299.895 145.248C300.231 145.435 300.488 145.663 300.665 145.934C300.843 146.195 300.931 146.527 300.931 146.928Z" fill="black"/>
<path d="M86.64 86.704C86.64 87.592 86.488 88.368 86.184 89.032C85.888 89.688 85.444 90.2 84.852 90.568C84.268 90.936 83.548 91.12 82.692 91.12C81.804 91.12 81.064 90.936 80.472 90.568C79.888 90.2 79.452 89.684 79.164 89.02C78.876 88.356 78.732 87.58 78.732 86.692C78.732 85.82 78.876 85.056 79.164 84.4C79.452 83.736 79.888 83.22 80.472 82.852C81.064 82.484 81.808 82.3 82.704 82.3C83.56 82.3 84.28 82.484 84.864 82.852C85.448 83.212 85.888 83.724 86.184 84.388C86.488 85.044 86.64 85.816 86.64 86.704ZM79.872 86.704C79.872 87.784 80.1 88.636 80.556 89.26C81.012 89.876 81.724 90.184 82.692 90.184C83.66 90.184 84.368 89.876 84.816 89.26C85.272 88.636 85.5 87.784 85.5 86.704C85.5 85.624 85.276 84.78 84.828 84.172C84.38 83.556 83.672 83.248 82.704 83.248C81.728 83.248 81.012 83.556 80.556 84.172C80.1 84.78 79.872 85.624 79.872 86.704ZM91.455 84.448C92.247 84.448 92.883 84.724 93.363 85.276C93.851 85.828 94.095 86.66 94.095 87.772C94.095 88.868 93.851 89.7 93.363 90.268C92.883 90.836 92.243 91.12 91.443 91.12C90.947 91.12 90.535 91.028 90.207 90.844C89.887 90.66 89.635 90.44 89.451 90.184H89.379C89.387 90.32 89.399 90.492 89.415 90.7C89.439 90.908 89.451 91.088 89.451 91.24V93.88H88.395V84.568H89.259L89.403 85.444H89.451C89.643 85.164 89.895 84.928 90.207 84.736C90.519 84.544 90.935 84.448 91.455 84.448ZM91.263 85.336C90.607 85.336 90.143 85.52 89.871 85.888C89.599 86.256 89.459 86.816 89.451 87.568V87.772C89.451 88.564 89.579 89.176 89.835 89.608C90.099 90.032 90.583 90.244 91.287 90.244C91.671 90.244 91.991 90.14 92.247 89.932C92.503 89.716 92.691 89.42 92.811 89.044C92.939 88.668 93.003 88.24 93.003 87.76C93.003 87.024 92.859 86.436 92.571 85.996C92.291 85.556 91.855 85.336 91.263 85.336ZM97.9258 90.256C98.0858 90.256 98.2498 90.244 98.4178 90.22C98.5858 90.196 98.7218 90.164 98.8258 90.124V90.928C98.7138 90.984 98.5538 91.028 98.3458 91.06C98.1378 91.1 97.9378 91.12 97.7458 91.12C97.4098 91.12 97.0978 91.064 96.8098 90.952C96.5298 90.832 96.3018 90.628 96.1258 90.34C95.9498 90.052 95.8618 89.648 95.8618 89.128V85.384H94.9498V84.88L95.8738 84.46L96.2938 83.092H96.9178V84.568H98.7778V85.384H96.9178V89.104C96.9178 89.496 97.0098 89.788 97.1938 89.98C97.3858 90.164 97.6298 90.256 97.9258 90.256ZM100.654 82.156C100.814 82.156 100.954 82.212 101.074 82.324C101.202 82.428 101.266 82.596 101.266 82.828C101.266 83.06 101.202 83.232 101.074 83.344C100.954 83.448 100.814 83.5 100.654 83.5C100.478 83.5 100.33 83.448 100.21 83.344C100.09 83.232 100.03 83.06 100.03 82.828C100.03 82.596 100.09 82.428 100.21 82.324C100.33 82.212 100.478 82.156 100.654 82.156ZM101.17 84.568V91H100.114V84.568H101.17ZM108.799 87.772C108.799 88.836 108.528 89.66 107.984 90.244C107.448 90.828 106.72 91.12 105.8 91.12C105.232 91.12 104.724 90.992 104.276 90.736C103.836 90.472 103.488 90.092 103.232 89.596C102.976 89.092 102.848 88.484 102.848 87.772C102.848 86.708 103.112 85.888 103.64 85.312C104.176 84.736 104.908 84.448 105.836 84.448C106.412 84.448 106.924 84.58 107.372 84.844C107.82 85.1 108.168 85.476 108.416 85.972C108.672 86.46 108.799 87.06 108.799 87.772ZM103.94 87.772C103.94 88.532 104.088 89.136 104.384 89.584C104.688 90.024 105.168 90.244 105.824 90.244C106.472 90.244 106.948 90.024 107.252 89.584C107.556 89.136 107.708 88.532 107.708 87.772C107.708 87.012 107.556 86.416 107.252 85.984C106.948 85.552 106.468 85.336 105.812 85.336C105.156 85.336 104.68 85.552 104.384 85.984C104.088 86.416 103.94 87.012 103.94 87.772ZM113.569 84.448C114.337 84.448 114.917 84.636 115.309 85.012C115.701 85.388 115.897 85.988 115.897 86.812V91H114.853V86.884C114.853 85.852 114.373 85.336 113.413 85.336C112.701 85.336 112.209 85.536 111.937 85.936C111.665 86.336 111.529 86.912 111.529 87.664V91H110.473V84.568H111.325L111.481 85.444H111.541C111.749 85.108 112.037 84.86 112.405 84.7C112.773 84.532 113.161 84.448 113.569 84.448Z" fill="#323232"/>
</svg>
