<svg width="412" height="232" viewBox="0 0 412 232" fill="none" xmlns="http://www.w3.org/2000/svg">
<rect width="412" height="232" fill="white"/>
<path d="M28.024 62.708C28.024 63.468 27.748 64.06 27.196 64.484C26.644 64.908 25.9 65.12 24.964 65.12C24.484 65.12 24.04 65.084 23.632 65.012C23.224 64.94 22.884 64.84 22.612 64.712V63.68C22.9 63.808 23.256 63.924 23.68 64.028C24.112 64.132 24.556 64.184 25.012 64.184C25.644 64.184 26.124 64.06 26.452 63.812C26.78 63.564 26.944 63.228 26.944 62.804C26.944 62.524 26.884 62.288 26.764 62.096C26.644 61.904 26.436 61.728 26.14 61.568C25.844 61.408 25.44 61.232 24.928 61.04C24.192 60.776 23.64 60.452 23.272 60.068C22.904 59.684 22.72 59.16 22.72 58.496C22.72 58.048 22.836 57.66 23.068 57.332C23.3 57.004 23.62 56.752 24.028 56.576C24.436 56.4 24.912 56.312 25.456 56.312C25.92 56.312 26.348 56.356 26.74 56.444C27.132 56.532 27.492 56.648 27.82 56.792L27.484 57.716C27.188 57.588 26.864 57.48 26.512 57.392C26.16 57.304 25.8 57.26 25.432 57.26C24.896 57.26 24.492 57.376 24.22 57.608C23.948 57.832 23.812 58.132 23.812 58.508C23.812 58.796 23.872 59.036 23.992 59.228C24.112 59.42 24.308 59.596 24.58 59.756C24.852 59.908 25.22 60.068 25.684 60.236C26.188 60.42 26.612 60.62 26.956 60.836C27.308 61.044 27.572 61.296 27.748 61.592C27.932 61.888 28.024 62.26 28.024 62.708ZM32.0899 58.448C32.6339 58.448 33.1059 58.568 33.5059 58.808C33.9059 59.048 34.2099 59.388 34.4179 59.828C34.6339 60.26 34.7419 60.768 34.7419 61.352V61.988H30.3379C30.3539 62.716 30.5379 63.272 30.8899 63.656C31.2499 64.032 31.7499 64.22 32.3899 64.22C32.7979 64.22 33.1579 64.184 33.4699 64.112C33.7899 64.032 34.1179 63.92 34.4539 63.776V64.7C34.1259 64.844 33.8019 64.948 33.4819 65.012C33.1619 65.084 32.7819 65.12 32.3419 65.12C31.7259 65.12 31.1859 64.996 30.7219 64.748C30.2579 64.5 29.8939 64.132 29.6299 63.644C29.3739 63.156 29.2459 62.552 29.2459 61.832C29.2459 61.128 29.3619 60.524 29.5939 60.02C29.8339 59.516 30.1659 59.128 30.5899 58.856C31.0219 58.584 31.5219 58.448 32.0899 58.448ZM32.0779 59.312C31.5739 59.312 31.1739 59.476 30.8779 59.804C30.5899 60.124 30.4179 60.572 30.3619 61.148H33.6379C33.6299 60.604 33.5019 60.164 33.2539 59.828C33.0059 59.484 32.6139 59.312 32.0779 59.312ZM37.4354 65H36.3794V55.88H37.4354V65ZM41.9571 58.448C42.5011 58.448 42.9731 58.568 43.3731 58.808C43.7731 59.048 44.0771 59.388 44.2851 59.828C44.5011 60.26 44.6091 60.768 44.6091 61.352V61.988H40.2051C40.2211 62.716 40.4051 63.272 40.7571 63.656C41.1171 64.032 41.6171 64.22 42.2571 64.22C42.6651 64.22 43.0251 64.184 43.3371 64.112C43.6571 64.032 43.9851 63.92 44.3211 63.776V64.7C43.9931 64.844 43.6691 64.948 43.3491 65.012C43.0291 65.084 42.6491 65.12 42.2091 65.12C41.5931 65.12 41.0531 64.996 40.5891 64.748C40.1251 64.5 39.7611 64.132 39.4971 63.644C39.2411 63.156 39.1131 62.552 39.1131 61.832C39.1131 61.128 39.2291 60.524 39.4611 60.02C39.7011 59.516 40.0331 59.128 40.4571 58.856C40.8891 58.584 41.3891 58.448 41.9571 58.448ZM41.9451 59.312C41.4411 59.312 41.0411 59.476 40.7451 59.804C40.4571 60.124 40.2851 60.572 40.2291 61.148H43.5051C43.4971 60.604 43.3691 60.164 43.1211 59.828C42.8731 59.484 42.4811 59.312 41.9451 59.312ZM48.8266 65.12C48.2506 65.12 47.7426 65.004 47.3026 64.772C46.8626 64.54 46.5146 64.18 46.2586 63.692C46.0106 63.204 45.8866 62.58 45.8866 61.82C45.8866 61.028 46.0146 60.384 46.2706 59.888C46.5346 59.392 46.8946 59.028 47.3506 58.796C47.8066 58.564 48.3226 58.448 48.8986 58.448C49.2186 58.448 49.5306 58.484 49.8346 58.556C50.1466 58.62 50.3986 58.7 50.5906 58.796L50.2666 59.672C50.0746 59.6 49.8506 59.532 49.5946 59.468C49.3386 59.404 49.0986 59.372 48.8746 59.372C47.6106 59.372 46.9786 60.184 46.9786 61.808C46.9786 62.584 47.1306 63.18 47.4346 63.596C47.7466 64.004 48.2066 64.208 48.8146 64.208C49.1586 64.208 49.4666 64.172 49.7386 64.1C50.0106 64.028 50.2586 63.94 50.4826 63.836V64.772C50.2666 64.884 50.0266 64.968 49.7626 65.024C49.5066 65.088 49.1946 65.12 48.8266 65.12ZM54.1602 64.256C54.3202 64.256 54.4842 64.244 54.6522 64.22C54.8202 64.196 54.9562 64.164 55.0602 64.124V64.928C54.9482 64.984 54.7882 65.028 54.5802 65.06C54.3722 65.1 54.1722 65.12 53.9802 65.12C53.6442 65.12 53.3322 65.064 53.0442 64.952C52.7642 64.832 52.5362 64.628 52.3602 64.34C52.1842 64.052 52.0962 63.648 52.0962 63.128V59.384H51.1842V58.88L52.1082 58.46L52.5282 57.092H53.1522V58.568H55.0122V59.384H53.1522V63.104C53.1522 63.496 53.2442 63.788 53.4282 63.98C53.6202 64.164 53.8642 64.256 54.1602 64.256Z" fill="#323232"/>
<rect x="22" y="78" width="16" height="16" rx="4" fill="white"/>
<rect x="22.5" y="78.5" width="15" height="15" rx="3.5" stroke="#1473E6"/>
<path d="M56.08 85.988C56.08 87.024 55.9027 87.9293 55.548 88.704C55.2027 89.4693 54.6847 90.0667 53.994 90.496C53.3127 90.9253 52.4727 91.14 51.474 91.14C50.438 91.14 49.5747 90.9253 48.884 90.496C48.2027 90.0667 47.694 89.4647 47.358 88.69C47.022 87.9153 46.854 87.01 46.854 85.974C46.854 84.9567 47.022 84.0653 47.358 83.3C47.694 82.5253 48.2027 81.9233 48.884 81.494C49.5747 81.0647 50.4427 80.85 51.488 80.85C52.4867 80.85 53.3267 81.0647 54.008 81.494C54.6893 81.914 55.2027 82.5113 55.548 83.286C55.9027 84.0513 56.08 84.952 56.08 85.988ZM48.184 85.988C48.184 87.248 48.45 88.242 48.982 88.97C49.514 89.6887 50.3447 90.048 51.474 90.048C52.6033 90.048 53.4293 89.6887 53.952 88.97C54.484 88.242 54.75 87.248 54.75 85.988C54.75 84.728 54.4887 83.7433 53.966 83.034C53.4433 82.3153 52.6173 81.956 51.488 81.956C50.3493 81.956 49.514 82.3153 48.982 83.034C48.45 83.7433 48.184 84.728 48.184 85.988ZM61.6975 83.356C62.6215 83.356 63.3635 83.678 63.9235 84.322C64.4928 84.966 64.7775 85.9367 64.7775 87.234C64.7775 88.5127 64.4928 89.4833 63.9235 90.146C63.3635 90.8087 62.6168 91.14 61.6835 91.14C61.1048 91.14 60.6242 91.0327 60.2415 90.818C59.8682 90.6033 59.5742 90.3467 59.3595 90.048H59.2755C59.2848 90.2067 59.2988 90.4073 59.3175 90.65C59.3455 90.8927 59.3595 91.1027 59.3595 91.28V94.36H58.1275V83.496H59.1355L59.3035 84.518H59.3595C59.5835 84.1913 59.8775 83.916 60.2415 83.692C60.6055 83.468 61.0908 83.356 61.6975 83.356ZM61.4735 84.392C60.7082 84.392 60.1668 84.6067 59.8495 85.036C59.5322 85.4653 59.3688 86.1187 59.3595 86.996V87.234C59.3595 88.158 59.5088 88.872 59.8075 89.376C60.1155 89.8707 60.6802 90.118 61.5015 90.118C61.9495 90.118 62.3228 89.9967 62.6215 89.754C62.9202 89.502 63.1395 89.1567 63.2795 88.718C63.4288 88.2793 63.5035 87.78 63.5035 87.22C63.5035 86.3613 63.3355 85.6753 62.9995 85.162C62.6728 84.6487 62.1642 84.392 61.4735 84.392ZM69.2468 90.132C69.4334 90.132 69.6248 90.118 69.8208 90.09C70.0168 90.062 70.1754 90.0247 70.2968 89.978V90.916C70.1661 90.9813 69.9794 91.0327 69.7368 91.07C69.4941 91.1167 69.2608 91.14 69.0368 91.14C68.6448 91.14 68.2808 91.0747 67.9448 90.944C67.6181 90.804 67.3521 90.566 67.1468 90.23C66.9414 89.894 66.8388 89.4227 66.8388 88.816V84.448H65.7748V83.86L66.8528 83.37L67.3428 81.774H68.0708V83.496H70.2408V84.448H68.0708V88.788C68.0708 89.2453 68.1781 89.586 68.3928 89.81C68.6168 90.0247 68.9014 90.132 69.2468 90.132ZM72.4294 80.682C72.616 80.682 72.7794 80.7473 72.9194 80.878C73.0687 80.9993 73.1434 81.1953 73.1434 81.466C73.1434 81.7367 73.0687 81.9373 72.9194 82.068C72.7794 82.1893 72.616 82.25 72.4294 82.25C72.224 82.25 72.0514 82.1893 71.9114 82.068C71.7714 81.9373 71.7014 81.7367 71.7014 81.466C71.7014 81.1953 71.7714 80.9993 71.9114 80.878C72.0514 80.7473 72.224 80.682 72.4294 80.682ZM73.0314 83.496V91H71.7994V83.496H73.0314ZM81.9327 87.234C81.9327 88.4753 81.6154 89.4367 80.9808 90.118C80.3554 90.7993 79.5061 91.14 78.4328 91.14C77.7701 91.14 77.1774 90.9907 76.6548 90.692C76.1414 90.384 75.7354 89.9407 75.4368 89.362C75.1381 88.774 74.9888 88.0647 74.9888 87.234C74.9888 85.9927 75.2968 85.036 75.9128 84.364C76.5381 83.692 77.3921 83.356 78.4748 83.356C79.1468 83.356 79.7441 83.51 80.2668 83.818C80.7894 84.1167 81.1954 84.5553 81.4848 85.134C81.7834 85.7033 81.9327 86.4033 81.9327 87.234ZM76.2628 87.234C76.2628 88.1207 76.4354 88.8253 76.7808 89.348C77.1354 89.8613 77.6954 90.118 78.4608 90.118C79.2168 90.118 79.7721 89.8613 80.1268 89.348C80.4814 88.8253 80.6588 88.1207 80.6588 87.234C80.6588 86.3473 80.4814 85.652 80.1268 85.148C79.7721 84.644 79.2121 84.392 78.4468 84.392C77.6814 84.392 77.1261 84.644 76.7808 85.148C76.4354 85.652 76.2628 86.3473 76.2628 87.234ZM87.4973 83.356C88.3933 83.356 89.07 83.5753 89.5273 84.014C89.9846 84.4527 90.2133 85.1527 90.2133 86.114V91H88.9953V86.198C88.9953 84.994 88.4353 84.392 87.3153 84.392C86.4846 84.392 85.9106 84.6253 85.5933 85.092C85.276 85.5587 85.1173 86.2307 85.1173 87.108V91H83.8853V83.496H84.8793L85.0613 84.518H85.1313C85.374 84.126 85.71 83.8367 86.1393 83.65C86.5686 83.454 87.0213 83.356 87.4973 83.356Z" fill="black"/>
<rect x="22" y="106" width="16" height="16" rx="4" fill="white"/>
<rect x="22.5" y="106.5" width="15" height="15" rx="3.5" stroke="#1473E6"/>
<path d="M51.768 119L48.478 110.236H48.422C48.45 110.525 48.4733 110.917 48.492 111.412C48.5107 111.897 48.52 112.406 48.52 112.938V119H47.358V109.004H49.22L52.3 117.194H52.356L55.492 109.004H57.34V119H56.094V112.854C56.094 112.369 56.1033 111.888 56.122 111.412C56.15 110.936 56.1733 110.549 56.192 110.25H56.136L52.804 119H51.768ZM66.1632 111.496V119H65.1552L64.9732 118.006H64.9172C64.6745 118.398 64.3385 118.687 63.9092 118.874C63.4798 119.051 63.0225 119.14 62.5372 119.14C61.6318 119.14 60.9505 118.925 60.4932 118.496C60.0358 118.057 59.8072 117.362 59.8072 116.41V111.496H61.0532V116.326C61.0532 117.521 61.6085 118.118 62.7192 118.118C63.5498 118.118 64.1238 117.885 64.4412 117.418C64.7678 116.951 64.9312 116.279 64.9312 115.402V111.496H66.1632ZM69.7775 119H68.5455V108.36H69.7775V119ZM74.6608 118.132C74.8475 118.132 75.0388 118.118 75.2348 118.09C75.4308 118.062 75.5895 118.025 75.7108 117.978V118.916C75.5802 118.981 75.3935 119.033 75.1508 119.07C74.9082 119.117 74.6748 119.14 74.4508 119.14C74.0588 119.14 73.6948 119.075 73.3588 118.944C73.0322 118.804 72.7662 118.566 72.5608 118.23C72.3555 117.894 72.2528 117.423 72.2528 116.816V112.448H71.1888V111.86L72.2668 111.37L72.7568 109.774H73.4848V111.496H75.6548V112.448H73.4848V116.788C73.4848 117.245 73.5922 117.586 73.8068 117.81C74.0308 118.025 74.3155 118.132 74.6608 118.132ZM77.8434 108.682C78.0301 108.682 78.1934 108.747 78.3334 108.878C78.4828 108.999 78.5574 109.195 78.5574 109.466C78.5574 109.737 78.4828 109.937 78.3334 110.068C78.1934 110.189 78.0301 110.25 77.8434 110.25C77.6381 110.25 77.4654 110.189 77.3254 110.068C77.1854 109.937 77.1154 109.737 77.1154 109.466C77.1154 109.195 77.1854 108.999 77.3254 108.878C77.4654 108.747 77.6381 108.682 77.8434 108.682ZM78.4454 111.496V119H77.2134V111.496H78.4454ZM80.1928 115.794V114.702H83.5808V115.794H80.1928ZM86.5665 119H85.3345V108.36H86.5665V119ZM89.5739 108.682C89.7606 108.682 89.9239 108.747 90.0639 108.878C90.2132 108.999 90.2879 109.195 90.2879 109.466C90.2879 109.737 90.2132 109.937 90.0639 110.068C89.9239 110.189 89.7606 110.25 89.5739 110.25C89.3686 110.25 89.1959 110.189 89.0559 110.068C88.9159 109.937 88.8459 109.737 88.8459 109.466C88.8459 109.195 88.9159 108.999 89.0559 108.878C89.1959 108.747 89.3686 108.682 89.5739 108.682ZM90.1759 111.496V119H88.9439V111.496H90.1759ZM96.1653 111.356C97.0613 111.356 97.7379 111.575 98.1953 112.014C98.6526 112.453 98.8813 113.153 98.8813 114.114V119H97.6633V114.198C97.6633 112.994 97.1033 112.392 95.9833 112.392C95.1526 112.392 94.5786 112.625 94.2613 113.092C93.9439 113.559 93.7853 114.231 93.7853 115.108V119H92.5533V111.496H93.5473L93.7293 112.518H93.7993C94.0419 112.126 94.3779 111.837 94.8073 111.65C95.2366 111.454 95.6893 111.356 96.1653 111.356ZM104.106 111.356C104.74 111.356 105.291 111.496 105.758 111.776C106.224 112.056 106.579 112.453 106.822 112.966C107.074 113.47 107.2 114.063 107.2 114.744V115.486H102.062C102.08 116.335 102.295 116.984 102.706 117.432C103.126 117.871 103.709 118.09 104.456 118.09C104.932 118.09 105.352 118.048 105.716 117.964C106.089 117.871 106.472 117.74 106.864 117.572V118.65C106.481 118.818 106.103 118.939 105.73 119.014C105.356 119.098 104.913 119.14 104.4 119.14C103.681 119.14 103.051 118.995 102.51 118.706C101.968 118.417 101.544 117.987 101.236 117.418C100.937 116.849 100.788 116.144 100.788 115.304C100.788 114.483 100.923 113.778 101.194 113.19C101.474 112.602 101.861 112.149 102.356 111.832C102.86 111.515 103.443 111.356 104.106 111.356ZM104.092 112.364C103.504 112.364 103.037 112.555 102.692 112.938C102.356 113.311 102.155 113.834 102.09 114.506H105.912C105.902 113.871 105.753 113.358 105.464 112.966C105.174 112.565 104.717 112.364 104.092 112.364ZM115.253 118.132C115.439 118.132 115.631 118.118 115.827 118.09C116.023 118.062 116.181 118.025 116.303 117.978V118.916C116.172 118.981 115.985 119.033 115.743 119.07C115.5 119.117 115.267 119.14 115.043 119.14C114.651 119.14 114.287 119.075 113.951 118.944C113.624 118.804 113.358 118.566 113.153 118.23C112.947 117.894 112.845 117.423 112.845 116.816V112.448H111.781V111.86L112.859 111.37L113.349 109.774H114.077V111.496H116.247V112.448H114.077V116.788C114.077 117.245 114.184 117.586 114.399 117.81C114.623 118.025 114.907 118.132 115.253 118.132ZM120.703 111.356C121.338 111.356 121.889 111.496 122.355 111.776C122.822 112.056 123.177 112.453 123.419 112.966C123.671 113.47 123.797 114.063 123.797 114.744V115.486H118.659C118.678 116.335 118.893 116.984 119.303 117.432C119.723 117.871 120.307 118.09 121.053 118.09C121.529 118.09 121.949 118.048 122.313 117.964C122.687 117.871 123.069 117.74 123.461 117.572V118.65C123.079 118.818 122.701 118.939 122.327 119.014C121.954 119.098 121.511 119.14 120.997 119.14C120.279 119.14 119.649 118.995 119.107 118.706C118.566 118.417 118.141 117.987 117.833 117.418C117.535 116.849 117.385 116.144 117.385 115.304C117.385 114.483 117.521 113.778 117.791 113.19C118.071 112.602 118.459 112.149 118.953 111.832C119.457 111.515 120.041 111.356 120.703 111.356ZM120.689 112.364C120.101 112.364 119.635 112.555 119.289 112.938C118.953 113.311 118.753 113.834 118.687 114.506H122.509C122.5 113.871 122.351 113.358 122.061 112.966C121.772 112.565 121.315 112.364 120.689 112.364ZM127.212 115.164L124.622 111.496H126.022L127.954 114.324L129.872 111.496H131.258L128.668 115.164L131.398 119H129.998L127.954 116.004L125.882 119H124.496L127.212 115.164ZM135.35 118.132C135.537 118.132 135.728 118.118 135.924 118.09C136.12 118.062 136.279 118.025 136.4 117.978V118.916C136.27 118.981 136.083 119.033 135.84 119.07C135.598 119.117 135.364 119.14 135.14 119.14C134.748 119.14 134.384 119.075 134.048 118.944C133.722 118.804 133.456 118.566 133.25 118.23C133.045 117.894 132.942 117.423 132.942 116.816V112.448H131.878V111.86L132.956 111.37L133.446 109.774H134.174V111.496H136.344V112.448H134.174V116.788C134.174 117.245 134.282 117.586 134.496 117.81C134.72 118.025 135.005 118.132 135.35 118.132ZM142.17 108.682C142.356 108.682 142.52 108.747 142.66 108.878C142.809 108.999 142.884 109.195 142.884 109.466C142.884 109.737 142.809 109.937 142.66 110.068C142.52 110.189 142.356 110.25 142.17 110.25C141.964 110.25 141.792 110.189 141.652 110.068C141.512 109.937 141.442 109.737 141.442 109.466C141.442 109.195 141.512 108.999 141.652 108.878C141.792 108.747 141.964 108.682 142.17 108.682ZM142.772 111.496V119H141.54V111.496H142.772ZM148.761 111.356C149.657 111.356 150.334 111.575 150.791 112.014C151.248 112.453 151.477 113.153 151.477 114.114V119H150.259V114.198C150.259 112.994 149.699 112.392 148.579 112.392C147.748 112.392 147.174 112.625 146.857 113.092C146.54 113.559 146.381 114.231 146.381 115.108V119H145.149V111.496H146.143L146.325 112.518H146.395C146.638 112.126 146.974 111.837 147.403 111.65C147.832 111.454 148.285 111.356 148.761 111.356ZM160.282 111.37C161.197 111.37 161.873 111.571 162.312 111.972C162.751 112.373 162.97 113.013 162.97 113.89V119H162.074L161.836 117.936H161.78C161.453 118.347 161.108 118.65 160.744 118.846C160.38 119.042 159.885 119.14 159.26 119.14C158.579 119.14 158.014 118.963 157.566 118.608C157.118 118.244 156.894 117.679 156.894 116.914C156.894 116.167 157.188 115.593 157.776 115.192C158.364 114.781 159.269 114.557 160.492 114.52L161.766 114.478V114.03C161.766 113.405 161.631 112.971 161.36 112.728C161.089 112.485 160.707 112.364 160.212 112.364C159.82 112.364 159.447 112.425 159.092 112.546C158.737 112.658 158.406 112.789 158.098 112.938L157.72 112.014C158.047 111.837 158.434 111.687 158.882 111.566C159.33 111.435 159.797 111.37 160.282 111.37ZM161.752 115.332L160.646 115.374C159.713 115.411 159.064 115.561 158.7 115.822C158.345 116.083 158.168 116.452 158.168 116.928C158.168 117.348 158.294 117.656 158.546 117.852C158.807 118.048 159.139 118.146 159.54 118.146C160.165 118.146 160.688 117.973 161.108 117.628C161.537 117.273 161.752 116.732 161.752 116.004V115.332ZM171.934 119.14C171.262 119.14 170.67 119.005 170.156 118.734C169.643 118.463 169.237 118.043 168.938 117.474C168.649 116.905 168.504 116.177 168.504 115.29C168.504 114.366 168.654 113.615 168.952 113.036C169.26 112.457 169.68 112.033 170.212 111.762C170.744 111.491 171.346 111.356 172.018 111.356C172.392 111.356 172.756 111.398 173.11 111.482C173.474 111.557 173.768 111.65 173.992 111.762L173.614 112.784C173.39 112.7 173.129 112.621 172.83 112.546C172.532 112.471 172.252 112.434 171.99 112.434C170.516 112.434 169.778 113.381 169.778 115.276C169.778 116.181 169.956 116.877 170.31 117.362C170.674 117.838 171.211 118.076 171.92 118.076C172.322 118.076 172.681 118.034 172.998 117.95C173.316 117.866 173.605 117.763 173.866 117.642V118.734C173.614 118.865 173.334 118.963 173.026 119.028C172.728 119.103 172.364 119.14 171.934 119.14ZM176.883 108.36V111.482C176.883 111.855 176.86 112.205 176.813 112.532H176.897C177.14 112.149 177.466 111.86 177.877 111.664C178.297 111.468 178.75 111.37 179.235 111.37C180.14 111.37 180.822 111.589 181.279 112.028C181.746 112.457 181.979 113.153 181.979 114.114V119H180.761V114.198C180.761 112.994 180.201 112.392 179.081 112.392C178.241 112.392 177.662 112.63 177.345 113.106C177.037 113.573 176.883 114.245 176.883 115.122V119H175.651V108.36H176.883ZM187.203 111.356C187.838 111.356 188.389 111.496 188.855 111.776C189.322 112.056 189.677 112.453 189.919 112.966C190.171 113.47 190.297 114.063 190.297 114.744V115.486H185.159C185.178 116.335 185.393 116.984 185.803 117.432C186.223 117.871 186.807 118.09 187.553 118.09C188.029 118.09 188.449 118.048 188.813 117.964C189.187 117.871 189.569 117.74 189.961 117.572V118.65C189.579 118.818 189.201 118.939 188.827 119.014C188.454 119.098 188.011 119.14 187.497 119.14C186.779 119.14 186.149 118.995 185.607 118.706C185.066 118.417 184.641 117.987 184.333 117.418C184.035 116.849 183.885 116.144 183.885 115.304C183.885 114.483 184.021 113.778 184.291 113.19C184.571 112.602 184.959 112.149 185.453 111.832C185.957 111.515 186.541 111.356 187.203 111.356ZM187.189 112.364C186.601 112.364 186.135 112.555 185.789 112.938C185.453 113.311 185.253 113.834 185.187 114.506H189.009C189 113.871 188.851 113.358 188.561 112.966C188.272 112.565 187.815 112.364 187.189 112.364ZM195.218 119.14C194.546 119.14 193.953 119.005 193.44 118.734C192.926 118.463 192.52 118.043 192.222 117.474C191.932 116.905 191.788 116.177 191.788 115.29C191.788 114.366 191.937 113.615 192.236 113.036C192.544 112.457 192.964 112.033 193.496 111.762C194.028 111.491 194.63 111.356 195.302 111.356C195.675 111.356 196.039 111.398 196.394 111.482C196.758 111.557 197.052 111.65 197.276 111.762L196.898 112.784C196.674 112.7 196.412 112.621 196.114 112.546C195.815 112.471 195.535 112.434 195.274 112.434C193.799 112.434 193.062 113.381 193.062 115.276C193.062 116.181 193.239 116.877 193.594 117.362C193.958 117.838 194.494 118.076 195.204 118.076C195.605 118.076 195.964 118.034 196.282 117.95C196.599 117.866 196.888 117.763 197.15 117.642V118.734C196.898 118.865 196.618 118.963 196.31 119.028C196.011 119.103 195.647 119.14 195.218 119.14ZM200.152 108.36V113.918C200.152 114.067 200.143 114.263 200.124 114.506C200.115 114.749 200.105 114.959 200.096 115.136H200.152C200.208 115.061 200.292 114.954 200.404 114.814C200.516 114.674 200.628 114.534 200.74 114.394C200.861 114.245 200.964 114.123 201.048 114.03L203.442 111.496H204.884L201.846 114.702L205.094 119H203.61L201.006 115.5L200.152 116.242V119H198.934V108.36H200.152ZM207.645 108.36V110.95C207.645 111.267 207.635 111.566 207.617 111.846C207.607 112.117 207.593 112.331 207.575 112.49H207.645C207.859 112.173 208.153 111.907 208.527 111.692C208.9 111.477 209.381 111.37 209.969 111.37C210.902 111.37 211.649 111.697 212.209 112.35C212.778 112.994 213.063 113.96 213.063 115.248C213.063 116.536 212.778 117.507 212.209 118.16C211.639 118.813 210.893 119.14 209.969 119.14C209.381 119.14 208.9 119.033 208.527 118.818C208.153 118.603 207.859 118.347 207.645 118.048H207.547L207.295 119H206.413V108.36H207.645ZM209.759 112.392C208.956 112.392 208.401 112.621 208.093 113.078C207.794 113.535 207.645 114.245 207.645 115.206V115.262C207.645 116.186 207.794 116.895 208.093 117.39C208.401 117.875 208.965 118.118 209.787 118.118C210.459 118.118 210.958 117.871 211.285 117.376C211.621 116.881 211.789 116.167 211.789 115.234C211.789 113.339 211.112 112.392 209.759 112.392ZM221.55 115.234C221.55 116.475 221.233 117.437 220.598 118.118C219.973 118.799 219.123 119.14 218.05 119.14C217.387 119.14 216.795 118.991 216.272 118.692C215.759 118.384 215.353 117.941 215.054 117.362C214.755 116.774 214.606 116.065 214.606 115.234C214.606 113.993 214.914 113.036 215.53 112.364C216.155 111.692 217.009 111.356 218.092 111.356C218.764 111.356 219.361 111.51 219.884 111.818C220.407 112.117 220.813 112.555 221.102 113.134C221.401 113.703 221.55 114.403 221.55 115.234ZM215.88 115.234C215.88 116.121 216.053 116.825 216.398 117.348C216.753 117.861 217.313 118.118 218.078 118.118C218.834 118.118 219.389 117.861 219.744 117.348C220.099 116.825 220.276 116.121 220.276 115.234C220.276 114.347 220.099 113.652 219.744 113.148C219.389 112.644 218.829 112.392 218.064 112.392C217.299 112.392 216.743 112.644 216.398 113.148C216.053 113.652 215.88 114.347 215.88 115.234ZM225.007 115.164L222.417 111.496H223.817L225.749 114.324L227.667 111.496H229.053L226.463 115.164L229.193 119H227.793L225.749 116.004L223.677 119H222.291L225.007 115.164ZM237.286 119.14C236.614 119.14 236.021 119.005 235.508 118.734C234.995 118.463 234.589 118.043 234.29 117.474C234.001 116.905 233.856 116.177 233.856 115.29C233.856 114.366 234.005 113.615 234.304 113.036C234.612 112.457 235.032 112.033 235.564 111.762C236.096 111.491 236.698 111.356 237.37 111.356C237.743 111.356 238.107 111.398 238.462 111.482C238.826 111.557 239.12 111.65 239.344 111.762L238.966 112.784C238.742 112.7 238.481 112.621 238.182 112.546C237.883 112.471 237.603 112.434 237.342 112.434C235.867 112.434 235.13 113.381 235.13 115.276C235.13 116.181 235.307 116.877 235.662 117.362C236.026 117.838 236.563 118.076 237.272 118.076C237.673 118.076 238.033 118.034 238.35 117.95C238.667 117.866 238.957 117.763 239.218 117.642V118.734C238.966 118.865 238.686 118.963 238.378 119.028C238.079 119.103 237.715 119.14 237.286 119.14ZM247.526 115.234C247.526 116.475 247.209 117.437 246.575 118.118C245.949 118.799 245.1 119.14 244.027 119.14C243.364 119.14 242.771 118.991 242.249 118.692C241.735 118.384 241.329 117.941 241.031 117.362C240.732 116.774 240.583 116.065 240.583 115.234C240.583 113.993 240.891 113.036 241.507 112.364C242.132 111.692 242.986 111.356 244.069 111.356C244.741 111.356 245.338 111.51 245.861 111.818C246.383 112.117 246.789 112.555 247.079 113.134C247.377 113.703 247.526 114.403 247.526 115.234ZM241.857 115.234C241.857 116.121 242.029 116.825 242.375 117.348C242.729 117.861 243.289 118.118 244.055 118.118C244.811 118.118 245.366 117.861 245.721 117.348C246.075 116.825 246.253 116.121 246.253 115.234C246.253 114.347 246.075 113.652 245.721 113.148C245.366 112.644 244.806 112.392 244.041 112.392C243.275 112.392 242.72 112.644 242.375 113.148C242.029 113.652 241.857 114.347 241.857 115.234ZM253.091 111.356C253.987 111.356 254.664 111.575 255.121 112.014C255.578 112.453 255.807 113.153 255.807 114.114V119H254.589V114.198C254.589 112.994 254.029 112.392 252.909 112.392C252.078 112.392 251.504 112.625 251.187 113.092C250.87 113.559 250.711 114.231 250.711 115.108V119H249.479V111.496H250.473L250.655 112.518H250.725C250.968 112.126 251.304 111.837 251.733 111.65C252.162 111.454 252.615 111.356 253.091 111.356ZM260.639 118.132C260.826 118.132 261.017 118.118 261.213 118.09C261.409 118.062 261.568 118.025 261.689 117.978V118.916C261.559 118.981 261.372 119.033 261.129 119.07C260.887 119.117 260.653 119.14 260.429 119.14C260.037 119.14 259.673 119.075 259.337 118.944C259.011 118.804 258.745 118.566 258.539 118.23C258.334 117.894 258.231 117.423 258.231 116.816V112.448H257.167V111.86L258.245 111.37L258.735 109.774H259.463V111.496H261.633V112.448H259.463V116.788C259.463 117.245 259.571 117.586 259.785 117.81C260.009 118.025 260.294 118.132 260.639 118.132ZM266.034 111.37C266.949 111.37 267.625 111.571 268.064 111.972C268.503 112.373 268.722 113.013 268.722 113.89V119H267.826L267.588 117.936H267.532C267.205 118.347 266.86 118.65 266.496 118.846C266.132 119.042 265.637 119.14 265.012 119.14C264.331 119.14 263.766 118.963 263.318 118.608C262.87 118.244 262.646 117.679 262.646 116.914C262.646 116.167 262.94 115.593 263.528 115.192C264.116 114.781 265.021 114.557 266.244 114.52L267.518 114.478V114.03C267.518 113.405 267.383 112.971 267.112 112.728C266.841 112.485 266.459 112.364 265.964 112.364C265.572 112.364 265.199 112.425 264.844 112.546C264.489 112.658 264.158 112.789 263.85 112.938L263.472 112.014C263.799 111.837 264.186 111.687 264.634 111.566C265.082 111.435 265.549 111.37 266.034 111.37ZM267.504 115.332L266.398 115.374C265.465 115.411 264.816 115.561 264.452 115.822C264.097 116.083 263.92 116.452 263.92 116.928C263.92 117.348 264.046 117.656 264.298 117.852C264.559 118.048 264.891 118.146 265.292 118.146C265.917 118.146 266.44 117.973 266.86 117.628C267.289 117.273 267.504 116.732 267.504 116.004V115.332ZM271.67 108.682C271.856 108.682 272.02 108.747 272.16 108.878C272.309 108.999 272.384 109.195 272.384 109.466C272.384 109.737 272.309 109.937 272.16 110.068C272.02 110.189 271.856 110.25 271.67 110.25C271.464 110.25 271.292 110.189 271.152 110.068C271.012 109.937 270.942 109.737 270.942 109.466C270.942 109.195 271.012 108.999 271.152 108.878C271.292 108.747 271.464 108.682 271.67 108.682ZM272.272 111.496V119H271.04V111.496H272.272ZM278.261 111.356C279.157 111.356 279.834 111.575 280.291 112.014C280.748 112.453 280.977 113.153 280.977 114.114V119H279.759V114.198C279.759 112.994 279.199 112.392 278.079 112.392C277.248 112.392 276.674 112.625 276.357 113.092C276.04 113.559 275.881 114.231 275.881 115.108V119H274.649V111.496H275.643L275.825 112.518H275.895C276.138 112.126 276.474 111.837 276.903 111.65C277.332 111.454 277.785 111.356 278.261 111.356ZM286.201 111.356C286.836 111.356 287.387 111.496 287.853 111.776C288.32 112.056 288.675 112.453 288.917 112.966C289.169 113.47 289.295 114.063 289.295 114.744V115.486H284.157C284.176 116.335 284.391 116.984 284.801 117.432C285.221 117.871 285.805 118.09 286.551 118.09C287.027 118.09 287.447 118.048 287.811 117.964C288.185 117.871 288.567 117.74 288.959 117.572V118.65C288.577 118.818 288.199 118.939 287.825 119.014C287.452 119.098 287.009 119.14 286.495 119.14C285.777 119.14 285.147 118.995 284.605 118.706C284.064 118.417 283.639 117.987 283.331 117.418C283.033 116.849 282.883 116.144 282.883 115.304C282.883 114.483 283.019 113.778 283.289 113.19C283.569 112.602 283.957 112.149 284.451 111.832C284.955 111.515 285.539 111.356 286.201 111.356ZM286.187 112.364C285.599 112.364 285.133 112.555 284.787 112.938C284.451 113.311 284.251 113.834 284.185 114.506H288.007C287.998 113.871 287.849 113.358 287.559 112.966C287.27 112.565 286.813 112.364 286.187 112.364ZM294.706 111.356C294.846 111.356 294.995 111.365 295.154 111.384C295.312 111.393 295.457 111.412 295.588 111.44L295.434 112.574C295.312 112.546 295.177 112.523 295.028 112.504C294.878 112.485 294.743 112.476 294.622 112.476C294.239 112.476 293.88 112.583 293.544 112.798C293.208 113.003 292.937 113.297 292.732 113.68C292.536 114.053 292.438 114.492 292.438 114.996V119H291.206V111.496H292.214L292.354 112.868H292.41C292.643 112.457 292.951 112.103 293.334 111.804C293.726 111.505 294.183 111.356 294.706 111.356ZM306.758 118.986L305.47 114.758C305.348 114.375 305.241 114.002 305.148 113.638C305.054 113.274 304.989 112.985 304.952 112.77H304.896C304.858 112.985 304.798 113.274 304.714 113.638C304.63 114.002 304.522 114.38 304.392 114.772L303.048 118.986H301.648L299.59 111.482H300.864L301.9 115.486C302.002 115.887 302.1 116.293 302.194 116.704C302.287 117.115 302.352 117.455 302.39 117.726H302.446C302.474 117.567 302.516 117.371 302.572 117.138C302.628 116.905 302.688 116.662 302.754 116.41C302.819 116.149 302.884 115.915 302.95 115.71L304.28 111.482H305.624L306.912 115.71C307.005 116.037 307.103 116.387 307.206 116.76C307.308 117.133 307.378 117.451 307.416 117.712H307.472C307.5 117.479 307.56 117.157 307.654 116.746C307.756 116.335 307.864 115.915 307.976 115.486L309.026 111.482H310.286L308.2 118.986H306.758ZM312.261 108.682C312.448 108.682 312.611 108.747 312.751 108.878C312.901 108.999 312.975 109.195 312.975 109.466C312.975 109.737 312.901 109.937 312.751 110.068C312.611 110.189 312.448 110.25 312.261 110.25C312.056 110.25 311.883 110.189 311.743 110.068C311.603 109.937 311.533 109.737 311.533 109.466C311.533 109.195 311.603 108.999 311.743 108.878C311.883 108.747 312.056 108.682 312.261 108.682ZM312.863 111.496V119H311.631V111.496H312.863ZM317.747 118.132C317.933 118.132 318.125 118.118 318.321 118.09C318.517 118.062 318.675 118.025 318.797 117.978V118.916C318.666 118.981 318.479 119.033 318.237 119.07C317.994 119.117 317.761 119.14 317.537 119.14C317.145 119.14 316.781 119.075 316.445 118.944C316.118 118.804 315.852 118.566 315.647 118.23C315.441 117.894 315.339 117.423 315.339 116.816V112.448H314.275V111.86L315.353 111.37L315.843 109.774H316.571V111.496H318.741V112.448H316.571V116.788C316.571 117.245 316.678 117.586 316.893 117.81C317.117 118.025 317.401 118.132 317.747 118.132ZM321.531 108.36V111.482C321.531 111.855 321.508 112.205 321.461 112.532H321.545C321.788 112.149 322.115 111.86 322.525 111.664C322.945 111.468 323.398 111.37 323.883 111.37C324.789 111.37 325.47 111.589 325.927 112.028C326.394 112.457 326.627 113.153 326.627 114.114V119H325.409V114.198C325.409 112.994 324.849 112.392 323.729 112.392C322.889 112.392 322.311 112.63 321.993 113.106C321.685 113.573 321.531 114.245 321.531 115.122V119H320.299V108.36H321.531ZM333.822 119H332.59V108.36H333.822V119ZM342.724 115.234C342.724 116.475 342.406 117.437 341.772 118.118C341.146 118.799 340.297 119.14 339.224 119.14C338.561 119.14 337.968 118.991 337.446 118.692C336.932 118.384 336.526 117.941 336.228 117.362C335.929 116.774 335.78 116.065 335.78 115.234C335.78 113.993 336.088 113.036 336.704 112.364C337.329 111.692 338.183 111.356 339.266 111.356C339.938 111.356 340.535 111.51 341.058 111.818C341.58 112.117 341.986 112.555 342.276 113.134C342.574 113.703 342.724 114.403 342.724 115.234ZM337.054 115.234C337.054 116.121 337.226 116.825 337.572 117.348C337.926 117.861 338.486 118.118 339.252 118.118C340.008 118.118 340.563 117.861 340.918 117.348C341.272 116.825 341.45 116.121 341.45 115.234C341.45 114.347 341.272 113.652 340.918 113.148C340.563 112.644 340.003 112.392 339.238 112.392C338.472 112.392 337.917 112.644 337.572 113.148C337.226 113.652 337.054 114.347 337.054 115.234ZM348.288 111.356C349.184 111.356 349.861 111.575 350.318 112.014C350.776 112.453 351.004 113.153 351.004 114.114V119H349.786V114.198C349.786 112.994 349.226 112.392 348.106 112.392C347.276 112.392 346.702 112.625 346.384 113.092C346.067 113.559 345.908 114.231 345.908 115.108V119H344.676V111.496H345.67L345.852 112.518H345.922C346.165 112.126 346.501 111.837 346.93 111.65C347.36 111.454 347.812 111.356 348.288 111.356ZM355.991 111.356C356.485 111.356 356.929 111.449 357.321 111.636C357.722 111.823 358.063 112.107 358.343 112.49H358.413L358.581 111.496H359.561V119.126C359.561 120.199 359.285 121.007 358.735 121.548C358.193 122.089 357.349 122.36 356.201 122.36C355.099 122.36 354.199 122.201 353.499 121.884V120.75C354.236 121.142 355.16 121.338 356.271 121.338C356.915 121.338 357.419 121.147 357.783 120.764C358.156 120.391 358.343 119.877 358.343 119.224V118.93C358.343 118.818 358.347 118.659 358.357 118.454C358.366 118.239 358.375 118.09 358.385 118.006H358.329C357.825 118.762 357.05 119.14 356.005 119.14C355.034 119.14 354.273 118.799 353.723 118.118C353.181 117.437 352.911 116.485 352.911 115.262C352.911 114.067 353.181 113.12 353.723 112.42C354.273 111.711 355.029 111.356 355.991 111.356ZM356.159 112.392C355.533 112.392 355.048 112.644 354.703 113.148C354.357 113.643 354.185 114.352 354.185 115.276C354.185 116.2 354.353 116.909 354.689 117.404C355.025 117.889 355.524 118.132 356.187 118.132C356.943 118.132 357.493 117.931 357.839 117.53C358.184 117.119 358.357 116.461 358.357 115.556V115.262C358.357 114.245 358.179 113.512 357.825 113.064C357.47 112.616 356.915 112.392 356.159 112.392ZM368.087 118.132C368.273 118.132 368.465 118.118 368.661 118.09C368.857 118.062 369.015 118.025 369.137 117.978V118.916C369.006 118.981 368.819 119.033 368.577 119.07C368.334 119.117 368.101 119.14 367.877 119.14C367.485 119.14 367.121 119.075 366.785 118.944C366.458 118.804 366.192 118.566 365.987 118.23C365.781 117.894 365.679 117.423 365.679 116.816V112.448H364.615V111.86L365.693 111.37L366.183 109.774H366.911V111.496H369.081V112.448H366.911V116.788C366.911 117.245 367.018 117.586 367.233 117.81C367.457 118.025 367.741 118.132 368.087 118.132ZM373.537 111.356C374.172 111.356 374.723 111.496 375.189 111.776C375.656 112.056 376.011 112.453 376.253 112.966C376.505 113.47 376.631 114.063 376.631 114.744V115.486H371.493C371.512 116.335 371.727 116.984 372.137 117.432C372.557 117.871 373.141 118.09 373.887 118.09C374.363 118.09 374.783 118.048 375.147 117.964C375.521 117.871 375.903 117.74 376.295 117.572V118.65C375.913 118.818 375.535 118.939 375.161 119.014C374.788 119.098 374.345 119.14 373.831 119.14C373.113 119.14 372.483 118.995 371.941 118.706C371.4 118.417 370.975 117.987 370.667 117.418C370.369 116.849 370.219 116.144 370.219 115.304C370.219 114.483 370.355 113.778 370.625 113.19C370.905 112.602 371.293 112.149 371.787 111.832C372.291 111.515 372.875 111.356 373.537 111.356ZM373.523 112.364C372.935 112.364 372.469 112.555 372.123 112.938C371.787 113.311 371.587 113.834 371.521 114.506H375.343C375.334 113.871 375.185 113.358 374.895 112.966C374.606 112.565 374.149 112.364 373.523 112.364ZM380.046 115.164L377.456 111.496H378.856L380.788 114.324L382.706 111.496H384.092L381.502 115.164L384.232 119H382.832L380.788 116.004L378.716 119H377.33L380.046 115.164ZM388.184 118.132C388.371 118.132 388.562 118.118 388.758 118.09C388.954 118.062 389.113 118.025 389.234 117.978V118.916C389.104 118.981 388.917 119.033 388.674 119.07C388.432 119.117 388.198 119.14 387.974 119.14C387.582 119.14 387.218 119.075 386.882 118.944C386.556 118.804 386.29 118.566 386.084 118.23C385.879 117.894 385.776 117.423 385.776 116.816V112.448H384.712V111.86L385.79 111.37L386.28 109.774H387.008V111.496H389.178V112.448H387.008V116.788C387.008 117.245 387.116 117.586 387.33 117.81C387.554 118.025 387.839 118.132 388.184 118.132Z" fill="black"/>
<rect x="22" y="134" width="16" height="16" rx="4" fill="white"/>
<rect x="22.5" y="134.5" width="15" height="15" rx="3.5" stroke="#1473E6"/>
<path d="M56.08 141.988C56.08 143.024 55.9027 143.929 55.548 144.704C55.2027 145.469 54.6847 146.067 53.994 146.496C53.3127 146.925 52.4727 147.14 51.474 147.14C50.438 147.14 49.5747 146.925 48.884 146.496C48.2027 146.067 47.694 145.465 47.358 144.69C47.022 143.915 46.854 143.01 46.854 141.974C46.854 140.957 47.022 140.065 47.358 139.3C47.694 138.525 48.2027 137.923 48.884 137.494C49.5747 137.065 50.4427 136.85 51.488 136.85C52.4867 136.85 53.3267 137.065 54.008 137.494C54.6893 137.914 55.2027 138.511 55.548 139.286C55.9027 140.051 56.08 140.952 56.08 141.988ZM48.184 141.988C48.184 143.248 48.45 144.242 48.982 144.97C49.514 145.689 50.3447 146.048 51.474 146.048C52.6033 146.048 53.4293 145.689 53.952 144.97C54.484 144.242 54.75 143.248 54.75 141.988C54.75 140.728 54.4887 139.743 53.966 139.034C53.4433 138.315 52.6173 137.956 51.488 137.956C50.3493 137.956 49.514 138.315 48.982 139.034C48.45 139.743 48.184 140.728 48.184 141.988ZM61.6975 139.356C62.6215 139.356 63.3635 139.678 63.9235 140.322C64.4928 140.966 64.7775 141.937 64.7775 143.234C64.7775 144.513 64.4928 145.483 63.9235 146.146C63.3635 146.809 62.6168 147.14 61.6835 147.14C61.1048 147.14 60.6242 147.033 60.2415 146.818C59.8682 146.603 59.5742 146.347 59.3595 146.048H59.2755C59.2848 146.207 59.2988 146.407 59.3175 146.65C59.3455 146.893 59.3595 147.103 59.3595 147.28V150.36H58.1275V139.496H59.1355L59.3035 140.518H59.3595C59.5835 140.191 59.8775 139.916 60.2415 139.692C60.6055 139.468 61.0908 139.356 61.6975 139.356ZM61.4735 140.392C60.7082 140.392 60.1668 140.607 59.8495 141.036C59.5322 141.465 59.3688 142.119 59.3595 142.996V143.234C59.3595 144.158 59.5088 144.872 59.8075 145.376C60.1155 145.871 60.6802 146.118 61.5015 146.118C61.9495 146.118 62.3228 145.997 62.6215 145.754C62.9202 145.502 63.1395 145.157 63.2795 144.718C63.4288 144.279 63.5035 143.78 63.5035 143.22C63.5035 142.361 63.3355 141.675 62.9995 141.162C62.6728 140.649 62.1642 140.392 61.4735 140.392ZM69.2468 146.132C69.4334 146.132 69.6248 146.118 69.8208 146.09C70.0168 146.062 70.1754 146.025 70.2968 145.978V146.916C70.1661 146.981 69.9794 147.033 69.7368 147.07C69.4941 147.117 69.2608 147.14 69.0368 147.14C68.6448 147.14 68.2808 147.075 67.9448 146.944C67.6181 146.804 67.3521 146.566 67.1468 146.23C66.9414 145.894 66.8388 145.423 66.8388 144.816V140.448H65.7748V139.86L66.8528 139.37L67.3428 137.774H68.0708V139.496H70.2408V140.448H68.0708V144.788C68.0708 145.245 68.1781 145.586 68.3928 145.81C68.6168 146.025 68.9014 146.132 69.2468 146.132ZM72.4294 136.682C72.616 136.682 72.7794 136.747 72.9194 136.878C73.0687 136.999 73.1434 137.195 73.1434 137.466C73.1434 137.737 73.0687 137.937 72.9194 138.068C72.7794 138.189 72.616 138.25 72.4294 138.25C72.224 138.25 72.0514 138.189 71.9114 138.068C71.7714 137.937 71.7014 137.737 71.7014 137.466C71.7014 137.195 71.7714 136.999 71.9114 136.878C72.0514 136.747 72.224 136.682 72.4294 136.682ZM73.0314 139.496V147H71.7994V139.496H73.0314ZM81.9327 143.234C81.9327 144.475 81.6154 145.437 80.9808 146.118C80.3554 146.799 79.5061 147.14 78.4328 147.14C77.7701 147.14 77.1774 146.991 76.6548 146.692C76.1414 146.384 75.7354 145.941 75.4368 145.362C75.1381 144.774 74.9888 144.065 74.9888 143.234C74.9888 141.993 75.2968 141.036 75.9128 140.364C76.5381 139.692 77.3921 139.356 78.4748 139.356C79.1468 139.356 79.7441 139.51 80.2668 139.818C80.7894 140.117 81.1954 140.555 81.4848 141.134C81.7834 141.703 81.9327 142.403 81.9327 143.234ZM76.2628 143.234C76.2628 144.121 76.4354 144.825 76.7808 145.348C77.1354 145.861 77.6954 146.118 78.4608 146.118C79.2168 146.118 79.7721 145.861 80.1268 145.348C80.4814 144.825 80.6588 144.121 80.6588 143.234C80.6588 142.347 80.4814 141.652 80.1268 141.148C79.7721 140.644 79.2121 140.392 78.4468 140.392C77.6814 140.392 77.1261 140.644 76.7808 141.148C76.4354 141.652 76.2628 142.347 76.2628 143.234ZM87.4973 139.356C88.3933 139.356 89.07 139.575 89.5273 140.014C89.9846 140.453 90.2133 141.153 90.2133 142.114V147H88.9953V142.198C88.9953 140.994 88.4353 140.392 87.3153 140.392C86.4846 140.392 85.9106 140.625 85.5933 141.092C85.276 141.559 85.1173 142.231 85.1173 143.108V147H83.8853V139.496H84.8793L85.0613 140.518H85.1313C85.374 140.126 85.71 139.837 86.1393 139.65C86.5686 139.454 87.0213 139.356 87.4973 139.356Z" fill="black"/>
<rect x="22" y="162" width="16" height="16" rx="4" fill="white"/>
<rect x="22.5" y="162.5" width="15" height="15" rx="3.5" stroke="#1473E6"/>
<path d="M56.08 169.988C56.08 171.024 55.9027 171.929 55.548 172.704C55.2027 173.469 54.6847 174.067 53.994 174.496C53.3127 174.925 52.4727 175.14 51.474 175.14C50.438 175.14 49.5747 174.925 48.884 174.496C48.2027 174.067 47.694 173.465 47.358 172.69C47.022 171.915 46.854 171.01 46.854 169.974C46.854 168.957 47.022 168.065 47.358 167.3C47.694 166.525 48.2027 165.923 48.884 165.494C49.5747 165.065 50.4427 164.85 51.488 164.85C52.4867 164.85 53.3267 165.065 54.008 165.494C54.6893 165.914 55.2027 166.511 55.548 167.286C55.9027 168.051 56.08 168.952 56.08 169.988ZM48.184 169.988C48.184 171.248 48.45 172.242 48.982 172.97C49.514 173.689 50.3447 174.048 51.474 174.048C52.6033 174.048 53.4293 173.689 53.952 172.97C54.484 172.242 54.75 171.248 54.75 169.988C54.75 168.728 54.4887 167.743 53.966 167.034C53.4433 166.315 52.6173 165.956 51.488 165.956C50.3493 165.956 49.514 166.315 48.982 167.034C48.45 167.743 48.184 168.728 48.184 169.988ZM61.6975 167.356C62.6215 167.356 63.3635 167.678 63.9235 168.322C64.4928 168.966 64.7775 169.937 64.7775 171.234C64.7775 172.513 64.4928 173.483 63.9235 174.146C63.3635 174.809 62.6168 175.14 61.6835 175.14C61.1048 175.14 60.6242 175.033 60.2415 174.818C59.8682 174.603 59.5742 174.347 59.3595 174.048H59.2755C59.2848 174.207 59.2988 174.407 59.3175 174.65C59.3455 174.893 59.3595 175.103 59.3595 175.28V178.36H58.1275V167.496H59.1355L59.3035 168.518H59.3595C59.5835 168.191 59.8775 167.916 60.2415 167.692C60.6055 167.468 61.0908 167.356 61.6975 167.356ZM61.4735 168.392C60.7082 168.392 60.1668 168.607 59.8495 169.036C59.5322 169.465 59.3688 170.119 59.3595 170.996V171.234C59.3595 172.158 59.5088 172.872 59.8075 173.376C60.1155 173.871 60.6802 174.118 61.5015 174.118C61.9495 174.118 62.3228 173.997 62.6215 173.754C62.9202 173.502 63.1395 173.157 63.2795 172.718C63.4288 172.279 63.5035 171.78 63.5035 171.22C63.5035 170.361 63.3355 169.675 62.9995 169.162C62.6728 168.649 62.1642 168.392 61.4735 168.392ZM69.2468 174.132C69.4334 174.132 69.6248 174.118 69.8208 174.09C70.0168 174.062 70.1754 174.025 70.2968 173.978V174.916C70.1661 174.981 69.9794 175.033 69.7368 175.07C69.4941 175.117 69.2608 175.14 69.0368 175.14C68.6448 175.14 68.2808 175.075 67.9448 174.944C67.6181 174.804 67.3521 174.566 67.1468 174.23C66.9414 173.894 66.8388 173.423 66.8388 172.816V168.448H65.7748V167.86L66.8528 167.37L67.3428 165.774H68.0708V167.496H70.2408V168.448H68.0708V172.788C68.0708 173.245 68.1781 173.586 68.3928 173.81C68.6168 174.025 68.9014 174.132 69.2468 174.132ZM72.4294 164.682C72.616 164.682 72.7794 164.747 72.9194 164.878C73.0687 164.999 73.1434 165.195 73.1434 165.466C73.1434 165.737 73.0687 165.937 72.9194 166.068C72.7794 166.189 72.616 166.25 72.4294 166.25C72.224 166.25 72.0514 166.189 71.9114 166.068C71.7714 165.937 71.7014 165.737 71.7014 165.466C71.7014 165.195 71.7714 164.999 71.9114 164.878C72.0514 164.747 72.224 164.682 72.4294 164.682ZM73.0314 167.496V175H71.7994V167.496H73.0314ZM81.9327 171.234C81.9327 172.475 81.6154 173.437 80.9808 174.118C80.3554 174.799 79.5061 175.14 78.4328 175.14C77.7701 175.14 77.1774 174.991 76.6548 174.692C76.1414 174.384 75.7354 173.941 75.4368 173.362C75.1381 172.774 74.9888 172.065 74.9888 171.234C74.9888 169.993 75.2968 169.036 75.9128 168.364C76.5381 167.692 77.3921 167.356 78.4748 167.356C79.1468 167.356 79.7441 167.51 80.2668 167.818C80.7894 168.117 81.1954 168.555 81.4848 169.134C81.7834 169.703 81.9327 170.403 81.9327 171.234ZM76.2628 171.234C76.2628 172.121 76.4354 172.825 76.7808 173.348C77.1354 173.861 77.6954 174.118 78.4608 174.118C79.2168 174.118 79.7721 173.861 80.1268 173.348C80.4814 172.825 80.6588 172.121 80.6588 171.234C80.6588 170.347 80.4814 169.652 80.1268 169.148C79.7721 168.644 79.2121 168.392 78.4468 168.392C77.6814 168.392 77.1261 168.644 76.7808 169.148C76.4354 169.652 76.2628 170.347 76.2628 171.234ZM87.4973 167.356C88.3933 167.356 89.07 167.575 89.5273 168.014C89.9846 168.453 90.2133 169.153 90.2133 170.114V175H88.9953V170.198C88.9953 168.994 88.4353 168.392 87.3153 168.392C86.4846 168.392 85.9106 168.625 85.5933 169.092C85.276 169.559 85.1173 170.231 85.1173 171.108V175H83.8853V167.496H84.8793L85.0613 168.518H85.1313C85.374 168.126 85.71 167.837 86.1393 167.65C86.5686 167.454 87.0213 167.356 87.4973 167.356Z" fill="black"/>
</svg>
