<svg width="180" height="128" viewBox="0 0 180 128" fill="none" xmlns="http://www.w3.org/2000/svg">
<g clip-path="url(#clip0_8063_314243)">
<rect width="180" height="128" fill="white"/>
<path d="M53.024 10.708C53.024 11.468 52.748 12.06 52.196 12.484C51.644 12.908 50.9 13.12 49.964 13.12C49.484 13.12 49.04 13.084 48.632 13.012C48.224 12.94 47.884 12.84 47.612 12.712V11.68C47.9 11.808 48.256 11.924 48.68 12.028C49.112 12.132 49.556 12.184 50.012 12.184C50.644 12.184 51.124 12.06 51.452 11.812C51.78 11.564 51.944 11.228 51.944 10.804C51.944 10.524 51.884 10.288 51.764 10.096C51.644 9.904 51.436 9.728 51.14 9.568C50.844 9.408 50.44 9.232 49.928 9.04C49.192 8.776 48.64 8.452 48.272 8.068C47.904 7.684 47.72 7.16 47.72 6.496C47.72 6.048 47.836 5.66 48.068 5.332C48.3 5.004 48.62 4.752 49.028 4.576C49.436 4.4 49.912 4.312 50.456 4.312C50.92 4.312 51.348 4.356 51.74 4.444C52.132 4.532 52.492 4.648 52.82 4.792L52.484 5.716C52.188 5.588 51.864 5.48 51.512 5.392C51.16 5.304 50.8 5.26 50.432 5.26C49.896 5.26 49.492 5.376 49.22 5.608C48.948 5.832 48.812 6.132 48.812 6.508C48.812 6.796 48.872 7.036 48.992 7.228C49.112 7.42 49.308 7.596 49.58 7.756C49.852 7.908 50.22 8.068 50.684 8.236C51.188 8.42 51.612 8.62 51.956 8.836C52.308 9.044 52.572 9.296 52.748 9.592C52.932 9.888 53.024 10.26 53.024 10.708ZM57.0899 6.448C57.6339 6.448 58.1059 6.568 58.5059 6.808C58.9059 7.048 59.2099 7.388 59.4179 7.828C59.6339 8.26 59.7419 8.768 59.7419 9.352V9.988H55.3379C55.3539 10.716 55.5379 11.272 55.8899 11.656C56.2499 12.032 56.7499 12.22 57.3899 12.22C57.7979 12.22 58.1579 12.184 58.4699 12.112C58.7899 12.032 59.1179 11.92 59.4539 11.776V12.7C59.1259 12.844 58.8019 12.948 58.4819 13.012C58.1619 13.084 57.7819 13.12 57.3419 13.12C56.7259 13.12 56.1859 12.996 55.7219 12.748C55.2579 12.5 54.8939 12.132 54.6299 11.644C54.3739 11.156 54.2459 10.552 54.2459 9.832C54.2459 9.128 54.3619 8.524 54.5939 8.02C54.8339 7.516 55.1659 7.128 55.5899 6.856C56.0219 6.584 56.5219 6.448 57.0899 6.448ZM57.0779 7.312C56.5739 7.312 56.1739 7.476 55.8779 7.804C55.5899 8.124 55.4179 8.572 55.3619 9.148H58.6379C58.6299 8.604 58.5019 8.164 58.2539 7.828C58.0059 7.484 57.6139 7.312 57.0779 7.312ZM62.4354 13H61.3794V3.88H62.4354V13ZM66.9571 6.448C67.5011 6.448 67.9731 6.568 68.3731 6.808C68.7731 7.048 69.0771 7.388 69.2851 7.828C69.5011 8.26 69.6091 8.768 69.6091 9.352V9.988H65.2051C65.2211 10.716 65.4051 11.272 65.7571 11.656C66.1171 12.032 66.6171 12.22 67.2571 12.22C67.6651 12.22 68.0251 12.184 68.3371 12.112C68.6571 12.032 68.9851 11.92 69.3211 11.776V12.7C68.9931 12.844 68.6691 12.948 68.3491 13.012C68.0291 13.084 67.6491 13.12 67.2091 13.12C66.5931 13.12 66.0531 12.996 65.5891 12.748C65.1251 12.5 64.7611 12.132 64.4971 11.644C64.2411 11.156 64.1131 10.552 64.1131 9.832C64.1131 9.128 64.2291 8.524 64.4611 8.02C64.7011 7.516 65.0331 7.128 65.4571 6.856C65.8891 6.584 66.3891 6.448 66.9571 6.448ZM66.9451 7.312C66.4411 7.312 66.0411 7.476 65.7451 7.804C65.4571 8.124 65.2851 8.572 65.2291 9.148H68.5051C68.4971 8.604 68.3691 8.164 68.1211 7.828C67.8731 7.484 67.4811 7.312 66.9451 7.312ZM73.8266 13.12C73.2506 13.12 72.7426 13.004 72.3026 12.772C71.8626 12.54 71.5146 12.18 71.2586 11.692C71.0106 11.204 70.8866 10.58 70.8866 9.82C70.8866 9.028 71.0146 8.384 71.2706 7.888C71.5346 7.392 71.8946 7.028 72.3506 6.796C72.8066 6.564 73.3226 6.448 73.8986 6.448C74.2186 6.448 74.5306 6.484 74.8346 6.556C75.1466 6.62 75.3986 6.7 75.5906 6.796L75.2666 7.672C75.0746 7.6 74.8506 7.532 74.5946 7.468C74.3386 7.404 74.0986 7.372 73.8746 7.372C72.6106 7.372 71.9786 8.184 71.9786 9.808C71.9786 10.584 72.1306 11.18 72.4346 11.596C72.7466 12.004 73.2066 12.208 73.8146 12.208C74.1586 12.208 74.4666 12.172 74.7386 12.1C75.0106 12.028 75.2586 11.94 75.4826 11.836V12.772C75.2666 12.884 75.0266 12.968 74.7626 13.024C74.5066 13.088 74.1946 13.12 73.8266 13.12ZM79.1602 12.256C79.3202 12.256 79.4842 12.244 79.6522 12.22C79.8202 12.196 79.9562 12.164 80.0602 12.124V12.928C79.9482 12.984 79.7882 13.028 79.5802 13.06C79.3722 13.1 79.1722 13.12 78.9802 13.12C78.6442 13.12 78.3322 13.064 78.0442 12.952C77.7642 12.832 77.5362 12.628 77.3602 12.34C77.1842 12.052 77.0962 11.648 77.0962 11.128V7.384H76.1842V6.88L77.1082 6.46L77.5282 5.092H78.1522V6.568H80.0122V7.384H78.1522V11.104C78.1522 11.496 78.2442 11.788 78.4282 11.98C78.6202 12.164 78.8642 12.256 79.1602 12.256ZM87.3213 13H86.2413V5.38H83.5653V4.432H89.9853V5.38H87.3213V13ZM95.8815 9.772C95.8815 10.836 95.6095 11.66 95.0655 12.244C94.5295 12.828 93.8015 13.12 92.8815 13.12C92.3135 13.12 91.8055 12.992 91.3575 12.736C90.9175 12.472 90.5695 12.092 90.3135 11.596C90.0575 11.092 89.9295 10.484 89.9295 9.772C89.9295 8.708 90.1935 7.888 90.7215 7.312C91.2575 6.736 91.9895 6.448 92.9175 6.448C93.4935 6.448 94.0055 6.58 94.4535 6.844C94.9015 7.1 95.2495 7.476 95.4975 7.972C95.7535 8.46 95.8815 9.06 95.8815 9.772ZM91.0215 9.772C91.0215 10.532 91.1695 11.136 91.4655 11.584C91.7695 12.024 92.2495 12.244 92.9055 12.244C93.5535 12.244 94.0295 12.024 94.3335 11.584C94.6375 11.136 94.7895 10.532 94.7895 9.772C94.7895 9.012 94.6375 8.416 94.3335 7.984C94.0295 7.552 93.5495 7.336 92.8935 7.336C92.2375 7.336 91.7615 7.552 91.4655 7.984C91.1695 8.416 91.0215 9.012 91.0215 9.772ZM103.147 9.772C103.147 10.836 102.875 11.66 102.331 12.244C101.795 12.828 101.067 13.12 100.147 13.12C99.5792 13.12 99.0712 12.992 98.6232 12.736C98.1832 12.472 97.8352 12.092 97.5792 11.596C97.3232 11.092 97.1952 10.484 97.1952 9.772C97.1952 8.708 97.4592 7.888 97.9872 7.312C98.5232 6.736 99.2552 6.448 100.183 6.448C100.759 6.448 101.271 6.58 101.719 6.844C102.167 7.1 102.515 7.476 102.763 7.972C103.019 8.46 103.147 9.06 103.147 9.772ZM98.2872 9.772C98.2872 10.532 98.4352 11.136 98.7312 11.584C99.0352 12.024 99.5152 12.244 100.171 12.244C100.819 12.244 101.295 12.024 101.599 11.584C101.903 11.136 102.055 10.532 102.055 9.772C102.055 9.012 101.903 8.416 101.599 7.984C101.295 7.552 100.815 7.336 100.159 7.336C99.5032 7.336 99.0272 7.552 98.7312 7.984C98.4352 8.416 98.2872 9.012 98.2872 9.772ZM105.877 13H104.821V3.88H105.877V13ZM112.103 11.224C112.103 11.848 111.871 12.32 111.407 12.64C110.943 12.96 110.319 13.12 109.535 13.12C109.087 13.12 108.699 13.084 108.371 13.012C108.051 12.94 107.767 12.84 107.519 12.712V11.752C107.775 11.88 108.083 12 108.443 12.112C108.811 12.216 109.183 12.268 109.559 12.268C110.095 12.268 110.483 12.184 110.723 12.016C110.963 11.84 111.083 11.608 111.083 11.32C111.083 11.16 111.039 11.016 110.951 10.888C110.863 10.76 110.703 10.632 110.471 10.504C110.247 10.376 109.923 10.232 109.499 10.072C109.083 9.912 108.727 9.752 108.431 9.592C108.135 9.432 107.907 9.24 107.747 9.016C107.587 8.792 107.507 8.504 107.507 8.152C107.507 7.608 107.727 7.188 108.167 6.892C108.615 6.596 109.199 6.448 109.919 6.448C110.311 6.448 110.675 6.488 111.011 6.568C111.355 6.648 111.675 6.752 111.971 6.88L111.611 7.72C111.339 7.608 111.055 7.512 110.759 7.432C110.463 7.352 110.159 7.312 109.847 7.312C109.415 7.312 109.083 7.384 108.851 7.528C108.627 7.664 108.515 7.852 108.515 8.092C108.515 8.276 108.567 8.428 108.671 8.548C108.775 8.668 108.947 8.788 109.187 8.908C109.435 9.028 109.763 9.164 110.171 9.316C110.579 9.468 110.927 9.624 111.215 9.784C111.503 9.944 111.723 10.14 111.875 10.372C112.027 10.596 112.103 10.88 112.103 11.224Z" fill="#323232"/>
<rect x="47" y="26" width="16" height="16" rx="4" fill="white"/>
<rect x="47.5" y="26.5" width="15" height="15" rx="3.5" stroke="#1B77AF"/>
<path d="M76.642 29.97C75.5687 29.97 74.724 30.3293 74.108 31.048C73.492 31.7667 73.184 32.7513 73.184 34.002C73.184 35.2433 73.4687 36.228 74.038 36.956C74.6167 37.6747 75.48 38.034 76.628 38.034C77.0573 38.034 77.468 37.9967 77.86 37.922C78.252 37.8473 78.6393 37.754 79.022 37.642V38.734C78.6487 38.874 78.2613 38.9767 77.86 39.042C77.468 39.1073 76.9967 39.14 76.446 39.14C75.4287 39.14 74.5793 38.93 73.898 38.51C73.2167 38.09 72.7033 37.4927 72.358 36.718C72.022 35.9433 71.854 35.0333 71.854 33.988C71.854 32.98 72.036 32.0933 72.4 31.328C72.7733 30.5533 73.3193 29.9513 74.038 29.522C74.7567 29.0833 75.6293 28.864 76.656 28.864C77.7107 28.864 78.63 29.06 79.414 29.452L78.91 30.516C78.602 30.376 78.2567 30.25 77.874 30.138C77.5007 30.026 77.09 29.97 76.642 29.97ZM83.8777 31.37C84.7924 31.37 85.469 31.5707 85.9077 31.972C86.3464 32.3733 86.5657 33.0127 86.5657 33.89V39H85.6697L85.4317 37.936H85.3757C85.049 38.3467 84.7037 38.65 84.3397 38.846C83.9757 39.042 83.481 39.14 82.8557 39.14C82.1744 39.14 81.6097 38.9627 81.1617 38.608C80.7137 38.244 80.4897 37.6793 80.4897 36.914C80.4897 36.1673 80.7837 35.5933 81.3717 35.192C81.9597 34.7813 82.865 34.5573 84.0877 34.52L85.3617 34.478V34.03C85.3617 33.4047 85.2264 32.9707 84.9557 32.728C84.685 32.4853 84.3024 32.364 83.8077 32.364C83.4157 32.364 83.0424 32.4247 82.6877 32.546C82.333 32.658 82.0017 32.7887 81.6937 32.938L81.3157 32.014C81.6424 31.8367 82.0297 31.6873 82.4777 31.566C82.9257 31.4353 83.3924 31.37 83.8777 31.37ZM85.3477 35.332L84.2417 35.374C83.3084 35.4113 82.6597 35.5607 82.2957 35.822C81.941 36.0833 81.7637 36.452 81.7637 36.928C81.7637 37.348 81.8897 37.656 82.1417 37.852C82.403 38.048 82.7344 38.146 83.1357 38.146C83.761 38.146 84.2837 37.9733 84.7037 37.628C85.133 37.2733 85.3477 36.732 85.3477 36.004V35.332ZM90.1154 39H88.8834V28.36H90.1154V39ZM95.5027 39.14C94.8307 39.14 94.2381 39.0047 93.7247 38.734C93.2114 38.4633 92.8054 38.0433 92.5067 37.474C92.2174 36.9047 92.0727 36.1767 92.0727 35.29C92.0727 34.366 92.2221 33.6147 92.5207 33.036C92.8287 32.4573 93.2487 32.0327 93.7807 31.762C94.3127 31.4913 94.9147 31.356 95.5867 31.356C95.9601 31.356 96.3241 31.398 96.6787 31.482C97.0427 31.5567 97.3367 31.65 97.5607 31.762L97.1827 32.784C96.9587 32.7 96.6974 32.6207 96.3987 32.546C96.1001 32.4713 95.8201 32.434 95.5587 32.434C94.0841 32.434 93.3467 33.3813 93.3467 35.276C93.3467 36.1813 93.5241 36.8767 93.8787 37.362C94.2427 37.838 94.7794 38.076 95.4887 38.076C95.8901 38.076 96.2494 38.034 96.5667 37.95C96.8841 37.866 97.1734 37.7633 97.4347 37.642V38.734C97.1827 38.8647 96.9027 38.9627 96.5947 39.028C96.2961 39.1027 95.9321 39.14 95.5027 39.14ZM105.491 31.496V39H104.483L104.301 38.006H104.245C104.003 38.398 103.667 38.6873 103.237 38.874C102.808 39.0513 102.351 39.14 101.865 39.14C100.96 39.14 100.279 38.9253 99.8213 38.496C99.364 38.0573 99.1353 37.362 99.1353 36.41V31.496H100.381V36.326C100.381 37.5207 100.937 38.118 102.047 38.118C102.878 38.118 103.452 37.8847 103.769 37.418C104.096 36.9513 104.259 36.2793 104.259 35.402V31.496H105.491ZM109.106 39H107.874V28.36H109.106V39ZM114.325 31.37C115.24 31.37 115.916 31.5707 116.355 31.972C116.794 32.3733 117.013 33.0127 117.013 33.89V39H116.117L115.879 37.936H115.823C115.496 38.3467 115.151 38.65 114.787 38.846C114.423 39.042 113.928 39.14 113.303 39.14C112.622 39.14 112.057 38.9627 111.609 38.608C111.161 38.244 110.937 37.6793 110.937 36.914C110.937 36.1673 111.231 35.5933 111.819 35.192C112.407 34.7813 113.312 34.5573 114.535 34.52L115.809 34.478V34.03C115.809 33.4047 115.674 32.9707 115.403 32.728C115.132 32.4853 114.75 32.364 114.255 32.364C113.863 32.364 113.49 32.4247 113.135 32.546C112.78 32.658 112.449 32.7887 112.141 32.938L111.763 32.014C112.09 31.8367 112.477 31.6873 112.925 31.566C113.373 31.4353 113.84 31.37 114.325 31.37ZM115.795 35.332L114.689 35.374C113.756 35.4113 113.107 35.5607 112.743 35.822C112.388 36.0833 112.211 36.452 112.211 36.928C112.211 37.348 112.337 37.656 112.589 37.852C112.85 38.048 113.182 38.146 113.583 38.146C114.208 38.146 114.731 37.9733 115.151 37.628C115.58 37.2733 115.795 36.732 115.795 36.004V35.332ZM121.837 38.132C122.023 38.132 122.215 38.118 122.411 38.09C122.607 38.062 122.765 38.0247 122.887 37.978V38.916C122.756 38.9813 122.569 39.0327 122.327 39.07C122.084 39.1167 121.851 39.14 121.627 39.14C121.235 39.14 120.871 39.0747 120.535 38.944C120.208 38.804 119.942 38.566 119.737 38.23C119.531 37.894 119.429 37.4227 119.429 36.816V32.448H118.365V31.86L119.443 31.37L119.933 29.774H120.661V31.496H122.831V32.448H120.661V36.788C120.661 37.2453 120.768 37.586 120.983 37.81C121.207 38.0247 121.491 38.132 121.837 38.132ZM130.913 35.234C130.913 36.4753 130.596 37.4367 129.961 38.118C129.336 38.7993 128.487 39.14 127.413 39.14C126.751 39.14 126.158 38.9907 125.635 38.692C125.122 38.384 124.716 37.9407 124.417 37.362C124.119 36.774 123.969 36.0647 123.969 35.234C123.969 33.9927 124.277 33.036 124.893 32.364C125.519 31.692 126.373 31.356 127.455 31.356C128.127 31.356 128.725 31.51 129.247 31.818C129.77 32.1167 130.176 32.5553 130.465 33.134C130.764 33.7033 130.913 34.4033 130.913 35.234ZM125.243 35.234C125.243 36.1207 125.416 36.8253 125.761 37.348C126.116 37.8613 126.676 38.118 127.441 38.118C128.197 38.118 128.753 37.8613 129.107 37.348C129.462 36.8253 129.639 36.1207 129.639 35.234C129.639 34.3473 129.462 33.652 129.107 33.148C128.753 32.644 128.193 32.392 127.427 32.392C126.662 32.392 126.107 32.644 125.761 33.148C125.416 33.652 125.243 34.3473 125.243 35.234ZM136.366 31.356C136.506 31.356 136.655 31.3653 136.814 31.384C136.972 31.3933 137.117 31.412 137.248 31.44L137.094 32.574C136.972 32.546 136.837 32.5227 136.688 32.504C136.538 32.4853 136.403 32.476 136.282 32.476C135.899 32.476 135.54 32.5833 135.204 32.798C134.868 33.0033 134.597 33.2973 134.392 33.68C134.196 34.0533 134.098 34.492 134.098 34.996V39H132.866V31.496H133.874L134.014 32.868H134.07C134.303 32.4573 134.611 32.1027 134.994 31.804C135.386 31.5053 135.843 31.356 136.366 31.356Z" fill="black"/>
<rect x="47" y="54" width="16" height="16" rx="4" fill="white"/>
<rect x="47.5" y="54.5" width="15" height="15" rx="3.5" stroke="#1B77AF"/>
<path d="M78.028 64.326C78.028 65.2127 77.706 65.9033 77.062 66.398C76.418 66.8927 75.55 67.14 74.458 67.14C73.898 67.14 73.38 67.098 72.904 67.014C72.428 66.93 72.0313 66.8133 71.714 66.664V65.46C72.05 65.6093 72.4653 65.7447 72.96 65.866C73.464 65.9873 73.982 66.048 74.514 66.048C75.2513 66.048 75.8113 65.9033 76.194 65.614C76.5767 65.3247 76.768 64.9327 76.768 64.438C76.768 64.1113 76.698 63.836 76.558 63.612C76.418 63.388 76.1753 63.1827 75.83 62.996C75.4847 62.8093 75.0133 62.604 74.416 62.38C73.5573 62.072 72.9133 61.694 72.484 61.246C72.0547 60.798 71.84 60.1867 71.84 59.412C71.84 58.8893 71.9753 58.4367 72.246 58.054C72.5167 57.6713 72.89 57.3773 73.366 57.172C73.842 56.9667 74.3973 56.864 75.032 56.864C75.5733 56.864 76.0727 56.9153 76.53 57.018C76.9873 57.1207 77.4073 57.256 77.79 57.424L77.398 58.502C77.0527 58.3527 76.6747 58.2267 76.264 58.124C75.8533 58.0213 75.4333 57.97 75.004 57.97C74.3787 57.97 73.9073 58.1053 73.59 58.376C73.2727 58.6373 73.114 58.9873 73.114 59.426C73.114 59.762 73.184 60.042 73.324 60.266C73.464 60.49 73.6927 60.6953 74.01 60.882C74.3273 61.0593 74.7567 61.246 75.298 61.442C75.886 61.6567 76.3807 61.89 76.782 62.142C77.1927 62.3847 77.5007 62.6787 77.706 63.024C77.9207 63.3693 78.028 63.8033 78.028 64.326ZM82.7156 59.37C83.6303 59.37 84.3069 59.5707 84.7456 59.972C85.1843 60.3733 85.4036 61.0127 85.4036 61.89V67H84.5076L84.2696 65.936H84.2136C83.8869 66.3467 83.5416 66.65 83.1776 66.846C82.8136 67.042 82.3189 67.14 81.6936 67.14C81.0123 67.14 80.4476 66.9627 79.9996 66.608C79.5516 66.244 79.3276 65.6793 79.3276 64.914C79.3276 64.1673 79.6216 63.5933 80.2096 63.192C80.7976 62.7813 81.7029 62.5573 82.9256 62.52L84.1996 62.478V62.03C84.1996 61.4047 84.0643 60.9707 83.7936 60.728C83.5229 60.4853 83.1403 60.364 82.6456 60.364C82.2536 60.364 81.8803 60.4247 81.5256 60.546C81.1709 60.658 80.8396 60.7887 80.5316 60.938L80.1536 60.014C80.4803 59.8367 80.8676 59.6873 81.3156 59.566C81.7636 59.4353 82.2303 59.37 82.7156 59.37ZM84.1856 63.332L83.0796 63.374C82.1463 63.4113 81.4976 63.5607 81.1336 63.822C80.7789 64.0833 80.6016 64.452 80.6016 64.928C80.6016 65.348 80.7276 65.656 80.9796 65.852C81.2409 66.048 81.5723 66.146 81.9736 66.146C82.5989 66.146 83.1216 65.9733 83.5416 65.628C83.9709 65.2733 84.1856 64.732 84.1856 64.004V63.332ZM88.9533 67H87.7213V56.36H88.9533V67ZM94.2286 59.356C94.8633 59.356 95.414 59.496 95.8806 59.776C96.3473 60.056 96.702 60.4527 96.9446 60.966C97.1966 61.47 97.3226 62.0627 97.3226 62.744V63.486H92.1846C92.2033 64.3353 92.418 64.984 92.8286 65.432C93.2486 65.8707 93.832 66.09 94.5786 66.09C95.0546 66.09 95.4746 66.048 95.8386 65.964C96.212 65.8707 96.5946 65.74 96.9866 65.572V66.65C96.604 66.818 96.226 66.9393 95.8526 67.014C95.4793 67.098 95.036 67.14 94.5226 67.14C93.804 67.14 93.174 66.9953 92.6326 66.706C92.0913 66.4167 91.6666 65.9873 91.3586 65.418C91.06 64.8487 90.9106 64.144 90.9106 63.304C90.9106 62.4827 91.046 61.778 91.3166 61.19C91.5966 60.602 91.984 60.1493 92.4786 59.832C92.9826 59.5147 93.566 59.356 94.2286 59.356ZM94.2146 60.364C93.6266 60.364 93.16 60.5553 92.8146 60.938C92.4786 61.3113 92.278 61.834 92.2126 62.506H96.0346C96.0253 61.8713 95.876 61.358 95.5866 60.966C95.2973 60.5647 94.84 60.364 94.2146 60.364ZM104.119 64.928C104.119 65.656 103.848 66.2067 103.307 66.58C102.766 66.9533 102.038 67.14 101.123 67.14C100.6 67.14 100.148 67.098 99.765 67.014C99.3916 66.93 99.0603 66.8133 98.771 66.664V65.544C99.0696 65.6933 99.429 65.8333 99.849 65.964C100.278 66.0853 100.712 66.146 101.151 66.146C101.776 66.146 102.229 66.048 102.509 65.852C102.789 65.6467 102.929 65.376 102.929 65.04C102.929 64.8533 102.878 64.6853 102.775 64.536C102.672 64.3867 102.486 64.2373 102.215 64.088C101.954 63.9387 101.576 63.7707 101.081 63.584C100.596 63.3973 100.18 63.2107 99.835 63.024C99.4896 62.8373 99.2236 62.6133 99.037 62.352C98.8503 62.0907 98.757 61.7547 98.757 61.344C98.757 60.7093 99.0136 60.2193 99.527 59.874C100.05 59.5287 100.731 59.356 101.571 59.356C102.028 59.356 102.453 59.4027 102.845 59.496C103.246 59.5893 103.62 59.7107 103.965 59.86L103.545 60.84C103.228 60.7093 102.896 60.5973 102.551 60.504C102.206 60.4107 101.851 60.364 101.487 60.364C100.983 60.364 100.596 60.448 100.325 60.616C100.064 60.7747 99.933 60.994 99.933 61.274C99.933 61.4887 99.9936 61.666 100.115 61.806C100.236 61.946 100.437 62.086 100.717 62.226C101.006 62.366 101.389 62.5247 101.865 62.702C102.341 62.8793 102.747 63.0613 103.083 63.248C103.419 63.4347 103.676 63.6633 103.853 63.934C104.03 64.1953 104.119 64.5267 104.119 64.928Z" fill="black"/>
<rect x="47" y="82" width="16" height="16" rx="4" fill="white"/>
<rect x="47.5" y="82.5" width="15" height="15" rx="3.5" stroke="#1B77AF"/>
<path d="M76.642 85.97C75.5687 85.97 74.724 86.3293 74.108 87.048C73.492 87.7667 73.184 88.7513 73.184 90.002C73.184 91.2433 73.4687 92.228 74.038 92.956C74.6167 93.6747 75.48 94.034 76.628 94.034C77.0573 94.034 77.468 93.9967 77.86 93.922C78.252 93.8473 78.6393 93.754 79.022 93.642V94.734C78.6487 94.874 78.2613 94.9767 77.86 95.042C77.468 95.1073 76.9967 95.14 76.446 95.14C75.4287 95.14 74.5793 94.93 73.898 94.51C73.2167 94.09 72.7033 93.4927 72.358 92.718C72.022 91.9433 71.854 91.0333 71.854 89.988C71.854 88.98 72.036 88.0933 72.4 87.328C72.7733 86.5533 73.3193 85.9513 74.038 85.522C74.7567 85.0833 75.6293 84.864 76.656 84.864C77.7107 84.864 78.63 85.06 79.414 85.452L78.91 86.516C78.602 86.376 78.2567 86.25 77.874 86.138C77.5007 86.026 77.09 85.97 76.642 85.97ZM83.8777 87.37C84.7924 87.37 85.469 87.5707 85.9077 87.972C86.3464 88.3733 86.5657 89.0127 86.5657 89.89V95H85.6697L85.4317 93.936H85.3757C85.049 94.3467 84.7037 94.65 84.3397 94.846C83.9757 95.042 83.481 95.14 82.8557 95.14C82.1744 95.14 81.6097 94.9627 81.1617 94.608C80.7137 94.244 80.4897 93.6793 80.4897 92.914C80.4897 92.1673 80.7837 91.5933 81.3717 91.192C81.9597 90.7813 82.865 90.5573 84.0877 90.52L85.3617 90.478V90.03C85.3617 89.4047 85.2264 88.9707 84.9557 88.728C84.685 88.4853 84.3024 88.364 83.8077 88.364C83.4157 88.364 83.0424 88.4247 82.6877 88.546C82.333 88.658 82.0017 88.7887 81.6937 88.938L81.3157 88.014C81.6424 87.8367 82.0297 87.6873 82.4777 87.566C82.9257 87.4353 83.3924 87.37 83.8777 87.37ZM85.3477 91.332L84.2417 91.374C83.3084 91.4113 82.6597 91.5607 82.2957 91.822C81.941 92.0833 81.7637 92.452 81.7637 92.928C81.7637 93.348 81.8897 93.656 82.1417 93.852C82.403 94.048 82.7344 94.146 83.1357 94.146C83.761 94.146 84.2837 93.9733 84.7037 93.628C85.133 93.2733 85.3477 92.732 85.3477 92.004V91.332ZM90.1154 95H88.8834V84.36H90.1154V95ZM93.7247 95H92.4927V84.36H93.7247V95ZM104.191 85.97C103.117 85.97 102.273 86.3293 101.657 87.048C101.041 87.7667 100.733 88.7513 100.733 90.002C100.733 91.2433 101.017 92.228 101.587 92.956C102.165 93.6747 103.029 94.034 104.177 94.034C104.606 94.034 105.017 93.9967 105.409 93.922C105.801 93.8473 106.188 93.754 106.571 93.642V94.734C106.197 94.874 105.81 94.9767 105.409 95.042C105.017 95.1073 104.545 95.14 103.995 95.14C102.977 95.14 102.128 94.93 101.447 94.51C100.765 94.09 100.252 93.4927 99.9068 92.718C99.5708 91.9433 99.4028 91.0333 99.4028 89.988C99.4028 88.98 99.5848 88.0933 99.9488 87.328C100.322 86.5533 100.868 85.9513 101.587 85.522C102.305 85.0833 103.178 84.864 104.205 84.864C105.259 84.864 106.179 85.06 106.963 85.452L106.459 86.516C106.151 86.376 105.805 86.25 105.423 86.138C105.049 86.026 104.639 85.97 104.191 85.97ZM111.483 87.356C112.117 87.356 112.668 87.496 113.135 87.776C113.601 88.056 113.956 88.4527 114.199 88.966C114.451 89.47 114.577 90.0627 114.577 90.744V91.486H109.439C109.457 92.3353 109.672 92.984 110.083 93.432C110.503 93.8707 111.086 94.09 111.833 94.09C112.309 94.09 112.729 94.048 113.093 93.964C113.466 93.8707 113.849 93.74 114.241 93.572V94.65C113.858 94.818 113.48 94.9393 113.107 95.014C112.733 95.098 112.29 95.14 111.777 95.14C111.058 95.14 110.428 94.9953 109.887 94.706C109.345 94.4167 108.921 93.9873 108.613 93.418C108.314 92.8487 108.165 92.144 108.165 91.304C108.165 90.4827 108.3 89.778 108.571 89.19C108.851 88.602 109.238 88.1493 109.733 87.832C110.237 87.5147 110.82 87.356 111.483 87.356ZM111.469 88.364C110.881 88.364 110.414 88.5553 110.069 88.938C109.733 89.3113 109.532 89.834 109.467 90.506H113.289C113.279 89.8713 113.13 89.358 112.841 88.966C112.551 88.5647 112.094 88.364 111.469 88.364ZM120.099 87.356C120.995 87.356 121.672 87.5753 122.129 88.014C122.586 88.4527 122.815 89.1527 122.815 90.114V95H121.597V90.198C121.597 88.994 121.037 88.392 119.917 88.392C119.086 88.392 118.512 88.6253 118.195 89.092C117.878 89.5587 117.719 90.2307 117.719 91.108V95H116.487V87.496H117.481L117.663 88.518H117.733C117.976 88.126 118.312 87.8367 118.741 87.65C119.17 87.454 119.623 87.356 120.099 87.356ZM127.647 94.132C127.834 94.132 128.025 94.118 128.221 94.09C128.417 94.062 128.576 94.0247 128.697 93.978V94.916C128.567 94.9813 128.38 95.0327 128.137 95.07C127.895 95.1167 127.661 95.14 127.437 95.14C127.045 95.14 126.681 95.0747 126.345 94.944C126.019 94.804 125.753 94.566 125.547 94.23C125.342 93.894 125.239 93.4227 125.239 92.816V88.448H124.175V87.86L125.253 87.37L125.743 85.774H126.471V87.496H128.641V88.448H126.471V92.788C126.471 93.2453 126.579 93.586 126.793 93.81C127.017 94.0247 127.302 94.132 127.647 94.132ZM133.098 87.356C133.732 87.356 134.283 87.496 134.75 87.776C135.216 88.056 135.571 88.4527 135.814 88.966C136.066 89.47 136.192 90.0627 136.192 90.744V91.486H131.054C131.072 92.3353 131.287 92.984 131.698 93.432C132.118 93.8707 132.701 94.09 133.448 94.09C133.924 94.09 134.344 94.048 134.708 93.964C135.081 93.8707 135.464 93.74 135.856 93.572V94.65C135.473 94.818 135.095 94.9393 134.722 95.014C134.348 95.098 133.905 95.14 133.392 95.14C132.673 95.14 132.043 94.9953 131.502 94.706C130.96 94.4167 130.536 93.9873 130.228 93.418C129.929 92.8487 129.78 92.144 129.78 91.304C129.78 90.4827 129.915 89.778 130.186 89.19C130.466 88.602 130.853 88.1493 131.348 87.832C131.852 87.5147 132.435 87.356 133.098 87.356ZM133.084 88.364C132.496 88.364 132.029 88.5553 131.684 88.938C131.348 89.3113 131.147 89.834 131.082 90.506H134.904C134.894 89.8713 134.745 89.358 134.456 88.966C134.166 88.5647 133.709 88.364 133.084 88.364ZM141.602 87.356C141.742 87.356 141.891 87.3653 142.05 87.384C142.209 87.3933 142.353 87.412 142.484 87.44L142.33 88.574C142.209 88.546 142.073 88.5227 141.924 88.504C141.775 88.4853 141.639 88.476 141.518 88.476C141.135 88.476 140.776 88.5833 140.44 88.798C140.104 89.0033 139.833 89.2973 139.628 89.68C139.432 90.0533 139.334 90.492 139.334 90.996V95H138.102V87.496H139.11L139.25 88.868H139.306C139.539 88.4573 139.847 88.1027 140.23 87.804C140.622 87.5053 141.079 87.356 141.602 87.356Z" fill="black"/>
<rect x="47" y="110" width="16" height="16" rx="4" fill="white"/>
<rect x="47.5" y="110.5" width="15" height="15" rx="3.5" stroke="#1B77AF"/>
<path d="M79.4 113.004L75.83 123H74.57L71 113.004H72.316L74.57 119.416C74.7193 119.827 74.8407 120.214 74.934 120.578C75.0367 120.933 75.1253 121.273 75.2 121.6C75.2653 121.273 75.3493 120.928 75.452 120.564C75.5547 120.2 75.6807 119.808 75.83 119.388L78.07 113.004H79.4ZM86.8351 119.234C86.8351 120.475 86.5178 121.437 85.8831 122.118C85.2578 122.799 84.4084 123.14 83.3351 123.14C82.6724 123.14 82.0798 122.991 81.5571 122.692C81.0438 122.384 80.6378 121.941 80.3391 121.362C80.0404 120.774 79.8911 120.065 79.8911 119.234C79.8911 117.993 80.1991 117.036 80.8151 116.364C81.4404 115.692 82.2944 115.356 83.3771 115.356C84.0491 115.356 84.6464 115.51 85.1691 115.818C85.6918 116.117 86.0978 116.555 86.3871 117.134C86.6858 117.703 86.8351 118.403 86.8351 119.234ZM81.1651 119.234C81.1651 120.121 81.3378 120.825 81.6831 121.348C82.0378 121.861 82.5978 122.118 83.3631 122.118C84.1191 122.118 84.6744 121.861 85.0291 121.348C85.3838 120.825 85.5611 120.121 85.5611 119.234C85.5611 118.347 85.3838 117.652 85.0291 117.148C84.6744 116.644 84.1144 116.392 83.3491 116.392C82.5838 116.392 82.0284 116.644 81.6831 117.148C81.3378 117.652 81.1651 118.347 81.1651 119.234ZM89.4177 112.682C89.6043 112.682 89.7677 112.747 89.9077 112.878C90.057 112.999 90.1317 113.195 90.1317 113.466C90.1317 113.737 90.057 113.937 89.9077 114.068C89.7677 114.189 89.6043 114.25 89.4177 114.25C89.2123 114.25 89.0397 114.189 88.8997 114.068C88.7597 113.937 88.6897 113.737 88.6897 113.466C88.6897 113.195 88.7597 112.999 88.8997 112.878C89.0397 112.747 89.2123 112.682 89.4177 112.682ZM90.0197 115.496V123H88.7877V115.496H90.0197ZM95.407 123.14C94.735 123.14 94.1424 123.005 93.629 122.734C93.1157 122.463 92.7097 122.043 92.411 121.474C92.1217 120.905 91.977 120.177 91.977 119.29C91.977 118.366 92.1264 117.615 92.425 117.036C92.733 116.457 93.153 116.033 93.685 115.762C94.217 115.491 94.819 115.356 95.491 115.356C95.8644 115.356 96.2284 115.398 96.583 115.482C96.947 115.557 97.241 115.65 97.465 115.762L97.087 116.784C96.863 116.7 96.6017 116.621 96.303 116.546C96.0044 116.471 95.7244 116.434 95.463 116.434C93.9884 116.434 93.251 117.381 93.251 119.276C93.251 120.181 93.4284 120.877 93.783 121.362C94.147 121.838 94.6837 122.076 95.393 122.076C95.7944 122.076 96.1537 122.034 96.471 121.95C96.7884 121.866 97.0777 121.763 97.339 121.642V122.734C97.087 122.865 96.807 122.963 96.499 123.028C96.2004 123.103 95.8364 123.14 95.407 123.14ZM102.022 115.356C102.656 115.356 103.207 115.496 103.674 115.776C104.14 116.056 104.495 116.453 104.738 116.966C104.99 117.47 105.116 118.063 105.116 118.744V119.486H99.9776C99.9963 120.335 100.211 120.984 100.622 121.432C101.042 121.871 101.625 122.09 102.372 122.09C102.848 122.09 103.268 122.048 103.632 121.964C104.005 121.871 104.388 121.74 104.78 121.572V122.65C104.397 122.818 104.019 122.939 103.646 123.014C103.272 123.098 102.829 123.14 102.316 123.14C101.597 123.14 100.967 122.995 100.426 122.706C99.8843 122.417 99.4596 121.987 99.1516 121.418C98.8529 120.849 98.7036 120.144 98.7036 119.304C98.7036 118.483 98.8389 117.778 99.1096 117.19C99.3896 116.602 99.7769 116.149 100.272 115.832C100.776 115.515 101.359 115.356 102.022 115.356ZM102.008 116.364C101.42 116.364 100.953 116.555 100.608 116.938C100.272 117.311 100.071 117.834 100.006 118.506H103.828C103.818 117.871 103.669 117.358 103.38 116.966C103.09 116.565 102.633 116.364 102.008 116.364Z" fill="black"/>
<path d="M4.01767 42.878C4.59634 42.878 5.11901 42.9667 5.58567 43.144C6.05234 43.3213 6.42567 43.592 6.70567 43.956C6.98567 44.3107 7.12567 44.7493 7.12567 45.272C7.12567 45.8693 6.94834 46.364 6.59367 46.756C6.23901 47.1387 5.80501 47.4607 5.29167 47.722C5.67434 47.918 6.02901 48.1373 6.35567 48.38C6.68234 48.6227 6.94367 48.912 7.13967 49.248C7.34501 49.5747 7.44767 49.962 7.44767 50.41C7.44767 50.9607 7.30301 51.4413 7.01367 51.852C6.72434 52.2627 6.32301 52.58 5.80967 52.804C5.30567 53.028 4.71301 53.14 4.03167 53.14C2.92101 53.14 2.06701 52.902 1.46967 52.426C0.872339 51.95 0.573672 51.2967 0.573672 50.466C0.573672 50.0087 0.662339 49.612 0.839672 49.276C1.01701 48.94 1.25501 48.6507 1.55367 48.408C1.85234 48.1653 2.18367 47.9553 2.54767 47.778C2.09034 47.498 1.69834 47.162 1.37167 46.77C1.05434 46.3687 0.895672 45.8647 0.895672 45.258C0.895672 44.7447 1.03567 44.3107 1.31567 43.956C1.60501 43.6013 1.98301 43.3353 2.44967 43.158C2.92567 42.9713 3.44834 42.878 4.01767 42.878ZM4.00367 44.208C3.59301 44.208 3.25234 44.3107 2.98167 44.516C2.72034 44.7213 2.58967 45.0107 2.58967 45.384C2.58967 45.7947 2.72967 46.1213 3.00967 46.364C3.28967 46.6067 3.63034 46.8167 4.03167 46.994C4.41434 46.826 4.74101 46.6207 5.01167 46.378C5.29167 46.1353 5.43167 45.804 5.43167 45.384C5.43167 45.0107 5.29634 44.7213 5.02567 44.516C4.76434 44.3107 4.42367 44.208 4.00367 44.208ZM2.25367 50.382C2.25367 50.7927 2.39834 51.1333 2.68767 51.404C2.97701 51.6653 3.41567 51.796 4.00367 51.796C4.58234 51.796 5.02101 51.6653 5.31967 51.404C5.61834 51.1427 5.76767 50.802 5.76767 50.382C5.76767 49.962 5.59967 49.612 5.26367 49.332C4.92767 49.052 4.53101 48.8093 4.07367 48.604L3.87767 48.506C3.37367 48.7393 2.97701 49.0053 2.68767 49.304C2.39834 49.5933 2.25367 49.9527 2.25367 50.382ZM16.7861 45.272C17.6728 45.272 18.3868 45.6033 18.9281 46.266C19.4694 46.9193 19.7401 47.8947 19.7401 49.192C19.7401 50.4893 19.4601 51.474 18.9001 52.146C18.3494 52.8087 17.6308 53.14 16.7441 53.14C16.1841 53.14 15.7314 53.0373 15.3861 52.832C15.0408 52.6267 14.7654 52.3887 14.5601 52.118H14.4481C14.4761 52.2953 14.4994 52.4867 14.5181 52.692C14.5461 52.8973 14.5601 53.0933 14.5601 53.28V56.36H12.7961V45.412H14.2241L14.4761 46.42H14.5601C14.7748 46.1027 15.0548 45.832 15.4001 45.608C15.7454 45.384 16.2074 45.272 16.7861 45.272ZM16.2821 46.7C15.6568 46.7 15.2134 46.8867 14.9521 47.26C14.7001 47.6333 14.5694 48.198 14.5601 48.954V49.178C14.5601 49.99 14.6814 50.6153 14.9241 51.054C15.1761 51.4833 15.6381 51.698 16.3101 51.698C16.8608 51.698 17.2668 51.474 17.5281 51.026C17.7988 50.5687 17.9341 49.948 17.9341 49.164C17.9341 48.38 17.7988 47.7733 17.5281 47.344C17.2668 46.9147 16.8514 46.7 16.2821 46.7ZM22.9243 49.122L20.4183 45.412H22.4203L24.0723 47.988L25.7243 45.412H27.7263L25.1923 49.122L27.8523 53H25.8503L24.0723 50.242L22.2943 53H20.2923L22.9243 49.122Z" fill="#D51588"/>
<path d="M46 48L30 48" stroke="#D51588"/>
<rect opacity="0.4" x="180" y="44" width="8" height="134" transform="rotate(90 180 44)" fill="white"/>
<rect opacity="0.12" x="180" y="44" width="8" height="134" transform="rotate(90 180 44)" fill="#D51588"/>
<path opacity="0.5" d="M180 52L46 52" stroke="#D51588" stroke-dasharray="3 3"/>
<path opacity="0.5" d="M180 44L46 44" stroke="#D51588" stroke-dasharray="3 3"/>
<path d="M4.01767 14.878C4.59634 14.878 5.11901 14.9667 5.58567 15.144C6.05234 15.3213 6.42567 15.592 6.70567 15.956C6.98567 16.3107 7.12567 16.7493 7.12567 17.272C7.12567 17.8693 6.94834 18.364 6.59367 18.756C6.23901 19.1387 5.80501 19.4607 5.29167 19.722C5.67434 19.918 6.02901 20.1373 6.35567 20.38C6.68234 20.6227 6.94367 20.912 7.13967 21.248C7.34501 21.5747 7.44767 21.962 7.44767 22.41C7.44767 22.9607 7.30301 23.4413 7.01367 23.852C6.72434 24.2627 6.32301 24.58 5.80967 24.804C5.30567 25.028 4.71301 25.14 4.03167 25.14C2.92101 25.14 2.06701 24.902 1.46967 24.426C0.872339 23.95 0.573672 23.2967 0.573672 22.466C0.573672 22.0087 0.662339 21.612 0.839672 21.276C1.01701 20.94 1.25501 20.6507 1.55367 20.408C1.85234 20.1653 2.18367 19.9553 2.54767 19.778C2.09034 19.498 1.69834 19.162 1.37167 18.77C1.05434 18.3687 0.895672 17.8647 0.895672 17.258C0.895672 16.7447 1.03567 16.3107 1.31567 15.956C1.60501 15.6013 1.98301 15.3353 2.44967 15.158C2.92567 14.9713 3.44834 14.878 4.01767 14.878ZM4.00367 16.208C3.59301 16.208 3.25234 16.3107 2.98167 16.516C2.72034 16.7213 2.58967 17.0107 2.58967 17.384C2.58967 17.7947 2.72967 18.1213 3.00967 18.364C3.28967 18.6067 3.63034 18.8167 4.03167 18.994C4.41434 18.826 4.74101 18.6207 5.01167 18.378C5.29167 18.1353 5.43167 17.804 5.43167 17.384C5.43167 17.0107 5.29634 16.7213 5.02567 16.516C4.76434 16.3107 4.42367 16.208 4.00367 16.208ZM2.25367 22.382C2.25367 22.7927 2.39834 23.1333 2.68767 23.404C2.97701 23.6653 3.41567 23.796 4.00367 23.796C4.58234 23.796 5.02101 23.6653 5.31967 23.404C5.61834 23.1427 5.76767 22.802 5.76767 22.382C5.76767 21.962 5.59967 21.612 5.26367 21.332C4.92767 21.052 4.53101 20.8093 4.07367 20.604L3.87767 20.506C3.37367 20.7393 2.97701 21.0053 2.68767 21.304C2.39834 21.5933 2.25367 21.9527 2.25367 22.382ZM16.7861 17.272C17.6728 17.272 18.3868 17.6033 18.9281 18.266C19.4694 18.9193 19.7401 19.8947 19.7401 21.192C19.7401 22.4893 19.4601 23.474 18.9001 24.146C18.3494 24.8087 17.6308 25.14 16.7441 25.14C16.1841 25.14 15.7314 25.0373 15.3861 24.832C15.0408 24.6267 14.7654 24.3887 14.5601 24.118H14.4481C14.4761 24.2953 14.4994 24.4867 14.5181 24.692C14.5461 24.8973 14.5601 25.0933 14.5601 25.28V28.36H12.7961V17.412H14.2241L14.4761 18.42H14.5601C14.7748 18.1027 15.0548 17.832 15.4001 17.608C15.7454 17.384 16.2074 17.272 16.7861 17.272ZM16.2821 18.7C15.6568 18.7 15.2134 18.8867 14.9521 19.26C14.7001 19.6333 14.5694 20.198 14.5601 20.954V21.178C14.5601 21.99 14.6814 22.6153 14.9241 23.054C15.1761 23.4833 15.6381 23.698 16.3101 23.698C16.8608 23.698 17.2668 23.474 17.5281 23.026C17.7988 22.5687 17.9341 21.948 17.9341 21.164C17.9341 20.38 17.7988 19.7733 17.5281 19.344C17.2668 18.9147 16.8514 18.7 16.2821 18.7ZM22.9243 21.122L20.4183 17.412H22.4203L24.0723 19.988L25.7243 17.412H27.7263L25.1923 21.122L27.8523 25H25.8503L24.0723 22.242L22.2943 25H20.2923L22.9243 21.122Z" fill="#D51588"/>
<path d="M46 20L30 20" stroke="#D51588"/>
<rect opacity="0.4" x="180" y="16" width="8" height="134" transform="rotate(90 180 16)" fill="white"/>
<rect opacity="0.12" x="180" y="16" width="8" height="134" transform="rotate(90 180 16)" fill="#D51588"/>
<path opacity="0.5" d="M180 24L46 24" stroke="#D51588" stroke-dasharray="3 3"/>
<path opacity="0.5" d="M180 16L46 16" stroke="#D51588" stroke-dasharray="3 3"/>
<path d="M4.01767 70.878C4.59634 70.878 5.11901 70.9667 5.58567 71.144C6.05234 71.3213 6.42567 71.592 6.70567 71.956C6.98567 72.3107 7.12567 72.7493 7.12567 73.272C7.12567 73.8693 6.94834 74.364 6.59367 74.756C6.23901 75.1387 5.80501 75.4607 5.29167 75.722C5.67434 75.918 6.02901 76.1373 6.35567 76.38C6.68234 76.6227 6.94367 76.912 7.13967 77.248C7.34501 77.5747 7.44767 77.962 7.44767 78.41C7.44767 78.9607 7.30301 79.4413 7.01367 79.852C6.72434 80.2627 6.32301 80.58 5.80967 80.804C5.30567 81.028 4.71301 81.14 4.03167 81.14C2.92101 81.14 2.06701 80.902 1.46967 80.426C0.872339 79.95 0.573672 79.2967 0.573672 78.466C0.573672 78.0087 0.662339 77.612 0.839672 77.276C1.01701 76.94 1.25501 76.6507 1.55367 76.408C1.85234 76.1653 2.18367 75.9553 2.54767 75.778C2.09034 75.498 1.69834 75.162 1.37167 74.77C1.05434 74.3687 0.895672 73.8647 0.895672 73.258C0.895672 72.7447 1.03567 72.3107 1.31567 71.956C1.60501 71.6013 1.98301 71.3353 2.44967 71.158C2.92567 70.9713 3.44834 70.878 4.01767 70.878ZM4.00367 72.208C3.59301 72.208 3.25234 72.3107 2.98167 72.516C2.72034 72.7213 2.58967 73.0107 2.58967 73.384C2.58967 73.7947 2.72967 74.1213 3.00967 74.364C3.28967 74.6067 3.63034 74.8167 4.03167 74.994C4.41434 74.826 4.74101 74.6207 5.01167 74.378C5.29167 74.1353 5.43167 73.804 5.43167 73.384C5.43167 73.0107 5.29634 72.7213 5.02567 72.516C4.76434 72.3107 4.42367 72.208 4.00367 72.208ZM2.25367 78.382C2.25367 78.7927 2.39834 79.1333 2.68767 79.404C2.97701 79.6653 3.41567 79.796 4.00367 79.796C4.58234 79.796 5.02101 79.6653 5.31967 79.404C5.61834 79.1427 5.76767 78.802 5.76767 78.382C5.76767 77.962 5.59967 77.612 5.26367 77.332C4.92767 77.052 4.53101 76.8093 4.07367 76.604L3.87767 76.506C3.37367 76.7393 2.97701 77.0053 2.68767 77.304C2.39834 77.5933 2.25367 77.9527 2.25367 78.382ZM16.7861 73.272C17.6728 73.272 18.3868 73.6033 18.9281 74.266C19.4694 74.9193 19.7401 75.8947 19.7401 77.192C19.7401 78.4893 19.4601 79.474 18.9001 80.146C18.3494 80.8087 17.6308 81.14 16.7441 81.14C16.1841 81.14 15.7314 81.0373 15.3861 80.832C15.0408 80.6267 14.7654 80.3887 14.5601 80.118H14.4481C14.4761 80.2953 14.4994 80.4867 14.5181 80.692C14.5461 80.8973 14.5601 81.0933 14.5601 81.28V84.36H12.7961V73.412H14.2241L14.4761 74.42H14.5601C14.7748 74.1027 15.0548 73.832 15.4001 73.608C15.7454 73.384 16.2074 73.272 16.7861 73.272ZM16.2821 74.7C15.6568 74.7 15.2134 74.8867 14.9521 75.26C14.7001 75.6333 14.5694 76.198 14.5601 76.954V77.178C14.5601 77.99 14.6814 78.6153 14.9241 79.054C15.1761 79.4833 15.6381 79.698 16.3101 79.698C16.8608 79.698 17.2668 79.474 17.5281 79.026C17.7988 78.5687 17.9341 77.948 17.9341 77.164C17.9341 76.38 17.7988 75.7733 17.5281 75.344C17.2668 74.9147 16.8514 74.7 16.2821 74.7ZM22.9243 77.122L20.4183 73.412H22.4203L24.0723 75.988L25.7243 73.412H27.7263L25.1923 77.122L27.8523 81H25.8503L24.0723 78.242L22.2943 81H20.2923L22.9243 77.122Z" fill="#D51588"/>
<path d="M46 76L30 76" stroke="#D51588"/>
<rect opacity="0.4" x="180" y="72" width="8" height="134" transform="rotate(90 180 72)" fill="white"/>
<rect opacity="0.12" x="180" y="72" width="8" height="134" transform="rotate(90 180 72)" fill="#D51588"/>
<path opacity="0.5" d="M180 80L46 80" stroke="#D51588" stroke-dasharray="3 3"/>
<path opacity="0.5" d="M180 72L46 72" stroke="#D51588" stroke-dasharray="3 3"/>
<path d="M4.01767 98.878C4.59634 98.878 5.11901 98.9667 5.58567 99.144C6.05234 99.3213 6.42567 99.592 6.70567 99.956C6.98567 100.311 7.12567 100.749 7.12567 101.272C7.12567 101.869 6.94834 102.364 6.59367 102.756C6.23901 103.139 5.80501 103.461 5.29167 103.722C5.67434 103.918 6.02901 104.137 6.35567 104.38C6.68234 104.623 6.94367 104.912 7.13967 105.248C7.34501 105.575 7.44767 105.962 7.44767 106.41C7.44767 106.961 7.30301 107.441 7.01367 107.852C6.72434 108.263 6.32301 108.58 5.80967 108.804C5.30567 109.028 4.71301 109.14 4.03167 109.14C2.92101 109.14 2.06701 108.902 1.46967 108.426C0.872339 107.95 0.573672 107.297 0.573672 106.466C0.573672 106.009 0.662339 105.612 0.839672 105.276C1.01701 104.94 1.25501 104.651 1.55367 104.408C1.85234 104.165 2.18367 103.955 2.54767 103.778C2.09034 103.498 1.69834 103.162 1.37167 102.77C1.05434 102.369 0.895672 101.865 0.895672 101.258C0.895672 100.745 1.03567 100.311 1.31567 99.956C1.60501 99.6013 1.98301 99.3353 2.44967 99.158C2.92567 98.9713 3.44834 98.878 4.01767 98.878ZM4.00367 100.208C3.59301 100.208 3.25234 100.311 2.98167 100.516C2.72034 100.721 2.58967 101.011 2.58967 101.384C2.58967 101.795 2.72967 102.121 3.00967 102.364C3.28967 102.607 3.63034 102.817 4.03167 102.994C4.41434 102.826 4.74101 102.621 5.01167 102.378C5.29167 102.135 5.43167 101.804 5.43167 101.384C5.43167 101.011 5.29634 100.721 5.02567 100.516C4.76434 100.311 4.42367 100.208 4.00367 100.208ZM2.25367 106.382C2.25367 106.793 2.39834 107.133 2.68767 107.404C2.97701 107.665 3.41567 107.796 4.00367 107.796C4.58234 107.796 5.02101 107.665 5.31967 107.404C5.61834 107.143 5.76767 106.802 5.76767 106.382C5.76767 105.962 5.59967 105.612 5.26367 105.332C4.92767 105.052 4.53101 104.809 4.07367 104.604L3.87767 104.506C3.37367 104.739 2.97701 105.005 2.68767 105.304C2.39834 105.593 2.25367 105.953 2.25367 106.382ZM16.7861 101.272C17.6728 101.272 18.3868 101.603 18.9281 102.266C19.4694 102.919 19.7401 103.895 19.7401 105.192C19.7401 106.489 19.4601 107.474 18.9001 108.146C18.3494 108.809 17.6308 109.14 16.7441 109.14C16.1841 109.14 15.7314 109.037 15.3861 108.832C15.0408 108.627 14.7654 108.389 14.5601 108.118H14.4481C14.4761 108.295 14.4994 108.487 14.5181 108.692C14.5461 108.897 14.5601 109.093 14.5601 109.28V112.36H12.7961V101.412H14.2241L14.4761 102.42H14.5601C14.7748 102.103 15.0548 101.832 15.4001 101.608C15.7454 101.384 16.2074 101.272 16.7861 101.272ZM16.2821 102.7C15.6568 102.7 15.2134 102.887 14.9521 103.26C14.7001 103.633 14.5694 104.198 14.5601 104.954V105.178C14.5601 105.99 14.6814 106.615 14.9241 107.054C15.1761 107.483 15.6381 107.698 16.3101 107.698C16.8608 107.698 17.2668 107.474 17.5281 107.026C17.7988 106.569 17.9341 105.948 17.9341 105.164C17.9341 104.38 17.7988 103.773 17.5281 103.344C17.2668 102.915 16.8514 102.7 16.2821 102.7ZM22.9243 105.122L20.4183 101.412H22.4203L24.0723 103.988L25.7243 101.412H27.7263L25.1923 105.122L27.8523 109H25.8503L24.0723 106.242L22.2943 109H20.2923L22.9243 105.122Z" fill="#D51588"/>
<path d="M46 104L30 104" stroke="#D51588"/>
<rect opacity="0.4" x="180" y="100" width="8" height="134" transform="rotate(90 180 100)" fill="white"/>
<rect opacity="0.12" x="180" y="100" width="8" height="134" transform="rotate(90 180 100)" fill="#D51588"/>
<path opacity="0.5" d="M180 108L46 108" stroke="#D51588" stroke-dasharray="3 3"/>
<path opacity="0.5" d="M180 100L46 100" stroke="#D51588" stroke-dasharray="3 3"/>
</g>
<defs>
<clipPath id="clip0_8063_314243">
<rect width="180" height="128" fill="white"/>
</clipPath>
</defs>
</svg>
