<svg width="412" height="320" viewBox="0 0 412 320" fill="none" xmlns="http://www.w3.org/2000/svg">
<rect width="412" height="320" fill="white"/>
<path d="M112.024 50.708C112.024 51.468 111.748 52.06 111.196 52.484C110.644 52.908 109.9 53.12 108.964 53.12C108.484 53.12 108.04 53.084 107.632 53.012C107.224 52.94 106.884 52.84 106.612 52.712V51.68C106.9 51.808 107.256 51.924 107.68 52.028C108.112 52.132 108.556 52.184 109.012 52.184C109.644 52.184 110.124 52.06 110.452 51.812C110.78 51.564 110.944 51.228 110.944 50.804C110.944 50.524 110.884 50.288 110.764 50.096C110.644 49.904 110.436 49.728 110.14 49.568C109.844 49.408 109.44 49.232 108.928 49.04C108.192 48.776 107.64 48.452 107.272 48.068C106.904 47.684 106.72 47.16 106.72 46.496C106.72 46.048 106.836 45.66 107.068 45.332C107.3 45.004 107.62 44.752 108.028 44.576C108.436 44.4 108.912 44.312 109.456 44.312C109.92 44.312 110.348 44.356 110.74 44.444C111.132 44.532 111.492 44.648 111.82 44.792L111.484 45.716C111.188 45.588 110.864 45.48 110.512 45.392C110.16 45.304 109.8 45.26 109.432 45.26C108.896 45.26 108.492 45.376 108.22 45.608C107.948 45.832 107.812 46.132 107.812 46.508C107.812 46.796 107.872 47.036 107.992 47.228C108.112 47.42 108.308 47.596 108.58 47.756C108.852 47.908 109.22 48.068 109.684 48.236C110.188 48.42 110.612 48.62 110.956 48.836C111.308 49.044 111.572 49.296 111.748 49.592C111.932 49.888 112.024 50.26 112.024 50.708ZM116.09 46.448C116.634 46.448 117.106 46.568 117.506 46.808C117.906 47.048 118.21 47.388 118.418 47.828C118.634 48.26 118.742 48.768 118.742 49.352V49.988H114.338C114.354 50.716 114.538 51.272 114.89 51.656C115.25 52.032 115.75 52.22 116.39 52.22C116.798 52.22 117.158 52.184 117.47 52.112C117.79 52.032 118.118 51.92 118.454 51.776V52.7C118.126 52.844 117.802 52.948 117.482 53.012C117.162 53.084 116.782 53.12 116.342 53.12C115.726 53.12 115.186 52.996 114.722 52.748C114.258 52.5 113.894 52.132 113.63 51.644C113.374 51.156 113.246 50.552 113.246 49.832C113.246 49.128 113.362 48.524 113.594 48.02C113.834 47.516 114.166 47.128 114.59 46.856C115.022 46.584 115.522 46.448 116.09 46.448ZM116.078 47.312C115.574 47.312 115.174 47.476 114.878 47.804C114.59 48.124 114.418 48.572 114.362 49.148H117.638C117.63 48.604 117.502 48.164 117.254 47.828C117.006 47.484 116.614 47.312 116.078 47.312ZM121.435 53H120.379V43.88H121.435V53ZM125.957 46.448C126.501 46.448 126.973 46.568 127.373 46.808C127.773 47.048 128.077 47.388 128.285 47.828C128.501 48.26 128.609 48.768 128.609 49.352V49.988H124.205C124.221 50.716 124.405 51.272 124.757 51.656C125.117 52.032 125.617 52.22 126.257 52.22C126.665 52.22 127.025 52.184 127.337 52.112C127.657 52.032 127.985 51.92 128.321 51.776V52.7C127.993 52.844 127.669 52.948 127.349 53.012C127.029 53.084 126.649 53.12 126.209 53.12C125.593 53.12 125.053 52.996 124.589 52.748C124.125 52.5 123.761 52.132 123.497 51.644C123.241 51.156 123.113 50.552 123.113 49.832C123.113 49.128 123.229 48.524 123.461 48.02C123.701 47.516 124.033 47.128 124.457 46.856C124.889 46.584 125.389 46.448 125.957 46.448ZM125.945 47.312C125.441 47.312 125.041 47.476 124.745 47.804C124.457 48.124 124.285 48.572 124.229 49.148H127.505C127.497 48.604 127.369 48.164 127.121 47.828C126.873 47.484 126.481 47.312 125.945 47.312ZM132.827 53.12C132.251 53.12 131.743 53.004 131.303 52.772C130.863 52.54 130.515 52.18 130.259 51.692C130.011 51.204 129.887 50.58 129.887 49.82C129.887 49.028 130.015 48.384 130.271 47.888C130.535 47.392 130.895 47.028 131.351 46.796C131.807 46.564 132.323 46.448 132.899 46.448C133.219 46.448 133.531 46.484 133.835 46.556C134.147 46.62 134.399 46.7 134.591 46.796L134.267 47.672C134.075 47.6 133.851 47.532 133.595 47.468C133.339 47.404 133.099 47.372 132.875 47.372C131.611 47.372 130.979 48.184 130.979 49.808C130.979 50.584 131.131 51.18 131.435 51.596C131.747 52.004 132.207 52.208 132.815 52.208C133.159 52.208 133.467 52.172 133.739 52.1C134.011 52.028 134.259 51.94 134.483 51.836V52.772C134.267 52.884 134.027 52.968 133.763 53.024C133.507 53.088 133.195 53.12 132.827 53.12ZM138.16 52.256C138.32 52.256 138.484 52.244 138.652 52.22C138.82 52.196 138.956 52.164 139.06 52.124V52.928C138.948 52.984 138.788 53.028 138.58 53.06C138.372 53.1 138.172 53.12 137.98 53.12C137.644 53.12 137.332 53.064 137.044 52.952C136.764 52.832 136.536 52.628 136.36 52.34C136.184 52.052 136.096 51.648 136.096 51.128V47.384H135.184V46.88L136.108 46.46L136.528 45.092H137.152V46.568H139.012V47.384H137.152V51.104C137.152 51.496 137.244 51.788 137.428 51.98C137.62 52.164 137.864 52.256 138.16 52.256ZM147.389 53L144.569 45.488H144.521C144.545 45.736 144.565 46.072 144.581 46.496C144.597 46.912 144.605 47.348 144.605 47.804V53H143.609V44.432H145.205L147.845 51.452H147.893L150.581 44.432H152.165V53H151.097V47.732C151.097 47.316 151.105 46.904 151.121 46.496C151.145 46.088 151.165 45.756 151.181 45.5H151.133L148.277 53H147.389ZM159.728 46.568V53H158.864L158.708 52.148H158.66C158.452 52.484 158.164 52.732 157.796 52.892C157.428 53.044 157.036 53.12 156.62 53.12C155.844 53.12 155.26 52.936 154.868 52.568C154.476 52.192 154.28 51.596 154.28 50.78V46.568H155.348V50.708C155.348 51.732 155.824 52.244 156.776 52.244C157.488 52.244 157.98 52.044 158.252 51.644C158.532 51.244 158.672 50.668 158.672 49.916V46.568H159.728ZM162.826 53H161.77V43.88H162.826V53ZM167.012 52.256C167.172 52.256 167.336 52.244 167.504 52.22C167.672 52.196 167.808 52.164 167.912 52.124V52.928C167.8 52.984 167.64 53.028 167.432 53.06C167.224 53.1 167.024 53.12 166.832 53.12C166.496 53.12 166.184 53.064 165.896 52.952C165.616 52.832 165.388 52.628 165.212 52.34C165.036 52.052 164.948 51.648 164.948 51.128V47.384H164.036V46.88L164.96 46.46L165.38 45.092H166.004V46.568H167.864V47.384H166.004V51.104C166.004 51.496 166.096 51.788 166.28 51.98C166.472 52.164 166.716 52.256 167.012 52.256ZM169.74 44.156C169.9 44.156 170.04 44.212 170.16 44.324C170.288 44.428 170.352 44.596 170.352 44.828C170.352 45.06 170.288 45.232 170.16 45.344C170.04 45.448 169.9 45.5 169.74 45.5C169.564 45.5 169.416 45.448 169.296 45.344C169.176 45.232 169.116 45.06 169.116 44.828C169.116 44.596 169.176 44.428 169.296 44.324C169.416 44.212 169.564 44.156 169.74 44.156ZM170.256 46.568V53H169.2V46.568H170.256ZM175.353 46.448C176.145 46.448 176.781 46.724 177.261 47.276C177.749 47.828 177.993 48.66 177.993 49.772C177.993 50.868 177.749 51.7 177.261 52.268C176.781 52.836 176.141 53.12 175.341 53.12C174.845 53.12 174.433 53.028 174.105 52.844C173.785 52.66 173.533 52.44 173.349 52.184H173.277C173.285 52.32 173.297 52.492 173.313 52.7C173.337 52.908 173.349 53.088 173.349 53.24V55.88H172.293V46.568H173.157L173.301 47.444H173.349C173.541 47.164 173.793 46.928 174.105 46.736C174.417 46.544 174.833 46.448 175.353 46.448ZM175.161 47.336C174.505 47.336 174.041 47.52 173.769 47.888C173.497 48.256 173.357 48.816 173.349 49.568V49.772C173.349 50.564 173.477 51.176 173.733 51.608C173.997 52.032 174.481 52.244 175.185 52.244C175.569 52.244 175.889 52.14 176.145 51.932C176.401 51.716 176.589 51.42 176.709 51.044C176.837 50.668 176.901 50.24 176.901 49.76C176.901 49.024 176.757 48.436 176.469 47.996C176.189 47.556 175.753 47.336 175.161 47.336ZM180.732 53H179.676V43.88H180.732V53ZM185.254 46.448C185.798 46.448 186.27 46.568 186.67 46.808C187.07 47.048 187.374 47.388 187.582 47.828C187.798 48.26 187.906 48.768 187.906 49.352V49.988H183.502C183.518 50.716 183.702 51.272 184.054 51.656C184.414 52.032 184.914 52.22 185.554 52.22C185.962 52.22 186.322 52.184 186.634 52.112C186.954 52.032 187.282 51.92 187.618 51.776V52.7C187.29 52.844 186.966 52.948 186.646 53.012C186.326 53.084 185.946 53.12 185.506 53.12C184.89 53.12 184.35 52.996 183.886 52.748C183.422 52.5 183.058 52.132 182.794 51.644C182.538 51.156 182.41 50.552 182.41 49.832C182.41 49.128 182.526 48.524 182.758 48.02C182.998 47.516 183.33 47.128 183.754 46.856C184.186 46.584 184.686 46.448 185.254 46.448ZM185.242 47.312C184.738 47.312 184.338 47.476 184.042 47.804C183.754 48.124 183.582 48.572 183.526 49.148H186.802C186.794 48.604 186.666 48.164 186.418 47.828C186.17 47.484 185.778 47.312 185.242 47.312ZM192.805 53V44.432H193.885V52.04H197.629V53H192.805ZM204.546 49.772C204.546 50.836 204.274 51.66 203.73 52.244C203.194 52.828 202.466 53.12 201.546 53.12C200.978 53.12 200.47 52.992 200.022 52.736C199.582 52.472 199.234 52.092 198.978 51.596C198.722 51.092 198.594 50.484 198.594 49.772C198.594 48.708 198.858 47.888 199.386 47.312C199.922 46.736 200.654 46.448 201.582 46.448C202.158 46.448 202.67 46.58 203.118 46.844C203.566 47.1 203.914 47.476 204.162 47.972C204.418 48.46 204.546 49.06 204.546 49.772ZM199.686 49.772C199.686 50.532 199.834 51.136 200.13 51.584C200.434 52.024 200.914 52.244 201.57 52.244C202.218 52.244 202.694 52.024 202.998 51.584C203.302 51.136 203.454 50.532 203.454 49.772C203.454 49.012 203.302 48.416 202.998 47.984C202.694 47.552 202.214 47.336 201.558 47.336C200.902 47.336 200.426 47.552 200.13 47.984C199.834 48.416 199.686 49.012 199.686 49.772ZM208.799 53.12C208.223 53.12 207.715 53.004 207.275 52.772C206.835 52.54 206.487 52.18 206.231 51.692C205.983 51.204 205.859 50.58 205.859 49.82C205.859 49.028 205.987 48.384 206.243 47.888C206.507 47.392 206.867 47.028 207.323 46.796C207.779 46.564 208.295 46.448 208.871 46.448C209.191 46.448 209.503 46.484 209.807 46.556C210.119 46.62 210.371 46.7 210.563 46.796L210.239 47.672C210.047 47.6 209.823 47.532 209.567 47.468C209.311 47.404 209.071 47.372 208.847 47.372C207.583 47.372 206.951 48.184 206.951 49.808C206.951 50.584 207.103 51.18 207.407 51.596C207.719 52.004 208.179 52.208 208.787 52.208C209.131 52.208 209.439 52.172 209.711 52.1C209.983 52.028 210.231 51.94 210.455 51.836V52.772C210.239 52.884 209.999 52.968 209.735 53.024C209.479 53.088 209.167 53.12 208.799 53.12ZM214.421 46.46C215.205 46.46 215.785 46.632 216.161 46.976C216.537 47.32 216.725 47.868 216.725 48.62V53H215.957L215.753 52.088H215.705C215.425 52.44 215.129 52.7 214.817 52.868C214.505 53.036 214.081 53.12 213.545 53.12C212.961 53.12 212.477 52.968 212.093 52.664C211.709 52.352 211.517 51.868 211.517 51.212C211.517 50.572 211.769 50.08 212.273 49.736C212.777 49.384 213.553 49.192 214.601 49.16L215.693 49.124V48.74C215.693 48.204 215.577 47.832 215.345 47.624C215.113 47.416 214.785 47.312 214.361 47.312C214.025 47.312 213.705 47.364 213.401 47.468C213.097 47.564 212.813 47.676 212.549 47.804L212.225 47.012C212.505 46.86 212.837 46.732 213.221 46.628C213.605 46.516 214.005 46.46 214.421 46.46ZM215.681 49.856L214.733 49.892C213.933 49.924 213.377 50.052 213.065 50.276C212.761 50.5 212.609 50.816 212.609 51.224C212.609 51.584 212.717 51.848 212.933 52.016C213.157 52.184 213.441 52.268 213.785 52.268C214.321 52.268 214.769 52.12 215.129 51.824C215.497 51.52 215.681 51.056 215.681 50.432V49.856ZM220.859 52.256C221.019 52.256 221.183 52.244 221.351 52.22C221.519 52.196 221.655 52.164 221.759 52.124V52.928C221.647 52.984 221.487 53.028 221.279 53.06C221.071 53.1 220.871 53.12 220.679 53.12C220.343 53.12 220.031 53.064 219.743 52.952C219.463 52.832 219.235 52.628 219.059 52.34C218.883 52.052 218.795 51.648 218.795 51.128V47.384H217.883V46.88L218.807 46.46L219.227 45.092H219.851V46.568H221.711V47.384H219.851V51.104C219.851 51.496 219.943 51.788 220.127 51.98C220.319 52.164 220.563 52.256 220.859 52.256ZM223.587 44.156C223.747 44.156 223.887 44.212 224.007 44.324C224.135 44.428 224.199 44.596 224.199 44.828C224.199 45.06 224.135 45.232 224.007 45.344C223.887 45.448 223.747 45.5 223.587 45.5C223.411 45.5 223.263 45.448 223.143 45.344C223.023 45.232 222.963 45.06 222.963 44.828C222.963 44.596 223.023 44.428 223.143 44.324C223.263 44.212 223.411 44.156 223.587 44.156ZM224.103 46.568V53H223.047V46.568H224.103ZM231.733 49.772C231.733 50.836 231.461 51.66 230.917 52.244C230.381 52.828 229.653 53.12 228.733 53.12C228.165 53.12 227.657 52.992 227.209 52.736C226.769 52.472 226.421 52.092 226.165 51.596C225.909 51.092 225.781 50.484 225.781 49.772C225.781 48.708 226.045 47.888 226.573 47.312C227.109 46.736 227.841 46.448 228.769 46.448C229.345 46.448 229.857 46.58 230.305 46.844C230.753 47.1 231.101 47.476 231.349 47.972C231.605 48.46 231.733 49.06 231.733 49.772ZM226.873 49.772C226.873 50.532 227.021 51.136 227.317 51.584C227.621 52.024 228.101 52.244 228.757 52.244C229.405 52.244 229.881 52.024 230.185 51.584C230.489 51.136 230.641 50.532 230.641 49.772C230.641 49.012 230.489 48.416 230.185 47.984C229.881 47.552 229.401 47.336 228.745 47.336C228.089 47.336 227.613 47.552 227.317 47.984C227.021 48.416 226.873 49.012 226.873 49.772ZM236.503 46.448C237.271 46.448 237.851 46.636 238.243 47.012C238.635 47.388 238.831 47.988 238.831 48.812V53H237.787V48.884C237.787 47.852 237.307 47.336 236.347 47.336C235.635 47.336 235.143 47.536 234.871 47.936C234.599 48.336 234.463 48.912 234.463 49.664V53H233.407V46.568H234.259L234.415 47.444H234.475C234.683 47.108 234.971 46.86 235.339 46.7C235.707 46.532 236.095 46.448 236.503 46.448ZM245.013 51.224C245.013 51.848 244.781 52.32 244.317 52.64C243.853 52.96 243.229 53.12 242.445 53.12C241.997 53.12 241.609 53.084 241.281 53.012C240.961 52.94 240.677 52.84 240.429 52.712V51.752C240.685 51.88 240.993 52 241.353 52.112C241.721 52.216 242.093 52.268 242.469 52.268C243.005 52.268 243.393 52.184 243.633 52.016C243.873 51.84 243.993 51.608 243.993 51.32C243.993 51.16 243.949 51.016 243.861 50.888C243.773 50.76 243.613 50.632 243.381 50.504C243.157 50.376 242.833 50.232 242.409 50.072C241.993 49.912 241.637 49.752 241.341 49.592C241.045 49.432 240.817 49.24 240.657 49.016C240.497 48.792 240.417 48.504 240.417 48.152C240.417 47.608 240.637 47.188 241.077 46.892C241.525 46.596 242.109 46.448 242.829 46.448C243.221 46.448 243.585 46.488 243.921 46.568C244.265 46.648 244.585 46.752 244.881 46.88L244.521 47.72C244.249 47.608 243.965 47.512 243.669 47.432C243.373 47.352 243.069 47.312 242.757 47.312C242.325 47.312 241.993 47.384 241.761 47.528C241.537 47.664 241.425 47.852 241.425 48.092C241.425 48.276 241.477 48.428 241.581 48.548C241.685 48.668 241.857 48.788 242.097 48.908C242.345 49.028 242.673 49.164 243.081 49.316C243.489 49.468 243.837 49.624 244.125 49.784C244.413 49.944 244.633 50.14 244.785 50.372C244.937 50.596 245.013 50.88 245.013 51.224Z" fill="#323232"/>
<rect x="106" y="66" width="16" height="16" rx="4" fill="#1B77AF"/>
<path d="M119.05 74.25H108.9C108.65 74.25 108.5 74.1 108.5 73.9C108.5 73.7 108.65 73.5 108.9 73.5H119.1C119.3 73.5 119.5 73.65 119.5 73.9C119.5 74.15 119.25 74.25 119.05 74.25Z" fill="white"/>
<path d="M135.642 69.97C134.569 69.97 133.724 70.3293 133.108 71.048C132.492 71.7667 132.184 72.7513 132.184 74.002C132.184 75.2433 132.469 76.228 133.038 76.956C133.617 77.6747 134.48 78.034 135.628 78.034C136.057 78.034 136.468 77.9967 136.86 77.922C137.252 77.8473 137.639 77.754 138.022 77.642V78.734C137.649 78.874 137.261 78.9767 136.86 79.042C136.468 79.1073 135.997 79.14 135.446 79.14C134.429 79.14 133.579 78.93 132.898 78.51C132.217 78.09 131.703 77.4927 131.358 76.718C131.022 75.9433 130.854 75.0333 130.854 73.988C130.854 72.98 131.036 72.0933 131.4 71.328C131.773 70.5533 132.319 69.9513 133.038 69.522C133.757 69.0833 134.629 68.864 135.656 68.864C136.711 68.864 137.63 69.06 138.414 69.452L137.91 70.516C137.602 70.376 137.257 70.25 136.874 70.138C136.501 70.026 136.09 69.97 135.642 69.97ZM142.878 71.37C143.792 71.37 144.469 71.5707 144.908 71.972C145.346 72.3733 145.566 73.0127 145.566 73.89V79H144.67L144.432 77.936H144.376C144.049 78.3467 143.704 78.65 143.34 78.846C142.976 79.042 142.481 79.14 141.856 79.14C141.174 79.14 140.61 78.9627 140.162 78.608C139.714 78.244 139.49 77.6793 139.49 76.914C139.49 76.1673 139.784 75.5933 140.372 75.192C140.96 74.7813 141.865 74.5573 143.088 74.52L144.362 74.478V74.03C144.362 73.4047 144.226 72.9707 143.956 72.728C143.685 72.4853 143.302 72.364 142.808 72.364C142.416 72.364 142.042 72.4247 141.688 72.546C141.333 72.658 141.002 72.7887 140.694 72.938L140.316 72.014C140.642 71.8367 141.03 71.6873 141.478 71.566C141.926 71.4353 142.392 71.37 142.878 71.37ZM144.348 75.332L143.242 75.374C142.308 75.4113 141.66 75.5607 141.296 75.822C140.941 76.0833 140.764 76.452 140.764 76.928C140.764 77.348 140.89 77.656 141.142 77.852C141.403 78.048 141.734 78.146 142.136 78.146C142.761 78.146 143.284 77.9733 143.704 77.628C144.133 77.2733 144.348 76.732 144.348 76.004V75.332ZM151.495 71.356C152.391 71.356 153.068 71.5753 153.525 72.014C153.983 72.4527 154.211 73.1527 154.211 74.114V79H152.993V74.198C152.993 72.994 152.433 72.392 151.313 72.392C150.483 72.392 149.909 72.6253 149.591 73.092C149.274 73.5587 149.115 74.2307 149.115 75.108V79H147.883V71.496H148.877L149.059 72.518H149.129C149.372 72.126 149.708 71.8367 150.137 71.65C150.567 71.454 151.019 71.356 151.495 71.356ZM159.38 71.37C160.294 71.37 160.971 71.5707 161.41 71.972C161.848 72.3733 162.068 73.0127 162.068 73.89V79H161.172L160.934 77.936H160.878C160.551 78.3467 160.206 78.65 159.842 78.846C159.478 79.042 158.983 79.14 158.358 79.14C157.676 79.14 157.112 78.9627 156.664 78.608C156.216 78.244 155.992 77.6793 155.992 76.914C155.992 76.1673 156.286 75.5933 156.874 75.192C157.462 74.7813 158.367 74.5573 159.59 74.52L160.864 74.478V74.03C160.864 73.4047 160.728 72.9707 160.458 72.728C160.187 72.4853 159.804 72.364 159.31 72.364C158.918 72.364 158.544 72.4247 158.19 72.546C157.835 72.658 157.504 72.7887 157.196 72.938L156.818 72.014C157.144 71.8367 157.532 71.6873 157.98 71.566C158.428 71.4353 158.894 71.37 159.38 71.37ZM160.85 75.332L159.744 75.374C158.81 75.4113 158.162 75.5607 157.798 75.822C157.443 76.0833 157.266 76.452 157.266 76.928C157.266 77.348 157.392 77.656 157.644 77.852C157.905 78.048 158.236 78.146 158.638 78.146C159.263 78.146 159.786 77.9733 160.206 77.628C160.635 77.2733 160.85 76.732 160.85 76.004V75.332ZM167.045 79.14C166.112 79.14 165.365 78.818 164.805 78.174C164.245 77.5207 163.965 76.55 163.965 75.262C163.965 73.974 164.245 73.0033 164.805 72.35C165.375 71.6873 166.126 71.356 167.059 71.356C167.638 71.356 168.109 71.4633 168.473 71.678C168.847 71.8927 169.15 72.154 169.383 72.462H169.467C169.449 72.3407 169.43 72.1633 169.411 71.93C169.393 71.6873 169.383 71.496 169.383 71.356V68.36H170.615V79H169.621L169.439 77.992H169.383C169.159 78.3093 168.861 78.58 168.487 78.804C168.114 79.028 167.633 79.14 167.045 79.14ZM167.241 78.118C168.035 78.118 168.59 77.9033 168.907 77.474C169.234 77.0353 169.397 76.3773 169.397 75.5V75.276C169.397 74.3427 169.243 73.6287 168.935 73.134C168.627 72.63 168.058 72.378 167.227 72.378C166.565 72.378 166.065 72.644 165.729 73.176C165.403 73.6987 165.239 74.4033 165.239 75.29C165.239 76.186 165.403 76.8813 165.729 77.376C166.065 77.8707 166.569 78.118 167.241 78.118ZM175.841 71.37C176.755 71.37 177.432 71.5707 177.871 71.972C178.309 72.3733 178.529 73.0127 178.529 73.89V79H177.633L177.395 77.936H177.339C177.012 78.3467 176.667 78.65 176.303 78.846C175.939 79.042 175.444 79.14 174.819 79.14C174.137 79.14 173.573 78.9627 173.125 78.608C172.677 78.244 172.453 77.6793 172.453 76.914C172.453 76.1673 172.747 75.5933 173.335 75.192C173.923 74.7813 174.828 74.5573 176.051 74.52L177.325 74.478V74.03C177.325 73.4047 177.189 72.9707 176.919 72.728C176.648 72.4853 176.265 72.364 175.771 72.364C175.379 72.364 175.005 72.4247 174.651 72.546C174.296 72.658 173.965 72.7887 173.657 72.938L173.279 72.014C173.605 71.8367 173.993 71.6873 174.441 71.566C174.889 71.4353 175.355 71.37 175.841 71.37ZM177.311 75.332L176.205 75.374C175.271 75.4113 174.623 75.5607 174.259 75.822C173.904 76.0833 173.727 76.452 173.727 76.928C173.727 77.348 173.853 77.656 174.105 77.852C174.366 78.048 174.697 78.146 175.099 78.146C175.724 78.146 176.247 77.9733 176.667 77.628C177.096 77.2733 177.311 76.732 177.311 76.004V75.332Z" fill="black"/>
<rect x="130" y="94" width="16" height="16" rx="4" fill="#1B77AF"/>
<path d="M143.05 102.25H132.9C132.65 102.25 132.5 102.1 132.5 101.9C132.5 101.7 132.65 101.5 132.9 101.5H143.1C143.3 101.5 143.5 101.65 143.5 101.9C143.5 102.15 143.25 102.25 143.05 102.25Z" fill="white"/>
<path d="M164.08 101.988C164.08 103.024 163.903 103.929 163.548 104.704C163.203 105.469 162.685 106.067 161.994 106.496C161.313 106.925 160.473 107.14 159.474 107.14C158.438 107.14 157.575 106.925 156.884 106.496C156.203 106.067 155.694 105.465 155.358 104.69C155.022 103.915 154.854 103.01 154.854 101.974C154.854 100.957 155.022 100.065 155.358 99.3C155.694 98.5253 156.203 97.9233 156.884 97.494C157.575 97.0647 158.443 96.85 159.488 96.85C160.487 96.85 161.327 97.0647 162.008 97.494C162.689 97.914 163.203 98.5113 163.548 99.286C163.903 100.051 164.08 100.952 164.08 101.988ZM156.184 101.988C156.184 103.248 156.45 104.242 156.982 104.97C157.514 105.689 158.345 106.048 159.474 106.048C160.603 106.048 161.429 105.689 161.952 104.97C162.484 104.242 162.75 103.248 162.75 101.988C162.75 100.728 162.489 99.7433 161.966 99.034C161.443 98.3153 160.617 97.956 159.488 97.956C158.349 97.956 157.514 98.3153 156.982 99.034C156.45 99.7433 156.184 100.728 156.184 101.988ZM169.74 99.356C170.636 99.356 171.312 99.5753 171.77 100.014C172.227 100.453 172.456 101.153 172.456 102.114V107H171.238V102.198C171.238 100.994 170.678 100.392 169.558 100.392C168.727 100.392 168.153 100.625 167.836 101.092C167.518 101.559 167.36 102.231 167.36 103.108V107H166.128V99.496H167.122L167.304 100.518H167.374C167.616 100.126 167.952 99.8367 168.382 99.65C168.811 99.454 169.264 99.356 169.74 99.356ZM177.288 106.132C177.474 106.132 177.666 106.118 177.862 106.09C178.058 106.062 178.216 106.025 178.338 105.978V106.916C178.207 106.981 178.02 107.033 177.778 107.07C177.535 107.117 177.302 107.14 177.078 107.14C176.686 107.14 176.322 107.075 175.986 106.944C175.659 106.804 175.393 106.566 175.188 106.23C174.982 105.894 174.88 105.423 174.88 104.816V100.448H173.816V99.86L174.894 99.37L175.384 97.774H176.112V99.496H178.282V100.448H176.112V104.788C176.112 105.245 176.219 105.586 176.434 105.81C176.658 106.025 176.942 106.132 177.288 106.132ZM182.682 99.37C183.597 99.37 184.274 99.5707 184.712 99.972C185.151 100.373 185.37 101.013 185.37 101.89V107H184.474L184.236 105.936H184.18C183.854 106.347 183.508 106.65 183.144 106.846C182.78 107.042 182.286 107.14 181.66 107.14C180.979 107.14 180.414 106.963 179.966 106.608C179.518 106.244 179.294 105.679 179.294 104.914C179.294 104.167 179.588 103.593 180.176 103.192C180.764 102.781 181.67 102.557 182.892 102.52L184.166 102.478V102.03C184.166 101.405 184.031 100.971 183.76 100.728C183.49 100.485 183.107 100.364 182.612 100.364C182.22 100.364 181.847 100.425 181.492 100.546C181.138 100.658 180.806 100.789 180.498 100.938L180.12 100.014C180.447 99.8367 180.834 99.6873 181.282 99.566C181.73 99.4353 182.197 99.37 182.682 99.37ZM184.152 103.332L183.046 103.374C182.113 103.411 181.464 103.561 181.1 103.822C180.746 104.083 180.568 104.452 180.568 104.928C180.568 105.348 180.694 105.656 180.946 105.852C181.208 106.048 181.539 106.146 181.94 106.146C182.566 106.146 183.088 105.973 183.508 105.628C183.938 105.273 184.152 104.732 184.152 104.004V103.332ZM191.188 99.356C191.328 99.356 191.477 99.3653 191.636 99.384C191.795 99.3933 191.939 99.412 192.07 99.44L191.916 100.574C191.795 100.546 191.659 100.523 191.51 100.504C191.361 100.485 191.225 100.476 191.104 100.476C190.721 100.476 190.362 100.583 190.026 100.798C189.69 101.003 189.419 101.297 189.214 101.68C189.018 102.053 188.92 102.492 188.92 102.996V107H187.688V99.496H188.696L188.836 100.868H188.892C189.125 100.457 189.433 100.103 189.816 99.804C190.208 99.5053 190.665 99.356 191.188 99.356ZM194.101 96.682C194.288 96.682 194.451 96.7473 194.591 96.878C194.741 96.9993 194.815 97.1953 194.815 97.466C194.815 97.7367 194.741 97.9373 194.591 98.068C194.451 98.1893 194.288 98.25 194.101 98.25C193.896 98.25 193.723 98.1893 193.583 98.068C193.443 97.9373 193.373 97.7367 193.373 97.466C193.373 97.1953 193.443 96.9993 193.583 96.878C193.723 96.7473 193.896 96.682 194.101 96.682ZM194.703 99.496V107H193.471V99.496H194.703ZM203.605 103.234C203.605 104.475 203.287 105.437 202.653 106.118C202.027 106.799 201.178 107.14 200.105 107.14C199.442 107.14 198.849 106.991 198.327 106.692C197.813 106.384 197.407 105.941 197.109 105.362C196.81 104.774 196.661 104.065 196.661 103.234C196.661 101.993 196.969 101.036 197.585 100.364C198.21 99.692 199.064 99.356 200.147 99.356C200.819 99.356 201.416 99.51 201.939 99.818C202.461 100.117 202.867 100.555 203.157 101.134C203.455 101.703 203.605 102.403 203.605 103.234ZM197.935 103.234C197.935 104.121 198.107 104.825 198.453 105.348C198.807 105.861 199.367 106.118 200.133 106.118C200.889 106.118 201.444 105.861 201.799 105.348C202.153 104.825 202.331 104.121 202.331 103.234C202.331 102.347 202.153 101.652 201.799 101.148C201.444 100.644 200.884 100.392 200.119 100.392C199.353 100.392 198.798 100.644 198.453 101.148C198.107 101.652 197.935 102.347 197.935 103.234Z" fill="black"/>
<rect x="154" y="122" width="16" height="16" rx="4" fill="#1B77AF"/>
<path d="M160.512 135.202C160.412 135.202 160.312 135.152 160.262 135.102L156.113 130.952C155.962 130.802 155.962 130.552 156.113 130.402C156.263 130.252 156.512 130.252 156.662 130.402L160.512 134.252L167.312 125.152C167.413 125.002 167.662 124.952 167.812 125.052C167.963 125.152 168.012 125.402 167.912 125.552L160.812 135.052C160.762 135.152 160.662 135.202 160.512 135.202Z" fill="white"/>
<path d="M182.522 135H181.262V126.11H178.14V125.004H185.63V126.11H182.522V135ZM192.509 131.234C192.509 132.475 192.192 133.437 191.557 134.118C190.932 134.799 190.082 135.14 189.009 135.14C188.346 135.14 187.754 134.991 187.231 134.692C186.718 134.384 186.312 133.941 186.013 133.362C185.714 132.774 185.565 132.065 185.565 131.234C185.565 129.993 185.873 129.036 186.489 128.364C187.114 127.692 187.968 127.356 189.051 127.356C189.723 127.356 190.32 127.51 190.843 127.818C191.366 128.117 191.772 128.555 192.061 129.134C192.36 129.703 192.509 130.403 192.509 131.234ZM186.839 131.234C186.839 132.121 187.012 132.825 187.357 133.348C187.712 133.861 188.272 134.118 189.037 134.118C189.793 134.118 190.348 133.861 190.703 133.348C191.058 132.825 191.235 132.121 191.235 131.234C191.235 130.347 191.058 129.652 190.703 129.148C190.348 128.644 189.788 128.392 189.023 128.392C188.258 128.392 187.702 128.644 187.357 129.148C187.012 129.652 186.839 130.347 186.839 131.234ZM197.961 127.356C198.101 127.356 198.251 127.365 198.409 127.384C198.568 127.393 198.713 127.412 198.843 127.44L198.689 128.574C198.568 128.546 198.433 128.523 198.283 128.504C198.134 128.485 197.999 128.476 197.877 128.476C197.495 128.476 197.135 128.583 196.799 128.798C196.463 129.003 196.193 129.297 195.987 129.68C195.791 130.053 195.693 130.492 195.693 130.996V135H194.461V127.496H195.469L195.609 128.868H195.665C195.899 128.457 196.207 128.103 196.589 127.804C196.981 127.505 197.439 127.356 197.961 127.356ZM206.495 131.234C206.495 132.475 206.178 133.437 205.543 134.118C204.918 134.799 204.069 135.14 202.995 135.14C202.333 135.14 201.74 134.991 201.217 134.692C200.704 134.384 200.298 133.941 199.999 133.362C199.701 132.774 199.551 132.065 199.551 131.234C199.551 129.993 199.859 129.036 200.475 128.364C201.101 127.692 201.955 127.356 203.037 127.356C203.709 127.356 204.307 127.51 204.829 127.818C205.352 128.117 205.758 128.555 206.047 129.134C206.346 129.703 206.495 130.403 206.495 131.234ZM200.825 131.234C200.825 132.121 200.998 132.825 201.343 133.348C201.698 133.861 202.258 134.118 203.023 134.118C203.779 134.118 204.335 133.861 204.689 133.348C205.044 132.825 205.221 132.121 205.221 131.234C205.221 130.347 205.044 129.652 204.689 129.148C204.335 128.644 203.775 128.392 203.009 128.392C202.244 128.392 201.689 128.644 201.343 129.148C200.998 129.652 200.825 130.347 200.825 131.234ZM212.06 127.356C212.956 127.356 213.632 127.575 214.09 128.014C214.547 128.453 214.776 129.153 214.776 130.114V135H213.558V130.198C213.558 128.994 212.998 128.392 211.878 128.392C211.047 128.392 210.473 128.625 210.156 129.092C209.838 129.559 209.68 130.231 209.68 131.108V135H208.448V127.496H209.442L209.624 128.518H209.694C209.936 128.126 210.272 127.837 210.702 127.65C211.131 127.454 211.584 127.356 212.06 127.356ZM219.608 134.132C219.795 134.132 219.986 134.118 220.182 134.09C220.378 134.062 220.537 134.025 220.658 133.978V134.916C220.527 134.981 220.341 135.033 220.098 135.07C219.855 135.117 219.622 135.14 219.398 135.14C219.006 135.14 218.642 135.075 218.306 134.944C217.979 134.804 217.713 134.566 217.508 134.23C217.303 133.894 217.2 133.423 217.2 132.816V128.448H216.136V127.86L217.214 127.37L217.704 125.774H218.432V127.496H220.602V128.448H218.432V132.788C218.432 133.245 218.539 133.586 218.754 133.81C218.978 134.025 219.263 134.132 219.608 134.132ZM228.685 131.234C228.685 132.475 228.367 133.437 227.733 134.118C227.107 134.799 226.258 135.14 225.185 135.14C224.522 135.14 223.929 134.991 223.407 134.692C222.893 134.384 222.487 133.941 222.189 133.362C221.89 132.774 221.741 132.065 221.741 131.234C221.741 129.993 222.049 129.036 222.665 128.364C223.29 127.692 224.144 127.356 225.227 127.356C225.899 127.356 226.496 127.51 227.019 127.818C227.541 128.117 227.947 128.555 228.237 129.134C228.535 129.703 228.685 130.403 228.685 131.234ZM223.015 131.234C223.015 132.121 223.187 132.825 223.533 133.348C223.887 133.861 224.447 134.118 225.213 134.118C225.969 134.118 226.524 133.861 226.879 133.348C227.233 132.825 227.411 132.121 227.411 131.234C227.411 130.347 227.233 129.652 226.879 129.148C226.524 128.644 225.964 128.392 225.199 128.392C224.433 128.392 223.878 128.644 223.533 129.148C223.187 129.652 223.015 130.347 223.015 131.234Z" fill="black"/>
<rect x="154" y="150" width="16" height="16" rx="4" fill="white"/>
<rect x="154.5" y="150.5" width="15" height="15" rx="3.5" stroke="#1B77AF"/>
<path d="M188.08 157.988C188.08 159.024 187.903 159.929 187.548 160.704C187.203 161.469 186.685 162.067 185.994 162.496C185.313 162.925 184.473 163.14 183.474 163.14C182.438 163.14 181.575 162.925 180.884 162.496C180.203 162.067 179.694 161.465 179.358 160.69C179.022 159.915 178.854 159.01 178.854 157.974C178.854 156.957 179.022 156.065 179.358 155.3C179.694 154.525 180.203 153.923 180.884 153.494C181.575 153.065 182.443 152.85 183.488 152.85C184.487 152.85 185.327 153.065 186.008 153.494C186.689 153.914 187.203 154.511 187.548 155.286C187.903 156.051 188.08 156.952 188.08 157.988ZM180.184 157.988C180.184 159.248 180.45 160.242 180.982 160.97C181.514 161.689 182.345 162.048 183.474 162.048C184.603 162.048 185.429 161.689 185.952 160.97C186.484 160.242 186.75 159.248 186.75 157.988C186.75 156.728 186.489 155.743 185.966 155.034C185.443 154.315 184.617 153.956 183.488 153.956C182.349 153.956 181.514 154.315 180.982 155.034C180.45 155.743 180.184 156.728 180.184 157.988ZM192.633 162.132C192.82 162.132 193.012 162.118 193.208 162.09C193.404 162.062 193.562 162.025 193.684 161.978V162.916C193.553 162.981 193.366 163.033 193.124 163.07C192.881 163.117 192.648 163.14 192.424 163.14C192.032 163.14 191.668 163.075 191.332 162.944C191.005 162.804 190.739 162.566 190.534 162.23C190.328 161.894 190.226 161.423 190.226 160.816V156.448H189.162V155.86L190.24 155.37L190.73 153.774H191.458V155.496H193.628V156.448H191.458V160.788C191.458 161.245 191.565 161.586 191.78 161.81C192.004 162.025 192.288 162.132 192.633 162.132ZM197.692 162.132C197.879 162.132 198.07 162.118 198.266 162.09C198.462 162.062 198.621 162.025 198.742 161.978V162.916C198.611 162.981 198.425 163.033 198.182 163.07C197.939 163.117 197.706 163.14 197.482 163.14C197.09 163.14 196.726 163.075 196.39 162.944C196.063 162.804 195.797 162.566 195.592 162.23C195.387 161.894 195.284 161.423 195.284 160.816V156.448H194.22V155.86L195.298 155.37L195.788 153.774H196.516V155.496H198.686V156.448H196.516V160.788C196.516 161.245 196.623 161.586 196.838 161.81C197.062 162.025 197.347 162.132 197.692 162.132ZM203.087 155.37C204.001 155.37 204.678 155.571 205.117 155.972C205.555 156.373 205.775 157.013 205.775 157.89V163H204.879L204.641 161.936H204.585C204.258 162.347 203.913 162.65 203.549 162.846C203.185 163.042 202.69 163.14 202.065 163.14C201.383 163.14 200.819 162.963 200.371 162.608C199.923 162.244 199.699 161.679 199.699 160.914C199.699 160.167 199.993 159.593 200.581 159.192C201.169 158.781 202.074 158.557 203.297 158.52L204.571 158.478V158.03C204.571 157.405 204.435 156.971 204.165 156.728C203.894 156.485 203.511 156.364 203.017 156.364C202.625 156.364 202.251 156.425 201.897 156.546C201.542 156.658 201.211 156.789 200.903 156.938L200.525 156.014C200.851 155.837 201.239 155.687 201.687 155.566C202.135 155.435 202.601 155.37 203.087 155.37ZM204.557 159.332L203.451 159.374C202.517 159.411 201.869 159.561 201.505 159.822C201.15 160.083 200.973 160.452 200.973 160.928C200.973 161.348 201.099 161.656 201.351 161.852C201.612 162.048 201.943 162.146 202.345 162.146C202.97 162.146 203.493 161.973 203.913 161.628C204.342 161.273 204.557 160.732 204.557 160.004V159.332ZM214.224 162.986L212.936 158.758C212.815 158.375 212.708 158.002 212.614 157.638C212.521 157.274 212.456 156.985 212.418 156.77H212.362C212.325 156.985 212.264 157.274 212.18 157.638C212.096 158.002 211.989 158.38 211.858 158.772L210.514 162.986H209.114L207.056 155.482H208.33L209.366 159.486C209.469 159.887 209.567 160.293 209.66 160.704C209.754 161.115 209.819 161.455 209.856 161.726H209.912C209.94 161.567 209.982 161.371 210.038 161.138C210.094 160.905 210.155 160.662 210.22 160.41C210.286 160.149 210.351 159.915 210.416 159.71L211.746 155.482H213.09L214.378 159.71C214.472 160.037 214.57 160.387 214.672 160.76C214.775 161.133 214.845 161.451 214.882 161.712H214.938C214.966 161.479 215.027 161.157 215.12 160.746C215.223 160.335 215.33 159.915 215.442 159.486L216.492 155.482H217.752L215.666 162.986H214.224ZM221.94 155.37C222.855 155.37 223.532 155.571 223.97 155.972C224.409 156.373 224.628 157.013 224.628 157.89V163H223.732L223.494 161.936H223.438C223.112 162.347 222.766 162.65 222.402 162.846C222.038 163.042 221.544 163.14 220.918 163.14C220.237 163.14 219.672 162.963 219.224 162.608C218.776 162.244 218.552 161.679 218.552 160.914C218.552 160.167 218.846 159.593 219.434 159.192C220.022 158.781 220.928 158.557 222.15 158.52L223.424 158.478V158.03C223.424 157.405 223.289 156.971 223.018 156.728C222.748 156.485 222.365 156.364 221.87 156.364C221.478 156.364 221.105 156.425 220.75 156.546C220.396 156.658 220.064 156.789 219.756 156.938L219.378 156.014C219.705 155.837 220.092 155.687 220.54 155.566C220.988 155.435 221.455 155.37 221.94 155.37ZM223.41 159.332L222.304 159.374C221.371 159.411 220.722 159.561 220.358 159.822C220.004 160.083 219.826 160.452 219.826 160.928C219.826 161.348 219.952 161.656 220.204 161.852C220.466 162.048 220.797 162.146 221.198 162.146C221.824 162.146 222.346 161.973 222.766 161.628C223.196 161.273 223.41 160.732 223.41 160.004V159.332Z" fill="black"/>
<rect x="154" y="178" width="16" height="16" rx="4" fill="white"/>
<rect x="154.5" y="178.5" width="15" height="15" rx="3.5" stroke="#1B77AF"/>
<path d="M187.002 191H185.742V186.338H180.618V191H179.358V181.004H180.618V185.232H185.742V181.004H187.002V191ZM192.409 183.37C193.324 183.37 194 183.571 194.439 183.972C194.878 184.373 195.097 185.013 195.097 185.89V191H194.201L193.963 189.936H193.907C193.58 190.347 193.235 190.65 192.871 190.846C192.507 191.042 192.012 191.14 191.387 191.14C190.706 191.14 190.141 190.963 189.693 190.608C189.245 190.244 189.021 189.679 189.021 188.914C189.021 188.167 189.315 187.593 189.903 187.192C190.491 186.781 191.396 186.557 192.619 186.52L193.893 186.478V186.03C193.893 185.405 193.758 184.971 193.487 184.728C193.216 184.485 192.834 184.364 192.339 184.364C191.947 184.364 191.574 184.425 191.219 184.546C190.864 184.658 190.533 184.789 190.225 184.938L189.847 184.014C190.174 183.837 190.561 183.687 191.009 183.566C191.457 183.435 191.924 183.37 192.409 183.37ZM193.879 187.332L192.773 187.374C191.84 187.411 191.191 187.561 190.827 187.822C190.472 188.083 190.295 188.452 190.295 188.928C190.295 189.348 190.421 189.656 190.673 189.852C190.934 190.048 191.266 190.146 191.667 190.146C192.292 190.146 192.815 189.973 193.235 189.628C193.664 189.273 193.879 188.732 193.879 188.004V187.332ZM205.647 183.356C206.496 183.356 207.131 183.575 207.551 184.014C207.971 184.453 208.181 185.153 208.181 186.114V191H206.963V186.17C206.963 184.985 206.454 184.392 205.437 184.392C204.709 184.392 204.186 184.602 203.869 185.022C203.561 185.442 203.407 186.053 203.407 186.856V191H202.189V186.17C202.189 184.985 201.675 184.392 200.649 184.392C199.893 184.392 199.37 184.625 199.081 185.092C198.791 185.559 198.647 186.231 198.647 187.108V191H197.415V183.496H198.409L198.591 184.518H198.661C198.894 184.126 199.207 183.837 199.599 183.65C200 183.454 200.425 183.356 200.873 183.356C202.049 183.356 202.814 183.776 203.169 184.616H203.239C203.491 184.187 203.831 183.869 204.261 183.664C204.69 183.459 205.152 183.356 205.647 183.356ZM211.129 180.682C211.315 180.682 211.479 180.747 211.619 180.878C211.768 180.999 211.843 181.195 211.843 181.466C211.843 181.737 211.768 181.937 211.619 182.068C211.479 182.189 211.315 182.25 211.129 182.25C210.923 182.25 210.751 182.189 210.611 182.068C210.471 181.937 210.401 181.737 210.401 181.466C210.401 181.195 210.471 180.999 210.611 180.878C210.751 180.747 210.923 180.682 211.129 180.682ZM211.731 183.496V191H210.499V183.496H211.731ZM215.34 191H214.108V180.36H215.34V191ZM220.223 190.132C220.41 190.132 220.601 190.118 220.797 190.09C220.993 190.062 221.152 190.025 221.273 189.978V190.916C221.143 190.981 220.956 191.033 220.713 191.07C220.471 191.117 220.237 191.14 220.013 191.14C219.621 191.14 219.257 191.075 218.921 190.944C218.595 190.804 218.329 190.566 218.123 190.23C217.918 189.894 217.815 189.423 217.815 188.816V184.448H216.751V183.86L217.829 183.37L218.319 181.774H219.047V183.496H221.217V184.448H219.047V188.788C219.047 189.245 219.155 189.586 219.369 189.81C219.593 190.025 219.878 190.132 220.223 190.132ZM229.3 187.234C229.3 188.475 228.983 189.437 228.348 190.118C227.723 190.799 226.873 191.14 225.8 191.14C225.137 191.14 224.545 190.991 224.022 190.692C223.509 190.384 223.103 189.941 222.804 189.362C222.505 188.774 222.356 188.065 222.356 187.234C222.356 185.993 222.664 185.036 223.28 184.364C223.905 183.692 224.759 183.356 225.842 183.356C226.514 183.356 227.111 183.51 227.634 183.818C228.157 184.117 228.563 184.555 228.852 185.134C229.151 185.703 229.3 186.403 229.3 187.234ZM223.63 187.234C223.63 188.121 223.803 188.825 224.148 189.348C224.503 189.861 225.063 190.118 225.828 190.118C226.584 190.118 227.139 189.861 227.494 189.348C227.849 188.825 228.026 188.121 228.026 187.234C228.026 186.347 227.849 185.652 227.494 185.148C227.139 184.644 226.579 184.392 225.814 184.392C225.049 184.392 224.493 184.644 224.148 185.148C223.803 185.652 223.63 186.347 223.63 187.234ZM234.865 183.356C235.761 183.356 236.437 183.575 236.895 184.014C237.352 184.453 237.581 185.153 237.581 186.114V191H236.363V186.198C236.363 184.994 235.803 184.392 234.683 184.392C233.852 184.392 233.278 184.625 232.961 185.092C232.643 185.559 232.485 186.231 232.485 187.108V191H231.253V183.496H232.247L232.429 184.518H232.499C232.741 184.126 233.077 183.837 233.507 183.65C233.936 183.454 234.389 183.356 234.865 183.356Z" fill="black"/>
<rect x="154" y="206" width="16" height="16" rx="4" fill="white"/>
<rect x="154.5" y="206.5" width="15" height="15" rx="3.5" stroke="#1B77AF"/>
<path d="M183.768 219L180.478 210.236H180.422C180.45 210.525 180.473 210.917 180.492 211.412C180.511 211.897 180.52 212.406 180.52 212.938V219H179.358V209.004H181.22L184.3 217.194H184.356L187.492 209.004H189.34V219H188.094V212.854C188.094 212.369 188.103 211.888 188.122 211.412C188.15 210.936 188.173 210.549 188.192 210.25H188.136L184.804 219H183.768ZM192.521 208.682C192.708 208.682 192.871 208.747 193.011 208.878C193.161 208.999 193.235 209.195 193.235 209.466C193.235 209.737 193.161 209.937 193.011 210.068C192.871 210.189 192.708 210.25 192.521 210.25C192.316 210.25 192.143 210.189 192.003 210.068C191.863 209.937 191.793 209.737 191.793 209.466C191.793 209.195 191.863 208.999 192.003 208.878C192.143 208.747 192.316 208.682 192.521 208.682ZM193.123 211.496V219H191.891V211.496H193.123ZM200.387 216.928C200.387 217.656 200.116 218.207 199.575 218.58C199.033 218.953 198.305 219.14 197.391 219.14C196.868 219.14 196.415 219.098 196.033 219.014C195.659 218.93 195.328 218.813 195.039 218.664V217.544C195.337 217.693 195.697 217.833 196.117 217.964C196.546 218.085 196.98 218.146 197.419 218.146C198.044 218.146 198.497 218.048 198.777 217.852C199.057 217.647 199.197 217.376 199.197 217.04C199.197 216.853 199.145 216.685 199.043 216.536C198.94 216.387 198.753 216.237 198.483 216.088C198.221 215.939 197.843 215.771 197.349 215.584C196.863 215.397 196.448 215.211 196.103 215.024C195.757 214.837 195.491 214.613 195.305 214.352C195.118 214.091 195.025 213.755 195.025 213.344C195.025 212.709 195.281 212.219 195.795 211.874C196.317 211.529 196.999 211.356 197.839 211.356C198.296 211.356 198.721 211.403 199.113 211.496C199.514 211.589 199.887 211.711 200.233 211.86L199.813 212.84C199.495 212.709 199.164 212.597 198.819 212.504C198.473 212.411 198.119 212.364 197.755 212.364C197.251 212.364 196.863 212.448 196.593 212.616C196.331 212.775 196.201 212.994 196.201 213.274C196.201 213.489 196.261 213.666 196.383 213.806C196.504 213.946 196.705 214.086 196.985 214.226C197.274 214.366 197.657 214.525 198.133 214.702C198.609 214.879 199.015 215.061 199.351 215.248C199.687 215.435 199.943 215.663 200.121 215.934C200.298 216.195 200.387 216.527 200.387 216.928ZM207.086 216.928C207.086 217.656 206.815 218.207 206.274 218.58C205.732 218.953 205.004 219.14 204.09 219.14C203.567 219.14 203.114 219.098 202.732 219.014C202.358 218.93 202.027 218.813 201.738 218.664V217.544C202.036 217.693 202.396 217.833 202.816 217.964C203.245 218.085 203.679 218.146 204.118 218.146C204.743 218.146 205.196 218.048 205.476 217.852C205.756 217.647 205.896 217.376 205.896 217.04C205.896 216.853 205.844 216.685 205.742 216.536C205.639 216.387 205.452 216.237 205.182 216.088C204.92 215.939 204.542 215.771 204.048 215.584C203.562 215.397 203.147 215.211 202.802 215.024C202.456 214.837 202.19 214.613 202.004 214.352C201.817 214.091 201.724 213.755 201.724 213.344C201.724 212.709 201.98 212.219 202.494 211.874C203.016 211.529 203.698 211.356 204.538 211.356C204.995 211.356 205.42 211.403 205.812 211.496C206.213 211.589 206.586 211.711 206.932 211.86L206.512 212.84C206.194 212.709 205.863 212.597 205.518 212.504C205.172 212.411 204.818 212.364 204.454 212.364C203.95 212.364 203.562 212.448 203.292 212.616C203.03 212.775 202.9 212.994 202.9 213.274C202.9 213.489 202.96 213.666 203.082 213.806C203.203 213.946 203.404 214.086 203.684 214.226C203.973 214.366 204.356 214.525 204.832 214.702C205.308 214.879 205.714 215.061 206.05 215.248C206.386 215.435 206.642 215.663 206.82 215.934C206.997 216.195 207.086 216.527 207.086 216.928ZM209.529 208.682C209.716 208.682 209.879 208.747 210.019 208.878C210.168 208.999 210.243 209.195 210.243 209.466C210.243 209.737 210.168 209.937 210.019 210.068C209.879 210.189 209.716 210.25 209.529 210.25C209.324 210.25 209.151 210.189 209.011 210.068C208.871 209.937 208.801 209.737 208.801 209.466C208.801 209.195 208.871 208.999 209.011 208.878C209.151 208.747 209.324 208.682 209.529 208.682ZM210.131 211.496V219H208.899V211.496H210.131ZM217.394 216.928C217.394 217.656 217.124 218.207 216.582 218.58C216.041 218.953 215.313 219.14 214.398 219.14C213.876 219.14 213.423 219.098 213.04 219.014C212.667 218.93 212.336 218.813 212.046 218.664V217.544C212.345 217.693 212.704 217.833 213.124 217.964C213.554 218.085 213.988 218.146 214.426 218.146C215.052 218.146 215.504 218.048 215.784 217.852C216.064 217.647 216.204 217.376 216.204 217.04C216.204 216.853 216.153 216.685 216.05 216.536C215.948 216.387 215.761 216.237 215.49 216.088C215.229 215.939 214.851 215.771 214.356 215.584C213.871 215.397 213.456 215.211 213.11 215.024C212.765 214.837 212.499 214.613 212.312 214.352C212.126 214.091 212.032 213.755 212.032 213.344C212.032 212.709 212.289 212.219 212.802 211.874C213.325 211.529 214.006 211.356 214.846 211.356C215.304 211.356 215.728 211.403 216.12 211.496C216.522 211.589 216.895 211.711 217.24 211.86L216.82 212.84C216.503 212.709 216.172 212.597 215.826 212.504C215.481 212.411 215.126 212.364 214.762 212.364C214.258 212.364 213.871 212.448 213.6 212.616C213.339 212.775 213.208 212.994 213.208 213.274C213.208 213.489 213.269 213.666 213.39 213.806C213.512 213.946 213.712 214.086 213.992 214.226C214.282 214.366 214.664 214.525 215.14 214.702C215.616 214.879 216.022 215.061 216.358 215.248C216.694 215.435 216.951 215.663 217.128 215.934C217.306 216.195 217.394 216.527 217.394 216.928ZM224.094 216.928C224.094 217.656 223.823 218.207 223.282 218.58C222.74 218.953 222.012 219.14 221.098 219.14C220.575 219.14 220.122 219.098 219.74 219.014C219.366 218.93 219.035 218.813 218.746 218.664V217.544C219.044 217.693 219.404 217.833 219.824 217.964C220.253 218.085 220.687 218.146 221.126 218.146C221.751 218.146 222.204 218.048 222.484 217.852C222.764 217.647 222.904 217.376 222.904 217.04C222.904 216.853 222.852 216.685 222.75 216.536C222.647 216.387 222.46 216.237 222.19 216.088C221.928 215.939 221.55 215.771 221.056 215.584C220.57 215.397 220.155 215.211 219.81 215.024C219.464 214.837 219.198 214.613 219.012 214.352C218.825 214.091 218.732 213.755 218.732 213.344C218.732 212.709 218.988 212.219 219.502 211.874C220.024 211.529 220.706 211.356 221.546 211.356C222.003 211.356 222.428 211.403 222.82 211.496C223.221 211.589 223.594 211.711 223.94 211.86L223.52 212.84C223.202 212.709 222.871 212.597 222.526 212.504C222.18 212.411 221.826 212.364 221.462 212.364C220.958 212.364 220.57 212.448 220.3 212.616C220.038 212.775 219.908 212.994 219.908 213.274C219.908 213.489 219.968 213.666 220.09 213.806C220.211 213.946 220.412 214.086 220.692 214.226C220.981 214.366 221.364 214.525 221.84 214.702C222.316 214.879 222.722 215.061 223.058 215.248C223.394 215.435 223.65 215.663 223.828 215.934C224.005 216.195 224.094 216.527 224.094 216.928ZM228.749 211.37C229.663 211.37 230.34 211.571 230.779 211.972C231.217 212.373 231.437 213.013 231.437 213.89V219H230.541L230.303 217.936H230.247C229.92 218.347 229.575 218.65 229.211 218.846C228.847 219.042 228.352 219.14 227.727 219.14C227.045 219.14 226.481 218.963 226.033 218.608C225.585 218.244 225.361 217.679 225.361 216.914C225.361 216.167 225.655 215.593 226.243 215.192C226.831 214.781 227.736 214.557 228.959 214.52L230.233 214.478V214.03C230.233 213.405 230.097 212.971 229.827 212.728C229.556 212.485 229.173 212.364 228.679 212.364C228.287 212.364 227.913 212.425 227.559 212.546C227.204 212.658 226.873 212.789 226.565 212.938L226.187 212.014C226.513 211.837 226.901 211.687 227.349 211.566C227.797 211.435 228.263 211.37 228.749 211.37ZM230.219 215.332L229.113 215.374C228.179 215.411 227.531 215.561 227.167 215.822C226.812 216.083 226.635 216.452 226.635 216.928C226.635 217.348 226.761 217.656 227.013 217.852C227.274 218.048 227.605 218.146 228.007 218.146C228.632 218.146 229.155 217.973 229.575 217.628C230.004 217.273 230.219 216.732 230.219 216.004V215.332ZM240.026 211.496V219H239.018L238.836 218.006H238.78C238.538 218.398 238.202 218.687 237.772 218.874C237.343 219.051 236.886 219.14 236.4 219.14C235.495 219.14 234.814 218.925 234.356 218.496C233.899 218.057 233.67 217.362 233.67 216.41V211.496H234.916V216.326C234.916 217.521 235.472 218.118 236.582 218.118C237.413 218.118 237.987 217.885 238.304 217.418C238.631 216.951 238.794 216.279 238.794 215.402V211.496H240.026ZM245.069 211.356C245.563 211.356 246.007 211.449 246.399 211.636C246.8 211.823 247.141 212.107 247.421 212.49H247.491L247.659 211.496H248.639V219.126C248.639 220.199 248.363 221.007 247.813 221.548C247.271 222.089 246.427 222.36 245.279 222.36C244.177 222.36 243.277 222.201 242.577 221.884V220.75C243.314 221.142 244.238 221.338 245.349 221.338C245.993 221.338 246.497 221.147 246.861 220.764C247.234 220.391 247.421 219.877 247.421 219.224V218.93C247.421 218.818 247.425 218.659 247.435 218.454C247.444 218.239 247.453 218.09 247.463 218.006H247.407C246.903 218.762 246.128 219.14 245.083 219.14C244.112 219.14 243.351 218.799 242.801 218.118C242.259 217.437 241.989 216.485 241.989 215.262C241.989 214.067 242.259 213.12 242.801 212.42C243.351 211.711 244.107 211.356 245.069 211.356ZM245.237 212.392C244.611 212.392 244.126 212.644 243.781 213.148C243.435 213.643 243.263 214.352 243.263 215.276C243.263 216.2 243.431 216.909 243.767 217.404C244.103 217.889 244.602 218.132 245.265 218.132C246.021 218.132 246.571 217.931 246.917 217.53C247.262 217.119 247.435 216.461 247.435 215.556V215.262C247.435 214.245 247.257 213.512 246.903 213.064C246.548 212.616 245.993 212.392 245.237 212.392ZM253.864 211.37C254.779 211.37 255.455 211.571 255.894 211.972C256.333 212.373 256.552 213.013 256.552 213.89V219H255.656L255.418 217.936H255.362C255.035 218.347 254.69 218.65 254.326 218.846C253.962 219.042 253.467 219.14 252.842 219.14C252.161 219.14 251.596 218.963 251.148 218.608C250.7 218.244 250.476 217.679 250.476 216.914C250.476 216.167 250.77 215.593 251.358 215.192C251.946 214.781 252.851 214.557 254.074 214.52L255.348 214.478V214.03C255.348 213.405 255.213 212.971 254.942 212.728C254.671 212.485 254.289 212.364 253.794 212.364C253.402 212.364 253.029 212.425 252.674 212.546C252.319 212.658 251.988 212.789 251.68 212.938L251.302 212.014C251.629 211.837 252.016 211.687 252.464 211.566C252.912 211.435 253.379 211.37 253.864 211.37ZM255.334 215.332L254.228 215.374C253.295 215.411 252.646 215.561 252.282 215.822C251.927 216.083 251.75 216.452 251.75 216.928C251.75 217.348 251.876 217.656 252.128 217.852C252.389 218.048 252.721 218.146 253.122 218.146C253.747 218.146 254.27 217.973 254.69 217.628C255.119 217.273 255.334 216.732 255.334 216.004V215.332Z" fill="black"/>
<rect x="130" y="234" width="16" height="16" rx="4" fill="#1B77AF"/>
<path d="M136.512 247.202C136.412 247.202 136.312 247.152 136.262 247.102L132.113 242.952C131.962 242.802 131.962 242.552 132.113 242.402C132.263 242.252 132.512 242.252 132.662 242.402L136.512 246.252L143.312 237.152C143.413 237.002 143.662 236.952 143.812 237.052C143.963 237.152 144.012 237.402 143.912 237.552L136.812 247.052C136.762 247.152 136.662 247.202 136.512 247.202Z" fill="white"/>
<path d="M164.08 241.988C164.08 243.211 163.833 244.256 163.338 245.124C162.853 245.983 162.129 246.571 161.168 246.888L163.562 249.38H161.756L159.824 247.126C159.768 247.126 159.707 247.126 159.642 247.126C159.586 247.135 159.53 247.14 159.474 247.14C158.438 247.14 157.575 246.925 156.884 246.496C156.203 246.067 155.694 245.465 155.358 244.69C155.022 243.915 154.854 243.01 154.854 241.974C154.854 240.957 155.022 240.065 155.358 239.3C155.694 238.525 156.203 237.923 156.884 237.494C157.575 237.065 158.443 236.85 159.488 236.85C160.487 236.85 161.327 237.065 162.008 237.494C162.689 237.914 163.203 238.511 163.548 239.286C163.903 240.051 164.08 240.952 164.08 241.988ZM156.184 241.988C156.184 243.248 156.45 244.242 156.982 244.97C157.514 245.689 158.345 246.048 159.474 246.048C160.603 246.048 161.429 245.689 161.952 244.97C162.484 244.242 162.75 243.248 162.75 241.988C162.75 240.728 162.489 239.743 161.966 239.034C161.443 238.315 160.617 237.956 159.488 237.956C158.349 237.956 157.514 238.315 156.982 239.034C156.45 239.743 156.184 240.728 156.184 241.988ZM172.4 239.496V247H171.392L171.21 246.006H171.154C170.911 246.398 170.575 246.687 170.146 246.874C169.716 247.051 169.259 247.14 168.774 247.14C167.868 247.14 167.187 246.925 166.73 246.496C166.272 246.057 166.044 245.362 166.044 244.41V239.496H167.29V244.326C167.29 245.521 167.845 246.118 168.956 246.118C169.786 246.118 170.36 245.885 170.678 245.418C171.004 244.951 171.168 244.279 171.168 243.402V239.496H172.4ZM177.68 239.356C178.314 239.356 178.865 239.496 179.332 239.776C179.798 240.056 180.153 240.453 180.396 240.966C180.648 241.47 180.774 242.063 180.774 242.744V243.486H175.636C175.654 244.335 175.869 244.984 176.28 245.432C176.7 245.871 177.283 246.09 178.03 246.09C178.506 246.09 178.926 246.048 179.29 245.964C179.663 245.871 180.046 245.74 180.438 245.572V246.65C180.055 246.818 179.677 246.939 179.304 247.014C178.93 247.098 178.487 247.14 177.974 247.14C177.255 247.14 176.625 246.995 176.084 246.706C175.542 246.417 175.118 245.987 174.81 245.418C174.511 244.849 174.362 244.144 174.362 243.304C174.362 242.483 174.497 241.778 174.768 241.19C175.048 240.602 175.435 240.149 175.93 239.832C176.434 239.515 177.017 239.356 177.68 239.356ZM177.666 240.364C177.078 240.364 176.611 240.555 176.266 240.938C175.93 241.311 175.729 241.834 175.664 242.506H179.486C179.476 241.871 179.327 241.358 179.038 240.966C178.748 240.565 178.291 240.364 177.666 240.364ZM183.916 236.36V238.95C183.916 239.267 183.907 239.566 183.888 239.846C183.879 240.117 183.865 240.331 183.846 240.49H183.916C184.131 240.173 184.425 239.907 184.798 239.692C185.171 239.477 185.652 239.37 186.24 239.37C187.173 239.37 187.92 239.697 188.48 240.35C189.049 240.994 189.334 241.96 189.334 243.248C189.334 244.536 189.049 245.507 188.48 246.16C187.911 246.813 187.164 247.14 186.24 247.14C185.652 247.14 185.171 247.033 184.798 246.818C184.425 246.603 184.131 246.347 183.916 246.048H183.818L183.566 247H182.684V236.36H183.916ZM186.03 240.392C185.227 240.392 184.672 240.621 184.364 241.078C184.065 241.535 183.916 242.245 183.916 243.206V243.262C183.916 244.186 184.065 244.895 184.364 245.39C184.672 245.875 185.237 246.118 186.058 246.118C186.73 246.118 187.229 245.871 187.556 245.376C187.892 244.881 188.06 244.167 188.06 243.234C188.06 241.339 187.383 240.392 186.03 240.392ZM194.195 239.356C194.83 239.356 195.381 239.496 195.847 239.776C196.314 240.056 196.669 240.453 196.911 240.966C197.163 241.47 197.289 242.063 197.289 242.744V243.486H192.151C192.17 244.335 192.385 244.984 192.795 245.432C193.215 245.871 193.799 246.09 194.545 246.09C195.021 246.09 195.441 246.048 195.805 245.964C196.179 245.871 196.561 245.74 196.953 245.572V246.65C196.571 246.818 196.193 246.939 195.819 247.014C195.446 247.098 195.003 247.14 194.489 247.14C193.771 247.14 193.141 246.995 192.599 246.706C192.058 246.417 191.633 245.987 191.325 245.418C191.027 244.849 190.877 244.144 190.877 243.304C190.877 242.483 191.013 241.778 191.283 241.19C191.563 240.602 191.951 240.149 192.445 239.832C192.949 239.515 193.533 239.356 194.195 239.356ZM194.181 240.364C193.593 240.364 193.127 240.555 192.781 240.938C192.445 241.311 192.245 241.834 192.179 242.506H196.001C195.992 241.871 195.843 241.358 195.553 240.966C195.264 240.565 194.807 240.364 194.181 240.364ZM202.21 247.14C201.538 247.14 200.945 247.005 200.432 246.734C199.918 246.463 199.512 246.043 199.214 245.474C198.924 244.905 198.78 244.177 198.78 243.29C198.78 242.366 198.929 241.615 199.228 241.036C199.536 240.457 199.956 240.033 200.488 239.762C201.02 239.491 201.622 239.356 202.294 239.356C202.667 239.356 203.031 239.398 203.386 239.482C203.75 239.557 204.044 239.65 204.268 239.762L203.89 240.784C203.666 240.7 203.404 240.621 203.106 240.546C202.807 240.471 202.527 240.434 202.266 240.434C200.791 240.434 200.054 241.381 200.054 243.276C200.054 244.181 200.231 244.877 200.586 245.362C200.95 245.838 201.486 246.076 202.196 246.076C202.597 246.076 202.956 246.034 203.274 245.95C203.591 245.866 203.88 245.763 204.142 245.642V246.734C203.89 246.865 203.61 246.963 203.302 247.028C203.003 247.103 202.639 247.14 202.21 247.14Z" fill="black"/>
<rect x="130" y="262" width="16" height="16" rx="4" fill="white"/>
<rect x="130.5" y="262.5" width="15" height="15" rx="3.5" stroke="#1B77AF"/>
<path d="M159.768 275L156.478 266.236H156.422C156.45 266.525 156.473 266.917 156.492 267.412C156.511 267.897 156.52 268.406 156.52 268.938V275H155.358V265.004H157.22L160.3 273.194H160.356L163.492 265.004H165.34V275H164.094V268.854C164.094 268.369 164.103 267.888 164.122 267.412C164.15 266.936 164.173 266.549 164.192 266.25H164.136L160.804 275H159.768ZM170.733 267.37C171.648 267.37 172.325 267.571 172.763 267.972C173.202 268.373 173.421 269.013 173.421 269.89V275H172.525L172.287 273.936H172.231C171.905 274.347 171.559 274.65 171.195 274.846C170.831 275.042 170.337 275.14 169.711 275.14C169.03 275.14 168.465 274.963 168.017 274.608C167.569 274.244 167.345 273.679 167.345 272.914C167.345 272.167 167.639 271.593 168.227 271.192C168.815 270.781 169.721 270.557 170.943 270.52L172.217 270.478V270.03C172.217 269.405 172.082 268.971 171.811 268.728C171.541 268.485 171.158 268.364 170.663 268.364C170.271 268.364 169.898 268.425 169.543 268.546C169.189 268.658 168.857 268.789 168.549 268.938L168.171 268.014C168.498 267.837 168.885 267.687 169.333 267.566C169.781 267.435 170.248 267.37 170.733 267.37ZM172.203 271.332L171.097 271.374C170.164 271.411 169.515 271.561 169.151 271.822C168.797 272.083 168.619 272.452 168.619 272.928C168.619 273.348 168.745 273.656 168.997 273.852C169.259 274.048 169.59 274.146 169.991 274.146C170.617 274.146 171.139 273.973 171.559 273.628C171.989 273.273 172.203 272.732 172.203 272.004V271.332ZM179.351 267.356C180.247 267.356 180.923 267.575 181.381 268.014C181.838 268.453 182.067 269.153 182.067 270.114V275H180.849V270.198C180.849 268.994 180.289 268.392 179.169 268.392C178.338 268.392 177.764 268.625 177.447 269.092C177.129 269.559 176.971 270.231 176.971 271.108V275H175.739V267.496H176.733L176.915 268.518H176.985C177.227 268.126 177.563 267.837 177.993 267.65C178.422 267.454 178.875 267.356 179.351 267.356ZM185.023 264.682C185.21 264.682 185.373 264.747 185.513 264.878C185.662 264.999 185.737 265.195 185.737 265.466C185.737 265.737 185.662 265.937 185.513 266.068C185.373 266.189 185.21 266.25 185.023 266.25C184.818 266.25 184.645 266.189 184.505 266.068C184.365 265.937 184.295 265.737 184.295 265.466C184.295 265.195 184.365 264.999 184.505 264.878C184.645 264.747 184.818 264.682 185.023 264.682ZM185.625 267.496V275H184.393V267.496H185.625ZM190.508 274.132C190.695 274.132 190.887 274.118 191.083 274.09C191.279 274.062 191.437 274.025 191.559 273.978V274.916C191.428 274.981 191.241 275.033 190.999 275.07C190.756 275.117 190.523 275.14 190.299 275.14C189.907 275.14 189.543 275.075 189.207 274.944C188.88 274.804 188.614 274.566 188.409 274.23C188.203 273.894 188.101 273.423 188.101 272.816V268.448H187.037V267.86L188.115 267.37L188.605 265.774H189.333V267.496H191.503V268.448H189.333V272.788C189.333 273.245 189.44 273.586 189.655 273.81C189.879 274.025 190.163 274.132 190.508 274.132ZM199.585 271.234C199.585 272.475 199.268 273.437 198.633 274.118C198.008 274.799 197.158 275.14 196.085 275.14C195.422 275.14 194.83 274.991 194.307 274.692C193.794 274.384 193.388 273.941 193.089 273.362C192.79 272.774 192.641 272.065 192.641 271.234C192.641 269.993 192.949 269.036 193.565 268.364C194.19 267.692 195.044 267.356 196.127 267.356C196.799 267.356 197.396 267.51 197.919 267.818C198.442 268.117 198.848 268.555 199.137 269.134C199.436 269.703 199.585 270.403 199.585 271.234ZM193.915 271.234C193.915 272.121 194.088 272.825 194.433 273.348C194.788 273.861 195.348 274.118 196.113 274.118C196.869 274.118 197.424 273.861 197.779 273.348C198.134 272.825 198.311 272.121 198.311 271.234C198.311 270.347 198.134 269.652 197.779 269.148C197.424 268.644 196.864 268.392 196.099 268.392C195.334 268.392 194.778 268.644 194.433 269.148C194.088 269.652 193.915 270.347 193.915 271.234ZM202.77 264.36V266.95C202.77 267.267 202.76 267.566 202.742 267.846C202.732 268.117 202.718 268.331 202.7 268.49H202.77C202.984 268.173 203.278 267.907 203.652 267.692C204.025 267.477 204.506 267.37 205.094 267.37C206.027 267.37 206.774 267.697 207.334 268.35C207.903 268.994 208.188 269.96 208.188 271.248C208.188 272.536 207.903 273.507 207.334 274.16C206.764 274.813 206.018 275.14 205.094 275.14C204.506 275.14 204.025 275.033 203.652 274.818C203.278 274.603 202.984 274.347 202.77 274.048H202.672L202.42 275H201.538V264.36H202.77ZM204.884 268.392C204.081 268.392 203.526 268.621 203.218 269.078C202.919 269.535 202.77 270.245 202.77 271.206V271.262C202.77 272.186 202.919 272.895 203.218 273.39C203.526 273.875 204.09 274.118 204.912 274.118C205.584 274.118 206.083 273.871 206.41 273.376C206.746 272.881 206.914 272.167 206.914 271.234C206.914 269.339 206.237 268.392 204.884 268.392ZM212.993 267.37C213.908 267.37 214.584 267.571 215.023 267.972C215.462 268.373 215.681 269.013 215.681 269.89V275H214.785L214.547 273.936H214.491C214.164 274.347 213.819 274.65 213.455 274.846C213.091 275.042 212.596 275.14 211.971 275.14C211.29 275.14 210.725 274.963 210.277 274.608C209.829 274.244 209.605 273.679 209.605 272.914C209.605 272.167 209.899 271.593 210.487 271.192C211.075 270.781 211.98 270.557 213.203 270.52L214.477 270.478V270.03C214.477 269.405 214.342 268.971 214.071 268.728C213.8 268.485 213.418 268.364 212.923 268.364C212.531 268.364 212.158 268.425 211.803 268.546C211.448 268.658 211.117 268.789 210.809 268.938L210.431 268.014C210.758 267.837 211.145 267.687 211.593 267.566C212.041 267.435 212.508 267.37 212.993 267.37ZM214.463 271.332L213.357 271.374C212.424 271.411 211.775 271.561 211.411 271.822C211.056 272.083 210.879 272.452 210.879 272.928C210.879 273.348 211.005 273.656 211.257 273.852C211.518 274.048 211.85 274.146 212.251 274.146C212.876 274.146 213.399 273.973 213.819 273.628C214.248 273.273 214.463 272.732 214.463 272.004V271.332Z" fill="black"/>
</svg>
