<svg width="412" height="200" viewBox="0 0 412 200" fill="none" xmlns="http://www.w3.org/2000/svg">
<rect width="412" height="200" fill="white"/>
<rect x="78" y="92" width="16" height="16" rx="4" fill="#1B77AF"/>
<path d="M84.5125 105.202C84.4125 105.202 84.3125 105.152 84.2625 105.102L80.1125 100.952C79.9625 100.802 79.9625 100.552 80.1125 100.402C80.2625 100.252 80.5125 100.252 80.6625 100.402L84.5125 104.252L91.3125 95.152C91.4125 95.002 91.6625 94.952 91.8125 95.052C91.9625 95.152 92.0125 95.402 91.9125 95.552L84.8125 105.052C84.7625 105.152 84.6625 105.202 84.5125 105.202Z" fill="white"/>
<path d="M106.172 105H102.56V104.272L103.736 104.006V96.012L102.56 95.732V95.004H106.172V95.732L104.996 96.012V104.006L106.172 104.272V105ZM114.413 97.37C115.328 97.37 116.004 97.5707 116.443 97.972C116.882 98.3733 117.101 99.0127 117.101 99.89V105H116.205L115.967 103.936H115.911C115.584 104.347 115.239 104.65 114.875 104.846C114.511 105.042 114.016 105.14 113.391 105.14C112.71 105.14 112.145 104.963 111.697 104.608C111.249 104.244 111.025 103.679 111.025 102.914C111.025 102.167 111.319 101.593 111.907 101.192C112.495 100.781 113.4 100.557 114.623 100.52L115.897 100.478V100.03C115.897 99.4047 115.762 98.9707 115.491 98.728C115.22 98.4853 114.838 98.364 114.343 98.364C113.951 98.364 113.578 98.4247 113.223 98.546C112.868 98.658 112.537 98.7887 112.229 98.938L111.851 98.014C112.178 97.8367 112.565 97.6873 113.013 97.566C113.461 97.4353 113.928 97.37 114.413 97.37ZM115.883 101.332L114.777 101.374C113.844 101.411 113.195 101.561 112.831 101.822C112.476 102.083 112.299 102.452 112.299 102.928C112.299 103.348 112.425 103.656 112.677 103.852C112.938 104.048 113.27 104.146 113.671 104.146C114.296 104.146 114.819 103.973 115.239 103.628C115.668 103.273 115.883 102.732 115.883 102.004V101.332ZM122.079 97.356C122.573 97.356 123.017 97.4493 123.409 97.636C123.81 97.8227 124.151 98.1073 124.431 98.49H124.501L124.669 97.496H125.649V105.126C125.649 106.199 125.373 107.007 124.823 107.548C124.281 108.089 123.437 108.36 122.289 108.36C121.187 108.36 120.287 108.201 119.587 107.884V106.75C120.324 107.142 121.248 107.338 122.359 107.338C123.003 107.338 123.507 107.147 123.871 106.764C124.244 106.391 124.431 105.877 124.431 105.224V104.93C124.431 104.818 124.435 104.659 124.445 104.454C124.454 104.239 124.463 104.09 124.473 104.006H124.417C123.913 104.762 123.138 105.14 122.093 105.14C121.122 105.14 120.361 104.799 119.811 104.118C119.269 103.437 118.999 102.485 118.999 101.262C118.999 100.067 119.269 99.12 119.811 98.42C120.361 97.7107 121.117 97.356 122.079 97.356ZM122.247 98.392C121.621 98.392 121.136 98.644 120.791 99.148C120.445 99.6427 120.273 100.352 120.273 101.276C120.273 102.2 120.441 102.909 120.777 103.404C121.113 103.889 121.612 104.132 122.275 104.132C123.031 104.132 123.581 103.931 123.927 103.53C124.272 103.119 124.445 102.461 124.445 101.556V101.262C124.445 100.245 124.267 99.512 123.913 99.064C123.558 98.616 123.003 98.392 122.247 98.392ZM131.532 97.356C131.672 97.356 131.821 97.3653 131.98 97.384C132.138 97.3933 132.283 97.412 132.414 97.44L132.26 98.574C132.138 98.546 132.003 98.5227 131.854 98.504C131.704 98.4853 131.569 98.476 131.448 98.476C131.065 98.476 130.706 98.5833 130.37 98.798C130.034 99.0033 129.763 99.2973 129.558 99.68C129.362 100.053 129.264 100.492 129.264 100.996V105H128.032V97.496H129.04L129.18 98.868H129.236C129.469 98.4573 129.777 98.1027 130.16 97.804C130.552 97.5053 131.009 97.356 131.532 97.356ZM136.44 97.356C137.074 97.356 137.625 97.496 138.092 97.776C138.558 98.056 138.913 98.4527 139.156 98.966C139.408 99.47 139.534 100.063 139.534 100.744V101.486H134.396C134.414 102.335 134.629 102.984 135.04 103.432C135.46 103.871 136.043 104.09 136.79 104.09C137.266 104.09 137.686 104.048 138.05 103.964C138.423 103.871 138.806 103.74 139.198 103.572V104.65C138.815 104.818 138.437 104.939 138.064 105.014C137.69 105.098 137.247 105.14 136.734 105.14C136.015 105.14 135.385 104.995 134.844 104.706C134.302 104.417 133.878 103.987 133.57 103.418C133.271 102.849 133.122 102.144 133.122 101.304C133.122 100.483 133.257 99.778 133.528 99.19C133.808 98.602 134.195 98.1493 134.69 97.832C135.194 97.5147 135.777 97.356 136.44 97.356ZM136.426 98.364C135.838 98.364 135.371 98.5553 135.026 98.938C134.69 99.3113 134.489 99.834 134.424 100.506H138.246C138.236 99.8713 138.087 99.358 137.798 98.966C137.508 98.5647 137.051 98.364 136.426 98.364ZM144.342 97.356C144.977 97.356 145.527 97.496 145.994 97.776C146.461 98.056 146.815 98.4527 147.058 98.966C147.31 99.47 147.436 100.063 147.436 100.744V101.486H142.298C142.317 102.335 142.531 102.984 142.942 103.432C143.362 103.871 143.945 104.09 144.692 104.09C145.168 104.09 145.588 104.048 145.952 103.964C146.325 103.871 146.708 103.74 147.1 103.572V104.65C146.717 104.818 146.339 104.939 145.966 105.014C145.593 105.098 145.149 105.14 144.636 105.14C143.917 105.14 143.287 104.995 142.746 104.706C142.205 104.417 141.78 103.987 141.472 103.418C141.173 102.849 141.024 102.144 141.024 101.304C141.024 100.483 141.159 99.778 141.43 99.19C141.71 98.602 142.097 98.1493 142.592 97.832C143.096 97.5147 143.679 97.356 144.342 97.356ZM144.328 98.364C143.74 98.364 143.273 98.5553 142.928 98.938C142.592 99.3113 142.391 99.834 142.326 100.506H146.148C146.139 99.8713 145.989 99.358 145.7 98.966C145.411 98.5647 144.953 98.364 144.328 98.364ZM155.489 104.132C155.676 104.132 155.867 104.118 156.063 104.09C156.259 104.062 156.418 104.025 156.539 103.978V104.916C156.408 104.981 156.222 105.033 155.979 105.07C155.736 105.117 155.503 105.14 155.279 105.14C154.887 105.14 154.523 105.075 154.187 104.944C153.86 104.804 153.594 104.566 153.389 104.23C153.184 103.894 153.081 103.423 153.081 102.816V98.448H152.017V97.86L153.095 97.37L153.585 95.774H154.313V97.496H156.483V98.448H154.313V102.788C154.313 103.245 154.42 103.586 154.635 103.81C154.859 104.025 155.144 104.132 155.489 104.132ZM164.566 101.234C164.566 102.475 164.248 103.437 163.614 104.118C162.988 104.799 162.139 105.14 161.066 105.14C160.403 105.14 159.81 104.991 159.288 104.692C158.774 104.384 158.368 103.941 158.07 103.362C157.771 102.774 157.622 102.065 157.622 101.234C157.622 99.9927 157.93 99.036 158.546 98.364C159.171 97.692 160.025 97.356 161.108 97.356C161.78 97.356 162.377 97.51 162.9 97.818C163.422 98.1167 163.828 98.5553 164.118 99.134C164.416 99.7033 164.566 100.403 164.566 101.234ZM158.896 101.234C158.896 102.121 159.068 102.825 159.414 103.348C159.768 103.861 160.328 104.118 161.094 104.118C161.85 104.118 162.405 103.861 162.76 103.348C163.114 102.825 163.292 102.121 163.292 101.234C163.292 100.347 163.114 99.652 162.76 99.148C162.405 98.644 161.845 98.392 161.08 98.392C160.314 98.392 159.759 98.644 159.414 99.148C159.068 99.652 158.896 100.347 158.896 101.234ZM172.661 104.132C172.848 104.132 173.039 104.118 173.235 104.09C173.431 104.062 173.59 104.025 173.711 103.978V104.916C173.58 104.981 173.394 105.033 173.151 105.07C172.908 105.117 172.675 105.14 172.451 105.14C172.059 105.14 171.695 105.075 171.359 104.944C171.032 104.804 170.766 104.566 170.561 104.23C170.356 103.894 170.253 103.423 170.253 102.816V98.448H169.189V97.86L170.267 97.37L170.757 95.774H171.485V97.496H173.655V98.448H171.485V102.788C171.485 103.245 171.592 103.586 171.807 103.81C172.031 104.025 172.316 104.132 172.661 104.132ZM176.445 94.36V97.482C176.445 97.8553 176.422 98.2053 176.375 98.532H176.459C176.702 98.1493 177.029 97.86 177.439 97.664C177.859 97.468 178.312 97.37 178.797 97.37C179.703 97.37 180.384 97.5893 180.841 98.028C181.308 98.4573 181.541 99.1527 181.541 100.114V105H180.323V100.198C180.323 98.994 179.763 98.392 178.643 98.392C177.803 98.392 177.225 98.63 176.907 99.106C176.599 99.5727 176.445 100.245 176.445 101.122V105H175.213V94.36H176.445ZM186.766 97.356C187.4 97.356 187.951 97.496 188.418 97.776C188.884 98.056 189.239 98.4527 189.482 98.966C189.734 99.47 189.86 100.063 189.86 100.744V101.486H184.722C184.74 102.335 184.955 102.984 185.366 103.432C185.786 103.871 186.369 104.09 187.116 104.09C187.592 104.09 188.012 104.048 188.376 103.964C188.749 103.871 189.132 103.74 189.524 103.572V104.65C189.141 104.818 188.763 104.939 188.39 105.014C188.016 105.098 187.573 105.14 187.06 105.14C186.341 105.14 185.711 104.995 185.17 104.706C184.628 104.417 184.204 103.987 183.896 103.418C183.597 102.849 183.448 102.144 183.448 101.304C183.448 100.483 183.583 99.778 183.854 99.19C184.134 98.602 184.521 98.1493 185.016 97.832C185.52 97.5147 186.103 97.356 186.766 97.356ZM186.752 98.364C186.164 98.364 185.697 98.5553 185.352 98.938C185.016 99.3113 184.815 99.834 184.75 100.506H188.572C188.562 99.8713 188.413 99.358 188.124 98.966C187.834 98.5647 187.377 98.364 186.752 98.364ZM197.913 104.132C198.099 104.132 198.291 104.118 198.487 104.09C198.683 104.062 198.841 104.025 198.963 103.978V104.916C198.832 104.981 198.645 105.033 198.403 105.07C198.16 105.117 197.927 105.14 197.703 105.14C197.311 105.14 196.947 105.075 196.611 104.944C196.284 104.804 196.018 104.566 195.813 104.23C195.607 103.894 195.505 103.423 195.505 102.816V98.448H194.441V97.86L195.519 97.37L196.009 95.774H196.737V97.496H198.907V98.448H196.737V102.788C196.737 103.245 196.844 103.586 197.059 103.81C197.283 104.025 197.567 104.132 197.913 104.132ZM203.363 97.356C203.998 97.356 204.549 97.496 205.015 97.776C205.482 98.056 205.837 98.4527 206.079 98.966C206.331 99.47 206.457 100.063 206.457 100.744V101.486H201.319C201.338 102.335 201.553 102.984 201.963 103.432C202.383 103.871 202.967 104.09 203.713 104.09C204.189 104.09 204.609 104.048 204.973 103.964C205.347 103.871 205.729 103.74 206.121 103.572V104.65C205.739 104.818 205.361 104.939 204.987 105.014C204.614 105.098 204.171 105.14 203.657 105.14C202.939 105.14 202.309 104.995 201.767 104.706C201.226 104.417 200.801 103.987 200.493 103.418C200.195 102.849 200.045 102.144 200.045 101.304C200.045 100.483 200.181 99.778 200.451 99.19C200.731 98.602 201.119 98.1493 201.613 97.832C202.117 97.5147 202.701 97.356 203.363 97.356ZM203.349 98.364C202.761 98.364 202.295 98.5553 201.949 98.938C201.613 99.3113 201.413 99.834 201.347 100.506H205.169C205.16 99.8713 205.011 99.358 204.721 98.966C204.432 98.5647 203.975 98.364 203.349 98.364ZM211.868 97.356C212.008 97.356 212.157 97.3653 212.316 97.384C212.474 97.3933 212.619 97.412 212.75 97.44L212.596 98.574C212.474 98.546 212.339 98.5227 212.19 98.504C212.04 98.4853 211.905 98.476 211.784 98.476C211.401 98.476 211.042 98.5833 210.706 98.798C210.37 99.0033 210.099 99.2973 209.894 99.68C209.698 100.053 209.6 100.492 209.6 100.996V105H208.368V97.496H209.376L209.516 98.868H209.572C209.805 98.4573 210.113 98.1027 210.496 97.804C210.888 97.5053 211.345 97.356 211.868 97.356ZM222.383 97.356C223.232 97.356 223.867 97.5753 224.287 98.014C224.707 98.4527 224.917 99.1527 224.917 100.114V105H223.699V100.17C223.699 98.9847 223.19 98.392 222.173 98.392C221.445 98.392 220.922 98.602 220.605 99.022C220.297 99.442 220.143 100.053 220.143 100.856V105H218.925V100.17C218.925 98.9847 218.412 98.392 217.385 98.392C216.629 98.392 216.106 98.6253 215.817 99.092C215.528 99.5587 215.383 100.231 215.383 101.108V105H214.151V97.496H215.145L215.327 98.518H215.397C215.63 98.126 215.943 97.8367 216.335 97.65C216.736 97.454 217.161 97.356 217.609 97.356C218.785 97.356 219.55 97.776 219.905 98.616H219.975C220.227 98.1867 220.568 97.8693 220.997 97.664C221.426 97.4587 221.888 97.356 222.383 97.356ZM232.121 102.928C232.121 103.656 231.85 104.207 231.309 104.58C230.768 104.953 230.04 105.14 229.125 105.14C228.602 105.14 228.15 105.098 227.767 105.014C227.394 104.93 227.062 104.813 226.773 104.664V103.544C227.072 103.693 227.431 103.833 227.851 103.964C228.28 104.085 228.714 104.146 229.153 104.146C229.778 104.146 230.231 104.048 230.511 103.852C230.791 103.647 230.931 103.376 230.931 103.04C230.931 102.853 230.88 102.685 230.777 102.536C230.674 102.387 230.488 102.237 230.217 102.088C229.956 101.939 229.578 101.771 229.083 101.584C228.598 101.397 228.182 101.211 227.837 101.024C227.492 100.837 227.226 100.613 227.039 100.352C226.852 100.091 226.759 99.7547 226.759 99.344C226.759 98.7093 227.016 98.2193 227.529 97.874C228.052 97.5287 228.733 97.356 229.573 97.356C230.03 97.356 230.455 97.4027 230.847 97.496C231.248 97.5893 231.622 97.7107 231.967 97.86L231.547 98.84C231.23 98.7093 230.898 98.5973 230.553 98.504C230.208 98.4107 229.853 98.364 229.489 98.364C228.985 98.364 228.598 98.448 228.327 98.616C228.066 98.7747 227.935 98.994 227.935 99.274C227.935 99.4887 227.996 99.666 228.117 99.806C228.238 99.946 228.439 100.086 228.719 100.226C229.008 100.366 229.391 100.525 229.867 100.702C230.343 100.879 230.749 101.061 231.085 101.248C231.421 101.435 231.678 101.663 231.855 101.934C232.032 102.195 232.121 102.527 232.121 102.928ZM240.413 97.37C241.328 97.37 242.004 97.5707 242.443 97.972C242.882 98.3733 243.101 99.0127 243.101 99.89V105H242.205L241.967 103.936H241.911C241.584 104.347 241.239 104.65 240.875 104.846C240.511 105.042 240.016 105.14 239.391 105.14C238.71 105.14 238.145 104.963 237.697 104.608C237.249 104.244 237.025 103.679 237.025 102.914C237.025 102.167 237.319 101.593 237.907 101.192C238.495 100.781 239.4 100.557 240.623 100.52L241.897 100.478V100.03C241.897 99.4047 241.762 98.9707 241.491 98.728C241.22 98.4853 240.838 98.364 240.343 98.364C239.951 98.364 239.578 98.4247 239.223 98.546C238.868 98.658 238.537 98.7887 238.229 98.938L237.851 98.014C238.178 97.8367 238.565 97.6873 239.013 97.566C239.461 97.4353 239.928 97.37 240.413 97.37ZM241.883 101.332L240.777 101.374C239.844 101.411 239.195 101.561 238.831 101.822C238.476 102.083 238.299 102.452 238.299 102.928C238.299 103.348 238.425 103.656 238.677 103.852C238.938 104.048 239.27 104.146 239.671 104.146C240.296 104.146 240.819 103.973 241.239 103.628C241.668 103.273 241.883 102.732 241.883 102.004V101.332ZM249.031 97.356C249.927 97.356 250.603 97.5753 251.061 98.014C251.518 98.4527 251.747 99.1527 251.747 100.114V105H250.529V100.198C250.529 98.994 249.969 98.392 248.849 98.392C248.018 98.392 247.444 98.6253 247.127 99.092C246.809 99.5587 246.651 100.231 246.651 101.108V105H245.419V97.496H246.413L246.595 98.518H246.665C246.907 98.126 247.243 97.8367 247.673 97.65C248.102 97.454 248.555 97.356 249.031 97.356ZM256.733 105.14C255.799 105.14 255.053 104.818 254.493 104.174C253.933 103.521 253.653 102.55 253.653 101.262C253.653 99.974 253.933 99.0033 254.493 98.35C255.062 97.6873 255.813 97.356 256.747 97.356C257.325 97.356 257.797 97.4633 258.161 97.678C258.534 97.8927 258.837 98.154 259.071 98.462H259.155C259.136 98.3407 259.117 98.1633 259.099 97.93C259.08 97.6873 259.071 97.496 259.071 97.356V94.36H260.303V105H259.309L259.127 103.992H259.071C258.847 104.309 258.548 104.58 258.175 104.804C257.801 105.028 257.321 105.14 256.733 105.14ZM256.929 104.118C257.722 104.118 258.277 103.903 258.595 103.474C258.921 103.035 259.085 102.377 259.085 101.5V101.276C259.085 100.343 258.931 99.6287 258.623 99.134C258.315 98.63 257.745 98.378 256.915 98.378C256.252 98.378 255.753 98.644 255.417 99.176C255.09 99.6987 254.927 100.403 254.927 101.29C254.927 102.186 255.09 102.881 255.417 103.376C255.753 103.871 256.257 104.118 256.929 104.118ZM269.333 105.14C268.661 105.14 268.068 105.005 267.555 104.734C267.041 104.463 266.635 104.043 266.337 103.474C266.047 102.905 265.903 102.177 265.903 101.29C265.903 100.366 266.052 99.6147 266.351 99.036C266.659 98.4573 267.079 98.0327 267.611 97.762C268.143 97.4913 268.745 97.356 269.417 97.356C269.79 97.356 270.154 97.398 270.509 97.482C270.873 97.5567 271.167 97.65 271.391 97.762L271.013 98.784C270.789 98.7 270.527 98.6207 270.229 98.546C269.93 98.4713 269.65 98.434 269.389 98.434C267.914 98.434 267.177 99.3813 267.177 101.276C267.177 102.181 267.354 102.877 267.709 103.362C268.073 103.838 268.609 104.076 269.319 104.076C269.72 104.076 270.079 104.034 270.397 103.95C270.714 103.866 271.003 103.763 271.265 103.642V104.734C271.013 104.865 270.733 104.963 270.425 105.028C270.126 105.103 269.762 105.14 269.333 105.14ZM279.573 101.234C279.573 102.475 279.256 103.437 278.621 104.118C277.996 104.799 277.147 105.14 276.073 105.14C275.411 105.14 274.818 104.991 274.295 104.692C273.782 104.384 273.376 103.941 273.077 103.362C272.779 102.774 272.629 102.065 272.629 101.234C272.629 99.9927 272.937 99.036 273.553 98.364C274.179 97.692 275.033 97.356 276.115 97.356C276.787 97.356 277.385 97.51 277.907 97.818C278.43 98.1167 278.836 98.5553 279.125 99.134C279.424 99.7033 279.573 100.403 279.573 101.234ZM273.903 101.234C273.903 102.121 274.076 102.825 274.421 103.348C274.776 103.861 275.336 104.118 276.101 104.118C276.857 104.118 277.413 103.861 277.767 103.348C278.122 102.825 278.299 102.121 278.299 101.234C278.299 100.347 278.122 99.652 277.767 99.148C277.413 98.644 276.853 98.392 276.087 98.392C275.322 98.392 274.767 98.644 274.421 99.148C274.076 99.652 273.903 100.347 273.903 101.234ZM285.138 97.356C286.034 97.356 286.711 97.5753 287.168 98.014C287.625 98.4527 287.854 99.1527 287.854 100.114V105H286.636V100.198C286.636 98.994 286.076 98.392 284.956 98.392C284.125 98.392 283.551 98.6253 283.234 99.092C282.917 99.5587 282.758 100.231 282.758 101.108V105H281.526V97.496H282.52L282.702 98.518H282.772C283.015 98.126 283.351 97.8367 283.78 97.65C284.209 97.454 284.662 97.356 285.138 97.356ZM292.84 105.14C291.907 105.14 291.16 104.818 290.6 104.174C290.04 103.521 289.76 102.55 289.76 101.262C289.76 99.974 290.04 99.0033 290.6 98.35C291.17 97.6873 291.921 97.356 292.854 97.356C293.433 97.356 293.904 97.4633 294.268 97.678C294.642 97.8927 294.945 98.154 295.178 98.462H295.262C295.244 98.3407 295.225 98.1633 295.206 97.93C295.188 97.6873 295.178 97.496 295.178 97.356V94.36H296.41V105H295.416L295.234 103.992H295.178C294.954 104.309 294.656 104.58 294.282 104.804C293.909 105.028 293.428 105.14 292.84 105.14ZM293.036 104.118C293.83 104.118 294.385 103.903 294.702 103.474C295.029 103.035 295.192 102.377 295.192 101.5V101.276C295.192 100.343 295.038 99.6287 294.73 99.134C294.422 98.63 293.853 98.378 293.022 98.378C292.36 98.378 291.86 98.644 291.524 99.176C291.198 99.6987 291.034 100.403 291.034 101.29C291.034 102.186 291.198 102.881 291.524 103.376C291.86 103.871 292.364 104.118 293.036 104.118ZM299.424 94.682C299.61 94.682 299.774 94.7473 299.914 94.878C300.063 94.9993 300.138 95.1953 300.138 95.466C300.138 95.7367 300.063 95.9373 299.914 96.068C299.774 96.1893 299.61 96.25 299.424 96.25C299.218 96.25 299.046 96.1893 298.906 96.068C298.766 95.9373 298.696 95.7367 298.696 95.466C298.696 95.1953 298.766 94.9993 298.906 94.878C299.046 94.7473 299.218 94.682 299.424 94.682ZM300.026 97.496V105H298.794V97.496H300.026ZM304.909 104.132C305.096 104.132 305.287 104.118 305.483 104.09C305.679 104.062 305.838 104.025 305.959 103.978V104.916C305.828 104.981 305.642 105.033 305.399 105.07C305.156 105.117 304.923 105.14 304.699 105.14C304.307 105.14 303.943 105.075 303.607 104.944C303.28 104.804 303.014 104.566 302.809 104.23C302.604 103.894 302.501 103.423 302.501 102.816V98.448H301.437V97.86L302.515 97.37L303.005 95.774H303.733V97.496H305.903V98.448H303.733V102.788C303.733 103.245 303.84 103.586 304.055 103.81C304.279 104.025 304.564 104.132 304.909 104.132ZM308.091 94.682C308.278 94.682 308.441 94.7473 308.581 94.878C308.731 94.9993 308.805 95.1953 308.805 95.466C308.805 95.7367 308.731 95.9373 308.581 96.068C308.441 96.1893 308.278 96.25 308.091 96.25C307.886 96.25 307.713 96.1893 307.573 96.068C307.433 95.9373 307.363 95.7367 307.363 95.466C307.363 95.1953 307.433 94.9993 307.573 94.878C307.713 94.7473 307.886 94.682 308.091 94.682ZM308.693 97.496V105H307.461V97.496H308.693ZM317.595 101.234C317.595 102.475 317.278 103.437 316.643 104.118C316.018 104.799 315.168 105.14 314.095 105.14C313.432 105.14 312.84 104.991 312.317 104.692C311.804 104.384 311.398 103.941 311.099 103.362C310.8 102.774 310.651 102.065 310.651 101.234C310.651 99.9927 310.959 99.036 311.575 98.364C312.2 97.692 313.054 97.356 314.137 97.356C314.809 97.356 315.406 97.51 315.929 97.818C316.452 98.1167 316.858 98.5553 317.147 99.134C317.446 99.7033 317.595 100.403 317.595 101.234ZM311.925 101.234C311.925 102.121 312.098 102.825 312.443 103.348C312.798 103.861 313.358 104.118 314.123 104.118C314.879 104.118 315.434 103.861 315.789 103.348C316.144 102.825 316.321 102.121 316.321 101.234C316.321 100.347 316.144 99.652 315.789 99.148C315.434 98.644 314.874 98.392 314.109 98.392C313.344 98.392 312.788 98.644 312.443 99.148C312.098 99.652 311.925 100.347 311.925 101.234ZM323.159 97.356C324.055 97.356 324.732 97.5753 325.189 98.014C325.647 98.4527 325.875 99.1527 325.875 100.114V105H324.657V100.198C324.657 98.994 324.097 98.392 322.977 98.392C322.147 98.392 321.573 98.6253 321.255 99.092C320.938 99.5587 320.779 100.231 320.779 101.108V105H319.547V97.496H320.541L320.723 98.518H320.793C321.036 98.126 321.372 97.8367 321.801 97.65C322.231 97.454 322.683 97.356 323.159 97.356ZM333.088 102.928C333.088 103.656 332.817 104.207 332.276 104.58C331.734 104.953 331.006 105.14 330.092 105.14C329.569 105.14 329.116 105.098 328.734 105.014C328.36 104.93 328.029 104.813 327.74 104.664V103.544C328.038 103.693 328.398 103.833 328.818 103.964C329.247 104.085 329.681 104.146 330.12 104.146C330.745 104.146 331.198 104.048 331.478 103.852C331.758 103.647 331.898 103.376 331.898 103.04C331.898 102.853 331.846 102.685 331.744 102.536C331.641 102.387 331.454 102.237 331.184 102.088C330.922 101.939 330.544 101.771 330.05 101.584C329.564 101.397 329.149 101.211 328.804 101.024C328.458 100.837 328.192 100.613 328.006 100.352C327.819 100.091 327.726 99.7547 327.726 99.344C327.726 98.7093 327.982 98.2193 328.496 97.874C329.018 97.5287 329.7 97.356 330.54 97.356C330.997 97.356 331.422 97.4027 331.814 97.496C332.215 97.5893 332.588 97.7107 332.934 97.86L332.514 98.84C332.196 98.7093 331.865 98.5973 331.52 98.504C331.174 98.4107 330.82 98.364 330.456 98.364C329.952 98.364 329.564 98.448 329.294 98.616C329.032 98.7747 328.902 98.994 328.902 99.274C328.902 99.4887 328.962 99.666 329.084 99.806C329.205 99.946 329.406 100.086 329.686 100.226C329.975 100.366 330.358 100.525 330.834 100.702C331.31 100.879 331.716 101.061 332.052 101.248C332.388 101.435 332.644 101.663 332.822 101.934C332.999 102.195 333.088 102.527 333.088 102.928Z" fill="black"/>
<rect x="78" y="120" width="16" height="16" rx="4" fill="white"/>
<rect x="78.5" y="120.5" width="15" height="15" rx="3.5" stroke="#1B77AF"/>
<path d="M109.028 130.326C109.028 131.213 108.706 131.903 108.062 132.398C107.418 132.893 106.55 133.14 105.458 133.14C104.898 133.14 104.38 133.098 103.904 133.014C103.428 132.93 103.031 132.813 102.714 132.664V131.46C103.05 131.609 103.465 131.745 103.96 131.866C104.464 131.987 104.982 132.048 105.514 132.048C106.251 132.048 106.811 131.903 107.194 131.614C107.577 131.325 107.768 130.933 107.768 130.438C107.768 130.111 107.698 129.836 107.558 129.612C107.418 129.388 107.175 129.183 106.83 128.996C106.485 128.809 106.013 128.604 105.416 128.38C104.557 128.072 103.913 127.694 103.484 127.246C103.055 126.798 102.84 126.187 102.84 125.412C102.84 124.889 102.975 124.437 103.246 124.054C103.517 123.671 103.89 123.377 104.366 123.172C104.842 122.967 105.397 122.864 106.032 122.864C106.573 122.864 107.073 122.915 107.53 123.018C107.987 123.121 108.407 123.256 108.79 123.424L108.398 124.502C108.053 124.353 107.675 124.227 107.264 124.124C106.853 124.021 106.433 123.97 106.004 123.97C105.379 123.97 104.907 124.105 104.59 124.376C104.273 124.637 104.114 124.987 104.114 125.426C104.114 125.762 104.184 126.042 104.324 126.266C104.464 126.49 104.693 126.695 105.01 126.882C105.327 127.059 105.757 127.246 106.298 127.442C106.886 127.657 107.381 127.89 107.782 128.142C108.193 128.385 108.501 128.679 108.706 129.024C108.921 129.369 109.028 129.803 109.028 130.326ZM113.772 125.356C114.406 125.356 114.957 125.496 115.424 125.776C115.89 126.056 116.245 126.453 116.488 126.966C116.74 127.47 116.866 128.063 116.866 128.744V129.486H111.728C111.746 130.335 111.961 130.984 112.372 131.432C112.792 131.871 113.375 132.09 114.122 132.09C114.598 132.09 115.018 132.048 115.382 131.964C115.755 131.871 116.138 131.74 116.53 131.572V132.65C116.147 132.818 115.769 132.939 115.396 133.014C115.022 133.098 114.579 133.14 114.066 133.14C113.347 133.14 112.717 132.995 112.176 132.706C111.634 132.417 111.21 131.987 110.902 131.418C110.603 130.849 110.454 130.144 110.454 129.304C110.454 128.483 110.589 127.778 110.86 127.19C111.14 126.602 111.527 126.149 112.022 125.832C112.526 125.515 113.109 125.356 113.772 125.356ZM113.758 126.364C113.17 126.364 112.703 126.555 112.358 126.938C112.022 127.311 111.821 127.834 111.756 128.506H115.578C115.568 127.871 115.419 127.358 115.13 126.966C114.84 126.565 114.383 126.364 113.758 126.364ZM122.388 125.356C123.284 125.356 123.961 125.575 124.418 126.014C124.875 126.453 125.104 127.153 125.104 128.114V133H123.886V128.198C123.886 126.994 123.326 126.392 122.206 126.392C121.375 126.392 120.801 126.625 120.484 127.092C120.167 127.559 120.008 128.231 120.008 129.108V133H118.776V125.496H119.77L119.952 126.518H120.022C120.265 126.126 120.601 125.837 121.03 125.65C121.459 125.454 121.912 125.356 122.388 125.356ZM130.09 133.14C129.157 133.14 128.41 132.818 127.85 132.174C127.29 131.521 127.01 130.55 127.01 129.262C127.01 127.974 127.29 127.003 127.85 126.35C128.42 125.687 129.171 125.356 130.104 125.356C130.683 125.356 131.154 125.463 131.518 125.678C131.892 125.893 132.195 126.154 132.428 126.462H132.512C132.494 126.341 132.475 126.163 132.456 125.93C132.438 125.687 132.428 125.496 132.428 125.356V122.36H133.66V133H132.666L132.484 131.992H132.428C132.204 132.309 131.906 132.58 131.532 132.804C131.159 133.028 130.678 133.14 130.09 133.14ZM130.286 132.118C131.08 132.118 131.635 131.903 131.952 131.474C132.279 131.035 132.442 130.377 132.442 129.5V129.276C132.442 128.343 132.288 127.629 131.98 127.134C131.672 126.63 131.103 126.378 130.272 126.378C129.61 126.378 129.11 126.644 128.774 127.176C128.448 127.699 128.284 128.403 128.284 129.29C128.284 130.186 128.448 130.881 128.774 131.376C129.11 131.871 129.614 132.118 130.286 132.118ZM147.912 125.356C148.762 125.356 149.396 125.575 149.816 126.014C150.236 126.453 150.446 127.153 150.446 128.114V133H149.228V128.17C149.228 126.985 148.72 126.392 147.702 126.392C146.974 126.392 146.452 126.602 146.134 127.022C145.826 127.442 145.672 128.053 145.672 128.856V133H144.454V128.17C144.454 126.985 143.941 126.392 142.914 126.392C142.158 126.392 141.636 126.625 141.346 127.092C141.057 127.559 140.912 128.231 140.912 129.108V133H139.68V125.496H140.674L140.856 126.518H140.926C141.16 126.126 141.472 125.837 141.864 125.65C142.266 125.454 142.69 125.356 143.138 125.356C144.314 125.356 145.08 125.776 145.434 126.616H145.504C145.756 126.187 146.097 125.869 146.526 125.664C146.956 125.459 147.418 125.356 147.912 125.356ZM155.662 125.356C156.297 125.356 156.848 125.496 157.314 125.776C157.781 126.056 158.136 126.453 158.378 126.966C158.63 127.47 158.756 128.063 158.756 128.744V129.486H153.618C153.637 130.335 153.852 130.984 154.262 131.432C154.682 131.871 155.266 132.09 156.012 132.09C156.488 132.09 156.908 132.048 157.272 131.964C157.646 131.871 158.028 131.74 158.42 131.572V132.65C158.038 132.818 157.66 132.939 157.286 133.014C156.913 133.098 156.47 133.14 155.956 133.14C155.238 133.14 154.608 132.995 154.066 132.706C153.525 132.417 153.1 131.987 152.792 131.418C152.494 130.849 152.344 130.144 152.344 129.304C152.344 128.483 152.48 127.778 152.75 127.19C153.03 126.602 153.418 126.149 153.912 125.832C154.416 125.515 155 125.356 155.662 125.356ZM155.648 126.364C155.06 126.364 154.594 126.555 154.248 126.938C153.912 127.311 153.712 127.834 153.646 128.506H157.468C157.459 127.871 157.31 127.358 157.02 126.966C156.731 126.565 156.274 126.364 155.648 126.364ZM167.873 125.356C168.797 125.356 169.539 125.678 170.099 126.322C170.669 126.966 170.953 127.937 170.953 129.234C170.953 130.513 170.669 131.483 170.099 132.146C169.539 132.809 168.793 133.14 167.859 133.14C167.281 133.14 166.8 133.033 166.417 132.818C166.044 132.603 165.75 132.347 165.535 132.048H165.451C165.461 132.207 165.475 132.407 165.493 132.65C165.521 132.893 165.535 133.103 165.535 133.28V136.36H164.303V125.496H165.311L165.479 126.518H165.535C165.759 126.191 166.053 125.916 166.417 125.692C166.781 125.468 167.267 125.356 167.873 125.356ZM167.649 126.392C166.884 126.392 166.343 126.607 166.025 127.036C165.708 127.465 165.545 128.119 165.535 128.996V129.234C165.535 130.158 165.685 130.872 165.983 131.376C166.291 131.871 166.856 132.118 167.677 132.118C168.125 132.118 168.499 131.997 168.797 131.754C169.096 131.502 169.315 131.157 169.455 130.718C169.605 130.279 169.679 129.78 169.679 129.22C169.679 128.361 169.511 127.675 169.175 127.162C168.849 126.649 168.34 126.392 167.649 126.392ZM176.417 125.356C176.557 125.356 176.706 125.365 176.865 125.384C177.023 125.393 177.168 125.412 177.299 125.44L177.145 126.574C177.023 126.546 176.888 126.523 176.739 126.504C176.589 126.485 176.454 126.476 176.333 126.476C175.95 126.476 175.591 126.583 175.255 126.798C174.919 127.003 174.648 127.297 174.443 127.68C174.247 128.053 174.149 128.492 174.149 128.996V133H172.917V125.496H173.925L174.065 126.868H174.121C174.354 126.457 174.662 126.103 175.045 125.804C175.437 125.505 175.894 125.356 176.417 125.356ZM184.95 129.234C184.95 130.475 184.633 131.437 183.998 132.118C183.373 132.799 182.524 133.14 181.45 133.14C180.788 133.14 180.195 132.991 179.672 132.692C179.159 132.384 178.753 131.941 178.454 131.362C178.156 130.774 178.006 130.065 178.006 129.234C178.006 127.993 178.314 127.036 178.93 126.364C179.556 125.692 180.41 125.356 181.492 125.356C182.164 125.356 182.762 125.51 183.284 125.818C183.807 126.117 184.213 126.555 184.502 127.134C184.801 127.703 184.95 128.403 184.95 129.234ZM179.28 129.234C179.28 130.121 179.453 130.825 179.798 131.348C180.153 131.861 180.713 132.118 181.478 132.118C182.234 132.118 182.79 131.861 183.144 131.348C183.499 130.825 183.676 130.121 183.676 129.234C183.676 128.347 183.499 127.652 183.144 127.148C182.79 126.644 182.23 126.392 181.464 126.392C180.699 126.392 180.144 126.644 179.798 127.148C179.453 127.652 179.28 128.347 179.28 129.234ZM195.135 125.356C195.984 125.356 196.619 125.575 197.039 126.014C197.459 126.453 197.669 127.153 197.669 128.114V133H196.451V128.17C196.451 126.985 195.942 126.392 194.925 126.392C194.197 126.392 193.674 126.602 193.357 127.022C193.049 127.442 192.895 128.053 192.895 128.856V133H191.677V128.17C191.677 126.985 191.164 126.392 190.137 126.392C189.381 126.392 188.858 126.625 188.569 127.092C188.28 127.559 188.135 128.231 188.135 129.108V133H186.903V125.496H187.897L188.079 126.518H188.149C188.382 126.126 188.695 125.837 189.087 125.65C189.488 125.454 189.913 125.356 190.361 125.356C191.537 125.356 192.302 125.776 192.657 126.616H192.727C192.979 126.187 193.32 125.869 193.749 125.664C194.178 125.459 194.64 125.356 195.135 125.356ZM206.511 129.234C206.511 130.475 206.194 131.437 205.559 132.118C204.934 132.799 204.084 133.14 203.011 133.14C202.348 133.14 201.756 132.991 201.233 132.692C200.72 132.384 200.314 131.941 200.015 131.362C199.716 130.774 199.567 130.065 199.567 129.234C199.567 127.993 199.875 127.036 200.491 126.364C201.116 125.692 201.97 125.356 203.053 125.356C203.725 125.356 204.322 125.51 204.845 125.818C205.368 126.117 205.774 126.555 206.063 127.134C206.362 127.703 206.511 128.403 206.511 129.234ZM200.841 129.234C200.841 130.121 201.014 130.825 201.359 131.348C201.714 131.861 202.274 132.118 203.039 132.118C203.795 132.118 204.35 131.861 204.705 131.348C205.06 130.825 205.237 130.121 205.237 129.234C205.237 128.347 205.06 127.652 204.705 127.148C204.35 126.644 203.79 126.392 203.025 126.392C202.26 126.392 201.704 126.644 201.359 127.148C201.014 127.652 200.841 128.347 200.841 129.234ZM210.969 132.132C211.156 132.132 211.347 132.118 211.543 132.09C211.739 132.062 211.898 132.025 212.019 131.978V132.916C211.889 132.981 211.702 133.033 211.459 133.07C211.217 133.117 210.983 133.14 210.759 133.14C210.367 133.14 210.003 133.075 209.667 132.944C209.341 132.804 209.075 132.566 208.869 132.23C208.664 131.894 208.561 131.423 208.561 130.816V126.448H207.497V125.86L208.575 125.37L209.065 123.774H209.793V125.496H211.963V126.448H209.793V130.788C209.793 131.245 209.901 131.586 210.115 131.81C210.339 132.025 210.624 132.132 210.969 132.132ZM214.152 122.682C214.339 122.682 214.502 122.747 214.642 122.878C214.791 122.999 214.866 123.195 214.866 123.466C214.866 123.737 214.791 123.937 214.642 124.068C214.502 124.189 214.339 124.25 214.152 124.25C213.947 124.25 213.774 124.189 213.634 124.068C213.494 123.937 213.424 123.737 213.424 123.466C213.424 123.195 213.494 122.999 213.634 122.878C213.774 122.747 213.947 122.682 214.152 122.682ZM214.754 125.496V133H213.522V125.496H214.754ZM223.655 129.234C223.655 130.475 223.338 131.437 222.703 132.118C222.078 132.799 221.229 133.14 220.155 133.14C219.493 133.14 218.9 132.991 218.377 132.692C217.864 132.384 217.458 131.941 217.159 131.362C216.861 130.774 216.711 130.065 216.711 129.234C216.711 127.993 217.019 127.036 217.635 126.364C218.261 125.692 219.115 125.356 220.197 125.356C220.869 125.356 221.467 125.51 221.989 125.818C222.512 126.117 222.918 126.555 223.207 127.134C223.506 127.703 223.655 128.403 223.655 129.234ZM217.985 129.234C217.985 130.121 218.158 130.825 218.503 131.348C218.858 131.861 219.418 132.118 220.183 132.118C220.939 132.118 221.495 131.861 221.849 131.348C222.204 130.825 222.381 130.121 222.381 129.234C222.381 128.347 222.204 127.652 221.849 127.148C221.495 126.644 220.935 126.392 220.169 126.392C219.404 126.392 218.849 126.644 218.503 127.148C218.158 127.652 217.985 128.347 217.985 129.234ZM229.22 125.356C230.116 125.356 230.793 125.575 231.25 126.014C231.707 126.453 231.936 127.153 231.936 128.114V133H230.718V128.198C230.718 126.994 230.158 126.392 229.038 126.392C228.207 126.392 227.633 126.625 227.316 127.092C226.999 127.559 226.84 128.231 226.84 129.108V133H225.608V125.496H226.602L226.784 126.518H226.854C227.097 126.126 227.433 125.837 227.862 125.65C228.291 125.454 228.744 125.356 229.22 125.356ZM237.104 125.37C238.019 125.37 238.696 125.571 239.134 125.972C239.573 126.373 239.792 127.013 239.792 127.89V133H238.896L238.658 131.936H238.602C238.276 132.347 237.93 132.65 237.566 132.846C237.202 133.042 236.708 133.14 236.082 133.14C235.401 133.14 234.836 132.963 234.388 132.608C233.94 132.244 233.716 131.679 233.716 130.914C233.716 130.167 234.01 129.593 234.598 129.192C235.186 128.781 236.092 128.557 237.314 128.52L238.588 128.478V128.03C238.588 127.405 238.453 126.971 238.182 126.728C237.912 126.485 237.529 126.364 237.034 126.364C236.642 126.364 236.269 126.425 235.914 126.546C235.56 126.658 235.228 126.789 234.92 126.938L234.542 126.014C234.869 125.837 235.256 125.687 235.704 125.566C236.152 125.435 236.619 125.37 237.104 125.37ZM238.574 129.332L237.468 129.374C236.535 129.411 235.886 129.561 235.522 129.822C235.168 130.083 234.99 130.452 234.99 130.928C234.99 131.348 235.116 131.656 235.368 131.852C235.63 132.048 235.961 132.146 236.362 132.146C236.988 132.146 237.51 131.973 237.93 131.628C238.36 131.273 238.574 130.732 238.574 130.004V129.332ZM243.342 133H242.11V122.36H243.342V133ZM255.628 125.496V133H254.62L254.438 132.006H254.382C254.139 132.398 253.803 132.687 253.374 132.874C252.945 133.051 252.487 133.14 252.002 133.14C251.097 133.14 250.415 132.925 249.958 132.496C249.501 132.057 249.272 131.362 249.272 130.41V125.496H250.518V130.326C250.518 131.521 251.073 132.118 252.184 132.118C253.015 132.118 253.589 131.885 253.906 131.418C254.233 130.951 254.396 130.279 254.396 129.402V125.496H255.628ZM261.58 125.356C262.504 125.356 263.246 125.678 263.806 126.322C264.376 126.966 264.66 127.937 264.66 129.234C264.66 130.513 264.376 131.483 263.806 132.146C263.246 132.809 262.5 133.14 261.566 133.14C260.988 133.14 260.507 133.033 260.124 132.818C259.751 132.603 259.457 132.347 259.242 132.048H259.158C259.168 132.207 259.182 132.407 259.2 132.65C259.228 132.893 259.242 133.103 259.242 133.28V136.36H258.01V125.496H259.018L259.186 126.518H259.242C259.466 126.191 259.76 125.916 260.124 125.692C260.488 125.468 260.974 125.356 261.58 125.356ZM261.356 126.392C260.591 126.392 260.05 126.607 259.732 127.036C259.415 127.465 259.252 128.119 259.242 128.996V129.234C259.242 130.158 259.392 130.872 259.69 131.376C259.998 131.871 260.563 132.118 261.384 132.118C261.832 132.118 262.206 131.997 262.504 131.754C262.803 131.502 263.022 131.157 263.162 130.718C263.312 130.279 263.386 129.78 263.386 129.22C263.386 128.361 263.218 127.675 262.882 127.162C262.556 126.649 262.047 126.392 261.356 126.392ZM269.284 133.14C268.35 133.14 267.604 132.818 267.044 132.174C266.484 131.521 266.204 130.55 266.204 129.262C266.204 127.974 266.484 127.003 267.044 126.35C267.613 125.687 268.364 125.356 269.298 125.356C269.876 125.356 270.348 125.463 270.712 125.678C271.085 125.893 271.388 126.154 271.622 126.462H271.706C271.687 126.341 271.668 126.163 271.65 125.93C271.631 125.687 271.622 125.496 271.622 125.356V122.36H272.854V133H271.86L271.678 131.992H271.622C271.398 132.309 271.099 132.58 270.726 132.804C270.352 133.028 269.872 133.14 269.284 133.14ZM269.48 132.118C270.273 132.118 270.828 131.903 271.146 131.474C271.472 131.035 271.636 130.377 271.636 129.5V129.276C271.636 128.343 271.482 127.629 271.174 127.134C270.866 126.63 270.296 126.378 269.466 126.378C268.803 126.378 268.304 126.644 267.968 127.176C267.641 127.699 267.478 128.403 267.478 129.29C267.478 130.186 267.641 130.881 267.968 131.376C268.304 131.871 268.808 132.118 269.48 132.118ZM278.079 125.37C278.994 125.37 279.67 125.571 280.109 125.972C280.548 126.373 280.767 127.013 280.767 127.89V133H279.871L279.633 131.936H279.577C279.25 132.347 278.905 132.65 278.541 132.846C278.177 133.042 277.682 133.14 277.057 133.14C276.376 133.14 275.811 132.963 275.363 132.608C274.915 132.244 274.691 131.679 274.691 130.914C274.691 130.167 274.985 129.593 275.573 129.192C276.161 128.781 277.066 128.557 278.289 128.52L279.563 128.478V128.03C279.563 127.405 279.428 126.971 279.157 126.728C278.886 126.485 278.504 126.364 278.009 126.364C277.617 126.364 277.244 126.425 276.889 126.546C276.534 126.658 276.203 126.789 275.895 126.938L275.517 126.014C275.844 125.837 276.231 125.687 276.679 125.566C277.127 125.435 277.594 125.37 278.079 125.37ZM279.549 129.332L278.443 129.374C277.51 129.411 276.861 129.561 276.497 129.822C276.142 130.083 275.965 130.452 275.965 130.928C275.965 131.348 276.091 131.656 276.343 131.852C276.604 132.048 276.936 132.146 277.337 132.146C277.962 132.146 278.485 131.973 278.905 131.628C279.334 131.273 279.549 130.732 279.549 130.004V129.332ZM285.591 132.132C285.777 132.132 285.969 132.118 286.165 132.09C286.361 132.062 286.519 132.025 286.641 131.978V132.916C286.51 132.981 286.323 133.033 286.081 133.07C285.838 133.117 285.605 133.14 285.381 133.14C284.989 133.14 284.625 133.075 284.289 132.944C283.962 132.804 283.696 132.566 283.491 132.23C283.285 131.894 283.183 131.423 283.183 130.816V126.448H282.119V125.86L283.197 125.37L283.687 123.774H284.415V125.496H286.585V126.448H284.415V130.788C284.415 131.245 284.522 131.586 284.737 131.81C284.961 132.025 285.245 132.132 285.591 132.132ZM291.041 125.356C291.676 125.356 292.226 125.496 292.693 125.776C293.16 126.056 293.514 126.453 293.757 126.966C294.009 127.47 294.135 128.063 294.135 128.744V129.486H288.997C289.016 130.335 289.23 130.984 289.641 131.432C290.061 131.871 290.644 132.09 291.391 132.09C291.867 132.09 292.287 132.048 292.651 131.964C293.024 131.871 293.407 131.74 293.799 131.572V132.65C293.416 132.818 293.038 132.939 292.665 133.014C292.292 133.098 291.848 133.14 291.335 133.14C290.616 133.14 289.986 132.995 289.445 132.706C288.904 132.417 288.479 131.987 288.171 131.418C287.872 130.849 287.723 130.144 287.723 129.304C287.723 128.483 287.858 127.778 288.129 127.19C288.409 126.602 288.796 126.149 289.291 125.832C289.795 125.515 290.378 125.356 291.041 125.356ZM291.027 126.364C290.439 126.364 289.972 126.555 289.627 126.938C289.291 127.311 289.09 127.834 289.025 128.506H292.847C292.838 127.871 292.688 127.358 292.399 126.966C292.11 126.565 291.652 126.364 291.027 126.364ZM300.931 130.928C300.931 131.656 300.661 132.207 300.119 132.58C299.578 132.953 298.85 133.14 297.935 133.14C297.413 133.14 296.96 133.098 296.577 133.014C296.204 132.93 295.873 132.813 295.583 132.664V131.544C295.882 131.693 296.241 131.833 296.661 131.964C297.091 132.085 297.525 132.146 297.963 132.146C298.589 132.146 299.041 132.048 299.321 131.852C299.601 131.647 299.741 131.376 299.741 131.04C299.741 130.853 299.69 130.685 299.587 130.536C299.485 130.387 299.298 130.237 299.027 130.088C298.766 129.939 298.388 129.771 297.893 129.584C297.408 129.397 296.993 129.211 296.647 129.024C296.302 128.837 296.036 128.613 295.849 128.352C295.663 128.091 295.569 127.755 295.569 127.344C295.569 126.709 295.826 126.219 296.339 125.874C296.862 125.529 297.543 125.356 298.383 125.356C298.841 125.356 299.265 125.403 299.657 125.496C300.059 125.589 300.432 125.711 300.777 125.86L300.357 126.84C300.04 126.709 299.709 126.597 299.363 126.504C299.018 126.411 298.663 126.364 298.299 126.364C297.795 126.364 297.408 126.448 297.137 126.616C296.876 126.775 296.745 126.994 296.745 127.274C296.745 127.489 296.806 127.666 296.927 127.806C297.049 127.946 297.249 128.086 297.529 128.226C297.819 128.366 298.201 128.525 298.677 128.702C299.153 128.879 299.559 129.061 299.895 129.248C300.231 129.435 300.488 129.663 300.665 129.934C300.843 130.195 300.931 130.527 300.931 130.928Z" fill="black"/>
<path d="M86.64 70.704C86.64 71.592 86.488 72.368 86.184 73.032C85.888 73.688 85.444 74.2 84.852 74.568C84.268 74.936 83.548 75.12 82.692 75.12C81.804 75.12 81.064 74.936 80.472 74.568C79.888 74.2 79.452 73.684 79.164 73.02C78.876 72.356 78.732 71.58 78.732 70.692C78.732 69.82 78.876 69.056 79.164 68.4C79.452 67.736 79.888 67.22 80.472 66.852C81.064 66.484 81.808 66.3 82.704 66.3C83.56 66.3 84.28 66.484 84.864 66.852C85.448 67.212 85.888 67.724 86.184 68.388C86.488 69.044 86.64 69.816 86.64 70.704ZM79.872 70.704C79.872 71.784 80.1 72.636 80.556 73.26C81.012 73.876 81.724 74.184 82.692 74.184C83.66 74.184 84.368 73.876 84.816 73.26C85.272 72.636 85.5 71.784 85.5 70.704C85.5 69.624 85.276 68.78 84.828 68.172C84.38 67.556 83.672 67.248 82.704 67.248C81.728 67.248 81.012 67.556 80.556 68.172C80.1 68.78 79.872 69.624 79.872 70.704ZM91.455 68.448C92.247 68.448 92.883 68.724 93.363 69.276C93.851 69.828 94.095 70.66 94.095 71.772C94.095 72.868 93.851 73.7 93.363 74.268C92.883 74.836 92.243 75.12 91.443 75.12C90.947 75.12 90.535 75.028 90.207 74.844C89.887 74.66 89.635 74.44 89.451 74.184H89.379C89.387 74.32 89.399 74.492 89.415 74.7C89.439 74.908 89.451 75.088 89.451 75.24V77.88H88.395V68.568H89.259L89.403 69.444H89.451C89.643 69.164 89.895 68.928 90.207 68.736C90.519 68.544 90.935 68.448 91.455 68.448ZM91.263 69.336C90.607 69.336 90.143 69.52 89.871 69.888C89.599 70.256 89.459 70.816 89.451 71.568V71.772C89.451 72.564 89.579 73.176 89.835 73.608C90.099 74.032 90.583 74.244 91.287 74.244C91.671 74.244 91.991 74.14 92.247 73.932C92.503 73.716 92.691 73.42 92.811 73.044C92.939 72.668 93.003 72.24 93.003 71.76C93.003 71.024 92.859 70.436 92.571 69.996C92.291 69.556 91.855 69.336 91.263 69.336ZM97.9258 74.256C98.0858 74.256 98.2498 74.244 98.4178 74.22C98.5858 74.196 98.7218 74.164 98.8258 74.124V74.928C98.7138 74.984 98.5538 75.028 98.3458 75.06C98.1378 75.1 97.9378 75.12 97.7458 75.12C97.4098 75.12 97.0978 75.064 96.8098 74.952C96.5298 74.832 96.3018 74.628 96.1258 74.34C95.9498 74.052 95.8618 73.648 95.8618 73.128V69.384H94.9498V68.88L95.8738 68.46L96.2938 67.092H96.9178V68.568H98.7778V69.384H96.9178V73.104C96.9178 73.496 97.0098 73.788 97.1938 73.98C97.3858 74.164 97.6298 74.256 97.9258 74.256ZM100.654 66.156C100.814 66.156 100.954 66.212 101.074 66.324C101.202 66.428 101.266 66.596 101.266 66.828C101.266 67.06 101.202 67.232 101.074 67.344C100.954 67.448 100.814 67.5 100.654 67.5C100.478 67.5 100.33 67.448 100.21 67.344C100.09 67.232 100.03 67.06 100.03 66.828C100.03 66.596 100.09 66.428 100.21 66.324C100.33 66.212 100.478 66.156 100.654 66.156ZM101.17 68.568V75H100.114V68.568H101.17ZM108.799 71.772C108.799 72.836 108.528 73.66 107.984 74.244C107.448 74.828 106.72 75.12 105.8 75.12C105.232 75.12 104.724 74.992 104.276 74.736C103.836 74.472 103.488 74.092 103.232 73.596C102.976 73.092 102.848 72.484 102.848 71.772C102.848 70.708 103.112 69.888 103.64 69.312C104.176 68.736 104.908 68.448 105.836 68.448C106.412 68.448 106.924 68.58 107.372 68.844C107.82 69.1 108.168 69.476 108.416 69.972C108.672 70.46 108.799 71.06 108.799 71.772ZM103.94 71.772C103.94 72.532 104.088 73.136 104.384 73.584C104.688 74.024 105.168 74.244 105.824 74.244C106.472 74.244 106.948 74.024 107.252 73.584C107.556 73.136 107.708 72.532 107.708 71.772C107.708 71.012 107.556 70.416 107.252 69.984C106.948 69.552 106.468 69.336 105.812 69.336C105.156 69.336 104.68 69.552 104.384 69.984C104.088 70.416 103.94 71.012 103.94 71.772ZM113.569 68.448C114.337 68.448 114.917 68.636 115.309 69.012C115.701 69.388 115.897 69.988 115.897 70.812V75H114.853V70.884C114.853 69.852 114.373 69.336 113.413 69.336C112.701 69.336 112.209 69.536 111.937 69.936C111.665 70.336 111.529 70.912 111.529 71.664V75H110.473V68.568H111.325L111.481 69.444H111.541C111.749 69.108 112.037 68.86 112.405 68.7C112.773 68.532 113.161 68.448 113.569 68.448Z" fill="#323232"/>
</svg>
