<svg width="428" height="98" viewBox="0 0 428 98" fill="none" xmlns="http://www.w3.org/2000/svg">
<rect width="428" height="98" fill="white"/>
<rect x="179" y="41" width="16" height="16" rx="4" fill="white"/>
<rect x="179.5" y="41.5" width="15" height="15" rx="3.5" stroke="#1473E6"/>
<path d="M213.08 48.988C213.08 50.024 212.903 50.9293 212.548 51.704C212.203 52.4693 211.685 53.0667 210.994 53.496C210.313 53.9253 209.473 54.14 208.474 54.14C207.438 54.14 206.575 53.9253 205.884 53.496C205.203 53.0667 204.694 52.4647 204.358 51.69C204.022 50.9153 203.854 50.01 203.854 48.974C203.854 47.9567 204.022 47.0653 204.358 46.3C204.694 45.5253 205.203 44.9233 205.884 44.494C206.575 44.0647 207.443 43.85 208.488 43.85C209.487 43.85 210.327 44.0647 211.008 44.494C211.689 44.914 212.203 45.5113 212.548 46.286C212.903 47.0513 213.08 47.952 213.08 48.988ZM205.184 48.988C205.184 50.248 205.45 51.242 205.982 51.97C206.514 52.6887 207.345 53.048 208.474 53.048C209.603 53.048 210.429 52.6887 210.952 51.97C211.484 51.242 211.75 50.248 211.75 48.988C211.75 47.728 211.489 46.7433 210.966 46.034C210.443 45.3153 209.617 44.956 208.488 44.956C207.349 44.956 206.514 45.3153 205.982 46.034C205.45 46.7433 205.184 47.728 205.184 48.988ZM218.698 46.356C219.622 46.356 220.364 46.678 220.924 47.322C221.493 47.966 221.778 48.9367 221.778 50.234C221.778 51.5127 221.493 52.4833 220.924 53.146C220.364 53.8087 219.617 54.14 218.684 54.14C218.105 54.14 217.624 54.0327 217.242 53.818C216.868 53.6033 216.574 53.3467 216.36 53.048H216.276C216.285 53.2067 216.299 53.4073 216.318 53.65C216.346 53.8927 216.36 54.1027 216.36 54.28V57.36H215.128V46.496H216.136L216.304 47.518H216.36C216.584 47.1913 216.878 46.916 217.242 46.692C217.606 46.468 218.091 46.356 218.698 46.356ZM218.474 47.392C217.708 47.392 217.167 47.6067 216.85 48.036C216.532 48.4653 216.369 49.1187 216.36 49.996V50.234C216.36 51.158 216.509 51.872 216.808 52.376C217.116 52.8707 217.68 53.118 218.502 53.118C218.95 53.118 219.323 52.9967 219.622 52.754C219.92 52.502 220.14 52.1567 220.28 51.718C220.429 51.2793 220.504 50.78 220.504 50.22C220.504 49.3613 220.336 48.6753 220 48.162C219.673 47.6487 219.164 47.392 218.474 47.392ZM226.247 53.132C226.433 53.132 226.625 53.118 226.821 53.09C227.017 53.062 227.175 53.0247 227.297 52.978V53.916C227.166 53.9813 226.979 54.0327 226.737 54.07C226.494 54.1167 226.261 54.14 226.037 54.14C225.645 54.14 225.281 54.0747 224.945 53.944C224.618 53.804 224.352 53.566 224.147 53.23C223.941 52.894 223.839 52.4227 223.839 51.816V47.448H222.775V46.86L223.853 46.37L224.343 44.774H225.071V46.496H227.241V47.448H225.071V51.788C225.071 52.2453 225.178 52.586 225.393 52.81C225.617 53.0247 225.901 53.132 226.247 53.132ZM229.429 43.682C229.616 43.682 229.779 43.7473 229.919 43.878C230.069 43.9993 230.143 44.1953 230.143 44.466C230.143 44.7367 230.069 44.9373 229.919 45.068C229.779 45.1893 229.616 45.25 229.429 45.25C229.224 45.25 229.051 45.1893 228.911 45.068C228.771 44.9373 228.701 44.7367 228.701 44.466C228.701 44.1953 228.771 43.9993 228.911 43.878C229.051 43.7473 229.224 43.682 229.429 43.682ZM230.031 46.496V54H228.799V46.496H230.031ZM238.933 50.234C238.933 51.4753 238.615 52.4367 237.981 53.118C237.355 53.7993 236.506 54.14 235.433 54.14C234.77 54.14 234.177 53.9907 233.655 53.692C233.141 53.384 232.735 52.9407 232.437 52.362C232.138 51.774 231.989 51.0647 231.989 50.234C231.989 48.9927 232.297 48.036 232.913 47.364C233.538 46.692 234.392 46.356 235.475 46.356C236.147 46.356 236.744 46.51 237.267 46.818C237.789 47.1167 238.195 47.5553 238.485 48.134C238.783 48.7033 238.933 49.4033 238.933 50.234ZM233.263 50.234C233.263 51.1207 233.435 51.8253 233.781 52.348C234.135 52.8613 234.695 53.118 235.461 53.118C236.217 53.118 236.772 52.8613 237.127 52.348C237.481 51.8253 237.659 51.1207 237.659 50.234C237.659 49.3473 237.481 48.652 237.127 48.148C236.772 47.644 236.212 47.392 235.447 47.392C234.681 47.392 234.126 47.644 233.781 48.148C233.435 48.652 233.263 49.3473 233.263 50.234ZM244.497 46.356C245.393 46.356 246.07 46.5753 246.527 47.014C246.985 47.4527 247.213 48.1527 247.213 49.114V54H245.995V49.198C245.995 47.994 245.435 47.392 244.315 47.392C243.485 47.392 242.911 47.6253 242.593 48.092C242.276 48.5587 242.117 49.2307 242.117 50.108V54H240.885V46.496H241.879L242.061 47.518H242.131C242.374 47.126 242.71 46.8367 243.139 46.65C243.569 46.454 244.021 46.356 244.497 46.356Z" fill="black"/>
</svg>
