<svg width="904" height="150" viewBox="0 0 904 150" fill="none" xmlns="http://www.w3.org/2000/svg">
<rect width="904" height="150" fill="white"/>
<path d="M389.836 49.26C388.916 49.26 388.192 49.568 387.664 50.184C387.136 50.8 386.872 51.644 386.872 52.716C386.872 53.78 387.116 54.624 387.604 55.248C388.1 55.864 388.84 56.172 389.824 56.172C390.192 56.172 390.544 56.14 390.88 56.076C391.216 56.012 391.548 55.932 391.876 55.836V56.772C391.556 56.892 391.224 56.98 390.88 57.036C390.544 57.092 390.14 57.12 389.668 57.12C388.796 57.12 388.068 56.94 387.484 56.58C386.9 56.22 386.46 55.708 386.164 55.044C385.876 54.38 385.732 53.6 385.732 52.704C385.732 51.84 385.888 51.08 386.2 50.424C386.52 49.76 386.988 49.244 387.604 48.876C388.22 48.5 388.968 48.312 389.848 48.312C390.752 48.312 391.54 48.48 392.212 48.816L391.78 49.728C391.516 49.608 391.22 49.5 390.892 49.404C390.572 49.308 390.22 49.26 389.836 49.26ZM394.658 47.88V50.556C394.658 50.876 394.638 51.176 394.598 51.456H394.67C394.878 51.128 395.158 50.88 395.51 50.712C395.87 50.544 396.258 50.46 396.674 50.46C397.45 50.46 398.034 50.648 398.426 51.024C398.826 51.392 399.026 51.988 399.026 52.812V57H397.982V52.884C397.982 51.852 397.502 51.336 396.542 51.336C395.822 51.336 395.326 51.54 395.054 51.948C394.79 52.348 394.658 52.924 394.658 53.676V57H393.602V47.88H394.658ZM403.504 50.448C404.048 50.448 404.52 50.568 404.92 50.808C405.32 51.048 405.624 51.388 405.832 51.828C406.048 52.26 406.156 52.768 406.156 53.352V53.988H401.752C401.768 54.716 401.952 55.272 402.304 55.656C402.664 56.032 403.164 56.22 403.804 56.22C404.212 56.22 404.572 56.184 404.884 56.112C405.204 56.032 405.532 55.92 405.868 55.776V56.7C405.54 56.844 405.216 56.948 404.896 57.012C404.576 57.084 404.196 57.12 403.756 57.12C403.14 57.12 402.6 56.996 402.136 56.748C401.672 56.5 401.308 56.132 401.044 55.644C400.788 55.156 400.66 54.552 400.66 53.832C400.66 53.128 400.776 52.524 401.008 52.02C401.248 51.516 401.58 51.128 402.004 50.856C402.436 50.584 402.936 50.448 403.504 50.448ZM403.492 51.312C402.988 51.312 402.588 51.476 402.292 51.804C402.004 52.124 401.832 52.572 401.776 53.148H405.052C405.044 52.604 404.916 52.164 404.668 51.828C404.42 51.484 404.028 51.312 403.492 51.312ZM410.373 57.12C409.797 57.12 409.289 57.004 408.849 56.772C408.409 56.54 408.061 56.18 407.805 55.692C407.557 55.204 407.433 54.58 407.433 53.82C407.433 53.028 407.561 52.384 407.817 51.888C408.081 51.392 408.441 51.028 408.897 50.796C409.353 50.564 409.869 50.448 410.445 50.448C410.765 50.448 411.077 50.484 411.381 50.556C411.693 50.62 411.945 50.7 412.137 50.796L411.813 51.672C411.621 51.6 411.397 51.532 411.141 51.468C410.885 51.404 410.645 51.372 410.421 51.372C409.157 51.372 408.525 52.184 408.525 53.808C408.525 54.584 408.677 55.18 408.981 55.596C409.293 56.004 409.753 56.208 410.361 56.208C410.705 56.208 411.013 56.172 411.285 56.1C411.557 56.028 411.805 55.94 412.029 55.836V56.772C411.813 56.884 411.573 56.968 411.309 57.024C411.053 57.088 410.741 57.12 410.373 57.12ZM414.603 47.88V52.644C414.603 52.772 414.595 52.94 414.579 53.148C414.571 53.356 414.563 53.536 414.555 53.688H414.603C414.651 53.624 414.723 53.532 414.819 53.412C414.915 53.292 415.011 53.172 415.107 53.052C415.211 52.924 415.299 52.82 415.371 52.74L417.423 50.568H418.659L416.055 53.316L418.839 57H417.567L415.335 54L414.603 54.636V57H413.559V47.88H414.603ZM421.025 47.88V50.1C421.025 50.372 421.017 50.628 421.001 50.868C420.993 51.1 420.981 51.284 420.965 51.42H421.025C421.209 51.148 421.461 50.92 421.781 50.736C422.101 50.552 422.513 50.46 423.017 50.46C423.817 50.46 424.457 50.74 424.937 51.3C425.425 51.852 425.669 52.68 425.669 53.784C425.669 54.888 425.425 55.72 424.937 56.28C424.449 56.84 423.809 57.12 423.017 57.12C422.513 57.12 422.101 57.028 421.781 56.844C421.461 56.66 421.209 56.44 421.025 56.184H420.941L420.725 57H419.969V47.88H421.025ZM422.837 51.336C422.149 51.336 421.673 51.532 421.409 51.924C421.153 52.316 421.025 52.924 421.025 53.748V53.796C421.025 54.588 421.153 55.196 421.409 55.62C421.673 56.036 422.157 56.244 422.861 56.244C423.437 56.244 423.865 56.032 424.145 55.608C424.433 55.184 424.577 54.572 424.577 53.772C424.577 52.148 423.997 51.336 422.837 51.336ZM432.944 53.772C432.944 54.836 432.672 55.66 432.128 56.244C431.592 56.828 430.864 57.12 429.944 57.12C429.376 57.12 428.868 56.992 428.42 56.736C427.98 56.472 427.632 56.092 427.376 55.596C427.12 55.092 426.992 54.484 426.992 53.772C426.992 52.708 427.256 51.888 427.784 51.312C428.32 50.736 429.052 50.448 429.98 50.448C430.556 50.448 431.068 50.58 431.516 50.844C431.964 51.1 432.312 51.476 432.56 51.972C432.816 52.46 432.944 53.06 432.944 53.772ZM428.084 53.772C428.084 54.532 428.232 55.136 428.528 55.584C428.832 56.024 429.312 56.244 429.968 56.244C430.616 56.244 431.092 56.024 431.396 55.584C431.7 55.136 431.852 54.532 431.852 53.772C431.852 53.012 431.7 52.416 431.396 51.984C431.092 51.552 430.612 51.336 429.956 51.336C429.3 51.336 428.824 51.552 428.528 51.984C428.232 52.416 428.084 53.012 428.084 53.772ZM435.907 53.712L433.687 50.568H434.887L436.543 52.992L438.187 50.568H439.375L437.155 53.712L439.495 57H438.295L436.543 54.432L434.767 57H433.579L435.907 53.712ZM450.548 57H449.468V53.004H445.076V57H443.996V48.432H445.076V52.056H449.468V48.432H450.548V57ZM455.231 50.448C455.775 50.448 456.247 50.568 456.647 50.808C457.047 51.048 457.351 51.388 457.559 51.828C457.775 52.26 457.883 52.768 457.883 53.352V53.988H453.479C453.495 54.716 453.679 55.272 454.031 55.656C454.391 56.032 454.891 56.22 455.531 56.22C455.939 56.22 456.299 56.184 456.611 56.112C456.931 56.032 457.259 55.92 457.595 55.776V56.7C457.267 56.844 456.943 56.948 456.623 57.012C456.303 57.084 455.923 57.12 455.483 57.12C454.867 57.12 454.327 56.996 453.863 56.748C453.399 56.5 453.035 56.132 452.771 55.644C452.515 55.156 452.387 54.552 452.387 53.832C452.387 53.128 452.503 52.524 452.735 52.02C452.975 51.516 453.307 51.128 453.731 50.856C454.163 50.584 454.663 50.448 455.231 50.448ZM455.219 51.312C454.715 51.312 454.315 51.476 454.019 51.804C453.731 52.124 453.559 52.572 453.503 53.148H456.779C456.771 52.604 456.643 52.164 456.395 51.828C456.147 51.484 455.755 51.312 455.219 51.312ZM461.956 50.46C462.74 50.46 463.32 50.632 463.696 50.976C464.072 51.32 464.26 51.868 464.26 52.62V57H463.492L463.288 56.088H463.24C462.96 56.44 462.664 56.7 462.352 56.868C462.04 57.036 461.616 57.12 461.08 57.12C460.496 57.12 460.012 56.968 459.628 56.664C459.244 56.352 459.052 55.868 459.052 55.212C459.052 54.572 459.304 54.08 459.808 53.736C460.312 53.384 461.088 53.192 462.136 53.16L463.228 53.124V52.74C463.228 52.204 463.112 51.832 462.88 51.624C462.648 51.416 462.32 51.312 461.896 51.312C461.56 51.312 461.24 51.364 460.936 51.468C460.632 51.564 460.348 51.676 460.084 51.804L459.76 51.012C460.04 50.86 460.372 50.732 460.756 50.628C461.14 50.516 461.54 50.46 461.956 50.46ZM463.216 53.856L462.268 53.892C461.468 53.924 460.912 54.052 460.6 54.276C460.296 54.5 460.144 54.816 460.144 55.224C460.144 55.584 460.252 55.848 460.468 56.016C460.692 56.184 460.976 56.268 461.32 56.268C461.856 56.268 462.304 56.12 462.664 55.824C463.032 55.52 463.216 55.056 463.216 54.432V53.856ZM468.527 57.12C467.727 57.12 467.087 56.844 466.607 56.292C466.127 55.732 465.887 54.9 465.887 53.796C465.887 52.692 466.127 51.86 466.607 51.3C467.095 50.732 467.739 50.448 468.539 50.448C469.035 50.448 469.439 50.54 469.751 50.724C470.071 50.908 470.331 51.132 470.531 51.396H470.603C470.587 51.292 470.571 51.14 470.555 50.94C470.539 50.732 470.531 50.568 470.531 50.448V47.88H471.587V57H470.735L470.579 56.136H470.531C470.339 56.408 470.083 56.64 469.763 56.832C469.443 57.024 469.031 57.12 468.527 57.12ZM468.695 56.244C469.375 56.244 469.851 56.06 470.123 55.692C470.403 55.316 470.543 54.752 470.543 54V53.808C470.543 53.008 470.411 52.396 470.147 51.972C469.883 51.54 469.395 51.324 468.683 51.324C468.115 51.324 467.687 51.552 467.399 52.008C467.119 52.456 466.979 53.06 466.979 53.82C466.979 54.588 467.119 55.184 467.399 55.608C467.687 56.032 468.119 56.244 468.695 56.244ZM474.169 48.156C474.329 48.156 474.469 48.212 474.589 48.324C474.717 48.428 474.781 48.596 474.781 48.828C474.781 49.06 474.717 49.232 474.589 49.344C474.469 49.448 474.329 49.5 474.169 49.5C473.993 49.5 473.845 49.448 473.725 49.344C473.605 49.232 473.545 49.06 473.545 48.828C473.545 48.596 473.605 48.428 473.725 48.324C473.845 48.212 473.993 48.156 474.169 48.156ZM474.685 50.568V57H473.629V50.568H474.685ZM479.819 50.448C480.587 50.448 481.167 50.636 481.559 51.012C481.951 51.388 482.147 51.988 482.147 52.812V57H481.103V52.884C481.103 51.852 480.623 51.336 479.663 51.336C478.951 51.336 478.459 51.536 478.187 51.936C477.915 52.336 477.779 52.912 477.779 53.664V57H476.723V50.568H477.575L477.731 51.444H477.791C477.999 51.108 478.287 50.86 478.655 50.7C479.023 50.532 479.411 50.448 479.819 50.448ZM486.421 50.448C486.845 50.448 487.225 50.528 487.561 50.688C487.905 50.848 488.197 51.092 488.437 51.42H488.497L488.641 50.568H489.481V57.108C489.481 58.028 489.245 58.72 488.773 59.184C488.309 59.648 487.585 59.88 486.601 59.88C485.657 59.88 484.885 59.744 484.285 59.472V58.5C484.917 58.836 485.709 59.004 486.661 59.004C487.213 59.004 487.645 58.84 487.957 58.512C488.277 58.192 488.437 57.752 488.437 57.192V56.94C488.437 56.844 488.441 56.708 488.449 56.532C488.457 56.348 488.465 56.22 488.473 56.148H488.425C487.993 56.796 487.329 57.12 486.433 57.12C485.601 57.12 484.949 56.828 484.477 56.244C484.013 55.66 483.781 54.844 483.781 53.796C483.781 52.772 484.013 51.96 484.477 51.36C484.949 50.752 485.597 50.448 486.421 50.448ZM486.565 51.336C486.029 51.336 485.613 51.552 485.317 51.984C485.021 52.408 484.873 53.016 484.873 53.808C484.873 54.6 485.017 55.208 485.305 55.632C485.593 56.048 486.021 56.256 486.589 56.256C487.237 56.256 487.709 56.084 488.005 55.74C488.301 55.388 488.449 54.824 488.449 54.048V53.796C488.449 52.924 488.297 52.296 487.993 51.912C487.689 51.528 487.213 51.336 486.565 51.336Z" fill="black"/>
<rect x="385" y="72" width="16" height="16" rx="4" fill="white"/>
<rect x="385.5" y="72.5" width="15" height="15" rx="3.5" stroke="#1B77AF"/>
<path d="M414.642 75.97C413.569 75.97 412.724 76.3293 412.108 77.048C411.492 77.7667 411.184 78.7513 411.184 80.002C411.184 81.2433 411.469 82.228 412.038 82.956C412.617 83.6747 413.48 84.034 414.628 84.034C415.057 84.034 415.468 83.9967 415.86 83.922C416.252 83.8473 416.639 83.754 417.022 83.642V84.734C416.649 84.874 416.261 84.9767 415.86 85.042C415.468 85.1073 414.997 85.14 414.446 85.14C413.429 85.14 412.579 84.93 411.898 84.51C411.217 84.09 410.703 83.4927 410.358 82.718C410.022 81.9433 409.854 81.0333 409.854 79.988C409.854 78.98 410.036 78.0933 410.4 77.328C410.773 76.5533 411.319 75.9513 412.038 75.522C412.757 75.0833 413.629 74.864 414.656 74.864C415.711 74.864 416.63 75.06 417.414 75.452L416.91 76.516C416.602 76.376 416.257 76.25 415.874 76.138C415.501 76.026 415.09 75.97 414.642 75.97ZM420.268 74.36V77.482C420.268 77.8553 420.244 78.2053 420.198 78.532H420.282C420.524 78.1493 420.851 77.86 421.262 77.664C421.682 77.468 422.134 77.37 422.62 77.37C423.525 77.37 424.206 77.5893 424.664 78.028C425.13 78.4573 425.364 79.1527 425.364 80.114V85H424.146V80.198C424.146 78.994 423.586 78.392 422.466 78.392C421.626 78.392 421.047 78.63 420.73 79.106C420.422 79.5727 420.268 80.2447 420.268 81.122V85H419.036V74.36H420.268ZM430.588 77.356C431.223 77.356 431.773 77.496 432.24 77.776C432.707 78.056 433.061 78.4527 433.304 78.966C433.556 79.47 433.682 80.0627 433.682 80.744V81.486H428.544C428.563 82.3353 428.777 82.984 429.188 83.432C429.608 83.8707 430.191 84.09 430.938 84.09C431.414 84.09 431.834 84.048 432.198 83.964C432.571 83.8707 432.954 83.74 433.346 83.572V84.65C432.963 84.818 432.585 84.9393 432.212 85.014C431.839 85.098 431.395 85.14 430.882 85.14C430.163 85.14 429.533 84.9953 428.992 84.706C428.451 84.4167 428.026 83.9873 427.718 83.418C427.419 82.8487 427.27 82.144 427.27 81.304C427.27 80.4827 427.405 79.778 427.676 79.19C427.956 78.602 428.343 78.1493 428.838 77.832C429.342 77.5147 429.925 77.356 430.588 77.356ZM430.574 78.364C429.986 78.364 429.519 78.5553 429.174 78.938C428.838 79.3113 428.637 79.834 428.572 80.506H432.394C432.385 79.8713 432.235 79.358 431.946 78.966C431.657 78.5647 431.199 78.364 430.574 78.364ZM438.602 85.14C437.93 85.14 437.338 85.0047 436.824 84.734C436.311 84.4633 435.905 84.0433 435.606 83.474C435.317 82.9047 435.172 82.1767 435.172 81.29C435.172 80.366 435.322 79.6147 435.62 79.036C435.928 78.4573 436.348 78.0327 436.88 77.762C437.412 77.4913 438.014 77.356 438.686 77.356C439.06 77.356 439.424 77.398 439.778 77.482C440.142 77.5567 440.436 77.65 440.66 77.762L440.282 78.784C440.058 78.7 439.797 78.6207 439.498 78.546C439.2 78.4713 438.92 78.434 438.658 78.434C437.184 78.434 436.446 79.3813 436.446 81.276C436.446 82.1813 436.624 82.8767 436.978 83.362C437.342 83.838 437.879 84.076 438.588 84.076C438.99 84.076 439.349 84.034 439.666 83.95C439.984 83.866 440.273 83.7633 440.534 83.642V84.734C440.282 84.8647 440.002 84.9627 439.694 85.028C439.396 85.1027 439.032 85.14 438.602 85.14ZM443.537 74.36V79.918C443.537 80.0673 443.528 80.2633 443.509 80.506C443.5 80.7487 443.49 80.9587 443.481 81.136H443.537C443.593 81.0613 443.677 80.954 443.789 80.814C443.901 80.674 444.013 80.534 444.125 80.394C444.246 80.2447 444.349 80.1233 444.433 80.03L446.827 77.496H448.269L445.231 80.702L448.479 85H446.995L444.391 81.5L443.537 82.242V85H442.319V74.36H443.537ZM451.029 74.36V76.95C451.029 77.2673 451.02 77.566 451.001 77.846C450.992 78.1167 450.978 78.3313 450.959 78.49H451.029C451.244 78.1727 451.538 77.9067 451.911 77.692C452.285 77.4773 452.765 77.37 453.353 77.37C454.287 77.37 455.033 77.6967 455.593 78.35C456.163 78.994 456.447 79.96 456.447 81.248C456.447 82.536 456.163 83.5067 455.593 84.16C455.024 84.8133 454.277 85.14 453.353 85.14C452.765 85.14 452.285 85.0327 451.911 84.818C451.538 84.6033 451.244 84.3467 451.029 84.048H450.931L450.679 85H449.797V74.36H451.029ZM453.143 78.392C452.341 78.392 451.785 78.6207 451.477 79.078C451.179 79.5353 451.029 80.2447 451.029 81.206V81.262C451.029 82.186 451.179 82.8953 451.477 83.39C451.785 83.8753 452.35 84.118 453.171 84.118C453.843 84.118 454.343 83.8707 454.669 83.376C455.005 82.8813 455.173 82.1673 455.173 81.234C455.173 79.3393 454.497 78.392 453.143 78.392ZM464.935 81.234C464.935 82.4753 464.617 83.4367 463.983 84.118C463.357 84.7993 462.508 85.14 461.435 85.14C460.772 85.14 460.179 84.9907 459.657 84.692C459.143 84.384 458.737 83.9407 458.439 83.362C458.14 82.774 457.991 82.0647 457.991 81.234C457.991 79.9927 458.299 79.036 458.915 78.364C459.54 77.692 460.394 77.356 461.477 77.356C462.149 77.356 462.746 77.51 463.269 77.818C463.791 78.1167 464.197 78.5553 464.487 79.134C464.785 79.7033 464.935 80.4033 464.935 81.234ZM459.265 81.234C459.265 82.1207 459.437 82.8253 459.783 83.348C460.137 83.8613 460.697 84.118 461.463 84.118C462.219 84.118 462.774 83.8613 463.129 83.348C463.483 82.8253 463.661 82.1207 463.661 81.234C463.661 80.3473 463.483 79.652 463.129 79.148C462.774 78.644 462.214 78.392 461.449 78.392C460.683 78.392 460.128 78.644 459.783 79.148C459.437 79.652 459.265 80.3473 459.265 81.234ZM468.392 81.164L465.802 77.496H467.202L469.134 80.324L471.052 77.496H472.438L469.848 81.164L472.578 85H471.178L469.134 82.004L467.062 85H465.676L468.392 81.164ZM478.893 85H477.661V74.36H478.893V85ZM484.112 77.37C485.027 77.37 485.703 77.5707 486.142 77.972C486.581 78.3733 486.8 79.0127 486.8 79.89V85H485.904L485.666 83.936H485.61C485.283 84.3467 484.938 84.65 484.574 84.846C484.21 85.042 483.715 85.14 483.09 85.14C482.409 85.14 481.844 84.9627 481.396 84.608C480.948 84.244 480.724 83.6793 480.724 82.914C480.724 82.1673 481.018 81.5933 481.606 81.192C482.194 80.7813 483.099 80.5573 484.322 80.52L485.596 80.478V80.03C485.596 79.4047 485.461 78.9707 485.19 78.728C484.919 78.4853 484.537 78.364 484.042 78.364C483.65 78.364 483.277 78.4247 482.922 78.546C482.567 78.658 482.236 78.7887 481.928 78.938L481.55 78.014C481.877 77.8367 482.264 77.6873 482.712 77.566C483.16 77.4353 483.627 77.37 484.112 77.37ZM485.582 81.332L484.476 81.374C483.543 81.4113 482.894 81.5607 482.53 81.822C482.175 82.0833 481.998 82.452 481.998 82.928C481.998 83.348 482.124 83.656 482.376 83.852C482.637 84.048 482.969 84.146 483.37 84.146C483.995 84.146 484.518 83.9733 484.938 83.628C485.367 83.2733 485.582 82.732 485.582 82.004V81.332ZM490.35 74.36V76.95C490.35 77.2673 490.34 77.566 490.322 77.846C490.312 78.1167 490.298 78.3313 490.28 78.49H490.35C490.564 78.1727 490.858 77.9067 491.232 77.692C491.605 77.4773 492.086 77.37 492.674 77.37C493.607 77.37 494.354 77.6967 494.914 78.35C495.483 78.994 495.768 79.96 495.768 81.248C495.768 82.536 495.483 83.5067 494.914 84.16C494.344 84.8133 493.598 85.14 492.674 85.14C492.086 85.14 491.605 85.0327 491.232 84.818C490.858 84.6033 490.564 84.3467 490.35 84.048H490.252L490 85H489.118V74.36H490.35ZM492.464 78.392C491.661 78.392 491.106 78.6207 490.798 79.078C490.499 79.5353 490.35 80.2447 490.35 81.206V81.262C490.35 82.186 490.499 82.8953 490.798 83.39C491.106 83.8753 491.67 84.118 492.492 84.118C493.164 84.118 493.663 83.8707 493.99 83.376C494.326 82.8813 494.494 82.1673 494.494 81.234C494.494 79.3393 493.817 78.392 492.464 78.392ZM500.629 77.356C501.264 77.356 501.814 77.496 502.281 77.776C502.748 78.056 503.102 78.4527 503.345 78.966C503.597 79.47 503.723 80.0627 503.723 80.744V81.486H498.585C498.604 82.3353 498.818 82.984 499.229 83.432C499.649 83.8707 500.232 84.09 500.979 84.09C501.455 84.09 501.875 84.048 502.239 83.964C502.612 83.8707 502.995 83.74 503.387 83.572V84.65C503.004 84.818 502.626 84.9393 502.253 85.014C501.88 85.098 501.436 85.14 500.923 85.14C500.204 85.14 499.574 84.9953 499.033 84.706C498.492 84.4167 498.067 83.9873 497.759 83.418C497.46 82.8487 497.311 82.144 497.311 81.304C497.311 80.4827 497.446 79.778 497.717 79.19C497.997 78.602 498.384 78.1493 498.879 77.832C499.383 77.5147 499.966 77.356 500.629 77.356ZM500.615 78.364C500.027 78.364 499.56 78.5553 499.215 78.938C498.879 79.3113 498.678 79.834 498.613 80.506H502.435C502.426 79.8713 502.276 79.358 501.987 78.966C501.698 78.5647 501.24 78.364 500.615 78.364ZM506.865 85H505.633V74.36H506.865V85Z" fill="black"/>
<rect x="385" y="102" width="16" height="16" rx="4" fill="white"/>
<rect x="385.5" y="102.5" width="15" height="15" rx="3.5" stroke="#1B77AF"/>
<path d="M414.642 105.97C413.569 105.97 412.724 106.329 412.108 107.048C411.492 107.767 411.184 108.751 411.184 110.002C411.184 111.243 411.469 112.228 412.038 112.956C412.617 113.675 413.48 114.034 414.628 114.034C415.057 114.034 415.468 113.997 415.86 113.922C416.252 113.847 416.639 113.754 417.022 113.642V114.734C416.649 114.874 416.261 114.977 415.86 115.042C415.468 115.107 414.997 115.14 414.446 115.14C413.429 115.14 412.579 114.93 411.898 114.51C411.217 114.09 410.703 113.493 410.358 112.718C410.022 111.943 409.854 111.033 409.854 109.988C409.854 108.98 410.036 108.093 410.4 107.328C410.773 106.553 411.319 105.951 412.038 105.522C412.757 105.083 413.629 104.864 414.656 104.864C415.711 104.864 416.63 105.06 417.414 105.452L416.91 106.516C416.602 106.376 416.257 106.25 415.874 106.138C415.501 106.026 415.09 105.97 414.642 105.97ZM420.268 104.36V107.482C420.268 107.855 420.244 108.205 420.198 108.532H420.282C420.524 108.149 420.851 107.86 421.262 107.664C421.682 107.468 422.134 107.37 422.62 107.37C423.525 107.37 424.206 107.589 424.664 108.028C425.13 108.457 425.364 109.153 425.364 110.114V115H424.146V110.198C424.146 108.994 423.586 108.392 422.466 108.392C421.626 108.392 421.047 108.63 420.73 109.106C420.422 109.573 420.268 110.245 420.268 111.122V115H419.036V104.36H420.268ZM430.588 107.356C431.223 107.356 431.773 107.496 432.24 107.776C432.707 108.056 433.061 108.453 433.304 108.966C433.556 109.47 433.682 110.063 433.682 110.744V111.486H428.544C428.563 112.335 428.777 112.984 429.188 113.432C429.608 113.871 430.191 114.09 430.938 114.09C431.414 114.09 431.834 114.048 432.198 113.964C432.571 113.871 432.954 113.74 433.346 113.572V114.65C432.963 114.818 432.585 114.939 432.212 115.014C431.839 115.098 431.395 115.14 430.882 115.14C430.163 115.14 429.533 114.995 428.992 114.706C428.451 114.417 428.026 113.987 427.718 113.418C427.419 112.849 427.27 112.144 427.27 111.304C427.27 110.483 427.405 109.778 427.676 109.19C427.956 108.602 428.343 108.149 428.838 107.832C429.342 107.515 429.925 107.356 430.588 107.356ZM430.574 108.364C429.986 108.364 429.519 108.555 429.174 108.938C428.838 109.311 428.637 109.834 428.572 110.506H432.394C432.385 109.871 432.235 109.358 431.946 108.966C431.657 108.565 431.199 108.364 430.574 108.364ZM438.602 115.14C437.93 115.14 437.338 115.005 436.824 114.734C436.311 114.463 435.905 114.043 435.606 113.474C435.317 112.905 435.172 112.177 435.172 111.29C435.172 110.366 435.322 109.615 435.62 109.036C435.928 108.457 436.348 108.033 436.88 107.762C437.412 107.491 438.014 107.356 438.686 107.356C439.06 107.356 439.424 107.398 439.778 107.482C440.142 107.557 440.436 107.65 440.66 107.762L440.282 108.784C440.058 108.7 439.797 108.621 439.498 108.546C439.2 108.471 438.92 108.434 438.658 108.434C437.184 108.434 436.446 109.381 436.446 111.276C436.446 112.181 436.624 112.877 436.978 113.362C437.342 113.838 437.879 114.076 438.588 114.076C438.99 114.076 439.349 114.034 439.666 113.95C439.984 113.866 440.273 113.763 440.534 113.642V114.734C440.282 114.865 440.002 114.963 439.694 115.028C439.396 115.103 439.032 115.14 438.602 115.14ZM443.537 104.36V109.918C443.537 110.067 443.528 110.263 443.509 110.506C443.5 110.749 443.49 110.959 443.481 111.136H443.537C443.593 111.061 443.677 110.954 443.789 110.814C443.901 110.674 444.013 110.534 444.125 110.394C444.246 110.245 444.349 110.123 444.433 110.03L446.827 107.496H448.269L445.231 110.702L448.479 115H446.995L444.391 111.5L443.537 112.242V115H442.319V104.36H443.537ZM451.029 104.36V106.95C451.029 107.267 451.02 107.566 451.001 107.846C450.992 108.117 450.978 108.331 450.959 108.49H451.029C451.244 108.173 451.538 107.907 451.911 107.692C452.285 107.477 452.765 107.37 453.353 107.37C454.287 107.37 455.033 107.697 455.593 108.35C456.163 108.994 456.447 109.96 456.447 111.248C456.447 112.536 456.163 113.507 455.593 114.16C455.024 114.813 454.277 115.14 453.353 115.14C452.765 115.14 452.285 115.033 451.911 114.818C451.538 114.603 451.244 114.347 451.029 114.048H450.931L450.679 115H449.797V104.36H451.029ZM453.143 108.392C452.341 108.392 451.785 108.621 451.477 109.078C451.179 109.535 451.029 110.245 451.029 111.206V111.262C451.029 112.186 451.179 112.895 451.477 113.39C451.785 113.875 452.35 114.118 453.171 114.118C453.843 114.118 454.343 113.871 454.669 113.376C455.005 112.881 455.173 112.167 455.173 111.234C455.173 109.339 454.497 108.392 453.143 108.392ZM464.935 111.234C464.935 112.475 464.617 113.437 463.983 114.118C463.357 114.799 462.508 115.14 461.435 115.14C460.772 115.14 460.179 114.991 459.657 114.692C459.143 114.384 458.737 113.941 458.439 113.362C458.14 112.774 457.991 112.065 457.991 111.234C457.991 109.993 458.299 109.036 458.915 108.364C459.54 107.692 460.394 107.356 461.477 107.356C462.149 107.356 462.746 107.51 463.269 107.818C463.791 108.117 464.197 108.555 464.487 109.134C464.785 109.703 464.935 110.403 464.935 111.234ZM459.265 111.234C459.265 112.121 459.437 112.825 459.783 113.348C460.137 113.861 460.697 114.118 461.463 114.118C462.219 114.118 462.774 113.861 463.129 113.348C463.483 112.825 463.661 112.121 463.661 111.234C463.661 110.347 463.483 109.652 463.129 109.148C462.774 108.644 462.214 108.392 461.449 108.392C460.683 108.392 460.128 108.644 459.783 109.148C459.437 109.652 459.265 110.347 459.265 111.234ZM468.392 111.164L465.802 107.496H467.202L469.134 110.324L471.052 107.496H472.438L469.848 111.164L472.578 115H471.178L469.134 112.004L467.062 115H465.676L468.392 111.164ZM478.893 115H477.661V104.36H478.893V115ZM484.112 107.37C485.027 107.37 485.703 107.571 486.142 107.972C486.581 108.373 486.8 109.013 486.8 109.89V115H485.904L485.666 113.936H485.61C485.283 114.347 484.938 114.65 484.574 114.846C484.21 115.042 483.715 115.14 483.09 115.14C482.409 115.14 481.844 114.963 481.396 114.608C480.948 114.244 480.724 113.679 480.724 112.914C480.724 112.167 481.018 111.593 481.606 111.192C482.194 110.781 483.099 110.557 484.322 110.52L485.596 110.478V110.03C485.596 109.405 485.461 108.971 485.19 108.728C484.919 108.485 484.537 108.364 484.042 108.364C483.65 108.364 483.277 108.425 482.922 108.546C482.567 108.658 482.236 108.789 481.928 108.938L481.55 108.014C481.877 107.837 482.264 107.687 482.712 107.566C483.16 107.435 483.627 107.37 484.112 107.37ZM485.582 111.332L484.476 111.374C483.543 111.411 482.894 111.561 482.53 111.822C482.175 112.083 481.998 112.452 481.998 112.928C481.998 113.348 482.124 113.656 482.376 113.852C482.637 114.048 482.969 114.146 483.37 114.146C483.995 114.146 484.518 113.973 484.938 113.628C485.367 113.273 485.582 112.732 485.582 112.004V111.332ZM490.35 104.36V106.95C490.35 107.267 490.34 107.566 490.322 107.846C490.312 108.117 490.298 108.331 490.28 108.49H490.35C490.564 108.173 490.858 107.907 491.232 107.692C491.605 107.477 492.086 107.37 492.674 107.37C493.607 107.37 494.354 107.697 494.914 108.35C495.483 108.994 495.768 109.96 495.768 111.248C495.768 112.536 495.483 113.507 494.914 114.16C494.344 114.813 493.598 115.14 492.674 115.14C492.086 115.14 491.605 115.033 491.232 114.818C490.858 114.603 490.564 114.347 490.35 114.048H490.252L490 115H489.118V104.36H490.35ZM492.464 108.392C491.661 108.392 491.106 108.621 490.798 109.078C490.499 109.535 490.35 110.245 490.35 111.206V111.262C490.35 112.186 490.499 112.895 490.798 113.39C491.106 113.875 491.67 114.118 492.492 114.118C493.164 114.118 493.663 113.871 493.99 113.376C494.326 112.881 494.494 112.167 494.494 111.234C494.494 109.339 493.817 108.392 492.464 108.392ZM500.629 107.356C501.264 107.356 501.814 107.496 502.281 107.776C502.748 108.056 503.102 108.453 503.345 108.966C503.597 109.47 503.723 110.063 503.723 110.744V111.486H498.585C498.604 112.335 498.818 112.984 499.229 113.432C499.649 113.871 500.232 114.09 500.979 114.09C501.455 114.09 501.875 114.048 502.239 113.964C502.612 113.871 502.995 113.74 503.387 113.572V114.65C503.004 114.818 502.626 114.939 502.253 115.014C501.88 115.098 501.436 115.14 500.923 115.14C500.204 115.14 499.574 114.995 499.033 114.706C498.492 114.417 498.067 113.987 497.759 113.418C497.46 112.849 497.311 112.144 497.311 111.304C497.311 110.483 497.446 109.778 497.717 109.19C497.997 108.602 498.384 108.149 498.879 107.832C499.383 107.515 499.966 107.356 500.629 107.356ZM500.615 108.364C500.027 108.364 499.56 108.555 499.215 108.938C498.879 109.311 498.678 109.834 498.613 110.506H502.435C502.426 109.871 502.276 109.358 501.987 108.966C501.698 108.565 501.24 108.364 500.615 108.364ZM506.865 115H505.633V104.36H506.865V115Z" fill="black"/>
<rect x="385" y="132" width="16" height="16" rx="4" fill="white"/>
<rect x="385.5" y="132.5" width="15" height="15" rx="3.5" stroke="#1B77AF"/>
<path d="M414.642 135.97C413.569 135.97 412.724 136.329 412.108 137.048C411.492 137.767 411.184 138.751 411.184 140.002C411.184 141.243 411.469 142.228 412.038 142.956C412.617 143.675 413.48 144.034 414.628 144.034C415.057 144.034 415.468 143.997 415.86 143.922C416.252 143.847 416.639 143.754 417.022 143.642V144.734C416.649 144.874 416.261 144.977 415.86 145.042C415.468 145.107 414.997 145.14 414.446 145.14C413.429 145.14 412.579 144.93 411.898 144.51C411.217 144.09 410.703 143.493 410.358 142.718C410.022 141.943 409.854 141.033 409.854 139.988C409.854 138.98 410.036 138.093 410.4 137.328C410.773 136.553 411.319 135.951 412.038 135.522C412.757 135.083 413.629 134.864 414.656 134.864C415.711 134.864 416.63 135.06 417.414 135.452L416.91 136.516C416.602 136.376 416.257 136.25 415.874 136.138C415.501 136.026 415.09 135.97 414.642 135.97ZM420.268 134.36V137.482C420.268 137.855 420.244 138.205 420.198 138.532H420.282C420.524 138.149 420.851 137.86 421.262 137.664C421.682 137.468 422.134 137.37 422.62 137.37C423.525 137.37 424.206 137.589 424.664 138.028C425.13 138.457 425.364 139.153 425.364 140.114V145H424.146V140.198C424.146 138.994 423.586 138.392 422.466 138.392C421.626 138.392 421.047 138.63 420.73 139.106C420.422 139.573 420.268 140.245 420.268 141.122V145H419.036V134.36H420.268ZM430.588 137.356C431.223 137.356 431.773 137.496 432.24 137.776C432.707 138.056 433.061 138.453 433.304 138.966C433.556 139.47 433.682 140.063 433.682 140.744V141.486H428.544C428.563 142.335 428.777 142.984 429.188 143.432C429.608 143.871 430.191 144.09 430.938 144.09C431.414 144.09 431.834 144.048 432.198 143.964C432.571 143.871 432.954 143.74 433.346 143.572V144.65C432.963 144.818 432.585 144.939 432.212 145.014C431.839 145.098 431.395 145.14 430.882 145.14C430.163 145.14 429.533 144.995 428.992 144.706C428.451 144.417 428.026 143.987 427.718 143.418C427.419 142.849 427.27 142.144 427.27 141.304C427.27 140.483 427.405 139.778 427.676 139.19C427.956 138.602 428.343 138.149 428.838 137.832C429.342 137.515 429.925 137.356 430.588 137.356ZM430.574 138.364C429.986 138.364 429.519 138.555 429.174 138.938C428.838 139.311 428.637 139.834 428.572 140.506H432.394C432.385 139.871 432.235 139.358 431.946 138.966C431.657 138.565 431.199 138.364 430.574 138.364ZM438.602 145.14C437.93 145.14 437.338 145.005 436.824 144.734C436.311 144.463 435.905 144.043 435.606 143.474C435.317 142.905 435.172 142.177 435.172 141.29C435.172 140.366 435.322 139.615 435.62 139.036C435.928 138.457 436.348 138.033 436.88 137.762C437.412 137.491 438.014 137.356 438.686 137.356C439.06 137.356 439.424 137.398 439.778 137.482C440.142 137.557 440.436 137.65 440.66 137.762L440.282 138.784C440.058 138.7 439.797 138.621 439.498 138.546C439.2 138.471 438.92 138.434 438.658 138.434C437.184 138.434 436.446 139.381 436.446 141.276C436.446 142.181 436.624 142.877 436.978 143.362C437.342 143.838 437.879 144.076 438.588 144.076C438.99 144.076 439.349 144.034 439.666 143.95C439.984 143.866 440.273 143.763 440.534 143.642V144.734C440.282 144.865 440.002 144.963 439.694 145.028C439.396 145.103 439.032 145.14 438.602 145.14ZM443.537 134.36V139.918C443.537 140.067 443.528 140.263 443.509 140.506C443.5 140.749 443.49 140.959 443.481 141.136H443.537C443.593 141.061 443.677 140.954 443.789 140.814C443.901 140.674 444.013 140.534 444.125 140.394C444.246 140.245 444.349 140.123 444.433 140.03L446.827 137.496H448.269L445.231 140.702L448.479 145H446.995L444.391 141.5L443.537 142.242V145H442.319V134.36H443.537ZM451.029 134.36V136.95C451.029 137.267 451.02 137.566 451.001 137.846C450.992 138.117 450.978 138.331 450.959 138.49H451.029C451.244 138.173 451.538 137.907 451.911 137.692C452.285 137.477 452.765 137.37 453.353 137.37C454.287 137.37 455.033 137.697 455.593 138.35C456.163 138.994 456.447 139.96 456.447 141.248C456.447 142.536 456.163 143.507 455.593 144.16C455.024 144.813 454.277 145.14 453.353 145.14C452.765 145.14 452.285 145.033 451.911 144.818C451.538 144.603 451.244 144.347 451.029 144.048H450.931L450.679 145H449.797V134.36H451.029ZM453.143 138.392C452.341 138.392 451.785 138.621 451.477 139.078C451.179 139.535 451.029 140.245 451.029 141.206V141.262C451.029 142.186 451.179 142.895 451.477 143.39C451.785 143.875 452.35 144.118 453.171 144.118C453.843 144.118 454.343 143.871 454.669 143.376C455.005 142.881 455.173 142.167 455.173 141.234C455.173 139.339 454.497 138.392 453.143 138.392ZM464.935 141.234C464.935 142.475 464.617 143.437 463.983 144.118C463.357 144.799 462.508 145.14 461.435 145.14C460.772 145.14 460.179 144.991 459.657 144.692C459.143 144.384 458.737 143.941 458.439 143.362C458.14 142.774 457.991 142.065 457.991 141.234C457.991 139.993 458.299 139.036 458.915 138.364C459.54 137.692 460.394 137.356 461.477 137.356C462.149 137.356 462.746 137.51 463.269 137.818C463.791 138.117 464.197 138.555 464.487 139.134C464.785 139.703 464.935 140.403 464.935 141.234ZM459.265 141.234C459.265 142.121 459.437 142.825 459.783 143.348C460.137 143.861 460.697 144.118 461.463 144.118C462.219 144.118 462.774 143.861 463.129 143.348C463.483 142.825 463.661 142.121 463.661 141.234C463.661 140.347 463.483 139.652 463.129 139.148C462.774 138.644 462.214 138.392 461.449 138.392C460.683 138.392 460.128 138.644 459.783 139.148C459.437 139.652 459.265 140.347 459.265 141.234ZM468.392 141.164L465.802 137.496H467.202L469.134 140.324L471.052 137.496H472.438L469.848 141.164L472.578 145H471.178L469.134 142.004L467.062 145H465.676L468.392 141.164ZM478.893 145H477.661V134.36H478.893V145ZM484.112 137.37C485.027 137.37 485.703 137.571 486.142 137.972C486.581 138.373 486.8 139.013 486.8 139.89V145H485.904L485.666 143.936H485.61C485.283 144.347 484.938 144.65 484.574 144.846C484.21 145.042 483.715 145.14 483.09 145.14C482.409 145.14 481.844 144.963 481.396 144.608C480.948 144.244 480.724 143.679 480.724 142.914C480.724 142.167 481.018 141.593 481.606 141.192C482.194 140.781 483.099 140.557 484.322 140.52L485.596 140.478V140.03C485.596 139.405 485.461 138.971 485.19 138.728C484.919 138.485 484.537 138.364 484.042 138.364C483.65 138.364 483.277 138.425 482.922 138.546C482.567 138.658 482.236 138.789 481.928 138.938L481.55 138.014C481.877 137.837 482.264 137.687 482.712 137.566C483.16 137.435 483.627 137.37 484.112 137.37ZM485.582 141.332L484.476 141.374C483.543 141.411 482.894 141.561 482.53 141.822C482.175 142.083 481.998 142.452 481.998 142.928C481.998 143.348 482.124 143.656 482.376 143.852C482.637 144.048 482.969 144.146 483.37 144.146C483.995 144.146 484.518 143.973 484.938 143.628C485.367 143.273 485.582 142.732 485.582 142.004V141.332ZM490.35 134.36V136.95C490.35 137.267 490.34 137.566 490.322 137.846C490.312 138.117 490.298 138.331 490.28 138.49H490.35C490.564 138.173 490.858 137.907 491.232 137.692C491.605 137.477 492.086 137.37 492.674 137.37C493.607 137.37 494.354 137.697 494.914 138.35C495.483 138.994 495.768 139.96 495.768 141.248C495.768 142.536 495.483 143.507 494.914 144.16C494.344 144.813 493.598 145.14 492.674 145.14C492.086 145.14 491.605 145.033 491.232 144.818C490.858 144.603 490.564 144.347 490.35 144.048H490.252L490 145H489.118V134.36H490.35ZM492.464 138.392C491.661 138.392 491.106 138.621 490.798 139.078C490.499 139.535 490.35 140.245 490.35 141.206V141.262C490.35 142.186 490.499 142.895 490.798 143.39C491.106 143.875 491.67 144.118 492.492 144.118C493.164 144.118 493.663 143.871 493.99 143.376C494.326 142.881 494.494 142.167 494.494 141.234C494.494 139.339 493.817 138.392 492.464 138.392ZM500.629 137.356C501.264 137.356 501.814 137.496 502.281 137.776C502.748 138.056 503.102 138.453 503.345 138.966C503.597 139.47 503.723 140.063 503.723 140.744V141.486H498.585C498.604 142.335 498.818 142.984 499.229 143.432C499.649 143.871 500.232 144.09 500.979 144.09C501.455 144.09 501.875 144.048 502.239 143.964C502.612 143.871 502.995 143.74 503.387 143.572V144.65C503.004 144.818 502.626 144.939 502.253 145.014C501.88 145.098 501.436 145.14 500.923 145.14C500.204 145.14 499.574 144.995 499.033 144.706C498.492 144.417 498.067 143.987 497.759 143.418C497.46 142.849 497.311 142.144 497.311 141.304C497.311 140.483 497.446 139.778 497.717 139.19C497.997 138.602 498.384 138.149 498.879 137.832C499.383 137.515 499.966 137.356 500.629 137.356ZM500.615 138.364C500.027 138.364 499.56 138.555 499.215 138.938C498.879 139.311 498.678 139.834 498.613 140.506H502.435C502.426 139.871 502.276 139.358 501.987 138.966C501.698 138.565 501.24 138.364 500.615 138.364ZM506.865 145H505.633V134.36H506.865V145Z" fill="black"/>
<circle cx="393" cy="12" r="12" fill="#D51588"/>
<path d="M394.968 17H393.204V10.77C393.204 10.4713 393.209 10.154 393.218 9.818C393.227 9.482 393.241 9.16933 393.26 8.88C393.167 8.97333 393.05 9.08533 392.91 9.216C392.779 9.34667 392.635 9.47267 392.476 9.594L391.356 10.49L390.474 9.398L393.498 7.004H394.968V17Z" fill="white"/>
<path d="M393 24V44" stroke="#D51588"/>
<path d="M509 81H546" stroke="#D51588"/>
<circle cx="558" cy="81" r="12" fill="#D51588"/>
<path d="M561.55 78.286C561.55 78.9673 561.349 79.5133 560.948 79.924C560.556 80.3253 560.047 80.596 559.422 80.736V80.778C560.225 80.8807 560.831 81.1327 561.242 81.534C561.653 81.9353 561.858 82.4627 561.858 83.116C561.858 83.6947 561.718 84.2127 561.438 84.67C561.158 85.1273 560.724 85.4867 560.136 85.748C559.557 86.0093 558.811 86.14 557.896 86.14C557.345 86.14 556.837 86.0933 556.37 86C555.913 85.916 555.479 85.7807 555.068 85.594V84.04C555.488 84.2547 555.936 84.418 556.412 84.53C556.888 84.642 557.336 84.698 557.756 84.698C558.568 84.698 559.142 84.5533 559.478 84.264C559.814 83.9653 559.982 83.5547 559.982 83.032C559.982 82.5373 559.786 82.1687 559.394 81.926C559.002 81.6833 558.349 81.562 557.434 81.562H556.594V80.148H557.448C558.335 80.148 558.946 80.0033 559.282 79.714C559.618 79.4247 559.786 79.0513 559.786 78.594C559.786 78.1927 559.655 77.88 559.394 77.656C559.133 77.432 558.741 77.32 558.218 77.32C557.714 77.32 557.28 77.404 556.916 77.572C556.552 77.7307 556.225 77.9033 555.936 78.09L555.096 76.872C555.479 76.592 555.931 76.354 556.454 76.158C556.977 75.962 557.593 75.864 558.302 75.864C559.338 75.864 560.136 76.0833 560.696 76.522C561.265 76.9607 561.55 77.5487 561.55 78.286Z" fill="white"/>
<circle cx="346" cy="81" r="12" fill="#D51588"/>
<path d="M349.942 86H343.096V84.698L345.644 82.122C346.148 81.6087 346.559 81.17 346.876 80.806C347.203 80.442 347.441 80.1013 347.59 79.784C347.749 79.4573 347.828 79.1073 347.828 78.734C347.828 78.2767 347.697 77.936 347.436 77.712C347.184 77.4787 346.839 77.362 346.4 77.362C345.98 77.362 345.588 77.4507 345.224 77.628C344.86 77.796 344.482 78.0387 344.09 78.356L343.124 77.194C343.535 76.8393 343.997 76.5313 344.51 76.27C345.033 75.9993 345.695 75.864 346.498 75.864C347.142 75.864 347.693 75.9807 348.15 76.214C348.617 76.438 348.976 76.7553 349.228 77.166C349.48 77.5673 349.606 78.0293 349.606 78.552C349.606 79.0933 349.499 79.5927 349.284 80.05C349.069 80.498 348.757 80.9507 348.346 81.408C347.945 81.856 347.464 82.3413 346.904 82.864L345.322 84.39V84.474H349.942V86Z" fill="white"/>
<path d="M358 81H385" stroke="#D51588"/>
</svg>
