<svg width="412" height="348" viewBox="0 0 412 348" fill="none" xmlns="http://www.w3.org/2000/svg">
<rect width="412" height="348" fill="white"/>
<path d="M53.956 53H52.696L48.112 45.884H48.064C48.08 46.164 48.1 46.512 48.124 46.928C48.148 47.344 48.16 47.772 48.16 48.212V53H47.164V44.432H48.412L52.984 51.524H53.032C53.024 51.396 53.012 51.204 52.996 50.948C52.988 50.692 52.976 50.416 52.96 50.12C52.952 49.816 52.948 49.532 52.948 49.268V44.432H53.956V53ZM58.5732 46.46C59.3572 46.46 59.9372 46.632 60.3132 46.976C60.6892 47.32 60.8772 47.868 60.8772 48.62V53H60.1092L59.9052 52.088H59.8572C59.5772 52.44 59.2812 52.7 58.9692 52.868C58.6572 53.036 58.2332 53.12 57.6972 53.12C57.1132 53.12 56.6292 52.968 56.2452 52.664C55.8612 52.352 55.6692 51.868 55.6692 51.212C55.6692 50.572 55.9212 50.08 56.4252 49.736C56.9292 49.384 57.7052 49.192 58.7532 49.16L59.8452 49.124V48.74C59.8452 48.204 59.7292 47.832 59.4972 47.624C59.2652 47.416 58.9372 47.312 58.5132 47.312C58.1772 47.312 57.8572 47.364 57.5532 47.468C57.2492 47.564 56.9652 47.676 56.7012 47.804L56.3772 47.012C56.6572 46.86 56.9892 46.732 57.3732 46.628C57.7572 46.516 58.1572 46.46 58.5732 46.46ZM59.8332 49.856L58.8852 49.892C58.0852 49.924 57.5292 50.052 57.2172 50.276C56.9132 50.5 56.7612 50.816 56.7612 51.224C56.7612 51.584 56.8692 51.848 57.0852 52.016C57.3092 52.184 57.5932 52.268 57.9372 52.268C58.4732 52.268 58.9212 52.12 59.2812 51.824C59.6492 51.52 59.8332 51.056 59.8332 50.432V49.856ZM69.9198 46.448C70.6478 46.448 71.1918 46.636 71.5518 47.012C71.9118 47.388 72.0918 47.988 72.0918 48.812V53H71.0478V48.86C71.0478 47.844 70.6118 47.336 69.7398 47.336C69.1158 47.336 68.6678 47.516 68.3958 47.876C68.1318 48.236 67.9998 48.76 67.9998 49.448V53H66.9558V48.86C66.9558 47.844 66.5158 47.336 65.6358 47.336C64.9878 47.336 64.5398 47.536 64.2918 47.936C64.0438 48.336 63.9198 48.912 63.9198 49.664V53H62.8638V46.568H63.7158L63.8718 47.444H63.9318C64.1318 47.108 64.3998 46.86 64.7358 46.7C65.0798 46.532 65.4438 46.448 65.8278 46.448C66.8358 46.448 67.4918 46.808 67.7958 47.528H67.8558C68.0718 47.16 68.3637 46.888 68.7318 46.712C69.0998 46.536 69.4958 46.448 69.9198 46.448ZM76.5626 46.448C77.1066 46.448 77.5786 46.568 77.9786 46.808C78.3786 47.048 78.6826 47.388 78.8906 47.828C79.1066 48.26 79.2146 48.768 79.2146 49.352V49.988H74.8106C74.8266 50.716 75.0106 51.272 75.3626 51.656C75.7226 52.032 76.2226 52.22 76.8626 52.22C77.2706 52.22 77.6306 52.184 77.9426 52.112C78.2626 52.032 78.5906 51.92 78.9266 51.776V52.7C78.5986 52.844 78.2746 52.948 77.9546 53.012C77.6346 53.084 77.2546 53.12 76.8146 53.12C76.1986 53.12 75.6586 52.996 75.1946 52.748C74.7306 52.5 74.3666 52.132 74.1026 51.644C73.8466 51.156 73.7186 50.552 73.7186 49.832C73.7186 49.128 73.8346 48.524 74.0666 48.02C74.3066 47.516 74.6386 47.128 75.0626 46.856C75.4946 46.584 75.9946 46.448 76.5626 46.448ZM76.5506 47.312C76.0466 47.312 75.6466 47.476 75.3506 47.804C75.0626 48.124 74.8906 48.572 74.8346 49.148H78.1106C78.1026 48.604 77.9746 48.164 77.7266 47.828C77.4786 47.484 77.0866 47.312 76.5506 47.312Z" fill="#323232"/>
<rect x="46.5" y="60.5" width="319" height="35" rx="1.5" fill="white"/>
<rect x="46.5" y="60.5" width="319" height="35" rx="1.5" stroke="#939393"/>
<path d="M51.952 125H47.164V116.432H51.952V117.38H48.244V120.056H51.736V120.992H48.244V124.052H51.952V125ZM60.744 118.448C61.472 118.448 62.016 118.636 62.376 119.012C62.736 119.388 62.916 119.988 62.916 120.812V125H61.872V120.86C61.872 119.844 61.436 119.336 60.564 119.336C59.94 119.336 59.492 119.516 59.22 119.876C58.956 120.236 58.824 120.76 58.824 121.448V125H57.78V120.86C57.78 119.844 57.34 119.336 56.46 119.336C55.812 119.336 55.364 119.536 55.116 119.936C54.868 120.336 54.744 120.912 54.744 121.664V125H53.688V118.568H54.54L54.696 119.444H54.756C54.956 119.108 55.224 118.86 55.56 118.7C55.904 118.532 56.268 118.448 56.652 118.448C57.66 118.448 58.316 118.808 58.62 119.528H58.68C58.896 119.16 59.188 118.888 59.556 118.712C59.924 118.536 60.32 118.448 60.744 118.448ZM67.3388 118.46C68.1228 118.46 68.7028 118.632 69.0788 118.976C69.4548 119.32 69.6428 119.868 69.6428 120.62V125H68.8748L68.6708 124.088H68.6228C68.3428 124.44 68.0468 124.7 67.7348 124.868C67.4228 125.036 66.9988 125.12 66.4628 125.12C65.8788 125.12 65.3948 124.968 65.0108 124.664C64.6268 124.352 64.4348 123.868 64.4348 123.212C64.4348 122.572 64.6868 122.08 65.1908 121.736C65.6948 121.384 66.4708 121.192 67.5188 121.16L68.6108 121.124V120.74C68.6108 120.204 68.4948 119.832 68.2628 119.624C68.0308 119.416 67.7028 119.312 67.2788 119.312C66.9428 119.312 66.6228 119.364 66.3188 119.468C66.0148 119.564 65.7308 119.676 65.4668 119.804L65.1428 119.012C65.4228 118.86 65.7548 118.732 66.1388 118.628C66.5228 118.516 66.9228 118.46 67.3388 118.46ZM68.5988 121.856L67.6508 121.892C66.8508 121.924 66.2948 122.052 65.9828 122.276C65.6788 122.5 65.5268 122.816 65.5268 123.224C65.5268 123.584 65.6348 123.848 65.8508 124.016C66.0748 124.184 66.3588 124.268 66.7028 124.268C67.2388 124.268 67.6868 124.12 68.0468 123.824C68.4148 123.52 68.5988 123.056 68.5988 122.432V121.856ZM72.1694 116.156C72.3294 116.156 72.4694 116.212 72.5894 116.324C72.7174 116.428 72.7814 116.596 72.7814 116.828C72.7814 117.06 72.7174 117.232 72.5894 117.344C72.4694 117.448 72.3294 117.5 72.1694 117.5C71.9934 117.5 71.8454 117.448 71.7254 117.344C71.6054 117.232 71.5454 117.06 71.5454 116.828C71.5454 116.596 71.6054 116.428 71.7254 116.324C71.8454 116.212 71.9934 116.156 72.1694 116.156ZM72.6854 118.568V125H71.6294V118.568H72.6854ZM75.7791 125H74.7231V115.88H75.7791V125Z" fill="#323232"/>
<rect x="46.5" y="132.5" width="319" height="35" rx="1.5" fill="white"/>
<rect x="46.5" y="132.5" width="319" height="35" rx="1.5" stroke="#939393"/>
<path d="M50.836 189.26C49.916 189.26 49.192 189.568 48.664 190.184C48.136 190.8 47.872 191.644 47.872 192.716C47.872 193.78 48.116 194.624 48.604 195.248C49.1 195.864 49.84 196.172 50.824 196.172C51.192 196.172 51.544 196.14 51.88 196.076C52.216 196.012 52.548 195.932 52.876 195.836V196.772C52.556 196.892 52.224 196.98 51.88 197.036C51.544 197.092 51.14 197.12 50.668 197.12C49.796 197.12 49.068 196.94 48.484 196.58C47.9 196.22 47.46 195.708 47.164 195.044C46.876 194.38 46.732 193.6 46.732 192.704C46.732 191.84 46.888 191.08 47.2 190.424C47.52 189.76 47.988 189.244 48.604 188.876C49.22 188.5 49.968 188.312 50.848 188.312C51.752 188.312 52.54 188.48 53.212 188.816L52.78 189.728C52.516 189.608 52.22 189.5 51.892 189.404C51.572 189.308 51.22 189.26 50.836 189.26ZM60.194 193.772C60.194 194.836 59.922 195.66 59.378 196.244C58.842 196.828 58.114 197.12 57.194 197.12C56.626 197.12 56.118 196.992 55.67 196.736C55.23 196.472 54.882 196.092 54.626 195.596C54.37 195.092 54.242 194.484 54.242 193.772C54.242 192.708 54.506 191.888 55.034 191.312C55.57 190.736 56.302 190.448 57.23 190.448C57.806 190.448 58.318 190.58 58.766 190.844C59.214 191.1 59.562 191.476 59.81 191.972C60.066 192.46 60.194 193.06 60.194 193.772ZM55.334 193.772C55.334 194.532 55.482 195.136 55.778 195.584C56.082 196.024 56.562 196.244 57.218 196.244C57.866 196.244 58.342 196.024 58.646 195.584C58.95 195.136 59.102 194.532 59.102 193.772C59.102 193.012 58.95 192.416 58.646 191.984C58.342 191.552 57.862 191.336 57.206 191.336C56.55 191.336 56.074 191.552 55.778 191.984C55.482 192.416 55.334 193.012 55.334 193.772ZM68.9237 190.448C69.6517 190.448 70.1957 190.636 70.5557 191.012C70.9157 191.388 71.0957 191.988 71.0957 192.812V197H70.0517V192.86C70.0517 191.844 69.6157 191.336 68.7437 191.336C68.1197 191.336 67.6717 191.516 67.3997 191.876C67.1357 192.236 67.0037 192.76 67.0037 193.448V197H65.9597V192.86C65.9597 191.844 65.5197 191.336 64.6397 191.336C63.9917 191.336 63.5437 191.536 63.2957 191.936C63.0477 192.336 62.9237 192.912 62.9237 193.664V197H61.8677V190.568H62.7197L62.8757 191.444H62.9357C63.1357 191.108 63.4037 190.86 63.7397 190.7C64.0837 190.532 64.4477 190.448 64.8317 190.448C65.8397 190.448 66.4957 190.808 66.7997 191.528H66.8597C67.0757 191.16 67.3677 190.888 67.7357 190.712C68.1037 190.536 68.4997 190.448 68.9237 190.448ZM76.1425 190.448C76.9345 190.448 77.5705 190.724 78.0505 191.276C78.5385 191.828 78.7825 192.66 78.7825 193.772C78.7825 194.868 78.5385 195.7 78.0505 196.268C77.5705 196.836 76.9305 197.12 76.1305 197.12C75.6345 197.12 75.2225 197.028 74.8945 196.844C74.5745 196.66 74.3225 196.44 74.1385 196.184H74.0665C74.0745 196.32 74.0865 196.492 74.1025 196.7C74.1265 196.908 74.1385 197.088 74.1385 197.24V199.88H73.0825V190.568H73.9465L74.0905 191.444H74.1385C74.3305 191.164 74.5825 190.928 74.8945 190.736C75.2065 190.544 75.6225 190.448 76.1425 190.448ZM75.9505 191.336C75.2945 191.336 74.8305 191.52 74.5585 191.888C74.2865 192.256 74.1465 192.816 74.1385 193.568V193.772C74.1385 194.564 74.2665 195.176 74.5225 195.608C74.7865 196.032 75.2705 196.244 75.9745 196.244C76.3585 196.244 76.6785 196.14 76.9345 195.932C77.1905 195.716 77.3785 195.42 77.4985 195.044C77.6265 194.668 77.6905 194.24 77.6905 193.76C77.6905 193.024 77.5465 192.436 77.2585 191.996C76.9785 191.556 76.5425 191.336 75.9505 191.336ZM82.9013 190.46C83.6853 190.46 84.2653 190.632 84.6413 190.976C85.0173 191.32 85.2053 191.868 85.2053 192.62V197H84.4373L84.2333 196.088H84.1853C83.9053 196.44 83.6093 196.7 83.2973 196.868C82.9853 197.036 82.5613 197.12 82.0253 197.12C81.4413 197.12 80.9573 196.968 80.5733 196.664C80.1893 196.352 79.9973 195.868 79.9973 195.212C79.9973 194.572 80.2493 194.08 80.7533 193.736C81.2573 193.384 82.0333 193.192 83.0813 193.16L84.1733 193.124V192.74C84.1733 192.204 84.0573 191.832 83.8253 191.624C83.5933 191.416 83.2653 191.312 82.8413 191.312C82.5053 191.312 82.1853 191.364 81.8813 191.468C81.5773 191.564 81.2933 191.676 81.0293 191.804L80.7053 191.012C80.9853 190.86 81.3173 190.732 81.7013 190.628C82.0853 190.516 82.4853 190.46 82.9013 190.46ZM84.1613 193.856L83.2133 193.892C82.4133 193.924 81.8573 194.052 81.5453 194.276C81.2413 194.5 81.0893 194.816 81.0893 195.224C81.0893 195.584 81.1973 195.848 81.4133 196.016C81.6373 196.184 81.9213 196.268 82.2653 196.268C82.8013 196.268 83.2493 196.12 83.6093 195.824C83.9773 195.52 84.1613 195.056 84.1613 194.432V193.856ZM90.2879 190.448C91.0559 190.448 91.6359 190.636 92.0279 191.012C92.4199 191.388 92.6159 191.988 92.6159 192.812V197H91.5719V192.884C91.5719 191.852 91.0919 191.336 90.1319 191.336C89.4199 191.336 88.9279 191.536 88.6559 191.936C88.3839 192.336 88.2479 192.912 88.2479 193.664V197H87.1919V190.568H88.0439L88.1999 191.444H88.2599C88.4679 191.108 88.7559 190.86 89.1239 190.7C89.4919 190.532 89.8799 190.448 90.2879 190.448ZM93.6018 190.568H94.7298L96.1218 194.228C96.2418 194.556 96.3498 194.864 96.4458 195.152C96.5418 195.44 96.6138 195.716 96.6618 195.98H96.7098C96.7578 195.78 96.8338 195.52 96.9378 195.2C97.0418 194.872 97.1498 194.544 97.2618 194.216L98.5698 190.568H99.7098L96.9378 197.888C96.7058 198.496 96.4138 198.98 96.0618 199.34C95.7098 199.7 95.2218 199.88 94.5978 199.88C94.4058 199.88 94.2378 199.868 94.0938 199.844C93.9498 199.828 93.8258 199.808 93.7218 199.784V198.944C93.8098 198.96 93.9138 198.976 94.0338 198.992C94.1618 199.008 94.2938 199.016 94.4298 199.016C94.7978 199.016 95.0938 198.912 95.3178 198.704C95.5418 198.496 95.7218 198.22 95.8578 197.876L96.1938 197.024L93.6018 190.568Z" fill="#323232"/>
<rect x="46.5" y="204.5" width="319" height="35" rx="1.5" fill="white"/>
<rect x="46.5" y="204.5" width="319" height="35" rx="1.5" stroke="#939393"/>
<rect x="46" y="272" width="76" height="36" rx="2" fill="#1B77AF"/>
<path d="M67.528 292.326C67.528 293.213 67.206 293.903 66.562 294.398C65.918 294.893 65.05 295.14 63.958 295.14C63.398 295.14 62.88 295.098 62.404 295.014C61.928 294.93 61.5313 294.813 61.214 294.664V293.46C61.55 293.609 61.9653 293.745 62.46 293.866C62.964 293.987 63.482 294.048 64.014 294.048C64.7513 294.048 65.3113 293.903 65.694 293.614C66.0767 293.325 66.268 292.933 66.268 292.438C66.268 292.111 66.198 291.836 66.058 291.612C65.918 291.388 65.6753 291.183 65.33 290.996C64.9847 290.809 64.5133 290.604 63.916 290.38C63.0573 290.072 62.4133 289.694 61.984 289.246C61.5547 288.798 61.34 288.187 61.34 287.412C61.34 286.889 61.4753 286.437 61.746 286.054C62.0167 285.671 62.39 285.377 62.866 285.172C63.342 284.967 63.8973 284.864 64.532 284.864C65.0733 284.864 65.5727 284.915 66.03 285.018C66.4873 285.121 66.9073 285.256 67.29 285.424L66.898 286.502C66.5527 286.353 66.1747 286.227 65.764 286.124C65.3533 286.021 64.9333 285.97 64.504 285.97C63.8787 285.97 63.4073 286.105 63.09 286.376C62.7727 286.637 62.614 286.987 62.614 287.426C62.614 287.762 62.684 288.042 62.824 288.266C62.964 288.49 63.1927 288.695 63.51 288.882C63.8273 289.059 64.2567 289.246 64.798 289.442C65.386 289.657 65.8807 289.89 66.282 290.142C66.6927 290.385 67.0007 290.679 67.206 291.024C67.4207 291.369 67.528 291.803 67.528 292.326ZM75.6456 287.496V295H74.6376L74.4556 294.006H74.3996C74.1569 294.398 73.8209 294.687 73.3916 294.874C72.9623 295.051 72.5049 295.14 72.0196 295.14C71.1143 295.14 70.4329 294.925 69.9756 294.496C69.5183 294.057 69.2896 293.362 69.2896 292.41V287.496H70.5356V292.326C70.5356 293.521 71.0909 294.118 72.2016 294.118C73.0323 294.118 73.6063 293.885 73.9236 293.418C74.2503 292.951 74.4136 292.279 74.4136 291.402V287.496H75.6456ZM79.2599 284.36V286.95C79.2599 287.267 79.2506 287.566 79.2319 287.846C79.2226 288.117 79.2086 288.331 79.1899 288.49H79.2599C79.4746 288.173 79.7686 287.907 80.1419 287.692C80.5152 287.477 80.9959 287.37 81.5839 287.37C82.5172 287.37 83.2639 287.697 83.8239 288.35C84.3932 288.994 84.6779 289.96 84.6779 291.248C84.6779 292.536 84.3932 293.507 83.8239 294.16C83.2546 294.813 82.5079 295.14 81.5839 295.14C80.9959 295.14 80.5152 295.033 80.1419 294.818C79.7686 294.603 79.4746 294.347 79.2599 294.048H79.1619L78.9099 295H78.0279V284.36H79.2599ZM81.3739 288.392C80.5712 288.392 80.0159 288.621 79.7079 289.078C79.4092 289.535 79.2599 290.245 79.2599 291.206V291.262C79.2599 292.186 79.4092 292.895 79.7079 293.39C80.0159 293.875 80.5806 294.118 81.4019 294.118C82.0739 294.118 82.5732 293.871 82.8999 293.376C83.2359 292.881 83.4039 292.167 83.4039 291.234C83.4039 289.339 82.7272 288.392 81.3739 288.392ZM94.8732 287.356C95.7225 287.356 96.3572 287.575 96.7772 288.014C97.1972 288.453 97.4072 289.153 97.4072 290.114V295H96.1892V290.17C96.1892 288.985 95.6805 288.392 94.6632 288.392C93.9352 288.392 93.4125 288.602 93.0952 289.022C92.7872 289.442 92.6332 290.053 92.6332 290.856V295H91.4152V290.17C91.4152 288.985 90.9018 288.392 89.8752 288.392C89.1192 288.392 88.5965 288.625 88.3072 289.092C88.0178 289.559 87.8732 290.231 87.8732 291.108V295H86.6412V287.496H87.6352L87.8172 288.518H87.8872C88.1205 288.126 88.4332 287.837 88.8252 287.65C89.2265 287.454 89.6512 287.356 90.0992 287.356C91.2752 287.356 92.0405 287.776 92.3952 288.616H92.4652C92.7172 288.187 93.0578 287.869 93.4872 287.664C93.9165 287.459 94.3785 287.356 94.8732 287.356ZM100.355 284.682C100.542 284.682 100.705 284.747 100.845 284.878C100.994 284.999 101.069 285.195 101.069 285.466C101.069 285.737 100.994 285.937 100.845 286.068C100.705 286.189 100.542 286.25 100.355 286.25C100.15 286.25 99.9772 286.189 99.8372 286.068C99.6972 285.937 99.6272 285.737 99.6272 285.466C99.6272 285.195 99.6972 284.999 99.8372 284.878C99.9772 284.747 100.15 284.682 100.355 284.682ZM100.957 287.496V295H99.7252V287.496H100.957ZM105.841 294.132C106.027 294.132 106.219 294.118 106.415 294.09C106.611 294.062 106.769 294.025 106.891 293.978V294.916C106.76 294.981 106.573 295.033 106.331 295.07C106.088 295.117 105.855 295.14 105.631 295.14C105.239 295.14 104.875 295.075 104.539 294.944C104.212 294.804 103.946 294.566 103.741 294.23C103.535 293.894 103.433 293.423 103.433 292.816V288.448H102.369V287.86L103.447 287.37L103.937 285.774H104.665V287.496H106.835V288.448H104.665V292.788C104.665 293.245 104.772 293.586 104.987 293.81C105.211 294.025 105.495 294.132 105.841 294.132Z" fill="white"/>
<rect x="130" y="272" width="76" height="36" rx="2" fill="#1B77AF"/>
<path d="M151.642 285.97C150.569 285.97 149.724 286.329 149.108 287.048C148.492 287.767 148.184 288.751 148.184 290.002C148.184 291.243 148.469 292.228 149.038 292.956C149.617 293.675 150.48 294.034 151.628 294.034C152.057 294.034 152.468 293.997 152.86 293.922C153.252 293.847 153.639 293.754 154.022 293.642V294.734C153.649 294.874 153.261 294.977 152.86 295.042C152.468 295.107 151.997 295.14 151.446 295.14C150.429 295.14 149.579 294.93 148.898 294.51C148.217 294.09 147.703 293.493 147.358 292.718C147.022 291.943 146.854 291.033 146.854 289.988C146.854 288.98 147.036 288.093 147.4 287.328C147.773 286.553 148.319 285.951 149.038 285.522C149.757 285.083 150.629 284.864 151.656 284.864C152.711 284.864 153.63 285.06 154.414 285.452L153.91 286.516C153.602 286.376 153.257 286.25 152.874 286.138C152.501 286.026 152.09 285.97 151.642 285.97ZM158.878 287.37C159.792 287.37 160.469 287.571 160.908 287.972C161.346 288.373 161.566 289.013 161.566 289.89V295H160.67L160.432 293.936H160.376C160.049 294.347 159.704 294.65 159.34 294.846C158.976 295.042 158.481 295.14 157.856 295.14C157.174 295.14 156.61 294.963 156.162 294.608C155.714 294.244 155.49 293.679 155.49 292.914C155.49 292.167 155.784 291.593 156.372 291.192C156.96 290.781 157.865 290.557 159.088 290.52L160.362 290.478V290.03C160.362 289.405 160.226 288.971 159.956 288.728C159.685 288.485 159.302 288.364 158.808 288.364C158.416 288.364 158.042 288.425 157.688 288.546C157.333 288.658 157.002 288.789 156.694 288.938L156.316 288.014C156.642 287.837 157.03 287.687 157.478 287.566C157.926 287.435 158.392 287.37 158.878 287.37ZM160.348 291.332L159.242 291.374C158.308 291.411 157.66 291.561 157.296 291.822C156.941 292.083 156.764 292.452 156.764 292.928C156.764 293.348 156.89 293.656 157.142 293.852C157.403 294.048 157.734 294.146 158.136 294.146C158.761 294.146 159.284 293.973 159.704 293.628C160.133 293.273 160.348 292.732 160.348 292.004V291.332ZM167.495 287.356C168.391 287.356 169.068 287.575 169.525 288.014C169.983 288.453 170.211 289.153 170.211 290.114V295H168.993V290.198C168.993 288.994 168.433 288.392 167.313 288.392C166.483 288.392 165.909 288.625 165.591 289.092C165.274 289.559 165.115 290.231 165.115 291.108V295H163.883V287.496H164.877L165.059 288.518H165.129C165.372 288.126 165.708 287.837 166.137 287.65C166.567 287.454 167.019 287.356 167.495 287.356ZM175.548 295.14C174.876 295.14 174.283 295.005 173.77 294.734C173.256 294.463 172.85 294.043 172.552 293.474C172.262 292.905 172.118 292.177 172.118 291.29C172.118 290.366 172.267 289.615 172.566 289.036C172.874 288.457 173.294 288.033 173.826 287.762C174.358 287.491 174.96 287.356 175.632 287.356C176.005 287.356 176.369 287.398 176.724 287.482C177.088 287.557 177.382 287.65 177.606 287.762L177.228 288.784C177.004 288.7 176.742 288.621 176.444 288.546C176.145 288.471 175.865 288.434 175.604 288.434C174.129 288.434 173.392 289.381 173.392 291.276C173.392 292.181 173.569 292.877 173.924 293.362C174.288 293.838 174.824 294.076 175.534 294.076C175.935 294.076 176.294 294.034 176.612 293.95C176.929 293.866 177.218 293.763 177.48 293.642V294.734C177.228 294.865 176.948 294.963 176.64 295.028C176.341 295.103 175.977 295.14 175.548 295.14ZM182.162 287.356C182.797 287.356 183.348 287.496 183.814 287.776C184.281 288.056 184.636 288.453 184.878 288.966C185.13 289.47 185.256 290.063 185.256 290.744V291.486H180.118C180.137 292.335 180.352 292.984 180.762 293.432C181.182 293.871 181.766 294.09 182.512 294.09C182.988 294.09 183.408 294.048 183.772 293.964C184.146 293.871 184.528 293.74 184.92 293.572V294.65C184.538 294.818 184.16 294.939 183.786 295.014C183.413 295.098 182.97 295.14 182.456 295.14C181.738 295.14 181.108 294.995 180.566 294.706C180.025 294.417 179.6 293.987 179.292 293.418C178.994 292.849 178.844 292.144 178.844 291.304C178.844 290.483 178.98 289.778 179.25 289.19C179.53 288.602 179.918 288.149 180.412 287.832C180.916 287.515 181.5 287.356 182.162 287.356ZM182.148 288.364C181.56 288.364 181.094 288.555 180.748 288.938C180.412 289.311 180.212 289.834 180.146 290.506H183.968C183.959 289.871 183.81 289.358 183.52 288.966C183.231 288.565 182.774 288.364 182.148 288.364ZM188.399 295H187.167V284.36H188.399V295Z" fill="white"/>
</svg>
