<svg width="412" height="200" viewBox="0 0 412 200" fill="none" xmlns="http://www.w3.org/2000/svg">
<rect width="412" height="200" fill="white"/>
<rect x="154" y="84" width="32" height="32" rx="2" fill="#DA291C"/>
<path fill-rule="evenodd" clip-rule="evenodd" d="M161.109 98.9067C162.275 97.3527 164.937 95.8857 169.966 95.8857C174.985 95.8857 177.719 97.3475 178.888 98.9016C179.976 100.285 179.555 101.653 179.323 102.407C179.295 102.496 179.271 102.576 179.251 102.647C179.101 103.196 178.737 103.535 178.315 103.708C177.916 103.873 177.477 103.887 177.118 103.847C176.976 103.831 176.767 103.811 176.521 103.787C175.775 103.714 174.693 103.608 174.145 103.501C173.886 103.471 173.656 103.372 173.471 103.204C173.284 103.035 173.173 102.824 173.107 102.618C172.978 102.222 172.988 101.757 173.024 101.366C173.06 100.968 173.064 100.783 173.036 100.666C173.026 100.624 173.013 100.603 173 100.587C172.984 100.567 172.95 100.533 172.869 100.487C172.854 100.478 172.839 100.469 172.825 100.459C172.675 100.351 172.332 100.214 171.81 100.106C171.306 100.002 170.689 99.9366 170.035 99.9366C169.381 99.9366 168.761 100.002 168.252 100.099C167.728 100.199 167.366 100.323 167.201 100.418C167.065 100.496 167.02 100.565 166.992 100.658C166.954 100.789 166.944 100.996 166.977 101.366C167.013 101.756 167.023 102.207 166.893 102.597C166.825 102.801 166.714 103.003 166.537 103.169C166.357 103.338 166.133 103.446 165.879 103.497C165.339 103.605 164.236 103.713 163.479 103.787C163.236 103.811 163.028 103.831 162.886 103.847C162.55 103.888 162.116 103.87 161.716 103.71C161.298 103.543 160.903 103.211 160.75 102.647C160.729 102.572 160.703 102.487 160.674 102.394C160.44 101.645 160.033 100.341 161.109 98.9067ZM169.966 96.9156C165.108 96.9156 162.827 98.3322 161.933 99.5246C161.187 100.519 161.429 101.323 161.653 102.066C161.684 102.171 161.715 102.274 161.743 102.376C161.795 102.567 161.916 102.681 162.098 102.754C162.298 102.834 162.549 102.851 162.762 102.824L162.769 102.823L162.769 102.823C162.942 102.804 163.181 102.781 163.451 102.754C164.203 102.681 165.193 102.584 165.677 102.487C165.766 102.469 165.808 102.44 165.832 102.418C165.859 102.393 165.889 102.351 165.916 102.271C165.975 102.095 165.985 101.825 165.952 101.459C165.917 101.074 165.907 100.698 166.005 100.365C166.115 99.9949 166.345 99.7208 166.69 99.5239C167.005 99.3438 167.501 99.1938 168.059 99.0875C168.631 98.9785 169.315 98.9067 170.035 98.9067C170.754 98.9067 171.441 98.9784 172.018 99.0976C172.565 99.2105 173.071 99.3773 173.402 99.6053C173.73 99.7985 173.949 100.057 174.037 100.426C174.112 100.738 174.082 101.103 174.049 101.459C174.016 101.824 174.026 102.114 174.086 102.301C174.114 102.387 174.144 102.425 174.162 102.441C174.174 102.452 174.201 102.472 174.274 102.48C174.291 102.481 174.307 102.484 174.324 102.487C174.808 102.584 175.798 102.681 176.55 102.754C176.819 102.781 177.059 102.804 177.232 102.823C177.491 102.852 177.739 102.832 177.923 102.756C178.085 102.689 178.201 102.582 178.258 102.376C178.284 102.28 178.313 102.183 178.342 102.084C178.568 101.32 178.817 100.474 178.076 99.5347L178.068 99.5246C177.175 98.3343 174.828 96.9156 169.966 96.9156Z" fill="white"/>
<rect x="226" y="84" width="32" height="32" rx="2" fill="#1B77AF"/>
<path fill-rule="evenodd" clip-rule="evenodd" d="M238.375 92.6201C238.755 92.8045 239.051 93.1103 239.24 93.3365C239.285 93.3915 239.346 93.4636 239.417 93.5487C239.866 94.0851 240.743 95.1345 241.107 95.62C241.459 96.0884 241.407 96.5956 241.21 97.0015C241.027 97.3789 240.707 97.7082 240.418 97.9613C240.13 98.2133 239.989 98.3503 239.918 98.4674C239.876 98.5372 239.854 98.5999 239.892 98.7524C239.939 98.9399 240.105 99.2924 240.404 99.7405C240.694 100.176 241.084 100.664 241.54 101.119C241.995 101.575 242.483 101.964 242.908 102.245C243.121 102.386 243.312 102.495 243.472 102.572C243.639 102.652 243.742 102.682 243.786 102.688C243.803 102.691 243.821 102.694 243.838 102.698C243.99 102.736 244.053 102.715 244.123 102.672C244.24 102.601 244.377 102.461 244.629 102.173C244.882 101.883 245.211 101.563 245.589 101.38C245.991 101.185 246.493 101.133 246.958 101.474C247.609 101.91 248.855 102.95 249.328 103.355C249.591 103.58 249.898 103.898 250.072 104.292C250.259 104.716 250.286 105.22 249.983 105.725C249.941 105.794 249.897 105.875 249.847 105.964C249.464 106.66 248.794 107.876 247.077 108.095C245.137 108.402 242.171 107.595 238.615 103.969C235.054 100.338 234.262 97.3792 234.494 95.5219C234.705 93.8343 235.947 93.1928 236.646 92.8314C236.758 92.7735 236.857 92.7228 236.934 92.6762C237.455 92.364 237.968 92.423 238.375 92.6201ZM237.926 93.5456C237.767 93.4685 237.629 93.4589 237.463 93.5582C237.328 93.6394 237.188 93.7147 237.048 93.7901C236.352 94.1643 235.654 94.5395 235.515 95.6495C235.336 97.0836 235.915 99.7473 239.349 103.248C242.781 106.748 245.435 107.316 246.923 107.078C246.929 107.077 246.935 107.076 246.941 107.075C248.117 106.928 248.536 106.187 248.93 105.492C248.986 105.392 249.043 105.292 249.101 105.195C249.209 105.015 249.202 104.867 249.131 104.708C249.048 104.52 248.876 104.322 248.658 104.136C248.174 103.721 246.963 102.713 246.376 102.322C246.369 102.317 246.361 102.311 246.353 102.306C246.273 102.246 246.197 102.228 246.038 102.306C245.849 102.397 245.63 102.591 245.403 102.85C245.175 103.111 244.935 103.382 244.658 103.551C244.34 103.744 243.999 103.793 243.613 103.702C243.424 103.67 243.22 103.592 243.027 103.499C242.816 103.398 242.583 103.263 242.341 103.103C241.858 102.784 241.317 102.351 240.812 101.847C240.308 101.342 239.875 100.801 239.548 100.311C239.23 99.8334 238.984 99.363 238.894 99.0019C238.795 98.6058 238.842 98.2571 239.04 97.9326C239.208 97.6555 239.48 97.4153 239.74 97.1873C239.999 96.9604 240.193 96.7411 240.285 96.5528C240.362 96.393 240.345 96.3174 240.285 96.2372C239.939 95.777 239.089 94.7599 238.635 94.2169C238.561 94.1291 238.498 94.0536 238.45 93.995C238.295 93.8097 238.111 93.6355 237.926 93.5456Z" fill="white"/>
</svg>
