<svg width="412" height="200" viewBox="0 0 412 200" fill="none" xmlns="http://www.w3.org/2000/svg">
<rect width="412" height="200" fill="white"/>
<rect x="152.5" y="44.5" width="107" height="35" rx="1.5" fill="white"/>
<path d="M169.358 67V57.004H170.618V65.88H174.986V67H169.358ZM179.43 59.356C180.064 59.356 180.615 59.496 181.082 59.776C181.548 60.056 181.903 60.4527 182.146 60.966C182.398 61.47 182.524 62.0627 182.524 62.744V63.486H177.386C177.404 64.3353 177.619 64.984 178.03 65.432C178.45 65.8707 179.033 66.09 179.78 66.09C180.256 66.09 180.676 66.048 181.04 65.964C181.413 65.8707 181.796 65.74 182.188 65.572V66.65C181.805 66.818 181.427 66.9393 181.054 67.014C180.68 67.098 180.237 67.14 179.724 67.14C179.005 67.14 178.375 66.9953 177.834 66.706C177.292 66.4167 176.868 65.9873 176.56 65.418C176.261 64.8487 176.112 64.144 176.112 63.304C176.112 62.4827 176.247 61.778 176.518 61.19C176.798 60.602 177.185 60.1493 177.68 59.832C178.184 59.5147 178.767 59.356 179.43 59.356ZM179.416 60.364C178.828 60.364 178.361 60.5553 178.016 60.938C177.68 61.3113 177.479 61.834 177.414 62.506H181.236C181.226 61.8713 181.077 61.358 180.788 60.966C180.498 60.5647 180.041 60.364 179.416 60.364ZM187.276 59.37C188.191 59.37 188.867 59.5707 189.306 59.972C189.745 60.3733 189.964 61.0127 189.964 61.89V67H189.068L188.83 65.936H188.774C188.447 66.3467 188.102 66.65 187.738 66.846C187.374 67.042 186.879 67.14 186.254 67.14C185.573 67.14 185.008 66.9627 184.56 66.608C184.112 66.244 183.888 65.6793 183.888 64.914C183.888 64.1673 184.182 63.5933 184.77 63.192C185.358 62.7813 186.263 62.5573 187.486 62.52L188.76 62.478V62.03C188.76 61.4047 188.625 60.9707 188.354 60.728C188.083 60.4853 187.701 60.364 187.206 60.364C186.814 60.364 186.441 60.4247 186.086 60.546C185.731 60.658 185.4 60.7887 185.092 60.938L184.714 60.014C185.041 59.8367 185.428 59.6873 185.876 59.566C186.324 59.4353 186.791 59.37 187.276 59.37ZM188.746 63.332L187.64 63.374C186.707 63.4113 186.058 63.5607 185.694 63.822C185.339 64.0833 185.162 64.452 185.162 64.928C185.162 65.348 185.288 65.656 185.54 65.852C185.801 66.048 186.133 66.146 186.534 66.146C187.159 66.146 187.682 65.9733 188.102 65.628C188.531 65.2733 188.746 64.732 188.746 64.004V63.332ZM195.782 59.356C195.922 59.356 196.071 59.3653 196.23 59.384C196.388 59.3933 196.533 59.412 196.664 59.44L196.51 60.574C196.388 60.546 196.253 60.5227 196.104 60.504C195.954 60.4853 195.819 60.476 195.698 60.476C195.315 60.476 194.956 60.5833 194.62 60.798C194.284 61.0033 194.013 61.2973 193.808 61.68C193.612 62.0533 193.514 62.492 193.514 62.996V67H192.282V59.496H193.29L193.43 60.868H193.486C193.719 60.4573 194.027 60.1027 194.41 59.804C194.802 59.5053 195.259 59.356 195.782 59.356ZM201.677 59.356C202.573 59.356 203.25 59.5753 203.707 60.014C204.164 60.4527 204.393 61.1527 204.393 62.114V67H203.175V62.198C203.175 60.994 202.615 60.392 201.495 60.392C200.664 60.392 200.09 60.6253 199.773 61.092C199.456 61.5587 199.297 62.2307 199.297 63.108V67H198.065V59.496H199.059L199.241 60.518H199.311C199.554 60.126 199.89 59.8367 200.319 59.65C200.748 59.454 201.201 59.356 201.677 59.356ZM214.934 67L211.644 58.236H211.588C211.616 58.5253 211.639 58.9173 211.658 59.412C211.677 59.8973 211.686 60.406 211.686 60.938V67H210.524V57.004H212.386L215.466 65.194H215.522L218.658 57.004H220.506V67H219.26V60.854C219.26 60.3687 219.269 59.888 219.288 59.412C219.316 58.936 219.339 58.5487 219.358 58.25H219.302L215.97 67H214.934ZM229.581 63.234C229.581 64.4753 229.264 65.4367 228.629 66.118C228.004 66.7993 227.155 67.14 226.081 67.14C225.419 67.14 224.826 66.9907 224.303 66.692C223.79 66.384 223.384 65.9407 223.085 65.362C222.787 64.774 222.637 64.0647 222.637 63.234C222.637 61.9927 222.945 61.036 223.561 60.364C224.187 59.692 225.041 59.356 226.123 59.356C226.795 59.356 227.393 59.51 227.915 59.818C228.438 60.1167 228.844 60.5553 229.133 61.134C229.432 61.7033 229.581 62.4033 229.581 63.234ZM223.911 63.234C223.911 64.1207 224.084 64.8253 224.429 65.348C224.784 65.8613 225.344 66.118 226.109 66.118C226.865 66.118 227.421 65.8613 227.775 65.348C228.13 64.8253 228.307 64.1207 228.307 63.234C228.307 62.3473 228.13 61.652 227.775 61.148C227.421 60.644 226.861 60.392 226.095 60.392C225.33 60.392 224.775 60.644 224.429 61.148C224.084 61.652 223.911 62.3473 223.911 63.234ZM235.034 59.356C235.174 59.356 235.323 59.3653 235.482 59.384C235.64 59.3933 235.785 59.412 235.916 59.44L235.762 60.574C235.64 60.546 235.505 60.5227 235.356 60.504C235.206 60.4853 235.071 60.476 234.95 60.476C234.567 60.476 234.208 60.5833 233.872 60.798C233.536 61.0033 233.265 61.2973 233.06 61.68C232.864 62.0533 232.766 62.492 232.766 62.996V67H231.534V59.496H232.542L232.682 60.868H232.738C232.971 60.4573 233.279 60.1027 233.662 59.804C234.054 59.5053 234.511 59.356 235.034 59.356ZM239.942 59.356C240.576 59.356 241.127 59.496 241.594 59.776C242.06 60.056 242.415 60.4527 242.658 60.966C242.91 61.47 243.036 62.0627 243.036 62.744V63.486H237.898C237.916 64.3353 238.131 64.984 238.542 65.432C238.962 65.8707 239.545 66.09 240.292 66.09C240.768 66.09 241.188 66.048 241.552 65.964C241.925 65.8707 242.308 65.74 242.7 65.572V66.65C242.317 66.818 241.939 66.9393 241.566 67.014C241.192 67.098 240.749 67.14 240.236 67.14C239.517 67.14 238.887 66.9953 238.346 66.706C237.804 66.4167 237.38 65.9873 237.072 65.418C236.773 64.8487 236.624 64.144 236.624 63.304C236.624 62.4827 236.759 61.778 237.03 61.19C237.31 60.602 237.697 60.1493 238.192 59.832C238.696 59.5147 239.279 59.356 239.942 59.356ZM239.928 60.364C239.34 60.364 238.873 60.5553 238.528 60.938C238.192 61.3113 237.991 61.834 237.926 62.506H241.748C241.738 61.8713 241.589 61.358 241.3 60.966C241.01 60.5647 240.553 60.364 239.928 60.364Z" fill="#B35C00"/>
<rect x="152.5" y="44.5" width="107" height="35" rx="1.5" stroke="#B35C00"/>
<rect x="144" y="120.5" width="124" height="35" rx="1.5" fill="white"/>
<path d="M167.9 133.004L164.33 143H163.07L159.5 133.004H160.816L163.07 139.416C163.219 139.827 163.341 140.214 163.434 140.578C163.537 140.933 163.625 141.273 163.7 141.6C163.765 141.273 163.849 140.928 163.952 140.564C164.055 140.2 164.181 139.808 164.33 139.388L166.57 133.004H167.9ZM169.715 132.682C169.901 132.682 170.065 132.747 170.205 132.878C170.354 132.999 170.429 133.195 170.429 133.466C170.429 133.737 170.354 133.937 170.205 134.068C170.065 134.189 169.901 134.25 169.715 134.25C169.509 134.25 169.337 134.189 169.197 134.068C169.057 133.937 168.987 133.737 168.987 133.466C168.987 133.195 169.057 132.999 169.197 132.878C169.337 132.747 169.509 132.682 169.715 132.682ZM170.317 135.496V143H169.085V135.496H170.317ZM175.592 135.356C176.227 135.356 176.777 135.496 177.244 135.776C177.711 136.056 178.065 136.453 178.308 136.966C178.56 137.47 178.686 138.063 178.686 138.744V139.486H173.548C173.567 140.335 173.781 140.984 174.192 141.432C174.612 141.871 175.195 142.09 175.942 142.09C176.418 142.09 176.838 142.048 177.202 141.964C177.575 141.871 177.958 141.74 178.35 141.572V142.65C177.967 142.818 177.589 142.939 177.216 143.014C176.843 143.098 176.399 143.14 175.886 143.14C175.167 143.14 174.537 142.995 173.996 142.706C173.455 142.417 173.03 141.987 172.722 141.418C172.423 140.849 172.274 140.144 172.274 139.304C172.274 138.483 172.409 137.778 172.68 137.19C172.96 136.602 173.347 136.149 173.842 135.832C174.346 135.515 174.929 135.356 175.592 135.356ZM175.578 136.364C174.99 136.364 174.523 136.555 174.178 136.938C173.842 137.311 173.641 137.834 173.576 138.506H177.398C177.389 137.871 177.239 137.358 176.95 136.966C176.661 136.565 176.203 136.364 175.578 136.364ZM186.455 142.986L185.167 138.758C185.045 138.375 184.938 138.002 184.845 137.638C184.751 137.274 184.686 136.985 184.649 136.77H184.593C184.555 136.985 184.495 137.274 184.411 137.638C184.327 138.002 184.219 138.38 184.089 138.772L182.745 142.986H181.345L179.287 135.482H180.561L181.597 139.486C181.699 139.887 181.797 140.293 181.891 140.704C181.984 141.115 182.049 141.455 182.087 141.726H182.143C182.171 141.567 182.213 141.371 182.269 141.138C182.325 140.905 182.385 140.662 182.451 140.41C182.516 140.149 182.581 139.915 182.647 139.71L183.977 135.482H185.321L186.609 139.71C186.702 140.037 186.8 140.387 186.903 140.76C187.005 141.133 187.075 141.451 187.113 141.712H187.169C187.197 141.479 187.257 141.157 187.351 140.746C187.453 140.335 187.561 139.915 187.673 139.486L188.723 135.482H189.983L187.897 142.986H186.455ZM201.405 143L200.201 139.906H196.239L195.049 143H193.775L197.681 132.962H198.815L202.707 143H201.405ZM199.823 138.786L198.703 135.762C198.675 135.687 198.629 135.552 198.563 135.356C198.498 135.16 198.433 134.959 198.367 134.754C198.311 134.539 198.265 134.376 198.227 134.264C198.153 134.553 198.073 134.838 197.989 135.118C197.915 135.389 197.849 135.603 197.793 135.762L196.659 138.786H199.823ZM206.721 133.004C208.027 133.004 208.979 133.261 209.577 133.774C210.174 134.287 210.473 135.011 210.473 135.944C210.473 136.495 210.347 137.013 210.095 137.498C209.852 137.974 209.437 138.361 208.849 138.66C208.27 138.959 207.481 139.108 206.483 139.108H205.335V143H204.075V133.004H206.721ZM206.609 134.082H205.335V138.03H206.343C207.295 138.03 208.004 137.876 208.471 137.568C208.937 137.26 209.171 136.737 209.171 136C209.171 135.356 208.961 134.875 208.541 134.558C208.13 134.241 207.486 134.082 206.609 134.082ZM215.365 143H211.753V142.272L212.929 142.006V134.012L211.753 133.732V133.004H215.365V133.732L214.189 134.012V142.006L215.365 142.272V143ZM228.94 137.904C228.94 139.593 228.478 140.867 227.554 141.726C226.64 142.575 225.361 143 223.718 143H220.932V133.004H224.012C225.011 133.004 225.879 133.191 226.616 133.564C227.363 133.937 227.937 134.488 228.338 135.216C228.74 135.944 228.94 136.84 228.94 137.904ZM227.61 137.946C227.61 136.611 227.279 135.636 226.616 135.02C225.963 134.395 225.034 134.082 223.83 134.082H222.192V141.922H223.55C226.257 141.922 227.61 140.597 227.61 137.946ZM237.515 139.234C237.515 140.475 237.197 141.437 236.563 142.118C235.937 142.799 235.088 143.14 234.015 143.14C233.352 143.14 232.759 142.991 232.237 142.692C231.723 142.384 231.317 141.941 231.019 141.362C230.72 140.774 230.571 140.065 230.571 139.234C230.571 137.993 230.879 137.036 231.495 136.364C232.12 135.692 232.974 135.356 234.057 135.356C234.729 135.356 235.326 135.51 235.849 135.818C236.371 136.117 236.777 136.555 237.067 137.134C237.365 137.703 237.515 138.403 237.515 139.234ZM231.845 139.234C231.845 140.121 232.017 140.825 232.363 141.348C232.717 141.861 233.277 142.118 234.043 142.118C234.799 142.118 235.354 141.861 235.709 141.348C236.063 140.825 236.241 140.121 236.241 139.234C236.241 138.347 236.063 137.652 235.709 137.148C235.354 136.644 234.794 136.392 234.029 136.392C233.263 136.392 232.708 136.644 232.363 137.148C232.017 137.652 231.845 138.347 231.845 139.234ZM242.477 143.14C241.805 143.14 241.213 143.005 240.699 142.734C240.186 142.463 239.78 142.043 239.481 141.474C239.192 140.905 239.047 140.177 239.047 139.29C239.047 138.366 239.197 137.615 239.495 137.036C239.803 136.457 240.223 136.033 240.755 135.762C241.287 135.491 241.889 135.356 242.561 135.356C242.935 135.356 243.299 135.398 243.653 135.482C244.017 135.557 244.311 135.65 244.535 135.762L244.157 136.784C243.933 136.7 243.672 136.621 243.373 136.546C243.075 136.471 242.795 136.434 242.533 136.434C241.059 136.434 240.321 137.381 240.321 139.276C240.321 140.181 240.499 140.877 240.853 141.362C241.217 141.838 241.754 142.076 242.463 142.076C242.865 142.076 243.224 142.034 243.541 141.95C243.859 141.866 244.148 141.763 244.409 141.642V142.734C244.157 142.865 243.877 142.963 243.569 143.028C243.271 143.103 242.907 143.14 242.477 143.14ZM251.08 140.928C251.08 141.656 250.809 142.207 250.268 142.58C249.727 142.953 248.999 143.14 248.084 143.14C247.561 143.14 247.109 143.098 246.726 143.014C246.353 142.93 246.021 142.813 245.732 142.664V141.544C246.031 141.693 246.39 141.833 246.81 141.964C247.239 142.085 247.673 142.146 248.112 142.146C248.737 142.146 249.19 142.048 249.47 141.852C249.75 141.647 249.89 141.376 249.89 141.04C249.89 140.853 249.839 140.685 249.736 140.536C249.633 140.387 249.447 140.237 249.176 140.088C248.915 139.939 248.537 139.771 248.042 139.584C247.557 139.397 247.141 139.211 246.796 139.024C246.451 138.837 246.185 138.613 245.998 138.352C245.811 138.091 245.718 137.755 245.718 137.344C245.718 136.709 245.975 136.219 246.488 135.874C247.011 135.529 247.692 135.356 248.532 135.356C248.989 135.356 249.414 135.403 249.806 135.496C250.207 135.589 250.581 135.711 250.926 135.86L250.506 136.84C250.189 136.709 249.857 136.597 249.512 136.504C249.167 136.411 248.812 136.364 248.448 136.364C247.944 136.364 247.557 136.448 247.286 136.616C247.025 136.775 246.894 136.994 246.894 137.274C246.894 137.489 246.955 137.666 247.076 137.806C247.197 137.946 247.398 138.086 247.678 138.226C247.967 138.366 248.35 138.525 248.826 138.702C249.302 138.879 249.708 139.061 250.044 139.248C250.38 139.435 250.637 139.663 250.814 139.934C250.991 140.195 251.08 140.527 251.08 140.928Z" fill="#088A08"/>
<rect x="144" y="120.5" width="124" height="35" rx="1.5" stroke="#088A08"/>
</svg>
