<svg width="190" height="32" viewBox="0 0 190 32" fill="none" xmlns="http://www.w3.org/2000/svg">
<g clip-path="url(#clip0_8082_263308)">
<rect width="190" height="32" fill="white"/>
<path d="M58.0716 13.286C58.0716 13.9673 57.871 14.5133 57.4696 14.924C57.0776 15.3253 56.569 15.596 55.9436 15.736V15.778C56.7463 15.8807 57.353 16.1327 57.7636 16.534C58.1743 16.9353 58.3796 17.4627 58.3796 18.116C58.3796 18.6947 58.2396 19.2127 57.9596 19.67C57.6796 20.1273 57.2456 20.4867 56.6576 20.748C56.079 21.0093 55.3323 21.14 54.4176 21.14C53.867 21.14 53.3583 21.0933 52.8916 21C52.4343 20.916 52.0003 20.7807 51.5896 20.594V19.04C52.0096 19.2547 52.4576 19.418 52.9336 19.53C53.4096 19.642 53.8576 19.698 54.2776 19.698C55.0896 19.698 55.6636 19.5533 55.9996 19.264C56.3356 18.9653 56.5036 18.5547 56.5036 18.032C56.5036 17.5373 56.3076 17.1687 55.9156 16.926C55.5236 16.6833 54.8703 16.562 53.9556 16.562H53.1156V15.148H53.9696C54.8563 15.148 55.4676 15.0033 55.8036 14.714C56.1396 14.4247 56.3076 14.0513 56.3076 13.594C56.3076 13.1927 56.177 12.88 55.9156 12.656C55.6543 12.432 55.2623 12.32 54.7396 12.32C54.2356 12.32 53.8016 12.404 53.4376 12.572C53.0736 12.7307 52.747 12.9033 52.4576 13.09L51.6176 11.872C52.0003 11.592 52.453 11.354 52.9756 11.158C53.4983 10.962 54.1143 10.864 54.8236 10.864C55.8596 10.864 56.6576 11.0833 57.2176 11.522C57.787 11.9607 58.0716 12.5487 58.0716 13.286ZM66.4753 21H59.6293V19.698L62.1773 17.122C62.6813 16.6087 63.092 16.17 63.4093 15.806C63.736 15.442 63.974 15.1013 64.1233 14.784C64.282 14.4573 64.3613 14.1073 64.3613 13.734C64.3613 13.2767 64.2307 12.936 63.9693 12.712C63.7173 12.4787 63.372 12.362 62.9333 12.362C62.5133 12.362 62.1213 12.4507 61.7573 12.628C61.3933 12.796 61.0153 13.0387 60.6233 13.356L59.6573 12.194C60.068 11.8393 60.53 11.5313 61.0433 11.27C61.566 10.9993 62.2287 10.864 63.0313 10.864C63.6753 10.864 64.226 10.9807 64.6833 11.214C65.15 11.438 65.5093 11.7553 65.7613 12.166C66.0133 12.5673 66.1393 13.0293 66.1393 13.552C66.1393 14.0933 66.032 14.5927 65.8173 15.05C65.6027 15.498 65.29 15.9507 64.8793 16.408C64.478 16.856 63.9973 17.3413 63.4373 17.864L61.8553 19.39V19.474H66.4753V21ZM75.7998 13.272C76.6864 13.272 77.4004 13.6033 77.9418 14.266C78.4831 14.9193 78.7538 15.8947 78.7538 17.192C78.7538 18.4893 78.4738 19.474 77.9138 20.146C77.3631 20.8087 76.6444 21.14 75.7578 21.14C75.1978 21.14 74.7451 21.0373 74.3998 20.832C74.0544 20.6267 73.7791 20.3887 73.5738 20.118H73.4618C73.4898 20.2953 73.5131 20.4867 73.5318 20.692C73.5598 20.8973 73.5738 21.0933 73.5738 21.28V24.36H71.8098V13.412H73.2378L73.4898 14.42H73.5738C73.7884 14.1027 74.0684 13.832 74.4138 13.608C74.7591 13.384 75.2211 13.272 75.7998 13.272ZM75.2958 14.7C74.6704 14.7 74.2271 14.8867 73.9658 15.26C73.7138 15.6333 73.5831 16.198 73.5738 16.954V17.178C73.5738 17.99 73.6951 18.6153 73.9378 19.054C74.1898 19.4833 74.6518 19.698 75.3238 19.698C75.8744 19.698 76.2804 19.474 76.5418 19.026C76.8124 18.5687 76.9478 17.948 76.9478 17.164C76.9478 16.38 76.8124 15.7733 76.5418 15.344C76.2804 14.9147 75.8651 14.7 75.2958 14.7ZM81.938 17.122L79.432 13.412H81.434L83.086 15.988L84.738 13.412H86.74L84.206 17.122L86.866 21H84.864L83.086 18.242L81.308 21H79.306L81.938 17.122Z" fill="#D51588"/>
<path d="M99 0H91" stroke="#D51588"/>
<path d="M99 32H91" stroke="#D51588"/>
<path d="M95 -5.96046e-07L95 32" stroke="#D51588"/>
<rect x="107" width="32" height="32" rx="2" fill="#1B77AF"/>
<path d="M123 19.0492C122.452 19.0492 121.903 18.9121 121.423 18.6378C119.846 17.815 119.298 15.8264 120.12 14.2492C121.012 12.6721 122.932 12.1235 124.509 12.9464C125.263 13.3578 125.812 14.0435 126.086 14.8664C126.36 15.6892 126.223 16.5807 125.812 17.335C125.4 18.0892 124.715 18.6378 123.892 18.9121C123.618 18.9807 123.275 19.0492 123 19.0492ZM121.08 14.7292C120.463 15.8264 120.875 17.1292 121.972 17.7464C122.52 18.0207 123.069 18.0892 123.686 17.9521C124.235 17.815 124.715 17.4035 124.989 16.9235C125.263 16.375 125.332 15.8264 125.195 15.2092C125.058 14.6607 124.646 14.1807 124.166 13.9064C123 13.2892 121.629 13.7007 121.08 14.7292Z" fill="white"/>
<path d="M119.503 24.535C119.092 24.535 118.749 24.4664 118.406 24.2607C117.515 23.7807 117.035 22.7521 117.24 21.7235L117.652 19.8721C117.72 19.5978 117.652 19.255 117.515 19.0492C117.378 18.775 117.103 18.6378 116.829 18.5692L115.32 18.2264C114.155 17.9521 113.4 17.0607 113.4 15.9635C113.4 14.935 114.086 13.975 115.046 13.7007L116.76 13.1521C117.035 13.0835 117.309 12.8778 117.446 12.6035C117.583 12.3292 117.583 12.055 117.515 11.7807L117.035 10.2721C116.692 9.24353 117.103 8.14639 118.063 7.59782C118.955 7.04925 120.12 7.18639 120.875 7.8721L122.246 9.10639C122.452 9.3121 122.726 9.44925 123.069 9.38067C123.343 9.38067 123.618 9.24353 123.823 9.03782L124.852 7.8721C125.606 7.04925 126.772 6.84353 127.663 7.3921C128.555 7.8721 129.035 8.96925 128.829 9.92925L128.418 11.7121C128.349 11.9864 128.418 12.3292 128.555 12.535C128.692 12.8092 128.966 12.9464 129.24 13.015L130.749 13.3578C131.778 13.5635 132.532 14.5235 132.6 15.5521C132.6 16.5807 131.983 17.5407 130.955 17.815L129.172 18.4321C128.898 18.5007 128.623 18.7064 128.486 18.9807C128.349 19.255 128.349 19.5292 128.418 19.8721L128.898 21.3807C129.24 22.4092 128.829 23.5064 127.869 24.055C126.978 24.6035 125.812 24.4664 125.058 23.7807L123.755 22.5464C123.618 22.2721 123.343 22.2035 123 22.2035C122.726 22.2035 122.452 22.3407 122.246 22.5464L121.218 23.7121C120.738 24.2607 120.12 24.535 119.503 24.535ZM119.229 8.28353C119.023 8.28353 118.749 8.3521 118.543 8.48925C118.063 8.76353 117.858 9.38067 117.995 9.99782L118.475 11.4378C118.68 11.9864 118.612 12.6035 118.338 13.0835C118.063 13.6321 117.652 13.975 117.103 14.1807L115.32 14.6607C114.772 14.7978 114.36 15.3464 114.429 15.895C114.429 16.5121 114.84 16.9921 115.458 17.1292L116.966 17.4721C117.515 17.6092 117.995 17.9521 118.338 18.4321C118.68 18.9121 118.749 19.5292 118.612 20.0778L118.2 21.9292C118.063 22.4778 118.338 23.095 118.818 23.3692C119.366 23.6435 119.983 23.575 120.395 23.095L121.423 21.9292C121.835 21.5178 122.315 21.2435 122.932 21.2435C123.549 21.2435 124.098 21.4492 124.509 21.7921L125.812 23.0264C126.223 23.4378 126.84 23.5064 127.389 23.1635C127.938 22.8207 128.143 22.2035 127.938 21.655L127.526 20.1464C127.32 19.5978 127.389 18.9807 127.663 18.5007C127.938 18.0207 128.349 17.6092 128.966 17.4721L130.749 16.9235C131.298 16.7864 131.64 16.2378 131.64 15.6892C131.64 15.0721 131.229 14.5921 130.612 14.455L129.103 14.1121C128.555 13.975 128.075 13.6321 127.732 13.1521C127.389 12.6721 127.32 12.055 127.458 11.5064L127.8 9.72353C127.938 9.17496 127.663 8.55782 127.183 8.28353C126.635 8.00925 126.018 8.07782 125.606 8.55782L124.578 9.72353C124.166 10.135 123.686 10.4092 123.069 10.4092C122.452 10.4092 121.972 10.2035 121.492 9.86067L120.12 8.62639C119.846 8.42067 119.572 8.28353 119.229 8.28353Z" fill="white"/>
</g>
<defs>
<clipPath id="clip0_8082_263308">
<rect width="190" height="32" fill="white"/>
</clipPath>
</defs>
</svg>
