<svg width="428" height="116" viewBox="0 0 428 116" fill="none" xmlns="http://www.w3.org/2000/svg">
<rect width="428" height="116" fill="white"/>
<rect x="198" y="42" width="32" height="32" rx="2" fill="#1B77AF"/>
<path d="M214 61.049C213.452 61.049 212.903 60.9119 212.423 60.6376C210.846 59.8147 210.298 57.8261 211.12 56.249C212.012 54.6719 213.932 54.1233 215.509 54.9461C216.263 55.3576 216.812 56.0433 217.086 56.8661C217.36 57.689 217.223 58.5804 216.812 59.3347C216.4 60.089 215.715 60.6376 214.892 60.9119C214.618 60.9804 214.275 61.049 214 61.049ZM212.08 56.729C211.463 57.8261 211.875 59.129 212.972 59.7461C213.52 60.0204 214.069 60.089 214.686 59.9519C215.235 59.8147 215.715 59.4033 215.989 58.9233C216.263 58.3747 216.332 57.8261 216.195 57.209C216.058 56.6604 215.646 56.1804 215.166 55.9061C214 55.289 212.629 55.7004 212.08 56.729Z" fill="white"/>
<path d="M210.503 66.5347C210.092 66.5347 209.749 66.4661 209.406 66.2604C208.515 65.7804 208.035 64.7519 208.24 63.7233L208.652 61.8719C208.72 61.5976 208.652 61.2547 208.515 61.049C208.378 60.7747 208.103 60.6376 207.829 60.569L206.32 60.2261C205.155 59.9519 204.4 59.0604 204.4 57.9633C204.4 56.9347 205.086 55.9747 206.046 55.7004L207.76 55.1519C208.035 55.0833 208.309 54.8776 208.446 54.6033C208.583 54.329 208.583 54.0547 208.515 53.7804L208.035 52.2719C207.692 51.2433 208.103 50.1461 209.063 49.5976C209.955 49.049 211.12 49.1861 211.875 49.8719L213.246 51.1061C213.452 51.3119 213.726 51.449 214.069 51.3804C214.343 51.3804 214.618 51.2433 214.823 51.0376L215.852 49.8719C216.606 49.049 217.772 48.8433 218.663 49.3919C219.555 49.8719 220.035 50.969 219.829 51.929L219.418 53.7119C219.349 53.9861 219.418 54.329 219.555 54.5347C219.692 54.809 219.966 54.9461 220.24 55.0147L221.749 55.3576C222.778 55.5633 223.532 56.5233 223.6 57.5519C223.6 58.5804 222.983 59.5404 221.955 59.8147L220.172 60.4319C219.898 60.5004 219.623 60.7061 219.486 60.9804C219.349 61.2547 219.349 61.529 219.418 61.8719L219.898 63.3804C220.24 64.409 219.829 65.5061 218.869 66.0547C217.978 66.6033 216.812 66.4661 216.058 65.7804L214.755 64.5461C214.618 64.2719 214.343 64.2033 214 64.2033C213.726 64.2033 213.452 64.3404 213.246 64.5461L212.218 65.7119C211.738 66.2604 211.12 66.5347 210.503 66.5347ZM210.229 50.2833C210.023 50.2833 209.749 50.3519 209.543 50.489C209.063 50.7633 208.858 51.3804 208.995 51.9976L209.475 53.4376C209.68 53.9861 209.612 54.6033 209.338 55.0833C209.063 55.6319 208.652 55.9747 208.103 56.1804L206.32 56.6604C205.772 56.7976 205.36 57.3461 205.429 57.8947C205.429 58.5119 205.84 58.9919 206.458 59.129L207.966 59.4719C208.515 59.609 208.995 59.9519 209.338 60.4319C209.68 60.9119 209.749 61.529 209.612 62.0776L209.2 63.929C209.063 64.4776 209.338 65.0947 209.818 65.369C210.366 65.6433 210.983 65.5747 211.395 65.0947L212.423 63.929C212.835 63.5176 213.315 63.2433 213.932 63.2433C214.549 63.2433 215.098 63.449 215.509 63.7919L216.812 65.0261C217.223 65.4376 217.84 65.5061 218.389 65.1633C218.938 64.8204 219.143 64.2033 218.938 63.6547L218.526 62.1461C218.32 61.5976 218.389 60.9804 218.663 60.5004C218.938 60.0204 219.349 59.609 219.966 59.4719L221.749 58.9233C222.298 58.7861 222.64 58.2376 222.64 57.689C222.64 57.0719 222.229 56.5919 221.612 56.4547L220.103 56.1119C219.555 55.9747 219.075 55.6319 218.732 55.1519C218.389 54.6719 218.32 54.0547 218.458 53.5061L218.8 51.7233C218.938 51.1747 218.663 50.5576 218.183 50.2833C217.635 50.009 217.018 50.0776 216.606 50.5576L215.578 51.7233C215.166 52.1347 214.686 52.409 214.069 52.409C213.452 52.409 212.972 52.2033 212.492 51.8604L211.12 50.6261C210.846 50.4204 210.572 50.2833 210.229 50.2833Z" fill="white"/>
<circle cx="214" cy="10" r="10" fill="#D51588"/>
<path d="M216.78 15L215.87 12.354H212.104L211.208 15H209.304L212.972 4.962H215.016L218.684 15H216.78ZM215.408 10.814L214.54 8.238C214.502 8.11667 214.446 7.944 214.372 7.72C214.297 7.48667 214.227 7.25333 214.162 7.02C214.096 6.77733 214.04 6.57667 213.994 6.418C213.947 6.614 213.886 6.83333 213.812 7.076C213.746 7.31867 213.681 7.54733 213.616 7.762C213.56 7.97667 213.513 8.13533 213.476 8.238L212.594 10.814H215.408Z" fill="white"/>
<path d="M214 20V42" stroke="#D51588"/>
<path d="M214 68V96" stroke="#D51588"/>
<circle cx="214" cy="106" r="10" fill="#D51588"/>
<path d="M210.654 101.004H213.664C214.961 101.004 215.941 101.191 216.604 101.564C217.276 101.937 217.612 102.586 217.612 103.51C217.612 104.089 217.467 104.574 217.178 104.966C216.888 105.349 216.473 105.591 215.932 105.694V105.764C216.296 105.839 216.622 105.96 216.912 106.128C217.21 106.296 217.448 106.543 217.626 106.87C217.803 107.187 217.892 107.607 217.892 108.13C217.892 109.035 217.57 109.74 216.926 110.244C216.282 110.748 215.409 111 214.308 111H210.654V101.004ZM212.446 105.078H213.902C214.611 105.078 215.096 104.966 215.358 104.742C215.628 104.509 215.764 104.177 215.764 103.748C215.764 103.3 215.6 102.978 215.274 102.782C214.956 102.586 214.452 102.488 213.762 102.488H212.446V105.078ZM212.446 106.52V109.502H214.07C214.798 109.502 215.302 109.362 215.582 109.082C215.871 108.793 216.016 108.419 216.016 107.962C216.016 107.523 215.866 107.173 215.568 106.912C215.278 106.651 214.751 106.52 213.986 106.52H212.446Z" fill="white"/>
<rect x="204" y="48" width="20" height="20" stroke="#D51588"/>
</svg>
