<svg width="412" height="224" viewBox="0 0 412 224" fill="none" xmlns="http://www.w3.org/2000/svg">
<rect width="412" height="224" fill="white"/>
<rect x="81" y="42" width="16" height="16" rx="4" fill="white"/>
<rect x="81.5" y="42.5" width="15" height="15" rx="3.5" stroke="#1B77AF"/>
<path d="M108.962 49.918L111.566 45.004H112.924L109.592 51.122V55H108.332V51.178L105 45.004H106.372L108.962 49.918ZM116.32 47.356C116.955 47.356 117.506 47.496 117.972 47.776C118.439 48.056 118.794 48.4527 119.036 48.966C119.288 49.47 119.414 50.0627 119.414 50.744V51.486H114.276C114.295 52.3353 114.51 52.984 114.92 53.432C115.34 53.8707 115.924 54.09 116.67 54.09C117.146 54.09 117.566 54.048 117.93 53.964C118.304 53.8707 118.686 53.74 119.078 53.572V54.65C118.696 54.818 118.318 54.9393 117.944 55.014C117.571 55.098 117.128 55.14 116.614 55.14C115.896 55.14 115.266 54.9953 114.724 54.706C114.183 54.4167 113.758 53.9873 113.45 53.418C113.152 52.8487 113.002 52.144 113.002 51.304C113.002 50.4827 113.138 49.778 113.408 49.19C113.688 48.602 114.076 48.1493 114.57 47.832C115.074 47.5147 115.658 47.356 116.32 47.356ZM116.306 48.364C115.718 48.364 115.252 48.5553 114.906 48.938C114.57 49.3113 114.37 49.834 114.304 50.506H118.126C118.117 49.8713 117.968 49.358 117.678 48.966C117.389 48.5647 116.932 48.364 116.306 48.364ZM126.211 52.928C126.211 53.656 125.94 54.2067 125.399 54.58C124.857 54.9533 124.129 55.14 123.215 55.14C122.692 55.14 122.239 55.098 121.857 55.014C121.483 54.93 121.152 54.8133 120.863 54.664V53.544C121.161 53.6933 121.521 53.8333 121.941 53.964C122.37 54.0853 122.804 54.146 123.243 54.146C123.868 54.146 124.321 54.048 124.601 53.852C124.881 53.6467 125.021 53.376 125.021 53.04C125.021 52.8533 124.969 52.6853 124.867 52.536C124.764 52.3867 124.577 52.2373 124.307 52.088C124.045 51.9387 123.667 51.7707 123.173 51.584C122.687 51.3973 122.272 51.2107 121.927 51.024C121.581 50.8373 121.315 50.6133 121.129 50.352C120.942 50.0907 120.849 49.7547 120.849 49.344C120.849 48.7093 121.105 48.2193 121.619 47.874C122.141 47.5287 122.823 47.356 123.663 47.356C124.12 47.356 124.545 47.4027 124.937 47.496C125.338 47.5893 125.711 47.7107 126.057 47.86L125.637 48.84C125.319 48.7093 124.988 48.5973 124.643 48.504C124.297 48.4107 123.943 48.364 123.579 48.364C123.075 48.364 122.687 48.448 122.417 48.616C122.155 48.7747 122.025 48.994 122.025 49.274C122.025 49.4887 122.085 49.666 122.207 49.806C122.328 49.946 122.529 50.086 122.809 50.226C123.098 50.366 123.481 50.5247 123.957 50.702C124.433 50.8793 124.839 51.0613 125.175 51.248C125.511 51.4347 125.767 51.6633 125.945 51.934C126.122 52.1953 126.211 52.5267 126.211 52.928ZM129.424 53.376L129.522 53.53C129.391 54.0247 129.214 54.566 128.99 55.154C128.766 55.7513 128.542 56.302 128.318 56.806H127.408C127.539 56.274 127.669 55.6907 127.8 55.056C127.94 54.4213 128.043 53.8613 128.108 53.376H129.424ZM138.389 55H134.777V54.272L135.953 54.006V46.012L134.777 45.732V45.004H138.389V45.732L137.213 46.012V54.006L138.389 54.272V55ZM146.63 47.37C147.544 47.37 148.221 47.5707 148.66 47.972C149.098 48.3733 149.318 49.0127 149.318 49.89V55H148.422L148.184 53.936H148.128C147.801 54.3467 147.456 54.65 147.092 54.846C146.728 55.042 146.233 55.14 145.608 55.14C144.926 55.14 144.362 54.9627 143.914 54.608C143.466 54.244 143.242 53.6793 143.242 52.914C143.242 52.1673 143.536 51.5933 144.124 51.192C144.712 50.7813 145.617 50.5573 146.84 50.52L148.114 50.478V50.03C148.114 49.4047 147.978 48.9707 147.708 48.728C147.437 48.4853 147.054 48.364 146.56 48.364C146.168 48.364 145.794 48.4247 145.44 48.546C145.085 48.658 144.754 48.7887 144.446 48.938L144.068 48.014C144.394 47.8367 144.782 47.6873 145.23 47.566C145.678 47.4353 146.144 47.37 146.63 47.37ZM148.1 51.332L146.994 51.374C146.06 51.4113 145.412 51.5607 145.048 51.822C144.693 52.0833 144.516 52.452 144.516 52.928C144.516 53.348 144.642 53.656 144.894 53.852C145.155 54.048 145.486 54.146 145.888 54.146C146.513 54.146 147.036 53.9733 147.456 53.628C147.885 53.2733 148.1 52.732 148.1 52.004V51.332ZM154.295 47.356C154.79 47.356 155.233 47.4493 155.625 47.636C156.027 47.8227 156.367 48.1073 156.647 48.49H156.717L156.885 47.496H157.865V55.126C157.865 56.1993 157.59 57.0067 157.039 57.548C156.498 58.0893 155.653 58.36 154.505 58.36C153.404 58.36 152.503 58.2013 151.803 57.884V56.75C152.541 57.142 153.465 57.338 154.575 57.338C155.219 57.338 155.723 57.1467 156.087 56.764C156.461 56.3907 156.647 55.8773 156.647 55.224V54.93C156.647 54.818 156.652 54.6593 156.661 54.454C156.671 54.2393 156.68 54.09 156.689 54.006H156.633C156.129 54.762 155.355 55.14 154.309 55.14C153.339 55.14 152.578 54.7993 152.027 54.118C151.486 53.4367 151.215 52.4847 151.215 51.262C151.215 50.0673 151.486 49.12 152.027 48.42C152.578 47.7107 153.334 47.356 154.295 47.356ZM154.463 48.392C153.838 48.392 153.353 48.644 153.007 49.148C152.662 49.6427 152.489 50.352 152.489 51.276C152.489 52.2 152.657 52.9093 152.993 53.404C153.329 53.8893 153.829 54.132 154.491 54.132C155.247 54.132 155.798 53.9313 156.143 53.53C156.489 53.1193 156.661 52.4613 156.661 51.556V51.262C156.661 50.2447 156.484 49.512 156.129 49.064C155.775 48.616 155.219 48.392 154.463 48.392ZM163.749 47.356C163.889 47.356 164.038 47.3653 164.197 47.384C164.355 47.3933 164.5 47.412 164.631 47.44L164.477 48.574C164.355 48.546 164.22 48.5227 164.071 48.504C163.921 48.4853 163.786 48.476 163.665 48.476C163.282 48.476 162.923 48.5833 162.587 48.798C162.251 49.0033 161.98 49.2973 161.775 49.68C161.579 50.0533 161.481 50.492 161.481 50.996V55H160.249V47.496H161.257L161.397 48.868H161.453C161.686 48.4573 161.994 48.1027 162.377 47.804C162.769 47.5053 163.226 47.356 163.749 47.356ZM168.656 47.356C169.291 47.356 169.842 47.496 170.308 47.776C170.775 48.056 171.13 48.4527 171.372 48.966C171.624 49.47 171.75 50.0627 171.75 50.744V51.486H166.612C166.631 52.3353 166.846 52.984 167.256 53.432C167.676 53.8707 168.26 54.09 169.006 54.09C169.482 54.09 169.902 54.048 170.266 53.964C170.64 53.8707 171.022 53.74 171.414 53.572V54.65C171.032 54.818 170.654 54.9393 170.28 55.014C169.907 55.098 169.464 55.14 168.95 55.14C168.232 55.14 167.602 54.9953 167.06 54.706C166.519 54.4167 166.094 53.9873 165.786 53.418C165.488 52.8487 165.338 52.144 165.338 51.304C165.338 50.4827 165.474 49.778 165.744 49.19C166.024 48.602 166.412 48.1493 166.906 47.832C167.41 47.5147 167.994 47.356 168.656 47.356ZM168.642 48.364C168.054 48.364 167.588 48.5553 167.242 48.938C166.906 49.3113 166.706 49.834 166.64 50.506H170.462C170.453 49.8713 170.304 49.358 170.014 48.966C169.725 48.5647 169.268 48.364 168.642 48.364ZM176.559 47.356C177.193 47.356 177.744 47.496 178.211 47.776C178.677 48.056 179.032 48.4527 179.275 48.966C179.527 49.47 179.653 50.0627 179.653 50.744V51.486H174.515C174.533 52.3353 174.748 52.984 175.159 53.432C175.579 53.8707 176.162 54.09 176.909 54.09C177.385 54.09 177.805 54.048 178.169 53.964C178.542 53.8707 178.925 53.74 179.317 53.572V54.65C178.934 54.818 178.556 54.9393 178.183 55.014C177.809 55.098 177.366 55.14 176.853 55.14C176.134 55.14 175.504 54.9953 174.963 54.706C174.421 54.4167 173.997 53.9873 173.689 53.418C173.39 52.8487 173.241 52.144 173.241 51.304C173.241 50.4827 173.376 49.778 173.647 49.19C173.927 48.602 174.314 48.1493 174.809 47.832C175.313 47.5147 175.896 47.356 176.559 47.356ZM176.545 48.364C175.957 48.364 175.49 48.5553 175.145 48.938C174.809 49.3113 174.608 49.834 174.543 50.506H178.365C178.355 49.8713 178.206 49.358 177.917 48.966C177.627 48.5647 177.17 48.364 176.545 48.364ZM187.706 54.132C187.892 54.132 188.084 54.118 188.28 54.09C188.476 54.062 188.634 54.0247 188.756 53.978V54.916C188.625 54.9813 188.438 55.0327 188.196 55.07C187.953 55.1167 187.72 55.14 187.496 55.14C187.104 55.14 186.74 55.0747 186.404 54.944C186.077 54.804 185.811 54.566 185.606 54.23C185.4 53.894 185.298 53.4227 185.298 52.816V48.448H184.234V47.86L185.312 47.37L185.802 45.774H186.53V47.496H188.7V48.448H186.53V52.788C186.53 53.2453 186.637 53.586 186.852 53.81C187.076 54.0247 187.36 54.132 187.706 54.132ZM196.782 51.234C196.782 52.4753 196.465 53.4367 195.83 54.118C195.205 54.7993 194.356 55.14 193.282 55.14C192.62 55.14 192.027 54.9907 191.504 54.692C190.991 54.384 190.585 53.9407 190.286 53.362C189.988 52.774 189.838 52.0647 189.838 51.234C189.838 49.9927 190.146 49.036 190.762 48.364C191.388 47.692 192.242 47.356 193.324 47.356C193.996 47.356 194.594 47.51 195.116 47.818C195.639 48.1167 196.045 48.5553 196.334 49.134C196.633 49.7033 196.782 50.4033 196.782 51.234ZM191.112 51.234C191.112 52.1207 191.285 52.8253 191.63 53.348C191.985 53.8613 192.545 54.118 193.31 54.118C194.066 54.118 194.622 53.8613 194.976 53.348C195.331 52.8253 195.508 52.1207 195.508 51.234C195.508 50.3473 195.331 49.652 194.976 49.148C194.622 48.644 194.062 48.392 193.296 48.392C192.531 48.392 191.976 48.644 191.63 49.148C191.285 49.652 191.112 50.3473 191.112 51.234ZM204.878 54.132C205.064 54.132 205.256 54.118 205.452 54.09C205.648 54.062 205.806 54.0247 205.928 53.978V54.916C205.797 54.9813 205.61 55.0327 205.368 55.07C205.125 55.1167 204.892 55.14 204.668 55.14C204.276 55.14 203.912 55.0747 203.576 54.944C203.249 54.804 202.983 54.566 202.778 54.23C202.572 53.894 202.47 53.4227 202.47 52.816V48.448H201.406V47.86L202.484 47.37L202.974 45.774H203.702V47.496H205.872V48.448H203.702V52.788C203.702 53.2453 203.809 53.586 204.024 53.81C204.248 54.0247 204.532 54.132 204.878 54.132ZM208.662 44.36V47.482C208.662 47.8553 208.639 48.2053 208.592 48.532H208.676C208.919 48.1493 209.246 47.86 209.656 47.664C210.076 47.468 210.529 47.37 211.014 47.37C211.92 47.37 212.601 47.5893 213.058 48.028C213.525 48.4573 213.758 49.1527 213.758 50.114V55H212.54V50.198C212.54 48.994 211.98 48.392 210.86 48.392C210.02 48.392 209.442 48.63 209.124 49.106C208.816 49.5727 208.662 50.2447 208.662 51.122V55H207.43V44.36H208.662ZM218.983 47.356C219.617 47.356 220.168 47.496 220.635 47.776C221.101 48.056 221.456 48.4527 221.699 48.966C221.951 49.47 222.077 50.0627 222.077 50.744V51.486H216.939C216.957 52.3353 217.172 52.984 217.583 53.432C218.003 53.8707 218.586 54.09 219.333 54.09C219.809 54.09 220.229 54.048 220.593 53.964C220.966 53.8707 221.349 53.74 221.741 53.572V54.65C221.358 54.818 220.98 54.9393 220.607 55.014C220.233 55.098 219.79 55.14 219.277 55.14C218.558 55.14 217.928 54.9953 217.387 54.706C216.845 54.4167 216.421 53.9873 216.113 53.418C215.814 52.8487 215.665 52.144 215.665 51.304C215.665 50.4827 215.8 49.778 216.071 49.19C216.351 48.602 216.738 48.1493 217.233 47.832C217.737 47.5147 218.32 47.356 218.983 47.356ZM218.969 48.364C218.381 48.364 217.914 48.5553 217.569 48.938C217.233 49.3113 217.032 49.834 216.967 50.506H220.789C220.779 49.8713 220.63 49.358 220.341 48.966C220.051 48.5647 219.594 48.364 218.969 48.364ZM230.13 54.132C230.316 54.132 230.508 54.118 230.704 54.09C230.9 54.062 231.058 54.0247 231.18 53.978V54.916C231.049 54.9813 230.862 55.0327 230.62 55.07C230.377 55.1167 230.144 55.14 229.92 55.14C229.528 55.14 229.164 55.0747 228.828 54.944C228.501 54.804 228.235 54.566 228.03 54.23C227.824 53.894 227.722 53.4227 227.722 52.816V48.448H226.658V47.86L227.736 47.37L228.226 45.774H228.954V47.496H231.124V48.448H228.954V52.788C228.954 53.2453 229.061 53.586 229.276 53.81C229.5 54.0247 229.784 54.132 230.13 54.132ZM235.58 47.356C236.215 47.356 236.766 47.496 237.232 47.776C237.699 48.056 238.054 48.4527 238.296 48.966C238.548 49.47 238.674 50.0627 238.674 50.744V51.486H233.536C233.555 52.3353 233.77 52.984 234.18 53.432C234.6 53.8707 235.184 54.09 235.93 54.09C236.406 54.09 236.826 54.048 237.19 53.964C237.564 53.8707 237.946 53.74 238.338 53.572V54.65C237.956 54.818 237.578 54.9393 237.204 55.014C236.831 55.098 236.388 55.14 235.874 55.14C235.156 55.14 234.526 54.9953 233.984 54.706C233.443 54.4167 233.018 53.9873 232.71 53.418C232.412 52.8487 232.262 52.144 232.262 51.304C232.262 50.4827 232.398 49.778 232.668 49.19C232.948 48.602 233.336 48.1493 233.83 47.832C234.334 47.5147 234.918 47.356 235.58 47.356ZM235.566 48.364C234.978 48.364 234.512 48.5553 234.166 48.938C233.83 49.3113 233.63 49.834 233.564 50.506H237.386C237.377 49.8713 237.228 49.358 236.938 48.966C236.649 48.5647 236.192 48.364 235.566 48.364ZM244.085 47.356C244.225 47.356 244.374 47.3653 244.533 47.384C244.691 47.3933 244.836 47.412 244.967 47.44L244.813 48.574C244.691 48.546 244.556 48.5227 244.407 48.504C244.257 48.4853 244.122 48.476 244.001 48.476C243.618 48.476 243.259 48.5833 242.923 48.798C242.587 49.0033 242.316 49.2973 242.111 49.68C241.915 50.0533 241.817 50.492 241.817 50.996V55H240.585V47.496H241.593L241.733 48.868H241.789C242.022 48.4573 242.33 48.1027 242.713 47.804C243.105 47.5053 243.562 47.356 244.085 47.356ZM254.6 47.356C255.449 47.356 256.084 47.5753 256.504 48.014C256.924 48.4527 257.134 49.1527 257.134 50.114V55H255.916V50.17C255.916 48.9847 255.407 48.392 254.39 48.392C253.662 48.392 253.139 48.602 252.822 49.022C252.514 49.442 252.36 50.0533 252.36 50.856V55H251.142V50.17C251.142 48.9847 250.628 48.392 249.602 48.392C248.846 48.392 248.323 48.6253 248.034 49.092C247.744 49.5587 247.6 50.2307 247.6 51.108V55H246.368V47.496H247.362L247.544 48.518H247.614C247.847 48.126 248.16 47.8367 248.552 47.65C248.953 47.454 249.378 47.356 249.826 47.356C251.002 47.356 251.767 47.776 252.122 48.616H252.192C252.444 48.1867 252.784 47.8693 253.214 47.664C253.643 47.4587 254.105 47.356 254.6 47.356ZM264.338 52.928C264.338 53.656 264.067 54.2067 263.526 54.58C262.984 54.9533 262.256 55.14 261.342 55.14C260.819 55.14 260.366 55.098 259.984 55.014C259.61 54.93 259.279 54.8133 258.99 54.664V53.544C259.288 53.6933 259.648 53.8333 260.068 53.964C260.497 54.0853 260.931 54.146 261.37 54.146C261.995 54.146 262.448 54.048 262.728 53.852C263.008 53.6467 263.148 53.376 263.148 53.04C263.148 52.8533 263.096 52.6853 262.994 52.536C262.891 52.3867 262.704 52.2373 262.434 52.088C262.172 51.9387 261.794 51.7707 261.3 51.584C260.814 51.3973 260.399 51.2107 260.054 51.024C259.708 50.8373 259.442 50.6133 259.256 50.352C259.069 50.0907 258.976 49.7547 258.976 49.344C258.976 48.7093 259.232 48.2193 259.746 47.874C260.268 47.5287 260.95 47.356 261.79 47.356C262.247 47.356 262.672 47.4027 263.064 47.496C263.465 47.5893 263.838 47.7107 264.184 47.86L263.764 48.84C263.446 48.7093 263.115 48.5973 262.77 48.504C262.424 48.4107 262.07 48.364 261.706 48.364C261.202 48.364 260.814 48.448 260.544 48.616C260.282 48.7747 260.152 48.994 260.152 49.274C260.152 49.4887 260.212 49.666 260.334 49.806C260.455 49.946 260.656 50.086 260.936 50.226C261.225 50.366 261.608 50.5247 262.084 50.702C262.56 50.8793 262.966 51.0613 263.302 51.248C263.638 51.4347 263.894 51.6633 264.072 51.934C264.249 52.1953 264.338 52.5267 264.338 52.928ZM272.63 47.37C273.544 47.37 274.221 47.5707 274.66 47.972C275.098 48.3733 275.318 49.0127 275.318 49.89V55H274.422L274.184 53.936H274.128C273.801 54.3467 273.456 54.65 273.092 54.846C272.728 55.042 272.233 55.14 271.608 55.14C270.926 55.14 270.362 54.9627 269.914 54.608C269.466 54.244 269.242 53.6793 269.242 52.914C269.242 52.1673 269.536 51.5933 270.124 51.192C270.712 50.7813 271.617 50.5573 272.84 50.52L274.114 50.478V50.03C274.114 49.4047 273.978 48.9707 273.708 48.728C273.437 48.4853 273.054 48.364 272.56 48.364C272.168 48.364 271.794 48.4247 271.44 48.546C271.085 48.658 270.754 48.7887 270.446 48.938L270.068 48.014C270.394 47.8367 270.782 47.6873 271.23 47.566C271.678 47.4353 272.144 47.37 272.63 47.37ZM274.1 51.332L272.994 51.374C272.06 51.4113 271.412 51.5607 271.048 51.822C270.693 52.0833 270.516 52.452 270.516 52.928C270.516 53.348 270.642 53.656 270.894 53.852C271.155 54.048 271.486 54.146 271.888 54.146C272.513 54.146 273.036 53.9733 273.456 53.628C273.885 53.2733 274.1 52.732 274.1 52.004V51.332ZM281.247 47.356C282.143 47.356 282.82 47.5753 283.277 48.014C283.735 48.4527 283.963 49.1527 283.963 50.114V55H282.745V50.198C282.745 48.994 282.185 48.392 281.065 48.392C280.235 48.392 279.661 48.6253 279.343 49.092C279.026 49.5587 278.867 50.2307 278.867 51.108V55H277.635V47.496H278.629L278.811 48.518H278.881C279.124 48.126 279.46 47.8367 279.889 47.65C280.319 47.454 280.771 47.356 281.247 47.356ZM288.95 55.14C288.016 55.14 287.27 54.818 286.71 54.174C286.15 53.5207 285.87 52.55 285.87 51.262C285.87 49.974 286.15 49.0033 286.71 48.35C287.279 47.6873 288.03 47.356 288.964 47.356C289.542 47.356 290.014 47.4633 290.378 47.678C290.751 47.8927 291.054 48.154 291.288 48.462H291.372C291.353 48.3407 291.334 48.1633 291.316 47.93C291.297 47.6873 291.288 47.496 291.288 47.356V44.36H292.52V55H291.526L291.344 53.992H291.288C291.064 54.3093 290.765 54.58 290.392 54.804C290.018 55.028 289.538 55.14 288.95 55.14ZM289.146 54.118C289.939 54.118 290.494 53.9033 290.812 53.474C291.138 53.0353 291.302 52.3773 291.302 51.5V51.276C291.302 50.3427 291.148 49.6287 290.84 49.134C290.532 48.63 289.962 48.378 289.132 48.378C288.469 48.378 287.97 48.644 287.634 49.176C287.307 49.6987 287.144 50.4033 287.144 51.29C287.144 52.186 287.307 52.8813 287.634 53.376C287.97 53.8707 288.474 54.118 289.146 54.118ZM301.55 55.14C300.878 55.14 300.285 55.0047 299.772 54.734C299.258 54.4633 298.852 54.0433 298.554 53.474C298.264 52.9047 298.12 52.1767 298.12 51.29C298.12 50.366 298.269 49.6147 298.568 49.036C298.876 48.4573 299.296 48.0327 299.828 47.762C300.36 47.4913 300.962 47.356 301.634 47.356C302.007 47.356 302.371 47.398 302.726 47.482C303.09 47.5567 303.384 47.65 303.608 47.762L303.23 48.784C303.006 48.7 302.744 48.6207 302.446 48.546C302.147 48.4713 301.867 48.434 301.606 48.434C300.131 48.434 299.394 49.3813 299.394 51.276C299.394 52.1813 299.571 52.8767 299.926 53.362C300.29 53.838 300.826 54.076 301.536 54.076C301.937 54.076 302.296 54.034 302.614 53.95C302.931 53.866 303.22 53.7633 303.482 53.642V54.734C303.23 54.8647 302.95 54.9627 302.642 55.028C302.343 55.1027 301.979 55.14 301.55 55.14ZM311.79 51.234C311.79 52.4753 311.473 53.4367 310.838 54.118C310.213 54.7993 309.364 55.14 308.29 55.14C307.628 55.14 307.035 54.9907 306.512 54.692C305.999 54.384 305.593 53.9407 305.294 53.362C304.996 52.774 304.846 52.0647 304.846 51.234C304.846 49.9927 305.154 49.036 305.77 48.364C306.396 47.692 307.25 47.356 308.332 47.356C309.004 47.356 309.602 47.51 310.124 47.818C310.647 48.1167 311.053 48.5553 311.342 49.134C311.641 49.7033 311.79 50.4033 311.79 51.234ZM306.12 51.234C306.12 52.1207 306.293 52.8253 306.638 53.348C306.993 53.8613 307.553 54.118 308.318 54.118C309.074 54.118 309.63 53.8613 309.984 53.348C310.339 52.8253 310.516 52.1207 310.516 51.234C310.516 50.3473 310.339 49.652 309.984 49.148C309.63 48.644 309.07 48.392 308.304 48.392C307.539 48.392 306.984 48.644 306.638 49.148C306.293 49.652 306.12 50.3473 306.12 51.234ZM317.355 47.356C318.251 47.356 318.927 47.5753 319.385 48.014C319.842 48.4527 320.071 49.1527 320.071 50.114V55H318.853V50.198C318.853 48.994 318.293 48.392 317.173 48.392C316.342 48.392 315.768 48.6253 315.451 49.092C315.133 49.5587 314.975 50.2307 314.975 51.108V55H313.743V47.496H314.737L314.919 48.518H314.989C315.231 48.126 315.567 47.8367 315.997 47.65C316.426 47.454 316.879 47.356 317.355 47.356ZM325.057 55.14C324.124 55.14 323.377 54.818 322.817 54.174C322.257 53.5207 321.977 52.55 321.977 51.262C321.977 49.974 322.257 49.0033 322.817 48.35C323.386 47.6873 324.138 47.356 325.071 47.356C325.65 47.356 326.121 47.4633 326.485 47.678C326.858 47.8927 327.162 48.154 327.395 48.462H327.479C327.46 48.3407 327.442 48.1633 327.423 47.93C327.404 47.6873 327.395 47.496 327.395 47.356V44.36H328.627V55H327.633L327.451 53.992H327.395C327.171 54.3093 326.872 54.58 326.499 54.804C326.126 55.028 325.645 55.14 325.057 55.14ZM325.253 54.118C326.046 54.118 326.602 53.9033 326.919 53.474C327.246 53.0353 327.409 52.3773 327.409 51.5V51.276C327.409 50.3427 327.255 49.6287 326.947 49.134C326.639 48.63 326.07 48.378 325.239 48.378C324.576 48.378 324.077 48.644 323.741 49.176C323.414 49.6987 323.251 50.4033 323.251 51.29C323.251 52.186 323.414 52.8813 323.741 53.376C324.077 53.8707 324.581 54.118 325.253 54.118ZM331.64 44.682C331.827 44.682 331.99 44.7473 332.13 44.878C332.28 44.9993 332.354 45.1953 332.354 45.466C332.354 45.7367 332.28 45.9373 332.13 46.068C331.99 46.1893 331.827 46.25 331.64 46.25C331.435 46.25 331.262 46.1893 331.122 46.068C330.982 45.9373 330.912 45.7367 330.912 45.466C330.912 45.1953 330.982 44.9993 331.122 44.878C331.262 44.7473 331.435 44.682 331.64 44.682ZM332.242 47.496V55H331.01V47.496H332.242ZM337.126 54.132C337.312 54.132 337.504 54.118 337.7 54.09C337.896 54.062 338.054 54.0247 338.176 53.978V54.916C338.045 54.9813 337.858 55.0327 337.616 55.07C337.373 55.1167 337.14 55.14 336.916 55.14C336.524 55.14 336.16 55.0747 335.824 54.944C335.497 54.804 335.231 54.566 335.026 54.23C334.82 53.894 334.718 53.4227 334.718 52.816V48.448H333.654V47.86L334.732 47.37L335.222 45.774H335.95V47.496H338.12V48.448H335.95V52.788C335.95 53.2453 336.057 53.586 336.272 53.81C336.496 54.0247 336.78 54.132 337.126 54.132ZM340.308 44.682C340.495 44.682 340.658 44.7473 340.798 44.878C340.948 44.9993 341.022 45.1953 341.022 45.466C341.022 45.7367 340.948 45.9373 340.798 46.068C340.658 46.1893 340.495 46.25 340.308 46.25C340.103 46.25 339.93 46.1893 339.79 46.068C339.65 45.9373 339.58 45.7367 339.58 45.466C339.58 45.1953 339.65 44.9993 339.79 44.878C339.93 44.7473 340.103 44.682 340.308 44.682ZM340.91 47.496V55H339.678V47.496H340.91ZM349.812 51.234C349.812 52.4753 349.494 53.4367 348.86 54.118C348.234 54.7993 347.385 55.14 346.312 55.14C345.649 55.14 345.056 54.9907 344.534 54.692C344.02 54.384 343.614 53.9407 343.316 53.362C343.017 52.774 342.868 52.0647 342.868 51.234C342.868 49.9927 343.176 49.036 343.792 48.364C344.417 47.692 345.271 47.356 346.354 47.356C347.026 47.356 347.623 47.51 348.146 47.818C348.668 48.1167 349.074 48.5553 349.364 49.134C349.662 49.7033 349.812 50.4033 349.812 51.234ZM344.142 51.234C344.142 52.1207 344.314 52.8253 344.66 53.348C345.014 53.8613 345.574 54.118 346.34 54.118C347.096 54.118 347.651 53.8613 348.006 53.348C348.36 52.8253 348.538 52.1207 348.538 51.234C348.538 50.3473 348.36 49.652 348.006 49.148C347.651 48.644 347.091 48.392 346.326 48.392C345.56 48.392 345.005 48.644 344.66 49.148C344.314 49.652 344.142 50.3473 344.142 51.234ZM355.376 47.356C356.272 47.356 356.949 47.5753 357.406 48.014C357.864 48.4527 358.092 49.1527 358.092 50.114V55H356.874V50.198C356.874 48.994 356.314 48.392 355.194 48.392C354.364 48.392 353.79 48.6253 353.472 49.092C353.155 49.5587 352.996 50.2307 352.996 51.108V55H351.764V47.496H352.758L352.94 48.518H353.01C353.253 48.126 353.589 47.8367 354.018 47.65C354.448 47.454 354.9 47.356 355.376 47.356ZM365.305 52.928C365.305 53.656 365.034 54.2067 364.493 54.58C363.951 54.9533 363.223 55.14 362.309 55.14C361.786 55.14 361.333 55.098 360.951 55.014C360.577 54.93 360.246 54.8133 359.957 54.664V53.544C360.255 53.6933 360.615 53.8333 361.035 53.964C361.464 54.0853 361.898 54.146 362.337 54.146C362.962 54.146 363.415 54.048 363.695 53.852C363.975 53.6467 364.115 53.376 364.115 53.04C364.115 52.8533 364.063 52.6853 363.961 52.536C363.858 52.3867 363.671 52.2373 363.401 52.088C363.139 51.9387 362.761 51.7707 362.267 51.584C361.781 51.3973 361.366 51.2107 361.021 51.024C360.675 50.8373 360.409 50.6133 360.223 50.352C360.036 50.0907 359.943 49.7547 359.943 49.344C359.943 48.7093 360.199 48.2193 360.713 47.874C361.235 47.5287 361.917 47.356 362.757 47.356C363.214 47.356 363.639 47.4027 364.031 47.496C364.432 47.5893 364.805 47.7107 365.151 47.86L364.731 48.84C364.413 48.7093 364.082 48.5973 363.737 48.504C363.391 48.4107 363.037 48.364 362.673 48.364C362.169 48.364 361.781 48.448 361.511 48.616C361.249 48.7747 361.119 48.994 361.119 49.274C361.119 49.4887 361.179 49.666 361.301 49.806C361.422 49.946 361.623 50.086 361.903 50.226C362.192 50.366 362.575 50.5247 363.051 50.702C363.527 50.8793 363.933 51.0613 364.269 51.248C364.605 51.4347 364.861 51.6633 365.039 51.934C365.216 52.1953 365.305 52.5267 365.305 52.928ZM366.936 54.244C366.936 53.8987 367.02 53.656 367.188 53.516C367.356 53.376 367.556 53.306 367.79 53.306C368.023 53.306 368.228 53.376 368.406 53.516C368.583 53.656 368.672 53.8987 368.672 54.244C368.672 54.58 368.583 54.8227 368.406 54.972C368.228 55.1213 368.023 55.196 367.79 55.196C367.556 55.196 367.356 55.1213 367.188 54.972C367.02 54.8227 366.936 54.58 366.936 54.244Z" fill="black"/>
<rect x="81" y="92" width="76" height="36" rx="2" fill="#ABD8F1"/>
<path d="M102.528 112.326C102.528 113.213 102.206 113.903 101.562 114.398C100.918 114.893 100.05 115.14 98.958 115.14C98.398 115.14 97.88 115.098 97.404 115.014C96.928 114.93 96.5313 114.813 96.214 114.664V113.46C96.55 113.609 96.9653 113.745 97.46 113.866C97.964 113.987 98.482 114.048 99.014 114.048C99.7513 114.048 100.311 113.903 100.694 113.614C101.077 113.325 101.268 112.933 101.268 112.438C101.268 112.111 101.198 111.836 101.058 111.612C100.918 111.388 100.675 111.183 100.33 110.996C99.9847 110.809 99.5133 110.604 98.916 110.38C98.0573 110.072 97.4133 109.694 96.984 109.246C96.5547 108.798 96.34 108.187 96.34 107.412C96.34 106.889 96.4753 106.437 96.746 106.054C97.0167 105.671 97.39 105.377 97.866 105.172C98.342 104.967 98.8973 104.864 99.532 104.864C100.073 104.864 100.573 104.915 101.03 105.018C101.487 105.121 101.907 105.256 102.29 105.424L101.898 106.502C101.553 106.353 101.175 106.227 100.764 106.124C100.353 106.021 99.9333 105.97 99.504 105.97C98.8787 105.97 98.4073 106.105 98.09 106.376C97.7727 106.637 97.614 106.987 97.614 107.426C97.614 107.762 97.684 108.042 97.824 108.266C97.964 108.49 98.1927 108.695 98.51 108.882C98.8273 109.059 99.2567 109.246 99.798 109.442C100.386 109.657 100.881 109.89 101.282 110.142C101.693 110.385 102.001 110.679 102.206 111.024C102.421 111.369 102.528 111.803 102.528 112.326ZM110.646 107.496V115H109.638L109.456 114.006H109.4C109.157 114.398 108.821 114.687 108.392 114.874C107.962 115.051 107.505 115.14 107.02 115.14C106.114 115.14 105.433 114.925 104.976 114.496C104.518 114.057 104.29 113.362 104.29 112.41V107.496H105.536V112.326C105.536 113.521 106.091 114.118 107.202 114.118C108.032 114.118 108.606 113.885 108.924 113.418C109.25 112.951 109.414 112.279 109.414 111.402V107.496H110.646ZM114.26 104.36V106.95C114.26 107.267 114.251 107.566 114.232 107.846C114.223 108.117 114.209 108.331 114.19 108.49H114.26C114.475 108.173 114.769 107.907 115.142 107.692C115.515 107.477 115.996 107.37 116.584 107.37C117.517 107.37 118.264 107.697 118.824 108.35C119.393 108.994 119.678 109.96 119.678 111.248C119.678 112.536 119.393 113.507 118.824 114.16C118.255 114.813 117.508 115.14 116.584 115.14C115.996 115.14 115.515 115.033 115.142 114.818C114.769 114.603 114.475 114.347 114.26 114.048H114.162L113.91 115H113.028V104.36H114.26ZM116.374 108.392C115.571 108.392 115.016 108.621 114.708 109.078C114.409 109.535 114.26 110.245 114.26 111.206V111.262C114.26 112.186 114.409 112.895 114.708 113.39C115.016 113.875 115.581 114.118 116.402 114.118C117.074 114.118 117.573 113.871 117.9 113.376C118.236 112.881 118.404 112.167 118.404 111.234C118.404 109.339 117.727 108.392 116.374 108.392ZM129.873 107.356C130.723 107.356 131.357 107.575 131.777 108.014C132.197 108.453 132.407 109.153 132.407 110.114V115H131.189V110.17C131.189 108.985 130.681 108.392 129.663 108.392C128.935 108.392 128.413 108.602 128.095 109.022C127.787 109.442 127.633 110.053 127.633 110.856V115H126.415V110.17C126.415 108.985 125.902 108.392 124.875 108.392C124.119 108.392 123.597 108.625 123.307 109.092C123.018 109.559 122.873 110.231 122.873 111.108V115H121.641V107.496H122.635L122.817 108.518H122.887C123.121 108.126 123.433 107.837 123.825 107.65C124.227 107.454 124.651 107.356 125.099 107.356C126.275 107.356 127.041 107.776 127.395 108.616H127.465C127.717 108.187 128.058 107.869 128.487 107.664C128.917 107.459 129.379 107.356 129.873 107.356ZM135.355 104.682C135.542 104.682 135.705 104.747 135.845 104.878C135.994 104.999 136.069 105.195 136.069 105.466C136.069 105.737 135.994 105.937 135.845 106.068C135.705 106.189 135.542 106.25 135.355 106.25C135.15 106.25 134.977 106.189 134.837 106.068C134.697 105.937 134.627 105.737 134.627 105.466C134.627 105.195 134.697 104.999 134.837 104.878C134.977 104.747 135.15 104.682 135.355 104.682ZM135.957 107.496V115H134.725V107.496H135.957ZM140.841 114.132C141.027 114.132 141.219 114.118 141.415 114.09C141.611 114.062 141.769 114.025 141.891 113.978V114.916C141.76 114.981 141.573 115.033 141.331 115.07C141.088 115.117 140.855 115.14 140.631 115.14C140.239 115.14 139.875 115.075 139.539 114.944C139.212 114.804 138.946 114.566 138.741 114.23C138.535 113.894 138.433 113.423 138.433 112.816V108.448H137.369V107.86L138.447 107.37L138.937 105.774H139.665V107.496H141.835V108.448H139.665V112.788C139.665 113.245 139.772 113.586 139.987 113.81C140.211 114.025 140.495 114.132 140.841 114.132Z" fill="white"/>
<g filter="url(#filter0_d_8702_368491)">
<mask id="path-8-outside-1_8702_368491" maskUnits="userSpaceOnUse" x="134.5" y="102" width="16" height="19" fill="black">
<rect fill="white" x="134.5" y="102" width="16" height="19"/>
<path fill-rule="evenodd" clip-rule="evenodd" d="M139.336 113L138.449 111.645C137.844 110.72 136.554 110.383 135.568 110.89L135.798 110.772C135.553 110.898 135.435 111.211 135.536 111.472L136.763 114.647C136.958 115.151 137.455 115.863 137.867 116.22C137.867 116.22 140.336 118.264 140.336 119.03V120H144.336L145.336 118L146.336 120H147.336V119.03C147.336 118.264 148.844 115.851 148.844 115.851C149.122 115.382 149.354 114.555 149.354 114.007V109.972C149.336 109.078 148.576 108.355 147.639 108.355C147.171 108.355 146.791 108.717 146.791 109.163V109.487C146.791 108.593 146.032 107.869 145.095 107.869C144.626 107.869 144.246 108.231 144.246 108.678V109.001C144.246 108.108 143.487 107.384 142.55 107.384C142.081 107.384 141.701 107.746 141.701 108.193V108.516C141.701 108.373 141.686 108.258 141.657 108.168L141.398 104.001C141.363 103.438 140.888 103 140.336 103C139.779 103 139.336 103.448 139.336 104V108V113ZM146.354 112L147.354 112V116H146.354V112ZM144.354 112L145.354 112V116H144.354V112ZM142.354 112L143.354 112V116H142.354V112Z"/>
</mask>
<path fill-rule="evenodd" clip-rule="evenodd" d="M139.336 113L138.449 111.645C137.844 110.72 136.554 110.383 135.568 110.89L135.798 110.772C135.553 110.898 135.435 111.211 135.536 111.472L136.763 114.647C136.958 115.151 137.455 115.863 137.867 116.22C137.867 116.22 140.336 118.264 140.336 119.03V120H144.336L145.336 118L146.336 120H147.336V119.03C147.336 118.264 148.844 115.851 148.844 115.851C149.122 115.382 149.354 114.555 149.354 114.007V109.972C149.336 109.078 148.576 108.355 147.639 108.355C147.171 108.355 146.791 108.717 146.791 109.163V109.487C146.791 108.593 146.032 107.869 145.095 107.869C144.626 107.869 144.246 108.231 144.246 108.678V109.001C144.246 108.108 143.487 107.384 142.55 107.384C142.081 107.384 141.701 107.746 141.701 108.193V108.516C141.701 108.373 141.686 108.258 141.657 108.168L141.398 104.001C141.363 103.438 140.888 103 140.336 103C139.779 103 139.336 103.448 139.336 104V108V113ZM146.354 112L147.354 112V116H146.354V112ZM144.354 112L145.354 112V116H144.354V112ZM142.354 112L143.354 112V116H142.354V112Z" fill="white"/>
<path d="M139.336 113L138.499 113.548L140.336 116.354V113H139.336ZM138.449 111.645L139.286 111.098L139.286 111.098L138.449 111.645ZM135.536 111.472L134.603 111.833L135.536 111.472ZM136.763 114.647L137.696 114.287L137.696 114.287L136.763 114.647ZM137.867 116.22L137.211 116.975L137.22 116.983L137.229 116.991L137.867 116.22ZM140.336 120H139.336V121H140.336V120ZM144.336 120V121H144.954L145.23 120.447L144.336 120ZM145.336 118L146.23 117.553L145.336 115.764L144.441 117.553L145.336 118ZM146.336 120L145.441 120.447L145.718 121H146.336V120ZM147.336 120V121H148.336V120H147.336ZM148.844 115.851L149.692 116.381L149.699 116.371L149.705 116.36L148.844 115.851ZM149.354 109.972H150.354V109.962L150.353 109.952L149.354 109.972ZM141.657 108.168L140.658 108.23L140.666 108.358L140.706 108.479L141.657 108.168ZM141.398 104.001L140.4 104.063L140.4 104.063L141.398 104.001ZM146.354 112L146.354 111L145.354 111V112H146.354ZM147.354 112H148.354V111L147.354 111L147.354 112ZM147.354 116V117H148.354V116H147.354ZM146.354 116H145.354V117H146.354V116ZM144.354 112L144.354 111L143.354 111V112H144.354ZM145.354 112H146.354V111L145.354 111L145.354 112ZM145.354 116V117H146.354V116H145.354ZM144.354 116H143.354V117H144.354V116ZM142.354 112L142.354 111L141.354 111V112H142.354ZM143.354 112H144.354V111L143.354 111L143.354 112ZM143.354 116V117H144.354V116H143.354ZM142.354 116H141.354V117H142.354V116ZM140.172 112.452L139.286 111.098L137.612 112.193L138.499 113.548L140.172 112.452ZM139.286 111.098C138.398 109.742 136.549 109.261 135.11 110.001L136.025 111.779C136.559 111.505 137.289 111.699 137.612 112.193L139.286 111.098ZM136.025 111.779L136.255 111.661L135.34 109.882L135.11 110.001L136.025 111.779ZM135.34 109.882C134.631 110.247 134.322 111.105 134.603 111.833L136.469 111.112C136.514 111.23 136.505 111.34 136.474 111.421C136.444 111.503 136.376 111.599 136.255 111.661L135.34 109.882ZM134.603 111.833L135.831 115.008L137.696 114.287L136.469 111.112L134.603 111.833ZM135.831 115.008C136.083 115.662 136.675 116.51 137.211 116.975L138.522 115.465C138.235 115.216 137.833 114.64 137.696 114.287L135.831 115.008ZM137.867 116.22C137.229 116.991 137.229 116.991 137.229 116.991C137.229 116.991 137.229 116.991 137.229 116.991C137.229 116.991 137.229 116.991 137.229 116.991C137.229 116.991 137.229 116.991 137.23 116.991C137.23 116.992 137.232 116.993 137.234 116.995C137.238 116.998 137.244 117.003 137.252 117.01C137.268 117.024 137.293 117.045 137.325 117.072C137.389 117.126 137.481 117.205 137.592 117.303C137.815 117.499 138.109 117.765 138.4 118.051C138.696 118.342 138.968 118.632 139.159 118.88C139.255 119.004 139.313 119.095 139.343 119.152C139.384 119.23 139.336 119.174 139.336 119.03H141.336C141.336 118.694 141.21 118.407 141.116 118.226C141.011 118.025 140.876 117.831 140.741 117.656C140.469 117.304 140.124 116.941 139.802 116.625C139.476 116.304 139.153 116.012 138.913 115.801C138.792 115.695 138.691 115.608 138.62 115.548C138.585 115.517 138.556 115.494 138.537 115.477C138.527 115.469 138.519 115.462 138.514 115.458C138.511 115.455 138.509 115.454 138.507 115.452C138.506 115.452 138.506 115.451 138.505 115.451C138.505 115.451 138.505 115.45 138.505 115.45C138.505 115.45 138.504 115.45 138.504 115.45C138.504 115.45 138.504 115.45 137.867 116.22ZM139.336 119.03V120H141.336V119.03H139.336ZM140.336 121H144.336V119H140.336V121ZM145.23 120.447L146.23 118.447L144.441 117.553L143.441 119.553L145.23 120.447ZM144.441 118.447L145.441 120.447L147.23 119.553L146.23 117.553L144.441 118.447ZM146.336 121H147.336V119H146.336V121ZM148.336 120V119.03H146.336V120H148.336ZM148.336 119.03C148.336 119.066 148.346 118.944 148.492 118.6C148.616 118.307 148.788 117.965 148.97 117.628C149.15 117.294 149.331 116.981 149.468 116.75C149.537 116.635 149.593 116.542 149.633 116.477C149.652 116.445 149.668 116.421 149.678 116.404C149.683 116.396 149.687 116.39 149.689 116.386C149.69 116.384 149.691 116.382 149.692 116.382C149.692 116.381 149.692 116.381 149.692 116.381C149.692 116.381 149.692 116.381 149.692 116.381C149.692 116.381 149.692 116.381 149.692 116.381C149.692 116.381 149.692 116.381 148.844 115.851C147.996 115.321 147.996 115.321 147.996 115.321C147.996 115.321 147.996 115.321 147.996 115.321C147.996 115.321 147.996 115.321 147.996 115.321C147.996 115.322 147.995 115.322 147.995 115.323C147.994 115.325 147.993 115.327 147.991 115.329C147.988 115.335 147.983 115.342 147.977 115.352C147.965 115.371 147.948 115.399 147.926 115.434C147.883 115.505 147.822 115.606 147.749 115.729C147.603 115.975 147.407 116.313 147.21 116.678C147.015 117.04 146.809 117.445 146.65 117.82C146.513 118.144 146.336 118.611 146.336 119.03H148.336ZM149.705 116.36C149.903 116.026 150.059 115.613 150.167 115.226C150.274 114.839 150.354 114.401 150.354 114.007H148.354C148.354 114.161 148.317 114.41 148.24 114.691C148.162 114.971 148.064 115.206 147.984 115.341L149.705 116.36ZM150.354 114.007V109.972H148.354V114.007H150.354ZM150.353 109.952C150.324 108.482 149.088 107.355 147.639 107.355V109.355C148.065 109.355 148.347 109.675 148.354 109.992L150.353 109.952ZM147.639 107.355C146.664 107.355 145.791 108.12 145.791 109.163H147.791C147.791 109.232 147.76 109.286 147.729 109.315C147.699 109.344 147.665 109.355 147.639 109.355V107.355ZM145.791 109.163V109.487H147.791V109.163H145.791ZM147.791 109.487C147.791 107.997 146.538 106.869 145.095 106.869V108.869C145.525 108.869 145.791 109.19 145.791 109.487H147.791ZM145.095 106.869C144.119 106.869 143.246 107.635 143.246 108.678H145.246C145.246 108.746 145.215 108.801 145.185 108.83C145.155 108.859 145.121 108.869 145.095 108.869V106.869ZM143.246 108.678V109.001H145.246V108.678H143.246ZM145.246 109.001C145.246 107.511 143.994 106.384 142.55 106.384V108.384C142.98 108.384 143.246 108.705 143.246 109.001H145.246ZM142.55 106.384C141.574 106.384 140.701 107.149 140.701 108.193H142.701C142.701 108.261 142.671 108.315 142.64 108.345C142.61 108.373 142.576 108.384 142.55 108.384V106.384ZM140.701 108.193V108.516H142.701V108.193H140.701ZM142.701 108.516C142.701 108.309 142.68 108.081 142.607 107.857L140.706 108.479C140.698 108.456 140.698 108.444 140.699 108.452C140.699 108.459 140.701 108.479 140.701 108.516H142.701ZM142.655 108.106L142.396 103.939L140.4 104.063L140.658 108.23L142.655 108.106ZM142.396 103.939C142.328 102.845 141.412 102 140.336 102V104C140.344 104 140.36 104.003 140.377 104.019C140.393 104.034 140.399 104.05 140.4 104.063L142.396 103.939ZM140.336 102C139.225 102 138.336 102.898 138.336 104H140.336V104V102ZM138.336 104V108H140.336V104H138.336ZM138.336 108V113H140.336V108H138.336ZM146.354 113L147.354 113L147.354 111L146.354 111L146.354 113ZM146.354 112V116H148.354V112H146.354ZM147.354 115H146.354V117H147.354V115ZM147.354 116V112H145.354V116H147.354ZM144.354 113L145.354 113L145.354 111L144.354 111L144.354 113ZM144.354 112V116H146.354V112H144.354ZM145.354 115H144.354V117H145.354V115ZM145.354 116V112H143.354V116H145.354ZM142.354 113L143.354 113L143.354 111L142.354 111L142.354 113ZM142.354 112V116H144.354V112H142.354ZM143.354 115H142.354V117H143.354V115ZM143.354 116V112H141.354V116H143.354Z" fill="black" fill-opacity="0.8" mask="url(#path-8-outside-1_8702_368491)"/>
</g>
<rect x="165.5" y="92.5" width="75" height="35" rx="1.5" fill="white"/>
<path d="M186.642 105.97C185.569 105.97 184.724 106.329 184.108 107.048C183.492 107.767 183.184 108.751 183.184 110.002C183.184 111.243 183.469 112.228 184.038 112.956C184.617 113.675 185.48 114.034 186.628 114.034C187.057 114.034 187.468 113.997 187.86 113.922C188.252 113.847 188.639 113.754 189.022 113.642V114.734C188.649 114.874 188.261 114.977 187.86 115.042C187.468 115.107 186.997 115.14 186.446 115.14C185.429 115.14 184.579 114.93 183.898 114.51C183.217 114.09 182.703 113.493 182.358 112.718C182.022 111.943 181.854 111.033 181.854 109.988C181.854 108.98 182.036 108.093 182.4 107.328C182.773 106.553 183.319 105.951 184.038 105.522C184.757 105.083 185.629 104.864 186.656 104.864C187.711 104.864 188.63 105.06 189.414 105.452L188.91 106.516C188.602 106.376 188.257 106.25 187.874 106.138C187.501 106.026 187.09 105.97 186.642 105.97ZM193.878 107.37C194.792 107.37 195.469 107.571 195.908 107.972C196.346 108.373 196.566 109.013 196.566 109.89V115H195.67L195.432 113.936H195.376C195.049 114.347 194.704 114.65 194.34 114.846C193.976 115.042 193.481 115.14 192.856 115.14C192.174 115.14 191.61 114.963 191.162 114.608C190.714 114.244 190.49 113.679 190.49 112.914C190.49 112.167 190.784 111.593 191.372 111.192C191.96 110.781 192.865 110.557 194.088 110.52L195.362 110.478V110.03C195.362 109.405 195.226 108.971 194.956 108.728C194.685 108.485 194.302 108.364 193.808 108.364C193.416 108.364 193.042 108.425 192.688 108.546C192.333 108.658 192.002 108.789 191.694 108.938L191.316 108.014C191.642 107.837 192.03 107.687 192.478 107.566C192.926 107.435 193.392 107.37 193.878 107.37ZM195.348 111.332L194.242 111.374C193.308 111.411 192.66 111.561 192.296 111.822C191.941 112.083 191.764 112.452 191.764 112.928C191.764 113.348 191.89 113.656 192.142 113.852C192.403 114.048 192.734 114.146 193.136 114.146C193.761 114.146 194.284 113.973 194.704 113.628C195.133 113.273 195.348 112.732 195.348 112.004V111.332ZM202.495 107.356C203.391 107.356 204.068 107.575 204.525 108.014C204.983 108.453 205.211 109.153 205.211 110.114V115H203.993V110.198C203.993 108.994 203.433 108.392 202.313 108.392C201.483 108.392 200.909 108.625 200.591 109.092C200.274 109.559 200.115 110.231 200.115 111.108V115H198.883V107.496H199.877L200.059 108.518H200.129C200.372 108.126 200.708 107.837 201.137 107.65C201.567 107.454 202.019 107.356 202.495 107.356ZM210.548 115.14C209.876 115.14 209.283 115.005 208.77 114.734C208.256 114.463 207.85 114.043 207.552 113.474C207.262 112.905 207.118 112.177 207.118 111.29C207.118 110.366 207.267 109.615 207.566 109.036C207.874 108.457 208.294 108.033 208.826 107.762C209.358 107.491 209.96 107.356 210.632 107.356C211.005 107.356 211.369 107.398 211.724 107.482C212.088 107.557 212.382 107.65 212.606 107.762L212.228 108.784C212.004 108.7 211.742 108.621 211.444 108.546C211.145 108.471 210.865 108.434 210.604 108.434C209.129 108.434 208.392 109.381 208.392 111.276C208.392 112.181 208.569 112.877 208.924 113.362C209.288 113.838 209.824 114.076 210.534 114.076C210.935 114.076 211.294 114.034 211.612 113.95C211.929 113.866 212.218 113.763 212.48 113.642V114.734C212.228 114.865 211.948 114.963 211.64 115.028C211.341 115.103 210.977 115.14 210.548 115.14ZM217.162 107.356C217.797 107.356 218.348 107.496 218.814 107.776C219.281 108.056 219.636 108.453 219.878 108.966C220.13 109.47 220.256 110.063 220.256 110.744V111.486H215.118C215.137 112.335 215.352 112.984 215.762 113.432C216.182 113.871 216.766 114.09 217.512 114.09C217.988 114.09 218.408 114.048 218.772 113.964C219.146 113.871 219.528 113.74 219.92 113.572V114.65C219.538 114.818 219.16 114.939 218.786 115.014C218.413 115.098 217.97 115.14 217.456 115.14C216.738 115.14 216.108 114.995 215.566 114.706C215.025 114.417 214.6 113.987 214.292 113.418C213.994 112.849 213.844 112.144 213.844 111.304C213.844 110.483 213.98 109.778 214.25 109.19C214.53 108.602 214.918 108.149 215.412 107.832C215.916 107.515 216.5 107.356 217.162 107.356ZM217.148 108.364C216.56 108.364 216.094 108.555 215.748 108.938C215.412 109.311 215.212 109.834 215.146 110.506H218.968C218.959 109.871 218.81 109.358 218.52 108.966C218.231 108.565 217.774 108.364 217.148 108.364ZM223.399 115H222.167V104.36H223.399V115Z" fill="#1B77AF"/>
<rect x="165.5" y="92.5" width="75" height="35" rx="1.5" stroke="#1B77AF"/>
<path d="M126 135H112L119 128L126 135Z" fill="#323232"/>
<rect x="42" y="135" width="154" height="48" rx="4" fill="#323232"/>
<path d="M57.876 156H56.796V148.38H54.12V147.432H60.54V148.38H57.876V156ZM62.744 146.88V149.556C62.744 149.876 62.724 150.176 62.684 150.456H62.756C62.964 150.128 63.244 149.88 63.596 149.712C63.956 149.544 64.344 149.46 64.76 149.46C65.536 149.46 66.12 149.648 66.512 150.024C66.912 150.392 67.112 150.988 67.112 151.812V156H66.068V151.884C66.068 150.852 65.588 150.336 64.628 150.336C63.908 150.336 63.412 150.54 63.14 150.948C62.876 151.348 62.744 151.924 62.744 152.676V156H61.688V146.88H62.744ZM71.5899 149.448C72.1339 149.448 72.6059 149.568 73.0059 149.808C73.4059 150.048 73.7099 150.388 73.9179 150.828C74.1339 151.26 74.2419 151.768 74.2419 152.352V152.988H69.8379C69.8539 153.716 70.0379 154.272 70.3899 154.656C70.7499 155.032 71.2499 155.22 71.8899 155.22C72.2979 155.22 72.6579 155.184 72.9699 155.112C73.2899 155.032 73.6179 154.92 73.9539 154.776V155.7C73.6259 155.844 73.3019 155.948 72.9819 156.012C72.6619 156.084 72.2819 156.12 71.8419 156.12C71.2259 156.12 70.6859 155.996 70.2219 155.748C69.7579 155.5 69.3939 155.132 69.1299 154.644C68.8739 154.156 68.7459 153.552 68.7459 152.832C68.7459 152.128 68.8619 151.524 69.0939 151.02C69.3339 150.516 69.6659 150.128 70.0899 149.856C70.5219 149.584 71.0219 149.448 71.5899 149.448ZM71.5779 150.312C71.0739 150.312 70.6739 150.476 70.3779 150.804C70.0899 151.124 69.9179 151.572 69.8619 152.148H73.1379C73.1299 151.604 73.0019 151.164 72.7539 150.828C72.5059 150.484 72.1139 150.312 71.5779 150.312ZM81.9966 149.448C82.1166 149.448 82.2446 149.456 82.3806 149.472C82.5166 149.48 82.6406 149.496 82.7526 149.52L82.6206 150.492C82.5166 150.468 82.4006 150.448 82.2726 150.432C82.1446 150.416 82.0286 150.408 81.9246 150.408C81.5966 150.408 81.2886 150.5 81.0006 150.684C80.7126 150.86 80.4806 151.112 80.3046 151.44C80.1366 151.76 80.0526 152.136 80.0526 152.568V156H78.9966V149.568H79.8606L79.9806 150.744H80.0286C80.2286 150.392 80.4926 150.088 80.8206 149.832C81.1566 149.576 81.5486 149.448 81.9966 149.448ZM86.2032 149.448C86.7472 149.448 87.2192 149.568 87.6192 149.808C88.0192 150.048 88.3232 150.388 88.5312 150.828C88.7472 151.26 88.8552 151.768 88.8552 152.352V152.988H84.4512C84.4672 153.716 84.6512 154.272 85.0032 154.656C85.3632 155.032 85.8632 155.22 86.5032 155.22C86.9112 155.22 87.2712 155.184 87.5832 155.112C87.9032 155.032 88.2312 154.92 88.5672 154.776V155.7C88.2392 155.844 87.9152 155.948 87.5952 156.012C87.2752 156.084 86.8952 156.12 86.4552 156.12C85.8392 156.12 85.2992 155.996 84.8352 155.748C84.3712 155.5 84.0072 155.132 83.7432 154.644C83.4872 154.156 83.3592 153.552 83.3592 152.832C83.3592 152.128 83.4752 151.524 83.7072 151.02C83.9472 150.516 84.2792 150.128 84.7032 149.856C85.1352 149.584 85.6352 149.448 86.2032 149.448ZM86.1912 150.312C85.6872 150.312 85.2872 150.476 84.9912 150.804C84.7032 151.124 84.5312 151.572 84.4752 152.148H87.7512C87.7432 151.604 87.6152 151.164 87.3672 150.828C87.1192 150.484 86.7272 150.312 86.1912 150.312ZM94.6807 154.224C94.6807 154.848 94.4487 155.32 93.9847 155.64C93.5207 155.96 92.8967 156.12 92.1127 156.12C91.6647 156.12 91.2767 156.084 90.9487 156.012C90.6287 155.94 90.3447 155.84 90.0967 155.712V154.752C90.3527 154.88 90.6607 155 91.0207 155.112C91.3887 155.216 91.7607 155.268 92.1367 155.268C92.6727 155.268 93.0607 155.184 93.3007 155.016C93.5407 154.84 93.6607 154.608 93.6607 154.32C93.6607 154.16 93.6167 154.016 93.5287 153.888C93.4407 153.76 93.2807 153.632 93.0487 153.504C92.8247 153.376 92.5007 153.232 92.0767 153.072C91.6607 152.912 91.3047 152.752 91.0087 152.592C90.7127 152.432 90.4847 152.24 90.3247 152.016C90.1647 151.792 90.0847 151.504 90.0847 151.152C90.0847 150.608 90.3047 150.188 90.7447 149.892C91.1927 149.596 91.7767 149.448 92.4967 149.448C92.8887 149.448 93.2527 149.488 93.5887 149.568C93.9327 149.648 94.2527 149.752 94.5487 149.88L94.1887 150.72C93.9167 150.608 93.6327 150.512 93.3367 150.432C93.0407 150.352 92.7367 150.312 92.4247 150.312C91.9927 150.312 91.6607 150.384 91.4287 150.528C91.2047 150.664 91.0927 150.852 91.0927 151.092C91.0927 151.276 91.1447 151.428 91.2487 151.548C91.3527 151.668 91.5247 151.788 91.7647 151.908C92.0127 152.028 92.3407 152.164 92.7487 152.316C93.1567 152.468 93.5047 152.624 93.7927 152.784C94.0807 152.944 94.3007 153.14 94.4527 153.372C94.6047 153.596 94.6807 153.88 94.6807 154.224ZM98.3828 155.256C98.5428 155.256 98.7068 155.244 98.8748 155.22C99.0428 155.196 99.1788 155.164 99.2828 155.124V155.928C99.1708 155.984 99.0108 156.028 98.8028 156.06C98.5948 156.1 98.3948 156.12 98.2028 156.12C97.8668 156.12 97.5548 156.064 97.2668 155.952C96.9868 155.832 96.7588 155.628 96.5828 155.34C96.4068 155.052 96.3188 154.648 96.3188 154.128V150.384H95.4068V149.88L96.3308 149.46L96.7508 148.092H97.3748V149.568H99.2348V150.384H97.3748V154.104C97.3748 154.496 97.4668 154.788 97.6508 154.98C97.8428 155.164 98.0868 155.256 98.3828 155.256ZM109.28 152.772C109.28 153.836 109.008 154.66 108.464 155.244C107.928 155.828 107.2 156.12 106.28 156.12C105.712 156.12 105.204 155.992 104.756 155.736C104.316 155.472 103.968 155.092 103.712 154.596C103.456 154.092 103.328 153.484 103.328 152.772C103.328 151.708 103.592 150.888 104.12 150.312C104.656 149.736 105.388 149.448 106.316 149.448C106.892 149.448 107.404 149.58 107.852 149.844C108.3 150.1 108.648 150.476 108.896 150.972C109.152 151.46 109.28 152.06 109.28 152.772ZM104.42 152.772C104.42 153.532 104.568 154.136 104.864 154.584C105.168 155.024 105.648 155.244 106.304 155.244C106.952 155.244 107.428 155.024 107.732 154.584C108.036 154.136 108.188 153.532 108.188 152.772C108.188 152.012 108.036 151.416 107.732 150.984C107.428 150.552 106.948 150.336 106.292 150.336C105.636 150.336 105.16 150.552 104.864 150.984C104.568 151.416 104.42 152.012 104.42 152.772ZM113.918 150.384H112.298V156H111.242V150.384H110.114V149.892L111.242 149.532V149.16C111.242 148.328 111.422 147.732 111.782 147.372C112.15 147.004 112.666 146.82 113.33 146.82C113.578 146.82 113.81 146.844 114.026 146.892C114.242 146.932 114.426 146.98 114.578 147.036L114.302 147.864C114.174 147.824 114.026 147.784 113.858 147.744C113.69 147.704 113.518 147.684 113.342 147.684C112.99 147.684 112.726 147.804 112.55 148.044C112.382 148.276 112.298 148.644 112.298 149.148V149.568H113.918V150.384ZM120.344 155.256C120.504 155.256 120.668 155.244 120.836 155.22C121.004 155.196 121.14 155.164 121.244 155.124V155.928C121.132 155.984 120.972 156.028 120.764 156.06C120.556 156.1 120.356 156.12 120.164 156.12C119.828 156.12 119.516 156.064 119.228 155.952C118.948 155.832 118.72 155.628 118.544 155.34C118.368 155.052 118.28 154.648 118.28 154.128V150.384H117.368V149.88L118.292 149.46L118.712 148.092H119.336V149.568H121.196V150.384H119.336V154.104C119.336 154.496 119.428 154.788 119.612 154.98C119.804 155.164 120.048 155.256 120.344 155.256ZM123.588 146.88V149.556C123.588 149.876 123.568 150.176 123.528 150.456H123.6C123.808 150.128 124.088 149.88 124.44 149.712C124.8 149.544 125.188 149.46 125.604 149.46C126.38 149.46 126.964 149.648 127.356 150.024C127.756 150.392 127.956 150.988 127.956 151.812V156H126.912V151.884C126.912 150.852 126.432 150.336 125.472 150.336C124.752 150.336 124.256 150.54 123.984 150.948C123.72 151.348 123.588 151.924 123.588 152.676V156H122.532V146.88H123.588ZM132.434 149.448C132.978 149.448 133.45 149.568 133.85 149.808C134.25 150.048 134.554 150.388 134.762 150.828C134.978 151.26 135.086 151.768 135.086 152.352V152.988H130.682C130.698 153.716 130.882 154.272 131.234 154.656C131.594 155.032 132.094 155.22 132.734 155.22C133.142 155.22 133.502 155.184 133.814 155.112C134.134 155.032 134.462 154.92 134.798 154.776V155.7C134.47 155.844 134.146 155.948 133.826 156.012C133.506 156.084 133.126 156.12 132.686 156.12C132.07 156.12 131.53 155.996 131.066 155.748C130.602 155.5 130.238 155.132 129.974 154.644C129.718 154.156 129.59 153.552 129.59 152.832C129.59 152.128 129.706 151.524 129.938 151.02C130.178 150.516 130.51 150.128 130.934 149.856C131.366 149.584 131.866 149.448 132.434 149.448ZM132.422 150.312C131.918 150.312 131.518 150.476 131.222 150.804C130.934 151.124 130.762 151.572 130.706 152.148H133.982C133.974 151.604 133.846 151.164 133.598 150.828C133.35 150.484 132.958 150.312 132.422 150.312ZM142.804 150.384H141.184V156H140.128V150.384H139V149.892L140.128 149.532V149.16C140.128 148.328 140.308 147.732 140.668 147.372C141.036 147.004 141.552 146.82 142.216 146.82C142.464 146.82 142.696 146.844 142.912 146.892C143.128 146.932 143.312 146.98 143.464 147.036L143.188 147.864C143.06 147.824 142.912 147.784 142.744 147.744C142.576 147.704 142.404 147.684 142.228 147.684C141.876 147.684 141.612 147.804 141.436 148.044C141.268 148.276 141.184 148.644 141.184 149.148V149.568H142.804V150.384ZM149.557 152.772C149.557 153.836 149.285 154.66 148.741 155.244C148.205 155.828 147.477 156.12 146.557 156.12C145.989 156.12 145.481 155.992 145.033 155.736C144.593 155.472 144.245 155.092 143.989 154.596C143.733 154.092 143.605 153.484 143.605 152.772C143.605 151.708 143.869 150.888 144.397 150.312C144.933 149.736 145.665 149.448 146.593 149.448C147.169 149.448 147.681 149.58 148.129 149.844C148.577 150.1 148.925 150.476 149.173 150.972C149.429 151.46 149.557 152.06 149.557 152.772ZM144.697 152.772C144.697 153.532 144.845 154.136 145.141 154.584C145.445 155.024 145.925 155.244 146.581 155.244C147.229 155.244 147.705 155.024 148.009 154.584C148.313 154.136 148.465 153.532 148.465 152.772C148.465 152.012 148.313 151.416 148.009 150.984C147.705 150.552 147.225 150.336 146.569 150.336C145.913 150.336 145.437 150.552 145.141 150.984C144.845 151.416 144.697 152.012 144.697 152.772ZM154.231 149.448C154.351 149.448 154.479 149.456 154.615 149.472C154.751 149.48 154.875 149.496 154.987 149.52L154.855 150.492C154.751 150.468 154.635 150.448 154.507 150.432C154.379 150.416 154.263 150.408 154.159 150.408C153.831 150.408 153.523 150.5 153.235 150.684C152.947 150.86 152.715 151.112 152.539 151.44C152.371 151.76 152.287 152.136 152.287 152.568V156H151.231V149.568H152.095L152.215 150.744H152.263C152.463 150.392 152.727 150.088 153.055 149.832C153.391 149.576 153.783 149.448 154.231 149.448ZM163.244 149.448C163.972 149.448 164.516 149.636 164.876 150.012C165.236 150.388 165.416 150.988 165.416 151.812V156H164.372V151.86C164.372 150.844 163.936 150.336 163.064 150.336C162.44 150.336 161.992 150.516 161.72 150.876C161.456 151.236 161.324 151.76 161.324 152.448V156H160.28V151.86C160.28 150.844 159.84 150.336 158.96 150.336C158.312 150.336 157.864 150.536 157.616 150.936C157.368 151.336 157.244 151.912 157.244 152.664V156H156.188V149.568H157.04L157.196 150.444H157.256C157.456 150.108 157.724 149.86 158.06 149.7C158.404 149.532 158.768 149.448 159.152 149.448C160.16 149.448 160.816 149.808 161.12 150.528H161.18C161.396 150.16 161.688 149.888 162.056 149.712C162.424 149.536 162.82 149.448 163.244 149.448ZM58.116 165.448C58.884 165.448 59.464 165.636 59.856 166.012C60.248 166.388 60.444 166.988 60.444 167.812V172H59.4V167.884C59.4 166.852 58.92 166.336 57.96 166.336C57.248 166.336 56.756 166.536 56.484 166.936C56.212 167.336 56.076 167.912 56.076 168.664V172H55.02V165.568H55.872L56.028 166.444H56.088C56.296 166.108 56.584 165.86 56.952 165.7C57.32 165.532 57.708 165.448 58.116 165.448ZM64.922 165.448C65.466 165.448 65.938 165.568 66.338 165.808C66.738 166.048 67.042 166.388 67.25 166.828C67.466 167.26 67.574 167.768 67.574 168.352V168.988H63.17C63.186 169.716 63.37 170.272 63.722 170.656C64.082 171.032 64.582 171.22 65.222 171.22C65.63 171.22 65.99 171.184 66.302 171.112C66.622 171.032 66.95 170.92 67.286 170.776V171.7C66.958 171.844 66.634 171.948 66.314 172.012C65.994 172.084 65.614 172.12 65.174 172.12C64.558 172.12 64.018 171.996 63.554 171.748C63.09 171.5 62.726 171.132 62.462 170.644C62.206 170.156 62.078 169.552 62.078 168.832C62.078 168.128 62.194 167.524 62.426 167.02C62.666 166.516 62.998 166.128 63.422 165.856C63.854 165.584 64.354 165.448 64.922 165.448ZM64.91 166.312C64.406 166.312 64.006 166.476 63.71 166.804C63.422 167.124 63.25 167.572 63.194 168.148H66.47C66.462 167.604 66.334 167.164 66.086 166.828C65.838 166.484 65.446 166.312 64.91 166.312ZM71.6954 165.448C72.2394 165.448 72.7114 165.568 73.1114 165.808C73.5114 166.048 73.8154 166.388 74.0234 166.828C74.2394 167.26 74.3474 167.768 74.3474 168.352V168.988H69.9434C69.9594 169.716 70.1434 170.272 70.4954 170.656C70.8554 171.032 71.3554 171.22 71.9954 171.22C72.4034 171.22 72.7634 171.184 73.0754 171.112C73.3954 171.032 73.7234 170.92 74.0594 170.776V171.7C73.7314 171.844 73.4074 171.948 73.0874 172.012C72.7674 172.084 72.3874 172.12 71.9474 172.12C71.3314 172.12 70.7914 171.996 70.3274 171.748C69.8634 171.5 69.4994 171.132 69.2354 170.644C68.9794 170.156 68.8514 169.552 68.8514 168.832C68.8514 168.128 68.9674 167.524 69.1994 167.02C69.4394 166.516 69.7714 166.128 70.1954 165.856C70.6274 165.584 71.1274 165.448 71.6954 165.448ZM71.6834 166.312C71.1794 166.312 70.7794 166.476 70.4834 166.804C70.1954 167.124 70.0234 167.572 69.9674 168.148H73.2434C73.2354 167.604 73.1074 167.164 72.8594 166.828C72.6114 166.484 72.2194 166.312 71.6834 166.312ZM78.2648 172.12C77.4648 172.12 76.8248 171.844 76.3448 171.292C75.8648 170.732 75.6248 169.9 75.6248 168.796C75.6248 167.692 75.8648 166.86 76.3448 166.3C76.8328 165.732 77.4768 165.448 78.2768 165.448C78.7728 165.448 79.1768 165.54 79.4888 165.724C79.8088 165.908 80.0688 166.132 80.2688 166.396H80.3408C80.3248 166.292 80.3088 166.14 80.2928 165.94C80.2768 165.732 80.2688 165.568 80.2688 165.448V162.88H81.3248V172H80.4728L80.3168 171.136H80.2688C80.0768 171.408 79.8208 171.64 79.5008 171.832C79.1808 172.024 78.7688 172.12 78.2648 172.12ZM78.4328 171.244C79.1128 171.244 79.5888 171.06 79.8608 170.692C80.1408 170.316 80.2808 169.752 80.2808 169V168.808C80.2808 168.008 80.1488 167.396 79.8848 166.972C79.6208 166.54 79.1328 166.324 78.4208 166.324C77.8528 166.324 77.4248 166.552 77.1368 167.008C76.8568 167.456 76.7168 168.06 76.7168 168.82C76.7168 169.588 76.8568 170.184 77.1368 170.608C77.4248 171.032 77.8568 171.244 78.4328 171.244ZM87.5557 170.224C87.5557 170.848 87.3237 171.32 86.8597 171.64C86.3957 171.96 85.7717 172.12 84.9877 172.12C84.5397 172.12 84.1517 172.084 83.8237 172.012C83.5037 171.94 83.2197 171.84 82.9717 171.712V170.752C83.2277 170.88 83.5357 171 83.8957 171.112C84.2637 171.216 84.6357 171.268 85.0117 171.268C85.5477 171.268 85.9357 171.184 86.1757 171.016C86.4157 170.84 86.5357 170.608 86.5357 170.32C86.5357 170.16 86.4917 170.016 86.4037 169.888C86.3157 169.76 86.1557 169.632 85.9237 169.504C85.6997 169.376 85.3757 169.232 84.9517 169.072C84.5357 168.912 84.1797 168.752 83.8837 168.592C83.5877 168.432 83.3597 168.24 83.1997 168.016C83.0397 167.792 82.9597 167.504 82.9597 167.152C82.9597 166.608 83.1797 166.188 83.6197 165.892C84.0677 165.596 84.6517 165.448 85.3717 165.448C85.7637 165.448 86.1277 165.488 86.4637 165.568C86.8077 165.648 87.1277 165.752 87.4237 165.88L87.0637 166.72C86.7917 166.608 86.5077 166.512 86.2117 166.432C85.9157 166.352 85.6117 166.312 85.2997 166.312C84.8677 166.312 84.5357 166.384 84.3037 166.528C84.0797 166.664 83.9677 166.852 83.9677 167.092C83.9677 167.276 84.0197 167.428 84.1237 167.548C84.2277 167.668 84.3997 167.788 84.6397 167.908C84.8877 168.028 85.2157 168.164 85.6237 168.316C86.0317 168.468 86.3797 168.624 86.6677 168.784C86.9557 168.944 87.1757 169.14 87.3277 169.372C87.4797 169.596 87.5557 169.88 87.5557 170.224ZM94.375 171.256C94.535 171.256 94.699 171.244 94.867 171.22C95.035 171.196 95.171 171.164 95.275 171.124V171.928C95.163 171.984 95.003 172.028 94.795 172.06C94.587 172.1 94.387 172.12 94.195 172.12C93.859 172.12 93.547 172.064 93.259 171.952C92.979 171.832 92.751 171.628 92.575 171.34C92.399 171.052 92.311 170.648 92.311 170.128V166.384H91.399V165.88L92.323 165.46L92.743 164.092H93.367V165.568H95.227V166.384H93.367V170.104C93.367 170.496 93.459 170.788 93.643 170.98C93.835 171.164 94.079 171.256 94.375 171.256ZM102.155 168.772C102.155 169.836 101.883 170.66 101.339 171.244C100.803 171.828 100.075 172.12 99.155 172.12C98.587 172.12 98.079 171.992 97.631 171.736C97.191 171.472 96.843 171.092 96.587 170.596C96.331 170.092 96.203 169.484 96.203 168.772C96.203 167.708 96.467 166.888 96.995 166.312C97.531 165.736 98.263 165.448 99.191 165.448C99.767 165.448 100.279 165.58 100.727 165.844C101.175 166.1 101.523 166.476 101.771 166.972C102.027 167.46 102.155 168.06 102.155 168.772ZM97.295 168.772C97.295 169.532 97.443 170.136 97.739 170.584C98.043 171.024 98.523 171.244 99.179 171.244C99.827 171.244 100.303 171.024 100.607 170.584C100.911 170.136 101.063 169.532 101.063 168.772C101.063 168.012 100.911 167.416 100.607 166.984C100.303 166.552 99.823 166.336 99.167 166.336C98.511 166.336 98.035 166.552 97.739 166.984C97.443 167.416 97.295 168.012 97.295 168.772ZM108.002 162.88V165.1C108.002 165.372 107.994 165.628 107.978 165.868C107.97 166.1 107.958 166.284 107.942 166.42H108.002C108.186 166.148 108.438 165.92 108.758 165.736C109.078 165.552 109.49 165.46 109.994 165.46C110.794 165.46 111.434 165.74 111.914 166.3C112.402 166.852 112.646 167.68 112.646 168.784C112.646 169.888 112.402 170.72 111.914 171.28C111.426 171.84 110.786 172.12 109.994 172.12C109.49 172.12 109.078 172.028 108.758 171.844C108.438 171.66 108.186 171.44 108.002 171.184H107.918L107.702 172H106.946V162.88H108.002ZM109.814 166.336C109.126 166.336 108.65 166.532 108.386 166.924C108.13 167.316 108.002 167.924 108.002 168.748V168.796C108.002 169.588 108.13 170.196 108.386 170.62C108.65 171.036 109.134 171.244 109.838 171.244C110.414 171.244 110.842 171.032 111.122 170.608C111.41 170.184 111.554 169.572 111.554 168.772C111.554 167.148 110.974 166.336 109.814 166.336ZM116.813 165.448C117.357 165.448 117.829 165.568 118.229 165.808C118.629 166.048 118.933 166.388 119.141 166.828C119.357 167.26 119.465 167.768 119.465 168.352V168.988H115.061C115.077 169.716 115.261 170.272 115.613 170.656C115.973 171.032 116.473 171.22 117.113 171.22C117.521 171.22 117.881 171.184 118.193 171.112C118.513 171.032 118.841 170.92 119.177 170.776V171.7C118.849 171.844 118.525 171.948 118.205 172.012C117.885 172.084 117.505 172.12 117.065 172.12C116.449 172.12 115.909 171.996 115.445 171.748C114.981 171.5 114.617 171.132 114.353 170.644C114.097 170.156 113.969 169.552 113.969 168.832C113.969 168.128 114.085 167.524 114.317 167.02C114.557 166.516 114.889 166.128 115.313 165.856C115.745 165.584 116.245 165.448 116.813 165.448ZM116.801 166.312C116.297 166.312 115.897 166.476 115.601 166.804C115.313 167.124 115.141 167.572 115.085 168.148H118.361C118.353 167.604 118.225 167.164 117.977 166.828C117.729 166.484 117.337 166.312 116.801 166.312ZM126.799 172.12C126.223 172.12 125.715 172.004 125.275 171.772C124.835 171.54 124.487 171.18 124.231 170.692C123.983 170.204 123.859 169.58 123.859 168.82C123.859 168.028 123.987 167.384 124.243 166.888C124.507 166.392 124.867 166.028 125.323 165.796C125.779 165.564 126.295 165.448 126.871 165.448C127.191 165.448 127.503 165.484 127.807 165.556C128.119 165.62 128.371 165.7 128.563 165.796L128.239 166.672C128.047 166.6 127.823 166.532 127.567 166.468C127.311 166.404 127.071 166.372 126.847 166.372C125.583 166.372 124.951 167.184 124.951 168.808C124.951 169.584 125.103 170.18 125.407 170.596C125.719 171.004 126.179 171.208 126.787 171.208C127.131 171.208 127.439 171.172 127.711 171.1C127.983 171.028 128.231 170.94 128.455 170.836V171.772C128.239 171.884 127.999 171.968 127.735 172.024C127.479 172.088 127.167 172.12 126.799 172.12ZM135.577 168.772C135.577 169.836 135.305 170.66 134.761 171.244C134.225 171.828 133.497 172.12 132.577 172.12C132.009 172.12 131.501 171.992 131.053 171.736C130.613 171.472 130.265 171.092 130.009 170.596C129.753 170.092 129.625 169.484 129.625 168.772C129.625 167.708 129.889 166.888 130.417 166.312C130.953 165.736 131.685 165.448 132.613 165.448C133.189 165.448 133.701 165.58 134.149 165.844C134.597 166.1 134.945 166.476 135.193 166.972C135.449 167.46 135.577 168.06 135.577 168.772ZM130.717 168.772C130.717 169.532 130.865 170.136 131.161 170.584C131.465 171.024 131.945 171.244 132.601 171.244C133.249 171.244 133.725 171.024 134.029 170.584C134.333 170.136 134.485 169.532 134.485 168.772C134.485 168.012 134.333 167.416 134.029 166.984C133.725 166.552 133.245 166.336 132.589 166.336C131.933 166.336 131.457 166.552 131.161 166.984C130.865 167.416 130.717 168.012 130.717 168.772ZM144.306 165.448C145.034 165.448 145.578 165.636 145.938 166.012C146.298 166.388 146.478 166.988 146.478 167.812V172H145.434V167.86C145.434 166.844 144.998 166.336 144.126 166.336C143.502 166.336 143.054 166.516 142.782 166.876C142.518 167.236 142.386 167.76 142.386 168.448V172H141.342V167.86C141.342 166.844 140.902 166.336 140.022 166.336C139.374 166.336 138.926 166.536 138.678 166.936C138.43 167.336 138.306 167.912 138.306 168.664V172H137.25V165.568H138.102L138.258 166.444H138.318C138.518 166.108 138.786 165.86 139.122 165.7C139.466 165.532 139.83 165.448 140.214 165.448C141.222 165.448 141.878 165.808 142.182 166.528H142.242C142.458 166.16 142.75 165.888 143.118 165.712C143.486 165.536 143.882 165.448 144.306 165.448ZM151.525 165.448C152.317 165.448 152.953 165.724 153.433 166.276C153.921 166.828 154.165 167.66 154.165 168.772C154.165 169.868 153.921 170.7 153.433 171.268C152.953 171.836 152.313 172.12 151.513 172.12C151.017 172.12 150.605 172.028 150.277 171.844C149.957 171.66 149.705 171.44 149.521 171.184H149.449C149.457 171.32 149.469 171.492 149.485 171.7C149.509 171.908 149.521 172.088 149.521 172.24V174.88H148.465V165.568H149.329L149.473 166.444H149.521C149.713 166.164 149.965 165.928 150.277 165.736C150.589 165.544 151.005 165.448 151.525 165.448ZM151.333 166.336C150.677 166.336 150.213 166.52 149.941 166.888C149.669 167.256 149.529 167.816 149.521 168.568V168.772C149.521 169.564 149.649 170.176 149.905 170.608C150.169 171.032 150.653 171.244 151.357 171.244C151.741 171.244 152.061 171.14 152.317 170.932C152.573 170.716 152.761 170.42 152.881 170.044C153.009 169.668 153.073 169.24 153.073 168.76C153.073 168.024 152.929 167.436 152.641 166.996C152.361 166.556 151.925 166.336 151.333 166.336ZM156.904 172H155.848V162.88H156.904V172ZM161.426 165.448C161.97 165.448 162.442 165.568 162.842 165.808C163.242 166.048 163.546 166.388 163.754 166.828C163.97 167.26 164.078 167.768 164.078 168.352V168.988H159.674C159.69 169.716 159.874 170.272 160.226 170.656C160.586 171.032 161.086 171.22 161.726 171.22C162.134 171.22 162.494 171.184 162.806 171.112C163.126 171.032 163.454 170.92 163.79 170.776V171.7C163.462 171.844 163.138 171.948 162.818 172.012C162.498 172.084 162.118 172.12 161.678 172.12C161.062 172.12 160.522 171.996 160.058 171.748C159.594 171.5 159.23 171.132 158.966 170.644C158.71 170.156 158.582 169.552 158.582 168.832C158.582 168.128 158.698 167.524 158.93 167.02C159.17 166.516 159.502 166.128 159.926 165.856C160.358 165.584 160.858 165.448 161.426 165.448ZM161.414 166.312C160.91 166.312 160.51 166.476 160.214 166.804C159.926 167.124 159.754 167.572 159.698 168.148H162.974C162.966 167.604 162.838 167.164 162.59 166.828C162.342 166.484 161.95 166.312 161.414 166.312ZM167.863 171.256C168.023 171.256 168.187 171.244 168.355 171.22C168.523 171.196 168.659 171.164 168.763 171.124V171.928C168.651 171.984 168.491 172.028 168.283 172.06C168.075 172.1 167.875 172.12 167.683 172.12C167.347 172.12 167.035 172.064 166.747 171.952C166.467 171.832 166.239 171.628 166.063 171.34C165.887 171.052 165.799 170.648 165.799 170.128V166.384H164.887V165.88L165.811 165.46L166.231 164.092H166.855V165.568H168.715V166.384H166.855V170.104C166.855 170.496 166.947 170.788 167.131 170.98C167.323 171.164 167.567 171.256 167.863 171.256ZM172.535 165.448C173.079 165.448 173.551 165.568 173.951 165.808C174.351 166.048 174.655 166.388 174.863 166.828C175.079 167.26 175.187 167.768 175.187 168.352V168.988H170.783C170.799 169.716 170.983 170.272 171.335 170.656C171.695 171.032 172.195 171.22 172.835 171.22C173.243 171.22 173.603 171.184 173.915 171.112C174.235 171.032 174.563 170.92 174.899 170.776V171.7C174.571 171.844 174.247 171.948 173.927 172.012C173.607 172.084 173.227 172.12 172.787 172.12C172.171 172.12 171.631 171.996 171.167 171.748C170.703 171.5 170.339 171.132 170.075 170.644C169.819 170.156 169.691 169.552 169.691 168.832C169.691 168.128 169.807 167.524 170.039 167.02C170.279 166.516 170.611 166.128 171.035 165.856C171.467 165.584 171.967 165.448 172.535 165.448ZM172.523 166.312C172.019 166.312 171.619 166.476 171.323 166.804C171.035 167.124 170.863 167.572 170.807 168.148H174.083C174.075 167.604 173.947 167.164 173.699 166.828C173.451 166.484 173.059 166.312 172.523 166.312ZM179.105 172.12C178.305 172.12 177.665 171.844 177.185 171.292C176.705 170.732 176.465 169.9 176.465 168.796C176.465 167.692 176.705 166.86 177.185 166.3C177.673 165.732 178.317 165.448 179.117 165.448C179.613 165.448 180.017 165.54 180.329 165.724C180.649 165.908 180.909 166.132 181.109 166.396H181.181C181.165 166.292 181.149 166.14 181.133 165.94C181.117 165.732 181.109 165.568 181.109 165.448V162.88H182.165V172H181.313L181.157 171.136H181.109C180.917 171.408 180.661 171.64 180.341 171.832C180.021 172.024 179.609 172.12 179.105 172.12ZM179.273 171.244C179.953 171.244 180.429 171.06 180.701 170.692C180.981 170.316 181.121 169.752 181.121 169V168.808C181.121 168.008 180.989 167.396 180.725 166.972C180.461 166.54 179.973 166.324 179.261 166.324C178.693 166.324 178.265 166.552 177.977 167.008C177.697 167.456 177.557 168.06 177.557 168.82C177.557 169.588 177.697 170.184 177.977 170.608C178.265 171.032 178.697 171.244 179.273 171.244Z" fill="white"/>
<defs>
<filter id="filter0_d_8702_368491" x="131.5" y="100" width="21.8535" height="25" filterUnits="userSpaceOnUse" color-interpolation-filters="sRGB">
<feFlood flood-opacity="0" result="BackgroundImageFix"/>
<feColorMatrix in="SourceAlpha" type="matrix" values="0 0 0 0 0 0 0 0 0 0 0 0 0 0 0 0 0 0 127 0" result="hardAlpha"/>
<feOffset dy="1"/>
<feGaussianBlur stdDeviation="1.5"/>
<feColorMatrix type="matrix" values="0 0 0 0 0 0 0 0 0 0 0 0 0 0 0 0 0 0 0.2 0"/>
<feBlend mode="normal" in2="BackgroundImageFix" result="effect1_dropShadow_8702_368491"/>
<feBlend mode="normal" in="SourceGraphic" in2="effect1_dropShadow_8702_368491" result="shape"/>
</filter>
</defs>
</svg>
