<svg width="412" height="200" viewBox="0 0 412 200" fill="none" xmlns="http://www.w3.org/2000/svg">
<rect width="412" height="200" fill="white"/>
<rect x="125.5" y="82.5" width="75" height="35" rx="1.5" fill="white"/>
<path d="M146.642 95.97C145.569 95.97 144.724 96.3293 144.108 97.048C143.492 97.7667 143.184 98.7513 143.184 100.002C143.184 101.243 143.469 102.228 144.038 102.956C144.617 103.675 145.48 104.034 146.628 104.034C147.057 104.034 147.468 103.997 147.86 103.922C148.252 103.847 148.639 103.754 149.022 103.642V104.734C148.649 104.874 148.261 104.977 147.86 105.042C147.468 105.107 146.997 105.14 146.446 105.14C145.429 105.14 144.579 104.93 143.898 104.51C143.217 104.09 142.703 103.493 142.358 102.718C142.022 101.943 141.854 101.033 141.854 99.988C141.854 98.98 142.036 98.0933 142.4 97.328C142.773 96.5533 143.319 95.9513 144.038 95.522C144.757 95.0833 145.629 94.864 146.656 94.864C147.711 94.864 148.63 95.06 149.414 95.452L148.91 96.516C148.602 96.376 148.257 96.25 147.874 96.138C147.501 96.026 147.09 95.97 146.642 95.97ZM153.878 97.37C154.792 97.37 155.469 97.5707 155.908 97.972C156.346 98.3733 156.566 99.0127 156.566 99.89V105H155.67L155.432 103.936H155.376C155.049 104.347 154.704 104.65 154.34 104.846C153.976 105.042 153.481 105.14 152.856 105.14C152.174 105.14 151.61 104.963 151.162 104.608C150.714 104.244 150.49 103.679 150.49 102.914C150.49 102.167 150.784 101.593 151.372 101.192C151.96 100.781 152.865 100.557 154.088 100.52L155.362 100.478V100.03C155.362 99.4047 155.226 98.9707 154.956 98.728C154.685 98.4853 154.302 98.364 153.808 98.364C153.416 98.364 153.042 98.4247 152.688 98.546C152.333 98.658 152.002 98.7887 151.694 98.938L151.316 98.014C151.642 97.8367 152.03 97.6873 152.478 97.566C152.926 97.4353 153.392 97.37 153.878 97.37ZM155.348 101.332L154.242 101.374C153.308 101.411 152.66 101.561 152.296 101.822C151.941 102.083 151.764 102.452 151.764 102.928C151.764 103.348 151.89 103.656 152.142 103.852C152.403 104.048 152.734 104.146 153.136 104.146C153.761 104.146 154.284 103.973 154.704 103.628C155.133 103.273 155.348 102.732 155.348 102.004V101.332ZM162.495 97.356C163.391 97.356 164.068 97.5753 164.525 98.014C164.983 98.4527 165.211 99.1527 165.211 100.114V105H163.993V100.198C163.993 98.994 163.433 98.392 162.313 98.392C161.483 98.392 160.909 98.6253 160.591 99.092C160.274 99.5587 160.115 100.231 160.115 101.108V105H158.883V97.496H159.877L160.059 98.518H160.129C160.372 98.126 160.708 97.8367 161.137 97.65C161.567 97.454 162.019 97.356 162.495 97.356ZM170.548 105.14C169.876 105.14 169.283 105.005 168.77 104.734C168.256 104.463 167.85 104.043 167.552 103.474C167.262 102.905 167.118 102.177 167.118 101.29C167.118 100.366 167.267 99.6147 167.566 99.036C167.874 98.4573 168.294 98.0327 168.826 97.762C169.358 97.4913 169.96 97.356 170.632 97.356C171.005 97.356 171.369 97.398 171.724 97.482C172.088 97.5567 172.382 97.65 172.606 97.762L172.228 98.784C172.004 98.7 171.742 98.6207 171.444 98.546C171.145 98.4713 170.865 98.434 170.604 98.434C169.129 98.434 168.392 99.3813 168.392 101.276C168.392 102.181 168.569 102.877 168.924 103.362C169.288 103.838 169.824 104.076 170.534 104.076C170.935 104.076 171.294 104.034 171.612 103.95C171.929 103.866 172.218 103.763 172.48 103.642V104.734C172.228 104.865 171.948 104.963 171.64 105.028C171.341 105.103 170.977 105.14 170.548 105.14ZM177.162 97.356C177.797 97.356 178.348 97.496 178.814 97.776C179.281 98.056 179.636 98.4527 179.878 98.966C180.13 99.47 180.256 100.063 180.256 100.744V101.486H175.118C175.137 102.335 175.352 102.984 175.762 103.432C176.182 103.871 176.766 104.09 177.512 104.09C177.988 104.09 178.408 104.048 178.772 103.964C179.146 103.871 179.528 103.74 179.92 103.572V104.65C179.538 104.818 179.16 104.939 178.786 105.014C178.413 105.098 177.97 105.14 177.456 105.14C176.738 105.14 176.108 104.995 175.566 104.706C175.025 104.417 174.6 103.987 174.292 103.418C173.994 102.849 173.844 102.144 173.844 101.304C173.844 100.483 173.98 99.778 174.25 99.19C174.53 98.602 174.918 98.1493 175.412 97.832C175.916 97.5147 176.5 97.356 177.162 97.356ZM177.148 98.364C176.56 98.364 176.094 98.5553 175.748 98.938C175.412 99.3113 175.212 99.834 175.146 100.506H178.968C178.959 99.8713 178.81 99.358 178.52 98.966C178.231 98.5647 177.774 98.364 177.148 98.364ZM183.399 105H182.167V94.36H183.399V105Z" fill="#1B77AF"/>
<rect x="125.5" y="82.5" width="75" height="35" rx="1.5" stroke="#1B77AF"/>
<rect x="209" y="82" width="78" height="36" rx="2" fill="#1B77AF"/>
<path d="M232.028 102.326C232.028 103.213 231.706 103.903 231.062 104.398C230.418 104.893 229.55 105.14 228.458 105.14C227.898 105.14 227.38 105.098 226.904 105.014C226.428 104.93 226.031 104.813 225.714 104.664V103.46C226.05 103.609 226.465 103.745 226.96 103.866C227.464 103.987 227.982 104.048 228.514 104.048C229.251 104.048 229.811 103.903 230.194 103.614C230.577 103.325 230.768 102.933 230.768 102.438C230.768 102.111 230.698 101.836 230.558 101.612C230.418 101.388 230.175 101.183 229.83 100.996C229.485 100.809 229.013 100.604 228.416 100.38C227.557 100.072 226.913 99.694 226.484 99.246C226.055 98.798 225.84 98.1867 225.84 97.412C225.84 96.8893 225.975 96.4367 226.246 96.054C226.517 95.6713 226.89 95.3773 227.366 95.172C227.842 94.9667 228.397 94.864 229.032 94.864C229.573 94.864 230.073 94.9153 230.53 95.018C230.987 95.1207 231.407 95.256 231.79 95.424L231.398 96.502C231.053 96.3527 230.675 96.2267 230.264 96.124C229.853 96.0213 229.433 95.97 229.004 95.97C228.379 95.97 227.907 96.1053 227.59 96.376C227.273 96.6373 227.114 96.9873 227.114 97.426C227.114 97.762 227.184 98.042 227.324 98.266C227.464 98.49 227.693 98.6953 228.01 98.882C228.327 99.0593 228.757 99.246 229.298 99.442C229.886 99.6567 230.381 99.89 230.782 100.142C231.193 100.385 231.501 100.679 231.706 101.024C231.921 101.369 232.028 101.803 232.028 102.326ZM234.504 94.682C234.69 94.682 234.854 94.7473 234.994 94.878C235.143 94.9993 235.218 95.1953 235.218 95.466C235.218 95.7367 235.143 95.9373 234.994 96.068C234.854 96.1893 234.69 96.25 234.504 96.25C234.298 96.25 234.126 96.1893 233.986 96.068C233.846 95.9373 233.776 95.7367 233.776 95.466C233.776 95.1953 233.846 94.9993 233.986 94.878C234.126 94.7473 234.298 94.682 234.504 94.682ZM235.106 97.496V105H233.874V97.496H235.106ZM240.143 97.356C240.638 97.356 241.081 97.4493 241.473 97.636C241.874 97.8227 242.215 98.1073 242.495 98.49H242.565L242.733 97.496H243.713V105.126C243.713 106.199 243.438 107.007 242.887 107.548C242.346 108.089 241.501 108.36 240.353 108.36C239.252 108.36 238.351 108.201 237.651 107.884V106.75C238.388 107.142 239.312 107.338 240.423 107.338C241.067 107.338 241.571 107.147 241.935 106.764C242.308 106.391 242.495 105.877 242.495 105.224V104.93C242.495 104.818 242.5 104.659 242.509 104.454C242.518 104.239 242.528 104.09 242.537 104.006H242.481C241.977 104.762 241.202 105.14 240.157 105.14C239.186 105.14 238.426 104.799 237.875 104.118C237.334 103.437 237.063 102.485 237.063 101.262C237.063 100.067 237.334 99.12 237.875 98.42C238.426 97.7107 239.182 97.356 240.143 97.356ZM240.311 98.392C239.686 98.392 239.2 98.644 238.855 99.148C238.51 99.6427 238.337 100.352 238.337 101.276C238.337 102.2 238.505 102.909 238.841 103.404C239.177 103.889 239.676 104.132 240.339 104.132C241.095 104.132 241.646 103.931 241.991 103.53C242.336 103.119 242.509 102.461 242.509 101.556V101.262C242.509 100.245 242.332 99.512 241.977 99.064C241.622 98.616 241.067 98.392 240.311 98.392ZM249.708 97.356C250.604 97.356 251.281 97.5753 251.738 98.014C252.196 98.4527 252.424 99.1527 252.424 100.114V105H251.206V100.198C251.206 98.994 250.646 98.392 249.526 98.392C248.696 98.392 248.122 98.6253 247.804 99.092C247.487 99.5587 247.328 100.231 247.328 101.108V105H246.096V97.496H247.09L247.272 98.518H247.342C247.585 98.126 247.921 97.8367 248.35 97.65C248.78 97.454 249.232 97.356 249.708 97.356ZM261.369 105H257.757V104.272L258.933 104.006V96.012L257.757 95.732V95.004H261.369V95.732L260.193 96.012V104.006L261.369 104.272V105ZM266.743 97.356C267.639 97.356 268.316 97.5753 268.773 98.014C269.231 98.4527 269.459 99.1527 269.459 100.114V105H268.241V100.198C268.241 98.994 267.681 98.392 266.561 98.392C265.731 98.392 265.157 98.6253 264.839 99.092C264.522 99.5587 264.363 100.231 264.363 101.108V105H263.131V97.496H264.125L264.307 98.518H264.377C264.62 98.126 264.956 97.8367 265.385 97.65C265.815 97.454 266.267 97.356 266.743 97.356Z" fill="white"/>
</svg>
