<svg width="190" height="36" viewBox="0 0 190 36" fill="none" xmlns="http://www.w3.org/2000/svg">
<g clip-path="url(#clip0_8082_263313)">
<rect width="190" height="36" fill="white"/>
<rect x="72.5" y="0.5" width="102" height="35" rx="1.5" fill="white"/>
<path d="M101.05 17.6H96.35V12.9C96.35 12.7 96.2 12.5 95.95 12.5C95.7 12.5 95.55 12.65 95.55 12.9V17.6H90.9C90.7 17.6 90.5 17.75 90.5 18C90.5 18.25 90.65 18.4 90.9 18.4H95.6V23.1C95.6 23.3 95.75 23.5 96 23.5C96.25 23.5 96.4 23.35 96.4 23.1V18.4H101.1C101.3 18.4 101.5 18.25 101.5 18C101.5 17.75 101.25 17.6 101.05 17.6Z" fill="#1B77AF"/>
<path d="M116.2 13.004C117.068 13.004 117.782 13.088 118.342 13.256C118.902 13.4147 119.317 13.6807 119.588 14.054C119.859 14.418 119.994 14.9127 119.994 15.538C119.994 15.9113 119.929 16.252 119.798 16.56C119.667 16.868 119.49 17.12 119.266 17.316C119.051 17.512 118.809 17.638 118.538 17.694V17.764C118.818 17.8293 119.084 17.946 119.336 18.114C119.597 18.282 119.807 18.5247 119.966 18.842C120.125 19.1593 120.204 19.5793 120.204 20.102C120.204 20.7087 120.059 21.2313 119.77 21.67C119.49 22.0993 119.089 22.4307 118.566 22.664C118.043 22.888 117.418 23 116.69 23H113.106V13.004H116.2ZM116.326 16.966C116.83 16.966 117.18 16.868 117.376 16.672C117.572 16.476 117.67 16.1913 117.67 15.818C117.67 15.4353 117.553 15.16 117.32 14.992C117.096 14.824 116.741 14.74 116.256 14.74H115.374V16.966H116.326ZM115.374 18.646V21.25H116.466C116.989 21.25 117.353 21.1287 117.558 20.886C117.763 20.634 117.866 20.3027 117.866 19.892C117.866 19.64 117.819 19.4207 117.726 19.234C117.642 19.0473 117.493 18.9027 117.278 18.8C117.073 18.6973 116.783 18.646 116.41 18.646H115.374ZM128.643 15.356V23H126.949L126.655 22.02H126.529C126.38 22.2813 126.189 22.496 125.955 22.664C125.731 22.8227 125.479 22.9393 125.199 23.014C124.919 23.098 124.63 23.14 124.331 23.14C123.837 23.14 123.398 23.042 123.015 22.846C122.633 22.65 122.329 22.3467 122.105 21.936C121.891 21.5253 121.783 20.9933 121.783 20.34V15.356H124.023V19.822C124.023 20.3633 124.103 20.774 124.261 21.054C124.42 21.334 124.677 21.474 125.031 21.474C125.395 21.474 125.675 21.376 125.871 21.18C126.067 20.984 126.203 20.6993 126.277 20.326C126.361 19.9527 126.403 19.4953 126.403 18.954V15.356H128.643ZM133.838 21.474C134.062 21.474 134.267 21.4507 134.454 21.404C134.65 21.3573 134.85 21.3013 135.056 21.236V22.79C134.822 22.8833 134.547 22.9627 134.23 23.028C133.922 23.1027 133.558 23.14 133.138 23.14C132.69 23.14 132.288 23.0653 131.934 22.916C131.588 22.7667 131.318 22.51 131.122 22.146C130.926 21.7727 130.828 21.2593 130.828 20.606V16.924H129.918V16.042L131.01 15.342L131.626 13.732H133.068V15.356H134.972V16.924H133.068V20.606C133.068 20.8953 133.138 21.1147 133.278 21.264C133.418 21.404 133.604 21.474 133.838 21.474ZM139.717 21.474C139.941 21.474 140.146 21.4507 140.333 21.404C140.529 21.3573 140.729 21.3013 140.935 21.236V22.79C140.701 22.8833 140.426 22.9627 140.109 23.028C139.801 23.1027 139.437 23.14 139.017 23.14C138.569 23.14 138.167 23.0653 137.813 22.916C137.467 22.7667 137.197 22.51 137.001 22.146C136.805 21.7727 136.707 21.2593 136.707 20.606V16.924H135.797V16.042L136.889 15.342L137.505 13.732H138.947V15.356H140.851V16.924H138.947V20.606C138.947 20.8953 139.017 21.1147 139.157 21.264C139.297 21.404 139.483 21.474 139.717 21.474ZM149.04 19.164C149.04 19.7987 148.956 20.3633 148.788 20.858C148.629 21.3527 148.396 21.7727 148.088 22.118C147.78 22.454 147.402 22.7107 146.954 22.888C146.515 23.056 146.02 23.14 145.47 23.14C144.956 23.14 144.48 23.056 144.042 22.888C143.603 22.7107 143.225 22.454 142.908 22.118C142.6 21.7727 142.357 21.3527 142.18 20.858C142.012 20.3633 141.928 19.7987 141.928 19.164C141.928 18.3147 142.072 17.6007 142.362 17.022C142.651 16.434 143.062 15.986 143.594 15.678C144.126 15.37 144.765 15.216 145.512 15.216C146.202 15.216 146.809 15.37 147.332 15.678C147.864 15.986 148.279 16.434 148.578 17.022C148.886 17.6007 149.04 18.3147 149.04 19.164ZM144.21 19.164C144.21 19.668 144.252 20.0927 144.336 20.438C144.429 20.774 144.569 21.0307 144.756 21.208C144.952 21.376 145.199 21.46 145.498 21.46C145.806 21.46 146.048 21.376 146.226 21.208C146.412 21.0307 146.548 20.774 146.632 20.438C146.716 20.0927 146.758 19.668 146.758 19.164C146.758 18.66 146.716 18.24 146.632 17.904C146.548 17.568 146.408 17.316 146.212 17.148C146.025 16.98 145.782 16.896 145.484 16.896C145.026 16.896 144.7 17.0873 144.504 17.47C144.308 17.8433 144.21 18.408 144.21 19.164ZM154.875 15.216C155.641 15.216 156.257 15.44 156.723 15.888C157.199 16.3267 157.437 17.036 157.437 18.016V23H155.197V18.534C155.197 17.9833 155.113 17.5727 154.945 17.302C154.787 17.022 154.53 16.882 154.175 16.882C153.634 16.882 153.27 17.1013 153.083 17.54C152.897 17.9693 152.803 18.59 152.803 19.402V23H150.563V15.356H152.257L152.565 16.336H152.663C152.822 16.0747 153.009 15.8647 153.223 15.706C153.447 15.538 153.699 15.4167 153.979 15.342C154.259 15.258 154.558 15.216 154.875 15.216Z" fill="#1B77AF"/>
<rect x="72.5" y="0.5" width="102" height="35" rx="1.5" stroke="#1B77AF"/>
<path d="M25.1916 15.342C25.1916 15.79 25.1076 16.1773 24.9396 16.504C24.781 16.8307 24.557 17.0967 24.2676 17.302C23.9783 17.5073 23.633 17.652 23.2316 17.736V17.792C23.9876 17.8853 24.5523 18.1373 24.9256 18.548C25.299 18.9587 25.4856 19.4953 25.4856 20.158C25.4856 20.7367 25.355 21.2547 25.0936 21.712C24.8416 22.16 24.445 22.51 23.9036 22.762C23.3716 23.014 22.6903 23.14 21.8596 23.14C21.365 23.14 20.9076 23.098 20.4876 23.014C20.0676 22.9393 19.6616 22.7993 19.2696 22.594V21.446C19.6616 21.6513 20.0863 21.8147 20.5436 21.936C21.001 22.048 21.4396 22.104 21.8596 22.104C22.6903 22.104 23.2876 21.9313 23.6516 21.586C24.0156 21.2313 24.1976 20.746 24.1976 20.13C24.1976 19.71 24.095 19.374 23.8896 19.122C23.6936 18.8607 23.3996 18.6693 23.0076 18.548C22.625 18.4267 22.1536 18.366 21.5936 18.366H20.7116V17.316H21.6076C22.1303 17.316 22.5643 17.2367 22.9096 17.078C23.255 16.9193 23.5116 16.7 23.6796 16.42C23.857 16.1307 23.9456 15.7993 23.9456 15.426C23.9456 14.9407 23.7963 14.5673 23.4976 14.306C23.199 14.0353 22.7883 13.9 22.2656 13.9C21.9296 13.9 21.6263 13.9373 21.3556 14.012C21.085 14.0773 20.833 14.1753 20.5996 14.306C20.3756 14.4273 20.1516 14.572 19.9276 14.74L19.3256 13.9C19.5496 13.7133 19.8063 13.5407 20.0956 13.382C20.3943 13.2233 20.7256 13.0973 21.0896 13.004C21.4536 12.9107 21.8456 12.864 22.2656 12.864C23.2456 12.864 23.9783 13.0973 24.4636 13.564C24.949 14.0307 25.1916 14.6233 25.1916 15.342ZM26.9012 18.73C26.9012 18.1513 26.9385 17.582 27.0132 17.022C27.0878 16.462 27.2185 15.9347 27.4052 15.44C27.5918 14.936 27.8485 14.4927 28.1752 14.11C28.5018 13.718 28.9172 13.4147 29.4212 13.2C29.9252 12.976 30.5318 12.864 31.2412 12.864C31.4278 12.864 31.6285 12.8733 31.8432 12.892C32.0672 12.9107 32.2538 12.9433 32.4032 12.99V14.04C32.2445 13.984 32.0625 13.942 31.8572 13.914C31.6612 13.886 31.4652 13.872 31.2692 13.872C30.6718 13.872 30.1725 13.9793 29.7712 14.194C29.3698 14.4087 29.0525 14.7027 28.8192 15.076C28.5858 15.4493 28.4132 15.8787 28.3012 16.364C28.1985 16.8493 28.1332 17.3673 28.1052 17.918H28.1892C28.3198 17.694 28.4832 17.4933 28.6792 17.316C28.8845 17.1387 29.1272 16.9987 29.4072 16.896C29.6965 16.7933 30.0278 16.742 30.4012 16.742C30.9518 16.742 31.4278 16.8633 31.8292 17.106C32.2398 17.3393 32.5572 17.6847 32.7812 18.142C33.0052 18.59 33.1172 19.136 33.1172 19.78C33.1172 20.4707 32.9958 21.068 32.7532 21.572C32.5105 22.076 32.1652 22.4633 31.7172 22.734C31.2692 23.0047 30.7372 23.14 30.1212 23.14C29.6732 23.14 29.2532 23.0513 28.8612 22.874C28.4692 22.6967 28.1238 22.426 27.8252 22.062C27.5358 21.698 27.3072 21.2407 27.1392 20.69C26.9805 20.13 26.9012 19.4767 26.9012 18.73ZM30.1072 22.104C30.6485 22.104 31.0825 21.9173 31.4092 21.544C31.7452 21.1613 31.9132 20.5733 31.9132 19.78C31.9132 19.1453 31.7638 18.6413 31.4652 18.268C31.1758 17.8947 30.7325 17.708 30.1352 17.708C29.7338 17.708 29.3838 17.8013 29.0852 17.988C28.7865 18.1653 28.5532 18.394 28.3852 18.674C28.2172 18.954 28.1332 19.2433 28.1332 19.542C28.1332 19.85 28.1752 20.1533 28.2592 20.452C28.3432 20.7507 28.4645 21.026 28.6232 21.278C28.7912 21.53 28.9965 21.7307 29.2392 21.88C29.4912 22.0293 29.7805 22.104 30.1072 22.104ZM41.6467 15.356C42.5147 15.356 43.21 15.678 43.7327 16.322C44.2647 16.966 44.5307 17.9367 44.5307 19.234C44.5307 20.0833 44.4093 20.802 44.1667 21.39C43.924 21.9687 43.5833 22.4073 43.1447 22.706C42.7153 22.9953 42.2113 23.14 41.6327 23.14C41.2687 23.14 40.9467 23.0887 40.6667 22.986C40.396 22.8833 40.1627 22.7527 39.9667 22.594C39.7707 22.426 39.6027 22.244 39.4627 22.048H39.3787C39.3973 22.2067 39.416 22.4073 39.4347 22.65C39.4533 22.8927 39.4627 23.1027 39.4627 23.28V26.36H38.2447V15.496H39.2387L39.4067 16.518H39.4627C39.6027 16.3033 39.7707 16.1073 39.9667 15.93C40.1627 15.7527 40.396 15.6127 40.6667 15.51C40.9467 15.4073 41.2733 15.356 41.6467 15.356ZM41.4087 16.392C40.942 16.392 40.564 16.49 40.2747 16.686C39.9947 16.8727 39.7893 17.1573 39.6587 17.54C39.528 17.9227 39.4627 18.408 39.4627 18.996V19.234C39.4627 19.85 39.5187 20.3727 39.6307 20.802C39.752 21.2313 39.9573 21.558 40.2467 21.782C40.536 22.006 40.9327 22.118 41.4367 22.118C41.8567 22.118 42.202 21.992 42.4727 21.74C42.7433 21.488 42.944 21.1473 43.0747 20.718C43.2053 20.2793 43.2707 19.78 43.2707 19.22C43.2707 18.3613 43.1167 17.6753 42.8087 17.162C42.51 16.6487 42.0433 16.392 41.4087 16.392ZM47.7583 19.164L45.3223 15.496H46.7083L48.5003 18.324L50.2643 15.496H51.6503L49.2143 19.164L51.7763 23H50.3903L48.5003 20.004L46.5823 23H45.2103L47.7583 19.164Z" fill="#D51588"/>
<path d="M64 0H56" stroke="#D51588"/>
<path d="M64 36H56" stroke="#D51588"/>
<path d="M60 3.57628e-07L60 36" stroke="#D51588"/>
</g>
<defs>
<clipPath id="clip0_8082_263313">
<rect width="190" height="36" fill="white"/>
</clipPath>
</defs>
</svg>
