<svg width="412" height="200" viewBox="0 0 412 200" fill="none" xmlns="http://www.w3.org/2000/svg">
<rect width="412" height="200" fill="white"/>
<rect x="160.5" y="75" width="91" height="50" fill="#E7F4FB"/>
<rect x="166.5" y="82.1428" width="78" height="36.7347" rx="2" fill="#1B77AF"/>
<path d="M189.528 102.836C189.528 103.723 189.206 104.414 188.562 104.908C187.918 105.403 187.05 105.65 185.958 105.65C185.398 105.65 184.88 105.608 184.404 105.524C183.928 105.44 183.531 105.324 183.214 105.174V103.97C183.55 104.12 183.965 104.255 184.46 104.376C184.964 104.498 185.482 104.558 186.014 104.558C186.751 104.558 187.311 104.414 187.694 104.124C188.077 103.835 188.268 103.443 188.268 102.948C188.268 102.622 188.198 102.346 188.058 102.122C187.918 101.898 187.675 101.693 187.33 101.506C186.985 101.32 186.513 101.114 185.916 100.89C185.057 100.582 184.413 100.204 183.984 99.7563C183.555 99.3083 183.34 98.6969 183.34 97.9223C183.34 97.3996 183.475 96.9469 183.746 96.5643C184.017 96.1816 184.39 95.8876 184.866 95.6823C185.342 95.4769 185.897 95.3743 186.532 95.3743C187.073 95.3743 187.573 95.4256 188.03 95.5283C188.487 95.6309 188.907 95.7663 189.29 95.9343L188.898 97.0123C188.553 96.8629 188.175 96.7369 187.764 96.6343C187.353 96.5316 186.933 96.4803 186.504 96.4803C185.879 96.4803 185.407 96.6156 185.09 96.8863C184.773 97.1476 184.614 97.4976 184.614 97.9363C184.614 98.2723 184.684 98.5523 184.824 98.7763C184.964 99.0003 185.193 99.2056 185.51 99.3923C185.827 99.5696 186.257 99.7563 186.798 99.9523C187.386 100.167 187.881 100.4 188.282 100.652C188.693 100.895 189.001 101.189 189.206 101.534C189.421 101.88 189.528 102.314 189.528 102.836ZM192.004 95.1923C192.19 95.1923 192.354 95.2576 192.494 95.3883C192.643 95.5096 192.718 95.7056 192.718 95.9763C192.718 96.2469 192.643 96.4476 192.494 96.5783C192.354 96.6996 192.19 96.7603 192.004 96.7603C191.798 96.7603 191.626 96.6996 191.486 96.5783C191.346 96.4476 191.276 96.2469 191.276 95.9763C191.276 95.7056 191.346 95.5096 191.486 95.3883C191.626 95.2576 191.798 95.1923 192.004 95.1923ZM192.606 98.0063V105.51H191.374V98.0063H192.606ZM197.643 97.8663C198.138 97.8663 198.581 97.9596 198.973 98.1463C199.374 98.3329 199.715 98.6176 199.995 99.0003H200.065L200.233 98.0063H201.213V105.636C201.213 106.71 200.938 107.517 200.387 108.058C199.846 108.6 199.001 108.87 197.853 108.87C196.752 108.87 195.851 108.712 195.151 108.394V107.26C195.888 107.652 196.812 107.848 197.923 107.848C198.567 107.848 199.071 107.657 199.435 107.274C199.808 106.901 199.995 106.388 199.995 105.734V105.44C199.995 105.328 200 105.17 200.009 104.964C200.018 104.75 200.028 104.6 200.037 104.516H199.981C199.477 105.272 198.702 105.65 197.657 105.65C196.686 105.65 195.926 105.31 195.375 104.628C194.834 103.947 194.563 102.995 194.563 101.772C194.563 100.578 194.834 99.6303 195.375 98.9303C195.926 98.2209 196.682 97.8663 197.643 97.8663ZM197.811 98.9023C197.186 98.9023 196.7 99.1543 196.355 99.6583C196.01 100.153 195.837 100.862 195.837 101.786C195.837 102.71 196.005 103.42 196.341 103.914C196.677 104.4 197.176 104.642 197.839 104.642C198.595 104.642 199.146 104.442 199.491 104.04C199.836 103.63 200.009 102.972 200.009 102.066V101.772C200.009 100.755 199.832 100.022 199.477 99.5743C199.122 99.1263 198.567 98.9023 197.811 98.9023ZM207.208 97.8663C208.104 97.8663 208.781 98.0856 209.238 98.5243C209.696 98.9629 209.924 99.6629 209.924 100.624V105.51H208.706V100.708C208.706 99.5043 208.146 98.9023 207.026 98.9023C206.196 98.9023 205.622 99.1356 205.304 99.6023C204.987 100.069 204.828 100.741 204.828 101.618V105.51H203.596V98.0063H204.59L204.772 99.0283H204.842C205.085 98.6363 205.421 98.3469 205.85 98.1603C206.28 97.9643 206.732 97.8663 207.208 97.8663ZM218.869 105.51H215.257V104.782L216.433 104.516V96.5223L215.257 96.2423V95.5143H218.869V96.2423L217.693 96.5223V104.516L218.869 104.782V105.51ZM224.243 97.8663C225.139 97.8663 225.816 98.0856 226.273 98.5243C226.731 98.9629 226.959 99.6629 226.959 100.624V105.51H225.741V100.708C225.741 99.5043 225.181 98.9023 224.061 98.9023C223.231 98.9023 222.657 99.1356 222.339 99.6023C222.022 100.069 221.863 100.741 221.863 101.618V105.51H220.631V98.0063H221.625L221.807 99.0283H221.877C222.12 98.6363 222.456 98.3469 222.885 98.1603C223.315 97.9643 223.767 97.8663 224.243 97.8663Z" fill="white"/>
</svg>
