<svg width="190" height="188" viewBox="0 0 190 188" fill="none" xmlns="http://www.w3.org/2000/svg">
<rect width="190" height="188" fill="white"/>
<rect x="35" width="120" height="36" rx="2" fill="#155E8B"/>
<path d="M73.004 13.004C74.3107 13.004 75.2627 13.2607 75.86 13.774C76.4573 14.2873 76.756 15.0107 76.756 15.944C76.756 16.4947 76.63 17.0127 76.378 17.498C76.1353 17.974 75.72 18.3613 75.132 18.66C74.5533 18.9587 73.7647 19.108 72.766 19.108H71.618V23H70.358V13.004H73.004ZM72.892 14.082H71.618V18.03H72.626C73.578 18.03 74.2873 17.876 74.754 17.568C75.2207 17.26 75.454 16.7373 75.454 16C75.454 15.356 75.244 14.8753 74.824 14.558C74.4133 14.2407 73.7693 14.082 72.892 14.082ZM82.1666 15.356C82.3066 15.356 82.4559 15.3653 82.6146 15.384C82.7732 15.3933 82.9179 15.412 83.0486 15.44L82.8946 16.574C82.7732 16.546 82.6379 16.5227 82.4886 16.504C82.3392 16.4853 82.2039 16.476 82.0826 16.476C81.6999 16.476 81.3406 16.5833 81.0046 16.798C80.6686 17.0033 80.3979 17.2973 80.1926 17.68C79.9966 18.0533 79.8986 18.492 79.8986 18.996V23H78.6666V15.496H79.6746L79.8146 16.868H79.8706C80.1039 16.4573 80.4119 16.1027 80.7946 15.804C81.1866 15.5053 81.6439 15.356 82.1666 15.356ZM85.0798 12.682C85.2664 12.682 85.4298 12.7473 85.5698 12.878C85.7191 12.9993 85.7938 13.1953 85.7938 13.466C85.7938 13.7367 85.7191 13.9373 85.5698 14.068C85.4298 14.1893 85.2664 14.25 85.0798 14.25C84.8744 14.25 84.7018 14.1893 84.5618 14.068C84.4218 13.9373 84.3518 13.7367 84.3518 13.466C84.3518 13.1953 84.4218 12.9993 84.5618 12.878C84.7018 12.7473 84.8744 12.682 85.0798 12.682ZM85.6818 15.496V23H84.4498V15.496H85.6818ZM96.2911 15.356C97.1405 15.356 97.7751 15.5753 98.1951 16.014C98.6151 16.4527 98.8251 17.1527 98.8251 18.114V23H97.6071V18.17C97.6071 16.9847 97.0985 16.392 96.0811 16.392C95.3531 16.392 94.8305 16.602 94.5131 17.022C94.2051 17.442 94.0511 18.0533 94.0511 18.856V23H92.8331V18.17C92.8331 16.9847 92.3198 16.392 91.2931 16.392C90.5371 16.392 90.0145 16.6253 89.7251 17.092C89.4358 17.5587 89.2911 18.2307 89.2911 19.108V23H88.0591V15.496H89.0531L89.2351 16.518H89.3051C89.5385 16.126 89.8511 15.8367 90.2431 15.65C90.6445 15.454 91.0691 15.356 91.5171 15.356C92.6931 15.356 93.4585 15.776 93.8131 16.616H93.8831C94.1351 16.1867 94.4758 15.8693 94.9051 15.664C95.3345 15.4587 95.7965 15.356 96.2911 15.356ZM103.985 15.37C104.9 15.37 105.576 15.5707 106.015 15.972C106.454 16.3733 106.673 17.0127 106.673 17.89V23H105.777L105.539 21.936H105.483C105.156 22.3467 104.811 22.65 104.447 22.846C104.083 23.042 103.588 23.14 102.963 23.14C102.282 23.14 101.717 22.9627 101.269 22.608C100.821 22.244 100.597 21.6793 100.597 20.914C100.597 20.1673 100.891 19.5933 101.479 19.192C102.067 18.7813 102.972 18.5573 104.195 18.52L105.469 18.478V18.03C105.469 17.4047 105.334 16.9707 105.063 16.728C104.792 16.4853 104.41 16.364 103.915 16.364C103.523 16.364 103.15 16.4247 102.795 16.546C102.44 16.658 102.109 16.7887 101.801 16.938L101.423 16.014C101.75 15.8367 102.137 15.6873 102.585 15.566C103.033 15.4353 103.5 15.37 103.985 15.37ZM105.455 19.332L104.349 19.374C103.416 19.4113 102.767 19.5607 102.403 19.822C102.048 20.0833 101.871 20.452 101.871 20.928C101.871 21.348 101.997 21.656 102.249 21.852C102.51 22.048 102.842 22.146 103.243 22.146C103.868 22.146 104.391 21.9733 104.811 21.628C105.24 21.2733 105.455 20.732 105.455 20.004V19.332ZM112.491 15.356C112.631 15.356 112.78 15.3653 112.939 15.384C113.097 15.3933 113.242 15.412 113.373 15.44L113.219 16.574C113.097 16.546 112.962 16.5227 112.813 16.504C112.663 16.4853 112.528 16.476 112.407 16.476C112.024 16.476 111.665 16.5833 111.329 16.798C110.993 17.0033 110.722 17.2973 110.517 17.68C110.321 18.0533 110.223 18.492 110.223 18.996V23H108.991V15.496H109.999L110.139 16.868H110.195C110.428 16.4573 110.736 16.1027 111.119 15.804C111.511 15.5053 111.968 15.356 112.491 15.356ZM113.598 15.496H114.914L116.538 19.766C116.678 20.1487 116.804 20.508 116.916 20.844C117.028 21.18 117.112 21.502 117.168 21.81H117.224C117.28 21.5767 117.369 21.2733 117.49 20.9C117.611 20.5173 117.737 20.1347 117.868 19.752L119.394 15.496H120.724L117.49 24.036C117.219 24.7453 116.879 25.31 116.468 25.73C116.057 26.15 115.488 26.36 114.76 26.36C114.536 26.36 114.34 26.346 114.172 26.318C114.004 26.2993 113.859 26.276 113.738 26.248V25.268C113.841 25.2867 113.962 25.3053 114.102 25.324C114.251 25.3427 114.405 25.352 114.564 25.352C114.993 25.352 115.339 25.2307 115.6 24.988C115.861 24.7453 116.071 24.4233 116.23 24.022L116.622 23.028L113.598 15.496Z" fill="white"/>
<rect x="35.5" y="76.5" width="119" height="35" rx="1.5" fill="url(#paint0_angular_8132_197757)"/>
<rect x="35.5" y="76.5" width="119" height="35" rx="1.5" stroke="#155E8B"/>
<path d="M67.528 96.326C67.528 97.2127 67.206 97.9033 66.562 98.398C65.918 98.8927 65.05 99.14 63.958 99.14C63.398 99.14 62.88 99.098 62.404 99.014C61.928 98.93 61.5313 98.8133 61.214 98.664V97.46C61.55 97.6093 61.9653 97.7447 62.46 97.866C62.964 97.9873 63.482 98.048 64.014 98.048C64.7513 98.048 65.3113 97.9033 65.694 97.614C66.0767 97.3247 66.268 96.9327 66.268 96.438C66.268 96.1113 66.198 95.836 66.058 95.612C65.918 95.388 65.6753 95.1827 65.33 94.996C64.9847 94.8093 64.5133 94.604 63.916 94.38C63.0573 94.072 62.4133 93.694 61.984 93.246C61.5547 92.798 61.34 92.1867 61.34 91.412C61.34 90.8893 61.4753 90.4367 61.746 90.054C62.0167 89.6713 62.39 89.3773 62.866 89.172C63.342 88.9667 63.8973 88.864 64.532 88.864C65.0733 88.864 65.5727 88.9153 66.03 89.018C66.4873 89.1207 66.9073 89.256 67.29 89.424L66.898 90.502C66.5527 90.3527 66.1747 90.2267 65.764 90.124C65.3533 90.0213 64.9333 89.97 64.504 89.97C63.8787 89.97 63.4073 90.1053 63.09 90.376C62.7727 90.6373 62.614 90.9873 62.614 91.426C62.614 91.762 62.684 92.042 62.824 92.266C62.964 92.49 63.1927 92.6953 63.51 92.882C63.8273 93.0593 64.2567 93.246 64.798 93.442C65.386 93.6567 65.8807 93.89 66.282 94.142C66.6927 94.3847 67.0007 94.6787 67.206 95.024C67.4207 95.3693 67.528 95.8033 67.528 96.326ZM72.2716 91.356C72.9063 91.356 73.4569 91.496 73.9236 91.776C74.3903 92.056 74.7449 92.4527 74.9876 92.966C75.2396 93.47 75.3656 94.0627 75.3656 94.744V95.486H70.2276C70.2463 96.3353 70.4609 96.984 70.8716 97.432C71.2916 97.8707 71.8749 98.09 72.6216 98.09C73.0976 98.09 73.5176 98.048 73.8816 97.964C74.2549 97.8707 74.6376 97.74 75.0296 97.572V98.65C74.6469 98.818 74.2689 98.9393 73.8956 99.014C73.5223 99.098 73.0789 99.14 72.5656 99.14C71.8469 99.14 71.2169 98.9953 70.6756 98.706C70.1343 98.4167 69.7096 97.9873 69.4016 97.418C69.1029 96.8487 68.9536 96.144 68.9536 95.304C68.9536 94.4827 69.0889 93.778 69.3596 93.19C69.6396 92.602 70.0269 92.1493 70.5216 91.832C71.0256 91.5147 71.6089 91.356 72.2716 91.356ZM72.2576 92.364C71.6696 92.364 71.2029 92.5553 70.8576 92.938C70.5216 93.3113 70.3209 93.834 70.2556 94.506H74.0776C74.0683 93.8713 73.9189 93.358 73.6296 92.966C73.3403 92.5647 72.8829 92.364 72.2576 92.364ZM80.2859 99.14C79.6139 99.14 79.0213 99.0047 78.5079 98.734C77.9946 98.4633 77.5886 98.0433 77.2899 97.474C77.0006 96.9047 76.8559 96.1767 76.8559 95.29C76.8559 94.366 77.0053 93.6147 77.3039 93.036C77.6119 92.4573 78.0319 92.0327 78.5639 91.762C79.0959 91.4913 79.6979 91.356 80.3699 91.356C80.7433 91.356 81.1073 91.398 81.4619 91.482C81.8259 91.5567 82.1199 91.65 82.3439 91.762L81.9659 92.784C81.7419 92.7 81.4806 92.6207 81.1819 92.546C80.8833 92.4713 80.6033 92.434 80.3419 92.434C78.8673 92.434 78.1299 93.3813 78.1299 95.276C78.1299 96.1813 78.3073 96.8767 78.6619 97.362C79.0259 97.838 79.5626 98.076 80.2719 98.076C80.6733 98.076 81.0326 98.034 81.3499 97.95C81.6673 97.866 81.9566 97.7633 82.2179 97.642V98.734C81.9659 98.8647 81.6859 98.9627 81.3779 99.028C81.0793 99.1027 80.7153 99.14 80.2859 99.14ZM90.5265 95.234C90.5265 96.4753 90.2092 97.4367 89.5745 98.118C88.9492 98.7993 88.0998 99.14 87.0265 99.14C86.3638 99.14 85.7712 98.9907 85.2485 98.692C84.7352 98.384 84.3292 97.9407 84.0305 97.362C83.7318 96.774 83.5825 96.0647 83.5825 95.234C83.5825 93.9927 83.8905 93.036 84.5065 92.364C85.1318 91.692 85.9858 91.356 87.0685 91.356C87.7405 91.356 88.3378 91.51 88.8605 91.818C89.3832 92.1167 89.7892 92.5553 90.0785 93.134C90.3772 93.7033 90.5265 94.4033 90.5265 95.234ZM84.8565 95.234C84.8565 96.1207 85.0292 96.8253 85.3745 97.348C85.7292 97.8613 86.2892 98.118 87.0545 98.118C87.8105 98.118 88.3658 97.8613 88.7205 97.348C89.0752 96.8253 89.2525 96.1207 89.2525 95.234C89.2525 94.3473 89.0752 93.652 88.7205 93.148C88.3658 92.644 87.8058 92.392 87.0405 92.392C86.2752 92.392 85.7198 92.644 85.3745 93.148C85.0292 93.652 84.8565 94.3473 84.8565 95.234ZM96.0911 91.356C96.9871 91.356 97.6637 91.5753 98.1211 92.014C98.5784 92.4527 98.8071 93.1527 98.8071 94.114V99H97.5891V94.198C97.5891 92.994 97.0291 92.392 95.9091 92.392C95.0784 92.392 94.5044 92.6253 94.1871 93.092C93.8697 93.5587 93.7111 94.2307 93.7111 95.108V99H92.4791V91.496H93.4731L93.6551 92.518H93.7251C93.9677 92.126 94.3037 91.8367 94.7331 91.65C95.1624 91.454 95.6151 91.356 96.0911 91.356ZM103.793 99.14C102.86 99.14 102.113 98.818 101.553 98.174C100.993 97.5207 100.713 96.55 100.713 95.262C100.713 93.974 100.993 93.0033 101.553 92.35C102.123 91.6873 102.874 91.356 103.807 91.356C104.386 91.356 104.857 91.4633 105.221 91.678C105.595 91.8927 105.898 92.154 106.131 92.462H106.215C106.197 92.3407 106.178 92.1633 106.159 91.93C106.141 91.6873 106.131 91.496 106.131 91.356V88.36H107.363V99H106.369L106.187 97.992H106.131C105.907 98.3093 105.609 98.58 105.235 98.804C104.862 99.028 104.381 99.14 103.793 99.14ZM103.989 98.118C104.783 98.118 105.338 97.9033 105.655 97.474C105.982 97.0353 106.145 96.3773 106.145 95.5V95.276C106.145 94.3427 105.991 93.6287 105.683 93.134C105.375 92.63 104.806 92.378 103.975 92.378C103.313 92.378 102.813 92.644 102.477 93.176C102.151 93.6987 101.987 94.4033 101.987 95.29C101.987 96.186 102.151 96.8813 102.477 97.376C102.813 97.8707 103.317 98.118 103.989 98.118ZM112.589 91.37C113.503 91.37 114.18 91.5707 114.619 91.972C115.057 92.3733 115.277 93.0127 115.277 93.89V99H114.381L114.143 97.936H114.087C113.76 98.3467 113.415 98.65 113.051 98.846C112.687 99.042 112.192 99.14 111.567 99.14C110.885 99.14 110.321 98.9627 109.873 98.608C109.425 98.244 109.201 97.6793 109.201 96.914C109.201 96.1673 109.495 95.5933 110.083 95.192C110.671 94.7813 111.576 94.5573 112.799 94.52L114.073 94.478V94.03C114.073 93.4047 113.937 92.9707 113.667 92.728C113.396 92.4853 113.013 92.364 112.519 92.364C112.127 92.364 111.753 92.4247 111.399 92.546C111.044 92.658 110.713 92.7887 110.405 92.938L110.027 92.014C110.353 91.8367 110.741 91.6873 111.189 91.566C111.637 91.4353 112.103 91.37 112.589 91.37ZM114.059 95.332L112.953 95.374C112.019 95.4113 111.371 95.5607 111.007 95.822C110.652 96.0833 110.475 96.452 110.475 96.928C110.475 97.348 110.601 97.656 110.853 97.852C111.114 98.048 111.445 98.146 111.847 98.146C112.472 98.146 112.995 97.9733 113.415 97.628C113.844 97.2733 114.059 96.732 114.059 96.004V95.332ZM121.094 91.356C121.234 91.356 121.384 91.3653 121.542 91.384C121.701 91.3933 121.846 91.412 121.976 91.44L121.822 92.574C121.701 92.546 121.566 92.5227 121.416 92.504C121.267 92.4853 121.132 92.476 121.01 92.476C120.628 92.476 120.268 92.5833 119.932 92.798C119.596 93.0033 119.326 93.2973 119.12 93.68C118.924 94.0533 118.826 94.492 118.826 94.996V99H117.594V91.496H118.602L118.742 92.868H118.798C119.032 92.4573 119.34 92.1027 119.722 91.804C120.114 91.5053 120.572 91.356 121.094 91.356ZM122.202 91.496H123.518L125.142 95.766C125.282 96.1487 125.408 96.508 125.52 96.844C125.632 97.18 125.716 97.502 125.772 97.81H125.828C125.884 97.5767 125.972 97.2733 126.094 96.9C126.215 96.5173 126.341 96.1347 126.472 95.752L127.998 91.496H129.328L126.094 100.036C125.823 100.745 125.482 101.31 125.072 101.73C124.661 102.15 124.092 102.36 123.364 102.36C123.14 102.36 122.944 102.346 122.776 102.318C122.608 102.299 122.463 102.276 122.342 102.248V101.268C122.444 101.287 122.566 101.305 122.706 101.324C122.855 101.343 123.009 101.352 123.168 101.352C123.597 101.352 123.942 101.231 124.204 100.988C124.465 100.745 124.675 100.423 124.834 100.022L125.226 99.028L122.202 91.496Z" fill="#155E8B"/>
<rect x="35" y="152" width="120" height="36" rx="2" fill="url(#paint1_angular_8132_197757)"/>
<path d="M74.522 175H73.262V166.11H70.14V165.004H77.63V166.11H74.522V175ZM80.8829 167.356C81.5176 167.356 82.0683 167.496 82.5349 167.776C83.0016 168.056 83.3563 168.453 83.5989 168.966C83.8509 169.47 83.9769 170.063 83.9769 170.744V171.486H78.8389C78.8576 172.335 79.0723 172.984 79.4829 173.432C79.9029 173.871 80.4863 174.09 81.2329 174.09C81.7089 174.09 82.1289 174.048 82.4929 173.964C82.8663 173.871 83.2489 173.74 83.6409 173.572V174.65C83.2583 174.818 82.8803 174.939 82.5069 175.014C82.1336 175.098 81.6903 175.14 81.1769 175.14C80.4583 175.14 79.8283 174.995 79.2869 174.706C78.7456 174.417 78.3209 173.987 78.0129 173.418C77.7143 172.849 77.5649 172.144 77.5649 171.304C77.5649 170.483 77.7003 169.778 77.9709 169.19C78.2509 168.602 78.6383 168.149 79.1329 167.832C79.6369 167.515 80.2203 167.356 80.8829 167.356ZM80.8689 168.364C80.2809 168.364 79.8143 168.555 79.4689 168.938C79.1329 169.311 78.9323 169.834 78.8669 170.506H82.6889C82.6796 169.871 82.5303 169.358 82.2409 168.966C81.9516 168.565 81.4943 168.364 80.8689 168.364ZM89.3873 167.356C89.5273 167.356 89.6766 167.365 89.8353 167.384C89.9939 167.393 90.1386 167.412 90.2693 167.44L90.1153 168.574C89.9939 168.546 89.8586 168.523 89.7093 168.504C89.5599 168.485 89.4246 168.476 89.3033 168.476C88.9206 168.476 88.5613 168.583 88.2253 168.798C87.8893 169.003 87.6186 169.297 87.4133 169.68C87.2173 170.053 87.1193 170.492 87.1193 170.996V175H85.8873V167.496H86.8953L87.0353 168.868H87.0913C87.3246 168.457 87.6326 168.103 88.0153 167.804C88.4073 167.505 88.8646 167.356 89.3873 167.356ZM94.1765 174.132C94.3631 174.132 94.5545 174.118 94.7505 174.09C94.9465 174.062 95.1051 174.025 95.2265 173.978V174.916C95.0958 174.981 94.9091 175.033 94.6665 175.07C94.4238 175.117 94.1905 175.14 93.9665 175.14C93.5745 175.14 93.2105 175.075 92.8745 174.944C92.5478 174.804 92.2818 174.566 92.0765 174.23C91.8711 173.894 91.7685 173.423 91.7685 172.816V168.448H90.7045V167.86L91.7825 167.37L92.2725 165.774H93.0005V167.496H95.1705V168.448H93.0005V172.788C93.0005 173.245 93.1078 173.586 93.3225 173.81C93.5465 174.025 93.8311 174.132 94.1765 174.132ZM97.3591 164.682C97.5457 164.682 97.7091 164.747 97.8491 164.878C97.9984 164.999 98.0731 165.195 98.0731 165.466C98.0731 165.737 97.9984 165.937 97.8491 166.068C97.7091 166.189 97.5457 166.25 97.3591 166.25C97.1537 166.25 96.9811 166.189 96.8411 166.068C96.7011 165.937 96.6311 165.737 96.6311 165.466C96.6311 165.195 96.7011 164.999 96.8411 164.878C96.9811 164.747 97.1537 164.682 97.3591 164.682ZM97.9611 167.496V175H96.7291V167.496H97.9611ZM103.18 167.37C104.095 167.37 104.772 167.571 105.21 167.972C105.649 168.373 105.868 169.013 105.868 169.89V175H104.972L104.734 173.936H104.678C104.352 174.347 104.006 174.65 103.642 174.846C103.278 175.042 102.784 175.14 102.158 175.14C101.477 175.14 100.912 174.963 100.464 174.608C100.016 174.244 99.7924 173.679 99.7924 172.914C99.7924 172.167 100.086 171.593 100.674 171.192C101.262 170.781 102.168 170.557 103.39 170.52L104.664 170.478V170.03C104.664 169.405 104.529 168.971 104.258 168.728C103.988 168.485 103.605 168.364 103.11 168.364C102.718 168.364 102.345 168.425 101.99 168.546C101.636 168.658 101.304 168.789 100.996 168.938L100.618 168.014C100.945 167.837 101.332 167.687 101.78 167.566C102.228 167.435 102.695 167.37 103.18 167.37ZM104.65 171.332L103.544 171.374C102.611 171.411 101.962 171.561 101.598 171.822C101.244 172.083 101.066 172.452 101.066 172.928C101.066 173.348 101.192 173.656 101.444 173.852C101.706 174.048 102.037 174.146 102.438 174.146C103.064 174.146 103.586 173.973 104.006 173.628C104.436 173.273 104.65 172.732 104.65 172.004V171.332ZM111.686 167.356C111.826 167.356 111.975 167.365 112.134 167.384C112.293 167.393 112.437 167.412 112.568 167.44L112.414 168.574C112.293 168.546 112.157 168.523 112.008 168.504C111.859 168.485 111.723 168.476 111.602 168.476C111.219 168.476 110.86 168.583 110.524 168.798C110.188 169.003 109.917 169.297 109.712 169.68C109.516 170.053 109.418 170.492 109.418 170.996V175H108.186V167.496H109.194L109.334 168.868H109.39C109.623 168.457 109.931 168.103 110.314 167.804C110.706 167.505 111.163 167.356 111.686 167.356ZM112.793 167.496H114.109L115.733 171.766C115.873 172.149 115.999 172.508 116.111 172.844C116.223 173.18 116.307 173.502 116.363 173.81H116.419C116.475 173.577 116.564 173.273 116.685 172.9C116.807 172.517 116.933 172.135 117.063 171.752L118.589 167.496H119.919L116.685 176.036C116.415 176.745 116.074 177.31 115.663 177.73C115.253 178.15 114.683 178.36 113.955 178.36C113.731 178.36 113.535 178.346 113.367 178.318C113.199 178.299 113.055 178.276 112.933 178.248V177.268C113.036 177.287 113.157 177.305 113.297 177.324C113.447 177.343 113.601 177.352 113.759 177.352C114.189 177.352 114.534 177.231 114.795 176.988C115.057 176.745 115.267 176.423 115.425 176.022L115.817 175.028L112.793 167.496Z" fill="#155E8B"/>
<defs>
<radialGradient id="paint0_angular_8132_197757" cx="0" cy="0" r="1" gradientUnits="userSpaceOnUse" gradientTransform="translate(65.4615 76) rotate(18.6297) scale(94.4894 2.69139e-06)">
<stop stop-color="white"/>
<stop offset="1" stop-color="#DDDDDD"/>
</radialGradient>
<radialGradient id="paint1_angular_8132_197757" cx="0" cy="0" r="1" gradientUnits="userSpaceOnUse" gradientTransform="translate(65.4615 152) rotate(18.6297) scale(94.4894 2.69139e-06)">
<stop stop-color="white"/>
<stop offset="1" stop-color="#DDDDDD"/>
</radialGradient>
</defs>
</svg>
