<svg width="428" height="116" viewBox="0 0 428 116" fill="none" xmlns="http://www.w3.org/2000/svg">
<rect width="428" height="116" fill="white"/>
<rect x="143.5" y="40.5" width="101" height="35" rx="1.5" fill="white"/>
<path d="M172.05 57.6H167.35V52.9C167.35 52.7 167.2 52.5 166.95 52.5C166.7 52.5 166.55 52.65 166.55 52.9V57.6H161.9C161.7 57.6 161.5 57.75 161.5 58C161.5 58.25 161.65 58.4 161.9 58.4H166.6V63.1C166.6 63.3 166.75 63.5 167 63.5C167.25 63.5 167.4 63.35 167.4 63.1V58.4H172.1C172.3 58.4 172.5 58.25 172.5 58C172.5 57.75 172.25 57.6 172.05 57.6Z" fill="#1B77AF"/>
<path d="M184.358 53.004H187.214C188.455 53.004 189.398 53.1907 190.042 53.564C190.686 53.9373 191.008 54.5767 191.008 55.482C191.008 56.07 190.845 56.56 190.518 56.952C190.191 57.3347 189.72 57.582 189.104 57.694V57.764C189.524 57.8387 189.902 57.9647 190.238 58.142C190.583 58.3193 190.854 58.5713 191.05 58.898C191.246 59.2247 191.344 59.6447 191.344 60.158C191.344 61.0633 191.031 61.7633 190.406 62.258C189.79 62.7527 188.945 63 187.872 63H184.358V53.004ZM185.618 57.26H187.466C188.315 57.26 188.899 57.1247 189.216 56.854C189.543 56.574 189.706 56.1633 189.706 55.622C189.706 55.0713 189.51 54.6793 189.118 54.446C188.735 54.2033 188.119 54.082 187.27 54.082H185.618V57.26ZM185.618 58.31V61.936H187.634C188.521 61.936 189.137 61.7633 189.482 61.418C189.827 61.0727 190 60.62 190 60.06C190 59.5373 189.818 59.1173 189.454 58.8C189.099 58.4733 188.46 58.31 187.536 58.31H185.618ZM199.567 55.496V63H198.559L198.377 62.006H198.321C198.079 62.398 197.743 62.6873 197.313 62.874C196.884 63.0513 196.427 63.14 195.941 63.14C195.036 63.14 194.355 62.9253 193.897 62.496C193.44 62.0573 193.211 61.362 193.211 60.41V55.496H194.457V60.326C194.457 61.5207 195.013 62.118 196.123 62.118C196.954 62.118 197.528 61.8847 197.845 61.418C198.172 60.9513 198.335 60.2793 198.335 59.402V55.496H199.567ZM204.456 62.132C204.642 62.132 204.834 62.118 205.03 62.09C205.226 62.062 205.384 62.0247 205.506 61.978V62.916C205.375 62.9813 205.188 63.0327 204.946 63.07C204.703 63.1167 204.47 63.14 204.246 63.14C203.854 63.14 203.49 63.0747 203.154 62.944C202.827 62.804 202.561 62.566 202.356 62.23C202.15 61.894 202.048 61.4227 202.048 60.816V56.448H200.984V55.86L202.062 55.37L202.552 53.774H203.28V55.496H205.45V56.448H203.28V60.788C203.28 61.2453 203.387 61.586 203.602 61.81C203.826 62.0247 204.11 62.132 204.456 62.132ZM209.514 62.132C209.701 62.132 209.892 62.118 210.088 62.09C210.284 62.062 210.443 62.0247 210.564 61.978V62.916C210.434 62.9813 210.247 63.0327 210.004 63.07C209.762 63.1167 209.528 63.14 209.304 63.14C208.912 63.14 208.548 63.0747 208.212 62.944C207.886 62.804 207.62 62.566 207.414 62.23C207.209 61.894 207.106 61.4227 207.106 60.816V56.448H206.042V55.86L207.12 55.37L207.61 53.774H208.338V55.496H210.508V56.448H208.338V60.788C208.338 61.2453 208.446 61.586 208.66 61.81C208.884 62.0247 209.169 62.132 209.514 62.132ZM218.591 59.234C218.591 60.4753 218.274 61.4367 217.639 62.118C217.014 62.7993 216.164 63.14 215.091 63.14C214.428 63.14 213.836 62.9907 213.313 62.692C212.8 62.384 212.394 61.9407 212.095 61.362C211.796 60.774 211.647 60.0647 211.647 59.234C211.647 57.9927 211.955 57.036 212.571 56.364C213.196 55.692 214.05 55.356 215.133 55.356C215.805 55.356 216.402 55.51 216.925 55.818C217.448 56.1167 217.854 56.5553 218.143 57.134C218.442 57.7033 218.591 58.4033 218.591 59.234ZM212.921 59.234C212.921 60.1207 213.094 60.8253 213.439 61.348C213.794 61.8613 214.354 62.118 215.119 62.118C215.875 62.118 216.43 61.8613 216.785 61.348C217.14 60.8253 217.317 60.1207 217.317 59.234C217.317 58.3473 217.14 57.652 216.785 57.148C216.43 56.644 215.87 56.392 215.105 56.392C214.34 56.392 213.784 56.644 213.439 57.148C213.094 57.652 212.921 58.3473 212.921 59.234ZM224.156 55.356C225.052 55.356 225.728 55.5753 226.186 56.014C226.643 56.4527 226.872 57.1527 226.872 58.114V63H225.654V58.198C225.654 56.994 225.094 56.392 223.974 56.392C223.143 56.392 222.569 56.6253 222.252 57.092C221.934 57.5587 221.776 58.2307 221.776 59.108V63H220.544V55.496H221.538L221.72 56.518H221.79C222.032 56.126 222.368 55.8367 222.798 55.65C223.227 55.454 223.68 55.356 224.156 55.356Z" fill="#1B77AF"/>
<rect x="143.5" y="40.5" width="101" height="35" rx="1.5" stroke="#1B77AF"/>
<circle cx="206" cy="10" r="10" fill="#D51588"/>
<path d="M208.78 15L207.87 12.354H204.104L203.208 15H201.304L204.972 4.962H207.016L210.684 15H208.78ZM207.408 10.814L206.54 8.238C206.502 8.11667 206.446 7.944 206.372 7.72C206.297 7.48667 206.227 7.25333 206.162 7.02C206.096 6.77733 206.04 6.57667 205.994 6.418C205.947 6.614 205.886 6.83333 205.812 7.076C205.746 7.31867 205.681 7.54733 205.616 7.762C205.56 7.97667 205.513 8.13533 205.476 8.238L204.594 10.814H207.408Z" fill="white"/>
<path d="M206 20V48" stroke="#D51588"/>
<path d="M167 66V96" stroke="#D51588"/>
<circle cx="167" cy="106" r="10" fill="#D51588"/>
<path d="M168.615 102.376C167.709 102.376 167.005 102.703 166.501 103.356C165.997 104 165.745 104.887 165.745 106.016C165.745 107.155 165.978 108.041 166.445 108.676C166.911 109.311 167.63 109.628 168.601 109.628C169.021 109.628 169.431 109.586 169.833 109.502C170.243 109.409 170.663 109.287 171.093 109.138V110.664C170.682 110.832 170.267 110.953 169.847 111.028C169.436 111.103 168.96 111.14 168.419 111.14C167.392 111.14 166.543 110.93 165.871 110.51C165.199 110.081 164.699 109.483 164.373 108.718C164.046 107.943 163.883 107.038 163.883 106.002C163.883 104.994 164.065 104.107 164.429 103.342C164.793 102.567 165.325 101.961 166.025 101.522C166.734 101.083 167.597 100.864 168.615 100.864C169.119 100.864 169.613 100.92 170.099 101.032C170.593 101.144 171.055 101.307 171.485 101.522L170.869 102.992C170.514 102.833 170.145 102.693 169.763 102.572C169.389 102.441 169.007 102.376 168.615 102.376Z" fill="white"/>
<path d="M245 58H265" stroke="#D51588"/>
<circle cx="275" cy="58" r="10" fill="#D51588"/>
<path d="M271.654 53.004H274.664C275.961 53.004 276.941 53.1907 277.604 53.564C278.276 53.9373 278.612 54.586 278.612 55.51C278.612 56.0887 278.467 56.574 278.178 56.966C277.888 57.3487 277.473 57.5913 276.932 57.694V57.764C277.296 57.8387 277.622 57.96 277.912 58.128C278.21 58.296 278.448 58.5433 278.626 58.87C278.803 59.1873 278.892 59.6073 278.892 60.13C278.892 61.0353 278.57 61.74 277.926 62.244C277.282 62.748 276.409 63 275.308 63H271.654V53.004ZM273.446 57.078H274.902C275.611 57.078 276.096 56.966 276.358 56.742C276.628 56.5087 276.764 56.1773 276.764 55.748C276.764 55.3 276.6 54.978 276.274 54.782C275.956 54.586 275.452 54.488 274.762 54.488H273.446V57.078ZM273.446 58.52V61.502H275.07C275.798 61.502 276.302 61.362 276.582 61.082C276.871 60.7927 277.016 60.4193 277.016 59.962C277.016 59.5233 276.866 59.1733 276.568 58.912C276.278 58.6507 275.751 58.52 274.986 58.52H273.446Z" fill="white"/>
<rect x="159" y="50" width="16" height="16" stroke="#D51588"/>
</svg>
