<svg width="269" height="36" viewBox="0 0 269 36" fill="none" xmlns="http://www.w3.org/2000/svg">
<rect width="269" height="36" fill="white"/>
<rect x="68.5" width="132" height="36" rx="2" fill="#1B77AF"/>
<path d="M88.004 13.004C89.3107 13.004 90.2627 13.2607 90.86 13.774C91.4573 14.2873 91.756 15.0107 91.756 15.944C91.756 16.4947 91.63 17.0127 91.378 17.498C91.1353 17.974 90.72 18.3613 90.132 18.66C89.5533 18.9587 88.7647 19.108 87.766 19.108H86.618V23H85.358V13.004H88.004ZM87.892 14.082H86.618V18.03H87.626C88.578 18.03 89.2873 17.876 89.754 17.568C90.2207 17.26 90.454 16.7373 90.454 16C90.454 15.356 90.244 14.8753 89.824 14.558C89.4133 14.2407 88.7693 14.082 87.892 14.082ZM97.1666 15.356C97.3066 15.356 97.4559 15.3653 97.6146 15.384C97.7732 15.3933 97.9179 15.412 98.0486 15.44L97.8946 16.574C97.7732 16.546 97.6379 16.5227 97.4886 16.504C97.3392 16.4853 97.2039 16.476 97.0826 16.476C96.6999 16.476 96.3406 16.5833 96.0046 16.798C95.6686 17.0033 95.3979 17.2973 95.1926 17.68C94.9966 18.0533 94.8986 18.492 94.8986 18.996V23H93.6666V15.496H94.6746L94.8146 16.868H94.8706C95.1039 16.4573 95.4119 16.1027 95.7946 15.804C96.1866 15.5053 96.6439 15.356 97.1666 15.356ZM100.08 12.682C100.266 12.682 100.43 12.7473 100.57 12.878C100.719 12.9993 100.794 13.1953 100.794 13.466C100.794 13.7367 100.719 13.9373 100.57 14.068C100.43 14.1893 100.266 14.25 100.08 14.25C99.8744 14.25 99.7018 14.1893 99.5618 14.068C99.4218 13.9373 99.3518 13.7367 99.3518 13.466C99.3518 13.1953 99.4218 12.9993 99.5618 12.878C99.7018 12.7473 99.8744 12.682 100.08 12.682ZM100.682 15.496V23H99.4498V15.496H100.682ZM111.291 15.356C112.14 15.356 112.775 15.5753 113.195 16.014C113.615 16.4527 113.825 17.1527 113.825 18.114V23H112.607V18.17C112.607 16.9847 112.098 16.392 111.081 16.392C110.353 16.392 109.83 16.602 109.513 17.022C109.205 17.442 109.051 18.0533 109.051 18.856V23H107.833V18.17C107.833 16.9847 107.32 16.392 106.293 16.392C105.537 16.392 105.014 16.6253 104.725 17.092C104.436 17.5587 104.291 18.2307 104.291 19.108V23H103.059V15.496H104.053L104.235 16.518H104.305C104.538 16.126 104.851 15.8367 105.243 15.65C105.644 15.454 106.069 15.356 106.517 15.356C107.693 15.356 108.458 15.776 108.813 16.616H108.883C109.135 16.1867 109.476 15.8693 109.905 15.664C110.334 15.4587 110.796 15.356 111.291 15.356ZM118.985 15.37C119.9 15.37 120.576 15.5707 121.015 15.972C121.454 16.3733 121.673 17.0127 121.673 17.89V23H120.777L120.539 21.936H120.483C120.156 22.3467 119.811 22.65 119.447 22.846C119.083 23.042 118.588 23.14 117.963 23.14C117.282 23.14 116.717 22.9627 116.269 22.608C115.821 22.244 115.597 21.6793 115.597 20.914C115.597 20.1673 115.891 19.5933 116.479 19.192C117.067 18.7813 117.972 18.5573 119.195 18.52L120.469 18.478V18.03C120.469 17.4047 120.334 16.9707 120.063 16.728C119.792 16.4853 119.41 16.364 118.915 16.364C118.523 16.364 118.15 16.4247 117.795 16.546C117.44 16.658 117.109 16.7887 116.801 16.938L116.423 16.014C116.75 15.8367 117.137 15.6873 117.585 15.566C118.033 15.4353 118.5 15.37 118.985 15.37ZM120.455 19.332L119.349 19.374C118.416 19.4113 117.767 19.5607 117.403 19.822C117.048 20.0833 116.871 20.452 116.871 20.928C116.871 21.348 116.997 21.656 117.249 21.852C117.51 22.048 117.842 22.146 118.243 22.146C118.868 22.146 119.391 21.9733 119.811 21.628C120.24 21.2733 120.455 20.732 120.455 20.004V19.332ZM127.491 15.356C127.631 15.356 127.78 15.3653 127.939 15.384C128.097 15.3933 128.242 15.412 128.373 15.44L128.219 16.574C128.097 16.546 127.962 16.5227 127.813 16.504C127.663 16.4853 127.528 16.476 127.407 16.476C127.024 16.476 126.665 16.5833 126.329 16.798C125.993 17.0033 125.722 17.2973 125.517 17.68C125.321 18.0533 125.223 18.492 125.223 18.996V23H123.991V15.496H124.999L125.139 16.868H125.195C125.428 16.4573 125.736 16.1027 126.119 15.804C126.511 15.5053 126.968 15.356 127.491 15.356ZM128.598 15.496H129.914L131.538 19.766C131.678 20.1487 131.804 20.508 131.916 20.844C132.028 21.18 132.112 21.502 132.168 21.81H132.224C132.28 21.5767 132.369 21.2733 132.49 20.9C132.611 20.5173 132.737 20.1347 132.868 19.752L134.394 15.496H135.724L132.49 24.036C132.219 24.7453 131.879 25.31 131.468 25.73C131.057 26.15 130.488 26.36 129.76 26.36C129.536 26.36 129.34 26.346 129.172 26.318C129.004 26.2993 128.859 26.276 128.738 26.248V25.268C128.841 25.2867 128.962 25.3053 129.102 25.324C129.251 25.3427 129.405 25.352 129.564 25.352C129.993 25.352 130.339 25.2307 130.6 24.988C130.861 24.7453 131.071 24.4233 131.23 24.022L131.622 23.028L128.598 15.496ZM140.715 13.004H143.571C144.813 13.004 145.755 13.1907 146.399 13.564C147.043 13.9373 147.365 14.5767 147.365 15.482C147.365 16.07 147.202 16.56 146.875 16.952C146.549 17.3347 146.077 17.582 145.461 17.694V17.764C145.881 17.8387 146.259 17.9647 146.595 18.142C146.941 18.3193 147.211 18.5713 147.407 18.898C147.603 19.2247 147.701 19.6447 147.701 20.158C147.701 21.0633 147.389 21.7633 146.763 22.258C146.147 22.7527 145.303 23 144.229 23H140.715V13.004ZM141.975 17.26H143.823C144.673 17.26 145.256 17.1247 145.573 16.854C145.9 16.574 146.063 16.1633 146.063 15.622C146.063 15.0713 145.867 14.6793 145.475 14.446C145.093 14.2033 144.477 14.082 143.627 14.082H141.975V17.26ZM141.975 18.31V21.936H143.991C144.878 21.936 145.494 21.7633 145.839 21.418C146.185 21.0727 146.357 20.62 146.357 20.06C146.357 19.5373 146.175 19.1173 145.811 18.8C145.457 18.4733 144.817 18.31 143.893 18.31H141.975ZM155.925 15.496V23H154.917L154.735 22.006H154.679C154.436 22.398 154.1 22.6873 153.671 22.874C153.242 23.0513 152.784 23.14 152.299 23.14C151.394 23.14 150.712 22.9253 150.255 22.496C149.798 22.0573 149.569 21.362 149.569 20.41V15.496H150.815V20.326C150.815 21.5207 151.37 22.118 152.481 22.118C153.312 22.118 153.886 21.8847 154.203 21.418C154.53 20.9513 154.693 20.2793 154.693 19.402V15.496H155.925ZM160.813 22.132C161 22.132 161.191 22.118 161.387 22.09C161.583 22.062 161.742 22.0247 161.863 21.978V22.916C161.733 22.9813 161.546 23.0327 161.303 23.07C161.061 23.1167 160.827 23.14 160.603 23.14C160.211 23.14 159.847 23.0747 159.511 22.944C159.185 22.804 158.919 22.566 158.713 22.23C158.508 21.894 158.405 21.4227 158.405 20.816V16.448H157.341V15.86L158.419 15.37L158.909 13.774H159.637V15.496H161.807V16.448H159.637V20.788C159.637 21.2453 159.745 21.586 159.959 21.81C160.183 22.0247 160.468 22.132 160.813 22.132ZM165.872 22.132C166.058 22.132 166.25 22.118 166.446 22.09C166.642 22.062 166.8 22.0247 166.922 21.978V22.916C166.791 22.9813 166.604 23.0327 166.362 23.07C166.119 23.1167 165.886 23.14 165.662 23.14C165.27 23.14 164.906 23.0747 164.57 22.944C164.243 22.804 163.977 22.566 163.772 22.23C163.566 21.894 163.464 21.4227 163.464 20.816V16.448H162.4V15.86L163.478 15.37L163.968 13.774H164.696V15.496H166.866V16.448H164.696V20.788C164.696 21.2453 164.803 21.586 165.018 21.81C165.242 22.0247 165.526 22.132 165.872 22.132ZM174.948 19.234C174.948 20.4753 174.631 21.4367 173.996 22.118C173.371 22.7993 172.522 23.14 171.448 23.14C170.786 23.14 170.193 22.9907 169.67 22.692C169.157 22.384 168.751 21.9407 168.452 21.362C168.154 20.774 168.004 20.0647 168.004 19.234C168.004 17.9927 168.312 17.036 168.928 16.364C169.554 15.692 170.408 15.356 171.49 15.356C172.162 15.356 172.76 15.51 173.282 15.818C173.805 16.1167 174.211 16.5553 174.5 17.134C174.799 17.7033 174.948 18.4033 174.948 19.234ZM169.278 19.234C169.278 20.1207 169.451 20.8253 169.796 21.348C170.151 21.8613 170.711 22.118 171.476 22.118C172.232 22.118 172.788 21.8613 173.142 21.348C173.497 20.8253 173.674 20.1207 173.674 19.234C173.674 18.3473 173.497 17.652 173.142 17.148C172.788 16.644 172.228 16.392 171.462 16.392C170.697 16.392 170.142 16.644 169.796 17.148C169.451 17.652 169.278 18.3473 169.278 19.234ZM180.513 15.356C181.409 15.356 182.086 15.5753 182.543 16.014C183 16.4527 183.229 17.1527 183.229 18.114V23H182.011V18.198C182.011 16.994 181.451 16.392 180.331 16.392C179.5 16.392 178.926 16.6253 178.609 17.092C178.292 17.5587 178.133 18.2307 178.133 19.108V23H176.901V15.496H177.895L178.077 16.518H178.147C178.39 16.126 178.726 15.8367 179.155 15.65C179.584 15.454 180.037 15.356 180.513 15.356Z" fill="white"/>
</svg>
