<svg width="412" height="200" viewBox="0 0 412 200" fill="none" xmlns="http://www.w3.org/2000/svg">
<rect width="412" height="200" fill="white"/>
<path d="M40.5 74C40.5 69.5817 44.0817 66 48.5 66H371.5V126C371.5 130.418 367.918 134 363.5 134H48.5C44.0817 134 40.5 130.418 40.5 126V74Z" fill="#E7F4FB"/>
<path d="M62.038 79.004L59.49 89H57.082L55.724 83.75C55.696 83.6473 55.6587 83.4933 55.612 83.288C55.5747 83.0827 55.528 82.8587 55.472 82.616C55.4253 82.3733 55.3787 82.1447 55.332 81.93C55.2947 81.7153 55.2713 81.5427 55.262 81.412C55.2527 81.5427 55.2247 81.7153 55.178 81.93C55.1407 82.1447 55.0987 82.3733 55.052 82.616C55.0053 82.8493 54.9587 83.0733 54.912 83.288C54.8653 83.4933 54.828 83.652 54.8 83.764L53.456 89H51.048L48.5 79.004H50.586L51.86 84.464C51.916 84.6787 51.9767 84.9493 52.042 85.276C52.1073 85.6027 52.168 85.9293 52.224 86.256C52.28 86.5827 52.322 86.858 52.35 87.082C52.378 86.8487 52.42 86.5733 52.476 86.256C52.532 85.9293 52.588 85.6167 52.644 85.318C52.7093 85.01 52.7653 84.772 52.812 84.604L54.268 79.004H56.27L57.726 84.604C57.7727 84.772 57.824 85.01 57.88 85.318C57.9453 85.6167 58.006 85.9293 58.062 86.256C58.118 86.5827 58.16 86.858 58.188 87.082C58.216 86.8487 58.258 86.5733 58.314 86.256C58.37 85.9293 58.4307 85.6073 58.496 85.29C58.5707 84.9633 58.6313 84.688 58.678 84.464L59.952 79.004H62.038ZM65.2132 78.36V80.53C65.2132 80.9127 65.1992 81.2767 65.1712 81.622C65.1525 81.958 65.1338 82.196 65.1152 82.336H65.2272C65.4698 81.944 65.7825 81.6593 66.1652 81.482C66.5478 81.3047 66.9725 81.216 67.4392 81.216C68.2605 81.216 68.9232 81.44 69.4272 81.888C69.9312 82.3267 70.1832 83.036 70.1832 84.016V89H68.0972V84.534C68.0972 83.4327 67.6865 82.882 66.8652 82.882C66.2398 82.882 65.8058 83.1013 65.5632 83.54C65.3298 83.9693 65.2132 84.59 65.2132 85.402V89H63.1272V78.36H65.2132ZM75.4783 81.216C76.533 81.216 77.3683 81.5193 77.9843 82.126C78.6003 82.7233 78.9083 83.5773 78.9083 84.688V85.696H73.9803C73.999 86.284 74.1717 86.746 74.4983 87.082C74.8343 87.418 75.2963 87.586 75.8843 87.586C76.3697 87.586 76.813 87.5393 77.2143 87.446C77.625 87.3433 78.045 87.1893 78.4743 86.984V88.594C78.0917 88.7807 77.695 88.916 77.2843 89C76.8737 89.0933 76.3743 89.14 75.7863 89.14C75.021 89.14 74.3443 89 73.7563 88.72C73.1683 88.4307 72.7063 88.0013 72.3703 87.432C72.0343 86.8533 71.8663 86.1207 71.8663 85.234C71.8663 84.3473 72.0157 83.6053 72.3143 83.008C72.6223 82.4107 73.047 81.9627 73.5883 81.664C74.1297 81.3653 74.7597 81.216 75.4783 81.216ZM75.4923 82.7C75.0817 82.7 74.7457 82.8307 74.4843 83.092C74.223 83.3533 74.069 83.7593 74.0223 84.31H76.9483C76.939 83.8527 76.813 83.47 76.5703 83.162C76.337 82.854 75.9777 82.7 75.4923 82.7ZM84.8698 81.216C84.9725 81.216 85.0938 81.2207 85.2338 81.23C85.3738 81.2393 85.4858 81.2533 85.5698 81.272L85.4158 83.232C85.3411 83.2133 85.2431 83.1993 85.1218 83.19C85.0005 83.1713 84.8931 83.162 84.7998 83.162C84.4451 83.162 84.1045 83.2273 83.7778 83.358C83.4511 83.4793 83.1851 83.68 82.9798 83.96C82.7838 84.24 82.6858 84.6227 82.6858 85.108V89H80.5998V81.356H82.1818L82.4898 82.644H82.5878C82.8118 82.252 83.1198 81.916 83.5118 81.636C83.9038 81.356 84.3565 81.216 84.8698 81.216ZM89.8338 81.216C90.8885 81.216 91.7238 81.5193 92.3398 82.126C92.9558 82.7233 93.2638 83.5773 93.2638 84.688V85.696H88.3358C88.3545 86.284 88.5271 86.746 88.8538 87.082C89.1898 87.418 89.6518 87.586 90.2398 87.586C90.7251 87.586 91.1685 87.5393 91.5698 87.446C91.9805 87.3433 92.4005 87.1893 92.8298 86.984V88.594C92.4471 88.7807 92.0505 88.916 91.6398 89C91.2291 89.0933 90.7298 89.14 90.1418 89.14C89.3765 89.14 88.6998 89 88.1118 88.72C87.5238 88.4307 87.0618 88.0013 86.7258 87.432C86.3898 86.8533 86.2218 86.1207 86.2218 85.234C86.2218 84.3473 86.3711 83.6053 86.6698 83.008C86.9778 82.4107 87.4025 81.9627 87.9438 81.664C88.4851 81.3653 89.1151 81.216 89.8338 81.216ZM89.8478 82.7C89.4371 82.7 89.1011 82.8307 88.8398 83.092C88.5785 83.3533 88.4245 83.7593 88.3778 84.31H91.3038C91.2945 83.8527 91.1685 83.47 90.9258 83.162C90.6925 82.854 90.3331 82.7 89.8478 82.7ZM104.878 89L104.29 86.326C104.253 86.1673 104.197 85.934 104.122 85.626C104.057 85.3087 103.982 84.9727 103.898 84.618C103.814 84.254 103.735 83.9227 103.66 83.624C103.585 83.316 103.534 83.092 103.506 82.952H103.45C103.422 83.092 103.371 83.316 103.296 83.624C103.231 83.9227 103.156 84.254 103.072 84.618C102.988 84.9727 102.909 85.3087 102.834 85.626C102.759 85.9433 102.703 86.186 102.666 86.354L102.05 89H99.81L97.64 81.356H99.712L100.594 84.744C100.659 84.9867 100.715 85.2713 100.762 85.598C100.818 85.9153 100.865 86.228 100.902 86.536C100.949 86.8347 100.986 87.0727 101.014 87.25H101.07C101.079 87.1193 101.098 86.9467 101.126 86.732C101.154 86.508 101.187 86.2793 101.224 86.046C101.271 85.8127 101.308 85.6027 101.336 85.416C101.373 85.2293 101.401 85.0987 101.42 85.024L102.358 81.356H104.654L105.55 85.024C105.578 85.1547 105.62 85.3647 105.676 85.654C105.732 85.9433 105.779 86.2373 105.816 86.536C105.853 86.8347 105.877 87.0727 105.886 87.25H105.942C105.961 87.0913 105.993 86.8627 106.04 86.564C106.087 86.256 106.138 85.9387 106.194 85.612C106.259 85.276 106.325 84.9867 106.39 84.744L107.3 81.356H109.344L107.146 89H104.878ZM117.526 85.164C117.526 86.4333 117.19 87.4133 116.518 88.104C115.856 88.7947 114.95 89.14 113.802 89.14C113.093 89.14 112.458 88.986 111.898 88.678C111.348 88.37 110.914 87.922 110.596 87.334C110.279 86.7367 110.12 86.0133 110.12 85.164C110.12 83.8947 110.452 82.9193 111.114 82.238C111.777 81.5567 112.687 81.216 113.844 81.216C114.563 81.216 115.198 81.37 115.748 81.678C116.299 81.986 116.733 82.434 117.05 83.022C117.368 83.61 117.526 84.324 117.526 85.164ZM112.248 85.164C112.248 85.92 112.37 86.494 112.612 86.886C112.864 87.2687 113.27 87.46 113.83 87.46C114.381 87.46 114.778 87.2687 115.02 86.886C115.272 86.494 115.398 85.92 115.398 85.164C115.398 84.408 115.272 83.8433 115.02 83.47C114.778 83.0873 114.376 82.896 113.816 82.896C113.266 82.896 112.864 83.0873 112.612 83.47C112.37 83.8433 112.248 84.408 112.248 85.164ZM126.264 81.356V89H124.668L124.388 88.02H124.276C124.034 88.412 123.698 88.6967 123.268 88.874C122.848 89.0513 122.4 89.14 121.924 89.14C121.103 89.14 120.445 88.9207 119.95 88.482C119.456 88.034 119.208 87.32 119.208 86.34V81.356H121.294V85.822C121.294 86.3727 121.392 86.788 121.588 87.068C121.784 87.3387 122.097 87.474 122.526 87.474C123.161 87.474 123.595 87.2593 123.828 86.83C124.062 86.3913 124.178 85.766 124.178 84.954V81.356H126.264ZM130.537 89H128.451V78.36H130.537V89ZM135.139 89.14C134.29 89.14 133.594 88.8087 133.053 88.146C132.521 87.474 132.255 86.4893 132.255 85.192C132.255 83.8853 132.526 82.896 133.067 82.224C133.608 81.552 134.318 81.216 135.195 81.216C135.746 81.216 136.198 81.3233 136.553 81.538C136.908 81.7527 137.188 82.0187 137.393 82.336H137.463C137.435 82.1867 137.402 81.972 137.365 81.692C137.328 81.4027 137.309 81.1087 137.309 80.81V78.36H139.395V89H137.799L137.393 88.006H137.309C137.104 88.3233 136.828 88.594 136.483 88.818C136.138 89.0327 135.69 89.14 135.139 89.14ZM135.867 87.474C136.436 87.474 136.838 87.306 137.071 86.97C137.304 86.6247 137.43 86.1113 137.449 85.43V85.206C137.449 84.4687 137.332 83.904 137.099 83.512C136.875 83.1107 136.455 82.91 135.839 82.91C135.382 82.91 135.022 83.1107 134.761 83.512C134.5 83.904 134.369 84.4733 134.369 85.22C134.369 85.9667 134.5 86.5313 134.761 86.914C135.022 87.2873 135.391 87.474 135.867 87.474ZM144.121 81.356H146.403L147.845 85.654C147.92 85.8687 147.976 86.0833 148.013 86.298C148.05 86.5127 148.078 86.7413 148.097 86.984H148.139C148.167 86.7413 148.204 86.5127 148.251 86.298C148.298 86.0833 148.358 85.8687 148.433 85.654L149.847 81.356H152.087L148.853 89.98C148.554 90.7733 148.13 91.366 147.579 91.758C147.028 92.1593 146.389 92.36 145.661 92.36C145.418 92.36 145.213 92.346 145.045 92.318C144.877 92.2993 144.728 92.276 144.597 92.248V90.596C144.69 90.6147 144.812 90.6333 144.961 90.652C145.11 90.6707 145.264 90.68 145.423 90.68C145.862 90.68 146.207 90.5447 146.459 90.274C146.711 90.0127 146.902 89.6953 147.033 89.322L147.159 88.944L144.121 81.356ZM160.128 85.164C160.128 86.4333 159.792 87.4133 159.12 88.104C158.457 88.7947 157.552 89.14 156.404 89.14C155.694 89.14 155.06 88.986 154.5 88.678C153.949 88.37 153.515 87.922 153.198 87.334C152.88 86.7367 152.722 86.0133 152.722 85.164C152.722 83.8947 153.053 82.9193 153.716 82.238C154.378 81.5567 155.288 81.216 156.446 81.216C157.164 81.216 157.799 81.37 158.35 81.678C158.9 81.986 159.334 82.434 159.652 83.022C159.969 83.61 160.128 84.324 160.128 85.164ZM154.85 85.164C154.85 85.92 154.971 86.494 155.214 86.886C155.466 87.2687 155.872 87.46 156.432 87.46C156.982 87.46 157.379 87.2687 157.622 86.886C157.874 86.494 158 85.92 158 85.164C158 84.408 157.874 83.8433 157.622 83.47C157.379 83.0873 156.978 82.896 156.418 82.896C155.867 82.896 155.466 83.0873 155.214 83.47C154.971 83.8433 154.85 84.408 154.85 85.164ZM168.866 81.356V89H167.27L166.99 88.02H166.878C166.635 88.412 166.299 88.6967 165.87 88.874C165.45 89.0513 165.002 89.14 164.526 89.14C163.704 89.14 163.046 88.9207 162.552 88.482C162.057 88.034 161.81 87.32 161.81 86.34V81.356H163.896V85.822C163.896 86.3727 163.994 86.788 164.19 87.068C164.386 87.3387 164.698 87.474 165.128 87.474C165.762 87.474 166.196 87.2593 166.43 86.83C166.663 86.3913 166.78 85.766 166.78 84.954V81.356H168.866ZM176.776 89H174.69V78.36H176.776V89ZM180.005 78.36C180.313 78.36 180.579 78.4347 180.803 78.584C181.027 78.724 181.139 78.99 181.139 79.382C181.139 79.7647 181.027 80.0307 180.803 80.18C180.579 80.3293 180.313 80.404 180.005 80.404C179.688 80.404 179.417 80.3293 179.193 80.18C178.979 80.0307 178.871 79.7647 178.871 79.382C178.871 78.99 178.979 78.724 179.193 78.584C179.417 78.4347 179.688 78.36 180.005 78.36ZM181.041 81.356V89H178.955V81.356H181.041ZM185.307 78.36V83.12C185.307 83.4093 185.293 83.6987 185.265 83.988C185.246 84.268 185.223 84.5527 185.195 84.842H185.223C185.363 84.646 185.508 84.45 185.657 84.254C185.806 84.058 185.965 83.8667 186.133 83.68L188.275 81.356H190.627L187.589 84.674L190.809 89H188.401L186.203 85.906L185.307 86.62V89H183.221V78.36H185.307ZM195.053 81.216C196.107 81.216 196.943 81.5193 197.559 82.126C198.175 82.7233 198.483 83.5773 198.483 84.688V85.696H193.555C193.573 86.284 193.746 86.746 194.073 87.082C194.409 87.418 194.871 87.586 195.459 87.586C195.944 87.586 196.387 87.5393 196.789 87.446C197.199 87.3433 197.619 87.1893 198.049 86.984V88.594C197.666 88.7807 197.269 88.916 196.859 89C196.448 89.0933 195.949 89.14 195.361 89.14C194.595 89.14 193.919 89 193.331 88.72C192.743 88.4307 192.281 88.0013 191.945 87.432C191.609 86.8533 191.441 86.1207 191.441 85.234C191.441 84.3473 191.59 83.6053 191.889 83.008C192.197 82.4107 192.621 81.9627 193.163 81.664C193.704 81.3653 194.334 81.216 195.053 81.216ZM195.067 82.7C194.656 82.7 194.32 82.8307 194.059 83.092C193.797 83.3533 193.643 83.7593 193.597 84.31H196.523C196.513 83.8527 196.387 83.47 196.145 83.162C195.911 82.854 195.552 82.7 195.067 82.7ZM207.031 87.474C207.264 87.474 207.488 87.4553 207.703 87.418C207.917 87.3713 208.132 87.3107 208.347 87.236V88.79C208.123 88.8927 207.843 88.9767 207.507 89.042C207.18 89.1073 206.821 89.14 206.429 89.14C205.971 89.14 205.561 89.0653 205.197 88.916C204.842 88.7667 204.557 88.51 204.343 88.146C204.137 87.782 204.035 87.2687 204.035 86.606V82.924H203.041V82.042L204.189 81.342L204.791 79.732H206.121V81.356H208.263V82.924H206.121V86.606C206.121 86.8953 206.205 87.1147 206.373 87.264C206.541 87.404 206.76 87.474 207.031 87.474ZM216.825 85.164C216.825 86.4333 216.489 87.4133 215.817 88.104C215.154 88.7947 214.249 89.14 213.101 89.14C212.392 89.14 211.757 88.986 211.197 88.678C210.646 88.37 210.212 87.922 209.895 87.334C209.578 86.7367 209.419 86.0133 209.419 85.164C209.419 83.8947 209.75 82.9193 210.413 82.238C211.076 81.5567 211.986 81.216 213.143 81.216C213.862 81.216 214.496 81.37 215.047 81.678C215.598 81.986 216.032 82.434 216.349 83.022C216.666 83.61 216.825 84.324 216.825 85.164ZM211.547 85.164C211.547 85.92 211.668 86.494 211.911 86.886C212.163 87.2687 212.569 87.46 213.129 87.46C213.68 87.46 214.076 87.2687 214.319 86.886C214.571 86.494 214.697 85.92 214.697 85.164C214.697 84.408 214.571 83.8433 214.319 83.47C214.076 83.0873 213.675 82.896 213.115 82.896C212.564 82.896 212.163 83.0873 211.911 83.47C211.668 83.8433 211.547 84.408 211.547 85.164ZM227.52 86.732C227.52 87.5067 227.244 88.104 226.694 88.524C226.152 88.9347 225.34 89.14 224.258 89.14C223.726 89.14 223.268 89.1027 222.886 89.028C222.503 88.9627 222.12 88.8507 221.738 88.692V86.97C222.148 87.1567 222.592 87.3107 223.068 87.432C223.544 87.5533 223.964 87.614 224.328 87.614C224.729 87.614 225.018 87.5533 225.196 87.432C225.373 87.3107 225.462 87.152 225.462 86.956C225.462 86.8253 225.424 86.7087 225.35 86.606C225.284 86.5033 225.135 86.3867 224.902 86.256C224.668 86.1253 224.304 85.9573 223.81 85.752C223.324 85.5467 222.928 85.346 222.62 85.15C222.321 84.9447 222.097 84.702 221.948 84.422C221.798 84.1327 221.724 83.7733 221.724 83.344C221.724 82.6347 221.999 82.1027 222.55 81.748C223.1 81.3933 223.833 81.216 224.748 81.216C225.224 81.216 225.676 81.2627 226.106 81.356C226.535 81.4493 226.978 81.6033 227.436 81.818L226.806 83.316C226.432 83.1573 226.078 83.0267 225.742 82.924C225.406 82.812 225.065 82.756 224.72 82.756C224.104 82.756 223.796 82.924 223.796 83.26C223.796 83.3813 223.833 83.4933 223.908 83.596C223.992 83.6893 224.146 83.792 224.37 83.904C224.603 84.016 224.944 84.1653 225.392 84.352C225.83 84.5293 226.208 84.716 226.526 84.912C226.843 85.0987 227.086 85.3367 227.254 85.626C227.431 85.9153 227.52 86.284 227.52 86.732ZM231.231 78.36V80.53C231.231 80.9127 231.217 81.2767 231.189 81.622C231.17 81.958 231.151 82.196 231.133 82.336H231.245C231.487 81.944 231.8 81.6593 232.183 81.482C232.565 81.3047 232.99 81.216 233.457 81.216C234.278 81.216 234.941 81.44 235.445 81.888C235.949 82.3267 236.201 83.036 236.201 84.016V89H234.115V84.534C234.115 83.4327 233.704 82.882 232.883 82.882C232.257 82.882 231.823 83.1013 231.581 83.54C231.347 83.9693 231.231 84.59 231.231 85.402V89H229.145V78.36H231.231ZM239.396 78.36C239.704 78.36 239.97 78.4347 240.194 78.584C240.418 78.724 240.53 78.99 240.53 79.382C240.53 79.7647 240.418 80.0307 240.194 80.18C239.97 80.3293 239.704 80.404 239.396 80.404C239.079 80.404 238.808 80.3293 238.584 80.18C238.369 80.0307 238.262 79.7647 238.262 79.382C238.262 78.99 238.369 78.724 238.584 78.584C238.808 78.4347 239.079 78.36 239.396 78.36ZM240.432 81.356V89H238.346V81.356H240.432ZM246.868 81.216C247.726 81.216 248.422 81.552 248.954 82.224C249.486 82.8867 249.752 83.8667 249.752 85.164C249.752 86.4707 249.476 87.46 248.926 88.132C248.375 88.804 247.67 89.14 246.812 89.14C246.261 89.14 245.822 89.042 245.496 88.846C245.169 88.6407 244.903 88.412 244.698 88.16H244.586C244.66 88.552 244.698 88.9253 244.698 89.28V92.36H242.612V81.356H244.306L244.6 82.35H244.698C244.903 82.042 245.178 81.776 245.524 81.552C245.869 81.328 246.317 81.216 246.868 81.216ZM246.196 82.882C245.654 82.882 245.272 83.0547 245.048 83.4C244.824 83.736 244.707 84.2447 244.698 84.926V85.15C244.698 85.8873 244.805 86.4567 245.02 86.858C245.244 87.25 245.645 87.446 246.224 87.446C246.7 87.446 247.05 87.25 247.274 86.858C247.507 86.4567 247.624 85.8827 247.624 85.136C247.624 83.6333 247.148 82.882 246.196 82.882ZM254.016 81.356H256.298L257.74 85.654C257.814 85.8687 257.87 86.0833 257.908 86.298C257.945 86.5127 257.973 86.7413 257.992 86.984H258.034C258.062 86.7413 258.099 86.5127 258.146 86.298C258.192 86.0833 258.253 85.8687 258.328 85.654L259.742 81.356H261.982L258.748 89.98C258.449 90.7733 258.024 91.366 257.474 91.758C256.923 92.1593 256.284 92.36 255.556 92.36C255.313 92.36 255.108 92.346 254.94 92.318C254.772 92.2993 254.622 92.276 254.492 92.248V90.596C254.585 90.6147 254.706 90.6333 254.856 90.652C255.005 90.6707 255.159 90.68 255.318 90.68C255.756 90.68 256.102 90.5447 256.354 90.274C256.606 90.0127 256.797 89.6953 256.928 89.322L257.054 88.944L254.016 81.356ZM270.022 85.164C270.022 86.4333 269.686 87.4133 269.014 88.104C268.352 88.7947 267.446 89.14 266.298 89.14C265.589 89.14 264.954 88.986 264.394 88.678C263.844 88.37 263.41 87.922 263.092 87.334C262.775 86.7367 262.616 86.0133 262.616 85.164C262.616 83.8947 262.948 82.9193 263.61 82.238C264.273 81.5567 265.183 81.216 266.34 81.216C267.059 81.216 267.694 81.37 268.244 81.678C268.795 81.986 269.229 82.434 269.546 83.022C269.864 83.61 270.022 84.324 270.022 85.164ZM264.744 85.164C264.744 85.92 264.866 86.494 265.108 86.886C265.36 87.2687 265.766 87.46 266.326 87.46C266.877 87.46 267.274 87.2687 267.516 86.886C267.768 86.494 267.894 85.92 267.894 85.164C267.894 84.408 267.768 83.8433 267.516 83.47C267.274 83.0873 266.872 82.896 266.312 82.896C265.762 82.896 265.36 83.0873 265.108 83.47C264.866 83.8433 264.744 84.408 264.744 85.164ZM278.76 81.356V89H277.164L276.884 88.02H276.772C276.53 88.412 276.194 88.6967 275.764 88.874C275.344 89.0513 274.896 89.14 274.42 89.14C273.599 89.14 272.941 88.9207 272.446 88.482C271.952 88.034 271.704 87.32 271.704 86.34V81.356H273.79V85.822C273.79 86.3727 273.888 86.788 274.084 87.068C274.28 87.3387 274.593 87.474 275.022 87.474C275.657 87.474 276.091 87.2593 276.324 86.83C276.558 86.3913 276.674 85.766 276.674 84.954V81.356H278.76ZM285.217 81.216C285.32 81.216 285.441 81.2207 285.581 81.23C285.721 81.2393 285.833 81.2533 285.917 81.272L285.763 83.232C285.689 83.2133 285.591 83.1993 285.469 83.19C285.348 83.1713 285.241 83.162 285.147 83.162C284.793 83.162 284.452 83.2273 284.125 83.358C283.799 83.4793 283.533 83.68 283.327 83.96C283.131 84.24 283.033 84.6227 283.033 85.108V89H280.947V81.356H282.529L282.837 82.644H282.935C283.159 82.252 283.467 81.916 283.859 81.636C284.251 81.356 284.704 81.216 285.217 81.216ZM297.886 85.164C297.886 86.4333 297.55 87.4133 296.878 88.104C296.215 88.7947 295.31 89.14 294.162 89.14C293.452 89.14 292.818 88.986 292.258 88.678C291.707 88.37 291.273 87.922 290.956 87.334C290.638 86.7367 290.48 86.0133 290.48 85.164C290.48 83.8947 290.811 82.9193 291.474 82.238C292.136 81.5567 293.046 81.216 294.204 81.216C294.922 81.216 295.557 81.37 296.108 81.678C296.658 81.986 297.092 82.434 297.41 83.022C297.727 83.61 297.886 84.324 297.886 85.164ZM292.608 85.164C292.608 85.92 292.729 86.494 292.972 86.886C293.224 87.2687 293.63 87.46 294.19 87.46C294.74 87.46 295.137 87.2687 295.38 86.886C295.632 86.494 295.758 85.92 295.758 85.164C295.758 84.408 295.632 83.8433 295.38 83.47C295.137 83.0873 294.736 82.896 294.176 82.896C293.625 82.896 293.224 83.0873 292.972 83.47C292.729 83.8433 292.608 84.408 292.608 85.164ZM303.88 81.216C303.982 81.216 304.104 81.2207 304.244 81.23C304.384 81.2393 304.496 81.2533 304.58 81.272L304.426 83.232C304.351 83.2133 304.253 83.1993 304.132 83.19C304.01 83.1713 303.903 83.162 303.81 83.162C303.455 83.162 303.114 83.2273 302.788 83.358C302.461 83.4793 302.195 83.68 301.99 83.96C301.794 84.24 301.696 84.6227 301.696 85.108V89H299.61V81.356H301.192L301.5 82.644H301.598C301.822 82.252 302.13 81.916 302.522 81.636C302.914 81.356 303.366 81.216 303.88 81.216ZM308.116 89.14C307.266 89.14 306.571 88.8087 306.03 88.146C305.498 87.474 305.232 86.4893 305.232 85.192C305.232 83.8853 305.502 82.896 306.044 82.224C306.585 81.552 307.294 81.216 308.172 81.216C308.722 81.216 309.175 81.3233 309.53 81.538C309.884 81.7527 310.164 82.0187 310.37 82.336H310.44C310.412 82.1867 310.379 81.972 310.342 81.692C310.304 81.4027 310.286 81.1087 310.286 80.81V78.36H312.372V89H310.776L310.37 88.006H310.286C310.08 88.3233 309.805 88.594 309.46 88.818C309.114 89.0327 308.666 89.14 308.116 89.14ZM308.844 87.474C309.413 87.474 309.814 87.306 310.048 86.97C310.281 86.6247 310.407 86.1113 310.426 85.43V85.206C310.426 84.4687 310.309 83.904 310.076 83.512C309.852 83.1107 309.432 82.91 308.816 82.91C308.358 82.91 307.999 83.1107 307.738 83.512C307.476 83.904 307.346 84.4733 307.346 85.22C307.346 85.9667 307.476 86.5313 307.738 86.914C307.999 87.2873 308.368 87.474 308.844 87.474ZM317.703 81.216C318.758 81.216 319.593 81.5193 320.209 82.126C320.825 82.7233 321.133 83.5773 321.133 84.688V85.696H316.205C316.224 86.284 316.396 86.746 316.723 87.082C317.059 87.418 317.521 87.586 318.109 87.586C318.594 87.586 319.038 87.5393 319.439 87.446C319.85 87.3433 320.27 87.1893 320.699 86.984V88.594C320.316 88.7807 319.92 88.916 319.509 89C319.098 89.0933 318.599 89.14 318.011 89.14C317.246 89.14 316.569 89 315.981 88.72C315.393 88.4307 314.931 88.0013 314.595 87.432C314.259 86.8533 314.091 86.1207 314.091 85.234C314.091 84.3473 314.24 83.6053 314.539 83.008C314.847 82.4107 315.272 81.9627 315.813 81.664C316.354 81.3653 316.984 81.216 317.703 81.216ZM317.717 82.7C317.306 82.7 316.97 82.8307 316.709 83.092C316.448 83.3533 316.294 83.7593 316.247 84.31H319.173C319.164 83.8527 319.038 83.47 318.795 83.162C318.562 82.854 318.202 82.7 317.717 82.7ZM327.094 81.216C327.197 81.216 327.318 81.2207 327.458 81.23C327.598 81.2393 327.71 81.2533 327.794 81.272L327.64 83.232C327.566 83.2133 327.468 83.1993 327.346 83.19C327.225 83.1713 327.118 83.162 327.024 83.162C326.67 83.162 326.329 83.2273 326.002 83.358C325.676 83.4793 325.41 83.68 325.204 83.96C325.008 84.24 324.91 84.6227 324.91 85.108V89H322.824V81.356H324.406L324.714 82.644H324.812C325.036 82.252 325.344 81.916 325.736 81.636C326.128 81.356 326.581 81.216 327.094 81.216ZM329.98 85.682V85.178C329.98 84.7207 330.078 84.3333 330.274 84.016C330.47 83.6893 330.806 83.3533 331.282 83.008C331.702 82.7093 332.001 82.4527 332.178 82.238C332.365 82.014 332.458 81.7527 332.458 81.454C332.458 81.1647 332.346 80.9407 332.122 80.782C331.907 80.6233 331.604 80.544 331.212 80.544C330.82 80.544 330.433 80.6047 330.05 80.726C329.667 80.8473 329.275 81.0107 328.874 81.216L328.132 79.718C328.589 79.466 329.084 79.2607 329.616 79.102C330.148 78.9433 330.731 78.864 331.366 78.864C332.337 78.864 333.088 79.0973 333.62 79.564C334.161 80.0307 334.432 80.6233 334.432 81.342C334.432 81.7247 334.371 82.056 334.25 82.336C334.129 82.616 333.947 82.8773 333.704 83.12C333.461 83.3627 333.158 83.6147 332.794 83.876C332.514 84.0813 332.299 84.254 332.15 84.394C332.01 84.5247 331.912 84.66 331.856 84.8C331.809 84.9307 331.786 85.0893 331.786 85.276V85.682H329.98ZM329.756 88.02C329.756 87.5907 329.873 87.292 330.106 87.124C330.339 86.9467 330.624 86.858 330.96 86.858C331.287 86.858 331.567 86.9467 331.8 87.124C332.033 87.292 332.15 87.5907 332.15 88.02C332.15 88.4307 332.033 88.7293 331.8 88.916C331.567 89.0933 331.287 89.182 330.96 89.182C330.624 89.182 330.339 89.0933 330.106 88.916C329.873 88.7293 329.756 88.4307 329.756 88.02Z" fill="black"/>
<rect x="49" y="102.5" width="92" height="23" rx="1.5" fill="white"/>
<path d="M62.524 116.708C62.524 117.468 62.248 118.06 61.696 118.484C61.144 118.908 60.4 119.12 59.464 119.12C58.984 119.12 58.54 119.084 58.132 119.012C57.724 118.94 57.384 118.84 57.112 118.712V117.68C57.4 117.808 57.756 117.924 58.18 118.028C58.612 118.132 59.056 118.184 59.512 118.184C60.144 118.184 60.624 118.06 60.952 117.812C61.28 117.564 61.444 117.228 61.444 116.804C61.444 116.524 61.384 116.288 61.264 116.096C61.144 115.904 60.936 115.728 60.64 115.568C60.344 115.408 59.94 115.232 59.428 115.04C58.692 114.776 58.14 114.452 57.772 114.068C57.404 113.684 57.22 113.16 57.22 112.496C57.22 112.048 57.336 111.66 57.568 111.332C57.8 111.004 58.12 110.752 58.528 110.576C58.936 110.4 59.412 110.312 59.956 110.312C60.42 110.312 60.848 110.356 61.24 110.444C61.632 110.532 61.992 110.648 62.32 110.792L61.984 111.716C61.688 111.588 61.364 111.48 61.012 111.392C60.66 111.304 60.3 111.26 59.932 111.26C59.396 111.26 58.992 111.376 58.72 111.608C58.448 111.832 58.312 112.132 58.312 112.508C58.312 112.796 58.372 113.036 58.492 113.228C58.612 113.42 58.808 113.596 59.08 113.756C59.352 113.908 59.72 114.068 60.184 114.236C60.688 114.42 61.112 114.62 61.456 114.836C61.808 115.044 62.072 115.296 62.248 115.592C62.432 115.888 62.524 116.26 62.524 116.708ZM65.1619 109.88V112.556C65.1619 112.876 65.1419 113.176 65.1019 113.456H65.1739C65.3819 113.128 65.6619 112.88 66.0139 112.712C66.3739 112.544 66.7619 112.46 67.1779 112.46C67.9539 112.46 68.5379 112.648 68.9299 113.024C69.3299 113.392 69.5299 113.988 69.5299 114.812V119H68.4859V114.884C68.4859 113.852 68.0059 113.336 67.0459 113.336C66.3259 113.336 65.8299 113.54 65.5579 113.948C65.2939 114.348 65.1619 114.924 65.1619 115.676V119H64.1059V109.88H65.1619ZM72.0639 110.156C72.2239 110.156 72.3639 110.212 72.4839 110.324C72.6119 110.428 72.6759 110.596 72.6759 110.828C72.6759 111.06 72.6119 111.232 72.4839 111.344C72.3639 111.448 72.2239 111.5 72.0639 111.5C71.8879 111.5 71.7399 111.448 71.6199 111.344C71.4999 111.232 71.4399 111.06 71.4399 110.828C71.4399 110.596 71.4999 110.428 71.6199 110.324C71.7399 110.212 71.8879 110.156 72.0639 110.156ZM72.5799 112.568V119H71.5239V112.568H72.5799ZM77.6777 112.448C78.4697 112.448 79.1057 112.724 79.5857 113.276C80.0737 113.828 80.3177 114.66 80.3177 115.772C80.3177 116.868 80.0737 117.7 79.5857 118.268C79.1057 118.836 78.4657 119.12 77.6657 119.12C77.1697 119.12 76.7577 119.028 76.4297 118.844C76.1097 118.66 75.8577 118.44 75.6737 118.184H75.6017C75.6097 118.32 75.6217 118.492 75.6377 118.7C75.6617 118.908 75.6737 119.088 75.6737 119.24V121.88H74.6177V112.568H75.4817L75.6257 113.444H75.6737C75.8657 113.164 76.1177 112.928 76.4297 112.736C76.7417 112.544 77.1577 112.448 77.6777 112.448ZM77.4857 113.336C76.8297 113.336 76.3657 113.52 76.0937 113.888C75.8217 114.256 75.6817 114.816 75.6737 115.568V115.772C75.6737 116.564 75.8017 117.176 76.0577 117.608C76.3217 118.032 76.8057 118.244 77.5097 118.244C77.8937 118.244 78.2137 118.14 78.4697 117.932C78.7257 117.716 78.9137 117.42 79.0337 117.044C79.1617 116.668 79.2257 116.24 79.2257 115.76C79.2257 115.024 79.0817 114.436 78.7937 113.996C78.5137 113.556 78.0777 113.336 77.4857 113.336ZM87.2657 118.256C87.4257 118.256 87.5897 118.244 87.7577 118.22C87.9257 118.196 88.0617 118.164 88.1657 118.124V118.928C88.0537 118.984 87.8937 119.028 87.6857 119.06C87.4777 119.1 87.2777 119.12 87.0857 119.12C86.7497 119.12 86.4377 119.064 86.1497 118.952C85.8697 118.832 85.6417 118.628 85.4657 118.34C85.2897 118.052 85.2017 117.648 85.2017 117.128V113.384H84.2897V112.88L85.2137 112.46L85.6337 111.092H86.2577V112.568H88.1177V113.384H86.2577V117.104C86.2577 117.496 86.3497 117.788 86.5337 117.98C86.7257 118.164 86.9697 118.256 87.2657 118.256ZM95.0456 115.772C95.0456 116.836 94.7736 117.66 94.2296 118.244C93.6936 118.828 92.9656 119.12 92.0456 119.12C91.4776 119.12 90.9696 118.992 90.5216 118.736C90.0816 118.472 89.7336 118.092 89.4776 117.596C89.2216 117.092 89.0936 116.484 89.0936 115.772C89.0936 114.708 89.3576 113.888 89.8856 113.312C90.4216 112.736 91.1536 112.448 92.0816 112.448C92.6576 112.448 93.1696 112.58 93.6176 112.844C94.0656 113.1 94.4136 113.476 94.6616 113.972C94.9176 114.46 95.0456 115.06 95.0456 115.772ZM90.1856 115.772C90.1856 116.532 90.3336 117.136 90.6296 117.584C90.9336 118.024 91.4136 118.244 92.0696 118.244C92.7176 118.244 93.1936 118.024 93.4976 117.584C93.8016 117.136 93.9536 116.532 93.9536 115.772C93.9536 115.012 93.8016 114.416 93.4976 113.984C93.1936 113.552 92.7136 113.336 92.0576 113.336C91.4016 113.336 90.9256 113.552 90.6296 113.984C90.3336 114.416 90.1856 115.012 90.1856 115.772ZM106.532 119H105.452V115.004H101.06V119H99.9804V110.432H101.06V114.056H105.452V110.432H106.532V119ZM114.323 115.772C114.323 116.836 114.051 117.66 113.507 118.244C112.971 118.828 112.243 119.12 111.323 119.12C110.755 119.12 110.247 118.992 109.799 118.736C109.359 118.472 109.011 118.092 108.755 117.596C108.499 117.092 108.371 116.484 108.371 115.772C108.371 114.708 108.635 113.888 109.163 113.312C109.699 112.736 110.431 112.448 111.359 112.448C111.935 112.448 112.447 112.58 112.895 112.844C113.343 113.1 113.691 113.476 113.939 113.972C114.195 114.46 114.323 115.06 114.323 115.772ZM109.463 115.772C109.463 116.532 109.611 117.136 109.907 117.584C110.211 118.024 110.691 118.244 111.347 118.244C111.995 118.244 112.471 118.024 112.775 117.584C113.079 117.136 113.231 116.532 113.231 115.772C113.231 115.012 113.079 114.416 112.775 113.984C112.471 113.552 111.991 113.336 111.335 113.336C110.679 113.336 110.203 113.552 109.907 113.984C109.611 114.416 109.463 115.012 109.463 115.772ZM123.053 112.448C123.781 112.448 124.325 112.636 124.685 113.012C125.045 113.388 125.225 113.988 125.225 114.812V119H124.181V114.86C124.181 113.844 123.745 113.336 122.873 113.336C122.249 113.336 121.801 113.516 121.529 113.876C121.265 114.236 121.133 114.76 121.133 115.448V119H120.089V114.86C120.089 113.844 119.649 113.336 118.769 113.336C118.121 113.336 117.673 113.536 117.425 113.936C117.177 114.336 117.053 114.912 117.053 115.664V119H115.997V112.568H116.849L117.005 113.444H117.065C117.265 113.108 117.533 112.86 117.869 112.7C118.213 112.532 118.577 112.448 118.961 112.448C119.969 112.448 120.625 112.808 120.929 113.528H120.989C121.205 113.16 121.497 112.888 121.865 112.712C122.233 112.536 122.629 112.448 123.053 112.448ZM129.695 112.448C130.239 112.448 130.711 112.568 131.111 112.808C131.511 113.048 131.815 113.388 132.023 113.828C132.239 114.26 132.347 114.768 132.347 115.352V115.988H127.943C127.959 116.716 128.143 117.272 128.495 117.656C128.855 118.032 129.355 118.22 129.995 118.22C130.403 118.22 130.763 118.184 131.075 118.112C131.395 118.032 131.723 117.92 132.059 117.776V118.7C131.731 118.844 131.407 118.948 131.087 119.012C130.767 119.084 130.387 119.12 129.947 119.12C129.331 119.12 128.791 118.996 128.327 118.748C127.863 118.5 127.499 118.132 127.235 117.644C126.979 117.156 126.851 116.552 126.851 115.832C126.851 115.128 126.967 114.524 127.199 114.02C127.439 113.516 127.771 113.128 128.195 112.856C128.627 112.584 129.127 112.448 129.695 112.448ZM129.683 113.312C129.179 113.312 128.779 113.476 128.483 113.804C128.195 114.124 128.023 114.572 127.967 115.148H131.243C131.235 114.604 131.107 114.164 130.859 113.828C130.611 113.484 130.219 113.312 129.683 113.312Z" fill="#1B77AF"/>
<rect x="49" y="102.5" width="92" height="23" rx="1.5" stroke="#1B77AF"/>
<rect x="150" y="102.5" width="91" height="23" rx="1.5" fill="white"/>
<path d="M163.524 116.708C163.524 117.468 163.248 118.06 162.696 118.484C162.144 118.908 161.4 119.12 160.464 119.12C159.984 119.12 159.54 119.084 159.132 119.012C158.724 118.94 158.384 118.84 158.112 118.712V117.68C158.4 117.808 158.756 117.924 159.18 118.028C159.612 118.132 160.056 118.184 160.512 118.184C161.144 118.184 161.624 118.06 161.952 117.812C162.28 117.564 162.444 117.228 162.444 116.804C162.444 116.524 162.384 116.288 162.264 116.096C162.144 115.904 161.936 115.728 161.64 115.568C161.344 115.408 160.94 115.232 160.428 115.04C159.692 114.776 159.14 114.452 158.772 114.068C158.404 113.684 158.22 113.16 158.22 112.496C158.22 112.048 158.336 111.66 158.568 111.332C158.8 111.004 159.12 110.752 159.528 110.576C159.936 110.4 160.412 110.312 160.956 110.312C161.42 110.312 161.848 110.356 162.24 110.444C162.632 110.532 162.992 110.648 163.32 110.792L162.984 111.716C162.688 111.588 162.364 111.48 162.012 111.392C161.66 111.304 161.3 111.26 160.932 111.26C160.396 111.26 159.992 111.376 159.72 111.608C159.448 111.832 159.312 112.132 159.312 112.508C159.312 112.796 159.372 113.036 159.492 113.228C159.612 113.42 159.808 113.596 160.08 113.756C160.352 113.908 160.72 114.068 161.184 114.236C161.688 114.42 162.112 114.62 162.456 114.836C162.808 115.044 163.072 115.296 163.248 115.592C163.432 115.888 163.524 116.26 163.524 116.708ZM166.162 109.88V112.556C166.162 112.876 166.142 113.176 166.102 113.456H166.174C166.382 113.128 166.662 112.88 167.014 112.712C167.374 112.544 167.762 112.46 168.178 112.46C168.954 112.46 169.538 112.648 169.93 113.024C170.33 113.392 170.53 113.988 170.53 114.812V119H169.486V114.884C169.486 113.852 169.006 113.336 168.046 113.336C167.326 113.336 166.83 113.54 166.558 113.948C166.294 114.348 166.162 114.924 166.162 115.676V119H165.106V109.88H166.162ZM173.064 110.156C173.224 110.156 173.364 110.212 173.484 110.324C173.612 110.428 173.676 110.596 173.676 110.828C173.676 111.06 173.612 111.232 173.484 111.344C173.364 111.448 173.224 111.5 173.064 111.5C172.888 111.5 172.74 111.448 172.62 111.344C172.5 111.232 172.44 111.06 172.44 110.828C172.44 110.596 172.5 110.428 172.62 110.324C172.74 110.212 172.888 110.156 173.064 110.156ZM173.58 112.568V119H172.524V112.568H173.58ZM178.678 112.448C179.47 112.448 180.106 112.724 180.586 113.276C181.074 113.828 181.318 114.66 181.318 115.772C181.318 116.868 181.074 117.7 180.586 118.268C180.106 118.836 179.466 119.12 178.666 119.12C178.17 119.12 177.758 119.028 177.43 118.844C177.11 118.66 176.858 118.44 176.674 118.184H176.602C176.61 118.32 176.622 118.492 176.638 118.7C176.662 118.908 176.674 119.088 176.674 119.24V121.88H175.618V112.568H176.482L176.626 113.444H176.674C176.866 113.164 177.118 112.928 177.43 112.736C177.742 112.544 178.158 112.448 178.678 112.448ZM178.486 113.336C177.83 113.336 177.366 113.52 177.094 113.888C176.822 114.256 176.682 114.816 176.674 115.568V115.772C176.674 116.564 176.802 117.176 177.058 117.608C177.322 118.032 177.806 118.244 178.51 118.244C178.894 118.244 179.214 118.14 179.47 117.932C179.726 117.716 179.914 117.42 180.034 117.044C180.162 116.668 180.226 116.24 180.226 115.76C180.226 115.024 180.082 114.436 179.794 113.996C179.514 113.556 179.078 113.336 178.486 113.336ZM188.266 118.256C188.426 118.256 188.59 118.244 188.758 118.22C188.926 118.196 189.062 118.164 189.166 118.124V118.928C189.054 118.984 188.894 119.028 188.686 119.06C188.478 119.1 188.278 119.12 188.086 119.12C187.75 119.12 187.438 119.064 187.15 118.952C186.87 118.832 186.642 118.628 186.466 118.34C186.29 118.052 186.202 117.648 186.202 117.128V113.384H185.29V112.88L186.214 112.46L186.634 111.092H187.258V112.568H189.118V113.384H187.258V117.104C187.258 117.496 187.35 117.788 187.534 117.98C187.726 118.164 187.97 118.256 188.266 118.256ZM196.046 115.772C196.046 116.836 195.774 117.66 195.23 118.244C194.694 118.828 193.966 119.12 193.046 119.12C192.478 119.12 191.97 118.992 191.522 118.736C191.082 118.472 190.734 118.092 190.478 117.596C190.222 117.092 190.094 116.484 190.094 115.772C190.094 114.708 190.358 113.888 190.886 113.312C191.422 112.736 192.154 112.448 193.082 112.448C193.658 112.448 194.17 112.58 194.618 112.844C195.066 113.1 195.414 113.476 195.662 113.972C195.918 114.46 196.046 115.06 196.046 115.772ZM191.186 115.772C191.186 116.532 191.334 117.136 191.63 117.584C191.934 118.024 192.414 118.244 193.07 118.244C193.718 118.244 194.194 118.024 194.498 117.584C194.802 117.136 194.954 116.532 194.954 115.772C194.954 115.012 194.802 114.416 194.498 113.984C194.194 113.552 193.714 113.336 193.058 113.336C192.402 113.336 191.926 113.552 191.63 113.984C191.334 114.416 191.186 115.012 191.186 115.772ZM208.456 114.704C208.456 115.592 208.304 116.368 208 117.032C207.704 117.688 207.26 118.2 206.668 118.568C206.084 118.936 205.364 119.12 204.508 119.12C203.62 119.12 202.88 118.936 202.288 118.568C201.704 118.2 201.268 117.684 200.98 117.02C200.692 116.356 200.548 115.58 200.548 114.692C200.548 113.82 200.692 113.056 200.98 112.4C201.268 111.736 201.704 111.22 202.288 110.852C202.88 110.484 203.624 110.3 204.52 110.3C205.376 110.3 206.096 110.484 206.68 110.852C207.264 111.212 207.704 111.724 208 112.388C208.304 113.044 208.456 113.816 208.456 114.704ZM201.688 114.704C201.688 115.784 201.916 116.636 202.372 117.26C202.828 117.876 203.54 118.184 204.508 118.184C205.476 118.184 206.184 117.876 206.632 117.26C207.088 116.636 207.316 115.784 207.316 114.704C207.316 113.624 207.092 112.78 206.644 112.172C206.196 111.556 205.488 111.248 204.52 111.248C203.544 111.248 202.828 111.556 202.372 112.172C201.916 112.78 201.688 113.624 201.688 114.704ZM213.175 113.384H211.555V119H210.499V113.384H209.371V112.892L210.499 112.532V112.16C210.499 111.328 210.679 110.732 211.039 110.372C211.407 110.004 211.923 109.82 212.587 109.82C212.835 109.82 213.067 109.844 213.283 109.892C213.499 109.932 213.683 109.98 213.835 110.036L213.559 110.864C213.431 110.824 213.283 110.784 213.115 110.744C212.947 110.704 212.775 110.684 212.599 110.684C212.247 110.684 211.983 110.804 211.807 111.044C211.639 111.276 211.555 111.644 211.555 112.148V112.568H213.175V113.384ZM217.3 113.384H215.68V119H214.624V113.384H213.496V112.892L214.624 112.532V112.16C214.624 111.328 214.804 110.732 215.164 110.372C215.532 110.004 216.048 109.82 216.712 109.82C216.96 109.82 217.192 109.844 217.408 109.892C217.624 109.932 217.808 109.98 217.96 110.036L217.684 110.864C217.556 110.824 217.408 110.784 217.24 110.744C217.072 110.704 216.9 110.684 216.724 110.684C216.372 110.684 216.108 110.804 215.932 111.044C215.764 111.276 215.68 111.644 215.68 112.148V112.568H217.3V113.384ZM219.001 110.156C219.161 110.156 219.301 110.212 219.421 110.324C219.549 110.428 219.613 110.596 219.613 110.828C219.613 111.06 219.549 111.232 219.421 111.344C219.301 111.448 219.161 111.5 219.001 111.5C218.825 111.5 218.677 111.448 218.557 111.344C218.437 111.232 218.377 111.06 218.377 110.828C218.377 110.596 218.437 110.428 218.557 110.324C218.677 110.212 218.825 110.156 219.001 110.156ZM219.517 112.568V119H218.461V112.568H219.517ZM224.135 119.12C223.559 119.12 223.051 119.004 222.611 118.772C222.171 118.54 221.823 118.18 221.567 117.692C221.319 117.204 221.195 116.58 221.195 115.82C221.195 115.028 221.323 114.384 221.579 113.888C221.843 113.392 222.203 113.028 222.659 112.796C223.115 112.564 223.631 112.448 224.207 112.448C224.527 112.448 224.839 112.484 225.143 112.556C225.455 112.62 225.707 112.7 225.899 112.796L225.575 113.672C225.383 113.6 225.159 113.532 224.903 113.468C224.647 113.404 224.407 113.372 224.183 113.372C222.919 113.372 222.287 114.184 222.287 115.808C222.287 116.584 222.439 117.18 222.743 117.596C223.055 118.004 223.515 118.208 224.123 118.208C224.467 118.208 224.775 118.172 225.047 118.1C225.319 118.028 225.567 117.94 225.791 117.836V118.772C225.575 118.884 225.335 118.968 225.071 119.024C224.815 119.088 224.503 119.12 224.135 119.12ZM229.805 112.448C230.349 112.448 230.821 112.568 231.221 112.808C231.621 113.048 231.925 113.388 232.133 113.828C232.349 114.26 232.457 114.768 232.457 115.352V115.988H228.053C228.069 116.716 228.253 117.272 228.605 117.656C228.965 118.032 229.465 118.22 230.105 118.22C230.513 118.22 230.873 118.184 231.185 118.112C231.505 118.032 231.833 117.92 232.169 117.776V118.7C231.841 118.844 231.517 118.948 231.197 119.012C230.877 119.084 230.497 119.12 230.057 119.12C229.441 119.12 228.901 118.996 228.437 118.748C227.973 118.5 227.609 118.132 227.345 117.644C227.089 117.156 226.961 116.552 226.961 115.832C226.961 115.128 227.077 114.524 227.309 114.02C227.549 113.516 227.881 113.128 228.305 112.856C228.737 112.584 229.237 112.448 229.805 112.448ZM229.793 113.312C229.289 113.312 228.889 113.476 228.593 113.804C228.305 114.124 228.133 114.572 228.077 115.148H231.353C231.345 114.604 231.217 114.164 230.969 113.828C230.721 113.484 230.329 113.312 229.793 113.312Z" fill="#1B77AF"/>
<rect x="150" y="102.5" width="91" height="23" rx="1.5" stroke="#1B77AF"/>
<rect x="250" y="102.5" width="113" height="23" rx="1.5" fill="white"/>
<path d="M264.04 119L263.008 116.348H259.612L258.592 119H257.5L260.848 110.396H261.82L265.156 119H264.04ZM262.684 115.388L261.724 112.796C261.7 112.732 261.66 112.616 261.604 112.448C261.548 112.28 261.492 112.108 261.436 111.932C261.388 111.748 261.348 111.608 261.316 111.512C261.252 111.76 261.184 112.004 261.112 112.244C261.048 112.476 260.992 112.66 260.944 112.796L259.972 115.388H262.684ZM268.464 119.12C267.664 119.12 267.024 118.844 266.544 118.292C266.064 117.732 265.824 116.9 265.824 115.796C265.824 114.692 266.064 113.86 266.544 113.3C267.032 112.732 267.676 112.448 268.476 112.448C268.972 112.448 269.376 112.54 269.688 112.724C270.008 112.908 270.268 113.132 270.468 113.396H270.54C270.524 113.292 270.508 113.14 270.492 112.94C270.476 112.732 270.468 112.568 270.468 112.448V109.88H271.524V119H270.672L270.516 118.136H270.468C270.276 118.408 270.02 118.64 269.7 118.832C269.38 119.024 268.968 119.12 268.464 119.12ZM268.632 118.244C269.312 118.244 269.788 118.06 270.06 117.692C270.34 117.316 270.48 116.752 270.48 116V115.808C270.48 115.008 270.348 114.396 270.084 113.972C269.82 113.54 269.332 113.324 268.62 113.324C268.052 113.324 267.624 113.552 267.336 114.008C267.056 114.456 266.916 115.06 266.916 115.82C266.916 116.588 267.056 117.184 267.336 117.608C267.624 118.032 268.056 118.244 268.632 118.244ZM275.847 119.12C275.047 119.12 274.407 118.844 273.927 118.292C273.447 117.732 273.207 116.9 273.207 115.796C273.207 114.692 273.447 113.86 273.927 113.3C274.415 112.732 275.059 112.448 275.859 112.448C276.355 112.448 276.759 112.54 277.071 112.724C277.391 112.908 277.651 113.132 277.851 113.396H277.923C277.907 113.292 277.891 113.14 277.875 112.94C277.859 112.732 277.851 112.568 277.851 112.448V109.88H278.907V119H278.055L277.899 118.136H277.851C277.659 118.408 277.403 118.64 277.083 118.832C276.763 119.024 276.351 119.12 275.847 119.12ZM276.015 118.244C276.695 118.244 277.171 118.06 277.443 117.692C277.723 117.316 277.863 116.752 277.863 116V115.808C277.863 115.008 277.731 114.396 277.467 113.972C277.203 113.54 276.715 113.324 276.003 113.324C275.435 113.324 275.007 113.552 274.719 114.008C274.439 114.456 274.299 115.06 274.299 115.82C274.299 116.588 274.439 117.184 274.719 117.608C275.007 118.032 275.439 118.244 276.015 118.244ZM287.163 112.448C287.931 112.448 288.511 112.636 288.903 113.012C289.295 113.388 289.491 113.988 289.491 114.812V119H288.447V114.884C288.447 113.852 287.967 113.336 287.007 113.336C286.295 113.336 285.803 113.536 285.531 113.936C285.259 114.336 285.123 114.912 285.123 115.664V119H284.067V112.568H284.919L285.075 113.444H285.135C285.343 113.108 285.631 112.86 285.999 112.7C286.367 112.532 286.755 112.448 287.163 112.448ZM293.969 112.448C294.513 112.448 294.985 112.568 295.385 112.808C295.785 113.048 296.089 113.388 296.297 113.828C296.513 114.26 296.621 114.768 296.621 115.352V115.988H292.217C292.233 116.716 292.417 117.272 292.769 117.656C293.129 118.032 293.629 118.22 294.269 118.22C294.677 118.22 295.037 118.184 295.349 118.112C295.669 118.032 295.997 117.92 296.333 117.776V118.7C296.005 118.844 295.681 118.948 295.361 119.012C295.041 119.084 294.661 119.12 294.221 119.12C293.605 119.12 293.065 118.996 292.601 118.748C292.137 118.5 291.773 118.132 291.509 117.644C291.253 117.156 291.125 116.552 291.125 115.832C291.125 115.128 291.241 114.524 291.473 114.02C291.713 113.516 292.045 113.128 292.469 112.856C292.901 112.584 293.401 112.448 293.969 112.448ZM293.957 113.312C293.453 113.312 293.053 113.476 292.757 113.804C292.469 114.124 292.297 114.572 292.241 115.148H295.517C295.509 114.604 295.381 114.164 295.133 113.828C294.885 113.484 294.493 113.312 293.957 113.312ZM303.28 118.988L302.176 115.364C302.072 115.036 301.98 114.716 301.9 114.404C301.82 114.092 301.764 113.844 301.732 113.66H301.684C301.652 113.844 301.6 114.092 301.528 114.404C301.456 114.716 301.364 115.04 301.252 115.376L300.1 118.988H298.9L297.136 112.556H298.228L299.116 115.988C299.204 116.332 299.288 116.68 299.368 117.032C299.448 117.384 299.504 117.676 299.536 117.908H299.584C299.608 117.772 299.644 117.604 299.692 117.404C299.74 117.204 299.792 116.996 299.848 116.78C299.904 116.556 299.96 116.356 300.016 116.18L301.156 112.556H302.308L303.412 116.18C303.492 116.46 303.576 116.76 303.664 117.08C303.752 117.4 303.812 117.672 303.844 117.896H303.892C303.916 117.696 303.968 117.42 304.048 117.068C304.136 116.716 304.228 116.356 304.324 115.988L305.224 112.556H306.304L304.516 118.988H303.28ZM311.631 119H310.575V109.88H311.631V119ZM319.26 115.772C319.26 116.836 318.988 117.66 318.444 118.244C317.908 118.828 317.18 119.12 316.26 119.12C315.692 119.12 315.184 118.992 314.736 118.736C314.296 118.472 313.948 118.092 313.692 117.596C313.436 117.092 313.308 116.484 313.308 115.772C313.308 114.708 313.572 113.888 314.1 113.312C314.636 112.736 315.368 112.448 316.296 112.448C316.872 112.448 317.384 112.58 317.832 112.844C318.28 113.1 318.628 113.476 318.876 113.972C319.132 114.46 319.26 115.06 319.26 115.772ZM314.4 115.772C314.4 116.532 314.548 117.136 314.844 117.584C315.148 118.024 315.628 118.244 316.284 118.244C316.932 118.244 317.408 118.024 317.712 117.584C318.016 117.136 318.168 116.532 318.168 115.772C318.168 115.012 318.016 114.416 317.712 113.984C317.408 113.552 316.928 113.336 316.272 113.336C315.616 113.336 315.14 113.552 314.844 113.984C314.548 114.416 314.4 115.012 314.4 115.772ZM323.514 119.12C322.938 119.12 322.43 119.004 321.99 118.772C321.55 118.54 321.202 118.18 320.946 117.692C320.698 117.204 320.574 116.58 320.574 115.82C320.574 115.028 320.702 114.384 320.958 113.888C321.222 113.392 321.582 113.028 322.038 112.796C322.494 112.564 323.01 112.448 323.586 112.448C323.906 112.448 324.218 112.484 324.522 112.556C324.834 112.62 325.086 112.7 325.278 112.796L324.954 113.672C324.762 113.6 324.538 113.532 324.282 113.468C324.026 113.404 323.786 113.372 323.562 113.372C322.298 113.372 321.666 114.184 321.666 115.808C321.666 116.584 321.818 117.18 322.122 117.596C322.434 118.004 322.894 118.208 323.502 118.208C323.846 118.208 324.154 118.172 324.426 118.1C324.698 118.028 324.946 117.94 325.17 117.836V118.772C324.954 118.884 324.714 118.968 324.45 119.024C324.194 119.088 323.882 119.12 323.514 119.12ZM329.136 112.46C329.92 112.46 330.5 112.632 330.876 112.976C331.252 113.32 331.44 113.868 331.44 114.62V119H330.672L330.468 118.088H330.42C330.14 118.44 329.844 118.7 329.532 118.868C329.22 119.036 328.796 119.12 328.26 119.12C327.676 119.12 327.192 118.968 326.808 118.664C326.424 118.352 326.232 117.868 326.232 117.212C326.232 116.572 326.484 116.08 326.988 115.736C327.492 115.384 328.268 115.192 329.316 115.16L330.408 115.124V114.74C330.408 114.204 330.292 113.832 330.06 113.624C329.828 113.416 329.5 113.312 329.076 113.312C328.74 113.312 328.42 113.364 328.116 113.468C327.812 113.564 327.528 113.676 327.264 113.804L326.94 113.012C327.22 112.86 327.552 112.732 327.936 112.628C328.32 112.516 328.72 112.46 329.136 112.46ZM330.396 115.856L329.448 115.892C328.648 115.924 328.092 116.052 327.78 116.276C327.476 116.5 327.324 116.816 327.324 117.224C327.324 117.584 327.432 117.848 327.648 118.016C327.872 118.184 328.156 118.268 328.5 118.268C329.036 118.268 329.484 118.12 329.844 117.824C330.212 117.52 330.396 117.056 330.396 116.432V115.856ZM335.574 118.256C335.734 118.256 335.898 118.244 336.066 118.22C336.234 118.196 336.37 118.164 336.474 118.124V118.928C336.362 118.984 336.202 119.028 335.994 119.06C335.786 119.1 335.586 119.12 335.394 119.12C335.058 119.12 334.746 119.064 334.458 118.952C334.178 118.832 333.95 118.628 333.774 118.34C333.598 118.052 333.51 117.648 333.51 117.128V113.384H332.598V112.88L333.522 112.46L333.942 111.092H334.566V112.568H336.426V113.384H334.566V117.104C334.566 117.496 334.658 117.788 334.842 117.98C335.034 118.164 335.278 118.256 335.574 118.256ZM338.302 110.156C338.462 110.156 338.602 110.212 338.722 110.324C338.85 110.428 338.914 110.596 338.914 110.828C338.914 111.06 338.85 111.232 338.722 111.344C338.602 111.448 338.462 111.5 338.302 111.5C338.126 111.5 337.978 111.448 337.858 111.344C337.738 111.232 337.678 111.06 337.678 110.828C337.678 110.596 337.738 110.428 337.858 110.324C337.978 110.212 338.126 110.156 338.302 110.156ZM338.818 112.568V119H337.762V112.568H338.818ZM346.448 115.772C346.448 116.836 346.176 117.66 345.632 118.244C345.096 118.828 344.368 119.12 343.448 119.12C342.88 119.12 342.372 118.992 341.924 118.736C341.484 118.472 341.136 118.092 340.88 117.596C340.624 117.092 340.496 116.484 340.496 115.772C340.496 114.708 340.76 113.888 341.288 113.312C341.824 112.736 342.556 112.448 343.484 112.448C344.06 112.448 344.572 112.58 345.02 112.844C345.468 113.1 345.816 113.476 346.064 113.972C346.32 114.46 346.448 115.06 346.448 115.772ZM341.588 115.772C341.588 116.532 341.736 117.136 342.032 117.584C342.336 118.024 342.816 118.244 343.472 118.244C344.12 118.244 344.596 118.024 344.9 117.584C345.204 117.136 345.356 116.532 345.356 115.772C345.356 115.012 345.204 114.416 344.9 113.984C344.596 113.552 344.116 113.336 343.46 113.336C342.804 113.336 342.328 113.552 342.032 113.984C341.736 114.416 341.588 115.012 341.588 115.772ZM351.218 112.448C351.986 112.448 352.566 112.636 352.958 113.012C353.35 113.388 353.546 113.988 353.546 114.812V119H352.502V114.884C352.502 113.852 352.022 113.336 351.062 113.336C350.35 113.336 349.858 113.536 349.586 113.936C349.314 114.336 349.178 114.912 349.178 115.664V119H348.122V112.568H348.974L349.13 113.444H349.19C349.398 113.108 349.686 112.86 350.054 112.7C350.422 112.532 350.81 112.448 351.218 112.448Z" fill="#1B77AF"/>
<rect x="250" y="102.5" width="113" height="23" rx="1.5" stroke="#1B77AF"/>
</svg>
