<svg width="412" height="208" viewBox="0 0 412 208" fill="none" xmlns="http://www.w3.org/2000/svg">
<rect x="131" y="79" width="150" height="50" fill="#E4F7E4"/>
<rect x="137" y="86.1428" width="139" height="36.7347" rx="2" fill="#088A08"/>
<path d="M167.2 100.646C166.7 100.396 166.1 100.496 165.7 100.896L163.45 102.896V102.146C163.45 101.396 162.85 100.746 162.05 100.746H155.4C154.6 100.796 154 101.396 154 102.146V107.296C154 108.046 154.6 108.696 155.4 108.696H162.05C162.8 108.696 163.45 108.096 163.45 107.296V106.596L165.7 108.596C165.95 108.846 166.3 108.946 166.6 108.946C166.8 108.946 167 108.896 167.2 108.846C167.7 108.596 168 108.146 168 107.596V101.896C168 101.346 167.7 100.846 167.2 100.646ZM162.65 107.296C162.65 107.646 162.35 107.896 162.05 107.896H155.4C155.05 107.896 154.8 107.596 154.8 107.296V102.146C154.8 101.796 155.1 101.546 155.4 101.546H162.05C162.4 101.546 162.65 101.846 162.65 102.146V107.296ZM167.25 107.546C167.25 107.796 167.1 108.046 166.85 108.146C166.6 108.246 166.35 108.196 166.15 108.046L163.4 105.596V103.846L166.15 101.396C166.35 101.246 166.6 101.196 166.85 101.296C167.1 101.396 167.25 101.646 167.25 101.896V107.546Z" fill="white"/>
<path d="M156.05 105.946C155.7 105.946 155.4 106.246 155.4 106.596C155.4 106.946 155.7 107.246 156.05 107.246C156.4 107.246 156.7 106.946 156.7 106.596C156.7 106.246 156.4 105.946 156.05 105.946Z" fill="white"/>
<path d="M176.944 112.17C176.72 112.17 176.524 112.151 176.356 112.114C176.188 112.086 176.039 112.044 175.908 111.988V110.924C176.057 110.971 176.216 111.003 176.384 111.022C176.552 111.05 176.729 111.064 176.916 111.064C177.149 111.064 177.369 111.017 177.574 110.924C177.789 110.831 177.961 110.667 178.092 110.434C178.223 110.21 178.288 109.883 178.288 109.454V99.5141H179.548V109.356C179.548 110.317 179.31 111.027 178.834 111.484C178.358 111.941 177.728 112.17 176.944 112.17ZM188.542 105.744C188.542 106.985 188.225 107.947 187.59 108.628C186.965 109.309 186.115 109.65 185.042 109.65C184.379 109.65 183.787 109.501 183.264 109.202C182.751 108.894 182.345 108.451 182.046 107.872C181.747 107.284 181.598 106.575 181.598 105.744C181.598 104.503 181.906 103.546 182.522 102.874C183.147 102.202 184.001 101.866 185.084 101.866C185.756 101.866 186.353 102.02 186.876 102.328C187.399 102.627 187.805 103.065 188.094 103.644C188.393 104.213 188.542 104.913 188.542 105.744ZM182.872 105.744C182.872 106.631 183.045 107.335 183.39 107.858C183.745 108.371 184.305 108.628 185.07 108.628C185.826 108.628 186.381 108.371 186.736 107.858C187.091 107.335 187.268 106.631 187.268 105.744C187.268 104.857 187.091 104.162 186.736 103.658C186.381 103.154 185.821 102.902 185.056 102.902C184.291 102.902 183.735 103.154 183.39 103.658C183.045 104.162 182.872 104.857 182.872 105.744ZM191.125 99.1921C191.311 99.1921 191.475 99.2575 191.615 99.3881C191.764 99.5095 191.839 99.7055 191.839 99.9761C191.839 100.247 191.764 100.447 191.615 100.578C191.475 100.699 191.311 100.76 191.125 100.76C190.919 100.76 190.747 100.699 190.607 100.578C190.467 100.447 190.397 100.247 190.397 99.9761C190.397 99.7055 190.467 99.5095 190.607 99.3881C190.747 99.2575 190.919 99.1921 191.125 99.1921ZM191.727 102.006V109.51H190.495V102.006H191.727ZM197.716 101.866C198.612 101.866 199.289 102.085 199.746 102.524C200.203 102.963 200.432 103.663 200.432 104.624V109.51H199.214V104.708C199.214 103.504 198.654 102.902 197.534 102.902C196.703 102.902 196.129 103.135 195.812 103.602C195.495 104.069 195.336 104.741 195.336 105.618V109.51H194.104V102.006H195.098L195.28 103.028H195.35C195.593 102.636 195.929 102.347 196.358 102.16C196.787 101.964 197.24 101.866 197.716 101.866ZM210.973 109.51L207.683 100.746H207.627C207.655 101.035 207.678 101.427 207.697 101.922C207.716 102.407 207.725 102.916 207.725 103.448V109.51H206.563V99.5141H208.425L211.505 107.704H211.561L214.697 99.5141H216.545V109.51H215.299V103.364C215.299 102.879 215.308 102.398 215.327 101.922C215.355 101.446 215.378 101.059 215.397 100.76H215.341L212.009 109.51H210.973ZM221.994 101.866C222.629 101.866 223.18 102.006 223.646 102.286C224.113 102.566 224.468 102.963 224.71 103.476C224.962 103.98 225.088 104.573 225.088 105.254V105.996H219.95C219.969 106.845 220.184 107.494 220.594 107.942C221.014 108.381 221.598 108.6 222.344 108.6C222.82 108.6 223.24 108.558 223.604 108.474C223.978 108.381 224.36 108.25 224.752 108.082V109.16C224.37 109.328 223.992 109.449 223.618 109.524C223.245 109.608 222.802 109.65 222.288 109.65C221.57 109.65 220.94 109.505 220.398 109.216C219.857 108.927 219.432 108.497 219.124 107.928C218.826 107.359 218.676 106.654 218.676 105.814C218.676 104.993 218.812 104.288 219.082 103.7C219.362 103.112 219.75 102.659 220.244 102.342C220.748 102.025 221.332 101.866 221.994 101.866ZM221.98 102.874C221.392 102.874 220.926 103.065 220.58 103.448C220.244 103.821 220.044 104.344 219.978 105.016H223.8C223.791 104.381 223.642 103.868 223.352 103.476C223.063 103.075 222.606 102.874 221.98 102.874ZM229.897 101.866C230.531 101.866 231.082 102.006 231.549 102.286C232.015 102.566 232.37 102.963 232.613 103.476C232.865 103.98 232.991 104.573 232.991 105.254V105.996H227.853C227.871 106.845 228.086 107.494 228.497 107.942C228.917 108.381 229.5 108.6 230.247 108.6C230.723 108.6 231.143 108.558 231.507 108.474C231.88 108.381 232.263 108.25 232.655 108.082V109.16C232.272 109.328 231.894 109.449 231.521 109.524C231.147 109.608 230.704 109.65 230.191 109.65C229.472 109.65 228.842 109.505 228.301 109.216C227.759 108.927 227.335 108.497 227.027 107.928C226.728 107.359 226.579 106.654 226.579 105.814C226.579 104.993 226.714 104.288 226.985 103.7C227.265 103.112 227.652 102.659 228.147 102.342C228.651 102.025 229.234 101.866 229.897 101.866ZM229.883 102.874C229.295 102.874 228.828 103.065 228.483 103.448C228.147 103.821 227.946 104.344 227.881 105.016H231.703C231.693 104.381 231.544 103.868 231.255 103.476C230.965 103.075 230.508 102.874 229.883 102.874ZM237.407 108.642C237.594 108.642 237.785 108.628 237.981 108.6C238.177 108.572 238.336 108.535 238.457 108.488V109.426C238.326 109.491 238.14 109.543 237.897 109.58C237.654 109.627 237.421 109.65 237.197 109.65C236.805 109.65 236.441 109.585 236.105 109.454C235.778 109.314 235.512 109.076 235.307 108.74C235.102 108.404 234.999 107.933 234.999 107.326V102.958H233.935V102.37L235.013 101.88L235.503 100.284H236.231V102.006H238.401V102.958H236.231V107.298C236.231 107.755 236.338 108.096 236.553 108.32C236.777 108.535 237.062 108.642 237.407 108.642ZM240.59 99.1921C240.776 99.1921 240.94 99.2575 241.08 99.3881C241.229 99.5095 241.304 99.7055 241.304 99.9761C241.304 100.247 241.229 100.447 241.08 100.578C240.94 100.699 240.776 100.76 240.59 100.76C240.384 100.76 240.212 100.699 240.072 100.578C239.932 100.447 239.862 100.247 239.862 99.9761C239.862 99.7055 239.932 99.5095 240.072 99.3881C240.212 99.2575 240.384 99.1921 240.59 99.1921ZM241.192 102.006V109.51H239.96V102.006H241.192ZM247.181 101.866C248.077 101.866 248.754 102.085 249.211 102.524C249.668 102.963 249.897 103.663 249.897 104.624V109.51H248.679V104.708C248.679 103.504 248.119 102.902 246.999 102.902C246.168 102.902 245.594 103.135 245.277 103.602C244.96 104.069 244.801 104.741 244.801 105.618V109.51H243.569V102.006H244.563L244.745 103.028H244.815C245.058 102.636 245.394 102.347 245.823 102.16C246.252 101.964 246.705 101.866 247.181 101.866ZM254.883 101.866C255.378 101.866 255.821 101.959 256.213 102.146C256.615 102.333 256.955 102.617 257.235 103H257.305L257.473 102.006H258.453V109.636C258.453 110.709 258.178 111.517 257.627 112.058C257.086 112.599 256.241 112.87 255.093 112.87C253.992 112.87 253.091 112.711 252.391 112.394V111.26C253.129 111.652 254.053 111.848 255.163 111.848C255.807 111.848 256.311 111.657 256.675 111.274C257.049 110.901 257.235 110.387 257.235 109.734V109.44C257.235 109.328 257.24 109.169 257.249 108.964C257.259 108.749 257.268 108.6 257.277 108.516H257.221C256.717 109.272 255.943 109.65 254.897 109.65C253.927 109.65 253.166 109.309 252.615 108.628C252.074 107.947 251.803 106.995 251.803 105.772C251.803 104.577 252.074 103.63 252.615 102.93C253.166 102.221 253.922 101.866 254.883 101.866ZM255.051 102.902C254.426 102.902 253.941 103.154 253.595 103.658C253.25 104.153 253.077 104.862 253.077 105.786C253.077 106.71 253.245 107.419 253.581 107.914C253.917 108.399 254.417 108.642 255.079 108.642C255.835 108.642 256.386 108.441 256.731 108.04C257.077 107.629 257.249 106.971 257.249 106.066V105.772C257.249 104.755 257.072 104.022 256.717 103.574C256.363 103.126 255.807 102.902 255.051 102.902Z" fill="white"/>
</svg>
