<svg width="412" height="208" viewBox="0 0 412 208" fill="none" xmlns="http://www.w3.org/2000/svg">
<rect x="146" y="50" width="120" height="64" rx="4" fill="#323232"/>
<path d="M169.024 71H167.944V63.38H165.268V62.432H171.688V63.38H169.024V71ZM173.892 61.88V64.556C173.892 64.876 173.872 65.176 173.832 65.456H173.904C174.112 65.128 174.392 64.88 174.744 64.712C175.104 64.544 175.492 64.46 175.908 64.46C176.684 64.46 177.268 64.648 177.66 65.024C178.06 65.392 178.26 65.988 178.26 66.812V71H177.216V66.884C177.216 65.852 176.736 65.336 175.776 65.336C175.056 65.336 174.56 65.54 174.288 65.948C174.024 66.348 173.892 66.924 173.892 67.676V71H172.836V61.88H173.892ZM182.738 64.448C183.282 64.448 183.754 64.568 184.154 64.808C184.554 65.048 184.858 65.388 185.066 65.828C185.282 66.26 185.39 66.768 185.39 67.352V67.988H180.986C181.002 68.716 181.186 69.272 181.538 69.656C181.898 70.032 182.398 70.22 183.038 70.22C183.446 70.22 183.806 70.184 184.118 70.112C184.438 70.032 184.766 69.92 185.102 69.776V70.7C184.774 70.844 184.45 70.948 184.13 71.012C183.81 71.084 183.43 71.12 182.99 71.12C182.374 71.12 181.834 70.996 181.37 70.748C180.906 70.5 180.542 70.132 180.278 69.644C180.022 69.156 179.894 68.552 179.894 67.832C179.894 67.128 180.01 66.524 180.242 66.02C180.482 65.516 180.814 65.128 181.238 64.856C181.67 64.584 182.17 64.448 182.738 64.448ZM182.726 65.312C182.222 65.312 181.822 65.476 181.526 65.804C181.238 66.124 181.066 66.572 181.01 67.148H184.286C184.278 66.604 184.15 66.164 183.902 65.828C183.654 65.484 183.262 65.312 182.726 65.312ZM193.145 64.448C193.265 64.448 193.393 64.456 193.529 64.472C193.665 64.48 193.789 64.496 193.901 64.52L193.769 65.492C193.665 65.468 193.549 65.448 193.421 65.432C193.293 65.416 193.177 65.408 193.073 65.408C192.745 65.408 192.437 65.5 192.149 65.684C191.861 65.86 191.629 66.112 191.453 66.44C191.285 66.76 191.201 67.136 191.201 67.568V71H190.145V64.568H191.009L191.129 65.744H191.177C191.377 65.392 191.641 65.088 191.969 64.832C192.305 64.576 192.697 64.448 193.145 64.448ZM197.352 64.448C197.896 64.448 198.368 64.568 198.768 64.808C199.168 65.048 199.472 65.388 199.68 65.828C199.896 66.26 200.004 66.768 200.004 67.352V67.988H195.6C195.616 68.716 195.8 69.272 196.152 69.656C196.512 70.032 197.012 70.22 197.652 70.22C198.06 70.22 198.42 70.184 198.732 70.112C199.052 70.032 199.38 69.92 199.716 69.776V70.7C199.388 70.844 199.064 70.948 198.744 71.012C198.424 71.084 198.044 71.12 197.604 71.12C196.988 71.12 196.448 70.996 195.984 70.748C195.52 70.5 195.156 70.132 194.892 69.644C194.636 69.156 194.508 68.552 194.508 67.832C194.508 67.128 194.624 66.524 194.856 66.02C195.096 65.516 195.428 65.128 195.852 64.856C196.284 64.584 196.784 64.448 197.352 64.448ZM197.34 65.312C196.836 65.312 196.436 65.476 196.14 65.804C195.852 66.124 195.68 66.572 195.624 67.148H198.9C198.892 66.604 198.764 66.164 198.516 65.828C198.268 65.484 197.876 65.312 197.34 65.312ZM205.829 69.224C205.829 69.848 205.597 70.32 205.133 70.64C204.669 70.96 204.045 71.12 203.261 71.12C202.813 71.12 202.425 71.084 202.097 71.012C201.777 70.94 201.493 70.84 201.245 70.712V69.752C201.501 69.88 201.809 70 202.169 70.112C202.537 70.216 202.909 70.268 203.285 70.268C203.821 70.268 204.209 70.184 204.449 70.016C204.689 69.84 204.809 69.608 204.809 69.32C204.809 69.16 204.765 69.016 204.677 68.888C204.589 68.76 204.429 68.632 204.197 68.504C203.973 68.376 203.649 68.232 203.225 68.072C202.809 67.912 202.453 67.752 202.157 67.592C201.861 67.432 201.633 67.24 201.473 67.016C201.313 66.792 201.233 66.504 201.233 66.152C201.233 65.608 201.453 65.188 201.893 64.892C202.341 64.596 202.925 64.448 203.645 64.448C204.037 64.448 204.401 64.488 204.737 64.568C205.081 64.648 205.401 64.752 205.697 64.88L205.337 65.72C205.065 65.608 204.781 65.512 204.485 65.432C204.189 65.352 203.885 65.312 203.573 65.312C203.141 65.312 202.809 65.384 202.577 65.528C202.353 65.664 202.241 65.852 202.241 66.092C202.241 66.276 202.293 66.428 202.397 66.548C202.501 66.668 202.673 66.788 202.913 66.908C203.161 67.028 203.489 67.164 203.897 67.316C204.305 67.468 204.653 67.624 204.941 67.784C205.229 67.944 205.449 68.14 205.601 68.372C205.753 68.596 205.829 68.88 205.829 69.224ZM209.531 70.256C209.691 70.256 209.855 70.244 210.023 70.22C210.191 70.196 210.327 70.164 210.431 70.124V70.928C210.319 70.984 210.159 71.028 209.951 71.06C209.743 71.1 209.543 71.12 209.351 71.12C209.015 71.12 208.703 71.064 208.415 70.952C208.135 70.832 207.907 70.628 207.731 70.34C207.555 70.052 207.467 69.648 207.467 69.128V65.384H206.555V64.88L207.479 64.46L207.899 63.092H208.523V64.568H210.383V65.384H208.523V69.104C208.523 69.496 208.615 69.788 208.799 69.98C208.991 70.164 209.235 70.256 209.531 70.256ZM220.428 67.772C220.428 68.836 220.156 69.66 219.612 70.244C219.076 70.828 218.348 71.12 217.428 71.12C216.86 71.12 216.352 70.992 215.904 70.736C215.464 70.472 215.116 70.092 214.86 69.596C214.604 69.092 214.476 68.484 214.476 67.772C214.476 66.708 214.74 65.888 215.268 65.312C215.804 64.736 216.536 64.448 217.464 64.448C218.04 64.448 218.552 64.58 219 64.844C219.448 65.1 219.796 65.476 220.044 65.972C220.3 66.46 220.428 67.06 220.428 67.772ZM215.568 67.772C215.568 68.532 215.716 69.136 216.012 69.584C216.316 70.024 216.796 70.244 217.452 70.244C218.1 70.244 218.576 70.024 218.88 69.584C219.184 69.136 219.336 68.532 219.336 67.772C219.336 67.012 219.184 66.416 218.88 65.984C218.576 65.552 218.096 65.336 217.44 65.336C216.784 65.336 216.308 65.552 216.012 65.984C215.716 66.416 215.568 67.012 215.568 67.772ZM225.066 65.384H223.446V71H222.39V65.384H221.262V64.892L222.39 64.532V64.16C222.39 63.328 222.57 62.732 222.93 62.372C223.298 62.004 223.814 61.82 224.478 61.82C224.726 61.82 224.958 61.844 225.174 61.892C225.39 61.932 225.574 61.98 225.726 62.036L225.45 62.864C225.322 62.824 225.174 62.784 225.006 62.744C224.838 62.704 224.666 62.684 224.49 62.684C224.138 62.684 223.874 62.804 223.698 63.044C223.53 63.276 223.446 63.644 223.446 64.148V64.568H225.066V65.384ZM231.492 70.256C231.652 70.256 231.816 70.244 231.984 70.22C232.152 70.196 232.288 70.164 232.392 70.124V70.928C232.28 70.984 232.12 71.028 231.912 71.06C231.704 71.1 231.504 71.12 231.312 71.12C230.976 71.12 230.664 71.064 230.376 70.952C230.096 70.832 229.868 70.628 229.692 70.34C229.516 70.052 229.428 69.648 229.428 69.128V65.384H228.516V64.88L229.44 64.46L229.86 63.092H230.484V64.568H232.344V65.384H230.484V69.104C230.484 69.496 230.576 69.788 230.76 69.98C230.952 70.164 231.196 70.256 231.492 70.256ZM234.736 61.88V64.556C234.736 64.876 234.716 65.176 234.676 65.456H234.748C234.956 65.128 235.236 64.88 235.588 64.712C235.948 64.544 236.336 64.46 236.752 64.46C237.528 64.46 238.112 64.648 238.504 65.024C238.904 65.392 239.104 65.988 239.104 66.812V71H238.06V66.884C238.06 65.852 237.58 65.336 236.62 65.336C235.9 65.336 235.404 65.54 235.132 65.948C234.868 66.348 234.736 66.924 234.736 67.676V71H233.68V61.88H234.736ZM243.582 64.448C244.126 64.448 244.598 64.568 244.998 64.808C245.398 65.048 245.702 65.388 245.91 65.828C246.126 66.26 246.234 66.768 246.234 67.352V67.988H241.83C241.846 68.716 242.03 69.272 242.382 69.656C242.742 70.032 243.242 70.22 243.882 70.22C244.29 70.22 244.65 70.184 244.962 70.112C245.282 70.032 245.61 69.92 245.946 69.776V70.7C245.618 70.844 245.294 70.948 244.974 71.012C244.654 71.084 244.274 71.12 243.834 71.12C243.218 71.12 242.678 70.996 242.214 70.748C241.75 70.5 241.386 70.132 241.122 69.644C240.866 69.156 240.738 68.552 240.738 67.832C240.738 67.128 240.854 66.524 241.086 66.02C241.326 65.516 241.658 65.128 242.082 64.856C242.514 64.584 243.014 64.448 243.582 64.448ZM243.57 65.312C243.066 65.312 242.666 65.476 242.37 65.804C242.082 66.124 241.91 66.572 241.854 67.148H245.13C245.122 66.604 244.994 66.164 244.746 65.828C244.498 65.484 244.106 65.312 243.57 65.312ZM170.24 81.384H168.62V87H167.564V81.384H166.436V80.892L167.564 80.532V80.16C167.564 79.328 167.744 78.732 168.104 78.372C168.472 78.004 168.988 77.82 169.652 77.82C169.9 77.82 170.132 77.844 170.348 77.892C170.564 77.932 170.748 77.98 170.9 78.036L170.624 78.864C170.496 78.824 170.348 78.784 170.18 78.744C170.012 78.704 169.84 78.684 169.664 78.684C169.312 78.684 169.048 78.804 168.872 79.044C168.704 79.276 168.62 79.644 168.62 80.148V80.568H170.24V81.384ZM176.993 83.772C176.993 84.836 176.721 85.66 176.177 86.244C175.641 86.828 174.913 87.12 173.993 87.12C173.425 87.12 172.917 86.992 172.469 86.736C172.029 86.472 171.681 86.092 171.425 85.596C171.169 85.092 171.041 84.484 171.041 83.772C171.041 82.708 171.305 81.888 171.833 81.312C172.369 80.736 173.101 80.448 174.029 80.448C174.605 80.448 175.117 80.58 175.565 80.844C176.013 81.1 176.361 81.476 176.609 81.972C176.865 82.46 176.993 83.06 176.993 83.772ZM172.133 83.772C172.133 84.532 172.281 85.136 172.577 85.584C172.881 86.024 173.361 86.244 174.017 86.244C174.665 86.244 175.141 86.024 175.445 85.584C175.749 85.136 175.901 84.532 175.901 83.772C175.901 83.012 175.749 82.416 175.445 81.984C175.141 81.552 174.661 81.336 174.005 81.336C173.349 81.336 172.873 81.552 172.577 81.984C172.281 82.416 172.133 83.012 172.133 83.772ZM181.666 80.448C181.786 80.448 181.914 80.456 182.05 80.472C182.186 80.48 182.31 80.496 182.422 80.52L182.29 81.492C182.186 81.468 182.07 81.448 181.942 81.432C181.814 81.416 181.698 81.408 181.594 81.408C181.266 81.408 180.958 81.5 180.67 81.684C180.382 81.86 180.15 82.112 179.974 82.44C179.806 82.76 179.722 83.136 179.722 83.568V87H178.666V80.568H179.53L179.65 81.744H179.698C179.898 81.392 180.162 81.088 180.49 80.832C180.826 80.576 181.218 80.448 181.666 80.448ZM190.68 80.448C191.408 80.448 191.952 80.636 192.312 81.012C192.672 81.388 192.852 81.988 192.852 82.812V87H191.808V82.86C191.808 81.844 191.372 81.336 190.5 81.336C189.876 81.336 189.428 81.516 189.156 81.876C188.892 82.236 188.76 82.76 188.76 83.448V87H187.716V82.86C187.716 81.844 187.276 81.336 186.396 81.336C185.748 81.336 185.3 81.536 185.052 81.936C184.804 82.336 184.68 82.912 184.68 83.664V87H183.624V80.568H184.476L184.632 81.444H184.692C184.892 81.108 185.16 80.86 185.496 80.7C185.84 80.532 186.204 80.448 186.588 80.448C187.596 80.448 188.252 80.808 188.556 81.528H188.616C188.832 81.16 189.124 80.888 189.492 80.712C189.86 80.536 190.256 80.448 190.68 80.448ZM201.052 80.448C201.82 80.448 202.4 80.636 202.792 81.012C203.184 81.388 203.38 81.988 203.38 82.812V87H202.336V82.884C202.336 81.852 201.856 81.336 200.896 81.336C200.184 81.336 199.692 81.536 199.42 81.936C199.148 82.336 199.012 82.912 199.012 83.664V87H197.956V80.568H198.808L198.964 81.444H199.024C199.232 81.108 199.52 80.86 199.888 80.7C200.256 80.532 200.644 80.448 201.052 80.448ZM207.858 80.448C208.402 80.448 208.874 80.568 209.274 80.808C209.674 81.048 209.978 81.388 210.186 81.828C210.402 82.26 210.51 82.768 210.51 83.352V83.988H206.106C206.122 84.716 206.306 85.272 206.658 85.656C207.018 86.032 207.518 86.22 208.158 86.22C208.566 86.22 208.926 86.184 209.238 86.112C209.558 86.032 209.886 85.92 210.222 85.776V86.7C209.894 86.844 209.57 86.948 209.25 87.012C208.93 87.084 208.55 87.12 208.11 87.12C207.494 87.12 206.954 86.996 206.49 86.748C206.026 86.5 205.662 86.132 205.398 85.644C205.142 85.156 205.014 84.552 205.014 83.832C205.014 83.128 205.13 82.524 205.362 82.02C205.602 81.516 205.934 81.128 206.358 80.856C206.79 80.584 207.29 80.448 207.858 80.448ZM207.846 81.312C207.342 81.312 206.942 81.476 206.646 81.804C206.358 82.124 206.186 82.572 206.13 83.148H209.406C209.398 82.604 209.27 82.164 209.022 81.828C208.774 81.484 208.382 81.312 207.846 81.312ZM214.631 80.448C215.175 80.448 215.647 80.568 216.047 80.808C216.447 81.048 216.751 81.388 216.959 81.828C217.175 82.26 217.283 82.768 217.283 83.352V83.988H212.879C212.895 84.716 213.079 85.272 213.431 85.656C213.791 86.032 214.291 86.22 214.931 86.22C215.339 86.22 215.699 86.184 216.011 86.112C216.331 86.032 216.659 85.92 216.995 85.776V86.7C216.667 86.844 216.343 86.948 216.023 87.012C215.703 87.084 215.323 87.12 214.883 87.12C214.267 87.12 213.727 86.996 213.263 86.748C212.799 86.5 212.435 86.132 212.171 85.644C211.915 85.156 211.787 84.552 211.787 83.832C211.787 83.128 211.903 82.524 212.135 82.02C212.375 81.516 212.707 81.128 213.131 80.856C213.563 80.584 214.063 80.448 214.631 80.448ZM214.619 81.312C214.115 81.312 213.715 81.476 213.419 81.804C213.131 82.124 212.959 82.572 212.903 83.148H216.179C216.171 82.604 216.043 82.164 215.795 81.828C215.547 81.484 215.155 81.312 214.619 81.312ZM221.2 87.12C220.4 87.12 219.76 86.844 219.28 86.292C218.8 85.732 218.56 84.9 218.56 83.796C218.56 82.692 218.8 81.86 219.28 81.3C219.768 80.732 220.412 80.448 221.212 80.448C221.708 80.448 222.112 80.54 222.424 80.724C222.744 80.908 223.004 81.132 223.204 81.396H223.276C223.26 81.292 223.244 81.14 223.228 80.94C223.212 80.732 223.204 80.568 223.204 80.448V77.88H224.26V87H223.408L223.252 86.136H223.204C223.012 86.408 222.756 86.64 222.436 86.832C222.116 87.024 221.704 87.12 221.2 87.12ZM221.368 86.244C222.048 86.244 222.524 86.06 222.796 85.692C223.076 85.316 223.216 84.752 223.216 84V83.808C223.216 83.008 223.084 82.396 222.82 81.972C222.556 81.54 222.068 81.324 221.356 81.324C220.788 81.324 220.36 81.552 220.072 82.008C219.792 82.456 219.652 83.06 219.652 83.82C219.652 84.588 219.792 85.184 220.072 85.608C220.36 86.032 220.792 86.244 221.368 86.244ZM230.491 85.224C230.491 85.848 230.259 86.32 229.795 86.64C229.331 86.96 228.707 87.12 227.923 87.12C227.475 87.12 227.087 87.084 226.759 87.012C226.439 86.94 226.155 86.84 225.907 86.712V85.752C226.163 85.88 226.471 86 226.831 86.112C227.199 86.216 227.571 86.268 227.947 86.268C228.483 86.268 228.871 86.184 229.111 86.016C229.351 85.84 229.471 85.608 229.471 85.32C229.471 85.16 229.427 85.016 229.339 84.888C229.251 84.76 229.091 84.632 228.859 84.504C228.635 84.376 228.311 84.232 227.887 84.072C227.471 83.912 227.115 83.752 226.819 83.592C226.523 83.432 226.295 83.24 226.135 83.016C225.975 82.792 225.895 82.504 225.895 82.152C225.895 81.608 226.115 81.188 226.555 80.892C227.003 80.596 227.587 80.448 228.307 80.448C228.699 80.448 229.063 80.488 229.399 80.568C229.743 80.648 230.063 80.752 230.359 80.88L229.999 81.72C229.727 81.608 229.443 81.512 229.147 81.432C228.851 81.352 228.547 81.312 228.235 81.312C227.803 81.312 227.471 81.384 227.239 81.528C227.015 81.664 226.903 81.852 226.903 82.092C226.903 82.276 226.955 82.428 227.059 82.548C227.163 82.668 227.335 82.788 227.575 82.908C227.823 83.028 228.151 83.164 228.559 83.316C228.967 83.468 229.315 83.624 229.603 83.784C229.891 83.944 230.111 84.14 230.263 84.372C230.415 84.596 230.491 84.88 230.491 85.224ZM237.311 86.256C237.471 86.256 237.635 86.244 237.803 86.22C237.971 86.196 238.107 86.164 238.211 86.124V86.928C238.099 86.984 237.939 87.028 237.731 87.06C237.523 87.1 237.323 87.12 237.131 87.12C236.795 87.12 236.483 87.064 236.195 86.952C235.915 86.832 235.687 86.628 235.511 86.34C235.335 86.052 235.247 85.648 235.247 85.128V81.384H234.335V80.88L235.259 80.46L235.679 79.092H236.303V80.568H238.163V81.384H236.303V85.104C236.303 85.496 236.395 85.788 236.579 85.98C236.771 86.164 237.015 86.256 237.311 86.256ZM245.091 83.772C245.091 84.836 244.819 85.66 244.275 86.244C243.739 86.828 243.011 87.12 242.091 87.12C241.523 87.12 241.015 86.992 240.567 86.736C240.127 86.472 239.779 86.092 239.523 85.596C239.267 85.092 239.139 84.484 239.139 83.772C239.139 82.708 239.403 81.888 239.931 81.312C240.467 80.736 241.199 80.448 242.127 80.448C242.703 80.448 243.215 80.58 243.663 80.844C244.111 81.1 244.459 81.476 244.707 81.972C244.963 82.46 245.091 83.06 245.091 83.772ZM240.231 83.772C240.231 84.532 240.379 85.136 240.675 85.584C240.979 86.024 241.459 86.244 242.115 86.244C242.763 86.244 243.239 86.024 243.543 85.584C243.847 85.136 243.999 84.532 243.999 83.772C243.999 83.012 243.847 82.416 243.543 81.984C243.239 81.552 242.759 81.336 242.103 81.336C241.447 81.336 240.971 81.552 240.675 81.984C240.379 82.416 240.231 83.012 240.231 83.772ZM167.84 93.88V96.1C167.84 96.372 167.832 96.628 167.816 96.868C167.808 97.1 167.796 97.284 167.78 97.42H167.84C168.024 97.148 168.276 96.92 168.596 96.736C168.916 96.552 169.328 96.46 169.832 96.46C170.632 96.46 171.272 96.74 171.752 97.3C172.24 97.852 172.484 98.68 172.484 99.784C172.484 100.888 172.24 101.72 171.752 102.28C171.264 102.84 170.624 103.12 169.832 103.12C169.328 103.12 168.916 103.028 168.596 102.844C168.276 102.66 168.024 102.44 167.84 102.184H167.756L167.54 103H166.784V93.88H167.84ZM169.652 97.336C168.964 97.336 168.488 97.532 168.224 97.924C167.968 98.316 167.84 98.924 167.84 99.748V99.796C167.84 100.588 167.968 101.196 168.224 101.62C168.488 102.036 168.972 102.244 169.676 102.244C170.252 102.244 170.68 102.032 170.96 101.608C171.248 101.184 171.392 100.572 171.392 99.772C171.392 98.148 170.812 97.336 169.652 97.336ZM176.65 96.448C177.194 96.448 177.666 96.568 178.066 96.808C178.466 97.048 178.77 97.388 178.978 97.828C179.194 98.26 179.302 98.768 179.302 99.352V99.988H174.898C174.914 100.716 175.098 101.272 175.45 101.656C175.81 102.032 176.31 102.22 176.95 102.22C177.358 102.22 177.718 102.184 178.03 102.112C178.35 102.032 178.678 101.92 179.014 101.776V102.7C178.686 102.844 178.362 102.948 178.042 103.012C177.722 103.084 177.342 103.12 176.902 103.12C176.286 103.12 175.746 102.996 175.282 102.748C174.818 102.5 174.454 102.132 174.19 101.644C173.934 101.156 173.806 100.552 173.806 99.832C173.806 99.128 173.922 98.524 174.154 98.02C174.394 97.516 174.726 97.128 175.15 96.856C175.582 96.584 176.082 96.448 176.65 96.448ZM176.638 97.312C176.134 97.312 175.734 97.476 175.438 97.804C175.15 98.124 174.978 98.572 174.922 99.148H178.198C178.19 98.604 178.062 98.164 177.814 97.828C177.566 97.484 177.174 97.312 176.638 97.312ZM186.637 103.12C186.061 103.12 185.553 103.004 185.113 102.772C184.673 102.54 184.325 102.18 184.069 101.692C183.821 101.204 183.697 100.58 183.697 99.82C183.697 99.028 183.825 98.384 184.081 97.888C184.345 97.392 184.705 97.028 185.161 96.796C185.617 96.564 186.133 96.448 186.709 96.448C187.029 96.448 187.341 96.484 187.645 96.556C187.957 96.62 188.209 96.7 188.401 96.796L188.077 97.672C187.885 97.6 187.661 97.532 187.405 97.468C187.149 97.404 186.909 97.372 186.685 97.372C185.421 97.372 184.789 98.184 184.789 99.808C184.789 100.584 184.941 101.18 185.245 101.596C185.557 102.004 186.017 102.208 186.625 102.208C186.969 102.208 187.277 102.172 187.549 102.1C187.821 102.028 188.069 101.94 188.293 101.836V102.772C188.077 102.884 187.837 102.968 187.573 103.024C187.317 103.088 187.005 103.12 186.637 103.12ZM195.415 99.772C195.415 100.836 195.143 101.66 194.599 102.244C194.063 102.828 193.335 103.12 192.415 103.12C191.847 103.12 191.339 102.992 190.891 102.736C190.451 102.472 190.103 102.092 189.847 101.596C189.591 101.092 189.463 100.484 189.463 99.772C189.463 98.708 189.727 97.888 190.255 97.312C190.791 96.736 191.523 96.448 192.451 96.448C193.027 96.448 193.539 96.58 193.987 96.844C194.435 97.1 194.783 97.476 195.031 97.972C195.287 98.46 195.415 99.06 195.415 99.772ZM190.555 99.772C190.555 100.532 190.703 101.136 190.999 101.584C191.303 102.024 191.783 102.244 192.439 102.244C193.087 102.244 193.563 102.024 193.867 101.584C194.171 101.136 194.323 100.532 194.323 99.772C194.323 99.012 194.171 98.416 193.867 97.984C193.563 97.552 193.083 97.336 192.427 97.336C191.771 97.336 191.295 97.552 190.999 97.984C190.703 98.416 190.555 99.012 190.555 99.772ZM204.144 96.448C204.872 96.448 205.416 96.636 205.776 97.012C206.136 97.388 206.316 97.988 206.316 98.812V103H205.272V98.86C205.272 97.844 204.836 97.336 203.964 97.336C203.34 97.336 202.892 97.516 202.62 97.876C202.356 98.236 202.224 98.76 202.224 99.448V103H201.18V98.86C201.18 97.844 200.74 97.336 199.86 97.336C199.212 97.336 198.764 97.536 198.516 97.936C198.268 98.336 198.144 98.912 198.144 99.664V103H197.088V96.568H197.94L198.096 97.444H198.156C198.356 97.108 198.624 96.86 198.96 96.7C199.304 96.532 199.668 96.448 200.052 96.448C201.06 96.448 201.716 96.808 202.02 97.528H202.08C202.296 97.16 202.588 96.888 202.956 96.712C203.324 96.536 203.72 96.448 204.144 96.448ZM211.363 96.448C212.155 96.448 212.791 96.724 213.271 97.276C213.759 97.828 214.003 98.66 214.003 99.772C214.003 100.868 213.759 101.7 213.271 102.268C212.791 102.836 212.151 103.12 211.351 103.12C210.855 103.12 210.443 103.028 210.115 102.844C209.795 102.66 209.543 102.44 209.359 102.184H209.287C209.295 102.32 209.307 102.492 209.323 102.7C209.347 102.908 209.359 103.088 209.359 103.24V105.88H208.303V96.568H209.167L209.311 97.444H209.359C209.551 97.164 209.803 96.928 210.115 96.736C210.427 96.544 210.843 96.448 211.363 96.448ZM211.171 97.336C210.515 97.336 210.051 97.52 209.779 97.888C209.507 98.256 209.367 98.816 209.359 99.568V99.772C209.359 100.564 209.487 101.176 209.743 101.608C210.007 102.032 210.491 102.244 211.195 102.244C211.579 102.244 211.899 102.14 212.155 101.932C212.411 101.716 212.599 101.42 212.719 101.044C212.847 100.668 212.911 100.24 212.911 99.76C212.911 99.024 212.767 98.436 212.479 97.996C212.199 97.556 211.763 97.336 211.171 97.336ZM216.742 103H215.686V93.88H216.742V103ZM221.264 96.448C221.808 96.448 222.28 96.568 222.68 96.808C223.08 97.048 223.384 97.388 223.592 97.828C223.808 98.26 223.916 98.768 223.916 99.352V99.988H219.512C219.528 100.716 219.712 101.272 220.064 101.656C220.424 102.032 220.924 102.22 221.564 102.22C221.972 102.22 222.332 102.184 222.644 102.112C222.964 102.032 223.292 101.92 223.628 101.776V102.7C223.3 102.844 222.976 102.948 222.656 103.012C222.336 103.084 221.956 103.12 221.516 103.12C220.9 103.12 220.36 102.996 219.896 102.748C219.432 102.5 219.068 102.132 218.804 101.644C218.548 101.156 218.42 100.552 218.42 99.832C218.42 99.128 218.536 98.524 218.768 98.02C219.008 97.516 219.34 97.128 219.764 96.856C220.196 96.584 220.696 96.448 221.264 96.448ZM221.252 97.312C220.748 97.312 220.348 97.476 220.052 97.804C219.764 98.124 219.592 98.572 219.536 99.148H222.812C222.804 98.604 222.676 98.164 222.428 97.828C222.18 97.484 221.788 97.312 221.252 97.312ZM227.701 102.256C227.861 102.256 228.025 102.244 228.193 102.22C228.361 102.196 228.497 102.164 228.601 102.124V102.928C228.489 102.984 228.329 103.028 228.121 103.06C227.913 103.1 227.713 103.12 227.521 103.12C227.185 103.12 226.873 103.064 226.585 102.952C226.305 102.832 226.077 102.628 225.901 102.34C225.725 102.052 225.637 101.648 225.637 101.128V97.384H224.725V96.88L225.649 96.46L226.069 95.092H226.693V96.568H228.553V97.384H226.693V101.104C226.693 101.496 226.785 101.788 226.969 101.98C227.161 102.164 227.405 102.256 227.701 102.256ZM232.373 96.448C232.917 96.448 233.389 96.568 233.789 96.808C234.189 97.048 234.493 97.388 234.701 97.828C234.917 98.26 235.025 98.768 235.025 99.352V99.988H230.621C230.637 100.716 230.821 101.272 231.173 101.656C231.533 102.032 232.033 102.22 232.673 102.22C233.081 102.22 233.441 102.184 233.753 102.112C234.073 102.032 234.401 101.92 234.737 101.776V102.7C234.409 102.844 234.085 102.948 233.765 103.012C233.445 103.084 233.065 103.12 232.625 103.12C232.009 103.12 231.469 102.996 231.005 102.748C230.541 102.5 230.177 102.132 229.913 101.644C229.657 101.156 229.529 100.552 229.529 99.832C229.529 99.128 229.645 98.524 229.877 98.02C230.117 97.516 230.449 97.128 230.873 96.856C231.305 96.584 231.805 96.448 232.373 96.448ZM232.361 97.312C231.857 97.312 231.457 97.476 231.161 97.804C230.873 98.124 230.701 98.572 230.645 99.148H233.921C233.913 98.604 233.785 98.164 233.537 97.828C233.289 97.484 232.897 97.312 232.361 97.312ZM238.943 103.12C238.143 103.12 237.503 102.844 237.023 102.292C236.543 101.732 236.303 100.9 236.303 99.796C236.303 98.692 236.543 97.86 237.023 97.3C237.511 96.732 238.155 96.448 238.955 96.448C239.451 96.448 239.855 96.54 240.167 96.724C240.487 96.908 240.747 97.132 240.947 97.396H241.019C241.003 97.292 240.987 97.14 240.971 96.94C240.955 96.732 240.947 96.568 240.947 96.448V93.88H242.003V103H241.151L240.995 102.136H240.947C240.755 102.408 240.499 102.64 240.179 102.832C239.859 103.024 239.447 103.12 238.943 103.12ZM239.111 102.244C239.791 102.244 240.267 102.06 240.539 101.692C240.819 101.316 240.959 100.752 240.959 100V99.808C240.959 99.008 240.827 98.396 240.563 97.972C240.299 97.54 239.811 97.324 239.099 97.324C238.531 97.324 238.103 97.552 237.815 98.008C237.535 98.456 237.395 99.06 237.395 99.82C237.395 100.588 237.535 101.184 237.815 101.608C238.103 102.032 238.535 102.244 239.111 102.244ZM243.889 102.352C243.889 102.056 243.961 101.848 244.105 101.728C244.249 101.608 244.421 101.548 244.621 101.548C244.821 101.548 244.997 101.608 245.149 101.728C245.301 101.848 245.377 102.056 245.377 102.352C245.377 102.64 245.301 102.848 245.149 102.976C244.997 103.104 244.821 103.168 244.621 103.168C244.421 103.168 244.249 103.104 244.105 102.976C243.961 102.848 243.889 102.64 243.889 102.352Z" fill="white"/>
<path d="M199 114H213L206 121L199 114Z" fill="#323232"/>
<rect x="174.5" y="122" width="63" height="36" rx="2" fill="#ABCCF5"/>
<path d="M197.528 142.326C197.528 143.213 197.206 143.903 196.562 144.398C195.918 144.893 195.05 145.14 193.958 145.14C193.398 145.14 192.88 145.098 192.404 145.014C191.928 144.93 191.531 144.813 191.214 144.664V143.46C191.55 143.609 191.965 143.745 192.46 143.866C192.964 143.987 193.482 144.048 194.014 144.048C194.751 144.048 195.311 143.903 195.694 143.614C196.077 143.325 196.268 142.933 196.268 142.438C196.268 142.111 196.198 141.836 196.058 141.612C195.918 141.388 195.675 141.183 195.33 140.996C194.985 140.809 194.513 140.604 193.916 140.38C193.057 140.072 192.413 139.694 191.984 139.246C191.555 138.798 191.34 138.187 191.34 137.412C191.34 136.889 191.475 136.437 191.746 136.054C192.017 135.671 192.39 135.377 192.866 135.172C193.342 134.967 193.897 134.864 194.532 134.864C195.073 134.864 195.573 134.915 196.03 135.018C196.487 135.121 196.907 135.256 197.29 135.424L196.898 136.502C196.553 136.353 196.175 136.227 195.764 136.124C195.353 136.021 194.933 135.97 194.504 135.97C193.879 135.97 193.407 136.105 193.09 136.376C192.773 136.637 192.614 136.987 192.614 137.426C192.614 137.762 192.684 138.042 192.824 138.266C192.964 138.49 193.193 138.695 193.51 138.882C193.827 139.059 194.257 139.246 194.798 139.442C195.386 139.657 195.881 139.89 196.282 140.142C196.693 140.385 197.001 140.679 197.206 141.024C197.421 141.369 197.528 141.803 197.528 142.326ZM202.216 137.37C203.13 137.37 203.807 137.571 204.246 137.972C204.684 138.373 204.904 139.013 204.904 139.89V145H204.008L203.77 143.936H203.714C203.387 144.347 203.042 144.65 202.678 144.846C202.314 145.042 201.819 145.14 201.194 145.14C200.512 145.14 199.948 144.963 199.5 144.608C199.052 144.244 198.828 143.679 198.828 142.914C198.828 142.167 199.122 141.593 199.71 141.192C200.298 140.781 201.203 140.557 202.426 140.52L203.7 140.478V140.03C203.7 139.405 203.564 138.971 203.294 138.728C203.023 138.485 202.64 138.364 202.146 138.364C201.754 138.364 201.38 138.425 201.026 138.546C200.671 138.658 200.34 138.789 200.032 138.938L199.654 138.014C199.98 137.837 200.368 137.687 200.816 137.566C201.264 137.435 201.73 137.37 202.216 137.37ZM203.686 141.332L202.58 141.374C201.646 141.411 200.998 141.561 200.634 141.822C200.279 142.083 200.102 142.452 200.102 142.928C200.102 143.348 200.228 143.656 200.48 143.852C200.741 144.048 201.072 144.146 201.474 144.146C202.099 144.146 202.622 143.973 203.042 143.628C203.471 143.273 203.686 142.732 203.686 142.004V141.332ZM208.873 145L206.031 137.496H207.347L208.943 141.92C209.018 142.125 209.097 142.354 209.181 142.606C209.265 142.858 209.34 143.101 209.405 143.334C209.471 143.567 209.517 143.759 209.545 143.908H209.601C209.629 143.759 209.681 143.567 209.755 143.334C209.83 143.091 209.909 142.849 209.993 142.606C210.077 142.354 210.157 142.125 210.231 141.92L211.827 137.496H213.143L210.287 145H208.873ZM217.229 137.356C217.863 137.356 218.414 137.496 218.881 137.776C219.347 138.056 219.702 138.453 219.945 138.966C220.197 139.47 220.323 140.063 220.323 140.744V141.486H215.185C215.203 142.335 215.418 142.984 215.829 143.432C216.249 143.871 216.832 144.09 217.579 144.09C218.055 144.09 218.475 144.048 218.839 143.964C219.212 143.871 219.595 143.74 219.987 143.572V144.65C219.604 144.818 219.226 144.939 218.853 145.014C218.479 145.098 218.036 145.14 217.523 145.14C216.804 145.14 216.174 144.995 215.633 144.706C215.091 144.417 214.667 143.987 214.359 143.418C214.06 142.849 213.911 142.144 213.911 141.304C213.911 140.483 214.046 139.778 214.317 139.19C214.597 138.602 214.984 138.149 215.479 137.832C215.983 137.515 216.566 137.356 217.229 137.356ZM217.215 138.364C216.627 138.364 216.16 138.555 215.815 138.938C215.479 139.311 215.278 139.834 215.213 140.506H219.035C219.025 139.871 218.876 139.358 218.587 138.966C218.297 138.565 217.84 138.364 217.215 138.364Z" fill="white"/>
</svg>
