<svg width="412" height="208" viewBox="0 0 412 208" fill="none" xmlns="http://www.w3.org/2000/svg">
<rect x="125.5" y="86.5" width="75" height="35" rx="1.5" fill="white"/>
<path d="M146.642 99.97C145.569 99.97 144.724 100.329 144.108 101.048C143.492 101.767 143.184 102.751 143.184 104.002C143.184 105.243 143.469 106.228 144.038 106.956C144.617 107.675 145.48 108.034 146.628 108.034C147.057 108.034 147.468 107.997 147.86 107.922C148.252 107.847 148.639 107.754 149.022 107.642V108.734C148.649 108.874 148.261 108.977 147.86 109.042C147.468 109.107 146.997 109.14 146.446 109.14C145.429 109.14 144.579 108.93 143.898 108.51C143.217 108.09 142.703 107.493 142.358 106.718C142.022 105.943 141.854 105.033 141.854 103.988C141.854 102.98 142.036 102.093 142.4 101.328C142.773 100.553 143.319 99.9513 144.038 99.522C144.757 99.0833 145.629 98.864 146.656 98.864C147.711 98.864 148.63 99.06 149.414 99.452L148.91 100.516C148.602 100.376 148.257 100.25 147.874 100.138C147.501 100.026 147.09 99.97 146.642 99.97ZM153.878 101.37C154.792 101.37 155.469 101.571 155.908 101.972C156.346 102.373 156.566 103.013 156.566 103.89V109H155.67L155.432 107.936H155.376C155.049 108.347 154.704 108.65 154.34 108.846C153.976 109.042 153.481 109.14 152.856 109.14C152.174 109.14 151.61 108.963 151.162 108.608C150.714 108.244 150.49 107.679 150.49 106.914C150.49 106.167 150.784 105.593 151.372 105.192C151.96 104.781 152.865 104.557 154.088 104.52L155.362 104.478V104.03C155.362 103.405 155.226 102.971 154.956 102.728C154.685 102.485 154.302 102.364 153.808 102.364C153.416 102.364 153.042 102.425 152.688 102.546C152.333 102.658 152.002 102.789 151.694 102.938L151.316 102.014C151.642 101.837 152.03 101.687 152.478 101.566C152.926 101.435 153.392 101.37 153.878 101.37ZM155.348 105.332L154.242 105.374C153.308 105.411 152.66 105.561 152.296 105.822C151.941 106.083 151.764 106.452 151.764 106.928C151.764 107.348 151.89 107.656 152.142 107.852C152.403 108.048 152.734 108.146 153.136 108.146C153.761 108.146 154.284 107.973 154.704 107.628C155.133 107.273 155.348 106.732 155.348 106.004V105.332ZM162.495 101.356C163.391 101.356 164.068 101.575 164.525 102.014C164.983 102.453 165.211 103.153 165.211 104.114V109H163.993V104.198C163.993 102.994 163.433 102.392 162.313 102.392C161.483 102.392 160.909 102.625 160.591 103.092C160.274 103.559 160.115 104.231 160.115 105.108V109H158.883V101.496H159.877L160.059 102.518H160.129C160.372 102.126 160.708 101.837 161.137 101.65C161.567 101.454 162.019 101.356 162.495 101.356ZM170.548 109.14C169.876 109.14 169.283 109.005 168.77 108.734C168.256 108.463 167.85 108.043 167.552 107.474C167.262 106.905 167.118 106.177 167.118 105.29C167.118 104.366 167.267 103.615 167.566 103.036C167.874 102.457 168.294 102.033 168.826 101.762C169.358 101.491 169.96 101.356 170.632 101.356C171.005 101.356 171.369 101.398 171.724 101.482C172.088 101.557 172.382 101.65 172.606 101.762L172.228 102.784C172.004 102.7 171.742 102.621 171.444 102.546C171.145 102.471 170.865 102.434 170.604 102.434C169.129 102.434 168.392 103.381 168.392 105.276C168.392 106.181 168.569 106.877 168.924 107.362C169.288 107.838 169.824 108.076 170.534 108.076C170.935 108.076 171.294 108.034 171.612 107.95C171.929 107.866 172.218 107.763 172.48 107.642V108.734C172.228 108.865 171.948 108.963 171.64 109.028C171.341 109.103 170.977 109.14 170.548 109.14ZM177.162 101.356C177.797 101.356 178.348 101.496 178.814 101.776C179.281 102.056 179.636 102.453 179.878 102.966C180.13 103.47 180.256 104.063 180.256 104.744V105.486H175.118C175.137 106.335 175.352 106.984 175.762 107.432C176.182 107.871 176.766 108.09 177.512 108.09C177.988 108.09 178.408 108.048 178.772 107.964C179.146 107.871 179.528 107.74 179.92 107.572V108.65C179.538 108.818 179.16 108.939 178.786 109.014C178.413 109.098 177.97 109.14 177.456 109.14C176.738 109.14 176.108 108.995 175.566 108.706C175.025 108.417 174.6 107.987 174.292 107.418C173.994 106.849 173.844 106.144 173.844 105.304C173.844 104.483 173.98 103.778 174.25 103.19C174.53 102.602 174.918 102.149 175.412 101.832C175.916 101.515 176.5 101.356 177.162 101.356ZM177.148 102.364C176.56 102.364 176.094 102.555 175.748 102.938C175.412 103.311 175.212 103.834 175.146 104.506H178.968C178.959 103.871 178.81 103.358 178.52 102.966C178.231 102.565 177.774 102.364 177.148 102.364ZM183.399 109H182.167V98.36H183.399V109Z" fill="#1473E6"/>
<rect x="125.5" y="86.5" width="75" height="35" rx="1.5" stroke="#1473E6"/>
<rect x="209" y="86" width="78" height="36" rx="2" fill="#1473E6"/>
<path d="M232.028 106.326C232.028 107.213 231.706 107.903 231.062 108.398C230.418 108.893 229.55 109.14 228.458 109.14C227.898 109.14 227.38 109.098 226.904 109.014C226.428 108.93 226.031 108.813 225.714 108.664V107.46C226.05 107.609 226.465 107.745 226.96 107.866C227.464 107.987 227.982 108.048 228.514 108.048C229.251 108.048 229.811 107.903 230.194 107.614C230.577 107.325 230.768 106.933 230.768 106.438C230.768 106.111 230.698 105.836 230.558 105.612C230.418 105.388 230.175 105.183 229.83 104.996C229.485 104.809 229.013 104.604 228.416 104.38C227.557 104.072 226.913 103.694 226.484 103.246C226.055 102.798 225.84 102.187 225.84 101.412C225.84 100.889 225.975 100.437 226.246 100.054C226.517 99.6713 226.89 99.3773 227.366 99.172C227.842 98.9667 228.397 98.864 229.032 98.864C229.573 98.864 230.073 98.9153 230.53 99.018C230.987 99.1207 231.407 99.256 231.79 99.424L231.398 100.502C231.053 100.353 230.675 100.227 230.264 100.124C229.853 100.021 229.433 99.97 229.004 99.97C228.379 99.97 227.907 100.105 227.59 100.376C227.273 100.637 227.114 100.987 227.114 101.426C227.114 101.762 227.184 102.042 227.324 102.266C227.464 102.49 227.693 102.695 228.01 102.882C228.327 103.059 228.757 103.246 229.298 103.442C229.886 103.657 230.381 103.89 230.782 104.142C231.193 104.385 231.501 104.679 231.706 105.024C231.921 105.369 232.028 105.803 232.028 106.326ZM234.504 98.682C234.69 98.682 234.854 98.7473 234.994 98.878C235.143 98.9993 235.218 99.1953 235.218 99.466C235.218 99.7367 235.143 99.9373 234.994 100.068C234.854 100.189 234.69 100.25 234.504 100.25C234.298 100.25 234.126 100.189 233.986 100.068C233.846 99.9373 233.776 99.7367 233.776 99.466C233.776 99.1953 233.846 98.9993 233.986 98.878C234.126 98.7473 234.298 98.682 234.504 98.682ZM235.106 101.496V109H233.874V101.496H235.106ZM240.143 101.356C240.638 101.356 241.081 101.449 241.473 101.636C241.874 101.823 242.215 102.107 242.495 102.49H242.565L242.733 101.496H243.713V109.126C243.713 110.199 243.438 111.007 242.887 111.548C242.346 112.089 241.501 112.36 240.353 112.36C239.252 112.36 238.351 112.201 237.651 111.884V110.75C238.388 111.142 239.312 111.338 240.423 111.338C241.067 111.338 241.571 111.147 241.935 110.764C242.308 110.391 242.495 109.877 242.495 109.224V108.93C242.495 108.818 242.5 108.659 242.509 108.454C242.518 108.239 242.528 108.09 242.537 108.006H242.481C241.977 108.762 241.202 109.14 240.157 109.14C239.186 109.14 238.426 108.799 237.875 108.118C237.334 107.437 237.063 106.485 237.063 105.262C237.063 104.067 237.334 103.12 237.875 102.42C238.426 101.711 239.182 101.356 240.143 101.356ZM240.311 102.392C239.686 102.392 239.2 102.644 238.855 103.148C238.51 103.643 238.337 104.352 238.337 105.276C238.337 106.2 238.505 106.909 238.841 107.404C239.177 107.889 239.676 108.132 240.339 108.132C241.095 108.132 241.646 107.931 241.991 107.53C242.336 107.119 242.509 106.461 242.509 105.556V105.262C242.509 104.245 242.332 103.512 241.977 103.064C241.622 102.616 241.067 102.392 240.311 102.392ZM249.708 101.356C250.604 101.356 251.281 101.575 251.738 102.014C252.196 102.453 252.424 103.153 252.424 104.114V109H251.206V104.198C251.206 102.994 250.646 102.392 249.526 102.392C248.696 102.392 248.122 102.625 247.804 103.092C247.487 103.559 247.328 104.231 247.328 105.108V109H246.096V101.496H247.09L247.272 102.518H247.342C247.585 102.126 247.921 101.837 248.35 101.65C248.78 101.454 249.232 101.356 249.708 101.356ZM261.369 109H257.757V108.272L258.933 108.006V100.012L257.757 99.732V99.004H261.369V99.732L260.193 100.012V108.006L261.369 108.272V109ZM266.743 101.356C267.639 101.356 268.316 101.575 268.773 102.014C269.231 102.453 269.459 103.153 269.459 104.114V109H268.241V104.198C268.241 102.994 267.681 102.392 266.561 102.392C265.731 102.392 265.157 102.625 264.839 103.092C264.522 103.559 264.363 104.231 264.363 105.108V109H263.131V101.496H264.125L264.307 102.518H264.377C264.62 102.126 264.956 101.837 265.385 101.65C265.815 101.454 266.267 101.356 266.743 101.356Z" fill="white"/>
</svg>
