<svg width="411" height="208" viewBox="0 0 411 208" fill="none" xmlns="http://www.w3.org/2000/svg">
<rect x="152" y="48.5" width="107" height="35" rx="1.5" fill="white"/>
<path d="M168.858 71V61.004H170.118V69.88H174.486V71H168.858ZM178.93 63.356C179.564 63.356 180.115 63.496 180.582 63.776C181.048 64.056 181.403 64.4527 181.646 64.966C181.898 65.47 182.024 66.0627 182.024 66.744V67.486H176.886C176.904 68.3353 177.119 68.984 177.53 69.432C177.95 69.8707 178.533 70.09 179.28 70.09C179.756 70.09 180.176 70.048 180.54 69.964C180.913 69.8707 181.296 69.74 181.688 69.572V70.65C181.305 70.818 180.927 70.9393 180.554 71.014C180.18 71.098 179.737 71.14 179.224 71.14C178.505 71.14 177.875 70.9953 177.334 70.706C176.792 70.4167 176.368 69.9873 176.06 69.418C175.761 68.8487 175.612 68.144 175.612 67.304C175.612 66.4827 175.747 65.778 176.018 65.19C176.298 64.602 176.685 64.1493 177.18 63.832C177.684 63.5147 178.267 63.356 178.93 63.356ZM178.916 64.364C178.328 64.364 177.861 64.5553 177.516 64.938C177.18 65.3113 176.979 65.834 176.914 66.506H180.736C180.726 65.8713 180.577 65.358 180.288 64.966C179.998 64.5647 179.541 64.364 178.916 64.364ZM186.776 63.37C187.691 63.37 188.367 63.5707 188.806 63.972C189.245 64.3733 189.464 65.0127 189.464 65.89V71H188.568L188.33 69.936H188.274C187.947 70.3467 187.602 70.65 187.238 70.846C186.874 71.042 186.379 71.14 185.754 71.14C185.073 71.14 184.508 70.9627 184.06 70.608C183.612 70.244 183.388 69.6793 183.388 68.914C183.388 68.1673 183.682 67.5933 184.27 67.192C184.858 66.7813 185.763 66.5573 186.986 66.52L188.26 66.478V66.03C188.26 65.4047 188.125 64.9707 187.854 64.728C187.583 64.4853 187.201 64.364 186.706 64.364C186.314 64.364 185.941 64.4247 185.586 64.546C185.231 64.658 184.9 64.7887 184.592 64.938L184.214 64.014C184.541 63.8367 184.928 63.6873 185.376 63.566C185.824 63.4353 186.291 63.37 186.776 63.37ZM188.246 67.332L187.14 67.374C186.207 67.4113 185.558 67.5607 185.194 67.822C184.839 68.0833 184.662 68.452 184.662 68.928C184.662 69.348 184.788 69.656 185.04 69.852C185.301 70.048 185.633 70.146 186.034 70.146C186.659 70.146 187.182 69.9733 187.602 69.628C188.031 69.2733 188.246 68.732 188.246 68.004V67.332ZM195.282 63.356C195.422 63.356 195.571 63.3653 195.73 63.384C195.888 63.3933 196.033 63.412 196.164 63.44L196.01 64.574C195.888 64.546 195.753 64.5227 195.604 64.504C195.454 64.4853 195.319 64.476 195.198 64.476C194.815 64.476 194.456 64.5833 194.12 64.798C193.784 65.0033 193.513 65.2973 193.308 65.68C193.112 66.0533 193.014 66.492 193.014 66.996V71H191.782V63.496H192.79L192.93 64.868H192.986C193.219 64.4573 193.527 64.1027 193.91 63.804C194.302 63.5053 194.759 63.356 195.282 63.356ZM201.177 63.356C202.073 63.356 202.75 63.5753 203.207 64.014C203.664 64.4527 203.893 65.1527 203.893 66.114V71H202.675V66.198C202.675 64.994 202.115 64.392 200.995 64.392C200.164 64.392 199.59 64.6253 199.273 65.092C198.956 65.5587 198.797 66.2307 198.797 67.108V71H197.565V63.496H198.559L198.741 64.518H198.811C199.054 64.126 199.39 63.8367 199.819 63.65C200.248 63.454 200.701 63.356 201.177 63.356ZM214.434 71L211.144 62.236H211.088C211.116 62.5253 211.139 62.9173 211.158 63.412C211.177 63.8973 211.186 64.406 211.186 64.938V71H210.024V61.004H211.886L214.966 69.194H215.022L218.158 61.004H220.006V71H218.76V64.854C218.76 64.3687 218.769 63.888 218.788 63.412C218.816 62.936 218.839 62.5487 218.858 62.25H218.802L215.47 71H214.434ZM229.081 67.234C229.081 68.4753 228.764 69.4367 228.129 70.118C227.504 70.7993 226.655 71.14 225.581 71.14C224.919 71.14 224.326 70.9907 223.803 70.692C223.29 70.384 222.884 69.9407 222.585 69.362C222.287 68.774 222.137 68.0647 222.137 67.234C222.137 65.9927 222.445 65.036 223.061 64.364C223.687 63.692 224.541 63.356 225.623 63.356C226.295 63.356 226.893 63.51 227.415 63.818C227.938 64.1167 228.344 64.5553 228.633 65.134C228.932 65.7033 229.081 66.4033 229.081 67.234ZM223.411 67.234C223.411 68.1207 223.584 68.8253 223.929 69.348C224.284 69.8613 224.844 70.118 225.609 70.118C226.365 70.118 226.921 69.8613 227.275 69.348C227.63 68.8253 227.807 68.1207 227.807 67.234C227.807 66.3473 227.63 65.652 227.275 65.148C226.921 64.644 226.361 64.392 225.595 64.392C224.83 64.392 224.275 64.644 223.929 65.148C223.584 65.652 223.411 66.3473 223.411 67.234ZM234.534 63.356C234.674 63.356 234.823 63.3653 234.982 63.384C235.14 63.3933 235.285 63.412 235.416 63.44L235.262 64.574C235.14 64.546 235.005 64.5227 234.856 64.504C234.706 64.4853 234.571 64.476 234.45 64.476C234.067 64.476 233.708 64.5833 233.372 64.798C233.036 65.0033 232.765 65.2973 232.56 65.68C232.364 66.0533 232.266 66.492 232.266 66.996V71H231.034V63.496H232.042L232.182 64.868H232.238C232.471 64.4573 232.779 64.1027 233.162 63.804C233.554 63.5053 234.011 63.356 234.534 63.356ZM239.442 63.356C240.076 63.356 240.627 63.496 241.094 63.776C241.56 64.056 241.915 64.4527 242.158 64.966C242.41 65.47 242.536 66.0627 242.536 66.744V67.486H237.398C237.416 68.3353 237.631 68.984 238.042 69.432C238.462 69.8707 239.045 70.09 239.792 70.09C240.268 70.09 240.688 70.048 241.052 69.964C241.425 69.8707 241.808 69.74 242.2 69.572V70.65C241.817 70.818 241.439 70.9393 241.066 71.014C240.692 71.098 240.249 71.14 239.736 71.14C239.017 71.14 238.387 70.9953 237.846 70.706C237.304 70.4167 236.88 69.9873 236.572 69.418C236.273 68.8487 236.124 68.144 236.124 67.304C236.124 66.4827 236.259 65.778 236.53 65.19C236.81 64.602 237.197 64.1493 237.692 63.832C238.196 63.5147 238.779 63.356 239.442 63.356ZM239.428 64.364C238.84 64.364 238.373 64.5553 238.028 64.938C237.692 65.3113 237.491 65.834 237.426 66.506H241.248C241.238 65.8713 241.089 65.358 240.8 64.966C240.51 64.5647 240.053 64.364 239.428 64.364Z" fill="#CC4D1B"/>
<rect x="152" y="48.5" width="107" height="35" rx="1.5" stroke="#CC4D1B"/>
<rect x="143.5" y="124.5" width="124" height="35" rx="1.5" fill="white"/>
<path d="M167.4 137.004L163.83 147H162.57L159 137.004H160.316L162.57 143.416C162.719 143.827 162.841 144.214 162.934 144.578C163.037 144.933 163.125 145.273 163.2 145.6C163.265 145.273 163.349 144.928 163.452 144.564C163.555 144.2 163.681 143.808 163.83 143.388L166.07 137.004H167.4ZM169.215 136.682C169.401 136.682 169.565 136.747 169.705 136.878C169.854 136.999 169.929 137.195 169.929 137.466C169.929 137.737 169.854 137.937 169.705 138.068C169.565 138.189 169.401 138.25 169.215 138.25C169.009 138.25 168.837 138.189 168.697 138.068C168.557 137.937 168.487 137.737 168.487 137.466C168.487 137.195 168.557 136.999 168.697 136.878C168.837 136.747 169.009 136.682 169.215 136.682ZM169.817 139.496V147H168.585V139.496H169.817ZM175.092 139.356C175.727 139.356 176.277 139.496 176.744 139.776C177.211 140.056 177.565 140.453 177.808 140.966C178.06 141.47 178.186 142.063 178.186 142.744V143.486H173.048C173.067 144.335 173.281 144.984 173.692 145.432C174.112 145.871 174.695 146.09 175.442 146.09C175.918 146.09 176.338 146.048 176.702 145.964C177.075 145.871 177.458 145.74 177.85 145.572V146.65C177.467 146.818 177.089 146.939 176.716 147.014C176.343 147.098 175.899 147.14 175.386 147.14C174.667 147.14 174.037 146.995 173.496 146.706C172.955 146.417 172.53 145.987 172.222 145.418C171.923 144.849 171.774 144.144 171.774 143.304C171.774 142.483 171.909 141.778 172.18 141.19C172.46 140.602 172.847 140.149 173.342 139.832C173.846 139.515 174.429 139.356 175.092 139.356ZM175.078 140.364C174.49 140.364 174.023 140.555 173.678 140.938C173.342 141.311 173.141 141.834 173.076 142.506H176.898C176.889 141.871 176.739 141.358 176.45 140.966C176.161 140.565 175.703 140.364 175.078 140.364ZM185.955 146.986L184.667 142.758C184.545 142.375 184.438 142.002 184.345 141.638C184.251 141.274 184.186 140.985 184.149 140.77H184.093C184.055 140.985 183.995 141.274 183.911 141.638C183.827 142.002 183.719 142.38 183.589 142.772L182.245 146.986H180.845L178.787 139.482H180.061L181.097 143.486C181.199 143.887 181.297 144.293 181.391 144.704C181.484 145.115 181.549 145.455 181.587 145.726H181.643C181.671 145.567 181.713 145.371 181.769 145.138C181.825 144.905 181.885 144.662 181.951 144.41C182.016 144.149 182.081 143.915 182.147 143.71L183.477 139.482H184.821L186.109 143.71C186.202 144.037 186.3 144.387 186.403 144.76C186.505 145.133 186.575 145.451 186.613 145.712H186.669C186.697 145.479 186.757 145.157 186.851 144.746C186.953 144.335 187.061 143.915 187.173 143.486L188.223 139.482H189.483L187.397 146.986H185.955ZM200.905 147L199.701 143.906H195.739L194.549 147H193.275L197.181 136.962H198.315L202.207 147H200.905ZM199.323 142.786L198.203 139.762C198.175 139.687 198.129 139.552 198.063 139.356C197.998 139.16 197.933 138.959 197.867 138.754C197.811 138.539 197.765 138.376 197.727 138.264C197.653 138.553 197.573 138.838 197.489 139.118C197.415 139.389 197.349 139.603 197.293 139.762L196.159 142.786H199.323ZM206.221 137.004C207.527 137.004 208.479 137.261 209.077 137.774C209.674 138.287 209.973 139.011 209.973 139.944C209.973 140.495 209.847 141.013 209.595 141.498C209.352 141.974 208.937 142.361 208.349 142.66C207.77 142.959 206.981 143.108 205.983 143.108H204.835V147H203.575V137.004H206.221ZM206.109 138.082H204.835V142.03H205.843C206.795 142.03 207.504 141.876 207.971 141.568C208.437 141.26 208.671 140.737 208.671 140C208.671 139.356 208.461 138.875 208.041 138.558C207.63 138.241 206.986 138.082 206.109 138.082ZM214.865 147H211.253V146.272L212.429 146.006V138.012L211.253 137.732V137.004H214.865V137.732L213.689 138.012V146.006L214.865 146.272V147ZM228.44 141.904C228.44 143.593 227.978 144.867 227.054 145.726C226.14 146.575 224.861 147 223.218 147H220.432V137.004H223.512C224.511 137.004 225.379 137.191 226.116 137.564C226.863 137.937 227.437 138.488 227.838 139.216C228.24 139.944 228.44 140.84 228.44 141.904ZM227.11 141.946C227.11 140.611 226.779 139.636 226.116 139.02C225.463 138.395 224.534 138.082 223.33 138.082H221.692V145.922H223.05C225.757 145.922 227.11 144.597 227.11 141.946ZM237.015 143.234C237.015 144.475 236.697 145.437 236.063 146.118C235.437 146.799 234.588 147.14 233.515 147.14C232.852 147.14 232.259 146.991 231.737 146.692C231.223 146.384 230.817 145.941 230.519 145.362C230.22 144.774 230.071 144.065 230.071 143.234C230.071 141.993 230.379 141.036 230.995 140.364C231.62 139.692 232.474 139.356 233.557 139.356C234.229 139.356 234.826 139.51 235.349 139.818C235.871 140.117 236.277 140.555 236.567 141.134C236.865 141.703 237.015 142.403 237.015 143.234ZM231.345 143.234C231.345 144.121 231.517 144.825 231.863 145.348C232.217 145.861 232.777 146.118 233.543 146.118C234.299 146.118 234.854 145.861 235.209 145.348C235.563 144.825 235.741 144.121 235.741 143.234C235.741 142.347 235.563 141.652 235.209 141.148C234.854 140.644 234.294 140.392 233.529 140.392C232.763 140.392 232.208 140.644 231.863 141.148C231.517 141.652 231.345 142.347 231.345 143.234ZM241.977 147.14C241.305 147.14 240.713 147.005 240.199 146.734C239.686 146.463 239.28 146.043 238.981 145.474C238.692 144.905 238.547 144.177 238.547 143.29C238.547 142.366 238.697 141.615 238.995 141.036C239.303 140.457 239.723 140.033 240.255 139.762C240.787 139.491 241.389 139.356 242.061 139.356C242.435 139.356 242.799 139.398 243.153 139.482C243.517 139.557 243.811 139.65 244.035 139.762L243.657 140.784C243.433 140.7 243.172 140.621 242.873 140.546C242.575 140.471 242.295 140.434 242.033 140.434C240.559 140.434 239.821 141.381 239.821 143.276C239.821 144.181 239.999 144.877 240.353 145.362C240.717 145.838 241.254 146.076 241.963 146.076C242.365 146.076 242.724 146.034 243.041 145.95C243.359 145.866 243.648 145.763 243.909 145.642V146.734C243.657 146.865 243.377 146.963 243.069 147.028C242.771 147.103 242.407 147.14 241.977 147.14ZM250.58 144.928C250.58 145.656 250.309 146.207 249.768 146.58C249.227 146.953 248.499 147.14 247.584 147.14C247.061 147.14 246.609 147.098 246.226 147.014C245.853 146.93 245.521 146.813 245.232 146.664V145.544C245.531 145.693 245.89 145.833 246.31 145.964C246.739 146.085 247.173 146.146 247.612 146.146C248.237 146.146 248.69 146.048 248.97 145.852C249.25 145.647 249.39 145.376 249.39 145.04C249.39 144.853 249.339 144.685 249.236 144.536C249.133 144.387 248.947 144.237 248.676 144.088C248.415 143.939 248.037 143.771 247.542 143.584C247.057 143.397 246.641 143.211 246.296 143.024C245.951 142.837 245.685 142.613 245.498 142.352C245.311 142.091 245.218 141.755 245.218 141.344C245.218 140.709 245.475 140.219 245.988 139.874C246.511 139.529 247.192 139.356 248.032 139.356C248.489 139.356 248.914 139.403 249.306 139.496C249.707 139.589 250.081 139.711 250.426 139.86L250.006 140.84C249.689 140.709 249.357 140.597 249.012 140.504C248.667 140.411 248.312 140.364 247.948 140.364C247.444 140.364 247.057 140.448 246.786 140.616C246.525 140.775 246.394 140.994 246.394 141.274C246.394 141.489 246.455 141.666 246.576 141.806C246.697 141.946 246.898 142.086 247.178 142.226C247.467 142.366 247.85 142.525 248.326 142.702C248.802 142.879 249.208 143.061 249.544 143.248C249.88 143.435 250.137 143.663 250.314 143.934C250.491 144.195 250.58 144.527 250.58 144.928Z" fill="#088A08"/>
<rect x="143.5" y="124.5" width="124" height="35" rx="1.5" stroke="#088A08"/>
</svg>
