<svg width="412" height="208" viewBox="0 0 412 208" fill="none" xmlns="http://www.w3.org/2000/svg">
<rect x="117.5" y="86.5" width="84" height="35" rx="1.5" fill="white"/>
<path d="M138.642 99.97C137.569 99.97 136.724 100.329 136.108 101.048C135.492 101.767 135.184 102.751 135.184 104.002C135.184 105.243 135.469 106.228 136.038 106.956C136.617 107.675 137.48 108.034 138.628 108.034C139.057 108.034 139.468 107.997 139.86 107.922C140.252 107.847 140.639 107.754 141.022 107.642V108.734C140.649 108.874 140.261 108.977 139.86 109.042C139.468 109.107 138.997 109.14 138.446 109.14C137.429 109.14 136.579 108.93 135.898 108.51C135.217 108.09 134.703 107.493 134.358 106.718C134.022 105.943 133.854 105.033 133.854 103.988C133.854 102.98 134.036 102.093 134.4 101.328C134.773 100.553 135.319 99.9513 136.038 99.522C136.757 99.0833 137.629 98.864 138.656 98.864C139.711 98.864 140.63 99.06 141.414 99.452L140.91 100.516C140.602 100.376 140.257 100.25 139.874 100.138C139.501 100.026 139.09 99.97 138.642 99.97ZM149.476 109L148.272 105.906H144.31L143.12 109H141.846L145.752 98.962H146.886L150.778 109H149.476ZM147.894 104.786L146.774 101.762C146.746 101.687 146.699 101.552 146.634 101.356C146.568 101.16 146.503 100.959 146.438 100.754C146.382 100.539 146.335 100.376 146.298 100.264C146.223 100.553 146.144 100.838 146.06 101.118C145.985 101.389 145.92 101.603 145.864 101.762L144.73 104.786H147.894ZM160.069 109H158.599L153.251 100.698H153.195C153.214 101.025 153.237 101.431 153.265 101.916C153.293 102.401 153.307 102.901 153.307 103.414V109H152.145V99.004H153.601L158.935 107.278H158.991C158.982 107.129 158.968 106.905 158.949 106.606C158.94 106.307 158.926 105.985 158.907 105.64C158.898 105.285 158.893 104.954 158.893 104.646V99.004H160.069V109ZM167.066 99.97C165.992 99.97 165.148 100.329 164.532 101.048C163.916 101.767 163.608 102.751 163.608 104.002C163.608 105.243 163.892 106.228 164.462 106.956C165.04 107.675 165.904 108.034 167.052 108.034C167.481 108.034 167.892 107.997 168.284 107.922C168.676 107.847 169.063 107.754 169.446 107.642V108.734C169.072 108.874 168.685 108.977 168.284 109.042C167.892 109.107 167.42 109.14 166.87 109.14C165.852 109.14 165.003 108.93 164.322 108.51C163.64 108.09 163.127 107.493 162.782 106.718C162.446 105.943 162.278 105.033 162.278 103.988C162.278 102.98 162.46 102.093 162.824 101.328C163.197 100.553 163.743 99.9513 164.462 99.522C165.18 99.0833 166.053 98.864 167.08 98.864C168.134 98.864 169.054 99.06 169.838 99.452L169.334 100.516C169.026 100.376 168.68 100.25 168.298 100.138C167.924 100.026 167.514 99.97 167.066 99.97ZM177.214 109H171.628V99.004H177.214V100.11H172.888V103.232H176.962V104.324H172.888V107.894H177.214V109ZM179.407 109V99.004H180.667V107.88H185.035V109H179.407Z" fill="#1473E6"/>
<rect x="117.5" y="86.5" width="84" height="35" rx="1.5" stroke="#1473E6"/>
<rect x="210" y="86" width="85" height="36" rx="2" fill="#1473E6"/>
<path d="M233.028 106.326C233.028 107.213 232.706 107.903 232.062 108.398C231.418 108.893 230.55 109.14 229.458 109.14C228.898 109.14 228.38 109.098 227.904 109.014C227.428 108.93 227.031 108.813 226.714 108.664V107.46C227.05 107.609 227.465 107.745 227.96 107.866C228.464 107.987 228.982 108.048 229.514 108.048C230.251 108.048 230.811 107.903 231.194 107.614C231.577 107.325 231.768 106.933 231.768 106.438C231.768 106.111 231.698 105.836 231.558 105.612C231.418 105.388 231.175 105.183 230.83 104.996C230.485 104.809 230.013 104.604 229.416 104.38C228.557 104.072 227.913 103.694 227.484 103.246C227.055 102.798 226.84 102.187 226.84 101.412C226.84 100.889 226.975 100.437 227.246 100.054C227.517 99.6713 227.89 99.3773 228.366 99.172C228.842 98.9667 229.397 98.864 230.032 98.864C230.573 98.864 231.073 98.9153 231.53 99.018C231.987 99.1207 232.407 99.256 232.79 99.424L232.398 100.502C232.053 100.353 231.675 100.227 231.264 100.124C230.853 100.021 230.433 99.97 230.004 99.97C229.379 99.97 228.907 100.105 228.59 100.376C228.273 100.637 228.114 100.987 228.114 101.426C228.114 101.762 228.184 102.042 228.324 102.266C228.464 102.49 228.693 102.695 229.01 102.882C229.327 103.059 229.757 103.246 230.298 103.442C230.886 103.657 231.381 103.89 231.782 104.142C232.193 104.385 232.501 104.679 232.706 105.024C232.921 105.369 233.028 105.803 233.028 106.326ZM237.856 109H234.244V108.272L235.42 108.006V100.012L234.244 99.732V99.004H237.856V99.732L236.68 100.012V108.006L237.856 108.272V109ZM244.126 103.722H247.584V108.622C247.042 108.799 246.496 108.93 245.946 109.014C245.395 109.098 244.77 109.14 244.07 109.14C243.034 109.14 242.161 108.935 241.452 108.524C240.742 108.104 240.201 107.511 239.828 106.746C239.464 105.971 239.282 105.057 239.282 104.002C239.282 102.966 239.482 102.065 239.884 101.3C240.294 100.525 240.887 99.928 241.662 99.508C242.436 99.0787 243.37 98.864 244.462 98.864C245.022 98.864 245.549 98.9153 246.044 99.018C246.548 99.1207 247.014 99.2653 247.444 99.452L246.968 100.544C246.613 100.395 246.212 100.264 245.764 100.152C245.325 100.031 244.868 99.97 244.392 99.97C243.197 99.97 242.264 100.334 241.592 101.062C240.929 101.781 240.598 102.761 240.598 104.002C240.598 104.795 240.724 105.5 240.976 106.116C241.237 106.723 241.643 107.199 242.194 107.544C242.744 107.88 243.468 108.048 244.364 108.048C244.802 108.048 245.176 108.025 245.484 107.978C245.792 107.931 246.072 107.875 246.324 107.81V104.842H244.126V103.722ZM257.895 109H256.425L251.077 100.698H251.021C251.04 101.025 251.063 101.431 251.091 101.916C251.119 102.401 251.133 102.901 251.133 103.414V109H249.971V99.004H251.427L256.761 107.278H256.817C256.808 107.129 256.794 106.905 256.775 106.606C256.766 106.307 256.752 105.985 256.733 105.64C256.724 105.285 256.719 104.954 256.719 104.646V99.004H257.895V109ZM267.059 109H263.447V108.272L264.623 108.006V100.012L263.447 99.732V99.004H267.059V99.732L265.883 100.012V108.006L267.059 108.272V109ZM276.913 109H275.443L270.095 100.698H270.039C270.058 101.025 270.081 101.431 270.109 101.916C270.137 102.401 270.151 102.901 270.151 103.414V109H268.989V99.004H270.445L275.779 107.278H275.835C275.826 107.129 275.812 106.905 275.793 106.606C275.784 106.307 275.77 105.985 275.751 105.64C275.742 105.285 275.737 104.954 275.737 104.646V99.004H276.913V109Z" fill="white"/>
</svg>
