<svg width="856" height="36" viewBox="0 0 856 36" fill="none" xmlns="http://www.w3.org/2000/svg">
<rect width="856" height="36" fill="white"/>
<path d="M9.424 25H1.843V11.434H9.424V12.935H3.553V17.172H9.082V18.654H3.553V23.499H9.424V25ZM23.3446 14.626C24.4973 14.626 25.3586 14.9237 25.9286 15.519C26.4986 16.1143 26.7836 17.0643 26.7836 18.369V25H25.1306V18.445C25.1306 16.8363 24.4403 16.032 23.0596 16.032C22.0716 16.032 21.3623 16.317 20.9316 16.887C20.5136 17.457 20.3046 18.2867 20.3046 19.376V25H18.6516V18.445C18.6516 16.8363 17.955 16.032 16.5616 16.032C15.5356 16.032 14.8263 16.3487 14.4336 16.982C14.041 17.6153 13.8446 18.5273 13.8446 19.718V25H12.1726V14.816H13.5216L13.7686 16.203H13.8636C14.1803 15.671 14.6046 15.2783 15.1366 15.025C15.6813 14.759 16.2576 14.626 16.8656 14.626C18.4616 14.626 19.5003 15.196 19.9816 16.336H20.0766C20.4186 15.7533 20.881 15.3227 21.4636 15.044C22.0463 14.7653 22.6733 14.626 23.3446 14.626ZM33.7865 14.645C35.0278 14.645 35.9461 14.9173 36.5415 15.462C37.1368 16.0067 37.4345 16.8743 37.4345 18.065V25H36.2185L35.8955 23.556H35.8195C35.3761 24.1133 34.9075 24.525 34.4135 24.791C33.9195 25.057 33.2481 25.19 32.3995 25.19C31.4748 25.19 30.7085 24.9493 30.1005 24.468C29.4925 23.974 29.1885 23.2077 29.1885 22.169C29.1885 21.1557 29.5875 20.3767 30.3855 19.832C31.1835 19.2747 32.4121 18.9707 34.0715 18.92L35.8005 18.863V18.255C35.8005 17.4063 35.6168 16.8173 35.2495 16.488C34.8821 16.1587 34.3628 15.994 33.6915 15.994C33.1595 15.994 32.6528 16.0763 32.1715 16.241C31.6901 16.393 31.2405 16.5703 30.8225 16.773L30.3095 15.519C30.7528 15.2783 31.2785 15.0757 31.8865 14.911C32.4945 14.7337 33.1278 14.645 33.7865 14.645ZM35.7815 20.022L34.2805 20.079C33.0138 20.1297 32.1335 20.3323 31.6395 20.687C31.1581 21.0417 30.9175 21.542 30.9175 22.188C30.9175 22.758 31.0885 23.176 31.4305 23.442C31.7851 23.708 32.2348 23.841 32.7795 23.841C33.6281 23.841 34.3375 23.6067 34.9075 23.138C35.4901 22.6567 35.7815 21.922 35.7815 20.934V20.022ZM41.4348 10.997C41.6882 10.997 41.9098 11.0857 42.0998 11.263C42.3025 11.4277 42.4038 11.6937 42.4038 12.061C42.4038 12.4283 42.3025 12.7007 42.0998 12.878C41.9098 13.0427 41.6882 13.125 41.4348 13.125C41.1562 13.125 40.9218 13.0427 40.7318 12.878C40.5418 12.7007 40.4468 12.4283 40.4468 12.061C40.4468 11.6937 40.5418 11.4277 40.7318 11.263C40.9218 11.0857 41.1562 10.997 41.4348 10.997ZM42.2518 14.816V25H40.5798V14.816H42.2518ZM47.1503 25H45.4783V10.56H47.1503V25ZM59.8343 25H58.1243V12.935H53.8873V11.434H64.0523V12.935H59.8343V25ZM68.4669 14.626C69.3283 14.626 70.0756 14.816 70.7089 15.196C71.3423 15.576 71.8236 16.1143 72.1529 16.811C72.4949 17.495 72.6659 18.2993 72.6659 19.224V20.231H65.6929C65.7183 21.3837 66.0096 22.264 66.5669 22.872C67.1369 23.4673 67.9286 23.765 68.9419 23.765C69.5879 23.765 70.1579 23.708 70.6519 23.594C71.1586 23.4673 71.6779 23.29 72.2099 23.062V24.525C71.6906 24.753 71.1776 24.9177 70.6709 25.019C70.1643 25.133 69.5626 25.19 68.8659 25.19C67.8906 25.19 67.0356 24.9937 66.3009 24.601C65.5663 24.2083 64.9899 23.6257 64.5719 22.853C64.1666 22.0803 63.9639 21.124 63.9639 19.984C63.9639 18.8693 64.1476 17.913 64.5149 17.115C64.8949 16.317 65.4206 15.7027 66.0919 15.272C66.7759 14.8413 67.5676 14.626 68.4669 14.626ZM68.4479 15.994C67.6499 15.994 67.0166 16.2537 66.5479 16.773C66.0919 17.2797 65.8196 17.989 65.7309 18.901H70.9179C70.9053 18.0397 70.7026 17.343 70.3099 16.811C69.9173 16.2663 69.2966 15.994 68.4479 15.994ZM86.4306 14.626C87.5832 14.626 88.4446 14.9237 89.0146 15.519C89.5846 16.1143 89.8696 17.0643 89.8696 18.369V25H88.2166V18.445C88.2166 16.8363 87.5262 16.032 86.1456 16.032C85.1576 16.032 84.4482 16.317 84.0176 16.887C83.5996 17.457 83.3906 18.2867 83.3906 19.376V25H81.7376V18.445C81.7376 16.8363 81.0409 16.032 79.6476 16.032C78.6216 16.032 77.9122 16.3487 77.5196 16.982C77.1269 17.6153 76.9306 18.5273 76.9306 19.718V25H75.2586V14.816H76.6076L76.8546 16.203H76.9496C77.2662 15.671 77.6906 15.2783 78.2226 15.025C78.7672 14.759 79.3436 14.626 79.9516 14.626C81.5476 14.626 82.5862 15.196 83.0676 16.336H83.1626C83.5046 15.7533 83.9669 15.3227 84.5496 15.044C85.1322 14.7653 85.7592 14.626 86.4306 14.626ZM97.8604 14.626C99.1144 14.626 100.121 15.063 100.881 15.937C101.654 16.811 102.04 18.1283 102.04 19.889C102.04 21.6243 101.654 22.9417 100.881 23.841C100.121 24.7403 99.1081 25.19 97.8414 25.19C97.0561 25.19 96.4037 25.0443 95.8844 24.753C95.3777 24.4617 94.9787 24.1133 94.6874 23.708H94.5734C94.5861 23.9233 94.6051 24.1957 94.6304 24.525C94.6684 24.8543 94.6874 25.1393 94.6874 25.38V29.56H93.0154V14.816H94.3834L94.6114 16.203H94.6874C94.9914 15.7597 95.3904 15.386 95.8844 15.082C96.3784 14.778 97.0371 14.626 97.8604 14.626ZM97.5564 16.032C96.5177 16.032 95.7831 16.3233 95.3524 16.906C94.9217 17.4887 94.7001 18.3753 94.6874 19.566V19.889C94.6874 21.143 94.8901 22.112 95.2954 22.796C95.7134 23.4673 96.4797 23.803 97.5944 23.803C98.2024 23.803 98.7091 23.6383 99.1144 23.309C99.5197 22.967 99.8174 22.4983 100.007 21.903C100.21 21.3077 100.311 20.63 100.311 19.87C100.311 18.7047 100.083 17.7737 99.6274 17.077C99.1841 16.3803 98.4937 16.032 97.5564 16.032ZM106.377 25H104.705V10.56H106.377V25ZM113.46 14.645C114.702 14.645 115.62 14.9173 116.215 15.462C116.811 16.0067 117.108 16.8743 117.108 18.065V25H115.892L115.569 23.556H115.493C115.05 24.1133 114.581 24.525 114.087 24.791C113.593 25.057 112.922 25.19 112.073 25.19C111.149 25.19 110.382 24.9493 109.774 24.468C109.166 23.974 108.862 23.2077 108.862 22.169C108.862 21.1557 109.261 20.3767 110.059 19.832C110.857 19.2747 112.086 18.9707 113.745 18.92L115.474 18.863V18.255C115.474 17.4063 115.291 16.8173 114.923 16.488C114.556 16.1587 114.037 15.994 113.365 15.994C112.833 15.994 112.327 16.0763 111.845 16.241C111.364 16.393 110.914 16.5703 110.496 16.773L109.983 15.519C110.427 15.2783 110.952 15.0757 111.56 14.911C112.168 14.7337 112.802 14.645 113.46 14.645ZM115.455 20.022L113.954 20.079C112.688 20.1297 111.807 20.3323 111.313 20.687C110.832 21.0417 110.591 21.542 110.591 22.188C110.591 22.758 110.762 23.176 111.104 23.442C111.459 23.708 111.909 23.841 112.453 23.841C113.302 23.841 114.011 23.6067 114.581 23.138C115.164 22.6567 115.455 21.922 115.455 20.934V20.022ZM123.655 23.822C123.908 23.822 124.168 23.803 124.434 23.765C124.7 23.727 124.915 23.6763 125.08 23.613V24.886C124.902 24.9747 124.649 25.0443 124.32 25.095C123.99 25.1583 123.674 25.19 123.37 25.19C122.838 25.19 122.344 25.1013 121.888 24.924C121.444 24.734 121.083 24.411 120.805 23.955C120.526 23.499 120.387 22.8593 120.387 22.036V16.108H118.943V15.31L120.406 14.645L121.071 12.479H122.059V14.816H125.004V16.108H122.059V21.998C122.059 22.6187 122.204 23.081 122.496 23.385C122.8 23.6763 123.186 23.822 123.655 23.822ZM131.052 14.626C131.913 14.626 132.661 14.816 133.294 15.196C133.927 15.576 134.409 16.1143 134.738 16.811C135.08 17.495 135.251 18.2993 135.251 19.224V20.231H128.278C128.303 21.3837 128.595 22.264 129.152 22.872C129.722 23.4673 130.514 23.765 131.527 23.765C132.173 23.765 132.743 23.708 133.237 23.594C133.744 23.4673 134.263 23.29 134.795 23.062V24.525C134.276 24.753 133.763 24.9177 133.256 25.019C132.749 25.133 132.148 25.19 131.451 25.19C130.476 25.19 129.621 24.9937 128.886 24.601C128.151 24.2083 127.575 23.6257 127.157 22.853C126.752 22.0803 126.549 21.124 126.549 19.984C126.549 18.8693 126.733 17.913 127.1 17.115C127.48 16.317 128.006 15.7027 128.677 15.272C129.361 14.8413 130.153 14.626 131.052 14.626ZM131.033 15.994C130.235 15.994 129.602 16.2537 129.133 16.773C128.677 17.2797 128.405 17.989 128.316 18.901H133.503C133.49 18.0397 133.288 17.343 132.895 16.811C132.502 16.2663 131.882 15.994 131.033 15.994ZM144.475 22.188C144.475 23.176 144.107 23.9233 143.373 24.43C142.638 24.9367 141.65 25.19 140.409 25.19C139.699 25.19 139.085 25.133 138.566 25.019C138.059 24.905 137.609 24.7467 137.217 24.544V23.024C137.622 23.2267 138.11 23.4167 138.68 23.594C139.262 23.7587 139.851 23.841 140.447 23.841C141.295 23.841 141.91 23.708 142.29 23.442C142.67 23.1633 142.86 22.796 142.86 22.34C142.86 22.0867 142.79 21.8587 142.651 21.656C142.511 21.4533 142.258 21.2507 141.891 21.048C141.536 20.8453 141.023 20.6173 140.352 20.364C139.693 20.1107 139.129 19.8573 138.661 19.604C138.192 19.3507 137.831 19.0467 137.578 18.692C137.324 18.3373 137.198 17.8813 137.198 17.324C137.198 16.4627 137.546 15.7977 138.243 15.329C138.952 14.8603 139.877 14.626 141.017 14.626C141.637 14.626 142.214 14.6893 142.746 14.816C143.29 14.9427 143.797 15.1073 144.266 15.31L143.696 16.64C143.265 16.4627 142.815 16.3107 142.347 16.184C141.878 16.0573 141.397 15.994 140.903 15.994C140.219 15.994 139.693 16.108 139.326 16.336C138.971 16.5513 138.794 16.849 138.794 17.229C138.794 17.5203 138.876 17.761 139.041 17.951C139.205 18.141 139.478 18.331 139.858 18.521C140.25 18.711 140.77 18.9263 141.416 19.167C142.062 19.4077 142.613 19.6547 143.069 19.908C143.525 20.1613 143.873 20.4717 144.114 20.839C144.354 21.1937 144.475 21.6433 144.475 22.188Z" fill="#1473E6"/>
<path d="M160.878 11.434L155.824 25H154.19L159.244 11.434H160.878Z" fill="black"/>
<path d="M182.597 25H180.602L173.344 13.733H173.268C173.293 14.1763 173.325 14.7273 173.363 15.386C173.401 16.0447 173.42 16.7223 173.42 17.419V25H171.843V11.434H173.819L181.058 22.663H181.134C181.121 22.4603 181.102 22.1563 181.077 21.751C181.064 21.3457 181.045 20.9087 181.02 20.44C181.007 19.9587 181.001 19.509 181.001 19.091V11.434H182.597V25ZM189.984 14.626C190.845 14.626 191.592 14.816 192.226 15.196C192.859 15.576 193.34 16.1143 193.67 16.811C194.012 17.495 194.183 18.2993 194.183 19.224V20.231H187.21C187.235 21.3837 187.526 22.264 188.084 22.872C188.654 23.4673 189.445 23.765 190.459 23.765C191.105 23.765 191.675 23.708 192.169 23.594C192.675 23.4673 193.195 23.29 193.727 23.062V24.525C193.207 24.753 192.694 24.9177 192.188 25.019C191.681 25.133 191.079 25.19 190.383 25.19C189.407 25.19 188.552 24.9937 187.818 24.601C187.083 24.2083 186.507 23.6257 186.089 22.853C185.683 22.0803 185.481 21.124 185.481 19.984C185.481 18.8693 185.664 17.913 186.032 17.115C186.412 16.317 186.937 15.7027 187.609 15.272C188.293 14.8413 189.084 14.626 189.984 14.626ZM189.965 15.994C189.167 15.994 188.533 16.2537 188.065 16.773C187.609 17.2797 187.336 17.989 187.248 18.901H192.435C192.422 18.0397 192.219 17.343 191.827 16.811C191.434 16.2663 190.813 15.994 189.965 15.994ZM204.726 24.981L202.978 19.243C202.813 18.7237 202.668 18.217 202.541 17.723C202.414 17.229 202.326 16.8363 202.275 16.545H202.199C202.148 16.8363 202.066 17.229 201.952 17.723C201.838 18.217 201.692 18.73 201.515 19.262L199.691 24.981H197.791L194.998 14.797H196.727L198.133 20.231C198.272 20.7757 198.405 21.3267 198.532 21.884C198.659 22.4413 198.747 22.9037 198.798 23.271H198.874C198.912 23.0557 198.969 22.7897 199.045 22.473C199.121 22.1563 199.203 21.827 199.292 21.485C199.381 21.1303 199.469 20.8137 199.558 20.535L201.363 14.797H203.187L204.935 20.535C205.062 20.9783 205.195 21.4533 205.334 21.96C205.473 22.4667 205.568 22.8973 205.619 23.252H205.695C205.733 22.9353 205.815 22.4983 205.942 21.941C206.081 21.3837 206.227 20.8137 206.379 20.231L207.804 14.797H209.514L206.683 24.981H204.726ZM224.085 25H216.504V11.434H224.085V12.935H218.214V17.172H223.743V18.654H218.214V23.499H224.085V25ZM238.006 14.626C239.158 14.626 240.02 14.9237 240.59 15.519C241.16 16.1143 241.445 17.0643 241.445 18.369V25H239.792V18.445C239.792 16.8363 239.101 16.032 237.721 16.032C236.733 16.032 236.023 16.317 235.593 16.887C235.175 17.457 234.966 18.2867 234.966 19.376V25H233.313V18.445C233.313 16.8363 232.616 16.032 231.223 16.032C230.197 16.032 229.487 16.3487 229.095 16.982C228.702 17.6153 228.506 18.5273 228.506 19.718V25H226.834V14.816H228.183L228.43 16.203H228.525C228.841 15.671 229.266 15.2783 229.798 15.025C230.342 14.759 230.919 14.626 231.527 14.626C233.123 14.626 234.161 15.196 234.643 16.336H234.738C235.08 15.7533 235.542 15.3227 236.125 15.044C236.707 14.7653 237.334 14.626 238.006 14.626ZM248.448 14.645C249.689 14.645 250.607 14.9173 251.203 15.462C251.798 16.0067 252.096 16.8743 252.096 18.065V25H250.88L250.557 23.556H250.481C250.037 24.1133 249.569 24.525 249.075 24.791C248.581 25.057 247.909 25.19 247.061 25.19C246.136 25.19 245.37 24.9493 244.762 24.468C244.154 23.974 243.85 23.2077 243.85 22.169C243.85 21.1557 244.249 20.3767 245.047 19.832C245.845 19.2747 247.073 18.9707 248.733 18.92L250.462 18.863V18.255C250.462 17.4063 250.278 16.8173 249.911 16.488C249.543 16.1587 249.024 15.994 248.353 15.994C247.821 15.994 247.314 16.0763 246.833 16.241C246.351 16.393 245.902 16.5703 245.484 16.773L244.971 15.519C245.414 15.2783 245.94 15.0757 246.548 14.911C247.156 14.7337 247.789 14.645 248.448 14.645ZM250.443 20.022L248.942 20.079C247.675 20.1297 246.795 20.3323 246.301 20.687C245.819 21.0417 245.579 21.542 245.579 22.188C245.579 22.758 245.75 23.176 246.092 23.442C246.446 23.708 246.896 23.841 247.441 23.841C248.289 23.841 248.999 23.6067 249.569 23.138C250.151 22.6567 250.443 21.922 250.443 20.934V20.022ZM256.096 10.997C256.349 10.997 256.571 11.0857 256.761 11.263C256.964 11.4277 257.065 11.6937 257.065 12.061C257.065 12.4283 256.964 12.7007 256.761 12.878C256.571 13.0427 256.349 13.125 256.096 13.125C255.817 13.125 255.583 13.0427 255.393 12.878C255.203 12.7007 255.108 12.4283 255.108 12.061C255.108 11.6937 255.203 11.4277 255.393 11.263C255.583 11.0857 255.817 10.997 256.096 10.997ZM256.913 14.816V25H255.241V14.816H256.913ZM261.811 25H260.139V10.56H261.811V25ZM274.495 25H272.785V12.935H268.548V11.434H278.713V12.935H274.495V25ZM283.128 14.626C283.989 14.626 284.737 14.816 285.37 15.196C286.003 15.576 286.485 16.1143 286.814 16.811C287.156 17.495 287.327 18.2993 287.327 19.224V20.231H280.354C280.379 21.3837 280.671 22.264 281.228 22.872C281.798 23.4673 282.59 23.765 283.603 23.765C284.249 23.765 284.819 23.708 285.313 23.594C285.82 23.4673 286.339 23.29 286.871 23.062V24.525C286.352 24.753 285.839 24.9177 285.332 25.019C284.825 25.133 284.224 25.19 283.527 25.19C282.552 25.19 281.697 24.9937 280.962 24.601C280.227 24.2083 279.651 23.6257 279.233 22.853C278.828 22.0803 278.625 21.124 278.625 19.984C278.625 18.8693 278.809 17.913 279.176 17.115C279.556 16.317 280.082 15.7027 280.753 15.272C281.437 14.8413 282.229 14.626 283.128 14.626ZM283.109 15.994C282.311 15.994 281.678 16.2537 281.209 16.773C280.753 17.2797 280.481 17.989 280.392 18.901H285.579C285.566 18.0397 285.364 17.343 284.971 16.811C284.578 16.2663 283.958 15.994 283.109 15.994ZM301.092 14.626C302.244 14.626 303.106 14.9237 303.676 15.519C304.246 16.1143 304.531 17.0643 304.531 18.369V25H302.878V18.445C302.878 16.8363 302.187 16.032 300.807 16.032C299.819 16.032 299.109 16.317 298.679 16.887C298.261 17.457 298.052 18.2867 298.052 19.376V25H296.399V18.445C296.399 16.8363 295.702 16.032 294.309 16.032C293.283 16.032 292.573 16.3487 292.181 16.982C291.788 17.6153 291.592 18.5273 291.592 19.718V25H289.92V14.816H291.269L291.516 16.203H291.611C291.927 15.671 292.352 15.2783 292.884 15.025C293.428 14.759 294.005 14.626 294.613 14.626C296.209 14.626 297.247 15.196 297.729 16.336H297.824C298.166 15.7533 298.628 15.3227 299.211 15.044C299.793 14.7653 300.42 14.626 301.092 14.626ZM312.522 14.626C313.776 14.626 314.783 15.063 315.543 15.937C316.315 16.811 316.702 18.1283 316.702 19.889C316.702 21.6243 316.315 22.9417 315.543 23.841C314.783 24.7403 313.769 25.19 312.503 25.19C311.717 25.19 311.065 25.0443 310.546 24.753C310.039 24.4617 309.64 24.1133 309.349 23.708H309.235C309.247 23.9233 309.266 24.1957 309.292 24.525C309.33 24.8543 309.349 25.1393 309.349 25.38V29.56H307.677V14.816H309.045L309.273 16.203H309.349C309.653 15.7597 310.052 15.386 310.546 15.082C311.04 14.778 311.698 14.626 312.522 14.626ZM312.218 16.032C311.179 16.032 310.444 16.3233 310.014 16.906C309.583 17.4887 309.361 18.3753 309.349 19.566V19.889C309.349 21.143 309.551 22.112 309.957 22.796C310.375 23.4673 311.141 23.803 312.256 23.803C312.864 23.803 313.37 23.6383 313.776 23.309C314.181 22.967 314.479 22.4983 314.669 21.903C314.871 21.3077 314.973 20.63 314.973 19.87C314.973 18.7047 314.745 17.7737 314.289 17.077C313.845 16.3803 313.155 16.032 312.218 16.032ZM321.038 25H319.366V10.56H321.038V25ZM328.121 14.645C329.363 14.645 330.281 14.9173 330.876 15.462C331.472 16.0067 331.769 16.8743 331.769 18.065V25H330.553L330.23 23.556H330.154C329.711 24.1133 329.242 24.525 328.748 24.791C328.254 25.057 327.583 25.19 326.734 25.19C325.81 25.19 325.043 24.9493 324.435 24.468C323.827 23.974 323.523 23.2077 323.523 22.169C323.523 21.1557 323.922 20.3767 324.72 19.832C325.518 19.2747 326.747 18.9707 328.406 18.92L330.135 18.863V18.255C330.135 17.4063 329.952 16.8173 329.584 16.488C329.217 16.1587 328.698 15.994 328.026 15.994C327.494 15.994 326.988 16.0763 326.506 16.241C326.025 16.393 325.575 16.5703 325.157 16.773L324.644 15.519C325.088 15.2783 325.613 15.0757 326.221 14.911C326.829 14.7337 327.463 14.645 328.121 14.645ZM330.116 20.022L328.615 20.079C327.349 20.1297 326.468 20.3323 325.974 20.687C325.493 21.0417 325.252 21.542 325.252 22.188C325.252 22.758 325.423 23.176 325.765 23.442C326.12 23.708 326.57 23.841 327.114 23.841C327.963 23.841 328.672 23.6067 329.242 23.138C329.825 22.6567 330.116 21.922 330.116 20.934V20.022ZM338.316 23.822C338.569 23.822 338.829 23.803 339.095 23.765C339.361 23.727 339.576 23.6763 339.741 23.613V24.886C339.563 24.9747 339.31 25.0443 338.981 25.095C338.651 25.1583 338.335 25.19 338.031 25.19C337.499 25.19 337.005 25.1013 336.549 24.924C336.105 24.734 335.744 24.411 335.466 23.955C335.187 23.499 335.048 22.8593 335.048 22.036V16.108H333.604V15.31L335.067 14.645L335.732 12.479H336.72V14.816H339.665V16.108H336.72V21.998C336.72 22.6187 336.865 23.081 337.157 23.385C337.461 23.6763 337.847 23.822 338.316 23.822ZM345.713 14.626C346.574 14.626 347.322 14.816 347.955 15.196C348.588 15.576 349.07 16.1143 349.399 16.811C349.741 17.495 349.912 18.2993 349.912 19.224V20.231H342.939C342.964 21.3837 343.256 22.264 343.813 22.872C344.383 23.4673 345.175 23.765 346.188 23.765C346.834 23.765 347.404 23.708 347.898 23.594C348.405 23.4673 348.924 23.29 349.456 23.062V24.525C348.937 24.753 348.424 24.9177 347.917 25.019C347.41 25.133 346.809 25.19 346.112 25.19C345.137 25.19 344.282 24.9937 343.547 24.601C342.812 24.2083 342.236 23.6257 341.818 22.853C341.413 22.0803 341.21 21.124 341.21 19.984C341.21 18.8693 341.394 17.913 341.761 17.115C342.141 16.317 342.667 15.7027 343.338 15.272C344.022 14.8413 344.814 14.626 345.713 14.626ZM345.694 15.994C344.896 15.994 344.263 16.2537 343.794 16.773C343.338 17.2797 343.066 17.989 342.977 18.901H348.164C348.151 18.0397 347.949 17.343 347.556 16.811C347.163 16.2663 346.543 15.994 345.694 15.994Z" fill="black"/>
<rect x="557.5" y="0.5" width="75" height="35" rx="1.5" fill="white"/>
<path d="M578.642 13.97C577.569 13.97 576.724 14.3293 576.108 15.048C575.492 15.7667 575.184 16.7513 575.184 18.002C575.184 19.2433 575.469 20.228 576.038 20.956C576.617 21.6747 577.48 22.034 578.628 22.034C579.057 22.034 579.468 21.9967 579.86 21.922C580.252 21.8473 580.639 21.754 581.022 21.642V22.734C580.649 22.874 580.261 22.9767 579.86 23.042C579.468 23.1073 578.997 23.14 578.446 23.14C577.429 23.14 576.579 22.93 575.898 22.51C575.217 22.09 574.703 21.4927 574.358 20.718C574.022 19.9433 573.854 19.0333 573.854 17.988C573.854 16.98 574.036 16.0933 574.4 15.328C574.773 14.5533 575.319 13.9513 576.038 13.522C576.757 13.0833 577.629 12.864 578.656 12.864C579.711 12.864 580.63 13.06 581.414 13.452L580.91 14.516C580.602 14.376 580.257 14.25 579.874 14.138C579.501 14.026 579.09 13.97 578.642 13.97ZM585.878 15.37C586.792 15.37 587.469 15.5707 587.908 15.972C588.346 16.3733 588.566 17.0127 588.566 17.89V23H587.67L587.432 21.936H587.376C587.049 22.3467 586.704 22.65 586.34 22.846C585.976 23.042 585.481 23.14 584.856 23.14C584.174 23.14 583.61 22.9627 583.162 22.608C582.714 22.244 582.49 21.6793 582.49 20.914C582.49 20.1673 582.784 19.5933 583.372 19.192C583.96 18.7813 584.865 18.5573 586.088 18.52L587.362 18.478V18.03C587.362 17.4047 587.226 16.9707 586.956 16.728C586.685 16.4853 586.302 16.364 585.808 16.364C585.416 16.364 585.042 16.4247 584.688 16.546C584.333 16.658 584.002 16.7887 583.694 16.938L583.316 16.014C583.642 15.8367 584.03 15.6873 584.478 15.566C584.926 15.4353 585.392 15.37 585.878 15.37ZM587.348 19.332L586.242 19.374C585.308 19.4113 584.66 19.5607 584.296 19.822C583.941 20.0833 583.764 20.452 583.764 20.928C583.764 21.348 583.89 21.656 584.142 21.852C584.403 22.048 584.734 22.146 585.136 22.146C585.761 22.146 586.284 21.9733 586.704 21.628C587.133 21.2733 587.348 20.732 587.348 20.004V19.332ZM594.495 15.356C595.391 15.356 596.068 15.5753 596.525 16.014C596.983 16.4527 597.211 17.1527 597.211 18.114V23H595.993V18.198C595.993 16.994 595.433 16.392 594.313 16.392C593.483 16.392 592.909 16.6253 592.591 17.092C592.274 17.5587 592.115 18.2307 592.115 19.108V23H590.883V15.496H591.877L592.059 16.518H592.129C592.372 16.126 592.708 15.8367 593.137 15.65C593.567 15.454 594.019 15.356 594.495 15.356ZM602.548 23.14C601.876 23.14 601.283 23.0047 600.77 22.734C600.256 22.4633 599.85 22.0433 599.552 21.474C599.262 20.9047 599.118 20.1767 599.118 19.29C599.118 18.366 599.267 17.6147 599.566 17.036C599.874 16.4573 600.294 16.0327 600.826 15.762C601.358 15.4913 601.96 15.356 602.632 15.356C603.005 15.356 603.369 15.398 603.724 15.482C604.088 15.5567 604.382 15.65 604.606 15.762L604.228 16.784C604.004 16.7 603.742 16.6207 603.444 16.546C603.145 16.4713 602.865 16.434 602.604 16.434C601.129 16.434 600.392 17.3813 600.392 19.276C600.392 20.1813 600.569 20.8767 600.924 21.362C601.288 21.838 601.824 22.076 602.534 22.076C602.935 22.076 603.294 22.034 603.612 21.95C603.929 21.866 604.218 21.7633 604.48 21.642V22.734C604.228 22.8647 603.948 22.9627 603.64 23.028C603.341 23.1027 602.977 23.14 602.548 23.14ZM609.162 15.356C609.797 15.356 610.348 15.496 610.814 15.776C611.281 16.056 611.636 16.4527 611.878 16.966C612.13 17.47 612.256 18.0627 612.256 18.744V19.486H607.118C607.137 20.3353 607.352 20.984 607.762 21.432C608.182 21.8707 608.766 22.09 609.512 22.09C609.988 22.09 610.408 22.048 610.772 21.964C611.146 21.8707 611.528 21.74 611.92 21.572V22.65C611.538 22.818 611.16 22.9393 610.786 23.014C610.413 23.098 609.97 23.14 609.456 23.14C608.738 23.14 608.108 22.9953 607.566 22.706C607.025 22.4167 606.6 21.9873 606.292 21.418C605.994 20.8487 605.844 20.144 605.844 19.304C605.844 18.4827 605.98 17.778 606.25 17.19C606.53 16.602 606.918 16.1493 607.412 15.832C607.916 15.5147 608.5 15.356 609.162 15.356ZM609.148 16.364C608.56 16.364 608.094 16.5553 607.748 16.938C607.412 17.3113 607.212 17.834 607.146 18.506H610.968C610.959 17.8713 610.81 17.358 610.52 16.966C610.231 16.5647 609.774 16.364 609.148 16.364ZM615.399 23H614.167V12.36H615.399V23Z" fill="#1473E6"/>
<rect x="557.5" y="0.5" width="75" height="35" rx="1.5" stroke="#1473E6"/>
<rect x="641" width="63" height="36" rx="2" fill="#1473E6"/>
<path d="M664.028 20.326C664.028 21.2127 663.706 21.9033 663.062 22.398C662.418 22.8927 661.55 23.14 660.458 23.14C659.898 23.14 659.38 23.098 658.904 23.014C658.428 22.93 658.031 22.8133 657.714 22.664V21.46C658.05 21.6093 658.465 21.7447 658.96 21.866C659.464 21.9873 659.982 22.048 660.514 22.048C661.251 22.048 661.811 21.9033 662.194 21.614C662.577 21.3247 662.768 20.9327 662.768 20.438C662.768 20.1113 662.698 19.836 662.558 19.612C662.418 19.388 662.175 19.1827 661.83 18.996C661.485 18.8093 661.013 18.604 660.416 18.38C659.557 18.072 658.913 17.694 658.484 17.246C658.055 16.798 657.84 16.1867 657.84 15.412C657.84 14.8893 657.975 14.4367 658.246 14.054C658.517 13.6713 658.89 13.3773 659.366 13.172C659.842 12.9667 660.397 12.864 661.032 12.864C661.573 12.864 662.073 12.9153 662.53 13.018C662.987 13.1207 663.407 13.256 663.79 13.424L663.398 14.502C663.053 14.3527 662.675 14.2267 662.264 14.124C661.853 14.0213 661.433 13.97 661.004 13.97C660.379 13.97 659.907 14.1053 659.59 14.376C659.273 14.6373 659.114 14.9873 659.114 15.426C659.114 15.762 659.184 16.042 659.324 16.266C659.464 16.49 659.693 16.6953 660.01 16.882C660.327 17.0593 660.757 17.246 661.298 17.442C661.886 17.6567 662.381 17.89 662.782 18.142C663.193 18.3847 663.501 18.6787 663.706 19.024C663.921 19.3693 664.028 19.8033 664.028 20.326ZM668.716 15.37C669.63 15.37 670.307 15.5707 670.746 15.972C671.184 16.3733 671.404 17.0127 671.404 17.89V23H670.508L670.27 21.936H670.214C669.887 22.3467 669.542 22.65 669.178 22.846C668.814 23.042 668.319 23.14 667.694 23.14C667.012 23.14 666.448 22.9627 666 22.608C665.552 22.244 665.328 21.6793 665.328 20.914C665.328 20.1673 665.622 19.5933 666.21 19.192C666.798 18.7813 667.703 18.5573 668.926 18.52L670.2 18.478V18.03C670.2 17.4047 670.064 16.9707 669.794 16.728C669.523 16.4853 669.14 16.364 668.646 16.364C668.254 16.364 667.88 16.4247 667.526 16.546C667.171 16.658 666.84 16.7887 666.532 16.938L666.154 16.014C666.48 15.8367 666.868 15.6873 667.316 15.566C667.764 15.4353 668.23 15.37 668.716 15.37ZM670.186 19.332L669.08 19.374C668.146 19.4113 667.498 19.5607 667.134 19.822C666.779 20.0833 666.602 20.452 666.602 20.928C666.602 21.348 666.728 21.656 666.98 21.852C667.241 22.048 667.572 22.146 667.974 22.146C668.599 22.146 669.122 21.9733 669.542 21.628C669.971 21.2733 670.186 20.732 670.186 20.004V19.332ZM675.373 23L672.531 15.496H673.847L675.443 19.92C675.518 20.1253 675.597 20.354 675.681 20.606C675.765 20.858 675.84 21.1007 675.905 21.334C675.971 21.5673 676.017 21.7587 676.045 21.908H676.101C676.129 21.7587 676.181 21.5673 676.255 21.334C676.33 21.0913 676.409 20.8487 676.493 20.606C676.577 20.354 676.657 20.1253 676.731 19.92L678.327 15.496H679.643L676.787 23H675.373ZM683.729 15.356C684.363 15.356 684.914 15.496 685.381 15.776C685.847 16.056 686.202 16.4527 686.445 16.966C686.697 17.47 686.823 18.0627 686.823 18.744V19.486H681.685C681.703 20.3353 681.918 20.984 682.329 21.432C682.749 21.8707 683.332 22.09 684.079 22.09C684.555 22.09 684.975 22.048 685.339 21.964C685.712 21.8707 686.095 21.74 686.487 21.572V22.65C686.104 22.818 685.726 22.9393 685.353 23.014C684.979 23.098 684.536 23.14 684.023 23.14C683.304 23.14 682.674 22.9953 682.133 22.706C681.591 22.4167 681.167 21.9873 680.859 21.418C680.56 20.8487 680.411 20.144 680.411 19.304C680.411 18.4827 680.546 17.778 680.817 17.19C681.097 16.602 681.484 16.1493 681.979 15.832C682.483 15.5147 683.066 15.356 683.729 15.356ZM683.715 16.364C683.127 16.364 682.66 16.5553 682.315 16.938C681.979 17.3113 681.778 17.834 681.713 18.506H685.535C685.525 17.8713 685.376 17.358 685.087 16.966C684.797 16.5647 684.34 16.364 683.715 16.364Z" fill="white"/>
<rect x="712" width="144" height="36" rx="2" fill="#1473E6"/>
<path d="M735.028 20.326C735.028 21.2127 734.706 21.9033 734.062 22.398C733.418 22.8927 732.55 23.14 731.458 23.14C730.898 23.14 730.38 23.098 729.904 23.014C729.428 22.93 729.031 22.8133 728.714 22.664V21.46C729.05 21.6093 729.465 21.7447 729.96 21.866C730.464 21.9873 730.982 22.048 731.514 22.048C732.251 22.048 732.811 21.9033 733.194 21.614C733.577 21.3247 733.768 20.9327 733.768 20.438C733.768 20.1113 733.698 19.836 733.558 19.612C733.418 19.388 733.175 19.1827 732.83 18.996C732.485 18.8093 732.013 18.604 731.416 18.38C730.557 18.072 729.913 17.694 729.484 17.246C729.055 16.798 728.84 16.1867 728.84 15.412C728.84 14.8893 728.975 14.4367 729.246 14.054C729.517 13.6713 729.89 13.3773 730.366 13.172C730.842 12.9667 731.397 12.864 732.032 12.864C732.573 12.864 733.073 12.9153 733.53 13.018C733.987 13.1207 734.407 13.256 734.79 13.424L734.398 14.502C734.053 14.3527 733.675 14.2267 733.264 14.124C732.853 14.0213 732.433 13.97 732.004 13.97C731.379 13.97 730.907 14.1053 730.59 14.376C730.273 14.6373 730.114 14.9873 730.114 15.426C730.114 15.762 730.184 16.042 730.324 16.266C730.464 16.49 730.693 16.6953 731.01 16.882C731.327 17.0593 731.757 17.246 732.298 17.442C732.886 17.6567 733.381 17.89 733.782 18.142C734.193 18.3847 734.501 18.6787 734.706 19.024C734.921 19.3693 735.028 19.8033 735.028 20.326ZM739.716 15.37C740.63 15.37 741.307 15.5707 741.746 15.972C742.184 16.3733 742.404 17.0127 742.404 17.89V23H741.508L741.27 21.936H741.214C740.887 22.3467 740.542 22.65 740.178 22.846C739.814 23.042 739.319 23.14 738.694 23.14C738.012 23.14 737.448 22.9627 737 22.608C736.552 22.244 736.328 21.6793 736.328 20.914C736.328 20.1673 736.622 19.5933 737.21 19.192C737.798 18.7813 738.703 18.5573 739.926 18.52L741.2 18.478V18.03C741.2 17.4047 741.064 16.9707 740.794 16.728C740.523 16.4853 740.14 16.364 739.646 16.364C739.254 16.364 738.88 16.4247 738.526 16.546C738.171 16.658 737.84 16.7887 737.532 16.938L737.154 16.014C737.48 15.8367 737.868 15.6873 738.316 15.566C738.764 15.4353 739.23 15.37 739.716 15.37ZM741.186 19.332L740.08 19.374C739.146 19.4113 738.498 19.5607 738.134 19.822C737.779 20.0833 737.602 20.452 737.602 20.928C737.602 21.348 737.728 21.656 737.98 21.852C738.241 22.048 738.572 22.146 738.974 22.146C739.599 22.146 740.122 21.9733 740.542 21.628C740.971 21.2733 741.186 20.732 741.186 20.004V19.332ZM746.373 23L743.531 15.496H744.847L746.443 19.92C746.518 20.1253 746.597 20.354 746.681 20.606C746.765 20.858 746.84 21.1007 746.905 21.334C746.971 21.5673 747.017 21.7587 747.045 21.908H747.101C747.129 21.7587 747.181 21.5673 747.255 21.334C747.33 21.0913 747.409 20.8487 747.493 20.606C747.577 20.354 747.657 20.1253 747.731 19.92L749.327 15.496H750.643L747.787 23H746.373ZM754.729 15.356C755.363 15.356 755.914 15.496 756.381 15.776C756.847 16.056 757.202 16.4527 757.445 16.966C757.697 17.47 757.823 18.0627 757.823 18.744V19.486H752.685C752.703 20.3353 752.918 20.984 753.329 21.432C753.749 21.8707 754.332 22.09 755.079 22.09C755.555 22.09 755.975 22.048 756.339 21.964C756.712 21.8707 757.095 21.74 757.487 21.572V22.65C757.104 22.818 756.726 22.9393 756.353 23.014C755.979 23.098 755.536 23.14 755.023 23.14C754.304 23.14 753.674 22.9953 753.133 22.706C752.591 22.4167 752.167 21.9873 751.859 21.418C751.56 20.8487 751.411 20.144 751.411 19.304C751.411 18.4827 751.546 17.778 751.817 17.19C752.097 16.602 752.484 16.1493 752.979 15.832C753.483 15.5147 754.066 15.356 754.729 15.356ZM754.715 16.364C754.127 16.364 753.66 16.5553 753.315 16.938C752.979 17.3113 752.778 17.834 752.713 18.506H756.535C756.525 17.8713 756.376 17.358 756.087 16.966C755.797 16.5647 755.34 16.364 754.715 16.364ZM766.212 15.37C767.126 15.37 767.803 15.5707 768.242 15.972C768.68 16.3733 768.9 17.0127 768.9 17.89V23H768.004L767.766 21.936H767.71C767.383 22.3467 767.038 22.65 766.674 22.846C766.31 23.042 765.815 23.14 765.19 23.14C764.508 23.14 763.944 22.9627 763.496 22.608C763.048 22.244 762.824 21.6793 762.824 20.914C762.824 20.1673 763.118 19.5933 763.706 19.192C764.294 18.7813 765.199 18.5573 766.422 18.52L767.696 18.478V18.03C767.696 17.4047 767.56 16.9707 767.29 16.728C767.019 16.4853 766.636 16.364 766.142 16.364C765.75 16.364 765.376 16.4247 765.022 16.546C764.667 16.658 764.336 16.7887 764.028 16.938L763.65 16.014C763.976 15.8367 764.364 15.6873 764.812 15.566C765.26 15.4353 765.726 15.37 766.212 15.37ZM767.682 19.332L766.576 19.374C765.642 19.4113 764.994 19.5607 764.63 19.822C764.275 20.0833 764.098 20.452 764.098 20.928C764.098 21.348 764.224 21.656 764.476 21.852C764.737 22.048 765.068 22.146 765.47 22.146C766.095 22.146 766.618 21.9733 767.038 21.628C767.467 21.2733 767.682 20.732 767.682 20.004V19.332ZM774.829 15.356C775.725 15.356 776.402 15.5753 776.859 16.014C777.317 16.4527 777.545 17.1527 777.545 18.114V23H776.327V18.198C776.327 16.994 775.767 16.392 774.647 16.392C773.817 16.392 773.243 16.6253 772.925 17.092C772.608 17.5587 772.449 18.2307 772.449 19.108V23H771.217V15.496H772.211L772.393 16.518H772.463C772.706 16.126 773.042 15.8367 773.471 15.65C773.901 15.454 774.353 15.356 774.829 15.356ZM782.532 23.14C781.598 23.14 780.852 22.818 780.292 22.174C779.732 21.5207 779.452 20.55 779.452 19.262C779.452 17.974 779.732 17.0033 780.292 16.35C780.861 15.6873 781.612 15.356 782.546 15.356C783.124 15.356 783.596 15.4633 783.96 15.678C784.333 15.8927 784.636 16.154 784.87 16.462H784.954C784.935 16.3407 784.916 16.1633 784.898 15.93C784.879 15.6873 784.87 15.496 784.87 15.356V12.36H786.102V23H785.108L784.926 21.992H784.87C784.646 22.3093 784.347 22.58 783.974 22.804C783.6 23.028 783.12 23.14 782.532 23.14ZM782.728 22.118C783.521 22.118 784.076 21.9033 784.394 21.474C784.72 21.0353 784.884 20.3773 784.884 19.5V19.276C784.884 18.3427 784.73 17.6287 784.422 17.134C784.114 16.63 783.544 16.378 782.714 16.378C782.051 16.378 781.552 16.644 781.216 17.176C780.889 17.6987 780.726 18.4033 780.726 19.29C780.726 20.186 780.889 20.8813 781.216 21.376C781.552 21.8707 782.056 22.118 782.728 22.118ZM794.936 13.004C796.242 13.004 797.194 13.2607 797.792 13.774C798.389 14.2873 798.688 15.0107 798.688 15.944C798.688 16.4947 798.562 17.0127 798.31 17.498C798.067 17.974 797.652 18.3613 797.064 18.66C796.485 18.9587 795.696 19.108 794.698 19.108H793.55V23H792.29V13.004H794.936ZM794.824 14.082H793.55V18.03H794.558C795.51 18.03 796.219 17.876 796.686 17.568C797.152 17.26 797.386 16.7373 797.386 16C797.386 15.356 797.176 14.8753 796.756 14.558C796.345 14.2407 795.701 14.082 794.824 14.082ZM806.87 15.496V23H805.862L805.68 22.006H805.624C805.382 22.398 805.046 22.6873 804.616 22.874C804.187 23.0513 803.73 23.14 803.244 23.14C802.339 23.14 801.658 22.9253 801.2 22.496C800.743 22.0573 800.514 21.362 800.514 20.41V15.496H801.76V20.326C801.76 21.5207 802.316 22.118 803.426 22.118C804.257 22.118 804.831 21.8847 805.148 21.418C805.475 20.9513 805.638 20.2793 805.638 19.402V15.496H806.87ZM810.485 12.36V14.95C810.485 15.2673 810.475 15.566 810.457 15.846C810.447 16.1167 810.433 16.3313 810.415 16.49H810.485C810.699 16.1727 810.993 15.9067 811.367 15.692C811.74 15.4773 812.221 15.37 812.809 15.37C813.742 15.37 814.489 15.6967 815.049 16.35C815.618 16.994 815.903 17.96 815.903 19.248C815.903 20.536 815.618 21.5067 815.049 22.16C814.479 22.8133 813.733 23.14 812.809 23.14C812.221 23.14 811.74 23.0327 811.367 22.818C810.993 22.6033 810.699 22.3467 810.485 22.048H810.387L810.135 23H809.253V12.36H810.485ZM812.599 16.392C811.796 16.392 811.241 16.6207 810.933 17.078C810.634 17.5353 810.485 18.2447 810.485 19.206V19.262C810.485 20.186 810.634 20.8953 810.933 21.39C811.241 21.8753 811.805 22.118 812.627 22.118C813.299 22.118 813.798 21.8707 814.125 21.376C814.461 20.8813 814.629 20.1673 814.629 19.234C814.629 17.3393 813.952 16.392 812.599 16.392ZM819.098 23H817.866V12.36H819.098V23ZM822.105 12.682C822.292 12.682 822.455 12.7473 822.595 12.878C822.744 12.9993 822.819 13.1953 822.819 13.466C822.819 13.7367 822.744 13.9373 822.595 14.068C822.455 14.1893 822.292 14.25 822.105 14.25C821.9 14.25 821.727 14.1893 821.587 14.068C821.447 13.9373 821.377 13.7367 821.377 13.466C821.377 13.1953 821.447 12.9993 821.587 12.878C821.727 12.7473 821.9 12.682 822.105 12.682ZM822.707 15.496V23H821.475V15.496H822.707ZM829.971 20.928C829.971 21.656 829.7 22.2067 829.159 22.58C828.617 22.9533 827.889 23.14 826.975 23.14C826.452 23.14 825.999 23.098 825.617 23.014C825.243 22.93 824.912 22.8133 824.623 22.664V21.544C824.921 21.6933 825.281 21.8333 825.701 21.964C826.13 22.0853 826.564 22.146 827.003 22.146C827.628 22.146 828.081 22.048 828.361 21.852C828.641 21.6467 828.781 21.376 828.781 21.04C828.781 20.8533 828.729 20.6853 828.627 20.536C828.524 20.3867 828.337 20.2373 828.067 20.088C827.805 19.9387 827.427 19.7707 826.933 19.584C826.447 19.3973 826.032 19.2107 825.687 19.024C825.341 18.8373 825.075 18.6133 824.889 18.352C824.702 18.0907 824.609 17.7547 824.609 17.344C824.609 16.7093 824.865 16.2193 825.379 15.874C825.901 15.5287 826.583 15.356 827.423 15.356C827.88 15.356 828.305 15.4027 828.697 15.496C829.098 15.5893 829.471 15.7107 829.817 15.86L829.397 16.84C829.079 16.7093 828.748 16.5973 828.403 16.504C828.057 16.4107 827.703 16.364 827.339 16.364C826.835 16.364 826.447 16.448 826.177 16.616C825.915 16.7747 825.785 16.994 825.785 17.274C825.785 17.4887 825.845 17.666 825.967 17.806C826.088 17.946 826.289 18.086 826.569 18.226C826.858 18.366 827.241 18.5247 827.717 18.702C828.193 18.8793 828.599 19.0613 828.935 19.248C829.271 19.4347 829.527 19.6633 829.705 19.934C829.882 20.1953 829.971 20.5267 829.971 20.928ZM833.016 12.36V15.482C833.016 15.8553 832.992 16.2053 832.946 16.532H833.03C833.272 16.1493 833.599 15.86 834.01 15.664C834.43 15.468 834.882 15.37 835.368 15.37C836.273 15.37 836.954 15.5893 837.412 16.028C837.878 16.4573 838.112 17.1527 838.112 18.114V23H836.894V18.198C836.894 16.994 836.334 16.392 835.214 16.392C834.374 16.392 833.795 16.63 833.478 17.106C833.17 17.5727 833.016 18.2447 833.016 19.122V23H831.784V12.36H833.016Z" fill="white"/>
</svg>
