<svg width="799" height="479" viewBox="0 0 799 479" fill="none" xmlns="http://www.w3.org/2000/svg">
<rect opacity="0.5" x="0.5" y="0.5" width="399" height="239" fill="#F1F1F1" stroke="#C9C9C9"/>
<rect opacity="0.5" x="399.5" y="0.5" width="399" height="239" fill="#F1F1F1" stroke="#C9C9C9"/>
<rect x="129" y="102" width="102" height="36" rx="2" fill="#1473E6"/>
<path d="M158.05 119.6H153.35V114.9C153.35 114.7 153.2 114.5 152.95 114.5C152.7 114.5 152.55 114.65 152.55 114.9V119.6H147.9C147.7 119.6 147.5 119.75 147.5 120C147.5 120.25 147.65 120.4 147.9 120.4H152.6V125.1C152.6 125.3 152.75 125.5 153 125.5C153.25 125.5 153.4 125.35 153.4 125.1V120.4H158.1C158.3 120.4 158.5 120.25 158.5 120C158.5 119.75 158.25 119.6 158.05 119.6Z" fill="white"/>
<path d="M170.358 115.004H173.214C174.455 115.004 175.398 115.191 176.042 115.564C176.686 115.937 177.008 116.577 177.008 117.482C177.008 118.07 176.845 118.56 176.518 118.952C176.191 119.335 175.72 119.582 175.104 119.694V119.764C175.524 119.839 175.902 119.965 176.238 120.142C176.583 120.319 176.854 120.571 177.05 120.898C177.246 121.225 177.344 121.645 177.344 122.158C177.344 123.063 177.031 123.763 176.406 124.258C175.79 124.753 174.945 125 173.872 125H170.358V115.004ZM171.618 119.26H173.466C174.315 119.26 174.899 119.125 175.216 118.854C175.543 118.574 175.706 118.163 175.706 117.622C175.706 117.071 175.51 116.679 175.118 116.446C174.735 116.203 174.119 116.082 173.27 116.082H171.618V119.26ZM171.618 120.31V123.936H173.634C174.521 123.936 175.137 123.763 175.482 123.418C175.827 123.073 176 122.62 176 122.06C176 121.537 175.818 121.117 175.454 120.8C175.099 120.473 174.46 120.31 173.536 120.31H171.618ZM185.567 117.496V125H184.559L184.377 124.006H184.321C184.079 124.398 183.743 124.687 183.313 124.874C182.884 125.051 182.427 125.14 181.941 125.14C181.036 125.14 180.355 124.925 179.897 124.496C179.44 124.057 179.211 123.362 179.211 122.41V117.496H180.457V122.326C180.457 123.521 181.013 124.118 182.123 124.118C182.954 124.118 183.528 123.885 183.845 123.418C184.172 122.951 184.335 122.279 184.335 121.402V117.496H185.567ZM190.456 124.132C190.642 124.132 190.834 124.118 191.03 124.09C191.226 124.062 191.384 124.025 191.506 123.978V124.916C191.375 124.981 191.188 125.033 190.946 125.07C190.703 125.117 190.47 125.14 190.246 125.14C189.854 125.14 189.49 125.075 189.154 124.944C188.827 124.804 188.561 124.566 188.356 124.23C188.15 123.894 188.048 123.423 188.048 122.816V118.448H186.984V117.86L188.062 117.37L188.552 115.774H189.28V117.496H191.45V118.448H189.28V122.788C189.28 123.245 189.387 123.586 189.602 123.81C189.826 124.025 190.11 124.132 190.456 124.132ZM195.514 124.132C195.701 124.132 195.892 124.118 196.088 124.09C196.284 124.062 196.443 124.025 196.564 123.978V124.916C196.434 124.981 196.247 125.033 196.004 125.07C195.762 125.117 195.528 125.14 195.304 125.14C194.912 125.14 194.548 125.075 194.212 124.944C193.886 124.804 193.62 124.566 193.414 124.23C193.209 123.894 193.106 123.423 193.106 122.816V118.448H192.042V117.86L193.12 117.37L193.61 115.774H194.338V117.496H196.508V118.448H194.338V122.788C194.338 123.245 194.446 123.586 194.66 123.81C194.884 124.025 195.169 124.132 195.514 124.132ZM204.591 121.234C204.591 122.475 204.274 123.437 203.639 124.118C203.014 124.799 202.164 125.14 201.091 125.14C200.428 125.14 199.836 124.991 199.313 124.692C198.8 124.384 198.394 123.941 198.095 123.362C197.796 122.774 197.647 122.065 197.647 121.234C197.647 119.993 197.955 119.036 198.571 118.364C199.196 117.692 200.05 117.356 201.133 117.356C201.805 117.356 202.402 117.51 202.925 117.818C203.448 118.117 203.854 118.555 204.143 119.134C204.442 119.703 204.591 120.403 204.591 121.234ZM198.921 121.234C198.921 122.121 199.094 122.825 199.439 123.348C199.794 123.861 200.354 124.118 201.119 124.118C201.875 124.118 202.43 123.861 202.785 123.348C203.14 122.825 203.317 122.121 203.317 121.234C203.317 120.347 203.14 119.652 202.785 119.148C202.43 118.644 201.87 118.392 201.105 118.392C200.34 118.392 199.784 118.644 199.439 119.148C199.094 119.652 198.921 120.347 198.921 121.234ZM210.156 117.356C211.052 117.356 211.728 117.575 212.186 118.014C212.643 118.453 212.872 119.153 212.872 120.114V125H211.654V120.198C211.654 118.994 211.094 118.392 209.974 118.392C209.143 118.392 208.569 118.625 208.252 119.092C207.934 119.559 207.776 120.231 207.776 121.108V125H206.544V117.496H207.538L207.72 118.518H207.79C208.032 118.126 208.368 117.837 208.798 117.65C209.227 117.454 209.68 117.356 210.156 117.356Z" fill="white"/>
<circle cx="26" cy="26" r="10" fill="black"/>
<path d="M26.9681 31H25.2041V24.77C25.2041 24.4713 25.2088 24.154 25.2181 23.818C25.2275 23.482 25.2415 23.1693 25.2601 22.88C25.1668 22.9733 25.0501 23.0853 24.9101 23.216C24.7795 23.3467 24.6348 23.4727 24.4761 23.594L23.3561 24.49L22.4741 23.398L25.4981 21.004H26.9681V31Z" fill="white"/>
<rect x="528.5" y="102.5" width="101" height="35" rx="1.5" fill="white"/>
<path d="M557.05 119.6H552.35V114.9C552.35 114.7 552.2 114.5 551.95 114.5C551.7 114.5 551.55 114.65 551.55 114.9V119.6H546.9C546.7 119.6 546.5 119.75 546.5 120C546.5 120.25 546.65 120.4 546.9 120.4H551.6V125.1C551.6 125.3 551.75 125.5 552 125.5C552.25 125.5 552.4 125.35 552.4 125.1V120.4H557.1C557.3 120.4 557.5 120.25 557.5 120C557.5 119.75 557.25 119.6 557.05 119.6Z" fill="#1473E6"/>
<path d="M569.358 115.004H572.214C573.455 115.004 574.398 115.191 575.042 115.564C575.686 115.937 576.008 116.577 576.008 117.482C576.008 118.07 575.845 118.56 575.518 118.952C575.191 119.335 574.72 119.582 574.104 119.694V119.764C574.524 119.839 574.902 119.965 575.238 120.142C575.583 120.319 575.854 120.571 576.05 120.898C576.246 121.225 576.344 121.645 576.344 122.158C576.344 123.063 576.031 123.763 575.406 124.258C574.79 124.753 573.945 125 572.872 125H569.358V115.004ZM570.618 119.26H572.466C573.315 119.26 573.899 119.125 574.216 118.854C574.543 118.574 574.706 118.163 574.706 117.622C574.706 117.071 574.51 116.679 574.118 116.446C573.735 116.203 573.119 116.082 572.27 116.082H570.618V119.26ZM570.618 120.31V123.936H572.634C573.521 123.936 574.137 123.763 574.482 123.418C574.827 123.073 575 122.62 575 122.06C575 121.537 574.818 121.117 574.454 120.8C574.099 120.473 573.46 120.31 572.536 120.31H570.618ZM584.567 117.496V125H583.559L583.377 124.006H583.321C583.079 124.398 582.743 124.687 582.313 124.874C581.884 125.051 581.427 125.14 580.941 125.14C580.036 125.14 579.355 124.925 578.897 124.496C578.44 124.057 578.211 123.362 578.211 122.41V117.496H579.457V122.326C579.457 123.521 580.013 124.118 581.123 124.118C581.954 124.118 582.528 123.885 582.845 123.418C583.172 122.951 583.335 122.279 583.335 121.402V117.496H584.567ZM589.456 124.132C589.642 124.132 589.834 124.118 590.03 124.09C590.226 124.062 590.384 124.025 590.506 123.978V124.916C590.375 124.981 590.188 125.033 589.946 125.07C589.703 125.117 589.47 125.14 589.246 125.14C588.854 125.14 588.49 125.075 588.154 124.944C587.827 124.804 587.561 124.566 587.356 124.23C587.15 123.894 587.048 123.423 587.048 122.816V118.448H585.984V117.86L587.062 117.37L587.552 115.774H588.28V117.496H590.45V118.448H588.28V122.788C588.28 123.245 588.387 123.586 588.602 123.81C588.826 124.025 589.11 124.132 589.456 124.132ZM594.514 124.132C594.701 124.132 594.892 124.118 595.088 124.09C595.284 124.062 595.443 124.025 595.564 123.978V124.916C595.434 124.981 595.247 125.033 595.004 125.07C594.762 125.117 594.528 125.14 594.304 125.14C593.912 125.14 593.548 125.075 593.212 124.944C592.886 124.804 592.62 124.566 592.414 124.23C592.209 123.894 592.106 123.423 592.106 122.816V118.448H591.042V117.86L592.12 117.37L592.61 115.774H593.338V117.496H595.508V118.448H593.338V122.788C593.338 123.245 593.446 123.586 593.66 123.81C593.884 124.025 594.169 124.132 594.514 124.132ZM603.591 121.234C603.591 122.475 603.274 123.437 602.639 124.118C602.014 124.799 601.164 125.14 600.091 125.14C599.428 125.14 598.836 124.991 598.313 124.692C597.8 124.384 597.394 123.941 597.095 123.362C596.796 122.774 596.647 122.065 596.647 121.234C596.647 119.993 596.955 119.036 597.571 118.364C598.196 117.692 599.05 117.356 600.133 117.356C600.805 117.356 601.402 117.51 601.925 117.818C602.448 118.117 602.854 118.555 603.143 119.134C603.442 119.703 603.591 120.403 603.591 121.234ZM597.921 121.234C597.921 122.121 598.094 122.825 598.439 123.348C598.794 123.861 599.354 124.118 600.119 124.118C600.875 124.118 601.43 123.861 601.785 123.348C602.14 122.825 602.317 122.121 602.317 121.234C602.317 120.347 602.14 119.652 601.785 119.148C601.43 118.644 600.87 118.392 600.105 118.392C599.34 118.392 598.784 118.644 598.439 119.148C598.094 119.652 597.921 120.347 597.921 121.234ZM609.156 117.356C610.052 117.356 610.728 117.575 611.186 118.014C611.643 118.453 611.872 119.153 611.872 120.114V125H610.654V120.198C610.654 118.994 610.094 118.392 608.974 118.392C608.143 118.392 607.569 118.625 607.252 119.092C606.934 119.559 606.776 120.231 606.776 121.108V125H605.544V117.496H606.538L606.72 118.518H606.79C607.032 118.126 607.368 117.837 607.798 117.65C608.227 117.454 608.68 117.356 609.156 117.356Z" fill="#1473E6"/>
<rect x="528.5" y="102.5" width="101" height="35" rx="1.5" stroke="#1473E6"/>
<circle cx="425" cy="26" r="10" fill="black"/>
<path d="M427.942 31H421.096V29.698L423.644 27.122C424.148 26.6087 424.559 26.17 424.876 25.806C425.203 25.442 425.441 25.1013 425.59 24.784C425.749 24.4573 425.828 24.1073 425.828 23.734C425.828 23.2767 425.697 22.936 425.436 22.712C425.184 22.4787 424.839 22.362 424.4 22.362C423.98 22.362 423.588 22.4507 423.224 22.628C422.86 22.796 422.482 23.0387 422.09 23.356L421.124 22.194C421.535 21.8393 421.997 21.5313 422.51 21.27C423.033 20.9993 423.695 20.864 424.498 20.864C425.142 20.864 425.693 20.9807 426.15 21.214C426.617 21.438 426.976 21.7553 427.228 22.166C427.48 22.5673 427.606 23.0293 427.606 23.552C427.606 24.0933 427.499 24.5927 427.284 25.05C427.069 25.498 426.757 25.9507 426.346 26.408C425.945 26.856 425.464 27.3413 424.904 27.864L423.322 29.39V29.474H427.942V31Z" fill="white"/>
<circle cx="192" cy="72" r="10" fill="#E60074"/>
<path d="M194.78 77L193.87 74.354H190.104L189.208 77H187.304L190.972 66.962H193.016L196.684 77H194.78ZM193.408 72.814L192.54 70.238C192.502 70.1167 192.446 69.944 192.372 69.72C192.297 69.4867 192.227 69.2533 192.162 69.02C192.096 68.7773 192.04 68.5767 191.994 68.418C191.947 68.614 191.886 68.8333 191.812 69.076C191.746 69.3187 191.681 69.5473 191.616 69.762C191.56 69.9767 191.513 70.1353 191.476 70.238L190.594 72.814H193.408Z" fill="white"/>
<path d="M192 82V110" stroke="#E60074"/>
<path d="M153 128V158" stroke="#E60074"/>
<circle cx="153" cy="168" r="10" fill="#E60074"/>
<path d="M154.615 164.376C153.709 164.376 153.005 164.703 152.501 165.356C151.997 166 151.745 166.887 151.745 168.016C151.745 169.155 151.978 170.041 152.445 170.676C152.911 171.311 153.63 171.628 154.601 171.628C155.021 171.628 155.431 171.586 155.833 171.502C156.243 171.409 156.663 171.287 157.093 171.138V172.664C156.682 172.832 156.267 172.953 155.847 173.028C155.436 173.103 154.96 173.14 154.419 173.14C153.392 173.14 152.543 172.93 151.871 172.51C151.199 172.081 150.699 171.483 150.373 170.718C150.046 169.943 149.883 169.038 149.883 168.002C149.883 166.994 150.065 166.107 150.429 165.342C150.793 164.567 151.325 163.961 152.025 163.522C152.734 163.083 153.597 162.864 154.615 162.864C155.119 162.864 155.613 162.92 156.099 163.032C156.593 163.144 157.055 163.307 157.485 163.522L156.869 164.992C156.514 164.833 156.145 164.693 155.763 164.572C155.389 164.441 155.007 164.376 154.615 164.376Z" fill="white"/>
<path d="M231 120H251" stroke="#E60074"/>
<circle cx="261" cy="120" r="10" fill="#E60074"/>
<path d="M257.654 115.004H260.664C261.961 115.004 262.941 115.191 263.604 115.564C264.276 115.937 264.612 116.586 264.612 117.51C264.612 118.089 264.467 118.574 264.178 118.966C263.888 119.349 263.473 119.591 262.932 119.694V119.764C263.296 119.839 263.622 119.96 263.912 120.128C264.21 120.296 264.448 120.543 264.626 120.87C264.803 121.187 264.892 121.607 264.892 122.13C264.892 123.035 264.57 123.74 263.926 124.244C263.282 124.748 262.409 125 261.308 125H257.654V115.004ZM259.446 119.078H260.902C261.611 119.078 262.096 118.966 262.358 118.742C262.628 118.509 262.764 118.177 262.764 117.748C262.764 117.3 262.6 116.978 262.274 116.782C261.956 116.586 261.452 116.488 260.762 116.488H259.446V119.078ZM259.446 120.52V123.502H261.07C261.798 123.502 262.302 123.362 262.582 123.082C262.871 122.793 263.016 122.419 263.016 121.962C263.016 121.523 262.866 121.173 262.568 120.912C262.278 120.651 261.751 120.52 260.986 120.52H259.446Z" fill="white"/>
<rect x="145" y="112" width="16" height="16" stroke="#E60074"/>
<circle cx="591" cy="72" r="10" fill="#E60074"/>
<path d="M593.78 77L592.87 74.354H589.104L588.208 77H586.304L589.972 66.962H592.016L595.684 77H593.78ZM592.408 72.814L591.54 70.238C591.502 70.1167 591.446 69.944 591.372 69.72C591.297 69.4867 591.227 69.2533 591.162 69.02C591.096 68.7773 591.04 68.5767 590.994 68.418C590.947 68.614 590.886 68.8333 590.812 69.076C590.746 69.3187 590.681 69.5473 590.616 69.762C590.56 69.9767 590.513 70.1353 590.476 70.238L589.594 72.814H592.408Z" fill="white"/>
<path d="M591 82V110" stroke="#E60074"/>
<path d="M552 128V158" stroke="#E60074"/>
<circle cx="552" cy="168" r="10" fill="#E60074"/>
<path d="M553.615 164.376C552.709 164.376 552.005 164.703 551.501 165.356C550.997 166 550.745 166.887 550.745 168.016C550.745 169.155 550.978 170.041 551.445 170.676C551.911 171.311 552.63 171.628 553.601 171.628C554.021 171.628 554.431 171.586 554.833 171.502C555.243 171.409 555.663 171.287 556.093 171.138V172.664C555.682 172.832 555.267 172.953 554.847 173.028C554.436 173.103 553.96 173.14 553.419 173.14C552.392 173.14 551.543 172.93 550.871 172.51C550.199 172.081 549.699 171.483 549.373 170.718C549.046 169.943 548.883 169.038 548.883 168.002C548.883 166.994 549.065 166.107 549.429 165.342C549.793 164.567 550.325 163.961 551.025 163.522C551.734 163.083 552.597 162.864 553.615 162.864C554.119 162.864 554.613 162.92 555.099 163.032C555.593 163.144 556.055 163.307 556.485 163.522L555.869 164.992C555.514 164.833 555.145 164.693 554.763 164.572C554.389 164.441 554.007 164.376 553.615 164.376Z" fill="white"/>
<path d="M630 120H650" stroke="#E60074"/>
<circle cx="660" cy="120" r="10" fill="#E60074"/>
<path d="M656.654 115.004H659.664C660.961 115.004 661.941 115.191 662.604 115.564C663.276 115.937 663.612 116.586 663.612 117.51C663.612 118.089 663.467 118.574 663.178 118.966C662.888 119.349 662.473 119.591 661.932 119.694V119.764C662.296 119.839 662.622 119.96 662.912 120.128C663.21 120.296 663.448 120.543 663.626 120.87C663.803 121.187 663.892 121.607 663.892 122.13C663.892 123.035 663.57 123.74 662.926 124.244C662.282 124.748 661.409 125 660.308 125H656.654V115.004ZM658.446 119.078H659.902C660.611 119.078 661.096 118.966 661.358 118.742C661.628 118.509 661.764 118.177 661.764 117.748C661.764 117.3 661.6 116.978 661.274 116.782C660.956 116.586 660.452 116.488 659.762 116.488H658.446V119.078ZM658.446 120.52V123.502H660.07C660.798 123.502 661.302 123.362 661.582 123.082C661.871 122.793 662.016 122.419 662.016 121.962C662.016 121.523 661.866 121.173 661.568 120.912C661.278 120.651 660.751 120.52 659.986 120.52H658.446Z" fill="white"/>
<rect x="544" y="112" width="16" height="16" stroke="#E60074"/>
<rect opacity="0.5" x="0.5" y="239.5" width="399" height="239" fill="#F1F1F1" stroke="#C9C9C9"/>
<rect opacity="0.5" x="399.5" y="239.5" width="399" height="239" fill="#F1F1F1" stroke="#C9C9C9"/>
<circle cx="26" cy="265" r="10" fill="black"/>
<path d="M28.5501 262.286C28.5501 262.967 28.3495 263.513 27.9481 263.924C27.5561 264.325 27.0475 264.596 26.4221 264.736V264.778C27.2248 264.881 27.8315 265.133 28.2421 265.534C28.6528 265.935 28.8581 266.463 28.8581 267.116C28.8581 267.695 28.7181 268.213 28.4381 268.67C28.1581 269.127 27.7241 269.487 27.1361 269.748C26.5575 270.009 25.8108 270.14 24.8961 270.14C24.3455 270.14 23.8368 270.093 23.3701 270C22.9128 269.916 22.4788 269.781 22.0681 269.594V268.04C22.4881 268.255 22.9361 268.418 23.4121 268.53C23.8881 268.642 24.3361 268.698 24.7561 268.698C25.5681 268.698 26.1421 268.553 26.4781 268.264C26.8141 267.965 26.9821 267.555 26.9821 267.032C26.9821 266.537 26.7861 266.169 26.3941 265.926C26.0021 265.683 25.3488 265.562 24.4341 265.562H23.5941V264.148H24.4481C25.3348 264.148 25.9461 264.003 26.2821 263.714C26.6181 263.425 26.7861 263.051 26.7861 262.594C26.7861 262.193 26.6555 261.88 26.3941 261.656C26.1328 261.432 25.7408 261.32 25.2181 261.32C24.7141 261.32 24.2801 261.404 23.9161 261.572C23.5521 261.731 23.2255 261.903 22.9361 262.09L22.0961 260.872C22.4788 260.592 22.9315 260.354 23.4541 260.158C23.9768 259.962 24.5928 259.864 25.3021 259.864C26.3381 259.864 27.1361 260.083 27.6961 260.522C28.2655 260.961 28.5501 261.549 28.5501 262.286Z" fill="white"/>
<circle cx="425" cy="265" r="10" fill="black"/>
<path d="M428.25 267.858H426.948V270H425.212V267.858H420.76V266.542L425.254 259.976H426.948V266.416H428.25V267.858ZM425.212 266.416V264.176C425.212 263.915 425.217 263.644 425.226 263.364C425.235 263.075 425.245 262.809 425.254 262.566C425.273 262.314 425.287 262.123 425.296 261.992H425.24C425.156 262.179 425.063 262.365 424.96 262.552C424.867 262.729 424.759 262.907 424.638 263.084L422.37 266.416H425.212Z" fill="white"/>
<path d="M178.05 358.6H173.35V353.9C173.35 353.7 173.2 353.5 172.95 353.5C172.7 353.5 172.55 353.65 172.55 353.9V358.6H167.9C167.7 358.6 167.5 358.75 167.5 359C167.5 359.25 167.65 359.4 167.9 359.4H172.6V364.1C172.6 364.3 172.75 364.5 173 364.5C173.25 364.5 173.4 364.35 173.4 364.1V359.4H178.1C178.3 359.4 178.5 359.25 178.5 359C178.5 358.75 178.25 358.6 178.05 358.6Z" fill="#1473E6"/>
<path d="M190.358 354.004H193.214C194.455 354.004 195.398 354.191 196.042 354.564C196.686 354.937 197.008 355.577 197.008 356.482C197.008 357.07 196.845 357.56 196.518 357.952C196.191 358.335 195.72 358.582 195.104 358.694V358.764C195.524 358.839 195.902 358.965 196.238 359.142C196.583 359.319 196.854 359.571 197.05 359.898C197.246 360.225 197.344 360.645 197.344 361.158C197.344 362.063 197.031 362.763 196.406 363.258C195.79 363.753 194.945 364 193.872 364H190.358V354.004ZM191.618 358.26H193.466C194.315 358.26 194.899 358.125 195.216 357.854C195.543 357.574 195.706 357.163 195.706 356.622C195.706 356.071 195.51 355.679 195.118 355.446C194.735 355.203 194.119 355.082 193.27 355.082H191.618V358.26ZM191.618 359.31V362.936H193.634C194.521 362.936 195.137 362.763 195.482 362.418C195.827 362.073 196 361.62 196 361.06C196 360.537 195.818 360.117 195.454 359.8C195.099 359.473 194.46 359.31 193.536 359.31H191.618ZM205.567 356.496V364H204.559L204.377 363.006H204.321C204.079 363.398 203.743 363.687 203.313 363.874C202.884 364.051 202.427 364.14 201.941 364.14C201.036 364.14 200.355 363.925 199.897 363.496C199.44 363.057 199.211 362.362 199.211 361.41V356.496H200.457V361.326C200.457 362.521 201.013 363.118 202.123 363.118C202.954 363.118 203.528 362.885 203.845 362.418C204.172 361.951 204.335 361.279 204.335 360.402V356.496H205.567ZM210.456 363.132C210.642 363.132 210.834 363.118 211.03 363.09C211.226 363.062 211.384 363.025 211.506 362.978V363.916C211.375 363.981 211.188 364.033 210.946 364.07C210.703 364.117 210.47 364.14 210.246 364.14C209.854 364.14 209.49 364.075 209.154 363.944C208.827 363.804 208.561 363.566 208.356 363.23C208.15 362.894 208.048 362.423 208.048 361.816V357.448H206.984V356.86L208.062 356.37L208.552 354.774H209.28V356.496H211.45V357.448H209.28V361.788C209.28 362.245 209.387 362.586 209.602 362.81C209.826 363.025 210.11 363.132 210.456 363.132ZM215.514 363.132C215.701 363.132 215.892 363.118 216.088 363.09C216.284 363.062 216.443 363.025 216.564 362.978V363.916C216.434 363.981 216.247 364.033 216.004 364.07C215.762 364.117 215.528 364.14 215.304 364.14C214.912 364.14 214.548 364.075 214.212 363.944C213.886 363.804 213.62 363.566 213.414 363.23C213.209 362.894 213.106 362.423 213.106 361.816V357.448H212.042V356.86L213.12 356.37L213.61 354.774H214.338V356.496H216.508V357.448H214.338V361.788C214.338 362.245 214.446 362.586 214.66 362.81C214.884 363.025 215.169 363.132 215.514 363.132ZM224.591 360.234C224.591 361.475 224.274 362.437 223.639 363.118C223.014 363.799 222.164 364.14 221.091 364.14C220.428 364.14 219.836 363.991 219.313 363.692C218.8 363.384 218.394 362.941 218.095 362.362C217.796 361.774 217.647 361.065 217.647 360.234C217.647 358.993 217.955 358.036 218.571 357.364C219.196 356.692 220.05 356.356 221.133 356.356C221.805 356.356 222.402 356.51 222.925 356.818C223.448 357.117 223.854 357.555 224.143 358.134C224.442 358.703 224.591 359.403 224.591 360.234ZM218.921 360.234C218.921 361.121 219.094 361.825 219.439 362.348C219.794 362.861 220.354 363.118 221.119 363.118C221.875 363.118 222.43 362.861 222.785 362.348C223.14 361.825 223.317 361.121 223.317 360.234C223.317 359.347 223.14 358.652 222.785 358.148C222.43 357.644 221.87 357.392 221.105 357.392C220.34 357.392 219.784 357.644 219.439 358.148C219.094 358.652 218.921 359.347 218.921 360.234ZM230.156 356.356C231.052 356.356 231.728 356.575 232.186 357.014C232.643 357.453 232.872 358.153 232.872 359.114V364H231.654V359.198C231.654 357.994 231.094 357.392 229.974 357.392C229.143 357.392 228.569 357.625 228.252 358.092C227.934 358.559 227.776 359.231 227.776 360.108V364H226.544V356.496H227.538L227.72 357.518H227.79C228.032 357.126 228.368 356.837 228.798 356.65C229.227 356.454 229.68 356.356 230.156 356.356Z" fill="#1473E6"/>
<rect x="583" y="343" width="32" height="32" rx="2" fill="#1473E6"/>
<path d="M599 362.049C598.451 362.049 597.903 361.912 597.423 361.638C595.846 360.815 595.297 358.826 596.12 357.249C597.011 355.672 598.931 355.123 600.509 355.946C601.263 356.358 601.811 357.043 602.086 357.866C602.36 358.689 602.223 359.58 601.811 360.335C601.4 361.089 600.714 361.638 599.891 361.912C599.617 361.98 599.274 362.049 599 362.049ZM597.08 357.729C596.463 358.826 596.874 360.129 597.971 360.746C598.52 361.02 599.069 361.089 599.686 360.952C600.234 360.815 600.714 360.403 600.989 359.923C601.263 359.375 601.331 358.826 601.194 358.209C601.057 357.66 600.646 357.18 600.166 356.906C599 356.289 597.629 356.7 597.08 357.729Z" fill="white"/>
<path d="M595.503 367.535C595.091 367.535 594.749 367.466 594.406 367.26C593.514 366.78 593.034 365.752 593.24 364.723L593.651 362.872C593.72 362.598 593.651 362.255 593.514 362.049C593.377 361.775 593.103 361.638 592.829 361.569L591.32 361.226C590.154 360.952 589.4 360.06 589.4 358.963C589.4 357.935 590.086 356.975 591.046 356.7L592.76 356.152C593.034 356.083 593.309 355.878 593.446 355.603C593.583 355.329 593.583 355.055 593.514 354.78L593.034 353.272C592.691 352.243 593.103 351.146 594.063 350.598C594.954 350.049 596.12 350.186 596.874 350.872L598.246 352.106C598.451 352.312 598.726 352.449 599.069 352.38C599.343 352.38 599.617 352.243 599.823 352.038L600.851 350.872C601.606 350.049 602.771 349.843 603.663 350.392C604.554 350.872 605.034 351.969 604.829 352.929L604.417 354.712C604.349 354.986 604.417 355.329 604.554 355.535C604.691 355.809 604.966 355.946 605.24 356.015L606.749 356.358C607.777 356.563 608.531 357.523 608.6 358.552C608.6 359.58 607.983 360.54 606.954 360.815L605.171 361.432C604.897 361.5 604.623 361.706 604.486 361.98C604.349 362.255 604.349 362.529 604.417 362.872L604.897 364.38C605.24 365.409 604.829 366.506 603.869 367.055C602.977 367.603 601.811 367.466 601.057 366.78L599.754 365.546C599.617 365.272 599.343 365.203 599 365.203C598.726 365.203 598.451 365.34 598.246 365.546L597.217 366.712C596.737 367.26 596.12 367.535 595.503 367.535ZM595.229 351.283C595.023 351.283 594.749 351.352 594.543 351.489C594.063 351.763 593.857 352.38 593.994 352.998L594.474 354.438C594.68 354.986 594.611 355.603 594.337 356.083C594.063 356.632 593.651 356.975 593.103 357.18L591.32 357.66C590.771 357.798 590.36 358.346 590.429 358.895C590.429 359.512 590.84 359.992 591.457 360.129L592.966 360.472C593.514 360.609 593.994 360.952 594.337 361.432C594.68 361.912 594.749 362.529 594.611 363.078L594.2 364.929C594.063 365.478 594.337 366.095 594.817 366.369C595.366 366.643 595.983 366.575 596.394 366.095L597.423 364.929C597.834 364.518 598.314 364.243 598.931 364.243C599.549 364.243 600.097 364.449 600.509 364.792L601.811 366.026C602.223 366.438 602.84 366.506 603.389 366.163C603.937 365.82 604.143 365.203 603.937 364.655L603.526 363.146C603.32 362.598 603.389 361.98 603.663 361.5C603.937 361.02 604.349 360.609 604.966 360.472L606.749 359.923C607.297 359.786 607.64 359.238 607.64 358.689C607.64 358.072 607.229 357.592 606.611 357.455L605.103 357.112C604.554 356.975 604.074 356.632 603.731 356.152C603.389 355.672 603.32 355.055 603.457 354.506L603.8 352.723C603.937 352.175 603.663 351.558 603.183 351.283C602.634 351.009 602.017 351.078 601.606 351.558L600.577 352.723C600.166 353.135 599.686 353.409 599.069 353.409C598.451 353.409 597.971 353.203 597.491 352.86L596.12 351.626C595.846 351.42 595.571 351.283 595.229 351.283Z" fill="white"/>
<circle cx="212" cy="311" r="10" fill="#E60074"/>
<path d="M214.78 316L213.87 313.354H210.104L209.208 316H207.304L210.972 305.962H213.016L216.684 316H214.78ZM213.408 311.814L212.54 309.238C212.502 309.117 212.446 308.944 212.372 308.72C212.297 308.487 212.227 308.253 212.162 308.02C212.096 307.777 212.04 307.577 211.994 307.418C211.947 307.614 211.886 307.833 211.812 308.076C211.746 308.319 211.681 308.547 211.616 308.762C211.56 308.977 211.513 309.135 211.476 309.238L210.594 311.814H213.408Z" fill="white"/>
<path d="M212 321V349" stroke="#E60074"/>
<circle cx="599" cy="311" r="10" fill="#E60074"/>
<path d="M601.78 316L600.87 313.354H597.104L596.208 316H594.304L597.972 305.962H600.016L603.684 316H601.78ZM600.408 311.814L599.54 309.238C599.502 309.117 599.446 308.944 599.372 308.72C599.297 308.487 599.227 308.253 599.162 308.02C599.096 307.777 599.04 307.577 598.994 307.418C598.947 307.614 598.886 307.833 598.812 308.076C598.746 308.319 598.681 308.547 598.616 308.762C598.56 308.977 598.513 309.135 598.476 309.238L597.594 311.814H600.408Z" fill="white"/>
<path d="M599 321V343" stroke="#E60074"/>
<path d="M173 367V397" stroke="#E60074"/>
<circle cx="173" cy="407" r="10" fill="#E60074"/>
<path d="M169.654 402.004H172.664C173.961 402.004 174.941 402.191 175.604 402.564C176.276 402.937 176.612 403.586 176.612 404.51C176.612 405.089 176.467 405.574 176.178 405.966C175.888 406.349 175.473 406.591 174.932 406.694V406.764C175.296 406.839 175.622 406.96 175.912 407.128C176.21 407.296 176.448 407.543 176.626 407.87C176.803 408.187 176.892 408.607 176.892 409.13C176.892 410.035 176.57 410.74 175.926 411.244C175.282 411.748 174.409 412 173.308 412H169.654V402.004ZM171.446 406.078H172.902C173.611 406.078 174.096 405.966 174.358 405.742C174.628 405.509 174.764 405.177 174.764 404.748C174.764 404.3 174.6 403.978 174.274 403.782C173.956 403.586 173.452 403.488 172.762 403.488H171.446V406.078ZM171.446 407.52V410.502H173.07C173.798 410.502 174.302 410.362 174.582 410.082C174.871 409.793 175.016 409.419 175.016 408.962C175.016 408.523 174.866 408.173 174.568 407.912C174.278 407.651 173.751 407.52 172.986 407.52H171.446Z" fill="white"/>
<rect x="165" y="351" width="16" height="16" stroke="#E60074"/>
<path d="M599 369V397" stroke="#E60074"/>
<circle cx="599" cy="407" r="10" fill="#E60074"/>
<path d="M595.654 402.004H598.664C599.961 402.004 600.941 402.191 601.604 402.564C602.276 402.937 602.612 403.586 602.612 404.51C602.612 405.089 602.467 405.574 602.178 405.966C601.888 406.349 601.473 406.591 600.932 406.694V406.764C601.296 406.839 601.622 406.96 601.912 407.128C602.21 407.296 602.448 407.543 602.626 407.87C602.803 408.187 602.892 408.607 602.892 409.13C602.892 410.035 602.57 410.74 601.926 411.244C601.282 411.748 600.409 412 599.308 412H595.654V402.004ZM597.446 406.078H598.902C599.611 406.078 600.096 405.966 600.358 405.742C600.628 405.509 600.764 405.177 600.764 404.748C600.764 404.3 600.6 403.978 600.274 403.782C599.956 403.586 599.452 403.488 598.762 403.488H597.446V406.078ZM597.446 407.52V410.502H599.07C599.798 410.502 600.302 410.362 600.582 410.082C600.871 409.793 601.016 409.419 601.016 408.962C601.016 408.523 600.866 408.173 600.568 407.912C600.278 407.651 599.751 407.52 598.986 407.52H597.446Z" fill="white"/>
<rect x="589" y="349" width="20" height="20" stroke="#E60074"/>
</svg>
