<svg width="120" height="232" viewBox="0 0 120 232" fill="none" xmlns="http://www.w3.org/2000/svg">
<rect y="44" width="120" height="36" rx="2" fill="#1473E6"/>
<path d="M38.004 57.004C39.3107 57.004 40.2627 57.2607 40.86 57.774C41.4573 58.2873 41.756 59.0107 41.756 59.944C41.756 60.4947 41.63 61.0127 41.378 61.498C41.1353 61.974 40.72 62.3613 40.132 62.66C39.5533 62.9587 38.7647 63.108 37.766 63.108H36.618V67H35.358V57.004H38.004ZM37.892 58.082H36.618V62.03H37.626C38.578 62.03 39.2873 61.876 39.754 61.568C40.2207 61.26 40.454 60.7373 40.454 60C40.454 59.356 40.244 58.8753 39.824 58.558C39.4133 58.2407 38.7693 58.082 37.892 58.082ZM47.1666 59.356C47.3066 59.356 47.4559 59.3653 47.6146 59.384C47.7732 59.3933 47.9179 59.412 48.0486 59.44L47.8946 60.574C47.7732 60.546 47.6379 60.5227 47.4886 60.504C47.3392 60.4853 47.2039 60.476 47.0826 60.476C46.6999 60.476 46.3406 60.5833 46.0046 60.798C45.6686 61.0033 45.3979 61.2973 45.1926 61.68C44.9966 62.0533 44.8986 62.492 44.8986 62.996V67H43.6666V59.496H44.6746L44.8146 60.868H44.8706C45.1039 60.4573 45.4119 60.1027 45.7946 59.804C46.1866 59.5053 46.6439 59.356 47.1666 59.356ZM50.0798 56.682C50.2664 56.682 50.4298 56.7473 50.5698 56.878C50.7191 56.9993 50.7938 57.1953 50.7938 57.466C50.7938 57.7367 50.7191 57.9373 50.5698 58.068C50.4298 58.1893 50.2664 58.25 50.0798 58.25C49.8744 58.25 49.7018 58.1893 49.5618 58.068C49.4218 57.9373 49.3518 57.7367 49.3518 57.466C49.3518 57.1953 49.4218 56.9993 49.5618 56.878C49.7018 56.7473 49.8744 56.682 50.0798 56.682ZM50.6818 59.496V67H49.4498V59.496H50.6818ZM61.2911 59.356C62.1405 59.356 62.7751 59.5753 63.1951 60.014C63.6151 60.4527 63.8251 61.1527 63.8251 62.114V67H62.6071V62.17C62.6071 60.9847 62.0985 60.392 61.0811 60.392C60.3531 60.392 59.8305 60.602 59.5131 61.022C59.2051 61.442 59.0511 62.0533 59.0511 62.856V67H57.8331V62.17C57.8331 60.9847 57.3198 60.392 56.2931 60.392C55.5371 60.392 55.0145 60.6253 54.7251 61.092C54.4358 61.5587 54.2911 62.2307 54.2911 63.108V67H53.0591V59.496H54.0531L54.2351 60.518H54.3051C54.5385 60.126 54.8511 59.8367 55.2431 59.65C55.6445 59.454 56.0691 59.356 56.5171 59.356C57.6931 59.356 58.4585 59.776 58.8131 60.616H58.8831C59.1351 60.1867 59.4758 59.8693 59.9051 59.664C60.3345 59.4587 60.7965 59.356 61.2911 59.356ZM68.9851 59.37C69.8998 59.37 70.5765 59.5707 71.0151 59.972C71.4538 60.3733 71.6731 61.0127 71.6731 61.89V67H70.7771L70.5391 65.936H70.4831C70.1565 66.3467 69.8111 66.65 69.4471 66.846C69.0831 67.042 68.5885 67.14 67.9631 67.14C67.2818 67.14 66.7171 66.9627 66.2691 66.608C65.8211 66.244 65.5971 65.6793 65.5971 64.914C65.5971 64.1673 65.8911 63.5933 66.4791 63.192C67.0671 62.7813 67.9725 62.5573 69.1951 62.52L70.4691 62.478V62.03C70.4691 61.4047 70.3338 60.9707 70.0631 60.728C69.7925 60.4853 69.4098 60.364 68.9151 60.364C68.5231 60.364 68.1498 60.4247 67.7951 60.546C67.4405 60.658 67.1091 60.7887 66.8011 60.938L66.4231 60.014C66.7498 59.8367 67.1371 59.6873 67.5851 59.566C68.0331 59.4353 68.4998 59.37 68.9851 59.37ZM70.4551 63.332L69.3491 63.374C68.4158 63.4113 67.7671 63.5607 67.4031 63.822C67.0485 64.0833 66.8711 64.452 66.8711 64.928C66.8711 65.348 66.9971 65.656 67.2491 65.852C67.5105 66.048 67.8418 66.146 68.2431 66.146C68.8685 66.146 69.3911 65.9733 69.8111 65.628C70.2405 65.2733 70.4551 64.732 70.4551 64.004V63.332ZM77.4908 59.356C77.6308 59.356 77.7801 59.3653 77.9388 59.384C78.0974 59.3933 78.2421 59.412 78.3728 59.44L78.2188 60.574C78.0974 60.546 77.9621 60.5227 77.8128 60.504C77.6634 60.4853 77.5281 60.476 77.4068 60.476C77.0241 60.476 76.6648 60.5833 76.3288 60.798C75.9928 61.0033 75.7221 61.2973 75.5168 61.68C75.3208 62.0533 75.2228 62.492 75.2228 62.996V67H73.9908V59.496H74.9988L75.1388 60.868H75.1948C75.4281 60.4573 75.7361 60.1027 76.1188 59.804C76.5108 59.5053 76.9681 59.356 77.4908 59.356ZM78.598 59.496H79.914L81.538 63.766C81.678 64.1487 81.804 64.508 81.916 64.844C82.028 65.18 82.112 65.502 82.168 65.81H82.224C82.28 65.5767 82.3687 65.2733 82.49 64.9C82.6113 64.5173 82.7373 64.1347 82.868 63.752L84.394 59.496H85.724L82.49 68.036C82.2193 68.7453 81.8787 69.31 81.468 69.73C81.0573 70.15 80.488 70.36 79.76 70.36C79.536 70.36 79.34 70.346 79.172 70.318C79.004 70.2993 78.8593 70.276 78.738 70.248V69.268C78.8407 69.2867 78.962 69.3053 79.102 69.324C79.2513 69.3427 79.4053 69.352 79.564 69.352C79.9933 69.352 80.3387 69.2307 80.6 68.988C80.8613 68.7453 81.0713 68.4233 81.23 68.022L81.622 67.028L78.598 59.496Z" fill="white"/>
<rect x="0.5" y="120.5" width="119" height="35" rx="1.5" fill="white"/>
<path d="M32.528 140.326C32.528 141.213 32.206 141.903 31.562 142.398C30.918 142.893 30.05 143.14 28.958 143.14C28.398 143.14 27.88 143.098 27.404 143.014C26.928 142.93 26.5313 142.813 26.214 142.664V141.46C26.55 141.609 26.9653 141.745 27.46 141.866C27.964 141.987 28.482 142.048 29.014 142.048C29.7513 142.048 30.3113 141.903 30.694 141.614C31.0767 141.325 31.268 140.933 31.268 140.438C31.268 140.111 31.198 139.836 31.058 139.612C30.918 139.388 30.6753 139.183 30.33 138.996C29.9847 138.809 29.5133 138.604 28.916 138.38C28.0573 138.072 27.4133 137.694 26.984 137.246C26.5547 136.798 26.34 136.187 26.34 135.412C26.34 134.889 26.4753 134.437 26.746 134.054C27.0167 133.671 27.39 133.377 27.866 133.172C28.342 132.967 28.8973 132.864 29.532 132.864C30.0733 132.864 30.5727 132.915 31.03 133.018C31.4873 133.121 31.9073 133.256 32.29 133.424L31.898 134.502C31.5527 134.353 31.1747 134.227 30.764 134.124C30.3533 134.021 29.9333 133.97 29.504 133.97C28.8787 133.97 28.4073 134.105 28.09 134.376C27.7727 134.637 27.614 134.987 27.614 135.426C27.614 135.762 27.684 136.042 27.824 136.266C27.964 136.49 28.1927 136.695 28.51 136.882C28.8273 137.059 29.2567 137.246 29.798 137.442C30.386 137.657 30.8807 137.89 31.282 138.142C31.6927 138.385 32.0007 138.679 32.206 139.024C32.4207 139.369 32.528 139.803 32.528 140.326ZM37.2716 135.356C37.9063 135.356 38.4569 135.496 38.9236 135.776C39.3903 136.056 39.7449 136.453 39.9876 136.966C40.2396 137.47 40.3656 138.063 40.3656 138.744V139.486H35.2276C35.2463 140.335 35.4609 140.984 35.8716 141.432C36.2916 141.871 36.8749 142.09 37.6216 142.09C38.0976 142.09 38.5176 142.048 38.8816 141.964C39.2549 141.871 39.6376 141.74 40.0296 141.572V142.65C39.6469 142.818 39.2689 142.939 38.8956 143.014C38.5223 143.098 38.0789 143.14 37.5656 143.14C36.8469 143.14 36.2169 142.995 35.6756 142.706C35.1343 142.417 34.7096 141.987 34.4016 141.418C34.1029 140.849 33.9536 140.144 33.9536 139.304C33.9536 138.483 34.0889 137.778 34.3596 137.19C34.6396 136.602 35.0269 136.149 35.5216 135.832C36.0256 135.515 36.6089 135.356 37.2716 135.356ZM37.2576 136.364C36.6696 136.364 36.2029 136.555 35.8576 136.938C35.5216 137.311 35.3209 137.834 35.2556 138.506H39.0776C39.0683 137.871 38.9189 137.358 38.6296 136.966C38.3403 136.565 37.8829 136.364 37.2576 136.364ZM45.2859 143.14C44.6139 143.14 44.0213 143.005 43.5079 142.734C42.9946 142.463 42.5886 142.043 42.2899 141.474C42.0006 140.905 41.8559 140.177 41.8559 139.29C41.8559 138.366 42.0053 137.615 42.3039 137.036C42.6119 136.457 43.0319 136.033 43.5639 135.762C44.0959 135.491 44.6979 135.356 45.3699 135.356C45.7433 135.356 46.1073 135.398 46.4619 135.482C46.8259 135.557 47.1199 135.65 47.3439 135.762L46.9659 136.784C46.7419 136.7 46.4806 136.621 46.1819 136.546C45.8833 136.471 45.6033 136.434 45.3419 136.434C43.8673 136.434 43.1299 137.381 43.1299 139.276C43.1299 140.181 43.3073 140.877 43.6619 141.362C44.0259 141.838 44.5626 142.076 45.2719 142.076C45.6733 142.076 46.0326 142.034 46.3499 141.95C46.6673 141.866 46.9566 141.763 47.2179 141.642V142.734C46.9659 142.865 46.6859 142.963 46.3779 143.028C46.0793 143.103 45.7153 143.14 45.2859 143.14ZM55.5265 139.234C55.5265 140.475 55.2092 141.437 54.5745 142.118C53.9492 142.799 53.0998 143.14 52.0265 143.14C51.3638 143.14 50.7712 142.991 50.2485 142.692C49.7352 142.384 49.3292 141.941 49.0305 141.362C48.7318 140.774 48.5825 140.065 48.5825 139.234C48.5825 137.993 48.8905 137.036 49.5065 136.364C50.1318 135.692 50.9858 135.356 52.0685 135.356C52.7405 135.356 53.3378 135.51 53.8605 135.818C54.3832 136.117 54.7892 136.555 55.0785 137.134C55.3772 137.703 55.5265 138.403 55.5265 139.234ZM49.8565 139.234C49.8565 140.121 50.0292 140.825 50.3745 141.348C50.7292 141.861 51.2892 142.118 52.0545 142.118C52.8105 142.118 53.3658 141.861 53.7205 141.348C54.0752 140.825 54.2525 140.121 54.2525 139.234C54.2525 138.347 54.0752 137.652 53.7205 137.148C53.3658 136.644 52.8058 136.392 52.0405 136.392C51.2752 136.392 50.7198 136.644 50.3745 137.148C50.0292 137.652 49.8565 138.347 49.8565 139.234ZM61.0911 135.356C61.9871 135.356 62.6637 135.575 63.1211 136.014C63.5784 136.453 63.8071 137.153 63.8071 138.114V143H62.5891V138.198C62.5891 136.994 62.0291 136.392 60.9091 136.392C60.0784 136.392 59.5044 136.625 59.1871 137.092C58.8697 137.559 58.7111 138.231 58.7111 139.108V143H57.4791V135.496H58.4731L58.6551 136.518H58.7251C58.9677 136.126 59.3037 135.837 59.7331 135.65C60.1624 135.454 60.6151 135.356 61.0911 135.356ZM68.7934 143.14C67.86 143.14 67.1134 142.818 66.5534 142.174C65.9934 141.521 65.7134 140.55 65.7134 139.262C65.7134 137.974 65.9934 137.003 66.5534 136.35C67.1227 135.687 67.874 135.356 68.8074 135.356C69.386 135.356 69.8574 135.463 70.2214 135.678C70.5947 135.893 70.898 136.154 71.1314 136.462H71.2154C71.1967 136.341 71.178 136.163 71.1594 135.93C71.1407 135.687 71.1314 135.496 71.1314 135.356V132.36H72.3634V143H71.3694L71.1874 141.992H71.1314C70.9074 142.309 70.6087 142.58 70.2354 142.804C69.862 143.028 69.3814 143.14 68.7934 143.14ZM68.9894 142.118C69.7827 142.118 70.338 141.903 70.6554 141.474C70.982 141.035 71.1454 140.377 71.1454 139.5V139.276C71.1454 138.343 70.9914 137.629 70.6834 137.134C70.3754 136.63 69.806 136.378 68.9754 136.378C68.3127 136.378 67.8134 136.644 67.4774 137.176C67.1507 137.699 66.9874 138.403 66.9874 139.29C66.9874 140.186 67.1507 140.881 67.4774 141.376C67.8134 141.871 68.3174 142.118 68.9894 142.118ZM77.5886 135.37C78.5033 135.37 79.18 135.571 79.6186 135.972C80.0573 136.373 80.2766 137.013 80.2766 137.89V143H79.3806L79.1426 141.936H79.0866C78.76 142.347 78.4146 142.65 78.0506 142.846C77.6866 143.042 77.192 143.14 76.5666 143.14C75.8853 143.14 75.3206 142.963 74.8726 142.608C74.4246 142.244 74.2006 141.679 74.2006 140.914C74.2006 140.167 74.4946 139.593 75.0826 139.192C75.6706 138.781 76.576 138.557 77.7986 138.52L79.0726 138.478V138.03C79.0726 137.405 78.9373 136.971 78.6666 136.728C78.396 136.485 78.0133 136.364 77.5186 136.364C77.1266 136.364 76.7533 136.425 76.3986 136.546C76.044 136.658 75.7126 136.789 75.4046 136.938L75.0266 136.014C75.3533 135.837 75.7406 135.687 76.1886 135.566C76.6366 135.435 77.1033 135.37 77.5886 135.37ZM79.0586 139.332L77.9526 139.374C77.0193 139.411 76.3706 139.561 76.0066 139.822C75.652 140.083 75.4746 140.452 75.4746 140.928C75.4746 141.348 75.6006 141.656 75.8526 141.852C76.114 142.048 76.4453 142.146 76.8466 142.146C77.472 142.146 77.9946 141.973 78.4146 141.628C78.844 141.273 79.0586 140.732 79.0586 140.004V139.332ZM86.0943 135.356C86.2343 135.356 86.3836 135.365 86.5423 135.384C86.701 135.393 86.8456 135.412 86.9763 135.44L86.8223 136.574C86.701 136.546 86.5656 136.523 86.4163 136.504C86.267 136.485 86.1316 136.476 86.0103 136.476C85.6276 136.476 85.2683 136.583 84.9323 136.798C84.5963 137.003 84.3256 137.297 84.1203 137.68C83.9243 138.053 83.8263 138.492 83.8263 138.996V143H82.5943V135.496H83.6023L83.7423 136.868H83.7983C84.0316 136.457 84.3396 136.103 84.7223 135.804C85.1143 135.505 85.5716 135.356 86.0943 135.356ZM87.2015 135.496H88.5175L90.1415 139.766C90.2815 140.149 90.4075 140.508 90.5195 140.844C90.6315 141.18 90.7155 141.502 90.7715 141.81H90.8275C90.8835 141.577 90.9722 141.273 91.0935 140.9C91.2148 140.517 91.3408 140.135 91.4715 139.752L92.9975 135.496H94.3275L91.0935 144.036C90.8228 144.745 90.4822 145.31 90.0715 145.73C89.6608 146.15 89.0915 146.36 88.3635 146.36C88.1395 146.36 87.9435 146.346 87.7755 146.318C87.6075 146.299 87.4628 146.276 87.3415 146.248V145.268C87.4442 145.287 87.5655 145.305 87.7055 145.324C87.8548 145.343 88.0088 145.352 88.1675 145.352C88.5968 145.352 88.9422 145.231 89.2035 144.988C89.4648 144.745 89.6748 144.423 89.8335 144.022L90.2255 143.028L87.2015 135.496Z" fill="#1473E6"/>
<rect x="0.5" y="120.5" width="119" height="35" rx="1.5" stroke="#1473E6"/>
<path d="M39.522 219H38.262V210.11H35.14V209.004H42.63V210.11H39.522V219ZM45.8829 211.356C46.5176 211.356 47.0683 211.496 47.5349 211.776C48.0016 212.056 48.3563 212.453 48.5989 212.966C48.8509 213.47 48.9769 214.063 48.9769 214.744V215.486H43.8389C43.8576 216.335 44.0723 216.984 44.4829 217.432C44.9029 217.871 45.4863 218.09 46.2329 218.09C46.7089 218.09 47.1289 218.048 47.4929 217.964C47.8663 217.871 48.2489 217.74 48.6409 217.572V218.65C48.2583 218.818 47.8803 218.939 47.5069 219.014C47.1336 219.098 46.6903 219.14 46.1769 219.14C45.4583 219.14 44.8283 218.995 44.2869 218.706C43.7456 218.417 43.3209 217.987 43.0129 217.418C42.7143 216.849 42.5649 216.144 42.5649 215.304C42.5649 214.483 42.7003 213.778 42.9709 213.19C43.2509 212.602 43.6383 212.149 44.1329 211.832C44.6369 211.515 45.2203 211.356 45.8829 211.356ZM45.8689 212.364C45.2809 212.364 44.8143 212.555 44.4689 212.938C44.1329 213.311 43.9323 213.834 43.8669 214.506H47.6889C47.6796 213.871 47.5303 213.358 47.2409 212.966C46.9516 212.565 46.4943 212.364 45.8689 212.364ZM54.3873 211.356C54.5273 211.356 54.6766 211.365 54.8353 211.384C54.9939 211.393 55.1386 211.412 55.2693 211.44L55.1153 212.574C54.9939 212.546 54.8586 212.523 54.7093 212.504C54.5599 212.485 54.4246 212.476 54.3033 212.476C53.9206 212.476 53.5613 212.583 53.2253 212.798C52.8893 213.003 52.6186 213.297 52.4133 213.68C52.2173 214.053 52.1193 214.492 52.1193 214.996V219H50.8873V211.496H51.8953L52.0353 212.868H52.0913C52.3246 212.457 52.6326 212.103 53.0153 211.804C53.4073 211.505 53.8646 211.356 54.3873 211.356ZM59.1765 218.132C59.3631 218.132 59.5545 218.118 59.7505 218.09C59.9465 218.062 60.1051 218.025 60.2265 217.978V218.916C60.0958 218.981 59.9091 219.033 59.6665 219.07C59.4238 219.117 59.1905 219.14 58.9665 219.14C58.5745 219.14 58.2105 219.075 57.8745 218.944C57.5478 218.804 57.2818 218.566 57.0765 218.23C56.8711 217.894 56.7685 217.423 56.7685 216.816V212.448H55.7045V211.86L56.7825 211.37L57.2725 209.774H58.0005V211.496H60.1705V212.448H58.0005V216.788C58.0005 217.245 58.1078 217.586 58.3225 217.81C58.5465 218.025 58.8311 218.132 59.1765 218.132ZM62.3591 208.682C62.5457 208.682 62.7091 208.747 62.8491 208.878C62.9984 208.999 63.0731 209.195 63.0731 209.466C63.0731 209.737 62.9984 209.937 62.8491 210.068C62.7091 210.189 62.5457 210.25 62.3591 210.25C62.1537 210.25 61.9811 210.189 61.8411 210.068C61.7011 209.937 61.6311 209.737 61.6311 209.466C61.6311 209.195 61.7011 208.999 61.8411 208.878C61.9811 208.747 62.1537 208.682 62.3591 208.682ZM62.9611 211.496V219H61.7291V211.496H62.9611ZM68.1804 211.37C69.0951 211.37 69.7718 211.571 70.2104 211.972C70.6491 212.373 70.8684 213.013 70.8684 213.89V219H69.9724L69.7344 217.936H69.6784C69.3518 218.347 69.0064 218.65 68.6424 218.846C68.2784 219.042 67.7838 219.14 67.1584 219.14C66.4771 219.14 65.9124 218.963 65.4644 218.608C65.0164 218.244 64.7924 217.679 64.7924 216.914C64.7924 216.167 65.0864 215.593 65.6744 215.192C66.2624 214.781 67.1678 214.557 68.3904 214.52L69.6644 214.478V214.03C69.6644 213.405 69.5291 212.971 69.2584 212.728C68.9878 212.485 68.6051 212.364 68.1104 212.364C67.7184 212.364 67.3451 212.425 66.9904 212.546C66.6358 212.658 66.3044 212.789 65.9964 212.938L65.6184 212.014C65.9451 211.837 66.3324 211.687 66.7804 211.566C67.2284 211.435 67.6951 211.37 68.1804 211.37ZM69.6504 215.332L68.5444 215.374C67.6111 215.411 66.9624 215.561 66.5984 215.822C66.2438 216.083 66.0664 216.452 66.0664 216.928C66.0664 217.348 66.1924 217.656 66.4444 217.852C66.7058 218.048 67.0371 218.146 67.4384 218.146C68.0638 218.146 68.5864 217.973 69.0064 217.628C69.4358 217.273 69.6504 216.732 69.6504 216.004V215.332ZM76.6861 211.356C76.8261 211.356 76.9754 211.365 77.1341 211.384C77.2928 211.393 77.4374 211.412 77.5681 211.44L77.4141 212.574C77.2928 212.546 77.1574 212.523 77.0081 212.504C76.8588 212.485 76.7234 212.476 76.6021 212.476C76.2194 212.476 75.8601 212.583 75.5241 212.798C75.1881 213.003 74.9174 213.297 74.7121 213.68C74.5161 214.053 74.4181 214.492 74.4181 214.996V219H73.1861V211.496H74.1941L74.3341 212.868H74.3901C74.6234 212.457 74.9314 212.103 75.3141 211.804C75.7061 211.505 76.1634 211.356 76.6861 211.356ZM77.7933 211.496H79.1093L80.7333 215.766C80.8733 216.149 80.9993 216.508 81.1113 216.844C81.2233 217.18 81.3073 217.502 81.3633 217.81H81.4193C81.4753 217.577 81.564 217.273 81.6853 216.9C81.8066 216.517 81.9326 216.135 82.0633 215.752L83.5893 211.496H84.9193L81.6853 220.036C81.4146 220.745 81.074 221.31 80.6633 221.73C80.2526 222.15 79.6833 222.36 78.9553 222.36C78.7313 222.36 78.5353 222.346 78.3673 222.318C78.1993 222.299 78.0546 222.276 77.9333 222.248V221.268C78.036 221.287 78.1573 221.305 78.2973 221.324C78.4466 221.343 78.6006 221.352 78.7593 221.352C79.1886 221.352 79.534 221.231 79.7953 220.988C80.0566 220.745 80.2666 220.423 80.4253 220.022L80.8173 219.028L77.7933 211.496Z" fill="#1473E6"/>
<path d="M44.6987 9.904C44.6987 11.5933 44.2274 12.8673 43.2847 13.726C42.342 14.5753 41.026 15 39.3367 15H36.5227V5.004H39.6307C40.6667 5.004 41.5627 5.19067 42.3187 5.564C43.0747 5.93733 43.658 6.488 44.0687 7.216C44.4887 7.944 44.6987 8.84 44.6987 9.904ZM42.8227 9.96C42.8227 8.76533 42.5474 7.888 41.9967 7.328C41.446 6.768 40.6574 6.488 39.6307 6.488H38.3147V13.502H39.3927C41.6794 13.502 42.8227 12.3213 42.8227 9.96ZM49.7153 7.272C50.7326 7.272 51.5353 7.57533 52.1233 8.182C52.7206 8.78867 53.0193 9.63333 53.0193 10.716V11.612H48.0073C48.026 12.3027 48.2173 12.8393 48.5813 13.222C48.9453 13.5953 49.4493 13.782 50.0933 13.782C50.5786 13.782 51.0173 13.7353 51.4093 13.642C51.8013 13.5393 52.2026 13.3947 52.6133 13.208V14.622C52.24 14.7993 51.8526 14.93 51.4513 15.014C51.05 15.098 50.5693 15.14 50.0093 15.14C49.2626 15.14 48.6046 15 48.0353 14.72C47.466 14.4307 47.018 14.0013 46.6913 13.432C46.374 12.8533 46.2153 12.13 46.2153 11.262C46.2153 9.96467 46.5326 8.97533 47.1673 8.294C47.8113 7.61267 48.6606 7.272 49.7153 7.272ZM49.7153 8.574C49.2393 8.574 48.852 8.728 48.5533 9.036C48.264 9.33467 48.096 9.78267 48.0493 10.38H51.3113C51.302 9.85733 51.1666 9.428 50.9053 9.092C50.6533 8.74667 50.2566 8.574 49.7153 8.574ZM58.7321 8.742H56.8981V15H55.1341V8.742H53.9161V7.902L55.1341 7.398V6.88C55.1341 5.90933 55.3627 5.23733 55.8201 4.864C56.2867 4.48133 56.9214 4.29 57.7241 4.29C58.0881 4.29 58.4194 4.32267 58.7181 4.388C59.0261 4.444 59.2781 4.50933 59.4741 4.584L59.0261 5.9C58.8674 5.85333 58.6901 5.81133 58.4941 5.774C58.3074 5.72733 58.1021 5.704 57.8781 5.704C57.5327 5.704 57.2807 5.81133 57.1221 6.026C56.9727 6.23133 56.8981 6.53 56.8981 6.922V7.412H58.7321V8.742ZM63.0174 7.272C63.9974 7.272 64.7394 7.48667 65.2434 7.916C65.7567 8.34533 66.0134 9.008 66.0134 9.904V15H64.7674L64.4174 13.95H64.3614C64.0347 14.3607 63.6894 14.664 63.3254 14.86C62.9614 15.0467 62.4667 15.14 61.8414 15.14C61.16 15.14 60.5954 14.9487 60.1474 14.566C59.6994 14.1833 59.4754 13.5907 59.4754 12.788C59.4754 12.004 59.76 11.416 60.3294 11.024C60.908 10.632 61.7807 10.4127 62.9474 10.366L64.2634 10.324V9.946C64.2634 9.46067 64.1467 9.11533 63.9134 8.91C63.68 8.70467 63.3534 8.602 62.9334 8.602C62.5507 8.602 62.182 8.658 61.8274 8.77C61.482 8.87267 61.1367 9.00333 60.7914 9.162L60.2314 7.93C60.6047 7.734 61.0294 7.57533 61.5054 7.454C61.9907 7.33267 62.4947 7.272 63.0174 7.272ZM64.2634 11.416L63.3394 11.444C62.5647 11.472 62.028 11.6073 61.7294 11.85C61.4307 12.0833 61.2814 12.4007 61.2814 12.802C61.2814 13.166 61.384 13.4273 61.5894 13.586C61.804 13.7353 62.084 13.81 62.4294 13.81C62.9427 13.81 63.3767 13.6653 63.7314 13.376C64.086 13.0773 64.2634 12.6387 64.2634 12.06V11.416ZM74.9578 7.412V15H73.5718L73.3338 14.02H73.2498C73.0072 14.412 72.6712 14.6967 72.2418 14.874C71.8125 15.0513 71.3598 15.14 70.8838 15.14C70.0345 15.14 69.3672 14.9207 68.8818 14.482C68.4058 14.0433 68.1678 13.3387 68.1678 12.368V7.412H69.9318V12.018C69.9318 12.5873 70.0438 13.012 70.2678 13.292C70.4918 13.572 70.8465 13.712 71.3318 13.712C72.0412 13.712 72.5265 13.488 72.7878 13.04C73.0585 12.592 73.1938 11.9527 73.1938 11.122V7.412H74.9578ZM78.9703 15H77.2063V4.36H78.9703V15ZM84.1658 13.726C84.3805 13.726 84.5905 13.7073 84.7958 13.67C85.0105 13.6233 85.2065 13.572 85.3838 13.516V14.832C85.1971 14.9253 84.9545 15 84.6558 15.056C84.3571 15.112 84.0445 15.14 83.7178 15.14C83.2791 15.14 82.8825 15.07 82.5278 14.93C82.1825 14.79 81.9071 14.5427 81.7018 14.188C81.4965 13.8333 81.3938 13.334 81.3938 12.69V8.742H80.3718V7.972L81.4918 7.356L82.0518 5.746H83.1578V7.412H85.3138V8.742H83.1578V12.676C83.1578 13.0307 83.2511 13.2967 83.4378 13.474C83.6338 13.642 83.8765 13.726 84.1658 13.726Z" fill="black"/>
</svg>
