<svg width="412" height="288" viewBox="0 0 412 288" fill="none" xmlns="http://www.w3.org/2000/svg">
<rect width="412" height="288" fill="white"/>
<rect width="412" height="208" transform="translate(0 40)" fill="white"/>
<g clip-path="url(#clip0_9474_627729)">
<rect x="94" y="40" width="240" height="208" fill="white"/>
<rect width="240" height="64" transform="translate(94 40)" fill="white"/>
<path d="M130.737 74.2875H122.712V66.2625C122.712 65.955 122.457 65.7 122.15 65.7C117.102 65.7 113 69.8025 113 74.85C113 79.8975 117.102 84 122.15 84C127.198 84 131.3 79.8975 131.3 74.85C131.3 74.5425 131.045 74.2875 130.737 74.2875ZM114.125 74.85C114.125 70.6125 117.425 67.1325 121.587 66.8475V74.6175L116.098 80.1075C114.875 78.6975 114.125 76.86 114.125 74.85ZM122.15 82.875C120.14 82.875 118.303 82.125 116.892 80.9025L122.382 75.4125H130.153C129.868 79.575 126.387 82.875 122.15 82.875Z" fill="#323232"/>
<path d="M125.03 72.825C125.338 72.825 125.593 72.57 125.593 72.2625V66.2625C125.593 65.955 125.338 65.7 125.03 65.7C124.723 65.7 124.467 65.955 124.467 66.2625V72.2625C124.467 72.57 124.723 72.825 125.03 72.825Z" fill="#323232"/>
<path d="M127.888 72.825C128.195 72.825 128.45 72.57 128.45 72.2625V63.5625C128.45 63.255 128.195 63 127.888 63C127.58 63 127.325 63.255 127.325 63.5625V72.2625C127.325 72.57 127.573 72.825 127.888 72.825Z" fill="#323232"/>
<path d="M130.737 67.965C130.43 67.965 130.175 68.22 130.175 68.5275V72.255C130.175 72.5625 130.43 72.8175 130.737 72.8175C131.045 72.8175 131.3 72.5625 131.3 72.255V68.535C131.3 68.22 131.045 67.965 130.737 67.965Z" fill="#323232"/>
<path d="M155.282 76.5H153.812L148.464 68.198H148.408C148.427 68.5247 148.45 68.9307 148.478 69.416C148.506 69.9013 148.52 70.4007 148.52 70.914V76.5H147.358V66.504H148.814L154.148 74.778H154.204C154.195 74.6287 154.181 74.4047 154.162 74.106C154.153 73.8073 154.139 73.4853 154.12 73.14C154.111 72.7853 154.106 72.454 154.106 72.146V66.504H155.282V76.5ZM160.669 68.87C161.583 68.87 162.26 69.0707 162.699 69.472C163.137 69.8733 163.357 70.5127 163.357 71.39V76.5H162.461L162.223 75.436H162.167C161.84 75.8467 161.495 76.15 161.131 76.346C160.767 76.542 160.272 76.64 159.647 76.64C158.965 76.64 158.401 76.4627 157.953 76.108C157.505 75.744 157.281 75.1793 157.281 74.414C157.281 73.6673 157.575 73.0933 158.163 72.692C158.751 72.2813 159.656 72.0573 160.879 72.02L162.153 71.978V71.53C162.153 70.9047 162.017 70.4707 161.747 70.228C161.476 69.9853 161.093 69.864 160.599 69.864C160.207 69.864 159.833 69.9247 159.479 70.046C159.124 70.158 158.793 70.2887 158.485 70.438L158.107 69.514C158.433 69.3367 158.821 69.1873 159.269 69.066C159.717 68.9353 160.183 68.87 160.669 68.87ZM162.139 72.832L161.033 72.874C160.099 72.9113 159.451 73.0607 159.087 73.322C158.732 73.5833 158.555 73.952 158.555 74.428C158.555 74.848 158.681 75.156 158.933 75.352C159.194 75.548 159.525 75.646 159.927 75.646C160.552 75.646 161.075 75.4733 161.495 75.128C161.924 74.7733 162.139 74.232 162.139 73.504V72.832ZM167.326 76.5L164.484 68.996H165.8L167.396 73.42C167.471 73.6253 167.55 73.854 167.634 74.106C167.718 74.358 167.793 74.6007 167.858 74.834C167.924 75.0673 167.97 75.2587 167.998 75.408H168.054C168.082 75.2587 168.134 75.0673 168.208 74.834C168.283 74.5913 168.362 74.3487 168.446 74.106C168.53 73.854 168.61 73.6253 168.684 73.42L170.28 68.996H171.596L168.74 76.5H167.326ZM173.414 66.182C173.6 66.182 173.764 66.2473 173.904 66.378C174.053 66.4993 174.128 66.6953 174.128 66.966C174.128 67.2367 174.053 67.4373 173.904 67.568C173.764 67.6893 173.6 67.75 173.414 67.75C173.208 67.75 173.036 67.6893 172.896 67.568C172.756 67.4373 172.686 67.2367 172.686 66.966C172.686 66.6953 172.756 66.4993 172.896 66.378C173.036 66.2473 173.208 66.182 173.414 66.182ZM174.016 68.996V76.5H172.784V68.996H174.016ZM179.053 68.856C179.548 68.856 179.991 68.9493 180.383 69.136C180.784 69.3227 181.125 69.6073 181.405 69.99H181.475L181.643 68.996H182.623V76.626C182.623 77.6993 182.348 78.5067 181.797 79.048C181.256 79.5893 180.411 79.86 179.263 79.86C178.162 79.86 177.261 79.7013 176.561 79.384V78.25C177.298 78.642 178.222 78.838 179.333 78.838C179.977 78.838 180.481 78.6467 180.845 78.264C181.218 77.8907 181.405 77.3773 181.405 76.724V76.43C181.405 76.318 181.41 76.1593 181.419 75.954C181.428 75.7393 181.438 75.59 181.447 75.506H181.391C180.887 76.262 180.112 76.64 179.067 76.64C178.096 76.64 177.336 76.2993 176.785 75.618C176.244 74.9367 175.973 73.9847 175.973 72.762C175.973 71.5673 176.244 70.62 176.785 69.92C177.336 69.2107 178.092 68.856 179.053 68.856ZM179.221 69.892C178.596 69.892 178.11 70.144 177.765 70.648C177.42 71.1427 177.247 71.852 177.247 72.776C177.247 73.7 177.415 74.4093 177.751 74.904C178.087 75.3893 178.586 75.632 179.249 75.632C180.005 75.632 180.556 75.4313 180.901 75.03C181.246 74.6193 181.419 73.9613 181.419 73.056V72.762C181.419 71.7447 181.242 71.012 180.887 70.564C180.532 70.116 179.977 69.892 179.221 69.892ZM187.848 68.87C188.763 68.87 189.44 69.0707 189.878 69.472C190.317 69.8733 190.536 70.5127 190.536 71.39V76.5H189.64L189.402 75.436H189.346C189.02 75.8467 188.674 76.15 188.31 76.346C187.946 76.542 187.452 76.64 186.826 76.64C186.145 76.64 185.58 76.4627 185.132 76.108C184.684 75.744 184.46 75.1793 184.46 74.414C184.46 73.6673 184.754 73.0933 185.342 72.692C185.93 72.2813 186.836 72.0573 188.058 72.02L189.332 71.978V71.53C189.332 70.9047 189.197 70.4707 188.926 70.228C188.656 69.9853 188.273 69.864 187.778 69.864C187.386 69.864 187.013 69.9247 186.658 70.046C186.304 70.158 185.972 70.2887 185.664 70.438L185.286 69.514C185.613 69.3367 186 69.1873 186.448 69.066C186.896 68.9353 187.363 68.87 187.848 68.87ZM189.318 72.832L188.212 72.874C187.279 72.9113 186.63 73.0607 186.266 73.322C185.912 73.5833 185.734 73.952 185.734 74.428C185.734 74.848 185.86 75.156 186.112 75.352C186.374 75.548 186.705 75.646 187.106 75.646C187.732 75.646 188.254 75.4733 188.674 75.128C189.104 74.7733 189.318 74.232 189.318 73.504V72.832ZM195.36 75.632C195.547 75.632 195.738 75.618 195.934 75.59C196.13 75.562 196.289 75.5247 196.41 75.478V76.416C196.279 76.4813 196.093 76.5327 195.85 76.57C195.607 76.6167 195.374 76.64 195.15 76.64C194.758 76.64 194.394 76.5747 194.058 76.444C193.731 76.304 193.465 76.066 193.26 75.73C193.055 75.394 192.952 74.9227 192.952 74.316V69.948H191.888V69.36L192.966 68.87L193.456 67.274H194.184V68.996H196.354V69.948H194.184V74.288C194.184 74.7453 194.291 75.086 194.506 75.31C194.73 75.5247 195.015 75.632 195.36 75.632ZM198.543 66.182C198.729 66.182 198.893 66.2473 199.033 66.378C199.182 66.4993 199.257 66.6953 199.257 66.966C199.257 67.2367 199.182 67.4373 199.033 67.568C198.893 67.6893 198.729 67.75 198.543 67.75C198.337 67.75 198.165 67.6893 198.025 67.568C197.885 67.4373 197.815 67.2367 197.815 66.966C197.815 66.6953 197.885 66.4993 198.025 66.378C198.165 66.2473 198.337 66.182 198.543 66.182ZM199.145 68.996V76.5H197.913V68.996H199.145ZM208.046 72.734C208.046 73.9753 207.729 74.9367 207.094 75.618C206.469 76.2993 205.619 76.64 204.546 76.64C203.883 76.64 203.291 76.4907 202.768 76.192C202.255 75.884 201.849 75.4407 201.55 74.862C201.251 74.274 201.102 73.5647 201.102 72.734C201.102 71.4927 201.41 70.536 202.026 69.864C202.651 69.192 203.505 68.856 204.588 68.856C205.26 68.856 205.857 69.01 206.38 69.318C206.903 69.6167 207.309 70.0553 207.598 70.634C207.897 71.2033 208.046 71.9033 208.046 72.734ZM202.376 72.734C202.376 73.6207 202.549 74.3253 202.894 74.848C203.249 75.3613 203.809 75.618 204.574 75.618C205.33 75.618 205.885 75.3613 206.24 74.848C206.595 74.3253 206.772 73.6207 206.772 72.734C206.772 71.8473 206.595 71.152 206.24 70.648C205.885 70.144 205.325 69.892 204.56 69.892C203.795 69.892 203.239 70.144 202.894 70.648C202.549 71.152 202.376 71.8473 202.376 72.734ZM213.611 68.856C214.507 68.856 215.183 69.0753 215.641 69.514C216.098 69.9527 216.327 70.6527 216.327 71.614V76.5H215.109V71.698C215.109 70.494 214.549 69.892 213.429 69.892C212.598 69.892 212.024 70.1253 211.707 70.592C211.389 71.0587 211.231 71.7307 211.231 72.608V76.5H209.999V68.996H210.993L211.175 70.018H211.245C211.487 69.626 211.823 69.3367 212.253 69.15C212.682 68.954 213.135 68.856 213.611 68.856ZM233.938 66.504L231.278 76.5H230.004L228.058 69.948C227.974 69.6867 227.894 69.4207 227.82 69.15C227.754 68.87 227.694 68.6273 227.638 68.422C227.591 68.2073 227.563 68.058 227.554 67.974C227.544 68.0953 227.493 68.3567 227.4 68.758C227.306 69.15 227.199 69.5607 227.078 69.99L225.188 76.5H223.914L221.268 66.504H222.584L224.138 72.608C224.25 73.0373 224.343 73.4527 224.418 73.854C224.502 74.2553 224.567 74.6333 224.614 74.988C224.66 74.624 224.73 74.2273 224.824 73.798C224.917 73.3687 225.024 72.9487 225.146 72.538L226.91 66.504H228.212L230.046 72.58C230.176 73.0093 230.288 73.4387 230.382 73.868C230.475 74.2973 230.545 74.6707 230.592 74.988C230.629 74.6427 230.69 74.2693 230.774 73.868C230.867 73.4573 230.97 73.0327 231.082 72.594L232.622 66.504H233.938ZM235.935 66.182C236.122 66.182 236.285 66.2473 236.425 66.378C236.575 66.4993 236.649 66.6953 236.649 66.966C236.649 67.2367 236.575 67.4373 236.425 67.568C236.285 67.6893 236.122 67.75 235.935 67.75C235.73 67.75 235.557 67.6893 235.417 67.568C235.277 67.4373 235.207 67.2367 235.207 66.966C235.207 66.6953 235.277 66.4993 235.417 66.378C235.557 66.2473 235.73 66.182 235.935 66.182ZM236.537 68.996V76.5H235.305V68.996H236.537ZM241.421 75.632C241.607 75.632 241.799 75.618 241.995 75.59C242.191 75.562 242.349 75.5247 242.471 75.478V76.416C242.34 76.4813 242.153 76.5327 241.911 76.57C241.668 76.6167 241.435 76.64 241.211 76.64C240.819 76.64 240.455 76.5747 240.119 76.444C239.792 76.304 239.526 76.066 239.321 75.73C239.115 75.394 239.013 74.9227 239.013 74.316V69.948H237.949V69.36L239.027 68.87L239.517 67.274H240.245V68.996H242.415V69.948H240.245V74.288C240.245 74.7453 240.352 75.086 240.567 75.31C240.791 75.5247 241.075 75.632 241.421 75.632ZM245.205 65.86V68.982C245.205 69.3553 245.182 69.7053 245.135 70.032H245.219C245.462 69.6493 245.789 69.36 246.199 69.164C246.619 68.968 247.072 68.87 247.557 68.87C248.463 68.87 249.144 69.0893 249.601 69.528C250.068 69.9573 250.301 70.6527 250.301 71.614V76.5H249.083V71.698C249.083 70.494 248.523 69.892 247.403 69.892C246.563 69.892 245.985 70.13 245.667 70.606C245.359 71.0727 245.205 71.7447 245.205 72.622V76.5H243.973V65.86H245.205ZM256.432 76.5V66.504H257.692V75.38H262.06V76.5H256.432ZM270.13 72.734C270.13 73.9753 269.813 74.9367 269.178 75.618C268.553 76.2993 267.703 76.64 266.63 76.64C265.967 76.64 265.375 76.4907 264.852 76.192C264.339 75.884 263.933 75.4407 263.634 74.862C263.335 74.274 263.186 73.5647 263.186 72.734C263.186 71.4927 263.494 70.536 264.11 69.864C264.735 69.192 265.589 68.856 266.672 68.856C267.344 68.856 267.941 69.01 268.464 69.318C268.987 69.6167 269.393 70.0553 269.682 70.634C269.981 71.2033 270.13 71.9033 270.13 72.734ZM264.46 72.734C264.46 73.6207 264.633 74.3253 264.978 74.848C265.333 75.3613 265.893 75.618 266.658 75.618C267.414 75.618 267.969 75.3613 268.324 74.848C268.679 74.3253 268.856 73.6207 268.856 72.734C268.856 71.8473 268.679 71.152 268.324 70.648C267.969 70.144 267.409 69.892 266.644 69.892C265.879 69.892 265.323 70.144 264.978 70.648C264.633 71.152 264.46 71.8473 264.46 72.734ZM275.695 68.856C276.591 68.856 277.267 69.0753 277.725 69.514C278.182 69.9527 278.411 70.6527 278.411 71.614V76.5H277.193V71.698C277.193 70.494 276.633 69.892 275.513 69.892C274.682 69.892 274.108 70.1253 273.791 70.592C273.473 71.0587 273.315 71.7307 273.315 72.608V76.5H272.083V68.996H273.077L273.259 70.018H273.329C273.571 69.626 273.907 69.3367 274.337 69.15C274.766 68.954 275.219 68.856 275.695 68.856ZM280.555 75.744C280.555 75.3987 280.639 75.156 280.807 75.016C280.975 74.876 281.176 74.806 281.409 74.806C281.642 74.806 281.848 74.876 282.025 75.016C282.202 75.156 282.291 75.3987 282.291 75.744C282.291 76.08 282.202 76.3227 282.025 76.472C281.848 76.6213 281.642 76.696 281.409 76.696C281.176 76.696 280.975 76.6213 280.807 76.472C280.639 76.3227 280.555 76.08 280.555 75.744ZM284.301 75.744C284.301 75.3987 284.385 75.156 284.553 75.016C284.721 74.876 284.922 74.806 285.155 74.806C285.388 74.806 285.594 74.876 285.771 75.016C285.948 75.156 286.037 75.3987 286.037 75.744C286.037 76.08 285.948 76.3227 285.771 76.472C285.594 76.6213 285.388 76.696 285.155 76.696C284.922 76.696 284.721 76.6213 284.553 76.472C284.385 76.3227 284.301 76.08 284.301 75.744ZM288.047 75.744C288.047 75.3987 288.131 75.156 288.299 75.016C288.467 74.876 288.668 74.806 288.901 74.806C289.134 74.806 289.34 74.876 289.517 75.016C289.694 75.156 289.783 75.3987 289.783 75.744C289.783 76.08 289.694 76.3227 289.517 76.472C289.34 76.6213 289.134 76.696 288.901 76.696C288.668 76.696 288.467 76.6213 288.299 76.472C288.131 76.3227 288.047 76.08 288.047 75.744Z" fill="#323232"/>
<rect width="240" height="48" transform="translate(94 104)" fill="white"/>
<path fill-rule="evenodd" clip-rule="evenodd" d="M126.912 123.65C125.691 123.65 124.7 124.641 124.7 125.862C124.7 127.084 125.691 128.075 126.912 128.075C128.134 128.075 129.125 127.084 129.125 125.862C129.125 124.641 128.134 123.65 126.912 123.65ZM123.575 125.862C123.575 124.019 125.069 122.525 126.912 122.525C128.756 122.525 130.25 124.019 130.25 125.862C130.25 127.706 128.756 129.2 126.912 129.2C125.069 129.2 123.575 127.706 123.575 125.862Z" fill="#323232"/>
<path d="M124.434 131.852C125.131 131.413 125.962 131.15 126.837 131.15C129.371 131.15 131.375 133.218 131.375 135.688V136.437C131.375 136.748 131.627 137 131.937 137C132.248 137 132.5 136.748 132.5 136.437V135.687C132.5 132.607 130.003 130.025 126.837 130.025C125.71 130.025 124.648 130.37 123.765 130.945C124.01 131.23 124.234 131.533 124.434 131.852Z" fill="#323232"/>
<path fill-rule="evenodd" clip-rule="evenodd" d="M111.5 135.838C111.5 132.227 114.452 129.275 118.062 129.275C121.673 129.275 124.625 132.227 124.625 135.838V138.312C124.625 138.623 124.373 138.875 124.062 138.875C123.752 138.875 123.5 138.623 123.5 138.312V135.838C123.5 132.848 121.052 130.4 118.062 130.4C115.073 130.4 112.625 132.848 112.625 135.838V138.312C112.625 138.623 112.373 138.875 112.062 138.875C111.752 138.875 111.5 138.623 111.5 138.312V135.838Z" fill="#323232"/>
<path fill-rule="evenodd" clip-rule="evenodd" d="M118.062 121.625C116.551 121.625 115.325 122.851 115.325 124.363C115.325 125.874 116.551 127.1 118.062 127.1C119.574 127.1 120.8 125.874 120.8 124.363C120.8 122.851 119.574 121.625 118.062 121.625ZM114.2 124.363C114.2 122.229 115.929 120.5 118.062 120.5C120.196 120.5 121.925 122.229 121.925 124.363C121.925 126.496 120.196 128.225 118.062 128.225C115.929 128.225 114.2 126.496 114.2 124.363Z" fill="#323232"/>
<path d="M151.698 129.222H155.156V134.122C154.615 134.299 154.069 134.43 153.518 134.514C152.967 134.598 152.342 134.64 151.642 134.64C150.606 134.64 149.733 134.435 149.024 134.024C148.315 133.604 147.773 133.011 147.4 132.246C147.036 131.471 146.854 130.557 146.854 129.502C146.854 128.466 147.055 127.565 147.456 126.8C147.867 126.025 148.459 125.428 149.234 125.008C150.009 124.579 150.942 124.364 152.034 124.364C152.594 124.364 153.121 124.415 153.616 124.518C154.12 124.621 154.587 124.765 155.016 124.952L154.54 126.044C154.185 125.895 153.784 125.764 153.336 125.652C152.897 125.531 152.44 125.47 151.964 125.47C150.769 125.47 149.836 125.834 149.164 126.562C148.501 127.281 148.17 128.261 148.17 129.502C148.17 130.295 148.296 131 148.548 131.616C148.809 132.223 149.215 132.699 149.766 133.044C150.317 133.38 151.04 133.548 151.936 133.548C152.375 133.548 152.748 133.525 153.056 133.478C153.364 133.431 153.644 133.375 153.896 133.31V130.342H151.698V129.222ZM160.876 126.856C161.016 126.856 161.165 126.865 161.324 126.884C161.482 126.893 161.627 126.912 161.758 126.94L161.604 128.074C161.482 128.046 161.347 128.023 161.198 128.004C161.048 127.985 160.913 127.976 160.792 127.976C160.409 127.976 160.05 128.083 159.714 128.298C159.378 128.503 159.107 128.797 158.902 129.18C158.706 129.553 158.608 129.992 158.608 130.496V134.5H157.376V126.996H158.384L158.524 128.368H158.58C158.813 127.957 159.121 127.603 159.504 127.304C159.896 127.005 160.353 126.856 160.876 126.856ZM169.409 130.734C169.409 131.975 169.092 132.937 168.457 133.618C167.832 134.299 166.983 134.64 165.909 134.64C165.247 134.64 164.654 134.491 164.131 134.192C163.618 133.884 163.212 133.441 162.913 132.862C162.615 132.274 162.465 131.565 162.465 130.734C162.465 129.493 162.773 128.536 163.389 127.864C164.015 127.192 164.869 126.856 165.951 126.856C166.623 126.856 167.221 127.01 167.743 127.318C168.266 127.617 168.672 128.055 168.961 128.634C169.26 129.203 169.409 129.903 169.409 130.734ZM163.739 130.734C163.739 131.621 163.912 132.325 164.257 132.848C164.612 133.361 165.172 133.618 165.937 133.618C166.693 133.618 167.249 133.361 167.603 132.848C167.958 132.325 168.135 131.621 168.135 130.734C168.135 129.847 167.958 129.152 167.603 128.648C167.249 128.144 166.689 127.892 165.923 127.892C165.158 127.892 164.603 128.144 164.257 128.648C163.912 129.152 163.739 129.847 163.739 130.734ZM177.634 126.996V134.5H176.626L176.444 133.506H176.388C176.145 133.898 175.809 134.187 175.38 134.374C174.951 134.551 174.493 134.64 174.008 134.64C173.103 134.64 172.421 134.425 171.964 133.996C171.507 133.557 171.278 132.862 171.278 131.91V126.996H172.524V131.826C172.524 133.021 173.079 133.618 174.19 133.618C175.021 133.618 175.595 133.385 175.912 132.918C176.239 132.451 176.402 131.779 176.402 130.902V126.996H177.634ZM183.586 126.856C184.51 126.856 185.252 127.178 185.812 127.822C186.382 128.466 186.666 129.437 186.666 130.734C186.666 132.013 186.382 132.983 185.812 133.646C185.252 134.309 184.506 134.64 183.572 134.64C182.994 134.64 182.513 134.533 182.13 134.318C181.757 134.103 181.463 133.847 181.248 133.548H181.164C181.174 133.707 181.188 133.907 181.206 134.15C181.234 134.393 181.248 134.603 181.248 134.78V137.86H180.016V126.996H181.024L181.192 128.018H181.248C181.472 127.691 181.766 127.416 182.13 127.192C182.494 126.968 182.98 126.856 183.586 126.856ZM183.362 127.892C182.597 127.892 182.056 128.107 181.738 128.536C181.421 128.965 181.258 129.619 181.248 130.496V130.734C181.248 131.658 181.398 132.372 181.696 132.876C182.004 133.371 182.569 133.618 183.39 133.618C183.838 133.618 184.212 133.497 184.51 133.254C184.809 133.002 185.028 132.657 185.168 132.218C185.318 131.779 185.392 131.28 185.392 130.72C185.392 129.861 185.224 129.175 184.888 128.662C184.562 128.149 184.053 127.892 183.362 127.892ZM193.515 132.428C193.515 133.156 193.245 133.707 192.703 134.08C192.162 134.453 191.434 134.64 190.519 134.64C189.997 134.64 189.544 134.598 189.161 134.514C188.788 134.43 188.457 134.313 188.167 134.164V133.044C188.466 133.193 188.825 133.333 189.245 133.464C189.675 133.585 190.109 133.646 190.547 133.646C191.173 133.646 191.625 133.548 191.905 133.352C192.185 133.147 192.325 132.876 192.325 132.54C192.325 132.353 192.274 132.185 192.171 132.036C192.069 131.887 191.882 131.737 191.611 131.588C191.35 131.439 190.972 131.271 190.477 131.084C189.992 130.897 189.577 130.711 189.231 130.524C188.886 130.337 188.62 130.113 188.433 129.852C188.247 129.591 188.153 129.255 188.153 128.844C188.153 128.209 188.41 127.719 188.923 127.374C189.446 127.029 190.127 126.856 190.967 126.856C191.425 126.856 191.849 126.903 192.241 126.996C192.643 127.089 193.016 127.211 193.361 127.36L192.941 128.34C192.624 128.209 192.293 128.097 191.947 128.004C191.602 127.911 191.247 127.864 190.883 127.864C190.379 127.864 189.992 127.948 189.721 128.116C189.46 128.275 189.329 128.494 189.329 128.774C189.329 128.989 189.39 129.166 189.511 129.306C189.633 129.446 189.833 129.586 190.113 129.726C190.403 129.866 190.785 130.025 191.261 130.202C191.737 130.379 192.143 130.561 192.479 130.748C192.815 130.935 193.072 131.163 193.249 131.434C193.427 131.695 193.515 132.027 193.515 132.428Z" fill="#323232"/>
<path d="M313 133.962C312.9 133.962 312.8 133.913 312.75 133.863L307.1 128.262C307.05 128.212 307 128.112 307 128.012C307 127.912 307.05 127.812 307.1 127.762L312.7 122.113C312.85 121.962 313.1 121.962 313.25 122.113C313.4 122.263 313.4 122.512 313.25 122.662L307.9 128.012L313.25 133.363C313.4 133.512 313.4 133.762 313.25 133.912C313.15 133.962 313.1 133.962 313 133.962Z" fill="#323232"/>
<rect width="240" height="48" transform="translate(94 152)" fill="white"/>
<path d="M123.965 177.095C122.915 177.097 121.909 177.515 121.167 178.257C120.425 178.999 120.007 180.005 120.005 181.055V182.45C120.005 182.599 120.064 182.742 120.17 182.848C120.275 182.953 120.418 183.013 120.568 183.013H127.362C127.437 183.014 127.51 183 127.579 182.972C127.648 182.944 127.71 182.902 127.762 182.85C127.815 182.798 127.856 182.735 127.884 182.666C127.912 182.598 127.926 182.524 127.925 182.45V181.055C127.925 180.005 127.508 178.998 126.765 178.255C126.022 177.512 125.015 177.095 123.965 177.095ZM126.8 181.888H121.13V181.055C121.13 180.303 121.429 179.582 121.96 179.05C122.492 178.519 123.213 178.22 123.965 178.22C124.717 178.22 125.438 178.519 125.97 179.05C126.501 179.582 126.8 180.303 126.8 181.055V181.888Z" fill="#323232"/>
<path d="M129.688 167H114.358C114.208 167 114.065 167.059 113.96 167.165C113.854 167.27 113.795 167.413 113.795 167.562V170.705H112.062C111.913 170.705 111.77 170.764 111.665 170.87C111.559 170.975 111.5 171.118 111.5 171.267C111.5 171.417 111.559 171.56 111.665 171.665C111.77 171.771 111.913 171.83 112.062 171.83H113.795V174.83H112.062C111.913 174.83 111.77 174.889 111.665 174.995C111.559 175.1 111.5 175.243 111.5 175.392C111.5 175.542 111.559 175.685 111.665 175.79C111.77 175.896 111.913 175.955 112.062 175.955H113.795V178.955H112.062C111.913 178.955 111.77 179.014 111.665 179.12C111.559 179.225 111.5 179.368 111.5 179.517C111.5 179.667 111.559 179.81 111.665 179.915C111.77 180.021 111.913 180.08 112.062 180.08H113.795V183.08H112.062C111.913 183.08 111.77 183.139 111.665 183.245C111.559 183.35 111.5 183.493 111.5 183.642C111.5 183.792 111.559 183.935 111.665 184.04C111.77 184.146 111.913 184.205 112.062 184.205H113.795V187.347C113.795 187.497 113.854 187.64 113.96 187.745C114.065 187.851 114.208 187.91 114.358 187.91H129.688C130.418 187.91 131.12 187.626 131.645 187.118C132.17 186.61 132.477 185.918 132.5 185.188V169.812C132.5 169.067 132.204 168.351 131.676 167.824C131.149 167.296 130.433 167 129.688 167ZM131.375 185.188C131.375 185.635 131.197 186.064 130.881 186.381C130.564 186.697 130.135 186.875 129.688 186.875H114.92V184.295H116.608C116.757 184.295 116.9 184.236 117.005 184.13C117.111 184.025 117.17 183.882 117.17 183.733C117.17 183.583 117.111 183.44 117.005 183.335C116.9 183.229 116.757 183.17 116.608 183.17H114.92V180.17H116.608C116.757 180.17 116.9 180.111 117.005 180.005C117.111 179.9 117.17 179.757 117.17 179.608C117.17 179.458 117.111 179.315 117.005 179.21C116.9 179.104 116.757 179.045 116.608 179.045H114.92V176H116.608C116.757 176 116.9 175.941 117.005 175.835C117.111 175.73 117.17 175.587 117.17 175.438C117.17 175.288 117.111 175.145 117.005 175.04C116.9 174.934 116.757 174.875 116.608 174.875H114.92V171.875H116.608C116.757 171.875 116.9 171.816 117.005 171.71C117.111 171.605 117.17 171.462 117.17 171.312C117.17 171.163 117.111 171.02 117.005 170.915C116.9 170.809 116.757 170.75 116.608 170.75H114.92V168.125H129.688C130.135 168.125 130.564 168.303 130.881 168.619C131.197 168.936 131.375 169.365 131.375 169.812V185.188Z" fill="#323232"/>
<path d="M123.965 176.825C124.444 176.826 124.914 176.686 125.313 176.42C125.712 176.155 126.024 175.777 126.208 175.335C126.393 174.892 126.442 174.405 126.349 173.935C126.257 173.464 126.027 173.032 125.688 172.692C125.35 172.353 124.918 172.121 124.448 172.027C123.978 171.933 123.49 171.981 123.047 172.164C122.604 172.347 122.225 172.657 121.959 173.056C121.692 173.454 121.55 173.923 121.55 174.403C121.55 175.044 121.804 175.659 122.257 176.113C122.71 176.567 123.324 176.823 123.965 176.825ZM123.965 173.075C124.221 173.074 124.471 173.148 124.685 173.288C124.898 173.429 125.066 173.629 125.166 173.864C125.266 174.099 125.295 174.359 125.248 174.61C125.201 174.861 125.081 175.093 124.903 175.277C124.725 175.46 124.496 175.587 124.246 175.641C123.996 175.695 123.736 175.674 123.498 175.58C123.26 175.487 123.055 175.325 122.909 175.116C122.762 174.906 122.681 174.658 122.675 174.403C122.675 174.06 122.811 173.731 123.052 173.488C123.294 173.245 123.622 173.107 123.965 173.105V173.075Z" fill="#323232"/>
<path d="M151.642 173.47C150.569 173.47 149.724 173.829 149.108 174.548C148.492 175.267 148.184 176.251 148.184 177.502C148.184 178.743 148.469 179.728 149.038 180.456C149.617 181.175 150.48 181.534 151.628 181.534C152.057 181.534 152.468 181.497 152.86 181.422C153.252 181.347 153.639 181.254 154.022 181.142V182.234C153.649 182.374 153.261 182.477 152.86 182.542C152.468 182.607 151.997 182.64 151.446 182.64C150.429 182.64 149.579 182.43 148.898 182.01C148.217 181.59 147.703 180.993 147.358 180.218C147.022 179.443 146.854 178.533 146.854 177.488C146.854 176.48 147.036 175.593 147.4 174.828C147.773 174.053 148.319 173.451 149.038 173.022C149.757 172.583 150.629 172.364 151.656 172.364C152.711 172.364 153.63 172.56 154.414 172.952L153.91 174.016C153.602 173.876 153.257 173.75 152.874 173.638C152.501 173.526 152.09 173.47 151.642 173.47ZM162.56 178.734C162.56 179.975 162.242 180.937 161.608 181.618C160.982 182.299 160.133 182.64 159.06 182.64C158.397 182.64 157.804 182.491 157.282 182.192C156.768 181.884 156.362 181.441 156.064 180.862C155.765 180.274 155.616 179.565 155.616 178.734C155.616 177.493 155.924 176.536 156.54 175.864C157.165 175.192 158.019 174.856 159.102 174.856C159.774 174.856 160.371 175.01 160.894 175.318C161.416 175.617 161.822 176.055 162.112 176.634C162.41 177.203 162.56 177.903 162.56 178.734ZM156.89 178.734C156.89 179.621 157.062 180.325 157.408 180.848C157.762 181.361 158.322 181.618 159.088 181.618C159.844 181.618 160.399 181.361 160.754 180.848C161.108 180.325 161.286 179.621 161.286 178.734C161.286 177.847 161.108 177.152 160.754 176.648C160.399 176.144 159.839 175.892 159.074 175.892C158.308 175.892 157.753 176.144 157.408 176.648C157.062 177.152 156.89 177.847 156.89 178.734ZM168.124 174.856C169.02 174.856 169.697 175.075 170.154 175.514C170.612 175.953 170.84 176.653 170.84 177.614V182.5H169.622V177.698C169.622 176.494 169.062 175.892 167.942 175.892C167.112 175.892 166.538 176.125 166.22 176.592C165.903 177.059 165.744 177.731 165.744 178.608V182.5H164.512V174.996H165.506L165.688 176.018H165.758C166.001 175.626 166.337 175.337 166.766 175.15C167.196 174.954 167.648 174.856 168.124 174.856ZM175.673 181.632C175.859 181.632 176.051 181.618 176.247 181.59C176.443 181.562 176.601 181.525 176.723 181.478V182.416C176.592 182.481 176.405 182.533 176.163 182.57C175.92 182.617 175.687 182.64 175.463 182.64C175.071 182.64 174.707 182.575 174.371 182.444C174.044 182.304 173.778 182.066 173.573 181.73C173.367 181.394 173.265 180.923 173.265 180.316V175.948H172.201V175.36L173.279 174.87L173.769 173.274H174.497V174.996H176.667V175.948H174.497V180.288C174.497 180.745 174.604 181.086 174.819 181.31C175.043 181.525 175.327 181.632 175.673 181.632ZM181.067 174.87C181.982 174.87 182.658 175.071 183.097 175.472C183.536 175.873 183.755 176.513 183.755 177.39V182.5H182.859L182.621 181.436H182.565C182.238 181.847 181.893 182.15 181.529 182.346C181.165 182.542 180.67 182.64 180.045 182.64C179.364 182.64 178.799 182.463 178.351 182.108C177.903 181.744 177.679 181.179 177.679 180.414C177.679 179.667 177.973 179.093 178.561 178.692C179.149 178.281 180.054 178.057 181.277 178.02L182.551 177.978V177.53C182.551 176.905 182.416 176.471 182.145 176.228C181.874 175.985 181.492 175.864 180.997 175.864C180.605 175.864 180.232 175.925 179.877 176.046C179.522 176.158 179.191 176.289 178.883 176.438L178.505 175.514C178.832 175.337 179.219 175.187 179.667 175.066C180.115 174.935 180.582 174.87 181.067 174.87ZM182.537 178.832L181.431 178.874C180.498 178.911 179.849 179.061 179.485 179.322C179.13 179.583 178.953 179.952 178.953 180.428C178.953 180.848 179.079 181.156 179.331 181.352C179.592 181.548 179.924 181.646 180.325 181.646C180.95 181.646 181.473 181.473 181.893 181.128C182.322 180.773 182.537 180.232 182.537 179.504V178.832ZM189.083 182.64C188.411 182.64 187.818 182.505 187.305 182.234C186.791 181.963 186.385 181.543 186.087 180.974C185.797 180.405 185.653 179.677 185.653 178.79C185.653 177.866 185.802 177.115 186.101 176.536C186.409 175.957 186.829 175.533 187.361 175.262C187.893 174.991 188.495 174.856 189.167 174.856C189.54 174.856 189.904 174.898 190.259 174.982C190.623 175.057 190.917 175.15 191.141 175.262L190.763 176.284C190.539 176.2 190.277 176.121 189.979 176.046C189.68 175.971 189.4 175.934 189.139 175.934C187.664 175.934 186.927 176.881 186.927 178.776C186.927 179.681 187.104 180.377 187.459 180.862C187.823 181.338 188.359 181.576 189.069 181.576C189.47 181.576 189.829 181.534 190.147 181.45C190.464 181.366 190.753 181.263 191.015 181.142V182.234C190.763 182.365 190.483 182.463 190.175 182.528C189.876 182.603 189.512 182.64 189.083 182.64ZM195.305 181.632C195.492 181.632 195.683 181.618 195.879 181.59C196.075 181.562 196.234 181.525 196.355 181.478V182.416C196.225 182.481 196.038 182.533 195.795 182.57C195.553 182.617 195.319 182.64 195.095 182.64C194.703 182.64 194.339 182.575 194.003 182.444C193.677 182.304 193.411 182.066 193.205 181.73C193 181.394 192.897 180.923 192.897 180.316V175.948H191.833V175.36L192.911 174.87L193.401 173.274H194.129V174.996H196.299V175.948H194.129V180.288C194.129 180.745 194.237 181.086 194.451 181.31C194.675 181.525 194.96 181.632 195.305 181.632ZM202.744 180.428C202.744 181.156 202.473 181.707 201.932 182.08C201.391 182.453 200.663 182.64 199.748 182.64C199.225 182.64 198.773 182.598 198.39 182.514C198.017 182.43 197.685 182.313 197.396 182.164V181.044C197.695 181.193 198.054 181.333 198.474 181.464C198.903 181.585 199.337 181.646 199.776 181.646C200.401 181.646 200.854 181.548 201.134 181.352C201.414 181.147 201.554 180.876 201.554 180.54C201.554 180.353 201.503 180.185 201.4 180.036C201.297 179.887 201.111 179.737 200.84 179.588C200.579 179.439 200.201 179.271 199.706 179.084C199.221 178.897 198.805 178.711 198.46 178.524C198.115 178.337 197.849 178.113 197.662 177.852C197.475 177.591 197.382 177.255 197.382 176.844C197.382 176.209 197.639 175.719 198.152 175.374C198.675 175.029 199.356 174.856 200.196 174.856C200.653 174.856 201.078 174.903 201.47 174.996C201.871 175.089 202.245 175.211 202.59 175.36L202.17 176.34C201.853 176.209 201.521 176.097 201.176 176.004C200.831 175.911 200.476 175.864 200.112 175.864C199.608 175.864 199.221 175.948 198.95 176.116C198.689 176.275 198.558 176.494 198.558 176.774C198.558 176.989 198.619 177.166 198.74 177.306C198.861 177.446 199.062 177.586 199.342 177.726C199.631 177.866 200.014 178.025 200.49 178.202C200.966 178.379 201.372 178.561 201.708 178.748C202.044 178.935 202.301 179.163 202.478 179.434C202.655 179.695 202.744 180.027 202.744 180.428Z" fill="#323232"/>
<rect width="240" height="48" transform="translate(94 200)" fill="white"/>
<path d="M122 228.835C121.4 228.835 120.8 228.685 120.275 228.385C118.55 227.485 117.95 225.31 118.85 223.585C119.825 221.86 121.925 221.26 123.65 222.16C124.475 222.61 125.075 223.36 125.375 224.26C125.675 225.16 125.525 226.135 125.075 226.96C124.625 227.785 123.875 228.385 122.975 228.685C122.675 228.76 122.3 228.835 122 228.835ZM119.9 224.11C119.225 225.31 119.675 226.735 120.875 227.41C121.475 227.71 122.075 227.785 122.75 227.635C123.35 227.485 123.875 227.035 124.175 226.51C124.475 225.91 124.55 225.31 124.4 224.635C124.25 224.035 123.8 223.51 123.275 223.21C122 222.535 120.5 222.985 119.9 224.11Z" fill="#323232"/>
<path d="M118.175 234.835C117.725 234.835 117.35 234.76 116.975 234.535C116 234.01 115.475 232.885 115.7 231.76L116.15 229.735C116.225 229.435 116.15 229.06 116 228.835C115.85 228.535 115.55 228.385 115.25 228.31L113.6 227.935C112.325 227.635 111.5 226.66 111.5 225.46C111.5 224.335 112.25 223.285 113.3 222.985L115.175 222.385C115.475 222.31 115.775 222.085 115.925 221.785C116.075 221.485 116.075 221.185 116 220.885L115.475 219.235C115.1 218.11 115.55 216.91 116.6 216.31C117.575 215.71 118.85 215.86 119.675 216.61L121.175 217.96C121.4 218.185 121.7 218.335 122.075 218.26C122.375 218.26 122.675 218.11 122.9 217.885L124.025 216.61C124.85 215.71 126.125 215.485 127.1 216.085C128.075 216.61 128.6 217.81 128.375 218.86L127.925 220.81C127.85 221.11 127.925 221.485 128.075 221.71C128.225 222.01 128.525 222.16 128.825 222.235L130.475 222.61C131.6 222.835 132.425 223.885 132.5 225.01C132.5 226.135 131.825 227.185 130.7 227.485L128.75 228.16C128.45 228.235 128.15 228.46 128 228.76C127.85 229.06 127.85 229.36 127.925 229.735L128.45 231.385C128.825 232.51 128.375 233.71 127.325 234.31C126.35 234.91 125.075 234.76 124.25 234.01L122.825 232.66C122.675 232.36 122.375 232.285 122 232.285C121.7 232.285 121.4 232.435 121.175 232.66L120.05 233.935C119.525 234.535 118.85 234.835 118.175 234.835ZM117.875 217.06C117.65 217.06 117.35 217.135 117.125 217.285C116.6 217.585 116.375 218.26 116.525 218.935L117.05 220.51C117.275 221.11 117.2 221.785 116.9 222.31C116.6 222.91 116.15 223.285 115.55 223.51L113.6 224.035C113 224.185 112.55 224.785 112.625 225.385C112.625 226.06 113.075 226.585 113.75 226.735L115.4 227.11C116 227.26 116.525 227.635 116.9 228.16C117.275 228.685 117.35 229.36 117.2 229.96L116.75 231.985C116.6 232.585 116.9 233.26 117.425 233.56C118.025 233.86 118.7 233.785 119.15 233.26L120.275 231.985C120.725 231.535 121.25 231.235 121.925 231.235C122.6 231.235 123.2 231.46 123.65 231.835L125.075 233.185C125.525 233.635 126.2 233.71 126.8 233.335C127.4 232.96 127.625 232.285 127.4 231.685L126.95 230.035C126.725 229.435 126.8 228.76 127.1 228.235C127.4 227.71 127.85 227.26 128.525 227.11L130.475 226.51C131.075 226.36 131.45 225.76 131.45 225.16C131.45 224.485 131 223.96 130.325 223.81L128.675 223.435C128.075 223.285 127.55 222.91 127.175 222.385C126.8 221.86 126.725 221.185 126.875 220.585L127.25 218.635C127.4 218.035 127.1 217.36 126.575 217.06C125.975 216.76 125.3 216.835 124.85 217.36L123.725 218.635C123.275 219.085 122.75 219.385 122.075 219.385C121.4 219.385 120.875 219.16 120.35 218.785L118.85 217.435C118.55 217.21 118.25 217.06 117.875 217.06Z" fill="#323232"/>
<path d="M153.028 227.826C153.028 228.713 152.706 229.403 152.062 229.898C151.418 230.393 150.55 230.64 149.458 230.64C148.898 230.64 148.38 230.598 147.904 230.514C147.428 230.43 147.031 230.313 146.714 230.164V228.96C147.05 229.109 147.465 229.245 147.96 229.366C148.464 229.487 148.982 229.548 149.514 229.548C150.251 229.548 150.811 229.403 151.194 229.114C151.577 228.825 151.768 228.433 151.768 227.938C151.768 227.611 151.698 227.336 151.558 227.112C151.418 226.888 151.175 226.683 150.83 226.496C150.485 226.309 150.013 226.104 149.416 225.88C148.557 225.572 147.913 225.194 147.484 224.746C147.055 224.298 146.84 223.687 146.84 222.912C146.84 222.389 146.975 221.937 147.246 221.554C147.517 221.171 147.89 220.877 148.366 220.672C148.842 220.467 149.397 220.364 150.032 220.364C150.573 220.364 151.073 220.415 151.53 220.518C151.987 220.621 152.407 220.756 152.79 220.924L152.398 222.002C152.053 221.853 151.675 221.727 151.264 221.624C150.853 221.521 150.433 221.47 150.004 221.47C149.379 221.47 148.907 221.605 148.59 221.876C148.273 222.137 148.114 222.487 148.114 222.926C148.114 223.262 148.184 223.542 148.324 223.766C148.464 223.99 148.693 224.195 149.01 224.382C149.327 224.559 149.757 224.746 150.298 224.942C150.886 225.157 151.381 225.39 151.782 225.642C152.193 225.885 152.501 226.179 152.706 226.524C152.921 226.869 153.028 227.303 153.028 227.826ZM157.772 222.856C158.406 222.856 158.957 222.996 159.424 223.276C159.89 223.556 160.245 223.953 160.488 224.466C160.74 224.97 160.866 225.563 160.866 226.244V226.986H155.728C155.746 227.835 155.961 228.484 156.372 228.932C156.792 229.371 157.375 229.59 158.122 229.59C158.598 229.59 159.018 229.548 159.382 229.464C159.755 229.371 160.138 229.24 160.53 229.072V230.15C160.147 230.318 159.769 230.439 159.396 230.514C159.022 230.598 158.579 230.64 158.066 230.64C157.347 230.64 156.717 230.495 156.176 230.206C155.634 229.917 155.21 229.487 154.902 228.918C154.603 228.349 154.454 227.644 154.454 226.804C154.454 225.983 154.589 225.278 154.86 224.69C155.14 224.102 155.527 223.649 156.022 223.332C156.526 223.015 157.109 222.856 157.772 222.856ZM157.758 223.864C157.17 223.864 156.703 224.055 156.358 224.438C156.022 224.811 155.821 225.334 155.756 226.006H159.578C159.568 225.371 159.419 224.858 159.13 224.466C158.84 224.065 158.383 223.864 157.758 223.864ZM165.282 229.632C165.469 229.632 165.66 229.618 165.856 229.59C166.052 229.562 166.211 229.525 166.332 229.478V230.416C166.201 230.481 166.015 230.533 165.772 230.57C165.529 230.617 165.296 230.64 165.072 230.64C164.68 230.64 164.316 230.575 163.98 230.444C163.653 230.304 163.387 230.066 163.182 229.73C162.977 229.394 162.874 228.923 162.874 228.316V223.948H161.81V223.36L162.888 222.87L163.378 221.274H164.106V222.996H166.276V223.948H164.106V228.288C164.106 228.745 164.213 229.086 164.428 229.31C164.652 229.525 164.937 229.632 165.282 229.632ZM170.341 229.632C170.527 229.632 170.719 229.618 170.915 229.59C171.111 229.562 171.269 229.525 171.391 229.478V230.416C171.26 230.481 171.073 230.533 170.831 230.57C170.588 230.617 170.355 230.64 170.131 230.64C169.739 230.64 169.375 230.575 169.039 230.444C168.712 230.304 168.446 230.066 168.241 229.73C168.035 229.394 167.933 228.923 167.933 228.316V223.948H166.869V223.36L167.947 222.87L168.437 221.274H169.165V222.996H171.335V223.948H169.165V228.288C169.165 228.745 169.272 229.086 169.487 229.31C169.711 229.525 169.995 229.632 170.341 229.632ZM173.523 220.182C173.71 220.182 173.873 220.247 174.013 220.378C174.162 220.499 174.237 220.695 174.237 220.966C174.237 221.237 174.162 221.437 174.013 221.568C173.873 221.689 173.71 221.75 173.523 221.75C173.318 221.75 173.145 221.689 173.005 221.568C172.865 221.437 172.795 221.237 172.795 220.966C172.795 220.695 172.865 220.499 173.005 220.378C173.145 220.247 173.318 220.182 173.523 220.182ZM174.125 222.996V230.5H172.893V222.996H174.125ZM180.115 222.856C181.011 222.856 181.687 223.075 182.145 223.514C182.602 223.953 182.831 224.653 182.831 225.614V230.5H181.613V225.698C181.613 224.494 181.053 223.892 179.933 223.892C179.102 223.892 178.528 224.125 178.211 224.592C177.893 225.059 177.735 225.731 177.735 226.608V230.5H176.503V222.996H177.497L177.679 224.018H177.749C177.991 223.626 178.327 223.337 178.757 223.15C179.186 222.954 179.639 222.856 180.115 222.856ZM187.817 222.856C188.311 222.856 188.755 222.949 189.147 223.136C189.548 223.323 189.889 223.607 190.169 223.99H190.239L190.407 222.996H191.387V230.626C191.387 231.699 191.111 232.507 190.561 233.048C190.019 233.589 189.175 233.86 188.027 233.86C186.925 233.86 186.025 233.701 185.325 233.384V232.25C186.062 232.642 186.986 232.838 188.097 232.838C188.741 232.838 189.245 232.647 189.609 232.264C189.982 231.891 190.169 231.377 190.169 230.724V230.43C190.169 230.318 190.173 230.159 190.183 229.954C190.192 229.739 190.201 229.59 190.211 229.506H190.155C189.651 230.262 188.876 230.64 187.831 230.64C186.86 230.64 186.099 230.299 185.549 229.618C185.007 228.937 184.737 227.985 184.737 226.762C184.737 225.567 185.007 224.62 185.549 223.92C186.099 223.211 186.855 222.856 187.817 222.856ZM187.985 223.892C187.359 223.892 186.874 224.144 186.529 224.648C186.183 225.143 186.011 225.852 186.011 226.776C186.011 227.7 186.179 228.409 186.515 228.904C186.851 229.389 187.35 229.632 188.013 229.632C188.769 229.632 189.319 229.431 189.665 229.03C190.01 228.619 190.183 227.961 190.183 227.056V226.762C190.183 225.745 190.005 225.012 189.651 224.564C189.296 224.116 188.741 223.892 187.985 223.892ZM198.656 228.428C198.656 229.156 198.385 229.707 197.844 230.08C197.303 230.453 196.575 230.64 195.66 230.64C195.137 230.64 194.685 230.598 194.302 230.514C193.929 230.43 193.597 230.313 193.308 230.164V229.044C193.607 229.193 193.966 229.333 194.386 229.464C194.815 229.585 195.249 229.646 195.688 229.646C196.313 229.646 196.766 229.548 197.046 229.352C197.326 229.147 197.466 228.876 197.466 228.54C197.466 228.353 197.415 228.185 197.312 228.036C197.209 227.887 197.023 227.737 196.752 227.588C196.491 227.439 196.113 227.271 195.618 227.084C195.133 226.897 194.717 226.711 194.372 226.524C194.027 226.337 193.761 226.113 193.574 225.852C193.387 225.591 193.294 225.255 193.294 224.844C193.294 224.209 193.551 223.719 194.064 223.374C194.587 223.029 195.268 222.856 196.108 222.856C196.565 222.856 196.99 222.903 197.382 222.996C197.783 223.089 198.157 223.211 198.502 223.36L198.082 224.34C197.765 224.209 197.433 224.097 197.088 224.004C196.743 223.911 196.388 223.864 196.024 223.864C195.52 223.864 195.133 223.948 194.862 224.116C194.601 224.275 194.47 224.494 194.47 224.774C194.47 224.989 194.531 225.166 194.652 225.306C194.773 225.446 194.974 225.586 195.254 225.726C195.543 225.866 195.926 226.025 196.402 226.202C196.878 226.379 197.284 226.561 197.62 226.748C197.956 226.935 198.213 227.163 198.39 227.434C198.567 227.695 198.656 228.027 198.656 228.428Z" fill="#323232"/>
</g>
<rect x="94.5" y="40.5" width="239" height="207" stroke="#C9C9C9"/>
<defs>
<clipPath id="clip0_9474_627729">
<rect x="94" y="40" width="240" height="208" fill="white"/>
</clipPath>
</defs>
</svg>
