<svg width="904" height="576" viewBox="0 0 904 576" fill="none" xmlns="http://www.w3.org/2000/svg">
<g clip-path="url(#clip0_9076_611715)">
<rect width="56" height="480" transform="translate(668 48)" fill="white"/>
<rect width="56" height="48" transform="translate(668 48)" fill="white"/>
<path fill-rule="evenodd" clip-rule="evenodd" d="M689.226 65.629C687.792 65.629 686.629 66.7916 686.629 68.2258C686.629 69.66 687.792 70.8226 689.226 70.8226C690.66 70.8226 691.823 69.66 691.823 68.2258C691.823 66.7916 690.66 65.629 689.226 65.629ZM685.5 68.2258C685.5 66.1681 687.168 64.5 689.226 64.5C691.092 64.5 692.637 65.8715 692.909 67.6613H694.419C695.634 67.6613 696.565 68.5915 696.565 69.8065V77.0323C696.565 77.6237 696.989 78.0484 697.581 78.0484H699.091C699.363 76.2586 700.908 74.8871 702.774 74.8871C704.832 74.8871 706.5 76.5552 706.5 78.6129C706.5 80.6706 704.832 82.3387 702.774 82.3387C700.908 82.3387 699.363 80.9672 699.091 79.1774H697.581C696.366 79.1774 695.435 78.2473 695.435 77.0323V69.8065C695.435 69.215 695.011 68.7903 694.419 68.7903H692.909C692.637 70.5801 691.092 71.9516 689.226 71.9516C687.168 71.9516 685.5 70.2835 685.5 68.2258ZM702.774 76.0161C701.34 76.0161 700.177 77.1787 700.177 78.6129C700.177 80.0471 701.34 81.2097 702.774 81.2097C704.208 81.2097 705.371 80.0471 705.371 78.6129C705.371 77.1787 704.208 76.0161 702.774 76.0161Z" fill="#1B77AF"/>
<rect x="668" y="48" width="2" height="48" fill="#1B77AF"/>
<rect width="56" height="48" transform="translate(668 96)" fill="white"/>
<path d="M704.737 122.288H696.712V114.262C696.712 113.955 696.457 113.7 696.15 113.7C691.102 113.7 687 117.803 687 122.85C687 127.898 691.102 132 696.15 132C701.198 132 705.3 127.898 705.3 122.85C705.3 122.543 705.045 122.288 704.737 122.288ZM688.125 122.85C688.125 118.613 691.425 115.133 695.587 114.848V122.618L690.098 128.108C688.875 126.697 688.125 124.86 688.125 122.85ZM696.15 130.875C694.14 130.875 692.303 130.125 690.892 128.903L696.382 123.412H704.153C703.868 127.575 700.387 130.875 696.15 130.875Z" fill="#323232"/>
<path d="M699.03 120.825C699.338 120.825 699.593 120.57 699.593 120.263V114.262C699.593 113.955 699.338 113.7 699.03 113.7C698.723 113.7 698.467 113.955 698.467 114.262V120.263C698.467 120.57 698.723 120.825 699.03 120.825Z" fill="#323232"/>
<path d="M701.888 120.825C702.195 120.825 702.45 120.57 702.45 120.263V111.562C702.45 111.255 702.195 111 701.888 111C701.58 111 701.325 111.255 701.325 111.562V120.263C701.325 120.57 701.573 120.825 701.888 120.825Z" fill="#323232"/>
<path d="M704.737 115.965C704.43 115.965 704.175 116.22 704.175 116.528V120.255C704.175 120.562 704.43 120.818 704.737 120.818C705.045 120.818 705.3 120.562 705.3 120.255V116.535C705.3 116.22 705.045 115.965 704.737 115.965Z" fill="#323232"/>
<rect width="56" height="48" transform="translate(668 144)" fill="white"/>
<path fill-rule="evenodd" clip-rule="evenodd" d="M700.912 163.65C699.691 163.65 698.7 164.641 698.7 165.862C698.7 167.084 699.691 168.075 700.912 168.075C702.134 168.075 703.125 167.084 703.125 165.862C703.125 164.641 702.134 163.65 700.912 163.65ZM697.575 165.862C697.575 164.019 699.069 162.525 700.912 162.525C702.756 162.525 704.25 164.019 704.25 165.862C704.25 167.706 702.756 169.2 700.912 169.2C699.069 169.2 697.575 167.706 697.575 165.862Z" fill="#323232"/>
<path d="M698.434 171.852C699.131 171.413 699.962 171.15 700.837 171.15C703.371 171.15 705.375 173.218 705.375 175.688V176.437C705.375 176.748 705.627 177 705.937 177C706.248 177 706.5 176.748 706.5 176.437V175.687C706.5 172.607 704.003 170.025 700.837 170.025C699.71 170.025 698.648 170.37 697.765 170.945C698.01 171.23 698.234 171.533 698.434 171.852Z" fill="#323232"/>
<path fill-rule="evenodd" clip-rule="evenodd" d="M685.5 175.838C685.5 172.227 688.452 169.275 692.062 169.275C695.673 169.275 698.625 172.227 698.625 175.838V178.312C698.625 178.623 698.373 178.875 698.062 178.875C697.752 178.875 697.5 178.623 697.5 178.312V175.838C697.5 172.848 695.052 170.4 692.062 170.4C689.073 170.4 686.625 172.848 686.625 175.838V178.312C686.625 178.623 686.373 178.875 686.062 178.875C685.752 178.875 685.5 178.623 685.5 178.312V175.838Z" fill="#323232"/>
<path fill-rule="evenodd" clip-rule="evenodd" d="M692.062 161.625C690.551 161.625 689.325 162.851 689.325 164.363C689.325 165.874 690.551 167.1 692.062 167.1C693.574 167.1 694.8 165.874 694.8 164.363C694.8 162.851 693.574 161.625 692.062 161.625ZM688.2 164.363C688.2 162.229 689.929 160.5 692.062 160.5C694.196 160.5 695.925 162.229 695.925 164.363C695.925 166.496 694.196 168.225 692.062 168.225C689.929 168.225 688.2 166.496 688.2 164.363Z" fill="#323232"/>
<rect width="56" height="48" transform="translate(668 192)" fill="white"/>
<path d="M697.965 217.095C696.915 217.097 695.909 217.515 695.167 218.257C694.425 218.999 694.007 220.005 694.005 221.055V222.45C694.005 222.599 694.064 222.742 694.17 222.848C694.275 222.953 694.418 223.013 694.568 223.013H701.362C701.437 223.014 701.51 223 701.579 222.972C701.648 222.944 701.71 222.902 701.762 222.85C701.815 222.798 701.856 222.735 701.884 222.666C701.912 222.598 701.926 222.524 701.925 222.45V221.055C701.925 220.005 701.508 218.998 700.765 218.255C700.022 217.512 699.015 217.095 697.965 217.095ZM700.8 221.888H695.13V221.055C695.13 220.303 695.429 219.582 695.96 219.05C696.492 218.519 697.213 218.22 697.965 218.22C698.717 218.22 699.438 218.519 699.97 219.05C700.501 219.582 700.8 220.303 700.8 221.055V221.888Z" fill="#323232"/>
<path d="M703.688 207H688.358C688.208 207 688.065 207.059 687.96 207.165C687.854 207.27 687.795 207.413 687.795 207.562V210.705H686.062C685.913 210.705 685.77 210.764 685.665 210.87C685.559 210.975 685.5 211.118 685.5 211.267C685.5 211.417 685.559 211.56 685.665 211.665C685.77 211.771 685.913 211.83 686.062 211.83H687.795V214.83H686.062C685.913 214.83 685.77 214.889 685.665 214.995C685.559 215.1 685.5 215.243 685.5 215.392C685.5 215.542 685.559 215.685 685.665 215.79C685.77 215.896 685.913 215.955 686.062 215.955H687.795V218.955H686.062C685.913 218.955 685.77 219.014 685.665 219.12C685.559 219.225 685.5 219.368 685.5 219.517C685.5 219.667 685.559 219.81 685.665 219.915C685.77 220.021 685.913 220.08 686.062 220.08H687.795V223.08H686.062C685.913 223.08 685.77 223.139 685.665 223.245C685.559 223.35 685.5 223.493 685.5 223.642C685.5 223.792 685.559 223.935 685.665 224.04C685.77 224.146 685.913 224.205 686.062 224.205H687.795V227.347C687.795 227.497 687.854 227.64 687.96 227.745C688.065 227.851 688.208 227.91 688.358 227.91H703.688C704.418 227.91 705.12 227.626 705.645 227.118C706.17 226.61 706.477 225.918 706.5 225.188V209.812C706.5 209.067 706.204 208.351 705.676 207.824C705.149 207.296 704.433 207 703.688 207ZM705.375 225.188C705.375 225.635 705.197 226.064 704.881 226.381C704.564 226.697 704.135 226.875 703.688 226.875H688.92V224.295H690.608C690.757 224.295 690.9 224.236 691.005 224.13C691.111 224.025 691.17 223.882 691.17 223.733C691.17 223.583 691.111 223.44 691.005 223.335C690.9 223.229 690.757 223.17 690.608 223.17H688.92V220.17H690.608C690.757 220.17 690.9 220.111 691.005 220.005C691.111 219.9 691.17 219.757 691.17 219.608C691.17 219.458 691.111 219.315 691.005 219.21C690.9 219.104 690.757 219.045 690.608 219.045H688.92V216H690.608C690.757 216 690.9 215.941 691.005 215.835C691.111 215.73 691.17 215.587 691.17 215.438C691.17 215.288 691.111 215.145 691.005 215.04C690.9 214.934 690.757 214.875 690.608 214.875H688.92V211.875H690.608C690.757 211.875 690.9 211.816 691.005 211.71C691.111 211.605 691.17 211.462 691.17 211.312C691.17 211.163 691.111 211.02 691.005 210.915C690.9 210.809 690.757 210.75 690.608 210.75H688.92V208.125H703.688C704.135 208.125 704.564 208.303 704.881 208.619C705.197 208.936 705.375 209.365 705.375 209.812V225.188Z" fill="#323232"/>
<path d="M697.965 216.825C698.444 216.826 698.914 216.686 699.313 216.42C699.712 216.155 700.024 215.777 700.208 215.335C700.393 214.892 700.442 214.405 700.349 213.935C700.257 213.464 700.027 213.032 699.688 212.692C699.35 212.353 698.918 212.121 698.448 212.027C697.978 211.933 697.49 211.981 697.047 212.164C696.604 212.347 696.225 212.657 695.959 213.056C695.692 213.454 695.55 213.923 695.55 214.403C695.55 215.044 695.804 215.659 696.257 216.113C696.71 216.567 697.324 216.823 697.965 216.825ZM697.965 213.075C698.221 213.074 698.471 213.148 698.685 213.288C698.898 213.429 699.066 213.629 699.166 213.864C699.266 214.099 699.295 214.359 699.248 214.61C699.201 214.861 699.081 215.093 698.903 215.277C698.725 215.46 698.496 215.587 698.246 215.641C697.996 215.695 697.736 215.674 697.498 215.58C697.26 215.487 697.055 215.325 696.909 215.116C696.762 214.906 696.681 214.658 696.675 214.403C696.675 214.06 696.811 213.731 697.052 213.488C697.294 213.245 697.622 213.107 697.965 213.105V213.075Z" fill="#323232"/>
<rect width="56" height="48" transform="translate(668 240)" fill="white"/>
<path d="M696 268.835C695.4 268.835 694.8 268.685 694.275 268.385C692.55 267.485 691.95 265.31 692.85 263.585C693.825 261.86 695.925 261.26 697.65 262.16C698.475 262.61 699.075 263.36 699.375 264.26C699.675 265.16 699.525 266.135 699.075 266.96C698.625 267.785 697.875 268.385 696.975 268.685C696.675 268.76 696.3 268.835 696 268.835ZM693.9 264.11C693.225 265.31 693.675 266.735 694.875 267.41C695.475 267.71 696.075 267.785 696.75 267.635C697.35 267.485 697.875 267.035 698.175 266.51C698.475 265.91 698.55 265.31 698.4 264.635C698.25 264.035 697.8 263.51 697.275 263.21C696 262.535 694.5 262.985 693.9 264.11Z" fill="#323232"/>
<path d="M692.175 274.835C691.725 274.835 691.35 274.76 690.975 274.535C690 274.01 689.475 272.885 689.7 271.76L690.15 269.735C690.225 269.435 690.15 269.06 690 268.835C689.85 268.535 689.55 268.385 689.25 268.31L687.6 267.935C686.325 267.635 685.5 266.66 685.5 265.46C685.5 264.335 686.25 263.285 687.3 262.985L689.175 262.385C689.475 262.31 689.775 262.085 689.925 261.785C690.075 261.485 690.075 261.185 690 260.885L689.475 259.235C689.1 258.11 689.55 256.91 690.6 256.31C691.575 255.71 692.85 255.86 693.675 256.61L695.175 257.96C695.4 258.185 695.7 258.335 696.075 258.26C696.375 258.26 696.675 258.11 696.9 257.885L698.025 256.61C698.85 255.71 700.125 255.485 701.1 256.085C702.075 256.61 702.6 257.81 702.375 258.86L701.925 260.81C701.85 261.11 701.925 261.485 702.075 261.71C702.225 262.01 702.525 262.16 702.825 262.235L704.475 262.61C705.6 262.835 706.425 263.885 706.5 265.01C706.5 266.135 705.825 267.185 704.7 267.485L702.75 268.16C702.45 268.235 702.15 268.46 702 268.76C701.85 269.06 701.85 269.36 701.925 269.735L702.45 271.385C702.825 272.51 702.375 273.71 701.325 274.31C700.35 274.91 699.075 274.76 698.25 274.01L696.825 272.66C696.675 272.36 696.375 272.285 696 272.285C695.7 272.285 695.4 272.435 695.175 272.66L694.05 273.935C693.525 274.535 692.85 274.835 692.175 274.835ZM691.875 257.06C691.65 257.06 691.35 257.135 691.125 257.285C690.6 257.585 690.375 258.26 690.525 258.935L691.05 260.51C691.275 261.11 691.2 261.785 690.9 262.31C690.6 262.91 690.15 263.285 689.55 263.51L687.6 264.035C687 264.185 686.55 264.785 686.625 265.385C686.625 266.06 687.075 266.585 687.75 266.735L689.4 267.11C690 267.26 690.525 267.635 690.9 268.16C691.275 268.685 691.35 269.36 691.2 269.96L690.75 271.985C690.6 272.585 690.9 273.26 691.425 273.56C692.025 273.86 692.7 273.785 693.15 273.26L694.275 271.985C694.725 271.535 695.25 271.235 695.925 271.235C696.6 271.235 697.2 271.46 697.65 271.835L699.075 273.185C699.525 273.635 700.2 273.71 700.8 273.335C701.4 272.96 701.625 272.285 701.4 271.685L700.95 270.035C700.725 269.435 700.8 268.76 701.1 268.235C701.4 267.71 701.85 267.26 702.525 267.11L704.475 266.51C705.075 266.36 705.45 265.76 705.45 265.16C705.45 264.485 705 263.96 704.325 263.81L702.675 263.435C702.075 263.285 701.55 262.91 701.175 262.385C700.8 261.86 700.725 261.185 700.875 260.585L701.25 258.635C701.4 258.035 701.1 257.36 700.575 257.06C699.975 256.76 699.3 256.835 698.85 257.36L697.725 258.635C697.275 259.085 696.75 259.385 696.075 259.385C695.4 259.385 694.875 259.16 694.35 258.785L692.85 257.435C692.55 257.21 692.25 257.06 691.875 257.06Z" fill="#323232"/>
<rect width="56" height="48" transform="translate(668 480)" fill="white"/>
<path d="M702.844 495.75C702.544 495.75 702.244 495.975 702.244 496.35V514.2C702.244 514.5 702.469 514.8 702.844 514.8C703.219 514.8 703.444 514.575 703.444 514.2V496.35C703.369 495.975 703.144 495.75 702.844 495.75Z" fill="#323232"/>
<path d="M689.494 496.425C689.269 496.2 688.894 496.2 688.669 496.425C688.444 496.65 688.444 497.025 688.669 497.25L696.694 505.275L688.669 513.225C688.444 513.45 688.444 513.825 688.669 514.05C688.744 514.125 688.894 514.2 689.044 514.2C689.194 514.2 689.344 514.125 689.419 514.05L697.819 505.65C697.894 505.575 697.969 505.425 697.969 505.275C697.969 505.125 697.894 504.975 697.819 504.9L689.494 496.425Z" fill="#323232"/>
</g>
<rect width="240" height="480" transform="translate(228 48)" fill="white"/>
<rect width="240" height="348" transform="translate(228 48)" fill="white"/>
<rect width="240" height="48" transform="translate(228 48)" fill="white"/>
<path fill-rule="evenodd" clip-rule="evenodd" d="M249.226 65.629C247.792 65.629 246.629 66.7916 246.629 68.2258C246.629 69.66 247.792 70.8226 249.226 70.8226C250.66 70.8226 251.823 69.66 251.823 68.2258C251.823 66.7916 250.66 65.629 249.226 65.629ZM245.5 68.2258C245.5 66.1681 247.168 64.5 249.226 64.5C251.092 64.5 252.637 65.8715 252.909 67.6613H254.419C255.634 67.6613 256.565 68.5915 256.565 69.8065V77.0323C256.565 77.6237 256.989 78.0484 257.581 78.0484H259.091C259.363 76.2586 260.908 74.8871 262.774 74.8871C264.832 74.8871 266.5 76.5552 266.5 78.6129C266.5 80.6706 264.832 82.3387 262.774 82.3387C260.908 82.3387 259.363 80.9672 259.091 79.1774H257.581C256.366 79.1774 255.435 78.2473 255.435 77.0323V69.8065C255.435 69.215 255.011 68.7903 254.419 68.7903H252.909C252.637 70.5801 251.092 71.9516 249.226 71.9516C247.168 71.9516 245.5 70.2835 245.5 68.2258ZM262.774 76.0161C261.34 76.0161 260.177 77.1787 260.177 78.6129C260.177 80.0471 261.34 81.2097 262.774 81.2097C264.208 81.2097 265.371 80.0471 265.371 78.6129C265.371 77.1787 264.208 76.0161 262.774 76.0161Z" fill="#1B77AF"/>
<path d="M287.476 78.5L286.566 75.854H282.8L281.904 78.5H280L283.668 68.462H285.712L289.38 78.5H287.476ZM286.104 74.314L285.236 71.738C285.199 71.6167 285.143 71.444 285.068 71.22C284.993 70.9867 284.923 70.7533 284.858 70.52C284.793 70.2773 284.737 70.0767 284.69 69.918C284.643 70.114 284.583 70.3333 284.508 70.576C284.443 70.8187 284.377 71.0473 284.312 71.262C284.256 71.4767 284.209 71.6353 284.172 71.738L283.29 74.314H286.104ZM293.593 78.64C292.51 78.64 291.651 78.3273 291.017 77.702C290.391 77.0767 290.079 76.092 290.079 74.748C290.079 73.8147 290.233 73.0587 290.541 72.48C290.858 71.892 291.292 71.4627 291.843 71.192C292.393 70.912 293.023 70.772 293.733 70.772C294.199 70.772 294.619 70.8187 294.993 70.912C295.375 71.0053 295.697 71.1173 295.959 71.248L295.441 72.634C295.142 72.522 294.848 72.4287 294.559 72.354C294.269 72.27 293.994 72.228 293.733 72.228C292.501 72.228 291.885 73.0633 291.885 74.734C291.885 75.546 292.039 76.1573 292.347 76.568C292.664 76.9787 293.117 77.184 293.705 77.184C294.125 77.184 294.498 77.1327 294.825 77.03C295.161 76.9273 295.473 76.7873 295.763 76.61V78.136C295.473 78.3133 295.161 78.4393 294.825 78.514C294.489 78.598 294.078 78.64 293.593 78.64ZM300.606 78.64C299.524 78.64 298.665 78.3273 298.03 77.702C297.405 77.0767 297.092 76.092 297.092 74.748C297.092 73.8147 297.246 73.0587 297.554 72.48C297.872 71.892 298.306 71.4627 298.856 71.192C299.407 70.912 300.037 70.772 300.746 70.772C301.213 70.772 301.633 70.8187 302.006 70.912C302.389 71.0053 302.711 71.1173 302.972 71.248L302.454 72.634C302.156 72.522 301.862 72.4287 301.572 72.354C301.283 72.27 301.008 72.228 300.746 72.228C299.514 72.228 298.898 73.0633 298.898 74.734C298.898 75.546 299.052 76.1573 299.36 76.568C299.678 76.9787 300.13 77.184 300.718 77.184C301.138 77.184 301.512 77.1327 301.838 77.03C302.174 76.9273 302.487 76.7873 302.776 76.61V78.136C302.487 78.3133 302.174 78.4393 301.838 78.514C301.502 78.598 301.092 78.64 300.606 78.64ZM311.33 74.692C311.33 75.952 311.003 76.9273 310.35 77.618C309.697 78.2993 308.81 78.64 307.69 78.64C306.999 78.64 306.383 78.486 305.842 78.178C305.301 77.87 304.876 77.422 304.568 76.834C304.26 76.246 304.106 75.532 304.106 74.692C304.106 73.432 304.428 72.466 305.072 71.794C305.725 71.1127 306.612 70.772 307.732 70.772C308.432 70.772 309.053 70.926 309.594 71.234C310.135 71.5327 310.56 71.976 310.868 72.564C311.176 73.1427 311.33 73.852 311.33 74.692ZM305.912 74.692C305.912 75.4947 306.052 76.1153 306.332 76.554C306.621 76.9927 307.083 77.212 307.718 77.212C308.343 77.212 308.801 76.9927 309.09 76.554C309.379 76.1153 309.524 75.4947 309.524 74.692C309.524 73.8893 309.379 73.2733 309.09 72.844C308.801 72.4147 308.339 72.2 307.704 72.2C307.069 72.2 306.612 72.4147 306.332 72.844C306.052 73.2733 305.912 73.8893 305.912 74.692ZM319.888 70.912V78.5H318.502L318.264 77.52H318.18C317.937 77.912 317.601 78.1967 317.172 78.374C316.742 78.5513 316.29 78.64 315.814 78.64C314.964 78.64 314.297 78.4207 313.812 77.982C313.336 77.5433 313.098 76.8387 313.098 75.868V70.912H314.862V75.518C314.862 76.0873 314.974 76.512 315.198 76.792C315.422 77.072 315.776 77.212 316.262 77.212C316.971 77.212 317.456 76.988 317.718 76.54C317.988 76.092 318.124 75.4527 318.124 74.622V70.912H319.888ZM326.196 70.772C327.045 70.772 327.708 70.9913 328.184 71.43C328.669 71.8687 328.912 72.578 328.912 73.558V78.5H327.148V73.908C327.148 73.3387 327.036 72.914 326.812 72.634C326.588 72.3447 326.233 72.2 325.748 72.2C325.039 72.2 324.553 72.424 324.292 72.872C324.031 73.32 323.9 73.9593 323.9 74.79V78.5H322.136V70.912H323.494L323.746 71.906H323.844C324.087 71.514 324.418 71.2293 324.838 71.052C325.267 70.8653 325.72 70.772 326.196 70.772ZM334.058 77.226C334.273 77.226 334.483 77.2073 334.688 77.17C334.903 77.1233 335.099 77.072 335.276 77.016V78.332C335.09 78.4253 334.847 78.5 334.548 78.556C334.25 78.612 333.937 78.64 333.61 78.64C333.172 78.64 332.775 78.57 332.42 78.43C332.075 78.29 331.8 78.0427 331.594 77.688C331.389 77.3333 331.286 76.834 331.286 76.19V72.242H330.264V71.472L331.384 70.856L331.944 69.246H333.05V70.912H335.206V72.242H333.05V76.176C333.05 76.5307 333.144 76.7967 333.33 76.974C333.526 77.142 333.769 77.226 334.058 77.226ZM341.972 76.302C341.972 77.0673 341.697 77.6507 341.146 78.052C340.605 78.444 339.825 78.64 338.808 78.64C338.276 78.64 337.819 78.6027 337.436 78.528C337.063 78.4533 336.699 78.3367 336.344 78.178V76.68C336.717 76.8573 337.128 77.0067 337.576 77.128C338.033 77.2493 338.463 77.31 338.864 77.31C339.349 77.31 339.699 77.2353 339.914 77.086C340.129 76.9367 340.236 76.736 340.236 76.484C340.236 76.3347 340.194 76.204 340.11 76.092C340.026 75.9707 339.863 75.84 339.62 75.7C339.377 75.56 339.009 75.3873 338.514 75.182C338.029 74.986 337.623 74.79 337.296 74.594C336.979 74.398 336.736 74.1647 336.568 73.894C336.409 73.6233 336.33 73.2733 336.33 72.844C336.33 72.1627 336.601 71.6493 337.142 71.304C337.683 70.9493 338.397 70.772 339.284 70.772C339.751 70.772 340.189 70.8187 340.6 70.912C341.02 71.0053 341.44 71.1453 341.86 71.332L341.3 72.634C340.945 72.4847 340.6 72.3587 340.264 72.256C339.928 72.1533 339.583 72.102 339.228 72.102C338.453 72.102 338.066 72.3213 338.066 72.76C338.066 72.9187 338.113 73.054 338.206 73.166C338.309 73.278 338.481 73.3993 338.724 73.53C338.976 73.6513 339.331 73.8007 339.788 73.978C340.236 74.1553 340.623 74.342 340.95 74.538C341.277 74.7247 341.529 74.958 341.706 75.238C341.883 75.5087 341.972 75.8633 341.972 76.302Z" fill="#1B77AF"/>
<path d="M444.012 75.3625C443.912 75.3625 443.812 75.3125 443.762 75.2625L438.113 69.6625C437.962 69.5125 437.962 69.2625 438.113 69.1125C438.263 68.9625 438.512 68.9625 438.662 69.1125L444.012 74.4625L449.312 69.1125C449.462 68.9625 449.713 68.9625 449.863 69.1125C450.012 69.2625 450.012 69.5125 449.863 69.6625L444.262 75.2625C444.162 75.3125 444.112 75.3625 444.012 75.3625Z" fill="black"/>
<rect x="228" y="48" width="2" height="48" fill="#1B77AF"/>
<rect width="240" height="36" transform="translate(228 96)" fill="white"/>
<path d="M307.63 119L306.426 115.906H302.464L301.274 119H300L303.906 108.962H305.04L308.932 119H307.63ZM306.048 114.786L304.928 111.762C304.9 111.687 304.853 111.552 304.788 111.356C304.723 111.16 304.657 110.959 304.592 110.754C304.536 110.539 304.489 110.376 304.452 110.264C304.377 110.553 304.298 110.838 304.214 111.118C304.139 111.389 304.074 111.603 304.018 111.762L302.884 114.786H306.048ZM313.141 119.14C312.469 119.14 311.877 119.005 311.363 118.734C310.85 118.463 310.444 118.043 310.145 117.474C309.856 116.905 309.711 116.177 309.711 115.29C309.711 114.366 309.861 113.615 310.159 113.036C310.467 112.457 310.887 112.033 311.419 111.762C311.951 111.491 312.553 111.356 313.225 111.356C313.599 111.356 313.963 111.398 314.317 111.482C314.681 111.557 314.975 111.65 315.199 111.762L314.821 112.784C314.597 112.7 314.336 112.621 314.037 112.546C313.739 112.471 313.459 112.434 313.197 112.434C311.723 112.434 310.985 113.381 310.985 115.276C310.985 116.181 311.163 116.877 311.517 117.362C311.881 117.838 312.418 118.076 313.127 118.076C313.529 118.076 313.888 118.034 314.205 117.95C314.523 117.866 314.812 117.763 315.073 117.642V118.734C314.821 118.865 314.541 118.963 314.233 119.028C313.935 119.103 313.571 119.14 313.141 119.14ZM319.868 119.14C319.196 119.14 318.603 119.005 318.09 118.734C317.577 118.463 317.171 118.043 316.872 117.474C316.583 116.905 316.438 116.177 316.438 115.29C316.438 114.366 316.587 113.615 316.886 113.036C317.194 112.457 317.614 112.033 318.146 111.762C318.678 111.491 319.28 111.356 319.952 111.356C320.325 111.356 320.689 111.398 321.044 111.482C321.408 111.557 321.702 111.65 321.926 111.762L321.548 112.784C321.324 112.7 321.063 112.621 320.764 112.546C320.465 112.471 320.185 112.434 319.924 112.434C318.449 112.434 317.712 113.381 317.712 115.276C317.712 116.181 317.889 116.877 318.244 117.362C318.608 117.838 319.145 118.076 319.854 118.076C320.255 118.076 320.615 118.034 320.932 117.95C321.249 117.866 321.539 117.763 321.8 117.642V118.734C321.548 118.865 321.268 118.963 320.96 119.028C320.661 119.103 320.297 119.14 319.868 119.14ZM330.109 115.234C330.109 116.475 329.791 117.437 329.157 118.118C328.531 118.799 327.682 119.14 326.609 119.14C325.946 119.14 325.353 118.991 324.831 118.692C324.317 118.384 323.911 117.941 323.613 117.362C323.314 116.774 323.165 116.065 323.165 115.234C323.165 113.993 323.473 113.036 324.089 112.364C324.714 111.692 325.568 111.356 326.651 111.356C327.323 111.356 327.92 111.51 328.443 111.818C328.965 112.117 329.371 112.555 329.661 113.134C329.959 113.703 330.109 114.403 330.109 115.234ZM324.439 115.234C324.439 116.121 324.611 116.825 324.957 117.348C325.311 117.861 325.871 118.118 326.637 118.118C327.393 118.118 327.948 117.861 328.303 117.348C328.657 116.825 328.835 116.121 328.835 115.234C328.835 114.347 328.657 113.652 328.303 113.148C327.948 112.644 327.388 112.392 326.623 112.392C325.857 112.392 325.302 112.644 324.957 113.148C324.611 113.652 324.439 114.347 324.439 115.234ZM338.333 111.496V119H337.325L337.143 118.006H337.087C336.844 118.398 336.508 118.687 336.079 118.874C335.65 119.051 335.192 119.14 334.707 119.14C333.802 119.14 333.12 118.925 332.663 118.496C332.206 118.057 331.977 117.362 331.977 116.41V111.496H333.223V116.326C333.223 117.521 333.778 118.118 334.889 118.118C335.72 118.118 336.294 117.885 336.611 117.418C336.938 116.951 337.101 116.279 337.101 115.402V111.496H338.333ZM344.327 111.356C345.223 111.356 345.9 111.575 346.357 112.014C346.815 112.453 347.043 113.153 347.043 114.114V119H345.825V114.198C345.825 112.994 345.265 112.392 344.145 112.392C343.315 112.392 342.741 112.625 342.423 113.092C342.106 113.559 341.947 114.231 341.947 115.108V119H340.715V111.496H341.709L341.891 112.518H341.961C342.204 112.126 342.54 111.837 342.969 111.65C343.399 111.454 343.851 111.356 344.327 111.356ZM351.876 118.132C352.062 118.132 352.254 118.118 352.45 118.09C352.646 118.062 352.804 118.025 352.926 117.978V118.916C352.795 118.981 352.608 119.033 352.366 119.07C352.123 119.117 351.89 119.14 351.666 119.14C351.274 119.14 350.91 119.075 350.574 118.944C350.247 118.804 349.981 118.566 349.776 118.23C349.57 117.894 349.468 117.423 349.468 116.816V112.448H348.404V111.86L349.482 111.37L349.972 109.774H350.7V111.496H352.87V112.448H350.7V116.788C350.7 117.245 350.807 117.586 351.022 117.81C351.246 118.025 351.53 118.132 351.876 118.132Z" fill="#323232"/>
<rect width="240" height="36" transform="translate(228 132)" fill="white"/>
<circle cx="284" cy="150" r="4" fill="#1B77AF"/>
<path d="M301.302 145.004H304.312C305.609 145.004 306.589 145.191 307.252 145.564C307.924 145.937 308.26 146.586 308.26 147.51C308.26 148.089 308.115 148.574 307.826 148.966C307.537 149.349 307.121 149.591 306.58 149.694V149.764C306.944 149.839 307.271 149.96 307.56 150.128C307.859 150.296 308.097 150.543 308.274 150.87C308.451 151.187 308.54 151.607 308.54 152.13C308.54 153.035 308.218 153.74 307.574 154.244C306.93 154.748 306.057 155 304.956 155H301.302V145.004ZM303.094 149.078H304.55C305.259 149.078 305.745 148.966 306.006 148.742C306.277 148.509 306.412 148.177 306.412 147.748C306.412 147.3 306.249 146.978 305.922 146.782C305.605 146.586 305.101 146.488 304.41 146.488H303.094V149.078ZM303.094 150.52V153.502H304.718C305.446 153.502 305.95 153.362 306.23 153.082C306.519 152.793 306.664 152.419 306.664 151.962C306.664 151.523 306.515 151.173 306.216 150.912C305.927 150.651 305.399 150.52 304.634 150.52H303.094ZM317.165 147.412V155H315.779L315.541 154.02H315.457C315.214 154.412 314.878 154.697 314.449 154.874C314.02 155.051 313.567 155.14 313.091 155.14C312.242 155.14 311.574 154.921 311.089 154.482C310.613 154.043 310.375 153.339 310.375 152.368V147.412H312.139V152.018C312.139 152.587 312.251 153.012 312.475 153.292C312.699 153.572 313.054 153.712 313.539 153.712C314.248 153.712 314.734 153.488 314.995 153.04C315.266 152.592 315.401 151.953 315.401 151.122V147.412H317.165ZM324.579 152.802C324.579 153.567 324.304 154.151 323.753 154.552C323.212 154.944 322.433 155.14 321.415 155.14C320.883 155.14 320.426 155.103 320.043 155.028C319.67 154.953 319.306 154.837 318.951 154.678V153.18C319.325 153.357 319.735 153.507 320.183 153.628C320.641 153.749 321.07 153.81 321.471 153.81C321.957 153.81 322.307 153.735 322.521 153.586C322.736 153.437 322.843 153.236 322.843 152.984C322.843 152.835 322.801 152.704 322.717 152.592C322.633 152.471 322.47 152.34 322.227 152.2C321.985 152.06 321.616 151.887 321.121 151.682C320.636 151.486 320.23 151.29 319.903 151.094C319.586 150.898 319.343 150.665 319.175 150.394C319.017 150.123 318.937 149.773 318.937 149.344C318.937 148.663 319.208 148.149 319.749 147.804C320.291 147.449 321.005 147.272 321.891 147.272C322.358 147.272 322.797 147.319 323.207 147.412C323.627 147.505 324.047 147.645 324.467 147.832L323.907 149.134C323.553 148.985 323.207 148.859 322.871 148.756C322.535 148.653 322.19 148.602 321.835 148.602C321.061 148.602 320.673 148.821 320.673 149.26C320.673 149.419 320.72 149.554 320.813 149.666C320.916 149.778 321.089 149.899 321.331 150.03C321.583 150.151 321.938 150.301 322.395 150.478C322.843 150.655 323.231 150.842 323.557 151.038C323.884 151.225 324.136 151.458 324.313 151.738C324.491 152.009 324.579 152.363 324.579 152.802ZM327.159 144.486C327.42 144.486 327.649 144.556 327.845 144.696C328.041 144.827 328.139 145.065 328.139 145.41C328.139 145.755 328.041 145.998 327.845 146.138C327.649 146.278 327.42 146.348 327.159 146.348C326.888 146.348 326.655 146.278 326.459 146.138C326.272 145.998 326.179 145.755 326.179 145.41C326.179 145.065 326.272 144.827 326.459 144.696C326.655 144.556 326.888 144.486 327.159 144.486ZM328.041 147.412V155H326.277V147.412H328.041ZM334.356 147.272C335.205 147.272 335.868 147.491 336.344 147.93C336.829 148.369 337.072 149.078 337.072 150.058V155H335.308V150.408C335.308 149.839 335.196 149.414 334.972 149.134C334.748 148.845 334.393 148.7 333.908 148.7C333.199 148.7 332.713 148.924 332.452 149.372C332.191 149.82 332.06 150.459 332.06 151.29V155H330.296V147.412H331.654L331.906 148.406H332.004C332.247 148.014 332.578 147.729 332.998 147.552C333.427 147.365 333.88 147.272 334.356 147.272ZM342.331 147.272C343.348 147.272 344.151 147.575 344.739 148.182C345.336 148.789 345.635 149.633 345.635 150.716V151.612H340.623C340.641 152.303 340.833 152.839 341.197 153.222C341.561 153.595 342.065 153.782 342.709 153.782C343.194 153.782 343.633 153.735 344.025 153.642C344.417 153.539 344.818 153.395 345.229 153.208V154.622C344.855 154.799 344.468 154.93 344.067 155.014C343.665 155.098 343.185 155.14 342.625 155.14C341.878 155.14 341.22 155 340.651 154.72C340.081 154.431 339.633 154.001 339.307 153.432C338.989 152.853 338.831 152.13 338.831 151.262C338.831 149.965 339.148 148.975 339.783 148.294C340.427 147.613 341.276 147.272 342.331 147.272ZM342.331 148.574C341.855 148.574 341.467 148.728 341.169 149.036C340.879 149.335 340.711 149.783 340.665 150.38H343.927C343.917 149.857 343.782 149.428 343.521 149.092C343.269 148.747 342.872 148.574 342.331 148.574ZM352.579 152.802C352.579 153.567 352.304 154.151 351.753 154.552C351.212 154.944 350.433 155.14 349.415 155.14C348.883 155.14 348.426 155.103 348.043 155.028C347.67 154.953 347.306 154.837 346.951 154.678V153.18C347.325 153.357 347.735 153.507 348.183 153.628C348.641 153.749 349.07 153.81 349.471 153.81C349.957 153.81 350.307 153.735 350.521 153.586C350.736 153.437 350.843 153.236 350.843 152.984C350.843 152.835 350.801 152.704 350.717 152.592C350.633 152.471 350.47 152.34 350.227 152.2C349.985 152.06 349.616 151.887 349.121 151.682C348.636 151.486 348.23 151.29 347.903 151.094C347.586 150.898 347.343 150.665 347.175 150.394C347.017 150.123 346.937 149.773 346.937 149.344C346.937 148.663 347.208 148.149 347.749 147.804C348.291 147.449 349.005 147.272 349.891 147.272C350.358 147.272 350.797 147.319 351.207 147.412C351.627 147.505 352.047 147.645 352.467 147.832L351.907 149.134C351.553 148.985 351.207 148.859 350.871 148.756C350.535 148.653 350.19 148.602 349.835 148.602C349.061 148.602 348.673 148.821 348.673 149.26C348.673 149.419 348.72 149.554 348.813 149.666C348.916 149.778 349.089 149.899 349.331 150.03C349.583 150.151 349.938 150.301 350.395 150.478C350.843 150.655 351.231 150.842 351.557 151.038C351.884 151.225 352.136 151.458 352.313 151.738C352.491 152.009 352.579 152.363 352.579 152.802ZM359.443 152.802C359.443 153.567 359.167 154.151 358.617 154.552C358.075 154.944 357.296 155.14 356.279 155.14C355.747 155.14 355.289 155.103 354.907 155.028C354.533 154.953 354.169 154.837 353.815 154.678V153.18C354.188 153.357 354.599 153.507 355.047 153.628C355.504 153.749 355.933 153.81 356.335 153.81C356.82 153.81 357.17 153.735 357.385 153.586C357.599 153.437 357.707 153.236 357.707 152.984C357.707 152.835 357.665 152.704 357.581 152.592C357.497 152.471 357.333 152.34 357.091 152.2C356.848 152.06 356.479 151.887 355.985 151.682C355.499 151.486 355.093 151.29 354.767 151.094C354.449 150.898 354.207 150.665 354.039 150.394C353.88 150.123 353.801 149.773 353.801 149.344C353.801 148.663 354.071 148.149 354.613 147.804C355.154 147.449 355.868 147.272 356.755 147.272C357.221 147.272 357.66 147.319 358.071 147.412C358.491 147.505 358.911 147.645 359.331 147.832L358.771 149.134C358.416 148.985 358.071 148.859 357.735 148.756C357.399 148.653 357.053 148.602 356.699 148.602C355.924 148.602 355.537 148.821 355.537 149.26C355.537 149.419 355.583 149.554 355.677 149.666C355.779 149.778 355.952 149.899 356.195 150.03C356.447 150.151 356.801 150.301 357.259 150.478C357.707 150.655 358.094 150.842 358.421 151.038C358.747 151.225 358.999 151.458 359.177 151.738C359.354 152.009 359.443 152.363 359.443 152.802ZM367.787 145.004C369.103 145.004 370.073 145.247 370.699 145.732C371.333 146.217 371.651 146.955 371.651 147.944C371.651 148.429 371.557 148.845 371.371 149.19C371.193 149.535 370.955 149.825 370.657 150.058C370.367 150.282 370.059 150.464 369.733 150.604L372.603 155H370.587L368.193 151.052H366.737V155H364.945V145.004H367.787ZM367.675 146.502H366.737V149.582H367.731C368.477 149.582 369.014 149.451 369.341 149.19C369.667 148.919 369.831 148.523 369.831 148C369.831 147.459 369.653 147.076 369.299 146.852C368.953 146.619 368.412 146.502 367.675 146.502ZM380.561 147.412V155H379.175L378.937 154.02H378.853C378.611 154.412 378.275 154.697 377.845 154.874C377.416 155.051 376.963 155.14 376.487 155.14C375.638 155.14 374.971 154.921 374.485 154.482C374.009 154.043 373.771 153.339 373.771 152.368V147.412H375.535V152.018C375.535 152.587 375.647 153.012 375.871 153.292C376.095 153.572 376.45 153.712 376.935 153.712C377.645 153.712 378.13 153.488 378.391 153.04C378.662 152.592 378.797 151.953 378.797 151.122V147.412H380.561ZM384.574 155H382.81V144.36H384.574V155ZM389.881 147.272C390.899 147.272 391.701 147.575 392.289 148.182C392.887 148.789 393.185 149.633 393.185 150.716V151.612H388.173C388.192 152.303 388.383 152.839 388.747 153.222C389.111 153.595 389.615 153.782 390.259 153.782C390.745 153.782 391.183 153.735 391.575 153.642C391.967 153.539 392.369 153.395 392.779 153.208V154.622C392.406 154.799 392.019 154.93 391.617 155.014C391.216 155.098 390.735 155.14 390.175 155.14C389.429 155.14 388.771 155 388.201 154.72C387.632 154.431 387.184 154.001 386.857 153.432C386.54 152.853 386.381 152.13 386.381 151.262C386.381 149.965 386.699 148.975 387.333 148.294C387.977 147.613 388.827 147.272 389.881 147.272ZM389.881 148.574C389.405 148.574 389.018 148.728 388.719 149.036C388.43 149.335 388.262 149.783 388.215 150.38H391.477C391.468 149.857 391.333 149.428 391.071 149.092C390.819 148.747 390.423 148.574 389.881 148.574ZM400.13 152.802C400.13 153.567 399.855 154.151 399.304 154.552C398.763 154.944 397.983 155.14 396.966 155.14C396.434 155.14 395.977 155.103 395.594 155.028C395.221 154.953 394.857 154.837 394.502 154.678V153.18C394.875 153.357 395.286 153.507 395.734 153.628C396.191 153.749 396.621 153.81 397.022 153.81C397.507 153.81 397.857 153.735 398.072 153.586C398.287 153.437 398.394 153.236 398.394 152.984C398.394 152.835 398.352 152.704 398.268 152.592C398.184 152.471 398.021 152.34 397.778 152.2C397.535 152.06 397.167 151.887 396.672 151.682C396.187 151.486 395.781 151.29 395.454 151.094C395.137 150.898 394.894 150.665 394.726 150.394C394.567 150.123 394.488 149.773 394.488 149.344C394.488 148.663 394.759 148.149 395.3 147.804C395.841 147.449 396.555 147.272 397.442 147.272C397.909 147.272 398.347 147.319 398.758 147.412C399.178 147.505 399.598 147.645 400.018 147.832L399.458 149.134C399.103 148.985 398.758 148.859 398.422 148.756C398.086 148.653 397.741 148.602 397.386 148.602C396.611 148.602 396.224 148.821 396.224 149.26C396.224 149.419 396.271 149.554 396.364 149.666C396.467 149.778 396.639 149.899 396.882 150.03C397.134 150.151 397.489 150.301 397.946 150.478C398.394 150.655 398.781 150.842 399.108 151.038C399.435 151.225 399.687 151.458 399.864 151.738C400.041 152.009 400.13 152.363 400.13 152.802Z" fill="#1B77AF"/>
<rect width="240" height="36" transform="translate(228 168)" fill="white"/>
<path d="M305.642 181.97C304.569 181.97 303.724 182.329 303.108 183.048C302.492 183.767 302.184 184.751 302.184 186.002C302.184 187.243 302.469 188.228 303.038 188.956C303.617 189.675 304.48 190.034 305.628 190.034C306.057 190.034 306.468 189.997 306.86 189.922C307.252 189.847 307.639 189.754 308.022 189.642V190.734C307.649 190.874 307.261 190.977 306.86 191.042C306.468 191.107 305.997 191.14 305.446 191.14C304.429 191.14 303.579 190.93 302.898 190.51C302.217 190.09 301.703 189.493 301.358 188.718C301.022 187.943 300.854 187.033 300.854 185.988C300.854 184.98 301.036 184.093 301.4 183.328C301.773 182.553 302.319 181.951 303.038 181.522C303.757 181.083 304.629 180.864 305.656 180.864C306.711 180.864 307.63 181.06 308.414 181.452L307.91 182.516C307.602 182.376 307.257 182.25 306.874 182.138C306.501 182.026 306.09 181.97 305.642 181.97ZM316.56 187.234C316.56 188.475 316.242 189.437 315.608 190.118C314.982 190.799 314.133 191.14 313.06 191.14C312.397 191.14 311.804 190.991 311.282 190.692C310.768 190.384 310.362 189.941 310.064 189.362C309.765 188.774 309.616 188.065 309.616 187.234C309.616 185.993 309.924 185.036 310.54 184.364C311.165 183.692 312.019 183.356 313.102 183.356C313.774 183.356 314.371 183.51 314.894 183.818C315.416 184.117 315.822 184.555 316.112 185.134C316.41 185.703 316.56 186.403 316.56 187.234ZM310.89 187.234C310.89 188.121 311.062 188.825 311.408 189.348C311.762 189.861 312.322 190.118 313.088 190.118C313.844 190.118 314.399 189.861 314.754 189.348C315.108 188.825 315.286 188.121 315.286 187.234C315.286 186.347 315.108 185.652 314.754 185.148C314.399 184.644 313.839 184.392 313.074 184.392C312.308 184.392 311.753 184.644 311.408 185.148C311.062 185.652 310.89 186.347 310.89 187.234ZM322.124 183.356C323.02 183.356 323.697 183.575 324.154 184.014C324.612 184.453 324.84 185.153 324.84 186.114V191H323.622V186.198C323.622 184.994 323.062 184.392 321.942 184.392C321.112 184.392 320.538 184.625 320.22 185.092C319.903 185.559 319.744 186.231 319.744 187.108V191H318.512V183.496H319.506L319.688 184.518H319.758C320.001 184.126 320.337 183.837 320.766 183.65C321.196 183.454 321.648 183.356 322.124 183.356ZM329.673 190.132C329.859 190.132 330.051 190.118 330.247 190.09C330.443 190.062 330.601 190.025 330.723 189.978V190.916C330.592 190.981 330.405 191.033 330.163 191.07C329.92 191.117 329.687 191.14 329.463 191.14C329.071 191.14 328.707 191.075 328.371 190.944C328.044 190.804 327.778 190.566 327.573 190.23C327.367 189.894 327.265 189.423 327.265 188.816V184.448H326.201V183.86L327.279 183.37L327.769 181.774H328.497V183.496H330.667V184.448H328.497V188.788C328.497 189.245 328.604 189.586 328.819 189.81C329.043 190.025 329.327 190.132 329.673 190.132ZM335.067 183.37C335.982 183.37 336.658 183.571 337.097 183.972C337.536 184.373 337.755 185.013 337.755 185.89V191H336.859L336.621 189.936H336.565C336.238 190.347 335.893 190.65 335.529 190.846C335.165 191.042 334.67 191.14 334.045 191.14C333.364 191.14 332.799 190.963 332.351 190.608C331.903 190.244 331.679 189.679 331.679 188.914C331.679 188.167 331.973 187.593 332.561 187.192C333.149 186.781 334.054 186.557 335.277 186.52L336.551 186.478V186.03C336.551 185.405 336.416 184.971 336.145 184.728C335.874 184.485 335.492 184.364 334.997 184.364C334.605 184.364 334.232 184.425 333.877 184.546C333.522 184.658 333.191 184.789 332.883 184.938L332.505 184.014C332.832 183.837 333.219 183.687 333.667 183.566C334.115 183.435 334.582 183.37 335.067 183.37ZM336.537 187.332L335.431 187.374C334.498 187.411 333.849 187.561 333.485 187.822C333.13 188.083 332.953 188.452 332.953 188.928C332.953 189.348 333.079 189.656 333.331 189.852C333.592 190.048 333.924 190.146 334.325 190.146C334.95 190.146 335.473 189.973 335.893 189.628C336.322 189.273 336.537 188.732 336.537 188.004V187.332ZM343.083 191.14C342.411 191.14 341.818 191.005 341.305 190.734C340.791 190.463 340.385 190.043 340.087 189.474C339.797 188.905 339.653 188.177 339.653 187.29C339.653 186.366 339.802 185.615 340.101 185.036C340.409 184.457 340.829 184.033 341.361 183.762C341.893 183.491 342.495 183.356 343.167 183.356C343.54 183.356 343.904 183.398 344.259 183.482C344.623 183.557 344.917 183.65 345.141 183.762L344.763 184.784C344.539 184.7 344.277 184.621 343.979 184.546C343.68 184.471 343.4 184.434 343.139 184.434C341.664 184.434 340.927 185.381 340.927 187.276C340.927 188.181 341.104 188.877 341.459 189.362C341.823 189.838 342.359 190.076 343.069 190.076C343.47 190.076 343.829 190.034 344.147 189.95C344.464 189.866 344.753 189.763 345.015 189.642V190.734C344.763 190.865 344.483 190.963 344.175 191.028C343.876 191.103 343.512 191.14 343.083 191.14ZM349.305 190.132C349.492 190.132 349.683 190.118 349.879 190.09C350.075 190.062 350.234 190.025 350.355 189.978V190.916C350.225 190.981 350.038 191.033 349.795 191.07C349.553 191.117 349.319 191.14 349.095 191.14C348.703 191.14 348.339 191.075 348.003 190.944C347.677 190.804 347.411 190.566 347.205 190.23C347 189.894 346.897 189.423 346.897 188.816V184.448H345.833V183.86L346.911 183.37L347.401 181.774H348.129V183.496H350.299V184.448H348.129V188.788C348.129 189.245 348.237 189.586 348.451 189.81C348.675 190.025 348.96 190.132 349.305 190.132ZM359.947 181.97C358.873 181.97 358.029 182.329 357.413 183.048C356.797 183.767 356.489 184.751 356.489 186.002C356.489 187.243 356.773 188.228 357.343 188.956C357.921 189.675 358.785 190.034 359.933 190.034C360.362 190.034 360.773 189.997 361.165 189.922C361.557 189.847 361.944 189.754 362.327 189.642V190.734C361.953 190.874 361.566 190.977 361.165 191.042C360.773 191.107 360.301 191.14 359.751 191.14C358.733 191.14 357.884 190.93 357.203 190.51C356.521 190.09 356.008 189.493 355.663 188.718C355.327 187.943 355.159 187.033 355.159 185.988C355.159 184.98 355.341 184.093 355.705 183.328C356.078 182.553 356.624 181.951 357.343 181.522C358.061 181.083 358.934 180.864 359.961 180.864C361.015 180.864 361.935 181.06 362.719 181.452L362.215 182.516C361.907 182.376 361.561 182.25 361.179 182.138C360.805 182.026 360.395 181.97 359.947 181.97ZM367.238 183.356C367.873 183.356 368.424 183.496 368.89 183.776C369.357 184.056 369.712 184.453 369.954 184.966C370.206 185.47 370.332 186.063 370.332 186.744V187.486H365.194C365.213 188.335 365.428 188.984 365.838 189.432C366.258 189.871 366.842 190.09 367.588 190.09C368.064 190.09 368.484 190.048 368.848 189.964C369.222 189.871 369.604 189.74 369.996 189.572V190.65C369.614 190.818 369.236 190.939 368.862 191.014C368.489 191.098 368.046 191.14 367.532 191.14C366.814 191.14 366.184 190.995 365.642 190.706C365.101 190.417 364.676 189.987 364.368 189.418C364.07 188.849 363.92 188.144 363.92 187.304C363.92 186.483 364.056 185.778 364.326 185.19C364.606 184.602 364.994 184.149 365.488 183.832C365.992 183.515 366.576 183.356 367.238 183.356ZM367.224 184.364C366.636 184.364 366.17 184.555 365.824 184.938C365.488 185.311 365.288 185.834 365.222 186.506H369.044C369.035 185.871 368.886 185.358 368.596 184.966C368.307 184.565 367.85 184.364 367.224 184.364ZM375.855 183.356C376.751 183.356 377.427 183.575 377.885 184.014C378.342 184.453 378.571 185.153 378.571 186.114V191H377.353V186.198C377.353 184.994 376.793 184.392 375.673 184.392C374.842 184.392 374.268 184.625 373.951 185.092C373.633 185.559 373.475 186.231 373.475 187.108V191H372.243V183.496H373.237L373.419 184.518H373.489C373.731 184.126 374.067 183.837 374.497 183.65C374.926 183.454 375.379 183.356 375.855 183.356ZM383.403 190.132C383.59 190.132 383.781 190.118 383.977 190.09C384.173 190.062 384.332 190.025 384.453 189.978V190.916C384.322 190.981 384.136 191.033 383.893 191.07C383.65 191.117 383.417 191.14 383.193 191.14C382.801 191.14 382.437 191.075 382.101 190.944C381.774 190.804 381.508 190.566 381.303 190.23C381.098 189.894 380.995 189.423 380.995 188.816V184.448H379.931V183.86L381.009 183.37L381.499 181.774H382.227V183.496H384.397V184.448H382.227V188.788C382.227 189.245 382.334 189.586 382.549 189.81C382.773 190.025 383.058 190.132 383.403 190.132ZM388.854 183.356C389.488 183.356 390.039 183.496 390.506 183.776C390.972 184.056 391.327 184.453 391.57 184.966C391.822 185.47 391.948 186.063 391.948 186.744V187.486H386.81C386.828 188.335 387.043 188.984 387.454 189.432C387.874 189.871 388.457 190.09 389.204 190.09C389.68 190.09 390.1 190.048 390.464 189.964C390.837 189.871 391.22 189.74 391.612 189.572V190.65C391.229 190.818 390.851 190.939 390.478 191.014C390.104 191.098 389.661 191.14 389.148 191.14C388.429 191.14 387.799 190.995 387.258 190.706C386.716 190.417 386.292 189.987 385.984 189.418C385.685 188.849 385.536 188.144 385.536 187.304C385.536 186.483 385.671 185.778 385.942 185.19C386.222 184.602 386.609 184.149 387.104 183.832C387.608 183.515 388.191 183.356 388.854 183.356ZM388.84 184.364C388.252 184.364 387.785 184.555 387.44 184.938C387.104 185.311 386.903 185.834 386.838 186.506H390.66C390.65 185.871 390.501 185.358 390.212 184.966C389.922 184.565 389.465 184.364 388.84 184.364ZM397.358 183.356C397.498 183.356 397.647 183.365 397.806 183.384C397.965 183.393 398.109 183.412 398.24 183.44L398.086 184.574C397.965 184.546 397.829 184.523 397.68 184.504C397.531 184.485 397.395 184.476 397.274 184.476C396.891 184.476 396.532 184.583 396.196 184.798C395.86 185.003 395.589 185.297 395.384 185.68C395.188 186.053 395.09 186.492 395.09 186.996V191H393.858V183.496H394.866L395.006 184.868H395.062C395.295 184.457 395.603 184.103 395.986 183.804C396.378 183.505 396.835 183.356 397.358 183.356ZM404.527 188.928C404.527 189.656 404.257 190.207 403.715 190.58C403.174 190.953 402.446 191.14 401.531 191.14C401.009 191.14 400.556 191.098 400.173 191.014C399.8 190.93 399.469 190.813 399.179 190.664V189.544C399.478 189.693 399.837 189.833 400.257 189.964C400.687 190.085 401.121 190.146 401.559 190.146C402.185 190.146 402.637 190.048 402.917 189.852C403.197 189.647 403.337 189.376 403.337 189.04C403.337 188.853 403.286 188.685 403.183 188.536C403.081 188.387 402.894 188.237 402.623 188.088C402.362 187.939 401.984 187.771 401.489 187.584C401.004 187.397 400.589 187.211 400.243 187.024C399.898 186.837 399.632 186.613 399.445 186.352C399.259 186.091 399.165 185.755 399.165 185.344C399.165 184.709 399.422 184.219 399.935 183.874C400.458 183.529 401.139 183.356 401.979 183.356C402.437 183.356 402.861 183.403 403.253 183.496C403.655 183.589 404.028 183.711 404.373 183.86L403.953 184.84C403.636 184.709 403.305 184.597 402.959 184.504C402.614 184.411 402.259 184.364 401.895 184.364C401.391 184.364 401.004 184.448 400.733 184.616C400.472 184.775 400.341 184.994 400.341 185.274C400.341 185.489 400.402 185.666 400.523 185.806C400.645 185.946 400.845 186.086 401.125 186.226C401.415 186.366 401.797 186.525 402.273 186.702C402.749 186.879 403.155 187.061 403.491 187.248C403.827 187.435 404.084 187.663 404.261 187.934C404.439 188.195 404.527 188.527 404.527 188.928Z" fill="#323232"/>
<rect width="240" height="48" transform="translate(228 204)" fill="white"/>
<path d="M264.737 230.288H256.712V222.262C256.712 221.955 256.457 221.7 256.15 221.7C251.102 221.7 247 225.803 247 230.85C247 235.898 251.102 240 256.15 240C261.198 240 265.3 235.898 265.3 230.85C265.3 230.543 265.045 230.288 264.737 230.288ZM248.125 230.85C248.125 226.613 251.425 223.133 255.587 222.848V230.618L250.098 236.108C248.875 234.697 248.125 232.86 248.125 230.85ZM256.15 238.875C254.14 238.875 252.303 238.125 250.892 236.903L256.382 231.412H264.153C263.868 235.575 260.387 238.875 256.15 238.875Z" fill="#323232"/>
<path d="M259.03 228.825C259.338 228.825 259.593 228.57 259.593 228.263V222.262C259.593 221.955 259.338 221.7 259.03 221.7C258.723 221.7 258.467 221.955 258.467 222.262V228.263C258.467 228.57 258.723 228.825 259.03 228.825Z" fill="#323232"/>
<path d="M261.888 228.825C262.195 228.825 262.45 228.57 262.45 228.263V219.562C262.45 219.255 262.195 219 261.888 219C261.58 219 261.325 219.255 261.325 219.562V228.263C261.325 228.57 261.573 228.825 261.888 228.825Z" fill="#323232"/>
<path d="M264.737 223.965C264.43 223.965 264.175 224.22 264.175 224.528V228.255C264.175 228.562 264.43 228.818 264.737 228.818C265.045 228.818 265.3 228.562 265.3 228.255V224.535C265.3 224.22 265.045 223.965 264.737 223.965Z" fill="#323232"/>
<path d="M287.63 234.5L286.426 231.406H282.464L281.274 234.5H280L283.906 224.462H285.04L288.932 234.5H287.63ZM286.048 230.286L284.928 227.262C284.9 227.187 284.853 227.052 284.788 226.856C284.723 226.66 284.657 226.459 284.592 226.254C284.536 226.039 284.489 225.876 284.452 225.764C284.377 226.053 284.298 226.338 284.214 226.618C284.139 226.889 284.074 227.103 284.018 227.262L282.884 230.286H286.048ZM293.743 226.856C294.639 226.856 295.316 227.075 295.773 227.514C296.231 227.953 296.459 228.653 296.459 229.614V234.5H295.241V229.698C295.241 228.494 294.681 227.892 293.561 227.892C292.731 227.892 292.157 228.125 291.839 228.592C291.522 229.059 291.363 229.731 291.363 230.608V234.5H290.131V226.996H291.125L291.307 228.018H291.377C291.62 227.626 291.956 227.337 292.385 227.15C292.815 226.954 293.267 226.856 293.743 226.856ZM301.628 226.87C302.542 226.87 303.219 227.071 303.658 227.472C304.096 227.873 304.316 228.513 304.316 229.39V234.5H303.42L303.182 233.436H303.126C302.799 233.847 302.454 234.15 302.09 234.346C301.726 234.542 301.231 234.64 300.606 234.64C299.924 234.64 299.36 234.463 298.912 234.108C298.464 233.744 298.24 233.179 298.24 232.414C298.24 231.667 298.534 231.093 299.122 230.692C299.71 230.281 300.615 230.057 301.838 230.02L303.112 229.978V229.53C303.112 228.905 302.976 228.471 302.706 228.228C302.435 227.985 302.052 227.864 301.558 227.864C301.166 227.864 300.792 227.925 300.438 228.046C300.083 228.158 299.752 228.289 299.444 228.438L299.066 227.514C299.392 227.337 299.78 227.187 300.228 227.066C300.676 226.935 301.142 226.87 301.628 226.87ZM303.098 230.832L301.992 230.874C301.058 230.911 300.41 231.061 300.046 231.322C299.691 231.583 299.514 231.952 299.514 232.428C299.514 232.848 299.64 233.156 299.892 233.352C300.153 233.548 300.484 233.646 300.886 233.646C301.511 233.646 302.034 233.473 302.454 233.128C302.883 232.773 303.098 232.232 303.098 231.504V230.832ZM307.865 234.5H306.633V223.86H307.865V234.5ZM309.067 226.996H310.383L312.007 231.266C312.147 231.649 312.273 232.008 312.385 232.344C312.497 232.68 312.581 233.002 312.637 233.31H312.693C312.749 233.077 312.837 232.773 312.959 232.4C313.08 232.017 313.206 231.635 313.337 231.252L314.863 226.996H316.193L312.959 235.536C312.688 236.245 312.347 236.81 311.937 237.23C311.526 237.65 310.957 237.86 310.229 237.86C310.005 237.86 309.809 237.846 309.641 237.818C309.473 237.799 309.328 237.776 309.207 237.748V236.768C309.309 236.787 309.431 236.805 309.571 236.824C309.72 236.843 309.874 236.852 310.033 236.852C310.462 236.852 310.807 236.731 311.069 236.488C311.33 236.245 311.54 235.923 311.699 235.522L312.091 234.528L309.067 226.996ZM319.885 233.632C320.072 233.632 320.263 233.618 320.459 233.59C320.655 233.562 320.814 233.525 320.935 233.478V234.416C320.805 234.481 320.618 234.533 320.375 234.57C320.133 234.617 319.899 234.64 319.675 234.64C319.283 234.64 318.919 234.575 318.583 234.444C318.257 234.304 317.991 234.066 317.785 233.73C317.58 233.394 317.477 232.923 317.477 232.316V227.948H316.413V227.36L317.491 226.87L317.981 225.274H318.709V226.996H320.879V227.948H318.709V232.288C318.709 232.745 318.817 233.086 319.031 233.31C319.255 233.525 319.54 233.632 319.885 233.632ZM323.068 224.182C323.255 224.182 323.418 224.247 323.558 224.378C323.707 224.499 323.782 224.695 323.782 224.966C323.782 225.237 323.707 225.437 323.558 225.568C323.418 225.689 323.255 225.75 323.068 225.75C322.863 225.75 322.69 225.689 322.55 225.568C322.41 225.437 322.34 225.237 322.34 224.966C322.34 224.695 322.41 224.499 322.55 224.378C322.69 224.247 322.863 224.182 323.068 224.182ZM323.67 226.996V234.5H322.438V226.996H323.67ZM329.057 234.64C328.385 234.64 327.793 234.505 327.279 234.234C326.766 233.963 326.36 233.543 326.061 232.974C325.772 232.405 325.627 231.677 325.627 230.79C325.627 229.866 325.777 229.115 326.075 228.536C326.383 227.957 326.803 227.533 327.335 227.262C327.867 226.991 328.469 226.856 329.141 226.856C329.515 226.856 329.879 226.898 330.233 226.982C330.597 227.057 330.891 227.15 331.115 227.262L330.737 228.284C330.513 228.2 330.252 228.121 329.953 228.046C329.655 227.971 329.375 227.934 329.113 227.934C327.639 227.934 326.901 228.881 326.901 230.776C326.901 231.681 327.079 232.377 327.433 232.862C327.797 233.338 328.334 233.576 329.043 233.576C329.445 233.576 329.804 233.534 330.121 233.45C330.439 233.366 330.728 233.263 330.989 233.142V234.234C330.737 234.365 330.457 234.463 330.149 234.528C329.851 234.603 329.487 234.64 329.057 234.64ZM337.66 232.428C337.66 233.156 337.389 233.707 336.848 234.08C336.307 234.453 335.579 234.64 334.664 234.64C334.141 234.64 333.689 234.598 333.306 234.514C332.933 234.43 332.601 234.313 332.312 234.164V233.044C332.611 233.193 332.97 233.333 333.39 233.464C333.819 233.585 334.253 233.646 334.692 233.646C335.317 233.646 335.77 233.548 336.05 233.352C336.33 233.147 336.47 232.876 336.47 232.54C336.47 232.353 336.419 232.185 336.316 232.036C336.213 231.887 336.027 231.737 335.756 231.588C335.495 231.439 335.117 231.271 334.622 231.084C334.137 230.897 333.721 230.711 333.376 230.524C333.031 230.337 332.765 230.113 332.578 229.852C332.391 229.591 332.298 229.255 332.298 228.844C332.298 228.209 332.555 227.719 333.068 227.374C333.591 227.029 334.272 226.856 335.112 226.856C335.569 226.856 335.994 226.903 336.386 226.996C336.787 227.089 337.161 227.211 337.506 227.36L337.086 228.34C336.769 228.209 336.437 228.097 336.092 228.004C335.747 227.911 335.392 227.864 335.028 227.864C334.524 227.864 334.137 227.948 333.866 228.116C333.605 228.275 333.474 228.494 333.474 228.774C333.474 228.989 333.535 229.166 333.656 229.306C333.777 229.446 333.978 229.586 334.258 229.726C334.547 229.866 334.93 230.025 335.406 230.202C335.882 230.379 336.288 230.561 336.624 230.748C336.96 230.935 337.217 231.163 337.394 231.434C337.571 231.695 337.66 232.027 337.66 232.428Z" fill="#323232"/>
<rect width="240" height="48" transform="translate(228 252)" fill="white"/>
<path fill-rule="evenodd" clip-rule="evenodd" d="M260.912 271.65C259.691 271.65 258.7 272.641 258.7 273.862C258.7 275.084 259.691 276.075 260.912 276.075C262.134 276.075 263.125 275.084 263.125 273.862C263.125 272.641 262.134 271.65 260.912 271.65ZM257.575 273.862C257.575 272.019 259.069 270.525 260.912 270.525C262.756 270.525 264.25 272.019 264.25 273.862C264.25 275.706 262.756 277.2 260.912 277.2C259.069 277.2 257.575 275.706 257.575 273.862Z" fill="#323232"/>
<path d="M258.434 279.852C259.131 279.413 259.962 279.15 260.837 279.15C263.371 279.15 265.375 281.218 265.375 283.688V284.437C265.375 284.748 265.627 285 265.937 285C266.248 285 266.5 284.748 266.5 284.437V283.687C266.5 280.607 264.003 278.025 260.837 278.025C259.71 278.025 258.648 278.37 257.765 278.945C258.01 279.23 258.234 279.533 258.434 279.852Z" fill="#323232"/>
<path fill-rule="evenodd" clip-rule="evenodd" d="M245.5 283.838C245.5 280.227 248.452 277.275 252.062 277.275C255.673 277.275 258.625 280.227 258.625 283.838V286.312C258.625 286.623 258.373 286.875 258.062 286.875C257.752 286.875 257.5 286.623 257.5 286.312V283.838C257.5 280.848 255.052 278.4 252.062 278.4C249.073 278.4 246.625 280.848 246.625 283.838V286.312C246.625 286.623 246.373 286.875 246.062 286.875C245.752 286.875 245.5 286.623 245.5 286.312V283.838Z" fill="#323232"/>
<path fill-rule="evenodd" clip-rule="evenodd" d="M252.062 269.625C250.551 269.625 249.325 270.851 249.325 272.363C249.325 273.874 250.551 275.1 252.062 275.1C253.574 275.1 254.8 273.874 254.8 272.363C254.8 270.851 253.574 269.625 252.062 269.625ZM248.2 272.363C248.2 270.229 249.929 268.5 252.062 268.5C254.196 268.5 255.925 270.229 255.925 272.363C255.925 274.496 254.196 276.225 252.062 276.225C249.929 276.225 248.2 274.496 248.2 272.363Z" fill="#323232"/>
<path d="M285.698 277.222H289.156V282.122C288.615 282.299 288.069 282.43 287.518 282.514C286.967 282.598 286.342 282.64 285.642 282.64C284.606 282.64 283.733 282.435 283.024 282.024C282.315 281.604 281.773 281.011 281.4 280.246C281.036 279.471 280.854 278.557 280.854 277.502C280.854 276.466 281.055 275.565 281.456 274.8C281.867 274.025 282.459 273.428 283.234 273.008C284.009 272.579 284.942 272.364 286.034 272.364C286.594 272.364 287.121 272.415 287.616 272.518C288.12 272.621 288.587 272.765 289.016 272.952L288.54 274.044C288.185 273.895 287.784 273.764 287.336 273.652C286.897 273.531 286.44 273.47 285.964 273.47C284.769 273.47 283.836 273.834 283.164 274.562C282.501 275.281 282.17 276.261 282.17 277.502C282.17 278.295 282.296 279 282.548 279.616C282.809 280.223 283.215 280.699 283.766 281.044C284.317 281.38 285.04 281.548 285.936 281.548C286.375 281.548 286.748 281.525 287.056 281.478C287.364 281.431 287.644 281.375 287.896 281.31V278.342H285.698V277.222ZM294.876 274.856C295.016 274.856 295.165 274.865 295.324 274.884C295.482 274.893 295.627 274.912 295.758 274.94L295.604 276.074C295.482 276.046 295.347 276.023 295.198 276.004C295.048 275.985 294.913 275.976 294.792 275.976C294.409 275.976 294.05 276.083 293.714 276.298C293.378 276.503 293.107 276.797 292.902 277.18C292.706 277.553 292.608 277.992 292.608 278.496V282.5H291.376V274.996H292.384L292.524 276.368H292.58C292.813 275.957 293.121 275.603 293.504 275.304C293.896 275.005 294.353 274.856 294.876 274.856ZM303.409 278.734C303.409 279.975 303.092 280.937 302.457 281.618C301.832 282.299 300.983 282.64 299.909 282.64C299.247 282.64 298.654 282.491 298.131 282.192C297.618 281.884 297.212 281.441 296.913 280.862C296.615 280.274 296.465 279.565 296.465 278.734C296.465 277.493 296.773 276.536 297.389 275.864C298.015 275.192 298.869 274.856 299.951 274.856C300.623 274.856 301.221 275.01 301.743 275.318C302.266 275.617 302.672 276.055 302.961 276.634C303.26 277.203 303.409 277.903 303.409 278.734ZM297.739 278.734C297.739 279.621 297.912 280.325 298.257 280.848C298.612 281.361 299.172 281.618 299.937 281.618C300.693 281.618 301.249 281.361 301.603 280.848C301.958 280.325 302.135 279.621 302.135 278.734C302.135 277.847 301.958 277.152 301.603 276.648C301.249 276.144 300.689 275.892 299.923 275.892C299.158 275.892 298.603 276.144 298.257 276.648C297.912 277.152 297.739 277.847 297.739 278.734ZM311.634 274.996V282.5H310.626L310.444 281.506H310.388C310.145 281.898 309.809 282.187 309.38 282.374C308.951 282.551 308.493 282.64 308.008 282.64C307.103 282.64 306.421 282.425 305.964 281.996C305.507 281.557 305.278 280.862 305.278 279.91V274.996H306.524V279.826C306.524 281.021 307.079 281.618 308.19 281.618C309.021 281.618 309.595 281.385 309.912 280.918C310.239 280.451 310.402 279.779 310.402 278.902V274.996H311.634ZM317.586 274.856C318.51 274.856 319.252 275.178 319.812 275.822C320.382 276.466 320.666 277.437 320.666 278.734C320.666 280.013 320.382 280.983 319.812 281.646C319.252 282.309 318.506 282.64 317.572 282.64C316.994 282.64 316.513 282.533 316.13 282.318C315.757 282.103 315.463 281.847 315.248 281.548H315.164C315.174 281.707 315.188 281.907 315.206 282.15C315.234 282.393 315.248 282.603 315.248 282.78V285.86H314.016V274.996H315.024L315.192 276.018H315.248C315.472 275.691 315.766 275.416 316.13 275.192C316.494 274.968 316.98 274.856 317.586 274.856ZM317.362 275.892C316.597 275.892 316.056 276.107 315.738 276.536C315.421 276.965 315.258 277.619 315.248 278.496V278.734C315.248 279.658 315.398 280.372 315.696 280.876C316.004 281.371 316.569 281.618 317.39 281.618C317.838 281.618 318.212 281.497 318.51 281.254C318.809 281.002 319.028 280.657 319.168 280.218C319.318 279.779 319.392 279.28 319.392 278.72C319.392 277.861 319.224 277.175 318.888 276.662C318.562 276.149 318.053 275.892 317.362 275.892ZM327.515 280.428C327.515 281.156 327.245 281.707 326.703 282.08C326.162 282.453 325.434 282.64 324.519 282.64C323.997 282.64 323.544 282.598 323.161 282.514C322.788 282.43 322.457 282.313 322.167 282.164V281.044C322.466 281.193 322.825 281.333 323.245 281.464C323.675 281.585 324.109 281.646 324.547 281.646C325.173 281.646 325.625 281.548 325.905 281.352C326.185 281.147 326.325 280.876 326.325 280.54C326.325 280.353 326.274 280.185 326.171 280.036C326.069 279.887 325.882 279.737 325.611 279.588C325.35 279.439 324.972 279.271 324.477 279.084C323.992 278.897 323.577 278.711 323.231 278.524C322.886 278.337 322.62 278.113 322.433 277.852C322.247 277.591 322.153 277.255 322.153 276.844C322.153 276.209 322.41 275.719 322.923 275.374C323.446 275.029 324.127 274.856 324.967 274.856C325.425 274.856 325.849 274.903 326.241 274.996C326.643 275.089 327.016 275.211 327.361 275.36L326.941 276.34C326.624 276.209 326.293 276.097 325.947 276.004C325.602 275.911 325.247 275.864 324.883 275.864C324.379 275.864 323.992 275.948 323.721 276.116C323.46 276.275 323.329 276.494 323.329 276.774C323.329 276.989 323.39 277.166 323.511 277.306C323.633 277.446 323.833 277.586 324.113 277.726C324.403 277.866 324.785 278.025 325.261 278.202C325.737 278.379 326.143 278.561 326.479 278.748C326.815 278.935 327.072 279.163 327.249 279.434C327.427 279.695 327.515 280.027 327.515 280.428Z" fill="#323232"/>
<path d="M447 281.962C446.9 281.962 446.8 281.913 446.75 281.863L441.1 276.262C441.05 276.212 441 276.112 441 276.012C441 275.912 441.05 275.812 441.1 275.762L446.7 270.113C446.85 269.962 447.1 269.962 447.25 270.113C447.4 270.263 447.4 270.512 447.25 270.662L441.9 276.012L447.25 281.363C447.4 281.512 447.4 281.762 447.25 281.912C447.15 281.962 447.1 281.962 447 281.962Z" fill="#323232"/>
<rect width="240" height="48" transform="translate(228 300)" fill="white"/>
<path d="M257.965 325.095C256.915 325.097 255.909 325.515 255.167 326.257C254.425 326.999 254.007 328.005 254.005 329.055V330.45C254.005 330.599 254.064 330.742 254.17 330.848C254.275 330.953 254.418 331.013 254.568 331.013H261.362C261.437 331.014 261.51 331 261.579 330.972C261.648 330.944 261.71 330.902 261.762 330.85C261.815 330.798 261.856 330.735 261.884 330.666C261.912 330.598 261.926 330.524 261.925 330.45V329.055C261.925 328.005 261.508 326.998 260.765 326.255C260.022 325.512 259.015 325.095 257.965 325.095ZM260.8 329.888H255.13V329.055C255.13 328.303 255.429 327.582 255.96 327.05C256.492 326.519 257.213 326.22 257.965 326.22C258.717 326.22 259.438 326.519 259.97 327.05C260.501 327.582 260.8 328.303 260.8 329.055V329.888Z" fill="#323232"/>
<path d="M263.688 315H248.358C248.208 315 248.065 315.059 247.96 315.165C247.854 315.27 247.795 315.413 247.795 315.562V318.705H246.062C245.913 318.705 245.77 318.764 245.665 318.87C245.559 318.975 245.5 319.118 245.5 319.267C245.5 319.417 245.559 319.56 245.665 319.665C245.77 319.771 245.913 319.83 246.062 319.83H247.795V322.83H246.062C245.913 322.83 245.77 322.889 245.665 322.995C245.559 323.1 245.5 323.243 245.5 323.392C245.5 323.542 245.559 323.685 245.665 323.79C245.77 323.896 245.913 323.955 246.062 323.955H247.795V326.955H246.062C245.913 326.955 245.77 327.014 245.665 327.12C245.559 327.225 245.5 327.368 245.5 327.517C245.5 327.667 245.559 327.81 245.665 327.915C245.77 328.021 245.913 328.08 246.062 328.08H247.795V331.08H246.062C245.913 331.08 245.77 331.139 245.665 331.245C245.559 331.35 245.5 331.493 245.5 331.642C245.5 331.792 245.559 331.935 245.665 332.04C245.77 332.146 245.913 332.205 246.062 332.205H247.795V335.347C247.795 335.497 247.854 335.64 247.96 335.745C248.065 335.851 248.208 335.91 248.358 335.91H263.688C264.418 335.91 265.12 335.626 265.645 335.118C266.17 334.61 266.477 333.918 266.5 333.188V317.812C266.5 317.067 266.204 316.351 265.676 315.824C265.149 315.296 264.433 315 263.688 315ZM265.375 333.188C265.375 333.635 265.197 334.064 264.881 334.381C264.564 334.697 264.135 334.875 263.688 334.875H248.92V332.295H250.608C250.757 332.295 250.9 332.236 251.005 332.13C251.111 332.025 251.17 331.882 251.17 331.733C251.17 331.583 251.111 331.44 251.005 331.335C250.9 331.229 250.757 331.17 250.608 331.17H248.92V328.17H250.608C250.757 328.17 250.9 328.111 251.005 328.005C251.111 327.9 251.17 327.757 251.17 327.608C251.17 327.458 251.111 327.315 251.005 327.21C250.9 327.104 250.757 327.045 250.608 327.045H248.92V324H250.608C250.757 324 250.9 323.941 251.005 323.835C251.111 323.73 251.17 323.587 251.17 323.438C251.17 323.288 251.111 323.145 251.005 323.04C250.9 322.934 250.757 322.875 250.608 322.875H248.92V319.875H250.608C250.757 319.875 250.9 319.816 251.005 319.71C251.111 319.605 251.17 319.462 251.17 319.312C251.17 319.163 251.111 319.02 251.005 318.915C250.9 318.809 250.757 318.75 250.608 318.75H248.92V316.125H263.688C264.135 316.125 264.564 316.303 264.881 316.619C265.197 316.936 265.375 317.365 265.375 317.812V333.188Z" fill="#323232"/>
<path d="M257.965 324.825C258.444 324.826 258.914 324.686 259.313 324.42C259.712 324.155 260.024 323.777 260.208 323.335C260.393 322.892 260.442 322.405 260.349 321.935C260.257 321.464 260.027 321.032 259.688 320.692C259.35 320.353 258.918 320.121 258.448 320.027C257.978 319.933 257.49 319.981 257.047 320.164C256.604 320.347 256.225 320.657 255.959 321.056C255.692 321.454 255.55 321.923 255.55 322.403C255.55 323.044 255.804 323.659 256.257 324.113C256.71 324.567 257.324 324.823 257.965 324.825ZM257.965 321.075C258.221 321.074 258.471 321.148 258.685 321.288C258.898 321.429 259.066 321.629 259.166 321.864C259.266 322.099 259.295 322.359 259.248 322.61C259.201 322.861 259.081 323.093 258.903 323.277C258.725 323.46 258.496 323.587 258.246 323.641C257.996 323.695 257.736 323.674 257.498 323.58C257.26 323.487 257.055 323.325 256.909 323.116C256.762 322.906 256.681 322.658 256.675 322.403C256.675 322.06 256.811 321.731 257.052 321.488C257.294 321.245 257.622 321.107 257.965 321.105V321.075Z" fill="#323232"/>
<path d="M285.642 321.47C284.569 321.47 283.724 321.829 283.108 322.548C282.492 323.267 282.184 324.251 282.184 325.502C282.184 326.743 282.469 327.728 283.038 328.456C283.617 329.175 284.48 329.534 285.628 329.534C286.057 329.534 286.468 329.497 286.86 329.422C287.252 329.347 287.639 329.254 288.022 329.142V330.234C287.649 330.374 287.261 330.477 286.86 330.542C286.468 330.607 285.997 330.64 285.446 330.64C284.429 330.64 283.579 330.43 282.898 330.01C282.217 329.59 281.703 328.993 281.358 328.218C281.022 327.443 280.854 326.533 280.854 325.488C280.854 324.48 281.036 323.593 281.4 322.828C281.773 322.053 282.319 321.451 283.038 321.022C283.757 320.583 284.629 320.364 285.656 320.364C286.711 320.364 287.63 320.56 288.414 320.952L287.91 322.016C287.602 321.876 287.257 321.75 286.874 321.638C286.501 321.526 286.09 321.47 285.642 321.47ZM296.56 326.734C296.56 327.975 296.242 328.937 295.608 329.618C294.982 330.299 294.133 330.64 293.06 330.64C292.397 330.64 291.804 330.491 291.282 330.192C290.768 329.884 290.362 329.441 290.064 328.862C289.765 328.274 289.616 327.565 289.616 326.734C289.616 325.493 289.924 324.536 290.54 323.864C291.165 323.192 292.019 322.856 293.102 322.856C293.774 322.856 294.371 323.01 294.894 323.318C295.416 323.617 295.822 324.055 296.112 324.634C296.41 325.203 296.56 325.903 296.56 326.734ZM290.89 326.734C290.89 327.621 291.062 328.325 291.408 328.848C291.762 329.361 292.322 329.618 293.088 329.618C293.844 329.618 294.399 329.361 294.754 328.848C295.108 328.325 295.286 327.621 295.286 326.734C295.286 325.847 295.108 325.152 294.754 324.648C294.399 324.144 293.839 323.892 293.074 323.892C292.308 323.892 291.753 324.144 291.408 324.648C291.062 325.152 290.89 325.847 290.89 326.734ZM302.124 322.856C303.02 322.856 303.697 323.075 304.154 323.514C304.612 323.953 304.84 324.653 304.84 325.614V330.5H303.622V325.698C303.622 324.494 303.062 323.892 301.942 323.892C301.112 323.892 300.538 324.125 300.22 324.592C299.903 325.059 299.744 325.731 299.744 326.608V330.5H298.512V322.996H299.506L299.688 324.018H299.758C300.001 323.626 300.337 323.337 300.766 323.15C301.196 322.954 301.648 322.856 302.124 322.856ZM309.673 329.632C309.859 329.632 310.051 329.618 310.247 329.59C310.443 329.562 310.601 329.525 310.723 329.478V330.416C310.592 330.481 310.405 330.533 310.163 330.57C309.92 330.617 309.687 330.64 309.463 330.64C309.071 330.64 308.707 330.575 308.371 330.444C308.044 330.304 307.778 330.066 307.573 329.73C307.367 329.394 307.265 328.923 307.265 328.316V323.948H306.201V323.36L307.279 322.87L307.769 321.274H308.497V322.996H310.667V323.948H308.497V328.288C308.497 328.745 308.604 329.086 308.819 329.31C309.043 329.525 309.327 329.632 309.673 329.632ZM315.067 322.87C315.982 322.87 316.658 323.071 317.097 323.472C317.536 323.873 317.755 324.513 317.755 325.39V330.5H316.859L316.621 329.436H316.565C316.238 329.847 315.893 330.15 315.529 330.346C315.165 330.542 314.67 330.64 314.045 330.64C313.364 330.64 312.799 330.463 312.351 330.108C311.903 329.744 311.679 329.179 311.679 328.414C311.679 327.667 311.973 327.093 312.561 326.692C313.149 326.281 314.054 326.057 315.277 326.02L316.551 325.978V325.53C316.551 324.905 316.416 324.471 316.145 324.228C315.874 323.985 315.492 323.864 314.997 323.864C314.605 323.864 314.232 323.925 313.877 324.046C313.522 324.158 313.191 324.289 312.883 324.438L312.505 323.514C312.832 323.337 313.219 323.187 313.667 323.066C314.115 322.935 314.582 322.87 315.067 322.87ZM316.537 326.832L315.431 326.874C314.498 326.911 313.849 327.061 313.485 327.322C313.13 327.583 312.953 327.952 312.953 328.428C312.953 328.848 313.079 329.156 313.331 329.352C313.592 329.548 313.924 329.646 314.325 329.646C314.95 329.646 315.473 329.473 315.893 329.128C316.322 328.773 316.537 328.232 316.537 327.504V326.832ZM323.083 330.64C322.411 330.64 321.818 330.505 321.305 330.234C320.791 329.963 320.385 329.543 320.087 328.974C319.797 328.405 319.653 327.677 319.653 326.79C319.653 325.866 319.802 325.115 320.101 324.536C320.409 323.957 320.829 323.533 321.361 323.262C321.893 322.991 322.495 322.856 323.167 322.856C323.54 322.856 323.904 322.898 324.259 322.982C324.623 323.057 324.917 323.15 325.141 323.262L324.763 324.284C324.539 324.2 324.277 324.121 323.979 324.046C323.68 323.971 323.4 323.934 323.139 323.934C321.664 323.934 320.927 324.881 320.927 326.776C320.927 327.681 321.104 328.377 321.459 328.862C321.823 329.338 322.359 329.576 323.069 329.576C323.47 329.576 323.829 329.534 324.147 329.45C324.464 329.366 324.753 329.263 325.015 329.142V330.234C324.763 330.365 324.483 330.463 324.175 330.528C323.876 330.603 323.512 330.64 323.083 330.64ZM329.305 329.632C329.492 329.632 329.683 329.618 329.879 329.59C330.075 329.562 330.234 329.525 330.355 329.478V330.416C330.225 330.481 330.038 330.533 329.795 330.57C329.553 330.617 329.319 330.64 329.095 330.64C328.703 330.64 328.339 330.575 328.003 330.444C327.677 330.304 327.411 330.066 327.205 329.73C327 329.394 326.897 328.923 326.897 328.316V323.948H325.833V323.36L326.911 322.87L327.401 321.274H328.129V322.996H330.299V323.948H328.129V328.288C328.129 328.745 328.237 329.086 328.451 329.31C328.675 329.525 328.96 329.632 329.305 329.632ZM336.744 328.428C336.744 329.156 336.473 329.707 335.932 330.08C335.391 330.453 334.663 330.64 333.748 330.64C333.225 330.64 332.773 330.598 332.39 330.514C332.017 330.43 331.685 330.313 331.396 330.164V329.044C331.695 329.193 332.054 329.333 332.474 329.464C332.903 329.585 333.337 329.646 333.776 329.646C334.401 329.646 334.854 329.548 335.134 329.352C335.414 329.147 335.554 328.876 335.554 328.54C335.554 328.353 335.503 328.185 335.4 328.036C335.297 327.887 335.111 327.737 334.84 327.588C334.579 327.439 334.201 327.271 333.706 327.084C333.221 326.897 332.805 326.711 332.46 326.524C332.115 326.337 331.849 326.113 331.662 325.852C331.475 325.591 331.382 325.255 331.382 324.844C331.382 324.209 331.639 323.719 332.152 323.374C332.675 323.029 333.356 322.856 334.196 322.856C334.653 322.856 335.078 322.903 335.47 322.996C335.871 323.089 336.245 323.211 336.59 323.36L336.17 324.34C335.853 324.209 335.521 324.097 335.176 324.004C334.831 323.911 334.476 323.864 334.112 323.864C333.608 323.864 333.221 323.948 332.95 324.116C332.689 324.275 332.558 324.494 332.558 324.774C332.558 324.989 332.619 325.166 332.74 325.306C332.861 325.446 333.062 325.586 333.342 325.726C333.631 325.866 334.014 326.025 334.49 326.202C334.966 326.379 335.372 326.561 335.708 326.748C336.044 326.935 336.301 327.163 336.478 327.434C336.655 327.695 336.744 328.027 336.744 328.428Z" fill="#323232"/>
<rect width="240" height="48" transform="translate(228 348)" fill="white"/>
<path d="M256 376.835C255.4 376.835 254.8 376.685 254.275 376.385C252.55 375.485 251.95 373.31 252.85 371.585C253.825 369.86 255.925 369.26 257.65 370.16C258.475 370.61 259.075 371.36 259.375 372.26C259.675 373.16 259.525 374.135 259.075 374.96C258.625 375.785 257.875 376.385 256.975 376.685C256.675 376.76 256.3 376.835 256 376.835ZM253.9 372.11C253.225 373.31 253.675 374.735 254.875 375.41C255.475 375.71 256.075 375.785 256.75 375.635C257.35 375.485 257.875 375.035 258.175 374.51C258.475 373.91 258.55 373.31 258.4 372.635C258.25 372.035 257.8 371.51 257.275 371.21C256 370.535 254.5 370.985 253.9 372.11Z" fill="#323232"/>
<path d="M252.175 382.835C251.725 382.835 251.35 382.76 250.975 382.535C250 382.01 249.475 380.885 249.7 379.76L250.15 377.735C250.225 377.435 250.15 377.06 250 376.835C249.85 376.535 249.55 376.385 249.25 376.31L247.6 375.935C246.325 375.635 245.5 374.66 245.5 373.46C245.5 372.335 246.25 371.285 247.3 370.985L249.175 370.385C249.475 370.31 249.775 370.085 249.925 369.785C250.075 369.485 250.075 369.185 250 368.885L249.475 367.235C249.1 366.11 249.55 364.91 250.6 364.31C251.575 363.71 252.85 363.86 253.675 364.61L255.175 365.96C255.4 366.185 255.7 366.335 256.075 366.26C256.375 366.26 256.675 366.11 256.9 365.885L258.025 364.61C258.85 363.71 260.125 363.485 261.1 364.085C262.075 364.61 262.6 365.81 262.375 366.86L261.925 368.81C261.85 369.11 261.925 369.485 262.075 369.71C262.225 370.01 262.525 370.16 262.825 370.235L264.475 370.61C265.6 370.835 266.425 371.885 266.5 373.01C266.5 374.135 265.825 375.185 264.7 375.485L262.75 376.16C262.45 376.235 262.15 376.46 262 376.76C261.85 377.06 261.85 377.36 261.925 377.735L262.45 379.385C262.825 380.51 262.375 381.71 261.325 382.31C260.35 382.91 259.075 382.76 258.25 382.01L256.825 380.66C256.675 380.36 256.375 380.285 256 380.285C255.7 380.285 255.4 380.435 255.175 380.66L254.05 381.935C253.525 382.535 252.85 382.835 252.175 382.835ZM251.875 365.06C251.65 365.06 251.35 365.135 251.125 365.285C250.6 365.585 250.375 366.26 250.525 366.935L251.05 368.51C251.275 369.11 251.2 369.785 250.9 370.31C250.6 370.91 250.15 371.285 249.55 371.51L247.6 372.035C247 372.185 246.55 372.785 246.625 373.385C246.625 374.06 247.075 374.585 247.75 374.735L249.4 375.11C250 375.26 250.525 375.635 250.9 376.16C251.275 376.685 251.35 377.36 251.2 377.96L250.75 379.985C250.6 380.585 250.9 381.26 251.425 381.56C252.025 381.86 252.7 381.785 253.15 381.26L254.275 379.985C254.725 379.535 255.25 379.235 255.925 379.235C256.6 379.235 257.2 379.46 257.65 379.835L259.075 381.185C259.525 381.635 260.2 381.71 260.8 381.335C261.4 380.96 261.625 380.285 261.4 379.685L260.95 378.035C260.725 377.435 260.8 376.76 261.1 376.235C261.4 375.71 261.85 375.26 262.525 375.11L264.475 374.51C265.075 374.36 265.45 373.76 265.45 373.16C265.45 372.485 265 371.96 264.325 371.81L262.675 371.435C262.075 371.285 261.55 370.91 261.175 370.385C260.8 369.86 260.725 369.185 260.875 368.585L261.25 366.635C261.4 366.035 261.1 365.36 260.575 365.06C259.975 364.76 259.3 364.835 258.85 365.36L257.725 366.635C257.275 367.085 256.75 367.385 256.075 367.385C255.4 367.385 254.875 367.16 254.35 366.785L252.85 365.435C252.55 365.21 252.25 365.06 251.875 365.06Z" fill="#323232"/>
<path d="M287.028 375.826C287.028 376.713 286.706 377.403 286.062 377.898C285.418 378.393 284.55 378.64 283.458 378.64C282.898 378.64 282.38 378.598 281.904 378.514C281.428 378.43 281.031 378.313 280.714 378.164V376.96C281.05 377.109 281.465 377.245 281.96 377.366C282.464 377.487 282.982 377.548 283.514 377.548C284.251 377.548 284.811 377.403 285.194 377.114C285.577 376.825 285.768 376.433 285.768 375.938C285.768 375.611 285.698 375.336 285.558 375.112C285.418 374.888 285.175 374.683 284.83 374.496C284.485 374.309 284.013 374.104 283.416 373.88C282.557 373.572 281.913 373.194 281.484 372.746C281.055 372.298 280.84 371.687 280.84 370.912C280.84 370.389 280.975 369.937 281.246 369.554C281.517 369.171 281.89 368.877 282.366 368.672C282.842 368.467 283.397 368.364 284.032 368.364C284.573 368.364 285.073 368.415 285.53 368.518C285.987 368.621 286.407 368.756 286.79 368.924L286.398 370.002C286.053 369.853 285.675 369.727 285.264 369.624C284.853 369.521 284.433 369.47 284.004 369.47C283.379 369.47 282.907 369.605 282.59 369.876C282.273 370.137 282.114 370.487 282.114 370.926C282.114 371.262 282.184 371.542 282.324 371.766C282.464 371.99 282.693 372.195 283.01 372.382C283.327 372.559 283.757 372.746 284.298 372.942C284.886 373.157 285.381 373.39 285.782 373.642C286.193 373.885 286.501 374.179 286.706 374.524C286.921 374.869 287.028 375.303 287.028 375.826ZM291.772 370.856C292.406 370.856 292.957 370.996 293.424 371.276C293.89 371.556 294.245 371.953 294.488 372.466C294.74 372.97 294.866 373.563 294.866 374.244V374.986H289.728C289.746 375.835 289.961 376.484 290.372 376.932C290.792 377.371 291.375 377.59 292.122 377.59C292.598 377.59 293.018 377.548 293.382 377.464C293.755 377.371 294.138 377.24 294.53 377.072V378.15C294.147 378.318 293.769 378.439 293.396 378.514C293.022 378.598 292.579 378.64 292.066 378.64C291.347 378.64 290.717 378.495 290.176 378.206C289.634 377.917 289.21 377.487 288.902 376.918C288.603 376.349 288.454 375.644 288.454 374.804C288.454 373.983 288.589 373.278 288.86 372.69C289.14 372.102 289.527 371.649 290.022 371.332C290.526 371.015 291.109 370.856 291.772 370.856ZM291.758 371.864C291.17 371.864 290.703 372.055 290.358 372.438C290.022 372.811 289.821 373.334 289.756 374.006H293.578C293.568 373.371 293.419 372.858 293.13 372.466C292.84 372.065 292.383 371.864 291.758 371.864ZM299.282 377.632C299.469 377.632 299.66 377.618 299.856 377.59C300.052 377.562 300.211 377.525 300.332 377.478V378.416C300.201 378.481 300.015 378.533 299.772 378.57C299.529 378.617 299.296 378.64 299.072 378.64C298.68 378.64 298.316 378.575 297.98 378.444C297.653 378.304 297.387 378.066 297.182 377.73C296.977 377.394 296.874 376.923 296.874 376.316V371.948H295.81V371.36L296.888 370.87L297.378 369.274H298.106V370.996H300.276V371.948H298.106V376.288C298.106 376.745 298.213 377.086 298.428 377.31C298.652 377.525 298.937 377.632 299.282 377.632ZM304.341 377.632C304.527 377.632 304.719 377.618 304.915 377.59C305.111 377.562 305.269 377.525 305.391 377.478V378.416C305.26 378.481 305.073 378.533 304.831 378.57C304.588 378.617 304.355 378.64 304.131 378.64C303.739 378.64 303.375 378.575 303.039 378.444C302.712 378.304 302.446 378.066 302.241 377.73C302.035 377.394 301.933 376.923 301.933 376.316V371.948H300.869V371.36L301.947 370.87L302.437 369.274H303.165V370.996H305.335V371.948H303.165V376.288C303.165 376.745 303.272 377.086 303.487 377.31C303.711 377.525 303.995 377.632 304.341 377.632ZM307.523 368.182C307.71 368.182 307.873 368.247 308.013 368.378C308.162 368.499 308.237 368.695 308.237 368.966C308.237 369.237 308.162 369.437 308.013 369.568C307.873 369.689 307.71 369.75 307.523 369.75C307.318 369.75 307.145 369.689 307.005 369.568C306.865 369.437 306.795 369.237 306.795 368.966C306.795 368.695 306.865 368.499 307.005 368.378C307.145 368.247 307.318 368.182 307.523 368.182ZM308.125 370.996V378.5H306.893V370.996H308.125ZM314.115 370.856C315.011 370.856 315.687 371.075 316.145 371.514C316.602 371.953 316.831 372.653 316.831 373.614V378.5H315.613V373.698C315.613 372.494 315.053 371.892 313.933 371.892C313.102 371.892 312.528 372.125 312.211 372.592C311.893 373.059 311.735 373.731 311.735 374.608V378.5H310.503V370.996H311.497L311.679 372.018H311.749C311.991 371.626 312.327 371.337 312.757 371.15C313.186 370.954 313.639 370.856 314.115 370.856ZM321.817 370.856C322.311 370.856 322.755 370.949 323.147 371.136C323.548 371.323 323.889 371.607 324.169 371.99H324.239L324.407 370.996H325.387V378.626C325.387 379.699 325.111 380.507 324.561 381.048C324.019 381.589 323.175 381.86 322.027 381.86C320.925 381.86 320.025 381.701 319.325 381.384V380.25C320.062 380.642 320.986 380.838 322.097 380.838C322.741 380.838 323.245 380.647 323.609 380.264C323.982 379.891 324.169 379.377 324.169 378.724V378.43C324.169 378.318 324.173 378.159 324.183 377.954C324.192 377.739 324.201 377.59 324.211 377.506H324.155C323.651 378.262 322.876 378.64 321.831 378.64C320.86 378.64 320.099 378.299 319.549 377.618C319.007 376.937 318.737 375.985 318.737 374.762C318.737 373.567 319.007 372.62 319.549 371.92C320.099 371.211 320.855 370.856 321.817 370.856ZM321.985 371.892C321.359 371.892 320.874 372.144 320.529 372.648C320.183 373.143 320.011 373.852 320.011 374.776C320.011 375.7 320.179 376.409 320.515 376.904C320.851 377.389 321.35 377.632 322.013 377.632C322.769 377.632 323.319 377.431 323.665 377.03C324.01 376.619 324.183 375.961 324.183 375.056V374.762C324.183 373.745 324.005 373.012 323.651 372.564C323.296 372.116 322.741 371.892 321.985 371.892ZM332.656 376.428C332.656 377.156 332.385 377.707 331.844 378.08C331.303 378.453 330.575 378.64 329.66 378.64C329.137 378.64 328.685 378.598 328.302 378.514C327.929 378.43 327.597 378.313 327.308 378.164V377.044C327.607 377.193 327.966 377.333 328.386 377.464C328.815 377.585 329.249 377.646 329.688 377.646C330.313 377.646 330.766 377.548 331.046 377.352C331.326 377.147 331.466 376.876 331.466 376.54C331.466 376.353 331.415 376.185 331.312 376.036C331.209 375.887 331.023 375.737 330.752 375.588C330.491 375.439 330.113 375.271 329.618 375.084C329.133 374.897 328.717 374.711 328.372 374.524C328.027 374.337 327.761 374.113 327.574 373.852C327.387 373.591 327.294 373.255 327.294 372.844C327.294 372.209 327.551 371.719 328.064 371.374C328.587 371.029 329.268 370.856 330.108 370.856C330.565 370.856 330.99 370.903 331.382 370.996C331.783 371.089 332.157 371.211 332.502 371.36L332.082 372.34C331.765 372.209 331.433 372.097 331.088 372.004C330.743 371.911 330.388 371.864 330.024 371.864C329.52 371.864 329.133 371.948 328.862 372.116C328.601 372.275 328.47 372.494 328.47 372.774C328.47 372.989 328.531 373.166 328.652 373.306C328.773 373.446 328.974 373.586 329.254 373.726C329.543 373.866 329.926 374.025 330.402 374.202C330.878 374.379 331.284 374.561 331.62 374.748C331.956 374.935 332.213 375.163 332.39 375.434C332.567 375.695 332.656 376.027 332.656 376.428Z" fill="#323232"/>
<rect width="240" height="48" transform="translate(228 480)" fill="white"/>
<path d="M433.1 494.25C432.725 494.25 432.5 494.475 432.5 494.85V512.7C432.5 513 432.725 513.3 433.1 513.3C433.475 513.3 433.7 513.075 433.7 512.7V494.85C433.625 494.475 433.4 494.25 433.1 494.25Z" fill="#323232"/>
<path d="M439.175 503.7L447.2 495.75C447.425 495.525 447.425 495.15 447.2 494.925C446.975 494.7 446.6 494.7 446.375 494.925L438.05 503.325C437.825 503.55 437.825 503.925 438.05 504.15L446.45 512.55C446.525 512.625 446.675 512.7 446.825 512.7C446.975 512.7 447.125 512.625 447.2 512.55C447.425 512.325 447.425 511.95 447.2 511.725L439.175 503.7Z" fill="#323232"/>
<rect x="0.5" y="-0.5" width="39" height="38" transform="matrix(1 0 0 -1 236 248)" stroke="#D51588"/>
<circle cx="697" cy="12" r="12" fill="#D51588"/>
<path d="M697.498 6.878C698.077 6.878 698.599 6.96667 699.066 7.144C699.533 7.32133 699.906 7.592 700.186 7.956C700.466 8.31067 700.606 8.74933 700.606 9.272C700.606 9.86933 700.429 10.364 700.074 10.756C699.719 11.1387 699.285 11.4607 698.772 11.722C699.155 11.918 699.509 12.1373 699.836 12.38C700.163 12.6227 700.424 12.912 700.62 13.248C700.825 13.5747 700.928 13.962 700.928 14.41C700.928 14.9607 700.783 15.4413 700.494 15.852C700.205 16.2627 699.803 16.58 699.29 16.804C698.786 17.028 698.193 17.14 697.512 17.14C696.401 17.14 695.547 16.902 694.95 16.426C694.353 15.95 694.054 15.2967 694.054 14.466C694.054 14.0087 694.143 13.612 694.32 13.276C694.497 12.94 694.735 12.6507 695.034 12.408C695.333 12.1653 695.664 11.9553 696.028 11.778C695.571 11.498 695.179 11.162 694.852 10.77C694.535 10.3687 694.376 9.86467 694.376 9.258C694.376 8.74467 694.516 8.31067 694.796 7.956C695.085 7.60133 695.463 7.33533 695.93 7.158C696.406 6.97133 696.929 6.878 697.498 6.878ZM697.484 8.208C697.073 8.208 696.733 8.31067 696.462 8.516C696.201 8.72133 696.07 9.01067 696.07 9.384C696.07 9.79467 696.21 10.1213 696.49 10.364C696.77 10.6067 697.111 10.8167 697.512 10.994C697.895 10.826 698.221 10.6207 698.492 10.378C698.772 10.1353 698.912 9.804 698.912 9.384C698.912 9.01067 698.777 8.72133 698.506 8.516C698.245 8.31067 697.904 8.208 697.484 8.208ZM695.734 14.382C695.734 14.7927 695.879 15.1333 696.168 15.404C696.457 15.6653 696.896 15.796 697.484 15.796C698.063 15.796 698.501 15.6653 698.8 15.404C699.099 15.1427 699.248 14.802 699.248 14.382C699.248 13.962 699.08 13.612 698.744 13.332C698.408 13.052 698.011 12.8093 697.554 12.604L697.358 12.506C696.854 12.7393 696.457 13.0053 696.168 13.304C695.879 13.5933 695.734 13.9527 695.734 14.382Z" fill="white"/>
<path d="M697 24V48" stroke="#D51588"/>
<path d="M580 505V552" stroke="#D51588"/>
<circle cx="580" cy="564" r="12" fill="#D51588"/>
<path d="M583.914 563.274C583.914 563.843 583.872 564.413 583.788 564.982C583.704 565.542 583.559 566.074 583.354 566.578C583.149 567.073 582.864 567.516 582.5 567.908C582.136 568.291 581.669 568.594 581.1 568.818C580.54 569.033 579.859 569.14 579.056 569.14C578.869 569.14 578.645 569.131 578.384 569.112C578.123 569.093 577.913 569.065 577.754 569.028V567.572C578.118 567.675 578.519 567.726 578.958 567.726C579.798 567.726 580.451 567.577 580.918 567.278C581.385 566.97 581.711 566.555 581.898 566.032C582.094 565.509 582.206 564.921 582.234 564.268H582.15C581.945 564.585 581.669 564.861 581.324 565.094C580.979 565.318 580.493 565.43 579.868 565.43C579.019 565.43 578.333 565.159 577.81 564.618C577.297 564.077 577.04 563.311 577.04 562.322C577.04 561.249 577.339 560.409 577.936 559.802C578.533 559.186 579.341 558.878 580.358 558.878C581.021 558.878 581.618 559.037 582.15 559.354C582.691 559.671 583.121 560.157 583.438 560.81C583.755 561.454 583.914 562.275 583.914 563.274ZM580.386 560.334C579.91 560.334 579.523 560.493 579.224 560.81C578.925 561.127 578.776 561.622 578.776 562.294C578.776 562.845 578.902 563.279 579.154 563.596C579.415 563.904 579.812 564.058 580.344 564.058C580.708 564.058 581.025 563.983 581.296 563.834C581.567 563.675 581.772 563.475 581.912 563.232C582.061 562.989 582.136 562.742 582.136 562.49C582.136 562.145 582.071 561.809 581.94 561.482C581.809 561.155 581.613 560.885 581.352 560.67C581.1 560.446 580.778 560.334 580.386 560.334Z" fill="white"/>
<path d="M456 72H492" stroke="#D51588"/>
<circle cx="504" cy="72" r="12" fill="#D51588"/>
<path d="M507.55 69.286C507.55 69.9673 507.349 70.5133 506.948 70.924C506.556 71.3253 506.047 71.596 505.422 71.736V71.778C506.225 71.8807 506.831 72.1327 507.242 72.534C507.653 72.9353 507.858 73.4627 507.858 74.116C507.858 74.6947 507.718 75.2127 507.438 75.67C507.158 76.1273 506.724 76.4867 506.136 76.748C505.557 77.0093 504.811 77.14 503.896 77.14C503.345 77.14 502.837 77.0933 502.37 77C501.913 76.916 501.479 76.7807 501.068 76.594V75.04C501.488 75.2547 501.936 75.418 502.412 75.53C502.888 75.642 503.336 75.698 503.756 75.698C504.568 75.698 505.142 75.5533 505.478 75.264C505.814 74.9653 505.982 74.5547 505.982 74.032C505.982 73.5373 505.786 73.1687 505.394 72.926C505.002 72.6833 504.349 72.562 503.434 72.562H502.594V71.148H503.448C504.335 71.148 504.946 71.0033 505.282 70.714C505.618 70.4247 505.786 70.0513 505.786 69.594C505.786 69.1927 505.655 68.88 505.394 68.656C505.133 68.432 504.741 68.32 504.218 68.32C503.714 68.32 503.28 68.404 502.916 68.572C502.552 68.7307 502.225 68.9033 501.936 69.09L501.096 67.872C501.479 67.592 501.931 67.354 502.454 67.158C502.977 66.962 503.593 66.864 504.302 66.864C505.338 66.864 506.136 67.0833 506.696 67.522C507.265 67.9607 507.55 68.5487 507.55 69.286Z" fill="white"/>
<path d="M456 276H492" stroke="#D51588"/>
<circle cx="504" cy="276" r="12" fill="#D51588"/>
<path d="M502.174 281L506.066 272.53H500.956V271.004H507.956V272.194L504.064 281H502.174Z" fill="white"/>
<path d="M343 231H492" stroke="#D51588"/>
<circle cx="504" cy="231" r="12" fill="#D51588"/>
<path d="M501.096 231.744C501.096 231.165 501.133 230.596 501.208 230.036C501.292 229.476 501.437 228.949 501.642 228.454C501.847 227.95 502.132 227.507 502.496 227.124C502.86 226.732 503.322 226.429 503.882 226.214C504.451 225.99 505.137 225.878 505.94 225.878C506.136 225.878 506.36 225.887 506.612 225.906C506.864 225.925 507.074 225.953 507.242 225.99V227.446C506.878 227.343 506.477 227.292 506.038 227.292C505.198 227.292 504.545 227.446 504.078 227.754C503.611 228.053 503.285 228.468 503.098 229C502.911 229.523 502.799 230.111 502.762 230.764H502.846C503.042 230.437 503.322 230.162 503.686 229.938C504.05 229.705 504.521 229.588 505.1 229.588C505.968 229.588 506.663 229.859 507.186 230.4C507.709 230.941 507.97 231.711 507.97 232.71C507.97 233.783 507.671 234.623 507.074 235.23C506.477 235.837 505.669 236.14 504.652 236.14C503.989 236.14 503.387 235.981 502.846 235.664C502.314 235.347 501.889 234.866 501.572 234.222C501.255 233.569 501.096 232.743 501.096 231.744ZM504.624 234.698C505.1 234.698 505.487 234.539 505.786 234.222C506.085 233.895 506.234 233.396 506.234 232.724C506.234 232.183 506.103 231.758 505.842 231.45C505.581 231.133 505.189 230.974 504.666 230.974C504.302 230.974 503.985 231.053 503.714 231.212C503.453 231.361 503.247 231.557 503.098 231.8C502.949 232.033 502.874 232.276 502.874 232.528C502.874 232.873 502.939 233.214 503.07 233.55C503.201 233.877 503.392 234.152 503.644 234.376C503.905 234.591 504.232 234.698 504.624 234.698Z" fill="white"/>
<circle cx="192" cy="72" r="12" fill="#D51588"/>
<path d="M195.942 77H189.096V75.698L191.644 73.122C192.148 72.6087 192.559 72.17 192.876 71.806C193.203 71.442 193.441 71.1013 193.59 70.784C193.749 70.4573 193.828 70.1073 193.828 69.734C193.828 69.2767 193.697 68.936 193.436 68.712C193.184 68.4787 192.839 68.362 192.4 68.362C191.98 68.362 191.588 68.4507 191.224 68.628C190.86 68.796 190.482 69.0387 190.09 69.356L189.124 68.194C189.535 67.8393 189.997 67.5313 190.51 67.27C191.033 66.9993 191.695 66.864 192.498 66.864C193.142 66.864 193.693 66.9807 194.15 67.214C194.617 67.438 194.976 67.7553 195.228 68.166C195.48 68.5673 195.606 69.0293 195.606 69.552C195.606 70.0933 195.499 70.5927 195.284 71.05C195.069 71.498 194.757 71.9507 194.346 72.408C193.945 72.856 193.464 73.3413 192.904 73.864L191.322 75.39V75.474H195.942V77Z" fill="white"/>
<path d="M204 72H228" stroke="#D51588"/>
<circle cx="192" cy="150" r="12" fill="#D51588"/>
<path d="M196.25 152.858H194.948V155H193.212V152.858H188.76V151.542L193.254 144.976H194.948V151.416H196.25V152.858ZM193.212 151.416V149.176C193.212 148.915 193.217 148.644 193.226 148.364C193.235 148.075 193.245 147.809 193.254 147.566C193.273 147.314 193.287 147.123 193.296 146.992H193.24C193.156 147.179 193.063 147.365 192.96 147.552C192.867 147.729 192.759 147.907 192.638 148.084L190.37 151.416H193.212Z" fill="white"/>
<path d="M204 150H272" stroke="#D51588"/>
<circle cx="192" cy="231" r="12" fill="#D51588"/>
<path d="M192.568 229.714C193.203 229.714 193.763 229.831 194.248 230.064C194.733 230.297 195.111 230.638 195.382 231.086C195.662 231.525 195.802 232.066 195.802 232.71C195.802 233.783 195.466 234.623 194.794 235.23C194.131 235.837 193.17 236.14 191.91 236.14C191.387 236.14 190.893 236.093 190.426 236C189.969 235.907 189.577 235.771 189.25 235.594V234.026C189.595 234.213 190.006 234.367 190.482 234.488C190.967 234.609 191.429 234.67 191.868 234.67C192.531 234.67 193.049 234.525 193.422 234.236C193.805 233.947 193.996 233.494 193.996 232.878C193.996 232.327 193.819 231.907 193.464 231.618C193.109 231.319 192.559 231.17 191.812 231.17C191.541 231.17 191.257 231.193 190.958 231.24C190.659 231.287 190.412 231.333 190.216 231.38L189.46 230.96L189.838 226.004H195.102V227.544H191.392L191.182 229.854C191.341 229.826 191.527 229.798 191.742 229.77C191.966 229.733 192.241 229.714 192.568 229.714Z" fill="white"/>
<path d="M204 231H236" stroke="#D51588"/>
<circle cx="348" cy="12" r="12" fill="#D51588"/>
<path d="M349.968 17H348.204V10.77C348.204 10.4713 348.209 10.154 348.218 9.818C348.227 9.482 348.241 9.16933 348.26 8.88C348.167 8.97333 348.05 9.08533 347.91 9.216C347.779 9.34667 347.635 9.47267 347.476 9.594L346.356 10.49L345.474 9.398L348.498 7.004H349.968V17Z" fill="white"/>
<path d="M348 24V48" stroke="#D51588"/>
<path d="M456 505L680 505" stroke="#D51588"/>
<defs>
<clipPath id="clip0_9076_611715">
<rect width="56" height="480" fill="white" transform="translate(668 48)"/>
</clipPath>
</defs>
</svg>
