<svg width="412" height="332" viewBox="0 0 412 332" fill="none" xmlns="http://www.w3.org/2000/svg">
<rect width="412" height="332" fill="white"/>
<g clip-path="url(#clip0_9085_615151)">
<rect x="86" y="40" width="240" height="252" fill="white"/>
<rect width="240" height="48" transform="translate(86 40)" fill="white"/>
<path fill-rule="evenodd" clip-rule="evenodd" d="M107.226 57.629C105.792 57.629 104.629 58.7916 104.629 60.2258C104.629 61.66 105.792 62.8226 107.226 62.8226C108.66 62.8226 109.823 61.66 109.823 60.2258C109.823 58.7916 108.66 57.629 107.226 57.629ZM103.5 60.2258C103.5 58.1681 105.168 56.5 107.226 56.5C109.092 56.5 110.637 57.8715 110.909 59.6613H112.419C113.634 59.6613 114.565 60.5915 114.565 61.8065V69.0323C114.565 69.6237 114.989 70.0484 115.581 70.0484H117.091C117.363 68.2586 118.908 66.8871 120.774 66.8871C122.832 66.8871 124.5 68.5552 124.5 70.6129C124.5 72.6706 122.832 74.3387 120.774 74.3387C118.908 74.3387 117.363 72.9672 117.091 71.1774H115.581C114.366 71.1774 113.435 70.2473 113.435 69.0323V61.8065C113.435 61.215 113.011 60.7903 112.419 60.7903H110.909C110.637 62.5801 109.092 63.9516 107.226 63.9516C105.168 63.9516 103.5 62.2835 103.5 60.2258ZM120.774 68.0161C119.34 68.0161 118.177 69.1787 118.177 70.6129C118.177 72.0471 119.34 73.2097 120.774 73.2097C122.208 73.2097 123.371 72.0471 123.371 70.6129C123.371 69.1787 122.208 68.0161 120.774 68.0161Z" fill="#1B77AF"/>
<path d="M145.476 70.5L144.566 67.854H140.8L139.904 70.5H138L141.668 60.462H143.712L147.38 70.5H145.476ZM144.104 66.314L143.236 63.738C143.199 63.6167 143.143 63.444 143.068 63.22C142.993 62.9867 142.923 62.7533 142.858 62.52C142.793 62.2773 142.737 62.0767 142.69 61.918C142.643 62.114 142.583 62.3333 142.508 62.576C142.443 62.8187 142.377 63.0473 142.312 63.262C142.256 63.4767 142.209 63.6353 142.172 63.738L141.29 66.314H144.104ZM151.593 70.64C150.51 70.64 149.651 70.3273 149.017 69.702C148.391 69.0767 148.079 68.092 148.079 66.748C148.079 65.8147 148.233 65.0587 148.541 64.48C148.858 63.892 149.292 63.4627 149.843 63.192C150.393 62.912 151.023 62.772 151.733 62.772C152.199 62.772 152.619 62.8187 152.993 62.912C153.375 63.0053 153.697 63.1173 153.959 63.248L153.441 64.634C153.142 64.522 152.848 64.4287 152.559 64.354C152.269 64.27 151.994 64.228 151.733 64.228C150.501 64.228 149.885 65.0633 149.885 66.734C149.885 67.546 150.039 68.1573 150.347 68.568C150.664 68.9787 151.117 69.184 151.705 69.184C152.125 69.184 152.498 69.1327 152.825 69.03C153.161 68.9273 153.473 68.7873 153.763 68.61V70.136C153.473 70.3133 153.161 70.4393 152.825 70.514C152.489 70.598 152.078 70.64 151.593 70.64ZM158.606 70.64C157.524 70.64 156.665 70.3273 156.03 69.702C155.405 69.0767 155.092 68.092 155.092 66.748C155.092 65.8147 155.246 65.0587 155.554 64.48C155.872 63.892 156.306 63.4627 156.856 63.192C157.407 62.912 158.037 62.772 158.746 62.772C159.213 62.772 159.633 62.8187 160.006 62.912C160.389 63.0053 160.711 63.1173 160.972 63.248L160.454 64.634C160.156 64.522 159.862 64.4287 159.572 64.354C159.283 64.27 159.008 64.228 158.746 64.228C157.514 64.228 156.898 65.0633 156.898 66.734C156.898 67.546 157.052 68.1573 157.36 68.568C157.678 68.9787 158.13 69.184 158.718 69.184C159.138 69.184 159.512 69.1327 159.838 69.03C160.174 68.9273 160.487 68.7873 160.776 68.61V70.136C160.487 70.3133 160.174 70.4393 159.838 70.514C159.502 70.598 159.092 70.64 158.606 70.64ZM169.33 66.692C169.33 67.952 169.003 68.9273 168.35 69.618C167.697 70.2993 166.81 70.64 165.69 70.64C164.999 70.64 164.383 70.486 163.842 70.178C163.301 69.87 162.876 69.422 162.568 68.834C162.26 68.246 162.106 67.532 162.106 66.692C162.106 65.432 162.428 64.466 163.072 63.794C163.725 63.1127 164.612 62.772 165.732 62.772C166.432 62.772 167.053 62.926 167.594 63.234C168.135 63.5327 168.56 63.976 168.868 64.564C169.176 65.1427 169.33 65.852 169.33 66.692ZM163.912 66.692C163.912 67.4947 164.052 68.1153 164.332 68.554C164.621 68.9927 165.083 69.212 165.718 69.212C166.343 69.212 166.801 68.9927 167.09 68.554C167.379 68.1153 167.524 67.4947 167.524 66.692C167.524 65.8893 167.379 65.2733 167.09 64.844C166.801 64.4147 166.339 64.2 165.704 64.2C165.069 64.2 164.612 64.4147 164.332 64.844C164.052 65.2733 163.912 65.8893 163.912 66.692ZM177.888 62.912V70.5H176.502L176.264 69.52H176.18C175.937 69.912 175.601 70.1967 175.172 70.374C174.742 70.5513 174.29 70.64 173.814 70.64C172.964 70.64 172.297 70.4207 171.812 69.982C171.336 69.5433 171.098 68.8387 171.098 67.868V62.912H172.862V67.518C172.862 68.0873 172.974 68.512 173.198 68.792C173.422 69.072 173.776 69.212 174.262 69.212C174.971 69.212 175.456 68.988 175.718 68.54C175.988 68.092 176.124 67.4527 176.124 66.622V62.912H177.888ZM184.196 62.772C185.045 62.772 185.708 62.9913 186.184 63.43C186.669 63.8687 186.912 64.578 186.912 65.558V70.5H185.148V65.908C185.148 65.3387 185.036 64.914 184.812 64.634C184.588 64.3447 184.233 64.2 183.748 64.2C183.039 64.2 182.553 64.424 182.292 64.872C182.031 65.32 181.9 65.9593 181.9 66.79V70.5H180.136V62.912H181.494L181.746 63.906H181.844C182.087 63.514 182.418 63.2293 182.838 63.052C183.267 62.8653 183.72 62.772 184.196 62.772ZM192.058 69.226C192.273 69.226 192.483 69.2073 192.688 69.17C192.903 69.1233 193.099 69.072 193.276 69.016V70.332C193.09 70.4253 192.847 70.5 192.548 70.556C192.25 70.612 191.937 70.64 191.61 70.64C191.172 70.64 190.775 70.57 190.42 70.43C190.075 70.29 189.8 70.0427 189.594 69.688C189.389 69.3333 189.286 68.834 189.286 68.19V64.242H188.264V63.472L189.384 62.856L189.944 61.246H191.05V62.912H193.206V64.242H191.05V68.176C191.05 68.5307 191.144 68.7967 191.33 68.974C191.526 69.142 191.769 69.226 192.058 69.226ZM199.972 68.302C199.972 69.0673 199.697 69.6507 199.146 70.052C198.605 70.444 197.825 70.64 196.808 70.64C196.276 70.64 195.819 70.6027 195.436 70.528C195.063 70.4533 194.699 70.3367 194.344 70.178V68.68C194.717 68.8573 195.128 69.0067 195.576 69.128C196.033 69.2493 196.463 69.31 196.864 69.31C197.349 69.31 197.699 69.2353 197.914 69.086C198.129 68.9367 198.236 68.736 198.236 68.484C198.236 68.3347 198.194 68.204 198.11 68.092C198.026 67.9707 197.863 67.84 197.62 67.7C197.377 67.56 197.009 67.3873 196.514 67.182C196.029 66.986 195.623 66.79 195.296 66.594C194.979 66.398 194.736 66.1647 194.568 65.894C194.409 65.6233 194.33 65.2733 194.33 64.844C194.33 64.1627 194.601 63.6493 195.142 63.304C195.683 62.9493 196.397 62.772 197.284 62.772C197.751 62.772 198.189 62.8187 198.6 62.912C199.02 63.0053 199.44 63.1453 199.86 63.332L199.3 64.634C198.945 64.4847 198.6 64.3587 198.264 64.256C197.928 64.1533 197.583 64.102 197.228 64.102C196.453 64.102 196.066 64.3213 196.066 64.76C196.066 64.9187 196.113 65.054 196.206 65.166C196.309 65.278 196.481 65.3993 196.724 65.53C196.976 65.6513 197.331 65.8007 197.788 65.978C198.236 66.1553 198.623 66.342 198.95 66.538C199.277 66.7247 199.529 66.958 199.706 67.238C199.883 67.5087 199.972 67.8633 199.972 68.302Z" fill="#1B77AF"/>
<path d="M302.012 67.3625C301.912 67.3625 301.812 67.3125 301.762 67.2625L296.113 61.6625C295.962 61.5125 295.962 61.2625 296.113 61.1125C296.263 60.9625 296.512 60.9625 296.662 61.1125L302.012 66.4625L307.312 61.1125C307.462 60.9625 307.713 60.9625 307.863 61.1125C308.012 61.2625 308.012 61.5125 307.863 61.6625L302.262 67.2625C302.162 67.3125 302.112 67.3625 302.012 67.3625Z" fill="black"/>
<rect x="86" y="40" width="2" height="48" fill="#1B77AF"/>
<rect width="240" height="36" transform="translate(86 88)" fill="white"/>
<circle cx="122" cy="106" r="4" fill="#1B77AF"/>
<path d="M148.234 105.988C148.234 107.024 148.061 107.929 147.716 108.704C147.38 109.469 146.862 110.067 146.162 110.496C145.462 110.925 144.585 111.14 143.53 111.14C142.457 111.14 141.575 110.925 140.884 110.496C140.193 110.067 139.675 109.465 139.33 108.69C138.994 107.915 138.826 107.01 138.826 105.974C138.826 104.947 138.994 104.051 139.33 103.286C139.675 102.511 140.193 101.914 140.884 101.494C141.584 101.065 142.471 100.85 143.544 100.85C144.599 100.85 145.471 101.065 146.162 101.494C146.862 101.914 147.38 102.511 147.716 103.286C148.061 104.051 148.234 104.952 148.234 105.988ZM140.716 105.988C140.716 107.117 140.94 108.004 141.388 108.648C141.845 109.292 142.559 109.614 143.53 109.614C144.529 109.614 145.247 109.292 145.686 108.648C146.125 108.004 146.344 107.117 146.344 105.988C146.344 104.859 146.125 103.972 145.686 103.328C145.247 102.684 144.533 102.362 143.544 102.362C142.564 102.362 141.845 102.684 141.388 103.328C140.94 103.972 140.716 104.859 140.716 105.988ZM151.945 111L149.061 103.412H150.923L152.435 107.794C152.537 108.065 152.626 108.363 152.701 108.69C152.775 109.017 152.822 109.292 152.841 109.516H152.897C152.925 109.273 152.981 108.993 153.065 108.676C153.149 108.359 153.237 108.065 153.331 107.794L154.843 103.412H156.705L153.821 111H151.945ZM160.889 103.272C161.906 103.272 162.709 103.575 163.297 104.182C163.894 104.789 164.193 105.633 164.193 106.716V107.612H159.181C159.2 108.303 159.391 108.839 159.755 109.222C160.119 109.595 160.623 109.782 161.267 109.782C161.752 109.782 162.191 109.735 162.583 109.642C162.975 109.539 163.376 109.395 163.787 109.208V110.622C163.414 110.799 163.026 110.93 162.625 111.014C162.224 111.098 161.743 111.14 161.183 111.14C160.436 111.14 159.778 111 159.209 110.72C158.64 110.431 158.192 110.001 157.865 109.432C157.548 108.853 157.389 108.13 157.389 107.262C157.389 105.965 157.706 104.975 158.341 104.294C158.985 103.613 159.834 103.272 160.889 103.272ZM160.889 104.574C160.413 104.574 160.026 104.728 159.727 105.036C159.438 105.335 159.27 105.783 159.223 106.38H162.485C162.476 105.857 162.34 105.428 162.079 105.092C161.827 104.747 161.43 104.574 160.889 104.574ZM169.948 103.272C170.069 103.272 170.205 103.281 170.354 103.3C170.503 103.309 170.625 103.323 170.718 103.342L170.564 104.98C170.471 104.961 170.354 104.947 170.214 104.938C170.083 104.919 169.971 104.91 169.878 104.91C169.505 104.91 169.155 104.989 168.828 105.148C168.501 105.297 168.235 105.531 168.03 105.848C167.834 106.165 167.736 106.571 167.736 107.066V111H165.972V103.412H167.33L167.582 104.728H167.666C167.89 104.327 168.198 103.986 168.59 103.706C168.982 103.417 169.435 103.272 169.948 103.272ZM173.874 111L170.99 103.412H172.852L174.364 107.794C174.467 108.065 174.556 108.363 174.63 108.69C174.705 109.017 174.752 109.292 174.77 109.516H174.826C174.854 109.273 174.91 108.993 174.994 108.676C175.078 108.359 175.167 108.065 175.26 107.794L176.772 103.412H178.634L175.75 111H173.874ZM180.649 100.486C180.91 100.486 181.139 100.556 181.335 100.696C181.531 100.827 181.629 101.065 181.629 101.41C181.629 101.755 181.531 101.998 181.335 102.138C181.139 102.278 180.91 102.348 180.649 102.348C180.378 102.348 180.145 102.278 179.949 102.138C179.762 101.998 179.669 101.755 179.669 101.41C179.669 101.065 179.762 100.827 179.949 100.696C180.145 100.556 180.378 100.486 180.649 100.486ZM181.531 103.412V111H179.767V103.412H181.531ZM186.838 103.272C187.856 103.272 188.658 103.575 189.246 104.182C189.844 104.789 190.142 105.633 190.142 106.716V107.612H185.13C185.149 108.303 185.34 108.839 185.704 109.222C186.068 109.595 186.572 109.782 187.216 109.782C187.702 109.782 188.14 109.735 188.532 109.642C188.924 109.539 189.326 109.395 189.736 109.208V110.622C189.363 110.799 188.976 110.93 188.574 111.014C188.173 111.098 187.692 111.14 187.132 111.14C186.386 111.14 185.728 111 185.158 110.72C184.589 110.431 184.141 110.001 183.814 109.432C183.497 108.853 183.338 108.13 183.338 107.262C183.338 105.965 183.656 104.975 184.29 104.294C184.934 103.613 185.784 103.272 186.838 103.272ZM186.838 104.574C186.362 104.574 185.975 104.728 185.676 105.036C185.387 105.335 185.219 105.783 185.172 106.38H188.434C188.425 105.857 188.29 105.428 188.028 105.092C187.776 104.747 187.38 104.574 186.838 104.574ZM197.864 111L197.024 107.738C196.977 107.57 196.921 107.351 196.856 107.08C196.79 106.809 196.72 106.529 196.646 106.24C196.58 105.951 196.52 105.685 196.464 105.442C196.408 105.19 196.366 105.003 196.338 104.882H196.282C196.254 105.003 196.212 105.19 196.156 105.442C196.1 105.685 196.034 105.951 195.96 106.24C195.894 106.529 195.829 106.809 195.764 107.08C195.698 107.351 195.642 107.575 195.596 107.752L194.714 111H192.782L190.654 103.398H192.432L193.37 107.024C193.435 107.276 193.496 107.556 193.552 107.864C193.617 108.172 193.673 108.466 193.72 108.746C193.766 109.026 193.799 109.255 193.818 109.432H193.874C193.892 109.264 193.925 109.035 193.972 108.746C194.028 108.457 194.084 108.177 194.14 107.906C194.196 107.626 194.242 107.416 194.28 107.276L195.372 103.398H197.304L198.354 107.276C198.391 107.444 198.438 107.663 198.494 107.934C198.559 108.205 198.615 108.475 198.662 108.746C198.708 109.017 198.736 109.241 198.746 109.418H198.802C198.82 109.259 198.853 109.045 198.9 108.774C198.946 108.494 199.002 108.2 199.068 107.892C199.133 107.575 199.203 107.285 199.278 107.024L200.23 103.398H201.98L199.824 111H197.864Z" fill="#1B77AF"/>
<rect width="240" height="36" transform="translate(86 124)" fill="white"/>
<path d="M139.358 137.004H142.214C143.455 137.004 144.398 137.191 145.042 137.564C145.686 137.937 146.008 138.577 146.008 139.482C146.008 140.07 145.845 140.56 145.518 140.952C145.191 141.335 144.72 141.582 144.104 141.694V141.764C144.524 141.839 144.902 141.965 145.238 142.142C145.583 142.319 145.854 142.571 146.05 142.898C146.246 143.225 146.344 143.645 146.344 144.158C146.344 145.063 146.031 145.763 145.406 146.258C144.79 146.753 143.945 147 142.872 147H139.358V137.004ZM140.618 141.26H142.466C143.315 141.26 143.899 141.125 144.216 140.854C144.543 140.574 144.706 140.163 144.706 139.622C144.706 139.071 144.51 138.679 144.118 138.446C143.735 138.203 143.119 138.082 142.27 138.082H140.618V141.26ZM140.618 142.31V145.936H142.634C143.521 145.936 144.137 145.763 144.482 145.418C144.827 145.073 145 144.62 145 144.06C145 143.537 144.818 143.117 144.454 142.8C144.099 142.473 143.46 142.31 142.536 142.31H140.618ZM148.925 136.682C149.112 136.682 149.275 136.747 149.415 136.878C149.565 136.999 149.639 137.195 149.639 137.466C149.639 137.737 149.565 137.937 149.415 138.068C149.275 138.189 149.112 138.25 148.925 138.25C148.72 138.25 148.547 138.189 148.407 138.068C148.267 137.937 148.197 137.737 148.197 137.466C148.197 137.195 148.267 136.999 148.407 136.878C148.547 136.747 148.72 136.682 148.925 136.682ZM149.527 139.496V147H148.295V139.496H149.527ZM153.137 147H151.905V136.36H153.137V147ZM156.746 147H155.514V136.36H156.746V147ZM159.754 136.682C159.94 136.682 160.104 136.747 160.244 136.878C160.393 136.999 160.468 137.195 160.468 137.466C160.468 137.737 160.393 137.937 160.244 138.068C160.104 138.189 159.94 138.25 159.754 138.25C159.548 138.25 159.376 138.189 159.236 138.068C159.096 137.937 159.026 137.737 159.026 137.466C159.026 137.195 159.096 136.999 159.236 136.878C159.376 136.747 159.548 136.682 159.754 136.682ZM160.356 139.496V147H159.124V139.496H160.356ZM166.345 139.356C167.241 139.356 167.918 139.575 168.375 140.014C168.832 140.453 169.061 141.153 169.061 142.114V147H167.843V142.198C167.843 140.994 167.283 140.392 166.163 140.392C165.332 140.392 164.758 140.625 164.441 141.092C164.124 141.559 163.965 142.231 163.965 143.108V147H162.733V139.496H163.727L163.909 140.518H163.979C164.222 140.126 164.558 139.837 164.987 139.65C165.416 139.454 165.869 139.356 166.345 139.356ZM174.047 139.356C174.542 139.356 174.985 139.449 175.377 139.636C175.779 139.823 176.119 140.107 176.399 140.49H176.469L176.637 139.496H177.617V147.126C177.617 148.199 177.342 149.007 176.791 149.548C176.25 150.089 175.405 150.36 174.257 150.36C173.156 150.36 172.255 150.201 171.555 149.884V148.75C172.293 149.142 173.217 149.338 174.327 149.338C174.971 149.338 175.475 149.147 175.839 148.764C176.213 148.391 176.399 147.877 176.399 147.224V146.93C176.399 146.818 176.404 146.659 176.413 146.454C176.423 146.239 176.432 146.09 176.441 146.006H176.385C175.881 146.762 175.107 147.14 174.061 147.14C173.091 147.14 172.33 146.799 171.779 146.118C171.238 145.437 170.967 144.485 170.967 143.262C170.967 142.067 171.238 141.12 171.779 140.42C172.33 139.711 173.086 139.356 174.047 139.356ZM174.215 140.392C173.59 140.392 173.105 140.644 172.759 141.148C172.414 141.643 172.241 142.352 172.241 143.276C172.241 144.2 172.409 144.909 172.745 145.404C173.081 145.889 173.581 146.132 174.243 146.132C174.999 146.132 175.55 145.931 175.895 145.53C176.241 145.119 176.413 144.461 176.413 143.556V143.262C176.413 142.245 176.236 141.512 175.881 141.064C175.527 140.616 174.971 140.392 174.215 140.392Z" fill="#323232"/>
<rect width="240" height="36" transform="translate(86 160)" fill="white"/>
<path d="M142.004 173.004C143.311 173.004 144.263 173.261 144.86 173.774C145.457 174.287 145.756 175.011 145.756 175.944C145.756 176.495 145.63 177.013 145.378 177.498C145.135 177.974 144.72 178.361 144.132 178.66C143.553 178.959 142.765 179.108 141.766 179.108H140.618V183H139.358V173.004H142.004ZM141.892 174.082H140.618V178.03H141.626C142.578 178.03 143.287 177.876 143.754 177.568C144.221 177.26 144.454 176.737 144.454 176C144.454 175.356 144.244 174.875 143.824 174.558C143.413 174.241 142.769 174.082 141.892 174.082ZM150.509 175.37C151.423 175.37 152.1 175.571 152.539 175.972C152.977 176.373 153.197 177.013 153.197 177.89V183H152.301L152.063 181.936H152.007C151.68 182.347 151.335 182.65 150.971 182.846C150.607 183.042 150.112 183.14 149.487 183.14C148.805 183.14 148.241 182.963 147.793 182.608C147.345 182.244 147.121 181.679 147.121 180.914C147.121 180.167 147.415 179.593 148.003 179.192C148.591 178.781 149.496 178.557 150.719 178.52L151.993 178.478V178.03C151.993 177.405 151.857 176.971 151.587 176.728C151.316 176.485 150.933 176.364 150.439 176.364C150.047 176.364 149.673 176.425 149.319 176.546C148.964 176.658 148.633 176.789 148.325 176.938L147.947 176.014C148.273 175.837 148.661 175.687 149.109 175.566C149.557 175.435 150.023 175.37 150.509 175.37ZM151.979 179.332L150.873 179.374C149.939 179.411 149.291 179.561 148.927 179.822C148.572 180.083 148.395 180.452 148.395 180.928C148.395 181.348 148.521 181.656 148.773 181.852C149.034 182.048 149.365 182.146 149.767 182.146C150.392 182.146 150.915 181.973 151.335 181.628C151.764 181.273 151.979 180.732 151.979 180.004V179.332ZM154.338 175.496H155.654L157.278 179.766C157.418 180.149 157.544 180.508 157.656 180.844C157.768 181.18 157.852 181.502 157.908 181.81H157.964C158.02 181.577 158.109 181.273 158.23 180.9C158.352 180.517 158.478 180.135 158.608 179.752L160.134 175.496H161.464L158.23 184.036C157.96 184.745 157.619 185.31 157.208 185.73C156.798 186.15 156.228 186.36 155.5 186.36C155.276 186.36 155.08 186.346 154.912 186.318C154.744 186.299 154.6 186.276 154.478 186.248V185.268C154.581 185.287 154.702 185.305 154.842 185.324C154.992 185.343 155.146 185.352 155.304 185.352C155.734 185.352 156.079 185.231 156.34 184.988C156.602 184.745 156.812 184.423 156.97 184.022L157.362 183.028L154.338 175.496ZM170.883 175.356C171.732 175.356 172.367 175.575 172.787 176.014C173.207 176.453 173.417 177.153 173.417 178.114V183H172.199V178.17C172.199 176.985 171.69 176.392 170.673 176.392C169.945 176.392 169.422 176.602 169.105 177.022C168.797 177.442 168.643 178.053 168.643 178.856V183H167.425V178.17C167.425 176.985 166.912 176.392 165.885 176.392C165.129 176.392 164.606 176.625 164.317 177.092C164.028 177.559 163.883 178.231 163.883 179.108V183H162.651V175.496H163.645L163.827 176.518H163.897C164.13 176.126 164.443 175.837 164.835 175.65C165.236 175.454 165.661 175.356 166.109 175.356C167.285 175.356 168.05 175.776 168.405 176.616H168.475C168.727 176.187 169.068 175.869 169.497 175.664C169.926 175.459 170.388 175.356 170.883 175.356ZM178.633 175.356C179.268 175.356 179.818 175.496 180.285 175.776C180.752 176.056 181.106 176.453 181.349 176.966C181.601 177.47 181.727 178.063 181.727 178.744V179.486H176.589C176.608 180.335 176.822 180.984 177.233 181.432C177.653 181.871 178.236 182.09 178.983 182.09C179.459 182.09 179.879 182.048 180.243 181.964C180.616 181.871 180.999 181.74 181.391 181.572V182.65C181.008 182.818 180.63 182.939 180.257 183.014C179.884 183.098 179.44 183.14 178.927 183.14C178.208 183.14 177.578 182.995 177.037 182.706C176.496 182.417 176.071 181.987 175.763 181.418C175.464 180.849 175.315 180.144 175.315 179.304C175.315 178.483 175.45 177.778 175.721 177.19C176.001 176.602 176.388 176.149 176.883 175.832C177.387 175.515 177.97 175.356 178.633 175.356ZM178.619 176.364C178.031 176.364 177.564 176.555 177.219 176.938C176.883 177.311 176.682 177.834 176.617 178.506H180.439C180.43 177.871 180.28 177.358 179.991 176.966C179.702 176.565 179.244 176.364 178.619 176.364ZM187.249 175.356C188.145 175.356 188.822 175.575 189.279 176.014C189.737 176.453 189.965 177.153 189.965 178.114V183H188.747V178.198C188.747 176.994 188.187 176.392 187.067 176.392C186.237 176.392 185.663 176.625 185.345 177.092C185.028 177.559 184.869 178.231 184.869 179.108V183H183.637V175.496H184.631L184.813 176.518H184.883C185.126 176.126 185.462 175.837 185.891 175.65C186.321 175.454 186.773 175.356 187.249 175.356ZM194.798 182.132C194.984 182.132 195.176 182.118 195.372 182.09C195.568 182.062 195.726 182.025 195.848 181.978V182.916C195.717 182.981 195.53 183.033 195.288 183.07C195.045 183.117 194.812 183.14 194.588 183.14C194.196 183.14 193.832 183.075 193.496 182.944C193.169 182.804 192.903 182.566 192.698 182.23C192.492 181.894 192.39 181.423 192.39 180.816V176.448H191.326V175.86L192.404 175.37L192.894 173.774H193.622V175.496H195.792V176.448H193.622V180.788C193.622 181.245 193.729 181.586 193.944 181.81C194.168 182.025 194.452 182.132 194.798 182.132ZM202.236 180.928C202.236 181.656 201.965 182.207 201.424 182.58C200.883 182.953 200.155 183.14 199.24 183.14C198.717 183.14 198.265 183.098 197.882 183.014C197.509 182.93 197.177 182.813 196.888 182.664V181.544C197.187 181.693 197.546 181.833 197.966 181.964C198.395 182.085 198.829 182.146 199.268 182.146C199.893 182.146 200.346 182.048 200.626 181.852C200.906 181.647 201.046 181.376 201.046 181.04C201.046 180.853 200.995 180.685 200.892 180.536C200.789 180.387 200.603 180.237 200.332 180.088C200.071 179.939 199.693 179.771 199.198 179.584C198.713 179.397 198.297 179.211 197.952 179.024C197.607 178.837 197.341 178.613 197.154 178.352C196.967 178.091 196.874 177.755 196.874 177.344C196.874 176.709 197.131 176.219 197.644 175.874C198.167 175.529 198.848 175.356 199.688 175.356C200.145 175.356 200.57 175.403 200.962 175.496C201.363 175.589 201.737 175.711 202.082 175.86L201.662 176.84C201.345 176.709 201.013 176.597 200.668 176.504C200.323 176.411 199.968 176.364 199.604 176.364C199.1 176.364 198.713 176.448 198.442 176.616C198.181 176.775 198.05 176.994 198.05 177.274C198.05 177.489 198.111 177.666 198.232 177.806C198.353 177.946 198.554 178.086 198.834 178.226C199.123 178.366 199.506 178.525 199.982 178.702C200.458 178.879 200.864 179.061 201.2 179.248C201.536 179.435 201.793 179.663 201.97 179.934C202.147 180.195 202.236 180.527 202.236 180.928Z" fill="#323232"/>
<rect width="240" height="48" transform="translate(86 196)" fill="white"/>
<path d="M122.737 222.288H114.712V214.262C114.712 213.955 114.457 213.7 114.15 213.7C109.102 213.7 105 217.803 105 222.85C105 227.898 109.102 232 114.15 232C119.198 232 123.3 227.898 123.3 222.85C123.3 222.543 123.045 222.288 122.737 222.288ZM106.125 222.85C106.125 218.613 109.425 215.133 113.587 214.848V222.618L108.098 228.108C106.875 226.697 106.125 224.86 106.125 222.85ZM114.15 230.875C112.14 230.875 110.303 230.125 108.892 228.903L114.382 223.412H122.153C121.868 227.575 118.387 230.875 114.15 230.875Z" fill="#323232"/>
<path d="M117.03 220.825C117.338 220.825 117.593 220.57 117.593 220.263V214.262C117.593 213.955 117.338 213.7 117.03 213.7C116.723 213.7 116.467 213.955 116.467 214.262V220.263C116.467 220.57 116.723 220.825 117.03 220.825Z" fill="#323232"/>
<path d="M119.888 220.825C120.195 220.825 120.45 220.57 120.45 220.263V211.562C120.45 211.255 120.195 211 119.888 211C119.58 211 119.325 211.255 119.325 211.562V220.263C119.325 220.57 119.573 220.825 119.888 220.825Z" fill="#323232"/>
<path d="M122.737 215.965C122.43 215.965 122.175 216.22 122.175 216.528V220.255C122.175 220.562 122.43 220.818 122.737 220.818C123.045 220.818 123.3 220.562 123.3 220.255V216.535C123.3 216.22 123.045 215.965 122.737 215.965Z" fill="#323232"/>
<path d="M145.63 226.5L144.426 223.406H140.464L139.274 226.5H138L141.906 216.462H143.04L146.932 226.5H145.63ZM144.048 222.286L142.928 219.262C142.9 219.187 142.853 219.052 142.788 218.856C142.723 218.66 142.657 218.459 142.592 218.254C142.536 218.039 142.489 217.876 142.452 217.764C142.377 218.053 142.298 218.338 142.214 218.618C142.139 218.889 142.074 219.103 142.018 219.262L140.884 222.286H144.048ZM151.743 218.856C152.639 218.856 153.316 219.075 153.773 219.514C154.231 219.953 154.459 220.653 154.459 221.614V226.5H153.241V221.698C153.241 220.494 152.681 219.892 151.561 219.892C150.731 219.892 150.157 220.125 149.839 220.592C149.522 221.059 149.363 221.731 149.363 222.608V226.5H148.131V218.996H149.125L149.307 220.018H149.377C149.62 219.626 149.956 219.337 150.385 219.15C150.815 218.954 151.267 218.856 151.743 218.856ZM159.628 218.87C160.542 218.87 161.219 219.071 161.658 219.472C162.096 219.873 162.316 220.513 162.316 221.39V226.5H161.42L161.182 225.436H161.126C160.799 225.847 160.454 226.15 160.09 226.346C159.726 226.542 159.231 226.64 158.606 226.64C157.924 226.64 157.36 226.463 156.912 226.108C156.464 225.744 156.24 225.179 156.24 224.414C156.24 223.667 156.534 223.093 157.122 222.692C157.71 222.281 158.615 222.057 159.838 222.02L161.112 221.978V221.53C161.112 220.905 160.976 220.471 160.706 220.228C160.435 219.985 160.052 219.864 159.558 219.864C159.166 219.864 158.792 219.925 158.438 220.046C158.083 220.158 157.752 220.289 157.444 220.438L157.066 219.514C157.392 219.337 157.78 219.187 158.228 219.066C158.676 218.935 159.142 218.87 159.628 218.87ZM161.098 222.832L159.992 222.874C159.058 222.911 158.41 223.061 158.046 223.322C157.691 223.583 157.514 223.952 157.514 224.428C157.514 224.848 157.64 225.156 157.892 225.352C158.153 225.548 158.484 225.646 158.886 225.646C159.511 225.646 160.034 225.473 160.454 225.128C160.883 224.773 161.098 224.232 161.098 223.504V222.832ZM165.865 226.5H164.633V215.86H165.865V226.5ZM167.067 218.996H168.383L170.007 223.266C170.147 223.649 170.273 224.008 170.385 224.344C170.497 224.68 170.581 225.002 170.637 225.31H170.693C170.749 225.077 170.837 224.773 170.959 224.4C171.08 224.017 171.206 223.635 171.337 223.252L172.863 218.996H174.193L170.959 227.536C170.688 228.245 170.347 228.81 169.937 229.23C169.526 229.65 168.957 229.86 168.229 229.86C168.005 229.86 167.809 229.846 167.641 229.818C167.473 229.799 167.328 229.776 167.207 229.748V228.768C167.309 228.787 167.431 228.805 167.571 228.824C167.72 228.843 167.874 228.852 168.033 228.852C168.462 228.852 168.807 228.731 169.069 228.488C169.33 228.245 169.54 227.923 169.699 227.522L170.091 226.528L167.067 218.996ZM177.885 225.632C178.072 225.632 178.263 225.618 178.459 225.59C178.655 225.562 178.814 225.525 178.935 225.478V226.416C178.805 226.481 178.618 226.533 178.375 226.57C178.133 226.617 177.899 226.64 177.675 226.64C177.283 226.64 176.919 226.575 176.583 226.444C176.257 226.304 175.991 226.066 175.785 225.73C175.58 225.394 175.477 224.923 175.477 224.316V219.948H174.413V219.36L175.491 218.87L175.981 217.274H176.709V218.996H178.879V219.948H176.709V224.288C176.709 224.745 176.817 225.086 177.031 225.31C177.255 225.525 177.54 225.632 177.885 225.632ZM181.068 216.182C181.255 216.182 181.418 216.247 181.558 216.378C181.707 216.499 181.782 216.695 181.782 216.966C181.782 217.237 181.707 217.437 181.558 217.568C181.418 217.689 181.255 217.75 181.068 217.75C180.863 217.75 180.69 217.689 180.55 217.568C180.41 217.437 180.34 217.237 180.34 216.966C180.34 216.695 180.41 216.499 180.55 216.378C180.69 216.247 180.863 216.182 181.068 216.182ZM181.67 218.996V226.5H180.438V218.996H181.67ZM187.057 226.64C186.385 226.64 185.793 226.505 185.279 226.234C184.766 225.963 184.36 225.543 184.061 224.974C183.772 224.405 183.627 223.677 183.627 222.79C183.627 221.866 183.777 221.115 184.075 220.536C184.383 219.957 184.803 219.533 185.335 219.262C185.867 218.991 186.469 218.856 187.141 218.856C187.515 218.856 187.879 218.898 188.233 218.982C188.597 219.057 188.891 219.15 189.115 219.262L188.737 220.284C188.513 220.2 188.252 220.121 187.953 220.046C187.655 219.971 187.375 219.934 187.113 219.934C185.639 219.934 184.901 220.881 184.901 222.776C184.901 223.681 185.079 224.377 185.433 224.862C185.797 225.338 186.334 225.576 187.043 225.576C187.445 225.576 187.804 225.534 188.121 225.45C188.439 225.366 188.728 225.263 188.989 225.142V226.234C188.737 226.365 188.457 226.463 188.149 226.528C187.851 226.603 187.487 226.64 187.057 226.64ZM195.66 224.428C195.66 225.156 195.389 225.707 194.848 226.08C194.307 226.453 193.579 226.64 192.664 226.64C192.141 226.64 191.689 226.598 191.306 226.514C190.933 226.43 190.601 226.313 190.312 226.164V225.044C190.611 225.193 190.97 225.333 191.39 225.464C191.819 225.585 192.253 225.646 192.692 225.646C193.317 225.646 193.77 225.548 194.05 225.352C194.33 225.147 194.47 224.876 194.47 224.54C194.47 224.353 194.419 224.185 194.316 224.036C194.213 223.887 194.027 223.737 193.756 223.588C193.495 223.439 193.117 223.271 192.622 223.084C192.137 222.897 191.721 222.711 191.376 222.524C191.031 222.337 190.765 222.113 190.578 221.852C190.391 221.591 190.298 221.255 190.298 220.844C190.298 220.209 190.555 219.719 191.068 219.374C191.591 219.029 192.272 218.856 193.112 218.856C193.569 218.856 193.994 218.903 194.386 218.996C194.787 219.089 195.161 219.211 195.506 219.36L195.086 220.34C194.769 220.209 194.437 220.097 194.092 220.004C193.747 219.911 193.392 219.864 193.028 219.864C192.524 219.864 192.137 219.948 191.866 220.116C191.605 220.275 191.474 220.494 191.474 220.774C191.474 220.989 191.535 221.166 191.656 221.306C191.777 221.446 191.978 221.586 192.258 221.726C192.547 221.866 192.93 222.025 193.406 222.202C193.882 222.379 194.288 222.561 194.624 222.748C194.96 222.935 195.217 223.163 195.394 223.434C195.571 223.695 195.66 224.027 195.66 224.428Z" fill="#323232"/>
<rect width="240" height="48" transform="translate(86 244)" fill="white"/>
<path fill-rule="evenodd" clip-rule="evenodd" d="M118.912 263.65C117.691 263.65 116.7 264.641 116.7 265.863C116.7 267.084 117.691 268.075 118.912 268.075C120.134 268.075 121.125 267.084 121.125 265.863C121.125 264.641 120.134 263.65 118.912 263.65ZM115.575 265.863C115.575 264.019 117.069 262.525 118.912 262.525C120.756 262.525 122.25 264.019 122.25 265.863C122.25 267.706 120.756 269.2 118.912 269.2C117.069 269.2 115.575 267.706 115.575 265.863Z" fill="#323232"/>
<path d="M116.434 271.852C117.131 271.413 117.962 271.15 118.837 271.15C121.371 271.15 123.375 273.218 123.375 275.688V276.438C123.375 276.748 123.627 277 123.937 277C124.248 277 124.5 276.748 124.5 276.437V275.688C124.5 272.607 122.003 270.025 118.837 270.025C117.71 270.025 116.648 270.37 115.765 270.945C116.01 271.23 116.234 271.533 116.434 271.852Z" fill="#323232"/>
<path fill-rule="evenodd" clip-rule="evenodd" d="M103.5 275.838C103.5 272.227 106.452 269.275 110.062 269.275C113.673 269.275 116.625 272.227 116.625 275.838V278.313C116.625 278.623 116.373 278.875 116.062 278.875C115.752 278.875 115.5 278.623 115.5 278.313V275.838C115.5 272.848 113.052 270.4 110.062 270.4C107.073 270.4 104.625 272.848 104.625 275.838V278.313C104.625 278.623 104.373 278.875 104.062 278.875C103.752 278.875 103.5 278.623 103.5 278.313V275.838Z" fill="#323232"/>
<path fill-rule="evenodd" clip-rule="evenodd" d="M110.062 261.625C108.551 261.625 107.325 262.851 107.325 264.363C107.325 265.874 108.551 267.1 110.062 267.1C111.574 267.1 112.8 265.874 112.8 264.363C112.8 262.851 111.574 261.625 110.062 261.625ZM106.2 264.363C106.2 262.229 107.929 260.5 110.062 260.5C112.196 260.5 113.925 262.229 113.925 264.363C113.925 266.496 112.196 268.225 110.062 268.225C107.929 268.225 106.2 266.496 106.2 264.363Z" fill="#323232"/>
<path d="M143.698 269.222H147.156V274.122C146.615 274.299 146.069 274.43 145.518 274.514C144.967 274.598 144.342 274.64 143.642 274.64C142.606 274.64 141.733 274.435 141.024 274.024C140.315 273.604 139.773 273.011 139.4 272.246C139.036 271.471 138.854 270.557 138.854 269.502C138.854 268.466 139.055 267.565 139.456 266.8C139.867 266.025 140.459 265.428 141.234 265.008C142.009 264.579 142.942 264.364 144.034 264.364C144.594 264.364 145.121 264.415 145.616 264.518C146.12 264.621 146.587 264.765 147.016 264.952L146.54 266.044C146.185 265.895 145.784 265.764 145.336 265.652C144.897 265.531 144.44 265.47 143.964 265.47C142.769 265.47 141.836 265.834 141.164 266.562C140.501 267.281 140.17 268.261 140.17 269.502C140.17 270.295 140.296 271 140.548 271.616C140.809 272.223 141.215 272.699 141.766 273.044C142.317 273.38 143.04 273.548 143.936 273.548C144.375 273.548 144.748 273.525 145.056 273.478C145.364 273.431 145.644 273.375 145.896 273.31V270.342H143.698V269.222ZM152.876 266.856C153.016 266.856 153.165 266.865 153.324 266.884C153.482 266.893 153.627 266.912 153.758 266.94L153.604 268.074C153.482 268.046 153.347 268.023 153.198 268.004C153.048 267.985 152.913 267.976 152.792 267.976C152.409 267.976 152.05 268.083 151.714 268.298C151.378 268.503 151.107 268.797 150.902 269.18C150.706 269.553 150.608 269.992 150.608 270.496V274.5H149.376V266.996H150.384L150.524 268.368H150.58C150.813 267.957 151.121 267.603 151.504 267.304C151.896 267.005 152.353 266.856 152.876 266.856ZM161.409 270.734C161.409 271.975 161.092 272.937 160.457 273.618C159.832 274.299 158.983 274.64 157.909 274.64C157.247 274.64 156.654 274.491 156.131 274.192C155.618 273.884 155.212 273.441 154.913 272.862C154.615 272.274 154.465 271.565 154.465 270.734C154.465 269.493 154.773 268.536 155.389 267.864C156.015 267.192 156.869 266.856 157.951 266.856C158.623 266.856 159.221 267.01 159.743 267.318C160.266 267.617 160.672 268.055 160.961 268.634C161.26 269.203 161.409 269.903 161.409 270.734ZM155.739 270.734C155.739 271.621 155.912 272.325 156.257 272.848C156.612 273.361 157.172 273.618 157.937 273.618C158.693 273.618 159.249 273.361 159.603 272.848C159.958 272.325 160.135 271.621 160.135 270.734C160.135 269.847 159.958 269.152 159.603 268.648C159.249 268.144 158.689 267.892 157.923 267.892C157.158 267.892 156.603 268.144 156.257 268.648C155.912 269.152 155.739 269.847 155.739 270.734ZM169.634 266.996V274.5H168.626L168.444 273.506H168.388C168.145 273.898 167.809 274.187 167.38 274.374C166.951 274.551 166.493 274.64 166.008 274.64C165.103 274.64 164.421 274.425 163.964 273.996C163.507 273.557 163.278 272.862 163.278 271.91V266.996H164.524V271.826C164.524 273.021 165.079 273.618 166.19 273.618C167.021 273.618 167.595 273.385 167.912 272.918C168.239 272.451 168.402 271.779 168.402 270.902V266.996H169.634ZM175.586 266.856C176.51 266.856 177.252 267.178 177.812 267.822C178.382 268.466 178.666 269.437 178.666 270.734C178.666 272.013 178.382 272.983 177.812 273.646C177.252 274.309 176.506 274.64 175.572 274.64C174.994 274.64 174.513 274.533 174.13 274.318C173.757 274.103 173.463 273.847 173.248 273.548H173.164C173.174 273.707 173.188 273.907 173.206 274.15C173.234 274.393 173.248 274.603 173.248 274.78V277.86H172.016V266.996H173.024L173.192 268.018H173.248C173.472 267.691 173.766 267.416 174.13 267.192C174.494 266.968 174.98 266.856 175.586 266.856ZM175.362 267.892C174.597 267.892 174.056 268.107 173.738 268.536C173.421 268.965 173.258 269.619 173.248 270.496V270.734C173.248 271.658 173.398 272.372 173.696 272.876C174.004 273.371 174.569 273.618 175.39 273.618C175.838 273.618 176.212 273.497 176.51 273.254C176.809 273.002 177.028 272.657 177.168 272.218C177.318 271.779 177.392 271.28 177.392 270.72C177.392 269.861 177.224 269.175 176.888 268.662C176.562 268.149 176.053 267.892 175.362 267.892ZM185.515 272.428C185.515 273.156 185.245 273.707 184.703 274.08C184.162 274.453 183.434 274.64 182.519 274.64C181.997 274.64 181.544 274.598 181.161 274.514C180.788 274.43 180.457 274.313 180.167 274.164V273.044C180.466 273.193 180.825 273.333 181.245 273.464C181.675 273.585 182.109 273.646 182.547 273.646C183.173 273.646 183.625 273.548 183.905 273.352C184.185 273.147 184.325 272.876 184.325 272.54C184.325 272.353 184.274 272.185 184.171 272.036C184.069 271.887 183.882 271.737 183.611 271.588C183.35 271.439 182.972 271.271 182.477 271.084C181.992 270.897 181.577 270.711 181.231 270.524C180.886 270.337 180.62 270.113 180.433 269.852C180.247 269.591 180.153 269.255 180.153 268.844C180.153 268.209 180.41 267.719 180.923 267.374C181.446 267.029 182.127 266.856 182.967 266.856C183.425 266.856 183.849 266.903 184.241 266.996C184.643 267.089 185.016 267.211 185.361 267.36L184.941 268.34C184.624 268.209 184.293 268.097 183.947 268.004C183.602 267.911 183.247 267.864 182.883 267.864C182.379 267.864 181.992 267.948 181.721 268.116C181.46 268.275 181.329 268.494 181.329 268.774C181.329 268.989 181.39 269.166 181.511 269.306C181.633 269.446 181.833 269.586 182.113 269.726C182.403 269.866 182.785 270.025 183.261 270.202C183.737 270.379 184.143 270.561 184.479 270.748C184.815 270.935 185.072 271.163 185.249 271.434C185.427 271.695 185.515 272.027 185.515 272.428Z" fill="#323232"/>
<path d="M305 273.962C304.9 273.962 304.8 273.913 304.75 273.863L299.1 268.262C299.05 268.212 299 268.112 299 268.012C299 267.912 299.05 267.812 299.1 267.762L304.7 262.113C304.85 261.962 305.1 261.962 305.25 262.113C305.4 262.263 305.4 262.512 305.25 262.662L299.9 268.012L305.25 273.363C305.4 273.512 305.4 273.762 305.25 273.912C305.15 273.962 305.1 273.962 305 273.962Z" fill="#323232"/>
</g>
<rect x="86.5" y="40.5" width="239" height="251" stroke="#C9C9C9"/>
<defs>
<clipPath id="clip0_9085_615151">
<rect x="86" y="40" width="240" height="252" fill="white"/>
</clipPath>
</defs>
</svg>
