<svg width="408" height="176" viewBox="0 0 408 176" fill="none" xmlns="http://www.w3.org/2000/svg">
<rect width="408" height="176" fill="white"/>
<rect x="80.5" y="96.3086" width="71.2321" height="70.1919" rx="2.5" stroke="#004E6C" stroke-width="3"/>
<rect x="168.384" y="96.3086" width="71.2321" height="70.1919" rx="2.5" stroke="#004E6C" stroke-width="3"/>
<rect x="168.384" y="9.5" width="71.2321" height="70.1919" rx="2.5" stroke="#004E6C" stroke-width="3"/>
<rect x="256.268" y="96.3086" width="71.2321" height="70.1919" rx="2.5" stroke="#004E6C" stroke-width="3"/>
<path d="M98.6248 132.682L116.543 113.533L134.461 132.682H120.809V149.278H109.717V132.682H98.6248Z" stroke="#AB3FE0" stroke-width="3"/>
<path d="M86.6792 102.043V157.916C86.6792 159.02 87.5746 159.916 88.6792 159.916H143.98C145.084 159.916 145.98 159.02 145.98 157.916V102.043" stroke="#004E6C" stroke-width="3"/>
<path d="M174.563 102.043V157.916C174.563 159.02 175.459 159.916 176.563 159.916H231.864C232.968 159.916 233.864 159.02 233.864 157.916V102.043" stroke="#004E6C" stroke-width="3"/>
<path d="M174.563 15.2324V71.1051C174.563 72.2097 175.459 73.1051 176.563 73.1051H231.864C232.968 73.1051 233.864 72.2097 233.864 71.1051V15.2324" stroke="#004E6C" stroke-width="3"/>
<path d="M262.447 102.043V157.916C262.447 159.02 263.342 159.916 264.447 159.916H319.747C320.852 159.916 321.747 159.02 321.747 157.916V102.043" stroke="#004E6C" stroke-width="3"/>
</svg>
