<svg width="200" height="76" viewBox="0 0 200 76" fill="none" xmlns="http://www.w3.org/2000/svg">
<path d="M3.576 13H0.48V12.376L1.488 12.148V5.296L0.48 5.056V4.432H3.576V5.056L2.568 5.296V12.148L3.576 12.376V13ZM7.49841 4.432C8.61841 4.432 9.43441 4.652 9.94641 5.092C10.4584 5.532 10.7144 6.152 10.7144 6.952C10.7144 7.424 10.6064 7.868 10.3904 8.284C10.1824 8.692 9.82641 9.024 9.32241 9.28C8.82641 9.536 8.15041 9.664 7.29441 9.664H6.31041V13H5.23041V4.432H7.49841ZM7.40241 5.356H6.31041V8.74H7.17441C7.99041 8.74 8.59841 8.608 8.99841 8.344C9.39841 8.08 9.59841 7.632 9.59841 7C9.59841 6.448 9.41841 6.036 9.05841 5.764C8.70641 5.492 8.15441 5.356 7.40241 5.356ZM20.9892 13L19.9572 10.348H16.5612L15.5412 13H14.4492L17.7972 4.396H18.7692L22.1052 13H20.9892ZM19.6332 9.388L18.6732 6.796C18.6492 6.732 18.6092 6.616 18.5532 6.448C18.4972 6.28 18.4412 6.108 18.3852 5.932C18.3372 5.748 18.2972 5.608 18.2652 5.512C18.2012 5.76 18.1332 6.004 18.0612 6.244C17.9972 6.476 17.9412 6.66 17.8932 6.796L16.9212 9.388H19.6332ZM25.4133 13.12C24.6133 13.12 23.9733 12.844 23.4933 12.292C23.0133 11.732 22.7733 10.9 22.7733 9.796C22.7733 8.692 23.0133 7.86 23.4933 7.3C23.9813 6.732 24.6253 6.448 25.4253 6.448C25.9213 6.448 26.3253 6.54 26.6373 6.724C26.9573 6.908 27.2173 7.132 27.4173 7.396H27.4893C27.4733 7.292 27.4573 7.14 27.4413 6.94C27.4253 6.732 27.4173 6.568 27.4173 6.448V3.88H28.4733V13H27.6213L27.4653 12.136H27.4173C27.2253 12.408 26.9693 12.64 26.6493 12.832C26.3293 13.024 25.9173 13.12 25.4133 13.12ZM25.5813 12.244C26.2613 12.244 26.7373 12.06 27.0093 11.692C27.2893 11.316 27.4293 10.752 27.4293 10V9.808C27.4293 9.008 27.2973 8.396 27.0333 7.972C26.7693 7.54 26.2813 7.324 25.5693 7.324C25.0013 7.324 24.5733 7.552 24.2853 8.008C24.0053 8.456 23.8653 9.06 23.8653 9.82C23.8653 10.588 24.0053 11.184 24.2853 11.608C24.5733 12.032 25.0053 12.244 25.5813 12.244ZM32.7961 13.12C31.9961 13.12 31.3561 12.844 30.8761 12.292C30.3961 11.732 30.1561 10.9 30.1561 9.796C30.1561 8.692 30.3961 7.86 30.8761 7.3C31.3641 6.732 32.0081 6.448 32.8081 6.448C33.3041 6.448 33.7081 6.54 34.0201 6.724C34.3401 6.908 34.6001 7.132 34.8001 7.396H34.8721C34.8561 7.292 34.8401 7.14 34.8241 6.94C34.8081 6.732 34.8001 6.568 34.8001 6.448V3.88H35.8561V13H35.0041L34.8481 12.136H34.8001C34.6081 12.408 34.3521 12.64 34.0321 12.832C33.7121 13.024 33.3001 13.12 32.7961 13.12ZM32.9641 12.244C33.6441 12.244 34.1201 12.06 34.3921 11.692C34.6721 11.316 34.8121 10.752 34.8121 10V9.808C34.8121 9.008 34.6801 8.396 34.4161 7.972C34.1521 7.54 33.6641 7.324 32.9521 7.324C32.3841 7.324 31.9561 7.552 31.6681 8.008C31.3881 8.456 31.2481 9.06 31.2481 9.82C31.2481 10.588 31.3881 11.184 31.6681 11.608C31.9561 12.032 32.3881 12.244 32.9641 12.244ZM40.8989 6.448C41.0189 6.448 41.1469 6.456 41.2829 6.472C41.4189 6.48 41.5429 6.496 41.6549 6.52L41.5229 7.492C41.4189 7.468 41.3029 7.448 41.1749 7.432C41.0469 7.416 40.9309 7.408 40.8269 7.408C40.4989 7.408 40.1909 7.5 39.9029 7.684C39.6149 7.86 39.3829 8.112 39.2069 8.44C39.0389 8.76 38.9549 9.136 38.9549 9.568V13H37.8989V6.568H38.7629L38.8829 7.744H38.9309C39.1309 7.392 39.3949 7.088 39.7229 6.832C40.0589 6.576 40.4509 6.448 40.8989 6.448ZM45.1056 6.448C45.6496 6.448 46.1216 6.568 46.5216 6.808C46.9216 7.048 47.2256 7.388 47.4336 7.828C47.6496 8.26 47.7576 8.768 47.7576 9.352V9.988H43.3536C43.3696 10.716 43.5536 11.272 43.9056 11.656C44.2656 12.032 44.7656 12.22 45.4056 12.22C45.8136 12.22 46.1736 12.184 46.4856 12.112C46.8056 12.032 47.1336 11.92 47.4696 11.776V12.7C47.1416 12.844 46.8176 12.948 46.4976 13.012C46.1776 13.084 45.7976 13.12 45.3576 13.12C44.7416 13.12 44.2016 12.996 43.7376 12.748C43.2736 12.5 42.9096 12.132 42.6456 11.644C42.3896 11.156 42.2616 10.552 42.2616 9.832C42.2616 9.128 42.3776 8.524 42.6096 8.02C42.8496 7.516 43.1816 7.128 43.6056 6.856C44.0376 6.584 44.5376 6.448 45.1056 6.448ZM45.0936 7.312C44.5896 7.312 44.1896 7.476 43.8936 7.804C43.6056 8.124 43.4336 8.572 43.3776 9.148H46.6536C46.6456 8.604 46.5176 8.164 46.2696 7.828C46.0216 7.484 45.6296 7.312 45.0936 7.312ZM53.583 11.224C53.583 11.848 53.351 12.32 52.887 12.64C52.423 12.96 51.799 13.12 51.015 13.12C50.567 13.12 50.179 13.084 49.851 13.012C49.531 12.94 49.247 12.84 48.999 12.712V11.752C49.255 11.88 49.563 12 49.923 12.112C50.291 12.216 50.663 12.268 51.039 12.268C51.575 12.268 51.963 12.184 52.203 12.016C52.443 11.84 52.563 11.608 52.563 11.32C52.563 11.16 52.519 11.016 52.431 10.888C52.343 10.76 52.183 10.632 51.951 10.504C51.727 10.376 51.403 10.232 50.979 10.072C50.563 9.912 50.207 9.752 49.911 9.592C49.615 9.432 49.387 9.24 49.227 9.016C49.067 8.792 48.987 8.504 48.987 8.152C48.987 7.608 49.207 7.188 49.647 6.892C50.095 6.596 50.679 6.448 51.399 6.448C51.791 6.448 52.155 6.488 52.491 6.568C52.835 6.648 53.155 6.752 53.451 6.88L53.091 7.72C52.819 7.608 52.535 7.512 52.239 7.432C51.943 7.352 51.639 7.312 51.327 7.312C50.895 7.312 50.563 7.384 50.331 7.528C50.107 7.664 49.995 7.852 49.995 8.092C49.995 8.276 50.047 8.428 50.151 8.548C50.255 8.668 50.427 8.788 50.667 8.908C50.915 9.028 51.243 9.164 51.651 9.316C52.059 9.468 52.407 9.624 52.695 9.784C52.983 9.944 53.203 10.14 53.355 10.372C53.507 10.596 53.583 10.88 53.583 11.224ZM59.3252 11.224C59.3252 11.848 59.0932 12.32 58.6292 12.64C58.1652 12.96 57.5412 13.12 56.7572 13.12C56.3092 13.12 55.9212 13.084 55.5932 13.012C55.2732 12.94 54.9892 12.84 54.7412 12.712V11.752C54.9972 11.88 55.3052 12 55.6652 12.112C56.0332 12.216 56.4052 12.268 56.7812 12.268C57.3172 12.268 57.7052 12.184 57.9452 12.016C58.1852 11.84 58.3052 11.608 58.3052 11.32C58.3052 11.16 58.2612 11.016 58.1732 10.888C58.0852 10.76 57.9252 10.632 57.6932 10.504C57.4692 10.376 57.1452 10.232 56.7212 10.072C56.3052 9.912 55.9492 9.752 55.6532 9.592C55.3572 9.432 55.1292 9.24 54.9692 9.016C54.8092 8.792 54.7292 8.504 54.7292 8.152C54.7292 7.608 54.9492 7.188 55.3892 6.892C55.8372 6.596 56.4212 6.448 57.1412 6.448C57.5332 6.448 57.8972 6.488 58.2332 6.568C58.5772 6.648 58.8972 6.752 59.1932 6.88L58.8332 7.72C58.5612 7.608 58.2772 7.512 57.9812 7.432C57.6852 7.352 57.3812 7.312 57.0692 7.312C56.6372 7.312 56.3052 7.384 56.0732 7.528C55.8492 7.664 55.7372 7.852 55.7372 8.092C55.7372 8.276 55.7892 8.428 55.8932 8.548C55.9972 8.668 56.1692 8.788 56.4092 8.908C56.6572 9.028 56.9852 9.164 57.3932 9.316C57.8012 9.468 58.1492 9.624 58.4372 9.784C58.7252 9.944 58.9452 10.14 59.0972 10.372C59.2492 10.596 59.3252 10.88 59.3252 11.224Z" fill="#323232"/>
<rect x="0.5" y="20.5" width="199" height="35" rx="1.5" fill="white"/>
<rect x="0.5" y="20.5" width="199" height="35" rx="1.5" stroke="#939393"/>
<path d="M5.952 73H1.164V64.432H5.952V65.38H2.244V68.056H5.736V68.992H2.244V72.052H5.952V73ZM9.21197 69.712L6.99197 66.568H8.19197L9.84797 68.992L11.492 66.568H12.68L10.46 69.712L12.8 73H11.6L9.84797 70.432L8.07197 73H6.88397L9.21197 69.712ZM16.4755 66.46C17.2595 66.46 17.8395 66.632 18.2155 66.976C18.5915 67.32 18.7795 67.868 18.7795 68.62V73H18.0115L17.8075 72.088H17.7595C17.4795 72.44 17.1835 72.7 16.8715 72.868C16.5595 73.036 16.1355 73.12 15.5995 73.12C15.0155 73.12 14.5315 72.968 14.1475 72.664C13.7635 72.352 13.5715 71.868 13.5715 71.212C13.5715 70.572 13.8235 70.08 14.3275 69.736C14.8315 69.384 15.6075 69.192 16.6555 69.16L17.7475 69.124V68.74C17.7475 68.204 17.6315 67.832 17.3995 67.624C17.1675 67.416 16.8395 67.312 16.4155 67.312C16.0795 67.312 15.7595 67.364 15.4555 67.468C15.1515 67.564 14.8675 67.676 14.6035 67.804L14.2795 67.012C14.5595 66.86 14.8915 66.732 15.2755 66.628C15.6595 66.516 16.0595 66.46 16.4755 66.46ZM17.7355 69.856L16.7875 69.892C15.9875 69.924 15.4315 70.052 15.1195 70.276C14.8155 70.5 14.6635 70.816 14.6635 71.224C14.6635 71.584 14.7715 71.848 14.9875 72.016C15.2115 72.184 15.4955 72.268 15.8395 72.268C16.3755 72.268 16.8235 72.12 17.1835 71.824C17.5515 71.52 17.7355 71.056 17.7355 70.432V69.856ZM27.8221 66.448C28.5501 66.448 29.0941 66.636 29.4541 67.012C29.8141 67.388 29.9941 67.988 29.9941 68.812V73H28.9501V68.86C28.9501 67.844 28.5141 67.336 27.6421 67.336C27.0181 67.336 26.5701 67.516 26.2981 67.876C26.0341 68.236 25.9021 68.76 25.9021 69.448V73H24.8581V68.86C24.8581 67.844 24.4181 67.336 23.5381 67.336C22.8901 67.336 22.4421 67.536 22.1941 67.936C21.9461 68.336 21.8221 68.912 21.8221 69.664V73H20.7661V66.568H21.6181L21.7741 67.444H21.8341C22.0341 67.108 22.3021 66.86 22.6381 66.7C22.9821 66.532 23.3461 66.448 23.7301 66.448C24.7381 66.448 25.3941 66.808 25.6981 67.528H25.7581C25.9741 67.16 26.2661 66.888 26.6341 66.712C27.0021 66.536 27.3981 66.448 27.8221 66.448ZM35.0409 66.448C35.8329 66.448 36.4689 66.724 36.9489 67.276C37.4369 67.828 37.6809 68.66 37.6809 69.772C37.6809 70.868 37.4369 71.7 36.9489 72.268C36.4689 72.836 35.8289 73.12 35.0289 73.12C34.5329 73.12 34.1209 73.028 33.7929 72.844C33.4729 72.66 33.2209 72.44 33.0369 72.184H32.9649C32.9729 72.32 32.9849 72.492 33.0009 72.7C33.0249 72.908 33.0369 73.088 33.0369 73.24V75.88H31.9809V66.568H32.8449L32.9889 67.444H33.0369C33.2289 67.164 33.4809 66.928 33.7929 66.736C34.1049 66.544 34.5209 66.448 35.0409 66.448ZM34.8489 67.336C34.1929 67.336 33.7289 67.52 33.4569 67.888C33.1849 68.256 33.0449 68.816 33.0369 69.568V69.772C33.0369 70.564 33.1649 71.176 33.4209 71.608C33.6849 72.032 34.1689 72.244 34.8729 72.244C35.2569 72.244 35.5769 72.14 35.8329 71.932C36.0889 71.716 36.2769 71.42 36.3969 71.044C36.5249 70.668 36.5889 70.24 36.5889 69.76C36.5889 69.024 36.4449 68.436 36.1569 67.996C35.8769 67.556 35.4409 67.336 34.8489 67.336ZM40.4198 73H39.3638V63.88H40.4198V73ZM44.9415 66.448C45.4855 66.448 45.9575 66.568 46.3575 66.808C46.7575 67.048 47.0615 67.388 47.2695 67.828C47.4855 68.26 47.5935 68.768 47.5935 69.352V69.988H43.1895C43.2055 70.716 43.3895 71.272 43.7415 71.656C44.1015 72.032 44.6015 72.22 45.2415 72.22C45.6495 72.22 46.0095 72.184 46.3215 72.112C46.6415 72.032 46.9695 71.92 47.3055 71.776V72.7C46.9775 72.844 46.6535 72.948 46.3335 73.012C46.0135 73.084 45.6335 73.12 45.1935 73.12C44.5775 73.12 44.0375 72.996 43.5735 72.748C43.1095 72.5 42.7455 72.132 42.4815 71.644C42.2255 71.156 42.0975 70.552 42.0975 69.832C42.0975 69.128 42.2135 68.524 42.4455 68.02C42.6855 67.516 43.0175 67.128 43.4415 66.856C43.8735 66.584 44.3735 66.448 44.9415 66.448ZM44.9295 67.312C44.4255 67.312 44.0255 67.476 43.7295 67.804C43.4415 68.124 43.2695 68.572 43.2135 69.148H46.4895C46.4815 68.604 46.3535 68.164 46.1055 67.828C45.8575 67.484 45.4655 67.312 44.9295 67.312ZM49.0749 67.216C49.0749 66.912 49.1469 66.7 49.2909 66.58C49.4349 66.46 49.6069 66.4 49.8069 66.4C50.0069 66.4 50.1829 66.46 50.3349 66.58C50.4869 66.7 50.5629 66.912 50.5629 67.216C50.5629 67.504 50.4869 67.712 50.3349 67.84C50.1829 67.968 50.0069 68.032 49.8069 68.032C49.6069 68.032 49.4349 67.968 49.2909 67.84C49.1469 67.712 49.0749 67.504 49.0749 67.216ZM49.0749 72.352C49.0749 72.056 49.1469 71.848 49.2909 71.728C49.4349 71.608 49.6069 71.548 49.8069 71.548C50.0069 71.548 50.1829 71.608 50.3349 71.728C50.4869 71.848 50.5629 72.056 50.5629 72.352C50.5629 72.64 50.4869 72.848 50.3349 72.976C50.1829 73.104 50.0069 73.168 49.8069 73.168C49.6069 73.168 49.4349 73.104 49.2909 72.976C49.1469 72.848 49.0749 72.64 49.0749 72.352ZM58.7991 73H57.7671V67.012C57.7671 66.668 57.7711 66.392 57.7791 66.184C57.7871 65.976 57.7991 65.76 57.8151 65.536C57.6871 65.664 57.5671 65.772 57.4551 65.86C57.3511 65.948 57.2231 66.06 57.0711 66.196L56.1591 66.94L55.6071 66.232L57.9231 64.432H58.7991V73ZM67.6463 68.092C67.6463 68.708 67.5903 69.316 67.4783 69.916C67.3743 70.508 67.1783 71.048 66.8903 71.536C66.6103 72.016 66.2103 72.4 65.6903 72.688C65.1783 72.976 64.5183 73.12 63.7103 73.12C63.5503 73.12 63.3623 73.108 63.1463 73.084C62.9303 73.068 62.7583 73.04 62.6303 73V72.1C62.9423 72.204 63.2943 72.256 63.6863 72.256C64.2463 72.256 64.7063 72.164 65.0663 71.98C65.4343 71.796 65.7263 71.548 65.9423 71.236C66.1583 70.916 66.3143 70.548 66.4103 70.132C66.5063 69.708 66.5623 69.264 66.5783 68.8H66.5063C66.3223 69.072 66.0663 69.308 65.7383 69.508C65.4103 69.7 64.9863 69.796 64.4663 69.796C63.7303 69.796 63.1343 69.572 62.6783 69.124C62.2303 68.668 62.0063 68.028 62.0063 67.204C62.0063 66.604 62.1183 66.088 62.3423 65.656C62.5663 65.224 62.8823 64.892 63.2903 64.66C63.7063 64.428 64.1903 64.312 64.7423 64.312C65.2863 64.312 65.7783 64.452 66.2183 64.732C66.6583 65.004 67.0063 65.42 67.2623 65.98C67.5183 66.532 67.6463 67.236 67.6463 68.092ZM64.7423 65.2C64.2463 65.2 63.8383 65.364 63.5183 65.692C63.2063 66.02 63.0503 66.52 63.0503 67.192C63.0503 67.744 63.1823 68.18 63.4463 68.5C63.7183 68.812 64.1343 68.968 64.6943 68.968C65.0783 68.968 65.4103 68.892 65.6903 68.74C65.9703 68.58 66.1863 68.38 66.3383 68.14C66.4983 67.9 66.5783 67.652 66.5783 67.396C66.5783 67.052 66.5103 66.712 66.3743 66.376C66.2383 66.04 66.0343 65.76 65.7623 65.536C65.4903 65.312 65.1503 65.2 64.7423 65.2ZM74.5134 73H68.8494V72.124L71.0934 69.856C71.5174 69.424 71.8774 69.04 72.1734 68.704C72.4774 68.368 72.7054 68.04 72.8574 67.72C73.0094 67.4 73.0854 67.044 73.0854 66.652C73.0854 66.18 72.9454 65.824 72.6654 65.584C72.3854 65.336 72.0214 65.212 71.5734 65.212C71.1494 65.212 70.7814 65.284 70.4694 65.428C70.1574 65.572 69.8374 65.772 69.5094 66.028L68.9454 65.32C69.2814 65.04 69.6654 64.804 70.0974 64.612C70.5374 64.412 71.0294 64.312 71.5734 64.312C72.3734 64.312 73.0054 64.516 73.4694 64.924C73.9334 65.332 74.1654 65.888 74.1654 66.592C74.1654 67.04 74.0734 67.46 73.8894 67.852C73.7054 68.244 73.4494 68.632 73.1214 69.016C72.7934 69.4 72.4094 69.804 71.9694 70.228L70.1814 71.992V72.04H74.5134V73ZM76.0046 72.352C76.0046 72.056 76.0766 71.848 76.2206 71.728C76.3646 71.608 76.5366 71.548 76.7366 71.548C76.9366 71.548 77.1126 71.608 77.2646 71.728C77.4166 71.848 77.4926 72.056 77.4926 72.352C77.4926 72.64 77.4166 72.848 77.2646 72.976C77.1126 73.104 76.9366 73.168 76.7366 73.168C76.5366 73.168 76.3646 73.104 76.2206 72.976C76.0766 72.848 76.0046 72.64 76.0046 72.352ZM84.6276 68.704C84.6276 69.632 84.5316 70.424 84.3396 71.08C84.1476 71.736 83.8396 72.24 83.4156 72.592C82.9996 72.944 82.4516 73.12 81.7716 73.12C80.8036 73.12 80.0876 72.732 79.6236 71.956C79.1676 71.172 78.9396 70.088 78.9396 68.704C78.9396 67.776 79.0316 66.984 79.2156 66.328C79.4076 65.672 79.7116 65.172 80.1276 64.828C80.5436 64.476 81.0916 64.3 81.7716 64.3C82.7316 64.3 83.4476 64.688 83.9196 65.464C84.3916 66.232 84.6276 67.312 84.6276 68.704ZM79.9956 68.704C79.9956 69.88 80.1276 70.76 80.3916 71.344C80.6636 71.928 81.1236 72.22 81.7716 72.22C82.4116 72.22 82.8676 71.932 83.1396 71.356C83.4196 70.772 83.5596 69.888 83.5596 68.704C83.5596 67.536 83.4196 66.66 83.1396 66.076C82.8676 65.492 82.4116 65.2 81.7716 65.2C81.1236 65.2 80.6636 65.492 80.3916 66.076C80.1276 66.66 79.9956 67.536 79.9956 68.704ZM86.0828 72.352C86.0828 72.056 86.1548 71.848 86.2988 71.728C86.4428 71.608 86.6148 71.548 86.8148 71.548C87.0148 71.548 87.1908 71.608 87.3428 71.728C87.4948 71.848 87.5708 72.056 87.5708 72.352C87.5708 72.64 87.4948 72.848 87.3428 72.976C87.1908 73.104 87.0148 73.168 86.8148 73.168C86.6148 73.168 86.4428 73.104 86.2988 72.976C86.1548 72.848 86.0828 72.64 86.0828 72.352ZM94.6697 73H89.0057V72.124L91.2497 69.856C91.6737 69.424 92.0337 69.04 92.3297 68.704C92.6337 68.368 92.8617 68.04 93.0137 67.72C93.1657 67.4 93.2417 67.044 93.2417 66.652C93.2417 66.18 93.1017 65.824 92.8217 65.584C92.5417 65.336 92.1777 65.212 91.7297 65.212C91.3057 65.212 90.9377 65.284 90.6257 65.428C90.3137 65.572 89.9937 65.772 89.6657 66.028L89.1017 65.32C89.4377 65.04 89.8217 64.804 90.2537 64.612C90.6937 64.412 91.1857 64.312 91.7297 64.312C92.5297 64.312 93.1617 64.516 93.6257 64.924C94.0897 65.332 94.3217 65.888 94.3217 66.592C94.3217 67.04 94.2297 67.46 94.0457 67.852C93.8617 68.244 93.6057 68.632 93.2777 69.016C92.9497 69.4 92.5657 69.804 92.1257 70.228L90.3377 71.992V72.04H94.6697V73ZM96.1609 72.352C96.1609 72.056 96.2329 71.848 96.3769 71.728C96.5209 71.608 96.6929 71.548 96.8929 71.548C97.0929 71.548 97.2689 71.608 97.4209 71.728C97.5729 71.848 97.6489 72.056 97.6489 72.352C97.6489 72.64 97.5729 72.848 97.4209 72.976C97.2689 73.104 97.0929 73.168 96.8929 73.168C96.6929 73.168 96.5209 73.104 96.3769 72.976C96.2329 72.848 96.1609 72.64 96.1609 72.352ZM102.768 73H101.736V67.012C101.736 66.668 101.74 66.392 101.748 66.184C101.756 65.976 101.768 65.76 101.784 65.536C101.656 65.664 101.536 65.772 101.424 65.86C101.32 65.948 101.192 66.06 101.04 66.196L100.128 66.94L99.5758 66.232L101.892 64.432H102.768V73Z" fill="#5E5E5E"/>
</svg>
