<svg width="412" height="200" viewBox="0 0 412 200" fill="none" xmlns="http://www.w3.org/2000/svg">
<rect width="412" height="200" fill="white"/>
<path d="M62.524 84.708C62.524 85.468 62.248 86.06 61.696 86.484C61.144 86.908 60.4 87.12 59.464 87.12C58.984 87.12 58.54 87.084 58.132 87.012C57.724 86.94 57.384 86.84 57.112 86.712V85.68C57.4 85.808 57.756 85.924 58.18 86.028C58.612 86.132 59.056 86.184 59.512 86.184C60.144 86.184 60.624 86.06 60.952 85.812C61.28 85.564 61.444 85.228 61.444 84.804C61.444 84.524 61.384 84.288 61.264 84.096C61.144 83.904 60.936 83.728 60.64 83.568C60.344 83.408 59.94 83.232 59.428 83.04C58.692 82.776 58.14 82.452 57.772 82.068C57.404 81.684 57.22 81.16 57.22 80.496C57.22 80.048 57.336 79.66 57.568 79.332C57.8 79.004 58.12 78.752 58.528 78.576C58.936 78.4 59.412 78.312 59.956 78.312C60.42 78.312 60.848 78.356 61.24 78.444C61.632 78.532 61.992 78.648 62.32 78.792L61.984 79.716C61.688 79.588 61.364 79.48 61.012 79.392C60.66 79.304 60.3 79.26 59.932 79.26C59.396 79.26 58.992 79.376 58.72 79.608C58.448 79.832 58.312 80.132 58.312 80.508C58.312 80.796 58.372 81.036 58.492 81.228C58.612 81.42 58.808 81.596 59.08 81.756C59.352 81.908 59.72 82.068 60.184 82.236C60.688 82.42 61.112 82.62 61.456 82.836C61.808 83.044 62.072 83.296 62.248 83.592C62.432 83.888 62.524 84.26 62.524 84.708ZM64.6459 78.156C64.8059 78.156 64.9459 78.212 65.0659 78.324C65.1939 78.428 65.2579 78.596 65.2579 78.828C65.2579 79.06 65.1939 79.232 65.0659 79.344C64.9459 79.448 64.8059 79.5 64.6459 79.5C64.4699 79.5 64.3219 79.448 64.2019 79.344C64.0819 79.232 64.0219 79.06 64.0219 78.828C64.0219 78.596 64.0819 78.428 64.2019 78.324C64.3219 78.212 64.4699 78.156 64.6459 78.156ZM65.1619 80.568V87H64.1059V80.568H65.1619ZM69.3477 86.256C69.5077 86.256 69.6717 86.244 69.8397 86.22C70.0077 86.196 70.1437 86.164 70.2477 86.124V86.928C70.1357 86.984 69.9757 87.028 69.7677 87.06C69.5597 87.1 69.3597 87.12 69.1677 87.12C68.8317 87.12 68.5197 87.064 68.2317 86.952C67.9517 86.832 67.7237 86.628 67.5477 86.34C67.3717 86.052 67.2837 85.648 67.2837 85.128V81.384H66.3717V80.88L67.2957 80.46L67.7157 79.092H68.3397V80.568H70.1997V81.384H68.3397V85.104C68.3397 85.496 68.4317 85.788 68.6157 85.98C68.8077 86.164 69.0517 86.256 69.3477 86.256ZM74.0196 80.448C74.5636 80.448 75.0356 80.568 75.4356 80.808C75.8356 81.048 76.1396 81.388 76.3476 81.828C76.5636 82.26 76.6716 82.768 76.6716 83.352V83.988H72.2676C72.2836 84.716 72.4676 85.272 72.8196 85.656C73.1796 86.032 73.6796 86.22 74.3196 86.22C74.7276 86.22 75.0876 86.184 75.3996 86.112C75.7196 86.032 76.0476 85.92 76.3836 85.776V86.7C76.0556 86.844 75.7316 86.948 75.4116 87.012C75.0916 87.084 74.7116 87.12 74.2716 87.12C73.6556 87.12 73.1156 86.996 72.6516 86.748C72.1876 86.5 71.8236 86.132 71.5596 85.644C71.3036 85.156 71.1756 84.552 71.1756 83.832C71.1756 83.128 71.2916 82.524 71.5236 82.02C71.7636 81.516 72.0956 81.128 72.5196 80.856C72.9516 80.584 73.4516 80.448 74.0196 80.448ZM74.0076 81.312C73.5036 81.312 73.1036 81.476 72.8076 81.804C72.5196 82.124 72.3476 82.572 72.2916 83.148H75.5676C75.5596 82.604 75.4316 82.164 75.1836 81.828C74.9356 81.484 74.5436 81.312 74.0076 81.312ZM88.4343 82.632C88.4343 84.08 88.0383 85.172 87.2463 85.908C86.4623 86.636 85.3663 87 83.9583 87H81.5703V78.432H84.2103C85.0663 78.432 85.8103 78.592 86.4423 78.912C87.0823 79.232 87.5743 79.704 87.9183 80.328C88.2623 80.952 88.4343 81.72 88.4343 82.632ZM87.2943 82.668C87.2943 81.524 87.0103 80.688 86.4423 80.16C85.8823 79.624 85.0863 79.356 84.0543 79.356H82.6503V86.076H83.8143C86.1343 86.076 87.2943 84.94 87.2943 82.668ZM92.6759 80.448C93.2199 80.448 93.6919 80.568 94.0919 80.808C94.4919 81.048 94.7959 81.388 95.0039 81.828C95.2199 82.26 95.3279 82.768 95.3279 83.352V83.988H90.9239C90.9399 84.716 91.1239 85.272 91.4759 85.656C91.8359 86.032 92.3359 86.22 92.9759 86.22C93.3839 86.22 93.7439 86.184 94.0559 86.112C94.3759 86.032 94.7039 85.92 95.0399 85.776V86.7C94.7119 86.844 94.3879 86.948 94.0679 87.012C93.7479 87.084 93.3679 87.12 92.9279 87.12C92.3119 87.12 91.7719 86.996 91.3079 86.748C90.8439 86.5 90.4799 86.132 90.2159 85.644C89.9599 85.156 89.8319 84.552 89.8319 83.832C89.8319 83.128 89.9479 82.524 90.1799 82.02C90.4199 81.516 90.7519 81.128 91.1759 80.856C91.6079 80.584 92.1079 80.448 92.6759 80.448ZM92.6639 81.312C92.1599 81.312 91.7599 81.476 91.4639 81.804C91.1759 82.124 91.0039 82.572 90.9479 83.148H94.2239C94.2159 82.604 94.0879 82.164 93.8399 81.828C93.5919 81.484 93.1999 81.312 92.6639 81.312ZM101.153 85.224C101.153 85.848 100.921 86.32 100.457 86.64C99.9933 86.96 99.3693 87.12 98.5853 87.12C98.1373 87.12 97.7493 87.084 97.4213 87.012C97.1013 86.94 96.8173 86.84 96.5693 86.712V85.752C96.8253 85.88 97.1333 86 97.4933 86.112C97.8613 86.216 98.2333 86.268 98.6093 86.268C99.1453 86.268 99.5333 86.184 99.7733 86.016C100.013 85.84 100.133 85.608 100.133 85.32C100.133 85.16 100.089 85.016 100.001 84.888C99.9133 84.76 99.7533 84.632 99.5213 84.504C99.2973 84.376 98.9733 84.232 98.5493 84.072C98.1333 83.912 97.7773 83.752 97.4813 83.592C97.1853 83.432 96.9573 83.24 96.7973 83.016C96.6373 82.792 96.5573 82.504 96.5573 82.152C96.5573 81.608 96.7773 81.188 97.2173 80.892C97.6653 80.596 98.2493 80.448 98.9693 80.448C99.3613 80.448 99.7253 80.488 100.061 80.568C100.405 80.648 100.725 80.752 101.021 80.88L100.661 81.72C100.389 81.608 100.105 81.512 99.8093 81.432C99.5133 81.352 99.2093 81.312 98.8973 81.312C98.4653 81.312 98.1333 81.384 97.9013 81.528C97.6773 81.664 97.5653 81.852 97.5653 82.092C97.5653 82.276 97.6173 82.428 97.7213 82.548C97.8253 82.668 97.9973 82.788 98.2373 82.908C98.4853 83.028 98.8133 83.164 99.2213 83.316C99.6293 83.468 99.9773 83.624 100.265 83.784C100.553 83.944 100.773 84.14 100.925 84.372C101.077 84.596 101.153 84.88 101.153 85.224ZM105.288 87.12C104.712 87.12 104.204 87.004 103.764 86.772C103.324 86.54 102.976 86.18 102.72 85.692C102.472 85.204 102.348 84.58 102.348 83.82C102.348 83.028 102.476 82.384 102.732 81.888C102.996 81.392 103.356 81.028 103.812 80.796C104.268 80.564 104.784 80.448 105.36 80.448C105.68 80.448 105.992 80.484 106.296 80.556C106.608 80.62 106.86 80.7 107.052 80.796L106.728 81.672C106.536 81.6 106.312 81.532 106.056 81.468C105.8 81.404 105.56 81.372 105.336 81.372C104.072 81.372 103.44 82.184 103.44 83.808C103.44 84.584 103.592 85.18 103.896 85.596C104.208 86.004 104.668 86.208 105.276 86.208C105.62 86.208 105.928 86.172 106.2 86.1C106.472 86.028 106.72 85.94 106.944 85.836V86.772C106.728 86.884 106.488 86.968 106.224 87.024C105.968 87.088 105.656 87.12 105.288 87.12ZM111.473 80.448C111.593 80.448 111.721 80.456 111.857 80.472C111.993 80.48 112.117 80.496 112.229 80.52L112.097 81.492C111.993 81.468 111.877 81.448 111.749 81.432C111.621 81.416 111.505 81.408 111.401 81.408C111.073 81.408 110.765 81.5 110.477 81.684C110.189 81.86 109.957 82.112 109.781 82.44C109.613 82.76 109.529 83.136 109.529 83.568V87H108.473V80.568H109.337L109.457 81.744H109.505C109.705 81.392 109.969 81.088 110.297 80.832C110.633 80.576 111.025 80.448 111.473 80.448ZM113.97 78.156C114.13 78.156 114.27 78.212 114.39 78.324C114.518 78.428 114.582 78.596 114.582 78.828C114.582 79.06 114.518 79.232 114.39 79.344C114.27 79.448 114.13 79.5 113.97 79.5C113.794 79.5 113.646 79.448 113.526 79.344C113.406 79.232 113.346 79.06 113.346 78.828C113.346 78.596 113.406 78.428 113.526 78.324C113.646 78.212 113.794 78.156 113.97 78.156ZM114.486 80.568V87H113.43V80.568H114.486ZM119.584 80.448C120.376 80.448 121.012 80.724 121.492 81.276C121.98 81.828 122.224 82.66 122.224 83.772C122.224 84.868 121.98 85.7 121.492 86.268C121.012 86.836 120.372 87.12 119.572 87.12C119.076 87.12 118.664 87.028 118.336 86.844C118.016 86.66 117.764 86.44 117.58 86.184H117.508C117.516 86.32 117.528 86.492 117.544 86.7C117.568 86.908 117.58 87.088 117.58 87.24V89.88H116.524V80.568H117.388L117.532 81.444H117.58C117.772 81.164 118.024 80.928 118.336 80.736C118.648 80.544 119.064 80.448 119.584 80.448ZM119.392 81.336C118.736 81.336 118.272 81.52 118 81.888C117.728 82.256 117.588 82.816 117.58 83.568V83.772C117.58 84.564 117.708 85.176 117.964 85.608C118.228 86.032 118.712 86.244 119.416 86.244C119.8 86.244 120.12 86.14 120.376 85.932C120.632 85.716 120.82 85.42 120.94 85.044C121.068 84.668 121.132 84.24 121.132 83.76C121.132 83.024 120.988 82.436 120.7 81.996C120.42 81.556 119.984 81.336 119.392 81.336ZM126.055 86.256C126.215 86.256 126.379 86.244 126.547 86.22C126.715 86.196 126.851 86.164 126.955 86.124V86.928C126.843 86.984 126.683 87.028 126.475 87.06C126.267 87.1 126.067 87.12 125.875 87.12C125.539 87.12 125.227 87.064 124.939 86.952C124.659 86.832 124.431 86.628 124.255 86.34C124.079 86.052 123.991 85.648 123.991 85.128V81.384H123.079V80.88L124.003 80.46L124.423 79.092H125.047V80.568H126.907V81.384H125.047V85.104C125.047 85.496 125.139 85.788 125.323 85.98C125.515 86.164 125.759 86.256 126.055 86.256ZM128.783 78.156C128.943 78.156 129.083 78.212 129.203 78.324C129.331 78.428 129.395 78.596 129.395 78.828C129.395 79.06 129.331 79.232 129.203 79.344C129.083 79.448 128.943 79.5 128.783 79.5C128.607 79.5 128.459 79.448 128.339 79.344C128.219 79.232 128.159 79.06 128.159 78.828C128.159 78.596 128.219 78.428 128.339 78.324C128.459 78.212 128.607 78.156 128.783 78.156ZM129.299 80.568V87H128.243V80.568H129.299ZM136.928 83.772C136.928 84.836 136.656 85.66 136.112 86.244C135.576 86.828 134.848 87.12 133.928 87.12C133.36 87.12 132.852 86.992 132.404 86.736C131.964 86.472 131.616 86.092 131.36 85.596C131.104 85.092 130.976 84.484 130.976 83.772C130.976 82.708 131.24 81.888 131.768 81.312C132.304 80.736 133.036 80.448 133.964 80.448C134.54 80.448 135.052 80.58 135.5 80.844C135.948 81.1 136.296 81.476 136.544 81.972C136.8 82.46 136.928 83.06 136.928 83.772ZM132.068 83.772C132.068 84.532 132.216 85.136 132.512 85.584C132.816 86.024 133.296 86.244 133.952 86.244C134.6 86.244 135.076 86.024 135.38 85.584C135.684 85.136 135.836 84.532 135.836 83.772C135.836 83.012 135.684 82.416 135.38 81.984C135.076 81.552 134.596 81.336 133.94 81.336C133.284 81.336 132.808 81.552 132.512 81.984C132.216 82.416 132.068 83.012 132.068 83.772ZM141.698 80.448C142.466 80.448 143.046 80.636 143.438 81.012C143.83 81.388 144.026 81.988 144.026 82.812V87H142.982V82.884C142.982 81.852 142.502 81.336 141.542 81.336C140.83 81.336 140.338 81.536 140.066 81.936C139.794 82.336 139.658 82.912 139.658 83.664V87H138.602V80.568H139.454L139.61 81.444H139.67C139.878 81.108 140.166 80.86 140.534 80.7C140.902 80.532 141.29 80.448 141.698 80.448Z" fill="#323232"/>
<rect x="57" y="94.5" width="298" height="31" rx="1.5" fill="white"/>
<path d="M69.364 114.352C69.364 114.056 69.436 113.848 69.58 113.728C69.724 113.608 69.896 113.548 70.096 113.548C70.296 113.548 70.472 113.608 70.624 113.728C70.776 113.848 70.852 114.056 70.852 114.352C70.852 114.64 70.776 114.848 70.624 114.976C70.472 115.104 70.296 115.168 70.096 115.168C69.896 115.168 69.724 115.104 69.58 114.976C69.436 114.848 69.364 114.64 69.364 114.352ZM72.5749 114.352C72.5749 114.056 72.6469 113.848 72.7909 113.728C72.9349 113.608 73.1069 113.548 73.3069 113.548C73.5069 113.548 73.6829 113.608 73.8349 113.728C73.9869 113.848 74.0629 114.056 74.0629 114.352C74.0629 114.64 73.9869 114.848 73.8349 114.976C73.6829 115.104 73.5069 115.168 73.3069 115.168C73.1069 115.168 72.9349 115.104 72.7909 114.976C72.6469 114.848 72.5749 114.64 72.5749 114.352ZM75.7859 114.352C75.7859 114.056 75.8579 113.848 76.0019 113.728C76.1459 113.608 76.3179 113.548 76.5179 113.548C76.7179 113.548 76.8939 113.608 77.0459 113.728C77.1979 113.848 77.2739 114.056 77.2739 114.352C77.2739 114.64 77.1979 114.848 77.0459 114.976C76.8939 115.104 76.7179 115.168 76.5179 115.168C76.3179 115.168 76.1459 115.104 76.0019 114.976C75.8579 114.848 75.7859 114.64 75.7859 114.352ZM82.2488 108.448C83.0168 108.448 83.5968 108.636 83.9888 109.012C84.3808 109.388 84.5768 109.988 84.5768 110.812V115H83.5328V110.884C83.5328 109.852 83.0528 109.336 82.0928 109.336C81.3808 109.336 80.8888 109.536 80.6168 109.936C80.3448 110.336 80.2088 110.912 80.2088 111.664V115H79.1528V108.568H80.0048L80.1608 109.444H80.2208C80.4288 109.108 80.7168 108.86 81.0848 108.7C81.4528 108.532 81.8408 108.448 82.2488 108.448ZM88.8508 115.12C88.0508 115.12 87.4108 114.844 86.9308 114.292C86.4508 113.732 86.2108 112.9 86.2108 111.796C86.2108 110.692 86.4508 109.86 86.9308 109.3C87.4188 108.732 88.0628 108.448 88.8628 108.448C89.3588 108.448 89.7628 108.54 90.0748 108.724C90.3948 108.908 90.6548 109.132 90.8548 109.396H90.9268C90.9108 109.292 90.8948 109.14 90.8788 108.94C90.8628 108.732 90.8548 108.568 90.8548 108.448V105.88H91.9108V115H91.0588L90.9028 114.136H90.8548C90.6628 114.408 90.4068 114.64 90.0868 114.832C89.7668 115.024 89.3548 115.12 88.8508 115.12ZM89.0188 114.244C89.6988 114.244 90.1748 114.06 90.4468 113.692C90.7268 113.316 90.8668 112.752 90.8668 112V111.808C90.8668 111.008 90.7348 110.396 90.4708 109.972C90.2068 109.54 89.7188 109.324 89.0068 109.324C88.4388 109.324 88.0108 109.552 87.7228 110.008C87.4428 110.456 87.3028 111.06 87.3028 111.82C87.3028 112.588 87.4428 113.184 87.7228 113.608C88.0108 114.032 88.4428 114.244 89.0188 114.244ZM100.071 108.448C100.191 108.448 100.319 108.456 100.455 108.472C100.591 108.48 100.715 108.496 100.827 108.52L100.695 109.492C100.591 109.468 100.475 109.448 100.347 109.432C100.219 109.416 100.103 109.408 99.9988 109.408C99.6708 109.408 99.3628 109.5 99.0748 109.684C98.7868 109.86 98.5548 110.112 98.3788 110.44C98.2108 110.76 98.1268 111.136 98.1268 111.568V115H97.0708V108.568H97.9348L98.0548 109.744H98.1028C98.3028 109.392 98.5668 109.088 98.8948 108.832C99.2308 108.576 99.6228 108.448 100.071 108.448ZM104.277 108.448C104.821 108.448 105.293 108.568 105.693 108.808C106.093 109.048 106.397 109.388 106.605 109.828C106.821 110.26 106.929 110.768 106.929 111.352V111.988H102.525C102.541 112.716 102.725 113.272 103.077 113.656C103.437 114.032 103.937 114.22 104.577 114.22C104.985 114.22 105.345 114.184 105.657 114.112C105.977 114.032 106.305 113.92 106.641 113.776V114.7C106.313 114.844 105.989 114.948 105.669 115.012C105.349 115.084 104.969 115.12 104.529 115.12C103.913 115.12 103.373 114.996 102.909 114.748C102.445 114.5 102.081 114.132 101.817 113.644C101.561 113.156 101.433 112.552 101.433 111.832C101.433 111.128 101.549 110.524 101.781 110.02C102.021 109.516 102.353 109.128 102.777 108.856C103.209 108.584 103.709 108.448 104.277 108.448ZM104.265 109.312C103.761 109.312 103.361 109.476 103.065 109.804C102.777 110.124 102.605 110.572 102.549 111.148H105.825C105.817 110.604 105.689 110.164 105.441 109.828C105.193 109.484 104.801 109.312 104.265 109.312ZM112.851 117.88V115.132C112.851 114.988 112.855 114.82 112.863 114.628C112.871 114.436 112.887 114.272 112.911 114.136H112.839C112.655 114.408 112.399 114.64 112.071 114.832C111.751 115.024 111.335 115.12 110.823 115.12C110.047 115.12 109.415 114.844 108.927 114.292C108.447 113.732 108.207 112.9 108.207 111.796C108.207 110.692 108.451 109.86 108.939 109.3C109.435 108.732 110.075 108.448 110.859 108.448C111.363 108.448 111.775 108.544 112.095 108.736C112.415 108.928 112.671 109.164 112.863 109.444H112.911L113.067 108.568H113.907V117.88H112.851ZM111.027 114.244C111.683 114.244 112.151 114.064 112.431 113.704C112.711 113.336 112.855 112.776 112.863 112.024V111.808C112.863 110.992 112.727 110.376 112.455 109.96C112.183 109.536 111.699 109.324 111.003 109.324C110.427 109.324 109.999 109.552 109.719 110.008C109.439 110.456 109.299 111.06 109.299 111.82C109.299 112.58 109.439 113.176 109.719 113.608C109.999 114.032 110.435 114.244 111.027 114.244ZM121.326 108.568V115H120.462L120.306 114.148H120.258C120.05 114.484 119.762 114.732 119.394 114.892C119.026 115.044 118.634 115.12 118.218 115.12C117.442 115.12 116.858 114.936 116.466 114.568C116.074 114.192 115.878 113.596 115.878 112.78V108.568H116.946V112.708C116.946 113.732 117.422 114.244 118.374 114.244C119.086 114.244 119.578 114.044 119.85 113.644C120.13 113.244 120.27 112.668 120.27 111.916V108.568H121.326ZM125.852 108.448C126.396 108.448 126.868 108.568 127.268 108.808C127.668 109.048 127.972 109.388 128.18 109.828C128.396 110.26 128.504 110.768 128.504 111.352V111.988H124.1C124.116 112.716 124.3 113.272 124.652 113.656C125.012 114.032 125.512 114.22 126.152 114.22C126.56 114.22 126.92 114.184 127.232 114.112C127.552 114.032 127.88 113.92 128.216 113.776V114.7C127.888 114.844 127.564 114.948 127.244 115.012C126.924 115.084 126.544 115.12 126.104 115.12C125.488 115.12 124.948 114.996 124.484 114.748C124.02 114.5 123.656 114.132 123.392 113.644C123.136 113.156 123.008 112.552 123.008 111.832C123.008 111.128 123.124 110.524 123.356 110.02C123.596 109.516 123.928 109.128 124.352 108.856C124.784 108.584 125.284 108.448 125.852 108.448ZM125.84 109.312C125.336 109.312 124.936 109.476 124.64 109.804C124.352 110.124 124.18 110.572 124.124 111.148H127.4C127.392 110.604 127.264 110.164 127.016 109.828C126.768 109.484 126.376 109.312 125.84 109.312ZM134.329 113.224C134.329 113.848 134.097 114.32 133.633 114.64C133.169 114.96 132.545 115.12 131.761 115.12C131.313 115.12 130.925 115.084 130.597 115.012C130.277 114.94 129.993 114.84 129.745 114.712V113.752C130.001 113.88 130.309 114 130.669 114.112C131.037 114.216 131.409 114.268 131.785 114.268C132.321 114.268 132.709 114.184 132.949 114.016C133.189 113.84 133.309 113.608 133.309 113.32C133.309 113.16 133.265 113.016 133.177 112.888C133.089 112.76 132.929 112.632 132.697 112.504C132.473 112.376 132.149 112.232 131.725 112.072C131.309 111.912 130.953 111.752 130.657 111.592C130.361 111.432 130.133 111.24 129.973 111.016C129.813 110.792 129.733 110.504 129.733 110.152C129.733 109.608 129.953 109.188 130.393 108.892C130.841 108.596 131.425 108.448 132.145 108.448C132.537 108.448 132.901 108.488 133.237 108.568C133.581 108.648 133.901 108.752 134.197 108.88L133.837 109.72C133.565 109.608 133.281 109.512 132.985 109.432C132.689 109.352 132.385 109.312 132.073 109.312C131.641 109.312 131.309 109.384 131.077 109.528C130.853 109.664 130.741 109.852 130.741 110.092C130.741 110.276 130.793 110.428 130.897 110.548C131.001 110.668 131.173 110.788 131.413 110.908C131.661 111.028 131.989 111.164 132.397 111.316C132.805 111.468 133.153 111.624 133.441 111.784C133.729 111.944 133.949 112.14 134.101 112.372C134.253 112.596 134.329 112.88 134.329 113.224ZM138.031 114.256C138.191 114.256 138.355 114.244 138.523 114.22C138.691 114.196 138.827 114.164 138.931 114.124V114.928C138.819 114.984 138.659 115.028 138.451 115.06C138.243 115.1 138.043 115.12 137.851 115.12C137.515 115.12 137.203 115.064 136.915 114.952C136.635 114.832 136.407 114.628 136.231 114.34C136.055 114.052 135.967 113.648 135.967 113.128V109.384H135.055V108.88L135.979 108.46L136.399 107.092H137.023V108.568H138.883V109.384H137.023V113.104C137.023 113.496 137.115 113.788 137.299 113.98C137.491 114.164 137.735 114.256 138.031 114.256ZM145.772 108.46C146.556 108.46 147.136 108.632 147.512 108.976C147.888 109.32 148.076 109.868 148.076 110.62V115H147.308L147.104 114.088H147.056C146.776 114.44 146.48 114.7 146.168 114.868C145.856 115.036 145.432 115.12 144.896 115.12C144.312 115.12 143.828 114.968 143.444 114.664C143.06 114.352 142.868 113.868 142.868 113.212C142.868 112.572 143.12 112.08 143.624 111.736C144.128 111.384 144.904 111.192 145.952 111.16L147.044 111.124V110.74C147.044 110.204 146.928 109.832 146.696 109.624C146.464 109.416 146.136 109.312 145.712 109.312C145.376 109.312 145.056 109.364 144.752 109.468C144.448 109.564 144.164 109.676 143.9 109.804L143.576 109.012C143.856 108.86 144.188 108.732 144.572 108.628C144.956 108.516 145.356 108.46 145.772 108.46ZM147.032 111.856L146.084 111.892C145.284 111.924 144.728 112.052 144.416 112.276C144.112 112.5 143.96 112.816 143.96 113.224C143.96 113.584 144.068 113.848 144.284 114.016C144.508 114.184 144.792 114.268 145.136 114.268C145.672 114.268 146.12 114.12 146.48 113.824C146.848 113.52 147.032 113.056 147.032 112.432V111.856ZM156.24 108.448C157.032 108.448 157.668 108.724 158.148 109.276C158.636 109.828 158.88 110.66 158.88 111.772C158.88 112.868 158.636 113.7 158.148 114.268C157.668 114.836 157.028 115.12 156.228 115.12C155.732 115.12 155.32 115.028 154.992 114.844C154.672 114.66 154.42 114.44 154.236 114.184H154.164C154.172 114.32 154.184 114.492 154.2 114.7C154.224 114.908 154.236 115.088 154.236 115.24V117.88H153.18V108.568H154.044L154.188 109.444H154.236C154.428 109.164 154.68 108.928 154.992 108.736C155.304 108.544 155.72 108.448 156.24 108.448ZM156.048 109.336C155.392 109.336 154.928 109.52 154.656 109.888C154.384 110.256 154.244 110.816 154.236 111.568V111.772C154.236 112.564 154.364 113.176 154.62 113.608C154.884 114.032 155.368 114.244 156.072 114.244C156.456 114.244 156.776 114.14 157.032 113.932C157.288 113.716 157.476 113.42 157.596 113.044C157.724 112.668 157.788 112.24 157.788 111.76C157.788 111.024 157.644 110.436 157.356 109.996C157.076 109.556 156.64 109.336 156.048 109.336ZM162.999 108.46C163.783 108.46 164.363 108.632 164.739 108.976C165.115 109.32 165.303 109.868 165.303 110.62V115H164.535L164.331 114.088H164.283C164.003 114.44 163.707 114.7 163.395 114.868C163.083 115.036 162.659 115.12 162.123 115.12C161.539 115.12 161.055 114.968 160.671 114.664C160.287 114.352 160.095 113.868 160.095 113.212C160.095 112.572 160.347 112.08 160.851 111.736C161.355 111.384 162.131 111.192 163.179 111.16L164.271 111.124V110.74C164.271 110.204 164.155 109.832 163.923 109.624C163.691 109.416 163.363 109.312 162.939 109.312C162.603 109.312 162.283 109.364 161.979 109.468C161.675 109.564 161.391 109.676 161.127 109.804L160.803 109.012C161.083 108.86 161.415 108.732 161.799 108.628C162.183 108.516 162.583 108.46 162.999 108.46ZM164.259 111.856L163.311 111.892C162.511 111.924 161.955 112.052 161.643 112.276C161.339 112.5 161.187 112.816 161.187 113.224C161.187 113.584 161.295 113.848 161.511 114.016C161.735 114.184 162.019 114.268 162.363 114.268C162.899 114.268 163.347 114.12 163.707 113.824C164.075 113.52 164.259 113.056 164.259 112.432V111.856ZM171.478 113.224C171.478 113.848 171.246 114.32 170.782 114.64C170.318 114.96 169.694 115.12 168.91 115.12C168.462 115.12 168.074 115.084 167.746 115.012C167.426 114.94 167.142 114.84 166.894 114.712V113.752C167.15 113.88 167.458 114 167.818 114.112C168.186 114.216 168.558 114.268 168.934 114.268C169.47 114.268 169.858 114.184 170.098 114.016C170.338 113.84 170.458 113.608 170.458 113.32C170.458 113.16 170.414 113.016 170.326 112.888C170.238 112.76 170.078 112.632 169.846 112.504C169.622 112.376 169.298 112.232 168.874 112.072C168.458 111.912 168.102 111.752 167.806 111.592C167.51 111.432 167.282 111.24 167.122 111.016C166.962 110.792 166.882 110.504 166.882 110.152C166.882 109.608 167.102 109.188 167.542 108.892C167.99 108.596 168.574 108.448 169.294 108.448C169.686 108.448 170.05 108.488 170.386 108.568C170.73 108.648 171.05 108.752 171.346 108.88L170.986 109.72C170.714 109.608 170.43 109.512 170.134 109.432C169.838 109.352 169.534 109.312 169.222 109.312C168.79 109.312 168.458 109.384 168.226 109.528C168.002 109.664 167.89 109.852 167.89 110.092C167.89 110.276 167.942 110.428 168.046 110.548C168.15 110.668 168.322 110.788 168.562 110.908C168.81 111.028 169.138 111.164 169.546 111.316C169.954 111.468 170.302 111.624 170.59 111.784C170.878 111.944 171.098 112.14 171.25 112.372C171.402 112.596 171.478 112.88 171.478 113.224ZM177.22 113.224C177.22 113.848 176.988 114.32 176.524 114.64C176.06 114.96 175.436 115.12 174.652 115.12C174.204 115.12 173.816 115.084 173.488 115.012C173.168 114.94 172.884 114.84 172.636 114.712V113.752C172.892 113.88 173.2 114 173.56 114.112C173.928 114.216 174.3 114.268 174.676 114.268C175.212 114.268 175.6 114.184 175.84 114.016C176.08 113.84 176.2 113.608 176.2 113.32C176.2 113.16 176.156 113.016 176.068 112.888C175.98 112.76 175.82 112.632 175.588 112.504C175.364 112.376 175.04 112.232 174.616 112.072C174.2 111.912 173.844 111.752 173.548 111.592C173.252 111.432 173.024 111.24 172.864 111.016C172.704 110.792 172.624 110.504 172.624 110.152C172.624 109.608 172.844 109.188 173.284 108.892C173.732 108.596 174.316 108.448 175.036 108.448C175.428 108.448 175.792 108.488 176.128 108.568C176.472 108.648 176.792 108.752 177.088 108.88L176.728 109.72C176.456 109.608 176.172 109.512 175.876 109.432C175.58 109.352 175.276 109.312 174.964 109.312C174.532 109.312 174.2 109.384 173.968 109.528C173.744 109.664 173.632 109.852 173.632 110.092C173.632 110.276 173.684 110.428 173.788 110.548C173.892 110.668 174.064 110.788 174.304 110.908C174.552 111.028 174.88 111.164 175.288 111.316C175.696 111.468 176.044 111.624 176.332 111.784C176.62 111.944 176.84 112.14 176.992 112.372C177.144 112.596 177.22 112.88 177.22 113.224ZM184.03 114.988L182.926 111.364C182.822 111.036 182.73 110.716 182.65 110.404C182.57 110.092 182.514 109.844 182.482 109.66H182.434C182.402 109.844 182.35 110.092 182.278 110.404C182.206 110.716 182.114 111.04 182.002 111.376L180.85 114.988H179.65L177.886 108.556H178.978L179.866 111.988C179.954 112.332 180.038 112.68 180.118 113.032C180.198 113.384 180.254 113.676 180.286 113.908H180.334C180.358 113.772 180.394 113.604 180.442 113.404C180.49 113.204 180.542 112.996 180.598 112.78C180.654 112.556 180.71 112.356 180.766 112.18L181.906 108.556H183.058L184.162 112.18C184.242 112.46 184.326 112.76 184.414 113.08C184.502 113.4 184.562 113.672 184.594 113.896H184.642C184.666 113.696 184.718 113.42 184.798 113.068C184.886 112.716 184.978 112.356 185.074 111.988L185.974 108.556H187.054L185.266 114.988H184.03ZM193.799 111.772C193.799 112.836 193.528 113.66 192.984 114.244C192.448 114.828 191.72 115.12 190.8 115.12C190.232 115.12 189.724 114.992 189.276 114.736C188.836 114.472 188.488 114.092 188.232 113.596C187.976 113.092 187.848 112.484 187.848 111.772C187.848 110.708 188.112 109.888 188.64 109.312C189.176 108.736 189.908 108.448 190.836 108.448C191.412 108.448 191.924 108.58 192.372 108.844C192.82 109.1 193.168 109.476 193.416 109.972C193.672 110.46 193.799 111.06 193.799 111.772ZM188.94 111.772C188.94 112.532 189.088 113.136 189.384 113.584C189.688 114.024 190.168 114.244 190.824 114.244C191.472 114.244 191.948 114.024 192.252 113.584C192.556 113.136 192.708 112.532 192.708 111.772C192.708 111.012 192.556 110.416 192.252 109.984C191.948 109.552 191.468 109.336 190.812 109.336C190.156 109.336 189.68 109.552 189.384 109.984C189.088 110.416 188.94 111.012 188.94 111.772ZM198.473 108.448C198.593 108.448 198.721 108.456 198.857 108.472C198.993 108.48 199.117 108.496 199.229 108.52L199.097 109.492C198.993 109.468 198.877 109.448 198.749 109.432C198.621 109.416 198.505 109.408 198.401 109.408C198.073 109.408 197.765 109.5 197.477 109.684C197.189 109.86 196.957 110.112 196.781 110.44C196.613 110.76 196.529 111.136 196.529 111.568V115H195.473V108.568H196.337L196.457 109.744H196.505C196.705 109.392 196.969 109.088 197.297 108.832C197.633 108.576 198.025 108.448 198.473 108.448ZM202.476 115.12C201.676 115.12 201.036 114.844 200.556 114.292C200.076 113.732 199.836 112.9 199.836 111.796C199.836 110.692 200.076 109.86 200.556 109.3C201.044 108.732 201.688 108.448 202.488 108.448C202.984 108.448 203.388 108.54 203.7 108.724C204.02 108.908 204.28 109.132 204.48 109.396H204.552C204.536 109.292 204.52 109.14 204.504 108.94C204.488 108.732 204.48 108.568 204.48 108.448V105.88H205.536V115H204.684L204.528 114.136H204.48C204.288 114.408 204.032 114.64 203.712 114.832C203.392 115.024 202.98 115.12 202.476 115.12ZM202.644 114.244C203.324 114.244 203.8 114.06 204.072 113.692C204.352 113.316 204.492 112.752 204.492 112V111.808C204.492 111.008 204.36 110.396 204.096 109.972C203.832 109.54 203.344 109.324 202.632 109.324C202.064 109.324 201.636 109.552 201.348 110.008C201.068 110.456 200.928 111.06 200.928 111.82C200.928 112.588 201.068 113.184 201.348 113.608C201.636 114.032 202.068 114.244 202.644 114.244ZM213.696 108.448C213.816 108.448 213.944 108.456 214.08 108.472C214.216 108.48 214.34 108.496 214.452 108.52L214.32 109.492C214.216 109.468 214.1 109.448 213.972 109.432C213.844 109.416 213.728 109.408 213.624 109.408C213.296 109.408 212.988 109.5 212.7 109.684C212.412 109.86 212.18 110.112 212.004 110.44C211.836 110.76 211.752 111.136 211.752 111.568V115H210.696V108.568H211.56L211.68 109.744H211.728C211.928 109.392 212.192 109.088 212.52 108.832C212.856 108.576 213.248 108.448 213.696 108.448ZM217.902 108.448C218.446 108.448 218.918 108.568 219.318 108.808C219.718 109.048 220.022 109.388 220.23 109.828C220.446 110.26 220.554 110.768 220.554 111.352V111.988H216.15C216.166 112.716 216.35 113.272 216.702 113.656C217.062 114.032 217.562 114.22 218.202 114.22C218.61 114.22 218.97 114.184 219.282 114.112C219.602 114.032 219.93 113.92 220.266 113.776V114.7C219.938 114.844 219.614 114.948 219.294 115.012C218.974 115.084 218.594 115.12 218.154 115.12C217.538 115.12 216.998 114.996 216.534 114.748C216.07 114.5 215.706 114.132 215.442 113.644C215.186 113.156 215.058 112.552 215.058 111.832C215.058 111.128 215.174 110.524 215.406 110.02C215.646 109.516 215.978 109.128 216.402 108.856C216.834 108.584 217.334 108.448 217.902 108.448ZM217.89 109.312C217.386 109.312 216.986 109.476 216.69 109.804C216.402 110.124 216.23 110.572 216.174 111.148H219.45C219.442 110.604 219.314 110.164 219.066 109.828C218.818 109.484 218.426 109.312 217.89 109.312ZM226.38 113.224C226.38 113.848 226.148 114.32 225.684 114.64C225.22 114.96 224.596 115.12 223.812 115.12C223.364 115.12 222.976 115.084 222.648 115.012C222.328 114.94 222.044 114.84 221.796 114.712V113.752C222.052 113.88 222.36 114 222.72 114.112C223.088 114.216 223.46 114.268 223.836 114.268C224.372 114.268 224.76 114.184 225 114.016C225.24 113.84 225.36 113.608 225.36 113.32C225.36 113.16 225.316 113.016 225.228 112.888C225.14 112.76 224.98 112.632 224.748 112.504C224.524 112.376 224.2 112.232 223.776 112.072C223.36 111.912 223.004 111.752 222.708 111.592C222.412 111.432 222.184 111.24 222.024 111.016C221.864 110.792 221.784 110.504 221.784 110.152C221.784 109.608 222.004 109.188 222.444 108.892C222.892 108.596 223.476 108.448 224.196 108.448C224.588 108.448 224.952 108.488 225.288 108.568C225.632 108.648 225.952 108.752 226.248 108.88L225.888 109.72C225.616 109.608 225.332 109.512 225.036 109.432C224.74 109.352 224.436 109.312 224.124 109.312C223.692 109.312 223.36 109.384 223.128 109.528C222.904 109.664 222.792 109.852 222.792 110.092C222.792 110.276 222.844 110.428 222.948 110.548C223.052 110.668 223.224 110.788 223.464 110.908C223.712 111.028 224.04 111.164 224.448 111.316C224.856 111.468 225.204 111.624 225.492 111.784C225.78 111.944 226 112.14 226.152 112.372C226.304 112.596 226.38 112.88 226.38 113.224ZM230.418 108.448C230.962 108.448 231.434 108.568 231.834 108.808C232.234 109.048 232.538 109.388 232.746 109.828C232.962 110.26 233.07 110.768 233.07 111.352V111.988H228.666C228.682 112.716 228.866 113.272 229.218 113.656C229.578 114.032 230.078 114.22 230.718 114.22C231.126 114.22 231.486 114.184 231.798 114.112C232.118 114.032 232.446 113.92 232.782 113.776V114.7C232.454 114.844 232.13 114.948 231.81 115.012C231.49 115.084 231.11 115.12 230.67 115.12C230.054 115.12 229.514 114.996 229.05 114.748C228.586 114.5 228.222 114.132 227.958 113.644C227.702 113.156 227.574 112.552 227.574 111.832C227.574 111.128 227.69 110.524 227.922 110.02C228.162 109.516 228.494 109.128 228.918 108.856C229.35 108.584 229.85 108.448 230.418 108.448ZM230.406 109.312C229.902 109.312 229.502 109.476 229.206 109.804C228.918 110.124 228.746 110.572 228.69 111.148H231.966C231.958 110.604 231.83 110.164 231.582 109.828C231.334 109.484 230.942 109.312 230.406 109.312ZM236.855 114.256C237.016 114.256 237.18 114.244 237.348 114.22C237.516 114.196 237.652 114.164 237.756 114.124V114.928C237.644 114.984 237.484 115.028 237.276 115.06C237.068 115.1 236.868 115.12 236.676 115.12C236.34 115.12 236.028 115.064 235.74 114.952C235.46 114.832 235.232 114.628 235.056 114.34C234.88 114.052 234.792 113.648 234.792 113.128V109.384H233.88V108.88L234.804 108.46L235.224 107.092H235.848V108.568H237.708V109.384H235.848V113.104C235.848 113.496 235.94 113.788 236.124 113.98C236.316 114.164 236.56 114.256 236.855 114.256ZM242.701 106.156C242.861 106.156 243.001 106.212 243.121 106.324C243.249 106.428 243.313 106.596 243.313 106.828C243.313 107.06 243.249 107.232 243.121 107.344C243.001 107.448 242.861 107.5 242.701 107.5C242.525 107.5 242.377 107.448 242.257 107.344C242.137 107.232 242.077 107.06 242.077 106.828C242.077 106.596 242.137 106.428 242.257 106.324C242.377 106.212 242.525 106.156 242.701 106.156ZM243.217 108.568V115H242.161V108.568H243.217ZM248.218 109.384H246.598V115H245.542V109.384H244.414V108.892L245.542 108.532V108.16C245.542 107.328 245.722 106.732 246.082 106.372C246.45 106.004 246.966 105.82 247.63 105.82C247.878 105.82 248.11 105.844 248.326 105.892C248.542 105.932 248.726 105.98 248.878 106.036L248.602 106.864C248.474 106.824 248.326 106.784 248.158 106.744C247.99 106.704 247.818 106.684 247.642 106.684C247.29 106.684 247.026 106.804 246.85 107.044C246.682 107.276 246.598 107.644 246.598 108.148V108.568H248.218V109.384ZM255.497 108.448C255.617 108.448 255.745 108.456 255.881 108.472C256.017 108.48 256.141 108.496 256.253 108.52L256.121 109.492C256.017 109.468 255.901 109.448 255.773 109.432C255.645 109.416 255.529 109.408 255.425 109.408C255.097 109.408 254.789 109.5 254.501 109.684C254.213 109.86 253.981 110.112 253.805 110.44C253.637 110.76 253.553 111.136 253.553 111.568V115H252.497V108.568H253.361L253.481 109.744H253.529C253.729 109.392 253.993 109.088 254.321 108.832C254.657 108.576 255.049 108.448 255.497 108.448ZM259.703 108.448C260.247 108.448 260.719 108.568 261.119 108.808C261.519 109.048 261.823 109.388 262.031 109.828C262.247 110.26 262.355 110.768 262.355 111.352V111.988H257.951C257.967 112.716 258.151 113.272 258.503 113.656C258.863 114.032 259.363 114.22 260.003 114.22C260.411 114.22 260.771 114.184 261.083 114.112C261.403 114.032 261.731 113.92 262.067 113.776V114.7C261.739 114.844 261.415 114.948 261.095 115.012C260.775 115.084 260.395 115.12 259.955 115.12C259.339 115.12 258.799 114.996 258.335 114.748C257.871 114.5 257.507 114.132 257.243 113.644C256.987 113.156 256.859 112.552 256.859 111.832C256.859 111.128 256.975 110.524 257.207 110.02C257.447 109.516 257.779 109.128 258.203 108.856C258.635 108.584 259.135 108.448 259.703 108.448ZM259.691 109.312C259.187 109.312 258.787 109.476 258.491 109.804C258.203 110.124 258.031 110.572 257.975 111.148H261.251C261.243 110.604 261.115 110.164 260.867 109.828C260.619 109.484 260.227 109.312 259.691 109.312ZM268.277 117.88V115.132C268.277 114.988 268.281 114.82 268.289 114.628C268.297 114.436 268.313 114.272 268.337 114.136H268.265C268.081 114.408 267.825 114.64 267.497 114.832C267.177 115.024 266.761 115.12 266.249 115.12C265.473 115.12 264.841 114.844 264.353 114.292C263.873 113.732 263.633 112.9 263.633 111.796C263.633 110.692 263.877 109.86 264.365 109.3C264.861 108.732 265.501 108.448 266.285 108.448C266.789 108.448 267.201 108.544 267.521 108.736C267.841 108.928 268.097 109.164 268.289 109.444H268.337L268.493 108.568H269.333V117.88H268.277ZM266.453 114.244C267.109 114.244 267.577 114.064 267.857 113.704C268.137 113.336 268.281 112.776 268.289 112.024V111.808C268.289 110.992 268.153 110.376 267.881 109.96C267.609 109.536 267.125 109.324 266.429 109.324C265.853 109.324 265.425 109.552 265.145 110.008C264.865 110.456 264.725 111.06 264.725 111.82C264.725 112.58 264.865 113.176 265.145 113.608C265.425 114.032 265.861 114.244 266.453 114.244ZM276.751 108.568V115H275.887L275.731 114.148H275.683C275.475 114.484 275.187 114.732 274.819 114.892C274.451 115.044 274.059 115.12 273.643 115.12C272.867 115.12 272.283 114.936 271.891 114.568C271.499 114.192 271.303 113.596 271.303 112.78V108.568H272.371V112.708C272.371 113.732 272.847 114.244 273.799 114.244C274.511 114.244 275.003 114.044 275.275 113.644C275.555 113.244 275.695 112.668 275.695 111.916V108.568H276.751ZM279.333 106.156C279.493 106.156 279.633 106.212 279.753 106.324C279.881 106.428 279.945 106.596 279.945 106.828C279.945 107.06 279.881 107.232 279.753 107.344C279.633 107.448 279.493 107.5 279.333 107.5C279.157 107.5 279.009 107.448 278.889 107.344C278.769 107.232 278.709 107.06 278.709 106.828C278.709 106.596 278.769 106.428 278.889 106.324C279.009 106.212 279.157 106.156 279.333 106.156ZM279.849 108.568V115H278.793V108.568H279.849ZM284.887 108.448C285.007 108.448 285.135 108.456 285.271 108.472C285.407 108.48 285.531 108.496 285.643 108.52L285.511 109.492C285.407 109.468 285.291 109.448 285.163 109.432C285.035 109.416 284.919 109.408 284.815 109.408C284.487 109.408 284.179 109.5 283.891 109.684C283.603 109.86 283.371 110.112 283.195 110.44C283.027 110.76 282.943 111.136 282.943 111.568V115H281.887V108.568H282.751L282.871 109.744H282.919C283.119 109.392 283.383 109.088 283.711 108.832C284.047 108.576 284.439 108.448 284.887 108.448ZM289.094 108.448C289.638 108.448 290.11 108.568 290.51 108.808C290.91 109.048 291.214 109.388 291.422 109.828C291.638 110.26 291.746 110.768 291.746 111.352V111.988H287.342C287.358 112.716 287.542 113.272 287.894 113.656C288.254 114.032 288.754 114.22 289.394 114.22C289.802 114.22 290.162 114.184 290.474 114.112C290.794 114.032 291.122 113.92 291.458 113.776V114.7C291.13 114.844 290.806 114.948 290.486 115.012C290.166 115.084 289.786 115.12 289.346 115.12C288.73 115.12 288.19 114.996 287.726 114.748C287.262 114.5 286.898 114.132 286.634 113.644C286.378 113.156 286.25 112.552 286.25 111.832C286.25 111.128 286.366 110.524 286.598 110.02C286.838 109.516 287.17 109.128 287.594 108.856C288.026 108.584 288.526 108.448 289.094 108.448ZM289.082 109.312C288.578 109.312 288.178 109.476 287.882 109.804C287.594 110.124 287.422 110.572 287.366 111.148H290.642C290.634 110.604 290.506 110.164 290.258 109.828C290.01 109.484 289.618 109.312 289.082 109.312ZM295.663 115.12C294.863 115.12 294.223 114.844 293.743 114.292C293.263 113.732 293.023 112.9 293.023 111.796C293.023 110.692 293.263 109.86 293.743 109.3C294.231 108.732 294.875 108.448 295.675 108.448C296.171 108.448 296.575 108.54 296.887 108.724C297.207 108.908 297.467 109.132 297.667 109.396H297.739C297.723 109.292 297.707 109.14 297.691 108.94C297.675 108.732 297.667 108.568 297.667 108.448V105.88H298.723V115H297.871L297.715 114.136H297.667C297.475 114.408 297.219 114.64 296.899 114.832C296.579 115.024 296.167 115.12 295.663 115.12ZM295.831 114.244C296.511 114.244 296.987 114.06 297.259 113.692C297.539 113.316 297.679 112.752 297.679 112V111.808C297.679 111.008 297.547 110.396 297.283 109.972C297.019 109.54 296.531 109.324 295.819 109.324C295.251 109.324 294.823 109.552 294.535 110.008C294.255 110.456 294.115 111.06 294.115 111.82C294.115 112.588 294.255 113.184 294.535 113.608C294.823 114.032 295.255 114.244 295.831 114.244ZM300.61 114.352C300.61 114.056 300.682 113.848 300.826 113.728C300.97 113.608 301.142 113.548 301.342 113.548C301.542 113.548 301.718 113.608 301.87 113.728C302.022 113.848 302.098 114.056 302.098 114.352C302.098 114.64 302.022 114.848 301.87 114.976C301.718 115.104 301.542 115.168 301.342 115.168C301.142 115.168 300.97 115.104 300.826 114.976C300.682 114.848 300.61 114.64 300.61 114.352Z" fill="black"/>
<rect x="57" y="94.5" width="298" height="31" rx="1.5" stroke="#939393"/>
</svg>
