<svg width="428" height="124" viewBox="0 0 428 124" fill="none" xmlns="http://www.w3.org/2000/svg">
<rect width="428" height="124" fill="white"/>
<path d="M154.664 43V34.432H155.744V42.04H159.488V43H154.664ZM163.249 36.46C164.033 36.46 164.613 36.632 164.989 36.976C165.365 37.32 165.553 37.868 165.553 38.62V43H164.785L164.581 42.088H164.533C164.253 42.44 163.957 42.7 163.645 42.868C163.333 43.036 162.909 43.12 162.373 43.12C161.789 43.12 161.305 42.968 160.921 42.664C160.537 42.352 160.345 41.868 160.345 41.212C160.345 40.572 160.597 40.08 161.101 39.736C161.605 39.384 162.381 39.192 163.429 39.16L164.521 39.124V38.74C164.521 38.204 164.405 37.832 164.173 37.624C163.941 37.416 163.613 37.312 163.189 37.312C162.853 37.312 162.533 37.364 162.229 37.468C161.925 37.564 161.641 37.676 161.377 37.804L161.053 37.012C161.333 36.86 161.665 36.732 162.049 36.628C162.433 36.516 162.833 36.46 163.249 36.46ZM164.509 39.856L163.561 39.892C162.761 39.924 162.205 40.052 161.893 40.276C161.589 40.5 161.437 40.816 161.437 41.224C161.437 41.584 161.545 41.848 161.761 42.016C161.985 42.184 162.269 42.268 162.613 42.268C163.149 42.268 163.597 42.12 163.957 41.824C164.325 41.52 164.509 41.056 164.509 40.432V39.856ZM168.596 33.88V36.1C168.596 36.372 168.588 36.628 168.572 36.868C168.564 37.1 168.552 37.284 168.536 37.42H168.596C168.78 37.148 169.032 36.92 169.352 36.736C169.672 36.552 170.084 36.46 170.588 36.46C171.388 36.46 172.028 36.74 172.508 37.3C172.996 37.852 173.24 38.68 173.24 39.784C173.24 40.888 172.996 41.72 172.508 42.28C172.02 42.84 171.38 43.12 170.588 43.12C170.084 43.12 169.672 43.028 169.352 42.844C169.032 42.66 168.78 42.44 168.596 42.184H168.512L168.296 43H167.54V33.88H168.596ZM170.408 37.336C169.72 37.336 169.244 37.532 168.98 37.924C168.724 38.316 168.596 38.924 168.596 39.748V39.796C168.596 40.588 168.724 41.196 168.98 41.62C169.244 42.036 169.728 42.244 170.432 42.244C171.008 42.244 171.436 42.032 171.716 41.608C172.004 41.184 172.148 40.572 172.148 39.772C172.148 38.148 171.568 37.336 170.408 37.336ZM177.406 36.448C177.95 36.448 178.422 36.568 178.822 36.808C179.222 37.048 179.526 37.388 179.734 37.828C179.95 38.26 180.058 38.768 180.058 39.352V39.988H175.654C175.67 40.716 175.854 41.272 176.206 41.656C176.566 42.032 177.066 42.22 177.706 42.22C178.114 42.22 178.474 42.184 178.786 42.112C179.106 42.032 179.434 41.92 179.77 41.776V42.7C179.442 42.844 179.118 42.948 178.798 43.012C178.478 43.084 178.098 43.12 177.658 43.12C177.042 43.12 176.502 42.996 176.038 42.748C175.574 42.5 175.21 42.132 174.946 41.644C174.69 41.156 174.562 40.552 174.562 39.832C174.562 39.128 174.678 38.524 174.91 38.02C175.15 37.516 175.482 37.128 175.906 36.856C176.338 36.584 176.838 36.448 177.406 36.448ZM177.394 37.312C176.89 37.312 176.49 37.476 176.194 37.804C175.906 38.124 175.734 38.572 175.678 39.148H178.954C178.946 38.604 178.818 38.164 178.57 37.828C178.322 37.484 177.93 37.312 177.394 37.312ZM182.752 43H181.696V33.88H182.752V43Z" fill="#323232"/>
<rect x="154" y="50.5" width="131" height="23" rx="1.5" fill="white"/>
<path d="M166.022 67H164.762V58.11H161.64V57.004H169.13V58.11H166.022V67ZM172.383 59.356C173.018 59.356 173.568 59.496 174.035 59.776C174.502 60.056 174.856 60.4527 175.099 60.966C175.351 61.47 175.477 62.0627 175.477 62.744V63.486H170.339C170.358 64.3353 170.572 64.984 170.983 65.432C171.403 65.8707 171.986 66.09 172.733 66.09C173.209 66.09 173.629 66.048 173.993 65.964C174.366 65.8707 174.749 65.74 175.141 65.572V66.65C174.758 66.818 174.38 66.9393 174.007 67.014C173.634 67.098 173.19 67.14 172.677 67.14C171.958 67.14 171.328 66.9953 170.787 66.706C170.246 66.4167 169.821 65.9873 169.513 65.418C169.214 64.8487 169.065 64.144 169.065 63.304C169.065 62.4827 169.2 61.778 169.471 61.19C169.751 60.602 170.138 60.1493 170.633 59.832C171.137 59.5147 171.72 59.356 172.383 59.356ZM172.369 60.364C171.781 60.364 171.314 60.5553 170.969 60.938C170.633 61.3113 170.432 61.834 170.367 62.506H174.189C174.18 61.8713 174.03 61.358 173.741 60.966C173.452 60.5647 172.994 60.364 172.369 60.364ZM178.892 63.164L176.302 59.496H177.702L179.634 62.324L181.552 59.496H182.938L180.348 63.164L183.078 67H181.678L179.634 64.004L177.562 67H176.176L178.892 63.164ZM187.03 66.132C187.217 66.132 187.408 66.118 187.604 66.09C187.8 66.062 187.959 66.0247 188.08 65.978V66.916C187.949 66.9813 187.763 67.0327 187.52 67.07C187.277 67.1167 187.044 67.14 186.82 67.14C186.428 67.14 186.064 67.0747 185.728 66.944C185.401 66.804 185.135 66.566 184.93 66.23C184.725 65.894 184.622 65.4227 184.622 64.816V60.448H183.558V59.86L184.636 59.37L185.126 57.774H185.854V59.496H188.024V60.448H185.854V64.788C185.854 65.2453 185.961 65.586 186.176 65.81C186.4 66.0247 186.685 66.132 187.03 66.132Z" fill="black"/>
<rect x="154" y="50.5" width="131" height="23" rx="1.5" stroke="#939393"/>
<path d="M160.04 91L159.008 88.348H155.612L154.592 91H153.5L156.848 82.396H157.82L161.156 91H160.04ZM158.684 87.388L157.724 84.796C157.7 84.732 157.66 84.616 157.604 84.448C157.548 84.28 157.492 84.108 157.436 83.932C157.388 83.748 157.348 83.608 157.316 83.512C157.252 83.76 157.184 84.004 157.112 84.244C157.048 84.476 156.992 84.66 156.944 84.796L155.972 87.388H158.684ZM164.464 91.12C163.664 91.12 163.024 90.844 162.544 90.292C162.064 89.732 161.824 88.9 161.824 87.796C161.824 86.692 162.064 85.86 162.544 85.3C163.032 84.732 163.676 84.448 164.476 84.448C164.972 84.448 165.376 84.54 165.688 84.724C166.008 84.908 166.268 85.132 166.468 85.396H166.54C166.524 85.292 166.508 85.14 166.492 84.94C166.476 84.732 166.468 84.568 166.468 84.448V81.88H167.524V91H166.672L166.516 90.136H166.468C166.276 90.408 166.02 90.64 165.7 90.832C165.38 91.024 164.968 91.12 164.464 91.12ZM164.632 90.244C165.312 90.244 165.788 90.06 166.06 89.692C166.34 89.316 166.48 88.752 166.48 88V87.808C166.48 87.008 166.348 86.396 166.084 85.972C165.82 85.54 165.332 85.324 164.62 85.324C164.052 85.324 163.624 85.552 163.336 86.008C163.056 86.456 162.916 87.06 162.916 87.82C162.916 88.588 163.056 89.184 163.336 89.608C163.624 90.032 164.056 90.244 164.632 90.244ZM171.847 91.12C171.047 91.12 170.407 90.844 169.927 90.292C169.447 89.732 169.207 88.9 169.207 87.796C169.207 86.692 169.447 85.86 169.927 85.3C170.415 84.732 171.059 84.448 171.859 84.448C172.355 84.448 172.759 84.54 173.071 84.724C173.391 84.908 173.651 85.132 173.851 85.396H173.923C173.907 85.292 173.891 85.14 173.875 84.94C173.859 84.732 173.851 84.568 173.851 84.448V81.88H174.907V91H174.055L173.899 90.136H173.851C173.659 90.408 173.403 90.64 173.083 90.832C172.763 91.024 172.351 91.12 171.847 91.12ZM172.015 90.244C172.695 90.244 173.171 90.06 173.443 89.692C173.723 89.316 173.863 88.752 173.863 88V87.808C173.863 87.008 173.731 86.396 173.467 85.972C173.203 85.54 172.715 85.324 172.003 85.324C171.435 85.324 171.007 85.552 170.719 86.008C170.439 86.456 170.299 87.06 170.299 87.82C170.299 88.588 170.439 89.184 170.719 89.608C171.007 90.032 171.439 90.244 172.015 90.244ZM177.49 82.156C177.65 82.156 177.79 82.212 177.91 82.324C178.038 82.428 178.102 82.596 178.102 82.828C178.102 83.06 178.038 83.232 177.91 83.344C177.79 83.448 177.65 83.5 177.49 83.5C177.314 83.5 177.166 83.448 177.046 83.344C176.926 83.232 176.866 83.06 176.866 82.828C176.866 82.596 176.926 82.428 177.046 82.324C177.166 82.212 177.314 82.156 177.49 82.156ZM178.006 84.568V91H176.95V84.568H178.006ZM182.191 90.256C182.351 90.256 182.515 90.244 182.683 90.22C182.851 90.196 182.987 90.164 183.091 90.124V90.928C182.979 90.984 182.819 91.028 182.611 91.06C182.403 91.1 182.203 91.12 182.011 91.12C181.675 91.12 181.363 91.064 181.075 90.952C180.795 90.832 180.567 90.628 180.391 90.34C180.215 90.052 180.127 89.648 180.127 89.128V85.384H179.215V84.88L180.139 84.46L180.559 83.092H181.183V84.568H183.043V85.384H181.183V89.104C181.183 89.496 181.275 89.788 181.459 89.98C181.651 90.164 181.895 90.256 182.191 90.256ZM184.919 82.156C185.079 82.156 185.219 82.212 185.339 82.324C185.467 82.428 185.531 82.596 185.531 82.828C185.531 83.06 185.467 83.232 185.339 83.344C185.219 83.448 185.079 83.5 184.919 83.5C184.743 83.5 184.595 83.448 184.475 83.344C184.355 83.232 184.295 83.06 184.295 82.828C184.295 82.596 184.355 82.428 184.475 82.324C184.595 82.212 184.743 82.156 184.919 82.156ZM185.435 84.568V91H184.379V84.568H185.435ZM193.065 87.772C193.065 88.836 192.793 89.66 192.249 90.244C191.713 90.828 190.985 91.12 190.065 91.12C189.497 91.12 188.989 90.992 188.541 90.736C188.101 90.472 187.753 90.092 187.497 89.596C187.241 89.092 187.113 88.484 187.113 87.772C187.113 86.708 187.377 85.888 187.905 85.312C188.441 84.736 189.173 84.448 190.101 84.448C190.677 84.448 191.189 84.58 191.637 84.844C192.085 85.1 192.433 85.476 192.681 85.972C192.937 86.46 193.065 87.06 193.065 87.772ZM188.205 87.772C188.205 88.532 188.353 89.136 188.649 89.584C188.953 90.024 189.433 90.244 190.089 90.244C190.737 90.244 191.213 90.024 191.517 89.584C191.821 89.136 191.973 88.532 191.973 87.772C191.973 87.012 191.821 86.416 191.517 85.984C191.213 85.552 190.733 85.336 190.077 85.336C189.421 85.336 188.945 85.552 188.649 85.984C188.353 86.416 188.205 87.012 188.205 87.772ZM197.835 84.448C198.603 84.448 199.183 84.636 199.575 85.012C199.967 85.388 200.163 85.988 200.163 86.812V91H199.119V86.884C199.119 85.852 198.639 85.336 197.679 85.336C196.967 85.336 196.475 85.536 196.203 85.936C195.931 86.336 195.795 86.912 195.795 87.664V91H194.739V84.568H195.591L195.747 85.444H195.807C196.015 85.108 196.303 84.86 196.671 84.7C197.039 84.532 197.427 84.448 197.835 84.448ZM204.593 84.46C205.377 84.46 205.957 84.632 206.333 84.976C206.709 85.32 206.897 85.868 206.897 86.62V91H206.129L205.925 90.088H205.877C205.597 90.44 205.301 90.7 204.989 90.868C204.677 91.036 204.253 91.12 203.717 91.12C203.133 91.12 202.649 90.968 202.265 90.664C201.881 90.352 201.689 89.868 201.689 89.212C201.689 88.572 201.941 88.08 202.445 87.736C202.949 87.384 203.725 87.192 204.773 87.16L205.865 87.124V86.74C205.865 86.204 205.749 85.832 205.517 85.624C205.285 85.416 204.957 85.312 204.533 85.312C204.197 85.312 203.877 85.364 203.573 85.468C203.269 85.564 202.985 85.676 202.721 85.804L202.397 85.012C202.677 84.86 203.009 84.732 203.393 84.628C203.777 84.516 204.177 84.46 204.593 84.46ZM205.853 87.856L204.905 87.892C204.105 87.924 203.549 88.052 203.237 88.276C202.933 88.5 202.781 88.816 202.781 89.224C202.781 89.584 202.889 89.848 203.105 90.016C203.329 90.184 203.613 90.268 203.957 90.268C204.493 90.268 204.941 90.12 205.301 89.824C205.669 89.52 205.853 89.056 205.853 88.432V87.856ZM209.939 91H208.883V81.88H209.939V91ZM217.674 91.12C217.098 91.12 216.59 91.004 216.15 90.772C215.71 90.54 215.362 90.18 215.106 89.692C214.858 89.204 214.734 88.58 214.734 87.82C214.734 87.028 214.862 86.384 215.118 85.888C215.382 85.392 215.742 85.028 216.198 84.796C216.654 84.564 217.17 84.448 217.746 84.448C218.066 84.448 218.378 84.484 218.682 84.556C218.994 84.62 219.246 84.7 219.438 84.796L219.114 85.672C218.922 85.6 218.698 85.532 218.442 85.468C218.186 85.404 217.946 85.372 217.722 85.372C216.458 85.372 215.826 86.184 215.826 87.808C215.826 88.584 215.978 89.18 216.282 89.596C216.594 90.004 217.054 90.208 217.662 90.208C218.006 90.208 218.314 90.172 218.586 90.1C218.858 90.028 219.106 89.94 219.33 89.836V90.772C219.114 90.884 218.874 90.968 218.61 91.024C218.354 91.088 218.042 91.12 217.674 91.12ZM226.452 87.772C226.452 88.836 226.18 89.66 225.636 90.244C225.1 90.828 224.372 91.12 223.452 91.12C222.884 91.12 222.376 90.992 221.928 90.736C221.488 90.472 221.14 90.092 220.884 89.596C220.628 89.092 220.5 88.484 220.5 87.772C220.5 86.708 220.764 85.888 221.292 85.312C221.828 84.736 222.56 84.448 223.488 84.448C224.064 84.448 224.576 84.58 225.024 84.844C225.472 85.1 225.82 85.476 226.068 85.972C226.324 86.46 226.452 87.06 226.452 87.772ZM221.592 87.772C221.592 88.532 221.74 89.136 222.036 89.584C222.34 90.024 222.82 90.244 223.476 90.244C224.124 90.244 224.6 90.024 224.904 89.584C225.208 89.136 225.36 88.532 225.36 87.772C225.36 87.012 225.208 86.416 224.904 85.984C224.6 85.552 224.12 85.336 223.464 85.336C222.808 85.336 222.332 85.552 222.036 85.984C221.74 86.416 221.592 87.012 221.592 87.772ZM231.221 84.448C231.989 84.448 232.569 84.636 232.961 85.012C233.353 85.388 233.549 85.988 233.549 86.812V91H232.505V86.884C232.505 85.852 232.025 85.336 231.065 85.336C230.353 85.336 229.861 85.536 229.589 85.936C229.317 86.336 229.181 86.912 229.181 87.664V91H228.125V84.568H228.977L229.133 85.444H229.193C229.401 85.108 229.689 84.86 230.057 84.7C230.425 84.532 230.813 84.448 231.221 84.448ZM237.691 90.256C237.851 90.256 238.015 90.244 238.183 90.22C238.351 90.196 238.487 90.164 238.591 90.124V90.928C238.479 90.984 238.319 91.028 238.111 91.06C237.903 91.1 237.703 91.12 237.511 91.12C237.175 91.12 236.863 91.064 236.575 90.952C236.295 90.832 236.067 90.628 235.891 90.34C235.715 90.052 235.627 89.648 235.627 89.128V85.384H234.715V84.88L235.639 84.46L236.059 83.092H236.683V84.568H238.543V85.384H236.683V89.104C236.683 89.496 236.775 89.788 236.959 89.98C237.151 90.164 237.395 90.256 237.691 90.256ZM242.363 84.448C242.907 84.448 243.379 84.568 243.779 84.808C244.179 85.048 244.483 85.388 244.691 85.828C244.907 86.26 245.015 86.768 245.015 87.352V87.988H240.611C240.627 88.716 240.811 89.272 241.163 89.656C241.523 90.032 242.023 90.22 242.663 90.22C243.071 90.22 243.431 90.184 243.743 90.112C244.063 90.032 244.391 89.92 244.727 89.776V90.7C244.399 90.844 244.075 90.948 243.755 91.012C243.435 91.084 243.055 91.12 242.615 91.12C241.999 91.12 241.459 90.996 240.995 90.748C240.531 90.5 240.167 90.132 239.903 89.644C239.647 89.156 239.519 88.552 239.519 87.832C239.519 87.128 239.635 86.524 239.867 86.02C240.107 85.516 240.439 85.128 240.863 84.856C241.295 84.584 241.795 84.448 242.363 84.448ZM242.351 85.312C241.847 85.312 241.447 85.476 241.151 85.804C240.863 86.124 240.691 86.572 240.635 87.148H243.911C243.903 86.604 243.775 86.164 243.527 85.828C243.279 85.484 242.887 85.312 242.351 85.312ZM249.749 84.448C250.517 84.448 251.097 84.636 251.489 85.012C251.881 85.388 252.077 85.988 252.077 86.812V91H251.033V86.884C251.033 85.852 250.553 85.336 249.593 85.336C248.881 85.336 248.389 85.536 248.117 85.936C247.845 86.336 247.709 86.912 247.709 87.664V91H246.653V84.568H247.505L247.661 85.444H247.721C247.929 85.108 248.217 84.86 248.585 84.7C248.953 84.532 249.341 84.448 249.749 84.448ZM256.219 90.256C256.379 90.256 256.543 90.244 256.711 90.22C256.879 90.196 257.015 90.164 257.119 90.124V90.928C257.007 90.984 256.847 91.028 256.639 91.06C256.431 91.1 256.231 91.12 256.039 91.12C255.703 91.12 255.391 91.064 255.103 90.952C254.823 90.832 254.595 90.628 254.419 90.34C254.243 90.052 254.155 89.648 254.155 89.128V85.384H253.243V84.88L254.167 84.46L254.587 83.092H255.211V84.568H257.071V85.384H255.211V89.104C255.211 89.496 255.303 89.788 255.487 89.98C255.679 90.164 255.923 90.256 256.219 90.256Z" fill="#5E5E5E"/>
<path d="M100.964 67H94.1176V65.698L96.6656 63.122C97.1696 62.6087 97.5803 62.17 97.8976 61.806C98.2243 61.442 98.4623 61.1013 98.6116 60.784C98.7703 60.4573 98.8496 60.1073 98.8496 59.734C98.8496 59.2767 98.719 58.936 98.4576 58.712C98.2056 58.4787 97.8603 58.362 97.4216 58.362C97.0016 58.362 96.6096 58.4507 96.2456 58.628C95.8816 58.796 95.5036 59.0387 95.1116 59.356L94.1456 58.194C94.5563 57.8393 95.0183 57.5313 95.5316 57.27C96.0543 56.9993 96.717 56.864 97.5196 56.864C98.1636 56.864 98.7143 56.9807 99.1716 57.214C99.6383 57.438 99.9976 57.7553 100.25 58.166C100.502 58.5673 100.628 59.0293 100.628 59.552C100.628 60.0933 100.52 60.5927 100.306 61.05C100.091 61.498 99.7783 61.9507 99.3676 62.408C98.9663 62.856 98.4856 63.3413 97.9256 63.864L96.3436 65.39V65.474H100.964V67ZM109.283 64.858H107.981V67H106.245V64.858H101.793V63.542L106.287 56.976H107.981V63.416H109.283V64.858ZM106.245 63.416V61.176C106.245 60.9147 106.25 60.644 106.259 60.364C106.269 60.0747 106.278 59.8087 106.287 59.566C106.306 59.314 106.32 59.1227 106.329 58.992H106.273C106.189 59.1787 106.096 59.3653 105.993 59.552C105.9 59.7293 105.793 59.9067 105.671 60.084L103.403 63.416H106.245ZM118.3 59.272C119.186 59.272 119.9 59.6033 120.442 60.266C120.983 60.9193 121.254 61.8947 121.254 63.192C121.254 64.4893 120.974 65.474 120.414 66.146C119.863 66.8087 119.144 67.14 118.258 67.14C117.698 67.14 117.245 67.0373 116.9 66.832C116.554 66.6267 116.279 66.3887 116.074 66.118H115.962C115.99 66.2953 116.013 66.4867 116.032 66.692C116.06 66.8973 116.074 67.0933 116.074 67.28V70.36H114.31V59.412H115.738L115.99 60.42H116.074C116.288 60.1027 116.568 59.832 116.914 59.608C117.259 59.384 117.721 59.272 118.3 59.272ZM117.796 60.7C117.17 60.7 116.727 60.8867 116.466 61.26C116.214 61.6333 116.083 62.198 116.074 62.954V63.178C116.074 63.99 116.195 64.6153 116.438 65.054C116.69 65.4833 117.152 65.698 117.824 65.698C118.374 65.698 118.78 65.474 119.042 65.026C119.312 64.5687 119.448 63.948 119.448 63.164C119.448 62.38 119.312 61.7733 119.042 61.344C118.78 60.9147 118.365 60.7 117.796 60.7ZM124.438 63.122L121.932 59.412H123.934L125.586 61.988L127.238 59.412H129.24L126.706 63.122L129.366 67H127.364L125.586 64.242L123.808 67H121.806L124.438 63.122Z" fill="#D51588"/>
<path fill-rule="evenodd" clip-rule="evenodd" d="M133.5 72H141.5V73H133.5V72Z" fill="#D51588"/>
<path fill-rule="evenodd" clip-rule="evenodd" d="M137 72L137 52L138 52L138 72L137 72Z" fill="#D51588"/>
<path fill-rule="evenodd" clip-rule="evenodd" d="M133.5 51H141.5V52H133.5V51Z" fill="#D51588"/>
<path d="M314.27 48.858H312.968V51H311.232V48.858H306.78V47.542L311.274 40.976H312.968V47.416H314.27V48.858ZM311.232 47.416V45.176C311.232 44.9147 311.236 44.644 311.246 44.364C311.255 44.0747 311.264 43.8087 311.274 43.566C311.292 43.314 311.306 43.1227 311.316 42.992H311.26C311.176 43.1787 311.082 43.3653 310.98 43.552C310.886 43.7293 310.779 43.9067 310.658 44.084L308.39 47.416H311.232ZM323.286 43.272C324.173 43.272 324.887 43.6033 325.428 44.266C325.969 44.9193 326.24 45.8947 326.24 47.192C326.24 48.4893 325.96 49.474 325.4 50.146C324.849 50.8087 324.131 51.14 323.244 51.14C322.684 51.14 322.231 51.0373 321.886 50.832C321.541 50.6267 321.265 50.3887 321.06 50.118H320.948C320.976 50.2953 320.999 50.4867 321.018 50.692C321.046 50.8973 321.06 51.0933 321.06 51.28V54.36H319.296V43.412H320.724L320.976 44.42H321.06C321.275 44.1027 321.555 43.832 321.9 43.608C322.245 43.384 322.707 43.272 323.286 43.272ZM322.782 44.7C322.157 44.7 321.713 44.8867 321.452 45.26C321.2 45.6333 321.069 46.198 321.06 46.954V47.178C321.06 47.99 321.181 48.6153 321.424 49.054C321.676 49.4833 322.138 49.698 322.81 49.698C323.361 49.698 323.767 49.474 324.028 49.026C324.299 48.5687 324.434 47.948 324.434 47.164C324.434 46.38 324.299 45.7733 324.028 45.344C323.767 44.9147 323.351 44.7 322.782 44.7ZM329.424 47.122L326.918 43.412H328.92L330.572 45.988L332.224 43.412H334.226L331.692 47.122L334.352 51H332.35L330.572 48.242L328.794 51H326.792L329.424 47.122Z" fill="#D51588"/>
<path d="M285.5 46L301.5 46" stroke="#D51588"/>
<rect opacity="0.4" x="154.5" y="50" width="8" height="131" transform="rotate(-90 154.5 50)" fill="white"/>
<rect opacity="0.12" x="154.5" y="50" width="8" height="131" transform="rotate(-90 154.5 50)" fill="#D51588"/>
<path opacity="0.5" d="M154.5 42L285.5 42" stroke="#D51588" stroke-dasharray="3 3"/>
<path opacity="0.5" d="M154.5 50L285.5 50" stroke="#D51588" stroke-dasharray="3 3"/>
<path d="M314.27 80.858H312.968V83H311.232V80.858H306.78V79.542L311.274 72.976H312.968V79.416H314.27V80.858ZM311.232 79.416V77.176C311.232 76.9147 311.236 76.644 311.246 76.364C311.255 76.0747 311.264 75.8087 311.274 75.566C311.292 75.314 311.306 75.1227 311.316 74.992H311.26C311.176 75.1787 311.082 75.3653 310.98 75.552C310.886 75.7293 310.779 75.9067 310.658 76.084L308.39 79.416H311.232ZM323.286 75.272C324.173 75.272 324.887 75.6033 325.428 76.266C325.969 76.9193 326.24 77.8947 326.24 79.192C326.24 80.4893 325.96 81.474 325.4 82.146C324.849 82.8087 324.131 83.14 323.244 83.14C322.684 83.14 322.231 83.0373 321.886 82.832C321.541 82.6267 321.265 82.3887 321.06 82.118H320.948C320.976 82.2953 320.999 82.4867 321.018 82.692C321.046 82.8973 321.06 83.0933 321.06 83.28V86.36H319.296V75.412H320.724L320.976 76.42H321.06C321.275 76.1027 321.555 75.832 321.9 75.608C322.245 75.384 322.707 75.272 323.286 75.272ZM322.782 76.7C322.157 76.7 321.713 76.8867 321.452 77.26C321.2 77.6333 321.069 78.198 321.06 78.954V79.178C321.06 79.99 321.181 80.6153 321.424 81.054C321.676 81.4833 322.138 81.698 322.81 81.698C323.361 81.698 323.767 81.474 324.028 81.026C324.299 80.5687 324.434 79.948 324.434 79.164C324.434 78.38 324.299 77.7733 324.028 77.344C323.767 76.9147 323.351 76.7 322.782 76.7ZM329.424 79.122L326.918 75.412H328.92L330.572 77.988L332.224 75.412H334.226L331.692 79.122L334.352 83H332.35L330.572 80.242L328.794 83H326.792L329.424 79.122Z" fill="#D51588"/>
<path d="M285.5 78L301.5 78" stroke="#D51588"/>
<rect opacity="0.4" x="154.5" y="82" width="8" height="131" transform="rotate(-90 154.5 82)" fill="white"/>
<rect opacity="0.12" x="154.5" y="82" width="8" height="131" transform="rotate(-90 154.5 82)" fill="#D51588"/>
<path opacity="0.5" d="M154.5 74L285.5 74" stroke="#D51588" stroke-dasharray="3 3"/>
<path opacity="0.5" d="M154.5 82L285.5 82" stroke="#D51588" stroke-dasharray="3 3"/>
</svg>
