<svg width="412" height="200" viewBox="0 0 412 200" fill="none" xmlns="http://www.w3.org/2000/svg">
<rect width="412" height="200" fill="white"/>
<path d="M74.836 104.26C73.916 104.26 73.192 104.568 72.664 105.184C72.136 105.8 71.872 106.644 71.872 107.716C71.872 108.78 72.116 109.624 72.604 110.248C73.1 110.864 73.84 111.172 74.824 111.172C75.192 111.172 75.544 111.14 75.88 111.076C76.216 111.012 76.548 110.932 76.876 110.836V111.772C76.556 111.892 76.224 111.98 75.88 112.036C75.544 112.092 75.14 112.12 74.668 112.12C73.796 112.12 73.068 111.94 72.484 111.58C71.9 111.22 71.46 110.708 71.164 110.044C70.876 109.38 70.732 108.6 70.732 107.704C70.732 106.84 70.888 106.08 71.2 105.424C71.52 104.76 71.988 104.244 72.604 103.876C73.22 103.5 73.968 103.312 74.848 103.312C75.752 103.312 76.54 103.48 77.212 103.816L76.78 104.728C76.516 104.608 76.22 104.5 75.892 104.404C75.572 104.308 75.22 104.26 74.836 104.26ZM84.194 108.772C84.194 109.836 83.922 110.66 83.378 111.244C82.842 111.828 82.114 112.12 81.194 112.12C80.626 112.12 80.118 111.992 79.67 111.736C79.23 111.472 78.882 111.092 78.626 110.596C78.37 110.092 78.242 109.484 78.242 108.772C78.242 107.708 78.506 106.888 79.034 106.312C79.57 105.736 80.302 105.448 81.23 105.448C81.806 105.448 82.318 105.58 82.766 105.844C83.214 106.1 83.562 106.476 83.81 106.972C84.066 107.46 84.194 108.06 84.194 108.772ZM79.334 108.772C79.334 109.532 79.482 110.136 79.778 110.584C80.082 111.024 80.562 111.244 81.218 111.244C81.866 111.244 82.342 111.024 82.646 110.584C82.95 110.136 83.102 109.532 83.102 108.772C83.102 108.012 82.95 107.416 82.646 106.984C82.342 106.552 81.862 106.336 81.206 106.336C80.55 106.336 80.074 106.552 79.778 106.984C79.482 107.416 79.334 108.012 79.334 108.772ZM88.9637 105.448C89.7317 105.448 90.3117 105.636 90.7037 106.012C91.0957 106.388 91.2917 106.988 91.2917 107.812V112H90.2477V107.884C90.2477 106.852 89.7677 106.336 88.8077 106.336C88.0957 106.336 87.6037 106.536 87.3317 106.936C87.0597 107.336 86.9237 107.912 86.9237 108.664V112H85.8677V105.568H86.7197L86.8757 106.444H86.9357C87.1437 106.108 87.4317 105.86 87.7997 105.7C88.1677 105.532 88.5557 105.448 88.9637 105.448ZM95.4336 111.256C95.5936 111.256 95.7576 111.244 95.9256 111.22C96.0936 111.196 96.2296 111.164 96.3336 111.124V111.928C96.2216 111.984 96.0616 112.028 95.8536 112.06C95.6456 112.1 95.4456 112.12 95.2536 112.12C94.9176 112.12 94.6056 112.064 94.3176 111.952C94.0376 111.832 93.8096 111.628 93.6336 111.34C93.4576 111.052 93.3696 110.648 93.3696 110.128V106.384H92.4576V105.88L93.3816 105.46L93.8016 104.092H94.4256V105.568H96.2856V106.384H94.4256V110.104C94.4256 110.496 94.5176 110.788 94.7016 110.98C94.8936 111.164 95.1376 111.256 95.4336 111.256ZM100.058 105.46C100.842 105.46 101.422 105.632 101.798 105.976C102.174 106.32 102.362 106.868 102.362 107.62V112H101.594L101.39 111.088H101.342C101.062 111.44 100.766 111.7 100.454 111.868C100.142 112.036 99.7176 112.12 99.1816 112.12C98.5976 112.12 98.1136 111.968 97.7296 111.664C97.3456 111.352 97.1536 110.868 97.1536 110.212C97.1536 109.572 97.4056 109.08 97.9096 108.736C98.4136 108.384 99.1896 108.192 100.238 108.16L101.33 108.124V107.74C101.33 107.204 101.214 106.832 100.982 106.624C100.75 106.416 100.422 106.312 99.9976 106.312C99.6616 106.312 99.3416 106.364 99.0376 106.468C98.7336 106.564 98.4496 106.676 98.1856 106.804L97.8616 106.012C98.1416 105.86 98.4736 105.732 98.8576 105.628C99.2416 105.516 99.6416 105.46 100.058 105.46ZM101.318 108.856L100.37 108.892C99.5696 108.924 99.0136 109.052 98.7016 109.276C98.3976 109.5 98.2456 109.816 98.2456 110.224C98.2456 110.584 98.3536 110.848 98.5696 111.016C98.7936 111.184 99.0776 111.268 99.4216 111.268C99.9576 111.268 100.406 111.12 100.766 110.824C101.134 110.52 101.318 110.056 101.318 109.432V108.856ZM104.888 103.156C105.048 103.156 105.188 103.212 105.308 103.324C105.436 103.428 105.5 103.596 105.5 103.828C105.5 104.06 105.436 104.232 105.308 104.344C105.188 104.448 105.048 104.5 104.888 104.5C104.712 104.5 104.564 104.448 104.444 104.344C104.324 104.232 104.264 104.06 104.264 103.828C104.264 103.596 104.324 103.428 104.444 103.324C104.564 103.212 104.712 103.156 104.888 103.156ZM105.404 105.568V112H104.348V105.568H105.404ZM110.538 105.448C111.306 105.448 111.886 105.636 112.278 106.012C112.67 106.388 112.866 106.988 112.866 107.812V112H111.822V107.884C111.822 106.852 111.342 106.336 110.382 106.336C109.67 106.336 109.178 106.536 108.906 106.936C108.634 107.336 108.498 107.912 108.498 108.664V112H107.442V105.568H108.294L108.45 106.444H108.51C108.718 106.108 109.006 105.86 109.374 105.7C109.742 105.532 110.13 105.448 110.538 105.448ZM120.413 105.46C121.197 105.46 121.777 105.632 122.153 105.976C122.529 106.32 122.717 106.868 122.717 107.62V112H121.949L121.745 111.088H121.697C121.417 111.44 121.121 111.7 120.809 111.868C120.497 112.036 120.073 112.12 119.537 112.12C118.953 112.12 118.469 111.968 118.085 111.664C117.701 111.352 117.509 110.868 117.509 110.212C117.509 109.572 117.761 109.08 118.265 108.736C118.769 108.384 119.545 108.192 120.593 108.16L121.685 108.124V107.74C121.685 107.204 121.569 106.832 121.337 106.624C121.105 106.416 120.777 106.312 120.353 106.312C120.017 106.312 119.697 106.364 119.393 106.468C119.089 106.564 118.805 106.676 118.541 106.804L118.217 106.012C118.497 105.86 118.829 105.732 119.213 105.628C119.597 105.516 119.997 105.46 120.413 105.46ZM121.673 108.856L120.725 108.892C119.925 108.924 119.369 109.052 119.057 109.276C118.753 109.5 118.601 109.816 118.601 110.224C118.601 110.584 118.709 110.848 118.925 111.016C119.149 111.184 119.433 111.268 119.777 111.268C120.313 111.268 120.761 111.12 121.121 110.824C121.489 110.52 121.673 110.056 121.673 109.432V108.856ZM126.852 111.256C127.012 111.256 127.176 111.244 127.344 111.22C127.512 111.196 127.648 111.164 127.752 111.124V111.928C127.64 111.984 127.48 112.028 127.272 112.06C127.064 112.1 126.864 112.12 126.672 112.12C126.336 112.12 126.024 112.064 125.736 111.952C125.456 111.832 125.228 111.628 125.052 111.34C124.876 111.052 124.788 110.648 124.788 110.128V106.384H123.876V105.88L124.8 105.46L125.22 104.092H125.844V105.568H127.704V106.384H125.844V110.104C125.844 110.496 125.936 110.788 126.12 110.98C126.312 111.164 126.556 111.256 126.852 111.256ZM133.213 112H132.157V102.88H133.213V112ZM137.734 105.448C138.278 105.448 138.75 105.568 139.15 105.808C139.55 106.048 139.854 106.388 140.062 106.828C140.278 107.26 140.386 107.768 140.386 108.352V108.988H135.982C135.998 109.716 136.182 110.272 136.534 110.656C136.894 111.032 137.394 111.22 138.034 111.22C138.442 111.22 138.802 111.184 139.114 111.112C139.434 111.032 139.762 110.92 140.098 110.776V111.7C139.77 111.844 139.446 111.948 139.126 112.012C138.806 112.084 138.426 112.12 137.986 112.12C137.37 112.12 136.83 111.996 136.366 111.748C135.902 111.5 135.538 111.132 135.274 110.644C135.018 110.156 134.89 109.552 134.89 108.832C134.89 108.128 135.006 107.524 135.238 107.02C135.478 106.516 135.81 106.128 136.234 105.856C136.666 105.584 137.166 105.448 137.734 105.448ZM137.722 106.312C137.218 106.312 136.818 106.476 136.522 106.804C136.234 107.124 136.062 107.572 136.006 108.148H139.282C139.274 107.604 139.146 107.164 138.898 106.828C138.65 106.484 138.258 106.312 137.722 106.312ZM144.46 105.46C145.244 105.46 145.824 105.632 146.2 105.976C146.576 106.32 146.764 106.868 146.764 107.62V112H145.996L145.792 111.088H145.744C145.464 111.44 145.168 111.7 144.856 111.868C144.544 112.036 144.12 112.12 143.584 112.12C143 112.12 142.516 111.968 142.132 111.664C141.748 111.352 141.556 110.868 141.556 110.212C141.556 109.572 141.808 109.08 142.312 108.736C142.816 108.384 143.592 108.192 144.64 108.16L145.732 108.124V107.74C145.732 107.204 145.616 106.832 145.384 106.624C145.152 106.416 144.824 106.312 144.4 106.312C144.064 106.312 143.744 106.364 143.44 106.468C143.136 106.564 142.852 106.676 142.588 106.804L142.264 106.012C142.544 105.86 142.876 105.732 143.26 105.628C143.644 105.516 144.044 105.46 144.46 105.46ZM145.72 108.856L144.772 108.892C143.972 108.924 143.416 109.052 143.104 109.276C142.8 109.5 142.648 109.816 142.648 110.224C142.648 110.584 142.756 110.848 142.972 111.016C143.196 111.184 143.48 111.268 143.824 111.268C144.36 111.268 144.808 111.12 145.168 110.824C145.536 110.52 145.72 110.056 145.72 109.432V108.856ZM152.938 110.224C152.938 110.848 152.706 111.32 152.242 111.64C151.778 111.96 151.154 112.12 150.37 112.12C149.922 112.12 149.534 112.084 149.206 112.012C148.886 111.94 148.602 111.84 148.354 111.712V110.752C148.61 110.88 148.918 111 149.278 111.112C149.646 111.216 150.018 111.268 150.394 111.268C150.93 111.268 151.318 111.184 151.558 111.016C151.798 110.84 151.918 110.608 151.918 110.32C151.918 110.16 151.874 110.016 151.786 109.888C151.698 109.76 151.538 109.632 151.306 109.504C151.082 109.376 150.758 109.232 150.334 109.072C149.918 108.912 149.562 108.752 149.266 108.592C148.97 108.432 148.742 108.24 148.582 108.016C148.422 107.792 148.342 107.504 148.342 107.152C148.342 106.608 148.562 106.188 149.002 105.892C149.45 105.596 150.034 105.448 150.754 105.448C151.146 105.448 151.51 105.488 151.846 105.568C152.19 105.648 152.51 105.752 152.806 105.88L152.446 106.72C152.174 106.608 151.89 106.512 151.594 106.432C151.298 106.352 150.994 106.312 150.682 106.312C150.25 106.312 149.918 106.384 149.686 106.528C149.462 106.664 149.35 106.852 149.35 107.092C149.35 107.276 149.402 107.428 149.506 107.548C149.61 107.668 149.782 107.788 150.022 107.908C150.27 108.028 150.598 108.164 151.006 108.316C151.414 108.468 151.762 108.624 152.05 108.784C152.338 108.944 152.558 109.14 152.71 109.372C152.862 109.596 152.938 109.88 152.938 110.224ZM156.641 111.256C156.801 111.256 156.965 111.244 157.133 111.22C157.301 111.196 157.437 111.164 157.541 111.124V111.928C157.429 111.984 157.269 112.028 157.061 112.06C156.853 112.1 156.653 112.12 156.461 112.12C156.125 112.12 155.813 112.064 155.525 111.952C155.245 111.832 155.017 111.628 154.841 111.34C154.665 111.052 154.577 110.648 154.577 110.128V106.384H153.665V105.88L154.589 105.46L155.009 104.092H155.633V105.568H157.493V106.384H155.633V110.104C155.633 110.496 155.725 110.788 155.909 110.98C156.101 111.164 156.345 111.256 156.641 111.256ZM165.186 112H164.154V106.012C164.154 105.668 164.158 105.392 164.166 105.184C164.174 104.976 164.186 104.76 164.202 104.536C164.074 104.664 163.954 104.772 163.842 104.86C163.738 104.948 163.61 105.06 163.458 105.196L162.546 105.94L161.994 105.232L164.31 103.432H165.186V112ZM177.306 105.568V112H176.442L176.286 111.148H176.238C176.03 111.484 175.742 111.732 175.374 111.892C175.006 112.044 174.614 112.12 174.198 112.12C173.422 112.12 172.838 111.936 172.446 111.568C172.054 111.192 171.858 110.596 171.858 109.78V105.568H172.926V109.708C172.926 110.732 173.402 111.244 174.354 111.244C175.066 111.244 175.558 111.044 175.83 110.644C176.11 110.244 176.25 109.668 176.25 108.916V105.568H177.306ZM182.408 105.448C183.2 105.448 183.836 105.724 184.316 106.276C184.804 106.828 185.048 107.66 185.048 108.772C185.048 109.868 184.804 110.7 184.316 111.268C183.836 111.836 183.196 112.12 182.396 112.12C181.9 112.12 181.488 112.028 181.16 111.844C180.84 111.66 180.588 111.44 180.404 111.184H180.332C180.34 111.32 180.352 111.492 180.368 111.7C180.392 111.908 180.404 112.088 180.404 112.24V114.88H179.348V105.568H180.212L180.356 106.444H180.404C180.596 106.164 180.848 105.928 181.16 105.736C181.472 105.544 181.888 105.448 182.408 105.448ZM182.216 106.336C181.56 106.336 181.096 106.52 180.824 106.888C180.552 107.256 180.412 107.816 180.404 108.568V108.772C180.404 109.564 180.532 110.176 180.788 110.608C181.052 111.032 181.536 111.244 182.24 111.244C182.624 111.244 182.944 111.14 183.2 110.932C183.456 110.716 183.644 110.42 183.764 110.044C183.892 109.668 183.956 109.24 183.956 108.76C183.956 108.024 183.812 107.436 183.524 106.996C183.244 106.556 182.808 106.336 182.216 106.336ZM189.791 105.448C190.583 105.448 191.219 105.724 191.699 106.276C192.187 106.828 192.431 107.66 192.431 108.772C192.431 109.868 192.187 110.7 191.699 111.268C191.219 111.836 190.579 112.12 189.779 112.12C189.283 112.12 188.871 112.028 188.543 111.844C188.223 111.66 187.971 111.44 187.787 111.184H187.715C187.723 111.32 187.735 111.492 187.751 111.7C187.775 111.908 187.787 112.088 187.787 112.24V114.88H186.731V105.568H187.595L187.739 106.444H187.787C187.979 106.164 188.231 105.928 188.543 105.736C188.855 105.544 189.271 105.448 189.791 105.448ZM189.599 106.336C188.943 106.336 188.479 106.52 188.207 106.888C187.935 107.256 187.795 107.816 187.787 108.568V108.772C187.787 109.564 187.915 110.176 188.171 110.608C188.435 111.032 188.919 111.244 189.623 111.244C190.007 111.244 190.327 111.14 190.583 110.932C190.839 110.716 191.027 110.42 191.147 110.044C191.275 109.668 191.339 109.24 191.339 108.76C191.339 108.024 191.195 107.436 190.907 106.996C190.627 106.556 190.191 106.336 189.599 106.336ZM196.598 105.448C197.142 105.448 197.614 105.568 198.014 105.808C198.414 106.048 198.718 106.388 198.926 106.828C199.142 107.26 199.25 107.768 199.25 108.352V108.988H194.846C194.862 109.716 195.046 110.272 195.398 110.656C195.758 111.032 196.258 111.22 196.898 111.22C197.306 111.22 197.666 111.184 197.978 111.112C198.298 111.032 198.626 110.92 198.962 110.776V111.7C198.634 111.844 198.31 111.948 197.99 112.012C197.67 112.084 197.29 112.12 196.85 112.12C196.234 112.12 195.694 111.996 195.23 111.748C194.766 111.5 194.402 111.132 194.138 110.644C193.882 110.156 193.754 109.552 193.754 108.832C193.754 108.128 193.87 107.524 194.102 107.02C194.342 106.516 194.674 106.128 195.098 105.856C195.53 105.584 196.03 105.448 196.598 105.448ZM196.586 106.312C196.082 106.312 195.682 106.476 195.386 106.804C195.098 107.124 194.926 107.572 194.87 108.148H198.146C198.138 107.604 198.01 107.164 197.762 106.828C197.514 106.484 197.122 106.312 196.586 106.312ZM203.887 105.448C204.007 105.448 204.135 105.456 204.271 105.472C204.407 105.48 204.531 105.496 204.643 105.52L204.511 106.492C204.407 106.468 204.291 106.448 204.163 106.432C204.035 106.416 203.919 106.408 203.815 106.408C203.487 106.408 203.179 106.5 202.891 106.684C202.603 106.86 202.371 107.112 202.195 107.44C202.027 107.76 201.943 108.136 201.943 108.568V112H200.887V105.568H201.751L201.871 106.744H201.919C202.119 106.392 202.383 106.088 202.711 105.832C203.047 105.576 203.439 105.448 203.887 105.448ZM208.19 112.12C207.614 112.12 207.106 112.004 206.666 111.772C206.226 111.54 205.878 111.18 205.622 110.692C205.374 110.204 205.25 109.58 205.25 108.82C205.25 108.028 205.378 107.384 205.634 106.888C205.898 106.392 206.258 106.028 206.714 105.796C207.17 105.564 207.686 105.448 208.262 105.448C208.582 105.448 208.894 105.484 209.198 105.556C209.51 105.62 209.762 105.7 209.954 105.796L209.63 106.672C209.438 106.6 209.214 106.532 208.958 106.468C208.702 106.404 208.462 106.372 208.238 106.372C206.974 106.372 206.342 107.184 206.342 108.808C206.342 109.584 206.494 110.18 206.798 110.596C207.11 111.004 207.57 111.208 208.178 111.208C208.522 111.208 208.83 111.172 209.102 111.1C209.374 111.028 209.622 110.94 209.846 110.836V111.772C209.63 111.884 209.39 111.968 209.126 112.024C208.87 112.088 208.558 112.12 208.19 112.12ZM213.811 105.46C214.595 105.46 215.175 105.632 215.551 105.976C215.927 106.32 216.115 106.868 216.115 107.62V112H215.347L215.143 111.088H215.095C214.815 111.44 214.519 111.7 214.207 111.868C213.895 112.036 213.471 112.12 212.935 112.12C212.351 112.12 211.867 111.968 211.483 111.664C211.099 111.352 210.907 110.868 210.907 110.212C210.907 109.572 211.159 109.08 211.663 108.736C212.167 108.384 212.943 108.192 213.991 108.16L215.083 108.124V107.74C215.083 107.204 214.967 106.832 214.735 106.624C214.503 106.416 214.175 106.312 213.751 106.312C213.415 106.312 213.095 106.364 212.791 106.468C212.487 106.564 212.203 106.676 211.939 106.804L211.615 106.012C211.895 105.86 212.227 105.732 212.611 105.628C212.995 105.516 213.395 105.46 213.811 105.46ZM215.071 108.856L214.123 108.892C213.323 108.924 212.767 109.052 212.455 109.276C212.151 109.5 211.999 109.816 211.999 110.224C211.999 110.584 212.107 110.848 212.323 111.016C212.547 111.184 212.831 111.268 213.175 111.268C213.711 111.268 214.159 111.12 214.519 110.824C214.887 110.52 215.071 110.056 215.071 109.432V108.856ZM222.29 110.224C222.29 110.848 222.058 111.32 221.594 111.64C221.13 111.96 220.506 112.12 219.722 112.12C219.274 112.12 218.886 112.084 218.558 112.012C218.238 111.94 217.954 111.84 217.706 111.712V110.752C217.962 110.88 218.27 111 218.63 111.112C218.998 111.216 219.37 111.268 219.746 111.268C220.282 111.268 220.67 111.184 220.91 111.016C221.15 110.84 221.27 110.608 221.27 110.32C221.27 110.16 221.226 110.016 221.138 109.888C221.05 109.76 220.89 109.632 220.658 109.504C220.434 109.376 220.11 109.232 219.686 109.072C219.27 108.912 218.914 108.752 218.618 108.592C218.322 108.432 218.094 108.24 217.934 108.016C217.774 107.792 217.694 107.504 217.694 107.152C217.694 106.608 217.914 106.188 218.354 105.892C218.802 105.596 219.386 105.448 220.106 105.448C220.498 105.448 220.862 105.488 221.198 105.568C221.542 105.648 221.862 105.752 222.158 105.88L221.798 106.72C221.526 106.608 221.242 106.512 220.946 106.432C220.65 106.352 220.346 106.312 220.034 106.312C219.602 106.312 219.27 106.384 219.038 106.528C218.814 106.664 218.702 106.852 218.702 107.092C218.702 107.276 218.754 107.428 218.858 107.548C218.962 107.668 219.134 107.788 219.374 107.908C219.622 108.028 219.95 108.164 220.358 108.316C220.766 108.468 221.114 108.624 221.402 108.784C221.69 108.944 221.91 109.14 222.062 109.372C222.214 109.596 222.29 109.88 222.29 110.224ZM226.328 105.448C226.872 105.448 227.344 105.568 227.744 105.808C228.144 106.048 228.448 106.388 228.656 106.828C228.872 107.26 228.98 107.768 228.98 108.352V108.988H224.576C224.592 109.716 224.776 110.272 225.128 110.656C225.488 111.032 225.988 111.22 226.628 111.22C227.036 111.22 227.396 111.184 227.708 111.112C228.028 111.032 228.356 110.92 228.692 110.776V111.7C228.364 111.844 228.04 111.948 227.72 112.012C227.4 112.084 227.02 112.12 226.58 112.12C225.964 112.12 225.424 111.996 224.96 111.748C224.496 111.5 224.132 111.132 223.868 110.644C223.612 110.156 223.484 109.552 223.484 108.832C223.484 108.128 223.6 107.524 223.832 107.02C224.072 106.516 224.404 106.128 224.828 105.856C225.26 105.584 225.76 105.448 226.328 105.448ZM226.316 106.312C225.812 106.312 225.412 106.476 225.116 106.804C224.828 107.124 224.656 107.572 224.6 108.148H227.876C227.868 107.604 227.74 107.164 227.492 106.828C227.244 106.484 226.852 106.312 226.316 106.312ZM234.791 112H233.735V102.88H234.791V112ZM239.313 105.448C239.857 105.448 240.329 105.568 240.729 105.808C241.129 106.048 241.433 106.388 241.641 106.828C241.857 107.26 241.965 107.768 241.965 108.352V108.988H237.561C237.577 109.716 237.761 110.272 238.113 110.656C238.473 111.032 238.973 111.22 239.613 111.22C240.021 111.22 240.381 111.184 240.693 111.112C241.013 111.032 241.341 110.92 241.677 110.776V111.7C241.349 111.844 241.025 111.948 240.705 112.012C240.385 112.084 240.005 112.12 239.565 112.12C238.949 112.12 238.409 111.996 237.945 111.748C237.481 111.5 237.117 111.132 236.853 110.644C236.597 110.156 236.469 109.552 236.469 108.832C236.469 108.128 236.585 107.524 236.817 107.02C237.057 106.516 237.389 106.128 237.813 105.856C238.245 105.584 238.745 105.448 239.313 105.448ZM239.301 106.312C238.797 106.312 238.397 106.476 238.101 106.804C237.813 107.124 237.641 107.572 237.585 108.148H240.861C240.853 107.604 240.725 107.164 240.477 106.828C240.229 106.484 239.837 106.312 239.301 106.312ZM245.75 111.256C245.91 111.256 246.074 111.244 246.242 111.22C246.41 111.196 246.546 111.164 246.65 111.124V111.928C246.538 111.984 246.378 112.028 246.17 112.06C245.962 112.1 245.762 112.12 245.57 112.12C245.234 112.12 244.922 112.064 244.634 111.952C244.354 111.832 244.126 111.628 243.95 111.34C243.774 111.052 243.686 110.648 243.686 110.128V106.384H242.774V105.88L243.698 105.46L244.118 104.092H244.742V105.568H246.602V106.384H244.742V110.104C244.742 110.496 244.834 110.788 245.018 110.98C245.21 111.164 245.454 111.256 245.75 111.256ZM250.086 111.256C250.246 111.256 250.41 111.244 250.578 111.22C250.746 111.196 250.882 111.164 250.986 111.124V111.928C250.874 111.984 250.714 112.028 250.506 112.06C250.298 112.1 250.098 112.12 249.906 112.12C249.57 112.12 249.258 112.064 248.97 111.952C248.69 111.832 248.462 111.628 248.286 111.34C248.11 111.052 248.022 110.648 248.022 110.128V106.384H247.11V105.88L248.034 105.46L248.454 104.092H249.078V105.568H250.938V106.384H249.078V110.104C249.078 110.496 249.17 110.788 249.354 110.98C249.546 111.164 249.79 111.256 250.086 111.256ZM254.758 105.448C255.302 105.448 255.774 105.568 256.174 105.808C256.574 106.048 256.878 106.388 257.086 106.828C257.302 107.26 257.41 107.768 257.41 108.352V108.988H253.006C253.022 109.716 253.206 110.272 253.558 110.656C253.918 111.032 254.418 111.22 255.058 111.22C255.466 111.22 255.826 111.184 256.138 111.112C256.458 111.032 256.786 110.92 257.122 110.776V111.7C256.794 111.844 256.47 111.948 256.15 112.012C255.83 112.084 255.45 112.12 255.01 112.12C254.394 112.12 253.854 111.996 253.39 111.748C252.926 111.5 252.562 111.132 252.298 110.644C252.042 110.156 251.914 109.552 251.914 108.832C251.914 108.128 252.03 107.524 252.262 107.02C252.502 106.516 252.834 106.128 253.258 105.856C253.69 105.584 254.19 105.448 254.758 105.448ZM254.746 106.312C254.242 106.312 253.842 106.476 253.546 106.804C253.258 107.124 253.086 107.572 253.03 108.148H256.306C256.298 107.604 256.17 107.164 255.922 106.828C255.674 106.484 255.282 106.312 254.746 106.312ZM262.047 105.448C262.167 105.448 262.295 105.456 262.431 105.472C262.567 105.48 262.691 105.496 262.803 105.52L262.671 106.492C262.567 106.468 262.451 106.448 262.323 106.432C262.195 106.416 262.079 106.408 261.975 106.408C261.647 106.408 261.339 106.5 261.051 106.684C260.763 106.86 260.531 107.112 260.355 107.44C260.187 107.76 260.103 108.136 260.103 108.568V112H259.047V105.568H259.911L260.031 106.744H260.079C260.279 106.392 260.543 106.088 260.871 105.832C261.207 105.576 261.599 105.448 262.047 105.448ZM268.192 110.224C268.192 110.848 267.96 111.32 267.496 111.64C267.032 111.96 266.408 112.12 265.624 112.12C265.176 112.12 264.788 112.084 264.46 112.012C264.14 111.94 263.856 111.84 263.608 111.712V110.752C263.864 110.88 264.172 111 264.532 111.112C264.9 111.216 265.272 111.268 265.648 111.268C266.184 111.268 266.572 111.184 266.812 111.016C267.052 110.84 267.172 110.608 267.172 110.32C267.172 110.16 267.128 110.016 267.04 109.888C266.952 109.76 266.792 109.632 266.56 109.504C266.336 109.376 266.012 109.232 265.588 109.072C265.172 108.912 264.816 108.752 264.52 108.592C264.224 108.432 263.996 108.24 263.836 108.016C263.676 107.792 263.596 107.504 263.596 107.152C263.596 106.608 263.816 106.188 264.256 105.892C264.704 105.596 265.288 105.448 266.008 105.448C266.4 105.448 266.764 105.488 267.1 105.568C267.444 105.648 267.764 105.752 268.06 105.88L267.7 106.72C267.428 106.608 267.144 106.512 266.848 106.432C266.552 106.352 266.248 106.312 265.936 106.312C265.504 106.312 265.172 106.384 264.94 106.528C264.716 106.664 264.604 106.852 264.604 107.092C264.604 107.276 264.656 107.428 264.76 107.548C264.864 107.668 265.036 107.788 265.276 107.908C265.524 108.028 265.852 108.164 266.26 108.316C266.668 108.468 267.016 108.624 267.304 108.784C267.592 108.944 267.812 109.14 267.964 109.372C268.116 109.596 268.192 109.88 268.192 110.224Z" fill="#088A08"/>
<path d="M77.716 136H76.636V132.004H72.244V136H71.164V127.432H72.244V131.056H76.636V127.432H77.716V136ZM82.3505 129.46C83.1345 129.46 83.7145 129.632 84.0905 129.976C84.4665 130.32 84.6545 130.868 84.6545 131.62V136H83.8865L83.6825 135.088H83.6345C83.3545 135.44 83.0585 135.7 82.7465 135.868C82.4345 136.036 82.0105 136.12 81.4745 136.12C80.8905 136.12 80.4065 135.968 80.0225 135.664C79.6385 135.352 79.4465 134.868 79.4465 134.212C79.4465 133.572 79.6985 133.08 80.2025 132.736C80.7065 132.384 81.4825 132.192 82.5305 132.16L83.6225 132.124V131.74C83.6225 131.204 83.5065 130.832 83.2745 130.624C83.0425 130.416 82.7145 130.312 82.2905 130.312C81.9545 130.312 81.6345 130.364 81.3305 130.468C81.0265 130.564 80.7425 130.676 80.4785 130.804L80.1545 130.012C80.4345 129.86 80.7665 129.732 81.1505 129.628C81.5345 129.516 81.9345 129.46 82.3505 129.46ZM83.6105 132.856L82.6625 132.892C81.8625 132.924 81.3065 133.052 80.9945 133.276C80.6905 133.5 80.5385 133.816 80.5385 134.224C80.5385 134.584 80.6465 134.848 80.8625 135.016C81.0865 135.184 81.3705 135.268 81.7145 135.268C82.2505 135.268 82.6985 135.12 83.0585 134.824C83.4265 134.52 83.6105 134.056 83.6105 133.432V132.856ZM88.0571 136L85.6211 129.568H86.7491L88.1171 133.36C88.1811 133.536 88.2491 133.732 88.3211 133.948C88.3931 134.164 88.4571 134.372 88.5131 134.572C88.5691 134.772 88.6091 134.936 88.6331 135.064H88.6811C88.7051 134.936 88.7491 134.772 88.8131 134.572C88.8771 134.364 88.9451 134.156 89.0171 133.948C89.0891 133.732 89.1571 133.536 89.2211 133.36L90.5891 129.568H91.7171L89.2691 136H88.0571ZM95.2188 129.448C95.7628 129.448 96.2348 129.568 96.6348 129.808C97.0348 130.048 97.3388 130.388 97.5468 130.828C97.7628 131.26 97.8708 131.768 97.8708 132.352V132.988H93.4668C93.4828 133.716 93.6668 134.272 94.0188 134.656C94.3788 135.032 94.8788 135.22 95.5188 135.22C95.9268 135.22 96.2868 135.184 96.5988 135.112C96.9188 135.032 97.2468 134.92 97.5828 134.776V135.7C97.2548 135.844 96.9308 135.948 96.6108 136.012C96.2908 136.084 95.9108 136.12 95.4708 136.12C94.8548 136.12 94.3148 135.996 93.8508 135.748C93.3868 135.5 93.0228 135.132 92.7588 134.644C92.5028 134.156 92.3748 133.552 92.3748 132.832C92.3748 132.128 92.4908 131.524 92.7228 131.02C92.9628 130.516 93.2948 130.128 93.7188 129.856C94.1508 129.584 94.6508 129.448 95.2188 129.448ZM95.2068 130.312C94.7028 130.312 94.3028 130.476 94.0068 130.804C93.7188 131.124 93.5468 131.572 93.4908 132.148H96.7668C96.7588 131.604 96.6308 131.164 96.3828 130.828C96.1348 130.484 95.7428 130.312 95.2068 130.312ZM105.061 129.46C105.845 129.46 106.425 129.632 106.801 129.976C107.177 130.32 107.365 130.868 107.365 131.62V136H106.597L106.393 135.088H106.345C106.065 135.44 105.769 135.7 105.457 135.868C105.145 136.036 104.721 136.12 104.185 136.12C103.601 136.12 103.117 135.968 102.733 135.664C102.349 135.352 102.157 134.868 102.157 134.212C102.157 133.572 102.409 133.08 102.913 132.736C103.417 132.384 104.193 132.192 105.241 132.16L106.333 132.124V131.74C106.333 131.204 106.217 130.832 105.985 130.624C105.753 130.416 105.425 130.312 105.001 130.312C104.665 130.312 104.345 130.364 104.041 130.468C103.737 130.564 103.453 130.676 103.189 130.804L102.865 130.012C103.145 129.86 103.477 129.732 103.861 129.628C104.245 129.516 104.645 129.46 105.061 129.46ZM106.321 132.856L105.373 132.892C104.573 132.924 104.017 133.052 103.705 133.276C103.401 133.5 103.249 133.816 103.249 134.224C103.249 134.584 103.357 134.848 103.573 135.016C103.797 135.184 104.081 135.268 104.425 135.268C104.961 135.268 105.409 135.12 105.769 134.824C106.137 134.52 106.321 134.056 106.321 133.432V132.856ZM111.5 135.256C111.66 135.256 111.824 135.244 111.992 135.22C112.16 135.196 112.296 135.164 112.4 135.124V135.928C112.288 135.984 112.128 136.028 111.92 136.06C111.712 136.1 111.512 136.12 111.32 136.12C110.984 136.12 110.672 136.064 110.384 135.952C110.104 135.832 109.876 135.628 109.7 135.34C109.524 135.052 109.436 134.648 109.436 134.128V130.384H108.524V129.88L109.448 129.46L109.868 128.092H110.492V129.568H112.352V130.384H110.492V134.104C110.492 134.496 110.584 134.788 110.768 134.98C110.96 135.164 111.204 135.256 111.5 135.256ZM117.861 136H116.805V126.88H117.861V136ZM122.383 129.448C122.927 129.448 123.399 129.568 123.799 129.808C124.199 130.048 124.503 130.388 124.711 130.828C124.927 131.26 125.035 131.768 125.035 132.352V132.988H120.631C120.647 133.716 120.831 134.272 121.183 134.656C121.543 135.032 122.043 135.22 122.683 135.22C123.091 135.22 123.451 135.184 123.763 135.112C124.083 135.032 124.411 134.92 124.747 134.776V135.7C124.419 135.844 124.095 135.948 123.775 136.012C123.455 136.084 123.075 136.12 122.635 136.12C122.019 136.12 121.479 135.996 121.015 135.748C120.551 135.5 120.187 135.132 119.923 134.644C119.667 134.156 119.539 133.552 119.539 132.832C119.539 132.128 119.655 131.524 119.887 131.02C120.127 130.516 120.459 130.128 120.883 129.856C121.315 129.584 121.815 129.448 122.383 129.448ZM122.371 130.312C121.867 130.312 121.467 130.476 121.171 130.804C120.883 131.124 120.711 131.572 120.655 132.148H123.931C123.923 131.604 123.795 131.164 123.547 130.828C123.299 130.484 122.907 130.312 122.371 130.312ZM129.108 129.46C129.892 129.46 130.472 129.632 130.848 129.976C131.224 130.32 131.412 130.868 131.412 131.62V136H130.644L130.44 135.088H130.392C130.112 135.44 129.816 135.7 129.504 135.868C129.192 136.036 128.768 136.12 128.232 136.12C127.648 136.12 127.164 135.968 126.78 135.664C126.396 135.352 126.204 134.868 126.204 134.212C126.204 133.572 126.456 133.08 126.96 132.736C127.464 132.384 128.24 132.192 129.288 132.16L130.38 132.124V131.74C130.38 131.204 130.264 130.832 130.032 130.624C129.8 130.416 129.472 130.312 129.048 130.312C128.712 130.312 128.392 130.364 128.088 130.468C127.784 130.564 127.5 130.676 127.236 130.804L126.912 130.012C127.192 129.86 127.524 129.732 127.908 129.628C128.292 129.516 128.692 129.46 129.108 129.46ZM130.368 132.856L129.42 132.892C128.62 132.924 128.064 133.052 127.752 133.276C127.448 133.5 127.296 133.816 127.296 134.224C127.296 134.584 127.404 134.848 127.62 135.016C127.844 135.184 128.128 135.268 128.472 135.268C129.008 135.268 129.456 135.12 129.816 134.824C130.184 134.52 130.368 134.056 130.368 133.432V132.856ZM137.587 134.224C137.587 134.848 137.355 135.32 136.891 135.64C136.427 135.96 135.803 136.12 135.019 136.12C134.571 136.12 134.183 136.084 133.855 136.012C133.535 135.94 133.251 135.84 133.003 135.712V134.752C133.259 134.88 133.567 135 133.927 135.112C134.295 135.216 134.667 135.268 135.043 135.268C135.579 135.268 135.967 135.184 136.207 135.016C136.447 134.84 136.567 134.608 136.567 134.32C136.567 134.16 136.523 134.016 136.435 133.888C136.347 133.76 136.187 133.632 135.955 133.504C135.731 133.376 135.407 133.232 134.983 133.072C134.567 132.912 134.211 132.752 133.915 132.592C133.619 132.432 133.391 132.24 133.231 132.016C133.071 131.792 132.991 131.504 132.991 131.152C132.991 130.608 133.211 130.188 133.651 129.892C134.099 129.596 134.683 129.448 135.403 129.448C135.795 129.448 136.159 129.488 136.495 129.568C136.839 129.648 137.159 129.752 137.455 129.88L137.095 130.72C136.823 130.608 136.539 130.512 136.243 130.432C135.947 130.352 135.643 130.312 135.331 130.312C134.899 130.312 134.567 130.384 134.335 130.528C134.111 130.664 133.999 130.852 133.999 131.092C133.999 131.276 134.051 131.428 134.155 131.548C134.259 131.668 134.431 131.788 134.671 131.908C134.919 132.028 135.247 132.164 135.655 132.316C136.063 132.468 136.411 132.624 136.699 132.784C136.987 132.944 137.207 133.14 137.359 133.372C137.511 133.596 137.587 133.88 137.587 134.224ZM141.289 135.256C141.449 135.256 141.613 135.244 141.781 135.22C141.949 135.196 142.085 135.164 142.189 135.124V135.928C142.077 135.984 141.917 136.028 141.709 136.06C141.501 136.1 141.301 136.12 141.109 136.12C140.773 136.12 140.461 136.064 140.173 135.952C139.893 135.832 139.665 135.628 139.489 135.34C139.313 135.052 139.225 134.648 139.225 134.128V130.384H138.313V129.88L139.237 129.46L139.657 128.092H140.281V129.568H142.141V130.384H140.281V134.104C140.281 134.496 140.373 134.788 140.557 134.98C140.749 135.164 140.993 135.256 141.289 135.256ZM149.834 136H148.802V130.012C148.802 129.668 148.806 129.392 148.814 129.184C148.822 128.976 148.834 128.76 148.85 128.536C148.722 128.664 148.602 128.772 148.49 128.86C148.386 128.948 148.258 129.06 148.106 129.196L147.194 129.94L146.642 129.232L148.958 127.432H149.834V136ZM159.675 129.448C160.443 129.448 161.023 129.636 161.415 130.012C161.807 130.388 162.003 130.988 162.003 131.812V136H160.959V131.884C160.959 130.852 160.479 130.336 159.519 130.336C158.807 130.336 158.315 130.536 158.043 130.936C157.771 131.336 157.635 131.912 157.635 132.664V136H156.579V129.568H157.431L157.587 130.444H157.647C157.855 130.108 158.143 129.86 158.511 129.7C158.879 129.532 159.267 129.448 159.675 129.448ZM169.373 129.568V136H168.509L168.353 135.148H168.305C168.097 135.484 167.809 135.732 167.441 135.892C167.073 136.044 166.681 136.12 166.265 136.12C165.489 136.12 164.905 135.936 164.513 135.568C164.121 135.192 163.925 134.596 163.925 133.78V129.568H164.993V133.708C164.993 134.732 165.469 135.244 166.421 135.244C167.133 135.244 167.625 135.044 167.897 134.644C168.177 134.244 168.317 133.668 168.317 132.916V129.568H169.373ZM178.471 129.448C179.199 129.448 179.743 129.636 180.103 130.012C180.463 130.388 180.643 130.988 180.643 131.812V136H179.599V131.86C179.599 130.844 179.163 130.336 178.291 130.336C177.667 130.336 177.219 130.516 176.947 130.876C176.683 131.236 176.551 131.76 176.551 132.448V136H175.507V131.86C175.507 130.844 175.067 130.336 174.187 130.336C173.539 130.336 173.091 130.536 172.843 130.936C172.595 131.336 172.471 131.912 172.471 132.664V136H171.415V129.568H172.267L172.423 130.444H172.483C172.683 130.108 172.951 129.86 173.287 129.7C173.631 129.532 173.995 129.448 174.379 129.448C175.387 129.448 176.043 129.808 176.347 130.528H176.407C176.623 130.16 176.915 129.888 177.283 129.712C177.651 129.536 178.047 129.448 178.471 129.448ZM183.685 126.88V129.1C183.685 129.372 183.677 129.628 183.661 129.868C183.653 130.1 183.641 130.284 183.625 130.42H183.685C183.869 130.148 184.121 129.92 184.441 129.736C184.761 129.552 185.173 129.46 185.677 129.46C186.477 129.46 187.117 129.74 187.597 130.3C188.085 130.852 188.329 131.68 188.329 132.784C188.329 133.888 188.085 134.72 187.597 135.28C187.109 135.84 186.469 136.12 185.677 136.12C185.173 136.12 184.761 136.028 184.441 135.844C184.121 135.66 183.869 135.44 183.685 135.184H183.601L183.385 136H182.629V126.88H183.685ZM185.497 130.336C184.809 130.336 184.333 130.532 184.069 130.924C183.813 131.316 183.685 131.924 183.685 132.748V132.796C183.685 133.588 183.813 134.196 184.069 134.62C184.333 135.036 184.817 135.244 185.521 135.244C186.097 135.244 186.525 135.032 186.805 134.608C187.093 134.184 187.237 133.572 187.237 132.772C187.237 131.148 186.657 130.336 185.497 130.336ZM192.496 129.448C193.04 129.448 193.512 129.568 193.912 129.808C194.312 130.048 194.616 130.388 194.824 130.828C195.04 131.26 195.148 131.768 195.148 132.352V132.988H190.744C190.76 133.716 190.944 134.272 191.296 134.656C191.656 135.032 192.156 135.22 192.796 135.22C193.204 135.22 193.564 135.184 193.876 135.112C194.196 135.032 194.524 134.92 194.86 134.776V135.7C194.532 135.844 194.208 135.948 193.888 136.012C193.568 136.084 193.188 136.12 192.748 136.12C192.132 136.12 191.592 135.996 191.128 135.748C190.664 135.5 190.3 135.132 190.036 134.644C189.78 134.156 189.652 133.552 189.652 132.832C189.652 132.128 189.768 131.524 190 131.02C190.24 130.516 190.572 130.128 190.996 129.856C191.428 129.584 191.928 129.448 192.496 129.448ZM192.484 130.312C191.98 130.312 191.58 130.476 191.284 130.804C190.996 131.124 190.824 131.572 190.768 132.148H194.044C194.036 131.604 193.908 131.164 193.66 130.828C193.412 130.484 193.02 130.312 192.484 130.312ZM199.786 129.448C199.906 129.448 200.034 129.456 200.17 129.472C200.306 129.48 200.43 129.496 200.542 129.52L200.41 130.492C200.306 130.468 200.19 130.448 200.062 130.432C199.934 130.416 199.818 130.408 199.714 130.408C199.386 130.408 199.078 130.5 198.79 130.684C198.502 130.86 198.27 131.112 198.094 131.44C197.926 131.76 197.842 132.136 197.842 132.568V136H196.786V129.568H197.65L197.77 130.744H197.818C198.018 130.392 198.282 130.088 198.61 129.832C198.946 129.576 199.338 129.448 199.786 129.448ZM210.452 132.772C210.452 133.836 210.18 134.66 209.636 135.244C209.1 135.828 208.372 136.12 207.452 136.12C206.884 136.12 206.376 135.992 205.928 135.736C205.488 135.472 205.14 135.092 204.884 134.596C204.628 134.092 204.5 133.484 204.5 132.772C204.5 131.708 204.764 130.888 205.292 130.312C205.828 129.736 206.56 129.448 207.488 129.448C208.064 129.448 208.576 129.58 209.024 129.844C209.472 130.1 209.82 130.476 210.068 130.972C210.324 131.46 210.452 132.06 210.452 132.772ZM205.592 132.772C205.592 133.532 205.74 134.136 206.036 134.584C206.34 135.024 206.82 135.244 207.476 135.244C208.124 135.244 208.6 135.024 208.904 134.584C209.208 134.136 209.36 133.532 209.36 132.772C209.36 132.012 209.208 131.416 208.904 130.984C208.6 130.552 208.12 130.336 207.464 130.336C206.808 130.336 206.332 130.552 206.036 130.984C205.74 131.416 205.592 132.012 205.592 132.772ZM215.125 129.448C215.245 129.448 215.373 129.456 215.509 129.472C215.645 129.48 215.769 129.496 215.881 129.52L215.749 130.492C215.645 130.468 215.529 130.448 215.401 130.432C215.273 130.416 215.157 130.408 215.053 130.408C214.725 130.408 214.417 130.5 214.129 130.684C213.841 130.86 213.609 131.112 213.433 131.44C213.265 131.76 213.181 132.136 213.181 132.568V136H212.125V129.568H212.989L213.109 130.744H213.157C213.357 130.392 213.621 130.088 213.949 129.832C214.285 129.576 214.677 129.448 215.125 129.448ZM224.388 134.224C224.388 134.848 224.156 135.32 223.692 135.64C223.228 135.96 222.604 136.12 221.82 136.12C221.372 136.12 220.984 136.084 220.656 136.012C220.336 135.94 220.052 135.84 219.804 135.712V134.752C220.06 134.88 220.368 135 220.728 135.112C221.096 135.216 221.468 135.268 221.844 135.268C222.38 135.268 222.768 135.184 223.008 135.016C223.248 134.84 223.368 134.608 223.368 134.32C223.368 134.16 223.324 134.016 223.236 133.888C223.148 133.76 222.988 133.632 222.756 133.504C222.532 133.376 222.208 133.232 221.784 133.072C221.368 132.912 221.012 132.752 220.716 132.592C220.42 132.432 220.192 132.24 220.032 132.016C219.872 131.792 219.792 131.504 219.792 131.152C219.792 130.608 220.012 130.188 220.452 129.892C220.9 129.596 221.484 129.448 222.204 129.448C222.596 129.448 222.96 129.488 223.296 129.568C223.64 129.648 223.96 129.752 224.256 129.88L223.896 130.72C223.624 130.608 223.34 130.512 223.044 130.432C222.748 130.352 222.444 130.312 222.132 130.312C221.7 130.312 221.368 130.384 221.136 130.528C220.912 130.664 220.8 130.852 220.8 131.092C220.8 131.276 220.852 131.428 220.956 131.548C221.06 131.668 221.232 131.788 221.472 131.908C221.72 132.028 222.048 132.164 222.456 132.316C222.864 132.468 223.212 132.624 223.5 132.784C223.788 132.944 224.008 133.14 224.16 133.372C224.312 133.596 224.388 133.88 224.388 134.224ZM224.934 129.568H226.062L227.454 133.228C227.574 133.556 227.682 133.864 227.778 134.152C227.874 134.44 227.946 134.716 227.994 134.98H228.042C228.09 134.78 228.166 134.52 228.27 134.2C228.374 133.872 228.482 133.544 228.594 133.216L229.902 129.568H231.042L228.27 136.888C228.038 137.496 227.746 137.98 227.394 138.34C227.042 138.7 226.554 138.88 225.93 138.88C225.738 138.88 225.57 138.868 225.426 138.844C225.282 138.828 225.158 138.808 225.054 138.784V137.944C225.142 137.96 225.246 137.976 225.366 137.992C225.494 138.008 225.626 138.016 225.762 138.016C226.13 138.016 226.426 137.912 226.65 137.704C226.874 137.496 227.054 137.22 227.19 136.876L227.526 136.024L224.934 129.568ZM239.115 129.448C239.843 129.448 240.387 129.636 240.747 130.012C241.107 130.388 241.287 130.988 241.287 131.812V136H240.243V131.86C240.243 130.844 239.807 130.336 238.935 130.336C238.311 130.336 237.863 130.516 237.591 130.876C237.327 131.236 237.195 131.76 237.195 132.448V136H236.151V131.86C236.151 130.844 235.711 130.336 234.831 130.336C234.183 130.336 233.735 130.536 233.487 130.936C233.239 131.336 233.115 131.912 233.115 132.664V136H232.059V129.568H232.911L233.067 130.444H233.127C233.327 130.108 233.595 129.86 233.931 129.7C234.275 129.532 234.639 129.448 235.023 129.448C236.031 129.448 236.687 129.808 236.991 130.528H237.051C237.267 130.16 237.559 129.888 237.927 129.712C238.295 129.536 238.691 129.448 239.115 129.448ZM244.33 126.88V129.1C244.33 129.372 244.322 129.628 244.306 129.868C244.298 130.1 244.286 130.284 244.27 130.42H244.33C244.514 130.148 244.766 129.92 245.086 129.736C245.406 129.552 245.818 129.46 246.322 129.46C247.122 129.46 247.762 129.74 248.242 130.3C248.73 130.852 248.974 131.68 248.974 132.784C248.974 133.888 248.73 134.72 248.242 135.28C247.754 135.84 247.114 136.12 246.322 136.12C245.818 136.12 245.406 136.028 245.086 135.844C244.766 135.66 244.514 135.44 244.33 135.184H244.246L244.03 136H243.274V126.88H244.33ZM246.142 130.336C245.454 130.336 244.978 130.532 244.714 130.924C244.458 131.316 244.33 131.924 244.33 132.748V132.796C244.33 133.588 244.458 134.196 244.714 134.62C244.978 135.036 245.462 135.244 246.166 135.244C246.742 135.244 247.17 135.032 247.45 134.608C247.738 134.184 247.882 133.572 247.882 132.772C247.882 131.148 247.302 130.336 246.142 130.336ZM256.249 132.772C256.249 133.836 255.977 134.66 255.433 135.244C254.897 135.828 254.169 136.12 253.249 136.12C252.681 136.12 252.173 135.992 251.725 135.736C251.285 135.472 250.937 135.092 250.681 134.596C250.425 134.092 250.297 133.484 250.297 132.772C250.297 131.708 250.561 130.888 251.089 130.312C251.625 129.736 252.357 129.448 253.285 129.448C253.861 129.448 254.373 129.58 254.821 129.844C255.269 130.1 255.617 130.476 255.865 130.972C256.121 131.46 256.249 132.06 256.249 132.772ZM251.389 132.772C251.389 133.532 251.537 134.136 251.833 134.584C252.137 135.024 252.617 135.244 253.273 135.244C253.921 135.244 254.397 135.024 254.701 134.584C255.005 134.136 255.157 133.532 255.157 132.772C255.157 132.012 255.005 131.416 254.701 130.984C254.397 130.552 253.917 130.336 253.261 130.336C252.605 130.336 252.129 130.552 251.833 130.984C251.537 131.416 251.389 132.012 251.389 132.772ZM258.978 136H257.922V126.88H258.978V136Z" fill="black"/>
<path d="M74.944 160L72.124 152.488H72.076C72.1 152.736 72.12 153.072 72.136 153.496C72.152 153.912 72.16 154.348 72.16 154.804V160H71.164V151.432H72.76L75.4 158.452H75.448L78.136 151.432H79.72V160H78.652V154.732C78.652 154.316 78.66 153.904 78.676 153.496C78.7 153.088 78.72 152.756 78.736 152.5H78.688L75.832 160H74.944ZM87.2827 153.568V160H86.4187L86.2627 159.148H86.2147C86.0067 159.484 85.7187 159.732 85.3507 159.892C84.9827 160.044 84.5907 160.12 84.1747 160.12C83.3987 160.12 82.8147 159.936 82.4227 159.568C82.0307 159.192 81.8347 158.596 81.8347 157.78V153.568H82.9027V157.708C82.9027 158.732 83.3787 159.244 84.3307 159.244C85.0427 159.244 85.5347 159.044 85.8067 158.644C86.0867 158.244 86.2267 157.668 86.2267 156.916V153.568H87.2827ZM93.5127 158.224C93.5127 158.848 93.2807 159.32 92.8167 159.64C92.3527 159.96 91.7287 160.12 90.9447 160.12C90.4967 160.12 90.1087 160.084 89.7807 160.012C89.4607 159.94 89.1767 159.84 88.9287 159.712V158.752C89.1847 158.88 89.4927 159 89.8527 159.112C90.2207 159.216 90.5927 159.268 90.9687 159.268C91.5047 159.268 91.8927 159.184 92.1327 159.016C92.3727 158.84 92.4927 158.608 92.4927 158.32C92.4927 158.16 92.4487 158.016 92.3607 157.888C92.2727 157.76 92.1127 157.632 91.8807 157.504C91.6567 157.376 91.3327 157.232 90.9087 157.072C90.4927 156.912 90.1367 156.752 89.8407 156.592C89.5447 156.432 89.3167 156.24 89.1567 156.016C88.9967 155.792 88.9167 155.504 88.9167 155.152C88.9167 154.608 89.1367 154.188 89.5767 153.892C90.0247 153.596 90.6087 153.448 91.3287 153.448C91.7207 153.448 92.0847 153.488 92.4207 153.568C92.7647 153.648 93.0847 153.752 93.3807 153.88L93.0207 154.72C92.7487 154.608 92.4647 154.512 92.1687 154.432C91.8727 154.352 91.5687 154.312 91.2567 154.312C90.8247 154.312 90.4927 154.384 90.2607 154.528C90.0367 154.664 89.9247 154.852 89.9247 155.092C89.9247 155.276 89.9767 155.428 90.0807 155.548C90.1847 155.668 90.3567 155.788 90.5967 155.908C90.8447 156.028 91.1727 156.164 91.5807 156.316C91.9887 156.468 92.3367 156.624 92.6247 156.784C92.9127 156.944 93.1327 157.14 93.2847 157.372C93.4367 157.596 93.5127 157.88 93.5127 158.224ZM97.2149 159.256C97.3749 159.256 97.5389 159.244 97.7069 159.22C97.8749 159.196 98.0109 159.164 98.1149 159.124V159.928C98.0029 159.984 97.8429 160.028 97.6349 160.06C97.4269 160.1 97.2269 160.12 97.0349 160.12C96.6989 160.12 96.3869 160.064 96.0989 159.952C95.8189 159.832 95.5909 159.628 95.4149 159.34C95.2389 159.052 95.1509 158.648 95.1509 158.128V154.384H94.2389V153.88L95.1629 153.46L95.5829 152.092H96.2069V153.568H98.0669V154.384H96.2069V158.104C96.2069 158.496 96.2989 158.788 96.4829 158.98C96.6749 159.164 96.9189 159.256 97.2149 159.256ZM103.576 150.88V153.1C103.576 153.372 103.568 153.628 103.552 153.868C103.544 154.1 103.532 154.284 103.516 154.42H103.576C103.76 154.148 104.012 153.92 104.332 153.736C104.652 153.552 105.064 153.46 105.568 153.46C106.368 153.46 107.008 153.74 107.488 154.3C107.976 154.852 108.22 155.68 108.22 156.784C108.22 157.888 107.976 158.72 107.488 159.28C107 159.84 106.36 160.12 105.568 160.12C105.064 160.12 104.652 160.028 104.332 159.844C104.012 159.66 103.76 159.44 103.576 159.184H103.492L103.276 160H102.52V150.88H103.576ZM105.388 154.336C104.7 154.336 104.224 154.532 103.96 154.924C103.704 155.316 103.576 155.924 103.576 156.748V156.796C103.576 157.588 103.704 158.196 103.96 158.62C104.224 159.036 104.708 159.244 105.412 159.244C105.988 159.244 106.416 159.032 106.696 158.608C106.984 158.184 107.128 157.572 107.128 156.772C107.128 155.148 106.548 154.336 105.388 154.336ZM112.387 153.448C112.931 153.448 113.403 153.568 113.803 153.808C114.203 154.048 114.507 154.388 114.715 154.828C114.931 155.26 115.039 155.768 115.039 156.352V156.988H110.635C110.651 157.716 110.835 158.272 111.187 158.656C111.547 159.032 112.047 159.22 112.687 159.22C113.095 159.22 113.455 159.184 113.767 159.112C114.087 159.032 114.415 158.92 114.751 158.776V159.7C114.423 159.844 114.099 159.948 113.779 160.012C113.459 160.084 113.079 160.12 112.639 160.12C112.023 160.12 111.483 159.996 111.019 159.748C110.555 159.5 110.191 159.132 109.927 158.644C109.671 158.156 109.543 157.552 109.543 156.832C109.543 156.128 109.659 155.524 109.891 155.02C110.131 154.516 110.463 154.128 110.887 153.856C111.319 153.584 111.819 153.448 112.387 153.448ZM112.375 154.312C111.871 154.312 111.471 154.476 111.175 154.804C110.887 155.124 110.715 155.572 110.659 156.148H113.935C113.927 155.604 113.799 155.164 113.551 154.828C113.303 154.484 112.911 154.312 112.375 154.312ZM122.229 153.46C123.013 153.46 123.593 153.632 123.969 153.976C124.345 154.32 124.533 154.868 124.533 155.62V160H123.765L123.561 159.088H123.513C123.233 159.44 122.937 159.7 122.625 159.868C122.313 160.036 121.889 160.12 121.353 160.12C120.769 160.12 120.285 159.968 119.901 159.664C119.517 159.352 119.325 158.868 119.325 158.212C119.325 157.572 119.577 157.08 120.081 156.736C120.585 156.384 121.361 156.192 122.409 156.16L123.501 156.124V155.74C123.501 155.204 123.385 154.832 123.153 154.624C122.921 154.416 122.593 154.312 122.169 154.312C121.833 154.312 121.513 154.364 121.209 154.468C120.905 154.564 120.621 154.676 120.357 154.804L120.033 154.012C120.313 153.86 120.645 153.732 121.029 153.628C121.413 153.516 121.813 153.46 122.229 153.46ZM123.489 156.856L122.541 156.892C121.741 156.924 121.185 157.052 120.873 157.276C120.569 157.5 120.417 157.816 120.417 158.224C120.417 158.584 120.525 158.848 120.741 159.016C120.965 159.184 121.249 159.268 121.593 159.268C122.129 159.268 122.577 159.12 122.937 158.824C123.305 158.52 123.489 158.056 123.489 157.432V156.856ZM128.668 159.256C128.828 159.256 128.992 159.244 129.16 159.22C129.328 159.196 129.464 159.164 129.568 159.124V159.928C129.456 159.984 129.296 160.028 129.088 160.06C128.88 160.1 128.68 160.12 128.488 160.12C128.152 160.12 127.84 160.064 127.552 159.952C127.272 159.832 127.044 159.628 126.868 159.34C126.692 159.052 126.604 158.648 126.604 158.128V154.384H125.692V153.88L126.616 153.46L127.036 152.092H127.66V153.568H129.52V154.384H127.66V158.104C127.66 158.496 127.752 158.788 127.936 158.98C128.128 159.164 128.372 159.256 128.668 159.256ZM135.029 160H133.973V150.88H135.029V160ZM139.551 153.448C140.095 153.448 140.567 153.568 140.967 153.808C141.367 154.048 141.671 154.388 141.879 154.828C142.095 155.26 142.203 155.768 142.203 156.352V156.988H137.799C137.815 157.716 137.999 158.272 138.351 158.656C138.711 159.032 139.211 159.22 139.851 159.22C140.259 159.22 140.619 159.184 140.931 159.112C141.251 159.032 141.579 158.92 141.915 158.776V159.7C141.587 159.844 141.263 159.948 140.943 160.012C140.623 160.084 140.243 160.12 139.803 160.12C139.187 160.12 138.647 159.996 138.183 159.748C137.719 159.5 137.355 159.132 137.091 158.644C136.835 158.156 136.707 157.552 136.707 156.832C136.707 156.128 136.823 155.524 137.055 155.02C137.295 154.516 137.627 154.128 138.051 153.856C138.483 153.584 138.983 153.448 139.551 153.448ZM139.539 154.312C139.035 154.312 138.635 154.476 138.339 154.804C138.051 155.124 137.879 155.572 137.823 156.148H141.099C141.091 155.604 140.963 155.164 140.715 154.828C140.467 154.484 140.075 154.312 139.539 154.312ZM146.276 153.46C147.06 153.46 147.64 153.632 148.016 153.976C148.392 154.32 148.58 154.868 148.58 155.62V160H147.812L147.608 159.088H147.56C147.28 159.44 146.984 159.7 146.672 159.868C146.36 160.036 145.936 160.12 145.4 160.12C144.816 160.12 144.332 159.968 143.948 159.664C143.564 159.352 143.372 158.868 143.372 158.212C143.372 157.572 143.624 157.08 144.128 156.736C144.632 156.384 145.408 156.192 146.456 156.16L147.548 156.124V155.74C147.548 155.204 147.432 154.832 147.2 154.624C146.968 154.416 146.64 154.312 146.216 154.312C145.88 154.312 145.56 154.364 145.256 154.468C144.952 154.564 144.668 154.676 144.404 154.804L144.08 154.012C144.36 153.86 144.692 153.732 145.076 153.628C145.46 153.516 145.86 153.46 146.276 153.46ZM147.536 156.856L146.588 156.892C145.788 156.924 145.232 157.052 144.92 157.276C144.616 157.5 144.464 157.816 144.464 158.224C144.464 158.584 144.572 158.848 144.788 159.016C145.012 159.184 145.296 159.268 145.64 159.268C146.176 159.268 146.624 159.12 146.984 158.824C147.352 158.52 147.536 158.056 147.536 157.432V156.856ZM154.755 158.224C154.755 158.848 154.523 159.32 154.059 159.64C153.595 159.96 152.971 160.12 152.187 160.12C151.739 160.12 151.351 160.084 151.023 160.012C150.703 159.94 150.419 159.84 150.171 159.712V158.752C150.427 158.88 150.735 159 151.095 159.112C151.463 159.216 151.835 159.268 152.211 159.268C152.747 159.268 153.135 159.184 153.375 159.016C153.615 158.84 153.735 158.608 153.735 158.32C153.735 158.16 153.691 158.016 153.603 157.888C153.515 157.76 153.355 157.632 153.123 157.504C152.899 157.376 152.575 157.232 152.151 157.072C151.735 156.912 151.379 156.752 151.083 156.592C150.787 156.432 150.559 156.24 150.399 156.016C150.239 155.792 150.159 155.504 150.159 155.152C150.159 154.608 150.379 154.188 150.819 153.892C151.267 153.596 151.851 153.448 152.571 153.448C152.963 153.448 153.327 153.488 153.663 153.568C154.007 153.648 154.327 153.752 154.623 153.88L154.263 154.72C153.991 154.608 153.707 154.512 153.411 154.432C153.115 154.352 152.811 154.312 152.499 154.312C152.067 154.312 151.735 154.384 151.503 154.528C151.279 154.664 151.167 154.852 151.167 155.092C151.167 155.276 151.219 155.428 151.323 155.548C151.427 155.668 151.599 155.788 151.839 155.908C152.087 156.028 152.415 156.164 152.823 156.316C153.231 156.468 153.579 156.624 153.867 156.784C154.155 156.944 154.375 157.14 154.527 157.372C154.679 157.596 154.755 157.88 154.755 158.224ZM158.457 159.256C158.617 159.256 158.781 159.244 158.949 159.22C159.117 159.196 159.253 159.164 159.357 159.124V159.928C159.245 159.984 159.085 160.028 158.877 160.06C158.669 160.1 158.469 160.12 158.277 160.12C157.941 160.12 157.629 160.064 157.341 159.952C157.061 159.832 156.833 159.628 156.657 159.34C156.481 159.052 156.393 158.648 156.393 158.128V154.384H155.481V153.88L156.405 153.46L156.825 152.092H157.449V153.568H159.309V154.384H157.449V158.104C157.449 158.496 157.541 158.788 157.725 158.98C157.917 159.164 158.161 159.256 158.457 159.256ZM166.162 151.312C166.914 151.312 167.53 151.488 168.01 151.84C168.49 152.192 168.73 152.7 168.73 153.364C168.73 153.708 168.654 154.008 168.502 154.264C168.358 154.52 168.162 154.748 167.914 154.948C167.666 155.14 167.394 155.312 167.098 155.464C167.45 155.64 167.77 155.832 168.058 156.04C168.346 156.248 168.574 156.492 168.742 156.772C168.918 157.052 169.006 157.388 169.006 157.78C169.006 158.5 168.75 159.072 168.238 159.496C167.726 159.912 167.046 160.12 166.198 160.12C165.27 160.12 164.558 159.92 164.062 159.52C163.574 159.112 163.33 158.544 163.33 157.816C163.33 157.432 163.41 157.096 163.57 156.808C163.738 156.512 163.958 156.26 164.23 156.052C164.502 155.844 164.794 155.668 165.106 155.524C164.682 155.284 164.326 154.996 164.038 154.66C163.75 154.316 163.606 153.88 163.606 153.352C163.606 152.92 163.718 152.552 163.942 152.248C164.166 151.944 164.47 151.712 164.854 151.552C165.238 151.392 165.674 151.312 166.162 151.312ZM166.15 152.164C165.702 152.164 165.338 152.272 165.058 152.488C164.778 152.696 164.638 153 164.638 153.4C164.638 153.696 164.706 153.944 164.842 154.144C164.986 154.344 165.178 154.516 165.418 154.66C165.658 154.796 165.922 154.928 166.21 155.056C166.626 154.88 166.974 154.668 167.254 154.42C167.542 154.172 167.686 153.832 167.686 153.4C167.686 153 167.546 152.696 167.266 152.488C166.986 152.272 166.614 152.164 166.15 152.164ZM164.362 157.828C164.362 158.244 164.51 158.592 164.806 158.872C165.102 159.144 165.558 159.28 166.174 159.28C166.758 159.28 167.202 159.144 167.506 158.872C167.818 158.592 167.974 158.232 167.974 157.792C167.974 157.376 167.81 157.032 167.482 156.76C167.154 156.48 166.718 156.236 166.174 156.028L165.982 155.956C165.454 156.188 165.05 156.448 164.77 156.736C164.498 157.024 164.362 157.388 164.362 157.828ZM176.327 160.12C175.751 160.12 175.243 160.004 174.803 159.772C174.363 159.54 174.015 159.18 173.759 158.692C173.511 158.204 173.387 157.58 173.387 156.82C173.387 156.028 173.515 155.384 173.771 154.888C174.035 154.392 174.395 154.028 174.851 153.796C175.307 153.564 175.823 153.448 176.399 153.448C176.719 153.448 177.031 153.484 177.335 153.556C177.647 153.62 177.899 153.7 178.091 153.796L177.767 154.672C177.575 154.6 177.351 154.532 177.095 154.468C176.839 154.404 176.599 154.372 176.375 154.372C175.111 154.372 174.479 155.184 174.479 156.808C174.479 157.584 174.631 158.18 174.935 158.596C175.247 159.004 175.707 159.208 176.315 159.208C176.659 159.208 176.967 159.172 177.239 159.1C177.511 159.028 177.759 158.94 177.983 158.836V159.772C177.767 159.884 177.527 159.968 177.263 160.024C177.007 160.088 176.695 160.12 176.327 160.12ZM180.568 150.88V153.556C180.568 153.876 180.548 154.176 180.508 154.456H180.58C180.788 154.128 181.068 153.88 181.42 153.712C181.78 153.544 182.168 153.46 182.584 153.46C183.36 153.46 183.944 153.648 184.336 154.024C184.736 154.392 184.936 154.988 184.936 155.812V160H183.892V155.884C183.892 154.852 183.412 154.336 182.452 154.336C181.732 154.336 181.236 154.54 180.964 154.948C180.7 155.348 180.568 155.924 180.568 156.676V160H179.512V150.88H180.568ZM189.366 153.46C190.15 153.46 190.73 153.632 191.106 153.976C191.482 154.32 191.67 154.868 191.67 155.62V160H190.902L190.698 159.088H190.65C190.37 159.44 190.074 159.7 189.762 159.868C189.45 160.036 189.026 160.12 188.49 160.12C187.906 160.12 187.422 159.968 187.038 159.664C186.654 159.352 186.462 158.868 186.462 158.212C186.462 157.572 186.714 157.08 187.218 156.736C187.722 156.384 188.498 156.192 189.546 156.16L190.638 156.124V155.74C190.638 155.204 190.522 154.832 190.29 154.624C190.058 154.416 189.73 154.312 189.306 154.312C188.97 154.312 188.65 154.364 188.346 154.468C188.042 154.564 187.758 154.676 187.494 154.804L187.17 154.012C187.45 153.86 187.782 153.732 188.166 153.628C188.55 153.516 188.95 153.46 189.366 153.46ZM190.626 156.856L189.678 156.892C188.878 156.924 188.322 157.052 188.01 157.276C187.706 157.5 187.554 157.816 187.554 158.224C187.554 158.584 187.662 158.848 187.878 159.016C188.102 159.184 188.386 159.268 188.73 159.268C189.266 159.268 189.714 159.12 190.074 158.824C190.442 158.52 190.626 158.056 190.626 157.432V156.856ZM196.657 153.448C196.777 153.448 196.905 153.456 197.041 153.472C197.177 153.48 197.301 153.496 197.413 153.52L197.281 154.492C197.177 154.468 197.061 154.448 196.933 154.432C196.805 154.416 196.689 154.408 196.585 154.408C196.257 154.408 195.949 154.5 195.661 154.684C195.373 154.86 195.141 155.112 194.965 155.44C194.797 155.76 194.713 156.136 194.713 156.568V160H193.657V153.568H194.521L194.641 154.744H194.689C194.889 154.392 195.153 154.088 195.481 153.832C195.817 153.576 196.209 153.448 196.657 153.448ZM200.815 153.46C201.599 153.46 202.179 153.632 202.555 153.976C202.931 154.32 203.119 154.868 203.119 155.62V160H202.351L202.147 159.088H202.099C201.819 159.44 201.523 159.7 201.211 159.868C200.899 160.036 200.475 160.12 199.939 160.12C199.355 160.12 198.871 159.968 198.487 159.664C198.103 159.352 197.911 158.868 197.911 158.212C197.911 157.572 198.163 157.08 198.667 156.736C199.171 156.384 199.947 156.192 200.995 156.16L202.087 156.124V155.74C202.087 155.204 201.971 154.832 201.739 154.624C201.507 154.416 201.179 154.312 200.755 154.312C200.419 154.312 200.099 154.364 199.795 154.468C199.491 154.564 199.207 154.676 198.943 154.804L198.619 154.012C198.899 153.86 199.231 153.732 199.615 153.628C199.999 153.516 200.399 153.46 200.815 153.46ZM202.075 156.856L201.127 156.892C200.327 156.924 199.771 157.052 199.459 157.276C199.155 157.5 199.003 157.816 199.003 158.224C199.003 158.584 199.111 158.848 199.327 159.016C199.551 159.184 199.835 159.268 200.179 159.268C200.715 159.268 201.163 159.12 201.523 158.824C201.891 158.52 202.075 158.056 202.075 157.432V156.856ZM207.686 160.12C207.11 160.12 206.602 160.004 206.162 159.772C205.722 159.54 205.374 159.18 205.118 158.692C204.87 158.204 204.746 157.58 204.746 156.82C204.746 156.028 204.874 155.384 205.13 154.888C205.394 154.392 205.754 154.028 206.21 153.796C206.666 153.564 207.182 153.448 207.758 153.448C208.078 153.448 208.39 153.484 208.694 153.556C209.006 153.62 209.258 153.7 209.45 153.796L209.126 154.672C208.934 154.6 208.71 154.532 208.454 154.468C208.198 154.404 207.958 154.372 207.734 154.372C206.47 154.372 205.838 155.184 205.838 156.808C205.838 157.584 205.99 158.18 206.294 158.596C206.606 159.004 207.066 159.208 207.674 159.208C208.018 159.208 208.326 159.172 208.598 159.1C208.87 159.028 209.118 158.94 209.342 158.836V159.772C209.126 159.884 208.886 159.968 208.622 160.024C208.366 160.088 208.054 160.12 207.686 160.12ZM213.02 159.256C213.18 159.256 213.344 159.244 213.512 159.22C213.68 159.196 213.816 159.164 213.92 159.124V159.928C213.808 159.984 213.648 160.028 213.44 160.06C213.232 160.1 213.032 160.12 212.84 160.12C212.504 160.12 212.192 160.064 211.904 159.952C211.624 159.832 211.396 159.628 211.22 159.34C211.044 159.052 210.956 158.648 210.956 158.128V154.384H210.044V153.88L210.968 153.46L211.388 152.092H212.012V153.568H213.872V154.384H212.012V158.104C212.012 158.496 212.104 158.788 212.288 158.98C212.48 159.164 212.724 159.256 213.02 159.256ZM217.692 153.448C218.236 153.448 218.708 153.568 219.108 153.808C219.508 154.048 219.812 154.388 220.02 154.828C220.236 155.26 220.344 155.768 220.344 156.352V156.988H215.94C215.956 157.716 216.14 158.272 216.492 158.656C216.852 159.032 217.352 159.22 217.992 159.22C218.4 159.22 218.76 159.184 219.072 159.112C219.392 159.032 219.72 158.92 220.056 158.776V159.7C219.728 159.844 219.404 159.948 219.084 160.012C218.764 160.084 218.384 160.12 217.944 160.12C217.328 160.12 216.788 159.996 216.324 159.748C215.86 159.5 215.496 159.132 215.232 158.644C214.976 158.156 214.848 157.552 214.848 156.832C214.848 156.128 214.964 155.524 215.196 155.02C215.436 154.516 215.768 154.128 216.192 153.856C216.624 153.584 217.124 153.448 217.692 153.448ZM217.68 154.312C217.176 154.312 216.776 154.476 216.48 154.804C216.192 155.124 216.02 155.572 215.964 156.148H219.24C219.232 155.604 219.104 155.164 218.856 154.828C218.608 154.484 218.216 154.312 217.68 154.312ZM224.981 153.448C225.101 153.448 225.229 153.456 225.365 153.472C225.501 153.48 225.625 153.496 225.737 153.52L225.605 154.492C225.501 154.468 225.385 154.448 225.257 154.432C225.129 154.416 225.013 154.408 224.909 154.408C224.581 154.408 224.273 154.5 223.985 154.684C223.697 154.86 223.465 155.112 223.289 155.44C223.121 155.76 223.037 156.136 223.037 156.568V160H221.981V153.568H222.845L222.965 154.744H223.013C223.213 154.392 223.477 154.088 223.805 153.832C224.141 153.576 224.533 153.448 224.981 153.448ZM231.126 158.224C231.126 158.848 230.894 159.32 230.43 159.64C229.966 159.96 229.342 160.12 228.558 160.12C228.11 160.12 227.722 160.084 227.394 160.012C227.074 159.94 226.79 159.84 226.542 159.712V158.752C226.798 158.88 227.106 159 227.466 159.112C227.834 159.216 228.206 159.268 228.582 159.268C229.118 159.268 229.506 159.184 229.746 159.016C229.986 158.84 230.106 158.608 230.106 158.32C230.106 158.16 230.062 158.016 229.974 157.888C229.886 157.76 229.726 157.632 229.494 157.504C229.27 157.376 228.946 157.232 228.522 157.072C228.106 156.912 227.75 156.752 227.454 156.592C227.158 156.432 226.93 156.24 226.77 156.016C226.61 155.792 226.53 155.504 226.53 155.152C226.53 154.608 226.75 154.188 227.19 153.892C227.638 153.596 228.222 153.448 228.942 153.448C229.334 153.448 229.698 153.488 230.034 153.568C230.378 153.648 230.698 153.752 230.994 153.88L230.634 154.72C230.362 154.608 230.078 154.512 229.782 154.432C229.486 154.352 229.182 154.312 228.87 154.312C228.438 154.312 228.106 154.384 227.874 154.528C227.65 154.664 227.538 154.852 227.538 155.092C227.538 155.276 227.59 155.428 227.694 155.548C227.798 155.668 227.97 155.788 228.21 155.908C228.458 156.028 228.786 156.164 229.194 156.316C229.602 156.468 229.95 156.624 230.238 156.784C230.526 156.944 230.746 157.14 230.898 157.372C231.05 157.596 231.126 157.88 231.126 158.224Z" fill="black"/>
<path d="M52.5125 112.202C52.4125 112.202 52.3125 112.152 52.2625 112.102L48.1125 107.952C47.9625 107.802 47.9625 107.552 48.1125 107.402C48.2625 107.252 48.5125 107.252 48.6625 107.402L52.5125 111.252L59.3125 102.152C59.4125 102.002 59.6625 101.952 59.8125 102.052C59.9625 102.152 60.0125 102.402 59.9125 102.552L52.8125 112.052C52.7625 112.152 52.6625 112.202 52.5125 112.202Z" fill="#088A08"/>
<path d="M54.5125 131.012L57.8625 127.662C58.0125 127.512 58.0125 127.263 57.8625 127.113C57.7125 126.962 57.4625 126.962 57.3125 127.113L54.0125 130.463L50.6625 127.113C50.5125 126.962 50.2625 126.962 50.1125 127.113C49.9625 127.263 49.9625 127.512 50.1125 127.662L53.4625 131.012L50.1125 134.362C49.9625 134.512 49.9625 134.762 50.1125 134.912C50.1625 134.963 50.2625 135.012 50.3625 135.012C50.4625 135.012 50.5625 134.963 50.6125 134.912L54.0125 131.512L57.3625 134.862C57.4125 134.912 57.5125 134.962 57.6125 134.962C57.7125 134.962 57.8125 134.912 57.8625 134.862C58.0125 134.712 58.0125 134.463 57.8625 134.312L54.5125 131.012Z" fill="black"/>
<path d="M54.5125 155.012L57.8625 151.662C58.0125 151.512 58.0125 151.263 57.8625 151.113C57.7125 150.962 57.4625 150.962 57.3125 151.113L54.0125 154.463L50.6625 151.113C50.5125 150.962 50.2625 150.962 50.1125 151.113C49.9625 151.263 49.9625 151.512 50.1125 151.662L53.4625 155.012L50.1125 158.362C49.9625 158.512 49.9625 158.762 50.1125 158.912C50.1625 158.963 50.2625 159.012 50.3625 159.012C50.4625 159.012 50.5625 158.963 50.6125 158.912L54.0125 155.512L57.3625 158.862C57.4125 158.912 57.5125 158.962 57.6125 158.962C57.7125 158.962 57.8125 158.912 57.8625 158.862C58.0125 158.712 58.0125 158.463 57.8625 158.312L54.5125 155.012Z" fill="black"/>
<rect x="325" y="58" width="1" height="30" fill="#939393"/>
<path d="M49.432 41.432C50.552 41.432 51.368 41.652 51.88 42.092C52.392 42.532 52.648 43.152 52.648 43.952C52.648 44.424 52.54 44.868 52.324 45.284C52.116 45.692 51.76 46.024 51.256 46.28C50.76 46.536 50.084 46.664 49.228 46.664H48.244V50H47.164V41.432H49.432ZM49.336 42.356H48.244V45.74H49.108C49.924 45.74 50.532 45.608 50.932 45.344C51.332 45.08 51.532 44.632 51.532 44C51.532 43.448 51.352 43.036 50.992 42.764C50.64 42.492 50.088 42.356 49.336 42.356ZM56.7216 43.46C57.5056 43.46 58.0856 43.632 58.4616 43.976C58.8376 44.32 59.0256 44.868 59.0256 45.62V50H58.2576L58.0536 49.088H58.0056C57.7256 49.44 57.4296 49.7 57.1176 49.868C56.8056 50.036 56.3816 50.12 55.8456 50.12C55.2616 50.12 54.7776 49.968 54.3936 49.664C54.0096 49.352 53.8176 48.868 53.8176 48.212C53.8176 47.572 54.0696 47.08 54.5736 46.736C55.0776 46.384 55.8536 46.192 56.9016 46.16L57.9936 46.124V45.74C57.9936 45.204 57.8776 44.832 57.6456 44.624C57.4136 44.416 57.0856 44.312 56.6616 44.312C56.3256 44.312 56.0056 44.364 55.7016 44.468C55.3976 44.564 55.1136 44.676 54.8496 44.804L54.5256 44.012C54.8056 43.86 55.1376 43.732 55.5216 43.628C55.9056 43.516 56.3056 43.46 56.7216 43.46ZM57.9816 46.856L57.0336 46.892C56.2336 46.924 55.6776 47.052 55.3656 47.276C55.0616 47.5 54.9096 47.816 54.9096 48.224C54.9096 48.584 55.0176 48.848 55.2336 49.016C55.4576 49.184 55.7416 49.268 56.0856 49.268C56.6216 49.268 57.0696 49.12 57.4296 48.824C57.7976 48.52 57.9816 48.056 57.9816 47.432V46.856ZM65.2002 48.224C65.2002 48.848 64.9682 49.32 64.5042 49.64C64.0402 49.96 63.4162 50.12 62.6322 50.12C62.1842 50.12 61.7962 50.084 61.4682 50.012C61.1482 49.94 60.8642 49.84 60.6162 49.712V48.752C60.8722 48.88 61.1802 49 61.5402 49.112C61.9082 49.216 62.2802 49.268 62.6562 49.268C63.1922 49.268 63.5802 49.184 63.8202 49.016C64.0602 48.84 64.1802 48.608 64.1802 48.32C64.1802 48.16 64.1362 48.016 64.0482 47.888C63.9602 47.76 63.8002 47.632 63.5682 47.504C63.3442 47.376 63.0202 47.232 62.5962 47.072C62.1802 46.912 61.8242 46.752 61.5282 46.592C61.2322 46.432 61.0042 46.24 60.8442 46.016C60.6842 45.792 60.6042 45.504 60.6042 45.152C60.6042 44.608 60.8242 44.188 61.2642 43.892C61.7122 43.596 62.2962 43.448 63.0162 43.448C63.4082 43.448 63.7722 43.488 64.1082 43.568C64.4522 43.648 64.7722 43.752 65.0682 43.88L64.7082 44.72C64.4362 44.608 64.1522 44.512 63.8562 44.432C63.5602 44.352 63.2562 44.312 62.9442 44.312C62.5122 44.312 62.1802 44.384 61.9482 44.528C61.7242 44.664 61.6122 44.852 61.6122 45.092C61.6122 45.276 61.6642 45.428 61.7682 45.548C61.8722 45.668 62.0442 45.788 62.2842 45.908C62.5322 46.028 62.8602 46.164 63.2682 46.316C63.6762 46.468 64.0242 46.624 64.3122 46.784C64.6002 46.944 64.8202 47.14 64.9722 47.372C65.1242 47.596 65.2002 47.88 65.2002 48.224ZM70.9424 48.224C70.9424 48.848 70.7104 49.32 70.2464 49.64C69.7824 49.96 69.1584 50.12 68.3744 50.12C67.9264 50.12 67.5384 50.084 67.2104 50.012C66.8904 49.94 66.6064 49.84 66.3584 49.712V48.752C66.6144 48.88 66.9224 49 67.2824 49.112C67.6504 49.216 68.0224 49.268 68.3984 49.268C68.9344 49.268 69.3224 49.184 69.5624 49.016C69.8024 48.84 69.9224 48.608 69.9224 48.32C69.9224 48.16 69.8784 48.016 69.7904 47.888C69.7024 47.76 69.5424 47.632 69.3104 47.504C69.0864 47.376 68.7624 47.232 68.3384 47.072C67.9224 46.912 67.5664 46.752 67.2704 46.592C66.9744 46.432 66.7464 46.24 66.5864 46.016C66.4264 45.792 66.3464 45.504 66.3464 45.152C66.3464 44.608 66.5664 44.188 67.0064 43.892C67.4544 43.596 68.0384 43.448 68.7584 43.448C69.1504 43.448 69.5144 43.488 69.8504 43.568C70.1944 43.648 70.5144 43.752 70.8104 43.88L70.4504 44.72C70.1784 44.608 69.8944 44.512 69.5984 44.432C69.3024 44.352 68.9984 44.312 68.6864 44.312C68.2544 44.312 67.9224 44.384 67.6904 44.528C67.4664 44.664 67.3544 44.852 67.3544 45.092C67.3544 45.276 67.4064 45.428 67.5104 45.548C67.6144 45.668 67.7864 45.788 68.0264 45.908C68.2744 46.028 68.6024 46.164 69.0104 46.316C69.4184 46.468 69.7664 46.624 70.0544 46.784C70.3424 46.944 70.5624 47.14 70.7144 47.372C70.8664 47.596 70.9424 47.88 70.9424 48.224ZM77.7526 49.988L76.6486 46.364C76.5446 46.036 76.4526 45.716 76.3726 45.404C76.2926 45.092 76.2366 44.844 76.2046 44.66H76.1566C76.1246 44.844 76.0726 45.092 76.0006 45.404C75.9286 45.716 75.8366 46.04 75.7246 46.376L74.5726 49.988H73.3726L71.6086 43.556H72.7006L73.5886 46.988C73.6766 47.332 73.7606 47.68 73.8406 48.032C73.9206 48.384 73.9766 48.676 74.0086 48.908H74.0566C74.0806 48.772 74.1166 48.604 74.1646 48.404C74.2126 48.204 74.2646 47.996 74.3206 47.78C74.3766 47.556 74.4326 47.356 74.4886 47.18L75.6286 43.556H76.7806L77.8846 47.18C77.9646 47.46 78.0486 47.76 78.1366 48.08C78.2246 48.4 78.2846 48.672 78.3166 48.896H78.3646C78.3886 48.696 78.4406 48.42 78.5206 48.068C78.6086 47.716 78.7006 47.356 78.7966 46.988L79.6966 43.556H80.7766L78.9886 49.988H77.7526ZM87.5222 46.772C87.5222 47.836 87.2502 48.66 86.7062 49.244C86.1702 49.828 85.4422 50.12 84.5222 50.12C83.9542 50.12 83.4462 49.992 82.9982 49.736C82.5582 49.472 82.2102 49.092 81.9542 48.596C81.6982 48.092 81.5702 47.484 81.5702 46.772C81.5702 45.708 81.8342 44.888 82.3622 44.312C82.8982 43.736 83.6302 43.448 84.5582 43.448C85.1342 43.448 85.6462 43.58 86.0942 43.844C86.5422 44.1 86.8902 44.476 87.1382 44.972C87.3942 45.46 87.5222 46.06 87.5222 46.772ZM82.6622 46.772C82.6622 47.532 82.8102 48.136 83.1062 48.584C83.4102 49.024 83.8902 49.244 84.5462 49.244C85.1942 49.244 85.6702 49.024 85.9742 48.584C86.2782 48.136 86.4302 47.532 86.4302 46.772C86.4302 46.012 86.2782 45.416 85.9742 44.984C85.6702 44.552 85.1902 44.336 84.5342 44.336C83.8782 44.336 83.4022 44.552 83.1062 44.984C82.8102 45.416 82.6622 46.012 82.6622 46.772ZM92.1958 43.448C92.3158 43.448 92.4438 43.456 92.5798 43.472C92.7158 43.48 92.8398 43.496 92.9518 43.52L92.8198 44.492C92.7158 44.468 92.5998 44.448 92.4718 44.432C92.3438 44.416 92.2278 44.408 92.1238 44.408C91.7958 44.408 91.4878 44.5 91.1998 44.684C90.9118 44.86 90.6798 45.112 90.5038 45.44C90.3358 45.76 90.2518 46.136 90.2518 46.568V50H89.1958V43.568H90.0598L90.1798 44.744H90.2278C90.4278 44.392 90.6918 44.088 91.0198 43.832C91.3558 43.576 91.7478 43.448 92.1958 43.448ZM96.1984 50.12C95.3984 50.12 94.7584 49.844 94.2784 49.292C93.7984 48.732 93.5584 47.9 93.5584 46.796C93.5584 45.692 93.7984 44.86 94.2784 44.3C94.7664 43.732 95.4104 43.448 96.2104 43.448C96.7064 43.448 97.1104 43.54 97.4224 43.724C97.7424 43.908 98.0024 44.132 98.2024 44.396H98.2744C98.2584 44.292 98.2424 44.14 98.2264 43.94C98.2104 43.732 98.2024 43.568 98.2024 43.448V40.88H99.2584V50H98.4064L98.2504 49.136H98.2024C98.0104 49.408 97.7544 49.64 97.4344 49.832C97.1144 50.024 96.7024 50.12 96.1984 50.12ZM96.3664 49.244C97.0464 49.244 97.5224 49.06 97.7944 48.692C98.0744 48.316 98.2144 47.752 98.2144 47V46.808C98.2144 46.008 98.0824 45.396 97.8184 44.972C97.5544 44.54 97.0664 44.324 96.3544 44.324C95.7864 44.324 95.3584 44.552 95.0704 45.008C94.7904 45.456 94.6504 46.06 94.6504 46.82C94.6504 47.588 94.7904 48.184 95.0704 48.608C95.3584 49.032 95.7904 49.244 96.3664 49.244Z" fill="#323232"/>
<rect x="47" y="58" width="318" height="30" rx="1" fill="white"/>
<path d="M58.924 73.62C58.924 73.084 59.052 72.704 59.308 72.48C59.564 72.248 59.88 72.132 60.256 72.132C60.624 72.132 60.936 72.248 61.192 72.48C61.456 72.704 61.588 73.084 61.588 73.62C61.588 74.148 61.456 74.528 61.192 74.76C60.936 74.992 60.624 75.108 60.256 75.108C59.88 75.108 59.564 74.992 59.308 74.76C59.052 74.528 58.924 74.148 58.924 73.62ZM63.4357 73.62C63.4357 73.084 63.5637 72.704 63.8197 72.48C64.0757 72.248 64.3917 72.132 64.7677 72.132C65.1357 72.132 65.4477 72.248 65.7037 72.48C65.9677 72.704 66.0997 73.084 66.0997 73.62C66.0997 74.148 65.9677 74.528 65.7037 74.76C65.4477 74.992 65.1357 75.108 64.7677 75.108C64.3917 75.108 64.0757 74.992 63.8197 74.76C63.5637 74.528 63.4357 74.148 63.4357 73.62ZM67.9474 73.62C67.9474 73.084 68.0754 72.704 68.3314 72.48C68.5874 72.248 68.9034 72.132 69.2794 72.132C69.6474 72.132 69.9594 72.248 70.2154 72.48C70.4794 72.704 70.6114 73.084 70.6114 73.62C70.6114 74.148 70.4794 74.528 70.2154 74.76C69.9594 74.992 69.6474 75.108 69.2794 75.108C68.9034 75.108 68.5874 74.992 68.3314 74.76C68.0754 74.528 67.9474 74.148 67.9474 73.62Z" fill="black"/>
<path d="M346 69C342.2 69 339 72.05 339 73.2C339 74.35 342.2 77.4 346 77.4C349.8 77.4 353 74.35 353 73.2C353 72.05 349.8 69 346 69ZM346 76.65C342.4 76.65 339.75 73.75 339.75 73.2C339.75 72.65 342.4 69.75 346 69.75C349.45 69.75 352.25 72.5 352.25 73.2C352.25 73.9 349.45 76.65 346 76.65Z" fill="#323232"/>
<path d="M346 70.6C344.55 70.6 343.4 71.8 343.4 73.2C343.4 74.6 344.55 75.8 346 75.8C347.45 75.8 348.6 74.6 348.6 73.2C348.6 71.8 347.45 70.6 346 70.6ZM346 75.05C344.95 75.05 344.15 74.2 344.15 73.2C344.15 72.2 345 71.35 346 71.35C347 71.35 347.85 72.2 347.85 73.2C347.85 74.2 347.05 75.05 346 75.05Z" fill="#323232"/>
<rect x="47" y="58" width="318" height="30" rx="1" stroke="#1B77AF" stroke-width="2"/>
<rect x="325" y="58" width="1" height="30" fill="#1B77AF"/>
</svg>
