<svg width="505" height="169" viewBox="0 0 505 169" fill="none" xmlns="http://www.w3.org/2000/svg">
<path d="M56.164 16V7.432H57.244V15.04H60.988V16H56.164ZM64.749 9.46C65.533 9.46 66.113 9.632 66.489 9.976C66.865 10.32 67.053 10.868 67.053 11.62V16H66.285L66.081 15.088H66.033C65.753 15.44 65.457 15.7 65.145 15.868C64.833 16.036 64.409 16.12 63.873 16.12C63.289 16.12 62.805 15.968 62.421 15.664C62.037 15.352 61.845 14.868 61.845 14.212C61.845 13.572 62.097 13.08 62.601 12.736C63.105 12.384 63.881 12.192 64.929 12.16L66.021 12.124V11.74C66.021 11.204 65.905 10.832 65.673 10.624C65.441 10.416 65.113 10.312 64.689 10.312C64.353 10.312 64.033 10.364 63.729 10.468C63.425 10.564 63.141 10.676 62.877 10.804L62.553 10.012C62.833 9.86 63.165 9.732 63.549 9.628C63.933 9.516 64.333 9.46 64.749 9.46ZM66.009 12.856L65.061 12.892C64.261 12.924 63.705 13.052 63.393 13.276C63.089 13.5 62.937 13.816 62.937 14.224C62.937 14.584 63.045 14.848 63.261 15.016C63.485 15.184 63.769 15.268 64.113 15.268C64.649 15.268 65.097 15.12 65.457 14.824C65.825 14.52 66.009 14.056 66.009 13.432V12.856ZM70.0955 6.88V9.1C70.0955 9.372 70.0875 9.628 70.0715 9.868C70.0635 10.1 70.0515 10.284 70.0355 10.42H70.0955C70.2795 10.148 70.5315 9.92 70.8515 9.736C71.1715 9.552 71.5835 9.46 72.0875 9.46C72.8875 9.46 73.5275 9.74 74.0075 10.3C74.4955 10.852 74.7395 11.68 74.7395 12.784C74.7395 13.888 74.4955 14.72 74.0075 15.28C73.5195 15.84 72.8795 16.12 72.0875 16.12C71.5835 16.12 71.1715 16.028 70.8515 15.844C70.5315 15.66 70.2795 15.44 70.0955 15.184H70.0115L69.7955 16H69.0395V6.88H70.0955ZM71.9075 10.336C71.2195 10.336 70.7435 10.532 70.4795 10.924C70.2235 11.316 70.0955 11.924 70.0955 12.748V12.796C70.0955 13.588 70.2235 14.196 70.4795 14.62C70.7435 15.036 71.2275 15.244 71.9315 15.244C72.5075 15.244 72.9355 15.032 73.2155 14.608C73.5035 14.184 73.6475 13.572 73.6475 12.772C73.6475 11.148 73.0675 10.336 71.9075 10.336ZM78.9063 9.448C79.4503 9.448 79.9223 9.568 80.3223 9.808C80.7223 10.048 81.0263 10.388 81.2343 10.828C81.4503 11.26 81.5583 11.768 81.5583 12.352V12.988H77.1543C77.1703 13.716 77.3543 14.272 77.7063 14.656C78.0663 15.032 78.5663 15.22 79.2063 15.22C79.6143 15.22 79.9743 15.184 80.2863 15.112C80.6063 15.032 80.9343 14.92 81.2703 14.776V15.7C80.9423 15.844 80.6183 15.948 80.2983 16.012C79.9783 16.084 79.5983 16.12 79.1583 16.12C78.5423 16.12 78.0023 15.996 77.5383 15.748C77.0743 15.5 76.7103 15.132 76.4463 14.644C76.1903 14.156 76.0623 13.552 76.0623 12.832C76.0623 12.128 76.1783 11.524 76.4103 11.02C76.6503 10.516 76.9823 10.128 77.4063 9.856C77.8383 9.584 78.3383 9.448 78.9063 9.448ZM78.8943 10.312C78.3903 10.312 77.9903 10.476 77.6943 10.804C77.4063 11.124 77.2343 11.572 77.1783 12.148H80.4543C80.4463 11.604 80.3183 11.164 80.0703 10.828C79.8223 10.484 79.4303 10.312 78.8943 10.312ZM84.2518 16H83.1958V6.88H84.2518V16Z" fill="#323232"/>
<rect x="55.5" y="23.5" width="399" height="75" rx="1.5" fill="white"/>
<path d="M71.522 46H70.262V37.11H67.14V36.004H74.63V37.11H71.522V46ZM77.8829 38.356C78.5176 38.356 79.0683 38.496 79.5349 38.776C80.0016 39.056 80.3563 39.4527 80.5989 39.966C80.8509 40.47 80.9769 41.0627 80.9769 41.744V42.486H75.8389C75.8576 43.3353 76.0723 43.984 76.4829 44.432C76.9029 44.8707 77.4863 45.09 78.2329 45.09C78.7089 45.09 79.1289 45.048 79.4929 44.964C79.8663 44.8707 80.2489 44.74 80.6409 44.572V45.65C80.2583 45.818 79.8803 45.9393 79.5069 46.014C79.1336 46.098 78.6903 46.14 78.1769 46.14C77.4583 46.14 76.8283 45.9953 76.2869 45.706C75.7456 45.4167 75.3209 44.9873 75.0129 44.418C74.7143 43.8487 74.5649 43.144 74.5649 42.304C74.5649 41.4827 74.7003 40.778 74.9709 40.19C75.2509 39.602 75.6383 39.1493 76.1329 38.832C76.6369 38.5147 77.2203 38.356 77.8829 38.356ZM77.8689 39.364C77.2809 39.364 76.8143 39.5553 76.4689 39.938C76.1329 40.3113 75.9323 40.834 75.8669 41.506H79.6889C79.6796 40.8713 79.5303 40.358 79.2409 39.966C78.9516 39.5647 78.4943 39.364 77.8689 39.364ZM84.3918 42.164L81.8018 38.496H83.2018L85.1338 41.324L87.0518 38.496H88.4378L85.8478 42.164L88.5778 46H87.1778L85.1338 43.004L83.0618 46H81.6758L84.3918 42.164ZM92.53 45.132C92.7167 45.132 92.908 45.118 93.104 45.09C93.3 45.062 93.4587 45.0247 93.58 44.978V45.916C93.4493 45.9813 93.2627 46.0327 93.02 46.07C92.7773 46.1167 92.544 46.14 92.32 46.14C91.928 46.14 91.564 46.0747 91.228 45.944C90.9013 45.804 90.6353 45.566 90.43 45.23C90.2247 44.894 90.122 44.4227 90.122 43.816V39.448H89.058V38.86L90.136 38.37L90.626 36.774H91.354V38.496H93.524V39.448H91.354V43.788C91.354 44.2453 91.4613 44.586 91.676 44.81C91.9 45.0247 92.1847 45.132 92.53 45.132Z" fill="black"/>
<rect x="55.5" y="23.5" width="399" height="75" rx="1.5" stroke="#939393"/>
<path d="M422.115 109.436C422.115 110.012 421.951 110.472 421.623 110.816C421.303 111.152 420.875 111.376 420.339 111.488V111.536C421.019 111.616 421.527 111.832 421.863 112.184C422.207 112.536 422.379 112.996 422.379 113.564C422.379 114.068 422.263 114.512 422.031 114.896C421.799 115.28 421.439 115.58 420.951 115.796C420.471 116.012 419.851 116.12 419.091 116.12C418.643 116.12 418.227 116.084 417.843 116.012C417.459 115.948 417.091 115.828 416.739 115.652V114.668C417.099 114.852 417.487 114.992 417.903 115.088C418.319 115.184 418.719 115.232 419.103 115.232C419.871 115.232 420.423 115.084 420.759 114.788C421.103 114.484 421.275 114.068 421.275 113.54C421.275 113.004 421.063 112.62 420.639 112.388C420.223 112.148 419.635 112.028 418.875 112.028H418.047V111.128H418.887C419.591 111.128 420.123 110.98 420.483 110.684C420.851 110.388 421.035 109.996 421.035 109.508C421.035 109.092 420.895 108.772 420.615 108.548C420.335 108.316 419.955 108.2 419.475 108.2C419.011 108.2 418.615 108.268 418.287 108.404C417.959 108.54 417.635 108.712 417.315 108.92L416.787 108.2C417.091 107.96 417.467 107.752 417.915 107.576C418.371 107.4 418.887 107.312 419.463 107.312C420.359 107.312 421.023 107.512 421.455 107.912C421.895 108.312 422.115 108.82 422.115 109.436ZM428.982 109.436C428.982 110.012 428.818 110.472 428.49 110.816C428.17 111.152 427.742 111.376 427.206 111.488V111.536C427.886 111.616 428.394 111.832 428.73 112.184C429.074 112.536 429.246 112.996 429.246 113.564C429.246 114.068 429.13 114.512 428.898 114.896C428.666 115.28 428.306 115.58 427.818 115.796C427.338 116.012 426.718 116.12 425.958 116.12C425.51 116.12 425.094 116.084 424.71 116.012C424.326 115.948 423.958 115.828 423.606 115.652V114.668C423.966 114.852 424.354 114.992 424.77 115.088C425.186 115.184 425.586 115.232 425.97 115.232C426.738 115.232 427.29 115.084 427.626 114.788C427.97 114.484 428.142 114.068 428.142 113.54C428.142 113.004 427.93 112.62 427.506 112.388C427.09 112.148 426.502 112.028 425.742 112.028H424.914V111.128H425.754C426.458 111.128 426.99 110.98 427.35 110.684C427.718 110.388 427.902 109.996 427.902 109.508C427.902 109.092 427.762 108.772 427.482 108.548C427.202 108.316 426.822 108.2 426.342 108.2C425.878 108.2 425.482 108.268 425.154 108.404C424.826 108.54 424.502 108.712 424.182 108.92L423.654 108.2C423.958 107.96 424.334 107.752 424.782 107.576C425.238 107.4 425.754 107.312 426.33 107.312C427.226 107.312 427.89 107.512 428.322 107.912C428.762 108.312 428.982 108.82 428.982 109.436ZM434.278 107.432L431.086 116H430.054L433.246 107.432H434.278ZM438.658 116H437.626V110.012C437.626 109.668 437.63 109.392 437.638 109.184C437.646 108.976 437.658 108.76 437.674 108.536C437.546 108.664 437.426 108.772 437.314 108.86C437.21 108.948 437.082 109.06 436.93 109.196L436.018 109.94L435.466 109.232L437.782 107.432H438.658V116ZM447.542 111.704C447.542 112.632 447.446 113.424 447.254 114.08C447.062 114.736 446.754 115.24 446.33 115.592C445.914 115.944 445.366 116.12 444.686 116.12C443.718 116.12 443.002 115.732 442.538 114.956C442.082 114.172 441.854 113.088 441.854 111.704C441.854 110.776 441.946 109.984 442.13 109.328C442.322 108.672 442.626 108.172 443.042 107.828C443.458 107.476 444.006 107.3 444.686 107.3C445.646 107.3 446.362 107.688 446.834 108.464C447.306 109.232 447.542 110.312 447.542 111.704ZM442.91 111.704C442.91 112.88 443.042 113.76 443.306 114.344C443.578 114.928 444.038 115.22 444.686 115.22C445.326 115.22 445.782 114.932 446.054 114.356C446.334 113.772 446.474 112.888 446.474 111.704C446.474 110.536 446.334 109.66 446.054 109.076C445.782 108.492 445.326 108.2 444.686 108.2C444.038 108.2 443.578 108.492 443.306 109.076C443.042 109.66 442.91 110.536 442.91 111.704ZM454.409 111.704C454.409 112.632 454.313 113.424 454.121 114.08C453.929 114.736 453.621 115.24 453.197 115.592C452.781 115.944 452.233 116.12 451.553 116.12C450.585 116.12 449.869 115.732 449.405 114.956C448.949 114.172 448.721 113.088 448.721 111.704C448.721 110.776 448.813 109.984 448.997 109.328C449.189 108.672 449.493 108.172 449.909 107.828C450.325 107.476 450.873 107.3 451.553 107.3C452.513 107.3 453.229 107.688 453.701 108.464C454.173 109.232 454.409 110.312 454.409 111.704ZM449.777 111.704C449.777 112.88 449.909 113.76 450.173 114.344C450.445 114.928 450.905 115.22 451.553 115.22C452.193 115.22 452.649 114.932 452.921 114.356C453.201 113.772 453.341 112.888 453.341 111.704C453.341 110.536 453.201 109.66 452.921 109.076C452.649 108.492 452.193 108.2 451.553 108.2C450.905 108.2 450.445 108.492 450.173 109.076C449.909 109.66 449.777 110.536 449.777 111.704Z" fill="#5E5E5E"/>
<path d="M56.164 16V7.432H57.244V15.04H60.988V16H56.164ZM64.749 9.46C65.533 9.46 66.113 9.632 66.489 9.976C66.865 10.32 67.053 10.868 67.053 11.62V16H66.285L66.081 15.088H66.033C65.753 15.44 65.457 15.7 65.145 15.868C64.833 16.036 64.409 16.12 63.873 16.12C63.289 16.12 62.805 15.968 62.421 15.664C62.037 15.352 61.845 14.868 61.845 14.212C61.845 13.572 62.097 13.08 62.601 12.736C63.105 12.384 63.881 12.192 64.929 12.16L66.021 12.124V11.74C66.021 11.204 65.905 10.832 65.673 10.624C65.441 10.416 65.113 10.312 64.689 10.312C64.353 10.312 64.033 10.364 63.729 10.468C63.425 10.564 63.141 10.676 62.877 10.804L62.553 10.012C62.833 9.86 63.165 9.732 63.549 9.628C63.933 9.516 64.333 9.46 64.749 9.46ZM66.009 12.856L65.061 12.892C64.261 12.924 63.705 13.052 63.393 13.276C63.089 13.5 62.937 13.816 62.937 14.224C62.937 14.584 63.045 14.848 63.261 15.016C63.485 15.184 63.769 15.268 64.113 15.268C64.649 15.268 65.097 15.12 65.457 14.824C65.825 14.52 66.009 14.056 66.009 13.432V12.856ZM70.0955 6.88V9.1C70.0955 9.372 70.0875 9.628 70.0715 9.868C70.0635 10.1 70.0515 10.284 70.0355 10.42H70.0955C70.2795 10.148 70.5315 9.92 70.8515 9.736C71.1715 9.552 71.5835 9.46 72.0875 9.46C72.8875 9.46 73.5275 9.74 74.0075 10.3C74.4955 10.852 74.7395 11.68 74.7395 12.784C74.7395 13.888 74.4955 14.72 74.0075 15.28C73.5195 15.84 72.8795 16.12 72.0875 16.12C71.5835 16.12 71.1715 16.028 70.8515 15.844C70.5315 15.66 70.2795 15.44 70.0955 15.184H70.0115L69.7955 16H69.0395V6.88H70.0955ZM71.9075 10.336C71.2195 10.336 70.7435 10.532 70.4795 10.924C70.2235 11.316 70.0955 11.924 70.0955 12.748V12.796C70.0955 13.588 70.2235 14.196 70.4795 14.62C70.7435 15.036 71.2275 15.244 71.9315 15.244C72.5075 15.244 72.9355 15.032 73.2155 14.608C73.5035 14.184 73.6475 13.572 73.6475 12.772C73.6475 11.148 73.0675 10.336 71.9075 10.336ZM78.9063 9.448C79.4503 9.448 79.9223 9.568 80.3223 9.808C80.7223 10.048 81.0263 10.388 81.2343 10.828C81.4503 11.26 81.5583 11.768 81.5583 12.352V12.988H77.1543C77.1703 13.716 77.3543 14.272 77.7063 14.656C78.0663 15.032 78.5663 15.22 79.2063 15.22C79.6143 15.22 79.9743 15.184 80.2863 15.112C80.6063 15.032 80.9343 14.92 81.2703 14.776V15.7C80.9423 15.844 80.6183 15.948 80.2983 16.012C79.9783 16.084 79.5983 16.12 79.1583 16.12C78.5423 16.12 78.0023 15.996 77.5383 15.748C77.0743 15.5 76.7103 15.132 76.4463 14.644C76.1903 14.156 76.0623 13.552 76.0623 12.832C76.0623 12.128 76.1783 11.524 76.4103 11.02C76.6503 10.516 76.9823 10.128 77.4063 9.856C77.8383 9.584 78.3383 9.448 78.9063 9.448ZM78.8943 10.312C78.3903 10.312 77.9903 10.476 77.6943 10.804C77.4063 11.124 77.2343 11.572 77.1783 12.148H80.4543C80.4463 11.604 80.3183 11.164 80.0703 10.828C79.8223 10.484 79.4303 10.312 78.8943 10.312ZM84.2518 16H83.1958V6.88H84.2518V16Z" fill="#323232"/>
<rect x="55.5" y="23.5" width="399" height="75" rx="1.5" fill="white"/>
<path d="M71.522 46H70.262V37.11H67.14V36.004H74.63V37.11H71.522V46ZM77.8829 38.356C78.5176 38.356 79.0683 38.496 79.5349 38.776C80.0016 39.056 80.3563 39.4527 80.5989 39.966C80.8509 40.47 80.9769 41.0627 80.9769 41.744V42.486H75.8389C75.8576 43.3353 76.0723 43.984 76.4829 44.432C76.9029 44.8707 77.4863 45.09 78.2329 45.09C78.7089 45.09 79.1289 45.048 79.4929 44.964C79.8663 44.8707 80.2489 44.74 80.6409 44.572V45.65C80.2583 45.818 79.8803 45.9393 79.5069 46.014C79.1336 46.098 78.6903 46.14 78.1769 46.14C77.4583 46.14 76.8283 45.9953 76.2869 45.706C75.7456 45.4167 75.3209 44.9873 75.0129 44.418C74.7143 43.8487 74.5649 43.144 74.5649 42.304C74.5649 41.4827 74.7003 40.778 74.9709 40.19C75.2509 39.602 75.6383 39.1493 76.1329 38.832C76.6369 38.5147 77.2203 38.356 77.8829 38.356ZM77.8689 39.364C77.2809 39.364 76.8143 39.5553 76.4689 39.938C76.1329 40.3113 75.9323 40.834 75.8669 41.506H79.6889C79.6796 40.8713 79.5303 40.358 79.2409 39.966C78.9516 39.5647 78.4943 39.364 77.8689 39.364ZM84.3918 42.164L81.8018 38.496H83.2018L85.1338 41.324L87.0518 38.496H88.4378L85.8478 42.164L88.5778 46H87.1778L85.1338 43.004L83.0618 46H81.6758L84.3918 42.164ZM92.53 45.132C92.7167 45.132 92.908 45.118 93.104 45.09C93.3 45.062 93.4587 45.0247 93.58 44.978V45.916C93.4493 45.9813 93.2627 46.0327 93.02 46.07C92.7773 46.1167 92.544 46.14 92.32 46.14C91.928 46.14 91.564 46.0747 91.228 45.944C90.9013 45.804 90.6353 45.566 90.43 45.23C90.2247 44.894 90.122 44.4227 90.122 43.816V39.448H89.058V38.86L90.136 38.37L90.626 36.774H91.354V38.496H93.524V39.448H91.354V43.788C91.354 44.2453 91.4613 44.586 91.676 44.81C91.9 45.0247 92.1847 45.132 92.53 45.132Z" fill="black"/>
<rect x="55.5" y="23.5" width="399" height="75" rx="1.5" stroke="#939393"/>
<path d="M61.54 116L60.508 113.348H57.112L56.092 116H55L58.348 107.396H59.32L62.656 116H61.54ZM60.184 112.388L59.224 109.796C59.2 109.732 59.16 109.616 59.104 109.448C59.048 109.28 58.992 109.108 58.936 108.932C58.888 108.748 58.848 108.608 58.816 108.512C58.752 108.76 58.684 109.004 58.612 109.244C58.548 109.476 58.492 109.66 58.444 109.796L57.472 112.388H60.184ZM65.9641 116.12C65.1641 116.12 64.5241 115.844 64.0441 115.292C63.5641 114.732 63.3241 113.9 63.3241 112.796C63.3241 111.692 63.5641 110.86 64.0441 110.3C64.5321 109.732 65.1761 109.448 65.9761 109.448C66.4721 109.448 66.8761 109.54 67.1881 109.724C67.5081 109.908 67.7681 110.132 67.9681 110.396H68.0401C68.0241 110.292 68.0081 110.14 67.9921 109.94C67.9761 109.732 67.9681 109.568 67.9681 109.448V106.88H69.0241V116H68.1721L68.0161 115.136H67.9681C67.7761 115.408 67.5201 115.64 67.2001 115.832C66.8801 116.024 66.4681 116.12 65.9641 116.12ZM66.1321 115.244C66.8121 115.244 67.2881 115.06 67.5601 114.692C67.8401 114.316 67.9801 113.752 67.9801 113V112.808C67.9801 112.008 67.8481 111.396 67.5841 110.972C67.3201 110.54 66.8321 110.324 66.1201 110.324C65.5521 110.324 65.1241 110.552 64.8361 111.008C64.5561 111.456 64.4161 112.06 64.4161 112.82C64.4161 113.588 64.5561 114.184 64.8361 114.608C65.1241 115.032 65.5561 115.244 66.1321 115.244ZM73.3469 116.12C72.5469 116.12 71.9069 115.844 71.4269 115.292C70.9469 114.732 70.7069 113.9 70.7069 112.796C70.7069 111.692 70.9469 110.86 71.4269 110.3C71.9149 109.732 72.5589 109.448 73.3589 109.448C73.8549 109.448 74.2589 109.54 74.5709 109.724C74.8909 109.908 75.1509 110.132 75.3509 110.396H75.4229C75.4069 110.292 75.3909 110.14 75.3749 109.94C75.3589 109.732 75.3509 109.568 75.3509 109.448V106.88H76.4069V116H75.5549L75.3989 115.136H75.3509C75.1589 115.408 74.9029 115.64 74.5829 115.832C74.2629 116.024 73.8509 116.12 73.3469 116.12ZM73.5149 115.244C74.1949 115.244 74.6709 115.06 74.9429 114.692C75.2229 114.316 75.3629 113.752 75.3629 113V112.808C75.3629 112.008 75.2309 111.396 74.9669 110.972C74.7029 110.54 74.2149 110.324 73.5029 110.324C72.9349 110.324 72.5069 110.552 72.2189 111.008C71.9389 111.456 71.7989 112.06 71.7989 112.82C71.7989 113.588 71.9389 114.184 72.2189 114.608C72.5069 115.032 72.9389 115.244 73.5149 115.244ZM78.9897 107.156C79.1497 107.156 79.2897 107.212 79.4097 107.324C79.5377 107.428 79.6017 107.596 79.6017 107.828C79.6017 108.06 79.5377 108.232 79.4097 108.344C79.2897 108.448 79.1497 108.5 78.9897 108.5C78.8137 108.5 78.6657 108.448 78.5457 108.344C78.4257 108.232 78.3657 108.06 78.3657 107.828C78.3657 107.596 78.4257 107.428 78.5457 107.324C78.6657 107.212 78.8137 107.156 78.9897 107.156ZM79.5057 109.568V116H78.4497V109.568H79.5057ZM83.6914 115.256C83.8514 115.256 84.0154 115.244 84.1834 115.22C84.3514 115.196 84.4874 115.164 84.5914 115.124V115.928C84.4794 115.984 84.3194 116.028 84.1114 116.06C83.9034 116.1 83.7034 116.12 83.5114 116.12C83.1754 116.12 82.8634 116.064 82.5754 115.952C82.2954 115.832 82.0674 115.628 81.8914 115.34C81.7154 115.052 81.6274 114.648 81.6274 114.128V110.384H80.7154V109.88L81.6394 109.46L82.0594 108.092H82.6834V109.568H84.5434V110.384H82.6834V114.104C82.6834 114.496 82.7754 114.788 82.9594 114.98C83.1514 115.164 83.3954 115.256 83.6914 115.256ZM86.4194 107.156C86.5794 107.156 86.7194 107.212 86.8394 107.324C86.9674 107.428 87.0314 107.596 87.0314 107.828C87.0314 108.06 86.9674 108.232 86.8394 108.344C86.7194 108.448 86.5794 108.5 86.4194 108.5C86.2434 108.5 86.0954 108.448 85.9754 108.344C85.8554 108.232 85.7954 108.06 85.7954 107.828C85.7954 107.596 85.8554 107.428 85.9754 107.324C86.0954 107.212 86.2434 107.156 86.4194 107.156ZM86.9354 109.568V116H85.8794V109.568H86.9354ZM94.5651 112.772C94.5651 113.836 94.2931 114.66 93.7491 115.244C93.2131 115.828 92.4851 116.12 91.5651 116.12C90.9971 116.12 90.4891 115.992 90.0411 115.736C89.6011 115.472 89.2531 115.092 88.9971 114.596C88.7411 114.092 88.6131 113.484 88.6131 112.772C88.6131 111.708 88.8771 110.888 89.4051 110.312C89.9411 109.736 90.6731 109.448 91.6011 109.448C92.1771 109.448 92.6891 109.58 93.1371 109.844C93.5851 110.1 93.9331 110.476 94.1811 110.972C94.4371 111.46 94.5651 112.06 94.5651 112.772ZM89.7051 112.772C89.7051 113.532 89.8531 114.136 90.1491 114.584C90.4531 115.024 90.9331 115.244 91.5891 115.244C92.2371 115.244 92.7131 115.024 93.0171 114.584C93.3211 114.136 93.4731 113.532 93.4731 112.772C93.4731 112.012 93.3211 111.416 93.0171 110.984C92.7131 110.552 92.2331 110.336 91.5771 110.336C90.9211 110.336 90.4451 110.552 90.1491 110.984C89.8531 111.416 89.7051 112.012 89.7051 112.772ZM99.3348 109.448C100.103 109.448 100.683 109.636 101.075 110.012C101.467 110.388 101.663 110.988 101.663 111.812V116H100.619V111.884C100.619 110.852 100.139 110.336 99.1788 110.336C98.4668 110.336 97.9748 110.536 97.7028 110.936C97.4308 111.336 97.2948 111.912 97.2948 112.664V116H96.2388V109.568H97.0908L97.2468 110.444H97.3068C97.5148 110.108 97.8028 109.86 98.1708 109.7C98.5388 109.532 98.9268 109.448 99.3348 109.448ZM106.093 109.46C106.877 109.46 107.457 109.632 107.833 109.976C108.209 110.32 108.397 110.868 108.397 111.62V116H107.629L107.425 115.088H107.377C107.097 115.44 106.801 115.7 106.489 115.868C106.177 116.036 105.753 116.12 105.217 116.12C104.633 116.12 104.149 115.968 103.765 115.664C103.381 115.352 103.189 114.868 103.189 114.212C103.189 113.572 103.441 113.08 103.945 112.736C104.449 112.384 105.225 112.192 106.273 112.16L107.365 112.124V111.74C107.365 111.204 107.249 110.832 107.017 110.624C106.785 110.416 106.457 110.312 106.033 110.312C105.697 110.312 105.377 110.364 105.073 110.468C104.769 110.564 104.485 110.676 104.221 110.804L103.897 110.012C104.177 109.86 104.509 109.732 104.893 109.628C105.277 109.516 105.677 109.46 106.093 109.46ZM107.353 112.856L106.405 112.892C105.605 112.924 105.049 113.052 104.737 113.276C104.433 113.5 104.281 113.816 104.281 114.224C104.281 114.584 104.389 114.848 104.605 115.016C104.829 115.184 105.113 115.268 105.457 115.268C105.993 115.268 106.441 115.12 106.801 114.824C107.169 114.52 107.353 114.056 107.353 113.432V112.856ZM111.439 116H110.383V106.88H111.439V116ZM119.174 116.12C118.598 116.12 118.09 116.004 117.65 115.772C117.21 115.54 116.862 115.18 116.606 114.692C116.358 114.204 116.234 113.58 116.234 112.82C116.234 112.028 116.362 111.384 116.618 110.888C116.882 110.392 117.242 110.028 117.698 109.796C118.154 109.564 118.67 109.448 119.246 109.448C119.566 109.448 119.878 109.484 120.182 109.556C120.494 109.62 120.746 109.7 120.938 109.796L120.614 110.672C120.422 110.6 120.198 110.532 119.942 110.468C119.686 110.404 119.446 110.372 119.222 110.372C117.958 110.372 117.326 111.184 117.326 112.808C117.326 113.584 117.478 114.18 117.782 114.596C118.094 115.004 118.554 115.208 119.162 115.208C119.506 115.208 119.814 115.172 120.086 115.1C120.358 115.028 120.606 114.94 120.83 114.836V115.772C120.614 115.884 120.374 115.968 120.11 116.024C119.854 116.088 119.542 116.12 119.174 116.12ZM127.952 112.772C127.952 113.836 127.68 114.66 127.136 115.244C126.6 115.828 125.872 116.12 124.952 116.12C124.384 116.12 123.876 115.992 123.428 115.736C122.988 115.472 122.64 115.092 122.384 114.596C122.128 114.092 122 113.484 122 112.772C122 111.708 122.264 110.888 122.792 110.312C123.328 109.736 124.06 109.448 124.988 109.448C125.564 109.448 126.076 109.58 126.524 109.844C126.972 110.1 127.32 110.476 127.568 110.972C127.824 111.46 127.952 112.06 127.952 112.772ZM123.092 112.772C123.092 113.532 123.24 114.136 123.536 114.584C123.84 115.024 124.32 115.244 124.976 115.244C125.624 115.244 126.1 115.024 126.404 114.584C126.708 114.136 126.86 113.532 126.86 112.772C126.86 112.012 126.708 111.416 126.404 110.984C126.1 110.552 125.62 110.336 124.964 110.336C124.308 110.336 123.832 110.552 123.536 110.984C123.24 111.416 123.092 112.012 123.092 112.772ZM132.721 109.448C133.489 109.448 134.069 109.636 134.461 110.012C134.853 110.388 135.049 110.988 135.049 111.812V116H134.005V111.884C134.005 110.852 133.525 110.336 132.565 110.336C131.853 110.336 131.361 110.536 131.089 110.936C130.817 111.336 130.681 111.912 130.681 112.664V116H129.625V109.568H130.477L130.633 110.444H130.693C130.901 110.108 131.189 109.86 131.557 109.7C131.925 109.532 132.313 109.448 132.721 109.448ZM139.191 115.256C139.351 115.256 139.515 115.244 139.683 115.22C139.851 115.196 139.987 115.164 140.091 115.124V115.928C139.979 115.984 139.819 116.028 139.611 116.06C139.403 116.1 139.203 116.12 139.011 116.12C138.675 116.12 138.363 116.064 138.075 115.952C137.795 115.832 137.567 115.628 137.391 115.34C137.215 115.052 137.127 114.648 137.127 114.128V110.384H136.215V109.88L137.139 109.46L137.559 108.092H138.183V109.568H140.043V110.384H138.183V114.104C138.183 114.496 138.275 114.788 138.459 114.98C138.651 115.164 138.895 115.256 139.191 115.256ZM143.863 109.448C144.407 109.448 144.879 109.568 145.279 109.808C145.679 110.048 145.983 110.388 146.191 110.828C146.407 111.26 146.515 111.768 146.515 112.352V112.988H142.111C142.127 113.716 142.311 114.272 142.663 114.656C143.023 115.032 143.523 115.22 144.163 115.22C144.571 115.22 144.931 115.184 145.243 115.112C145.563 115.032 145.891 114.92 146.227 114.776V115.7C145.899 115.844 145.575 115.948 145.255 116.012C144.935 116.084 144.555 116.12 144.115 116.12C143.499 116.12 142.959 115.996 142.495 115.748C142.031 115.5 141.667 115.132 141.403 114.644C141.147 114.156 141.019 113.552 141.019 112.832C141.019 112.128 141.135 111.524 141.367 111.02C141.607 110.516 141.939 110.128 142.363 109.856C142.795 109.584 143.295 109.448 143.863 109.448ZM143.851 110.312C143.347 110.312 142.947 110.476 142.651 110.804C142.363 111.124 142.191 111.572 142.135 112.148H145.411C145.403 111.604 145.275 111.164 145.027 110.828C144.779 110.484 144.387 110.312 143.851 110.312ZM151.249 109.448C152.017 109.448 152.597 109.636 152.989 110.012C153.381 110.388 153.577 110.988 153.577 111.812V116H152.533V111.884C152.533 110.852 152.053 110.336 151.093 110.336C150.381 110.336 149.889 110.536 149.617 110.936C149.345 111.336 149.209 111.912 149.209 112.664V116H148.153V109.568H149.005L149.161 110.444H149.221C149.429 110.108 149.717 109.86 150.085 109.7C150.453 109.532 150.841 109.448 151.249 109.448ZM157.719 115.256C157.879 115.256 158.043 115.244 158.211 115.22C158.379 115.196 158.515 115.164 158.619 115.124V115.928C158.507 115.984 158.347 116.028 158.139 116.06C157.931 116.1 157.731 116.12 157.539 116.12C157.203 116.12 156.891 116.064 156.603 115.952C156.323 115.832 156.095 115.628 155.919 115.34C155.743 115.052 155.655 114.648 155.655 114.128V110.384H154.743V109.88L155.667 109.46L156.087 108.092H156.711V109.568H158.571V110.384H156.711V114.104C156.711 114.496 156.803 114.788 156.987 114.98C157.179 115.164 157.423 115.256 157.719 115.256Z" fill="#5E5E5E"/>
<path d="M65 119V145" stroke="#E60074"/>
<circle cx="65" cy="157" r="12" fill="#E60074"/>
<path d="M69.2501 159.858H67.9481V162H66.2121V159.858H61.7601V158.542L66.2541 151.976H67.9481V158.416H69.2501V159.858ZM66.2121 158.416V156.176C66.2121 155.915 66.2168 155.644 66.2261 155.364C66.2355 155.075 66.2448 154.809 66.2541 154.566C66.2728 154.314 66.2868 154.123 66.2961 153.992H66.2401C66.1561 154.179 66.0628 154.365 65.9601 154.552C65.8668 154.729 65.7595 154.907 65.6381 155.084L63.3701 158.416H66.2121Z" fill="white"/>
<path d="M455 43H481" stroke="#E60074"/>
<circle cx="493" cy="43" r="12" fill="#E60074"/>
<path d="M496.55 40.286C496.55 40.9673 496.349 41.5133 495.948 41.924C495.556 42.3253 495.047 42.596 494.422 42.736V42.778C495.225 42.8807 495.831 43.1327 496.242 43.534C496.653 43.9353 496.858 44.4627 496.858 45.116C496.858 45.6947 496.718 46.2127 496.438 46.67C496.158 47.1273 495.724 47.4867 495.136 47.748C494.557 48.0093 493.811 48.14 492.896 48.14C492.345 48.14 491.837 48.0933 491.37 48C490.913 47.916 490.479 47.7807 490.068 47.594V46.04C490.488 46.2547 490.936 46.418 491.412 46.53C491.888 46.642 492.336 46.698 492.756 46.698C493.568 46.698 494.142 46.5533 494.478 46.264C494.814 45.9653 494.982 45.5547 494.982 45.032C494.982 44.5373 494.786 44.1687 494.394 43.926C494.002 43.6833 493.349 43.562 492.434 43.562H491.594V42.148H492.448C493.335 42.148 493.946 42.0033 494.282 41.714C494.618 41.4247 494.786 41.0513 494.786 40.594C494.786 40.1927 494.655 39.88 494.394 39.656C494.133 39.432 493.741 39.32 493.218 39.32C492.714 39.32 492.28 39.404 491.916 39.572C491.552 39.7307 491.225 39.9033 490.936 40.09L490.096 38.872C490.479 38.592 490.931 38.354 491.454 38.158C491.977 37.962 492.593 37.864 493.302 37.864C494.338 37.864 495.136 38.0833 495.696 38.522C496.265 38.9607 496.55 39.5487 496.55 40.286Z" fill="white"/>
<path d="M457 112H481" stroke="#E60074"/>
<circle cx="493" cy="112" r="12" fill="#E60074"/>
<path d="M493.568 110.714C494.203 110.714 494.763 110.831 495.248 111.064C495.733 111.297 496.111 111.638 496.382 112.086C496.662 112.525 496.802 113.066 496.802 113.71C496.802 114.783 496.466 115.623 495.794 116.23C495.131 116.837 494.17 117.14 492.91 117.14C492.387 117.14 491.893 117.093 491.426 117C490.969 116.907 490.577 116.771 490.25 116.594V115.026C490.595 115.213 491.006 115.367 491.482 115.488C491.967 115.609 492.429 115.67 492.868 115.67C493.531 115.67 494.049 115.525 494.422 115.236C494.805 114.947 494.996 114.494 494.996 113.878C494.996 113.327 494.819 112.907 494.464 112.618C494.109 112.319 493.559 112.17 492.812 112.17C492.541 112.17 492.257 112.193 491.958 112.24C491.659 112.287 491.412 112.333 491.216 112.38L490.46 111.96L490.838 107.004H496.102V108.544H492.392L492.182 110.854C492.341 110.826 492.527 110.798 492.742 110.77C492.966 110.733 493.241 110.714 493.568 110.714Z" fill="white"/>
<circle cx="12" cy="41" r="12" fill="#E60074"/>
<path d="M15.9421 46H9.09614V44.698L11.6441 42.122C12.1481 41.6087 12.5588 41.17 12.8761 40.806C13.2028 40.442 13.4408 40.1013 13.5901 39.784C13.7488 39.4573 13.8281 39.1073 13.8281 38.734C13.8281 38.2767 13.6975 37.936 13.4361 37.712C13.1841 37.4787 12.8388 37.362 12.4001 37.362C11.9801 37.362 11.5881 37.4507 11.2241 37.628C10.8601 37.796 10.4821 38.0387 10.0901 38.356L9.12414 37.194C9.53481 36.8393 9.99681 36.5313 10.5101 36.27C11.0328 35.9993 11.6955 35.864 12.4981 35.864C13.1421 35.864 13.6928 35.9807 14.1501 36.214C14.6168 36.438 14.9761 36.7553 15.2281 37.166C15.4801 37.5673 15.6061 38.0293 15.6061 38.552C15.6061 39.0933 15.4988 39.5927 15.2841 40.05C15.0695 40.498 14.7568 40.9507 14.3461 41.408C13.9448 41.856 13.4641 42.3413 12.9041 42.864L11.3221 44.39V44.474H15.9421V46Z" fill="white"/>
<path d="M24 41H65" stroke="#E60074"/>
<circle cx="12" cy="12" r="12" fill="#E60074"/>
<path d="M13.9681 17H12.2041V10.77C12.2041 10.4713 12.2088 10.154 12.2181 9.818C12.2275 9.482 12.2415 9.16933 12.2601 8.88C12.1668 8.97333 12.0501 9.08533 11.9101 9.216C11.7795 9.34667 11.6348 9.47267 11.4761 9.594L10.3561 10.49L9.47414 9.398L12.4981 7.004H13.9681V17Z" fill="white"/>
<path d="M24 12L53 12" stroke="#E60074"/>
</svg>
