<svg width="904" height="217" viewBox="0 0 904 217" fill="none" xmlns="http://www.w3.org/2000/svg">
<rect width="904" height="217" fill="white"/>
<path d="M255.664 40V31.432H256.744V39.04H260.488V40H255.664ZM264.249 33.46C265.033 33.46 265.613 33.632 265.989 33.976C266.365 34.32 266.553 34.868 266.553 35.62V40H265.785L265.581 39.088H265.533C265.253 39.44 264.957 39.7 264.645 39.868C264.333 40.036 263.909 40.12 263.373 40.12C262.789 40.12 262.305 39.968 261.921 39.664C261.537 39.352 261.345 38.868 261.345 38.212C261.345 37.572 261.597 37.08 262.101 36.736C262.605 36.384 263.381 36.192 264.429 36.16L265.521 36.124V35.74C265.521 35.204 265.405 34.832 265.173 34.624C264.941 34.416 264.613 34.312 264.189 34.312C263.853 34.312 263.533 34.364 263.229 34.468C262.925 34.564 262.641 34.676 262.377 34.804L262.053 34.012C262.333 33.86 262.665 33.732 263.049 33.628C263.433 33.516 263.833 33.46 264.249 33.46ZM265.509 36.856L264.561 36.892C263.761 36.924 263.205 37.052 262.893 37.276C262.589 37.5 262.437 37.816 262.437 38.224C262.437 38.584 262.545 38.848 262.761 39.016C262.985 39.184 263.269 39.268 263.613 39.268C264.149 39.268 264.597 39.12 264.957 38.824C265.325 38.52 265.509 38.056 265.509 37.432V36.856ZM269.596 30.88V33.1C269.596 33.372 269.588 33.628 269.572 33.868C269.564 34.1 269.552 34.284 269.536 34.42H269.596C269.78 34.148 270.032 33.92 270.352 33.736C270.672 33.552 271.084 33.46 271.588 33.46C272.388 33.46 273.028 33.74 273.508 34.3C273.996 34.852 274.24 35.68 274.24 36.784C274.24 37.888 273.996 38.72 273.508 39.28C273.02 39.84 272.38 40.12 271.588 40.12C271.084 40.12 270.672 40.028 270.352 39.844C270.032 39.66 269.78 39.44 269.596 39.184H269.512L269.296 40H268.54V30.88H269.596ZM271.408 34.336C270.72 34.336 270.244 34.532 269.98 34.924C269.724 35.316 269.596 35.924 269.596 36.748V36.796C269.596 37.588 269.724 38.196 269.98 38.62C270.244 39.036 270.728 39.244 271.432 39.244C272.008 39.244 272.436 39.032 272.716 38.608C273.004 38.184 273.148 37.572 273.148 36.772C273.148 35.148 272.568 34.336 271.408 34.336ZM278.406 33.448C278.95 33.448 279.422 33.568 279.822 33.808C280.222 34.048 280.526 34.388 280.734 34.828C280.95 35.26 281.058 35.768 281.058 36.352V36.988H276.654C276.67 37.716 276.854 38.272 277.206 38.656C277.566 39.032 278.066 39.22 278.706 39.22C279.114 39.22 279.474 39.184 279.786 39.112C280.106 39.032 280.434 38.92 280.77 38.776V39.7C280.442 39.844 280.118 39.948 279.798 40.012C279.478 40.084 279.098 40.12 278.658 40.12C278.042 40.12 277.502 39.996 277.038 39.748C276.574 39.5 276.21 39.132 275.946 38.644C275.69 38.156 275.562 37.552 275.562 36.832C275.562 36.128 275.678 35.524 275.91 35.02C276.15 34.516 276.482 34.128 276.906 33.856C277.338 33.584 277.838 33.448 278.406 33.448ZM278.394 34.312C277.89 34.312 277.49 34.476 277.194 34.804C276.906 35.124 276.734 35.572 276.678 36.148H279.954C279.946 35.604 279.818 35.164 279.57 34.828C279.322 34.484 278.93 34.312 278.394 34.312ZM283.752 40H282.696V30.88H283.752V40Z" fill="#323232"/>
<rect x="255" y="47.5" width="399" height="75" rx="1.5" fill="white"/>
<path d="M271.022 70H269.762V61.11H266.64V60.004H274.13V61.11H271.022V70ZM277.383 62.356C278.018 62.356 278.568 62.496 279.035 62.776C279.502 63.056 279.856 63.4527 280.099 63.966C280.351 64.47 280.477 65.0627 280.477 65.744V66.486H275.339C275.358 67.3353 275.572 67.984 275.983 68.432C276.403 68.8707 276.986 69.09 277.733 69.09C278.209 69.09 278.629 69.048 278.993 68.964C279.366 68.8707 279.749 68.74 280.141 68.572V69.65C279.758 69.818 279.38 69.9393 279.007 70.014C278.634 70.098 278.19 70.14 277.677 70.14C276.958 70.14 276.328 69.9953 275.787 69.706C275.246 69.4167 274.821 68.9873 274.513 68.418C274.214 67.8487 274.065 67.144 274.065 66.304C274.065 65.4827 274.2 64.778 274.471 64.19C274.751 63.602 275.138 63.1493 275.633 62.832C276.137 62.5147 276.72 62.356 277.383 62.356ZM277.369 63.364C276.781 63.364 276.314 63.5553 275.969 63.938C275.633 64.3113 275.432 64.834 275.367 65.506H279.189C279.18 64.8713 279.03 64.358 278.741 63.966C278.452 63.5647 277.994 63.364 277.369 63.364ZM283.892 66.164L281.302 62.496H282.702L284.634 65.324L286.552 62.496H287.938L285.348 66.164L288.078 70H286.678L284.634 67.004L282.562 70H281.176L283.892 66.164ZM292.03 69.132C292.217 69.132 292.408 69.118 292.604 69.09C292.8 69.062 292.959 69.0247 293.08 68.978V69.916C292.949 69.9813 292.763 70.0327 292.52 70.07C292.277 70.1167 292.044 70.14 291.82 70.14C291.428 70.14 291.064 70.0747 290.728 69.944C290.401 69.804 290.135 69.566 289.93 69.23C289.725 68.894 289.622 68.4227 289.622 67.816V63.448H288.558V62.86L289.636 62.37L290.126 60.774H290.854V62.496H293.024V63.448H290.854V67.788C290.854 68.2453 290.961 68.586 291.176 68.81C291.4 69.0247 291.685 69.132 292.03 69.132Z" fill="black"/>
<rect x="255" y="47.5" width="399" height="75" rx="1.5" stroke="#939393"/>
<path d="M621.615 133.436C621.615 134.012 621.451 134.472 621.123 134.816C620.803 135.152 620.375 135.376 619.839 135.488V135.536C620.519 135.616 621.027 135.832 621.363 136.184C621.707 136.536 621.879 136.996 621.879 137.564C621.879 138.068 621.763 138.512 621.531 138.896C621.299 139.28 620.939 139.58 620.451 139.796C619.971 140.012 619.351 140.12 618.591 140.12C618.143 140.12 617.727 140.084 617.343 140.012C616.959 139.948 616.591 139.828 616.239 139.652V138.668C616.599 138.852 616.987 138.992 617.403 139.088C617.819 139.184 618.219 139.232 618.603 139.232C619.371 139.232 619.923 139.084 620.259 138.788C620.603 138.484 620.775 138.068 620.775 137.54C620.775 137.004 620.563 136.62 620.139 136.388C619.723 136.148 619.135 136.028 618.375 136.028H617.547V135.128H618.387C619.091 135.128 619.623 134.98 619.983 134.684C620.351 134.388 620.535 133.996 620.535 133.508C620.535 133.092 620.395 132.772 620.115 132.548C619.835 132.316 619.455 132.2 618.975 132.2C618.511 132.2 618.115 132.268 617.787 132.404C617.459 132.54 617.135 132.712 616.815 132.92L616.287 132.2C616.591 131.96 616.967 131.752 617.415 131.576C617.871 131.4 618.387 131.312 618.963 131.312C619.859 131.312 620.523 131.512 620.955 131.912C621.395 132.312 621.615 132.82 621.615 133.436ZM628.482 133.436C628.482 134.012 628.318 134.472 627.99 134.816C627.67 135.152 627.242 135.376 626.706 135.488V135.536C627.386 135.616 627.894 135.832 628.23 136.184C628.574 136.536 628.746 136.996 628.746 137.564C628.746 138.068 628.63 138.512 628.398 138.896C628.166 139.28 627.806 139.58 627.318 139.796C626.838 140.012 626.218 140.12 625.458 140.12C625.01 140.12 624.594 140.084 624.21 140.012C623.826 139.948 623.458 139.828 623.106 139.652V138.668C623.466 138.852 623.854 138.992 624.27 139.088C624.686 139.184 625.086 139.232 625.47 139.232C626.238 139.232 626.79 139.084 627.126 138.788C627.47 138.484 627.642 138.068 627.642 137.54C627.642 137.004 627.43 136.62 627.006 136.388C626.59 136.148 626.002 136.028 625.242 136.028H624.414V135.128H625.254C625.958 135.128 626.49 134.98 626.85 134.684C627.218 134.388 627.402 133.996 627.402 133.508C627.402 133.092 627.262 132.772 626.982 132.548C626.702 132.316 626.322 132.2 625.842 132.2C625.378 132.2 624.982 132.268 624.654 132.404C624.326 132.54 624.002 132.712 623.682 132.92L623.154 132.2C623.458 131.96 623.834 131.752 624.282 131.576C624.738 131.4 625.254 131.312 625.83 131.312C626.726 131.312 627.39 131.512 627.822 131.912C628.262 132.312 628.482 132.82 628.482 133.436ZM633.778 131.432L630.586 140H629.554L632.746 131.432H633.778ZM638.158 140H637.126V134.012C637.126 133.668 637.13 133.392 637.138 133.184C637.146 132.976 637.158 132.76 637.174 132.536C637.046 132.664 636.926 132.772 636.814 132.86C636.71 132.948 636.582 133.06 636.43 133.196L635.518 133.94L634.966 133.232L637.282 131.432H638.158V140ZM647.042 135.704C647.042 136.632 646.946 137.424 646.754 138.08C646.562 138.736 646.254 139.24 645.83 139.592C645.414 139.944 644.866 140.12 644.186 140.12C643.218 140.12 642.502 139.732 642.038 138.956C641.582 138.172 641.354 137.088 641.354 135.704C641.354 134.776 641.446 133.984 641.63 133.328C641.822 132.672 642.126 132.172 642.542 131.828C642.958 131.476 643.506 131.3 644.186 131.3C645.146 131.3 645.862 131.688 646.334 132.464C646.806 133.232 647.042 134.312 647.042 135.704ZM642.41 135.704C642.41 136.88 642.542 137.76 642.806 138.344C643.078 138.928 643.538 139.22 644.186 139.22C644.826 139.22 645.282 138.932 645.554 138.356C645.834 137.772 645.974 136.888 645.974 135.704C645.974 134.536 645.834 133.66 645.554 133.076C645.282 132.492 644.826 132.2 644.186 132.2C643.538 132.2 643.078 132.492 642.806 133.076C642.542 133.66 642.41 134.536 642.41 135.704ZM653.909 135.704C653.909 136.632 653.813 137.424 653.621 138.08C653.429 138.736 653.121 139.24 652.697 139.592C652.281 139.944 651.733 140.12 651.053 140.12C650.085 140.12 649.369 139.732 648.905 138.956C648.449 138.172 648.221 137.088 648.221 135.704C648.221 134.776 648.313 133.984 648.497 133.328C648.689 132.672 648.993 132.172 649.409 131.828C649.825 131.476 650.373 131.3 651.053 131.3C652.013 131.3 652.729 131.688 653.201 132.464C653.673 133.232 653.909 134.312 653.909 135.704ZM649.277 135.704C649.277 136.88 649.409 137.76 649.673 138.344C649.945 138.928 650.405 139.22 651.053 139.22C651.693 139.22 652.149 138.932 652.421 138.356C652.701 137.772 652.841 136.888 652.841 135.704C652.841 134.536 652.701 133.66 652.421 133.076C652.149 132.492 651.693 132.2 651.053 132.2C650.405 132.2 649.945 132.492 649.673 133.076C649.409 133.66 649.277 134.536 649.277 135.704Z" fill="#5E5E5E"/>
<path d="M255.664 40V31.432H256.744V39.04H260.488V40H255.664ZM264.249 33.46C265.033 33.46 265.613 33.632 265.989 33.976C266.365 34.32 266.553 34.868 266.553 35.62V40H265.785L265.581 39.088H265.533C265.253 39.44 264.957 39.7 264.645 39.868C264.333 40.036 263.909 40.12 263.373 40.12C262.789 40.12 262.305 39.968 261.921 39.664C261.537 39.352 261.345 38.868 261.345 38.212C261.345 37.572 261.597 37.08 262.101 36.736C262.605 36.384 263.381 36.192 264.429 36.16L265.521 36.124V35.74C265.521 35.204 265.405 34.832 265.173 34.624C264.941 34.416 264.613 34.312 264.189 34.312C263.853 34.312 263.533 34.364 263.229 34.468C262.925 34.564 262.641 34.676 262.377 34.804L262.053 34.012C262.333 33.86 262.665 33.732 263.049 33.628C263.433 33.516 263.833 33.46 264.249 33.46ZM265.509 36.856L264.561 36.892C263.761 36.924 263.205 37.052 262.893 37.276C262.589 37.5 262.437 37.816 262.437 38.224C262.437 38.584 262.545 38.848 262.761 39.016C262.985 39.184 263.269 39.268 263.613 39.268C264.149 39.268 264.597 39.12 264.957 38.824C265.325 38.52 265.509 38.056 265.509 37.432V36.856ZM269.596 30.88V33.1C269.596 33.372 269.588 33.628 269.572 33.868C269.564 34.1 269.552 34.284 269.536 34.42H269.596C269.78 34.148 270.032 33.92 270.352 33.736C270.672 33.552 271.084 33.46 271.588 33.46C272.388 33.46 273.028 33.74 273.508 34.3C273.996 34.852 274.24 35.68 274.24 36.784C274.24 37.888 273.996 38.72 273.508 39.28C273.02 39.84 272.38 40.12 271.588 40.12C271.084 40.12 270.672 40.028 270.352 39.844C270.032 39.66 269.78 39.44 269.596 39.184H269.512L269.296 40H268.54V30.88H269.596ZM271.408 34.336C270.72 34.336 270.244 34.532 269.98 34.924C269.724 35.316 269.596 35.924 269.596 36.748V36.796C269.596 37.588 269.724 38.196 269.98 38.62C270.244 39.036 270.728 39.244 271.432 39.244C272.008 39.244 272.436 39.032 272.716 38.608C273.004 38.184 273.148 37.572 273.148 36.772C273.148 35.148 272.568 34.336 271.408 34.336ZM278.406 33.448C278.95 33.448 279.422 33.568 279.822 33.808C280.222 34.048 280.526 34.388 280.734 34.828C280.95 35.26 281.058 35.768 281.058 36.352V36.988H276.654C276.67 37.716 276.854 38.272 277.206 38.656C277.566 39.032 278.066 39.22 278.706 39.22C279.114 39.22 279.474 39.184 279.786 39.112C280.106 39.032 280.434 38.92 280.77 38.776V39.7C280.442 39.844 280.118 39.948 279.798 40.012C279.478 40.084 279.098 40.12 278.658 40.12C278.042 40.12 277.502 39.996 277.038 39.748C276.574 39.5 276.21 39.132 275.946 38.644C275.69 38.156 275.562 37.552 275.562 36.832C275.562 36.128 275.678 35.524 275.91 35.02C276.15 34.516 276.482 34.128 276.906 33.856C277.338 33.584 277.838 33.448 278.406 33.448ZM278.394 34.312C277.89 34.312 277.49 34.476 277.194 34.804C276.906 35.124 276.734 35.572 276.678 36.148H279.954C279.946 35.604 279.818 35.164 279.57 34.828C279.322 34.484 278.93 34.312 278.394 34.312ZM283.752 40H282.696V30.88H283.752V40Z" fill="#323232"/>
<rect x="255" y="47.5" width="399" height="75" rx="1.5" fill="white"/>
<path d="M271.022 70H269.762V61.11H266.64V60.004H274.13V61.11H271.022V70ZM277.383 62.356C278.018 62.356 278.568 62.496 279.035 62.776C279.502 63.056 279.856 63.4527 280.099 63.966C280.351 64.47 280.477 65.0627 280.477 65.744V66.486H275.339C275.358 67.3353 275.572 67.984 275.983 68.432C276.403 68.8707 276.986 69.09 277.733 69.09C278.209 69.09 278.629 69.048 278.993 68.964C279.366 68.8707 279.749 68.74 280.141 68.572V69.65C279.758 69.818 279.38 69.9393 279.007 70.014C278.634 70.098 278.19 70.14 277.677 70.14C276.958 70.14 276.328 69.9953 275.787 69.706C275.246 69.4167 274.821 68.9873 274.513 68.418C274.214 67.8487 274.065 67.144 274.065 66.304C274.065 65.4827 274.2 64.778 274.471 64.19C274.751 63.602 275.138 63.1493 275.633 62.832C276.137 62.5147 276.72 62.356 277.383 62.356ZM277.369 63.364C276.781 63.364 276.314 63.5553 275.969 63.938C275.633 64.3113 275.432 64.834 275.367 65.506H279.189C279.18 64.8713 279.03 64.358 278.741 63.966C278.452 63.5647 277.994 63.364 277.369 63.364ZM283.892 66.164L281.302 62.496H282.702L284.634 65.324L286.552 62.496H287.938L285.348 66.164L288.078 70H286.678L284.634 67.004L282.562 70H281.176L283.892 66.164ZM292.03 69.132C292.217 69.132 292.408 69.118 292.604 69.09C292.8 69.062 292.959 69.0247 293.08 68.978V69.916C292.949 69.9813 292.763 70.0327 292.52 70.07C292.277 70.1167 292.044 70.14 291.82 70.14C291.428 70.14 291.064 70.0747 290.728 69.944C290.401 69.804 290.135 69.566 289.93 69.23C289.725 68.894 289.622 68.4227 289.622 67.816V63.448H288.558V62.86L289.636 62.37L290.126 60.774H290.854V62.496H293.024V63.448H290.854V67.788C290.854 68.2453 290.961 68.586 291.176 68.81C291.4 69.0247 291.685 69.132 292.03 69.132Z" fill="black"/>
<rect x="255" y="47.5" width="399" height="75" rx="1.5" stroke="#939393"/>
<path d="M261.04 140L260.008 137.348H256.612L255.592 140H254.5L257.848 131.396H258.82L262.156 140H261.04ZM259.684 136.388L258.724 133.796C258.7 133.732 258.66 133.616 258.604 133.448C258.548 133.28 258.492 133.108 258.436 132.932C258.388 132.748 258.348 132.608 258.316 132.512C258.252 132.76 258.184 133.004 258.112 133.244C258.048 133.476 257.992 133.66 257.944 133.796L256.972 136.388H259.684ZM265.464 140.12C264.664 140.12 264.024 139.844 263.544 139.292C263.064 138.732 262.824 137.9 262.824 136.796C262.824 135.692 263.064 134.86 263.544 134.3C264.032 133.732 264.676 133.448 265.476 133.448C265.972 133.448 266.376 133.54 266.688 133.724C267.008 133.908 267.268 134.132 267.468 134.396H267.54C267.524 134.292 267.508 134.14 267.492 133.94C267.476 133.732 267.468 133.568 267.468 133.448V130.88H268.524V140H267.672L267.516 139.136H267.468C267.276 139.408 267.02 139.64 266.7 139.832C266.38 140.024 265.968 140.12 265.464 140.12ZM265.632 139.244C266.312 139.244 266.788 139.06 267.06 138.692C267.34 138.316 267.48 137.752 267.48 137V136.808C267.48 136.008 267.348 135.396 267.084 134.972C266.82 134.54 266.332 134.324 265.62 134.324C265.052 134.324 264.624 134.552 264.336 135.008C264.056 135.456 263.916 136.06 263.916 136.82C263.916 137.588 264.056 138.184 264.336 138.608C264.624 139.032 265.056 139.244 265.632 139.244ZM272.847 140.12C272.047 140.12 271.407 139.844 270.927 139.292C270.447 138.732 270.207 137.9 270.207 136.796C270.207 135.692 270.447 134.86 270.927 134.3C271.415 133.732 272.059 133.448 272.859 133.448C273.355 133.448 273.759 133.54 274.071 133.724C274.391 133.908 274.651 134.132 274.851 134.396H274.923C274.907 134.292 274.891 134.14 274.875 133.94C274.859 133.732 274.851 133.568 274.851 133.448V130.88H275.907V140H275.055L274.899 139.136H274.851C274.659 139.408 274.403 139.64 274.083 139.832C273.763 140.024 273.351 140.12 272.847 140.12ZM273.015 139.244C273.695 139.244 274.171 139.06 274.443 138.692C274.723 138.316 274.863 137.752 274.863 137V136.808C274.863 136.008 274.731 135.396 274.467 134.972C274.203 134.54 273.715 134.324 273.003 134.324C272.435 134.324 272.007 134.552 271.719 135.008C271.439 135.456 271.299 136.06 271.299 136.82C271.299 137.588 271.439 138.184 271.719 138.608C272.007 139.032 272.439 139.244 273.015 139.244ZM278.49 131.156C278.65 131.156 278.79 131.212 278.91 131.324C279.038 131.428 279.102 131.596 279.102 131.828C279.102 132.06 279.038 132.232 278.91 132.344C278.79 132.448 278.65 132.5 278.49 132.5C278.314 132.5 278.166 132.448 278.046 132.344C277.926 132.232 277.866 132.06 277.866 131.828C277.866 131.596 277.926 131.428 278.046 131.324C278.166 131.212 278.314 131.156 278.49 131.156ZM279.006 133.568V140H277.95V133.568H279.006ZM283.191 139.256C283.351 139.256 283.515 139.244 283.683 139.22C283.851 139.196 283.987 139.164 284.091 139.124V139.928C283.979 139.984 283.819 140.028 283.611 140.06C283.403 140.1 283.203 140.12 283.011 140.12C282.675 140.12 282.363 140.064 282.075 139.952C281.795 139.832 281.567 139.628 281.391 139.34C281.215 139.052 281.127 138.648 281.127 138.128V134.384H280.215V133.88L281.139 133.46L281.559 132.092H282.183V133.568H284.043V134.384H282.183V138.104C282.183 138.496 282.275 138.788 282.459 138.98C282.651 139.164 282.895 139.256 283.191 139.256ZM285.919 131.156C286.079 131.156 286.219 131.212 286.339 131.324C286.467 131.428 286.531 131.596 286.531 131.828C286.531 132.06 286.467 132.232 286.339 132.344C286.219 132.448 286.079 132.5 285.919 132.5C285.743 132.5 285.595 132.448 285.475 132.344C285.355 132.232 285.295 132.06 285.295 131.828C285.295 131.596 285.355 131.428 285.475 131.324C285.595 131.212 285.743 131.156 285.919 131.156ZM286.435 133.568V140H285.379V133.568H286.435ZM294.065 136.772C294.065 137.836 293.793 138.66 293.249 139.244C292.713 139.828 291.985 140.12 291.065 140.12C290.497 140.12 289.989 139.992 289.541 139.736C289.101 139.472 288.753 139.092 288.497 138.596C288.241 138.092 288.113 137.484 288.113 136.772C288.113 135.708 288.377 134.888 288.905 134.312C289.441 133.736 290.173 133.448 291.101 133.448C291.677 133.448 292.189 133.58 292.637 133.844C293.085 134.1 293.433 134.476 293.681 134.972C293.937 135.46 294.065 136.06 294.065 136.772ZM289.205 136.772C289.205 137.532 289.353 138.136 289.649 138.584C289.953 139.024 290.433 139.244 291.089 139.244C291.737 139.244 292.213 139.024 292.517 138.584C292.821 138.136 292.973 137.532 292.973 136.772C292.973 136.012 292.821 135.416 292.517 134.984C292.213 134.552 291.733 134.336 291.077 134.336C290.421 134.336 289.945 134.552 289.649 134.984C289.353 135.416 289.205 136.012 289.205 136.772ZM298.835 133.448C299.603 133.448 300.183 133.636 300.575 134.012C300.967 134.388 301.163 134.988 301.163 135.812V140H300.119V135.884C300.119 134.852 299.639 134.336 298.679 134.336C297.967 134.336 297.475 134.536 297.203 134.936C296.931 135.336 296.795 135.912 296.795 136.664V140H295.739V133.568H296.591L296.747 134.444H296.807C297.015 134.108 297.303 133.86 297.671 133.7C298.039 133.532 298.427 133.448 298.835 133.448ZM305.593 133.46C306.377 133.46 306.957 133.632 307.333 133.976C307.709 134.32 307.897 134.868 307.897 135.62V140H307.129L306.925 139.088H306.877C306.597 139.44 306.301 139.7 305.989 139.868C305.677 140.036 305.253 140.12 304.717 140.12C304.133 140.12 303.649 139.968 303.265 139.664C302.881 139.352 302.689 138.868 302.689 138.212C302.689 137.572 302.941 137.08 303.445 136.736C303.949 136.384 304.725 136.192 305.773 136.16L306.865 136.124V135.74C306.865 135.204 306.749 134.832 306.517 134.624C306.285 134.416 305.957 134.312 305.533 134.312C305.197 134.312 304.877 134.364 304.573 134.468C304.269 134.564 303.985 134.676 303.721 134.804L303.397 134.012C303.677 133.86 304.009 133.732 304.393 133.628C304.777 133.516 305.177 133.46 305.593 133.46ZM306.853 136.856L305.905 136.892C305.105 136.924 304.549 137.052 304.237 137.276C303.933 137.5 303.781 137.816 303.781 138.224C303.781 138.584 303.889 138.848 304.105 139.016C304.329 139.184 304.613 139.268 304.957 139.268C305.493 139.268 305.941 139.12 306.301 138.824C306.669 138.52 306.853 138.056 306.853 137.432V136.856ZM310.939 140H309.883V130.88H310.939V140ZM318.674 140.12C318.098 140.12 317.59 140.004 317.15 139.772C316.71 139.54 316.362 139.18 316.106 138.692C315.858 138.204 315.734 137.58 315.734 136.82C315.734 136.028 315.862 135.384 316.118 134.888C316.382 134.392 316.742 134.028 317.198 133.796C317.654 133.564 318.17 133.448 318.746 133.448C319.066 133.448 319.378 133.484 319.682 133.556C319.994 133.62 320.246 133.7 320.438 133.796L320.114 134.672C319.922 134.6 319.698 134.532 319.442 134.468C319.186 134.404 318.946 134.372 318.722 134.372C317.458 134.372 316.826 135.184 316.826 136.808C316.826 137.584 316.978 138.18 317.282 138.596C317.594 139.004 318.054 139.208 318.662 139.208C319.006 139.208 319.314 139.172 319.586 139.1C319.858 139.028 320.106 138.94 320.33 138.836V139.772C320.114 139.884 319.874 139.968 319.61 140.024C319.354 140.088 319.042 140.12 318.674 140.12ZM327.452 136.772C327.452 137.836 327.18 138.66 326.636 139.244C326.1 139.828 325.372 140.12 324.452 140.12C323.884 140.12 323.376 139.992 322.928 139.736C322.488 139.472 322.14 139.092 321.884 138.596C321.628 138.092 321.5 137.484 321.5 136.772C321.5 135.708 321.764 134.888 322.292 134.312C322.828 133.736 323.56 133.448 324.488 133.448C325.064 133.448 325.576 133.58 326.024 133.844C326.472 134.1 326.82 134.476 327.068 134.972C327.324 135.46 327.452 136.06 327.452 136.772ZM322.592 136.772C322.592 137.532 322.74 138.136 323.036 138.584C323.34 139.024 323.82 139.244 324.476 139.244C325.124 139.244 325.6 139.024 325.904 138.584C326.208 138.136 326.36 137.532 326.36 136.772C326.36 136.012 326.208 135.416 325.904 134.984C325.6 134.552 325.12 134.336 324.464 134.336C323.808 134.336 323.332 134.552 323.036 134.984C322.74 135.416 322.592 136.012 322.592 136.772ZM332.221 133.448C332.989 133.448 333.569 133.636 333.961 134.012C334.353 134.388 334.549 134.988 334.549 135.812V140H333.505V135.884C333.505 134.852 333.025 134.336 332.065 134.336C331.353 134.336 330.861 134.536 330.589 134.936C330.317 135.336 330.181 135.912 330.181 136.664V140H329.125V133.568H329.977L330.133 134.444H330.193C330.401 134.108 330.689 133.86 331.057 133.7C331.425 133.532 331.813 133.448 332.221 133.448ZM338.691 139.256C338.851 139.256 339.015 139.244 339.183 139.22C339.351 139.196 339.487 139.164 339.591 139.124V139.928C339.479 139.984 339.319 140.028 339.111 140.06C338.903 140.1 338.703 140.12 338.511 140.12C338.175 140.12 337.863 140.064 337.575 139.952C337.295 139.832 337.067 139.628 336.891 139.34C336.715 139.052 336.627 138.648 336.627 138.128V134.384H335.715V133.88L336.639 133.46L337.059 132.092H337.683V133.568H339.543V134.384H337.683V138.104C337.683 138.496 337.775 138.788 337.959 138.98C338.151 139.164 338.395 139.256 338.691 139.256ZM343.363 133.448C343.907 133.448 344.379 133.568 344.779 133.808C345.179 134.048 345.483 134.388 345.691 134.828C345.907 135.26 346.015 135.768 346.015 136.352V136.988H341.611C341.627 137.716 341.811 138.272 342.163 138.656C342.523 139.032 343.023 139.22 343.663 139.22C344.071 139.22 344.431 139.184 344.743 139.112C345.063 139.032 345.391 138.92 345.727 138.776V139.7C345.399 139.844 345.075 139.948 344.755 140.012C344.435 140.084 344.055 140.12 343.615 140.12C342.999 140.12 342.459 139.996 341.995 139.748C341.531 139.5 341.167 139.132 340.903 138.644C340.647 138.156 340.519 137.552 340.519 136.832C340.519 136.128 340.635 135.524 340.867 135.02C341.107 134.516 341.439 134.128 341.863 133.856C342.295 133.584 342.795 133.448 343.363 133.448ZM343.351 134.312C342.847 134.312 342.447 134.476 342.151 134.804C341.863 135.124 341.691 135.572 341.635 136.148H344.911C344.903 135.604 344.775 135.164 344.527 134.828C344.279 134.484 343.887 134.312 343.351 134.312ZM350.749 133.448C351.517 133.448 352.097 133.636 352.489 134.012C352.881 134.388 353.077 134.988 353.077 135.812V140H352.033V135.884C352.033 134.852 351.553 134.336 350.593 134.336C349.881 134.336 349.389 134.536 349.117 134.936C348.845 135.336 348.709 135.912 348.709 136.664V140H347.653V133.568H348.505L348.661 134.444H348.721C348.929 134.108 349.217 133.86 349.585 133.7C349.953 133.532 350.341 133.448 350.749 133.448ZM357.219 139.256C357.379 139.256 357.543 139.244 357.711 139.22C357.879 139.196 358.015 139.164 358.119 139.124V139.928C358.007 139.984 357.847 140.028 357.639 140.06C357.431 140.1 357.231 140.12 357.039 140.12C356.703 140.12 356.391 140.064 356.103 139.952C355.823 139.832 355.595 139.628 355.419 139.34C355.243 139.052 355.155 138.648 355.155 138.128V134.384H354.243V133.88L355.167 133.46L355.587 132.092H356.211V133.568H358.071V134.384H356.211V138.104C356.211 138.496 356.303 138.788 356.487 138.98C356.679 139.164 356.923 139.256 357.219 139.256Z" fill="#5E5E5E"/>
<path d="M264.5 143V169" stroke="#D51588"/>
<circle cx="264.5" cy="181" r="12" fill="#D51588"/>
<path d="M268.75 183.858H267.448V186H265.712V183.858H261.26V182.542L265.754 175.976H267.448V182.416H268.75V183.858ZM265.712 182.416V180.176C265.712 179.915 265.717 179.644 265.726 179.364C265.735 179.075 265.745 178.809 265.754 178.566C265.773 178.314 265.787 178.123 265.796 177.992H265.74C265.656 178.179 265.563 178.365 265.46 178.552C265.367 178.729 265.259 178.907 265.138 179.084L262.87 182.416H265.712Z" fill="white"/>
<path d="M654.5 67H680.5" stroke="#D51588"/>
<circle cx="692.5" cy="67" r="12" fill="#D51588"/>
<path d="M696.05 64.286C696.05 64.9673 695.849 65.5133 695.448 65.924C695.056 66.3253 694.547 66.596 693.922 66.736V66.778C694.725 66.8807 695.331 67.1327 695.742 67.534C696.153 67.9353 696.358 68.4627 696.358 69.116C696.358 69.6947 696.218 70.2127 695.938 70.67C695.658 71.1273 695.224 71.4867 694.636 71.748C694.057 72.0093 693.311 72.14 692.396 72.14C691.845 72.14 691.337 72.0933 690.87 72C690.413 71.916 689.979 71.7807 689.568 71.594V70.04C689.988 70.2547 690.436 70.418 690.912 70.53C691.388 70.642 691.836 70.698 692.256 70.698C693.068 70.698 693.642 70.5533 693.978 70.264C694.314 69.9653 694.482 69.5547 694.482 69.032C694.482 68.5373 694.286 68.1687 693.894 67.926C693.502 67.6833 692.849 67.562 691.934 67.562H691.094V66.148H691.948C692.835 66.148 693.446 66.0033 693.782 65.714C694.118 65.4247 694.286 65.0513 694.286 64.594C694.286 64.1927 694.155 63.88 693.894 63.656C693.633 63.432 693.241 63.32 692.718 63.32C692.214 63.32 691.78 63.404 691.416 63.572C691.052 63.7307 690.725 63.9033 690.436 64.09L689.596 62.872C689.979 62.592 690.431 62.354 690.954 62.158C691.477 61.962 692.093 61.864 692.802 61.864C693.838 61.864 694.636 62.0833 695.196 62.522C695.765 62.9607 696.05 63.5487 696.05 64.286Z" fill="white"/>
<path d="M656.5 136H680.5" stroke="#D51588"/>
<circle cx="692.5" cy="136" r="12" fill="#D51588"/>
<path d="M693.068 134.714C693.703 134.714 694.263 134.831 694.748 135.064C695.233 135.297 695.611 135.638 695.882 136.086C696.162 136.525 696.302 137.066 696.302 137.71C696.302 138.783 695.966 139.623 695.294 140.23C694.631 140.837 693.67 141.14 692.41 141.14C691.887 141.14 691.393 141.093 690.926 141C690.469 140.907 690.077 140.771 689.75 140.594V139.026C690.095 139.213 690.506 139.367 690.982 139.488C691.467 139.609 691.929 139.67 692.368 139.67C693.031 139.67 693.549 139.525 693.922 139.236C694.305 138.947 694.496 138.494 694.496 137.878C694.496 137.327 694.319 136.907 693.964 136.618C693.609 136.319 693.059 136.17 692.312 136.17C692.041 136.17 691.757 136.193 691.458 136.24C691.159 136.287 690.912 136.333 690.716 136.38L689.96 135.96L690.338 131.004H695.602V132.544H691.892L691.682 134.854C691.841 134.826 692.027 134.798 692.242 134.77C692.466 134.733 692.741 134.714 693.068 134.714Z" fill="white"/>
<circle cx="211.5" cy="65" r="12" fill="#D51588"/>
<path d="M215.442 70H208.596V68.698L211.144 66.122C211.648 65.6087 212.059 65.17 212.376 64.806C212.703 64.442 212.941 64.1013 213.09 63.784C213.249 63.4573 213.328 63.1073 213.328 62.734C213.328 62.2767 213.197 61.936 212.936 61.712C212.684 61.4787 212.339 61.362 211.9 61.362C211.48 61.362 211.088 61.4507 210.724 61.628C210.36 61.796 209.982 62.0387 209.59 62.356L208.624 61.194C209.035 60.8393 209.497 60.5313 210.01 60.27C210.533 59.9993 211.195 59.864 211.998 59.864C212.642 59.864 213.193 59.9807 213.65 60.214C214.117 60.438 214.476 60.7553 214.728 61.166C214.98 61.5673 215.106 62.0293 215.106 62.552C215.106 63.0933 214.999 63.5927 214.784 64.05C214.569 64.498 214.257 64.9507 213.846 65.408C213.445 65.856 212.964 66.3413 212.404 66.864L210.822 68.39V68.474H215.442V70Z" fill="white"/>
<path d="M223.5 65H264.5" stroke="#D51588"/>
<circle cx="211.5" cy="36" r="12" fill="#D51588"/>
<path d="M213.468 41H211.704V34.77C211.704 34.4713 211.709 34.154 211.718 33.818C211.727 33.482 211.741 33.1693 211.76 32.88C211.667 32.9733 211.55 33.0853 211.41 33.216C211.279 33.3467 211.135 33.4727 210.976 33.594L209.856 34.49L208.974 33.398L211.998 31.004H213.468V41Z" fill="white"/>
<path d="M223.5 36H252.5" stroke="#D51588"/>
</svg>
