<svg width="269" height="140" viewBox="0 0 269 140" fill="none" xmlns="http://www.w3.org/2000/svg">
<rect width="269" height="140" fill="white"/>
<path d="M35.664 55V46.432H36.744V54.04H40.488V55H35.664ZM44.249 48.46C45.033 48.46 45.613 48.632 45.989 48.976C46.365 49.32 46.553 49.868 46.553 50.62V55H45.785L45.581 54.088H45.533C45.253 54.44 44.957 54.7 44.645 54.868C44.333 55.036 43.909 55.12 43.373 55.12C42.789 55.12 42.305 54.968 41.921 54.664C41.537 54.352 41.345 53.868 41.345 53.212C41.345 52.572 41.597 52.08 42.101 51.736C42.605 51.384 43.381 51.192 44.429 51.16L45.521 51.124V50.74C45.521 50.204 45.405 49.832 45.173 49.624C44.941 49.416 44.613 49.312 44.189 49.312C43.853 49.312 43.533 49.364 43.229 49.468C42.925 49.564 42.641 49.676 42.377 49.804L42.053 49.012C42.333 48.86 42.665 48.732 43.049 48.628C43.433 48.516 43.833 48.46 44.249 48.46ZM45.509 51.856L44.561 51.892C43.761 51.924 43.205 52.052 42.893 52.276C42.589 52.5 42.437 52.816 42.437 53.224C42.437 53.584 42.545 53.848 42.761 54.016C42.985 54.184 43.269 54.268 43.613 54.268C44.149 54.268 44.597 54.12 44.957 53.824C45.325 53.52 45.509 53.056 45.509 52.432V51.856ZM49.5955 45.88V48.1C49.5955 48.372 49.5875 48.628 49.5715 48.868C49.5635 49.1 49.5515 49.284 49.5355 49.42H49.5955C49.7795 49.148 50.0315 48.92 50.3515 48.736C50.6715 48.552 51.0835 48.46 51.5875 48.46C52.3875 48.46 53.0275 48.74 53.5075 49.3C53.9955 49.852 54.2395 50.68 54.2395 51.784C54.2395 52.888 53.9955 53.72 53.5075 54.28C53.0195 54.84 52.3795 55.12 51.5875 55.12C51.0835 55.12 50.6715 55.028 50.3515 54.844C50.0315 54.66 49.7795 54.44 49.5955 54.184H49.5115L49.2955 55H48.5395V45.88H49.5955ZM51.4075 49.336C50.7195 49.336 50.2435 49.532 49.9795 49.924C49.7235 50.316 49.5955 50.924 49.5955 51.748V51.796C49.5955 52.588 49.7235 53.196 49.9795 53.62C50.2435 54.036 50.7275 54.244 51.4315 54.244C52.0075 54.244 52.4355 54.032 52.7155 53.608C53.0035 53.184 53.1475 52.572 53.1475 51.772C53.1475 50.148 52.5675 49.336 51.4075 49.336ZM58.4063 48.448C58.9503 48.448 59.4223 48.568 59.8223 48.808C60.2223 49.048 60.5263 49.388 60.7343 49.828C60.9503 50.26 61.0583 50.768 61.0583 51.352V51.988H56.6543C56.6703 52.716 56.8543 53.272 57.2063 53.656C57.5663 54.032 58.0663 54.22 58.7063 54.22C59.1143 54.22 59.4743 54.184 59.7863 54.112C60.1063 54.032 60.4343 53.92 60.7703 53.776V54.7C60.4423 54.844 60.1183 54.948 59.7983 55.012C59.4783 55.084 59.0983 55.12 58.6583 55.12C58.0423 55.12 57.5023 54.996 57.0383 54.748C56.5743 54.5 56.2103 54.132 55.9463 53.644C55.6903 53.156 55.5623 52.552 55.5623 51.832C55.5623 51.128 55.6783 50.524 55.9103 50.02C56.1503 49.516 56.4823 49.128 56.9063 48.856C57.3383 48.584 57.8383 48.448 58.4063 48.448ZM58.3943 49.312C57.8903 49.312 57.4903 49.476 57.1943 49.804C56.9063 50.124 56.7343 50.572 56.6783 51.148H59.9543C59.9463 50.604 59.8183 50.164 59.5703 49.828C59.3223 49.484 58.9303 49.312 58.3943 49.312ZM63.7518 55H62.6958V45.88H63.7518V55Z" fill="#323232"/>
<path d="M39.022 85H37.762V76.11H34.64V75.004H42.13V76.11H39.022V85ZM45.3829 77.356C46.0176 77.356 46.5683 77.496 47.0349 77.776C47.5016 78.056 47.8563 78.4527 48.0989 78.966C48.3509 79.47 48.4769 80.0627 48.4769 80.744V81.486H43.3389C43.3576 82.3353 43.5723 82.984 43.9829 83.432C44.4029 83.8707 44.9863 84.09 45.7329 84.09C46.2089 84.09 46.6289 84.048 46.9929 83.964C47.3663 83.8707 47.7489 83.74 48.1409 83.572V84.65C47.7583 84.818 47.3803 84.9393 47.0069 85.014C46.6336 85.098 46.1903 85.14 45.6769 85.14C44.9583 85.14 44.3283 84.9953 43.7869 84.706C43.2456 84.4167 42.8209 83.9873 42.5129 83.418C42.2143 82.8487 42.0649 82.144 42.0649 81.304C42.0649 80.4827 42.2003 79.778 42.4709 79.19C42.7509 78.602 43.1383 78.1493 43.6329 77.832C44.1369 77.5147 44.7203 77.356 45.3829 77.356ZM45.3689 78.364C44.7809 78.364 44.3143 78.5553 43.9689 78.938C43.6329 79.3113 43.4323 79.834 43.3669 80.506H47.1889C47.1796 79.8713 47.0303 79.358 46.7409 78.966C46.4516 78.5647 45.9943 78.364 45.3689 78.364ZM51.8918 81.164L49.3018 77.496H50.7018L52.6338 80.324L54.5518 77.496H55.9378L53.3478 81.164L56.0778 85H54.6778L52.6338 82.004L50.5618 85H49.1758L51.8918 81.164ZM60.03 84.132C60.2167 84.132 60.408 84.118 60.604 84.09C60.8 84.062 60.9587 84.0247 61.08 83.978V84.916C60.9493 84.9813 60.7627 85.0327 60.52 85.07C60.2773 85.1167 60.044 85.14 59.82 85.14C59.428 85.14 59.064 85.0747 58.728 84.944C58.4013 84.804 58.1353 84.566 57.93 84.23C57.7247 83.894 57.622 83.4227 57.622 82.816V78.448H56.558V77.86L57.636 77.37L58.126 75.774H58.854V77.496H61.024V78.448H58.854V82.788C58.854 83.2453 58.9613 83.586 59.176 83.81C59.4 84.0247 59.6847 84.132 60.03 84.132Z" fill="black"/>
</svg>
