<svg width="299" height="52" viewBox="0 0 299 52" fill="none" xmlns="http://www.w3.org/2000/svg">
<path d="M6.024 10.708C6.024 11.468 5.748 12.06 5.196 12.484C4.644 12.908 3.9 13.12 2.964 13.12C2.484 13.12 2.04 13.084 1.632 13.012C1.224 12.94 0.884 12.84 0.612 12.712V11.68C0.9 11.808 1.256 11.924 1.68 12.028C2.112 12.132 2.556 12.184 3.012 12.184C3.644 12.184 4.124 12.06 4.452 11.812C4.78 11.564 4.944 11.228 4.944 10.804C4.944 10.524 4.884 10.288 4.764 10.096C4.644 9.904 4.436 9.728 4.14 9.568C3.844 9.408 3.44 9.232 2.928 9.04C2.192 8.776 1.64 8.452 1.272 8.068C0.904 7.684 0.72 7.16 0.72 6.496C0.72 6.048 0.836 5.66 1.068 5.332C1.3 5.004 1.62 4.752 2.028 4.576C2.436 4.4 2.912 4.312 3.456 4.312C3.92 4.312 4.348 4.356 4.74 4.444C5.132 4.532 5.492 4.648 5.82 4.792L5.484 5.716C5.188 5.588 4.864 5.48 4.512 5.392C4.16 5.304 3.8 5.26 3.432 5.26C2.896 5.26 2.492 5.376 2.22 5.608C1.948 5.832 1.812 6.132 1.812 6.508C1.812 6.796 1.872 7.036 1.992 7.228C2.112 7.42 2.308 7.596 2.58 7.756C2.852 7.908 3.22 8.068 3.684 8.236C4.188 8.42 4.612 8.62 4.956 8.836C5.308 9.044 5.572 9.296 5.748 9.592C5.932 9.888 6.024 10.26 6.024 10.708ZM8.14594 4.156C8.30594 4.156 8.44594 4.212 8.56594 4.324C8.69394 4.428 8.75794 4.596 8.75794 4.828C8.75794 5.06 8.69394 5.232 8.56594 5.344C8.44594 5.448 8.30594 5.5 8.14594 5.5C7.96994 5.5 7.82194 5.448 7.70194 5.344C7.58194 5.232 7.52194 5.06 7.52194 4.828C7.52194 4.596 7.58194 4.428 7.70194 4.324C7.82194 4.212 7.96994 4.156 8.14594 4.156ZM8.66194 6.568V13H7.60594V6.568H8.66194ZM12.8477 12.256C13.0077 12.256 13.1717 12.244 13.3397 12.22C13.5077 12.196 13.6437 12.164 13.7477 12.124V12.928C13.6357 12.984 13.4757 13.028 13.2677 13.06C13.0597 13.1 12.8597 13.12 12.6677 13.12C12.3317 13.12 12.0197 13.064 11.7317 12.952C11.4517 12.832 11.2237 12.628 11.0477 12.34C10.8717 12.052 10.7837 11.648 10.7837 11.128V7.384H9.87169V6.88L10.7957 6.46L11.2157 5.092H11.8397V6.568H13.6997V7.384H11.8397V11.104C11.8397 11.496 11.9317 11.788 12.1157 11.98C12.3077 12.164 12.5517 12.256 12.8477 12.256ZM17.5196 6.448C18.0636 6.448 18.5356 6.568 18.9356 6.808C19.3356 7.048 19.6396 7.388 19.8476 7.828C20.0636 8.26 20.1716 8.768 20.1716 9.352V9.988H15.7676C15.7836 10.716 15.9676 11.272 16.3196 11.656C16.6796 12.032 17.1796 12.22 17.8196 12.22C18.2276 12.22 18.5876 12.184 18.8996 12.112C19.2196 12.032 19.5476 11.92 19.8836 11.776V12.7C19.5556 12.844 19.2316 12.948 18.9116 13.012C18.5916 13.084 18.2116 13.12 17.7716 13.12C17.1556 13.12 16.6156 12.996 16.1516 12.748C15.6876 12.5 15.3236 12.132 15.0596 11.644C14.8036 11.156 14.6756 10.552 14.6756 9.832C14.6756 9.128 14.7916 8.524 15.0236 8.02C15.2636 7.516 15.5956 7.128 16.0196 6.856C16.4516 6.584 16.9516 6.448 17.5196 6.448ZM17.5076 7.312C17.0036 7.312 16.6036 7.476 16.3076 7.804C16.0196 8.124 15.8476 8.572 15.7916 9.148H19.0676C19.0596 8.604 18.9316 8.164 18.6836 7.828C18.4356 7.484 18.0436 7.312 17.5076 7.312ZM31.9343 8.632C31.9343 10.08 31.5383 11.172 30.7463 11.908C29.9623 12.636 28.8663 13 27.4583 13H25.0703V4.432H27.7103C28.5663 4.432 29.3103 4.592 29.9423 4.912C30.5823 5.232 31.0743 5.704 31.4183 6.328C31.7623 6.952 31.9343 7.72 31.9343 8.632ZM30.7943 8.668C30.7943 7.524 30.5103 6.688 29.9423 6.16C29.3823 5.624 28.5863 5.356 27.5543 5.356H26.1503V12.076H27.3143C29.6343 12.076 30.7943 10.94 30.7943 8.668ZM36.1759 6.448C36.7199 6.448 37.1919 6.568 37.5919 6.808C37.9919 7.048 38.2959 7.388 38.5039 7.828C38.7199 8.26 38.8279 8.768 38.8279 9.352V9.988H34.4239C34.4399 10.716 34.6239 11.272 34.9759 11.656C35.3359 12.032 35.8359 12.22 36.4759 12.22C36.8839 12.22 37.2439 12.184 37.5559 12.112C37.8759 12.032 38.2039 11.92 38.5399 11.776V12.7C38.2119 12.844 37.8879 12.948 37.5679 13.012C37.2479 13.084 36.8679 13.12 36.4279 13.12C35.8119 13.12 35.2719 12.996 34.8079 12.748C34.3439 12.5 33.9799 12.132 33.7159 11.644C33.4599 11.156 33.3319 10.552 33.3319 9.832C33.3319 9.128 33.4479 8.524 33.6799 8.02C33.9199 7.516 34.2519 7.128 34.6759 6.856C35.1079 6.584 35.6079 6.448 36.1759 6.448ZM36.1639 7.312C35.6599 7.312 35.2599 7.476 34.9639 7.804C34.6759 8.124 34.5039 8.572 34.4479 9.148H37.7239C37.7159 8.604 37.5879 8.164 37.3399 7.828C37.0919 7.484 36.6999 7.312 36.1639 7.312ZM44.6533 11.224C44.6533 11.848 44.4213 12.32 43.9573 12.64C43.4933 12.96 42.8693 13.12 42.0853 13.12C41.6373 13.12 41.2493 13.084 40.9213 13.012C40.6013 12.94 40.3173 12.84 40.0693 12.712V11.752C40.3253 11.88 40.6333 12 40.9933 12.112C41.3613 12.216 41.7333 12.268 42.1093 12.268C42.6453 12.268 43.0333 12.184 43.2733 12.016C43.5133 11.84 43.6333 11.608 43.6333 11.32C43.6333 11.16 43.5893 11.016 43.5013 10.888C43.4133 10.76 43.2533 10.632 43.0213 10.504C42.7973 10.376 42.4733 10.232 42.0493 10.072C41.6333 9.912 41.2773 9.752 40.9813 9.592C40.6853 9.432 40.4573 9.24 40.2973 9.016C40.1373 8.792 40.0573 8.504 40.0573 8.152C40.0573 7.608 40.2773 7.188 40.7173 6.892C41.1653 6.596 41.7493 6.448 42.4693 6.448C42.8613 6.448 43.2253 6.488 43.5613 6.568C43.9053 6.648 44.2253 6.752 44.5213 6.88L44.1613 7.72C43.8893 7.608 43.6053 7.512 43.3093 7.432C43.0133 7.352 42.7093 7.312 42.3973 7.312C41.9653 7.312 41.6333 7.384 41.4013 7.528C41.1773 7.664 41.0653 7.852 41.0653 8.092C41.0653 8.276 41.1173 8.428 41.2213 8.548C41.3253 8.668 41.4973 8.788 41.7373 8.908C41.9853 9.028 42.3133 9.164 42.7213 9.316C43.1293 9.468 43.4773 9.624 43.7653 9.784C44.0533 9.944 44.2733 10.14 44.4253 10.372C44.5773 10.596 44.6533 10.88 44.6533 11.224ZM48.7875 13.12C48.2115 13.12 47.7035 13.004 47.2635 12.772C46.8235 12.54 46.4755 12.18 46.2195 11.692C45.9715 11.204 45.8475 10.58 45.8475 9.82C45.8475 9.028 45.9755 8.384 46.2315 7.888C46.4955 7.392 46.8555 7.028 47.3115 6.796C47.7675 6.564 48.2835 6.448 48.8595 6.448C49.1795 6.448 49.4915 6.484 49.7955 6.556C50.1075 6.62 50.3595 6.7 50.5515 6.796L50.2275 7.672C50.0355 7.6 49.8115 7.532 49.5555 7.468C49.2995 7.404 49.0595 7.372 48.8355 7.372C47.5715 7.372 46.9395 8.184 46.9395 9.808C46.9395 10.584 47.0915 11.18 47.3955 11.596C47.7075 12.004 48.1675 12.208 48.7755 12.208C49.1195 12.208 49.4275 12.172 49.6995 12.1C49.9715 12.028 50.2195 11.94 50.4435 11.836V12.772C50.2275 12.884 49.9875 12.968 49.7235 13.024C49.4675 13.088 49.1555 13.12 48.7875 13.12ZM54.9731 6.448C55.0931 6.448 55.2211 6.456 55.3571 6.472C55.4931 6.48 55.6171 6.496 55.7291 6.52L55.5971 7.492C55.4931 7.468 55.3771 7.448 55.2491 7.432C55.1211 7.416 55.0051 7.408 54.9011 7.408C54.5731 7.408 54.2651 7.5 53.9771 7.684C53.6891 7.86 53.4571 8.112 53.2811 8.44C53.1131 8.76 53.0291 9.136 53.0291 9.568V13H51.9731V6.568H52.8371L52.9571 7.744H53.0051C53.2051 7.392 53.4691 7.088 53.7971 6.832C54.1331 6.576 54.5251 6.448 54.9731 6.448ZM57.4702 4.156C57.6302 4.156 57.7702 4.212 57.8902 4.324C58.0182 4.428 58.0822 4.596 58.0822 4.828C58.0822 5.06 58.0182 5.232 57.8902 5.344C57.7702 5.448 57.6302 5.5 57.4702 5.5C57.2942 5.5 57.1462 5.448 57.0262 5.344C56.9062 5.232 56.8462 5.06 56.8462 4.828C56.8462 4.596 56.9062 4.428 57.0262 4.324C57.1462 4.212 57.2942 4.156 57.4702 4.156ZM57.9862 6.568V13H56.9302V6.568H57.9862ZM63.0839 6.448C63.8759 6.448 64.5119 6.724 64.9919 7.276C65.4799 7.828 65.7239 8.66 65.7239 9.772C65.7239 10.868 65.4799 11.7 64.9919 12.268C64.5119 12.836 63.8719 13.12 63.0719 13.12C62.5759 13.12 62.1639 13.028 61.8359 12.844C61.5159 12.66 61.2639 12.44 61.0799 12.184H61.0079C61.0159 12.32 61.0279 12.492 61.0439 12.7C61.0679 12.908 61.0799 13.088 61.0799 13.24V15.88H60.0239V6.568H60.8879L61.0319 7.444H61.0799C61.2719 7.164 61.5239 6.928 61.8359 6.736C62.1479 6.544 62.5639 6.448 63.0839 6.448ZM62.8919 7.336C62.2359 7.336 61.7719 7.52 61.4999 7.888C61.2279 8.256 61.0879 8.816 61.0799 9.568V9.772C61.0799 10.564 61.2079 11.176 61.4639 11.608C61.7279 12.032 62.2119 12.244 62.9159 12.244C63.2999 12.244 63.6199 12.14 63.8759 11.932C64.1319 11.716 64.3199 11.42 64.4399 11.044C64.5679 10.668 64.6319 10.24 64.6319 9.76C64.6319 9.024 64.4879 8.436 64.1999 7.996C63.9199 7.556 63.4839 7.336 62.8919 7.336ZM69.5547 12.256C69.7147 12.256 69.8787 12.244 70.0467 12.22C70.2147 12.196 70.3507 12.164 70.4547 12.124V12.928C70.3427 12.984 70.1827 13.028 69.9747 13.06C69.7667 13.1 69.5667 13.12 69.3747 13.12C69.0387 13.12 68.7267 13.064 68.4387 12.952C68.1587 12.832 67.9307 12.628 67.7547 12.34C67.5787 12.052 67.4907 11.648 67.4907 11.128V7.384H66.5787V6.88L67.5027 6.46L67.9227 5.092H68.5467V6.568H70.4067V7.384H68.5467V11.104C68.5467 11.496 68.6387 11.788 68.8227 11.98C69.0147 12.164 69.2587 12.256 69.5547 12.256ZM72.2827 4.156C72.4427 4.156 72.5827 4.212 72.7027 4.324C72.8307 4.428 72.8947 4.596 72.8947 4.828C72.8947 5.06 72.8307 5.232 72.7027 5.344C72.5827 5.448 72.4427 5.5 72.2827 5.5C72.1067 5.5 71.9587 5.448 71.8387 5.344C71.7187 5.232 71.6587 5.06 71.6587 4.828C71.6587 4.596 71.7187 4.428 71.8387 4.324C71.9587 4.212 72.1067 4.156 72.2827 4.156ZM72.7987 6.568V13H71.7427V6.568H72.7987ZM80.4284 9.772C80.4284 10.836 80.1564 11.66 79.6124 12.244C79.0764 12.828 78.3484 13.12 77.4284 13.12C76.8604 13.12 76.3524 12.992 75.9044 12.736C75.4644 12.472 75.1164 12.092 74.8604 11.596C74.6044 11.092 74.4764 10.484 74.4764 9.772C74.4764 8.708 74.7404 7.888 75.2684 7.312C75.8044 6.736 76.5364 6.448 77.4644 6.448C78.0404 6.448 78.5524 6.58 79.0004 6.844C79.4484 7.1 79.7964 7.476 80.0444 7.972C80.3004 8.46 80.4284 9.06 80.4284 9.772ZM75.5684 9.772C75.5684 10.532 75.7164 11.136 76.0124 11.584C76.3164 12.024 76.7964 12.244 77.4524 12.244C78.1004 12.244 78.5764 12.024 78.8804 11.584C79.1844 11.136 79.3364 10.532 79.3364 9.772C79.3364 9.012 79.1844 8.416 78.8804 7.984C78.5764 7.552 78.0964 7.336 77.4404 7.336C76.7844 7.336 76.3084 7.552 76.0124 7.984C75.7164 8.416 75.5684 9.012 75.5684 9.772ZM85.198 6.448C85.966 6.448 86.546 6.636 86.938 7.012C87.33 7.388 87.526 7.988 87.526 8.812V13H86.482V8.884C86.482 7.852 86.002 7.336 85.042 7.336C84.33 7.336 83.838 7.536 83.566 7.936C83.294 8.336 83.158 8.912 83.158 9.664V13H82.102V6.568H82.954L83.11 7.444H83.17C83.378 7.108 83.666 6.86 84.034 6.7C84.402 6.532 84.79 6.448 85.198 6.448Z" fill="#323232"/>
<rect x="0.5" y="20.5" width="298" height="31" rx="1.5" fill="white"/>
<path d="M12.864 40.352C12.864 40.056 12.936 39.848 13.08 39.728C13.224 39.608 13.396 39.548 13.596 39.548C13.796 39.548 13.972 39.608 14.124 39.728C14.276 39.848 14.352 40.056 14.352 40.352C14.352 40.64 14.276 40.848 14.124 40.976C13.972 41.104 13.796 41.168 13.596 41.168C13.396 41.168 13.224 41.104 13.08 40.976C12.936 40.848 12.864 40.64 12.864 40.352ZM16.0749 40.352C16.0749 40.056 16.1469 39.848 16.2909 39.728C16.4349 39.608 16.6069 39.548 16.8069 39.548C17.0069 39.548 17.1829 39.608 17.3349 39.728C17.4869 39.848 17.5629 40.056 17.5629 40.352C17.5629 40.64 17.4869 40.848 17.3349 40.976C17.1829 41.104 17.0069 41.168 16.8069 41.168C16.6069 41.168 16.4349 41.104 16.2909 40.976C16.1469 40.848 16.0749 40.64 16.0749 40.352ZM19.2859 40.352C19.2859 40.056 19.3579 39.848 19.5019 39.728C19.6459 39.608 19.8179 39.548 20.0179 39.548C20.2179 39.548 20.3939 39.608 20.5459 39.728C20.6979 39.848 20.7739 40.056 20.7739 40.352C20.7739 40.64 20.6979 40.848 20.5459 40.976C20.3939 41.104 20.2179 41.168 20.0179 41.168C19.8179 41.168 19.6459 41.104 19.5019 40.976C19.3579 40.848 19.2859 40.64 19.2859 40.352ZM25.7488 34.448C26.5168 34.448 27.0968 34.636 27.4888 35.012C27.8808 35.388 28.0768 35.988 28.0768 36.812V41H27.0328V36.884C27.0328 35.852 26.5528 35.336 25.5928 35.336C24.8808 35.336 24.3888 35.536 24.1168 35.936C23.8448 36.336 23.7088 36.912 23.7088 37.664V41H22.6528V34.568H23.5048L23.6608 35.444H23.7208C23.9288 35.108 24.2168 34.86 24.5848 34.7C24.9528 34.532 25.3408 34.448 25.7488 34.448ZM32.3508 41.12C31.5508 41.12 30.9108 40.844 30.4308 40.292C29.9508 39.732 29.7108 38.9 29.7108 37.796C29.7108 36.692 29.9508 35.86 30.4308 35.3C30.9188 34.732 31.5628 34.448 32.3628 34.448C32.8588 34.448 33.2628 34.54 33.5748 34.724C33.8948 34.908 34.1548 35.132 34.3548 35.396H34.4268C34.4108 35.292 34.3948 35.14 34.3788 34.94C34.3628 34.732 34.3548 34.568 34.3548 34.448V31.88H35.4108V41H34.5588L34.4028 40.136H34.3548C34.1628 40.408 33.9068 40.64 33.5868 40.832C33.2668 41.024 32.8548 41.12 32.3508 41.12ZM32.5188 40.244C33.1988 40.244 33.6748 40.06 33.9468 39.692C34.2268 39.316 34.3668 38.752 34.3668 38V37.808C34.3668 37.008 34.2348 36.396 33.9708 35.972C33.7068 35.54 33.2188 35.324 32.5068 35.324C31.9388 35.324 31.5108 35.552 31.2228 36.008C30.9428 36.456 30.8028 37.06 30.8028 37.82C30.8028 38.588 30.9428 39.184 31.2228 39.608C31.5108 40.032 31.9428 40.244 32.5188 40.244ZM43.5708 34.448C43.6908 34.448 43.8188 34.456 43.9548 34.472C44.0908 34.48 44.2148 34.496 44.3268 34.52L44.1948 35.492C44.0908 35.468 43.9748 35.448 43.8468 35.432C43.7188 35.416 43.6028 35.408 43.4988 35.408C43.1708 35.408 42.8628 35.5 42.5748 35.684C42.2868 35.86 42.0548 36.112 41.8788 36.44C41.7108 36.76 41.6268 37.136 41.6268 37.568V41H40.5708V34.568H41.4348L41.5548 35.744H41.6028C41.8028 35.392 42.0668 35.088 42.3948 34.832C42.7308 34.576 43.1228 34.448 43.5708 34.448ZM47.7774 34.448C48.3214 34.448 48.7934 34.568 49.1934 34.808C49.5934 35.048 49.8974 35.388 50.1054 35.828C50.3214 36.26 50.4294 36.768 50.4294 37.352V37.988H46.0254C46.0414 38.716 46.2254 39.272 46.5774 39.656C46.9374 40.032 47.4374 40.22 48.0774 40.22C48.4854 40.22 48.8454 40.184 49.1574 40.112C49.4774 40.032 49.8054 39.92 50.1414 39.776V40.7C49.8134 40.844 49.4894 40.948 49.1694 41.012C48.8494 41.084 48.4694 41.12 48.0294 41.12C47.4134 41.12 46.8734 40.996 46.4094 40.748C45.9454 40.5 45.5814 40.132 45.3174 39.644C45.0614 39.156 44.9334 38.552 44.9334 37.832C44.9334 37.128 45.0494 36.524 45.2814 36.02C45.5214 35.516 45.8534 35.128 46.2774 34.856C46.7094 34.584 47.2094 34.448 47.7774 34.448ZM47.7654 35.312C47.2614 35.312 46.8614 35.476 46.5654 35.804C46.2774 36.124 46.1054 36.572 46.0494 37.148H49.3254C49.3174 36.604 49.1894 36.164 48.9414 35.828C48.6934 35.484 48.3014 35.312 47.7654 35.312ZM56.3509 43.88V41.132C56.3509 40.988 56.3549 40.82 56.3629 40.628C56.3709 40.436 56.3869 40.272 56.4109 40.136H56.3389C56.1549 40.408 55.8989 40.64 55.5709 40.832C55.2509 41.024 54.8349 41.12 54.3229 41.12C53.5469 41.12 52.9149 40.844 52.4269 40.292C51.9469 39.732 51.7069 38.9 51.7069 37.796C51.7069 36.692 51.9509 35.86 52.4389 35.3C52.9349 34.732 53.5749 34.448 54.3589 34.448C54.8629 34.448 55.2749 34.544 55.5949 34.736C55.9149 34.928 56.1709 35.164 56.3629 35.444H56.4109L56.5669 34.568H57.4069V43.88H56.3509ZM54.5269 40.244C55.1829 40.244 55.6509 40.064 55.9309 39.704C56.2109 39.336 56.3549 38.776 56.3629 38.024V37.808C56.3629 36.992 56.2269 36.376 55.9549 35.96C55.6829 35.536 55.1989 35.324 54.5029 35.324C53.9269 35.324 53.4989 35.552 53.2189 36.008C52.9389 36.456 52.7989 37.06 52.7989 37.82C52.7989 38.58 52.9389 39.176 53.2189 39.608C53.4989 40.032 53.9349 40.244 54.5269 40.244ZM64.8257 34.568V41H63.9617L63.8057 40.148H63.7577C63.5497 40.484 63.2617 40.732 62.8937 40.892C62.5257 41.044 62.1337 41.12 61.7177 41.12C60.9417 41.12 60.3577 40.936 59.9657 40.568C59.5737 40.192 59.3777 39.596 59.3777 38.78V34.568H60.4457V38.708C60.4457 39.732 60.9217 40.244 61.8737 40.244C62.5857 40.244 63.0777 40.044 63.3497 39.644C63.6297 39.244 63.7697 38.668 63.7697 37.916V34.568H64.8257ZM69.3517 34.448C69.8957 34.448 70.3677 34.568 70.7677 34.808C71.1677 35.048 71.4717 35.388 71.6797 35.828C71.8957 36.26 72.0037 36.768 72.0037 37.352V37.988H67.5997C67.6157 38.716 67.7997 39.272 68.1517 39.656C68.5117 40.032 69.0117 40.22 69.6517 40.22C70.0597 40.22 70.4197 40.184 70.7317 40.112C71.0517 40.032 71.3797 39.92 71.7157 39.776V40.7C71.3877 40.844 71.0637 40.948 70.7437 41.012C70.4237 41.084 70.0437 41.12 69.6037 41.12C68.9877 41.12 68.4477 40.996 67.9837 40.748C67.5197 40.5 67.1557 40.132 66.8917 39.644C66.6357 39.156 66.5077 38.552 66.5077 37.832C66.5077 37.128 66.6237 36.524 66.8557 36.02C67.0957 35.516 67.4277 35.128 67.8517 34.856C68.2837 34.584 68.7837 34.448 69.3517 34.448ZM69.3397 35.312C68.8357 35.312 68.4357 35.476 68.1397 35.804C67.8517 36.124 67.6797 36.572 67.6237 37.148H70.8997C70.8917 36.604 70.7637 36.164 70.5157 35.828C70.2677 35.484 69.8757 35.312 69.3397 35.312ZM77.8291 39.224C77.8291 39.848 77.5971 40.32 77.1331 40.64C76.6691 40.96 76.0451 41.12 75.2611 41.12C74.8131 41.12 74.4251 41.084 74.0971 41.012C73.7771 40.94 73.4931 40.84 73.2451 40.712V39.752C73.5011 39.88 73.8091 40 74.1691 40.112C74.5371 40.216 74.9091 40.268 75.2851 40.268C75.8211 40.268 76.2091 40.184 76.4491 40.016C76.6891 39.84 76.8091 39.608 76.8091 39.32C76.8091 39.16 76.7651 39.016 76.6771 38.888C76.5891 38.76 76.4291 38.632 76.1971 38.504C75.9731 38.376 75.6491 38.232 75.2251 38.072C74.8091 37.912 74.4531 37.752 74.1571 37.592C73.8611 37.432 73.6331 37.24 73.4731 37.016C73.3131 36.792 73.2331 36.504 73.2331 36.152C73.2331 35.608 73.4531 35.188 73.8931 34.892C74.3411 34.596 74.9251 34.448 75.6451 34.448C76.0371 34.448 76.4011 34.488 76.7371 34.568C77.0811 34.648 77.4011 34.752 77.6971 34.88L77.3371 35.72C77.0651 35.608 76.7811 35.512 76.4851 35.432C76.1891 35.352 75.8851 35.312 75.5731 35.312C75.1411 35.312 74.8091 35.384 74.5771 35.528C74.3531 35.664 74.2411 35.852 74.2411 36.092C74.2411 36.276 74.2931 36.428 74.3971 36.548C74.5011 36.668 74.6731 36.788 74.9131 36.908C75.1611 37.028 75.4891 37.164 75.8971 37.316C76.3051 37.468 76.6531 37.624 76.9411 37.784C77.2291 37.944 77.4491 38.14 77.6011 38.372C77.7531 38.596 77.8291 38.88 77.8291 39.224ZM81.5313 40.256C81.6913 40.256 81.8553 40.244 82.0233 40.22C82.1913 40.196 82.3273 40.164 82.4313 40.124V40.928C82.3193 40.984 82.1593 41.028 81.9513 41.06C81.7433 41.1 81.5433 41.12 81.3513 41.12C81.0153 41.12 80.7033 41.064 80.4153 40.952C80.1353 40.832 79.9073 40.628 79.7313 40.34C79.5553 40.052 79.4673 39.648 79.4673 39.128V35.384H78.5553V34.88L79.4793 34.46L79.8993 33.092H80.5233V34.568H82.3833V35.384H80.5233V39.104C80.5233 39.496 80.6153 39.788 80.7993 39.98C80.9913 40.164 81.2353 40.256 81.5313 40.256ZM89.2724 34.46C90.0564 34.46 90.6364 34.632 91.0124 34.976C91.3884 35.32 91.5764 35.868 91.5764 36.62V41H90.8084L90.6044 40.088H90.5564C90.2764 40.44 89.9804 40.7 89.6684 40.868C89.3564 41.036 88.9324 41.12 88.3964 41.12C87.8124 41.12 87.3284 40.968 86.9444 40.664C86.5604 40.352 86.3684 39.868 86.3684 39.212C86.3684 38.572 86.6204 38.08 87.1244 37.736C87.6284 37.384 88.4044 37.192 89.4524 37.16L90.5444 37.124V36.74C90.5444 36.204 90.4284 35.832 90.1964 35.624C89.9644 35.416 89.6364 35.312 89.2124 35.312C88.8764 35.312 88.5564 35.364 88.2524 35.468C87.9484 35.564 87.6644 35.676 87.4004 35.804L87.0764 35.012C87.3564 34.86 87.6884 34.732 88.0724 34.628C88.4564 34.516 88.8564 34.46 89.2724 34.46ZM90.5324 37.856L89.5844 37.892C88.7844 37.924 88.2284 38.052 87.9164 38.276C87.6124 38.5 87.4604 38.816 87.4604 39.224C87.4604 39.584 87.5684 39.848 87.7844 40.016C88.0084 40.184 88.2924 40.268 88.6364 40.268C89.1724 40.268 89.6204 40.12 89.9804 39.824C90.3484 39.52 90.5324 39.056 90.5324 38.432V37.856ZM99.7402 34.448C100.532 34.448 101.168 34.724 101.648 35.276C102.136 35.828 102.38 36.66 102.38 37.772C102.38 38.868 102.136 39.7 101.648 40.268C101.168 40.836 100.528 41.12 99.7282 41.12C99.2322 41.12 98.8202 41.028 98.4922 40.844C98.1722 40.66 97.9202 40.44 97.7362 40.184H97.6642C97.6722 40.32 97.6842 40.492 97.7002 40.7C97.7242 40.908 97.7362 41.088 97.7362 41.24V43.88H96.6802V34.568H97.5442L97.6882 35.444H97.7362C97.9282 35.164 98.1802 34.928 98.4922 34.736C98.8042 34.544 99.2202 34.448 99.7402 34.448ZM99.5482 35.336C98.8922 35.336 98.4282 35.52 98.1562 35.888C97.8842 36.256 97.7442 36.816 97.7362 37.568V37.772C97.7362 38.564 97.8642 39.176 98.1202 39.608C98.3842 40.032 98.8682 40.244 99.5722 40.244C99.9562 40.244 100.276 40.14 100.532 39.932C100.788 39.716 100.976 39.42 101.096 39.044C101.224 38.668 101.288 38.24 101.288 37.76C101.288 37.024 101.144 36.436 100.856 35.996C100.576 35.556 100.14 35.336 99.5482 35.336ZM106.499 34.46C107.283 34.46 107.863 34.632 108.239 34.976C108.615 35.32 108.803 35.868 108.803 36.62V41H108.035L107.831 40.088H107.783C107.503 40.44 107.207 40.7 106.895 40.868C106.583 41.036 106.159 41.12 105.623 41.12C105.039 41.12 104.555 40.968 104.171 40.664C103.787 40.352 103.595 39.868 103.595 39.212C103.595 38.572 103.847 38.08 104.351 37.736C104.855 37.384 105.631 37.192 106.679 37.16L107.771 37.124V36.74C107.771 36.204 107.655 35.832 107.423 35.624C107.191 35.416 106.863 35.312 106.439 35.312C106.103 35.312 105.783 35.364 105.479 35.468C105.175 35.564 104.891 35.676 104.627 35.804L104.303 35.012C104.583 34.86 104.915 34.732 105.299 34.628C105.683 34.516 106.083 34.46 106.499 34.46ZM107.759 37.856L106.811 37.892C106.011 37.924 105.455 38.052 105.143 38.276C104.839 38.5 104.687 38.816 104.687 39.224C104.687 39.584 104.795 39.848 105.011 40.016C105.235 40.184 105.519 40.268 105.863 40.268C106.399 40.268 106.847 40.12 107.207 39.824C107.575 39.52 107.759 39.056 107.759 38.432V37.856ZM114.978 39.224C114.978 39.848 114.746 40.32 114.282 40.64C113.818 40.96 113.194 41.12 112.41 41.12C111.962 41.12 111.574 41.084 111.246 41.012C110.926 40.94 110.642 40.84 110.394 40.712V39.752C110.65 39.88 110.958 40 111.318 40.112C111.686 40.216 112.058 40.268 112.434 40.268C112.97 40.268 113.358 40.184 113.598 40.016C113.838 39.84 113.958 39.608 113.958 39.32C113.958 39.16 113.914 39.016 113.826 38.888C113.738 38.76 113.578 38.632 113.346 38.504C113.122 38.376 112.798 38.232 112.374 38.072C111.958 37.912 111.602 37.752 111.306 37.592C111.01 37.432 110.782 37.24 110.622 37.016C110.462 36.792 110.382 36.504 110.382 36.152C110.382 35.608 110.602 35.188 111.042 34.892C111.49 34.596 112.074 34.448 112.794 34.448C113.186 34.448 113.55 34.488 113.886 34.568C114.23 34.648 114.55 34.752 114.846 34.88L114.486 35.72C114.214 35.608 113.93 35.512 113.634 35.432C113.338 35.352 113.034 35.312 112.722 35.312C112.29 35.312 111.958 35.384 111.726 35.528C111.502 35.664 111.39 35.852 111.39 36.092C111.39 36.276 111.442 36.428 111.546 36.548C111.65 36.668 111.822 36.788 112.062 36.908C112.31 37.028 112.638 37.164 113.046 37.316C113.454 37.468 113.802 37.624 114.09 37.784C114.378 37.944 114.598 38.14 114.75 38.372C114.902 38.596 114.978 38.88 114.978 39.224ZM120.72 39.224C120.72 39.848 120.488 40.32 120.024 40.64C119.56 40.96 118.936 41.12 118.152 41.12C117.704 41.12 117.316 41.084 116.988 41.012C116.668 40.94 116.384 40.84 116.136 40.712V39.752C116.392 39.88 116.7 40 117.06 40.112C117.428 40.216 117.8 40.268 118.176 40.268C118.712 40.268 119.1 40.184 119.34 40.016C119.58 39.84 119.7 39.608 119.7 39.32C119.7 39.16 119.656 39.016 119.568 38.888C119.48 38.76 119.32 38.632 119.088 38.504C118.864 38.376 118.54 38.232 118.116 38.072C117.7 37.912 117.344 37.752 117.048 37.592C116.752 37.432 116.524 37.24 116.364 37.016C116.204 36.792 116.124 36.504 116.124 36.152C116.124 35.608 116.344 35.188 116.784 34.892C117.232 34.596 117.816 34.448 118.536 34.448C118.928 34.448 119.292 34.488 119.628 34.568C119.972 34.648 120.292 34.752 120.588 34.88L120.228 35.72C119.956 35.608 119.672 35.512 119.376 35.432C119.08 35.352 118.776 35.312 118.464 35.312C118.032 35.312 117.7 35.384 117.468 35.528C117.244 35.664 117.132 35.852 117.132 36.092C117.132 36.276 117.184 36.428 117.288 36.548C117.392 36.668 117.564 36.788 117.804 36.908C118.052 37.028 118.38 37.164 118.788 37.316C119.196 37.468 119.544 37.624 119.832 37.784C120.12 37.944 120.34 38.14 120.492 38.372C120.644 38.596 120.72 38.88 120.72 39.224ZM127.53 40.988L126.426 37.364C126.322 37.036 126.23 36.716 126.15 36.404C126.07 36.092 126.014 35.844 125.982 35.66H125.934C125.902 35.844 125.85 36.092 125.778 36.404C125.706 36.716 125.614 37.04 125.502 37.376L124.35 40.988H123.15L121.386 34.556H122.478L123.366 37.988C123.454 38.332 123.538 38.68 123.618 39.032C123.698 39.384 123.754 39.676 123.786 39.908H123.834C123.858 39.772 123.894 39.604 123.942 39.404C123.99 39.204 124.042 38.996 124.098 38.78C124.154 38.556 124.21 38.356 124.266 38.18L125.406 34.556H126.558L127.662 38.18C127.742 38.46 127.826 38.76 127.914 39.08C128.002 39.4 128.062 39.672 128.094 39.896H128.142C128.166 39.696 128.218 39.42 128.298 39.068C128.386 38.716 128.478 38.356 128.574 37.988L129.474 34.556H130.554L128.766 40.988H127.53ZM137.299 37.772C137.299 38.836 137.028 39.66 136.484 40.244C135.948 40.828 135.22 41.12 134.3 41.12C133.732 41.12 133.224 40.992 132.776 40.736C132.336 40.472 131.988 40.092 131.732 39.596C131.476 39.092 131.348 38.484 131.348 37.772C131.348 36.708 131.612 35.888 132.14 35.312C132.676 34.736 133.408 34.448 134.336 34.448C134.912 34.448 135.424 34.58 135.872 34.844C136.32 35.1 136.668 35.476 136.916 35.972C137.172 36.46 137.299 37.06 137.299 37.772ZM132.44 37.772C132.44 38.532 132.588 39.136 132.884 39.584C133.188 40.024 133.668 40.244 134.324 40.244C134.972 40.244 135.448 40.024 135.752 39.584C136.056 39.136 136.208 38.532 136.208 37.772C136.208 37.012 136.056 36.416 135.752 35.984C135.448 35.552 134.968 35.336 134.312 35.336C133.656 35.336 133.18 35.552 132.884 35.984C132.588 36.416 132.44 37.012 132.44 37.772ZM141.973 34.448C142.093 34.448 142.221 34.456 142.357 34.472C142.493 34.48 142.617 34.496 142.729 34.52L142.597 35.492C142.493 35.468 142.377 35.448 142.249 35.432C142.121 35.416 142.005 35.408 141.901 35.408C141.573 35.408 141.265 35.5 140.977 35.684C140.689 35.86 140.457 36.112 140.281 36.44C140.113 36.76 140.029 37.136 140.029 37.568V41H138.973V34.568H139.837L139.957 35.744H140.005C140.205 35.392 140.469 35.088 140.797 34.832C141.133 34.576 141.525 34.448 141.973 34.448ZM145.976 41.12C145.176 41.12 144.536 40.844 144.056 40.292C143.576 39.732 143.336 38.9 143.336 37.796C143.336 36.692 143.576 35.86 144.056 35.3C144.544 34.732 145.188 34.448 145.988 34.448C146.484 34.448 146.888 34.54 147.2 34.724C147.52 34.908 147.78 35.132 147.98 35.396H148.052C148.036 35.292 148.02 35.14 148.004 34.94C147.988 34.732 147.98 34.568 147.98 34.448V31.88H149.036V41H148.184L148.028 40.136H147.98C147.788 40.408 147.532 40.64 147.212 40.832C146.892 41.024 146.48 41.12 145.976 41.12ZM146.144 40.244C146.824 40.244 147.3 40.06 147.572 39.692C147.852 39.316 147.992 38.752 147.992 38V37.808C147.992 37.008 147.86 36.396 147.596 35.972C147.332 35.54 146.844 35.324 146.132 35.324C145.564 35.324 145.136 35.552 144.848 36.008C144.568 36.456 144.428 37.06 144.428 37.82C144.428 38.588 144.568 39.184 144.848 39.608C145.136 40.032 145.568 40.244 146.144 40.244ZM157.196 34.448C157.316 34.448 157.444 34.456 157.58 34.472C157.716 34.48 157.84 34.496 157.952 34.52L157.82 35.492C157.716 35.468 157.6 35.448 157.472 35.432C157.344 35.416 157.228 35.408 157.124 35.408C156.796 35.408 156.488 35.5 156.2 35.684C155.912 35.86 155.68 36.112 155.504 36.44C155.336 36.76 155.252 37.136 155.252 37.568V41H154.196V34.568H155.06L155.18 35.744H155.228C155.428 35.392 155.692 35.088 156.02 34.832C156.356 34.576 156.748 34.448 157.196 34.448ZM161.402 34.448C161.946 34.448 162.418 34.568 162.818 34.808C163.218 35.048 163.522 35.388 163.73 35.828C163.946 36.26 164.054 36.768 164.054 37.352V37.988H159.65C159.666 38.716 159.85 39.272 160.202 39.656C160.562 40.032 161.062 40.22 161.702 40.22C162.11 40.22 162.47 40.184 162.782 40.112C163.102 40.032 163.43 39.92 163.766 39.776V40.7C163.438 40.844 163.114 40.948 162.794 41.012C162.474 41.084 162.094 41.12 161.654 41.12C161.038 41.12 160.498 40.996 160.034 40.748C159.57 40.5 159.206 40.132 158.942 39.644C158.686 39.156 158.558 38.552 158.558 37.832C158.558 37.128 158.674 36.524 158.906 36.02C159.146 35.516 159.478 35.128 159.902 34.856C160.334 34.584 160.834 34.448 161.402 34.448ZM161.39 35.312C160.886 35.312 160.486 35.476 160.19 35.804C159.902 36.124 159.73 36.572 159.674 37.148H162.95C162.942 36.604 162.814 36.164 162.566 35.828C162.318 35.484 161.926 35.312 161.39 35.312ZM169.88 39.224C169.88 39.848 169.648 40.32 169.184 40.64C168.72 40.96 168.096 41.12 167.312 41.12C166.864 41.12 166.476 41.084 166.148 41.012C165.828 40.94 165.544 40.84 165.296 40.712V39.752C165.552 39.88 165.86 40 166.22 40.112C166.588 40.216 166.96 40.268 167.336 40.268C167.872 40.268 168.26 40.184 168.5 40.016C168.74 39.84 168.86 39.608 168.86 39.32C168.86 39.16 168.816 39.016 168.728 38.888C168.64 38.76 168.48 38.632 168.248 38.504C168.024 38.376 167.7 38.232 167.276 38.072C166.86 37.912 166.504 37.752 166.208 37.592C165.912 37.432 165.684 37.24 165.524 37.016C165.364 36.792 165.284 36.504 165.284 36.152C165.284 35.608 165.504 35.188 165.944 34.892C166.392 34.596 166.976 34.448 167.696 34.448C168.088 34.448 168.452 34.488 168.788 34.568C169.132 34.648 169.452 34.752 169.748 34.88L169.388 35.72C169.116 35.608 168.832 35.512 168.536 35.432C168.24 35.352 167.936 35.312 167.624 35.312C167.192 35.312 166.86 35.384 166.628 35.528C166.404 35.664 166.292 35.852 166.292 36.092C166.292 36.276 166.344 36.428 166.448 36.548C166.552 36.668 166.724 36.788 166.964 36.908C167.212 37.028 167.54 37.164 167.948 37.316C168.356 37.468 168.704 37.624 168.992 37.784C169.28 37.944 169.5 38.14 169.652 38.372C169.804 38.596 169.88 38.88 169.88 39.224ZM173.918 34.448C174.462 34.448 174.934 34.568 175.334 34.808C175.734 35.048 176.038 35.388 176.246 35.828C176.462 36.26 176.57 36.768 176.57 37.352V37.988H172.166C172.182 38.716 172.366 39.272 172.718 39.656C173.078 40.032 173.578 40.22 174.218 40.22C174.626 40.22 174.986 40.184 175.298 40.112C175.618 40.032 175.946 39.92 176.282 39.776V40.7C175.954 40.844 175.63 40.948 175.31 41.012C174.99 41.084 174.61 41.12 174.17 41.12C173.554 41.12 173.014 40.996 172.55 40.748C172.086 40.5 171.722 40.132 171.458 39.644C171.202 39.156 171.074 38.552 171.074 37.832C171.074 37.128 171.19 36.524 171.422 36.02C171.662 35.516 171.994 35.128 172.418 34.856C172.85 34.584 173.35 34.448 173.918 34.448ZM173.906 35.312C173.402 35.312 173.002 35.476 172.706 35.804C172.418 36.124 172.246 36.572 172.19 37.148H175.466C175.458 36.604 175.33 36.164 175.082 35.828C174.834 35.484 174.442 35.312 173.906 35.312ZM180.355 40.256C180.516 40.256 180.68 40.244 180.848 40.22C181.016 40.196 181.152 40.164 181.256 40.124V40.928C181.144 40.984 180.984 41.028 180.776 41.06C180.568 41.1 180.368 41.12 180.176 41.12C179.84 41.12 179.528 41.064 179.24 40.952C178.96 40.832 178.732 40.628 178.556 40.34C178.38 40.052 178.292 39.648 178.292 39.128V35.384H177.38V34.88L178.304 34.46L178.724 33.092H179.348V34.568H181.208V35.384H179.348V39.104C179.348 39.496 179.44 39.788 179.624 39.98C179.816 40.164 180.06 40.256 180.355 40.256ZM186.201 32.156C186.361 32.156 186.501 32.212 186.621 32.324C186.749 32.428 186.813 32.596 186.813 32.828C186.813 33.06 186.749 33.232 186.621 33.344C186.501 33.448 186.361 33.5 186.201 33.5C186.025 33.5 185.877 33.448 185.757 33.344C185.637 33.232 185.577 33.06 185.577 32.828C185.577 32.596 185.637 32.428 185.757 32.324C185.877 32.212 186.025 32.156 186.201 32.156ZM186.717 34.568V41H185.661V34.568H186.717ZM191.718 35.384H190.098V41H189.042V35.384H187.914V34.892L189.042 34.532V34.16C189.042 33.328 189.222 32.732 189.582 32.372C189.95 32.004 190.466 31.82 191.13 31.82C191.378 31.82 191.61 31.844 191.826 31.892C192.042 31.932 192.226 31.98 192.378 32.036L192.102 32.864C191.974 32.824 191.826 32.784 191.658 32.744C191.49 32.704 191.318 32.684 191.142 32.684C190.79 32.684 190.526 32.804 190.35 33.044C190.182 33.276 190.098 33.644 190.098 34.148V34.568H191.718V35.384ZM198.997 34.448C199.117 34.448 199.245 34.456 199.381 34.472C199.517 34.48 199.641 34.496 199.753 34.52L199.621 35.492C199.517 35.468 199.401 35.448 199.273 35.432C199.145 35.416 199.029 35.408 198.925 35.408C198.597 35.408 198.289 35.5 198.001 35.684C197.713 35.86 197.481 36.112 197.305 36.44C197.137 36.76 197.053 37.136 197.053 37.568V41H195.997V34.568H196.861L196.981 35.744H197.029C197.229 35.392 197.493 35.088 197.821 34.832C198.157 34.576 198.549 34.448 198.997 34.448ZM203.203 34.448C203.747 34.448 204.219 34.568 204.619 34.808C205.019 35.048 205.323 35.388 205.531 35.828C205.747 36.26 205.855 36.768 205.855 37.352V37.988H201.451C201.467 38.716 201.651 39.272 202.003 39.656C202.363 40.032 202.863 40.22 203.503 40.22C203.911 40.22 204.271 40.184 204.583 40.112C204.903 40.032 205.231 39.92 205.567 39.776V40.7C205.239 40.844 204.915 40.948 204.595 41.012C204.275 41.084 203.895 41.12 203.455 41.12C202.839 41.12 202.299 40.996 201.835 40.748C201.371 40.5 201.007 40.132 200.743 39.644C200.487 39.156 200.359 38.552 200.359 37.832C200.359 37.128 200.475 36.524 200.707 36.02C200.947 35.516 201.279 35.128 201.703 34.856C202.135 34.584 202.635 34.448 203.203 34.448ZM203.191 35.312C202.687 35.312 202.287 35.476 201.991 35.804C201.703 36.124 201.531 36.572 201.475 37.148H204.751C204.743 36.604 204.615 36.164 204.367 35.828C204.119 35.484 203.727 35.312 203.191 35.312ZM211.777 43.88V41.132C211.777 40.988 211.781 40.82 211.789 40.628C211.797 40.436 211.813 40.272 211.837 40.136H211.765C211.581 40.408 211.325 40.64 210.997 40.832C210.677 41.024 210.261 41.12 209.749 41.12C208.973 41.12 208.341 40.844 207.853 40.292C207.373 39.732 207.133 38.9 207.133 37.796C207.133 36.692 207.377 35.86 207.865 35.3C208.361 34.732 209.001 34.448 209.785 34.448C210.289 34.448 210.701 34.544 211.021 34.736C211.341 34.928 211.597 35.164 211.789 35.444H211.837L211.993 34.568H212.833V43.88H211.777ZM209.953 40.244C210.609 40.244 211.077 40.064 211.357 39.704C211.637 39.336 211.781 38.776 211.789 38.024V37.808C211.789 36.992 211.653 36.376 211.381 35.96C211.109 35.536 210.625 35.324 209.929 35.324C209.353 35.324 208.925 35.552 208.645 36.008C208.365 36.456 208.225 37.06 208.225 37.82C208.225 38.58 208.365 39.176 208.645 39.608C208.925 40.032 209.361 40.244 209.953 40.244ZM220.251 34.568V41H219.387L219.231 40.148H219.183C218.975 40.484 218.687 40.732 218.319 40.892C217.951 41.044 217.559 41.12 217.143 41.12C216.367 41.12 215.783 40.936 215.391 40.568C214.999 40.192 214.803 39.596 214.803 38.78V34.568H215.871V38.708C215.871 39.732 216.347 40.244 217.299 40.244C218.011 40.244 218.503 40.044 218.775 39.644C219.055 39.244 219.195 38.668 219.195 37.916V34.568H220.251ZM222.833 32.156C222.993 32.156 223.133 32.212 223.253 32.324C223.381 32.428 223.445 32.596 223.445 32.828C223.445 33.06 223.381 33.232 223.253 33.344C223.133 33.448 222.993 33.5 222.833 33.5C222.657 33.5 222.509 33.448 222.389 33.344C222.269 33.232 222.209 33.06 222.209 32.828C222.209 32.596 222.269 32.428 222.389 32.324C222.509 32.212 222.657 32.156 222.833 32.156ZM223.349 34.568V41H222.293V34.568H223.349ZM228.387 34.448C228.507 34.448 228.635 34.456 228.771 34.472C228.907 34.48 229.031 34.496 229.143 34.52L229.011 35.492C228.907 35.468 228.791 35.448 228.663 35.432C228.535 35.416 228.419 35.408 228.315 35.408C227.987 35.408 227.679 35.5 227.391 35.684C227.103 35.86 226.871 36.112 226.695 36.44C226.527 36.76 226.443 37.136 226.443 37.568V41H225.387V34.568H226.251L226.371 35.744H226.419C226.619 35.392 226.883 35.088 227.211 34.832C227.547 34.576 227.939 34.448 228.387 34.448ZM232.594 34.448C233.138 34.448 233.61 34.568 234.01 34.808C234.41 35.048 234.714 35.388 234.922 35.828C235.138 36.26 235.246 36.768 235.246 37.352V37.988H230.842C230.858 38.716 231.042 39.272 231.394 39.656C231.754 40.032 232.254 40.22 232.894 40.22C233.302 40.22 233.662 40.184 233.974 40.112C234.294 40.032 234.622 39.92 234.958 39.776V40.7C234.63 40.844 234.306 40.948 233.986 41.012C233.666 41.084 233.286 41.12 232.846 41.12C232.23 41.12 231.69 40.996 231.226 40.748C230.762 40.5 230.398 40.132 230.134 39.644C229.878 39.156 229.75 38.552 229.75 37.832C229.75 37.128 229.866 36.524 230.098 36.02C230.338 35.516 230.67 35.128 231.094 34.856C231.526 34.584 232.026 34.448 232.594 34.448ZM232.582 35.312C232.078 35.312 231.678 35.476 231.382 35.804C231.094 36.124 230.922 36.572 230.866 37.148H234.142C234.134 36.604 234.006 36.164 233.758 35.828C233.51 35.484 233.118 35.312 232.582 35.312ZM239.163 41.12C238.363 41.12 237.723 40.844 237.243 40.292C236.763 39.732 236.523 38.9 236.523 37.796C236.523 36.692 236.763 35.86 237.243 35.3C237.731 34.732 238.375 34.448 239.175 34.448C239.671 34.448 240.075 34.54 240.387 34.724C240.707 34.908 240.967 35.132 241.167 35.396H241.239C241.223 35.292 241.207 35.14 241.191 34.94C241.175 34.732 241.167 34.568 241.167 34.448V31.88H242.223V41H241.371L241.215 40.136H241.167C240.975 40.408 240.719 40.64 240.399 40.832C240.079 41.024 239.667 41.12 239.163 41.12ZM239.331 40.244C240.011 40.244 240.487 40.06 240.759 39.692C241.039 39.316 241.179 38.752 241.179 38V37.808C241.179 37.008 241.047 36.396 240.783 35.972C240.519 35.54 240.031 35.324 239.319 35.324C238.751 35.324 238.323 35.552 238.035 36.008C237.755 36.456 237.615 37.06 237.615 37.82C237.615 38.588 237.755 39.184 238.035 39.608C238.323 40.032 238.755 40.244 239.331 40.244ZM244.11 40.352C244.11 40.056 244.182 39.848 244.326 39.728C244.47 39.608 244.642 39.548 244.842 39.548C245.042 39.548 245.218 39.608 245.37 39.728C245.522 39.848 245.598 40.056 245.598 40.352C245.598 40.64 245.522 40.848 245.37 40.976C245.218 41.104 245.042 41.168 244.842 41.168C244.642 41.168 244.47 41.104 244.326 40.976C244.182 40.848 244.11 40.64 244.11 40.352Z" fill="black"/>
<rect x="0.5" y="20.5" width="298" height="31" rx="1.5" stroke="#939393"/>
</svg>
