<svg width="412" height="200" viewBox="0 0 412 200" fill="none" xmlns="http://www.w3.org/2000/svg">
<rect width="412" height="200" fill="white"/>
<path d="M53.576 75H50.48V74.376L51.488 74.148V67.296L50.48 67.056V66.432H53.576V67.056L52.568 67.296V74.148L53.576 74.376V75ZM57.4984 66.432C58.6184 66.432 59.4344 66.652 59.9464 67.092C60.4584 67.532 60.7144 68.152 60.7144 68.952C60.7144 69.424 60.6064 69.868 60.3904 70.284C60.1824 70.692 59.8264 71.024 59.3224 71.28C58.8264 71.536 58.1504 71.664 57.2944 71.664H56.3104V75H55.2304V66.432H57.4984ZM57.4024 67.356H56.3104V70.74H57.1744C57.9904 70.74 58.5984 70.608 58.9984 70.344C59.3984 70.08 59.5984 69.632 59.5984 69C59.5984 68.448 59.4184 68.036 59.0584 67.764C58.7064 67.492 58.1544 67.356 57.4024 67.356ZM70.9892 75L69.9572 72.348H66.5612L65.5412 75H64.4492L67.7972 66.396H68.7692L72.1052 75H70.9892ZM69.6332 71.388L68.6732 68.796C68.6492 68.732 68.6092 68.616 68.5532 68.448C68.4972 68.28 68.4412 68.108 68.3852 67.932C68.3372 67.748 68.2972 67.608 68.2652 67.512C68.2012 67.76 68.1332 68.004 68.0612 68.244C67.9972 68.476 67.9412 68.66 67.8932 68.796L66.9212 71.388H69.6332ZM75.4133 75.12C74.6133 75.12 73.9733 74.844 73.4933 74.292C73.0133 73.732 72.7733 72.9 72.7733 71.796C72.7733 70.692 73.0133 69.86 73.4933 69.3C73.9813 68.732 74.6253 68.448 75.4253 68.448C75.9213 68.448 76.3253 68.54 76.6373 68.724C76.9573 68.908 77.2173 69.132 77.4173 69.396H77.4893C77.4733 69.292 77.4573 69.14 77.4413 68.94C77.4253 68.732 77.4173 68.568 77.4173 68.448V65.88H78.4733V75H77.6213L77.4653 74.136H77.4173C77.2253 74.408 76.9693 74.64 76.6493 74.832C76.3293 75.024 75.9173 75.12 75.4133 75.12ZM75.5813 74.244C76.2613 74.244 76.7373 74.06 77.0093 73.692C77.2893 73.316 77.4293 72.752 77.4293 72V71.808C77.4293 71.008 77.2973 70.396 77.0333 69.972C76.7693 69.54 76.2813 69.324 75.5693 69.324C75.0013 69.324 74.5733 69.552 74.2853 70.008C74.0053 70.456 73.8653 71.06 73.8653 71.82C73.8653 72.588 74.0053 73.184 74.2853 73.608C74.5733 74.032 75.0053 74.244 75.5813 74.244ZM82.7961 75.12C81.9961 75.12 81.3561 74.844 80.8761 74.292C80.3961 73.732 80.1561 72.9 80.1561 71.796C80.1561 70.692 80.3961 69.86 80.8761 69.3C81.3641 68.732 82.0081 68.448 82.8081 68.448C83.3041 68.448 83.7081 68.54 84.0201 68.724C84.3401 68.908 84.6001 69.132 84.8001 69.396H84.8721C84.8561 69.292 84.8401 69.14 84.8241 68.94C84.8081 68.732 84.8001 68.568 84.8001 68.448V65.88H85.8561V75H85.0041L84.8481 74.136H84.8001C84.6081 74.408 84.3521 74.64 84.0321 74.832C83.7121 75.024 83.3001 75.12 82.7961 75.12ZM82.9641 74.244C83.6441 74.244 84.1201 74.06 84.3921 73.692C84.6721 73.316 84.8121 72.752 84.8121 72V71.808C84.8121 71.008 84.6801 70.396 84.4161 69.972C84.1521 69.54 83.6641 69.324 82.9521 69.324C82.3841 69.324 81.9561 69.552 81.6681 70.008C81.3881 70.456 81.2481 71.06 81.2481 71.82C81.2481 72.588 81.3881 73.184 81.6681 73.608C81.9561 74.032 82.3881 74.244 82.9641 74.244ZM90.8989 68.448C91.0189 68.448 91.1469 68.456 91.2829 68.472C91.4189 68.48 91.5429 68.496 91.6549 68.52L91.5229 69.492C91.4189 69.468 91.3029 69.448 91.1749 69.432C91.0469 69.416 90.9309 69.408 90.8269 69.408C90.4989 69.408 90.1909 69.5 89.9029 69.684C89.6149 69.86 89.3829 70.112 89.2069 70.44C89.0389 70.76 88.9549 71.136 88.9549 71.568V75H87.8989V68.568H88.7629L88.8829 69.744H88.9309C89.1309 69.392 89.3949 69.088 89.7229 68.832C90.0589 68.576 90.4509 68.448 90.8989 68.448ZM95.1056 68.448C95.6496 68.448 96.1216 68.568 96.5216 68.808C96.9216 69.048 97.2256 69.388 97.4336 69.828C97.6496 70.26 97.7576 70.768 97.7576 71.352V71.988H93.3536C93.3696 72.716 93.5536 73.272 93.9056 73.656C94.2656 74.032 94.7656 74.22 95.4056 74.22C95.8136 74.22 96.1736 74.184 96.4856 74.112C96.8056 74.032 97.1336 73.92 97.4696 73.776V74.7C97.1416 74.844 96.8176 74.948 96.4976 75.012C96.1776 75.084 95.7976 75.12 95.3576 75.12C94.7416 75.12 94.2016 74.996 93.7376 74.748C93.2736 74.5 92.9096 74.132 92.6456 73.644C92.3896 73.156 92.2616 72.552 92.2616 71.832C92.2616 71.128 92.3776 70.524 92.6096 70.02C92.8496 69.516 93.1816 69.128 93.6056 68.856C94.0376 68.584 94.5376 68.448 95.1056 68.448ZM95.0936 69.312C94.5896 69.312 94.1896 69.476 93.8936 69.804C93.6056 70.124 93.4336 70.572 93.3776 71.148H96.6536C96.6456 70.604 96.5176 70.164 96.2696 69.828C96.0216 69.484 95.6296 69.312 95.0936 69.312ZM103.583 73.224C103.583 73.848 103.351 74.32 102.887 74.64C102.423 74.96 101.799 75.12 101.015 75.12C100.567 75.12 100.179 75.084 99.851 75.012C99.531 74.94 99.247 74.84 98.999 74.712V73.752C99.255 73.88 99.563 74 99.923 74.112C100.291 74.216 100.663 74.268 101.039 74.268C101.575 74.268 101.963 74.184 102.203 74.016C102.443 73.84 102.563 73.608 102.563 73.32C102.563 73.16 102.519 73.016 102.431 72.888C102.343 72.76 102.183 72.632 101.951 72.504C101.727 72.376 101.403 72.232 100.979 72.072C100.563 71.912 100.207 71.752 99.911 71.592C99.615 71.432 99.387 71.24 99.227 71.016C99.067 70.792 98.987 70.504 98.987 70.152C98.987 69.608 99.207 69.188 99.647 68.892C100.095 68.596 100.679 68.448 101.399 68.448C101.791 68.448 102.155 68.488 102.491 68.568C102.835 68.648 103.155 68.752 103.451 68.88L103.091 69.72C102.819 69.608 102.535 69.512 102.239 69.432C101.943 69.352 101.639 69.312 101.327 69.312C100.895 69.312 100.563 69.384 100.331 69.528C100.107 69.664 99.995 69.852 99.995 70.092C99.995 70.276 100.047 70.428 100.151 70.548C100.255 70.668 100.427 70.788 100.667 70.908C100.915 71.028 101.243 71.164 101.651 71.316C102.059 71.468 102.407 71.624 102.695 71.784C102.983 71.944 103.203 72.14 103.355 72.372C103.507 72.596 103.583 72.88 103.583 73.224ZM109.325 73.224C109.325 73.848 109.093 74.32 108.629 74.64C108.165 74.96 107.541 75.12 106.757 75.12C106.309 75.12 105.921 75.084 105.593 75.012C105.273 74.94 104.989 74.84 104.741 74.712V73.752C104.997 73.88 105.305 74 105.665 74.112C106.033 74.216 106.405 74.268 106.781 74.268C107.317 74.268 107.705 74.184 107.945 74.016C108.185 73.84 108.305 73.608 108.305 73.32C108.305 73.16 108.261 73.016 108.173 72.888C108.085 72.76 107.925 72.632 107.693 72.504C107.469 72.376 107.145 72.232 106.721 72.072C106.305 71.912 105.949 71.752 105.653 71.592C105.357 71.432 105.129 71.24 104.969 71.016C104.809 70.792 104.729 70.504 104.729 70.152C104.729 69.608 104.949 69.188 105.389 68.892C105.837 68.596 106.421 68.448 107.141 68.448C107.533 68.448 107.897 68.488 108.233 68.568C108.577 68.648 108.897 68.752 109.193 68.88L108.833 69.72C108.561 69.608 108.277 69.512 107.981 69.432C107.685 69.352 107.381 69.312 107.069 69.312C106.637 69.312 106.305 69.384 106.073 69.528C105.849 69.664 105.737 69.852 105.737 70.092C105.737 70.276 105.789 70.428 105.893 70.548C105.997 70.668 106.169 70.788 106.409 70.908C106.657 71.028 106.985 71.164 107.393 71.316C107.801 71.468 108.149 71.624 108.437 71.784C108.725 71.944 108.945 72.14 109.097 72.372C109.249 72.596 109.325 72.88 109.325 73.224Z" fill="#323232"/>
<rect x="50.5" y="82.5" width="311" height="35" rx="1.5" fill="white"/>
<rect x="50.5" y="82.5" width="311" height="35" rx="1.5" stroke="#939393"/>
<path d="M55.952 135H51.164V126.432H55.952V127.38H52.244V130.056H55.736V130.992H52.244V134.052H55.952V135ZM59.212 131.712L56.992 128.568H58.192L59.848 130.992L61.492 128.568H62.68L60.46 131.712L62.8 135H61.6L59.848 132.432L58.072 135H56.884L59.212 131.712ZM66.4755 128.46C67.2595 128.46 67.8395 128.632 68.2155 128.976C68.5915 129.32 68.7795 129.868 68.7795 130.62V135H68.0115L67.8075 134.088H67.7595C67.4795 134.44 67.1835 134.7 66.8715 134.868C66.5595 135.036 66.1355 135.12 65.5995 135.12C65.0155 135.12 64.5315 134.968 64.1475 134.664C63.7635 134.352 63.5715 133.868 63.5715 133.212C63.5715 132.572 63.8235 132.08 64.3275 131.736C64.8315 131.384 65.6075 131.192 66.6555 131.16L67.7475 131.124V130.74C67.7475 130.204 67.6315 129.832 67.3995 129.624C67.1675 129.416 66.8395 129.312 66.4155 129.312C66.0795 129.312 65.7595 129.364 65.4555 129.468C65.1515 129.564 64.8675 129.676 64.6035 129.804L64.2795 129.012C64.5595 128.86 64.8915 128.732 65.2755 128.628C65.6595 128.516 66.0595 128.46 66.4755 128.46ZM67.7355 131.856L66.7875 131.892C65.9875 131.924 65.4315 132.052 65.1195 132.276C64.8155 132.5 64.6635 132.816 64.6635 133.224C64.6635 133.584 64.7715 133.848 64.9875 134.016C65.2115 134.184 65.4955 134.268 65.8395 134.268C66.3755 134.268 66.8235 134.12 67.1835 133.824C67.5515 133.52 67.7355 133.056 67.7355 132.432V131.856ZM77.8221 128.448C78.5501 128.448 79.0941 128.636 79.4541 129.012C79.8141 129.388 79.9941 129.988 79.9941 130.812V135H78.9501V130.86C78.9501 129.844 78.5141 129.336 77.6421 129.336C77.0181 129.336 76.5701 129.516 76.2981 129.876C76.0341 130.236 75.9021 130.76 75.9021 131.448V135H74.8581V130.86C74.8581 129.844 74.4181 129.336 73.5381 129.336C72.8901 129.336 72.4421 129.536 72.1941 129.936C71.9461 130.336 71.8221 130.912 71.8221 131.664V135H70.7661V128.568H71.6181L71.7741 129.444H71.8341C72.0341 129.108 72.3021 128.86 72.6381 128.7C72.9821 128.532 73.3461 128.448 73.7301 128.448C74.7381 128.448 75.3941 128.808 75.6981 129.528H75.7581C75.9741 129.16 76.2661 128.888 76.6341 128.712C77.0021 128.536 77.3981 128.448 77.8221 128.448ZM85.0409 128.448C85.8329 128.448 86.4689 128.724 86.9489 129.276C87.4369 129.828 87.6809 130.66 87.6809 131.772C87.6809 132.868 87.4369 133.7 86.9489 134.268C86.4689 134.836 85.8289 135.12 85.0289 135.12C84.5329 135.12 84.1209 135.028 83.7929 134.844C83.4729 134.66 83.2209 134.44 83.0369 134.184H82.9649C82.9729 134.32 82.9849 134.492 83.0009 134.7C83.0249 134.908 83.0369 135.088 83.0369 135.24V137.88H81.9809V128.568H82.8449L82.9889 129.444H83.0369C83.2289 129.164 83.4809 128.928 83.7929 128.736C84.1049 128.544 84.5209 128.448 85.0409 128.448ZM84.8489 129.336C84.1929 129.336 83.7289 129.52 83.4569 129.888C83.1849 130.256 83.0449 130.816 83.0369 131.568V131.772C83.0369 132.564 83.1649 133.176 83.4209 133.608C83.6849 134.032 84.1689 134.244 84.8729 134.244C85.2569 134.244 85.5769 134.14 85.8329 133.932C86.0889 133.716 86.2769 133.42 86.3969 133.044C86.5249 132.668 86.5889 132.24 86.5889 131.76C86.5889 131.024 86.4449 130.436 86.1569 129.996C85.8769 129.556 85.4409 129.336 84.8489 129.336ZM90.4198 135H89.3638V125.88H90.4198V135ZM94.9415 128.448C95.4855 128.448 95.9575 128.568 96.3575 128.808C96.7575 129.048 97.0615 129.388 97.2695 129.828C97.4855 130.26 97.5935 130.768 97.5935 131.352V131.988H93.1895C93.2055 132.716 93.3895 133.272 93.7415 133.656C94.1015 134.032 94.6015 134.22 95.2415 134.22C95.6495 134.22 96.0095 134.184 96.3215 134.112C96.6415 134.032 96.9695 133.92 97.3055 133.776V134.7C96.9775 134.844 96.6535 134.948 96.3335 135.012C96.0135 135.084 95.6335 135.12 95.1935 135.12C94.5775 135.12 94.0375 134.996 93.5735 134.748C93.1095 134.5 92.7455 134.132 92.4815 133.644C92.2255 133.156 92.0975 132.552 92.0975 131.832C92.0975 131.128 92.2135 130.524 92.4455 130.02C92.6855 129.516 93.0175 129.128 93.4415 128.856C93.8735 128.584 94.3735 128.448 94.9415 128.448ZM94.9295 129.312C94.4255 129.312 94.0255 129.476 93.7295 129.804C93.4415 130.124 93.2695 130.572 93.2135 131.148H96.4895C96.4815 130.604 96.3535 130.164 96.1055 129.828C95.8575 129.484 95.4655 129.312 94.9295 129.312ZM99.0749 129.216C99.0749 128.912 99.1469 128.7 99.2909 128.58C99.4349 128.46 99.6069 128.4 99.8069 128.4C100.007 128.4 100.183 128.46 100.335 128.58C100.487 128.7 100.563 128.912 100.563 129.216C100.563 129.504 100.487 129.712 100.335 129.84C100.183 129.968 100.007 130.032 99.8069 130.032C99.6069 130.032 99.4349 129.968 99.2909 129.84C99.1469 129.712 99.0749 129.504 99.0749 129.216ZM99.0749 134.352C99.0749 134.056 99.1469 133.848 99.2909 133.728C99.4349 133.608 99.6069 133.548 99.8069 133.548C100.007 133.548 100.183 133.608 100.335 133.728C100.487 133.848 100.563 134.056 100.563 134.352C100.563 134.64 100.487 134.848 100.335 134.976C100.183 135.104 100.007 135.168 99.8069 135.168C99.6069 135.168 99.4349 135.104 99.2909 134.976C99.1469 134.848 99.0749 134.64 99.0749 134.352ZM108.799 135H107.767V129.012C107.767 128.668 107.771 128.392 107.779 128.184C107.787 127.976 107.799 127.76 107.815 127.536C107.687 127.664 107.567 127.772 107.455 127.86C107.351 127.948 107.223 128.06 107.071 128.196L106.159 128.94L105.607 128.232L107.923 126.432H108.799V135ZM117.646 130.092C117.646 130.708 117.59 131.316 117.478 131.916C117.374 132.508 117.178 133.048 116.89 133.536C116.61 134.016 116.21 134.4 115.69 134.688C115.178 134.976 114.518 135.12 113.71 135.12C113.55 135.12 113.362 135.108 113.146 135.084C112.93 135.068 112.758 135.04 112.63 135V134.1C112.942 134.204 113.294 134.256 113.686 134.256C114.246 134.256 114.706 134.164 115.066 133.98C115.434 133.796 115.726 133.548 115.942 133.236C116.158 132.916 116.314 132.548 116.41 132.132C116.506 131.708 116.562 131.264 116.578 130.8H116.506C116.322 131.072 116.066 131.308 115.738 131.508C115.41 131.7 114.986 131.796 114.466 131.796C113.73 131.796 113.134 131.572 112.678 131.124C112.23 130.668 112.006 130.028 112.006 129.204C112.006 128.604 112.118 128.088 112.342 127.656C112.566 127.224 112.882 126.892 113.29 126.66C113.706 126.428 114.19 126.312 114.742 126.312C115.286 126.312 115.778 126.452 116.218 126.732C116.658 127.004 117.006 127.42 117.262 127.98C117.518 128.532 117.646 129.236 117.646 130.092ZM114.742 127.2C114.246 127.2 113.838 127.364 113.518 127.692C113.206 128.02 113.05 128.52 113.05 129.192C113.05 129.744 113.182 130.18 113.446 130.5C113.718 130.812 114.134 130.968 114.694 130.968C115.078 130.968 115.41 130.892 115.69 130.74C115.97 130.58 116.186 130.38 116.338 130.14C116.498 129.9 116.578 129.652 116.578 129.396C116.578 129.052 116.51 128.712 116.374 128.376C116.238 128.04 116.034 127.76 115.762 127.536C115.49 127.312 115.15 127.2 114.742 127.2ZM124.513 135H118.849V134.124L121.093 131.856C121.517 131.424 121.877 131.04 122.173 130.704C122.477 130.368 122.705 130.04 122.857 129.72C123.009 129.4 123.085 129.044 123.085 128.652C123.085 128.18 122.945 127.824 122.665 127.584C122.385 127.336 122.021 127.212 121.573 127.212C121.149 127.212 120.781 127.284 120.469 127.428C120.157 127.572 119.837 127.772 119.509 128.028L118.945 127.32C119.281 127.04 119.665 126.804 120.097 126.612C120.537 126.412 121.029 126.312 121.573 126.312C122.373 126.312 123.005 126.516 123.469 126.924C123.933 127.332 124.165 127.888 124.165 128.592C124.165 129.04 124.073 129.46 123.889 129.852C123.705 130.244 123.449 130.632 123.121 131.016C122.793 131.4 122.409 131.804 121.969 132.228L120.181 133.992V134.04H124.513V135ZM126.005 134.352C126.005 134.056 126.077 133.848 126.221 133.728C126.365 133.608 126.537 133.548 126.737 133.548C126.937 133.548 127.113 133.608 127.265 133.728C127.417 133.848 127.493 134.056 127.493 134.352C127.493 134.64 127.417 134.848 127.265 134.976C127.113 135.104 126.937 135.168 126.737 135.168C126.537 135.168 126.365 135.104 126.221 134.976C126.077 134.848 126.005 134.64 126.005 134.352ZM134.628 130.704C134.628 131.632 134.532 132.424 134.34 133.08C134.148 133.736 133.84 134.24 133.416 134.592C133 134.944 132.452 135.12 131.772 135.12C130.804 135.12 130.088 134.732 129.624 133.956C129.168 133.172 128.94 132.088 128.94 130.704C128.94 129.776 129.032 128.984 129.216 128.328C129.408 127.672 129.712 127.172 130.128 126.828C130.544 126.476 131.092 126.3 131.772 126.3C132.732 126.3 133.448 126.688 133.92 127.464C134.392 128.232 134.628 129.312 134.628 130.704ZM129.996 130.704C129.996 131.88 130.128 132.76 130.392 133.344C130.664 133.928 131.124 134.22 131.772 134.22C132.412 134.22 132.868 133.932 133.14 133.356C133.42 132.772 133.56 131.888 133.56 130.704C133.56 129.536 133.42 128.66 133.14 128.076C132.868 127.492 132.412 127.2 131.772 127.2C131.124 127.2 130.664 127.492 130.392 128.076C130.128 128.66 129.996 129.536 129.996 130.704ZM136.083 134.352C136.083 134.056 136.155 133.848 136.299 133.728C136.443 133.608 136.615 133.548 136.815 133.548C137.015 133.548 137.191 133.608 137.343 133.728C137.495 133.848 137.571 134.056 137.571 134.352C137.571 134.64 137.495 134.848 137.343 134.976C137.191 135.104 137.015 135.168 136.815 135.168C136.615 135.168 136.443 135.104 136.299 134.976C136.155 134.848 136.083 134.64 136.083 134.352ZM144.67 135H139.006V134.124L141.25 131.856C141.674 131.424 142.034 131.04 142.33 130.704C142.634 130.368 142.862 130.04 143.014 129.72C143.166 129.4 143.242 129.044 143.242 128.652C143.242 128.18 143.102 127.824 142.822 127.584C142.542 127.336 142.178 127.212 141.73 127.212C141.306 127.212 140.938 127.284 140.626 127.428C140.314 127.572 139.994 127.772 139.666 128.028L139.102 127.32C139.438 127.04 139.822 126.804 140.254 126.612C140.694 126.412 141.186 126.312 141.73 126.312C142.53 126.312 143.162 126.516 143.626 126.924C144.09 127.332 144.322 127.888 144.322 128.592C144.322 129.04 144.23 129.46 144.046 129.852C143.862 130.244 143.606 130.632 143.278 131.016C142.95 131.4 142.566 131.804 142.126 132.228L140.338 133.992V134.04H144.67V135ZM146.161 134.352C146.161 134.056 146.233 133.848 146.377 133.728C146.521 133.608 146.693 133.548 146.893 133.548C147.093 133.548 147.269 133.608 147.421 133.728C147.573 133.848 147.649 134.056 147.649 134.352C147.649 134.64 147.573 134.848 147.421 134.976C147.269 135.104 147.093 135.168 146.893 135.168C146.693 135.168 146.521 135.104 146.377 134.976C146.233 134.848 146.161 134.64 146.161 134.352ZM152.768 135H151.736V129.012C151.736 128.668 151.74 128.392 151.748 128.184C151.756 127.976 151.768 127.76 151.784 127.536C151.656 127.664 151.536 127.772 151.424 127.86C151.32 127.948 151.192 128.06 151.04 128.196L150.128 128.94L149.576 128.232L151.892 126.432H152.768V135Z" fill="#5E5E5E"/>
</svg>
