<svg width="412" height="304" viewBox="0 0 412 304" fill="none" xmlns="http://www.w3.org/2000/svg">
<rect width="412" height="304" fill="white"/>
<path d="M46.024 34.708C46.024 35.468 45.748 36.06 45.196 36.484C44.644 36.908 43.9 37.12 42.964 37.12C42.484 37.12 42.04 37.084 41.632 37.012C41.224 36.94 40.884 36.84 40.612 36.712V35.68C40.9 35.808 41.256 35.924 41.68 36.028C42.112 36.132 42.556 36.184 43.012 36.184C43.644 36.184 44.124 36.06 44.452 35.812C44.78 35.564 44.944 35.228 44.944 34.804C44.944 34.524 44.884 34.288 44.764 34.096C44.644 33.904 44.436 33.728 44.14 33.568C43.844 33.408 43.44 33.232 42.928 33.04C42.192 32.776 41.64 32.452 41.272 32.068C40.904 31.684 40.72 31.16 40.72 30.496C40.72 30.048 40.836 29.66 41.068 29.332C41.3 29.004 41.62 28.752 42.028 28.576C42.436 28.4 42.912 28.312 43.456 28.312C43.92 28.312 44.348 28.356 44.74 28.444C45.132 28.532 45.492 28.648 45.82 28.792L45.484 29.716C45.188 29.588 44.864 29.48 44.512 29.392C44.16 29.304 43.8 29.26 43.432 29.26C42.896 29.26 42.492 29.376 42.22 29.608C41.948 29.832 41.812 30.132 41.812 30.508C41.812 30.796 41.872 31.036 41.992 31.228C42.112 31.42 42.308 31.596 42.58 31.756C42.852 31.908 43.22 32.068 43.684 32.236C44.188 32.42 44.612 32.62 44.956 32.836C45.308 33.044 45.572 33.296 45.748 33.592C45.932 33.888 46.024 34.26 46.024 34.708ZM48.1459 28.156C48.3059 28.156 48.4459 28.212 48.5659 28.324C48.6939 28.428 48.7579 28.596 48.7579 28.828C48.7579 29.06 48.6939 29.232 48.5659 29.344C48.4459 29.448 48.3059 29.5 48.1459 29.5C47.9699 29.5 47.8219 29.448 47.7019 29.344C47.5819 29.232 47.5219 29.06 47.5219 28.828C47.5219 28.596 47.5819 28.428 47.7019 28.324C47.8219 28.212 47.9699 28.156 48.1459 28.156ZM48.6619 30.568V37H47.6059V30.568H48.6619ZM52.8477 36.256C53.0077 36.256 53.1717 36.244 53.3397 36.22C53.5077 36.196 53.6437 36.164 53.7477 36.124V36.928C53.6357 36.984 53.4757 37.028 53.2677 37.06C53.0597 37.1 52.8597 37.12 52.6677 37.12C52.3317 37.12 52.0197 37.064 51.7317 36.952C51.4517 36.832 51.2237 36.628 51.0477 36.34C50.8717 36.052 50.7837 35.648 50.7837 35.128V31.384H49.8717V30.88L50.7957 30.46L51.2157 29.092H51.8397V30.568H53.6997V31.384H51.8397V35.104C51.8397 35.496 51.9317 35.788 52.1157 35.98C52.3077 36.164 52.5517 36.256 52.8477 36.256ZM57.5196 30.448C58.0636 30.448 58.5356 30.568 58.9356 30.808C59.3356 31.048 59.6396 31.388 59.8476 31.828C60.0636 32.26 60.1716 32.768 60.1716 33.352V33.988H55.7676C55.7836 34.716 55.9676 35.272 56.3196 35.656C56.6796 36.032 57.1796 36.22 57.8196 36.22C58.2276 36.22 58.5876 36.184 58.8996 36.112C59.2196 36.032 59.5476 35.92 59.8836 35.776V36.7C59.5556 36.844 59.2316 36.948 58.9116 37.012C58.5916 37.084 58.2116 37.12 57.7716 37.12C57.1556 37.12 56.6156 36.996 56.1516 36.748C55.6876 36.5 55.3236 36.132 55.0596 35.644C54.8036 35.156 54.6756 34.552 54.6756 33.832C54.6756 33.128 54.7916 32.524 55.0236 32.02C55.2636 31.516 55.5956 31.128 56.0196 30.856C56.4516 30.584 56.9516 30.448 57.5196 30.448ZM57.5076 31.312C57.0036 31.312 56.6036 31.476 56.3076 31.804C56.0196 32.124 55.8476 32.572 55.7916 33.148H59.0676C59.0596 32.604 58.9316 32.164 58.6836 31.828C58.4356 31.484 58.0436 31.312 57.5076 31.312ZM71.8623 37H70.6023L66.0183 29.884H65.9703C65.9863 30.164 66.0063 30.512 66.0303 30.928C66.0543 31.344 66.0663 31.772 66.0663 32.212V37H65.0703V28.432H66.3183L70.8903 35.524H70.9383C70.9303 35.396 70.9183 35.204 70.9023 34.948C70.8943 34.692 70.8823 34.416 70.8663 34.12C70.8583 33.816 70.8543 33.532 70.8543 33.268V28.432H71.8623V37ZM76.4794 30.46C77.2634 30.46 77.8434 30.632 78.2194 30.976C78.5954 31.32 78.7834 31.868 78.7834 32.62V37H78.0154L77.8114 36.088H77.7634C77.4834 36.44 77.1874 36.7 76.8754 36.868C76.5634 37.036 76.1394 37.12 75.6034 37.12C75.0194 37.12 74.5354 36.968 74.1514 36.664C73.7674 36.352 73.5754 35.868 73.5754 35.212C73.5754 34.572 73.8274 34.08 74.3314 33.736C74.8354 33.384 75.6114 33.192 76.6594 33.16L77.7514 33.124V32.74C77.7514 32.204 77.6354 31.832 77.4034 31.624C77.1714 31.416 76.8434 31.312 76.4194 31.312C76.0834 31.312 75.7634 31.364 75.4594 31.468C75.1554 31.564 74.8714 31.676 74.6074 31.804L74.2834 31.012C74.5634 30.86 74.8954 30.732 75.2794 30.628C75.6634 30.516 76.0634 30.46 76.4794 30.46ZM77.7394 33.856L76.7914 33.892C75.9914 33.924 75.4354 34.052 75.1234 34.276C74.8194 34.5 74.6674 34.816 74.6674 35.224C74.6674 35.584 74.7754 35.848 74.9914 36.016C75.2154 36.184 75.4994 36.268 75.8434 36.268C76.3794 36.268 76.8274 36.12 77.1874 35.824C77.5554 35.52 77.7394 35.056 77.7394 34.432V33.856ZM87.826 30.448C88.554 30.448 89.098 30.636 89.458 31.012C89.818 31.388 89.998 31.988 89.998 32.812V37H88.954V32.86C88.954 31.844 88.518 31.336 87.646 31.336C87.022 31.336 86.574 31.516 86.302 31.876C86.038 32.236 85.906 32.76 85.906 33.448V37H84.862V32.86C84.862 31.844 84.422 31.336 83.542 31.336C82.894 31.336 82.446 31.536 82.198 31.936C81.95 32.336 81.826 32.912 81.826 33.664V37H80.77V30.568H81.622L81.778 31.444H81.838C82.038 31.108 82.306 30.86 82.642 30.7C82.986 30.532 83.35 30.448 83.734 30.448C84.742 30.448 85.398 30.808 85.702 31.528H85.762C85.978 31.16 86.27 30.888 86.638 30.712C87.006 30.536 87.402 30.448 87.826 30.448ZM94.4688 30.448C95.0128 30.448 95.4848 30.568 95.8848 30.808C96.2848 31.048 96.5888 31.388 96.7968 31.828C97.0128 32.26 97.1208 32.768 97.1208 33.352V33.988H92.7168C92.7328 34.716 92.9168 35.272 93.2688 35.656C93.6288 36.032 94.1288 36.22 94.7688 36.22C95.1768 36.22 95.5368 36.184 95.8488 36.112C96.1688 36.032 96.4968 35.92 96.8328 35.776V36.7C96.5048 36.844 96.1808 36.948 95.8608 37.012C95.5408 37.084 95.1608 37.12 94.7208 37.12C94.1048 37.12 93.5648 36.996 93.1008 36.748C92.6368 36.5 92.2728 36.132 92.0088 35.644C91.7528 35.156 91.6248 34.552 91.6248 33.832C91.6248 33.128 91.7408 32.524 91.9728 32.02C92.2128 31.516 92.5448 31.128 92.9688 30.856C93.4008 30.584 93.9008 30.448 94.4688 30.448ZM94.4568 31.312C93.9528 31.312 93.5528 31.476 93.2568 31.804C92.9688 32.124 92.7968 32.572 92.7408 33.148H96.0168C96.0088 32.604 95.8808 32.164 95.6328 31.828C95.3848 31.484 94.9928 31.312 94.4568 31.312Z" fill="#323232"/>
<rect x="40.5" y="44.5" width="331" height="31" rx="1.5" fill="white"/>
<path d="M58.024 62.708C58.024 63.468 57.748 64.06 57.196 64.484C56.644 64.908 55.9 65.12 54.964 65.12C54.484 65.12 54.04 65.084 53.632 65.012C53.224 64.94 52.884 64.84 52.612 64.712V63.68C52.9 63.808 53.256 63.924 53.68 64.028C54.112 64.132 54.556 64.184 55.012 64.184C55.644 64.184 56.124 64.06 56.452 63.812C56.78 63.564 56.944 63.228 56.944 62.804C56.944 62.524 56.884 62.288 56.764 62.096C56.644 61.904 56.436 61.728 56.14 61.568C55.844 61.408 55.44 61.232 54.928 61.04C54.192 60.776 53.64 60.452 53.272 60.068C52.904 59.684 52.72 59.16 52.72 58.496C52.72 58.048 52.836 57.66 53.068 57.332C53.3 57.004 53.62 56.752 54.028 56.576C54.436 56.4 54.912 56.312 55.456 56.312C55.92 56.312 56.348 56.356 56.74 56.444C57.132 56.532 57.492 56.648 57.82 56.792L57.484 57.716C57.188 57.588 56.864 57.48 56.512 57.392C56.16 57.304 55.8 57.26 55.432 57.26C54.896 57.26 54.492 57.376 54.22 57.608C53.948 57.832 53.812 58.132 53.812 58.508C53.812 58.796 53.872 59.036 53.992 59.228C54.112 59.42 54.308 59.596 54.58 59.756C54.852 59.908 55.22 60.068 55.684 60.236C56.188 60.42 56.612 60.62 56.956 60.836C57.308 61.044 57.572 61.296 57.748 61.592C57.932 61.888 58.024 62.26 58.024 62.708ZM60.1459 56.156C60.3059 56.156 60.4459 56.212 60.5659 56.324C60.6939 56.428 60.7579 56.596 60.7579 56.828C60.7579 57.06 60.6939 57.232 60.5659 57.344C60.4459 57.448 60.3059 57.5 60.1459 57.5C59.9699 57.5 59.8219 57.448 59.7019 57.344C59.5819 57.232 59.5219 57.06 59.5219 56.828C59.5219 56.596 59.5819 56.428 59.7019 56.324C59.8219 56.212 59.9699 56.156 60.1459 56.156ZM60.6619 58.568V65H59.6059V58.568H60.6619ZM64.8477 64.256C65.0077 64.256 65.1717 64.244 65.3397 64.22C65.5077 64.196 65.6437 64.164 65.7477 64.124V64.928C65.6357 64.984 65.4757 65.028 65.2677 65.06C65.0597 65.1 64.8597 65.12 64.6677 65.12C64.3317 65.12 64.0197 65.064 63.7317 64.952C63.4517 64.832 63.2237 64.628 63.0477 64.34C62.8717 64.052 62.7837 63.648 62.7837 63.128V59.384H61.8717V58.88L62.7957 58.46L63.2157 57.092H63.8397V58.568H65.6997V59.384H63.8397V63.104C63.8397 63.496 63.9317 63.788 64.1157 63.98C64.3077 64.164 64.5517 64.256 64.8477 64.256ZM69.5196 58.448C70.0636 58.448 70.5356 58.568 70.9356 58.808C71.3356 59.048 71.6396 59.388 71.8476 59.828C72.0636 60.26 72.1716 60.768 72.1716 61.352V61.988H67.7676C67.7836 62.716 67.9676 63.272 68.3196 63.656C68.6796 64.032 69.1796 64.22 69.8196 64.22C70.2276 64.22 70.5876 64.184 70.8996 64.112C71.2196 64.032 71.5476 63.92 71.8836 63.776V64.7C71.5556 64.844 71.2316 64.948 70.9116 65.012C70.5916 65.084 70.2116 65.12 69.7716 65.12C69.1556 65.12 68.6156 64.996 68.1516 64.748C67.6876 64.5 67.3236 64.132 67.0596 63.644C66.8036 63.156 66.6756 62.552 66.6756 61.832C66.6756 61.128 66.7916 60.524 67.0236 60.02C67.2636 59.516 67.5956 59.128 68.0196 58.856C68.4516 58.584 68.9516 58.448 69.5196 58.448ZM69.5076 59.312C69.0036 59.312 68.6036 59.476 68.3076 59.804C68.0196 60.124 67.8476 60.572 67.7916 61.148H71.0676C71.0596 60.604 70.9316 60.164 70.6836 59.828C70.4356 59.484 70.0436 59.312 69.5076 59.312ZM83.8623 65H82.6023L78.0183 57.884H77.9703C77.9863 58.164 78.0063 58.512 78.0303 58.928C78.0543 59.344 78.0663 59.772 78.0663 60.212V65H77.0703V56.432H78.3183L82.8903 63.524H82.9383C82.9303 63.396 82.9183 63.204 82.9023 62.948C82.8943 62.692 82.8823 62.416 82.8663 62.12C82.8583 61.816 82.8543 61.532 82.8543 61.268V56.432H83.8623V65ZM88.4794 58.46C89.2634 58.46 89.8434 58.632 90.2194 58.976C90.5954 59.32 90.7834 59.868 90.7834 60.62V65H90.0154L89.8114 64.088H89.7634C89.4834 64.44 89.1874 64.7 88.8754 64.868C88.5634 65.036 88.1394 65.12 87.6034 65.12C87.0194 65.12 86.5354 64.968 86.1514 64.664C85.7674 64.352 85.5754 63.868 85.5754 63.212C85.5754 62.572 85.8274 62.08 86.3314 61.736C86.8354 61.384 87.6114 61.192 88.6594 61.16L89.7514 61.124V60.74C89.7514 60.204 89.6354 59.832 89.4034 59.624C89.1714 59.416 88.8434 59.312 88.4194 59.312C88.0834 59.312 87.7634 59.364 87.4594 59.468C87.1554 59.564 86.8714 59.676 86.6074 59.804L86.2834 59.012C86.5634 58.86 86.8954 58.732 87.2794 58.628C87.6634 58.516 88.0634 58.46 88.4794 58.46ZM89.7394 61.856L88.7914 61.892C87.9914 61.924 87.4354 62.052 87.1234 62.276C86.8194 62.5 86.6674 62.816 86.6674 63.224C86.6674 63.584 86.7754 63.848 86.9914 64.016C87.2154 64.184 87.4994 64.268 87.8434 64.268C88.3794 64.268 88.8274 64.12 89.1874 63.824C89.5554 63.52 89.7394 63.056 89.7394 62.432V61.856ZM99.826 58.448C100.554 58.448 101.098 58.636 101.458 59.012C101.818 59.388 101.998 59.988 101.998 60.812V65H100.954V60.86C100.954 59.844 100.518 59.336 99.646 59.336C99.022 59.336 98.574 59.516 98.302 59.876C98.038 60.236 97.906 60.76 97.906 61.448V65H96.862V60.86C96.862 59.844 96.422 59.336 95.542 59.336C94.894 59.336 94.446 59.536 94.198 59.936C93.95 60.336 93.826 60.912 93.826 61.664V65H92.77V58.568H93.622L93.778 59.444H93.838C94.038 59.108 94.306 58.86 94.642 58.7C94.986 58.532 95.35 58.448 95.734 58.448C96.742 58.448 97.398 58.808 97.702 59.528H97.762C97.978 59.16 98.27 58.888 98.638 58.712C99.006 58.536 99.402 58.448 99.826 58.448ZM106.469 58.448C107.013 58.448 107.485 58.568 107.885 58.808C108.285 59.048 108.589 59.388 108.797 59.828C109.013 60.26 109.121 60.768 109.121 61.352V61.988H104.717C104.733 62.716 104.917 63.272 105.269 63.656C105.629 64.032 106.129 64.22 106.769 64.22C107.177 64.22 107.537 64.184 107.849 64.112C108.169 64.032 108.497 63.92 108.833 63.776V64.7C108.505 64.844 108.181 64.948 107.861 65.012C107.541 65.084 107.161 65.12 106.721 65.12C106.105 65.12 105.565 64.996 105.101 64.748C104.637 64.5 104.273 64.132 104.009 63.644C103.753 63.156 103.625 62.552 103.625 61.832C103.625 61.128 103.741 60.524 103.973 60.02C104.213 59.516 104.545 59.128 104.969 58.856C105.401 58.584 105.901 58.448 106.469 58.448ZM106.457 59.312C105.953 59.312 105.553 59.476 105.257 59.804C104.969 60.124 104.797 60.572 104.741 61.148H108.017C108.009 60.604 107.881 60.164 107.633 59.828C107.385 59.484 106.993 59.312 106.457 59.312Z" fill="black"/>
<rect x="40.5" y="44.5" width="331" height="31" rx="1.5" stroke="#939393"/>
<path d="M46.024 102.708C46.024 103.468 45.748 104.06 45.196 104.484C44.644 104.908 43.9 105.12 42.964 105.12C42.484 105.12 42.04 105.084 41.632 105.012C41.224 104.94 40.884 104.84 40.612 104.712V103.68C40.9 103.808 41.256 103.924 41.68 104.028C42.112 104.132 42.556 104.184 43.012 104.184C43.644 104.184 44.124 104.06 44.452 103.812C44.78 103.564 44.944 103.228 44.944 102.804C44.944 102.524 44.884 102.288 44.764 102.096C44.644 101.904 44.436 101.728 44.14 101.568C43.844 101.408 43.44 101.232 42.928 101.04C42.192 100.776 41.64 100.452 41.272 100.068C40.904 99.684 40.72 99.16 40.72 98.496C40.72 98.048 40.836 97.66 41.068 97.332C41.3 97.004 41.62 96.752 42.028 96.576C42.436 96.4 42.912 96.312 43.456 96.312C43.92 96.312 44.348 96.356 44.74 96.444C45.132 96.532 45.492 96.648 45.82 96.792L45.484 97.716C45.188 97.588 44.864 97.48 44.512 97.392C44.16 97.304 43.8 97.26 43.432 97.26C42.896 97.26 42.492 97.376 42.22 97.608C41.948 97.832 41.812 98.132 41.812 98.508C41.812 98.796 41.872 99.036 41.992 99.228C42.112 99.42 42.308 99.596 42.58 99.756C42.852 99.908 43.22 100.068 43.684 100.236C44.188 100.42 44.612 100.62 44.956 100.836C45.308 101.044 45.572 101.296 45.748 101.592C45.932 101.888 46.024 102.26 46.024 102.708ZM48.1459 96.156C48.3059 96.156 48.4459 96.212 48.5659 96.324C48.6939 96.428 48.7579 96.596 48.7579 96.828C48.7579 97.06 48.6939 97.232 48.5659 97.344C48.4459 97.448 48.3059 97.5 48.1459 97.5C47.9699 97.5 47.8219 97.448 47.7019 97.344C47.5819 97.232 47.5219 97.06 47.5219 96.828C47.5219 96.596 47.5819 96.428 47.7019 96.324C47.8219 96.212 47.9699 96.156 48.1459 96.156ZM48.6619 98.568V105H47.6059V98.568H48.6619ZM52.8477 104.256C53.0077 104.256 53.1717 104.244 53.3397 104.22C53.5077 104.196 53.6437 104.164 53.7477 104.124V104.928C53.6357 104.984 53.4757 105.028 53.2677 105.06C53.0597 105.1 52.8597 105.12 52.6677 105.12C52.3317 105.12 52.0197 105.064 51.7317 104.952C51.4517 104.832 51.2237 104.628 51.0477 104.34C50.8717 104.052 50.7837 103.648 50.7837 103.128V99.384H49.8717V98.88L50.7957 98.46L51.2157 97.092H51.8397V98.568H53.6997V99.384H51.8397V103.104C51.8397 103.496 51.9317 103.788 52.1157 103.98C52.3077 104.164 52.5517 104.256 52.8477 104.256ZM57.5196 98.448C58.0636 98.448 58.5356 98.568 58.9356 98.808C59.3356 99.048 59.6396 99.388 59.8476 99.828C60.0636 100.26 60.1716 100.768 60.1716 101.352V101.988H55.7676C55.7836 102.716 55.9676 103.272 56.3196 103.656C56.6796 104.032 57.1796 104.22 57.8196 104.22C58.2276 104.22 58.5876 104.184 58.8996 104.112C59.2196 104.032 59.5476 103.92 59.8836 103.776V104.7C59.5556 104.844 59.2316 104.948 58.9116 105.012C58.5916 105.084 58.2116 105.12 57.7716 105.12C57.1556 105.12 56.6156 104.996 56.1516 104.748C55.6876 104.5 55.3236 104.132 55.0596 103.644C54.8036 103.156 54.6756 102.552 54.6756 101.832C54.6756 101.128 54.7916 100.524 55.0236 100.02C55.2636 99.516 55.5956 99.128 56.0196 98.856C56.4516 98.584 56.9516 98.448 57.5196 98.448ZM57.5076 99.312C57.0036 99.312 56.6036 99.476 56.3076 99.804C56.0196 100.124 55.8476 100.572 55.7916 101.148H59.0676C59.0596 100.604 58.9316 100.164 58.6836 99.828C58.4356 99.484 58.0436 99.312 57.5076 99.312ZM67.7823 105H66.7023V97.38H64.0263V96.432H70.4463V97.38H67.7823V105ZM70.3518 98.568H71.4798L72.8718 102.228C72.9918 102.556 73.0998 102.864 73.1958 103.152C73.2918 103.44 73.3638 103.716 73.4118 103.98H73.4598C73.5078 103.78 73.5838 103.52 73.6878 103.2C73.7918 102.872 73.8998 102.544 74.0118 102.216L75.3198 98.568H76.4598L73.6878 105.888C73.4558 106.496 73.1638 106.98 72.8118 107.34C72.4598 107.7 71.9718 107.88 71.3478 107.88C71.1558 107.88 70.9878 107.868 70.8438 107.844C70.6998 107.828 70.5758 107.808 70.4718 107.784V106.944C70.5598 106.96 70.6638 106.976 70.7838 106.992C70.9118 107.008 71.0438 107.016 71.1798 107.016C71.5478 107.016 71.8438 106.912 72.0678 106.704C72.2918 106.496 72.4718 106.22 72.6078 105.876L72.9438 105.024L70.3518 98.568ZM80.537 98.448C81.329 98.448 81.965 98.724 82.445 99.276C82.933 99.828 83.177 100.66 83.177 101.772C83.177 102.868 82.933 103.7 82.445 104.268C81.965 104.836 81.325 105.12 80.525 105.12C80.029 105.12 79.617 105.028 79.289 104.844C78.969 104.66 78.717 104.44 78.533 104.184H78.461C78.469 104.32 78.481 104.492 78.497 104.7C78.521 104.908 78.533 105.088 78.533 105.24V107.88H77.477V98.568H78.341L78.485 99.444H78.533C78.725 99.164 78.977 98.928 79.289 98.736C79.601 98.544 80.017 98.448 80.537 98.448ZM80.345 99.336C79.689 99.336 79.225 99.52 78.953 99.888C78.681 100.256 78.541 100.816 78.533 101.568V101.772C78.533 102.564 78.661 103.176 78.917 103.608C79.181 104.032 79.665 104.244 80.369 104.244C80.753 104.244 81.073 104.14 81.329 103.932C81.585 103.716 81.773 103.42 81.893 103.044C82.021 102.668 82.085 102.24 82.085 101.76C82.085 101.024 81.941 100.436 81.653 99.996C81.373 99.556 80.937 99.336 80.345 99.336ZM87.3438 98.448C87.8878 98.448 88.3598 98.568 88.7598 98.808C89.1598 99.048 89.4638 99.388 89.6718 99.828C89.8878 100.26 89.9958 100.768 89.9958 101.352V101.988H85.5918C85.6078 102.716 85.7918 103.272 86.1438 103.656C86.5038 104.032 87.0038 104.22 87.6438 104.22C88.0518 104.22 88.4118 104.184 88.7238 104.112C89.0438 104.032 89.3718 103.92 89.7078 103.776V104.7C89.3798 104.844 89.0558 104.948 88.7358 105.012C88.4158 105.084 88.0358 105.12 87.5958 105.12C86.9798 105.12 86.4398 104.996 85.9758 104.748C85.5118 104.5 85.1478 104.132 84.8838 103.644C84.6278 103.156 84.4998 102.552 84.4998 101.832C84.4998 101.128 84.6158 100.524 84.8478 100.02C85.0878 99.516 85.4198 99.128 85.8438 98.856C86.2758 98.584 86.7758 98.448 87.3438 98.448ZM87.3318 99.312C86.8278 99.312 86.4278 99.476 86.1318 99.804C85.8438 100.124 85.6718 100.572 85.6158 101.148H88.8918C88.8838 100.604 88.7558 100.164 88.5078 99.828C88.2598 99.484 87.8678 99.312 87.3318 99.312Z" fill="#323232"/>
<rect x="40.5" y="112.5" width="331" height="31" rx="1.5" fill="white"/>
<path d="M55.876 133H54.796V125.38H52.12V124.432H58.54V125.38H55.876V133ZM61.3282 126.448C61.8722 126.448 62.3442 126.568 62.7442 126.808C63.1442 127.048 63.4482 127.388 63.6562 127.828C63.8722 128.26 63.9802 128.768 63.9802 129.352V129.988H59.5762C59.5922 130.716 59.7762 131.272 60.1282 131.656C60.4882 132.032 60.9882 132.22 61.6282 132.22C62.0362 132.22 62.3962 132.184 62.7082 132.112C63.0282 132.032 63.3562 131.92 63.6922 131.776V132.7C63.3642 132.844 63.0402 132.948 62.7202 133.012C62.4002 133.084 62.0202 133.12 61.5802 133.12C60.9642 133.12 60.4242 132.996 59.9602 132.748C59.4962 132.5 59.1322 132.132 58.8682 131.644C58.6122 131.156 58.4842 130.552 58.4842 129.832C58.4842 129.128 58.6002 128.524 58.8322 128.02C59.0722 127.516 59.4042 127.128 59.8282 126.856C60.2602 126.584 60.7602 126.448 61.3282 126.448ZM61.3162 127.312C60.8122 127.312 60.4122 127.476 60.1162 127.804C59.8282 128.124 59.6562 128.572 59.6002 129.148H62.8762C62.8682 128.604 62.7402 128.164 62.4922 127.828C62.2442 127.484 61.8522 127.312 61.3162 127.312ZM66.9073 129.712L64.6873 126.568H65.8873L67.5433 128.992L69.1873 126.568H70.3753L68.1553 129.712L70.4953 133H69.2953L67.5433 130.432L65.7673 133H64.5793L66.9073 129.712ZM73.8828 132.256C74.0428 132.256 74.2068 132.244 74.3748 132.22C74.5428 132.196 74.6788 132.164 74.7828 132.124V132.928C74.6708 132.984 74.5108 133.028 74.3028 133.06C74.0948 133.1 73.8948 133.12 73.7028 133.12C73.3668 133.12 73.0548 133.064 72.7668 132.952C72.4868 132.832 72.2588 132.628 72.0828 132.34C71.9068 132.052 71.8188 131.648 71.8188 131.128V127.384H70.9068V126.88L71.8308 126.46L72.2508 125.092H72.8748V126.568H74.7348V127.384H72.8748V131.104C72.8748 131.496 72.9668 131.788 73.1508 131.98C73.3428 132.164 73.5868 132.256 73.8828 132.256Z" fill="black"/>
<path d="M352.012 131.362C351.912 131.362 351.812 131.312 351.762 131.262L346.113 125.662C345.962 125.512 345.962 125.262 346.113 125.112C346.263 124.963 346.512 124.963 346.662 125.112L352.012 130.462L357.312 125.112C357.462 124.963 357.713 124.963 357.863 125.112C358.012 125.262 358.012 125.512 357.863 125.662L352.262 131.262C352.162 131.312 352.112 131.362 352.012 131.362Z" fill="#323232"/>
<rect x="40.5" y="112.5" width="331" height="31" rx="1.5" stroke="#939393"/>
<path d="M46.024 174.708C46.024 175.468 45.748 176.06 45.196 176.484C44.644 176.908 43.9 177.12 42.964 177.12C42.484 177.12 42.04 177.084 41.632 177.012C41.224 176.94 40.884 176.84 40.612 176.712V175.68C40.9 175.808 41.256 175.924 41.68 176.028C42.112 176.132 42.556 176.184 43.012 176.184C43.644 176.184 44.124 176.06 44.452 175.812C44.78 175.564 44.944 175.228 44.944 174.804C44.944 174.524 44.884 174.288 44.764 174.096C44.644 173.904 44.436 173.728 44.14 173.568C43.844 173.408 43.44 173.232 42.928 173.04C42.192 172.776 41.64 172.452 41.272 172.068C40.904 171.684 40.72 171.16 40.72 170.496C40.72 170.048 40.836 169.66 41.068 169.332C41.3 169.004 41.62 168.752 42.028 168.576C42.436 168.4 42.912 168.312 43.456 168.312C43.92 168.312 44.348 168.356 44.74 168.444C45.132 168.532 45.492 168.648 45.82 168.792L45.484 169.716C45.188 169.588 44.864 169.48 44.512 169.392C44.16 169.304 43.8 169.26 43.432 169.26C42.896 169.26 42.492 169.376 42.22 169.608C41.948 169.832 41.812 170.132 41.812 170.508C41.812 170.796 41.872 171.036 41.992 171.228C42.112 171.42 42.308 171.596 42.58 171.756C42.852 171.908 43.22 172.068 43.684 172.236C44.188 172.42 44.612 172.62 44.956 172.836C45.308 173.044 45.572 173.296 45.748 173.592C45.932 173.888 46.024 174.26 46.024 174.708ZM48.1459 168.156C48.3059 168.156 48.4459 168.212 48.5659 168.324C48.6939 168.428 48.7579 168.596 48.7579 168.828C48.7579 169.06 48.6939 169.232 48.5659 169.344C48.4459 169.448 48.3059 169.5 48.1459 169.5C47.9699 169.5 47.8219 169.448 47.7019 169.344C47.5819 169.232 47.5219 169.06 47.5219 168.828C47.5219 168.596 47.5819 168.428 47.7019 168.324C47.8219 168.212 47.9699 168.156 48.1459 168.156ZM48.6619 170.568V177H47.6059V170.568H48.6619ZM52.8477 176.256C53.0077 176.256 53.1717 176.244 53.3397 176.22C53.5077 176.196 53.6437 176.164 53.7477 176.124V176.928C53.6357 176.984 53.4757 177.028 53.2677 177.06C53.0597 177.1 52.8597 177.12 52.6677 177.12C52.3317 177.12 52.0197 177.064 51.7317 176.952C51.4517 176.832 51.2237 176.628 51.0477 176.34C50.8717 176.052 50.7837 175.648 50.7837 175.128V171.384H49.8717V170.88L50.7957 170.46L51.2157 169.092H51.8397V170.568H53.6997V171.384H51.8397V175.104C51.8397 175.496 51.9317 175.788 52.1157 175.98C52.3077 176.164 52.5517 176.256 52.8477 176.256ZM57.5196 170.448C58.0636 170.448 58.5356 170.568 58.9356 170.808C59.3356 171.048 59.6396 171.388 59.8476 171.828C60.0636 172.26 60.1716 172.768 60.1716 173.352V173.988H55.7676C55.7836 174.716 55.9676 175.272 56.3196 175.656C56.6796 176.032 57.1796 176.22 57.8196 176.22C58.2276 176.22 58.5876 176.184 58.8996 176.112C59.2196 176.032 59.5476 175.92 59.8836 175.776V176.7C59.5556 176.844 59.2316 176.948 58.9116 177.012C58.5916 177.084 58.2116 177.12 57.7716 177.12C57.1556 177.12 56.6156 176.996 56.1516 176.748C55.6876 176.5 55.3236 176.132 55.0596 175.644C54.8036 175.156 54.6756 174.552 54.6756 173.832C54.6756 173.128 54.7916 172.524 55.0236 172.02C55.2636 171.516 55.5956 171.128 56.0196 170.856C56.4516 170.584 56.9516 170.448 57.5196 170.448ZM57.5076 171.312C57.0036 171.312 56.6036 171.476 56.3076 171.804C56.0196 172.124 55.8476 172.572 55.7916 173.148H59.0676C59.0596 172.604 58.9316 172.164 58.6836 171.828C58.4356 171.484 58.0436 171.312 57.5076 171.312ZM71.9343 172.632C71.9343 174.08 71.5383 175.172 70.7463 175.908C69.9623 176.636 68.8663 177 67.4583 177H65.0703V168.432H67.7103C68.5663 168.432 69.3103 168.592 69.9423 168.912C70.5823 169.232 71.0743 169.704 71.4183 170.328C71.7623 170.952 71.9343 171.72 71.9343 172.632ZM70.7943 172.668C70.7943 171.524 70.5103 170.688 69.9423 170.16C69.3823 169.624 68.5863 169.356 67.5543 169.356H66.1503V176.076H67.3143C69.6343 176.076 70.7943 174.94 70.7943 172.668ZM76.1759 170.448C76.7199 170.448 77.1919 170.568 77.5919 170.808C77.9919 171.048 78.2959 171.388 78.5039 171.828C78.7199 172.26 78.8279 172.768 78.8279 173.352V173.988H74.4239C74.4399 174.716 74.6239 175.272 74.9759 175.656C75.3359 176.032 75.8359 176.22 76.4759 176.22C76.8839 176.22 77.2439 176.184 77.5559 176.112C77.8759 176.032 78.2039 175.92 78.5399 175.776V176.7C78.2119 176.844 77.8879 176.948 77.5679 177.012C77.2479 177.084 76.8679 177.12 76.4279 177.12C75.8119 177.12 75.2719 176.996 74.8079 176.748C74.3439 176.5 73.9799 176.132 73.7159 175.644C73.4599 175.156 73.3319 174.552 73.3319 173.832C73.3319 173.128 73.4479 172.524 73.6799 172.02C73.9199 171.516 74.2519 171.128 74.6759 170.856C75.1079 170.584 75.6079 170.448 76.1759 170.448ZM76.1639 171.312C75.6599 171.312 75.2599 171.476 74.9639 171.804C74.6759 172.124 74.5039 172.572 74.4479 173.148H77.7239C77.7159 172.604 77.5879 172.164 77.3399 171.828C77.0919 171.484 76.6999 171.312 76.1639 171.312ZM84.6533 175.224C84.6533 175.848 84.4213 176.32 83.9573 176.64C83.4933 176.96 82.8693 177.12 82.0853 177.12C81.6373 177.12 81.2493 177.084 80.9213 177.012C80.6013 176.94 80.3173 176.84 80.0693 176.712V175.752C80.3253 175.88 80.6333 176 80.9933 176.112C81.3613 176.216 81.7333 176.268 82.1093 176.268C82.6453 176.268 83.0333 176.184 83.2733 176.016C83.5133 175.84 83.6333 175.608 83.6333 175.32C83.6333 175.16 83.5893 175.016 83.5013 174.888C83.4133 174.76 83.2533 174.632 83.0213 174.504C82.7973 174.376 82.4733 174.232 82.0493 174.072C81.6333 173.912 81.2773 173.752 80.9813 173.592C80.6853 173.432 80.4573 173.24 80.2973 173.016C80.1373 172.792 80.0573 172.504 80.0573 172.152C80.0573 171.608 80.2773 171.188 80.7173 170.892C81.1653 170.596 81.7493 170.448 82.4693 170.448C82.8613 170.448 83.2253 170.488 83.5613 170.568C83.9053 170.648 84.2253 170.752 84.5213 170.88L84.1613 171.72C83.8893 171.608 83.6053 171.512 83.3093 171.432C83.0133 171.352 82.7093 171.312 82.3973 171.312C81.9653 171.312 81.6333 171.384 81.4013 171.528C81.1773 171.664 81.0653 171.852 81.0653 172.092C81.0653 172.276 81.1173 172.428 81.2213 172.548C81.3253 172.668 81.4973 172.788 81.7373 172.908C81.9853 173.028 82.3133 173.164 82.7213 173.316C83.1293 173.468 83.4773 173.624 83.7653 173.784C84.0533 173.944 84.2733 174.14 84.4253 174.372C84.5773 174.596 84.6533 174.88 84.6533 175.224ZM88.7875 177.12C88.2115 177.12 87.7035 177.004 87.2635 176.772C86.8235 176.54 86.4755 176.18 86.2195 175.692C85.9715 175.204 85.8475 174.58 85.8475 173.82C85.8475 173.028 85.9755 172.384 86.2315 171.888C86.4955 171.392 86.8555 171.028 87.3115 170.796C87.7675 170.564 88.2835 170.448 88.8595 170.448C89.1795 170.448 89.4915 170.484 89.7955 170.556C90.1075 170.62 90.3595 170.7 90.5515 170.796L90.2275 171.672C90.0355 171.6 89.8115 171.532 89.5555 171.468C89.2995 171.404 89.0595 171.372 88.8355 171.372C87.5715 171.372 86.9395 172.184 86.9395 173.808C86.9395 174.584 87.0915 175.18 87.3955 175.596C87.7075 176.004 88.1675 176.208 88.7755 176.208C89.1195 176.208 89.4275 176.172 89.6995 176.1C89.9715 176.028 90.2195 175.94 90.4435 175.836V176.772C90.2275 176.884 89.9875 176.968 89.7235 177.024C89.4675 177.088 89.1555 177.12 88.7875 177.12ZM94.9731 170.448C95.0931 170.448 95.2211 170.456 95.3571 170.472C95.4931 170.48 95.6171 170.496 95.7291 170.52L95.5971 171.492C95.4931 171.468 95.3771 171.448 95.2491 171.432C95.1211 171.416 95.0051 171.408 94.9011 171.408C94.5731 171.408 94.2651 171.5 93.9771 171.684C93.6891 171.86 93.4571 172.112 93.2811 172.44C93.1131 172.76 93.0291 173.136 93.0291 173.568V177H91.9731V170.568H92.8371L92.9571 171.744H93.0051C93.2051 171.392 93.4691 171.088 93.7971 170.832C94.1331 170.576 94.5251 170.448 94.9731 170.448ZM97.4702 168.156C97.6302 168.156 97.7702 168.212 97.8902 168.324C98.0182 168.428 98.0822 168.596 98.0822 168.828C98.0822 169.06 98.0182 169.232 97.8902 169.344C97.7702 169.448 97.6302 169.5 97.4702 169.5C97.2942 169.5 97.1462 169.448 97.0262 169.344C96.9062 169.232 96.8462 169.06 96.8462 168.828C96.8462 168.596 96.9062 168.428 97.0262 168.324C97.1462 168.212 97.2942 168.156 97.4702 168.156ZM97.9862 170.568V177H96.9302V170.568H97.9862ZM103.084 170.448C103.876 170.448 104.512 170.724 104.992 171.276C105.48 171.828 105.724 172.66 105.724 173.772C105.724 174.868 105.48 175.7 104.992 176.268C104.512 176.836 103.872 177.12 103.072 177.12C102.576 177.12 102.164 177.028 101.836 176.844C101.516 176.66 101.264 176.44 101.08 176.184H101.008C101.016 176.32 101.028 176.492 101.044 176.7C101.068 176.908 101.08 177.088 101.08 177.24V179.88H100.024V170.568H100.888L101.032 171.444H101.08C101.272 171.164 101.524 170.928 101.836 170.736C102.148 170.544 102.564 170.448 103.084 170.448ZM102.892 171.336C102.236 171.336 101.772 171.52 101.5 171.888C101.228 172.256 101.088 172.816 101.08 173.568V173.772C101.08 174.564 101.208 175.176 101.464 175.608C101.728 176.032 102.212 176.244 102.916 176.244C103.3 176.244 103.62 176.14 103.876 175.932C104.132 175.716 104.32 175.42 104.44 175.044C104.568 174.668 104.632 174.24 104.632 173.76C104.632 173.024 104.488 172.436 104.2 171.996C103.92 171.556 103.484 171.336 102.892 171.336ZM109.555 176.256C109.715 176.256 109.879 176.244 110.047 176.22C110.215 176.196 110.351 176.164 110.455 176.124V176.928C110.343 176.984 110.183 177.028 109.975 177.06C109.767 177.1 109.567 177.12 109.375 177.12C109.039 177.12 108.727 177.064 108.439 176.952C108.159 176.832 107.931 176.628 107.755 176.34C107.579 176.052 107.491 175.648 107.491 175.128V171.384H106.579V170.88L107.503 170.46L107.923 169.092H108.547V170.568H110.407V171.384H108.547V175.104C108.547 175.496 108.639 175.788 108.823 175.98C109.015 176.164 109.259 176.256 109.555 176.256ZM112.283 168.156C112.443 168.156 112.583 168.212 112.703 168.324C112.831 168.428 112.895 168.596 112.895 168.828C112.895 169.06 112.831 169.232 112.703 169.344C112.583 169.448 112.443 169.5 112.283 169.5C112.107 169.5 111.959 169.448 111.839 169.344C111.719 169.232 111.659 169.06 111.659 168.828C111.659 168.596 111.719 168.428 111.839 168.324C111.959 168.212 112.107 168.156 112.283 168.156ZM112.799 170.568V177H111.743V170.568H112.799ZM120.428 173.772C120.428 174.836 120.156 175.66 119.612 176.244C119.076 176.828 118.348 177.12 117.428 177.12C116.86 177.12 116.352 176.992 115.904 176.736C115.464 176.472 115.116 176.092 114.86 175.596C114.604 175.092 114.476 174.484 114.476 173.772C114.476 172.708 114.74 171.888 115.268 171.312C115.804 170.736 116.536 170.448 117.464 170.448C118.04 170.448 118.552 170.58 119 170.844C119.448 171.1 119.796 171.476 120.044 171.972C120.3 172.46 120.428 173.06 120.428 173.772ZM115.568 173.772C115.568 174.532 115.716 175.136 116.012 175.584C116.316 176.024 116.796 176.244 117.452 176.244C118.1 176.244 118.576 176.024 118.88 175.584C119.184 175.136 119.336 174.532 119.336 173.772C119.336 173.012 119.184 172.416 118.88 171.984C118.576 171.552 118.096 171.336 117.44 171.336C116.784 171.336 116.308 171.552 116.012 171.984C115.716 172.416 115.568 173.012 115.568 173.772ZM125.198 170.448C125.966 170.448 126.546 170.636 126.938 171.012C127.33 171.388 127.526 171.988 127.526 172.812V177H126.482V172.884C126.482 171.852 126.002 171.336 125.042 171.336C124.33 171.336 123.838 171.536 123.566 171.936C123.294 172.336 123.158 172.912 123.158 173.664V177H122.102V170.568H122.954L123.11 171.444H123.17C123.378 171.108 123.666 170.86 124.034 170.7C124.402 170.532 124.79 170.448 125.198 170.448Z" fill="#323232"/>
<rect x="40.5" y="184.5" width="331" height="95" rx="1.5" fill="white"/>
<path d="M55.876 205H54.796V197.38H52.12V196.432H58.54V197.38H55.876V205ZM60.744 195.88V198.556C60.744 198.876 60.724 199.176 60.684 199.456H60.756C60.964 199.128 61.244 198.88 61.596 198.712C61.956 198.544 62.344 198.46 62.76 198.46C63.536 198.46 64.12 198.648 64.512 199.024C64.912 199.392 65.112 199.988 65.112 200.812V205H64.068V200.884C64.068 199.852 63.588 199.336 62.628 199.336C61.908 199.336 61.412 199.54 61.14 199.948C60.876 200.348 60.744 200.924 60.744 201.676V205H59.688V195.88H60.744ZM67.6459 196.156C67.8059 196.156 67.9459 196.212 68.0659 196.324C68.1939 196.428 68.2579 196.596 68.2579 196.828C68.2579 197.06 68.1939 197.232 68.0659 197.344C67.9459 197.448 67.8059 197.5 67.6459 197.5C67.4699 197.5 67.3219 197.448 67.2019 197.344C67.0819 197.232 67.0219 197.06 67.0219 196.828C67.0219 196.596 67.0819 196.428 67.2019 196.324C67.3219 196.212 67.4699 196.156 67.6459 196.156ZM68.1619 198.568V205H67.1059V198.568H68.1619ZM74.3877 203.224C74.3877 203.848 74.1557 204.32 73.6917 204.64C73.2277 204.96 72.6037 205.12 71.8197 205.12C71.3717 205.12 70.9837 205.084 70.6557 205.012C70.3357 204.94 70.0517 204.84 69.8037 204.712V203.752C70.0597 203.88 70.3677 204 70.7277 204.112C71.0957 204.216 71.4677 204.268 71.8437 204.268C72.3797 204.268 72.7677 204.184 73.0077 204.016C73.2477 203.84 73.3677 203.608 73.3677 203.32C73.3677 203.16 73.3237 203.016 73.2357 202.888C73.1477 202.76 72.9877 202.632 72.7557 202.504C72.5317 202.376 72.2077 202.232 71.7837 202.072C71.3677 201.912 71.0117 201.752 70.7157 201.592C70.4197 201.432 70.1917 201.24 70.0317 201.016C69.8717 200.792 69.7917 200.504 69.7917 200.152C69.7917 199.608 70.0117 199.188 70.4517 198.892C70.8997 198.596 71.4837 198.448 72.2037 198.448C72.5957 198.448 72.9597 198.488 73.2957 198.568C73.6397 198.648 73.9597 198.752 74.2557 198.88L73.8957 199.72C73.6237 199.608 73.3397 199.512 73.0437 199.432C72.7477 199.352 72.4437 199.312 72.1317 199.312C71.6997 199.312 71.3677 199.384 71.1357 199.528C70.9117 199.664 70.7997 199.852 70.7997 200.092C70.7997 200.276 70.8517 200.428 70.9557 200.548C71.0597 200.668 71.2317 200.788 71.4717 200.908C71.7197 201.028 72.0477 201.164 72.4557 201.316C72.8637 201.468 73.2117 201.624 73.4997 201.784C73.7877 201.944 74.0077 202.14 74.1597 202.372C74.3117 202.596 74.3877 202.88 74.3877 203.224ZM83.2471 203.224C83.2471 203.848 83.0151 204.32 82.5511 204.64C82.0871 204.96 81.4631 205.12 80.6791 205.12C80.2311 205.12 79.8431 205.084 79.5151 205.012C79.1951 204.94 78.9111 204.84 78.6631 204.712V203.752C78.9191 203.88 79.2271 204 79.5871 204.112C79.9551 204.216 80.3271 204.268 80.7031 204.268C81.2391 204.268 81.6271 204.184 81.8671 204.016C82.1071 203.84 82.2271 203.608 82.2271 203.32C82.2271 203.16 82.1831 203.016 82.0951 202.888C82.0071 202.76 81.8471 202.632 81.6151 202.504C81.3911 202.376 81.0671 202.232 80.6431 202.072C80.2271 201.912 79.8711 201.752 79.5751 201.592C79.2791 201.432 79.0511 201.24 78.8911 201.016C78.7311 200.792 78.6511 200.504 78.6511 200.152C78.6511 199.608 78.8711 199.188 79.3111 198.892C79.7591 198.596 80.3431 198.448 81.0631 198.448C81.4551 198.448 81.8191 198.488 82.1551 198.568C82.4991 198.648 82.8191 198.752 83.1151 198.88L82.7551 199.72C82.4831 199.608 82.1991 199.512 81.9031 199.432C81.6071 199.352 81.3031 199.312 80.9911 199.312C80.5591 199.312 80.2271 199.384 79.9951 199.528C79.7711 199.664 79.6591 199.852 79.6591 200.092C79.6591 200.276 79.7111 200.428 79.8151 200.548C79.9191 200.668 80.0911 200.788 80.3311 200.908C80.5791 201.028 80.9071 201.164 81.3151 201.316C81.7231 201.468 82.0711 201.624 82.3591 201.784C82.6471 201.944 82.8671 202.14 83.0191 202.372C83.1711 202.596 83.2471 202.88 83.2471 203.224ZM85.3413 196.156C85.5013 196.156 85.6413 196.212 85.7613 196.324C85.8893 196.428 85.9533 196.596 85.9533 196.828C85.9533 197.06 85.8893 197.232 85.7613 197.344C85.6413 197.448 85.5013 197.5 85.3413 197.5C85.1653 197.5 85.0173 197.448 84.8973 197.344C84.7773 197.232 84.7173 197.06 84.7173 196.828C84.7173 196.596 84.7773 196.428 84.8973 196.324C85.0173 196.212 85.1653 196.156 85.3413 196.156ZM85.8573 198.568V205H84.8013V198.568H85.8573ZM90.043 204.256C90.203 204.256 90.367 204.244 90.535 204.22C90.703 204.196 90.839 204.164 90.943 204.124V204.928C90.831 204.984 90.671 205.028 90.463 205.06C90.255 205.1 90.055 205.12 89.863 205.12C89.527 205.12 89.215 205.064 88.927 204.952C88.647 204.832 88.419 204.628 88.243 204.34C88.067 204.052 87.979 203.648 87.979 203.128V199.384H87.067V198.88L87.991 198.46L88.411 197.092H89.035V198.568H90.895V199.384H89.035V203.104C89.035 203.496 89.127 203.788 89.311 203.98C89.503 204.164 89.747 204.256 90.043 204.256ZM94.7149 198.448C95.2589 198.448 95.7309 198.568 96.1309 198.808C96.5309 199.048 96.8349 199.388 97.0429 199.828C97.2589 200.26 97.3669 200.768 97.3669 201.352V201.988H92.9629C92.9789 202.716 93.1629 203.272 93.5149 203.656C93.8749 204.032 94.3749 204.22 95.0149 204.22C95.4229 204.22 95.7829 204.184 96.0949 204.112C96.4149 204.032 96.7429 203.92 97.0789 203.776V204.7C96.7509 204.844 96.4269 204.948 96.1069 205.012C95.7869 205.084 95.4069 205.12 94.9669 205.12C94.3509 205.12 93.8109 204.996 93.3469 204.748C92.8829 204.5 92.5189 204.132 92.2549 203.644C91.9989 203.156 91.8709 202.552 91.8709 201.832C91.8709 201.128 91.9869 200.524 92.2189 200.02C92.4589 199.516 92.7909 199.128 93.2149 198.856C93.6469 198.584 94.1469 198.448 94.7149 198.448ZM94.7029 199.312C94.1989 199.312 93.7989 199.476 93.5029 199.804C93.2149 200.124 93.0429 200.572 92.9869 201.148H96.2629C96.2549 200.604 96.1269 200.164 95.8789 199.828C95.6309 199.484 95.2389 199.312 94.7029 199.312ZM104.558 198.46C105.342 198.46 105.922 198.632 106.298 198.976C106.674 199.32 106.862 199.868 106.862 200.62V205H106.094L105.89 204.088H105.842C105.562 204.44 105.266 204.7 104.954 204.868C104.642 205.036 104.218 205.12 103.682 205.12C103.098 205.12 102.614 204.968 102.23 204.664C101.846 204.352 101.654 203.868 101.654 203.212C101.654 202.572 101.906 202.08 102.41 201.736C102.914 201.384 103.69 201.192 104.738 201.16L105.83 201.124V200.74C105.83 200.204 105.714 199.832 105.482 199.624C105.25 199.416 104.922 199.312 104.498 199.312C104.162 199.312 103.842 199.364 103.538 199.468C103.234 199.564 102.95 199.676 102.686 199.804L102.362 199.012C102.642 198.86 102.974 198.732 103.358 198.628C103.742 198.516 104.142 198.46 104.558 198.46ZM105.818 201.856L104.87 201.892C104.07 201.924 103.514 202.052 103.202 202.276C102.898 202.5 102.746 202.816 102.746 203.224C102.746 203.584 102.854 203.848 103.07 204.016C103.294 204.184 103.578 204.268 103.922 204.268C104.458 204.268 104.906 204.12 105.266 203.824C105.634 203.52 105.818 203.056 105.818 202.432V201.856ZM109.904 205H108.848V195.88H109.904V205ZM112.998 205H111.942V195.88H112.998V205ZM120.628 201.772C120.628 202.836 120.356 203.66 119.812 204.244C119.276 204.828 118.548 205.12 117.628 205.12C117.06 205.12 116.552 204.992 116.104 204.736C115.664 204.472 115.316 204.092 115.06 203.596C114.804 203.092 114.676 202.484 114.676 201.772C114.676 200.708 114.94 199.888 115.468 199.312C116.004 198.736 116.736 198.448 117.664 198.448C118.24 198.448 118.752 198.58 119.2 198.844C119.648 199.1 119.996 199.476 120.244 199.972C120.5 200.46 120.628 201.06 120.628 201.772ZM115.768 201.772C115.768 202.532 115.916 203.136 116.212 203.584C116.516 204.024 116.996 204.244 117.652 204.244C118.3 204.244 118.776 204.024 119.08 203.584C119.384 203.136 119.536 202.532 119.536 201.772C119.536 201.012 119.384 200.416 119.08 199.984C118.776 199.552 118.296 199.336 117.64 199.336C116.984 199.336 116.508 199.552 116.212 199.984C115.916 200.416 115.768 201.012 115.768 201.772ZM127.323 204.988L126.219 201.364C126.115 201.036 126.023 200.716 125.943 200.404C125.863 200.092 125.807 199.844 125.775 199.66H125.727C125.695 199.844 125.643 200.092 125.571 200.404C125.499 200.716 125.407 201.04 125.295 201.376L124.143 204.988H122.943L121.179 198.556H122.271L123.159 201.988C123.247 202.332 123.331 202.68 123.411 203.032C123.491 203.384 123.547 203.676 123.579 203.908H123.627C123.651 203.772 123.687 203.604 123.735 203.404C123.783 203.204 123.835 202.996 123.891 202.78C123.947 202.556 124.003 202.356 124.059 202.18L125.199 198.556H126.351L127.455 202.18C127.535 202.46 127.619 202.76 127.707 203.08C127.795 203.4 127.855 203.672 127.887 203.896H127.935C127.959 203.696 128.011 203.42 128.091 203.068C128.179 202.716 128.271 202.356 128.367 201.988L129.267 198.556H130.347L128.559 204.988H127.323ZM135.688 203.224C135.688 203.848 135.456 204.32 134.992 204.64C134.528 204.96 133.904 205.12 133.12 205.12C132.672 205.12 132.284 205.084 131.956 205.012C131.636 204.94 131.352 204.84 131.104 204.712V203.752C131.36 203.88 131.668 204 132.028 204.112C132.396 204.216 132.768 204.268 133.144 204.268C133.68 204.268 134.068 204.184 134.308 204.016C134.548 203.84 134.668 203.608 134.668 203.32C134.668 203.16 134.624 203.016 134.536 202.888C134.448 202.76 134.288 202.632 134.056 202.504C133.832 202.376 133.508 202.232 133.084 202.072C132.668 201.912 132.312 201.752 132.016 201.592C131.72 201.432 131.492 201.24 131.332 201.016C131.172 200.792 131.092 200.504 131.092 200.152C131.092 199.608 131.312 199.188 131.752 198.892C132.2 198.596 132.784 198.448 133.504 198.448C133.896 198.448 134.26 198.488 134.596 198.568C134.94 198.648 135.26 198.752 135.556 198.88L135.196 199.72C134.924 199.608 134.64 199.512 134.344 199.432C134.048 199.352 133.744 199.312 133.432 199.312C133 199.312 132.668 199.384 132.436 199.528C132.212 199.664 132.1 199.852 132.1 200.092C132.1 200.276 132.152 200.428 132.256 200.548C132.36 200.668 132.532 200.788 132.772 200.908C133.02 201.028 133.348 201.164 133.756 201.316C134.164 201.468 134.512 201.624 134.8 201.784C135.088 201.944 135.308 202.14 135.46 202.372C135.612 202.596 135.688 202.88 135.688 203.224ZM145.736 198.568V205H144.872L144.716 204.148H144.668C144.46 204.484 144.172 204.732 143.804 204.892C143.436 205.044 143.044 205.12 142.628 205.12C141.852 205.12 141.268 204.936 140.876 204.568C140.484 204.192 140.288 203.596 140.288 202.78V198.568H141.356V202.708C141.356 203.732 141.832 204.244 142.784 204.244C143.496 204.244 143.988 204.044 144.26 203.644C144.54 203.244 144.68 202.668 144.68 201.916V198.568H145.736ZM151.966 203.224C151.966 203.848 151.734 204.32 151.27 204.64C150.806 204.96 150.182 205.12 149.398 205.12C148.95 205.12 148.562 205.084 148.234 205.012C147.914 204.94 147.63 204.84 147.382 204.712V203.752C147.638 203.88 147.946 204 148.306 204.112C148.674 204.216 149.046 204.268 149.422 204.268C149.958 204.268 150.346 204.184 150.586 204.016C150.826 203.84 150.946 203.608 150.946 203.32C150.946 203.16 150.902 203.016 150.814 202.888C150.726 202.76 150.566 202.632 150.334 202.504C150.11 202.376 149.786 202.232 149.362 202.072C148.946 201.912 148.59 201.752 148.294 201.592C147.998 201.432 147.77 201.24 147.61 201.016C147.45 200.792 147.37 200.504 147.37 200.152C147.37 199.608 147.59 199.188 148.03 198.892C148.478 198.596 149.062 198.448 149.782 198.448C150.174 198.448 150.538 198.488 150.874 198.568C151.218 198.648 151.538 198.752 151.834 198.88L151.474 199.72C151.202 199.608 150.918 199.512 150.622 199.432C150.326 199.352 150.022 199.312 149.71 199.312C149.278 199.312 148.946 199.384 148.714 199.528C148.49 199.664 148.378 199.852 148.378 200.092C148.378 200.276 148.43 200.428 148.534 200.548C148.638 200.668 148.81 200.788 149.05 200.908C149.298 201.028 149.626 201.164 150.034 201.316C150.442 201.468 150.79 201.624 151.078 201.784C151.366 201.944 151.586 202.14 151.738 202.372C151.89 202.596 151.966 202.88 151.966 203.224ZM156.004 198.448C156.548 198.448 157.02 198.568 157.42 198.808C157.82 199.048 158.124 199.388 158.332 199.828C158.548 200.26 158.656 200.768 158.656 201.352V201.988H154.252C154.268 202.716 154.452 203.272 154.804 203.656C155.164 204.032 155.664 204.22 156.304 204.22C156.712 204.22 157.072 204.184 157.384 204.112C157.704 204.032 158.032 203.92 158.368 203.776V204.7C158.04 204.844 157.716 204.948 157.396 205.012C157.076 205.084 156.696 205.12 156.256 205.12C155.64 205.12 155.1 204.996 154.636 204.748C154.172 204.5 153.808 204.132 153.544 203.644C153.288 203.156 153.16 202.552 153.16 201.832C153.16 201.128 153.276 200.524 153.508 200.02C153.748 199.516 154.08 199.128 154.504 198.856C154.936 198.584 155.436 198.448 156.004 198.448ZM155.992 199.312C155.488 199.312 155.088 199.476 154.792 199.804C154.504 200.124 154.332 200.572 154.276 201.148H157.552C157.544 200.604 157.416 200.164 157.168 199.828C156.92 199.484 156.528 199.312 155.992 199.312ZM163.293 198.448C163.413 198.448 163.541 198.456 163.677 198.472C163.813 198.48 163.937 198.496 164.049 198.52L163.917 199.492C163.813 199.468 163.697 199.448 163.569 199.432C163.441 199.416 163.325 199.408 163.221 199.408C162.893 199.408 162.585 199.5 162.297 199.684C162.009 199.86 161.777 200.112 161.601 200.44C161.433 200.76 161.349 201.136 161.349 201.568V205H160.293V198.568H161.157L161.277 199.744H161.325C161.525 199.392 161.789 199.088 162.117 198.832C162.453 198.576 162.845 198.448 163.293 198.448ZM169.438 203.224C169.438 203.848 169.206 204.32 168.742 204.64C168.278 204.96 167.654 205.12 166.87 205.12C166.422 205.12 166.034 205.084 165.706 205.012C165.386 204.94 165.102 204.84 164.854 204.712V203.752C165.11 203.88 165.418 204 165.778 204.112C166.146 204.216 166.518 204.268 166.894 204.268C167.43 204.268 167.818 204.184 168.058 204.016C168.298 203.84 168.418 203.608 168.418 203.32C168.418 203.16 168.374 203.016 168.286 202.888C168.198 202.76 168.038 202.632 167.806 202.504C167.582 202.376 167.258 202.232 166.834 202.072C166.418 201.912 166.062 201.752 165.766 201.592C165.47 201.432 165.242 201.24 165.082 201.016C164.922 200.792 164.842 200.504 164.842 200.152C164.842 199.608 165.062 199.188 165.502 198.892C165.95 198.596 166.534 198.448 167.254 198.448C167.646 198.448 168.01 198.488 168.346 198.568C168.69 198.648 169.01 198.752 169.306 198.88L168.946 199.72C168.674 199.608 168.39 199.512 168.094 199.432C167.798 199.352 167.494 199.312 167.182 199.312C166.75 199.312 166.418 199.384 166.186 199.528C165.962 199.664 165.85 199.852 165.85 200.092C165.85 200.276 165.902 200.428 166.006 200.548C166.11 200.668 166.282 200.788 166.522 200.908C166.77 201.028 167.098 201.164 167.506 201.316C167.914 201.468 168.262 201.624 168.55 201.784C168.838 201.944 169.058 202.14 169.21 202.372C169.362 202.596 169.438 202.88 169.438 203.224ZM176.258 204.256C176.418 204.256 176.582 204.244 176.75 204.22C176.918 204.196 177.054 204.164 177.158 204.124V204.928C177.046 204.984 176.886 205.028 176.678 205.06C176.47 205.1 176.27 205.12 176.078 205.12C175.742 205.12 175.43 205.064 175.142 204.952C174.862 204.832 174.634 204.628 174.458 204.34C174.282 204.052 174.194 203.648 174.194 203.128V199.384H173.282V198.88L174.206 198.46L174.626 197.092H175.25V198.568H177.11V199.384H175.25V203.104C175.25 203.496 175.342 203.788 175.526 203.98C175.718 204.164 175.962 204.256 176.258 204.256ZM184.038 201.772C184.038 202.836 183.766 203.66 183.222 204.244C182.686 204.828 181.958 205.12 181.038 205.12C180.47 205.12 179.962 204.992 179.514 204.736C179.074 204.472 178.726 204.092 178.47 203.596C178.214 203.092 178.086 202.484 178.086 201.772C178.086 200.708 178.35 199.888 178.878 199.312C179.414 198.736 180.146 198.448 181.074 198.448C181.65 198.448 182.162 198.58 182.61 198.844C183.058 199.1 183.406 199.476 183.654 199.972C183.91 200.46 184.038 201.06 184.038 201.772ZM179.178 201.772C179.178 202.532 179.326 203.136 179.622 203.584C179.926 204.024 180.406 204.244 181.062 204.244C181.71 204.244 182.186 204.024 182.49 203.584C182.794 203.136 182.946 202.532 182.946 201.772C182.946 201.012 182.794 200.416 182.49 199.984C182.186 199.552 181.706 199.336 181.05 199.336C180.394 199.336 179.918 199.552 179.622 199.984C179.326 200.416 179.178 201.012 179.178 201.772ZM195.885 198.448C196.613 198.448 197.157 198.636 197.517 199.012C197.877 199.388 198.057 199.988 198.057 200.812V205H197.013V200.86C197.013 199.844 196.577 199.336 195.705 199.336C195.081 199.336 194.633 199.516 194.361 199.876C194.097 200.236 193.965 200.76 193.965 201.448V205H192.921V200.86C192.921 199.844 192.481 199.336 191.601 199.336C190.953 199.336 190.505 199.536 190.257 199.936C190.009 200.336 189.885 200.912 189.885 201.664V205H188.829V198.568H189.681L189.837 199.444H189.897C190.097 199.108 190.365 198.86 190.701 198.7C191.045 198.532 191.409 198.448 191.793 198.448C192.801 198.448 193.457 198.808 193.761 199.528H193.821C194.037 199.16 194.329 198.888 194.697 198.712C195.065 198.536 195.461 198.448 195.885 198.448ZM202.479 198.46C203.263 198.46 203.843 198.632 204.219 198.976C204.595 199.32 204.783 199.868 204.783 200.62V205H204.015L203.811 204.088H203.763C203.483 204.44 203.187 204.7 202.875 204.868C202.563 205.036 202.139 205.12 201.603 205.12C201.019 205.12 200.535 204.968 200.151 204.664C199.767 204.352 199.575 203.868 199.575 203.212C199.575 202.572 199.827 202.08 200.331 201.736C200.835 201.384 201.611 201.192 202.659 201.16L203.751 201.124V200.74C203.751 200.204 203.635 199.832 203.403 199.624C203.171 199.416 202.843 199.312 202.419 199.312C202.083 199.312 201.763 199.364 201.459 199.468C201.155 199.564 200.871 199.676 200.607 199.804L200.283 199.012C200.563 198.86 200.895 198.732 201.279 198.628C201.663 198.516 202.063 198.46 202.479 198.46ZM203.739 201.856L202.791 201.892C201.991 201.924 201.435 202.052 201.123 202.276C200.819 202.5 200.667 202.816 200.667 203.224C200.667 203.584 200.775 203.848 200.991 204.016C201.215 204.184 201.499 204.268 201.843 204.268C202.379 204.268 202.827 204.12 203.187 203.824C203.555 203.52 203.739 203.056 203.739 202.432V201.856ZM209.866 198.448C210.634 198.448 211.214 198.636 211.606 199.012C211.998 199.388 212.194 199.988 212.194 200.812V205H211.15V200.884C211.15 199.852 210.67 199.336 209.71 199.336C208.998 199.336 208.506 199.536 208.234 199.936C207.962 200.336 207.826 200.912 207.826 201.664V205H206.77V198.568H207.622L207.778 199.444H207.838C208.046 199.108 208.334 198.86 208.702 198.7C209.07 198.532 209.458 198.448 209.866 198.448ZM216.624 198.46C217.408 198.46 217.988 198.632 218.364 198.976C218.74 199.32 218.928 199.868 218.928 200.62V205H218.16L217.956 204.088H217.908C217.628 204.44 217.332 204.7 217.02 204.868C216.708 205.036 216.284 205.12 215.748 205.12C215.164 205.12 214.68 204.968 214.296 204.664C213.912 204.352 213.72 203.868 213.72 203.212C213.72 202.572 213.972 202.08 214.476 201.736C214.98 201.384 215.756 201.192 216.804 201.16L217.896 201.124V200.74C217.896 200.204 217.78 199.832 217.548 199.624C217.316 199.416 216.988 199.312 216.564 199.312C216.228 199.312 215.908 199.364 215.604 199.468C215.3 199.564 215.016 199.676 214.752 199.804L214.428 199.012C214.708 198.86 215.04 198.732 215.424 198.628C215.808 198.516 216.208 198.46 216.624 198.46ZM217.884 201.856L216.936 201.892C216.136 201.924 215.58 202.052 215.268 202.276C214.964 202.5 214.812 202.816 214.812 203.224C214.812 203.584 214.92 203.848 215.136 204.016C215.36 204.184 215.644 204.268 215.988 204.268C216.524 204.268 216.972 204.12 217.332 203.824C217.7 203.52 217.884 203.056 217.884 202.432V201.856ZM223.195 198.448C223.619 198.448 223.999 198.528 224.335 198.688C224.679 198.848 224.971 199.092 225.211 199.42H225.271L225.415 198.568H226.255V205.108C226.255 206.028 226.019 206.72 225.547 207.184C225.083 207.648 224.359 207.88 223.375 207.88C222.431 207.88 221.659 207.744 221.059 207.472V206.5C221.691 206.836 222.483 207.004 223.435 207.004C223.987 207.004 224.419 206.84 224.731 206.512C225.051 206.192 225.211 205.752 225.211 205.192V204.94C225.211 204.844 225.215 204.708 225.223 204.532C225.231 204.348 225.239 204.22 225.247 204.148H225.199C224.767 204.796 224.103 205.12 223.207 205.12C222.375 205.12 221.723 204.828 221.251 204.244C220.787 203.66 220.555 202.844 220.555 201.796C220.555 200.772 220.787 199.96 221.251 199.36C221.723 198.752 222.371 198.448 223.195 198.448ZM223.339 199.336C222.803 199.336 222.387 199.552 222.091 199.984C221.795 200.408 221.647 201.016 221.647 201.808C221.647 202.6 221.791 203.208 222.079 203.632C222.367 204.048 222.795 204.256 223.363 204.256C224.011 204.256 224.483 204.084 224.779 203.74C225.075 203.388 225.223 202.824 225.223 202.048V201.796C225.223 200.924 225.071 200.296 224.767 199.912C224.463 199.528 223.987 199.336 223.339 199.336ZM230.781 198.448C231.325 198.448 231.797 198.568 232.197 198.808C232.597 199.048 232.901 199.388 233.109 199.828C233.325 200.26 233.433 200.768 233.433 201.352V201.988H229.029C229.045 202.716 229.229 203.272 229.581 203.656C229.941 204.032 230.441 204.22 231.081 204.22C231.489 204.22 231.849 204.184 232.161 204.112C232.481 204.032 232.809 203.92 233.145 203.776V204.7C232.817 204.844 232.493 204.948 232.173 205.012C231.853 205.084 231.473 205.12 231.033 205.12C230.417 205.12 229.877 204.996 229.413 204.748C228.949 204.5 228.585 204.132 228.321 203.644C228.065 203.156 227.937 202.552 227.937 201.832C227.937 201.128 228.053 200.524 228.285 200.02C228.525 199.516 228.857 199.128 229.281 198.856C229.713 198.584 230.213 198.448 230.781 198.448ZM230.769 199.312C230.265 199.312 229.865 199.476 229.569 199.804C229.281 200.124 229.109 200.572 229.053 201.148H232.329C232.321 200.604 232.193 200.164 231.945 199.828C231.697 199.484 231.305 199.312 230.769 199.312ZM240.336 204.256C240.496 204.256 240.66 204.244 240.828 204.22C240.996 204.196 241.132 204.164 241.236 204.124V204.928C241.124 204.984 240.964 205.028 240.756 205.06C240.548 205.1 240.348 205.12 240.156 205.12C239.82 205.12 239.508 205.064 239.22 204.952C238.94 204.832 238.712 204.628 238.536 204.34C238.36 204.052 238.272 203.648 238.272 203.128V199.384H237.36V198.88L238.284 198.46L238.704 197.092H239.328V198.568H241.188V199.384H239.328V203.104C239.328 203.496 239.42 203.788 239.604 203.98C239.796 204.164 240.04 204.256 240.336 204.256ZM243.58 195.88V198.556C243.58 198.876 243.56 199.176 243.52 199.456H243.592C243.8 199.128 244.08 198.88 244.432 198.712C244.792 198.544 245.18 198.46 245.596 198.46C246.372 198.46 246.956 198.648 247.348 199.024C247.748 199.392 247.948 199.988 247.948 200.812V205H246.904V200.884C246.904 199.852 246.424 199.336 245.464 199.336C244.744 199.336 244.248 199.54 243.976 199.948C243.712 200.348 243.58 200.924 243.58 201.676V205H242.524V195.88H243.58ZM252.426 198.448C252.97 198.448 253.442 198.568 253.842 198.808C254.242 199.048 254.546 199.388 254.754 199.828C254.97 200.26 255.078 200.768 255.078 201.352V201.988H250.674C250.69 202.716 250.874 203.272 251.226 203.656C251.586 204.032 252.086 204.22 252.726 204.22C253.134 204.22 253.494 204.184 253.806 204.112C254.126 204.032 254.454 203.92 254.79 203.776V204.7C254.462 204.844 254.138 204.948 253.818 205.012C253.498 205.084 253.118 205.12 252.678 205.12C252.062 205.12 251.522 204.996 251.058 204.748C250.594 204.5 250.23 204.132 249.966 203.644C249.71 203.156 249.582 202.552 249.582 201.832C249.582 201.128 249.698 200.524 249.93 200.02C250.17 199.516 250.502 199.128 250.926 198.856C251.358 198.584 251.858 198.448 252.426 198.448ZM252.414 199.312C251.91 199.312 251.51 199.476 251.214 199.804C250.926 200.124 250.754 200.572 250.698 201.148H253.974C253.966 200.604 253.838 200.164 253.59 199.828C253.342 199.484 252.95 199.312 252.414 199.312ZM257.255 196.156C257.415 196.156 257.555 196.212 257.675 196.324C257.803 196.428 257.867 196.596 257.867 196.828C257.867 197.06 257.803 197.232 257.675 197.344C257.555 197.448 257.415 197.5 257.255 197.5C257.079 197.5 256.931 197.448 256.811 197.344C256.691 197.232 256.631 197.06 256.631 196.828C256.631 196.596 256.691 196.428 256.811 196.324C256.931 196.212 257.079 196.156 257.255 196.156ZM257.771 198.568V205H256.715V198.568H257.771ZM262.809 198.448C262.929 198.448 263.057 198.456 263.193 198.472C263.329 198.48 263.453 198.496 263.565 198.52L263.433 199.492C263.329 199.468 263.213 199.448 263.085 199.432C262.957 199.416 262.841 199.408 262.737 199.408C262.409 199.408 262.101 199.5 261.813 199.684C261.525 199.86 261.293 200.112 261.117 200.44C260.949 200.76 260.865 201.136 260.865 201.568V205H259.809V198.568H260.673L260.793 199.744H260.841C261.041 199.392 261.305 199.088 261.633 198.832C261.969 198.576 262.361 198.448 262.809 198.448ZM55.456 214.46C56.24 214.46 56.82 214.632 57.196 214.976C57.572 215.32 57.76 215.868 57.76 216.62V221H56.992L56.788 220.088H56.74C56.46 220.44 56.164 220.7 55.852 220.868C55.54 221.036 55.116 221.12 54.58 221.12C53.996 221.12 53.512 220.968 53.128 220.664C52.744 220.352 52.552 219.868 52.552 219.212C52.552 218.572 52.804 218.08 53.308 217.736C53.812 217.384 54.588 217.192 55.636 217.16L56.728 217.124V216.74C56.728 216.204 56.612 215.832 56.38 215.624C56.148 215.416 55.82 215.312 55.396 215.312C55.06 215.312 54.74 215.364 54.436 215.468C54.132 215.564 53.848 215.676 53.584 215.804L53.26 215.012C53.54 214.86 53.872 214.732 54.256 214.628C54.64 214.516 55.04 214.46 55.456 214.46ZM56.716 217.856L55.768 217.892C54.968 217.924 54.412 218.052 54.1 218.276C53.796 218.5 53.644 218.816 53.644 219.224C53.644 219.584 53.752 219.848 53.968 220.016C54.192 220.184 54.476 220.268 54.82 220.268C55.356 220.268 55.804 220.12 56.164 219.824C56.532 219.52 56.716 219.056 56.716 218.432V217.856ZM62.3266 221.12C61.7506 221.12 61.2426 221.004 60.8026 220.772C60.3626 220.54 60.0146 220.18 59.7586 219.692C59.5106 219.204 59.3866 218.58 59.3866 217.82C59.3866 217.028 59.5146 216.384 59.7706 215.888C60.0346 215.392 60.3946 215.028 60.8506 214.796C61.3066 214.564 61.8226 214.448 62.3986 214.448C62.7186 214.448 63.0306 214.484 63.3346 214.556C63.6466 214.62 63.8986 214.7 64.0906 214.796L63.7666 215.672C63.5746 215.6 63.3506 215.532 63.0946 215.468C62.8386 215.404 62.5986 215.372 62.3746 215.372C61.1106 215.372 60.4786 216.184 60.4786 217.808C60.4786 218.584 60.6306 219.18 60.9346 219.596C61.2466 220.004 61.7066 220.208 62.3146 220.208C62.6586 220.208 62.9666 220.172 63.2386 220.1C63.5106 220.028 63.7586 219.94 63.9826 219.836V220.772C63.7666 220.884 63.5266 220.968 63.2626 221.024C63.0066 221.088 62.6946 221.12 62.3266 221.12ZM68.0922 221.12C67.5162 221.12 67.0082 221.004 66.5682 220.772C66.1282 220.54 65.7802 220.18 65.5242 219.692C65.2762 219.204 65.1522 218.58 65.1522 217.82C65.1522 217.028 65.2802 216.384 65.5362 215.888C65.8002 215.392 66.1602 215.028 66.6162 214.796C67.0722 214.564 67.5882 214.448 68.1642 214.448C68.4842 214.448 68.7962 214.484 69.1002 214.556C69.4122 214.62 69.6642 214.7 69.8562 214.796L69.5322 215.672C69.3402 215.6 69.1162 215.532 68.8602 215.468C68.6042 215.404 68.3642 215.372 68.1402 215.372C66.8762 215.372 66.2442 216.184 66.2442 217.808C66.2442 218.584 66.3962 219.18 66.7002 219.596C67.0122 220.004 67.4722 220.208 68.0802 220.208C68.4242 220.208 68.7322 220.172 69.0042 220.1C69.2762 220.028 69.5242 219.94 69.7482 219.836V220.772C69.5322 220.884 69.2922 220.968 69.0282 221.024C68.7722 221.088 68.4602 221.12 68.0922 221.12ZM76.8698 217.772C76.8698 218.836 76.5978 219.66 76.0538 220.244C75.5178 220.828 74.7898 221.12 73.8698 221.12C73.3018 221.12 72.7938 220.992 72.3458 220.736C71.9058 220.472 71.5578 220.092 71.3018 219.596C71.0458 219.092 70.9178 218.484 70.9178 217.772C70.9178 216.708 71.1818 215.888 71.7098 215.312C72.2458 214.736 72.9778 214.448 73.9058 214.448C74.4818 214.448 74.9938 214.58 75.4418 214.844C75.8898 215.1 76.2378 215.476 76.4858 215.972C76.7418 216.46 76.8698 217.06 76.8698 217.772ZM72.0098 217.772C72.0098 218.532 72.1578 219.136 72.4538 219.584C72.7578 220.024 73.2378 220.244 73.8938 220.244C74.5418 220.244 75.0178 220.024 75.3218 219.584C75.6258 219.136 75.7778 218.532 75.7778 217.772C75.7778 217.012 75.6258 216.416 75.3218 215.984C75.0178 215.552 74.5378 215.336 73.8818 215.336C73.2258 215.336 72.7498 215.552 72.4538 215.984C72.1578 216.416 72.0098 217.012 72.0098 217.772ZM83.9194 214.568V221H83.0554L82.8994 220.148H82.8514C82.6434 220.484 82.3554 220.732 81.9874 220.892C81.6194 221.044 81.2274 221.12 80.8114 221.12C80.0354 221.12 79.4514 220.936 79.0594 220.568C78.6674 220.192 78.4714 219.596 78.4714 218.78V214.568H79.5394V218.708C79.5394 219.732 80.0154 220.244 80.9674 220.244C81.6794 220.244 82.1714 220.044 82.4434 219.644C82.7234 219.244 82.8634 218.668 82.8634 217.916V214.568H83.9194ZM89.0574 214.448C89.8254 214.448 90.4054 214.636 90.7974 215.012C91.1894 215.388 91.3854 215.988 91.3854 216.812V221H90.3414V216.884C90.3414 215.852 89.8614 215.336 88.9014 215.336C88.1894 215.336 87.6974 215.536 87.4254 215.936C87.1534 216.336 87.0174 216.912 87.0174 217.664V221H85.9614V214.568H86.8134L86.9694 215.444H87.0294C87.2374 215.108 87.5254 214.86 87.8934 214.7C88.2614 214.532 88.6494 214.448 89.0574 214.448ZM95.5274 220.256C95.6874 220.256 95.8514 220.244 96.0194 220.22C96.1874 220.196 96.3234 220.164 96.4274 220.124V220.928C96.3154 220.984 96.1554 221.028 95.9474 221.06C95.7394 221.1 95.5394 221.12 95.3474 221.12C95.0114 221.12 94.6994 221.064 94.4114 220.952C94.1314 220.832 93.9034 220.628 93.7274 220.34C93.5514 220.052 93.4634 219.648 93.4634 219.128V215.384H92.5514V214.88L93.4754 214.46L93.8954 213.092H94.5194V214.568H96.3794V215.384H94.5194V219.104C94.5194 219.496 94.6114 219.788 94.7954 219.98C94.9874 220.164 95.2314 220.256 95.5274 220.256ZM101.903 219.224C101.903 219.848 101.671 220.32 101.207 220.64C100.743 220.96 100.119 221.12 99.3353 221.12C98.8873 221.12 98.4993 221.084 98.1713 221.012C97.8513 220.94 97.5673 220.84 97.3193 220.712V219.752C97.5753 219.88 97.8833 220 98.2433 220.112C98.6113 220.216 98.9833 220.268 99.3593 220.268C99.8953 220.268 100.283 220.184 100.523 220.016C100.763 219.84 100.883 219.608 100.883 219.32C100.883 219.16 100.839 219.016 100.751 218.888C100.663 218.76 100.503 218.632 100.271 218.504C100.047 218.376 99.7233 218.232 99.2993 218.072C98.8833 217.912 98.5273 217.752 98.2313 217.592C97.9353 217.432 97.7073 217.24 97.5473 217.016C97.3873 216.792 97.3073 216.504 97.3073 216.152C97.3073 215.608 97.5273 215.188 97.9673 214.892C98.4153 214.596 98.9993 214.448 99.7193 214.448C100.111 214.448 100.475 214.488 100.811 214.568C101.155 214.648 101.475 214.752 101.771 214.88L101.411 215.72C101.139 215.608 100.855 215.512 100.559 215.432C100.263 215.352 99.9593 215.312 99.6473 215.312C99.2153 215.312 98.8833 215.384 98.6513 215.528C98.4273 215.664 98.3153 215.852 98.3153 216.092C98.3153 216.276 98.3673 216.428 98.4713 216.548C98.5753 216.668 98.7473 216.788 98.9873 216.908C99.2353 217.028 99.5633 217.164 99.9713 217.316C100.379 217.468 100.727 217.624 101.015 217.784C101.303 217.944 101.523 218.14 101.675 218.372C101.827 218.596 101.903 218.88 101.903 219.224ZM109.011 214.46C109.795 214.46 110.375 214.632 110.751 214.976C111.127 215.32 111.315 215.868 111.315 216.62V221H110.547L110.343 220.088H110.295C110.015 220.44 109.719 220.7 109.407 220.868C109.095 221.036 108.671 221.12 108.135 221.12C107.551 221.12 107.067 220.968 106.683 220.664C106.299 220.352 106.107 219.868 106.107 219.212C106.107 218.572 106.359 218.08 106.863 217.736C107.367 217.384 108.143 217.192 109.191 217.16L110.283 217.124V216.74C110.283 216.204 110.167 215.832 109.935 215.624C109.703 215.416 109.375 215.312 108.951 215.312C108.615 215.312 108.295 215.364 107.991 215.468C107.687 215.564 107.403 215.676 107.139 215.804L106.815 215.012C107.095 214.86 107.427 214.732 107.811 214.628C108.195 214.516 108.595 214.46 109.011 214.46ZM110.271 217.856L109.323 217.892C108.523 217.924 107.967 218.052 107.655 218.276C107.351 218.5 107.199 218.816 107.199 219.224C107.199 219.584 107.307 219.848 107.523 220.016C107.747 220.184 108.031 220.268 108.375 220.268C108.911 220.268 109.359 220.12 109.719 219.824C110.087 219.52 110.271 219.056 110.271 218.432V217.856ZM116.397 214.448C117.165 214.448 117.745 214.636 118.137 215.012C118.529 215.388 118.725 215.988 118.725 216.812V221H117.681V216.884C117.681 215.852 117.201 215.336 116.241 215.336C115.529 215.336 115.037 215.536 114.765 215.936C114.493 216.336 114.357 216.912 114.357 217.664V221H113.301V214.568H114.153L114.309 215.444H114.369C114.577 215.108 114.865 214.86 115.233 214.7C115.601 214.532 115.989 214.448 116.397 214.448ZM122.999 221.12C122.199 221.12 121.559 220.844 121.079 220.292C120.599 219.732 120.359 218.9 120.359 217.796C120.359 216.692 120.599 215.86 121.079 215.3C121.567 214.732 122.211 214.448 123.011 214.448C123.507 214.448 123.911 214.54 124.223 214.724C124.543 214.908 124.803 215.132 125.003 215.396H125.075C125.059 215.292 125.043 215.14 125.027 214.94C125.011 214.732 125.003 214.568 125.003 214.448V211.88H126.059V221H125.207L125.051 220.136H125.003C124.811 220.408 124.555 220.64 124.235 220.832C123.915 221.024 123.503 221.12 122.999 221.12ZM123.167 220.244C123.847 220.244 124.323 220.06 124.595 219.692C124.875 219.316 125.015 218.752 125.015 218V217.808C125.015 217.008 124.883 216.396 124.619 215.972C124.355 215.54 123.867 215.324 123.155 215.324C122.587 215.324 122.159 215.552 121.871 216.008C121.591 216.456 121.451 217.06 121.451 217.82C121.451 218.588 121.591 219.184 121.871 219.608C122.159 220.032 122.591 220.244 123.167 220.244ZM134.219 214.448C134.339 214.448 134.467 214.456 134.603 214.472C134.739 214.48 134.863 214.496 134.975 214.52L134.843 215.492C134.739 215.468 134.623 215.448 134.495 215.432C134.367 215.416 134.251 215.408 134.147 215.408C133.819 215.408 133.511 215.5 133.223 215.684C132.935 215.86 132.703 216.112 132.527 216.44C132.359 216.76 132.275 217.136 132.275 217.568V221H131.219V214.568H132.083L132.203 215.744H132.251C132.451 215.392 132.715 215.088 133.043 214.832C133.379 214.576 133.771 214.448 134.219 214.448ZM138.426 214.448C138.97 214.448 139.442 214.568 139.842 214.808C140.242 215.048 140.546 215.388 140.754 215.828C140.97 216.26 141.078 216.768 141.078 217.352V217.988H136.674C136.69 218.716 136.874 219.272 137.226 219.656C137.586 220.032 138.086 220.22 138.726 220.22C139.134 220.22 139.494 220.184 139.806 220.112C140.126 220.032 140.454 219.92 140.79 219.776V220.7C140.462 220.844 140.138 220.948 139.818 221.012C139.498 221.084 139.118 221.12 138.678 221.12C138.062 221.12 137.522 220.996 137.058 220.748C136.594 220.5 136.23 220.132 135.966 219.644C135.71 219.156 135.582 218.552 135.582 217.832C135.582 217.128 135.698 216.524 135.93 216.02C136.17 215.516 136.502 215.128 136.926 214.856C137.358 214.584 137.858 214.448 138.426 214.448ZM138.414 215.312C137.91 215.312 137.51 215.476 137.214 215.804C136.926 216.124 136.754 216.572 136.698 217.148H139.974C139.966 216.604 139.838 216.164 139.59 215.828C139.342 215.484 138.95 215.312 138.414 215.312ZM146.999 223.88V221.132C146.999 220.988 147.003 220.82 147.011 220.628C147.019 220.436 147.035 220.272 147.059 220.136H146.987C146.803 220.408 146.547 220.64 146.219 220.832C145.899 221.024 145.483 221.12 144.971 221.12C144.195 221.12 143.563 220.844 143.075 220.292C142.595 219.732 142.355 218.9 142.355 217.796C142.355 216.692 142.599 215.86 143.087 215.3C143.583 214.732 144.223 214.448 145.007 214.448C145.511 214.448 145.923 214.544 146.243 214.736C146.563 214.928 146.819 215.164 147.011 215.444H147.059L147.215 214.568H148.055V223.88H146.999ZM145.175 220.244C145.831 220.244 146.299 220.064 146.579 219.704C146.859 219.336 147.003 218.776 147.011 218.024V217.808C147.011 216.992 146.875 216.376 146.603 215.96C146.331 215.536 145.847 215.324 145.151 215.324C144.575 215.324 144.147 215.552 143.867 216.008C143.587 216.456 143.447 217.06 143.447 217.82C143.447 218.58 143.587 219.176 143.867 219.608C144.147 220.032 144.583 220.244 145.175 220.244ZM155.474 214.568V221H154.61L154.454 220.148H154.406C154.198 220.484 153.91 220.732 153.542 220.892C153.174 221.044 152.782 221.12 152.366 221.12C151.59 221.12 151.006 220.936 150.614 220.568C150.222 220.192 150.026 219.596 150.026 218.78V214.568H151.094V218.708C151.094 219.732 151.57 220.244 152.522 220.244C153.234 220.244 153.726 220.044 153.998 219.644C154.278 219.244 154.418 218.668 154.418 217.916V214.568H155.474ZM160 214.448C160.544 214.448 161.016 214.568 161.416 214.808C161.816 215.048 162.12 215.388 162.328 215.828C162.544 216.26 162.652 216.768 162.652 217.352V217.988H158.248C158.264 218.716 158.448 219.272 158.8 219.656C159.16 220.032 159.66 220.22 160.3 220.22C160.708 220.22 161.068 220.184 161.38 220.112C161.7 220.032 162.028 219.92 162.364 219.776V220.7C162.036 220.844 161.712 220.948 161.392 221.012C161.072 221.084 160.692 221.12 160.252 221.12C159.636 221.12 159.096 220.996 158.632 220.748C158.168 220.5 157.804 220.132 157.54 219.644C157.284 219.156 157.156 218.552 157.156 217.832C157.156 217.128 157.272 216.524 157.504 216.02C157.744 215.516 158.076 215.128 158.5 214.856C158.932 214.584 159.432 214.448 160 214.448ZM159.988 215.312C159.484 215.312 159.084 215.476 158.788 215.804C158.5 216.124 158.328 216.572 158.272 217.148H161.548C161.54 216.604 161.412 216.164 161.164 215.828C160.916 215.484 160.524 215.312 159.988 215.312ZM168.478 219.224C168.478 219.848 168.246 220.32 167.782 220.64C167.318 220.96 166.694 221.12 165.91 221.12C165.462 221.12 165.074 221.084 164.746 221.012C164.426 220.94 164.142 220.84 163.894 220.712V219.752C164.15 219.88 164.458 220 164.818 220.112C165.186 220.216 165.558 220.268 165.934 220.268C166.47 220.268 166.858 220.184 167.098 220.016C167.338 219.84 167.458 219.608 167.458 219.32C167.458 219.16 167.414 219.016 167.326 218.888C167.238 218.76 167.078 218.632 166.846 218.504C166.622 218.376 166.298 218.232 165.874 218.072C165.458 217.912 165.102 217.752 164.806 217.592C164.51 217.432 164.282 217.24 164.122 217.016C163.962 216.792 163.882 216.504 163.882 216.152C163.882 215.608 164.102 215.188 164.542 214.892C164.99 214.596 165.574 214.448 166.294 214.448C166.686 214.448 167.05 214.488 167.386 214.568C167.73 214.648 168.05 214.752 168.346 214.88L167.986 215.72C167.714 215.608 167.43 215.512 167.134 215.432C166.838 215.352 166.534 215.312 166.222 215.312C165.79 215.312 165.458 215.384 165.226 215.528C165.002 215.664 164.89 215.852 164.89 216.092C164.89 216.276 164.942 216.428 165.046 216.548C165.15 216.668 165.322 216.788 165.562 216.908C165.81 217.028 166.138 217.164 166.546 217.316C166.954 217.468 167.302 217.624 167.59 217.784C167.878 217.944 168.098 218.14 168.25 218.372C168.402 218.596 168.478 218.88 168.478 219.224ZM172.18 220.256C172.34 220.256 172.504 220.244 172.672 220.22C172.84 220.196 172.976 220.164 173.08 220.124V220.928C172.968 220.984 172.808 221.028 172.6 221.06C172.392 221.1 172.192 221.12 172 221.12C171.664 221.12 171.352 221.064 171.064 220.952C170.784 220.832 170.556 220.628 170.38 220.34C170.204 220.052 170.116 219.648 170.116 219.128V215.384H169.204V214.88L170.128 214.46L170.548 213.092H171.172V214.568H173.032V215.384H171.172V219.104C171.172 219.496 171.264 219.788 171.448 219.98C171.64 220.164 171.884 220.256 172.18 220.256ZM179.921 214.46C180.705 214.46 181.285 214.632 181.661 214.976C182.037 215.32 182.225 215.868 182.225 216.62V221H181.457L181.253 220.088H181.205C180.925 220.44 180.629 220.7 180.317 220.868C180.005 221.036 179.581 221.12 179.045 221.12C178.461 221.12 177.977 220.968 177.593 220.664C177.209 220.352 177.017 219.868 177.017 219.212C177.017 218.572 177.269 218.08 177.773 217.736C178.277 217.384 179.053 217.192 180.101 217.16L181.193 217.124V216.74C181.193 216.204 181.077 215.832 180.845 215.624C180.613 215.416 180.285 215.312 179.861 215.312C179.525 215.312 179.205 215.364 178.901 215.468C178.597 215.564 178.313 215.676 178.049 215.804L177.725 215.012C178.005 214.86 178.337 214.732 178.721 214.628C179.105 214.516 179.505 214.46 179.921 214.46ZM181.181 217.856L180.233 217.892C179.433 217.924 178.877 218.052 178.565 218.276C178.261 218.5 178.109 218.816 178.109 219.224C178.109 219.584 178.217 219.848 178.433 220.016C178.657 220.184 178.941 220.268 179.285 220.268C179.821 220.268 180.269 220.12 180.629 219.824C180.997 219.52 181.181 219.056 181.181 218.432V217.856ZM190.389 214.448C191.181 214.448 191.817 214.724 192.297 215.276C192.785 215.828 193.029 216.66 193.029 217.772C193.029 218.868 192.785 219.7 192.297 220.268C191.817 220.836 191.177 221.12 190.377 221.12C189.881 221.12 189.469 221.028 189.141 220.844C188.821 220.66 188.569 220.44 188.385 220.184H188.313C188.321 220.32 188.333 220.492 188.349 220.7C188.373 220.908 188.385 221.088 188.385 221.24V223.88H187.329V214.568H188.193L188.337 215.444H188.385C188.577 215.164 188.829 214.928 189.141 214.736C189.453 214.544 189.869 214.448 190.389 214.448ZM190.197 215.336C189.541 215.336 189.077 215.52 188.805 215.888C188.533 216.256 188.393 216.816 188.385 217.568V217.772C188.385 218.564 188.513 219.176 188.769 219.608C189.033 220.032 189.517 220.244 190.221 220.244C190.605 220.244 190.925 220.14 191.181 219.932C191.437 219.716 191.625 219.42 191.745 219.044C191.873 218.668 191.937 218.24 191.937 217.76C191.937 217.024 191.793 216.436 191.505 215.996C191.225 215.556 190.789 215.336 190.197 215.336ZM197.147 214.46C197.931 214.46 198.511 214.632 198.887 214.976C199.263 215.32 199.451 215.868 199.451 216.62V221H198.683L198.479 220.088H198.431C198.151 220.44 197.855 220.7 197.543 220.868C197.231 221.036 196.807 221.12 196.271 221.12C195.687 221.12 195.203 220.968 194.819 220.664C194.435 220.352 194.243 219.868 194.243 219.212C194.243 218.572 194.495 218.08 194.999 217.736C195.503 217.384 196.279 217.192 197.327 217.16L198.419 217.124V216.74C198.419 216.204 198.303 215.832 198.071 215.624C197.839 215.416 197.511 215.312 197.087 215.312C196.751 215.312 196.431 215.364 196.127 215.468C195.823 215.564 195.539 215.676 195.275 215.804L194.951 215.012C195.231 214.86 195.563 214.732 195.947 214.628C196.331 214.516 196.731 214.46 197.147 214.46ZM198.407 217.856L197.459 217.892C196.659 217.924 196.103 218.052 195.791 218.276C195.487 218.5 195.335 218.816 195.335 219.224C195.335 219.584 195.443 219.848 195.659 220.016C195.883 220.184 196.167 220.268 196.511 220.268C197.047 220.268 197.495 220.12 197.855 219.824C198.223 219.52 198.407 219.056 198.407 218.432V217.856ZM205.626 219.224C205.626 219.848 205.394 220.32 204.93 220.64C204.466 220.96 203.842 221.12 203.058 221.12C202.61 221.12 202.222 221.084 201.894 221.012C201.574 220.94 201.29 220.84 201.042 220.712V219.752C201.298 219.88 201.606 220 201.966 220.112C202.334 220.216 202.706 220.268 203.082 220.268C203.618 220.268 204.006 220.184 204.246 220.016C204.486 219.84 204.606 219.608 204.606 219.32C204.606 219.16 204.562 219.016 204.474 218.888C204.386 218.76 204.226 218.632 203.994 218.504C203.77 218.376 203.446 218.232 203.022 218.072C202.606 217.912 202.25 217.752 201.954 217.592C201.658 217.432 201.43 217.24 201.27 217.016C201.11 216.792 201.03 216.504 201.03 216.152C201.03 215.608 201.25 215.188 201.69 214.892C202.138 214.596 202.722 214.448 203.442 214.448C203.834 214.448 204.198 214.488 204.534 214.568C204.878 214.648 205.198 214.752 205.494 214.88L205.134 215.72C204.862 215.608 204.578 215.512 204.282 215.432C203.986 215.352 203.682 215.312 203.37 215.312C202.938 215.312 202.606 215.384 202.374 215.528C202.15 215.664 202.038 215.852 202.038 216.092C202.038 216.276 202.09 216.428 202.194 216.548C202.298 216.668 202.47 216.788 202.71 216.908C202.958 217.028 203.286 217.164 203.694 217.316C204.102 217.468 204.45 217.624 204.738 217.784C205.026 217.944 205.246 218.14 205.398 218.372C205.55 218.596 205.626 218.88 205.626 219.224ZM211.368 219.224C211.368 219.848 211.136 220.32 210.672 220.64C210.208 220.96 209.584 221.12 208.8 221.12C208.352 221.12 207.964 221.084 207.636 221.012C207.316 220.94 207.032 220.84 206.784 220.712V219.752C207.04 219.88 207.348 220 207.708 220.112C208.076 220.216 208.448 220.268 208.824 220.268C209.36 220.268 209.748 220.184 209.988 220.016C210.228 219.84 210.348 219.608 210.348 219.32C210.348 219.16 210.304 219.016 210.216 218.888C210.128 218.76 209.968 218.632 209.736 218.504C209.512 218.376 209.188 218.232 208.764 218.072C208.348 217.912 207.992 217.752 207.696 217.592C207.4 217.432 207.172 217.24 207.012 217.016C206.852 216.792 206.772 216.504 206.772 216.152C206.772 215.608 206.992 215.188 207.432 214.892C207.88 214.596 208.464 214.448 209.184 214.448C209.576 214.448 209.94 214.488 210.276 214.568C210.62 214.648 210.94 214.752 211.236 214.88L210.876 215.72C210.604 215.608 210.32 215.512 210.024 215.432C209.728 215.352 209.424 215.312 209.112 215.312C208.68 215.312 208.348 215.384 208.116 215.528C207.892 215.664 207.78 215.852 207.78 216.092C207.78 216.276 207.832 216.428 207.936 216.548C208.04 216.668 208.212 216.788 208.452 216.908C208.7 217.028 209.028 217.164 209.436 217.316C209.844 217.468 210.192 217.624 210.48 217.784C210.768 217.944 210.988 218.14 211.14 218.372C211.292 218.596 211.368 218.88 211.368 219.224ZM218.178 220.988L217.074 217.364C216.97 217.036 216.878 216.716 216.798 216.404C216.718 216.092 216.662 215.844 216.63 215.66H216.582C216.55 215.844 216.498 216.092 216.426 216.404C216.354 216.716 216.262 217.04 216.15 217.376L214.998 220.988H213.798L212.034 214.556H213.126L214.014 217.988C214.102 218.332 214.186 218.68 214.266 219.032C214.346 219.384 214.402 219.676 214.434 219.908H214.482C214.506 219.772 214.542 219.604 214.59 219.404C214.638 219.204 214.69 218.996 214.746 218.78C214.802 218.556 214.858 218.356 214.914 218.18L216.054 214.556H217.206L218.31 218.18C218.39 218.46 218.474 218.76 218.562 219.08C218.65 219.4 218.71 219.672 218.742 219.896H218.79C218.814 219.696 218.866 219.42 218.946 219.068C219.034 218.716 219.126 218.356 219.222 217.988L220.122 214.556H221.202L219.414 220.988H218.178ZM227.948 217.772C227.948 218.836 227.676 219.66 227.132 220.244C226.596 220.828 225.868 221.12 224.948 221.12C224.38 221.12 223.872 220.992 223.424 220.736C222.984 220.472 222.636 220.092 222.38 219.596C222.124 219.092 221.996 218.484 221.996 217.772C221.996 216.708 222.26 215.888 222.788 215.312C223.324 214.736 224.056 214.448 224.984 214.448C225.56 214.448 226.072 214.58 226.52 214.844C226.968 215.1 227.316 215.476 227.564 215.972C227.82 216.46 227.948 217.06 227.948 217.772ZM223.088 217.772C223.088 218.532 223.236 219.136 223.532 219.584C223.836 220.024 224.316 220.244 224.972 220.244C225.62 220.244 226.096 220.024 226.4 219.584C226.704 219.136 226.856 218.532 226.856 217.772C226.856 217.012 226.704 216.416 226.4 215.984C226.096 215.552 225.616 215.336 224.96 215.336C224.304 215.336 223.828 215.552 223.532 215.984C223.236 216.416 223.088 217.012 223.088 217.772ZM232.622 214.448C232.742 214.448 232.87 214.456 233.006 214.472C233.142 214.48 233.266 214.496 233.378 214.52L233.246 215.492C233.142 215.468 233.026 215.448 232.898 215.432C232.77 215.416 232.654 215.408 232.55 215.408C232.222 215.408 231.914 215.5 231.626 215.684C231.338 215.86 231.106 216.112 230.93 216.44C230.762 216.76 230.678 217.136 230.678 217.568V221H229.622V214.568H230.486L230.606 215.744H230.654C230.854 215.392 231.118 215.088 231.446 214.832C231.782 214.576 232.174 214.448 232.622 214.448ZM236.624 221.12C235.824 221.12 235.184 220.844 234.704 220.292C234.224 219.732 233.984 218.9 233.984 217.796C233.984 216.692 234.224 215.86 234.704 215.3C235.192 214.732 235.836 214.448 236.636 214.448C237.132 214.448 237.536 214.54 237.848 214.724C238.168 214.908 238.428 215.132 238.628 215.396H238.7C238.684 215.292 238.668 215.14 238.652 214.94C238.636 214.732 238.628 214.568 238.628 214.448V211.88H239.684V221H238.832L238.676 220.136H238.628C238.436 220.408 238.18 220.64 237.86 220.832C237.54 221.024 237.128 221.12 236.624 221.12ZM236.792 220.244C237.472 220.244 237.948 220.06 238.22 219.692C238.5 219.316 238.64 218.752 238.64 218V217.808C238.64 217.008 238.508 216.396 238.244 215.972C237.98 215.54 237.492 215.324 236.78 215.324C236.212 215.324 235.784 215.552 235.496 216.008C235.216 216.456 235.076 217.06 235.076 217.82C235.076 218.588 235.216 219.184 235.496 219.608C235.784 220.032 236.216 220.244 236.792 220.244ZM247.844 214.448C247.964 214.448 248.092 214.456 248.228 214.472C248.364 214.48 248.488 214.496 248.6 214.52L248.468 215.492C248.364 215.468 248.248 215.448 248.12 215.432C247.992 215.416 247.876 215.408 247.772 215.408C247.444 215.408 247.136 215.5 246.848 215.684C246.56 215.86 246.328 216.112 246.152 216.44C245.984 216.76 245.9 217.136 245.9 217.568V221H244.844V214.568H245.708L245.828 215.744H245.876C246.076 215.392 246.34 215.088 246.668 214.832C247.004 214.576 247.396 214.448 247.844 214.448ZM252.051 214.448C252.595 214.448 253.067 214.568 253.467 214.808C253.867 215.048 254.171 215.388 254.379 215.828C254.595 216.26 254.703 216.768 254.703 217.352V217.988H250.299C250.315 218.716 250.499 219.272 250.851 219.656C251.211 220.032 251.711 220.22 252.351 220.22C252.759 220.22 253.119 220.184 253.431 220.112C253.751 220.032 254.079 219.92 254.415 219.776V220.7C254.087 220.844 253.763 220.948 253.443 221.012C253.123 221.084 252.743 221.12 252.303 221.12C251.687 221.12 251.147 220.996 250.683 220.748C250.219 220.5 249.855 220.132 249.591 219.644C249.335 219.156 249.207 218.552 249.207 217.832C249.207 217.128 249.323 216.524 249.555 216.02C249.795 215.516 250.127 215.128 250.551 214.856C250.983 214.584 251.483 214.448 252.051 214.448ZM252.039 215.312C251.535 215.312 251.135 215.476 250.839 215.804C250.551 216.124 250.379 216.572 250.323 217.148H253.599C253.591 216.604 253.463 216.164 253.215 215.828C252.967 215.484 252.575 215.312 252.039 215.312ZM260.528 219.224C260.528 219.848 260.296 220.32 259.832 220.64C259.368 220.96 258.744 221.12 257.96 221.12C257.512 221.12 257.124 221.084 256.796 221.012C256.476 220.94 256.192 220.84 255.944 220.712V219.752C256.2 219.88 256.508 220 256.868 220.112C257.236 220.216 257.608 220.268 257.984 220.268C258.52 220.268 258.908 220.184 259.148 220.016C259.388 219.84 259.508 219.608 259.508 219.32C259.508 219.16 259.464 219.016 259.376 218.888C259.288 218.76 259.128 218.632 258.896 218.504C258.672 218.376 258.348 218.232 257.924 218.072C257.508 217.912 257.152 217.752 256.856 217.592C256.56 217.432 256.332 217.24 256.172 217.016C256.012 216.792 255.932 216.504 255.932 216.152C255.932 215.608 256.152 215.188 256.592 214.892C257.04 214.596 257.624 214.448 258.344 214.448C258.736 214.448 259.1 214.488 259.436 214.568C259.78 214.648 260.1 214.752 260.396 214.88L260.036 215.72C259.764 215.608 259.48 215.512 259.184 215.432C258.888 215.352 258.584 215.312 258.272 215.312C257.84 215.312 257.508 215.384 257.276 215.528C257.052 215.664 256.94 215.852 256.94 216.092C256.94 216.276 256.992 216.428 257.096 216.548C257.2 216.668 257.372 216.788 257.612 216.908C257.86 217.028 258.188 217.164 258.596 217.316C259.004 217.468 259.352 217.624 259.64 217.784C259.928 217.944 260.148 218.14 260.3 218.372C260.452 218.596 260.528 218.88 260.528 219.224ZM264.567 214.448C265.111 214.448 265.583 214.568 265.983 214.808C266.383 215.048 266.687 215.388 266.895 215.828C267.111 216.26 267.219 216.768 267.219 217.352V217.988H262.815C262.831 218.716 263.015 219.272 263.367 219.656C263.727 220.032 264.227 220.22 264.867 220.22C265.275 220.22 265.635 220.184 265.947 220.112C266.267 220.032 266.595 219.92 266.931 219.776V220.7C266.603 220.844 266.279 220.948 265.959 221.012C265.639 221.084 265.259 221.12 264.819 221.12C264.203 221.12 263.663 220.996 263.199 220.748C262.735 220.5 262.371 220.132 262.107 219.644C261.851 219.156 261.723 218.552 261.723 217.832C261.723 217.128 261.839 216.524 262.071 216.02C262.311 215.516 262.643 215.128 263.067 214.856C263.499 214.584 263.999 214.448 264.567 214.448ZM264.555 215.312C264.051 215.312 263.651 215.476 263.355 215.804C263.067 216.124 262.895 216.572 262.839 217.148H266.115C266.107 216.604 265.979 216.164 265.731 215.828C265.483 215.484 265.091 215.312 264.555 215.312ZM271.004 220.256C271.164 220.256 271.328 220.244 271.496 220.22C271.664 220.196 271.8 220.164 271.904 220.124V220.928C271.792 220.984 271.632 221.028 271.424 221.06C271.216 221.1 271.016 221.12 270.824 221.12C270.488 221.12 270.176 221.064 269.888 220.952C269.608 220.832 269.38 220.628 269.204 220.34C269.028 220.052 268.94 219.648 268.94 219.128V215.384H268.028V214.88L268.952 214.46L269.372 213.092H269.996V214.568H271.856V215.384H269.996V219.104C269.996 219.496 270.088 219.788 270.272 219.98C270.464 220.164 270.708 220.256 271.004 220.256ZM276.849 212.156C277.009 212.156 277.149 212.212 277.269 212.324C277.397 212.428 277.461 212.596 277.461 212.828C277.461 213.06 277.397 213.232 277.269 213.344C277.149 213.448 277.009 213.5 276.849 213.5C276.673 213.5 276.525 213.448 276.405 213.344C276.285 213.232 276.225 213.06 276.225 212.828C276.225 212.596 276.285 212.428 276.405 212.324C276.525 212.212 276.673 212.156 276.849 212.156ZM277.365 214.568V221H276.309V214.568H277.365ZM282.367 215.384H280.747V221H279.691V215.384H278.563V214.892L279.691 214.532V214.16C279.691 213.328 279.871 212.732 280.231 212.372C280.599 212.004 281.115 211.82 281.779 211.82C282.027 211.82 282.259 211.844 282.475 211.892C282.691 211.932 282.875 211.98 283.027 212.036L282.751 212.864C282.623 212.824 282.475 212.784 282.307 212.744C282.139 212.704 281.967 212.684 281.791 212.684C281.439 212.684 281.175 212.804 280.999 213.044C280.831 213.276 280.747 213.644 280.747 214.148V214.568H282.367V215.384ZM56.02 230.448C56.14 230.448 56.268 230.456 56.404 230.472C56.54 230.48 56.664 230.496 56.776 230.52L56.644 231.492C56.54 231.468 56.424 231.448 56.296 231.432C56.168 231.416 56.052 231.408 55.948 231.408C55.62 231.408 55.312 231.5 55.024 231.684C54.736 231.86 54.504 232.112 54.328 232.44C54.16 232.76 54.076 233.136 54.076 233.568V237H53.02V230.568H53.884L54.004 231.744H54.052C54.252 231.392 54.516 231.088 54.844 230.832C55.18 230.576 55.572 230.448 56.02 230.448ZM60.2267 230.448C60.7707 230.448 61.2427 230.568 61.6427 230.808C62.0427 231.048 62.3467 231.388 62.5547 231.828C62.7707 232.26 62.8787 232.768 62.8787 233.352V233.988H58.4747C58.4907 234.716 58.6747 235.272 59.0267 235.656C59.3867 236.032 59.8867 236.22 60.5267 236.22C60.9347 236.22 61.2947 236.184 61.6067 236.112C61.9267 236.032 62.2547 235.92 62.5907 235.776V236.7C62.2627 236.844 61.9387 236.948 61.6187 237.012C61.2987 237.084 60.9187 237.12 60.4787 237.12C59.8627 237.12 59.3227 236.996 58.8587 236.748C58.3947 236.5 58.0307 236.132 57.7667 235.644C57.5107 235.156 57.3827 234.552 57.3827 233.832C57.3827 233.128 57.4987 232.524 57.7307 232.02C57.9707 231.516 58.3027 231.128 58.7267 230.856C59.1587 230.584 59.6587 230.448 60.2267 230.448ZM60.2147 231.312C59.7107 231.312 59.3107 231.476 59.0147 231.804C58.7267 232.124 58.5547 232.572 58.4987 233.148H61.7747C61.7667 232.604 61.6387 232.164 61.3907 231.828C61.1427 231.484 60.7507 231.312 60.2147 231.312ZM68.8001 239.88V237.132C68.8001 236.988 68.8041 236.82 68.8121 236.628C68.8201 236.436 68.8361 236.272 68.8601 236.136H68.7881C68.6041 236.408 68.3481 236.64 68.0201 236.832C67.7001 237.024 67.2841 237.12 66.7721 237.12C65.9961 237.12 65.3641 236.844 64.8761 236.292C64.3961 235.732 64.1561 234.9 64.1561 233.796C64.1561 232.692 64.4001 231.86 64.8881 231.3C65.3841 230.732 66.0241 230.448 66.8081 230.448C67.3121 230.448 67.7241 230.544 68.0441 230.736C68.3641 230.928 68.6201 231.164 68.8121 231.444H68.8601L69.0161 230.568H69.8561V239.88H68.8001ZM66.9761 236.244C67.6321 236.244 68.1001 236.064 68.3801 235.704C68.6601 235.336 68.8041 234.776 68.8121 234.024V233.808C68.8121 232.992 68.6761 232.376 68.4041 231.96C68.1321 231.536 67.6481 231.324 66.9521 231.324C66.3761 231.324 65.9481 231.552 65.6681 232.008C65.3881 232.456 65.2481 233.06 65.2481 233.82C65.2481 234.58 65.3881 235.176 65.6681 235.608C65.9481 236.032 66.3841 236.244 66.9761 236.244ZM77.2749 230.568V237H76.4109L76.2549 236.148H76.2069C75.9989 236.484 75.7109 236.732 75.3429 236.892C74.9749 237.044 74.5829 237.12 74.1669 237.12C73.3909 237.12 72.8069 236.936 72.4149 236.568C72.0229 236.192 71.8269 235.596 71.8269 234.78V230.568H72.8949V234.708C72.8949 235.732 73.3709 236.244 74.3229 236.244C75.0349 236.244 75.5269 236.044 75.7989 235.644C76.0789 235.244 76.2189 234.668 76.2189 233.916V230.568H77.2749ZM79.8569 228.156C80.0169 228.156 80.1569 228.212 80.2769 228.324C80.4049 228.428 80.4689 228.596 80.4689 228.828C80.4689 229.06 80.4049 229.232 80.2769 229.344C80.1569 229.448 80.0169 229.5 79.8569 229.5C79.6809 229.5 79.5329 229.448 79.4129 229.344C79.2929 229.232 79.2329 229.06 79.2329 228.828C79.2329 228.596 79.2929 228.428 79.4129 228.324C79.5329 228.212 79.6809 228.156 79.8569 228.156ZM80.3729 230.568V237H79.3169V230.568H80.3729ZM85.4106 230.448C85.5306 230.448 85.6586 230.456 85.7946 230.472C85.9306 230.48 86.0546 230.496 86.1666 230.52L86.0346 231.492C85.9306 231.468 85.8146 231.448 85.6866 231.432C85.5586 231.416 85.4426 231.408 85.3386 231.408C85.0106 231.408 84.7026 231.5 84.4146 231.684C84.1266 231.86 83.8946 232.112 83.7186 232.44C83.5506 232.76 83.4666 233.136 83.4666 233.568V237H82.4106V230.568H83.2746L83.3946 231.744H83.4426C83.6426 231.392 83.9066 231.088 84.2346 230.832C84.5706 230.576 84.9626 230.448 85.4106 230.448ZM89.6173 230.448C90.1613 230.448 90.6333 230.568 91.0333 230.808C91.4333 231.048 91.7373 231.388 91.9453 231.828C92.1613 232.26 92.2693 232.768 92.2693 233.352V233.988H87.8653C87.8813 234.716 88.0653 235.272 88.4173 235.656C88.7773 236.032 89.2773 236.22 89.9173 236.22C90.3253 236.22 90.6853 236.184 90.9973 236.112C91.3173 236.032 91.6453 235.92 91.9813 235.776V236.7C91.6533 236.844 91.3293 236.948 91.0093 237.012C90.6893 237.084 90.3093 237.12 89.8693 237.12C89.2533 237.12 88.7133 236.996 88.2493 236.748C87.7853 236.5 87.4213 236.132 87.1573 235.644C86.9013 235.156 86.7733 234.552 86.7733 233.832C86.7733 233.128 86.8893 232.524 87.1213 232.02C87.3613 231.516 87.6933 231.128 88.1173 230.856C88.5493 230.584 89.0493 230.448 89.6173 230.448ZM89.6053 231.312C89.1013 231.312 88.7013 231.476 88.4053 231.804C88.1173 232.124 87.9453 232.572 87.8893 233.148H91.1653C91.1573 232.604 91.0293 232.164 90.7813 231.828C90.5333 231.484 90.1413 231.312 89.6053 231.312ZM96.1867 237.12C95.3867 237.12 94.7467 236.844 94.2667 236.292C93.7867 235.732 93.5467 234.9 93.5467 233.796C93.5467 232.692 93.7867 231.86 94.2667 231.3C94.7547 230.732 95.3987 230.448 96.1987 230.448C96.6947 230.448 97.0987 230.54 97.4107 230.724C97.7307 230.908 97.9907 231.132 98.1907 231.396H98.2627C98.2467 231.292 98.2307 231.14 98.2147 230.94C98.1987 230.732 98.1907 230.568 98.1907 230.448V227.88H99.2467V237H98.3947L98.2387 236.136H98.1907C97.9987 236.408 97.7427 236.64 97.4227 236.832C97.1027 237.024 96.6907 237.12 96.1867 237.12ZM96.3547 236.244C97.0347 236.244 97.5107 236.06 97.7827 235.692C98.0627 235.316 98.2027 234.752 98.2027 234V233.808C98.2027 233.008 98.0707 232.396 97.8067 231.972C97.5427 231.54 97.0547 231.324 96.3427 231.324C95.7747 231.324 95.3467 231.552 95.0587 232.008C94.7787 232.456 94.6387 233.06 94.6387 233.82C94.6387 234.588 94.7787 235.184 95.0587 235.608C95.3467 236.032 95.7787 236.244 96.3547 236.244ZM101.134 236.352C101.134 236.056 101.206 235.848 101.35 235.728C101.494 235.608 101.666 235.548 101.866 235.548C102.066 235.548 102.242 235.608 102.394 235.728C102.546 235.848 102.622 236.056 102.622 236.352C102.622 236.64 102.546 236.848 102.394 236.976C102.242 237.104 102.066 237.168 101.866 237.168C101.666 237.168 101.494 237.104 101.35 236.976C101.206 236.848 101.134 236.64 101.134 236.352Z" fill="black"/>
<rect x="40.5" y="184.5" width="331" height="95" rx="1.5" stroke="#939393"/>
</svg>
