<svg width="428" height="124" viewBox="0 0 428 124" fill="none" xmlns="http://www.w3.org/2000/svg">
<rect width="428" height="124" fill="white"/>
<path d="M120.164 37V28.432H121.244V36.04H124.988V37H120.164ZM128.749 30.46C129.533 30.46 130.113 30.632 130.489 30.976C130.865 31.32 131.053 31.868 131.053 32.62V37H130.285L130.081 36.088H130.033C129.753 36.44 129.457 36.7 129.145 36.868C128.833 37.036 128.409 37.12 127.873 37.12C127.289 37.12 126.805 36.968 126.421 36.664C126.037 36.352 125.845 35.868 125.845 35.212C125.845 34.572 126.097 34.08 126.601 33.736C127.105 33.384 127.881 33.192 128.929 33.16L130.021 33.124V32.74C130.021 32.204 129.905 31.832 129.673 31.624C129.441 31.416 129.113 31.312 128.689 31.312C128.353 31.312 128.033 31.364 127.729 31.468C127.425 31.564 127.141 31.676 126.877 31.804L126.553 31.012C126.833 30.86 127.165 30.732 127.549 30.628C127.933 30.516 128.333 30.46 128.749 30.46ZM130.009 33.856L129.061 33.892C128.261 33.924 127.705 34.052 127.393 34.276C127.089 34.5 126.937 34.816 126.937 35.224C126.937 35.584 127.045 35.848 127.261 36.016C127.485 36.184 127.769 36.268 128.113 36.268C128.649 36.268 129.097 36.12 129.457 35.824C129.825 35.52 130.009 35.056 130.009 34.432V33.856ZM134.096 27.88V30.1C134.096 30.372 134.088 30.628 134.072 30.868C134.064 31.1 134.052 31.284 134.036 31.42H134.096C134.28 31.148 134.532 30.92 134.852 30.736C135.172 30.552 135.584 30.46 136.088 30.46C136.888 30.46 137.528 30.74 138.008 31.3C138.496 31.852 138.74 32.68 138.74 33.784C138.74 34.888 138.496 35.72 138.008 36.28C137.52 36.84 136.88 37.12 136.088 37.12C135.584 37.12 135.172 37.028 134.852 36.844C134.532 36.66 134.28 36.44 134.096 36.184H134.012L133.796 37H133.04V27.88H134.096ZM135.908 31.336C135.22 31.336 134.744 31.532 134.48 31.924C134.224 32.316 134.096 32.924 134.096 33.748V33.796C134.096 34.588 134.224 35.196 134.48 35.62C134.744 36.036 135.228 36.244 135.932 36.244C136.508 36.244 136.936 36.032 137.216 35.608C137.504 35.184 137.648 34.572 137.648 33.772C137.648 32.148 137.068 31.336 135.908 31.336ZM142.906 30.448C143.45 30.448 143.922 30.568 144.322 30.808C144.722 31.048 145.026 31.388 145.234 31.828C145.45 32.26 145.558 32.768 145.558 33.352V33.988H141.154C141.17 34.716 141.354 35.272 141.706 35.656C142.066 36.032 142.566 36.22 143.206 36.22C143.614 36.22 143.974 36.184 144.286 36.112C144.606 36.032 144.934 35.92 145.27 35.776V36.7C144.942 36.844 144.618 36.948 144.298 37.012C143.978 37.084 143.598 37.12 143.158 37.12C142.542 37.12 142.002 36.996 141.538 36.748C141.074 36.5 140.71 36.132 140.446 35.644C140.19 35.156 140.062 34.552 140.062 33.832C140.062 33.128 140.178 32.524 140.41 32.02C140.65 31.516 140.982 31.128 141.406 30.856C141.838 30.584 142.338 30.448 142.906 30.448ZM142.894 31.312C142.39 31.312 141.99 31.476 141.694 31.804C141.406 32.124 141.234 32.572 141.178 33.148H144.454C144.446 32.604 144.318 32.164 144.07 31.828C143.822 31.484 143.43 31.312 142.894 31.312ZM148.252 37H147.196V27.88H148.252V37Z" fill="#323232"/>
<rect x="119.5" y="44.5" width="199" height="35" rx="1.5" fill="white"/>
<path d="M135.522 67H134.262V58.11H131.14V57.004H138.63V58.11H135.522V67ZM141.883 59.356C142.518 59.356 143.068 59.496 143.535 59.776C144.002 60.056 144.356 60.4527 144.599 60.966C144.851 61.47 144.977 62.0627 144.977 62.744V63.486H139.839C139.858 64.3353 140.072 64.984 140.483 65.432C140.903 65.8707 141.486 66.09 142.233 66.09C142.709 66.09 143.129 66.048 143.493 65.964C143.866 65.8707 144.249 65.74 144.641 65.572V66.65C144.258 66.818 143.88 66.9393 143.507 67.014C143.134 67.098 142.69 67.14 142.177 67.14C141.458 67.14 140.828 66.9953 140.287 66.706C139.746 66.4167 139.321 65.9873 139.013 65.418C138.714 64.8487 138.565 64.144 138.565 63.304C138.565 62.4827 138.7 61.778 138.971 61.19C139.251 60.602 139.638 60.1493 140.133 59.832C140.637 59.5147 141.22 59.356 141.883 59.356ZM141.869 60.364C141.281 60.364 140.814 60.5553 140.469 60.938C140.133 61.3113 139.932 61.834 139.867 62.506H143.689C143.68 61.8713 143.53 61.358 143.241 60.966C142.952 60.5647 142.494 60.364 141.869 60.364ZM148.392 63.164L145.802 59.496H147.202L149.134 62.324L151.052 59.496H152.438L149.848 63.164L152.578 67H151.178L149.134 64.004L147.062 67H145.676L148.392 63.164ZM156.53 66.132C156.717 66.132 156.908 66.118 157.104 66.09C157.3 66.062 157.459 66.0247 157.58 65.978V66.916C157.449 66.9813 157.263 67.0327 157.02 67.07C156.777 67.1167 156.544 67.14 156.32 67.14C155.928 67.14 155.564 67.0747 155.228 66.944C154.901 66.804 154.635 66.566 154.43 66.23C154.225 65.894 154.122 65.4227 154.122 64.816V60.448H153.058V59.86L154.136 59.37L154.626 57.774H155.354V59.496H157.524V60.448H155.354V64.788C155.354 65.2453 155.461 65.586 155.676 65.81C155.9 66.0247 156.185 66.132 156.53 66.132Z" fill="black"/>
<rect x="119.5" y="44.5" width="199" height="35" rx="1.5" stroke="#939393"/>
<path d="M125.54 97L124.508 94.348H121.112L120.092 97H119L122.348 88.396H123.32L126.656 97H125.54ZM124.184 93.388L123.224 90.796C123.2 90.732 123.16 90.616 123.104 90.448C123.048 90.28 122.992 90.108 122.936 89.932C122.888 89.748 122.848 89.608 122.816 89.512C122.752 89.76 122.684 90.004 122.612 90.244C122.548 90.476 122.492 90.66 122.444 90.796L121.472 93.388H124.184ZM129.964 97.12C129.164 97.12 128.524 96.844 128.044 96.292C127.564 95.732 127.324 94.9 127.324 93.796C127.324 92.692 127.564 91.86 128.044 91.3C128.532 90.732 129.176 90.448 129.976 90.448C130.472 90.448 130.876 90.54 131.188 90.724C131.508 90.908 131.768 91.132 131.968 91.396H132.04C132.024 91.292 132.008 91.14 131.992 90.94C131.976 90.732 131.968 90.568 131.968 90.448V87.88H133.024V97H132.172L132.016 96.136H131.968C131.776 96.408 131.52 96.64 131.2 96.832C130.88 97.024 130.468 97.12 129.964 97.12ZM130.132 96.244C130.812 96.244 131.288 96.06 131.56 95.692C131.84 95.316 131.98 94.752 131.98 94V93.808C131.98 93.008 131.848 92.396 131.584 91.972C131.32 91.54 130.832 91.324 130.12 91.324C129.552 91.324 129.124 91.552 128.836 92.008C128.556 92.456 128.416 93.06 128.416 93.82C128.416 94.588 128.556 95.184 128.836 95.608C129.124 96.032 129.556 96.244 130.132 96.244ZM137.347 97.12C136.547 97.12 135.907 96.844 135.427 96.292C134.947 95.732 134.707 94.9 134.707 93.796C134.707 92.692 134.947 91.86 135.427 91.3C135.915 90.732 136.559 90.448 137.359 90.448C137.855 90.448 138.259 90.54 138.571 90.724C138.891 90.908 139.151 91.132 139.351 91.396H139.423C139.407 91.292 139.391 91.14 139.375 90.94C139.359 90.732 139.351 90.568 139.351 90.448V87.88H140.407V97H139.555L139.399 96.136H139.351C139.159 96.408 138.903 96.64 138.583 96.832C138.263 97.024 137.851 97.12 137.347 97.12ZM137.515 96.244C138.195 96.244 138.671 96.06 138.943 95.692C139.223 95.316 139.363 94.752 139.363 94V93.808C139.363 93.008 139.231 92.396 138.967 91.972C138.703 91.54 138.215 91.324 137.503 91.324C136.935 91.324 136.507 91.552 136.219 92.008C135.939 92.456 135.799 93.06 135.799 93.82C135.799 94.588 135.939 95.184 136.219 95.608C136.507 96.032 136.939 96.244 137.515 96.244ZM142.99 88.156C143.15 88.156 143.29 88.212 143.41 88.324C143.538 88.428 143.602 88.596 143.602 88.828C143.602 89.06 143.538 89.232 143.41 89.344C143.29 89.448 143.15 89.5 142.99 89.5C142.814 89.5 142.666 89.448 142.546 89.344C142.426 89.232 142.366 89.06 142.366 88.828C142.366 88.596 142.426 88.428 142.546 88.324C142.666 88.212 142.814 88.156 142.99 88.156ZM143.506 90.568V97H142.45V90.568H143.506ZM147.691 96.256C147.851 96.256 148.015 96.244 148.183 96.22C148.351 96.196 148.487 96.164 148.591 96.124V96.928C148.479 96.984 148.319 97.028 148.111 97.06C147.903 97.1 147.703 97.12 147.511 97.12C147.175 97.12 146.863 97.064 146.575 96.952C146.295 96.832 146.067 96.628 145.891 96.34C145.715 96.052 145.627 95.648 145.627 95.128V91.384H144.715V90.88L145.639 90.46L146.059 89.092H146.683V90.568H148.543V91.384H146.683V95.104C146.683 95.496 146.775 95.788 146.959 95.98C147.151 96.164 147.395 96.256 147.691 96.256ZM150.419 88.156C150.579 88.156 150.719 88.212 150.839 88.324C150.967 88.428 151.031 88.596 151.031 88.828C151.031 89.06 150.967 89.232 150.839 89.344C150.719 89.448 150.579 89.5 150.419 89.5C150.243 89.5 150.095 89.448 149.975 89.344C149.855 89.232 149.795 89.06 149.795 88.828C149.795 88.596 149.855 88.428 149.975 88.324C150.095 88.212 150.243 88.156 150.419 88.156ZM150.935 90.568V97H149.879V90.568H150.935ZM158.565 93.772C158.565 94.836 158.293 95.66 157.749 96.244C157.213 96.828 156.485 97.12 155.565 97.12C154.997 97.12 154.489 96.992 154.041 96.736C153.601 96.472 153.253 96.092 152.997 95.596C152.741 95.092 152.613 94.484 152.613 93.772C152.613 92.708 152.877 91.888 153.405 91.312C153.941 90.736 154.673 90.448 155.601 90.448C156.177 90.448 156.689 90.58 157.137 90.844C157.585 91.1 157.933 91.476 158.181 91.972C158.437 92.46 158.565 93.06 158.565 93.772ZM153.705 93.772C153.705 94.532 153.853 95.136 154.149 95.584C154.453 96.024 154.933 96.244 155.589 96.244C156.237 96.244 156.713 96.024 157.017 95.584C157.321 95.136 157.473 94.532 157.473 93.772C157.473 93.012 157.321 92.416 157.017 91.984C156.713 91.552 156.233 91.336 155.577 91.336C154.921 91.336 154.445 91.552 154.149 91.984C153.853 92.416 153.705 93.012 153.705 93.772ZM163.335 90.448C164.103 90.448 164.683 90.636 165.075 91.012C165.467 91.388 165.663 91.988 165.663 92.812V97H164.619V92.884C164.619 91.852 164.139 91.336 163.179 91.336C162.467 91.336 161.975 91.536 161.703 91.936C161.431 92.336 161.295 92.912 161.295 93.664V97H160.239V90.568H161.091L161.247 91.444H161.307C161.515 91.108 161.803 90.86 162.171 90.7C162.539 90.532 162.927 90.448 163.335 90.448ZM170.093 90.46C170.877 90.46 171.457 90.632 171.833 90.976C172.209 91.32 172.397 91.868 172.397 92.62V97H171.629L171.425 96.088H171.377C171.097 96.44 170.801 96.7 170.489 96.868C170.177 97.036 169.753 97.12 169.217 97.12C168.633 97.12 168.149 96.968 167.765 96.664C167.381 96.352 167.189 95.868 167.189 95.212C167.189 94.572 167.441 94.08 167.945 93.736C168.449 93.384 169.225 93.192 170.273 93.16L171.365 93.124V92.74C171.365 92.204 171.249 91.832 171.017 91.624C170.785 91.416 170.457 91.312 170.033 91.312C169.697 91.312 169.377 91.364 169.073 91.468C168.769 91.564 168.485 91.676 168.221 91.804L167.897 91.012C168.177 90.86 168.509 90.732 168.893 90.628C169.277 90.516 169.677 90.46 170.093 90.46ZM171.353 93.856L170.405 93.892C169.605 93.924 169.049 94.052 168.737 94.276C168.433 94.5 168.281 94.816 168.281 95.224C168.281 95.584 168.389 95.848 168.605 96.016C168.829 96.184 169.113 96.268 169.457 96.268C169.993 96.268 170.441 96.12 170.801 95.824C171.169 95.52 171.353 95.056 171.353 94.432V93.856ZM175.439 97H174.383V87.88H175.439V97ZM183.174 97.12C182.598 97.12 182.09 97.004 181.65 96.772C181.21 96.54 180.862 96.18 180.606 95.692C180.358 95.204 180.234 94.58 180.234 93.82C180.234 93.028 180.362 92.384 180.618 91.888C180.882 91.392 181.242 91.028 181.698 90.796C182.154 90.564 182.67 90.448 183.246 90.448C183.566 90.448 183.878 90.484 184.182 90.556C184.494 90.62 184.746 90.7 184.938 90.796L184.614 91.672C184.422 91.6 184.198 91.532 183.942 91.468C183.686 91.404 183.446 91.372 183.222 91.372C181.958 91.372 181.326 92.184 181.326 93.808C181.326 94.584 181.478 95.18 181.782 95.596C182.094 96.004 182.554 96.208 183.162 96.208C183.506 96.208 183.814 96.172 184.086 96.1C184.358 96.028 184.606 95.94 184.83 95.836V96.772C184.614 96.884 184.374 96.968 184.11 97.024C183.854 97.088 183.542 97.12 183.174 97.12ZM191.952 93.772C191.952 94.836 191.68 95.66 191.136 96.244C190.6 96.828 189.872 97.12 188.952 97.12C188.384 97.12 187.876 96.992 187.428 96.736C186.988 96.472 186.64 96.092 186.384 95.596C186.128 95.092 186 94.484 186 93.772C186 92.708 186.264 91.888 186.792 91.312C187.328 90.736 188.06 90.448 188.988 90.448C189.564 90.448 190.076 90.58 190.524 90.844C190.972 91.1 191.32 91.476 191.568 91.972C191.824 92.46 191.952 93.06 191.952 93.772ZM187.092 93.772C187.092 94.532 187.24 95.136 187.536 95.584C187.84 96.024 188.32 96.244 188.976 96.244C189.624 96.244 190.1 96.024 190.404 95.584C190.708 95.136 190.86 94.532 190.86 93.772C190.86 93.012 190.708 92.416 190.404 91.984C190.1 91.552 189.62 91.336 188.964 91.336C188.308 91.336 187.832 91.552 187.536 91.984C187.24 92.416 187.092 93.012 187.092 93.772ZM196.721 90.448C197.489 90.448 198.069 90.636 198.461 91.012C198.853 91.388 199.049 91.988 199.049 92.812V97H198.005V92.884C198.005 91.852 197.525 91.336 196.565 91.336C195.853 91.336 195.361 91.536 195.089 91.936C194.817 92.336 194.681 92.912 194.681 93.664V97H193.625V90.568H194.477L194.633 91.444H194.693C194.901 91.108 195.189 90.86 195.557 90.7C195.925 90.532 196.313 90.448 196.721 90.448ZM203.191 96.256C203.351 96.256 203.515 96.244 203.683 96.22C203.851 96.196 203.987 96.164 204.091 96.124V96.928C203.979 96.984 203.819 97.028 203.611 97.06C203.403 97.1 203.203 97.12 203.011 97.12C202.675 97.12 202.363 97.064 202.075 96.952C201.795 96.832 201.567 96.628 201.391 96.34C201.215 96.052 201.127 95.648 201.127 95.128V91.384H200.215V90.88L201.139 90.46L201.559 89.092H202.183V90.568H204.043V91.384H202.183V95.104C202.183 95.496 202.275 95.788 202.459 95.98C202.651 96.164 202.895 96.256 203.191 96.256ZM207.863 90.448C208.407 90.448 208.879 90.568 209.279 90.808C209.679 91.048 209.983 91.388 210.191 91.828C210.407 92.26 210.515 92.768 210.515 93.352V93.988H206.111C206.127 94.716 206.311 95.272 206.663 95.656C207.023 96.032 207.523 96.22 208.163 96.22C208.571 96.22 208.931 96.184 209.243 96.112C209.563 96.032 209.891 95.92 210.227 95.776V96.7C209.899 96.844 209.575 96.948 209.255 97.012C208.935 97.084 208.555 97.12 208.115 97.12C207.499 97.12 206.959 96.996 206.495 96.748C206.031 96.5 205.667 96.132 205.403 95.644C205.147 95.156 205.019 94.552 205.019 93.832C205.019 93.128 205.135 92.524 205.367 92.02C205.607 91.516 205.939 91.128 206.363 90.856C206.795 90.584 207.295 90.448 207.863 90.448ZM207.851 91.312C207.347 91.312 206.947 91.476 206.651 91.804C206.363 92.124 206.191 92.572 206.135 93.148H209.411C209.403 92.604 209.275 92.164 209.027 91.828C208.779 91.484 208.387 91.312 207.851 91.312ZM215.249 90.448C216.017 90.448 216.597 90.636 216.989 91.012C217.381 91.388 217.577 91.988 217.577 92.812V97H216.533V92.884C216.533 91.852 216.053 91.336 215.093 91.336C214.381 91.336 213.889 91.536 213.617 91.936C213.345 92.336 213.209 92.912 213.209 93.664V97H212.153V90.568H213.005L213.161 91.444H213.221C213.429 91.108 213.717 90.86 214.085 90.7C214.453 90.532 214.841 90.448 215.249 90.448ZM221.719 96.256C221.879 96.256 222.043 96.244 222.211 96.22C222.379 96.196 222.515 96.164 222.619 96.124V96.928C222.507 96.984 222.347 97.028 222.139 97.06C221.931 97.1 221.731 97.12 221.539 97.12C221.203 97.12 220.891 97.064 220.603 96.952C220.323 96.832 220.095 96.628 219.919 96.34C219.743 96.052 219.655 95.648 219.655 95.128V91.384H218.743V90.88L219.667 90.46L220.087 89.092H220.711V90.568H222.571V91.384H220.711V95.104C220.711 95.496 220.803 95.788 220.987 95.98C221.179 96.164 221.423 96.256 221.719 96.256Z" fill="#5E5E5E"/>
<path d="M67.0716 59.286C67.0716 59.9673 66.871 60.5133 66.4696 60.924C66.0776 61.3253 65.569 61.596 64.9436 61.736V61.778C65.7463 61.8807 66.353 62.1327 66.7636 62.534C67.1743 62.9353 67.3796 63.4627 67.3796 64.116C67.3796 64.6947 67.2396 65.2127 66.9596 65.67C66.6796 66.1273 66.2456 66.4867 65.6576 66.748C65.079 67.0093 64.3323 67.14 63.4176 67.14C62.867 67.14 62.3583 67.0933 61.8916 67C61.4343 66.916 61.0003 66.7807 60.5896 66.594V65.04C61.0096 65.2547 61.4576 65.418 61.9336 65.53C62.4096 65.642 62.8576 65.698 63.2776 65.698C64.0896 65.698 64.6636 65.5533 64.9996 65.264C65.3356 64.9653 65.5036 64.5547 65.5036 64.032C65.5036 63.5373 65.3076 63.1687 64.9156 62.926C64.5236 62.6833 63.8703 62.562 62.9556 62.562H62.1156V61.148H62.9696C63.8563 61.148 64.4676 61.0033 64.8036 60.714C65.1396 60.4247 65.3076 60.0513 65.3076 59.594C65.3076 59.1927 65.177 58.88 64.9156 58.656C64.6543 58.432 64.2623 58.32 63.7396 58.32C63.2356 58.32 62.8016 58.404 62.4376 58.572C62.0736 58.7307 61.747 58.9033 61.4576 59.09L60.6176 57.872C61.0003 57.592 61.453 57.354 61.9756 57.158C62.4983 56.962 63.1143 56.864 63.8236 56.864C64.8596 56.864 65.6576 57.0833 66.2176 57.522C66.787 57.9607 67.0716 58.5487 67.0716 59.286ZM68.6293 62.744C68.6293 62.1653 68.6667 61.596 68.7413 61.036C68.8253 60.476 68.97 59.9487 69.1753 59.454C69.3807 58.95 69.6653 58.5067 70.0293 58.124C70.3933 57.732 70.8553 57.4287 71.4153 57.214C71.9847 56.99 72.6707 56.878 73.4733 56.878C73.6693 56.878 73.8933 56.8873 74.1453 56.906C74.3973 56.9247 74.6073 56.9527 74.7753 56.99V58.446C74.4113 58.3433 74.01 58.292 73.5713 58.292C72.7313 58.292 72.078 58.446 71.6113 58.754C71.1447 59.0527 70.818 59.468 70.6313 60C70.4447 60.5227 70.3327 61.1107 70.2953 61.764H70.3793C70.5753 61.4373 70.8553 61.162 71.2193 60.938C71.5833 60.7047 72.0547 60.588 72.6333 60.588C73.5013 60.588 74.1967 60.8587 74.7193 61.4C75.242 61.9413 75.5033 62.7113 75.5033 63.71C75.5033 64.7833 75.2047 65.6233 74.6073 66.23C74.01 66.8367 73.2027 67.14 72.1853 67.14C71.5227 67.14 70.9207 66.9813 70.3793 66.664C69.8473 66.3467 69.4227 65.866 69.1053 65.222C68.788 64.5687 68.6293 63.7427 68.6293 62.744ZM72.1573 65.698C72.6333 65.698 73.0207 65.5393 73.3193 65.222C73.618 64.8953 73.7673 64.396 73.7673 63.724C73.7673 63.1827 73.6367 62.758 73.3753 62.45C73.114 62.1327 72.722 61.974 72.1993 61.974C71.8353 61.974 71.518 62.0533 71.2473 62.212C70.986 62.3613 70.7807 62.5573 70.6313 62.8C70.482 63.0333 70.4073 63.276 70.4073 63.528C70.4073 63.8733 70.4727 64.214 70.6033 64.55C70.734 64.8767 70.9253 65.152 71.1773 65.376C71.4387 65.5907 71.7653 65.698 72.1573 65.698ZM84.7998 59.272C85.6864 59.272 86.4004 59.6033 86.9418 60.266C87.4831 60.9193 87.7538 61.8947 87.7538 63.192C87.7538 64.4893 87.4738 65.474 86.9138 66.146C86.3631 66.8087 85.6444 67.14 84.7578 67.14C84.1978 67.14 83.7451 67.0373 83.3998 66.832C83.0544 66.6267 82.7791 66.3887 82.5738 66.118H82.4618C82.4898 66.2953 82.5131 66.4867 82.5318 66.692C82.5598 66.8973 82.5738 67.0933 82.5738 67.28V70.36H80.8098V59.412H82.2378L82.4898 60.42H82.5738C82.7884 60.1027 83.0684 59.832 83.4138 59.608C83.7591 59.384 84.2211 59.272 84.7998 59.272ZM84.2958 60.7C83.6704 60.7 83.2271 60.8867 82.9658 61.26C82.7138 61.6333 82.5831 62.198 82.5738 62.954V63.178C82.5738 63.99 82.6951 64.6153 82.9378 65.054C83.1898 65.4833 83.6518 65.698 84.3238 65.698C84.8744 65.698 85.2804 65.474 85.5418 65.026C85.8124 64.5687 85.9478 63.948 85.9478 63.164C85.9478 62.38 85.8124 61.7733 85.5418 61.344C85.2804 60.9147 84.8651 60.7 84.2958 60.7ZM90.938 63.122L88.432 59.412H90.434L92.086 61.988L93.738 59.412H95.74L93.206 63.122L95.866 67H93.864L92.086 64.242L90.308 67H88.306L90.938 63.122Z" fill="#D51588"/>
<path fill-rule="evenodd" clip-rule="evenodd" d="M100 79H108V80H100V79Z" fill="#D51588"/>
<path fill-rule="evenodd" clip-rule="evenodd" d="M103.5 79L103.5 45L104.5 45L104.5 79L103.5 79Z" fill="#D51588"/>
<path fill-rule="evenodd" clip-rule="evenodd" d="M100 44H108V45H100V44Z" fill="#D51588"/>
<path d="M347.77 42.858H346.468V45H344.732V42.858H340.28V41.542L344.774 34.976H346.468V41.416H347.77V42.858ZM344.732 41.416V39.176C344.732 38.9147 344.736 38.644 344.746 38.364C344.755 38.0747 344.764 37.8087 344.774 37.566C344.792 37.314 344.806 37.1227 344.816 36.992H344.76C344.676 37.1787 344.582 37.3653 344.48 37.552C344.386 37.7293 344.279 37.9067 344.158 38.084L341.89 41.416H344.732ZM356.786 37.272C357.673 37.272 358.387 37.6033 358.928 38.266C359.469 38.9193 359.74 39.8947 359.74 41.192C359.74 42.4893 359.46 43.474 358.9 44.146C358.349 44.8087 357.631 45.14 356.744 45.14C356.184 45.14 355.731 45.0373 355.386 44.832C355.041 44.6267 354.765 44.3887 354.56 44.118H354.448C354.476 44.2953 354.499 44.4867 354.518 44.692C354.546 44.8973 354.56 45.0933 354.56 45.28V48.36H352.796V37.412H354.224L354.476 38.42H354.56C354.775 38.1027 355.055 37.832 355.4 37.608C355.745 37.384 356.207 37.272 356.786 37.272ZM356.282 38.7C355.657 38.7 355.213 38.8867 354.952 39.26C354.7 39.6333 354.569 40.198 354.56 40.954V41.178C354.56 41.99 354.681 42.6153 354.924 43.054C355.176 43.4833 355.638 43.698 356.31 43.698C356.861 43.698 357.267 43.474 357.528 43.026C357.799 42.5687 357.934 41.948 357.934 41.164C357.934 40.38 357.799 39.7733 357.528 39.344C357.267 38.9147 356.851 38.7 356.282 38.7ZM362.924 41.122L360.418 37.412H362.42L364.072 39.988L365.724 37.412H367.726L365.192 41.122L367.852 45H365.85L364.072 42.242L362.294 45H360.292L362.924 41.122Z" fill="#D51588"/>
<path d="M319 40L335 40" stroke="#D51588"/>
<rect opacity="0.4" x="120" y="44" width="8" height="199" transform="rotate(-90 120 44)" fill="white"/>
<rect opacity="0.12" x="120" y="44" width="8" height="199" transform="rotate(-90 120 44)" fill="#D51588"/>
<path opacity="0.5" d="M120 36L319 36" stroke="#D51588" stroke-dasharray="3 3"/>
<path opacity="0.5" d="M120 44L319 44" stroke="#D51588" stroke-dasharray="3 3"/>
<path d="M347.77 86.858H346.468V89H344.732V86.858H340.28V85.542L344.774 78.976H346.468V85.416H347.77V86.858ZM344.732 85.416V83.176C344.732 82.9147 344.736 82.644 344.746 82.364C344.755 82.0747 344.764 81.8087 344.774 81.566C344.792 81.314 344.806 81.1227 344.816 80.992H344.76C344.676 81.1787 344.582 81.3653 344.48 81.552C344.386 81.7293 344.279 81.9067 344.158 82.084L341.89 85.416H344.732ZM356.786 81.272C357.673 81.272 358.387 81.6033 358.928 82.266C359.469 82.9193 359.74 83.8947 359.74 85.192C359.74 86.4893 359.46 87.474 358.9 88.146C358.349 88.8087 357.631 89.14 356.744 89.14C356.184 89.14 355.731 89.0373 355.386 88.832C355.041 88.6267 354.765 88.3887 354.56 88.118H354.448C354.476 88.2953 354.499 88.4867 354.518 88.692C354.546 88.8973 354.56 89.0933 354.56 89.28V92.36H352.796V81.412H354.224L354.476 82.42H354.56C354.775 82.1027 355.055 81.832 355.4 81.608C355.745 81.384 356.207 81.272 356.786 81.272ZM356.282 82.7C355.657 82.7 355.213 82.8867 354.952 83.26C354.7 83.6333 354.569 84.198 354.56 84.954V85.178C354.56 85.99 354.681 86.6153 354.924 87.054C355.176 87.4833 355.638 87.698 356.31 87.698C356.861 87.698 357.267 87.474 357.528 87.026C357.799 86.5687 357.934 85.948 357.934 85.164C357.934 84.38 357.799 83.7733 357.528 83.344C357.267 82.9147 356.851 82.7 356.282 82.7ZM362.924 85.122L360.418 81.412H362.42L364.072 83.988L365.724 81.412H367.726L365.192 85.122L367.852 89H365.85L364.072 86.242L362.294 89H360.292L362.924 85.122Z" fill="#D51588"/>
<path d="M319 84L335 84" stroke="#D51588"/>
<rect opacity="0.4" x="120" y="88" width="8" height="199" transform="rotate(-90 120 88)" fill="white"/>
<rect opacity="0.12" x="120" y="88" width="8" height="199" transform="rotate(-90 120 88)" fill="#D51588"/>
<path opacity="0.5" d="M120 80L319 80" stroke="#D51588" stroke-dasharray="3 3"/>
<path opacity="0.5" d="M120 88L319 88" stroke="#D51588" stroke-dasharray="3 3"/>
</svg>
