<svg width="428" height="76" viewBox="0 0 428 76" fill="none" xmlns="http://www.w3.org/2000/svg">
<rect width="428" height="76" fill="white"/>
<path d="M115.164 13V4.432H116.244V12.04H119.988V13H115.164ZM123.749 6.46C124.533 6.46 125.113 6.632 125.489 6.976C125.865 7.32 126.053 7.868 126.053 8.62V13H125.285L125.081 12.088H125.033C124.753 12.44 124.457 12.7 124.145 12.868C123.833 13.036 123.409 13.12 122.873 13.12C122.289 13.12 121.805 12.968 121.421 12.664C121.037 12.352 120.845 11.868 120.845 11.212C120.845 10.572 121.097 10.08 121.601 9.736C122.105 9.384 122.881 9.192 123.929 9.16L125.021 9.124V8.74C125.021 8.204 124.905 7.832 124.673 7.624C124.441 7.416 124.113 7.312 123.689 7.312C123.353 7.312 123.033 7.364 122.729 7.468C122.425 7.564 122.141 7.676 121.877 7.804L121.553 7.012C121.833 6.86 122.165 6.732 122.549 6.628C122.933 6.516 123.333 6.46 123.749 6.46ZM125.009 9.856L124.061 9.892C123.261 9.924 122.705 10.052 122.393 10.276C122.089 10.5 121.937 10.816 121.937 11.224C121.937 11.584 122.045 11.848 122.261 12.016C122.485 12.184 122.769 12.268 123.113 12.268C123.649 12.268 124.097 12.12 124.457 11.824C124.825 11.52 125.009 11.056 125.009 10.432V9.856ZM129.096 3.88V6.1C129.096 6.372 129.088 6.628 129.072 6.868C129.064 7.1 129.052 7.284 129.036 7.42H129.096C129.28 7.148 129.532 6.92 129.852 6.736C130.172 6.552 130.584 6.46 131.088 6.46C131.888 6.46 132.528 6.74 133.008 7.3C133.496 7.852 133.74 8.68 133.74 9.784C133.74 10.888 133.496 11.72 133.008 12.28C132.52 12.84 131.88 13.12 131.088 13.12C130.584 13.12 130.172 13.028 129.852 12.844C129.532 12.66 129.28 12.44 129.096 12.184H129.012L128.796 13H128.04V3.88H129.096ZM130.908 7.336C130.22 7.336 129.744 7.532 129.48 7.924C129.224 8.316 129.096 8.924 129.096 9.748V9.796C129.096 10.588 129.224 11.196 129.48 11.62C129.744 12.036 130.228 12.244 130.932 12.244C131.508 12.244 131.936 12.032 132.216 11.608C132.504 11.184 132.648 10.572 132.648 9.772C132.648 8.148 132.068 7.336 130.908 7.336ZM137.906 6.448C138.45 6.448 138.922 6.568 139.322 6.808C139.722 7.048 140.026 7.388 140.234 7.828C140.45 8.26 140.558 8.768 140.558 9.352V9.988H136.154C136.17 10.716 136.354 11.272 136.706 11.656C137.066 12.032 137.566 12.22 138.206 12.22C138.614 12.22 138.974 12.184 139.286 12.112C139.606 12.032 139.934 11.92 140.27 11.776V12.7C139.942 12.844 139.618 12.948 139.298 13.012C138.978 13.084 138.598 13.12 138.158 13.12C137.542 13.12 137.002 12.996 136.538 12.748C136.074 12.5 135.71 12.132 135.446 11.644C135.19 11.156 135.062 10.552 135.062 9.832C135.062 9.128 135.178 8.524 135.41 8.02C135.65 7.516 135.982 7.128 136.406 6.856C136.838 6.584 137.338 6.448 137.906 6.448ZM137.894 7.312C137.39 7.312 136.99 7.476 136.694 7.804C136.406 8.124 136.234 8.572 136.178 9.148H139.454C139.446 8.604 139.318 8.164 139.07 7.828C138.822 7.484 138.43 7.312 137.894 7.312ZM143.252 13H142.196V3.88H143.252V13Z" fill="#323232"/>
<rect x="114.5" y="20.5" width="199" height="35" rx="1.5" fill="white"/>
<path d="M130.522 43H129.262V34.11H126.14V33.004H133.63V34.11H130.522V43ZM136.883 35.356C137.518 35.356 138.068 35.496 138.535 35.776C139.002 36.056 139.356 36.4527 139.599 36.966C139.851 37.47 139.977 38.0627 139.977 38.744V39.486H134.839C134.858 40.3353 135.072 40.984 135.483 41.432C135.903 41.8707 136.486 42.09 137.233 42.09C137.709 42.09 138.129 42.048 138.493 41.964C138.866 41.8707 139.249 41.74 139.641 41.572V42.65C139.258 42.818 138.88 42.9393 138.507 43.014C138.134 43.098 137.69 43.14 137.177 43.14C136.458 43.14 135.828 42.9953 135.287 42.706C134.746 42.4167 134.321 41.9873 134.013 41.418C133.714 40.8487 133.565 40.144 133.565 39.304C133.565 38.4827 133.7 37.778 133.971 37.19C134.251 36.602 134.638 36.1493 135.133 35.832C135.637 35.5147 136.22 35.356 136.883 35.356ZM136.869 36.364C136.281 36.364 135.814 36.5553 135.469 36.938C135.133 37.3113 134.932 37.834 134.867 38.506H138.689C138.68 37.8713 138.53 37.358 138.241 36.966C137.952 36.5647 137.494 36.364 136.869 36.364ZM143.392 39.164L140.802 35.496H142.202L144.134 38.324L146.052 35.496H147.438L144.848 39.164L147.578 43H146.178L144.134 40.004L142.062 43H140.676L143.392 39.164ZM151.53 42.132C151.717 42.132 151.908 42.118 152.104 42.09C152.3 42.062 152.459 42.0247 152.58 41.978V42.916C152.449 42.9813 152.263 43.0327 152.02 43.07C151.777 43.1167 151.544 43.14 151.32 43.14C150.928 43.14 150.564 43.0747 150.228 42.944C149.901 42.804 149.635 42.566 149.43 42.23C149.225 41.894 149.122 41.4227 149.122 40.816V36.448H148.058V35.86L149.136 35.37L149.626 33.774H150.354V35.496H152.524V36.448H150.354V40.788C150.354 41.2453 150.461 41.586 150.676 41.81C150.9 42.0247 151.185 42.132 151.53 42.132Z" fill="black"/>
<rect x="114.5" y="20.5" width="199" height="35" rx="1.5" stroke="#B51418"/>
<path d="M121.99 72.0423C122.351 72.0423 122.643 71.7499 122.643 71.3892C122.643 71.0284 122.351 70.736 121.99 70.736C121.629 70.736 121.337 71.0284 121.337 71.3892C121.337 71.7499 121.629 72.0423 121.99 72.0423Z" fill="#B51418"/>
<path d="M121.99 69.6042C122.039 69.6049 122.088 69.5957 122.134 69.5771C122.18 69.5586 122.221 69.5311 122.256 69.4962C122.291 69.4613 122.318 69.4198 122.337 69.3742C122.355 69.3285 122.365 69.2796 122.364 69.2303V65.3612C122.364 65.2621 122.324 65.167 122.254 65.0968C122.184 65.0267 122.089 64.9873 121.99 64.9873C121.891 64.9873 121.796 65.0267 121.726 65.0968C121.655 65.167 121.616 65.2621 121.616 65.3612V69.2303C121.616 69.3295 121.655 69.4246 121.726 69.4947C121.796 69.5648 121.891 69.6042 121.99 69.6042Z" fill="#B51418"/>
<path d="M128.771 71.9576L123.286 62.29C123.159 62.0513 122.968 61.8517 122.736 61.7126C122.504 61.5735 122.238 61.5 121.968 61.5C121.697 61.5 121.431 61.5735 121.199 61.7126C120.967 61.8517 120.776 62.0513 120.649 62.29L115.209 71.9576C115.074 72.1854 115.002 72.445 115 72.7098C114.998 72.9747 115.067 73.2353 115.198 73.465C115.33 73.6947 115.521 73.8853 115.75 74.0173C115.98 74.1492 116.241 74.2179 116.505 74.2162H127.474C127.741 74.2215 128.004 74.1555 128.237 74.0249C128.469 73.8944 128.662 73.7042 128.797 73.4738C128.931 73.2435 129.001 72.9815 129 72.7149C128.999 72.4483 128.927 72.1868 128.791 71.9576H128.771ZM128.118 73.0894C128.055 73.2064 127.962 73.3048 127.849 73.3748C127.736 73.4448 127.607 73.4839 127.474 73.4882H116.505C116.371 73.4894 116.239 73.455 116.123 73.3884C116.006 73.3218 115.909 73.2255 115.842 73.1093C115.776 72.993 115.742 72.8616 115.742 72.7279C115.742 72.5942 115.776 72.4627 115.842 72.3465L121.327 62.6789C121.394 62.5606 121.491 62.4623 121.608 62.3939C121.726 62.3255 121.859 62.2894 121.995 62.2894C122.131 62.2894 122.264 62.3255 122.382 62.3939C122.499 62.4623 122.596 62.5606 122.663 62.6789L128.147 72.3465C128.207 72.4624 128.235 72.5917 128.23 72.7218C128.225 72.8519 128.186 72.9785 128.118 73.0894Z" fill="#B51418"/>
<path d="M140.54 73L139.508 70.348H136.112L135.092 73H134L137.348 64.396H138.32L141.656 73H140.54ZM139.184 69.388L138.224 66.796C138.2 66.732 138.16 66.616 138.104 66.448C138.048 66.28 137.992 66.108 137.936 65.932C137.888 65.748 137.848 65.608 137.816 65.512C137.752 65.76 137.684 66.004 137.612 66.244C137.548 66.476 137.492 66.66 137.444 66.796L136.472 69.388H139.184ZM144.964 73.12C144.164 73.12 143.524 72.844 143.044 72.292C142.564 71.732 142.324 70.9 142.324 69.796C142.324 68.692 142.564 67.86 143.044 67.3C143.532 66.732 144.176 66.448 144.976 66.448C145.472 66.448 145.876 66.54 146.188 66.724C146.508 66.908 146.768 67.132 146.968 67.396H147.04C147.024 67.292 147.008 67.14 146.992 66.94C146.976 66.732 146.968 66.568 146.968 66.448V63.88H148.024V73H147.172L147.016 72.136H146.968C146.776 72.408 146.52 72.64 146.2 72.832C145.88 73.024 145.468 73.12 144.964 73.12ZM145.132 72.244C145.812 72.244 146.288 72.06 146.56 71.692C146.84 71.316 146.98 70.752 146.98 70V69.808C146.98 69.008 146.848 68.396 146.584 67.972C146.32 67.54 145.832 67.324 145.12 67.324C144.552 67.324 144.124 67.552 143.836 68.008C143.556 68.456 143.416 69.06 143.416 69.82C143.416 70.588 143.556 71.184 143.836 71.608C144.124 72.032 144.556 72.244 145.132 72.244ZM152.347 73.12C151.547 73.12 150.907 72.844 150.427 72.292C149.947 71.732 149.707 70.9 149.707 69.796C149.707 68.692 149.947 67.86 150.427 67.3C150.915 66.732 151.559 66.448 152.359 66.448C152.855 66.448 153.259 66.54 153.571 66.724C153.891 66.908 154.151 67.132 154.351 67.396H154.423C154.407 67.292 154.391 67.14 154.375 66.94C154.359 66.732 154.351 66.568 154.351 66.448V63.88H155.407V73H154.555L154.399 72.136H154.351C154.159 72.408 153.903 72.64 153.583 72.832C153.263 73.024 152.851 73.12 152.347 73.12ZM152.515 72.244C153.195 72.244 153.671 72.06 153.943 71.692C154.223 71.316 154.363 70.752 154.363 70V69.808C154.363 69.008 154.231 68.396 153.967 67.972C153.703 67.54 153.215 67.324 152.503 67.324C151.935 67.324 151.507 67.552 151.219 68.008C150.939 68.456 150.799 69.06 150.799 69.82C150.799 70.588 150.939 71.184 151.219 71.608C151.507 72.032 151.939 72.244 152.515 72.244ZM157.99 64.156C158.15 64.156 158.29 64.212 158.41 64.324C158.538 64.428 158.602 64.596 158.602 64.828C158.602 65.06 158.538 65.232 158.41 65.344C158.29 65.448 158.15 65.5 157.99 65.5C157.814 65.5 157.666 65.448 157.546 65.344C157.426 65.232 157.366 65.06 157.366 64.828C157.366 64.596 157.426 64.428 157.546 64.324C157.666 64.212 157.814 64.156 157.99 64.156ZM158.506 66.568V73H157.45V66.568H158.506ZM162.691 72.256C162.851 72.256 163.015 72.244 163.183 72.22C163.351 72.196 163.487 72.164 163.591 72.124V72.928C163.479 72.984 163.319 73.028 163.111 73.06C162.903 73.1 162.703 73.12 162.511 73.12C162.175 73.12 161.863 73.064 161.575 72.952C161.295 72.832 161.067 72.628 160.891 72.34C160.715 72.052 160.627 71.648 160.627 71.128V67.384H159.715V66.88L160.639 66.46L161.059 65.092H161.683V66.568H163.543V67.384H161.683V71.104C161.683 71.496 161.775 71.788 161.959 71.98C162.151 72.164 162.395 72.256 162.691 72.256ZM165.419 64.156C165.579 64.156 165.719 64.212 165.839 64.324C165.967 64.428 166.031 64.596 166.031 64.828C166.031 65.06 165.967 65.232 165.839 65.344C165.719 65.448 165.579 65.5 165.419 65.5C165.243 65.5 165.095 65.448 164.975 65.344C164.855 65.232 164.795 65.06 164.795 64.828C164.795 64.596 164.855 64.428 164.975 64.324C165.095 64.212 165.243 64.156 165.419 64.156ZM165.935 66.568V73H164.879V66.568H165.935ZM173.565 69.772C173.565 70.836 173.293 71.66 172.749 72.244C172.213 72.828 171.485 73.12 170.565 73.12C169.997 73.12 169.489 72.992 169.041 72.736C168.601 72.472 168.253 72.092 167.997 71.596C167.741 71.092 167.613 70.484 167.613 69.772C167.613 68.708 167.877 67.888 168.405 67.312C168.941 66.736 169.673 66.448 170.601 66.448C171.177 66.448 171.689 66.58 172.137 66.844C172.585 67.1 172.933 67.476 173.181 67.972C173.437 68.46 173.565 69.06 173.565 69.772ZM168.705 69.772C168.705 70.532 168.853 71.136 169.149 71.584C169.453 72.024 169.933 72.244 170.589 72.244C171.237 72.244 171.713 72.024 172.017 71.584C172.321 71.136 172.473 70.532 172.473 69.772C172.473 69.012 172.321 68.416 172.017 67.984C171.713 67.552 171.233 67.336 170.577 67.336C169.921 67.336 169.445 67.552 169.149 67.984C168.853 68.416 168.705 69.012 168.705 69.772ZM178.335 66.448C179.103 66.448 179.683 66.636 180.075 67.012C180.467 67.388 180.663 67.988 180.663 68.812V73H179.619V68.884C179.619 67.852 179.139 67.336 178.179 67.336C177.467 67.336 176.975 67.536 176.703 67.936C176.431 68.336 176.295 68.912 176.295 69.664V73H175.239V66.568H176.091L176.247 67.444H176.307C176.515 67.108 176.803 66.86 177.171 66.7C177.539 66.532 177.927 66.448 178.335 66.448ZM185.093 66.46C185.877 66.46 186.457 66.632 186.833 66.976C187.209 67.32 187.397 67.868 187.397 68.62V73H186.629L186.425 72.088H186.377C186.097 72.44 185.801 72.7 185.489 72.868C185.177 73.036 184.753 73.12 184.217 73.12C183.633 73.12 183.149 72.968 182.765 72.664C182.381 72.352 182.189 71.868 182.189 71.212C182.189 70.572 182.441 70.08 182.945 69.736C183.449 69.384 184.225 69.192 185.273 69.16L186.365 69.124V68.74C186.365 68.204 186.249 67.832 186.017 67.624C185.785 67.416 185.457 67.312 185.033 67.312C184.697 67.312 184.377 67.364 184.073 67.468C183.769 67.564 183.485 67.676 183.221 67.804L182.897 67.012C183.177 66.86 183.509 66.732 183.893 66.628C184.277 66.516 184.677 66.46 185.093 66.46ZM186.353 69.856L185.405 69.892C184.605 69.924 184.049 70.052 183.737 70.276C183.433 70.5 183.281 70.816 183.281 71.224C183.281 71.584 183.389 71.848 183.605 72.016C183.829 72.184 184.113 72.268 184.457 72.268C184.993 72.268 185.441 72.12 185.801 71.824C186.169 71.52 186.353 71.056 186.353 70.432V69.856ZM190.439 73H189.383V63.88H190.439V73ZM198.174 73.12C197.598 73.12 197.09 73.004 196.65 72.772C196.21 72.54 195.862 72.18 195.606 71.692C195.358 71.204 195.234 70.58 195.234 69.82C195.234 69.028 195.362 68.384 195.618 67.888C195.882 67.392 196.242 67.028 196.698 66.796C197.154 66.564 197.67 66.448 198.246 66.448C198.566 66.448 198.878 66.484 199.182 66.556C199.494 66.62 199.746 66.7 199.938 66.796L199.614 67.672C199.422 67.6 199.198 67.532 198.942 67.468C198.686 67.404 198.446 67.372 198.222 67.372C196.958 67.372 196.326 68.184 196.326 69.808C196.326 70.584 196.478 71.18 196.782 71.596C197.094 72.004 197.554 72.208 198.162 72.208C198.506 72.208 198.814 72.172 199.086 72.1C199.358 72.028 199.606 71.94 199.83 71.836V72.772C199.614 72.884 199.374 72.968 199.11 73.024C198.854 73.088 198.542 73.12 198.174 73.12ZM206.952 69.772C206.952 70.836 206.68 71.66 206.136 72.244C205.6 72.828 204.872 73.12 203.952 73.12C203.384 73.12 202.876 72.992 202.428 72.736C201.988 72.472 201.64 72.092 201.384 71.596C201.128 71.092 201 70.484 201 69.772C201 68.708 201.264 67.888 201.792 67.312C202.328 66.736 203.06 66.448 203.988 66.448C204.564 66.448 205.076 66.58 205.524 66.844C205.972 67.1 206.32 67.476 206.568 67.972C206.824 68.46 206.952 69.06 206.952 69.772ZM202.092 69.772C202.092 70.532 202.24 71.136 202.536 71.584C202.84 72.024 203.32 72.244 203.976 72.244C204.624 72.244 205.1 72.024 205.404 71.584C205.708 71.136 205.86 70.532 205.86 69.772C205.86 69.012 205.708 68.416 205.404 67.984C205.1 67.552 204.62 67.336 203.964 67.336C203.308 67.336 202.832 67.552 202.536 67.984C202.24 68.416 202.092 69.012 202.092 69.772ZM211.721 66.448C212.489 66.448 213.069 66.636 213.461 67.012C213.853 67.388 214.049 67.988 214.049 68.812V73H213.005V68.884C213.005 67.852 212.525 67.336 211.565 67.336C210.853 67.336 210.361 67.536 210.089 67.936C209.817 68.336 209.681 68.912 209.681 69.664V73H208.625V66.568H209.477L209.633 67.444H209.693C209.901 67.108 210.189 66.86 210.557 66.7C210.925 66.532 211.313 66.448 211.721 66.448ZM218.191 72.256C218.351 72.256 218.515 72.244 218.683 72.22C218.851 72.196 218.987 72.164 219.091 72.124V72.928C218.979 72.984 218.819 73.028 218.611 73.06C218.403 73.1 218.203 73.12 218.011 73.12C217.675 73.12 217.363 73.064 217.075 72.952C216.795 72.832 216.567 72.628 216.391 72.34C216.215 72.052 216.127 71.648 216.127 71.128V67.384H215.215V66.88L216.139 66.46L216.559 65.092H217.183V66.568H219.043V67.384H217.183V71.104C217.183 71.496 217.275 71.788 217.459 71.98C217.651 72.164 217.895 72.256 218.191 72.256ZM222.863 66.448C223.407 66.448 223.879 66.568 224.279 66.808C224.679 67.048 224.983 67.388 225.191 67.828C225.407 68.26 225.515 68.768 225.515 69.352V69.988H221.111C221.127 70.716 221.311 71.272 221.663 71.656C222.023 72.032 222.523 72.22 223.163 72.22C223.571 72.22 223.931 72.184 224.243 72.112C224.563 72.032 224.891 71.92 225.227 71.776V72.7C224.899 72.844 224.575 72.948 224.255 73.012C223.935 73.084 223.555 73.12 223.115 73.12C222.499 73.12 221.959 72.996 221.495 72.748C221.031 72.5 220.667 72.132 220.403 71.644C220.147 71.156 220.019 70.552 220.019 69.832C220.019 69.128 220.135 68.524 220.367 68.02C220.607 67.516 220.939 67.128 221.363 66.856C221.795 66.584 222.295 66.448 222.863 66.448ZM222.851 67.312C222.347 67.312 221.947 67.476 221.651 67.804C221.363 68.124 221.191 68.572 221.135 69.148H224.411C224.403 68.604 224.275 68.164 224.027 67.828C223.779 67.484 223.387 67.312 222.851 67.312ZM230.249 66.448C231.017 66.448 231.597 66.636 231.989 67.012C232.381 67.388 232.577 67.988 232.577 68.812V73H231.533V68.884C231.533 67.852 231.053 67.336 230.093 67.336C229.381 67.336 228.889 67.536 228.617 67.936C228.345 68.336 228.209 68.912 228.209 69.664V73H227.153V66.568H228.005L228.161 67.444H228.221C228.429 67.108 228.717 66.86 229.085 66.7C229.453 66.532 229.841 66.448 230.249 66.448ZM236.719 72.256C236.879 72.256 237.043 72.244 237.211 72.22C237.379 72.196 237.515 72.164 237.619 72.124V72.928C237.507 72.984 237.347 73.028 237.139 73.06C236.931 73.1 236.731 73.12 236.539 73.12C236.203 73.12 235.891 73.064 235.603 72.952C235.323 72.832 235.095 72.628 234.919 72.34C234.743 72.052 234.655 71.648 234.655 71.128V67.384H233.743V66.88L234.667 66.46L235.087 65.092H235.711V66.568H237.571V67.384H235.711V71.104C235.711 71.496 235.803 71.788 235.987 71.98C236.179 72.164 236.423 72.256 236.719 72.256Z" fill="#B51418"/>
</svg>
