<svg width="227" height="52" viewBox="0 0 227 52" fill="none" xmlns="http://www.w3.org/2000/svg">
<path d="M8.028 8.632C8.028 10.08 7.632 11.172 6.84 11.908C6.056 12.636 4.96 13 3.552 13H1.164V4.432H3.804C4.66 4.432 5.404 4.592 6.036 4.912C6.676 5.232 7.168 5.704 7.512 6.328C7.856 6.952 8.028 7.72 8.028 8.632ZM6.888 8.668C6.888 7.524 6.604 6.688 6.036 6.16C5.476 5.624 4.68 5.356 3.648 5.356H2.244V12.076H3.408C5.728 12.076 6.888 10.94 6.888 8.668ZM12.2216 6.46C13.0056 6.46 13.5856 6.632 13.9616 6.976C14.3376 7.32 14.5256 7.868 14.5256 8.62V13H13.7576L13.5536 12.088H13.5056C13.2256 12.44 12.9296 12.7 12.6176 12.868C12.3056 13.036 11.8816 13.12 11.3456 13.12C10.7616 13.12 10.2776 12.968 9.89363 12.664C9.50963 12.352 9.31763 11.868 9.31763 11.212C9.31763 10.572 9.56963 10.08 10.0736 9.736C10.5776 9.384 11.3536 9.192 12.4016 9.16L13.4936 9.124V8.74C13.4936 8.204 13.3776 7.832 13.1456 7.624C12.9136 7.416 12.5856 7.312 12.1616 7.312C11.8256 7.312 11.5056 7.364 11.2016 7.468C10.8976 7.564 10.6136 7.676 10.3496 7.804L10.0256 7.012C10.3056 6.86 10.6376 6.732 11.0216 6.628C11.4056 6.516 11.8056 6.46 12.2216 6.46ZM13.4816 9.856L12.5336 9.892C11.7336 9.924 11.1776 10.052 10.8656 10.276C10.5616 10.5 10.4096 10.816 10.4096 11.224C10.4096 11.584 10.5176 11.848 10.7336 12.016C10.9576 12.184 11.2416 12.268 11.5856 12.268C12.1216 12.268 12.5696 12.12 12.9296 11.824C13.2976 11.52 13.4816 11.056 13.4816 10.432V9.856ZM18.6602 12.256C18.8202 12.256 18.9842 12.244 19.1522 12.22C19.3202 12.196 19.4562 12.164 19.5602 12.124V12.928C19.4482 12.984 19.2882 13.028 19.0802 13.06C18.8722 13.1 18.6722 13.12 18.4802 13.12C18.1442 13.12 17.8322 13.064 17.5442 12.952C17.2642 12.832 17.0362 12.628 16.8602 12.34C16.6842 12.052 16.5962 11.648 16.5962 11.128V7.384H15.6842V6.88L16.6082 6.46L17.0282 5.092H17.6522V6.568H19.5122V7.384H17.6522V11.104C17.6522 11.496 17.7442 11.788 17.9282 11.98C18.1202 12.164 18.3642 12.256 18.6602 12.256ZM23.3321 6.448C23.8761 6.448 24.3481 6.568 24.7481 6.808C25.1481 7.048 25.4521 7.388 25.6601 7.828C25.8761 8.26 25.9841 8.768 25.9841 9.352V9.988H21.5801C21.5961 10.716 21.7801 11.272 22.1321 11.656C22.4921 12.032 22.9921 12.22 23.6321 12.22C24.0401 12.22 24.4001 12.184 24.7121 12.112C25.0321 12.032 25.3601 11.92 25.6961 11.776V12.7C25.3681 12.844 25.0441 12.948 24.7241 13.012C24.4041 13.084 24.0241 13.12 23.5841 13.12C22.9681 13.12 22.4281 12.996 21.9641 12.748C21.5001 12.5 21.1361 12.132 20.8721 11.644C20.6161 11.156 20.4881 10.552 20.4881 9.832C20.4881 9.128 20.6041 8.524 20.8361 8.02C21.0761 7.516 21.4081 7.128 21.8321 6.856C22.2641 6.584 22.7641 6.448 23.3321 6.448ZM23.3201 7.312C22.8161 7.312 22.4161 7.476 22.1201 7.804C21.8321 8.124 21.6601 8.572 21.6041 9.148H24.8801C24.8721 8.604 24.7441 8.164 24.4961 7.828C24.2481 7.484 23.8561 7.312 23.3201 7.312Z" fill="#323232"/>
<rect x="0.5" y="20.5" width="226" height="31" rx="1.5" fill="white"/>
<path d="M18.276 36.704C18.276 37.632 18.18 38.424 17.988 39.08C17.796 39.736 17.488 40.24 17.064 40.592C16.648 40.944 16.1 41.12 15.42 41.12C14.452 41.12 13.736 40.732 13.272 39.956C12.816 39.172 12.588 38.088 12.588 36.704C12.588 35.776 12.68 34.984 12.864 34.328C13.056 33.672 13.36 33.172 13.776 32.828C14.192 32.476 14.74 32.3 15.42 32.3C16.38 32.3 17.096 32.688 17.568 33.464C18.04 34.232 18.276 35.312 18.276 36.704ZM13.644 36.704C13.644 37.88 13.776 38.76 14.04 39.344C14.312 39.928 14.772 40.22 15.42 40.22C16.06 40.22 16.516 39.932 16.788 39.356C17.068 38.772 17.208 37.888 17.208 36.704C17.208 35.536 17.068 34.66 16.788 34.076C16.516 33.492 16.06 33.2 15.42 33.2C14.772 33.2 14.312 33.492 14.04 34.076C13.776 34.66 13.644 35.536 13.644 36.704ZM24.7832 34.436C24.7832 35.012 24.6192 35.472 24.2912 35.816C23.9712 36.152 23.5432 36.376 23.0072 36.488V36.536C23.6872 36.616 24.1952 36.832 24.5312 37.184C24.8752 37.536 25.0472 37.996 25.0472 38.564C25.0472 39.068 24.9312 39.512 24.6992 39.896C24.4672 40.28 24.1072 40.58 23.6192 40.796C23.1392 41.012 22.5192 41.12 21.7592 41.12C21.3112 41.12 20.8952 41.084 20.5112 41.012C20.1272 40.948 19.7592 40.828 19.4072 40.652V39.668C19.7672 39.852 20.1552 39.992 20.5712 40.088C20.9872 40.184 21.3872 40.232 21.7712 40.232C22.5392 40.232 23.0912 40.084 23.4272 39.788C23.7712 39.484 23.9432 39.068 23.9432 38.54C23.9432 38.004 23.7312 37.62 23.3072 37.388C22.8912 37.148 22.3032 37.028 21.5432 37.028H20.7152V36.128H21.5552C22.2592 36.128 22.7912 35.98 23.1512 35.684C23.5192 35.388 23.7032 34.996 23.7032 34.508C23.7032 34.092 23.5632 33.772 23.2832 33.548C23.0032 33.316 22.6232 33.2 22.1432 33.2C21.6792 33.2 21.2832 33.268 20.9552 33.404C20.6272 33.54 20.3032 33.712 19.9832 33.92L19.4552 33.2C19.7592 32.96 20.1352 32.752 20.5832 32.576C21.0392 32.4 21.5552 32.312 22.1312 32.312C23.0272 32.312 23.6912 32.512 24.1232 32.912C24.5632 33.312 24.7832 33.82 24.7832 34.436ZM30.0784 32.432L26.8864 41H25.8544L29.0464 32.432H30.0784ZM36.4392 41H30.7752V40.124L33.0192 37.856C33.4432 37.424 33.8032 37.04 34.0992 36.704C34.4032 36.368 34.6312 36.04 34.7832 35.72C34.9352 35.4 35.0112 35.044 35.0112 34.652C35.0112 34.18 34.8712 33.824 34.5912 33.584C34.3112 33.336 33.9472 33.212 33.4992 33.212C33.0752 33.212 32.7072 33.284 32.3952 33.428C32.0832 33.572 31.7632 33.772 31.4352 34.028L30.8712 33.32C31.2072 33.04 31.5912 32.804 32.0232 32.612C32.4632 32.412 32.9552 32.312 33.4992 32.312C34.2992 32.312 34.9312 32.516 35.3952 32.924C35.8592 33.332 36.0912 33.888 36.0912 34.592C36.0912 35.04 35.9992 35.46 35.8152 35.852C35.6312 36.244 35.3752 36.632 35.0472 37.016C34.7192 37.4 34.3352 37.804 33.8952 38.228L32.1072 39.992V40.04H36.4392V41ZM41.3264 41H40.2944V35.012C40.2944 34.668 40.2984 34.392 40.3064 34.184C40.3144 33.976 40.3264 33.76 40.3424 33.536C40.2144 33.664 40.0944 33.772 39.9824 33.86C39.8784 33.948 39.7504 34.06 39.5984 34.196L38.6864 34.94L38.1344 34.232L40.4504 32.432H41.3264V41ZM48.2776 32.432L45.0856 41H44.0536L47.2456 32.432H48.2776ZM54.6384 41H48.9744V40.124L51.2184 37.856C51.6424 37.424 52.0024 37.04 52.2984 36.704C52.6024 36.368 52.8304 36.04 52.9824 35.72C53.1344 35.4 53.2104 35.044 53.2104 34.652C53.2104 34.18 53.0704 33.824 52.7904 33.584C52.5104 33.336 52.1464 33.212 51.6984 33.212C51.2744 33.212 50.9064 33.284 50.5944 33.428C50.2824 33.572 49.9624 33.772 49.6344 34.028L49.0704 33.32C49.4064 33.04 49.7904 32.804 50.2224 32.612C50.6624 32.412 51.1544 32.312 51.6984 32.312C52.4984 32.312 53.1304 32.516 53.5944 32.924C54.0584 33.332 54.2904 33.888 54.2904 34.592C54.2904 35.04 54.1984 35.46 54.0144 35.852C53.8304 36.244 53.5744 36.632 53.2464 37.016C52.9184 37.4 52.5344 37.804 52.0944 38.228L50.3064 39.992V40.04H54.6384V41ZM59.5256 41H58.4936V35.012C58.4936 34.668 58.4976 34.392 58.5056 34.184C58.5136 33.976 58.5256 33.76 58.5416 33.536C58.4136 33.664 58.2936 33.772 58.1816 33.86C58.0776 33.948 57.9496 34.06 57.7976 34.196L56.8856 34.94L56.3336 34.232L58.6496 32.432H59.5256V41Z" fill="black"/>
<path d="M211.95 30.65H210.4V29.4C210.4 29.2 210.25 29 210 29C209.75 29 209.6 29.15 209.6 29.4V30.7H204.1V29.4C204.15 29.15 204 29 203.8 29C203.6 29 203.4 29.15 203.4 29.4V30.7H201.9C200.85 30.65 200 31.5 200 32.55V41.15C200 42.15 200.85 43 201.9 43H212C213.05 43 213.9 42.15 213.9 41.1V32.55C213.85 31.5 213 30.65 211.95 30.65ZM201.9 31.4H203.45V32.75C203.45 32.95 203.6 33.15 203.85 33.15C204.1 33.15 204.25 33 204.25 32.75V31.4H209.75V32.75C209.75 32.95 209.9 33.15 210.15 33.15C210.4 33.15 210.55 33 210.55 32.75V31.4H212.1C212.7 31.4 213.2 31.9 213.2 32.5V34.65H200.75V32.55C200.75 31.95 201.25 31.4 201.9 31.4ZM211.95 42.25H201.9C201.3 42.25 200.8 41.75 200.8 41.15V35.45H213.15V41.15C213.1 41.75 212.6 42.25 211.95 42.25Z" fill="#323232"/>
<rect x="0.5" y="20.5" width="226" height="31" rx="1.5" stroke="#939393"/>
<path d="M183.513 36.0125L186.863 32.6625C187.013 32.5125 187.013 32.2625 186.863 32.1125C186.713 31.9625 186.463 31.9625 186.313 32.1125L183.013 35.4625L179.663 32.1125C179.513 31.9625 179.263 31.9625 179.113 32.1125C178.962 32.2625 178.962 32.5125 179.113 32.6625L182.463 36.0125L179.113 39.3625C178.962 39.5125 178.962 39.7625 179.113 39.9125C179.163 39.9625 179.263 40.0125 179.363 40.0125C179.463 40.0125 179.563 39.9625 179.613 39.9125L183.013 36.5125L186.363 39.8625C186.413 39.9125 186.513 39.9625 186.613 39.9625C186.713 39.9625 186.813 39.9125 186.863 39.8625C187.013 39.7125 187.013 39.4625 186.863 39.3125L183.513 36.0125Z" fill="black"/>
</svg>
