<svg width="379" height="104" viewBox="0 0 379 104" fill="none" xmlns="http://www.w3.org/2000/svg">
<path d="M7.024 10.708C7.024 11.468 6.748 12.06 6.196 12.484C5.644 12.908 4.9 13.12 3.964 13.12C3.484 13.12 3.04 13.084 2.632 13.012C2.224 12.94 1.884 12.84 1.612 12.712V11.68C1.9 11.808 2.256 11.924 2.68 12.028C3.112 12.132 3.556 12.184 4.012 12.184C4.644 12.184 5.124 12.06 5.452 11.812C5.78 11.564 5.944 11.228 5.944 10.804C5.944 10.524 5.884 10.288 5.764 10.096C5.644 9.904 5.436 9.728 5.14 9.568C4.844 9.408 4.44 9.232 3.928 9.04C3.192 8.776 2.64 8.452 2.272 8.068C1.904 7.684 1.72 7.16 1.72 6.496C1.72 6.048 1.836 5.66 2.068 5.332C2.3 5.004 2.62 4.752 3.028 4.576C3.436 4.4 3.912 4.312 4.456 4.312C4.92 4.312 5.348 4.356 5.74 4.444C6.132 4.532 6.492 4.648 6.82 4.792L6.484 5.716C6.188 5.588 5.864 5.48 5.512 5.392C5.16 5.304 4.8 5.26 4.432 5.26C3.896 5.26 3.492 5.376 3.22 5.608C2.948 5.832 2.812 6.132 2.812 6.508C2.812 6.796 2.872 7.036 2.992 7.228C3.112 7.42 3.308 7.596 3.58 7.756C3.852 7.908 4.22 8.068 4.684 8.236C5.188 8.42 5.612 8.62 5.956 8.836C6.308 9.044 6.572 9.296 6.748 9.592C6.932 9.888 7.024 10.26 7.024 10.708ZM9.14594 4.156C9.30594 4.156 9.44594 4.212 9.56594 4.324C9.69394 4.428 9.75794 4.596 9.75794 4.828C9.75794 5.06 9.69394 5.232 9.56594 5.344C9.44594 5.448 9.30594 5.5 9.14594 5.5C8.96994 5.5 8.82194 5.448 8.70194 5.344C8.58194 5.232 8.52194 5.06 8.52194 4.828C8.52194 4.596 8.58194 4.428 8.70194 4.324C8.82194 4.212 8.96994 4.156 9.14594 4.156ZM9.66194 6.568V13H8.60594V6.568H9.66194ZM13.8477 12.256C14.0077 12.256 14.1717 12.244 14.3397 12.22C14.5077 12.196 14.6437 12.164 14.7477 12.124V12.928C14.6357 12.984 14.4757 13.028 14.2677 13.06C14.0597 13.1 13.8597 13.12 13.6677 13.12C13.3317 13.12 13.0197 13.064 12.7317 12.952C12.4517 12.832 12.2237 12.628 12.0477 12.34C11.8717 12.052 11.7837 11.648 11.7837 11.128V7.384H10.8717V6.88L11.7957 6.46L12.2157 5.092H12.8397V6.568H14.6997V7.384H12.8397V11.104C12.8397 11.496 12.9317 11.788 13.1157 11.98C13.3077 12.164 13.5517 12.256 13.8477 12.256ZM18.5196 6.448C19.0636 6.448 19.5356 6.568 19.9356 6.808C20.3356 7.048 20.6396 7.388 20.8476 7.828C21.0636 8.26 21.1716 8.768 21.1716 9.352V9.988H16.7676C16.7836 10.716 16.9676 11.272 17.3196 11.656C17.6796 12.032 18.1796 12.22 18.8196 12.22C19.2276 12.22 19.5876 12.184 19.8996 12.112C20.2196 12.032 20.5476 11.92 20.8836 11.776V12.7C20.5556 12.844 20.2316 12.948 19.9116 13.012C19.5916 13.084 19.2116 13.12 18.7716 13.12C18.1556 13.12 17.6156 12.996 17.1516 12.748C16.6876 12.5 16.3236 12.132 16.0596 11.644C15.8036 11.156 15.6756 10.552 15.6756 9.832C15.6756 9.128 15.7916 8.524 16.0236 8.02C16.2636 7.516 16.5956 7.128 17.0196 6.856C17.4516 6.584 17.9516 6.448 18.5196 6.448ZM18.5076 7.312C18.0036 7.312 17.6036 7.476 17.3076 7.804C17.0196 8.124 16.8476 8.572 16.7916 9.148H20.0676C20.0596 8.604 19.9316 8.164 19.6836 7.828C19.4356 7.484 19.0436 7.312 18.5076 7.312ZM32.8623 13H31.6023L27.0183 5.884H26.9703C26.9863 6.164 27.0063 6.512 27.0303 6.928C27.0543 7.344 27.0663 7.772 27.0663 8.212V13H26.0703V4.432H27.3183L31.8903 11.524H31.9383C31.9303 11.396 31.9183 11.204 31.9023 10.948C31.8943 10.692 31.8823 10.416 31.8663 10.12C31.8583 9.816 31.8543 9.532 31.8543 9.268V4.432H32.8623V13ZM37.4794 6.46C38.2634 6.46 38.8434 6.632 39.2194 6.976C39.5954 7.32 39.7834 7.868 39.7834 8.62V13H39.0154L38.8114 12.088H38.7634C38.4834 12.44 38.1874 12.7 37.8754 12.868C37.5634 13.036 37.1394 13.12 36.6034 13.12C36.0194 13.12 35.5354 12.968 35.1514 12.664C34.7674 12.352 34.5754 11.868 34.5754 11.212C34.5754 10.572 34.8274 10.08 35.3314 9.736C35.8354 9.384 36.6114 9.192 37.6594 9.16L38.7514 9.124V8.74C38.7514 8.204 38.6354 7.832 38.4034 7.624C38.1714 7.416 37.8434 7.312 37.4194 7.312C37.0834 7.312 36.7634 7.364 36.4594 7.468C36.1554 7.564 35.8714 7.676 35.6074 7.804L35.2834 7.012C35.5634 6.86 35.8954 6.732 36.2794 6.628C36.6634 6.516 37.0634 6.46 37.4794 6.46ZM38.7394 9.856L37.7914 9.892C36.9914 9.924 36.4354 10.052 36.1234 10.276C35.8194 10.5 35.6674 10.816 35.6674 11.224C35.6674 11.584 35.7754 11.848 35.9914 12.016C36.2154 12.184 36.4994 12.268 36.8434 12.268C37.3794 12.268 37.8274 12.12 38.1874 11.824C38.5554 11.52 38.7394 11.056 38.7394 10.432V9.856ZM48.826 6.448C49.554 6.448 50.098 6.636 50.458 7.012C50.818 7.388 50.998 7.988 50.998 8.812V13H49.954V8.86C49.954 7.844 49.518 7.336 48.646 7.336C48.022 7.336 47.574 7.516 47.302 7.876C47.038 8.236 46.906 8.76 46.906 9.448V13H45.862V8.86C45.862 7.844 45.422 7.336 44.542 7.336C43.894 7.336 43.446 7.536 43.198 7.936C42.95 8.336 42.826 8.912 42.826 9.664V13H41.77V6.568H42.622L42.778 7.444H42.838C43.038 7.108 43.306 6.86 43.642 6.7C43.986 6.532 44.35 6.448 44.734 6.448C45.742 6.448 46.398 6.808 46.702 7.528H46.762C46.978 7.16 47.27 6.888 47.638 6.712C48.006 6.536 48.402 6.448 48.826 6.448ZM55.4688 6.448C56.0128 6.448 56.4848 6.568 56.8848 6.808C57.2848 7.048 57.5888 7.388 57.7968 7.828C58.0128 8.26 58.1208 8.768 58.1208 9.352V9.988H53.7168C53.7328 10.716 53.9168 11.272 54.2688 11.656C54.6288 12.032 55.1288 12.22 55.7688 12.22C56.1768 12.22 56.5368 12.184 56.8488 12.112C57.1688 12.032 57.4968 11.92 57.8328 11.776V12.7C57.5048 12.844 57.1808 12.948 56.8608 13.012C56.5408 13.084 56.1608 13.12 55.7208 13.12C55.1048 13.12 54.5648 12.996 54.1008 12.748C53.6368 12.5 53.2728 12.132 53.0088 11.644C52.7528 11.156 52.6248 10.552 52.6248 9.832C52.6248 9.128 52.7408 8.524 52.9728 8.02C53.2128 7.516 53.5448 7.128 53.9688 6.856C54.4008 6.584 54.9008 6.448 55.4688 6.448ZM55.4568 7.312C54.9528 7.312 54.5528 7.476 54.2568 7.804C53.9688 8.124 53.7968 8.572 53.7408 9.148H57.0168C57.0088 8.604 56.8808 8.164 56.6328 7.828C56.3848 7.484 55.9928 7.312 55.4568 7.312Z" fill="#323232"/>
<path d="M65.7195 3.88L65.4795 6.184L67.7835 5.536L67.9515 6.64L65.7435 6.82L67.1715 8.716L66.1395 9.28L65.1195 7.18L64.1955 9.28L63.1275 8.716L64.5315 6.82L62.3475 6.64L62.5155 5.536L64.7955 6.184L64.5435 3.88H65.7195Z" fill="#D93D32"/>
<rect x="1.5" y="20.5" width="377" height="31" rx="1.5" fill="white"/>
<rect x="1.5" y="20.5" width="377" height="31" rx="1.5" stroke="#939393"/>
<path d="M6.952 69H2.164V60.432H6.952V61.38H3.244V64.056H6.736V64.992H3.244V68.052H6.952V69ZM11.784 62.448C12.552 62.448 13.132 62.636 13.524 63.012C13.916 63.388 14.112 63.988 14.112 64.812V69H13.068V64.884C13.068 63.852 12.588 63.336 11.628 63.336C10.916 63.336 10.424 63.536 10.152 63.936C9.87997 64.336 9.74397 64.912 9.74397 65.664V69H8.68797V62.568H9.53997L9.69597 63.444H9.75597C9.96397 63.108 10.252 62.86 10.62 62.7C10.988 62.532 11.376 62.448 11.784 62.448ZM18.2539 68.256C18.4139 68.256 18.5779 68.244 18.7459 68.22C18.9139 68.196 19.0499 68.164 19.1539 68.124V68.928C19.0419 68.984 18.8819 69.028 18.6739 69.06C18.4659 69.1 18.2659 69.12 18.0739 69.12C17.7379 69.12 17.4259 69.064 17.1379 68.952C16.8579 68.832 16.6299 68.628 16.4539 68.34C16.2779 68.052 16.1899 67.648 16.1899 67.128V63.384H15.2779V62.88L16.2019 62.46L16.6219 61.092H17.2459V62.568H19.1059V63.384H17.2459V67.104C17.2459 67.496 17.3379 67.788 17.5219 67.98C17.7139 68.164 17.9579 68.256 18.2539 68.256ZM22.9259 62.448C23.4699 62.448 23.9419 62.568 24.3419 62.808C24.7419 63.048 25.0459 63.388 25.2539 63.828C25.4699 64.26 25.5779 64.768 25.5779 65.352V65.988H21.1739C21.1899 66.716 21.3739 67.272 21.7259 67.656C22.0859 68.032 22.5859 68.22 23.2259 68.22C23.6339 68.22 23.9939 68.184 24.3059 68.112C24.6259 68.032 24.9539 67.92 25.2899 67.776V68.7C24.9619 68.844 24.6379 68.948 24.3179 69.012C23.9979 69.084 23.6179 69.12 23.1779 69.12C22.5619 69.12 22.0219 68.996 21.5579 68.748C21.0939 68.5 20.7299 68.132 20.4659 67.644C20.2099 67.156 20.0819 66.552 20.0819 65.832C20.0819 65.128 20.1979 64.524 20.4299 64.02C20.6699 63.516 21.0019 63.128 21.4259 62.856C21.8579 62.584 22.3579 62.448 22.9259 62.448ZM22.9139 63.312C22.4099 63.312 22.0099 63.476 21.7139 63.804C21.4259 64.124 21.2539 64.572 21.1979 65.148H24.4739C24.4659 64.604 24.3379 64.164 24.0899 63.828C23.8419 63.484 23.4499 63.312 22.9139 63.312ZM30.2153 62.448C30.3353 62.448 30.4633 62.456 30.5993 62.472C30.7353 62.48 30.8593 62.496 30.9713 62.52L30.8393 63.492C30.7353 63.468 30.6193 63.448 30.4913 63.432C30.3633 63.416 30.2473 63.408 30.1433 63.408C29.8153 63.408 29.5073 63.5 29.2193 63.684C28.9313 63.86 28.6993 64.112 28.5233 64.44C28.3553 64.76 28.2713 65.136 28.2713 65.568V69H27.2153V62.568H28.0793L28.1993 63.744H28.2473C28.4473 63.392 28.7113 63.088 29.0393 62.832C29.3753 62.576 29.7673 62.448 30.2153 62.448ZM37.7255 62.46C38.5095 62.46 39.0895 62.632 39.4655 62.976C39.8415 63.32 40.0295 63.868 40.0295 64.62V69H39.2615L39.0575 68.088H39.0095C38.7295 68.44 38.4335 68.7 38.1215 68.868C37.8095 69.036 37.3855 69.12 36.8495 69.12C36.2655 69.12 35.7815 68.968 35.3975 68.664C35.0135 68.352 34.8215 67.868 34.8215 67.212C34.8215 66.572 35.0735 66.08 35.5775 65.736C36.0815 65.384 36.8575 65.192 37.9055 65.16L38.9975 65.124V64.74C38.9975 64.204 38.8815 63.832 38.6495 63.624C38.4175 63.416 38.0895 63.312 37.6655 63.312C37.3295 63.312 37.0095 63.364 36.7055 63.468C36.4015 63.564 36.1175 63.676 35.8535 63.804L35.5295 63.012C35.8095 62.86 36.1415 62.732 36.5255 62.628C36.9095 62.516 37.3095 62.46 37.7255 62.46ZM38.9855 65.856L38.0375 65.892C37.2375 65.924 36.6815 66.052 36.3695 66.276C36.0655 66.5 35.9135 66.816 35.9135 67.224C35.9135 67.584 36.0215 67.848 36.2375 68.016C36.4615 68.184 36.7455 68.268 37.0895 68.268C37.6255 68.268 38.0735 68.12 38.4335 67.824C38.8015 67.52 38.9855 67.056 38.9855 66.432V65.856ZM50.5093 62.568V69H49.6453L49.4893 68.148H49.4413C49.2333 68.484 48.9453 68.732 48.5773 68.892C48.2093 69.044 47.8173 69.12 47.4013 69.12C46.6253 69.12 46.0413 68.936 45.6493 68.568C45.2573 68.192 45.0613 67.596 45.0613 66.78V62.568H46.1293V66.708C46.1293 67.732 46.6053 68.244 47.5573 68.244C48.2693 68.244 48.7613 68.044 49.0333 67.644C49.3133 67.244 49.4533 66.668 49.4533 65.916V62.568H50.5093ZM55.6473 62.448C56.4153 62.448 56.9953 62.636 57.3873 63.012C57.7793 63.388 57.9753 63.988 57.9753 64.812V69H56.9313V64.884C56.9313 63.852 56.4513 63.336 55.4913 63.336C54.7793 63.336 54.2873 63.536 54.0153 63.936C53.7433 64.336 53.6073 64.912 53.6073 65.664V69H52.5513V62.568H53.4033L53.5593 63.444H53.6193C53.8273 63.108 54.1153 62.86 54.4833 62.7C54.8513 62.532 55.2393 62.448 55.6473 62.448ZM60.5092 60.156C60.6692 60.156 60.8092 60.212 60.9292 60.324C61.0572 60.428 61.1212 60.596 61.1212 60.828C61.1212 61.06 61.0572 61.232 60.9292 61.344C60.8092 61.448 60.6692 61.5 60.5092 61.5C60.3332 61.5 60.1852 61.448 60.0652 61.344C59.9452 61.232 59.8852 61.06 59.8852 60.828C59.8852 60.596 59.9452 60.428 60.0652 60.324C60.1852 60.212 60.3332 60.156 60.5092 60.156ZM61.0252 62.568V69H59.9692V62.568H61.0252ZM67.347 71.88V69.132C67.347 68.988 67.351 68.82 67.359 68.628C67.367 68.436 67.383 68.272 67.407 68.136H67.335C67.151 68.408 66.895 68.64 66.567 68.832C66.247 69.024 65.831 69.12 65.319 69.12C64.543 69.12 63.911 68.844 63.423 68.292C62.943 67.732 62.703 66.9 62.703 65.796C62.703 64.692 62.947 63.86 63.435 63.3C63.931 62.732 64.571 62.448 65.355 62.448C65.859 62.448 66.271 62.544 66.591 62.736C66.911 62.928 67.167 63.164 67.359 63.444H67.407L67.563 62.568H68.403V71.88H67.347ZM65.523 68.244C66.179 68.244 66.647 68.064 66.927 67.704C67.207 67.336 67.351 66.776 67.359 66.024V65.808C67.359 64.992 67.223 64.376 66.951 63.96C66.679 63.536 66.195 63.324 65.499 63.324C64.923 63.324 64.495 63.552 64.215 64.008C63.935 64.456 63.795 65.06 63.795 65.82C63.795 66.58 63.935 67.176 64.215 67.608C64.495 68.032 64.931 68.244 65.523 68.244ZM75.8218 62.568V69H74.9578L74.8018 68.148H74.7538C74.5458 68.484 74.2578 68.732 73.8898 68.892C73.5218 69.044 73.1298 69.12 72.7138 69.12C71.9378 69.12 71.3538 68.936 70.9618 68.568C70.5698 68.192 70.3738 67.596 70.3738 66.78V62.568H71.4418V66.708C71.4418 67.732 71.9178 68.244 72.8698 68.244C73.5818 68.244 74.0738 68.044 74.3458 67.644C74.6258 67.244 74.7658 66.668 74.7658 65.916V62.568H75.8218ZM80.3478 62.448C80.8918 62.448 81.3638 62.568 81.7638 62.808C82.1638 63.048 82.4678 63.388 82.6758 63.828C82.8918 64.26 82.9998 64.768 82.9998 65.352V65.988H78.5958C78.6118 66.716 78.7958 67.272 79.1478 67.656C79.5078 68.032 80.0078 68.22 80.6478 68.22C81.0558 68.22 81.4158 68.184 81.7278 68.112C82.0478 68.032 82.3758 67.92 82.7118 67.776V68.7C82.3838 68.844 82.0598 68.948 81.7398 69.012C81.4198 69.084 81.0398 69.12 80.5998 69.12C79.9838 69.12 79.4438 68.996 78.9798 68.748C78.5158 68.5 78.1518 68.132 77.8878 67.644C77.6318 67.156 77.5038 66.552 77.5038 65.832C77.5038 65.128 77.6198 64.524 77.8518 64.02C78.0918 63.516 78.4238 63.128 78.8478 62.856C79.2798 62.584 79.7798 62.448 80.3478 62.448ZM80.3358 63.312C79.8318 63.312 79.4318 63.476 79.1358 63.804C78.8478 64.124 78.6758 64.572 78.6198 65.148H81.8958C81.8878 64.604 81.7598 64.164 81.5118 63.828C81.2638 63.484 80.8718 63.312 80.3358 63.312ZM90.8504 62.448C91.6184 62.448 92.1984 62.636 92.5904 63.012C92.9824 63.388 93.1784 63.988 93.1784 64.812V69H92.1344V64.884C92.1344 63.852 91.6544 63.336 90.6944 63.336C89.9824 63.336 89.4904 63.536 89.2184 63.936C88.9464 64.336 88.8104 64.912 88.8104 65.664V69H87.7544V62.568H88.6064L88.7624 63.444H88.8224C89.0304 63.108 89.3184 62.86 89.6864 62.7C90.0544 62.532 90.4424 62.448 90.8504 62.448ZM97.6083 62.46C98.3923 62.46 98.9723 62.632 99.3483 62.976C99.7243 63.32 99.9123 63.868 99.9123 64.62V69H99.1443L98.9403 68.088H98.8923C98.6123 68.44 98.3163 68.7 98.0043 68.868C97.6923 69.036 97.2683 69.12 96.7323 69.12C96.1483 69.12 95.6643 68.968 95.2803 68.664C94.8963 68.352 94.7043 67.868 94.7043 67.212C94.7043 66.572 94.9563 66.08 95.4603 65.736C95.9643 65.384 96.7403 65.192 97.7883 65.16L98.8803 65.124V64.74C98.8803 64.204 98.7643 63.832 98.5323 63.624C98.3003 63.416 97.9723 63.312 97.5483 63.312C97.2123 63.312 96.8923 63.364 96.5883 63.468C96.2843 63.564 96.0003 63.676 95.7363 63.804L95.4123 63.012C95.6923 62.86 96.0243 62.732 96.4083 62.628C96.7923 62.516 97.1923 62.46 97.6083 62.46ZM98.8683 65.856L97.9203 65.892C97.1203 65.924 96.5643 66.052 96.2523 66.276C95.9483 66.5 95.7963 66.816 95.7963 67.224C95.7963 67.584 95.9043 67.848 96.1203 68.016C96.3443 68.184 96.6283 68.268 96.9723 68.268C97.5083 68.268 97.9563 68.12 98.3163 67.824C98.6843 67.52 98.8683 67.056 98.8683 66.432V65.856ZM108.955 62.448C109.683 62.448 110.227 62.636 110.587 63.012C110.947 63.388 111.127 63.988 111.127 64.812V69H110.083V64.86C110.083 63.844 109.647 63.336 108.775 63.336C108.151 63.336 107.703 63.516 107.431 63.876C107.167 64.236 107.035 64.76 107.035 65.448V69H105.991V64.86C105.991 63.844 105.551 63.336 104.671 63.336C104.023 63.336 103.575 63.536 103.327 63.936C103.079 64.336 102.955 64.912 102.955 65.664V69H101.899V62.568H102.751L102.907 63.444H102.967C103.167 63.108 103.435 62.86 103.771 62.7C104.115 62.532 104.479 62.448 104.863 62.448C105.871 62.448 106.527 62.808 106.831 63.528H106.891C107.107 63.16 107.399 62.888 107.767 62.712C108.135 62.536 108.531 62.448 108.955 62.448ZM115.598 62.448C116.142 62.448 116.614 62.568 117.014 62.808C117.414 63.048 117.718 63.388 117.926 63.828C118.142 64.26 118.25 64.768 118.25 65.352V65.988H113.846C113.862 66.716 114.046 67.272 114.398 67.656C114.758 68.032 115.258 68.22 115.898 68.22C116.306 68.22 116.666 68.184 116.978 68.112C117.298 68.032 117.626 67.92 117.962 67.776V68.7C117.634 68.844 117.31 68.948 116.99 69.012C116.67 69.084 116.29 69.12 115.85 69.12C115.234 69.12 114.694 68.996 114.23 68.748C113.766 68.5 113.402 68.132 113.138 67.644C112.882 67.156 112.754 66.552 112.754 65.832C112.754 65.128 112.87 64.524 113.102 64.02C113.342 63.516 113.674 63.128 114.098 62.856C114.53 62.584 115.03 62.448 115.598 62.448ZM115.586 63.312C115.082 63.312 114.682 63.476 114.386 63.804C114.098 64.124 113.926 64.572 113.87 65.148H117.146C117.138 64.604 117.01 64.164 116.762 63.828C116.514 63.484 116.122 63.312 115.586 63.312ZM125.968 63.384H124.348V69H123.292V63.384H122.164V62.892L123.292 62.532V62.16C123.292 61.328 123.472 60.732 123.832 60.372C124.2 60.004 124.716 59.82 125.38 59.82C125.628 59.82 125.86 59.844 126.076 59.892C126.292 59.932 126.476 59.98 126.628 60.036L126.352 60.864C126.224 60.824 126.076 60.784 125.908 60.744C125.74 60.704 125.568 60.684 125.392 60.684C125.04 60.684 124.776 60.804 124.6 61.044C124.432 61.276 124.348 61.644 124.348 62.148V62.568H125.968V63.384ZM132.721 65.772C132.721 66.836 132.449 67.66 131.905 68.244C131.369 68.828 130.641 69.12 129.721 69.12C129.153 69.12 128.645 68.992 128.197 68.736C127.757 68.472 127.409 68.092 127.153 67.596C126.897 67.092 126.769 66.484 126.769 65.772C126.769 64.708 127.033 63.888 127.561 63.312C128.097 62.736 128.829 62.448 129.757 62.448C130.333 62.448 130.845 62.58 131.293 62.844C131.741 63.1 132.089 63.476 132.337 63.972C132.593 64.46 132.721 65.06 132.721 65.772ZM127.861 65.772C127.861 66.532 128.009 67.136 128.305 67.584C128.609 68.024 129.089 68.244 129.745 68.244C130.393 68.244 130.869 68.024 131.173 67.584C131.477 67.136 131.629 66.532 131.629 65.772C131.629 65.012 131.477 64.416 131.173 63.984C130.869 63.552 130.389 63.336 129.733 63.336C129.077 63.336 128.601 63.552 128.305 63.984C128.009 64.416 127.861 65.012 127.861 65.772ZM137.395 62.448C137.515 62.448 137.643 62.456 137.779 62.472C137.915 62.48 138.039 62.496 138.151 62.52L138.019 63.492C137.915 63.468 137.799 63.448 137.671 63.432C137.543 63.416 137.427 63.408 137.323 63.408C136.995 63.408 136.687 63.5 136.399 63.684C136.111 63.86 135.879 64.112 135.703 64.44C135.535 64.76 135.451 65.136 135.451 65.568V69H134.395V62.568H135.259L135.379 63.744H135.427C135.627 63.392 135.891 63.088 136.219 62.832C136.555 62.576 136.947 62.448 137.395 62.448ZM144.617 68.256C144.777 68.256 144.941 68.244 145.109 68.22C145.277 68.196 145.413 68.164 145.517 68.124V68.928C145.405 68.984 145.245 69.028 145.037 69.06C144.829 69.1 144.629 69.12 144.437 69.12C144.101 69.12 143.789 69.064 143.501 68.952C143.221 68.832 142.993 68.628 142.817 68.34C142.641 68.052 142.553 67.648 142.553 67.128V63.384H141.641V62.88L142.565 62.46L142.985 61.092H143.609V62.568H145.469V63.384H143.609V67.104C143.609 67.496 143.701 67.788 143.885 67.98C144.077 68.164 144.321 68.256 144.617 68.256ZM147.861 59.88V62.556C147.861 62.876 147.841 63.176 147.801 63.456H147.873C148.081 63.128 148.361 62.88 148.713 62.712C149.073 62.544 149.461 62.46 149.877 62.46C150.653 62.46 151.237 62.648 151.629 63.024C152.029 63.392 152.229 63.988 152.229 64.812V69H151.185V64.884C151.185 63.852 150.705 63.336 149.745 63.336C149.025 63.336 148.529 63.54 148.257 63.948C147.993 64.348 147.861 64.924 147.861 65.676V69H146.805V59.88H147.861ZM156.707 62.448C157.251 62.448 157.723 62.568 158.123 62.808C158.523 63.048 158.827 63.388 159.035 63.828C159.251 64.26 159.359 64.768 159.359 65.352V65.988H154.955C154.971 66.716 155.155 67.272 155.507 67.656C155.867 68.032 156.367 68.22 157.007 68.22C157.415 68.22 157.775 68.184 158.087 68.112C158.407 68.032 158.735 67.92 159.071 67.776V68.7C158.743 68.844 158.419 68.948 158.099 69.012C157.779 69.084 157.399 69.12 156.959 69.12C156.343 69.12 155.803 68.996 155.339 68.748C154.875 68.5 154.511 68.132 154.247 67.644C153.991 67.156 153.863 66.552 153.863 65.832C153.863 65.128 153.979 64.524 154.211 64.02C154.451 63.516 154.783 63.128 155.207 62.856C155.639 62.584 156.139 62.448 156.707 62.448ZM156.695 63.312C156.191 63.312 155.791 63.476 155.495 63.804C155.207 64.124 155.035 64.572 154.979 65.148H158.255C158.247 64.604 158.119 64.164 157.871 63.828C157.623 63.484 157.231 63.312 156.695 63.312ZM168.302 67.224C168.302 67.848 168.07 68.32 167.606 68.64C167.142 68.96 166.518 69.12 165.734 69.12C165.286 69.12 164.898 69.084 164.57 69.012C164.25 68.94 163.966 68.84 163.718 68.712V67.752C163.974 67.88 164.282 68 164.642 68.112C165.01 68.216 165.382 68.268 165.758 68.268C166.294 68.268 166.682 68.184 166.922 68.016C167.162 67.84 167.282 67.608 167.282 67.32C167.282 67.16 167.238 67.016 167.15 66.888C167.062 66.76 166.902 66.632 166.67 66.504C166.446 66.376 166.122 66.232 165.698 66.072C165.282 65.912 164.926 65.752 164.63 65.592C164.334 65.432 164.106 65.24 163.946 65.016C163.786 64.792 163.706 64.504 163.706 64.152C163.706 63.608 163.926 63.188 164.366 62.892C164.814 62.596 165.398 62.448 166.118 62.448C166.51 62.448 166.874 62.488 167.21 62.568C167.554 62.648 167.874 62.752 168.17 62.88L167.81 63.72C167.538 63.608 167.254 63.512 166.958 63.432C166.662 63.352 166.358 63.312 166.046 63.312C165.614 63.312 165.282 63.384 165.05 63.528C164.826 63.664 164.714 63.852 164.714 64.092C164.714 64.276 164.766 64.428 164.87 64.548C164.974 64.668 165.146 64.788 165.386 64.908C165.634 65.028 165.962 65.164 166.37 65.316C166.778 65.468 167.126 65.624 167.414 65.784C167.702 65.944 167.922 66.14 168.074 66.372C168.226 66.596 168.302 66.88 168.302 67.224ZM170.396 60.156C170.556 60.156 170.696 60.212 170.816 60.324C170.944 60.428 171.008 60.596 171.008 60.828C171.008 61.06 170.944 61.232 170.816 61.344C170.696 61.448 170.556 61.5 170.396 61.5C170.22 61.5 170.072 61.448 169.952 61.344C169.832 61.232 169.772 61.06 169.772 60.828C169.772 60.596 169.832 60.428 169.952 60.324C170.072 60.212 170.22 60.156 170.396 60.156ZM170.912 62.568V69H169.856V62.568H170.912ZM175.098 68.256C175.258 68.256 175.422 68.244 175.59 68.22C175.758 68.196 175.894 68.164 175.998 68.124V68.928C175.886 68.984 175.726 69.028 175.518 69.06C175.31 69.1 175.11 69.12 174.918 69.12C174.582 69.12 174.27 69.064 173.982 68.952C173.702 68.832 173.474 68.628 173.298 68.34C173.122 68.052 173.034 67.648 173.034 67.128V63.384H172.122V62.88L173.046 62.46L173.466 61.092H174.09V62.568H175.95V63.384H174.09V67.104C174.09 67.496 174.182 67.788 174.366 67.98C174.558 68.164 174.802 68.256 175.098 68.256ZM179.77 62.448C180.314 62.448 180.786 62.568 181.186 62.808C181.586 63.048 181.89 63.388 182.098 63.828C182.314 64.26 182.422 64.768 182.422 65.352V65.988H178.018C178.034 66.716 178.218 67.272 178.57 67.656C178.93 68.032 179.43 68.22 180.07 68.22C180.478 68.22 180.838 68.184 181.15 68.112C181.47 68.032 181.798 67.92 182.134 67.776V68.7C181.806 68.844 181.482 68.948 181.162 69.012C180.842 69.084 180.462 69.12 180.022 69.12C179.406 69.12 178.866 68.996 178.402 68.748C177.938 68.5 177.574 68.132 177.31 67.644C177.054 67.156 176.926 66.552 176.926 65.832C176.926 65.128 177.042 64.524 177.274 64.02C177.514 63.516 177.846 63.128 178.27 62.856C178.702 62.584 179.202 62.448 179.77 62.448ZM179.758 63.312C179.254 63.312 178.854 63.476 178.558 63.804C178.27 64.124 178.098 64.572 178.042 65.148H181.318C181.31 64.604 181.182 64.164 180.934 63.828C180.686 63.484 180.294 63.312 179.758 63.312ZM188.232 59.88V62.556C188.232 62.876 188.212 63.176 188.172 63.456H188.244C188.452 63.128 188.732 62.88 189.084 62.712C189.444 62.544 189.832 62.46 190.248 62.46C191.024 62.46 191.608 62.648 192 63.024C192.4 63.392 192.6 63.988 192.6 64.812V69H191.556V64.884C191.556 63.852 191.076 63.336 190.116 63.336C189.396 63.336 188.9 63.54 188.628 63.948C188.364 64.348 188.232 64.924 188.232 65.676V69H187.176V59.88H188.232ZM197.078 62.448C197.622 62.448 198.094 62.568 198.494 62.808C198.894 63.048 199.198 63.388 199.406 63.828C199.622 64.26 199.73 64.768 199.73 65.352V65.988H195.326C195.342 66.716 195.526 67.272 195.878 67.656C196.238 68.032 196.738 68.22 197.378 68.22C197.786 68.22 198.146 68.184 198.458 68.112C198.778 68.032 199.106 67.92 199.442 67.776V68.7C199.114 68.844 198.79 68.948 198.47 69.012C198.15 69.084 197.77 69.12 197.33 69.12C196.714 69.12 196.174 68.996 195.71 68.748C195.246 68.5 194.882 68.132 194.618 67.644C194.362 67.156 194.234 66.552 194.234 65.832C194.234 65.128 194.35 64.524 194.582 64.02C194.822 63.516 195.154 63.128 195.578 62.856C196.01 62.584 196.51 62.448 197.078 62.448ZM197.066 63.312C196.562 63.312 196.162 63.476 195.866 63.804C195.578 64.124 195.406 64.572 195.35 65.148H198.626C198.618 64.604 198.49 64.164 198.242 63.828C197.994 63.484 197.602 63.312 197.066 63.312ZM204.368 62.448C204.488 62.448 204.616 62.456 204.752 62.472C204.888 62.48 205.012 62.496 205.124 62.52L204.992 63.492C204.888 63.468 204.772 63.448 204.644 63.432C204.516 63.416 204.4 63.408 204.296 63.408C203.968 63.408 203.66 63.5 203.372 63.684C203.084 63.86 202.852 64.112 202.676 64.44C202.508 64.76 202.424 65.136 202.424 65.568V69H201.368V62.568H202.232L202.352 63.744H202.4C202.6 63.392 202.864 63.088 203.192 62.832C203.528 62.576 203.92 62.448 204.368 62.448ZM208.574 62.448C209.118 62.448 209.59 62.568 209.99 62.808C210.39 63.048 210.694 63.388 210.902 63.828C211.118 64.26 211.226 64.768 211.226 65.352V65.988H206.822C206.838 66.716 207.022 67.272 207.374 67.656C207.734 68.032 208.234 68.22 208.874 68.22C209.282 68.22 209.642 68.184 209.954 68.112C210.274 68.032 210.602 67.92 210.938 67.776V68.7C210.61 68.844 210.286 68.948 209.966 69.012C209.646 69.084 209.266 69.12 208.826 69.12C208.21 69.12 207.67 68.996 207.206 68.748C206.742 68.5 206.378 68.132 206.114 67.644C205.858 67.156 205.73 66.552 205.73 65.832C205.73 65.128 205.846 64.524 206.078 64.02C206.318 63.516 206.65 63.128 207.074 62.856C207.506 62.584 208.006 62.448 208.574 62.448ZM208.562 63.312C208.058 63.312 207.658 63.476 207.362 63.804C207.074 64.124 206.902 64.572 206.846 65.148H210.122C210.114 64.604 209.986 64.164 209.738 63.828C209.49 63.484 209.098 63.312 208.562 63.312ZM221.237 68.988L220.133 65.364C220.029 65.036 219.937 64.716 219.857 64.404C219.777 64.092 219.721 63.844 219.689 63.66H219.641C219.609 63.844 219.557 64.092 219.485 64.404C219.413 64.716 219.321 65.04 219.209 65.376L218.057 68.988H216.857L215.093 62.556H216.185L217.073 65.988C217.161 66.332 217.245 66.68 217.325 67.032C217.405 67.384 217.461 67.676 217.493 67.908H217.541C217.565 67.772 217.601 67.604 217.649 67.404C217.697 67.204 217.749 66.996 217.805 66.78C217.861 66.556 217.917 66.356 217.973 66.18L219.113 62.556H220.265L221.369 66.18C221.449 66.46 221.533 66.76 221.621 67.08C221.709 67.4 221.769 67.672 221.801 67.896H221.849C221.873 67.696 221.925 67.42 222.005 67.068C222.093 66.716 222.185 66.356 222.281 65.988L223.181 62.556H224.261L222.473 68.988H221.237ZM225.955 60.156C226.115 60.156 226.255 60.212 226.375 60.324C226.503 60.428 226.567 60.596 226.567 60.828C226.567 61.06 226.503 61.232 226.375 61.344C226.255 61.448 226.115 61.5 225.955 61.5C225.779 61.5 225.631 61.448 225.511 61.344C225.391 61.232 225.331 61.06 225.331 60.828C225.331 60.596 225.391 60.428 225.511 60.324C225.631 60.212 225.779 60.156 225.955 60.156ZM226.471 62.568V69H225.415V62.568H226.471ZM230.656 68.256C230.816 68.256 230.98 68.244 231.148 68.22C231.316 68.196 231.452 68.164 231.556 68.124V68.928C231.444 68.984 231.284 69.028 231.076 69.06C230.868 69.1 230.668 69.12 230.476 69.12C230.14 69.12 229.828 69.064 229.54 68.952C229.26 68.832 229.032 68.628 228.856 68.34C228.68 68.052 228.592 67.648 228.592 67.128V63.384H227.68V62.88L228.604 62.46L229.024 61.092H229.648V62.568H231.508V63.384H229.648V67.104C229.648 67.496 229.74 67.788 229.924 67.98C230.116 68.164 230.36 68.256 230.656 68.256ZM233.9 59.88V62.556C233.9 62.876 233.88 63.176 233.84 63.456H233.912C234.12 63.128 234.4 62.88 234.752 62.712C235.112 62.544 235.5 62.46 235.916 62.46C236.692 62.46 237.276 62.648 237.668 63.024C238.068 63.392 238.268 63.988 238.268 64.812V69H237.224V64.884C237.224 63.852 236.744 63.336 235.784 63.336C235.064 63.336 234.568 63.54 234.296 63.948C234.032 64.348 233.9 64.924 233.9 65.676V69H232.844V59.88H233.9ZM250.435 62.448C251.163 62.448 251.707 62.636 252.067 63.012C252.427 63.388 252.607 63.988 252.607 64.812V69H251.563V64.86C251.563 63.844 251.127 63.336 250.255 63.336C249.631 63.336 249.183 63.516 248.911 63.876C248.647 64.236 248.515 64.76 248.515 65.448V69H247.471V64.86C247.471 63.844 247.031 63.336 246.151 63.336C245.503 63.336 245.055 63.536 244.807 63.936C244.559 64.336 244.435 64.912 244.435 65.664V69H243.379V62.568H244.231L244.387 63.444H244.447C244.647 63.108 244.915 62.86 245.251 62.7C245.595 62.532 245.959 62.448 246.343 62.448C247.351 62.448 248.007 62.808 248.311 63.528H248.371C248.587 63.16 248.879 62.888 249.247 62.712C249.615 62.536 250.011 62.448 250.435 62.448ZM257.03 62.46C257.814 62.46 258.394 62.632 258.77 62.976C259.146 63.32 259.334 63.868 259.334 64.62V69H258.566L258.362 68.088H258.314C258.034 68.44 257.738 68.7 257.426 68.868C257.114 69.036 256.69 69.12 256.154 69.12C255.57 69.12 255.086 68.968 254.702 68.664C254.318 68.352 254.126 67.868 254.126 67.212C254.126 66.572 254.378 66.08 254.882 65.736C255.386 65.384 256.162 65.192 257.21 65.16L258.302 65.124V64.74C258.302 64.204 258.186 63.832 257.954 63.624C257.722 63.416 257.394 63.312 256.97 63.312C256.634 63.312 256.314 63.364 256.01 63.468C255.706 63.564 255.422 63.676 255.158 63.804L254.834 63.012C255.114 62.86 255.446 62.732 255.83 62.628C256.214 62.516 256.614 62.46 257.03 62.46ZM258.29 65.856L257.342 65.892C256.542 65.924 255.986 66.052 255.674 66.276C255.37 66.5 255.218 66.816 255.218 67.224C255.218 67.584 255.326 67.848 255.542 68.016C255.766 68.184 256.05 68.268 256.394 68.268C256.93 68.268 257.378 68.12 257.738 67.824C258.106 67.52 258.29 67.056 258.29 66.432V65.856ZM262.845 65.712L260.625 62.568H261.825L263.481 64.992L265.125 62.568H266.313L264.093 65.712L266.433 69H265.233L263.481 66.432L261.705 69H260.517L262.845 65.712ZM268.212 60.156C268.372 60.156 268.512 60.212 268.632 60.324C268.76 60.428 268.824 60.596 268.824 60.828C268.824 61.06 268.76 61.232 268.632 61.344C268.512 61.448 268.372 61.5 268.212 61.5C268.036 61.5 267.888 61.448 267.768 61.344C267.648 61.232 267.588 61.06 267.588 60.828C267.588 60.596 267.648 60.428 267.768 60.324C267.888 60.212 268.036 60.156 268.212 60.156ZM268.728 62.568V69H267.672V62.568H268.728ZM277.822 62.448C278.55 62.448 279.094 62.636 279.454 63.012C279.814 63.388 279.994 63.988 279.994 64.812V69H278.95V64.86C278.95 63.844 278.514 63.336 277.642 63.336C277.018 63.336 276.57 63.516 276.298 63.876C276.034 64.236 275.902 64.76 275.902 65.448V69H274.858V64.86C274.858 63.844 274.418 63.336 273.538 63.336C272.89 63.336 272.442 63.536 272.194 63.936C271.946 64.336 271.822 64.912 271.822 65.664V69H270.766V62.568H271.618L271.774 63.444H271.834C272.034 63.108 272.302 62.86 272.638 62.7C272.982 62.532 273.346 62.448 273.73 62.448C274.738 62.448 275.394 62.808 275.698 63.528H275.758C275.974 63.16 276.266 62.888 276.634 62.712C277.002 62.536 277.398 62.448 277.822 62.448ZM287.357 62.568V69H286.493L286.337 68.148H286.289C286.081 68.484 285.793 68.732 285.425 68.892C285.057 69.044 284.665 69.12 284.249 69.12C283.473 69.12 282.889 68.936 282.497 68.568C282.105 68.192 281.909 67.596 281.909 66.78V62.568H282.977V66.708C282.977 67.732 283.453 68.244 284.405 68.244C285.117 68.244 285.609 68.044 285.881 67.644C286.161 67.244 286.301 66.668 286.301 65.916V62.568H287.357ZM296.455 62.448C297.183 62.448 297.727 62.636 298.087 63.012C298.447 63.388 298.627 63.988 298.627 64.812V69H297.583V64.86C297.583 63.844 297.147 63.336 296.275 63.336C295.651 63.336 295.203 63.516 294.931 63.876C294.667 64.236 294.535 64.76 294.535 65.448V69H293.491V64.86C293.491 63.844 293.051 63.336 292.171 63.336C291.523 63.336 291.075 63.536 290.827 63.936C290.579 64.336 290.455 64.912 290.455 65.664V69H289.399V62.568H290.251L290.407 63.444H290.467C290.667 63.108 290.935 62.86 291.271 62.7C291.615 62.532 291.979 62.448 292.363 62.448C293.371 62.448 294.027 62.808 294.331 63.528H294.391C294.607 63.16 294.899 62.888 295.267 62.712C295.635 62.536 296.031 62.448 296.455 62.448ZM304.787 69H303.731V59.88H304.787V69ZM309.309 62.448C309.853 62.448 310.325 62.568 310.725 62.808C311.125 63.048 311.429 63.388 311.637 63.828C311.853 64.26 311.961 64.768 311.961 65.352V65.988H307.557C307.573 66.716 307.757 67.272 308.109 67.656C308.469 68.032 308.969 68.22 309.609 68.22C310.017 68.22 310.377 68.184 310.689 68.112C311.009 68.032 311.337 67.92 311.673 67.776V68.7C311.345 68.844 311.021 68.948 310.701 69.012C310.381 69.084 310.001 69.12 309.561 69.12C308.945 69.12 308.405 68.996 307.941 68.748C307.477 68.5 307.113 68.132 306.849 67.644C306.593 67.156 306.465 66.552 306.465 65.832C306.465 65.128 306.581 64.524 306.813 64.02C307.053 63.516 307.385 63.128 307.809 62.856C308.241 62.584 308.741 62.448 309.309 62.448ZM309.297 63.312C308.793 63.312 308.393 63.476 308.097 63.804C307.809 64.124 307.637 64.572 307.581 65.148H310.857C310.849 64.604 310.721 64.164 310.473 63.828C310.225 63.484 309.833 63.312 309.297 63.312ZM316.694 62.448C317.462 62.448 318.042 62.636 318.434 63.012C318.826 63.388 319.022 63.988 319.022 64.812V69H317.978V64.884C317.978 63.852 317.498 63.336 316.538 63.336C315.826 63.336 315.334 63.536 315.062 63.936C314.79 64.336 314.654 64.912 314.654 65.664V69H313.598V62.568H314.45L314.606 63.444H314.666C314.874 63.108 315.162 62.86 315.53 62.7C315.898 62.532 316.286 62.448 316.694 62.448ZM323.296 62.448C323.72 62.448 324.1 62.528 324.436 62.688C324.78 62.848 325.072 63.092 325.312 63.42H325.372L325.516 62.568H326.356V69.108C326.356 70.028 326.12 70.72 325.648 71.184C325.184 71.648 324.46 71.88 323.476 71.88C322.532 71.88 321.76 71.744 321.16 71.472V70.5C321.792 70.836 322.584 71.004 323.536 71.004C324.088 71.004 324.52 70.84 324.832 70.512C325.152 70.192 325.312 69.752 325.312 69.192V68.94C325.312 68.844 325.316 68.708 325.324 68.532C325.332 68.348 325.34 68.22 325.348 68.148H325.3C324.868 68.796 324.204 69.12 323.308 69.12C322.476 69.12 321.824 68.828 321.352 68.244C320.888 67.66 320.656 66.844 320.656 65.796C320.656 64.772 320.888 63.96 321.352 63.36C321.824 62.752 322.472 62.448 323.296 62.448ZM323.44 63.336C322.904 63.336 322.488 63.552 322.192 63.984C321.896 64.408 321.748 65.016 321.748 65.808C321.748 66.6 321.892 67.208 322.18 67.632C322.468 68.048 322.896 68.256 323.464 68.256C324.112 68.256 324.584 68.084 324.88 67.74C325.176 67.388 325.324 66.824 325.324 66.048V65.796C325.324 64.924 325.172 64.296 324.868 63.912C324.564 63.528 324.088 63.336 323.44 63.336ZM330.547 68.256C330.707 68.256 330.871 68.244 331.039 68.22C331.207 68.196 331.343 68.164 331.447 68.124V68.928C331.335 68.984 331.175 69.028 330.967 69.06C330.759 69.1 330.559 69.12 330.367 69.12C330.031 69.12 329.719 69.064 329.431 68.952C329.151 68.832 328.923 68.628 328.747 68.34C328.571 68.052 328.483 67.648 328.483 67.128V63.384H327.571V62.88L328.495 62.46L328.915 61.092H329.539V62.568H331.399V63.384H329.539V67.104C329.539 67.496 329.631 67.788 329.815 67.98C330.007 68.164 330.251 68.256 330.547 68.256ZM333.791 59.88V62.556C333.791 62.876 333.771 63.176 333.731 63.456H333.803C334.011 63.128 334.291 62.88 334.643 62.712C335.003 62.544 335.391 62.46 335.807 62.46C336.583 62.46 337.167 62.648 337.559 63.024C337.959 63.392 338.159 63.988 338.159 64.812V69H337.115V64.884C337.115 63.852 336.635 63.336 335.675 63.336C334.955 63.336 334.459 63.54 334.187 63.948C333.923 64.348 333.791 64.924 333.791 65.676V69H332.735V59.88H333.791ZM348.862 65.772C348.862 66.836 348.59 67.66 348.046 68.244C347.51 68.828 346.782 69.12 345.862 69.12C345.294 69.12 344.786 68.992 344.338 68.736C343.898 68.472 343.55 68.092 343.294 67.596C343.038 67.092 342.91 66.484 342.91 65.772C342.91 64.708 343.174 63.888 343.702 63.312C344.238 62.736 344.97 62.448 345.898 62.448C346.474 62.448 346.986 62.58 347.434 62.844C347.882 63.1 348.23 63.476 348.478 63.972C348.734 64.46 348.862 65.06 348.862 65.772ZM344.002 65.772C344.002 66.532 344.15 67.136 344.446 67.584C344.75 68.024 345.23 68.244 345.886 68.244C346.534 68.244 347.01 68.024 347.314 67.584C347.618 67.136 347.77 66.532 347.77 65.772C347.77 65.012 347.618 64.416 347.314 63.984C347.01 63.552 346.53 63.336 345.874 63.336C345.218 63.336 344.742 63.552 344.446 63.984C344.15 64.416 344.002 65.012 344.002 65.772ZM353.5 63.384H351.88V69H350.824V63.384H349.696V62.892L350.824 62.532V62.16C350.824 61.328 351.004 60.732 351.364 60.372C351.732 60.004 352.248 59.82 352.912 59.82C353.16 59.82 353.392 59.844 353.608 59.892C353.824 59.932 354.008 59.98 354.16 60.036L353.884 60.864C353.756 60.824 353.608 60.784 353.44 60.744C353.272 60.704 353.1 60.684 352.924 60.684C352.572 60.684 352.308 60.804 352.132 61.044C351.964 61.276 351.88 61.644 351.88 62.148V62.568H353.5V63.384ZM362.674 62.436C362.674 63.012 362.51 63.472 362.182 63.816C361.862 64.152 361.434 64.376 360.898 64.488V64.536C361.578 64.616 362.086 64.832 362.422 65.184C362.766 65.536 362.938 65.996 362.938 66.564C362.938 67.068 362.822 67.512 362.59 67.896C362.358 68.28 361.998 68.58 361.51 68.796C361.03 69.012 360.41 69.12 359.65 69.12C359.202 69.12 358.786 69.084 358.402 69.012C358.018 68.948 357.65 68.828 357.298 68.652V67.668C357.658 67.852 358.046 67.992 358.462 68.088C358.878 68.184 359.278 68.232 359.662 68.232C360.43 68.232 360.982 68.084 361.318 67.788C361.662 67.484 361.834 67.068 361.834 66.54C361.834 66.004 361.622 65.62 361.198 65.388C360.782 65.148 360.194 65.028 359.434 65.028H358.606V64.128H359.446C360.15 64.128 360.682 63.98 361.042 63.684C361.41 63.388 361.594 62.996 361.594 62.508C361.594 62.092 361.454 61.772 361.174 61.548C360.894 61.316 360.514 61.2 360.034 61.2C359.57 61.2 359.174 61.268 358.846 61.404C358.518 61.54 358.194 61.712 357.874 61.92L357.346 61.2C357.65 60.96 358.026 60.752 358.474 60.576C358.93 60.4 359.446 60.312 360.022 60.312C360.918 60.312 361.582 60.512 362.014 60.912C362.454 61.312 362.674 61.82 362.674 62.436ZM366.925 63.744C367.797 63.744 368.493 63.964 369.013 64.404C369.541 64.844 369.805 65.464 369.805 66.264C369.805 67.152 369.521 67.852 368.953 68.364C368.393 68.868 367.609 69.12 366.601 69.12C366.153 69.12 365.737 69.08 365.353 69C364.969 68.92 364.645 68.804 364.381 68.652V67.656C364.669 67.832 365.017 67.972 365.425 68.076C365.841 68.172 366.237 68.22 366.613 68.22C367.245 68.22 367.753 68.072 368.137 67.776C368.529 67.472 368.725 67.004 368.725 66.372C368.725 65.812 368.553 65.384 368.209 65.088C367.865 64.784 367.321 64.632 366.577 64.632C366.353 64.632 366.097 64.652 365.809 64.692C365.521 64.732 365.289 64.772 365.113 64.812L364.585 64.476L364.909 60.432H369.205V61.392H365.809L365.605 63.876C365.741 63.852 365.925 63.824 366.157 63.792C366.389 63.76 366.645 63.744 366.925 63.744ZM4.6 85.12C4.024 85.12 3.516 85.004 3.076 84.772C2.636 84.54 2.288 84.18 2.032 83.692C1.784 83.204 1.66 82.58 1.66 81.82C1.66 81.028 1.788 80.384 2.044 79.888C2.308 79.392 2.668 79.028 3.124 78.796C3.58 78.564 4.096 78.448 4.672 78.448C4.992 78.448 5.304 78.484 5.608 78.556C5.92 78.62 6.172 78.7 6.364 78.796L6.04 79.672C5.848 79.6 5.624 79.532 5.368 79.468C5.112 79.404 4.872 79.372 4.648 79.372C3.384 79.372 2.752 80.184 2.752 81.808C2.752 82.584 2.904 83.18 3.208 83.596C3.52 84.004 3.98 84.208 4.588 84.208C4.932 84.208 5.24 84.172 5.512 84.1C5.784 84.028 6.032 83.94 6.256 83.836V84.772C6.04 84.884 5.8 84.968 5.536 85.024C5.28 85.088 4.968 85.12 4.6 85.12ZM8.84163 75.88V78.556C8.84163 78.876 8.82163 79.176 8.78163 79.456H8.85363C9.06163 79.128 9.34163 78.88 9.69363 78.712C10.0536 78.544 10.4416 78.46 10.8576 78.46C11.6336 78.46 12.2176 78.648 12.6096 79.024C13.0096 79.392 13.2096 79.988 13.2096 80.812V85H12.1656V80.884C12.1656 79.852 11.6856 79.336 10.7256 79.336C10.0056 79.336 9.50963 79.54 9.23763 79.948C8.97363 80.348 8.84163 80.924 8.84163 81.676V85H7.78563V75.88H8.84163ZM17.6396 78.46C18.4236 78.46 19.0036 78.632 19.3796 78.976C19.7556 79.32 19.9436 79.868 19.9436 80.62V85H19.1756L18.9716 84.088H18.9236C18.6436 84.44 18.3476 84.7 18.0356 84.868C17.7236 85.036 17.2996 85.12 16.7636 85.12C16.1796 85.12 15.6956 84.968 15.3116 84.664C14.9276 84.352 14.7356 83.868 14.7356 83.212C14.7356 82.572 14.9876 82.08 15.4916 81.736C15.9956 81.384 16.7716 81.192 17.8196 81.16L18.9116 81.124V80.74C18.9116 80.204 18.7956 79.832 18.5636 79.624C18.3316 79.416 18.0036 79.312 17.5796 79.312C17.2436 79.312 16.9236 79.364 16.6196 79.468C16.3156 79.564 16.0316 79.676 15.7676 79.804L15.4436 79.012C15.7236 78.86 16.0556 78.732 16.4396 78.628C16.8236 78.516 17.2236 78.46 17.6396 78.46ZM18.8996 81.856L17.9516 81.892C17.1516 81.924 16.5956 82.052 16.2836 82.276C15.9796 82.5 15.8276 82.816 15.8276 83.224C15.8276 83.584 15.9356 83.848 16.1516 84.016C16.3756 84.184 16.6596 84.268 17.0036 84.268C17.5396 84.268 17.9876 84.12 18.3476 83.824C18.7156 83.52 18.8996 83.056 18.8996 82.432V81.856ZM24.9302 78.448C25.0502 78.448 25.1782 78.456 25.3142 78.472C25.4502 78.48 25.5742 78.496 25.6862 78.52L25.5542 79.492C25.4502 79.468 25.3342 79.448 25.2062 79.432C25.0782 79.416 24.9622 79.408 24.8582 79.408C24.5302 79.408 24.2222 79.5 23.9342 79.684C23.6462 79.86 23.4142 80.112 23.2382 80.44C23.0702 80.76 22.9862 81.136 22.9862 81.568V85H21.9302V78.568H22.7942L22.9142 79.744H22.9622C23.1622 79.392 23.4262 79.088 23.7542 78.832C24.0902 78.576 24.4822 78.448 24.9302 78.448ZM29.0888 78.46C29.8728 78.46 30.4528 78.632 30.8288 78.976C31.2048 79.32 31.3928 79.868 31.3928 80.62V85H30.6248L30.4208 84.088H30.3728C30.0928 84.44 29.7968 84.7 29.4848 84.868C29.1728 85.036 28.7488 85.12 28.2128 85.12C27.6288 85.12 27.1448 84.968 26.7608 84.664C26.3768 84.352 26.1848 83.868 26.1848 83.212C26.1848 82.572 26.4368 82.08 26.9408 81.736C27.4448 81.384 28.2208 81.192 29.2688 81.16L30.3608 81.124V80.74C30.3608 80.204 30.2448 79.832 30.0128 79.624C29.7808 79.416 29.4528 79.312 29.0288 79.312C28.6928 79.312 28.3728 79.364 28.0688 79.468C27.7648 79.564 27.4808 79.676 27.2168 79.804L26.8928 79.012C27.1728 78.86 27.5048 78.732 27.8888 78.628C28.2728 78.516 28.6728 78.46 29.0888 78.46ZM30.3488 81.856L29.4008 81.892C28.6008 81.924 28.0448 82.052 27.7328 82.276C27.4288 82.5 27.2768 82.816 27.2768 83.224C27.2768 83.584 27.3848 83.848 27.6008 84.016C27.8248 84.184 28.1088 84.268 28.4528 84.268C28.9888 84.268 29.4368 84.12 29.7968 83.824C30.1648 83.52 30.3488 83.056 30.3488 82.432V81.856ZM35.9594 85.12C35.3834 85.12 34.8754 85.004 34.4354 84.772C33.9954 84.54 33.6474 84.18 33.3914 83.692C33.1434 83.204 33.0194 82.58 33.0194 81.82C33.0194 81.028 33.1474 80.384 33.4034 79.888C33.6674 79.392 34.0274 79.028 34.4834 78.796C34.9394 78.564 35.4554 78.448 36.0314 78.448C36.3514 78.448 36.6634 78.484 36.9674 78.556C37.2794 78.62 37.5314 78.7 37.7234 78.796L37.3994 79.672C37.2074 79.6 36.9834 79.532 36.7274 79.468C36.4714 79.404 36.2314 79.372 36.0074 79.372C34.7434 79.372 34.1114 80.184 34.1114 81.808C34.1114 82.584 34.2634 83.18 34.5674 83.596C34.8794 84.004 35.3394 84.208 35.9474 84.208C36.2914 84.208 36.5994 84.172 36.8714 84.1C37.1434 84.028 37.3914 83.94 37.6154 83.836V84.772C37.3994 84.884 37.1594 84.968 36.8954 85.024C36.6394 85.088 36.3274 85.12 35.9594 85.12ZM41.293 84.256C41.453 84.256 41.617 84.244 41.785 84.22C41.953 84.196 42.089 84.164 42.193 84.124V84.928C42.081 84.984 41.921 85.028 41.713 85.06C41.505 85.1 41.305 85.12 41.113 85.12C40.777 85.12 40.465 85.064 40.177 84.952C39.897 84.832 39.669 84.628 39.493 84.34C39.317 84.052 39.229 83.648 39.229 83.128V79.384H38.317V78.88L39.241 78.46L39.661 77.092H40.285V78.568H42.145V79.384H40.285V83.104C40.285 83.496 40.377 83.788 40.561 83.98C40.753 84.164 40.997 84.256 41.293 84.256ZM45.9649 78.448C46.5089 78.448 46.9809 78.568 47.3809 78.808C47.7809 79.048 48.0849 79.388 48.2929 79.828C48.5089 80.26 48.6169 80.768 48.6169 81.352V81.988H44.2129C44.2289 82.716 44.4129 83.272 44.7649 83.656C45.1249 84.032 45.6249 84.22 46.2649 84.22C46.6729 84.22 47.0329 84.184 47.3449 84.112C47.6649 84.032 47.9929 83.92 48.3289 83.776V84.7C48.0009 84.844 47.6769 84.948 47.3569 85.012C47.0369 85.084 46.6569 85.12 46.2169 85.12C45.6009 85.12 45.0609 84.996 44.5969 84.748C44.1329 84.5 43.7689 84.132 43.5049 83.644C43.2489 83.156 43.1209 82.552 43.1209 81.832C43.1209 81.128 43.2369 80.524 43.4689 80.02C43.7089 79.516 44.0409 79.128 44.4649 78.856C44.8969 78.584 45.3969 78.448 45.9649 78.448ZM45.9529 79.312C45.4489 79.312 45.0489 79.476 44.7529 79.804C44.4649 80.124 44.2929 80.572 44.2369 81.148H47.5129C47.5049 80.604 47.3769 80.164 47.1289 79.828C46.8809 79.484 46.4889 79.312 45.9529 79.312ZM53.2544 78.448C53.3744 78.448 53.5024 78.456 53.6384 78.472C53.7744 78.48 53.8984 78.496 54.0104 78.52L53.8784 79.492C53.7744 79.468 53.6584 79.448 53.5304 79.432C53.4024 79.416 53.2864 79.408 53.1824 79.408C52.8544 79.408 52.5464 79.5 52.2584 79.684C51.9704 79.86 51.7384 80.112 51.5624 80.44C51.3944 80.76 51.3104 81.136 51.3104 81.568V85H50.2544V78.568H51.1184L51.2384 79.744H51.2864C51.4864 79.392 51.7504 79.088 52.0784 78.832C52.4144 78.576 52.8064 78.448 53.2544 78.448ZM59.3994 83.224C59.3994 83.848 59.1674 84.32 58.7034 84.64C58.2394 84.96 57.6154 85.12 56.8314 85.12C56.3834 85.12 55.9954 85.084 55.6674 85.012C55.3474 84.94 55.0634 84.84 54.8154 84.712V83.752C55.0714 83.88 55.3794 84 55.7394 84.112C56.1074 84.216 56.4794 84.268 56.8554 84.268C57.3914 84.268 57.7794 84.184 58.0194 84.016C58.2594 83.84 58.3794 83.608 58.3794 83.32C58.3794 83.16 58.3354 83.016 58.2474 82.888C58.1594 82.76 57.9994 82.632 57.7674 82.504C57.5434 82.376 57.2194 82.232 56.7954 82.072C56.3794 81.912 56.0234 81.752 55.7274 81.592C55.4314 81.432 55.2034 81.24 55.0434 81.016C54.8834 80.792 54.8034 80.504 54.8034 80.152C54.8034 79.608 55.0234 79.188 55.4634 78.892C55.9114 78.596 56.4954 78.448 57.2154 78.448C57.6074 78.448 57.9714 78.488 58.3074 78.568C58.6514 78.648 58.9714 78.752 59.2674 78.88L58.9074 79.72C58.6354 79.608 58.3514 79.512 58.0554 79.432C57.7594 79.352 57.4554 79.312 57.1434 79.312C56.7114 79.312 56.3794 79.384 56.1474 79.528C55.9234 79.664 55.8114 79.852 55.8114 80.092C55.8114 80.276 55.8634 80.428 55.9674 80.548C56.0714 80.668 56.2434 80.788 56.4834 80.908C56.7314 81.028 57.0594 81.164 57.4674 81.316C57.8754 81.468 58.2234 81.624 58.5114 81.784C58.7994 81.944 59.0194 82.14 59.1714 82.372C59.3234 82.596 59.3994 82.88 59.3994 83.224ZM60.7976 84.352C60.7976 84.056 60.8696 83.848 61.0136 83.728C61.1576 83.608 61.3296 83.548 61.5296 83.548C61.7296 83.548 61.9056 83.608 62.0576 83.728C62.2096 83.848 62.2856 84.056 62.2856 84.352C62.2856 84.64 62.2096 84.848 62.0576 84.976C61.9056 85.104 61.7296 85.168 61.5296 85.168C61.3296 85.168 61.1576 85.104 61.0136 84.976C60.8696 84.848 60.7976 84.64 60.7976 84.352ZM72.8017 85L71.7697 82.348H68.3737L67.3537 85H66.2617L69.6097 76.396H70.5817L73.9177 85H72.8017ZM71.4457 81.388L70.4857 78.796C70.4617 78.732 70.4217 78.616 70.3657 78.448C70.3097 78.28 70.2537 78.108 70.1977 77.932C70.1497 77.748 70.1097 77.608 70.0777 77.512C70.0137 77.76 69.9457 78.004 69.8737 78.244C69.8097 78.476 69.7537 78.66 69.7057 78.796L68.7337 81.388H71.4457ZM76.0018 85H74.9458V75.88H76.0018V85ZM79.0955 85H78.0395V75.88H79.0955V85ZM86.7253 81.772C86.7253 82.836 86.4533 83.66 85.9093 84.244C85.3733 84.828 84.6453 85.12 83.7253 85.12C83.1573 85.12 82.6493 84.992 82.2013 84.736C81.7613 84.472 81.4133 84.092 81.1573 83.596C80.9013 83.092 80.7733 82.484 80.7733 81.772C80.7733 80.708 81.0373 79.888 81.5653 79.312C82.1013 78.736 82.8333 78.448 83.7613 78.448C84.3373 78.448 84.8493 78.58 85.2973 78.844C85.7453 79.1 86.0933 79.476 86.3413 79.972C86.5973 80.46 86.7253 81.06 86.7253 81.772ZM81.8653 81.772C81.8653 82.532 82.0133 83.136 82.3093 83.584C82.6133 84.024 83.0933 84.244 83.7493 84.244C84.3973 84.244 84.8733 84.024 85.1773 83.584C85.4813 83.136 85.6333 82.532 85.6333 81.772C85.6333 81.012 85.4813 80.416 85.1773 79.984C84.8733 79.552 84.3933 79.336 83.7373 79.336C83.0813 79.336 82.6053 79.552 82.3093 79.984C82.0133 80.416 81.8653 81.012 81.8653 81.772ZM93.4205 84.988L92.3165 81.364C92.2125 81.036 92.1205 80.716 92.0405 80.404C91.9605 80.092 91.9045 79.844 91.8725 79.66H91.8245C91.7925 79.844 91.7405 80.092 91.6685 80.404C91.5965 80.716 91.5045 81.04 91.3925 81.376L90.2405 84.988H89.0405L87.2765 78.556H88.3685L89.2565 81.988C89.3445 82.332 89.4285 82.68 89.5085 83.032C89.5885 83.384 89.6445 83.676 89.6765 83.908H89.7245C89.7485 83.772 89.7845 83.604 89.8325 83.404C89.8805 83.204 89.9325 82.996 89.9885 82.78C90.0445 82.556 90.1005 82.356 90.1565 82.18L91.2965 78.556H92.4485L93.5525 82.18C93.6325 82.46 93.7165 82.76 93.8045 83.08C93.8925 83.4 93.9525 83.672 93.9845 83.896H94.0325C94.0565 83.696 94.1085 83.42 94.1885 83.068C94.2765 82.716 94.3685 82.356 94.4645 81.988L95.3645 78.556H96.4445L94.6565 84.988H93.4205ZM100.082 78.448C100.626 78.448 101.098 78.568 101.498 78.808C101.898 79.048 102.202 79.388 102.41 79.828C102.626 80.26 102.734 80.768 102.734 81.352V81.988H98.3301C98.3461 82.716 98.5301 83.272 98.8821 83.656C99.2421 84.032 99.7421 84.22 100.382 84.22C100.79 84.22 101.15 84.184 101.462 84.112C101.782 84.032 102.11 83.92 102.446 83.776V84.7C102.118 84.844 101.794 84.948 101.474 85.012C101.154 85.084 100.774 85.12 100.334 85.12C99.7181 85.12 99.1781 84.996 98.7141 84.748C98.2501 84.5 97.8861 84.132 97.6221 83.644C97.3661 83.156 97.2381 82.552 97.2381 81.832C97.2381 81.128 97.3541 80.524 97.5861 80.02C97.8261 79.516 98.1581 79.128 98.5821 78.856C99.0141 78.584 99.5141 78.448 100.082 78.448ZM100.07 79.312C99.5661 79.312 99.1661 79.476 98.8701 79.804C98.5821 80.124 98.4101 80.572 98.3541 81.148H101.63C101.622 80.604 101.494 80.164 101.246 79.828C100.998 79.484 100.606 79.312 100.07 79.312ZM106.652 85.12C105.852 85.12 105.212 84.844 104.732 84.292C104.252 83.732 104.012 82.9 104.012 81.796C104.012 80.692 104.252 79.86 104.732 79.3C105.22 78.732 105.864 78.448 106.664 78.448C107.16 78.448 107.564 78.54 107.876 78.724C108.196 78.908 108.456 79.132 108.656 79.396H108.728C108.712 79.292 108.696 79.14 108.68 78.94C108.664 78.732 108.656 78.568 108.656 78.448V75.88H109.712V85H108.86L108.704 84.136H108.656C108.464 84.408 108.208 84.64 107.888 84.832C107.568 85.024 107.156 85.12 106.652 85.12ZM106.82 84.244C107.5 84.244 107.976 84.06 108.248 83.692C108.528 83.316 108.668 82.752 108.668 82V81.808C108.668 81.008 108.536 80.396 108.272 79.972C108.008 79.54 107.52 79.324 106.808 79.324C106.24 79.324 105.812 79.552 105.524 80.008C105.244 80.456 105.104 81.06 105.104 81.82C105.104 82.588 105.244 83.184 105.524 83.608C105.812 84.032 106.244 84.244 106.82 84.244ZM117.452 85.12C116.876 85.12 116.368 85.004 115.928 84.772C115.488 84.54 115.14 84.18 114.884 83.692C114.636 83.204 114.512 82.58 114.512 81.82C114.512 81.028 114.64 80.384 114.896 79.888C115.16 79.392 115.52 79.028 115.976 78.796C116.432 78.564 116.948 78.448 117.524 78.448C117.844 78.448 118.156 78.484 118.46 78.556C118.772 78.62 119.024 78.7 119.216 78.796L118.892 79.672C118.7 79.6 118.476 79.532 118.22 79.468C117.964 79.404 117.724 79.372 117.5 79.372C116.236 79.372 115.604 80.184 115.604 81.808C115.604 82.584 115.756 83.18 116.06 83.596C116.372 84.004 116.832 84.208 117.44 84.208C117.784 84.208 118.092 84.172 118.364 84.1C118.636 84.028 118.884 83.94 119.108 83.836V84.772C118.892 84.884 118.652 84.968 118.388 85.024C118.132 85.088 117.82 85.12 117.452 85.12ZM121.693 75.88V78.556C121.693 78.876 121.673 79.176 121.633 79.456H121.705C121.913 79.128 122.193 78.88 122.545 78.712C122.905 78.544 123.293 78.46 123.709 78.46C124.485 78.46 125.069 78.648 125.461 79.024C125.861 79.392 126.061 79.988 126.061 80.812V85H125.017V80.884C125.017 79.852 124.537 79.336 123.577 79.336C122.857 79.336 122.361 79.54 122.089 79.948C121.825 80.348 121.693 80.924 121.693 81.676V85H120.637V75.88H121.693ZM130.491 78.46C131.275 78.46 131.855 78.632 132.231 78.976C132.607 79.32 132.795 79.868 132.795 80.62V85H132.027L131.823 84.088H131.775C131.495 84.44 131.199 84.7 130.887 84.868C130.575 85.036 130.151 85.12 129.615 85.12C129.031 85.12 128.547 84.968 128.163 84.664C127.779 84.352 127.587 83.868 127.587 83.212C127.587 82.572 127.839 82.08 128.343 81.736C128.847 81.384 129.623 81.192 130.671 81.16L131.763 81.124V80.74C131.763 80.204 131.647 79.832 131.415 79.624C131.183 79.416 130.855 79.312 130.431 79.312C130.095 79.312 129.775 79.364 129.471 79.468C129.167 79.564 128.883 79.676 128.619 79.804L128.295 79.012C128.575 78.86 128.907 78.732 129.291 78.628C129.675 78.516 130.075 78.46 130.491 78.46ZM131.751 81.856L130.803 81.892C130.003 81.924 129.447 82.052 129.135 82.276C128.831 82.5 128.679 82.816 128.679 83.224C128.679 83.584 128.787 83.848 129.003 84.016C129.227 84.184 129.511 84.268 129.855 84.268C130.391 84.268 130.839 84.12 131.199 83.824C131.567 83.52 131.751 83.056 131.751 82.432V81.856ZM137.782 78.448C137.902 78.448 138.03 78.456 138.166 78.472C138.302 78.48 138.426 78.496 138.538 78.52L138.406 79.492C138.302 79.468 138.186 79.448 138.058 79.432C137.93 79.416 137.814 79.408 137.71 79.408C137.382 79.408 137.074 79.5 136.786 79.684C136.498 79.86 136.266 80.112 136.09 80.44C135.922 80.76 135.838 81.136 135.838 81.568V85H134.782V78.568H135.646L135.766 79.744H135.814C136.014 79.392 136.278 79.088 136.606 78.832C136.942 78.576 137.334 78.448 137.782 78.448ZM141.94 78.46C142.724 78.46 143.304 78.632 143.68 78.976C144.056 79.32 144.244 79.868 144.244 80.62V85H143.476L143.272 84.088H143.224C142.944 84.44 142.648 84.7 142.336 84.868C142.024 85.036 141.6 85.12 141.064 85.12C140.48 85.12 139.996 84.968 139.612 84.664C139.228 84.352 139.036 83.868 139.036 83.212C139.036 82.572 139.288 82.08 139.792 81.736C140.296 81.384 141.072 81.192 142.12 81.16L143.212 81.124V80.74C143.212 80.204 143.096 79.832 142.864 79.624C142.632 79.416 142.304 79.312 141.88 79.312C141.544 79.312 141.224 79.364 140.92 79.468C140.616 79.564 140.332 79.676 140.068 79.804L139.744 79.012C140.024 78.86 140.356 78.732 140.74 78.628C141.124 78.516 141.524 78.46 141.94 78.46ZM143.2 81.856L142.252 81.892C141.452 81.924 140.896 82.052 140.584 82.276C140.28 82.5 140.128 82.816 140.128 83.224C140.128 83.584 140.236 83.848 140.452 84.016C140.676 84.184 140.96 84.268 141.304 84.268C141.84 84.268 142.288 84.12 142.648 83.824C143.016 83.52 143.2 83.056 143.2 82.432V81.856ZM148.811 85.12C148.235 85.12 147.727 85.004 147.287 84.772C146.847 84.54 146.499 84.18 146.243 83.692C145.995 83.204 145.871 82.58 145.871 81.82C145.871 81.028 145.999 80.384 146.255 79.888C146.519 79.392 146.879 79.028 147.335 78.796C147.791 78.564 148.307 78.448 148.883 78.448C149.203 78.448 149.515 78.484 149.819 78.556C150.131 78.62 150.383 78.7 150.575 78.796L150.251 79.672C150.059 79.6 149.835 79.532 149.579 79.468C149.323 79.404 149.083 79.372 148.859 79.372C147.595 79.372 146.963 80.184 146.963 81.808C146.963 82.584 147.115 83.18 147.419 83.596C147.731 84.004 148.191 84.208 148.799 84.208C149.143 84.208 149.451 84.172 149.723 84.1C149.995 84.028 150.243 83.94 150.467 83.836V84.772C150.251 84.884 150.011 84.968 149.747 85.024C149.491 85.088 149.179 85.12 148.811 85.12ZM154.145 84.256C154.305 84.256 154.469 84.244 154.637 84.22C154.805 84.196 154.941 84.164 155.045 84.124V84.928C154.933 84.984 154.773 85.028 154.565 85.06C154.357 85.1 154.157 85.12 153.965 85.12C153.629 85.12 153.317 85.064 153.029 84.952C152.749 84.832 152.521 84.628 152.345 84.34C152.169 84.052 152.081 83.648 152.081 83.128V79.384H151.169V78.88L152.093 78.46L152.513 77.092H153.137V78.568H154.997V79.384H153.137V83.104C153.137 83.496 153.229 83.788 153.413 83.98C153.605 84.164 153.849 84.256 154.145 84.256ZM158.817 78.448C159.361 78.448 159.833 78.568 160.233 78.808C160.633 79.048 160.937 79.388 161.145 79.828C161.361 80.26 161.469 80.768 161.469 81.352V81.988H157.065C157.081 82.716 157.265 83.272 157.617 83.656C157.977 84.032 158.477 84.22 159.117 84.22C159.525 84.22 159.885 84.184 160.197 84.112C160.517 84.032 160.845 83.92 161.181 83.776V84.7C160.853 84.844 160.529 84.948 160.209 85.012C159.889 85.084 159.509 85.12 159.069 85.12C158.453 85.12 157.913 84.996 157.449 84.748C156.985 84.5 156.621 84.132 156.357 83.644C156.101 83.156 155.973 82.552 155.973 81.832C155.973 81.128 156.089 80.524 156.321 80.02C156.561 79.516 156.893 79.128 157.317 78.856C157.749 78.584 158.249 78.448 158.817 78.448ZM158.805 79.312C158.301 79.312 157.901 79.476 157.605 79.804C157.317 80.124 157.145 80.572 157.089 81.148H160.365C160.357 80.604 160.229 80.164 159.981 79.828C159.733 79.484 159.341 79.312 158.805 79.312ZM166.106 78.448C166.226 78.448 166.354 78.456 166.49 78.472C166.626 78.48 166.75 78.496 166.862 78.52L166.73 79.492C166.626 79.468 166.51 79.448 166.382 79.432C166.254 79.416 166.138 79.408 166.034 79.408C165.706 79.408 165.398 79.5 165.11 79.684C164.822 79.86 164.59 80.112 164.414 80.44C164.246 80.76 164.162 81.136 164.162 81.568V85H163.106V78.568H163.97L164.09 79.744H164.138C164.338 79.392 164.602 79.088 164.93 78.832C165.266 78.576 165.658 78.448 166.106 78.448ZM172.251 83.224C172.251 83.848 172.019 84.32 171.555 84.64C171.091 84.96 170.467 85.12 169.683 85.12C169.235 85.12 168.847 85.084 168.519 85.012C168.199 84.94 167.915 84.84 167.667 84.712V83.752C167.923 83.88 168.231 84 168.591 84.112C168.959 84.216 169.331 84.268 169.707 84.268C170.243 84.268 170.631 84.184 170.871 84.016C171.111 83.84 171.231 83.608 171.231 83.32C171.231 83.16 171.187 83.016 171.099 82.888C171.011 82.76 170.851 82.632 170.619 82.504C170.395 82.376 170.071 82.232 169.647 82.072C169.231 81.912 168.875 81.752 168.579 81.592C168.283 81.432 168.055 81.24 167.895 81.016C167.735 80.792 167.655 80.504 167.655 80.152C167.655 79.608 167.875 79.188 168.315 78.892C168.763 78.596 169.347 78.448 170.067 78.448C170.459 78.448 170.823 78.488 171.159 78.568C171.503 78.648 171.823 78.752 172.119 78.88L171.759 79.72C171.487 79.608 171.203 79.512 170.907 79.432C170.611 79.352 170.307 79.312 169.995 79.312C169.563 79.312 169.231 79.384 168.999 79.528C168.775 79.664 168.663 79.852 168.663 80.092C168.663 80.276 168.715 80.428 168.819 80.548C168.923 80.668 169.095 80.788 169.335 80.908C169.583 81.028 169.911 81.164 170.319 81.316C170.727 81.468 171.075 81.624 171.363 81.784C171.651 81.944 171.871 82.14 172.023 82.372C172.175 82.596 172.251 82.88 172.251 83.224ZM179.358 78.46C180.142 78.46 180.722 78.632 181.098 78.976C181.474 79.32 181.662 79.868 181.662 80.62V85H180.894L180.69 84.088H180.642C180.362 84.44 180.066 84.7 179.754 84.868C179.442 85.036 179.018 85.12 178.482 85.12C177.898 85.12 177.414 84.968 177.03 84.664C176.646 84.352 176.454 83.868 176.454 83.212C176.454 82.572 176.706 82.08 177.21 81.736C177.714 81.384 178.49 81.192 179.538 81.16L180.63 81.124V80.74C180.63 80.204 180.514 79.832 180.282 79.624C180.05 79.416 179.722 79.312 179.298 79.312C178.962 79.312 178.642 79.364 178.338 79.468C178.034 79.564 177.75 79.676 177.486 79.804L177.162 79.012C177.442 78.86 177.774 78.732 178.158 78.628C178.542 78.516 178.942 78.46 179.358 78.46ZM180.618 81.856L179.67 81.892C178.87 81.924 178.314 82.052 178.002 82.276C177.698 82.5 177.546 82.816 177.546 83.224C177.546 83.584 177.654 83.848 177.87 84.016C178.094 84.184 178.378 84.268 178.722 84.268C179.258 84.268 179.706 84.12 180.066 83.824C180.434 83.52 180.618 83.056 180.618 82.432V81.856ZM186.649 78.448C186.769 78.448 186.897 78.456 187.033 78.472C187.169 78.48 187.293 78.496 187.405 78.52L187.273 79.492C187.169 79.468 187.053 79.448 186.925 79.432C186.797 79.416 186.681 79.408 186.577 79.408C186.249 79.408 185.941 79.5 185.653 79.684C185.365 79.86 185.133 80.112 184.957 80.44C184.789 80.76 184.705 81.136 184.705 81.568V85H183.649V78.568H184.513L184.633 79.744H184.681C184.881 79.392 185.145 79.088 185.473 78.832C185.809 78.576 186.201 78.448 186.649 78.448ZM190.856 78.448C191.4 78.448 191.872 78.568 192.272 78.808C192.672 79.048 192.976 79.388 193.184 79.828C193.4 80.26 193.508 80.768 193.508 81.352V81.988H189.104C189.12 82.716 189.304 83.272 189.656 83.656C190.016 84.032 190.516 84.22 191.156 84.22C191.564 84.22 191.924 84.184 192.236 84.112C192.556 84.032 192.884 83.92 193.22 83.776V84.7C192.892 84.844 192.568 84.948 192.248 85.012C191.928 85.084 191.548 85.12 191.108 85.12C190.492 85.12 189.952 84.996 189.488 84.748C189.024 84.5 188.66 84.132 188.396 83.644C188.14 83.156 188.012 82.552 188.012 81.832C188.012 81.128 188.128 80.524 188.36 80.02C188.6 79.516 188.932 79.128 189.356 78.856C189.788 78.584 190.288 78.448 190.856 78.448ZM190.844 79.312C190.34 79.312 189.94 79.476 189.644 79.804C189.356 80.124 189.184 80.572 189.128 81.148H192.404C192.396 80.604 192.268 80.164 192.02 79.828C191.772 79.484 191.38 79.312 190.844 79.312ZM200.698 78.46C201.482 78.46 202.062 78.632 202.438 78.976C202.814 79.32 203.002 79.868 203.002 80.62V85H202.234L202.03 84.088H201.982C201.702 84.44 201.406 84.7 201.094 84.868C200.782 85.036 200.358 85.12 199.822 85.12C199.238 85.12 198.754 84.968 198.37 84.664C197.986 84.352 197.794 83.868 197.794 83.212C197.794 82.572 198.046 82.08 198.55 81.736C199.054 81.384 199.83 81.192 200.878 81.16L201.97 81.124V80.74C201.97 80.204 201.854 79.832 201.622 79.624C201.39 79.416 201.062 79.312 200.638 79.312C200.302 79.312 199.982 79.364 199.678 79.468C199.374 79.564 199.09 79.676 198.826 79.804L198.502 79.012C198.782 78.86 199.114 78.732 199.498 78.628C199.882 78.516 200.282 78.46 200.698 78.46ZM201.958 81.856L201.01 81.892C200.21 81.924 199.654 82.052 199.342 82.276C199.038 82.5 198.886 82.816 198.886 83.224C198.886 83.584 198.994 83.848 199.21 84.016C199.434 84.184 199.718 84.268 200.062 84.268C200.598 84.268 201.046 84.12 201.406 83.824C201.774 83.52 201.958 83.056 201.958 82.432V81.856ZM204.449 82.252V81.316H207.353V82.252H204.449ZM213.008 85H208.304V84.304L211.76 79.384H208.508V78.568H212.924V79.36L209.516 84.184H213.008V85ZM215.693 83.608L215.777 83.74C215.665 84.164 215.513 84.628 215.321 85.132C215.129 85.644 214.937 86.116 214.745 86.548H213.965C214.077 86.092 214.189 85.592 214.301 85.048C214.421 84.504 214.509 84.024 214.565 83.608H215.693ZM226.341 85L225.309 82.348H221.913L220.893 85H219.801L223.149 76.396H224.121L227.457 85H226.341ZM224.985 81.388L224.025 78.796C224.001 78.732 223.961 78.616 223.905 78.448C223.849 78.28 223.793 78.108 223.737 77.932C223.689 77.748 223.649 77.608 223.617 77.512C223.553 77.76 223.485 78.004 223.413 78.244C223.349 78.476 223.293 78.66 223.245 78.796L222.273 81.388H224.985ZM227.945 82.252V81.316H230.849V82.252H227.945ZM237.728 85H231.788V84.184L236.3 77.392H231.932V76.432H237.608V77.248L233.096 84.04H237.728V85ZM240.419 83.608L240.503 83.74C240.391 84.164 240.239 84.628 240.047 85.132C239.855 85.644 239.663 86.116 239.471 86.548H238.691C238.803 86.092 238.915 85.592 239.027 85.048C239.147 84.504 239.235 84.024 239.291 83.608H240.419ZM250.803 80.704C250.803 81.632 250.707 82.424 250.515 83.08C250.323 83.736 250.015 84.24 249.591 84.592C249.175 84.944 248.627 85.12 247.947 85.12C246.979 85.12 246.263 84.732 245.799 83.956C245.343 83.172 245.115 82.088 245.115 80.704C245.115 79.776 245.207 78.984 245.391 78.328C245.583 77.672 245.887 77.172 246.303 76.828C246.719 76.476 247.267 76.3 247.947 76.3C248.907 76.3 249.623 76.688 250.095 77.464C250.567 78.232 250.803 79.312 250.803 80.704ZM246.171 80.704C246.171 81.88 246.303 82.76 246.567 83.344C246.839 83.928 247.299 84.22 247.947 84.22C248.587 84.22 249.043 83.932 249.315 83.356C249.595 82.772 249.735 81.888 249.735 80.704C249.735 79.536 249.595 78.66 249.315 78.076C249.043 77.492 248.587 77.2 247.947 77.2C247.299 77.2 246.839 77.492 246.567 78.076C246.303 78.66 246.171 79.536 246.171 80.704ZM251.875 82.252V81.316H254.779V82.252H251.875ZM261.502 80.092C261.502 80.708 261.446 81.316 261.334 81.916C261.23 82.508 261.034 83.048 260.746 83.536C260.466 84.016 260.066 84.4 259.546 84.688C259.034 84.976 258.374 85.12 257.566 85.12C257.406 85.12 257.218 85.108 257.002 85.084C256.786 85.068 256.614 85.04 256.486 85V84.1C256.798 84.204 257.15 84.256 257.542 84.256C258.102 84.256 258.562 84.164 258.922 83.98C259.29 83.796 259.582 83.548 259.798 83.236C260.014 82.916 260.17 82.548 260.266 82.132C260.362 81.708 260.418 81.264 260.434 80.8H260.362C260.178 81.072 259.922 81.308 259.594 81.508C259.266 81.7 258.842 81.796 258.322 81.796C257.586 81.796 256.99 81.572 256.534 81.124C256.086 80.668 255.862 80.028 255.862 79.204C255.862 78.604 255.974 78.088 256.198 77.656C256.422 77.224 256.738 76.892 257.146 76.66C257.562 76.428 258.046 76.312 258.598 76.312C259.142 76.312 259.634 76.452 260.074 76.732C260.514 77.004 260.862 77.42 261.118 77.98C261.374 78.532 261.502 79.236 261.502 80.092ZM258.598 77.2C258.102 77.2 257.694 77.364 257.374 77.692C257.062 78.02 256.906 78.52 256.906 79.192C256.906 79.744 257.038 80.18 257.302 80.5C257.574 80.812 257.99 80.968 258.55 80.968C258.934 80.968 259.266 80.892 259.546 80.74C259.826 80.58 260.042 80.38 260.194 80.14C260.354 79.9 260.434 79.652 260.434 79.396C260.434 79.052 260.366 78.712 260.23 78.376C260.094 78.04 259.89 77.76 259.618 77.536C259.346 77.312 259.006 77.2 258.598 77.2ZM264.349 83.608L264.433 83.74C264.321 84.164 264.169 84.628 263.977 85.132C263.785 85.644 263.593 86.116 263.401 86.548H262.621C262.733 86.092 262.845 85.592 262.957 85.048C263.077 84.504 263.165 84.024 263.221 83.608H264.349ZM269.321 84.352C269.321 84.056 269.393 83.848 269.537 83.728C269.681 83.608 269.853 83.548 270.053 83.548C270.253 83.548 270.429 83.608 270.581 83.728C270.733 83.848 270.809 84.056 270.809 84.352C270.809 84.64 270.733 84.848 270.581 84.976C270.429 85.104 270.253 85.168 270.053 85.168C269.853 85.168 269.681 85.104 269.537 84.976C269.393 84.848 269.321 84.64 269.321 84.352ZM272.148 81.712C272.148 80.736 272.288 79.796 272.568 78.892C272.856 77.98 273.304 77.16 273.912 76.432H274.908C274.348 77.184 273.924 78.012 273.636 78.916C273.356 79.82 273.216 80.748 273.216 81.7C273.216 82.628 273.356 83.54 273.636 84.436C273.924 85.324 274.344 86.144 274.896 86.896H273.912C273.304 86.192 272.856 85.396 272.568 84.508C272.288 83.612 272.148 82.68 272.148 81.712ZM278.566 85.12C277.766 85.12 277.126 84.844 276.646 84.292C276.166 83.732 275.926 82.9 275.926 81.796C275.926 80.692 276.166 79.86 276.646 79.3C277.134 78.732 277.778 78.448 278.578 78.448C279.074 78.448 279.478 78.54 279.79 78.724C280.11 78.908 280.37 79.132 280.57 79.396H280.642C280.626 79.292 280.61 79.14 280.594 78.94C280.578 78.732 280.57 78.568 280.57 78.448V75.88H281.626V85H280.774L280.618 84.136H280.57C280.378 84.408 280.122 84.64 279.802 84.832C279.482 85.024 279.07 85.12 278.566 85.12ZM278.734 84.244C279.414 84.244 279.89 84.06 280.162 83.692C280.442 83.316 280.582 82.752 280.582 82V81.808C280.582 81.008 280.45 80.396 280.186 79.972C279.922 79.54 279.434 79.324 278.722 79.324C278.154 79.324 277.726 79.552 277.438 80.008C277.158 80.456 277.018 81.06 277.018 81.82C277.018 82.588 277.158 83.184 277.438 83.608C277.726 84.032 278.158 84.244 278.734 84.244ZM289.26 81.772C289.26 82.836 288.988 83.66 288.444 84.244C287.908 84.828 287.18 85.12 286.26 85.12C285.692 85.12 285.184 84.992 284.736 84.736C284.296 84.472 283.948 84.092 283.692 83.596C283.436 83.092 283.308 82.484 283.308 81.772C283.308 80.708 283.572 79.888 284.1 79.312C284.636 78.736 285.368 78.448 286.296 78.448C286.872 78.448 287.384 78.58 287.832 78.844C288.28 79.1 288.628 79.476 288.876 79.972C289.132 80.46 289.26 81.06 289.26 81.772ZM284.4 81.772C284.4 82.532 284.548 83.136 284.844 83.584C285.148 84.024 285.628 84.244 286.284 84.244C286.932 84.244 287.408 84.024 287.712 83.584C288.016 83.136 288.168 82.532 288.168 81.772C288.168 81.012 288.016 80.416 287.712 79.984C287.408 79.552 286.928 79.336 286.272 79.336C285.616 79.336 285.14 79.552 284.844 79.984C284.548 80.416 284.4 81.012 284.4 81.772ZM293.082 84.256C293.242 84.256 293.406 84.244 293.574 84.22C293.742 84.196 293.878 84.164 293.982 84.124V84.928C293.87 84.984 293.71 85.028 293.502 85.06C293.294 85.1 293.094 85.12 292.902 85.12C292.566 85.12 292.254 85.064 291.966 84.952C291.686 84.832 291.458 84.628 291.282 84.34C291.106 84.052 291.018 83.648 291.018 83.128V79.384H290.106V78.88L291.03 78.46L291.45 77.092H292.074V78.568H293.934V79.384H292.074V83.104C292.074 83.496 292.166 83.788 292.35 83.98C292.542 84.164 292.786 84.256 293.082 84.256ZM297.37 81.712C297.37 82.68 297.226 83.612 296.938 84.508C296.658 85.396 296.214 86.192 295.606 86.896H294.622C295.174 86.144 295.59 85.324 295.87 84.436C296.158 83.54 296.302 82.628 296.302 81.7C296.302 80.748 296.158 79.82 295.87 78.916C295.59 78.012 295.17 77.184 294.61 76.432H295.606C296.214 77.16 296.658 77.98 296.938 78.892C297.226 79.796 297.37 80.736 297.37 81.712ZM300.068 83.608L300.152 83.74C300.04 84.164 299.888 84.628 299.696 85.132C299.504 85.644 299.312 86.116 299.12 86.548H298.34C298.452 86.092 298.564 85.592 298.676 85.048C298.796 84.504 298.884 84.024 298.94 83.608H300.068ZM6.352 102.848H0.976V102.08H6.352V102.848ZM6.81203 97.712C6.81203 96.736 6.95203 95.796 7.23203 94.892C7.52003 93.98 7.96803 93.16 8.57603 92.432H9.57203C9.01203 93.184 8.58803 94.012 8.30003 94.916C8.02003 95.82 7.88003 96.748 7.88003 97.7C7.88003 98.628 8.02003 99.54 8.30003 100.436C8.58803 101.324 9.00803 102.144 9.56003 102.896H8.57603C7.96803 102.192 7.52003 101.396 7.23203 100.508C6.95203 99.612 6.81203 98.68 6.81203 97.712ZM16.3257 94.568V101H15.4617L15.3057 100.148H15.2577C15.0497 100.484 14.7617 100.732 14.3937 100.892C14.0257 101.044 13.6337 101.12 13.2177 101.12C12.4417 101.12 11.8577 100.936 11.4657 100.568C11.0737 100.192 10.8777 99.596 10.8777 98.78V94.568H11.9457V98.708C11.9457 99.732 12.4217 100.244 13.3737 100.244C14.0857 100.244 14.5777 100.044 14.8497 99.644C15.1297 99.244 15.2697 98.668 15.2697 97.916V94.568H16.3257ZM21.4637 94.448C22.2317 94.448 22.8117 94.636 23.2037 95.012C23.5957 95.388 23.7917 95.988 23.7917 96.812V101H22.7477V96.884C22.7477 95.852 22.2677 95.336 21.3077 95.336C20.5957 95.336 20.1037 95.536 19.8317 95.936C19.5597 96.336 19.4237 96.912 19.4237 97.664V101H18.3677V94.568H19.2197L19.3757 95.444H19.4357C19.6437 95.108 19.9317 94.86 20.2997 94.7C20.6677 94.532 21.0557 94.448 21.4637 94.448ZM28.0656 101.12C27.2656 101.12 26.6256 100.844 26.1456 100.292C25.6656 99.732 25.4256 98.9 25.4256 97.796C25.4256 96.692 25.6656 95.86 26.1456 95.3C26.6336 94.732 27.2776 94.448 28.0776 94.448C28.5736 94.448 28.9776 94.54 29.2896 94.724C29.6096 94.908 29.8696 95.132 30.0696 95.396H30.1416C30.1256 95.292 30.1096 95.14 30.0936 94.94C30.0776 94.732 30.0696 94.568 30.0696 94.448V91.88H31.1256V101H30.2736L30.1176 100.136H30.0696C29.8776 100.408 29.6216 100.64 29.3016 100.832C28.9816 101.024 28.5696 101.12 28.0656 101.12ZM28.2336 100.244C28.9136 100.244 29.3896 100.06 29.6616 99.692C29.9416 99.316 30.0816 98.752 30.0816 98V97.808C30.0816 97.008 29.9496 96.396 29.6856 95.972C29.4216 95.54 28.9336 95.324 28.2216 95.324C27.6536 95.324 27.2256 95.552 26.9376 96.008C26.6576 96.456 26.5176 97.06 26.5176 97.82C26.5176 98.588 26.6576 99.184 26.9376 99.608C27.2256 100.032 27.6576 100.244 28.2336 100.244ZM35.6524 94.448C36.1964 94.448 36.6684 94.568 37.0684 94.808C37.4684 95.048 37.7724 95.388 37.9804 95.828C38.1964 96.26 38.3044 96.768 38.3044 97.352V97.988H33.9004C33.9164 98.716 34.1004 99.272 34.4524 99.656C34.8124 100.032 35.3124 100.22 35.9524 100.22C36.3604 100.22 36.7204 100.184 37.0324 100.112C37.3524 100.032 37.6804 99.92 38.0164 99.776V100.7C37.6884 100.844 37.3644 100.948 37.0444 101.012C36.7244 101.084 36.3444 101.12 35.9044 101.12C35.2884 101.12 34.7484 100.996 34.2844 100.748C33.8204 100.5 33.4564 100.132 33.1924 99.644C32.9364 99.156 32.8084 98.552 32.8084 97.832C32.8084 97.128 32.9244 96.524 33.1564 96.02C33.3964 95.516 33.7284 95.128 34.1524 94.856C34.5844 94.584 35.0844 94.448 35.6524 94.448ZM35.6404 95.312C35.1364 95.312 34.7364 95.476 34.4404 95.804C34.1524 96.124 33.9804 96.572 33.9244 97.148H37.2004C37.1924 96.604 37.0644 96.164 36.8164 95.828C36.5684 95.484 36.1764 95.312 35.6404 95.312ZM42.9419 94.448C43.0619 94.448 43.1899 94.456 43.3259 94.472C43.4619 94.48 43.5859 94.496 43.6979 94.52L43.5659 95.492C43.4619 95.468 43.3459 95.448 43.2179 95.432C43.0899 95.416 42.9739 95.408 42.8699 95.408C42.5419 95.408 42.2339 95.5 41.9459 95.684C41.6579 95.86 41.4259 96.112 41.2499 96.44C41.0819 96.76 40.9979 97.136 40.9979 97.568V101H39.9419V94.568H40.8059L40.9259 95.744H40.9739C41.1739 95.392 41.4379 95.088 41.7659 94.832C42.1019 94.576 42.4939 94.448 42.9419 94.448ZM49.0869 99.224C49.0869 99.848 48.8549 100.32 48.3909 100.64C47.9269 100.96 47.3029 101.12 46.5189 101.12C46.0709 101.12 45.6829 101.084 45.3549 101.012C45.0349 100.94 44.7509 100.84 44.5029 100.712V99.752C44.7589 99.88 45.0669 100 45.4269 100.112C45.7949 100.216 46.1669 100.268 46.5429 100.268C47.0789 100.268 47.4669 100.184 47.7069 100.016C47.9469 99.84 48.0669 99.608 48.0669 99.32C48.0669 99.16 48.0229 99.016 47.9349 98.888C47.8469 98.76 47.6869 98.632 47.4549 98.504C47.2309 98.376 46.9069 98.232 46.4829 98.072C46.0669 97.912 45.7109 97.752 45.4149 97.592C45.1189 97.432 44.8909 97.24 44.7309 97.016C44.5709 96.792 44.4909 96.504 44.4909 96.152C44.4909 95.608 44.7109 95.188 45.1509 94.892C45.5989 94.596 46.1829 94.448 46.9029 94.448C47.2949 94.448 47.6589 94.488 47.9949 94.568C48.3389 94.648 48.6589 94.752 48.9549 94.88L48.5949 95.72C48.3229 95.608 48.0389 95.512 47.7429 95.432C47.4469 95.352 47.1429 95.312 46.8309 95.312C46.3989 95.312 46.0669 95.384 45.8349 95.528C45.6109 95.664 45.4989 95.852 45.4989 96.092C45.4989 96.276 45.5509 96.428 45.6549 96.548C45.7589 96.668 45.9309 96.788 46.1709 96.908C46.4189 97.028 46.7469 97.164 47.1549 97.316C47.5629 97.468 47.9109 97.624 48.1989 97.784C48.4869 97.944 48.7069 98.14 48.8589 98.372C49.0109 98.596 49.0869 98.88 49.0869 99.224ZM53.2211 101.12C52.6451 101.12 52.1371 101.004 51.6971 100.772C51.2571 100.54 50.9091 100.18 50.6531 99.692C50.4051 99.204 50.2811 98.58 50.2811 97.82C50.2811 97.028 50.4091 96.384 50.6651 95.888C50.9291 95.392 51.2891 95.028 51.7451 94.796C52.2011 94.564 52.7171 94.448 53.2931 94.448C53.6131 94.448 53.9251 94.484 54.2291 94.556C54.5411 94.62 54.7931 94.7 54.9851 94.796L54.6611 95.672C54.4691 95.6 54.2451 95.532 53.9891 95.468C53.7331 95.404 53.4931 95.372 53.2691 95.372C52.0051 95.372 51.3731 96.184 51.3731 97.808C51.3731 98.584 51.5251 99.18 51.8291 99.596C52.1411 100.004 52.6011 100.208 53.2091 100.208C53.5531 100.208 53.8611 100.172 54.1331 100.1C54.4051 100.028 54.6531 99.94 54.8771 99.836V100.772C54.6611 100.884 54.4211 100.968 54.1571 101.024C53.9011 101.088 53.5891 101.12 53.2211 101.12ZM61.9987 97.772C61.9987 98.836 61.7267 99.66 61.1827 100.244C60.6467 100.828 59.9187 101.12 58.9987 101.12C58.4307 101.12 57.9227 100.992 57.4747 100.736C57.0347 100.472 56.6867 100.092 56.4307 99.596C56.1747 99.092 56.0467 98.484 56.0467 97.772C56.0467 96.708 56.3107 95.888 56.8387 95.312C57.3747 94.736 58.1067 94.448 59.0347 94.448C59.6107 94.448 60.1227 94.58 60.5707 94.844C61.0187 95.1 61.3667 95.476 61.6147 95.972C61.8707 96.46 61.9987 97.06 61.9987 97.772ZM57.1387 97.772C57.1387 98.532 57.2867 99.136 57.5827 99.584C57.8867 100.024 58.3667 100.244 59.0227 100.244C59.6707 100.244 60.1467 100.024 60.4507 99.584C60.7547 99.136 60.9067 98.532 60.9067 97.772C60.9067 97.012 60.7547 96.416 60.4507 95.984C60.1467 95.552 59.6667 95.336 59.0107 95.336C58.3547 95.336 57.8787 95.552 57.5827 95.984C57.2867 96.416 57.1387 97.012 57.1387 97.772ZM66.6723 94.448C66.7923 94.448 66.9203 94.456 67.0563 94.472C67.1923 94.48 67.3163 94.496 67.4283 94.52L67.2963 95.492C67.1923 95.468 67.0763 95.448 66.9483 95.432C66.8203 95.416 66.7043 95.408 66.6003 95.408C66.2723 95.408 65.9643 95.5 65.6763 95.684C65.3883 95.86 65.1563 96.112 64.9803 96.44C64.8123 96.76 64.7283 97.136 64.7283 97.568V101H63.6723V94.568H64.5363L64.6563 95.744H64.7043C64.9043 95.392 65.1683 95.088 65.4963 94.832C65.8323 94.576 66.2243 94.448 66.6723 94.448ZM70.879 94.448C71.423 94.448 71.895 94.568 72.295 94.808C72.695 95.048 72.999 95.388 73.207 95.828C73.423 96.26 73.531 96.768 73.531 97.352V97.988H69.127C69.143 98.716 69.327 99.272 69.679 99.656C70.039 100.032 70.539 100.22 71.179 100.22C71.587 100.22 71.947 100.184 72.259 100.112C72.579 100.032 72.907 99.92 73.243 99.776V100.7C72.915 100.844 72.591 100.948 72.271 101.012C71.951 101.084 71.571 101.12 71.131 101.12C70.515 101.12 69.975 100.996 69.511 100.748C69.047 100.5 68.683 100.132 68.419 99.644C68.163 99.156 68.035 98.552 68.035 97.832C68.035 97.128 68.151 96.524 68.383 96.02C68.623 95.516 68.955 95.128 69.379 94.856C69.811 94.584 70.311 94.448 70.879 94.448ZM70.867 95.312C70.363 95.312 69.963 95.476 69.667 95.804C69.379 96.124 69.207 96.572 69.151 97.148H72.427C72.419 96.604 72.291 96.164 72.043 95.828C71.795 95.484 71.403 95.312 70.867 95.312ZM77.2684 97.712C77.2684 98.68 77.1244 99.612 76.8364 100.508C76.5564 101.396 76.1124 102.192 75.5044 102.896H74.5204C75.0724 102.144 75.4884 101.324 75.7684 100.436C76.0564 99.54 76.2004 98.628 76.2004 97.7C76.2004 96.748 76.0564 95.82 75.7684 94.916C75.4884 94.012 75.0684 93.184 74.5084 92.432H75.5044C76.1124 93.16 76.5564 93.98 76.8364 94.892C77.1244 95.796 77.2684 96.736 77.2684 97.712ZM84.3193 94.46C85.1033 94.46 85.6833 94.632 86.0593 94.976C86.4353 95.32 86.6233 95.868 86.6233 96.62V101H85.8553L85.6513 100.088H85.6033C85.3233 100.44 85.0273 100.7 84.7153 100.868C84.4033 101.036 83.9793 101.12 83.4433 101.12C82.8593 101.12 82.3753 100.968 81.9913 100.664C81.6073 100.352 81.4153 99.868 81.4153 99.212C81.4153 98.572 81.6673 98.08 82.1713 97.736C82.6753 97.384 83.4513 97.192 84.4993 97.16L85.5913 97.124V96.74C85.5913 96.204 85.4753 95.832 85.2433 95.624C85.0113 95.416 84.6833 95.312 84.2593 95.312C83.9233 95.312 83.6033 95.364 83.2993 95.468C82.9953 95.564 82.7113 95.676 82.4473 95.804L82.1233 95.012C82.4033 94.86 82.7353 94.732 83.1193 94.628C83.5033 94.516 83.9033 94.46 84.3193 94.46ZM85.5793 97.856L84.6313 97.892C83.8313 97.924 83.2753 98.052 82.9633 98.276C82.6593 98.5 82.5073 98.816 82.5073 99.224C82.5073 99.584 82.6153 99.848 82.8313 100.016C83.0553 100.184 83.3393 100.268 83.6833 100.268C84.2193 100.268 84.6673 100.12 85.0273 99.824C85.3953 99.52 85.5793 99.056 85.5793 98.432V97.856ZM91.7058 94.448C92.4738 94.448 93.0538 94.636 93.4458 95.012C93.8378 95.388 94.0338 95.988 94.0338 96.812V101H92.9898V96.884C92.9898 95.852 92.5098 95.336 91.5498 95.336C90.8378 95.336 90.3458 95.536 90.0738 95.936C89.8018 96.336 89.6658 96.912 89.6658 97.664V101H88.6098V94.568H89.4618L89.6178 95.444H89.6778C89.8858 95.108 90.1738 94.86 90.5418 94.7C90.9098 94.532 91.2978 94.448 91.7058 94.448ZM98.3078 101.12C97.5078 101.12 96.8678 100.844 96.3878 100.292C95.9078 99.732 95.6678 98.9 95.6678 97.796C95.6678 96.692 95.9078 95.86 96.3878 95.3C96.8758 94.732 97.5198 94.448 98.3198 94.448C98.8158 94.448 99.2198 94.54 99.5318 94.724C99.8518 94.908 100.112 95.132 100.312 95.396H100.384C100.368 95.292 100.352 95.14 100.336 94.94C100.32 94.732 100.312 94.568 100.312 94.448V91.88H101.368V101H100.516L100.36 100.136H100.312C100.12 100.408 99.8638 100.64 99.5438 100.832C99.2238 101.024 98.8118 101.12 98.3078 101.12ZM98.4758 100.244C99.1558 100.244 99.6318 100.06 99.9038 99.692C100.184 99.316 100.324 98.752 100.324 98V97.808C100.324 97.008 100.192 96.396 99.9278 95.972C99.6638 95.54 99.1758 95.324 98.4638 95.324C97.8958 95.324 97.4678 95.552 97.1798 96.008C96.8998 96.456 96.7598 97.06 96.7598 97.82C96.7598 98.588 96.8998 99.184 97.1798 99.608C97.4678 100.032 97.8998 100.244 98.4758 100.244ZM105.988 98.252V97.316H108.892V98.252H105.988ZM109.855 97.712C109.855 96.736 109.995 95.796 110.275 94.892C110.563 93.98 111.011 93.16 111.619 92.432H112.615C112.055 93.184 111.631 94.012 111.343 94.916C111.063 95.82 110.923 96.748 110.923 97.7C110.923 98.628 111.063 99.54 111.343 100.436C111.631 101.324 112.051 102.144 112.603 102.896H111.619C111.011 102.192 110.563 101.396 110.275 100.508C109.995 99.612 109.855 98.68 109.855 97.712ZM121.049 94.448C121.777 94.448 122.321 94.636 122.681 95.012C123.041 95.388 123.221 95.988 123.221 96.812V101H122.177V96.86C122.177 95.844 121.741 95.336 120.869 95.336C120.245 95.336 119.797 95.516 119.525 95.876C119.261 96.236 119.129 96.76 119.129 97.448V101H118.085V96.86C118.085 95.844 117.645 95.336 116.765 95.336C116.117 95.336 115.669 95.536 115.421 95.936C115.173 96.336 115.049 96.912 115.049 97.664V101H113.993V94.568H114.845L115.001 95.444H115.061C115.261 95.108 115.529 94.86 115.865 94.7C116.209 94.532 116.573 94.448 116.957 94.448C117.965 94.448 118.621 94.808 118.925 95.528H118.985C119.201 95.16 119.493 94.888 119.861 94.712C120.229 94.536 120.625 94.448 121.049 94.448ZM125.748 92.156C125.908 92.156 126.048 92.212 126.168 92.324C126.296 92.428 126.36 92.596 126.36 92.828C126.36 93.06 126.296 93.232 126.168 93.344C126.048 93.448 125.908 93.5 125.748 93.5C125.572 93.5 125.424 93.448 125.304 93.344C125.184 93.232 125.124 93.06 125.124 92.828C125.124 92.596 125.184 92.428 125.304 92.324C125.424 92.212 125.572 92.156 125.748 92.156ZM126.264 94.568V101H125.208V94.568H126.264ZM131.397 94.448C132.165 94.448 132.745 94.636 133.137 95.012C133.529 95.388 133.725 95.988 133.725 96.812V101H132.681V96.884C132.681 95.852 132.201 95.336 131.241 95.336C130.529 95.336 130.037 95.536 129.765 95.936C129.493 96.336 129.357 96.912 129.357 97.664V101H128.301V94.568H129.153L129.309 95.444H129.369C129.577 95.108 129.865 94.86 130.233 94.7C130.601 94.532 130.989 94.448 131.397 94.448ZM141.095 94.568V101H140.231L140.075 100.148H140.027C139.819 100.484 139.531 100.732 139.163 100.892C138.795 101.044 138.403 101.12 137.987 101.12C137.211 101.12 136.627 100.936 136.235 100.568C135.843 100.192 135.647 99.596 135.647 98.78V94.568H136.715V98.708C136.715 99.732 137.191 100.244 138.143 100.244C138.855 100.244 139.347 100.044 139.619 99.644C139.899 99.244 140.039 98.668 140.039 97.916V94.568H141.095ZM147.325 99.224C147.325 99.848 147.093 100.32 146.629 100.64C146.165 100.96 145.541 101.12 144.757 101.12C144.309 101.12 143.921 101.084 143.593 101.012C143.273 100.94 142.989 100.84 142.741 100.712V99.752C142.997 99.88 143.305 100 143.665 100.112C144.033 100.216 144.405 100.268 144.781 100.268C145.317 100.268 145.705 100.184 145.945 100.016C146.185 99.84 146.305 99.608 146.305 99.32C146.305 99.16 146.261 99.016 146.173 98.888C146.085 98.76 145.925 98.632 145.693 98.504C145.469 98.376 145.145 98.232 144.721 98.072C144.305 97.912 143.949 97.752 143.653 97.592C143.357 97.432 143.129 97.24 142.969 97.016C142.809 96.792 142.729 96.504 142.729 96.152C142.729 95.608 142.949 95.188 143.389 94.892C143.837 94.596 144.421 94.448 145.141 94.448C145.533 94.448 145.897 94.488 146.233 94.568C146.577 94.648 146.897 94.752 147.193 94.88L146.833 95.72C146.561 95.608 146.277 95.512 145.981 95.432C145.685 95.352 145.381 95.312 145.069 95.312C144.637 95.312 144.305 95.384 144.073 95.528C143.849 95.664 143.737 95.852 143.737 96.092C143.737 96.276 143.789 96.428 143.893 96.548C143.997 96.668 144.169 96.788 144.409 96.908C144.657 97.028 144.985 97.164 145.393 97.316C145.801 97.468 146.149 97.624 146.437 97.784C146.725 97.944 146.945 98.14 147.097 98.372C147.249 98.596 147.325 98.88 147.325 99.224ZM150.979 97.712C150.979 98.68 150.835 99.612 150.547 100.508C150.267 101.396 149.823 102.192 149.215 102.896H148.231C148.783 102.144 149.199 101.324 149.479 100.436C149.767 99.54 149.911 98.628 149.911 97.7C149.911 96.748 149.767 95.82 149.479 94.916C149.199 94.012 148.779 93.184 148.219 92.432H149.215C149.823 93.16 150.267 93.98 150.547 94.892C150.835 95.796 150.979 96.736 150.979 97.712ZM152.321 100.352C152.321 100.056 152.393 99.848 152.537 99.728C152.681 99.608 152.853 99.548 153.053 99.548C153.253 99.548 153.429 99.608 153.581 99.728C153.733 99.848 153.809 100.056 153.809 100.352C153.809 100.64 153.733 100.848 153.581 100.976C153.429 101.104 153.253 101.168 153.053 101.168C152.853 101.168 152.681 101.104 152.537 100.976C152.393 100.848 152.321 100.64 152.321 100.352Z" fill="#5E5E5E"/>
</svg>
