<svg width="904" height="293" viewBox="0 0 904 293" fill="none" xmlns="http://www.w3.org/2000/svg">
<rect width="904" height="293" fill="white"/>
<circle cx="272.5" cy="82" r="12" fill="#D51588"/>
<path d="M274.468 87H272.704V80.77C272.704 80.4713 272.709 80.154 272.718 79.818C272.727 79.482 272.741 79.1693 272.76 78.88C272.667 78.9733 272.55 79.0853 272.41 79.216C272.279 79.3467 272.135 79.4727 271.976 79.594L270.856 80.49L269.974 79.398L272.998 77.004H274.468V87Z" fill="white"/>
<path d="M284.5 82H313.5" stroke="#D51588"/>
<path d="M316.932 78.432C318.052 78.432 318.868 78.652 319.38 79.092C319.892 79.532 320.148 80.152 320.148 80.952C320.148 81.424 320.04 81.868 319.824 82.284C319.616 82.692 319.26 83.024 318.756 83.28C318.26 83.536 317.584 83.664 316.728 83.664H315.744V87H314.664V78.432H316.932ZM316.836 79.356H315.744V82.74H316.608C317.424 82.74 318.032 82.608 318.432 82.344C318.832 82.08 319.032 81.632 319.032 81C319.032 80.448 318.852 80.036 318.492 79.764C318.14 79.492 317.588 79.356 316.836 79.356ZM324.222 80.46C325.006 80.46 325.586 80.632 325.962 80.976C326.338 81.32 326.526 81.868 326.526 82.62V87H325.758L325.554 86.088H325.506C325.226 86.44 324.93 86.7 324.618 86.868C324.306 87.036 323.882 87.12 323.346 87.12C322.762 87.12 322.278 86.968 321.894 86.664C321.51 86.352 321.318 85.868 321.318 85.212C321.318 84.572 321.57 84.08 322.074 83.736C322.578 83.384 323.354 83.192 324.402 83.16L325.494 83.124V82.74C325.494 82.204 325.378 81.832 325.146 81.624C324.914 81.416 324.586 81.312 324.162 81.312C323.826 81.312 323.506 81.364 323.202 81.468C322.898 81.564 322.614 81.676 322.35 81.804L322.026 81.012C322.306 80.86 322.638 80.732 323.022 80.628C323.406 80.516 323.806 80.46 324.222 80.46ZM325.482 83.856L324.534 83.892C323.734 83.924 323.178 84.052 322.866 84.276C322.562 84.5 322.41 84.816 322.41 85.224C322.41 85.584 322.518 85.848 322.734 86.016C322.958 86.184 323.242 86.268 323.586 86.268C324.122 86.268 324.57 86.12 324.93 85.824C325.298 85.52 325.482 85.056 325.482 84.432V83.856ZM332.7 85.224C332.7 85.848 332.468 86.32 332.004 86.64C331.54 86.96 330.916 87.12 330.132 87.12C329.684 87.12 329.296 87.084 328.968 87.012C328.648 86.94 328.364 86.84 328.116 86.712V85.752C328.372 85.88 328.68 86 329.04 86.112C329.408 86.216 329.78 86.268 330.156 86.268C330.692 86.268 331.08 86.184 331.32 86.016C331.56 85.84 331.68 85.608 331.68 85.32C331.68 85.16 331.636 85.016 331.548 84.888C331.46 84.76 331.3 84.632 331.068 84.504C330.844 84.376 330.52 84.232 330.096 84.072C329.68 83.912 329.324 83.752 329.028 83.592C328.732 83.432 328.504 83.24 328.344 83.016C328.184 82.792 328.104 82.504 328.104 82.152C328.104 81.608 328.324 81.188 328.764 80.892C329.212 80.596 329.796 80.448 330.516 80.448C330.908 80.448 331.272 80.488 331.608 80.568C331.952 80.648 332.272 80.752 332.568 80.88L332.208 81.72C331.936 81.608 331.652 81.512 331.356 81.432C331.06 81.352 330.756 81.312 330.444 81.312C330.012 81.312 329.68 81.384 329.448 81.528C329.224 81.664 329.112 81.852 329.112 82.092C329.112 82.276 329.164 82.428 329.268 82.548C329.372 82.668 329.544 82.788 329.784 82.908C330.032 83.028 330.36 83.164 330.768 83.316C331.176 83.468 331.524 83.624 331.812 83.784C332.1 83.944 332.32 84.14 332.472 84.372C332.624 84.596 332.7 84.88 332.7 85.224ZM338.442 85.224C338.442 85.848 338.21 86.32 337.746 86.64C337.282 86.96 336.658 87.12 335.874 87.12C335.426 87.12 335.038 87.084 334.71 87.012C334.39 86.94 334.106 86.84 333.858 86.712V85.752C334.114 85.88 334.422 86 334.782 86.112C335.15 86.216 335.522 86.268 335.898 86.268C336.434 86.268 336.822 86.184 337.062 86.016C337.302 85.84 337.422 85.608 337.422 85.32C337.422 85.16 337.378 85.016 337.29 84.888C337.202 84.76 337.042 84.632 336.81 84.504C336.586 84.376 336.262 84.232 335.838 84.072C335.422 83.912 335.066 83.752 334.77 83.592C334.474 83.432 334.246 83.24 334.086 83.016C333.926 82.792 333.846 82.504 333.846 82.152C333.846 81.608 334.066 81.188 334.506 80.892C334.954 80.596 335.538 80.448 336.258 80.448C336.65 80.448 337.014 80.488 337.35 80.568C337.694 80.648 338.014 80.752 338.31 80.88L337.95 81.72C337.678 81.608 337.394 81.512 337.098 81.432C336.802 81.352 336.498 81.312 336.186 81.312C335.754 81.312 335.422 81.384 335.19 81.528C334.966 81.664 334.854 81.852 334.854 82.092C334.854 82.276 334.906 82.428 335.01 82.548C335.114 82.668 335.286 82.788 335.526 82.908C335.774 83.028 336.102 83.164 336.51 83.316C336.918 83.468 337.266 83.624 337.554 83.784C337.842 83.944 338.062 84.14 338.214 84.372C338.366 84.596 338.442 84.88 338.442 85.224ZM345.253 86.988L344.149 83.364C344.045 83.036 343.953 82.716 343.873 82.404C343.793 82.092 343.737 81.844 343.705 81.66H343.657C343.625 81.844 343.573 82.092 343.501 82.404C343.429 82.716 343.337 83.04 343.225 83.376L342.073 86.988H340.873L339.109 80.556H340.201L341.089 83.988C341.177 84.332 341.261 84.68 341.341 85.032C341.421 85.384 341.477 85.676 341.509 85.908H341.557C341.581 85.772 341.617 85.604 341.665 85.404C341.713 85.204 341.765 84.996 341.821 84.78C341.877 84.556 341.933 84.356 341.989 84.18L343.129 80.556H344.281L345.385 84.18C345.465 84.46 345.549 84.76 345.637 85.08C345.725 85.4 345.785 85.672 345.817 85.896H345.865C345.889 85.696 345.941 85.42 346.021 85.068C346.109 84.716 346.201 84.356 346.297 83.988L347.197 80.556H348.277L346.489 86.988H345.253ZM355.022 83.772C355.022 84.836 354.75 85.66 354.206 86.244C353.67 86.828 352.942 87.12 352.022 87.12C351.454 87.12 350.946 86.992 350.498 86.736C350.058 86.472 349.71 86.092 349.454 85.596C349.198 85.092 349.07 84.484 349.07 83.772C349.07 82.708 349.334 81.888 349.862 81.312C350.398 80.736 351.13 80.448 352.058 80.448C352.634 80.448 353.146 80.58 353.594 80.844C354.042 81.1 354.39 81.476 354.638 81.972C354.894 82.46 355.022 83.06 355.022 83.772ZM350.162 83.772C350.162 84.532 350.31 85.136 350.606 85.584C350.91 86.024 351.39 86.244 352.046 86.244C352.694 86.244 353.17 86.024 353.474 85.584C353.778 85.136 353.93 84.532 353.93 83.772C353.93 83.012 353.778 82.416 353.474 81.984C353.17 81.552 352.69 81.336 352.034 81.336C351.378 81.336 350.902 81.552 350.606 81.984C350.31 82.416 350.162 83.012 350.162 83.772ZM359.696 80.448C359.816 80.448 359.944 80.456 360.08 80.472C360.216 80.48 360.34 80.496 360.452 80.52L360.32 81.492C360.216 81.468 360.1 81.448 359.972 81.432C359.844 81.416 359.728 81.408 359.624 81.408C359.296 81.408 358.988 81.5 358.7 81.684C358.412 81.86 358.18 82.112 358.004 82.44C357.836 82.76 357.752 83.136 357.752 83.568V87H356.696V80.568H357.56L357.68 81.744H357.728C357.928 81.392 358.192 81.088 358.52 80.832C358.856 80.576 359.248 80.448 359.696 80.448ZM363.698 87.12C362.898 87.12 362.258 86.844 361.778 86.292C361.298 85.732 361.058 84.9 361.058 83.796C361.058 82.692 361.298 81.86 361.778 81.3C362.266 80.732 362.91 80.448 363.71 80.448C364.206 80.448 364.61 80.54 364.922 80.724C365.242 80.908 365.502 81.132 365.702 81.396H365.774C365.758 81.292 365.742 81.14 365.726 80.94C365.71 80.732 365.702 80.568 365.702 80.448V77.88H366.758V87H365.906L365.75 86.136H365.702C365.51 86.408 365.254 86.64 364.934 86.832C364.614 87.024 364.202 87.12 363.698 87.12ZM363.866 86.244C364.546 86.244 365.022 86.06 365.294 85.692C365.574 85.316 365.714 84.752 365.714 84V83.808C365.714 83.008 365.582 82.396 365.318 81.972C365.054 81.54 364.566 81.324 363.854 81.324C363.286 81.324 362.858 81.552 362.57 82.008C362.29 82.456 362.15 83.06 362.15 83.82C362.15 84.588 362.29 85.184 362.57 85.608C362.858 86.032 363.29 86.244 363.866 86.244Z" fill="#323232"/>
<path d="M374.762 77.88L374.522 80.184L376.826 79.536L376.994 80.64L374.786 80.82L376.214 82.716L375.182 83.28L374.162 81.18L373.238 83.28L372.17 82.716L373.574 80.82L371.39 80.64L371.558 79.536L373.838 80.184L373.586 77.88H374.762Z" fill="#B51418"/>
<rect x="314" y="94.5" width="279" height="35" rx="1.5" fill="white"/>
<path d="M330.008 106.36L329.728 109.048L332.416 108.292L332.612 109.58L330.036 109.79L331.702 112.002L330.498 112.66L329.308 110.21L328.23 112.66L326.984 112.002L328.622 109.79L326.074 109.58L326.27 108.292L328.93 109.048L328.636 106.36H330.008ZM337.719 106.36L337.439 109.048L340.127 108.292L340.323 109.58L337.747 109.79L339.413 112.002L338.209 112.66L337.019 110.21L335.941 112.66L334.695 112.002L336.333 109.79L333.785 109.58L333.981 108.292L336.641 109.048L336.347 106.36H337.719ZM345.43 106.36L345.15 109.048L347.838 108.292L348.034 109.58L345.458 109.79L347.124 112.002L345.92 112.66L344.73 110.21L343.652 112.66L342.406 112.002L344.044 109.79L341.496 109.58L341.692 108.292L344.352 109.048L344.058 106.36H345.43ZM353.141 106.36L352.861 109.048L355.549 108.292L355.745 109.58L353.169 109.79L354.835 112.002L353.631 112.66L352.441 110.21L351.363 112.66L350.117 112.002L351.755 109.79L349.207 109.58L349.403 108.292L352.063 109.048L351.769 106.36H353.141ZM360.852 106.36L360.572 109.048L363.26 108.292L363.456 109.58L360.88 109.79L362.546 112.002L361.342 112.66L360.152 110.21L359.074 112.66L357.828 112.002L359.466 109.79L356.918 109.58L357.114 108.292L359.774 109.048L359.48 106.36H360.852ZM368.563 106.36L368.283 109.048L370.971 108.292L371.167 109.58L368.591 109.79L370.257 112.002L369.053 112.66L367.863 110.21L366.785 112.66L365.539 112.002L367.177 109.79L364.629 109.58L364.825 108.292L367.485 109.048L367.191 106.36H368.563ZM376.274 106.36L375.994 109.048L378.682 108.292L378.878 109.58L376.302 109.79L377.968 112.002L376.764 112.66L375.574 110.21L374.496 112.66L373.25 112.002L374.888 109.79L372.34 109.58L372.536 108.292L375.196 109.048L374.902 106.36H376.274ZM383.985 106.36L383.705 109.048L386.393 108.292L386.589 109.58L384.013 109.79L385.679 112.002L384.475 112.66L383.285 110.21L382.207 112.66L380.961 112.002L382.599 109.79L380.051 109.58L380.247 108.292L382.907 109.048L382.613 106.36H383.985ZM391.696 106.36L391.416 109.048L394.104 108.292L394.3 109.58L391.724 109.79L393.39 112.002L392.186 112.66L390.996 110.21L389.918 112.66L388.672 112.002L390.31 109.79L387.762 109.58L387.958 108.292L390.618 109.048L390.324 106.36H391.696ZM399.406 106.36L399.126 109.048L401.814 108.292L402.01 109.58L399.434 109.79L401.1 112.002L399.896 112.66L398.706 110.21L397.628 112.66L396.382 112.002L398.02 109.79L395.472 109.58L395.668 108.292L398.328 109.048L398.034 106.36H399.406ZM407.117 106.36L406.837 109.048L409.525 108.292L409.721 109.58L407.145 109.79L408.811 112.002L407.607 112.66L406.417 110.21L405.339 112.66L404.093 112.002L405.731 109.79L403.183 109.58L403.379 108.292L406.039 109.048L405.745 106.36H407.117Z" fill="black"/>
<path d="M573.5 108C569.7 108 566.5 111.05 566.5 112.2C566.5 113.35 569.7 116.4 573.5 116.4C577.3 116.4 580.5 113.35 580.5 112.2C580.5 111.05 577.3 108 573.5 108ZM573.5 115.65C569.9 115.65 567.25 112.75 567.25 112.2C567.25 111.65 569.9 108.75 573.5 108.75C576.95 108.75 579.75 111.5 579.75 112.2C579.75 112.9 576.95 115.65 573.5 115.65Z" fill="#323232"/>
<path d="M573.5 109.6C572.05 109.6 570.9 110.8 570.9 112.2C570.9 113.6 572.05 114.8 573.5 114.8C574.95 114.8 576.1 113.6 576.1 112.2C576.1 110.8 574.95 109.6 573.5 109.6ZM573.5 114.05C572.45 114.05 571.65 113.2 571.65 112.2C571.65 111.2 572.5 110.35 573.5 110.35C574.5 110.35 575.35 111.2 575.35 112.2C575.35 113.2 574.55 114.05 573.5 114.05Z" fill="#323232"/>
<rect x="314" y="94.5" width="279" height="35" rx="1.5" stroke="#939393"/>
<path d="M573.5 119V145" stroke="#D51588"/>
<circle cx="573.5" cy="157" r="12" fill="#D51588"/>
<path d="M574.068 155.714C574.703 155.714 575.263 155.831 575.748 156.064C576.233 156.297 576.611 156.638 576.882 157.086C577.162 157.525 577.302 158.066 577.302 158.71C577.302 159.783 576.966 160.623 576.294 161.23C575.631 161.837 574.67 162.14 573.41 162.14C572.887 162.14 572.393 162.093 571.926 162C571.469 161.907 571.077 161.771 570.75 161.594V160.026C571.095 160.213 571.506 160.367 571.982 160.488C572.467 160.609 572.929 160.67 573.368 160.67C574.031 160.67 574.549 160.525 574.922 160.236C575.305 159.947 575.496 159.494 575.496 158.878C575.496 158.327 575.319 157.907 574.964 157.618C574.609 157.319 574.059 157.17 573.312 157.17C573.041 157.17 572.757 157.193 572.458 157.24C572.159 157.287 571.912 157.333 571.716 157.38L570.96 156.96L571.338 152.004H576.602V153.544H572.892L572.682 155.854C572.841 155.826 573.027 155.798 573.242 155.77C573.466 155.733 573.741 155.714 574.068 155.714Z" fill="white"/>
<circle cx="374.5" cy="36" r="12" fill="#D51588"/>
<path d="M378.442 41H371.596V39.698L374.144 37.122C374.648 36.6087 375.059 36.17 375.376 35.806C375.703 35.442 375.941 35.1013 376.09 34.784C376.249 34.4573 376.328 34.1073 376.328 33.734C376.328 33.2767 376.197 32.936 375.936 32.712C375.684 32.4787 375.339 32.362 374.9 32.362C374.48 32.362 374.088 32.4507 373.724 32.628C373.36 32.796 372.982 33.0387 372.59 33.356L371.624 32.194C372.035 31.8393 372.497 31.5313 373.01 31.27C373.533 30.9993 374.195 30.864 374.998 30.864C375.642 30.864 376.193 30.9807 376.65 31.214C377.117 31.438 377.476 31.7553 377.728 32.166C377.98 32.5673 378.106 33.0293 378.106 33.552C378.106 34.0933 377.999 34.5927 377.784 35.05C377.569 35.498 377.257 35.9507 376.846 36.408C376.445 36.856 375.964 37.3413 375.404 37.864L373.822 39.39V39.474H378.442V41Z" fill="white"/>
<path d="M374.5 48V74" stroke="#D51588"/>
<circle cx="272.5" cy="110" r="12" fill="#D51588"/>
<path d="M276.05 107.286C276.05 107.967 275.849 108.513 275.448 108.924C275.056 109.325 274.547 109.596 273.922 109.736V109.778C274.725 109.881 275.331 110.133 275.742 110.534C276.153 110.935 276.358 111.463 276.358 112.116C276.358 112.695 276.218 113.213 275.938 113.67C275.658 114.127 275.224 114.487 274.636 114.748C274.057 115.009 273.311 115.14 272.396 115.14C271.845 115.14 271.337 115.093 270.87 115C270.413 114.916 269.979 114.781 269.568 114.594V113.04C269.988 113.255 270.436 113.418 270.912 113.53C271.388 113.642 271.836 113.698 272.256 113.698C273.068 113.698 273.642 113.553 273.978 113.264C274.314 112.965 274.482 112.555 274.482 112.032C274.482 111.537 274.286 111.169 273.894 110.926C273.502 110.683 272.849 110.562 271.934 110.562H271.094V109.148H271.948C272.835 109.148 273.446 109.003 273.782 108.714C274.118 108.425 274.286 108.051 274.286 107.594C274.286 107.193 274.155 106.88 273.894 106.656C273.633 106.432 273.241 106.32 272.718 106.32C272.214 106.32 271.78 106.404 271.416 106.572C271.052 106.731 270.725 106.903 270.436 107.09L269.596 105.872C269.979 105.592 270.431 105.354 270.954 105.158C271.477 104.962 272.093 104.864 272.802 104.864C273.838 104.864 274.636 105.083 275.196 105.522C275.765 105.961 276.05 106.549 276.05 107.286Z" fill="white"/>
<path d="M284.5 110H325.5" stroke="#D51588"/>
<path d="M593.5 111H619.5" stroke="#D51588"/>
<circle cx="631.5" cy="111" r="12" fill="#D51588"/>
<path d="M635.75 113.858H634.448V116H632.712V113.858H628.26V112.542L632.754 105.976H634.448V112.416H635.75V113.858ZM632.712 112.416V110.176C632.712 109.915 632.717 109.644 632.726 109.364C632.735 109.075 632.745 108.809 632.754 108.566C632.773 108.314 632.787 108.123 632.796 107.992H632.74C632.656 108.179 632.563 108.365 632.46 108.552C632.367 108.729 632.259 108.907 632.138 109.084L629.87 112.416H632.712Z" fill="white"/>
<path d="M342.336 151.26C341.416 151.26 340.692 151.568 340.164 152.184C339.636 152.8 339.372 153.644 339.372 154.716C339.372 155.78 339.616 156.624 340.104 157.248C340.6 157.864 341.34 158.172 342.324 158.172C342.692 158.172 343.044 158.14 343.38 158.076C343.716 158.012 344.048 157.932 344.376 157.836V158.772C344.056 158.892 343.724 158.98 343.38 159.036C343.044 159.092 342.64 159.12 342.168 159.12C341.296 159.12 340.568 158.94 339.984 158.58C339.4 158.22 338.96 157.708 338.664 157.044C338.376 156.38 338.232 155.6 338.232 154.704C338.232 153.84 338.388 153.08 338.7 152.424C339.02 151.76 339.488 151.244 340.104 150.876C340.72 150.5 341.468 150.312 342.348 150.312C343.252 150.312 344.04 150.48 344.712 150.816L344.28 151.728C344.016 151.608 343.72 151.5 343.392 151.404C343.072 151.308 342.72 151.26 342.336 151.26ZM351.694 155.772C351.694 156.836 351.422 157.66 350.878 158.244C350.342 158.828 349.614 159.12 348.694 159.12C348.126 159.12 347.618 158.992 347.17 158.736C346.73 158.472 346.382 158.092 346.126 157.596C345.87 157.092 345.742 156.484 345.742 155.772C345.742 154.708 346.006 153.888 346.534 153.312C347.07 152.736 347.802 152.448 348.73 152.448C349.306 152.448 349.818 152.58 350.266 152.844C350.714 153.1 351.062 153.476 351.31 153.972C351.566 154.46 351.694 155.06 351.694 155.772ZM346.834 155.772C346.834 156.532 346.982 157.136 347.278 157.584C347.582 158.024 348.062 158.244 348.718 158.244C349.366 158.244 349.842 158.024 350.146 157.584C350.45 157.136 350.602 156.532 350.602 155.772C350.602 155.012 350.45 154.416 350.146 153.984C349.842 153.552 349.362 153.336 348.706 153.336C348.05 153.336 347.574 153.552 347.278 153.984C346.982 154.416 346.834 155.012 346.834 155.772ZM356.464 152.448C357.232 152.448 357.812 152.636 358.204 153.012C358.596 153.388 358.792 153.988 358.792 154.812V159H357.748V154.884C357.748 153.852 357.268 153.336 356.308 153.336C355.596 153.336 355.104 153.536 354.832 153.936C354.56 154.336 354.424 154.912 354.424 155.664V159H353.368V152.568H354.22L354.376 153.444H354.436C354.644 153.108 354.932 152.86 355.3 152.7C355.668 152.532 356.056 152.448 356.464 152.448ZM362.934 158.256C363.094 158.256 363.258 158.244 363.426 158.22C363.594 158.196 363.73 158.164 363.834 158.124V158.928C363.722 158.984 363.562 159.028 363.354 159.06C363.146 159.1 362.946 159.12 362.754 159.12C362.418 159.12 362.106 159.064 361.818 158.952C361.538 158.832 361.31 158.628 361.134 158.34C360.958 158.052 360.87 157.648 360.87 157.128V153.384H359.958V152.88L360.882 152.46L361.302 151.092H361.926V152.568H363.786V153.384H361.926V157.104C361.926 157.496 362.018 157.788 362.202 157.98C362.394 158.164 362.638 158.256 362.934 158.256ZM367.558 152.46C368.342 152.46 368.922 152.632 369.298 152.976C369.674 153.32 369.862 153.868 369.862 154.62V159H369.094L368.89 158.088H368.842C368.562 158.44 368.266 158.7 367.954 158.868C367.642 159.036 367.218 159.12 366.682 159.12C366.098 159.12 365.614 158.968 365.23 158.664C364.846 158.352 364.654 157.868 364.654 157.212C364.654 156.572 364.906 156.08 365.41 155.736C365.914 155.384 366.69 155.192 367.738 155.16L368.83 155.124V154.74C368.83 154.204 368.714 153.832 368.482 153.624C368.25 153.416 367.922 153.312 367.498 153.312C367.162 153.312 366.842 153.364 366.538 153.468C366.234 153.564 365.95 153.676 365.686 153.804L365.362 153.012C365.642 152.86 365.974 152.732 366.358 152.628C366.742 152.516 367.142 152.46 367.558 152.46ZM368.818 155.856L367.87 155.892C367.07 155.924 366.514 156.052 366.202 156.276C365.898 156.5 365.746 156.816 365.746 157.224C365.746 157.584 365.854 157.848 366.07 158.016C366.294 158.184 366.578 158.268 366.922 158.268C367.458 158.268 367.906 158.12 368.266 157.824C368.634 157.52 368.818 157.056 368.818 156.432V155.856ZM372.388 150.156C372.548 150.156 372.688 150.212 372.808 150.324C372.936 150.428 373 150.596 373 150.828C373 151.06 372.936 151.232 372.808 151.344C372.688 151.448 372.548 151.5 372.388 151.5C372.212 151.5 372.064 151.448 371.944 151.344C371.824 151.232 371.764 151.06 371.764 150.828C371.764 150.596 371.824 150.428 371.944 150.324C372.064 150.212 372.212 150.156 372.388 150.156ZM372.904 152.568V159H371.848V152.568H372.904ZM378.038 152.448C378.806 152.448 379.386 152.636 379.778 153.012C380.17 153.388 380.366 153.988 380.366 154.812V159H379.322V154.884C379.322 153.852 378.842 153.336 377.882 153.336C377.17 153.336 376.678 153.536 376.406 153.936C376.134 154.336 375.998 154.912 375.998 155.664V159H374.942V152.568H375.794L375.95 153.444H376.01C376.218 153.108 376.506 152.86 376.874 152.7C377.242 152.532 377.63 152.448 378.038 152.448ZM387.913 152.46C388.697 152.46 389.277 152.632 389.653 152.976C390.029 153.32 390.217 153.868 390.217 154.62V159H389.449L389.245 158.088H389.197C388.917 158.44 388.621 158.7 388.309 158.868C387.997 159.036 387.573 159.12 387.037 159.12C386.453 159.12 385.969 158.968 385.585 158.664C385.201 158.352 385.009 157.868 385.009 157.212C385.009 156.572 385.261 156.08 385.765 155.736C386.269 155.384 387.045 155.192 388.093 155.16L389.185 155.124V154.74C389.185 154.204 389.069 153.832 388.837 153.624C388.605 153.416 388.277 153.312 387.853 153.312C387.517 153.312 387.197 153.364 386.893 153.468C386.589 153.564 386.305 153.676 386.041 153.804L385.717 153.012C385.997 152.86 386.329 152.732 386.713 152.628C387.097 152.516 387.497 152.46 387.913 152.46ZM389.173 155.856L388.225 155.892C387.425 155.924 386.869 156.052 386.557 156.276C386.253 156.5 386.101 156.816 386.101 157.224C386.101 157.584 386.209 157.848 386.425 158.016C386.649 158.184 386.933 158.268 387.277 158.268C387.813 158.268 388.261 158.12 388.621 157.824C388.989 157.52 389.173 157.056 389.173 156.432V155.856ZM394.352 158.256C394.512 158.256 394.676 158.244 394.844 158.22C395.012 158.196 395.148 158.164 395.252 158.124V158.928C395.14 158.984 394.98 159.028 394.772 159.06C394.564 159.1 394.364 159.12 394.172 159.12C393.836 159.12 393.524 159.064 393.236 158.952C392.956 158.832 392.728 158.628 392.552 158.34C392.376 158.052 392.288 157.648 392.288 157.128V153.384H391.376V152.88L392.3 152.46L392.72 151.092H393.344V152.568H395.204V153.384H393.344V157.104C393.344 157.496 393.436 157.788 393.62 157.98C393.812 158.164 394.056 158.256 394.352 158.256ZM400.713 159H399.657V149.88H400.713V159ZM405.234 152.448C405.778 152.448 406.25 152.568 406.65 152.808C407.05 153.048 407.354 153.388 407.562 153.828C407.778 154.26 407.886 154.768 407.886 155.352V155.988H403.482C403.498 156.716 403.682 157.272 404.034 157.656C404.394 158.032 404.894 158.22 405.534 158.22C405.942 158.22 406.302 158.184 406.614 158.112C406.934 158.032 407.262 157.92 407.598 157.776V158.7C407.27 158.844 406.946 158.948 406.626 159.012C406.306 159.084 405.926 159.12 405.486 159.12C404.87 159.12 404.33 158.996 403.866 158.748C403.402 158.5 403.038 158.132 402.774 157.644C402.518 157.156 402.39 156.552 402.39 155.832C402.39 155.128 402.506 154.524 402.738 154.02C402.978 153.516 403.31 153.128 403.734 152.856C404.166 152.584 404.666 152.448 405.234 152.448ZM405.222 153.312C404.718 153.312 404.318 153.476 404.022 153.804C403.734 154.124 403.562 154.572 403.506 155.148H406.782C406.774 154.604 406.646 154.164 406.398 153.828C406.15 153.484 405.758 153.312 405.222 153.312ZM411.96 152.46C412.744 152.46 413.324 152.632 413.7 152.976C414.076 153.32 414.264 153.868 414.264 154.62V159H413.496L413.292 158.088H413.244C412.964 158.44 412.668 158.7 412.356 158.868C412.044 159.036 411.62 159.12 411.084 159.12C410.5 159.12 410.016 158.968 409.632 158.664C409.248 158.352 409.056 157.868 409.056 157.212C409.056 156.572 409.308 156.08 409.812 155.736C410.316 155.384 411.092 155.192 412.14 155.16L413.232 155.124V154.74C413.232 154.204 413.116 153.832 412.884 153.624C412.652 153.416 412.324 153.312 411.9 153.312C411.564 153.312 411.244 153.364 410.94 153.468C410.636 153.564 410.352 153.676 410.088 153.804L409.764 153.012C410.044 152.86 410.376 152.732 410.76 152.628C411.144 152.516 411.544 152.46 411.96 152.46ZM413.22 155.856L412.272 155.892C411.472 155.924 410.916 156.052 410.604 156.276C410.3 156.5 410.148 156.816 410.148 157.224C410.148 157.584 410.256 157.848 410.472 158.016C410.696 158.184 410.98 158.268 411.324 158.268C411.86 158.268 412.308 158.12 412.668 157.824C413.036 157.52 413.22 157.056 413.22 156.432V155.856ZM420.438 157.224C420.438 157.848 420.206 158.32 419.742 158.64C419.278 158.96 418.654 159.12 417.87 159.12C417.422 159.12 417.034 159.084 416.706 159.012C416.386 158.94 416.102 158.84 415.854 158.712V157.752C416.11 157.88 416.418 158 416.778 158.112C417.146 158.216 417.518 158.268 417.894 158.268C418.43 158.268 418.818 158.184 419.058 158.016C419.298 157.84 419.418 157.608 419.418 157.32C419.418 157.16 419.374 157.016 419.286 156.888C419.198 156.76 419.038 156.632 418.806 156.504C418.582 156.376 418.258 156.232 417.834 156.072C417.418 155.912 417.062 155.752 416.766 155.592C416.47 155.432 416.242 155.24 416.082 155.016C415.922 154.792 415.842 154.504 415.842 154.152C415.842 153.608 416.062 153.188 416.502 152.892C416.95 152.596 417.534 152.448 418.254 152.448C418.646 152.448 419.01 152.488 419.346 152.568C419.69 152.648 420.01 152.752 420.306 152.88L419.946 153.72C419.674 153.608 419.39 153.512 419.094 153.432C418.798 153.352 418.494 153.312 418.182 153.312C417.75 153.312 417.418 153.384 417.186 153.528C416.962 153.664 416.85 153.852 416.85 154.092C416.85 154.276 416.902 154.428 417.006 154.548C417.11 154.668 417.282 154.788 417.522 154.908C417.77 155.028 418.098 155.164 418.506 155.316C418.914 155.468 419.262 155.624 419.55 155.784C419.838 155.944 420.058 156.14 420.21 156.372C420.362 156.596 420.438 156.88 420.438 157.224ZM424.141 158.256C424.301 158.256 424.465 158.244 424.633 158.22C424.801 158.196 424.937 158.164 425.041 158.124V158.928C424.929 158.984 424.769 159.028 424.561 159.06C424.353 159.1 424.153 159.12 423.961 159.12C423.625 159.12 423.313 159.064 423.025 158.952C422.745 158.832 422.517 158.628 422.341 158.34C422.165 158.052 422.077 157.648 422.077 157.128V153.384H421.165V152.88L422.089 152.46L422.509 151.092H423.133V152.568H424.993V153.384H423.133V157.104C423.133 157.496 423.225 157.788 423.409 157.98C423.601 158.164 423.845 158.256 424.141 158.256ZM432.686 159H431.654V153.012C431.654 152.668 431.658 152.392 431.666 152.184C431.674 151.976 431.686 151.76 431.702 151.536C431.574 151.664 431.454 151.772 431.342 151.86C431.238 151.948 431.11 152.06 430.958 152.196L430.046 152.94L429.494 152.232L431.81 150.432H432.686V159ZM444.806 152.568V159H443.942L443.786 158.148H443.738C443.53 158.484 443.242 158.732 442.874 158.892C442.506 159.044 442.114 159.12 441.698 159.12C440.922 159.12 440.338 158.936 439.946 158.568C439.554 158.192 439.358 157.596 439.358 156.78V152.568H440.426V156.708C440.426 157.732 440.902 158.244 441.854 158.244C442.566 158.244 443.058 158.044 443.33 157.644C443.61 157.244 443.75 156.668 443.75 155.916V152.568H444.806ZM449.908 152.448C450.7 152.448 451.336 152.724 451.816 153.276C452.304 153.828 452.548 154.66 452.548 155.772C452.548 156.868 452.304 157.7 451.816 158.268C451.336 158.836 450.696 159.12 449.896 159.12C449.4 159.12 448.988 159.028 448.66 158.844C448.34 158.66 448.088 158.44 447.904 158.184H447.832C447.84 158.32 447.852 158.492 447.868 158.7C447.892 158.908 447.904 159.088 447.904 159.24V161.88H446.848V152.568H447.712L447.856 153.444H447.904C448.096 153.164 448.348 152.928 448.66 152.736C448.972 152.544 449.388 152.448 449.908 152.448ZM449.716 153.336C449.06 153.336 448.596 153.52 448.324 153.888C448.052 154.256 447.912 154.816 447.904 155.568V155.772C447.904 156.564 448.032 157.176 448.288 157.608C448.552 158.032 449.036 158.244 449.74 158.244C450.124 158.244 450.444 158.14 450.7 157.932C450.956 157.716 451.144 157.42 451.264 157.044C451.392 156.668 451.456 156.24 451.456 155.76C451.456 155.024 451.312 154.436 451.024 153.996C450.744 153.556 450.308 153.336 449.716 153.336ZM457.291 152.448C458.083 152.448 458.719 152.724 459.199 153.276C459.687 153.828 459.931 154.66 459.931 155.772C459.931 156.868 459.687 157.7 459.199 158.268C458.719 158.836 458.079 159.12 457.279 159.12C456.783 159.12 456.371 159.028 456.043 158.844C455.723 158.66 455.471 158.44 455.287 158.184H455.215C455.223 158.32 455.235 158.492 455.251 158.7C455.275 158.908 455.287 159.088 455.287 159.24V161.88H454.231V152.568H455.095L455.239 153.444H455.287C455.479 153.164 455.731 152.928 456.043 152.736C456.355 152.544 456.771 152.448 457.291 152.448ZM457.099 153.336C456.443 153.336 455.979 153.52 455.707 153.888C455.435 154.256 455.295 154.816 455.287 155.568V155.772C455.287 156.564 455.415 157.176 455.671 157.608C455.935 158.032 456.419 158.244 457.123 158.244C457.507 158.244 457.827 158.14 458.083 157.932C458.339 157.716 458.527 157.42 458.647 157.044C458.775 156.668 458.839 156.24 458.839 155.76C458.839 155.024 458.695 154.436 458.407 153.996C458.127 153.556 457.691 153.336 457.099 153.336ZM464.098 152.448C464.642 152.448 465.114 152.568 465.514 152.808C465.914 153.048 466.218 153.388 466.426 153.828C466.642 154.26 466.75 154.768 466.75 155.352V155.988H462.346C462.362 156.716 462.546 157.272 462.898 157.656C463.258 158.032 463.758 158.22 464.398 158.22C464.806 158.22 465.166 158.184 465.478 158.112C465.798 158.032 466.126 157.92 466.462 157.776V158.7C466.134 158.844 465.81 158.948 465.49 159.012C465.17 159.084 464.79 159.12 464.35 159.12C463.734 159.12 463.194 158.996 462.73 158.748C462.266 158.5 461.902 158.132 461.638 157.644C461.382 157.156 461.254 156.552 461.254 155.832C461.254 155.128 461.37 154.524 461.602 154.02C461.842 153.516 462.174 153.128 462.598 152.856C463.03 152.584 463.53 152.448 464.098 152.448ZM464.086 153.312C463.582 153.312 463.182 153.476 462.886 153.804C462.598 154.124 462.426 154.572 462.37 155.148H465.646C465.638 154.604 465.51 154.164 465.262 153.828C465.014 153.484 464.622 153.312 464.086 153.312ZM471.387 152.448C471.507 152.448 471.635 152.456 471.771 152.472C471.907 152.48 472.031 152.496 472.143 152.52L472.011 153.492C471.907 153.468 471.791 153.448 471.663 153.432C471.535 153.416 471.419 153.408 471.315 153.408C470.987 153.408 470.679 153.5 470.391 153.684C470.103 153.86 469.871 154.112 469.695 154.44C469.527 154.76 469.443 155.136 469.443 155.568V159H468.387V152.568H469.251L469.371 153.744H469.419C469.619 153.392 469.883 153.088 470.211 152.832C470.547 152.576 470.939 152.448 471.387 152.448ZM475.69 159.12C475.114 159.12 474.606 159.004 474.166 158.772C473.726 158.54 473.378 158.18 473.122 157.692C472.874 157.204 472.75 156.58 472.75 155.82C472.75 155.028 472.878 154.384 473.134 153.888C473.398 153.392 473.758 153.028 474.214 152.796C474.67 152.564 475.186 152.448 475.762 152.448C476.082 152.448 476.394 152.484 476.698 152.556C477.01 152.62 477.262 152.7 477.454 152.796L477.13 153.672C476.938 153.6 476.714 153.532 476.458 153.468C476.202 153.404 475.962 153.372 475.738 153.372C474.474 153.372 473.842 154.184 473.842 155.808C473.842 156.584 473.994 157.18 474.298 157.596C474.61 158.004 475.07 158.208 475.678 158.208C476.022 158.208 476.33 158.172 476.602 158.1C476.874 158.028 477.122 157.94 477.346 157.836V158.772C477.13 158.884 476.89 158.968 476.626 159.024C476.37 159.088 476.058 159.12 475.69 159.12ZM481.311 152.46C482.095 152.46 482.675 152.632 483.051 152.976C483.427 153.32 483.615 153.868 483.615 154.62V159H482.847L482.643 158.088H482.595C482.315 158.44 482.019 158.7 481.707 158.868C481.395 159.036 480.971 159.12 480.435 159.12C479.851 159.12 479.367 158.968 478.983 158.664C478.599 158.352 478.407 157.868 478.407 157.212C478.407 156.572 478.659 156.08 479.163 155.736C479.667 155.384 480.443 155.192 481.491 155.16L482.583 155.124V154.74C482.583 154.204 482.467 153.832 482.235 153.624C482.003 153.416 481.675 153.312 481.251 153.312C480.915 153.312 480.595 153.364 480.291 153.468C479.987 153.564 479.703 153.676 479.439 153.804L479.115 153.012C479.395 152.86 479.727 152.732 480.111 152.628C480.495 152.516 480.895 152.46 481.311 152.46ZM482.571 155.856L481.623 155.892C480.823 155.924 480.267 156.052 479.955 156.276C479.651 156.5 479.499 156.816 479.499 157.224C479.499 157.584 479.607 157.848 479.823 158.016C480.047 158.184 480.331 158.268 480.675 158.268C481.211 158.268 481.659 158.12 482.019 157.824C482.387 157.52 482.571 157.056 482.571 156.432V155.856ZM489.79 157.224C489.79 157.848 489.558 158.32 489.094 158.64C488.63 158.96 488.006 159.12 487.222 159.12C486.774 159.12 486.386 159.084 486.058 159.012C485.738 158.94 485.454 158.84 485.206 158.712V157.752C485.462 157.88 485.77 158 486.13 158.112C486.498 158.216 486.87 158.268 487.246 158.268C487.782 158.268 488.17 158.184 488.41 158.016C488.65 157.84 488.77 157.608 488.77 157.32C488.77 157.16 488.726 157.016 488.638 156.888C488.55 156.76 488.39 156.632 488.158 156.504C487.934 156.376 487.61 156.232 487.186 156.072C486.77 155.912 486.414 155.752 486.118 155.592C485.822 155.432 485.594 155.24 485.434 155.016C485.274 154.792 485.194 154.504 485.194 154.152C485.194 153.608 485.414 153.188 485.854 152.892C486.302 152.596 486.886 152.448 487.606 152.448C487.998 152.448 488.362 152.488 488.698 152.568C489.042 152.648 489.362 152.752 489.658 152.88L489.298 153.72C489.026 153.608 488.742 153.512 488.446 153.432C488.15 153.352 487.846 153.312 487.534 153.312C487.102 153.312 486.77 153.384 486.538 153.528C486.314 153.664 486.202 153.852 486.202 154.092C486.202 154.276 486.254 154.428 486.358 154.548C486.462 154.668 486.634 154.788 486.874 154.908C487.122 155.028 487.45 155.164 487.858 155.316C488.266 155.468 488.614 155.624 488.902 155.784C489.19 155.944 489.41 156.14 489.562 156.372C489.714 156.596 489.79 156.88 489.79 157.224ZM493.828 152.448C494.372 152.448 494.844 152.568 495.244 152.808C495.644 153.048 495.948 153.388 496.156 153.828C496.372 154.26 496.48 154.768 496.48 155.352V155.988H492.076C492.092 156.716 492.276 157.272 492.628 157.656C492.988 158.032 493.488 158.22 494.128 158.22C494.536 158.22 494.896 158.184 495.208 158.112C495.528 158.032 495.856 157.92 496.192 157.776V158.7C495.864 158.844 495.54 158.948 495.22 159.012C494.9 159.084 494.52 159.12 494.08 159.12C493.464 159.12 492.924 158.996 492.46 158.748C491.996 158.5 491.632 158.132 491.368 157.644C491.112 157.156 490.984 156.552 490.984 155.832C490.984 155.128 491.1 154.524 491.332 154.02C491.572 153.516 491.904 153.128 492.328 152.856C492.76 152.584 493.26 152.448 493.828 152.448ZM493.816 153.312C493.312 153.312 492.912 153.476 492.616 153.804C492.328 154.124 492.156 154.572 492.1 155.148H495.376C495.368 154.604 495.24 154.164 494.992 153.828C494.744 153.484 494.352 153.312 493.816 153.312ZM502.291 159H501.235V149.88H502.291V159ZM506.813 152.448C507.357 152.448 507.829 152.568 508.229 152.808C508.629 153.048 508.933 153.388 509.141 153.828C509.357 154.26 509.465 154.768 509.465 155.352V155.988H505.061C505.077 156.716 505.261 157.272 505.613 157.656C505.973 158.032 506.473 158.22 507.113 158.22C507.521 158.22 507.881 158.184 508.193 158.112C508.513 158.032 508.841 157.92 509.177 157.776V158.7C508.849 158.844 508.525 158.948 508.205 159.012C507.885 159.084 507.505 159.12 507.065 159.12C506.449 159.12 505.909 158.996 505.445 158.748C504.981 158.5 504.617 158.132 504.353 157.644C504.097 157.156 503.969 156.552 503.969 155.832C503.969 155.128 504.085 154.524 504.317 154.02C504.557 153.516 504.889 153.128 505.313 152.856C505.745 152.584 506.245 152.448 506.813 152.448ZM506.801 153.312C506.297 153.312 505.897 153.476 505.601 153.804C505.313 154.124 505.141 154.572 505.085 155.148H508.361C508.353 154.604 508.225 154.164 507.977 153.828C507.729 153.484 507.337 153.312 506.801 153.312ZM513.25 158.256C513.41 158.256 513.574 158.244 513.742 158.22C513.91 158.196 514.046 158.164 514.15 158.124V158.928C514.038 158.984 513.878 159.028 513.67 159.06C513.462 159.1 513.262 159.12 513.07 159.12C512.734 159.12 512.422 159.064 512.134 158.952C511.854 158.832 511.626 158.628 511.45 158.34C511.274 158.052 511.186 157.648 511.186 157.128V153.384H510.274V152.88L511.198 152.46L511.618 151.092H512.242V152.568H514.102V153.384H512.242V157.104C512.242 157.496 512.334 157.788 512.518 157.98C512.71 158.164 512.954 158.256 513.25 158.256ZM517.586 158.256C517.746 158.256 517.91 158.244 518.078 158.22C518.246 158.196 518.382 158.164 518.486 158.124V158.928C518.374 158.984 518.214 159.028 518.006 159.06C517.798 159.1 517.598 159.12 517.406 159.12C517.07 159.12 516.758 159.064 516.47 158.952C516.19 158.832 515.962 158.628 515.786 158.34C515.61 158.052 515.522 157.648 515.522 157.128V153.384H514.61V152.88L515.534 152.46L515.954 151.092H516.578V152.568H518.438V153.384H516.578V157.104C516.578 157.496 516.67 157.788 516.854 157.98C517.046 158.164 517.29 158.256 517.586 158.256ZM522.258 152.448C522.802 152.448 523.274 152.568 523.674 152.808C524.074 153.048 524.378 153.388 524.586 153.828C524.802 154.26 524.91 154.768 524.91 155.352V155.988H520.506C520.522 156.716 520.706 157.272 521.058 157.656C521.418 158.032 521.918 158.22 522.558 158.22C522.966 158.22 523.326 158.184 523.638 158.112C523.958 158.032 524.286 157.92 524.622 157.776V158.7C524.294 158.844 523.97 158.948 523.65 159.012C523.33 159.084 522.95 159.12 522.51 159.12C521.894 159.12 521.354 158.996 520.89 158.748C520.426 158.5 520.062 158.132 519.798 157.644C519.542 157.156 519.414 156.552 519.414 155.832C519.414 155.128 519.53 154.524 519.762 154.02C520.002 153.516 520.334 153.128 520.758 152.856C521.19 152.584 521.69 152.448 522.258 152.448ZM522.246 153.312C521.742 153.312 521.342 153.476 521.046 153.804C520.758 154.124 520.586 154.572 520.53 155.148H523.806C523.798 154.604 523.67 154.164 523.422 153.828C523.174 153.484 522.782 153.312 522.246 153.312ZM529.547 152.448C529.667 152.448 529.795 152.456 529.931 152.472C530.067 152.48 530.191 152.496 530.303 152.52L530.171 153.492C530.067 153.468 529.951 153.448 529.823 153.432C529.695 153.416 529.579 153.408 529.475 153.408C529.147 153.408 528.839 153.5 528.551 153.684C528.263 153.86 528.031 154.112 527.855 154.44C527.687 154.76 527.603 155.136 527.603 155.568V159H526.547V152.568H527.411L527.531 153.744H527.579C527.779 153.392 528.043 153.088 528.371 152.832C528.707 152.576 529.099 152.448 529.547 152.448ZM535.692 157.224C535.692 157.848 535.46 158.32 534.996 158.64C534.532 158.96 533.908 159.12 533.124 159.12C532.676 159.12 532.288 159.084 531.96 159.012C531.64 158.94 531.356 158.84 531.108 158.712V157.752C531.364 157.88 531.672 158 532.032 158.112C532.4 158.216 532.772 158.268 533.148 158.268C533.684 158.268 534.072 158.184 534.312 158.016C534.552 157.84 534.672 157.608 534.672 157.32C534.672 157.16 534.628 157.016 534.54 156.888C534.452 156.76 534.292 156.632 534.06 156.504C533.836 156.376 533.512 156.232 533.088 156.072C532.672 155.912 532.316 155.752 532.02 155.592C531.724 155.432 531.496 155.24 531.336 155.016C531.176 154.792 531.096 154.504 531.096 154.152C531.096 153.608 531.316 153.188 531.756 152.892C532.204 152.596 532.788 152.448 533.508 152.448C533.9 152.448 534.264 152.488 534.6 152.568C534.944 152.648 535.264 152.752 535.56 152.88L535.2 153.72C534.928 153.608 534.644 153.512 534.348 153.432C534.052 153.352 533.748 153.312 533.436 153.312C533.004 153.312 532.672 153.384 532.44 153.528C532.216 153.664 532.104 153.852 532.104 154.092C532.104 154.276 532.156 154.428 532.26 154.548C532.364 154.668 532.536 154.788 532.776 154.908C533.024 155.028 533.352 155.164 533.76 155.316C534.168 155.468 534.516 155.624 534.804 155.784C535.092 155.944 535.312 156.14 535.464 156.372C535.616 156.596 535.692 156.88 535.692 157.224Z" fill="black"/>
<path d="M345.216 183H344.136V179.004H339.744V183H338.664V174.432H339.744V178.056H344.136V174.432H345.216V183ZM349.851 176.46C350.635 176.46 351.215 176.632 351.591 176.976C351.967 177.32 352.155 177.868 352.155 178.62V183H351.387L351.183 182.088H351.135C350.855 182.44 350.559 182.7 350.247 182.868C349.935 183.036 349.511 183.12 348.975 183.12C348.391 183.12 347.907 182.968 347.523 182.664C347.139 182.352 346.947 181.868 346.947 181.212C346.947 180.572 347.199 180.08 347.703 179.736C348.207 179.384 348.983 179.192 350.031 179.16L351.123 179.124V178.74C351.123 178.204 351.007 177.832 350.775 177.624C350.543 177.416 350.215 177.312 349.791 177.312C349.455 177.312 349.135 177.364 348.831 177.468C348.527 177.564 348.243 177.676 347.979 177.804L347.655 177.012C347.935 176.86 348.267 176.732 348.651 176.628C349.035 176.516 349.435 176.46 349.851 176.46ZM351.111 179.856L350.163 179.892C349.363 179.924 348.807 180.052 348.495 180.276C348.191 180.5 348.039 180.816 348.039 181.224C348.039 181.584 348.147 181.848 348.363 182.016C348.587 182.184 348.871 182.268 349.215 182.268C349.751 182.268 350.199 182.12 350.559 181.824C350.927 181.52 351.111 181.056 351.111 180.432V179.856ZM355.557 183L353.121 176.568H354.249L355.617 180.36C355.681 180.536 355.749 180.732 355.821 180.948C355.893 181.164 355.957 181.372 356.013 181.572C356.069 181.772 356.109 181.936 356.133 182.064H356.181C356.205 181.936 356.249 181.772 356.313 181.572C356.377 181.364 356.445 181.156 356.517 180.948C356.589 180.732 356.657 180.536 356.721 180.36L358.089 176.568H359.217L356.769 183H355.557ZM362.719 176.448C363.263 176.448 363.735 176.568 364.135 176.808C364.535 177.048 364.839 177.388 365.047 177.828C365.263 178.26 365.371 178.768 365.371 179.352V179.988H360.967C360.983 180.716 361.167 181.272 361.519 181.656C361.879 182.032 362.379 182.22 363.019 182.22C363.427 182.22 363.787 182.184 364.099 182.112C364.419 182.032 364.747 181.92 365.083 181.776V182.7C364.755 182.844 364.431 182.948 364.111 183.012C363.791 183.084 363.411 183.12 362.971 183.12C362.355 183.12 361.815 182.996 361.351 182.748C360.887 182.5 360.523 182.132 360.259 181.644C360.003 181.156 359.875 180.552 359.875 179.832C359.875 179.128 359.991 178.524 360.223 178.02C360.463 177.516 360.795 177.128 361.219 176.856C361.651 176.584 362.151 176.448 362.719 176.448ZM362.707 177.312C362.203 177.312 361.803 177.476 361.507 177.804C361.219 178.124 361.047 178.572 360.991 179.148H364.267C364.259 178.604 364.131 178.164 363.883 177.828C363.635 177.484 363.243 177.312 362.707 177.312ZM372.561 176.46C373.345 176.46 373.925 176.632 374.301 176.976C374.677 177.32 374.865 177.868 374.865 178.62V183H374.097L373.893 182.088H373.845C373.565 182.44 373.269 182.7 372.957 182.868C372.645 183.036 372.221 183.12 371.685 183.12C371.101 183.12 370.617 182.968 370.233 182.664C369.849 182.352 369.657 181.868 369.657 181.212C369.657 180.572 369.909 180.08 370.413 179.736C370.917 179.384 371.693 179.192 372.741 179.16L373.833 179.124V178.74C373.833 178.204 373.717 177.832 373.485 177.624C373.253 177.416 372.925 177.312 372.501 177.312C372.165 177.312 371.845 177.364 371.541 177.468C371.237 177.564 370.953 177.676 370.689 177.804L370.365 177.012C370.645 176.86 370.977 176.732 371.361 176.628C371.745 176.516 372.145 176.46 372.561 176.46ZM373.821 179.856L372.873 179.892C372.073 179.924 371.517 180.052 371.205 180.276C370.901 180.5 370.749 180.816 370.749 181.224C370.749 181.584 370.857 181.848 371.073 182.016C371.297 182.184 371.581 182.268 371.925 182.268C372.461 182.268 372.909 182.12 373.269 181.824C373.637 181.52 373.821 181.056 373.821 180.432V179.856ZM379 182.256C379.16 182.256 379.324 182.244 379.492 182.22C379.66 182.196 379.796 182.164 379.9 182.124V182.928C379.788 182.984 379.628 183.028 379.42 183.06C379.212 183.1 379.012 183.12 378.82 183.12C378.484 183.12 378.172 183.064 377.884 182.952C377.604 182.832 377.376 182.628 377.2 182.34C377.024 182.052 376.936 181.648 376.936 181.128V177.384H376.024V176.88L376.948 176.46L377.368 175.092H377.992V176.568H379.852V177.384H377.992V181.104C377.992 181.496 378.084 181.788 378.268 181.98C378.46 182.164 378.704 182.256 379 182.256ZM385.361 183H384.305V173.88H385.361V183ZM389.883 176.448C390.427 176.448 390.899 176.568 391.299 176.808C391.699 177.048 392.003 177.388 392.211 177.828C392.427 178.26 392.535 178.768 392.535 179.352V179.988H388.131C388.147 180.716 388.331 181.272 388.683 181.656C389.043 182.032 389.543 182.22 390.183 182.22C390.591 182.22 390.951 182.184 391.263 182.112C391.583 182.032 391.911 181.92 392.247 181.776V182.7C391.919 182.844 391.595 182.948 391.275 183.012C390.955 183.084 390.575 183.12 390.135 183.12C389.519 183.12 388.979 182.996 388.515 182.748C388.051 182.5 387.687 182.132 387.423 181.644C387.167 181.156 387.039 180.552 387.039 179.832C387.039 179.128 387.155 178.524 387.387 178.02C387.627 177.516 387.959 177.128 388.383 176.856C388.815 176.584 389.315 176.448 389.883 176.448ZM389.871 177.312C389.367 177.312 388.967 177.476 388.671 177.804C388.383 178.124 388.211 178.572 388.155 179.148H391.431C391.423 178.604 391.295 178.164 391.047 177.828C390.799 177.484 390.407 177.312 389.871 177.312ZM396.608 176.46C397.392 176.46 397.972 176.632 398.348 176.976C398.724 177.32 398.912 177.868 398.912 178.62V183H398.144L397.94 182.088H397.892C397.612 182.44 397.316 182.7 397.004 182.868C396.692 183.036 396.268 183.12 395.732 183.12C395.148 183.12 394.664 182.968 394.28 182.664C393.896 182.352 393.704 181.868 393.704 181.212C393.704 180.572 393.956 180.08 394.46 179.736C394.964 179.384 395.74 179.192 396.788 179.16L397.88 179.124V178.74C397.88 178.204 397.764 177.832 397.532 177.624C397.3 177.416 396.972 177.312 396.548 177.312C396.212 177.312 395.892 177.364 395.588 177.468C395.284 177.564 395 177.676 394.736 177.804L394.412 177.012C394.692 176.86 395.024 176.732 395.408 176.628C395.792 176.516 396.192 176.46 396.608 176.46ZM397.868 179.856L396.92 179.892C396.12 179.924 395.564 180.052 395.252 180.276C394.948 180.5 394.796 180.816 394.796 181.224C394.796 181.584 394.904 181.848 395.12 182.016C395.344 182.184 395.628 182.268 395.972 182.268C396.508 182.268 396.956 182.12 397.316 181.824C397.684 181.52 397.868 181.056 397.868 180.432V179.856ZM405.087 181.224C405.087 181.848 404.855 182.32 404.391 182.64C403.927 182.96 403.303 183.12 402.519 183.12C402.071 183.12 401.683 183.084 401.355 183.012C401.035 182.94 400.751 182.84 400.503 182.712V181.752C400.759 181.88 401.067 182 401.427 182.112C401.795 182.216 402.167 182.268 402.543 182.268C403.079 182.268 403.467 182.184 403.707 182.016C403.947 181.84 404.067 181.608 404.067 181.32C404.067 181.16 404.023 181.016 403.935 180.888C403.847 180.76 403.687 180.632 403.455 180.504C403.231 180.376 402.907 180.232 402.483 180.072C402.067 179.912 401.711 179.752 401.415 179.592C401.119 179.432 400.891 179.24 400.731 179.016C400.571 178.792 400.491 178.504 400.491 178.152C400.491 177.608 400.711 177.188 401.151 176.892C401.599 176.596 402.183 176.448 402.903 176.448C403.295 176.448 403.659 176.488 403.995 176.568C404.339 176.648 404.659 176.752 404.955 176.88L404.595 177.72C404.323 177.608 404.039 177.512 403.743 177.432C403.447 177.352 403.143 177.312 402.831 177.312C402.399 177.312 402.067 177.384 401.835 177.528C401.611 177.664 401.499 177.852 401.499 178.092C401.499 178.276 401.551 178.428 401.655 178.548C401.759 178.668 401.931 178.788 402.171 178.908C402.419 179.028 402.747 179.164 403.155 179.316C403.563 179.468 403.911 179.624 404.199 179.784C404.487 179.944 404.707 180.14 404.859 180.372C405.011 180.596 405.087 180.88 405.087 181.224ZM408.789 182.256C408.949 182.256 409.113 182.244 409.281 182.22C409.449 182.196 409.585 182.164 409.689 182.124V182.928C409.577 182.984 409.417 183.028 409.209 183.06C409.001 183.1 408.801 183.12 408.609 183.12C408.273 183.12 407.961 183.064 407.673 182.952C407.393 182.832 407.165 182.628 406.989 182.34C406.813 182.052 406.725 181.648 406.725 181.128V177.384H405.813V176.88L406.737 176.46L407.157 175.092H407.781V176.568H409.641V177.384H407.781V181.104C407.781 181.496 407.873 181.788 408.057 181.98C408.249 182.164 408.493 182.256 408.789 182.256ZM417.334 183H416.302V177.012C416.302 176.668 416.306 176.392 416.314 176.184C416.322 175.976 416.334 175.76 416.35 175.536C416.222 175.664 416.102 175.772 415.99 175.86C415.886 175.948 415.758 176.06 415.606 176.196L414.694 176.94L414.142 176.232L416.458 174.432H417.334V183ZM427.175 176.448C427.943 176.448 428.523 176.636 428.915 177.012C429.307 177.388 429.503 177.988 429.503 178.812V183H428.459V178.884C428.459 177.852 427.979 177.336 427.019 177.336C426.307 177.336 425.815 177.536 425.543 177.936C425.271 178.336 425.135 178.912 425.135 179.664V183H424.079V176.568H424.931L425.087 177.444H425.147C425.355 177.108 425.643 176.86 426.011 176.7C426.379 176.532 426.767 176.448 427.175 176.448ZM436.873 176.568V183H436.009L435.853 182.148H435.805C435.597 182.484 435.309 182.732 434.941 182.892C434.573 183.044 434.181 183.12 433.765 183.12C432.989 183.12 432.405 182.936 432.013 182.568C431.621 182.192 431.425 181.596 431.425 180.78V176.568H432.493V180.708C432.493 181.732 432.969 182.244 433.921 182.244C434.633 182.244 435.125 182.044 435.397 181.644C435.677 181.244 435.817 180.668 435.817 179.916V176.568H436.873ZM445.971 176.448C446.699 176.448 447.243 176.636 447.603 177.012C447.963 177.388 448.143 177.988 448.143 178.812V183H447.099V178.86C447.099 177.844 446.663 177.336 445.791 177.336C445.167 177.336 444.719 177.516 444.447 177.876C444.183 178.236 444.051 178.76 444.051 179.448V183H443.007V178.86C443.007 177.844 442.567 177.336 441.687 177.336C441.039 177.336 440.591 177.536 440.343 177.936C440.095 178.336 439.971 178.912 439.971 179.664V183H438.915V176.568H439.767L439.923 177.444H439.983C440.183 177.108 440.451 176.86 440.787 176.7C441.131 176.532 441.495 176.448 441.879 176.448C442.887 176.448 443.543 176.808 443.847 177.528H443.907C444.123 177.16 444.415 176.888 444.783 176.712C445.151 176.536 445.547 176.448 445.971 176.448ZM451.185 173.88V176.1C451.185 176.372 451.177 176.628 451.161 176.868C451.153 177.1 451.141 177.284 451.125 177.42H451.185C451.369 177.148 451.621 176.92 451.941 176.736C452.261 176.552 452.673 176.46 453.177 176.46C453.977 176.46 454.617 176.74 455.097 177.3C455.585 177.852 455.829 178.68 455.829 179.784C455.829 180.888 455.585 181.72 455.097 182.28C454.609 182.84 453.969 183.12 453.177 183.12C452.673 183.12 452.261 183.028 451.941 182.844C451.621 182.66 451.369 182.44 451.185 182.184H451.101L450.885 183H450.129V173.88H451.185ZM452.997 177.336C452.309 177.336 451.833 177.532 451.569 177.924C451.313 178.316 451.185 178.924 451.185 179.748V179.796C451.185 180.588 451.313 181.196 451.569 181.62C451.833 182.036 452.317 182.244 453.021 182.244C453.597 182.244 454.025 182.032 454.305 181.608C454.593 181.184 454.737 180.572 454.737 179.772C454.737 178.148 454.157 177.336 452.997 177.336ZM459.996 176.448C460.54 176.448 461.012 176.568 461.412 176.808C461.812 177.048 462.116 177.388 462.324 177.828C462.54 178.26 462.648 178.768 462.648 179.352V179.988H458.244C458.26 180.716 458.444 181.272 458.796 181.656C459.156 182.032 459.656 182.22 460.296 182.22C460.704 182.22 461.064 182.184 461.376 182.112C461.696 182.032 462.024 181.92 462.36 181.776V182.7C462.032 182.844 461.708 182.948 461.388 183.012C461.068 183.084 460.688 183.12 460.248 183.12C459.632 183.12 459.092 182.996 458.628 182.748C458.164 182.5 457.8 182.132 457.536 181.644C457.28 181.156 457.152 180.552 457.152 179.832C457.152 179.128 457.268 178.524 457.5 178.02C457.74 177.516 458.072 177.128 458.496 176.856C458.928 176.584 459.428 176.448 459.996 176.448ZM459.984 177.312C459.48 177.312 459.08 177.476 458.784 177.804C458.496 178.124 458.324 178.572 458.268 179.148H461.544C461.536 178.604 461.408 178.164 461.16 177.828C460.912 177.484 460.52 177.312 459.984 177.312ZM467.286 176.448C467.406 176.448 467.534 176.456 467.67 176.472C467.806 176.48 467.93 176.496 468.042 176.52L467.91 177.492C467.806 177.468 467.69 177.448 467.562 177.432C467.434 177.416 467.318 177.408 467.214 177.408C466.886 177.408 466.578 177.5 466.29 177.684C466.002 177.86 465.77 178.112 465.594 178.44C465.426 178.76 465.342 179.136 465.342 179.568V183H464.286V176.568H465.15L465.27 177.744H465.318C465.518 177.392 465.782 177.088 466.11 176.832C466.446 176.576 466.838 176.448 467.286 176.448ZM477.952 179.772C477.952 180.836 477.68 181.66 477.136 182.244C476.6 182.828 475.872 183.12 474.952 183.12C474.384 183.12 473.876 182.992 473.428 182.736C472.988 182.472 472.64 182.092 472.384 181.596C472.128 181.092 472 180.484 472 179.772C472 178.708 472.264 177.888 472.792 177.312C473.328 176.736 474.06 176.448 474.988 176.448C475.564 176.448 476.076 176.58 476.524 176.844C476.972 177.1 477.32 177.476 477.568 177.972C477.824 178.46 477.952 179.06 477.952 179.772ZM473.092 179.772C473.092 180.532 473.24 181.136 473.536 181.584C473.84 182.024 474.32 182.244 474.976 182.244C475.624 182.244 476.1 182.024 476.404 181.584C476.708 181.136 476.86 180.532 476.86 179.772C476.86 179.012 476.708 178.416 476.404 177.984C476.1 177.552 475.62 177.336 474.964 177.336C474.308 177.336 473.832 177.552 473.536 177.984C473.24 178.416 473.092 179.012 473.092 179.772ZM482.625 176.448C482.745 176.448 482.873 176.456 483.009 176.472C483.145 176.48 483.269 176.496 483.381 176.52L483.249 177.492C483.145 177.468 483.029 177.448 482.901 177.432C482.773 177.416 482.657 177.408 482.553 177.408C482.225 177.408 481.917 177.5 481.629 177.684C481.341 177.86 481.109 178.112 480.933 178.44C480.765 178.76 480.681 179.136 480.681 179.568V183H479.625V176.568H480.489L480.609 177.744H480.657C480.857 177.392 481.121 177.088 481.449 176.832C481.785 176.576 482.177 176.448 482.625 176.448ZM491.888 181.224C491.888 181.848 491.656 182.32 491.192 182.64C490.728 182.96 490.104 183.12 489.32 183.12C488.872 183.12 488.484 183.084 488.156 183.012C487.836 182.94 487.552 182.84 487.304 182.712V181.752C487.56 181.88 487.868 182 488.228 182.112C488.596 182.216 488.968 182.268 489.344 182.268C489.88 182.268 490.268 182.184 490.508 182.016C490.748 181.84 490.868 181.608 490.868 181.32C490.868 181.16 490.824 181.016 490.736 180.888C490.648 180.76 490.488 180.632 490.256 180.504C490.032 180.376 489.708 180.232 489.284 180.072C488.868 179.912 488.512 179.752 488.216 179.592C487.92 179.432 487.692 179.24 487.532 179.016C487.372 178.792 487.292 178.504 487.292 178.152C487.292 177.608 487.512 177.188 487.952 176.892C488.4 176.596 488.984 176.448 489.704 176.448C490.096 176.448 490.46 176.488 490.796 176.568C491.14 176.648 491.46 176.752 491.756 176.88L491.396 177.72C491.124 177.608 490.84 177.512 490.544 177.432C490.248 177.352 489.944 177.312 489.632 177.312C489.2 177.312 488.868 177.384 488.636 177.528C488.412 177.664 488.3 177.852 488.3 178.092C488.3 178.276 488.352 178.428 488.456 178.548C488.56 178.668 488.732 178.788 488.972 178.908C489.22 179.028 489.548 179.164 489.956 179.316C490.364 179.468 490.712 179.624 491 179.784C491.288 179.944 491.508 180.14 491.66 180.372C491.812 180.596 491.888 180.88 491.888 181.224ZM492.434 176.568H493.562L494.954 180.228C495.074 180.556 495.182 180.864 495.278 181.152C495.374 181.44 495.446 181.716 495.494 181.98H495.542C495.59 181.78 495.666 181.52 495.77 181.2C495.874 180.872 495.982 180.544 496.094 180.216L497.402 176.568H498.542L495.77 183.888C495.538 184.496 495.246 184.98 494.894 185.34C494.542 185.7 494.054 185.88 493.43 185.88C493.238 185.88 493.07 185.868 492.926 185.844C492.782 185.828 492.658 185.808 492.554 185.784V184.944C492.642 184.96 492.746 184.976 492.866 184.992C492.994 185.008 493.126 185.016 493.262 185.016C493.63 185.016 493.926 184.912 494.15 184.704C494.374 184.496 494.554 184.22 494.69 183.876L495.026 183.024L492.434 176.568ZM506.615 176.448C507.343 176.448 507.887 176.636 508.247 177.012C508.607 177.388 508.787 177.988 508.787 178.812V183H507.743V178.86C507.743 177.844 507.307 177.336 506.435 177.336C505.811 177.336 505.363 177.516 505.091 177.876C504.827 178.236 504.695 178.76 504.695 179.448V183H503.651V178.86C503.651 177.844 503.211 177.336 502.331 177.336C501.683 177.336 501.235 177.536 500.987 177.936C500.739 178.336 500.615 178.912 500.615 179.664V183H499.559V176.568H500.411L500.567 177.444H500.627C500.827 177.108 501.095 176.86 501.431 176.7C501.775 176.532 502.139 176.448 502.523 176.448C503.531 176.448 504.187 176.808 504.491 177.528H504.551C504.767 177.16 505.059 176.888 505.427 176.712C505.795 176.536 506.191 176.448 506.615 176.448ZM511.83 173.88V176.1C511.83 176.372 511.822 176.628 511.806 176.868C511.798 177.1 511.786 177.284 511.77 177.42H511.83C512.014 177.148 512.266 176.92 512.586 176.736C512.906 176.552 513.318 176.46 513.822 176.46C514.622 176.46 515.262 176.74 515.742 177.3C516.23 177.852 516.474 178.68 516.474 179.784C516.474 180.888 516.23 181.72 515.742 182.28C515.254 182.84 514.614 183.12 513.822 183.12C513.318 183.12 512.906 183.028 512.586 182.844C512.266 182.66 512.014 182.44 511.83 182.184H511.746L511.53 183H510.774V173.88H511.83ZM513.642 177.336C512.954 177.336 512.478 177.532 512.214 177.924C511.958 178.316 511.83 178.924 511.83 179.748V179.796C511.83 180.588 511.958 181.196 512.214 181.62C512.478 182.036 512.962 182.244 513.666 182.244C514.242 182.244 514.67 182.032 514.95 181.608C515.238 181.184 515.382 180.572 515.382 179.772C515.382 178.148 514.802 177.336 513.642 177.336ZM523.749 179.772C523.749 180.836 523.477 181.66 522.933 182.244C522.397 182.828 521.669 183.12 520.749 183.12C520.181 183.12 519.673 182.992 519.225 182.736C518.785 182.472 518.437 182.092 518.181 181.596C517.925 181.092 517.797 180.484 517.797 179.772C517.797 178.708 518.061 177.888 518.589 177.312C519.125 176.736 519.857 176.448 520.785 176.448C521.361 176.448 521.873 176.58 522.321 176.844C522.769 177.1 523.117 177.476 523.365 177.972C523.621 178.46 523.749 179.06 523.749 179.772ZM518.889 179.772C518.889 180.532 519.037 181.136 519.333 181.584C519.637 182.024 520.117 182.244 520.773 182.244C521.421 182.244 521.897 182.024 522.201 181.584C522.505 181.136 522.657 180.532 522.657 179.772C522.657 179.012 522.505 178.416 522.201 177.984C521.897 177.552 521.417 177.336 520.761 177.336C520.105 177.336 519.629 177.552 519.333 177.984C519.037 178.416 518.889 179.012 518.889 179.772ZM526.478 183H525.422V173.88H526.478V183Z" fill="black"/>
<path d="M342.444 207L339.624 199.488H339.576C339.6 199.736 339.62 200.072 339.636 200.496C339.652 200.912 339.66 201.348 339.66 201.804V207H338.664V198.432H340.26L342.9 205.452H342.948L345.636 198.432H347.22V207H346.152V201.732C346.152 201.316 346.16 200.904 346.176 200.496C346.2 200.088 346.22 199.756 346.236 199.5H346.188L343.332 207H342.444ZM354.783 200.568V207H353.919L353.763 206.148H353.715C353.507 206.484 353.219 206.732 352.851 206.892C352.483 207.044 352.091 207.12 351.675 207.12C350.899 207.12 350.315 206.936 349.923 206.568C349.531 206.192 349.335 205.596 349.335 204.78V200.568H350.403V204.708C350.403 205.732 350.879 206.244 351.831 206.244C352.543 206.244 353.035 206.044 353.307 205.644C353.587 205.244 353.727 204.668 353.727 203.916V200.568H354.783ZM361.013 205.224C361.013 205.848 360.781 206.32 360.317 206.64C359.853 206.96 359.229 207.12 358.445 207.12C357.997 207.12 357.609 207.084 357.281 207.012C356.961 206.94 356.677 206.84 356.429 206.712V205.752C356.685 205.88 356.993 206 357.353 206.112C357.721 206.216 358.093 206.268 358.469 206.268C359.005 206.268 359.393 206.184 359.633 206.016C359.873 205.84 359.993 205.608 359.993 205.32C359.993 205.16 359.949 205.016 359.861 204.888C359.773 204.76 359.613 204.632 359.381 204.504C359.157 204.376 358.833 204.232 358.409 204.072C357.993 203.912 357.637 203.752 357.341 203.592C357.045 203.432 356.817 203.24 356.657 203.016C356.497 202.792 356.417 202.504 356.417 202.152C356.417 201.608 356.637 201.188 357.077 200.892C357.525 200.596 358.109 200.448 358.829 200.448C359.221 200.448 359.585 200.488 359.921 200.568C360.265 200.648 360.585 200.752 360.881 200.88L360.521 201.72C360.249 201.608 359.965 201.512 359.669 201.432C359.373 201.352 359.069 201.312 358.757 201.312C358.325 201.312 357.993 201.384 357.761 201.528C357.537 201.664 357.425 201.852 357.425 202.092C357.425 202.276 357.477 202.428 357.581 202.548C357.685 202.668 357.857 202.788 358.097 202.908C358.345 203.028 358.673 203.164 359.081 203.316C359.489 203.468 359.837 203.624 360.125 203.784C360.413 203.944 360.633 204.14 360.785 204.372C360.937 204.596 361.013 204.88 361.013 205.224ZM364.715 206.256C364.875 206.256 365.039 206.244 365.207 206.22C365.375 206.196 365.511 206.164 365.615 206.124V206.928C365.503 206.984 365.343 207.028 365.135 207.06C364.927 207.1 364.727 207.12 364.535 207.12C364.199 207.12 363.887 207.064 363.599 206.952C363.319 206.832 363.091 206.628 362.915 206.34C362.739 206.052 362.651 205.648 362.651 205.128V201.384H361.739V200.88L362.663 200.46L363.083 199.092H363.707V200.568H365.567V201.384H363.707V205.104C363.707 205.496 363.799 205.788 363.983 205.98C364.175 206.164 364.419 206.256 364.715 206.256ZM371.076 197.88V200.1C371.076 200.372 371.068 200.628 371.052 200.868C371.044 201.1 371.032 201.284 371.016 201.42H371.076C371.26 201.148 371.512 200.92 371.832 200.736C372.152 200.552 372.564 200.46 373.068 200.46C373.868 200.46 374.508 200.74 374.988 201.3C375.476 201.852 375.72 202.68 375.72 203.784C375.72 204.888 375.476 205.72 374.988 206.28C374.5 206.84 373.86 207.12 373.068 207.12C372.564 207.12 372.152 207.028 371.832 206.844C371.512 206.66 371.26 206.44 371.076 206.184H370.992L370.776 207H370.02V197.88H371.076ZM372.888 201.336C372.2 201.336 371.724 201.532 371.46 201.924C371.204 202.316 371.076 202.924 371.076 203.748V203.796C371.076 204.588 371.204 205.196 371.46 205.62C371.724 206.036 372.208 206.244 372.912 206.244C373.488 206.244 373.916 206.032 374.196 205.608C374.484 205.184 374.628 204.572 374.628 203.772C374.628 202.148 374.048 201.336 372.888 201.336ZM379.887 200.448C380.431 200.448 380.903 200.568 381.303 200.808C381.703 201.048 382.007 201.388 382.215 201.828C382.431 202.26 382.539 202.768 382.539 203.352V203.988H378.135C378.151 204.716 378.335 205.272 378.687 205.656C379.047 206.032 379.547 206.22 380.187 206.22C380.595 206.22 380.955 206.184 381.267 206.112C381.587 206.032 381.915 205.92 382.251 205.776V206.7C381.923 206.844 381.599 206.948 381.279 207.012C380.959 207.084 380.579 207.12 380.139 207.12C379.523 207.12 378.983 206.996 378.519 206.748C378.055 206.5 377.691 206.132 377.427 205.644C377.171 205.156 377.043 204.552 377.043 203.832C377.043 203.128 377.159 202.524 377.391 202.02C377.631 201.516 377.963 201.128 378.387 200.856C378.819 200.584 379.319 200.448 379.887 200.448ZM379.875 201.312C379.371 201.312 378.971 201.476 378.675 201.804C378.387 202.124 378.215 202.572 378.159 203.148H381.435C381.427 202.604 381.299 202.164 381.051 201.828C380.803 201.484 380.411 201.312 379.875 201.312ZM389.729 200.46C390.513 200.46 391.093 200.632 391.469 200.976C391.845 201.32 392.033 201.868 392.033 202.62V207H391.265L391.061 206.088H391.013C390.733 206.44 390.437 206.7 390.125 206.868C389.813 207.036 389.389 207.12 388.853 207.12C388.269 207.12 387.785 206.968 387.401 206.664C387.017 206.352 386.825 205.868 386.825 205.212C386.825 204.572 387.077 204.08 387.581 203.736C388.085 203.384 388.861 203.192 389.909 203.16L391.001 203.124V202.74C391.001 202.204 390.885 201.832 390.653 201.624C390.421 201.416 390.093 201.312 389.669 201.312C389.333 201.312 389.013 201.364 388.709 201.468C388.405 201.564 388.121 201.676 387.857 201.804L387.533 201.012C387.813 200.86 388.145 200.732 388.529 200.628C388.913 200.516 389.313 200.46 389.729 200.46ZM390.989 203.856L390.041 203.892C389.241 203.924 388.685 204.052 388.373 204.276C388.069 204.5 387.917 204.816 387.917 205.224C387.917 205.584 388.025 205.848 388.241 206.016C388.465 206.184 388.749 206.268 389.093 206.268C389.629 206.268 390.077 206.12 390.437 205.824C390.805 205.52 390.989 205.056 390.989 204.432V203.856ZM396.168 206.256C396.328 206.256 396.492 206.244 396.66 206.22C396.828 206.196 396.964 206.164 397.068 206.124V206.928C396.956 206.984 396.796 207.028 396.588 207.06C396.38 207.1 396.18 207.12 395.988 207.12C395.652 207.12 395.34 207.064 395.052 206.952C394.772 206.832 394.544 206.628 394.368 206.34C394.192 206.052 394.104 205.648 394.104 205.128V201.384H393.192V200.88L394.116 200.46L394.536 199.092H395.16V200.568H397.02V201.384H395.16V205.104C395.16 205.496 395.252 205.788 395.436 205.98C395.628 206.164 395.872 206.256 396.168 206.256ZM402.529 207H401.473V197.88H402.529V207ZM407.051 200.448C407.595 200.448 408.067 200.568 408.467 200.808C408.867 201.048 409.171 201.388 409.379 201.828C409.595 202.26 409.703 202.768 409.703 203.352V203.988H405.299C405.315 204.716 405.499 205.272 405.851 205.656C406.211 206.032 406.711 206.22 407.351 206.22C407.759 206.22 408.119 206.184 408.431 206.112C408.751 206.032 409.079 205.92 409.415 205.776V206.7C409.087 206.844 408.763 206.948 408.443 207.012C408.123 207.084 407.743 207.12 407.303 207.12C406.687 207.12 406.147 206.996 405.683 206.748C405.219 206.5 404.855 206.132 404.591 205.644C404.335 205.156 404.207 204.552 404.207 203.832C404.207 203.128 404.323 202.524 404.555 202.02C404.795 201.516 405.127 201.128 405.551 200.856C405.983 200.584 406.483 200.448 407.051 200.448ZM407.039 201.312C406.535 201.312 406.135 201.476 405.839 201.804C405.551 202.124 405.379 202.572 405.323 203.148H408.599C408.591 202.604 408.463 202.164 408.215 201.828C407.967 201.484 407.575 201.312 407.039 201.312ZM413.776 200.46C414.56 200.46 415.14 200.632 415.516 200.976C415.892 201.32 416.08 201.868 416.08 202.62V207H415.312L415.108 206.088H415.06C414.78 206.44 414.484 206.7 414.172 206.868C413.86 207.036 413.436 207.12 412.9 207.12C412.316 207.12 411.832 206.968 411.448 206.664C411.064 206.352 410.872 205.868 410.872 205.212C410.872 204.572 411.124 204.08 411.628 203.736C412.132 203.384 412.908 203.192 413.956 203.16L415.048 203.124V202.74C415.048 202.204 414.932 201.832 414.7 201.624C414.468 201.416 414.14 201.312 413.716 201.312C413.38 201.312 413.06 201.364 412.756 201.468C412.452 201.564 412.168 201.676 411.904 201.804L411.58 201.012C411.86 200.86 412.192 200.732 412.576 200.628C412.96 200.516 413.36 200.46 413.776 200.46ZM415.036 203.856L414.088 203.892C413.288 203.924 412.732 204.052 412.42 204.276C412.116 204.5 411.964 204.816 411.964 205.224C411.964 205.584 412.072 205.848 412.288 206.016C412.512 206.184 412.796 206.268 413.14 206.268C413.676 206.268 414.124 206.12 414.484 205.824C414.852 205.52 415.036 205.056 415.036 204.432V203.856ZM422.255 205.224C422.255 205.848 422.023 206.32 421.559 206.64C421.095 206.96 420.471 207.12 419.687 207.12C419.239 207.12 418.851 207.084 418.523 207.012C418.203 206.94 417.919 206.84 417.671 206.712V205.752C417.927 205.88 418.235 206 418.595 206.112C418.963 206.216 419.335 206.268 419.711 206.268C420.247 206.268 420.635 206.184 420.875 206.016C421.115 205.84 421.235 205.608 421.235 205.32C421.235 205.16 421.191 205.016 421.103 204.888C421.015 204.76 420.855 204.632 420.623 204.504C420.399 204.376 420.075 204.232 419.651 204.072C419.235 203.912 418.879 203.752 418.583 203.592C418.287 203.432 418.059 203.24 417.899 203.016C417.739 202.792 417.659 202.504 417.659 202.152C417.659 201.608 417.879 201.188 418.319 200.892C418.767 200.596 419.351 200.448 420.071 200.448C420.463 200.448 420.827 200.488 421.163 200.568C421.507 200.648 421.827 200.752 422.123 200.88L421.763 201.72C421.491 201.608 421.207 201.512 420.911 201.432C420.615 201.352 420.311 201.312 419.999 201.312C419.567 201.312 419.235 201.384 419.003 201.528C418.779 201.664 418.667 201.852 418.667 202.092C418.667 202.276 418.719 202.428 418.823 202.548C418.927 202.668 419.099 202.788 419.339 202.908C419.587 203.028 419.915 203.164 420.323 203.316C420.731 203.468 421.079 203.624 421.367 203.784C421.655 203.944 421.875 204.14 422.027 204.372C422.179 204.596 422.255 204.88 422.255 205.224ZM425.957 206.256C426.117 206.256 426.281 206.244 426.449 206.22C426.617 206.196 426.753 206.164 426.857 206.124V206.928C426.745 206.984 426.585 207.028 426.377 207.06C426.169 207.1 425.969 207.12 425.777 207.12C425.441 207.12 425.129 207.064 424.841 206.952C424.561 206.832 424.333 206.628 424.157 206.34C423.981 206.052 423.893 205.648 423.893 205.128V201.384H422.981V200.88L423.905 200.46L424.325 199.092H424.949V200.568H426.809V201.384H424.949V205.104C424.949 205.496 425.041 205.788 425.225 205.98C425.417 206.164 425.661 206.256 425.957 206.256ZM433.662 198.312C434.414 198.312 435.03 198.488 435.51 198.84C435.99 199.192 436.23 199.7 436.23 200.364C436.23 200.708 436.154 201.008 436.002 201.264C435.858 201.52 435.662 201.748 435.414 201.948C435.166 202.14 434.894 202.312 434.598 202.464C434.95 202.64 435.27 202.832 435.558 203.04C435.846 203.248 436.074 203.492 436.242 203.772C436.418 204.052 436.506 204.388 436.506 204.78C436.506 205.5 436.25 206.072 435.738 206.496C435.226 206.912 434.546 207.12 433.698 207.12C432.77 207.12 432.058 206.92 431.562 206.52C431.074 206.112 430.83 205.544 430.83 204.816C430.83 204.432 430.91 204.096 431.07 203.808C431.238 203.512 431.458 203.26 431.73 203.052C432.002 202.844 432.294 202.668 432.606 202.524C432.182 202.284 431.826 201.996 431.538 201.66C431.25 201.316 431.106 200.88 431.106 200.352C431.106 199.92 431.218 199.552 431.442 199.248C431.666 198.944 431.97 198.712 432.354 198.552C432.738 198.392 433.174 198.312 433.662 198.312ZM433.65 199.164C433.202 199.164 432.838 199.272 432.558 199.488C432.278 199.696 432.138 200 432.138 200.4C432.138 200.696 432.206 200.944 432.342 201.144C432.486 201.344 432.678 201.516 432.918 201.66C433.158 201.796 433.422 201.928 433.71 202.056C434.126 201.88 434.474 201.668 434.754 201.42C435.042 201.172 435.186 200.832 435.186 200.4C435.186 200 435.046 199.696 434.766 199.488C434.486 199.272 434.114 199.164 433.65 199.164ZM431.862 204.828C431.862 205.244 432.01 205.592 432.306 205.872C432.602 206.144 433.058 206.28 433.674 206.28C434.258 206.28 434.702 206.144 435.006 205.872C435.318 205.592 435.474 205.232 435.474 204.792C435.474 204.376 435.31 204.032 434.982 203.76C434.654 203.48 434.218 203.236 433.674 203.028L433.482 202.956C432.954 203.188 432.55 203.448 432.27 203.736C431.998 204.024 431.862 204.388 431.862 204.828ZM443.827 207.12C443.251 207.12 442.743 207.004 442.303 206.772C441.863 206.54 441.515 206.18 441.259 205.692C441.011 205.204 440.887 204.58 440.887 203.82C440.887 203.028 441.015 202.384 441.271 201.888C441.535 201.392 441.895 201.028 442.351 200.796C442.807 200.564 443.323 200.448 443.899 200.448C444.219 200.448 444.531 200.484 444.835 200.556C445.147 200.62 445.399 200.7 445.591 200.796L445.267 201.672C445.075 201.6 444.851 201.532 444.595 201.468C444.339 201.404 444.099 201.372 443.875 201.372C442.611 201.372 441.979 202.184 441.979 203.808C441.979 204.584 442.131 205.18 442.435 205.596C442.747 206.004 443.207 206.208 443.815 206.208C444.159 206.208 444.467 206.172 444.739 206.1C445.011 206.028 445.259 205.94 445.483 205.836V206.772C445.267 206.884 445.027 206.968 444.763 207.024C444.507 207.088 444.195 207.12 443.827 207.12ZM448.068 197.88V200.556C448.068 200.876 448.048 201.176 448.008 201.456H448.08C448.288 201.128 448.568 200.88 448.92 200.712C449.28 200.544 449.668 200.46 450.084 200.46C450.86 200.46 451.444 200.648 451.836 201.024C452.236 201.392 452.436 201.988 452.436 202.812V207H451.392V202.884C451.392 201.852 450.912 201.336 449.952 201.336C449.232 201.336 448.736 201.54 448.464 201.948C448.2 202.348 448.068 202.924 448.068 203.676V207H447.012V197.88H448.068ZM456.866 200.46C457.65 200.46 458.23 200.632 458.606 200.976C458.982 201.32 459.17 201.868 459.17 202.62V207H458.402L458.198 206.088H458.15C457.87 206.44 457.574 206.7 457.262 206.868C456.95 207.036 456.526 207.12 455.99 207.12C455.406 207.12 454.922 206.968 454.538 206.664C454.154 206.352 453.962 205.868 453.962 205.212C453.962 204.572 454.214 204.08 454.718 203.736C455.222 203.384 455.998 203.192 457.046 203.16L458.138 203.124V202.74C458.138 202.204 458.022 201.832 457.79 201.624C457.558 201.416 457.23 201.312 456.806 201.312C456.47 201.312 456.15 201.364 455.846 201.468C455.542 201.564 455.258 201.676 454.994 201.804L454.67 201.012C454.95 200.86 455.282 200.732 455.666 200.628C456.05 200.516 456.45 200.46 456.866 200.46ZM458.126 203.856L457.178 203.892C456.378 203.924 455.822 204.052 455.51 204.276C455.206 204.5 455.054 204.816 455.054 205.224C455.054 205.584 455.162 205.848 455.378 206.016C455.602 206.184 455.886 206.268 456.23 206.268C456.766 206.268 457.214 206.12 457.574 205.824C457.942 205.52 458.126 205.056 458.126 204.432V203.856ZM464.157 200.448C464.277 200.448 464.405 200.456 464.541 200.472C464.677 200.48 464.801 200.496 464.913 200.52L464.781 201.492C464.677 201.468 464.561 201.448 464.433 201.432C464.305 201.416 464.189 201.408 464.085 201.408C463.757 201.408 463.449 201.5 463.161 201.684C462.873 201.86 462.641 202.112 462.465 202.44C462.297 202.76 462.213 203.136 462.213 203.568V207H461.157V200.568H462.021L462.141 201.744H462.189C462.389 201.392 462.653 201.088 462.981 200.832C463.317 200.576 463.709 200.448 464.157 200.448ZM468.315 200.46C469.099 200.46 469.679 200.632 470.055 200.976C470.431 201.32 470.619 201.868 470.619 202.62V207H469.851L469.647 206.088H469.599C469.319 206.44 469.023 206.7 468.711 206.868C468.399 207.036 467.975 207.12 467.439 207.12C466.855 207.12 466.371 206.968 465.987 206.664C465.603 206.352 465.411 205.868 465.411 205.212C465.411 204.572 465.663 204.08 466.167 203.736C466.671 203.384 467.447 203.192 468.495 203.16L469.587 203.124V202.74C469.587 202.204 469.471 201.832 469.239 201.624C469.007 201.416 468.679 201.312 468.255 201.312C467.919 201.312 467.599 201.364 467.295 201.468C466.991 201.564 466.707 201.676 466.443 201.804L466.119 201.012C466.399 200.86 466.731 200.732 467.115 200.628C467.499 200.516 467.899 200.46 468.315 200.46ZM469.575 203.856L468.627 203.892C467.827 203.924 467.271 204.052 466.959 204.276C466.655 204.5 466.503 204.816 466.503 205.224C466.503 205.584 466.611 205.848 466.827 206.016C467.051 206.184 467.335 206.268 467.679 206.268C468.215 206.268 468.663 206.12 469.023 205.824C469.391 205.52 469.575 205.056 469.575 204.432V203.856ZM475.186 207.12C474.61 207.12 474.102 207.004 473.662 206.772C473.222 206.54 472.874 206.18 472.618 205.692C472.37 205.204 472.246 204.58 472.246 203.82C472.246 203.028 472.374 202.384 472.63 201.888C472.894 201.392 473.254 201.028 473.71 200.796C474.166 200.564 474.682 200.448 475.258 200.448C475.578 200.448 475.89 200.484 476.194 200.556C476.506 200.62 476.758 200.7 476.95 200.796L476.626 201.672C476.434 201.6 476.21 201.532 475.954 201.468C475.698 201.404 475.458 201.372 475.234 201.372C473.97 201.372 473.338 202.184 473.338 203.808C473.338 204.584 473.49 205.18 473.794 205.596C474.106 206.004 474.566 206.208 475.174 206.208C475.518 206.208 475.826 206.172 476.098 206.1C476.37 206.028 476.618 205.94 476.842 205.836V206.772C476.626 206.884 476.386 206.968 476.122 207.024C475.866 207.088 475.554 207.12 475.186 207.12ZM480.52 206.256C480.68 206.256 480.844 206.244 481.012 206.22C481.18 206.196 481.316 206.164 481.42 206.124V206.928C481.308 206.984 481.148 207.028 480.94 207.06C480.732 207.1 480.532 207.12 480.34 207.12C480.004 207.12 479.692 207.064 479.404 206.952C479.124 206.832 478.896 206.628 478.72 206.34C478.544 206.052 478.456 205.648 478.456 205.128V201.384H477.544V200.88L478.468 200.46L478.888 199.092H479.512V200.568H481.372V201.384H479.512V205.104C479.512 205.496 479.604 205.788 479.788 205.98C479.98 206.164 480.224 206.256 480.52 206.256ZM485.192 200.448C485.736 200.448 486.208 200.568 486.608 200.808C487.008 201.048 487.312 201.388 487.52 201.828C487.736 202.26 487.844 202.768 487.844 203.352V203.988H483.44C483.456 204.716 483.64 205.272 483.992 205.656C484.352 206.032 484.852 206.22 485.492 206.22C485.9 206.22 486.26 206.184 486.572 206.112C486.892 206.032 487.22 205.92 487.556 205.776V206.7C487.228 206.844 486.904 206.948 486.584 207.012C486.264 207.084 485.884 207.12 485.444 207.12C484.828 207.12 484.288 206.996 483.824 206.748C483.36 206.5 482.996 206.132 482.732 205.644C482.476 205.156 482.348 204.552 482.348 203.832C482.348 203.128 482.464 202.524 482.696 202.02C482.936 201.516 483.268 201.128 483.692 200.856C484.124 200.584 484.624 200.448 485.192 200.448ZM485.18 201.312C484.676 201.312 484.276 201.476 483.98 201.804C483.692 202.124 483.52 202.572 483.464 203.148H486.74C486.732 202.604 486.604 202.164 486.356 201.828C486.108 201.484 485.716 201.312 485.18 201.312ZM492.481 200.448C492.601 200.448 492.729 200.456 492.865 200.472C493.001 200.48 493.125 200.496 493.237 200.52L493.105 201.492C493.001 201.468 492.885 201.448 492.757 201.432C492.629 201.416 492.513 201.408 492.409 201.408C492.081 201.408 491.773 201.5 491.485 201.684C491.197 201.86 490.965 202.112 490.789 202.44C490.621 202.76 490.537 203.136 490.537 203.568V207H489.481V200.568H490.345L490.465 201.744H490.513C490.713 201.392 490.977 201.088 491.305 200.832C491.641 200.576 492.033 200.448 492.481 200.448ZM498.626 205.224C498.626 205.848 498.394 206.32 497.93 206.64C497.466 206.96 496.842 207.12 496.058 207.12C495.61 207.12 495.222 207.084 494.894 207.012C494.574 206.94 494.29 206.84 494.042 206.712V205.752C494.298 205.88 494.606 206 494.966 206.112C495.334 206.216 495.706 206.268 496.082 206.268C496.618 206.268 497.006 206.184 497.246 206.016C497.486 205.84 497.606 205.608 497.606 205.32C497.606 205.16 497.562 205.016 497.474 204.888C497.386 204.76 497.226 204.632 496.994 204.504C496.77 204.376 496.446 204.232 496.022 204.072C495.606 203.912 495.25 203.752 494.954 203.592C494.658 203.432 494.43 203.24 494.27 203.016C494.11 202.792 494.03 202.504 494.03 202.152C494.03 201.608 494.25 201.188 494.69 200.892C495.138 200.596 495.722 200.448 496.442 200.448C496.834 200.448 497.198 200.488 497.534 200.568C497.878 200.648 498.198 200.752 498.494 200.88L498.134 201.72C497.862 201.608 497.578 201.512 497.282 201.432C496.986 201.352 496.682 201.312 496.37 201.312C495.938 201.312 495.606 201.384 495.374 201.528C495.15 201.664 495.038 201.852 495.038 202.092C495.038 202.276 495.09 202.428 495.194 202.548C495.298 202.668 495.47 202.788 495.71 202.908C495.958 203.028 496.286 203.164 496.694 203.316C497.102 203.468 497.45 203.624 497.738 203.784C498.026 203.944 498.246 204.14 498.398 204.372C498.55 204.596 498.626 204.88 498.626 205.224Z" fill="black"/>
<path d="M322.013 154.012L325.363 150.662C325.513 150.512 325.513 150.263 325.363 150.113C325.213 149.962 324.963 149.962 324.813 150.113L321.513 153.463L318.163 150.113C318.013 149.962 317.763 149.962 317.613 150.113C317.462 150.263 317.462 150.512 317.613 150.662L320.963 154.012L317.613 157.362C317.462 157.512 317.462 157.762 317.613 157.912C317.663 157.962 317.763 158.012 317.863 158.012C317.963 158.012 318.063 157.962 318.113 157.912L321.513 154.512L324.863 157.862C324.913 157.912 325.013 157.962 325.113 157.962C325.213 157.962 325.313 157.912 325.363 157.862C325.513 157.712 325.513 157.463 325.363 157.312L322.013 154.012Z" fill="black"/>
<path d="M322.013 178.012L325.363 174.662C325.513 174.512 325.513 174.263 325.363 174.113C325.213 173.962 324.963 173.962 324.813 174.113L321.513 177.463L318.163 174.113C318.013 173.962 317.763 173.962 317.613 174.113C317.462 174.263 317.462 174.512 317.613 174.662L320.963 178.012L317.613 181.362C317.462 181.512 317.462 181.762 317.613 181.912C317.663 181.962 317.763 182.012 317.863 182.012C317.963 182.012 318.063 181.962 318.113 181.912L321.513 178.512L324.863 181.862C324.913 181.912 325.013 181.962 325.113 181.962C325.213 181.962 325.313 181.912 325.363 181.862C325.513 181.712 325.513 181.463 325.363 181.312L322.013 178.012Z" fill="black"/>
<path d="M322.013 202.012L325.363 198.662C325.513 198.512 325.513 198.263 325.363 198.113C325.213 197.962 324.963 197.962 324.813 198.113L321.513 201.463L318.163 198.113C318.013 197.962 317.763 197.962 317.613 198.113C317.462 198.263 317.462 198.512 317.613 198.662L320.963 202.012L317.613 205.362C317.462 205.512 317.462 205.762 317.613 205.912C317.663 205.962 317.763 206.012 317.863 206.012C317.963 206.012 318.063 205.962 318.113 205.912L321.513 202.512L324.863 205.862C324.913 205.912 325.013 205.962 325.113 205.962C325.213 205.962 325.313 205.912 325.363 205.862C325.513 205.712 325.513 205.463 325.363 205.312L322.013 202.012Z" fill="black"/>
<path d="M378.5 219V245" stroke="#D51588"/>
<circle cx="378.5" cy="257" r="12" fill="#D51588"/>
<path d="M375.596 257.744C375.596 257.165 375.633 256.596 375.708 256.036C375.792 255.476 375.937 254.949 376.142 254.454C376.347 253.95 376.632 253.507 376.996 253.124C377.36 252.732 377.822 252.429 378.382 252.214C378.951 251.99 379.637 251.878 380.44 251.878C380.636 251.878 380.86 251.887 381.112 251.906C381.364 251.925 381.574 251.953 381.742 251.99V253.446C381.378 253.343 380.977 253.292 380.538 253.292C379.698 253.292 379.045 253.446 378.578 253.754C378.111 254.053 377.785 254.468 377.598 255C377.411 255.523 377.299 256.111 377.262 256.764H377.346C377.542 256.437 377.822 256.162 378.186 255.938C378.55 255.705 379.021 255.588 379.6 255.588C380.468 255.588 381.163 255.859 381.686 256.4C382.209 256.941 382.47 257.711 382.47 258.71C382.47 259.783 382.171 260.623 381.574 261.23C380.977 261.837 380.169 262.14 379.152 262.14C378.489 262.14 377.887 261.981 377.346 261.664C376.814 261.347 376.389 260.866 376.072 260.222C375.755 259.569 375.596 258.743 375.596 257.744ZM379.124 260.698C379.6 260.698 379.987 260.539 380.286 260.222C380.585 259.895 380.734 259.396 380.734 258.724C380.734 258.183 380.603 257.758 380.342 257.45C380.081 257.133 379.689 256.974 379.166 256.974C378.802 256.974 378.485 257.053 378.214 257.212C377.953 257.361 377.747 257.557 377.598 257.8C377.449 258.033 377.374 258.276 377.374 258.528C377.374 258.873 377.439 259.214 377.57 259.55C377.701 259.877 377.892 260.152 378.144 260.376C378.405 260.591 378.732 260.698 379.124 260.698Z" fill="white"/>
</svg>
