<svg width="412" height="200" viewBox="0 0 412 200" fill="none" xmlns="http://www.w3.org/2000/svg">
<rect width="412" height="200" fill="white"/>
<path d="M62.024 82.708C62.024 83.468 61.748 84.06 61.196 84.484C60.644 84.908 59.9 85.12 58.964 85.12C58.484 85.12 58.04 85.084 57.632 85.012C57.224 84.94 56.884 84.84 56.612 84.712V83.68C56.9 83.808 57.256 83.924 57.68 84.028C58.112 84.132 58.556 84.184 59.012 84.184C59.644 84.184 60.124 84.06 60.452 83.812C60.78 83.564 60.944 83.228 60.944 82.804C60.944 82.524 60.884 82.288 60.764 82.096C60.644 81.904 60.436 81.728 60.14 81.568C59.844 81.408 59.44 81.232 58.928 81.04C58.192 80.776 57.64 80.452 57.272 80.068C56.904 79.684 56.72 79.16 56.72 78.496C56.72 78.048 56.836 77.66 57.068 77.332C57.3 77.004 57.62 76.752 58.028 76.576C58.436 76.4 58.912 76.312 59.456 76.312C59.92 76.312 60.348 76.356 60.74 76.444C61.132 76.532 61.492 76.648 61.82 76.792L61.484 77.716C61.188 77.588 60.864 77.48 60.512 77.392C60.16 77.304 59.8 77.26 59.432 77.26C58.896 77.26 58.492 77.376 58.22 77.608C57.948 77.832 57.812 78.132 57.812 78.508C57.812 78.796 57.872 79.036 57.992 79.228C58.112 79.42 58.308 79.596 58.58 79.756C58.852 79.908 59.22 80.068 59.684 80.236C60.188 80.42 60.612 80.62 60.956 80.836C61.308 81.044 61.572 81.296 61.748 81.592C61.932 81.888 62.024 82.26 62.024 82.708ZM66.0899 78.448C66.6339 78.448 67.1059 78.568 67.5059 78.808C67.9059 79.048 68.2099 79.388 68.4179 79.828C68.6339 80.26 68.7419 80.768 68.7419 81.352V81.988H64.3379C64.3539 82.716 64.5379 83.272 64.8899 83.656C65.2499 84.032 65.7499 84.22 66.3899 84.22C66.7979 84.22 67.1579 84.184 67.4699 84.112C67.7899 84.032 68.1179 83.92 68.4539 83.776V84.7C68.1259 84.844 67.8019 84.948 67.4819 85.012C67.1619 85.084 66.7819 85.12 66.3419 85.12C65.7259 85.12 65.1859 84.996 64.7219 84.748C64.2579 84.5 63.8939 84.132 63.6299 83.644C63.3739 83.156 63.2459 82.552 63.2459 81.832C63.2459 81.128 63.3619 80.524 63.5939 80.02C63.8339 79.516 64.1659 79.128 64.5899 78.856C65.0219 78.584 65.5219 78.448 66.0899 78.448ZM66.0779 79.312C65.5739 79.312 65.1739 79.476 64.8779 79.804C64.5899 80.124 64.4179 80.572 64.3619 81.148H67.6379C67.6299 80.604 67.5019 80.164 67.2539 79.828C67.0059 79.484 66.6139 79.312 66.0779 79.312ZM73.4754 78.448C74.2434 78.448 74.8234 78.636 75.2154 79.012C75.6074 79.388 75.8034 79.988 75.8034 80.812V85H74.7594V80.884C74.7594 79.852 74.2794 79.336 73.3194 79.336C72.6074 79.336 72.1154 79.536 71.8434 79.936C71.5714 80.336 71.4354 80.912 71.4354 81.664V85H70.3794V78.568H71.2314L71.3874 79.444H71.4474C71.6554 79.108 71.9434 78.86 72.3114 78.7C72.6794 78.532 73.0674 78.448 73.4754 78.448ZM80.0773 85.12C79.2773 85.12 78.6373 84.844 78.1573 84.292C77.6773 83.732 77.4373 82.9 77.4373 81.796C77.4373 80.692 77.6773 79.86 78.1573 79.3C78.6453 78.732 79.2893 78.448 80.0893 78.448C80.5853 78.448 80.9893 78.54 81.3013 78.724C81.6213 78.908 81.8813 79.132 82.0813 79.396H82.1533C82.1373 79.292 82.1213 79.14 82.1053 78.94C82.0893 78.732 82.0813 78.568 82.0813 78.448V75.88H83.1373V85H82.2853L82.1293 84.136H82.0813C81.8893 84.408 81.6333 84.64 81.3133 84.832C80.9933 85.024 80.5813 85.12 80.0773 85.12ZM80.2453 84.244C80.9253 84.244 81.4013 84.06 81.6733 83.692C81.9533 83.316 82.0933 82.752 82.0933 82V81.808C82.0933 81.008 81.9613 80.396 81.6973 79.972C81.4333 79.54 80.9453 79.324 80.2333 79.324C79.6653 79.324 79.2373 79.552 78.9493 80.008C78.6693 80.456 78.5293 81.06 78.5293 81.82C78.5293 82.588 78.6693 83.184 78.9493 83.608C79.2373 84.032 79.6693 84.244 80.2453 84.244ZM90.7333 78.46C91.5173 78.46 92.0973 78.632 92.4733 78.976C92.8493 79.32 93.0373 79.868 93.0373 80.62V85H92.2693L92.0653 84.088H92.0173C91.7373 84.44 91.4413 84.7 91.1293 84.868C90.8173 85.036 90.3933 85.12 89.8573 85.12C89.2733 85.12 88.7893 84.968 88.4053 84.664C88.0213 84.352 87.8293 83.868 87.8293 83.212C87.8293 82.572 88.0813 82.08 88.5853 81.736C89.0893 81.384 89.8653 81.192 90.9133 81.16L92.0053 81.124V80.74C92.0053 80.204 91.8893 79.832 91.6573 79.624C91.4253 79.416 91.0973 79.312 90.6733 79.312C90.3373 79.312 90.0173 79.364 89.7133 79.468C89.4093 79.564 89.1253 79.676 88.8613 79.804L88.5373 79.012C88.8173 78.86 89.1493 78.732 89.5333 78.628C89.9173 78.516 90.3173 78.46 90.7333 78.46ZM91.9933 81.856L91.0453 81.892C90.2453 81.924 89.6893 82.052 89.3773 82.276C89.0733 82.5 88.9213 82.816 88.9213 83.224C88.9213 83.584 89.0293 83.848 89.2453 84.016C89.4693 84.184 89.7533 84.268 90.0973 84.268C90.6333 84.268 91.0813 84.12 91.4413 83.824C91.8093 83.52 91.9933 83.056 91.9933 82.432V81.856ZM98.1199 78.448C98.8879 78.448 99.4679 78.636 99.8599 79.012C100.252 79.388 100.448 79.988 100.448 80.812V85H99.4039V80.884C99.4039 79.852 98.9239 79.336 97.9639 79.336C97.2519 79.336 96.7599 79.536 96.4879 79.936C96.2159 80.336 96.0799 80.912 96.0799 81.664V85H95.0239V78.568H95.8759L96.0319 79.444H96.0919C96.2999 79.108 96.5879 78.86 96.9559 78.7C97.3239 78.532 97.7119 78.448 98.1199 78.448ZM108.043 78.448C108.587 78.448 109.059 78.568 109.459 78.808C109.859 79.048 110.163 79.388 110.371 79.828C110.587 80.26 110.695 80.768 110.695 81.352V81.988H106.291C106.307 82.716 106.491 83.272 106.843 83.656C107.203 84.032 107.703 84.22 108.343 84.22C108.751 84.22 109.111 84.184 109.423 84.112C109.743 84.032 110.071 83.92 110.407 83.776V84.7C110.079 84.844 109.755 84.948 109.435 85.012C109.115 85.084 108.735 85.12 108.295 85.12C107.679 85.12 107.139 84.996 106.675 84.748C106.211 84.5 105.847 84.132 105.583 83.644C105.327 83.156 105.199 82.552 105.199 81.832C105.199 81.128 105.315 80.524 105.547 80.02C105.787 79.516 106.119 79.128 106.543 78.856C106.975 78.584 107.475 78.448 108.043 78.448ZM108.031 79.312C107.527 79.312 107.127 79.476 106.831 79.804C106.543 80.124 106.371 80.572 106.315 81.148H109.591C109.583 80.604 109.455 80.164 109.207 79.828C108.959 79.484 108.567 79.312 108.031 79.312ZM119.389 78.448C120.117 78.448 120.661 78.636 121.021 79.012C121.381 79.388 121.561 79.988 121.561 80.812V85H120.517V80.86C120.517 79.844 120.081 79.336 119.209 79.336C118.585 79.336 118.137 79.516 117.865 79.876C117.601 80.236 117.469 80.76 117.469 81.448V85H116.425V80.86C116.425 79.844 115.985 79.336 115.105 79.336C114.457 79.336 114.009 79.536 113.761 79.936C113.513 80.336 113.389 80.912 113.389 81.664V85H112.333V78.568H113.185L113.341 79.444H113.401C113.601 79.108 113.869 78.86 114.205 78.7C114.549 78.532 114.913 78.448 115.297 78.448C116.305 78.448 116.961 78.808 117.265 79.528H117.325C117.541 79.16 117.832 78.888 118.201 78.712C118.569 78.536 118.965 78.448 119.389 78.448ZM125.983 78.46C126.767 78.46 127.347 78.632 127.723 78.976C128.099 79.32 128.287 79.868 128.287 80.62V85H127.519L127.315 84.088H127.267C126.987 84.44 126.691 84.7 126.379 84.868C126.067 85.036 125.643 85.12 125.107 85.12C124.523 85.12 124.039 84.968 123.655 84.664C123.271 84.352 123.079 83.868 123.079 83.212C123.079 82.572 123.331 82.08 123.835 81.736C124.339 81.384 125.115 81.192 126.163 81.16L127.255 81.124V80.74C127.255 80.204 127.139 79.832 126.907 79.624C126.675 79.416 126.347 79.312 125.923 79.312C125.587 79.312 125.267 79.364 124.963 79.468C124.659 79.564 124.375 79.676 124.111 79.804L123.787 79.012C124.067 78.86 124.399 78.732 124.783 78.628C125.167 78.516 125.567 78.46 125.983 78.46ZM127.243 81.856L126.295 81.892C125.495 81.924 124.939 82.052 124.627 82.276C124.323 82.5 124.171 82.816 124.171 83.224C124.171 83.584 124.279 83.848 124.495 84.016C124.719 84.184 125.003 84.268 125.347 84.268C125.883 84.268 126.331 84.12 126.691 83.824C127.059 83.52 127.243 83.056 127.243 82.432V81.856ZM130.814 76.156C130.974 76.156 131.114 76.212 131.234 76.324C131.362 76.428 131.426 76.596 131.426 76.828C131.426 77.06 131.362 77.232 131.234 77.344C131.114 77.448 130.974 77.5 130.814 77.5C130.638 77.5 130.49 77.448 130.37 77.344C130.25 77.232 130.19 77.06 130.19 76.828C130.19 76.596 130.25 76.428 130.37 76.324C130.49 76.212 130.638 76.156 130.814 76.156ZM131.33 78.568V85H130.274V78.568H131.33ZM134.424 85H133.368V75.88H134.424V85ZM144.835 84.988L143.731 81.364C143.627 81.036 143.535 80.716 143.455 80.404C143.375 80.092 143.319 79.844 143.287 79.66H143.239C143.207 79.844 143.155 80.092 143.083 80.404C143.011 80.716 142.919 81.04 142.807 81.376L141.655 84.988H140.455L138.691 78.556H139.783L140.671 81.988C140.759 82.332 140.843 82.68 140.923 83.032C141.003 83.384 141.059 83.676 141.091 83.908H141.139C141.163 83.772 141.199 83.604 141.247 83.404C141.295 83.204 141.347 82.996 141.403 82.78C141.459 82.556 141.515 82.356 141.571 82.18L142.711 78.556H143.863L144.967 82.18C145.047 82.46 145.131 82.76 145.219 83.08C145.307 83.4 145.367 83.672 145.399 83.896H145.447C145.471 83.696 145.523 83.42 145.603 83.068C145.691 82.716 145.783 82.356 145.879 81.988L146.779 78.556H147.859L146.071 84.988H144.835ZM151.448 78.46C152.232 78.46 152.812 78.632 153.188 78.976C153.564 79.32 153.752 79.868 153.752 80.62V85H152.984L152.78 84.088H152.732C152.452 84.44 152.156 84.7 151.844 84.868C151.532 85.036 151.108 85.12 150.572 85.12C149.988 85.12 149.504 84.968 149.12 84.664C148.736 84.352 148.544 83.868 148.544 83.212C148.544 82.572 148.796 82.08 149.3 81.736C149.804 81.384 150.58 81.192 151.628 81.16L152.72 81.124V80.74C152.72 80.204 152.604 79.832 152.372 79.624C152.14 79.416 151.812 79.312 151.388 79.312C151.052 79.312 150.732 79.364 150.428 79.468C150.124 79.564 149.84 79.676 149.576 79.804L149.252 79.012C149.532 78.86 149.864 78.732 150.248 78.628C150.632 78.516 151.032 78.46 151.448 78.46ZM152.708 81.856L151.76 81.892C150.96 81.924 150.404 82.052 150.092 82.276C149.788 82.5 149.636 82.816 149.636 83.224C149.636 83.584 149.744 83.848 149.96 84.016C150.184 84.184 150.468 84.268 150.812 84.268C151.348 84.268 151.796 84.12 152.156 83.824C152.524 83.52 152.708 83.056 152.708 82.432V81.856ZM158.739 78.448C158.859 78.448 158.987 78.456 159.123 78.472C159.259 78.48 159.383 78.496 159.495 78.52L159.363 79.492C159.259 79.468 159.143 79.448 159.015 79.432C158.887 79.416 158.771 79.408 158.667 79.408C158.339 79.408 158.031 79.5 157.743 79.684C157.455 79.86 157.223 80.112 157.047 80.44C156.879 80.76 156.795 81.136 156.795 81.568V85H155.739V78.568H156.603L156.723 79.744H156.771C156.971 79.392 157.235 79.088 157.563 78.832C157.899 78.576 158.291 78.448 158.739 78.448ZM163.792 78.448C164.56 78.448 165.14 78.636 165.532 79.012C165.924 79.388 166.12 79.988 166.12 80.812V85H165.076V80.884C165.076 79.852 164.596 79.336 163.636 79.336C162.924 79.336 162.432 79.536 162.16 79.936C161.888 80.336 161.752 80.912 161.752 81.664V85H160.696V78.568H161.548L161.704 79.444H161.764C161.972 79.108 162.26 78.86 162.628 78.7C162.996 78.532 163.384 78.448 163.792 78.448ZM168.654 76.156C168.814 76.156 168.954 76.212 169.074 76.324C169.202 76.428 169.266 76.596 169.266 76.828C169.266 77.06 169.202 77.232 169.074 77.344C168.954 77.448 168.814 77.5 168.654 77.5C168.478 77.5 168.33 77.448 168.21 77.344C168.09 77.232 168.03 77.06 168.03 76.828C168.03 76.596 168.09 76.428 168.21 76.324C168.33 76.212 168.478 76.156 168.654 76.156ZM169.17 78.568V85H168.114V78.568H169.17ZM174.304 78.448C175.072 78.448 175.652 78.636 176.044 79.012C176.436 79.388 176.632 79.988 176.632 80.812V85H175.588V80.884C175.588 79.852 175.108 79.336 174.148 79.336C173.436 79.336 172.944 79.536 172.672 79.936C172.4 80.336 172.264 80.912 172.264 81.664V85H171.208V78.568H172.06L172.216 79.444H172.276C172.484 79.108 172.772 78.86 173.14 78.7C173.508 78.532 173.896 78.448 174.304 78.448ZM180.905 78.448C181.329 78.448 181.709 78.528 182.045 78.688C182.389 78.848 182.681 79.092 182.921 79.42H182.981L183.125 78.568H183.965V85.108C183.965 86.028 183.729 86.72 183.257 87.184C182.793 87.648 182.069 87.88 181.085 87.88C180.141 87.88 179.369 87.744 178.769 87.472V86.5C179.401 86.836 180.193 87.004 181.145 87.004C181.697 87.004 182.129 86.84 182.441 86.512C182.761 86.192 182.921 85.752 182.921 85.192V84.94C182.921 84.844 182.925 84.708 182.933 84.532C182.941 84.348 182.949 84.22 182.957 84.148H182.909C182.477 84.796 181.813 85.12 180.917 85.12C180.085 85.12 179.433 84.828 178.961 84.244C178.497 83.66 178.265 82.844 178.265 81.796C178.265 80.772 178.497 79.96 178.961 79.36C179.433 78.752 180.081 78.448 180.905 78.448ZM181.049 79.336C180.513 79.336 180.097 79.552 179.801 79.984C179.505 80.408 179.357 81.016 179.357 81.808C179.357 82.6 179.501 83.208 179.789 83.632C180.077 84.048 180.505 84.256 181.073 84.256C181.721 84.256 182.193 84.084 182.489 83.74C182.785 83.388 182.933 82.824 182.933 82.048V81.796C182.933 80.924 182.781 80.296 182.477 79.912C182.173 79.528 181.697 79.336 181.049 79.336ZM194.381 84.988L193.277 81.364C193.173 81.036 193.081 80.716 193.001 80.404C192.921 80.092 192.865 79.844 192.833 79.66H192.785C192.753 79.844 192.701 80.092 192.629 80.404C192.557 80.716 192.465 81.04 192.353 81.376L191.201 84.988H190.001L188.237 78.556H189.329L190.217 81.988C190.305 82.332 190.389 82.68 190.469 83.032C190.549 83.384 190.605 83.676 190.637 83.908H190.685C190.709 83.772 190.745 83.604 190.793 83.404C190.841 83.204 190.893 82.996 190.949 82.78C191.005 82.556 191.061 82.356 191.117 82.18L192.257 78.556H193.409L194.513 82.18C194.593 82.46 194.677 82.76 194.765 83.08C194.853 83.4 194.913 83.672 194.945 83.896H194.993C195.017 83.696 195.069 83.42 195.149 83.068C195.237 82.716 195.329 82.356 195.425 81.988L196.325 78.556H197.405L195.617 84.988H194.381ZM199.615 75.88V78.556C199.615 78.876 199.595 79.176 199.555 79.456H199.627C199.835 79.128 200.115 78.88 200.467 78.712C200.827 78.544 201.215 78.46 201.631 78.46C202.407 78.46 202.991 78.648 203.383 79.024C203.783 79.392 203.983 79.988 203.983 80.812V85H202.939V80.884C202.939 79.852 202.459 79.336 201.499 79.336C200.779 79.336 200.283 79.54 200.011 79.948C199.747 80.348 199.615 80.924 199.615 81.676V85H198.559V75.88H199.615ZM208.461 78.448C209.005 78.448 209.477 78.568 209.877 78.808C210.277 79.048 210.581 79.388 210.789 79.828C211.005 80.26 211.113 80.768 211.113 81.352V81.988H206.709C206.725 82.716 206.909 83.272 207.261 83.656C207.621 84.032 208.121 84.22 208.761 84.22C209.169 84.22 209.529 84.184 209.841 84.112C210.161 84.032 210.489 83.92 210.825 83.776V84.7C210.497 84.844 210.173 84.948 209.853 85.012C209.533 85.084 209.153 85.12 208.713 85.12C208.097 85.12 207.557 84.996 207.093 84.748C206.629 84.5 206.265 84.132 206.001 83.644C205.745 83.156 205.617 82.552 205.617 81.832C205.617 81.128 205.733 80.524 205.965 80.02C206.205 79.516 206.537 79.128 206.961 78.856C207.393 78.584 207.893 78.448 208.461 78.448ZM208.449 79.312C207.945 79.312 207.545 79.476 207.249 79.804C206.961 80.124 206.789 80.572 206.733 81.148H210.009C210.001 80.604 209.873 80.164 209.625 79.828C209.377 79.484 208.985 79.312 208.449 79.312ZM215.846 78.448C216.614 78.448 217.194 78.636 217.586 79.012C217.978 79.388 218.174 79.988 218.174 80.812V85H217.13V80.884C217.13 79.852 216.65 79.336 215.69 79.336C214.978 79.336 214.486 79.536 214.214 79.936C213.942 80.336 213.806 80.912 213.806 81.664V85H212.75V78.568H213.602L213.758 79.444H213.818C214.026 79.108 214.314 78.86 214.682 78.7C215.05 78.532 215.438 78.448 215.846 78.448ZM225.434 84.256C225.594 84.256 225.758 84.244 225.926 84.22C226.094 84.196 226.23 84.164 226.334 84.124V84.928C226.222 84.984 226.062 85.028 225.854 85.06C225.646 85.1 225.446 85.12 225.254 85.12C224.918 85.12 224.606 85.064 224.318 84.952C224.038 84.832 223.81 84.628 223.634 84.34C223.458 84.052 223.37 83.648 223.37 83.128V79.384H222.458V78.88L223.382 78.46L223.802 77.092H224.426V78.568H226.286V79.384H224.426V83.104C224.426 83.496 224.518 83.788 224.702 83.98C224.894 84.164 225.138 84.256 225.434 84.256ZM228.678 75.88V78.556C228.678 78.876 228.658 79.176 228.618 79.456H228.69C228.898 79.128 229.178 78.88 229.53 78.712C229.89 78.544 230.278 78.46 230.694 78.46C231.47 78.46 232.054 78.648 232.446 79.024C232.846 79.392 233.046 79.988 233.046 80.812V85H232.002V80.884C232.002 79.852 231.522 79.336 230.562 79.336C229.842 79.336 229.346 79.54 229.074 79.948C228.81 80.348 228.678 80.924 228.678 81.676V85H227.622V75.88H228.678ZM237.524 78.448C238.068 78.448 238.54 78.568 238.94 78.808C239.34 79.048 239.644 79.388 239.852 79.828C240.068 80.26 240.176 80.768 240.176 81.352V81.988H235.772C235.788 82.716 235.972 83.272 236.324 83.656C236.684 84.032 237.184 84.22 237.824 84.22C238.232 84.22 238.592 84.184 238.904 84.112C239.224 84.032 239.552 83.92 239.888 83.776V84.7C239.56 84.844 239.236 84.948 238.916 85.012C238.596 85.084 238.216 85.12 237.776 85.12C237.16 85.12 236.62 84.996 236.156 84.748C235.692 84.5 235.328 84.132 235.064 83.644C234.808 83.156 234.68 82.552 234.68 81.832C234.68 81.128 234.796 80.524 235.028 80.02C235.268 79.516 235.6 79.128 236.024 78.856C236.456 78.584 236.956 78.448 237.524 78.448ZM237.512 79.312C237.008 79.312 236.608 79.476 236.312 79.804C236.024 80.124 235.852 80.572 235.796 81.148H239.072C239.064 80.604 238.936 80.164 238.688 79.828C238.44 79.484 238.048 79.312 237.512 79.312ZM245.986 75.88V78.1C245.986 78.372 245.978 78.628 245.962 78.868C245.954 79.1 245.942 79.284 245.926 79.42H245.986C246.17 79.148 246.422 78.92 246.742 78.736C247.062 78.552 247.474 78.46 247.978 78.46C248.778 78.46 249.418 78.74 249.898 79.3C250.386 79.852 250.63 80.68 250.63 81.784C250.63 82.888 250.386 83.72 249.898 84.28C249.41 84.84 248.77 85.12 247.978 85.12C247.474 85.12 247.062 85.028 246.742 84.844C246.422 84.66 246.17 84.44 245.986 84.184H245.902L245.686 85H244.93V75.88H245.986ZM247.798 79.336C247.11 79.336 246.634 79.532 246.37 79.924C246.114 80.316 245.986 80.924 245.986 81.748V81.796C245.986 82.588 246.114 83.196 246.37 83.62C246.634 84.036 247.118 84.244 247.822 84.244C248.398 84.244 248.826 84.032 249.106 83.608C249.394 83.184 249.538 82.572 249.538 81.772C249.538 80.148 248.958 79.336 247.798 79.336ZM254.749 78.46C255.533 78.46 256.113 78.632 256.489 78.976C256.865 79.32 257.053 79.868 257.053 80.62V85H256.285L256.081 84.088H256.033C255.753 84.44 255.457 84.7 255.145 84.868C254.833 85.036 254.409 85.12 253.873 85.12C253.289 85.12 252.805 84.968 252.421 84.664C252.037 84.352 251.845 83.868 251.845 83.212C251.845 82.572 252.097 82.08 252.601 81.736C253.105 81.384 253.881 81.192 254.929 81.16L256.021 81.124V80.74C256.021 80.204 255.905 79.832 255.673 79.624C255.441 79.416 255.113 79.312 254.689 79.312C254.353 79.312 254.033 79.364 253.729 79.468C253.425 79.564 253.141 79.676 252.877 79.804L252.553 79.012C252.833 78.86 253.165 78.732 253.549 78.628C253.933 78.516 254.333 78.46 254.749 78.46ZM256.009 81.856L255.061 81.892C254.261 81.924 253.705 82.052 253.393 82.276C253.089 82.5 252.937 82.816 252.937 83.224C252.937 83.584 253.045 83.848 253.261 84.016C253.485 84.184 253.769 84.268 254.113 84.268C254.649 84.268 255.097 84.12 255.457 83.824C255.825 83.52 256.009 83.056 256.009 82.432V81.856ZM260.096 85H259.04V75.88H260.096V85ZM264.569 78.46C265.353 78.46 265.933 78.632 266.309 78.976C266.685 79.32 266.873 79.868 266.873 80.62V85H266.105L265.901 84.088H265.853C265.573 84.44 265.277 84.7 264.965 84.868C264.653 85.036 264.229 85.12 263.693 85.12C263.109 85.12 262.625 84.968 262.241 84.664C261.857 84.352 261.665 83.868 261.665 83.212C261.665 82.572 261.917 82.08 262.421 81.736C262.925 81.384 263.701 81.192 264.749 81.16L265.841 81.124V80.74C265.841 80.204 265.725 79.832 265.493 79.624C265.261 79.416 264.933 79.312 264.509 79.312C264.173 79.312 263.853 79.364 263.549 79.468C263.245 79.564 262.961 79.676 262.697 79.804L262.373 79.012C262.653 78.86 262.985 78.732 263.369 78.628C263.753 78.516 264.153 78.46 264.569 78.46ZM265.829 81.856L264.881 81.892C264.081 81.924 263.525 82.052 263.213 82.276C262.909 82.5 262.757 82.816 262.757 83.224C262.757 83.584 262.865 83.848 263.081 84.016C263.305 84.184 263.589 84.268 263.933 84.268C264.469 84.268 264.917 84.12 265.277 83.824C265.645 83.52 265.829 83.056 265.829 82.432V81.856ZM271.956 78.448C272.724 78.448 273.304 78.636 273.696 79.012C274.088 79.388 274.284 79.988 274.284 80.812V85H273.24V80.884C273.24 79.852 272.76 79.336 271.8 79.336C271.088 79.336 270.596 79.536 270.324 79.936C270.052 80.336 269.916 80.912 269.916 81.664V85H268.86V78.568H269.712L269.868 79.444H269.928C270.136 79.108 270.424 78.86 270.792 78.7C271.16 78.532 271.548 78.448 271.956 78.448ZM278.858 85.12C278.282 85.12 277.774 85.004 277.334 84.772C276.894 84.54 276.546 84.18 276.29 83.692C276.042 83.204 275.918 82.58 275.918 81.82C275.918 81.028 276.046 80.384 276.302 79.888C276.566 79.392 276.926 79.028 277.382 78.796C277.838 78.564 278.354 78.448 278.93 78.448C279.25 78.448 279.562 78.484 279.866 78.556C280.178 78.62 280.43 78.7 280.622 78.796L280.298 79.672C280.106 79.6 279.882 79.532 279.626 79.468C279.37 79.404 279.13 79.372 278.906 79.372C277.642 79.372 277.01 80.184 277.01 81.808C277.01 82.584 277.162 83.18 277.466 83.596C277.778 84.004 278.238 84.208 278.846 84.208C279.19 84.208 279.498 84.172 279.77 84.1C280.042 84.028 280.29 83.94 280.514 83.836V84.772C280.298 84.884 280.058 84.968 279.794 85.024C279.538 85.088 279.226 85.12 278.858 85.12ZM284.527 78.448C285.071 78.448 285.543 78.568 285.943 78.808C286.343 79.048 286.647 79.388 286.855 79.828C287.071 80.26 287.179 80.768 287.179 81.352V81.988H282.775C282.791 82.716 282.975 83.272 283.327 83.656C283.687 84.032 284.187 84.22 284.827 84.22C285.235 84.22 285.595 84.184 285.907 84.112C286.227 84.032 286.555 83.92 286.891 83.776V84.7C286.563 84.844 286.239 84.948 285.919 85.012C285.599 85.084 285.219 85.12 284.779 85.12C284.163 85.12 283.623 84.996 283.159 84.748C282.695 84.5 282.331 84.132 282.067 83.644C281.811 83.156 281.683 82.552 281.683 81.832C281.683 81.128 281.799 80.524 282.031 80.02C282.271 79.516 282.603 79.128 283.027 78.856C283.459 78.584 283.959 78.448 284.527 78.448ZM284.515 79.312C284.011 79.312 283.611 79.476 283.315 79.804C283.027 80.124 282.855 80.572 282.799 81.148H286.075C286.067 80.604 285.939 80.164 285.691 79.828C285.443 79.484 285.051 79.312 284.515 79.312ZM294.898 79.384H293.278V85H292.222V79.384H291.094V78.892L292.222 78.532V78.16C292.222 77.328 292.402 76.732 292.762 76.372C293.13 76.004 293.646 75.82 294.31 75.82C294.558 75.82 294.79 75.844 295.006 75.892C295.222 75.932 295.406 75.98 295.558 76.036L295.282 76.864C295.154 76.824 295.006 76.784 294.838 76.744C294.67 76.704 294.498 76.684 294.322 76.684C293.97 76.684 293.706 76.804 293.53 77.044C293.362 77.276 293.278 77.644 293.278 78.148V78.568H294.898V79.384ZM298.495 78.46C299.279 78.46 299.859 78.632 300.235 78.976C300.611 79.32 300.799 79.868 300.799 80.62V85H300.031L299.827 84.088H299.779C299.499 84.44 299.203 84.7 298.891 84.868C298.579 85.036 298.155 85.12 297.619 85.12C297.035 85.12 296.551 84.968 296.167 84.664C295.783 84.352 295.591 83.868 295.591 83.212C295.591 82.572 295.843 82.08 296.347 81.736C296.851 81.384 297.627 81.192 298.675 81.16L299.767 81.124V80.74C299.767 80.204 299.651 79.832 299.419 79.624C299.187 79.416 298.859 79.312 298.435 79.312C298.099 79.312 297.779 79.364 297.475 79.468C297.171 79.564 296.887 79.676 296.623 79.804L296.299 79.012C296.579 78.86 296.911 78.732 297.295 78.628C297.679 78.516 298.079 78.46 298.495 78.46ZM299.755 81.856L298.807 81.892C298.007 81.924 297.451 82.052 297.139 82.276C296.835 82.5 296.683 82.816 296.683 83.224C296.683 83.584 296.791 83.848 297.007 84.016C297.231 84.184 297.515 84.268 297.859 84.268C298.395 84.268 298.843 84.12 299.203 83.824C299.571 83.52 299.755 83.056 299.755 82.432V81.856ZM303.842 85H302.786V75.88H303.842V85ZM306.935 85H305.879V75.88H306.935V85ZM313.161 83.224C313.161 83.848 312.929 84.32 312.465 84.64C312.001 84.96 311.377 85.12 310.593 85.12C310.145 85.12 309.757 85.084 309.429 85.012C309.109 84.94 308.825 84.84 308.577 84.712V83.752C308.833 83.88 309.141 84 309.501 84.112C309.869 84.216 310.241 84.268 310.617 84.268C311.153 84.268 311.541 84.184 311.781 84.016C312.021 83.84 312.141 83.608 312.141 83.32C312.141 83.16 312.097 83.016 312.009 82.888C311.921 82.76 311.761 82.632 311.529 82.504C311.305 82.376 310.981 82.232 310.557 82.072C310.141 81.912 309.785 81.752 309.489 81.592C309.193 81.432 308.965 81.24 308.805 81.016C308.645 80.792 308.565 80.504 308.565 80.152C308.565 79.608 308.785 79.188 309.225 78.892C309.673 78.596 310.257 78.448 310.977 78.448C311.369 78.448 311.733 78.488 312.069 78.568C312.413 78.648 312.733 78.752 313.029 78.88L312.669 79.72C312.397 79.608 312.113 79.512 311.817 79.432C311.521 79.352 311.217 79.312 310.905 79.312C310.473 79.312 310.141 79.384 309.909 79.528C309.685 79.664 309.573 79.852 309.573 80.092C309.573 80.276 309.625 80.428 309.729 80.548C309.833 80.668 310.005 80.788 310.245 80.908C310.493 81.028 310.821 81.164 311.229 81.316C311.637 81.468 311.985 81.624 312.273 81.784C312.561 81.944 312.781 82.14 312.933 82.372C313.085 82.596 313.161 82.88 313.161 83.224ZM318.889 75.88V78.1C318.889 78.372 318.881 78.628 318.865 78.868C318.857 79.1 318.845 79.284 318.829 79.42H318.889C319.073 79.148 319.325 78.92 319.645 78.736C319.965 78.552 320.377 78.46 320.881 78.46C321.681 78.46 322.321 78.74 322.801 79.3C323.289 79.852 323.533 80.68 323.533 81.784C323.533 82.888 323.289 83.72 322.801 84.28C322.313 84.84 321.673 85.12 320.881 85.12C320.377 85.12 319.965 85.028 319.645 84.844C319.325 84.66 319.073 84.44 318.889 84.184H318.805L318.589 85H317.833V75.88H318.889ZM320.701 79.336C320.013 79.336 319.537 79.532 319.273 79.924C319.017 80.316 318.889 80.924 318.889 81.748V81.796C318.889 82.588 319.017 83.196 319.273 83.62C319.537 84.036 320.021 84.244 320.725 84.244C321.301 84.244 321.729 84.032 322.009 83.608C322.297 83.184 322.441 82.572 322.441 81.772C322.441 80.148 321.861 79.336 320.701 79.336ZM327.699 78.448C328.243 78.448 328.715 78.568 329.115 78.808C329.515 79.048 329.819 79.388 330.027 79.828C330.243 80.26 330.351 80.768 330.351 81.352V81.988H325.947C325.963 82.716 326.147 83.272 326.499 83.656C326.859 84.032 327.359 84.22 327.999 84.22C328.407 84.22 328.767 84.184 329.079 84.112C329.399 84.032 329.727 83.92 330.063 83.776V84.7C329.735 84.844 329.411 84.948 329.091 85.012C328.771 85.084 328.391 85.12 327.951 85.12C327.335 85.12 326.795 84.996 326.331 84.748C325.867 84.5 325.503 84.132 325.239 83.644C324.983 83.156 324.855 82.552 324.855 81.832C324.855 81.128 324.971 80.524 325.203 80.02C325.443 79.516 325.775 79.128 326.199 78.856C326.631 78.584 327.131 78.448 327.699 78.448ZM327.687 79.312C327.183 79.312 326.783 79.476 326.487 79.804C326.199 80.124 326.027 80.572 325.971 81.148H329.247C329.239 80.604 329.111 80.164 328.863 79.828C328.615 79.484 328.223 79.312 327.687 79.312ZM333.045 85H331.989V75.88H333.045V85ZM340.674 81.772C340.674 82.836 340.403 83.66 339.859 84.244C339.323 84.828 338.595 85.12 337.675 85.12C337.107 85.12 336.599 84.992 336.151 84.736C335.711 84.472 335.363 84.092 335.107 83.596C334.851 83.092 334.723 82.484 334.723 81.772C334.723 80.708 334.987 79.888 335.515 79.312C336.051 78.736 336.783 78.448 337.711 78.448C338.287 78.448 338.799 78.58 339.247 78.844C339.695 79.1 340.043 79.476 340.291 79.972C340.547 80.46 340.674 81.06 340.674 81.772ZM335.815 81.772C335.815 82.532 335.963 83.136 336.259 83.584C336.563 84.024 337.043 84.244 337.699 84.244C338.347 84.244 338.823 84.024 339.127 83.584C339.431 83.136 339.583 82.532 339.583 81.772C339.583 81.012 339.431 80.416 339.127 79.984C338.823 79.552 338.343 79.336 337.687 79.336C337.031 79.336 336.555 79.552 336.259 79.984C335.963 80.416 335.815 81.012 335.815 81.772ZM347.37 84.988L346.266 81.364C346.162 81.036 346.07 80.716 345.99 80.404C345.91 80.092 345.854 79.844 345.822 79.66H345.774C345.742 79.844 345.69 80.092 345.618 80.404C345.546 80.716 345.454 81.04 345.342 81.376L344.19 84.988H342.99L341.226 78.556H342.318L343.206 81.988C343.294 82.332 343.378 82.68 343.458 83.032C343.538 83.384 343.594 83.676 343.626 83.908H343.674C343.698 83.772 343.734 83.604 343.782 83.404C343.83 83.204 343.882 82.996 343.938 82.78C343.994 82.556 344.05 82.356 344.106 82.18L345.246 78.556H346.398L347.502 82.18C347.582 82.46 347.666 82.76 347.754 83.08C347.842 83.4 347.902 83.672 347.934 83.896H347.982C348.006 83.696 348.058 83.42 348.138 83.068C348.226 82.716 348.318 82.356 348.414 81.988L349.314 78.556H350.394L348.606 84.988H347.37Z" fill="#323232"/>
<rect x="56.5" y="92.5" width="299" height="35" rx="1.5" fill="white"/>
<path d="M71.036 115.696V114.412C70.596 114.404 70.168 114.368 69.752 114.304C69.336 114.232 69 114.136 68.744 114.016V112.996C69.016 113.124 69.364 113.236 69.788 113.332C70.212 113.428 70.628 113.48 71.036 113.488V111.064C70.244 110.848 69.664 110.576 69.296 110.248C68.928 109.92 68.744 109.472 68.744 108.904C68.744 108.312 68.948 107.848 69.356 107.512C69.772 107.176 70.332 106.988 71.036 106.948V105.892H71.804V106.936C72.228 106.952 72.612 107 72.956 107.08C73.308 107.16 73.628 107.26 73.916 107.38L73.592 108.268C73.336 108.164 73.052 108.076 72.74 108.004C72.436 107.924 72.124 107.872 71.804 107.848V110.26C72.332 110.412 72.772 110.576 73.124 110.752C73.476 110.92 73.74 111.132 73.916 111.388C74.1 111.636 74.192 111.96 74.192 112.36C74.192 112.92 73.984 113.376 73.568 113.728C73.152 114.072 72.564 114.284 71.804 114.364V115.696H71.036ZM71.036 109.996V107.872C70.604 107.904 70.284 108.004 70.076 108.172C69.876 108.34 69.776 108.556 69.776 108.82C69.776 109.14 69.864 109.388 70.04 109.564C70.224 109.732 70.556 109.876 71.036 109.996ZM71.804 113.428C72.276 113.38 72.62 113.272 72.836 113.104C73.052 112.928 73.16 112.704 73.16 112.432C73.16 112.128 73.064 111.9 72.872 111.748C72.68 111.596 72.324 111.452 71.804 111.316V113.428Z" fill="#5E5E5E"/>
<rect x="87" y="92" width="1" height="36" fill="#939393"/>
<path d="M102.24 115H96.576V114.124L98.82 111.856C99.244 111.424 99.604 111.04 99.9 110.704C100.204 110.368 100.432 110.04 100.584 109.72C100.736 109.4 100.812 109.044 100.812 108.652C100.812 108.18 100.672 107.824 100.392 107.584C100.112 107.336 99.748 107.212 99.3 107.212C98.876 107.212 98.508 107.284 98.196 107.428C97.884 107.572 97.564 107.772 97.236 108.028L96.672 107.32C97.008 107.04 97.392 106.804 97.824 106.612C98.264 106.412 98.756 106.312 99.3 106.312C100.1 106.312 100.732 106.516 101.196 106.924C101.66 107.332 101.892 107.888 101.892 108.592C101.892 109.04 101.8 109.46 101.616 109.852C101.432 110.244 101.176 110.632 100.848 111.016C100.52 111.4 100.136 111.804 99.696 112.228L97.908 113.992V114.04H102.24V115ZM103.731 114.352C103.731 114.056 103.803 113.848 103.947 113.728C104.091 113.608 104.263 113.548 104.463 113.548C104.663 113.548 104.839 113.608 104.991 113.728C105.143 113.848 105.219 114.056 105.219 114.352C105.219 114.64 105.143 114.848 104.991 114.976C104.839 115.104 104.663 115.168 104.463 115.168C104.263 115.168 104.091 115.104 103.947 114.976C103.803 114.848 103.731 114.64 103.731 114.352ZM112.354 110.704C112.354 111.632 112.258 112.424 112.066 113.08C111.874 113.736 111.566 114.24 111.142 114.592C110.726 114.944 110.178 115.12 109.498 115.12C108.53 115.12 107.814 114.732 107.35 113.956C106.894 113.172 106.666 112.088 106.666 110.704C106.666 109.776 106.758 108.984 106.942 108.328C107.134 107.672 107.438 107.172 107.854 106.828C108.27 106.476 108.818 106.3 109.498 106.3C110.458 106.3 111.174 106.688 111.646 107.464C112.118 108.232 112.354 109.312 112.354 110.704ZM107.722 110.704C107.722 111.88 107.854 112.76 108.118 113.344C108.39 113.928 108.85 114.22 109.498 114.22C110.138 114.22 110.594 113.932 110.866 113.356C111.146 112.772 111.286 111.888 111.286 110.704C111.286 109.536 111.146 108.66 110.866 108.076C110.594 107.492 110.138 107.2 109.498 107.2C108.85 107.2 108.39 107.492 108.118 108.076C107.854 108.66 107.722 109.536 107.722 110.704ZM119.221 110.704C119.221 111.632 119.125 112.424 118.933 113.08C118.741 113.736 118.433 114.24 118.009 114.592C117.593 114.944 117.045 115.12 116.365 115.12C115.397 115.12 114.681 114.732 114.217 113.956C113.761 113.172 113.533 112.088 113.533 110.704C113.533 109.776 113.625 108.984 113.809 108.328C114.001 107.672 114.305 107.172 114.721 106.828C115.137 106.476 115.685 106.3 116.365 106.3C117.325 106.3 118.041 106.688 118.513 107.464C118.985 108.232 119.221 109.312 119.221 110.704ZM114.589 110.704C114.589 111.88 114.721 112.76 114.985 113.344C115.257 113.928 115.717 114.22 116.365 114.22C117.005 114.22 117.461 113.932 117.733 113.356C118.013 112.772 118.153 111.888 118.153 110.704C118.153 109.536 118.013 108.66 117.733 108.076C117.461 107.492 117.005 107.2 116.365 107.2C115.717 107.2 115.257 107.492 114.985 108.076C114.721 108.66 114.589 109.536 114.589 110.704Z" fill="black"/>
<rect x="56.5" y="92.5" width="299" height="35" rx="1.5" stroke="#939393"/>
</svg>
