<svg width="412" height="200" viewBox="0 0 412 200" fill="none" xmlns="http://www.w3.org/2000/svg">
<rect width="412" height="200" fill="white"/>
<path d="M56.024 72.708C56.024 73.468 55.748 74.06 55.196 74.484C54.644 74.908 53.9 75.12 52.964 75.12C52.484 75.12 52.04 75.084 51.632 75.012C51.224 74.94 50.884 74.84 50.612 74.712V73.68C50.9 73.808 51.256 73.924 51.68 74.028C52.112 74.132 52.556 74.184 53.012 74.184C53.644 74.184 54.124 74.06 54.452 73.812C54.78 73.564 54.944 73.228 54.944 72.804C54.944 72.524 54.884 72.288 54.764 72.096C54.644 71.904 54.436 71.728 54.14 71.568C53.844 71.408 53.44 71.232 52.928 71.04C52.192 70.776 51.64 70.452 51.272 70.068C50.904 69.684 50.72 69.16 50.72 68.496C50.72 68.048 50.836 67.66 51.068 67.332C51.3 67.004 51.62 66.752 52.028 66.576C52.436 66.4 52.912 66.312 53.456 66.312C53.92 66.312 54.348 66.356 54.74 66.444C55.132 66.532 55.492 66.648 55.82 66.792L55.484 67.716C55.188 67.588 54.864 67.48 54.512 67.392C54.16 67.304 53.8 67.26 53.432 67.26C52.896 67.26 52.492 67.376 52.22 67.608C51.948 67.832 51.812 68.132 51.812 68.508C51.812 68.796 51.872 69.036 51.992 69.228C52.112 69.42 52.308 69.596 52.58 69.756C52.852 69.908 53.22 70.068 53.684 70.236C54.188 70.42 54.612 70.62 54.956 70.836C55.308 71.044 55.572 71.296 55.748 71.592C55.932 71.888 56.024 72.26 56.024 72.708ZM58.1459 66.156C58.3059 66.156 58.4459 66.212 58.5659 66.324C58.6939 66.428 58.7579 66.596 58.7579 66.828C58.7579 67.06 58.6939 67.232 58.5659 67.344C58.4459 67.448 58.3059 67.5 58.1459 67.5C57.9699 67.5 57.8219 67.448 57.7019 67.344C57.5819 67.232 57.5219 67.06 57.5219 66.828C57.5219 66.596 57.5819 66.428 57.7019 66.324C57.8219 66.212 57.9699 66.156 58.1459 66.156ZM58.6619 68.568V75H57.6059V68.568H58.6619ZM62.8477 74.256C63.0077 74.256 63.1717 74.244 63.3397 74.22C63.5077 74.196 63.6437 74.164 63.7477 74.124V74.928C63.6357 74.984 63.4757 75.028 63.2677 75.06C63.0597 75.1 62.8597 75.12 62.6677 75.12C62.3317 75.12 62.0197 75.064 61.7317 74.952C61.4517 74.832 61.2237 74.628 61.0477 74.34C60.8717 74.052 60.7837 73.648 60.7837 73.128V69.384H59.8717V68.88L60.7957 68.46L61.2157 67.092H61.8397V68.568H63.6997V69.384H61.8397V73.104C61.8397 73.496 61.9317 73.788 62.1157 73.98C62.3077 74.164 62.5517 74.256 62.8477 74.256ZM67.5196 68.448C68.0636 68.448 68.5356 68.568 68.9356 68.808C69.3356 69.048 69.6396 69.388 69.8476 69.828C70.0636 70.26 70.1716 70.768 70.1716 71.352V71.988H65.7676C65.7836 72.716 65.9676 73.272 66.3196 73.656C66.6796 74.032 67.1796 74.22 67.8196 74.22C68.2276 74.22 68.5876 74.184 68.8996 74.112C69.2196 74.032 69.5476 73.92 69.8836 73.776V74.7C69.5556 74.844 69.2316 74.948 68.9116 75.012C68.5916 75.084 68.2116 75.12 67.7716 75.12C67.1556 75.12 66.6156 74.996 66.1516 74.748C65.6876 74.5 65.3236 74.132 65.0596 73.644C64.8036 73.156 64.6756 72.552 64.6756 71.832C64.6756 71.128 64.7916 70.524 65.0236 70.02C65.2636 69.516 65.5956 69.128 66.0196 68.856C66.4516 68.584 66.9516 68.448 67.5196 68.448ZM67.5076 69.312C67.0036 69.312 66.6036 69.476 66.3076 69.804C66.0196 70.124 65.8476 70.572 65.7916 71.148H69.0676C69.0596 70.604 68.9316 70.164 68.6836 69.828C68.4356 69.484 68.0436 69.312 67.5076 69.312ZM81.8623 75H80.6023L76.0183 67.884H75.9703C75.9863 68.164 76.0063 68.512 76.0303 68.928C76.0543 69.344 76.0663 69.772 76.0663 70.212V75H75.0703V66.432H76.3183L80.8903 73.524H80.9383C80.9303 73.396 80.9183 73.204 80.9023 72.948C80.8943 72.692 80.8823 72.416 80.8663 72.12C80.8583 71.816 80.8543 71.532 80.8543 71.268V66.432H81.8623V75ZM86.4794 68.46C87.2634 68.46 87.8434 68.632 88.2194 68.976C88.5954 69.32 88.7834 69.868 88.7834 70.62V75H88.0154L87.8114 74.088H87.7634C87.4834 74.44 87.1874 74.7 86.8754 74.868C86.5634 75.036 86.1394 75.12 85.6034 75.12C85.0194 75.12 84.5354 74.968 84.1514 74.664C83.7674 74.352 83.5754 73.868 83.5754 73.212C83.5754 72.572 83.8274 72.08 84.3314 71.736C84.8354 71.384 85.6114 71.192 86.6594 71.16L87.7514 71.124V70.74C87.7514 70.204 87.6354 69.832 87.4034 69.624C87.1714 69.416 86.8434 69.312 86.4194 69.312C86.0834 69.312 85.7634 69.364 85.4594 69.468C85.1554 69.564 84.8714 69.676 84.6074 69.804L84.2834 69.012C84.5634 68.86 84.8954 68.732 85.2794 68.628C85.6634 68.516 86.0634 68.46 86.4794 68.46ZM87.7394 71.856L86.7914 71.892C85.9914 71.924 85.4354 72.052 85.1234 72.276C84.8194 72.5 84.6674 72.816 84.6674 73.224C84.6674 73.584 84.7754 73.848 84.9914 74.016C85.2154 74.184 85.4994 74.268 85.8434 74.268C86.3794 74.268 86.8274 74.12 87.1874 73.824C87.5554 73.52 87.7394 73.056 87.7394 72.432V71.856ZM97.826 68.448C98.554 68.448 99.098 68.636 99.458 69.012C99.818 69.388 99.998 69.988 99.998 70.812V75H98.954V70.86C98.954 69.844 98.518 69.336 97.646 69.336C97.022 69.336 96.574 69.516 96.302 69.876C96.038 70.236 95.906 70.76 95.906 71.448V75H94.862V70.86C94.862 69.844 94.422 69.336 93.542 69.336C92.894 69.336 92.446 69.536 92.198 69.936C91.95 70.336 91.826 70.912 91.826 71.664V75H90.77V68.568H91.622L91.778 69.444H91.838C92.038 69.108 92.306 68.86 92.642 68.7C92.986 68.532 93.35 68.448 93.734 68.448C94.742 68.448 95.398 68.808 95.702 69.528H95.762C95.978 69.16 96.27 68.888 96.638 68.712C97.006 68.536 97.402 68.448 97.826 68.448ZM104.469 68.448C105.013 68.448 105.485 68.568 105.885 68.808C106.285 69.048 106.589 69.388 106.797 69.828C107.013 70.26 107.121 70.768 107.121 71.352V71.988H102.717C102.733 72.716 102.917 73.272 103.269 73.656C103.629 74.032 104.129 74.22 104.769 74.22C105.177 74.22 105.537 74.184 105.849 74.112C106.169 74.032 106.497 73.92 106.833 73.776V74.7C106.505 74.844 106.181 74.948 105.861 75.012C105.541 75.084 105.161 75.12 104.721 75.12C104.105 75.12 103.565 74.996 103.101 74.748C102.637 74.5 102.273 74.132 102.009 73.644C101.753 73.156 101.625 72.552 101.625 71.832C101.625 71.128 101.741 70.524 101.973 70.02C102.213 69.516 102.545 69.128 102.969 68.856C103.401 68.584 103.901 68.448 104.469 68.448ZM104.457 69.312C103.953 69.312 103.553 69.476 103.257 69.804C102.969 70.124 102.797 70.572 102.741 71.148H106.017C106.009 70.604 105.881 70.164 105.633 69.828C105.385 69.484 104.993 69.312 104.457 69.312Z" fill="#323232"/>
<path d="M113.864 65.88L113.624 68.184L115.928 67.536L116.096 68.64L113.888 68.82L115.316 70.716L114.284 71.28L113.264 69.18L112.34 71.28L111.272 70.716L112.676 68.82L110.492 68.64L110.66 67.536L112.94 68.184L112.688 65.88H113.864Z" fill="#B51418"/>
<rect x="50.5" y="82.5" width="311" height="35" rx="1.5" fill="white"/>
<rect x="50.5" y="82.5" width="311" height="35" rx="1.5" stroke="#939393"/>
<path d="M54.944 135L52.124 127.488H52.076C52.1 127.736 52.12 128.072 52.136 128.496C52.152 128.912 52.16 129.348 52.16 129.804V135H51.164V126.432H52.76L55.4 133.452H55.448L58.136 126.432H59.72V135H58.652V129.732C58.652 129.316 58.66 128.904 58.676 128.496C58.7 128.088 58.72 127.756 58.736 127.5H58.688L55.832 135H54.944ZM64.3427 128.46C65.1267 128.46 65.7067 128.632 66.0827 128.976C66.4587 129.32 66.6467 129.868 66.6467 130.62V135H65.8787L65.6747 134.088H65.6267C65.3467 134.44 65.0507 134.7 64.7387 134.868C64.4267 135.036 64.0027 135.12 63.4667 135.12C62.8827 135.12 62.3987 134.968 62.0147 134.664C61.6307 134.352 61.4387 133.868 61.4387 133.212C61.4387 132.572 61.6907 132.08 62.1947 131.736C62.6987 131.384 63.4747 131.192 64.5227 131.16L65.6147 131.124V130.74C65.6147 130.204 65.4987 129.832 65.2667 129.624C65.0347 129.416 64.7067 129.312 64.2827 129.312C63.9467 129.312 63.6267 129.364 63.3227 129.468C63.0187 129.564 62.7347 129.676 62.4707 129.804L62.1467 129.012C62.4267 128.86 62.7587 128.732 63.1427 128.628C63.5267 128.516 63.9267 128.46 64.3427 128.46ZM65.6027 131.856L64.6547 131.892C63.8547 131.924 63.2987 132.052 62.9867 132.276C62.6827 132.5 62.5307 132.816 62.5307 133.224C62.5307 133.584 62.6387 133.848 62.8547 134.016C63.0787 134.184 63.3627 134.268 63.7067 134.268C64.2427 134.268 64.6907 134.12 65.0507 133.824C65.4187 133.52 65.6027 133.056 65.6027 132.432V131.856ZM70.1573 131.712L67.9373 128.568H69.1373L70.7933 130.992L72.4373 128.568H73.6253L71.4053 131.712L73.7453 135H72.5453L70.7933 132.432L69.0173 135H67.8293L70.1573 131.712ZM75.5248 126.156C75.6848 126.156 75.8248 126.212 75.9448 126.324C76.0728 126.428 76.1368 126.596 76.1368 126.828C76.1368 127.06 76.0728 127.232 75.9448 127.344C75.8248 127.448 75.6848 127.5 75.5248 127.5C75.3488 127.5 75.2008 127.448 75.0808 127.344C74.9608 127.232 74.9008 127.06 74.9008 126.828C74.9008 126.596 74.9608 126.428 75.0808 126.324C75.2008 126.212 75.3488 126.156 75.5248 126.156ZM76.0408 128.568V135H74.9848V128.568H76.0408ZM85.1346 128.448C85.8626 128.448 86.4066 128.636 86.7666 129.012C87.1266 129.388 87.3066 129.988 87.3066 130.812V135H86.2626V130.86C86.2626 129.844 85.8266 129.336 84.9546 129.336C84.3306 129.336 83.8826 129.516 83.6106 129.876C83.3466 130.236 83.2146 130.76 83.2146 131.448V135H82.1706V130.86C82.1706 129.844 81.7306 129.336 80.8506 129.336C80.2026 129.336 79.7546 129.536 79.5066 129.936C79.2586 130.336 79.1346 130.912 79.1346 131.664V135H78.0786V128.568H78.9306L79.0866 129.444H79.1466C79.3466 129.108 79.6146 128.86 79.9506 128.7C80.2946 128.532 80.6586 128.448 81.0426 128.448C82.0506 128.448 82.7066 128.808 83.0106 129.528H83.0706C83.2866 129.16 83.5786 128.888 83.9466 128.712C84.3146 128.536 84.7106 128.448 85.1346 128.448ZM94.6694 128.568V135H93.8054L93.6494 134.148H93.6014C93.3934 134.484 93.1054 134.732 92.7374 134.892C92.3694 135.044 91.9774 135.12 91.5614 135.12C90.7854 135.12 90.2014 134.936 89.8094 134.568C89.4174 134.192 89.2214 133.596 89.2214 132.78V128.568H90.2894V132.708C90.2894 133.732 90.7654 134.244 91.7174 134.244C92.4294 134.244 92.9214 134.044 93.1934 133.644C93.4734 133.244 93.6134 132.668 93.6134 131.916V128.568H94.6694ZM103.767 128.448C104.495 128.448 105.039 128.636 105.399 129.012C105.759 129.388 105.939 129.988 105.939 130.812V135H104.895V130.86C104.895 129.844 104.459 129.336 103.587 129.336C102.963 129.336 102.515 129.516 102.243 129.876C101.979 130.236 101.847 130.76 101.847 131.448V135H100.803V130.86C100.803 129.844 100.363 129.336 99.4834 129.336C98.8354 129.336 98.3874 129.536 98.1394 129.936C97.8914 130.336 97.7674 130.912 97.7674 131.664V135H96.7114V128.568H97.5634L97.7194 129.444H97.7794C97.9794 129.108 98.2474 128.86 98.5834 128.7C98.9274 128.532 99.2914 128.448 99.6754 128.448C100.683 128.448 101.339 128.808 101.643 129.528H101.703C101.919 129.16 102.211 128.888 102.579 128.712C102.947 128.536 103.343 128.448 103.767 128.448ZM116.635 131.772C116.635 132.836 116.363 133.66 115.819 134.244C115.283 134.828 114.555 135.12 113.635 135.12C113.067 135.12 112.559 134.992 112.111 134.736C111.671 134.472 111.323 134.092 111.067 133.596C110.811 133.092 110.683 132.484 110.683 131.772C110.683 130.708 110.947 129.888 111.475 129.312C112.011 128.736 112.743 128.448 113.671 128.448C114.247 128.448 114.759 128.58 115.207 128.844C115.655 129.1 116.003 129.476 116.251 129.972C116.507 130.46 116.635 131.06 116.635 131.772ZM111.775 131.772C111.775 132.532 111.923 133.136 112.219 133.584C112.523 134.024 113.003 134.244 113.659 134.244C114.307 134.244 114.783 134.024 115.087 133.584C115.391 133.136 115.543 132.532 115.543 131.772C115.543 131.012 115.391 130.416 115.087 129.984C114.783 129.552 114.303 129.336 113.647 129.336C112.991 129.336 112.515 129.552 112.219 129.984C111.923 130.416 111.775 131.012 111.775 131.772ZM121.273 129.384H119.653V135H118.597V129.384H117.469V128.892L118.597 128.532V128.16C118.597 127.328 118.777 126.732 119.137 126.372C119.505 126.004 120.021 125.82 120.685 125.82C120.933 125.82 121.165 125.844 121.381 125.892C121.597 125.932 121.781 125.98 121.933 126.036L121.657 126.864C121.529 126.824 121.381 126.784 121.213 126.744C121.045 126.704 120.873 126.684 120.697 126.684C120.345 126.684 120.081 126.804 119.905 127.044C119.737 127.276 119.653 127.644 119.653 128.148V128.568H121.273V129.384ZM130.447 128.436C130.447 129.012 130.283 129.472 129.955 129.816C129.635 130.152 129.207 130.376 128.671 130.488V130.536C129.351 130.616 129.859 130.832 130.195 131.184C130.539 131.536 130.711 131.996 130.711 132.564C130.711 133.068 130.595 133.512 130.363 133.896C130.131 134.28 129.771 134.58 129.283 134.796C128.803 135.012 128.183 135.12 127.423 135.12C126.975 135.12 126.559 135.084 126.175 135.012C125.791 134.948 125.423 134.828 125.071 134.652V133.668C125.431 133.852 125.819 133.992 126.235 134.088C126.651 134.184 127.051 134.232 127.435 134.232C128.203 134.232 128.755 134.084 129.091 133.788C129.435 133.484 129.607 133.068 129.607 132.54C129.607 132.004 129.395 131.62 128.971 131.388C128.555 131.148 127.967 131.028 127.207 131.028H126.379V130.128H127.219C127.923 130.128 128.455 129.98 128.815 129.684C129.183 129.388 129.367 128.996 129.367 128.508C129.367 128.092 129.227 127.772 128.947 127.548C128.667 127.316 128.287 127.2 127.807 127.2C127.343 127.2 126.947 127.268 126.619 127.404C126.291 127.54 125.967 127.712 125.647 127.92L125.119 127.2C125.423 126.96 125.799 126.752 126.247 126.576C126.703 126.4 127.219 126.312 127.795 126.312C128.691 126.312 129.355 126.512 129.787 126.912C130.227 127.312 130.447 127.82 130.447 128.436ZM134.698 129.744C135.57 129.744 136.266 129.964 136.786 130.404C137.314 130.844 137.578 131.464 137.578 132.264C137.578 133.152 137.294 133.852 136.726 134.364C136.166 134.868 135.382 135.12 134.374 135.12C133.926 135.12 133.51 135.08 133.126 135C132.742 134.92 132.418 134.804 132.154 134.652V133.656C132.442 133.832 132.79 133.972 133.198 134.076C133.614 134.172 134.01 134.22 134.386 134.22C135.018 134.22 135.526 134.072 135.91 133.776C136.302 133.472 136.498 133.004 136.498 132.372C136.498 131.812 136.326 131.384 135.982 131.088C135.638 130.784 135.094 130.632 134.35 130.632C134.126 130.632 133.87 130.652 133.582 130.692C133.294 130.732 133.062 130.772 132.886 130.812L132.358 130.476L132.682 126.432H136.978V127.392H133.582L133.378 129.876C133.514 129.852 133.698 129.824 133.93 129.792C134.162 129.76 134.418 129.744 134.698 129.744ZM144.983 135.12C144.407 135.12 143.899 135.004 143.459 134.772C143.019 134.54 142.671 134.18 142.415 133.692C142.167 133.204 142.043 132.58 142.043 131.82C142.043 131.028 142.171 130.384 142.427 129.888C142.691 129.392 143.051 129.028 143.507 128.796C143.963 128.564 144.479 128.448 145.055 128.448C145.375 128.448 145.687 128.484 145.991 128.556C146.303 128.62 146.555 128.7 146.747 128.796L146.423 129.672C146.231 129.6 146.007 129.532 145.751 129.468C145.495 129.404 145.255 129.372 145.031 129.372C143.767 129.372 143.135 130.184 143.135 131.808C143.135 132.584 143.287 133.18 143.591 133.596C143.903 134.004 144.363 134.208 144.971 134.208C145.315 134.208 145.623 134.172 145.895 134.1C146.167 134.028 146.415 133.94 146.639 133.836V134.772C146.423 134.884 146.183 134.968 145.919 135.024C145.663 135.088 145.351 135.12 144.983 135.12ZM149.224 125.88V128.556C149.224 128.876 149.204 129.176 149.164 129.456H149.236C149.444 129.128 149.724 128.88 150.076 128.712C150.436 128.544 150.824 128.46 151.24 128.46C152.016 128.46 152.6 128.648 152.992 129.024C153.392 129.392 153.592 129.988 153.592 130.812V135H152.548V130.884C152.548 129.852 152.068 129.336 151.108 129.336C150.388 129.336 149.892 129.54 149.62 129.948C149.356 130.348 149.224 130.924 149.224 131.676V135H148.168V125.88H149.224ZM158.022 128.46C158.806 128.46 159.386 128.632 159.762 128.976C160.138 129.32 160.326 129.868 160.326 130.62V135H159.558L159.354 134.088H159.306C159.026 134.44 158.73 134.7 158.418 134.868C158.106 135.036 157.682 135.12 157.146 135.12C156.562 135.12 156.078 134.968 155.694 134.664C155.31 134.352 155.118 133.868 155.118 133.212C155.118 132.572 155.37 132.08 155.874 131.736C156.378 131.384 157.154 131.192 158.202 131.16L159.294 131.124V130.74C159.294 130.204 159.178 129.832 158.946 129.624C158.714 129.416 158.386 129.312 157.962 129.312C157.626 129.312 157.306 129.364 157.002 129.468C156.698 129.564 156.414 129.676 156.15 129.804L155.826 129.012C156.106 128.86 156.438 128.732 156.822 128.628C157.206 128.516 157.606 128.46 158.022 128.46ZM159.282 131.856L158.334 131.892C157.534 131.924 156.978 132.052 156.666 132.276C156.362 132.5 156.21 132.816 156.21 133.224C156.21 133.584 156.318 133.848 156.534 134.016C156.758 134.184 157.042 134.268 157.386 134.268C157.922 134.268 158.37 134.12 158.73 133.824C159.098 133.52 159.282 133.056 159.282 132.432V131.856ZM165.313 128.448C165.433 128.448 165.561 128.456 165.697 128.472C165.833 128.48 165.957 128.496 166.069 128.52L165.937 129.492C165.833 129.468 165.717 129.448 165.589 129.432C165.461 129.416 165.345 129.408 165.241 129.408C164.913 129.408 164.605 129.5 164.317 129.684C164.029 129.86 163.797 130.112 163.621 130.44C163.453 130.76 163.369 131.136 163.369 131.568V135H162.313V128.568H163.177L163.297 129.744H163.345C163.545 129.392 163.809 129.088 164.137 128.832C164.473 128.576 164.865 128.448 165.313 128.448ZM169.472 128.46C170.256 128.46 170.836 128.632 171.212 128.976C171.588 129.32 171.776 129.868 171.776 130.62V135H171.008L170.804 134.088H170.756C170.476 134.44 170.18 134.7 169.868 134.868C169.556 135.036 169.132 135.12 168.596 135.12C168.012 135.12 167.528 134.968 167.144 134.664C166.76 134.352 166.568 133.868 166.568 133.212C166.568 132.572 166.82 132.08 167.324 131.736C167.828 131.384 168.604 131.192 169.652 131.16L170.744 131.124V130.74C170.744 130.204 170.628 129.832 170.396 129.624C170.164 129.416 169.836 129.312 169.412 129.312C169.076 129.312 168.756 129.364 168.452 129.468C168.148 129.564 167.864 129.676 167.6 129.804L167.276 129.012C167.556 128.86 167.888 128.732 168.272 128.628C168.656 128.516 169.056 128.46 169.472 128.46ZM170.732 131.856L169.784 131.892C168.984 131.924 168.428 132.052 168.116 132.276C167.812 132.5 167.66 132.816 167.66 133.224C167.66 133.584 167.768 133.848 167.984 134.016C168.208 134.184 168.492 134.268 168.836 134.268C169.372 134.268 169.82 134.12 170.18 133.824C170.548 133.52 170.732 133.056 170.732 132.432V131.856ZM176.342 135.12C175.766 135.12 175.258 135.004 174.818 134.772C174.378 134.54 174.03 134.18 173.774 133.692C173.526 133.204 173.402 132.58 173.402 131.82C173.402 131.028 173.53 130.384 173.786 129.888C174.05 129.392 174.41 129.028 174.866 128.796C175.322 128.564 175.838 128.448 176.414 128.448C176.734 128.448 177.046 128.484 177.35 128.556C177.662 128.62 177.914 128.7 178.106 128.796L177.782 129.672C177.59 129.6 177.366 129.532 177.11 129.468C176.854 129.404 176.614 129.372 176.39 129.372C175.126 129.372 174.494 130.184 174.494 131.808C174.494 132.584 174.646 133.18 174.95 133.596C175.262 134.004 175.722 134.208 176.33 134.208C176.674 134.208 176.982 134.172 177.254 134.1C177.526 134.028 177.774 133.94 177.998 133.836V134.772C177.782 134.884 177.542 134.968 177.278 135.024C177.022 135.088 176.71 135.12 176.342 135.12ZM181.676 134.256C181.836 134.256 182 134.244 182.168 134.22C182.336 134.196 182.472 134.164 182.576 134.124V134.928C182.464 134.984 182.304 135.028 182.096 135.06C181.888 135.1 181.688 135.12 181.496 135.12C181.16 135.12 180.848 135.064 180.56 134.952C180.28 134.832 180.052 134.628 179.876 134.34C179.7 134.052 179.612 133.648 179.612 133.128V129.384H178.7V128.88L179.624 128.46L180.044 127.092H180.668V128.568H182.528V129.384H180.668V133.104C180.668 133.496 180.76 133.788 180.944 133.98C181.136 134.164 181.38 134.256 181.676 134.256ZM186.348 128.448C186.892 128.448 187.364 128.568 187.764 128.808C188.164 129.048 188.468 129.388 188.676 129.828C188.892 130.26 189 130.768 189 131.352V131.988H184.596C184.612 132.716 184.796 133.272 185.148 133.656C185.508 134.032 186.008 134.22 186.648 134.22C187.056 134.22 187.416 134.184 187.728 134.112C188.048 134.032 188.376 133.92 188.712 133.776V134.7C188.384 134.844 188.06 134.948 187.74 135.012C187.42 135.084 187.04 135.12 186.6 135.12C185.984 135.12 185.444 134.996 184.98 134.748C184.516 134.5 184.152 134.132 183.888 133.644C183.632 133.156 183.504 132.552 183.504 131.832C183.504 131.128 183.62 130.524 183.852 130.02C184.092 129.516 184.424 129.128 184.848 128.856C185.28 128.584 185.78 128.448 186.348 128.448ZM186.336 129.312C185.832 129.312 185.432 129.476 185.136 129.804C184.848 130.124 184.676 130.572 184.62 131.148H187.896C187.888 130.604 187.76 130.164 187.512 129.828C187.264 129.484 186.872 129.312 186.336 129.312ZM193.637 128.448C193.757 128.448 193.885 128.456 194.021 128.472C194.157 128.48 194.281 128.496 194.393 128.52L194.261 129.492C194.157 129.468 194.041 129.448 193.913 129.432C193.785 129.416 193.669 129.408 193.565 129.408C193.237 129.408 192.929 129.5 192.641 129.684C192.353 129.86 192.121 130.112 191.945 130.44C191.777 130.76 191.693 131.136 191.693 131.568V135H190.637V128.568H191.501L191.621 129.744H191.669C191.869 129.392 192.133 129.088 192.461 128.832C192.797 128.576 193.189 128.448 193.637 128.448ZM199.782 133.224C199.782 133.848 199.55 134.32 199.086 134.64C198.622 134.96 197.998 135.12 197.214 135.12C196.766 135.12 196.378 135.084 196.05 135.012C195.73 134.94 195.446 134.84 195.198 134.712V133.752C195.454 133.88 195.762 134 196.122 134.112C196.49 134.216 196.862 134.268 197.238 134.268C197.774 134.268 198.162 134.184 198.402 134.016C198.642 133.84 198.762 133.608 198.762 133.32C198.762 133.16 198.718 133.016 198.63 132.888C198.542 132.76 198.382 132.632 198.15 132.504C197.926 132.376 197.602 132.232 197.178 132.072C196.762 131.912 196.406 131.752 196.11 131.592C195.814 131.432 195.586 131.24 195.426 131.016C195.266 130.792 195.186 130.504 195.186 130.152C195.186 129.608 195.406 129.188 195.846 128.892C196.294 128.596 196.878 128.448 197.598 128.448C197.99 128.448 198.354 128.488 198.69 128.568C199.034 128.648 199.354 128.752 199.65 128.88L199.29 129.72C199.018 129.608 198.734 129.512 198.438 129.432C198.142 129.352 197.838 129.312 197.526 129.312C197.094 129.312 196.762 129.384 196.53 129.528C196.306 129.664 196.194 129.852 196.194 130.092C196.194 130.276 196.246 130.428 196.35 130.548C196.454 130.668 196.626 130.788 196.866 130.908C197.114 131.028 197.442 131.164 197.85 131.316C198.258 131.468 198.606 131.624 198.894 131.784C199.182 131.944 199.402 132.14 199.554 132.372C199.706 132.596 199.782 132.88 199.782 133.224ZM201.18 134.352C201.18 134.056 201.252 133.848 201.396 133.728C201.54 133.608 201.712 133.548 201.912 133.548C202.112 133.548 202.288 133.608 202.44 133.728C202.592 133.848 202.668 134.056 202.668 134.352C202.668 134.64 202.592 134.848 202.44 134.976C202.288 135.104 202.112 135.168 201.912 135.168C201.712 135.168 201.54 135.104 201.396 134.976C201.252 134.848 201.18 134.64 201.18 134.352Z" fill="#5E5E5E"/>
</svg>
