<svg width="904" height="214" viewBox="0 0 904 214" fill="none" xmlns="http://www.w3.org/2000/svg">
<rect width="904" height="214" fill="white"/>
<path d="M354.664 77.64V69.072H355.744V76.68H359.488V77.64H354.664ZM363.249 71.1C364.033 71.1 364.613 71.272 364.989 71.616C365.365 71.96 365.553 72.508 365.553 73.26V77.64H364.785L364.581 76.728H364.533C364.253 77.08 363.957 77.34 363.645 77.508C363.333 77.676 362.909 77.76 362.373 77.76C361.789 77.76 361.305 77.608 360.921 77.304C360.537 76.992 360.345 76.508 360.345 75.852C360.345 75.212 360.597 74.72 361.101 74.376C361.605 74.024 362.381 73.832 363.429 73.8L364.521 73.764V73.38C364.521 72.844 364.405 72.472 364.173 72.264C363.941 72.056 363.613 71.952 363.189 71.952C362.853 71.952 362.533 72.004 362.229 72.108C361.925 72.204 361.641 72.316 361.377 72.444L361.053 71.652C361.333 71.5 361.665 71.372 362.049 71.268C362.433 71.156 362.833 71.1 363.249 71.1ZM364.509 74.496L363.561 74.532C362.761 74.564 362.205 74.692 361.893 74.916C361.589 75.14 361.437 75.456 361.437 75.864C361.437 76.224 361.545 76.488 361.761 76.656C361.985 76.824 362.269 76.908 362.613 76.908C363.149 76.908 363.597 76.76 363.957 76.464C364.325 76.16 364.509 75.696 364.509 75.072V74.496ZM368.596 68.52V70.74C368.596 71.012 368.588 71.268 368.572 71.508C368.564 71.74 368.552 71.924 368.536 72.06H368.596C368.78 71.788 369.032 71.56 369.352 71.376C369.672 71.192 370.084 71.1 370.588 71.1C371.388 71.1 372.028 71.38 372.508 71.94C372.996 72.492 373.24 73.32 373.24 74.424C373.24 75.528 372.996 76.36 372.508 76.92C372.02 77.48 371.38 77.76 370.588 77.76C370.084 77.76 369.672 77.668 369.352 77.484C369.032 77.3 368.78 77.08 368.596 76.824H368.512L368.296 77.64H367.54V68.52H368.596ZM370.408 71.976C369.72 71.976 369.244 72.172 368.98 72.564C368.724 72.956 368.596 73.564 368.596 74.388V74.436C368.596 75.228 368.724 75.836 368.98 76.26C369.244 76.676 369.728 76.884 370.432 76.884C371.008 76.884 371.436 76.672 371.716 76.248C372.004 75.824 372.148 75.212 372.148 74.412C372.148 72.788 371.568 71.976 370.408 71.976ZM377.406 71.088C377.95 71.088 378.422 71.208 378.822 71.448C379.222 71.688 379.526 72.028 379.734 72.468C379.95 72.9 380.058 73.408 380.058 73.992V74.628H375.654C375.67 75.356 375.854 75.912 376.206 76.296C376.566 76.672 377.066 76.86 377.706 76.86C378.114 76.86 378.474 76.824 378.786 76.752C379.106 76.672 379.434 76.56 379.77 76.416V77.34C379.442 77.484 379.118 77.588 378.798 77.652C378.478 77.724 378.098 77.76 377.658 77.76C377.042 77.76 376.502 77.636 376.038 77.388C375.574 77.14 375.21 76.772 374.946 76.284C374.69 75.796 374.562 75.192 374.562 74.472C374.562 73.768 374.678 73.164 374.91 72.66C375.15 72.156 375.482 71.768 375.906 71.496C376.338 71.224 376.838 71.088 377.406 71.088ZM377.394 71.952C376.89 71.952 376.49 72.116 376.194 72.444C375.906 72.764 375.734 73.212 375.678 73.788H378.954C378.946 73.244 378.818 72.804 378.57 72.468C378.322 72.124 377.93 71.952 377.394 71.952ZM382.752 77.64H381.696V68.52H382.752V77.64Z" fill="#323232"/>
<path d="M390.364 68.52L390.124 70.824L392.428 70.176L392.596 71.28L390.388 71.46L391.816 73.356L390.784 73.92L389.764 71.82L388.84 73.92L387.772 73.356L389.176 71.46L386.992 71.28L387.16 70.176L389.44 70.824L389.188 68.52H390.364Z" fill="#B51418"/>
<rect x="354" y="85.14" width="199" height="35" rx="1.5" fill="white"/>
<path d="M370.022 107.64H368.762V98.75H365.64V97.644H373.13V98.75H370.022V107.64ZM376.383 99.996C377.018 99.996 377.568 100.136 378.035 100.416C378.502 100.696 378.856 101.093 379.099 101.606C379.351 102.11 379.477 102.703 379.477 103.384V104.126H374.339C374.358 104.975 374.572 105.624 374.983 106.072C375.403 106.511 375.986 106.73 376.733 106.73C377.209 106.73 377.629 106.688 377.993 106.604C378.366 106.511 378.749 106.38 379.141 106.212V107.29C378.758 107.458 378.38 107.579 378.007 107.654C377.634 107.738 377.19 107.78 376.677 107.78C375.958 107.78 375.328 107.635 374.787 107.346C374.246 107.057 373.821 106.627 373.513 106.058C373.214 105.489 373.065 104.784 373.065 103.944C373.065 103.123 373.2 102.418 373.471 101.83C373.751 101.242 374.138 100.789 374.633 100.472C375.137 100.155 375.72 99.996 376.383 99.996ZM376.369 101.004C375.781 101.004 375.314 101.195 374.969 101.578C374.633 101.951 374.432 102.474 374.367 103.146H378.189C378.18 102.511 378.03 101.998 377.741 101.606C377.452 101.205 376.994 101.004 376.369 101.004ZM382.892 103.804L380.302 100.136H381.702L383.634 102.964L385.552 100.136H386.938L384.348 103.804L387.078 107.64H385.678L383.634 104.644L381.562 107.64H380.176L382.892 103.804ZM391.03 106.772C391.217 106.772 391.408 106.758 391.604 106.73C391.8 106.702 391.959 106.665 392.08 106.618V107.556C391.949 107.621 391.763 107.673 391.52 107.71C391.277 107.757 391.044 107.78 390.82 107.78C390.428 107.78 390.064 107.715 389.728 107.584C389.401 107.444 389.135 107.206 388.93 106.87C388.725 106.534 388.622 106.063 388.622 105.456V101.088H387.558V100.5L388.636 100.01L389.126 98.414H389.854V100.136H392.024V101.088H389.854V105.428C389.854 105.885 389.961 106.226 390.176 106.45C390.4 106.665 390.685 106.772 391.03 106.772Z" fill="black"/>
<rect x="354" y="85.14" width="199" height="35" rx="1.5" stroke="#939393"/>
<path d="M360.04 137.64L359.008 134.988H355.612L354.592 137.64H353.5L356.848 129.036H357.82L361.156 137.64H360.04ZM358.684 134.028L357.724 131.436C357.7 131.372 357.66 131.256 357.604 131.088C357.548 130.92 357.492 130.748 357.436 130.572C357.388 130.388 357.348 130.248 357.316 130.152C357.252 130.4 357.184 130.644 357.112 130.884C357.048 131.116 356.992 131.3 356.944 131.436L355.972 134.028H358.684ZM364.464 137.76C363.664 137.76 363.024 137.484 362.544 136.932C362.064 136.372 361.824 135.54 361.824 134.436C361.824 133.332 362.064 132.5 362.544 131.94C363.032 131.372 363.676 131.088 364.476 131.088C364.972 131.088 365.376 131.18 365.688 131.364C366.008 131.548 366.268 131.772 366.468 132.036H366.54C366.524 131.932 366.508 131.78 366.492 131.58C366.476 131.372 366.468 131.208 366.468 131.088V128.52H367.524V137.64H366.672L366.516 136.776H366.468C366.276 137.048 366.02 137.28 365.7 137.472C365.38 137.664 364.968 137.76 364.464 137.76ZM364.632 136.884C365.312 136.884 365.788 136.7 366.06 136.332C366.34 135.956 366.48 135.392 366.48 134.64V134.448C366.48 133.648 366.348 133.036 366.084 132.612C365.82 132.18 365.332 131.964 364.62 131.964C364.052 131.964 363.624 132.192 363.336 132.648C363.056 133.096 362.916 133.7 362.916 134.46C362.916 135.228 363.056 135.824 363.336 136.248C363.624 136.672 364.056 136.884 364.632 136.884ZM371.847 137.76C371.047 137.76 370.407 137.484 369.927 136.932C369.447 136.372 369.207 135.54 369.207 134.436C369.207 133.332 369.447 132.5 369.927 131.94C370.415 131.372 371.059 131.088 371.859 131.088C372.355 131.088 372.759 131.18 373.071 131.364C373.391 131.548 373.651 131.772 373.851 132.036H373.923C373.907 131.932 373.891 131.78 373.875 131.58C373.859 131.372 373.851 131.208 373.851 131.088V128.52H374.907V137.64H374.055L373.899 136.776H373.851C373.659 137.048 373.403 137.28 373.083 137.472C372.763 137.664 372.351 137.76 371.847 137.76ZM372.015 136.884C372.695 136.884 373.171 136.7 373.443 136.332C373.723 135.956 373.863 135.392 373.863 134.64V134.448C373.863 133.648 373.731 133.036 373.467 132.612C373.203 132.18 372.715 131.964 372.003 131.964C371.435 131.964 371.007 132.192 370.719 132.648C370.439 133.096 370.299 133.7 370.299 134.46C370.299 135.228 370.439 135.824 370.719 136.248C371.007 136.672 371.439 136.884 372.015 136.884ZM377.49 128.796C377.65 128.796 377.79 128.852 377.91 128.964C378.038 129.068 378.102 129.236 378.102 129.468C378.102 129.7 378.038 129.872 377.91 129.984C377.79 130.088 377.65 130.14 377.49 130.14C377.314 130.14 377.166 130.088 377.046 129.984C376.926 129.872 376.866 129.7 376.866 129.468C376.866 129.236 376.926 129.068 377.046 128.964C377.166 128.852 377.314 128.796 377.49 128.796ZM378.006 131.208V137.64H376.95V131.208H378.006ZM382.191 136.896C382.351 136.896 382.515 136.884 382.683 136.86C382.851 136.836 382.987 136.804 383.091 136.764V137.568C382.979 137.624 382.819 137.668 382.611 137.7C382.403 137.74 382.203 137.76 382.011 137.76C381.675 137.76 381.363 137.704 381.075 137.592C380.795 137.472 380.567 137.268 380.391 136.98C380.215 136.692 380.127 136.288 380.127 135.768V132.024H379.215V131.52L380.139 131.1L380.559 129.732H381.183V131.208H383.043V132.024H381.183V135.744C381.183 136.136 381.275 136.428 381.459 136.62C381.651 136.804 381.895 136.896 382.191 136.896ZM384.919 128.796C385.079 128.796 385.219 128.852 385.339 128.964C385.467 129.068 385.531 129.236 385.531 129.468C385.531 129.7 385.467 129.872 385.339 129.984C385.219 130.088 385.079 130.14 384.919 130.14C384.743 130.14 384.595 130.088 384.475 129.984C384.355 129.872 384.295 129.7 384.295 129.468C384.295 129.236 384.355 129.068 384.475 128.964C384.595 128.852 384.743 128.796 384.919 128.796ZM385.435 131.208V137.64H384.379V131.208H385.435ZM393.065 134.412C393.065 135.476 392.793 136.3 392.249 136.884C391.713 137.468 390.985 137.76 390.065 137.76C389.497 137.76 388.989 137.632 388.541 137.376C388.101 137.112 387.753 136.732 387.497 136.236C387.241 135.732 387.113 135.124 387.113 134.412C387.113 133.348 387.377 132.528 387.905 131.952C388.441 131.376 389.173 131.088 390.101 131.088C390.677 131.088 391.189 131.22 391.637 131.484C392.085 131.74 392.433 132.116 392.681 132.612C392.937 133.1 393.065 133.7 393.065 134.412ZM388.205 134.412C388.205 135.172 388.353 135.776 388.649 136.224C388.953 136.664 389.433 136.884 390.089 136.884C390.737 136.884 391.213 136.664 391.517 136.224C391.821 135.776 391.973 135.172 391.973 134.412C391.973 133.652 391.821 133.056 391.517 132.624C391.213 132.192 390.733 131.976 390.077 131.976C389.421 131.976 388.945 132.192 388.649 132.624C388.353 133.056 388.205 133.652 388.205 134.412ZM397.835 131.088C398.603 131.088 399.183 131.276 399.575 131.652C399.967 132.028 400.163 132.628 400.163 133.452V137.64H399.119V133.524C399.119 132.492 398.639 131.976 397.679 131.976C396.967 131.976 396.475 132.176 396.203 132.576C395.931 132.976 395.795 133.552 395.795 134.304V137.64H394.739V131.208H395.591L395.747 132.084H395.807C396.015 131.748 396.303 131.5 396.671 131.34C397.039 131.172 397.427 131.088 397.835 131.088ZM404.593 131.1C405.377 131.1 405.957 131.272 406.333 131.616C406.709 131.96 406.897 132.508 406.897 133.26V137.64H406.129L405.925 136.728H405.877C405.597 137.08 405.301 137.34 404.989 137.508C404.677 137.676 404.253 137.76 403.717 137.76C403.133 137.76 402.649 137.608 402.265 137.304C401.881 136.992 401.689 136.508 401.689 135.852C401.689 135.212 401.941 134.72 402.445 134.376C402.949 134.024 403.725 133.832 404.773 133.8L405.865 133.764V133.38C405.865 132.844 405.749 132.472 405.517 132.264C405.285 132.056 404.957 131.952 404.533 131.952C404.197 131.952 403.877 132.004 403.573 132.108C403.269 132.204 402.985 132.316 402.721 132.444L402.397 131.652C402.677 131.5 403.009 131.372 403.393 131.268C403.777 131.156 404.177 131.1 404.593 131.1ZM405.853 134.496L404.905 134.532C404.105 134.564 403.549 134.692 403.237 134.916C402.933 135.14 402.781 135.456 402.781 135.864C402.781 136.224 402.889 136.488 403.105 136.656C403.329 136.824 403.613 136.908 403.957 136.908C404.493 136.908 404.941 136.76 405.301 136.464C405.669 136.16 405.853 135.696 405.853 135.072V134.496ZM409.939 137.64H408.883V128.52H409.939V137.64ZM417.674 137.76C417.098 137.76 416.59 137.644 416.15 137.412C415.71 137.18 415.362 136.82 415.106 136.332C414.858 135.844 414.734 135.22 414.734 134.46C414.734 133.668 414.862 133.024 415.118 132.528C415.382 132.032 415.742 131.668 416.198 131.436C416.654 131.204 417.17 131.088 417.746 131.088C418.066 131.088 418.378 131.124 418.682 131.196C418.994 131.26 419.246 131.34 419.438 131.436L419.114 132.312C418.922 132.24 418.698 132.172 418.442 132.108C418.186 132.044 417.946 132.012 417.722 132.012C416.458 132.012 415.826 132.824 415.826 134.448C415.826 135.224 415.978 135.82 416.282 136.236C416.594 136.644 417.054 136.848 417.662 136.848C418.006 136.848 418.314 136.812 418.586 136.74C418.858 136.668 419.106 136.58 419.33 136.476V137.412C419.114 137.524 418.874 137.608 418.61 137.664C418.354 137.728 418.042 137.76 417.674 137.76ZM426.452 134.412C426.452 135.476 426.18 136.3 425.636 136.884C425.1 137.468 424.372 137.76 423.452 137.76C422.884 137.76 422.376 137.632 421.928 137.376C421.488 137.112 421.14 136.732 420.884 136.236C420.628 135.732 420.5 135.124 420.5 134.412C420.5 133.348 420.764 132.528 421.292 131.952C421.828 131.376 422.56 131.088 423.488 131.088C424.064 131.088 424.576 131.22 425.024 131.484C425.472 131.74 425.82 132.116 426.068 132.612C426.324 133.1 426.452 133.7 426.452 134.412ZM421.592 134.412C421.592 135.172 421.74 135.776 422.036 136.224C422.34 136.664 422.82 136.884 423.476 136.884C424.124 136.884 424.6 136.664 424.904 136.224C425.208 135.776 425.36 135.172 425.36 134.412C425.36 133.652 425.208 133.056 424.904 132.624C424.6 132.192 424.12 131.976 423.464 131.976C422.808 131.976 422.332 132.192 422.036 132.624C421.74 133.056 421.592 133.652 421.592 134.412ZM431.221 131.088C431.989 131.088 432.569 131.276 432.961 131.652C433.353 132.028 433.549 132.628 433.549 133.452V137.64H432.505V133.524C432.505 132.492 432.025 131.976 431.065 131.976C430.353 131.976 429.861 132.176 429.589 132.576C429.317 132.976 429.181 133.552 429.181 134.304V137.64H428.125V131.208H428.977L429.133 132.084H429.193C429.401 131.748 429.689 131.5 430.057 131.34C430.425 131.172 430.813 131.088 431.221 131.088ZM437.691 136.896C437.851 136.896 438.015 136.884 438.183 136.86C438.351 136.836 438.487 136.804 438.591 136.764V137.568C438.479 137.624 438.319 137.668 438.111 137.7C437.903 137.74 437.703 137.76 437.511 137.76C437.175 137.76 436.863 137.704 436.575 137.592C436.295 137.472 436.067 137.268 435.891 136.98C435.715 136.692 435.627 136.288 435.627 135.768V132.024H434.715V131.52L435.639 131.1L436.059 129.732H436.683V131.208H438.543V132.024H436.683V135.744C436.683 136.136 436.775 136.428 436.959 136.62C437.151 136.804 437.395 136.896 437.691 136.896ZM442.363 131.088C442.907 131.088 443.379 131.208 443.779 131.448C444.179 131.688 444.483 132.028 444.691 132.468C444.907 132.9 445.015 133.408 445.015 133.992V134.628H440.611C440.627 135.356 440.811 135.912 441.163 136.296C441.523 136.672 442.023 136.86 442.663 136.86C443.071 136.86 443.431 136.824 443.743 136.752C444.063 136.672 444.391 136.56 444.727 136.416V137.34C444.399 137.484 444.075 137.588 443.755 137.652C443.435 137.724 443.055 137.76 442.615 137.76C441.999 137.76 441.459 137.636 440.995 137.388C440.531 137.14 440.167 136.772 439.903 136.284C439.647 135.796 439.519 135.192 439.519 134.472C439.519 133.768 439.635 133.164 439.867 132.66C440.107 132.156 440.439 131.768 440.863 131.496C441.295 131.224 441.795 131.088 442.363 131.088ZM442.351 131.952C441.847 131.952 441.447 132.116 441.151 132.444C440.863 132.764 440.691 133.212 440.635 133.788H443.911C443.903 133.244 443.775 132.804 443.527 132.468C443.279 132.124 442.887 131.952 442.351 131.952ZM449.749 131.088C450.517 131.088 451.097 131.276 451.489 131.652C451.881 132.028 452.077 132.628 452.077 133.452V137.64H451.033V133.524C451.033 132.492 450.553 131.976 449.593 131.976C448.881 131.976 448.389 132.176 448.117 132.576C447.845 132.976 447.709 133.552 447.709 134.304V137.64H446.653V131.208H447.505L447.661 132.084H447.721C447.929 131.748 448.217 131.5 448.585 131.34C448.953 131.172 449.341 131.088 449.749 131.088ZM456.219 136.896C456.379 136.896 456.543 136.884 456.711 136.86C456.879 136.836 457.015 136.804 457.119 136.764V137.568C457.007 137.624 456.847 137.668 456.639 137.7C456.431 137.74 456.231 137.76 456.039 137.76C455.703 137.76 455.391 137.704 455.103 137.592C454.823 137.472 454.595 137.268 454.419 136.98C454.243 136.692 454.155 136.288 454.155 135.768V132.024H453.243V131.52L454.167 131.1L454.587 129.732H455.211V131.208H457.071V132.024H455.211V135.744C455.211 136.136 455.303 136.428 455.487 136.62C455.679 136.804 455.923 136.896 456.219 136.896Z" fill="#5E5E5E"/>
<path d="M357.5 140V166" stroke="#D51588"/>
<circle cx="357.5" cy="178" r="12" fill="#D51588"/>
<path d="M358.068 176.714C358.703 176.714 359.263 176.831 359.748 177.064C360.233 177.297 360.611 177.638 360.882 178.086C361.162 178.525 361.302 179.066 361.302 179.71C361.302 180.783 360.966 181.623 360.294 182.23C359.631 182.837 358.67 183.14 357.41 183.14C356.887 183.14 356.393 183.093 355.926 183C355.469 182.907 355.077 182.771 354.75 182.594V181.026C355.095 181.213 355.506 181.367 355.982 181.488C356.467 181.609 356.929 181.67 357.368 181.67C358.031 181.67 358.549 181.525 358.922 181.236C359.305 180.947 359.496 180.494 359.496 179.878C359.496 179.327 359.319 178.907 358.964 178.618C358.609 178.319 358.059 178.17 357.312 178.17C357.041 178.17 356.757 178.193 356.458 178.24C356.159 178.287 355.912 178.333 355.716 178.38L354.96 177.96L355.338 173.004H360.602V174.544H356.892L356.682 176.854C356.841 176.826 357.027 176.798 357.242 176.77C357.466 176.733 357.741 176.714 358.068 176.714Z" fill="white"/>
<circle cx="312.5" cy="75" r="12" fill="#D51588"/>
<path d="M314.468 80H312.704V73.77C312.704 73.4713 312.709 73.154 312.718 72.818C312.727 72.482 312.741 72.1693 312.76 71.88C312.667 71.9733 312.55 72.0853 312.41 72.216C312.279 72.3467 312.135 72.4727 311.976 72.594L310.856 73.49L309.974 72.398L312.998 70.004H314.468V80Z" fill="white"/>
<path d="M324.5 75H353.5" stroke="#D51588"/>
<circle cx="390" cy="36" r="12" fill="#D51588"/>
<path d="M393.942 41H387.096V39.698L389.644 37.122C390.148 36.6087 390.559 36.17 390.876 35.806C391.203 35.442 391.441 35.1013 391.59 34.784C391.749 34.4573 391.828 34.1073 391.828 33.734C391.828 33.2767 391.697 32.936 391.436 32.712C391.184 32.4787 390.839 32.362 390.4 32.362C389.98 32.362 389.588 32.4507 389.224 32.628C388.86 32.796 388.482 33.0387 388.09 33.356L387.124 32.194C387.535 31.8393 387.997 31.5313 388.51 31.27C389.033 30.9993 389.695 30.864 390.498 30.864C391.142 30.864 391.693 30.9807 392.15 31.214C392.617 31.438 392.976 31.7553 393.228 32.166C393.48 32.5673 393.606 33.0293 393.606 33.552C393.606 34.0933 393.499 34.5927 393.284 35.05C393.069 35.498 392.757 35.9507 392.346 36.408C391.945 36.856 391.464 37.3413 390.904 37.864L389.322 39.39V39.474H393.942V41Z" fill="white"/>
<path d="M390 48V64" stroke="#D51588"/>
<circle cx="312.5" cy="103" r="12" fill="#D51588"/>
<path d="M316.05 100.286C316.05 100.967 315.849 101.513 315.448 101.924C315.056 102.325 314.547 102.596 313.922 102.736V102.778C314.725 102.881 315.331 103.133 315.742 103.534C316.153 103.935 316.358 104.463 316.358 105.116C316.358 105.695 316.218 106.213 315.938 106.67C315.658 107.127 315.224 107.487 314.636 107.748C314.057 108.009 313.311 108.14 312.396 108.14C311.845 108.14 311.337 108.093 310.87 108C310.413 107.916 309.979 107.781 309.568 107.594V106.04C309.988 106.255 310.436 106.418 310.912 106.53C311.388 106.642 311.836 106.698 312.256 106.698C313.068 106.698 313.642 106.553 313.978 106.264C314.314 105.965 314.482 105.555 314.482 105.032C314.482 104.537 314.286 104.169 313.894 103.926C313.502 103.683 312.849 103.562 311.934 103.562H311.094V102.148H311.948C312.835 102.148 313.446 102.003 313.782 101.714C314.118 101.425 314.286 101.051 314.286 100.594C314.286 100.193 314.155 99.88 313.894 99.656C313.633 99.432 313.241 99.32 312.718 99.32C312.214 99.32 311.78 99.404 311.416 99.572C311.052 99.7307 310.725 99.9033 310.436 100.09L309.596 98.872C309.979 98.592 310.431 98.354 310.954 98.158C311.477 97.962 312.093 97.864 312.802 97.864C313.838 97.864 314.636 98.0833 315.196 98.522C315.765 98.9607 316.05 99.5487 316.05 100.286Z" fill="white"/>
<path d="M324.5 103H365.5" stroke="#D51588"/>
<path d="M553.5 103H579.5" stroke="#D51588"/>
<circle cx="591.5" cy="103" r="12" fill="#D51588"/>
<path d="M595.75 105.858H594.448V108H592.712V105.858H588.26V104.542L592.754 97.976H594.448V104.416H595.75V105.858ZM592.712 104.416V102.176C592.712 101.915 592.717 101.644 592.726 101.364C592.735 101.075 592.745 100.809 592.754 100.566C592.773 100.314 592.787 100.123 592.796 99.992H592.74C592.656 100.179 592.563 100.365 592.46 100.552C592.367 100.729 592.259 100.907 592.138 101.084L589.87 104.416H592.712Z" fill="white"/>
</svg>
