<svg width="412" height="424" viewBox="0 0 412 424" fill="none" xmlns="http://www.w3.org/2000/svg">
<rect width="412" height="424" fill="white"/>
<mask id="path-1-inside-1_6442_492252" fill="white">
<path d="M51 44C51 41.7909 52.7909 40 55 40H357C359.209 40 361 41.7909 361 44V82C361 84.2091 359.209 86 357 86H55C52.7909 86 51 84.2091 51 82V44Z"/>
</mask>
<path d="M51 44C51 41.7909 52.7909 40 55 40H357C359.209 40 361 41.7909 361 44V82C361 84.2091 359.209 86 357 86H55C52.7909 86 51 84.2091 51 82V44Z" fill="white"/>
<path d="M71.768 70H67.64V69.168L68.984 68.864V59.728L67.64 59.408V58.576H71.768V59.408L70.424 59.728V68.864L71.768 69.168V70ZM77.9099 61.264C78.9339 61.264 79.7072 61.5147 80.2299 62.016C80.7525 62.5173 81.0139 63.3173 81.0139 64.416V70H79.6219V64.512C79.6219 63.136 78.9819 62.448 77.7019 62.448C76.7525 62.448 76.0965 62.7147 75.7339 63.248C75.3712 63.7813 75.1899 64.5493 75.1899 65.552V70H73.7819V61.424H74.9179L75.1259 62.592H75.2059C75.4832 62.144 75.8672 61.8133 76.3579 61.6C76.8485 61.376 77.3659 61.264 77.9099 61.264ZM91.0768 61.28C92.1221 61.28 92.8954 61.5093 93.3968 61.968C93.8981 62.4267 94.1488 63.1573 94.1488 64.16V70H93.1248L92.8528 68.784H92.7888C92.4154 69.2533 92.0208 69.6 91.6048 69.824C91.1888 70.048 90.6234 70.16 89.9088 70.16C89.1301 70.16 88.4848 69.9573 87.9728 69.552C87.4608 69.136 87.2048 68.4907 87.2048 67.616C87.2048 66.7627 87.5408 66.1067 88.2128 65.648C88.8848 65.1787 89.9194 64.9227 91.3168 64.88L92.7728 64.832V64.32C92.7728 63.6053 92.6181 63.1093 92.3088 62.832C91.9994 62.5547 91.5621 62.416 90.9968 62.416C90.5488 62.416 90.1221 62.4853 89.7168 62.624C89.3114 62.752 88.9328 62.9013 88.5807 63.072L88.1488 62.016C88.5221 61.8133 88.9648 61.6427 89.4768 61.504C89.9888 61.3547 90.5221 61.28 91.0768 61.28ZM92.7568 65.808L91.4928 65.856C90.4261 65.8987 89.6848 66.0693 89.2688 66.368C88.8634 66.6667 88.6608 67.088 88.6608 67.632C88.6608 68.112 88.8048 68.464 89.0928 68.688C89.3914 68.912 89.7701 69.024 90.2288 69.024C90.9434 69.024 91.5408 68.8267 92.0208 68.432C92.5114 68.0267 92.7568 67.408 92.7568 66.576V65.808ZM100.878 61.264C101.934 61.264 102.782 61.632 103.422 62.368C104.072 63.104 104.398 64.2133 104.398 65.696C104.398 67.1573 104.072 68.2667 103.422 69.024C102.782 69.7813 101.928 70.16 100.862 70.16C100.2 70.16 99.6508 70.0373 99.2135 69.792C98.7868 69.5467 98.4508 69.2533 98.2055 68.912H98.1095C98.1202 69.0933 98.1362 69.3227 98.1575 69.6C98.1895 69.8773 98.2055 70.1173 98.2055 70.32V73.84H96.7975V61.424H97.9495L98.1415 62.592H98.2055C98.4615 62.2187 98.7975 61.904 99.2135 61.648C99.6295 61.392 100.184 61.264 100.878 61.264ZM100.622 62.448C99.7468 62.448 99.1282 62.6933 98.7655 63.184C98.4028 63.6747 98.2162 64.4213 98.2055 65.424V65.696C98.2055 66.752 98.3762 67.568 98.7175 68.144C99.0695 68.7093 99.7148 68.992 100.654 68.992C101.166 68.992 101.592 68.8533 101.934 68.576C102.275 68.288 102.526 67.8933 102.686 67.392C102.856 66.8907 102.942 66.32 102.942 65.68C102.942 64.6987 102.75 63.9147 102.366 63.328C101.992 62.7413 101.411 62.448 100.622 62.448ZM110.721 61.264C111.777 61.264 112.625 61.632 113.265 62.368C113.916 63.104 114.241 64.2133 114.241 65.696C114.241 67.1573 113.916 68.2667 113.265 69.024C112.625 69.7813 111.772 70.16 110.705 70.16C110.044 70.16 109.495 70.0373 109.057 69.792C108.631 69.5467 108.295 69.2533 108.049 68.912H107.953C107.964 69.0933 107.98 69.3227 108.001 69.6C108.033 69.8773 108.049 70.1173 108.049 70.32V73.84H106.641V61.424H107.793L107.985 62.592H108.049C108.305 62.2187 108.641 61.904 109.057 61.648C109.473 61.392 110.028 61.264 110.721 61.264ZM110.465 62.448C109.591 62.448 108.972 62.6933 108.609 63.184C108.247 63.6747 108.06 64.4213 108.049 65.424V65.696C108.049 66.752 108.22 67.568 108.561 68.144C108.913 68.7093 109.559 68.992 110.497 68.992C111.009 68.992 111.436 68.8533 111.777 68.576C112.119 68.288 112.369 67.8933 112.529 67.392C112.7 66.8907 112.785 66.32 112.785 65.68C112.785 64.6987 112.593 63.9147 112.209 63.328C111.836 62.7413 111.255 62.448 110.465 62.448ZM130.049 61.264C131.02 61.264 131.745 61.5147 132.225 62.016C132.705 62.5173 132.945 63.3173 132.945 64.416V70H131.553V64.48C131.553 63.1253 130.972 62.448 129.809 62.448C128.977 62.448 128.38 62.688 128.017 63.168C127.665 63.648 127.489 64.3467 127.489 65.264V70H126.097V64.48C126.097 63.1253 125.511 62.448 124.337 62.448C123.473 62.448 122.876 62.7147 122.545 63.248C122.215 63.7813 122.049 64.5493 122.049 65.552V70H120.641V61.424H121.777L121.985 62.592H122.065C122.332 62.144 122.689 61.8133 123.137 61.6C123.596 61.376 124.081 61.264 124.593 61.264C125.937 61.264 126.812 61.744 127.217 62.704H127.297C127.585 62.2133 127.975 61.8507 128.465 61.616C128.956 61.3813 129.484 61.264 130.049 61.264ZM138.906 61.264C139.632 61.264 140.261 61.424 140.794 61.744C141.328 62.064 141.733 62.5173 142.01 63.104C142.298 63.68 142.442 64.3573 142.442 65.136V65.984H136.57C136.592 66.9547 136.837 67.696 137.306 68.208C137.786 68.7093 138.453 68.96 139.306 68.96C139.85 68.96 140.33 68.912 140.746 68.816C141.173 68.7093 141.61 68.56 142.058 68.368V69.6C141.621 69.792 141.189 69.9307 140.762 70.016C140.336 70.112 139.829 70.16 139.242 70.16C138.421 70.16 137.701 69.9947 137.082 69.664C136.464 69.3333 135.978 68.8427 135.626 68.192C135.285 67.5413 135.114 66.736 135.114 65.776C135.114 64.8373 135.269 64.032 135.578 63.36C135.898 62.688 136.341 62.1707 136.906 61.808C137.482 61.4453 138.149 61.264 138.906 61.264ZM138.89 62.416C138.218 62.416 137.685 62.6347 137.29 63.072C136.906 63.4987 136.677 64.096 136.602 64.864H140.97C140.96 64.1387 140.789 63.552 140.458 63.104C140.128 62.6453 139.605 62.416 138.89 62.416ZM150.21 67.632C150.21 68.464 149.9 69.0933 149.282 69.52C148.663 69.9467 147.831 70.16 146.786 70.16C146.188 70.16 145.671 70.112 145.234 70.016C144.807 69.92 144.428 69.7867 144.098 69.616V68.336C144.439 68.5067 144.85 68.6667 145.33 68.816C145.82 68.9547 146.316 69.024 146.818 69.024C147.532 69.024 148.05 68.912 148.37 68.688C148.69 68.4533 148.85 68.144 148.85 67.76C148.85 67.5467 148.791 67.3547 148.674 67.184C148.556 67.0133 148.343 66.8427 148.034 66.672C147.735 66.5013 147.303 66.3093 146.738 66.096C146.183 65.8827 145.708 65.6693 145.314 65.456C144.919 65.2427 144.615 64.9867 144.402 64.688C144.188 64.3893 144.082 64.0053 144.082 63.536C144.082 62.8107 144.375 62.2507 144.962 61.856C145.559 61.4613 146.338 61.264 147.298 61.264C147.82 61.264 148.306 61.3173 148.754 61.424C149.212 61.5307 149.639 61.6693 150.034 61.84L149.554 62.96C149.191 62.8107 148.812 62.6827 148.418 62.576C148.023 62.4693 147.618 62.416 147.202 62.416C146.626 62.416 146.183 62.512 145.874 62.704C145.575 62.8853 145.426 63.136 145.426 63.456C145.426 63.7013 145.495 63.904 145.634 64.064C145.772 64.224 146.002 64.384 146.322 64.544C146.652 64.704 147.09 64.8853 147.634 65.088C148.178 65.2907 148.642 65.4987 149.026 65.712C149.41 65.9253 149.703 66.1867 149.906 66.496C150.108 66.7947 150.21 67.1733 150.21 67.632ZM157.866 67.632C157.866 68.464 157.557 69.0933 156.938 69.52C156.319 69.9467 155.487 70.16 154.442 70.16C153.845 70.16 153.327 70.112 152.89 70.016C152.463 69.92 152.085 69.7867 151.754 69.616V68.336C152.095 68.5067 152.506 68.6667 152.986 68.816C153.477 68.9547 153.973 69.024 154.474 69.024C155.189 69.024 155.706 68.912 156.026 68.688C156.346 68.4533 156.506 68.144 156.506 67.76C156.506 67.5467 156.447 67.3547 156.33 67.184C156.213 67.0133 155.999 66.8427 155.69 66.672C155.391 66.5013 154.959 66.3093 154.394 66.096C153.839 65.8827 153.365 65.6693 152.97 65.456C152.575 65.2427 152.271 64.9867 152.058 64.688C151.845 64.3893 151.738 64.0053 151.738 63.536C151.738 62.8107 152.031 62.2507 152.618 61.856C153.215 61.4613 153.994 61.264 154.954 61.264C155.477 61.264 155.962 61.3173 156.41 61.424C156.869 61.5307 157.295 61.6693 157.69 61.84L157.21 62.96C156.847 62.8107 156.469 62.6827 156.074 62.576C155.679 62.4693 155.274 62.416 154.858 62.416C154.282 62.416 153.839 62.512 153.53 62.704C153.231 62.8853 153.082 63.136 153.082 63.456C153.082 63.7013 153.151 63.904 153.29 64.064C153.429 64.224 153.658 64.384 153.978 64.544C154.309 64.704 154.746 64.8853 155.29 65.088C155.834 65.2907 156.298 65.4987 156.682 65.712C157.066 65.9253 157.359 66.1867 157.562 66.496C157.765 66.7947 157.866 67.1733 157.866 67.632ZM163.186 61.28C164.231 61.28 165.005 61.5093 165.506 61.968C166.007 62.4267 166.258 63.1573 166.258 64.16V70H165.234L164.962 68.784H164.898C164.525 69.2533 164.13 69.6 163.714 69.824C163.298 70.048 162.733 70.16 162.018 70.16C161.239 70.16 160.594 69.9573 160.082 69.552C159.57 69.136 159.314 68.4907 159.314 67.616C159.314 66.7627 159.65 66.1067 160.322 65.648C160.994 65.1787 162.029 64.9227 163.426 64.88L164.882 64.832V64.32C164.882 63.6053 164.727 63.1093 164.418 62.832C164.109 62.5547 163.671 62.416 163.106 62.416C162.658 62.416 162.231 62.4853 161.826 62.624C161.421 62.752 161.042 62.9013 160.69 63.072L160.258 62.016C160.631 61.8133 161.074 61.6427 161.586 61.504C162.098 61.3547 162.631 61.28 163.186 61.28ZM164.866 65.808L163.602 65.856C162.535 65.8987 161.794 66.0693 161.378 66.368C160.973 66.6667 160.77 67.088 160.77 67.632C160.77 68.112 160.914 68.464 161.202 68.688C161.501 68.912 161.879 69.024 162.338 69.024C163.053 69.024 163.65 68.8267 164.13 68.432C164.621 68.0267 164.866 67.408 164.866 66.576V65.808ZM171.947 61.264C172.512 61.264 173.019 61.3707 173.467 61.584C173.926 61.7973 174.315 62.1227 174.635 62.56H174.715L174.907 61.424H176.027V70.144C176.027 71.3707 175.712 72.2933 175.083 72.912C174.464 73.5307 173.499 73.84 172.187 73.84C170.928 73.84 169.899 73.6587 169.099 73.296V72C169.942 72.448 170.998 72.672 172.267 72.672C173.003 72.672 173.579 72.4533 173.995 72.016C174.422 71.5893 174.635 71.0027 174.635 70.256V69.92C174.635 69.792 174.64 69.6107 174.651 69.376C174.662 69.1307 174.672 68.96 174.683 68.864H174.619C174.043 69.728 173.158 70.16 171.963 70.16C170.854 70.16 169.984 69.7707 169.355 68.992C168.736 68.2133 168.427 67.1253 168.427 65.728C168.427 64.3627 168.736 63.28 169.355 62.48C169.984 61.6693 170.848 61.264 171.947 61.264ZM172.139 62.448C171.424 62.448 170.87 62.736 170.475 63.312C170.08 63.8773 169.883 64.688 169.883 65.744C169.883 66.8 170.075 67.6107 170.459 68.176C170.843 68.7307 171.414 69.008 172.171 69.008C173.035 69.008 173.664 68.7787 174.059 68.32C174.454 67.8507 174.651 67.0987 174.651 66.064V65.728C174.651 64.5653 174.448 63.728 174.043 63.216C173.638 62.704 173.003 62.448 172.139 62.448ZM179.471 58.208C179.684 58.208 179.871 58.2827 180.031 58.432C180.201 58.5707 180.287 58.7947 180.287 59.104C180.287 59.4133 180.201 59.6427 180.031 59.792C179.871 59.9307 179.684 60 179.471 60C179.236 60 179.039 59.9307 178.879 59.792C178.719 59.6427 178.639 59.4133 178.639 59.104C178.639 58.7947 178.719 58.5707 178.879 58.432C179.039 58.2827 179.236 58.208 179.471 58.208ZM180.159 61.424V70H178.751V61.424H180.159ZM187.004 61.264C188.028 61.264 188.801 61.5147 189.324 62.016C189.846 62.5173 190.108 63.3173 190.108 64.416V70H188.716V64.512C188.716 63.136 188.076 62.448 186.796 62.448C185.846 62.448 185.19 62.7147 184.828 63.248C184.465 63.7813 184.284 64.5493 184.284 65.552V70H182.876V61.424H184.012L184.22 62.592H184.3C184.577 62.144 184.961 61.8133 185.452 61.6C185.942 61.376 186.46 61.264 187.004 61.264ZM195.806 61.264C196.372 61.264 196.878 61.3707 197.326 61.584C197.785 61.7973 198.174 62.1227 198.494 62.56H198.574L198.766 61.424H199.886V70.144C199.886 71.3707 199.572 72.2933 198.942 72.912C198.324 73.5307 197.358 73.84 196.046 73.84C194.788 73.84 193.758 73.6587 192.958 73.296V72C193.801 72.448 194.857 72.672 196.126 72.672C196.862 72.672 197.438 72.4533 197.854 72.016C198.281 71.5893 198.494 71.0027 198.494 70.256V69.92C198.494 69.792 198.5 69.6107 198.51 69.376C198.521 69.1307 198.532 68.96 198.542 68.864H198.478C197.902 69.728 197.017 70.16 195.822 70.16C194.713 70.16 193.844 69.7707 193.214 68.992C192.596 68.2133 192.286 67.1253 192.286 65.728C192.286 64.3627 192.596 63.28 193.214 62.48C193.844 61.6693 194.708 61.264 195.806 61.264ZM195.998 62.448C195.284 62.448 194.729 62.736 194.334 63.312C193.94 63.8773 193.742 64.688 193.742 65.744C193.742 66.8 193.934 67.6107 194.318 68.176C194.702 68.7307 195.273 69.008 196.03 69.008C196.894 69.008 197.524 68.7787 197.918 68.32C198.313 67.8507 198.51 67.0987 198.51 66.064V65.728C198.51 64.5653 198.308 63.728 197.902 63.216C197.497 62.704 196.862 62.448 195.998 62.448Z" fill="black"/>
<path d="M340 69.9625C339.9 69.9625 339.8 69.9125 339.75 69.8625L334.1 64.2625C334.05 64.2125 334 64.1125 334 64.0125C334 63.9125 334.05 63.8125 334.1 63.7625L339.7 58.1125C339.85 57.9625 340.1 57.9625 340.25 58.1125C340.4 58.2625 340.4 58.5125 340.25 58.6625L334.9 64.0125L340.25 69.3625C340.4 69.5125 340.4 69.7625 340.25 69.9125C340.15 69.9625 340.1 69.9625 340 69.9625Z" fill="black"/>
<path d="M50 44C50 41.2386 52.2386 39 55 39H357C359.761 39 362 41.2386 362 44H360C360 42.3431 358.657 41 357 41H55C53.3431 41 52 42.3431 52 44H50ZM362 82C362 84.7614 359.761 87 357 87H55C52.2386 87 50 84.7614 50 82H52C52 83.6569 53.3431 85 55 85H357C358.657 85 360 83.6569 360 82H362ZM55 87C52.2386 87 50 84.7614 50 82V44C50 41.2386 52.2386 39 55 39V41C53.3431 41 52 42.3431 52 44V82C52 83.6569 53.3431 85 55 85V87ZM357 39C359.761 39 362 41.2386 362 44V82C362 84.7614 359.761 87 357 87V85C358.657 85 360 83.6569 360 82V44C360 42.3431 358.657 41 357 41V39Z" fill="#939393" mask="url(#path-1-inside-1_6442_492252)"/>
<mask id="path-5-inside-2_6442_492252" fill="white">
<path d="M51 98C51 95.7909 52.7909 94 55 94H357C359.209 94 361 95.7909 361 98V136C361 138.209 359.209 140 357 140H55C52.7909 140 51 138.209 51 136V98Z"/>
</mask>
<path d="M51 98C51 95.7909 52.7909 94 55 94H357C359.209 94 361 95.7909 361 98V136C361 138.209 359.209 140 357 140H55C52.7909 140 51 138.209 51 136V98Z" fill="white"/>
<path d="M72.168 124H70.728V113.84H67.16V112.576H75.72V113.84H72.168V124ZM83.9461 123.984L82.4741 119.152C82.3355 118.715 82.2128 118.288 82.1061 117.872C81.9995 117.456 81.9248 117.125 81.8821 116.88H81.8181C81.7755 117.125 81.7061 117.456 81.6101 117.872C81.5141 118.288 81.3915 118.72 81.2421 119.168L79.7061 123.984H78.1061L75.7541 115.408H77.2101L78.3941 119.984C78.5115 120.443 78.6235 120.907 78.7301 121.376C78.8368 121.845 78.9115 122.235 78.9541 122.544H79.0181C79.0501 122.363 79.0981 122.139 79.1621 121.872C79.2261 121.605 79.2955 121.328 79.3701 121.04C79.4448 120.741 79.5195 120.475 79.5941 120.24L81.1141 115.408H82.6501L84.1221 120.24C84.2288 120.613 84.3408 121.013 84.4581 121.44C84.5755 121.867 84.6555 122.229 84.6981 122.528H84.7621C84.7941 122.261 84.8635 121.893 84.9701 121.424C85.0875 120.955 85.2101 120.475 85.3381 119.984L86.5381 115.408H87.9781L85.5941 123.984H83.9461ZM90.2363 112.208C90.4496 112.208 90.6363 112.283 90.7963 112.432C90.9669 112.571 91.0523 112.795 91.0523 113.104C91.0523 113.413 90.9669 113.643 90.7963 113.792C90.6363 113.931 90.4496 114 90.2363 114C90.0016 114 89.8043 113.931 89.6443 113.792C89.4843 113.643 89.4043 113.413 89.4043 113.104C89.4043 112.795 89.4843 112.571 89.6443 112.432C89.8043 112.283 90.0016 112.208 90.2363 112.208ZM90.9243 115.424V124H89.5163V115.424H90.9243ZM96.5052 123.008C96.7186 123.008 96.9373 122.992 97.1613 122.96C97.3853 122.928 97.5666 122.885 97.7053 122.832V123.904C97.5559 123.979 97.3426 124.037 97.0653 124.08C96.7879 124.133 96.5213 124.16 96.2653 124.16C95.8173 124.16 95.4013 124.085 95.0173 123.936C94.6439 123.776 94.3399 123.504 94.1053 123.12C93.8706 122.736 93.7533 122.197 93.7533 121.504V116.512H92.5373V115.84L93.7693 115.28L94.3293 113.456H95.1613V115.424H97.6413V116.512H95.1613V121.472C95.1613 121.995 95.2839 122.384 95.5293 122.64C95.7853 122.885 96.1106 123.008 96.5052 123.008ZM102.286 123.008C102.5 123.008 102.719 122.992 102.943 122.96C103.167 122.928 103.348 122.885 103.487 122.832V123.904C103.337 123.979 103.124 124.037 102.847 124.08C102.569 124.133 102.303 124.16 102.047 124.16C101.599 124.16 101.183 124.085 100.799 123.936C100.425 123.776 100.121 123.504 99.8865 123.12C99.6518 122.736 99.5345 122.197 99.5345 121.504V116.512H98.3185V115.84L99.5505 115.28L100.111 113.456H100.943V115.424H103.423V116.512H100.943V121.472C100.943 121.995 101.065 122.384 101.311 122.64C101.567 122.885 101.892 123.008 102.286 123.008ZM108.516 115.264C109.241 115.264 109.87 115.424 110.404 115.744C110.937 116.064 111.342 116.517 111.62 117.104C111.908 117.68 112.052 118.357 112.052 119.136V119.984H106.18C106.201 120.955 106.446 121.696 106.916 122.208C107.396 122.709 108.062 122.96 108.916 122.96C109.46 122.96 109.94 122.912 110.356 122.816C110.782 122.709 111.22 122.56 111.668 122.368V123.6C111.23 123.792 110.798 123.931 110.372 124.016C109.945 124.112 109.438 124.16 108.852 124.16C108.03 124.16 107.31 123.995 106.692 123.664C106.073 123.333 105.588 122.843 105.236 122.192C104.894 121.541 104.724 120.736 104.724 119.776C104.724 118.837 104.878 118.032 105.188 117.36C105.508 116.688 105.95 116.171 106.516 115.808C107.092 115.445 107.758 115.264 108.516 115.264ZM108.5 116.416C107.828 116.416 107.294 116.635 106.9 117.072C106.516 117.499 106.286 118.096 106.212 118.864H110.58C110.569 118.139 110.398 117.552 110.068 117.104C109.737 116.645 109.214 116.416 108.5 116.416ZM118.235 115.264C118.395 115.264 118.566 115.275 118.747 115.296C118.928 115.307 119.094 115.328 119.243 115.36L119.067 116.656C118.928 116.624 118.774 116.597 118.603 116.576C118.432 116.555 118.278 116.544 118.139 116.544C117.702 116.544 117.291 116.667 116.907 116.912C116.523 117.147 116.214 117.483 115.979 117.92C115.755 118.347 115.643 118.848 115.643 119.424V124H114.235V115.424H115.387L115.547 116.992H115.611C115.878 116.523 116.23 116.117 116.667 115.776C117.115 115.435 117.638 115.264 118.235 115.264ZM134.345 118.176C134.345 120.107 133.817 121.563 132.761 122.544C131.715 123.515 130.254 124 128.377 124H125.193V112.576H128.713C129.854 112.576 130.846 112.789 131.689 113.216C132.542 113.643 133.198 114.272 133.657 115.104C134.115 115.936 134.345 116.96 134.345 118.176ZM132.825 118.224C132.825 116.699 132.446 115.584 131.689 114.88C130.942 114.165 129.881 113.808 128.505 113.808H126.633V122.768H128.185C131.278 122.768 132.825 121.253 132.825 118.224ZM141.92 124L138.16 113.984H138.096C138.128 114.315 138.155 114.763 138.176 115.328C138.197 115.883 138.208 116.464 138.208 117.072V124H136.88V112.576H139.008L142.528 121.936H142.592L146.176 112.576H148.288V124H146.864V116.976C146.864 116.421 146.875 115.872 146.896 115.328C146.928 114.784 146.955 114.341 146.976 114H146.912L143.104 124H141.92Z" fill="black"/>
<path d="M340 123.962C339.9 123.962 339.8 123.913 339.75 123.863L334.1 118.262C334.05 118.212 334 118.112 334 118.012C334 117.912 334.05 117.812 334.1 117.762L339.7 112.113C339.85 111.962 340.1 111.962 340.25 112.113C340.4 112.263 340.4 112.512 340.25 112.662L334.9 118.012L340.25 123.363C340.4 123.513 340.4 123.762 340.25 123.912C340.15 123.962 340.1 123.962 340 123.962Z" fill="black"/>
<path d="M50 98C50 95.2386 52.2386 93 55 93H357C359.761 93 362 95.2386 362 98H360C360 96.3431 358.657 95 357 95H55C53.3431 95 52 96.3431 52 98H50ZM362 136C362 138.761 359.761 141 357 141H55C52.2386 141 50 138.761 50 136H52C52 137.657 53.3431 139 55 139H357C358.657 139 360 137.657 360 136H362ZM55 141C52.2386 141 50 138.761 50 136V98C50 95.2386 52.2386 93 55 93V95C53.3431 95 52 96.3431 52 98V136C52 137.657 53.3431 139 55 139V141ZM357 93C359.761 93 362 95.2386 362 98V136C362 138.761 359.761 141 357 141V139C358.657 139 360 137.657 360 136V98C360 96.3431 358.657 95 357 95V93Z" fill="#939393" mask="url(#path-5-inside-2_6442_492252)"/>
<mask id="path-9-inside-3_6442_492252" fill="white">
<path d="M51 152C51 149.791 52.7909 148 55 148H357C359.209 148 361 149.791 361 152V327C361 329.209 359.209 331 357 331H55C52.7909 331 51 329.209 51 327V152Z"/>
</mask>
<path d="M51 152C51 149.791 52.7909 148 55 148H357C359.209 148 361 149.791 361 152V327C361 329.209 359.209 331 357 331H55C52.7909 331 51 329.209 51 327V152Z" fill="white"/>
<path d="M68.552 178V166.576H69.992V176.72H74.984V178H68.552ZM77.4706 166.208C77.684 166.208 77.8706 166.283 78.0306 166.432C78.2013 166.571 78.2866 166.795 78.2866 167.104C78.2866 167.413 78.2013 167.643 78.0306 167.792C77.8706 167.931 77.684 168 77.4706 168C77.236 168 77.0386 167.931 76.8786 167.792C76.7186 167.643 76.6386 167.413 76.6386 167.104C76.6386 166.795 76.7186 166.571 76.8786 166.432C77.0386 166.283 77.236 166.208 77.4706 166.208ZM78.1586 169.424V178H76.7506V169.424H78.1586ZM85.0036 169.264C86.0276 169.264 86.801 169.515 87.3236 170.016C87.8463 170.517 88.1076 171.317 88.1076 172.416V178H86.7156V172.512C86.7156 171.136 86.0756 170.448 84.7956 170.448C83.8463 170.448 83.1903 170.715 82.8276 171.248C82.465 171.781 82.2836 172.549 82.2836 173.552V178H80.8756V169.424H82.0116L82.2196 170.592H82.2996C82.577 170.144 82.961 169.813 83.4516 169.6C83.9423 169.376 84.4596 169.264 85.0036 169.264ZM94.0783 169.264C94.8036 169.264 95.4329 169.424 95.9663 169.744C96.4996 170.064 96.9049 170.517 97.1823 171.104C97.4703 171.68 97.6143 172.357 97.6143 173.136V173.984H91.7423C91.7636 174.955 92.0089 175.696 92.4783 176.208C92.9583 176.709 93.6249 176.96 94.4783 176.96C95.0223 176.96 95.5023 176.912 95.9183 176.816C96.3449 176.709 96.7823 176.56 97.2303 176.368V177.6C96.7929 177.792 96.3609 177.931 95.9343 178.016C95.5076 178.112 95.0009 178.16 94.4143 178.16C93.5929 178.16 92.8729 177.995 92.2543 177.664C91.6356 177.333 91.1503 176.843 90.7983 176.192C90.4569 175.541 90.2863 174.736 90.2863 173.776C90.2863 172.837 90.4409 172.032 90.7503 171.36C91.0703 170.688 91.5129 170.171 92.0783 169.808C92.6543 169.445 93.3209 169.264 94.0783 169.264ZM94.0623 170.416C93.3903 170.416 92.8569 170.635 92.4623 171.072C92.0783 171.499 91.8489 172.096 91.7743 172.864H96.1423C96.1316 172.139 95.9609 171.552 95.6303 171.104C95.2996 170.645 94.7769 170.416 94.0623 170.416Z" fill="black"/>
<path d="M337.012 175.362C336.912 175.362 336.812 175.312 336.762 175.262L331.113 169.662C330.962 169.512 330.962 169.262 331.113 169.112C331.263 168.963 331.512 168.963 331.662 169.112L337.012 174.462L342.312 169.112C342.463 168.963 342.713 168.963 342.863 169.112C343.013 169.262 343.013 169.512 342.863 169.662L337.262 175.262C337.162 175.312 337.112 175.362 337.012 175.362Z" fill="black"/>
<path d="M50 152C50 149.239 52.2386 147 55 147H357C359.761 147 362 149.239 362 152H360C360 150.343 358.657 149 357 149H55C53.3431 149 52 150.343 52 152H50ZM362 327C362 329.761 359.761 332 357 332H55C52.2386 332 50 329.761 50 327H52C52 328.657 53.3431 330 55 330H357C358.657 330 360 328.657 360 327H362ZM55 332C52.2386 332 50 329.761 50 327V152C50 149.239 52.2386 147 55 147V149C53.3431 149 52 150.343 52 152V327C52 328.657 53.3431 330 55 330V332ZM357 147C359.761 147 362 149.239 362 152V327C362 329.761 359.761 332 357 332V330C358.657 330 360 328.657 360 327V152C360 150.343 358.657 149 357 149V147Z" fill="#939393" mask="url(#path-9-inside-3_6442_492252)"/>
<rect x="66.5898" y="194.5" width="113" height="23" rx="3.5" fill="#F1F1F1"/>
<path d="M77.5218 202.432C78.6418 202.432 79.4578 202.652 79.9698 203.092C80.4818 203.532 80.7378 204.152 80.7378 204.952C80.7378 205.424 80.6298 205.868 80.4138 206.284C80.2058 206.692 79.8498 207.024 79.3458 207.28C78.8498 207.536 78.1738 207.664 77.3178 207.664H76.3338V211H75.2538V202.432H77.5218ZM77.4258 203.356H76.3338V206.74H77.1978C78.0138 206.74 78.6218 206.608 79.0218 206.344C79.4218 206.08 79.6218 205.632 79.6218 205C79.6218 204.448 79.4418 204.036 79.0818 203.764C78.7298 203.492 78.1778 203.356 77.4258 203.356ZM87.9675 207.772C87.9675 208.836 87.6955 209.66 87.1515 210.244C86.6155 210.828 85.8875 211.12 84.9675 211.12C84.3995 211.12 83.8915 210.992 83.4435 210.736C83.0035 210.472 82.6555 210.092 82.3995 209.596C82.1435 209.092 82.0155 208.484 82.0155 207.772C82.0155 206.708 82.2795 205.888 82.8075 205.312C83.3435 204.736 84.0755 204.448 85.0035 204.448C85.5795 204.448 86.0915 204.58 86.5395 204.844C86.9875 205.1 87.3355 205.476 87.5835 205.972C87.8395 206.46 87.9675 207.06 87.9675 207.772ZM83.1075 207.772C83.1075 208.532 83.2555 209.136 83.5515 209.584C83.8555 210.024 84.3355 210.244 84.9915 210.244C85.6395 210.244 86.1155 210.024 86.4195 209.584C86.7235 209.136 86.8755 208.532 86.8755 207.772C86.8755 207.012 86.7235 206.416 86.4195 205.984C86.1155 205.552 85.6355 205.336 84.9795 205.336C84.3235 205.336 83.8475 205.552 83.5515 205.984C83.2555 206.416 83.1075 207.012 83.1075 207.772ZM93.8291 209.224C93.8291 209.848 93.5971 210.32 93.1331 210.64C92.6691 210.96 92.0451 211.12 91.2611 211.12C90.8131 211.12 90.4251 211.084 90.0971 211.012C89.7771 210.94 89.4931 210.84 89.2451 210.712V209.752C89.5011 209.88 89.8091 210 90.1691 210.112C90.5371 210.216 90.9091 210.268 91.2851 210.268C91.8211 210.268 92.2091 210.184 92.4491 210.016C92.6891 209.84 92.8091 209.608 92.8091 209.32C92.8091 209.16 92.7651 209.016 92.6771 208.888C92.5891 208.76 92.4291 208.632 92.1971 208.504C91.9731 208.376 91.6491 208.232 91.2251 208.072C90.8091 207.912 90.4531 207.752 90.1571 207.592C89.8611 207.432 89.6331 207.24 89.4731 207.016C89.3131 206.792 89.2331 206.504 89.2331 206.152C89.2331 205.608 89.4531 205.188 89.8931 204.892C90.3411 204.596 90.9251 204.448 91.6451 204.448C92.0371 204.448 92.4011 204.488 92.7371 204.568C93.0811 204.648 93.4011 204.752 93.6971 204.88L93.3371 205.72C93.0651 205.608 92.7811 205.512 92.4851 205.432C92.1891 205.352 91.8851 205.312 91.5731 205.312C91.1411 205.312 90.8091 205.384 90.5771 205.528C90.3531 205.664 90.2411 205.852 90.2411 206.092C90.2411 206.276 90.2931 206.428 90.3971 206.548C90.5011 206.668 90.6731 206.788 90.9131 206.908C91.1611 207.028 91.4891 207.164 91.8971 207.316C92.3051 207.468 92.6531 207.624 92.9411 207.784C93.2291 207.944 93.4491 208.14 93.6011 208.372C93.7531 208.596 93.8291 208.88 93.8291 209.224ZM97.5313 210.256C97.6913 210.256 97.8553 210.244 98.0233 210.22C98.1913 210.196 98.3273 210.164 98.4313 210.124V210.928C98.3193 210.984 98.1593 211.028 97.9513 211.06C97.7433 211.1 97.5433 211.12 97.3513 211.12C97.0153 211.12 96.7033 211.064 96.4153 210.952C96.1353 210.832 95.9073 210.628 95.7313 210.34C95.5553 210.052 95.4673 209.648 95.4673 209.128V205.384H94.5553V204.88L95.4793 204.46L95.8993 203.092H96.5233V204.568H98.3833V205.384H96.5233V209.104C96.5233 209.496 96.6153 209.788 96.7993 209.98C96.9913 210.164 97.2353 210.256 97.5313 210.256ZM100.775 201.88V204.1C100.775 204.372 100.767 204.628 100.751 204.868C100.743 205.1 100.731 205.284 100.715 205.42H100.775C100.959 205.148 101.211 204.92 101.531 204.736C101.851 204.552 102.263 204.46 102.767 204.46C103.567 204.46 104.207 204.74 104.687 205.3C105.175 205.852 105.419 206.68 105.419 207.784C105.419 208.888 105.175 209.72 104.687 210.28C104.199 210.84 103.559 211.12 102.767 211.12C102.263 211.12 101.851 211.028 101.531 210.844C101.211 210.66 100.959 210.44 100.775 210.184H100.691L100.475 211H99.7192V201.88H100.775ZM102.587 205.336C101.899 205.336 101.423 205.532 101.159 205.924C100.903 206.316 100.775 206.924 100.775 207.748V207.796C100.775 208.588 100.903 209.196 101.159 209.62C101.423 210.036 101.907 210.244 102.611 210.244C103.187 210.244 103.615 210.032 103.895 209.608C104.183 209.184 104.327 208.572 104.327 207.772C104.327 206.148 103.747 205.336 102.587 205.336ZM109.538 204.46C110.322 204.46 110.902 204.632 111.278 204.976C111.654 205.32 111.842 205.868 111.842 206.62V211H111.074L110.87 210.088H110.822C110.542 210.44 110.246 210.7 109.934 210.868C109.622 211.036 109.198 211.12 108.662 211.12C108.078 211.12 107.594 210.968 107.21 210.664C106.826 210.352 106.634 209.868 106.634 209.212C106.634 208.572 106.886 208.08 107.39 207.736C107.894 207.384 108.67 207.192 109.718 207.16L110.81 207.124V206.74C110.81 206.204 110.694 205.832 110.462 205.624C110.23 205.416 109.902 205.312 109.478 205.312C109.142 205.312 108.822 205.364 108.518 205.468C108.214 205.564 107.93 205.676 107.666 205.804L107.342 205.012C107.622 204.86 107.954 204.732 108.338 204.628C108.722 204.516 109.122 204.46 109.538 204.46ZM110.798 207.856L109.85 207.892C109.05 207.924 108.494 208.052 108.182 208.276C107.878 208.5 107.726 208.816 107.726 209.224C107.726 209.584 107.834 209.848 108.05 210.016C108.274 210.184 108.558 210.268 108.902 210.268C109.438 210.268 109.886 210.12 110.246 209.824C110.614 209.52 110.798 209.056 110.798 208.432V207.856ZM116.409 211.12C115.833 211.12 115.325 211.004 114.885 210.772C114.445 210.54 114.097 210.18 113.841 209.692C113.593 209.204 113.469 208.58 113.469 207.82C113.469 207.028 113.597 206.384 113.853 205.888C114.117 205.392 114.477 205.028 114.933 204.796C115.389 204.564 115.905 204.448 116.481 204.448C116.801 204.448 117.113 204.484 117.417 204.556C117.729 204.62 117.981 204.7 118.173 204.796L117.849 205.672C117.657 205.6 117.433 205.532 117.177 205.468C116.921 205.404 116.681 205.372 116.457 205.372C115.193 205.372 114.561 206.184 114.561 207.808C114.561 208.584 114.713 209.18 115.017 209.596C115.329 210.004 115.789 210.208 116.397 210.208C116.741 210.208 117.049 210.172 117.321 210.1C117.593 210.028 117.841 209.94 118.065 209.836V210.772C117.849 210.884 117.609 210.968 117.345 211.024C117.089 211.088 116.777 211.12 116.409 211.12ZM120.638 201.88V206.644C120.638 206.772 120.63 206.94 120.614 207.148C120.606 207.356 120.598 207.536 120.59 207.688H120.638C120.686 207.624 120.758 207.532 120.854 207.412C120.95 207.292 121.046 207.172 121.142 207.052C121.246 206.924 121.334 206.82 121.406 206.74L123.458 204.568H124.694L122.09 207.316L124.874 211H123.602L121.37 208L120.638 208.636V211H119.594V201.88H120.638ZM130.178 201.88V204.1C130.178 204.372 130.17 204.628 130.154 204.868C130.146 205.1 130.134 205.284 130.118 205.42H130.178C130.362 205.148 130.614 204.92 130.934 204.736C131.254 204.552 131.666 204.46 132.17 204.46C132.97 204.46 133.61 204.74 134.09 205.3C134.578 205.852 134.822 206.68 134.822 207.784C134.822 208.888 134.578 209.72 134.09 210.28C133.602 210.84 132.962 211.12 132.17 211.12C131.666 211.12 131.254 211.028 130.934 210.844C130.614 210.66 130.362 210.44 130.178 210.184H130.094L129.878 211H129.122V201.88H130.178ZM131.99 205.336C131.302 205.336 130.826 205.532 130.562 205.924C130.306 206.316 130.178 206.924 130.178 207.748V207.796C130.178 208.588 130.306 209.196 130.562 209.62C130.826 210.036 131.31 210.244 132.014 210.244C132.59 210.244 133.018 210.032 133.298 209.608C133.586 209.184 133.73 208.572 133.73 207.772C133.73 206.148 133.15 205.336 131.99 205.336ZM141.88 204.568V211H141.016L140.86 210.148H140.812C140.604 210.484 140.316 210.732 139.948 210.892C139.58 211.044 139.188 211.12 138.772 211.12C137.996 211.12 137.412 210.936 137.02 210.568C136.628 210.192 136.432 209.596 136.432 208.78V204.568H137.5V208.708C137.5 209.732 137.976 210.244 138.928 210.244C139.64 210.244 140.132 210.044 140.404 209.644C140.684 209.244 140.824 208.668 140.824 207.916V204.568H141.88ZM146.07 210.256C146.23 210.256 146.394 210.244 146.562 210.22C146.73 210.196 146.866 210.164 146.97 210.124V210.928C146.858 210.984 146.698 211.028 146.49 211.06C146.282 211.1 146.082 211.12 145.89 211.12C145.554 211.12 145.242 211.064 144.954 210.952C144.674 210.832 144.446 210.628 144.27 210.34C144.094 210.052 144.006 209.648 144.006 209.128V205.384H143.094V204.88L144.018 204.46L144.438 203.092H145.062V204.568H146.922V205.384H145.062V209.104C145.062 209.496 145.154 209.788 145.338 209.98C145.53 210.164 145.774 210.256 146.07 210.256ZM150.406 210.256C150.566 210.256 150.73 210.244 150.898 210.22C151.066 210.196 151.202 210.164 151.306 210.124V210.928C151.194 210.984 151.034 211.028 150.826 211.06C150.618 211.1 150.418 211.12 150.226 211.12C149.89 211.12 149.578 211.064 149.29 210.952C149.01 210.832 148.782 210.628 148.606 210.34C148.43 210.052 148.342 209.648 148.342 209.128V205.384H147.43V204.88L148.354 204.46L148.774 203.092H149.398V204.568H151.258V205.384H149.398V209.104C149.398 209.496 149.49 209.788 149.674 209.98C149.866 210.164 150.11 210.256 150.406 210.256ZM158.186 207.772C158.186 208.836 157.914 209.66 157.37 210.244C156.834 210.828 156.106 211.12 155.186 211.12C154.618 211.12 154.11 210.992 153.662 210.736C153.222 210.472 152.874 210.092 152.618 209.596C152.362 209.092 152.234 208.484 152.234 207.772C152.234 206.708 152.498 205.888 153.026 205.312C153.562 204.736 154.294 204.448 155.222 204.448C155.798 204.448 156.31 204.58 156.758 204.844C157.206 205.1 157.554 205.476 157.802 205.972C158.058 206.46 158.186 207.06 158.186 207.772ZM153.326 207.772C153.326 208.532 153.474 209.136 153.77 209.584C154.074 210.024 154.554 210.244 155.21 210.244C155.858 210.244 156.334 210.024 156.638 209.584C156.942 209.136 157.094 208.532 157.094 207.772C157.094 207.012 156.942 206.416 156.638 205.984C156.334 205.552 155.854 205.336 155.198 205.336C154.542 205.336 154.066 205.552 153.77 205.984C153.474 206.416 153.326 207.012 153.326 207.772ZM162.956 204.448C163.724 204.448 164.304 204.636 164.696 205.012C165.088 205.388 165.284 205.988 165.284 206.812V211H164.24V206.884C164.24 205.852 163.76 205.336 162.8 205.336C162.088 205.336 161.596 205.536 161.324 205.936C161.052 206.336 160.916 206.912 160.916 207.664V211H159.86V204.568H160.712L160.868 205.444H160.928C161.136 205.108 161.424 204.86 161.792 204.7C162.16 204.532 162.548 204.448 162.956 204.448ZM171.466 209.224C171.466 209.848 171.234 210.32 170.77 210.64C170.306 210.96 169.682 211.12 168.898 211.12C168.45 211.12 168.062 211.084 167.734 211.012C167.414 210.94 167.13 210.84 166.882 210.712V209.752C167.138 209.88 167.446 210 167.806 210.112C168.174 210.216 168.546 210.268 168.922 210.268C169.458 210.268 169.846 210.184 170.086 210.016C170.326 209.84 170.446 209.608 170.446 209.32C170.446 209.16 170.402 209.016 170.314 208.888C170.226 208.76 170.066 208.632 169.834 208.504C169.61 208.376 169.286 208.232 168.862 208.072C168.446 207.912 168.09 207.752 167.794 207.592C167.498 207.432 167.27 207.24 167.11 207.016C166.95 206.792 166.87 206.504 166.87 206.152C166.87 205.608 167.09 205.188 167.53 204.892C167.978 204.596 168.562 204.448 169.282 204.448C169.674 204.448 170.038 204.488 170.374 204.568C170.718 204.648 171.038 204.752 171.334 204.88L170.974 205.72C170.702 205.608 170.418 205.512 170.122 205.432C169.826 205.352 169.522 205.312 169.21 205.312C168.778 205.312 168.446 205.384 168.214 205.528C167.99 205.664 167.878 205.852 167.878 206.092C167.878 206.276 167.93 206.428 168.034 206.548C168.138 206.668 168.31 206.788 168.55 206.908C168.798 207.028 169.126 207.164 169.534 207.316C169.942 207.468 170.29 207.624 170.578 207.784C170.866 207.944 171.086 208.14 171.238 208.372C171.39 208.596 171.466 208.88 171.466 209.224Z" fill="black"/>
<rect x="66.5898" y="194.5" width="113" height="23" rx="3.5" stroke="#939393"/>
<rect x="66.5898" y="226.5" width="150" height="23" rx="3.5" fill="#F1F1F1"/>
<path d="M77.5218 234.432C78.6418 234.432 79.4578 234.652 79.9698 235.092C80.4818 235.532 80.7378 236.152 80.7378 236.952C80.7378 237.424 80.6298 237.868 80.4138 238.284C80.2058 238.692 79.8498 239.024 79.3458 239.28C78.8498 239.536 78.1738 239.664 77.3178 239.664H76.3338V243H75.2538V234.432H77.5218ZM77.4258 235.356H76.3338V238.74H77.1978C78.0138 238.74 78.6218 238.608 79.0218 238.344C79.4218 238.08 79.6218 237.632 79.6218 237C79.6218 236.448 79.4418 236.036 79.0818 235.764C78.7298 235.492 78.1778 235.356 77.4258 235.356ZM87.9675 239.772C87.9675 240.836 87.6955 241.66 87.1515 242.244C86.6155 242.828 85.8875 243.12 84.9675 243.12C84.3995 243.12 83.8915 242.992 83.4435 242.736C83.0035 242.472 82.6555 242.092 82.3995 241.596C82.1435 241.092 82.0155 240.484 82.0155 239.772C82.0155 238.708 82.2795 237.888 82.8075 237.312C83.3435 236.736 84.0755 236.448 85.0035 236.448C85.5795 236.448 86.0915 236.58 86.5395 236.844C86.9875 237.1 87.3355 237.476 87.5835 237.972C87.8395 238.46 87.9675 239.06 87.9675 239.772ZM83.1075 239.772C83.1075 240.532 83.2555 241.136 83.5515 241.584C83.8555 242.024 84.3355 242.244 84.9915 242.244C85.6395 242.244 86.1155 242.024 86.4195 241.584C86.7235 241.136 86.8755 240.532 86.8755 239.772C86.8755 239.012 86.7235 238.416 86.4195 237.984C86.1155 237.552 85.6355 237.336 84.9795 237.336C84.3235 237.336 83.8475 237.552 83.5515 237.984C83.2555 238.416 83.1075 239.012 83.1075 239.772ZM93.8291 241.224C93.8291 241.848 93.5971 242.32 93.1331 242.64C92.6691 242.96 92.0451 243.12 91.2611 243.12C90.8131 243.12 90.4251 243.084 90.0971 243.012C89.7771 242.94 89.4931 242.84 89.2451 242.712V241.752C89.5011 241.88 89.8091 242 90.1691 242.112C90.5371 242.216 90.9091 242.268 91.2851 242.268C91.8211 242.268 92.2091 242.184 92.4491 242.016C92.6891 241.84 92.8091 241.608 92.8091 241.32C92.8091 241.16 92.7651 241.016 92.6771 240.888C92.5891 240.76 92.4291 240.632 92.1971 240.504C91.9731 240.376 91.6491 240.232 91.2251 240.072C90.8091 239.912 90.4531 239.752 90.1571 239.592C89.8611 239.432 89.6331 239.24 89.4731 239.016C89.3131 238.792 89.2331 238.504 89.2331 238.152C89.2331 237.608 89.4531 237.188 89.8931 236.892C90.3411 236.596 90.9251 236.448 91.6451 236.448C92.0371 236.448 92.4011 236.488 92.7371 236.568C93.0811 236.648 93.4011 236.752 93.6971 236.88L93.3371 237.72C93.0651 237.608 92.7811 237.512 92.4851 237.432C92.1891 237.352 91.8851 237.312 91.5731 237.312C91.1411 237.312 90.8091 237.384 90.5771 237.528C90.3531 237.664 90.2411 237.852 90.2411 238.092C90.2411 238.276 90.2931 238.428 90.3971 238.548C90.5011 238.668 90.6731 238.788 90.9131 238.908C91.1611 239.028 91.4891 239.164 91.8971 239.316C92.3051 239.468 92.6531 239.624 92.9411 239.784C93.2291 239.944 93.4491 240.14 93.6011 240.372C93.7531 240.596 93.8291 240.88 93.8291 241.224ZM97.5313 242.256C97.6913 242.256 97.8553 242.244 98.0233 242.22C98.1913 242.196 98.3273 242.164 98.4313 242.124V242.928C98.3193 242.984 98.1593 243.028 97.9513 243.06C97.7433 243.1 97.5433 243.12 97.3513 243.12C97.0153 243.12 96.7033 243.064 96.4153 242.952C96.1353 242.832 95.9073 242.628 95.7313 242.34C95.5553 242.052 95.4673 241.648 95.4673 241.128V237.384H94.5553V236.88L95.4793 236.46L95.8993 235.092H96.5233V236.568H98.3833V237.384H96.5233V241.104C96.5233 241.496 96.6153 241.788 96.7993 241.98C96.9913 242.164 97.2353 242.256 97.5313 242.256ZM100.775 233.88V236.1C100.775 236.372 100.767 236.628 100.751 236.868C100.743 237.1 100.731 237.284 100.715 237.42H100.775C100.959 237.148 101.211 236.92 101.531 236.736C101.851 236.552 102.263 236.46 102.767 236.46C103.567 236.46 104.207 236.74 104.687 237.3C105.175 237.852 105.419 238.68 105.419 239.784C105.419 240.888 105.175 241.72 104.687 242.28C104.199 242.84 103.559 243.12 102.767 243.12C102.263 243.12 101.851 243.028 101.531 242.844C101.211 242.66 100.959 242.44 100.775 242.184H100.691L100.475 243H99.7192V233.88H100.775ZM102.587 237.336C101.899 237.336 101.423 237.532 101.159 237.924C100.903 238.316 100.775 238.924 100.775 239.748V239.796C100.775 240.588 100.903 241.196 101.159 241.62C101.423 242.036 101.907 242.244 102.611 242.244C103.187 242.244 103.615 242.032 103.895 241.608C104.183 241.184 104.327 240.572 104.327 239.772C104.327 238.148 103.747 237.336 102.587 237.336ZM109.538 236.46C110.322 236.46 110.902 236.632 111.278 236.976C111.654 237.32 111.842 237.868 111.842 238.62V243H111.074L110.87 242.088H110.822C110.542 242.44 110.246 242.7 109.934 242.868C109.622 243.036 109.198 243.12 108.662 243.12C108.078 243.12 107.594 242.968 107.21 242.664C106.826 242.352 106.634 241.868 106.634 241.212C106.634 240.572 106.886 240.08 107.39 239.736C107.894 239.384 108.67 239.192 109.718 239.16L110.81 239.124V238.74C110.81 238.204 110.694 237.832 110.462 237.624C110.23 237.416 109.902 237.312 109.478 237.312C109.142 237.312 108.822 237.364 108.518 237.468C108.214 237.564 107.93 237.676 107.666 237.804L107.342 237.012C107.622 236.86 107.954 236.732 108.338 236.628C108.722 236.516 109.122 236.46 109.538 236.46ZM110.798 239.856L109.85 239.892C109.05 239.924 108.494 240.052 108.182 240.276C107.878 240.5 107.726 240.816 107.726 241.224C107.726 241.584 107.834 241.848 108.05 242.016C108.274 242.184 108.558 242.268 108.902 242.268C109.438 242.268 109.886 242.12 110.246 241.824C110.614 241.52 110.798 241.056 110.798 240.432V239.856ZM116.409 243.12C115.833 243.12 115.325 243.004 114.885 242.772C114.445 242.54 114.097 242.18 113.841 241.692C113.593 241.204 113.469 240.58 113.469 239.82C113.469 239.028 113.597 238.384 113.853 237.888C114.117 237.392 114.477 237.028 114.933 236.796C115.389 236.564 115.905 236.448 116.481 236.448C116.801 236.448 117.113 236.484 117.417 236.556C117.729 236.62 117.981 236.7 118.173 236.796L117.849 237.672C117.657 237.6 117.433 237.532 117.177 237.468C116.921 237.404 116.681 237.372 116.457 237.372C115.193 237.372 114.561 238.184 114.561 239.808C114.561 240.584 114.713 241.18 115.017 241.596C115.329 242.004 115.789 242.208 116.397 242.208C116.741 242.208 117.049 242.172 117.321 242.1C117.593 242.028 117.841 241.94 118.065 241.836V242.772C117.849 242.884 117.609 242.968 117.345 243.024C117.089 243.088 116.777 243.12 116.409 243.12ZM120.638 233.88V238.644C120.638 238.772 120.63 238.94 120.614 239.148C120.606 239.356 120.598 239.536 120.59 239.688H120.638C120.686 239.624 120.758 239.532 120.854 239.412C120.95 239.292 121.046 239.172 121.142 239.052C121.246 238.924 121.334 238.82 121.406 238.74L123.458 236.568H124.694L122.09 239.316L124.874 243H123.602L121.37 240L120.638 240.636V243H119.594V233.88H120.638ZM131.954 238.344H134.342V239.196H131.954V241.668H131.09V239.196H128.702V238.344H131.09V235.86H131.954V238.344ZM139.25 243V234.432H140.33V242.04H144.074V243H139.25ZM145.939 234.156C146.099 234.156 146.239 234.212 146.359 234.324C146.487 234.428 146.551 234.596 146.551 234.828C146.551 235.06 146.487 235.232 146.359 235.344C146.239 235.448 146.099 235.5 145.939 235.5C145.763 235.5 145.615 235.448 145.495 235.344C145.375 235.232 145.315 235.06 145.315 234.828C145.315 234.596 145.375 234.428 145.495 234.324C145.615 234.212 145.763 234.156 145.939 234.156ZM146.455 236.568V243H145.399V236.568H146.455ZM151.589 236.448C152.357 236.448 152.937 236.636 153.329 237.012C153.721 237.388 153.917 237.988 153.917 238.812V243H152.873V238.884C152.873 237.852 152.393 237.336 151.433 237.336C150.721 237.336 150.229 237.536 149.957 237.936C149.685 238.336 149.549 238.912 149.549 239.664V243H148.493V236.568H149.345L149.501 237.444H149.561C149.769 237.108 150.057 236.86 150.425 236.7C150.793 236.532 151.181 236.448 151.589 236.448ZM156.955 233.88V238.644C156.955 238.772 156.947 238.94 156.931 239.148C156.923 239.356 156.915 239.536 156.907 239.688H156.955C157.003 239.624 157.075 239.532 157.171 239.412C157.267 239.292 157.363 239.172 157.459 239.052C157.563 238.924 157.651 238.82 157.723 238.74L159.775 236.568H161.011L158.407 239.316L161.191 243H159.919L157.687 240L156.955 240.636V243H155.911V233.88H156.955ZM166.494 233.88V236.1C166.494 236.372 166.486 236.628 166.47 236.868C166.462 237.1 166.45 237.284 166.434 237.42H166.494C166.678 237.148 166.93 236.92 167.25 236.736C167.57 236.552 167.982 236.46 168.486 236.46C169.286 236.46 169.926 236.74 170.406 237.3C170.894 237.852 171.138 238.68 171.138 239.784C171.138 240.888 170.894 241.72 170.406 242.28C169.918 242.84 169.278 243.12 168.486 243.12C167.982 243.12 167.57 243.028 167.25 242.844C166.93 242.66 166.678 242.44 166.494 242.184H166.41L166.194 243H165.438V233.88H166.494ZM168.306 237.336C167.618 237.336 167.142 237.532 166.878 237.924C166.622 238.316 166.494 238.924 166.494 239.748V239.796C166.494 240.588 166.622 241.196 166.878 241.62C167.142 242.036 167.626 242.244 168.33 242.244C168.906 242.244 169.334 242.032 169.614 241.608C169.902 241.184 170.046 240.572 170.046 239.772C170.046 238.148 169.466 237.336 168.306 237.336ZM178.197 236.568V243H177.333L177.177 242.148H177.129C176.921 242.484 176.633 242.732 176.265 242.892C175.897 243.044 175.505 243.12 175.089 243.12C174.313 243.12 173.729 242.936 173.337 242.568C172.945 242.192 172.749 241.596 172.749 240.78V236.568H173.817V240.708C173.817 241.732 174.293 242.244 175.245 242.244C175.957 242.244 176.449 242.044 176.721 241.644C177.001 241.244 177.141 240.668 177.141 239.916V236.568H178.197ZM182.387 242.256C182.547 242.256 182.711 242.244 182.879 242.22C183.047 242.196 183.183 242.164 183.287 242.124V242.928C183.175 242.984 183.015 243.028 182.807 243.06C182.599 243.1 182.399 243.12 182.207 243.12C181.871 243.12 181.559 243.064 181.271 242.952C180.991 242.832 180.763 242.628 180.587 242.34C180.411 242.052 180.323 241.648 180.323 241.128V237.384H179.411V236.88L180.335 236.46L180.755 235.092H181.379V236.568H183.239V237.384H181.379V241.104C181.379 241.496 181.471 241.788 181.655 241.98C181.847 242.164 182.091 242.256 182.387 242.256ZM186.723 242.256C186.883 242.256 187.047 242.244 187.215 242.22C187.383 242.196 187.519 242.164 187.623 242.124V242.928C187.511 242.984 187.351 243.028 187.143 243.06C186.935 243.1 186.735 243.12 186.543 243.12C186.207 243.12 185.895 243.064 185.607 242.952C185.327 242.832 185.099 242.628 184.923 242.34C184.747 242.052 184.659 241.648 184.659 241.128V237.384H183.747V236.88L184.671 236.46L185.091 235.092H185.715V236.568H187.575V237.384H185.715V241.104C185.715 241.496 185.807 241.788 185.991 241.98C186.183 242.164 186.427 242.256 186.723 242.256ZM194.503 239.772C194.503 240.836 194.231 241.66 193.687 242.244C193.151 242.828 192.423 243.12 191.503 243.12C190.935 243.12 190.427 242.992 189.979 242.736C189.539 242.472 189.191 242.092 188.935 241.596C188.679 241.092 188.551 240.484 188.551 239.772C188.551 238.708 188.815 237.888 189.343 237.312C189.879 236.736 190.611 236.448 191.539 236.448C192.115 236.448 192.627 236.58 193.075 236.844C193.523 237.1 193.871 237.476 194.119 237.972C194.375 238.46 194.503 239.06 194.503 239.772ZM189.643 239.772C189.643 240.532 189.791 241.136 190.087 241.584C190.391 242.024 190.871 242.244 191.527 242.244C192.175 242.244 192.651 242.024 192.955 241.584C193.259 241.136 193.411 240.532 193.411 239.772C193.411 239.012 193.259 238.416 192.955 237.984C192.651 237.552 192.171 237.336 191.515 237.336C190.859 237.336 190.383 237.552 190.087 237.984C189.791 238.416 189.643 239.012 189.643 239.772ZM199.272 236.448C200.04 236.448 200.62 236.636 201.012 237.012C201.404 237.388 201.6 237.988 201.6 238.812V243H200.556V238.884C200.556 237.852 200.076 237.336 199.116 237.336C198.404 237.336 197.912 237.536 197.64 237.936C197.368 238.336 197.232 238.912 197.232 239.664V243H196.176V236.568H197.028L197.184 237.444H197.244C197.452 237.108 197.74 236.86 198.108 236.7C198.476 236.532 198.864 236.448 199.272 236.448ZM207.782 241.224C207.782 241.848 207.55 242.32 207.086 242.64C206.622 242.96 205.998 243.12 205.214 243.12C204.766 243.12 204.378 243.084 204.05 243.012C203.73 242.94 203.446 242.84 203.198 242.712V241.752C203.454 241.88 203.762 242 204.122 242.112C204.49 242.216 204.862 242.268 205.238 242.268C205.774 242.268 206.162 242.184 206.402 242.016C206.642 241.84 206.762 241.608 206.762 241.32C206.762 241.16 206.718 241.016 206.63 240.888C206.542 240.76 206.382 240.632 206.15 240.504C205.926 240.376 205.602 240.232 205.178 240.072C204.762 239.912 204.406 239.752 204.11 239.592C203.814 239.432 203.586 239.24 203.426 239.016C203.266 238.792 203.186 238.504 203.186 238.152C203.186 237.608 203.406 237.188 203.846 236.892C204.294 236.596 204.878 236.448 205.598 236.448C205.99 236.448 206.354 236.488 206.69 236.568C207.034 236.648 207.354 236.752 207.65 236.88L207.29 237.72C207.018 237.608 206.734 237.512 206.438 237.432C206.142 237.352 205.838 237.312 205.526 237.312C205.094 237.312 204.762 237.384 204.53 237.528C204.306 237.664 204.194 237.852 204.194 238.092C204.194 238.276 204.246 238.428 204.35 238.548C204.454 238.668 204.626 238.788 204.866 238.908C205.114 239.028 205.442 239.164 205.85 239.316C206.258 239.468 206.606 239.624 206.894 239.784C207.182 239.944 207.402 240.14 207.554 240.372C207.706 240.596 207.782 240.88 207.782 241.224Z" fill="black"/>
<rect x="66.5898" y="226.5" width="150" height="23" rx="3.5" stroke="#939393"/>
<rect x="66.5898" y="258.5" width="121" height="23" rx="3.5" fill="#F1F1F1"/>
<path d="M77.6178 266.432C78.6818 266.432 79.4658 266.636 79.9698 267.044C80.4818 267.444 80.7378 268.052 80.7378 268.868C80.7378 269.324 80.6538 269.704 80.4858 270.008C80.3178 270.312 80.1018 270.556 79.8378 270.74C79.5818 270.924 79.3098 271.064 79.0218 271.16L81.3738 275H80.1138L78.0378 271.46H76.3338V275H75.2538V266.432H77.6178ZM77.5578 267.368H76.3338V270.548H77.6178C78.3138 270.548 78.8218 270.412 79.1418 270.14C79.4618 269.86 79.6218 269.452 79.6218 268.916C79.6218 268.356 79.4538 267.96 79.1178 267.728C78.7818 267.488 78.2618 267.368 77.5578 267.368ZM85.0587 268.448C85.6027 268.448 86.0747 268.568 86.4747 268.808C86.8747 269.048 87.1787 269.388 87.3867 269.828C87.6027 270.26 87.7107 270.768 87.7107 271.352V271.988H83.3067C83.3227 272.716 83.5067 273.272 83.8587 273.656C84.2187 274.032 84.7187 274.22 85.3587 274.22C85.7667 274.22 86.1267 274.184 86.4387 274.112C86.7587 274.032 87.0867 273.92 87.4227 273.776V274.7C87.0947 274.844 86.7707 274.948 86.4507 275.012C86.1307 275.084 85.7507 275.12 85.3107 275.12C84.6947 275.12 84.1547 274.996 83.6907 274.748C83.2267 274.5 82.8627 274.132 82.5987 273.644C82.3427 273.156 82.2147 272.552 82.2147 271.832C82.2147 271.128 82.3307 270.524 82.5627 270.02C82.8027 269.516 83.1347 269.128 83.5587 268.856C83.9907 268.584 84.4907 268.448 85.0587 268.448ZM85.0467 269.312C84.5427 269.312 84.1427 269.476 83.8467 269.804C83.5587 270.124 83.3867 270.572 83.3307 271.148H86.6067C86.5987 270.604 86.4707 270.164 86.2227 269.828C85.9747 269.484 85.5827 269.312 85.0467 269.312ZM92.4081 268.448C93.2001 268.448 93.8361 268.724 94.3161 269.276C94.8041 269.828 95.0481 270.66 95.0481 271.772C95.0481 272.868 94.8041 273.7 94.3161 274.268C93.8361 274.836 93.1961 275.12 92.3961 275.12C91.9001 275.12 91.4881 275.028 91.1601 274.844C90.8401 274.66 90.5881 274.44 90.4041 274.184H90.3321C90.3401 274.32 90.3521 274.492 90.3681 274.7C90.3921 274.908 90.4041 275.088 90.4041 275.24V277.88H89.3481V268.568H90.2121L90.3561 269.444H90.4041C90.5961 269.164 90.8481 268.928 91.1601 268.736C91.4721 268.544 91.8881 268.448 92.4081 268.448ZM92.2161 269.336C91.5601 269.336 91.0961 269.52 90.8241 269.888C90.5521 270.256 90.4121 270.816 90.4041 271.568V271.772C90.4041 272.564 90.5321 273.176 90.7881 273.608C91.0521 274.032 91.5361 274.244 92.2401 274.244C92.6241 274.244 92.9441 274.14 93.2001 273.932C93.4561 273.716 93.6441 273.42 93.7641 273.044C93.8921 272.668 93.9561 272.24 93.9561 271.76C93.9561 271.024 93.8121 270.436 93.5241 269.996C93.2441 269.556 92.8081 269.336 92.2161 269.336ZM97.7869 275H96.7309V265.88H97.7869V275ZM98.8167 268.568H99.9447L101.337 272.228C101.457 272.556 101.565 272.864 101.661 273.152C101.757 273.44 101.829 273.716 101.877 273.98H101.925C101.973 273.78 102.049 273.52 102.153 273.2C102.257 272.872 102.365 272.544 102.477 272.216L103.785 268.568H104.925L102.153 275.888C101.921 276.496 101.629 276.98 101.277 277.34C100.925 277.7 100.437 277.88 99.8127 277.88C99.6207 277.88 99.4527 277.868 99.3087 277.844C99.1647 277.828 99.0407 277.808 98.9367 277.784V276.944C99.0247 276.96 99.1287 276.976 99.2487 276.992C99.3767 277.008 99.5087 277.016 99.6447 277.016C100.013 277.016 100.309 276.912 100.533 276.704C100.757 276.496 100.937 276.22 101.073 275.876L101.409 275.024L98.8167 268.568ZM105.786 269.216C105.786 268.912 105.858 268.7 106.002 268.58C106.146 268.46 106.318 268.4 106.518 268.4C106.718 268.4 106.894 268.46 107.046 268.58C107.198 268.7 107.274 268.912 107.274 269.216C107.274 269.504 107.198 269.712 107.046 269.84C106.894 269.968 106.718 270.032 106.518 270.032C106.318 270.032 106.146 269.968 106.002 269.84C105.858 269.712 105.786 269.504 105.786 269.216ZM105.786 274.352C105.786 274.056 105.858 273.848 106.002 273.728C106.146 273.608 106.318 273.548 106.518 273.548C106.718 273.548 106.894 273.608 107.046 273.728C107.198 273.848 107.274 274.056 107.274 274.352C107.274 274.64 107.198 274.848 107.046 274.976C106.894 275.104 106.718 275.168 106.518 275.168C106.318 275.168 106.146 275.104 106.002 274.976C105.858 274.848 105.786 274.64 105.786 274.352ZM116.086 267.26C115.166 267.26 114.442 267.568 113.914 268.184C113.386 268.8 113.122 269.644 113.122 270.716C113.122 271.78 113.366 272.624 113.854 273.248C114.35 273.864 115.09 274.172 116.074 274.172C116.442 274.172 116.794 274.14 117.13 274.076C117.466 274.012 117.798 273.932 118.126 273.836V274.772C117.806 274.892 117.474 274.98 117.13 275.036C116.794 275.092 116.39 275.12 115.918 275.12C115.046 275.12 114.318 274.94 113.734 274.58C113.15 274.22 112.71 273.708 112.414 273.044C112.126 272.38 111.982 271.6 111.982 270.704C111.982 269.84 112.138 269.08 112.45 268.424C112.77 267.76 113.238 267.244 113.854 266.876C114.47 266.5 115.218 266.312 116.098 266.312C117.002 266.312 117.79 266.48 118.462 266.816L118.03 267.728C117.766 267.608 117.47 267.5 117.142 267.404C116.822 267.308 116.47 267.26 116.086 267.26ZM124.856 272.708C124.856 273.468 124.58 274.06 124.028 274.484C123.476 274.908 122.732 275.12 121.796 275.12C121.316 275.12 120.872 275.084 120.464 275.012C120.056 274.94 119.716 274.84 119.444 274.712V273.68C119.732 273.808 120.088 273.924 120.512 274.028C120.944 274.132 121.388 274.184 121.844 274.184C122.476 274.184 122.956 274.06 123.284 273.812C123.612 273.564 123.776 273.228 123.776 272.804C123.776 272.524 123.716 272.288 123.596 272.096C123.476 271.904 123.268 271.728 122.972 271.568C122.676 271.408 122.272 271.232 121.76 271.04C121.024 270.776 120.472 270.452 120.104 270.068C119.736 269.684 119.552 269.16 119.552 268.496C119.552 268.048 119.668 267.66 119.9 267.332C120.132 267.004 120.452 266.752 120.86 266.576C121.268 266.4 121.744 266.312 122.288 266.312C122.752 266.312 123.18 266.356 123.572 266.444C123.964 266.532 124.324 266.648 124.652 266.792L124.316 267.716C124.02 267.588 123.696 267.48 123.344 267.392C122.992 267.304 122.632 267.26 122.264 267.26C121.728 267.26 121.324 267.376 121.052 267.608C120.78 267.832 120.644 268.132 120.644 268.508C120.644 268.796 120.704 269.036 120.824 269.228C120.944 269.42 121.14 269.596 121.412 269.756C121.684 269.908 122.052 270.068 122.516 270.236C123.02 270.42 123.444 270.62 123.788 270.836C124.14 271.044 124.404 271.296 124.58 271.592C124.764 271.888 124.856 272.26 124.856 272.708ZM131.958 275L130.926 272.348H127.53L126.51 275H125.418L128.766 266.396H129.738L133.074 275H131.958ZM130.602 271.388L129.642 268.796C129.618 268.732 129.578 268.616 129.522 268.448C129.466 268.28 129.41 268.108 129.354 267.932C129.306 267.748 129.266 267.608 129.234 267.512C129.17 267.76 129.102 268.004 129.03 268.244C128.966 268.476 128.91 268.66 128.862 268.796L127.89 271.388H130.602ZM136.114 275H135.034V267.38H132.358V266.432H138.778V267.38H136.114V275ZM148.047 272.708C148.047 273.468 147.771 274.06 147.219 274.484C146.667 274.908 145.923 275.12 144.987 275.12C144.507 275.12 144.063 275.084 143.655 275.012C143.247 274.94 142.907 274.84 142.635 274.712V273.68C142.923 273.808 143.279 273.924 143.703 274.028C144.135 274.132 144.579 274.184 145.035 274.184C145.667 274.184 146.147 274.06 146.475 273.812C146.803 273.564 146.967 273.228 146.967 272.804C146.967 272.524 146.907 272.288 146.787 272.096C146.667 271.904 146.459 271.728 146.163 271.568C145.867 271.408 145.463 271.232 144.951 271.04C144.215 270.776 143.663 270.452 143.295 270.068C142.927 269.684 142.743 269.16 142.743 268.496C142.743 268.048 142.859 267.66 143.091 267.332C143.323 267.004 143.643 266.752 144.051 266.576C144.459 266.4 144.935 266.312 145.479 266.312C145.943 266.312 146.371 266.356 146.763 266.444C147.155 266.532 147.515 266.648 147.843 266.792L147.507 267.716C147.211 267.588 146.887 267.48 146.535 267.392C146.183 267.304 145.823 267.26 145.455 267.26C144.919 267.26 144.515 267.376 144.243 267.608C143.971 267.832 143.835 268.132 143.835 268.508C143.835 268.796 143.895 269.036 144.015 269.228C144.135 269.42 144.331 269.596 144.603 269.756C144.875 269.908 145.243 270.068 145.707 270.236C146.211 270.42 146.635 270.62 146.979 270.836C147.331 271.044 147.595 271.296 147.771 271.592C147.955 271.888 148.047 272.26 148.047 272.708ZM155.005 268.568V275H154.141L153.985 274.148H153.937C153.729 274.484 153.441 274.732 153.073 274.892C152.705 275.044 152.313 275.12 151.897 275.12C151.121 275.12 150.537 274.936 150.145 274.568C149.753 274.192 149.557 273.596 149.557 272.78V268.568H150.625V272.708C150.625 273.732 151.101 274.244 152.053 274.244C152.765 274.244 153.257 274.044 153.529 273.644C153.809 273.244 153.949 272.668 153.949 271.916V268.568H155.005ZM160.047 268.448C160.167 268.448 160.295 268.456 160.431 268.472C160.567 268.48 160.691 268.496 160.803 268.52L160.671 269.492C160.567 269.468 160.451 269.448 160.323 269.432C160.195 269.416 160.079 269.408 159.975 269.408C159.647 269.408 159.339 269.5 159.051 269.684C158.763 269.86 158.531 270.112 158.355 270.44C158.187 270.76 158.103 271.136 158.103 271.568V275H157.047V268.568H157.911L158.031 269.744H158.079C158.279 269.392 158.543 269.088 158.871 268.832C159.207 268.576 159.599 268.448 160.047 268.448ZM163.42 275L160.984 268.568H162.112L163.48 272.36C163.544 272.536 163.612 272.732 163.684 272.948C163.756 273.164 163.82 273.372 163.876 273.572C163.932 273.772 163.972 273.936 163.996 274.064H164.044C164.068 273.936 164.112 273.772 164.176 273.572C164.24 273.364 164.308 273.156 164.38 272.948C164.452 272.732 164.52 272.536 164.584 272.36L165.952 268.568H167.08L164.632 275H163.42ZM170.582 268.448C171.126 268.448 171.598 268.568 171.998 268.808C172.398 269.048 172.702 269.388 172.91 269.828C173.126 270.26 173.234 270.768 173.234 271.352V271.988H168.83C168.846 272.716 169.03 273.272 169.382 273.656C169.742 274.032 170.242 274.22 170.882 274.22C171.29 274.22 171.65 274.184 171.962 274.112C172.282 274.032 172.61 273.92 172.946 273.776V274.7C172.618 274.844 172.294 274.948 171.974 275.012C171.654 275.084 171.274 275.12 170.834 275.12C170.218 275.12 169.678 274.996 169.214 274.748C168.75 274.5 168.386 274.132 168.122 273.644C167.866 273.156 167.738 272.552 167.738 271.832C167.738 271.128 167.854 270.524 168.086 270.02C168.326 269.516 168.658 269.128 169.082 268.856C169.514 268.584 170.014 268.448 170.582 268.448ZM170.57 269.312C170.066 269.312 169.666 269.476 169.37 269.804C169.082 270.124 168.91 270.572 168.854 271.148H172.13C172.122 270.604 171.994 270.164 171.746 269.828C171.498 269.484 171.106 269.312 170.57 269.312ZM173.629 268.568H174.757L176.149 272.228C176.269 272.556 176.377 272.864 176.473 273.152C176.569 273.44 176.641 273.716 176.689 273.98H176.737C176.785 273.78 176.861 273.52 176.965 273.2C177.069 272.872 177.177 272.544 177.289 272.216L178.597 268.568H179.737L176.965 275.888C176.733 276.496 176.441 276.98 176.089 277.34C175.737 277.7 175.249 277.88 174.625 277.88C174.433 277.88 174.265 277.868 174.121 277.844C173.977 277.828 173.853 277.808 173.749 277.784V276.944C173.837 276.96 173.941 276.976 174.061 276.992C174.189 277.008 174.321 277.016 174.457 277.016C174.825 277.016 175.121 276.912 175.345 276.704C175.569 276.496 175.749 276.22 175.885 275.876L176.221 275.024L173.629 268.568Z" fill="black"/>
<rect x="66.5898" y="258.5" width="121" height="23" rx="3.5" stroke="#939393"/>
<rect x="66.5898" y="290.5" width="147" height="23" rx="3.5" fill="#F1F1F1"/>
<path d="M77.6178 298.432C78.6818 298.432 79.4658 298.636 79.9698 299.044C80.4818 299.444 80.7378 300.052 80.7378 300.868C80.7378 301.324 80.6538 301.704 80.4858 302.008C80.3178 302.312 80.1018 302.556 79.8378 302.74C79.5818 302.924 79.3098 303.064 79.0218 303.16L81.3738 307H80.1138L78.0378 303.46H76.3338V307H75.2538V298.432H77.6178ZM77.5578 299.368H76.3338V302.548H77.6178C78.3138 302.548 78.8218 302.412 79.1418 302.14C79.4618 301.86 79.6218 301.452 79.6218 300.916C79.6218 300.356 79.4538 299.96 79.1178 299.728C78.7818 299.488 78.2618 299.368 77.5578 299.368ZM85.0587 300.448C85.6027 300.448 86.0747 300.568 86.4747 300.808C86.8747 301.048 87.1787 301.388 87.3867 301.828C87.6027 302.26 87.7107 302.768 87.7107 303.352V303.988H83.3067C83.3227 304.716 83.5067 305.272 83.8587 305.656C84.2187 306.032 84.7187 306.22 85.3587 306.22C85.7667 306.22 86.1267 306.184 86.4387 306.112C86.7587 306.032 87.0867 305.92 87.4227 305.776V306.7C87.0947 306.844 86.7707 306.948 86.4507 307.012C86.1307 307.084 85.7507 307.12 85.3107 307.12C84.6947 307.12 84.1547 306.996 83.6907 306.748C83.2267 306.5 82.8627 306.132 82.5987 305.644C82.3427 305.156 82.2147 304.552 82.2147 303.832C82.2147 303.128 82.3307 302.524 82.5627 302.02C82.8027 301.516 83.1347 301.128 83.5587 300.856C83.9907 300.584 84.4907 300.448 85.0587 300.448ZM85.0467 301.312C84.5427 301.312 84.1427 301.476 83.8467 301.804C83.5587 302.124 83.3867 302.572 83.3307 303.148H86.6067C86.5987 302.604 86.4707 302.164 86.2227 301.828C85.9747 301.484 85.5827 301.312 85.0467 301.312ZM92.4081 300.448C93.2001 300.448 93.8361 300.724 94.3161 301.276C94.8041 301.828 95.0481 302.66 95.0481 303.772C95.0481 304.868 94.8041 305.7 94.3161 306.268C93.8361 306.836 93.1961 307.12 92.3961 307.12C91.9001 307.12 91.4881 307.028 91.1601 306.844C90.8401 306.66 90.5881 306.44 90.4041 306.184H90.3321C90.3401 306.32 90.3521 306.492 90.3681 306.7C90.3921 306.908 90.4041 307.088 90.4041 307.24V309.88H89.3481V300.568H90.2121L90.3561 301.444H90.4041C90.5961 301.164 90.8481 300.928 91.1601 300.736C91.4721 300.544 91.8881 300.448 92.4081 300.448ZM92.2161 301.336C91.5601 301.336 91.0961 301.52 90.8241 301.888C90.5521 302.256 90.4121 302.816 90.4041 303.568V303.772C90.4041 304.564 90.5321 305.176 90.7881 305.608C91.0521 306.032 91.5361 306.244 92.2401 306.244C92.6241 306.244 92.9441 306.14 93.2001 305.932C93.4561 305.716 93.6441 305.42 93.7641 305.044C93.8921 304.668 93.9561 304.24 93.9561 303.76C93.9561 303.024 93.8121 302.436 93.5241 301.996C93.2441 301.556 92.8081 301.336 92.2161 301.336ZM97.7869 307H96.7309V297.88H97.7869V307ZM98.8167 300.568H99.9447L101.337 304.228C101.457 304.556 101.565 304.864 101.661 305.152C101.757 305.44 101.829 305.716 101.877 305.98H101.925C101.973 305.78 102.049 305.52 102.153 305.2C102.257 304.872 102.365 304.544 102.477 304.216L103.785 300.568H104.925L102.153 307.888C101.921 308.496 101.629 308.98 101.277 309.34C100.925 309.7 100.437 309.88 99.8127 309.88C99.6207 309.88 99.4527 309.868 99.3087 309.844C99.1647 309.828 99.0407 309.808 98.9367 309.784V308.944C99.0247 308.96 99.1287 308.976 99.2487 308.992C99.3767 309.008 99.5087 309.016 99.6447 309.016C100.013 309.016 100.309 308.912 100.533 308.704C100.757 308.496 100.937 308.22 101.073 307.876L101.409 307.024L98.8167 300.568ZM110.115 297.88V300.1C110.115 300.372 110.107 300.628 110.091 300.868C110.083 301.1 110.071 301.284 110.055 301.42H110.115C110.299 301.148 110.551 300.92 110.871 300.736C111.191 300.552 111.603 300.46 112.107 300.46C112.907 300.46 113.547 300.74 114.027 301.3C114.515 301.852 114.759 302.68 114.759 303.784C114.759 304.888 114.515 305.72 114.027 306.28C113.539 306.84 112.899 307.12 112.107 307.12C111.603 307.12 111.191 307.028 110.871 306.844C110.551 306.66 110.299 306.44 110.115 306.184H110.031L109.815 307H109.059V297.88H110.115ZM111.927 301.336C111.239 301.336 110.763 301.532 110.499 301.924C110.243 302.316 110.115 302.924 110.115 303.748V303.796C110.115 304.588 110.243 305.196 110.499 305.62C110.763 306.036 111.247 306.244 111.951 306.244C112.527 306.244 112.955 306.032 113.235 305.608C113.523 305.184 113.667 304.572 113.667 303.772C113.667 302.148 113.087 301.336 111.927 301.336ZM121.818 300.568V307H120.954L120.798 306.148H120.75C120.542 306.484 120.254 306.732 119.886 306.892C119.518 307.044 119.126 307.12 118.71 307.12C117.934 307.12 117.35 306.936 116.958 306.568C116.566 306.192 116.37 305.596 116.37 304.78V300.568H117.438V304.708C117.438 305.732 117.914 306.244 118.866 306.244C119.578 306.244 120.07 306.044 120.342 305.644C120.622 305.244 120.762 304.668 120.762 303.916V300.568H121.818ZM126.008 306.256C126.168 306.256 126.332 306.244 126.5 306.22C126.668 306.196 126.804 306.164 126.908 306.124V306.928C126.796 306.984 126.636 307.028 126.428 307.06C126.22 307.1 126.02 307.12 125.828 307.12C125.492 307.12 125.18 307.064 124.892 306.952C124.612 306.832 124.384 306.628 124.208 306.34C124.032 306.052 123.944 305.648 123.944 305.128V301.384H123.032V300.88L123.956 300.46L124.376 299.092H125V300.568H126.86V301.384H125V305.104C125 305.496 125.092 305.788 125.276 305.98C125.468 306.164 125.712 306.256 126.008 306.256ZM130.344 306.256C130.504 306.256 130.668 306.244 130.836 306.22C131.004 306.196 131.14 306.164 131.244 306.124V306.928C131.132 306.984 130.972 307.028 130.764 307.06C130.556 307.1 130.356 307.12 130.164 307.12C129.828 307.12 129.516 307.064 129.228 306.952C128.948 306.832 128.72 306.628 128.544 306.34C128.368 306.052 128.28 305.648 128.28 305.128V301.384H127.368V300.88L128.292 300.46L128.712 299.092H129.336V300.568H131.196V301.384H129.336V305.104C129.336 305.496 129.428 305.788 129.612 305.98C129.804 306.164 130.048 306.256 130.344 306.256ZM138.124 303.772C138.124 304.836 137.852 305.66 137.308 306.244C136.772 306.828 136.044 307.12 135.124 307.12C134.556 307.12 134.048 306.992 133.6 306.736C133.16 306.472 132.812 306.092 132.556 305.596C132.3 305.092 132.172 304.484 132.172 303.772C132.172 302.708 132.436 301.888 132.964 301.312C133.5 300.736 134.232 300.448 135.16 300.448C135.736 300.448 136.248 300.58 136.696 300.844C137.144 301.1 137.492 301.476 137.74 301.972C137.996 302.46 138.124 303.06 138.124 303.772ZM133.264 303.772C133.264 304.532 133.412 305.136 133.708 305.584C134.012 306.024 134.492 306.244 135.148 306.244C135.796 306.244 136.272 306.024 136.576 305.584C136.88 305.136 137.032 304.532 137.032 303.772C137.032 303.012 136.88 302.416 136.576 301.984C136.272 301.552 135.792 301.336 135.136 301.336C134.48 301.336 134.004 301.552 133.708 301.984C133.412 302.416 133.264 303.012 133.264 303.772ZM142.893 300.448C143.661 300.448 144.241 300.636 144.633 301.012C145.025 301.388 145.221 301.988 145.221 302.812V307H144.177V302.884C144.177 301.852 143.697 301.336 142.737 301.336C142.025 301.336 141.533 301.536 141.261 301.936C140.989 302.336 140.853 302.912 140.853 303.664V307H139.797V300.568H140.649L140.805 301.444H140.865C141.073 301.108 141.361 300.86 141.729 300.7C142.097 300.532 142.485 300.448 142.893 300.448ZM151.403 305.224C151.403 305.848 151.171 306.32 150.707 306.64C150.243 306.96 149.619 307.12 148.835 307.12C148.387 307.12 147.999 307.084 147.671 307.012C147.351 306.94 147.067 306.84 146.819 306.712V305.752C147.075 305.88 147.383 306 147.743 306.112C148.111 306.216 148.483 306.268 148.859 306.268C149.395 306.268 149.783 306.184 150.023 306.016C150.263 305.84 150.383 305.608 150.383 305.32C150.383 305.16 150.339 305.016 150.251 304.888C150.163 304.76 150.003 304.632 149.771 304.504C149.547 304.376 149.223 304.232 148.799 304.072C148.383 303.912 148.027 303.752 147.731 303.592C147.435 303.432 147.207 303.24 147.047 303.016C146.887 302.792 146.807 302.504 146.807 302.152C146.807 301.608 147.027 301.188 147.467 300.892C147.915 300.596 148.499 300.448 149.219 300.448C149.611 300.448 149.975 300.488 150.311 300.568C150.655 300.648 150.975 300.752 151.271 300.88L150.911 301.72C150.639 301.608 150.355 301.512 150.059 301.432C149.763 301.352 149.459 301.312 149.147 301.312C148.715 301.312 148.383 301.384 148.151 301.528C147.927 301.664 147.815 301.852 147.815 302.092C147.815 302.276 147.867 302.428 147.971 302.548C148.075 302.668 148.247 302.788 148.487 302.908C148.735 303.028 149.063 303.164 149.471 303.316C149.879 303.468 150.227 303.624 150.515 303.784C150.803 303.944 151.023 304.14 151.175 304.372C151.327 304.596 151.403 304.88 151.403 305.224ZM161.331 306.988L160.227 303.364C160.123 303.036 160.031 302.716 159.951 302.404C159.871 302.092 159.815 301.844 159.783 301.66H159.735C159.703 301.844 159.651 302.092 159.579 302.404C159.507 302.716 159.415 303.04 159.303 303.376L158.151 306.988H156.951L155.187 300.556H156.279L157.167 303.988C157.255 304.332 157.339 304.68 157.419 305.032C157.499 305.384 157.555 305.676 157.587 305.908H157.635C157.659 305.772 157.695 305.604 157.743 305.404C157.791 305.204 157.843 304.996 157.899 304.78C157.955 304.556 158.011 304.356 158.067 304.18L159.207 300.556H160.359L161.463 304.18C161.543 304.46 161.627 304.76 161.715 305.08C161.803 305.4 161.863 305.672 161.895 305.896H161.943C161.967 305.696 162.019 305.42 162.099 305.068C162.187 304.716 162.279 304.356 162.375 303.988L163.275 300.556H164.355L162.567 306.988H161.331ZM166.048 298.156C166.208 298.156 166.348 298.212 166.468 298.324C166.596 298.428 166.66 298.596 166.66 298.828C166.66 299.06 166.596 299.232 166.468 299.344C166.348 299.448 166.208 299.5 166.048 299.5C165.872 299.5 165.724 299.448 165.604 299.344C165.484 299.232 165.424 299.06 165.424 298.828C165.424 298.596 165.484 298.428 165.604 298.324C165.724 298.212 165.872 298.156 166.048 298.156ZM166.564 300.568V307H165.508V300.568H166.564ZM170.75 306.256C170.91 306.256 171.074 306.244 171.242 306.22C171.41 306.196 171.546 306.164 171.65 306.124V306.928C171.538 306.984 171.378 307.028 171.17 307.06C170.962 307.1 170.762 307.12 170.57 307.12C170.234 307.12 169.922 307.064 169.634 306.952C169.354 306.832 169.126 306.628 168.95 306.34C168.774 306.052 168.686 305.648 168.686 305.128V301.384H167.774V300.88L168.698 300.46L169.118 299.092H169.742V300.568H171.602V301.384H169.742V305.104C169.742 305.496 169.834 305.788 170.018 305.98C170.21 306.164 170.454 306.256 170.75 306.256ZM173.994 297.88V300.556C173.994 300.876 173.974 301.176 173.934 301.456H174.006C174.214 301.128 174.494 300.88 174.846 300.712C175.206 300.544 175.594 300.46 176.01 300.46C176.786 300.46 177.37 300.648 177.762 301.024C178.162 301.392 178.362 301.988 178.362 302.812V307H177.318V302.884C177.318 301.852 176.838 301.336 175.878 301.336C175.158 301.336 174.662 301.54 174.39 301.948C174.126 302.348 173.994 302.924 173.994 303.676V307H172.938V297.88H173.994ZM184.013 298.156C184.173 298.156 184.313 298.212 184.433 298.324C184.561 298.428 184.625 298.596 184.625 298.828C184.625 299.06 184.561 299.232 184.433 299.344C184.313 299.448 184.173 299.5 184.013 299.5C183.837 299.5 183.689 299.448 183.569 299.344C183.449 299.232 183.389 299.06 183.389 298.828C183.389 298.596 183.449 298.428 183.569 298.324C183.689 298.212 183.837 298.156 184.013 298.156ZM184.529 300.568V307H183.473V300.568H184.529ZM189.147 307.12C188.571 307.12 188.063 307.004 187.623 306.772C187.183 306.54 186.835 306.18 186.579 305.692C186.331 305.204 186.207 304.58 186.207 303.82C186.207 303.028 186.335 302.384 186.591 301.888C186.855 301.392 187.215 301.028 187.671 300.796C188.127 300.564 188.643 300.448 189.219 300.448C189.539 300.448 189.851 300.484 190.155 300.556C190.467 300.62 190.719 300.7 190.911 300.796L190.587 301.672C190.395 301.6 190.171 301.532 189.915 301.468C189.659 301.404 189.419 301.372 189.195 301.372C187.931 301.372 187.299 302.184 187.299 303.808C187.299 304.584 187.451 305.18 187.755 305.596C188.067 306.004 188.527 306.208 189.135 306.208C189.479 306.208 189.787 306.172 190.059 306.1C190.331 306.028 190.579 305.94 190.803 305.836V306.772C190.587 306.884 190.347 306.968 190.083 307.024C189.827 307.088 189.515 307.12 189.147 307.12ZM197.924 303.772C197.924 304.836 197.653 305.66 197.109 306.244C196.573 306.828 195.845 307.12 194.925 307.12C194.357 307.12 193.849 306.992 193.401 306.736C192.961 306.472 192.613 306.092 192.357 305.596C192.101 305.092 191.973 304.484 191.973 303.772C191.973 302.708 192.237 301.888 192.765 301.312C193.301 300.736 194.033 300.448 194.961 300.448C195.537 300.448 196.049 300.58 196.497 300.844C196.945 301.1 197.293 301.476 197.541 301.972C197.797 302.46 197.924 303.06 197.924 303.772ZM193.065 303.772C193.065 304.532 193.213 305.136 193.509 305.584C193.813 306.024 194.293 306.244 194.949 306.244C195.597 306.244 196.073 306.024 196.377 305.584C196.681 305.136 196.833 304.532 196.833 303.772C196.833 303.012 196.681 302.416 196.377 301.984C196.073 301.552 195.593 301.336 194.937 301.336C194.281 301.336 193.805 301.552 193.509 301.984C193.213 302.416 193.065 303.012 193.065 303.772ZM202.694 300.448C203.462 300.448 204.042 300.636 204.434 301.012C204.826 301.388 205.022 301.988 205.022 302.812V307H203.978V302.884C203.978 301.852 203.498 301.336 202.538 301.336C201.826 301.336 201.334 301.536 201.062 301.936C200.79 302.336 200.654 302.912 200.654 303.664V307H199.598V300.568H200.45L200.606 301.444H200.666C200.874 301.108 201.162 300.86 201.53 300.7C201.898 300.532 202.286 300.448 202.694 300.448Z" fill="black"/>
<rect x="66.5898" y="290.5" width="147" height="23" rx="3.5" stroke="#939393"/>
<mask id="path-21-inside-4_6442_492252" fill="white">
<path d="M51 342C51 339.791 52.7909 338 55 338H357C359.209 338 361 339.791 361 342V380C361 382.209 359.209 384 357 384H55C52.7909 384 51 382.209 51 380V342Z"/>
</mask>
<path d="M51 342C51 339.791 52.7909 338 55 338H357C359.209 338 361 339.791 361 342V380C361 382.209 359.209 384 357 384H55C52.7909 384 51 382.209 51 380V342Z" fill="white"/>
<path d="M69.992 368H68.552V356.576H74.936V357.84H69.992V361.888H74.632V363.152H69.992V368ZM79.9049 359.28C80.9502 359.28 81.7235 359.509 82.2249 359.968C82.7262 360.427 82.9769 361.157 82.9769 362.16V368H81.9529L81.6809 366.784H81.6169C81.2435 367.253 80.8489 367.6 80.4329 367.824C80.0169 368.048 79.4515 368.16 78.7369 368.16C77.9582 368.16 77.3129 367.957 76.8009 367.552C76.2889 367.136 76.0329 366.491 76.0329 365.616C76.0329 364.763 76.3689 364.107 77.0409 363.648C77.7129 363.179 78.7475 362.923 80.1449 362.88L81.6009 362.832V362.32C81.6009 361.605 81.4462 361.109 81.1369 360.832C80.8275 360.555 80.3902 360.416 79.8249 360.416C79.3769 360.416 78.9502 360.485 78.5449 360.624C78.1395 360.752 77.7609 360.901 77.4089 361.072L76.9769 360.016C77.3502 359.813 77.7929 359.643 78.3049 359.504C78.8169 359.355 79.3502 359.28 79.9049 359.28ZM81.5849 363.808L80.3209 363.856C79.2542 363.899 78.5129 364.069 78.0969 364.368C77.6915 364.667 77.4889 365.088 77.4889 365.632C77.4889 366.112 77.6329 366.464 77.9209 366.688C78.2195 366.912 78.5982 367.024 79.0569 367.024C79.7715 367.024 80.3689 366.827 80.8489 366.432C81.3395 366.027 81.5849 365.408 81.5849 364.576V363.808ZM89.0656 368.16C88.2976 368.16 87.6203 368.005 87.0336 367.696C86.447 367.387 85.983 366.907 85.6416 366.256C85.311 365.605 85.1456 364.773 85.1456 363.76C85.1456 362.704 85.3163 361.845 85.6576 361.184C86.0096 360.523 86.4896 360.037 87.0976 359.728C87.7056 359.419 88.3936 359.264 89.1616 359.264C89.5883 359.264 90.0043 359.312 90.4096 359.408C90.8256 359.493 91.1616 359.6 91.4176 359.728L90.9856 360.896C90.7296 360.8 90.431 360.709 90.0896 360.624C89.7483 360.539 89.4283 360.496 89.1296 360.496C87.4443 360.496 86.6016 361.579 86.6016 363.744C86.6016 364.779 86.8043 365.573 87.2096 366.128C87.6256 366.672 88.239 366.944 89.0496 366.944C89.5083 366.944 89.919 366.896 90.2816 366.8C90.6443 366.704 90.975 366.587 91.2736 366.448V367.696C90.9856 367.845 90.6656 367.957 90.3136 368.032C89.9723 368.117 89.5563 368.16 89.0656 368.16ZM96.6251 359.264C97.3505 359.264 97.9798 359.424 98.5131 359.744C99.0465 360.064 99.4518 360.517 99.7291 361.104C100.017 361.68 100.161 362.357 100.161 363.136V363.984H94.2891C94.3105 364.955 94.5558 365.696 95.0251 366.208C95.5051 366.709 96.1718 366.96 97.0251 366.96C97.5691 366.96 98.0491 366.912 98.4651 366.816C98.8918 366.709 99.3291 366.56 99.7771 366.368V367.6C99.3398 367.792 98.9078 367.931 98.4811 368.016C98.0545 368.112 97.5478 368.16 96.9611 368.16C96.1398 368.16 95.4198 367.995 94.8011 367.664C94.1825 367.333 93.6971 366.843 93.3451 366.192C93.0038 365.541 92.8331 364.736 92.8331 363.776C92.8331 362.837 92.9878 362.032 93.2971 361.36C93.6171 360.688 94.0598 360.171 94.6251 359.808C95.2011 359.445 95.8678 359.264 96.6251 359.264ZM96.6091 360.416C95.9371 360.416 95.4038 360.635 95.0091 361.072C94.6251 361.499 94.3958 362.096 94.3211 362.864H98.6891C98.6785 362.139 98.5078 361.552 98.1771 361.104C97.8465 360.645 97.3238 360.416 96.6091 360.416ZM103.752 355.84V358.8C103.752 359.163 103.742 359.504 103.72 359.824C103.71 360.133 103.694 360.379 103.672 360.56H103.752C103.998 360.197 104.334 359.893 104.76 359.648C105.187 359.403 105.736 359.28 106.408 359.28C107.475 359.28 108.328 359.653 108.968 360.4C109.619 361.136 109.944 362.24 109.944 363.712C109.944 365.184 109.619 366.293 108.968 367.04C108.318 367.787 107.464 368.16 106.408 368.16C105.736 368.16 105.187 368.037 104.76 367.792C104.334 367.547 103.998 367.253 103.752 366.912H103.64L103.352 368H102.344V355.84H103.752ZM106.168 360.448C105.251 360.448 104.616 360.709 104.264 361.232C103.923 361.755 103.752 362.565 103.752 363.664V363.728C103.752 364.784 103.923 365.595 104.264 366.16C104.616 366.715 105.262 366.992 106.2 366.992C106.968 366.992 107.539 366.709 107.912 366.144C108.296 365.579 108.488 364.763 108.488 363.696C108.488 361.531 107.715 360.448 106.168 360.448ZM119.644 363.696C119.644 365.115 119.281 366.213 118.556 366.992C117.841 367.771 116.871 368.16 115.644 368.16C114.887 368.16 114.209 367.989 113.612 367.648C113.025 367.296 112.561 366.789 112.22 366.128C111.879 365.456 111.708 364.645 111.708 363.696C111.708 362.277 112.06 361.184 112.764 360.416C113.479 359.648 114.455 359.264 115.692 359.264C116.46 359.264 117.143 359.44 117.74 359.792C118.337 360.133 118.801 360.635 119.132 361.296C119.473 361.947 119.644 362.747 119.644 363.696ZM113.164 363.696C113.164 364.709 113.361 365.515 113.756 366.112C114.161 366.699 114.801 366.992 115.676 366.992C116.54 366.992 117.175 366.699 117.58 366.112C117.985 365.515 118.188 364.709 118.188 363.696C118.188 362.683 117.985 361.888 117.58 361.312C117.175 360.736 116.535 360.448 115.66 360.448C114.785 360.448 114.151 360.736 113.756 361.312C113.361 361.888 113.164 362.683 113.164 363.696ZM129.332 363.696C129.332 365.115 128.969 366.213 128.244 366.992C127.529 367.771 126.558 368.16 125.332 368.16C124.574 368.16 123.897 367.989 123.3 367.648C122.713 367.296 122.249 366.789 121.908 366.128C121.566 365.456 121.396 364.645 121.396 363.696C121.396 362.277 121.748 361.184 122.452 360.416C123.166 359.648 124.142 359.264 125.38 359.264C126.148 359.264 126.83 359.44 127.428 359.792C128.025 360.133 128.489 360.635 128.82 361.296C129.161 361.947 129.332 362.747 129.332 363.696ZM122.852 363.696C122.852 364.709 123.049 365.515 123.444 366.112C123.849 366.699 124.489 366.992 125.364 366.992C126.228 366.992 126.862 366.699 127.268 366.112C127.673 365.515 127.876 364.709 127.876 363.696C127.876 362.683 127.673 361.888 127.268 361.312C126.862 360.736 126.222 360.448 125.348 360.448C124.473 360.448 123.838 360.736 123.444 361.312C123.049 361.888 122.852 362.683 122.852 363.696ZM132.955 355.84V362.192C132.955 362.363 132.944 362.587 132.923 362.864C132.912 363.141 132.902 363.381 132.891 363.584H132.955C133.019 363.499 133.115 363.376 133.243 363.216C133.371 363.056 133.499 362.896 133.627 362.736C133.766 362.565 133.883 362.427 133.979 362.32L136.715 359.424H138.363L134.891 363.088L138.603 368H136.907L133.931 364L132.955 364.848V368H131.563V355.84H132.955ZM149.498 368L145.738 357.984H145.674C145.706 358.315 145.733 358.763 145.754 359.328C145.776 359.883 145.786 360.464 145.786 361.072V368H144.458V356.576H146.586L150.106 365.936H150.17L153.754 356.576H155.866V368H154.442V360.976C154.442 360.421 154.453 359.872 154.474 359.328C154.506 358.784 154.533 358.341 154.554 358H154.49L150.682 368H149.498ZM162.094 359.264C162.819 359.264 163.449 359.424 163.982 359.744C164.515 360.064 164.921 360.517 165.198 361.104C165.486 361.68 165.63 362.357 165.63 363.136V363.984H159.758C159.779 364.955 160.025 365.696 160.494 366.208C160.974 366.709 161.641 366.96 162.494 366.96C163.038 366.96 163.518 366.912 163.934 366.816C164.361 366.709 164.798 366.56 165.246 366.368V367.6C164.809 367.792 164.377 367.931 163.95 368.016C163.523 368.112 163.017 368.16 162.43 368.16C161.609 368.16 160.889 367.995 160.27 367.664C159.651 367.333 159.166 366.843 158.814 366.192C158.473 365.541 158.302 364.736 158.302 363.776C158.302 362.837 158.457 362.032 158.766 361.36C159.086 360.688 159.529 360.171 160.094 359.808C160.67 359.445 161.337 359.264 162.094 359.264ZM162.078 360.416C161.406 360.416 160.873 360.635 160.478 361.072C160.094 361.499 159.865 362.096 159.79 362.864H164.158C164.147 362.139 163.977 361.552 163.646 361.104C163.315 360.645 162.793 360.416 162.078 360.416ZM173.397 365.632C173.397 366.464 173.088 367.093 172.469 367.52C171.85 367.947 171.018 368.16 169.973 368.16C169.376 368.16 168.858 368.112 168.421 368.016C167.994 367.92 167.616 367.787 167.285 367.616V366.336C167.626 366.507 168.037 366.667 168.517 366.816C169.008 366.955 169.504 367.024 170.005 367.024C170.72 367.024 171.237 366.912 171.557 366.688C171.877 366.453 172.037 366.144 172.037 365.76C172.037 365.547 171.978 365.355 171.861 365.184C171.744 365.013 171.53 364.843 171.221 364.672C170.922 364.501 170.49 364.309 169.925 364.096C169.37 363.883 168.896 363.669 168.501 363.456C168.106 363.243 167.802 362.987 167.589 362.688C167.376 362.389 167.269 362.005 167.269 361.536C167.269 360.811 167.562 360.251 168.149 359.856C168.746 359.461 169.525 359.264 170.485 359.264C171.008 359.264 171.493 359.317 171.941 359.424C172.4 359.531 172.826 359.669 173.221 359.84L172.741 360.96C172.378 360.811 172 360.683 171.605 360.576C171.21 360.469 170.805 360.416 170.389 360.416C169.813 360.416 169.37 360.512 169.061 360.704C168.762 360.885 168.613 361.136 168.613 361.456C168.613 361.701 168.682 361.904 168.821 362.064C168.96 362.224 169.189 362.384 169.509 362.544C169.84 362.704 170.277 362.885 170.821 363.088C171.365 363.291 171.829 363.499 172.213 363.712C172.597 363.925 172.89 364.187 173.093 364.496C173.296 364.795 173.397 365.173 173.397 365.632ZM181.053 365.632C181.053 366.464 180.744 367.093 180.125 367.52C179.507 367.947 178.675 368.16 177.629 368.16C177.032 368.16 176.515 368.112 176.077 368.016C175.651 367.92 175.272 367.787 174.941 367.616V366.336C175.283 366.507 175.693 366.667 176.173 366.816C176.664 366.955 177.16 367.024 177.661 367.024C178.376 367.024 178.893 366.912 179.213 366.688C179.533 366.453 179.693 366.144 179.693 365.76C179.693 365.547 179.635 365.355 179.517 365.184C179.4 365.013 179.187 364.843 178.877 364.672C178.579 364.501 178.147 364.309 177.581 364.096C177.027 363.883 176.552 363.669 176.157 363.456C175.763 363.243 175.459 362.987 175.245 362.688C175.032 362.389 174.925 362.005 174.925 361.536C174.925 360.811 175.219 360.251 175.805 359.856C176.403 359.461 177.181 359.264 178.141 359.264C178.664 359.264 179.149 359.317 179.597 359.424C180.056 359.531 180.483 359.669 180.877 359.84L180.397 360.96C180.035 360.811 179.656 360.683 179.261 360.576C178.867 360.469 178.461 360.416 178.045 360.416C177.469 360.416 177.027 360.512 176.717 360.704C176.419 360.885 176.269 361.136 176.269 361.456C176.269 361.701 176.339 361.904 176.477 362.064C176.616 362.224 176.845 362.384 177.165 362.544C177.496 362.704 177.933 362.885 178.477 363.088C179.021 363.291 179.485 363.499 179.869 363.712C180.253 363.925 180.547 364.187 180.749 364.496C180.952 364.795 181.053 365.173 181.053 365.632ZM186.438 359.264C187.163 359.264 187.792 359.424 188.326 359.744C188.859 360.064 189.264 360.517 189.542 361.104C189.83 361.68 189.974 362.357 189.974 363.136V363.984H184.102C184.123 364.955 184.368 365.696 184.838 366.208C185.318 366.709 185.984 366.96 186.838 366.96C187.382 366.96 187.862 366.912 188.278 366.816C188.704 366.709 189.142 366.56 189.59 366.368V367.6C189.152 367.792 188.72 367.931 188.294 368.016C187.867 368.112 187.36 368.16 186.774 368.16C185.952 368.16 185.232 367.995 184.614 367.664C183.995 367.333 183.51 366.843 183.158 366.192C182.816 365.541 182.646 364.736 182.646 363.776C182.646 362.837 182.8 362.032 183.11 361.36C183.43 360.688 183.872 360.171 184.438 359.808C185.014 359.445 185.68 359.264 186.438 359.264ZM186.422 360.416C185.75 360.416 185.216 360.635 184.822 361.072C184.438 361.499 184.208 362.096 184.134 362.864H188.502C188.491 362.139 188.32 361.552 187.99 361.104C187.659 360.645 187.136 360.416 186.422 360.416ZM196.285 359.264C197.309 359.264 198.082 359.515 198.605 360.016C199.128 360.517 199.389 361.317 199.389 362.416V368H197.997V362.512C197.997 361.136 197.357 360.448 196.077 360.448C195.128 360.448 194.472 360.715 194.109 361.248C193.746 361.781 193.565 362.549 193.565 363.552V368H192.157V359.424H193.293L193.501 360.592H193.581C193.858 360.144 194.242 359.813 194.733 359.6C195.224 359.376 195.741 359.264 196.285 359.264ZM205.088 359.264C205.653 359.264 206.16 359.371 206.608 359.584C207.066 359.797 207.456 360.123 207.776 360.56H207.856L208.048 359.424H209.168V368.144C209.168 369.371 208.853 370.293 208.224 370.912C207.605 371.531 206.64 371.84 205.328 371.84C204.069 371.84 203.04 371.659 202.24 371.296V370C203.082 370.448 204.138 370.672 205.408 370.672C206.144 370.672 206.72 370.453 207.136 370.016C207.562 369.589 207.776 369.003 207.776 368.256V367.92C207.776 367.792 207.781 367.611 207.792 367.376C207.802 367.131 207.813 366.96 207.824 366.864H207.76C207.184 367.728 206.298 368.16 205.104 368.16C203.994 368.16 203.125 367.771 202.496 366.992C201.877 366.213 201.568 365.125 201.568 363.728C201.568 362.363 201.877 361.28 202.496 360.48C203.125 359.669 203.989 359.264 205.088 359.264ZM205.28 360.448C204.565 360.448 204.01 360.736 203.616 361.312C203.221 361.877 203.024 362.688 203.024 363.744C203.024 364.8 203.216 365.611 203.6 366.176C203.984 366.731 204.554 367.008 205.312 367.008C206.176 367.008 206.805 366.779 207.2 366.32C207.594 365.851 207.792 365.099 207.792 364.064V363.728C207.792 362.565 207.589 361.728 207.184 361.216C206.778 360.704 206.144 360.448 205.28 360.448ZM215.203 359.264C215.929 359.264 216.558 359.424 217.091 359.744C217.625 360.064 218.03 360.517 218.307 361.104C218.595 361.68 218.739 362.357 218.739 363.136V363.984H212.867C212.889 364.955 213.134 365.696 213.603 366.208C214.083 366.709 214.75 366.96 215.603 366.96C216.147 366.96 216.627 366.912 217.043 366.816C217.47 366.709 217.907 366.56 218.355 366.368V367.6C217.918 367.792 217.486 367.931 217.059 368.016C216.633 368.112 216.126 368.16 215.539 368.16C214.718 368.16 213.998 367.995 213.379 367.664C212.761 367.333 212.275 366.843 211.923 366.192C211.582 365.541 211.411 364.736 211.411 363.776C211.411 362.837 211.566 362.032 211.875 361.36C212.195 360.688 212.638 360.171 213.203 359.808C213.779 359.445 214.446 359.264 215.203 359.264ZM215.187 360.416C214.515 360.416 213.982 360.635 213.587 361.072C213.203 361.499 212.974 362.096 212.899 362.864H217.267C217.257 362.139 217.086 361.552 216.755 361.104C216.425 360.645 215.902 360.416 215.187 360.416ZM224.923 359.264C225.083 359.264 225.253 359.275 225.435 359.296C225.616 359.307 225.781 359.328 225.931 359.36L225.755 360.656C225.616 360.624 225.461 360.597 225.291 360.576C225.12 360.555 224.965 360.544 224.827 360.544C224.389 360.544 223.979 360.667 223.595 360.912C223.211 361.147 222.901 361.483 222.667 361.92C222.443 362.347 222.331 362.848 222.331 363.424V368H220.923V359.424H222.075L222.235 360.992H222.299C222.565 360.523 222.917 360.117 223.355 359.776C223.803 359.435 224.325 359.264 224.923 359.264Z" fill="black"/>
<path d="M340 367.962C339.9 367.962 339.8 367.913 339.75 367.863L334.1 362.262C334.05 362.212 334 362.112 334 362.012C334 361.912 334.05 361.812 334.1 361.762L339.7 356.113C339.85 355.962 340.1 355.962 340.25 356.113C340.4 356.263 340.4 356.512 340.25 356.662L334.9 362.012L340.25 367.363C340.4 367.513 340.4 367.762 340.25 367.912C340.15 367.962 340.1 367.962 340 367.962Z" fill="black"/>
<path d="M50 342C50 339.239 52.2386 337 55 337H357C359.761 337 362 339.239 362 342H360C360 340.343 358.657 339 357 339H55C53.3431 339 52 340.343 52 342H50ZM362 380C362 382.761 359.761 385 357 385H55C52.2386 385 50 382.761 50 380H52C52 381.657 53.3431 383 55 383H357C358.657 383 360 381.657 360 380H362ZM55 385C52.2386 385 50 382.761 50 380V342C50 339.239 52.2386 337 55 337V339C53.3431 339 52 340.343 52 342V380C52 381.657 53.3431 383 55 383V385ZM357 337C359.761 337 362 339.239 362 342V380C362 382.761 359.761 385 357 385V383C358.657 383 360 381.657 360 380V342C360 340.343 358.657 339 357 339V337Z" fill="#939393" mask="url(#path-21-inside-4_6442_492252)"/>
</svg>
