<svg width="954" height="380" viewBox="0 0 954 380" fill="none" xmlns="http://www.w3.org/2000/svg">
<rect x="1" y="1" width="952" height="378" fill="white"/>
<rect x="1" y="1" width="952" height="378" stroke="#C9C9C9"/>
<circle cx="150" cy="104" r="10" fill="#E60074"/>
<path d="M151.968 109H150.204V102.77C150.204 102.471 150.209 102.154 150.218 101.818C150.227 101.482 150.241 101.169 150.26 100.88C150.167 100.973 150.05 101.085 149.91 101.216C149.779 101.347 149.635 101.473 149.476 101.594L148.356 102.49L147.474 101.398L150.498 99.004H151.968V109Z" fill="white"/>
<path d="M160 104H204" stroke="#E60074"/>
<circle cx="150" cy="190" r="10" fill="#E60074"/>
<path d="M153.942 195H147.096V193.698L149.644 191.122C150.148 190.609 150.559 190.17 150.876 189.806C151.203 189.442 151.441 189.101 151.59 188.784C151.749 188.457 151.828 188.107 151.828 187.734C151.828 187.277 151.697 186.936 151.436 186.712C151.184 186.479 150.839 186.362 150.4 186.362C149.98 186.362 149.588 186.451 149.224 186.628C148.86 186.796 148.482 187.039 148.09 187.356L147.124 186.194C147.535 185.839 147.997 185.531 148.51 185.27C149.033 184.999 149.695 184.864 150.498 184.864C151.142 184.864 151.693 184.981 152.15 185.214C152.617 185.438 152.976 185.755 153.228 186.166C153.48 186.567 153.606 187.029 153.606 187.552C153.606 188.093 153.499 188.593 153.284 189.05C153.069 189.498 152.757 189.951 152.346 190.408C151.945 190.856 151.464 191.341 150.904 191.864L149.322 193.39V193.474H153.942V195Z" fill="white"/>
<path d="M160 190H204" stroke="#E60074"/>
<circle cx="150" cy="276" r="10" fill="#E60074"/>
<path d="M153.55 273.286C153.55 273.967 153.349 274.513 152.948 274.924C152.556 275.325 152.047 275.596 151.422 275.736V275.778C152.225 275.881 152.831 276.133 153.242 276.534C153.653 276.935 153.858 277.463 153.858 278.116C153.858 278.695 153.718 279.213 153.438 279.67C153.158 280.127 152.724 280.487 152.136 280.748C151.557 281.009 150.811 281.14 149.896 281.14C149.345 281.14 148.837 281.093 148.37 281C147.913 280.916 147.479 280.781 147.068 280.594V279.04C147.488 279.255 147.936 279.418 148.412 279.53C148.888 279.642 149.336 279.698 149.756 279.698C150.568 279.698 151.142 279.553 151.478 279.264C151.814 278.965 151.982 278.555 151.982 278.032C151.982 277.537 151.786 277.169 151.394 276.926C151.002 276.683 150.349 276.562 149.434 276.562H148.594V275.148H149.448C150.335 275.148 150.946 275.003 151.282 274.714C151.618 274.425 151.786 274.051 151.786 273.594C151.786 273.193 151.655 272.88 151.394 272.656C151.133 272.432 150.741 272.32 150.218 272.32C149.714 272.32 149.28 272.404 148.916 272.572C148.552 272.731 148.225 272.903 147.936 273.09L147.096 271.872C147.479 271.592 147.931 271.354 148.454 271.158C148.977 270.962 149.593 270.864 150.302 270.864C151.338 270.864 152.136 271.083 152.696 271.522C153.265 271.961 153.55 272.549 153.55 273.286Z" fill="white"/>
<path d="M160 276H204" stroke="#E60074"/>
<mask id="path-11-inside-1_7039_529172" fill="white">
<path d="M204 85C204 82.7909 205.791 81 208 81H811C813.209 81 815 82.7909 815 85V123C815 125.209 813.209 127 811 127H208C205.791 127 204 125.209 204 123V85Z"/>
</mask>
<path d="M204 85C204 82.7909 205.791 81 208 81H811C813.209 81 815 82.7909 815 85V123C815 125.209 813.209 127 811 127H208C205.791 127 204 125.209 204 123V85Z" fill="white"/>
<path d="M230.704 105.176C230.704 107.107 230.176 108.563 229.12 109.544C228.075 110.515 226.613 111 224.736 111H221.552V99.576H225.072C226.213 99.576 227.205 99.7893 228.048 100.216C228.901 100.643 229.557 101.272 230.016 102.104C230.475 102.936 230.704 103.96 230.704 105.176ZM229.184 105.224C229.184 103.699 228.805 102.584 228.048 101.88C227.301 101.165 226.24 100.808 224.864 100.808H222.992V109.768H224.544C227.637 109.768 229.184 108.253 229.184 105.224ZM236.36 102.264C237.085 102.264 237.714 102.424 238.248 102.744C238.781 103.064 239.186 103.517 239.464 104.104C239.752 104.68 239.896 105.357 239.896 106.136V106.984H234.024C234.045 107.955 234.29 108.696 234.76 109.208C235.24 109.709 235.906 109.96 236.76 109.96C237.304 109.96 237.784 109.912 238.2 109.816C238.626 109.709 239.064 109.56 239.512 109.368V110.6C239.074 110.792 238.642 110.931 238.216 111.016C237.789 111.112 237.282 111.16 236.696 111.16C235.874 111.16 235.154 110.995 234.536 110.664C233.917 110.333 233.432 109.843 233.08 109.192C232.738 108.541 232.568 107.736 232.568 106.776C232.568 105.837 232.722 105.032 233.032 104.36C233.352 103.688 233.794 103.171 234.36 102.808C234.936 102.445 235.602 102.264 236.36 102.264ZM236.344 103.416C235.672 103.416 235.138 103.635 234.744 104.072C234.36 104.499 234.13 105.096 234.056 105.864H238.424C238.413 105.139 238.242 104.552 237.912 104.104C237.581 103.645 237.058 103.416 236.344 103.416ZM246.031 103.512H243.871V111H242.463V103.512H240.959V102.856L242.463 102.376V101.88C242.463 100.771 242.703 99.976 243.183 99.496C243.673 99.0053 244.361 98.76 245.247 98.76C245.577 98.76 245.887 98.792 246.175 98.856C246.463 98.9093 246.708 98.9733 246.911 99.048L246.543 100.152C246.372 100.099 246.175 100.045 245.951 99.992C245.727 99.9387 245.497 99.912 245.263 99.912C244.793 99.912 244.441 100.072 244.207 100.392C243.983 100.701 243.871 101.192 243.871 101.864V102.424H246.031V103.512ZM250.827 102.28C251.872 102.28 252.645 102.509 253.147 102.968C253.648 103.427 253.899 104.157 253.899 105.16V111H252.875L252.603 109.784H252.539C252.165 110.253 251.771 110.6 251.355 110.824C250.939 111.048 250.373 111.16 249.659 111.16C248.88 111.16 248.235 110.957 247.723 110.552C247.211 110.136 246.955 109.491 246.955 108.616C246.955 107.763 247.291 107.107 247.963 106.648C248.635 106.179 249.669 105.923 251.067 105.88L252.523 105.832V105.32C252.523 104.605 252.368 104.109 252.059 103.832C251.749 103.555 251.312 103.416 250.747 103.416C250.299 103.416 249.872 103.485 249.467 103.624C249.061 103.752 248.683 103.901 248.331 104.072L247.899 103.016C248.272 102.813 248.715 102.643 249.227 102.504C249.739 102.355 250.272 102.28 250.827 102.28ZM252.507 106.808L251.243 106.856C250.176 106.899 249.435 107.069 249.019 107.368C248.613 107.667 248.411 108.088 248.411 108.632C248.411 109.112 248.555 109.464 248.843 109.688C249.141 109.912 249.52 110.024 249.979 110.024C250.693 110.024 251.291 109.827 251.771 109.432C252.261 109.027 252.507 108.408 252.507 107.576V106.808ZM263.716 102.424V111H262.564L262.356 109.864H262.292C262.014 110.312 261.63 110.643 261.14 110.856C260.649 111.059 260.126 111.16 259.572 111.16C258.537 111.16 257.758 110.915 257.236 110.424C256.713 109.923 256.452 109.128 256.452 108.04V102.424H257.876V107.944C257.876 109.309 258.51 109.992 259.78 109.992C260.729 109.992 261.385 109.725 261.748 109.192C262.121 108.659 262.308 107.891 262.308 106.888V102.424H263.716ZM267.846 111H266.438V98.84H267.846V111ZM273.427 110.008C273.64 110.008 273.859 109.992 274.083 109.96C274.307 109.928 274.488 109.885 274.627 109.832V110.904C274.478 110.979 274.264 111.037 273.987 111.08C273.71 111.133 273.443 111.16 273.187 111.16C272.739 111.16 272.323 111.085 271.939 110.936C271.566 110.776 271.262 110.504 271.027 110.12C270.792 109.736 270.675 109.197 270.675 108.504V103.512H269.459V102.84L270.691 102.28L271.251 100.456H272.083V102.424H274.563V103.512H272.083V108.472C272.083 108.995 272.206 109.384 272.451 109.64C272.707 109.885 273.032 110.008 273.427 110.008Z" fill="black"/>
<path d="M794 110.962C793.9 110.962 793.8 110.913 793.75 110.863L788.1 105.262C788.05 105.212 788 105.112 788 105.012C788 104.912 788.05 104.812 788.1 104.762L793.7 99.1125C793.85 98.9625 794.1 98.9625 794.25 99.1125C794.4 99.2625 794.4 99.5125 794.25 99.6625L788.9 105.012L794.25 110.363C794.4 110.513 794.4 110.762 794.25 110.912C794.15 110.962 794.1 110.962 794 110.962Z" fill="black"/>
<path d="M203 85C203 82.2386 205.239 80 208 80H811C813.761 80 816 82.2386 816 85H814C814 83.3431 812.657 82 811 82H208C206.343 82 205 83.3431 205 85H203ZM816 123C816 125.761 813.761 128 811 128H208C205.239 128 203 125.761 203 123H205C205 124.657 206.343 126 208 126H811C812.657 126 814 124.657 814 123H816ZM208 128C205.239 128 203 125.761 203 123V85C203 82.2386 205.239 80 208 80V82C206.343 82 205 83.3431 205 85V123C205 124.657 206.343 126 208 126V128ZM811 80C813.761 80 816 82.2386 816 85V123C816 125.761 813.761 128 811 128V126C812.657 126 814 124.657 814 123V85C814 83.3431 812.657 82 811 82V80Z" fill="#939393" mask="url(#path-11-inside-1_7039_529172)"/>
<mask id="path-15-inside-2_7039_529172" fill="white">
<path d="M204 171C204 168.791 205.791 167 208 167H811C813.209 167 815 168.791 815 171V209C815 211.209 813.209 213 811 213H208C205.791 213 204 211.209 204 209V171Z"/>
</mask>
<path d="M204 171C204 168.791 205.791 167 208 167H811C813.209 167 815 168.791 815 171V209C815 211.209 813.209 213 811 213H208C205.791 213 204 211.209 204 209V171Z" fill="#F1F1F1"/>
<path d="M230.288 197H228.848V191.672H222.992V197H221.552V185.576H222.992V190.408H228.848V185.576H230.288V197ZM240.675 192.696C240.675 194.115 240.313 195.213 239.587 195.992C238.873 196.771 237.902 197.16 236.675 197.16C235.918 197.16 235.241 196.989 234.643 196.648C234.057 196.296 233.593 195.789 233.251 195.128C232.91 194.456 232.739 193.645 232.739 192.696C232.739 191.277 233.091 190.184 233.795 189.416C234.51 188.648 235.486 188.264 236.723 188.264C237.491 188.264 238.174 188.44 238.771 188.792C239.369 189.133 239.833 189.635 240.163 190.296C240.505 190.947 240.675 191.747 240.675 192.696ZM234.195 192.696C234.195 193.709 234.393 194.515 234.787 195.112C235.193 195.699 235.833 195.992 236.707 195.992C237.571 195.992 238.206 195.699 238.611 195.112C239.017 194.515 239.219 193.709 239.219 192.696C239.219 191.683 239.017 190.888 238.611 190.312C238.206 189.736 237.566 189.448 236.691 189.448C235.817 189.448 235.182 189.736 234.787 190.312C234.393 190.888 234.195 191.683 234.195 192.696ZM244.482 197L241.234 188.424H242.738L244.562 193.48C244.648 193.715 244.738 193.976 244.834 194.264C244.93 194.552 245.016 194.829 245.09 195.096C245.165 195.363 245.218 195.581 245.25 195.752H245.314C245.346 195.581 245.405 195.363 245.49 195.096C245.576 194.819 245.666 194.541 245.762 194.264C245.858 193.976 245.949 193.715 246.034 193.48L247.858 188.424H249.362L246.098 197H244.482ZM254.031 188.264C254.757 188.264 255.386 188.424 255.919 188.744C256.453 189.064 256.858 189.517 257.135 190.104C257.423 190.68 257.567 191.357 257.567 192.136V192.984H251.695C251.717 193.955 251.962 194.696 252.431 195.208C252.911 195.709 253.578 195.96 254.431 195.96C254.975 195.96 255.455 195.912 255.871 195.816C256.298 195.709 256.735 195.56 257.183 195.368V196.6C256.746 196.792 256.314 196.931 255.887 197.016C255.461 197.112 254.954 197.16 254.367 197.16C253.546 197.16 252.826 196.995 252.207 196.664C251.589 196.333 251.103 195.843 250.751 195.192C250.41 194.541 250.239 193.736 250.239 192.776C250.239 191.837 250.394 191.032 250.703 190.36C251.023 189.688 251.466 189.171 252.031 188.808C252.607 188.445 253.274 188.264 254.031 188.264ZM254.015 189.416C253.343 189.416 252.81 189.635 252.415 190.072C252.031 190.499 251.802 191.096 251.727 191.864H256.095C256.085 191.139 255.914 190.552 255.583 190.104C255.253 189.645 254.73 189.416 254.015 189.416ZM263.751 188.264C263.911 188.264 264.081 188.275 264.263 188.296C264.444 188.307 264.609 188.328 264.759 188.36L264.583 189.656C264.444 189.624 264.289 189.597 264.119 189.576C263.948 189.555 263.793 189.544 263.655 189.544C263.217 189.544 262.807 189.667 262.423 189.912C262.039 190.147 261.729 190.483 261.495 190.92C261.271 191.347 261.159 191.848 261.159 192.424V197H259.751V188.424H260.903L261.063 189.992H261.127C261.393 189.523 261.745 189.117 262.183 188.776C262.631 188.435 263.153 188.264 263.751 188.264Z" fill="black"/>
<path d="M794 196.962C793.9 196.962 793.8 196.913 793.75 196.863L788.1 191.262C788.05 191.212 788 191.112 788 191.012C788 190.912 788.05 190.812 788.1 190.762L793.7 185.113C793.85 184.962 794.1 184.962 794.25 185.113C794.4 185.263 794.4 185.512 794.25 185.662L788.9 191.012L794.25 196.363C794.4 196.513 794.4 196.762 794.25 196.912C794.15 196.962 794.1 196.962 794 196.962Z" fill="black"/>
<path d="M203 171C203 168.239 205.239 166 208 166H811C813.761 166 816 168.239 816 171H814C814 169.343 812.657 168 811 168H208C206.343 168 205 169.343 205 171H203ZM816 209C816 211.761 813.761 214 811 214H208C205.239 214 203 211.761 203 209H205C205 210.657 206.343 212 208 212H811C812.657 212 814 210.657 814 209H816ZM208 214C205.239 214 203 211.761 203 209V171C203 168.239 205.239 166 208 166V168C206.343 168 205 169.343 205 171V209C205 210.657 206.343 212 208 212V214ZM811 166C813.761 166 816 168.239 816 171V209C816 211.761 813.761 214 811 214V212C812.657 212 814 210.657 814 209V171C814 169.343 812.657 168 811 168V166Z" fill="#939393" mask="url(#path-15-inside-2_7039_529172)"/>
<mask id="path-19-inside-3_7039_529172" fill="white">
<path d="M204 257C204 254.791 205.791 253 208 253H811C813.209 253 815 254.791 815 257V295C815 297.209 813.209 299 811 299H208C205.791 299 204 297.209 204 295V257Z"/>
</mask>
<path d="M204 257C204 254.791 205.791 253 208 253H811C813.209 253 815 254.791 815 257V295C815 297.209 813.209 299 811 299H208C205.791 299 204 297.209 204 295V257Z" fill="#F1F1F1"/>
<path d="M230.704 277.176C230.704 279.107 230.176 280.563 229.12 281.544C228.075 282.515 226.613 283 224.736 283H221.552V271.576H225.072C226.213 271.576 227.205 271.789 228.048 272.216C228.901 272.643 229.557 273.272 230.016 274.104C230.475 274.936 230.704 275.96 230.704 277.176ZM229.184 277.224C229.184 275.699 228.805 274.584 228.048 273.88C227.301 273.165 226.24 272.808 224.864 272.808H222.992V281.768H224.544C227.637 281.768 229.184 280.253 229.184 277.224ZM233.768 271.208C233.981 271.208 234.168 271.283 234.328 271.432C234.498 271.571 234.584 271.795 234.584 272.104C234.584 272.413 234.498 272.643 234.328 272.792C234.168 272.931 233.981 273 233.768 273C233.533 273 233.336 272.931 233.176 272.792C233.016 272.643 232.936 272.413 232.936 272.104C232.936 271.795 233.016 271.571 233.176 271.432C233.336 271.283 233.533 271.208 233.768 271.208ZM234.456 274.424V283H233.048V274.424H234.456ZM242.757 280.632C242.757 281.464 242.447 282.093 241.829 282.52C241.21 282.947 240.378 283.16 239.333 283.16C238.735 283.16 238.218 283.112 237.781 283.016C237.354 282.92 236.975 282.787 236.645 282.616V281.336C236.986 281.507 237.397 281.667 237.877 281.816C238.367 281.955 238.863 282.024 239.365 282.024C240.079 282.024 240.597 281.912 240.917 281.688C241.237 281.453 241.397 281.144 241.397 280.76C241.397 280.547 241.338 280.355 241.221 280.184C241.103 280.013 240.89 279.843 240.581 279.672C240.282 279.501 239.85 279.309 239.285 279.096C238.73 278.883 238.255 278.669 237.861 278.456C237.466 278.243 237.162 277.987 236.949 277.688C236.735 277.389 236.629 277.005 236.629 276.536C236.629 275.811 236.922 275.251 237.509 274.856C238.106 274.461 238.885 274.264 239.845 274.264C240.367 274.264 240.853 274.317 241.301 274.424C241.759 274.531 242.186 274.669 242.581 274.84L242.101 275.96C241.738 275.811 241.359 275.683 240.965 275.576C240.57 275.469 240.165 275.416 239.749 275.416C239.173 275.416 238.73 275.512 238.421 275.704C238.122 275.885 237.973 276.136 237.973 276.456C237.973 276.701 238.042 276.904 238.181 277.064C238.319 277.224 238.549 277.384 238.869 277.544C239.199 277.704 239.637 277.885 240.181 278.088C240.725 278.291 241.189 278.499 241.573 278.712C241.957 278.925 242.25 279.187 242.453 279.496C242.655 279.795 242.757 280.173 242.757 280.632ZM248.077 274.28C249.122 274.28 249.895 274.509 250.397 274.968C250.898 275.427 251.149 276.157 251.149 277.16V283H250.125L249.853 281.784H249.789C249.415 282.253 249.021 282.6 248.605 282.824C248.189 283.048 247.623 283.16 246.909 283.16C246.13 283.16 245.485 282.957 244.973 282.552C244.461 282.136 244.205 281.491 244.205 280.616C244.205 279.763 244.541 279.107 245.213 278.648C245.885 278.179 246.919 277.923 248.317 277.88L249.773 277.832V277.32C249.773 276.605 249.618 276.109 249.309 275.832C248.999 275.555 248.562 275.416 247.997 275.416C247.549 275.416 247.122 275.485 246.717 275.624C246.311 275.752 245.933 275.901 245.581 276.072L245.149 275.016C245.522 274.813 245.965 274.643 246.477 274.504C246.989 274.355 247.522 274.28 248.077 274.28ZM249.757 278.808L248.493 278.856C247.426 278.899 246.685 279.069 246.269 279.368C245.863 279.667 245.661 280.088 245.661 280.632C245.661 281.112 245.805 281.464 246.093 281.688C246.391 281.912 246.77 282.024 247.229 282.024C247.943 282.024 248.541 281.827 249.021 281.432C249.511 281.027 249.757 280.408 249.757 279.576V278.808ZM255.206 270.84V273.8C255.206 274.163 255.195 274.504 255.174 274.824C255.163 275.133 255.147 275.379 255.126 275.56H255.206C255.451 275.197 255.787 274.893 256.214 274.648C256.64 274.403 257.19 274.28 257.862 274.28C258.928 274.28 259.782 274.653 260.422 275.4C261.072 276.136 261.398 277.24 261.398 278.712C261.398 280.184 261.072 281.293 260.422 282.04C259.771 282.787 258.918 283.16 257.862 283.16C257.19 283.16 256.64 283.037 256.214 282.792C255.787 282.547 255.451 282.253 255.206 281.912H255.094L254.806 283H253.798V270.84H255.206ZM257.622 275.448C256.704 275.448 256.07 275.709 255.718 276.232C255.376 276.755 255.206 277.565 255.206 278.664V278.728C255.206 279.784 255.376 280.595 255.718 281.16C256.07 281.715 256.715 281.992 257.654 281.992C258.422 281.992 258.992 281.709 259.366 281.144C259.75 280.579 259.942 279.763 259.942 278.696C259.942 276.531 259.168 275.448 257.622 275.448ZM265.049 283H263.641V270.84H265.049V283ZM271.078 274.264C271.804 274.264 272.433 274.424 272.966 274.744C273.5 275.064 273.905 275.517 274.182 276.104C274.47 276.68 274.614 277.357 274.614 278.136V278.984H268.742C268.764 279.955 269.009 280.696 269.478 281.208C269.958 281.709 270.625 281.96 271.478 281.96C272.022 281.96 272.502 281.912 272.918 281.816C273.345 281.709 273.782 281.56 274.23 281.368V282.6C273.793 282.792 273.361 282.931 272.934 283.016C272.508 283.112 272.001 283.16 271.414 283.16C270.593 283.16 269.873 282.995 269.254 282.664C268.636 282.333 268.15 281.843 267.798 281.192C267.457 280.541 267.286 279.736 267.286 278.776C267.286 277.837 267.441 277.032 267.75 276.36C268.07 275.688 268.513 275.171 269.078 274.808C269.654 274.445 270.321 274.264 271.078 274.264ZM271.062 275.416C270.39 275.416 269.857 275.635 269.462 276.072C269.078 276.499 268.849 277.096 268.774 277.864H273.142C273.132 277.139 272.961 276.552 272.63 276.104C272.3 275.645 271.777 275.416 271.062 275.416ZM279.838 283.16C278.771 283.16 277.918 282.792 277.278 282.056C276.638 281.309 276.318 280.2 276.318 278.728C276.318 277.256 276.638 276.147 277.278 275.4C277.928 274.643 278.787 274.264 279.854 274.264C280.515 274.264 281.054 274.387 281.47 274.632C281.896 274.877 282.243 275.176 282.51 275.528H282.606C282.584 275.389 282.563 275.187 282.542 274.92C282.52 274.643 282.51 274.424 282.51 274.264V270.84H283.918V283H282.782L282.574 281.848H282.51C282.254 282.211 281.912 282.52 281.486 282.776C281.059 283.032 280.51 283.16 279.838 283.16ZM280.062 281.992C280.968 281.992 281.603 281.747 281.966 281.256C282.339 280.755 282.526 280.003 282.526 279V278.744C282.526 277.677 282.35 276.861 281.998 276.296C281.646 275.72 280.995 275.432 280.046 275.432C279.288 275.432 278.718 275.736 278.334 276.344C277.96 276.941 277.774 277.747 277.774 278.76C277.774 279.784 277.96 280.579 278.334 281.144C278.718 281.709 279.294 281.992 280.062 281.992Z" fill="#939393"/>
<path d="M794 282.962C793.9 282.962 793.8 282.913 793.75 282.863L788.1 277.262C788.05 277.212 788 277.112 788 277.012C788 276.912 788.05 276.812 788.1 276.762L793.7 271.113C793.85 270.962 794.1 270.962 794.25 271.113C794.4 271.263 794.4 271.512 794.25 271.662L788.9 277.012L794.25 282.363C794.4 282.513 794.4 282.762 794.25 282.912C794.15 282.962 794.1 282.962 794 282.962Z" fill="#939393"/>
<path d="M203 257C203 254.239 205.239 252 208 252H811C813.761 252 816 254.239 816 257H814C814 255.343 812.657 254 811 254H208C206.343 254 205 255.343 205 257H203ZM816 295C816 297.761 813.761 300 811 300H208C205.239 300 203 297.761 203 295H205C205 296.657 206.343 298 208 298H811C812.657 298 814 296.657 814 295H816ZM208 300C205.239 300 203 297.761 203 295V257C203 254.239 205.239 252 208 252V254C206.343 254 205 255.343 205 257V295C205 296.657 206.343 298 208 298V300ZM811 252C813.761 252 816 254.239 816 257V295C816 297.761 813.761 300 811 300V298C812.657 298 814 296.657 814 295V257C814 255.343 812.657 254 811 254V252Z" fill="#939393" mask="url(#path-19-inside-3_7039_529172)"/>
</svg>
