<svg width="190" height="96" viewBox="0 0 190 96" fill="none" xmlns="http://www.w3.org/2000/svg">
<rect width="190" height="96" fill="white"/>
<g clip-path="url(#clip0_8193_207327)">
<circle cx="95" cy="48" r="24" fill="white"/>
</g>
<path d="M81.255 67.6808V64.8864C81.255 61.249 82.7 57.7605 85.272 55.1884C87.8441 52.6164 91.3326 51.1714 94.97 51.1714C98.6074 51.1714 102.096 52.6164 104.668 55.1884C107.24 57.7605 108.685 61.249 108.685 64.8864V67.6808C112.878 64.761 116.03 60.5791 117.682 55.7437C119.334 50.9084 119.4 45.6721 117.87 40.7968C116.34 35.9216 113.294 31.6619 109.175 28.6378C105.056 25.6136 100.08 23.9829 94.97 23.9829C89.8603 23.9829 84.8839 25.6136 80.7652 28.6378C76.6464 31.6619 73.6003 35.9216 72.0702 40.7968C70.54 45.6721 70.6057 50.9084 72.2577 55.7437C73.9097 60.5791 77.0617 64.761 81.255 67.6808ZM94.97 31.9361C96.5263 31.9361 98.0477 32.3976 99.3418 33.2623C100.636 34.1269 101.644 35.3559 102.24 36.7938C102.836 38.2316 102.991 39.8138 102.688 41.3403C102.384 42.8667 101.635 44.2688 100.534 45.3693C99.4337 46.4698 98.0316 47.2192 96.5052 47.5229C94.9787 47.8265 93.3965 47.6707 91.9587 47.0751C90.5208 46.4795 89.2918 45.4709 88.4272 44.1769C87.5625 42.8828 87.101 41.3614 87.101 39.8051C87.1055 37.7195 87.9361 35.7206 89.4108 34.2459C90.8855 32.7711 92.8844 31.9406 94.97 31.9361Z" fill="#003A51"/>
<defs>
<clipPath id="clip0_8193_207327">
<rect x="71" y="24" width="48" height="48" rx="24" fill="white"/>
</clipPath>
</defs>
</svg>
