<svg width="269" height="57" viewBox="0 0 269 57" fill="none" xmlns="http://www.w3.org/2000/svg">
<rect width="269" height="51.0006" transform="translate(0 6)" fill="white"/>
<g clip-path="url(#clip0_8198_222032)">
<circle cx="140.5" cy="30" r="24" fill="white"/>
</g>
<path d="M126.755 49.6813V46.8869C126.755 43.2494 128.2 39.761 130.772 37.1889C133.344 34.6169 136.833 33.1719 140.47 33.1719C144.107 33.1719 147.596 34.6169 150.168 37.1889C152.74 39.761 154.185 43.2494 154.185 46.8869V49.6813C158.378 46.7615 161.53 42.5796 163.182 37.7442C164.834 32.9089 164.9 27.6726 163.37 22.7973C161.84 17.9221 158.794 13.6624 154.675 10.6383C150.556 7.61414 145.58 5.9834 140.47 5.9834C135.36 5.9834 130.384 7.61414 126.265 10.6383C122.146 13.6624 119.1 17.9221 117.57 22.7973C116.04 27.6726 116.106 32.9089 117.758 37.7442C119.41 42.5796 122.562 46.7615 126.755 49.6813ZM140.47 13.9366C142.026 13.9366 143.548 14.3981 144.842 15.2628C146.136 16.1274 147.144 17.3564 147.74 18.7943C148.336 20.2321 148.491 21.8143 148.188 23.3407C147.884 24.8672 147.135 26.2693 146.034 27.3698C144.934 28.4703 143.532 29.2197 142.005 29.5234C140.479 29.827 138.897 29.6712 137.459 29.0756C136.021 28.48 134.792 27.4714 133.927 26.1774C133.063 24.8833 132.601 23.3619 132.601 21.8056C132.606 19.72 133.436 17.7211 134.911 16.2464C136.386 14.7716 138.384 13.9411 140.47 13.9366Z" fill="#003A51"/>
<circle cx="157.5" cy="47" r="10" fill="white"/>
<path d="M157.5 38.25C155.769 38.25 154.078 38.7632 152.639 39.7246C151.2 40.6861 150.078 42.0527 149.416 43.6515C148.754 45.2504 148.581 47.0097 148.918 48.707C149.256 50.4044 150.089 51.9635 151.313 53.1872C152.537 54.4109 154.096 55.2442 155.793 55.5819C157.49 55.9195 159.25 55.7462 160.848 55.0839C162.447 54.4217 163.814 53.3002 164.775 51.8612C165.737 50.4223 166.25 48.7306 166.25 47C166.25 44.6794 165.328 42.4538 163.687 40.8128C162.046 39.1719 159.821 38.25 157.5 38.25ZM161.875 44.3312L156.906 50.975C156.832 51.0845 156.734 51.1769 156.621 51.2459C156.508 51.3148 156.382 51.3589 156.25 51.375H156.181C156.058 51.3763 155.936 51.3526 155.822 51.3053C155.708 51.2581 155.605 51.1882 155.519 51.1L152.581 48.1687C152.489 48.0829 152.415 47.9794 152.364 47.8644C152.313 47.7494 152.285 47.6253 152.283 47.4994C152.281 47.3735 152.304 47.2485 152.351 47.1318C152.398 47.015 152.468 46.909 152.557 46.82C152.646 46.7309 152.753 46.6607 152.869 46.6136C152.986 46.5664 153.111 46.5433 153.237 46.5455C153.363 46.5477 153.487 46.5753 153.602 46.6265C153.717 46.6778 153.82 46.7516 153.906 46.8438L156.05 48.9875L160.375 43.2062C160.524 43.0073 160.746 42.8758 160.992 42.8407C161.239 42.8055 161.489 42.8696 161.688 43.0188C161.886 43.1679 162.018 43.39 162.053 43.6362C162.088 43.8823 162.024 44.1323 161.875 44.3312Z" fill="#088A08"/>
<line x1="97.5" y1="6.5" x2="106.5" y2="6.5" stroke="#E8178A"/>
<line x1="102" y1="53" x2="102" y2="6" stroke="#E8178A"/>
<line x1="97.5" y1="53.5" x2="106.5" y2="53.5" stroke="#E8178A"/>
<path d="M66.2716 32.858H64.9696V35H63.2336V32.858H58.7816V31.542L63.2756 24.976H64.9696V31.416H66.2716V32.858ZM63.2336 31.416V29.176C63.2336 28.9147 63.2383 28.644 63.2476 28.364C63.257 28.0747 63.2663 27.8087 63.2756 27.566C63.2943 27.314 63.3083 27.1227 63.3176 26.992H63.2616C63.1776 27.1787 63.0843 27.3653 62.9816 27.552C62.8883 27.7293 62.781 27.9067 62.6596 28.084L60.3916 31.416H63.2336ZM70.5313 24.878C71.11 24.878 71.6327 24.9667 72.0993 25.144C72.566 25.3213 72.9393 25.592 73.2193 25.956C73.4993 26.3107 73.6393 26.7493 73.6393 27.272C73.6393 27.8693 73.462 28.364 73.1073 28.756C72.7527 29.1387 72.3187 29.4607 71.8053 29.722C72.188 29.918 72.5427 30.1373 72.8693 30.38C73.196 30.6227 73.4573 30.912 73.6533 31.248C73.8587 31.5747 73.9613 31.962 73.9613 32.41C73.9613 32.9607 73.8167 33.4413 73.5273 33.852C73.238 34.2627 72.8367 34.58 72.3233 34.804C71.8193 35.028 71.2267 35.14 70.5453 35.14C69.4347 35.14 68.5807 34.902 67.9833 34.426C67.386 33.95 67.0873 33.2967 67.0873 32.466C67.0873 32.0087 67.176 31.612 67.3533 31.276C67.5307 30.94 67.7687 30.6507 68.0673 30.408C68.366 30.1653 68.6973 29.9553 69.0613 29.778C68.604 29.498 68.212 29.162 67.8853 28.77C67.568 28.3687 67.4093 27.8647 67.4093 27.258C67.4093 26.7447 67.5493 26.3107 67.8293 25.956C68.1187 25.6013 68.4967 25.3353 68.9633 25.158C69.4393 24.9713 69.962 24.878 70.5313 24.878ZM70.5173 26.208C70.1067 26.208 69.766 26.3107 69.4953 26.516C69.234 26.7213 69.1033 27.0107 69.1033 27.384C69.1033 27.7947 69.2433 28.1213 69.5233 28.364C69.8033 28.6067 70.144 28.8167 70.5453 28.994C70.928 28.826 71.2547 28.6207 71.5253 28.378C71.8053 28.1353 71.9453 27.804 71.9453 27.384C71.9453 27.0107 71.81 26.7213 71.5393 26.516C71.278 26.3107 70.9373 26.208 70.5173 26.208ZM68.7673 32.382C68.7673 32.7927 68.912 33.1333 69.2013 33.404C69.4907 33.6653 69.9293 33.796 70.5173 33.796C71.096 33.796 71.5347 33.6653 71.8333 33.404C72.132 33.1427 72.2813 32.802 72.2813 32.382C72.2813 31.962 72.1133 31.612 71.7773 31.332C71.4413 31.052 71.0447 30.8093 70.5873 30.604L70.3913 30.506C69.8873 30.7393 69.4907 31.0053 69.2013 31.304C68.912 31.5933 68.7673 31.9527 68.7673 32.382ZM83.2998 27.272C84.1864 27.272 84.9004 27.6033 85.4418 28.266C85.9831 28.9193 86.2538 29.8947 86.2538 31.192C86.2538 32.4893 85.9738 33.474 85.4138 34.146C84.8631 34.8087 84.1444 35.14 83.2578 35.14C82.6978 35.14 82.2451 35.0373 81.8998 34.832C81.5544 34.6267 81.2791 34.3887 81.0738 34.118H80.9618C80.9898 34.2953 81.0131 34.4867 81.0318 34.692C81.0598 34.8973 81.0738 35.0933 81.0738 35.28V38.36H79.3098V27.412H80.7378L80.9898 28.42H81.0738C81.2884 28.1027 81.5684 27.832 81.9138 27.608C82.2591 27.384 82.7211 27.272 83.2998 27.272ZM82.7958 28.7C82.1704 28.7 81.7271 28.8867 81.4658 29.26C81.2138 29.6333 81.0831 30.198 81.0738 30.954V31.178C81.0738 31.99 81.1951 32.6153 81.4378 33.054C81.6898 33.4833 82.1518 33.698 82.8238 33.698C83.3744 33.698 83.7804 33.474 84.0418 33.026C84.3124 32.5687 84.4478 31.948 84.4478 31.164C84.4478 30.38 84.3124 29.7733 84.0418 29.344C83.7804 28.9147 83.3651 28.7 82.7958 28.7ZM89.438 31.122L86.932 27.412H88.934L90.586 29.988L92.238 27.412H94.24L91.706 31.122L94.366 35H92.364L90.586 32.242L88.808 35H86.806L89.438 31.122Z" fill="#E8178A"/>
<line x1="170.5" y1="37.2139" x2="179.5" y2="37.2139" stroke="#E8178A"/>
<line x1="175" y1="56.2861" x2="175" y2="37" stroke="#E8178A"/>
<line x1="170.5" y1="56.501" x2="179.5" y2="56.501" stroke="#E8178A"/>
<path d="M190.964 52.8574H184.118V51.5554L186.666 48.9794C187.17 48.4661 187.58 48.0274 187.898 47.6634C188.224 47.2994 188.462 46.9588 188.612 46.6414C188.77 46.3148 188.85 45.9648 188.85 45.5914C188.85 45.1341 188.719 44.7934 188.458 44.5694C188.206 44.3361 187.86 44.2194 187.422 44.2194C187.002 44.2194 186.61 44.3081 186.246 44.4854C185.882 44.6534 185.504 44.8961 185.112 45.2134L184.146 44.0514C184.556 43.6968 185.018 43.3888 185.532 43.1274C186.054 42.8568 186.717 42.7214 187.52 42.7214C188.164 42.7214 188.714 42.8381 189.172 43.0714C189.638 43.2954 189.998 43.6128 190.25 44.0234C190.502 44.4248 190.628 44.8868 190.628 45.4094C190.628 45.9508 190.52 46.4501 190.306 46.9074C190.091 47.3554 189.778 47.8081 189.368 48.2654C188.966 48.7134 188.486 49.1988 187.926 49.7214L186.344 51.2474V51.3314H190.964V52.8574ZM198.947 47.8594C198.947 48.9328 198.835 49.8521 198.611 50.6174C198.387 51.3828 198.023 51.9708 197.519 52.3814C197.015 52.7921 196.348 52.9974 195.517 52.9974C194.341 52.9974 193.478 52.5448 192.927 51.6394C192.377 50.7341 192.101 49.4741 192.101 47.8594C192.101 46.7861 192.213 45.8668 192.437 45.1014C192.661 44.3268 193.021 43.7341 193.515 43.3234C194.019 42.9128 194.687 42.7074 195.517 42.7074C196.684 42.7074 197.547 43.1601 198.107 44.0654C198.667 44.9708 198.947 46.2354 198.947 47.8594ZM193.879 47.8594C193.879 49.0821 193.996 50.0014 194.229 50.6174C194.472 51.2334 194.901 51.5414 195.517 51.5414C196.124 51.5414 196.549 51.2381 196.791 50.6314C197.043 50.0154 197.169 49.0914 197.169 47.8594C197.169 46.6368 197.043 45.7174 196.791 45.1014C196.549 44.4761 196.124 44.1634 195.517 44.1634C194.901 44.1634 194.472 44.4761 194.229 45.1014C193.996 45.7174 193.879 46.6368 193.879 47.8594ZM208.3 45.1294C209.186 45.1294 209.9 45.4608 210.442 46.1234C210.983 46.7768 211.254 47.7521 211.254 49.0494C211.254 50.3468 210.974 51.3314 210.414 52.0034C209.863 52.6661 209.144 52.9974 208.258 52.9974C207.698 52.9974 207.245 52.8948 206.9 52.6894C206.554 52.4841 206.279 52.2461 206.074 51.9754H205.962C205.99 52.1528 206.013 52.3441 206.032 52.5494C206.06 52.7548 206.074 52.9508 206.074 53.1374V56.2174H204.31V45.2694H205.738L205.99 46.2774H206.074C206.288 45.9601 206.568 45.6894 206.914 45.4654C207.259 45.2414 207.721 45.1294 208.3 45.1294ZM207.796 46.5574C207.17 46.5574 206.727 46.7441 206.466 47.1174C206.214 47.4908 206.083 48.0554 206.074 48.8114V49.0354C206.074 49.8474 206.195 50.4728 206.438 50.9114C206.69 51.3408 207.152 51.5554 207.824 51.5554C208.374 51.5554 208.78 51.3314 209.042 50.8834C209.312 50.4261 209.448 49.8054 209.448 49.0214C209.448 48.2374 209.312 47.6308 209.042 47.2014C208.78 46.7721 208.365 46.5574 207.796 46.5574ZM214.438 48.9794L211.932 45.2694H213.934L215.586 47.8454L217.238 45.2694H219.24L216.706 48.9794L219.366 52.8574H217.364L215.586 50.0994L213.808 52.8574H211.806L214.438 48.9794Z" fill="#E8178A"/>
<defs>
<clipPath id="clip0_8198_222032">
<rect x="116.5" y="6" width="48" height="48" rx="24" fill="white"/>
</clipPath>
</defs>
</svg>
