<svg width="269" height="96" viewBox="0 0 269 96" fill="none" xmlns="http://www.w3.org/2000/svg">
<rect width="269" height="96" fill="white"/>
<g clip-path="url(#clip0_8193_209418)">
<circle cx="134.5" cy="48" r="24" fill="white"/>
</g>
<path d="M120.755 67.6808V64.8864C120.755 61.249 122.2 57.7605 124.772 55.1884C127.344 52.6164 130.833 51.1714 134.47 51.1714C138.107 51.1714 141.596 52.6164 144.168 55.1884C146.74 57.7605 148.185 61.249 148.185 64.8864V67.6808C152.378 64.761 155.53 60.5791 157.182 55.7437C158.834 50.9084 158.9 45.6721 157.37 40.7968C155.84 35.9216 152.794 31.6619 148.675 28.6378C144.556 25.6136 139.58 23.9829 134.47 23.9829C129.36 23.9829 124.384 25.6136 120.265 28.6378C116.146 31.6619 113.1 35.9216 111.57 40.7968C110.04 45.6721 110.106 50.9084 111.758 55.7437C113.41 60.5791 116.562 64.761 120.755 67.6808ZM134.47 31.9361C136.026 31.9361 137.548 32.3976 138.842 33.2623C140.136 34.1269 141.144 35.3559 141.74 36.7938C142.336 38.2316 142.491 39.8138 142.188 41.3403C141.884 42.8667 141.135 44.2688 140.034 45.3693C138.934 46.4698 137.532 47.2192 136.005 47.5229C134.479 47.8265 132.897 47.6707 131.459 47.0751C130.021 46.4795 128.792 45.4709 127.927 44.1769C127.063 42.8828 126.601 41.3614 126.601 39.8051C126.606 37.7195 127.436 35.7206 128.911 34.2459C130.386 32.7711 132.384 31.9406 134.47 31.9361Z" fill="#003A51"/>
<circle cx="151.5" cy="65" r="10" fill="white"/>
<path d="M151.5 56.25C149.769 56.25 148.078 56.7632 146.639 57.7246C145.2 58.6861 144.078 60.0527 143.416 61.6515C142.754 63.2504 142.581 65.0097 142.918 66.707C143.256 68.4044 144.089 69.9635 145.313 71.1872C146.537 72.4109 148.096 73.2442 149.793 73.5819C151.49 73.9195 153.25 73.7462 154.848 73.0839C156.447 72.4217 157.814 71.3002 158.775 69.8612C159.737 68.4223 160.25 66.7306 160.25 65C160.25 62.6794 159.328 60.4538 157.687 58.8128C156.046 57.1719 153.821 56.25 151.5 56.25ZM156.619 65.9375H151.5C151.251 65.9375 151.013 65.8387 150.837 65.6629C150.661 65.4871 150.563 65.2486 150.563 65V59.8812C150.563 59.6326 150.661 59.3942 150.837 59.2183C151.013 59.0425 151.251 58.9437 151.5 58.9437C151.749 58.9437 151.987 59.0425 152.163 59.2183C152.339 59.3942 152.438 59.6326 152.438 59.8812V64.0625H156.619C156.867 64.0625 157.106 64.1613 157.282 64.3371C157.457 64.5129 157.556 64.7514 157.556 65C157.556 65.2486 157.457 65.4871 157.282 65.6629C157.106 65.8387 156.867 65.9375 156.619 65.9375Z" fill="#F38D00"/>
<defs>
<clipPath id="clip0_8193_209418">
<rect x="110.5" y="24" width="48" height="48" rx="24" fill="white"/>
</clipPath>
</defs>
</svg>
