<svg width="310" height="123" viewBox="0 0 310 123" fill="none" xmlns="http://www.w3.org/2000/svg">
<rect width="310" height="64" rx="4" fill="#323232"/>
<path d="M18.024 18.708C18.024 19.468 17.748 20.06 17.196 20.484C16.644 20.908 15.9 21.12 14.964 21.12C14.484 21.12 14.04 21.084 13.632 21.012C13.224 20.94 12.884 20.84 12.612 20.712V19.68C12.9 19.808 13.256 19.924 13.68 20.028C14.112 20.132 14.556 20.184 15.012 20.184C15.644 20.184 16.124 20.06 16.452 19.812C16.78 19.564 16.944 19.228 16.944 18.804C16.944 18.524 16.884 18.288 16.764 18.096C16.644 17.904 16.436 17.728 16.14 17.568C15.844 17.408 15.44 17.232 14.928 17.04C14.192 16.776 13.64 16.452 13.272 16.068C12.904 15.684 12.72 15.16 12.72 14.496C12.72 14.048 12.836 13.66 13.068 13.332C13.3 13.004 13.62 12.752 14.028 12.576C14.436 12.4 14.912 12.312 15.456 12.312C15.92 12.312 16.348 12.356 16.74 12.444C17.132 12.532 17.492 12.648 17.82 12.792L17.484 13.716C17.188 13.588 16.864 13.48 16.512 13.392C16.16 13.304 15.8 13.26 15.432 13.26C14.896 13.26 14.492 13.376 14.22 13.608C13.948 13.832 13.812 14.132 13.812 14.508C13.812 14.796 13.872 15.036 13.992 15.228C14.112 15.42 14.308 15.596 14.58 15.756C14.852 15.908 15.22 16.068 15.684 16.236C16.188 16.42 16.612 16.62 16.956 16.836C17.308 17.044 17.572 17.296 17.748 17.592C17.932 17.888 18.024 18.26 18.024 18.708ZM22.0419 14.46C22.8259 14.46 23.4059 14.632 23.7819 14.976C24.1579 15.32 24.3459 15.868 24.3459 16.62V21H23.5779L23.3739 20.088H23.3259C23.0459 20.44 22.7499 20.7 22.4379 20.868C22.1259 21.036 21.7019 21.12 21.1659 21.12C20.5819 21.12 20.0979 20.968 19.7139 20.664C19.3299 20.352 19.1379 19.868 19.1379 19.212C19.1379 18.572 19.3899 18.08 19.8939 17.736C20.3979 17.384 21.1739 17.192 22.2219 17.16L23.3139 17.124V16.74C23.3139 16.204 23.1979 15.832 22.9659 15.624C22.7339 15.416 22.4059 15.312 21.9819 15.312C21.6459 15.312 21.3259 15.364 21.0219 15.468C20.7179 15.564 20.4339 15.676 20.1699 15.804L19.8459 15.012C20.1259 14.86 20.4579 14.732 20.8419 14.628C21.2259 14.516 21.6259 14.46 22.0419 14.46ZM23.3019 17.856L22.3539 17.892C21.5539 17.924 20.9979 18.052 20.6859 18.276C20.3819 18.5 20.2299 18.816 20.2299 19.224C20.2299 19.584 20.3379 19.848 20.5539 20.016C20.7779 20.184 21.0619 20.268 21.4059 20.268C21.9419 20.268 22.3899 20.12 22.7499 19.824C23.1179 19.52 23.3019 19.056 23.3019 18.432V17.856ZM27.3885 21H26.3325V11.88H27.3885V21ZM31.9103 14.448C32.4543 14.448 32.9263 14.568 33.3263 14.808C33.7263 15.048 34.0303 15.388 34.2383 15.828C34.4543 16.26 34.5623 16.768 34.5623 17.352V17.988H30.1583C30.1743 18.716 30.3583 19.272 30.7103 19.656C31.0703 20.032 31.5703 20.22 32.2103 20.22C32.6183 20.22 32.9783 20.184 33.2903 20.112C33.6103 20.032 33.9383 19.92 34.2743 19.776V20.7C33.9463 20.844 33.6223 20.948 33.3023 21.012C32.9823 21.084 32.6023 21.12 32.1623 21.12C31.5463 21.12 31.0063 20.996 30.5423 20.748C30.0783 20.5 29.7143 20.132 29.4503 19.644C29.1943 19.156 29.0663 18.552 29.0663 17.832C29.0663 17.128 29.1823 16.524 29.4143 16.02C29.6543 15.516 29.9863 15.128 30.4103 14.856C30.8423 14.584 31.3423 14.448 31.9103 14.448ZM31.8983 15.312C31.3943 15.312 30.9943 15.476 30.6983 15.804C30.4103 16.124 30.2383 16.572 30.1823 17.148H33.4583C33.4503 16.604 33.3223 16.164 33.0743 15.828C32.8263 15.484 32.4343 15.312 31.8983 15.312ZM40.3877 19.224C40.3877 19.848 40.1557 20.32 39.6917 20.64C39.2277 20.96 38.6037 21.12 37.8197 21.12C37.3717 21.12 36.9837 21.084 36.6557 21.012C36.3357 20.94 36.0517 20.84 35.8037 20.712V19.752C36.0597 19.88 36.3677 20 36.7277 20.112C37.0957 20.216 37.4677 20.268 37.8437 20.268C38.3797 20.268 38.7677 20.184 39.0077 20.016C39.2477 19.84 39.3677 19.608 39.3677 19.32C39.3677 19.16 39.3237 19.016 39.2357 18.888C39.1477 18.76 38.9877 18.632 38.7557 18.504C38.5317 18.376 38.2077 18.232 37.7837 18.072C37.3677 17.912 37.0117 17.752 36.7157 17.592C36.4197 17.432 36.1917 17.24 36.0317 17.016C35.8717 16.792 35.7917 16.504 35.7917 16.152C35.7917 15.608 36.0117 15.188 36.4517 14.892C36.8997 14.596 37.4837 14.448 38.2037 14.448C38.5957 14.448 38.9597 14.488 39.2957 14.568C39.6397 14.648 39.9597 14.752 40.2557 14.88L39.8957 15.72C39.6237 15.608 39.3397 15.512 39.0437 15.432C38.7477 15.352 38.4437 15.312 38.1317 15.312C37.6997 15.312 37.3677 15.384 37.1357 15.528C36.9117 15.664 36.7997 15.852 36.7997 16.092C36.7997 16.276 36.8517 16.428 36.9557 16.548C37.0597 16.668 37.2317 16.788 37.4717 16.908C37.7197 17.028 38.0477 17.164 38.4557 17.316C38.8637 17.468 39.2117 17.624 39.4997 17.784C39.7877 17.944 40.0077 18.14 40.1597 18.372C40.3117 18.596 40.3877 18.88 40.3877 19.224ZM43.1419 19.608L43.2259 19.74C43.1139 20.164 42.9619 20.628 42.7699 21.132C42.5779 21.644 42.3859 22.116 42.1939 22.548H41.4139C41.5259 22.092 41.6379 21.592 41.7499 21.048C41.8699 20.504 41.9579 20.024 42.0139 19.608H43.1419ZM50.778 12.432C51.842 12.432 52.626 12.636 53.13 13.044C53.642 13.444 53.898 14.052 53.898 14.868C53.898 15.324 53.814 15.704 53.646 16.008C53.478 16.312 53.262 16.556 52.998 16.74C52.742 16.924 52.47 17.064 52.182 17.16L54.534 21H53.274L51.198 17.46H49.494V21H48.414V12.432H50.778ZM50.718 13.368H49.494V16.548H50.778C51.474 16.548 51.982 16.412 52.302 16.14C52.622 15.86 52.782 15.452 52.782 14.916C52.782 14.356 52.614 13.96 52.278 13.728C51.942 13.488 51.422 13.368 50.718 13.368ZM58.2188 14.448C58.7628 14.448 59.2348 14.568 59.6348 14.808C60.0348 15.048 60.3388 15.388 60.5468 15.828C60.7628 16.26 60.8708 16.768 60.8708 17.352V17.988H56.4668C56.4828 18.716 56.6668 19.272 57.0188 19.656C57.3788 20.032 57.8788 20.22 58.5188 20.22C58.9268 20.22 59.2868 20.184 59.5988 20.112C59.9188 20.032 60.2468 19.92 60.5828 19.776V20.7C60.2548 20.844 59.9308 20.948 59.6108 21.012C59.2908 21.084 58.9108 21.12 58.4708 21.12C57.8548 21.12 57.3148 20.996 56.8508 20.748C56.3868 20.5 56.0228 20.132 55.7588 19.644C55.5028 19.156 55.3748 18.552 55.3748 17.832C55.3748 17.128 55.4908 16.524 55.7228 16.02C55.9628 15.516 56.2948 15.128 56.7188 14.856C57.1508 14.584 57.6508 14.448 58.2188 14.448ZM58.2068 15.312C57.7028 15.312 57.3028 15.476 57.0068 15.804C56.7188 16.124 56.5468 16.572 56.4908 17.148H59.7668C59.7588 16.604 59.6308 16.164 59.3828 15.828C59.1348 15.484 58.7428 15.312 58.2068 15.312ZM64.6563 20.256C64.8163 20.256 64.9803 20.244 65.1483 20.22C65.3163 20.196 65.4523 20.164 65.5563 20.124V20.928C65.4443 20.984 65.2843 21.028 65.0763 21.06C64.8683 21.1 64.6683 21.12 64.4763 21.12C64.1403 21.12 63.8283 21.064 63.5403 20.952C63.2603 20.832 63.0323 20.628 62.8563 20.34C62.6803 20.052 62.5923 19.648 62.5923 19.128V15.384H61.6803V14.88L62.6043 14.46L63.0243 13.092H63.6483V14.568H65.5083V15.384H63.6483V19.104C63.6483 19.496 63.7403 19.788 63.9243 19.98C64.1163 20.164 64.3603 20.256 64.6563 20.256ZM69.3282 14.448C69.8722 14.448 70.3442 14.568 70.7442 14.808C71.1442 15.048 71.4482 15.388 71.6562 15.828C71.8722 16.26 71.9802 16.768 71.9802 17.352V17.988H67.5762C67.5922 18.716 67.7762 19.272 68.1282 19.656C68.4882 20.032 68.9882 20.22 69.6282 20.22C70.0362 20.22 70.3962 20.184 70.7082 20.112C71.0282 20.032 71.3562 19.92 71.6922 19.776V20.7C71.3642 20.844 71.0402 20.948 70.7202 21.012C70.4002 21.084 70.0202 21.12 69.5802 21.12C68.9642 21.12 68.4242 20.996 67.9602 20.748C67.4962 20.5 67.1322 20.132 66.8682 19.644C66.6122 19.156 66.4842 18.552 66.4842 17.832C66.4842 17.128 66.6002 16.524 66.8322 16.02C67.0722 15.516 67.4042 15.128 67.8282 14.856C68.2602 14.584 68.7602 14.448 69.3282 14.448ZM69.3162 15.312C68.8122 15.312 68.4122 15.476 68.1162 15.804C67.8282 16.124 67.6562 16.572 67.6002 17.148H70.8762C70.8682 16.604 70.7402 16.164 70.4922 15.828C70.2442 15.484 69.8522 15.312 69.3162 15.312ZM76.7137 14.448C77.4817 14.448 78.0617 14.636 78.4537 15.012C78.8457 15.388 79.0417 15.988 79.0417 16.812V21H77.9977V16.884C77.9977 15.852 77.5177 15.336 76.5577 15.336C75.8457 15.336 75.3537 15.536 75.0817 15.936C74.8097 16.336 74.6737 16.912 74.6737 17.664V21H73.6177V14.568H74.4697L74.6257 15.444H74.6857C74.8937 15.108 75.1817 14.86 75.5497 14.7C75.9177 14.532 76.3057 14.448 76.7137 14.448ZM83.1836 20.256C83.3436 20.256 83.5076 20.244 83.6756 20.22C83.8436 20.196 83.9796 20.164 84.0836 20.124V20.928C83.9716 20.984 83.8116 21.028 83.6036 21.06C83.3956 21.1 83.1956 21.12 83.0036 21.12C82.6676 21.12 82.3556 21.064 82.0676 20.952C81.7876 20.832 81.5596 20.628 81.3836 20.34C81.2076 20.052 81.1196 19.648 81.1196 19.128V15.384H80.2076V14.88L81.1316 14.46L81.5516 13.092H82.1756V14.568H84.0356V15.384H82.1756V19.104C82.1756 19.496 82.2676 19.788 82.4516 19.98C82.6436 20.164 82.8876 20.256 83.1836 20.256ZM85.9116 12.156C86.0716 12.156 86.2116 12.212 86.3316 12.324C86.4596 12.428 86.5236 12.596 86.5236 12.828C86.5236 13.06 86.4596 13.232 86.3316 13.344C86.2116 13.448 86.0716 13.5 85.9116 13.5C85.7356 13.5 85.5876 13.448 85.4676 13.344C85.3476 13.232 85.2876 13.06 85.2876 12.828C85.2876 12.596 85.3476 12.428 85.4676 12.324C85.5876 12.212 85.7356 12.156 85.9116 12.156ZM86.4276 14.568V21H85.3716V14.568H86.4276ZM94.0573 17.772C94.0573 18.836 93.7853 19.66 93.2413 20.244C92.7053 20.828 91.9773 21.12 91.0573 21.12C90.4893 21.12 89.9813 20.992 89.5333 20.736C89.0933 20.472 88.7453 20.092 88.4893 19.596C88.2333 19.092 88.1053 18.484 88.1053 17.772C88.1053 16.708 88.3693 15.888 88.8973 15.312C89.4333 14.736 90.1653 14.448 91.0933 14.448C91.6693 14.448 92.1813 14.58 92.6293 14.844C93.0773 15.1 93.4253 15.476 93.6733 15.972C93.9293 16.46 94.0573 17.06 94.0573 17.772ZM89.1973 17.772C89.1973 18.532 89.3453 19.136 89.6413 19.584C89.9453 20.024 90.4253 20.244 91.0813 20.244C91.7293 20.244 92.2053 20.024 92.5093 19.584C92.8133 19.136 92.9653 18.532 92.9653 17.772C92.9653 17.012 92.8133 16.416 92.5093 15.984C92.2053 15.552 91.7253 15.336 91.0693 15.336C90.4133 15.336 89.9373 15.552 89.6413 15.984C89.3453 16.416 89.1973 17.012 89.1973 17.772ZM98.8269 14.448C99.5949 14.448 100.175 14.636 100.567 15.012C100.959 15.388 101.155 15.988 101.155 16.812V21H100.111V16.884C100.111 15.852 99.6309 15.336 98.6709 15.336C97.9589 15.336 97.4669 15.536 97.1949 15.936C96.9229 16.336 96.7869 16.912 96.7869 17.664V21H95.7309V14.568H96.5829L96.7389 15.444H96.7989C97.0069 15.108 97.2949 14.86 97.6629 14.7C98.0309 14.532 98.4189 14.448 98.8269 14.448ZM104.349 19.608L104.433 19.74C104.321 20.164 104.169 20.628 103.977 21.132C103.785 21.644 103.593 22.116 103.401 22.548H102.621C102.733 22.092 102.845 21.592 102.957 21.048C103.077 20.504 103.165 20.024 103.221 19.608H104.349ZM112.333 21H111.253V13.38H108.577V12.432H114.997V13.38H112.333V21ZM117.785 14.448C118.329 14.448 118.801 14.568 119.201 14.808C119.601 15.048 119.905 15.388 120.113 15.828C120.329 16.26 120.437 16.768 120.437 17.352V17.988H116.033C116.049 18.716 116.233 19.272 116.585 19.656C116.945 20.032 117.445 20.22 118.085 20.22C118.493 20.22 118.853 20.184 119.165 20.112C119.485 20.032 119.813 19.92 120.149 19.776V20.7C119.821 20.844 119.497 20.948 119.177 21.012C118.857 21.084 118.477 21.12 118.037 21.12C117.421 21.12 116.881 20.996 116.417 20.748C115.953 20.5 115.589 20.132 115.325 19.644C115.069 19.156 114.941 18.552 114.941 17.832C114.941 17.128 115.057 16.524 115.289 16.02C115.529 15.516 115.861 15.128 116.285 14.856C116.717 14.584 117.217 14.448 117.785 14.448ZM117.773 15.312C117.269 15.312 116.869 15.476 116.573 15.804C116.285 16.124 116.113 16.572 116.057 17.148H119.333C119.325 16.604 119.197 16.164 118.949 15.828C118.701 15.484 118.309 15.312 117.773 15.312ZM124.655 21.12C124.079 21.12 123.571 21.004 123.131 20.772C122.691 20.54 122.343 20.18 122.087 19.692C121.839 19.204 121.715 18.58 121.715 17.82C121.715 17.028 121.843 16.384 122.099 15.888C122.363 15.392 122.723 15.028 123.179 14.796C123.635 14.564 124.151 14.448 124.727 14.448C125.047 14.448 125.359 14.484 125.663 14.556C125.975 14.62 126.227 14.7 126.419 14.796L126.095 15.672C125.903 15.6 125.679 15.532 125.423 15.468C125.167 15.404 124.927 15.372 124.703 15.372C123.439 15.372 122.807 16.184 122.807 17.808C122.807 18.584 122.959 19.18 123.263 19.596C123.575 20.004 124.035 20.208 124.643 20.208C124.987 20.208 125.295 20.172 125.567 20.1C125.839 20.028 126.087 19.94 126.311 19.836V20.772C126.095 20.884 125.855 20.968 125.591 21.024C125.335 21.088 125.023 21.12 124.655 21.12ZM128.896 11.88V14.556C128.896 14.876 128.876 15.176 128.836 15.456H128.908C129.116 15.128 129.396 14.88 129.748 14.712C130.108 14.544 130.496 14.46 130.912 14.46C131.688 14.46 132.272 14.648 132.664 15.024C133.064 15.392 133.264 15.988 133.264 16.812V21H132.22V16.884C132.22 15.852 131.74 15.336 130.78 15.336C130.06 15.336 129.564 15.54 129.292 15.948C129.028 16.348 128.896 16.924 128.896 17.676V21H127.84V11.88H128.896ZM138.354 14.448C139.122 14.448 139.702 14.636 140.094 15.012C140.486 15.388 140.682 15.988 140.682 16.812V21H139.638V16.884C139.638 15.852 139.158 15.336 138.198 15.336C137.486 15.336 136.994 15.536 136.722 15.936C136.45 16.336 136.314 16.912 136.314 17.664V21H135.258V14.568H136.11L136.266 15.444H136.326C136.534 15.108 136.822 14.86 137.19 14.7C137.558 14.532 137.946 14.448 138.354 14.448ZM143.216 12.156C143.376 12.156 143.516 12.212 143.636 12.324C143.764 12.428 143.828 12.596 143.828 12.828C143.828 13.06 143.764 13.232 143.636 13.344C143.516 13.448 143.376 13.5 143.216 13.5C143.04 13.5 142.892 13.448 142.772 13.344C142.652 13.232 142.592 13.06 142.592 12.828C142.592 12.596 142.652 12.428 142.772 12.324C142.892 12.212 143.04 12.156 143.216 12.156ZM143.732 14.568V21H142.676V14.568H143.732ZM148.35 21.12C147.774 21.12 147.266 21.004 146.826 20.772C146.386 20.54 146.038 20.18 145.782 19.692C145.534 19.204 145.41 18.58 145.41 17.82C145.41 17.028 145.538 16.384 145.794 15.888C146.058 15.392 146.418 15.028 146.874 14.796C147.33 14.564 147.846 14.448 148.422 14.448C148.742 14.448 149.054 14.484 149.358 14.556C149.67 14.62 149.922 14.7 150.114 14.796L149.79 15.672C149.598 15.6 149.374 15.532 149.118 15.468C148.862 15.404 148.622 15.372 148.398 15.372C147.134 15.372 146.502 16.184 146.502 17.808C146.502 18.584 146.654 19.18 146.958 19.596C147.27 20.004 147.73 20.208 148.338 20.208C148.682 20.208 148.99 20.172 149.262 20.1C149.534 20.028 149.782 19.94 150.006 19.836V20.772C149.79 20.884 149.55 20.968 149.286 21.024C149.03 21.088 148.718 21.12 148.35 21.12ZM153.972 14.46C154.756 14.46 155.336 14.632 155.712 14.976C156.088 15.32 156.276 15.868 156.276 16.62V21H155.508L155.304 20.088H155.256C154.976 20.44 154.68 20.7 154.368 20.868C154.056 21.036 153.632 21.12 153.096 21.12C152.512 21.12 152.028 20.968 151.644 20.664C151.26 20.352 151.068 19.868 151.068 19.212C151.068 18.572 151.32 18.08 151.824 17.736C152.328 17.384 153.104 17.192 154.152 17.16L155.244 17.124V16.74C155.244 16.204 155.128 15.832 154.896 15.624C154.664 15.416 154.336 15.312 153.912 15.312C153.576 15.312 153.256 15.364 152.952 15.468C152.648 15.564 152.364 15.676 152.1 15.804L151.776 15.012C152.056 14.86 152.388 14.732 152.772 14.628C153.156 14.516 153.556 14.46 153.972 14.46ZM155.232 17.856L154.284 17.892C153.484 17.924 152.928 18.052 152.616 18.276C152.312 18.5 152.16 18.816 152.16 19.224C152.16 19.584 152.268 19.848 152.484 20.016C152.708 20.184 152.992 20.268 153.336 20.268C153.872 20.268 154.32 20.12 154.68 19.824C155.048 19.52 155.232 19.056 155.232 18.432V17.856ZM159.318 21H158.262V11.88H159.318V21ZM169.477 18.708C169.477 19.468 169.201 20.06 168.649 20.484C168.097 20.908 167.353 21.12 166.417 21.12C165.937 21.12 165.493 21.084 165.085 21.012C164.677 20.94 164.337 20.84 164.065 20.712V19.68C164.353 19.808 164.709 19.924 165.133 20.028C165.565 20.132 166.009 20.184 166.465 20.184C167.097 20.184 167.577 20.06 167.905 19.812C168.233 19.564 168.397 19.228 168.397 18.804C168.397 18.524 168.337 18.288 168.217 18.096C168.097 17.904 167.889 17.728 167.593 17.568C167.297 17.408 166.893 17.232 166.381 17.04C165.645 16.776 165.093 16.452 164.725 16.068C164.357 15.684 164.173 15.16 164.173 14.496C164.173 14.048 164.289 13.66 164.521 13.332C164.753 13.004 165.073 12.752 165.481 12.576C165.889 12.4 166.365 12.312 166.909 12.312C167.373 12.312 167.801 12.356 168.193 12.444C168.585 12.532 168.945 12.648 169.273 12.792L168.937 13.716C168.641 13.588 168.317 13.48 167.965 13.392C167.613 13.304 167.253 13.26 166.885 13.26C166.349 13.26 165.945 13.376 165.673 13.608C165.401 13.832 165.265 14.132 165.265 14.508C165.265 14.796 165.325 15.036 165.445 15.228C165.565 15.42 165.761 15.596 166.033 15.756C166.305 15.908 166.673 16.068 167.137 16.236C167.641 16.42 168.065 16.62 168.409 16.836C168.761 17.044 169.025 17.296 169.201 17.592C169.385 17.888 169.477 18.26 169.477 18.708ZM176.435 14.568V21H175.571L175.415 20.148H175.367C175.159 20.484 174.871 20.732 174.503 20.892C174.135 21.044 173.743 21.12 173.327 21.12C172.551 21.12 171.967 20.936 171.575 20.568C171.183 20.192 170.987 19.596 170.987 18.78V14.568H172.055V18.708C172.055 19.732 172.531 20.244 173.483 20.244C174.195 20.244 174.687 20.044 174.959 19.644C175.239 19.244 175.379 18.668 175.379 17.916V14.568H176.435ZM181.537 14.448C182.329 14.448 182.965 14.724 183.445 15.276C183.933 15.828 184.177 16.66 184.177 17.772C184.177 18.868 183.933 19.7 183.445 20.268C182.965 20.836 182.325 21.12 181.525 21.12C181.029 21.12 180.617 21.028 180.289 20.844C179.969 20.66 179.717 20.44 179.533 20.184H179.461C179.469 20.32 179.481 20.492 179.497 20.7C179.521 20.908 179.533 21.088 179.533 21.24V23.88H178.477V14.568H179.341L179.485 15.444H179.533C179.725 15.164 179.977 14.928 180.289 14.736C180.601 14.544 181.017 14.448 181.537 14.448ZM181.345 15.336C180.689 15.336 180.225 15.52 179.953 15.888C179.681 16.256 179.541 16.816 179.533 17.568V17.772C179.533 18.564 179.661 19.176 179.917 19.608C180.181 20.032 180.665 20.244 181.369 20.244C181.753 20.244 182.073 20.14 182.329 19.932C182.585 19.716 182.773 19.42 182.893 19.044C183.021 18.668 183.085 18.24 183.085 17.76C183.085 17.024 182.941 16.436 182.653 15.996C182.373 15.556 181.937 15.336 181.345 15.336ZM188.92 14.448C189.712 14.448 190.348 14.724 190.828 15.276C191.316 15.828 191.56 16.66 191.56 17.772C191.56 18.868 191.316 19.7 190.828 20.268C190.348 20.836 189.708 21.12 188.908 21.12C188.412 21.12 188 21.028 187.672 20.844C187.352 20.66 187.1 20.44 186.916 20.184H186.844C186.852 20.32 186.864 20.492 186.88 20.7C186.904 20.908 186.916 21.088 186.916 21.24V23.88H185.86V14.568H186.724L186.868 15.444H186.916C187.108 15.164 187.36 14.928 187.672 14.736C187.984 14.544 188.4 14.448 188.92 14.448ZM188.728 15.336C188.072 15.336 187.608 15.52 187.336 15.888C187.064 16.256 186.924 16.816 186.916 17.568V17.772C186.916 18.564 187.044 19.176 187.3 19.608C187.564 20.032 188.048 20.244 188.752 20.244C189.136 20.244 189.456 20.14 189.712 19.932C189.968 19.716 190.156 19.42 190.276 19.044C190.404 18.668 190.468 18.24 190.468 17.76C190.468 17.024 190.324 16.436 190.036 15.996C189.756 15.556 189.32 15.336 188.728 15.336ZM198.835 17.772C198.835 18.836 198.563 19.66 198.019 20.244C197.483 20.828 196.755 21.12 195.835 21.12C195.267 21.12 194.759 20.992 194.311 20.736C193.871 20.472 193.523 20.092 193.267 19.596C193.011 19.092 192.883 18.484 192.883 17.772C192.883 16.708 193.147 15.888 193.675 15.312C194.211 14.736 194.943 14.448 195.871 14.448C196.447 14.448 196.959 14.58 197.407 14.844C197.855 15.1 198.203 15.476 198.451 15.972C198.707 16.46 198.835 17.06 198.835 17.772ZM193.975 17.772C193.975 18.532 194.123 19.136 194.419 19.584C194.723 20.024 195.203 20.244 195.859 20.244C196.507 20.244 196.983 20.024 197.287 19.584C197.591 19.136 197.743 18.532 197.743 17.772C197.743 17.012 197.591 16.416 197.287 15.984C196.983 15.552 196.503 15.336 195.847 15.336C195.191 15.336 194.715 15.552 194.419 15.984C194.123 16.416 193.975 17.012 193.975 17.772ZM203.508 14.448C203.628 14.448 203.756 14.456 203.892 14.472C204.028 14.48 204.152 14.496 204.264 14.52L204.132 15.492C204.028 15.468 203.912 15.448 203.784 15.432C203.656 15.416 203.54 15.408 203.436 15.408C203.108 15.408 202.8 15.5 202.512 15.684C202.224 15.86 201.992 16.112 201.816 16.44C201.648 16.76 201.564 17.136 201.564 17.568V21H200.508V14.568H201.372L201.492 15.744H201.54C201.74 15.392 202.004 15.088 202.332 14.832C202.668 14.576 203.06 14.448 203.508 14.448ZM207.613 20.256C207.773 20.256 207.937 20.244 208.105 20.22C208.273 20.196 208.409 20.164 208.513 20.124V20.928C208.401 20.984 208.241 21.028 208.033 21.06C207.825 21.1 207.625 21.12 207.433 21.12C207.097 21.12 206.785 21.064 206.497 20.952C206.217 20.832 205.989 20.628 205.813 20.34C205.637 20.052 205.549 19.648 205.549 19.128V15.384H204.637V14.88L205.561 14.46L205.981 13.092H206.605V14.568H208.465V15.384H206.605V19.104C206.605 19.496 206.697 19.788 206.881 19.98C207.073 20.164 207.317 20.256 207.613 20.256ZM211.001 19.608L211.085 19.74C210.973 20.164 210.821 20.628 210.629 21.132C210.437 21.644 210.245 22.116 210.053 22.548H209.273C209.385 22.092 209.497 21.592 209.609 21.048C209.729 20.504 209.817 20.024 209.873 19.608H211.001ZM221.649 21L220.617 18.348H217.221L216.201 21H215.109L218.457 12.396H219.429L222.765 21H221.649ZM220.293 17.388L219.333 14.796C219.309 14.732 219.269 14.616 219.213 14.448C219.157 14.28 219.101 14.108 219.045 13.932C218.997 13.748 218.957 13.608 218.925 13.512C218.861 13.76 218.793 14.004 218.721 14.244C218.657 14.476 218.601 14.66 218.553 14.796L217.581 17.388H220.293ZM224.849 21H223.793V11.88H224.849V21ZM227.943 21H226.887V11.88H227.943V21ZM231.181 19.608L231.265 19.74C231.153 20.164 231.001 20.628 230.809 21.132C230.617 21.644 230.425 22.116 230.233 22.548H229.453C229.565 22.092 229.677 21.592 229.789 21.048C229.909 20.504 229.997 20.024 230.053 19.608H231.181ZM238.721 12.432C239.841 12.432 240.657 12.652 241.169 13.092C241.681 13.532 241.937 14.152 241.937 14.952C241.937 15.424 241.829 15.868 241.613 16.284C241.405 16.692 241.049 17.024 240.545 17.28C240.049 17.536 239.373 17.664 238.517 17.664H237.533V21H236.453V12.432H238.721ZM238.625 13.356H237.533V16.74H238.397C239.213 16.74 239.821 16.608 240.221 16.344C240.621 16.08 240.821 15.632 240.821 15C240.821 14.448 240.641 14.036 240.281 13.764C239.929 13.492 239.377 13.356 238.625 13.356ZM246.011 14.46C246.795 14.46 247.375 14.632 247.751 14.976C248.127 15.32 248.315 15.868 248.315 16.62V21H247.547L247.343 20.088H247.295C247.015 20.44 246.719 20.7 246.407 20.868C246.095 21.036 245.671 21.12 245.135 21.12C244.551 21.12 244.067 20.968 243.683 20.664C243.299 20.352 243.107 19.868 243.107 19.212C243.107 18.572 243.359 18.08 243.863 17.736C244.367 17.384 245.143 17.192 246.191 17.16L247.283 17.124V16.74C247.283 16.204 247.167 15.832 246.935 15.624C246.703 15.416 246.375 15.312 245.951 15.312C245.615 15.312 245.295 15.364 244.991 15.468C244.687 15.564 244.403 15.676 244.139 15.804L243.815 15.012C244.095 14.86 244.427 14.732 244.811 14.628C245.195 14.516 245.595 14.46 246.011 14.46ZM247.271 17.856L246.323 17.892C245.523 17.924 244.967 18.052 244.655 18.276C244.351 18.5 244.199 18.816 244.199 19.224C244.199 19.584 244.307 19.848 244.523 20.016C244.747 20.184 245.031 20.268 245.375 20.268C245.911 20.268 246.359 20.12 246.719 19.824C247.087 19.52 247.271 19.056 247.271 18.432V17.856ZM249.293 14.568H250.421L251.813 18.228C251.933 18.556 252.041 18.864 252.137 19.152C252.233 19.44 252.305 19.716 252.353 19.98H252.401C252.449 19.78 252.525 19.52 252.629 19.2C252.733 18.872 252.841 18.544 252.953 18.216L254.261 14.568H255.401L252.629 21.888C252.397 22.496 252.105 22.98 251.753 23.34C251.401 23.7 250.913 23.88 250.289 23.88C250.097 23.88 249.929 23.868 249.785 23.844C249.641 23.828 249.517 23.808 249.413 23.784V22.944C249.501 22.96 249.605 22.976 249.725 22.992C249.853 23.008 249.985 23.016 250.121 23.016C250.489 23.016 250.785 22.912 251.009 22.704C251.233 22.496 251.413 22.22 251.549 21.876L251.885 21.024L249.293 14.568ZM263.474 14.448C264.202 14.448 264.746 14.636 265.106 15.012C265.466 15.388 265.646 15.988 265.646 16.812V21H264.602V16.86C264.602 15.844 264.166 15.336 263.294 15.336C262.67 15.336 262.222 15.516 261.95 15.876C261.686 16.236 261.554 16.76 261.554 17.448V21H260.51V16.86C260.51 15.844 260.07 15.336 259.19 15.336C258.542 15.336 258.094 15.536 257.846 15.936C257.598 16.336 257.474 16.912 257.474 17.664V21H256.418V14.568H257.27L257.426 15.444H257.486C257.686 15.108 257.954 14.86 258.29 14.7C258.634 14.532 258.998 14.448 259.382 14.448C260.39 14.448 261.046 14.808 261.35 15.528H261.41C261.626 15.16 261.918 14.888 262.286 14.712C262.654 14.536 263.05 14.448 263.474 14.448ZM270.117 14.448C270.661 14.448 271.133 14.568 271.533 14.808C271.933 15.048 272.237 15.388 272.445 15.828C272.661 16.26 272.769 16.768 272.769 17.352V17.988H268.365C268.381 18.716 268.565 19.272 268.917 19.656C269.277 20.032 269.777 20.22 270.417 20.22C270.825 20.22 271.185 20.184 271.497 20.112C271.817 20.032 272.145 19.92 272.481 19.776V20.7C272.153 20.844 271.829 20.948 271.509 21.012C271.189 21.084 270.809 21.12 270.369 21.12C269.753 21.12 269.213 20.996 268.749 20.748C268.285 20.5 267.921 20.132 267.657 19.644C267.401 19.156 267.273 18.552 267.273 17.832C267.273 17.128 267.389 16.524 267.621 16.02C267.861 15.516 268.193 15.128 268.617 14.856C269.049 14.584 269.549 14.448 270.117 14.448ZM270.105 15.312C269.601 15.312 269.201 15.476 268.905 15.804C268.617 16.124 268.445 16.572 268.389 17.148H271.665C271.657 16.604 271.529 16.164 271.281 15.828C271.033 15.484 270.641 15.312 270.105 15.312ZM277.503 14.448C278.271 14.448 278.851 14.636 279.243 15.012C279.635 15.388 279.831 15.988 279.831 16.812V21H278.787V16.884C278.787 15.852 278.307 15.336 277.347 15.336C276.635 15.336 276.143 15.536 275.871 15.936C275.599 16.336 275.463 16.912 275.463 17.664V21H274.407V14.568H275.259L275.415 15.444H275.475C275.683 15.108 275.971 14.86 276.339 14.7C276.707 14.532 277.095 14.448 277.503 14.448ZM283.973 20.256C284.133 20.256 284.297 20.244 284.465 20.22C284.633 20.196 284.769 20.164 284.873 20.124V20.928C284.761 20.984 284.601 21.028 284.393 21.06C284.185 21.1 283.985 21.12 283.793 21.12C283.457 21.12 283.145 21.064 282.857 20.952C282.577 20.832 282.349 20.628 282.173 20.34C281.997 20.052 281.909 19.648 281.909 19.128V15.384H280.997V14.88L281.921 14.46L282.341 13.092H282.965V14.568H284.825V15.384H282.965V19.104C282.965 19.496 283.057 19.788 283.241 19.98C283.433 20.164 283.677 20.256 283.973 20.256ZM290.349 19.224C290.349 19.848 290.117 20.32 289.653 20.64C289.189 20.96 288.565 21.12 287.781 21.12C287.333 21.12 286.945 21.084 286.617 21.012C286.297 20.94 286.013 20.84 285.765 20.712V19.752C286.021 19.88 286.329 20 286.689 20.112C287.057 20.216 287.429 20.268 287.805 20.268C288.341 20.268 288.729 20.184 288.969 20.016C289.209 19.84 289.329 19.608 289.329 19.32C289.329 19.16 289.285 19.016 289.197 18.888C289.109 18.76 288.949 18.632 288.717 18.504C288.493 18.376 288.169 18.232 287.745 18.072C287.329 17.912 286.973 17.752 286.677 17.592C286.381 17.432 286.153 17.24 285.993 17.016C285.833 16.792 285.753 16.504 285.753 16.152C285.753 15.608 285.973 15.188 286.413 14.892C286.861 14.596 287.445 14.448 288.165 14.448C288.557 14.448 288.921 14.488 289.257 14.568C289.601 14.648 289.921 14.752 290.217 14.88L289.857 15.72C289.585 15.608 289.301 15.512 289.005 15.432C288.709 15.352 288.405 15.312 288.093 15.312C287.661 15.312 287.329 15.384 287.097 15.528C286.873 15.664 286.761 15.852 286.761 16.092C286.761 16.276 286.813 16.428 286.917 16.548C287.021 16.668 287.193 16.788 287.433 16.908C287.681 17.028 288.009 17.164 288.417 17.316C288.825 17.468 289.173 17.624 289.461 17.784C289.749 17.944 289.969 18.14 290.121 18.372C290.273 18.596 290.349 18.88 290.349 19.224ZM293.103 19.608L293.187 19.74C293.075 20.164 292.923 20.628 292.731 21.132C292.539 21.644 292.347 22.116 292.155 22.548H291.375C291.487 22.092 291.599 21.592 291.711 21.048C291.831 20.504 291.919 20.024 291.975 19.608H293.103ZM18.54 37L17.508 34.348H14.112L13.092 37H12L15.348 28.396H16.32L19.656 37H18.54ZM17.184 33.388L16.224 30.796C16.2 30.732 16.16 30.616 16.104 30.448C16.048 30.28 15.992 30.108 15.936 29.932C15.888 29.748 15.848 29.608 15.816 29.512C15.752 29.76 15.684 30.004 15.612 30.244C15.548 30.476 15.492 30.66 15.444 30.796L14.472 33.388H17.184ZM23.2641 37.12C22.6881 37.12 22.1801 37.004 21.7401 36.772C21.3001 36.54 20.9521 36.18 20.6961 35.692C20.4481 35.204 20.3241 34.58 20.3241 33.82C20.3241 33.028 20.4521 32.384 20.7081 31.888C20.9721 31.392 21.3321 31.028 21.7881 30.796C22.2441 30.564 22.7601 30.448 23.3361 30.448C23.6561 30.448 23.9681 30.484 24.2721 30.556C24.5841 30.62 24.8361 30.7 25.0281 30.796L24.7041 31.672C24.5121 31.6 24.2881 31.532 24.0321 31.468C23.7761 31.404 23.5361 31.372 23.3121 31.372C22.0481 31.372 21.4161 32.184 21.4161 33.808C21.4161 34.584 21.5681 35.18 21.8721 35.596C22.1841 36.004 22.6441 36.208 23.2521 36.208C23.5961 36.208 23.9041 36.172 24.1761 36.1C24.4481 36.028 24.6961 35.94 24.9201 35.836V36.772C24.7041 36.884 24.4641 36.968 24.2001 37.024C23.9441 37.088 23.6321 37.12 23.2641 37.12ZM29.0297 37.12C28.4537 37.12 27.9457 37.004 27.5057 36.772C27.0657 36.54 26.7177 36.18 26.4617 35.692C26.2137 35.204 26.0897 34.58 26.0897 33.82C26.0897 33.028 26.2177 32.384 26.4737 31.888C26.7377 31.392 27.0977 31.028 27.5537 30.796C28.0097 30.564 28.5257 30.448 29.1017 30.448C29.4217 30.448 29.7337 30.484 30.0377 30.556C30.3497 30.62 30.6017 30.7 30.7937 30.796L30.4697 31.672C30.2777 31.6 30.0537 31.532 29.7977 31.468C29.5417 31.404 29.3017 31.372 29.0777 31.372C27.8137 31.372 27.1817 32.184 27.1817 33.808C27.1817 34.584 27.3337 35.18 27.6377 35.596C27.9497 36.004 28.4097 36.208 29.0177 36.208C29.3617 36.208 29.6697 36.172 29.9417 36.1C30.2137 36.028 30.4617 35.94 30.6857 35.836V36.772C30.4697 36.884 30.2297 36.968 29.9657 37.024C29.7097 37.088 29.3977 37.12 29.0297 37.12ZM37.8073 33.772C37.8073 34.836 37.5353 35.66 36.9913 36.244C36.4553 36.828 35.7273 37.12 34.8073 37.12C34.2393 37.12 33.7313 36.992 33.2833 36.736C32.8433 36.472 32.4953 36.092 32.2393 35.596C31.9833 35.092 31.8553 34.484 31.8553 33.772C31.8553 32.708 32.1193 31.888 32.6473 31.312C33.1833 30.736 33.9153 30.448 34.8433 30.448C35.4193 30.448 35.9313 30.58 36.3793 30.844C36.8273 31.1 37.1753 31.476 37.4233 31.972C37.6793 32.46 37.8073 33.06 37.8073 33.772ZM32.9473 33.772C32.9473 34.532 33.0953 35.136 33.3913 35.584C33.6953 36.024 34.1753 36.244 34.8313 36.244C35.4793 36.244 35.9553 36.024 36.2593 35.584C36.5633 35.136 36.7153 34.532 36.7153 33.772C36.7153 33.012 36.5633 32.416 36.2593 31.984C35.9553 31.552 35.4753 31.336 34.8193 31.336C34.1633 31.336 33.6873 31.552 33.3913 31.984C33.0953 32.416 32.9473 33.012 32.9473 33.772ZM44.8569 30.568V37H43.9929L43.8369 36.148H43.7889C43.5809 36.484 43.2929 36.732 42.9249 36.892C42.5569 37.044 42.1649 37.12 41.7489 37.12C40.9729 37.12 40.3889 36.936 39.9969 36.568C39.6049 36.192 39.4089 35.596 39.4089 34.78V30.568H40.4769V34.708C40.4769 35.732 40.9529 36.244 41.9049 36.244C42.6169 36.244 43.1089 36.044 43.3809 35.644C43.6609 35.244 43.8009 34.668 43.8009 33.916V30.568H44.8569ZM49.9949 30.448C50.7629 30.448 51.3429 30.636 51.7349 31.012C52.1269 31.388 52.3229 31.988 52.3229 32.812V37H51.2789V32.884C51.2789 31.852 50.7989 31.336 49.8389 31.336C49.1269 31.336 48.6349 31.536 48.3629 31.936C48.0909 32.336 47.9549 32.912 47.9549 33.664V37H46.8989V30.568H47.7509L47.9069 31.444H47.9669C48.1749 31.108 48.4629 30.86 48.8309 30.7C49.1989 30.532 49.5869 30.448 49.9949 30.448ZM56.4649 36.256C56.6249 36.256 56.7889 36.244 56.9569 36.22C57.1249 36.196 57.2609 36.164 57.3649 36.124V36.928C57.2529 36.984 57.0929 37.028 56.8849 37.06C56.6769 37.1 56.4769 37.12 56.2849 37.12C55.9489 37.12 55.6369 37.064 55.3489 36.952C55.0689 36.832 54.8409 36.628 54.6649 36.34C54.4889 36.052 54.4009 35.648 54.4009 35.128V31.384H53.4889V30.88L54.4129 30.46L54.8329 29.092H55.4569V30.568H57.3169V31.384H55.4569V35.104C55.4569 35.496 55.5489 35.788 55.7329 35.98C55.9249 36.164 56.1689 36.256 56.4649 36.256ZM65.694 37L62.874 29.488H62.826C62.85 29.736 62.87 30.072 62.886 30.496C62.902 30.912 62.91 31.348 62.91 31.804V37H61.914V28.432H63.51L66.15 35.452H66.198L68.886 28.432H70.47V37H69.402V31.732C69.402 31.316 69.41 30.904 69.426 30.496C69.45 30.088 69.47 29.756 69.486 29.5H69.438L66.582 37H65.694ZM75.0927 30.46C75.8767 30.46 76.4567 30.632 76.8327 30.976C77.2087 31.32 77.3967 31.868 77.3967 32.62V37H76.6287L76.4247 36.088H76.3767C76.0967 36.44 75.8007 36.7 75.4887 36.868C75.1767 37.036 74.7527 37.12 74.2167 37.12C73.6327 37.12 73.1487 36.968 72.7647 36.664C72.3807 36.352 72.1887 35.868 72.1887 35.212C72.1887 34.572 72.4407 34.08 72.9447 33.736C73.4487 33.384 74.2247 33.192 75.2727 33.16L76.3647 33.124V32.74C76.3647 32.204 76.2487 31.832 76.0167 31.624C75.7847 31.416 75.4567 31.312 75.0327 31.312C74.6967 31.312 74.3767 31.364 74.0727 31.468C73.7687 31.564 73.4847 31.676 73.2207 31.804L72.8967 31.012C73.1767 30.86 73.5087 30.732 73.8927 30.628C74.2767 30.516 74.6767 30.46 75.0927 30.46ZM76.3527 33.856L75.4047 33.892C74.6047 33.924 74.0487 34.052 73.7367 34.276C73.4327 34.5 73.2807 34.816 73.2807 35.224C73.2807 35.584 73.3887 35.848 73.6047 36.016C73.8287 36.184 74.1127 36.268 74.4567 36.268C74.9927 36.268 75.4407 36.12 75.8007 35.824C76.1687 35.52 76.3527 35.056 76.3527 34.432V33.856ZM82.4793 30.448C83.2473 30.448 83.8273 30.636 84.2193 31.012C84.6113 31.388 84.8073 31.988 84.8073 32.812V37H83.7633V32.884C83.7633 31.852 83.2833 31.336 82.3233 31.336C81.6113 31.336 81.1193 31.536 80.8473 31.936C80.5753 32.336 80.4393 32.912 80.4393 33.664V37H79.3833V30.568H80.2353L80.3913 31.444H80.4513C80.6593 31.108 80.9473 30.86 81.3153 30.7C81.6833 30.532 82.0713 30.448 82.4793 30.448ZM89.2373 30.46C90.0213 30.46 90.6013 30.632 90.9773 30.976C91.3533 31.32 91.5413 31.868 91.5413 32.62V37H90.7733L90.5693 36.088H90.5213C90.2413 36.44 89.9453 36.7 89.6333 36.868C89.3213 37.036 88.8973 37.12 88.3613 37.12C87.7773 37.12 87.2933 36.968 86.9093 36.664C86.5253 36.352 86.3333 35.868 86.3333 35.212C86.3333 34.572 86.5853 34.08 87.0893 33.736C87.5933 33.384 88.3693 33.192 89.4173 33.16L90.5093 33.124V32.74C90.5093 32.204 90.3933 31.832 90.1613 31.624C89.9293 31.416 89.6013 31.312 89.1773 31.312C88.8413 31.312 88.5213 31.364 88.2173 31.468C87.9133 31.564 87.6293 31.676 87.3652 31.804L87.0413 31.012C87.3213 30.86 87.6533 30.732 88.0373 30.628C88.4213 30.516 88.8213 30.46 89.2373 30.46ZM90.4973 33.856L89.5493 33.892C88.7493 33.924 88.1933 34.052 87.8813 34.276C87.5773 34.5 87.4253 34.816 87.4253 35.224C87.4253 35.584 87.5333 35.848 87.7493 36.016C87.9733 36.184 88.2573 36.268 88.6013 36.268C89.1373 36.268 89.5853 36.12 89.9453 35.824C90.3133 35.52 90.4973 35.056 90.4973 34.432V33.856ZM95.8078 30.448C96.2318 30.448 96.6118 30.528 96.9478 30.688C97.2918 30.848 97.5838 31.092 97.8238 31.42H97.8838L98.0278 30.568H98.8678V37.108C98.8678 38.028 98.6318 38.72 98.1598 39.184C97.6958 39.648 96.9718 39.88 95.9878 39.88C95.0438 39.88 94.2718 39.744 93.6718 39.472V38.5C94.3038 38.836 95.0958 39.004 96.0478 39.004C96.5998 39.004 97.0318 38.84 97.3438 38.512C97.6638 38.192 97.8238 37.752 97.8238 37.192V36.94C97.8238 36.844 97.8278 36.708 97.8358 36.532C97.8438 36.348 97.8518 36.22 97.8598 36.148H97.8118C97.3798 36.796 96.7158 37.12 95.8198 37.12C94.9878 37.12 94.3358 36.828 93.8638 36.244C93.3998 35.66 93.1678 34.844 93.1678 33.796C93.1678 32.772 93.3998 31.96 93.8638 31.36C94.3358 30.752 94.9838 30.448 95.8078 30.448ZM95.9518 31.336C95.4158 31.336 94.9998 31.552 94.7038 31.984C94.4078 32.408 94.2598 33.016 94.2598 33.808C94.2598 34.6 94.4038 35.208 94.6918 35.632C94.9798 36.048 95.4078 36.256 95.9758 36.256C96.6238 36.256 97.0958 36.084 97.3918 35.74C97.6878 35.388 97.8358 34.824 97.8358 34.048V33.796C97.8358 32.924 97.6838 32.296 97.3798 31.912C97.0758 31.528 96.5998 31.336 95.9518 31.336ZM103.395 30.448C103.939 30.448 104.411 30.568 104.811 30.808C105.211 31.048 105.515 31.388 105.723 31.828C105.939 32.26 106.047 32.768 106.047 33.352V33.988H101.643C101.659 34.716 101.843 35.272 102.195 35.656C102.555 36.032 103.055 36.22 103.695 36.22C104.103 36.22 104.463 36.184 104.775 36.112C105.095 36.032 105.423 35.92 105.759 35.776V36.7C105.431 36.844 105.107 36.948 104.787 37.012C104.467 37.084 104.087 37.12 103.647 37.12C103.031 37.12 102.491 36.996 102.027 36.748C101.563 36.5 101.199 36.132 100.935 35.644C100.679 35.156 100.551 34.552 100.551 33.832C100.551 33.128 100.667 32.524 100.899 32.02C101.139 31.516 101.471 31.128 101.895 30.856C102.327 30.584 102.827 30.448 103.395 30.448ZM103.383 31.312C102.879 31.312 102.479 31.476 102.183 31.804C101.895 32.124 101.723 32.572 101.667 33.148H104.943C104.935 32.604 104.807 32.164 104.559 31.828C104.311 31.484 103.919 31.312 103.383 31.312ZM114.74 30.448C115.468 30.448 116.012 30.636 116.372 31.012C116.732 31.388 116.912 31.988 116.912 32.812V37H115.868V32.86C115.868 31.844 115.432 31.336 114.56 31.336C113.936 31.336 113.488 31.516 113.216 31.876C112.952 32.236 112.82 32.76 112.82 33.448V37H111.776V32.86C111.776 31.844 111.336 31.336 110.456 31.336C109.808 31.336 109.36 31.536 109.112 31.936C108.864 32.336 108.74 32.912 108.74 33.664V37H107.684V30.568H108.536L108.692 31.444H108.752C108.952 31.108 109.22 30.86 109.556 30.7C109.9 30.532 110.264 30.448 110.648 30.448C111.656 30.448 112.312 30.808 112.616 31.528H112.676C112.892 31.16 113.184 30.888 113.552 30.712C113.92 30.536 114.316 30.448 114.74 30.448ZM121.383 30.448C121.927 30.448 122.399 30.568 122.799 30.808C123.199 31.048 123.503 31.388 123.711 31.828C123.927 32.26 124.035 32.768 124.035 33.352V33.988H119.631C119.647 34.716 119.831 35.272 120.183 35.656C120.543 36.032 121.043 36.22 121.683 36.22C122.091 36.22 122.451 36.184 122.763 36.112C123.083 36.032 123.411 35.92 123.747 35.776V36.7C123.419 36.844 123.095 36.948 122.775 37.012C122.455 37.084 122.075 37.12 121.635 37.12C121.019 37.12 120.479 36.996 120.015 36.748C119.551 36.5 119.187 36.132 118.923 35.644C118.667 35.156 118.539 34.552 118.539 33.832C118.539 33.128 118.655 32.524 118.887 32.02C119.127 31.516 119.459 31.128 119.883 30.856C120.315 30.584 120.815 30.448 121.383 30.448ZM121.371 31.312C120.867 31.312 120.467 31.476 120.171 31.804C119.883 32.124 119.711 32.572 119.655 33.148H122.931C122.923 32.604 122.795 32.164 122.547 31.828C122.299 31.484 121.907 31.312 121.371 31.312ZM128.768 30.448C129.536 30.448 130.116 30.636 130.508 31.012C130.9 31.388 131.096 31.988 131.096 32.812V37H130.052V32.884C130.052 31.852 129.572 31.336 128.612 31.336C127.9 31.336 127.408 31.536 127.136 31.936C126.864 32.336 126.728 32.912 126.728 33.664V37H125.672V30.568H126.524L126.68 31.444H126.74C126.948 31.108 127.236 30.86 127.604 30.7C127.972 30.532 128.36 30.448 128.768 30.448ZM135.238 36.256C135.398 36.256 135.562 36.244 135.73 36.22C135.898 36.196 136.034 36.164 136.138 36.124V36.928C136.026 36.984 135.866 37.028 135.658 37.06C135.45 37.1 135.25 37.12 135.058 37.12C134.722 37.12 134.41 37.064 134.122 36.952C133.842 36.832 133.614 36.628 133.438 36.34C133.262 36.052 133.174 35.648 133.174 35.128V31.384H132.262V30.88L133.186 30.46L133.606 29.092H134.23V30.568H136.09V31.384H134.23V35.104C134.23 35.496 134.322 35.788 134.506 35.98C134.698 36.164 134.942 36.256 135.238 36.256ZM138.626 35.608L138.71 35.74C138.598 36.164 138.446 36.628 138.254 37.132C138.062 37.644 137.87 38.116 137.678 38.548H136.898C137.01 38.092 137.122 37.592 137.234 37.048C137.354 36.504 137.442 36.024 137.498 35.608H138.626ZM143.856 29.26C142.936 29.26 142.212 29.568 141.684 30.184C141.156 30.8 140.892 31.644 140.892 32.716C140.892 33.78 141.136 34.624 141.624 35.248C142.12 35.864 142.86 36.172 143.844 36.172C144.212 36.172 144.564 36.14 144.9 36.076C145.236 36.012 145.568 35.932 145.896 35.836V36.772C145.576 36.892 145.244 36.98 144.9 37.036C144.564 37.092 144.16 37.12 143.688 37.12C142.816 37.12 142.088 36.94 141.504 36.58C140.92 36.22 140.48 35.708 140.184 35.044C139.896 34.38 139.752 33.6 139.752 32.704C139.752 31.84 139.908 31.08 140.22 30.424C140.54 29.76 141.008 29.244 141.624 28.876C142.24 28.5 142.988 28.312 143.868 28.312C144.772 28.312 145.56 28.48 146.232 28.816L145.8 29.728C145.536 29.608 145.24 29.5 144.912 29.404C144.592 29.308 144.24 29.26 143.856 29.26ZM152.998 30.568V37H152.134L151.978 36.148H151.93C151.722 36.484 151.434 36.732 151.066 36.892C150.698 37.044 150.306 37.12 149.89 37.12C149.114 37.12 148.53 36.936 148.138 36.568C147.746 36.192 147.55 35.596 147.55 34.78V30.568H148.618V34.708C148.618 35.732 149.094 36.244 150.046 36.244C150.758 36.244 151.25 36.044 151.522 35.644C151.802 35.244 151.942 34.668 151.942 33.916V30.568H152.998ZM159.228 35.224C159.228 35.848 158.996 36.32 158.532 36.64C158.068 36.96 157.444 37.12 156.66 37.12C156.212 37.12 155.824 37.084 155.496 37.012C155.176 36.94 154.892 36.84 154.644 36.712V35.752C154.9 35.88 155.208 36 155.568 36.112C155.936 36.216 156.308 36.268 156.684 36.268C157.22 36.268 157.608 36.184 157.848 36.016C158.088 35.84 158.208 35.608 158.208 35.32C158.208 35.16 158.164 35.016 158.076 34.888C157.988 34.76 157.828 34.632 157.596 34.504C157.372 34.376 157.048 34.232 156.624 34.072C156.208 33.912 155.852 33.752 155.556 33.592C155.26 33.432 155.032 33.24 154.872 33.016C154.712 32.792 154.632 32.504 154.632 32.152C154.632 31.608 154.852 31.188 155.292 30.892C155.74 30.596 156.324 30.448 157.044 30.448C157.436 30.448 157.8 30.488 158.136 30.568C158.48 30.648 158.8 30.752 159.096 30.88L158.736 31.72C158.464 31.608 158.18 31.512 157.884 31.432C157.588 31.352 157.284 31.312 156.972 31.312C156.54 31.312 156.208 31.384 155.976 31.528C155.752 31.664 155.64 31.852 155.64 32.092C155.64 32.276 155.692 32.428 155.796 32.548C155.9 32.668 156.072 32.788 156.312 32.908C156.56 33.028 156.888 33.164 157.296 33.316C157.704 33.468 158.052 33.624 158.34 33.784C158.628 33.944 158.848 34.14 159 34.372C159.152 34.596 159.228 34.88 159.228 35.224ZM162.93 36.256C163.09 36.256 163.254 36.244 163.422 36.22C163.59 36.196 163.726 36.164 163.83 36.124V36.928C163.718 36.984 163.558 37.028 163.35 37.06C163.142 37.1 162.942 37.12 162.75 37.12C162.414 37.12 162.102 37.064 161.814 36.952C161.534 36.832 161.306 36.628 161.13 36.34C160.954 36.052 160.866 35.648 160.866 35.128V31.384H159.954V30.88L160.878 30.46L161.298 29.092H161.922V30.568H163.782V31.384H161.922V35.104C161.922 35.496 162.014 35.788 162.198 35.98C162.39 36.164 162.634 36.256 162.93 36.256ZM170.71 33.772C170.71 34.836 170.438 35.66 169.894 36.244C169.358 36.828 168.63 37.12 167.71 37.12C167.142 37.12 166.634 36.992 166.186 36.736C165.746 36.472 165.398 36.092 165.142 35.596C164.886 35.092 164.758 34.484 164.758 33.772C164.758 32.708 165.022 31.888 165.55 31.312C166.086 30.736 166.818 30.448 167.746 30.448C168.322 30.448 168.834 30.58 169.282 30.844C169.73 31.1 170.078 31.476 170.326 31.972C170.582 32.46 170.71 33.06 170.71 33.772ZM165.85 33.772C165.85 34.532 165.998 35.136 166.294 35.584C166.598 36.024 167.078 36.244 167.734 36.244C168.382 36.244 168.858 36.024 169.162 35.584C169.466 35.136 169.618 34.532 169.618 33.772C169.618 33.012 169.466 32.416 169.162 31.984C168.858 31.552 168.378 31.336 167.722 31.336C167.066 31.336 166.59 31.552 166.294 31.984C165.998 32.416 165.85 33.012 165.85 33.772ZM179.439 30.448C180.167 30.448 180.711 30.636 181.071 31.012C181.431 31.388 181.611 31.988 181.611 32.812V37H180.567V32.86C180.567 31.844 180.131 31.336 179.259 31.336C178.635 31.336 178.187 31.516 177.915 31.876C177.651 32.236 177.519 32.76 177.519 33.448V37H176.475V32.86C176.475 31.844 176.035 31.336 175.155 31.336C174.507 31.336 174.059 31.536 173.811 31.936C173.563 32.336 173.439 32.912 173.439 33.664V37H172.383V30.568H173.235L173.391 31.444H173.451C173.651 31.108 173.919 30.86 174.255 30.7C174.599 30.532 174.963 30.448 175.347 30.448C176.355 30.448 177.011 30.808 177.315 31.528H177.375C177.591 31.16 177.883 30.888 178.251 30.712C178.619 30.536 179.015 30.448 179.439 30.448ZM186.082 30.448C186.626 30.448 187.098 30.568 187.498 30.808C187.898 31.048 188.202 31.388 188.41 31.828C188.626 32.26 188.734 32.768 188.734 33.352V33.988H184.33C184.346 34.716 184.53 35.272 184.882 35.656C185.242 36.032 185.742 36.22 186.382 36.22C186.79 36.22 187.15 36.184 187.462 36.112C187.782 36.032 188.11 35.92 188.446 35.776V36.7C188.118 36.844 187.794 36.948 187.474 37.012C187.154 37.084 186.774 37.12 186.334 37.12C185.718 37.12 185.178 36.996 184.714 36.748C184.25 36.5 183.886 36.132 183.622 35.644C183.366 35.156 183.238 34.552 183.238 33.832C183.238 33.128 183.354 32.524 183.586 32.02C183.826 31.516 184.158 31.128 184.582 30.856C185.014 30.584 185.514 30.448 186.082 30.448ZM186.07 31.312C185.566 31.312 185.166 31.476 184.87 31.804C184.582 32.124 184.41 32.572 184.354 33.148H187.63C187.622 32.604 187.494 32.164 187.246 31.828C186.998 31.484 186.606 31.312 186.07 31.312ZM193.372 30.448C193.492 30.448 193.62 30.456 193.756 30.472C193.892 30.48 194.016 30.496 194.128 30.52L193.996 31.492C193.892 31.468 193.776 31.448 193.648 31.432C193.52 31.416 193.404 31.408 193.3 31.408C192.972 31.408 192.664 31.5 192.376 31.684C192.088 31.86 191.856 32.112 191.68 32.44C191.512 32.76 191.428 33.136 191.428 33.568V37H190.372V30.568H191.236L191.356 31.744H191.404C191.604 31.392 191.868 31.088 192.196 30.832C192.532 30.576 192.924 30.448 193.372 30.448ZM203.45 34.708C203.45 35.468 203.174 36.06 202.622 36.484C202.07 36.908 201.326 37.12 200.39 37.12C199.91 37.12 199.466 37.084 199.058 37.012C198.65 36.94 198.31 36.84 198.038 36.712V35.68C198.326 35.808 198.682 35.924 199.106 36.028C199.538 36.132 199.982 36.184 200.438 36.184C201.07 36.184 201.55 36.06 201.878 35.812C202.206 35.564 202.37 35.228 202.37 34.804C202.37 34.524 202.31 34.288 202.19 34.096C202.07 33.904 201.862 33.728 201.566 33.568C201.27 33.408 200.866 33.232 200.354 33.04C199.618 32.776 199.066 32.452 198.698 32.068C198.33 31.684 198.146 31.16 198.146 30.496C198.146 30.048 198.262 29.66 198.494 29.332C198.726 29.004 199.046 28.752 199.454 28.576C199.862 28.4 200.338 28.312 200.882 28.312C201.346 28.312 201.774 28.356 202.166 28.444C202.558 28.532 202.918 28.648 203.246 28.792L202.91 29.716C202.614 29.588 202.29 29.48 201.938 29.392C201.586 29.304 201.226 29.26 200.858 29.26C200.322 29.26 199.918 29.376 199.646 29.608C199.374 29.832 199.238 30.132 199.238 30.508C199.238 30.796 199.298 31.036 199.418 31.228C199.538 31.42 199.734 31.596 200.006 31.756C200.278 31.908 200.646 32.068 201.11 32.236C201.614 32.42 202.038 32.62 202.382 32.836C202.734 33.044 202.998 33.296 203.174 33.592C203.358 33.888 203.45 34.26 203.45 34.708ZM207.516 30.448C208.06 30.448 208.532 30.568 208.932 30.808C209.332 31.048 209.636 31.388 209.844 31.828C210.06 32.26 210.168 32.768 210.168 33.352V33.988H205.764C205.78 34.716 205.964 35.272 206.316 35.656C206.676 36.032 207.176 36.22 207.816 36.22C208.224 36.22 208.584 36.184 208.896 36.112C209.216 36.032 209.544 35.92 209.88 35.776V36.7C209.552 36.844 209.228 36.948 208.908 37.012C208.588 37.084 208.208 37.12 207.768 37.12C207.152 37.12 206.612 36.996 206.148 36.748C205.684 36.5 205.32 36.132 205.056 35.644C204.8 35.156 204.672 34.552 204.672 33.832C204.672 33.128 204.788 32.524 205.02 32.02C205.26 31.516 205.592 31.128 206.016 30.856C206.448 30.584 206.948 30.448 207.516 30.448ZM207.504 31.312C207 31.312 206.6 31.476 206.304 31.804C206.016 32.124 205.844 32.572 205.788 33.148H209.064C209.056 32.604 208.928 32.164 208.68 31.828C208.432 31.484 208.04 31.312 207.504 31.312ZM214.805 30.448C214.925 30.448 215.053 30.456 215.189 30.472C215.325 30.48 215.449 30.496 215.561 30.52L215.429 31.492C215.325 31.468 215.209 31.448 215.081 31.432C214.953 31.416 214.837 31.408 214.733 31.408C214.405 31.408 214.097 31.5 213.809 31.684C213.521 31.86 213.289 32.112 213.113 32.44C212.945 32.76 212.861 33.136 212.861 33.568V37H211.805V30.568H212.669L212.789 31.744H212.837C213.037 31.392 213.301 31.088 213.629 30.832C213.965 30.576 214.357 30.448 214.805 30.448ZM218.178 37L215.742 30.568H216.87L218.238 34.36C218.302 34.536 218.37 34.732 218.442 34.948C218.514 35.164 218.578 35.372 218.634 35.572C218.69 35.772 218.73 35.936 218.754 36.064H218.802C218.826 35.936 218.87 35.772 218.934 35.572C218.998 35.364 219.066 35.156 219.138 34.948C219.21 34.732 219.278 34.536 219.342 34.36L220.71 30.568H221.838L219.39 37H218.178ZM223.396 28.156C223.556 28.156 223.696 28.212 223.816 28.324C223.944 28.428 224.008 28.596 224.008 28.828C224.008 29.06 223.944 29.232 223.816 29.344C223.696 29.448 223.556 29.5 223.396 29.5C223.22 29.5 223.072 29.448 222.952 29.344C222.832 29.232 222.772 29.06 222.772 28.828C222.772 28.596 222.832 28.428 222.952 28.324C223.072 28.212 223.22 28.156 223.396 28.156ZM223.912 30.568V37H222.856V30.568H223.912ZM228.53 37.12C227.954 37.12 227.446 37.004 227.006 36.772C226.566 36.54 226.218 36.18 225.962 35.692C225.714 35.204 225.59 34.58 225.59 33.82C225.59 33.028 225.718 32.384 225.974 31.888C226.238 31.392 226.598 31.028 227.054 30.796C227.51 30.564 228.026 30.448 228.602 30.448C228.922 30.448 229.234 30.484 229.538 30.556C229.85 30.62 230.102 30.7 230.294 30.796L229.97 31.672C229.778 31.6 229.554 31.532 229.298 31.468C229.042 31.404 228.802 31.372 228.578 31.372C227.314 31.372 226.682 32.184 226.682 33.808C226.682 34.584 226.834 35.18 227.138 35.596C227.45 36.004 227.91 36.208 228.518 36.208C228.862 36.208 229.17 36.172 229.442 36.1C229.714 36.028 229.962 35.94 230.186 35.836V36.772C229.97 36.884 229.73 36.968 229.466 37.024C229.21 37.088 228.898 37.12 228.53 37.12ZM234.199 30.448C234.743 30.448 235.215 30.568 235.615 30.808C236.015 31.048 236.319 31.388 236.527 31.828C236.743 32.26 236.851 32.768 236.851 33.352V33.988H232.447C232.463 34.716 232.647 35.272 232.999 35.656C233.359 36.032 233.859 36.22 234.499 36.22C234.907 36.22 235.267 36.184 235.579 36.112C235.899 36.032 236.227 35.92 236.563 35.776V36.7C236.235 36.844 235.911 36.948 235.591 37.012C235.271 37.084 234.891 37.12 234.451 37.12C233.835 37.12 233.295 36.996 232.831 36.748C232.367 36.5 232.003 36.132 231.739 35.644C231.483 35.156 231.355 34.552 231.355 33.832C231.355 33.128 231.471 32.524 231.703 32.02C231.943 31.516 232.275 31.128 232.699 30.856C233.131 30.584 233.631 30.448 234.199 30.448ZM234.187 31.312C233.683 31.312 233.283 31.476 232.987 31.804C232.699 32.124 232.527 32.572 232.471 33.148H235.747C235.739 32.604 235.611 32.164 235.363 31.828C235.115 31.484 234.723 31.312 234.187 31.312ZM239.689 35.608L239.773 35.74C239.661 36.164 239.509 36.628 239.317 37.132C239.125 37.644 238.933 38.116 238.741 38.548H237.961C238.073 38.092 238.185 37.592 238.297 37.048C238.417 36.504 238.505 36.024 238.561 35.608H239.689ZM252.437 32.704C252.437 33.592 252.285 34.368 251.981 35.032C251.685 35.688 251.241 36.2 250.649 36.568C250.065 36.936 249.345 37.12 248.489 37.12C247.601 37.12 246.861 36.936 246.269 36.568C245.685 36.2 245.249 35.684 244.961 35.02C244.673 34.356 244.529 33.58 244.529 32.692C244.529 31.82 244.673 31.056 244.961 30.4C245.249 29.736 245.685 29.22 246.269 28.852C246.861 28.484 247.605 28.3 248.501 28.3C249.357 28.3 250.077 28.484 250.661 28.852C251.245 29.212 251.685 29.724 251.981 30.388C252.285 31.044 252.437 31.816 252.437 32.704ZM245.669 32.704C245.669 33.784 245.897 34.636 246.353 35.26C246.809 35.876 247.521 36.184 248.489 36.184C249.457 36.184 250.165 35.876 250.613 35.26C251.069 34.636 251.297 33.784 251.297 32.704C251.297 31.624 251.073 30.78 250.625 30.172C250.177 29.556 249.469 29.248 248.501 29.248C247.525 29.248 246.809 29.556 246.353 30.172C245.897 30.78 245.669 31.624 245.669 32.704ZM257.192 30.448C257.312 30.448 257.44 30.456 257.576 30.472C257.712 30.48 257.836 30.496 257.948 30.52L257.816 31.492C257.712 31.468 257.596 31.448 257.468 31.432C257.34 31.416 257.224 31.408 257.12 31.408C256.792 31.408 256.484 31.5 256.196 31.684C255.908 31.86 255.676 32.112 255.5 32.44C255.332 32.76 255.248 33.136 255.248 33.568V37H254.192V30.568H255.056L255.176 31.744H255.224C255.424 31.392 255.688 31.088 256.016 30.832C256.352 30.576 256.744 30.448 257.192 30.448ZM261.195 37.12C260.395 37.12 259.755 36.844 259.275 36.292C258.795 35.732 258.555 34.9 258.555 33.796C258.555 32.692 258.795 31.86 259.275 31.3C259.763 30.732 260.407 30.448 261.207 30.448C261.703 30.448 262.107 30.54 262.419 30.724C262.739 30.908 262.999 31.132 263.199 31.396H263.271C263.255 31.292 263.239 31.14 263.223 30.94C263.207 30.732 263.199 30.568 263.199 30.448V27.88H264.255V37H263.403L263.247 36.136H263.199C263.007 36.408 262.751 36.64 262.431 36.832C262.111 37.024 261.699 37.12 261.195 37.12ZM261.363 36.244C262.043 36.244 262.519 36.06 262.791 35.692C263.071 35.316 263.211 34.752 263.211 34V33.808C263.211 33.008 263.079 32.396 262.815 31.972C262.551 31.54 262.063 31.324 261.351 31.324C260.783 31.324 260.355 31.552 260.067 32.008C259.787 32.456 259.647 33.06 259.647 33.82C259.647 34.588 259.787 35.184 260.067 35.608C260.355 36.032 260.787 36.244 261.363 36.244ZM268.781 30.448C269.325 30.448 269.797 30.568 270.197 30.808C270.597 31.048 270.901 31.388 271.109 31.828C271.325 32.26 271.433 32.768 271.433 33.352V33.988H267.029C267.045 34.716 267.229 35.272 267.581 35.656C267.941 36.032 268.441 36.22 269.081 36.22C269.489 36.22 269.849 36.184 270.161 36.112C270.481 36.032 270.809 35.92 271.145 35.776V36.7C270.817 36.844 270.493 36.948 270.173 37.012C269.853 37.084 269.473 37.12 269.033 37.12C268.417 37.12 267.877 36.996 267.413 36.748C266.949 36.5 266.585 36.132 266.321 35.644C266.065 35.156 265.937 34.552 265.937 33.832C265.937 33.128 266.053 32.524 266.285 32.02C266.525 31.516 266.857 31.128 267.281 30.856C267.713 30.584 268.213 30.448 268.781 30.448ZM268.769 31.312C268.265 31.312 267.865 31.476 267.569 31.804C267.281 32.124 267.109 32.572 267.053 33.148H270.329C270.321 32.604 270.193 32.164 269.945 31.828C269.697 31.484 269.305 31.312 268.769 31.312ZM276.071 30.448C276.191 30.448 276.319 30.456 276.455 30.472C276.591 30.48 276.715 30.496 276.827 30.52L276.695 31.492C276.591 31.468 276.475 31.448 276.347 31.432C276.219 31.416 276.103 31.408 275.999 31.408C275.671 31.408 275.363 31.5 275.075 31.684C274.787 31.86 274.555 32.112 274.379 32.44C274.211 32.76 274.127 33.136 274.127 33.568V37H273.071V30.568H273.935L274.055 31.744H274.103C274.303 31.392 274.567 31.088 274.895 30.832C275.231 30.576 275.623 30.448 276.071 30.448ZM15.432 44.432C16.552 44.432 17.368 44.652 17.88 45.092C18.392 45.532 18.648 46.152 18.648 46.952C18.648 47.424 18.54 47.868 18.324 48.284C18.116 48.692 17.76 49.024 17.256 49.28C16.76 49.536 16.084 49.664 15.228 49.664H14.244V53H13.164V44.432H15.432ZM15.336 45.356H14.244V48.74H15.108C15.924 48.74 16.532 48.608 16.932 48.344C17.332 48.08 17.532 47.632 17.532 47C17.532 46.448 17.352 46.036 16.992 45.764C16.64 45.492 16.088 45.356 15.336 45.356ZM23.2856 46.448C23.4056 46.448 23.5336 46.456 23.6696 46.472C23.8056 46.48 23.9296 46.496 24.0416 46.52L23.9096 47.492C23.8056 47.468 23.6896 47.448 23.5616 47.432C23.4336 47.416 23.3176 47.408 23.2136 47.408C22.8856 47.408 22.5776 47.5 22.2896 47.684C22.0016 47.86 21.7696 48.112 21.5936 48.44C21.4256 48.76 21.3416 49.136 21.3416 49.568V53H20.2856V46.568H21.1496L21.2696 47.744H21.3176C21.5176 47.392 21.7816 47.088 22.1096 46.832C22.4456 46.576 22.8376 46.448 23.2856 46.448ZM30.6003 49.772C30.6003 50.836 30.3283 51.66 29.7843 52.244C29.2483 52.828 28.5203 53.12 27.6003 53.12C27.0323 53.12 26.5243 52.992 26.0763 52.736C25.6363 52.472 25.2883 52.092 25.0323 51.596C24.7763 51.092 24.6483 50.484 24.6483 49.772C24.6483 48.708 24.9123 47.888 25.4403 47.312C25.9763 46.736 26.7083 46.448 27.6363 46.448C28.2123 46.448 28.7243 46.58 29.1723 46.844C29.6203 47.1 29.9683 47.476 30.2163 47.972C30.4723 48.46 30.6003 49.06 30.6003 49.772ZM25.7403 49.772C25.7403 50.532 25.8883 51.136 26.1843 51.584C26.4883 52.024 26.9683 52.244 27.6243 52.244C28.2723 52.244 28.7483 52.024 29.0523 51.584C29.3563 51.136 29.5083 50.532 29.5083 49.772C29.5083 49.012 29.3563 48.416 29.0523 47.984C28.7483 47.552 28.2683 47.336 27.6123 47.336C26.9563 47.336 26.4803 47.552 26.1843 47.984C25.8883 48.416 25.7403 49.012 25.7403 49.772ZM34.8539 53.12C34.2779 53.12 33.7699 53.004 33.3299 52.772C32.8899 52.54 32.5419 52.18 32.2859 51.692C32.0379 51.204 31.9139 50.58 31.9139 49.82C31.9139 49.028 32.0419 48.384 32.2979 47.888C32.5619 47.392 32.9219 47.028 33.3779 46.796C33.8339 46.564 34.3499 46.448 34.9259 46.448C35.2459 46.448 35.5579 46.484 35.8619 46.556C36.1739 46.62 36.4259 46.7 36.6179 46.796L36.2939 47.672C36.1019 47.6 35.8779 47.532 35.6219 47.468C35.3659 47.404 35.1259 47.372 34.9019 47.372C33.6379 47.372 33.0059 48.184 33.0059 49.808C33.0059 50.584 33.1579 51.18 33.4619 51.596C33.7739 52.004 34.2339 52.208 34.8419 52.208C35.1859 52.208 35.4939 52.172 35.7659 52.1C36.0379 52.028 36.2859 51.94 36.5099 51.836V52.772C36.2939 52.884 36.0539 52.968 35.7899 53.024C35.5339 53.088 35.2219 53.12 34.8539 53.12ZM40.5235 46.448C41.0675 46.448 41.5395 46.568 41.9395 46.808C42.3395 47.048 42.6435 47.388 42.8515 47.828C43.0675 48.26 43.1755 48.768 43.1755 49.352V49.988H38.7715C38.7875 50.716 38.9715 51.272 39.3235 51.656C39.6835 52.032 40.1835 52.22 40.8235 52.22C41.2315 52.22 41.5915 52.184 41.9035 52.112C42.2235 52.032 42.5515 51.92 42.8875 51.776V52.7C42.5595 52.844 42.2355 52.948 41.9155 53.012C41.5955 53.084 41.2155 53.12 40.7755 53.12C40.1595 53.12 39.6195 52.996 39.1555 52.748C38.6915 52.5 38.3275 52.132 38.0635 51.644C37.8075 51.156 37.6795 50.552 37.6795 49.832C37.6795 49.128 37.7955 48.524 38.0275 48.02C38.2675 47.516 38.5995 47.128 39.0235 46.856C39.4555 46.584 39.9555 46.448 40.5235 46.448ZM40.5115 47.312C40.0075 47.312 39.6075 47.476 39.3115 47.804C39.0235 48.124 38.8515 48.572 38.7955 49.148H42.0715C42.0635 48.604 41.9355 48.164 41.6875 47.828C41.4395 47.484 41.0475 47.312 40.5115 47.312ZM49.001 51.224C49.001 51.848 48.769 52.32 48.305 52.64C47.841 52.96 47.217 53.12 46.433 53.12C45.985 53.12 45.597 53.084 45.269 53.012C44.949 52.94 44.665 52.84 44.417 52.712V51.752C44.673 51.88 44.981 52 45.341 52.112C45.709 52.216 46.081 52.268 46.457 52.268C46.993 52.268 47.381 52.184 47.621 52.016C47.861 51.84 47.981 51.608 47.981 51.32C47.981 51.16 47.937 51.016 47.849 50.888C47.761 50.76 47.601 50.632 47.369 50.504C47.145 50.376 46.821 50.232 46.397 50.072C45.981 49.912 45.625 49.752 45.329 49.592C45.033 49.432 44.805 49.24 44.645 49.016C44.485 48.792 44.405 48.504 44.405 48.152C44.405 47.608 44.625 47.188 45.065 46.892C45.513 46.596 46.097 46.448 46.817 46.448C47.209 46.448 47.573 46.488 47.909 46.568C48.253 46.648 48.573 46.752 48.869 46.88L48.509 47.72C48.237 47.608 47.953 47.512 47.657 47.432C47.361 47.352 47.057 47.312 46.745 47.312C46.313 47.312 45.981 47.384 45.749 47.528C45.525 47.664 45.413 47.852 45.413 48.092C45.413 48.276 45.465 48.428 45.569 48.548C45.673 48.668 45.845 48.788 46.085 48.908C46.333 49.028 46.661 49.164 47.069 49.316C47.477 49.468 47.825 49.624 48.113 49.784C48.401 49.944 48.621 50.14 48.773 50.372C48.925 50.596 49.001 50.88 49.001 51.224ZM54.7432 51.224C54.7432 51.848 54.5112 52.32 54.0472 52.64C53.5832 52.96 52.9592 53.12 52.1752 53.12C51.7272 53.12 51.3392 53.084 51.0112 53.012C50.6912 52.94 50.4072 52.84 50.1592 52.712V51.752C50.4152 51.88 50.7232 52 51.0832 52.112C51.4512 52.216 51.8232 52.268 52.1992 52.268C52.7352 52.268 53.1232 52.184 53.3632 52.016C53.6032 51.84 53.7232 51.608 53.7232 51.32C53.7232 51.16 53.6792 51.016 53.5912 50.888C53.5032 50.76 53.3432 50.632 53.1112 50.504C52.8872 50.376 52.5632 50.232 52.1392 50.072C51.7232 49.912 51.3672 49.752 51.0712 49.592C50.7752 49.432 50.5472 49.24 50.3872 49.016C50.2272 48.792 50.1472 48.504 50.1472 48.152C50.1472 47.608 50.3672 47.188 50.8072 46.892C51.2552 46.596 51.8392 46.448 52.5592 46.448C52.9512 46.448 53.3152 46.488 53.6512 46.568C53.9952 46.648 54.3152 46.752 54.6112 46.88L54.2512 47.72C53.9792 47.608 53.6952 47.512 53.3992 47.432C53.1032 47.352 52.7992 47.312 52.4872 47.312C52.0552 47.312 51.7232 47.384 51.4912 47.528C51.2672 47.664 51.1552 47.852 51.1552 48.092C51.1552 48.276 51.2072 48.428 51.3112 48.548C51.4152 48.668 51.5872 48.788 51.8272 48.908C52.0752 49.028 52.4032 49.164 52.8112 49.316C53.2192 49.468 53.5672 49.624 53.8552 49.784C54.1432 49.944 54.3632 50.14 54.5152 50.372C54.6672 50.596 54.7432 50.88 54.7432 51.224ZM56.8373 44.156C56.9973 44.156 57.1373 44.212 57.2573 44.324C57.3853 44.428 57.4493 44.596 57.4493 44.828C57.4493 45.06 57.3853 45.232 57.2573 45.344C57.1373 45.448 56.9973 45.5 56.8373 45.5C56.6613 45.5 56.5133 45.448 56.3933 45.344C56.2733 45.232 56.2133 45.06 56.2133 44.828C56.2133 44.596 56.2733 44.428 56.3933 44.324C56.5133 44.212 56.6613 44.156 56.8373 44.156ZM57.3533 46.568V53H56.2973V46.568H57.3533ZM62.4871 46.448C63.2551 46.448 63.8351 46.636 64.2271 47.012C64.6191 47.388 64.8151 47.988 64.8151 48.812V53H63.7711V48.884C63.7711 47.852 63.2911 47.336 62.3311 47.336C61.6191 47.336 61.1271 47.536 60.8551 47.936C60.5831 48.336 60.4471 48.912 60.4471 49.664V53H59.3911V46.568H60.2431L60.3991 47.444H60.4591C60.6671 47.108 60.9551 46.86 61.3231 46.7C61.6911 46.532 62.0791 46.448 62.4871 46.448ZM69.0891 46.448C69.5131 46.448 69.8931 46.528 70.2291 46.688C70.5731 46.848 70.8651 47.092 71.1051 47.42H71.1651L71.3091 46.568H72.1491V53.108C72.1491 54.028 71.9131 54.72 71.4411 55.184C70.9771 55.648 70.2531 55.88 69.2691 55.88C68.3251 55.88 67.5531 55.744 66.9531 55.472V54.5C67.5851 54.836 68.3771 55.004 69.3291 55.004C69.8811 55.004 70.3131 54.84 70.6251 54.512C70.9451 54.192 71.1051 53.752 71.1051 53.192V52.94C71.1051 52.844 71.1091 52.708 71.1171 52.532C71.1251 52.348 71.1331 52.22 71.1411 52.148H71.0931C70.6611 52.796 69.9971 53.12 69.1011 53.12C68.2691 53.12 67.6171 52.828 67.1451 52.244C66.6811 51.66 66.4491 50.844 66.4491 49.796C66.4491 48.772 66.6811 47.96 67.1451 47.36C67.6171 46.752 68.2651 46.448 69.0891 46.448ZM69.2331 47.336C68.6971 47.336 68.2811 47.552 67.9851 47.984C67.6891 48.408 67.5411 49.016 67.5411 49.808C67.5411 50.6 67.6851 51.208 67.9731 51.632C68.2611 52.048 68.6891 52.256 69.2571 52.256C69.9051 52.256 70.3771 52.084 70.6731 51.74C70.9691 51.388 71.1171 50.824 71.1171 50.048V49.796C71.1171 48.924 70.9651 48.296 70.6611 47.912C70.3571 47.528 69.8811 47.336 69.2331 47.336ZM75.3919 51.608L75.4759 51.74C75.3639 52.164 75.2119 52.628 75.0199 53.132C74.8279 53.644 74.6359 54.116 74.4439 54.548H73.6639C73.7759 54.092 73.8879 53.592 73.9999 53.048C74.1199 52.504 74.2079 52.024 74.2639 51.608H75.3919ZM83.028 44.432C84.092 44.432 84.876 44.636 85.38 45.044C85.892 45.444 86.148 46.052 86.148 46.868C86.148 47.324 86.064 47.704 85.896 48.008C85.728 48.312 85.512 48.556 85.248 48.74C84.992 48.924 84.72 49.064 84.432 49.16L86.784 53H85.524L83.448 49.46H81.744V53H80.664V44.432H83.028ZM82.968 45.368H81.744V48.548H83.028C83.724 48.548 84.232 48.412 84.552 48.14C84.872 47.86 85.032 47.452 85.032 46.916C85.032 46.356 84.864 45.96 84.528 45.728C84.192 45.488 83.672 45.368 82.968 45.368ZM90.4688 46.448C91.0128 46.448 91.4848 46.568 91.8848 46.808C92.2848 47.048 92.5888 47.388 92.7968 47.828C93.0128 48.26 93.1208 48.768 93.1208 49.352V49.988H88.7168C88.7328 50.716 88.9168 51.272 89.2688 51.656C89.6288 52.032 90.1288 52.22 90.7688 52.22C91.1768 52.22 91.5368 52.184 91.8488 52.112C92.1688 52.032 92.4968 51.92 92.8328 51.776V52.7C92.5048 52.844 92.1808 52.948 91.8608 53.012C91.5408 53.084 91.1608 53.12 90.7208 53.12C90.1048 53.12 89.5648 52.996 89.1008 52.748C88.6368 52.5 88.2728 52.132 88.0088 51.644C87.7528 51.156 87.6248 50.552 87.6248 49.832C87.6248 49.128 87.7408 48.524 87.9728 48.02C88.2128 47.516 88.5448 47.128 88.9688 46.856C89.4008 46.584 89.9008 46.448 90.4688 46.448ZM90.4568 47.312C89.9528 47.312 89.5528 47.476 89.2568 47.804C88.9688 48.124 88.7968 48.572 88.7408 49.148H92.0168C92.0088 48.604 91.8808 48.164 91.6328 47.828C91.3848 47.484 90.9928 47.312 90.4568 47.312ZM96.9063 52.256C97.0663 52.256 97.2303 52.244 97.3983 52.22C97.5663 52.196 97.7023 52.164 97.8063 52.124V52.928C97.6943 52.984 97.5343 53.028 97.3263 53.06C97.1183 53.1 96.9183 53.12 96.7263 53.12C96.3903 53.12 96.0783 53.064 95.7903 52.952C95.5103 52.832 95.2823 52.628 95.1063 52.34C94.9303 52.052 94.8423 51.648 94.8423 51.128V47.384H93.9303V46.88L94.8543 46.46L95.2743 45.092H95.8983V46.568H97.7583V47.384H95.8983V51.104C95.8983 51.496 95.9903 51.788 96.1743 51.98C96.3663 52.164 96.6103 52.256 96.9063 52.256ZM104.47 46.568V53H103.606L103.45 52.148H103.402C103.194 52.484 102.906 52.732 102.538 52.892C102.17 53.044 101.778 53.12 101.362 53.12C100.586 53.12 100.002 52.936 99.6102 52.568C99.2182 52.192 99.0222 51.596 99.0222 50.78V46.568H100.09V50.708C100.09 51.732 100.566 52.244 101.518 52.244C102.23 52.244 102.722 52.044 102.994 51.644C103.274 51.244 103.414 50.668 103.414 49.916V46.568H104.47ZM109.512 46.448C109.632 46.448 109.76 46.456 109.896 46.472C110.032 46.48 110.156 46.496 110.268 46.52L110.136 47.492C110.032 47.468 109.916 47.448 109.788 47.432C109.66 47.416 109.544 47.408 109.44 47.408C109.112 47.408 108.804 47.5 108.516 47.684C108.228 47.86 107.996 48.112 107.82 48.44C107.652 48.76 107.568 49.136 107.568 49.568V53H106.512V46.568H107.376L107.496 47.744H107.544C107.744 47.392 108.008 47.088 108.336 46.832C108.672 46.576 109.064 46.448 109.512 46.448ZM114.565 46.448C115.333 46.448 115.913 46.636 116.305 47.012C116.697 47.388 116.893 47.988 116.893 48.812V53H115.849V48.884C115.849 47.852 115.369 47.336 114.409 47.336C113.697 47.336 113.205 47.536 112.933 47.936C112.661 48.336 112.525 48.912 112.525 49.664V53H111.469V46.568H112.321L112.477 47.444H112.537C112.745 47.108 113.033 46.86 113.401 46.7C113.769 46.532 114.157 46.448 114.565 46.448ZM123.075 51.224C123.075 51.848 122.843 52.32 122.379 52.64C121.915 52.96 121.291 53.12 120.507 53.12C120.059 53.12 119.671 53.084 119.343 53.012C119.023 52.94 118.739 52.84 118.491 52.712V51.752C118.747 51.88 119.055 52 119.415 52.112C119.783 52.216 120.155 52.268 120.531 52.268C121.067 52.268 121.455 52.184 121.695 52.016C121.935 51.84 122.055 51.608 122.055 51.32C122.055 51.16 122.011 51.016 121.923 50.888C121.835 50.76 121.675 50.632 121.443 50.504C121.219 50.376 120.895 50.232 120.471 50.072C120.055 49.912 119.699 49.752 119.403 49.592C119.107 49.432 118.879 49.24 118.719 49.016C118.559 48.792 118.479 48.504 118.479 48.152C118.479 47.608 118.699 47.188 119.139 46.892C119.587 46.596 120.171 46.448 120.891 46.448C121.283 46.448 121.647 46.488 121.983 46.568C122.327 46.648 122.647 46.752 122.943 46.88L122.583 47.72C122.311 47.608 122.027 47.512 121.731 47.432C121.435 47.352 121.131 47.312 120.819 47.312C120.387 47.312 120.055 47.384 119.823 47.528C119.599 47.664 119.487 47.852 119.487 48.092C119.487 48.276 119.539 48.428 119.643 48.548C119.747 48.668 119.919 48.788 120.159 48.908C120.407 49.028 120.735 49.164 121.143 49.316C121.551 49.468 121.899 49.624 122.187 49.784C122.475 49.944 122.695 50.14 122.847 50.372C122.999 50.596 123.075 50.88 123.075 51.224ZM125.829 51.608L125.913 51.74C125.801 52.164 125.649 52.628 125.457 53.132C125.265 53.644 125.073 54.116 124.881 54.548H124.101C124.213 54.092 124.325 53.592 124.437 53.048C124.557 52.504 124.645 52.024 124.701 51.608H125.829ZM131.102 53V44.432H132.182V52.04H135.926V53H131.102ZM142.842 49.772C142.842 50.836 142.57 51.66 142.026 52.244C141.49 52.828 140.762 53.12 139.842 53.12C139.274 53.12 138.766 52.992 138.318 52.736C137.878 52.472 137.53 52.092 137.274 51.596C137.018 51.092 136.89 50.484 136.89 49.772C136.89 48.708 137.154 47.888 137.682 47.312C138.218 46.736 138.95 46.448 139.878 46.448C140.454 46.448 140.966 46.58 141.414 46.844C141.862 47.1 142.21 47.476 142.458 47.972C142.714 48.46 142.842 49.06 142.842 49.772ZM137.982 49.772C137.982 50.532 138.13 51.136 138.426 51.584C138.73 52.024 139.21 52.244 139.866 52.244C140.514 52.244 140.99 52.024 141.294 51.584C141.598 51.136 141.75 50.532 141.75 49.772C141.75 49.012 141.598 48.416 141.294 47.984C140.99 47.552 140.51 47.336 139.854 47.336C139.198 47.336 138.722 47.552 138.426 47.984C138.13 48.416 137.982 49.012 137.982 49.772ZM146.796 46.448C147.22 46.448 147.6 46.528 147.936 46.688C148.28 46.848 148.572 47.092 148.812 47.42H148.872L149.016 46.568H149.856V53.108C149.856 54.028 149.62 54.72 149.148 55.184C148.684 55.648 147.96 55.88 146.976 55.88C146.032 55.88 145.26 55.744 144.66 55.472V54.5C145.292 54.836 146.084 55.004 147.036 55.004C147.588 55.004 148.02 54.84 148.332 54.512C148.652 54.192 148.812 53.752 148.812 53.192V52.94C148.812 52.844 148.816 52.708 148.824 52.532C148.832 52.348 148.84 52.22 148.848 52.148H148.8C148.368 52.796 147.704 53.12 146.808 53.12C145.976 53.12 145.324 52.828 144.852 52.244C144.388 51.66 144.156 50.844 144.156 49.796C144.156 48.772 144.388 47.96 144.852 47.36C145.324 46.752 145.972 46.448 146.796 46.448ZM146.94 47.336C146.404 47.336 145.988 47.552 145.692 47.984C145.396 48.408 145.248 49.016 145.248 49.808C145.248 50.6 145.392 51.208 145.68 51.632C145.968 52.048 146.396 52.256 146.964 52.256C147.612 52.256 148.084 52.084 148.38 51.74C148.676 51.388 148.824 50.824 148.824 50.048V49.796C148.824 48.924 148.672 48.296 148.368 47.912C148.064 47.528 147.588 47.336 146.94 47.336ZM152.439 44.156C152.599 44.156 152.739 44.212 152.859 44.324C152.987 44.428 153.051 44.596 153.051 44.828C153.051 45.06 152.987 45.232 152.859 45.344C152.739 45.448 152.599 45.5 152.439 45.5C152.263 45.5 152.115 45.448 151.995 45.344C151.875 45.232 151.815 45.06 151.815 44.828C151.815 44.596 151.875 44.428 151.995 44.324C152.115 44.212 152.263 44.156 152.439 44.156ZM152.955 46.568V53H151.899V46.568H152.955ZM159.181 51.224C159.181 51.848 158.949 52.32 158.485 52.64C158.021 52.96 157.397 53.12 156.613 53.12C156.165 53.12 155.777 53.084 155.449 53.012C155.129 52.94 154.845 52.84 154.597 52.712V51.752C154.853 51.88 155.161 52 155.521 52.112C155.889 52.216 156.261 52.268 156.637 52.268C157.173 52.268 157.561 52.184 157.801 52.016C158.041 51.84 158.161 51.608 158.161 51.32C158.161 51.16 158.117 51.016 158.029 50.888C157.941 50.76 157.781 50.632 157.549 50.504C157.325 50.376 157.001 50.232 156.577 50.072C156.161 49.912 155.805 49.752 155.509 49.592C155.213 49.432 154.985 49.24 154.825 49.016C154.665 48.792 154.585 48.504 154.585 48.152C154.585 47.608 154.805 47.188 155.245 46.892C155.693 46.596 156.277 46.448 156.997 46.448C157.389 46.448 157.753 46.488 158.089 46.568C158.433 46.648 158.753 46.752 159.049 46.88L158.689 47.72C158.417 47.608 158.133 47.512 157.837 47.432C157.541 47.352 157.237 47.312 156.925 47.312C156.493 47.312 156.161 47.384 155.929 47.528C155.705 47.664 155.593 47.852 155.593 48.092C155.593 48.276 155.645 48.428 155.749 48.548C155.853 48.668 156.025 48.788 156.265 48.908C156.513 49.028 156.841 49.164 157.249 49.316C157.657 49.468 158.005 49.624 158.293 49.784C158.581 49.944 158.801 50.14 158.953 50.372C159.105 50.596 159.181 50.88 159.181 51.224ZM162.883 52.256C163.043 52.256 163.207 52.244 163.375 52.22C163.543 52.196 163.679 52.164 163.783 52.124V52.928C163.671 52.984 163.511 53.028 163.303 53.06C163.095 53.1 162.895 53.12 162.703 53.12C162.367 53.12 162.055 53.064 161.767 52.952C161.487 52.832 161.259 52.628 161.083 52.34C160.907 52.052 160.819 51.648 160.819 51.128V47.384H159.907V46.88L160.831 46.46L161.251 45.092H161.875V46.568H163.735V47.384H161.875V51.104C161.875 51.496 161.967 51.788 162.151 51.98C162.343 52.164 162.587 52.256 162.883 52.256ZM165.611 44.156C165.771 44.156 165.911 44.212 166.031 44.324C166.159 44.428 166.223 44.596 166.223 44.828C166.223 45.06 166.159 45.232 166.031 45.344C165.911 45.448 165.771 45.5 165.611 45.5C165.435 45.5 165.287 45.448 165.167 45.344C165.047 45.232 164.987 45.06 164.987 44.828C164.987 44.596 165.047 44.428 165.167 44.324C165.287 44.212 165.435 44.156 165.611 44.156ZM166.127 46.568V53H165.071V46.568H166.127ZM170.745 53.12C170.169 53.12 169.661 53.004 169.221 52.772C168.781 52.54 168.433 52.18 168.177 51.692C167.929 51.204 167.805 50.58 167.805 49.82C167.805 49.028 167.933 48.384 168.189 47.888C168.453 47.392 168.813 47.028 169.269 46.796C169.725 46.564 170.241 46.448 170.817 46.448C171.137 46.448 171.449 46.484 171.753 46.556C172.065 46.62 172.317 46.7 172.509 46.796L172.185 47.672C171.993 47.6 171.769 47.532 171.513 47.468C171.257 47.404 171.017 47.372 170.793 47.372C169.529 47.372 168.897 48.184 168.897 49.808C168.897 50.584 169.049 51.18 169.353 51.596C169.665 52.004 170.125 52.208 170.733 52.208C171.077 52.208 171.385 52.172 171.657 52.1C171.929 52.028 172.177 51.94 172.401 51.836V52.772C172.185 52.884 171.945 52.968 171.681 53.024C171.425 53.088 171.113 53.12 170.745 53.12ZM178.118 51.224C178.118 51.848 177.886 52.32 177.422 52.64C176.958 52.96 176.334 53.12 175.55 53.12C175.102 53.12 174.714 53.084 174.386 53.012C174.066 52.94 173.782 52.84 173.534 52.712V51.752C173.79 51.88 174.098 52 174.458 52.112C174.826 52.216 175.198 52.268 175.574 52.268C176.11 52.268 176.498 52.184 176.738 52.016C176.978 51.84 177.098 51.608 177.098 51.32C177.098 51.16 177.054 51.016 176.966 50.888C176.878 50.76 176.718 50.632 176.486 50.504C176.262 50.376 175.938 50.232 175.514 50.072C175.098 49.912 174.742 49.752 174.446 49.592C174.15 49.432 173.922 49.24 173.762 49.016C173.602 48.792 173.522 48.504 173.522 48.152C173.522 47.608 173.742 47.188 174.182 46.892C174.63 46.596 175.214 46.448 175.934 46.448C176.326 46.448 176.69 46.488 177.026 46.568C177.37 46.648 177.69 46.752 177.986 46.88L177.626 47.72C177.354 47.608 177.07 47.512 176.774 47.432C176.478 47.352 176.174 47.312 175.862 47.312C175.43 47.312 175.098 47.384 174.866 47.528C174.642 47.664 174.53 47.852 174.53 48.092C174.53 48.276 174.582 48.428 174.686 48.548C174.79 48.668 174.962 48.788 175.202 48.908C175.45 49.028 175.778 49.164 176.186 49.316C176.594 49.468 176.942 49.624 177.23 49.784C177.518 49.944 177.738 50.14 177.89 50.372C178.042 50.596 178.118 50.88 178.118 51.224Z" fill="white"/>
<path d="M148 64H162L155 71L148 64Z" fill="#323232"/>
<rect width="202" height="44" transform="translate(49 79)" fill="white"/>
<path d="M200.416 100.568H203.202V101.562H200.416V104.446H199.408V101.562H196.622V100.568H199.408V97.67H200.416V100.568ZM204.704 101.73C204.704 101.011 204.764 100.307 204.886 99.616C205.016 98.916 205.245 98.286 205.572 97.726C205.908 97.1567 206.374 96.704 206.972 96.368C207.569 96.032 208.339 95.864 209.282 95.864C209.478 95.864 209.692 95.8733 209.926 95.892C210.168 95.9107 210.364 95.9433 210.514 95.99V97.04C210.346 96.984 210.154 96.942 209.94 96.914C209.725 96.886 209.515 96.872 209.31 96.872C208.666 96.872 208.129 96.9793 207.7 97.194C207.27 97.4087 206.93 97.7027 206.678 98.076C206.435 98.4493 206.258 98.8787 206.146 99.364C206.034 99.8493 205.964 100.367 205.936 100.918H206.02C206.234 100.591 206.533 100.316 206.916 100.092C207.298 99.8587 207.788 99.742 208.386 99.742C209.254 99.742 209.954 100.008 210.486 100.54C211.018 101.063 211.284 101.809 211.284 102.78C211.284 103.825 210.994 104.647 210.416 105.244C209.846 105.841 209.076 106.14 208.106 106.14C207.471 106.14 206.897 105.981 206.384 105.664C205.87 105.347 205.46 104.861 205.152 104.208C204.853 103.555 204.704 102.729 204.704 101.73ZM208.092 105.104C208.68 105.104 209.156 104.917 209.52 104.544C209.884 104.161 210.066 103.573 210.066 102.78C210.066 102.145 209.902 101.641 209.576 101.268C209.258 100.895 208.778 100.708 208.134 100.708C207.695 100.708 207.312 100.801 206.986 100.988C206.659 101.165 206.402 101.399 206.216 101.688C206.038 101.968 205.95 102.253 205.95 102.542C205.95 102.943 206.029 103.345 206.188 103.746C206.346 104.138 206.584 104.465 206.902 104.726C207.219 104.978 207.616 105.104 208.092 105.104Z" fill="black"/>
<line x1="49" y1="122.5" x2="251" y2="122.5" stroke="#F1F1F1"/>
<rect x="63.5" y="89.5" width="44" height="23" rx="3.5" fill="#F1F1F1"/>
<path d="M77.024 103.708C77.024 104.468 76.748 105.06 76.196 105.484C75.644 105.908 74.9 106.12 73.964 106.12C73.484 106.12 73.04 106.084 72.632 106.012C72.224 105.94 71.884 105.84 71.612 105.712V104.68C71.9 104.808 72.256 104.924 72.68 105.028C73.112 105.132 73.556 105.184 74.012 105.184C74.644 105.184 75.124 105.06 75.452 104.812C75.78 104.564 75.944 104.228 75.944 103.804C75.944 103.524 75.884 103.288 75.764 103.096C75.644 102.904 75.436 102.728 75.14 102.568C74.844 102.408 74.44 102.232 73.928 102.04C73.192 101.776 72.64 101.452 72.272 101.068C71.904 100.684 71.72 100.16 71.72 99.496C71.72 99.048 71.836 98.66 72.068 98.332C72.3 98.004 72.62 97.752 73.028 97.576C73.436 97.4 73.912 97.312 74.456 97.312C74.92 97.312 75.348 97.356 75.74 97.444C76.132 97.532 76.492 97.648 76.82 97.792L76.484 98.716C76.188 98.588 75.864 98.48 75.512 98.392C75.16 98.304 74.8 98.26 74.432 98.26C73.896 98.26 73.492 98.376 73.22 98.608C72.948 98.832 72.812 99.132 72.812 99.508C72.812 99.796 72.872 100.036 72.992 100.228C73.112 100.42 73.308 100.596 73.58 100.756C73.852 100.908 74.22 101.068 74.684 101.236C75.188 101.42 75.612 101.62 75.956 101.836C76.308 102.044 76.572 102.296 76.748 102.592C76.932 102.888 77.024 103.26 77.024 103.708ZM81.0419 99.46C81.8259 99.46 82.4059 99.632 82.7819 99.976C83.1579 100.32 83.3459 100.868 83.3459 101.62V106H82.5779L82.3739 105.088H82.3259C82.0459 105.44 81.7499 105.7 81.4379 105.868C81.1259 106.036 80.7019 106.12 80.1659 106.12C79.5819 106.12 79.0979 105.968 78.7139 105.664C78.3299 105.352 78.1379 104.868 78.1379 104.212C78.1379 103.572 78.3899 103.08 78.8939 102.736C79.3979 102.384 80.1739 102.192 81.2219 102.16L82.3139 102.124V101.74C82.3139 101.204 82.1979 100.832 81.9659 100.624C81.7339 100.416 81.4059 100.312 80.9819 100.312C80.6459 100.312 80.3259 100.364 80.0219 100.468C79.7179 100.564 79.4339 100.676 79.1699 100.804L78.8459 100.012C79.1259 99.86 79.4579 99.732 79.8419 99.628C80.2259 99.516 80.6259 99.46 81.0419 99.46ZM82.3019 102.856L81.3539 102.892C80.5539 102.924 79.9979 103.052 79.6859 103.276C79.3819 103.5 79.2299 103.816 79.2299 104.224C79.2299 104.584 79.3379 104.848 79.5539 105.016C79.7779 105.184 80.0619 105.268 80.4059 105.268C80.9419 105.268 81.3899 105.12 81.7499 104.824C82.1179 104.52 82.3019 104.056 82.3019 103.432V102.856ZM86.3885 106H85.3325V96.88H86.3885V106ZM90.9103 99.448C91.4543 99.448 91.9263 99.568 92.3263 99.808C92.7263 100.048 93.0303 100.388 93.2383 100.828C93.4543 101.26 93.5623 101.768 93.5623 102.352V102.988H89.1583C89.1743 103.716 89.3583 104.272 89.7103 104.656C90.0703 105.032 90.5703 105.22 91.2103 105.22C91.6183 105.22 91.9783 105.184 92.2903 105.112C92.6103 105.032 92.9383 104.92 93.2743 104.776V105.7C92.9463 105.844 92.6223 105.948 92.3023 106.012C91.9823 106.084 91.6023 106.12 91.1623 106.12C90.5463 106.12 90.0063 105.996 89.5423 105.748C89.0783 105.5 88.7143 105.132 88.4503 104.644C88.1943 104.156 88.0663 103.552 88.0663 102.832C88.0663 102.128 88.1823 101.524 88.4143 101.02C88.6543 100.516 88.9863 100.128 89.4103 99.856C89.8423 99.584 90.3423 99.448 90.9103 99.448ZM90.8983 100.312C90.3943 100.312 89.9943 100.476 89.6983 100.804C89.4103 101.124 89.2383 101.572 89.1823 102.148H92.4583C92.4503 101.604 92.3223 101.164 92.0743 100.828C91.8263 100.484 91.4343 100.312 90.8983 100.312ZM99.3877 104.224C99.3877 104.848 99.1557 105.32 98.6917 105.64C98.2277 105.96 97.6037 106.12 96.8197 106.12C96.3717 106.12 95.9837 106.084 95.6557 106.012C95.3357 105.94 95.0517 105.84 94.8037 105.712V104.752C95.0597 104.88 95.3677 105 95.7277 105.112C96.0957 105.216 96.4677 105.268 96.8437 105.268C97.3797 105.268 97.7677 105.184 98.0077 105.016C98.2477 104.84 98.3677 104.608 98.3677 104.32C98.3677 104.16 98.3237 104.016 98.2357 103.888C98.1477 103.76 97.9877 103.632 97.7557 103.504C97.5317 103.376 97.2077 103.232 96.7837 103.072C96.3677 102.912 96.0117 102.752 95.7157 102.592C95.4197 102.432 95.1917 102.24 95.0317 102.016C94.8717 101.792 94.7917 101.504 94.7917 101.152C94.7917 100.608 95.0117 100.188 95.4517 99.892C95.8997 99.596 96.4837 99.448 97.2037 99.448C97.5957 99.448 97.9597 99.488 98.2957 99.568C98.6397 99.648 98.9597 99.752 99.2557 99.88L98.8957 100.72C98.6237 100.608 98.3397 100.512 98.0437 100.432C97.7477 100.352 97.4437 100.312 97.1317 100.312C96.6997 100.312 96.3677 100.384 96.1357 100.528C95.9117 100.664 95.7997 100.852 95.7997 101.092C95.7997 101.276 95.8517 101.428 95.9557 101.548C96.0597 101.668 96.2317 101.788 96.4717 101.908C96.7197 102.028 97.0477 102.164 97.4557 102.316C97.8637 102.468 98.2117 102.624 98.4997 102.784C98.7877 102.944 99.0077 103.14 99.1597 103.372C99.3117 103.596 99.3877 103.88 99.3877 104.224Z" fill="black"/>
<rect x="63.5" y="89.5" width="44" height="23" rx="3.5" stroke="#939393"/>
<rect x="116.5" y="89.5" width="70" height="23" rx="3.5" fill="#F1F1F1"/>
<path d="M127.528 97.432C128.592 97.432 129.376 97.636 129.88 98.044C130.392 98.444 130.648 99.052 130.648 99.868C130.648 100.324 130.564 100.704 130.396 101.008C130.228 101.312 130.012 101.556 129.748 101.74C129.492 101.924 129.22 102.064 128.932 102.16L131.284 106H130.024L127.948 102.46H126.244V106H125.164V97.432H127.528ZM127.468 98.368H126.244V101.548H127.528C128.224 101.548 128.732 101.412 129.052 101.14C129.372 100.86 129.532 100.452 129.532 99.916C129.532 99.356 129.364 98.96 129.028 98.728C128.692 98.488 128.172 98.368 127.468 98.368ZM134.969 99.448C135.513 99.448 135.985 99.568 136.385 99.808C136.785 100.048 137.089 100.388 137.297 100.828C137.513 101.26 137.621 101.768 137.621 102.352V102.988H133.217C133.233 103.716 133.417 104.272 133.769 104.656C134.129 105.032 134.629 105.22 135.269 105.22C135.677 105.22 136.037 105.184 136.349 105.112C136.669 105.032 136.997 104.92 137.333 104.776V105.7C137.005 105.844 136.681 105.948 136.361 106.012C136.041 106.084 135.661 106.12 135.221 106.12C134.605 106.12 134.065 105.996 133.601 105.748C133.137 105.5 132.773 105.132 132.509 104.644C132.253 104.156 132.125 103.552 132.125 102.832C132.125 102.128 132.241 101.524 132.473 101.02C132.713 100.516 133.045 100.128 133.469 99.856C133.901 99.584 134.401 99.448 134.969 99.448ZM134.957 100.312C134.453 100.312 134.053 100.476 133.757 100.804C133.469 101.124 133.297 101.572 133.241 102.148H136.517C136.509 101.604 136.381 101.164 136.133 100.828C135.885 100.484 135.493 100.312 134.957 100.312ZM141.406 105.256C141.566 105.256 141.73 105.244 141.898 105.22C142.066 105.196 142.202 105.164 142.306 105.124V105.928C142.194 105.984 142.034 106.028 141.826 106.06C141.618 106.1 141.418 106.12 141.226 106.12C140.89 106.12 140.578 106.064 140.29 105.952C140.01 105.832 139.782 105.628 139.606 105.34C139.43 105.052 139.342 104.648 139.342 104.128V100.384H138.43V99.88L139.354 99.46L139.774 98.092H140.398V99.568H142.258V100.384H140.398V104.104C140.398 104.496 140.49 104.788 140.674 104.98C140.866 105.164 141.11 105.256 141.406 105.256ZM146.078 99.448C146.622 99.448 147.094 99.568 147.494 99.808C147.894 100.048 148.198 100.388 148.406 100.828C148.622 101.26 148.73 101.768 148.73 102.352V102.988H144.326C144.342 103.716 144.526 104.272 144.878 104.656C145.238 105.032 145.738 105.22 146.378 105.22C146.786 105.22 147.146 105.184 147.458 105.112C147.778 105.032 148.106 104.92 148.442 104.776V105.7C148.114 105.844 147.79 105.948 147.47 106.012C147.15 106.084 146.77 106.12 146.33 106.12C145.714 106.12 145.174 105.996 144.71 105.748C144.246 105.5 143.882 105.132 143.618 104.644C143.362 104.156 143.234 103.552 143.234 102.832C143.234 102.128 143.35 101.524 143.582 101.02C143.822 100.516 144.154 100.128 144.578 99.856C145.01 99.584 145.51 99.448 146.078 99.448ZM146.066 100.312C145.562 100.312 145.162 100.476 144.866 100.804C144.578 101.124 144.406 101.572 144.35 102.148H147.626C147.618 101.604 147.49 101.164 147.242 100.828C146.994 100.484 146.602 100.312 146.066 100.312ZM153.464 99.448C154.232 99.448 154.812 99.636 155.204 100.012C155.596 100.388 155.792 100.988 155.792 101.812V106H154.748V101.884C154.748 100.852 154.268 100.336 153.308 100.336C152.596 100.336 152.104 100.536 151.832 100.936C151.56 101.336 151.424 101.912 151.424 102.664V106H150.368V99.568H151.22L151.376 100.444H151.436C151.644 100.108 151.932 99.86 152.3 99.7C152.668 99.532 153.056 99.448 153.464 99.448ZM159.934 105.256C160.094 105.256 160.258 105.244 160.426 105.22C160.594 105.196 160.73 105.164 160.834 105.124V105.928C160.722 105.984 160.562 106.028 160.354 106.06C160.146 106.1 159.946 106.12 159.754 106.12C159.418 106.12 159.106 106.064 158.818 105.952C158.538 105.832 158.31 105.628 158.134 105.34C157.958 105.052 157.87 104.648 157.87 104.128V100.384H156.958V99.88L157.882 99.46L158.302 98.092H158.926V99.568H160.786V100.384H158.926V104.104C158.926 104.496 159.018 104.788 159.202 104.98C159.394 105.164 159.638 105.256 159.934 105.256ZM162.662 97.156C162.822 97.156 162.962 97.212 163.082 97.324C163.21 97.428 163.274 97.596 163.274 97.828C163.274 98.06 163.21 98.232 163.082 98.344C162.962 98.448 162.822 98.5 162.662 98.5C162.486 98.5 162.338 98.448 162.218 98.344C162.098 98.232 162.038 98.06 162.038 97.828C162.038 97.596 162.098 97.428 162.218 97.324C162.338 97.212 162.486 97.156 162.662 97.156ZM163.178 99.568V106H162.122V99.568H163.178ZM170.807 102.772C170.807 103.836 170.535 104.66 169.991 105.244C169.455 105.828 168.727 106.12 167.807 106.12C167.239 106.12 166.731 105.992 166.283 105.736C165.843 105.472 165.495 105.092 165.239 104.596C164.983 104.092 164.855 103.484 164.855 102.772C164.855 101.708 165.119 100.888 165.647 100.312C166.183 99.736 166.915 99.448 167.843 99.448C168.419 99.448 168.931 99.58 169.379 99.844C169.827 100.1 170.175 100.476 170.423 100.972C170.679 101.46 170.807 102.06 170.807 102.772ZM165.947 102.772C165.947 103.532 166.095 104.136 166.391 104.584C166.695 105.024 167.175 105.244 167.831 105.244C168.479 105.244 168.955 105.024 169.259 104.584C169.563 104.136 169.715 103.532 169.715 102.772C169.715 102.012 169.563 101.416 169.259 100.984C168.955 100.552 168.475 100.336 167.819 100.336C167.163 100.336 166.687 100.552 166.391 100.984C166.095 101.416 165.947 102.012 165.947 102.772ZM175.577 99.448C176.345 99.448 176.925 99.636 177.317 100.012C177.709 100.388 177.905 100.988 177.905 101.812V106H176.861V101.884C176.861 100.852 176.381 100.336 175.421 100.336C174.709 100.336 174.217 100.536 173.945 100.936C173.673 101.336 173.537 101.912 173.537 102.664V106H172.481V99.568H173.333L173.489 100.444H173.549C173.757 100.108 174.045 99.86 174.413 99.7C174.781 99.532 175.169 99.448 175.577 99.448Z" fill="black"/>
<rect x="116.5" y="89.5" width="70" height="23" rx="3.5" stroke="#939393"/>
</svg>
