<svg width="412" height="200" viewBox="0 0 412 200" fill="none" xmlns="http://www.w3.org/2000/svg">
<rect width="412" height="200" fill="white"/>
<g clip-path="url(#clip0_6652_543091)">
<rect width="284" height="79" transform="translate(84.5 41)" fill="white"/>
<rect x="84.5" y="41" width="284" height="79" rx="4" fill="white"/>
<rect x="85" y="41.5" width="283" height="35" rx="1.5" fill="white"/>
<path d="M98.628 64L100.504 55.11H97.76L97.998 54.004H104.746L104.522 55.11H101.778L99.888 64H98.628ZM102.89 67.36C102.666 67.36 102.484 67.346 102.344 67.318C102.195 67.29 102.055 67.2573 101.924 67.22V66.226C102.055 66.2633 102.195 66.2913 102.344 66.31C102.494 66.338 102.652 66.352 102.82 66.352C103.194 66.352 103.516 66.2353 103.786 66.002C104.057 65.7687 104.314 65.428 104.556 64.98L105.046 64.112L103.912 56.496H105.144L105.634 60.206C105.681 60.514 105.714 60.8453 105.732 61.2C105.76 61.5547 105.779 61.8953 105.788 62.222C105.807 62.5393 105.816 62.796 105.816 62.992H105.858C105.924 62.8427 106.017 62.6187 106.138 62.32C106.269 62.0213 106.409 61.7133 106.558 61.396C106.708 61.0787 106.838 60.8173 106.95 60.612L109.134 56.496H110.45L105.69 65.26C105.308 65.96 104.911 66.4827 104.5 66.828C104.09 67.1827 103.553 67.36 102.89 67.36ZM109.467 67.36L111.763 56.496H112.771L112.603 57.896H112.659C112.986 57.4853 113.355 57.1307 113.765 56.832C114.176 56.524 114.643 56.37 115.165 56.37C115.772 56.37 116.262 56.5847 116.635 57.014C117.009 57.4433 117.195 58.0827 117.195 58.932C117.195 59.6227 117.111 60.2807 116.943 60.906C116.775 61.522 116.533 62.0773 116.215 62.572C115.898 63.0573 115.511 63.44 115.053 63.72C114.605 64 114.101 64.14 113.541 64.14C113.037 64.14 112.631 64.014 112.323 63.762C112.015 63.5007 111.782 63.1973 111.623 62.852H111.553C111.544 63.0013 111.521 63.2113 111.483 63.482C111.446 63.7433 111.409 63.958 111.371 64.126L110.685 67.36H109.467ZM113.443 63.118C113.817 63.118 114.157 63.0013 114.465 62.768C114.773 62.5253 115.035 62.2033 115.249 61.802C115.473 61.4007 115.641 60.948 115.753 60.444C115.875 59.94 115.935 59.4267 115.935 58.904C115.935 57.896 115.539 57.392 114.745 57.392C114.437 57.392 114.12 57.5087 113.793 57.742C113.476 57.966 113.182 58.274 112.911 58.666C112.641 59.058 112.421 59.506 112.253 60.01C112.095 60.514 112.015 61.046 112.015 61.606C112.015 62.054 112.132 62.418 112.365 62.698C112.599 62.978 112.958 63.118 113.443 63.118ZM121.271 64.14C120.403 64.14 119.731 63.888 119.255 63.384C118.788 62.8707 118.555 62.18 118.555 61.312C118.555 60.7147 118.639 60.1267 118.807 59.548C118.984 58.96 119.236 58.428 119.563 57.952C119.889 57.4667 120.281 57.0793 120.739 56.79C121.205 56.5007 121.728 56.356 122.307 56.356C123.016 56.356 123.548 56.51 123.903 56.818C124.267 57.126 124.449 57.5553 124.449 58.106C124.449 58.6007 124.295 59.0487 123.987 59.45C123.688 59.842 123.217 60.1593 122.573 60.402C121.929 60.6353 121.093 60.752 120.067 60.752H119.829C119.819 60.836 119.81 60.9247 119.801 61.018C119.801 61.1113 119.801 61.1953 119.801 61.27C119.801 61.8393 119.936 62.292 120.207 62.628C120.487 62.9547 120.916 63.118 121.495 63.118C121.849 63.118 122.185 63.0713 122.503 62.978C122.82 62.8753 123.165 62.7307 123.539 62.544V63.594C123.184 63.7527 122.834 63.8833 122.489 63.986C122.153 64.0887 121.747 64.14 121.271 64.14ZM120.011 59.758H120.109C120.669 59.758 121.187 59.7113 121.663 59.618C122.139 59.5153 122.521 59.352 122.811 59.128C123.1 58.8947 123.245 58.5867 123.245 58.204C123.245 57.9613 123.161 57.7653 122.993 57.616C122.834 57.4573 122.582 57.378 122.237 57.378C121.789 57.378 121.355 57.588 120.935 58.008C120.524 58.4187 120.216 59.002 120.011 59.758ZM130.676 64.14C130.219 64.14 129.817 64.0933 129.472 64C129.136 63.916 128.837 63.804 128.576 63.664V62.53C128.809 62.6793 129.113 62.8193 129.486 62.95C129.859 63.0713 130.242 63.132 130.634 63.132C131.185 63.132 131.605 63.0247 131.894 62.81C132.183 62.5953 132.328 62.3107 132.328 61.956C132.328 61.6853 132.239 61.4613 132.062 61.284C131.885 61.0973 131.553 60.8687 131.068 60.598C130.536 60.2993 130.135 59.9913 129.864 59.674C129.593 59.3567 129.458 58.96 129.458 58.484C129.458 57.8493 129.687 57.336 130.144 56.944C130.611 56.552 131.231 56.356 132.006 56.356C132.463 56.356 132.883 56.412 133.266 56.524C133.658 56.6267 133.994 56.7433 134.274 56.874L133.882 57.854C133.639 57.742 133.369 57.6393 133.07 57.546C132.771 57.4433 132.417 57.392 132.006 57.392C131.595 57.392 131.273 57.49 131.04 57.686C130.807 57.8727 130.69 58.1153 130.69 58.414C130.69 58.6567 130.769 58.8713 130.928 59.058C131.096 59.2353 131.427 59.4593 131.922 59.73C132.239 59.9167 132.524 60.1033 132.776 60.29C133.028 60.4767 133.224 60.696 133.364 60.948C133.513 61.1907 133.588 61.4847 133.588 61.83C133.588 62.586 133.322 63.16 132.79 63.552C132.267 63.944 131.563 64.14 130.676 64.14ZM138.021 64.112C137.153 64.112 136.467 63.8553 135.963 63.342C135.468 62.8193 135.221 62.1147 135.221 61.228C135.221 60.6493 135.3 60.0753 135.459 59.506C135.617 58.9367 135.851 58.4187 136.159 57.952C136.476 57.4853 136.868 57.112 137.335 56.832C137.811 56.5427 138.357 56.398 138.973 56.398C139.85 56.398 140.536 56.6593 141.031 57.182C141.525 57.6953 141.773 58.4 141.773 59.296C141.773 59.8653 141.693 60.4347 141.535 61.004C141.376 61.5733 141.138 62.0913 140.821 62.558C140.513 63.0247 140.125 63.4027 139.659 63.692C139.192 63.972 138.646 64.112 138.021 64.112ZM138.091 63.09C138.529 63.09 138.931 62.936 139.295 62.628C139.668 62.3107 139.962 61.858 140.177 61.27C140.401 60.682 140.513 59.9773 140.513 59.156C140.513 58.876 140.461 58.6053 140.359 58.344C140.265 58.0733 140.107 57.854 139.883 57.686C139.659 57.5087 139.36 57.42 138.987 57.42C138.473 57.42 138.025 57.5973 137.643 57.952C137.269 58.2973 136.98 58.764 136.775 59.352C136.569 59.9307 136.467 60.57 136.467 61.27C136.467 61.8487 136.607 62.2967 136.887 62.614C137.176 62.9313 137.577 63.09 138.091 63.09ZM142.83 64L144.426 56.496H145.434L145.28 57.882H145.35C145.518 57.6487 145.714 57.4153 145.938 57.182C146.171 56.9487 146.437 56.7527 146.736 56.594C147.034 56.4353 147.375 56.356 147.758 56.356C148.271 56.356 148.668 56.5053 148.948 56.804C149.228 57.1027 149.396 57.5087 149.452 58.022H149.507C149.694 57.7513 149.914 57.49 150.166 57.238C150.427 56.9767 150.716 56.7667 151.034 56.608C151.351 56.44 151.701 56.356 152.084 56.356C152.662 56.356 153.11 56.5147 153.428 56.832C153.745 57.1493 153.904 57.6067 153.904 58.204C153.904 58.428 153.89 58.638 153.862 58.834C153.834 59.03 153.796 59.2307 153.75 59.436L152.784 64H151.538L152.546 59.296C152.583 59.0907 152.611 58.9133 152.63 58.764C152.658 58.6053 152.672 58.456 152.672 58.316C152.672 58.036 152.592 57.812 152.434 57.644C152.284 57.476 152.046 57.392 151.72 57.392C151.412 57.392 151.09 57.504 150.754 57.728C150.418 57.952 150.1 58.302 149.802 58.778C149.512 59.254 149.288 59.8653 149.13 60.612L148.416 64H147.184L148.178 59.296C148.262 58.876 148.304 58.568 148.304 58.372C148.304 58.064 148.234 57.826 148.094 57.658C147.954 57.4807 147.72 57.392 147.394 57.392C147.095 57.392 146.773 57.504 146.428 57.728C146.082 57.9427 145.76 58.2973 145.462 58.792C145.163 59.2867 144.925 59.9447 144.748 60.766L144.062 64H142.83ZM158.076 64.14C157.208 64.14 156.536 63.888 156.06 63.384C155.593 62.8707 155.36 62.18 155.36 61.312C155.36 60.7147 155.444 60.1267 155.611 59.548C155.789 58.96 156.041 58.428 156.368 57.952C156.694 57.4667 157.086 57.0793 157.544 56.79C158.01 56.5007 158.533 56.356 159.112 56.356C159.821 56.356 160.353 56.51 160.708 56.818C161.072 57.126 161.254 57.5553 161.254 58.106C161.254 58.6007 161.1 59.0487 160.792 59.45C160.493 59.842 160.022 60.1593 159.378 60.402C158.734 60.6353 157.898 60.752 156.872 60.752H156.634C156.624 60.836 156.615 60.9247 156.606 61.018C156.606 61.1113 156.606 61.1953 156.606 61.27C156.606 61.8393 156.741 62.292 157.012 62.628C157.292 62.9547 157.721 63.118 158.3 63.118C158.654 63.118 158.99 63.0713 159.308 62.978C159.625 62.8753 159.97 62.7307 160.344 62.544V63.594C159.989 63.7527 159.639 63.8833 159.294 63.986C158.958 64.0887 158.552 64.14 158.076 64.14ZM156.816 59.758H156.914C157.474 59.758 157.992 59.7113 158.468 59.618C158.944 59.5153 159.326 59.352 159.616 59.128C159.905 58.8947 160.05 58.5867 160.05 58.204C160.05 57.9613 159.966 57.7653 159.798 57.616C159.639 57.4573 159.387 57.378 159.042 57.378C158.594 57.378 158.16 57.588 157.74 58.008C157.329 58.4187 157.021 59.002 156.816 59.758ZM164.264 64.14C163.76 64.14 163.335 64.0187 162.99 63.776C162.644 63.5333 162.472 63.1087 162.472 62.502C162.472 62.2033 162.514 61.872 162.598 61.508L163.452 57.434H162.29L162.402 56.874L163.662 56.342L164.53 54.788H165.258L164.88 56.496H166.77L166.574 57.434H164.698L163.83 61.522C163.802 61.6433 163.774 61.7833 163.746 61.942C163.718 62.0913 163.704 62.2313 163.704 62.362C163.704 62.5767 163.76 62.7587 163.872 62.908C163.993 63.0573 164.184 63.132 164.446 63.132C164.614 63.132 164.777 63.118 164.936 63.09C165.094 63.0527 165.262 63.006 165.44 62.95V63.888C165.328 63.944 165.155 64 164.922 64.056C164.688 64.112 164.469 64.14 164.264 64.14ZM166.714 64L168.968 53.36H170.2L169.598 56.118C169.542 56.398 169.472 56.692 169.388 57C169.304 57.2987 169.225 57.5973 169.15 57.896H169.22C169.398 57.6627 169.608 57.4293 169.85 57.196C170.093 56.9627 170.368 56.7667 170.676 56.608C170.994 56.4493 171.353 56.37 171.754 56.37C172.333 56.37 172.79 56.5333 173.126 56.86C173.472 57.1773 173.644 57.6533 173.644 58.288C173.644 58.4747 173.626 58.6613 173.588 58.848C173.56 59.0347 173.528 59.2307 173.49 59.436L172.51 64H171.278L172.272 59.296C172.356 58.876 172.398 58.568 172.398 58.372C172.398 58.064 172.319 57.826 172.16 57.658C172.011 57.4807 171.764 57.392 171.418 57.392C171.101 57.392 170.756 57.504 170.382 57.728C170.018 57.9427 169.678 58.2973 169.36 58.792C169.052 59.2867 168.81 59.9447 168.632 60.766L167.946 64H166.714ZM177.412 55.25C177.216 55.25 177.052 55.194 176.922 55.082C176.8 54.9607 176.74 54.7973 176.74 54.592C176.74 54.3493 176.81 54.1393 176.95 53.962C177.099 53.7847 177.304 53.696 177.566 53.696C177.995 53.696 178.21 53.906 178.21 54.326C178.21 54.6153 178.126 54.844 177.958 55.012C177.79 55.1707 177.608 55.25 177.412 55.25ZM174.822 64L176.418 56.496H177.65L176.054 64H174.822ZM178.375 64.042L179.985 56.454H181.077L180.923 57.84C181.1 57.616 181.31 57.3873 181.553 57.154C181.796 56.9113 182.071 56.7107 182.379 56.552C182.696 56.3933 183.06 56.314 183.471 56.314C184.068 56.314 184.54 56.482 184.885 56.818C185.23 57.1447 185.403 57.6067 185.403 58.204C185.403 58.4187 185.384 58.638 185.347 58.862C185.319 59.086 185.286 59.282 185.249 59.45L184.255 64.042H182.939L183.947 59.282C183.984 59.0673 184.017 58.89 184.045 58.75C184.073 58.6007 184.087 58.4607 184.087 58.33C184.087 57.7327 183.77 57.434 183.135 57.434C182.818 57.434 182.477 57.546 182.113 57.77C181.758 57.9847 181.422 58.3347 181.105 58.82C180.797 59.3053 180.559 59.9587 180.391 60.78L179.691 64.042H178.375ZM188.75 67.36C188.293 67.36 187.868 67.3133 187.476 67.22C187.094 67.136 186.767 67.024 186.496 66.884V65.75C186.739 65.8993 187.066 66.0347 187.476 66.156C187.896 66.2773 188.307 66.338 188.708 66.338C189.287 66.338 189.758 66.198 190.122 65.918C190.496 65.638 190.762 65.1713 190.92 64.518L191.046 63.986C191.084 63.79 191.13 63.5893 191.186 63.384C191.242 63.1693 191.289 62.9873 191.326 62.838C191.373 62.6887 191.396 62.614 191.396 62.614H191.34C191.014 63.0247 190.65 63.384 190.248 63.692C189.847 63.9907 189.385 64.14 188.862 64.14C188.256 64.14 187.761 63.9253 187.378 63.496C187.005 63.0573 186.818 62.418 186.818 61.578C186.818 60.8967 186.902 60.2433 187.07 59.618C187.238 58.9927 187.481 58.4373 187.798 57.952C188.125 57.4573 188.512 57.07 188.96 56.79C189.418 56.5007 189.931 56.356 190.5 56.356C191.004 56.356 191.406 56.4867 191.704 56.748C192.012 57.0093 192.246 57.3127 192.404 57.658H192.46L192.922 56.496H193.86L192.152 64.434C191.928 65.4887 191.527 66.24 190.948 66.688C190.379 67.136 189.646 67.36 188.75 67.36ZM189.268 63.118C189.586 63.118 189.903 63.0013 190.22 62.768C190.538 62.5347 190.827 62.222 191.088 61.83C191.359 61.4287 191.574 60.976 191.732 60.472C191.891 59.968 191.97 59.4453 191.97 58.904C191.97 58.456 191.863 58.092 191.648 57.812C191.443 57.532 191.093 57.392 190.598 57.392C190.225 57.392 189.884 57.5133 189.576 57.756C189.268 57.9893 189.002 58.3067 188.778 58.708C188.554 59.1093 188.382 59.562 188.26 60.066C188.139 60.57 188.078 61.0833 188.078 61.606C188.078 62.614 188.475 63.118 189.268 63.118ZM195.262 64.196C194.777 64.196 194.534 63.9533 194.534 63.468C194.534 63.16 194.618 62.8893 194.786 62.656C194.963 62.4227 195.239 62.306 195.612 62.306C195.817 62.306 195.981 62.3713 196.102 62.502C196.233 62.6233 196.298 62.8053 196.298 63.048C196.298 63.3373 196.214 63.6033 196.046 63.846C195.878 64.0793 195.617 64.196 195.262 64.196ZM198.844 64.196C198.359 64.196 198.116 63.9533 198.116 63.468C198.116 63.16 198.2 62.8893 198.368 62.656C198.545 62.4227 198.821 62.306 199.194 62.306C199.399 62.306 199.563 62.3713 199.684 62.502C199.815 62.6233 199.88 62.8053 199.88 63.048C199.88 63.3373 199.796 63.6033 199.628 63.846C199.46 64.0793 199.199 64.196 198.844 64.196ZM202.426 64.196C201.941 64.196 201.698 63.9533 201.698 63.468C201.698 63.16 201.782 62.8893 201.95 62.656C202.127 62.4227 202.403 62.306 202.776 62.306C202.981 62.306 203.145 62.3713 203.266 62.502C203.397 62.6233 203.462 62.8053 203.462 63.048C203.462 63.3373 203.378 63.6033 203.21 63.846C203.042 64.0793 202.781 64.196 202.426 64.196Z" fill="#757474"/>
<rect x="85" y="41.5" width="283" height="35" rx="1.5" stroke="#939393"/>
<path d="M110.925 103.025C110.7 102.8 110.325 102.8 110.1 103.025L102.9 110.225C101.85 111.275 100.425 111.875 98.925 111.875C97.425 111.875 96 111.275 94.95 110.225C93.9 109.175 93.375 107.75 93.375 106.325C93.375 104.825 93.975 103.4 95.025 102.35L103.2 94.175C104.55 92.825 106.8 92.825 108.225 94.175C108.9 94.85 109.275 95.75 109.275 96.65C109.275 97.55 108.9 98.45 108.225 99.125L99.975 107.375C99.45 107.9 98.4 107.9 97.875 107.375C97.275 106.775 97.275 105.875 97.875 105.275L105.15 98C105.375 97.775 105.375 97.4 105.15 97.175C104.925 96.95 104.55 96.95 104.325 97.175L97.125 104.375C96.075 105.425 96.075 107.075 97.125 108.05C98.1 109.025 99.825 109.025 100.8 108.05L108.975 99.875C109.875 98.975 110.325 97.85 110.325 96.575C110.325 95.3 109.875 94.25 108.975 93.35C107.175 91.55 104.175 91.55 102.375 93.35L94.2 101.525C92.925 102.8 92.25 104.525 92.25 106.325C92.25 108.125 92.925 109.775 94.2 111.05C95.475 112.325 97.125 113 98.925 113C100.725 113 102.375 112.325 103.65 111.05L110.85 103.85C111.15 103.55 111.15 103.25 110.925 103.025Z" fill="#1B77AF"/>
<path fill-rule="evenodd" clip-rule="evenodd" d="M132.563 106.07C132.753 105.823 133.108 105.776 133.355 105.967C134.218 106.631 135.521 107.054 136.925 107.054C138.328 107.054 139.631 106.631 140.495 105.967C140.742 105.776 141.096 105.823 141.286 106.07C141.476 106.317 141.43 106.671 141.183 106.861C140.089 107.703 138.532 108.183 136.925 108.183C135.317 108.183 133.76 107.703 132.667 106.861C132.419 106.671 132.373 106.317 132.563 106.07Z" fill="#1B77AF"/>
<path fill-rule="evenodd" clip-rule="evenodd" d="M134.065 97.3441C134.376 97.3441 134.629 97.5968 134.629 97.9086V100.995C134.629 101.306 134.376 101.559 134.065 101.559C133.753 101.559 133.5 101.306 133.5 100.995V97.9086C133.5 97.5968 133.753 97.3441 134.065 97.3441Z" fill="#1B77AF"/>
<path fill-rule="evenodd" clip-rule="evenodd" d="M139.935 97.3441C140.247 97.3441 140.5 97.5968 140.5 97.9086V100.995C140.5 101.306 140.247 101.559 139.935 101.559C139.624 101.559 139.371 101.306 139.371 100.995V97.9086C139.371 97.5968 139.624 97.3441 139.935 97.3441Z" fill="#1B77AF"/>
<path fill-rule="evenodd" clip-rule="evenodd" d="M137 93.129C131.825 93.129 127.629 97.3246 127.629 102.5C127.629 107.675 131.825 111.871 137 111.871C142.175 111.871 146.371 107.675 146.371 102.5C146.371 97.3246 142.175 93.129 137 93.129ZM126.5 102.5C126.5 96.701 131.201 92 137 92C142.799 92 147.5 96.701 147.5 102.5C147.5 108.299 142.799 113 137 113C131.201 113 126.5 108.299 126.5 102.5Z" fill="#1B77AF"/>
<path d="M361.131 92.3724C360.756 91.9974 360.231 91.9224 359.781 92.0724L341.931 97.9974C341.031 98.2974 340.431 99.1224 340.506 100.097C340.581 101.072 341.181 101.822 342.156 102.047L349.656 103.847L351.456 111.347C351.681 112.322 352.431 112.922 353.406 112.997H353.481C354.381 112.997 355.206 112.472 355.506 111.572L361.431 93.7974C361.581 93.2724 361.506 92.7474 361.131 92.3724ZM341.631 100.022C341.631 99.6474 341.781 99.1974 342.306 99.0474L359.331 93.3474L349.956 102.722L342.381 100.922C341.856 100.847 341.631 100.397 341.631 100.022ZM354.456 111.197C354.306 111.722 353.856 111.872 353.481 111.872C353.106 111.872 352.731 111.647 352.581 111.122L350.781 103.547L360.081 94.1724L354.456 111.197Z" fill="#ABD8F1"/>
</g>
<path d="M108.5 127H94.5L101.5 120L108.5 127Z" fill="#323232"/>
<rect x="43.5" y="127" width="116" height="32" rx="4" fill="#323232"/>
<path d="M62.04 148L61.008 145.348H57.612L56.592 148H55.5L58.848 139.396H59.82L63.156 148H62.04ZM60.684 144.388L59.724 141.796C59.7 141.732 59.66 141.616 59.604 141.448C59.548 141.28 59.492 141.108 59.436 140.932C59.388 140.748 59.348 140.608 59.316 140.512C59.252 140.76 59.184 141.004 59.112 141.244C59.048 141.476 58.992 141.66 58.944 141.796L57.972 144.388H60.684ZM66.4641 148.12C65.6641 148.12 65.0241 147.844 64.5441 147.292C64.0641 146.732 63.8241 145.9 63.8241 144.796C63.8241 143.692 64.0641 142.86 64.5441 142.3C65.0321 141.732 65.6761 141.448 66.4761 141.448C66.9721 141.448 67.3761 141.54 67.6881 141.724C68.0081 141.908 68.2681 142.132 68.4681 142.396H68.5401C68.5241 142.292 68.5081 142.14 68.4921 141.94C68.4761 141.732 68.4681 141.568 68.4681 141.448V138.88H69.5241V148H68.6721L68.5161 147.136H68.4681C68.2761 147.408 68.0201 147.64 67.7001 147.832C67.3801 148.024 66.9681 148.12 66.4641 148.12ZM66.6321 147.244C67.3121 147.244 67.7881 147.06 68.0601 146.692C68.3401 146.316 68.4801 145.752 68.4801 145V144.808C68.4801 144.008 68.3481 143.396 68.0841 142.972C67.8201 142.54 67.3321 142.324 66.6201 142.324C66.0521 142.324 65.6241 142.552 65.3361 143.008C65.0561 143.456 64.9161 144.06 64.9161 144.82C64.9161 145.588 65.0561 146.184 65.3361 146.608C65.6241 147.032 66.0561 147.244 66.6321 147.244ZM73.8469 148.12C73.0469 148.12 72.4069 147.844 71.9269 147.292C71.4469 146.732 71.2069 145.9 71.2069 144.796C71.2069 143.692 71.4469 142.86 71.9269 142.3C72.4149 141.732 73.0589 141.448 73.8589 141.448C74.3549 141.448 74.7589 141.54 75.0709 141.724C75.3909 141.908 75.6509 142.132 75.8509 142.396H75.9229C75.9069 142.292 75.8909 142.14 75.8749 141.94C75.8589 141.732 75.8509 141.568 75.8509 141.448V138.88H76.9069V148H76.0549L75.8989 147.136H75.8509C75.6589 147.408 75.4029 147.64 75.0829 147.832C74.7629 148.024 74.3509 148.12 73.8469 148.12ZM74.0149 147.244C74.6949 147.244 75.1709 147.06 75.4429 146.692C75.7229 146.316 75.8629 145.752 75.8629 145V144.808C75.8629 144.008 75.7309 143.396 75.4669 142.972C75.2029 142.54 74.7149 142.324 74.0029 142.324C73.4349 142.324 73.0069 142.552 72.7189 143.008C72.4389 143.456 72.2989 144.06 72.2989 144.82C72.2989 145.588 72.4389 146.184 72.7189 146.608C73.0069 147.032 73.4389 147.244 74.0149 147.244ZM87.5869 148L86.5549 145.348H83.1589L82.1389 148H81.0469L84.3949 139.396H85.3669L88.7029 148H87.5869ZM86.2309 144.388L85.2709 141.796C85.2469 141.732 85.2069 141.616 85.1509 141.448C85.0949 141.28 85.0389 141.108 84.9829 140.932C84.9349 140.748 84.8949 140.608 84.8629 140.512C84.7989 140.76 84.7309 141.004 84.6589 141.244C84.5949 141.476 84.5389 141.66 84.4909 141.796L83.5189 144.388H86.2309ZM91.8789 147.256C92.0389 147.256 92.2029 147.244 92.3709 147.22C92.5389 147.196 92.6749 147.164 92.7789 147.124V147.928C92.6669 147.984 92.5069 148.028 92.2989 148.06C92.0909 148.1 91.8909 148.12 91.6989 148.12C91.3629 148.12 91.0509 148.064 90.7629 147.952C90.4829 147.832 90.2549 147.628 90.0789 147.34C89.9029 147.052 89.8149 146.648 89.8149 146.128V142.384H88.9029V141.88L89.8269 141.46L90.2469 140.092H90.8709V141.568H92.7309V142.384H90.8709V146.104C90.8709 146.496 90.9629 146.788 91.1469 146.98C91.3389 147.164 91.5829 147.256 91.8789 147.256ZM96.2149 147.256C96.3749 147.256 96.5389 147.244 96.7069 147.22C96.8749 147.196 97.0109 147.164 97.1149 147.124V147.928C97.0029 147.984 96.8429 148.028 96.6349 148.06C96.4269 148.1 96.2269 148.12 96.0349 148.12C95.6989 148.12 95.3869 148.064 95.0989 147.952C94.8189 147.832 94.5909 147.628 94.4149 147.34C94.2389 147.052 94.1509 146.648 94.1509 146.128V142.384H93.2389V141.88L94.1629 141.46L94.5829 140.092H95.2069V141.568H97.0669V142.384H95.2069V146.104C95.2069 146.496 95.2989 146.788 95.4829 146.98C95.6749 147.164 95.9189 147.256 96.2149 147.256ZM100.839 141.46C101.623 141.46 102.203 141.632 102.579 141.976C102.955 142.32 103.143 142.868 103.143 143.62V148H102.375L102.171 147.088H102.123C101.843 147.44 101.547 147.7 101.235 147.868C100.923 148.036 100.499 148.12 99.9628 148.12C99.3788 148.12 98.8948 147.968 98.5108 147.664C98.1268 147.352 97.9348 146.868 97.9348 146.212C97.9348 145.572 98.1868 145.08 98.6908 144.736C99.1948 144.384 99.9708 144.192 101.019 144.16L102.111 144.124V143.74C102.111 143.204 101.995 142.832 101.763 142.624C101.531 142.416 101.203 142.312 100.779 142.312C100.443 142.312 100.123 142.364 99.8188 142.468C99.5148 142.564 99.2308 142.676 98.9668 142.804L98.6428 142.012C98.9228 141.86 99.2548 141.732 99.6388 141.628C100.023 141.516 100.423 141.46 100.839 141.46ZM102.099 144.856L101.151 144.892C100.351 144.924 99.7948 145.052 99.4828 145.276C99.1788 145.5 99.0268 145.816 99.0268 146.224C99.0268 146.584 99.1348 146.848 99.3508 147.016C99.5748 147.184 99.8588 147.268 100.203 147.268C100.739 147.268 101.187 147.12 101.547 146.824C101.915 146.52 102.099 146.056 102.099 145.432V144.856ZM107.709 148.12C107.133 148.12 106.625 148.004 106.185 147.772C105.745 147.54 105.397 147.18 105.141 146.692C104.893 146.204 104.769 145.58 104.769 144.82C104.769 144.028 104.897 143.384 105.153 142.888C105.417 142.392 105.777 142.028 106.233 141.796C106.689 141.564 107.205 141.448 107.781 141.448C108.101 141.448 108.413 141.484 108.717 141.556C109.029 141.62 109.281 141.7 109.473 141.796L109.149 142.672C108.957 142.6 108.733 142.532 108.477 142.468C108.221 142.404 107.981 142.372 107.757 142.372C106.493 142.372 105.861 143.184 105.861 144.808C105.861 145.584 106.013 146.18 106.317 146.596C106.629 147.004 107.089 147.208 107.697 147.208C108.041 147.208 108.349 147.172 108.621 147.1C108.893 147.028 109.141 146.94 109.365 146.836V147.772C109.149 147.884 108.909 147.968 108.645 148.024C108.389 148.088 108.077 148.12 107.709 148.12ZM111.951 138.88V141.556C111.951 141.876 111.931 142.176 111.891 142.456H111.963C112.171 142.128 112.451 141.88 112.803 141.712C113.163 141.544 113.551 141.46 113.967 141.46C114.743 141.46 115.327 141.648 115.719 142.024C116.119 142.392 116.319 142.988 116.319 143.812V148H115.275V143.884C115.275 142.852 114.795 142.336 113.835 142.336C113.115 142.336 112.619 142.54 112.347 142.948C112.083 143.348 111.951 143.924 111.951 144.676V148H110.895V138.88H111.951ZM125.369 141.448C126.097 141.448 126.641 141.636 127.001 142.012C127.361 142.388 127.541 142.988 127.541 143.812V148H126.497V143.86C126.497 142.844 126.061 142.336 125.189 142.336C124.565 142.336 124.117 142.516 123.845 142.876C123.581 143.236 123.449 143.76 123.449 144.448V148H122.405V143.86C122.405 142.844 121.965 142.336 121.085 142.336C120.437 142.336 119.989 142.536 119.741 142.936C119.493 143.336 119.369 143.912 119.369 144.664V148H118.313V141.568H119.165L119.321 142.444H119.381C119.581 142.108 119.849 141.86 120.185 141.7C120.529 141.532 120.893 141.448 121.277 141.448C122.285 141.448 122.941 141.808 123.245 142.528H123.305C123.521 142.16 123.813 141.888 124.181 141.712C124.549 141.536 124.945 141.448 125.369 141.448ZM132.012 141.448C132.556 141.448 133.028 141.568 133.428 141.808C133.828 142.048 134.132 142.388 134.34 142.828C134.556 143.26 134.664 143.768 134.664 144.352V144.988H130.26C130.276 145.716 130.46 146.272 130.812 146.656C131.172 147.032 131.672 147.22 132.312 147.22C132.72 147.22 133.08 147.184 133.392 147.112C133.712 147.032 134.04 146.92 134.376 146.776V147.7C134.048 147.844 133.724 147.948 133.404 148.012C133.084 148.084 132.704 148.12 132.264 148.12C131.648 148.12 131.108 147.996 130.644 147.748C130.18 147.5 129.816 147.132 129.552 146.644C129.296 146.156 129.168 145.552 129.168 144.832C129.168 144.128 129.284 143.524 129.516 143.02C129.756 142.516 130.088 142.128 130.512 141.856C130.944 141.584 131.444 141.448 132.012 141.448ZM132 142.312C131.496 142.312 131.096 142.476 130.8 142.804C130.512 143.124 130.34 143.572 130.284 144.148H133.56C133.552 143.604 133.424 143.164 133.176 142.828C132.928 142.484 132.536 142.312 132 142.312ZM139.397 141.448C140.165 141.448 140.745 141.636 141.137 142.012C141.529 142.388 141.725 142.988 141.725 143.812V148H140.681V143.884C140.681 142.852 140.201 142.336 139.241 142.336C138.529 142.336 138.037 142.536 137.765 142.936C137.493 143.336 137.357 143.912 137.357 144.664V148H136.301V141.568H137.153L137.309 142.444H137.369C137.577 142.108 137.865 141.86 138.233 141.7C138.601 141.532 138.989 141.448 139.397 141.448ZM145.867 147.256C146.027 147.256 146.191 147.244 146.359 147.22C146.527 147.196 146.663 147.164 146.767 147.124V147.928C146.655 147.984 146.495 148.028 146.287 148.06C146.079 148.1 145.879 148.12 145.687 148.12C145.351 148.12 145.039 148.064 144.751 147.952C144.471 147.832 144.243 147.628 144.067 147.34C143.891 147.052 143.803 146.648 143.803 146.128V142.384H142.891V141.88L143.815 141.46L144.235 140.092H144.859V141.568H146.719V142.384H144.859V146.104C144.859 146.496 144.951 146.788 145.135 146.98C145.327 147.164 145.571 147.256 145.867 147.256Z" fill="white"/>
<defs>
<clipPath id="clip0_6652_543091">
<rect width="284" height="79" fill="white" transform="translate(84.5 41)"/>
</clipPath>
</defs>
</svg>
