<svg width="412" height="200" viewBox="0 0 412 200" fill="none" xmlns="http://www.w3.org/2000/svg">
<rect width="412" height="200" fill="white"/>
<rect x="56" y="59" width="300" height="48" rx="4" fill="#323232"/>
<path d="M74.024 77.708C74.024 78.468 73.748 79.06 73.196 79.484C72.644 79.908 71.9 80.12 70.964 80.12C70.484 80.12 70.04 80.084 69.632 80.012C69.224 79.94 68.884 79.84 68.612 79.712V78.68C68.9 78.808 69.256 78.924 69.68 79.028C70.112 79.132 70.556 79.184 71.012 79.184C71.644 79.184 72.124 79.06 72.452 78.812C72.78 78.564 72.944 78.228 72.944 77.804C72.944 77.524 72.884 77.288 72.764 77.096C72.644 76.904 72.436 76.728 72.14 76.568C71.844 76.408 71.44 76.232 70.928 76.04C70.192 75.776 69.64 75.452 69.272 75.068C68.904 74.684 68.72 74.16 68.72 73.496C68.72 73.048 68.836 72.66 69.068 72.332C69.3 72.004 69.62 71.752 70.028 71.576C70.436 71.4 70.912 71.312 71.456 71.312C71.92 71.312 72.348 71.356 72.74 71.444C73.132 71.532 73.492 71.648 73.82 71.792L73.484 72.716C73.188 72.588 72.864 72.48 72.512 72.392C72.16 72.304 71.8 72.26 71.432 72.26C70.896 72.26 70.492 72.376 70.22 72.608C69.948 72.832 69.812 73.132 69.812 73.508C69.812 73.796 69.872 74.036 69.992 74.228C70.112 74.42 70.308 74.596 70.58 74.756C70.852 74.908 71.22 75.068 71.684 75.236C72.188 75.42 72.612 75.62 72.956 75.836C73.308 76.044 73.572 76.296 73.748 76.592C73.932 76.888 74.024 77.26 74.024 77.708ZM78.0419 73.46C78.8259 73.46 79.4059 73.632 79.7819 73.976C80.1579 74.32 80.3459 74.868 80.3459 75.62V80H79.5779L79.3739 79.088H79.3259C79.0459 79.44 78.7499 79.7 78.4379 79.868C78.1259 80.036 77.7019 80.12 77.1659 80.12C76.5819 80.12 76.0979 79.968 75.7139 79.664C75.3299 79.352 75.1379 78.868 75.1379 78.212C75.1379 77.572 75.3899 77.08 75.8939 76.736C76.3979 76.384 77.1739 76.192 78.2219 76.16L79.3139 76.124V75.74C79.3139 75.204 79.1979 74.832 78.9659 74.624C78.7339 74.416 78.4059 74.312 77.9819 74.312C77.6459 74.312 77.3259 74.364 77.0219 74.468C76.7179 74.564 76.4339 74.676 76.1699 74.804L75.8459 74.012C76.1259 73.86 76.4579 73.732 76.8419 73.628C77.2259 73.516 77.6259 73.46 78.0419 73.46ZM79.3019 76.856L78.3539 76.892C77.5539 76.924 76.9979 77.052 76.6859 77.276C76.3819 77.5 76.2299 77.816 76.2299 78.224C76.2299 78.584 76.3379 78.848 76.5539 79.016C76.7779 79.184 77.0619 79.268 77.4059 79.268C77.9419 79.268 78.3899 79.12 78.7499 78.824C79.1179 78.52 79.3019 78.056 79.3019 77.432V76.856ZM83.3885 80H82.3325V70.88H83.3885V80ZM87.9103 73.448C88.4543 73.448 88.9263 73.568 89.3263 73.808C89.7263 74.048 90.0303 74.388 90.2383 74.828C90.4543 75.26 90.5623 75.768 90.5623 76.352V76.988H86.1583C86.1743 77.716 86.3583 78.272 86.7103 78.656C87.0703 79.032 87.5703 79.22 88.2103 79.22C88.6183 79.22 88.9783 79.184 89.2903 79.112C89.6103 79.032 89.9383 78.92 90.2743 78.776V79.7C89.9463 79.844 89.6223 79.948 89.3023 80.012C88.9823 80.084 88.6023 80.12 88.1623 80.12C87.5463 80.12 87.0063 79.996 86.5423 79.748C86.0783 79.5 85.7143 79.132 85.4503 78.644C85.1943 78.156 85.0663 77.552 85.0663 76.832C85.0663 76.128 85.1823 75.524 85.4143 75.02C85.6543 74.516 85.9863 74.128 86.4103 73.856C86.8423 73.584 87.3423 73.448 87.9103 73.448ZM87.8983 74.312C87.3943 74.312 86.9943 74.476 86.6983 74.804C86.4103 75.124 86.2383 75.572 86.1823 76.148H89.4583C89.4503 75.604 89.3223 75.164 89.0743 74.828C88.8263 74.484 88.4343 74.312 87.8983 74.312ZM96.3877 78.224C96.3877 78.848 96.1557 79.32 95.6917 79.64C95.2277 79.96 94.6037 80.12 93.8197 80.12C93.3717 80.12 92.9837 80.084 92.6557 80.012C92.3357 79.94 92.0517 79.84 91.8037 79.712V78.752C92.0597 78.88 92.3677 79 92.7277 79.112C93.0957 79.216 93.4677 79.268 93.8437 79.268C94.3797 79.268 94.7677 79.184 95.0077 79.016C95.2477 78.84 95.3677 78.608 95.3677 78.32C95.3677 78.16 95.3237 78.016 95.2357 77.888C95.1477 77.76 94.9877 77.632 94.7557 77.504C94.5317 77.376 94.2077 77.232 93.7837 77.072C93.3677 76.912 93.0117 76.752 92.7157 76.592C92.4197 76.432 92.1917 76.24 92.0317 76.016C91.8717 75.792 91.7917 75.504 91.7917 75.152C91.7917 74.608 92.0117 74.188 92.4517 73.892C92.8997 73.596 93.4837 73.448 94.2037 73.448C94.5957 73.448 94.9597 73.488 95.2957 73.568C95.6397 73.648 95.9597 73.752 96.2557 73.88L95.8957 74.72C95.6237 74.608 95.3397 74.512 95.0437 74.432C94.7477 74.352 94.4437 74.312 94.1317 74.312C93.6997 74.312 93.3677 74.384 93.1357 74.528C92.9117 74.664 92.7997 74.852 92.7997 75.092C92.7997 75.276 92.8517 75.428 92.9557 75.548C93.0597 75.668 93.2317 75.788 93.4717 75.908C93.7197 76.028 94.0477 76.164 94.4557 76.316C94.8637 76.468 95.2117 76.624 95.4997 76.784C95.7877 76.944 96.0077 77.14 96.1597 77.372C96.3117 77.596 96.3877 77.88 96.3877 78.224ZM99.1419 78.608L99.2259 78.74C99.1139 79.164 98.9619 79.628 98.7699 80.132C98.5779 80.644 98.3859 81.116 98.1939 81.548H97.4139C97.5259 81.092 97.6379 80.592 97.7499 80.048C97.8699 79.504 97.9579 79.024 98.0139 78.608H99.1419ZM106.778 71.432C107.842 71.432 108.626 71.636 109.13 72.044C109.642 72.444 109.898 73.052 109.898 73.868C109.898 74.324 109.814 74.704 109.646 75.008C109.478 75.312 109.262 75.556 108.998 75.74C108.742 75.924 108.47 76.064 108.182 76.16L110.534 80H109.274L107.198 76.46H105.494V80H104.414V71.432H106.778ZM106.718 72.368H105.494V75.548H106.778C107.474 75.548 107.982 75.412 108.302 75.14C108.622 74.86 108.782 74.452 108.782 73.916C108.782 73.356 108.614 72.96 108.278 72.728C107.942 72.488 107.422 72.368 106.718 72.368ZM114.219 73.448C114.763 73.448 115.235 73.568 115.635 73.808C116.035 74.048 116.339 74.388 116.547 74.828C116.763 75.26 116.871 75.768 116.871 76.352V76.988H112.467C112.483 77.716 112.667 78.272 113.019 78.656C113.379 79.032 113.879 79.22 114.519 79.22C114.927 79.22 115.287 79.184 115.599 79.112C115.919 79.032 116.247 78.92 116.583 78.776V79.7C116.255 79.844 115.931 79.948 115.611 80.012C115.291 80.084 114.911 80.12 114.471 80.12C113.855 80.12 113.315 79.996 112.851 79.748C112.387 79.5 112.023 79.132 111.759 78.644C111.503 78.156 111.375 77.552 111.375 76.832C111.375 76.128 111.491 75.524 111.723 75.02C111.963 74.516 112.295 74.128 112.719 73.856C113.151 73.584 113.651 73.448 114.219 73.448ZM114.207 74.312C113.703 74.312 113.303 74.476 113.007 74.804C112.719 75.124 112.547 75.572 112.491 76.148H115.767C115.759 75.604 115.631 75.164 115.383 74.828C115.135 74.484 114.743 74.312 114.207 74.312ZM120.656 79.256C120.816 79.256 120.98 79.244 121.148 79.22C121.316 79.196 121.452 79.164 121.556 79.124V79.928C121.444 79.984 121.284 80.028 121.076 80.06C120.868 80.1 120.668 80.12 120.476 80.12C120.14 80.12 119.828 80.064 119.54 79.952C119.26 79.832 119.032 79.628 118.856 79.34C118.68 79.052 118.592 78.648 118.592 78.128V74.384H117.68V73.88L118.604 73.46L119.024 72.092H119.648V73.568H121.508V74.384H119.648V78.104C119.648 78.496 119.74 78.788 119.924 78.98C120.116 79.164 120.36 79.256 120.656 79.256ZM125.328 73.448C125.872 73.448 126.344 73.568 126.744 73.808C127.144 74.048 127.448 74.388 127.656 74.828C127.872 75.26 127.98 75.768 127.98 76.352V76.988H123.576C123.592 77.716 123.776 78.272 124.128 78.656C124.488 79.032 124.988 79.22 125.628 79.22C126.036 79.22 126.396 79.184 126.708 79.112C127.028 79.032 127.356 78.92 127.692 78.776V79.7C127.364 79.844 127.04 79.948 126.72 80.012C126.4 80.084 126.02 80.12 125.58 80.12C124.964 80.12 124.424 79.996 123.96 79.748C123.496 79.5 123.132 79.132 122.868 78.644C122.612 78.156 122.484 77.552 122.484 76.832C122.484 76.128 122.6 75.524 122.832 75.02C123.072 74.516 123.404 74.128 123.828 73.856C124.26 73.584 124.76 73.448 125.328 73.448ZM125.316 74.312C124.812 74.312 124.412 74.476 124.116 74.804C123.828 75.124 123.656 75.572 123.6 76.148H126.876C126.868 75.604 126.74 75.164 126.492 74.828C126.244 74.484 125.852 74.312 125.316 74.312ZM132.714 73.448C133.482 73.448 134.062 73.636 134.454 74.012C134.846 74.388 135.042 74.988 135.042 75.812V80H133.998V75.884C133.998 74.852 133.518 74.336 132.558 74.336C131.846 74.336 131.354 74.536 131.082 74.936C130.81 75.336 130.674 75.912 130.674 76.664V80H129.618V73.568H130.47L130.626 74.444H130.686C130.894 74.108 131.182 73.86 131.55 73.7C131.918 73.532 132.306 73.448 132.714 73.448ZM139.184 79.256C139.344 79.256 139.508 79.244 139.676 79.22C139.844 79.196 139.98 79.164 140.084 79.124V79.928C139.972 79.984 139.812 80.028 139.604 80.06C139.396 80.1 139.196 80.12 139.004 80.12C138.668 80.12 138.356 80.064 138.068 79.952C137.788 79.832 137.56 79.628 137.384 79.34C137.208 79.052 137.12 78.648 137.12 78.128V74.384H136.208V73.88L137.132 73.46L137.552 72.092H138.176V73.568H140.036V74.384H138.176V78.104C138.176 78.496 138.268 78.788 138.452 78.98C138.644 79.164 138.888 79.256 139.184 79.256ZM141.912 71.156C142.072 71.156 142.212 71.212 142.332 71.324C142.46 71.428 142.524 71.596 142.524 71.828C142.524 72.06 142.46 72.232 142.332 72.344C142.212 72.448 142.072 72.5 141.912 72.5C141.736 72.5 141.588 72.448 141.468 72.344C141.348 72.232 141.288 72.06 141.288 71.828C141.288 71.596 141.348 71.428 141.468 71.324C141.588 71.212 141.736 71.156 141.912 71.156ZM142.428 73.568V80H141.372V73.568H142.428ZM150.057 76.772C150.057 77.836 149.785 78.66 149.241 79.244C148.705 79.828 147.977 80.12 147.057 80.12C146.489 80.12 145.981 79.992 145.533 79.736C145.093 79.472 144.745 79.092 144.489 78.596C144.233 78.092 144.105 77.484 144.105 76.772C144.105 75.708 144.369 74.888 144.897 74.312C145.433 73.736 146.165 73.448 147.093 73.448C147.669 73.448 148.181 73.58 148.629 73.844C149.077 74.1 149.425 74.476 149.673 74.972C149.929 75.46 150.057 76.06 150.057 76.772ZM145.197 76.772C145.197 77.532 145.345 78.136 145.641 78.584C145.945 79.024 146.425 79.244 147.081 79.244C147.729 79.244 148.205 79.024 148.509 78.584C148.813 78.136 148.965 77.532 148.965 76.772C148.965 76.012 148.813 75.416 148.509 74.984C148.205 74.552 147.725 74.336 147.069 74.336C146.413 74.336 145.937 74.552 145.641 74.984C145.345 75.416 145.197 76.012 145.197 76.772ZM154.827 73.448C155.595 73.448 156.175 73.636 156.567 74.012C156.959 74.388 157.155 74.988 157.155 75.812V80H156.111V75.884C156.111 74.852 155.631 74.336 154.671 74.336C153.959 74.336 153.467 74.536 153.195 74.936C152.923 75.336 152.787 75.912 152.787 76.664V80H151.731V73.568H152.583L152.739 74.444H152.799C153.007 74.108 153.295 73.86 153.663 73.7C154.031 73.532 154.419 73.448 154.827 73.448ZM160.349 78.608L160.433 78.74C160.321 79.164 160.169 79.628 159.977 80.132C159.785 80.644 159.593 81.116 159.401 81.548H158.621C158.733 81.092 158.845 80.592 158.957 80.048C159.077 79.504 159.165 79.024 159.221 78.608H160.349ZM168.333 80H167.253V72.38H164.577V71.432H170.997V72.38H168.333V80ZM173.785 73.448C174.329 73.448 174.801 73.568 175.201 73.808C175.601 74.048 175.905 74.388 176.113 74.828C176.329 75.26 176.437 75.768 176.437 76.352V76.988H172.033C172.049 77.716 172.233 78.272 172.585 78.656C172.945 79.032 173.445 79.22 174.085 79.22C174.493 79.22 174.853 79.184 175.165 79.112C175.485 79.032 175.813 78.92 176.149 78.776V79.7C175.821 79.844 175.497 79.948 175.177 80.012C174.857 80.084 174.477 80.12 174.037 80.12C173.421 80.12 172.881 79.996 172.417 79.748C171.953 79.5 171.589 79.132 171.325 78.644C171.069 78.156 170.941 77.552 170.941 76.832C170.941 76.128 171.057 75.524 171.289 75.02C171.529 74.516 171.861 74.128 172.285 73.856C172.717 73.584 173.217 73.448 173.785 73.448ZM173.773 74.312C173.269 74.312 172.869 74.476 172.573 74.804C172.285 75.124 172.113 75.572 172.057 76.148H175.333C175.325 75.604 175.197 75.164 174.949 74.828C174.701 74.484 174.309 74.312 173.773 74.312ZM180.655 80.12C180.079 80.12 179.571 80.004 179.131 79.772C178.691 79.54 178.343 79.18 178.087 78.692C177.839 78.204 177.715 77.58 177.715 76.82C177.715 76.028 177.843 75.384 178.099 74.888C178.363 74.392 178.723 74.028 179.179 73.796C179.635 73.564 180.151 73.448 180.727 73.448C181.047 73.448 181.359 73.484 181.663 73.556C181.975 73.62 182.227 73.7 182.419 73.796L182.095 74.672C181.903 74.6 181.679 74.532 181.423 74.468C181.167 74.404 180.927 74.372 180.703 74.372C179.439 74.372 178.807 75.184 178.807 76.808C178.807 77.584 178.959 78.18 179.263 78.596C179.575 79.004 180.035 79.208 180.643 79.208C180.987 79.208 181.295 79.172 181.567 79.1C181.839 79.028 182.087 78.94 182.311 78.836V79.772C182.095 79.884 181.855 79.968 181.591 80.024C181.335 80.088 181.023 80.12 180.655 80.12ZM184.896 70.88V73.556C184.896 73.876 184.876 74.176 184.836 74.456H184.908C185.116 74.128 185.396 73.88 185.748 73.712C186.108 73.544 186.496 73.46 186.912 73.46C187.688 73.46 188.272 73.648 188.664 74.024C189.064 74.392 189.264 74.988 189.264 75.812V80H188.22V75.884C188.22 74.852 187.74 74.336 186.78 74.336C186.06 74.336 185.564 74.54 185.292 74.948C185.028 75.348 184.896 75.924 184.896 76.676V80H183.84V70.88H184.896ZM194.354 73.448C195.122 73.448 195.702 73.636 196.094 74.012C196.486 74.388 196.682 74.988 196.682 75.812V80H195.638V75.884C195.638 74.852 195.158 74.336 194.198 74.336C193.486 74.336 192.994 74.536 192.722 74.936C192.45 75.336 192.314 75.912 192.314 76.664V80H191.258V73.568H192.11L192.266 74.444H192.326C192.534 74.108 192.822 73.86 193.19 73.7C193.558 73.532 193.946 73.448 194.354 73.448ZM199.216 71.156C199.376 71.156 199.516 71.212 199.636 71.324C199.764 71.428 199.828 71.596 199.828 71.828C199.828 72.06 199.764 72.232 199.636 72.344C199.516 72.448 199.376 72.5 199.216 72.5C199.04 72.5 198.892 72.448 198.772 72.344C198.652 72.232 198.592 72.06 198.592 71.828C198.592 71.596 198.652 71.428 198.772 71.324C198.892 71.212 199.04 71.156 199.216 71.156ZM199.732 73.568V80H198.676V73.568H199.732ZM204.35 80.12C203.774 80.12 203.266 80.004 202.826 79.772C202.386 79.54 202.038 79.18 201.782 78.692C201.534 78.204 201.41 77.58 201.41 76.82C201.41 76.028 201.538 75.384 201.794 74.888C202.058 74.392 202.418 74.028 202.874 73.796C203.33 73.564 203.846 73.448 204.422 73.448C204.742 73.448 205.054 73.484 205.358 73.556C205.67 73.62 205.922 73.7 206.114 73.796L205.79 74.672C205.598 74.6 205.374 74.532 205.118 74.468C204.862 74.404 204.622 74.372 204.398 74.372C203.134 74.372 202.502 75.184 202.502 76.808C202.502 77.584 202.654 78.18 202.958 78.596C203.27 79.004 203.73 79.208 204.338 79.208C204.682 79.208 204.99 79.172 205.262 79.1C205.534 79.028 205.782 78.94 206.006 78.836V79.772C205.79 79.884 205.55 79.968 205.286 80.024C205.03 80.088 204.718 80.12 204.35 80.12ZM209.972 73.46C210.756 73.46 211.336 73.632 211.712 73.976C212.088 74.32 212.276 74.868 212.276 75.62V80H211.508L211.304 79.088H211.256C210.976 79.44 210.68 79.7 210.368 79.868C210.056 80.036 209.632 80.12 209.096 80.12C208.512 80.12 208.028 79.968 207.644 79.664C207.26 79.352 207.068 78.868 207.068 78.212C207.068 77.572 207.32 77.08 207.824 76.736C208.328 76.384 209.104 76.192 210.152 76.16L211.244 76.124V75.74C211.244 75.204 211.128 74.832 210.896 74.624C210.664 74.416 210.336 74.312 209.912 74.312C209.576 74.312 209.256 74.364 208.952 74.468C208.648 74.564 208.364 74.676 208.1 74.804L207.776 74.012C208.056 73.86 208.388 73.732 208.772 73.628C209.156 73.516 209.556 73.46 209.972 73.46ZM211.232 76.856L210.284 76.892C209.484 76.924 208.928 77.052 208.616 77.276C208.312 77.5 208.16 77.816 208.16 78.224C208.16 78.584 208.268 78.848 208.484 79.016C208.708 79.184 208.992 79.268 209.336 79.268C209.872 79.268 210.32 79.12 210.68 78.824C211.048 78.52 211.232 78.056 211.232 77.432V76.856ZM215.318 80H214.262V70.88H215.318V80ZM225.477 77.708C225.477 78.468 225.201 79.06 224.649 79.484C224.097 79.908 223.353 80.12 222.417 80.12C221.937 80.12 221.493 80.084 221.085 80.012C220.677 79.94 220.337 79.84 220.065 79.712V78.68C220.353 78.808 220.709 78.924 221.133 79.028C221.565 79.132 222.009 79.184 222.465 79.184C223.097 79.184 223.577 79.06 223.905 78.812C224.233 78.564 224.397 78.228 224.397 77.804C224.397 77.524 224.337 77.288 224.217 77.096C224.097 76.904 223.889 76.728 223.593 76.568C223.297 76.408 222.893 76.232 222.381 76.04C221.645 75.776 221.093 75.452 220.725 75.068C220.357 74.684 220.173 74.16 220.173 73.496C220.173 73.048 220.289 72.66 220.521 72.332C220.753 72.004 221.073 71.752 221.481 71.576C221.889 71.4 222.365 71.312 222.909 71.312C223.373 71.312 223.801 71.356 224.193 71.444C224.585 71.532 224.945 71.648 225.273 71.792L224.937 72.716C224.641 72.588 224.317 72.48 223.965 72.392C223.613 72.304 223.253 72.26 222.885 72.26C222.349 72.26 221.945 72.376 221.673 72.608C221.401 72.832 221.265 73.132 221.265 73.508C221.265 73.796 221.325 74.036 221.445 74.228C221.565 74.42 221.761 74.596 222.033 74.756C222.305 74.908 222.673 75.068 223.137 75.236C223.641 75.42 224.065 75.62 224.409 75.836C224.761 76.044 225.025 76.296 225.201 76.592C225.385 76.888 225.477 77.26 225.477 77.708ZM232.435 73.568V80H231.571L231.415 79.148H231.367C231.159 79.484 230.871 79.732 230.503 79.892C230.135 80.044 229.743 80.12 229.327 80.12C228.551 80.12 227.967 79.936 227.575 79.568C227.183 79.192 226.987 78.596 226.987 77.78V73.568H228.055V77.708C228.055 78.732 228.531 79.244 229.483 79.244C230.195 79.244 230.687 79.044 230.959 78.644C231.239 78.244 231.379 77.668 231.379 76.916V73.568H232.435ZM237.537 73.448C238.329 73.448 238.965 73.724 239.445 74.276C239.933 74.828 240.177 75.66 240.177 76.772C240.177 77.868 239.933 78.7 239.445 79.268C238.965 79.836 238.325 80.12 237.525 80.12C237.029 80.12 236.617 80.028 236.289 79.844C235.969 79.66 235.717 79.44 235.533 79.184H235.461C235.469 79.32 235.481 79.492 235.497 79.7C235.521 79.908 235.533 80.088 235.533 80.24V82.88H234.477V73.568H235.341L235.485 74.444H235.533C235.725 74.164 235.977 73.928 236.289 73.736C236.601 73.544 237.017 73.448 237.537 73.448ZM237.345 74.336C236.689 74.336 236.225 74.52 235.953 74.888C235.681 75.256 235.541 75.816 235.533 76.568V76.772C235.533 77.564 235.661 78.176 235.917 78.608C236.181 79.032 236.665 79.244 237.369 79.244C237.753 79.244 238.073 79.14 238.329 78.932C238.585 78.716 238.773 78.42 238.893 78.044C239.021 77.668 239.085 77.24 239.085 76.76C239.085 76.024 238.941 75.436 238.653 74.996C238.373 74.556 237.937 74.336 237.345 74.336ZM244.92 73.448C245.712 73.448 246.348 73.724 246.828 74.276C247.316 74.828 247.56 75.66 247.56 76.772C247.56 77.868 247.316 78.7 246.828 79.268C246.348 79.836 245.708 80.12 244.908 80.12C244.412 80.12 244 80.028 243.672 79.844C243.352 79.66 243.1 79.44 242.916 79.184H242.844C242.852 79.32 242.864 79.492 242.88 79.7C242.904 79.908 242.916 80.088 242.916 80.24V82.88H241.86V73.568H242.724L242.868 74.444H242.916C243.108 74.164 243.36 73.928 243.672 73.736C243.984 73.544 244.4 73.448 244.92 73.448ZM244.728 74.336C244.072 74.336 243.608 74.52 243.336 74.888C243.064 75.256 242.924 75.816 242.916 76.568V76.772C242.916 77.564 243.044 78.176 243.3 78.608C243.564 79.032 244.048 79.244 244.752 79.244C245.136 79.244 245.456 79.14 245.712 78.932C245.968 78.716 246.156 78.42 246.276 78.044C246.404 77.668 246.468 77.24 246.468 76.76C246.468 76.024 246.324 75.436 246.036 74.996C245.756 74.556 245.32 74.336 244.728 74.336ZM254.835 76.772C254.835 77.836 254.563 78.66 254.019 79.244C253.483 79.828 252.755 80.12 251.835 80.12C251.267 80.12 250.759 79.992 250.311 79.736C249.871 79.472 249.523 79.092 249.267 78.596C249.011 78.092 248.883 77.484 248.883 76.772C248.883 75.708 249.147 74.888 249.675 74.312C250.211 73.736 250.943 73.448 251.871 73.448C252.447 73.448 252.959 73.58 253.407 73.844C253.855 74.1 254.203 74.476 254.451 74.972C254.707 75.46 254.835 76.06 254.835 76.772ZM249.975 76.772C249.975 77.532 250.123 78.136 250.419 78.584C250.723 79.024 251.203 79.244 251.859 79.244C252.507 79.244 252.983 79.024 253.287 78.584C253.591 78.136 253.743 77.532 253.743 76.772C253.743 76.012 253.591 75.416 253.287 74.984C252.983 74.552 252.503 74.336 251.847 74.336C251.191 74.336 250.715 74.552 250.419 74.984C250.123 75.416 249.975 76.012 249.975 76.772ZM259.508 73.448C259.628 73.448 259.756 73.456 259.892 73.472C260.028 73.48 260.152 73.496 260.264 73.52L260.132 74.492C260.028 74.468 259.912 74.448 259.784 74.432C259.656 74.416 259.54 74.408 259.436 74.408C259.108 74.408 258.8 74.5 258.512 74.684C258.224 74.86 257.992 75.112 257.816 75.44C257.648 75.76 257.564 76.136 257.564 76.568V80H256.508V73.568H257.372L257.492 74.744H257.54C257.74 74.392 258.004 74.088 258.332 73.832C258.668 73.576 259.06 73.448 259.508 73.448ZM263.613 79.256C263.773 79.256 263.937 79.244 264.105 79.22C264.273 79.196 264.409 79.164 264.513 79.124V79.928C264.401 79.984 264.241 80.028 264.033 80.06C263.825 80.1 263.625 80.12 263.433 80.12C263.097 80.12 262.785 80.064 262.497 79.952C262.217 79.832 261.989 79.628 261.813 79.34C261.637 79.052 261.549 78.648 261.549 78.128V74.384H260.637V73.88L261.561 73.46L261.981 72.092H262.605V73.568H264.465V74.384H262.605V78.104C262.605 78.496 262.697 78.788 262.881 78.98C263.073 79.164 263.317 79.256 263.613 79.256ZM267.001 78.608L267.085 78.74C266.973 79.164 266.821 79.628 266.629 80.132C266.437 80.644 266.245 81.116 266.053 81.548H265.273C265.385 81.092 265.497 80.592 265.609 80.048C265.729 79.504 265.817 79.024 265.873 78.608H267.001ZM277.649 80L276.617 77.348H273.221L272.201 80H271.109L274.457 71.396H275.429L278.765 80H277.649ZM276.293 76.388L275.333 73.796C275.309 73.732 275.269 73.616 275.213 73.448C275.157 73.28 275.101 73.108 275.045 72.932C274.997 72.748 274.957 72.608 274.925 72.512C274.861 72.76 274.793 73.004 274.721 73.244C274.657 73.476 274.601 73.66 274.553 73.796L273.581 76.388H276.293ZM280.849 80H279.793V70.88H280.849V80ZM283.943 80H282.887V70.88H283.943V80ZM287.181 78.608L287.265 78.74C287.153 79.164 287.001 79.628 286.809 80.132C286.617 80.644 286.425 81.116 286.233 81.548H285.453C285.565 81.092 285.677 80.592 285.789 80.048C285.909 79.504 285.997 79.024 286.053 78.608H287.181ZM294.721 71.432C295.841 71.432 296.657 71.652 297.169 72.092C297.681 72.532 297.937 73.152 297.937 73.952C297.937 74.424 297.829 74.868 297.613 75.284C297.405 75.692 297.049 76.024 296.545 76.28C296.049 76.536 295.373 76.664 294.517 76.664H293.533V80H292.453V71.432H294.721ZM294.625 72.356H293.533V75.74H294.397C295.213 75.74 295.821 75.608 296.221 75.344C296.621 75.08 296.821 74.632 296.821 74C296.821 73.448 296.641 73.036 296.281 72.764C295.929 72.492 295.377 72.356 294.625 72.356ZM302.011 73.46C302.795 73.46 303.375 73.632 303.751 73.976C304.127 74.32 304.315 74.868 304.315 75.62V80H303.547L303.343 79.088H303.295C303.015 79.44 302.719 79.7 302.407 79.868C302.095 80.036 301.671 80.12 301.135 80.12C300.551 80.12 300.067 79.968 299.683 79.664C299.299 79.352 299.107 78.868 299.107 78.212C299.107 77.572 299.359 77.08 299.863 76.736C300.367 76.384 301.143 76.192 302.191 76.16L303.283 76.124V75.74C303.283 75.204 303.167 74.832 302.935 74.624C302.703 74.416 302.375 74.312 301.951 74.312C301.615 74.312 301.295 74.364 300.991 74.468C300.687 74.564 300.403 74.676 300.139 74.804L299.815 74.012C300.095 73.86 300.427 73.732 300.811 73.628C301.195 73.516 301.595 73.46 302.011 73.46ZM303.271 76.856L302.323 76.892C301.523 76.924 300.967 77.052 300.655 77.276C300.351 77.5 300.199 77.816 300.199 78.224C300.199 78.584 300.307 78.848 300.523 79.016C300.747 79.184 301.031 79.268 301.375 79.268C301.911 79.268 302.359 79.12 302.719 78.824C303.087 78.52 303.271 78.056 303.271 77.432V76.856ZM305.293 73.568H306.421L307.813 77.228C307.933 77.556 308.041 77.864 308.137 78.152C308.233 78.44 308.305 78.716 308.353 78.98H308.401C308.449 78.78 308.525 78.52 308.629 78.2C308.733 77.872 308.841 77.544 308.953 77.216L310.261 73.568H311.401L308.629 80.888C308.397 81.496 308.105 81.98 307.753 82.34C307.401 82.7 306.913 82.88 306.289 82.88C306.097 82.88 305.929 82.868 305.785 82.844C305.641 82.828 305.517 82.808 305.413 82.784V81.944C305.501 81.96 305.605 81.976 305.725 81.992C305.853 82.008 305.985 82.016 306.121 82.016C306.489 82.016 306.785 81.912 307.009 81.704C307.233 81.496 307.413 81.22 307.549 80.876L307.885 80.024L305.293 73.568ZM319.474 73.448C320.202 73.448 320.746 73.636 321.106 74.012C321.466 74.388 321.646 74.988 321.646 75.812V80H320.602V75.86C320.602 74.844 320.166 74.336 319.294 74.336C318.67 74.336 318.222 74.516 317.95 74.876C317.686 75.236 317.554 75.76 317.554 76.448V80H316.51V75.86C316.51 74.844 316.07 74.336 315.19 74.336C314.542 74.336 314.094 74.536 313.846 74.936C313.598 75.336 313.474 75.912 313.474 76.664V80H312.418V73.568H313.27L313.426 74.444H313.486C313.686 74.108 313.954 73.86 314.29 73.7C314.634 73.532 314.998 73.448 315.382 73.448C316.39 73.448 317.046 73.808 317.35 74.528H317.41C317.626 74.16 317.918 73.888 318.286 73.712C318.654 73.536 319.05 73.448 319.474 73.448ZM326.117 73.448C326.661 73.448 327.133 73.568 327.533 73.808C327.933 74.048 328.237 74.388 328.445 74.828C328.661 75.26 328.769 75.768 328.769 76.352V76.988H324.365C324.381 77.716 324.565 78.272 324.917 78.656C325.277 79.032 325.777 79.22 326.417 79.22C326.825 79.22 327.185 79.184 327.497 79.112C327.817 79.032 328.145 78.92 328.481 78.776V79.7C328.153 79.844 327.829 79.948 327.509 80.012C327.189 80.084 326.809 80.12 326.369 80.12C325.753 80.12 325.213 79.996 324.749 79.748C324.285 79.5 323.921 79.132 323.657 78.644C323.401 78.156 323.273 77.552 323.273 76.832C323.273 76.128 323.389 75.524 323.621 75.02C323.861 74.516 324.193 74.128 324.617 73.856C325.049 73.584 325.549 73.448 326.117 73.448ZM326.105 74.312C325.601 74.312 325.201 74.476 324.905 74.804C324.617 75.124 324.445 75.572 324.389 76.148H327.665C327.657 75.604 327.529 75.164 327.281 74.828C327.033 74.484 326.641 74.312 326.105 74.312ZM333.503 73.448C334.271 73.448 334.851 73.636 335.243 74.012C335.635 74.388 335.831 74.988 335.831 75.812V80H334.787V75.884C334.787 74.852 334.307 74.336 333.347 74.336C332.635 74.336 332.143 74.536 331.871 74.936C331.599 75.336 331.463 75.912 331.463 76.664V80H330.407V73.568H331.259L331.415 74.444H331.475C331.683 74.108 331.971 73.86 332.339 73.7C332.707 73.532 333.095 73.448 333.503 73.448ZM339.973 79.256C340.133 79.256 340.297 79.244 340.465 79.22C340.633 79.196 340.769 79.164 340.873 79.124V79.928C340.761 79.984 340.601 80.028 340.393 80.06C340.185 80.1 339.985 80.12 339.793 80.12C339.457 80.12 339.145 80.064 338.857 79.952C338.577 79.832 338.349 79.628 338.173 79.34C337.997 79.052 337.909 78.648 337.909 78.128V74.384H336.997V73.88L337.921 73.46L338.341 72.092H338.965V73.568H340.825V74.384H338.965V78.104C338.965 78.496 339.057 78.788 339.241 78.98C339.433 79.164 339.677 79.256 339.973 79.256ZM346.349 78.224C346.349 78.848 346.117 79.32 345.653 79.64C345.189 79.96 344.565 80.12 343.781 80.12C343.333 80.12 342.945 80.084 342.617 80.012C342.297 79.94 342.013 79.84 341.765 79.712V78.752C342.021 78.88 342.329 79 342.689 79.112C343.057 79.216 343.429 79.268 343.805 79.268C344.341 79.268 344.729 79.184 344.969 79.016C345.209 78.84 345.329 78.608 345.329 78.32C345.329 78.16 345.285 78.016 345.197 77.888C345.109 77.76 344.949 77.632 344.717 77.504C344.493 77.376 344.169 77.232 343.745 77.072C343.329 76.912 342.973 76.752 342.677 76.592C342.381 76.432 342.153 76.24 341.993 76.016C341.833 75.792 341.753 75.504 341.753 75.152C341.753 74.608 341.973 74.188 342.413 73.892C342.861 73.596 343.445 73.448 344.165 73.448C344.557 73.448 344.921 73.488 345.257 73.568C345.601 73.648 345.921 73.752 346.217 73.88L345.857 74.72C345.585 74.608 345.301 74.512 345.005 74.432C344.709 74.352 344.405 74.312 344.093 74.312C343.661 74.312 343.329 74.384 343.097 74.528C342.873 74.664 342.761 74.852 342.761 75.092C342.761 75.276 342.813 75.428 342.917 75.548C343.021 75.668 343.193 75.788 343.433 75.908C343.681 76.028 344.009 76.164 344.417 76.316C344.825 76.468 345.173 76.624 345.461 76.784C345.749 76.944 345.969 77.14 346.121 77.372C346.273 77.596 346.349 77.88 346.349 78.224ZM349.103 78.608L349.187 78.74C349.075 79.164 348.923 79.628 348.731 80.132C348.539 80.644 348.347 81.116 348.155 81.548H347.375C347.487 81.092 347.599 80.592 347.711 80.048C347.831 79.504 347.919 79.024 347.975 78.608H349.103ZM74.54 96L73.508 93.348H70.112L69.092 96H68L71.348 87.396H72.32L75.656 96H74.54ZM73.184 92.388L72.224 89.796C72.2 89.732 72.16 89.616 72.104 89.448C72.048 89.28 71.992 89.108 71.936 88.932C71.888 88.748 71.848 88.608 71.816 88.512C71.752 88.76 71.684 89.004 71.612 89.244C71.548 89.476 71.492 89.66 71.444 89.796L70.472 92.388H73.184ZM79.2641 96.12C78.6881 96.12 78.1801 96.004 77.7401 95.772C77.3001 95.54 76.9521 95.18 76.6961 94.692C76.4481 94.204 76.3241 93.58 76.3241 92.82C76.3241 92.028 76.4521 91.384 76.7081 90.888C76.9721 90.392 77.3321 90.028 77.7881 89.796C78.2441 89.564 78.7601 89.448 79.3361 89.448C79.6561 89.448 79.9681 89.484 80.2721 89.556C80.5841 89.62 80.8361 89.7 81.0281 89.796L80.7041 90.672C80.5121 90.6 80.2881 90.532 80.0321 90.468C79.7761 90.404 79.5361 90.372 79.3121 90.372C78.0481 90.372 77.4161 91.184 77.4161 92.808C77.4161 93.584 77.5681 94.18 77.8721 94.596C78.1841 95.004 78.6441 95.208 79.2521 95.208C79.5961 95.208 79.9041 95.172 80.1761 95.1C80.4481 95.028 80.6961 94.94 80.9201 94.836V95.772C80.7041 95.884 80.4641 95.968 80.2001 96.024C79.9441 96.088 79.6321 96.12 79.2641 96.12ZM85.0297 96.12C84.4537 96.12 83.9457 96.004 83.5057 95.772C83.0657 95.54 82.7177 95.18 82.4617 94.692C82.2137 94.204 82.0897 93.58 82.0897 92.82C82.0897 92.028 82.2177 91.384 82.4737 90.888C82.7377 90.392 83.0977 90.028 83.5537 89.796C84.0097 89.564 84.5257 89.448 85.1017 89.448C85.4217 89.448 85.7337 89.484 86.0377 89.556C86.3497 89.62 86.6017 89.7 86.7937 89.796L86.4697 90.672C86.2777 90.6 86.0537 90.532 85.7977 90.468C85.5417 90.404 85.3017 90.372 85.0777 90.372C83.8137 90.372 83.1817 91.184 83.1817 92.808C83.1817 93.584 83.3337 94.18 83.6377 94.596C83.9497 95.004 84.4097 95.208 85.0177 95.208C85.3617 95.208 85.6697 95.172 85.9417 95.1C86.2137 95.028 86.4617 94.94 86.6857 94.836V95.772C86.4697 95.884 86.2297 95.968 85.9657 96.024C85.7097 96.088 85.3977 96.12 85.0297 96.12ZM93.8073 92.772C93.8073 93.836 93.5353 94.66 92.9913 95.244C92.4553 95.828 91.7273 96.12 90.8073 96.12C90.2393 96.12 89.7313 95.992 89.2833 95.736C88.8433 95.472 88.4953 95.092 88.2393 94.596C87.9833 94.092 87.8553 93.484 87.8553 92.772C87.8553 91.708 88.1193 90.888 88.6473 90.312C89.1833 89.736 89.9153 89.448 90.8433 89.448C91.4193 89.448 91.9313 89.58 92.3793 89.844C92.8273 90.1 93.1753 90.476 93.4233 90.972C93.6793 91.46 93.8073 92.06 93.8073 92.772ZM88.9473 92.772C88.9473 93.532 89.0953 94.136 89.3913 94.584C89.6953 95.024 90.1753 95.244 90.8313 95.244C91.4793 95.244 91.9553 95.024 92.2593 94.584C92.5633 94.136 92.7153 93.532 92.7153 92.772C92.7153 92.012 92.5633 91.416 92.2593 90.984C91.9553 90.552 91.4753 90.336 90.8193 90.336C90.1633 90.336 89.6873 90.552 89.3913 90.984C89.0953 91.416 88.9473 92.012 88.9473 92.772ZM100.857 89.568V96H99.9929L99.8369 95.148H99.7889C99.5809 95.484 99.2929 95.732 98.9249 95.892C98.5569 96.044 98.1649 96.12 97.7489 96.12C96.9729 96.12 96.3889 95.936 95.9969 95.568C95.6049 95.192 95.4089 94.596 95.4089 93.78V89.568H96.4769V93.708C96.4769 94.732 96.9529 95.244 97.9049 95.244C98.6169 95.244 99.1089 95.044 99.3809 94.644C99.6609 94.244 99.8009 93.668 99.8009 92.916V89.568H100.857ZM105.995 89.448C106.763 89.448 107.343 89.636 107.735 90.012C108.127 90.388 108.323 90.988 108.323 91.812V96H107.279V91.884C107.279 90.852 106.799 90.336 105.839 90.336C105.127 90.336 104.635 90.536 104.363 90.936C104.091 91.336 103.955 91.912 103.955 92.664V96H102.899V89.568H103.751L103.907 90.444H103.967C104.175 90.108 104.463 89.86 104.831 89.7C105.199 89.532 105.587 89.448 105.995 89.448ZM112.465 95.256C112.625 95.256 112.789 95.244 112.957 95.22C113.125 95.196 113.261 95.164 113.365 95.124V95.928C113.253 95.984 113.093 96.028 112.885 96.06C112.677 96.1 112.477 96.12 112.285 96.12C111.949 96.12 111.637 96.064 111.349 95.952C111.069 95.832 110.841 95.628 110.665 95.34C110.489 95.052 110.401 94.648 110.401 94.128V90.384H109.489V89.88L110.413 89.46L110.833 88.092H111.457V89.568H113.317V90.384H111.457V94.104C111.457 94.496 111.549 94.788 111.733 94.98C111.925 95.164 112.169 95.256 112.465 95.256ZM121.694 96L118.874 88.488H118.826C118.85 88.736 118.87 89.072 118.886 89.496C118.902 89.912 118.91 90.348 118.91 90.804V96H117.914V87.432H119.51L122.15 94.452H122.198L124.886 87.432H126.47V96H125.402V90.732C125.402 90.316 125.41 89.904 125.426 89.496C125.45 89.088 125.47 88.756 125.486 88.5H125.438L122.582 96H121.694ZM131.093 89.46C131.877 89.46 132.457 89.632 132.833 89.976C133.209 90.32 133.397 90.868 133.397 91.62V96H132.629L132.425 95.088H132.377C132.097 95.44 131.801 95.7 131.489 95.868C131.177 96.036 130.753 96.12 130.217 96.12C129.633 96.12 129.149 95.968 128.765 95.664C128.381 95.352 128.189 94.868 128.189 94.212C128.189 93.572 128.441 93.08 128.945 92.736C129.449 92.384 130.225 92.192 131.273 92.16L132.365 92.124V91.74C132.365 91.204 132.249 90.832 132.017 90.624C131.785 90.416 131.457 90.312 131.033 90.312C130.697 90.312 130.377 90.364 130.073 90.468C129.769 90.564 129.485 90.676 129.221 90.804L128.897 90.012C129.177 89.86 129.509 89.732 129.893 89.628C130.277 89.516 130.677 89.46 131.093 89.46ZM132.353 92.856L131.405 92.892C130.605 92.924 130.049 93.052 129.737 93.276C129.433 93.5 129.281 93.816 129.281 94.224C129.281 94.584 129.389 94.848 129.605 95.016C129.829 95.184 130.113 95.268 130.457 95.268C130.993 95.268 131.441 95.12 131.801 94.824C132.169 94.52 132.353 94.056 132.353 93.432V92.856ZM138.479 89.448C139.247 89.448 139.827 89.636 140.219 90.012C140.611 90.388 140.807 90.988 140.807 91.812V96H139.763V91.884C139.763 90.852 139.283 90.336 138.323 90.336C137.611 90.336 137.119 90.536 136.847 90.936C136.575 91.336 136.439 91.912 136.439 92.664V96H135.383V89.568H136.235L136.391 90.444H136.451C136.659 90.108 136.947 89.86 137.315 89.7C137.683 89.532 138.071 89.448 138.479 89.448ZM145.237 89.46C146.021 89.46 146.601 89.632 146.977 89.976C147.353 90.32 147.541 90.868 147.541 91.62V96H146.773L146.569 95.088H146.521C146.241 95.44 145.945 95.7 145.633 95.868C145.321 96.036 144.897 96.12 144.361 96.12C143.777 96.12 143.293 95.968 142.909 95.664C142.525 95.352 142.333 94.868 142.333 94.212C142.333 93.572 142.585 93.08 143.089 92.736C143.593 92.384 144.369 92.192 145.417 92.16L146.509 92.124V91.74C146.509 91.204 146.393 90.832 146.161 90.624C145.929 90.416 145.601 90.312 145.177 90.312C144.841 90.312 144.521 90.364 144.217 90.468C143.913 90.564 143.629 90.676 143.365 90.804L143.041 90.012C143.321 89.86 143.653 89.732 144.037 89.628C144.421 89.516 144.821 89.46 145.237 89.46ZM146.497 92.856L145.549 92.892C144.749 92.924 144.193 93.052 143.881 93.276C143.577 93.5 143.425 93.816 143.425 94.224C143.425 94.584 143.533 94.848 143.749 95.016C143.973 95.184 144.257 95.268 144.601 95.268C145.137 95.268 145.585 95.12 145.945 94.824C146.313 94.52 146.497 94.056 146.497 93.432V92.856ZM151.808 89.448C152.232 89.448 152.612 89.528 152.948 89.688C153.292 89.848 153.584 90.092 153.824 90.42H153.884L154.028 89.568H154.868V96.108C154.868 97.028 154.632 97.72 154.16 98.184C153.696 98.648 152.972 98.88 151.988 98.88C151.044 98.88 150.272 98.744 149.672 98.472V97.5C150.304 97.836 151.096 98.004 152.048 98.004C152.6 98.004 153.032 97.84 153.344 97.512C153.664 97.192 153.824 96.752 153.824 96.192V95.94C153.824 95.844 153.828 95.708 153.836 95.532C153.844 95.348 153.852 95.22 153.86 95.148H153.812C153.38 95.796 152.716 96.12 151.82 96.12C150.988 96.12 150.336 95.828 149.864 95.244C149.4 94.66 149.168 93.844 149.168 92.796C149.168 91.772 149.4 90.96 149.864 90.36C150.336 89.752 150.984 89.448 151.808 89.448ZM151.952 90.336C151.416 90.336 151 90.552 150.704 90.984C150.408 91.408 150.26 92.016 150.26 92.808C150.26 93.6 150.404 94.208 150.692 94.632C150.98 95.048 151.408 95.256 151.976 95.256C152.624 95.256 153.096 95.084 153.392 94.74C153.688 94.388 153.836 93.824 153.836 93.048V92.796C153.836 91.924 153.684 91.296 153.38 90.912C153.076 90.528 152.6 90.336 151.952 90.336ZM159.395 89.448C159.939 89.448 160.411 89.568 160.811 89.808C161.211 90.048 161.515 90.388 161.723 90.828C161.939 91.26 162.047 91.768 162.047 92.352V92.988H157.643C157.659 93.716 157.843 94.272 158.195 94.656C158.555 95.032 159.055 95.22 159.695 95.22C160.103 95.22 160.463 95.184 160.775 95.112C161.095 95.032 161.423 94.92 161.759 94.776V95.7C161.431 95.844 161.107 95.948 160.787 96.012C160.467 96.084 160.087 96.12 159.647 96.12C159.031 96.12 158.491 95.996 158.027 95.748C157.563 95.5 157.199 95.132 156.935 94.644C156.679 94.156 156.551 93.552 156.551 92.832C156.551 92.128 156.667 91.524 156.899 91.02C157.139 90.516 157.471 90.128 157.895 89.856C158.327 89.584 158.827 89.448 159.395 89.448ZM159.383 90.312C158.879 90.312 158.479 90.476 158.183 90.804C157.895 91.124 157.723 91.572 157.667 92.148H160.943C160.935 91.604 160.807 91.164 160.559 90.828C160.311 90.484 159.919 90.312 159.383 90.312ZM170.74 89.448C171.468 89.448 172.012 89.636 172.372 90.012C172.732 90.388 172.912 90.988 172.912 91.812V96H171.868V91.86C171.868 90.844 171.432 90.336 170.56 90.336C169.936 90.336 169.488 90.516 169.216 90.876C168.952 91.236 168.82 91.76 168.82 92.448V96H167.776V91.86C167.776 90.844 167.336 90.336 166.456 90.336C165.808 90.336 165.36 90.536 165.112 90.936C164.864 91.336 164.74 91.912 164.74 92.664V96H163.684V89.568H164.536L164.692 90.444H164.752C164.952 90.108 165.22 89.86 165.556 89.7C165.9 89.532 166.264 89.448 166.648 89.448C167.656 89.448 168.312 89.808 168.616 90.528H168.676C168.892 90.16 169.184 89.888 169.552 89.712C169.92 89.536 170.316 89.448 170.74 89.448ZM177.383 89.448C177.927 89.448 178.399 89.568 178.799 89.808C179.199 90.048 179.503 90.388 179.711 90.828C179.927 91.26 180.035 91.768 180.035 92.352V92.988H175.631C175.647 93.716 175.831 94.272 176.183 94.656C176.543 95.032 177.043 95.22 177.683 95.22C178.091 95.22 178.451 95.184 178.763 95.112C179.083 95.032 179.411 94.92 179.747 94.776V95.7C179.419 95.844 179.095 95.948 178.775 96.012C178.455 96.084 178.075 96.12 177.635 96.12C177.019 96.12 176.479 95.996 176.015 95.748C175.551 95.5 175.187 95.132 174.923 94.644C174.667 94.156 174.539 93.552 174.539 92.832C174.539 92.128 174.655 91.524 174.887 91.02C175.127 90.516 175.459 90.128 175.883 89.856C176.315 89.584 176.815 89.448 177.383 89.448ZM177.371 90.312C176.867 90.312 176.467 90.476 176.171 90.804C175.883 91.124 175.711 91.572 175.655 92.148H178.931C178.923 91.604 178.795 91.164 178.547 90.828C178.299 90.484 177.907 90.312 177.371 90.312ZM184.768 89.448C185.536 89.448 186.116 89.636 186.508 90.012C186.9 90.388 187.096 90.988 187.096 91.812V96H186.052V91.884C186.052 90.852 185.572 90.336 184.612 90.336C183.9 90.336 183.408 90.536 183.136 90.936C182.864 91.336 182.728 91.912 182.728 92.664V96H181.672V89.568H182.524L182.68 90.444H182.74C182.948 90.108 183.236 89.86 183.604 89.7C183.972 89.532 184.36 89.448 184.768 89.448ZM191.238 95.256C191.398 95.256 191.562 95.244 191.73 95.22C191.898 95.196 192.034 95.164 192.138 95.124V95.928C192.026 95.984 191.866 96.028 191.658 96.06C191.45 96.1 191.25 96.12 191.058 96.12C190.722 96.12 190.41 96.064 190.122 95.952C189.842 95.832 189.614 95.628 189.438 95.34C189.262 95.052 189.174 94.648 189.174 94.128V90.384H188.262V89.88L189.186 89.46L189.606 88.092H190.23V89.568H192.09V90.384H190.23V94.104C190.23 94.496 190.322 94.788 190.506 94.98C190.698 95.164 190.942 95.256 191.238 95.256Z" fill="white"/>
<path d="M199 107H213L206 114L199 107Z" fill="#323232"/>
<rect x="194" y="117" width="24" height="24" rx="2" fill="#1473E6"/>
<path d="M206 131.223C205.6 131.223 205.2 131.123 204.85 130.923C203.7 130.323 203.3 128.873 203.9 127.723C204.55 126.573 205.95 126.173 207.1 126.773C207.65 127.073 208.05 127.573 208.25 128.173C208.45 128.773 208.35 129.423 208.05 129.973C207.75 130.523 207.25 130.923 206.65 131.123C206.45 131.173 206.2 131.223 206 131.223ZM204.6 128.073C204.15 128.873 204.45 129.823 205.25 130.273C205.65 130.473 206.05 130.523 206.5 130.423C206.9 130.323 207.25 130.023 207.45 129.673C207.65 129.273 207.7 128.873 207.6 128.423C207.5 128.023 207.2 127.673 206.85 127.473C206 127.023 205 127.323 204.6 128.073Z" fill="white"/>
<path d="M203.45 135.223C203.15 135.223 202.9 135.173 202.65 135.023C202 134.673 201.65 133.923 201.8 133.173L202.1 131.823C202.15 131.623 202.1 131.373 202 131.223C201.9 131.023 201.7 130.923 201.5 130.873L200.4 130.623C199.55 130.423 199 129.773 199 128.973C199 128.223 199.5 127.523 200.2 127.323L201.45 126.923C201.65 126.873 201.85 126.723 201.95 126.523C202.05 126.323 202.05 126.123 202 125.923L201.65 124.823C201.4 124.073 201.7 123.273 202.4 122.873C203.05 122.473 203.9 122.573 204.45 123.073L205.45 123.973C205.6 124.123 205.8 124.223 206.05 124.173C206.25 124.173 206.45 124.073 206.6 123.923L207.35 123.073C207.9 122.473 208.75 122.323 209.4 122.723C210.05 123.073 210.4 123.873 210.25 124.573L209.95 125.873C209.9 126.073 209.95 126.323 210.05 126.473C210.15 126.673 210.35 126.773 210.55 126.823L211.65 127.073C212.4 127.223 212.95 127.923 213 128.673C213 129.423 212.55 130.123 211.8 130.323L210.5 130.773C210.3 130.823 210.1 130.973 210 131.173C209.9 131.373 209.9 131.573 209.95 131.823L210.3 132.923C210.55 133.673 210.25 134.473 209.55 134.873C208.9 135.273 208.05 135.173 207.5 134.673L206.55 133.773C206.45 133.573 206.25 133.523 206 133.523C205.8 133.523 205.6 133.623 205.45 133.773L204.7 134.623C204.35 135.023 203.9 135.223 203.45 135.223ZM203.25 123.373C203.1 123.373 202.9 123.423 202.75 123.523C202.4 123.723 202.25 124.173 202.35 124.623L202.7 125.673C202.85 126.073 202.8 126.523 202.6 126.873C202.4 127.273 202.1 127.523 201.7 127.673L200.4 128.023C200 128.123 199.7 128.523 199.75 128.923C199.75 129.373 200.05 129.723 200.5 129.823L201.6 130.073C202 130.173 202.35 130.423 202.6 130.773C202.85 131.123 202.9 131.573 202.8 131.973L202.5 133.323C202.4 133.723 202.6 134.173 202.95 134.373C203.35 134.573 203.8 134.523 204.1 134.173L204.85 133.323C205.15 133.023 205.5 132.823 205.95 132.823C206.4 132.823 206.8 132.973 207.1 133.223L208.05 134.123C208.35 134.423 208.8 134.473 209.2 134.223C209.6 133.973 209.75 133.523 209.6 133.123L209.3 132.023C209.15 131.623 209.2 131.173 209.4 130.823C209.6 130.473 209.9 130.173 210.35 130.073L211.65 129.673C212.05 129.573 212.3 129.173 212.3 128.773C212.3 128.323 212 127.973 211.55 127.873L210.45 127.623C210.05 127.523 209.7 127.273 209.45 126.923C209.2 126.573 209.15 126.123 209.25 125.723L209.5 124.423C209.6 124.023 209.4 123.573 209.05 123.373C208.65 123.173 208.2 123.223 207.9 123.573L207.15 124.423C206.85 124.723 206.5 124.923 206.05 124.923C205.6 124.923 205.25 124.773 204.9 124.523L203.9 123.623C203.7 123.473 203.5 123.373 203.25 123.373Z" fill="white"/>
</svg>
