<svg width="412" height="200" viewBox="0 0 412 200" fill="none" xmlns="http://www.w3.org/2000/svg">
<rect width="412" height="200" fill="white"/>
<rect x="95.25" y="60" width="155" height="32" rx="4" fill="#323232"/>
<path d="M112.194 81L109.374 73.488H109.326C109.35 73.736 109.37 74.072 109.386 74.496C109.402 74.912 109.41 75.348 109.41 75.804V81H108.414V72.432H110.01L112.65 79.452H112.698L115.386 72.432H116.97V81H115.902V75.732C115.902 75.316 115.91 74.904 115.926 74.496C115.95 74.088 115.97 73.756 115.986 73.5H115.938L113.082 81H112.194ZM119.697 72.156C119.857 72.156 119.997 72.212 120.117 72.324C120.245 72.428 120.309 72.596 120.309 72.828C120.309 73.06 120.245 73.232 120.117 73.344C119.997 73.448 119.857 73.5 119.697 73.5C119.521 73.5 119.373 73.448 119.253 73.344C119.133 73.232 119.073 73.06 119.073 72.828C119.073 72.596 119.133 72.428 119.253 72.324C119.373 72.212 119.521 72.156 119.697 72.156ZM120.213 74.568V81H119.157V74.568H120.213ZM124.83 81.12C124.254 81.12 123.746 81.004 123.306 80.772C122.866 80.54 122.518 80.18 122.262 79.692C122.014 79.204 121.89 78.58 121.89 77.82C121.89 77.028 122.018 76.384 122.274 75.888C122.538 75.392 122.898 75.028 123.354 74.796C123.81 74.564 124.326 74.448 124.902 74.448C125.222 74.448 125.534 74.484 125.838 74.556C126.15 74.62 126.402 74.7 126.594 74.796L126.27 75.672C126.078 75.6 125.854 75.532 125.598 75.468C125.342 75.404 125.102 75.372 124.878 75.372C123.614 75.372 122.982 76.184 122.982 77.808C122.982 78.584 123.134 79.18 123.438 79.596C123.75 80.004 124.21 80.208 124.818 80.208C125.162 80.208 125.47 80.172 125.742 80.1C126.014 80.028 126.262 79.94 126.486 79.836V80.772C126.27 80.884 126.03 80.968 125.766 81.024C125.51 81.088 125.198 81.12 124.83 81.12ZM131.016 74.448C131.136 74.448 131.264 74.456 131.4 74.472C131.536 74.48 131.66 74.496 131.772 74.52L131.64 75.492C131.536 75.468 131.42 75.448 131.292 75.432C131.164 75.416 131.048 75.408 130.944 75.408C130.616 75.408 130.308 75.5 130.02 75.684C129.732 75.86 129.5 76.112 129.324 76.44C129.156 76.76 129.072 77.136 129.072 77.568V81H128.016V74.568H128.88L129 75.744H129.048C129.248 75.392 129.512 75.088 129.84 74.832C130.176 74.576 130.568 74.448 131.016 74.448ZM138.331 77.772C138.331 78.836 138.059 79.66 137.515 80.244C136.979 80.828 136.251 81.12 135.331 81.12C134.763 81.12 134.255 80.992 133.807 80.736C133.367 80.472 133.019 80.092 132.763 79.596C132.507 79.092 132.379 78.484 132.379 77.772C132.379 76.708 132.643 75.888 133.171 75.312C133.707 74.736 134.439 74.448 135.367 74.448C135.943 74.448 136.455 74.58 136.903 74.844C137.351 75.1 137.699 75.476 137.947 75.972C138.203 76.46 138.331 77.06 138.331 77.772ZM133.471 77.772C133.471 78.532 133.619 79.136 133.915 79.584C134.219 80.024 134.699 80.244 135.355 80.244C136.003 80.244 136.479 80.024 136.783 79.584C137.087 79.136 137.239 78.532 137.239 77.772C137.239 77.012 137.087 76.416 136.783 75.984C136.479 75.552 135.999 75.336 135.343 75.336C134.687 75.336 134.211 75.552 133.915 75.984C133.619 76.416 133.471 77.012 133.471 77.772ZM143.064 74.448C143.856 74.448 144.492 74.724 144.972 75.276C145.46 75.828 145.704 76.66 145.704 77.772C145.704 78.868 145.46 79.7 144.972 80.268C144.492 80.836 143.852 81.12 143.052 81.12C142.556 81.12 142.144 81.028 141.816 80.844C141.496 80.66 141.244 80.44 141.06 80.184H140.988C140.996 80.32 141.008 80.492 141.024 80.7C141.048 80.908 141.06 81.088 141.06 81.24V83.88H140.004V74.568H140.868L141.012 75.444H141.06C141.252 75.164 141.504 74.928 141.816 74.736C142.128 74.544 142.544 74.448 143.064 74.448ZM142.872 75.336C142.216 75.336 141.752 75.52 141.48 75.888C141.208 76.256 141.068 76.816 141.06 77.568V77.772C141.06 78.564 141.188 79.176 141.444 79.608C141.708 80.032 142.192 80.244 142.896 80.244C143.28 80.244 143.6 80.14 143.856 79.932C144.112 79.716 144.3 79.42 144.42 79.044C144.548 78.668 144.612 78.24 144.612 77.76C144.612 77.024 144.468 76.436 144.18 75.996C143.9 75.556 143.464 75.336 142.872 75.336ZM148.443 71.88V74.556C148.443 74.876 148.423 75.176 148.383 75.456H148.455C148.663 75.128 148.943 74.88 149.295 74.712C149.655 74.544 150.043 74.46 150.459 74.46C151.235 74.46 151.819 74.648 152.211 75.024C152.611 75.392 152.811 75.988 152.811 76.812V81H151.767V76.884C151.767 75.852 151.287 75.336 150.327 75.336C149.607 75.336 149.111 75.54 148.839 75.948C148.575 76.348 148.443 76.924 148.443 77.676V81H147.387V71.88H148.443ZM160.397 77.772C160.397 78.836 160.125 79.66 159.581 80.244C159.045 80.828 158.317 81.12 157.397 81.12C156.829 81.12 156.321 80.992 155.873 80.736C155.433 80.472 155.085 80.092 154.829 79.596C154.573 79.092 154.445 78.484 154.445 77.772C154.445 76.708 154.709 75.888 155.237 75.312C155.773 74.736 156.505 74.448 157.433 74.448C158.009 74.448 158.521 74.58 158.969 74.844C159.417 75.1 159.765 75.476 160.013 75.972C160.269 76.46 160.397 77.06 160.397 77.772ZM155.537 77.772C155.537 78.532 155.685 79.136 155.981 79.584C156.285 80.024 156.765 80.244 157.421 80.244C158.069 80.244 158.545 80.024 158.849 79.584C159.153 79.136 159.305 78.532 159.305 77.772C159.305 77.012 159.153 76.416 158.849 75.984C158.545 75.552 158.065 75.336 157.409 75.336C156.753 75.336 156.277 75.552 155.981 75.984C155.685 76.416 155.537 77.012 155.537 77.772ZM165.167 74.448C165.935 74.448 166.515 74.636 166.907 75.012C167.299 75.388 167.495 75.988 167.495 76.812V81H166.451V76.884C166.451 75.852 165.971 75.336 165.011 75.336C164.299 75.336 163.807 75.536 163.535 75.936C163.263 76.336 163.127 76.912 163.127 77.664V81H162.071V74.568H162.923L163.079 75.444H163.139C163.347 75.108 163.635 74.86 164.003 74.7C164.371 74.532 164.759 74.448 165.167 74.448ZM171.973 74.448C172.517 74.448 172.989 74.568 173.389 74.808C173.789 75.048 174.093 75.388 174.301 75.828C174.517 76.26 174.625 76.768 174.625 77.352V77.988H170.221C170.237 78.716 170.421 79.272 170.773 79.656C171.133 80.032 171.633 80.22 172.273 80.22C172.681 80.22 173.041 80.184 173.353 80.112C173.673 80.032 174.001 79.92 174.337 79.776V80.7C174.009 80.844 173.685 80.948 173.365 81.012C173.045 81.084 172.665 81.12 172.225 81.12C171.609 81.12 171.069 80.996 170.605 80.748C170.141 80.5 169.777 80.132 169.513 79.644C169.257 79.156 169.129 78.552 169.129 77.832C169.129 77.128 169.245 76.524 169.477 76.02C169.717 75.516 170.049 75.128 170.473 74.856C170.905 74.584 171.405 74.448 171.973 74.448ZM171.961 75.312C171.457 75.312 171.057 75.476 170.761 75.804C170.473 76.124 170.301 76.572 170.245 77.148H173.521C173.513 76.604 173.385 76.164 173.137 75.828C172.889 75.484 172.497 75.312 171.961 75.312ZM181.959 81.12C181.383 81.12 180.875 81.004 180.435 80.772C179.995 80.54 179.647 80.18 179.391 79.692C179.143 79.204 179.019 78.58 179.019 77.82C179.019 77.028 179.147 76.384 179.403 75.888C179.667 75.392 180.027 75.028 180.483 74.796C180.939 74.564 181.455 74.448 182.031 74.448C182.351 74.448 182.663 74.484 182.967 74.556C183.279 74.62 183.531 74.7 183.723 74.796L183.399 75.672C183.207 75.6 182.983 75.532 182.727 75.468C182.471 75.404 182.231 75.372 182.007 75.372C180.743 75.372 180.111 76.184 180.111 77.808C180.111 78.584 180.263 79.18 180.567 79.596C180.879 80.004 181.339 80.208 181.947 80.208C182.291 80.208 182.599 80.172 182.871 80.1C183.143 80.028 183.391 79.94 183.615 79.836V80.772C183.399 80.884 183.159 80.968 182.895 81.024C182.639 81.088 182.327 81.12 181.959 81.12ZM190.737 77.772C190.737 78.836 190.465 79.66 189.921 80.244C189.385 80.828 188.657 81.12 187.737 81.12C187.169 81.12 186.661 80.992 186.213 80.736C185.773 80.472 185.425 80.092 185.169 79.596C184.913 79.092 184.785 78.484 184.785 77.772C184.785 76.708 185.049 75.888 185.577 75.312C186.113 74.736 186.845 74.448 187.773 74.448C188.349 74.448 188.861 74.58 189.309 74.844C189.757 75.1 190.105 75.476 190.353 75.972C190.609 76.46 190.737 77.06 190.737 77.772ZM185.877 77.772C185.877 78.532 186.025 79.136 186.321 79.584C186.625 80.024 187.105 80.244 187.761 80.244C188.409 80.244 188.885 80.024 189.189 79.584C189.493 79.136 189.645 78.532 189.645 77.772C189.645 77.012 189.493 76.416 189.189 75.984C188.885 75.552 188.405 75.336 187.749 75.336C187.093 75.336 186.617 75.552 186.321 75.984C186.025 76.416 185.877 77.012 185.877 77.772ZM195.507 74.448C196.275 74.448 196.855 74.636 197.247 75.012C197.639 75.388 197.835 75.988 197.835 76.812V81H196.791V76.884C196.791 75.852 196.311 75.336 195.351 75.336C194.639 75.336 194.147 75.536 193.875 75.936C193.603 76.336 193.467 76.912 193.467 77.664V81H192.411V74.568H193.263L193.419 75.444H193.479C193.687 75.108 193.975 74.86 194.343 74.7C194.711 74.532 195.099 74.448 195.507 74.448ZM202.925 74.448C203.693 74.448 204.273 74.636 204.665 75.012C205.057 75.388 205.253 75.988 205.253 76.812V81H204.209V76.884C204.209 75.852 203.729 75.336 202.769 75.336C202.057 75.336 201.565 75.536 201.293 75.936C201.021 76.336 200.885 76.912 200.885 77.664V81H199.829V74.568H200.681L200.837 75.444H200.897C201.105 75.108 201.393 74.86 201.761 74.7C202.129 74.532 202.517 74.448 202.925 74.448ZM209.731 74.448C210.275 74.448 210.747 74.568 211.147 74.808C211.547 75.048 211.851 75.388 212.059 75.828C212.275 76.26 212.383 76.768 212.383 77.352V77.988H207.979C207.995 78.716 208.179 79.272 208.531 79.656C208.891 80.032 209.391 80.22 210.031 80.22C210.439 80.22 210.799 80.184 211.111 80.112C211.431 80.032 211.759 79.92 212.095 79.776V80.7C211.767 80.844 211.443 80.948 211.123 81.012C210.803 81.084 210.423 81.12 209.983 81.12C209.367 81.12 208.827 80.996 208.363 80.748C207.899 80.5 207.535 80.132 207.271 79.644C207.015 79.156 206.887 78.552 206.887 77.832C206.887 77.128 207.003 76.524 207.235 76.02C207.475 75.516 207.807 75.128 208.231 74.856C208.663 74.584 209.163 74.448 209.731 74.448ZM209.719 75.312C209.215 75.312 208.815 75.476 208.519 75.804C208.231 76.124 208.059 76.572 208.003 77.148H211.279C211.271 76.604 211.143 76.164 210.895 75.828C210.647 75.484 210.255 75.312 209.719 75.312ZM216.6 81.12C216.024 81.12 215.516 81.004 215.076 80.772C214.636 80.54 214.288 80.18 214.032 79.692C213.784 79.204 213.66 78.58 213.66 77.82C213.66 77.028 213.788 76.384 214.044 75.888C214.308 75.392 214.668 75.028 215.124 74.796C215.58 74.564 216.096 74.448 216.672 74.448C216.992 74.448 217.304 74.484 217.608 74.556C217.92 74.62 218.172 74.7 218.364 74.796L218.04 75.672C217.848 75.6 217.624 75.532 217.368 75.468C217.112 75.404 216.872 75.372 216.648 75.372C215.384 75.372 214.752 76.184 214.752 77.808C214.752 78.584 214.904 79.18 215.208 79.596C215.52 80.004 215.98 80.208 216.588 80.208C216.932 80.208 217.24 80.172 217.512 80.1C217.784 80.028 218.032 79.94 218.256 79.836V80.772C218.04 80.884 217.8 80.968 217.536 81.024C217.28 81.088 216.968 81.12 216.6 81.12ZM221.934 80.256C222.094 80.256 222.258 80.244 222.426 80.22C222.594 80.196 222.73 80.164 222.834 80.124V80.928C222.722 80.984 222.562 81.028 222.354 81.06C222.146 81.1 221.946 81.12 221.754 81.12C221.418 81.12 221.106 81.064 220.818 80.952C220.538 80.832 220.31 80.628 220.134 80.34C219.958 80.052 219.87 79.648 219.87 79.128V75.384H218.958V74.88L219.882 74.46L220.302 73.092H220.926V74.568H222.786V75.384H220.926V79.104C220.926 79.496 221.018 79.788 221.202 79.98C221.394 80.164 221.638 80.256 221.934 80.256ZM226.606 74.448C227.15 74.448 227.622 74.568 228.022 74.808C228.422 75.048 228.726 75.388 228.934 75.828C229.15 76.26 229.258 76.768 229.258 77.352V77.988H224.854C224.87 78.716 225.054 79.272 225.406 79.656C225.766 80.032 226.266 80.22 226.906 80.22C227.314 80.22 227.674 80.184 227.986 80.112C228.306 80.032 228.634 79.92 228.97 79.776V80.7C228.642 80.844 228.318 80.948 227.998 81.012C227.678 81.084 227.298 81.12 226.858 81.12C226.242 81.12 225.702 80.996 225.238 80.748C224.774 80.5 224.41 80.132 224.146 79.644C223.89 79.156 223.762 78.552 223.762 77.832C223.762 77.128 223.878 76.524 224.11 76.02C224.35 75.516 224.682 75.128 225.106 74.856C225.538 74.584 226.038 74.448 226.606 74.448ZM226.594 75.312C226.09 75.312 225.69 75.476 225.394 75.804C225.106 76.124 224.934 76.572 224.878 77.148H228.154C228.146 76.604 228.018 76.164 227.77 75.828C227.522 75.484 227.13 75.312 226.594 75.312ZM233.175 81.12C232.375 81.12 231.735 80.844 231.255 80.292C230.775 79.732 230.535 78.9 230.535 77.796C230.535 76.692 230.775 75.86 231.255 75.3C231.743 74.732 232.387 74.448 233.187 74.448C233.683 74.448 234.087 74.54 234.399 74.724C234.719 74.908 234.979 75.132 235.179 75.396H235.251C235.235 75.292 235.219 75.14 235.203 74.94C235.187 74.732 235.179 74.568 235.179 74.448V71.88H236.235V81H235.383L235.227 80.136H235.179C234.987 80.408 234.731 80.64 234.411 80.832C234.091 81.024 233.679 81.12 233.175 81.12ZM233.343 80.244C234.023 80.244 234.499 80.06 234.771 79.692C235.051 79.316 235.191 78.752 235.191 78V77.808C235.191 77.008 235.059 76.396 234.795 75.972C234.531 75.54 234.043 75.324 233.331 75.324C232.763 75.324 232.335 75.552 232.047 76.008C231.767 76.456 231.627 77.06 231.627 77.82C231.627 78.588 231.767 79.184 232.047 79.608C232.335 80.032 232.767 80.244 233.343 80.244Z" fill="white"/>
<path d="M165.75 92H179.75L172.75 99L165.75 92Z" fill="#323232"/>
<g clip-path="url(#clip0_6677_525180)">
<path d="M105.95 124.252C106.776 124.252 107.446 123.583 107.446 122.757C107.446 121.93 106.776 121.261 105.95 121.261C105.124 121.261 104.454 121.93 104.454 122.757C104.454 123.583 105.124 124.252 105.95 124.252Z" fill="black"/>
<path d="M100.466 124.252C101.292 124.252 101.962 123.583 101.962 122.757C101.962 121.93 101.292 121.261 100.466 121.261C99.64 121.261 98.9704 121.93 98.9704 122.757C98.9704 123.583 99.64 124.252 100.466 124.252Z" fill="black"/>
<path d="M111.534 124.252C112.36 124.252 113.03 123.583 113.03 122.757C113.03 121.93 112.36 121.261 111.534 121.261C110.708 121.261 110.038 121.93 110.038 122.757C110.038 123.583 110.708 124.252 111.534 124.252Z" fill="black"/>
<path fill-rule="evenodd" clip-rule="evenodd" d="M105.95 112.577C98.9652 112.577 93.5767 117.239 93.5767 122.757C93.5767 126.029 95.3903 128.891 98.301 130.769C98.6045 130.965 98.7361 131.342 98.6204 131.684L97.1153 136.134L101.9 132.686C102.07 132.563 102.283 132.514 102.49 132.548C103.694 132.749 104.829 132.936 106.05 132.936C113.035 132.936 118.423 128.274 118.423 122.757C118.423 117.242 113.039 112.577 105.95 112.577ZM92 122.757C92 116.11 98.3774 111 105.95 111C113.618 111 120 116.106 120 122.757C120 129.403 113.623 134.513 106.05 134.513C104.803 134.513 103.648 134.338 102.555 134.157L96.0411 138.851C95.7631 139.052 95.3875 139.049 95.1118 138.846C94.8362 138.642 94.7236 138.284 94.8335 137.959L96.9345 131.747C93.95 129.629 92 126.456 92 122.757Z" fill="black"/>
<circle cx="114" cy="117" r="10" fill="white"/>
<path d="M114 108.25C112.269 108.25 110.578 108.763 109.139 109.725C107.7 110.686 106.578 112.053 105.916 113.652C105.254 115.25 105.081 117.01 105.418 118.707C105.756 120.404 106.589 121.963 107.813 123.187C109.037 124.411 110.596 125.244 112.293 125.582C113.99 125.919 115.75 125.746 117.348 125.084C118.947 124.422 120.314 123.3 121.275 121.861C122.237 120.422 122.75 118.731 122.75 117C122.75 114.679 121.828 112.454 120.187 110.813C118.546 109.172 116.321 108.25 114 108.25ZM118.375 114.331L113.406 120.975C113.332 121.085 113.234 121.177 113.121 121.246C113.008 121.315 112.882 121.359 112.75 121.375H112.681C112.558 121.376 112.436 121.353 112.322 121.305C112.208 121.258 112.105 121.188 112.019 121.1L109.081 118.169C108.989 118.083 108.915 117.979 108.864 117.864C108.813 117.749 108.785 117.625 108.783 117.499C108.781 117.374 108.804 117.248 108.851 117.132C108.898 117.015 108.968 116.909 109.057 116.82C109.146 116.731 109.253 116.661 109.369 116.614C109.486 116.566 109.611 116.543 109.737 116.546C109.863 116.548 109.987 116.575 110.102 116.627C110.217 116.678 110.32 116.752 110.406 116.844L112.55 118.988L116.875 113.206C117.024 113.007 117.246 112.876 117.492 112.841C117.739 112.806 117.989 112.87 118.188 113.019C118.386 113.168 118.518 113.39 118.553 113.636C118.588 113.882 118.524 114.132 118.375 114.331Z" fill="#088A08"/>
</g>
<g clip-path="url(#clip1_6677_525180)">
<path fill-rule="evenodd" clip-rule="evenodd" d="M162.75 120.7C163.164 120.7 163.5 121.036 163.5 121.45V124.25C163.5 128.836 167.264 132.6 171.85 132.6C176.436 132.6 180.2 128.836 180.2 124.25V121.45C180.2 121.036 180.536 120.7 180.95 120.7C181.364 120.7 181.7 121.036 181.7 121.45V124.25C181.7 129.664 177.264 134.1 171.85 134.1C166.436 134.1 162 129.664 162 124.25V121.45C162 121.036 162.336 120.7 162.75 120.7Z" fill="black"/>
<path fill-rule="evenodd" clip-rule="evenodd" d="M171.55 112.5C169.064 112.5 167.1 114.464 167.1 116.95V124.55C167.1 127.036 169.064 129 171.55 129H172.25C174.736 129 176.7 127.036 176.7 124.55V116.95C176.7 114.464 174.736 112.5 172.25 112.5H171.55ZM165.6 116.95C165.6 113.636 168.236 111 171.55 111H172.25C175.564 111 178.2 113.636 178.2 116.95V124.55C178.2 127.864 175.564 130.5 172.25 130.5H171.55C168.236 130.5 165.6 127.864 165.6 124.55V116.95Z" fill="black"/>
<path fill-rule="evenodd" clip-rule="evenodd" d="M171.1 138.15V133.35H172.6V138.15H171.1Z" fill="black"/>
<path fill-rule="evenodd" clip-rule="evenodd" d="M165.6 138.15C165.6 137.736 165.936 137.4 166.35 137.4H177.45C177.864 137.4 178.2 137.736 178.2 138.15C178.2 138.564 177.864 138.9 177.45 138.9H166.35C165.936 138.9 165.6 138.564 165.6 138.15Z" fill="black"/>
<circle cx="180" cy="117" r="10" fill="white"/>
<path d="M180 108.25C178.269 108.25 176.578 108.763 175.139 109.725C173.7 110.686 172.578 112.053 171.916 113.652C171.254 115.25 171.081 117.01 171.418 118.707C171.756 120.404 172.589 121.963 173.813 123.187C175.037 124.411 176.596 125.244 178.293 125.582C179.99 125.919 181.75 125.746 183.348 125.084C184.947 124.422 186.314 123.3 187.275 121.861C188.237 120.422 188.75 118.731 188.75 117C188.75 114.679 187.828 112.454 186.187 110.813C184.546 109.172 182.321 108.25 180 108.25ZM184.375 114.331L179.406 120.975C179.332 121.085 179.234 121.177 179.121 121.246C179.008 121.315 178.882 121.359 178.75 121.375H178.681C178.558 121.376 178.436 121.353 178.322 121.305C178.208 121.258 178.105 121.188 178.019 121.1L175.081 118.169C174.989 118.083 174.915 117.979 174.864 117.864C174.813 117.749 174.785 117.625 174.783 117.499C174.781 117.374 174.804 117.248 174.851 117.132C174.898 117.015 174.968 116.909 175.057 116.82C175.146 116.731 175.253 116.661 175.369 116.614C175.486 116.566 175.611 116.543 175.737 116.546C175.863 116.548 175.987 116.575 176.102 116.627C176.217 116.678 176.32 116.752 176.406 116.844L178.55 118.988L182.875 113.206C183.024 113.007 183.246 112.876 183.492 112.841C183.739 112.806 183.989 112.87 184.188 113.019C184.386 113.168 184.518 113.39 184.553 113.636C184.588 113.882 184.524 114.132 184.375 114.331Z" fill="#088A08"/>
</g>
<g clip-path="url(#clip2_6677_525180)">
<path fill-rule="evenodd" clip-rule="evenodd" d="M232.713 114.238C233.268 114.507 233.7 114.953 233.975 115.282C234.041 115.363 234.13 115.468 234.233 115.592C234.888 116.374 236.167 117.904 236.699 118.613C237.211 119.296 237.135 120.035 236.848 120.627C236.582 121.178 236.114 121.658 235.692 122.027C235.272 122.394 235.068 122.594 234.964 122.765C234.902 122.867 234.871 122.958 234.926 123.181C234.994 123.454 235.237 123.968 235.673 124.621C236.096 125.257 236.665 125.968 237.329 126.632C237.993 127.297 238.704 127.865 239.324 128.274C239.634 128.479 239.914 128.639 240.146 128.75C240.391 128.868 240.541 128.911 240.605 128.92C240.63 128.924 240.655 128.929 240.68 128.935C240.903 128.99 240.994 128.959 241.096 128.897C241.267 128.793 241.467 128.589 241.834 128.169C242.203 127.747 242.683 127.279 243.234 127.013C243.821 126.728 244.552 126.652 245.23 127.149C246.179 127.785 247.997 129.302 248.687 129.893C249.07 130.221 249.518 130.684 249.772 131.26C250.044 131.877 250.083 132.612 249.642 133.348C249.581 133.449 249.516 133.567 249.444 133.698C248.886 134.712 247.909 136.486 245.404 136.805C242.575 137.252 238.25 136.076 233.063 130.788C227.871 125.494 226.716 121.178 227.054 118.469C227.362 116.008 229.173 115.073 230.193 114.546C230.356 114.461 230.499 114.387 230.613 114.319C231.371 113.864 232.12 113.95 232.713 114.238ZM232.059 115.587C231.827 115.475 231.626 115.461 231.384 115.606C231.187 115.724 230.983 115.834 230.778 115.944C229.763 116.49 228.745 117.037 228.543 118.656C228.281 120.747 229.126 124.631 234.134 129.737C239.139 134.841 243.01 135.669 245.18 135.322C245.188 135.321 245.197 135.319 245.205 135.318C246.921 135.104 247.532 134.023 248.106 133.009C248.189 132.863 248.271 132.718 248.355 132.577C248.514 132.313 248.503 132.098 248.4 131.865C248.279 131.591 248.027 131.304 247.71 131.032C247.004 130.426 245.238 128.957 244.382 128.387C244.371 128.379 244.36 128.371 244.349 128.363C244.232 128.275 244.121 128.249 243.888 128.362C243.614 128.496 243.294 128.778 242.963 129.156C242.63 129.536 242.28 129.932 241.876 130.178C241.412 130.46 240.915 130.532 240.352 130.399C240.076 130.353 239.78 130.238 239.498 130.103C239.19 129.955 238.85 129.759 238.498 129.526C237.793 129.06 237.004 128.428 236.268 127.693C235.532 126.957 234.901 126.168 234.424 125.454C233.96 124.757 233.603 124.071 233.471 123.544C233.326 122.967 233.395 122.458 233.683 121.985C233.929 121.581 234.325 121.231 234.705 120.898C235.083 120.567 235.366 120.247 235.499 119.973C235.612 119.74 235.586 119.629 235.499 119.513C234.995 118.841 233.755 117.358 233.093 116.566C232.986 116.438 232.894 116.328 232.822 116.243C232.597 115.972 232.329 115.718 232.059 115.587Z" fill="black"/>
<circle cx="246" cy="117" r="10" fill="white"/>
<path d="M246 108.25C244.269 108.25 242.578 108.763 241.139 109.725C239.7 110.686 238.578 112.053 237.916 113.652C237.254 115.25 237.081 117.01 237.418 118.707C237.756 120.404 238.589 121.963 239.813 123.187C241.037 124.411 242.596 125.244 244.293 125.582C245.99 125.919 247.75 125.746 249.348 125.084C250.947 124.422 252.314 123.3 253.275 121.861C254.237 120.422 254.75 118.731 254.75 117C254.75 114.679 253.828 112.454 252.187 110.813C250.546 109.172 248.321 108.25 246 108.25ZM251.119 117.938H246C245.751 117.938 245.513 117.839 245.337 117.663C245.161 117.487 245.063 117.249 245.063 117V111.881C245.063 111.633 245.161 111.394 245.337 111.218C245.513 111.043 245.751 110.944 246 110.944C246.249 110.944 246.487 111.043 246.663 111.218C246.839 111.394 246.938 111.633 246.938 111.881V116.062H251.119C251.367 116.062 251.606 116.161 251.782 116.337C251.957 116.513 252.056 116.751 252.056 117C252.056 117.249 251.957 117.487 251.782 117.663C251.606 117.839 251.367 117.938 251.119 117.938Z" fill="#E67300"/>
</g>
<g clip-path="url(#clip3_6677_525180)">
<path d="M297.6 138.1C297.5 138.1 297.4 138.1 297.3 138C297 137.9 296.8 137.6 296.8 137.3V131.8H295.8C292.6 131.8 290 129.2 290 126V117.8C290 114.6 292.6 112 295.8 112H312.1C315.4 112 318 114.6 318 117.8V126C318 129.2 315.4 131.8 312.2 131.8H304.3L298.2 137.9C298 138.1 297.8 138.1 297.6 138.1ZM295.8 113.5C293.4 113.5 291.5 115.4 291.5 117.8V126C291.5 128.4 293.5 130.3 295.8 130.3H297.6C298 130.3 298.4 130.6 298.4 131.1V135.6L303.4 130.6C303.5 130.5 303.7 130.4 303.9 130.4H312.1C314.5 130.4 316.4 128.5 316.4 126.1V117.8C316.4 115.4 314.5 113.5 312.1 113.5H295.8Z" fill="black"/>
<circle cx="312" cy="117" r="10" fill="white"/>
<path d="M312 108.25C310.269 108.25 308.578 108.763 307.139 109.725C305.7 110.686 304.578 112.053 303.916 113.652C303.254 115.25 303.081 117.01 303.418 118.707C303.756 120.404 304.589 121.963 305.813 123.187C307.037 124.411 308.596 125.244 310.293 125.582C311.99 125.919 313.75 125.746 315.348 125.084C316.947 124.422 318.314 123.3 319.275 121.861C320.237 120.422 320.75 118.731 320.75 117C320.75 114.679 319.828 112.454 318.187 110.813C316.546 109.172 314.321 108.25 312 108.25ZM316.375 114.331L311.406 120.975C311.332 121.085 311.234 121.177 311.121 121.246C311.008 121.315 310.882 121.359 310.75 121.375H310.681C310.558 121.376 310.436 121.353 310.322 121.305C310.208 121.258 310.105 121.188 310.019 121.1L307.081 118.169C306.989 118.083 306.915 117.979 306.864 117.864C306.813 117.749 306.785 117.625 306.783 117.499C306.781 117.374 306.804 117.248 306.851 117.132C306.898 117.015 306.968 116.909 307.057 116.82C307.146 116.731 307.253 116.661 307.369 116.614C307.486 116.566 307.611 116.543 307.737 116.546C307.863 116.548 307.987 116.575 308.102 116.627C308.217 116.678 308.32 116.752 308.406 116.844L310.55 118.988L314.875 113.206C315.024 113.007 315.246 112.876 315.492 112.841C315.739 112.806 315.989 112.87 316.188 113.019C316.386 113.168 316.518 113.39 316.553 113.636C316.588 113.882 316.524 114.132 316.375 114.331Z" fill="#088A08"/>
</g>
<defs>
<clipPath id="clip0_6677_525180">
<rect width="34" height="34" fill="white" transform="translate(90 107)"/>
</clipPath>
<clipPath id="clip1_6677_525180">
<rect width="34" height="34" fill="white" transform="translate(156 107)"/>
</clipPath>
<clipPath id="clip2_6677_525180">
<rect width="34" height="34" fill="white" transform="translate(222 107)"/>
</clipPath>
<clipPath id="clip3_6677_525180">
<rect width="34" height="34" fill="white" transform="translate(288 107)"/>
</clipPath>
</defs>
</svg>
