<svg width="412" height="200" viewBox="0 0 412 200" fill="none" xmlns="http://www.w3.org/2000/svg">
<rect width="412" height="200" fill="white"/>
<rect x="129" y="59" width="155" height="32" rx="4" fill="#323232"/>
<path d="M145.944 80L143.124 72.488H143.076C143.1 72.736 143.12 73.072 143.136 73.496C143.152 73.912 143.16 74.348 143.16 74.804V80H142.164V71.432H143.76L146.4 78.452H146.448L149.136 71.432H150.72V80H149.652V74.732C149.652 74.316 149.66 73.904 149.676 73.496C149.7 73.088 149.72 72.756 149.736 72.5H149.688L146.832 80H145.944ZM153.447 71.156C153.607 71.156 153.747 71.212 153.867 71.324C153.995 71.428 154.059 71.596 154.059 71.828C154.059 72.06 153.995 72.232 153.867 72.344C153.747 72.448 153.607 72.5 153.447 72.5C153.271 72.5 153.123 72.448 153.003 72.344C152.883 72.232 152.823 72.06 152.823 71.828C152.823 71.596 152.883 71.428 153.003 71.324C153.123 71.212 153.271 71.156 153.447 71.156ZM153.963 73.568V80H152.907V73.568H153.963ZM158.58 80.12C158.004 80.12 157.496 80.004 157.056 79.772C156.616 79.54 156.268 79.18 156.012 78.692C155.764 78.204 155.64 77.58 155.64 76.82C155.64 76.028 155.768 75.384 156.024 74.888C156.288 74.392 156.648 74.028 157.104 73.796C157.56 73.564 158.076 73.448 158.652 73.448C158.972 73.448 159.284 73.484 159.588 73.556C159.9 73.62 160.152 73.7 160.344 73.796L160.02 74.672C159.828 74.6 159.604 74.532 159.348 74.468C159.092 74.404 158.852 74.372 158.628 74.372C157.364 74.372 156.732 75.184 156.732 76.808C156.732 77.584 156.884 78.18 157.188 78.596C157.5 79.004 157.96 79.208 158.568 79.208C158.912 79.208 159.22 79.172 159.492 79.1C159.764 79.028 160.012 78.94 160.236 78.836V79.772C160.02 79.884 159.78 79.968 159.516 80.024C159.26 80.088 158.948 80.12 158.58 80.12ZM164.766 73.448C164.886 73.448 165.014 73.456 165.15 73.472C165.286 73.48 165.41 73.496 165.522 73.52L165.39 74.492C165.286 74.468 165.17 74.448 165.042 74.432C164.914 74.416 164.798 74.408 164.694 74.408C164.366 74.408 164.058 74.5 163.77 74.684C163.482 74.86 163.25 75.112 163.074 75.44C162.906 75.76 162.822 76.136 162.822 76.568V80H161.766V73.568H162.63L162.75 74.744H162.798C162.998 74.392 163.262 74.088 163.59 73.832C163.926 73.576 164.318 73.448 164.766 73.448ZM172.081 76.772C172.081 77.836 171.809 78.66 171.265 79.244C170.729 79.828 170.001 80.12 169.081 80.12C168.513 80.12 168.005 79.992 167.557 79.736C167.117 79.472 166.769 79.092 166.513 78.596C166.257 78.092 166.129 77.484 166.129 76.772C166.129 75.708 166.393 74.888 166.921 74.312C167.457 73.736 168.189 73.448 169.117 73.448C169.693 73.448 170.205 73.58 170.653 73.844C171.101 74.1 171.449 74.476 171.697 74.972C171.953 75.46 172.081 76.06 172.081 76.772ZM167.221 76.772C167.221 77.532 167.369 78.136 167.665 78.584C167.969 79.024 168.449 79.244 169.105 79.244C169.753 79.244 170.229 79.024 170.533 78.584C170.837 78.136 170.989 77.532 170.989 76.772C170.989 76.012 170.837 75.416 170.533 74.984C170.229 74.552 169.749 74.336 169.093 74.336C168.437 74.336 167.961 74.552 167.665 74.984C167.369 75.416 167.221 76.012 167.221 76.772ZM176.814 73.448C177.606 73.448 178.242 73.724 178.722 74.276C179.21 74.828 179.454 75.66 179.454 76.772C179.454 77.868 179.21 78.7 178.722 79.268C178.242 79.836 177.602 80.12 176.802 80.12C176.306 80.12 175.894 80.028 175.566 79.844C175.246 79.66 174.994 79.44 174.81 79.184H174.738C174.746 79.32 174.758 79.492 174.774 79.7C174.798 79.908 174.81 80.088 174.81 80.24V82.88H173.754V73.568H174.618L174.762 74.444H174.81C175.002 74.164 175.254 73.928 175.566 73.736C175.878 73.544 176.294 73.448 176.814 73.448ZM176.622 74.336C175.966 74.336 175.502 74.52 175.23 74.888C174.958 75.256 174.818 75.816 174.81 76.568V76.772C174.81 77.564 174.938 78.176 175.194 78.608C175.458 79.032 175.942 79.244 176.646 79.244C177.03 79.244 177.35 79.14 177.606 78.932C177.862 78.716 178.05 78.42 178.17 78.044C178.298 77.668 178.362 77.24 178.362 76.76C178.362 76.024 178.218 75.436 177.93 74.996C177.65 74.556 177.214 74.336 176.622 74.336ZM182.193 70.88V73.556C182.193 73.876 182.173 74.176 182.133 74.456H182.205C182.413 74.128 182.693 73.88 183.045 73.712C183.405 73.544 183.793 73.46 184.209 73.46C184.985 73.46 185.569 73.648 185.961 74.024C186.361 74.392 186.561 74.988 186.561 75.812V80H185.517V75.884C185.517 74.852 185.037 74.336 184.077 74.336C183.357 74.336 182.861 74.54 182.589 74.948C182.325 75.348 182.193 75.924 182.193 76.676V80H181.137V70.88H182.193ZM194.147 76.772C194.147 77.836 193.875 78.66 193.331 79.244C192.795 79.828 192.067 80.12 191.147 80.12C190.579 80.12 190.071 79.992 189.623 79.736C189.183 79.472 188.835 79.092 188.579 78.596C188.323 78.092 188.195 77.484 188.195 76.772C188.195 75.708 188.459 74.888 188.987 74.312C189.523 73.736 190.255 73.448 191.183 73.448C191.759 73.448 192.271 73.58 192.719 73.844C193.167 74.1 193.515 74.476 193.763 74.972C194.019 75.46 194.147 76.06 194.147 76.772ZM189.287 76.772C189.287 77.532 189.435 78.136 189.731 78.584C190.035 79.024 190.515 79.244 191.171 79.244C191.819 79.244 192.295 79.024 192.599 78.584C192.903 78.136 193.055 77.532 193.055 76.772C193.055 76.012 192.903 75.416 192.599 74.984C192.295 74.552 191.815 74.336 191.159 74.336C190.503 74.336 190.027 74.552 189.731 74.984C189.435 75.416 189.287 76.012 189.287 76.772ZM198.917 73.448C199.685 73.448 200.265 73.636 200.657 74.012C201.049 74.388 201.245 74.988 201.245 75.812V80H200.201V75.884C200.201 74.852 199.721 74.336 198.761 74.336C198.049 74.336 197.557 74.536 197.285 74.936C197.013 75.336 196.877 75.912 196.877 76.664V80H195.821V73.568H196.673L196.829 74.444H196.889C197.097 74.108 197.385 73.86 197.753 73.7C198.121 73.532 198.509 73.448 198.917 73.448ZM205.723 73.448C206.267 73.448 206.739 73.568 207.139 73.808C207.539 74.048 207.843 74.388 208.051 74.828C208.267 75.26 208.375 75.768 208.375 76.352V76.988H203.971C203.987 77.716 204.171 78.272 204.523 78.656C204.883 79.032 205.383 79.22 206.023 79.22C206.431 79.22 206.791 79.184 207.103 79.112C207.423 79.032 207.751 78.92 208.087 78.776V79.7C207.759 79.844 207.435 79.948 207.115 80.012C206.795 80.084 206.415 80.12 205.975 80.12C205.359 80.12 204.819 79.996 204.355 79.748C203.891 79.5 203.527 79.132 203.263 78.644C203.007 78.156 202.879 77.552 202.879 76.832C202.879 76.128 202.995 75.524 203.227 75.02C203.467 74.516 203.799 74.128 204.223 73.856C204.655 73.584 205.155 73.448 205.723 73.448ZM205.711 74.312C205.207 74.312 204.807 74.476 204.511 74.804C204.223 75.124 204.051 75.572 203.995 76.148H207.271C207.263 75.604 207.135 75.164 206.887 74.828C206.639 74.484 206.247 74.312 205.711 74.312ZM215.709 80.12C215.133 80.12 214.625 80.004 214.185 79.772C213.745 79.54 213.397 79.18 213.141 78.692C212.893 78.204 212.769 77.58 212.769 76.82C212.769 76.028 212.897 75.384 213.153 74.888C213.417 74.392 213.777 74.028 214.233 73.796C214.689 73.564 215.205 73.448 215.781 73.448C216.101 73.448 216.413 73.484 216.717 73.556C217.029 73.62 217.281 73.7 217.473 73.796L217.149 74.672C216.957 74.6 216.733 74.532 216.477 74.468C216.221 74.404 215.981 74.372 215.757 74.372C214.493 74.372 213.861 75.184 213.861 76.808C213.861 77.584 214.013 78.18 214.317 78.596C214.629 79.004 215.089 79.208 215.697 79.208C216.041 79.208 216.349 79.172 216.621 79.1C216.893 79.028 217.141 78.94 217.365 78.836V79.772C217.149 79.884 216.909 79.968 216.645 80.024C216.389 80.088 216.077 80.12 215.709 80.12ZM224.487 76.772C224.487 77.836 224.215 78.66 223.671 79.244C223.135 79.828 222.407 80.12 221.487 80.12C220.919 80.12 220.411 79.992 219.963 79.736C219.523 79.472 219.175 79.092 218.919 78.596C218.663 78.092 218.535 77.484 218.535 76.772C218.535 75.708 218.799 74.888 219.327 74.312C219.863 73.736 220.595 73.448 221.523 73.448C222.099 73.448 222.611 73.58 223.059 73.844C223.507 74.1 223.855 74.476 224.103 74.972C224.359 75.46 224.487 76.06 224.487 76.772ZM219.627 76.772C219.627 77.532 219.775 78.136 220.071 78.584C220.375 79.024 220.855 79.244 221.511 79.244C222.159 79.244 222.635 79.024 222.939 78.584C223.243 78.136 223.395 77.532 223.395 76.772C223.395 76.012 223.243 75.416 222.939 74.984C222.635 74.552 222.155 74.336 221.499 74.336C220.843 74.336 220.367 74.552 220.071 74.984C219.775 75.416 219.627 76.012 219.627 76.772ZM229.257 73.448C230.025 73.448 230.605 73.636 230.997 74.012C231.389 74.388 231.585 74.988 231.585 75.812V80H230.541V75.884C230.541 74.852 230.061 74.336 229.101 74.336C228.389 74.336 227.897 74.536 227.625 74.936C227.353 75.336 227.217 75.912 227.217 76.664V80H226.161V73.568H227.013L227.169 74.444H227.229C227.437 74.108 227.725 73.86 228.093 73.7C228.461 73.532 228.849 73.448 229.257 73.448ZM236.675 73.448C237.443 73.448 238.023 73.636 238.415 74.012C238.807 74.388 239.003 74.988 239.003 75.812V80H237.959V75.884C237.959 74.852 237.479 74.336 236.519 74.336C235.807 74.336 235.315 74.536 235.043 74.936C234.771 75.336 234.635 75.912 234.635 76.664V80H233.579V73.568H234.431L234.587 74.444H234.647C234.855 74.108 235.143 73.86 235.511 73.7C235.879 73.532 236.267 73.448 236.675 73.448ZM243.481 73.448C244.025 73.448 244.497 73.568 244.897 73.808C245.297 74.048 245.601 74.388 245.809 74.828C246.025 75.26 246.133 75.768 246.133 76.352V76.988H241.729C241.745 77.716 241.929 78.272 242.281 78.656C242.641 79.032 243.141 79.22 243.781 79.22C244.189 79.22 244.549 79.184 244.861 79.112C245.181 79.032 245.509 78.92 245.845 78.776V79.7C245.517 79.844 245.193 79.948 244.873 80.012C244.553 80.084 244.173 80.12 243.733 80.12C243.117 80.12 242.577 79.996 242.113 79.748C241.649 79.5 241.285 79.132 241.021 78.644C240.765 78.156 240.637 77.552 240.637 76.832C240.637 76.128 240.753 75.524 240.985 75.02C241.225 74.516 241.557 74.128 241.981 73.856C242.413 73.584 242.913 73.448 243.481 73.448ZM243.469 74.312C242.965 74.312 242.565 74.476 242.269 74.804C241.981 75.124 241.809 75.572 241.753 76.148H245.029C245.021 75.604 244.893 75.164 244.645 74.828C244.397 74.484 244.005 74.312 243.469 74.312ZM250.35 80.12C249.774 80.12 249.266 80.004 248.826 79.772C248.386 79.54 248.038 79.18 247.782 78.692C247.534 78.204 247.41 77.58 247.41 76.82C247.41 76.028 247.538 75.384 247.794 74.888C248.058 74.392 248.418 74.028 248.874 73.796C249.33 73.564 249.846 73.448 250.422 73.448C250.742 73.448 251.054 73.484 251.358 73.556C251.67 73.62 251.922 73.7 252.114 73.796L251.79 74.672C251.598 74.6 251.374 74.532 251.118 74.468C250.862 74.404 250.622 74.372 250.398 74.372C249.134 74.372 248.502 75.184 248.502 76.808C248.502 77.584 248.654 78.18 248.958 78.596C249.27 79.004 249.73 79.208 250.338 79.208C250.682 79.208 250.99 79.172 251.262 79.1C251.534 79.028 251.782 78.94 252.006 78.836V79.772C251.79 79.884 251.55 79.968 251.286 80.024C251.03 80.088 250.718 80.12 250.35 80.12ZM255.684 79.256C255.844 79.256 256.008 79.244 256.176 79.22C256.344 79.196 256.48 79.164 256.584 79.124V79.928C256.472 79.984 256.312 80.028 256.104 80.06C255.896 80.1 255.696 80.12 255.504 80.12C255.168 80.12 254.856 80.064 254.568 79.952C254.288 79.832 254.06 79.628 253.884 79.34C253.708 79.052 253.62 78.648 253.62 78.128V74.384H252.708V73.88L253.632 73.46L254.052 72.092H254.676V73.568H256.536V74.384H254.676V78.104C254.676 78.496 254.768 78.788 254.952 78.98C255.144 79.164 255.388 79.256 255.684 79.256ZM260.356 73.448C260.9 73.448 261.372 73.568 261.772 73.808C262.172 74.048 262.476 74.388 262.684 74.828C262.9 75.26 263.008 75.768 263.008 76.352V76.988H258.604C258.62 77.716 258.804 78.272 259.156 78.656C259.516 79.032 260.016 79.22 260.656 79.22C261.064 79.22 261.424 79.184 261.736 79.112C262.056 79.032 262.384 78.92 262.72 78.776V79.7C262.392 79.844 262.068 79.948 261.748 80.012C261.428 80.084 261.048 80.12 260.608 80.12C259.992 80.12 259.452 79.996 258.988 79.748C258.524 79.5 258.16 79.132 257.896 78.644C257.64 78.156 257.512 77.552 257.512 76.832C257.512 76.128 257.628 75.524 257.86 75.02C258.1 74.516 258.432 74.128 258.856 73.856C259.288 73.584 259.788 73.448 260.356 73.448ZM260.344 74.312C259.84 74.312 259.44 74.476 259.144 74.804C258.856 75.124 258.684 75.572 258.628 76.148H261.904C261.896 75.604 261.768 75.164 261.52 74.828C261.272 74.484 260.88 74.312 260.344 74.312ZM266.925 80.12C266.125 80.12 265.485 79.844 265.005 79.292C264.525 78.732 264.285 77.9 264.285 76.796C264.285 75.692 264.525 74.86 265.005 74.3C265.493 73.732 266.137 73.448 266.937 73.448C267.433 73.448 267.837 73.54 268.149 73.724C268.469 73.908 268.729 74.132 268.929 74.396H269.001C268.985 74.292 268.969 74.14 268.953 73.94C268.937 73.732 268.929 73.568 268.929 73.448V70.88H269.985V80H269.133L268.977 79.136H268.929C268.737 79.408 268.481 79.64 268.161 79.832C267.841 80.024 267.429 80.12 266.925 80.12ZM267.093 79.244C267.773 79.244 268.249 79.06 268.521 78.692C268.801 78.316 268.941 77.752 268.941 77V76.808C268.941 76.008 268.809 75.396 268.545 74.972C268.281 74.54 267.793 74.324 267.081 74.324C266.513 74.324 266.085 74.552 265.797 75.008C265.517 75.456 265.377 76.06 265.377 76.82C265.377 77.588 265.517 78.184 265.797 78.608C266.085 79.032 266.517 79.244 267.093 79.244Z" fill="white"/>
<path d="M199.5 91H213.5L206.5 98L199.5 91Z" fill="#323232"/>
<g clip-path="url(#clip0_6652_543216)">
<path fill-rule="evenodd" clip-rule="evenodd" d="M198.75 121.7C199.164 121.7 199.5 122.036 199.5 122.45V125.25C199.5 129.836 203.264 133.6 207.85 133.6C212.436 133.6 216.2 129.836 216.2 125.25V122.45C216.2 122.036 216.536 121.7 216.95 121.7C217.364 121.7 217.7 122.036 217.7 122.45V125.25C217.7 130.664 213.264 135.1 207.85 135.1C202.436 135.1 198 130.664 198 125.25V122.45C198 122.036 198.336 121.7 198.75 121.7Z" fill="black"/>
<path fill-rule="evenodd" clip-rule="evenodd" d="M207.55 113.5C205.064 113.5 203.1 115.464 203.1 117.95V125.55C203.1 128.036 205.064 130 207.55 130H208.25C210.736 130 212.7 128.036 212.7 125.55V117.95C212.7 115.464 210.736 113.5 208.25 113.5H207.55ZM201.6 117.95C201.6 114.636 204.236 112 207.55 112H208.25C211.564 112 214.2 114.636 214.2 117.95V125.55C214.2 128.864 211.564 131.5 208.25 131.5H207.55C204.236 131.5 201.6 128.864 201.6 125.55V117.95Z" fill="black"/>
<path fill-rule="evenodd" clip-rule="evenodd" d="M207.1 139.15V134.35H208.6V139.15H207.1Z" fill="black"/>
<path fill-rule="evenodd" clip-rule="evenodd" d="M201.6 139.15C201.6 138.736 201.936 138.4 202.35 138.4H213.45C213.864 138.4 214.2 138.736 214.2 139.15C214.2 139.564 213.864 139.9 213.45 139.9H202.35C201.936 139.9 201.6 139.564 201.6 139.15Z" fill="black"/>
<circle cx="216" cy="118" r="10" fill="white"/>
<path d="M216 109.25C214.269 109.25 212.578 109.763 211.139 110.725C209.7 111.686 208.578 113.053 207.916 114.652C207.254 116.25 207.081 118.01 207.418 119.707C207.756 121.404 208.589 122.963 209.813 124.187C211.037 125.411 212.596 126.244 214.293 126.582C215.99 126.919 217.75 126.746 219.348 126.084C220.947 125.422 222.314 124.3 223.275 122.861C224.237 121.422 224.75 119.731 224.75 118C224.75 115.679 223.828 113.454 222.187 111.813C220.546 110.172 218.321 109.25 216 109.25ZM220.375 115.331L215.406 121.975C215.332 122.085 215.234 122.177 215.121 122.246C215.008 122.315 214.882 122.359 214.75 122.375H214.681C214.558 122.376 214.436 122.353 214.322 122.305C214.208 122.258 214.105 122.188 214.019 122.1L211.081 119.169C210.989 119.083 210.915 118.979 210.864 118.864C210.813 118.749 210.785 118.625 210.783 118.499C210.781 118.374 210.804 118.248 210.851 118.132C210.898 118.015 210.968 117.909 211.057 117.82C211.146 117.731 211.253 117.661 211.369 117.614C211.486 117.566 211.611 117.543 211.737 117.546C211.863 117.548 211.987 117.575 212.102 117.627C212.217 117.678 212.32 117.752 212.406 117.844L214.55 119.988L218.875 114.206C219.024 114.007 219.246 113.876 219.492 113.841C219.739 113.806 219.989 113.87 220.188 114.019C220.386 114.168 220.518 114.39 220.553 114.636C220.588 114.882 220.524 115.132 220.375 115.331Z" fill="#088A08"/>
</g>
<defs>
<clipPath id="clip0_6652_543216">
<rect width="34" height="34" fill="white" transform="translate(192 108)"/>
</clipPath>
</defs>
</svg>
