<svg width="248" height="83" viewBox="0 0 248 83" fill="none" xmlns="http://www.w3.org/2000/svg">
<rect x="0.5" width="247" height="32" rx="4" fill="#323232"/>
<path d="M17.444 21L14.624 13.488H14.576C14.6 13.736 14.62 14.072 14.636 14.496C14.652 14.912 14.66 15.348 14.66 15.804V21H13.664V12.432H15.26L17.9 19.452H17.948L20.636 12.432H22.22V21H21.152V15.732C21.152 15.316 21.16 14.904 21.176 14.496C21.2 14.088 21.22 13.756 21.236 13.5H21.188L18.332 21H17.444ZM24.9467 12.156C25.1067 12.156 25.2467 12.212 25.3667 12.324C25.4947 12.428 25.5587 12.596 25.5587 12.828C25.5587 13.06 25.4947 13.232 25.3667 13.344C25.2467 13.448 25.1067 13.5 24.9467 13.5C24.7707 13.5 24.6227 13.448 24.5027 13.344C24.3827 13.232 24.3227 13.06 24.3227 12.828C24.3227 12.596 24.3827 12.428 24.5027 12.324C24.6227 12.212 24.7707 12.156 24.9467 12.156ZM25.4627 14.568V21H24.4067V14.568H25.4627ZM30.0805 21.12C29.5045 21.12 28.9965 21.004 28.5565 20.772C28.1165 20.54 27.7685 20.18 27.5125 19.692C27.2645 19.204 27.1405 18.58 27.1405 17.82C27.1405 17.028 27.2685 16.384 27.5245 15.888C27.7885 15.392 28.1485 15.028 28.6045 14.796C29.0605 14.564 29.5765 14.448 30.1525 14.448C30.4725 14.448 30.7845 14.484 31.0885 14.556C31.4005 14.62 31.6525 14.7 31.8445 14.796L31.5205 15.672C31.3285 15.6 31.1045 15.532 30.8485 15.468C30.5925 15.404 30.3525 15.372 30.1285 15.372C28.8645 15.372 28.2325 16.184 28.2325 17.808C28.2325 18.584 28.3845 19.18 28.6885 19.596C29.0005 20.004 29.4605 20.208 30.0685 20.208C30.4125 20.208 30.7205 20.172 30.9925 20.1C31.2645 20.028 31.5125 19.94 31.7365 19.836V20.772C31.5205 20.884 31.2805 20.968 31.0165 21.024C30.7605 21.088 30.4485 21.12 30.0805 21.12ZM36.2661 14.448C36.3861 14.448 36.5141 14.456 36.6501 14.472C36.7861 14.48 36.9101 14.496 37.0221 14.52L36.8901 15.492C36.7861 15.468 36.6701 15.448 36.5421 15.432C36.4141 15.416 36.2981 15.408 36.1941 15.408C35.8661 15.408 35.5581 15.5 35.2701 15.684C34.9821 15.86 34.7501 16.112 34.5741 16.44C34.4061 16.76 34.3221 17.136 34.3221 17.568V21H33.2661V14.568H34.1301L34.2501 15.744H34.2981C34.4981 15.392 34.7621 15.088 35.0901 14.832C35.4261 14.576 35.8181 14.448 36.2661 14.448ZM43.5807 17.772C43.5807 18.836 43.3088 19.66 42.7648 20.244C42.2288 20.828 41.5008 21.12 40.5808 21.12C40.0128 21.12 39.5048 20.992 39.0568 20.736C38.6168 20.472 38.2688 20.092 38.0128 19.596C37.7568 19.092 37.6288 18.484 37.6288 17.772C37.6288 16.708 37.8928 15.888 38.4208 15.312C38.9568 14.736 39.6888 14.448 40.6168 14.448C41.1928 14.448 41.7048 14.58 42.1528 14.844C42.6008 15.1 42.9488 15.476 43.1968 15.972C43.4528 16.46 43.5807 17.06 43.5807 17.772ZM38.7208 17.772C38.7208 18.532 38.8688 19.136 39.1648 19.584C39.4688 20.024 39.9488 20.244 40.6048 20.244C41.2528 20.244 41.7288 20.024 42.0328 19.584C42.3368 19.136 42.4888 18.532 42.4888 17.772C42.4888 17.012 42.3368 16.416 42.0328 15.984C41.7288 15.552 41.2488 15.336 40.5928 15.336C39.9368 15.336 39.4608 15.552 39.1648 15.984C38.8688 16.416 38.7208 17.012 38.7208 17.772ZM48.3144 14.448C49.1064 14.448 49.7424 14.724 50.2224 15.276C50.7104 15.828 50.9544 16.66 50.9544 17.772C50.9544 18.868 50.7104 19.7 50.2224 20.268C49.7424 20.836 49.1024 21.12 48.3024 21.12C47.8064 21.12 47.3944 21.028 47.0664 20.844C46.7464 20.66 46.4944 20.44 46.3104 20.184H46.2384C46.2464 20.32 46.2584 20.492 46.2744 20.7C46.2984 20.908 46.3104 21.088 46.3104 21.24V23.88H45.2544V14.568H46.1184L46.2624 15.444H46.3104C46.5024 15.164 46.7544 14.928 47.0664 14.736C47.3784 14.544 47.7944 14.448 48.3144 14.448ZM48.1224 15.336C47.4664 15.336 47.0024 15.52 46.7304 15.888C46.4584 16.256 46.3184 16.816 46.3104 17.568V17.772C46.3104 18.564 46.4384 19.176 46.6944 19.608C46.9584 20.032 47.4424 20.244 48.1464 20.244C48.5304 20.244 48.8504 20.14 49.1064 19.932C49.3624 19.716 49.5504 19.42 49.6704 19.044C49.7984 18.668 49.8624 18.24 49.8624 17.76C49.8624 17.024 49.7184 16.436 49.4304 15.996C49.1504 15.556 48.7144 15.336 48.1224 15.336ZM53.6932 11.88V14.556C53.6932 14.876 53.6732 15.176 53.6332 15.456H53.7052C53.9132 15.128 54.1932 14.88 54.5452 14.712C54.9052 14.544 55.2932 14.46 55.7092 14.46C56.4852 14.46 57.0692 14.648 57.4612 15.024C57.8612 15.392 58.0612 15.988 58.0612 16.812V21H57.0172V16.884C57.0172 15.852 56.5372 15.336 55.5772 15.336C54.8572 15.336 54.3612 15.54 54.0892 15.948C53.8252 16.348 53.6932 16.924 53.6932 17.676V21H52.6372V11.88H53.6932ZM65.6472 17.772C65.6472 18.836 65.3752 19.66 64.8312 20.244C64.2952 20.828 63.5672 21.12 62.6472 21.12C62.0792 21.12 61.5712 20.992 61.1232 20.736C60.6832 20.472 60.3352 20.092 60.0792 19.596C59.8232 19.092 59.6952 18.484 59.6952 17.772C59.6952 16.708 59.9592 15.888 60.4872 15.312C61.0232 14.736 61.7552 14.448 62.6832 14.448C63.2592 14.448 63.7712 14.58 64.2192 14.844C64.6672 15.1 65.0152 15.476 65.2632 15.972C65.5192 16.46 65.6472 17.06 65.6472 17.772ZM60.7872 17.772C60.7872 18.532 60.9352 19.136 61.2312 19.584C61.5352 20.024 62.0152 20.244 62.6712 20.244C63.3192 20.244 63.7952 20.024 64.0992 19.584C64.4032 19.136 64.5552 18.532 64.5552 17.772C64.5552 17.012 64.4032 16.416 64.0992 15.984C63.7952 15.552 63.3152 15.336 62.6592 15.336C62.0032 15.336 61.5272 15.552 61.2312 15.984C60.9352 16.416 60.7872 17.012 60.7872 17.772ZM70.4168 14.448C71.1848 14.448 71.7648 14.636 72.1568 15.012C72.5488 15.388 72.7448 15.988 72.7448 16.812V21H71.7008V16.884C71.7008 15.852 71.2208 15.336 70.2608 15.336C69.5488 15.336 69.0568 15.536 68.7848 15.936C68.5128 16.336 68.3768 16.912 68.3768 17.664V21H67.3208V14.568H68.1728L68.3288 15.444H68.3888C68.5968 15.108 68.8848 14.86 69.2528 14.7C69.6208 14.532 70.0088 14.448 70.4168 14.448ZM77.2228 14.448C77.7668 14.448 78.2388 14.568 78.6388 14.808C79.0388 15.048 79.3428 15.388 79.5508 15.828C79.7668 16.26 79.8748 16.768 79.8748 17.352V17.988H75.4708C75.4868 18.716 75.6708 19.272 76.0228 19.656C76.3828 20.032 76.8828 20.22 77.5228 20.22C77.9308 20.22 78.2908 20.184 78.6028 20.112C78.9228 20.032 79.2508 19.92 79.5868 19.776V20.7C79.2588 20.844 78.9348 20.948 78.6148 21.012C78.2948 21.084 77.9148 21.12 77.4748 21.12C76.8588 21.12 76.3188 20.996 75.8548 20.748C75.3908 20.5 75.0268 20.132 74.7628 19.644C74.5068 19.156 74.3788 18.552 74.3788 17.832C74.3788 17.128 74.4948 16.524 74.7268 16.02C74.9668 15.516 75.2988 15.128 75.7228 14.856C76.1548 14.584 76.6548 14.448 77.2228 14.448ZM77.2108 15.312C76.7068 15.312 76.3068 15.476 76.0108 15.804C75.7228 16.124 75.5508 16.572 75.4948 17.148H78.7708C78.7628 16.604 78.6348 16.164 78.3868 15.828C78.1388 15.484 77.7468 15.312 77.2108 15.312ZM85.1694 12.156C85.3294 12.156 85.4694 12.212 85.5894 12.324C85.7174 12.428 85.7814 12.596 85.7814 12.828C85.7814 13.06 85.7174 13.232 85.5894 13.344C85.4694 13.448 85.3294 13.5 85.1694 13.5C84.9934 13.5 84.8454 13.448 84.7254 13.344C84.6054 13.232 84.5454 13.06 84.5454 12.828C84.5454 12.596 84.6054 12.428 84.7254 12.324C84.8454 12.212 84.9934 12.156 85.1694 12.156ZM85.6854 14.568V21H84.6294V14.568H85.6854ZM90.3031 21.12C89.7271 21.12 89.2191 21.004 88.7791 20.772C88.3391 20.54 87.9911 20.18 87.7351 19.692C87.4871 19.204 87.3631 18.58 87.3631 17.82C87.3631 17.028 87.4911 16.384 87.7471 15.888C88.0111 15.392 88.3711 15.028 88.8271 14.796C89.2831 14.564 89.7991 14.448 90.3751 14.448C90.6951 14.448 91.0071 14.484 91.3111 14.556C91.6231 14.62 91.8751 14.7 92.0671 14.796L91.7431 15.672C91.5511 15.6 91.3271 15.532 91.0711 15.468C90.8151 15.404 90.5751 15.372 90.3511 15.372C89.0871 15.372 88.4551 16.184 88.4551 17.808C88.4551 18.584 88.6071 19.18 88.9111 19.596C89.2231 20.004 89.6831 20.208 90.2911 20.208C90.6351 20.208 90.9431 20.172 91.2151 20.1C91.4871 20.028 91.7351 19.94 91.9591 19.836V20.772C91.7431 20.884 91.5031 20.968 91.2391 21.024C90.9831 21.088 90.6711 21.12 90.3031 21.12ZM99.0807 17.772C99.0807 18.836 98.8088 19.66 98.2648 20.244C97.7288 20.828 97.0008 21.12 96.0808 21.12C95.5128 21.12 95.0048 20.992 94.5568 20.736C94.1168 20.472 93.7688 20.092 93.5128 19.596C93.2568 19.092 93.1288 18.484 93.1288 17.772C93.1288 16.708 93.3928 15.888 93.9208 15.312C94.4568 14.736 95.1888 14.448 96.1168 14.448C96.6928 14.448 97.2048 14.58 97.6528 14.844C98.1008 15.1 98.4488 15.476 98.6968 15.972C98.9528 16.46 99.0807 17.06 99.0807 17.772ZM94.2208 17.772C94.2208 18.532 94.3688 19.136 94.6648 19.584C94.9688 20.024 95.4488 20.244 96.1048 20.244C96.7528 20.244 97.2288 20.024 97.5328 19.584C97.8368 19.136 97.9888 18.532 97.9888 17.772C97.9888 17.012 97.8368 16.416 97.5328 15.984C97.2288 15.552 96.7488 15.336 96.0928 15.336C95.4368 15.336 94.9608 15.552 94.6648 15.984C94.3688 16.416 94.2208 17.012 94.2208 17.772ZM103.85 14.448C104.618 14.448 105.198 14.636 105.59 15.012C105.982 15.388 106.178 15.988 106.178 16.812V21H105.134V16.884C105.134 15.852 104.654 15.336 103.694 15.336C102.982 15.336 102.49 15.536 102.218 15.936C101.946 16.336 101.81 16.912 101.81 17.664V21H100.754V14.568H101.606L101.762 15.444H101.822C102.03 15.108 102.318 14.86 102.686 14.7C103.054 14.532 103.442 14.448 103.85 14.448ZM116.546 20.988L115.442 17.364C115.338 17.036 115.246 16.716 115.166 16.404C115.086 16.092 115.03 15.844 114.998 15.66H114.95C114.918 15.844 114.866 16.092 114.794 16.404C114.722 16.716 114.63 17.04 114.518 17.376L113.366 20.988H112.166L110.402 14.556H111.494L112.382 17.988C112.47 18.332 112.554 18.68 112.634 19.032C112.714 19.384 112.77 19.676 112.802 19.908H112.85C112.874 19.772 112.91 19.604 112.958 19.404C113.006 19.204 113.058 18.996 113.114 18.78C113.17 18.556 113.226 18.356 113.282 18.18L114.422 14.556H115.574L116.678 18.18C116.758 18.46 116.842 18.76 116.93 19.08C117.018 19.4 117.078 19.672 117.11 19.896H117.158C117.182 19.696 117.234 19.42 117.314 19.068C117.402 18.716 117.494 18.356 117.59 17.988L118.49 14.556H119.57L117.782 20.988H116.546ZM121.263 12.156C121.423 12.156 121.563 12.212 121.683 12.324C121.811 12.428 121.875 12.596 121.875 12.828C121.875 13.06 121.811 13.232 121.683 13.344C121.563 13.448 121.423 13.5 121.263 13.5C121.087 13.5 120.939 13.448 120.819 13.344C120.699 13.232 120.639 13.06 120.639 12.828C120.639 12.596 120.699 12.428 120.819 12.324C120.939 12.212 121.087 12.156 121.263 12.156ZM121.779 14.568V21H120.723V14.568H121.779ZM125.965 20.256C126.125 20.256 126.289 20.244 126.457 20.22C126.625 20.196 126.761 20.164 126.865 20.124V20.928C126.753 20.984 126.593 21.028 126.385 21.06C126.177 21.1 125.977 21.12 125.785 21.12C125.449 21.12 125.137 21.064 124.849 20.952C124.569 20.832 124.341 20.628 124.165 20.34C123.989 20.052 123.901 19.648 123.901 19.128V15.384H122.989V14.88L123.913 14.46L124.333 13.092H124.957V14.568H126.817V15.384H124.957V19.104C124.957 19.496 125.049 19.788 125.233 19.98C125.425 20.164 125.669 20.256 125.965 20.256ZM129.209 11.88V14.556C129.209 14.876 129.189 15.176 129.149 15.456H129.221C129.429 15.128 129.709 14.88 130.061 14.712C130.421 14.544 130.809 14.46 131.225 14.46C132.001 14.46 132.585 14.648 132.977 15.024C133.377 15.392 133.577 15.988 133.577 16.812V21H132.533V16.884C132.533 15.852 132.053 15.336 131.093 15.336C130.373 15.336 129.877 15.54 129.605 15.948C129.341 16.348 129.209 16.924 129.209 17.676V21H128.153V11.88H129.209ZM140.968 14.448C141.392 14.448 141.772 14.528 142.108 14.688C142.452 14.848 142.744 15.092 142.984 15.42H143.044L143.188 14.568H144.028V21.108C144.028 22.028 143.792 22.72 143.32 23.184C142.856 23.648 142.132 23.88 141.148 23.88C140.204 23.88 139.432 23.744 138.832 23.472V22.5C139.464 22.836 140.256 23.004 141.208 23.004C141.76 23.004 142.192 22.84 142.504 22.512C142.824 22.192 142.984 21.752 142.984 21.192V20.94C142.984 20.844 142.988 20.708 142.996 20.532C143.004 20.348 143.012 20.22 143.02 20.148H142.972C142.54 20.796 141.876 21.12 140.98 21.12C140.148 21.12 139.496 20.828 139.024 20.244C138.56 19.66 138.328 18.844 138.328 17.796C138.328 16.772 138.56 15.96 139.024 15.36C139.496 14.752 140.144 14.448 140.968 14.448ZM141.112 15.336C140.576 15.336 140.16 15.552 139.864 15.984C139.568 16.408 139.42 17.016 139.42 17.808C139.42 18.6 139.564 19.208 139.852 19.632C140.14 20.048 140.568 20.256 141.136 20.256C141.784 20.256 142.256 20.084 142.552 19.74C142.848 19.388 142.996 18.824 142.996 18.048V17.796C142.996 16.924 142.844 16.296 142.54 15.912C142.236 15.528 141.76 15.336 141.112 15.336ZM149.071 14.448C149.191 14.448 149.319 14.456 149.455 14.472C149.591 14.48 149.715 14.496 149.827 14.52L149.695 15.492C149.591 15.468 149.475 15.448 149.347 15.432C149.219 15.416 149.103 15.408 148.999 15.408C148.671 15.408 148.363 15.5 148.075 15.684C147.787 15.86 147.555 16.112 147.379 16.44C147.211 16.76 147.127 17.136 147.127 17.568V21H146.071V14.568H146.935L147.055 15.744H147.103C147.303 15.392 147.567 15.088 147.895 14.832C148.231 14.576 148.623 14.448 149.071 14.448ZM153.277 14.448C153.821 14.448 154.293 14.568 154.693 14.808C155.093 15.048 155.397 15.388 155.605 15.828C155.821 16.26 155.929 16.768 155.929 17.352V17.988H151.525C151.541 18.716 151.725 19.272 152.077 19.656C152.437 20.032 152.937 20.22 153.577 20.22C153.985 20.22 154.345 20.184 154.657 20.112C154.977 20.032 155.305 19.92 155.641 19.776V20.7C155.313 20.844 154.989 20.948 154.669 21.012C154.349 21.084 153.969 21.12 153.529 21.12C152.913 21.12 152.373 20.996 151.909 20.748C151.445 20.5 151.081 20.132 150.817 19.644C150.561 19.156 150.433 18.552 150.433 17.832C150.433 17.128 150.549 16.524 150.781 16.02C151.021 15.516 151.353 15.128 151.777 14.856C152.209 14.584 152.709 14.448 153.277 14.448ZM153.265 15.312C152.761 15.312 152.361 15.476 152.065 15.804C151.777 16.124 151.605 16.572 151.549 17.148H154.825C154.817 16.604 154.689 16.164 154.441 15.828C154.193 15.484 153.801 15.312 153.265 15.312ZM160.051 14.448C160.595 14.448 161.067 14.568 161.467 14.808C161.867 15.048 162.171 15.388 162.379 15.828C162.595 16.26 162.703 16.768 162.703 17.352V17.988H158.299C158.315 18.716 158.499 19.272 158.851 19.656C159.211 20.032 159.711 20.22 160.351 20.22C160.759 20.22 161.119 20.184 161.431 20.112C161.751 20.032 162.079 19.92 162.415 19.776V20.7C162.087 20.844 161.763 20.948 161.443 21.012C161.123 21.084 160.743 21.12 160.303 21.12C159.687 21.12 159.147 20.996 158.683 20.748C158.219 20.5 157.855 20.132 157.591 19.644C157.335 19.156 157.207 18.552 157.207 17.832C157.207 17.128 157.323 16.524 157.555 16.02C157.795 15.516 158.127 15.128 158.551 14.856C158.983 14.584 159.483 14.448 160.051 14.448ZM160.039 15.312C159.535 15.312 159.135 15.476 158.839 15.804C158.551 16.124 158.379 16.572 158.323 17.148H161.599C161.591 16.604 161.463 16.164 161.215 15.828C160.967 15.484 160.575 15.312 160.039 15.312ZM167.436 14.448C168.204 14.448 168.784 14.636 169.176 15.012C169.568 15.388 169.764 15.988 169.764 16.812V21H168.72V16.884C168.72 15.852 168.24 15.336 167.28 15.336C166.568 15.336 166.076 15.536 165.804 15.936C165.532 16.336 165.396 16.912 165.396 17.664V21H164.34V14.568H165.192L165.348 15.444H165.408C165.616 15.108 165.904 14.86 166.272 14.7C166.64 14.532 167.028 14.448 167.436 14.448ZM177.455 21.12C176.879 21.12 176.371 21.004 175.931 20.772C175.491 20.54 175.143 20.18 174.887 19.692C174.639 19.204 174.515 18.58 174.515 17.82C174.515 17.028 174.643 16.384 174.899 15.888C175.163 15.392 175.523 15.028 175.979 14.796C176.435 14.564 176.951 14.448 177.527 14.448C177.847 14.448 178.159 14.484 178.463 14.556C178.775 14.62 179.027 14.7 179.219 14.796L178.895 15.672C178.703 15.6 178.479 15.532 178.223 15.468C177.967 15.404 177.727 15.372 177.503 15.372C176.239 15.372 175.607 16.184 175.607 17.808C175.607 18.584 175.759 19.18 176.063 19.596C176.375 20.004 176.835 20.208 177.443 20.208C177.787 20.208 178.095 20.172 178.367 20.1C178.639 20.028 178.887 19.94 179.111 19.836V20.772C178.895 20.884 178.655 20.968 178.391 21.024C178.135 21.088 177.823 21.12 177.455 21.12ZM181.697 11.88V14.556C181.697 14.876 181.677 15.176 181.637 15.456H181.709C181.917 15.128 182.197 14.88 182.549 14.712C182.909 14.544 183.297 14.46 183.713 14.46C184.489 14.46 185.073 14.648 185.465 15.024C185.865 15.392 186.065 15.988 186.065 16.812V21H185.021V16.884C185.021 15.852 184.541 15.336 183.581 15.336C182.861 15.336 182.365 15.54 182.093 15.948C181.829 16.348 181.697 16.924 181.697 17.676V21H180.641V11.88H181.697ZM190.543 14.448C191.087 14.448 191.559 14.568 191.959 14.808C192.359 15.048 192.663 15.388 192.871 15.828C193.087 16.26 193.195 16.768 193.195 17.352V17.988H188.791C188.807 18.716 188.991 19.272 189.343 19.656C189.703 20.032 190.203 20.22 190.843 20.22C191.251 20.22 191.611 20.184 191.923 20.112C192.243 20.032 192.571 19.92 192.907 19.776V20.7C192.579 20.844 192.255 20.948 191.935 21.012C191.615 21.084 191.235 21.12 190.795 21.12C190.179 21.12 189.639 20.996 189.175 20.748C188.711 20.5 188.347 20.132 188.083 19.644C187.827 19.156 187.699 18.552 187.699 17.832C187.699 17.128 187.815 16.524 188.047 16.02C188.287 15.516 188.619 15.128 189.043 14.856C189.475 14.584 189.975 14.448 190.543 14.448ZM190.531 15.312C190.027 15.312 189.627 15.476 189.331 15.804C189.043 16.124 188.871 16.572 188.815 17.148H192.091C192.083 16.604 191.955 16.164 191.707 15.828C191.459 15.484 191.067 15.312 190.531 15.312ZM197.413 21.12C196.837 21.12 196.329 21.004 195.889 20.772C195.449 20.54 195.101 20.18 194.845 19.692C194.597 19.204 194.473 18.58 194.473 17.82C194.473 17.028 194.601 16.384 194.857 15.888C195.121 15.392 195.481 15.028 195.937 14.796C196.393 14.564 196.909 14.448 197.485 14.448C197.805 14.448 198.117 14.484 198.421 14.556C198.733 14.62 198.985 14.7 199.177 14.796L198.853 15.672C198.661 15.6 198.437 15.532 198.181 15.468C197.925 15.404 197.685 15.372 197.461 15.372C196.197 15.372 195.565 16.184 195.565 17.808C195.565 18.584 195.717 19.18 196.021 19.596C196.333 20.004 196.793 20.208 197.401 20.208C197.745 20.208 198.053 20.172 198.325 20.1C198.597 20.028 198.845 19.94 199.069 19.836V20.772C198.853 20.884 198.613 20.968 198.349 21.024C198.093 21.088 197.781 21.12 197.413 21.12ZM201.642 11.88V16.644C201.642 16.772 201.634 16.94 201.618 17.148C201.61 17.356 201.602 17.536 201.594 17.688H201.642C201.69 17.624 201.762 17.532 201.858 17.412C201.954 17.292 202.05 17.172 202.146 17.052C202.25 16.924 202.338 16.82 202.41 16.74L204.462 14.568H205.698L203.094 17.316L205.878 21H204.606L202.374 18L201.642 18.636V21H200.598V11.88H201.642ZM214.064 14.448C214.792 14.448 215.336 14.636 215.696 15.012C216.056 15.388 216.236 15.988 216.236 16.812V21H215.192V16.86C215.192 15.844 214.756 15.336 213.884 15.336C213.26 15.336 212.812 15.516 212.54 15.876C212.276 16.236 212.144 16.76 212.144 17.448V21H211.1V16.86C211.1 15.844 210.66 15.336 209.78 15.336C209.132 15.336 208.684 15.536 208.436 15.936C208.188 16.336 208.064 16.912 208.064 17.664V21H207.008V14.568H207.86L208.016 15.444H208.076C208.276 15.108 208.544 14.86 208.88 14.7C209.224 14.532 209.588 14.448 209.972 14.448C210.98 14.448 211.636 14.808 211.94 15.528H212C212.216 15.16 212.508 14.888 212.876 14.712C213.244 14.536 213.64 14.448 214.064 14.448ZM220.659 14.46C221.443 14.46 222.023 14.632 222.399 14.976C222.775 15.32 222.963 15.868 222.963 16.62V21H222.195L221.991 20.088H221.943C221.663 20.44 221.367 20.7 221.055 20.868C220.743 21.036 220.319 21.12 219.783 21.12C219.199 21.12 218.715 20.968 218.331 20.664C217.947 20.352 217.755 19.868 217.755 19.212C217.755 18.572 218.007 18.08 218.511 17.736C219.015 17.384 219.791 17.192 220.839 17.16L221.931 17.124V16.74C221.931 16.204 221.815 15.832 221.583 15.624C221.351 15.416 221.023 15.312 220.599 15.312C220.263 15.312 219.943 15.364 219.639 15.468C219.335 15.564 219.051 15.676 218.787 15.804L218.463 15.012C218.743 14.86 219.075 14.732 219.459 14.628C219.843 14.516 220.243 14.46 220.659 14.46ZM221.919 17.856L220.971 17.892C220.171 17.924 219.615 18.052 219.303 18.276C218.999 18.5 218.847 18.816 218.847 19.224C218.847 19.584 218.955 19.848 219.171 20.016C219.395 20.184 219.679 20.268 220.023 20.268C220.559 20.268 221.007 20.12 221.367 19.824C221.735 19.52 221.919 19.056 221.919 18.432V17.856ZM227.95 14.448C228.07 14.448 228.198 14.456 228.334 14.472C228.47 14.48 228.594 14.496 228.706 14.52L228.574 15.492C228.47 15.468 228.354 15.448 228.226 15.432C228.098 15.416 227.982 15.408 227.878 15.408C227.55 15.408 227.242 15.5 226.954 15.684C226.666 15.86 226.434 16.112 226.258 16.44C226.09 16.76 226.006 17.136 226.006 17.568V21H224.95V14.568H225.814L225.934 15.744H225.982C226.182 15.392 226.446 15.088 226.774 14.832C227.11 14.576 227.502 14.448 227.95 14.448ZM230.951 11.88V16.644C230.951 16.772 230.943 16.94 230.927 17.148C230.919 17.356 230.911 17.536 230.903 17.688H230.951C230.999 17.624 231.071 17.532 231.167 17.412C231.263 17.292 231.359 17.172 231.455 17.052C231.559 16.924 231.647 16.82 231.719 16.74L233.771 14.568H235.007L232.403 17.316L235.187 21H233.915L231.683 18L230.951 18.636V21H229.907V11.88H230.951Z" fill="white"/>
<path d="M117 32H131L124 39L117 32Z" fill="#323232"/>
<g clip-path="url(#clip0_8402_499202)">
<path fill-rule="evenodd" clip-rule="evenodd" d="M115.25 62.7C115.664 62.7 116 63.0358 116 63.45V66.25C116 70.8358 119.764 74.6 124.35 74.6C128.936 74.6 132.7 70.8358 132.7 66.25V63.45C132.7 63.0358 133.036 62.7 133.45 62.7C133.864 62.7 134.2 63.0358 134.2 63.45V66.25C134.2 71.6642 129.764 76.1 124.35 76.1C118.936 76.1 114.5 71.6642 114.5 66.25V63.45C114.5 63.0358 114.836 62.7 115.25 62.7Z" fill="black"/>
<path fill-rule="evenodd" clip-rule="evenodd" d="M124.05 54.5C121.564 54.5 119.6 56.4642 119.6 58.95V66.55C119.6 69.0358 121.564 71 124.05 71H124.75C127.236 71 129.2 69.0358 129.2 66.55V58.95C129.2 56.4642 127.236 54.5 124.75 54.5H124.05ZM118.1 58.95C118.1 55.6358 120.736 53 124.05 53H124.75C128.064 53 130.7 55.6358 130.7 58.95V66.55C130.7 69.8642 128.064 72.5 124.75 72.5H124.05C120.736 72.5 118.1 69.8642 118.1 66.55V58.95Z" fill="black"/>
<path fill-rule="evenodd" clip-rule="evenodd" d="M123.6 80.15V75.35H125.1V80.15H123.6Z" fill="black"/>
<path fill-rule="evenodd" clip-rule="evenodd" d="M118.1 80.15C118.1 79.7358 118.436 79.4 118.85 79.4H129.95C130.364 79.4 130.7 79.7358 130.7 80.15C130.7 80.5642 130.364 80.9 129.95 80.9H118.85C118.436 80.9 118.1 80.5642 118.1 80.15Z" fill="black"/>
<circle cx="132.5" cy="59" r="10" fill="white"/>
<path d="M132.5 50.25C130.769 50.25 129.078 50.7632 127.639 51.7246C126.2 52.6861 125.078 54.0527 124.416 55.6515C123.754 57.2504 123.581 59.0097 123.918 60.707C124.256 62.4044 125.089 63.9635 126.313 65.1872C127.537 66.4109 129.096 67.2442 130.793 67.5819C132.49 67.9195 134.25 67.7462 135.848 67.0839C137.447 66.4217 138.814 65.3002 139.775 63.8612C140.737 62.4223 141.25 60.7306 141.25 59C141.25 56.6794 140.328 54.4538 138.687 52.8128C137.046 51.1719 134.821 50.25 132.5 50.25ZM136.875 56.3312L131.906 62.975C131.832 63.0845 131.734 63.1769 131.621 63.2459C131.508 63.3148 131.382 63.3589 131.25 63.375H131.181C131.058 63.3763 130.936 63.3526 130.822 63.3053C130.708 63.2581 130.605 63.1882 130.519 63.1L127.581 60.1687C127.489 60.0829 127.415 59.9794 127.364 59.8644C127.313 59.7494 127.285 59.6253 127.283 59.4994C127.281 59.3735 127.304 59.2485 127.351 59.1318C127.398 59.015 127.468 58.909 127.557 58.82C127.646 58.7309 127.753 58.6607 127.869 58.6136C127.986 58.5664 128.111 58.5433 128.237 58.5455C128.363 58.5477 128.487 58.5753 128.602 58.6265C128.717 58.6778 128.82 58.7516 128.906 58.8438L131.05 60.9875L135.375 55.2062C135.524 55.0073 135.746 54.8758 135.992 54.8407C136.239 54.8055 136.489 54.8696 136.688 55.0188C136.886 55.1679 137.018 55.39 137.053 55.6362C137.088 55.8823 137.024 56.1323 136.875 56.3312Z" fill="#088A08"/>
</g>
<defs>
<clipPath id="clip0_8402_499202">
<rect width="34" height="34" fill="white" transform="translate(108.5 49)"/>
</clipPath>
</defs>
</svg>
