<svg width="278" height="112" viewBox="0 0 278 112" fill="none" xmlns="http://www.w3.org/2000/svg">
<path d="M14.142 29.97C13.0687 29.97 12.224 30.3293 11.608 31.048C10.992 31.7667 10.684 32.7513 10.684 34.002C10.684 35.2433 10.9687 36.228 11.538 36.956C12.1167 37.6747 12.98 38.034 14.128 38.034C14.5573 38.034 14.968 37.9967 15.36 37.922C15.752 37.8473 16.1393 37.754 16.522 37.642V38.734C16.1487 38.874 15.7613 38.9767 15.36 39.042C14.968 39.1073 14.4967 39.14 13.946 39.14C12.9287 39.14 12.0793 38.93 11.398 38.51C10.7167 38.09 10.2033 37.4927 9.858 36.718C9.522 35.9433 9.354 35.0333 9.354 33.988C9.354 32.98 9.536 32.0933 9.9 31.328C10.2733 30.5533 10.8193 29.9513 11.538 29.522C12.2567 29.0833 13.1293 28.864 14.156 28.864C15.2107 28.864 16.13 29.06 16.914 29.452L16.41 30.516C16.102 30.376 15.7567 30.25 15.374 30.138C15.0007 30.026 14.59 29.97 14.142 29.97ZM22.0357 31.356C22.1757 31.356 22.325 31.3653 22.4837 31.384C22.6424 31.3933 22.787 31.412 22.9177 31.44L22.7637 32.574C22.6424 32.546 22.507 32.5227 22.3577 32.504C22.2084 32.4853 22.073 32.476 21.9517 32.476C21.569 32.476 21.2097 32.5833 20.8737 32.798C20.5377 33.0033 20.267 33.2973 20.0617 33.68C19.8657 34.0533 19.7677 34.492 19.7677 34.996V39H18.5357V31.496H19.5437L19.6837 32.868H19.7397C19.973 32.4573 20.281 32.1027 20.6637 31.804C21.0557 31.5053 21.513 31.356 22.0357 31.356ZM26.9435 31.356C27.5781 31.356 28.1288 31.496 28.5955 31.776C29.0621 32.056 29.4168 32.4527 29.6595 32.966C29.9115 33.47 30.0375 34.0627 30.0375 34.744V35.486H24.8995C24.9181 36.3353 25.1328 36.984 25.5435 37.432C25.9635 37.8707 26.5468 38.09 27.2935 38.09C27.7695 38.09 28.1895 38.048 28.5535 37.964C28.9268 37.8707 29.3095 37.74 29.7015 37.572V38.65C29.3188 38.818 28.9408 38.9393 28.5675 39.014C28.1941 39.098 27.7508 39.14 27.2375 39.14C26.5188 39.14 25.8888 38.9953 25.3475 38.706C24.8061 38.4167 24.3815 37.9873 24.0735 37.418C23.7748 36.8487 23.6255 36.144 23.6255 35.304C23.6255 34.4827 23.7608 33.778 24.0315 33.19C24.3115 32.602 24.6988 32.1493 25.1935 31.832C25.6975 31.5147 26.2808 31.356 26.9435 31.356ZM26.9295 32.364C26.3415 32.364 25.8748 32.5553 25.5295 32.938C25.1935 33.3113 24.9928 33.834 24.9275 34.506H28.7495C28.7401 33.8713 28.5908 33.358 28.3015 32.966C28.0121 32.5647 27.5548 32.364 26.9295 32.364ZM34.7898 31.37C35.7045 31.37 36.3811 31.5707 36.8198 31.972C37.2585 32.3733 37.4778 33.0127 37.4778 33.89V39H36.5818L36.3438 37.936H36.2878C35.9611 38.3467 35.6158 38.65 35.2518 38.846C34.8878 39.042 34.3931 39.14 33.7678 39.14C33.0865 39.14 32.5218 38.9627 32.0738 38.608C31.6258 38.244 31.4018 37.6793 31.4018 36.914C31.4018 36.1673 31.6958 35.5933 32.2838 35.192C32.8718 34.7813 33.7771 34.5573 34.9998 34.52L36.2738 34.478V34.03C36.2738 33.4047 36.1385 32.9707 35.8678 32.728C35.5971 32.4853 35.2145 32.364 34.7198 32.364C34.3278 32.364 33.9545 32.4247 33.5998 32.546C33.2451 32.658 32.9138 32.7887 32.6058 32.938L32.2278 32.014C32.5545 31.8367 32.9418 31.6873 33.3898 31.566C33.8378 31.4353 34.3045 31.37 34.7898 31.37ZM36.2598 35.332L35.1538 35.374C34.2205 35.4113 33.5718 35.5607 33.2078 35.822C32.8531 36.0833 32.6758 36.452 32.6758 36.928C32.6758 37.348 32.8018 37.656 33.0538 37.852C33.3151 38.048 33.6465 38.146 34.0478 38.146C34.6731 38.146 35.1958 37.9733 35.6158 37.628C36.0451 37.2733 36.2598 36.732 36.2598 36.004V35.332ZM42.3015 38.132C42.4881 38.132 42.6795 38.118 42.8755 38.09C43.0715 38.062 43.2301 38.0247 43.3515 37.978V38.916C43.2208 38.9813 43.0341 39.0327 42.7915 39.07C42.5488 39.1167 42.3155 39.14 42.0915 39.14C41.6995 39.14 41.3355 39.0747 40.9995 38.944C40.6728 38.804 40.4068 38.566 40.2015 38.23C39.9961 37.894 39.8935 37.4227 39.8935 36.816V32.448H38.8295V31.86L39.9075 31.37L40.3975 29.774H41.1255V31.496H43.2955V32.448H41.1255V36.788C41.1255 37.2453 41.2328 37.586 41.4475 37.81C41.6715 38.0247 41.9561 38.132 42.3015 38.132ZM47.7521 31.356C48.3867 31.356 48.9374 31.496 49.4041 31.776C49.8707 32.056 50.2254 32.4527 50.4681 32.966C50.7201 33.47 50.8461 34.0627 50.8461 34.744V35.486H45.7081C45.7267 36.3353 45.9414 36.984 46.3521 37.432C46.7721 37.8707 47.3554 38.09 48.1021 38.09C48.5781 38.09 48.9981 38.048 49.3621 37.964C49.7354 37.8707 50.1181 37.74 50.5101 37.572V38.65C50.1274 38.818 49.7494 38.9393 49.3761 39.014C49.0027 39.098 48.5594 39.14 48.0461 39.14C47.3274 39.14 46.6974 38.9953 46.1561 38.706C45.6147 38.4167 45.1901 37.9873 44.8821 37.418C44.5834 36.8487 44.4341 36.144 44.4341 35.304C44.4341 34.4827 44.5694 33.778 44.8401 33.19C45.1201 32.602 45.5074 32.1493 46.0021 31.832C46.5061 31.5147 47.0894 31.356 47.7521 31.356ZM47.7381 32.364C47.1501 32.364 46.6834 32.5553 46.3381 32.938C46.0021 33.3113 45.8014 33.834 45.7361 34.506H49.5581C49.5487 33.8713 49.3994 33.358 49.1101 32.966C48.8207 32.5647 48.3634 32.364 47.7381 32.364ZM59.2071 29.004C60.5138 29.004 61.4658 29.2607 62.0631 29.774C62.6605 30.2873 62.9591 31.0107 62.9591 31.944C62.9591 32.4947 62.8331 33.0127 62.5811 33.498C62.3385 33.974 61.9231 34.3613 61.3351 34.66C60.7565 34.9587 59.9678 35.108 58.9691 35.108H57.8211V39H56.5611V29.004H59.2071ZM59.0951 30.082H57.8211V34.03H58.8291C59.7811 34.03 60.4905 33.876 60.9571 33.568C61.4238 33.26 61.6571 32.7373 61.6571 32C61.6571 31.356 61.4471 30.8753 61.0271 30.558C60.6165 30.2407 59.9725 30.082 59.0951 30.082ZM67.7117 31.37C68.6264 31.37 69.303 31.5707 69.7417 31.972C70.1804 32.3733 70.3997 33.0127 70.3997 33.89V39H69.5037L69.2657 37.936H69.2097C68.883 38.3467 68.5377 38.65 68.1737 38.846C67.8097 39.042 67.315 39.14 66.6897 39.14C66.0084 39.14 65.4437 38.9627 64.9957 38.608C64.5477 38.244 64.3237 37.6793 64.3237 36.914C64.3237 36.1673 64.6177 35.5933 65.2057 35.192C65.7937 34.7813 66.699 34.5573 67.9217 34.52L69.1957 34.478V34.03C69.1957 33.4047 69.0604 32.9707 68.7897 32.728C68.519 32.4853 68.1364 32.364 67.6417 32.364C67.2497 32.364 66.8764 32.4247 66.5217 32.546C66.167 32.658 65.8357 32.7887 65.5277 32.938L65.1497 32.014C65.4764 31.8367 65.8637 31.6873 66.3117 31.566C66.7597 31.4353 67.2264 31.37 67.7117 31.37ZM69.1817 35.332L68.0757 35.374C67.1424 35.4113 66.4937 35.5607 66.1297 35.822C65.775 36.0833 65.5977 36.452 65.5977 36.928C65.5977 37.348 65.7237 37.656 65.9757 37.852C66.237 38.048 66.5684 38.146 66.9697 38.146C67.595 38.146 68.1177 37.9733 68.5377 37.628C68.967 37.2733 69.1817 36.732 69.1817 36.004V35.332ZM77.6033 36.928C77.6033 37.656 77.3327 38.2067 76.7913 38.58C76.25 38.9533 75.522 39.14 74.6073 39.14C74.0847 39.14 73.632 39.098 73.2493 39.014C72.876 38.93 72.5447 38.8133 72.2553 38.664V37.544C72.554 37.6933 72.9133 37.8333 73.3333 37.964C73.7627 38.0853 74.1967 38.146 74.6353 38.146C75.2607 38.146 75.7133 38.048 75.9933 37.852C76.2733 37.6467 76.4133 37.376 76.4133 37.04C76.4133 36.8533 76.362 36.6853 76.2593 36.536C76.1567 36.3867 75.97 36.2373 75.6993 36.088C75.438 35.9387 75.06 35.7707 74.5653 35.584C74.08 35.3973 73.6647 35.2107 73.3193 35.024C72.974 34.8373 72.708 34.6133 72.5213 34.352C72.3347 34.0907 72.2413 33.7547 72.2413 33.344C72.2413 32.7093 72.498 32.2193 73.0113 31.874C73.534 31.5287 74.2153 31.356 75.0553 31.356C75.5127 31.356 75.9373 31.4027 76.3293 31.496C76.7307 31.5893 77.104 31.7107 77.4493 31.86L77.0293 32.84C76.712 32.7093 76.3807 32.5973 76.0353 32.504C75.69 32.4107 75.3353 32.364 74.9713 32.364C74.4673 32.364 74.08 32.448 73.8093 32.616C73.548 32.7747 73.4173 32.994 73.4173 33.274C73.4173 33.4887 73.478 33.666 73.5993 33.806C73.7207 33.946 73.9213 34.086 74.2013 34.226C74.4907 34.366 74.8733 34.5247 75.3493 34.702C75.8253 34.8793 76.2313 35.0613 76.5673 35.248C76.9033 35.4347 77.16 35.6633 77.3373 35.934C77.5147 36.1953 77.6033 36.5267 77.6033 36.928ZM84.3026 36.928C84.3026 37.656 84.0319 38.2067 83.4906 38.58C82.9492 38.9533 82.2212 39.14 81.3066 39.14C80.7839 39.14 80.3312 39.098 79.9486 39.014C79.5752 38.93 79.2439 38.8133 78.9546 38.664V37.544C79.2532 37.6933 79.6126 37.8333 80.0326 37.964C80.4619 38.0853 80.8959 38.146 81.3346 38.146C81.9599 38.146 82.4126 38.048 82.6926 37.852C82.9726 37.6467 83.1126 37.376 83.1126 37.04C83.1126 36.8533 83.0612 36.6853 82.9586 36.536C82.8559 36.3867 82.6692 36.2373 82.3986 36.088C82.1372 35.9387 81.7592 35.7707 81.2646 35.584C80.7792 35.3973 80.3639 35.2107 80.0186 35.024C79.6732 34.8373 79.4072 34.6133 79.2206 34.352C79.0339 34.0907 78.9406 33.7547 78.9406 33.344C78.9406 32.7093 79.1972 32.2193 79.7106 31.874C80.2332 31.5287 80.9146 31.356 81.7546 31.356C82.2119 31.356 82.6366 31.4027 83.0286 31.496C83.4299 31.5893 83.8032 31.7107 84.1486 31.86L83.7286 32.84C83.4112 32.7093 83.0799 32.5973 82.7346 32.504C82.3892 32.4107 82.0346 32.364 81.6706 32.364C81.1666 32.364 80.7792 32.448 80.5086 32.616C80.2472 32.7747 80.1166 32.994 80.1166 33.274C80.1166 33.4887 80.1772 33.666 80.2986 33.806C80.4199 33.946 80.6206 34.086 80.9006 34.226C81.1899 34.366 81.5726 34.5247 82.0486 34.702C82.5246 34.8793 82.9306 35.0613 83.2666 35.248C83.6026 35.4347 83.8592 35.6633 84.0366 35.934C84.2139 36.1953 84.3026 36.5267 84.3026 36.928ZM92.2478 38.986L90.9598 34.758C90.8384 34.3753 90.7311 34.002 90.6378 33.638C90.5444 33.274 90.4791 32.9847 90.4418 32.77H90.3858C90.3484 32.9847 90.2878 33.274 90.2038 33.638C90.1198 34.002 90.0124 34.38 89.8818 34.772L88.5378 38.986H87.1378L85.0798 31.482H86.3538L87.3898 35.486C87.4924 35.8873 87.5904 36.2933 87.6838 36.704C87.7771 37.1147 87.8424 37.4553 87.8798 37.726H87.9358C87.9638 37.5673 88.0058 37.3713 88.0618 37.138C88.1178 36.9047 88.1784 36.662 88.2438 36.41C88.3091 36.1487 88.3744 35.9153 88.4398 35.71L89.7698 31.482H91.1138L92.4018 35.71C92.4951 36.0367 92.5931 36.3867 92.6958 36.76C92.7984 37.1333 92.8684 37.4507 92.9058 37.712H92.9618C92.9898 37.4787 93.0504 37.1567 93.1438 36.746C93.2464 36.3353 93.3538 35.9153 93.4658 35.486L94.5158 31.482H95.7758L93.6898 38.986H92.2478ZM103.646 35.234C103.646 36.4753 103.328 37.4367 102.694 38.118C102.068 38.7993 101.219 39.14 100.146 39.14C99.483 39.14 98.8903 38.9907 98.3676 38.692C97.8543 38.384 97.4483 37.9407 97.1496 37.362C96.851 36.774 96.7016 36.0647 96.7016 35.234C96.7016 33.9927 97.0096 33.036 97.6256 32.364C98.251 31.692 99.105 31.356 100.188 31.356C100.86 31.356 101.457 31.51 101.98 31.818C102.502 32.1167 102.908 32.5553 103.198 33.134C103.496 33.7033 103.646 34.4033 103.646 35.234ZM97.9756 35.234C97.9756 36.1207 98.1483 36.8253 98.4936 37.348C98.8483 37.8613 99.4083 38.118 100.174 38.118C100.93 38.118 101.485 37.8613 101.84 37.348C102.194 36.8253 102.372 36.1207 102.372 35.234C102.372 34.3473 102.194 33.652 101.84 33.148C101.485 32.644 100.925 32.392 100.16 32.392C99.3943 32.392 98.839 32.644 98.4936 33.148C98.1483 33.652 97.9756 34.3473 97.9756 35.234ZM109.098 31.356C109.238 31.356 109.388 31.3653 109.546 31.384C109.705 31.3933 109.85 31.412 109.98 31.44L109.826 32.574C109.705 32.546 109.57 32.5227 109.42 32.504C109.271 32.4853 109.136 32.476 109.014 32.476C108.632 32.476 108.272 32.5833 107.936 32.798C107.6 33.0033 107.33 33.2973 107.124 33.68C106.928 34.0533 106.83 34.492 106.83 34.996V39H105.598V31.496H106.606L106.746 32.868H106.802C107.036 32.4573 107.344 32.1027 107.726 31.804C108.118 31.5053 108.576 31.356 109.098 31.356ZM113.768 39.14C112.835 39.14 112.088 38.818 111.528 38.174C110.968 37.5207 110.688 36.55 110.688 35.262C110.688 33.974 110.968 33.0033 111.528 32.35C112.097 31.6873 112.849 31.356 113.782 31.356C114.361 31.356 114.832 31.4633 115.196 31.678C115.569 31.8927 115.873 32.154 116.106 32.462H116.19C116.171 32.3407 116.153 32.1633 116.134 31.93C116.115 31.6873 116.106 31.496 116.106 31.356V28.36H117.338V39H116.344L116.162 37.992H116.106C115.882 38.3093 115.583 38.58 115.21 38.804C114.837 39.028 114.356 39.14 113.768 39.14ZM113.964 38.118C114.757 38.118 115.313 37.9033 115.63 37.474C115.957 37.0353 116.12 36.3773 116.12 35.5V35.276C116.12 34.3427 115.966 33.6287 115.658 33.134C115.35 32.63 114.781 32.378 113.95 32.378C113.287 32.378 112.788 32.644 112.452 33.176C112.125 33.6987 111.962 34.4033 111.962 35.29C111.962 36.186 112.125 36.8813 112.452 37.376C112.788 37.8707 113.292 38.118 113.964 38.118Z" fill="black"/>
<path d="M11.932 60.432C13.052 60.432 13.868 60.652 14.38 61.092C14.892 61.532 15.148 62.152 15.148 62.952C15.148 63.424 15.04 63.868 14.824 64.284C14.616 64.692 14.26 65.024 13.756 65.28C13.26 65.536 12.584 65.664 11.728 65.664H10.744V69H9.664V60.432H11.932ZM11.836 61.356H10.744V64.74H11.608C12.424 64.74 13.032 64.608 13.432 64.344C13.832 64.08 14.032 63.632 14.032 63C14.032 62.448 13.852 62.036 13.492 61.764C13.14 61.492 12.588 61.356 11.836 61.356ZM19.2216 62.46C20.0056 62.46 20.5856 62.632 20.9616 62.976C21.3376 63.32 21.5256 63.868 21.5256 64.62V69H20.7576L20.5536 68.088H20.5056C20.2256 68.44 19.9296 68.7 19.6176 68.868C19.3056 69.036 18.8816 69.12 18.3456 69.12C17.7616 69.12 17.2776 68.968 16.8936 68.664C16.5096 68.352 16.3176 67.868 16.3176 67.212C16.3176 66.572 16.5696 66.08 17.0736 65.736C17.5776 65.384 18.3536 65.192 19.4016 65.16L20.4936 65.124V64.74C20.4936 64.204 20.3776 63.832 20.1456 63.624C19.9136 63.416 19.5856 63.312 19.1616 63.312C18.8256 63.312 18.5056 63.364 18.2016 63.468C17.8976 63.564 17.6136 63.676 17.3496 63.804L17.0256 63.012C17.3056 62.86 17.6376 62.732 18.0216 62.628C18.4056 62.516 18.8056 62.46 19.2216 62.46ZM20.4816 65.856L19.5336 65.892C18.7336 65.924 18.1776 66.052 17.8656 66.276C17.5616 66.5 17.4096 66.816 17.4096 67.224C17.4096 67.584 17.5176 67.848 17.7336 68.016C17.9576 68.184 18.2416 68.268 18.5856 68.268C19.1216 68.268 19.5696 68.12 19.9296 67.824C20.2976 67.52 20.4816 67.056 20.4816 66.432V65.856ZM27.7002 67.224C27.7002 67.848 27.4682 68.32 27.0042 68.64C26.5402 68.96 25.9162 69.12 25.1322 69.12C24.6842 69.12 24.2962 69.084 23.9682 69.012C23.6482 68.94 23.3642 68.84 23.1162 68.712V67.752C23.3722 67.88 23.6802 68 24.0402 68.112C24.4082 68.216 24.7802 68.268 25.1562 68.268C25.6922 68.268 26.0802 68.184 26.3202 68.016C26.5602 67.84 26.6802 67.608 26.6802 67.32C26.6802 67.16 26.6362 67.016 26.5482 66.888C26.4602 66.76 26.3002 66.632 26.0682 66.504C25.8442 66.376 25.5202 66.232 25.0962 66.072C24.6802 65.912 24.3242 65.752 24.0282 65.592C23.7322 65.432 23.5042 65.24 23.3442 65.016C23.1842 64.792 23.1042 64.504 23.1042 64.152C23.1042 63.608 23.3242 63.188 23.7642 62.892C24.2122 62.596 24.7962 62.448 25.5162 62.448C25.9082 62.448 26.2722 62.488 26.6082 62.568C26.9522 62.648 27.2722 62.752 27.5682 62.88L27.2082 63.72C26.9362 63.608 26.6522 63.512 26.3562 63.432C26.0602 63.352 25.7562 63.312 25.4442 63.312C25.0122 63.312 24.6802 63.384 24.4482 63.528C24.2242 63.664 24.1122 63.852 24.1122 64.092C24.1122 64.276 24.1642 64.428 24.2682 64.548C24.3722 64.668 24.5442 64.788 24.7842 64.908C25.0322 65.028 25.3602 65.164 25.7682 65.316C26.1762 65.468 26.5242 65.624 26.8122 65.784C27.1002 65.944 27.3202 66.14 27.4722 66.372C27.6242 66.596 27.7002 66.88 27.7002 67.224ZM33.4424 67.224C33.4424 67.848 33.2104 68.32 32.7464 68.64C32.2824 68.96 31.6584 69.12 30.8744 69.12C30.4264 69.12 30.0384 69.084 29.7104 69.012C29.3904 68.94 29.1064 68.84 28.8584 68.712V67.752C29.1144 67.88 29.4224 68 29.7824 68.112C30.1504 68.216 30.5224 68.268 30.8984 68.268C31.4344 68.268 31.8224 68.184 32.0624 68.016C32.3024 67.84 32.4224 67.608 32.4224 67.32C32.4224 67.16 32.3784 67.016 32.2904 66.888C32.2024 66.76 32.0424 66.632 31.8104 66.504C31.5864 66.376 31.2624 66.232 30.8384 66.072C30.4224 65.912 30.0664 65.752 29.7704 65.592C29.4744 65.432 29.2464 65.24 29.0864 65.016C28.9264 64.792 28.8464 64.504 28.8464 64.152C28.8464 63.608 29.0664 63.188 29.5064 62.892C29.9544 62.596 30.5384 62.448 31.2584 62.448C31.6504 62.448 32.0144 62.488 32.3504 62.568C32.6944 62.648 33.0144 62.752 33.3104 62.88L32.9504 63.72C32.6784 63.608 32.3944 63.512 32.0984 63.432C31.8024 63.352 31.4984 63.312 31.1864 63.312C30.7544 63.312 30.4224 63.384 30.1904 63.528C29.9664 63.664 29.8544 63.852 29.8544 64.092C29.8544 64.276 29.9064 64.428 30.0104 64.548C30.1144 64.668 30.2864 64.788 30.5264 64.908C30.7744 65.028 31.1024 65.164 31.5104 65.316C31.9184 65.468 32.2664 65.624 32.5544 65.784C32.8424 65.944 33.0624 66.14 33.2144 66.372C33.3664 66.596 33.4424 66.88 33.4424 67.224ZM40.2526 68.988L39.1486 65.364C39.0446 65.036 38.9526 64.716 38.8726 64.404C38.7926 64.092 38.7366 63.844 38.7046 63.66H38.6566C38.6246 63.844 38.5726 64.092 38.5006 64.404C38.4286 64.716 38.3366 65.04 38.2246 65.376L37.0726 68.988H35.8726L34.1086 62.556H35.2006L36.0886 65.988C36.1766 66.332 36.2606 66.68 36.3406 67.032C36.4206 67.384 36.4766 67.676 36.5086 67.908H36.5566C36.5806 67.772 36.6166 67.604 36.6646 67.404C36.7126 67.204 36.7646 66.996 36.8206 66.78C36.8766 66.556 36.9326 66.356 36.9886 66.18L38.1286 62.556H39.2806L40.3846 66.18C40.4646 66.46 40.5486 66.76 40.6366 67.08C40.7246 67.4 40.7846 67.672 40.8166 67.896H40.8646C40.8886 67.696 40.9406 67.42 41.0206 67.068C41.1086 66.716 41.2006 66.356 41.2966 65.988L42.1966 62.556H43.2766L41.4886 68.988H40.2526ZM50.0222 65.772C50.0222 66.836 49.7502 67.66 49.2062 68.244C48.6702 68.828 47.9422 69.12 47.0222 69.12C46.4542 69.12 45.9462 68.992 45.4982 68.736C45.0582 68.472 44.7102 68.092 44.4542 67.596C44.1982 67.092 44.0702 66.484 44.0702 65.772C44.0702 64.708 44.3342 63.888 44.8622 63.312C45.3982 62.736 46.1302 62.448 47.0582 62.448C47.6342 62.448 48.1462 62.58 48.5942 62.844C49.0422 63.1 49.3902 63.476 49.6382 63.972C49.8942 64.46 50.0222 65.06 50.0222 65.772ZM45.1622 65.772C45.1622 66.532 45.3102 67.136 45.6062 67.584C45.9102 68.024 46.3902 68.244 47.0462 68.244C47.6942 68.244 48.1702 68.024 48.4742 67.584C48.7782 67.136 48.9302 66.532 48.9302 65.772C48.9302 65.012 48.7782 64.416 48.4742 63.984C48.1702 63.552 47.6902 63.336 47.0342 63.336C46.3782 63.336 45.9022 63.552 45.6062 63.984C45.3102 64.416 45.1622 65.012 45.1622 65.772ZM54.6958 62.448C54.8158 62.448 54.9438 62.456 55.0798 62.472C55.2158 62.48 55.3398 62.496 55.4518 62.52L55.3198 63.492C55.2158 63.468 55.0998 63.448 54.9718 63.432C54.8438 63.416 54.7278 63.408 54.6238 63.408C54.2958 63.408 53.9878 63.5 53.6998 63.684C53.4118 63.86 53.1798 64.112 53.0038 64.44C52.8358 64.76 52.7518 65.136 52.7518 65.568V69H51.6958V62.568H52.5598L52.6798 63.744H52.7278C52.9278 63.392 53.1918 63.088 53.5198 62.832C53.8558 62.576 54.2478 62.448 54.6958 62.448ZM58.6984 69.12C57.8984 69.12 57.2584 68.844 56.7784 68.292C56.2984 67.732 56.0584 66.9 56.0584 65.796C56.0584 64.692 56.2984 63.86 56.7784 63.3C57.2664 62.732 57.9104 62.448 58.7104 62.448C59.2064 62.448 59.6104 62.54 59.9224 62.724C60.2424 62.908 60.5024 63.132 60.7024 63.396H60.7744C60.7584 63.292 60.7424 63.14 60.7264 62.94C60.7104 62.732 60.7024 62.568 60.7024 62.448V59.88H61.7584V69H60.9064L60.7504 68.136H60.7024C60.5104 68.408 60.2544 68.64 59.9344 68.832C59.6144 69.024 59.2024 69.12 58.6984 69.12ZM58.8664 68.244C59.5464 68.244 60.0224 68.06 60.2944 67.692C60.5744 67.316 60.7144 66.752 60.7144 66V65.808C60.7144 65.008 60.5824 64.396 60.3184 63.972C60.0544 63.54 59.5664 63.324 58.8544 63.324C58.2864 63.324 57.8584 63.552 57.5704 64.008C57.2904 64.456 57.1504 65.06 57.1504 65.82C57.1504 66.588 57.2904 67.184 57.5704 67.608C57.8584 68.032 58.2904 68.244 58.8664 68.244Z" fill="#323232"/>
<path d="M69.364 59.88L69.124 62.184L71.428 61.536L71.596 62.64L69.388 62.82L70.816 64.716L69.784 65.28L68.764 63.18L67.84 65.28L66.772 64.716L68.176 62.82L65.992 62.64L66.16 61.536L68.44 62.184L68.188 59.88H69.364Z" fill="#AB2C2C"/>
<rect x="9" y="76.5" width="199" height="35" rx="1.5" fill="white"/>
<path d="M25.008 88.36L24.728 91.048L27.416 90.292L27.612 91.58L25.036 91.79L26.702 94.002L25.498 94.66L24.308 92.21L23.23 94.66L21.984 94.002L23.622 91.79L21.074 91.58L21.27 90.292L23.93 91.048L23.636 88.36H25.008ZM32.7189 88.36L32.4389 91.048L35.1269 90.292L35.3229 91.58L32.7469 91.79L34.4129 94.002L33.2089 94.66L32.0189 92.21L30.9409 94.66L29.6949 94.002L31.3329 91.79L28.7849 91.58L28.9809 90.292L31.6409 91.048L31.3469 88.36H32.7189ZM40.4299 88.36L40.1499 91.048L42.8379 90.292L43.0339 91.58L40.4579 91.79L42.1239 94.002L40.9199 94.66L39.7299 92.21L38.6519 94.66L37.4059 94.002L39.0439 91.79L36.4959 91.58L36.6919 90.292L39.3519 91.048L39.0579 88.36H40.4299ZM48.1408 88.36L47.8608 91.048L50.5488 90.292L50.7448 91.58L48.1688 91.79L49.8348 94.002L48.6308 94.66L47.4408 92.21L46.3628 94.66L45.1168 94.002L46.7548 91.79L44.2068 91.58L44.4028 90.292L47.0628 91.048L46.7688 88.36H48.1408ZM55.8518 88.36L55.5718 91.048L58.2598 90.292L58.4558 91.58L55.8798 91.79L57.5458 94.002L56.3418 94.66L55.1518 92.21L54.0738 94.66L52.8278 94.002L54.4658 91.79L51.9178 91.58L52.1138 90.292L54.7738 91.048L54.4798 88.36H55.8518ZM63.5627 88.36L63.2827 91.048L65.9707 90.292L66.1667 91.58L63.5907 91.79L65.2567 94.002L64.0527 94.66L62.8627 92.21L61.7847 94.66L60.5387 94.002L62.1767 91.79L59.6287 91.58L59.8247 90.292L62.4847 91.048L62.1907 88.36H63.5627ZM71.2736 88.36L70.9936 91.048L73.6816 90.292L73.8776 91.58L71.3016 91.79L72.9676 94.002L71.7636 94.66L70.5736 92.21L69.4956 94.66L68.2496 94.002L69.8876 91.79L67.3396 91.58L67.5356 90.292L70.1956 91.048L69.9016 88.36H71.2736ZM78.9846 88.36L78.7046 91.048L81.3926 90.292L81.5886 91.58L79.0126 91.79L80.6786 94.002L79.4746 94.66L78.2846 92.21L77.2066 94.66L75.9606 94.002L77.5986 91.79L75.0506 91.58L75.2466 90.292L77.9066 91.048L77.6126 88.36H78.9846ZM86.6955 88.36L86.4155 91.048L89.1035 90.292L89.2995 91.58L86.7235 91.79L88.3895 94.002L87.1855 94.66L85.9955 92.21L84.9175 94.66L83.6715 94.002L85.3095 91.79L82.7615 91.58L82.9575 90.292L85.6175 91.048L85.3235 88.36H86.6955ZM94.4064 88.36L94.1264 91.048L96.8144 90.292L97.0104 91.58L94.4344 91.79L96.1004 94.002L94.8964 94.66L93.7064 92.21L92.6284 94.66L91.3824 94.002L93.0204 91.79L90.4724 91.58L90.6684 90.292L93.3284 91.048L93.0344 88.36H94.4064ZM102.117 88.36L101.837 91.048L104.525 90.292L104.721 91.58L102.145 91.79L103.811 94.002L102.607 94.66L101.417 92.21L100.339 94.66L99.0934 94.002L100.731 91.79L98.1834 91.58L98.3794 90.292L101.039 91.048L100.745 88.36H102.117ZM109.828 88.36L109.548 91.048L112.236 90.292L112.432 91.58L109.856 91.79L111.522 94.002L110.318 94.66L109.128 92.21L108.05 94.66L106.804 94.002L108.442 91.79L105.894 91.58L106.09 90.292L108.75 91.048L108.456 88.36H109.828Z" fill="black"/>
<rect x="9" y="76.5" width="199" height="35" rx="1.5" stroke="#939393"/>
<path d="M82.5001 48L95.2366 48L88.8683 53.4194L82.5001 48Z" fill="#323232"/>
<rect x="0.5" width="277" height="48" rx="4" fill="#323232"/>
<path d="M15.932 12.432C17.052 12.432 17.868 12.652 18.38 13.092C18.892 13.532 19.148 14.152 19.148 14.952C19.148 15.424 19.04 15.868 18.824 16.284C18.616 16.692 18.26 17.024 17.756 17.28C17.26 17.536 16.584 17.664 15.728 17.664H14.744V21H13.664V12.432H15.932ZM15.836 13.356H14.744V16.74H15.608C16.424 16.74 17.032 16.608 17.432 16.344C17.832 16.08 18.032 15.632 18.032 15C18.032 14.448 17.852 14.036 17.492 13.764C17.14 13.492 16.588 13.356 15.836 13.356ZM23.2216 14.46C24.0056 14.46 24.5856 14.632 24.9616 14.976C25.3376 15.32 25.5256 15.868 25.5256 16.62V21H24.7576L24.5536 20.088H24.5056C24.2256 20.44 23.9296 20.7 23.6176 20.868C23.3056 21.036 22.8816 21.12 22.3456 21.12C21.7616 21.12 21.2776 20.968 20.8936 20.664C20.5096 20.352 20.3176 19.868 20.3176 19.212C20.3176 18.572 20.5696 18.08 21.0736 17.736C21.5776 17.384 22.3536 17.192 23.4016 17.16L24.4936 17.124V16.74C24.4936 16.204 24.3776 15.832 24.1456 15.624C23.9136 15.416 23.5856 15.312 23.1616 15.312C22.8256 15.312 22.5056 15.364 22.2016 15.468C21.8976 15.564 21.6136 15.676 21.3496 15.804L21.0256 15.012C21.3056 14.86 21.6376 14.732 22.0216 14.628C22.4056 14.516 22.8056 14.46 23.2216 14.46ZM24.4816 17.856L23.5336 17.892C22.7336 17.924 22.1776 18.052 21.8656 18.276C21.5616 18.5 21.4096 18.816 21.4096 19.224C21.4096 19.584 21.5176 19.848 21.7336 20.016C21.9576 20.184 22.2416 20.268 22.5856 20.268C23.1216 20.268 23.5696 20.12 23.9296 19.824C24.2976 19.52 24.4816 19.056 24.4816 18.432V17.856ZM31.7002 19.224C31.7002 19.848 31.4682 20.32 31.0042 20.64C30.5402 20.96 29.9162 21.12 29.1322 21.12C28.6842 21.12 28.2962 21.084 27.9682 21.012C27.6482 20.94 27.3642 20.84 27.1162 20.712V19.752C27.3722 19.88 27.6802 20 28.0402 20.112C28.4082 20.216 28.7802 20.268 29.1562 20.268C29.6922 20.268 30.0802 20.184 30.3202 20.016C30.5602 19.84 30.6802 19.608 30.6802 19.32C30.6802 19.16 30.6362 19.016 30.5482 18.888C30.4602 18.76 30.3002 18.632 30.0682 18.504C29.8442 18.376 29.5202 18.232 29.0962 18.072C28.6802 17.912 28.3242 17.752 28.0282 17.592C27.7322 17.432 27.5042 17.24 27.3442 17.016C27.1842 16.792 27.1042 16.504 27.1042 16.152C27.1042 15.608 27.3242 15.188 27.7642 14.892C28.2122 14.596 28.7962 14.448 29.5162 14.448C29.9082 14.448 30.2722 14.488 30.6082 14.568C30.9522 14.648 31.2722 14.752 31.5682 14.88L31.2082 15.72C30.9362 15.608 30.6522 15.512 30.3562 15.432C30.0602 15.352 29.7562 15.312 29.4442 15.312C29.0122 15.312 28.6802 15.384 28.4482 15.528C28.2242 15.664 28.1122 15.852 28.1122 16.092C28.1122 16.276 28.1642 16.428 28.2682 16.548C28.3722 16.668 28.5442 16.788 28.7842 16.908C29.0322 17.028 29.3602 17.164 29.7682 17.316C30.1762 17.468 30.5242 17.624 30.8122 17.784C31.1002 17.944 31.3202 18.14 31.4722 18.372C31.6242 18.596 31.7002 18.88 31.7002 19.224ZM37.4424 19.224C37.4424 19.848 37.2104 20.32 36.7464 20.64C36.2824 20.96 35.6584 21.12 34.8744 21.12C34.4264 21.12 34.0384 21.084 33.7104 21.012C33.3904 20.94 33.1064 20.84 32.8584 20.712V19.752C33.1144 19.88 33.4224 20 33.7824 20.112C34.1504 20.216 34.5224 20.268 34.8984 20.268C35.4344 20.268 35.8224 20.184 36.0624 20.016C36.3024 19.84 36.4224 19.608 36.4224 19.32C36.4224 19.16 36.3784 19.016 36.2904 18.888C36.2024 18.76 36.0424 18.632 35.8104 18.504C35.5864 18.376 35.2624 18.232 34.8384 18.072C34.4224 17.912 34.0664 17.752 33.7704 17.592C33.4744 17.432 33.2464 17.24 33.0864 17.016C32.9264 16.792 32.8464 16.504 32.8464 16.152C32.8464 15.608 33.0664 15.188 33.5064 14.892C33.9544 14.596 34.5384 14.448 35.2584 14.448C35.6504 14.448 36.0144 14.488 36.3504 14.568C36.6944 14.648 37.0144 14.752 37.3104 14.88L36.9504 15.72C36.6784 15.608 36.3944 15.512 36.0984 15.432C35.8024 15.352 35.4984 15.312 35.1864 15.312C34.7544 15.312 34.4224 15.384 34.1904 15.528C33.9664 15.664 33.8544 15.852 33.8544 16.092C33.8544 16.276 33.9064 16.428 34.0104 16.548C34.1144 16.668 34.2864 16.788 34.5264 16.908C34.7744 17.028 35.1024 17.164 35.5104 17.316C35.9184 17.468 36.2664 17.624 36.5544 17.784C36.8424 17.944 37.0624 18.14 37.2144 18.372C37.3664 18.596 37.4424 18.88 37.4424 19.224ZM44.2526 20.988L43.1486 17.364C43.0446 17.036 42.9526 16.716 42.8726 16.404C42.7926 16.092 42.7366 15.844 42.7046 15.66H42.6566C42.6246 15.844 42.5726 16.092 42.5006 16.404C42.4286 16.716 42.3366 17.04 42.2246 17.376L41.0726 20.988H39.8726L38.1086 14.556H39.2006L40.0886 17.988C40.1766 18.332 40.2606 18.68 40.3406 19.032C40.4206 19.384 40.4766 19.676 40.5086 19.908H40.5566C40.5806 19.772 40.6166 19.604 40.6646 19.404C40.7126 19.204 40.7646 18.996 40.8206 18.78C40.8766 18.556 40.9326 18.356 40.9886 18.18L42.1286 14.556H43.2806L44.3846 18.18C44.4646 18.46 44.5486 18.76 44.6366 19.08C44.7246 19.4 44.7846 19.672 44.8166 19.896H44.8646C44.8886 19.696 44.9406 19.42 45.0206 19.068C45.1086 18.716 45.2006 18.356 45.2966 17.988L46.1966 14.556H47.2766L45.4886 20.988H44.2526ZM54.0222 17.772C54.0222 18.836 53.7502 19.66 53.2062 20.244C52.6702 20.828 51.9422 21.12 51.0222 21.12C50.4542 21.12 49.9462 20.992 49.4982 20.736C49.0582 20.472 48.7102 20.092 48.4542 19.596C48.1982 19.092 48.0702 18.484 48.0702 17.772C48.0702 16.708 48.3342 15.888 48.8622 15.312C49.3982 14.736 50.1302 14.448 51.0582 14.448C51.6342 14.448 52.1462 14.58 52.5942 14.844C53.0422 15.1 53.3902 15.476 53.6382 15.972C53.8942 16.46 54.0222 17.06 54.0222 17.772ZM49.1622 17.772C49.1622 18.532 49.3102 19.136 49.6062 19.584C49.9102 20.024 50.3902 20.244 51.0462 20.244C51.6942 20.244 52.1702 20.024 52.4742 19.584C52.7782 19.136 52.9302 18.532 52.9302 17.772C52.9302 17.012 52.7782 16.416 52.4742 15.984C52.1702 15.552 51.6902 15.336 51.0342 15.336C50.3782 15.336 49.9022 15.552 49.6062 15.984C49.3102 16.416 49.1622 17.012 49.1622 17.772ZM58.6958 14.448C58.8158 14.448 58.9438 14.456 59.0798 14.472C59.2158 14.48 59.3398 14.496 59.4518 14.52L59.3198 15.492C59.2158 15.468 59.0998 15.448 58.9718 15.432C58.8438 15.416 58.7278 15.408 58.6238 15.408C58.2958 15.408 57.9878 15.5 57.6998 15.684C57.4118 15.86 57.1798 16.112 57.0038 16.44C56.8358 16.76 56.7518 17.136 56.7518 17.568V21H55.6958V14.568H56.5598L56.6798 15.744H56.7278C56.9278 15.392 57.1918 15.088 57.5198 14.832C57.8558 14.576 58.2478 14.448 58.6958 14.448ZM62.6984 21.12C61.8984 21.12 61.2584 20.844 60.7784 20.292C60.2984 19.732 60.0584 18.9 60.0584 17.796C60.0584 16.692 60.2984 15.86 60.7784 15.3C61.2664 14.732 61.9104 14.448 62.7104 14.448C63.2064 14.448 63.6104 14.54 63.9224 14.724C64.2424 14.908 64.5024 15.132 64.7024 15.396H64.7744C64.7584 15.292 64.7424 15.14 64.7264 14.94C64.7104 14.732 64.7024 14.568 64.7024 14.448V11.88H65.7584V21H64.9064L64.7504 20.136H64.7024C64.5104 20.408 64.2544 20.64 63.9344 20.832C63.6144 21.024 63.2024 21.12 62.6984 21.12ZM62.8664 20.244C63.5464 20.244 64.0224 20.06 64.2944 19.692C64.5744 19.316 64.7144 18.752 64.7144 18V17.808C64.7144 17.008 64.5824 16.396 64.3184 15.972C64.0544 15.54 63.5664 15.324 62.8544 15.324C62.2864 15.324 61.8584 15.552 61.5704 16.008C61.2904 16.456 61.1504 17.06 61.1504 17.82C61.1504 18.588 61.2904 19.184 61.5704 19.608C61.8584 20.032 62.2904 20.244 62.8664 20.244ZM71.9893 19.224C71.9893 19.848 71.7573 20.32 71.2933 20.64C70.8293 20.96 70.2053 21.12 69.4213 21.12C68.9733 21.12 68.5853 21.084 68.2573 21.012C67.9373 20.94 67.6533 20.84 67.4053 20.712V19.752C67.6613 19.88 67.9693 20 68.3293 20.112C68.6973 20.216 69.0693 20.268 69.4453 20.268C69.9813 20.268 70.3693 20.184 70.6093 20.016C70.8493 19.84 70.9693 19.608 70.9693 19.32C70.9693 19.16 70.9253 19.016 70.8373 18.888C70.7493 18.76 70.5893 18.632 70.3573 18.504C70.1333 18.376 69.8093 18.232 69.3853 18.072C68.9693 17.912 68.6133 17.752 68.3173 17.592C68.0213 17.432 67.7933 17.24 67.6333 17.016C67.4733 16.792 67.3933 16.504 67.3933 16.152C67.3933 15.608 67.6133 15.188 68.0533 14.892C68.5013 14.596 69.0853 14.448 69.8053 14.448C70.1973 14.448 70.5613 14.488 70.8973 14.568C71.2413 14.648 71.5613 14.752 71.8573 14.88L71.4973 15.72C71.2253 15.608 70.9413 15.512 70.6453 15.432C70.3493 15.352 70.0453 15.312 69.7333 15.312C69.3013 15.312 68.9693 15.384 68.7373 15.528C68.5133 15.664 68.4013 15.852 68.4013 16.092C68.4013 16.276 68.4533 16.428 68.5573 16.548C68.6613 16.668 68.8333 16.788 69.0733 16.908C69.3213 17.028 69.6493 17.164 70.0573 17.316C70.4653 17.468 70.8133 17.624 71.1013 17.784C71.3893 17.944 71.6093 18.14 71.7613 18.372C71.9133 18.596 71.9893 18.88 71.9893 19.224ZM80.8486 19.224C80.8486 19.848 80.6166 20.32 80.1526 20.64C79.6886 20.96 79.0646 21.12 78.2806 21.12C77.8326 21.12 77.4446 21.084 77.1166 21.012C76.7966 20.94 76.5126 20.84 76.2646 20.712V19.752C76.5206 19.88 76.8286 20 77.1886 20.112C77.5566 20.216 77.9286 20.268 78.3046 20.268C78.8406 20.268 79.2286 20.184 79.4686 20.016C79.7086 19.84 79.8286 19.608 79.8286 19.32C79.8286 19.16 79.7846 19.016 79.6966 18.888C79.6086 18.76 79.4486 18.632 79.2166 18.504C78.9926 18.376 78.6686 18.232 78.2446 18.072C77.8286 17.912 77.4726 17.752 77.1766 17.592C76.8806 17.432 76.6526 17.24 76.4926 17.016C76.3326 16.792 76.2526 16.504 76.2526 16.152C76.2526 15.608 76.4726 15.188 76.9126 14.892C77.3606 14.596 77.9446 14.448 78.6646 14.448C79.0566 14.448 79.4206 14.488 79.7566 14.568C80.1006 14.648 80.4206 14.752 80.7166 14.88L80.3566 15.72C80.0846 15.608 79.8006 15.512 79.5046 15.432C79.2086 15.352 78.9046 15.312 78.5926 15.312C78.1606 15.312 77.8286 15.384 77.5966 15.528C77.3726 15.664 77.2606 15.852 77.2606 16.092C77.2606 16.276 77.3126 16.428 77.4166 16.548C77.5206 16.668 77.6926 16.788 77.9326 16.908C78.1806 17.028 78.5086 17.164 78.9166 17.316C79.3246 17.468 79.6726 17.624 79.9606 17.784C80.2486 17.944 80.4686 18.14 80.6206 18.372C80.7726 18.596 80.8486 18.88 80.8486 19.224ZM83.4588 11.88V14.556C83.4588 14.876 83.4388 15.176 83.3988 15.456H83.4708C83.6788 15.128 83.9588 14.88 84.3108 14.712C84.6708 14.544 85.0588 14.46 85.4748 14.46C86.2508 14.46 86.8348 14.648 87.2268 15.024C87.6268 15.392 87.8268 15.988 87.8268 16.812V21H86.7828V16.884C86.7828 15.852 86.3028 15.336 85.3428 15.336C84.6228 15.336 84.1268 15.54 83.8548 15.948C83.5908 16.348 83.4588 16.924 83.4588 17.676V21H82.4028V11.88H83.4588ZM95.4128 17.772C95.4128 18.836 95.1408 19.66 94.5968 20.244C94.0608 20.828 93.3328 21.12 92.4128 21.12C91.8448 21.12 91.3368 20.992 90.8888 20.736C90.4488 20.472 90.1008 20.092 89.8448 19.596C89.5888 19.092 89.4608 18.484 89.4608 17.772C89.4608 16.708 89.7248 15.888 90.2528 15.312C90.7888 14.736 91.5208 14.448 92.4488 14.448C93.0248 14.448 93.5368 14.58 93.9848 14.844C94.4328 15.1 94.7808 15.476 95.0288 15.972C95.2848 16.46 95.4128 17.06 95.4128 17.772ZM90.5528 17.772C90.5528 18.532 90.7008 19.136 90.9968 19.584C91.3008 20.024 91.7808 20.244 92.4368 20.244C93.0848 20.244 93.5608 20.024 93.8648 19.584C94.1688 19.136 94.3208 18.532 94.3208 17.772C94.3208 17.012 94.1688 16.416 93.8648 15.984C93.5608 15.552 93.0808 15.336 92.4248 15.336C91.7688 15.336 91.2928 15.552 90.9968 15.984C90.7008 16.416 90.5528 17.012 90.5528 17.772ZM102.462 14.568V21H101.598L101.442 20.148H101.394C101.186 20.484 100.898 20.732 100.53 20.892C100.162 21.044 99.7704 21.12 99.3544 21.12C98.5784 21.12 97.9944 20.936 97.6024 20.568C97.2104 20.192 97.0144 19.596 97.0144 18.78V14.568H98.0824V18.708C98.0824 19.732 98.5584 20.244 99.5104 20.244C100.222 20.244 100.714 20.044 100.986 19.644C101.266 19.244 101.406 18.668 101.406 17.916V14.568H102.462ZM105.56 21H104.504V11.88H105.56V21ZM109.878 21.12C109.078 21.12 108.438 20.844 107.958 20.292C107.478 19.732 107.238 18.9 107.238 17.796C107.238 16.692 107.478 15.86 107.958 15.3C108.446 14.732 109.09 14.448 109.89 14.448C110.386 14.448 110.79 14.54 111.102 14.724C111.422 14.908 111.682 15.132 111.882 15.396H111.954C111.938 15.292 111.922 15.14 111.906 14.94C111.89 14.732 111.882 14.568 111.882 14.448V11.88H112.938V21H112.086L111.93 20.136H111.882C111.69 20.408 111.434 20.64 111.114 20.832C110.794 21.024 110.382 21.12 109.878 21.12ZM110.046 20.244C110.726 20.244 111.202 20.06 111.474 19.692C111.754 19.316 111.894 18.752 111.894 18V17.808C111.894 17.008 111.762 16.396 111.498 15.972C111.234 15.54 110.746 15.324 110.034 15.324C109.466 15.324 109.038 15.552 108.75 16.008C108.47 16.456 108.33 17.06 108.33 17.82C108.33 18.588 108.47 19.184 108.75 19.608C109.038 20.032 109.47 20.244 110.046 20.244ZM120.678 21.12C120.102 21.12 119.594 21.004 119.154 20.772C118.714 20.54 118.366 20.18 118.11 19.692C117.862 19.204 117.738 18.58 117.738 17.82C117.738 17.028 117.866 16.384 118.122 15.888C118.386 15.392 118.746 15.028 119.202 14.796C119.658 14.564 120.174 14.448 120.75 14.448C121.07 14.448 121.382 14.484 121.686 14.556C121.998 14.62 122.25 14.7 122.442 14.796L122.118 15.672C121.926 15.6 121.702 15.532 121.446 15.468C121.19 15.404 120.95 15.372 120.726 15.372C119.462 15.372 118.83 16.184 118.83 17.808C118.83 18.584 118.982 19.18 119.286 19.596C119.598 20.004 120.058 20.208 120.666 20.208C121.01 20.208 121.318 20.172 121.59 20.1C121.862 20.028 122.11 19.94 122.334 19.836V20.772C122.118 20.884 121.878 20.968 121.614 21.024C121.358 21.088 121.046 21.12 120.678 21.12ZM129.456 17.772C129.456 18.836 129.184 19.66 128.64 20.244C128.104 20.828 127.376 21.12 126.456 21.12C125.888 21.12 125.38 20.992 124.932 20.736C124.492 20.472 124.144 20.092 123.888 19.596C123.632 19.092 123.504 18.484 123.504 17.772C123.504 16.708 123.768 15.888 124.296 15.312C124.832 14.736 125.564 14.448 126.492 14.448C127.068 14.448 127.58 14.58 128.028 14.844C128.476 15.1 128.824 15.476 129.072 15.972C129.328 16.46 129.456 17.06 129.456 17.772ZM124.596 17.772C124.596 18.532 124.744 19.136 125.04 19.584C125.344 20.024 125.824 20.244 126.48 20.244C127.128 20.244 127.604 20.024 127.908 19.584C128.212 19.136 128.364 18.532 128.364 17.772C128.364 17.012 128.212 16.416 127.908 15.984C127.604 15.552 127.124 15.336 126.468 15.336C125.812 15.336 125.336 15.552 125.04 15.984C124.744 16.416 124.596 17.012 124.596 17.772ZM134.225 14.448C134.993 14.448 135.573 14.636 135.965 15.012C136.357 15.388 136.553 15.988 136.553 16.812V21H135.509V16.884C135.509 15.852 135.029 15.336 134.069 15.336C133.357 15.336 132.865 15.536 132.593 15.936C132.321 16.336 132.185 16.912 132.185 17.664V21H131.129V14.568H131.981L132.137 15.444H132.197C132.405 15.108 132.693 14.86 133.061 14.7C133.429 14.532 133.817 14.448 134.225 14.448ZM140.695 20.256C140.855 20.256 141.019 20.244 141.187 20.22C141.355 20.196 141.491 20.164 141.595 20.124V20.928C141.483 20.984 141.323 21.028 141.115 21.06C140.907 21.1 140.707 21.12 140.515 21.12C140.179 21.12 139.867 21.064 139.579 20.952C139.299 20.832 139.071 20.628 138.895 20.34C138.719 20.052 138.631 19.648 138.631 19.128V15.384H137.719V14.88L138.643 14.46L139.063 13.092H139.687V14.568H141.547V15.384H139.687V19.104C139.687 19.496 139.779 19.788 139.963 19.98C140.155 20.164 140.399 20.256 140.695 20.256ZM145.319 14.46C146.103 14.46 146.683 14.632 147.059 14.976C147.435 15.32 147.623 15.868 147.623 16.62V21H146.855L146.651 20.088H146.603C146.323 20.44 146.027 20.7 145.715 20.868C145.403 21.036 144.979 21.12 144.443 21.12C143.859 21.12 143.375 20.968 142.991 20.664C142.607 20.352 142.415 19.868 142.415 19.212C142.415 18.572 142.667 18.08 143.171 17.736C143.675 17.384 144.451 17.192 145.499 17.16L146.591 17.124V16.74C146.591 16.204 146.475 15.832 146.243 15.624C146.011 15.416 145.683 15.312 145.259 15.312C144.923 15.312 144.603 15.364 144.299 15.468C143.995 15.564 143.711 15.676 143.447 15.804L143.123 15.012C143.403 14.86 143.735 14.732 144.119 14.628C144.503 14.516 144.903 14.46 145.319 14.46ZM146.579 17.856L145.631 17.892C144.831 17.924 144.275 18.052 143.963 18.276C143.659 18.5 143.507 18.816 143.507 19.224C143.507 19.584 143.615 19.848 143.831 20.016C144.055 20.184 144.339 20.268 144.683 20.268C145.219 20.268 145.667 20.12 146.027 19.824C146.395 19.52 146.579 19.056 146.579 18.432V17.856ZM150.15 12.156C150.31 12.156 150.45 12.212 150.57 12.324C150.698 12.428 150.762 12.596 150.762 12.828C150.762 13.06 150.698 13.232 150.57 13.344C150.45 13.448 150.31 13.5 150.15 13.5C149.974 13.5 149.826 13.448 149.706 13.344C149.586 13.232 149.526 13.06 149.526 12.828C149.526 12.596 149.586 12.428 149.706 12.324C149.826 12.212 149.974 12.156 150.15 12.156ZM150.666 14.568V21H149.61V14.568H150.666ZM155.8 14.448C156.568 14.448 157.148 14.636 157.54 15.012C157.932 15.388 158.128 15.988 158.128 16.812V21H157.084V16.884C157.084 15.852 156.604 15.336 155.644 15.336C154.932 15.336 154.44 15.536 154.168 15.936C153.896 16.336 153.76 16.912 153.76 17.664V21H152.704V14.568H153.556L153.712 15.444H153.772C153.98 15.108 154.268 14.86 154.636 14.7C155.004 14.532 155.392 14.448 155.8 14.448ZM162.606 14.448C163.15 14.448 163.622 14.568 164.022 14.808C164.422 15.048 164.726 15.388 164.934 15.828C165.15 16.26 165.258 16.768 165.258 17.352V17.988H160.854C160.87 18.716 161.054 19.272 161.406 19.656C161.766 20.032 162.266 20.22 162.906 20.22C163.314 20.22 163.674 20.184 163.986 20.112C164.306 20.032 164.634 19.92 164.97 19.776V20.7C164.642 20.844 164.318 20.948 163.998 21.012C163.678 21.084 163.298 21.12 162.858 21.12C162.242 21.12 161.702 20.996 161.238 20.748C160.774 20.5 160.41 20.132 160.146 19.644C159.89 19.156 159.762 18.552 159.762 17.832C159.762 17.128 159.878 16.524 160.11 16.02C160.35 15.516 160.682 15.128 161.106 14.856C161.538 14.584 162.038 14.448 162.606 14.448ZM162.594 15.312C162.09 15.312 161.69 15.476 161.394 15.804C161.106 16.124 160.934 16.572 160.878 17.148H164.154C164.146 16.604 164.018 16.164 163.77 15.828C163.522 15.484 163.13 15.312 162.594 15.312ZM172.448 14.46C173.232 14.46 173.812 14.632 174.188 14.976C174.564 15.32 174.752 15.868 174.752 16.62V21H173.984L173.78 20.088H173.732C173.452 20.44 173.156 20.7 172.844 20.868C172.532 21.036 172.108 21.12 171.572 21.12C170.988 21.12 170.504 20.968 170.12 20.664C169.736 20.352 169.544 19.868 169.544 19.212C169.544 18.572 169.796 18.08 170.3 17.736C170.804 17.384 171.58 17.192 172.628 17.16L173.72 17.124V16.74C173.72 16.204 173.604 15.832 173.372 15.624C173.14 15.416 172.812 15.312 172.388 15.312C172.052 15.312 171.732 15.364 171.428 15.468C171.124 15.564 170.84 15.676 170.576 15.804L170.252 15.012C170.532 14.86 170.864 14.732 171.248 14.628C171.632 14.516 172.032 14.46 172.448 14.46ZM173.708 17.856L172.76 17.892C171.96 17.924 171.404 18.052 171.092 18.276C170.788 18.5 170.636 18.816 170.636 19.224C170.636 19.584 170.744 19.848 170.96 20.016C171.184 20.184 171.468 20.268 171.812 20.268C172.348 20.268 172.796 20.12 173.156 19.824C173.524 19.52 173.708 19.056 173.708 18.432V17.856ZM178.887 20.256C179.047 20.256 179.211 20.244 179.379 20.22C179.547 20.196 179.683 20.164 179.787 20.124V20.928C179.675 20.984 179.515 21.028 179.307 21.06C179.099 21.1 178.899 21.12 178.707 21.12C178.371 21.12 178.059 21.064 177.771 20.952C177.491 20.832 177.263 20.628 177.087 20.34C176.911 20.052 176.823 19.648 176.823 19.128V15.384H175.911V14.88L176.835 14.46L177.255 13.092H177.879V14.568H179.739V15.384H177.879V19.104C177.879 19.496 177.971 19.788 178.155 19.98C178.347 20.164 178.591 20.256 178.887 20.256ZM185.248 21H184.192V11.88H185.248V21ZM189.77 14.448C190.314 14.448 190.786 14.568 191.186 14.808C191.586 15.048 191.89 15.388 192.098 15.828C192.314 16.26 192.422 16.768 192.422 17.352V17.988H188.018C188.034 18.716 188.218 19.272 188.57 19.656C188.93 20.032 189.43 20.22 190.07 20.22C190.478 20.22 190.838 20.184 191.15 20.112C191.47 20.032 191.798 19.92 192.134 19.776V20.7C191.806 20.844 191.482 20.948 191.162 21.012C190.842 21.084 190.462 21.12 190.022 21.12C189.406 21.12 188.866 20.996 188.402 20.748C187.938 20.5 187.574 20.132 187.31 19.644C187.054 19.156 186.926 18.552 186.926 17.832C186.926 17.128 187.042 16.524 187.274 16.02C187.514 15.516 187.846 15.128 188.27 14.856C188.702 14.584 189.202 14.448 189.77 14.448ZM189.758 15.312C189.254 15.312 188.854 15.476 188.558 15.804C188.27 16.124 188.098 16.572 188.042 17.148H191.318C191.31 16.604 191.182 16.164 190.934 15.828C190.686 15.484 190.294 15.312 189.758 15.312ZM196.495 14.46C197.279 14.46 197.859 14.632 198.235 14.976C198.611 15.32 198.799 15.868 198.799 16.62V21H198.031L197.827 20.088H197.779C197.499 20.44 197.203 20.7 196.891 20.868C196.579 21.036 196.155 21.12 195.619 21.12C195.035 21.12 194.551 20.968 194.167 20.664C193.783 20.352 193.591 19.868 193.591 19.212C193.591 18.572 193.843 18.08 194.347 17.736C194.851 17.384 195.627 17.192 196.675 17.16L197.767 17.124V16.74C197.767 16.204 197.651 15.832 197.419 15.624C197.187 15.416 196.859 15.312 196.435 15.312C196.099 15.312 195.779 15.364 195.475 15.468C195.171 15.564 194.887 15.676 194.623 15.804L194.299 15.012C194.579 14.86 194.911 14.732 195.295 14.628C195.679 14.516 196.079 14.46 196.495 14.46ZM197.755 17.856L196.807 17.892C196.007 17.924 195.451 18.052 195.139 18.276C194.835 18.5 194.683 18.816 194.683 19.224C194.683 19.584 194.791 19.848 195.007 20.016C195.231 20.184 195.515 20.268 195.859 20.268C196.395 20.268 196.843 20.12 197.203 19.824C197.571 19.52 197.755 19.056 197.755 18.432V17.856ZM204.974 19.224C204.974 19.848 204.742 20.32 204.278 20.64C203.814 20.96 203.19 21.12 202.406 21.12C201.958 21.12 201.57 21.084 201.242 21.012C200.922 20.94 200.638 20.84 200.39 20.712V19.752C200.646 19.88 200.954 20 201.314 20.112C201.682 20.216 202.054 20.268 202.43 20.268C202.966 20.268 203.354 20.184 203.594 20.016C203.834 19.84 203.954 19.608 203.954 19.32C203.954 19.16 203.91 19.016 203.822 18.888C203.734 18.76 203.574 18.632 203.342 18.504C203.118 18.376 202.794 18.232 202.37 18.072C201.954 17.912 201.598 17.752 201.302 17.592C201.006 17.432 200.778 17.24 200.618 17.016C200.458 16.792 200.378 16.504 200.378 16.152C200.378 15.608 200.598 15.188 201.038 14.892C201.486 14.596 202.07 14.448 202.79 14.448C203.182 14.448 203.546 14.488 203.882 14.568C204.226 14.648 204.546 14.752 204.842 14.88L204.482 15.72C204.21 15.608 203.926 15.512 203.63 15.432C203.334 15.352 203.03 15.312 202.718 15.312C202.286 15.312 201.954 15.384 201.722 15.528C201.498 15.664 201.386 15.852 201.386 16.092C201.386 16.276 201.438 16.428 201.542 16.548C201.646 16.668 201.818 16.788 202.058 16.908C202.306 17.028 202.634 17.164 203.042 17.316C203.45 17.468 203.798 17.624 204.086 17.784C204.374 17.944 204.594 18.14 204.746 18.372C204.898 18.596 204.974 18.88 204.974 19.224ZM208.676 20.256C208.836 20.256 209 20.244 209.168 20.22C209.336 20.196 209.472 20.164 209.576 20.124V20.928C209.464 20.984 209.304 21.028 209.096 21.06C208.888 21.1 208.688 21.12 208.496 21.12C208.16 21.12 207.848 21.064 207.56 20.952C207.28 20.832 207.052 20.628 206.876 20.34C206.7 20.052 206.612 19.648 206.612 19.128V15.384H205.7V14.88L206.624 14.46L207.044 13.092H207.668V14.568H209.528V15.384H207.668V19.104C207.668 19.496 207.76 19.788 207.944 19.98C208.136 20.164 208.38 20.256 208.676 20.256ZM216.381 12.312C217.133 12.312 217.749 12.488 218.229 12.84C218.709 13.192 218.949 13.7 218.949 14.364C218.949 14.708 218.873 15.008 218.721 15.264C218.577 15.52 218.381 15.748 218.133 15.948C217.885 16.14 217.613 16.312 217.317 16.464C217.669 16.64 217.989 16.832 218.277 17.04C218.565 17.248 218.793 17.492 218.961 17.772C219.137 18.052 219.225 18.388 219.225 18.78C219.225 19.5 218.969 20.072 218.457 20.496C217.945 20.912 217.265 21.12 216.417 21.12C215.489 21.12 214.777 20.92 214.281 20.52C213.793 20.112 213.549 19.544 213.549 18.816C213.549 18.432 213.629 18.096 213.789 17.808C213.957 17.512 214.177 17.26 214.449 17.052C214.721 16.844 215.013 16.668 215.325 16.524C214.901 16.284 214.545 15.996 214.257 15.66C213.969 15.316 213.825 14.88 213.825 14.352C213.825 13.92 213.937 13.552 214.161 13.248C214.385 12.944 214.689 12.712 215.073 12.552C215.457 12.392 215.893 12.312 216.381 12.312ZM216.369 13.164C215.921 13.164 215.557 13.272 215.277 13.488C214.997 13.696 214.857 14 214.857 14.4C214.857 14.696 214.925 14.944 215.061 15.144C215.205 15.344 215.397 15.516 215.637 15.66C215.877 15.796 216.141 15.928 216.429 16.056C216.845 15.88 217.193 15.668 217.473 15.42C217.761 15.172 217.905 14.832 217.905 14.4C217.905 14 217.765 13.696 217.485 13.488C217.205 13.272 216.833 13.164 216.369 13.164ZM214.581 18.828C214.581 19.244 214.729 19.592 215.025 19.872C215.321 20.144 215.777 20.28 216.393 20.28C216.977 20.28 217.421 20.144 217.725 19.872C218.037 19.592 218.193 19.232 218.193 18.792C218.193 18.376 218.029 18.032 217.701 17.76C217.373 17.48 216.937 17.236 216.393 17.028L216.201 16.956C215.673 17.188 215.269 17.448 214.989 17.736C214.717 18.024 214.581 18.388 214.581 18.828ZM16.1 37.12C15.524 37.12 15.016 37.004 14.576 36.772C14.136 36.54 13.788 36.18 13.532 35.692C13.284 35.204 13.16 34.58 13.16 33.82C13.16 33.028 13.288 32.384 13.544 31.888C13.808 31.392 14.168 31.028 14.624 30.796C15.08 30.564 15.596 30.448 16.172 30.448C16.492 30.448 16.804 30.484 17.108 30.556C17.42 30.62 17.672 30.7 17.864 30.796L17.54 31.672C17.348 31.6 17.124 31.532 16.868 31.468C16.612 31.404 16.372 31.372 16.148 31.372C14.884 31.372 14.252 32.184 14.252 33.808C14.252 34.584 14.404 35.18 14.708 35.596C15.02 36.004 15.48 36.208 16.088 36.208C16.432 36.208 16.74 36.172 17.012 36.1C17.284 36.028 17.532 35.94 17.756 35.836V36.772C17.54 36.884 17.3 36.968 17.036 37.024C16.78 37.088 16.468 37.12 16.1 37.12ZM20.3416 27.88V30.556C20.3416 30.876 20.3216 31.176 20.2816 31.456H20.3536C20.5616 31.128 20.8416 30.88 21.1936 30.712C21.5536 30.544 21.9416 30.46 22.3576 30.46C23.1336 30.46 23.7176 30.648 24.1096 31.024C24.5096 31.392 24.7096 31.988 24.7096 32.812V37H23.6656V32.884C23.6656 31.852 23.1856 31.336 22.2256 31.336C21.5056 31.336 21.0096 31.54 20.7376 31.948C20.4736 32.348 20.3416 32.924 20.3416 33.676V37H19.2856V27.88H20.3416ZM29.1396 30.46C29.9236 30.46 30.5036 30.632 30.8796 30.976C31.2556 31.32 31.4436 31.868 31.4436 32.62V37H30.6756L30.4716 36.088H30.4236C30.1436 36.44 29.8476 36.7 29.5356 36.868C29.2236 37.036 28.7996 37.12 28.2636 37.12C27.6796 37.12 27.1956 36.968 26.8116 36.664C26.4276 36.352 26.2356 35.868 26.2356 35.212C26.2356 34.572 26.4876 34.08 26.9916 33.736C27.4956 33.384 28.2716 33.192 29.3196 33.16L30.4116 33.124V32.74C30.4116 32.204 30.2956 31.832 30.0636 31.624C29.8316 31.416 29.5036 31.312 29.0796 31.312C28.7436 31.312 28.4236 31.364 28.1196 31.468C27.8156 31.564 27.5316 31.676 27.2676 31.804L26.9436 31.012C27.2236 30.86 27.5556 30.732 27.9396 30.628C28.3236 30.516 28.7236 30.46 29.1396 30.46ZM30.3996 33.856L29.4516 33.892C28.6516 33.924 28.0956 34.052 27.7836 34.276C27.4796 34.5 27.3276 34.816 27.3276 35.224C27.3276 35.584 27.4356 35.848 27.6516 36.016C27.8756 36.184 28.1596 36.268 28.5036 36.268C29.0396 36.268 29.4876 36.12 29.8476 35.824C30.2156 35.52 30.3996 35.056 30.3996 34.432V33.856ZM36.4302 30.448C36.5502 30.448 36.6782 30.456 36.8142 30.472C36.9502 30.48 37.0742 30.496 37.1862 30.52L37.0542 31.492C36.9502 31.468 36.8342 31.448 36.7062 31.432C36.5782 31.416 36.4622 31.408 36.3582 31.408C36.0302 31.408 35.7222 31.5 35.4342 31.684C35.1462 31.86 34.9142 32.112 34.7382 32.44C34.5702 32.76 34.4862 33.136 34.4862 33.568V37H33.4302V30.568H34.2942L34.4142 31.744H34.4622C34.6622 31.392 34.9262 31.088 35.2542 30.832C35.5902 30.576 35.9822 30.448 36.4302 30.448ZM40.5888 30.46C41.3728 30.46 41.9528 30.632 42.3288 30.976C42.7048 31.32 42.8928 31.868 42.8928 32.62V37H42.1248L41.9208 36.088H41.8728C41.5928 36.44 41.2968 36.7 40.9848 36.868C40.6728 37.036 40.2488 37.12 39.7128 37.12C39.1288 37.12 38.6448 36.968 38.2608 36.664C37.8768 36.352 37.6848 35.868 37.6848 35.212C37.6848 34.572 37.9368 34.08 38.4408 33.736C38.9448 33.384 39.7208 33.192 40.7688 33.16L41.8608 33.124V32.74C41.8608 32.204 41.7448 31.832 41.5128 31.624C41.2808 31.416 40.9528 31.312 40.5288 31.312C40.1928 31.312 39.8728 31.364 39.5688 31.468C39.2648 31.564 38.9808 31.676 38.7168 31.804L38.3928 31.012C38.6728 30.86 39.0048 30.732 39.3888 30.628C39.7728 30.516 40.1728 30.46 40.5888 30.46ZM41.8488 33.856L40.9008 33.892C40.1008 33.924 39.5448 34.052 39.2328 34.276C38.9288 34.5 38.7768 34.816 38.7768 35.224C38.7768 35.584 38.8848 35.848 39.1008 36.016C39.3248 36.184 39.6088 36.268 39.9528 36.268C40.4888 36.268 40.9368 36.12 41.2968 35.824C41.6648 35.52 41.8488 35.056 41.8488 34.432V33.856ZM47.4594 37.12C46.8834 37.12 46.3754 37.004 45.9354 36.772C45.4954 36.54 45.1474 36.18 44.8914 35.692C44.6434 35.204 44.5194 34.58 44.5194 33.82C44.5194 33.028 44.6474 32.384 44.9034 31.888C45.1674 31.392 45.5274 31.028 45.9834 30.796C46.4394 30.564 46.9554 30.448 47.5314 30.448C47.8514 30.448 48.1634 30.484 48.4674 30.556C48.7794 30.62 49.0314 30.7 49.2234 30.796L48.8994 31.672C48.7074 31.6 48.4834 31.532 48.2274 31.468C47.9714 31.404 47.7314 31.372 47.5074 31.372C46.2434 31.372 45.6114 32.184 45.6114 33.808C45.6114 34.584 45.7634 35.18 46.0674 35.596C46.3794 36.004 46.8394 36.208 47.4474 36.208C47.7914 36.208 48.0994 36.172 48.3714 36.1C48.6434 36.028 48.8914 35.94 49.1154 35.836V36.772C48.8994 36.884 48.6594 36.968 48.3954 37.024C48.1394 37.088 47.8274 37.12 47.4594 37.12ZM52.793 36.256C52.953 36.256 53.117 36.244 53.285 36.22C53.453 36.196 53.589 36.164 53.693 36.124V36.928C53.581 36.984 53.421 37.028 53.213 37.06C53.005 37.1 52.805 37.12 52.613 37.12C52.277 37.12 51.965 37.064 51.677 36.952C51.397 36.832 51.169 36.628 50.993 36.34C50.817 36.052 50.729 35.648 50.729 35.128V31.384H49.817V30.88L50.741 30.46L51.161 29.092H51.785V30.568H53.645V31.384H51.785V35.104C51.785 35.496 51.877 35.788 52.061 35.98C52.253 36.164 52.497 36.256 52.793 36.256ZM57.4649 30.448C58.0089 30.448 58.4809 30.568 58.8809 30.808C59.2809 31.048 59.5849 31.388 59.7929 31.828C60.0089 32.26 60.1169 32.768 60.1169 33.352V33.988H55.7129C55.7289 34.716 55.9129 35.272 56.2649 35.656C56.6249 36.032 57.1249 36.22 57.7649 36.22C58.1729 36.22 58.5329 36.184 58.8449 36.112C59.1649 36.032 59.4929 35.92 59.8289 35.776V36.7C59.5009 36.844 59.1769 36.948 58.8569 37.012C58.5369 37.084 58.1569 37.12 57.7169 37.12C57.1009 37.12 56.5609 36.996 56.0969 36.748C55.6329 36.5 55.2689 36.132 55.0049 35.644C54.7489 35.156 54.6209 34.552 54.6209 33.832C54.6209 33.128 54.7369 32.524 54.9689 32.02C55.2089 31.516 55.5409 31.128 55.9649 30.856C56.3969 30.584 56.8969 30.448 57.4649 30.448ZM57.4529 31.312C56.9489 31.312 56.5489 31.476 56.2529 31.804C55.9649 32.124 55.7929 32.572 55.7369 33.148H59.0129C59.0049 32.604 58.8769 32.164 58.6289 31.828C58.3809 31.484 57.9889 31.312 57.4529 31.312ZM64.7544 30.448C64.8744 30.448 65.0024 30.456 65.1384 30.472C65.2744 30.48 65.3984 30.496 65.5104 30.52L65.3784 31.492C65.2744 31.468 65.1584 31.448 65.0304 31.432C64.9024 31.416 64.7864 31.408 64.6824 31.408C64.3544 31.408 64.0464 31.5 63.7584 31.684C63.4704 31.86 63.2384 32.112 63.0624 32.44C62.8944 32.76 62.8104 33.136 62.8104 33.568V37H61.7544V30.568H62.6184L62.7384 31.744H62.7864C62.9864 31.392 63.2504 31.088 63.5784 30.832C63.9144 30.576 64.3064 30.448 64.7544 30.448ZM70.8994 35.224C70.8994 35.848 70.6674 36.32 70.2034 36.64C69.7394 36.96 69.1154 37.12 68.3314 37.12C67.8834 37.12 67.4954 37.084 67.1674 37.012C66.8474 36.94 66.5634 36.84 66.3154 36.712V35.752C66.5714 35.88 66.8794 36 67.2394 36.112C67.6074 36.216 67.9794 36.268 68.3554 36.268C68.8914 36.268 69.2794 36.184 69.5194 36.016C69.7594 35.84 69.8794 35.608 69.8794 35.32C69.8794 35.16 69.8354 35.016 69.7474 34.888C69.6594 34.76 69.4994 34.632 69.2674 34.504C69.0434 34.376 68.7194 34.232 68.2954 34.072C67.8794 33.912 67.5234 33.752 67.2274 33.592C66.9314 33.432 66.7034 33.24 66.5434 33.016C66.3834 32.792 66.3034 32.504 66.3034 32.152C66.3034 31.608 66.5234 31.188 66.9634 30.892C67.4114 30.596 67.9954 30.448 68.7154 30.448C69.1074 30.448 69.4714 30.488 69.8074 30.568C70.1514 30.648 70.4714 30.752 70.7674 30.88L70.4074 31.72C70.1354 31.608 69.8514 31.512 69.5554 31.432C69.2594 31.352 68.9554 31.312 68.6434 31.312C68.2114 31.312 67.8794 31.384 67.6474 31.528C67.4234 31.664 67.3114 31.852 67.3114 32.092C67.3114 32.276 67.3634 32.428 67.4674 32.548C67.5714 32.668 67.7434 32.788 67.9834 32.908C68.2314 33.028 68.5594 33.164 68.9674 33.316C69.3754 33.468 69.7234 33.624 70.0114 33.784C70.2994 33.944 70.5194 34.14 70.6714 34.372C70.8234 34.596 70.8994 34.88 70.8994 35.224ZM78.0068 30.46C78.7908 30.46 79.3708 30.632 79.7468 30.976C80.1228 31.32 80.3108 31.868 80.3108 32.62V37H79.5428L79.3388 36.088H79.2908C79.0108 36.44 78.7148 36.7 78.4028 36.868C78.0908 37.036 77.6668 37.12 77.1308 37.12C76.5468 37.12 76.0628 36.968 75.6788 36.664C75.2948 36.352 75.1028 35.868 75.1028 35.212C75.1028 34.572 75.3548 34.08 75.8588 33.736C76.3628 33.384 77.1388 33.192 78.1868 33.16L79.2788 33.124V32.74C79.2788 32.204 79.1628 31.832 78.9308 31.624C78.6988 31.416 78.3708 31.312 77.9468 31.312C77.6108 31.312 77.2908 31.364 76.9868 31.468C76.6828 31.564 76.3988 31.676 76.1348 31.804L75.8108 31.012C76.0908 30.86 76.4228 30.732 76.8068 30.628C77.1908 30.516 77.5908 30.46 78.0068 30.46ZM79.2668 33.856L78.3188 33.892C77.5188 33.924 76.9628 34.052 76.6508 34.276C76.3468 34.5 76.1948 34.816 76.1948 35.224C76.1948 35.584 76.3028 35.848 76.5188 36.016C76.7428 36.184 77.0268 36.268 77.3708 36.268C77.9068 36.268 78.3548 36.12 78.7148 35.824C79.0828 35.52 79.2668 35.056 79.2668 34.432V33.856ZM85.3933 30.448C86.1613 30.448 86.7413 30.636 87.1333 31.012C87.5253 31.388 87.7213 31.988 87.7213 32.812V37H86.6773V32.884C86.6773 31.852 86.1973 31.336 85.2373 31.336C84.5253 31.336 84.0333 31.536 83.7613 31.936C83.4893 32.336 83.3533 32.912 83.3533 33.664V37H82.2973V30.568H83.1493L83.3053 31.444H83.3653C83.5733 31.108 83.8613 30.86 84.2293 30.7C84.5973 30.532 84.9853 30.448 85.3933 30.448ZM91.9953 37.12C91.1953 37.12 90.5553 36.844 90.0753 36.292C89.5953 35.732 89.3553 34.9 89.3553 33.796C89.3553 32.692 89.5953 31.86 90.0753 31.3C90.5633 30.732 91.2073 30.448 92.0073 30.448C92.5033 30.448 92.9073 30.54 93.2193 30.724C93.5393 30.908 93.7993 31.132 93.9993 31.396H94.0713C94.0553 31.292 94.0393 31.14 94.0233 30.94C94.0073 30.732 93.9993 30.568 93.9993 30.448V27.88H95.0553V37H94.2033L94.0473 36.136H93.9993C93.8073 36.408 93.5513 36.64 93.2313 36.832C92.9113 37.024 92.4993 37.12 91.9953 37.12ZM92.1633 36.244C92.8433 36.244 93.3193 36.06 93.5913 35.692C93.8713 35.316 94.0113 34.752 94.0113 34V33.808C94.0113 33.008 93.8793 32.396 93.6153 31.972C93.3513 31.54 92.8633 31.324 92.1513 31.324C91.5833 31.324 91.1553 31.552 90.8673 32.008C90.5873 32.456 90.4473 33.06 90.4473 33.82C90.4473 34.588 90.5873 35.184 90.8673 35.608C91.1553 36.032 91.5873 36.244 92.1633 36.244ZM102.651 30.46C103.435 30.46 104.015 30.632 104.391 30.976C104.767 31.32 104.955 31.868 104.955 32.62V37H104.187L103.983 36.088H103.935C103.655 36.44 103.359 36.7 103.047 36.868C102.735 37.036 102.311 37.12 101.775 37.12C101.191 37.12 100.707 36.968 100.323 36.664C99.9393 36.352 99.7473 35.868 99.7473 35.212C99.7473 34.572 99.9993 34.08 100.503 33.736C101.007 33.384 101.783 33.192 102.831 33.16L103.923 33.124V32.74C103.923 32.204 103.807 31.832 103.575 31.624C103.343 31.416 103.015 31.312 102.591 31.312C102.255 31.312 101.935 31.364 101.631 31.468C101.327 31.564 101.043 31.676 100.779 31.804L100.455 31.012C100.735 30.86 101.067 30.732 101.451 30.628C101.835 30.516 102.235 30.46 102.651 30.46ZM103.911 33.856L102.963 33.892C102.163 33.924 101.607 34.052 101.295 34.276C100.991 34.5 100.839 34.816 100.839 35.224C100.839 35.584 100.947 35.848 101.163 36.016C101.387 36.184 101.671 36.268 102.015 36.268C102.551 36.268 102.999 36.12 103.359 35.824C103.727 35.52 103.911 35.056 103.911 34.432V33.856ZM109.09 36.256C109.25 36.256 109.414 36.244 109.582 36.22C109.75 36.196 109.886 36.164 109.99 36.124V36.928C109.878 36.984 109.718 37.028 109.51 37.06C109.302 37.1 109.102 37.12 108.91 37.12C108.574 37.12 108.262 37.064 107.974 36.952C107.694 36.832 107.466 36.628 107.29 36.34C107.114 36.052 107.026 35.648 107.026 35.128V31.384H106.114V30.88L107.038 30.46L107.458 29.092H108.082V30.568H109.942V31.384H108.082V35.104C108.082 35.496 108.174 35.788 108.358 35.98C108.55 36.164 108.794 36.256 109.09 36.256ZM115.451 37H114.395V27.88H115.451V37ZM119.973 30.448C120.517 30.448 120.989 30.568 121.389 30.808C121.789 31.048 122.093 31.388 122.301 31.828C122.517 32.26 122.625 32.768 122.625 33.352V33.988H118.221C118.237 34.716 118.421 35.272 118.773 35.656C119.133 36.032 119.633 36.22 120.273 36.22C120.681 36.22 121.041 36.184 121.353 36.112C121.673 36.032 122.001 35.92 122.337 35.776V36.7C122.009 36.844 121.685 36.948 121.365 37.012C121.045 37.084 120.665 37.12 120.225 37.12C119.609 37.12 119.069 36.996 118.605 36.748C118.141 36.5 117.777 36.132 117.513 35.644C117.257 35.156 117.129 34.552 117.129 33.832C117.129 33.128 117.245 32.524 117.477 32.02C117.717 31.516 118.049 31.128 118.473 30.856C118.905 30.584 119.405 30.448 119.973 30.448ZM119.961 31.312C119.457 31.312 119.057 31.476 118.761 31.804C118.473 32.124 118.301 32.572 118.245 33.148H121.521C121.513 32.604 121.385 32.164 121.137 31.828C120.889 31.484 120.497 31.312 119.961 31.312ZM126.698 30.46C127.482 30.46 128.062 30.632 128.438 30.976C128.814 31.32 129.002 31.868 129.002 32.62V37H128.234L128.03 36.088H127.982C127.702 36.44 127.406 36.7 127.094 36.868C126.782 37.036 126.358 37.12 125.822 37.12C125.238 37.12 124.754 36.968 124.37 36.664C123.986 36.352 123.794 35.868 123.794 35.212C123.794 34.572 124.046 34.08 124.55 33.736C125.054 33.384 125.83 33.192 126.878 33.16L127.97 33.124V32.74C127.97 32.204 127.854 31.832 127.622 31.624C127.39 31.416 127.062 31.312 126.638 31.312C126.302 31.312 125.982 31.364 125.678 31.468C125.374 31.564 125.09 31.676 124.826 31.804L124.502 31.012C124.782 30.86 125.114 30.732 125.498 30.628C125.882 30.516 126.282 30.46 126.698 30.46ZM127.958 33.856L127.01 33.892C126.21 33.924 125.654 34.052 125.342 34.276C125.038 34.5 124.886 34.816 124.886 35.224C124.886 35.584 124.994 35.848 125.21 36.016C125.434 36.184 125.718 36.268 126.062 36.268C126.598 36.268 127.046 36.12 127.406 35.824C127.774 35.52 127.958 35.056 127.958 34.432V33.856ZM135.177 35.224C135.177 35.848 134.945 36.32 134.481 36.64C134.017 36.96 133.393 37.12 132.609 37.12C132.161 37.12 131.773 37.084 131.445 37.012C131.125 36.94 130.841 36.84 130.593 36.712V35.752C130.849 35.88 131.157 36 131.517 36.112C131.885 36.216 132.257 36.268 132.633 36.268C133.169 36.268 133.557 36.184 133.797 36.016C134.037 35.84 134.157 35.608 134.157 35.32C134.157 35.16 134.113 35.016 134.025 34.888C133.937 34.76 133.777 34.632 133.545 34.504C133.321 34.376 132.997 34.232 132.573 34.072C132.157 33.912 131.801 33.752 131.505 33.592C131.209 33.432 130.981 33.24 130.821 33.016C130.661 32.792 130.581 32.504 130.581 32.152C130.581 31.608 130.801 31.188 131.241 30.892C131.689 30.596 132.273 30.448 132.993 30.448C133.385 30.448 133.749 30.488 134.085 30.568C134.429 30.648 134.749 30.752 135.045 30.88L134.685 31.72C134.413 31.608 134.129 31.512 133.833 31.432C133.537 31.352 133.233 31.312 132.921 31.312C132.489 31.312 132.157 31.384 131.925 31.528C131.701 31.664 131.589 31.852 131.589 32.092C131.589 32.276 131.641 32.428 131.745 32.548C131.849 32.668 132.021 32.788 132.261 32.908C132.509 33.028 132.837 33.164 133.245 33.316C133.653 33.468 134.001 33.624 134.289 33.784C134.577 33.944 134.797 34.14 134.949 34.372C135.101 34.596 135.177 34.88 135.177 35.224ZM138.879 36.256C139.039 36.256 139.203 36.244 139.371 36.22C139.539 36.196 139.675 36.164 139.779 36.124V36.928C139.667 36.984 139.507 37.028 139.299 37.06C139.091 37.1 138.891 37.12 138.699 37.12C138.363 37.12 138.051 37.064 137.763 36.952C137.483 36.832 137.255 36.628 137.079 36.34C136.903 36.052 136.815 35.648 136.815 35.128V31.384H135.903V30.88L136.827 30.46L137.247 29.092H137.871V30.568H139.731V31.384H137.871V35.104C137.871 35.496 137.963 35.788 138.147 35.98C138.339 36.164 138.583 36.256 138.879 36.256ZM149.776 33.772C149.776 34.836 149.504 35.66 148.96 36.244C148.424 36.828 147.696 37.12 146.776 37.12C146.208 37.12 145.7 36.992 145.252 36.736C144.812 36.472 144.464 36.092 144.208 35.596C143.952 35.092 143.824 34.484 143.824 33.772C143.824 32.708 144.088 31.888 144.616 31.312C145.152 30.736 145.884 30.448 146.812 30.448C147.388 30.448 147.9 30.58 148.348 30.844C148.796 31.1 149.144 31.476 149.392 31.972C149.648 32.46 149.776 33.06 149.776 33.772ZM144.916 33.772C144.916 34.532 145.064 35.136 145.36 35.584C145.664 36.024 146.144 36.244 146.8 36.244C147.448 36.244 147.924 36.024 148.228 35.584C148.532 35.136 148.684 34.532 148.684 33.772C148.684 33.012 148.532 32.416 148.228 31.984C147.924 31.552 147.444 31.336 146.788 31.336C146.132 31.336 145.656 31.552 145.36 31.984C145.064 32.416 144.916 33.012 144.916 33.772ZM154.546 30.448C155.314 30.448 155.894 30.636 156.286 31.012C156.678 31.388 156.874 31.988 156.874 32.812V37H155.83V32.884C155.83 31.852 155.35 31.336 154.39 31.336C153.678 31.336 153.186 31.536 152.914 31.936C152.642 32.336 152.506 32.912 152.506 33.664V37H151.45V30.568H152.302L152.458 31.444H152.518C152.726 31.108 153.014 30.86 153.382 30.7C153.75 30.532 154.138 30.448 154.546 30.448ZM161.352 30.448C161.896 30.448 162.368 30.568 162.768 30.808C163.168 31.048 163.472 31.388 163.68 31.828C163.896 32.26 164.004 32.768 164.004 33.352V33.988H159.6C159.616 34.716 159.8 35.272 160.152 35.656C160.512 36.032 161.012 36.22 161.652 36.22C162.06 36.22 162.42 36.184 162.732 36.112C163.052 36.032 163.38 35.92 163.716 35.776V36.7C163.388 36.844 163.064 36.948 162.744 37.012C162.424 37.084 162.044 37.12 161.604 37.12C160.988 37.12 160.448 36.996 159.984 36.748C159.52 36.5 159.156 36.132 158.892 35.644C158.636 35.156 158.508 34.552 158.508 33.832C158.508 33.128 158.624 32.524 158.856 32.02C159.096 31.516 159.428 31.128 159.852 30.856C160.284 30.584 160.784 30.448 161.352 30.448ZM161.34 31.312C160.836 31.312 160.436 31.476 160.14 31.804C159.852 32.124 159.68 32.572 159.624 33.148H162.9C162.892 32.604 162.764 32.164 162.516 31.828C162.268 31.484 161.876 31.312 161.34 31.312ZM172.946 35.224C172.946 35.848 172.714 36.32 172.25 36.64C171.786 36.96 171.162 37.12 170.378 37.12C169.93 37.12 169.542 37.084 169.214 37.012C168.894 36.94 168.61 36.84 168.362 36.712V35.752C168.618 35.88 168.926 36 169.286 36.112C169.654 36.216 170.026 36.268 170.402 36.268C170.938 36.268 171.326 36.184 171.566 36.016C171.806 35.84 171.926 35.608 171.926 35.32C171.926 35.16 171.882 35.016 171.794 34.888C171.706 34.76 171.546 34.632 171.314 34.504C171.09 34.376 170.766 34.232 170.342 34.072C169.926 33.912 169.57 33.752 169.274 33.592C168.978 33.432 168.75 33.24 168.59 33.016C168.43 32.792 168.35 32.504 168.35 32.152C168.35 31.608 168.57 31.188 169.01 30.892C169.458 30.596 170.042 30.448 170.762 30.448C171.154 30.448 171.518 30.488 171.854 30.568C172.198 30.648 172.518 30.752 172.814 30.88L172.454 31.72C172.182 31.608 171.898 31.512 171.602 31.432C171.306 31.352 171.002 31.312 170.69 31.312C170.258 31.312 169.926 31.384 169.694 31.528C169.47 31.664 169.358 31.852 169.358 32.092C169.358 32.276 169.41 32.428 169.514 32.548C169.618 32.668 169.79 32.788 170.03 32.908C170.278 33.028 170.606 33.164 171.014 33.316C171.422 33.468 171.77 33.624 172.058 33.784C172.346 33.944 172.566 34.14 172.718 34.372C172.87 34.596 172.946 34.88 172.946 35.224ZM177.56 30.448C178.352 30.448 178.988 30.724 179.468 31.276C179.956 31.828 180.2 32.66 180.2 33.772C180.2 34.868 179.956 35.7 179.468 36.268C178.988 36.836 178.348 37.12 177.548 37.12C177.052 37.12 176.64 37.028 176.312 36.844C175.992 36.66 175.74 36.44 175.556 36.184H175.484C175.492 36.32 175.504 36.492 175.52 36.7C175.544 36.908 175.556 37.088 175.556 37.24V39.88H174.5V30.568H175.364L175.508 31.444H175.556C175.748 31.164 176 30.928 176.312 30.736C176.624 30.544 177.04 30.448 177.56 30.448ZM177.368 31.336C176.712 31.336 176.248 31.52 175.976 31.888C175.704 32.256 175.564 32.816 175.556 33.568V33.772C175.556 34.564 175.684 35.176 175.94 35.608C176.204 36.032 176.688 36.244 177.392 36.244C177.776 36.244 178.096 36.14 178.352 35.932C178.608 35.716 178.796 35.42 178.916 35.044C179.044 34.668 179.108 34.24 179.108 33.76C179.108 33.024 178.964 32.436 178.676 31.996C178.396 31.556 177.96 31.336 177.368 31.336ZM184.367 30.448C184.911 30.448 185.383 30.568 185.783 30.808C186.183 31.048 186.487 31.388 186.695 31.828C186.911 32.26 187.019 32.768 187.019 33.352V33.988H182.615C182.631 34.716 182.815 35.272 183.167 35.656C183.527 36.032 184.027 36.22 184.667 36.22C185.075 36.22 185.435 36.184 185.747 36.112C186.067 36.032 186.395 35.92 186.731 35.776V36.7C186.403 36.844 186.079 36.948 185.759 37.012C185.439 37.084 185.059 37.12 184.619 37.12C184.003 37.12 183.463 36.996 182.999 36.748C182.535 36.5 182.171 36.132 181.907 35.644C181.651 35.156 181.523 34.552 181.523 33.832C181.523 33.128 181.639 32.524 181.871 32.02C182.111 31.516 182.443 31.128 182.867 30.856C183.299 30.584 183.799 30.448 184.367 30.448ZM184.355 31.312C183.851 31.312 183.451 31.476 183.155 31.804C182.867 32.124 182.695 32.572 182.639 33.148H185.915C185.907 32.604 185.779 32.164 185.531 31.828C185.283 31.484 184.891 31.312 184.355 31.312ZM191.237 37.12C190.661 37.12 190.153 37.004 189.713 36.772C189.273 36.54 188.925 36.18 188.669 35.692C188.421 35.204 188.297 34.58 188.297 33.82C188.297 33.028 188.425 32.384 188.681 31.888C188.945 31.392 189.305 31.028 189.761 30.796C190.217 30.564 190.733 30.448 191.309 30.448C191.629 30.448 191.941 30.484 192.245 30.556C192.557 30.62 192.809 30.7 193.001 30.796L192.677 31.672C192.485 31.6 192.261 31.532 192.005 31.468C191.749 31.404 191.509 31.372 191.285 31.372C190.021 31.372 189.389 32.184 189.389 33.808C189.389 34.584 189.541 35.18 189.845 35.596C190.157 36.004 190.617 36.208 191.225 36.208C191.569 36.208 191.877 36.172 192.149 36.1C192.421 36.028 192.669 35.94 192.893 35.836V36.772C192.677 36.884 192.437 36.968 192.173 37.024C191.917 37.088 191.605 37.12 191.237 37.12ZM194.962 28.156C195.122 28.156 195.262 28.212 195.382 28.324C195.51 28.428 195.574 28.596 195.574 28.828C195.574 29.06 195.51 29.232 195.382 29.344C195.262 29.448 195.122 29.5 194.962 29.5C194.786 29.5 194.638 29.448 194.518 29.344C194.398 29.232 194.338 29.06 194.338 28.828C194.338 28.596 194.398 28.428 194.518 28.324C194.638 28.212 194.786 28.156 194.962 28.156ZM195.478 30.568V37H194.422V30.568H195.478ZM199.952 30.46C200.736 30.46 201.316 30.632 201.692 30.976C202.068 31.32 202.256 31.868 202.256 32.62V37H201.488L201.284 36.088H201.236C200.956 36.44 200.66 36.7 200.348 36.868C200.036 37.036 199.612 37.12 199.076 37.12C198.492 37.12 198.008 36.968 197.624 36.664C197.24 36.352 197.048 35.868 197.048 35.212C197.048 34.572 197.3 34.08 197.804 33.736C198.308 33.384 199.084 33.192 200.132 33.16L201.224 33.124V32.74C201.224 32.204 201.108 31.832 200.876 31.624C200.644 31.416 200.316 31.312 199.892 31.312C199.556 31.312 199.236 31.364 198.932 31.468C198.628 31.564 198.344 31.676 198.08 31.804L197.756 31.012C198.036 30.86 198.368 30.732 198.752 30.628C199.136 30.516 199.536 30.46 199.952 30.46ZM201.212 33.856L200.264 33.892C199.464 33.924 198.908 34.052 198.596 34.276C198.292 34.5 198.14 34.816 198.14 35.224C198.14 35.584 198.248 35.848 198.464 36.016C198.688 36.184 198.972 36.268 199.316 36.268C199.852 36.268 200.3 36.12 200.66 35.824C201.028 35.52 201.212 35.056 201.212 34.432V33.856ZM205.299 37H204.243V27.88H205.299V37ZM213.034 37.12C212.458 37.12 211.95 37.004 211.51 36.772C211.07 36.54 210.722 36.18 210.466 35.692C210.218 35.204 210.094 34.58 210.094 33.82C210.094 33.028 210.222 32.384 210.478 31.888C210.742 31.392 211.102 31.028 211.558 30.796C212.014 30.564 212.53 30.448 213.106 30.448C213.426 30.448 213.738 30.484 214.042 30.556C214.354 30.62 214.606 30.7 214.798 30.796L214.474 31.672C214.282 31.6 214.058 31.532 213.802 31.468C213.546 31.404 213.306 31.372 213.082 31.372C211.818 31.372 211.186 32.184 211.186 33.808C211.186 34.584 211.338 35.18 211.642 35.596C211.954 36.004 212.414 36.208 213.022 36.208C213.366 36.208 213.674 36.172 213.946 36.1C214.218 36.028 214.466 35.94 214.69 35.836V36.772C214.474 36.884 214.234 36.968 213.97 37.024C213.714 37.088 213.402 37.12 213.034 37.12ZM217.275 27.88V30.556C217.275 30.876 217.255 31.176 217.215 31.456H217.287C217.495 31.128 217.775 30.88 218.127 30.712C218.487 30.544 218.875 30.46 219.291 30.46C220.067 30.46 220.651 30.648 221.043 31.024C221.443 31.392 221.643 31.988 221.643 32.812V37H220.599V32.884C220.599 31.852 220.119 31.336 219.159 31.336C218.439 31.336 217.943 31.54 217.671 31.948C217.407 32.348 217.275 32.924 217.275 33.676V37H216.219V27.88H217.275ZM226.073 30.46C226.857 30.46 227.437 30.632 227.813 30.976C228.189 31.32 228.377 31.868 228.377 32.62V37H227.609L227.405 36.088H227.357C227.077 36.44 226.781 36.7 226.469 36.868C226.157 37.036 225.733 37.12 225.197 37.12C224.613 37.12 224.129 36.968 223.745 36.664C223.361 36.352 223.169 35.868 223.169 35.212C223.169 34.572 223.421 34.08 223.925 33.736C224.429 33.384 225.205 33.192 226.253 33.16L227.345 33.124V32.74C227.345 32.204 227.229 31.832 226.997 31.624C226.765 31.416 226.437 31.312 226.013 31.312C225.677 31.312 225.357 31.364 225.053 31.468C224.749 31.564 224.465 31.676 224.201 31.804L223.877 31.012C224.157 30.86 224.489 30.732 224.873 30.628C225.257 30.516 225.657 30.46 226.073 30.46ZM227.333 33.856L226.385 33.892C225.585 33.924 225.029 34.052 224.717 34.276C224.413 34.5 224.261 34.816 224.261 35.224C224.261 35.584 224.369 35.848 224.585 36.016C224.809 36.184 225.093 36.268 225.437 36.268C225.973 36.268 226.421 36.12 226.781 35.824C227.149 35.52 227.333 35.056 227.333 34.432V33.856ZM233.364 30.448C233.484 30.448 233.612 30.456 233.748 30.472C233.884 30.48 234.008 30.496 234.12 30.52L233.988 31.492C233.884 31.468 233.768 31.448 233.64 31.432C233.512 31.416 233.396 31.408 233.292 31.408C232.964 31.408 232.656 31.5 232.368 31.684C232.08 31.86 231.848 32.112 231.672 32.44C231.504 32.76 231.42 33.136 231.42 33.568V37H230.364V30.568H231.228L231.348 31.744H231.396C231.596 31.392 231.86 31.088 232.188 30.832C232.524 30.576 232.916 30.448 233.364 30.448ZM237.522 30.46C238.306 30.46 238.886 30.632 239.262 30.976C239.638 31.32 239.826 31.868 239.826 32.62V37H239.058L238.854 36.088H238.806C238.526 36.44 238.23 36.7 237.918 36.868C237.606 37.036 237.182 37.12 236.646 37.12C236.062 37.12 235.578 36.968 235.194 36.664C234.81 36.352 234.618 35.868 234.618 35.212C234.618 34.572 234.87 34.08 235.374 33.736C235.878 33.384 236.654 33.192 237.702 33.16L238.794 33.124V32.74C238.794 32.204 238.678 31.832 238.446 31.624C238.214 31.416 237.886 31.312 237.462 31.312C237.126 31.312 236.806 31.364 236.502 31.468C236.198 31.564 235.914 31.676 235.65 31.804L235.326 31.012C235.606 30.86 235.938 30.732 236.322 30.628C236.706 30.516 237.106 30.46 237.522 30.46ZM238.782 33.856L237.834 33.892C237.034 33.924 236.478 34.052 236.166 34.276C235.862 34.5 235.71 34.816 235.71 35.224C235.71 35.584 235.818 35.848 236.034 36.016C236.258 36.184 236.542 36.268 236.886 36.268C237.422 36.268 237.87 36.12 238.23 35.824C238.598 35.52 238.782 35.056 238.782 34.432V33.856ZM244.393 37.12C243.817 37.12 243.309 37.004 242.869 36.772C242.429 36.54 242.081 36.18 241.825 35.692C241.577 35.204 241.453 34.58 241.453 33.82C241.453 33.028 241.581 32.384 241.837 31.888C242.101 31.392 242.461 31.028 242.917 30.796C243.373 30.564 243.889 30.448 244.465 30.448C244.785 30.448 245.097 30.484 245.401 30.556C245.713 30.62 245.965 30.7 246.157 30.796L245.833 31.672C245.641 31.6 245.417 31.532 245.161 31.468C244.905 31.404 244.665 31.372 244.441 31.372C243.177 31.372 242.545 32.184 242.545 33.808C242.545 34.584 242.697 35.18 243.001 35.596C243.313 36.004 243.773 36.208 244.381 36.208C244.725 36.208 245.033 36.172 245.305 36.1C245.577 36.028 245.825 35.94 246.049 35.836V36.772C245.833 36.884 245.593 36.968 245.329 37.024C245.073 37.088 244.761 37.12 244.393 37.12ZM249.727 36.256C249.887 36.256 250.051 36.244 250.219 36.22C250.387 36.196 250.523 36.164 250.627 36.124V36.928C250.515 36.984 250.355 37.028 250.147 37.06C249.939 37.1 249.739 37.12 249.547 37.12C249.211 37.12 248.899 37.064 248.611 36.952C248.331 36.832 248.103 36.628 247.927 36.34C247.751 36.052 247.663 35.648 247.663 35.128V31.384H246.751V30.88L247.675 30.46L248.095 29.092H248.719V30.568H250.579V31.384H248.719V35.104C248.719 35.496 248.811 35.788 248.995 35.98C249.187 36.164 249.431 36.256 249.727 36.256ZM254.399 30.448C254.943 30.448 255.415 30.568 255.815 30.808C256.215 31.048 256.519 31.388 256.727 31.828C256.943 32.26 257.051 32.768 257.051 33.352V33.988H252.647C252.663 34.716 252.847 35.272 253.199 35.656C253.559 36.032 254.059 36.22 254.699 36.22C255.107 36.22 255.467 36.184 255.779 36.112C256.099 36.032 256.427 35.92 256.763 35.776V36.7C256.435 36.844 256.111 36.948 255.791 37.012C255.471 37.084 255.091 37.12 254.651 37.12C254.035 37.12 253.495 36.996 253.031 36.748C252.567 36.5 252.203 36.132 251.939 35.644C251.683 35.156 251.555 34.552 251.555 33.832C251.555 33.128 251.671 32.524 251.903 32.02C252.143 31.516 252.475 31.128 252.899 30.856C253.331 30.584 253.831 30.448 254.399 30.448ZM254.387 31.312C253.883 31.312 253.483 31.476 253.187 31.804C252.899 32.124 252.727 32.572 252.671 33.148H255.947C255.939 32.604 255.811 32.164 255.563 31.828C255.315 31.484 254.923 31.312 254.387 31.312ZM261.688 30.448C261.808 30.448 261.936 30.456 262.072 30.472C262.208 30.48 262.332 30.496 262.444 30.52L262.312 31.492C262.208 31.468 262.092 31.448 261.964 31.432C261.836 31.416 261.72 31.408 261.616 31.408C261.288 31.408 260.98 31.5 260.692 31.684C260.404 31.86 260.172 32.112 259.996 32.44C259.828 32.76 259.744 33.136 259.744 33.568V37H258.688V30.568H259.552L259.672 31.744H259.72C259.92 31.392 260.184 31.088 260.512 30.832C260.848 30.576 261.24 30.448 261.688 30.448ZM262.774 36.352C262.774 36.056 262.846 35.848 262.99 35.728C263.134 35.608 263.306 35.548 263.506 35.548C263.706 35.548 263.882 35.608 264.034 35.728C264.186 35.848 264.262 36.056 264.262 36.352C264.262 36.64 264.186 36.848 264.034 36.976C263.882 37.104 263.706 37.168 263.506 37.168C263.306 37.168 263.134 37.104 262.99 36.976C262.846 36.848 262.774 36.64 262.774 36.352Z" fill="white"/>
<path d="M88.5 59C87.1155 59 85.7622 59.4105 84.611 60.1797C83.4599 60.9489 82.5627 62.0421 82.0328 63.3212C81.503 64.6003 81.3644 66.0078 81.6345 67.3656C81.9046 68.7235 82.5713 69.9708 83.5503 70.9497C84.5292 71.9287 85.7765 72.5954 87.1344 72.8655C88.4922 73.1356 89.8997 72.997 91.1788 72.4672C92.4579 71.9373 93.5511 71.0401 94.3203 69.889C95.0895 68.7378 95.5 67.3845 95.5 66C95.5 64.1435 94.7625 62.363 93.4497 61.0503C92.137 59.7375 90.3565 59 88.5 59ZM88.5 72.25C87.2639 72.25 86.0555 71.8834 85.0277 71.1967C83.9999 70.5099 83.1988 69.5338 82.7258 68.3918C82.2527 67.2497 82.1289 65.9931 82.3701 64.7807C82.6113 63.5683 83.2065 62.4547 84.0806 61.5806C84.9547 60.7065 86.0683 60.1112 87.2807 59.8701C88.4931 59.6289 89.7497 59.7527 90.8918 60.2258C92.0338 60.6988 93.0099 61.4999 93.6967 62.5277C94.3834 63.5555 94.75 64.7639 94.75 66C94.7474 67.6568 94.088 69.245 92.9165 70.4165C91.745 71.588 90.1568 72.2474 88.5 72.25Z" fill="black"/>
<path d="M89.75 69H88.875V65C88.875 64.9005 88.8355 64.8052 88.7652 64.7348C88.6948 64.6645 88.5995 64.625 88.5 64.625H87.845C87.7455 64.625 87.6502 64.6645 87.5798 64.7348C87.5095 64.8052 87.47 64.9005 87.47 65C87.47 65.0995 87.5095 65.1948 87.5798 65.2652C87.6502 65.3355 87.7455 65.375 87.845 65.375H88.125V69H87.25C87.1505 69 87.0552 69.0395 86.9848 69.1098C86.9145 69.1802 86.875 69.2755 86.875 69.375C86.875 69.4745 86.9145 69.5698 86.9848 69.6402C87.0552 69.7105 87.1505 69.75 87.25 69.75H89.75C89.8495 69.75 89.9448 69.7105 90.0152 69.6402C90.0855 69.5698 90.125 69.4745 90.125 69.375C90.125 69.2755 90.0855 69.1802 90.0152 69.1098C89.9448 69.0395 89.8495 69 89.75 69Z" fill="black"/>
<path d="M88.5 63.46C88.6296 63.46 88.7562 63.4216 88.8639 63.3496C88.9716 63.2776 89.0556 63.1753 89.1051 63.0557C89.1547 62.936 89.1677 62.8043 89.1424 62.6772C89.1171 62.5502 89.0548 62.4334 88.9632 62.3418C88.8716 62.2502 88.7548 62.1879 88.6278 62.1626C88.5007 62.1373 88.369 62.1503 88.2493 62.1999C88.1297 62.2494 88.0274 62.3334 87.9554 62.4411C87.8834 62.5488 87.845 62.6755 87.845 62.805C87.845 62.9787 87.914 63.1453 88.0368 63.2682C88.1597 63.391 88.3263 63.46 88.5 63.46Z" fill="black"/>
</svg>
