<svg width="386" height="46" viewBox="0 0 386 46" fill="none" xmlns="http://www.w3.org/2000/svg">
<rect x="185.436" y="29.9258" width="15.8307" height="15.8307" rx="1.31923" fill="#1473E6"/>
<path d="M193.351 39.3077C193.087 39.3077 192.823 39.2417 192.593 39.1098C191.834 38.714 191.57 37.7576 191.966 36.999C192.395 36.2405 193.318 35.9766 194.077 36.3724C194.44 36.5703 194.703 36.9001 194.835 37.2959C194.967 37.6916 194.901 38.1204 194.703 38.4832C194.505 38.8459 194.176 39.1098 193.78 39.2417C193.648 39.2747 193.483 39.3077 193.351 39.3077ZM192.428 37.2299C192.131 37.7576 192.329 38.3842 192.856 38.681C193.12 38.813 193.384 38.8459 193.681 38.78C193.945 38.714 194.176 38.5161 194.308 38.2853C194.44 38.0214 194.473 37.7576 194.407 37.4608C194.341 37.1969 194.143 36.966 193.912 36.8341C193.351 36.5373 192.692 36.7352 192.428 37.2299Z" fill="white"/>
<path d="M191.669 41.9461C191.471 41.9461 191.306 41.9131 191.141 41.8142C190.713 41.5833 190.482 41.0886 190.581 40.5939L190.779 39.7034C190.812 39.5715 190.779 39.4066 190.713 39.3077C190.647 39.1758 190.515 39.1098 190.383 39.0768L189.657 38.9119C189.097 38.78 188.734 38.3512 188.734 37.8235C188.734 37.3288 189.064 36.8671 189.525 36.7352L190.35 36.4713C190.482 36.4384 190.614 36.3394 190.68 36.2075C190.746 36.0756 190.746 35.9437 190.713 35.8117L190.482 35.0862C190.317 34.5914 190.515 34.0638 190.977 33.7999C191.405 33.5361 191.966 33.602 192.329 33.9318L192.988 34.5255C193.087 34.6244 193.219 34.6904 193.384 34.6574C193.516 34.6574 193.648 34.5914 193.747 34.4925L194.242 33.9318C194.604 33.5361 195.165 33.4371 195.594 33.701C196.023 33.9318 196.253 34.4595 196.155 34.9213L195.957 35.7787C195.924 35.9107 195.957 36.0756 196.023 36.1745C196.089 36.3064 196.22 36.3724 196.352 36.4054L197.078 36.5703C197.573 36.6692 197.935 37.131 197.968 37.6257C197.968 38.1204 197.672 38.5821 197.177 38.714L196.319 39.0108C196.188 39.0438 196.056 39.1428 195.99 39.2747C195.924 39.4066 195.924 39.5385 195.957 39.7034L196.188 40.429C196.352 40.9237 196.155 41.4514 195.693 41.7153C195.264 41.9791 194.703 41.9131 194.341 41.5833L193.714 40.9897C193.648 40.8578 193.516 40.8248 193.351 40.8248C193.219 40.8248 193.087 40.8907 192.988 40.9897L192.494 41.5504C192.263 41.8142 191.966 41.9461 191.669 41.9461ZM191.537 34.1297C191.438 34.1297 191.306 34.1627 191.207 34.2287C190.977 34.3606 190.878 34.6574 190.944 34.9542L191.174 35.6468C191.273 35.9107 191.24 36.2075 191.108 36.4384C190.977 36.7022 190.779 36.8671 190.515 36.9661L189.657 37.1969C189.393 37.2629 189.196 37.5267 189.229 37.7906C189.229 38.0874 189.426 38.3183 189.723 38.3842L190.449 38.5491C190.713 38.6151 190.944 38.78 191.108 39.0108C191.273 39.2417 191.306 39.5385 191.24 39.8024L191.043 40.6929C190.977 40.9567 191.108 41.2535 191.339 41.3855C191.603 41.5174 191.9 41.4844 192.098 41.2535L192.593 40.6929C192.791 40.495 193.021 40.3631 193.318 40.3631C193.615 40.3631 193.879 40.462 194.077 40.6269L194.703 41.2206C194.901 41.4184 195.198 41.4514 195.462 41.2865C195.726 41.1216 195.825 40.8248 195.726 40.5609L195.528 39.8354C195.429 39.5715 195.462 39.2747 195.594 39.0438C195.726 38.813 195.924 38.6151 196.22 38.5491L197.078 38.2853C197.342 38.2193 197.507 37.9555 197.507 37.6916C197.507 37.3948 197.309 37.1639 197.012 37.098L196.286 36.9331C196.023 36.8671 195.792 36.7022 195.627 36.4713C195.462 36.2405 195.429 35.9437 195.495 35.6798L195.66 34.8223C195.726 34.5585 195.594 34.2616 195.363 34.1297C195.099 33.9978 194.802 34.0308 194.604 34.2616L194.11 34.8223C193.912 35.0202 193.681 35.1521 193.384 35.1521C193.087 35.1521 192.856 35.0532 192.626 34.8883L191.966 34.2946C191.834 34.1957 191.702 34.1297 191.537 34.1297Z" fill="white"/>
<rect x="0.0847168" y="0.243164" width="385.831" height="21.5538" rx="2.63845" fill="#323232"/>
<path d="M11.9735 12.0087C11.9735 12.51 11.7915 12.9005 11.4273 13.1801C11.0632 13.4598 10.5725 13.5997 9.95509 13.5997C9.63848 13.5997 9.34561 13.5759 9.07649 13.5284C8.80737 13.4809 8.5831 13.415 8.40368 13.3305V12.6498C8.59365 12.7342 8.82847 12.8108 9.10815 12.8794C9.3931 12.948 9.68597 12.9823 9.98675 12.9823C10.4036 12.9823 10.7202 12.9005 10.9366 12.7369C11.1529 12.5733 11.2611 12.3517 11.2611 12.072C11.2611 11.8873 11.2215 11.7316 11.1424 11.605C11.0632 11.4783 10.926 11.3623 10.7308 11.2567C10.5356 11.1512 10.2691 11.0351 9.93135 10.9084C9.44587 10.7343 9.08176 10.5206 8.83903 10.2673C8.59629 10.014 8.47492 9.66837 8.47492 9.23039C8.47492 8.93488 8.55144 8.67895 8.70447 8.4626C8.8575 8.24624 9.06857 8.08002 9.33769 7.96393C9.60682 7.84784 9.92079 7.78979 10.2796 7.78979C10.5857 7.78979 10.868 7.81881 11.1266 7.87686C11.3851 7.93491 11.6226 8.01142 11.8389 8.10641L11.6173 8.71589C11.4221 8.63146 11.2084 8.56022 10.9762 8.50217C10.744 8.44413 10.5065 8.4151 10.2638 8.4151C9.91024 8.4151 9.64376 8.49162 9.46434 8.64465C9.28493 8.7924 9.19522 8.99029 9.19522 9.2383C9.19522 9.42827 9.2348 9.58658 9.31395 9.71322C9.3931 9.83987 9.52239 9.95596 9.7018 10.0615C9.88122 10.1618 10.124 10.2673 10.43 10.3781C10.7625 10.4995 11.0421 10.6314 11.269 10.7739C11.5012 10.9111 11.6754 11.0773 11.7915 11.2725C11.9128 11.4678 11.9735 11.7132 11.9735 12.0087ZM14.6238 9.20664C15.1409 9.20664 15.5235 9.32009 15.7715 9.547C16.0195 9.77391 16.1435 10.1354 16.1435 10.6314V13.5205H15.637L15.5024 12.9189H15.4707C15.286 13.1511 15.0908 13.3226 14.885 13.4334C14.6792 13.5443 14.3995 13.5997 14.046 13.5997C13.6608 13.5997 13.3415 13.4994 13.0882 13.2989C12.8349 13.0931 12.7083 12.7738 12.7083 12.3411C12.7083 11.919 12.8745 11.5944 13.2069 11.3675C13.5394 11.1353 14.0512 11.0087 14.7425 10.9876L15.4628 10.9638V10.7106C15.4628 10.357 15.3863 10.1116 15.2333 9.97443C15.0802 9.83723 14.8639 9.76863 14.5842 9.76863C14.3626 9.76863 14.1515 9.80293 13.951 9.87153C13.7505 9.93485 13.5631 10.0087 13.389 10.0932L13.1753 9.57075C13.36 9.47049 13.579 9.38606 13.8323 9.31746C14.0855 9.24358 14.3494 9.20664 14.6238 9.20664ZM15.4549 11.4467L14.8296 11.4704C14.3019 11.4915 13.9352 11.576 13.7294 11.7237C13.5288 11.8715 13.4286 12.0799 13.4286 12.349C13.4286 12.5865 13.4998 12.7606 13.6423 12.8714C13.79 12.9823 13.9774 13.0377 14.2043 13.0377C14.5578 13.0377 14.8533 12.94 15.0908 12.7448C15.3335 12.5443 15.4549 12.2382 15.4549 11.8266V11.4467ZM18.1505 13.5205H17.4539V7.50484H18.1505V13.5205ZM21.1331 9.19873C21.4919 9.19873 21.8032 9.27788 22.0671 9.43619C22.3309 9.59449 22.5314 9.81876 22.6686 10.109C22.8111 10.3939 22.8823 10.729 22.8823 11.1142V11.5338H19.9774C19.988 12.014 20.1093 12.3807 20.3415 12.634C20.579 12.882 20.9088 13.006 21.3309 13.006C21.6001 13.006 21.8375 12.9823 22.0433 12.9348C22.2544 12.882 22.4707 12.8081 22.6924 12.7131V13.3226C22.476 13.4176 22.2623 13.4862 22.0512 13.5284C21.8402 13.5759 21.5895 13.5997 21.2993 13.5997C20.893 13.5997 20.5368 13.5179 20.2307 13.3543C19.9246 13.1907 19.6845 12.948 19.5104 12.6261C19.3415 12.3042 19.2571 11.9058 19.2571 11.4309C19.2571 10.9665 19.3336 10.5681 19.4867 10.2356C19.645 9.90319 19.864 9.64726 20.1436 9.46785C20.4286 9.28843 20.7584 9.19873 21.1331 9.19873ZM21.1251 9.76863C20.7927 9.76863 20.5288 9.87681 20.3336 10.0932C20.1436 10.3042 20.0302 10.5997 19.9932 10.9797H22.1541C22.1489 10.6209 22.0644 10.3306 21.9008 10.109C21.7373 9.88208 21.4787 9.76863 21.1251 9.76863ZM26.7249 12.349C26.7249 12.7606 26.5718 13.072 26.2658 13.283C25.9597 13.4941 25.5481 13.5997 25.031 13.5997C24.7355 13.5997 24.4796 13.5759 24.2632 13.5284C24.0521 13.4809 23.8648 13.415 23.7012 13.3305V12.6973C23.8701 12.7817 24.0732 12.8609 24.3107 12.9348C24.5534 13.0034 24.7988 13.0377 25.0468 13.0377C25.4004 13.0377 25.6563 12.9823 25.8146 12.8714C25.9729 12.7554 26.0521 12.6023 26.0521 12.4124C26.0521 12.3068 26.0231 12.2118 25.965 12.1274C25.907 12.043 25.8014 11.9585 25.6484 11.8741C25.5006 11.7897 25.2869 11.6947 25.0072 11.5892C24.7328 11.4836 24.498 11.3781 24.3028 11.2725C24.1075 11.167 23.9571 11.0404 23.8516 10.8926C23.7461 10.7449 23.6933 10.5549 23.6933 10.3227C23.6933 9.96388 23.8384 9.68684 24.1286 9.49159C24.4242 9.29635 24.8094 9.19873 25.2843 9.19873C25.5429 9.19873 25.783 9.22511 26.0046 9.27788C26.2315 9.33065 26.4426 9.39925 26.6378 9.48368L26.4004 10.0378C26.2209 9.96388 26.0336 9.90055 25.8384 9.84778C25.6431 9.79501 25.4426 9.76863 25.2368 9.76863C24.9518 9.76863 24.7328 9.81612 24.5798 9.91111C24.4321 10.0008 24.3582 10.1248 24.3582 10.2831C24.3582 10.4045 24.3925 10.5048 24.4611 10.5839C24.5297 10.6631 24.6431 10.7422 24.8014 10.8214C24.965 10.9005 25.1814 10.9902 25.4505 11.0905C25.7196 11.1908 25.9492 11.2937 26.1391 11.3992C26.3291 11.5047 26.4742 11.634 26.5745 11.787C26.6747 11.9348 26.7249 12.1221 26.7249 12.349ZM28.5416 12.6023L28.597 12.6894C28.5231 12.9691 28.4228 13.2751 28.2962 13.6076C28.1696 13.9453 28.0429 14.2566 27.9163 14.5416H27.4018C27.4756 14.2408 27.5495 13.911 27.6234 13.5522C27.7025 13.1933 27.7606 12.8767 27.7975 12.6023H28.5416ZM33.5785 7.86895C34.2803 7.86895 34.7974 8.00351 35.1299 8.27263C35.4676 8.53647 35.6365 8.93752 35.6365 9.47576C35.6365 9.77655 35.581 10.0272 35.4702 10.2277C35.3594 10.4282 35.2169 10.5892 35.0428 10.7106C34.8739 10.8319 34.6945 10.9243 34.5046 10.9876L36.056 13.5205H35.2249L33.8555 11.1855H32.7315V13.5205H32.0191V7.86895H33.5785ZM33.5389 8.48634H32.7315V10.5839H33.5785C34.0376 10.5839 34.3726 10.4942 34.5837 10.3148C34.7948 10.1301 34.9003 9.86098 34.9003 9.50742C34.9003 9.13804 34.7895 8.87683 34.5679 8.7238C34.3463 8.5655 34.0033 8.48634 33.5389 8.48634ZM38.4865 9.19873C38.8454 9.19873 39.1567 9.27788 39.4205 9.43619C39.6844 9.59449 39.8849 9.81876 40.0221 10.109C40.1646 10.3939 40.2358 10.729 40.2358 11.1142V11.5338H37.3309C37.3415 12.014 37.4628 12.3807 37.695 12.634C37.9325 12.882 38.2623 13.006 38.6844 13.006C38.9535 13.006 39.191 12.9823 39.3968 12.9348C39.6079 12.882 39.8242 12.8081 40.0459 12.7131V13.3226C39.8295 13.4176 39.6158 13.4862 39.4047 13.5284C39.1936 13.5759 38.943 13.5997 38.6528 13.5997C38.2464 13.5997 37.8902 13.5179 37.5842 13.3543C37.2781 13.1907 37.038 12.948 36.8639 12.6261C36.695 12.3042 36.6106 11.9058 36.6106 11.4309C36.6106 10.9665 36.6871 10.5681 36.8401 10.2356C36.9985 9.90319 37.2174 9.64726 37.4971 9.46785C37.7821 9.28843 38.1119 9.19873 38.4865 9.19873ZM38.4786 9.76863C38.1462 9.76863 37.8823 9.87681 37.6871 10.0932C37.4971 10.3042 37.3837 10.5997 37.3467 10.9797H39.5076C39.5023 10.6209 39.4179 10.3306 39.2543 10.109C39.0907 9.88208 38.8322 9.76863 38.4786 9.76863ZM42.7328 13.0298C42.8383 13.0298 42.9465 13.0218 43.0573 13.006C43.1681 12.9902 43.2578 12.9691 43.3264 12.9427V13.473C43.2525 13.51 43.147 13.539 43.0098 13.5601C42.8726 13.5865 42.7407 13.5997 42.614 13.5997C42.3924 13.5997 42.1866 13.5627 41.9966 13.4888C41.8119 13.4097 41.6615 13.2751 41.5455 13.0852C41.4294 12.8952 41.3713 12.6287 41.3713 12.2857V9.81612H40.7697V9.48368L41.3792 9.20664L41.6563 8.30429H42.0679V9.27788H43.2947V9.81612H42.0679V12.2699C42.0679 12.5285 42.1285 12.7211 42.2499 12.8477C42.3766 12.9691 42.5375 13.0298 42.7328 13.0298ZM45.8144 9.19873C46.1733 9.19873 46.4846 9.27788 46.7484 9.43619C47.0123 9.59449 47.2128 9.81876 47.35 10.109C47.4925 10.3939 47.5637 10.729 47.5637 11.1142V11.5338H44.6588C44.6693 12.014 44.7907 12.3807 45.0229 12.634C45.2603 12.882 45.5902 13.006 46.0123 13.006C46.2814 13.006 46.5189 12.9823 46.7247 12.9348C46.9358 12.882 47.1521 12.8081 47.3737 12.7131V13.3226C47.1574 13.4176 46.9437 13.4862 46.7326 13.5284C46.5215 13.5759 46.2709 13.5997 45.9806 13.5997C45.5743 13.5997 45.2181 13.5179 44.9121 13.3543C44.606 13.1907 44.3659 12.948 44.1918 12.6261C44.0229 12.3042 43.9385 11.9058 43.9385 11.4309C43.9385 10.9665 44.015 10.5681 44.168 10.2356C44.3263 9.90319 44.5453 9.64726 44.825 9.46785C45.11 9.28843 45.4398 9.19873 45.8144 9.19873ZM45.8065 9.76863C45.4741 9.76863 45.2102 9.87681 45.015 10.0932C44.825 10.3042 44.7116 10.5997 44.6746 10.9797H46.8355C46.8302 10.6209 46.7458 10.3306 46.5822 10.109C46.4186 9.88208 46.1601 9.76863 45.8065 9.76863ZM50.686 9.19873C51.1925 9.19873 51.5751 9.32273 51.8337 9.57075C52.0922 9.81876 52.2215 10.2145 52.2215 10.758V13.5205H51.5329V10.8055C51.5329 10.1248 51.2163 9.78446 50.5831 9.78446C50.1134 9.78446 49.7889 9.91638 49.6095 10.1802C49.43 10.4441 49.3403 10.824 49.3403 11.32V13.5205H48.6438V9.27788H49.2058L49.3087 9.8557H49.3483C49.4855 9.63407 49.6754 9.47049 49.9182 9.36495C50.1609 9.25413 50.4168 9.19873 50.686 9.19873ZM54.9536 13.0298C55.0592 13.0298 55.1673 13.0218 55.2782 13.006C55.389 12.9902 55.4787 12.9691 55.5473 12.9427V13.473C55.4734 13.51 55.3679 13.539 55.2307 13.5601C55.0935 13.5865 54.9615 13.5997 54.8349 13.5997C54.6133 13.5997 54.4075 13.5627 54.2175 13.4888C54.0328 13.4097 53.8824 13.2751 53.7663 13.0852C53.6502 12.8952 53.5922 12.6287 53.5922 12.2857V9.81612H52.9906V9.48368L53.6001 9.20664L53.8771 8.30429H54.2887V9.27788H55.5156V9.81612H54.2887V12.2699C54.2887 12.5285 54.3494 12.7211 54.4708 12.8477C54.5974 12.9691 54.7584 13.0298 54.9536 13.0298ZM56.753 7.68689C56.8585 7.68689 56.9509 7.72383 57.03 7.79771C57.1145 7.86631 57.1567 7.97712 57.1567 8.13015C57.1567 8.28318 57.1145 8.39664 57.03 8.47051C56.9509 8.53911 56.8585 8.57341 56.753 8.57341C56.6369 8.57341 56.5393 8.53911 56.4601 8.47051C56.381 8.39664 56.3414 8.28318 56.3414 8.13015C56.3414 7.97712 56.381 7.86631 56.4601 7.79771C56.5393 7.72383 56.6369 7.68689 56.753 7.68689ZM57.0934 9.27788V13.5205H56.3968V9.27788H57.0934ZM62.126 11.3913C62.126 12.0931 61.9466 12.6366 61.5878 13.0218C61.2342 13.4071 60.7541 13.5997 60.1472 13.5997C59.7725 13.5997 59.4375 13.5152 59.142 13.3464C58.8517 13.1722 58.6222 12.9216 58.4533 12.5944C58.2845 12.262 58.2 11.8609 58.2 11.3913C58.2 10.6894 58.3742 10.1486 58.7224 9.76863C59.076 9.38869 59.5588 9.19873 60.171 9.19873C60.5509 9.19873 60.8886 9.28579 61.1841 9.45993C61.4796 9.62879 61.7092 9.87681 61.8728 10.204C62.0416 10.5259 62.126 10.9216 62.126 11.3913ZM58.9203 11.3913C58.9203 11.8926 59.018 12.291 59.2132 12.5865C59.4137 12.8767 59.7303 13.0218 60.163 13.0218C60.5905 13.0218 60.9044 12.8767 61.105 12.5865C61.3055 12.291 61.4057 11.8926 61.4057 11.3913C61.4057 10.89 61.3055 10.4968 61.105 10.2119C60.9044 9.92694 60.5878 9.78446 60.1551 9.78446C59.7224 9.78446 59.4084 9.92694 59.2132 10.2119C59.018 10.4968 58.9203 10.89 58.9203 11.3913ZM65.2722 9.19873C65.7787 9.19873 66.1613 9.32273 66.4199 9.57075C66.6784 9.81876 66.8077 10.2145 66.8077 10.758V13.5205H66.1191V10.8055C66.1191 10.1248 65.8025 9.78446 65.1693 9.78446C64.6996 9.78446 64.3751 9.91638 64.1957 10.1802C64.0162 10.4441 63.9265 10.824 63.9265 11.32V13.5205H63.23V9.27788H63.792L63.8949 9.8557H63.9345C64.0717 9.63407 64.2616 9.47049 64.5044 9.36495C64.7471 9.25413 65.003 9.19873 65.2722 9.19873ZM68.9145 12.6023L68.9699 12.6894C68.896 12.9691 68.7958 13.2751 68.6691 13.6076C68.5425 13.9453 68.4158 14.2566 68.2892 14.5416H67.7747C67.8486 14.2408 67.9225 13.911 67.9963 13.5522C68.0755 13.1933 68.1335 12.8767 68.1705 12.6023H68.9145ZM74.1809 13.5205H73.4686V8.49426H71.7034V7.86895H75.9382V8.49426H74.1809V13.5205ZM77.7773 9.19873C78.1361 9.19873 78.4475 9.27788 78.7113 9.43619C78.9752 9.59449 79.1757 9.81876 79.3129 10.109C79.4553 10.3939 79.5266 10.729 79.5266 11.1142V11.5338H76.6217C76.6322 12.014 76.7536 12.3807 76.9858 12.634C77.2232 12.882 77.553 13.006 77.9752 13.006C78.2443 13.006 78.4818 12.9823 78.6876 12.9348C78.8986 12.882 79.115 12.8081 79.3366 12.7131V13.3226C79.1203 13.4176 78.9066 13.4862 78.6955 13.5284C78.4844 13.5759 78.2337 13.5997 77.9435 13.5997C77.5372 13.5997 77.181 13.5179 76.8749 13.3543C76.5689 13.1907 76.3288 12.948 76.1546 12.6261C75.9858 12.3042 75.9014 11.9058 75.9014 11.4309C75.9014 10.9665 75.9779 10.5681 76.1309 10.2356C76.2892 9.90319 76.5082 9.64726 76.7879 9.46785C77.0728 9.28843 77.4026 9.19873 77.7773 9.19873ZM77.7694 9.76863C77.4369 9.76863 77.1731 9.87681 76.9778 10.0932C76.7879 10.3042 76.6744 10.5997 76.6375 10.9797H78.7984C78.7931 10.6209 78.7087 10.3306 78.5451 10.109C78.3815 9.88208 78.1229 9.76863 77.7694 9.76863ZM82.3085 13.5997C81.9285 13.5997 81.5934 13.5231 81.3032 13.3701C81.013 13.2171 80.7834 12.9796 80.6146 12.6577C80.451 12.3358 80.3692 11.9242 80.3692 11.4229C80.3692 10.9005 80.4536 10.4757 80.6225 10.1486C80.7966 9.8214 81.0341 9.5813 81.3349 9.42827C81.6357 9.27524 81.976 9.19873 82.356 9.19873C82.567 9.19873 82.7728 9.22247 82.9734 9.26996C83.1792 9.31218 83.3454 9.36495 83.472 9.42827L83.2583 10.0061C83.1317 9.9586 82.9839 9.91375 82.815 9.87153C82.6462 9.82931 82.4879 9.80821 82.3401 9.80821C81.5064 9.80821 81.0895 10.3438 81.0895 11.415C81.0895 11.9269 81.1898 12.32 81.3903 12.5944C81.5961 12.8635 81.8995 12.9981 82.3006 12.9981C82.5275 12.9981 82.7306 12.9743 82.91 12.9269C83.0894 12.8794 83.253 12.8213 83.4008 12.7527V13.3701C83.2583 13.444 83.1 13.4994 82.9259 13.5363C82.757 13.5786 82.5512 13.5997 82.3085 13.5997ZM85.1063 7.50484V9.26996C85.1063 9.48104 85.0931 9.67892 85.0667 9.86361H85.1142C85.2514 9.64726 85.4361 9.48368 85.6683 9.37286C85.9057 9.26205 86.1617 9.20664 86.4361 9.20664C86.9479 9.20664 87.3331 9.33065 87.5917 9.57866C87.8556 9.8214 87.9875 10.2145 87.9875 10.758V13.5205H87.2988V10.8055C87.2988 10.1248 86.9822 9.78446 86.349 9.78446C85.8741 9.78446 85.5469 9.91902 85.3675 10.1881C85.1934 10.452 85.1063 10.8319 85.1063 11.328V13.5205H84.4097V7.50484H85.1063ZM91.3449 9.19873C91.8515 9.19873 92.2341 9.32273 92.4926 9.57075C92.7512 9.81876 92.8805 10.2145 92.8805 10.758V13.5205H92.1918V10.8055C92.1918 10.1248 91.8752 9.78446 91.242 9.78446C90.7724 9.78446 90.4478 9.91638 90.2684 10.1802C90.089 10.4441 89.9993 10.824 89.9993 11.32V13.5205H89.3027V9.27788H89.8647L89.9676 9.8557H90.0072C90.1444 9.63407 90.3344 9.47049 90.5771 9.36495C90.8198 9.25413 91.0758 9.19873 91.3449 9.19873ZM94.5519 7.68689C94.6574 7.68689 94.7498 7.72383 94.8289 7.79771C94.9134 7.86631 94.9556 7.97712 94.9556 8.13015C94.9556 8.28318 94.9134 8.39664 94.8289 8.47051C94.7498 8.53911 94.6574 8.57341 94.5519 8.57341C94.4358 8.57341 94.3382 8.53911 94.259 8.47051C94.1799 8.39664 94.1403 8.28318 94.1403 8.13015C94.1403 7.97712 94.1799 7.86631 94.259 7.79771C94.3382 7.72383 94.4358 7.68689 94.5519 7.68689ZM94.8923 9.27788V13.5205H94.1957V9.27788H94.8923ZM97.9382 13.5997C97.5583 13.5997 97.2232 13.5231 96.9329 13.3701C96.6427 13.2171 96.4132 12.9796 96.2443 12.6577C96.0807 12.3358 95.9989 11.9242 95.9989 11.4229C95.9989 10.9005 96.0834 10.4757 96.2522 10.1486C96.4264 9.8214 96.6638 9.5813 96.9646 9.42827C97.2654 9.27524 97.6058 9.19873 97.9857 9.19873C98.1968 9.19873 98.4026 9.22247 98.6031 9.26996C98.8089 9.31218 98.9751 9.36495 99.1018 9.42827L98.888 10.0061C98.7614 9.9586 98.6136 9.91375 98.4448 9.87153C98.2759 9.82931 98.1176 9.80821 97.9699 9.80821C97.1361 9.80821 96.7192 10.3438 96.7192 11.415C96.7192 11.9269 96.8195 12.32 97.02 12.5944C97.2258 12.8635 97.5292 12.9981 97.9303 12.9981C98.1572 12.9981 98.3603 12.9743 98.5398 12.9269C98.7192 12.8794 98.8828 12.8213 99.0305 12.7527V13.3701C98.888 13.444 98.7297 13.4994 98.5556 13.5363C98.3867 13.5786 98.1809 13.5997 97.9382 13.5997ZM101.646 9.20664C102.163 9.20664 102.546 9.32009 102.794 9.547C103.042 9.77391 103.166 10.1354 103.166 10.6314V13.5205H102.659L102.525 12.9189H102.493C102.309 13.1511 102.113 13.3226 101.907 13.4334C101.702 13.5443 101.422 13.5997 101.068 13.5997C100.683 13.5997 100.364 13.4994 100.111 13.2989C99.8574 13.0931 99.7308 12.7738 99.7308 12.3411C99.7308 11.919 99.897 11.5944 100.229 11.3675C100.562 11.1353 101.074 11.0087 101.765 10.9876L102.485 10.9638V10.7106C102.485 10.357 102.409 10.1116 102.256 9.97443C102.103 9.83723 101.886 9.76863 101.607 9.76863C101.385 9.76863 101.174 9.80293 100.973 9.87153C100.773 9.93485 100.586 10.0087 100.411 10.0932L100.198 9.57075C100.382 9.47049 100.601 9.38606 100.855 9.31746C101.108 9.24358 101.372 9.20664 101.646 9.20664ZM102.477 11.4467L101.852 11.4704C101.324 11.4915 100.958 11.576 100.752 11.7237C100.551 11.8715 100.451 12.0799 100.451 12.349C100.451 12.5865 100.522 12.7606 100.665 12.8714C100.813 12.9823 101 13.0377 101.227 13.0377C101.58 13.0377 101.876 12.94 102.113 12.7448C102.356 12.5443 102.477 12.2382 102.477 11.8266V11.4467ZM105.173 13.5205H104.476V7.50484H105.173V13.5205ZM111.874 12.0087C111.874 12.51 111.692 12.9005 111.328 13.1801C110.964 13.4598 110.473 13.5997 109.855 13.5997C109.539 13.5997 109.246 13.5759 108.977 13.5284C108.708 13.4809 108.484 13.415 108.304 13.3305V12.6498C108.494 12.7342 108.729 12.8108 109.009 12.8794C109.294 12.948 109.586 12.9823 109.887 12.9823C110.304 12.9823 110.621 12.9005 110.837 12.7369C111.053 12.5733 111.162 12.3517 111.162 12.072C111.162 11.8873 111.122 11.7316 111.043 11.605C110.964 11.4783 110.826 11.3623 110.631 11.2567C110.436 11.1512 110.169 11.0351 109.832 10.9084C109.346 10.7343 108.982 10.5206 108.739 10.2673C108.497 10.014 108.375 9.66837 108.375 9.23039C108.375 8.93488 108.452 8.67895 108.605 8.4626C108.758 8.24624 108.969 8.08002 109.238 7.96393C109.507 7.84784 109.821 7.78979 110.18 7.78979C110.486 7.78979 110.768 7.81881 111.027 7.87686C111.286 7.93491 111.523 8.01142 111.739 8.10641L111.518 8.71589C111.322 8.63146 111.109 8.56022 110.877 8.50217C110.644 8.44413 110.407 8.4151 110.164 8.4151C109.811 8.4151 109.544 8.49162 109.365 8.64465C109.185 8.7924 109.096 8.99029 109.096 9.2383C109.096 9.42827 109.135 9.58658 109.214 9.71322C109.294 9.83987 109.423 9.95596 109.602 10.0615C109.782 10.1618 110.024 10.2673 110.33 10.3781C110.663 10.4995 110.943 10.6314 111.169 10.7739C111.402 10.9111 111.576 11.0773 111.692 11.2725C111.813 11.4678 111.874 11.7132 111.874 12.0087ZM116.463 9.27788V13.5205H115.894L115.791 12.9585H115.759C115.622 13.1801 115.432 13.3437 115.189 13.4493C114.946 13.5495 114.688 13.5997 114.413 13.5997C113.902 13.5997 113.516 13.4783 113.258 13.2356C112.999 12.9875 112.87 12.5944 112.87 12.0562V9.27788H113.574V12.0087C113.574 12.6841 113.888 13.0218 114.516 13.0218C114.986 13.0218 115.31 12.8899 115.49 12.6261C115.675 12.3622 115.767 11.9823 115.767 11.4863V9.27788H116.463ZM119.829 9.19873C120.351 9.19873 120.771 9.38078 121.087 9.74488C121.409 10.109 121.57 10.6578 121.57 11.3913C121.57 12.1142 121.409 12.663 121.087 13.0377C120.771 13.4123 120.349 13.5997 119.821 13.5997C119.494 13.5997 119.222 13.539 119.006 13.4176C118.795 13.2962 118.628 13.1511 118.507 12.9823H118.459C118.465 13.072 118.473 13.1854 118.483 13.3226C118.499 13.4598 118.507 13.5786 118.507 13.6788V15.4202H117.81V9.27788H118.38L118.475 9.8557H118.507C118.634 9.67101 118.8 9.51534 119.006 9.38869C119.211 9.26205 119.486 9.19873 119.829 9.19873ZM119.702 9.78446C119.269 9.78446 118.963 9.90583 118.784 10.1486C118.605 10.3913 118.512 10.7607 118.507 11.2567V11.3913C118.507 11.9137 118.591 12.3174 118.76 12.6023C118.934 12.882 119.254 13.0218 119.718 13.0218C119.971 13.0218 120.182 12.9532 120.351 12.816C120.52 12.6736 120.644 12.4783 120.723 12.2303C120.808 11.9823 120.85 11.7 120.85 11.3834C120.85 10.8979 120.755 10.51 120.565 10.2198C120.38 9.92958 120.093 9.78446 119.702 9.78446ZM124.699 9.19873C125.221 9.19873 125.641 9.38078 125.957 9.74488C126.279 10.109 126.44 10.6578 126.44 11.3913C126.44 12.1142 126.279 12.663 125.957 13.0377C125.641 13.4123 125.218 13.5997 124.691 13.5997C124.363 13.5997 124.092 13.539 123.875 13.4176C123.664 13.2962 123.498 13.1511 123.377 12.9823H123.329C123.335 13.072 123.342 13.1854 123.353 13.3226C123.369 13.4598 123.377 13.5786 123.377 13.6788V15.4202H122.68V9.27788H123.25L123.345 9.8557H123.377C123.503 9.67101 123.67 9.51534 123.875 9.38869C124.081 9.26205 124.356 9.19873 124.699 9.19873ZM124.572 9.78446C124.139 9.78446 123.833 9.90583 123.654 10.1486C123.474 10.3913 123.382 10.7607 123.377 11.2567V11.3913C123.377 11.9137 123.461 12.3174 123.63 12.6023C123.804 12.882 124.123 13.0218 124.588 13.0218C124.841 13.0218 125.052 12.9532 125.221 12.816C125.39 12.6736 125.514 12.4783 125.593 12.2303C125.677 11.9823 125.72 11.7 125.72 11.3834C125.72 10.8979 125.625 10.51 125.435 10.2198C125.25 9.92958 124.962 9.78446 124.572 9.78446ZM131.239 11.3913C131.239 12.0931 131.059 12.6366 130.7 13.0218C130.347 13.4071 129.867 13.5997 129.26 13.5997C128.885 13.5997 128.55 13.5152 128.254 13.3464C127.964 13.1722 127.735 12.9216 127.566 12.5944C127.397 12.262 127.313 11.8609 127.313 11.3913C127.313 10.6894 127.487 10.1486 127.835 9.76863C128.188 9.38869 128.671 9.19873 129.283 9.19873C129.663 9.19873 130.001 9.28579 130.297 9.45993C130.592 9.62879 130.822 9.87681 130.985 10.204C131.154 10.5259 131.239 10.9216 131.239 11.3913ZM128.033 11.3913C128.033 11.8926 128.13 12.291 128.326 12.5865C128.526 12.8767 128.843 13.0218 129.276 13.0218C129.703 13.0218 130.017 12.8767 130.217 12.5865C130.418 12.291 130.518 11.8926 130.518 11.3913C130.518 10.89 130.418 10.4968 130.217 10.2119C130.017 9.92694 129.7 9.78446 129.268 9.78446C128.835 9.78446 128.521 9.92694 128.326 10.2119C128.13 10.4968 128.033 10.89 128.033 11.3913ZM134.321 9.19873C134.4 9.19873 134.485 9.204 134.575 9.21456C134.664 9.21983 134.746 9.23039 134.82 9.24622L134.733 9.88736C134.664 9.87153 134.588 9.85834 134.503 9.84778C134.419 9.83723 134.342 9.83195 134.274 9.83195C134.057 9.83195 133.854 9.89264 133.664 10.014C133.474 10.1301 133.321 10.2963 133.205 10.5127C133.094 10.7237 133.039 10.9718 133.039 11.2567V13.5205H132.342V9.27788H132.912L132.992 10.0536H133.023C133.155 9.8214 133.329 9.62088 133.546 9.45202C133.767 9.28316 134.026 9.19873 134.321 9.19873ZM137.029 13.0298C137.135 13.0298 137.243 13.0218 137.354 13.006C137.464 12.9902 137.554 12.9691 137.623 12.9427V13.473C137.549 13.51 137.443 13.539 137.306 13.5601C137.169 13.5865 137.037 13.5997 136.91 13.5997C136.689 13.5997 136.483 13.5627 136.293 13.4888C136.108 13.4097 135.958 13.2751 135.842 13.0852C135.726 12.8952 135.668 12.6287 135.668 12.2857V9.81612H135.066V9.48368L135.676 9.20664L135.953 8.30429H136.364V9.27788H137.591V9.81612H136.364V12.2699C136.364 12.5285 136.425 12.7211 136.546 12.8477C136.673 12.9691 136.834 13.0298 137.029 13.0298ZM139.264 12.6023L139.319 12.6894C139.245 12.9691 139.145 13.2751 139.018 13.6076C138.892 13.9453 138.765 14.2566 138.638 14.5416H138.124C138.198 14.2408 138.272 13.911 138.346 13.5522C138.425 13.1933 138.483 12.8767 138.52 12.6023H139.264ZM146.287 13.5205L145.607 11.7712H143.367L142.694 13.5205H141.974L144.182 7.8452H144.823L147.024 13.5205H146.287ZM145.393 11.138L144.76 9.42827C144.744 9.38605 144.718 9.30954 144.681 9.19873C144.644 9.08791 144.607 8.97446 144.57 8.85836C144.538 8.737 144.512 8.64465 144.491 8.58133C144.448 8.74491 144.404 8.90586 144.356 9.06416C144.314 9.21719 144.277 9.33856 144.245 9.42827L143.604 11.138H145.393ZM148.398 13.5205H147.702V7.50484H148.398V13.5205ZM150.439 13.5205H149.742V7.50484H150.439V13.5205ZM152.575 12.6023L152.63 12.6894C152.556 12.9691 152.456 13.2751 152.329 13.6076C152.203 13.9453 152.076 14.2566 151.949 14.5416H151.435C151.509 14.2408 151.582 13.911 151.656 13.5522C151.736 13.1933 151.794 12.8767 151.83 12.6023H152.575ZM157.548 7.86895C158.287 7.86895 158.825 8.01406 159.163 8.30429C159.501 8.59452 159.669 9.00348 159.669 9.53117C159.669 9.84251 159.598 10.1354 159.456 10.4098C159.318 10.6789 159.084 10.8979 158.751 11.0667C158.424 11.2356 157.978 11.32 157.414 11.32H156.764V13.5205H156.052V7.86895H157.548ZM157.485 8.47843H156.764V10.7106H157.334C157.873 10.7106 158.274 10.6235 158.538 10.4494C158.801 10.2752 158.933 9.97971 158.933 9.56283C158.933 9.19873 158.815 8.92696 158.577 8.74755C158.345 8.56814 157.981 8.47843 157.485 8.47843ZM162.356 9.20664C162.874 9.20664 163.256 9.32009 163.504 9.547C163.752 9.77391 163.876 10.1354 163.876 10.6314V13.5205H163.37L163.235 12.9189H163.203C163.019 13.1511 162.823 13.3226 162.618 13.4334C162.412 13.5443 162.132 13.5997 161.779 13.5997C161.393 13.5997 161.074 13.4994 160.821 13.2989C160.568 13.0931 160.441 12.7738 160.441 12.3411C160.441 11.919 160.607 11.5944 160.94 11.3675C161.272 11.1353 161.784 11.0087 162.475 10.9876L163.195 10.9638V10.7106C163.195 10.357 163.119 10.1116 162.966 9.97443C162.813 9.83723 162.597 9.76863 162.317 9.76863C162.095 9.76863 161.884 9.80293 161.684 9.87153C161.483 9.93485 161.296 10.0087 161.122 10.0932L160.908 9.57075C161.093 9.47049 161.312 9.38606 161.565 9.31746C161.818 9.24358 162.082 9.20664 162.356 9.20664ZM163.188 11.4467L162.562 11.4704C162.035 11.4915 161.668 11.576 161.462 11.7237C161.261 11.8715 161.161 12.0799 161.161 12.349C161.161 12.5865 161.232 12.7606 161.375 12.8714C161.523 12.9823 161.71 13.0377 161.937 13.0377C162.29 13.0377 162.586 12.94 162.823 12.7448C163.066 12.5443 163.188 12.2382 163.188 11.8266V11.4467ZM164.522 9.27788H165.266L166.184 11.6921C166.263 11.9084 166.334 12.1116 166.398 12.3015C166.461 12.4915 166.508 12.6736 166.54 12.8477H166.572C166.603 12.7158 166.654 12.5443 166.722 12.3332C166.791 12.1169 166.862 11.9005 166.936 11.6841L167.799 9.27788H168.551L166.722 14.1062C166.569 14.5073 166.376 14.8265 166.144 15.064C165.912 15.3015 165.59 15.4202 165.179 15.4202C165.052 15.4202 164.941 15.4123 164.846 15.3964C164.751 15.3859 164.669 15.3727 164.601 15.3569V14.8028C164.659 14.8133 164.727 14.8239 164.807 14.8345C164.891 14.845 164.978 14.8503 165.068 14.8503C165.311 14.8503 165.506 14.7817 165.654 14.6445C165.801 14.5073 165.92 14.3252 166.01 14.0983L166.231 13.5363L164.522 9.27788ZM173.876 9.19873C174.356 9.19873 174.715 9.32273 174.952 9.57075C175.19 9.81876 175.308 10.2145 175.308 10.758V13.5205H174.62V10.7897C174.62 10.1195 174.332 9.78446 173.757 9.78446C173.345 9.78446 173.05 9.90319 172.87 10.1407C172.696 10.3781 172.609 10.7237 172.609 11.1776V13.5205H171.921V10.7897C171.921 10.1195 171.63 9.78446 171.05 9.78446C170.623 9.78446 170.327 9.91638 170.163 10.1802C170 10.4441 169.918 10.824 169.918 11.32V13.5205H169.222V9.27788H169.784L169.886 9.8557H169.926C170.058 9.63407 170.235 9.47049 170.456 9.36495C170.683 9.25413 170.923 9.19873 171.177 9.19873C171.841 9.19873 172.274 9.43619 172.475 9.91111H172.514C172.657 9.66837 172.849 9.48895 173.092 9.37286C173.335 9.25677 173.596 9.19873 173.876 9.19873ZM178.257 9.19873C178.616 9.19873 178.928 9.27788 179.191 9.43619C179.455 9.59449 179.656 9.81876 179.793 10.109C179.936 10.3939 180.007 10.729 180.007 11.1142V11.5338H177.102C177.112 12.014 177.234 12.3807 177.466 12.634C177.703 12.882 178.033 13.006 178.455 13.006C178.724 13.006 178.962 12.9823 179.168 12.9348C179.379 12.882 179.595 12.8081 179.817 12.7131V13.3226C179.6 13.4176 179.387 13.4862 179.176 13.5284C178.965 13.5759 178.714 13.5997 178.424 13.5997C178.017 13.5997 177.661 13.5179 177.355 13.3543C177.049 13.1907 176.809 12.948 176.635 12.6261C176.466 12.3042 176.382 11.9058 176.382 11.4309C176.382 10.9665 176.458 10.5681 176.611 10.2356C176.769 9.90319 176.988 9.64726 177.268 9.46785C177.553 9.28843 177.883 9.19873 178.257 9.19873ZM178.25 9.76863C177.917 9.76863 177.653 9.87681 177.458 10.0932C177.268 10.3042 177.155 10.5997 177.118 10.9797H179.279C179.273 10.6209 179.189 10.3306 179.025 10.109C178.862 9.88208 178.603 9.76863 178.25 9.76863ZM183.129 9.19873C183.636 9.19873 184.018 9.32273 184.277 9.57075C184.535 9.81876 184.665 10.2145 184.665 10.758V13.5205H183.976V10.8055C183.976 10.1248 183.659 9.78446 183.026 9.78446C182.556 9.78446 182.232 9.91638 182.052 10.1802C181.873 10.4441 181.783 10.824 181.783 11.32V13.5205H181.087V9.27788H181.649L181.752 9.8557H181.791C181.928 9.63407 182.118 9.47049 182.361 9.36495C182.604 9.25413 182.86 9.19873 183.129 9.19873ZM187.397 13.0298C187.502 13.0298 187.61 13.0218 187.721 13.006C187.832 12.9902 187.922 12.9691 187.99 12.9427V13.473C187.916 13.51 187.811 13.539 187.674 13.5601C187.536 13.5865 187.405 13.5997 187.278 13.5997C187.056 13.5997 186.85 13.5627 186.661 13.4888C186.476 13.4097 186.325 13.2751 186.209 13.0852C186.093 12.8952 186.035 12.6287 186.035 12.2857V9.81612H185.434V9.48368L186.043 9.20664L186.32 8.30429H186.732V9.27788H187.959V9.81612H186.732V12.2699C186.732 12.5285 186.792 12.7211 186.914 12.8477C187.04 12.9691 187.201 13.0298 187.397 13.0298ZM191.602 12.349C191.602 12.7606 191.449 13.072 191.143 13.283C190.837 13.4941 190.426 13.5997 189.908 13.5997C189.613 13.5997 189.357 13.5759 189.141 13.5284C188.93 13.4809 188.742 13.415 188.579 13.3305V12.6973C188.747 12.7817 188.951 12.8609 189.188 12.9348C189.431 13.0034 189.676 13.0377 189.924 13.0377C190.278 13.0377 190.534 12.9823 190.692 12.8714C190.85 12.7554 190.929 12.6023 190.929 12.4124C190.929 12.3068 190.9 12.2118 190.842 12.1274C190.784 12.043 190.679 11.9585 190.526 11.8741C190.378 11.7897 190.164 11.6947 189.885 11.5892C189.61 11.4836 189.375 11.3781 189.18 11.2725C188.985 11.167 188.835 11.0404 188.729 10.8926C188.623 10.7449 188.571 10.5549 188.571 10.3227C188.571 9.96388 188.716 9.68684 189.006 9.49159C189.302 9.29635 189.687 9.19873 190.162 9.19873C190.42 9.19873 190.66 9.22511 190.882 9.27788C191.109 9.33065 191.32 9.39925 191.515 9.48368L191.278 10.0378C191.098 9.96388 190.911 9.90055 190.716 9.84778C190.521 9.79501 190.32 9.76863 190.114 9.76863C189.829 9.76863 189.61 9.81612 189.457 9.91111C189.309 10.0008 189.236 10.1248 189.236 10.2831C189.236 10.4045 189.27 10.5048 189.339 10.5839C189.407 10.6631 189.521 10.7422 189.679 10.8214C189.842 10.9005 190.059 10.9902 190.328 11.0905C190.597 11.1908 190.827 11.2937 191.017 11.3992C191.207 11.5047 191.352 11.634 191.452 11.787C191.552 11.9348 191.602 12.1221 191.602 12.349ZM193.419 12.6023L193.474 12.6894C193.401 12.9691 193.3 13.2751 193.174 13.6076C193.047 13.9453 192.92 14.2566 192.794 14.5416H192.279C192.353 14.2408 192.427 13.911 192.501 13.5522C192.58 13.1933 192.638 12.8767 192.675 12.6023H193.419ZM200.443 13.5205L199.762 11.7712H197.522L196.849 13.5205H196.129L198.337 7.8452H198.978L201.179 13.5205H200.443ZM199.548 11.138L198.915 9.42827C198.899 9.38605 198.873 9.30954 198.836 9.19873C198.799 9.08791 198.762 8.97446 198.725 8.85836C198.693 8.737 198.667 8.64465 198.646 8.58133C198.604 8.74491 198.559 8.90586 198.511 9.06416C198.469 9.21719 198.432 9.33856 198.4 9.42827L197.759 11.138H199.548ZM203.559 13.5997C203.179 13.5997 202.844 13.5231 202.553 13.3701C202.263 13.2171 202.034 12.9796 201.865 12.6577C201.701 12.3358 201.619 11.9242 201.619 11.4229C201.619 10.9005 201.704 10.4757 201.873 10.1486C202.047 9.8214 202.284 9.5813 202.585 9.42827C202.886 9.27524 203.226 9.19873 203.606 9.19873C203.817 9.19873 204.023 9.22247 204.224 9.26996C204.429 9.31218 204.596 9.36495 204.722 9.42827L204.509 10.0061C204.382 9.9586 204.234 9.91375 204.065 9.87153C203.896 9.82931 203.738 9.80821 203.59 9.80821C202.757 9.80821 202.34 10.3438 202.34 11.415C202.34 11.9269 202.44 12.32 202.641 12.5944C202.846 12.8635 203.15 12.9981 203.551 12.9981C203.778 12.9981 203.981 12.9743 204.16 12.9269C204.34 12.8794 204.503 12.8213 204.651 12.7527V13.3701C204.509 13.444 204.35 13.4994 204.176 13.5363C204.007 13.5786 203.801 13.5997 203.559 13.5997ZM207.362 13.5997C206.982 13.5997 206.647 13.5231 206.357 13.3701C206.066 13.2171 205.837 12.9796 205.668 12.6577C205.504 12.3358 205.422 11.9242 205.422 11.4229C205.422 10.9005 205.507 10.4757 205.676 10.1486C205.85 9.8214 206.087 9.5813 206.388 9.42827C206.689 9.27524 207.029 9.19873 207.409 9.19873C207.62 9.19873 207.826 9.22247 208.027 9.26996C208.232 9.31218 208.399 9.36495 208.525 9.42827L208.312 10.0061C208.185 9.9586 208.037 9.91375 207.868 9.87153C207.699 9.82931 207.541 9.80821 207.393 9.80821C206.56 9.80821 206.143 10.3438 206.143 11.415C206.143 11.9269 206.243 12.32 206.444 12.5944C206.649 12.8635 206.953 12.9981 207.354 12.9981C207.581 12.9981 207.784 12.9743 207.963 12.9269C208.143 12.8794 208.306 12.8213 208.454 12.7527V13.3701C208.312 13.444 208.153 13.4994 207.979 13.5363C207.81 13.5786 207.604 13.5997 207.362 13.5997ZM213.152 11.3913C213.152 12.0931 212.972 12.6366 212.613 13.0218C212.26 13.4071 211.78 13.5997 211.173 13.5997C210.798 13.5997 210.463 13.5152 210.168 13.3464C209.877 13.1722 209.648 12.9216 209.479 12.5944C209.31 12.262 209.226 11.8609 209.226 11.3913C209.226 10.6894 209.4 10.1486 209.748 9.76863C210.102 9.38869 210.584 9.19873 211.197 9.19873C211.576 9.19873 211.914 9.28579 212.21 9.45993C212.505 9.62879 212.735 9.87681 212.898 10.204C213.067 10.5259 213.152 10.9216 213.152 11.3913ZM209.946 11.3913C209.946 11.8926 210.044 12.291 210.239 12.5865C210.439 12.8767 210.756 13.0218 211.189 13.0218C211.616 13.0218 211.93 12.8767 212.131 12.5865C212.331 12.291 212.431 11.8926 212.431 11.3913C212.431 10.89 212.331 10.4968 212.131 10.2119C211.93 9.92694 211.613 9.78446 211.181 9.78446C210.748 9.78446 210.434 9.92694 210.239 10.2119C210.044 10.4968 209.946 10.89 209.946 11.3913ZM217.802 9.27788V13.5205H217.232L217.129 12.9585H217.097C216.96 13.1801 216.77 13.3437 216.527 13.4493C216.285 13.5495 216.026 13.5997 215.752 13.5997C215.24 13.5997 214.854 13.4783 214.596 13.2356C214.337 12.9875 214.208 12.5944 214.208 12.0562V9.27788H214.913V12.0087C214.913 12.6841 215.226 13.0218 215.854 13.0218C216.324 13.0218 216.649 12.8899 216.828 12.6261C217.013 12.3622 217.105 11.9823 217.105 11.4863V9.27788H217.802ZM221.191 9.19873C221.697 9.19873 222.08 9.32273 222.338 9.57075C222.597 9.81876 222.726 10.2145 222.726 10.758V13.5205H222.038V10.8055C222.038 10.1248 221.721 9.78446 221.088 9.78446C220.618 9.78446 220.294 9.91638 220.114 10.1802C219.935 10.4441 219.845 10.824 219.845 11.32V13.5205H219.149V9.27788H219.711L219.813 9.8557H219.853C219.99 9.63407 220.18 9.47049 220.423 9.36495C220.666 9.25413 220.922 9.19873 221.191 9.19873ZM225.458 13.0298C225.564 13.0298 225.672 13.0218 225.783 13.006C225.894 12.9902 225.983 12.9691 226.052 12.9427V13.473C225.978 13.51 225.873 13.539 225.735 13.5601C225.598 13.5865 225.466 13.5997 225.34 13.5997C225.118 13.5997 224.912 13.5627 224.722 13.4888C224.538 13.4097 224.387 13.2751 224.271 13.0852C224.155 12.8952 224.097 12.6287 224.097 12.2857V9.81612H223.495V9.48368L224.105 9.20664L224.382 8.30429H224.793V9.27788H226.02V9.81612H224.793V12.2699C224.793 12.5285 224.854 12.7211 224.976 12.8477C225.102 12.9691 225.263 13.0298 225.458 13.0298ZM231.546 13.5205L229.686 8.5655H229.654C229.67 8.72908 229.683 8.95071 229.694 9.23039C229.704 9.50479 229.71 9.79238 229.71 10.0932V13.5205H229.053V7.86895H230.105L231.847 12.4994H231.878L233.651 7.86895H234.696V13.5205H233.992V10.0457C233.992 9.77127 233.997 9.49951 234.008 9.23039C234.024 8.96126 234.037 8.74227 234.047 8.57341H234.016L232.132 13.5205H231.546ZM237.746 9.20664C238.263 9.20664 238.645 9.32009 238.893 9.547C239.141 9.77391 239.265 10.1354 239.265 10.6314V13.5205H238.759L238.624 12.9189H238.592C238.408 13.1511 238.213 13.3226 238.007 13.4334C237.801 13.5443 237.521 13.5997 237.168 13.5997C236.782 13.5997 236.463 13.4994 236.21 13.2989C235.957 13.0931 235.83 12.7738 235.83 12.3411C235.83 11.919 235.996 11.5944 236.329 11.3675C236.661 11.1353 237.173 11.0087 237.864 10.9876L238.585 10.9638V10.7106C238.585 10.357 238.508 10.1116 238.355 9.97443C238.202 9.83723 237.986 9.76863 237.706 9.76863C237.484 9.76863 237.273 9.80293 237.073 9.87153C236.872 9.93485 236.685 10.0087 236.511 10.0932L236.297 9.57075C236.482 9.47049 236.701 9.38606 236.954 9.31746C237.207 9.24358 237.471 9.20664 237.746 9.20664ZM238.577 11.4467L237.951 11.4704C237.424 11.4915 237.057 11.576 236.851 11.7237C236.651 11.8715 236.55 12.0799 236.55 12.349C236.55 12.5865 236.622 12.7606 236.764 12.8714C236.912 12.9823 237.099 13.0377 237.326 13.0377C237.68 13.0377 237.975 12.94 238.213 12.7448C238.455 12.5443 238.577 12.2382 238.577 11.8266V11.4467ZM242.618 9.19873C243.124 9.19873 243.507 9.32273 243.766 9.57075C244.024 9.81876 244.153 10.2145 244.153 10.758V13.5205H243.465V10.8055C243.465 10.1248 243.148 9.78446 242.515 9.78446C242.045 9.78446 241.721 9.91638 241.541 10.1802C241.362 10.4441 241.272 10.824 241.272 11.32V13.5205H240.576V9.27788H241.138L241.241 9.8557H241.28C241.417 9.63407 241.607 9.47049 241.85 9.36495C242.093 9.25413 242.349 9.19873 242.618 9.19873ZM247.075 9.20664C247.593 9.20664 247.975 9.32009 248.223 9.547C248.471 9.77391 248.595 10.1354 248.595 10.6314V13.5205H248.089L247.954 12.9189H247.922C247.738 13.1511 247.542 13.3226 247.337 13.4334C247.131 13.5443 246.851 13.5997 246.498 13.5997C246.112 13.5997 245.793 13.4994 245.54 13.2989C245.287 13.0931 245.16 12.7738 245.16 12.3411C245.16 11.919 245.326 11.5944 245.659 11.3675C245.991 11.1353 246.503 11.0087 247.194 10.9876L247.914 10.9638V10.7106C247.914 10.357 247.838 10.1116 247.685 9.97443C247.532 9.83723 247.316 9.76863 247.036 9.76863C246.814 9.76863 246.603 9.80293 246.403 9.87153C246.202 9.93485 246.015 10.0087 245.841 10.0932L245.627 9.57075C245.812 9.47049 246.031 9.38606 246.284 9.31746C246.537 9.24358 246.801 9.20664 247.075 9.20664ZM247.907 11.4467L247.281 11.4704C246.754 11.4915 246.387 11.576 246.181 11.7237C245.98 11.8715 245.88 12.0799 245.88 12.349C245.88 12.5865 245.951 12.7606 246.094 12.8714C246.242 12.9823 246.429 13.0377 246.656 13.0377C247.009 13.0377 247.305 12.94 247.542 12.7448C247.785 12.5443 247.907 12.2382 247.907 11.8266V11.4467ZM251.409 9.19873C251.689 9.19873 251.94 9.25149 252.161 9.35703C252.388 9.46257 252.581 9.62352 252.739 9.83987H252.779L252.874 9.27788H253.428V13.5917C253.428 14.1986 253.272 14.655 252.961 14.9611C252.655 15.2672 252.177 15.4202 251.528 15.4202C250.906 15.4202 250.396 15.3305 250.001 15.1511V14.5099C250.417 14.7316 250.94 14.8424 251.568 14.8424C251.932 14.8424 252.217 14.7342 252.423 14.5178C252.634 14.3068 252.739 14.0165 252.739 13.6472V13.4809C252.739 13.4176 252.742 13.3279 252.747 13.2118C252.752 13.0904 252.758 13.006 252.763 12.9585H252.731C252.446 13.3859 252.008 13.5997 251.417 13.5997C250.869 13.5997 250.439 13.4071 250.127 13.0218C249.821 12.6366 249.668 12.0984 249.668 11.4071C249.668 10.7317 249.821 10.1961 250.127 9.80029C250.439 9.39925 250.866 9.19873 251.409 9.19873ZM251.504 9.78446C251.151 9.78446 250.876 9.92694 250.681 10.2119C250.486 10.4916 250.388 10.8926 250.388 11.415C250.388 11.9374 250.483 12.3385 250.673 12.6182C250.863 12.8926 251.146 13.0298 251.52 13.0298C251.948 13.0298 252.259 12.9163 252.454 12.6894C252.65 12.4572 252.747 12.0852 252.747 11.5733V11.4071C252.747 10.8319 252.647 10.4177 252.446 10.1644C252.246 9.91111 251.932 9.78446 251.504 9.78446ZM256.414 9.19873C256.773 9.19873 257.084 9.27788 257.348 9.43619C257.612 9.59449 257.812 9.81876 257.949 10.109C258.092 10.3939 258.163 10.729 258.163 11.1142V11.5338H255.258C255.269 12.014 255.39 12.3807 255.622 12.634C255.86 12.882 256.19 13.006 256.612 13.006C256.881 13.006 257.118 12.9823 257.324 12.9348C257.535 12.882 257.752 12.8081 257.973 12.7131V13.3226C257.757 13.4176 257.543 13.4862 257.332 13.5284C257.121 13.5759 256.87 13.5997 256.58 13.5997C256.174 13.5997 255.818 13.5179 255.511 13.3543C255.205 13.1907 254.965 12.948 254.791 12.6261C254.622 12.3042 254.538 11.9058 254.538 11.4309C254.538 10.9665 254.614 10.5681 254.767 10.2356C254.926 9.90319 255.145 9.64726 255.424 9.46785C255.709 9.28843 256.039 9.19873 256.414 9.19873ZM256.406 9.76863C256.073 9.76863 255.81 9.87681 255.614 10.0932C255.424 10.3042 255.311 10.5997 255.274 10.9797H257.435C257.43 10.6209 257.345 10.3306 257.182 10.109C257.018 9.88208 256.759 9.76863 256.406 9.76863ZM263.897 9.19873C264.378 9.19873 264.736 9.32273 264.974 9.57075C265.211 9.81876 265.33 10.2145 265.33 10.758V13.5205H264.641V10.7897C264.641 10.1195 264.354 9.78446 263.779 9.78446C263.367 9.78446 263.072 9.90319 262.892 10.1407C262.718 10.3781 262.631 10.7237 262.631 11.1776V13.5205H261.942V10.7897C261.942 10.1195 261.652 9.78446 261.072 9.78446C260.644 9.78446 260.349 9.91638 260.185 10.1802C260.022 10.4441 259.94 10.824 259.94 11.32V13.5205H259.243V9.27788H259.805L259.908 9.8557H259.948C260.08 9.63407 260.256 9.47049 260.478 9.36495C260.705 9.25413 260.945 9.19873 261.198 9.19873C261.863 9.19873 262.296 9.43619 262.496 9.91111H262.536C262.678 9.66837 262.871 9.48895 263.114 9.37286C263.357 9.25677 263.618 9.19873 263.897 9.19873ZM268.279 9.19873C268.638 9.19873 268.949 9.27788 269.213 9.43619C269.477 9.59449 269.677 9.81876 269.815 10.109C269.957 10.3939 270.028 10.729 270.028 11.1142V11.5338H267.123C267.134 12.014 267.255 12.3807 267.488 12.634C267.725 12.882 268.055 13.006 268.477 13.006C268.746 13.006 268.984 12.9823 269.189 12.9348C269.4 12.882 269.617 12.8081 269.838 12.7131V13.3226C269.622 13.4176 269.408 13.4862 269.197 13.5284C268.986 13.5759 268.736 13.5997 268.445 13.5997C268.039 13.5997 267.683 13.5179 267.377 13.3543C267.071 13.1907 266.831 12.948 266.656 12.6261C266.488 12.3042 266.403 11.9058 266.403 11.4309C266.403 10.9665 266.48 10.5681 266.633 10.2356C266.791 9.90319 267.01 9.64726 267.29 9.46785C267.575 9.28843 267.904 9.19873 268.279 9.19873ZM268.271 9.76863C267.939 9.76863 267.675 9.87681 267.48 10.0932C267.29 10.3042 267.176 10.5997 267.139 10.9797H269.3C269.295 10.6209 269.21 10.3306 269.047 10.109C268.883 9.88208 268.625 9.76863 268.271 9.76863ZM273.151 9.19873C273.657 9.19873 274.04 9.32273 274.298 9.57075C274.557 9.81876 274.686 10.2145 274.686 10.758V13.5205H273.998V10.8055C273.998 10.1248 273.681 9.78446 273.048 9.78446C272.578 9.78446 272.254 9.91638 272.074 10.1802C271.895 10.4441 271.805 10.824 271.805 11.32V13.5205H271.109V9.27788H271.67L271.773 9.8557H271.813C271.95 9.63407 272.14 9.47049 272.383 9.36495C272.626 9.25413 272.882 9.19873 273.151 9.19873ZM277.418 13.0298C277.524 13.0298 277.632 13.0218 277.743 13.006C277.854 12.9902 277.943 12.9691 278.012 12.9427V13.473C277.938 13.51 277.833 13.539 277.695 13.5601C277.558 13.5865 277.426 13.5997 277.3 13.5997C277.078 13.5997 276.872 13.5627 276.682 13.4888C276.498 13.4097 276.347 13.2751 276.231 13.0852C276.115 12.8952 276.057 12.6287 276.057 12.2857V9.81612H275.455V9.48368L276.065 9.20664L276.342 8.30429H276.753V9.27788H277.98V9.81612H276.753V12.2699C276.753 12.5285 276.814 12.7211 276.935 12.8477C277.062 12.9691 277.223 13.0298 277.418 13.0298ZM282.524 9.20664C283.042 9.20664 283.424 9.32009 283.672 9.547C283.92 9.77391 284.044 10.1354 284.044 10.6314V13.5205H283.538L283.403 12.9189H283.371C283.187 13.1511 282.991 13.3226 282.786 13.4334C282.58 13.5443 282.3 13.5997 281.947 13.5997C281.561 13.5997 281.242 13.4994 280.989 13.2989C280.736 13.0931 280.609 12.7738 280.609 12.3411C280.609 11.919 280.775 11.5944 281.108 11.3675C281.44 11.1353 281.952 11.0087 282.643 10.9876L283.363 10.9638V10.7106C283.363 10.357 283.287 10.1116 283.134 9.97443C282.981 9.83723 282.765 9.76863 282.485 9.76863C282.263 9.76863 282.052 9.80293 281.852 9.87153C281.651 9.93485 281.464 10.0087 281.29 10.0932L281.076 9.57075C281.261 9.47049 281.48 9.38606 281.733 9.31746C281.986 9.24358 282.25 9.20664 282.524 9.20664ZM283.356 11.4467L282.73 11.4704C282.203 11.4915 281.836 11.576 281.63 11.7237C281.43 11.8715 281.329 12.0799 281.329 12.349C281.329 12.5865 281.4 12.7606 281.543 12.8714C281.691 12.9823 281.878 13.0377 282.105 13.0377C282.459 13.0377 282.754 12.94 282.991 12.7448C283.234 12.5443 283.356 12.2382 283.356 11.8266V11.4467ZM287.397 9.19873C287.903 9.19873 288.286 9.32273 288.544 9.57075C288.803 9.81876 288.932 10.2145 288.932 10.758V13.5205H288.244V10.8055C288.244 10.1248 287.927 9.78446 287.294 9.78446C286.824 9.78446 286.5 9.91638 286.32 10.1802C286.141 10.4441 286.051 10.824 286.051 11.32V13.5205H285.355V9.27788H285.917L286.019 9.8557H286.059C286.196 9.63407 286.386 9.47049 286.629 9.36495C286.872 9.25413 287.128 9.19873 287.397 9.19873ZM291.751 13.5997C291.224 13.5997 290.802 13.4176 290.485 13.0535C290.168 12.6841 290.01 12.1353 290.01 11.4071C290.01 10.6789 290.168 10.1301 290.485 9.76072C290.807 9.38606 291.232 9.19873 291.759 9.19873C292.087 9.19873 292.353 9.25941 292.559 9.38078C292.77 9.50215 292.941 9.6499 293.073 9.82404H293.121C293.11 9.75544 293.1 9.65518 293.089 9.52325C293.079 9.38606 293.073 9.27788 293.073 9.19873V7.50484H293.77V13.5205H293.208L293.105 12.9506H293.073C292.947 13.13 292.778 13.283 292.567 13.4097C292.356 13.5363 292.084 13.5997 291.751 13.5997ZM291.862 13.0218C292.311 13.0218 292.625 12.9005 292.804 12.6577C292.989 12.4097 293.081 12.0377 293.081 11.5417V11.415C293.081 10.8873 292.994 10.4837 292.82 10.204C292.646 9.91902 292.324 9.77655 291.854 9.77655C291.48 9.77655 291.197 9.92694 291.007 10.2277C290.823 10.5232 290.73 10.9216 290.73 11.4229C290.73 11.9295 290.823 12.3227 291.007 12.6023C291.197 12.882 291.482 13.0218 291.862 13.0218ZM298.812 9.19873C299.171 9.19873 299.482 9.27788 299.746 9.43619C300.01 9.59449 300.21 9.81876 300.348 10.109C300.49 10.3939 300.561 10.729 300.561 11.1142V11.5338H297.656C297.667 12.014 297.788 12.3807 298.02 12.634C298.258 12.882 298.588 13.006 299.01 13.006C299.279 13.006 299.516 12.9823 299.722 12.9348C299.933 12.882 300.15 12.8081 300.371 12.7131V13.3226C300.155 13.4176 299.941 13.4862 299.73 13.5284C299.519 13.5759 299.268 13.5997 298.978 13.5997C298.572 13.5997 298.216 13.5179 297.91 13.3543C297.604 13.1907 297.363 12.948 297.189 12.6261C297.02 12.3042 296.936 11.9058 296.936 11.4309C296.936 10.9665 297.013 10.5681 297.166 10.2356C297.324 9.90319 297.543 9.64726 297.823 9.46785C298.108 9.28843 298.437 9.19873 298.812 9.19873ZM298.804 9.76863C298.472 9.76863 298.208 9.87681 298.013 10.0932C297.823 10.3042 297.709 10.5997 297.672 10.9797H299.833C299.828 10.6209 299.743 10.3306 299.58 10.109C299.416 9.88208 299.158 9.76863 298.804 9.76863ZM302.421 13.5205L300.814 9.27788H301.558L302.46 11.7791C302.503 11.8952 302.547 12.0245 302.595 12.167C302.642 12.3095 302.685 12.4467 302.722 12.5786C302.758 12.7105 302.785 12.8187 302.801 12.9031H302.832C302.848 12.8187 302.877 12.7105 302.919 12.5786C302.962 12.4414 303.006 12.3042 303.054 12.167C303.101 12.0245 303.146 11.8952 303.189 11.7791L304.091 9.27788H304.835L303.22 13.5205H302.421ZM307.145 9.19873C307.504 9.19873 307.815 9.27788 308.079 9.43619C308.343 9.59449 308.543 9.81876 308.68 10.109C308.823 10.3939 308.894 10.729 308.894 11.1142V11.5338H305.989C306 12.014 306.121 12.3807 306.353 12.634C306.591 12.882 306.92 13.006 307.343 13.006C307.612 13.006 307.849 12.9823 308.055 12.9348C308.266 12.882 308.482 12.8081 308.704 12.7131V13.3226C308.488 13.4176 308.274 13.4862 308.063 13.5284C307.852 13.5759 307.601 13.5997 307.311 13.5997C306.905 13.5997 306.548 13.5179 306.242 13.3543C305.936 13.1907 305.696 12.948 305.522 12.6261C305.353 12.3042 305.269 11.9058 305.269 11.4309C305.269 10.9665 305.345 10.5681 305.498 10.2356C305.657 9.90319 305.876 9.64726 306.155 9.46785C306.44 9.28843 306.77 9.19873 307.145 9.19873ZM307.137 9.76863C306.804 9.76863 306.541 9.87681 306.345 10.0932C306.155 10.3042 306.042 10.5997 306.005 10.9797H308.166C308.161 10.6209 308.076 10.3306 307.913 10.109C307.749 9.88208 307.49 9.76863 307.137 9.76863ZM312.016 9.19873C312.523 9.19873 312.905 9.32273 313.164 9.57075C313.423 9.81876 313.552 10.2145 313.552 10.758V13.5205H312.863V10.8055C312.863 10.1248 312.547 9.78446 311.913 9.78446C311.444 9.78446 311.119 9.91638 310.94 10.1802C310.76 10.4441 310.671 10.824 310.671 11.32V13.5205H309.974V9.27788H310.536L310.639 9.8557H310.679C310.816 9.63407 311.006 9.47049 311.248 9.36495C311.491 9.25413 311.747 9.19873 312.016 9.19873ZM321.577 9.19873C322.058 9.19873 322.416 9.32273 322.654 9.57075C322.891 9.81876 323.01 10.2145 323.01 10.758V13.5205H322.322V10.7897C322.322 10.1195 322.034 9.78446 321.459 9.78446C321.047 9.78446 320.752 9.90319 320.572 10.1407C320.398 10.3781 320.311 10.7237 320.311 11.1776V13.5205H319.622V10.7897C319.622 10.1195 319.332 9.78446 318.752 9.78446C318.324 9.78446 318.029 9.91638 317.865 10.1802C317.702 10.4441 317.62 10.824 317.62 11.32V13.5205H316.923V9.27788H317.485L317.588 9.8557H317.628C317.76 9.63407 317.936 9.47049 318.158 9.36495C318.385 9.25413 318.625 9.19873 318.878 9.19873C319.543 9.19873 319.976 9.43619 320.176 9.91111H320.216C320.358 9.66837 320.551 9.48895 320.794 9.37286C321.037 9.25677 321.298 9.19873 321.577 9.19873ZM328.009 11.3913C328.009 12.0931 327.83 12.6366 327.471 13.0218C327.117 13.4071 326.637 13.5997 326.03 13.5997C325.656 13.5997 325.321 13.5152 325.025 13.3464C324.735 13.1722 324.505 12.9216 324.337 12.5944C324.168 12.262 324.083 11.8609 324.083 11.3913C324.083 10.6894 324.257 10.1486 324.606 9.76863C324.959 9.38869 325.442 9.19873 326.054 9.19873C326.434 9.19873 326.772 9.28579 327.067 9.45993C327.363 9.62879 327.592 9.87681 327.756 10.204C327.925 10.5259 328.009 10.9216 328.009 11.3913ZM324.804 11.3913C324.804 11.8926 324.901 12.291 325.096 12.5865C325.297 12.8767 325.614 13.0218 326.046 13.0218C326.474 13.0218 326.788 12.8767 326.988 12.5865C327.189 12.291 327.289 11.8926 327.289 11.3913C327.289 10.89 327.189 10.4968 326.988 10.2119C326.788 9.92694 326.471 9.78446 326.038 9.78446C325.606 9.78446 325.292 9.92694 325.096 10.2119C324.901 10.4968 324.804 10.89 324.804 11.3913ZM331.092 9.19873C331.171 9.19873 331.256 9.204 331.345 9.21456C331.435 9.21983 331.517 9.23039 331.591 9.24622L331.504 9.88736C331.435 9.87153 331.358 9.85834 331.274 9.84778C331.19 9.83723 331.113 9.83195 331.045 9.83195C330.828 9.83195 330.625 9.89264 330.435 10.014C330.245 10.1301 330.092 10.2963 329.976 10.5127C329.865 10.7237 329.81 10.9718 329.81 11.2567V13.5205H329.113V9.27788H329.683L329.762 10.0536H329.794C329.926 9.8214 330.1 9.62088 330.316 9.45202C330.538 9.28316 330.797 9.19873 331.092 9.19873ZM333.867 9.19873C334.226 9.19873 334.537 9.27788 334.801 9.43619C335.065 9.59449 335.265 9.81876 335.402 10.109C335.545 10.3939 335.616 10.729 335.616 11.1142V11.5338H332.711C332.722 12.014 332.843 12.3807 333.075 12.634C333.313 12.882 333.643 13.006 334.065 13.006C334.334 13.006 334.571 12.9823 334.777 12.9348C334.988 12.882 335.204 12.8081 335.426 12.7131V13.3226C335.21 13.4176 334.996 13.4862 334.785 13.5284C334.574 13.5759 334.323 13.5997 334.033 13.5997C333.627 13.5997 333.271 13.5179 332.964 13.3543C332.658 13.1907 332.418 12.948 332.244 12.6261C332.075 12.3042 331.991 11.9058 331.991 11.4309C331.991 10.9665 332.067 10.5681 332.22 10.2356C332.379 9.90319 332.598 9.64726 332.877 9.46785C333.162 9.28843 333.492 9.19873 333.867 9.19873ZM333.859 9.76863C333.526 9.76863 333.263 9.87681 333.067 10.0932C332.877 10.3042 332.764 10.5997 332.727 10.9797H334.888C334.883 10.6209 334.798 10.3306 334.635 10.109C334.471 9.88208 334.212 9.76863 333.859 9.76863ZM340.169 13.0298C340.275 13.0298 340.383 13.0218 340.494 13.006C340.604 12.9902 340.694 12.9691 340.763 12.9427V13.473C340.689 13.51 340.583 13.539 340.446 13.5601C340.309 13.5865 340.177 13.5997 340.05 13.5997C339.829 13.5997 339.623 13.5627 339.433 13.4888C339.248 13.4097 339.098 13.2751 338.982 13.0852C338.866 12.8952 338.808 12.6287 338.808 12.2857V9.81612H338.206V9.48368L338.816 9.20664L339.093 8.30429H339.504V9.27788H340.731V9.81612H339.504V12.2699C339.504 12.5285 339.565 12.7211 339.686 12.8477C339.813 12.9691 339.974 13.0298 340.169 13.0298ZM343.251 9.19873C343.61 9.19873 343.921 9.27788 344.185 9.43619C344.449 9.59449 344.649 9.81876 344.786 10.109C344.929 10.3939 345 10.729 345 11.1142V11.5338H342.095C342.106 12.014 342.227 12.3807 342.459 12.634C342.697 12.882 343.027 13.006 343.449 13.006C343.718 13.006 343.955 12.9823 344.161 12.9348C344.372 12.882 344.588 12.8081 344.81 12.7131V13.3226C344.594 13.4176 344.38 13.4862 344.169 13.5284C343.958 13.5759 343.707 13.5997 343.417 13.5997C343.011 13.5997 342.655 13.5179 342.348 13.3543C342.042 13.1907 341.802 12.948 341.628 12.6261C341.459 12.3042 341.375 11.9058 341.375 11.4309C341.375 10.9665 341.451 10.5681 341.604 10.2356C341.763 9.90319 341.982 9.64726 342.261 9.46785C342.546 9.28843 342.876 9.19873 343.251 9.19873ZM343.243 9.76863C342.91 9.76863 342.647 9.87681 342.451 10.0932C342.261 10.3042 342.148 10.5997 342.111 10.9797H344.272C344.267 10.6209 344.182 10.3306 344.019 10.109C343.855 9.88208 343.596 9.76863 343.243 9.76863ZM346.931 11.3517L345.466 9.27788H346.258L347.35 10.8768L348.435 9.27788H349.218L347.754 11.3517L349.298 13.5205H348.506L347.35 11.8266L346.179 13.5205H345.395L346.931 11.3517ZM351.532 13.0298C351.638 13.0298 351.746 13.0218 351.857 13.006C351.967 12.9902 352.057 12.9691 352.126 12.9427V13.473C352.052 13.51 351.946 13.539 351.809 13.5601C351.672 13.5865 351.54 13.5997 351.413 13.5997C351.192 13.5997 350.986 13.5627 350.796 13.4888C350.611 13.4097 350.461 13.2751 350.345 13.0852C350.229 12.8952 350.171 12.6287 350.171 12.2857V9.81612H349.569V9.48368L350.178 9.20664L350.456 8.30429H350.867V9.27788H352.094V9.81612H350.867V12.2699C350.867 12.5285 350.928 12.7211 351.049 12.8477C351.176 12.9691 351.337 13.0298 351.532 13.0298ZM356.638 9.20664C357.155 9.20664 357.538 9.32009 357.786 9.547C358.034 9.77391 358.158 10.1354 358.158 10.6314V13.5205H357.651L357.517 12.9189H357.485C357.3 13.1511 357.105 13.3226 356.899 13.4334C356.694 13.5443 356.414 13.5997 356.06 13.5997C355.675 13.5997 355.356 13.4994 355.103 13.2989C354.849 13.0931 354.723 12.7738 354.723 12.3411C354.723 11.919 354.889 11.5944 355.221 11.3675C355.554 11.1353 356.066 11.0087 356.757 10.9876L357.477 10.9638V10.7106C357.477 10.357 357.401 10.1116 357.248 9.97443C357.095 9.83723 356.878 9.76863 356.599 9.76863C356.377 9.76863 356.166 9.80293 355.965 9.87153C355.765 9.93485 355.577 10.0087 355.403 10.0932L355.19 9.57075C355.374 9.47049 355.593 9.38606 355.847 9.31746C356.1 9.24358 356.364 9.20664 356.638 9.20664ZM357.469 11.4467L356.844 11.4704C356.316 11.4915 355.95 11.576 355.744 11.7237C355.543 11.8715 355.443 12.0799 355.443 12.349C355.443 12.5865 355.514 12.7606 355.657 12.8714C355.804 12.9823 355.992 13.0377 356.219 13.0377C356.572 13.0377 356.868 12.94 357.105 12.7448C357.348 12.5443 357.469 12.2382 357.469 11.8266V11.4467ZM360.972 13.5997C360.444 13.5997 360.022 13.4176 359.706 13.0535C359.389 12.6841 359.231 12.1353 359.231 11.4071C359.231 10.6789 359.389 10.1301 359.706 9.76072C360.028 9.38606 360.452 9.19873 360.98 9.19873C361.307 9.19873 361.574 9.25941 361.78 9.38078C361.991 9.50215 362.162 9.6499 362.294 9.82404H362.342C362.331 9.75544 362.32 9.65518 362.31 9.52325C362.299 9.38606 362.294 9.27788 362.294 9.19873V7.50484H362.991V13.5205H362.429L362.326 12.9506H362.294C362.167 13.13 361.999 13.283 361.787 13.4097C361.576 13.5363 361.305 13.5997 360.972 13.5997ZM361.083 13.0218C361.532 13.0218 361.845 12.9005 362.025 12.6577C362.21 12.4097 362.302 12.0377 362.302 11.5417V11.415C362.302 10.8873 362.215 10.4837 362.041 10.204C361.867 9.91902 361.545 9.77655 361.075 9.77655C360.7 9.77655 360.418 9.92694 360.228 10.2277C360.043 10.5232 359.951 10.9216 359.951 11.4229C359.951 11.9295 360.043 12.3227 360.228 12.6023C360.418 12.882 360.703 13.0218 361.083 13.0218ZM365.842 13.5997C365.314 13.5997 364.892 13.4176 364.576 13.0535C364.259 12.6841 364.101 12.1353 364.101 11.4071C364.101 10.6789 364.259 10.1301 364.576 9.76072C364.897 9.38606 365.322 9.19873 365.85 9.19873C366.177 9.19873 366.444 9.25941 366.649 9.38078C366.86 9.50215 367.032 9.6499 367.164 9.82404H367.211C367.201 9.75544 367.19 9.65518 367.18 9.52325C367.169 9.38606 367.164 9.27788 367.164 9.19873V7.50484H367.86V13.5205H367.298L367.196 12.9506H367.164C367.037 13.13 366.868 13.283 366.657 13.4097C366.446 13.5363 366.174 13.5997 365.842 13.5997ZM365.953 13.0218C366.401 13.0218 366.715 12.9005 366.895 12.6577C367.079 12.4097 367.172 12.0377 367.172 11.5417V11.415C367.172 10.8873 367.085 10.4837 366.911 10.204C366.736 9.91902 366.415 9.77655 365.945 9.77655C365.57 9.77655 365.288 9.92694 365.098 10.2277C364.913 10.5232 364.821 10.9216 364.821 11.4229C364.821 11.9295 364.913 12.3227 365.098 12.6023C365.288 12.882 365.573 13.0218 365.953 13.0218ZM370.846 9.19873C371.205 9.19873 371.516 9.27788 371.78 9.43619C372.044 9.59449 372.245 9.81876 372.382 10.109C372.524 10.3939 372.596 10.729 372.596 11.1142V11.5338H369.691C369.701 12.014 369.823 12.3807 370.055 12.634C370.292 12.882 370.622 13.006 371.044 13.006C371.313 13.006 371.551 12.9823 371.757 12.9348C371.968 12.882 372.184 12.8081 372.406 12.7131V13.3226C372.189 13.4176 371.976 13.4862 371.764 13.5284C371.553 13.5759 371.303 13.5997 371.013 13.5997C370.606 13.5997 370.25 13.5179 369.944 13.3543C369.638 13.1907 369.398 12.948 369.224 12.6261C369.055 12.3042 368.97 11.9058 368.97 11.4309C368.97 10.9665 369.047 10.5681 369.2 10.2356C369.358 9.90319 369.577 9.64726 369.857 9.46785C370.142 9.28843 370.472 9.19873 370.846 9.19873ZM370.838 9.76863C370.506 9.76863 370.242 9.87681 370.047 10.0932C369.857 10.3042 369.743 10.5997 369.707 10.9797H371.867C371.862 10.6209 371.778 10.3306 371.614 10.109C371.451 9.88208 371.192 9.76863 370.838 9.76863ZM375.18 13.5997C374.652 13.5997 374.23 13.4176 373.913 13.0535C373.597 12.6841 373.438 12.1353 373.438 11.4071C373.438 10.6789 373.597 10.1301 373.913 9.76072C374.235 9.38606 374.66 9.19873 375.188 9.19873C375.515 9.19873 375.781 9.25941 375.987 9.38078C376.198 9.50215 376.37 9.6499 376.501 9.82404H376.549C376.538 9.75544 376.528 9.65518 376.517 9.52325C376.507 9.38606 376.501 9.27788 376.501 9.19873V7.50484H377.198V13.5205H376.636L376.533 12.9506H376.501C376.375 13.13 376.206 13.283 375.995 13.4097C375.784 13.5363 375.512 13.5997 375.18 13.5997ZM375.29 13.0218C375.739 13.0218 376.053 12.9005 376.232 12.6577C376.417 12.4097 376.509 12.0377 376.509 11.5417V11.415C376.509 10.8873 376.422 10.4837 376.248 10.204C376.074 9.91902 375.752 9.77655 375.283 9.77655C374.908 9.77655 374.626 9.92694 374.436 10.2277C374.251 10.5232 374.159 10.9216 374.159 11.4229C374.159 11.9295 374.251 12.3227 374.436 12.6023C374.626 12.882 374.91 13.0218 375.29 13.0218Z" fill="white"/>
<path d="M188.383 21.7969H197.617L193 26.4142L188.383 21.7969Z" fill="#323232"/>
</svg>
