<svg width="412" height="248" viewBox="0 0 412 248" fill="none" xmlns="http://www.w3.org/2000/svg">
<rect width="412" height="248" fill="white"/>
<rect x="111" y="112.5" width="42" height="23" rx="3.5" fill="#E7F4FB"/>
<path d="M125.04 129L124.008 126.348H120.612L119.592 129H118.5L121.848 120.396H122.82L126.156 129H125.04ZM123.684 125.388L122.724 122.796C122.7 122.732 122.66 122.616 122.604 122.448C122.548 122.28 122.492 122.108 122.436 121.932C122.388 121.748 122.348 121.608 122.316 121.512C122.252 121.76 122.184 122.004 122.112 122.244C122.048 122.476 121.992 122.66 121.944 122.796L120.972 125.388H123.684ZM128.24 129H127.184V119.88H128.24V129ZM132.762 122.448C133.306 122.448 133.778 122.568 134.178 122.808C134.578 123.048 134.882 123.388 135.09 123.828C135.306 124.26 135.414 124.768 135.414 125.352V125.988H131.01C131.026 126.716 131.21 127.272 131.562 127.656C131.922 128.032 132.422 128.22 133.062 128.22C133.47 128.22 133.83 128.184 134.142 128.112C134.462 128.032 134.79 127.92 135.126 127.776V128.7C134.798 128.844 134.474 128.948 134.154 129.012C133.834 129.084 133.454 129.12 133.014 129.12C132.398 129.12 131.858 128.996 131.394 128.748C130.93 128.5 130.566 128.132 130.302 127.644C130.046 127.156 129.918 126.552 129.918 125.832C129.918 125.128 130.034 124.524 130.266 124.02C130.506 123.516 130.838 123.128 131.262 122.856C131.694 122.584 132.194 122.448 132.762 122.448ZM132.75 123.312C132.246 123.312 131.846 123.476 131.55 123.804C131.262 124.124 131.09 124.572 131.034 125.148H134.31C134.302 124.604 134.174 124.164 133.926 123.828C133.678 123.484 133.286 123.312 132.75 123.312ZM140.051 122.448C140.171 122.448 140.299 122.456 140.435 122.472C140.571 122.48 140.695 122.496 140.807 122.52L140.675 123.492C140.571 123.468 140.455 123.448 140.327 123.432C140.199 123.416 140.083 123.408 139.979 123.408C139.651 123.408 139.343 123.5 139.055 123.684C138.767 123.86 138.535 124.112 138.359 124.44C138.191 124.76 138.107 125.136 138.107 125.568V129H137.051V122.568H137.915L138.035 123.744H138.083C138.283 123.392 138.547 123.088 138.875 122.832C139.211 122.576 139.603 122.448 140.051 122.448ZM144.156 128.256C144.316 128.256 144.48 128.244 144.648 128.22C144.816 128.196 144.952 128.164 145.056 128.124V128.928C144.944 128.984 144.784 129.028 144.576 129.06C144.368 129.1 144.168 129.12 143.976 129.12C143.64 129.12 143.328 129.064 143.04 128.952C142.76 128.832 142.532 128.628 142.356 128.34C142.18 128.052 142.092 127.648 142.092 127.128V123.384H141.18V122.88L142.104 122.46L142.524 121.092H143.148V122.568H145.008V123.384H143.148V127.104C143.148 127.496 143.24 127.788 143.424 127.98C143.616 128.164 143.86 128.256 144.156 128.256Z" fill="black"/>
<rect x="111" y="112.5" width="42" height="23" rx="3.5" stroke="#2E9FDB"/>
<rect x="166" y="112.5" width="63" height="23" rx="3.5" fill="#E7F4FB"/>
<path d="M184.504 120.432L182.224 129H181.132L179.464 123.384C179.392 123.16 179.324 122.932 179.26 122.7C179.204 122.46 179.152 122.252 179.104 122.076C179.064 121.892 179.04 121.764 179.032 121.692C179.024 121.796 178.98 122.02 178.9 122.364C178.82 122.7 178.728 123.052 178.624 123.42L177.004 129H175.912L173.644 120.432H174.772L176.104 125.664C176.2 126.032 176.28 126.388 176.344 126.732C176.416 127.076 176.472 127.4 176.512 127.704C176.552 127.392 176.612 127.052 176.692 126.684C176.772 126.316 176.864 125.956 176.968 125.604L178.48 120.432H179.596L181.168 125.64C181.28 126.008 181.376 126.376 181.456 126.744C181.536 127.112 181.596 127.432 181.636 127.704C181.668 127.408 181.72 127.088 181.792 126.744C181.872 126.392 181.96 126.028 182.056 125.652L183.376 120.432H184.504ZM187.878 122.46C188.662 122.46 189.242 122.632 189.618 122.976C189.994 123.32 190.182 123.868 190.182 124.62V129H189.414L189.21 128.088H189.162C188.882 128.44 188.586 128.7 188.274 128.868C187.962 129.036 187.538 129.12 187.002 129.12C186.418 129.12 185.934 128.968 185.55 128.664C185.166 128.352 184.974 127.868 184.974 127.212C184.974 126.572 185.226 126.08 185.73 125.736C186.234 125.384 187.01 125.192 188.058 125.16L189.15 125.124V124.74C189.15 124.204 189.034 123.832 188.802 123.624C188.57 123.416 188.242 123.312 187.818 123.312C187.482 123.312 187.162 123.364 186.858 123.468C186.554 123.564 186.27 123.676 186.006 123.804L185.682 123.012C185.962 122.86 186.294 122.732 186.678 122.628C187.062 122.516 187.462 122.46 187.878 122.46ZM189.138 125.856L188.19 125.892C187.39 125.924 186.834 126.052 186.522 126.276C186.218 126.5 186.066 126.816 186.066 127.224C186.066 127.584 186.174 127.848 186.39 128.016C186.614 128.184 186.898 128.268 187.242 128.268C187.778 128.268 188.226 128.12 188.586 127.824C188.954 127.52 189.138 127.056 189.138 126.432V125.856ZM195.168 122.448C195.288 122.448 195.416 122.456 195.552 122.472C195.688 122.48 195.812 122.496 195.924 122.52L195.792 123.492C195.688 123.468 195.572 123.448 195.444 123.432C195.316 123.416 195.2 123.408 195.096 123.408C194.768 123.408 194.46 123.5 194.172 123.684C193.884 123.86 193.652 124.112 193.476 124.44C193.308 124.76 193.224 125.136 193.224 125.568V129H192.168V122.568H193.032L193.152 123.744H193.2C193.4 123.392 193.664 123.088 193.992 122.832C194.328 122.576 194.72 122.448 195.168 122.448ZM200.221 122.448C200.989 122.448 201.569 122.636 201.961 123.012C202.353 123.388 202.549 123.988 202.549 124.812V129H201.505V124.884C201.505 123.852 201.025 123.336 200.065 123.336C199.353 123.336 198.861 123.536 198.589 123.936C198.317 124.336 198.181 124.912 198.181 125.664V129H197.125V122.568H197.977L198.133 123.444H198.193C198.401 123.108 198.689 122.86 199.057 122.7C199.425 122.532 199.813 122.448 200.221 122.448ZM205.083 120.156C205.243 120.156 205.383 120.212 205.503 120.324C205.631 120.428 205.695 120.596 205.695 120.828C205.695 121.06 205.631 121.232 205.503 121.344C205.383 121.448 205.243 121.5 205.083 121.5C204.907 121.5 204.759 121.448 204.639 121.344C204.519 121.232 204.459 121.06 204.459 120.828C204.459 120.596 204.519 120.428 204.639 120.324C204.759 120.212 204.907 120.156 205.083 120.156ZM205.599 122.568V129H204.543V122.568H205.599ZM210.733 122.448C211.501 122.448 212.081 122.636 212.473 123.012C212.865 123.388 213.061 123.988 213.061 124.812V129H212.017V124.884C212.017 123.852 211.537 123.336 210.577 123.336C209.865 123.336 209.373 123.536 209.101 123.936C208.829 124.336 208.693 124.912 208.693 125.664V129H207.637V122.568H208.489L208.645 123.444H208.705C208.913 123.108 209.201 122.86 209.569 122.7C209.937 122.532 210.325 122.448 210.733 122.448ZM217.335 122.448C217.759 122.448 218.139 122.528 218.475 122.688C218.819 122.848 219.111 123.092 219.351 123.42H219.411L219.555 122.568H220.395V129.108C220.395 130.028 220.159 130.72 219.687 131.184C219.223 131.648 218.499 131.88 217.515 131.88C216.571 131.88 215.799 131.744 215.199 131.472V130.5C215.831 130.836 216.623 131.004 217.575 131.004C218.127 131.004 218.559 130.84 218.871 130.512C219.191 130.192 219.351 129.752 219.351 129.192V128.94C219.351 128.844 219.355 128.708 219.363 128.532C219.371 128.348 219.379 128.22 219.387 128.148H219.339C218.907 128.796 218.243 129.12 217.347 129.12C216.515 129.12 215.863 128.828 215.391 128.244C214.927 127.66 214.695 126.844 214.695 125.796C214.695 124.772 214.927 123.96 215.391 123.36C215.863 122.752 216.511 122.448 217.335 122.448ZM217.479 123.336C216.943 123.336 216.527 123.552 216.231 123.984C215.935 124.408 215.787 125.016 215.787 125.808C215.787 126.6 215.931 127.208 216.219 127.632C216.507 128.048 216.935 128.256 217.503 128.256C218.151 128.256 218.623 128.084 218.919 127.74C219.215 127.388 219.363 126.824 219.363 126.048V125.796C219.363 124.924 219.211 124.296 218.907 123.912C218.603 123.528 218.127 123.336 217.479 123.336Z" fill="black"/>
<rect x="166" y="112.5" width="63" height="23" rx="3.5" stroke="#2E9FDB"/>
<rect x="242" y="112.5" width="59" height="23" rx="3.5" fill="#E7F4FB"/>
<path d="M255.524 126.708C255.524 127.468 255.248 128.06 254.696 128.484C254.144 128.908 253.4 129.12 252.464 129.12C251.984 129.12 251.54 129.084 251.132 129.012C250.724 128.94 250.384 128.84 250.112 128.712V127.68C250.4 127.808 250.756 127.924 251.18 128.028C251.612 128.132 252.056 128.184 252.512 128.184C253.144 128.184 253.624 128.06 253.952 127.812C254.28 127.564 254.444 127.228 254.444 126.804C254.444 126.524 254.384 126.288 254.264 126.096C254.144 125.904 253.936 125.728 253.64 125.568C253.344 125.408 252.94 125.232 252.428 125.04C251.692 124.776 251.14 124.452 250.772 124.068C250.404 123.684 250.22 123.16 250.22 122.496C250.22 122.048 250.336 121.66 250.568 121.332C250.8 121.004 251.12 120.752 251.528 120.576C251.936 120.4 252.412 120.312 252.956 120.312C253.42 120.312 253.848 120.356 254.24 120.444C254.632 120.532 254.992 120.648 255.32 120.792L254.984 121.716C254.688 121.588 254.364 121.48 254.012 121.392C253.66 121.304 253.3 121.26 252.932 121.26C252.396 121.26 251.992 121.376 251.72 121.608C251.448 121.832 251.312 122.132 251.312 122.508C251.312 122.796 251.372 123.036 251.492 123.228C251.612 123.42 251.808 123.596 252.08 123.756C252.352 123.908 252.72 124.068 253.184 124.236C253.688 124.42 254.112 124.62 254.456 124.836C254.808 125.044 255.072 125.296 255.248 125.592C255.432 125.888 255.524 126.26 255.524 126.708ZM262.482 122.568V129H261.618L261.462 128.148H261.414C261.206 128.484 260.918 128.732 260.55 128.892C260.182 129.044 259.79 129.12 259.374 129.12C258.598 129.12 258.014 128.936 257.622 128.568C257.23 128.192 257.034 127.596 257.034 126.78V122.568H258.102V126.708C258.102 127.732 258.578 128.244 259.53 128.244C260.242 128.244 260.734 128.044 261.006 127.644C261.286 127.244 261.426 126.668 261.426 125.916V122.568H262.482ZM267.104 129.12C266.528 129.12 266.02 129.004 265.58 128.772C265.14 128.54 264.792 128.18 264.536 127.692C264.288 127.204 264.164 126.58 264.164 125.82C264.164 125.028 264.292 124.384 264.548 123.888C264.812 123.392 265.172 123.028 265.628 122.796C266.084 122.564 266.6 122.448 267.176 122.448C267.496 122.448 267.808 122.484 268.112 122.556C268.424 122.62 268.676 122.7 268.868 122.796L268.544 123.672C268.352 123.6 268.128 123.532 267.872 123.468C267.616 123.404 267.376 123.372 267.152 123.372C265.888 123.372 265.256 124.184 265.256 125.808C265.256 126.584 265.408 127.18 265.712 127.596C266.024 128.004 266.484 128.208 267.092 128.208C267.436 128.208 267.744 128.172 268.016 128.1C268.288 128.028 268.536 127.94 268.76 127.836V128.772C268.544 128.884 268.304 128.968 268.04 129.024C267.784 129.088 267.472 129.12 267.104 129.12ZM272.87 129.12C272.294 129.12 271.786 129.004 271.346 128.772C270.906 128.54 270.558 128.18 270.302 127.692C270.054 127.204 269.93 126.58 269.93 125.82C269.93 125.028 270.058 124.384 270.314 123.888C270.578 123.392 270.938 123.028 271.394 122.796C271.85 122.564 272.366 122.448 272.942 122.448C273.262 122.448 273.574 122.484 273.878 122.556C274.19 122.62 274.442 122.7 274.634 122.796L274.31 123.672C274.118 123.6 273.894 123.532 273.638 123.468C273.382 123.404 273.142 123.372 272.918 123.372C271.654 123.372 271.022 124.184 271.022 125.808C271.022 126.584 271.174 127.18 271.478 127.596C271.79 128.004 272.25 128.208 272.858 128.208C273.202 128.208 273.51 128.172 273.782 128.1C274.054 128.028 274.302 127.94 274.526 127.836V128.772C274.31 128.884 274.07 128.968 273.806 129.024C273.55 129.088 273.238 129.12 272.87 129.12ZM278.539 122.448C279.083 122.448 279.555 122.568 279.955 122.808C280.355 123.048 280.659 123.388 280.867 123.828C281.083 124.26 281.191 124.768 281.191 125.352V125.988H276.787C276.803 126.716 276.987 127.272 277.339 127.656C277.699 128.032 278.199 128.22 278.839 128.22C279.247 128.22 279.607 128.184 279.919 128.112C280.239 128.032 280.567 127.92 280.903 127.776V128.7C280.575 128.844 280.251 128.948 279.931 129.012C279.611 129.084 279.231 129.12 278.791 129.12C278.175 129.12 277.635 128.996 277.171 128.748C276.707 128.5 276.343 128.132 276.079 127.644C275.823 127.156 275.695 126.552 275.695 125.832C275.695 125.128 275.811 124.524 276.043 124.02C276.283 123.516 276.615 123.128 277.039 122.856C277.471 122.584 277.971 122.448 278.539 122.448ZM278.527 123.312C278.023 123.312 277.623 123.476 277.327 123.804C277.039 124.124 276.867 124.572 276.811 125.148H280.087C280.079 124.604 279.951 124.164 279.703 123.828C279.455 123.484 279.063 123.312 278.527 123.312ZM287.017 127.224C287.017 127.848 286.785 128.32 286.321 128.64C285.857 128.96 285.233 129.12 284.449 129.12C284.001 129.12 283.613 129.084 283.285 129.012C282.965 128.94 282.681 128.84 282.433 128.712V127.752C282.689 127.88 282.997 128 283.357 128.112C283.725 128.216 284.097 128.268 284.473 128.268C285.009 128.268 285.397 128.184 285.637 128.016C285.877 127.84 285.997 127.608 285.997 127.32C285.997 127.16 285.953 127.016 285.865 126.888C285.777 126.76 285.617 126.632 285.385 126.504C285.161 126.376 284.837 126.232 284.413 126.072C283.997 125.912 283.641 125.752 283.345 125.592C283.049 125.432 282.821 125.24 282.661 125.016C282.501 124.792 282.421 124.504 282.421 124.152C282.421 123.608 282.641 123.188 283.081 122.892C283.529 122.596 284.113 122.448 284.833 122.448C285.225 122.448 285.589 122.488 285.925 122.568C286.269 122.648 286.589 122.752 286.885 122.88L286.525 123.72C286.253 123.608 285.969 123.512 285.673 123.432C285.377 123.352 285.073 123.312 284.761 123.312C284.329 123.312 283.997 123.384 283.765 123.528C283.541 123.664 283.429 123.852 283.429 124.092C283.429 124.276 283.481 124.428 283.585 124.548C283.689 124.668 283.861 124.788 284.101 124.908C284.349 125.028 284.677 125.164 285.085 125.316C285.493 125.468 285.841 125.624 286.129 125.784C286.417 125.944 286.637 126.14 286.789 126.372C286.941 126.596 287.017 126.88 287.017 127.224ZM292.759 127.224C292.759 127.848 292.527 128.32 292.063 128.64C291.599 128.96 290.975 129.12 290.191 129.12C289.743 129.12 289.355 129.084 289.027 129.012C288.707 128.94 288.423 128.84 288.175 128.712V127.752C288.431 127.88 288.739 128 289.099 128.112C289.467 128.216 289.839 128.268 290.215 128.268C290.751 128.268 291.139 128.184 291.379 128.016C291.619 127.84 291.739 127.608 291.739 127.32C291.739 127.16 291.695 127.016 291.607 126.888C291.519 126.76 291.359 126.632 291.127 126.504C290.903 126.376 290.579 126.232 290.155 126.072C289.739 125.912 289.383 125.752 289.087 125.592C288.791 125.432 288.563 125.24 288.403 125.016C288.243 124.792 288.163 124.504 288.163 124.152C288.163 123.608 288.383 123.188 288.823 122.892C289.271 122.596 289.855 122.448 290.575 122.448C290.967 122.448 291.331 122.488 291.667 122.568C292.011 122.648 292.331 122.752 292.627 122.88L292.267 123.72C291.995 123.608 291.711 123.512 291.415 123.432C291.119 123.352 290.815 123.312 290.503 123.312C290.071 123.312 289.739 123.384 289.507 123.528C289.283 123.664 289.171 123.852 289.171 124.092C289.171 124.276 289.223 124.428 289.327 124.548C289.431 124.668 289.603 124.788 289.843 124.908C290.091 125.028 290.419 125.164 290.827 125.316C291.235 125.468 291.583 125.624 291.871 125.784C292.159 125.944 292.379 126.14 292.531 126.372C292.683 126.596 292.759 126.88 292.759 127.224Z" fill="black"/>
<rect x="242" y="112.5" width="59" height="23" rx="3.5" stroke="#2E9FDB"/>
</svg>
