<svg width="191" height="24" viewBox="0 0 191 24" fill="none" xmlns="http://www.w3.org/2000/svg">
<rect x="0.5" y="0.5" width="42" height="23" rx="3.5" fill="#E8F1FC"/>
<path d="M14.54 17L13.508 14.348H10.112L9.092 17H8L11.348 8.396H12.32L15.656 17H14.54ZM13.184 13.388L12.224 10.796C12.2 10.732 12.16 10.616 12.104 10.448C12.048 10.28 11.992 10.108 11.936 9.932C11.888 9.748 11.848 9.608 11.816 9.512C11.752 9.76 11.684 10.004 11.612 10.244C11.548 10.476 11.492 10.66 11.444 10.796L10.472 13.388H13.184ZM17.7401 17H16.6841V7.88H17.7401V17ZM22.2618 10.448C22.8058 10.448 23.2778 10.568 23.6778 10.808C24.0778 11.048 24.3818 11.388 24.5898 11.828C24.8058 12.26 24.9138 12.768 24.9138 13.352V13.988H20.5098C20.5258 14.716 20.7098 15.272 21.0618 15.656C21.4218 16.032 21.9218 16.22 22.5618 16.22C22.9698 16.22 23.3298 16.184 23.6418 16.112C23.9618 16.032 24.2898 15.92 24.6258 15.776V16.7C24.2978 16.844 23.9738 16.948 23.6538 17.012C23.3338 17.084 22.9538 17.12 22.5138 17.12C21.8978 17.12 21.3578 16.996 20.8938 16.748C20.4298 16.5 20.0658 16.132 19.8018 15.644C19.5458 15.156 19.4178 14.552 19.4178 13.832C19.4178 13.128 19.5338 12.524 19.7658 12.02C20.0058 11.516 20.3378 11.128 20.7618 10.856C21.1938 10.584 21.6938 10.448 22.2618 10.448ZM22.2498 11.312C21.7458 11.312 21.3458 11.476 21.0498 11.804C20.7618 12.124 20.5898 12.572 20.5338 13.148H23.8098C23.8018 12.604 23.6738 12.164 23.4258 11.828C23.1778 11.484 22.7858 11.312 22.2498 11.312ZM29.5513 10.448C29.6713 10.448 29.7993 10.456 29.9353 10.472C30.0713 10.48 30.1953 10.496 30.3073 10.52L30.1753 11.492C30.0713 11.468 29.9553 11.448 29.8273 11.432C29.6993 11.416 29.5833 11.408 29.4793 11.408C29.1513 11.408 28.8433 11.5 28.5553 11.684C28.2673 11.86 28.0353 12.112 27.8593 12.44C27.6913 12.76 27.6073 13.136 27.6073 13.568V17H26.5513V10.568H27.4153L27.5353 11.744H27.5833C27.7833 11.392 28.0473 11.088 28.3753 10.832C28.7113 10.576 29.1033 10.448 29.5513 10.448ZM33.6563 16.256C33.8163 16.256 33.9803 16.244 34.1483 16.22C34.3163 16.196 34.4523 16.164 34.5563 16.124V16.928C34.4443 16.984 34.2843 17.028 34.0763 17.06C33.8683 17.1 33.6683 17.12 33.4763 17.12C33.1403 17.12 32.8283 17.064 32.5403 16.952C32.2603 16.832 32.0323 16.628 31.8563 16.34C31.6803 16.052 31.5923 15.648 31.5923 15.128V11.384H30.6803V10.88L31.6043 10.46L32.0243 9.092H32.6483V10.568H34.5083V11.384H32.6483V15.104C32.6483 15.496 32.7403 15.788 32.9243 15.98C33.1163 16.164 33.3603 16.256 33.6563 16.256Z" fill="black"/>
<rect x="0.5" y="0.5" width="42" height="23" rx="3.5" stroke="#4C94ED"/>
<rect x="55.5" y="0.5" width="63" height="23" rx="3.5" fill="#E8F1FC"/>
<path d="M74.004 8.432L71.724 17H70.632L68.964 11.384C68.892 11.16 68.824 10.932 68.76 10.7C68.704 10.46 68.652 10.252 68.604 10.076C68.564 9.892 68.54 9.764 68.532 9.692C68.524 9.796 68.48 10.02 68.4 10.364C68.32 10.7 68.228 11.052 68.124 11.42L66.504 17H65.412L63.144 8.432H64.272L65.604 13.664C65.7 14.032 65.78 14.388 65.844 14.732C65.916 15.076 65.972 15.4 66.012 15.704C66.052 15.392 66.112 15.052 66.192 14.684C66.272 14.316 66.364 13.956 66.468 13.604L67.98 8.432H69.096L70.668 13.64C70.78 14.008 70.876 14.376 70.956 14.744C71.036 15.112 71.096 15.432 71.136 15.704C71.168 15.408 71.22 15.088 71.292 14.744C71.372 14.392 71.46 14.028 71.556 13.652L72.876 8.432H74.004ZM77.3779 10.46C78.1619 10.46 78.7419 10.632 79.1179 10.976C79.4939 11.32 79.6819 11.868 79.6819 12.62V17H78.9139L78.7099 16.088H78.6619C78.3819 16.44 78.0859 16.7 77.7739 16.868C77.4619 17.036 77.0379 17.12 76.5019 17.12C75.9179 17.12 75.4339 16.968 75.0499 16.664C74.6659 16.352 74.4739 15.868 74.4739 15.212C74.4739 14.572 74.7259 14.08 75.2299 13.736C75.7339 13.384 76.5099 13.192 77.5579 13.16L78.6499 13.124V12.74C78.6499 12.204 78.5339 11.832 78.3019 11.624C78.0699 11.416 77.7419 11.312 77.3179 11.312C76.9819 11.312 76.6619 11.364 76.3579 11.468C76.0539 11.564 75.7699 11.676 75.5059 11.804L75.1819 11.012C75.4619 10.86 75.7939 10.732 76.1779 10.628C76.5619 10.516 76.9619 10.46 77.3779 10.46ZM78.6379 13.856L77.6899 13.892C76.8899 13.924 76.3339 14.052 76.0219 14.276C75.7179 14.5 75.5659 14.816 75.5659 15.224C75.5659 15.584 75.6739 15.848 75.8899 16.016C76.1139 16.184 76.3979 16.268 76.7419 16.268C77.2779 16.268 77.7259 16.12 78.0859 15.824C78.4539 15.52 78.6379 15.056 78.6379 14.432V13.856ZM84.6684 10.448C84.7884 10.448 84.9164 10.456 85.0524 10.472C85.1884 10.48 85.3124 10.496 85.4244 10.52L85.2924 11.492C85.1884 11.468 85.0724 11.448 84.9444 11.432C84.8164 11.416 84.7004 11.408 84.5964 11.408C84.2684 11.408 83.9604 11.5 83.6724 11.684C83.3844 11.86 83.1524 12.112 82.9764 12.44C82.8084 12.76 82.7244 13.136 82.7244 13.568V17H81.6684V10.568H82.5324L82.6524 11.744H82.7004C82.9004 11.392 83.1644 11.088 83.4924 10.832C83.8284 10.576 84.2204 10.448 84.6684 10.448ZM89.7215 10.448C90.4895 10.448 91.0695 10.636 91.4615 11.012C91.8535 11.388 92.0495 11.988 92.0495 12.812V17H91.0055V12.884C91.0055 11.852 90.5255 11.336 89.5655 11.336C88.8535 11.336 88.3615 11.536 88.0895 11.936C87.8175 12.336 87.6815 12.912 87.6815 13.664V17H86.6255V10.568H87.4775L87.6335 11.444H87.6935C87.9015 11.108 88.1895 10.86 88.5575 10.7C88.9255 10.532 89.3135 10.448 89.7215 10.448ZM94.5834 8.156C94.7434 8.156 94.8834 8.212 95.0034 8.324C95.1314 8.428 95.1954 8.596 95.1954 8.828C95.1954 9.06 95.1314 9.232 95.0034 9.344C94.8834 9.448 94.7434 9.5 94.5834 9.5C94.4074 9.5 94.2594 9.448 94.1394 9.344C94.0194 9.232 93.9594 9.06 93.9594 8.828C93.9594 8.596 94.0194 8.428 94.1394 8.324C94.2594 8.212 94.4074 8.156 94.5834 8.156ZM95.0994 10.568V17H94.0434V10.568H95.0994ZM100.233 10.448C101.001 10.448 101.581 10.636 101.973 11.012C102.365 11.388 102.561 11.988 102.561 12.812V17H101.517V12.884C101.517 11.852 101.037 11.336 100.077 11.336C99.3652 11.336 98.8732 11.536 98.6012 11.936C98.3292 12.336 98.1932 12.912 98.1932 13.664V17H97.1372V10.568H97.9892L98.1452 11.444H98.2052C98.4132 11.108 98.7012 10.86 99.0692 10.7C99.4372 10.532 99.8252 10.448 100.233 10.448ZM106.835 10.448C107.259 10.448 107.639 10.528 107.975 10.688C108.319 10.848 108.611 11.092 108.851 11.42H108.911L109.055 10.568H109.895V17.108C109.895 18.028 109.659 18.72 109.187 19.184C108.723 19.648 107.999 19.88 107.015 19.88C106.071 19.88 105.299 19.744 104.699 19.472V18.5C105.331 18.836 106.123 19.004 107.075 19.004C107.627 19.004 108.059 18.84 108.371 18.512C108.691 18.192 108.851 17.752 108.851 17.192V16.94C108.851 16.844 108.855 16.708 108.863 16.532C108.871 16.348 108.879 16.22 108.887 16.148H108.839C108.407 16.796 107.743 17.12 106.847 17.12C106.015 17.12 105.363 16.828 104.891 16.244C104.427 15.66 104.195 14.844 104.195 13.796C104.195 12.772 104.427 11.96 104.891 11.36C105.363 10.752 106.011 10.448 106.835 10.448ZM106.979 11.336C106.443 11.336 106.027 11.552 105.731 11.984C105.435 12.408 105.287 13.016 105.287 13.808C105.287 14.6 105.431 15.208 105.719 15.632C106.007 16.048 106.435 16.256 107.003 16.256C107.651 16.256 108.123 16.084 108.419 15.74C108.715 15.388 108.863 14.824 108.863 14.048V13.796C108.863 12.924 108.711 12.296 108.407 11.912C108.103 11.528 107.627 11.336 106.979 11.336Z" fill="black"/>
<rect x="55.5" y="0.5" width="63" height="23" rx="3.5" stroke="#4C94ED"/>
<rect x="131.5" y="0.5" width="59" height="23" rx="3.5" fill="#E8F1FC"/>
<path d="M145.024 14.708C145.024 15.468 144.748 16.06 144.196 16.484C143.644 16.908 142.9 17.12 141.964 17.12C141.484 17.12 141.04 17.084 140.632 17.012C140.224 16.94 139.884 16.84 139.612 16.712V15.68C139.9 15.808 140.256 15.924 140.68 16.028C141.112 16.132 141.556 16.184 142.012 16.184C142.644 16.184 143.124 16.06 143.452 15.812C143.78 15.564 143.944 15.228 143.944 14.804C143.944 14.524 143.884 14.288 143.764 14.096C143.644 13.904 143.436 13.728 143.14 13.568C142.844 13.408 142.44 13.232 141.928 13.04C141.192 12.776 140.64 12.452 140.272 12.068C139.904 11.684 139.72 11.16 139.72 10.496C139.72 10.048 139.836 9.66 140.068 9.332C140.3 9.004 140.62 8.752 141.028 8.576C141.436 8.4 141.912 8.312 142.456 8.312C142.92 8.312 143.348 8.356 143.74 8.444C144.132 8.532 144.492 8.648 144.82 8.792L144.484 9.716C144.188 9.588 143.864 9.48 143.512 9.392C143.16 9.304 142.8 9.26 142.432 9.26C141.896 9.26 141.492 9.376 141.22 9.608C140.948 9.832 140.812 10.132 140.812 10.508C140.812 10.796 140.872 11.036 140.992 11.228C141.112 11.42 141.308 11.596 141.58 11.756C141.852 11.908 142.22 12.068 142.684 12.236C143.188 12.42 143.612 12.62 143.956 12.836C144.308 13.044 144.572 13.296 144.748 13.592C144.932 13.888 145.024 14.26 145.024 14.708ZM151.982 10.568V17H151.118L150.962 16.148H150.914C150.706 16.484 150.418 16.732 150.05 16.892C149.682 17.044 149.29 17.12 148.874 17.12C148.098 17.12 147.514 16.936 147.122 16.568C146.73 16.192 146.534 15.596 146.534 14.78V10.568H147.602V14.708C147.602 15.732 148.078 16.244 149.03 16.244C149.742 16.244 150.234 16.044 150.506 15.644C150.786 15.244 150.926 14.668 150.926 13.916V10.568H151.982ZM156.604 17.12C156.028 17.12 155.52 17.004 155.08 16.772C154.64 16.54 154.292 16.18 154.036 15.692C153.788 15.204 153.664 14.58 153.664 13.82C153.664 13.028 153.792 12.384 154.048 11.888C154.312 11.392 154.672 11.028 155.128 10.796C155.584 10.564 156.1 10.448 156.676 10.448C156.996 10.448 157.308 10.484 157.612 10.556C157.924 10.62 158.176 10.7 158.368 10.796L158.044 11.672C157.852 11.6 157.628 11.532 157.372 11.468C157.116 11.404 156.876 11.372 156.652 11.372C155.388 11.372 154.756 12.184 154.756 13.808C154.756 14.584 154.908 15.18 155.212 15.596C155.524 16.004 155.984 16.208 156.592 16.208C156.936 16.208 157.244 16.172 157.516 16.1C157.788 16.028 158.036 15.94 158.26 15.836V16.772C158.044 16.884 157.804 16.968 157.54 17.024C157.284 17.088 156.972 17.12 156.604 17.12ZM162.37 17.12C161.794 17.12 161.286 17.004 160.846 16.772C160.406 16.54 160.058 16.18 159.802 15.692C159.554 15.204 159.43 14.58 159.43 13.82C159.43 13.028 159.558 12.384 159.814 11.888C160.078 11.392 160.438 11.028 160.894 10.796C161.35 10.564 161.866 10.448 162.442 10.448C162.762 10.448 163.074 10.484 163.378 10.556C163.69 10.62 163.942 10.7 164.134 10.796L163.81 11.672C163.618 11.6 163.394 11.532 163.138 11.468C162.882 11.404 162.642 11.372 162.418 11.372C161.154 11.372 160.522 12.184 160.522 13.808C160.522 14.584 160.674 15.18 160.978 15.596C161.29 16.004 161.75 16.208 162.358 16.208C162.702 16.208 163.01 16.172 163.282 16.1C163.554 16.028 163.802 15.94 164.026 15.836V16.772C163.81 16.884 163.57 16.968 163.306 17.024C163.05 17.088 162.738 17.12 162.37 17.12ZM168.039 10.448C168.583 10.448 169.055 10.568 169.455 10.808C169.855 11.048 170.159 11.388 170.367 11.828C170.583 12.26 170.691 12.768 170.691 13.352V13.988H166.287C166.303 14.716 166.487 15.272 166.839 15.656C167.199 16.032 167.699 16.22 168.339 16.22C168.747 16.22 169.107 16.184 169.419 16.112C169.739 16.032 170.067 15.92 170.403 15.776V16.7C170.075 16.844 169.751 16.948 169.431 17.012C169.111 17.084 168.731 17.12 168.291 17.12C167.675 17.12 167.135 16.996 166.671 16.748C166.207 16.5 165.843 16.132 165.579 15.644C165.323 15.156 165.195 14.552 165.195 13.832C165.195 13.128 165.311 12.524 165.543 12.02C165.783 11.516 166.115 11.128 166.539 10.856C166.971 10.584 167.471 10.448 168.039 10.448ZM168.027 11.312C167.523 11.312 167.123 11.476 166.827 11.804C166.539 12.124 166.367 12.572 166.311 13.148H169.587C169.579 12.604 169.451 12.164 169.203 11.828C168.955 11.484 168.563 11.312 168.027 11.312ZM176.517 15.224C176.517 15.848 176.285 16.32 175.821 16.64C175.357 16.96 174.733 17.12 173.949 17.12C173.501 17.12 173.113 17.084 172.785 17.012C172.465 16.94 172.181 16.84 171.933 16.712V15.752C172.189 15.88 172.497 16 172.857 16.112C173.225 16.216 173.597 16.268 173.973 16.268C174.509 16.268 174.897 16.184 175.137 16.016C175.377 15.84 175.497 15.608 175.497 15.32C175.497 15.16 175.453 15.016 175.365 14.888C175.277 14.76 175.117 14.632 174.885 14.504C174.661 14.376 174.337 14.232 173.913 14.072C173.497 13.912 173.141 13.752 172.845 13.592C172.549 13.432 172.321 13.24 172.161 13.016C172.001 12.792 171.921 12.504 171.921 12.152C171.921 11.608 172.141 11.188 172.581 10.892C173.029 10.596 173.613 10.448 174.333 10.448C174.725 10.448 175.089 10.488 175.425 10.568C175.769 10.648 176.089 10.752 176.385 10.88L176.025 11.72C175.753 11.608 175.469 11.512 175.173 11.432C174.877 11.352 174.573 11.312 174.261 11.312C173.829 11.312 173.497 11.384 173.265 11.528C173.041 11.664 172.929 11.852 172.929 12.092C172.929 12.276 172.981 12.428 173.085 12.548C173.189 12.668 173.361 12.788 173.601 12.908C173.849 13.028 174.177 13.164 174.585 13.316C174.993 13.468 175.341 13.624 175.629 13.784C175.917 13.944 176.137 14.14 176.289 14.372C176.441 14.596 176.517 14.88 176.517 15.224ZM182.259 15.224C182.259 15.848 182.027 16.32 181.563 16.64C181.099 16.96 180.475 17.12 179.691 17.12C179.243 17.12 178.855 17.084 178.527 17.012C178.207 16.94 177.923 16.84 177.675 16.712V15.752C177.931 15.88 178.239 16 178.599 16.112C178.967 16.216 179.339 16.268 179.715 16.268C180.251 16.268 180.639 16.184 180.879 16.016C181.119 15.84 181.239 15.608 181.239 15.32C181.239 15.16 181.195 15.016 181.107 14.888C181.019 14.76 180.859 14.632 180.627 14.504C180.403 14.376 180.079 14.232 179.655 14.072C179.239 13.912 178.883 13.752 178.587 13.592C178.291 13.432 178.063 13.24 177.903 13.016C177.743 12.792 177.663 12.504 177.663 12.152C177.663 11.608 177.883 11.188 178.323 10.892C178.771 10.596 179.355 10.448 180.075 10.448C180.467 10.448 180.831 10.488 181.167 10.568C181.511 10.648 181.831 10.752 182.127 10.88L181.767 11.72C181.495 11.608 181.211 11.512 180.915 11.432C180.619 11.352 180.315 11.312 180.003 11.312C179.571 11.312 179.239 11.384 179.007 11.528C178.783 11.664 178.671 11.852 178.671 12.092C178.671 12.276 178.723 12.428 178.827 12.548C178.931 12.668 179.103 12.788 179.343 12.908C179.591 13.028 179.919 13.164 180.327 13.316C180.735 13.468 181.083 13.624 181.371 13.784C181.659 13.944 181.879 14.14 182.031 14.372C182.183 14.596 182.259 14.88 182.259 15.224Z" fill="black"/>
<rect x="131.5" y="0.5" width="59" height="23" rx="3.5" stroke="#4C94ED"/>
</svg>
