<svg width="412" height="248" viewBox="0 0 412 248" fill="none" xmlns="http://www.w3.org/2000/svg">
<rect width="412" height="248" fill="white"/>
<rect width="202" height="44" transform="translate(105 40)" fill="white"/>
<path d="M128.112 64.27C128.112 65.1567 127.79 65.8567 127.146 66.37C126.502 66.8833 125.611 67.14 124.472 67.14C123.371 67.14 122.437 66.9533 121.672 66.58V64.9C122.092 65.0867 122.554 65.2593 123.058 65.418C123.571 65.5673 124.085 65.642 124.598 65.642C125.205 65.642 125.643 65.5253 125.914 65.292C126.194 65.0493 126.334 64.7413 126.334 64.368C126.334 63.9573 126.157 63.6307 125.802 63.388C125.447 63.136 124.929 62.8653 124.248 62.576C123.837 62.408 123.441 62.2027 123.058 61.96C122.685 61.708 122.377 61.3953 122.134 61.022C121.901 60.6393 121.784 60.1633 121.784 59.594C121.784 58.7447 122.083 58.0773 122.68 57.592C123.287 57.1067 124.094 56.864 125.102 56.864C125.625 56.864 126.119 56.92 126.586 57.032C127.062 57.144 127.529 57.3027 127.986 57.508L127.412 58.95C126.992 58.7727 126.591 58.6327 126.208 58.53C125.835 58.4273 125.447 58.376 125.046 58.376C124.561 58.376 124.192 58.4833 123.94 58.698C123.688 58.9127 123.562 59.1973 123.562 59.552C123.562 59.8227 123.632 60.056 123.772 60.252C123.912 60.4387 124.127 60.6113 124.416 60.77C124.715 60.9287 125.097 61.1107 125.564 61.316C126.105 61.5493 126.563 61.7967 126.936 62.058C127.319 62.31 127.608 62.6133 127.804 62.968C128.009 63.3133 128.112 63.7473 128.112 64.27ZM132.771 65.726C132.986 65.726 133.196 65.7073 133.401 65.67C133.616 65.6233 133.812 65.572 133.989 65.516V66.832C133.803 66.9253 133.56 67 133.261 67.056C132.963 67.112 132.65 67.14 132.323 67.14C131.885 67.14 131.488 67.07 131.133 66.93C130.788 66.79 130.513 66.5427 130.307 66.188C130.102 65.8333 129.999 65.334 129.999 64.69V60.742H128.977V59.972L130.097 59.356L130.657 57.746H131.763V59.412H133.919V60.742H131.763V64.676C131.763 65.0307 131.857 65.2967 132.043 65.474C132.239 65.642 132.482 65.726 132.771 65.726ZM138.543 59.272C139.523 59.272 140.265 59.4867 140.769 59.916C141.282 60.3453 141.539 61.008 141.539 61.904V67H140.293L139.943 65.95H139.887C139.56 66.3607 139.215 66.664 138.851 66.86C138.487 67.0467 137.992 67.14 137.367 67.14C136.685 67.14 136.121 66.9487 135.673 66.566C135.225 66.1833 135.001 65.5907 135.001 64.788C135.001 64.004 135.285 63.416 135.855 63.024C136.433 62.632 137.306 62.4127 138.473 62.366L139.789 62.324V61.946C139.789 61.4607 139.672 61.1153 139.439 60.91C139.205 60.7047 138.879 60.602 138.459 60.602C138.076 60.602 137.707 60.658 137.353 60.77C137.007 60.8727 136.662 61.0033 136.317 61.162L135.757 59.93C136.13 59.734 136.555 59.5753 137.031 59.454C137.516 59.3327 138.02 59.272 138.543 59.272ZM139.789 63.416L138.865 63.444C138.09 63.472 137.553 63.6073 137.255 63.85C136.956 64.0833 136.807 64.4007 136.807 64.802C136.807 65.166 136.909 65.4273 137.115 65.586C137.329 65.7353 137.609 65.81 137.955 65.81C138.468 65.81 138.902 65.6653 139.257 65.376C139.611 65.0773 139.789 64.6387 139.789 64.06V63.416ZM146.689 65.726C146.904 65.726 147.114 65.7073 147.319 65.67C147.534 65.6233 147.73 65.572 147.907 65.516V66.832C147.721 66.9253 147.478 67 147.179 67.056C146.881 67.112 146.568 67.14 146.241 67.14C145.803 67.14 145.406 67.07 145.051 66.93C144.706 66.79 144.431 66.5427 144.225 66.188C144.02 65.8333 143.917 65.334 143.917 64.69V60.742H142.895V59.972L144.015 59.356L144.575 57.746H145.681V59.412H147.837V60.742H145.681V64.676C145.681 65.0307 145.775 65.2967 145.961 65.474C146.157 65.642 146.4 65.726 146.689 65.726ZM156.171 59.412V67H154.785L154.547 66.02H154.463C154.22 66.412 153.884 66.6967 153.455 66.874C153.025 67.0513 152.573 67.14 152.097 67.14C151.247 67.14 150.58 66.9207 150.095 66.482C149.619 66.0433 149.381 65.3387 149.381 64.368V59.412H151.145V64.018C151.145 64.5873 151.257 65.012 151.481 65.292C151.705 65.572 152.059 65.712 152.545 65.712C153.254 65.712 153.739 65.488 154.001 65.04C154.271 64.592 154.407 63.9527 154.407 63.122V59.412H156.171ZM163.585 64.802C163.585 65.5673 163.31 66.1507 162.759 66.552C162.218 66.944 161.438 67.14 160.421 67.14C159.889 67.14 159.432 67.1027 159.049 67.028C158.676 66.9533 158.312 66.8367 157.957 66.678V65.18C158.33 65.3573 158.741 65.5067 159.189 65.628C159.646 65.7493 160.076 65.81 160.477 65.81C160.962 65.81 161.312 65.7353 161.527 65.586C161.742 65.4367 161.849 65.236 161.849 64.984C161.849 64.8347 161.807 64.704 161.723 64.592C161.639 64.4707 161.476 64.34 161.233 64.2C160.99 64.06 160.622 63.8873 160.127 63.682C159.642 63.486 159.236 63.29 158.909 63.094C158.592 62.898 158.349 62.6647 158.181 62.394C158.022 62.1233 157.943 61.7733 157.943 61.344C157.943 60.6627 158.214 60.1493 158.755 59.804C159.296 59.4493 160.01 59.272 160.897 59.272C161.364 59.272 161.802 59.3187 162.213 59.412C162.633 59.5053 163.053 59.6453 163.473 59.832L162.913 61.134C162.558 60.9847 162.213 60.8587 161.877 60.756C161.541 60.6533 161.196 60.602 160.841 60.602C160.066 60.602 159.679 60.8213 159.679 61.26C159.679 61.4187 159.726 61.554 159.819 61.666C159.922 61.778 160.094 61.8993 160.337 62.03C160.589 62.1513 160.944 62.3007 161.401 62.478C161.849 62.6553 162.236 62.842 162.563 63.038C162.89 63.2247 163.142 63.458 163.319 63.738C163.496 64.0087 163.585 64.3633 163.585 64.802Z" fill="black"/>
<line x1="105" y1="40.5" x2="307" y2="40.5" stroke="#C9C9C9"/>
<line x1="105" y1="83.5" x2="307" y2="83.5" stroke="#C9C9C9"/>
<g clip-path="url(#clip0_8031_203931)">
<rect width="202" height="44" transform="translate(105 84)" fill="white"/>
<line x1="105" y1="127.5" x2="307" y2="127.5" stroke="#F1F1F1"/>
<rect x="121.5" y="94.5" width="70" height="23" rx="3.5" fill="#E4F7E4"/>
<path d="M132.528 102.432C133.592 102.432 134.376 102.636 134.88 103.044C135.392 103.444 135.648 104.052 135.648 104.868C135.648 105.324 135.564 105.704 135.396 106.008C135.228 106.312 135.012 106.556 134.748 106.74C134.492 106.924 134.22 107.064 133.932 107.16L136.284 111H135.024L132.948 107.46H131.244V111H130.164V102.432H132.528ZM132.468 103.368H131.244V106.548H132.528C133.224 106.548 133.732 106.412 134.052 106.14C134.372 105.86 134.532 105.452 134.532 104.916C134.532 104.356 134.364 103.96 134.028 103.728C133.692 103.488 133.172 103.368 132.468 103.368ZM139.969 104.448C140.513 104.448 140.985 104.568 141.385 104.808C141.785 105.048 142.089 105.388 142.297 105.828C142.513 106.26 142.621 106.768 142.621 107.352V107.988H138.217C138.233 108.716 138.417 109.272 138.769 109.656C139.129 110.032 139.629 110.22 140.269 110.22C140.677 110.22 141.037 110.184 141.349 110.112C141.669 110.032 141.997 109.92 142.333 109.776V110.7C142.005 110.844 141.681 110.948 141.361 111.012C141.041 111.084 140.661 111.12 140.221 111.12C139.605 111.12 139.065 110.996 138.601 110.748C138.137 110.5 137.773 110.132 137.509 109.644C137.253 109.156 137.125 108.552 137.125 107.832C137.125 107.128 137.241 106.524 137.473 106.02C137.713 105.516 138.045 105.128 138.469 104.856C138.901 104.584 139.401 104.448 139.969 104.448ZM139.957 105.312C139.453 105.312 139.053 105.476 138.757 105.804C138.469 106.124 138.297 106.572 138.241 107.148H141.517C141.509 106.604 141.381 106.164 141.133 105.828C140.885 105.484 140.493 105.312 139.957 105.312ZM146.694 104.46C147.478 104.46 148.058 104.632 148.434 104.976C148.81 105.32 148.998 105.868 148.998 106.62V111H148.23L148.026 110.088H147.978C147.698 110.44 147.402 110.7 147.09 110.868C146.778 111.036 146.354 111.12 145.818 111.12C145.234 111.12 144.75 110.968 144.366 110.664C143.982 110.352 143.79 109.868 143.79 109.212C143.79 108.572 144.042 108.08 144.546 107.736C145.05 107.384 145.826 107.192 146.874 107.16L147.966 107.124V106.74C147.966 106.204 147.85 105.832 147.618 105.624C147.386 105.416 147.058 105.312 146.634 105.312C146.298 105.312 145.978 105.364 145.674 105.468C145.37 105.564 145.086 105.676 144.822 105.804L144.498 105.012C144.778 104.86 145.11 104.732 145.494 104.628C145.878 104.516 146.278 104.46 146.694 104.46ZM147.954 107.856L147.006 107.892C146.206 107.924 145.65 108.052 145.338 108.276C145.034 108.5 144.882 108.816 144.882 109.224C144.882 109.584 144.99 109.848 145.206 110.016C145.43 110.184 145.714 110.268 146.058 110.268C146.594 110.268 147.042 110.12 147.402 109.824C147.77 109.52 147.954 109.056 147.954 108.432V107.856ZM153.265 111.12C152.465 111.12 151.825 110.844 151.345 110.292C150.865 109.732 150.625 108.9 150.625 107.796C150.625 106.692 150.865 105.86 151.345 105.3C151.833 104.732 152.477 104.448 153.277 104.448C153.773 104.448 154.177 104.54 154.489 104.724C154.809 104.908 155.069 105.132 155.269 105.396H155.341C155.325 105.292 155.309 105.14 155.293 104.94C155.277 104.732 155.269 104.568 155.269 104.448V101.88H156.325V111H155.473L155.317 110.136H155.269C155.077 110.408 154.821 110.64 154.501 110.832C154.181 111.024 153.769 111.12 153.265 111.12ZM153.433 110.244C154.113 110.244 154.589 110.06 154.861 109.692C155.141 109.316 155.281 108.752 155.281 108V107.808C155.281 107.008 155.149 106.396 154.885 105.972C154.621 105.54 154.133 105.324 153.421 105.324C152.853 105.324 152.425 105.552 152.137 106.008C151.857 106.456 151.717 107.06 151.717 107.82C151.717 108.588 151.857 109.184 152.137 109.608C152.425 110.032 152.857 110.244 153.433 110.244ZM157.36 104.568H158.488L159.88 108.228C160 108.556 160.108 108.864 160.204 109.152C160.3 109.44 160.372 109.716 160.42 109.98H160.468C160.516 109.78 160.592 109.52 160.696 109.2C160.8 108.872 160.908 108.544 161.02 108.216L162.328 104.568H163.468L160.696 111.888C160.464 112.496 160.172 112.98 159.82 113.34C159.468 113.7 158.98 113.88 158.356 113.88C158.164 113.88 157.996 113.868 157.852 113.844C157.708 113.828 157.584 113.808 157.48 113.784V112.944C157.568 112.96 157.672 112.976 157.792 112.992C157.92 113.008 158.052 113.016 158.188 113.016C158.556 113.016 158.852 112.912 159.076 112.704C159.3 112.496 159.48 112.22 159.616 111.876L159.952 111.024L157.36 104.568Z" fill="black"/>
<path d="M176.012 109.362C175.912 109.362 175.812 109.312 175.762 109.262L170.113 103.662C169.962 103.512 169.962 103.262 170.113 103.112C170.263 102.963 170.512 102.963 170.662 103.112L176.012 108.462L181.312 103.112C181.462 102.963 181.713 102.963 181.863 103.112C182.012 103.262 182.012 103.512 181.863 103.662L176.262 109.262C176.162 109.312 176.112 109.362 176.012 109.362Z" fill="#2B6B2B"/>
<rect x="121.5" y="94.5" width="70" height="23" rx="3.5" stroke="#51A651"/>
</g>
<g filter="url(#filter0_d_8031_203931)">
<g clip-path="url(#clip1_8031_203931)">
<rect x="121" y="119" width="150" height="88" rx="4" fill="white"/>
<rect width="72" height="44" transform="translate(121 119)" fill="white"/>
<rect width="85" height="44" transform="translate(129 119.5)" fill="white"/>
<path d="M146.773 146.5H145.303L139.955 138.198H139.899C139.918 138.525 139.941 138.931 139.969 139.416C139.997 139.901 140.011 140.401 140.011 140.914V146.5H138.849V136.504H140.305L145.639 144.778H145.695C145.686 144.629 145.672 144.405 145.653 144.106C145.644 143.807 145.63 143.485 145.611 143.14C145.602 142.785 145.597 142.454 145.597 142.146V136.504H146.773V146.5ZM155.842 142.734C155.842 143.975 155.525 144.937 154.89 145.618C154.265 146.299 153.415 146.64 152.342 146.64C151.679 146.64 151.087 146.491 150.564 146.192C150.051 145.884 149.645 145.441 149.346 144.862C149.047 144.274 148.898 143.565 148.898 142.734C148.898 141.493 149.206 140.536 149.822 139.864C150.447 139.192 151.301 138.856 152.384 138.856C153.056 138.856 153.653 139.01 154.176 139.318C154.699 139.617 155.105 140.055 155.394 140.634C155.693 141.203 155.842 141.903 155.842 142.734ZM150.172 142.734C150.172 143.621 150.345 144.325 150.69 144.848C151.045 145.361 151.605 145.618 152.37 145.618C153.126 145.618 153.681 145.361 154.036 144.848C154.391 144.325 154.568 143.621 154.568 142.734C154.568 141.847 154.391 141.152 154.036 140.648C153.681 140.144 153.121 139.892 152.356 139.892C151.591 139.892 151.035 140.144 150.69 140.648C150.345 141.152 150.172 141.847 150.172 142.734ZM160.3 145.632C160.487 145.632 160.678 145.618 160.874 145.59C161.07 145.562 161.229 145.525 161.35 145.478V146.416C161.22 146.481 161.033 146.533 160.79 146.57C160.548 146.617 160.314 146.64 160.09 146.64C159.698 146.64 159.334 146.575 158.998 146.444C158.672 146.304 158.406 146.066 158.2 145.73C157.995 145.394 157.892 144.923 157.892 144.316V139.948H156.828V139.36L157.906 138.87L158.396 137.274H159.124V138.996H161.294V139.948H159.124V144.288C159.124 144.745 159.232 145.086 159.446 145.31C159.67 145.525 159.955 145.632 160.3 145.632ZM169.416 136.504C170.657 136.504 171.572 136.742 172.16 137.218C172.757 137.685 173.056 138.394 173.056 139.346C173.056 139.878 172.958 140.321 172.762 140.676C172.566 141.031 172.314 141.315 172.006 141.53C171.707 141.745 171.39 141.908 171.054 142.02L173.798 146.5H172.328L169.906 142.37H167.918V146.5H166.658V136.504H169.416ZM169.346 137.596H167.918V141.306H169.416C170.228 141.306 170.82 141.147 171.194 140.83C171.567 140.503 171.754 140.027 171.754 139.402C171.754 138.749 171.558 138.287 171.166 138.016C170.774 137.736 170.167 137.596 169.346 137.596ZM178.097 138.856C178.731 138.856 179.282 138.996 179.749 139.276C180.215 139.556 180.57 139.953 180.813 140.466C181.065 140.97 181.191 141.563 181.191 142.244V142.986H176.053C176.071 143.835 176.286 144.484 176.697 144.932C177.117 145.371 177.7 145.59 178.447 145.59C178.923 145.59 179.343 145.548 179.707 145.464C180.08 145.371 180.463 145.24 180.855 145.072V146.15C180.472 146.318 180.094 146.439 179.721 146.514C179.347 146.598 178.904 146.64 178.391 146.64C177.672 146.64 177.042 146.495 176.501 146.206C175.959 145.917 175.535 145.487 175.227 144.918C174.928 144.349 174.779 143.644 174.779 142.804C174.779 141.983 174.914 141.278 175.185 140.69C175.465 140.102 175.852 139.649 176.347 139.332C176.851 139.015 177.434 138.856 178.097 138.856ZM178.083 139.864C177.495 139.864 177.028 140.055 176.683 140.438C176.347 140.811 176.146 141.334 176.081 142.006H179.903C179.893 141.371 179.744 140.858 179.455 140.466C179.165 140.065 178.708 139.864 178.083 139.864ZM185.943 138.87C186.858 138.87 187.534 139.071 187.973 139.472C188.412 139.873 188.631 140.513 188.631 141.39V146.5H187.735L187.497 145.436H187.441C187.114 145.847 186.769 146.15 186.405 146.346C186.041 146.542 185.546 146.64 184.921 146.64C184.24 146.64 183.675 146.463 183.227 146.108C182.779 145.744 182.555 145.179 182.555 144.414C182.555 143.667 182.849 143.093 183.437 142.692C184.025 142.281 184.93 142.057 186.153 142.02L187.427 141.978V141.53C187.427 140.905 187.292 140.471 187.021 140.228C186.75 139.985 186.368 139.864 185.873 139.864C185.481 139.864 185.108 139.925 184.753 140.046C184.398 140.158 184.067 140.289 183.759 140.438L183.381 139.514C183.708 139.337 184.095 139.187 184.543 139.066C184.991 138.935 185.458 138.87 185.943 138.87ZM187.413 142.832L186.307 142.874C185.374 142.911 184.725 143.061 184.361 143.322C184.006 143.583 183.829 143.952 183.829 144.428C183.829 144.848 183.955 145.156 184.207 145.352C184.468 145.548 184.8 145.646 185.201 145.646C185.826 145.646 186.349 145.473 186.769 145.128C187.198 144.773 187.413 144.232 187.413 143.504V142.832ZM193.609 146.64C192.675 146.64 191.929 146.318 191.369 145.674C190.809 145.021 190.529 144.05 190.529 142.762C190.529 141.474 190.809 140.503 191.369 139.85C191.938 139.187 192.689 138.856 193.623 138.856C194.201 138.856 194.673 138.963 195.037 139.178C195.41 139.393 195.713 139.654 195.947 139.962H196.031C196.012 139.841 195.993 139.663 195.975 139.43C195.956 139.187 195.947 138.996 195.947 138.856V135.86H197.179V146.5H196.185L196.003 145.492H195.947C195.723 145.809 195.424 146.08 195.051 146.304C194.677 146.528 194.197 146.64 193.609 146.64ZM193.805 145.618C194.598 145.618 195.153 145.403 195.471 144.974C195.797 144.535 195.961 143.877 195.961 143V142.776C195.961 141.843 195.807 141.129 195.499 140.634C195.191 140.13 194.621 139.878 193.791 139.878C193.128 139.878 192.629 140.144 192.293 140.676C191.966 141.199 191.803 141.903 191.803 142.79C191.803 143.686 191.966 144.381 192.293 144.876C192.629 145.371 193.133 145.618 193.805 145.618ZM198.386 138.996H199.702L201.326 143.266C201.466 143.649 201.592 144.008 201.704 144.344C201.816 144.68 201.9 145.002 201.956 145.31H202.012C202.068 145.077 202.157 144.773 202.278 144.4C202.399 144.017 202.525 143.635 202.656 143.252L204.182 138.996H205.512L202.278 147.536C202.007 148.245 201.667 148.81 201.256 149.23C200.845 149.65 200.276 149.86 199.548 149.86C199.324 149.86 199.128 149.846 198.96 149.818C198.792 149.799 198.647 149.776 198.526 149.748V148.768C198.629 148.787 198.75 148.805 198.89 148.824C199.039 148.843 199.193 148.852 199.352 148.852C199.781 148.852 200.127 148.731 200.388 148.488C200.649 148.245 200.859 147.923 201.018 147.522L201.41 146.528L198.386 138.996Z" fill="black"/>
<rect width="72" height="44" transform="translate(121 163)" fill="white"/>
<rect width="93" height="44" transform="translate(129 163.5)" fill="white"/>
<path d="M139.816 190.5H138.556V180.504H144.142V181.61H139.816V185.152H143.876V186.258H139.816V190.5ZM146.278 180.182C146.465 180.182 146.628 180.247 146.768 180.378C146.917 180.499 146.992 180.695 146.992 180.966C146.992 181.237 146.917 181.437 146.768 181.568C146.628 181.689 146.465 181.75 146.278 181.75C146.073 181.75 145.9 181.689 145.76 181.568C145.62 181.437 145.55 181.237 145.55 180.966C145.55 180.695 145.62 180.499 145.76 180.378C145.9 180.247 146.073 180.182 146.278 180.182ZM146.88 182.996V190.5H145.648V182.996H146.88ZM152.869 182.856C153.765 182.856 154.442 183.075 154.899 183.514C155.357 183.953 155.585 184.653 155.585 185.614V190.5H154.367V185.698C154.367 184.494 153.807 183.892 152.687 183.892C151.857 183.892 151.283 184.125 150.965 184.592C150.648 185.059 150.489 185.731 150.489 186.608V190.5H149.257V182.996H150.251L150.433 184.018H150.503C150.746 183.626 151.082 183.337 151.511 183.15C151.941 182.954 152.393 182.856 152.869 182.856ZM158.542 180.182C158.728 180.182 158.892 180.247 159.032 180.378C159.181 180.499 159.256 180.695 159.256 180.966C159.256 181.237 159.181 181.437 159.032 181.568C158.892 181.689 158.728 181.75 158.542 181.75C158.336 181.75 158.164 181.689 158.024 181.568C157.884 181.437 157.814 181.237 157.814 180.966C157.814 180.695 157.884 180.499 158.024 180.378C158.164 180.247 158.336 180.182 158.542 180.182ZM159.144 182.996V190.5H157.912V182.996H159.144ZM166.407 188.428C166.407 189.156 166.136 189.707 165.595 190.08C165.054 190.453 164.326 190.64 163.411 190.64C162.888 190.64 162.436 190.598 162.053 190.514C161.68 190.43 161.348 190.313 161.059 190.164V189.044C161.358 189.193 161.717 189.333 162.137 189.464C162.566 189.585 163 189.646 163.439 189.646C164.064 189.646 164.517 189.548 164.797 189.352C165.077 189.147 165.217 188.876 165.217 188.54C165.217 188.353 165.166 188.185 165.063 188.036C164.96 187.887 164.774 187.737 164.503 187.588C164.242 187.439 163.864 187.271 163.369 187.084C162.884 186.897 162.468 186.711 162.123 186.524C161.778 186.337 161.512 186.113 161.325 185.852C161.138 185.591 161.045 185.255 161.045 184.844C161.045 184.209 161.302 183.719 161.815 183.374C162.338 183.029 163.019 182.856 163.859 182.856C164.316 182.856 164.741 182.903 165.133 182.996C165.534 183.089 165.908 183.211 166.253 183.36L165.833 184.34C165.516 184.209 165.184 184.097 164.839 184.004C164.494 183.911 164.139 183.864 163.775 183.864C163.271 183.864 162.884 183.948 162.613 184.116C162.352 184.275 162.221 184.494 162.221 184.774C162.221 184.989 162.282 185.166 162.403 185.306C162.524 185.446 162.725 185.586 163.005 185.726C163.294 185.866 163.677 186.025 164.153 186.202C164.629 186.379 165.035 186.561 165.371 186.748C165.707 186.935 165.964 187.163 166.141 187.434C166.318 187.695 166.407 188.027 166.407 188.428ZM169.452 179.86V182.982C169.452 183.355 169.429 183.705 169.382 184.032H169.466C169.709 183.649 170.036 183.36 170.446 183.164C170.866 182.968 171.319 182.87 171.804 182.87C172.71 182.87 173.391 183.089 173.848 183.528C174.315 183.957 174.548 184.653 174.548 185.614V190.5H173.33V185.698C173.33 184.494 172.77 183.892 171.65 183.892C170.81 183.892 170.232 184.13 169.914 184.606C169.606 185.073 169.452 185.745 169.452 186.622V190.5H168.22V179.86H169.452ZM192.159 180.504L189.499 190.5H188.225L186.279 183.948C186.195 183.687 186.116 183.421 186.041 183.15C185.976 182.87 185.915 182.627 185.859 182.422C185.813 182.207 185.785 182.058 185.775 181.974C185.766 182.095 185.715 182.357 185.621 182.758C185.528 183.15 185.421 183.561 185.299 183.99L183.409 190.5H182.135L179.489 180.504H180.805L182.359 186.608C182.471 187.037 182.565 187.453 182.639 187.854C182.723 188.255 182.789 188.633 182.835 188.988C182.882 188.624 182.952 188.227 183.045 187.798C183.139 187.369 183.246 186.949 183.367 186.538L185.131 180.504H186.433L188.267 186.58C188.398 187.009 188.51 187.439 188.603 187.868C188.697 188.297 188.767 188.671 188.813 188.988C188.851 188.643 188.911 188.269 188.995 187.868C189.089 187.457 189.191 187.033 189.303 186.594L190.843 180.504H192.159ZM199.777 186.734C199.777 187.975 199.46 188.937 198.825 189.618C198.2 190.299 197.351 190.64 196.277 190.64C195.615 190.64 195.022 190.491 194.499 190.192C193.986 189.884 193.58 189.441 193.281 188.862C192.983 188.274 192.833 187.565 192.833 186.734C192.833 185.493 193.141 184.536 193.757 183.864C194.383 183.192 195.237 182.856 196.319 182.856C196.991 182.856 197.589 183.01 198.111 183.318C198.634 183.617 199.04 184.055 199.329 184.634C199.628 185.203 199.777 185.903 199.777 186.734ZM194.107 186.734C194.107 187.621 194.28 188.325 194.625 188.848C194.98 189.361 195.54 189.618 196.305 189.618C197.061 189.618 197.617 189.361 197.971 188.848C198.326 188.325 198.503 187.621 198.503 186.734C198.503 185.847 198.326 185.152 197.971 184.648C197.617 184.144 197.057 183.892 196.291 183.892C195.526 183.892 194.971 184.144 194.625 184.648C194.28 185.152 194.107 185.847 194.107 186.734ZM205.23 182.856C205.37 182.856 205.519 182.865 205.678 182.884C205.837 182.893 205.981 182.912 206.112 182.94L205.958 184.074C205.837 184.046 205.701 184.023 205.552 184.004C205.403 183.985 205.267 183.976 205.146 183.976C204.763 183.976 204.404 184.083 204.068 184.298C203.732 184.503 203.461 184.797 203.256 185.18C203.06 185.553 202.962 185.992 202.962 186.496V190.5H201.73V182.996H202.738L202.878 184.368H202.934C203.167 183.957 203.475 183.603 203.858 183.304C204.25 183.005 204.707 182.856 205.23 182.856ZM208.731 179.86V185.418C208.731 185.567 208.722 185.763 208.703 186.006C208.694 186.249 208.685 186.459 208.675 186.636H208.731C208.787 186.561 208.871 186.454 208.983 186.314C209.095 186.174 209.207 186.034 209.319 185.894C209.441 185.745 209.543 185.623 209.627 185.53L212.021 182.996H213.463L210.425 186.202L213.673 190.5H212.189L209.585 187L208.731 187.742V190.5H207.513V179.86H208.731Z" fill="black"/>
</g>
<rect x="120.5" y="118.5" width="151" height="89" rx="4.5" stroke="black" stroke-opacity="0.15"/>
</g>
<defs>
<filter id="filter0_d_8031_203931" x="116" y="118" width="160" height="98" filterUnits="userSpaceOnUse" color-interpolation-filters="sRGB">
<feFlood flood-opacity="0" result="BackgroundImageFix"/>
<feColorMatrix in="SourceAlpha" type="matrix" values="0 0 0 0 0 0 0 0 0 0 0 0 0 0 0 0 0 0 127 0" result="hardAlpha"/>
<feOffset dy="4"/>
<feGaussianBlur stdDeviation="2"/>
<feColorMatrix type="matrix" values="0 0 0 0 0 0 0 0 0 0 0 0 0 0 0 0 0 0 0.25 0"/>
<feBlend mode="normal" in2="BackgroundImageFix" result="effect1_dropShadow_8031_203931"/>
<feBlend mode="normal" in="SourceGraphic" in2="effect1_dropShadow_8031_203931" result="shape"/>
</filter>
<clipPath id="clip0_8031_203931">
<rect width="202" height="44" fill="white" transform="translate(105 84)"/>
</clipPath>
<clipPath id="clip1_8031_203931">
<rect x="121" y="119" width="150" height="88" rx="4" fill="white"/>
</clipPath>
</defs>
</svg>
