<svg width="412" height="200" viewBox="0 0 412 200" fill="none" xmlns="http://www.w3.org/2000/svg">
<rect width="412" height="200" fill="white"/>
<rect x="113.5" y="52.5" width="185" height="23" rx="3.5" fill="#F7EDFC"/>
<path d="M129 60C125.2 60 122 63.05 122 64.2C122 65.35 125.2 68.4 129 68.4C132.8 68.4 136 65.35 136 64.2C136 63.05 132.8 60 129 60ZM129 67.65C125.4 67.65 122.75 64.75 122.75 64.2C122.75 63.65 125.4 60.75 129 60.75C132.45 60.75 135.25 63.5 135.25 64.2C135.25 64.9 132.45 67.65 129 67.65Z" fill="#8832B3"/>
<path d="M129 61.6C127.55 61.6 126.4 62.8 126.4 64.2C126.4 65.6 127.55 66.8 129 66.8C130.45 66.8 131.6 65.6 131.6 64.2C131.6 62.8 130.45 61.6 129 61.6ZM129 66.05C127.95 66.05 127.15 65.2 127.15 64.2C127.15 63.2 128 62.35 129 62.35C130 62.35 130.85 63.2 130.85 64.2C130.85 65.2 130.05 66.05 129 66.05Z" fill="#8832B3"/>
<path d="M149.64 64.704C149.64 65.592 149.488 66.368 149.184 67.032C148.888 67.688 148.444 68.2 147.852 68.568C147.268 68.936 146.548 69.12 145.692 69.12C144.804 69.12 144.064 68.936 143.472 68.568C142.888 68.2 142.452 67.684 142.164 67.02C141.876 66.356 141.732 65.58 141.732 64.692C141.732 63.82 141.876 63.056 142.164 62.4C142.452 61.736 142.888 61.22 143.472 60.852C144.064 60.484 144.808 60.3 145.704 60.3C146.56 60.3 147.28 60.484 147.864 60.852C148.448 61.212 148.888 61.724 149.184 62.388C149.488 63.044 149.64 63.816 149.64 64.704ZM142.872 64.704C142.872 65.784 143.1 66.636 143.556 67.26C144.012 67.876 144.724 68.184 145.692 68.184C146.66 68.184 147.368 67.876 147.816 67.26C148.272 66.636 148.5 65.784 148.5 64.704C148.5 63.624 148.276 62.78 147.828 62.172C147.38 61.556 146.672 61.248 145.704 61.248C144.728 61.248 144.012 61.556 143.556 62.172C143.1 62.78 142.872 63.624 142.872 64.704ZM152.451 59.88V62.1C152.451 62.372 152.443 62.628 152.427 62.868C152.419 63.1 152.407 63.284 152.391 63.42H152.451C152.635 63.148 152.887 62.92 153.207 62.736C153.527 62.552 153.939 62.46 154.443 62.46C155.243 62.46 155.883 62.74 156.363 63.3C156.851 63.852 157.095 64.68 157.095 65.784C157.095 66.888 156.851 67.72 156.363 68.28C155.875 68.84 155.235 69.12 154.443 69.12C153.939 69.12 153.527 69.028 153.207 68.844C152.887 68.66 152.635 68.44 152.451 68.184H152.367L152.151 69H151.395V59.88H152.451ZM154.263 63.336C153.575 63.336 153.099 63.532 152.835 63.924C152.579 64.316 152.451 64.924 152.451 65.748V65.796C152.451 66.588 152.579 67.196 152.835 67.62C153.099 68.036 153.583 68.244 154.287 68.244C154.863 68.244 155.291 68.032 155.571 67.608C155.859 67.184 156.003 66.572 156.003 65.772C156.003 64.148 155.423 63.336 154.263 63.336ZM162.966 67.224C162.966 67.848 162.734 68.32 162.27 68.64C161.806 68.96 161.182 69.12 160.398 69.12C159.95 69.12 159.562 69.084 159.234 69.012C158.914 68.94 158.63 68.84 158.382 68.712V67.752C158.638 67.88 158.946 68 159.306 68.112C159.674 68.216 160.046 68.268 160.422 68.268C160.958 68.268 161.346 68.184 161.586 68.016C161.826 67.84 161.946 67.608 161.946 67.32C161.946 67.16 161.902 67.016 161.814 66.888C161.726 66.76 161.566 66.632 161.334 66.504C161.11 66.376 160.786 66.232 160.362 66.072C159.946 65.912 159.59 65.752 159.294 65.592C158.998 65.432 158.77 65.24 158.61 65.016C158.45 64.792 158.37 64.504 158.37 64.152C158.37 63.608 158.59 63.188 159.03 62.892C159.478 62.596 160.062 62.448 160.782 62.448C161.174 62.448 161.538 62.488 161.874 62.568C162.218 62.648 162.538 62.752 162.834 62.88L162.474 63.72C162.202 63.608 161.918 63.512 161.622 63.432C161.326 63.352 161.022 63.312 160.71 63.312C160.278 63.312 159.946 63.384 159.714 63.528C159.49 63.664 159.378 63.852 159.378 64.092C159.378 64.276 159.43 64.428 159.534 64.548C159.638 64.668 159.81 64.788 160.05 64.908C160.298 65.028 160.626 65.164 161.034 65.316C161.442 65.468 161.79 65.624 162.078 65.784C162.366 65.944 162.586 66.14 162.738 66.372C162.89 66.596 162.966 66.88 162.966 67.224ZM167.004 62.448C167.548 62.448 168.02 62.568 168.42 62.808C168.82 63.048 169.124 63.388 169.332 63.828C169.548 64.26 169.656 64.768 169.656 65.352V65.988H165.252C165.268 66.716 165.452 67.272 165.804 67.656C166.164 68.032 166.664 68.22 167.304 68.22C167.712 68.22 168.072 68.184 168.384 68.112C168.704 68.032 169.032 67.92 169.368 67.776V68.7C169.04 68.844 168.716 68.948 168.396 69.012C168.076 69.084 167.696 69.12 167.256 69.12C166.64 69.12 166.1 68.996 165.636 68.748C165.172 68.5 164.808 68.132 164.544 67.644C164.288 67.156 164.16 66.552 164.16 65.832C164.16 65.128 164.276 64.524 164.508 64.02C164.748 63.516 165.08 63.128 165.504 62.856C165.936 62.584 166.436 62.448 167.004 62.448ZM166.992 63.312C166.488 63.312 166.088 63.476 165.792 63.804C165.504 64.124 165.332 64.572 165.276 65.148H168.552C168.544 64.604 168.416 64.164 168.168 63.828C167.92 63.484 167.528 63.312 166.992 63.312ZM174.293 62.448C174.413 62.448 174.541 62.456 174.677 62.472C174.813 62.48 174.937 62.496 175.049 62.52L174.917 63.492C174.813 63.468 174.697 63.448 174.569 63.432C174.441 63.416 174.325 63.408 174.221 63.408C173.893 63.408 173.585 63.5 173.297 63.684C173.009 63.86 172.777 64.112 172.601 64.44C172.433 64.76 172.349 65.136 172.349 65.568V69H171.293V62.568H172.157L172.277 63.744H172.325C172.525 63.392 172.789 63.088 173.117 62.832C173.453 62.576 173.845 62.448 174.293 62.448ZM177.666 69L175.23 62.568H176.358L177.726 66.36C177.79 66.536 177.858 66.732 177.93 66.948C178.002 67.164 178.066 67.372 178.122 67.572C178.178 67.772 178.218 67.936 178.242 68.064H178.29C178.314 67.936 178.358 67.772 178.422 67.572C178.486 67.364 178.554 67.156 178.626 66.948C178.698 66.732 178.766 66.536 178.83 66.36L180.198 62.568H181.326L178.878 69H177.666ZM182.884 60.156C183.044 60.156 183.184 60.212 183.304 60.324C183.432 60.428 183.496 60.596 183.496 60.828C183.496 61.06 183.432 61.232 183.304 61.344C183.184 61.448 183.044 61.5 182.884 61.5C182.708 61.5 182.56 61.448 182.44 61.344C182.32 61.232 182.26 61.06 182.26 60.828C182.26 60.596 182.32 60.428 182.44 60.324C182.56 60.212 182.708 60.156 182.884 60.156ZM183.4 62.568V69H182.344V62.568H183.4ZM188.534 62.448C189.302 62.448 189.882 62.636 190.274 63.012C190.666 63.388 190.862 63.988 190.862 64.812V69H189.818V64.884C189.818 63.852 189.338 63.336 188.378 63.336C187.666 63.336 187.174 63.536 186.902 63.936C186.63 64.336 186.494 64.912 186.494 65.664V69H185.438V62.568H186.29L186.446 63.444H186.506C186.714 63.108 187.002 62.86 187.37 62.7C187.738 62.532 188.126 62.448 188.534 62.448ZM195.136 62.448C195.56 62.448 195.94 62.528 196.276 62.688C196.62 62.848 196.912 63.092 197.152 63.42H197.212L197.356 62.568H198.196V69.108C198.196 70.028 197.96 70.72 197.488 71.184C197.024 71.648 196.3 71.88 195.316 71.88C194.372 71.88 193.6 71.744 193 71.472V70.5C193.632 70.836 194.424 71.004 195.376 71.004C195.928 71.004 196.36 70.84 196.672 70.512C196.992 70.192 197.152 69.752 197.152 69.192V68.94C197.152 68.844 197.156 68.708 197.164 68.532C197.172 68.348 197.18 68.22 197.188 68.148H197.14C196.708 68.796 196.044 69.12 195.148 69.12C194.316 69.12 193.664 68.828 193.192 68.244C192.728 67.66 192.496 66.844 192.496 65.796C192.496 64.772 192.728 63.96 193.192 63.36C193.664 62.752 194.312 62.448 195.136 62.448ZM195.28 63.336C194.744 63.336 194.328 63.552 194.032 63.984C193.736 64.408 193.588 65.016 193.588 65.808C193.588 66.6 193.732 67.208 194.02 67.632C194.308 68.048 194.736 68.256 195.304 68.256C195.952 68.256 196.424 68.084 196.72 67.74C197.016 67.388 197.164 66.824 197.164 66.048V65.796C197.164 64.924 197.012 64.296 196.708 63.912C196.404 63.528 195.928 63.336 195.28 63.336ZM200.083 63.216C200.083 62.912 200.155 62.7 200.299 62.58C200.443 62.46 200.615 62.4 200.815 62.4C201.015 62.4 201.191 62.46 201.343 62.58C201.495 62.7 201.571 62.912 201.571 63.216C201.571 63.504 201.495 63.712 201.343 63.84C201.191 63.968 201.015 64.032 200.815 64.032C200.615 64.032 200.443 63.968 200.299 63.84C200.155 63.712 200.083 63.504 200.083 63.216ZM200.083 68.352C200.083 68.056 200.155 67.848 200.299 67.728C200.443 67.608 200.615 67.548 200.815 67.548C201.015 67.548 201.191 67.608 201.343 67.728C201.495 67.848 201.571 68.056 201.571 68.352C201.571 68.64 201.495 68.848 201.343 68.976C201.191 69.104 201.015 69.168 200.815 69.168C200.615 69.168 200.443 69.104 200.299 68.976C200.155 68.848 200.083 68.64 200.083 68.352ZM212.087 69L211.055 66.348H207.659L206.639 69H205.547L208.895 60.396H209.867L213.203 69H212.087ZM210.731 65.388L209.771 62.796C209.747 62.732 209.707 62.616 209.651 62.448C209.595 62.28 209.539 62.108 209.483 61.932C209.435 61.748 209.395 61.608 209.363 61.512C209.299 61.76 209.231 62.004 209.159 62.244C209.095 62.476 209.039 62.66 208.991 62.796L208.019 65.388H210.731ZM218.419 67.224C218.419 67.848 218.187 68.32 217.723 68.64C217.259 68.96 216.635 69.12 215.851 69.12C215.403 69.12 215.015 69.084 214.687 69.012C214.367 68.94 214.083 68.84 213.835 68.712V67.752C214.091 67.88 214.399 68 214.759 68.112C215.127 68.216 215.499 68.268 215.875 68.268C216.411 68.268 216.799 68.184 217.039 68.016C217.279 67.84 217.399 67.608 217.399 67.32C217.399 67.16 217.355 67.016 217.267 66.888C217.179 66.76 217.019 66.632 216.787 66.504C216.563 66.376 216.239 66.232 215.815 66.072C215.399 65.912 215.043 65.752 214.747 65.592C214.451 65.432 214.223 65.24 214.063 65.016C213.903 64.792 213.823 64.504 213.823 64.152C213.823 63.608 214.043 63.188 214.483 62.892C214.931 62.596 215.515 62.448 216.235 62.448C216.627 62.448 216.991 62.488 217.327 62.568C217.671 62.648 217.991 62.752 218.287 62.88L217.927 63.72C217.655 63.608 217.371 63.512 217.075 63.432C216.779 63.352 216.475 63.312 216.163 63.312C215.731 63.312 215.399 63.384 215.167 63.528C214.943 63.664 214.831 63.852 214.831 64.092C214.831 64.276 214.883 64.428 214.987 64.548C215.091 64.668 215.263 64.788 215.503 64.908C215.751 65.028 216.079 65.164 216.487 65.316C216.895 65.468 217.243 65.624 217.531 65.784C217.819 65.944 218.039 66.14 218.191 66.372C218.343 66.596 218.419 66.88 218.419 67.224ZM221.029 59.88V62.556C221.029 62.876 221.009 63.176 220.969 63.456H221.041C221.249 63.128 221.529 62.88 221.881 62.712C222.241 62.544 222.629 62.46 223.045 62.46C223.821 62.46 224.405 62.648 224.797 63.024C225.197 63.392 225.397 63.988 225.397 64.812V69H224.353V64.884C224.353 63.852 223.873 63.336 222.913 63.336C222.193 63.336 221.697 63.54 221.425 63.948C221.161 64.348 221.029 64.924 221.029 65.676V69H219.973V59.88H221.029ZM228.447 69H227.391V59.88H228.447V69ZM229.477 62.568H230.605L231.997 66.228C232.117 66.556 232.225 66.864 232.321 67.152C232.417 67.44 232.489 67.716 232.537 67.98H232.585C232.633 67.78 232.709 67.52 232.813 67.2C232.917 66.872 233.025 66.544 233.137 66.216L234.445 62.568H235.585L232.813 69.888C232.581 70.496 232.289 70.98 231.937 71.34C231.585 71.7 231.097 71.88 230.473 71.88C230.281 71.88 230.113 71.868 229.969 71.844C229.825 71.828 229.701 71.808 229.597 71.784V70.944C229.685 70.96 229.789 70.976 229.909 70.992C230.037 71.008 230.169 71.016 230.305 71.016C230.673 71.016 230.969 70.912 231.193 70.704C231.417 70.496 231.597 70.22 231.733 69.876L232.069 69.024L229.477 62.568ZM239.698 62.448C240.466 62.448 241.046 62.636 241.438 63.012C241.83 63.388 242.026 63.988 242.026 64.812V69H240.982V64.884C240.982 63.852 240.502 63.336 239.542 63.336C238.83 63.336 238.338 63.536 238.066 63.936C237.794 64.336 237.658 64.912 237.658 65.664V69H236.602V62.568H237.454L237.61 63.444H237.67C237.878 63.108 238.166 62.86 238.534 62.7C238.902 62.532 239.29 62.448 239.698 62.448ZM247.116 62.448C247.884 62.448 248.464 62.636 248.856 63.012C249.248 63.388 249.444 63.988 249.444 64.812V69H248.4V64.884C248.4 63.852 247.92 63.336 246.96 63.336C246.248 63.336 245.756 63.536 245.484 63.936C245.212 64.336 245.076 64.912 245.076 65.664V69H244.02V62.568H244.872L245.028 63.444H245.088C245.296 63.108 245.584 62.86 245.952 62.7C246.32 62.532 246.708 62.448 247.116 62.448ZM256.967 60.432C258.087 60.432 258.903 60.652 259.415 61.092C259.927 61.532 260.183 62.152 260.183 62.952C260.183 63.424 260.075 63.868 259.859 64.284C259.651 64.692 259.295 65.024 258.791 65.28C258.295 65.536 257.619 65.664 256.763 65.664H255.779V69H254.699V60.432H256.967ZM256.871 61.356H255.779V64.74H256.643C257.459 64.74 258.067 64.608 258.467 64.344C258.867 64.08 259.067 63.632 259.067 63C259.067 62.448 258.887 62.036 258.527 61.764C258.175 61.492 257.623 61.356 256.871 61.356ZM262.877 59.88V62.556C262.877 62.876 262.857 63.176 262.817 63.456H262.889C263.097 63.128 263.377 62.88 263.729 62.712C264.089 62.544 264.477 62.46 264.893 62.46C265.669 62.46 266.253 62.648 266.645 63.024C267.045 63.392 267.245 63.988 267.245 64.812V69H266.201V64.884C266.201 63.852 265.721 63.336 264.761 63.336C264.041 63.336 263.545 63.54 263.273 63.948C263.009 64.348 262.877 64.924 262.877 65.676V69H261.821V59.88H262.877ZM269.779 60.156C269.939 60.156 270.079 60.212 270.199 60.324C270.327 60.428 270.391 60.596 270.391 60.828C270.391 61.06 270.327 61.232 270.199 61.344C270.079 61.448 269.939 61.5 269.779 61.5C269.603 61.5 269.455 61.448 269.335 61.344C269.215 61.232 269.155 61.06 269.155 60.828C269.155 60.596 269.215 60.428 269.335 60.324C269.455 60.212 269.603 60.156 269.779 60.156ZM270.295 62.568V69H269.239V62.568H270.295ZM273.389 69H272.333V59.88H273.389V69ZM275.966 60.156C276.126 60.156 276.266 60.212 276.386 60.324C276.514 60.428 276.578 60.596 276.578 60.828C276.578 61.06 276.514 61.232 276.386 61.344C276.266 61.448 276.126 61.5 275.966 61.5C275.79 61.5 275.642 61.448 275.522 61.344C275.402 61.232 275.342 61.06 275.342 60.828C275.342 60.596 275.402 60.428 275.522 60.324C275.642 60.212 275.79 60.156 275.966 60.156ZM276.482 62.568V69H275.426V62.568H276.482ZM281.58 62.448C282.372 62.448 283.008 62.724 283.488 63.276C283.976 63.828 284.22 64.66 284.22 65.772C284.22 66.868 283.976 67.7 283.488 68.268C283.008 68.836 282.368 69.12 281.568 69.12C281.072 69.12 280.66 69.028 280.332 68.844C280.012 68.66 279.76 68.44 279.576 68.184H279.504C279.512 68.32 279.524 68.492 279.54 68.7C279.564 68.908 279.576 69.088 279.576 69.24V71.88H278.52V62.568H279.384L279.528 63.444H279.576C279.768 63.164 280.02 62.928 280.332 62.736C280.644 62.544 281.06 62.448 281.58 62.448ZM281.388 63.336C280.732 63.336 280.268 63.52 279.996 63.888C279.724 64.256 279.584 64.816 279.576 65.568V65.772C279.576 66.564 279.704 67.176 279.96 67.608C280.224 68.032 280.708 68.244 281.412 68.244C281.796 68.244 282.116 68.14 282.372 67.932C282.628 67.716 282.816 67.42 282.936 67.044C283.064 66.668 283.128 66.24 283.128 65.76C283.128 65.024 282.984 64.436 282.696 63.996C282.416 63.556 281.98 63.336 281.388 63.336ZM290.091 67.224C290.091 67.848 289.859 68.32 289.395 68.64C288.931 68.96 288.307 69.12 287.523 69.12C287.075 69.12 286.687 69.084 286.359 69.012C286.039 68.94 285.755 68.84 285.507 68.712V67.752C285.763 67.88 286.071 68 286.431 68.112C286.799 68.216 287.171 68.268 287.547 68.268C288.083 68.268 288.471 68.184 288.711 68.016C288.951 67.84 289.071 67.608 289.071 67.32C289.071 67.16 289.027 67.016 288.939 66.888C288.851 66.76 288.691 66.632 288.459 66.504C288.235 66.376 287.911 66.232 287.487 66.072C287.071 65.912 286.715 65.752 286.419 65.592C286.123 65.432 285.895 65.24 285.735 65.016C285.575 64.792 285.495 64.504 285.495 64.152C285.495 63.608 285.715 63.188 286.155 62.892C286.603 62.596 287.187 62.448 287.907 62.448C288.299 62.448 288.663 62.488 288.999 62.568C289.343 62.648 289.663 62.752 289.959 62.88L289.599 63.72C289.327 63.608 289.043 63.512 288.747 63.432C288.451 63.352 288.147 63.312 287.835 63.312C287.403 63.312 287.071 63.384 286.839 63.528C286.615 63.664 286.503 63.852 286.503 64.092C286.503 64.276 286.555 64.428 286.659 64.548C286.763 64.668 286.935 64.788 287.175 64.908C287.423 65.028 287.751 65.164 288.159 65.316C288.567 65.468 288.915 65.624 289.203 65.784C289.491 65.944 289.711 66.14 289.863 66.372C290.015 66.596 290.091 66.88 290.091 67.224Z" fill="black"/>
<rect x="113.5" y="52.5" width="185" height="23" rx="3.5" stroke="#BF73E5"/>
<rect x="113.5" y="88.5" width="180" height="23" rx="3.5" fill="#F7EDFC"/>
<path fill-rule="evenodd" clip-rule="evenodd" d="M128.025 93.5C128.232 93.5 128.4 93.6679 128.4 93.875V96.625C128.4 96.8321 128.232 97 128.025 97C127.818 97 127.65 96.8321 127.65 96.625V93.875C127.65 93.6679 127.818 93.5 128.025 93.5ZM125.085 93.9273C125.277 93.8497 125.495 93.9425 125.573 94.1346L126.623 96.7346C126.7 96.9266 126.607 97.1452 126.415 97.2227C126.223 97.3003 126.005 97.2075 125.927 97.0154L124.877 94.4154C124.8 94.2234 124.893 94.0048 125.085 93.9273ZM130.912 93.9759C131.105 94.0515 131.2 94.2691 131.124 94.4619L130.124 97.0119C130.049 97.2047 129.831 97.2997 129.638 97.2241C129.445 97.1485 129.35 96.9309 129.426 96.7381L130.426 94.1881C130.501 93.9953 130.719 93.9003 130.912 93.9759ZM122 102.325C122 99.971 123.915 98 126.325 98H135.625C135.832 98 136 98.1679 136 98.375V101.275C136 101.446 135.885 101.595 135.72 101.638L130.615 102.974C130.282 105.083 128.481 106.65 126.325 106.65C123.971 106.65 122 104.735 122 102.325ZM126.325 98.75C124.335 98.75 122.75 100.379 122.75 102.325C122.75 104.315 124.379 105.9 126.325 105.9C128.18 105.9 129.72 104.498 129.902 102.639C129.917 102.482 130.028 102.352 130.18 102.312L135.25 100.986V98.75H126.325ZM126.325 100.75C125.455 100.75 124.75 101.455 124.75 102.325C124.75 103.195 125.455 103.9 126.325 103.9C127.195 103.9 127.9 103.195 127.9 102.325C127.9 101.455 127.195 100.75 126.325 100.75ZM124 102.325C124 101.041 125.041 100 126.325 100C127.609 100 128.65 101.041 128.65 102.325C128.65 103.609 127.609 104.65 126.325 104.65C125.041 104.65 124 103.609 124 102.325Z" fill="#8832B3"/>
<path d="M145.836 97.26C144.916 97.26 144.192 97.568 143.664 98.184C143.136 98.8 142.872 99.644 142.872 100.716C142.872 101.78 143.116 102.624 143.604 103.248C144.1 103.864 144.84 104.172 145.824 104.172C146.192 104.172 146.544 104.14 146.88 104.076C147.216 104.012 147.548 103.932 147.876 103.836V104.772C147.556 104.892 147.224 104.98 146.88 105.036C146.544 105.092 146.14 105.12 145.668 105.12C144.796 105.12 144.068 104.94 143.484 104.58C142.9 104.22 142.46 103.708 142.164 103.044C141.876 102.38 141.732 101.6 141.732 100.704C141.732 99.84 141.888 99.08 142.2 98.424C142.52 97.76 142.988 97.244 143.604 96.876C144.22 96.5 144.968 96.312 145.848 96.312C146.752 96.312 147.54 96.48 148.212 96.816L147.78 97.728C147.516 97.608 147.22 97.5 146.892 97.404C146.572 97.308 146.22 97.26 145.836 97.26ZM155.194 101.772C155.194 102.836 154.922 103.66 154.378 104.244C153.842 104.828 153.114 105.12 152.194 105.12C151.626 105.12 151.118 104.992 150.67 104.736C150.23 104.472 149.882 104.092 149.626 103.596C149.37 103.092 149.242 102.484 149.242 101.772C149.242 100.708 149.506 99.888 150.034 99.312C150.57 98.736 151.302 98.448 152.23 98.448C152.806 98.448 153.318 98.58 153.766 98.844C154.214 99.1 154.562 99.476 154.81 99.972C155.066 100.46 155.194 101.06 155.194 101.772ZM150.334 101.772C150.334 102.532 150.482 103.136 150.778 103.584C151.082 104.024 151.562 104.244 152.218 104.244C152.866 104.244 153.342 104.024 153.646 103.584C153.95 103.136 154.102 102.532 154.102 101.772C154.102 101.012 153.95 100.416 153.646 99.984C153.342 99.552 152.862 99.336 152.206 99.336C151.55 99.336 151.074 99.552 150.778 99.984C150.482 100.416 150.334 101.012 150.334 101.772ZM159.304 98.46C160.088 98.46 160.668 98.632 161.044 98.976C161.42 99.32 161.608 99.868 161.608 100.62V105H160.84L160.636 104.088H160.588C160.308 104.44 160.012 104.7 159.7 104.868C159.388 105.036 158.964 105.12 158.428 105.12C157.844 105.12 157.36 104.968 156.976 104.664C156.592 104.352 156.4 103.868 156.4 103.212C156.4 102.572 156.652 102.08 157.156 101.736C157.66 101.384 158.436 101.192 159.484 101.16L160.576 101.124V100.74C160.576 100.204 160.46 99.832 160.228 99.624C159.996 99.416 159.668 99.312 159.244 99.312C158.908 99.312 158.588 99.364 158.284 99.468C157.98 99.564 157.696 99.676 157.432 99.804L157.108 99.012C157.388 98.86 157.72 98.732 158.104 98.628C158.488 98.516 158.888 98.46 159.304 98.46ZM160.564 101.856L159.616 101.892C158.816 101.924 158.26 102.052 157.948 102.276C157.644 102.5 157.492 102.816 157.492 103.224C157.492 103.584 157.6 103.848 157.816 104.016C158.04 104.184 158.324 104.268 158.668 104.268C159.204 104.268 159.652 104.12 160.012 103.824C160.38 103.52 160.564 103.056 160.564 102.432V101.856ZM166.174 105.12C165.598 105.12 165.09 105.004 164.65 104.772C164.21 104.54 163.862 104.18 163.606 103.692C163.358 103.204 163.234 102.58 163.234 101.82C163.234 101.028 163.362 100.384 163.618 99.888C163.882 99.392 164.242 99.028 164.698 98.796C165.154 98.564 165.67 98.448 166.246 98.448C166.566 98.448 166.878 98.484 167.182 98.556C167.494 98.62 167.746 98.7 167.938 98.796L167.614 99.672C167.422 99.6 167.198 99.532 166.942 99.468C166.686 99.404 166.446 99.372 166.222 99.372C164.958 99.372 164.326 100.184 164.326 101.808C164.326 102.584 164.478 103.18 164.782 103.596C165.094 104.004 165.554 104.208 166.162 104.208C166.506 104.208 166.814 104.172 167.086 104.1C167.358 104.028 167.606 103.94 167.83 103.836V104.772C167.614 104.884 167.374 104.968 167.11 105.024C166.854 105.088 166.542 105.12 166.174 105.12ZM170.416 95.88V98.556C170.416 98.876 170.396 99.176 170.356 99.456H170.428C170.636 99.128 170.916 98.88 171.268 98.712C171.628 98.544 172.016 98.46 172.432 98.46C173.208 98.46 173.792 98.648 174.184 99.024C174.584 99.392 174.784 99.988 174.784 100.812V105H173.74V100.884C173.74 99.852 173.26 99.336 172.3 99.336C171.58 99.336 171.084 99.54 170.812 99.948C170.548 100.348 170.416 100.924 170.416 101.676V105H169.36V95.88H170.416ZM177.318 96.156C177.478 96.156 177.618 96.212 177.738 96.324C177.866 96.428 177.93 96.596 177.93 96.828C177.93 97.06 177.866 97.232 177.738 97.344C177.618 97.448 177.478 97.5 177.318 97.5C177.142 97.5 176.994 97.448 176.874 97.344C176.754 97.232 176.694 97.06 176.694 96.828C176.694 96.596 176.754 96.428 176.874 96.324C176.994 96.212 177.142 96.156 177.318 96.156ZM177.834 98.568V105H176.778V98.568H177.834ZM182.968 98.448C183.736 98.448 184.316 98.636 184.708 99.012C185.1 99.388 185.296 99.988 185.296 100.812V105H184.252V100.884C184.252 99.852 183.772 99.336 182.812 99.336C182.1 99.336 181.608 99.536 181.336 99.936C181.064 100.336 180.928 100.912 180.928 101.664V105H179.872V98.568H180.724L180.88 99.444H180.94C181.148 99.108 181.436 98.86 181.804 98.7C182.172 98.532 182.56 98.448 182.968 98.448ZM189.57 98.448C189.994 98.448 190.374 98.528 190.71 98.688C191.054 98.848 191.346 99.092 191.586 99.42H191.646L191.79 98.568H192.63V105.108C192.63 106.028 192.394 106.72 191.922 107.184C191.458 107.648 190.734 107.88 189.75 107.88C188.806 107.88 188.034 107.744 187.434 107.472V106.5C188.066 106.836 188.858 107.004 189.81 107.004C190.362 107.004 190.794 106.84 191.106 106.512C191.426 106.192 191.586 105.752 191.586 105.192V104.94C191.586 104.844 191.59 104.708 191.598 104.532C191.606 104.348 191.614 104.22 191.622 104.148H191.574C191.142 104.796 190.478 105.12 189.582 105.12C188.75 105.12 188.098 104.828 187.626 104.244C187.162 103.66 186.93 102.844 186.93 101.796C186.93 100.772 187.162 99.96 187.626 99.36C188.098 98.752 188.746 98.448 189.57 98.448ZM189.714 99.336C189.178 99.336 188.762 99.552 188.466 99.984C188.17 100.408 188.022 101.016 188.022 101.808C188.022 102.6 188.166 103.208 188.454 103.632C188.742 104.048 189.17 104.256 189.738 104.256C190.386 104.256 190.858 104.084 191.154 103.74C191.45 103.388 191.598 102.824 191.598 102.048V101.796C191.598 100.924 191.446 100.296 191.142 99.912C190.838 99.528 190.362 99.336 189.714 99.336ZM194.516 99.216C194.516 98.912 194.588 98.7 194.732 98.58C194.876 98.46 195.048 98.4 195.248 98.4C195.448 98.4 195.624 98.46 195.776 98.58C195.928 98.7 196.004 98.912 196.004 99.216C196.004 99.504 195.928 99.712 195.776 99.84C195.624 99.968 195.448 100.032 195.248 100.032C195.048 100.032 194.876 99.968 194.732 99.84C194.588 99.712 194.516 99.504 194.516 99.216ZM194.516 104.352C194.516 104.056 194.588 103.848 194.732 103.728C194.876 103.608 195.048 103.548 195.248 103.548C195.448 103.548 195.624 103.608 195.776 103.728C195.928 103.848 196.004 104.056 196.004 104.352C196.004 104.64 195.928 104.848 195.776 104.976C195.624 105.104 195.448 105.168 195.248 105.168C195.048 105.168 194.876 105.104 194.732 104.976C194.588 104.848 194.516 104.64 194.516 104.352ZM206.52 105L205.488 102.348H202.092L201.072 105H199.98L203.328 96.396H204.3L207.636 105H206.52ZM205.164 101.388L204.204 98.796C204.18 98.732 204.14 98.616 204.084 98.448C204.028 98.28 203.972 98.108 203.916 97.932C203.868 97.748 203.828 97.608 203.796 97.512C203.732 97.76 203.664 98.004 203.592 98.244C203.528 98.476 203.472 98.66 203.424 98.796L202.452 101.388H205.164ZM212.853 103.224C212.853 103.848 212.621 104.32 212.157 104.64C211.693 104.96 211.069 105.12 210.285 105.12C209.837 105.12 209.449 105.084 209.121 105.012C208.801 104.94 208.517 104.84 208.269 104.712V103.752C208.525 103.88 208.833 104 209.193 104.112C209.561 104.216 209.933 104.268 210.309 104.268C210.845 104.268 211.233 104.184 211.473 104.016C211.713 103.84 211.833 103.608 211.833 103.32C211.833 103.16 211.789 103.016 211.701 102.888C211.613 102.76 211.453 102.632 211.221 102.504C210.997 102.376 210.673 102.232 210.249 102.072C209.833 101.912 209.477 101.752 209.181 101.592C208.885 101.432 208.657 101.24 208.497 101.016C208.337 100.792 208.257 100.504 208.257 100.152C208.257 99.608 208.477 99.188 208.917 98.892C209.365 98.596 209.949 98.448 210.669 98.448C211.061 98.448 211.425 98.488 211.761 98.568C212.105 98.648 212.425 98.752 212.721 98.88L212.361 99.72C212.089 99.608 211.805 99.512 211.509 99.432C211.213 99.352 210.909 99.312 210.597 99.312C210.165 99.312 209.833 99.384 209.601 99.528C209.377 99.664 209.265 99.852 209.265 100.092C209.265 100.276 209.317 100.428 209.421 100.548C209.525 100.668 209.697 100.788 209.937 100.908C210.185 101.028 210.513 101.164 210.921 101.316C211.329 101.468 211.677 101.624 211.965 101.784C212.253 101.944 212.473 102.14 212.625 102.372C212.777 102.596 212.853 102.88 212.853 103.224ZM215.463 95.88V98.556C215.463 98.876 215.443 99.176 215.403 99.456H215.475C215.683 99.128 215.963 98.88 216.315 98.712C216.675 98.544 217.063 98.46 217.479 98.46C218.255 98.46 218.839 98.648 219.231 99.024C219.631 99.392 219.831 99.988 219.831 100.812V105H218.787V100.884C218.787 99.852 218.307 99.336 217.347 99.336C216.627 99.336 216.131 99.54 215.859 99.948C215.595 100.348 215.463 100.924 215.463 101.676V105H214.407V95.88H215.463ZM222.881 105H221.825V95.88H222.881V105ZM223.91 98.568H225.038L226.43 102.228C226.55 102.556 226.658 102.864 226.754 103.152C226.85 103.44 226.922 103.716 226.97 103.98H227.018C227.066 103.78 227.142 103.52 227.246 103.2C227.35 102.872 227.458 102.544 227.57 102.216L228.878 98.568H230.018L227.246 105.888C227.014 106.496 226.722 106.98 226.37 107.34C226.018 107.7 225.53 107.88 224.906 107.88C224.714 107.88 224.546 107.868 224.402 107.844C224.258 107.828 224.134 107.808 224.03 107.784V106.944C224.118 106.96 224.222 106.976 224.342 106.992C224.47 107.008 224.602 107.016 224.738 107.016C225.106 107.016 225.402 106.912 225.626 106.704C225.85 106.496 226.03 106.22 226.166 105.876L226.502 105.024L223.91 98.568ZM234.132 98.448C234.9 98.448 235.48 98.636 235.872 99.012C236.264 99.388 236.46 99.988 236.46 100.812V105H235.416V100.884C235.416 99.852 234.936 99.336 233.976 99.336C233.264 99.336 232.772 99.536 232.5 99.936C232.228 100.336 232.092 100.912 232.092 101.664V105H231.036V98.568H231.888L232.044 99.444H232.104C232.312 99.108 232.6 98.86 232.968 98.7C233.336 98.532 233.724 98.448 234.132 98.448ZM241.55 98.448C242.318 98.448 242.898 98.636 243.29 99.012C243.682 99.388 243.878 99.988 243.878 100.812V105H242.834V100.884C242.834 99.852 242.354 99.336 241.394 99.336C240.682 99.336 240.19 99.536 239.918 99.936C239.646 100.336 239.51 100.912 239.51 101.664V105H238.454V98.568H239.306L239.462 99.444H239.522C239.73 99.108 240.018 98.86 240.386 98.7C240.754 98.532 241.142 98.448 241.55 98.448ZM251.401 96.432C252.521 96.432 253.337 96.652 253.849 97.092C254.361 97.532 254.617 98.152 254.617 98.952C254.617 99.424 254.509 99.868 254.293 100.284C254.085 100.692 253.729 101.024 253.225 101.28C252.729 101.536 252.053 101.664 251.197 101.664H250.213V105H249.133V96.432H251.401ZM251.305 97.356H250.213V100.74H251.077C251.893 100.74 252.501 100.608 252.901 100.344C253.301 100.08 253.501 99.632 253.501 99C253.501 98.448 253.321 98.036 252.961 97.764C252.609 97.492 252.057 97.356 251.305 97.356ZM257.31 95.88V98.556C257.31 98.876 257.29 99.176 257.25 99.456H257.322C257.53 99.128 257.81 98.88 258.162 98.712C258.522 98.544 258.91 98.46 259.326 98.46C260.102 98.46 260.686 98.648 261.078 99.024C261.478 99.392 261.678 99.988 261.678 100.812V105H260.634V100.884C260.634 99.852 260.154 99.336 259.194 99.336C258.474 99.336 257.978 99.54 257.706 99.948C257.442 100.348 257.31 100.924 257.31 101.676V105H256.254V95.88H257.31ZM264.212 96.156C264.372 96.156 264.512 96.212 264.632 96.324C264.76 96.428 264.824 96.596 264.824 96.828C264.824 97.06 264.76 97.232 264.632 97.344C264.512 97.448 264.372 97.5 264.212 97.5C264.036 97.5 263.888 97.448 263.768 97.344C263.648 97.232 263.588 97.06 263.588 96.828C263.588 96.596 263.648 96.428 263.768 96.324C263.888 96.212 264.036 96.156 264.212 96.156ZM264.728 98.568V105H263.672V98.568H264.728ZM267.822 105H266.766V95.88H267.822V105ZM270.4 96.156C270.56 96.156 270.7 96.212 270.82 96.324C270.948 96.428 271.012 96.596 271.012 96.828C271.012 97.06 270.948 97.232 270.82 97.344C270.7 97.448 270.56 97.5 270.4 97.5C270.224 97.5 270.076 97.448 269.956 97.344C269.836 97.232 269.776 97.06 269.776 96.828C269.776 96.596 269.836 96.428 269.956 96.324C270.076 96.212 270.224 96.156 270.4 96.156ZM270.916 98.568V105H269.86V98.568H270.916ZM276.014 98.448C276.806 98.448 277.442 98.724 277.922 99.276C278.41 99.828 278.654 100.66 278.654 101.772C278.654 102.868 278.41 103.7 277.922 104.268C277.442 104.836 276.802 105.12 276.002 105.12C275.506 105.12 275.094 105.028 274.766 104.844C274.446 104.66 274.194 104.44 274.01 104.184H273.938C273.946 104.32 273.958 104.492 273.974 104.7C273.998 104.908 274.01 105.088 274.01 105.24V107.88H272.954V98.568H273.818L273.962 99.444H274.01C274.202 99.164 274.454 98.928 274.766 98.736C275.078 98.544 275.494 98.448 276.014 98.448ZM275.822 99.336C275.166 99.336 274.702 99.52 274.43 99.888C274.158 100.256 274.018 100.816 274.01 101.568V101.772C274.01 102.564 274.138 103.176 274.394 103.608C274.658 104.032 275.142 104.244 275.846 104.244C276.23 104.244 276.55 104.14 276.806 103.932C277.062 103.716 277.25 103.42 277.37 103.044C277.498 102.668 277.562 102.24 277.562 101.76C277.562 101.024 277.418 100.436 277.13 99.996C276.85 99.556 276.414 99.336 275.822 99.336ZM284.524 103.224C284.524 103.848 284.292 104.32 283.828 104.64C283.364 104.96 282.74 105.12 281.956 105.12C281.508 105.12 281.12 105.084 280.792 105.012C280.472 104.94 280.188 104.84 279.94 104.712V103.752C280.196 103.88 280.504 104 280.864 104.112C281.232 104.216 281.604 104.268 281.98 104.268C282.516 104.268 282.904 104.184 283.144 104.016C283.384 103.84 283.504 103.608 283.504 103.32C283.504 103.16 283.46 103.016 283.372 102.888C283.284 102.76 283.124 102.632 282.892 102.504C282.668 102.376 282.344 102.232 281.92 102.072C281.504 101.912 281.148 101.752 280.852 101.592C280.556 101.432 280.328 101.24 280.168 101.016C280.008 100.792 279.928 100.504 279.928 100.152C279.928 99.608 280.148 99.188 280.588 98.892C281.036 98.596 281.62 98.448 282.34 98.448C282.732 98.448 283.096 98.488 283.432 98.568C283.776 98.648 284.096 98.752 284.392 98.88L284.032 99.72C283.76 99.608 283.476 99.512 283.18 99.432C282.884 99.352 282.58 99.312 282.268 99.312C281.836 99.312 281.504 99.384 281.272 99.528C281.048 99.664 280.936 99.852 280.936 100.092C280.936 100.276 280.988 100.428 281.092 100.548C281.196 100.668 281.368 100.788 281.608 100.908C281.856 101.028 282.184 101.164 282.592 101.316C283 101.468 283.348 101.624 283.636 101.784C283.924 101.944 284.144 102.14 284.296 102.372C284.448 102.596 284.524 102.88 284.524 103.224Z" fill="black"/>
<rect x="113.5" y="88.5" width="180" height="23" rx="3.5" stroke="#BF73E5"/>
<rect x="113.5" y="124.5" width="176" height="23" rx="3.5" fill="#F7EDFC"/>
<path fill-rule="evenodd" clip-rule="evenodd" d="M132.607 130.358C132.543 130.376 132.48 130.394 132.416 130.41L132.406 130.412C132.353 130.424 132.325 130.443 132.31 130.457C132.293 130.472 132.276 130.495 132.263 130.531C132.232 130.61 132.227 130.725 132.245 130.835C132.274 131.01 132.323 131.409 132.368 131.772C132.399 132.027 132.428 132.263 132.446 132.393L132.447 132.4C132.449 132.414 132.451 132.422 132.453 132.427C132.457 132.429 132.467 132.434 132.483 132.439C132.52 132.451 132.575 132.461 132.655 132.466C132.735 132.471 132.822 132.471 132.925 132.471C132.935 132.471 132.945 132.471 132.955 132.471C133.128 132.471 133.322 132.471 133.489 132.515C133.707 132.572 133.873 132.698 133.997 132.903C134.105 133.085 134.19 133.361 134.249 133.662C134.31 133.973 134.35 134.347 134.35 134.746C134.35 135.145 134.31 135.519 134.249 135.831C134.19 136.132 134.105 136.408 133.997 136.589C133.884 136.776 133.73 136.921 133.507 136.991C133.315 137.052 133.107 137.046 132.903 137.021C132.718 137.022 132.582 137.037 132.496 137.068C132.466 137.079 132.452 137.088 132.448 137.092C132.447 137.093 132.447 137.096 132.446 137.099C132.444 137.116 132.44 137.133 132.436 137.149C132.397 137.286 132.362 137.562 132.329 137.878C132.321 137.955 132.314 138.034 132.306 138.112C132.287 138.31 132.269 138.5 132.25 138.624C132.252 138.752 132.265 138.872 132.3 138.962C132.331 139.042 132.364 139.069 132.412 139.082C132.497 139.101 132.578 139.122 132.658 139.142C133.083 139.253 133.452 139.349 133.893 139.002C134.471 138.548 135.25 137.33 135.25 134.746C135.25 132.151 134.515 130.947 133.903 130.499C133.405 130.133 133.005 130.246 132.607 130.358ZM132.448 137.089C132.448 137.089 132.448 137.089 132.448 137.09L132.448 137.089ZM132.371 129.643C132.77 129.524 133.532 129.297 134.347 129.894C135.235 130.546 136 132.042 136 134.746C136 137.463 135.179 138.945 134.357 139.591C133.597 140.188 132.834 139.975 132.41 139.856C132.347 139.839 132.291 139.823 132.244 139.812L132.234 139.81C131.884 139.723 131.693 139.474 131.6 139.231C131.512 139.003 131.5 138.759 131.5 138.596C131.5 138.576 131.502 138.555 131.505 138.535C131.521 138.44 131.537 138.276 131.556 138.074C131.565 137.99 131.573 137.898 131.583 137.802C131.612 137.516 131.651 137.182 131.708 136.967C131.766 136.632 132.003 136.448 132.242 136.362C132.464 136.282 132.721 136.271 132.925 136.271C132.941 136.271 132.956 136.272 132.972 136.274C133.16 136.298 133.242 136.288 133.281 136.276C133.295 136.272 133.302 136.267 133.308 136.262C133.316 136.255 133.332 136.239 133.353 136.203C133.395 136.135 133.46 135.961 133.513 135.687C133.565 135.423 133.6 135.097 133.6 134.746C133.6 134.395 133.565 134.069 133.513 133.806C133.46 133.532 133.395 133.358 133.353 133.289C133.335 133.259 133.325 133.251 133.323 133.25C133.323 133.25 133.318 133.246 133.298 133.24C133.275 133.234 133.236 133.228 133.171 133.225C133.105 133.221 133.028 133.221 132.925 133.221C132.917 133.221 132.908 133.221 132.899 133.221C132.719 133.222 132.468 133.222 132.254 133.154C132.133 133.115 132.002 133.048 131.894 132.929C131.785 132.808 131.724 132.659 131.703 132.497C131.679 132.329 131.648 132.073 131.617 131.813C131.576 131.475 131.534 131.129 131.505 130.958C131.473 130.768 131.468 130.507 131.562 130.262C131.664 129.997 131.88 129.763 132.238 129.682C132.276 129.672 132.321 129.659 132.371 129.643Z" fill="#8832B3"/>
<path fill-rule="evenodd" clip-rule="evenodd" d="M125.534 129.634C125.6 129.653 125.657 129.669 125.706 129.68C126.052 129.757 126.277 129.967 126.386 130.238C126.484 130.483 126.475 130.748 126.446 130.949C126.431 131.057 126.416 131.212 126.398 131.393C126.389 131.492 126.378 131.599 126.367 131.71C126.338 131.991 126.3 132.31 126.243 132.523C126.219 132.675 126.159 132.815 126.056 132.929C125.948 133.048 125.817 133.115 125.696 133.154C125.482 133.222 125.231 133.222 125.051 133.221C125.042 133.221 125.033 133.221 125.025 133.221C124.922 133.221 124.845 133.221 124.779 133.225C124.714 133.228 124.675 133.234 124.652 133.24C124.632 133.245 124.627 133.249 124.627 133.25C124.625 133.251 124.615 133.259 124.597 133.289C124.555 133.358 124.49 133.532 124.437 133.806C124.385 134.069 124.35 134.395 124.35 134.746C124.35 135.097 124.385 135.423 124.437 135.687C124.49 135.961 124.555 136.135 124.597 136.203C124.618 136.239 124.634 136.255 124.642 136.262C124.648 136.267 124.655 136.272 124.669 136.276C124.708 136.288 124.79 136.298 124.978 136.274C124.994 136.272 125.009 136.271 125.025 136.271C125.229 136.271 125.486 136.282 125.708 136.362C125.947 136.448 126.183 136.632 126.242 136.966C126.297 137.164 126.359 137.482 126.408 137.78C126.457 138.084 126.5 138.412 126.5 138.596C126.5 138.759 126.488 139.003 126.4 139.231C126.307 139.474 126.116 139.723 125.766 139.81L125.756 139.812C125.709 139.823 125.653 139.839 125.59 139.856C125.166 139.975 124.403 140.188 123.643 139.591C122.821 138.945 122 137.463 122 134.746C122 132.03 122.821 130.548 123.643 129.902C124.398 129.308 125.12 129.515 125.534 129.634ZM125.277 130.346C124.871 130.237 124.542 130.149 124.107 130.491C123.529 130.945 122.75 132.163 122.75 134.746C122.75 137.33 123.529 138.548 124.107 139.002C124.548 139.349 124.917 139.253 125.342 139.142C125.422 139.122 125.503 139.101 125.588 139.082C125.636 139.069 125.669 139.042 125.7 138.962C125.737 138.865 125.75 138.734 125.75 138.596C125.75 138.481 125.718 138.209 125.667 137.901C125.618 137.597 125.558 137.303 125.514 137.149C125.51 137.133 125.506 137.116 125.504 137.099C125.503 137.096 125.503 137.093 125.502 137.092C125.498 137.088 125.484 137.079 125.454 137.068C125.368 137.037 125.232 137.022 125.047 137.021C124.843 137.046 124.635 137.052 124.443 136.991C124.22 136.921 124.066 136.776 123.953 136.589C123.845 136.408 123.76 136.132 123.701 135.831C123.64 135.519 123.6 135.145 123.6 134.746C123.6 134.347 123.64 133.973 123.701 133.662C123.76 133.361 123.845 133.085 123.953 132.903C124.077 132.698 124.243 132.572 124.461 132.515C124.628 132.471 124.822 132.471 124.995 132.471C125.005 132.471 125.015 132.471 125.025 132.471C125.128 132.471 125.215 132.471 125.295 132.466C125.375 132.461 125.43 132.451 125.467 132.439C125.483 132.434 125.493 132.429 125.497 132.427C125.499 132.422 125.501 132.414 125.503 132.4C125.505 132.381 125.509 132.362 125.514 132.343C125.554 132.206 125.589 131.94 125.621 131.633C125.63 131.539 125.64 131.442 125.649 131.347C125.668 131.153 125.686 130.967 125.704 130.843C125.725 130.695 125.716 130.584 125.689 130.517C125.678 130.488 125.664 130.471 125.65 130.458C125.635 130.445 125.605 130.426 125.544 130.412C125.45 130.392 125.362 130.368 125.277 130.346ZM125.501 132.424C125.501 132.424 125.501 132.424 125.501 132.424L125.501 132.424ZM125.502 137.089C125.502 137.089 125.502 137.089 125.502 137.09L125.502 137.089Z" fill="#8832B3"/>
<path fill-rule="evenodd" clip-rule="evenodd" d="M128.975 132.921C129.074 132.921 129.17 132.961 129.24 133.031L131.14 134.931C131.287 135.078 131.287 135.315 131.14 135.462C130.994 135.608 130.756 135.608 130.61 135.462L128.975 133.827L127.34 135.462C127.194 135.608 126.956 135.608 126.81 135.462C126.663 135.315 126.663 135.078 126.81 134.931L128.71 133.031C128.78 132.961 128.876 132.921 128.975 132.921Z" fill="#8832B3"/>
<path fill-rule="evenodd" clip-rule="evenodd" d="M128.975 132.921C129.182 132.921 129.35 133.089 129.35 133.296V141.746C129.35 141.953 129.182 142.121 128.975 142.121C128.768 142.121 128.6 141.953 128.6 141.746V133.296C128.6 133.089 128.768 132.921 128.975 132.921Z" fill="#8832B3"/>
<path d="M128.975 131.746C129.196 131.746 129.375 131.567 129.375 131.346C129.375 131.125 129.196 130.946 128.975 130.946C128.754 130.946 128.575 131.125 128.575 131.346C128.575 131.567 128.754 131.746 128.975 131.746Z" fill="#8832B3"/>
<path d="M130.325 131.746C130.546 131.746 130.725 131.567 130.725 131.346C130.725 131.125 130.546 130.946 130.325 130.946C130.104 130.946 129.925 131.125 129.925 131.346C129.925 131.567 130.104 131.746 130.325 131.746Z" fill="#8832B3"/>
<path d="M127.625 131.746C127.846 131.746 128.025 131.567 128.025 131.346C128.025 131.125 127.846 130.946 127.625 130.946C127.404 130.946 127.225 131.125 127.225 131.346C127.225 131.567 127.404 131.746 127.625 131.746Z" fill="#8832B3"/>
<path d="M142.164 132.432H144.612C145.676 132.432 146.484 132.592 147.036 132.912C147.588 133.232 147.864 133.78 147.864 134.556C147.864 135.06 147.724 135.48 147.444 135.816C147.164 136.144 146.76 136.356 146.232 136.452V136.512C146.592 136.576 146.916 136.684 147.204 136.836C147.5 136.988 147.732 137.204 147.9 137.484C148.068 137.764 148.152 138.124 148.152 138.564C148.152 139.34 147.884 139.94 147.348 140.364C146.82 140.788 146.096 141 145.176 141H142.164V132.432ZM143.244 136.08H144.828C145.556 136.08 146.056 135.964 146.328 135.732C146.608 135.492 146.748 135.14 146.748 134.676C146.748 134.204 146.58 133.868 146.244 133.668C145.916 133.46 145.388 133.356 144.66 133.356H143.244V136.08ZM143.244 136.98V140.088H144.972C145.732 140.088 146.26 139.94 146.556 139.644C146.852 139.348 147 138.96 147 138.48C147 138.032 146.844 137.672 146.532 137.4C146.228 137.12 145.68 136.98 144.888 136.98H143.244ZM152.261 134.46C153.045 134.46 153.625 134.632 154.001 134.976C154.377 135.32 154.565 135.868 154.565 136.62V141H153.797L153.593 140.088H153.545C153.265 140.44 152.969 140.7 152.657 140.868C152.345 141.036 151.921 141.12 151.385 141.12C150.801 141.12 150.317 140.968 149.933 140.664C149.549 140.352 149.357 139.868 149.357 139.212C149.357 138.572 149.609 138.08 150.113 137.736C150.617 137.384 151.393 137.192 152.441 137.16L153.533 137.124V136.74C153.533 136.204 153.417 135.832 153.185 135.624C152.953 135.416 152.625 135.312 152.201 135.312C151.865 135.312 151.545 135.364 151.241 135.468C150.937 135.564 150.653 135.676 150.389 135.804L150.065 135.012C150.345 134.86 150.677 134.732 151.061 134.628C151.445 134.516 151.845 134.46 152.261 134.46ZM153.521 137.856L152.573 137.892C151.773 137.924 151.217 138.052 150.905 138.276C150.601 138.5 150.449 138.816 150.449 139.224C150.449 139.584 150.557 139.848 150.773 140.016C150.997 140.184 151.281 140.268 151.625 140.268C152.161 140.268 152.609 140.12 152.969 139.824C153.337 139.52 153.521 139.056 153.521 138.432V137.856ZM159.551 134.448C159.671 134.448 159.799 134.456 159.935 134.472C160.071 134.48 160.195 134.496 160.307 134.52L160.175 135.492C160.071 135.468 159.955 135.448 159.827 135.432C159.699 135.416 159.583 135.408 159.479 135.408C159.151 135.408 158.843 135.5 158.555 135.684C158.267 135.86 158.035 136.112 157.859 136.44C157.691 136.76 157.607 137.136 157.607 137.568V141H156.551V134.568H157.415L157.535 135.744H157.583C157.783 135.392 158.047 135.088 158.375 134.832C158.711 134.576 159.103 134.448 159.551 134.448ZM163.671 134.448C164.095 134.448 164.475 134.528 164.811 134.688C165.155 134.848 165.447 135.092 165.687 135.42H165.747L165.891 134.568H166.731V141.108C166.731 142.028 166.495 142.72 166.023 143.184C165.559 143.648 164.835 143.88 163.851 143.88C162.907 143.88 162.135 143.744 161.535 143.472V142.5C162.167 142.836 162.959 143.004 163.911 143.004C164.463 143.004 164.895 142.84 165.207 142.512C165.527 142.192 165.687 141.752 165.687 141.192V140.94C165.687 140.844 165.691 140.708 165.699 140.532C165.707 140.348 165.715 140.22 165.723 140.148H165.675C165.243 140.796 164.579 141.12 163.683 141.12C162.851 141.12 162.199 140.828 161.727 140.244C161.263 139.66 161.031 138.844 161.031 137.796C161.031 136.772 161.263 135.96 161.727 135.36C162.199 134.752 162.847 134.448 163.671 134.448ZM163.815 135.336C163.279 135.336 162.863 135.552 162.567 135.984C162.271 136.408 162.123 137.016 162.123 137.808C162.123 138.6 162.267 139.208 162.555 139.632C162.843 140.048 163.271 140.256 163.839 140.256C164.487 140.256 164.959 140.084 165.255 139.74C165.551 139.388 165.699 138.824 165.699 138.048V137.796C165.699 136.924 165.547 136.296 165.243 135.912C164.939 135.528 164.463 135.336 163.815 135.336ZM171.258 134.448C171.802 134.448 172.274 134.568 172.674 134.808C173.074 135.048 173.378 135.388 173.586 135.828C173.802 136.26 173.91 136.768 173.91 137.352V137.988H169.506C169.522 138.716 169.706 139.272 170.058 139.656C170.418 140.032 170.918 140.22 171.558 140.22C171.966 140.22 172.326 140.184 172.638 140.112C172.958 140.032 173.286 139.92 173.622 139.776V140.7C173.294 140.844 172.97 140.948 172.65 141.012C172.33 141.084 171.95 141.12 171.51 141.12C170.894 141.12 170.354 140.996 169.89 140.748C169.426 140.5 169.062 140.132 168.798 139.644C168.542 139.156 168.414 138.552 168.414 137.832C168.414 137.128 168.53 136.524 168.762 136.02C169.002 135.516 169.334 135.128 169.758 134.856C170.19 134.584 170.69 134.448 171.258 134.448ZM171.246 135.312C170.742 135.312 170.342 135.476 170.046 135.804C169.758 136.124 169.586 136.572 169.53 137.148H172.806C172.798 136.604 172.67 136.164 172.422 135.828C172.174 135.484 171.782 135.312 171.246 135.312ZM175.007 138.252V137.316H177.911V138.252H175.007ZM181.971 141H178.875V140.376L179.883 140.148V133.296L178.875 133.056V132.432H181.971V133.056L180.963 133.296V140.148L181.971 140.376V141ZM186.577 134.448C187.345 134.448 187.925 134.636 188.317 135.012C188.709 135.388 188.905 135.988 188.905 136.812V141H187.861V136.884C187.861 135.852 187.381 135.336 186.421 135.336C185.709 135.336 185.217 135.536 184.945 135.936C184.673 136.336 184.537 136.912 184.537 137.664V141H183.481V134.568H184.333L184.489 135.444H184.549C184.757 135.108 185.045 134.86 185.413 134.7C185.781 134.532 186.169 134.448 186.577 134.448ZM190.743 135.216C190.743 134.912 190.815 134.7 190.959 134.58C191.103 134.46 191.275 134.4 191.475 134.4C191.675 134.4 191.851 134.46 192.003 134.58C192.155 134.7 192.231 134.912 192.231 135.216C192.231 135.504 192.155 135.712 192.003 135.84C191.851 135.968 191.675 136.032 191.475 136.032C191.275 136.032 191.103 135.968 190.959 135.84C190.815 135.712 190.743 135.504 190.743 135.216ZM190.743 140.352C190.743 140.056 190.815 139.848 190.959 139.728C191.103 139.608 191.275 139.548 191.475 139.548C191.675 139.548 191.851 139.608 192.003 139.728C192.155 139.848 192.231 140.056 192.231 140.352C192.231 140.64 192.155 140.848 192.003 140.976C191.851 141.104 191.675 141.168 191.475 141.168C191.275 141.168 191.103 141.104 190.959 140.976C190.815 140.848 190.743 140.64 190.743 140.352ZM202.747 141L201.715 138.348H198.319L197.299 141H196.207L199.555 132.396H200.527L203.863 141H202.747ZM201.391 137.388L200.431 134.796C200.407 134.732 200.367 134.616 200.311 134.448C200.255 134.28 200.199 134.108 200.143 133.932C200.095 133.748 200.055 133.608 200.023 133.512C199.959 133.76 199.891 134.004 199.819 134.244C199.755 134.476 199.699 134.66 199.651 134.796L198.679 137.388H201.391ZM209.079 139.224C209.079 139.848 208.847 140.32 208.383 140.64C207.919 140.96 207.295 141.12 206.511 141.12C206.063 141.12 205.675 141.084 205.347 141.012C205.027 140.94 204.743 140.84 204.495 140.712V139.752C204.751 139.88 205.059 140 205.419 140.112C205.787 140.216 206.159 140.268 206.535 140.268C207.071 140.268 207.459 140.184 207.699 140.016C207.939 139.84 208.059 139.608 208.059 139.32C208.059 139.16 208.015 139.016 207.927 138.888C207.839 138.76 207.679 138.632 207.447 138.504C207.223 138.376 206.899 138.232 206.475 138.072C206.059 137.912 205.703 137.752 205.407 137.592C205.111 137.432 204.883 137.24 204.723 137.016C204.563 136.792 204.483 136.504 204.483 136.152C204.483 135.608 204.703 135.188 205.143 134.892C205.591 134.596 206.175 134.448 206.895 134.448C207.287 134.448 207.651 134.488 207.987 134.568C208.331 134.648 208.651 134.752 208.947 134.88L208.587 135.72C208.315 135.608 208.031 135.512 207.735 135.432C207.439 135.352 207.135 135.312 206.823 135.312C206.391 135.312 206.059 135.384 205.827 135.528C205.603 135.664 205.491 135.852 205.491 136.092C205.491 136.276 205.543 136.428 205.647 136.548C205.751 136.668 205.923 136.788 206.163 136.908C206.411 137.028 206.739 137.164 207.147 137.316C207.555 137.468 207.903 137.624 208.191 137.784C208.479 137.944 208.699 138.14 208.851 138.372C209.003 138.596 209.079 138.88 209.079 139.224ZM211.689 131.88V134.556C211.689 134.876 211.669 135.176 211.629 135.456H211.701C211.909 135.128 212.189 134.88 212.541 134.712C212.901 134.544 213.289 134.46 213.705 134.46C214.481 134.46 215.065 134.648 215.457 135.024C215.857 135.392 216.057 135.988 216.057 136.812V141H215.013V136.884C215.013 135.852 214.533 135.336 213.573 135.336C212.853 135.336 212.357 135.54 212.085 135.948C211.821 136.348 211.689 136.924 211.689 137.676V141H210.633V131.88H211.689ZM219.107 141H218.051V131.88H219.107V141ZM220.137 134.568H221.265L222.657 138.228C222.777 138.556 222.885 138.864 222.981 139.152C223.077 139.44 223.149 139.716 223.197 139.98H223.245C223.293 139.78 223.369 139.52 223.473 139.2C223.577 138.872 223.685 138.544 223.797 138.216L225.105 134.568H226.245L223.473 141.888C223.241 142.496 222.949 142.98 222.597 143.34C222.245 143.7 221.757 143.88 221.133 143.88C220.941 143.88 220.773 143.868 220.629 143.844C220.485 143.828 220.361 143.808 220.257 143.784V142.944C220.345 142.96 220.449 142.976 220.569 142.992C220.697 143.008 220.829 143.016 220.965 143.016C221.333 143.016 221.629 142.912 221.853 142.704C222.077 142.496 222.257 142.22 222.393 141.876L222.729 141.024L220.137 134.568ZM230.358 134.448C231.126 134.448 231.706 134.636 232.098 135.012C232.49 135.388 232.686 135.988 232.686 136.812V141H231.642V136.884C231.642 135.852 231.162 135.336 230.202 135.336C229.49 135.336 228.998 135.536 228.726 135.936C228.454 136.336 228.318 136.912 228.318 137.664V141H227.262V134.568H228.114L228.27 135.444H228.33C228.538 135.108 228.826 134.86 229.194 134.7C229.562 134.532 229.95 134.448 230.358 134.448ZM237.776 134.448C238.544 134.448 239.124 134.636 239.516 135.012C239.908 135.388 240.104 135.988 240.104 136.812V141H239.06V136.884C239.06 135.852 238.58 135.336 237.62 135.336C236.908 135.336 236.416 135.536 236.144 135.936C235.872 136.336 235.736 136.912 235.736 137.664V141H234.68V134.568H235.532L235.688 135.444H235.748C235.956 135.108 236.244 134.86 236.612 134.7C236.98 134.532 237.368 134.448 237.776 134.448ZM247.627 132.432C248.747 132.432 249.563 132.652 250.075 133.092C250.587 133.532 250.843 134.152 250.843 134.952C250.843 135.424 250.735 135.868 250.519 136.284C250.311 136.692 249.955 137.024 249.451 137.28C248.955 137.536 248.279 137.664 247.423 137.664H246.439V141H245.359V132.432H247.627ZM247.531 133.356H246.439V136.74H247.303C248.119 136.74 248.727 136.608 249.127 136.344C249.527 136.08 249.727 135.632 249.727 135C249.727 134.448 249.547 134.036 249.187 133.764C248.835 133.492 248.283 133.356 247.531 133.356ZM253.537 131.88V134.556C253.537 134.876 253.517 135.176 253.477 135.456H253.549C253.757 135.128 254.037 134.88 254.389 134.712C254.749 134.544 255.137 134.46 255.553 134.46C256.329 134.46 256.913 134.648 257.305 135.024C257.705 135.392 257.905 135.988 257.905 136.812V141H256.861V136.884C256.861 135.852 256.381 135.336 255.421 135.336C254.701 135.336 254.205 135.54 253.933 135.948C253.669 136.348 253.537 136.924 253.537 137.676V141H252.481V131.88H253.537ZM260.439 132.156C260.599 132.156 260.739 132.212 260.859 132.324C260.987 132.428 261.051 132.596 261.051 132.828C261.051 133.06 260.987 133.232 260.859 133.344C260.739 133.448 260.599 133.5 260.439 133.5C260.263 133.5 260.115 133.448 259.995 133.344C259.875 133.232 259.815 133.06 259.815 132.828C259.815 132.596 259.875 132.428 259.995 132.324C260.115 132.212 260.263 132.156 260.439 132.156ZM260.955 134.568V141H259.899V134.568H260.955ZM264.049 141H262.993V131.88H264.049V141ZM266.626 132.156C266.786 132.156 266.926 132.212 267.046 132.324C267.174 132.428 267.238 132.596 267.238 132.828C267.238 133.06 267.174 133.232 267.046 133.344C266.926 133.448 266.786 133.5 266.626 133.5C266.45 133.5 266.302 133.448 266.182 133.344C266.062 133.232 266.002 133.06 266.002 132.828C266.002 132.596 266.062 132.428 266.182 132.324C266.302 132.212 266.45 132.156 266.626 132.156ZM267.142 134.568V141H266.086V134.568H267.142ZM272.24 134.448C273.032 134.448 273.668 134.724 274.148 135.276C274.636 135.828 274.88 136.66 274.88 137.772C274.88 138.868 274.636 139.7 274.148 140.268C273.668 140.836 273.028 141.12 272.228 141.12C271.732 141.12 271.32 141.028 270.992 140.844C270.672 140.66 270.42 140.44 270.236 140.184H270.164C270.172 140.32 270.184 140.492 270.2 140.7C270.224 140.908 270.236 141.088 270.236 141.24V143.88H269.18V134.568H270.044L270.188 135.444H270.236C270.428 135.164 270.68 134.928 270.992 134.736C271.304 134.544 271.72 134.448 272.24 134.448ZM272.048 135.336C271.392 135.336 270.928 135.52 270.656 135.888C270.384 136.256 270.244 136.816 270.236 137.568V137.772C270.236 138.564 270.364 139.176 270.62 139.608C270.884 140.032 271.368 140.244 272.072 140.244C272.456 140.244 272.776 140.14 273.032 139.932C273.288 139.716 273.476 139.42 273.596 139.044C273.724 138.668 273.788 138.24 273.788 137.76C273.788 137.024 273.644 136.436 273.356 135.996C273.076 135.556 272.64 135.336 272.048 135.336ZM280.751 139.224C280.751 139.848 280.519 140.32 280.055 140.64C279.591 140.96 278.967 141.12 278.183 141.12C277.735 141.12 277.347 141.084 277.019 141.012C276.699 140.94 276.415 140.84 276.167 140.712V139.752C276.423 139.88 276.731 140 277.091 140.112C277.459 140.216 277.831 140.268 278.207 140.268C278.743 140.268 279.131 140.184 279.371 140.016C279.611 139.84 279.731 139.608 279.731 139.32C279.731 139.16 279.687 139.016 279.599 138.888C279.511 138.76 279.351 138.632 279.119 138.504C278.895 138.376 278.571 138.232 278.147 138.072C277.731 137.912 277.375 137.752 277.079 137.592C276.783 137.432 276.555 137.24 276.395 137.016C276.235 136.792 276.155 136.504 276.155 136.152C276.155 135.608 276.375 135.188 276.815 134.892C277.263 134.596 277.847 134.448 278.567 134.448C278.959 134.448 279.323 134.488 279.659 134.568C280.003 134.648 280.323 134.752 280.619 134.88L280.259 135.72C279.987 135.608 279.703 135.512 279.407 135.432C279.111 135.352 278.807 135.312 278.495 135.312C278.063 135.312 277.731 135.384 277.499 135.528C277.275 135.664 277.163 135.852 277.163 136.092C277.163 136.276 277.215 136.428 277.319 136.548C277.423 136.668 277.595 136.788 277.835 136.908C278.083 137.028 278.411 137.164 278.819 137.316C279.227 137.468 279.575 137.624 279.863 137.784C280.151 137.944 280.371 138.14 280.523 138.372C280.675 138.596 280.751 138.88 280.751 139.224Z" fill="black"/>
<rect x="113.5" y="124.5" width="176" height="23" rx="3.5" stroke="#BF73E5"/>
</svg>
