<svg width="81" height="96" viewBox="0 0 81 96" fill="none" xmlns="http://www.w3.org/2000/svg">
<rect x="1" y="0.5" width="79" height="23" rx="3.5" fill="#F1F1F1"/>
<path fill-rule="evenodd" clip-rule="evenodd" d="M22.15 18.25H21.45V6.85C21.45 6.65 21.3 6.45 21.05 6.45H19.15V5.4C19.15 5.15 19 5 18.8 5H14.6C14.4 5 14.25 5.15 14.25 5.4V6.5H12.3C12.1 6.5 11.9 6.65 11.9 6.9V18.3H10.9C10.7 18.3 10.5 18.45 10.5 18.7C10.5 18.95 10.65 19 10.9 19H22.2C22.4 19 22.6 18.85 22.6 18.6C22.6 18.35 22.35 18.25 22.15 18.25ZM12.7 7.2H14.6C14.8 7.2 15 7.05 15 6.85V5.75H18.4V6.85C18.4 7.05 18.55 7.25 18.8 7.25H20.7V18.3H19.15V16.25C19.15 16.05 19 15.85 18.75 15.85H14.6C14.4 15.85 14.2 16 14.2 16.25V18.3H12.7V7.2ZM18.4 18.25H15V16.6H18.4V18.25Z" fill="#5E5E5E"/>
<path d="M15 10.9H13.85V12.05H15V10.9Z" fill="#5E5E5E"/>
<path d="M17.3 10.9H16.15V12.05H17.3V10.9Z" fill="#5E5E5E"/>
<path d="M19.55 10.9H18.4V12.05H19.55V10.9Z" fill="#5E5E5E"/>
<path d="M15 8.65H13.85V9.8H15V8.65Z" fill="#5E5E5E"/>
<path d="M17.3 8.65H16.15V9.8H17.3V8.65Z" fill="#5E5E5E"/>
<path d="M19.55 8.65H18.4V9.8H19.55V8.65Z" fill="#5E5E5E"/>
<path d="M15 13.15H13.85V14.3H15V13.15Z" fill="#5E5E5E"/>
<path d="M17.3 13.15H16.15V14.3H17.3V13.15Z" fill="#5E5E5E"/>
<path d="M19.55 13.15H18.4V14.3H19.55V13.15Z" fill="#5E5E5E"/>
<path d="M29.664 17V8.432H30.744V16.04H34.488V17H29.664ZM41.405 13.772C41.405 14.836 41.133 15.66 40.589 16.244C40.053 16.828 39.325 17.12 38.405 17.12C37.837 17.12 37.329 16.992 36.881 16.736C36.441 16.472 36.093 16.092 35.837 15.596C35.581 15.092 35.453 14.484 35.453 13.772C35.453 12.708 35.717 11.888 36.245 11.312C36.781 10.736 37.513 10.448 38.441 10.448C39.017 10.448 39.529 10.58 39.977 10.844C40.425 11.1 40.773 11.476 41.021 11.972C41.277 12.46 41.405 13.06 41.405 13.772ZM36.545 13.772C36.545 14.532 36.693 15.136 36.989 15.584C37.293 16.024 37.773 16.244 38.429 16.244C39.077 16.244 39.553 16.024 39.857 15.584C40.161 15.136 40.313 14.532 40.313 13.772C40.313 13.012 40.161 12.416 39.857 11.984C39.553 11.552 39.073 11.336 38.417 11.336C37.761 11.336 37.285 11.552 36.989 11.984C36.693 12.416 36.545 13.012 36.545 13.772ZM46.1746 10.448C46.9426 10.448 47.5226 10.636 47.9146 11.012C48.3066 11.388 48.5026 11.988 48.5026 12.812V17H47.4586V12.884C47.4586 11.852 46.9786 11.336 46.0186 11.336C45.3066 11.336 44.8146 11.536 44.5426 11.936C44.2706 12.336 44.1346 12.912 44.1346 13.664V17H43.0786V10.568H43.9306L44.0866 11.444H44.1466C44.3546 11.108 44.6426 10.86 45.0106 10.7C45.3786 10.532 45.7666 10.448 46.1746 10.448ZM52.7766 17.12C51.9766 17.12 51.3366 16.844 50.8566 16.292C50.3766 15.732 50.1366 14.9 50.1366 13.796C50.1366 12.692 50.3766 11.86 50.8566 11.3C51.3446 10.732 51.9886 10.448 52.7886 10.448C53.2846 10.448 53.6886 10.54 54.0006 10.724C54.3206 10.908 54.5806 11.132 54.7806 11.396H54.8526C54.8366 11.292 54.8206 11.14 54.8046 10.94C54.7886 10.732 54.7806 10.568 54.7806 10.448V7.88H55.8366V17H54.9846L54.8286 16.136H54.7806C54.5886 16.408 54.3326 16.64 54.0126 16.832C53.6926 17.024 53.2806 17.12 52.7766 17.12ZM52.9446 16.244C53.6246 16.244 54.1006 16.06 54.3726 15.692C54.6526 15.316 54.7926 14.752 54.7926 14V13.808C54.7926 13.008 54.6606 12.396 54.3966 11.972C54.1326 11.54 53.6446 11.324 52.9326 11.324C52.3646 11.324 51.9366 11.552 51.6486 12.008C51.3686 12.456 51.2286 13.06 51.2286 13.82C51.2286 14.588 51.3686 15.184 51.6486 15.608C51.9366 16.032 52.3686 16.244 52.9446 16.244ZM63.4714 13.772C63.4714 14.836 63.1994 15.66 62.6554 16.244C62.1194 16.828 61.3914 17.12 60.4714 17.12C59.9034 17.12 59.3954 16.992 58.9474 16.736C58.5074 16.472 58.1594 16.092 57.9034 15.596C57.6474 15.092 57.5194 14.484 57.5194 13.772C57.5194 12.708 57.7834 11.888 58.3114 11.312C58.8474 10.736 59.5794 10.448 60.5074 10.448C61.0834 10.448 61.5954 10.58 62.0434 10.844C62.4914 11.1 62.8394 11.476 63.0874 11.972C63.3434 12.46 63.4714 13.06 63.4714 13.772ZM58.6114 13.772C58.6114 14.532 58.7594 15.136 59.0554 15.584C59.3594 16.024 59.8394 16.244 60.4954 16.244C61.1434 16.244 61.6194 16.024 61.9234 15.584C62.2274 15.136 62.3794 14.532 62.3794 13.772C62.3794 13.012 62.2274 12.416 61.9234 11.984C61.6194 11.552 61.1394 11.336 60.4834 11.336C59.8274 11.336 59.3514 11.552 59.0554 11.984C58.7594 12.416 58.6114 13.012 58.6114 13.772ZM68.241 10.448C69.009 10.448 69.589 10.636 69.981 11.012C70.373 11.388 70.569 11.988 70.569 12.812V17H69.525V12.884C69.525 11.852 69.045 11.336 68.085 11.336C67.373 11.336 66.881 11.536 66.609 11.936C66.337 12.336 66.201 12.912 66.201 13.664V17H65.145V10.568H65.997L66.153 11.444H66.213C66.421 11.108 66.709 10.86 67.077 10.7C67.445 10.532 67.833 10.448 68.241 10.448Z" fill="black"/>
<rect x="1" y="0.5" width="79" height="23" rx="3.5" stroke="#939393"/>
<rect x="1" y="36.5" width="69" height="23" rx="3.5" fill="#F1F1F1"/>
<path fill-rule="evenodd" clip-rule="evenodd" d="M22.15 54.25H21.45V42.85C21.45 42.65 21.3 42.45 21.05 42.45H19.15V41.4C19.15 41.15 19 41 18.8 41H14.6C14.4 41 14.25 41.15 14.25 41.4V42.5H12.3C12.1 42.5 11.9 42.65 11.9 42.9V54.3H10.9C10.7 54.3 10.5 54.45 10.5 54.7C10.5 54.95 10.65 55 10.9 55H22.2C22.4 55 22.6 54.85 22.6 54.6C22.6 54.35 22.35 54.25 22.15 54.25ZM12.7 43.2H14.6C14.8 43.2 15 43.05 15 42.85V41.75H18.4V42.85C18.4 43.05 18.55 43.25 18.8 43.25H20.7V54.3H19.15V52.25C19.15 52.05 19 51.85 18.75 51.85H14.6C14.4 51.85 14.2 52 14.2 52.25V54.3H12.7V43.2ZM18.4 54.25H15V52.6H18.4V54.25Z" fill="#5E5E5E"/>
<path d="M15 46.9H13.85V48.05H15V46.9Z" fill="#5E5E5E"/>
<path d="M17.3 46.9H16.15V48.05H17.3V46.9Z" fill="#5E5E5E"/>
<path d="M19.55 46.9H18.4V48.05H19.55V46.9Z" fill="#5E5E5E"/>
<path d="M15 44.65H13.85V45.8H15V44.65Z" fill="#5E5E5E"/>
<path d="M17.3 44.65H16.15V45.8H17.3V44.65Z" fill="#5E5E5E"/>
<path d="M19.55 44.65H18.4V45.8H19.55V44.65Z" fill="#5E5E5E"/>
<path d="M15 49.15H13.85V50.3H15V49.15Z" fill="#5E5E5E"/>
<path d="M17.3 49.15H16.15V50.3H17.3V49.15Z" fill="#5E5E5E"/>
<path d="M19.55 49.15H18.4V50.3H19.55V49.15Z" fill="#5E5E5E"/>
<path d="M29.664 44.432H32.112C33.176 44.432 33.984 44.592 34.536 44.912C35.088 45.232 35.364 45.78 35.364 46.556C35.364 47.06 35.224 47.48 34.944 47.816C34.664 48.144 34.26 48.356 33.732 48.452V48.512C34.092 48.576 34.416 48.684 34.704 48.836C35 48.988 35.232 49.204 35.4 49.484C35.568 49.764 35.652 50.124 35.652 50.564C35.652 51.34 35.384 51.94 34.848 52.364C34.32 52.788 33.596 53 32.676 53H29.664V44.432ZM30.744 48.08H32.328C33.056 48.08 33.556 47.964 33.828 47.732C34.108 47.492 34.248 47.14 34.248 46.676C34.248 46.204 34.08 45.868 33.744 45.668C33.416 45.46 32.888 45.356 32.16 45.356H30.744V48.08ZM30.744 48.98V52.088H32.472C33.232 52.088 33.76 51.94 34.056 51.644C34.352 51.348 34.5 50.96 34.5 50.48C34.5 50.032 34.344 49.672 34.032 49.4C33.728 49.12 33.18 48.98 32.388 48.98H30.744ZM39.8087 46.448C40.3527 46.448 40.8247 46.568 41.2247 46.808C41.6247 47.048 41.9287 47.388 42.1367 47.828C42.3527 48.26 42.4607 48.768 42.4607 49.352V49.988H38.0567C38.0727 50.716 38.2567 51.272 38.6087 51.656C38.9687 52.032 39.4687 52.22 40.1087 52.22C40.5167 52.22 40.8767 52.184 41.1887 52.112C41.5087 52.032 41.8367 51.92 42.1727 51.776V52.7C41.8447 52.844 41.5207 52.948 41.2007 53.012C40.8807 53.084 40.5007 53.12 40.0607 53.12C39.4447 53.12 38.9047 52.996 38.4407 52.748C37.9767 52.5 37.6127 52.132 37.3487 51.644C37.0927 51.156 36.9647 50.552 36.9647 49.832C36.9647 49.128 37.0807 48.524 37.3127 48.02C37.5527 47.516 37.8847 47.128 38.3087 46.856C38.7407 46.584 39.2407 46.448 39.8087 46.448ZM39.7967 47.312C39.2927 47.312 38.8927 47.476 38.5967 47.804C38.3087 48.124 38.1367 48.572 38.0807 49.148H41.3567C41.3487 48.604 41.2207 48.164 40.9727 47.828C40.7247 47.484 40.3327 47.312 39.7967 47.312ZM47.0981 46.448C47.2181 46.448 47.3461 46.456 47.4821 46.472C47.6181 46.48 47.7421 46.496 47.8541 46.52L47.7221 47.492C47.6181 47.468 47.5021 47.448 47.3741 47.432C47.2461 47.416 47.1301 47.408 47.0261 47.408C46.6981 47.408 46.3901 47.5 46.1021 47.684C45.8141 47.86 45.5821 48.112 45.4061 48.44C45.2381 48.76 45.1541 49.136 45.1541 49.568V53H44.0981V46.568H44.9621L45.0821 47.744H45.1301C45.3301 47.392 45.5941 47.088 45.9221 46.832C46.2581 46.576 46.6501 46.448 47.0981 46.448ZM50.1112 53H49.0552V43.88H50.1112V53ZM52.6889 44.156C52.8489 44.156 52.9889 44.212 53.1089 44.324C53.2369 44.428 53.3009 44.596 53.3009 44.828C53.3009 45.06 53.2369 45.232 53.1089 45.344C52.9889 45.448 52.8489 45.5 52.6889 45.5C52.5129 45.5 52.3649 45.448 52.2449 45.344C52.1249 45.232 52.0649 45.06 52.0649 44.828C52.0649 44.596 52.1249 44.428 52.2449 44.324C52.3649 44.212 52.5129 44.156 52.6889 44.156ZM53.2049 46.568V53H52.1489V46.568H53.2049ZM58.3387 46.448C59.1067 46.448 59.6867 46.636 60.0787 47.012C60.4707 47.388 60.6667 47.988 60.6667 48.812V53H59.6227V48.884C59.6227 47.852 59.1427 47.336 58.1827 47.336C57.4707 47.336 56.9787 47.536 56.7067 47.936C56.4347 48.336 56.2987 48.912 56.2987 49.664V53H55.2427V46.568H56.0947L56.2507 47.444H56.3107C56.5187 47.108 56.8067 46.86 57.1747 46.7C57.5427 46.532 57.9307 46.448 58.3387 46.448Z" fill="black"/>
<rect x="1" y="36.5" width="69" height="23" rx="3.5" stroke="#939393"/>
<rect x="1" y="72.5" width="74" height="23" rx="3.5" fill="#F1F1F1"/>
<path fill-rule="evenodd" clip-rule="evenodd" d="M22.15 90.25H21.45V78.85C21.45 78.65 21.3 78.45 21.05 78.45H19.15V77.4C19.15 77.15 19 77 18.8 77H14.6C14.4 77 14.25 77.15 14.25 77.4V78.5H12.3C12.1 78.5 11.9 78.65 11.9 78.9V90.3H10.9C10.7 90.3 10.5 90.45 10.5 90.7C10.5 90.95 10.65 91 10.9 91H22.2C22.4 91 22.6 90.85 22.6 90.6C22.6 90.35 22.35 90.25 22.15 90.25ZM12.7 79.2H14.6C14.8 79.2 15 79.05 15 78.85V77.75H18.4V78.85C18.4 79.05 18.55 79.25 18.8 79.25H20.7V90.3H19.15V88.25C19.15 88.05 19 87.85 18.75 87.85H14.6C14.4 87.85 14.2 88 14.2 88.25V90.3H12.7V79.2ZM18.4 90.25H15V88.6H18.4V90.25Z" fill="#5E5E5E"/>
<path d="M15 82.9H13.85V84.05H15V82.9Z" fill="#5E5E5E"/>
<path d="M17.3 82.9H16.15V84.05H17.3V82.9Z" fill="#5E5E5E"/>
<path d="M19.55 82.9H18.4V84.05H19.55V82.9Z" fill="#5E5E5E"/>
<path d="M15 80.65H13.85V81.8H15V80.65Z" fill="#5E5E5E"/>
<path d="M17.3 80.65H16.15V81.8H17.3V80.65Z" fill="#5E5E5E"/>
<path d="M19.55 80.65H18.4V81.8H19.55V80.65Z" fill="#5E5E5E"/>
<path d="M15 85.15H13.85V86.3H15V85.15Z" fill="#5E5E5E"/>
<path d="M17.3 85.15H16.15V86.3H17.3V85.15Z" fill="#5E5E5E"/>
<path d="M19.55 85.15H18.4V86.3H19.55V85.15Z" fill="#5E5E5E"/>
<path d="M34.524 86.708C34.524 87.468 34.248 88.06 33.696 88.484C33.144 88.908 32.4 89.12 31.464 89.12C30.984 89.12 30.54 89.084 30.132 89.012C29.724 88.94 29.384 88.84 29.112 88.712V87.68C29.4 87.808 29.756 87.924 30.18 88.028C30.612 88.132 31.056 88.184 31.512 88.184C32.144 88.184 32.624 88.06 32.952 87.812C33.28 87.564 33.444 87.228 33.444 86.804C33.444 86.524 33.384 86.288 33.264 86.096C33.144 85.904 32.936 85.728 32.64 85.568C32.344 85.408 31.94 85.232 31.428 85.04C30.692 84.776 30.14 84.452 29.772 84.068C29.404 83.684 29.22 83.16 29.22 82.496C29.22 82.048 29.336 81.66 29.568 81.332C29.8 81.004 30.12 80.752 30.528 80.576C30.936 80.4 31.412 80.312 31.956 80.312C32.42 80.312 32.848 80.356 33.24 80.444C33.632 80.532 33.992 80.648 34.32 80.792L33.984 81.716C33.688 81.588 33.364 81.48 33.012 81.392C32.66 81.304 32.3 81.26 31.932 81.26C31.396 81.26 30.992 81.376 30.72 81.608C30.448 81.832 30.312 82.132 30.312 82.508C30.312 82.796 30.372 83.036 30.492 83.228C30.612 83.42 30.808 83.596 31.08 83.756C31.352 83.908 31.72 84.068 32.184 84.236C32.688 84.42 33.112 84.62 33.456 84.836C33.808 85.044 34.072 85.296 34.248 85.592C34.432 85.888 34.524 86.26 34.524 86.708ZM38.5899 82.448C39.1339 82.448 39.6059 82.568 40.0059 82.808C40.4059 83.048 40.7099 83.388 40.9179 83.828C41.1339 84.26 41.2419 84.768 41.2419 85.352V85.988H36.8379C36.8539 86.716 37.0379 87.272 37.3899 87.656C37.7499 88.032 38.2499 88.22 38.8899 88.22C39.2979 88.22 39.6579 88.184 39.9699 88.112C40.2899 88.032 40.6179 87.92 40.9539 87.776V88.7C40.6259 88.844 40.3019 88.948 39.9819 89.012C39.6619 89.084 39.2819 89.12 38.8419 89.12C38.2259 89.12 37.6859 88.996 37.2219 88.748C36.7579 88.5 36.3939 88.132 36.1299 87.644C35.8739 87.156 35.7459 86.552 35.7459 85.832C35.7459 85.128 35.8619 84.524 36.0939 84.02C36.3339 83.516 36.6659 83.128 37.0899 82.856C37.5219 82.584 38.0219 82.448 38.5899 82.448ZM38.5779 83.312C38.0739 83.312 37.6739 83.476 37.3779 83.804C37.0899 84.124 36.9179 84.572 36.8619 85.148H40.1379C40.1299 84.604 40.0019 84.164 39.7539 83.828C39.5059 83.484 39.1139 83.312 38.5779 83.312ZM45.3154 82.46C46.0994 82.46 46.6794 82.632 47.0554 82.976C47.4314 83.32 47.6194 83.868 47.6194 84.62V89H46.8514L46.6474 88.088H46.5994C46.3194 88.44 46.0234 88.7 45.7114 88.868C45.3994 89.036 44.9754 89.12 44.4394 89.12C43.8554 89.12 43.3714 88.968 42.9874 88.664C42.6034 88.352 42.4114 87.868 42.4114 87.212C42.4114 86.572 42.6634 86.08 43.1674 85.736C43.6714 85.384 44.4474 85.192 45.4954 85.16L46.5874 85.124V84.74C46.5874 84.204 46.4714 83.832 46.2394 83.624C46.0074 83.416 45.6794 83.312 45.2554 83.312C44.9194 83.312 44.5994 83.364 44.2954 83.468C43.9914 83.564 43.7074 83.676 43.4434 83.804L43.1194 83.012C43.3994 82.86 43.7314 82.732 44.1154 82.628C44.4994 82.516 44.8994 82.46 45.3154 82.46ZM46.5754 85.856L45.6274 85.892C44.8274 85.924 44.2714 86.052 43.9594 86.276C43.6554 86.5 43.5034 86.816 43.5034 87.224C43.5034 87.584 43.6114 87.848 43.8274 88.016C44.0514 88.184 44.3354 88.268 44.6794 88.268C45.2154 88.268 45.6634 88.12 46.0234 87.824C46.3914 87.52 46.5754 87.056 46.5754 86.432V85.856ZM51.7539 88.256C51.9139 88.256 52.0779 88.244 52.2459 88.22C52.4139 88.196 52.5499 88.164 52.6539 88.124V88.928C52.5419 88.984 52.3819 89.028 52.1739 89.06C51.9659 89.1 51.7659 89.12 51.5739 89.12C51.2379 89.12 50.9259 89.064 50.6379 88.952C50.3579 88.832 50.1299 88.628 49.9539 88.34C49.7779 88.052 49.6899 87.648 49.6899 87.128V83.384H48.7779V82.88L49.7019 82.46L50.1219 81.092H50.7459V82.568H52.6059V83.384H50.7459V87.104C50.7459 87.496 50.8379 87.788 51.0219 87.98C51.2139 88.164 51.4579 88.256 51.7539 88.256ZM56.0899 88.256C56.2499 88.256 56.4139 88.244 56.5819 88.22C56.7499 88.196 56.8859 88.164 56.9899 88.124V88.928C56.8779 88.984 56.7179 89.028 56.5099 89.06C56.3019 89.1 56.1019 89.12 55.9099 89.12C55.5739 89.12 55.2619 89.064 54.9739 88.952C54.6939 88.832 54.4659 88.628 54.2899 88.34C54.1139 88.052 54.0259 87.648 54.0259 87.128V83.384H53.1139V82.88L54.0379 82.46L54.4579 81.092H55.0819V82.568H56.9419V83.384H55.0819V87.104C55.0819 87.496 55.1739 87.788 55.3579 87.98C55.5499 88.164 55.7939 88.256 56.0899 88.256ZM59.3338 89H58.2778V79.88H59.3338V89ZM63.8556 82.448C64.3996 82.448 64.8716 82.568 65.2716 82.808C65.6716 83.048 65.9756 83.388 66.1836 83.828C66.3996 84.26 66.5076 84.768 66.5076 85.352V85.988H62.1036C62.1196 86.716 62.3036 87.272 62.6556 87.656C63.0156 88.032 63.5156 88.22 64.1556 88.22C64.5636 88.22 64.9236 88.184 65.2356 88.112C65.5556 88.032 65.8836 87.92 66.2196 87.776V88.7C65.8916 88.844 65.5676 88.948 65.2476 89.012C64.9276 89.084 64.5476 89.12 64.1076 89.12C63.4916 89.12 62.9516 88.996 62.4876 88.748C62.0236 88.5 61.6596 88.132 61.3956 87.644C61.1396 87.156 61.0116 86.552 61.0116 85.832C61.0116 85.128 61.1276 84.524 61.3596 84.02C61.5996 83.516 61.9316 83.128 62.3556 82.856C62.7876 82.584 63.2876 82.448 63.8556 82.448ZM63.8436 83.312C63.3396 83.312 62.9396 83.476 62.6436 83.804C62.3556 84.124 62.1836 84.572 62.1276 85.148H65.4036C65.3956 84.604 65.2676 84.164 65.0196 83.828C64.7716 83.484 64.3796 83.312 63.8436 83.312Z" fill="black"/>
<rect x="1" y="72.5" width="74" height="23" rx="3.5" stroke="#939393"/>
</svg>
