<svg width="186" height="96" viewBox="0 0 186 96" fill="none" xmlns="http://www.w3.org/2000/svg">
<rect x="0.5" y="0.5" width="185" height="23" rx="3.5" fill="#F7EDFC"/>
<path d="M16 8C12.2 8 9 11.05 9 12.2C9 13.35 12.2 16.4 16 16.4C19.8 16.4 23 13.35 23 12.2C23 11.05 19.8 8 16 8ZM16 15.65C12.4 15.65 9.75 12.75 9.75 12.2C9.75 11.65 12.4 8.75 16 8.75C19.45 8.75 22.25 11.5 22.25 12.2C22.25 12.9 19.45 15.65 16 15.65Z" fill="#8832B3"/>
<path d="M16 9.6C14.55 9.6 13.4 10.8 13.4 12.2C13.4 13.6 14.55 14.8 16 14.8C17.45 14.8 18.6 13.6 18.6 12.2C18.6 10.8 17.45 9.6 16 9.6ZM16 14.05C14.95 14.05 14.15 13.2 14.15 12.2C14.15 11.2 15 10.35 16 10.35C17 10.35 17.85 11.2 17.85 12.2C17.85 13.2 17.05 14.05 16 14.05Z" fill="#8832B3"/>
<path d="M36.64 12.704C36.64 13.592 36.488 14.368 36.184 15.032C35.888 15.688 35.444 16.2 34.852 16.568C34.268 16.936 33.548 17.12 32.692 17.12C31.804 17.12 31.064 16.936 30.472 16.568C29.888 16.2 29.452 15.684 29.164 15.02C28.876 14.356 28.732 13.58 28.732 12.692C28.732 11.82 28.876 11.056 29.164 10.4C29.452 9.736 29.888 9.22 30.472 8.852C31.064 8.484 31.808 8.3 32.704 8.3C33.56 8.3 34.28 8.484 34.864 8.852C35.448 9.212 35.888 9.724 36.184 10.388C36.488 11.044 36.64 11.816 36.64 12.704ZM29.872 12.704C29.872 13.784 30.1 14.636 30.556 15.26C31.012 15.876 31.724 16.184 32.692 16.184C33.66 16.184 34.368 15.876 34.816 15.26C35.272 14.636 35.5 13.784 35.5 12.704C35.5 11.624 35.276 10.78 34.828 10.172C34.38 9.556 33.672 9.248 32.704 9.248C31.728 9.248 31.012 9.556 30.556 10.172C30.1 10.78 29.872 11.624 29.872 12.704ZM39.451 7.88V10.1C39.451 10.372 39.443 10.628 39.427 10.868C39.419 11.1 39.407 11.284 39.391 11.42H39.451C39.635 11.148 39.887 10.92 40.207 10.736C40.527 10.552 40.939 10.46 41.443 10.46C42.243 10.46 42.883 10.74 43.363 11.3C43.851 11.852 44.095 12.68 44.095 13.784C44.095 14.888 43.851 15.72 43.363 16.28C42.875 16.84 42.235 17.12 41.443 17.12C40.939 17.12 40.527 17.028 40.207 16.844C39.887 16.66 39.635 16.44 39.451 16.184H39.367L39.151 17H38.395V7.88H39.451ZM41.263 11.336C40.575 11.336 40.099 11.532 39.835 11.924C39.579 12.316 39.451 12.924 39.451 13.748V13.796C39.451 14.588 39.579 15.196 39.835 15.62C40.099 16.036 40.583 16.244 41.287 16.244C41.863 16.244 42.291 16.032 42.571 15.608C42.859 15.184 43.003 14.572 43.003 13.772C43.003 12.148 42.423 11.336 41.263 11.336ZM49.9658 15.224C49.9658 15.848 49.7338 16.32 49.2698 16.64C48.8058 16.96 48.1818 17.12 47.3978 17.12C46.9498 17.12 46.5618 17.084 46.2338 17.012C45.9138 16.94 45.6298 16.84 45.3818 16.712V15.752C45.6378 15.88 45.9458 16 46.3058 16.112C46.6738 16.216 47.0458 16.268 47.4218 16.268C47.9578 16.268 48.3458 16.184 48.5858 16.016C48.8258 15.84 48.9458 15.608 48.9458 15.32C48.9458 15.16 48.9018 15.016 48.8138 14.888C48.7258 14.76 48.5658 14.632 48.3338 14.504C48.1098 14.376 47.7858 14.232 47.3618 14.072C46.9458 13.912 46.5898 13.752 46.2938 13.592C45.9978 13.432 45.7698 13.24 45.6098 13.016C45.4498 12.792 45.3698 12.504 45.3698 12.152C45.3698 11.608 45.5898 11.188 46.0298 10.892C46.4778 10.596 47.0618 10.448 47.7818 10.448C48.1738 10.448 48.5378 10.488 48.8738 10.568C49.2178 10.648 49.5378 10.752 49.8338 10.88L49.4738 11.72C49.2018 11.608 48.9178 11.512 48.6218 11.432C48.3258 11.352 48.0218 11.312 47.7098 11.312C47.2778 11.312 46.9458 11.384 46.7138 11.528C46.4898 11.664 46.3778 11.852 46.3778 12.092C46.3778 12.276 46.4298 12.428 46.5338 12.548C46.6378 12.668 46.8098 12.788 47.0498 12.908C47.2978 13.028 47.6258 13.164 48.0338 13.316C48.4418 13.468 48.7898 13.624 49.0778 13.784C49.3658 13.944 49.5858 14.14 49.7378 14.372C49.8898 14.596 49.9658 14.88 49.9658 15.224ZM54.004 10.448C54.548 10.448 55.02 10.568 55.42 10.808C55.82 11.048 56.124 11.388 56.332 11.828C56.548 12.26 56.656 12.768 56.656 13.352V13.988H52.252C52.268 14.716 52.452 15.272 52.804 15.656C53.164 16.032 53.664 16.22 54.304 16.22C54.712 16.22 55.072 16.184 55.384 16.112C55.704 16.032 56.032 15.92 56.368 15.776V16.7C56.04 16.844 55.716 16.948 55.396 17.012C55.076 17.084 54.696 17.12 54.256 17.12C53.64 17.12 53.1 16.996 52.636 16.748C52.172 16.5 51.808 16.132 51.544 15.644C51.288 15.156 51.16 14.552 51.16 13.832C51.16 13.128 51.276 12.524 51.508 12.02C51.748 11.516 52.08 11.128 52.504 10.856C52.936 10.584 53.436 10.448 54.004 10.448ZM53.992 11.312C53.488 11.312 53.088 11.476 52.792 11.804C52.504 12.124 52.332 12.572 52.276 13.148H55.552C55.544 12.604 55.416 12.164 55.168 11.828C54.92 11.484 54.528 11.312 53.992 11.312ZM61.2934 10.448C61.4134 10.448 61.5414 10.456 61.6774 10.472C61.8134 10.48 61.9374 10.496 62.0494 10.52L61.9174 11.492C61.8134 11.468 61.6974 11.448 61.5694 11.432C61.4414 11.416 61.3254 11.408 61.2214 11.408C60.8934 11.408 60.5854 11.5 60.2974 11.684C60.0094 11.86 59.7774 12.112 59.6014 12.44C59.4334 12.76 59.3494 13.136 59.3494 13.568V17H58.2934V10.568H59.1574L59.2774 11.744H59.3254C59.5254 11.392 59.7894 11.088 60.1174 10.832C60.4534 10.576 60.8454 10.448 61.2934 10.448ZM64.6665 17L62.2305 10.568H63.3585L64.7265 14.36C64.7905 14.536 64.8585 14.732 64.9305 14.948C65.0025 15.164 65.0665 15.372 65.1225 15.572C65.1785 15.772 65.2185 15.936 65.2425 16.064H65.2905C65.3145 15.936 65.3585 15.772 65.4225 15.572C65.4865 15.364 65.5545 15.156 65.6265 14.948C65.6985 14.732 65.7665 14.536 65.8305 14.36L67.1985 10.568H68.3265L65.8785 17H64.6665ZM69.8842 8.156C70.0442 8.156 70.1842 8.212 70.3042 8.324C70.4322 8.428 70.4962 8.596 70.4962 8.828C70.4962 9.06 70.4322 9.232 70.3042 9.344C70.1842 9.448 70.0442 9.5 69.8842 9.5C69.7082 9.5 69.5602 9.448 69.4402 9.344C69.3202 9.232 69.2602 9.06 69.2602 8.828C69.2602 8.596 69.3202 8.428 69.4402 8.324C69.5602 8.212 69.7082 8.156 69.8842 8.156ZM70.4002 10.568V17H69.3442V10.568H70.4002ZM75.534 10.448C76.302 10.448 76.882 10.636 77.274 11.012C77.666 11.388 77.862 11.988 77.862 12.812V17H76.818V12.884C76.818 11.852 76.338 11.336 75.378 11.336C74.666 11.336 74.174 11.536 73.902 11.936C73.63 12.336 73.494 12.912 73.494 13.664V17H72.438V10.568H73.29L73.446 11.444H73.506C73.714 11.108 74.002 10.86 74.37 10.7C74.738 10.532 75.126 10.448 75.534 10.448ZM82.1359 10.448C82.5599 10.448 82.9399 10.528 83.2759 10.688C83.6199 10.848 83.9119 11.092 84.1519 11.42H84.2119L84.3559 10.568H85.1959V17.108C85.1959 18.028 84.9599 18.72 84.4879 19.184C84.0239 19.648 83.2999 19.88 82.3159 19.88C81.3719 19.88 80.5999 19.744 79.9999 19.472V18.5C80.6319 18.836 81.4239 19.004 82.3759 19.004C82.9279 19.004 83.3599 18.84 83.6719 18.512C83.9919 18.192 84.1519 17.752 84.1519 17.192V16.94C84.1519 16.844 84.1559 16.708 84.1639 16.532C84.1719 16.348 84.1799 16.22 84.1879 16.148H84.1399C83.7079 16.796 83.0439 17.12 82.1479 17.12C81.3159 17.12 80.6639 16.828 80.1919 16.244C79.7279 15.66 79.4959 14.844 79.4959 13.796C79.4959 12.772 79.7279 11.96 80.1919 11.36C80.6639 10.752 81.3119 10.448 82.1359 10.448ZM82.2799 11.336C81.7439 11.336 81.3279 11.552 81.0319 11.984C80.7359 12.408 80.5879 13.016 80.5879 13.808C80.5879 14.6 80.7319 15.208 81.0199 15.632C81.3079 16.048 81.7359 16.256 82.3039 16.256C82.9519 16.256 83.4239 16.084 83.7199 15.74C84.0159 15.388 84.1639 14.824 84.1639 14.048V13.796C84.1639 12.924 84.0119 12.296 83.7079 11.912C83.4039 11.528 82.9279 11.336 82.2799 11.336ZM87.0828 11.216C87.0828 10.912 87.1548 10.7 87.2988 10.58C87.4428 10.46 87.6148 10.4 87.8148 10.4C88.0148 10.4 88.1908 10.46 88.3428 10.58C88.4948 10.7 88.5708 10.912 88.5708 11.216C88.5708 11.504 88.4948 11.712 88.3428 11.84C88.1908 11.968 88.0148 12.032 87.8148 12.032C87.6148 12.032 87.4428 11.968 87.2988 11.84C87.1548 11.712 87.0828 11.504 87.0828 11.216ZM87.0828 16.352C87.0828 16.056 87.1548 15.848 87.2988 15.728C87.4428 15.608 87.6148 15.548 87.8148 15.548C88.0148 15.548 88.1908 15.608 88.3428 15.728C88.4948 15.848 88.5708 16.056 88.5708 16.352C88.5708 16.64 88.4948 16.848 88.3428 16.976C88.1908 17.104 88.0148 17.168 87.8148 17.168C87.6148 17.168 87.4428 17.104 87.2988 16.976C87.1548 16.848 87.0828 16.64 87.0828 16.352ZM99.0869 17L98.0549 14.348H94.6589L93.6389 17H92.5469L95.8949 8.396H96.8669L100.203 17H99.0869ZM97.7309 13.388L96.7709 10.796C96.7469 10.732 96.7069 10.616 96.6509 10.448C96.5949 10.28 96.5389 10.108 96.4829 9.932C96.4349 9.748 96.3949 9.608 96.3629 9.512C96.2989 9.76 96.2309 10.004 96.1589 10.244C96.0949 10.476 96.0389 10.66 95.9909 10.796L95.0189 13.388H97.7309ZM105.419 15.224C105.419 15.848 105.187 16.32 104.723 16.64C104.259 16.96 103.635 17.12 102.851 17.12C102.403 17.12 102.015 17.084 101.687 17.012C101.367 16.94 101.083 16.84 100.835 16.712V15.752C101.091 15.88 101.399 16 101.759 16.112C102.127 16.216 102.499 16.268 102.875 16.268C103.411 16.268 103.799 16.184 104.039 16.016C104.279 15.84 104.399 15.608 104.399 15.32C104.399 15.16 104.355 15.016 104.267 14.888C104.179 14.76 104.019 14.632 103.787 14.504C103.563 14.376 103.239 14.232 102.815 14.072C102.399 13.912 102.043 13.752 101.747 13.592C101.451 13.432 101.223 13.24 101.063 13.016C100.903 12.792 100.823 12.504 100.823 12.152C100.823 11.608 101.043 11.188 101.483 10.892C101.931 10.596 102.515 10.448 103.235 10.448C103.627 10.448 103.991 10.488 104.327 10.568C104.671 10.648 104.991 10.752 105.287 10.88L104.927 11.72C104.655 11.608 104.371 11.512 104.075 11.432C103.779 11.352 103.475 11.312 103.163 11.312C102.731 11.312 102.399 11.384 102.167 11.528C101.943 11.664 101.831 11.852 101.831 12.092C101.831 12.276 101.883 12.428 101.987 12.548C102.091 12.668 102.263 12.788 102.503 12.908C102.751 13.028 103.079 13.164 103.487 13.316C103.895 13.468 104.243 13.624 104.531 13.784C104.819 13.944 105.039 14.14 105.191 14.372C105.343 14.596 105.419 14.88 105.419 15.224ZM108.029 7.88V10.556C108.029 10.876 108.009 11.176 107.969 11.456H108.041C108.249 11.128 108.529 10.88 108.881 10.712C109.241 10.544 109.629 10.46 110.045 10.46C110.821 10.46 111.405 10.648 111.797 11.024C112.197 11.392 112.397 11.988 112.397 12.812V17H111.353V12.884C111.353 11.852 110.873 11.336 109.913 11.336C109.193 11.336 108.697 11.54 108.425 11.948C108.161 12.348 108.029 12.924 108.029 13.676V17H106.973V7.88H108.029ZM115.447 17H114.391V7.88H115.447V17ZM116.477 10.568H117.605L118.997 14.228C119.117 14.556 119.225 14.864 119.321 15.152C119.417 15.44 119.489 15.716 119.537 15.98H119.585C119.633 15.78 119.709 15.52 119.813 15.2C119.917 14.872 120.025 14.544 120.137 14.216L121.445 10.568H122.585L119.813 17.888C119.581 18.496 119.289 18.98 118.937 19.34C118.585 19.7 118.097 19.88 117.473 19.88C117.281 19.88 117.113 19.868 116.969 19.844C116.825 19.828 116.701 19.808 116.597 19.784V18.944C116.685 18.96 116.789 18.976 116.909 18.992C117.037 19.008 117.169 19.016 117.305 19.016C117.673 19.016 117.969 18.912 118.193 18.704C118.417 18.496 118.597 18.22 118.733 17.876L119.069 17.024L116.477 10.568ZM126.698 10.448C127.466 10.448 128.046 10.636 128.438 11.012C128.83 11.388 129.026 11.988 129.026 12.812V17H127.982V12.884C127.982 11.852 127.502 11.336 126.542 11.336C125.83 11.336 125.338 11.536 125.066 11.936C124.794 12.336 124.658 12.912 124.658 13.664V17H123.602V10.568H124.454L124.61 11.444H124.67C124.878 11.108 125.166 10.86 125.534 10.7C125.902 10.532 126.29 10.448 126.698 10.448ZM134.116 10.448C134.884 10.448 135.464 10.636 135.856 11.012C136.248 11.388 136.444 11.988 136.444 12.812V17H135.4V12.884C135.4 11.852 134.92 11.336 133.96 11.336C133.248 11.336 132.756 11.536 132.484 11.936C132.212 12.336 132.076 12.912 132.076 13.664V17H131.02V10.568H131.872L132.028 11.444H132.088C132.296 11.108 132.584 10.86 132.952 10.7C133.32 10.532 133.708 10.448 134.116 10.448ZM143.967 8.432C145.087 8.432 145.903 8.652 146.415 9.092C146.927 9.532 147.183 10.152 147.183 10.952C147.183 11.424 147.075 11.868 146.859 12.284C146.651 12.692 146.295 13.024 145.791 13.28C145.295 13.536 144.619 13.664 143.763 13.664H142.779V17H141.699V8.432H143.967ZM143.871 9.356H142.779V12.74H143.643C144.459 12.74 145.067 12.608 145.467 12.344C145.867 12.08 146.067 11.632 146.067 11C146.067 10.448 145.887 10.036 145.527 9.764C145.175 9.492 144.623 9.356 143.871 9.356ZM149.877 7.88V10.556C149.877 10.876 149.857 11.176 149.817 11.456H149.889C150.097 11.128 150.377 10.88 150.729 10.712C151.089 10.544 151.477 10.46 151.893 10.46C152.669 10.46 153.253 10.648 153.645 11.024C154.045 11.392 154.245 11.988 154.245 12.812V17H153.201V12.884C153.201 11.852 152.721 11.336 151.761 11.336C151.041 11.336 150.545 11.54 150.273 11.948C150.009 12.348 149.877 12.924 149.877 13.676V17H148.821V7.88H149.877ZM156.779 8.156C156.939 8.156 157.079 8.212 157.199 8.324C157.327 8.428 157.391 8.596 157.391 8.828C157.391 9.06 157.327 9.232 157.199 9.344C157.079 9.448 156.939 9.5 156.779 9.5C156.603 9.5 156.455 9.448 156.335 9.344C156.215 9.232 156.155 9.06 156.155 8.828C156.155 8.596 156.215 8.428 156.335 8.324C156.455 8.212 156.603 8.156 156.779 8.156ZM157.295 10.568V17H156.239V10.568H157.295ZM160.389 17H159.333V7.88H160.389V17ZM162.966 8.156C163.126 8.156 163.266 8.212 163.386 8.324C163.514 8.428 163.578 8.596 163.578 8.828C163.578 9.06 163.514 9.232 163.386 9.344C163.266 9.448 163.126 9.5 162.966 9.5C162.79 9.5 162.642 9.448 162.522 9.344C162.402 9.232 162.342 9.06 162.342 8.828C162.342 8.596 162.402 8.428 162.522 8.324C162.642 8.212 162.79 8.156 162.966 8.156ZM163.482 10.568V17H162.426V10.568H163.482ZM168.58 10.448C169.372 10.448 170.008 10.724 170.488 11.276C170.976 11.828 171.22 12.66 171.22 13.772C171.22 14.868 170.976 15.7 170.488 16.268C170.008 16.836 169.368 17.12 168.568 17.12C168.072 17.12 167.66 17.028 167.332 16.844C167.012 16.66 166.76 16.44 166.576 16.184H166.504C166.512 16.32 166.524 16.492 166.54 16.7C166.564 16.908 166.576 17.088 166.576 17.24V19.88H165.52V10.568H166.384L166.528 11.444H166.576C166.768 11.164 167.02 10.928 167.332 10.736C167.644 10.544 168.06 10.448 168.58 10.448ZM168.388 11.336C167.732 11.336 167.268 11.52 166.996 11.888C166.724 12.256 166.584 12.816 166.576 13.568V13.772C166.576 14.564 166.704 15.176 166.96 15.608C167.224 16.032 167.708 16.244 168.412 16.244C168.796 16.244 169.116 16.14 169.372 15.932C169.628 15.716 169.816 15.42 169.936 15.044C170.064 14.668 170.128 14.24 170.128 13.76C170.128 13.024 169.984 12.436 169.696 11.996C169.416 11.556 168.98 11.336 168.388 11.336ZM177.091 15.224C177.091 15.848 176.859 16.32 176.395 16.64C175.931 16.96 175.307 17.12 174.523 17.12C174.075 17.12 173.687 17.084 173.359 17.012C173.039 16.94 172.755 16.84 172.507 16.712V15.752C172.763 15.88 173.071 16 173.431 16.112C173.799 16.216 174.171 16.268 174.547 16.268C175.083 16.268 175.471 16.184 175.711 16.016C175.951 15.84 176.071 15.608 176.071 15.32C176.071 15.16 176.027 15.016 175.939 14.888C175.851 14.76 175.691 14.632 175.459 14.504C175.235 14.376 174.911 14.232 174.487 14.072C174.071 13.912 173.715 13.752 173.419 13.592C173.123 13.432 172.895 13.24 172.735 13.016C172.575 12.792 172.495 12.504 172.495 12.152C172.495 11.608 172.715 11.188 173.155 10.892C173.603 10.596 174.187 10.448 174.907 10.448C175.299 10.448 175.663 10.488 175.999 10.568C176.343 10.648 176.663 10.752 176.959 10.88L176.599 11.72C176.327 11.608 176.043 11.512 175.747 11.432C175.451 11.352 175.147 11.312 174.835 11.312C174.403 11.312 174.071 11.384 173.839 11.528C173.615 11.664 173.503 11.852 173.503 12.092C173.503 12.276 173.555 12.428 173.659 12.548C173.763 12.668 173.935 12.788 174.175 12.908C174.423 13.028 174.751 13.164 175.159 13.316C175.567 13.468 175.915 13.624 176.203 13.784C176.491 13.944 176.711 14.14 176.863 14.372C177.015 14.596 177.091 14.88 177.091 15.224Z" fill="black"/>
<rect x="0.5" y="0.5" width="185" height="23" rx="3.5" stroke="#BF73E5"/>
<rect x="0.5" y="36.5" width="180" height="23" rx="3.5" fill="#F7EDFC"/>
<path fill-rule="evenodd" clip-rule="evenodd" d="M15.025 41.5C15.2321 41.5 15.4 41.6679 15.4 41.875V44.625C15.4 44.8321 15.2321 45 15.025 45C14.8179 45 14.65 44.8321 14.65 44.625V41.875C14.65 41.6679 14.8179 41.5 15.025 41.5ZM12.0846 41.9273C12.2766 41.8497 12.4952 41.9425 12.5727 42.1346L13.6227 44.7346C13.7003 44.9266 13.6075 45.1452 13.4154 45.2227C13.2234 45.3003 13.0048 45.2075 12.9273 45.0154L11.8773 42.4154C11.7997 42.2234 11.8925 42.0048 12.0846 41.9273ZM17.9119 41.9759C18.1047 42.0515 18.1997 42.2691 18.1241 42.4619L17.1241 45.0119C17.0485 45.2047 16.8309 45.2997 16.6381 45.2241C16.4453 45.1485 16.3503 44.9309 16.4259 44.7381L17.4259 42.1881C17.5015 41.9953 17.7191 41.9003 17.9119 41.9759ZM9 50.325C9 47.971 10.9148 46 13.325 46H22.625C22.8321 46 23 46.1679 23 46.375V49.275C23 49.4455 22.8849 49.5946 22.7199 49.6378L17.6148 50.9737C17.2824 53.0831 15.4811 54.65 13.325 54.65C10.971 54.65 9 52.7352 9 50.325ZM13.325 46.75C11.3352 46.75 9.75 48.379 9.75 50.325C9.75 52.3148 11.379 53.9 13.325 53.9C15.1804 53.9 16.7204 52.4981 16.9018 50.6386C16.917 50.4822 17.0281 50.352 17.1801 50.3122L22.25 48.9855V46.75H13.325ZM13.325 48.75C12.4552 48.75 11.75 49.4552 11.75 50.325C11.75 51.1948 12.4552 51.9 13.325 51.9C14.1948 51.9 14.9 51.1948 14.9 50.325C14.9 49.4552 14.1948 48.75 13.325 48.75ZM11 50.325C11 49.0409 12.0409 48 13.325 48C14.6091 48 15.65 49.0409 15.65 50.325C15.65 51.6091 14.6091 52.65 13.325 52.65C12.0409 52.65 11 51.6091 11 50.325Z" fill="#8832B3"/>
<path d="M32.836 45.26C31.916 45.26 31.192 45.568 30.664 46.184C30.136 46.8 29.872 47.644 29.872 48.716C29.872 49.78 30.116 50.624 30.604 51.248C31.1 51.864 31.84 52.172 32.824 52.172C33.192 52.172 33.544 52.14 33.88 52.076C34.216 52.012 34.548 51.932 34.876 51.836V52.772C34.556 52.892 34.224 52.98 33.88 53.036C33.544 53.092 33.14 53.12 32.668 53.12C31.796 53.12 31.068 52.94 30.484 52.58C29.9 52.22 29.46 51.708 29.164 51.044C28.876 50.38 28.732 49.6 28.732 48.704C28.732 47.84 28.888 47.08 29.2 46.424C29.52 45.76 29.988 45.244 30.604 44.876C31.22 44.5 31.968 44.312 32.848 44.312C33.752 44.312 34.54 44.48 35.212 44.816L34.78 45.728C34.516 45.608 34.22 45.5 33.892 45.404C33.572 45.308 33.22 45.26 32.836 45.26ZM42.194 49.772C42.194 50.836 41.922 51.66 41.378 52.244C40.842 52.828 40.114 53.12 39.194 53.12C38.626 53.12 38.118 52.992 37.67 52.736C37.23 52.472 36.882 52.092 36.626 51.596C36.37 51.092 36.242 50.484 36.242 49.772C36.242 48.708 36.506 47.888 37.034 47.312C37.57 46.736 38.302 46.448 39.23 46.448C39.806 46.448 40.318 46.58 40.766 46.844C41.214 47.1 41.562 47.476 41.81 47.972C42.066 48.46 42.194 49.06 42.194 49.772ZM37.334 49.772C37.334 50.532 37.482 51.136 37.778 51.584C38.082 52.024 38.562 52.244 39.218 52.244C39.866 52.244 40.342 52.024 40.646 51.584C40.95 51.136 41.102 50.532 41.102 49.772C41.102 49.012 40.95 48.416 40.646 47.984C40.342 47.552 39.862 47.336 39.206 47.336C38.55 47.336 38.074 47.552 37.778 47.984C37.482 48.416 37.334 49.012 37.334 49.772ZM46.3037 46.46C47.0877 46.46 47.6677 46.632 48.0437 46.976C48.4197 47.32 48.6077 47.868 48.6077 48.62V53H47.8397L47.6357 52.088H47.5877C47.3077 52.44 47.0117 52.7 46.6997 52.868C46.3877 53.036 45.9637 53.12 45.4277 53.12C44.8437 53.12 44.3597 52.968 43.9757 52.664C43.5917 52.352 43.3997 51.868 43.3997 51.212C43.3997 50.572 43.6517 50.08 44.1557 49.736C44.6597 49.384 45.4357 49.192 46.4837 49.16L47.5757 49.124V48.74C47.5757 48.204 47.4597 47.832 47.2277 47.624C46.9957 47.416 46.6677 47.312 46.2437 47.312C45.9077 47.312 45.5877 47.364 45.2837 47.468C44.9797 47.564 44.6957 47.676 44.4317 47.804L44.1077 47.012C44.3877 46.86 44.7197 46.732 45.1037 46.628C45.4877 46.516 45.8877 46.46 46.3037 46.46ZM47.5637 49.856L46.6157 49.892C45.8157 49.924 45.2597 50.052 44.9477 50.276C44.6437 50.5 44.4917 50.816 44.4917 51.224C44.4917 51.584 44.5997 51.848 44.8157 52.016C45.0397 52.184 45.3237 52.268 45.6677 52.268C46.2037 52.268 46.6517 52.12 47.0117 51.824C47.3797 51.52 47.5637 51.056 47.5637 50.432V49.856ZM53.1742 53.12C52.5982 53.12 52.0902 53.004 51.6502 52.772C51.2102 52.54 50.8622 52.18 50.6062 51.692C50.3582 51.204 50.2342 50.58 50.2342 49.82C50.2342 49.028 50.3622 48.384 50.6182 47.888C50.8822 47.392 51.2422 47.028 51.6982 46.796C52.1542 46.564 52.6702 46.448 53.2462 46.448C53.5662 46.448 53.8782 46.484 54.1822 46.556C54.4942 46.62 54.7462 46.7 54.9382 46.796L54.6142 47.672C54.4222 47.6 54.1982 47.532 53.9422 47.468C53.6862 47.404 53.4462 47.372 53.2222 47.372C51.9582 47.372 51.3262 48.184 51.3262 49.808C51.3262 50.584 51.4782 51.18 51.7822 51.596C52.0942 52.004 52.5542 52.208 53.1622 52.208C53.5062 52.208 53.8142 52.172 54.0862 52.1C54.3582 52.028 54.6062 51.94 54.8302 51.836V52.772C54.6142 52.884 54.3742 52.968 54.1102 53.024C53.8542 53.088 53.5422 53.12 53.1742 53.12ZM57.4158 43.88V46.556C57.4158 46.876 57.3958 47.176 57.3558 47.456H57.4278C57.6358 47.128 57.9158 46.88 58.2678 46.712C58.6278 46.544 59.0158 46.46 59.4318 46.46C60.2078 46.46 60.7918 46.648 61.1838 47.024C61.5838 47.392 61.7838 47.988 61.7838 48.812V53H60.7398V48.884C60.7398 47.852 60.2598 47.336 59.2998 47.336C58.5798 47.336 58.0838 47.54 57.8118 47.948C57.5478 48.348 57.4158 48.924 57.4158 49.676V53H56.3598V43.88H57.4158ZM64.3178 44.156C64.4778 44.156 64.6178 44.212 64.7378 44.324C64.8658 44.428 64.9298 44.596 64.9298 44.828C64.9298 45.06 64.8658 45.232 64.7378 45.344C64.6178 45.448 64.4778 45.5 64.3178 45.5C64.1418 45.5 63.9938 45.448 63.8738 45.344C63.7538 45.232 63.6938 45.06 63.6938 44.828C63.6938 44.596 63.7538 44.428 63.8738 44.324C63.9938 44.212 64.1418 44.156 64.3178 44.156ZM64.8338 46.568V53H63.7778V46.568H64.8338ZM69.9676 46.448C70.7356 46.448 71.3156 46.636 71.7076 47.012C72.0996 47.388 72.2956 47.988 72.2956 48.812V53H71.2516V48.884C71.2516 47.852 70.7716 47.336 69.8116 47.336C69.0996 47.336 68.6076 47.536 68.3356 47.936C68.0636 48.336 67.9276 48.912 67.9276 49.664V53H66.8716V46.568H67.7236L67.8796 47.444H67.9396C68.1476 47.108 68.4356 46.86 68.8036 46.7C69.1716 46.532 69.5596 46.448 69.9676 46.448ZM76.5695 46.448C76.9935 46.448 77.3735 46.528 77.7095 46.688C78.0535 46.848 78.3455 47.092 78.5855 47.42H78.6455L78.7895 46.568H79.6295V53.108C79.6295 54.028 79.3935 54.72 78.9215 55.184C78.4575 55.648 77.7335 55.88 76.7495 55.88C75.8055 55.88 75.0335 55.744 74.4335 55.472V54.5C75.0655 54.836 75.8575 55.004 76.8095 55.004C77.3615 55.004 77.7935 54.84 78.1055 54.512C78.4255 54.192 78.5855 53.752 78.5855 53.192V52.94C78.5855 52.844 78.5895 52.708 78.5975 52.532C78.6055 52.348 78.6135 52.22 78.6215 52.148H78.5735C78.1415 52.796 77.4775 53.12 76.5815 53.12C75.7495 53.12 75.0975 52.828 74.6255 52.244C74.1615 51.66 73.9295 50.844 73.9295 49.796C73.9295 48.772 74.1615 47.96 74.6255 47.36C75.0975 46.752 75.7455 46.448 76.5695 46.448ZM76.7135 47.336C76.1775 47.336 75.7615 47.552 75.4655 47.984C75.1695 48.408 75.0215 49.016 75.0215 49.808C75.0215 50.6 75.1655 51.208 75.4535 51.632C75.7415 52.048 76.1695 52.256 76.7375 52.256C77.3855 52.256 77.8575 52.084 78.1535 51.74C78.4495 51.388 78.5975 50.824 78.5975 50.048V49.796C78.5975 48.924 78.4455 48.296 78.1415 47.912C77.8375 47.528 77.3615 47.336 76.7135 47.336ZM81.5163 47.216C81.5163 46.912 81.5883 46.7 81.7323 46.58C81.8763 46.46 82.0483 46.4 82.2483 46.4C82.4483 46.4 82.6243 46.46 82.7763 46.58C82.9283 46.7 83.0043 46.912 83.0043 47.216C83.0043 47.504 82.9283 47.712 82.7763 47.84C82.6243 47.968 82.4483 48.032 82.2483 48.032C82.0483 48.032 81.8763 47.968 81.7323 47.84C81.5883 47.712 81.5163 47.504 81.5163 47.216ZM81.5163 52.352C81.5163 52.056 81.5883 51.848 81.7323 51.728C81.8763 51.608 82.0483 51.548 82.2483 51.548C82.4483 51.548 82.6243 51.608 82.7763 51.728C82.9283 51.848 83.0043 52.056 83.0043 52.352C83.0043 52.64 82.9283 52.848 82.7763 52.976C82.6243 53.104 82.4483 53.168 82.2483 53.168C82.0483 53.168 81.8763 53.104 81.7323 52.976C81.5883 52.848 81.5163 52.64 81.5163 52.352ZM93.5205 53L92.4885 50.348H89.0925L88.0725 53H86.9805L90.3285 44.396H91.3005L94.6365 53H93.5205ZM92.1645 49.388L91.2045 46.796C91.1805 46.732 91.1405 46.616 91.0845 46.448C91.0285 46.28 90.9725 46.108 90.9165 45.932C90.8685 45.748 90.8285 45.608 90.7965 45.512C90.7325 45.76 90.6645 46.004 90.5925 46.244C90.5285 46.476 90.4725 46.66 90.4245 46.796L89.4525 49.388H92.1645ZM99.8525 51.224C99.8525 51.848 99.6205 52.32 99.1565 52.64C98.6925 52.96 98.0685 53.12 97.2845 53.12C96.8365 53.12 96.4485 53.084 96.1205 53.012C95.8005 52.94 95.5165 52.84 95.2685 52.712V51.752C95.5245 51.88 95.8325 52 96.1925 52.112C96.5605 52.216 96.9325 52.268 97.3085 52.268C97.8445 52.268 98.2325 52.184 98.4725 52.016C98.7125 51.84 98.8325 51.608 98.8325 51.32C98.8325 51.16 98.7885 51.016 98.7005 50.888C98.6125 50.76 98.4525 50.632 98.2205 50.504C97.9965 50.376 97.6725 50.232 97.2485 50.072C96.8325 49.912 96.4765 49.752 96.1805 49.592C95.8845 49.432 95.6565 49.24 95.4965 49.016C95.3365 48.792 95.2565 48.504 95.2565 48.152C95.2565 47.608 95.4765 47.188 95.9165 46.892C96.3645 46.596 96.9485 46.448 97.6685 46.448C98.0605 46.448 98.4245 46.488 98.7605 46.568C99.1045 46.648 99.4245 46.752 99.7205 46.88L99.3605 47.72C99.0885 47.608 98.8045 47.512 98.5085 47.432C98.2125 47.352 97.9085 47.312 97.5965 47.312C97.1645 47.312 96.8325 47.384 96.6005 47.528C96.3765 47.664 96.2645 47.852 96.2645 48.092C96.2645 48.276 96.3165 48.428 96.4205 48.548C96.5245 48.668 96.6965 48.788 96.9365 48.908C97.1845 49.028 97.5125 49.164 97.9205 49.316C98.3285 49.468 98.6765 49.624 98.9645 49.784C99.2525 49.944 99.4725 50.14 99.6245 50.372C99.7765 50.596 99.8525 50.88 99.8525 51.224ZM102.463 43.88V46.556C102.463 46.876 102.443 47.176 102.403 47.456H102.475C102.683 47.128 102.963 46.88 103.315 46.712C103.675 46.544 104.063 46.46 104.479 46.46C105.255 46.46 105.839 46.648 106.231 47.024C106.631 47.392 106.831 47.988 106.831 48.812V53H105.787V48.884C105.787 47.852 105.307 47.336 104.347 47.336C103.627 47.336 103.131 47.54 102.859 47.948C102.595 48.348 102.463 48.924 102.463 49.676V53H101.407V43.88H102.463ZM109.881 53H108.825V43.88H109.881V53ZM110.91 46.568H112.038L113.43 50.228C113.55 50.556 113.658 50.864 113.754 51.152C113.85 51.44 113.922 51.716 113.97 51.98H114.018C114.066 51.78 114.142 51.52 114.246 51.2C114.35 50.872 114.458 50.544 114.57 50.216L115.878 46.568H117.018L114.246 53.888C114.014 54.496 113.722 54.98 113.37 55.34C113.018 55.7 112.53 55.88 111.906 55.88C111.714 55.88 111.546 55.868 111.402 55.844C111.258 55.828 111.134 55.808 111.03 55.784V54.944C111.118 54.96 111.222 54.976 111.342 54.992C111.47 55.008 111.602 55.016 111.738 55.016C112.106 55.016 112.402 54.912 112.626 54.704C112.85 54.496 113.03 54.22 113.166 53.876L113.502 53.024L110.91 46.568ZM121.132 46.448C121.9 46.448 122.48 46.636 122.872 47.012C123.264 47.388 123.46 47.988 123.46 48.812V53H122.416V48.884C122.416 47.852 121.936 47.336 120.976 47.336C120.264 47.336 119.772 47.536 119.5 47.936C119.228 48.336 119.092 48.912 119.092 49.664V53H118.036V46.568H118.888L119.044 47.444H119.104C119.312 47.108 119.6 46.86 119.968 46.7C120.336 46.532 120.724 46.448 121.132 46.448ZM128.55 46.448C129.318 46.448 129.898 46.636 130.29 47.012C130.682 47.388 130.878 47.988 130.878 48.812V53H129.834V48.884C129.834 47.852 129.354 47.336 128.394 47.336C127.682 47.336 127.19 47.536 126.918 47.936C126.646 48.336 126.51 48.912 126.51 49.664V53H125.454V46.568H126.306L126.462 47.444H126.522C126.73 47.108 127.018 46.86 127.386 46.7C127.754 46.532 128.142 46.448 128.55 46.448ZM138.401 44.432C139.521 44.432 140.337 44.652 140.849 45.092C141.361 45.532 141.617 46.152 141.617 46.952C141.617 47.424 141.509 47.868 141.293 48.284C141.085 48.692 140.729 49.024 140.225 49.28C139.729 49.536 139.053 49.664 138.197 49.664H137.213V53H136.133V44.432H138.401ZM138.305 45.356H137.213V48.74H138.077C138.893 48.74 139.501 48.608 139.901 48.344C140.301 48.08 140.501 47.632 140.501 47C140.501 46.448 140.321 46.036 139.961 45.764C139.609 45.492 139.057 45.356 138.305 45.356ZM144.31 43.88V46.556C144.31 46.876 144.29 47.176 144.25 47.456H144.322C144.53 47.128 144.81 46.88 145.162 46.712C145.522 46.544 145.91 46.46 146.326 46.46C147.102 46.46 147.686 46.648 148.078 47.024C148.478 47.392 148.678 47.988 148.678 48.812V53H147.634V48.884C147.634 47.852 147.154 47.336 146.194 47.336C145.474 47.336 144.978 47.54 144.706 47.948C144.442 48.348 144.31 48.924 144.31 49.676V53H143.254V43.88H144.31ZM151.212 44.156C151.372 44.156 151.512 44.212 151.632 44.324C151.76 44.428 151.824 44.596 151.824 44.828C151.824 45.06 151.76 45.232 151.632 45.344C151.512 45.448 151.372 45.5 151.212 45.5C151.036 45.5 150.888 45.448 150.768 45.344C150.648 45.232 150.588 45.06 150.588 44.828C150.588 44.596 150.648 44.428 150.768 44.324C150.888 44.212 151.036 44.156 151.212 44.156ZM151.728 46.568V53H150.672V46.568H151.728ZM154.822 53H153.766V43.88H154.822V53ZM157.4 44.156C157.56 44.156 157.7 44.212 157.82 44.324C157.948 44.428 158.012 44.596 158.012 44.828C158.012 45.06 157.948 45.232 157.82 45.344C157.7 45.448 157.56 45.5 157.4 45.5C157.224 45.5 157.076 45.448 156.956 45.344C156.836 45.232 156.776 45.06 156.776 44.828C156.776 44.596 156.836 44.428 156.956 44.324C157.076 44.212 157.224 44.156 157.4 44.156ZM157.916 46.568V53H156.86V46.568H157.916ZM163.014 46.448C163.806 46.448 164.442 46.724 164.922 47.276C165.41 47.828 165.654 48.66 165.654 49.772C165.654 50.868 165.41 51.7 164.922 52.268C164.442 52.836 163.802 53.12 163.002 53.12C162.506 53.12 162.094 53.028 161.766 52.844C161.446 52.66 161.194 52.44 161.01 52.184H160.938C160.946 52.32 160.958 52.492 160.974 52.7C160.998 52.908 161.01 53.088 161.01 53.24V55.88H159.954V46.568H160.818L160.962 47.444H161.01C161.202 47.164 161.454 46.928 161.766 46.736C162.078 46.544 162.494 46.448 163.014 46.448ZM162.822 47.336C162.166 47.336 161.702 47.52 161.43 47.888C161.158 48.256 161.018 48.816 161.01 49.568V49.772C161.01 50.564 161.138 51.176 161.394 51.608C161.658 52.032 162.142 52.244 162.846 52.244C163.23 52.244 163.55 52.14 163.806 51.932C164.062 51.716 164.25 51.42 164.37 51.044C164.498 50.668 164.562 50.24 164.562 49.76C164.562 49.024 164.418 48.436 164.13 47.996C163.85 47.556 163.414 47.336 162.822 47.336ZM171.524 51.224C171.524 51.848 171.292 52.32 170.828 52.64C170.364 52.96 169.74 53.12 168.956 53.12C168.508 53.12 168.12 53.084 167.792 53.012C167.472 52.94 167.188 52.84 166.94 52.712V51.752C167.196 51.88 167.504 52 167.864 52.112C168.232 52.216 168.604 52.268 168.98 52.268C169.516 52.268 169.904 52.184 170.144 52.016C170.384 51.84 170.504 51.608 170.504 51.32C170.504 51.16 170.46 51.016 170.372 50.888C170.284 50.76 170.124 50.632 169.892 50.504C169.668 50.376 169.344 50.232 168.92 50.072C168.504 49.912 168.148 49.752 167.852 49.592C167.556 49.432 167.328 49.24 167.168 49.016C167.008 48.792 166.928 48.504 166.928 48.152C166.928 47.608 167.148 47.188 167.588 46.892C168.036 46.596 168.62 46.448 169.34 46.448C169.732 46.448 170.096 46.488 170.432 46.568C170.776 46.648 171.096 46.752 171.392 46.88L171.032 47.72C170.76 47.608 170.476 47.512 170.18 47.432C169.884 47.352 169.58 47.312 169.268 47.312C168.836 47.312 168.504 47.384 168.272 47.528C168.048 47.664 167.936 47.852 167.936 48.092C167.936 48.276 167.988 48.428 168.092 48.548C168.196 48.668 168.368 48.788 168.608 48.908C168.856 49.028 169.184 49.164 169.592 49.316C170 49.468 170.348 49.624 170.636 49.784C170.924 49.944 171.144 50.14 171.296 50.372C171.448 50.596 171.524 50.88 171.524 51.224Z" fill="black"/>
<rect x="0.5" y="36.5" width="180" height="23" rx="3.5" stroke="#BF73E5"/>
<rect x="0.5" y="72.5" width="176" height="23" rx="3.5" fill="#F7EDFC"/>
<path fill-rule="evenodd" clip-rule="evenodd" d="M19.6071 78.3583C19.5435 78.3762 19.4799 78.3942 19.416 78.4102L19.4064 78.4124C19.3529 78.4243 19.3254 78.4427 19.3097 78.457C19.2929 78.4722 19.2763 78.4951 19.2625 78.531C19.2319 78.6104 19.2266 78.7249 19.2449 78.8347C19.274 79.0096 19.323 79.4089 19.3675 79.7723C19.3987 80.0266 19.4277 80.2633 19.4462 80.3933L19.4472 80.3998C19.4489 80.4136 19.451 80.422 19.4526 80.4267C19.4572 80.4294 19.4666 80.4339 19.483 80.4392C19.5199 80.451 19.5749 80.4606 19.6552 80.4659C19.7352 80.4712 19.8224 80.4714 19.925 80.4714C19.9348 80.4714 19.9447 80.4714 19.9546 80.4714C20.1282 80.4712 20.3223 80.471 20.4892 80.515C20.7066 80.5722 20.8734 80.6981 20.9966 80.9034C21.1054 81.0849 21.1904 81.3611 21.2493 81.6619C21.3102 81.9734 21.35 82.3475 21.35 82.7464C21.35 83.1453 21.3102 83.5194 21.2493 83.8309C21.1904 84.1316 21.1054 84.4078 20.9966 84.5893C20.8845 84.7761 20.7297 84.921 20.5067 84.9915C20.3152 85.0519 20.107 85.0456 19.9028 85.0214C19.7179 85.0225 19.5824 85.0368 19.4958 85.068C19.466 85.0787 19.4524 85.0879 19.4477 85.0916C19.4473 85.0932 19.4468 85.0957 19.4462 85.0994C19.4438 85.1163 19.4403 85.133 19.4356 85.1494C19.3966 85.2859 19.3616 85.5622 19.3293 85.8782C19.3215 85.9548 19.3138 86.0339 19.3063 86.112C19.2871 86.3096 19.2687 86.5001 19.2502 86.6244C19.2519 86.7515 19.2654 86.8717 19.3 86.9618C19.331 87.0423 19.3643 87.0688 19.4124 87.0817C19.4968 87.1005 19.5783 87.1217 19.6578 87.1424C20.0829 87.2528 20.4516 87.3486 20.8933 87.0015C21.4705 86.548 22.25 85.3298 22.25 82.7464C22.25 80.1512 21.5146 78.9471 20.9032 78.4988C20.4046 78.1331 20.0051 78.2459 19.6071 78.3583ZM19.4484 85.0891C19.4484 85.0891 19.4484 85.0893 19.4482 85.0897ZM19.3714 77.6434C19.7695 77.5245 20.5321 77.2966 21.3468 77.894C22.2354 78.5457 23 80.0415 23 82.7464C23 85.4629 22.1795 86.9448 21.3567 87.5912C20.5968 88.1883 19.834 87.9749 19.4101 87.8563C19.3466 87.8385 19.2908 87.8229 19.2437 87.8124L19.234 87.8102C18.8841 87.7227 18.6933 87.4735 18.6 87.231C18.5122 87.0026 18.5 86.759 18.5 86.5964C18.5 86.5757 18.5017 86.5551 18.5051 86.5347C18.5209 86.4402 18.5368 86.2761 18.5563 86.0744C18.5645 85.9895 18.5734 85.8979 18.5832 85.8021C18.6124 85.5161 18.6506 85.1815 18.708 84.9666C18.7664 84.6321 19.003 84.4482 19.2417 84.3623C19.4642 84.2822 19.7213 84.2714 19.925 84.2714C19.9405 84.2714 19.9561 84.2723 19.9715 84.2743C20.1595 84.2978 20.2424 84.2884 20.2808 84.2763C20.2947 84.2719 20.3018 84.2674 20.3083 84.2618C20.3164 84.255 20.3319 84.2393 20.3534 84.2034C20.3946 84.1349 20.4596 83.9611 20.5132 83.6869C20.5648 83.4234 20.6 83.0975 20.6 82.7464C20.6 82.3953 20.5648 82.0694 20.5132 81.8059C20.4596 81.5316 20.3946 81.3578 20.3534 81.2893C20.3353 81.2591 20.3246 81.251 20.3234 81.25C20.3231 81.2498 20.3184 81.2456 20.2983 81.2403C20.2746 81.234 20.2364 81.2281 20.1709 81.2248C20.105 81.2215 20.0277 81.2214 19.925 81.2214C19.9165 81.2214 19.9079 81.2214 19.8991 81.2214C19.7192 81.2216 19.4678 81.2218 19.2545 81.1535C19.133 81.1147 19.0016 81.0477 18.8943 80.9289C18.7853 80.8081 18.7243 80.6593 18.7034 80.4965C18.6795 80.3289 18.6484 80.0732 18.6168 79.813C18.5756 79.4748 18.5336 79.1287 18.5051 78.958C18.4734 78.7678 18.4681 78.5073 18.5625 78.2618C18.6643 77.9972 18.8799 77.7631 19.238 77.6816C19.2762 77.6719 19.3208 77.6585 19.3714 77.6434Z" fill="#8832B3"/>
<path fill-rule="evenodd" clip-rule="evenodd" d="M12.5344 77.6341C12.5997 77.6529 12.6574 77.6694 12.7063 77.6803C13.0519 77.7571 13.277 77.9667 13.3857 78.2383C13.4837 78.4834 13.4751 78.7475 13.4462 78.9494C13.4309 79.0567 13.4159 79.2117 13.3983 79.3931C13.3887 79.4921 13.3783 79.599 13.3667 79.7102C13.3375 79.9905 13.2995 80.3097 13.2429 80.5229C13.2189 80.6754 13.1588 80.8147 13.0557 80.9289C12.9484 81.0477 12.817 81.1147 12.6955 81.1535C12.4822 81.2218 12.2308 81.2216 12.0509 81.2214C12.0421 81.2214 12.0335 81.2214 12.025 81.2214C11.9223 81.2214 11.845 81.2215 11.7791 81.2248C11.7136 81.2281 11.6754 81.234 11.6517 81.2403C11.6324 81.2454 11.6273 81.2494 11.6267 81.25C11.6255 81.2509 11.6147 81.2591 11.5966 81.2893C11.5554 81.3578 11.4904 81.5316 11.4368 81.8059C11.3852 82.0694 11.35 82.3953 11.35 82.7464C11.35 83.0975 11.3852 83.4234 11.4368 83.6869C11.4904 83.9611 11.5554 84.1349 11.5966 84.2034C11.6181 84.2393 11.6336 84.255 11.6417 84.2618C11.6482 84.2674 11.6553 84.2719 11.6692 84.2763C11.7076 84.2884 11.7905 84.2978 11.9785 84.2743C11.9939 84.2723 12.0095 84.2714 12.025 84.2714C12.2287 84.2714 12.4858 84.2822 12.7083 84.3623C12.9468 84.4481 13.1831 84.6317 13.2418 84.9656C13.2966 85.1644 13.3589 85.4817 13.4076 85.7797C13.4572 86.0835 13.5 86.4118 13.5 86.5964C13.5 86.759 13.4878 87.0026 13.4 87.231C13.3067 87.4735 13.1159 87.7227 12.766 87.8102L12.7563 87.8124C12.7092 87.8229 12.6534 87.8385 12.5899 87.8563C12.166 87.9749 11.4032 88.1883 10.6433 87.5912C9.82052 86.9448 9 85.4629 9 82.7464C9 80.0298 9.82052 78.548 10.6433 77.9015C11.3984 77.3082 12.1199 77.5152 12.5344 77.6341ZM12.2775 78.3456C11.8709 78.2371 11.5419 78.1493 11.1067 78.4912C10.5295 78.9448 9.75 80.1629 9.75 82.7464C9.75 85.3298 10.5295 86.548 11.1067 87.0015C11.5484 87.3486 11.9171 87.2528 12.3422 87.1424C12.4217 87.1217 12.5032 87.1005 12.5876 87.0817C12.6357 87.0688 12.669 87.0423 12.7 86.9618C12.7372 86.8651 12.75 86.7338 12.75 86.5964C12.75 86.4809 12.7178 86.2092 12.6674 85.9005C12.6179 85.5975 12.5582 85.3026 12.5144 85.1494C12.5097 85.133 12.5062 85.1163 12.5038 85.0994C12.5032 85.0957 12.5027 85.0932 12.5023 85.0916C12.4976 85.0879 12.484 85.0787 12.4542 85.068C12.3676 85.0368 12.2321 85.0225 12.0472 85.0214C11.843 85.0456 11.6348 85.0519 11.4433 84.9915C11.2203 84.921 11.0655 84.7761 10.9534 84.5893C10.8446 84.4078 10.7596 84.1316 10.7007 83.8309C10.6398 83.5194 10.6 83.1453 10.6 82.7464C10.6 82.3475 10.6398 81.9734 10.7007 81.6619C10.7596 81.3611 10.8446 81.0849 10.9534 80.9034C11.0766 80.6981 11.2434 80.5722 11.4608 80.515C11.6277 80.471 11.8218 80.4712 11.9954 80.4714C12.0053 80.4714 12.0152 80.4714 12.025 80.4714C12.1276 80.4714 12.2148 80.4712 12.2948 80.4659C12.3751 80.4606 12.4301 80.451 12.467 80.4392C12.4834 80.4339 12.4928 80.4294 12.4974 80.4267C12.499 80.422 12.5012 80.4136 12.5029 80.3999C12.5053 80.3808 12.5091 80.3619 12.5144 80.3433C12.5537 80.2059 12.5887 79.9403 12.6208 79.6325C12.6305 79.5393 12.6399 79.4422 12.6491 79.3474C12.6681 79.1526 12.6861 78.9672 12.7038 78.8433C12.7249 78.6952 12.7163 78.5843 12.6893 78.5169C12.6778 78.4881 12.6644 78.4706 12.6495 78.458C12.6346 78.4454 12.6046 78.426 12.5437 78.4124C12.4504 78.3917 12.3623 78.3682 12.2775 78.3456ZM12.5008 80.4245C12.5011 80.4242 12.5013 80.4241 12.5013 80.4241ZM12.5016 85.0891C12.5016 85.0891 12.5017 85.0893 12.5018 85.0897Z" fill="#8832B3"/>
<path fill-rule="evenodd" clip-rule="evenodd" d="M15.975 80.9214C16.0745 80.9214 16.1698 80.9609 16.2402 81.0312L18.1402 82.9312C18.2866 83.0777 18.2866 83.3151 18.1402 83.4615C17.9937 83.608 17.7563 83.608 17.6098 83.4615L15.975 81.8267L14.3402 83.4615C14.1937 83.608 13.9563 83.608 13.8098 83.4615C13.6634 83.3151 13.6634 83.0777 13.8098 82.9312L15.7098 81.0312C15.7802 80.9609 15.8755 80.9214 15.975 80.9214Z" fill="#8832B3"/>
<path fill-rule="evenodd" clip-rule="evenodd" d="M15.975 80.9214C16.1821 80.9214 16.35 81.0893 16.35 81.2964V89.7464C16.35 89.9535 16.1821 90.1214 15.975 90.1214C15.7679 90.1214 15.6 89.9535 15.6 89.7464V81.2964C15.6 81.0893 15.7679 80.9214 15.975 80.9214Z" fill="#8832B3"/>
<path d="M15.975 79.7464C16.1959 79.7464 16.375 79.5673 16.375 79.3464C16.375 79.1255 16.1959 78.9464 15.975 78.9464C15.7541 78.9464 15.575 79.1255 15.575 79.3464C15.575 79.5673 15.7541 79.7464 15.975 79.7464Z" fill="#8832B3"/>
<path d="M17.325 79.7464C17.5459 79.7464 17.725 79.5673 17.725 79.3464C17.725 79.1255 17.5459 78.9464 17.325 78.9464C17.1041 78.9464 16.925 79.1255 16.925 79.3464C16.925 79.5673 17.1041 79.7464 17.325 79.7464Z" fill="#8832B3"/>
<path d="M14.625 79.7464C14.8459 79.7464 15.025 79.5673 15.025 79.3464C15.025 79.1255 14.8459 78.9464 14.625 78.9464C14.4041 78.9464 14.225 79.1255 14.225 79.3464C14.225 79.5673 14.4041 79.7464 14.625 79.7464Z" fill="#8832B3"/>
<path d="M29.164 80.432H31.612C32.676 80.432 33.484 80.592 34.036 80.912C34.588 81.232 34.864 81.78 34.864 82.556C34.864 83.06 34.724 83.48 34.444 83.816C34.164 84.144 33.76 84.356 33.232 84.452V84.512C33.592 84.576 33.916 84.684 34.204 84.836C34.5 84.988 34.732 85.204 34.9 85.484C35.068 85.764 35.152 86.124 35.152 86.564C35.152 87.34 34.884 87.94 34.348 88.364C33.82 88.788 33.096 89 32.176 89H29.164V80.432ZM30.244 84.08H31.828C32.556 84.08 33.056 83.964 33.328 83.732C33.608 83.492 33.748 83.14 33.748 82.676C33.748 82.204 33.58 81.868 33.244 81.668C32.916 81.46 32.388 81.356 31.66 81.356H30.244V84.08ZM30.244 84.98V88.088H31.972C32.732 88.088 33.26 87.94 33.556 87.644C33.852 87.348 34 86.96 34 86.48C34 86.032 33.844 85.672 33.532 85.4C33.228 85.12 32.68 84.98 31.888 84.98H30.244ZM39.2607 82.46C40.0447 82.46 40.6247 82.632 41.0007 82.976C41.3767 83.32 41.5647 83.868 41.5647 84.62V89H40.7967L40.5927 88.088H40.5447C40.2647 88.44 39.9687 88.7 39.6567 88.868C39.3447 89.036 38.9207 89.12 38.3847 89.12C37.8007 89.12 37.3167 88.968 36.9327 88.664C36.5487 88.352 36.3567 87.868 36.3567 87.212C36.3567 86.572 36.6087 86.08 37.1127 85.736C37.6167 85.384 38.3927 85.192 39.4407 85.16L40.5327 85.124V84.74C40.5327 84.204 40.4167 83.832 40.1847 83.624C39.9527 83.416 39.6247 83.312 39.2007 83.312C38.8647 83.312 38.5447 83.364 38.2407 83.468C37.9367 83.564 37.6527 83.676 37.3887 83.804L37.0647 83.012C37.3447 82.86 37.6767 82.732 38.0607 82.628C38.4447 82.516 38.8447 82.46 39.2607 82.46ZM40.5207 85.856L39.5727 85.892C38.7727 85.924 38.2167 86.052 37.9047 86.276C37.6007 86.5 37.4487 86.816 37.4487 87.224C37.4487 87.584 37.5567 87.848 37.7727 88.016C37.9967 88.184 38.2807 88.268 38.6247 88.268C39.1607 88.268 39.6087 88.12 39.9687 87.824C40.3367 87.52 40.5207 87.056 40.5207 86.432V85.856ZM46.5513 82.448C46.6713 82.448 46.7993 82.456 46.9353 82.472C47.0713 82.48 47.1953 82.496 47.3073 82.52L47.1753 83.492C47.0713 83.468 46.9553 83.448 46.8273 83.432C46.6993 83.416 46.5833 83.408 46.4793 83.408C46.1513 83.408 45.8433 83.5 45.5553 83.684C45.2673 83.86 45.0353 84.112 44.8593 84.44C44.6913 84.76 44.6073 85.136 44.6073 85.568V89H43.5513V82.568H44.4153L44.5353 83.744H44.5833C44.7833 83.392 45.0473 83.088 45.3753 82.832C45.7113 82.576 46.1033 82.448 46.5513 82.448ZM50.6711 82.448C51.0951 82.448 51.4751 82.528 51.8111 82.688C52.1551 82.848 52.4471 83.092 52.6871 83.42H52.7471L52.8911 82.568H53.7311V89.108C53.7311 90.028 53.4951 90.72 53.0231 91.184C52.5591 91.648 51.8351 91.88 50.8511 91.88C49.9071 91.88 49.1351 91.744 48.5351 91.472V90.5C49.1671 90.836 49.9591 91.004 50.9111 91.004C51.4631 91.004 51.8951 90.84 52.2071 90.512C52.5271 90.192 52.6871 89.752 52.6871 89.192V88.94C52.6871 88.844 52.6911 88.708 52.6991 88.532C52.7071 88.348 52.7151 88.22 52.7231 88.148H52.6751C52.2431 88.796 51.5791 89.12 50.6831 89.12C49.8511 89.12 49.1991 88.828 48.7271 88.244C48.2631 87.66 48.0311 86.844 48.0311 85.796C48.0311 84.772 48.2631 83.96 48.7271 83.36C49.1991 82.752 49.8471 82.448 50.6711 82.448ZM50.8151 83.336C50.2791 83.336 49.8631 83.552 49.5671 83.984C49.2711 84.408 49.1231 85.016 49.1231 85.808C49.1231 86.6 49.2671 87.208 49.5551 87.632C49.8431 88.048 50.2711 88.256 50.8391 88.256C51.4871 88.256 51.9591 88.084 52.2551 87.74C52.5511 87.388 52.6991 86.824 52.6991 86.048V85.796C52.6991 84.924 52.5471 84.296 52.2431 83.912C51.9391 83.528 51.4631 83.336 50.8151 83.336ZM58.2579 82.448C58.8019 82.448 59.2739 82.568 59.6739 82.808C60.0739 83.048 60.3779 83.388 60.5859 83.828C60.8019 84.26 60.9099 84.768 60.9099 85.352V85.988H56.5059C56.5219 86.716 56.7059 87.272 57.0579 87.656C57.4179 88.032 57.9179 88.22 58.5579 88.22C58.9659 88.22 59.3259 88.184 59.6379 88.112C59.9579 88.032 60.2859 87.92 60.6219 87.776V88.7C60.2939 88.844 59.9699 88.948 59.6499 89.012C59.3299 89.084 58.9499 89.12 58.5099 89.12C57.8939 89.12 57.3539 88.996 56.8899 88.748C56.4259 88.5 56.0619 88.132 55.7979 87.644C55.5419 87.156 55.4139 86.552 55.4139 85.832C55.4139 85.128 55.5299 84.524 55.7619 84.02C56.0019 83.516 56.3339 83.128 56.7579 82.856C57.1899 82.584 57.6899 82.448 58.2579 82.448ZM58.2459 83.312C57.7419 83.312 57.3419 83.476 57.0459 83.804C56.7579 84.124 56.5859 84.572 56.5299 85.148H59.8059C59.7979 84.604 59.6699 84.164 59.4219 83.828C59.1739 83.484 58.7819 83.312 58.2459 83.312ZM62.0073 86.252V85.316H64.9113V86.252H62.0073ZM68.9705 89H65.8745V88.376L66.8825 88.148V81.296L65.8745 81.056V80.432H68.9705V81.056L67.9625 81.296V88.148L68.9705 88.376V89ZM73.5769 82.448C74.3449 82.448 74.9249 82.636 75.3169 83.012C75.7089 83.388 75.9049 83.988 75.9049 84.812V89H74.8609V84.884C74.8609 83.852 74.3809 83.336 73.4209 83.336C72.7089 83.336 72.2169 83.536 71.9449 83.936C71.6729 84.336 71.5369 84.912 71.5369 85.664V89H70.4809V82.568H71.3329L71.4889 83.444H71.5489C71.7569 83.108 72.0449 82.86 72.4129 82.7C72.7809 82.532 73.1689 82.448 73.5769 82.448ZM77.7429 83.216C77.7429 82.912 77.8149 82.7 77.9589 82.58C78.1029 82.46 78.2749 82.4 78.4749 82.4C78.6749 82.4 78.8509 82.46 79.0029 82.58C79.1549 82.7 79.2309 82.912 79.2309 83.216C79.2309 83.504 79.1549 83.712 79.0029 83.84C78.8509 83.968 78.6749 84.032 78.4749 84.032C78.2749 84.032 78.1029 83.968 77.9589 83.84C77.8149 83.712 77.7429 83.504 77.7429 83.216ZM77.7429 88.352C77.7429 88.056 77.8149 87.848 77.9589 87.728C78.1029 87.608 78.2749 87.548 78.4749 87.548C78.6749 87.548 78.8509 87.608 79.0029 87.728C79.1549 87.848 79.2309 88.056 79.2309 88.352C79.2309 88.64 79.1549 88.848 79.0029 88.976C78.8509 89.104 78.6749 89.168 78.4749 89.168C78.2749 89.168 78.1029 89.104 77.9589 88.976C77.8149 88.848 77.7429 88.64 77.7429 88.352ZM89.747 89L88.715 86.348H85.319L84.299 89H83.207L86.555 80.396H87.527L90.863 89H89.747ZM88.391 85.388L87.431 82.796C87.407 82.732 87.367 82.616 87.311 82.448C87.255 82.28 87.199 82.108 87.143 81.932C87.095 81.748 87.055 81.608 87.023 81.512C86.959 81.76 86.891 82.004 86.819 82.244C86.755 82.476 86.699 82.66 86.651 82.796L85.679 85.388H88.391ZM96.0791 87.224C96.0791 87.848 95.8471 88.32 95.3831 88.64C94.9191 88.96 94.2951 89.12 93.5111 89.12C93.0631 89.12 92.6751 89.084 92.3471 89.012C92.0271 88.94 91.7431 88.84 91.4951 88.712V87.752C91.7511 87.88 92.0591 88 92.4191 88.112C92.7871 88.216 93.1591 88.268 93.5351 88.268C94.0711 88.268 94.4591 88.184 94.6991 88.016C94.9391 87.84 95.0591 87.608 95.0591 87.32C95.0591 87.16 95.0151 87.016 94.9271 86.888C94.8391 86.76 94.6791 86.632 94.4471 86.504C94.2231 86.376 93.8991 86.232 93.4751 86.072C93.0591 85.912 92.7031 85.752 92.4071 85.592C92.1111 85.432 91.8831 85.24 91.7231 85.016C91.5631 84.792 91.4831 84.504 91.4831 84.152C91.4831 83.608 91.7031 83.188 92.1431 82.892C92.5911 82.596 93.1751 82.448 93.8951 82.448C94.2871 82.448 94.6511 82.488 94.9871 82.568C95.3311 82.648 95.6511 82.752 95.9471 82.88L95.5871 83.72C95.3151 83.608 95.0311 83.512 94.7351 83.432C94.4391 83.352 94.1351 83.312 93.8231 83.312C93.3911 83.312 93.0591 83.384 92.8271 83.528C92.6031 83.664 92.4911 83.852 92.4911 84.092C92.4911 84.276 92.5431 84.428 92.6471 84.548C92.7511 84.668 92.9231 84.788 93.1631 84.908C93.4111 85.028 93.7391 85.164 94.1471 85.316C94.5551 85.468 94.9031 85.624 95.1911 85.784C95.4791 85.944 95.6991 86.14 95.8511 86.372C96.0031 86.596 96.0791 86.88 96.0791 87.224ZM98.6893 79.88V82.556C98.6893 82.876 98.6693 83.176 98.6293 83.456H98.7013C98.9093 83.128 99.1893 82.88 99.5413 82.712C99.9013 82.544 100.289 82.46 100.705 82.46C101.481 82.46 102.065 82.648 102.457 83.024C102.857 83.392 103.057 83.988 103.057 84.812V89H102.013V84.884C102.013 83.852 101.533 83.336 100.573 83.336C99.8533 83.336 99.3573 83.54 99.0853 83.948C98.8213 84.348 98.6893 84.924 98.6893 85.676V89H97.6333V79.88H98.6893ZM106.107 89H105.051V79.88H106.107V89ZM107.137 82.568H108.265L109.657 86.228C109.777 86.556 109.885 86.864 109.981 87.152C110.077 87.44 110.149 87.716 110.197 87.98H110.245C110.293 87.78 110.369 87.52 110.473 87.2C110.577 86.872 110.685 86.544 110.797 86.216L112.105 82.568H113.245L110.473 89.888C110.241 90.496 109.949 90.98 109.597 91.34C109.245 91.7 108.757 91.88 108.133 91.88C107.941 91.88 107.773 91.868 107.629 91.844C107.485 91.828 107.361 91.808 107.257 91.784V90.944C107.345 90.96 107.449 90.976 107.569 90.992C107.697 91.008 107.829 91.016 107.965 91.016C108.333 91.016 108.629 90.912 108.853 90.704C109.077 90.496 109.257 90.22 109.393 89.876L109.729 89.024L107.137 82.568ZM117.358 82.448C118.126 82.448 118.706 82.636 119.098 83.012C119.49 83.388 119.686 83.988 119.686 84.812V89H118.642V84.884C118.642 83.852 118.162 83.336 117.202 83.336C116.49 83.336 115.998 83.536 115.726 83.936C115.454 84.336 115.318 84.912 115.318 85.664V89H114.262V82.568H115.114L115.27 83.444H115.33C115.538 83.108 115.826 82.86 116.194 82.7C116.562 82.532 116.95 82.448 117.358 82.448ZM124.776 82.448C125.544 82.448 126.124 82.636 126.516 83.012C126.908 83.388 127.104 83.988 127.104 84.812V89H126.06V84.884C126.06 83.852 125.58 83.336 124.62 83.336C123.908 83.336 123.416 83.536 123.144 83.936C122.872 84.336 122.736 84.912 122.736 85.664V89H121.68V82.568H122.532L122.688 83.444H122.748C122.956 83.108 123.244 82.86 123.612 82.7C123.98 82.532 124.368 82.448 124.776 82.448ZM134.627 80.432C135.747 80.432 136.563 80.652 137.075 81.092C137.587 81.532 137.843 82.152 137.843 82.952C137.843 83.424 137.735 83.868 137.519 84.284C137.311 84.692 136.955 85.024 136.451 85.28C135.955 85.536 135.279 85.664 134.423 85.664H133.439V89H132.359V80.432H134.627ZM134.531 81.356H133.439V84.74H134.303C135.119 84.74 135.727 84.608 136.127 84.344C136.527 84.08 136.727 83.632 136.727 83C136.727 82.448 136.547 82.036 136.187 81.764C135.835 81.492 135.283 81.356 134.531 81.356ZM140.537 79.88V82.556C140.537 82.876 140.517 83.176 140.477 83.456H140.549C140.757 83.128 141.037 82.88 141.389 82.712C141.749 82.544 142.137 82.46 142.553 82.46C143.329 82.46 143.913 82.648 144.305 83.024C144.705 83.392 144.905 83.988 144.905 84.812V89H143.861V84.884C143.861 83.852 143.381 83.336 142.421 83.336C141.701 83.336 141.205 83.54 140.933 83.948C140.669 84.348 140.537 84.924 140.537 85.676V89H139.481V79.88H140.537ZM147.439 80.156C147.599 80.156 147.739 80.212 147.859 80.324C147.987 80.428 148.051 80.596 148.051 80.828C148.051 81.06 147.987 81.232 147.859 81.344C147.739 81.448 147.599 81.5 147.439 81.5C147.263 81.5 147.115 81.448 146.995 81.344C146.875 81.232 146.815 81.06 146.815 80.828C146.815 80.596 146.875 80.428 146.995 80.324C147.115 80.212 147.263 80.156 147.439 80.156ZM147.955 82.568V89H146.899V82.568H147.955ZM151.049 89H149.993V79.88H151.049V89ZM153.626 80.156C153.786 80.156 153.926 80.212 154.046 80.324C154.174 80.428 154.238 80.596 154.238 80.828C154.238 81.06 154.174 81.232 154.046 81.344C153.926 81.448 153.786 81.5 153.626 81.5C153.45 81.5 153.302 81.448 153.182 81.344C153.062 81.232 153.002 81.06 153.002 80.828C153.002 80.596 153.062 80.428 153.182 80.324C153.302 80.212 153.45 80.156 153.626 80.156ZM154.142 82.568V89H153.086V82.568H154.142ZM159.24 82.448C160.032 82.448 160.668 82.724 161.148 83.276C161.636 83.828 161.88 84.66 161.88 85.772C161.88 86.868 161.636 87.7 161.148 88.268C160.668 88.836 160.028 89.12 159.228 89.12C158.732 89.12 158.32 89.028 157.992 88.844C157.672 88.66 157.42 88.44 157.236 88.184H157.164C157.172 88.32 157.184 88.492 157.2 88.7C157.224 88.908 157.236 89.088 157.236 89.24V91.88H156.18V82.568H157.044L157.188 83.444H157.236C157.428 83.164 157.68 82.928 157.992 82.736C158.304 82.544 158.72 82.448 159.24 82.448ZM159.048 83.336C158.392 83.336 157.928 83.52 157.656 83.888C157.384 84.256 157.244 84.816 157.236 85.568V85.772C157.236 86.564 157.364 87.176 157.62 87.608C157.884 88.032 158.368 88.244 159.072 88.244C159.456 88.244 159.776 88.14 160.032 87.932C160.288 87.716 160.476 87.42 160.596 87.044C160.724 86.668 160.788 86.24 160.788 85.76C160.788 85.024 160.644 84.436 160.356 83.996C160.076 83.556 159.64 83.336 159.048 83.336ZM167.751 87.224C167.751 87.848 167.519 88.32 167.055 88.64C166.591 88.96 165.967 89.12 165.183 89.12C164.735 89.12 164.347 89.084 164.019 89.012C163.699 88.94 163.415 88.84 163.167 88.712V87.752C163.423 87.88 163.731 88 164.091 88.112C164.459 88.216 164.831 88.268 165.207 88.268C165.743 88.268 166.131 88.184 166.371 88.016C166.611 87.84 166.731 87.608 166.731 87.32C166.731 87.16 166.687 87.016 166.599 86.888C166.511 86.76 166.351 86.632 166.119 86.504C165.895 86.376 165.571 86.232 165.147 86.072C164.731 85.912 164.375 85.752 164.079 85.592C163.783 85.432 163.555 85.24 163.395 85.016C163.235 84.792 163.155 84.504 163.155 84.152C163.155 83.608 163.375 83.188 163.815 82.892C164.263 82.596 164.847 82.448 165.567 82.448C165.959 82.448 166.323 82.488 166.659 82.568C167.003 82.648 167.323 82.752 167.619 82.88L167.259 83.72C166.987 83.608 166.703 83.512 166.407 83.432C166.111 83.352 165.807 83.312 165.495 83.312C165.063 83.312 164.731 83.384 164.499 83.528C164.275 83.664 164.163 83.852 164.163 84.092C164.163 84.276 164.215 84.428 164.319 84.548C164.423 84.668 164.595 84.788 164.835 84.908C165.083 85.028 165.411 85.164 165.819 85.316C166.227 85.468 166.575 85.624 166.863 85.784C167.151 85.944 167.371 86.14 167.523 86.372C167.675 86.596 167.751 86.88 167.751 87.224Z" fill="black"/>
<rect x="0.5" y="72.5" width="176" height="23" rx="3.5" stroke="#BF73E5"/>
</svg>
