<svg width="78" height="36" viewBox="0 0 78 36" fill="none" xmlns="http://www.w3.org/2000/svg">
<rect width="78" height="36" rx="2" fill="#1473E6"/>
<path d="M23.028 20.326C23.028 21.2127 22.706 21.9033 22.062 22.398C21.418 22.8927 20.55 23.14 19.458 23.14C18.898 23.14 18.38 23.098 17.904 23.014C17.428 22.93 17.0313 22.8133 16.714 22.664V21.46C17.05 21.6093 17.4653 21.7447 17.96 21.866C18.464 21.9873 18.982 22.048 19.514 22.048C20.2513 22.048 20.8113 21.9033 21.194 21.614C21.5767 21.3247 21.768 20.9327 21.768 20.438C21.768 20.1113 21.698 19.836 21.558 19.612C21.418 19.388 21.1753 19.1827 20.83 18.996C20.4847 18.8093 20.0133 18.604 19.416 18.38C18.5573 18.072 17.9133 17.694 17.484 17.246C17.0547 16.798 16.84 16.1867 16.84 15.412C16.84 14.8893 16.9753 14.4367 17.246 14.054C17.5167 13.6713 17.89 13.3773 18.366 13.172C18.842 12.9667 19.3973 12.864 20.032 12.864C20.5733 12.864 21.0727 12.9153 21.53 13.018C21.9873 13.1207 22.4073 13.256 22.79 13.424L22.398 14.502C22.0527 14.3527 21.6747 14.2267 21.264 14.124C20.8533 14.0213 20.4333 13.97 20.004 13.97C19.3787 13.97 18.9073 14.1053 18.59 14.376C18.2727 14.6373 18.114 14.9873 18.114 15.426C18.114 15.762 18.184 16.042 18.324 16.266C18.464 16.49 18.6927 16.6953 19.01 16.882C19.3273 17.0593 19.7567 17.246 20.298 17.442C20.886 17.6567 21.3807 17.89 21.782 18.142C22.1927 18.3847 22.5007 18.6787 22.706 19.024C22.9207 19.3693 23.028 19.8033 23.028 20.326ZM25.5036 12.682C25.6903 12.682 25.8536 12.7473 25.9936 12.878C26.1429 12.9993 26.2176 13.1953 26.2176 13.466C26.2176 13.7367 26.1429 13.9373 25.9936 14.068C25.8536 14.1893 25.6903 14.25 25.5036 14.25C25.2983 14.25 25.1256 14.1893 24.9856 14.068C24.8456 13.9373 24.7756 13.7367 24.7756 13.466C24.7756 13.1953 24.8456 12.9993 24.9856 12.878C25.1256 12.7473 25.2983 12.682 25.5036 12.682ZM26.1056 15.496V23H24.8736V15.496H26.1056ZM31.143 15.356C31.6376 15.356 32.081 15.4493 32.473 15.636C32.8743 15.8227 33.215 16.1073 33.495 16.49H33.565L33.733 15.496H34.713V23.126C34.713 24.1993 34.4376 25.0067 33.887 25.548C33.3456 26.0893 32.501 26.36 31.353 26.36C30.2516 26.36 29.351 26.2013 28.651 25.884V24.75C29.3883 25.142 30.3123 25.338 31.423 25.338C32.067 25.338 32.571 25.1467 32.935 24.764C33.3083 24.3907 33.495 23.8773 33.495 23.224V22.93C33.495 22.818 33.4996 22.6593 33.509 22.454C33.5183 22.2393 33.5276 22.09 33.537 22.006H33.481C32.977 22.762 32.2023 23.14 31.157 23.14C30.1863 23.14 29.4256 22.7993 28.875 22.118C28.3336 21.4367 28.063 20.4847 28.063 19.262C28.063 18.0673 28.3336 17.12 28.875 16.42C29.4256 15.7107 30.1816 15.356 31.143 15.356ZM31.311 16.392C30.6856 16.392 30.2003 16.644 29.855 17.148C29.5096 17.6427 29.337 18.352 29.337 19.276C29.337 20.2 29.505 20.9093 29.841 21.404C30.177 21.8893 30.6763 22.132 31.339 22.132C32.095 22.132 32.6456 21.9313 32.991 21.53C33.3363 21.1193 33.509 20.4613 33.509 19.556V19.262C33.509 18.2447 33.3316 17.512 32.977 17.064C32.6223 16.616 32.067 16.392 31.311 16.392ZM40.7083 15.356C41.6043 15.356 42.2809 15.5753 42.7383 16.014C43.1956 16.4527 43.4243 17.1527 43.4243 18.114V23H42.2063V18.198C42.2063 16.994 41.6463 16.392 40.5263 16.392C39.6956 16.392 39.1216 16.6253 38.8043 17.092C38.4869 17.5587 38.3283 18.2307 38.3283 19.108V23H37.0963V15.496H38.0903L38.2723 16.518H38.3423C38.5849 16.126 38.9209 15.8367 39.3503 15.65C39.7796 15.454 40.2323 15.356 40.7083 15.356ZM52.3693 23H48.7573V22.272L49.9333 22.006V14.012L48.7573 13.732V13.004H52.3693V13.732L51.1933 14.012V22.006L52.3693 22.272V23ZM57.7434 15.356C58.6394 15.356 59.3161 15.5753 59.7734 16.014C60.2307 16.4527 60.4594 17.1527 60.4594 18.114V23H59.2414V18.198C59.2414 16.994 58.6814 16.392 57.5614 16.392C56.7307 16.392 56.1567 16.6253 55.8394 17.092C55.5221 17.5587 55.3634 18.2307 55.3634 19.108V23H54.1314V15.496H55.1254L55.3074 16.518H55.3774C55.6201 16.126 55.9561 15.8367 56.3854 15.65C56.8147 15.454 57.2674 15.356 57.7434 15.356Z" fill="white"/>
</svg>
