<svg width="408" height="176" viewBox="0 0 408 176" fill="none" xmlns="http://www.w3.org/2000/svg">
<rect width="408" height="176" fill="white"/>
<path d="M201 85H141.554C143.084 52.8269 168.827 27.0835 201 25.554V85Z" stroke="#004F6C" stroke-width="3"/>
<path d="M141.554 91H202.779L246.037 134.258C234.919 144.295 220.142 150.5 204 150.5C170.53 150.5 143.122 124.167 141.554 91Z" stroke="#004F6C" stroke-width="3"/>
<path d="M207 25.5553C221.967 26.2789 235.589 32.23 246.041 41.7377L207 80.7787V25.5553Z" stroke="#AB3FE0" stroke-width="3"/>
<path d="M266.5 87.9998C266.5 104.151 260.381 118.929 250.262 130.041L208.221 87.9998L250.258 45.9631C260.294 57.0807 266.5 71.8579 266.5 87.9998Z" stroke="#004F6C" stroke-width="3"/>
</svg>
