<svg width="407" height="175" viewBox="0 0 407 175" fill="none" xmlns="http://www.w3.org/2000/svg">
<rect width="407" height="175" fill="white"/>
<path d="M350 14L253.681 157.481L119.59 92.7643L55 163" stroke="#004E6C" stroke-width="3"/>
<circle cx="119" cy="94" r="8" fill="#F042AB" stroke="#F042AB" stroke-width="2"/>
<circle cx="252" cy="156" r="5" fill="#004E6C"/>
<circle cx="350" cy="14" r="5" fill="#004E6C"/>
<circle cx="57" cy="161" r="5" fill="#004E6C"/>
<mask id="path-6-inside-1_6286_163865" fill="white">
<path fill-rule="evenodd" clip-rule="evenodd" d="M110.355 63.5L118.007 76.5L125.649 63.5L220 63.5L220 30L92 30L92 63.5L110.355 63.5Z"/>
</mask>
<path d="M118.007 76.5L120.593 78.0203L118.008 82.4169L115.421 78.0218L118.007 76.5ZM110.355 63.5L110.355 60.5L112.07 60.5L112.94 61.9782L110.355 63.5ZM125.649 63.5L123.062 61.9797L123.932 60.5L125.649 60.5L125.649 63.5ZM220 63.5L223 63.5L223 66.5L220 66.5L220 63.5ZM220 30L220 27L223 27L223 30L220 30ZM92 30L89 30L89 27L92 27L92 30ZM92 63.5L92 66.5L89 66.5L89 63.5L92 63.5ZM115.421 78.0218L107.769 65.0218L112.94 61.9782L120.592 74.9782L115.421 78.0218ZM128.235 65.0203L120.593 78.0203L115.42 74.9797L123.062 61.9797L128.235 65.0203ZM125.649 60.5L220 60.5L220 66.5L125.649 66.5L125.649 60.5ZM217 63.5L217 30L223 30L223 63.5L217 63.5ZM220 33L92 33L92 27L220 27L220 33ZM95 30L95 63.5L89 63.5L89 30L95 30ZM92 60.5L110.355 60.5L110.355 66.5L92 66.5L92 60.5Z" fill="#003A51" mask="url(#path-6-inside-1_6286_163865)"/>
<path d="M113 46.5L199 46.5" stroke="#F042AB" stroke-width="3"/>
</svg>
