<svg width="408" height="176" viewBox="0 0 408 176" fill="none" xmlns="http://www.w3.org/2000/svg">
<rect width="408" height="176" fill="white"/>
<path d="M68.5 129L135 151L203.5 96L272 72L340 97" stroke="#004E6C" stroke-width="3"/>
<path d="M68.5 25L135 95L203.5 120L272 112L340 129" stroke="#088A08" stroke-width="3"/>
<path d="M73 129C73 131.761 70.7614 134 68 134C65.2386 134 63 131.761 63 129C63 126.239 65.2386 124 68 124C70.7614 124 73 126.239 73 129Z" fill="#004E6C"/>
<path d="M141 151C141 153.761 138.761 156 136 156C133.239 156 131 153.761 131 151C131 148.239 133.239 146 136 146C138.761 146 141 148.239 141 151Z" fill="#004E6C"/>
<path d="M209 95C209 97.7614 206.761 100 204 100C201.239 100 199 97.7614 199 95C199 92.2386 201.239 90 204 90C206.761 90 209 92.2386 209 95Z" fill="#004E6C"/>
<path d="M277 72C277 74.7614 274.761 77 272 77C269.239 77 267 74.7614 267 72C267 69.2386 269.239 67 272 67C274.761 67 277 69.2386 277 72Z" fill="#004E6C"/>
<path d="M73 25C73 27.7614 70.7614 30 68 30C65.2386 30 63 27.7614 63 25C63 22.2386 65.2386 20 68 20C70.7614 20 73 22.2386 73 25Z" fill="#088A08"/>
<path d="M141 95C141 97.7614 138.761 100 136 100C133.239 100 131 97.7614 131 95C131 92.2386 133.239 90 136 90C138.761 90 141 92.2386 141 95Z" fill="#088A08"/>
<path d="M209 120C209 122.761 206.761 125 204 125C201.239 125 199 122.761 199 120C199 117.239 201.239 115 204 115C206.761 115 209 117.239 209 120Z" fill="#088A08"/>
<path d="M277 112C277 114.761 274.761 117 272 117C269.239 117 267 114.761 267 112C267 109.239 269.239 107 272 107C274.761 107 277 109.239 277 112Z" fill="#088A08"/>
<path d="M345 129C345 131.761 342.761 134 340 134C337.239 134 335 131.761 335 129C335 126.239 337.239 124 340 124C342.761 124 345 126.239 345 129Z" fill="#088A08"/>
<path d="M345 98C345 100.761 342.761 103 340 103C337.239 103 335 100.761 335 98C335 95.2386 337.239 93 340 93C342.761 93 345 95.2386 345 98Z" fill="#004E6C"/>
</svg>
