<svg width="408" height="175" viewBox="0 0 408 175" fill="none" xmlns="http://www.w3.org/2000/svg">
<rect width="408" height="175" fill="white"/>
<path d="M135.5 152.5V160" stroke="#004E6C" stroke-width="3"/>
<path d="M69.5 16.5L62 16.5" stroke="#004E6C" stroke-width="3"/>
<path d="M69.5 83.5L62 83.5" stroke="#004E6C" stroke-width="3"/>
<path d="M204 152.5V160" stroke="#004E6C" stroke-width="3"/>
<path d="M271.5 152.5V160" stroke="#004E6C" stroke-width="3"/>
<path d="M340 152.5V160" stroke="#004E6C" stroke-width="3"/>
<path d="M69 70.5L134 125.5L204.5 111.5L269 125.5L339 89.5" stroke="#F042AB" stroke-width="3"/>
<path d="M104 57L167 36L238 79.5L339 57" stroke="#0A8E9B" stroke-width="3"/>
<path d="M69 15V152.5H341.5" stroke="#004E6C" stroke-width="3"/>
<path d="M346 56.5C346 59.2614 343.761 61.5 341 61.5C338.239 61.5 336 59.2614 336 56.5C336 53.7386 338.239 51.5 341 51.5C343.761 51.5 346 53.7386 346 56.5Z" fill="#0A8E9B"/>
<path d="M242 79.5C242 82.2614 239.761 84.5 237 84.5C234.239 84.5 232 82.2614 232 79.5C232 76.7386 234.239 74.5 237 74.5C239.761 74.5 242 76.7386 242 79.5Z" fill="#0A8E9B"/>
<path d="M171 36.5C171 39.2614 168.761 41.5 166 41.5C163.239 41.5 161 39.2614 161 36.5C161 33.7386 163.239 31.5 166 31.5C168.761 31.5 171 33.7386 171 36.5Z" fill="#0A8E9B"/>
<path d="M109 57.5C109 60.2614 106.761 62.5 104 62.5C101.239 62.5 99 60.2614 99 57.5C99 54.7386 101.239 52.5 104 52.5C106.761 52.5 109 54.7386 109 57.5Z" fill="#0A8E9B"/>
<path d="M138 125.5C138 128.261 135.761 130.5 133 130.5C130.239 130.5 128 128.261 128 125.5C128 122.739 130.239 120.5 133 120.5C135.761 120.5 138 122.739 138 125.5Z" fill="#F042AB"/>
<path d="M210 110.5C210 113.261 207.761 115.5 205 115.5C202.239 115.5 200 113.261 200 110.5C200 107.739 202.239 105.5 205 105.5C207.761 105.5 210 107.739 210 110.5Z" fill="#F042AB"/>
<path d="M276 125.5C276 128.261 273.761 130.5 271 130.5C268.239 130.5 266 128.261 266 125.5C266 122.739 268.239 120.5 271 120.5C273.761 120.5 276 122.739 276 125.5Z" fill="#F042AB"/>
<path d="M344 90.5C344 93.2614 341.761 95.5 339 95.5C336.239 95.5 334 93.2614 334 90.5C334 87.7386 336.239 85.5 339 85.5C341.761 85.5 344 87.7386 344 90.5Z" fill="#F042AB"/>
</svg>
