<svg width="407" height="176" viewBox="0 0 407 176" fill="none" xmlns="http://www.w3.org/2000/svg">
<rect width="407" height="176" fill="white"/>
<path d="M65 96H343" stroke="#AB3FE0" stroke-width="3"/>
<path d="M69 127.939L102.938 109.652L136.876 35.5663L170.566 102.514L204.257 125.089L235.5 55.0278L271.142 24L306.071 150L338 48.8276" stroke="#004E6C" stroke-width="3"/>
<path d="M74 128C74 130.761 71.7614 133 69 133C66.2386 133 64 130.761 64 128C64 125.239 66.2386 123 69 123C71.7614 123 74 125.239 74 128Z" fill="#004E6C"/>
<path d="M108 109C108 111.761 105.761 114 103 114C100.239 114 98 111.761 98 109C98 106.239 100.239 104 103 104C105.761 104 108 106.239 108 109Z" fill="#004E6C"/>
<path d="M142 36C142 38.7614 139.761 41 137 41C134.239 41 132 38.7614 132 36C132 33.2386 134.239 31 137 31C139.761 31 142 33.2386 142 36Z" fill="#004E6C"/>
<path d="M343 48C343 50.7614 340.761 53 338 53C335.239 53 333 50.7614 333 48C333 45.2386 335.239 43 338 43C340.761 43 343 45.2386 343 48Z" fill="#004E6C"/>
<path d="M311 150C311 152.761 308.761 155 306 155C303.239 155 301 152.761 301 150C301 147.239 303.239 145 306 145C308.761 145 311 147.239 311 150Z" fill="#004E6C"/>
<path d="M276 26C276 28.7614 273.761 31 271 31C268.239 31 266 28.7614 266 26C266 23.2386 268.239 21 271 21C273.761 21 276 23.2386 276 26Z" fill="#004E6C"/>
<path d="M241 55C241 57.7614 238.761 60 236 60C233.239 60 231 57.7614 231 55C231 52.2386 233.239 50 236 50C238.761 50 241 52.2386 241 55Z" fill="#004E6C"/>
<path d="M208 125C208 127.761 205.761 130 203 130C200.239 130 198 127.761 198 125C198 122.239 200.239 120 203 120C205.761 120 208 122.239 208 125Z" fill="#004E6C"/>
<path d="M177 104C177 106.761 174.761 109 172 109C169.239 109 167 106.761 167 104C167 101.239 169.239 99 172 99C174.761 99 177 101.239 177 104Z" fill="#004E6C"/>
</svg>
