<svg width="284" height="146" viewBox="0 0 284 146" fill="none" xmlns="http://www.w3.org/2000/svg">
<path d="M73.5 138V145.5" stroke="#004E6C" stroke-width="3"/>
<path d="M7.5 2L0 2" stroke="#004E6C" stroke-width="3"/>
<path d="M7.5 69L0 69" stroke="#004E6C" stroke-width="3"/>
<path d="M142 138V145.5" stroke="#004E6C" stroke-width="3"/>
<path d="M209.5 138V145.5" stroke="#004E6C" stroke-width="3"/>
<path d="M278 138V145.5" stroke="#004E6C" stroke-width="3"/>
<path d="M7 56L72 111L142.5 97L207 111L277 75" stroke="#CC78BC" stroke-width="3"/>
<path d="M42 42.5L105 21.5L176 65L277 42.5" stroke="#36A3AB" stroke-width="3"/>
<path d="M7 0.5V138H279.5" stroke="#004E6C" stroke-width="3"/>
<path d="M284 42C284 44.7614 281.761 47 279 47C276.239 47 274 44.7614 274 42C274 39.2386 276.239 37 279 37C281.761 37 284 39.2386 284 42Z" fill="#36A3AB"/>
<path d="M180 65C180 67.7614 177.761 70 175 70C172.239 70 170 67.7614 170 65C170 62.2386 172.239 60 175 60C177.761 60 180 62.2386 180 65Z" fill="#36A3AB"/>
<path d="M109 22C109 24.7614 106.761 27 104 27C101.239 27 99 24.7614 99 22C99 19.2386 101.239 17 104 17C106.761 17 109 19.2386 109 22Z" fill="#36A3AB"/>
<path d="M47 43C47 45.7614 44.7614 48 42 48C39.2386 48 37 45.7614 37 43C37 40.2386 39.2386 38 42 38C44.7614 38 47 40.2386 47 43Z" fill="#36A3AB"/>
<path d="M76 111C76 113.761 73.7614 116 71 116C68.2386 116 66 113.761 66 111C66 108.239 68.2386 106 71 106C73.7614 106 76 108.239 76 111Z" fill="#CC78BC"/>
<path d="M148 96C148 98.7614 145.761 101 143 101C140.239 101 138 98.7614 138 96C138 93.2386 140.239 91 143 91C145.761 91 148 93.2386 148 96Z" fill="#CC78BC"/>
<path d="M214 111C214 113.761 211.761 116 209 116C206.239 116 204 113.761 204 111C204 108.239 206.239 106 209 106C211.761 106 214 108.239 214 111Z" fill="#CC78BC"/>
<path d="M282 76C282 78.7614 279.761 81 277 81C274.239 81 272 78.7614 272 76C272 73.2386 274.239 71 277 71C279.761 71 282 73.2386 282 76Z" fill="#CC78BC"/>
</svg>
