<svg width="409" height="176" viewBox="0 0 409 176" fill="none" xmlns="http://www.w3.org/2000/svg">
<rect width="408.5" height="176" fill="white"/>
<path d="M212 149V156.5" stroke="#004E6C" stroke-width="3"/>
<path d="M309 149V156.5" stroke="#004E6C" stroke-width="3"/>
<path d="M106.48 155.288C106.48 156.515 106.352 157.565 106.096 158.44C105.84 159.315 105.424 159.987 104.848 160.456C104.272 160.925 103.509 161.16 102.56 161.16C101.216 161.16 100.229 160.643 99.6 159.608C98.9707 158.573 98.656 157.133 98.656 155.288C98.656 154.061 98.784 153.011 99.04 152.136C99.296 151.251 99.7067 150.573 100.272 150.104C100.848 149.635 101.611 149.4 102.56 149.4C103.893 149.4 104.88 149.917 105.52 150.952C106.16 151.987 106.48 153.432 106.48 155.288ZM100.688 155.288C100.688 156.685 100.821 157.736 101.088 158.44C101.365 159.144 101.856 159.496 102.56 159.496C103.253 159.496 103.739 159.149 104.016 158.456C104.304 157.752 104.448 156.696 104.448 155.288C104.448 153.891 104.304 152.84 104.016 152.136C103.739 151.421 103.253 151.064 102.56 151.064C101.856 151.064 101.365 151.421 101.088 152.136C100.821 152.84 100.688 153.891 100.688 155.288Z" fill="#F38D00"/>
<rect x="141" y="78" width="9" height="71" stroke="#004E6C" stroke-width="3"/>
<rect x="239" y="98" width="9" height="51" stroke="#004E6C" stroke-width="3"/>
<rect x="160" y="110" width="9" height="39" stroke="#004E6C" stroke-width="3"/>
<rect x="258" y="64" width="9" height="85" stroke="#004E6C" stroke-width="3"/>
<rect x="179" y="52" width="9" height="97" stroke="#004E6C" stroke-width="3"/>
<rect x="277" y="23" width="9" height="126" stroke="#004E6C" stroke-width="3"/>
<path d="M116 9.00001L116 149L310.5 149" stroke="#004E6C" stroke-width="3"/>
</svg>
