<svg width="303" height="157" viewBox="0 0 303 157" fill="none" xmlns="http://www.w3.org/2000/svg">
<path d="M298 5L201.681 148.481L67.5903 83.7643L3.00001 154" stroke="#004E6C" stroke-width="3"/>
<circle cx="67" cy="85" r="8" fill="#CC78BC" stroke="#CC78BC" stroke-width="2"/>
<circle cx="200" cy="147" r="5" fill="#004E6C"/>
<circle cx="298" cy="5" r="5" fill="#004E6C"/>
<circle cx="5" cy="152" r="5" fill="#004E6C"/>
<mask id="path-6-inside-1" fill="white">
<path fill-rule="evenodd" clip-rule="evenodd" d="M58.3545 54.5L66.0067 67.5L73.6486 54.5L168 54.5L168 21L40 21L40 54.5L58.3545 54.5Z"/>
</mask>
<path d="M66.0067 67.5L68.5929 69.0203L66.0084 73.4169L63.4213 69.0218L66.0067 67.5ZM58.3545 54.5L58.3545 51.5L60.0698 51.5L60.9399 52.9782L58.3545 54.5ZM73.6486 54.5L71.0624 52.9797L71.9322 51.5L73.6486 51.5L73.6486 54.5ZM168 54.5L171 54.5L171 57.5L168 57.5L168 54.5ZM168 21L168 18L171 18L171 21L168 21ZM40 21L37 21L37 18L40 18L40 21ZM40 54.5L40 57.5L37 57.5L37 54.5L40 54.5ZM63.4213 69.0218L55.7692 56.0218L60.9399 52.9782L68.592 65.9782L63.4213 69.0218ZM76.2349 56.0203L68.5929 69.0203L63.4204 65.9797L71.0624 52.9797L76.2349 56.0203ZM73.6486 51.5L168 51.5L168 57.5L73.6486 57.5L73.6486 51.5ZM165 54.5L165 21L171 21L171 54.5L165 54.5ZM168 24L40 24L40 18L168 18L168 24ZM43 21L43 54.5L37 54.5L37 21L43 21ZM40 51.5L58.3545 51.5L58.3545 57.5L40 57.5L40 51.5Z" fill="#0B3363" mask="url(#path-6-inside-1)"/>
<path d="M61 37.5L147 37.5" stroke="#CC78BC" stroke-width="3"/>
</svg>
