<svg width="408" height="176" viewBox="0 0 408 176" fill="none" xmlns="http://www.w3.org/2000/svg">
<rect width="408" height="176" fill="white"/>
<path d="M137.017 131.821C137.27 131.821 137.53 131.802 137.796 131.764C138.062 131.726 138.277 131.675 138.442 131.612V132.885C138.264 132.973 138.011 133.043 137.682 133.094C137.352 133.157 137.036 133.189 136.732 133.189C136.2 133.189 135.706 133.1 135.25 132.923C134.806 132.733 134.445 132.41 134.167 131.954C133.888 131.498 133.749 130.858 133.749 130.035V124.107H132.305V123.309L133.768 122.644L134.433 120.478H135.421V122.815H138.366V124.107H135.421V129.997C135.421 130.617 135.566 131.08 135.858 131.384C136.162 131.675 136.548 131.821 137.017 131.821Z" fill="#004E6C"/>
<path d="M144.414 122.625C145.275 122.625 146.023 122.815 146.656 123.195C147.289 123.575 147.771 124.113 148.1 124.81C148.442 125.494 148.613 126.298 148.613 127.223V128.23H141.64C141.665 129.382 141.957 130.263 142.514 130.871C143.084 131.466 143.876 131.764 144.889 131.764C145.535 131.764 146.105 131.707 146.599 131.593C147.106 131.466 147.625 131.289 148.157 131.061V132.524C147.638 132.752 147.125 132.916 146.618 133.018C146.111 133.132 145.51 133.189 144.813 133.189C143.838 133.189 142.983 132.992 142.248 132.6C141.513 132.207 140.937 131.624 140.519 130.852C140.114 130.079 139.911 129.123 139.911 127.983C139.911 126.868 140.095 125.912 140.462 125.114C140.842 124.316 141.368 123.701 142.039 123.271C142.723 122.84 143.515 122.625 144.414 122.625ZM144.395 123.993C143.597 123.993 142.964 124.252 142.495 124.772C142.039 125.278 141.767 125.988 141.678 126.9H146.865C146.852 126.038 146.65 125.342 146.257 124.81C145.864 124.265 145.244 123.993 144.395 123.993Z" fill="#004E6C"/>
<path d="M153.247 127.793L149.732 122.815H151.632L154.254 126.653L156.857 122.815H158.738L155.223 127.793L158.928 132.999H157.028L154.254 128.933L151.442 132.999H149.561L153.247 127.793Z" fill="#004E6C"/>
<path d="M164.292 131.821C164.545 131.821 164.805 131.802 165.071 131.764C165.337 131.726 165.552 131.675 165.717 131.612V132.885C165.54 132.973 165.286 133.043 164.957 133.094C164.628 133.157 164.311 133.189 164.007 133.189C163.475 133.189 162.981 133.1 162.525 132.923C162.082 132.733 161.721 132.41 161.442 131.954C161.163 131.498 161.024 130.858 161.024 130.035V124.107H159.58V123.309L161.043 122.644L161.708 120.478H162.696V122.815H165.641V124.107H162.696V129.997C162.696 130.617 162.842 131.08 163.133 131.384C163.437 131.675 163.823 131.821 164.292 131.821Z" fill="#004E6C"/>
<path d="M167.205 125.095V123.746H175.907V125.095H167.205ZM167.205 128.876V127.527H175.907V128.876H167.205Z" fill="#004E6C"/>
<path d="M183.474 119.433L183.607 119.642C183.443 120.313 183.202 121.054 182.885 121.865C182.581 122.675 182.277 123.416 181.973 124.088H180.719C180.833 123.619 180.954 123.106 181.08 122.549C181.207 121.991 181.321 121.447 181.422 120.915C181.536 120.37 181.625 119.876 181.688 119.433H183.474ZM179.959 119.433L180.092 119.642C179.915 120.313 179.674 121.054 179.37 121.865C179.066 122.675 178.762 123.416 178.458 124.088H177.242C177.369 123.619 177.489 123.106 177.603 122.549C177.717 121.991 177.825 121.447 177.926 120.915C178.028 120.37 178.11 119.876 178.173 119.433H179.959Z" fill="#004E6C"/>
<path d="M190.454 136.001C189.289 135.988 188.371 135.735 187.699 135.241C187.028 134.747 186.692 133.993 186.692 132.98V130.187C186.692 129.541 186.49 129.085 186.084 128.819C185.692 128.54 185.122 128.401 184.374 128.401V127.014C185.122 127.001 185.692 126.862 186.084 126.596C186.49 126.33 186.692 125.88 186.692 125.247V122.435C186.692 121.421 187.041 120.668 187.737 120.174C188.434 119.68 189.34 119.433 190.454 119.433V120.801C189.796 120.826 189.276 120.978 188.896 121.257C188.529 121.523 188.345 121.966 188.345 122.587V125.323C188.345 126.627 187.655 127.4 186.274 127.641V127.755C187.655 127.995 188.345 128.768 188.345 130.073V132.866C188.345 133.486 188.529 133.93 188.896 134.196C189.264 134.474 189.783 134.62 190.454 134.633V136.001Z" fill="#004E6C"/>
<path d="M194.917 132.999L191.06 122.815H192.846L195.012 128.819C195.114 129.097 195.221 129.408 195.335 129.75C195.449 130.092 195.551 130.421 195.639 130.738C195.728 131.054 195.791 131.314 195.829 131.517H195.905C195.943 131.314 196.013 131.054 196.114 130.738C196.216 130.408 196.323 130.079 196.437 129.75C196.551 129.408 196.659 129.097 196.76 128.819L198.926 122.815H200.712L196.836 132.999H194.917Z" fill="#004E6C"/>
<path d="M206.181 122.644C207.422 122.644 208.34 122.916 208.936 123.461C209.531 124.005 209.829 124.873 209.829 126.064V132.999H208.613L208.29 131.555H208.214C207.77 132.112 207.302 132.524 206.808 132.79C206.314 133.056 205.642 133.189 204.794 133.189C203.869 133.189 203.103 132.948 202.495 132.467C201.887 131.973 201.583 131.206 201.583 130.168C201.583 129.154 201.982 128.375 202.78 127.831C203.578 127.273 204.806 126.969 206.466 126.919L208.195 126.862V126.254C208.195 125.405 208.011 124.816 207.644 124.487C207.276 124.157 206.757 123.993 206.086 123.993C205.554 123.993 205.047 124.075 204.566 124.24C204.084 124.392 203.635 124.569 203.217 124.772L202.704 123.518C203.147 123.277 203.673 123.074 204.281 122.91C204.889 122.732 205.522 122.644 206.181 122.644ZM208.176 128.021L206.675 128.078C205.408 128.128 204.528 128.331 204.034 128.686C203.552 129.04 203.312 129.541 203.312 130.187C203.312 130.757 203.483 131.175 203.825 131.441C204.179 131.707 204.629 131.84 205.174 131.84C206.022 131.84 206.732 131.605 207.302 131.137C207.884 130.655 208.176 129.921 208.176 128.933V128.021Z" fill="#004E6C"/>
<path d="M217.724 122.625C217.914 122.625 218.117 122.637 218.332 122.663C218.547 122.675 218.744 122.701 218.921 122.739L218.712 124.278C218.547 124.24 218.364 124.208 218.161 124.183C217.958 124.157 217.775 124.145 217.61 124.145C217.091 124.145 216.603 124.29 216.147 124.582C215.691 124.86 215.324 125.259 215.045 125.779C214.779 126.285 214.646 126.881 214.646 127.565V132.999H212.974V122.815H214.342L214.532 124.677H214.608C214.925 124.119 215.343 123.638 215.862 123.233C216.394 122.827 217.015 122.625 217.724 122.625Z" fill="#004E6C"/>
<path d="M221.678 118.996C221.931 118.996 222.153 119.084 222.343 119.262C222.545 119.426 222.647 119.692 222.647 120.06C222.647 120.427 222.545 120.699 222.343 120.877C222.153 121.041 221.931 121.124 221.678 121.124C221.399 121.124 221.165 121.041 220.975 120.877C220.785 120.699 220.69 120.427 220.69 120.06C220.69 119.692 220.785 119.426 220.975 119.262C221.165 119.084 221.399 118.996 221.678 118.996ZM222.495 122.815V132.999H220.823V122.815H222.495Z" fill="#004E6C"/>
<path d="M229.578 122.644C230.819 122.644 231.738 122.916 232.333 123.461C232.928 124.005 233.226 124.873 233.226 126.064V132.999H232.01L231.687 131.555H231.611C231.168 132.112 230.699 132.524 230.205 132.79C229.711 133.056 229.04 133.189 228.191 133.189C227.266 133.189 226.5 132.948 225.892 132.467C225.284 131.973 224.98 131.206 224.98 130.168C224.98 129.154 225.379 128.375 226.177 127.831C226.975 127.273 228.204 126.969 229.863 126.919L231.592 126.862V126.254C231.592 125.405 231.408 124.816 231.041 124.487C230.674 124.157 230.154 123.993 229.483 123.993C228.951 123.993 228.444 124.075 227.963 124.24C227.482 124.392 227.032 124.569 226.614 124.772L226.101 123.518C226.544 123.277 227.07 123.074 227.678 122.91C228.286 122.732 228.919 122.644 229.578 122.644ZM231.573 128.021L230.072 128.078C228.805 128.128 227.925 128.331 227.431 128.686C226.95 129.04 226.709 129.541 226.709 130.187C226.709 130.757 226.88 131.175 227.222 131.441C227.577 131.707 228.026 131.84 228.571 131.84C229.42 131.84 230.129 131.605 230.699 131.137C231.282 130.655 231.573 129.921 231.573 128.933V128.021Z" fill="#004E6C"/>
<path d="M238.044 118.559V122.074C238.044 122.504 238.031 122.91 238.006 123.29C237.993 123.657 237.974 123.948 237.949 124.164H238.044C238.335 123.733 238.734 123.372 239.241 123.081C239.747 122.789 240.4 122.644 241.198 122.644C242.464 122.644 243.478 123.087 244.238 123.974C245.01 124.848 245.397 126.159 245.397 127.907C245.397 129.655 245.01 130.972 244.238 131.859C243.465 132.745 242.452 133.189 241.198 133.189C240.4 133.189 239.747 133.043 239.241 132.752C238.734 132.46 238.335 132.112 238.044 131.707H237.911L237.569 132.999H236.372V118.559H238.044ZM240.913 124.031C239.823 124.031 239.07 124.341 238.652 124.962C238.246 125.582 238.044 126.545 238.044 127.85V127.926C238.044 129.18 238.246 130.142 238.652 130.814C239.07 131.472 239.836 131.802 240.951 131.802C241.863 131.802 242.54 131.466 242.984 130.795C243.44 130.123 243.668 129.154 243.668 127.888C243.668 125.316 242.749 124.031 240.913 124.031Z" fill="#004E6C"/>
<path d="M249.733 132.999H248.061V118.559H249.733V132.999Z" fill="#004E6C"/>
<path d="M256.892 122.625C257.754 122.625 258.501 122.815 259.134 123.195C259.768 123.575 260.249 124.113 260.578 124.81C260.92 125.494 261.091 126.298 261.091 127.223V128.23H254.118C254.144 129.382 254.435 130.263 254.992 130.871C255.562 131.466 256.354 131.764 257.367 131.764C258.013 131.764 258.583 131.707 259.077 131.593C259.584 131.466 260.103 131.289 260.635 131.061V132.524C260.116 132.752 259.603 132.916 259.096 133.018C258.59 133.132 257.988 133.189 257.291 133.189C256.316 133.189 255.461 132.992 254.726 132.6C253.992 132.207 253.415 131.624 252.997 130.852C252.592 130.079 252.389 129.123 252.389 127.983C252.389 126.868 252.573 125.912 252.94 125.114C253.32 124.316 253.846 123.701 254.517 123.271C255.201 122.84 255.993 122.625 256.892 122.625ZM256.873 123.993C256.075 123.993 255.442 124.252 254.973 124.772C254.517 125.278 254.245 125.988 254.156 126.9H259.343C259.331 126.038 259.128 125.342 258.735 124.81C258.343 124.265 257.722 123.993 256.873 123.993Z" fill="#004E6C"/>
<path d="M262.677 136.001V134.633C263.336 134.607 263.849 134.455 264.216 134.177C264.596 133.911 264.786 133.467 264.786 132.847V130.092C264.786 128.787 265.476 128.014 266.857 127.774V127.66C265.476 127.419 264.786 126.646 264.786 125.342V122.568C264.786 121.947 264.602 121.504 264.235 121.238C263.868 120.959 263.348 120.813 262.677 120.801V119.433C263.842 119.445 264.761 119.699 265.432 120.193C266.103 120.687 266.439 121.44 266.439 122.454V125.228C266.439 125.874 266.635 126.336 267.028 126.615C267.433 126.881 268.01 127.014 268.757 127.014V128.401C268.01 128.413 267.433 128.553 267.028 128.819C266.635 129.085 266.439 129.534 266.439 130.168V132.999C266.439 134.012 266.091 134.766 265.394 135.26C264.697 135.754 263.792 136.001 262.677 136.001Z" fill="#004E6C"/>
<path d="M275.747 119.433L275.88 119.642C275.715 120.313 275.474 121.054 275.158 121.865C274.854 122.675 274.55 123.416 274.246 124.088H272.992C273.106 123.619 273.226 123.106 273.353 122.549C273.479 121.991 273.593 121.447 273.695 120.915C273.809 120.37 273.897 119.876 273.961 119.433H275.747ZM272.232 119.433L272.365 119.642C272.187 120.313 271.947 121.054 271.643 121.865C271.339 122.675 271.035 123.416 270.731 124.088H269.515C269.641 123.619 269.762 123.106 269.876 122.549C269.99 121.991 270.097 121.447 270.199 120.915C270.3 120.37 270.382 119.876 270.446 119.433H272.232Z" fill="#004E6C"/>
<path d="M292.5 40H116V82H188L202 96L216 82H292.5V40Z" stroke="#004E6C" stroke-width="3"/>
<path d="M133 61H250.5" stroke="#088A08" stroke-width="3"/>
</svg>
