<svg width="408" height="176" viewBox="0 0 408 176" fill="none" xmlns="http://www.w3.org/2000/svg">
<rect width="408" height="176" fill="white"/>
<rect x="115.5" y="32.5" width="90.3333" height="63.3704" stroke="#004E6C" stroke-width="3"/>
<path d="M160.321 95.9863V113.27" stroke="#004E6C" stroke-width="3"/>
<path d="M181.551 113.193L138.196 113.193" stroke="#004E6C" stroke-width="3"/>
<rect x="251.47" y="68.1357" width="28.3939" height="45.3636" rx="4.5" stroke="#004E6C" stroke-width="3"/>
<path d="M269.485 75.9697H261" stroke="#F38D00" stroke-width="3" stroke-linecap="round"/>
<path d="M142.004 133.432L139.724 142H138.632L136.964 136.384C136.892 136.16 136.824 135.932 136.76 135.7C136.704 135.46 136.652 135.252 136.604 135.076C136.564 134.892 136.54 134.764 136.532 134.692C136.524 134.796 136.48 135.02 136.4 135.364C136.32 135.7 136.228 136.052 136.124 136.42L134.504 142H133.412L131.144 133.432H132.272L133.604 138.664C133.7 139.032 133.78 139.388 133.844 139.732C133.916 140.076 133.972 140.4 134.012 140.704C134.052 140.392 134.112 140.052 134.192 139.684C134.272 139.316 134.364 138.956 134.468 138.604L135.98 133.432H137.096L138.668 138.64C138.78 139.008 138.876 139.376 138.956 139.744C139.036 140.112 139.096 140.432 139.136 140.704C139.168 140.408 139.22 140.088 139.292 139.744C139.372 139.392 139.46 139.028 139.556 138.652L140.876 133.432H142.004Z" fill="black"/>
<path d="M145.426 135.448C145.97 135.448 146.442 135.568 146.842 135.808C147.242 136.048 147.546 136.388 147.754 136.828C147.97 137.26 148.078 137.768 148.078 138.352V138.988H143.674C143.69 139.716 143.874 140.272 144.226 140.656C144.586 141.032 145.086 141.22 145.726 141.22C146.134 141.22 146.494 141.184 146.806 141.112C147.126 141.032 147.454 140.92 147.79 140.776V141.7C147.462 141.844 147.138 141.948 146.818 142.012C146.498 142.084 146.118 142.12 145.678 142.12C145.062 142.12 144.522 141.996 144.058 141.748C143.594 141.5 143.23 141.132 142.966 140.644C142.71 140.156 142.582 139.552 142.582 138.832C142.582 138.128 142.698 137.524 142.93 137.02C143.17 136.516 143.502 136.128 143.926 135.856C144.358 135.584 144.858 135.448 145.426 135.448ZM145.414 136.312C144.91 136.312 144.51 136.476 144.214 136.804C143.926 137.124 143.754 137.572 143.698 138.148H146.974C146.966 137.604 146.838 137.164 146.59 136.828C146.342 136.484 145.95 136.312 145.414 136.312Z" fill="black"/>
<path d="M150.771 132.88V135.1C150.771 135.372 150.763 135.628 150.747 135.868C150.739 136.1 150.727 136.284 150.711 136.42H150.771C150.955 136.148 151.207 135.92 151.527 135.736C151.847 135.552 152.259 135.46 152.763 135.46C153.563 135.46 154.203 135.74 154.683 136.3C155.171 136.852 155.415 137.68 155.415 138.784C155.415 139.888 155.171 140.72 154.683 141.28C154.195 141.84 153.555 142.12 152.763 142.12C152.259 142.12 151.847 142.028 151.527 141.844C151.207 141.66 150.955 141.44 150.771 141.184H150.687L150.471 142H149.715V132.88H150.771ZM152.583 136.336C151.895 136.336 151.419 136.532 151.155 136.924C150.899 137.316 150.771 137.924 150.771 138.748V138.796C150.771 139.588 150.899 140.196 151.155 140.62C151.419 141.036 151.903 141.244 152.607 141.244C153.183 141.244 153.611 141.032 153.891 140.608C154.179 140.184 154.323 139.572 154.323 138.772C154.323 137.148 153.743 136.336 152.583 136.336Z" fill="black"/>
<path d="M160.422 133.432L157.23 142H156.198L159.39 133.432H160.422Z" fill="black"/>
<path d="M161.707 133.432H164.155C165.219 133.432 166.027 133.592 166.579 133.912C167.131 134.232 167.407 134.78 167.407 135.556C167.407 136.06 167.267 136.48 166.987 136.816C166.707 137.144 166.303 137.356 165.775 137.452V137.512C166.135 137.576 166.459 137.684 166.747 137.836C167.043 137.988 167.275 138.204 167.443 138.484C167.611 138.764 167.695 139.124 167.695 139.564C167.695 140.34 167.427 140.94 166.891 141.364C166.363 141.788 165.639 142 164.719 142H161.707V133.432ZM162.787 137.08H164.371C165.099 137.08 165.599 136.964 165.871 136.732C166.151 136.492 166.291 136.14 166.291 135.676C166.291 135.204 166.123 134.868 165.787 134.668C165.459 134.46 164.931 134.356 164.203 134.356H162.787V137.08ZM162.787 137.98V141.088H164.515C165.275 141.088 165.803 140.94 166.099 140.644C166.395 140.348 166.543 139.96 166.543 139.48C166.543 139.032 166.387 138.672 166.075 138.4C165.771 138.12 165.223 137.98 164.431 137.98H162.787Z" fill="black"/>
<path d="M174.96 138.772C174.96 139.836 174.688 140.66 174.144 141.244C173.608 141.828 172.88 142.12 171.96 142.12C171.392 142.12 170.884 141.992 170.436 141.736C169.996 141.472 169.648 141.092 169.392 140.596C169.136 140.092 169.008 139.484 169.008 138.772C169.008 137.708 169.272 136.888 169.8 136.312C170.336 135.736 171.068 135.448 171.996 135.448C172.572 135.448 173.084 135.58 173.532 135.844C173.98 136.1 174.328 136.476 174.576 136.972C174.832 137.46 174.96 138.06 174.96 138.772ZM170.1 138.772C170.1 139.532 170.248 140.136 170.544 140.584C170.848 141.024 171.328 141.244 171.984 141.244C172.632 141.244 173.108 141.024 173.412 140.584C173.716 140.136 173.868 139.532 173.868 138.772C173.868 138.012 173.716 137.416 173.412 136.984C173.108 136.552 172.628 136.336 171.972 136.336C171.316 136.336 170.84 136.552 170.544 136.984C170.248 137.416 170.1 138.012 170.1 138.772Z" fill="black"/>
<path d="M178.913 142.12C178.113 142.12 177.473 141.844 176.993 141.292C176.513 140.732 176.273 139.9 176.273 138.796C176.273 137.692 176.513 136.86 176.993 136.3C177.481 135.732 178.125 135.448 178.925 135.448C179.421 135.448 179.825 135.54 180.137 135.724C180.457 135.908 180.717 136.132 180.917 136.396H180.989C180.973 136.292 180.957 136.14 180.941 135.94C180.925 135.732 180.917 135.568 180.917 135.448V132.88H181.973V142H181.121L180.965 141.136H180.917C180.725 141.408 180.469 141.64 180.149 141.832C179.829 142.024 179.417 142.12 178.913 142.12ZM179.081 141.244C179.761 141.244 180.237 141.06 180.509 140.692C180.789 140.316 180.929 139.752 180.929 139V138.808C180.929 138.008 180.797 137.396 180.533 136.972C180.269 136.54 179.781 136.324 179.069 136.324C178.501 136.324 178.073 136.552 177.785 137.008C177.505 137.456 177.365 138.06 177.365 138.82C177.365 139.588 177.505 140.184 177.785 140.608C178.073 141.032 178.505 141.244 179.081 141.244Z" fill="black"/>
<path d="M183.008 135.568H184.136L185.528 139.228C185.648 139.556 185.756 139.864 185.852 140.152C185.948 140.44 186.02 140.716 186.068 140.98H186.116C186.164 140.78 186.24 140.52 186.344 140.2C186.448 139.872 186.556 139.544 186.668 139.216L187.976 135.568H189.116L186.344 142.888C186.112 143.496 185.82 143.98 185.468 144.34C185.116 144.7 184.628 144.88 184.004 144.88C183.812 144.88 183.644 144.868 183.5 144.844C183.356 144.828 183.232 144.808 183.128 144.784V143.944C183.216 143.96 183.32 143.976 183.44 143.992C183.568 144.008 183.7 144.016 183.836 144.016C184.204 144.016 184.5 143.912 184.724 143.704C184.948 143.496 185.128 143.22 185.264 142.876L185.6 142.024L183.008 135.568Z" fill="black"/>
<path d="M238.69 131.419C238.863 131.419 239.015 131.48 239.145 131.601C239.284 131.714 239.353 131.896 239.353 132.147C239.353 132.398 239.284 132.585 239.145 132.706C239.015 132.819 238.863 132.875 238.69 132.875C238.499 132.875 238.339 132.819 238.209 132.706C238.079 132.585 238.014 132.398 238.014 132.147C238.014 131.896 238.079 131.714 238.209 131.601C238.339 131.48 238.499 131.419 238.69 131.419ZM239.249 134.032V141H238.105V134.032H239.249Z" fill="black"/>
<path d="M249.712 136.346C249.712 137.308 249.547 138.149 249.218 138.868C248.897 139.579 248.416 140.133 247.775 140.532C247.142 140.931 246.362 141.13 245.435 141.13C244.473 141.13 243.671 140.931 243.03 140.532C242.397 140.133 241.925 139.574 241.613 138.855C241.301 138.136 241.145 137.295 241.145 136.333C241.145 135.388 241.301 134.561 241.613 133.85C241.925 133.131 242.397 132.572 243.03 132.173C243.671 131.774 244.477 131.575 245.448 131.575C246.375 131.575 247.155 131.774 247.788 132.173C248.42 132.563 248.897 133.118 249.218 133.837C249.547 134.548 249.712 135.384 249.712 136.346ZM242.38 136.346C242.38 137.516 242.627 138.439 243.121 139.115C243.615 139.782 244.386 140.116 245.435 140.116C246.483 140.116 247.25 139.782 247.736 139.115C248.23 138.439 248.477 137.516 248.477 136.346C248.477 135.176 248.234 134.262 247.749 133.603C247.263 132.936 246.496 132.602 245.448 132.602C244.39 132.602 243.615 132.936 243.121 133.603C242.627 134.262 242.38 135.176 242.38 136.346Z" fill="black"/>
<path d="M257.034 138.517C257.034 139.34 256.735 139.982 256.137 140.441C255.539 140.9 254.733 141.13 253.719 141.13C253.199 141.13 252.718 141.091 252.276 141.013C251.834 140.935 251.465 140.827 251.171 140.688V139.57C251.483 139.709 251.868 139.834 252.328 139.947C252.796 140.06 253.277 140.116 253.771 140.116C254.455 140.116 254.975 139.982 255.331 139.713C255.686 139.444 255.864 139.08 255.864 138.621C255.864 138.318 255.799 138.062 255.669 137.854C255.539 137.646 255.313 137.455 254.993 137.282C254.672 137.109 254.234 136.918 253.68 136.71C252.882 136.424 252.284 136.073 251.886 135.657C251.487 135.241 251.288 134.673 251.288 133.954C251.288 133.469 251.413 133.048 251.665 132.693C251.916 132.338 252.263 132.065 252.705 131.874C253.147 131.683 253.662 131.588 254.252 131.588C254.754 131.588 255.218 131.636 255.643 131.731C256.067 131.826 256.457 131.952 256.813 132.108L256.449 133.109C256.128 132.97 255.777 132.853 255.396 132.758C255.014 132.663 254.624 132.615 254.226 132.615C253.645 132.615 253.207 132.741 252.913 132.992C252.618 133.235 252.471 133.56 252.471 133.967C252.471 134.279 252.536 134.539 252.666 134.747C252.796 134.955 253.008 135.146 253.303 135.319C253.597 135.484 253.996 135.657 254.499 135.839C255.045 136.038 255.504 136.255 255.877 136.489C256.258 136.714 256.544 136.987 256.735 137.308C256.934 137.629 257.034 138.032 257.034 138.517Z" fill="black"/>
<path d="M262.349 131.718L258.891 141H257.773L261.231 131.718H262.349Z" fill="black"/>
<path d="M263.74 131.718H266.392C267.545 131.718 268.42 131.891 269.018 132.238C269.616 132.585 269.915 133.178 269.915 134.019C269.915 134.565 269.764 135.02 269.46 135.384C269.157 135.739 268.719 135.969 268.147 136.073V136.138C268.537 136.207 268.888 136.324 269.2 136.489C269.521 136.654 269.772 136.888 269.954 137.191C270.136 137.494 270.227 137.884 270.227 138.361C270.227 139.202 269.937 139.852 269.356 140.311C268.784 140.77 268 141 267.003 141H263.74V131.718ZM264.91 135.67H266.626C267.415 135.67 267.957 135.544 268.251 135.293C268.555 135.033 268.706 134.652 268.706 134.149C268.706 133.638 268.524 133.274 268.16 133.057C267.805 132.832 267.233 132.719 266.444 132.719H264.91V135.67ZM264.91 136.645V140.012H266.782C267.606 140.012 268.178 139.852 268.498 139.531C268.819 139.21 268.979 138.79 268.979 138.27C268.979 137.785 268.81 137.395 268.472 137.1C268.143 136.797 267.549 136.645 266.691 136.645H264.91Z" fill="black"/>
<path d="M278.098 137.503C278.098 138.656 277.803 139.548 277.214 140.181C276.633 140.814 275.844 141.13 274.848 141.13C274.232 141.13 273.682 140.991 273.197 140.714C272.72 140.428 272.343 140.016 272.066 139.479C271.788 138.933 271.65 138.274 271.65 137.503C271.65 136.35 271.936 135.462 272.508 134.838C273.088 134.214 273.881 133.902 274.887 133.902C275.511 133.902 276.065 134.045 276.551 134.331C277.036 134.608 277.413 135.016 277.682 135.553C277.959 136.082 278.098 136.732 278.098 137.503ZM272.833 137.503C272.833 138.326 272.993 138.981 273.314 139.466C273.643 139.943 274.163 140.181 274.874 140.181C275.576 140.181 276.091 139.943 276.421 139.466C276.75 138.981 276.915 138.326 276.915 137.503C276.915 136.68 276.75 136.034 276.421 135.566C276.091 135.098 275.571 134.864 274.861 134.864C274.15 134.864 273.634 135.098 273.314 135.566C272.993 136.034 272.833 136.68 272.833 137.503Z" fill="black"/>
<path d="M282.381 141.13C281.514 141.13 280.821 140.831 280.301 140.233C279.781 139.626 279.521 138.725 279.521 137.529C279.521 136.333 279.781 135.432 280.301 134.825C280.829 134.21 281.527 133.902 282.394 133.902C282.931 133.902 283.369 134.002 283.707 134.201C284.053 134.4 284.335 134.643 284.552 134.929H284.63C284.612 134.816 284.595 134.652 284.578 134.435C284.56 134.21 284.552 134.032 284.552 133.902V131.12H285.696V141H284.773L284.604 140.064H284.552C284.344 140.359 284.066 140.61 283.72 140.818C283.373 141.026 282.927 141.13 282.381 141.13ZM282.563 140.181C283.299 140.181 283.815 139.982 284.11 139.583C284.413 139.176 284.565 138.565 284.565 137.75V137.542C284.565 136.675 284.422 136.012 284.136 135.553C283.85 135.085 283.321 134.851 282.55 134.851C281.934 134.851 281.471 135.098 281.159 135.592C280.855 136.077 280.704 136.732 280.704 137.555C280.704 138.387 280.855 139.033 281.159 139.492C281.471 139.951 281.939 140.181 282.563 140.181Z" fill="black"/>
<path d="M286.817 134.032H288.039L289.547 137.997C289.677 138.352 289.794 138.686 289.898 138.998C290.002 139.31 290.08 139.609 290.132 139.895H290.184C290.236 139.678 290.318 139.397 290.431 139.05C290.543 138.695 290.66 138.339 290.782 137.984L292.199 134.032H293.434L290.431 141.962C290.179 142.621 289.863 143.145 289.482 143.535C289.1 143.925 288.572 144.12 287.896 144.12C287.688 144.12 287.506 144.107 287.35 144.081C287.194 144.064 287.059 144.042 286.947 144.016V143.106C287.042 143.123 287.155 143.141 287.285 143.158C287.423 143.175 287.566 143.184 287.714 143.184C288.112 143.184 288.433 143.071 288.676 142.846C288.918 142.621 289.113 142.322 289.261 141.949L289.625 141.026L286.817 134.032Z" fill="black"/>
</svg>
