<svg width="408" height="176" viewBox="0 0 408 176" fill="none" xmlns="http://www.w3.org/2000/svg">
<rect width="408" height="176" fill="white"/>
<rect x="175.272" y="40.5" width="57" height="57" stroke="#004E6C" stroke-width="3"/>
<path d="M218.306 55.25L190.022 83.5343" stroke="#DA291C" stroke-width="3"/>
<path d="M190.022 55.25L218.306 83.5343" stroke="#DA291C" stroke-width="3"/>
<path d="M148.365 122.433C148.188 123.167 148.004 123.965 147.814 124.827C147.637 125.675 147.504 126.429 147.415 127.088H145.61L145.477 126.879C145.642 126.22 145.876 125.485 146.18 124.675C146.497 123.864 146.813 123.117 147.13 122.433H148.365ZM144.85 122.433C144.673 123.167 144.495 123.965 144.318 124.827C144.141 125.675 144.001 126.429 143.9 127.088H142.114L142 126.879C142.177 126.22 142.412 125.485 142.703 124.675C143.007 123.864 143.317 123.117 143.634 122.433H144.85Z" fill="#004E6C"/>
<path d="M154.3 136.189C153.388 136.189 152.584 136.005 151.887 135.638C151.19 135.27 150.639 134.7 150.234 133.928C149.841 133.155 149.645 132.167 149.645 130.964C149.645 129.71 149.848 128.69 150.253 127.905C150.671 127.119 151.241 126.543 151.963 126.176C152.685 125.808 153.502 125.625 154.414 125.625C154.921 125.625 155.415 125.682 155.896 125.796C156.39 125.897 156.789 126.024 157.093 126.176L156.58 127.563C156.276 127.449 155.921 127.341 155.516 127.24C155.111 127.138 154.731 127.088 154.376 127.088C152.375 127.088 151.374 128.373 151.374 130.945C151.374 132.173 151.615 133.117 152.096 133.776C152.59 134.422 153.318 134.745 154.281 134.745C154.826 134.745 155.313 134.688 155.744 134.574C156.175 134.46 156.567 134.32 156.922 134.156V135.638C156.58 135.815 156.2 135.948 155.782 136.037C155.377 136.138 154.883 136.189 154.3 136.189Z" fill="#004E6C"/>
<path d="M161.016 135.999H159.344V121.559H161.016V135.999Z" fill="#004E6C"/>
<path d="M173.096 130.888C173.096 132.572 172.666 133.877 171.804 134.802C170.956 135.726 169.803 136.189 168.346 136.189C167.447 136.189 166.643 135.986 165.933 135.581C165.237 135.163 164.686 134.561 164.28 133.776C163.875 132.978 163.672 132.015 163.672 130.888C163.672 129.203 164.09 127.905 164.926 126.993C165.775 126.081 166.934 125.625 168.403 125.625C169.315 125.625 170.126 125.834 170.835 126.252C171.545 126.657 172.096 127.252 172.488 128.038C172.894 128.81 173.096 129.76 173.096 130.888ZM165.401 130.888C165.401 132.091 165.636 133.047 166.104 133.757C166.586 134.453 167.346 134.802 168.384 134.802C169.41 134.802 170.164 134.453 170.645 133.757C171.127 133.047 171.367 132.091 171.367 130.888C171.367 129.684 171.127 128.741 170.645 128.057C170.164 127.373 169.404 127.031 168.365 127.031C167.327 127.031 166.573 127.373 166.104 128.057C165.636 128.741 165.401 129.684 165.401 130.888Z" fill="#004E6C"/>
<path d="M182.377 133.187C182.377 134.175 182.01 134.922 181.275 135.429C180.541 135.935 179.553 136.189 178.311 136.189C177.602 136.189 176.988 136.132 176.468 136.018C175.962 135.904 175.512 135.745 175.119 135.543V134.023C175.525 134.225 176.012 134.415 176.582 134.593C177.165 134.757 177.754 134.84 178.349 134.84C179.198 134.84 179.812 134.707 180.192 134.441C180.572 134.162 180.762 133.795 180.762 133.339C180.762 133.085 180.693 132.857 180.553 132.655C180.414 132.452 180.161 132.249 179.793 132.047C179.439 131.844 178.926 131.616 178.254 131.363C177.596 131.109 177.032 130.856 176.563 130.603C176.095 130.349 175.734 130.045 175.48 129.691C175.227 129.336 175.1 128.88 175.1 128.323C175.1 127.461 175.449 126.796 176.145 126.328C176.855 125.859 177.779 125.625 178.919 125.625C179.54 125.625 180.116 125.688 180.648 125.815C181.193 125.941 181.7 126.106 182.168 126.309L181.598 127.639C181.168 127.461 180.718 127.309 180.249 127.183C179.781 127.056 179.299 126.993 178.805 126.993C178.121 126.993 177.596 127.107 177.228 127.335C176.874 127.55 176.696 127.848 176.696 128.228C176.696 128.519 176.779 128.76 176.943 128.95C177.108 129.14 177.38 129.33 177.76 129.52C178.153 129.71 178.672 129.925 179.318 130.166C179.964 130.406 180.515 130.653 180.971 130.907C181.427 131.16 181.776 131.47 182.016 131.838C182.257 132.192 182.377 132.642 182.377 133.187Z" fill="#004E6C"/>
<path d="M188.771 125.625C189.633 125.625 190.38 125.815 191.013 126.195C191.647 126.575 192.128 127.113 192.457 127.81C192.799 128.494 192.97 129.298 192.97 130.223V131.23H185.997C186.023 132.382 186.314 133.263 186.871 133.871C187.441 134.466 188.233 134.764 189.246 134.764C189.892 134.764 190.462 134.707 190.956 134.593C191.463 134.466 191.982 134.289 192.514 134.061V135.524C191.995 135.752 191.482 135.916 190.975 136.018C190.469 136.132 189.867 136.189 189.17 136.189C188.195 136.189 187.34 135.992 186.605 135.6C185.871 135.207 185.294 134.624 184.876 133.852C184.471 133.079 184.268 132.123 184.268 130.983C184.268 129.868 184.452 128.912 184.819 128.114C185.199 127.316 185.725 126.701 186.396 126.271C187.08 125.84 187.872 125.625 188.771 125.625ZM188.752 126.993C187.954 126.993 187.321 127.252 186.852 127.772C186.396 128.278 186.124 128.988 186.035 129.9H191.222C191.21 129.038 191.007 128.342 190.614 127.81C190.222 127.265 189.601 126.993 188.752 126.993Z" fill="#004E6C"/>
<path d="M202.17 121.559V125.074C202.17 125.504 202.158 125.91 202.132 126.29C202.12 126.657 202.101 126.948 202.075 127.164H202.17C202.462 126.733 202.861 126.372 203.367 126.081C203.874 125.789 204.526 125.644 205.324 125.644C206.591 125.644 207.604 126.087 208.364 126.974C209.137 127.848 209.523 129.159 209.523 130.907C209.523 132.655 209.137 133.972 208.364 134.859C207.592 135.745 206.578 136.189 205.324 136.189C204.526 136.189 203.874 136.043 203.367 135.752C202.861 135.46 202.462 135.112 202.17 134.707H202.037L201.695 135.999H200.498V121.559H202.17ZM205.039 127.031C203.95 127.031 203.196 127.341 202.778 127.962C202.373 128.582 202.17 129.545 202.17 130.85V130.926C202.17 132.18 202.373 133.142 202.778 133.814C203.196 134.472 203.963 134.802 205.077 134.802C205.989 134.802 206.667 134.466 207.11 133.795C207.566 133.123 207.794 132.154 207.794 130.888C207.794 128.316 206.876 127.031 205.039 127.031Z" fill="#004E6C"/>
<path d="M220.7 125.815V135.999H219.332L219.085 134.65H219.009C218.679 135.182 218.223 135.574 217.641 135.828C217.058 136.068 216.437 136.189 215.779 136.189C214.55 136.189 213.625 135.897 213.005 135.315C212.384 134.719 212.074 133.776 212.074 132.484V125.815H213.765V132.37C213.765 133.991 214.518 134.802 216.026 134.802C217.153 134.802 217.932 134.485 218.363 133.852C218.806 133.218 219.028 132.306 219.028 131.116V125.815H220.7Z" fill="#004E6C"/>
<path d="M227.334 134.821C227.587 134.821 227.847 134.802 228.113 134.764C228.379 134.726 228.594 134.675 228.759 134.612V135.885C228.582 135.973 228.328 136.043 227.999 136.094C227.67 136.157 227.353 136.189 227.049 136.189C226.517 136.189 226.023 136.1 225.567 135.923C225.124 135.733 224.763 135.41 224.484 134.954C224.205 134.498 224.066 133.858 224.066 133.035V127.107H222.622V126.309L224.085 125.644L224.75 123.478H225.738V125.815H228.683V127.107H225.738V132.997C225.738 133.617 225.884 134.08 226.175 134.384C226.479 134.675 226.865 134.821 227.334 134.821Z" fill="#004E6C"/>
<path d="M234.199 134.821C234.452 134.821 234.712 134.802 234.978 134.764C235.244 134.726 235.459 134.675 235.624 134.612V135.885C235.447 135.973 235.193 136.043 234.864 136.094C234.535 136.157 234.218 136.189 233.914 136.189C233.382 136.189 232.888 136.1 232.432 135.923C231.989 135.733 231.628 135.41 231.349 134.954C231.07 134.498 230.931 133.858 230.931 133.035V127.107H229.487V126.309L230.95 125.644L231.615 123.478H232.603V125.815H235.548V127.107H232.603V132.997C232.603 133.617 232.749 134.08 233.04 134.384C233.344 134.675 233.73 134.821 234.199 134.821Z" fill="#004E6C"/>
<path d="M246.517 130.888C246.517 132.572 246.087 133.877 245.225 134.802C244.377 135.726 243.224 136.189 241.767 136.189C240.868 136.189 240.064 135.986 239.354 135.581C238.658 135.163 238.107 134.561 237.701 133.776C237.296 132.978 237.093 132.015 237.093 130.888C237.093 129.203 237.511 127.905 238.347 126.993C239.196 126.081 240.355 125.625 241.824 125.625C242.736 125.625 243.547 125.834 244.256 126.252C244.966 126.657 245.517 127.252 245.909 128.038C246.315 128.81 246.517 129.76 246.517 130.888ZM238.822 130.888C238.822 132.091 239.057 133.047 239.525 133.757C240.007 134.453 240.767 134.802 241.805 134.802C242.831 134.802 243.585 134.453 244.066 133.757C244.548 133.047 244.788 132.091 244.788 130.888C244.788 129.684 244.548 128.741 244.066 128.057C243.585 127.373 242.825 127.031 241.786 127.031C240.748 127.031 239.994 127.373 239.525 128.057C239.057 128.741 238.822 129.684 238.822 130.888Z" fill="#004E6C"/>
<path d="M254.069 125.625C255.285 125.625 256.204 125.922 256.824 126.518C257.445 127.113 257.755 128.063 257.755 129.368V135.999H256.102V129.482C256.102 127.848 255.342 127.031 253.822 127.031C252.695 127.031 251.916 127.347 251.485 127.981C251.055 128.614 250.839 129.526 250.839 130.717V135.999H249.167V125.815H250.516L250.763 127.202H250.858C251.188 126.67 251.644 126.277 252.226 126.024C252.809 125.758 253.423 125.625 254.069 125.625Z" fill="#004E6C"/>
<path d="M265.757 122.433L265.89 122.642C265.726 123.313 265.485 124.054 265.168 124.865C264.864 125.675 264.56 126.416 264.256 127.088H263.002C263.116 126.619 263.237 126.106 263.363 125.549C263.49 124.991 263.604 124.447 263.705 123.915C263.819 123.37 263.908 122.876 263.971 122.433H265.757ZM262.242 122.433L262.375 122.642C262.198 123.313 261.957 124.054 261.653 124.865C261.349 125.675 261.045 126.416 260.741 127.088H259.525C259.652 126.619 259.772 126.106 259.886 125.549C260 124.991 260.108 124.447 260.209 123.915C260.311 123.37 260.393 122.876 260.456 122.433H262.242Z" fill="#004E6C"/>
</svg>
