<svg width="408" height="176" viewBox="0 0 408 176" fill="none" xmlns="http://www.w3.org/2000/svg">
<rect width="408" height="176" fill="white"/>
<path d="M198 130H104" stroke="#004E6C" stroke-width="3"/>
<path d="M146 138H104" stroke="#004E6C" stroke-width="3"/>
<rect x="105.5" y="39.5" width="91" height="77" rx="6.5" stroke="#004E6C" stroke-width="3"/>
<path d="M105.5 110L135.5 86.5L165.5 116" stroke="#004E6C" stroke-width="3"/>
<path d="M196 94.5L175 74.5L149 99" stroke="#004E6C" stroke-width="3"/>
<circle cx="149" cy="64" r="8.5" stroke="#004E6C" stroke-width="3"/>
<path d="M228.744 84.6446C229.986 84.6446 230.904 84.9169 231.499 85.4616C232.095 86.0062 232.392 86.8739 232.392 88.0646V94.9996H231.176L230.853 93.5556H230.777C230.334 94.1129 229.865 94.5246 229.371 94.7906C228.877 95.0566 228.206 95.1896 227.357 95.1896C226.433 95.1896 225.666 94.9489 225.058 94.4676C224.45 93.9736 224.146 93.2072 224.146 92.1686C224.146 91.1552 224.545 90.3762 225.343 89.8316C226.141 89.2742 227.37 88.9702 229.029 88.9196L230.758 88.8626V88.2546C230.758 87.4059 230.575 86.8169 230.207 86.4876C229.84 86.1582 229.321 85.9936 228.649 85.9936C228.117 85.9936 227.611 86.0759 227.129 86.2406C226.648 86.3926 226.198 86.5699 225.78 86.7726L225.267 85.5186C225.711 85.2779 226.236 85.0752 226.844 84.9106C227.452 84.7332 228.086 84.6446 228.744 84.6446ZM230.739 90.0216L229.238 90.0786C227.972 90.1292 227.091 90.3319 226.597 90.6866C226.116 91.0412 225.875 91.5416 225.875 92.1876C225.875 92.7576 226.046 93.1756 226.388 93.4416C226.743 93.7076 227.193 93.8406 227.737 93.8406C228.586 93.8406 229.295 93.6062 229.865 93.1376C230.448 92.6562 230.739 91.9216 230.739 90.9336V90.0216Z" fill="#004E6C"/>
<path d="M237.21 94.9996H235.538V80.5596H237.21V94.9996Z" fill="#004E6C"/>
<path d="M243.837 93.8216C244.091 93.8216 244.35 93.8026 244.616 93.7646C244.882 93.7266 245.098 93.6759 245.262 93.6126V94.8856C245.085 94.9742 244.832 95.0439 244.502 95.0946C244.173 95.1579 243.856 95.1896 243.552 95.1896C243.02 95.1896 242.526 95.1009 242.07 94.9236C241.627 94.7336 241.266 94.4106 240.987 93.9546C240.709 93.4986 240.569 92.8589 240.569 92.0356V86.1076H239.125V85.3096L240.588 84.6446L241.253 82.4786H242.241V84.8156H245.186V86.1076H242.241V91.9976C242.241 92.6182 242.387 93.0806 242.678 93.3846C242.982 93.6759 243.369 93.8216 243.837 93.8216Z" fill="#004E6C"/>
<path d="M246.751 87.0956V85.7466H255.453V87.0956H246.751ZM246.751 90.8766V89.5276H255.453V90.8766H246.751Z" fill="#004E6C"/>
<path d="M263.02 81.4336L263.153 81.6426C262.988 82.3139 262.747 83.0549 262.431 83.8656C262.127 84.6762 261.823 85.4172 261.519 86.0886H260.265C260.379 85.6199 260.499 85.1069 260.626 84.5496C260.752 83.9922 260.866 83.4476 260.968 82.9156C261.082 82.3709 261.17 81.8769 261.234 81.4336H263.02ZM259.505 81.4336L259.638 81.6426C259.46 82.3139 259.22 83.0549 258.916 83.8656C258.612 84.6762 258.308 85.4172 258.004 86.0886H256.788C256.914 85.6199 257.035 85.1069 257.149 84.5496C257.263 83.9922 257.37 83.4476 257.472 82.9156C257.573 82.3709 257.655 81.8769 257.719 81.4336H259.505Z" fill="#004E6C"/>
<path d="M268.404 93.8216C268.657 93.8216 268.917 93.8026 269.183 93.7646C269.449 93.7266 269.664 93.6759 269.829 93.6126V94.8856C269.651 94.9742 269.398 95.0439 269.069 95.0946C268.739 95.1579 268.423 95.1896 268.119 95.1896C267.587 95.1896 267.093 95.1009 266.637 94.9236C266.193 94.7336 265.832 94.4106 265.554 93.9546C265.275 93.4986 265.136 92.8589 265.136 92.0356V86.1076H263.692V85.3096L265.155 84.6446L265.82 82.4786H266.808V84.8156H269.753V86.1076H266.808V91.9976C266.808 92.6182 266.953 93.0806 267.245 93.3846C267.549 93.6759 267.935 93.8216 268.404 93.8216Z" fill="#004E6C"/>
<path d="M275.801 84.6256C276.662 84.6256 277.41 84.8156 278.043 85.1956C278.676 85.5756 279.158 86.1139 279.487 86.8106C279.829 87.4946 280 88.2989 280 89.2236V90.2306H273.027C273.052 91.3832 273.344 92.2636 273.901 92.8716C274.471 93.4669 275.263 93.7646 276.276 93.7646C276.922 93.7646 277.492 93.7076 277.986 93.5936C278.493 93.4669 279.012 93.2896 279.544 93.0616V94.5246C279.025 94.7526 278.512 94.9172 278.005 95.0186C277.498 95.1326 276.897 95.1896 276.2 95.1896C275.225 95.1896 274.37 94.9932 273.635 94.6006C272.9 94.2079 272.324 93.6252 271.906 92.8526C271.501 92.0799 271.298 91.1236 271.298 89.9836C271.298 88.8689 271.482 87.9126 271.849 87.1146C272.229 86.3166 272.755 85.7022 273.426 85.2716C274.11 84.8409 274.902 84.6256 275.801 84.6256ZM275.782 85.9936C274.984 85.9936 274.351 86.2532 273.882 86.7726C273.426 87.2792 273.154 87.9886 273.065 88.9006H278.252C278.239 88.0392 278.037 87.3426 277.644 86.8106C277.251 86.2659 276.631 85.9936 275.782 85.9936Z" fill="#004E6C"/>
<path d="M284.634 89.7936L281.119 84.8156H283.019L285.641 88.6536L288.244 84.8156H290.125L286.61 89.7936L290.315 94.9996H288.415L285.641 90.9336L282.829 94.9996H280.948L284.634 89.7936Z" fill="#004E6C"/>
<path d="M295.679 93.8216C295.932 93.8216 296.192 93.8026 296.458 93.7646C296.724 93.7266 296.939 93.6759 297.104 93.6126V94.8856C296.927 94.9742 296.673 95.0439 296.344 95.0946C296.015 95.1579 295.698 95.1896 295.394 95.1896C294.862 95.1896 294.368 95.1009 293.912 94.9236C293.469 94.7336 293.108 94.4106 292.829 93.9546C292.55 93.4986 292.411 92.8589 292.411 92.0356V86.1076H290.967V85.3096L292.43 84.6446L293.095 82.4786H294.083V84.8156H297.028V86.1076H294.083V91.9976C294.083 92.6182 294.229 93.0806 294.52 93.3846C294.824 93.6759 295.21 93.8216 295.679 93.8216Z" fill="#004E6C"/>
<path d="M304.359 81.4336L304.492 81.6426C304.328 82.3139 304.087 83.0549 303.77 83.8656C303.466 84.6762 303.162 85.4172 302.858 86.0886H301.604C301.718 85.6199 301.839 85.1069 301.965 84.5496C302.092 83.9922 302.206 83.4476 302.307 82.9156C302.421 82.3709 302.51 81.8769 302.573 81.4336H304.359ZM300.844 81.4336L300.977 81.6426C300.8 82.3139 300.559 83.0549 300.255 83.8656C299.951 84.6762 299.647 85.4172 299.343 86.0886H298.127C298.254 85.6199 298.374 85.1069 298.488 84.5496C298.602 83.9922 298.71 83.4476 298.811 82.9156C298.913 82.3709 298.995 81.8769 299.058 81.4336H300.844Z" fill="#004E6C"/>
<path d="M288 65L242 111" stroke="#DA291C" stroke-width="3"/>
<path d="M242 65L288 111" stroke="#DA291C" stroke-width="3"/>
</svg>
