<svg width="408" height="176" viewBox="0 0 408 176" fill="none" xmlns="http://www.w3.org/2000/svg">
<rect width="408" height="176" fill="white"/>
<path d="M70.8233 87.8799C70.8233 88.8932 70.4553 89.6932 69.7193 90.2799C68.9833 90.8666 67.9646 91.1599 66.6633 91.1599C65.4046 91.1599 64.3379 90.9466 63.4633 90.5199V88.5999C63.9433 88.8132 64.4713 89.0106 65.0473 89.1919C65.6339 89.3626 66.2206 89.4479 66.8073 89.4479C67.5006 89.4479 68.0019 89.3146 68.3113 89.0479C68.6313 88.7706 68.7913 88.4186 68.7913 87.9919C68.7913 87.5226 68.5886 87.1492 68.1833 86.8719C67.7779 86.5839 67.1859 86.2746 66.4073 85.9439C65.9379 85.7519 65.4846 85.5172 65.0473 85.2399C64.6206 84.9519 64.2686 84.5946 63.9913 84.1679C63.7246 83.7306 63.5913 83.1866 63.5913 82.5359C63.5913 81.5652 63.9326 80.8026 64.6153 80.2479C65.3086 79.6932 66.2313 79.4159 67.3833 79.4159C67.9806 79.4159 68.5459 79.4799 69.0793 79.6079C69.6233 79.7359 70.1566 79.9172 70.6793 80.1519L70.0233 81.7999C69.5433 81.5972 69.0846 81.4372 68.6473 81.3199C68.2206 81.2026 67.7779 81.1439 67.3193 81.1439C66.7646 81.1439 66.3433 81.2666 66.0553 81.5119C65.7673 81.7572 65.6233 82.0826 65.6233 82.4879C65.6233 82.7972 65.7033 83.0639 65.8633 83.2879C66.0233 83.5012 66.2686 83.6986 66.5993 83.8799C66.9406 84.0612 67.3779 84.2692 67.9113 84.5039C68.5299 84.7706 69.0526 85.0532 69.4793 85.3519C69.9166 85.6399 70.2473 85.9866 70.4713 86.3919C70.7059 86.7866 70.8233 87.2826 70.8233 87.8799Z" fill="black"/>
<path d="M76.2761 82.1679C77.4388 82.1679 78.3561 82.5146 79.0281 83.2079C79.7108 83.9012 80.0521 84.8666 80.0521 86.1039V87.1279H74.3241C74.3455 87.9172 74.5641 88.5306 74.9801 88.9679C75.3961 89.3946 75.9721 89.6079 76.7081 89.6079C77.2628 89.6079 77.7641 89.5546 78.2121 89.4479C78.6601 89.3306 79.1188 89.1652 79.5881 88.9519V90.5679C79.1615 90.7706 78.7188 90.9199 78.2601 91.0159C77.8015 91.1119 77.2521 91.1599 76.6121 91.1599C75.7588 91.1599 75.0068 90.9999 74.3561 90.6799C73.7055 90.3492 73.1935 89.8586 72.8201 89.2079C72.4575 88.5466 72.2761 87.7199 72.2761 86.7279C72.2761 85.2452 72.6388 84.1146 73.3641 83.3359C74.1001 82.5572 75.0708 82.1679 76.2761 82.1679ZM76.2761 83.6559C75.7321 83.6559 75.2895 83.8319 74.9481 84.1839C74.6175 84.5252 74.4255 85.0372 74.3721 85.7199H78.1001C78.0895 85.1226 77.9348 84.6319 77.6361 84.2479C77.3481 83.8532 76.8948 83.6559 76.2761 83.6559Z" fill="black"/>
<path d="M85.589 91.1599C84.3517 91.1599 83.3703 90.8026 82.645 90.0879C81.9303 89.3732 81.573 88.2479 81.573 86.7119C81.573 85.6452 81.749 84.7812 82.101 84.1199C82.4637 83.4479 82.9597 82.9572 83.589 82.6479C84.2183 82.3279 84.9383 82.1679 85.749 82.1679C86.2823 82.1679 86.7623 82.2212 87.189 82.3279C87.6263 82.4346 87.9943 82.5626 88.293 82.7119L87.701 84.2959C87.3597 84.1679 87.0237 84.0612 86.693 83.9759C86.3623 83.8799 86.0477 83.8319 85.749 83.8319C84.341 83.8319 83.637 84.7866 83.637 86.6959C83.637 87.6239 83.813 88.3226 84.165 88.7919C84.5277 89.2612 85.045 89.4959 85.717 89.4959C86.197 89.4959 86.6237 89.4372 86.997 89.3199C87.381 89.2026 87.7383 89.0426 88.069 88.8399V90.5839C87.7383 90.7866 87.381 90.9306 86.997 91.0159C86.613 91.1119 86.1437 91.1599 85.589 91.1599Z" fill="black"/>
<path d="M93.4606 89.5439C93.706 89.5439 93.946 89.5226 94.1806 89.4799C94.426 89.4266 94.65 89.3679 94.8526 89.3039V90.8079C94.6393 90.9146 94.362 90.9999 94.0206 91.0639C93.6793 91.1279 93.322 91.1599 92.9486 91.1599C92.4473 91.1599 91.994 91.0799 91.5886 90.9199C91.194 90.7599 90.8793 90.4772 90.6446 90.0719C90.41 89.6666 90.2926 89.0959 90.2926 88.3599V83.8479H89.1246V82.9679L90.4046 82.2639L91.0446 80.4239H92.3086V82.3279H94.7726V83.8479H92.3086V88.3439C92.3086 88.7492 92.4153 89.0532 92.6286 89.2559C92.8526 89.4479 93.13 89.5439 93.4606 89.5439Z" fill="black"/>
<path d="M97.6086 78.9839C97.9073 78.9839 98.1686 79.0639 98.3926 79.2239C98.6166 79.3732 98.7286 79.6452 98.7286 80.0399C98.7286 80.4346 98.6166 80.7119 98.3926 80.8719C98.1686 81.0319 97.9073 81.1119 97.6086 81.1119C97.2993 81.1119 97.0326 81.0319 96.8086 80.8719C96.5953 80.7119 96.4886 80.4346 96.4886 80.0399C96.4886 79.6452 96.5953 79.3732 96.8086 79.2239C97.0326 79.0639 97.2993 78.9839 97.6086 78.9839ZM98.6166 82.3279V90.9999H96.6006V82.3279H98.6166Z" fill="black"/>
<path d="M108.938 86.6479C108.938 88.0879 108.565 89.2026 107.818 89.9919C107.072 90.7706 106.058 91.1599 104.778 91.1599C103.989 91.1599 103.285 90.9839 102.666 90.6319C102.048 90.2799 101.562 89.7679 101.21 89.0959C100.858 88.4239 100.682 87.6079 100.682 86.6479C100.682 85.2079 101.05 84.1039 101.786 83.3359C102.533 82.5572 103.546 82.1679 104.826 82.1679C105.626 82.1679 106.336 82.3439 106.954 82.6959C107.573 83.0372 108.058 83.5439 108.41 84.2159C108.762 84.8772 108.938 85.6879 108.938 86.6479ZM102.746 86.6479C102.746 87.5652 102.906 88.2746 103.226 88.7759C103.557 89.2772 104.085 89.5279 104.81 89.5279C105.525 89.5279 106.048 89.2772 106.378 88.7759C106.709 88.2746 106.874 87.5652 106.874 86.6479C106.874 85.7306 106.709 85.0266 106.378 84.5359C106.048 84.0452 105.52 83.7999 104.794 83.7999C104.069 83.7999 103.546 84.0452 103.226 84.5359C102.906 85.0266 102.746 85.7306 102.746 86.6479Z" fill="black"/>
<path d="M115.663 82.1679C116.633 82.1679 117.391 82.4186 117.935 82.9199C118.489 83.4212 118.767 84.2319 118.767 85.3519V90.9999H116.751V85.7519C116.751 85.1012 116.623 84.6159 116.367 84.2959C116.111 83.9652 115.705 83.7999 115.151 83.7999C114.34 83.7999 113.785 84.0559 113.487 84.5679C113.188 85.0799 113.039 85.8106 113.039 86.7599V90.9999H111.023V82.3279H112.575L112.863 83.4639H112.975C113.252 83.0159 113.631 82.6906 114.111 82.4879C114.601 82.2746 115.119 82.1679 115.663 82.1679Z" fill="black"/>
<path d="M130.404 90.9999H128.388V83.8799C128.388 83.5386 128.394 83.1759 128.404 82.7919C128.415 82.4079 128.431 82.0506 128.452 81.7199C128.346 81.8266 128.212 81.9546 128.052 82.1039C127.903 82.2532 127.738 82.3972 127.556 82.5359L126.276 83.5599L125.268 82.3119L128.724 79.5759H130.404V90.9999Z" fill="black"/>
<path d="M282.823 87.8799C282.823 88.8932 282.455 89.6932 281.719 90.2799C280.983 90.8666 279.965 91.1599 278.663 91.1599C277.405 91.1599 276.338 90.9466 275.463 90.5199V88.5999C275.943 88.8132 276.471 89.0106 277.047 89.1919C277.634 89.3626 278.221 89.4479 278.807 89.4479C279.501 89.4479 280.002 89.3146 280.311 89.0479C280.631 88.7706 280.791 88.4186 280.791 87.9919C280.791 87.5226 280.589 87.1492 280.183 86.8719C279.778 86.5839 279.186 86.2746 278.407 85.9439C277.938 85.7519 277.485 85.5172 277.047 85.2399C276.621 84.9519 276.269 84.5946 275.991 84.1679C275.725 83.7306 275.591 83.1866 275.591 82.5359C275.591 81.5652 275.933 80.8026 276.615 80.2479C277.309 79.6932 278.231 79.4159 279.383 79.4159C279.981 79.4159 280.546 79.4799 281.079 79.6079C281.623 79.7359 282.157 79.9172 282.679 80.1519L282.023 81.7999C281.543 81.5972 281.085 81.4372 280.647 81.3199C280.221 81.2026 279.778 81.1439 279.319 81.1439C278.765 81.1439 278.343 81.2666 278.055 81.5119C277.767 81.7572 277.623 82.0826 277.623 82.4879C277.623 82.7972 277.703 83.0639 277.863 83.2879C278.023 83.5012 278.269 83.6986 278.599 83.8799C278.941 84.0612 279.378 84.2692 279.911 84.5039C280.53 84.7706 281.053 85.0532 281.479 85.3519C281.917 85.6399 282.247 85.9866 282.471 86.3919C282.706 86.7866 282.823 87.2826 282.823 87.8799Z" fill="black"/>
<path d="M288.276 82.1679C289.439 82.1679 290.356 82.5146 291.028 83.2079C291.711 83.9012 292.052 84.8666 292.052 86.1039V87.1279H286.324C286.345 87.9172 286.564 88.5306 286.98 88.9679C287.396 89.3946 287.972 89.6079 288.708 89.6079C289.263 89.6079 289.764 89.5546 290.212 89.4479C290.66 89.3306 291.119 89.1652 291.588 88.9519V90.5679C291.161 90.7706 290.719 90.9199 290.26 91.0159C289.801 91.1119 289.252 91.1599 288.612 91.1599C287.759 91.1599 287.007 90.9999 286.356 90.6799C285.705 90.3492 285.193 89.8586 284.82 89.2079C284.457 88.5466 284.276 87.7199 284.276 86.7279C284.276 85.2452 284.639 84.1146 285.364 83.3359C286.1 82.5572 287.071 82.1679 288.276 82.1679ZM288.276 83.6559C287.732 83.6559 287.289 83.8319 286.948 84.1839C286.617 84.5252 286.425 85.0372 286.372 85.7199H290.1C290.089 85.1226 289.935 84.6319 289.636 84.2479C289.348 83.8532 288.895 83.6559 288.276 83.6559Z" fill="black"/>
<path d="M297.589 91.1599C296.352 91.1599 295.37 90.8026 294.645 90.0879C293.93 89.3732 293.573 88.2479 293.573 86.7119C293.573 85.6452 293.749 84.7812 294.101 84.1199C294.464 83.4479 294.96 82.9572 295.589 82.6479C296.218 82.3279 296.938 82.1679 297.749 82.1679C298.282 82.1679 298.762 82.2212 299.189 82.3279C299.626 82.4346 299.994 82.5626 300.293 82.7119L299.701 84.2959C299.36 84.1679 299.024 84.0612 298.693 83.9759C298.362 83.8799 298.048 83.8319 297.749 83.8319C296.341 83.8319 295.637 84.7866 295.637 86.6959C295.637 87.6239 295.813 88.3226 296.165 88.7919C296.528 89.2612 297.045 89.4959 297.717 89.4959C298.197 89.4959 298.624 89.4372 298.997 89.3199C299.381 89.2026 299.738 89.0426 300.069 88.8399V90.5839C299.738 90.7866 299.381 90.9306 298.997 91.0159C298.613 91.1119 298.144 91.1599 297.589 91.1599Z" fill="black"/>
<path d="M305.461 89.5439C305.706 89.5439 305.946 89.5226 306.181 89.4799C306.426 89.4266 306.65 89.3679 306.853 89.3039V90.8079C306.639 90.9146 306.362 90.9999 306.021 91.0639C305.679 91.1279 305.322 91.1599 304.949 91.1599C304.447 91.1599 303.994 91.0799 303.589 90.9199C303.194 90.7599 302.879 90.4772 302.645 90.0719C302.41 89.6666 302.293 89.0959 302.293 88.3599V83.8479H301.125V82.9679L302.405 82.2639L303.045 80.4239H304.309V82.3279H306.773V83.8479H304.309V88.3439C304.309 88.7492 304.415 89.0532 304.629 89.2559C304.853 89.4479 305.13 89.5439 305.461 89.5439Z" fill="black"/>
<path d="M309.609 78.9839C309.907 78.9839 310.169 79.0639 310.393 79.2239C310.617 79.3732 310.729 79.6452 310.729 80.0399C310.729 80.4346 310.617 80.7119 310.393 80.8719C310.169 81.0319 309.907 81.1119 309.609 81.1119C309.299 81.1119 309.033 81.0319 308.809 80.8719C308.595 80.7119 308.489 80.4346 308.489 80.0399C308.489 79.6452 308.595 79.3732 308.809 79.2239C309.033 79.0639 309.299 78.9839 309.609 78.9839ZM310.617 82.3279V90.9999H308.601V82.3279H310.617Z" fill="black"/>
<path d="M320.938 86.6479C320.938 88.0879 320.565 89.2026 319.818 89.9919C319.072 90.7706 318.058 91.1599 316.778 91.1599C315.989 91.1599 315.285 90.9839 314.666 90.6319C314.048 90.2799 313.562 89.7679 313.21 89.0959C312.858 88.4239 312.682 87.6079 312.682 86.6479C312.682 85.2079 313.05 84.1039 313.786 83.3359C314.533 82.5572 315.546 82.1679 316.826 82.1679C317.626 82.1679 318.336 82.3439 318.954 82.6959C319.573 83.0372 320.058 83.5439 320.41 84.2159C320.762 84.8772 320.938 85.6879 320.938 86.6479ZM314.746 86.6479C314.746 87.5652 314.906 88.2746 315.226 88.7759C315.557 89.2772 316.085 89.5279 316.81 89.5279C317.525 89.5279 318.048 89.2772 318.378 88.7759C318.709 88.2746 318.874 87.5652 318.874 86.6479C318.874 85.7306 318.709 85.0266 318.378 84.5359C318.048 84.0452 317.52 83.7999 316.794 83.7999C316.069 83.7999 315.546 84.0452 315.226 84.5359C314.906 85.0266 314.746 85.7306 314.746 86.6479Z" fill="black"/>
<path d="M327.663 82.1679C328.633 82.1679 329.391 82.4186 329.935 82.9199C330.489 83.4212 330.767 84.2319 330.767 85.3519V90.9999H328.751V85.7519C328.751 85.1012 328.623 84.6159 328.367 84.2959C328.111 83.9652 327.705 83.7999 327.151 83.7999C326.34 83.7999 325.785 84.0559 325.487 84.5679C325.188 85.0799 325.039 85.8106 325.039 86.7599V90.9999H323.023V82.3279H324.574L324.863 83.4639H324.975C325.252 83.0159 325.631 82.6906 326.111 82.4879C326.601 82.2746 327.119 82.1679 327.663 82.1679Z" fill="black"/>
<path d="M344.212 82.1839C344.212 82.9626 343.983 83.5866 343.524 84.0559C343.076 84.5146 342.495 84.8239 341.78 84.9839V85.0319C342.698 85.1492 343.391 85.4372 343.86 85.8959C344.33 86.3546 344.564 86.9572 344.564 87.7039C344.564 88.3652 344.404 88.9572 344.084 89.4799C343.764 90.0026 343.268 90.4132 342.596 90.7119C341.935 91.0106 341.082 91.1599 340.036 91.1599C339.407 91.1599 338.826 91.1066 338.292 90.9999C337.77 90.9039 337.274 90.7492 336.804 90.5359V88.7599C337.284 89.0052 337.796 89.1919 338.34 89.3199C338.884 89.4479 339.396 89.5119 339.876 89.5119C340.804 89.5119 341.46 89.3466 341.844 89.0159C342.228 88.6746 342.42 88.2052 342.42 87.6079C342.42 87.0426 342.196 86.6212 341.748 86.3439C341.3 86.0666 340.554 85.9279 339.508 85.9279H338.548V84.3119H339.524C340.538 84.3119 341.236 84.1466 341.62 83.8159C342.004 83.4852 342.196 83.0586 342.196 82.5359C342.196 82.0772 342.047 81.7199 341.748 81.4639C341.45 81.2079 341.002 81.0799 340.404 81.0799C339.828 81.0799 339.332 81.1759 338.916 81.3679C338.5 81.5492 338.127 81.7466 337.796 81.9599L336.836 80.5679C337.274 80.2479 337.791 79.9759 338.388 79.7519C338.986 79.5279 339.69 79.4159 340.5 79.4159C341.684 79.4159 342.596 79.6666 343.236 80.1679C343.887 80.6692 344.212 81.3412 344.212 82.1839Z" fill="black"/>
<path d="M175.823 87.8799C175.823 88.8932 175.455 89.6932 174.719 90.2799C173.983 90.8666 172.965 91.1599 171.663 91.1599C170.405 91.1599 169.338 90.9466 168.463 90.5199V88.5999C168.943 88.8132 169.471 89.0106 170.047 89.1919C170.634 89.3626 171.221 89.4479 171.807 89.4479C172.501 89.4479 173.002 89.3146 173.311 89.0479C173.631 88.7706 173.791 88.4186 173.791 87.9919C173.791 87.5226 173.589 87.1492 173.183 86.8719C172.778 86.5839 172.186 86.2746 171.407 85.9439C170.938 85.7519 170.485 85.5172 170.047 85.2399C169.621 84.9519 169.269 84.5946 168.991 84.1679C168.725 83.7306 168.591 83.1866 168.591 82.5359C168.591 81.5652 168.933 80.8026 169.615 80.2479C170.309 79.6932 171.231 79.4159 172.383 79.4159C172.981 79.4159 173.546 79.4799 174.079 79.6079C174.623 79.7359 175.157 79.9172 175.679 80.1519L175.023 81.7999C174.543 81.5972 174.085 81.4372 173.647 81.3199C173.221 81.2026 172.778 81.1439 172.319 81.1439C171.765 81.1439 171.343 81.2666 171.055 81.5119C170.767 81.7572 170.623 82.0826 170.623 82.4879C170.623 82.7972 170.703 83.0639 170.863 83.2879C171.023 83.5012 171.269 83.6986 171.599 83.8799C171.941 84.0612 172.378 84.2692 172.911 84.5039C173.53 84.7706 174.053 85.0532 174.479 85.3519C174.917 85.6399 175.247 85.9866 175.471 86.3919C175.706 86.7866 175.823 87.2826 175.823 87.8799Z" fill="black"/>
<path d="M181.276 82.1679C182.439 82.1679 183.356 82.5146 184.028 83.2079C184.711 83.9012 185.052 84.8666 185.052 86.1039V87.1279H179.324C179.345 87.9172 179.564 88.5306 179.98 88.9679C180.396 89.3946 180.972 89.6079 181.708 89.6079C182.263 89.6079 182.764 89.5546 183.212 89.4479C183.66 89.3306 184.119 89.1652 184.588 88.9519V90.5679C184.161 90.7706 183.719 90.9199 183.26 91.0159C182.801 91.1119 182.252 91.1599 181.612 91.1599C180.759 91.1599 180.007 90.9999 179.356 90.6799C178.705 90.3492 178.193 89.8586 177.82 89.2079C177.457 88.5466 177.276 87.7199 177.276 86.7279C177.276 85.2452 177.639 84.1146 178.364 83.3359C179.1 82.5572 180.071 82.1679 181.276 82.1679ZM181.276 83.6559C180.732 83.6559 180.289 83.8319 179.948 84.1839C179.617 84.5252 179.425 85.0372 179.372 85.7199H183.1C183.089 85.1226 182.935 84.6319 182.636 84.2479C182.348 83.8532 181.895 83.6559 181.276 83.6559Z" fill="black"/>
<path d="M190.589 91.1599C189.352 91.1599 188.37 90.8026 187.645 90.0879C186.93 89.3732 186.573 88.2479 186.573 86.7119C186.573 85.6452 186.749 84.7812 187.101 84.1199C187.464 83.4479 187.96 82.9572 188.589 82.6479C189.218 82.3279 189.938 82.1679 190.749 82.1679C191.282 82.1679 191.762 82.2212 192.189 82.3279C192.626 82.4346 192.994 82.5626 193.293 82.7119L192.701 84.2959C192.36 84.1679 192.024 84.0612 191.693 83.9759C191.362 83.8799 191.048 83.8319 190.749 83.8319C189.341 83.8319 188.637 84.7866 188.637 86.6959C188.637 87.6239 188.813 88.3226 189.165 88.7919C189.528 89.2612 190.045 89.4959 190.717 89.4959C191.197 89.4959 191.624 89.4372 191.997 89.3199C192.381 89.2026 192.738 89.0426 193.069 88.8399V90.5839C192.738 90.7866 192.381 90.9306 191.997 91.0159C191.613 91.1119 191.144 91.1599 190.589 91.1599Z" fill="black"/>
<path d="M198.461 89.5439C198.706 89.5439 198.946 89.5226 199.181 89.4799C199.426 89.4266 199.65 89.3679 199.853 89.3039V90.8079C199.639 90.9146 199.362 90.9999 199.021 91.0639C198.679 91.1279 198.322 91.1599 197.949 91.1599C197.447 91.1599 196.994 91.0799 196.589 90.9199C196.194 90.7599 195.879 90.4772 195.645 90.0719C195.41 89.6666 195.293 89.0959 195.293 88.3599V83.8479H194.125V82.9679L195.405 82.2639L196.045 80.4239H197.309V82.3279H199.773V83.8479H197.309V88.3439C197.309 88.7492 197.415 89.0532 197.629 89.2559C197.853 89.4479 198.13 89.5439 198.461 89.5439Z" fill="black"/>
<path d="M202.609 78.9839C202.907 78.9839 203.169 79.0639 203.393 79.2239C203.617 79.3732 203.729 79.6452 203.729 80.0399C203.729 80.4346 203.617 80.7119 203.393 80.8719C203.169 81.0319 202.907 81.1119 202.609 81.1119C202.299 81.1119 202.033 81.0319 201.809 80.8719C201.595 80.7119 201.489 80.4346 201.489 80.0399C201.489 79.6452 201.595 79.3732 201.809 79.2239C202.033 79.0639 202.299 78.9839 202.609 78.9839ZM203.617 82.3279V90.9999H201.601V82.3279H203.617Z" fill="black"/>
<path d="M213.938 86.6479C213.938 88.0879 213.565 89.2026 212.818 89.9919C212.072 90.7706 211.058 91.1599 209.778 91.1599C208.989 91.1599 208.285 90.9839 207.666 90.6319C207.048 90.2799 206.562 89.7679 206.21 89.0959C205.858 88.4239 205.682 87.6079 205.682 86.6479C205.682 85.2079 206.05 84.1039 206.786 83.3359C207.533 82.5572 208.546 82.1679 209.826 82.1679C210.626 82.1679 211.336 82.3439 211.954 82.6959C212.573 83.0372 213.058 83.5439 213.41 84.2159C213.762 84.8772 213.938 85.6879 213.938 86.6479ZM207.746 86.6479C207.746 87.5652 207.906 88.2746 208.226 88.7759C208.557 89.2772 209.085 89.5279 209.81 89.5279C210.525 89.5279 211.048 89.2772 211.378 88.7759C211.709 88.2746 211.874 87.5652 211.874 86.6479C211.874 85.7306 211.709 85.0266 211.378 84.5359C211.048 84.0452 210.52 83.7999 209.794 83.7999C209.069 83.7999 208.546 84.0452 208.226 84.5359C207.906 85.0266 207.746 85.7306 207.746 86.6479Z" fill="black"/>
<path d="M220.663 82.1679C221.633 82.1679 222.391 82.4186 222.935 82.9199C223.489 83.4212 223.767 84.2319 223.767 85.3519V90.9999H221.751V85.7519C221.751 85.1012 221.623 84.6159 221.367 84.2959C221.111 83.9652 220.705 83.7999 220.151 83.7999C219.34 83.7999 218.785 84.0559 218.487 84.5679C218.188 85.0799 218.039 85.8106 218.039 86.7599V90.9999H216.023V82.3279H217.575L217.863 83.4639H217.975C218.252 83.0159 218.631 82.6906 219.111 82.4879C219.601 82.2746 220.119 82.1679 220.663 82.1679Z" fill="black"/>
<path d="M237.66 90.9999H229.836V89.5119L232.748 86.5679C233.324 85.9812 233.794 85.4799 234.156 85.0639C234.53 84.6479 234.802 84.2586 234.972 83.8959C235.154 83.5226 235.244 83.1226 235.244 82.6959C235.244 82.1732 235.095 81.7839 234.796 81.5279C234.508 81.2612 234.114 81.1279 233.612 81.1279C233.132 81.1279 232.684 81.2292 232.268 81.4319C231.852 81.6239 231.42 81.9012 230.972 82.2639L229.868 80.9359C230.338 80.5306 230.866 80.1786 231.452 79.8799C232.05 79.5706 232.807 79.4159 233.724 79.4159C234.46 79.4159 235.09 79.5492 235.612 79.8159C236.146 80.0719 236.556 80.4346 236.844 80.9039C237.132 81.3626 237.276 81.8906 237.276 82.4879C237.276 83.1066 237.154 83.6772 236.908 84.1999C236.663 84.7119 236.306 85.2292 235.836 85.7519C235.378 86.2639 234.828 86.8186 234.188 87.4159L232.38 89.1599V89.2559H237.66V90.9999Z" fill="black"/>
<path d="M54 114H143" stroke="#004E6C" stroke-width="8"/>
<path d="M266 114H355" stroke="#004E6C" stroke-width="8"/>
<path d="M159 114H248" stroke="#004E6C" stroke-width="8"/>
<rect x="152.5" y="51.5" width="103" height="73" rx="6.5" stroke="#1B77AF" stroke-width="3"/>
</svg>
