<svg width="408" height="176" viewBox="0 0 408 176" fill="none" xmlns="http://www.w3.org/2000/svg">
<rect width="408" height="176" fill="white"/>
<rect x="169.657" y="47.5" width="125" height="13" stroke="#004E6C" stroke-width="3"/>
<rect x="169.657" y="103.5" width="125" height="13" stroke="#004E6C" stroke-width="3"/>
<path d="M168.157 68H296.157" stroke="#004E6C" stroke-width="3"/>
<path d="M168.157 124H296.157" stroke="#004E6C" stroke-width="3"/>
<path d="M168.157 74H259.157" stroke="#004E6C" stroke-width="3"/>
<path d="M168.157 130H259.157" stroke="#004E6C" stroke-width="3"/>
<path d="M122.374 89.0001H120.664V82.6731H113.71V89.0001H112V75.4341H113.71V81.1721H120.664V75.4341H122.374V89.0001Z" fill="black"/>
<path d="M134.12 89.0001H125.152V87.6131L128.705 84.0221C129.376 83.3381 129.946 82.7301 130.415 82.1981C130.896 81.6661 131.257 81.1468 131.498 80.6401C131.739 80.1335 131.859 79.5698 131.859 78.9491C131.859 78.2018 131.637 77.6381 131.194 77.2581C130.751 76.8655 130.174 76.6691 129.465 76.6691C128.794 76.6691 128.211 76.7831 127.717 77.0111C127.223 77.2391 126.716 77.5558 126.197 77.9611L125.304 76.8401C125.836 76.3968 126.444 76.0231 127.128 75.7191C127.825 75.4025 128.604 75.2441 129.465 75.2441C130.732 75.2441 131.732 75.5671 132.467 76.2131C133.202 76.8591 133.569 77.7395 133.569 78.8541C133.569 79.5635 133.423 80.2285 133.132 80.8491C132.841 81.4698 132.435 82.0841 131.916 82.6921C131.397 83.3001 130.789 83.9398 130.092 84.6111L127.261 87.4041V87.4801H134.12V89.0001Z" fill="black"/>
<path d="M161.157 54H126.157C123.948 54 122.157 55.7909 122.157 58V70" stroke="#AB3FE0" stroke-width="2"/>
<path d="M161.157 110H126.157C123.948 110 122.157 108.209 122.157 106V94" stroke="#AB3FE0" stroke-width="2"/>
</svg>
