<svg width="408" height="176" viewBox="0 0 408 176" fill="none" xmlns="http://www.w3.org/2000/svg">
<rect width="408" height="176" fill="white"/>
<path d="M157.672 140.999H156V126.559H157.672V140.999Z" fill="#004E6C"/>
<path d="M164.755 130.644C165.997 130.644 166.915 130.916 167.51 131.461C168.106 132.005 168.403 132.873 168.403 134.064V140.999H167.187L166.864 139.555H166.788C166.345 140.112 165.876 140.524 165.382 140.79C164.888 141.056 164.217 141.189 163.368 141.189C162.444 141.189 161.677 140.948 161.069 140.467C160.461 139.973 160.157 139.206 160.157 138.168C160.157 137.154 160.556 136.375 161.354 135.831C162.152 135.273 163.381 134.969 165.04 134.919L166.769 134.862V134.254C166.769 133.405 166.586 132.816 166.218 132.487C165.851 132.157 165.332 131.993 164.66 131.993C164.128 131.993 163.622 132.075 163.14 132.24C162.659 132.392 162.209 132.569 161.791 132.772L161.278 131.518C161.722 131.277 162.247 131.074 162.855 130.91C163.463 130.732 164.097 130.644 164.755 130.644ZM166.75 136.021L165.249 136.078C163.983 136.128 163.102 136.331 162.608 136.686C162.127 137.04 161.886 137.541 161.886 138.187C161.886 138.757 162.057 139.175 162.399 139.441C162.754 139.707 163.204 139.84 163.748 139.84C164.597 139.84 165.306 139.605 165.876 139.137C166.459 138.655 166.75 137.921 166.75 136.933V136.021Z" fill="#004E6C"/>
<path d="M176.451 130.625C177.667 130.625 178.585 130.922 179.206 131.518C179.826 132.113 180.137 133.063 180.137 134.368V140.999H178.484V134.482C178.484 132.848 177.724 132.031 176.204 132.031C175.076 132.031 174.297 132.347 173.867 132.981C173.436 133.614 173.221 134.526 173.221 135.717V140.999H171.549V130.815H172.898L173.145 132.202H173.24C173.569 131.67 174.025 131.277 174.608 131.024C175.19 130.758 175.805 130.625 176.451 130.625Z" fill="#004E6C"/>
<path d="M186.904 130.625C187.575 130.625 188.177 130.751 188.709 131.005C189.254 131.258 189.716 131.644 190.096 132.164H190.191L190.419 130.815H191.749V141.17C191.749 142.626 191.375 143.722 190.628 144.457C189.893 145.191 188.747 145.559 187.189 145.559C185.694 145.559 184.472 145.343 183.522 144.913V143.374C184.523 143.906 185.777 144.172 187.284 144.172C188.158 144.172 188.842 143.912 189.336 143.393C189.843 142.886 190.096 142.189 190.096 141.303V140.904C190.096 140.752 190.102 140.536 190.115 140.258C190.128 139.966 190.14 139.764 190.153 139.65H190.077C189.393 140.676 188.342 141.189 186.923 141.189C185.606 141.189 184.573 140.726 183.826 139.802C183.091 138.877 182.724 137.585 182.724 135.926C182.724 134.304 183.091 133.019 183.826 132.069C184.573 131.106 185.599 130.625 186.904 130.625ZM187.132 132.031C186.283 132.031 185.625 132.373 185.156 133.057C184.687 133.728 184.453 134.691 184.453 135.945C184.453 137.199 184.681 138.161 185.137 138.833C185.593 139.491 186.271 139.821 187.17 139.821C188.196 139.821 188.943 139.548 189.412 139.004C189.881 138.446 190.115 137.553 190.115 136.325V135.926C190.115 134.545 189.874 133.551 189.393 132.943C188.912 132.335 188.158 132.031 187.132 132.031Z" fill="#004E6C"/>
<path d="M194.432 133.095V131.746H203.134V133.095H194.432ZM194.432 136.876V135.527H203.134V136.876H194.432Z" fill="#004E6C"/>
<path d="M210.834 127.433C210.657 128.167 210.473 128.965 210.283 129.827C210.106 130.675 209.973 131.429 209.884 132.088H208.079L207.946 131.879C208.111 131.22 208.345 130.485 208.649 129.675C208.966 128.864 209.283 128.117 209.599 127.433H210.834ZM207.319 127.433C207.142 128.167 206.965 128.965 206.787 129.827C206.61 130.675 206.471 131.429 206.369 132.088H204.583L204.469 131.879C204.647 131.22 204.881 130.485 205.172 129.675C205.476 128.864 205.787 128.117 206.103 127.433H207.319Z" fill="#004E6C"/>
<path d="M216.618 130.625C217.479 130.625 218.226 130.815 218.86 131.195C219.493 131.575 219.974 132.113 220.304 132.81C220.646 133.494 220.817 134.298 220.817 135.223V136.23H213.844C213.869 137.382 214.16 138.263 214.718 138.871C215.288 139.466 216.079 139.764 217.093 139.764C217.739 139.764 218.309 139.707 218.803 139.593C219.309 139.466 219.829 139.289 220.361 139.061V140.524C219.841 140.752 219.328 140.916 218.822 141.018C218.315 141.132 217.713 141.189 217.017 141.189C216.041 141.189 215.186 140.992 214.452 140.6C213.717 140.207 213.141 139.624 212.723 138.852C212.317 138.079 212.115 137.123 212.115 135.983C212.115 134.868 212.298 133.912 212.666 133.114C213.046 132.316 213.571 131.701 214.243 131.271C214.927 130.84 215.718 130.625 216.618 130.625ZM216.599 131.993C215.801 131.993 215.167 132.252 214.699 132.772C214.243 133.278 213.97 133.988 213.882 134.9H219.069C219.056 134.038 218.853 133.342 218.461 132.81C218.068 132.265 217.447 131.993 216.599 131.993Z" fill="#004E6C"/>
<path d="M228.311 130.625C229.527 130.625 230.446 130.922 231.066 131.518C231.687 132.113 231.997 133.063 231.997 134.368V140.999H230.344V134.482C230.344 132.848 229.584 132.031 228.064 132.031C226.937 132.031 226.158 132.347 225.727 132.981C225.297 133.614 225.081 134.526 225.081 135.717V140.999H223.409V130.815H224.758L225.005 132.202H225.1C225.43 131.67 225.886 131.277 226.468 131.024C227.051 130.758 227.665 130.625 228.311 130.625Z" fill="#004E6C"/>
<path d="M238.764 130.625C239.436 130.625 240.037 130.751 240.569 131.005C241.114 131.258 241.576 131.644 241.956 132.164H242.051L242.279 130.815H243.609V141.17C243.609 142.626 243.236 143.722 242.488 144.457C241.754 145.191 240.607 145.559 239.049 145.559C237.555 145.559 236.332 145.343 235.382 144.913V143.374C236.383 143.906 237.637 144.172 239.144 144.172C240.018 144.172 240.702 143.912 241.196 143.393C241.703 142.886 241.956 142.189 241.956 141.303V140.904C241.956 140.752 241.963 140.536 241.975 140.258C241.988 139.966 242.001 139.764 242.013 139.65H241.937C241.253 140.676 240.202 141.189 238.783 141.189C237.466 141.189 236.434 140.726 235.686 139.802C234.952 138.877 234.584 137.585 234.584 135.926C234.584 134.304 234.952 133.019 235.686 132.069C236.434 131.106 237.46 130.625 238.764 130.625ZM238.992 132.031C238.144 132.031 237.485 132.373 237.016 133.057C236.548 133.728 236.313 134.691 236.313 135.945C236.313 137.199 236.541 138.161 236.997 138.833C237.453 139.491 238.131 139.821 239.03 139.821C240.056 139.821 240.804 139.548 241.272 139.004C241.741 138.446 241.975 137.553 241.975 136.325V135.926C241.975 134.545 241.735 133.551 241.253 132.943C240.772 132.335 240.018 132.031 238.992 132.031Z" fill="#004E6C"/>
<path d="M251.689 127.433L251.822 127.642C251.657 128.313 251.416 129.054 251.1 129.865C250.796 130.675 250.492 131.416 250.188 132.088H248.934C249.048 131.619 249.168 131.106 249.295 130.549C249.421 129.991 249.535 129.447 249.637 128.915C249.751 128.37 249.839 127.876 249.903 127.433H251.689ZM248.174 127.433L248.307 127.642C248.129 128.313 247.889 129.054 247.585 129.865C247.281 130.675 246.977 131.416 246.673 132.088H245.457C245.583 131.619 245.704 131.106 245.818 130.549C245.932 129.991 246.039 129.447 246.141 128.915C246.242 128.37 246.324 127.876 246.388 127.433H248.174Z" fill="#004E6C"/>
<path d="M171.721 49.5C172.054 49.5 177.421 49.5 196.221 49.5C219.721 49.5 207.221 69 235.221 69" stroke="#088A08" stroke-width="3"/>
<path d="M171.721 67.5C172.054 67.5 177.421 67.5 196.221 67.5C219.721 67.5 207.221 87 235.221 87V50C205.721 50 220.721 30 196.221 30C176.621 30 171.221 30 171.221 30L171.721 104" stroke="#004E6C" stroke-width="3"/>
</svg>
