<svg width="408" height="176" viewBox="0 0 408 176" fill="none" xmlns="http://www.w3.org/2000/svg">
<rect width="408" height="176" fill="white"/>
<rect x="69.5" y="42.5" width="270" height="33" stroke="#004E6C" stroke-width="3"/>
<rect x="69.5" y="94.5" width="83" height="72" stroke="#088A08" stroke-width="3"/>
<rect x="163.5" y="94.5" width="82" height="72" stroke="#088A08" stroke-width="3"/>
<rect x="256.5" y="94.5" width="83" height="72" stroke="#088A08" stroke-width="3"/>
<rect x="68" y="8" width="273" height="36" fill="#004E6C"/>
<path d="M112.5 60.5H151" stroke="#004E6C" stroke-width="3"/>
<path d="M163 60.5H201.5" stroke="#004E6C" stroke-width="3"/>
<path d="M213.5 60.5H252" stroke="#004E6C" stroke-width="3"/>
<path d="M264 60.5H302.5" stroke="#004E6C" stroke-width="3"/>
<circle cx="91" cy="59" r="8.5" stroke="#004E6C" stroke-width="3"/>
<path d="M143.028 28.3261C143.028 29.2128 142.706 29.9034 142.062 30.3981C141.418 30.8928 140.55 31.1401 139.458 31.1401C138.898 31.1401 138.38 31.0981 137.904 31.0141C137.428 30.9301 137.031 30.8134 136.714 30.6641V29.4601C137.05 29.6094 137.465 29.7448 137.96 29.8661C138.464 29.9874 138.982 30.0481 139.514 30.0481C140.251 30.0481 140.811 29.9034 141.194 29.6141C141.577 29.3248 141.768 28.9328 141.768 28.4381C141.768 28.1114 141.698 27.8361 141.558 27.6121C141.418 27.3881 141.175 27.1828 140.83 26.9961C140.485 26.8094 140.013 26.6041 139.416 26.3801C138.557 26.0721 137.913 25.6941 137.484 25.2461C137.055 24.7981 136.84 24.1868 136.84 23.4121C136.84 22.8894 136.975 22.4368 137.246 22.0541C137.517 21.6714 137.89 21.3774 138.366 21.1721C138.842 20.9668 139.397 20.8641 140.032 20.8641C140.573 20.8641 141.073 20.9154 141.53 21.0181C141.987 21.1208 142.407 21.2561 142.79 21.4241L142.398 22.5021C142.053 22.3528 141.675 22.2268 141.264 22.1241C140.853 22.0214 140.433 21.9701 140.004 21.9701C139.379 21.9701 138.907 22.1054 138.59 22.3761C138.273 22.6374 138.114 22.9874 138.114 23.4261C138.114 23.7621 138.184 24.0421 138.324 24.2661C138.464 24.4901 138.693 24.6954 139.01 24.8821C139.327 25.0594 139.757 25.2461 140.298 25.4421C140.886 25.6568 141.381 25.8901 141.782 26.1421C142.193 26.3848 142.501 26.6788 142.706 27.0241C142.921 27.3694 143.028 27.8034 143.028 28.3261Z" fill="white"/>
<path d="M146.092 20.3601V25.9181C146.092 26.0674 146.082 26.2634 146.064 26.5061C146.054 26.7488 146.045 26.9588 146.036 27.1361H146.092C146.148 27.0614 146.232 26.9541 146.344 26.8141C146.456 26.6741 146.568 26.5341 146.68 26.3941C146.801 26.2448 146.904 26.1234 146.988 26.0301L149.382 23.4961H150.824L147.786 26.7021L151.034 31.0001H149.55L146.946 27.5001L146.092 28.2421V31.0001H144.874V20.3601H146.092Z" fill="white"/>
<path d="M152.982 20.6821C153.169 20.6821 153.332 20.7474 153.472 20.8781C153.621 20.9994 153.696 21.1954 153.696 21.4661C153.696 21.7368 153.621 21.9374 153.472 22.0681C153.332 22.1894 153.169 22.2501 152.982 22.2501C152.777 22.2501 152.604 22.1894 152.464 22.0681C152.324 21.9374 152.254 21.7368 152.254 21.4661C152.254 21.1954 152.324 20.9994 152.464 20.8781C152.604 20.7474 152.777 20.6821 152.982 20.6821ZM153.584 23.4961V31.0001H152.352V23.4961H153.584Z" fill="white"/>
<path d="M159.531 23.3561C160.455 23.3561 161.197 23.6781 161.757 24.3221C162.327 24.9661 162.611 25.9368 162.611 27.2341C162.611 28.5128 162.327 29.4834 161.757 30.1461C161.197 30.8088 160.451 31.1401 159.517 31.1401C158.939 31.1401 158.458 31.0328 158.075 30.8181C157.702 30.6034 157.408 30.3468 157.193 30.0481H157.109C157.119 30.2068 157.133 30.4074 157.151 30.6501C157.179 30.8928 157.193 31.1028 157.193 31.2801V34.3601H155.961V23.4961H156.969L157.137 24.5181H157.193C157.417 24.1914 157.711 23.9161 158.075 23.6921C158.439 23.4681 158.925 23.3561 159.531 23.3561ZM159.307 24.3921C158.542 24.3921 158.001 24.6068 157.683 25.0361C157.366 25.4654 157.203 26.1188 157.193 26.9961V27.2341C157.193 28.1581 157.343 28.8721 157.641 29.3761C157.949 29.8708 158.514 30.1181 159.335 30.1181C159.783 30.1181 160.157 29.9968 160.455 29.7541C160.754 29.5021 160.973 29.1568 161.113 28.7181C161.263 28.2794 161.337 27.7801 161.337 27.2201C161.337 26.3614 161.169 25.6754 160.833 25.1621C160.507 24.6488 159.998 24.3921 159.307 24.3921Z" fill="white"/>
<path d="M170.717 30.1321C170.904 30.1321 171.095 30.1181 171.291 30.0901C171.487 30.0621 171.646 30.0248 171.767 29.9781V30.9161C171.637 30.9814 171.45 31.0328 171.207 31.0701C170.965 31.1168 170.731 31.1401 170.507 31.1401C170.115 31.1401 169.751 31.0748 169.415 30.9441C169.089 30.8041 168.823 30.5661 168.617 30.2301C168.412 29.8941 168.309 29.4228 168.309 28.8161V24.4481H167.245V23.8601L168.323 23.3701L168.813 21.7741H169.541V23.4961H171.711V24.4481H169.541V28.7881C169.541 29.2454 169.649 29.5861 169.863 29.8101C170.087 30.0248 170.372 30.1321 170.717 30.1321Z" fill="white"/>
<path d="M179.794 27.2341C179.794 28.4754 179.477 29.4368 178.842 30.1181C178.217 30.7994 177.367 31.1401 176.294 31.1401C175.631 31.1401 175.039 30.9908 174.516 30.6921C174.003 30.3841 173.597 29.9408 173.298 29.3621C172.999 28.7741 172.85 28.0648 172.85 27.2341C172.85 25.9928 173.158 25.0361 173.774 24.3641C174.399 23.6921 175.253 23.3561 176.336 23.3561C177.008 23.3561 177.605 23.5101 178.128 23.8181C178.651 24.1168 179.057 24.5554 179.346 25.1341C179.645 25.7034 179.794 26.4034 179.794 27.2341ZM174.124 27.2341C174.124 28.1208 174.297 28.8254 174.642 29.3481C174.997 29.8614 175.557 30.1181 176.322 30.1181C177.078 30.1181 177.633 29.8614 177.988 29.3481C178.343 28.8254 178.52 28.1208 178.52 27.2341C178.52 26.3474 178.343 25.6521 177.988 25.1481C177.633 24.6441 177.073 24.3921 176.308 24.3921C175.543 24.3921 174.987 24.6441 174.642 25.1481C174.297 25.6521 174.124 26.3474 174.124 27.2341Z" fill="white"/>
<path d="M193.615 23.3561C194.465 23.3561 195.099 23.5754 195.519 24.0141C195.939 24.4528 196.149 25.1528 196.149 26.1141V31.0001H194.931V26.1701C194.931 24.9848 194.423 24.3921 193.405 24.3921C192.677 24.3921 192.155 24.6021 191.837 25.0221C191.529 25.4421 191.375 26.0534 191.375 26.8561V31.0001H190.157V26.1701C190.157 24.9848 189.644 24.3921 188.617 24.3921C187.861 24.3921 187.339 24.6254 187.049 25.0921C186.76 25.5588 186.615 26.2308 186.615 27.1081V31.0001H185.383V23.4961H186.377L186.559 24.5181H186.629C186.863 24.1261 187.175 23.8368 187.567 23.6501C187.969 23.4541 188.393 23.3561 188.841 23.3561C190.017 23.3561 190.783 23.7761 191.137 24.6161H191.207C191.459 24.1868 191.8 23.8694 192.229 23.6641C192.659 23.4588 193.121 23.3561 193.615 23.3561Z" fill="white"/>
<path d="M201.309 23.3701C202.224 23.3701 202.901 23.5708 203.339 23.9721C203.778 24.3734 203.997 25.0128 203.997 25.8901V31.0001H203.101L202.863 29.9361H202.807C202.481 30.3468 202.135 30.6501 201.771 30.8461C201.407 31.0421 200.913 31.1401 200.287 31.1401C199.606 31.1401 199.041 30.9628 198.593 30.6081C198.145 30.2441 197.921 29.6794 197.921 28.9141C197.921 28.1674 198.215 27.5934 198.803 27.1921C199.391 26.7814 200.297 26.5574 201.519 26.5201L202.793 26.4781V26.0301C202.793 25.4048 202.658 24.9708 202.387 24.7281C202.117 24.4854 201.734 24.3641 201.239 24.3641C200.847 24.3641 200.474 24.4248 200.119 24.5461C199.765 24.6581 199.433 24.7888 199.125 24.9381L198.747 24.0141C199.074 23.8368 199.461 23.6874 199.909 23.5661C200.357 23.4354 200.824 23.3701 201.309 23.3701ZM202.779 27.3321L201.673 27.3741C200.74 27.4114 200.091 27.5608 199.727 27.8221C199.373 28.0834 199.195 28.4521 199.195 28.9281C199.195 29.3481 199.321 29.6561 199.573 29.8521C199.835 30.0481 200.166 30.1461 200.567 30.1461C201.193 30.1461 201.715 29.9734 202.135 29.6281C202.565 29.2734 202.779 28.7321 202.779 28.0041V27.3321Z" fill="white"/>
<path d="M206.945 20.6821C207.132 20.6821 207.295 20.7474 207.435 20.8781C207.584 20.9994 207.659 21.1954 207.659 21.4661C207.659 21.7368 207.584 21.9374 207.435 22.0681C207.295 22.1894 207.132 22.2501 206.945 22.2501C206.74 22.2501 206.567 22.1894 206.427 22.0681C206.287 21.9374 206.217 21.7368 206.217 21.4661C206.217 21.1954 206.287 20.9994 206.427 20.8781C206.567 20.7474 206.74 20.6821 206.945 20.6821ZM207.547 23.4961V31.0001H206.315V23.4961H207.547Z" fill="white"/>
<path d="M213.536 23.3561C214.432 23.3561 215.109 23.5754 215.566 24.0141C216.024 24.4528 216.252 25.1528 216.252 26.1141V31.0001H215.034V26.1981C215.034 24.9941 214.474 24.3921 213.354 24.3921C212.524 24.3921 211.95 24.6254 211.632 25.0921C211.315 25.5588 211.156 26.2308 211.156 27.1081V31.0001H209.924V23.4961H210.918L211.1 24.5181H211.17C211.413 24.1261 211.749 23.8368 212.178 23.6501C212.608 23.4541 213.06 23.3561 213.536 23.3561Z" fill="white"/>
<path d="M225.225 31.1401C224.553 31.1401 223.961 31.0048 223.447 30.7341C222.934 30.4634 222.528 30.0434 222.229 29.4741C221.94 28.9048 221.795 28.1768 221.795 27.2901C221.795 26.3661 221.945 25.6148 222.243 25.0361C222.551 24.4574 222.971 24.0328 223.503 23.7621C224.035 23.4914 224.637 23.3561 225.309 23.3561C225.683 23.3561 226.047 23.3981 226.401 23.4821C226.765 23.5568 227.059 23.6501 227.283 23.7621L226.905 24.7841C226.681 24.7001 226.42 24.6208 226.121 24.5461C225.823 24.4714 225.543 24.4341 225.281 24.4341C223.807 24.4341 223.069 25.3814 223.069 27.2761C223.069 28.1814 223.247 28.8768 223.601 29.3621C223.965 29.8381 224.502 30.0761 225.211 30.0761C225.613 30.0761 225.972 30.0341 226.289 29.9501C226.607 29.8661 226.896 29.7634 227.157 29.6421V30.7341C226.905 30.8648 226.625 30.9628 226.317 31.0281C226.019 31.1028 225.655 31.1401 225.225 31.1401Z" fill="white"/>
<path d="M235.466 27.2341C235.466 28.4754 235.149 29.4368 234.514 30.1181C233.889 30.7994 233.039 31.1401 231.966 31.1401C231.303 31.1401 230.711 30.9908 230.188 30.6921C229.675 30.3841 229.269 29.9408 228.97 29.3621C228.671 28.7741 228.522 28.0648 228.522 27.2341C228.522 25.9928 228.83 25.0361 229.446 24.3641C230.071 23.6921 230.925 23.3561 232.008 23.3561C232.68 23.3561 233.277 23.5101 233.8 23.8181C234.323 24.1168 234.729 24.5554 235.018 25.1341C235.317 25.7034 235.466 26.4034 235.466 27.2341ZM229.796 27.2341C229.796 28.1208 229.969 28.8254 230.314 29.3481C230.669 29.8614 231.229 30.1181 231.994 30.1181C232.75 30.1181 233.305 29.8614 233.66 29.3481C234.015 28.8254 234.192 28.1208 234.192 27.2341C234.192 26.3474 234.015 25.6521 233.66 25.1481C233.305 24.6441 232.745 24.3921 231.98 24.3921C231.215 24.3921 230.659 24.6441 230.314 25.1481C229.969 25.6521 229.796 26.3474 229.796 27.2341Z" fill="white"/>
<path d="M241.031 23.3561C241.927 23.3561 242.603 23.5754 243.061 24.0141C243.518 24.4528 243.747 25.1528 243.747 26.1141V31.0001H242.529V26.1981C242.529 24.9941 241.969 24.3921 240.849 24.3921C240.018 24.3921 239.444 24.6254 239.127 25.0921C238.809 25.5588 238.651 26.2308 238.651 27.1081V31.0001H237.419V23.4961H238.413L238.595 24.5181H238.665C238.907 24.1261 239.243 23.8368 239.673 23.6501C240.102 23.4541 240.555 23.3561 241.031 23.3561Z" fill="white"/>
<path d="M248.579 30.1321C248.765 30.1321 248.957 30.1181 249.153 30.0901C249.349 30.0621 249.507 30.0248 249.629 29.9781V30.9161C249.498 30.9814 249.311 31.0328 249.069 31.0701C248.826 31.1168 248.593 31.1401 248.369 31.1401C247.977 31.1401 247.613 31.0748 247.277 30.9441C246.95 30.8041 246.684 30.5661 246.479 30.2301C246.273 29.8941 246.171 29.4228 246.171 28.8161V24.4481H245.107V23.8601L246.185 23.3701L246.675 21.7741H247.403V23.4961H249.573V24.4481H247.403V28.7881C247.403 29.2454 247.51 29.5861 247.725 29.8101C247.949 30.0248 248.233 30.1321 248.579 30.1321Z" fill="white"/>
<path d="M254.029 23.3561C254.664 23.3561 255.215 23.4961 255.681 23.7761C256.148 24.0561 256.503 24.4528 256.745 24.9661C256.997 25.4701 257.123 26.0628 257.123 26.7441V27.4861H251.985C252.004 28.3354 252.219 28.9841 252.629 29.4321C253.049 29.8708 253.633 30.0901 254.379 30.0901C254.855 30.0901 255.275 30.0481 255.639 29.9641C256.013 29.8708 256.395 29.7401 256.787 29.5721V30.6501C256.405 30.8181 256.027 30.9394 255.653 31.0141C255.28 31.0981 254.837 31.1401 254.323 31.1401C253.605 31.1401 252.975 30.9954 252.433 30.7061C251.892 30.4168 251.467 29.9874 251.159 29.4181C250.861 28.8488 250.711 28.1441 250.711 27.3041C250.711 26.4828 250.847 25.7781 251.117 25.1901C251.397 24.6021 251.785 24.1494 252.279 23.8321C252.783 23.5148 253.367 23.3561 254.029 23.3561ZM254.015 24.3641C253.427 24.3641 252.961 24.5554 252.615 24.9381C252.279 25.3114 252.079 25.8341 252.013 26.5061H255.835C255.826 25.8714 255.677 25.3581 255.387 24.9661C255.098 24.5648 254.641 24.3641 254.015 24.3641Z" fill="white"/>
<path d="M262.646 23.3561C263.542 23.3561 264.218 23.5754 264.676 24.0141C265.133 24.4528 265.362 25.1528 265.362 26.1141V31.0001H264.144V26.1981C264.144 24.9941 263.584 24.3921 262.464 24.3921C261.633 24.3921 261.059 24.6254 260.742 25.0921C260.424 25.5588 260.266 26.2308 260.266 27.1081V31.0001H259.034V23.4961H260.028L260.21 24.5181H260.28C260.522 24.1261 260.858 23.8368 261.288 23.6501C261.717 23.4541 262.17 23.3561 262.646 23.3561Z" fill="white"/>
<path d="M270.194 30.1321C270.381 30.1321 270.572 30.1181 270.768 30.0901C270.964 30.0621 271.123 30.0248 271.244 29.9781V30.9161C271.113 30.9814 270.927 31.0328 270.684 31.0701C270.441 31.1168 270.208 31.1401 269.984 31.1401C269.592 31.1401 269.228 31.0748 268.892 30.9441C268.565 30.8041 268.299 30.5661 268.094 30.2301C267.889 29.8941 267.786 29.4228 267.786 28.8161V24.4481H266.722V23.8601L267.8 23.3701L268.29 21.7741H269.018V23.4961H271.188V24.4481H269.018V28.7881C269.018 29.2454 269.125 29.5861 269.34 29.8101C269.564 30.0248 269.849 30.1321 270.194 30.1321Z" fill="white"/>
</svg>
