<svg width="408" height="176" viewBox="0 0 408 176" fill="none" xmlns="http://www.w3.org/2000/svg">
<rect width="408" height="176" fill="white"/>
<path d="M177.842 81.1914C180.717 81.1914 182.844 81.8221 184.222 83.0834C185.601 84.3448 186.29 86.3541 186.29 89.1114V105.171H183.474L182.726 101.827H182.55C181.524 103.118 180.438 104.071 179.294 104.687C178.15 105.303 176.596 105.611 174.63 105.611C172.489 105.611 170.714 105.054 169.306 103.939C167.898 102.795 167.194 101.021 167.194 98.6154C167.194 96.2688 168.118 94.4648 169.966 93.2034C171.814 91.9128 174.66 91.2088 178.502 91.0914L182.506 90.9594V89.5514C182.506 87.5861 182.081 86.2221 181.23 85.4594C180.38 84.6968 179.177 84.3154 177.622 84.3154C176.39 84.3154 175.217 84.5061 174.102 84.8874C172.988 85.2394 171.946 85.6501 170.978 86.1194L169.79 83.2154C170.817 82.6581 172.034 82.1888 173.442 81.8074C174.85 81.3968 176.317 81.1914 177.842 81.1914ZM182.462 93.6434L178.986 93.7754C176.053 93.8928 174.014 94.3621 172.87 95.1834C171.756 96.0048 171.198 97.1634 171.198 98.6594C171.198 99.9794 171.594 100.947 172.386 101.563C173.208 102.179 174.249 102.487 175.51 102.487C177.476 102.487 179.118 101.945 180.438 100.859C181.788 99.7448 182.462 98.0434 182.462 95.7554V93.6434Z" fill="#004E6C"/>
<path d="M197.446 105.171H193.574V71.7314H197.446V105.171Z" fill="#004E6C"/>
<path d="M212.794 102.443C213.381 102.443 213.982 102.399 214.598 102.311C215.214 102.223 215.713 102.106 216.094 101.959V104.907C215.683 105.113 215.097 105.274 214.334 105.391C213.571 105.538 212.838 105.611 212.134 105.611C210.902 105.611 209.758 105.406 208.702 104.995C207.675 104.555 206.839 103.807 206.194 102.751C205.549 101.695 205.226 100.214 205.226 98.3074V84.5794H201.882V82.7314L205.27 81.1914L206.81 76.1754H209.098V81.5874H215.918V84.5794H209.098V98.2194C209.098 99.6568 209.435 100.727 210.11 101.431C210.814 102.106 211.709 102.443 212.794 102.443Z" fill="#004E6C"/>
<path d="M219.541 86.8674V83.7434H239.693V86.8674H219.541ZM219.541 95.6234V92.4994H239.693V95.6234H219.541Z" fill="#004E6C"/>
<path d="M244.405 47.4854L163.484 128.407" stroke="#DA291C" stroke-width="3"/>
<circle cx="203.945" cy="87.9447" r="58.4447" transform="rotate(90 203.945 87.9447)" stroke="#004E6C" stroke-width="3"/>
</svg>
