<svg width="408" height="176" viewBox="0 0 408 176" fill="none" xmlns="http://www.w3.org/2000/svg">
<rect width="408" height="176" fill="white"/>
<path d="M168.308 115.356C168.803 115.356 169.246 115.449 169.638 115.636C170.039 115.823 170.38 116.107 170.66 116.49H170.73L170.898 115.496H171.878V123.126C171.878 124.199 171.603 125.007 171.052 125.548C170.511 126.089 169.666 126.36 168.518 126.36C167.417 126.36 166.516 126.201 165.816 125.884V124.75C166.553 125.142 167.477 125.338 168.588 125.338C169.232 125.338 169.736 125.147 170.1 124.764C170.473 124.391 170.66 123.877 170.66 123.224V122.93C170.66 122.818 170.665 122.659 170.674 122.454C170.683 122.239 170.693 122.09 170.702 122.006H170.646C170.142 122.762 169.367 123.14 168.322 123.14C167.351 123.14 166.591 122.799 166.04 122.118C165.499 121.437 165.228 120.485 165.228 119.262C165.228 118.067 165.499 117.12 166.04 116.42C166.591 115.711 167.347 115.356 168.308 115.356ZM168.476 116.392C167.851 116.392 167.365 116.644 167.02 117.148C166.675 117.643 166.502 118.352 166.502 119.276C166.502 120.2 166.67 120.909 167.006 121.404C167.342 121.889 167.841 122.132 168.504 122.132C169.26 122.132 169.811 121.931 170.156 121.53C170.501 121.119 170.674 120.461 170.674 119.556V119.262C170.674 118.245 170.497 117.512 170.142 117.064C169.787 116.616 169.232 116.392 168.476 116.392Z" fill="#1B77AF"/>
<path d="M180.785 119.234C180.785 120.475 180.468 121.437 179.833 122.118C179.208 122.799 178.359 123.14 177.285 123.14C176.623 123.14 176.03 122.991 175.507 122.692C174.994 122.384 174.588 121.941 174.289 121.362C173.991 120.774 173.841 120.065 173.841 119.234C173.841 117.993 174.149 117.036 174.765 116.364C175.391 115.692 176.245 115.356 177.327 115.356C177.999 115.356 178.597 115.51 179.119 115.818C179.642 116.117 180.048 116.555 180.337 117.134C180.636 117.703 180.785 118.403 180.785 119.234ZM175.115 119.234C175.115 120.121 175.288 120.825 175.633 121.348C175.988 121.861 176.548 122.118 177.313 122.118C178.069 122.118 178.625 121.861 178.979 121.348C179.334 120.825 179.511 120.121 179.511 119.234C179.511 118.347 179.334 117.652 178.979 117.148C178.625 116.644 178.065 116.392 177.299 116.392C176.534 116.392 175.979 116.644 175.633 117.148C175.288 117.652 175.115 118.347 175.115 119.234Z" fill="#1B77AF"/>
<path d="M188.881 122.132C189.067 122.132 189.259 122.118 189.455 122.09C189.651 122.062 189.809 122.025 189.931 121.978V122.916C189.8 122.981 189.613 123.033 189.371 123.07C189.128 123.117 188.895 123.14 188.671 123.14C188.279 123.14 187.915 123.075 187.579 122.944C187.252 122.804 186.986 122.566 186.781 122.23C186.575 121.894 186.473 121.423 186.473 120.816V116.448H185.409V115.86L186.487 115.37L186.977 113.774H187.705V115.496H189.875V116.448H187.705V120.788C187.705 121.245 187.812 121.586 188.027 121.81C188.251 122.025 188.535 122.132 188.881 122.132Z" fill="#1B77AF"/>
<path d="M197.957 119.234C197.957 120.475 197.64 121.437 197.005 122.118C196.38 122.799 195.531 123.14 194.457 123.14C193.795 123.14 193.202 122.991 192.679 122.692C192.166 122.384 191.76 121.941 191.461 121.362C191.163 120.774 191.013 120.065 191.013 119.234C191.013 117.993 191.321 117.036 191.937 116.364C192.563 115.692 193.417 115.356 194.499 115.356C195.171 115.356 195.769 115.51 196.291 115.818C196.814 116.117 197.22 116.555 197.509 117.134C197.808 117.703 197.957 118.403 197.957 119.234ZM192.287 119.234C192.287 120.121 192.46 120.825 192.805 121.348C193.16 121.861 193.72 122.118 194.485 122.118C195.241 122.118 195.797 121.861 196.151 121.348C196.506 120.825 196.683 120.121 196.683 119.234C196.683 118.347 196.506 117.652 196.151 117.148C195.797 116.644 195.237 116.392 194.471 116.392C193.706 116.392 193.151 116.644 192.805 117.148C192.46 117.652 192.287 118.347 192.287 119.234Z" fill="#1B77AF"/>
<path d="M208.054 117.722H211.512V122.622C210.971 122.799 210.425 122.93 209.874 123.014C209.324 123.098 208.698 123.14 207.998 123.14C206.962 123.14 206.09 122.935 205.38 122.524C204.671 122.104 204.13 121.511 203.756 120.746C203.392 119.971 203.21 119.057 203.21 118.002C203.21 116.966 203.411 116.065 203.812 115.3C204.223 114.525 204.816 113.928 205.59 113.508C206.365 113.079 207.298 112.864 208.39 112.864C208.95 112.864 209.478 112.915 209.972 113.018C210.476 113.121 210.943 113.265 211.372 113.452L210.896 114.544C210.542 114.395 210.14 114.264 209.692 114.152C209.254 114.031 208.796 113.97 208.32 113.97C207.126 113.97 206.192 114.334 205.52 115.062C204.858 115.781 204.526 116.761 204.526 118.002C204.526 118.795 204.652 119.5 204.904 120.116C205.166 120.723 205.572 121.199 206.122 121.544C206.673 121.88 207.396 122.048 208.292 122.048C208.731 122.048 209.104 122.025 209.412 121.978C209.72 121.931 210 121.875 210.252 121.81V118.842H208.054V117.722Z" fill="#1B77AF"/>
<path d="M220.004 115.496V123H218.996L218.814 122.006H218.758C218.515 122.398 218.179 122.687 217.75 122.874C217.321 123.051 216.863 123.14 216.378 123.14C215.473 123.14 214.791 122.925 214.334 122.496C213.877 122.057 213.648 121.362 213.648 120.41V115.496H214.894V120.326C214.894 121.521 215.449 122.118 216.56 122.118C217.391 122.118 217.965 121.885 218.282 121.418C218.609 120.951 218.772 120.279 218.772 119.402V115.496H220.004Z" fill="#1B77AF"/>
<path d="M223.016 112.682C223.203 112.682 223.366 112.747 223.506 112.878C223.656 112.999 223.73 113.195 223.73 113.466C223.73 113.737 223.656 113.937 223.506 114.068C223.366 114.189 223.203 114.25 223.016 114.25C222.811 114.25 222.638 114.189 222.498 114.068C222.358 113.937 222.288 113.737 222.288 113.466C222.288 113.195 222.358 112.999 222.498 112.878C222.638 112.747 222.811 112.682 223.016 112.682ZM223.618 115.496V123H222.386V115.496H223.618Z" fill="#1B77AF"/>
<path d="M228.656 123.14C227.722 123.14 226.976 122.818 226.416 122.174C225.856 121.521 225.576 120.55 225.576 119.262C225.576 117.974 225.856 117.003 226.416 116.35C226.985 115.687 227.736 115.356 228.67 115.356C229.248 115.356 229.72 115.463 230.084 115.678C230.457 115.893 230.76 116.154 230.994 116.462H231.078C231.059 116.341 231.04 116.163 231.022 115.93C231.003 115.687 230.994 115.496 230.994 115.356V112.36H232.226V123H231.232L231.05 121.992H230.994C230.77 122.309 230.471 122.58 230.098 122.804C229.724 123.028 229.244 123.14 228.656 123.14ZM228.852 122.118C229.645 122.118 230.2 121.903 230.518 121.474C230.844 121.035 231.008 120.377 231.008 119.5V119.276C231.008 118.343 230.854 117.629 230.546 117.134C230.238 116.63 229.668 116.378 228.838 116.378C228.175 116.378 227.676 116.644 227.34 117.176C227.013 117.699 226.85 118.403 226.85 119.29C226.85 120.186 227.013 120.881 227.34 121.376C227.676 121.871 228.18 122.118 228.852 122.118Z" fill="#1B77AF"/>
<path d="M237.507 115.356C238.142 115.356 238.692 115.496 239.159 115.776C239.626 116.056 239.98 116.453 240.223 116.966C240.475 117.47 240.601 118.063 240.601 118.744V119.486H235.463C235.482 120.335 235.696 120.984 236.107 121.432C236.527 121.871 237.11 122.09 237.857 122.09C238.333 122.09 238.753 122.048 239.117 121.964C239.49 121.871 239.873 121.74 240.265 121.572V122.65C239.882 122.818 239.504 122.939 239.131 123.014C238.758 123.098 238.314 123.14 237.801 123.14C237.082 123.14 236.452 122.995 235.911 122.706C235.37 122.417 234.945 121.987 234.637 121.418C234.338 120.849 234.189 120.144 234.189 119.304C234.189 118.483 234.324 117.778 234.595 117.19C234.875 116.602 235.262 116.149 235.757 115.832C236.261 115.515 236.844 115.356 237.507 115.356ZM237.493 116.364C236.905 116.364 236.438 116.555 236.093 116.938C235.757 117.311 235.556 117.834 235.491 118.506H239.313C239.304 117.871 239.154 117.358 238.865 116.966C238.576 116.565 238.118 116.364 237.493 116.364Z" fill="#1B77AF"/>
<path d="M243.743 123H242.511V112.36H243.743V123Z" fill="#1B77AF"/>
<path d="M246.751 112.682C246.937 112.682 247.101 112.747 247.241 112.878C247.39 112.999 247.465 113.195 247.465 113.466C247.465 113.737 247.39 113.937 247.241 114.068C247.101 114.189 246.937 114.25 246.751 114.25C246.545 114.25 246.373 114.189 246.233 114.068C246.093 113.937 246.023 113.737 246.023 113.466C246.023 113.195 246.093 112.999 246.233 112.878C246.373 112.747 246.545 112.682 246.751 112.682ZM247.353 115.496V123H246.121V115.496H247.353Z" fill="#1B77AF"/>
<path d="M253.342 115.356C254.238 115.356 254.915 115.575 255.372 116.014C255.829 116.453 256.058 117.153 256.058 118.114V123H254.84V118.198C254.84 116.994 254.28 116.392 253.16 116.392C252.329 116.392 251.755 116.625 251.438 117.092C251.121 117.559 250.962 118.231 250.962 119.108V123H249.73V115.496H250.724L250.906 116.518H250.976C251.219 116.126 251.555 115.837 251.984 115.65C252.413 115.454 252.866 115.356 253.342 115.356Z" fill="#1B77AF"/>
<path d="M261.282 115.356C261.917 115.356 262.468 115.496 262.934 115.776C263.401 116.056 263.756 116.453 263.998 116.966C264.25 117.47 264.376 118.063 264.376 118.744V119.486H259.238C259.257 120.335 259.472 120.984 259.882 121.432C260.302 121.871 260.886 122.09 261.632 122.09C262.108 122.09 262.528 122.048 262.892 121.964C263.266 121.871 263.648 121.74 264.04 121.572V122.65C263.658 122.818 263.28 122.939 262.906 123.014C262.533 123.098 262.09 123.14 261.576 123.14C260.858 123.14 260.228 122.995 259.686 122.706C259.145 122.417 258.72 121.987 258.412 121.418C258.114 120.849 257.964 120.144 257.964 119.304C257.964 118.483 258.1 117.778 258.37 117.19C258.65 116.602 259.038 116.149 259.532 115.832C260.036 115.515 260.62 115.356 261.282 115.356ZM261.268 116.364C260.68 116.364 260.214 116.555 259.868 116.938C259.532 117.311 259.332 117.834 259.266 118.506H263.088C263.079 117.871 262.93 117.358 262.64 116.966C262.351 116.565 261.894 116.364 261.268 116.364Z" fill="#1B77AF"/>
<path d="M271.173 120.928C271.173 121.656 270.902 122.207 270.361 122.58C269.819 122.953 269.091 123.14 268.177 123.14C267.654 123.14 267.201 123.098 266.819 123.014C266.445 122.93 266.114 122.813 265.825 122.664V121.544C266.123 121.693 266.483 121.833 266.903 121.964C267.332 122.085 267.766 122.146 268.205 122.146C268.83 122.146 269.283 122.048 269.563 121.852C269.843 121.647 269.983 121.376 269.983 121.04C269.983 120.853 269.931 120.685 269.829 120.536C269.726 120.387 269.539 120.237 269.269 120.088C269.007 119.939 268.629 119.771 268.135 119.584C267.649 119.397 267.234 119.211 266.889 119.024C266.543 118.837 266.277 118.613 266.091 118.352C265.904 118.091 265.811 117.755 265.811 117.344C265.811 116.709 266.067 116.219 266.581 115.874C267.103 115.529 267.785 115.356 268.625 115.356C269.082 115.356 269.507 115.403 269.899 115.496C270.3 115.589 270.673 115.711 271.019 115.86L270.599 116.84C270.281 116.709 269.95 116.597 269.605 116.504C269.259 116.411 268.905 116.364 268.541 116.364C268.037 116.364 267.649 116.448 267.379 116.616C267.117 116.775 266.987 116.994 266.987 117.274C266.987 117.489 267.047 117.666 267.169 117.806C267.29 117.946 267.491 118.086 267.771 118.226C268.06 118.366 268.443 118.525 268.919 118.702C269.395 118.879 269.801 119.061 270.137 119.248C270.473 119.435 270.729 119.663 270.907 119.934C271.084 120.195 271.173 120.527 271.173 120.928Z" fill="#1B77AF"/>
<path d="M272.804 122.244C272.804 121.899 272.888 121.656 273.056 121.516C273.224 121.376 273.425 121.306 273.658 121.306C273.891 121.306 274.097 121.376 274.274 121.516C274.451 121.656 274.54 121.899 274.54 122.244C274.54 122.58 274.451 122.823 274.274 122.972C274.097 123.121 273.891 123.196 273.658 123.196C273.425 123.196 273.224 123.121 273.056 122.972C272.888 122.823 272.804 122.58 272.804 122.244Z" fill="#1B77AF"/>
<path d="M116 49H292" stroke="#004E6C" stroke-width="3"/>
<path d="M116 73H292" stroke="#004E6C" stroke-width="3"/>
<path d="M116 97H292" stroke="#004E6C" stroke-width="3"/>
<path d="M116 121H152" stroke="#004E6C" stroke-width="3"/>
</svg>
