<svg width="408" height="176" viewBox="0 0 408 176" fill="none" xmlns="http://www.w3.org/2000/svg">
<rect width="408" height="176" fill="white"/>
<rect x="109.5" y="26.5" width="95" height="41" stroke="#004E6C" stroke-width="3"/>
<rect x="204.5" y="26.5" width="95" height="41" stroke="#004E6C" stroke-width="3"/>
<rect x="204.5" y="67.5" width="95" height="41" stroke="#004E6C" stroke-width="3"/>
<rect x="204.5" y="108.5" width="95" height="41" stroke="#004E6C" stroke-width="3"/>
<path d="M146.522 53.0004H144.506V45.8804C144.506 45.5391 144.511 45.1764 144.522 44.7924C144.532 44.4084 144.548 44.0511 144.57 43.7204C144.463 43.8271 144.33 43.9551 144.17 44.1044C144.02 44.2537 143.855 44.3977 143.674 44.5364L142.394 45.5604L141.386 44.3124L144.842 41.5764H146.522V53.0004Z" fill="#1B77AF"/>
<path d="M157.902 47.2884C157.902 48.5151 157.774 49.5657 157.518 50.4404C157.262 51.3151 156.846 51.9871 156.27 52.4564C155.694 52.9257 154.931 53.1604 153.982 53.1604C152.638 53.1604 151.651 52.6431 151.022 51.6084C150.393 50.5737 150.078 49.1337 150.078 47.2884C150.078 46.0617 150.206 45.0111 150.462 44.1364C150.718 43.2511 151.129 42.5737 151.694 42.1044C152.27 41.6351 153.033 41.4004 153.982 41.4004C155.315 41.4004 156.302 41.9177 156.942 42.9524C157.582 43.9871 157.902 45.4324 157.902 47.2884ZM152.11 47.2884C152.11 48.6857 152.243 49.7364 152.51 50.4404C152.787 51.1444 153.278 51.4964 153.982 51.4964C154.675 51.4964 155.161 51.1497 155.438 50.4564C155.726 49.7524 155.87 48.6964 155.87 47.2884C155.87 45.8911 155.726 44.8404 155.438 44.1364C155.161 43.4217 154.675 43.0644 153.982 43.0644C153.278 43.0644 152.787 43.4217 152.51 44.1364C152.243 44.8404 152.11 45.8911 152.11 47.2884Z" fill="#1B77AF"/>
<path d="M167.058 47.2884C167.058 48.5151 166.93 49.5657 166.674 50.4404C166.418 51.3151 166.002 51.9871 165.426 52.4564C164.85 52.9257 164.088 53.1604 163.138 53.1604C161.794 53.1604 160.808 52.6431 160.178 51.6084C159.549 50.5737 159.234 49.1337 159.234 47.2884C159.234 46.0617 159.362 45.0111 159.618 44.1364C159.874 43.2511 160.285 42.5737 160.85 42.1044C161.426 41.6351 162.189 41.4004 163.138 41.4004C164.472 41.4004 165.458 41.9177 166.098 42.9524C166.738 43.9871 167.058 45.4324 167.058 47.2884ZM161.266 47.2884C161.266 48.6857 161.4 49.7364 161.666 50.4404C161.944 51.1444 162.434 51.4964 163.138 51.4964C163.832 51.4964 164.317 51.1497 164.594 50.4564C164.882 49.7524 165.026 48.6964 165.026 47.2884C165.026 45.8911 164.882 44.8404 164.594 44.1364C164.317 43.4217 163.832 43.0644 163.138 43.0644C162.434 43.0644 161.944 43.4217 161.666 44.1364C161.4 44.8404 161.266 45.8911 161.266 47.2884Z" fill="#1B77AF"/>
<path d="M238.954 48.1364C238.954 47.4751 238.996 46.8244 239.082 46.1844C239.178 45.5444 239.343 44.9417 239.578 44.3764C239.812 43.8004 240.138 43.2937 240.554 42.8564C240.97 42.4084 241.498 42.0617 242.138 41.8164C242.788 41.5604 243.572 41.4324 244.49 41.4324C244.714 41.4324 244.97 41.4431 245.258 41.4644C245.546 41.4857 245.786 41.5177 245.978 41.5604V43.2244C245.562 43.1071 245.103 43.0484 244.602 43.0484C243.642 43.0484 242.895 43.2244 242.362 43.5764C241.828 43.9177 241.455 44.3924 241.242 45.0004C241.028 45.5977 240.9 46.2697 240.858 47.0164H240.954C241.178 46.6431 241.498 46.3284 241.914 46.0724C242.33 45.8057 242.868 45.6724 243.53 45.6724C244.522 45.6724 245.316 45.9817 245.914 46.6004C246.511 47.2191 246.81 48.0991 246.81 49.2404C246.81 50.4671 246.468 51.4271 245.786 52.1204C245.103 52.8137 244.18 53.1604 243.018 53.1604C242.26 53.1604 241.572 52.9791 240.954 52.6164C240.346 52.2537 239.86 51.7044 239.498 50.9684C239.135 50.2217 238.954 49.2777 238.954 48.1364ZM242.986 51.5124C243.53 51.5124 243.972 51.3311 244.314 50.9684C244.655 50.5951 244.826 50.0244 244.826 49.2564C244.826 48.6377 244.676 48.1524 244.378 47.8004C244.079 47.4377 243.631 47.2564 243.034 47.2564C242.618 47.2564 242.255 47.3471 241.946 47.5284C241.647 47.6991 241.412 47.9231 241.242 48.2004C241.071 48.4671 240.986 48.7444 240.986 49.0324C240.986 49.4271 241.06 49.8164 241.21 50.2004C241.359 50.5737 241.578 50.8884 241.866 51.1444C242.164 51.3897 242.538 51.5124 242.986 51.5124Z" fill="#1B77AF"/>
<path d="M255.902 47.2884C255.902 48.5151 255.774 49.5657 255.518 50.4404C255.262 51.3151 254.846 51.9871 254.27 52.4564C253.694 52.9257 252.931 53.1604 251.982 53.1604C250.638 53.1604 249.651 52.6431 249.022 51.6084C248.393 50.5737 248.078 49.1337 248.078 47.2884C248.078 46.0617 248.206 45.0111 248.462 44.1364C248.718 43.2511 249.129 42.5737 249.694 42.1044C250.27 41.6351 251.033 41.4004 251.982 41.4004C253.315 41.4004 254.302 41.9177 254.942 42.9524C255.582 43.9871 255.902 45.4324 255.902 47.2884ZM250.11 47.2884C250.11 48.6857 250.243 49.7364 250.51 50.4404C250.787 51.1444 251.278 51.4964 251.982 51.4964C252.675 51.4964 253.161 51.1497 253.438 50.4564C253.726 49.7524 253.87 48.6964 253.87 47.2884C253.87 45.8911 253.726 44.8404 253.438 44.1364C253.161 43.4217 252.675 43.0644 251.982 43.0644C251.278 43.0644 250.787 43.4217 250.51 44.1364C250.243 44.8404 250.11 45.8911 250.11 47.2884Z" fill="#1B77AF"/>
<path d="M265.058 47.2884C265.058 48.5151 264.93 49.5657 264.674 50.4404C264.418 51.3151 264.002 51.9871 263.426 52.4564C262.85 52.9257 262.088 53.1604 261.138 53.1604C259.794 53.1604 258.808 52.6431 258.178 51.6084C257.549 50.5737 257.234 49.1337 257.234 47.2884C257.234 46.0617 257.362 45.0111 257.618 44.1364C257.874 43.2511 258.285 42.5737 258.85 42.1044C259.426 41.6351 260.189 41.4004 261.138 41.4004C262.472 41.4004 263.458 41.9177 264.098 42.9524C264.738 43.9871 265.058 45.4324 265.058 47.2884ZM259.266 47.2884C259.266 48.6857 259.4 49.7364 259.666 50.4404C259.944 51.1444 260.434 51.4964 261.138 51.4964C261.832 51.4964 262.317 51.1497 262.594 50.4564C262.882 49.7524 263.026 48.6964 263.026 47.2884C263.026 45.8911 262.882 44.8404 262.594 44.1364C262.317 43.4217 261.832 43.0644 261.138 43.0644C260.434 43.0644 259.944 43.4217 259.666 44.1364C259.4 44.8404 259.266 45.8911 259.266 47.2884Z" fill="#1B77AF"/>
<path d="M242.842 82.4324C243.503 82.4324 244.1 82.5337 244.634 82.7364C245.167 82.9391 245.594 83.2484 245.914 83.6644C246.234 84.0697 246.394 84.5711 246.394 85.1684C246.394 85.8511 246.191 86.4164 245.786 86.8644C245.38 87.3017 244.884 87.6697 244.298 87.9684C244.735 88.1924 245.14 88.4431 245.514 88.7204C245.887 88.9977 246.186 89.3284 246.41 89.7124C246.644 90.0857 246.762 90.5284 246.762 91.0404C246.762 91.6697 246.596 92.2191 246.266 92.6884C245.935 93.1577 245.476 93.5204 244.89 93.7764C244.314 94.0324 243.636 94.1604 242.858 94.1604C241.588 94.1604 240.612 93.8884 239.93 93.3444C239.247 92.8004 238.906 92.0537 238.906 91.1044C238.906 90.5817 239.007 90.1284 239.21 89.7444C239.412 89.3604 239.684 89.0297 240.026 88.7524C240.367 88.4751 240.746 88.2351 241.162 88.0324C240.639 87.7124 240.191 87.3284 239.818 86.8804C239.455 86.4217 239.274 85.8457 239.274 85.1524C239.274 84.5657 239.434 84.0697 239.754 83.6644C240.084 83.2591 240.516 82.9551 241.05 82.7524C241.594 82.5391 242.191 82.4324 242.842 82.4324ZM242.826 83.9524C242.356 83.9524 241.967 84.0697 241.658 84.3044C241.359 84.5391 241.21 84.8697 241.21 85.2964C241.21 85.7657 241.37 86.1391 241.69 86.4164C242.01 86.6937 242.399 86.9337 242.858 87.1364C243.295 86.9444 243.668 86.7097 243.978 86.4324C244.298 86.1551 244.458 85.7764 244.458 85.2964C244.458 84.8697 244.303 84.5391 243.994 84.3044C243.695 84.0697 243.306 83.9524 242.826 83.9524ZM240.826 91.0084C240.826 91.4777 240.991 91.8671 241.322 92.1764C241.652 92.4751 242.154 92.6244 242.826 92.6244C243.487 92.6244 243.988 92.4751 244.33 92.1764C244.671 91.8777 244.842 91.4884 244.842 91.0084C244.842 90.5284 244.65 90.1284 244.266 89.8084C243.882 89.4884 243.428 89.2111 242.906 88.9764L242.682 88.8644C242.106 89.1311 241.652 89.4351 241.322 89.7764C240.991 90.1071 240.826 90.5177 240.826 91.0084Z" fill="#1B77AF"/>
<path d="M255.902 88.2884C255.902 89.5151 255.774 90.5657 255.518 91.4404C255.262 92.3151 254.846 92.9871 254.27 93.4564C253.694 93.9257 252.931 94.1604 251.982 94.1604C250.638 94.1604 249.651 93.6431 249.022 92.6084C248.393 91.5737 248.078 90.1337 248.078 88.2884C248.078 87.0617 248.206 86.0111 248.462 85.1364C248.718 84.2511 249.129 83.5737 249.694 83.1044C250.27 82.6351 251.033 82.4004 251.982 82.4004C253.315 82.4004 254.302 82.9177 254.942 83.9524C255.582 84.9871 255.902 86.4324 255.902 88.2884ZM250.11 88.2884C250.11 89.6857 250.243 90.7364 250.51 91.4404C250.787 92.1444 251.278 92.4964 251.982 92.4964C252.675 92.4964 253.161 92.1497 253.438 91.4564C253.726 90.7524 253.87 89.6964 253.87 88.2884C253.87 86.8911 253.726 85.8404 253.438 85.1364C253.161 84.4217 252.675 84.0644 251.982 84.0644C251.278 84.0644 250.787 84.4217 250.51 85.1364C250.243 85.8404 250.11 86.8911 250.11 88.2884Z" fill="#1B77AF"/>
<path d="M265.058 88.2884C265.058 89.5151 264.93 90.5657 264.674 91.4404C264.418 92.3151 264.002 92.9871 263.426 93.4564C262.85 93.9257 262.088 94.1604 261.138 94.1604C259.794 94.1604 258.808 93.6431 258.178 92.6084C257.549 91.5737 257.234 90.1337 257.234 88.2884C257.234 87.0617 257.362 86.0111 257.618 85.1364C257.874 84.2511 258.285 83.5737 258.85 83.1044C259.426 82.6351 260.189 82.4004 261.138 82.4004C262.472 82.4004 263.458 82.9177 264.098 83.9524C264.738 84.9871 265.058 86.4324 265.058 88.2884ZM259.266 88.2884C259.266 89.6857 259.4 90.7364 259.666 91.4404C259.944 92.1444 260.434 92.4964 261.138 92.4964C261.832 92.4964 262.317 92.1497 262.594 91.4564C262.882 90.7524 263.026 89.6964 263.026 88.2884C263.026 86.8911 262.882 85.8404 262.594 85.1364C262.317 84.4217 261.832 84.0644 261.138 84.0644C260.434 84.0644 259.944 84.4217 259.666 85.1364C259.4 85.8404 259.266 86.8911 259.266 88.2884Z" fill="#1B77AF"/>
<path d="M246.746 128.456C246.746 129.107 246.698 129.758 246.602 130.408C246.506 131.048 246.34 131.656 246.106 132.232C245.871 132.798 245.546 133.304 245.13 133.752C244.714 134.19 244.18 134.536 243.53 134.792C242.89 135.038 242.111 135.16 241.194 135.16C240.98 135.16 240.724 135.15 240.426 135.128C240.127 135.107 239.887 135.075 239.706 135.032V133.368C240.122 133.486 240.58 133.544 241.082 133.544C242.042 133.544 242.788 133.374 243.322 133.032C243.855 132.68 244.228 132.206 244.442 131.608C244.666 131.011 244.794 130.339 244.826 129.592H244.73C244.495 129.955 244.18 130.27 243.786 130.536C243.391 130.792 242.836 130.92 242.122 130.92C241.151 130.92 240.367 130.611 239.77 129.992C239.183 129.374 238.89 128.499 238.89 127.368C238.89 126.142 239.231 125.182 239.914 124.488C240.596 123.784 241.519 123.432 242.682 123.432C243.439 123.432 244.122 123.614 244.73 123.976C245.348 124.339 245.839 124.894 246.202 125.64C246.564 126.376 246.746 127.315 246.746 128.456ZM242.714 125.096C242.17 125.096 241.727 125.278 241.386 125.64C241.044 126.003 240.874 126.568 240.874 127.336C240.874 127.966 241.018 128.462 241.306 128.824C241.604 129.176 242.058 129.352 242.666 129.352C243.082 129.352 243.444 129.267 243.754 129.096C244.063 128.915 244.298 128.686 244.458 128.408C244.628 128.131 244.714 127.848 244.714 127.56C244.714 127.166 244.639 126.782 244.49 126.408C244.34 126.035 244.116 125.726 243.818 125.48C243.53 125.224 243.162 125.096 242.714 125.096Z" fill="#1B77AF"/>
<path d="M255.902 129.288C255.902 130.515 255.774 131.566 255.518 132.44C255.262 133.315 254.846 133.987 254.27 134.456C253.694 134.926 252.931 135.16 251.982 135.16C250.638 135.16 249.651 134.643 249.022 133.608C248.393 132.574 248.078 131.134 248.078 129.288C248.078 128.062 248.206 127.011 248.462 126.136C248.718 125.251 249.129 124.574 249.694 124.104C250.27 123.635 251.033 123.4 251.982 123.4C253.315 123.4 254.302 123.918 254.942 124.952C255.582 125.987 255.902 127.432 255.902 129.288ZM250.11 129.288C250.11 130.686 250.243 131.736 250.51 132.44C250.787 133.144 251.278 133.496 251.982 133.496C252.675 133.496 253.161 133.15 253.438 132.456C253.726 131.752 253.87 130.696 253.87 129.288C253.87 127.891 253.726 126.84 253.438 126.136C253.161 125.422 252.675 125.064 251.982 125.064C251.278 125.064 250.787 125.422 250.51 126.136C250.243 126.84 250.11 127.891 250.11 129.288Z" fill="#1B77AF"/>
<path d="M265.058 129.288C265.058 130.515 264.93 131.566 264.674 132.44C264.418 133.315 264.002 133.987 263.426 134.456C262.85 134.926 262.088 135.16 261.138 135.16C259.794 135.16 258.808 134.643 258.178 133.608C257.549 132.574 257.234 131.134 257.234 129.288C257.234 128.062 257.362 127.011 257.618 126.136C257.874 125.251 258.285 124.574 258.85 124.104C259.426 123.635 260.189 123.4 261.138 123.4C262.472 123.4 263.458 123.918 264.098 124.952C264.738 125.987 265.058 127.432 265.058 129.288ZM259.266 129.288C259.266 130.686 259.4 131.736 259.666 132.44C259.944 133.144 260.434 133.496 261.138 133.496C261.832 133.496 262.317 133.15 262.594 132.456C262.882 131.752 263.026 130.696 263.026 129.288C263.026 127.891 262.882 126.84 262.594 126.136C262.317 125.422 261.832 125.064 261.138 125.064C260.434 125.064 259.944 125.422 259.666 126.136C259.4 126.84 259.266 127.891 259.266 129.288Z" fill="#1B77AF"/>
</svg>
