<svg width="408" height="176" viewBox="0 0 408 176" fill="none" xmlns="http://www.w3.org/2000/svg">
<rect width="408" height="176" fill="white"/>
<rect x="109.5" y="26.5" width="95" height="41" stroke="#004E6C" stroke-width="3"/>
<rect x="204.5" y="26.5" width="95" height="41" stroke="#004E6C" stroke-width="3"/>
<rect x="204.5" y="67.5" width="95" height="41" stroke="#004E6C" stroke-width="3"/>
<rect x="204.5" y="108.5" width="95" height="41" stroke="#004E6C" stroke-width="3"/>
<path d="M146.521 52.9984H144.505V45.8784C144.505 45.5371 144.51 45.1744 144.521 44.7904C144.531 44.4064 144.547 44.0491 144.569 43.7184C144.462 43.8251 144.329 43.9531 144.169 44.1024C144.019 44.2518 143.854 44.3958 143.673 44.5344L142.393 45.5584L141.385 44.3104L144.841 41.5744H146.521V52.9984Z" fill="#1B77AF"/>
<path d="M157.901 47.2864C157.901 48.5131 157.773 49.5638 157.517 50.4384C157.261 51.3131 156.845 51.9851 156.269 52.4544C155.693 52.9238 154.93 53.1584 153.981 53.1584C152.637 53.1584 151.65 52.6411 151.021 51.6064C150.392 50.5718 150.077 49.1318 150.077 47.2864C150.077 46.0598 150.205 45.0091 150.461 44.1344C150.717 43.2491 151.128 42.5718 151.693 42.1024C152.269 41.6331 153.032 41.3984 153.981 41.3984C155.314 41.3984 156.301 41.9158 156.941 42.9504C157.581 43.9851 157.901 45.4304 157.901 47.2864ZM152.109 47.2864C152.109 48.6838 152.242 49.7344 152.509 50.4384C152.786 51.1424 153.277 51.4944 153.981 51.4944C154.674 51.4944 155.16 51.1478 155.437 50.4544C155.725 49.7504 155.869 48.6944 155.869 47.2864C155.869 45.8891 155.725 44.8384 155.437 44.1344C155.16 43.4198 154.674 43.0624 153.981 43.0624C153.277 43.0624 152.786 43.4198 152.509 44.1344C152.242 44.8384 152.109 45.8891 152.109 47.2864Z" fill="#1B77AF"/>
<path d="M167.057 47.2864C167.057 48.5131 166.929 49.5638 166.673 50.4384C166.417 51.3131 166.001 51.9851 165.425 52.4544C164.849 52.9238 164.087 53.1584 163.137 53.1584C161.793 53.1584 160.807 52.6411 160.177 51.6064C159.548 50.5718 159.233 49.1318 159.233 47.2864C159.233 46.0598 159.361 45.0091 159.617 44.1344C159.873 43.2491 160.284 42.5718 160.849 42.1024C161.425 41.6331 162.188 41.3984 163.137 41.3984C164.471 41.3984 165.457 41.9158 166.097 42.9504C166.737 43.9851 167.057 45.4304 167.057 47.2864ZM161.265 47.2864C161.265 48.6838 161.399 49.7344 161.665 50.4384C161.943 51.1424 162.433 51.4944 163.137 51.4944C163.831 51.4944 164.316 51.1478 164.593 50.4544C164.881 49.7504 165.025 48.6944 165.025 47.2864C165.025 45.8891 164.881 44.8384 164.593 44.1344C164.316 43.4198 163.831 43.0624 163.137 43.0624C162.433 43.0624 161.943 43.4198 161.665 44.1344C161.399 44.8384 161.265 45.8891 161.265 47.2864Z" fill="#1B77AF"/>
<path d="M238.953 48.1344C238.953 47.4731 238.995 46.8224 239.081 46.1824C239.177 45.5424 239.342 44.9398 239.577 44.3744C239.811 43.7984 240.137 43.2918 240.553 42.8544C240.969 42.4064 241.497 42.0598 242.137 41.8144C242.787 41.5584 243.571 41.4304 244.489 41.4304C244.713 41.4304 244.969 41.4411 245.257 41.4624C245.545 41.4838 245.785 41.5158 245.977 41.5584V43.2224C245.561 43.1051 245.102 43.0464 244.601 43.0464C243.641 43.0464 242.894 43.2224 242.361 43.5744C241.827 43.9158 241.454 44.3904 241.241 44.9984C241.027 45.5958 240.899 46.2678 240.857 47.0144H240.953C241.177 46.6411 241.497 46.3264 241.913 46.0704C242.329 45.8038 242.867 45.6704 243.529 45.6704C244.521 45.6704 245.315 45.9798 245.913 46.5984C246.51 47.2171 246.809 48.0971 246.809 49.2384C246.809 50.4651 246.467 51.4251 245.785 52.1184C245.102 52.8118 244.179 53.1584 243.017 53.1584C242.259 53.1584 241.571 52.9771 240.953 52.6144C240.345 52.2518 239.859 51.7024 239.497 50.9664C239.134 50.2198 238.953 49.2758 238.953 48.1344ZM242.985 51.5104C243.529 51.5104 243.971 51.3291 244.313 50.9664C244.654 50.5931 244.825 50.0224 244.825 49.2544C244.825 48.6358 244.675 48.1504 244.377 47.7984C244.078 47.4358 243.63 47.2544 243.033 47.2544C242.617 47.2544 242.254 47.3451 241.945 47.5264C241.646 47.6971 241.411 47.9211 241.241 48.1984C241.07 48.4651 240.985 48.7424 240.985 49.0304C240.985 49.4251 241.059 49.8144 241.209 50.1984C241.358 50.5718 241.577 50.8864 241.865 51.1424C242.163 51.3878 242.537 51.5104 242.985 51.5104Z" fill="#1B77AF"/>
<path d="M255.901 47.2864C255.901 48.5131 255.773 49.5638 255.517 50.4384C255.261 51.3131 254.845 51.9851 254.269 52.4544C253.693 52.9238 252.93 53.1584 251.981 53.1584C250.637 53.1584 249.65 52.6411 249.021 51.6064C248.392 50.5718 248.077 49.1318 248.077 47.2864C248.077 46.0598 248.205 45.0091 248.461 44.1344C248.717 43.2491 249.128 42.5718 249.693 42.1024C250.269 41.6331 251.032 41.3984 251.981 41.3984C253.314 41.3984 254.301 41.9158 254.941 42.9504C255.581 43.9851 255.901 45.4304 255.901 47.2864ZM250.109 47.2864C250.109 48.6838 250.242 49.7344 250.509 50.4384C250.786 51.1424 251.277 51.4944 251.981 51.4944C252.674 51.4944 253.16 51.1478 253.437 50.4544C253.725 49.7504 253.869 48.6944 253.869 47.2864C253.869 45.8891 253.725 44.8384 253.437 44.1344C253.16 43.4198 252.674 43.0624 251.981 43.0624C251.277 43.0624 250.786 43.4198 250.509 44.1344C250.242 44.8384 250.109 45.8891 250.109 47.2864Z" fill="#1B77AF"/>
<path d="M265.057 47.2864C265.057 48.5131 264.929 49.5638 264.673 50.4384C264.417 51.3131 264.001 51.9851 263.425 52.4544C262.849 52.9238 262.087 53.1584 261.137 53.1584C259.793 53.1584 258.807 52.6411 258.177 51.6064C257.548 50.5718 257.233 49.1318 257.233 47.2864C257.233 46.0598 257.361 45.0091 257.617 44.1344C257.873 43.2491 258.284 42.5718 258.849 42.1024C259.425 41.6331 260.188 41.3984 261.137 41.3984C262.471 41.3984 263.457 41.9158 264.097 42.9504C264.737 43.9851 265.057 45.4304 265.057 47.2864ZM259.265 47.2864C259.265 48.6838 259.399 49.7344 259.665 50.4384C259.943 51.1424 260.433 51.4944 261.137 51.4944C261.831 51.4944 262.316 51.1478 262.593 50.4544C262.881 49.7504 263.025 48.6944 263.025 47.2864C263.025 45.8891 262.881 44.8384 262.593 44.1344C262.316 43.4198 261.831 43.0624 261.137 43.0624C260.433 43.0624 259.943 43.4198 259.665 44.1344C259.399 44.8384 259.265 45.8891 259.265 47.2864Z" fill="#1B77AF"/>
<path d="M242.841 82.4304C243.502 82.4304 244.099 82.5318 244.633 82.7344C245.166 82.9371 245.593 83.2464 245.913 83.6624C246.233 84.0678 246.393 84.5691 246.393 85.1664C246.393 85.8491 246.19 86.4144 245.785 86.8624C245.379 87.2998 244.883 87.6678 244.297 87.9664C244.734 88.1904 245.139 88.4411 245.513 88.7184C245.886 88.9958 246.185 89.3264 246.409 89.7104C246.643 90.0838 246.761 90.5264 246.761 91.0384C246.761 91.6678 246.595 92.2171 246.265 92.6864C245.934 93.1558 245.475 93.5184 244.889 93.7744C244.313 94.0304 243.635 94.1584 242.857 94.1584C241.587 94.1584 240.611 93.8864 239.929 93.3424C239.246 92.7984 238.905 92.0518 238.905 91.1024C238.905 90.5798 239.006 90.1264 239.209 89.7424C239.411 89.3584 239.683 89.0278 240.025 88.7504C240.366 88.4731 240.745 88.2331 241.161 88.0304C240.638 87.7104 240.19 87.3264 239.817 86.8784C239.454 86.4198 239.273 85.8438 239.273 85.1504C239.273 84.5638 239.433 84.0678 239.753 83.6624C240.083 83.2571 240.515 82.9531 241.049 82.7504C241.593 82.5371 242.19 82.4304 242.841 82.4304ZM242.825 83.9504C242.355 83.9504 241.966 84.0678 241.657 84.3024C241.358 84.5371 241.209 84.8678 241.209 85.2944C241.209 85.7638 241.369 86.1371 241.689 86.4144C242.009 86.6918 242.398 86.9318 242.857 87.1344C243.294 86.9424 243.667 86.7078 243.977 86.4304C244.297 86.1531 244.457 85.7744 244.457 85.2944C244.457 84.8678 244.302 84.5371 243.993 84.3024C243.694 84.0678 243.305 83.9504 242.825 83.9504ZM240.825 91.0064C240.825 91.4758 240.99 91.8651 241.321 92.1744C241.651 92.4731 242.153 92.6224 242.825 92.6224C243.486 92.6224 243.987 92.4731 244.329 92.1744C244.67 91.8758 244.841 91.4864 244.841 91.0064C244.841 90.5264 244.649 90.1264 244.265 89.8064C243.881 89.4864 243.427 89.2091 242.905 88.9744L242.681 88.8624C242.105 89.1291 241.651 89.4331 241.321 89.7744C240.99 90.1051 240.825 90.5158 240.825 91.0064Z" fill="#1B77AF"/>
<path d="M255.901 88.2864C255.901 89.5131 255.773 90.5638 255.517 91.4384C255.261 92.3131 254.845 92.9851 254.269 93.4544C253.693 93.9238 252.93 94.1584 251.981 94.1584C250.637 94.1584 249.65 93.6411 249.021 92.6064C248.392 91.5718 248.077 90.1318 248.077 88.2864C248.077 87.0598 248.205 86.0091 248.461 85.1344C248.717 84.2491 249.128 83.5718 249.693 83.1024C250.269 82.6331 251.032 82.3984 251.981 82.3984C253.314 82.3984 254.301 82.9158 254.941 83.9504C255.581 84.9851 255.901 86.4304 255.901 88.2864ZM250.109 88.2864C250.109 89.6838 250.242 90.7344 250.509 91.4384C250.786 92.1424 251.277 92.4944 251.981 92.4944C252.674 92.4944 253.16 92.1478 253.437 91.4544C253.725 90.7504 253.869 89.6944 253.869 88.2864C253.869 86.8891 253.725 85.8384 253.437 85.1344C253.16 84.4198 252.674 84.0624 251.981 84.0624C251.277 84.0624 250.786 84.4198 250.509 85.1344C250.242 85.8384 250.109 86.8891 250.109 88.2864Z" fill="#1B77AF"/>
<path d="M265.057 88.2864C265.057 89.5131 264.929 90.5638 264.673 91.4384C264.417 92.3131 264.001 92.9851 263.425 93.4544C262.849 93.9238 262.087 94.1584 261.137 94.1584C259.793 94.1584 258.807 93.6411 258.177 92.6064C257.548 91.5718 257.233 90.1318 257.233 88.2864C257.233 87.0598 257.361 86.0091 257.617 85.1344C257.873 84.2491 258.284 83.5718 258.849 83.1024C259.425 82.6331 260.188 82.3984 261.137 82.3984C262.471 82.3984 263.457 82.9158 264.097 83.9504C264.737 84.9851 265.057 86.4304 265.057 88.2864ZM259.265 88.2864C259.265 89.6838 259.399 90.7344 259.665 91.4384C259.943 92.1424 260.433 92.4944 261.137 92.4944C261.831 92.4944 262.316 92.1478 262.593 91.4544C262.881 90.7504 263.025 89.6944 263.025 88.2864C263.025 86.8891 262.881 85.8384 262.593 85.1344C262.316 84.4198 261.831 84.0624 261.137 84.0624C260.433 84.0624 259.943 84.4198 259.665 85.1344C259.399 85.8384 259.265 86.8891 259.265 88.2864Z" fill="#1B77AF"/>
<path d="M246.745 128.454C246.745 129.105 246.697 129.756 246.601 130.406C246.505 131.046 246.339 131.654 246.105 132.23C245.87 132.796 245.545 133.302 245.129 133.75C244.713 134.188 244.179 134.534 243.529 134.79C242.889 135.036 242.11 135.158 241.193 135.158C240.979 135.158 240.723 135.148 240.425 135.126C240.126 135.105 239.886 135.073 239.705 135.03V133.366C240.121 133.484 240.579 133.542 241.081 133.542C242.041 133.542 242.787 133.372 243.321 133.03C243.854 132.678 244.227 132.204 244.441 131.606C244.665 131.009 244.793 130.337 244.825 129.59H244.729C244.494 129.953 244.179 130.268 243.785 130.534C243.39 130.79 242.835 130.918 242.121 130.918C241.15 130.918 240.366 130.609 239.769 129.99C239.182 129.372 238.889 128.497 238.889 127.366C238.889 126.14 239.23 125.18 239.913 124.486C240.595 123.782 241.518 123.43 242.681 123.43C243.438 123.43 244.121 123.612 244.729 123.974C245.347 124.337 245.838 124.892 246.201 125.638C246.563 126.374 246.745 127.313 246.745 128.454ZM242.713 125.094C242.169 125.094 241.726 125.276 241.385 125.638C241.043 126.001 240.873 126.566 240.873 127.334C240.873 127.964 241.017 128.46 241.305 128.822C241.603 129.174 242.057 129.35 242.665 129.35C243.081 129.35 243.443 129.265 243.753 129.094C244.062 128.913 244.297 128.684 244.457 128.406C244.627 128.129 244.713 127.846 244.713 127.558C244.713 127.164 244.638 126.78 244.489 126.406C244.339 126.033 244.115 125.724 243.817 125.478C243.529 125.222 243.161 125.094 242.713 125.094Z" fill="#1B77AF"/>
<path d="M255.901 129.286C255.901 130.513 255.773 131.564 255.517 132.438C255.261 133.313 254.845 133.985 254.269 134.454C253.693 134.924 252.93 135.158 251.981 135.158C250.637 135.158 249.65 134.641 249.021 133.606C248.392 132.572 248.077 131.132 248.077 129.286C248.077 128.06 248.205 127.009 248.461 126.134C248.717 125.249 249.128 124.572 249.693 124.102C250.269 123.633 251.032 123.398 251.981 123.398C253.314 123.398 254.301 123.916 254.941 124.95C255.581 125.985 255.901 127.43 255.901 129.286ZM250.109 129.286C250.109 130.684 250.242 131.734 250.509 132.438C250.786 133.142 251.277 133.494 251.981 133.494C252.674 133.494 253.16 133.148 253.437 132.454C253.725 131.75 253.869 130.694 253.869 129.286C253.869 127.889 253.725 126.838 253.437 126.134C253.16 125.42 252.674 125.062 251.981 125.062C251.277 125.062 250.786 125.42 250.509 126.134C250.242 126.838 250.109 127.889 250.109 129.286Z" fill="#1B77AF"/>
<path d="M265.057 129.286C265.057 130.513 264.929 131.564 264.673 132.438C264.417 133.313 264.001 133.985 263.425 134.454C262.849 134.924 262.087 135.158 261.137 135.158C259.793 135.158 258.807 134.641 258.177 133.606C257.548 132.572 257.233 131.132 257.233 129.286C257.233 128.06 257.361 127.009 257.617 126.134C257.873 125.249 258.284 124.572 258.849 124.102C259.425 123.633 260.188 123.398 261.137 123.398C262.471 123.398 263.457 123.916 264.097 124.95C264.737 125.985 265.057 127.43 265.057 129.286ZM259.265 129.286C259.265 130.684 259.399 131.734 259.665 132.438C259.943 133.142 260.433 133.494 261.137 133.494C261.831 133.494 262.316 133.148 262.593 132.454C262.881 131.75 263.025 130.694 263.025 129.286C263.025 127.889 262.881 126.838 262.593 126.134C262.316 125.42 261.831 125.062 261.137 125.062C260.433 125.062 259.943 125.42 259.665 126.134C259.399 126.838 259.265 127.889 259.265 129.286Z" fill="#1B77AF"/>
</svg>
