<svg width="952" height="437" viewBox="0 0 952 437" fill="none" xmlns="http://www.w3.org/2000/svg">
<g clip-path="url(#clip0_9554_627756)">
<rect width="952" height="437" fill="#F1F1F1"/>
<g filter="url(#filter0_d_9554_627756)">
<rect width="696" height="437" transform="translate(128)" fill="white"/>
<g filter="url(#filter1_d_9554_627756)">
<g clip-path="url(#clip1_9554_627756)">
<rect x="316" y="116" width="320" height="288" rx="4" fill="white"/>
<rect width="320" height="36" transform="translate(316 116)" fill="#F1F1F1"/>
<rect x="332" y="126" width="16" height="16" rx="4" fill="#1B77AF"/>
<path d="M338.512 139.202C338.412 139.202 338.312 139.152 338.262 139.102L334.113 134.952C333.962 134.802 333.962 134.552 334.113 134.402C334.263 134.252 334.512 134.252 334.662 134.402L338.512 138.252L345.312 129.152C345.413 129.002 345.662 128.952 345.812 129.052C345.963 129.152 346.012 129.402 345.912 129.552L338.812 139.052C338.762 139.152 338.662 139.202 338.512 139.202Z" fill="white"/>
<path d="M361.768 139L358.478 130.236H358.422C358.45 130.525 358.473 130.917 358.492 131.412C358.511 131.897 358.52 132.406 358.52 132.938V139H357.358V129.004H359.22L362.3 137.194H362.356L365.492 129.004H367.34V139H366.094V132.854C366.094 132.369 366.103 131.888 366.122 131.412C366.15 130.936 366.173 130.549 366.192 130.25H366.136L362.804 139H361.768ZM372.789 131.356C373.424 131.356 373.975 131.496 374.441 131.776C374.908 132.056 375.263 132.453 375.505 132.966C375.757 133.47 375.883 134.063 375.883 134.744V135.486H370.745C370.764 136.335 370.979 136.984 371.389 137.432C371.809 137.871 372.393 138.09 373.139 138.09C373.615 138.09 374.035 138.048 374.399 137.964C374.773 137.871 375.155 137.74 375.547 137.572V138.65C375.165 138.818 374.787 138.939 374.413 139.014C374.04 139.098 373.597 139.14 373.083 139.14C372.365 139.14 371.735 138.995 371.193 138.706C370.652 138.417 370.227 137.987 369.919 137.418C369.621 136.849 369.471 136.144 369.471 135.304C369.471 134.483 369.607 133.778 369.877 133.19C370.157 132.602 370.545 132.149 371.039 131.832C371.543 131.515 372.127 131.356 372.789 131.356ZM372.775 132.364C372.187 132.364 371.721 132.555 371.375 132.938C371.039 133.311 370.839 133.834 370.773 134.506H374.595C374.586 133.871 374.437 133.358 374.147 132.966C373.858 132.565 373.401 132.364 372.775 132.364ZM381.294 131.356C381.434 131.356 381.583 131.365 381.742 131.384C381.9 131.393 382.045 131.412 382.176 131.44L382.022 132.574C381.9 132.546 381.765 132.523 381.616 132.504C381.466 132.485 381.331 132.476 381.21 132.476C380.827 132.476 380.468 132.583 380.132 132.798C379.796 133.003 379.525 133.297 379.32 133.68C379.124 134.053 379.026 134.492 379.026 134.996V139H377.794V131.496H378.802L378.942 132.868H378.998C379.231 132.457 379.539 132.103 379.922 131.804C380.314 131.505 380.771 131.356 381.294 131.356ZM386.313 139.14C385.641 139.14 385.049 139.005 384.535 138.734C384.022 138.463 383.616 138.043 383.317 137.474C383.028 136.905 382.883 136.177 382.883 135.29C382.883 134.366 383.033 133.615 383.331 133.036C383.639 132.457 384.059 132.033 384.591 131.762C385.123 131.491 385.725 131.356 386.397 131.356C386.771 131.356 387.135 131.398 387.489 131.482C387.853 131.557 388.147 131.65 388.371 131.762L387.993 132.784C387.769 132.7 387.508 132.621 387.209 132.546C386.911 132.471 386.631 132.434 386.369 132.434C384.895 132.434 384.157 133.381 384.157 135.276C384.157 136.181 384.335 136.877 384.689 137.362C385.053 137.838 385.59 138.076 386.299 138.076C386.701 138.076 387.06 138.034 387.377 137.95C387.695 137.866 387.984 137.763 388.245 137.642V138.734C387.993 138.865 387.713 138.963 387.405 139.028C387.107 139.103 386.743 139.14 386.313 139.14ZM396.302 131.496V139H395.294L395.112 138.006H395.056C394.813 138.398 394.477 138.687 394.048 138.874C393.619 139.051 393.161 139.14 392.676 139.14C391.771 139.14 391.089 138.925 390.632 138.496C390.175 138.057 389.946 137.362 389.946 136.41V131.496H391.192V136.326C391.192 137.521 391.747 138.118 392.858 138.118C393.689 138.118 394.263 137.885 394.58 137.418C394.907 136.951 395.07 136.279 395.07 135.402V131.496H396.302ZM402.184 131.356C402.324 131.356 402.473 131.365 402.632 131.384C402.791 131.393 402.935 131.412 403.066 131.44L402.912 132.574C402.791 132.546 402.655 132.523 402.506 132.504C402.357 132.485 402.221 132.476 402.1 132.476C401.717 132.476 401.358 132.583 401.022 132.798C400.686 133.003 400.415 133.297 400.21 133.68C400.014 134.053 399.916 134.492 399.916 134.996V139H398.684V131.496H399.692L399.832 132.868H399.888C400.121 132.457 400.429 132.103 400.812 131.804C401.204 131.505 401.661 131.356 402.184 131.356ZM403.291 131.496H404.607L406.231 135.766C406.371 136.149 406.497 136.508 406.609 136.844C406.721 137.18 406.805 137.502 406.861 137.81H406.917C406.973 137.577 407.062 137.273 407.183 136.9C407.305 136.517 407.431 136.135 407.561 135.752L409.087 131.496H410.417L407.183 140.036C406.913 140.745 406.572 141.31 406.161 141.73C405.751 142.15 405.181 142.36 404.453 142.36C404.229 142.36 404.033 142.346 403.865 142.318C403.697 142.299 403.553 142.276 403.431 142.248V141.268C403.534 141.287 403.655 141.305 403.795 141.324C403.945 141.343 404.099 141.352 404.257 141.352C404.687 141.352 405.032 141.231 405.293 140.988C405.555 140.745 405.765 140.423 405.923 140.022L406.315 139.028L403.291 131.496Z" fill="black"/>
<rect width="320" height="36" transform="translate(316 152)" fill="white"/>
<rect x="332" y="162" width="16" height="16" rx="4" fill="white"/>
<rect x="332.5" y="162.5" width="15" height="15" rx="3.5" stroke="#1B77AF"/>
<path d="M364.4 165.004L360.83 175H359.57L356 165.004H357.316L359.57 171.416C359.719 171.827 359.841 172.214 359.934 172.578C360.037 172.933 360.125 173.273 360.2 173.6C360.265 173.273 360.349 172.928 360.452 172.564C360.555 172.2 360.681 171.808 360.83 171.388L363.07 165.004H364.4ZM368.209 167.356C368.844 167.356 369.394 167.496 369.861 167.776C370.328 168.056 370.682 168.453 370.925 168.966C371.177 169.47 371.303 170.063 371.303 170.744V171.486H366.165C366.184 172.335 366.398 172.984 366.809 173.432C367.229 173.871 367.812 174.09 368.559 174.09C369.035 174.09 369.455 174.048 369.819 173.964C370.192 173.871 370.575 173.74 370.967 173.572V174.65C370.584 174.818 370.206 174.939 369.833 175.014C369.46 175.098 369.016 175.14 368.503 175.14C367.784 175.14 367.154 174.995 366.613 174.706C366.072 174.417 365.647 173.987 365.339 173.418C365.04 172.849 364.891 172.144 364.891 171.304C364.891 170.483 365.026 169.778 365.297 169.19C365.577 168.602 365.964 168.149 366.459 167.832C366.963 167.515 367.546 167.356 368.209 167.356ZM368.195 168.364C367.607 168.364 367.14 168.555 366.795 168.938C366.459 169.311 366.258 169.834 366.193 170.506H370.015C370.006 169.871 369.856 169.358 369.567 168.966C369.278 168.565 368.82 168.364 368.195 168.364ZM376.825 167.356C377.721 167.356 378.398 167.575 378.855 168.014C379.313 168.453 379.541 169.153 379.541 170.114V175H378.323V170.198C378.323 168.994 377.763 168.392 376.643 168.392C375.813 168.392 375.239 168.625 374.921 169.092C374.604 169.559 374.445 170.231 374.445 171.108V175H373.213V167.496H374.207L374.389 168.518H374.459C374.702 168.126 375.038 167.837 375.467 167.65C375.897 167.454 376.349 167.356 376.825 167.356ZM388.14 167.496V175H387.132L386.95 174.006H386.894C386.651 174.398 386.315 174.687 385.886 174.874C385.456 175.051 384.999 175.14 384.514 175.14C383.608 175.14 382.927 174.925 382.47 174.496C382.012 174.057 381.784 173.362 381.784 172.41V167.496H383.03V172.326C383.03 173.521 383.585 174.118 384.696 174.118C385.526 174.118 386.1 173.885 386.418 173.418C386.744 172.951 386.908 172.279 386.908 171.402V167.496H388.14ZM395.408 172.928C395.408 173.656 395.137 174.207 394.596 174.58C394.055 174.953 393.327 175.14 392.412 175.14C391.889 175.14 391.437 175.098 391.054 175.014C390.681 174.93 390.349 174.813 390.06 174.664V173.544C390.359 173.693 390.718 173.833 391.138 173.964C391.567 174.085 392.001 174.146 392.44 174.146C393.065 174.146 393.518 174.048 393.798 173.852C394.078 173.647 394.218 173.376 394.218 173.04C394.218 172.853 394.167 172.685 394.064 172.536C393.961 172.387 393.775 172.237 393.504 172.088C393.243 171.939 392.865 171.771 392.37 171.584C391.885 171.397 391.469 171.211 391.124 171.024C390.779 170.837 390.513 170.613 390.326 170.352C390.139 170.091 390.046 169.755 390.046 169.344C390.046 168.709 390.303 168.219 390.816 167.874C391.339 167.529 392.02 167.356 392.86 167.356C393.317 167.356 393.742 167.403 394.134 167.496C394.535 167.589 394.909 167.711 395.254 167.86L394.834 168.84C394.517 168.709 394.185 168.597 393.84 168.504C393.495 168.411 393.14 168.364 392.776 168.364C392.272 168.364 391.885 168.448 391.614 168.616C391.353 168.775 391.222 168.994 391.222 169.274C391.222 169.489 391.283 169.666 391.404 169.806C391.525 169.946 391.726 170.086 392.006 170.226C392.295 170.366 392.678 170.525 393.154 170.702C393.63 170.879 394.036 171.061 394.372 171.248C394.708 171.435 394.965 171.663 395.142 171.934C395.319 172.195 395.408 172.527 395.408 172.928Z" fill="black"/>
<rect width="320" height="36" transform="translate(316 188)" fill="white"/>
<rect x="332" y="198" width="16" height="16" rx="4" fill="white"/>
<rect x="332.5" y="198.5" width="15" height="15" rx="3.5" stroke="#1B77AF"/>
<path d="M362.944 211H357.358V201.004H362.944V202.11H358.618V205.232H362.692V206.324H358.618V209.894H362.944V211ZM367.811 203.37C368.726 203.37 369.403 203.571 369.841 203.972C370.28 204.373 370.499 205.013 370.499 205.89V211H369.603L369.365 209.936H369.309C368.983 210.347 368.637 210.65 368.273 210.846C367.909 211.042 367.415 211.14 366.789 211.14C366.108 211.14 365.543 210.963 365.095 210.608C364.647 210.244 364.423 209.679 364.423 208.914C364.423 208.167 364.717 207.593 365.305 207.192C365.893 206.781 366.799 206.557 368.021 206.52L369.295 206.478V206.03C369.295 205.405 369.16 204.971 368.889 204.728C368.619 204.485 368.236 204.364 367.741 204.364C367.349 204.364 366.976 204.425 366.621 204.546C366.267 204.658 365.935 204.789 365.627 204.938L365.249 204.014C365.576 203.837 365.963 203.687 366.411 203.566C366.859 203.435 367.326 203.37 367.811 203.37ZM369.281 207.332L368.175 207.374C367.242 207.411 366.593 207.561 366.229 207.822C365.875 208.083 365.697 208.452 365.697 208.928C365.697 209.348 365.823 209.656 366.075 209.852C366.337 210.048 366.668 210.146 367.069 210.146C367.695 210.146 368.217 209.973 368.637 209.628C369.067 209.273 369.281 208.732 369.281 208.004V207.332ZM376.317 203.356C376.457 203.356 376.606 203.365 376.765 203.384C376.924 203.393 377.068 203.412 377.199 203.44L377.045 204.574C376.924 204.546 376.788 204.523 376.639 204.504C376.49 204.485 376.354 204.476 376.233 204.476C375.85 204.476 375.491 204.583 375.155 204.798C374.819 205.003 374.548 205.297 374.343 205.68C374.147 206.053 374.049 206.492 374.049 206.996V211H372.817V203.496H373.825L373.965 204.868H374.021C374.254 204.457 374.562 204.103 374.945 203.804C375.337 203.505 375.794 203.356 376.317 203.356ZM381.106 210.132C381.293 210.132 381.484 210.118 381.68 210.09C381.876 210.062 382.035 210.025 382.156 209.978V210.916C382.025 210.981 381.839 211.033 381.596 211.07C381.353 211.117 381.12 211.14 380.896 211.14C380.504 211.14 380.14 211.075 379.804 210.944C379.477 210.804 379.211 210.566 379.006 210.23C378.801 209.894 378.698 209.423 378.698 208.816V204.448H377.634V203.86L378.712 203.37L379.202 201.774H379.93V203.496H382.1V204.448H379.93V208.788C379.93 209.245 380.037 209.586 380.252 209.81C380.476 210.025 380.761 210.132 381.106 210.132ZM384.891 200.36V203.482C384.891 203.855 384.867 204.205 384.821 204.532H384.905C385.147 204.149 385.474 203.86 385.885 203.664C386.305 203.468 386.757 203.37 387.243 203.37C388.148 203.37 388.829 203.589 389.287 204.028C389.753 204.457 389.987 205.153 389.987 206.114V211H388.769V206.198C388.769 204.994 388.209 204.392 387.089 204.392C386.249 204.392 385.67 204.63 385.353 205.106C385.045 205.573 384.891 206.245 384.891 207.122V211H383.659V200.36H384.891Z" fill="black"/>
<rect width="320" height="36" transform="translate(316 224)" fill="white"/>
<rect x="332" y="234" width="16" height="16" rx="4" fill="white"/>
<rect x="332.5" y="234.5" width="15" height="15" rx="3.5" stroke="#1B77AF"/>
<path d="M361.768 247L358.478 238.236H358.422C358.45 238.525 358.473 238.917 358.492 239.412C358.511 239.897 358.52 240.406 358.52 240.938V247H357.358V237.004H359.22L362.3 245.194H362.356L365.492 237.004H367.34V247H366.094V240.854C366.094 240.369 366.103 239.888 366.122 239.412C366.15 238.936 366.173 238.549 366.192 238.25H366.136L362.804 247H361.768ZM372.733 239.37C373.648 239.37 374.325 239.571 374.763 239.972C375.202 240.373 375.421 241.013 375.421 241.89V247H374.525L374.287 245.936H374.231C373.905 246.347 373.559 246.65 373.195 246.846C372.831 247.042 372.337 247.14 371.711 247.14C371.03 247.14 370.465 246.963 370.017 246.608C369.569 246.244 369.345 245.679 369.345 244.914C369.345 244.167 369.639 243.593 370.227 243.192C370.815 242.781 371.721 242.557 372.943 242.52L374.217 242.478V242.03C374.217 241.405 374.082 240.971 373.811 240.728C373.541 240.485 373.158 240.364 372.663 240.364C372.271 240.364 371.898 240.425 371.543 240.546C371.189 240.658 370.857 240.789 370.549 240.938L370.171 240.014C370.498 239.837 370.885 239.687 371.333 239.566C371.781 239.435 372.248 239.37 372.733 239.37ZM374.203 243.332L373.097 243.374C372.164 243.411 371.515 243.561 371.151 243.822C370.797 244.083 370.619 244.452 370.619 244.928C370.619 245.348 370.745 245.656 370.997 245.852C371.259 246.048 371.59 246.146 371.991 246.146C372.617 246.146 373.139 245.973 373.559 245.628C373.989 245.273 374.203 244.732 374.203 244.004V243.332ZM381.239 239.356C381.379 239.356 381.528 239.365 381.687 239.384C381.845 239.393 381.99 239.412 382.121 239.44L381.967 240.574C381.845 240.546 381.71 240.523 381.561 240.504C381.411 240.485 381.276 240.476 381.155 240.476C380.772 240.476 380.413 240.583 380.077 240.798C379.741 241.003 379.47 241.297 379.265 241.68C379.069 242.053 378.971 242.492 378.971 242.996V247H377.739V239.496H378.747L378.887 240.868H378.943C379.176 240.457 379.484 240.103 379.867 239.804C380.259 239.505 380.716 239.356 381.239 239.356ZM388.408 244.928C388.408 245.656 388.137 246.207 387.596 246.58C387.055 246.953 386.327 247.14 385.412 247.14C384.889 247.14 384.437 247.098 384.054 247.014C383.681 246.93 383.349 246.813 383.06 246.664V245.544C383.359 245.693 383.718 245.833 384.138 245.964C384.567 246.085 385.001 246.146 385.44 246.146C386.065 246.146 386.518 246.048 386.798 245.852C387.078 245.647 387.218 245.376 387.218 245.04C387.218 244.853 387.167 244.685 387.064 244.536C386.961 244.387 386.775 244.237 386.504 244.088C386.243 243.939 385.865 243.771 385.37 243.584C384.885 243.397 384.469 243.211 384.124 243.024C383.779 242.837 383.513 242.613 383.326 242.352C383.139 242.091 383.046 241.755 383.046 241.344C383.046 240.709 383.303 240.219 383.816 239.874C384.339 239.529 385.02 239.356 385.86 239.356C386.317 239.356 386.742 239.403 387.134 239.496C387.535 239.589 387.909 239.711 388.254 239.86L387.834 240.84C387.517 240.709 387.185 240.597 386.84 240.504C386.495 240.411 386.14 240.364 385.776 240.364C385.272 240.364 384.885 240.448 384.614 240.616C384.353 240.775 384.222 240.994 384.222 241.274C384.222 241.489 384.283 241.666 384.404 241.806C384.525 241.946 384.726 242.086 385.006 242.226C385.295 242.366 385.678 242.525 386.154 242.702C386.63 242.879 387.036 243.061 387.372 243.248C387.708 243.435 387.965 243.663 388.142 243.934C388.319 244.195 388.408 244.527 388.408 244.928Z" fill="black"/>
<rect width="320" height="36" transform="translate(316 260)" fill="white"/>
<rect x="332" y="270" width="16" height="16" rx="4" fill="white"/>
<rect x="332.5" y="270.5" width="15" height="15" rx="3.5" stroke="#1B77AF"/>
<path d="M355.944 285.66C355.72 285.66 355.524 285.641 355.356 285.604C355.188 285.576 355.039 285.534 354.908 285.478V284.414C355.057 284.461 355.216 284.493 355.384 284.512C355.552 284.54 355.729 284.554 355.916 284.554C356.149 284.554 356.369 284.507 356.574 284.414C356.789 284.321 356.961 284.157 357.092 283.924C357.223 283.7 357.288 283.373 357.288 282.944V273.004H358.548V282.846C358.548 283.807 358.31 284.517 357.834 284.974C357.358 285.431 356.728 285.66 355.944 285.66ZM367.29 275.496V283H366.282L366.1 282.006H366.044C365.801 282.398 365.465 282.687 365.036 282.874C364.607 283.051 364.149 283.14 363.664 283.14C362.759 283.14 362.077 282.925 361.62 282.496C361.163 282.057 360.934 281.362 360.934 280.41V275.496H362.18V280.326C362.18 281.521 362.735 282.118 363.846 282.118C364.677 282.118 365.251 281.885 365.568 281.418C365.895 280.951 366.058 280.279 366.058 279.402V275.496H367.29ZM373.242 275.356C374.166 275.356 374.908 275.678 375.468 276.322C376.038 276.966 376.322 277.937 376.322 279.234C376.322 280.513 376.038 281.483 375.468 282.146C374.908 282.809 374.162 283.14 373.228 283.14C372.65 283.14 372.169 283.033 371.786 282.818C371.413 282.603 371.119 282.347 370.904 282.048H370.82C370.83 282.207 370.844 282.407 370.862 282.65C370.89 282.893 370.904 283.103 370.904 283.28V286.36H369.672V275.496H370.68L370.848 276.518H370.904C371.128 276.191 371.422 275.916 371.786 275.692C372.15 275.468 372.636 275.356 373.242 275.356ZM373.018 276.392C372.253 276.392 371.712 276.607 371.394 277.036C371.077 277.465 370.914 278.119 370.904 278.996V279.234C370.904 280.158 371.054 280.872 371.352 281.376C371.66 281.871 372.225 282.118 373.046 282.118C373.494 282.118 373.868 281.997 374.166 281.754C374.465 281.502 374.684 281.157 374.824 280.718C374.974 280.279 375.048 279.78 375.048 279.22C375.048 278.361 374.88 277.675 374.544 277.162C374.218 276.649 373.709 276.392 373.018 276.392ZM378.916 272.682C379.102 272.682 379.266 272.747 379.406 272.878C379.555 272.999 379.63 273.195 379.63 273.466C379.63 273.737 379.555 273.937 379.406 274.068C379.266 274.189 379.102 274.25 378.916 274.25C378.71 274.25 378.538 274.189 378.398 274.068C378.258 273.937 378.188 273.737 378.188 273.466C378.188 273.195 378.258 272.999 378.398 272.878C378.538 272.747 378.71 272.682 378.916 272.682ZM379.518 275.496V283H378.286V275.496H379.518ZM384.401 282.132C384.588 282.132 384.779 282.118 384.975 282.09C385.171 282.062 385.33 282.025 385.451 281.978V282.916C385.32 282.981 385.134 283.033 384.891 283.07C384.648 283.117 384.415 283.14 384.191 283.14C383.799 283.14 383.435 283.075 383.099 282.944C382.772 282.804 382.506 282.566 382.301 282.23C382.096 281.894 381.993 281.423 381.993 280.816V276.448H380.929V275.86L382.007 275.37L382.497 273.774H383.225V275.496H385.395V276.448H383.225V280.788C383.225 281.245 383.332 281.586 383.547 281.81C383.771 282.025 384.056 282.132 384.401 282.132ZM389.852 275.356C390.486 275.356 391.037 275.496 391.504 275.776C391.97 276.056 392.325 276.453 392.568 276.966C392.82 277.47 392.946 278.063 392.946 278.744V279.486H387.808C387.826 280.335 388.041 280.984 388.452 281.432C388.872 281.871 389.455 282.09 390.202 282.09C390.678 282.09 391.098 282.048 391.462 281.964C391.835 281.871 392.218 281.74 392.61 281.572V282.65C392.227 282.818 391.849 282.939 391.476 283.014C391.102 283.098 390.659 283.14 390.146 283.14C389.427 283.14 388.797 282.995 388.256 282.706C387.714 282.417 387.29 281.987 386.982 281.418C386.683 280.849 386.534 280.144 386.534 279.304C386.534 278.483 386.669 277.778 386.94 277.19C387.22 276.602 387.607 276.149 388.102 275.832C388.606 275.515 389.189 275.356 389.852 275.356ZM389.838 276.364C389.25 276.364 388.783 276.555 388.438 276.938C388.102 277.311 387.901 277.834 387.836 278.506H391.658C391.648 277.871 391.499 277.358 391.21 276.966C390.92 276.565 390.463 276.364 389.838 276.364ZM398.356 275.356C398.496 275.356 398.645 275.365 398.804 275.384C398.963 275.393 399.107 275.412 399.238 275.44L399.084 276.574C398.963 276.546 398.827 276.523 398.678 276.504C398.529 276.485 398.393 276.476 398.272 276.476C397.889 276.476 397.53 276.583 397.194 276.798C396.858 277.003 396.587 277.297 396.382 277.68C396.186 278.053 396.088 278.492 396.088 278.996V283H394.856V275.496H395.864L396.004 276.868H396.06C396.293 276.457 396.601 276.103 396.984 275.804C397.376 275.505 397.833 275.356 398.356 275.356Z" fill="black"/>
<rect width="320" height="36" transform="translate(316 296)" fill="#F1F1F1"/>
<rect x="332" y="306" width="16" height="16" rx="4" fill="#1B77AF"/>
<path d="M338.512 319.202C338.412 319.202 338.312 319.152 338.262 319.102L334.113 314.952C333.962 314.802 333.962 314.552 334.113 314.402C334.263 314.252 334.512 314.252 334.662 314.402L338.512 318.252L345.312 309.152C345.413 309.002 345.662 308.952 345.812 309.052C345.963 309.152 346.012 309.402 345.912 309.552L338.812 319.052C338.762 319.152 338.662 319.202 338.512 319.202Z" fill="white"/>
<path d="M363.028 316.326C363.028 317.213 362.706 317.903 362.062 318.398C361.418 318.893 360.55 319.14 359.458 319.14C358.898 319.14 358.38 319.098 357.904 319.014C357.428 318.93 357.031 318.813 356.714 318.664V317.46C357.05 317.609 357.465 317.745 357.96 317.866C358.464 317.987 358.982 318.048 359.514 318.048C360.251 318.048 360.811 317.903 361.194 317.614C361.577 317.325 361.768 316.933 361.768 316.438C361.768 316.111 361.698 315.836 361.558 315.612C361.418 315.388 361.175 315.183 360.83 314.996C360.485 314.809 360.013 314.604 359.416 314.38C358.557 314.072 357.913 313.694 357.484 313.246C357.055 312.798 356.84 312.187 356.84 311.412C356.84 310.889 356.975 310.437 357.246 310.054C357.517 309.671 357.89 309.377 358.366 309.172C358.842 308.967 359.397 308.864 360.032 308.864C360.573 308.864 361.073 308.915 361.53 309.018C361.987 309.121 362.407 309.256 362.79 309.424L362.398 310.502C362.053 310.353 361.675 310.227 361.264 310.124C360.853 310.021 360.433 309.97 360.004 309.97C359.379 309.97 358.907 310.105 358.59 310.376C358.273 310.637 358.114 310.987 358.114 311.426C358.114 311.762 358.184 312.042 358.324 312.266C358.464 312.49 358.693 312.695 359.01 312.882C359.327 313.059 359.757 313.246 360.298 313.442C360.886 313.657 361.381 313.89 361.782 314.142C362.193 314.385 362.501 314.679 362.706 315.024C362.921 315.369 363.028 315.803 363.028 316.326ZM367.716 311.37C368.63 311.37 369.307 311.571 369.746 311.972C370.184 312.373 370.404 313.013 370.404 313.89V319H369.508L369.27 317.936H369.214C368.887 318.347 368.542 318.65 368.178 318.846C367.814 319.042 367.319 319.14 366.694 319.14C366.012 319.14 365.448 318.963 365 318.608C364.552 318.244 364.328 317.679 364.328 316.914C364.328 316.167 364.622 315.593 365.21 315.192C365.798 314.781 366.703 314.557 367.926 314.52L369.2 314.478V314.03C369.2 313.405 369.064 312.971 368.794 312.728C368.523 312.485 368.14 312.364 367.646 312.364C367.254 312.364 366.88 312.425 366.526 312.546C366.171 312.658 365.84 312.789 365.532 312.938L365.154 312.014C365.48 311.837 365.868 311.687 366.316 311.566C366.764 311.435 367.23 311.37 367.716 311.37ZM369.186 315.332L368.08 315.374C367.146 315.411 366.498 315.561 366.134 315.822C365.779 316.083 365.602 316.452 365.602 316.928C365.602 317.348 365.728 317.656 365.98 317.852C366.241 318.048 366.572 318.146 366.974 318.146C367.599 318.146 368.122 317.973 368.542 317.628C368.971 317.273 369.186 316.732 369.186 316.004V315.332ZM375.227 318.132C375.414 318.132 375.605 318.118 375.801 318.09C375.997 318.062 376.156 318.025 376.277 317.978V318.916C376.147 318.981 375.96 319.033 375.717 319.07C375.475 319.117 375.241 319.14 375.017 319.14C374.625 319.14 374.261 319.075 373.925 318.944C373.599 318.804 373.333 318.566 373.127 318.23C372.922 317.894 372.819 317.423 372.819 316.816V312.448H371.755V311.86L372.833 311.37L373.323 309.774H374.051V311.496H376.221V312.448H374.051V316.788C374.051 317.245 374.159 317.586 374.373 317.81C374.597 318.025 374.882 318.132 375.227 318.132ZM384.052 311.496V319H383.044L382.862 318.006H382.806C382.563 318.398 382.227 318.687 381.798 318.874C381.369 319.051 380.911 319.14 380.426 319.14C379.521 319.14 378.839 318.925 378.382 318.496C377.925 318.057 377.696 317.362 377.696 316.41V311.496H378.942V316.326C378.942 317.521 379.497 318.118 380.608 318.118C381.439 318.118 382.013 317.885 382.33 317.418C382.657 316.951 382.82 316.279 382.82 315.402V311.496H384.052ZM389.934 311.356C390.074 311.356 390.223 311.365 390.382 311.384C390.541 311.393 390.685 311.412 390.816 311.44L390.662 312.574C390.541 312.546 390.405 312.523 390.256 312.504C390.107 312.485 389.971 312.476 389.85 312.476C389.467 312.476 389.108 312.583 388.772 312.798C388.436 313.003 388.165 313.297 387.96 313.68C387.764 314.053 387.666 314.492 387.666 314.996V319H386.434V311.496H387.442L387.582 312.868H387.638C387.871 312.457 388.179 312.103 388.562 311.804C388.954 311.505 389.411 311.356 389.934 311.356ZM395.829 311.356C396.725 311.356 397.402 311.575 397.859 312.014C398.317 312.453 398.545 313.153 398.545 314.114V319H397.327V314.198C397.327 312.994 396.767 312.392 395.647 312.392C394.817 312.392 394.243 312.625 393.925 313.092C393.608 313.559 393.449 314.231 393.449 315.108V319H392.217V311.496H393.211L393.393 312.518H393.463C393.706 312.126 394.042 311.837 394.471 311.65C394.901 311.454 395.353 311.356 395.829 311.356Z" fill="black"/>
<rect width="320" height="36" transform="translate(316 332)" fill="#F1F1F1"/>
<rect x="332" y="342" width="16" height="16" rx="4" fill="#1B77AF"/>
<path d="M338.512 355.202C338.412 355.202 338.312 355.152 338.262 355.102L334.113 350.952C333.962 350.802 333.962 350.552 334.113 350.402C334.263 350.252 334.512 350.252 334.662 350.402L338.512 354.252L345.312 345.152C345.413 345.002 345.662 344.952 345.812 345.052C345.963 345.152 346.012 345.402 345.912 345.552L338.812 355.052C338.762 355.152 338.662 355.202 338.512 355.202Z" fill="white"/>
<path d="M364.96 345.004V351.472C364.96 352.163 364.82 352.788 364.54 353.348C364.26 353.899 363.831 354.337 363.252 354.664C362.673 354.981 361.945 355.14 361.068 355.14C359.817 355.14 358.87 354.804 358.226 354.132C357.582 353.451 357.26 352.555 357.26 351.444V345.004H358.52V351.486C358.52 352.298 358.735 352.928 359.164 353.376C359.603 353.824 360.261 354.048 361.138 354.048C362.043 354.048 362.697 353.81 363.098 353.334C363.509 352.849 363.714 352.228 363.714 351.472V345.004H364.96ZM370.93 347.356C371.07 347.356 371.22 347.365 371.378 347.384C371.537 347.393 371.682 347.412 371.812 347.44L371.658 348.574C371.537 348.546 371.402 348.523 371.252 348.504C371.103 348.485 370.968 348.476 370.846 348.476C370.464 348.476 370.104 348.583 369.768 348.798C369.432 349.003 369.162 349.297 368.956 349.68C368.76 350.053 368.662 350.492 368.662 350.996V355H367.43V347.496H368.438L368.578 348.868H368.634C368.868 348.457 369.176 348.103 369.558 347.804C369.95 347.505 370.408 347.356 370.93 347.356ZM375.782 347.37C376.697 347.37 377.373 347.571 377.812 347.972C378.251 348.373 378.47 349.013 378.47 349.89V355H377.574L377.336 353.936H377.28C376.953 354.347 376.608 354.65 376.244 354.846C375.88 355.042 375.385 355.14 374.76 355.14C374.079 355.14 373.514 354.963 373.066 354.608C372.618 354.244 372.394 353.679 372.394 352.914C372.394 352.167 372.688 351.593 373.276 351.192C373.864 350.781 374.769 350.557 375.992 350.52L377.266 350.478V350.03C377.266 349.405 377.131 348.971 376.86 348.728C376.589 348.485 376.207 348.364 375.712 348.364C375.32 348.364 374.947 348.425 374.592 348.546C374.237 348.658 373.906 348.789 373.598 348.938L373.22 348.014C373.547 347.837 373.934 347.687 374.382 347.566C374.83 347.435 375.297 347.37 375.782 347.37ZM377.252 351.332L376.146 351.374C375.213 351.411 374.564 351.561 374.2 351.822C373.845 352.083 373.668 352.452 373.668 352.928C373.668 353.348 373.794 353.656 374.046 353.852C374.307 354.048 374.639 354.146 375.04 354.146C375.665 354.146 376.188 353.973 376.608 353.628C377.037 353.273 377.252 352.732 377.252 352.004V351.332ZM384.4 347.356C385.296 347.356 385.972 347.575 386.43 348.014C386.887 348.453 387.116 349.153 387.116 350.114V355H385.898V350.198C385.898 348.994 385.338 348.392 384.218 348.392C383.387 348.392 382.813 348.625 382.496 349.092C382.178 349.559 382.02 350.231 382.02 351.108V355H380.788V347.496H381.782L381.964 348.518H382.034C382.276 348.126 382.612 347.837 383.042 347.65C383.471 347.454 383.924 347.356 384.4 347.356ZM395.714 347.496V355H394.706L394.524 354.006H394.468C394.225 354.398 393.889 354.687 393.46 354.874C393.031 355.051 392.573 355.14 392.088 355.14C391.183 355.14 390.501 354.925 390.044 354.496C389.587 354.057 389.358 353.362 389.358 352.41V347.496H390.604V352.326C390.604 353.521 391.159 354.118 392.27 354.118C393.101 354.118 393.675 353.885 393.992 353.418C394.319 352.951 394.482 352.279 394.482 351.402V347.496H395.714ZM402.982 352.928C402.982 353.656 402.712 354.207 402.17 354.58C401.629 354.953 400.901 355.14 399.986 355.14C399.464 355.14 399.011 355.098 398.628 355.014C398.255 354.93 397.924 354.813 397.634 354.664V353.544C397.933 353.693 398.292 353.833 398.712 353.964C399.142 354.085 399.576 354.146 400.014 354.146C400.64 354.146 401.092 354.048 401.372 353.852C401.652 353.647 401.792 353.376 401.792 353.04C401.792 352.853 401.741 352.685 401.638 352.536C401.536 352.387 401.349 352.237 401.078 352.088C400.817 351.939 400.439 351.771 399.944 351.584C399.459 351.397 399.044 351.211 398.698 351.024C398.353 350.837 398.087 350.613 397.9 350.352C397.714 350.091 397.62 349.755 397.62 349.344C397.62 348.709 397.877 348.219 398.39 347.874C398.913 347.529 399.594 347.356 400.434 347.356C400.892 347.356 401.316 347.403 401.708 347.496C402.11 347.589 402.483 347.711 402.828 347.86L402.408 348.84C402.091 348.709 401.76 348.597 401.414 348.504C401.069 348.411 400.714 348.364 400.35 348.364C399.846 348.364 399.459 348.448 399.188 348.616C398.927 348.775 398.796 348.994 398.796 349.274C398.796 349.489 398.857 349.666 398.978 349.806C399.1 349.946 399.3 350.086 399.58 350.226C399.87 350.366 400.252 350.525 400.728 350.702C401.204 350.879 401.61 351.061 401.946 351.248C402.282 351.435 402.539 351.663 402.716 351.934C402.894 352.195 402.982 352.527 402.982 352.928Z" fill="black"/>
<rect width="320" height="36" transform="translate(316 368)" fill="#DDDDDD"/>
<rect x="332" y="378" width="16" height="16" rx="4" fill="#1B77AF"/>
<path d="M338.512 391.202C338.412 391.202 338.312 391.152 338.262 391.102L334.113 386.952C333.962 386.802 333.962 386.552 334.113 386.402C334.263 386.252 334.512 386.252 334.662 386.402L338.512 390.252L345.312 381.152C345.413 381.002 345.662 380.952 345.812 381.052C345.963 381.152 346.012 381.402 345.912 381.552L338.812 391.052C338.762 391.152 338.662 391.202 338.512 391.202Z" fill="white"/>
<path d="M365.282 391H363.812L358.464 382.698H358.408C358.427 383.025 358.45 383.431 358.478 383.916C358.506 384.401 358.52 384.901 358.52 385.414V391H357.358V381.004H358.814L364.148 389.278H364.204C364.195 389.129 364.181 388.905 364.162 388.606C364.153 388.307 364.139 387.985 364.12 387.64C364.111 387.285 364.106 386.954 364.106 386.646V381.004H365.282V391ZM370.725 383.356C371.359 383.356 371.91 383.496 372.377 383.776C372.843 384.056 373.198 384.453 373.441 384.966C373.693 385.47 373.819 386.063 373.819 386.744V387.486H368.681C368.699 388.335 368.914 388.984 369.325 389.432C369.745 389.871 370.328 390.09 371.075 390.09C371.551 390.09 371.971 390.048 372.335 389.964C372.708 389.871 373.091 389.74 373.483 389.572V390.65C373.1 390.818 372.722 390.939 372.349 391.014C371.975 391.098 371.532 391.14 371.019 391.14C370.3 391.14 369.67 390.995 369.129 390.706C368.587 390.417 368.163 389.987 367.855 389.418C367.556 388.849 367.407 388.144 367.407 387.304C367.407 386.483 367.542 385.778 367.813 385.19C368.093 384.602 368.48 384.149 368.975 383.832C369.479 383.515 370.062 383.356 370.725 383.356ZM370.711 384.364C370.123 384.364 369.656 384.555 369.311 384.938C368.975 385.311 368.774 385.834 368.709 386.506H372.531C372.521 385.871 372.372 385.358 372.083 384.966C371.793 384.565 371.336 384.364 370.711 384.364ZM379.299 383.356C380.223 383.356 380.965 383.678 381.525 384.322C382.094 384.966 382.379 385.937 382.379 387.234C382.379 388.513 382.094 389.483 381.525 390.146C380.965 390.809 380.218 391.14 379.285 391.14C378.706 391.14 378.226 391.033 377.843 390.818C377.47 390.603 377.176 390.347 376.961 390.048H376.877C376.886 390.207 376.9 390.407 376.919 390.65C376.947 390.893 376.961 391.103 376.961 391.28V394.36H375.729V383.496H376.737L376.905 384.518H376.961C377.185 384.191 377.479 383.916 377.843 383.692C378.207 383.468 378.692 383.356 379.299 383.356ZM379.075 384.392C378.31 384.392 377.768 384.607 377.451 385.036C377.134 385.465 376.97 386.119 376.961 386.996V387.234C376.961 388.158 377.11 388.872 377.409 389.376C377.717 389.871 378.282 390.118 379.103 390.118C379.551 390.118 379.924 389.997 380.223 389.754C380.522 389.502 380.741 389.157 380.881 388.718C381.03 388.279 381.105 387.78 381.105 387.22C381.105 386.361 380.937 385.675 380.601 385.162C380.274 384.649 379.766 384.392 379.075 384.392ZM386.848 390.132C387.035 390.132 387.226 390.118 387.422 390.09C387.618 390.062 387.777 390.025 387.898 389.978V390.916C387.768 390.981 387.581 391.033 387.338 391.07C387.096 391.117 386.862 391.14 386.638 391.14C386.246 391.14 385.882 391.075 385.546 390.944C385.22 390.804 384.954 390.566 384.748 390.23C384.543 389.894 384.44 389.423 384.44 388.816V384.448H383.376V383.86L384.454 383.37L384.944 381.774H385.672V383.496H387.842V384.448H385.672V388.788C385.672 389.245 385.78 389.586 385.994 389.81C386.218 390.025 386.503 390.132 386.848 390.132ZM395.673 383.496V391H394.665L394.483 390.006H394.427C394.184 390.398 393.848 390.687 393.419 390.874C392.99 391.051 392.532 391.14 392.047 391.14C391.142 391.14 390.46 390.925 390.003 390.496C389.546 390.057 389.317 389.362 389.317 388.41V383.496H390.563V388.326C390.563 389.521 391.118 390.118 392.229 390.118C393.06 390.118 393.634 389.885 393.951 389.418C394.278 388.951 394.441 388.279 394.441 387.402V383.496H395.673ZM401.667 383.356C402.563 383.356 403.24 383.575 403.697 384.014C404.155 384.453 404.383 385.153 404.383 386.114V391H403.165V386.198C403.165 384.994 402.605 384.392 401.485 384.392C400.655 384.392 400.081 384.625 399.763 385.092C399.446 385.559 399.287 386.231 399.287 387.108V391H398.055V383.496H399.049L399.231 384.518H399.301C399.544 384.126 399.88 383.837 400.309 383.65C400.739 383.454 401.191 383.356 401.667 383.356ZM409.608 383.356C410.242 383.356 410.793 383.496 411.26 383.776C411.726 384.056 412.081 384.453 412.324 384.966C412.576 385.47 412.702 386.063 412.702 386.744V387.486H407.564C407.582 388.335 407.797 388.984 408.208 389.432C408.628 389.871 409.211 390.09 409.958 390.09C410.434 390.09 410.854 390.048 411.218 389.964C411.591 389.871 411.974 389.74 412.366 389.572V390.65C411.983 390.818 411.605 390.939 411.232 391.014C410.858 391.098 410.415 391.14 409.902 391.14C409.183 391.14 408.553 390.995 408.012 390.706C407.47 390.417 407.046 389.987 406.738 389.418C406.439 388.849 406.29 388.144 406.29 387.304C406.29 386.483 406.425 385.778 406.696 385.19C406.976 384.602 407.363 384.149 407.858 383.832C408.362 383.515 408.945 383.356 409.608 383.356ZM409.594 384.364C409.006 384.364 408.539 384.555 408.194 384.938C407.858 385.311 407.657 385.834 407.592 386.506H411.414C411.404 385.871 411.255 385.358 410.966 384.966C410.676 384.565 410.219 384.364 409.594 384.364Z" fill="black"/>
</g>
<rect x="315.5" y="115.5" width="321" height="289" rx="4.5" stroke="black" stroke-opacity="0.15"/>
</g>
<path d="M319.432 36.432C320.552 36.432 321.368 36.652 321.88 37.092C322.392 37.532 322.648 38.152 322.648 38.952C322.648 39.424 322.54 39.868 322.324 40.284C322.116 40.692 321.76 41.024 321.256 41.28C320.76 41.536 320.084 41.664 319.228 41.664H318.244V45H317.164V36.432H319.432ZM319.336 37.356H318.244V40.74H319.108C319.924 40.74 320.532 40.608 320.932 40.344C321.332 40.08 321.532 39.632 321.532 39C321.532 38.448 321.352 38.036 320.992 37.764C320.64 37.492 320.088 37.356 319.336 37.356ZM325.342 45H324.286V35.88H325.342V45ZM329.815 38.46C330.599 38.46 331.179 38.632 331.555 38.976C331.931 39.32 332.119 39.868 332.119 40.62V45H331.351L331.147 44.088H331.099C330.819 44.44 330.523 44.7 330.211 44.868C329.899 45.036 329.475 45.12 328.939 45.12C328.355 45.12 327.871 44.968 327.487 44.664C327.103 44.352 326.911 43.868 326.911 43.212C326.911 42.572 327.163 42.08 327.667 41.736C328.171 41.384 328.947 41.192 329.995 41.16L331.087 41.124V40.74C331.087 40.204 330.971 39.832 330.739 39.624C330.507 39.416 330.179 39.312 329.755 39.312C329.419 39.312 329.099 39.364 328.795 39.468C328.491 39.564 328.207 39.676 327.943 39.804L327.619 39.012C327.899 38.86 328.231 38.732 328.615 38.628C328.999 38.516 329.399 38.46 329.815 38.46ZM331.075 41.856L330.127 41.892C329.327 41.924 328.771 42.052 328.459 42.276C328.155 42.5 328.003 42.816 328.003 43.224C328.003 43.584 328.111 43.848 328.327 44.016C328.551 44.184 328.835 44.268 329.179 44.268C329.715 44.268 330.163 44.12 330.523 43.824C330.891 43.52 331.075 43.056 331.075 42.432V41.856ZM337.202 38.448C337.97 38.448 338.55 38.636 338.942 39.012C339.334 39.388 339.53 39.988 339.53 40.812V45H338.486V40.884C338.486 39.852 338.006 39.336 337.046 39.336C336.334 39.336 335.842 39.536 335.57 39.936C335.298 40.336 335.162 40.912 335.162 41.664V45H334.106V38.568H334.958L335.114 39.444H335.174C335.382 39.108 335.67 38.86 336.038 38.7C336.406 38.532 336.794 38.448 337.202 38.448ZM344.008 38.448C344.552 38.448 345.024 38.568 345.424 38.808C345.824 39.048 346.128 39.388 346.336 39.828C346.552 40.26 346.66 40.768 346.66 41.352V41.988H342.256C342.272 42.716 342.456 43.272 342.808 43.656C343.168 44.032 343.668 44.22 344.308 44.22C344.716 44.22 345.076 44.184 345.388 44.112C345.708 44.032 346.036 43.92 346.372 43.776V44.7C346.044 44.844 345.72 44.948 345.4 45.012C345.08 45.084 344.7 45.12 344.26 45.12C343.644 45.12 343.104 44.996 342.64 44.748C342.176 44.5 341.812 44.132 341.548 43.644C341.292 43.156 341.164 42.552 341.164 41.832C341.164 41.128 341.28 40.524 341.512 40.02C341.752 39.516 342.084 39.128 342.508 38.856C342.94 38.584 343.44 38.448 344.008 38.448ZM343.996 39.312C343.492 39.312 343.092 39.476 342.796 39.804C342.508 40.124 342.336 40.572 342.28 41.148H345.556C345.548 40.604 345.42 40.164 345.172 39.828C344.924 39.484 344.532 39.312 343.996 39.312ZM350.445 44.256C350.605 44.256 350.769 44.244 350.937 44.22C351.105 44.196 351.241 44.164 351.345 44.124V44.928C351.233 44.984 351.073 45.028 350.865 45.06C350.657 45.1 350.457 45.12 350.265 45.12C349.929 45.12 349.617 45.064 349.329 44.952C349.049 44.832 348.821 44.628 348.645 44.34C348.469 44.052 348.381 43.648 348.381 43.128V39.384H347.469V38.88L348.393 38.46L348.813 37.092H349.437V38.568H351.297V39.384H349.437V43.104C349.437 43.496 349.529 43.788 349.713 43.98C349.905 44.164 350.149 44.256 350.445 44.256ZM356.821 43.224C356.821 43.848 356.589 44.32 356.125 44.64C355.661 44.96 355.037 45.12 354.253 45.12C353.805 45.12 353.417 45.084 353.089 45.012C352.769 44.94 352.485 44.84 352.237 44.712V43.752C352.493 43.88 352.801 44 353.161 44.112C353.529 44.216 353.901 44.268 354.277 44.268C354.813 44.268 355.201 44.184 355.441 44.016C355.681 43.84 355.801 43.608 355.801 43.32C355.801 43.16 355.757 43.016 355.669 42.888C355.581 42.76 355.421 42.632 355.189 42.504C354.965 42.376 354.641 42.232 354.217 42.072C353.801 41.912 353.445 41.752 353.149 41.592C352.853 41.432 352.625 41.24 352.465 41.016C352.305 40.792 352.225 40.504 352.225 40.152C352.225 39.608 352.445 39.188 352.885 38.892C353.333 38.596 353.917 38.448 354.637 38.448C355.029 38.448 355.393 38.488 355.729 38.568C356.073 38.648 356.393 38.752 356.689 38.88L356.329 39.72C356.057 39.608 355.773 39.512 355.477 39.432C355.181 39.352 354.877 39.312 354.565 39.312C354.133 39.312 353.801 39.384 353.569 39.528C353.345 39.664 353.233 39.852 353.233 40.092C353.233 40.276 353.285 40.428 353.389 40.548C353.493 40.668 353.665 40.788 353.905 40.908C354.153 41.028 354.481 41.164 354.889 41.316C355.297 41.468 355.645 41.624 355.933 41.784C356.221 41.944 356.441 42.14 356.593 42.372C356.745 42.596 356.821 42.88 356.821 43.224Z" fill="#323232"/>
<rect x="317" y="53" width="318" height="62" rx="1" fill="white"/>
<path d="M621.613 87.3625C621.512 87.3625 621.413 87.3125 621.363 87.2625L616.012 81.9125L610.662 87.2625C610.512 87.4125 610.263 87.4125 610.113 87.2625C609.962 87.1125 609.962 86.8625 610.113 86.7125L615.712 81.1125C615.862 80.9625 616.112 80.9625 616.262 81.1125L621.863 86.7125C622.012 86.8625 622.012 87.1125 621.863 87.2625C621.812 87.3125 621.713 87.3625 621.613 87.3625Z" fill="#323232"/>
<rect x="317" y="53" width="318" height="62" rx="1" stroke="#1B77AF" stroke-width="2"/>
<rect x="324.5" y="58.5" width="82" height="23" rx="3.5" fill="#F1F1F1"/>
<path d="M336.944 75L334.124 67.488H334.076C334.1 67.736 334.12 68.072 334.136 68.496C334.152 68.912 334.16 69.348 334.16 69.804V75H333.164V66.432H334.76L337.4 73.452H337.448L340.136 66.432H341.72V75H340.652V69.732C340.652 69.316 340.66 68.904 340.676 68.496C340.7 68.088 340.72 67.756 340.736 67.5H340.688L337.832 75H336.944ZM346.391 68.448C346.935 68.448 347.407 68.568 347.807 68.808C348.207 69.048 348.511 69.388 348.719 69.828C348.935 70.26 349.043 70.768 349.043 71.352V71.988H344.639C344.655 72.716 344.839 73.272 345.191 73.656C345.551 74.032 346.051 74.22 346.691 74.22C347.099 74.22 347.459 74.184 347.771 74.112C348.091 74.032 348.419 73.92 348.755 73.776V74.7C348.427 74.844 348.103 74.948 347.783 75.012C347.463 75.084 347.083 75.12 346.643 75.12C346.027 75.12 345.487 74.996 345.023 74.748C344.559 74.5 344.195 74.132 343.931 73.644C343.675 73.156 343.547 72.552 343.547 71.832C343.547 71.128 343.663 70.524 343.895 70.02C344.135 69.516 344.467 69.128 344.891 68.856C345.323 68.584 345.823 68.448 346.391 68.448ZM346.379 69.312C345.875 69.312 345.475 69.476 345.179 69.804C344.891 70.124 344.719 70.572 344.663 71.148H347.939C347.931 70.604 347.803 70.164 347.555 69.828C347.307 69.484 346.915 69.312 346.379 69.312ZM353.68 68.448C353.8 68.448 353.928 68.456 354.064 68.472C354.2 68.48 354.324 68.496 354.436 68.52L354.304 69.492C354.2 69.468 354.084 69.448 353.956 69.432C353.828 69.416 353.712 69.408 353.608 69.408C353.28 69.408 352.972 69.5 352.684 69.684C352.396 69.86 352.164 70.112 351.988 70.44C351.82 70.76 351.736 71.136 351.736 71.568V75H350.68V68.568H351.544L351.664 69.744H351.712C351.912 69.392 352.176 69.088 352.504 68.832C352.84 68.576 353.232 68.448 353.68 68.448ZM357.983 75.12C357.407 75.12 356.899 75.004 356.459 74.772C356.019 74.54 355.671 74.18 355.415 73.692C355.167 73.204 355.043 72.58 355.043 71.82C355.043 71.028 355.171 70.384 355.427 69.888C355.691 69.392 356.051 69.028 356.507 68.796C356.963 68.564 357.479 68.448 358.055 68.448C358.375 68.448 358.687 68.484 358.991 68.556C359.303 68.62 359.555 68.7 359.747 68.796L359.423 69.672C359.231 69.6 359.007 69.532 358.751 69.468C358.495 69.404 358.255 69.372 358.031 69.372C356.767 69.372 356.135 70.184 356.135 71.808C356.135 72.584 356.287 73.18 356.591 73.596C356.903 74.004 357.363 74.208 357.971 74.208C358.315 74.208 358.623 74.172 358.895 74.1C359.167 74.028 359.415 73.94 359.639 73.836V74.772C359.423 74.884 359.183 74.968 358.919 75.024C358.663 75.088 358.351 75.12 357.983 75.12ZM366.544 68.568V75H365.68L365.524 74.148H365.476C365.268 74.484 364.98 74.732 364.612 74.892C364.244 75.044 363.852 75.12 363.436 75.12C362.66 75.12 362.076 74.936 361.684 74.568C361.292 74.192 361.096 73.596 361.096 72.78V68.568H362.164V72.708C362.164 73.732 362.64 74.244 363.592 74.244C364.304 74.244 364.796 74.044 365.068 73.644C365.348 73.244 365.488 72.668 365.488 71.916V68.568H366.544ZM371.586 68.448C371.706 68.448 371.834 68.456 371.97 68.472C372.106 68.48 372.23 68.496 372.342 68.52L372.21 69.492C372.106 69.468 371.99 69.448 371.862 69.432C371.734 69.416 371.618 69.408 371.514 69.408C371.186 69.408 370.878 69.5 370.59 69.684C370.302 69.86 370.07 70.112 369.894 70.44C369.726 70.76 369.642 71.136 369.642 71.568V75H368.586V68.568H369.45L369.57 69.744H369.618C369.818 69.392 370.082 69.088 370.41 68.832C370.746 68.576 371.138 68.448 371.586 68.448ZM372.535 68.568H373.663L375.055 72.228C375.175 72.556 375.283 72.864 375.379 73.152C375.475 73.44 375.547 73.716 375.595 73.98H375.643C375.691 73.78 375.767 73.52 375.871 73.2C375.975 72.872 376.083 72.544 376.195 72.216L377.503 68.568H378.643L375.871 75.888C375.639 76.496 375.347 76.98 374.995 77.34C374.643 77.7 374.155 77.88 373.531 77.88C373.339 77.88 373.171 77.868 373.027 77.844C372.883 77.828 372.759 77.808 372.655 77.784V76.944C372.743 76.96 372.847 76.976 372.967 76.992C373.095 77.008 373.227 77.016 373.363 77.016C373.731 77.016 374.027 76.912 374.251 76.704C374.475 76.496 374.655 76.22 374.791 75.876L375.127 75.024L372.535 68.568Z" fill="black"/>
<path d="M391.513 70.0125L394.863 66.6625C395.013 66.5125 395.013 66.2625 394.863 66.1125C394.713 65.9625 394.463 65.9625 394.313 66.1125L391.013 69.4625L387.663 66.1125C387.513 65.9625 387.263 65.9625 387.113 66.1125C386.962 66.2625 386.962 66.5125 387.113 66.6625L390.463 70.0125L387.113 73.3625C386.962 73.5125 386.962 73.7625 387.113 73.9125C387.163 73.9625 387.263 74.0125 387.363 74.0125C387.463 74.0125 387.563 73.9625 387.613 73.9125L391.013 70.5125L394.363 73.8625C394.413 73.9125 394.513 73.9625 394.613 73.9625C394.713 73.9625 394.813 73.9125 394.863 73.8625C395.013 73.7125 395.013 73.4625 394.863 73.3125L391.513 70.0125Z" fill="#5E5E5E"/>
<rect x="324.5" y="58.5" width="82" height="23" rx="3.5" stroke="#939393"/>
<rect x="411.5" y="58.5" width="73" height="23" rx="3.5" fill="#F1F1F1"/>
<path d="M425.024 72.708C425.024 73.468 424.748 74.06 424.196 74.484C423.644 74.908 422.9 75.12 421.964 75.12C421.484 75.12 421.04 75.084 420.632 75.012C420.224 74.94 419.884 74.84 419.612 74.712V73.68C419.9 73.808 420.256 73.924 420.68 74.028C421.112 74.132 421.556 74.184 422.012 74.184C422.644 74.184 423.124 74.06 423.452 73.812C423.78 73.564 423.944 73.228 423.944 72.804C423.944 72.524 423.884 72.288 423.764 72.096C423.644 71.904 423.436 71.728 423.14 71.568C422.844 71.408 422.44 71.232 421.928 71.04C421.192 70.776 420.64 70.452 420.272 70.068C419.904 69.684 419.72 69.16 419.72 68.496C419.72 68.048 419.836 67.66 420.068 67.332C420.3 67.004 420.62 66.752 421.028 66.576C421.436 66.4 421.912 66.312 422.456 66.312C422.92 66.312 423.348 66.356 423.74 66.444C424.132 66.532 424.492 66.648 424.82 66.792L424.484 67.716C424.188 67.588 423.864 67.48 423.512 67.392C423.16 67.304 422.8 67.26 422.432 67.26C421.896 67.26 421.492 67.376 421.22 67.608C420.948 67.832 420.812 68.132 420.812 68.508C420.812 68.796 420.872 69.036 420.992 69.228C421.112 69.42 421.308 69.596 421.58 69.756C421.852 69.908 422.22 70.068 422.684 70.236C423.188 70.42 423.612 70.62 423.956 70.836C424.308 71.044 424.572 71.296 424.748 71.592C424.932 71.888 425.024 72.26 425.024 72.708ZM429.042 68.46C429.826 68.46 430.406 68.632 430.782 68.976C431.158 69.32 431.346 69.868 431.346 70.62V75H430.578L430.374 74.088H430.326C430.046 74.44 429.75 74.7 429.438 74.868C429.126 75.036 428.702 75.12 428.166 75.12C427.582 75.12 427.098 74.968 426.714 74.664C426.33 74.352 426.138 73.868 426.138 73.212C426.138 72.572 426.39 72.08 426.894 71.736C427.398 71.384 428.174 71.192 429.222 71.16L430.314 71.124V70.74C430.314 70.204 430.198 69.832 429.966 69.624C429.734 69.416 429.406 69.312 428.982 69.312C428.646 69.312 428.326 69.364 428.022 69.468C427.718 69.564 427.434 69.676 427.17 69.804L426.846 69.012C427.126 68.86 427.458 68.732 427.842 68.628C428.226 68.516 428.626 68.46 429.042 68.46ZM430.302 71.856L429.354 71.892C428.554 71.924 427.998 72.052 427.686 72.276C427.382 72.5 427.23 72.816 427.23 73.224C427.23 73.584 427.338 73.848 427.554 74.016C427.778 74.184 428.062 74.268 428.406 74.268C428.942 74.268 429.39 74.12 429.75 73.824C430.118 73.52 430.302 73.056 430.302 72.432V71.856ZM435.48 74.256C435.641 74.256 435.805 74.244 435.973 74.22C436.141 74.196 436.277 74.164 436.381 74.124V74.928C436.269 74.984 436.109 75.028 435.901 75.06C435.693 75.1 435.493 75.12 435.301 75.12C434.965 75.12 434.653 75.064 434.365 74.952C434.085 74.832 433.857 74.628 433.681 74.34C433.505 74.052 433.417 73.648 433.417 73.128V69.384H432.505V68.88L433.429 68.46L433.849 67.092H434.473V68.568H436.333V69.384H434.473V73.104C434.473 73.496 434.565 73.788 434.749 73.98C434.941 74.164 435.185 74.256 435.48 74.256ZM443.044 68.568V75H442.18L442.024 74.148H441.976C441.768 74.484 441.48 74.732 441.112 74.892C440.744 75.044 440.352 75.12 439.936 75.12C439.16 75.12 438.576 74.936 438.184 74.568C437.792 74.192 437.596 73.596 437.596 72.78V68.568H438.664V72.708C438.664 73.732 439.14 74.244 440.092 74.244C440.804 74.244 441.296 74.044 441.568 73.644C441.848 73.244 441.988 72.668 441.988 71.916V68.568H443.044ZM448.086 68.448C448.206 68.448 448.334 68.456 448.47 68.472C448.606 68.48 448.73 68.496 448.842 68.52L448.71 69.492C448.606 69.468 448.49 69.448 448.362 69.432C448.234 69.416 448.118 69.408 448.014 69.408C447.686 69.408 447.378 69.5 447.09 69.684C446.802 69.86 446.57 70.112 446.394 70.44C446.226 70.76 446.142 71.136 446.142 71.568V75H445.086V68.568H445.95L446.07 69.744H446.118C446.318 69.392 446.582 69.088 446.91 68.832C447.246 68.576 447.638 68.448 448.086 68.448ZM453.139 68.448C453.907 68.448 454.487 68.636 454.879 69.012C455.271 69.388 455.467 69.988 455.467 70.812V75H454.423V70.884C454.423 69.852 453.943 69.336 452.983 69.336C452.271 69.336 451.779 69.536 451.507 69.936C451.235 70.336 451.099 70.912 451.099 71.664V75H450.043V68.568H450.895L451.051 69.444H451.111C451.319 69.108 451.607 68.86 451.975 68.7C452.343 68.532 452.731 68.448 453.139 68.448Z" fill="black"/>
<path d="M469.513 70.0125L472.863 66.6625C473.013 66.5125 473.013 66.2625 472.863 66.1125C472.713 65.9625 472.463 65.9625 472.313 66.1125L469.013 69.4625L465.663 66.1125C465.513 65.9625 465.263 65.9625 465.113 66.1125C464.962 66.2625 464.962 66.5125 465.113 66.6625L468.463 70.0125L465.113 73.3625C464.962 73.5125 464.962 73.7625 465.113 73.9125C465.163 73.9625 465.263 74.0125 465.363 74.0125C465.463 74.0125 465.563 73.9625 465.613 73.9125L469.013 70.5125L472.363 73.8625C472.413 73.9125 472.513 73.9625 472.613 73.9625C472.713 73.9625 472.813 73.9125 472.863 73.8625C473.013 73.7125 473.013 73.4625 472.863 73.3125L469.513 70.0125Z" fill="#5E5E5E"/>
<rect x="411.5" y="58.5" width="73" height="23" rx="3.5" stroke="#939393"/>
<rect x="489.5" y="58.5" width="76" height="23" rx="3.5" fill="#F1F1F1"/>
<path d="M504.68 66.432V71.976C504.68 72.568 504.56 73.104 504.32 73.584C504.08 74.056 503.712 74.432 503.216 74.712C502.72 74.984 502.096 75.12 501.344 75.12C500.272 75.12 499.46 74.832 498.908 74.256C498.356 73.672 498.08 72.904 498.08 71.952V66.432H499.16V71.988C499.16 72.684 499.344 73.224 499.712 73.608C500.088 73.992 500.652 74.184 501.404 74.184C502.18 74.184 502.74 73.98 503.084 73.572C503.436 73.156 503.612 72.624 503.612 71.976V66.432H504.68ZM509.797 68.448C509.917 68.448 510.045 68.456 510.181 68.472C510.317 68.48 510.441 68.496 510.553 68.52L510.421 69.492C510.317 69.468 510.201 69.448 510.073 69.432C509.945 69.416 509.829 69.408 509.725 69.408C509.397 69.408 509.089 69.5 508.801 69.684C508.513 69.86 508.281 70.112 508.105 70.44C507.937 70.76 507.853 71.136 507.853 71.568V75H506.797V68.568H507.661L507.781 69.744H507.829C508.029 69.392 508.293 69.088 508.621 68.832C508.957 68.576 509.349 68.448 509.797 68.448ZM513.956 68.46C514.74 68.46 515.32 68.632 515.696 68.976C516.072 69.32 516.26 69.868 516.26 70.62V75H515.492L515.288 74.088H515.24C514.96 74.44 514.664 74.7 514.352 74.868C514.04 75.036 513.616 75.12 513.08 75.12C512.496 75.12 512.012 74.968 511.628 74.664C511.244 74.352 511.052 73.868 511.052 73.212C511.052 72.572 511.304 72.08 511.808 71.736C512.312 71.384 513.088 71.192 514.136 71.16L515.228 71.124V70.74C515.228 70.204 515.112 69.832 514.88 69.624C514.648 69.416 514.32 69.312 513.896 69.312C513.56 69.312 513.24 69.364 512.936 69.468C512.632 69.564 512.348 69.676 512.084 69.804L511.76 69.012C512.04 68.86 512.372 68.732 512.756 68.628C513.14 68.516 513.54 68.46 513.956 68.46ZM515.216 71.856L514.268 71.892C513.468 71.924 512.912 72.052 512.6 72.276C512.296 72.5 512.144 72.816 512.144 73.224C512.144 73.584 512.252 73.848 512.468 74.016C512.692 74.184 512.976 74.268 513.32 74.268C513.856 74.268 514.304 74.12 514.664 73.824C515.032 73.52 515.216 73.056 515.216 72.432V71.856ZM521.343 68.448C522.111 68.448 522.691 68.636 523.083 69.012C523.475 69.388 523.671 69.988 523.671 70.812V75H522.627V70.884C522.627 69.852 522.147 69.336 521.187 69.336C520.475 69.336 519.983 69.536 519.711 69.936C519.439 70.336 519.303 70.912 519.303 71.664V75H518.247V68.568H519.099L519.255 69.444H519.315C519.523 69.108 519.811 68.86 520.179 68.7C520.547 68.532 520.935 68.448 521.343 68.448ZM531.041 68.568V75H530.177L530.021 74.148H529.973C529.765 74.484 529.477 74.732 529.109 74.892C528.741 75.044 528.349 75.12 527.933 75.12C527.157 75.12 526.573 74.936 526.181 74.568C525.789 74.192 525.593 73.596 525.593 72.78V68.568H526.661V72.708C526.661 73.732 527.137 74.244 528.089 74.244C528.801 74.244 529.293 74.044 529.565 73.644C529.845 73.244 529.985 72.668 529.985 71.916V68.568H531.041ZM537.271 73.224C537.271 73.848 537.039 74.32 536.575 74.64C536.111 74.96 535.487 75.12 534.703 75.12C534.255 75.12 533.867 75.084 533.539 75.012C533.219 74.94 532.935 74.84 532.687 74.712V73.752C532.943 73.88 533.251 74 533.611 74.112C533.979 74.216 534.351 74.268 534.727 74.268C535.263 74.268 535.651 74.184 535.891 74.016C536.131 73.84 536.251 73.608 536.251 73.32C536.251 73.16 536.207 73.016 536.119 72.888C536.031 72.76 535.871 72.632 535.639 72.504C535.415 72.376 535.091 72.232 534.667 72.072C534.251 71.912 533.895 71.752 533.599 71.592C533.303 71.432 533.075 71.24 532.915 71.016C532.755 70.792 532.675 70.504 532.675 70.152C532.675 69.608 532.895 69.188 533.335 68.892C533.783 68.596 534.367 68.448 535.087 68.448C535.479 68.448 535.843 68.488 536.179 68.568C536.523 68.648 536.843 68.752 537.139 68.88L536.779 69.72C536.507 69.608 536.223 69.512 535.927 69.432C535.631 69.352 535.327 69.312 535.015 69.312C534.583 69.312 534.251 69.384 534.019 69.528C533.795 69.664 533.683 69.852 533.683 70.092C533.683 70.276 533.735 70.428 533.839 70.548C533.943 70.668 534.115 70.788 534.355 70.908C534.603 71.028 534.931 71.164 535.339 71.316C535.747 71.468 536.095 71.624 536.383 71.784C536.671 71.944 536.891 72.14 537.043 72.372C537.195 72.596 537.271 72.88 537.271 73.224Z" fill="black"/>
<path d="M550.513 70.0125L553.863 66.6625C554.013 66.5125 554.013 66.2625 553.863 66.1125C553.713 65.9625 553.463 65.9625 553.313 66.1125L550.013 69.4625L546.663 66.1125C546.513 65.9625 546.263 65.9625 546.113 66.1125C545.962 66.2625 545.962 66.5125 546.113 66.6625L549.463 70.0125L546.113 73.3625C545.962 73.5125 545.962 73.7625 546.113 73.9125C546.163 73.9625 546.263 74.0125 546.363 74.0125C546.463 74.0125 546.563 73.9625 546.613 73.9125L550.013 70.5125L553.363 73.8625C553.413 73.9125 553.513 73.9625 553.613 73.9625C553.713 73.9625 553.813 73.9125 553.863 73.8625C554.013 73.7125 554.013 73.4625 553.863 73.3125L550.513 70.0125Z" fill="#5E5E5E"/>
<rect x="489.5" y="58.5" width="76" height="23" rx="3.5" stroke="#939393"/>
<rect x="324.5" y="86.5" width="85" height="23" rx="3.5" fill="#F1F1F1"/>
<path d="M339.956 103H338.696L334.112 95.884H334.064C334.08 96.164 334.1 96.512 334.124 96.928C334.148 97.344 334.16 97.772 334.16 98.212V103H333.164V94.432H334.412L338.984 101.524H339.032C339.024 101.396 339.012 101.204 338.996 100.948C338.988 100.692 338.976 100.416 338.96 100.12C338.952 99.816 338.948 99.532 338.948 99.268V94.432H339.956V103ZM344.621 96.448C345.165 96.448 345.637 96.568 346.037 96.808C346.437 97.048 346.741 97.388 346.949 97.828C347.165 98.26 347.273 98.768 347.273 99.352V99.988H342.869C342.885 100.716 343.069 101.272 343.421 101.656C343.781 102.032 344.281 102.22 344.921 102.22C345.329 102.22 345.689 102.184 346.001 102.112C346.321 102.032 346.649 101.92 346.985 101.776V102.7C346.657 102.844 346.333 102.948 346.013 103.012C345.693 103.084 345.313 103.12 344.873 103.12C344.257 103.12 343.717 102.996 343.253 102.748C342.789 102.5 342.425 102.132 342.161 101.644C341.905 101.156 341.777 100.552 341.777 99.832C341.777 99.128 341.893 98.524 342.125 98.02C342.365 97.516 342.697 97.128 343.121 96.856C343.553 96.584 344.053 96.448 344.621 96.448ZM344.609 97.312C344.105 97.312 343.705 97.476 343.409 97.804C343.121 98.124 342.949 98.572 342.893 99.148H346.169C346.161 98.604 346.033 98.164 345.785 97.828C345.537 97.484 345.145 97.312 344.609 97.312ZM351.971 96.448C352.763 96.448 353.399 96.724 353.879 97.276C354.367 97.828 354.611 98.66 354.611 99.772C354.611 100.868 354.367 101.7 353.879 102.268C353.399 102.836 352.759 103.12 351.959 103.12C351.463 103.12 351.051 103.028 350.723 102.844C350.403 102.66 350.151 102.44 349.967 102.184H349.895C349.903 102.32 349.915 102.492 349.931 102.7C349.955 102.908 349.967 103.088 349.967 103.24V105.88H348.911V96.568H349.775L349.919 97.444H349.967C350.159 97.164 350.411 96.928 350.723 96.736C351.035 96.544 351.451 96.448 351.971 96.448ZM351.779 97.336C351.123 97.336 350.659 97.52 350.387 97.888C350.115 98.256 349.975 98.816 349.967 99.568V99.772C349.967 100.564 350.095 101.176 350.351 101.608C350.615 102.032 351.099 102.244 351.803 102.244C352.187 102.244 352.507 102.14 352.763 101.932C353.019 101.716 353.207 101.42 353.327 101.044C353.455 100.668 353.519 100.24 353.519 99.76C353.519 99.024 353.375 98.436 353.087 97.996C352.807 97.556 352.371 97.336 351.779 97.336ZM358.441 102.256C358.601 102.256 358.765 102.244 358.933 102.22C359.101 102.196 359.237 102.164 359.341 102.124V102.928C359.229 102.984 359.069 103.028 358.861 103.06C358.653 103.1 358.453 103.12 358.261 103.12C357.925 103.12 357.613 103.064 357.325 102.952C357.045 102.832 356.817 102.628 356.641 102.34C356.465 102.052 356.377 101.648 356.377 101.128V97.384H355.465V96.88L356.389 96.46L356.809 95.092H357.433V96.568H359.293V97.384H357.433V101.104C357.433 101.496 357.525 101.788 357.709 101.98C357.901 102.164 358.145 102.256 358.441 102.256ZM366.005 96.568V103H365.141L364.985 102.148H364.937C364.729 102.484 364.441 102.732 364.073 102.892C363.705 103.044 363.313 103.12 362.897 103.12C362.121 103.12 361.537 102.936 361.145 102.568C360.753 102.192 360.557 101.596 360.557 100.78V96.568H361.625V100.708C361.625 101.732 362.101 102.244 363.053 102.244C363.765 102.244 364.257 102.044 364.529 101.644C364.809 101.244 364.949 100.668 364.949 99.916V96.568H366.005ZM371.143 96.448C371.911 96.448 372.491 96.636 372.883 97.012C373.275 97.388 373.471 97.988 373.471 98.812V103H372.427V98.884C372.427 97.852 371.947 97.336 370.987 97.336C370.275 97.336 369.783 97.536 369.511 97.936C369.239 98.336 369.103 98.912 369.103 99.664V103H368.047V96.568H368.899L369.055 97.444H369.115C369.323 97.108 369.611 96.86 369.979 96.7C370.347 96.532 370.735 96.448 371.143 96.448ZM377.949 96.448C378.493 96.448 378.965 96.568 379.365 96.808C379.765 97.048 380.069 97.388 380.277 97.828C380.493 98.26 380.601 98.768 380.601 99.352V99.988H376.197C376.213 100.716 376.397 101.272 376.749 101.656C377.109 102.032 377.609 102.22 378.249 102.22C378.657 102.22 379.017 102.184 379.329 102.112C379.649 102.032 379.977 101.92 380.313 101.776V102.7C379.985 102.844 379.661 102.948 379.341 103.012C379.021 103.084 378.641 103.12 378.201 103.12C377.585 103.12 377.045 102.996 376.581 102.748C376.117 102.5 375.753 102.132 375.489 101.644C375.233 101.156 375.105 100.552 375.105 99.832C375.105 99.128 375.221 98.524 375.453 98.02C375.693 97.516 376.025 97.128 376.449 96.856C376.881 96.584 377.381 96.448 377.949 96.448ZM377.937 97.312C377.433 97.312 377.033 97.476 376.737 97.804C376.449 98.124 376.277 98.572 376.221 99.148H379.497C379.489 98.604 379.361 98.164 379.113 97.828C378.865 97.484 378.473 97.312 377.937 97.312Z" fill="black"/>
<path d="M394.513 98.0125L397.863 94.6625C398.013 94.5125 398.013 94.2625 397.863 94.1125C397.713 93.9625 397.463 93.9625 397.313 94.1125L394.013 97.4625L390.663 94.1125C390.513 93.9625 390.263 93.9625 390.113 94.1125C389.962 94.2625 389.962 94.5125 390.113 94.6625L393.463 98.0125L390.113 101.362C389.962 101.512 389.962 101.762 390.113 101.912C390.163 101.963 390.263 102.012 390.363 102.012C390.463 102.012 390.563 101.963 390.613 101.912L394.013 98.5125L397.363 101.862C397.413 101.912 397.513 101.962 397.613 101.962C397.713 101.962 397.813 101.912 397.863 101.862C398.013 101.712 398.013 101.463 397.863 101.312L394.513 98.0125Z" fill="#5E5E5E"/>
<rect x="324.5" y="86.5" width="85" height="23" rx="3.5" stroke="#939393"/>
<g filter="url(#filter2_d_9554_627756)">
<mask id="path-50-outside-1_9554_627756" maskUnits="userSpaceOnUse" x="338" y="383" width="16" height="19" fill="black">
<rect fill="white" x="338" y="383" width="16" height="19"/>
<path fill-rule="evenodd" clip-rule="evenodd" d="M342.836 394L341.949 392.645C341.344 391.72 340.054 391.383 339.068 391.89L339.298 391.772C339.053 391.898 338.935 392.211 339.036 392.472L340.263 395.647C340.458 396.151 340.955 396.863 341.367 397.22C341.367 397.22 343.836 399.264 343.836 400.03V401H347.836L348.836 399L349.836 401H350.836V400.03C350.836 399.264 352.344 396.851 352.344 396.851C352.622 396.382 352.854 395.555 352.854 395.007V390.972C352.836 390.078 352.076 389.355 351.139 389.355C350.671 389.355 350.291 389.717 350.291 390.163V390.487C350.291 389.593 349.532 388.869 348.595 388.869C348.126 388.869 347.746 389.231 347.746 389.678V390.001C347.746 389.108 346.987 388.384 346.05 388.384C345.581 388.384 345.201 388.746 345.201 389.193V389.516C345.201 389.373 345.186 389.258 345.157 389.168L344.898 385.001C344.863 384.438 344.388 384 343.836 384C343.279 384 342.836 384.448 342.836 385V389V394ZM349.854 393L350.854 393V397H349.854V393ZM347.854 393L348.854 393V397H347.854V393ZM345.854 393L346.854 393V397H345.854V393Z"/>
</mask>
<path fill-rule="evenodd" clip-rule="evenodd" d="M342.836 394L341.949 392.645C341.344 391.72 340.054 391.383 339.068 391.89L339.298 391.772C339.053 391.898 338.935 392.211 339.036 392.472L340.263 395.647C340.458 396.151 340.955 396.863 341.367 397.22C341.367 397.22 343.836 399.264 343.836 400.03V401H347.836L348.836 399L349.836 401H350.836V400.03C350.836 399.264 352.344 396.851 352.344 396.851C352.622 396.382 352.854 395.555 352.854 395.007V390.972C352.836 390.078 352.076 389.355 351.139 389.355C350.671 389.355 350.291 389.717 350.291 390.163V390.487C350.291 389.593 349.532 388.869 348.595 388.869C348.126 388.869 347.746 389.231 347.746 389.678V390.001C347.746 389.108 346.987 388.384 346.05 388.384C345.581 388.384 345.201 388.746 345.201 389.193V389.516C345.201 389.373 345.186 389.258 345.157 389.168L344.898 385.001C344.863 384.438 344.388 384 343.836 384C343.279 384 342.836 384.448 342.836 385V389V394ZM349.854 393L350.854 393V397H349.854V393ZM347.854 393L348.854 393V397H347.854V393ZM345.854 393L346.854 393V397H345.854V393Z" fill="white"/>
<path d="M342.836 394L341.999 394.548L343.836 397.354V394H342.836ZM341.949 392.645L342.786 392.098L341.949 392.645ZM339.036 392.472L338.103 392.833L339.036 392.472ZM340.263 395.647L341.196 395.287L340.263 395.647ZM341.367 397.22L340.711 397.975L340.72 397.983L340.729 397.991L341.367 397.22ZM343.836 401H342.836V402H343.836V401ZM347.836 401V402H348.454L348.73 401.447L347.836 401ZM348.836 399L349.73 398.553L348.836 396.764L347.941 398.553L348.836 399ZM349.836 401L348.941 401.447L349.218 402H349.836V401ZM350.836 401V402H351.836V401H350.836ZM352.344 396.851L353.192 397.381L353.199 397.371L353.205 397.36L352.344 396.851ZM352.854 390.972H353.854V390.962L353.853 390.952L352.854 390.972ZM345.157 389.168L344.158 389.23L344.166 389.358L344.206 389.479L345.157 389.168ZM344.898 385.001L343.9 385.063V385.063L344.898 385.001ZM342.836 385H341.836H342.836ZM350.854 393H351.854V392H350.854V393ZM350.854 397V398H351.854V397H350.854ZM349.854 397H348.854V398H349.854V397ZM349.854 393V392H348.854V393H349.854ZM348.854 393H349.854V392H348.854V393ZM348.854 397V398H349.854V397H348.854ZM347.854 397H346.854V398H347.854V397ZM347.854 393V392H346.854V393H347.854ZM346.854 393H347.854V392H346.854V393ZM346.854 397V398H347.854V397H346.854ZM345.854 397H344.854V398H345.854V397ZM345.854 393V392H344.854V393H345.854ZM343.672 393.452L342.786 392.098L341.112 393.193L341.999 394.548L343.672 393.452ZM342.786 392.098C341.898 390.742 340.049 390.261 338.61 391.001L339.525 392.779C340.059 392.505 340.789 392.699 341.112 393.193L342.786 392.098ZM339.525 392.779L339.755 392.661L338.84 390.882L338.61 391.001L339.525 392.779ZM338.84 390.882C338.131 391.247 337.822 392.105 338.103 392.833L339.969 392.112C340.014 392.23 340.005 392.34 339.974 392.421C339.944 392.503 339.876 392.599 339.755 392.661L338.84 390.882ZM338.103 392.833L339.331 396.008L341.196 395.287L339.969 392.112L338.103 392.833ZM339.331 396.008C339.583 396.662 340.175 397.51 340.711 397.975L342.022 396.465C341.735 396.216 341.333 395.64 341.196 395.287L339.331 396.008ZM341.367 397.22C340.729 397.991 340.729 397.991 340.729 397.991C340.729 397.991 340.729 397.991 340.729 397.991C340.729 397.991 340.729 397.991 340.729 397.991C340.729 397.991 340.729 397.991 340.73 397.991C340.73 397.992 340.732 397.993 340.734 397.995C340.738 397.998 340.744 398.003 340.752 398.01C340.768 398.024 340.793 398.045 340.825 398.072C340.889 398.126 340.981 398.205 341.092 398.303C341.315 398.499 341.609 398.765 341.9 399.051C342.196 399.342 342.468 399.632 342.659 399.88C342.755 400.004 342.813 400.095 342.843 400.152C342.884 400.23 342.836 400.174 342.836 400.03H344.836C344.836 399.694 344.71 399.407 344.616 399.226C344.511 399.025 344.376 398.831 344.241 398.656C343.969 398.304 343.624 397.941 343.302 397.625C342.976 397.304 342.653 397.012 342.413 396.801C342.292 396.695 342.191 396.608 342.12 396.548C342.085 396.517 342.056 396.494 342.037 396.477C342.027 396.469 342.019 396.462 342.014 396.458C342.011 396.455 342.009 396.454 342.007 396.452C342.006 396.452 342.006 396.451 342.005 396.451C342.005 396.451 342.005 396.45 342.005 396.45C342.005 396.45 342.004 396.45 342.004 396.45C342.004 396.45 342.004 396.45 341.367 397.22ZM342.836 400.03V401H344.836V400.03H342.836ZM343.836 402H347.836V400H343.836V402ZM348.73 401.447L349.73 399.447L347.941 398.553L346.941 400.553L348.73 401.447ZM347.941 399.447L348.941 401.447L350.73 400.553L349.73 398.553L347.941 399.447ZM349.836 402H350.836V400H349.836V402ZM351.836 401V400.03H349.836V401H351.836ZM351.836 400.03C351.836 400.066 351.846 399.944 351.992 399.6C352.116 399.307 352.288 398.965 352.47 398.628C352.65 398.294 352.831 397.981 352.968 397.75C353.037 397.635 353.093 397.542 353.133 397.477C353.152 397.445 353.168 397.421 353.178 397.404C353.183 397.396 353.187 397.39 353.189 397.386C353.19 397.384 353.191 397.382 353.192 397.382C353.192 397.381 353.192 397.381 353.192 397.381C353.192 397.381 353.192 397.381 353.192 397.381C353.192 397.381 353.192 397.381 353.192 397.381C353.192 397.381 353.192 397.381 352.344 396.851C351.496 396.321 351.496 396.321 351.496 396.321C351.496 396.321 351.496 396.321 351.496 396.321C351.496 396.321 351.496 396.321 351.496 396.321C351.496 396.322 351.495 396.322 351.495 396.323C351.494 396.325 351.493 396.327 351.491 396.329C351.488 396.335 351.483 396.342 351.477 396.352C351.465 396.371 351.448 396.399 351.426 396.434C351.383 396.505 351.322 396.606 351.249 396.729C351.103 396.975 350.907 397.313 350.71 397.678C350.515 398.04 350.309 398.445 350.15 398.82C350.013 399.144 349.836 399.611 349.836 400.03H351.836ZM353.205 397.36C353.403 397.026 353.559 396.613 353.667 396.226C353.774 395.839 353.854 395.401 353.854 395.007H351.854C351.854 395.161 351.817 395.41 351.74 395.691C351.662 395.971 351.564 396.206 351.484 396.341L353.205 397.36ZM353.854 395.007V390.972H351.854V395.007H353.854ZM353.853 390.952C353.824 389.482 352.588 388.355 351.139 388.355V390.355C351.565 390.355 351.847 390.675 351.854 390.992L353.853 390.952ZM351.139 388.355C350.164 388.355 349.291 389.12 349.291 390.163H351.291C351.291 390.232 351.26 390.286 351.229 390.315C351.199 390.344 351.165 390.355 351.139 390.355V388.355ZM349.291 390.163V390.487H351.291V390.163H349.291ZM351.291 390.487C351.291 388.997 350.038 387.869 348.595 387.869V389.869C349.025 389.869 349.291 390.19 349.291 390.487H351.291ZM348.595 387.869C347.619 387.869 346.746 388.635 346.746 389.678H348.746C348.746 389.746 348.715 389.801 348.685 389.83C348.655 389.859 348.621 389.869 348.595 389.869V387.869ZM346.746 389.678V390.001H348.746V389.678H346.746ZM348.746 390.001C348.746 388.511 347.494 387.384 346.05 387.384V389.384C346.48 389.384 346.746 389.705 346.746 390.001H348.746ZM346.05 387.384C345.074 387.384 344.201 388.149 344.201 389.193H346.201C346.201 389.261 346.171 389.315 346.14 389.345C346.11 389.373 346.076 389.384 346.05 389.384V387.384ZM344.201 389.193V389.516H346.201V389.193H344.201ZM346.201 389.516C346.201 389.309 346.18 389.081 346.107 388.857L344.206 389.479C344.198 389.456 344.198 389.444 344.199 389.452C344.199 389.459 344.201 389.479 344.201 389.516H346.201ZM346.155 389.106L345.896 384.939L343.9 385.063L344.158 389.23L346.155 389.106ZM345.896 384.939C345.828 383.845 344.912 383 343.836 383V385C343.844 385 343.86 385.003 343.877 385.019C343.893 385.034 343.899 385.05 343.9 385.063L345.896 384.939ZM343.836 383C342.725 383 341.836 383.898 341.836 385H343.836V385V383ZM341.836 385V389H343.836V385H341.836ZM341.836 389V394H343.836V389H341.836ZM349.854 394H350.854V392H349.854V394ZM349.854 393V397H351.854V393H349.854ZM350.854 396H349.854V398H350.854V396ZM350.854 397V393H348.854V397H350.854ZM347.854 394H348.854V392H347.854V394ZM347.854 393V397H349.854V393H347.854ZM348.854 396H347.854V398H348.854V396ZM348.854 397V393H346.854V397H348.854ZM345.854 394H346.854V392H345.854V394ZM345.854 393V397H347.854V393H345.854ZM346.854 396H345.854V398H346.854V396ZM346.854 397V393H344.854V397H346.854Z" fill="black" fill-opacity="0.8" mask="url(#path-50-outside-1_9554_627756)"/>
</g>
</g>
</g>
<defs>
<filter id="filter0_d_9554_627756" x="120" y="-4" width="712" height="453" filterUnits="userSpaceOnUse" color-interpolation-filters="sRGB">
<feFlood flood-opacity="0" result="BackgroundImageFix"/>
<feColorMatrix in="SourceAlpha" type="matrix" values="0 0 0 0 0 0 0 0 0 0 0 0 0 0 0 0 0 0 127 0" result="hardAlpha"/>
<feOffset dy="4"/>
<feGaussianBlur stdDeviation="4"/>
<feColorMatrix type="matrix" values="0 0 0 0 0 0 0 0 0 0 0 0 0 0 0 0 0 0 0.25 0"/>
<feBlend mode="normal" in2="BackgroundImageFix" result="effect1_dropShadow_9554_627756"/>
<feBlend mode="normal" in="SourceGraphic" in2="effect1_dropShadow_9554_627756" result="shape"/>
</filter>
<filter id="filter1_d_9554_627756" x="311" y="115" width="330" height="298" filterUnits="userSpaceOnUse" color-interpolation-filters="sRGB">
<feFlood flood-opacity="0" result="BackgroundImageFix"/>
<feColorMatrix in="SourceAlpha" type="matrix" values="0 0 0 0 0 0 0 0 0 0 0 0 0 0 0 0 0 0 127 0" result="hardAlpha"/>
<feOffset dy="4"/>
<feGaussianBlur stdDeviation="2"/>
<feColorMatrix type="matrix" values="0 0 0 0 0 0 0 0 0 0 0 0 0 0 0 0 0 0 0.25 0"/>
<feBlend mode="normal" in2="BackgroundImageFix" result="effect1_dropShadow_9554_627756"/>
<feBlend mode="normal" in="SourceGraphic" in2="effect1_dropShadow_9554_627756" result="shape"/>
</filter>
<filter id="filter2_d_9554_627756" x="335" y="381" width="21.8535" height="25" filterUnits="userSpaceOnUse" color-interpolation-filters="sRGB">
<feFlood flood-opacity="0" result="BackgroundImageFix"/>
<feColorMatrix in="SourceAlpha" type="matrix" values="0 0 0 0 0 0 0 0 0 0 0 0 0 0 0 0 0 0 127 0" result="hardAlpha"/>
<feOffset dy="1"/>
<feGaussianBlur stdDeviation="1.5"/>
<feColorMatrix type="matrix" values="0 0 0 0 0 0 0 0 0 0 0 0 0 0 0 0 0 0 0.2 0"/>
<feBlend mode="normal" in2="BackgroundImageFix" result="effect1_dropShadow_9554_627756"/>
<feBlend mode="normal" in="SourceGraphic" in2="effect1_dropShadow_9554_627756" result="shape"/>
</filter>
<clipPath id="clip0_9554_627756">
<rect width="952" height="437" fill="white"/>
</clipPath>
<clipPath id="clip1_9554_627756">
<rect x="316" y="116" width="320" height="288" rx="4" fill="white"/>
</clipPath>
</defs>
</svg>
