<svg width="952" height="431" viewBox="0 0 952 431" fill="none" xmlns="http://www.w3.org/2000/svg">
<g clip-path="url(#clip0_9554_628202)">
<rect width="952" height="431" fill="#F1F1F1"/>
<g filter="url(#filter0_d_9554_628202)">
<rect width="696" height="431" transform="translate(128)" fill="white"/>
<path d="M319.432 55.432C320.552 55.432 321.368 55.652 321.88 56.092C322.392 56.532 322.648 57.152 322.648 57.952C322.648 58.424 322.54 58.868 322.324 59.284C322.116 59.692 321.76 60.024 321.256 60.28C320.76 60.536 320.084 60.664 319.228 60.664H318.244V64H317.164V55.432H319.432ZM319.336 56.356H318.244V59.74H319.108C319.924 59.74 320.532 59.608 320.932 59.344C321.332 59.08 321.532 58.632 321.532 58C321.532 57.448 321.352 57.036 320.992 56.764C320.64 56.492 320.088 56.356 319.336 56.356ZM325.342 64H324.286V54.88H325.342V64ZM329.815 57.46C330.599 57.46 331.179 57.632 331.555 57.976C331.931 58.32 332.119 58.868 332.119 59.62V64H331.351L331.147 63.088H331.099C330.819 63.44 330.523 63.7 330.211 63.868C329.899 64.036 329.475 64.12 328.939 64.12C328.355 64.12 327.871 63.968 327.487 63.664C327.103 63.352 326.911 62.868 326.911 62.212C326.911 61.572 327.163 61.08 327.667 60.736C328.171 60.384 328.947 60.192 329.995 60.16L331.087 60.124V59.74C331.087 59.204 330.971 58.832 330.739 58.624C330.507 58.416 330.179 58.312 329.755 58.312C329.419 58.312 329.099 58.364 328.795 58.468C328.491 58.564 328.207 58.676 327.943 58.804L327.619 58.012C327.899 57.86 328.231 57.732 328.615 57.628C328.999 57.516 329.399 57.46 329.815 57.46ZM331.075 60.856L330.127 60.892C329.327 60.924 328.771 61.052 328.459 61.276C328.155 61.5 328.003 61.816 328.003 62.224C328.003 62.584 328.111 62.848 328.327 63.016C328.551 63.184 328.835 63.268 329.179 63.268C329.715 63.268 330.163 63.12 330.523 62.824C330.891 62.52 331.075 62.056 331.075 61.432V60.856ZM337.202 57.448C337.97 57.448 338.55 57.636 338.942 58.012C339.334 58.388 339.53 58.988 339.53 59.812V64H338.486V59.884C338.486 58.852 338.006 58.336 337.046 58.336C336.334 58.336 335.842 58.536 335.57 58.936C335.298 59.336 335.162 59.912 335.162 60.664V64H334.106V57.568H334.958L335.114 58.444H335.174C335.382 58.108 335.67 57.86 336.038 57.7C336.406 57.532 336.794 57.448 337.202 57.448ZM344.008 57.448C344.552 57.448 345.024 57.568 345.424 57.808C345.824 58.048 346.128 58.388 346.336 58.828C346.552 59.26 346.66 59.768 346.66 60.352V60.988H342.256C342.272 61.716 342.456 62.272 342.808 62.656C343.168 63.032 343.668 63.22 344.308 63.22C344.716 63.22 345.076 63.184 345.388 63.112C345.708 63.032 346.036 62.92 346.372 62.776V63.7C346.044 63.844 345.72 63.948 345.4 64.012C345.08 64.084 344.7 64.12 344.26 64.12C343.644 64.12 343.104 63.996 342.64 63.748C342.176 63.5 341.812 63.132 341.548 62.644C341.292 62.156 341.164 61.552 341.164 60.832C341.164 60.128 341.28 59.524 341.512 59.02C341.752 58.516 342.084 58.128 342.508 57.856C342.94 57.584 343.44 57.448 344.008 57.448ZM343.996 58.312C343.492 58.312 343.092 58.476 342.796 58.804C342.508 59.124 342.336 59.572 342.28 60.148H345.556C345.548 59.604 345.42 59.164 345.172 58.828C344.924 58.484 344.532 58.312 343.996 58.312ZM350.445 63.256C350.605 63.256 350.769 63.244 350.937 63.22C351.105 63.196 351.241 63.164 351.345 63.124V63.928C351.233 63.984 351.073 64.028 350.865 64.06C350.657 64.1 350.457 64.12 350.265 64.12C349.929 64.12 349.617 64.064 349.329 63.952C349.049 63.832 348.821 63.628 348.645 63.34C348.469 63.052 348.381 62.648 348.381 62.128V58.384H347.469V57.88L348.393 57.46L348.813 56.092H349.437V57.568H351.297V58.384H349.437V62.104C349.437 62.496 349.529 62.788 349.713 62.98C349.905 63.164 350.149 63.256 350.445 63.256ZM356.821 62.224C356.821 62.848 356.589 63.32 356.125 63.64C355.661 63.96 355.037 64.12 354.253 64.12C353.805 64.12 353.417 64.084 353.089 64.012C352.769 63.94 352.485 63.84 352.237 63.712V62.752C352.493 62.88 352.801 63 353.161 63.112C353.529 63.216 353.901 63.268 354.277 63.268C354.813 63.268 355.201 63.184 355.441 63.016C355.681 62.84 355.801 62.608 355.801 62.32C355.801 62.16 355.757 62.016 355.669 61.888C355.581 61.76 355.421 61.632 355.189 61.504C354.965 61.376 354.641 61.232 354.217 61.072C353.801 60.912 353.445 60.752 353.149 60.592C352.853 60.432 352.625 60.24 352.465 60.016C352.305 59.792 352.225 59.504 352.225 59.152C352.225 58.608 352.445 58.188 352.885 57.892C353.333 57.596 353.917 57.448 354.637 57.448C355.029 57.448 355.393 57.488 355.729 57.568C356.073 57.648 356.393 57.752 356.689 57.88L356.329 58.72C356.057 58.608 355.773 58.512 355.477 58.432C355.181 58.352 354.877 58.312 354.565 58.312C354.133 58.312 353.801 58.384 353.569 58.528C353.345 58.664 353.233 58.852 353.233 59.092C353.233 59.276 353.285 59.428 353.389 59.548C353.493 59.668 353.665 59.788 353.905 59.908C354.153 60.028 354.481 60.164 354.889 60.316C355.297 60.468 355.645 60.624 355.933 60.784C356.221 60.944 356.441 61.14 356.593 61.372C356.745 61.596 356.821 61.88 356.821 62.224Z" fill="#323232"/>
<rect x="317" y="72" width="318" height="34" rx="1" fill="white"/>
<path d="M621.613 92.3625C621.512 92.3625 621.413 92.3125 621.363 92.2625L616.012 86.9125L610.662 92.2625C610.512 92.4125 610.263 92.4125 610.113 92.2625C609.962 92.1125 609.962 91.8625 610.113 91.7125L615.712 86.1125C615.862 85.9625 616.112 85.9625 616.262 86.1125L621.863 91.7125C622.012 91.8625 622.012 92.1125 621.863 92.2625C621.812 92.3125 621.713 92.3625 621.613 92.3625Z" fill="#323232"/>
<rect x="317" y="72" width="318" height="34" rx="1" stroke="#1B77AF" stroke-width="2"/>
<g filter="url(#filter1_d_9554_628202)">
<g clip-path="url(#clip1_9554_628202)">
<rect x="316" y="107" width="320" height="288" rx="4" fill="white"/>
<rect width="320" height="36" transform="translate(316 107)" fill="#F1F1F1"/>
<rect x="332" y="117" width="16" height="16" rx="4" fill="#1B77AF"/>
<path d="M338.512 130.202C338.412 130.202 338.312 130.152 338.262 130.102L334.113 125.952C333.962 125.802 333.962 125.552 334.113 125.402C334.263 125.252 334.512 125.252 334.662 125.402L338.512 129.252L345.312 120.152C345.413 120.002 345.662 119.952 345.812 120.052C345.963 120.152 346.012 120.402 345.912 120.552L338.812 130.052C338.762 130.152 338.662 130.202 338.512 130.202Z" fill="white"/>
<path d="M361.6 130L358.856 121.81H358.8C358.819 121.997 358.833 122.263 358.842 122.608C358.861 122.944 358.875 123.313 358.884 123.714C358.903 124.106 358.912 124.475 358.912 124.82V130H357.302V120.004H359.794L362.426 127.858H362.482L365.226 120.004H367.718V130H366.01V124.736C366.01 124.419 366.015 124.073 366.024 123.7C366.043 123.317 366.057 122.958 366.066 122.622C366.085 122.277 366.099 122.011 366.108 121.824H366.052L363.196 130H361.6ZM373.188 122.272C374.205 122.272 375.008 122.575 375.596 123.182C376.193 123.789 376.492 124.633 376.492 125.716V126.612H371.48C371.499 127.303 371.69 127.839 372.054 128.222C372.418 128.595 372.922 128.782 373.566 128.782C374.051 128.782 374.49 128.735 374.882 128.642C375.274 128.539 375.675 128.395 376.086 128.208V129.622C375.713 129.799 375.325 129.93 374.924 130.014C374.523 130.098 374.042 130.14 373.482 130.14C372.735 130.14 372.077 130 371.508 129.72C370.939 129.431 370.491 129.001 370.164 128.432C369.847 127.853 369.688 127.13 369.688 126.262C369.688 124.965 370.005 123.975 370.64 123.294C371.284 122.613 372.133 122.272 373.188 122.272ZM373.188 123.574C372.712 123.574 372.325 123.728 372.026 124.036C371.737 124.335 371.569 124.783 371.522 125.38H374.784C374.775 124.857 374.639 124.428 374.378 124.092C374.126 123.747 373.729 123.574 373.188 123.574ZM382.247 122.272C382.368 122.272 382.503 122.281 382.653 122.3C382.802 122.309 382.923 122.323 383.017 122.342L382.863 123.98C382.769 123.961 382.653 123.947 382.513 123.938C382.382 123.919 382.27 123.91 382.177 123.91C381.803 123.91 381.453 123.989 381.127 124.148C380.8 124.297 380.534 124.531 380.329 124.848C380.133 125.165 380.035 125.571 380.035 126.066V130H378.271V122.412H379.629L379.881 123.728H379.965C380.189 123.327 380.497 122.986 380.889 122.706C381.281 122.417 381.733 122.272 382.247 122.272ZM387.216 130.14C386.133 130.14 385.274 129.827 384.64 129.202C384.014 128.577 383.702 127.592 383.702 126.248C383.702 125.315 383.856 124.559 384.164 123.98C384.481 123.392 384.915 122.963 385.466 122.692C386.016 122.412 386.646 122.272 387.356 122.272C387.822 122.272 388.242 122.319 388.616 122.412C388.998 122.505 389.32 122.617 389.582 122.748L389.064 124.134C388.765 124.022 388.471 123.929 388.182 123.854C387.892 123.77 387.617 123.728 387.356 123.728C386.124 123.728 385.508 124.563 385.508 126.234C385.508 127.046 385.662 127.657 385.97 128.068C386.287 128.479 386.74 128.684 387.328 128.684C387.748 128.684 388.121 128.633 388.448 128.53C388.784 128.427 389.096 128.287 389.386 128.11V129.636C389.096 129.813 388.784 129.939 388.448 130.014C388.112 130.098 387.701 130.14 387.216 130.14ZM397.897 122.412V130H396.511L396.273 129.02H396.189C395.947 129.412 395.611 129.697 395.181 129.874C394.752 130.051 394.299 130.14 393.823 130.14C392.974 130.14 392.307 129.921 391.821 129.482C391.345 129.043 391.107 128.339 391.107 127.368V122.412H392.871V127.018C392.871 127.587 392.983 128.012 393.207 128.292C393.431 128.572 393.786 128.712 394.271 128.712C394.981 128.712 395.466 128.488 395.727 128.04C395.998 127.592 396.133 126.953 396.133 126.122V122.412H397.897ZM404.122 122.272C404.243 122.272 404.378 122.281 404.528 122.3C404.677 122.309 404.798 122.323 404.892 122.342L404.738 123.98C404.644 123.961 404.528 123.947 404.388 123.938C404.257 123.919 404.145 123.91 404.052 123.91C403.678 123.91 403.328 123.989 403.002 124.148C402.675 124.297 402.409 124.531 402.204 124.848C402.008 125.165 401.91 125.571 401.91 126.066V130H400.146V122.412H401.504L401.756 123.728H401.84C402.064 123.327 402.372 122.986 402.764 122.706C403.156 122.417 403.608 122.272 404.122 122.272ZM405.164 122.412H407.082L408.594 126.696C408.697 126.967 408.781 127.237 408.846 127.508C408.911 127.769 408.958 128.031 408.986 128.292H409.042C409.079 128.049 409.135 127.793 409.21 127.522C409.285 127.242 409.369 126.967 409.462 126.696L410.918 122.412H412.822L409.588 131.008C409.299 131.764 408.902 132.343 408.398 132.744C407.903 133.155 407.292 133.36 406.564 133.36C406.331 133.36 406.125 133.346 405.948 133.318C405.78 133.299 405.635 133.276 405.514 133.248V131.848C405.617 131.867 405.738 131.885 405.878 131.904C406.027 131.923 406.181 131.932 406.34 131.932C406.769 131.932 407.115 131.801 407.376 131.54C407.637 131.288 407.838 130.971 407.978 130.588L408.202 129.972L405.164 122.412Z" fill="black"/>
<rect width="320" height="36" transform="translate(316 143)" fill="white"/>
<rect x="332" y="153" width="16" height="16" rx="4" fill="white"/>
<rect x="332.5" y="153.5" width="15" height="15" rx="3.5" stroke="#1B77AF"/>
<path d="M364.4 156.004L360.83 166H359.57L356 156.004H357.316L359.57 162.416C359.719 162.827 359.841 163.214 359.934 163.578C360.037 163.933 360.125 164.273 360.2 164.6C360.265 164.273 360.349 163.928 360.452 163.564C360.555 163.2 360.681 162.808 360.83 162.388L363.07 156.004H364.4ZM368.209 158.356C368.844 158.356 369.394 158.496 369.861 158.776C370.328 159.056 370.682 159.453 370.925 159.966C371.177 160.47 371.303 161.063 371.303 161.744V162.486H366.165C366.184 163.335 366.398 163.984 366.809 164.432C367.229 164.871 367.812 165.09 368.559 165.09C369.035 165.09 369.455 165.048 369.819 164.964C370.192 164.871 370.575 164.74 370.967 164.572V165.65C370.584 165.818 370.206 165.939 369.833 166.014C369.46 166.098 369.016 166.14 368.503 166.14C367.784 166.14 367.154 165.995 366.613 165.706C366.072 165.417 365.647 164.987 365.339 164.418C365.04 163.849 364.891 163.144 364.891 162.304C364.891 161.483 365.026 160.778 365.297 160.19C365.577 159.602 365.964 159.149 366.459 158.832C366.963 158.515 367.546 158.356 368.209 158.356ZM368.195 159.364C367.607 159.364 367.14 159.555 366.795 159.938C366.459 160.311 366.258 160.834 366.193 161.506H370.015C370.006 160.871 369.856 160.358 369.567 159.966C369.278 159.565 368.82 159.364 368.195 159.364ZM376.825 158.356C377.721 158.356 378.398 158.575 378.855 159.014C379.313 159.453 379.541 160.153 379.541 161.114V166H378.323V161.198C378.323 159.994 377.763 159.392 376.643 159.392C375.813 159.392 375.239 159.625 374.921 160.092C374.604 160.559 374.445 161.231 374.445 162.108V166H373.213V158.496H374.207L374.389 159.518H374.459C374.702 159.126 375.038 158.837 375.467 158.65C375.897 158.454 376.349 158.356 376.825 158.356ZM388.14 158.496V166H387.132L386.95 165.006H386.894C386.651 165.398 386.315 165.687 385.886 165.874C385.456 166.051 384.999 166.14 384.514 166.14C383.608 166.14 382.927 165.925 382.47 165.496C382.012 165.057 381.784 164.362 381.784 163.41V158.496H383.03V163.326C383.03 164.521 383.585 165.118 384.696 165.118C385.526 165.118 386.1 164.885 386.418 164.418C386.744 163.951 386.908 163.279 386.908 162.402V158.496H388.14ZM395.408 163.928C395.408 164.656 395.137 165.207 394.596 165.58C394.055 165.953 393.327 166.14 392.412 166.14C391.889 166.14 391.437 166.098 391.054 166.014C390.681 165.93 390.349 165.813 390.06 165.664V164.544C390.359 164.693 390.718 164.833 391.138 164.964C391.567 165.085 392.001 165.146 392.44 165.146C393.065 165.146 393.518 165.048 393.798 164.852C394.078 164.647 394.218 164.376 394.218 164.04C394.218 163.853 394.167 163.685 394.064 163.536C393.961 163.387 393.775 163.237 393.504 163.088C393.243 162.939 392.865 162.771 392.37 162.584C391.885 162.397 391.469 162.211 391.124 162.024C390.779 161.837 390.513 161.613 390.326 161.352C390.139 161.091 390.046 160.755 390.046 160.344C390.046 159.709 390.303 159.219 390.816 158.874C391.339 158.529 392.02 158.356 392.86 158.356C393.317 158.356 393.742 158.403 394.134 158.496C394.535 158.589 394.909 158.711 395.254 158.86L394.834 159.84C394.517 159.709 394.185 159.597 393.84 159.504C393.495 159.411 393.14 159.364 392.776 159.364C392.272 159.364 391.885 159.448 391.614 159.616C391.353 159.775 391.222 159.994 391.222 160.274C391.222 160.489 391.283 160.666 391.404 160.806C391.525 160.946 391.726 161.086 392.006 161.226C392.295 161.366 392.678 161.525 393.154 161.702C393.63 161.879 394.036 162.061 394.372 162.248C394.708 162.435 394.965 162.663 395.142 162.934C395.319 163.195 395.408 163.527 395.408 163.928Z" fill="black"/>
<rect width="320" height="36" transform="translate(316 179)" fill="white"/>
<rect x="332" y="189" width="16" height="16" rx="4" fill="white"/>
<rect x="332.5" y="189.5" width="15" height="15" rx="3.5" stroke="#1B77AF"/>
<path d="M362.944 202H357.358V192.004H362.944V193.11H358.618V196.232H362.692V197.324H358.618V200.894H362.944V202ZM367.811 194.37C368.726 194.37 369.403 194.571 369.841 194.972C370.28 195.373 370.499 196.013 370.499 196.89V202H369.603L369.365 200.936H369.309C368.983 201.347 368.637 201.65 368.273 201.846C367.909 202.042 367.415 202.14 366.789 202.14C366.108 202.14 365.543 201.963 365.095 201.608C364.647 201.244 364.423 200.679 364.423 199.914C364.423 199.167 364.717 198.593 365.305 198.192C365.893 197.781 366.799 197.557 368.021 197.52L369.295 197.478V197.03C369.295 196.405 369.16 195.971 368.889 195.728C368.619 195.485 368.236 195.364 367.741 195.364C367.349 195.364 366.976 195.425 366.621 195.546C366.267 195.658 365.935 195.789 365.627 195.938L365.249 195.014C365.576 194.837 365.963 194.687 366.411 194.566C366.859 194.435 367.326 194.37 367.811 194.37ZM369.281 198.332L368.175 198.374C367.242 198.411 366.593 198.561 366.229 198.822C365.875 199.083 365.697 199.452 365.697 199.928C365.697 200.348 365.823 200.656 366.075 200.852C366.337 201.048 366.668 201.146 367.069 201.146C367.695 201.146 368.217 200.973 368.637 200.628C369.067 200.273 369.281 199.732 369.281 199.004V198.332ZM376.317 194.356C376.457 194.356 376.606 194.365 376.765 194.384C376.924 194.393 377.068 194.412 377.199 194.44L377.045 195.574C376.924 195.546 376.788 195.523 376.639 195.504C376.49 195.485 376.354 195.476 376.233 195.476C375.85 195.476 375.491 195.583 375.155 195.798C374.819 196.003 374.548 196.297 374.343 196.68C374.147 197.053 374.049 197.492 374.049 197.996V202H372.817V194.496H373.825L373.965 195.868H374.021C374.254 195.457 374.562 195.103 374.945 194.804C375.337 194.505 375.794 194.356 376.317 194.356ZM381.106 201.132C381.293 201.132 381.484 201.118 381.68 201.09C381.876 201.062 382.035 201.025 382.156 200.978V201.916C382.025 201.981 381.839 202.033 381.596 202.07C381.353 202.117 381.12 202.14 380.896 202.14C380.504 202.14 380.14 202.075 379.804 201.944C379.477 201.804 379.211 201.566 379.006 201.23C378.801 200.894 378.698 200.423 378.698 199.816V195.448H377.634V194.86L378.712 194.37L379.202 192.774H379.93V194.496H382.1V195.448H379.93V199.788C379.93 200.245 380.037 200.586 380.252 200.81C380.476 201.025 380.761 201.132 381.106 201.132ZM384.891 191.36V194.482C384.891 194.855 384.867 195.205 384.821 195.532H384.905C385.147 195.149 385.474 194.86 385.885 194.664C386.305 194.468 386.757 194.37 387.243 194.37C388.148 194.37 388.829 194.589 389.287 195.028C389.753 195.457 389.987 196.153 389.987 197.114V202H388.769V197.198C388.769 195.994 388.209 195.392 387.089 195.392C386.249 195.392 385.67 195.63 385.353 196.106C385.045 196.573 384.891 197.245 384.891 198.122V202H383.659V191.36H384.891Z" fill="black"/>
<rect width="320" height="36" transform="translate(316 215)" fill="white"/>
<rect x="332" y="225" width="16" height="16" rx="4" fill="white"/>
<rect x="332.5" y="225.5" width="15" height="15" rx="3.5" stroke="#1B77AF"/>
<path d="M361.768 238L358.478 229.236H358.422C358.45 229.525 358.473 229.917 358.492 230.412C358.511 230.897 358.52 231.406 358.52 231.938V238H357.358V228.004H359.22L362.3 236.194H362.356L365.492 228.004H367.34V238H366.094V231.854C366.094 231.369 366.103 230.888 366.122 230.412C366.15 229.936 366.173 229.549 366.192 229.25H366.136L362.804 238H361.768ZM372.733 230.37C373.648 230.37 374.325 230.571 374.763 230.972C375.202 231.373 375.421 232.013 375.421 232.89V238H374.525L374.287 236.936H374.231C373.905 237.347 373.559 237.65 373.195 237.846C372.831 238.042 372.337 238.14 371.711 238.14C371.03 238.14 370.465 237.963 370.017 237.608C369.569 237.244 369.345 236.679 369.345 235.914C369.345 235.167 369.639 234.593 370.227 234.192C370.815 233.781 371.721 233.557 372.943 233.52L374.217 233.478V233.03C374.217 232.405 374.082 231.971 373.811 231.728C373.541 231.485 373.158 231.364 372.663 231.364C372.271 231.364 371.898 231.425 371.543 231.546C371.189 231.658 370.857 231.789 370.549 231.938L370.171 231.014C370.498 230.837 370.885 230.687 371.333 230.566C371.781 230.435 372.248 230.37 372.733 230.37ZM374.203 234.332L373.097 234.374C372.164 234.411 371.515 234.561 371.151 234.822C370.797 235.083 370.619 235.452 370.619 235.928C370.619 236.348 370.745 236.656 370.997 236.852C371.259 237.048 371.59 237.146 371.991 237.146C372.617 237.146 373.139 236.973 373.559 236.628C373.989 236.273 374.203 235.732 374.203 235.004V234.332ZM381.239 230.356C381.379 230.356 381.528 230.365 381.687 230.384C381.845 230.393 381.99 230.412 382.121 230.44L381.967 231.574C381.845 231.546 381.71 231.523 381.561 231.504C381.411 231.485 381.276 231.476 381.155 231.476C380.772 231.476 380.413 231.583 380.077 231.798C379.741 232.003 379.47 232.297 379.265 232.68C379.069 233.053 378.971 233.492 378.971 233.996V238H377.739V230.496H378.747L378.887 231.868H378.943C379.176 231.457 379.484 231.103 379.867 230.804C380.259 230.505 380.716 230.356 381.239 230.356ZM388.408 235.928C388.408 236.656 388.137 237.207 387.596 237.58C387.055 237.953 386.327 238.14 385.412 238.14C384.889 238.14 384.437 238.098 384.054 238.014C383.681 237.93 383.349 237.813 383.06 237.664V236.544C383.359 236.693 383.718 236.833 384.138 236.964C384.567 237.085 385.001 237.146 385.44 237.146C386.065 237.146 386.518 237.048 386.798 236.852C387.078 236.647 387.218 236.376 387.218 236.04C387.218 235.853 387.167 235.685 387.064 235.536C386.961 235.387 386.775 235.237 386.504 235.088C386.243 234.939 385.865 234.771 385.37 234.584C384.885 234.397 384.469 234.211 384.124 234.024C383.779 233.837 383.513 233.613 383.326 233.352C383.139 233.091 383.046 232.755 383.046 232.344C383.046 231.709 383.303 231.219 383.816 230.874C384.339 230.529 385.02 230.356 385.86 230.356C386.317 230.356 386.742 230.403 387.134 230.496C387.535 230.589 387.909 230.711 388.254 230.86L387.834 231.84C387.517 231.709 387.185 231.597 386.84 231.504C386.495 231.411 386.14 231.364 385.776 231.364C385.272 231.364 384.885 231.448 384.614 231.616C384.353 231.775 384.222 231.994 384.222 232.274C384.222 232.489 384.283 232.666 384.404 232.806C384.525 232.946 384.726 233.086 385.006 233.226C385.295 233.366 385.678 233.525 386.154 233.702C386.63 233.879 387.036 234.061 387.372 234.248C387.708 234.435 387.965 234.663 388.142 234.934C388.319 235.195 388.408 235.527 388.408 235.928Z" fill="black"/>
<rect width="320" height="36" transform="translate(316 251)" fill="white"/>
<rect x="332" y="261" width="16" height="16" rx="4" fill="white"/>
<rect x="332.5" y="261.5" width="15" height="15" rx="3.5" stroke="#1B77AF"/>
<path d="M355.944 276.66C355.72 276.66 355.524 276.641 355.356 276.604C355.188 276.576 355.039 276.534 354.908 276.478V275.414C355.057 275.461 355.216 275.493 355.384 275.512C355.552 275.54 355.729 275.554 355.916 275.554C356.149 275.554 356.369 275.507 356.574 275.414C356.789 275.321 356.961 275.157 357.092 274.924C357.223 274.7 357.288 274.373 357.288 273.944V264.004H358.548V273.846C358.548 274.807 358.31 275.517 357.834 275.974C357.358 276.431 356.728 276.66 355.944 276.66ZM367.29 266.496V274H366.282L366.1 273.006H366.044C365.801 273.398 365.465 273.687 365.036 273.874C364.607 274.051 364.149 274.14 363.664 274.14C362.759 274.14 362.077 273.925 361.62 273.496C361.163 273.057 360.934 272.362 360.934 271.41V266.496H362.18V271.326C362.18 272.521 362.735 273.118 363.846 273.118C364.677 273.118 365.251 272.885 365.568 272.418C365.895 271.951 366.058 271.279 366.058 270.402V266.496H367.29ZM373.242 266.356C374.166 266.356 374.908 266.678 375.468 267.322C376.038 267.966 376.322 268.937 376.322 270.234C376.322 271.513 376.038 272.483 375.468 273.146C374.908 273.809 374.162 274.14 373.228 274.14C372.65 274.14 372.169 274.033 371.786 273.818C371.413 273.603 371.119 273.347 370.904 273.048H370.82C370.83 273.207 370.844 273.407 370.862 273.65C370.89 273.893 370.904 274.103 370.904 274.28V277.36H369.672V266.496H370.68L370.848 267.518H370.904C371.128 267.191 371.422 266.916 371.786 266.692C372.15 266.468 372.636 266.356 373.242 266.356ZM373.018 267.392C372.253 267.392 371.712 267.607 371.394 268.036C371.077 268.465 370.914 269.119 370.904 269.996V270.234C370.904 271.158 371.054 271.872 371.352 272.376C371.66 272.871 372.225 273.118 373.046 273.118C373.494 273.118 373.868 272.997 374.166 272.754C374.465 272.502 374.684 272.157 374.824 271.718C374.974 271.279 375.048 270.78 375.048 270.22C375.048 269.361 374.88 268.675 374.544 268.162C374.218 267.649 373.709 267.392 373.018 267.392ZM378.916 263.682C379.102 263.682 379.266 263.747 379.406 263.878C379.555 263.999 379.63 264.195 379.63 264.466C379.63 264.737 379.555 264.937 379.406 265.068C379.266 265.189 379.102 265.25 378.916 265.25C378.71 265.25 378.538 265.189 378.398 265.068C378.258 264.937 378.188 264.737 378.188 264.466C378.188 264.195 378.258 263.999 378.398 263.878C378.538 263.747 378.71 263.682 378.916 263.682ZM379.518 266.496V274H378.286V266.496H379.518ZM384.401 273.132C384.588 273.132 384.779 273.118 384.975 273.09C385.171 273.062 385.33 273.025 385.451 272.978V273.916C385.32 273.981 385.134 274.033 384.891 274.07C384.648 274.117 384.415 274.14 384.191 274.14C383.799 274.14 383.435 274.075 383.099 273.944C382.772 273.804 382.506 273.566 382.301 273.23C382.096 272.894 381.993 272.423 381.993 271.816V267.448H380.929V266.86L382.007 266.37L382.497 264.774H383.225V266.496H385.395V267.448H383.225V271.788C383.225 272.245 383.332 272.586 383.547 272.81C383.771 273.025 384.056 273.132 384.401 273.132ZM389.852 266.356C390.486 266.356 391.037 266.496 391.504 266.776C391.97 267.056 392.325 267.453 392.568 267.966C392.82 268.47 392.946 269.063 392.946 269.744V270.486H387.808C387.826 271.335 388.041 271.984 388.452 272.432C388.872 272.871 389.455 273.09 390.202 273.09C390.678 273.09 391.098 273.048 391.462 272.964C391.835 272.871 392.218 272.74 392.61 272.572V273.65C392.227 273.818 391.849 273.939 391.476 274.014C391.102 274.098 390.659 274.14 390.146 274.14C389.427 274.14 388.797 273.995 388.256 273.706C387.714 273.417 387.29 272.987 386.982 272.418C386.683 271.849 386.534 271.144 386.534 270.304C386.534 269.483 386.669 268.778 386.94 268.19C387.22 267.602 387.607 267.149 388.102 266.832C388.606 266.515 389.189 266.356 389.852 266.356ZM389.838 267.364C389.25 267.364 388.783 267.555 388.438 267.938C388.102 268.311 387.901 268.834 387.836 269.506H391.658C391.648 268.871 391.499 268.358 391.21 267.966C390.92 267.565 390.463 267.364 389.838 267.364ZM398.356 266.356C398.496 266.356 398.645 266.365 398.804 266.384C398.963 266.393 399.107 266.412 399.238 266.44L399.084 267.574C398.963 267.546 398.827 267.523 398.678 267.504C398.529 267.485 398.393 267.476 398.272 267.476C397.889 267.476 397.53 267.583 397.194 267.798C396.858 268.003 396.587 268.297 396.382 268.68C396.186 269.053 396.088 269.492 396.088 269.996V274H394.856V266.496H395.864L396.004 267.868H396.06C396.293 267.457 396.601 267.103 396.984 266.804C397.376 266.505 397.833 266.356 398.356 266.356Z" fill="black"/>
<rect width="320" height="36" transform="translate(316 287)" fill="#F1F1F1"/>
<rect x="332" y="297" width="16" height="16" rx="4" fill="#1B77AF"/>
<path d="M338.512 310.202C338.412 310.202 338.312 310.152 338.262 310.102L334.113 305.952C333.962 305.802 333.962 305.552 334.113 305.402C334.263 305.252 334.512 305.252 334.662 305.402L338.512 309.252L345.312 300.152C345.413 300.002 345.662 299.952 345.812 300.052C345.963 300.152 346.012 300.402 345.912 300.552L338.812 310.052C338.762 310.152 338.662 310.202 338.512 310.202Z" fill="white"/>
<path d="M365.8 310H363.574L358.842 302.16H358.786C358.805 302.58 358.823 303.033 358.842 303.518C358.87 303.994 358.893 304.475 358.912 304.96V310H357.302V300.004H359.514L364.232 307.788H364.274C364.265 307.415 364.246 306.985 364.218 306.5C364.199 306.015 364.185 305.543 364.176 305.086V300.004H365.8V310ZM371.288 302.272C372.305 302.272 373.108 302.575 373.696 303.182C374.293 303.789 374.592 304.633 374.592 305.716V306.612H369.58C369.598 307.303 369.79 307.839 370.154 308.222C370.518 308.595 371.022 308.782 371.666 308.782C372.151 308.782 372.59 308.735 372.982 308.642C373.374 308.539 373.775 308.395 374.186 308.208V309.622C373.812 309.799 373.425 309.93 373.024 310.014C372.622 310.098 372.142 310.14 371.582 310.14C370.835 310.14 370.177 310 369.608 309.72C369.038 309.431 368.59 309.001 368.264 308.432C367.946 307.853 367.788 307.13 367.788 306.262C367.788 304.965 368.105 303.975 368.74 303.294C369.384 302.613 370.233 302.272 371.288 302.272ZM371.288 303.574C370.812 303.574 370.424 303.728 370.126 304.036C369.836 304.335 369.668 304.783 369.622 305.38H372.884C372.874 304.857 372.739 304.428 372.478 304.092C372.226 303.747 371.829 303.574 371.288 303.574ZM380.36 302.272C381.247 302.272 381.961 302.603 382.502 303.266C383.044 303.919 383.314 304.895 383.314 306.192C383.314 307.489 383.034 308.474 382.474 309.146C381.924 309.809 381.205 310.14 380.318 310.14C379.758 310.14 379.306 310.037 378.96 309.832C378.615 309.627 378.34 309.389 378.134 309.118H378.022C378.05 309.295 378.074 309.487 378.092 309.692C378.12 309.897 378.134 310.093 378.134 310.28V313.36H376.37V302.412H377.798L378.05 303.42H378.134C378.349 303.103 378.629 302.832 378.974 302.608C379.32 302.384 379.782 302.272 380.36 302.272ZM379.856 303.7C379.231 303.7 378.788 303.887 378.526 304.26C378.274 304.633 378.144 305.198 378.134 305.954V306.178C378.134 306.99 378.256 307.615 378.498 308.054C378.75 308.483 379.212 308.698 379.884 308.698C380.435 308.698 380.841 308.474 381.102 308.026C381.373 307.569 381.508 306.948 381.508 306.164C381.508 305.38 381.373 304.773 381.102 304.344C380.841 303.915 380.426 303.7 379.856 303.7ZM388.074 308.726C388.289 308.726 388.499 308.707 388.704 308.67C388.919 308.623 389.115 308.572 389.292 308.516V309.832C389.105 309.925 388.863 310 388.564 310.056C388.265 310.112 387.953 310.14 387.626 310.14C387.187 310.14 386.791 310.07 386.436 309.93C386.091 309.79 385.815 309.543 385.61 309.188C385.405 308.833 385.302 308.334 385.302 307.69V303.742H384.28V302.972L385.4 302.356L385.96 300.746H387.066V302.412H389.222V303.742H387.066V307.676C387.066 308.031 387.159 308.297 387.346 308.474C387.542 308.642 387.785 308.726 388.074 308.726ZM397.556 302.412V310H396.17L395.932 309.02H395.848C395.605 309.412 395.269 309.697 394.84 309.874C394.41 310.051 393.958 310.14 393.482 310.14C392.632 310.14 391.965 309.921 391.48 309.482C391.004 309.043 390.766 308.339 390.766 307.368V302.412H392.53V307.018C392.53 307.587 392.642 308.012 392.866 308.292C393.09 308.572 393.444 308.712 393.93 308.712C394.639 308.712 395.124 308.488 395.386 308.04C395.656 307.592 395.792 306.953 395.792 306.122V302.412H397.556ZM403.864 302.272C404.713 302.272 405.376 302.491 405.852 302.93C406.337 303.369 406.58 304.078 406.58 305.058V310H404.816V305.408C404.816 304.839 404.704 304.414 404.48 304.134C404.256 303.845 403.901 303.7 403.416 303.7C402.707 303.7 402.221 303.924 401.96 304.372C401.699 304.82 401.568 305.459 401.568 306.29V310H399.804V302.412H401.162L401.414 303.406H401.512C401.755 303.014 402.086 302.729 402.506 302.552C402.935 302.365 403.388 302.272 403.864 302.272ZM411.838 302.272C412.856 302.272 413.658 302.575 414.246 303.182C414.844 303.789 415.142 304.633 415.142 305.716V306.612H410.13C410.149 307.303 410.34 307.839 410.704 308.222C411.068 308.595 411.572 308.782 412.216 308.782C412.702 308.782 413.14 308.735 413.532 308.642C413.924 308.539 414.326 308.395 414.736 308.208V309.622C414.363 309.799 413.976 309.93 413.574 310.014C413.173 310.098 412.692 310.14 412.132 310.14C411.386 310.14 410.728 310 410.158 309.72C409.589 309.431 409.141 309.001 408.814 308.432C408.497 307.853 408.338 307.13 408.338 306.262C408.338 304.965 408.656 303.975 409.29 303.294C409.934 302.613 410.784 302.272 411.838 302.272ZM411.838 303.574C411.362 303.574 410.975 303.728 410.676 304.036C410.387 304.335 410.219 304.783 410.172 305.38H413.434C413.425 304.857 413.29 304.428 413.028 304.092C412.776 303.747 412.38 303.574 411.838 303.574Z" fill="black"/>
<rect width="320" height="36" transform="translate(316 323)" fill="#F1F1F1"/>
<rect x="332" y="333" width="16" height="16" rx="4" fill="#1B77AF"/>
<path d="M338.512 346.202C338.412 346.202 338.312 346.152 338.262 346.102L334.113 341.952C333.962 341.802 333.962 341.552 334.113 341.402C334.263 341.252 334.512 341.252 334.662 341.402L338.512 345.252L345.312 336.152C345.413 336.002 345.662 335.952 345.812 336.052C345.963 336.152 346.012 336.402 345.912 336.552L338.812 346.052C338.762 346.152 338.662 346.202 338.512 346.202Z" fill="white"/>
<path d="M363.112 343.27C363.112 344.157 362.79 344.857 362.146 345.37C361.502 345.883 360.611 346.14 359.472 346.14C358.371 346.14 357.437 345.953 356.672 345.58V343.9C357.092 344.087 357.554 344.259 358.058 344.418C358.571 344.567 359.085 344.642 359.598 344.642C360.205 344.642 360.643 344.525 360.914 344.292C361.194 344.049 361.334 343.741 361.334 343.368C361.334 342.957 361.157 342.631 360.802 342.388C360.447 342.136 359.929 341.865 359.248 341.576C358.837 341.408 358.441 341.203 358.058 340.96C357.685 340.708 357.377 340.395 357.134 340.022C356.901 339.639 356.784 339.163 356.784 338.594C356.784 337.745 357.083 337.077 357.68 336.592C358.287 336.107 359.094 335.864 360.102 335.864C360.625 335.864 361.119 335.92 361.586 336.032C362.062 336.144 362.529 336.303 362.986 336.508L362.412 337.95C361.992 337.773 361.591 337.633 361.208 337.53C360.835 337.427 360.447 337.376 360.046 337.376C359.561 337.376 359.192 337.483 358.94 337.698C358.688 337.913 358.562 338.197 358.562 338.552C358.562 338.823 358.632 339.056 358.772 339.252C358.912 339.439 359.127 339.611 359.416 339.77C359.715 339.929 360.097 340.111 360.564 340.316C361.105 340.549 361.563 340.797 361.936 341.058C362.319 341.31 362.608 341.613 362.804 341.968C363.009 342.313 363.112 342.747 363.112 343.27ZM367.855 338.272C368.835 338.272 369.577 338.487 370.081 338.916C370.595 339.345 370.851 340.008 370.851 340.904V346H369.605L369.255 344.95H369.199C368.873 345.361 368.527 345.664 368.163 345.86C367.799 346.047 367.305 346.14 366.679 346.14C365.998 346.14 365.433 345.949 364.985 345.566C364.537 345.183 364.313 344.591 364.313 343.788C364.313 343.004 364.598 342.416 365.167 342.024C365.746 341.632 366.619 341.413 367.785 341.366L369.101 341.324V340.946C369.101 340.461 368.985 340.115 368.751 339.91C368.518 339.705 368.191 339.602 367.771 339.602C367.389 339.602 367.02 339.658 366.665 339.77C366.32 339.873 365.975 340.003 365.629 340.162L365.069 338.93C365.443 338.734 365.867 338.575 366.343 338.454C366.829 338.333 367.333 338.272 367.855 338.272ZM369.101 342.416L368.177 342.444C367.403 342.472 366.866 342.607 366.567 342.85C366.269 343.083 366.119 343.401 366.119 343.802C366.119 344.166 366.222 344.427 366.427 344.586C366.642 344.735 366.922 344.81 367.267 344.81C367.781 344.81 368.215 344.665 368.569 344.376C368.924 344.077 369.101 343.639 369.101 343.06V342.416ZM376.002 344.726C376.216 344.726 376.426 344.707 376.632 344.67C376.846 344.623 377.042 344.572 377.22 344.516V345.832C377.033 345.925 376.79 346 376.492 346.056C376.193 346.112 375.88 346.14 375.554 346.14C375.115 346.14 374.718 346.07 374.364 345.93C374.018 345.79 373.743 345.543 373.538 345.188C373.332 344.833 373.23 344.334 373.23 343.69V339.742H372.208V338.972L373.328 338.356L373.888 336.746H374.994V338.412H377.15V339.742H374.994V343.676C374.994 344.031 375.087 344.297 375.274 344.474C375.47 344.642 375.712 344.726 376.002 344.726ZM385.483 338.412V346H384.097L383.859 345.02H383.775C383.533 345.412 383.197 345.697 382.767 345.874C382.338 346.051 381.885 346.14 381.409 346.14C380.56 346.14 379.893 345.921 379.407 345.482C378.931 345.043 378.693 344.339 378.693 343.368V338.412H380.457V343.018C380.457 343.587 380.569 344.012 380.793 344.292C381.017 344.572 381.372 344.712 381.857 344.712C382.567 344.712 383.052 344.488 383.313 344.04C383.584 343.592 383.719 342.953 383.719 342.122V338.412H385.483ZM391.708 338.272C391.829 338.272 391.964 338.281 392.114 338.3C392.263 338.309 392.384 338.323 392.478 338.342L392.324 339.98C392.23 339.961 392.114 339.947 391.974 339.938C391.843 339.919 391.731 339.91 391.638 339.91C391.264 339.91 390.914 339.989 390.588 340.148C390.261 340.297 389.995 340.531 389.79 340.848C389.594 341.165 389.496 341.571 389.496 342.066V346H387.732V338.412H389.09L389.342 339.728H389.426C389.65 339.327 389.958 338.986 390.35 338.706C390.742 338.417 391.194 338.272 391.708 338.272ZM397.944 338.272C398.793 338.272 399.456 338.491 399.932 338.93C400.417 339.369 400.66 340.078 400.66 341.058V346H398.896V341.408C398.896 340.839 398.784 340.414 398.56 340.134C398.336 339.845 397.981 339.7 397.496 339.7C396.787 339.7 396.301 339.924 396.04 340.372C395.779 340.82 395.648 341.459 395.648 342.29V346H393.884V338.412H395.242L395.494 339.406H395.592C395.835 339.014 396.166 338.729 396.586 338.552C397.015 338.365 397.468 338.272 397.944 338.272Z" fill="black"/>
<rect width="320" height="36" transform="translate(316 359)" fill="#F1F1F1"/>
<rect x="332" y="369" width="16" height="16" rx="4" fill="#1B77AF"/>
<path d="M338.512 382.202C338.412 382.202 338.312 382.152 338.262 382.102L334.113 377.952C333.962 377.802 333.962 377.552 334.113 377.402C334.263 377.252 334.512 377.252 334.662 377.402L338.512 381.252L345.312 372.152C345.413 372.002 345.662 371.952 345.812 372.052C345.963 372.152 346.012 372.402 345.912 372.552L338.812 382.052C338.762 382.152 338.662 382.202 338.512 382.202Z" fill="white"/>
<path d="M365.226 372.004V378.472C365.226 379.163 365.077 379.788 364.778 380.348C364.489 380.899 364.045 381.337 363.448 381.664C362.851 381.981 362.095 382.14 361.18 382.14C359.883 382.14 358.898 381.804 358.226 381.132C357.554 380.451 357.218 379.555 357.218 378.444V372.004H359.01V378.262C359.01 379.083 359.192 379.681 359.556 380.054C359.929 380.427 360.489 380.614 361.236 380.614C362.011 380.614 362.571 380.413 362.916 380.012C363.271 379.601 363.448 379.013 363.448 378.248V372.004H365.226ZM371.569 374.272C371.69 374.272 371.826 374.281 371.975 374.3C372.124 374.309 372.246 374.323 372.339 374.342L372.185 375.98C372.092 375.961 371.975 375.947 371.835 375.938C371.704 375.919 371.592 375.91 371.499 375.91C371.126 375.91 370.776 375.989 370.449 376.148C370.122 376.297 369.856 376.531 369.651 376.848C369.455 377.165 369.357 377.571 369.357 378.066V382H367.593V374.412H368.951L369.203 375.728H369.287C369.511 375.327 369.819 374.986 370.211 374.706C370.603 374.417 371.056 374.272 371.569 374.272ZM376.496 374.272C377.476 374.272 378.218 374.487 378.722 374.916C379.235 375.345 379.492 376.008 379.492 376.904V382H378.246L377.896 380.95H377.84C377.513 381.361 377.168 381.664 376.804 381.86C376.44 382.047 375.945 382.14 375.32 382.14C374.639 382.14 374.074 381.949 373.626 381.566C373.178 381.183 372.954 380.591 372.954 379.788C372.954 379.004 373.239 378.416 373.808 378.024C374.387 377.632 375.259 377.413 376.426 377.366L377.742 377.324V376.946C377.742 376.461 377.625 376.115 377.392 375.91C377.159 375.705 376.832 375.602 376.412 375.602C376.029 375.602 375.661 375.658 375.306 375.77C374.961 375.873 374.615 376.003 374.27 376.162L373.71 374.93C374.083 374.734 374.508 374.575 374.984 374.454C375.469 374.333 375.973 374.272 376.496 374.272ZM377.742 378.416L376.818 378.444C376.043 378.472 375.507 378.607 375.208 378.85C374.909 379.083 374.76 379.401 374.76 379.802C374.76 380.166 374.863 380.427 375.068 380.586C375.283 380.735 375.563 380.81 375.908 380.81C376.421 380.81 376.855 380.665 377.21 380.376C377.565 380.077 377.742 379.639 377.742 379.06V378.416ZM385.762 374.272C386.612 374.272 387.274 374.491 387.75 374.93C388.236 375.369 388.478 376.078 388.478 377.058V382H386.714V377.408C386.714 376.839 386.602 376.414 386.378 376.134C386.154 375.845 385.8 375.7 385.314 375.7C384.605 375.7 384.12 375.924 383.858 376.372C383.597 376.82 383.466 377.459 383.466 378.29V382H381.702V374.412H383.06L383.312 375.406H383.41C383.653 375.014 383.984 374.729 384.404 374.552C384.834 374.365 385.286 374.272 385.762 374.272ZM397.419 374.412V382H396.033L395.795 381.02H395.711C395.468 381.412 395.132 381.697 394.703 381.874C394.273 382.051 393.821 382.14 393.345 382.14C392.495 382.14 391.828 381.921 391.343 381.482C390.867 381.043 390.629 380.339 390.629 379.368V374.412H392.393V379.018C392.393 379.587 392.505 380.012 392.729 380.292C392.953 380.572 393.307 380.712 393.793 380.712C394.502 380.712 394.987 380.488 395.249 380.04C395.519 379.592 395.655 378.953 395.655 378.122V374.412H397.419ZM404.833 379.802C404.833 380.567 404.558 381.151 404.007 381.552C403.466 381.944 402.687 382.14 401.669 382.14C401.137 382.14 400.68 382.103 400.297 382.028C399.924 381.953 399.56 381.837 399.205 381.678V380.18C399.579 380.357 399.989 380.507 400.437 380.628C400.895 380.749 401.324 380.81 401.725 380.81C402.211 380.81 402.561 380.735 402.775 380.586C402.99 380.437 403.097 380.236 403.097 379.984C403.097 379.835 403.055 379.704 402.971 379.592C402.887 379.471 402.724 379.34 402.481 379.2C402.239 379.06 401.87 378.887 401.375 378.682C400.89 378.486 400.484 378.29 400.157 378.094C399.84 377.898 399.597 377.665 399.429 377.394C399.271 377.123 399.191 376.773 399.191 376.344C399.191 375.663 399.462 375.149 400.003 374.804C400.545 374.449 401.259 374.272 402.145 374.272C402.612 374.272 403.051 374.319 403.461 374.412C403.881 374.505 404.301 374.645 404.721 374.832L404.161 376.134C403.807 375.985 403.461 375.859 403.125 375.756C402.789 375.653 402.444 375.602 402.089 375.602C401.315 375.602 400.927 375.821 400.927 376.26C400.927 376.419 400.974 376.554 401.067 376.666C401.17 376.778 401.343 376.899 401.585 377.03C401.837 377.151 402.192 377.301 402.649 377.478C403.097 377.655 403.485 377.842 403.811 378.038C404.138 378.225 404.39 378.458 404.567 378.738C404.745 379.009 404.833 379.363 404.833 379.802Z" fill="black"/>
</g>
<rect x="315.5" y="106.5" width="321" height="289" rx="4.5" stroke="black" stroke-opacity="0.15"/>
</g>
<rect x="324.5" y="77.5" width="82" height="23" rx="3.5" fill="#F1F1F1"/>
<path d="M336.944 94L334.124 86.488H334.076C334.1 86.736 334.12 87.072 334.136 87.496C334.152 87.912 334.16 88.348 334.16 88.804V94H333.164V85.432H334.76L337.4 92.452H337.448L340.136 85.432H341.72V94H340.652V88.732C340.652 88.316 340.66 87.904 340.676 87.496C340.7 87.088 340.72 86.756 340.736 86.5H340.688L337.832 94H336.944ZM346.391 87.448C346.935 87.448 347.407 87.568 347.807 87.808C348.207 88.048 348.511 88.388 348.719 88.828C348.935 89.26 349.043 89.768 349.043 90.352V90.988H344.639C344.655 91.716 344.839 92.272 345.191 92.656C345.551 93.032 346.051 93.22 346.691 93.22C347.099 93.22 347.459 93.184 347.771 93.112C348.091 93.032 348.419 92.92 348.755 92.776V93.7C348.427 93.844 348.103 93.948 347.783 94.012C347.463 94.084 347.083 94.12 346.643 94.12C346.027 94.12 345.487 93.996 345.023 93.748C344.559 93.5 344.195 93.132 343.931 92.644C343.675 92.156 343.547 91.552 343.547 90.832C343.547 90.128 343.663 89.524 343.895 89.02C344.135 88.516 344.467 88.128 344.891 87.856C345.323 87.584 345.823 87.448 346.391 87.448ZM346.379 88.312C345.875 88.312 345.475 88.476 345.179 88.804C344.891 89.124 344.719 89.572 344.663 90.148H347.939C347.931 89.604 347.803 89.164 347.555 88.828C347.307 88.484 346.915 88.312 346.379 88.312ZM353.68 87.448C353.8 87.448 353.928 87.456 354.064 87.472C354.2 87.48 354.324 87.496 354.436 87.52L354.304 88.492C354.2 88.468 354.084 88.448 353.956 88.432C353.828 88.416 353.712 88.408 353.608 88.408C353.28 88.408 352.972 88.5 352.684 88.684C352.396 88.86 352.164 89.112 351.988 89.44C351.82 89.76 351.736 90.136 351.736 90.568V94H350.68V87.568H351.544L351.664 88.744H351.712C351.912 88.392 352.176 88.088 352.504 87.832C352.84 87.576 353.232 87.448 353.68 87.448ZM357.983 94.12C357.407 94.12 356.899 94.004 356.459 93.772C356.019 93.54 355.671 93.18 355.415 92.692C355.167 92.204 355.043 91.58 355.043 90.82C355.043 90.028 355.171 89.384 355.427 88.888C355.691 88.392 356.051 88.028 356.507 87.796C356.963 87.564 357.479 87.448 358.055 87.448C358.375 87.448 358.687 87.484 358.991 87.556C359.303 87.62 359.555 87.7 359.747 87.796L359.423 88.672C359.231 88.6 359.007 88.532 358.751 88.468C358.495 88.404 358.255 88.372 358.031 88.372C356.767 88.372 356.135 89.184 356.135 90.808C356.135 91.584 356.287 92.18 356.591 92.596C356.903 93.004 357.363 93.208 357.971 93.208C358.315 93.208 358.623 93.172 358.895 93.1C359.167 93.028 359.415 92.94 359.639 92.836V93.772C359.423 93.884 359.183 93.968 358.919 94.024C358.663 94.088 358.351 94.12 357.983 94.12ZM366.544 87.568V94H365.68L365.524 93.148H365.476C365.268 93.484 364.98 93.732 364.612 93.892C364.244 94.044 363.852 94.12 363.436 94.12C362.66 94.12 362.076 93.936 361.684 93.568C361.292 93.192 361.096 92.596 361.096 91.78V87.568H362.164V91.708C362.164 92.732 362.64 93.244 363.592 93.244C364.304 93.244 364.796 93.044 365.068 92.644C365.348 92.244 365.488 91.668 365.488 90.916V87.568H366.544ZM371.586 87.448C371.706 87.448 371.834 87.456 371.97 87.472C372.106 87.48 372.23 87.496 372.342 87.52L372.21 88.492C372.106 88.468 371.99 88.448 371.862 88.432C371.734 88.416 371.618 88.408 371.514 88.408C371.186 88.408 370.878 88.5 370.59 88.684C370.302 88.86 370.07 89.112 369.894 89.44C369.726 89.76 369.642 90.136 369.642 90.568V94H368.586V87.568H369.45L369.57 88.744H369.618C369.818 88.392 370.082 88.088 370.41 87.832C370.746 87.576 371.138 87.448 371.586 87.448ZM372.535 87.568H373.663L375.055 91.228C375.175 91.556 375.283 91.864 375.379 92.152C375.475 92.44 375.547 92.716 375.595 92.98H375.643C375.691 92.78 375.767 92.52 375.871 92.2C375.975 91.872 376.083 91.544 376.195 91.216L377.503 87.568H378.643L375.871 94.888C375.639 95.496 375.347 95.98 374.995 96.34C374.643 96.7 374.155 96.88 373.531 96.88C373.339 96.88 373.171 96.868 373.027 96.844C372.883 96.828 372.759 96.808 372.655 96.784V95.944C372.743 95.96 372.847 95.976 372.967 95.992C373.095 96.008 373.227 96.016 373.363 96.016C373.731 96.016 374.027 95.912 374.251 95.704C374.475 95.496 374.655 95.22 374.791 94.876L375.127 94.024L372.535 87.568Z" fill="black"/>
<path d="M391.513 89.0125L394.863 85.6625C395.013 85.5125 395.013 85.2625 394.863 85.1125C394.713 84.9625 394.463 84.9625 394.313 85.1125L391.013 88.4625L387.663 85.1125C387.513 84.9625 387.263 84.9625 387.113 85.1125C386.962 85.2625 386.962 85.5125 387.113 85.6625L390.463 89.0125L387.113 92.3625C386.962 92.5125 386.962 92.7625 387.113 92.9125C387.163 92.9625 387.263 93.0125 387.363 93.0125C387.463 93.0125 387.563 92.9625 387.613 92.9125L391.013 89.5125L394.363 92.8625C394.413 92.9125 394.513 92.9625 394.613 92.9625C394.713 92.9625 394.813 92.9125 394.863 92.8625C395.013 92.7125 395.013 92.4625 394.863 92.3125L391.513 89.0125Z" fill="#5E5E5E"/>
<rect x="324.5" y="77.5" width="82" height="23" rx="3.5" stroke="#939393"/>
<rect x="411.5" y="77.5" width="85" height="23" rx="3.5" fill="#F1F1F1"/>
<path d="M426.956 94H425.696L421.112 86.884H421.064C421.08 87.164 421.1 87.512 421.124 87.928C421.148 88.344 421.16 88.772 421.16 89.212V94H420.164V85.432H421.412L425.984 92.524H426.032C426.024 92.396 426.012 92.204 425.996 91.948C425.988 91.692 425.976 91.416 425.96 91.12C425.952 90.816 425.948 90.532 425.948 90.268V85.432H426.956V94ZM431.621 87.448C432.165 87.448 432.637 87.568 433.037 87.808C433.437 88.048 433.741 88.388 433.949 88.828C434.165 89.26 434.273 89.768 434.273 90.352V90.988H429.869C429.885 91.716 430.069 92.272 430.421 92.656C430.781 93.032 431.281 93.22 431.921 93.22C432.329 93.22 432.689 93.184 433.001 93.112C433.321 93.032 433.649 92.92 433.985 92.776V93.7C433.657 93.844 433.333 93.948 433.013 94.012C432.693 94.084 432.313 94.12 431.873 94.12C431.257 94.12 430.717 93.996 430.253 93.748C429.789 93.5 429.425 93.132 429.161 92.644C428.905 92.156 428.777 91.552 428.777 90.832C428.777 90.128 428.893 89.524 429.125 89.02C429.365 88.516 429.697 88.128 430.121 87.856C430.553 87.584 431.053 87.448 431.621 87.448ZM431.609 88.312C431.105 88.312 430.705 88.476 430.409 88.804C430.121 89.124 429.949 89.572 429.893 90.148H433.169C433.161 89.604 433.033 89.164 432.785 88.828C432.537 88.484 432.145 88.312 431.609 88.312ZM438.971 87.448C439.763 87.448 440.399 87.724 440.879 88.276C441.367 88.828 441.611 89.66 441.611 90.772C441.611 91.868 441.367 92.7 440.879 93.268C440.399 93.836 439.759 94.12 438.959 94.12C438.463 94.12 438.051 94.028 437.723 93.844C437.403 93.66 437.151 93.44 436.967 93.184H436.895C436.903 93.32 436.915 93.492 436.931 93.7C436.955 93.908 436.967 94.088 436.967 94.24V96.88H435.911V87.568H436.775L436.919 88.444H436.967C437.159 88.164 437.411 87.928 437.723 87.736C438.035 87.544 438.451 87.448 438.971 87.448ZM438.779 88.336C438.123 88.336 437.659 88.52 437.387 88.888C437.115 89.256 436.975 89.816 436.967 90.568V90.772C436.967 91.564 437.095 92.176 437.351 92.608C437.615 93.032 438.099 93.244 438.803 93.244C439.187 93.244 439.507 93.14 439.763 92.932C440.019 92.716 440.207 92.42 440.327 92.044C440.455 91.668 440.519 91.24 440.519 90.76C440.519 90.024 440.375 89.436 440.087 88.996C439.807 88.556 439.371 88.336 438.779 88.336ZM445.441 93.256C445.601 93.256 445.765 93.244 445.933 93.22C446.101 93.196 446.237 93.164 446.341 93.124V93.928C446.229 93.984 446.069 94.028 445.861 94.06C445.653 94.1 445.453 94.12 445.261 94.12C444.925 94.12 444.613 94.064 444.325 93.952C444.045 93.832 443.817 93.628 443.641 93.34C443.465 93.052 443.377 92.648 443.377 92.128V88.384H442.465V87.88L443.389 87.46L443.809 86.092H444.433V87.568H446.293V88.384H444.433V92.104C444.433 92.496 444.525 92.788 444.709 92.98C444.901 93.164 445.145 93.256 445.441 93.256ZM453.005 87.568V94H452.141L451.985 93.148H451.937C451.729 93.484 451.441 93.732 451.073 93.892C450.705 94.044 450.313 94.12 449.897 94.12C449.121 94.12 448.537 93.936 448.145 93.568C447.753 93.192 447.557 92.596 447.557 91.78V87.568H448.625V91.708C448.625 92.732 449.101 93.244 450.053 93.244C450.765 93.244 451.257 93.044 451.529 92.644C451.809 92.244 451.949 91.668 451.949 90.916V87.568H453.005ZM458.143 87.448C458.911 87.448 459.491 87.636 459.883 88.012C460.275 88.388 460.471 88.988 460.471 89.812V94H459.427V89.884C459.427 88.852 458.947 88.336 457.987 88.336C457.275 88.336 456.783 88.536 456.511 88.936C456.239 89.336 456.103 89.912 456.103 90.664V94H455.047V87.568H455.899L456.055 88.444H456.115C456.323 88.108 456.611 87.86 456.979 87.7C457.347 87.532 457.735 87.448 458.143 87.448ZM464.949 87.448C465.493 87.448 465.965 87.568 466.365 87.808C466.765 88.048 467.069 88.388 467.277 88.828C467.493 89.26 467.601 89.768 467.601 90.352V90.988H463.197C463.213 91.716 463.397 92.272 463.749 92.656C464.109 93.032 464.609 93.22 465.249 93.22C465.657 93.22 466.017 93.184 466.329 93.112C466.649 93.032 466.977 92.92 467.313 92.776V93.7C466.985 93.844 466.661 93.948 466.341 94.012C466.021 94.084 465.641 94.12 465.201 94.12C464.585 94.12 464.045 93.996 463.581 93.748C463.117 93.5 462.753 93.132 462.489 92.644C462.233 92.156 462.105 91.552 462.105 90.832C462.105 90.128 462.221 89.524 462.453 89.02C462.693 88.516 463.025 88.128 463.449 87.856C463.881 87.584 464.381 87.448 464.949 87.448ZM464.937 88.312C464.433 88.312 464.033 88.476 463.737 88.804C463.449 89.124 463.277 89.572 463.221 90.148H466.497C466.489 89.604 466.361 89.164 466.113 88.828C465.865 88.484 465.473 88.312 464.937 88.312Z" fill="black"/>
<path d="M481.513 89.0125L484.863 85.6625C485.013 85.5125 485.013 85.2625 484.863 85.1125C484.713 84.9625 484.463 84.9625 484.313 85.1125L481.013 88.4625L477.663 85.1125C477.513 84.9625 477.263 84.9625 477.113 85.1125C476.962 85.2625 476.962 85.5125 477.113 85.6625L480.463 89.0125L477.113 92.3625C476.962 92.5125 476.962 92.7625 477.113 92.9125C477.163 92.9625 477.263 93.0125 477.363 93.0125C477.463 93.0125 477.563 92.9625 477.613 92.9125L481.013 89.5125L484.363 92.8625C484.413 92.9125 484.513 92.9625 484.613 92.9625C484.713 92.9625 484.813 92.9125 484.863 92.8625C485.013 92.7125 485.013 92.4625 484.863 92.3125L481.513 89.0125Z" fill="#5E5E5E"/>
<rect x="411.5" y="77.5" width="85" height="23" rx="3.5" stroke="#939393"/>
<rect x="501.5" y="77.5" width="29" height="23" rx="3.5" fill="#C9C9C9"/>
<path d="M512.852 89.344H515.24V90.196H512.852V92.668H511.988V90.196H509.6V89.344H511.988V86.86H512.852V89.344ZM522.107 94H516.443V93.124L518.687 90.856C519.111 90.424 519.471 90.04 519.767 89.704C520.071 89.368 520.299 89.04 520.451 88.72C520.603 88.4 520.679 88.044 520.679 87.652C520.679 87.18 520.539 86.824 520.259 86.584C519.979 86.336 519.615 86.212 519.167 86.212C518.743 86.212 518.375 86.284 518.063 86.428C517.751 86.572 517.431 86.772 517.103 87.028L516.539 86.32C516.875 86.04 517.259 85.804 517.691 85.612C518.131 85.412 518.623 85.312 519.167 85.312C519.967 85.312 520.599 85.516 521.063 85.924C521.527 86.332 521.759 86.888 521.759 87.592C521.759 88.04 521.667 88.46 521.483 88.852C521.299 89.244 521.043 89.632 520.715 90.016C520.387 90.4 520.003 90.804 519.563 91.228L517.775 92.992V93.04H522.107V94Z" fill="black"/>
<rect x="501.5" y="77.5" width="29" height="23" rx="3.5" stroke="#939393"/>
<rect x="463" y="36" width="109" height="32" rx="4" fill="#323232"/>
<path d="M481.024 54.708C481.024 55.468 480.748 56.06 480.196 56.484C479.644 56.908 478.9 57.12 477.964 57.12C477.484 57.12 477.04 57.084 476.632 57.012C476.224 56.94 475.884 56.84 475.612 56.712V55.68C475.9 55.808 476.256 55.924 476.68 56.028C477.112 56.132 477.556 56.184 478.012 56.184C478.644 56.184 479.124 56.06 479.452 55.812C479.78 55.564 479.944 55.228 479.944 54.804C479.944 54.524 479.884 54.288 479.764 54.096C479.644 53.904 479.436 53.728 479.14 53.568C478.844 53.408 478.44 53.232 477.928 53.04C477.192 52.776 476.64 52.452 476.272 52.068C475.904 51.684 475.72 51.16 475.72 50.496C475.72 50.048 475.836 49.66 476.068 49.332C476.3 49.004 476.62 48.752 477.028 48.576C477.436 48.4 477.912 48.312 478.456 48.312C478.92 48.312 479.348 48.356 479.74 48.444C480.132 48.532 480.492 48.648 480.82 48.792L480.484 49.716C480.188 49.588 479.864 49.48 479.512 49.392C479.16 49.304 478.8 49.26 478.432 49.26C477.896 49.26 477.492 49.376 477.22 49.608C476.948 49.832 476.812 50.132 476.812 50.508C476.812 50.796 476.872 51.036 476.992 51.228C477.112 51.42 477.308 51.596 477.58 51.756C477.852 51.908 478.22 52.068 478.684 52.236C479.188 52.42 479.612 52.62 479.956 52.836C480.308 53.044 480.572 53.296 480.748 53.592C480.932 53.888 481.024 54.26 481.024 54.708ZM485.042 50.46C485.826 50.46 486.406 50.632 486.782 50.976C487.158 51.32 487.346 51.868 487.346 52.62V57H486.578L486.374 56.088H486.326C486.046 56.44 485.75 56.7 485.438 56.868C485.126 57.036 484.702 57.12 484.166 57.12C483.582 57.12 483.098 56.968 482.714 56.664C482.33 56.352 482.138 55.868 482.138 55.212C482.138 54.572 482.39 54.08 482.894 53.736C483.398 53.384 484.174 53.192 485.222 53.16L486.314 53.124V52.74C486.314 52.204 486.198 51.832 485.966 51.624C485.734 51.416 485.406 51.312 484.982 51.312C484.646 51.312 484.326 51.364 484.022 51.468C483.718 51.564 483.434 51.676 483.17 51.804L482.846 51.012C483.126 50.86 483.458 50.732 483.842 50.628C484.226 50.516 484.626 50.46 485.042 50.46ZM486.302 53.856L485.354 53.892C484.554 53.924 483.998 54.052 483.686 54.276C483.382 54.5 483.23 54.816 483.23 55.224C483.23 55.584 483.338 55.848 483.554 56.016C483.778 56.184 484.062 56.268 484.406 56.268C484.942 56.268 485.39 56.12 485.75 55.824C486.118 55.52 486.302 55.056 486.302 54.432V53.856ZM491.48 56.256C491.641 56.256 491.805 56.244 491.973 56.22C492.141 56.196 492.277 56.164 492.381 56.124V56.928C492.269 56.984 492.109 57.028 491.901 57.06C491.693 57.1 491.493 57.12 491.301 57.12C490.965 57.12 490.653 57.064 490.365 56.952C490.085 56.832 489.857 56.628 489.681 56.34C489.505 56.052 489.417 55.648 489.417 55.128V51.384H488.505V50.88L489.429 50.46L489.849 49.092H490.473V50.568H492.333V51.384H490.473V55.104C490.473 55.496 490.565 55.788 490.749 55.98C490.941 56.164 491.185 56.256 491.48 56.256ZM499.044 50.568V57H498.18L498.024 56.148H497.976C497.768 56.484 497.48 56.732 497.112 56.892C496.744 57.044 496.352 57.12 495.936 57.12C495.16 57.12 494.576 56.936 494.184 56.568C493.792 56.192 493.596 55.596 493.596 54.78V50.568H494.664V54.708C494.664 55.732 495.14 56.244 496.092 56.244C496.804 56.244 497.296 56.044 497.568 55.644C497.848 55.244 497.988 54.668 497.988 53.916V50.568H499.044ZM504.086 50.448C504.206 50.448 504.334 50.456 504.47 50.472C504.606 50.48 504.73 50.496 504.842 50.52L504.71 51.492C504.606 51.468 504.49 51.448 504.362 51.432C504.234 51.416 504.118 51.408 504.014 51.408C503.686 51.408 503.378 51.5 503.09 51.684C502.802 51.86 502.57 52.112 502.394 52.44C502.226 52.76 502.142 53.136 502.142 53.568V57H501.086V50.568H501.95L502.07 51.744H502.118C502.318 51.392 502.582 51.088 502.91 50.832C503.246 50.576 503.638 50.448 504.086 50.448ZM509.139 50.448C509.907 50.448 510.487 50.636 510.879 51.012C511.271 51.388 511.467 51.988 511.467 52.812V57H510.423V52.884C510.423 51.852 509.943 51.336 508.983 51.336C508.271 51.336 507.779 51.536 507.507 51.936C507.235 52.336 507.099 52.912 507.099 53.664V57H506.043V50.568H506.895L507.051 51.444H507.111C507.319 51.108 507.607 50.86 507.975 50.7C508.343 50.532 508.731 50.448 509.139 50.448ZM514.661 55.608L514.745 55.74C514.633 56.164 514.481 56.628 514.289 57.132C514.097 57.644 513.905 58.116 513.713 58.548H512.933C513.045 58.092 513.157 57.592 513.269 57.048C513.389 56.504 513.477 56.024 513.533 55.608H514.661ZM526.45 48.432V53.976C526.45 54.568 526.33 55.104 526.09 55.584C525.85 56.056 525.482 56.432 524.986 56.712C524.49 56.984 523.866 57.12 523.114 57.12C522.042 57.12 521.23 56.832 520.678 56.256C520.126 55.672 519.85 54.904 519.85 53.952V48.432H520.93V53.988C520.93 54.684 521.114 55.224 521.482 55.608C521.858 55.992 522.422 56.184 523.174 56.184C523.95 56.184 524.51 55.98 524.854 55.572C525.206 55.156 525.382 54.624 525.382 53.976V48.432H526.45ZM531.567 50.448C531.687 50.448 531.815 50.456 531.951 50.472C532.087 50.48 532.211 50.496 532.323 50.52L532.191 51.492C532.087 51.468 531.971 51.448 531.843 51.432C531.715 51.416 531.599 51.408 531.495 51.408C531.167 51.408 530.859 51.5 530.571 51.684C530.283 51.86 530.051 52.112 529.875 52.44C529.707 52.76 529.623 53.136 529.623 53.568V57H528.567V50.568H529.431L529.551 51.744H529.599C529.799 51.392 530.063 51.088 530.391 50.832C530.727 50.576 531.119 50.448 531.567 50.448ZM535.726 50.46C536.51 50.46 537.09 50.632 537.466 50.976C537.842 51.32 538.03 51.868 538.03 52.62V57H537.262L537.058 56.088H537.01C536.73 56.44 536.434 56.7 536.122 56.868C535.81 57.036 535.386 57.12 534.85 57.12C534.266 57.12 533.782 56.968 533.398 56.664C533.014 56.352 532.822 55.868 532.822 55.212C532.822 54.572 533.074 54.08 533.578 53.736C534.082 53.384 534.858 53.192 535.906 53.16L536.998 53.124V52.74C536.998 52.204 536.882 51.832 536.65 51.624C536.418 51.416 536.09 51.312 535.666 51.312C535.33 51.312 535.01 51.364 534.706 51.468C534.402 51.564 534.118 51.676 533.854 51.804L533.53 51.012C533.81 50.86 534.142 50.732 534.526 50.628C534.91 50.516 535.31 50.46 535.726 50.46ZM536.986 53.856L536.038 53.892C535.238 53.924 534.682 54.052 534.37 54.276C534.066 54.5 533.914 54.816 533.914 55.224C533.914 55.584 534.022 55.848 534.238 56.016C534.462 56.184 534.746 56.268 535.09 56.268C535.626 56.268 536.074 56.12 536.434 55.824C536.802 55.52 536.986 55.056 536.986 54.432V53.856ZM543.112 50.448C543.88 50.448 544.46 50.636 544.852 51.012C545.244 51.388 545.44 51.988 545.44 52.812V57H544.396V52.884C544.396 51.852 543.916 51.336 542.956 51.336C542.244 51.336 541.752 51.536 541.48 51.936C541.208 52.336 541.072 52.912 541.072 53.664V57H540.016V50.568H540.868L541.024 51.444H541.084C541.292 51.108 541.58 50.86 541.948 50.7C542.316 50.532 542.704 50.448 543.112 50.448ZM552.81 50.568V57H551.946L551.79 56.148H551.742C551.534 56.484 551.246 56.732 550.878 56.892C550.51 57.044 550.118 57.12 549.702 57.12C548.926 57.12 548.342 56.936 547.95 56.568C547.558 56.192 547.362 55.596 547.362 54.78V50.568H548.43V54.708C548.43 55.732 548.906 56.244 549.858 56.244C550.57 56.244 551.062 56.044 551.334 55.644C551.614 55.244 551.754 54.668 551.754 53.916V50.568H552.81ZM559.04 55.224C559.04 55.848 558.808 56.32 558.344 56.64C557.88 56.96 557.256 57.12 556.472 57.12C556.024 57.12 555.636 57.084 555.308 57.012C554.988 56.94 554.704 56.84 554.456 56.712V55.752C554.712 55.88 555.02 56 555.38 56.112C555.748 56.216 556.12 56.268 556.496 56.268C557.032 56.268 557.42 56.184 557.66 56.016C557.9 55.84 558.02 55.608 558.02 55.32C558.02 55.16 557.976 55.016 557.888 54.888C557.8 54.76 557.64 54.632 557.408 54.504C557.184 54.376 556.86 54.232 556.436 54.072C556.02 53.912 555.664 53.752 555.368 53.592C555.072 53.432 554.844 53.24 554.684 53.016C554.524 52.792 554.444 52.504 554.444 52.152C554.444 51.608 554.664 51.188 555.104 50.892C555.552 50.596 556.136 50.448 556.856 50.448C557.248 50.448 557.612 50.488 557.948 50.568C558.292 50.648 558.612 50.752 558.908 50.88L558.548 51.72C558.276 51.608 557.992 51.512 557.696 51.432C557.4 51.352 557.096 51.312 556.784 51.312C556.352 51.312 556.02 51.384 555.788 51.528C555.564 51.664 555.452 51.852 555.452 52.092C555.452 52.276 555.504 52.428 555.608 52.548C555.712 52.668 555.884 52.788 556.124 52.908C556.372 53.028 556.7 53.164 557.108 53.316C557.516 53.468 557.864 53.624 558.152 53.784C558.44 53.944 558.66 54.14 558.812 54.372C558.964 54.596 559.04 54.88 559.04 55.224Z" fill="white"/>
<path d="M510.5 68H524.5L517.5 75L510.5 68Z" fill="#323232"/>
<g filter="url(#filter2_d_9554_628202)">
<mask id="path-49-outside-1_9554_628202" maskUnits="userSpaceOnUse" x="522" y="91" width="16" height="19" fill="black">
<rect fill="white" x="522" y="91" width="16" height="19"/>
<path fill-rule="evenodd" clip-rule="evenodd" d="M526.836 102L525.949 100.645C525.344 99.7203 524.054 99.3829 523.068 99.89L523.298 99.7718C523.053 99.8977 522.935 100.211 523.036 100.472L524.263 103.647C524.458 104.151 524.955 104.863 525.367 105.22C525.367 105.22 527.836 107.264 527.836 108.03V109H531.836L532.836 107L533.836 109H534.836V108.03C534.836 107.264 536.344 104.851 536.344 104.851C536.622 104.382 536.854 103.555 536.854 103.007V98.9718C536.836 98.0785 536.076 97.3545 535.139 97.3545C534.671 97.3545 534.291 97.7165 534.291 98.1634V98.4866C534.291 97.5933 533.532 96.8693 532.595 96.8693C532.126 96.8693 531.746 97.2313 531.746 97.6782V98.0013C531.746 97.108 530.987 96.3841 530.05 96.3841C529.581 96.3841 529.201 96.7461 529.201 97.193V97.5161C529.201 97.3726 529.186 97.2584 529.157 97.168L528.898 93.0012C528.863 92.4378 528.388 92 527.836 92C527.279 92 526.836 92.4476 526.836 92.9998V97V102ZM533.854 101L534.854 101V105H533.854V101ZM531.854 101L532.854 101V105H531.854V101ZM529.854 101L530.854 101V105H529.854V101Z"/>
</mask>
<path fill-rule="evenodd" clip-rule="evenodd" d="M526.836 102L525.949 100.645C525.344 99.7203 524.054 99.3829 523.068 99.89L523.298 99.7718C523.053 99.8977 522.935 100.211 523.036 100.472L524.263 103.647C524.458 104.151 524.955 104.863 525.367 105.22C525.367 105.22 527.836 107.264 527.836 108.03V109H531.836L532.836 107L533.836 109H534.836V108.03C534.836 107.264 536.344 104.851 536.344 104.851C536.622 104.382 536.854 103.555 536.854 103.007V98.9718C536.836 98.0785 536.076 97.3545 535.139 97.3545C534.671 97.3545 534.291 97.7165 534.291 98.1634V98.4866C534.291 97.5933 533.532 96.8693 532.595 96.8693C532.126 96.8693 531.746 97.2313 531.746 97.6782V98.0013C531.746 97.108 530.987 96.3841 530.05 96.3841C529.581 96.3841 529.201 96.7461 529.201 97.193V97.5161C529.201 97.3726 529.186 97.2584 529.157 97.168L528.898 93.0012C528.863 92.4378 528.388 92 527.836 92C527.279 92 526.836 92.4476 526.836 92.9998V97V102ZM533.854 101L534.854 101V105H533.854V101ZM531.854 101L532.854 101V105H531.854V101ZM529.854 101L530.854 101V105H529.854V101Z" fill="white"/>
<path d="M526.836 102L525.999 102.548L527.836 105.354V102H526.836ZM525.949 100.645L526.786 100.098L525.949 100.645ZM523.036 100.472L522.103 100.833L523.036 100.472ZM524.263 103.647L525.196 103.287L524.263 103.647ZM525.367 105.22L524.711 105.975L524.72 105.983L524.729 105.991L525.367 105.22ZM527.836 109H526.836V110H527.836V109ZM531.836 109V110H532.454L532.73 109.447L531.836 109ZM532.836 107L533.73 106.553L532.836 104.764L531.941 106.553L532.836 107ZM533.836 109L532.941 109.447L533.218 110H533.836V109ZM534.836 109V110H535.836V109H534.836ZM536.344 104.851L537.192 105.381L537.199 105.371L537.205 105.36L536.344 104.851ZM536.854 98.9718H537.854V98.9617L537.853 98.9516L536.854 98.9718ZM529.157 97.168L528.158 97.23L528.166 97.3578L528.206 97.4795L529.157 97.168ZM528.898 93.0012L527.9 93.0632V93.0632L528.898 93.0012ZM526.836 92.9998H525.836H526.836ZM534.854 101H535.854V100H534.854V101ZM534.854 105V106H535.854V105H534.854ZM533.854 105H532.854V106H533.854V105ZM533.854 101V100H532.854V101H533.854ZM532.854 101H533.854V100H532.854V101ZM532.854 105V106H533.854V105H532.854ZM531.854 105H530.854V106H531.854V105ZM531.854 101V100H530.854V101H531.854ZM530.854 101H531.854V100H530.854V101ZM530.854 105V106H531.854V105H530.854ZM529.854 105H528.854V106H529.854V105ZM529.854 101V100H528.854V101H529.854ZM527.672 101.452L526.786 100.098L525.112 101.193L525.999 102.548L527.672 101.452ZM526.786 100.098C525.898 98.7415 524.049 98.2611 522.61 99.0006L523.525 100.779C524.059 100.505 524.789 100.699 525.112 101.193L526.786 100.098ZM523.525 100.779L523.755 100.661L522.84 98.8825L522.61 99.0006L523.525 100.779ZM522.84 98.8825C522.131 99.2471 521.822 100.105 522.103 100.833L523.969 100.112C524.014 100.23 524.005 100.34 523.974 100.421C523.944 100.503 523.876 100.599 523.755 100.661L522.84 98.8825ZM522.103 100.833L523.331 104.008L525.196 103.287L523.969 100.112L522.103 100.833ZM523.331 104.008C523.583 104.662 524.175 105.51 524.711 105.975L526.022 104.465C525.735 104.216 525.333 103.64 525.196 103.287L523.331 104.008ZM525.367 105.22C524.729 105.991 524.729 105.991 524.729 105.991C524.729 105.991 524.729 105.991 524.729 105.991C524.729 105.991 524.729 105.991 524.729 105.991C524.729 105.991 524.729 105.991 524.73 105.991C524.73 105.992 524.732 105.993 524.734 105.995C524.738 105.998 524.744 106.003 524.752 106.01C524.768 106.024 524.793 106.045 524.825 106.072C524.889 106.126 524.981 106.205 525.092 106.303C525.315 106.499 525.609 106.765 525.9 107.051C526.196 107.342 526.468 107.632 526.659 107.88C526.755 108.004 526.813 108.095 526.843 108.152C526.884 108.23 526.836 108.174 526.836 108.03H528.836C528.836 107.694 528.71 107.407 528.616 107.226C528.511 107.025 528.376 106.831 528.241 106.656C527.969 106.304 527.624 105.941 527.302 105.625C526.976 105.304 526.653 105.012 526.413 104.801C526.292 104.695 526.191 104.608 526.12 104.548C526.085 104.517 526.056 104.494 526.037 104.477C526.027 104.469 526.019 104.462 526.014 104.458C526.011 104.455 526.009 104.454 526.007 104.452C526.006 104.452 526.006 104.451 526.005 104.451C526.005 104.451 526.005 104.45 526.005 104.45C526.005 104.45 526.004 104.45 526.004 104.45C526.004 104.45 526.004 104.45 525.367 105.22ZM526.836 108.03V109H528.836V108.03H526.836ZM527.836 110H531.836V108H527.836V110ZM532.73 109.447L533.73 107.447L531.941 106.553L530.941 108.553L532.73 109.447ZM531.941 107.447L532.941 109.447L534.73 108.553L533.73 106.553L531.941 107.447ZM533.836 110H534.836V108H533.836V110ZM535.836 109V108.03H533.836V109H535.836ZM535.836 108.03C535.836 108.066 535.846 107.944 535.992 107.6C536.116 107.307 536.288 106.965 536.47 106.628C536.65 106.294 536.831 105.981 536.968 105.75C537.037 105.635 537.093 105.542 537.133 105.477C537.152 105.445 537.168 105.421 537.178 105.404C537.183 105.396 537.187 105.39 537.189 105.386C537.19 105.384 537.191 105.382 537.192 105.382C537.192 105.381 537.192 105.381 537.192 105.381C537.192 105.381 537.192 105.381 537.192 105.381C537.192 105.381 537.192 105.381 537.192 105.381C537.192 105.381 537.192 105.381 536.344 104.851C535.496 104.321 535.496 104.321 535.496 104.321C535.496 104.321 535.496 104.321 535.496 104.321C535.496 104.321 535.496 104.321 535.496 104.321C535.496 104.322 535.495 104.322 535.495 104.323C535.494 104.325 535.493 104.327 535.491 104.329C535.488 104.335 535.483 104.342 535.477 104.352C535.465 104.371 535.448 104.399 535.426 104.434C535.383 104.505 535.322 104.606 535.249 104.729C535.103 104.975 534.907 105.313 534.71 105.678C534.515 106.04 534.309 106.445 534.15 106.82C534.013 107.144 533.836 107.611 533.836 108.03H535.836ZM537.205 105.36C537.403 105.026 537.559 104.613 537.667 104.226C537.774 103.839 537.854 103.401 537.854 103.007H535.854C535.854 103.161 535.817 103.41 535.74 103.691C535.662 103.971 535.564 104.206 535.484 104.341L537.205 105.36ZM537.854 103.007V98.9718H535.854V103.007H537.854ZM537.853 98.9516C537.824 97.4818 536.588 96.3545 535.139 96.3545V98.3545C535.565 98.3545 535.847 98.6752 535.854 98.992L537.853 98.9516ZM535.139 96.3545C534.164 96.3545 533.291 97.1198 533.291 98.1634H535.291C535.291 98.2317 535.26 98.2858 535.229 98.3152C535.199 98.3437 535.165 98.3545 535.139 98.3545V96.3545ZM533.291 98.1634V98.4866H535.291V98.1634H533.291ZM535.291 98.4866C535.291 96.9966 534.038 95.8693 532.595 95.8693V97.8693C533.025 97.8693 533.291 98.19 533.291 98.4866H535.291ZM532.595 95.8693C531.619 95.8693 530.746 96.6346 530.746 97.6782H532.746C532.746 97.7465 532.715 97.8005 532.685 97.8299C532.655 97.8585 532.621 97.8693 532.595 97.8693V95.8693ZM530.746 97.6782V98.0013H532.746V97.6782H530.746ZM532.746 98.0013C532.746 96.5113 531.494 95.3841 530.05 95.3841V97.3841C530.48 97.3841 530.746 97.7047 530.746 98.0013H532.746ZM530.05 95.3841C529.074 95.3841 528.201 96.1494 528.201 97.193H530.201C530.201 97.2613 530.171 97.3153 530.14 97.3447C530.11 97.3733 530.076 97.3841 530.05 97.3841V95.3841ZM528.201 97.193V97.5161H530.201V97.193H528.201ZM530.201 97.5161C530.201 97.3088 530.18 97.0809 530.107 96.8565L528.206 97.4795C528.198 97.4555 528.198 97.4444 528.199 97.4516C528.199 97.4587 528.201 97.4791 528.201 97.5161H530.201ZM530.155 97.106L529.896 92.9392L527.9 93.0632L528.158 97.23L530.155 97.106ZM529.896 92.9392C529.828 91.845 528.912 91 527.836 91V93C527.844 93 527.86 93.0035 527.877 93.0193C527.893 93.0344 527.899 93.0498 527.9 93.0632L529.896 92.9392ZM527.836 91C526.725 91 525.836 91.8977 525.836 92.9998H527.836V93V91ZM525.836 92.9998V97H527.836V92.9998H525.836ZM525.836 97V102H527.836V97H525.836ZM533.854 102H534.854V100H533.854V102ZM533.854 101V105H535.854V101H533.854ZM534.854 104H533.854V106H534.854V104ZM534.854 105V101H532.854V105H534.854ZM531.854 102H532.854V100H531.854V102ZM531.854 101V105H533.854V101H531.854ZM532.854 104H531.854V106H532.854V104ZM532.854 105V101H530.854V105H532.854ZM529.854 102H530.854V100H529.854V102ZM529.854 101V105H531.854V101H529.854ZM530.854 104H529.854V106H530.854V104ZM530.854 105V101H528.854V105H530.854Z" fill="black" fill-opacity="0.8" mask="url(#path-49-outside-1_9554_628202)"/>
</g>
</g>
</g>
<defs>
<filter id="filter0_d_9554_628202" x="120" y="-4" width="712" height="447" filterUnits="userSpaceOnUse" color-interpolation-filters="sRGB">
<feFlood flood-opacity="0" result="BackgroundImageFix"/>
<feColorMatrix in="SourceAlpha" type="matrix" values="0 0 0 0 0 0 0 0 0 0 0 0 0 0 0 0 0 0 127 0" result="hardAlpha"/>
<feOffset dy="4"/>
<feGaussianBlur stdDeviation="4"/>
<feColorMatrix type="matrix" values="0 0 0 0 0 0 0 0 0 0 0 0 0 0 0 0 0 0 0.25 0"/>
<feBlend mode="normal" in2="BackgroundImageFix" result="effect1_dropShadow_9554_628202"/>
<feBlend mode="normal" in="SourceGraphic" in2="effect1_dropShadow_9554_628202" result="shape"/>
</filter>
<filter id="filter1_d_9554_628202" x="311" y="106" width="330" height="298" filterUnits="userSpaceOnUse" color-interpolation-filters="sRGB">
<feFlood flood-opacity="0" result="BackgroundImageFix"/>
<feColorMatrix in="SourceAlpha" type="matrix" values="0 0 0 0 0 0 0 0 0 0 0 0 0 0 0 0 0 0 127 0" result="hardAlpha"/>
<feOffset dy="4"/>
<feGaussianBlur stdDeviation="2"/>
<feColorMatrix type="matrix" values="0 0 0 0 0 0 0 0 0 0 0 0 0 0 0 0 0 0 0.25 0"/>
<feBlend mode="normal" in2="BackgroundImageFix" result="effect1_dropShadow_9554_628202"/>
<feBlend mode="normal" in="SourceGraphic" in2="effect1_dropShadow_9554_628202" result="shape"/>
</filter>
<filter id="filter2_d_9554_628202" x="519" y="89" width="21.8535" height="25" filterUnits="userSpaceOnUse" color-interpolation-filters="sRGB">
<feFlood flood-opacity="0" result="BackgroundImageFix"/>
<feColorMatrix in="SourceAlpha" type="matrix" values="0 0 0 0 0 0 0 0 0 0 0 0 0 0 0 0 0 0 127 0" result="hardAlpha"/>
<feOffset dy="1"/>
<feGaussianBlur stdDeviation="1.5"/>
<feColorMatrix type="matrix" values="0 0 0 0 0 0 0 0 0 0 0 0 0 0 0 0 0 0 0.2 0"/>
<feBlend mode="normal" in2="BackgroundImageFix" result="effect1_dropShadow_9554_628202"/>
<feBlend mode="normal" in="SourceGraphic" in2="effect1_dropShadow_9554_628202" result="shape"/>
</filter>
<clipPath id="clip0_9554_628202">
<rect width="952" height="431" fill="white"/>
</clipPath>
<clipPath id="clip1_9554_628202">
<rect x="316" y="107" width="320" height="288" rx="4" fill="white"/>
</clipPath>
</defs>
</svg>
