<svg width="952" height="424" viewBox="0 0 952 424" fill="none" xmlns="http://www.w3.org/2000/svg">
<g clip-path="url(#clip0_9554_626678)">
<rect width="952" height="424" fill="#F1F1F1"/>
<g filter="url(#filter0_d_9554_626678)">
<rect width="696" height="424" transform="translate(128)" fill="white"/>
<path d="M339.432 43.432C340.552 43.432 341.368 43.652 341.88 44.092C342.392 44.532 342.648 45.152 342.648 45.952C342.648 46.424 342.54 46.868 342.324 47.284C342.116 47.692 341.76 48.024 341.256 48.28C340.76 48.536 340.084 48.664 339.228 48.664H338.244V52H337.164V43.432H339.432ZM339.336 44.356H338.244V47.74H339.108C339.924 47.74 340.532 47.608 340.932 47.344C341.332 47.08 341.532 46.632 341.532 46C341.532 45.448 341.352 45.036 340.992 44.764C340.64 44.492 340.088 44.356 339.336 44.356ZM345.342 52H344.286V42.88H345.342V52ZM349.815 45.46C350.599 45.46 351.179 45.632 351.555 45.976C351.931 46.32 352.119 46.868 352.119 47.62V52H351.351L351.147 51.088H351.099C350.819 51.44 350.523 51.7 350.211 51.868C349.899 52.036 349.475 52.12 348.939 52.12C348.355 52.12 347.871 51.968 347.487 51.664C347.103 51.352 346.911 50.868 346.911 50.212C346.911 49.572 347.163 49.08 347.667 48.736C348.171 48.384 348.947 48.192 349.995 48.16L351.087 48.124V47.74C351.087 47.204 350.971 46.832 350.739 46.624C350.507 46.416 350.179 46.312 349.755 46.312C349.419 46.312 349.099 46.364 348.795 46.468C348.491 46.564 348.207 46.676 347.943 46.804L347.619 46.012C347.899 45.86 348.231 45.732 348.615 45.628C348.999 45.516 349.399 45.46 349.815 45.46ZM351.075 48.856L350.127 48.892C349.327 48.924 348.771 49.052 348.459 49.276C348.155 49.5 348.003 49.816 348.003 50.224C348.003 50.584 348.111 50.848 348.327 51.016C348.551 51.184 348.835 51.268 349.179 51.268C349.715 51.268 350.163 51.12 350.523 50.824C350.891 50.52 351.075 50.056 351.075 49.432V48.856ZM357.202 45.448C357.97 45.448 358.55 45.636 358.942 46.012C359.334 46.388 359.53 46.988 359.53 47.812V52H358.486V47.884C358.486 46.852 358.006 46.336 357.046 46.336C356.334 46.336 355.842 46.536 355.57 46.936C355.298 47.336 355.162 47.912 355.162 48.664V52H354.106V45.568H354.958L355.114 46.444H355.174C355.382 46.108 355.67 45.86 356.038 45.7C356.406 45.532 356.794 45.448 357.202 45.448ZM364.008 45.448C364.552 45.448 365.024 45.568 365.424 45.808C365.824 46.048 366.128 46.388 366.336 46.828C366.552 47.26 366.66 47.768 366.66 48.352V48.988H362.256C362.272 49.716 362.456 50.272 362.808 50.656C363.168 51.032 363.668 51.22 364.308 51.22C364.716 51.22 365.076 51.184 365.388 51.112C365.708 51.032 366.036 50.92 366.372 50.776V51.7C366.044 51.844 365.72 51.948 365.4 52.012C365.08 52.084 364.7 52.12 364.26 52.12C363.644 52.12 363.104 51.996 362.64 51.748C362.176 51.5 361.812 51.132 361.548 50.644C361.292 50.156 361.164 49.552 361.164 48.832C361.164 48.128 361.28 47.524 361.512 47.02C361.752 46.516 362.084 46.128 362.508 45.856C362.94 45.584 363.44 45.448 364.008 45.448ZM363.996 46.312C363.492 46.312 363.092 46.476 362.796 46.804C362.508 47.124 362.336 47.572 362.28 48.148H365.556C365.548 47.604 365.42 47.164 365.172 46.828C364.924 46.484 364.532 46.312 363.996 46.312ZM370.445 51.256C370.605 51.256 370.769 51.244 370.937 51.22C371.105 51.196 371.241 51.164 371.345 51.124V51.928C371.233 51.984 371.073 52.028 370.865 52.06C370.657 52.1 370.457 52.12 370.265 52.12C369.929 52.12 369.617 52.064 369.329 51.952C369.049 51.832 368.821 51.628 368.645 51.34C368.469 51.052 368.381 50.648 368.381 50.128V46.384H367.469V45.88L368.393 45.46L368.813 44.092H369.437V45.568H371.297V46.384H369.437V50.104C369.437 50.496 369.529 50.788 369.713 50.98C369.905 51.164 370.149 51.256 370.445 51.256ZM376.821 50.224C376.821 50.848 376.589 51.32 376.125 51.64C375.661 51.96 375.037 52.12 374.253 52.12C373.805 52.12 373.417 52.084 373.089 52.012C372.769 51.94 372.485 51.84 372.237 51.712V50.752C372.493 50.88 372.801 51 373.161 51.112C373.529 51.216 373.901 51.268 374.277 51.268C374.813 51.268 375.201 51.184 375.441 51.016C375.681 50.84 375.801 50.608 375.801 50.32C375.801 50.16 375.757 50.016 375.669 49.888C375.581 49.76 375.421 49.632 375.189 49.504C374.965 49.376 374.641 49.232 374.217 49.072C373.801 48.912 373.445 48.752 373.149 48.592C372.853 48.432 372.625 48.24 372.465 48.016C372.305 47.792 372.225 47.504 372.225 47.152C372.225 46.608 372.445 46.188 372.885 45.892C373.333 45.596 373.917 45.448 374.637 45.448C375.029 45.448 375.393 45.488 375.729 45.568C376.073 45.648 376.393 45.752 376.689 45.88L376.329 46.72C376.057 46.608 375.773 46.512 375.477 46.432C375.181 46.352 374.877 46.312 374.565 46.312C374.133 46.312 373.801 46.384 373.569 46.528C373.345 46.664 373.233 46.852 373.233 47.092C373.233 47.276 373.285 47.428 373.389 47.548C373.493 47.668 373.665 47.788 373.905 47.908C374.153 48.028 374.481 48.164 374.889 48.316C375.297 48.468 375.645 48.624 375.933 48.784C376.221 48.944 376.441 49.14 376.593 49.372C376.745 49.596 376.821 49.88 376.821 50.224Z" fill="#323232"/>
<rect x="337" y="60" width="278" height="34" rx="1" fill="white"/>
<path d="M601.613 80.3625C601.512 80.3625 601.413 80.3125 601.363 80.2625L596.012 74.9125L590.662 80.2625C590.512 80.4125 590.263 80.4125 590.113 80.2625C589.962 80.1125 589.962 79.8625 590.113 79.7125L595.712 74.1125C595.862 73.9625 596.112 73.9625 596.262 74.1125L601.863 79.7125C602.012 79.8625 602.012 80.1125 601.863 80.2625C601.812 80.3125 601.713 80.3625 601.613 80.3625Z" fill="#323232"/>
<rect x="337" y="60" width="278" height="34" rx="1" stroke="#1B77AF" stroke-width="2"/>
<g filter="url(#filter1_d_9554_626678)">
<g clip-path="url(#clip1_9554_626678)">
<rect x="337" y="96" width="278" height="288" rx="4" fill="white"/>
<rect width="278" height="36" transform="translate(337 96)" fill="white"/>
<rect x="353" y="106" width="16" height="16" rx="4" fill="white"/>
<rect x="353.5" y="106.5" width="15" height="15" rx="3.5" stroke="#1B77AF"/>
<path d="M382.768 119L379.478 110.236H379.422C379.45 110.525 379.473 110.917 379.492 111.412C379.511 111.897 379.52 112.406 379.52 112.938V119H378.358V109.004H380.22L383.3 117.194H383.356L386.492 109.004H388.34V119H387.094V112.854C387.094 112.369 387.103 111.888 387.122 111.412C387.15 110.936 387.173 110.549 387.192 110.25H387.136L383.804 119H382.768ZM393.789 111.356C394.424 111.356 394.975 111.496 395.441 111.776C395.908 112.056 396.263 112.453 396.505 112.966C396.757 113.47 396.883 114.063 396.883 114.744V115.486H391.745C391.764 116.335 391.979 116.984 392.389 117.432C392.809 117.871 393.393 118.09 394.139 118.09C394.615 118.09 395.035 118.048 395.399 117.964C395.773 117.871 396.155 117.74 396.547 117.572V118.65C396.165 118.818 395.787 118.939 395.413 119.014C395.04 119.098 394.597 119.14 394.083 119.14C393.365 119.14 392.735 118.995 392.193 118.706C391.652 118.417 391.227 117.987 390.919 117.418C390.621 116.849 390.471 116.144 390.471 115.304C390.471 114.483 390.607 113.778 390.877 113.19C391.157 112.602 391.545 112.149 392.039 111.832C392.543 111.515 393.127 111.356 393.789 111.356ZM393.775 112.364C393.187 112.364 392.721 112.555 392.375 112.938C392.039 113.311 391.839 113.834 391.773 114.506H395.595C395.586 113.871 395.437 113.358 395.147 112.966C394.858 112.565 394.401 112.364 393.775 112.364ZM402.294 111.356C402.434 111.356 402.583 111.365 402.742 111.384C402.9 111.393 403.045 111.412 403.176 111.44L403.022 112.574C402.9 112.546 402.765 112.523 402.616 112.504C402.466 112.485 402.331 112.476 402.21 112.476C401.827 112.476 401.468 112.583 401.132 112.798C400.796 113.003 400.525 113.297 400.32 113.68C400.124 114.053 400.026 114.492 400.026 114.996V119H398.794V111.496H399.802L399.942 112.868H399.998C400.231 112.457 400.539 112.103 400.922 111.804C401.314 111.505 401.771 111.356 402.294 111.356ZM407.313 119.14C406.641 119.14 406.049 119.005 405.535 118.734C405.022 118.463 404.616 118.043 404.317 117.474C404.028 116.905 403.883 116.177 403.883 115.29C403.883 114.366 404.033 113.615 404.331 113.036C404.639 112.457 405.059 112.033 405.591 111.762C406.123 111.491 406.725 111.356 407.397 111.356C407.771 111.356 408.135 111.398 408.489 111.482C408.853 111.557 409.147 111.65 409.371 111.762L408.993 112.784C408.769 112.7 408.508 112.621 408.209 112.546C407.911 112.471 407.631 112.434 407.369 112.434C405.895 112.434 405.157 113.381 405.157 115.276C405.157 116.181 405.335 116.877 405.689 117.362C406.053 117.838 406.59 118.076 407.299 118.076C407.701 118.076 408.06 118.034 408.377 117.95C408.695 117.866 408.984 117.763 409.245 117.642V118.734C408.993 118.865 408.713 118.963 408.405 119.028C408.107 119.103 407.743 119.14 407.313 119.14ZM417.302 111.496V119H416.294L416.112 118.006H416.056C415.813 118.398 415.477 118.687 415.048 118.874C414.619 119.051 414.161 119.14 413.676 119.14C412.771 119.14 412.089 118.925 411.632 118.496C411.175 118.057 410.946 117.362 410.946 116.41V111.496H412.192V116.326C412.192 117.521 412.747 118.118 413.858 118.118C414.689 118.118 415.263 117.885 415.58 117.418C415.907 116.951 416.07 116.279 416.07 115.402V111.496H417.302ZM423.184 111.356C423.324 111.356 423.473 111.365 423.632 111.384C423.791 111.393 423.935 111.412 424.066 111.44L423.912 112.574C423.791 112.546 423.655 112.523 423.506 112.504C423.357 112.485 423.221 112.476 423.1 112.476C422.717 112.476 422.358 112.583 422.022 112.798C421.686 113.003 421.415 113.297 421.21 113.68C421.014 114.053 420.916 114.492 420.916 114.996V119H419.684V111.496H420.692L420.832 112.868H420.888C421.121 112.457 421.429 112.103 421.812 111.804C422.204 111.505 422.661 111.356 423.184 111.356ZM424.291 111.496H425.607L427.231 115.766C427.371 116.149 427.497 116.508 427.609 116.844C427.721 117.18 427.805 117.502 427.861 117.81H427.917C427.973 117.577 428.062 117.273 428.183 116.9C428.305 116.517 428.431 116.135 428.561 115.752L430.087 111.496H431.417L428.183 120.036C427.913 120.745 427.572 121.31 427.161 121.73C426.751 122.15 426.181 122.36 425.453 122.36C425.229 122.36 425.033 122.346 424.865 122.318C424.697 122.299 424.553 122.276 424.431 122.248V121.268C424.534 121.287 424.655 121.305 424.795 121.324C424.945 121.343 425.099 121.352 425.257 121.352C425.687 121.352 426.032 121.231 426.293 120.988C426.555 120.745 426.765 120.423 426.923 120.022L427.315 119.028L424.291 111.496Z" fill="black"/>
<rect width="278" height="36" transform="translate(337 132)" fill="white"/>
<rect x="353" y="142" width="16" height="16" rx="4" fill="white"/>
<rect x="353.5" y="142.5" width="15" height="15" rx="3.5" stroke="#1B77AF"/>
<path d="M385.4 145.004L381.83 155H380.57L377 145.004H378.316L380.57 151.416C380.719 151.827 380.841 152.214 380.934 152.578C381.037 152.933 381.125 153.273 381.2 153.6C381.265 153.273 381.349 152.928 381.452 152.564C381.555 152.2 381.681 151.808 381.83 151.388L384.07 145.004H385.4ZM389.209 147.356C389.844 147.356 390.394 147.496 390.861 147.776C391.328 148.056 391.682 148.453 391.925 148.966C392.177 149.47 392.303 150.063 392.303 150.744V151.486H387.165C387.184 152.335 387.398 152.984 387.809 153.432C388.229 153.871 388.812 154.09 389.559 154.09C390.035 154.09 390.455 154.048 390.819 153.964C391.192 153.871 391.575 153.74 391.967 153.572V154.65C391.584 154.818 391.206 154.939 390.833 155.014C390.46 155.098 390.016 155.14 389.503 155.14C388.784 155.14 388.154 154.995 387.613 154.706C387.072 154.417 386.647 153.987 386.339 153.418C386.04 152.849 385.891 152.144 385.891 151.304C385.891 150.483 386.026 149.778 386.297 149.19C386.577 148.602 386.964 148.149 387.459 147.832C387.963 147.515 388.546 147.356 389.209 147.356ZM389.195 148.364C388.607 148.364 388.14 148.555 387.795 148.938C387.459 149.311 387.258 149.834 387.193 150.506H391.015C391.006 149.871 390.856 149.358 390.567 148.966C390.278 148.565 389.82 148.364 389.195 148.364ZM397.825 147.356C398.721 147.356 399.398 147.575 399.855 148.014C400.313 148.453 400.541 149.153 400.541 150.114V155H399.323V150.198C399.323 148.994 398.763 148.392 397.643 148.392C396.813 148.392 396.239 148.625 395.921 149.092C395.604 149.559 395.445 150.231 395.445 151.108V155H394.213V147.496H395.207L395.389 148.518H395.459C395.702 148.126 396.038 147.837 396.467 147.65C396.897 147.454 397.349 147.356 397.825 147.356ZM409.14 147.496V155H408.132L407.95 154.006H407.894C407.651 154.398 407.315 154.687 406.886 154.874C406.456 155.051 405.999 155.14 405.514 155.14C404.608 155.14 403.927 154.925 403.47 154.496C403.012 154.057 402.784 153.362 402.784 152.41V147.496H404.03V152.326C404.03 153.521 404.585 154.118 405.696 154.118C406.526 154.118 407.1 153.885 407.418 153.418C407.744 152.951 407.908 152.279 407.908 151.402V147.496H409.14ZM416.408 152.928C416.408 153.656 416.137 154.207 415.596 154.58C415.055 154.953 414.327 155.14 413.412 155.14C412.889 155.14 412.437 155.098 412.054 155.014C411.681 154.93 411.349 154.813 411.06 154.664V153.544C411.359 153.693 411.718 153.833 412.138 153.964C412.567 154.085 413.001 154.146 413.44 154.146C414.065 154.146 414.518 154.048 414.798 153.852C415.078 153.647 415.218 153.376 415.218 153.04C415.218 152.853 415.167 152.685 415.064 152.536C414.961 152.387 414.775 152.237 414.504 152.088C414.243 151.939 413.865 151.771 413.37 151.584C412.885 151.397 412.469 151.211 412.124 151.024C411.779 150.837 411.513 150.613 411.326 150.352C411.139 150.091 411.046 149.755 411.046 149.344C411.046 148.709 411.303 148.219 411.816 147.874C412.339 147.529 413.02 147.356 413.86 147.356C414.317 147.356 414.742 147.403 415.134 147.496C415.535 147.589 415.909 147.711 416.254 147.86L415.834 148.84C415.517 148.709 415.185 148.597 414.84 148.504C414.495 148.411 414.14 148.364 413.776 148.364C413.272 148.364 412.885 148.448 412.614 148.616C412.353 148.775 412.222 148.994 412.222 149.274C412.222 149.489 412.283 149.666 412.404 149.806C412.525 149.946 412.726 150.086 413.006 150.226C413.295 150.366 413.678 150.525 414.154 150.702C414.63 150.879 415.036 151.061 415.372 151.248C415.708 151.435 415.965 151.663 416.142 151.934C416.319 152.195 416.408 152.527 416.408 152.928Z" fill="black"/>
<rect width="278" height="36" transform="translate(337 168)" fill="white"/>
<rect x="353" y="178" width="16" height="16" rx="4" fill="white"/>
<rect x="353.5" y="178.5" width="15" height="15" rx="3.5" stroke="#1B77AF"/>
<path d="M383.944 191H378.358V181.004H383.944V182.11H379.618V185.232H383.692V186.324H379.618V189.894H383.944V191ZM388.811 183.37C389.726 183.37 390.403 183.571 390.841 183.972C391.28 184.373 391.499 185.013 391.499 185.89V191H390.603L390.365 189.936H390.309C389.983 190.347 389.637 190.65 389.273 190.846C388.909 191.042 388.415 191.14 387.789 191.14C387.108 191.14 386.543 190.963 386.095 190.608C385.647 190.244 385.423 189.679 385.423 188.914C385.423 188.167 385.717 187.593 386.305 187.192C386.893 186.781 387.799 186.557 389.021 186.52L390.295 186.478V186.03C390.295 185.405 390.16 184.971 389.889 184.728C389.619 184.485 389.236 184.364 388.741 184.364C388.349 184.364 387.976 184.425 387.621 184.546C387.267 184.658 386.935 184.789 386.627 184.938L386.249 184.014C386.576 183.837 386.963 183.687 387.411 183.566C387.859 183.435 388.326 183.37 388.811 183.37ZM390.281 187.332L389.175 187.374C388.242 187.411 387.593 187.561 387.229 187.822C386.875 188.083 386.697 188.452 386.697 188.928C386.697 189.348 386.823 189.656 387.075 189.852C387.337 190.048 387.668 190.146 388.069 190.146C388.695 190.146 389.217 189.973 389.637 189.628C390.067 189.273 390.281 188.732 390.281 188.004V187.332ZM397.317 183.356C397.457 183.356 397.606 183.365 397.765 183.384C397.924 183.393 398.068 183.412 398.199 183.44L398.045 184.574C397.924 184.546 397.788 184.523 397.639 184.504C397.49 184.485 397.354 184.476 397.233 184.476C396.85 184.476 396.491 184.583 396.155 184.798C395.819 185.003 395.548 185.297 395.343 185.68C395.147 186.053 395.049 186.492 395.049 186.996V191H393.817V183.496H394.825L394.965 184.868H395.021C395.254 184.457 395.562 184.103 395.945 183.804C396.337 183.505 396.794 183.356 397.317 183.356ZM402.106 190.132C402.293 190.132 402.484 190.118 402.68 190.09C402.876 190.062 403.035 190.025 403.156 189.978V190.916C403.025 190.981 402.839 191.033 402.596 191.07C402.353 191.117 402.12 191.14 401.896 191.14C401.504 191.14 401.14 191.075 400.804 190.944C400.477 190.804 400.211 190.566 400.006 190.23C399.801 189.894 399.698 189.423 399.698 188.816V184.448H398.634V183.86L399.712 183.37L400.202 181.774H400.93V183.496H403.1V184.448H400.93V188.788C400.93 189.245 401.037 189.586 401.252 189.81C401.476 190.025 401.761 190.132 402.106 190.132ZM405.891 180.36V183.482C405.891 183.855 405.867 184.205 405.821 184.532H405.905C406.147 184.149 406.474 183.86 406.885 183.664C407.305 183.468 407.757 183.37 408.243 183.37C409.148 183.37 409.829 183.589 410.287 184.028C410.753 184.457 410.987 185.153 410.987 186.114V191H409.769V186.198C409.769 184.994 409.209 184.392 408.089 184.392C407.249 184.392 406.67 184.63 406.353 185.106C406.045 185.573 405.891 186.245 405.891 187.122V191H404.659V180.36H405.891Z" fill="black"/>
<rect width="278" height="36" transform="translate(337 204)" fill="white"/>
<rect x="353" y="214" width="16" height="16" rx="4" fill="white"/>
<rect x="353.5" y="214.5" width="15" height="15" rx="3.5" stroke="#1B77AF"/>
<path d="M382.768 227L379.478 218.236H379.422C379.45 218.525 379.473 218.917 379.492 219.412C379.511 219.897 379.52 220.406 379.52 220.938V227H378.358V217.004H380.22L383.3 225.194H383.356L386.492 217.004H388.34V227H387.094V220.854C387.094 220.369 387.103 219.888 387.122 219.412C387.15 218.936 387.173 218.549 387.192 218.25H387.136L383.804 227H382.768ZM393.733 219.37C394.648 219.37 395.325 219.571 395.763 219.972C396.202 220.373 396.421 221.013 396.421 221.89V227H395.525L395.287 225.936H395.231C394.905 226.347 394.559 226.65 394.195 226.846C393.831 227.042 393.337 227.14 392.711 227.14C392.03 227.14 391.465 226.963 391.017 226.608C390.569 226.244 390.345 225.679 390.345 224.914C390.345 224.167 390.639 223.593 391.227 223.192C391.815 222.781 392.721 222.557 393.943 222.52L395.217 222.478V222.03C395.217 221.405 395.082 220.971 394.811 220.728C394.541 220.485 394.158 220.364 393.663 220.364C393.271 220.364 392.898 220.425 392.543 220.546C392.189 220.658 391.857 220.789 391.549 220.938L391.171 220.014C391.498 219.837 391.885 219.687 392.333 219.566C392.781 219.435 393.248 219.37 393.733 219.37ZM395.203 223.332L394.097 223.374C393.164 223.411 392.515 223.561 392.151 223.822C391.797 224.083 391.619 224.452 391.619 224.928C391.619 225.348 391.745 225.656 391.997 225.852C392.259 226.048 392.59 226.146 392.991 226.146C393.617 226.146 394.139 225.973 394.559 225.628C394.989 225.273 395.203 224.732 395.203 224.004V223.332ZM402.239 219.356C402.379 219.356 402.528 219.365 402.687 219.384C402.845 219.393 402.99 219.412 403.121 219.44L402.967 220.574C402.845 220.546 402.71 220.523 402.561 220.504C402.411 220.485 402.276 220.476 402.155 220.476C401.772 220.476 401.413 220.583 401.077 220.798C400.741 221.003 400.47 221.297 400.265 221.68C400.069 222.053 399.971 222.492 399.971 222.996V227H398.739V219.496H399.747L399.887 220.868H399.943C400.176 220.457 400.484 220.103 400.867 219.804C401.259 219.505 401.716 219.356 402.239 219.356ZM409.408 224.928C409.408 225.656 409.137 226.207 408.596 226.58C408.055 226.953 407.327 227.14 406.412 227.14C405.889 227.14 405.437 227.098 405.054 227.014C404.681 226.93 404.349 226.813 404.06 226.664V225.544C404.359 225.693 404.718 225.833 405.138 225.964C405.567 226.085 406.001 226.146 406.44 226.146C407.065 226.146 407.518 226.048 407.798 225.852C408.078 225.647 408.218 225.376 408.218 225.04C408.218 224.853 408.167 224.685 408.064 224.536C407.961 224.387 407.775 224.237 407.504 224.088C407.243 223.939 406.865 223.771 406.37 223.584C405.885 223.397 405.469 223.211 405.124 223.024C404.779 222.837 404.513 222.613 404.326 222.352C404.139 222.091 404.046 221.755 404.046 221.344C404.046 220.709 404.303 220.219 404.816 219.874C405.339 219.529 406.02 219.356 406.86 219.356C407.317 219.356 407.742 219.403 408.134 219.496C408.535 219.589 408.909 219.711 409.254 219.86L408.834 220.84C408.517 220.709 408.185 220.597 407.84 220.504C407.495 220.411 407.14 220.364 406.776 220.364C406.272 220.364 405.885 220.448 405.614 220.616C405.353 220.775 405.222 220.994 405.222 221.274C405.222 221.489 405.283 221.666 405.404 221.806C405.525 221.946 405.726 222.086 406.006 222.226C406.295 222.366 406.678 222.525 407.154 222.702C407.63 222.879 408.036 223.061 408.372 223.248C408.708 223.435 408.965 223.663 409.142 223.934C409.319 224.195 409.408 224.527 409.408 224.928Z" fill="black"/>
<rect width="278" height="36" transform="translate(337 240)" fill="white"/>
<rect x="353" y="250" width="16" height="16" rx="4" fill="white"/>
<rect x="353.5" y="250.5" width="15" height="15" rx="3.5" stroke="#1B77AF"/>
<path d="M376.944 265.66C376.72 265.66 376.524 265.641 376.356 265.604C376.188 265.576 376.039 265.534 375.908 265.478V264.414C376.057 264.461 376.216 264.493 376.384 264.512C376.552 264.54 376.729 264.554 376.916 264.554C377.149 264.554 377.369 264.507 377.574 264.414C377.789 264.321 377.961 264.157 378.092 263.924C378.223 263.7 378.288 263.373 378.288 262.944V253.004H379.548V262.846C379.548 263.807 379.31 264.517 378.834 264.974C378.358 265.431 377.728 265.66 376.944 265.66ZM388.29 255.496V263H387.282L387.1 262.006H387.044C386.801 262.398 386.465 262.687 386.036 262.874C385.607 263.051 385.149 263.14 384.664 263.14C383.759 263.14 383.077 262.925 382.62 262.496C382.163 262.057 381.934 261.362 381.934 260.41V255.496H383.18V260.326C383.18 261.521 383.735 262.118 384.846 262.118C385.677 262.118 386.251 261.885 386.568 261.418C386.895 260.951 387.058 260.279 387.058 259.402V255.496H388.29ZM394.242 255.356C395.166 255.356 395.908 255.678 396.468 256.322C397.038 256.966 397.322 257.937 397.322 259.234C397.322 260.513 397.038 261.483 396.468 262.146C395.908 262.809 395.162 263.14 394.228 263.14C393.65 263.14 393.169 263.033 392.786 262.818C392.413 262.603 392.119 262.347 391.904 262.048H391.82C391.83 262.207 391.844 262.407 391.862 262.65C391.89 262.893 391.904 263.103 391.904 263.28V266.36H390.672V255.496H391.68L391.848 256.518H391.904C392.128 256.191 392.422 255.916 392.786 255.692C393.15 255.468 393.636 255.356 394.242 255.356ZM394.018 256.392C393.253 256.392 392.712 256.607 392.394 257.036C392.077 257.465 391.914 258.119 391.904 258.996V259.234C391.904 260.158 392.054 260.872 392.352 261.376C392.66 261.871 393.225 262.118 394.046 262.118C394.494 262.118 394.868 261.997 395.166 261.754C395.465 261.502 395.684 261.157 395.824 260.718C395.974 260.279 396.048 259.78 396.048 259.22C396.048 258.361 395.88 257.675 395.544 257.162C395.218 256.649 394.709 256.392 394.018 256.392ZM399.916 252.682C400.102 252.682 400.266 252.747 400.406 252.878C400.555 252.999 400.63 253.195 400.63 253.466C400.63 253.737 400.555 253.937 400.406 254.068C400.266 254.189 400.102 254.25 399.916 254.25C399.71 254.25 399.538 254.189 399.398 254.068C399.258 253.937 399.188 253.737 399.188 253.466C399.188 253.195 399.258 252.999 399.398 252.878C399.538 252.747 399.71 252.682 399.916 252.682ZM400.518 255.496V263H399.286V255.496H400.518ZM405.401 262.132C405.588 262.132 405.779 262.118 405.975 262.09C406.171 262.062 406.33 262.025 406.451 261.978V262.916C406.32 262.981 406.134 263.033 405.891 263.07C405.648 263.117 405.415 263.14 405.191 263.14C404.799 263.14 404.435 263.075 404.099 262.944C403.772 262.804 403.506 262.566 403.301 262.23C403.096 261.894 402.993 261.423 402.993 260.816V256.448H401.929V255.86L403.007 255.37L403.497 253.774H404.225V255.496H406.395V256.448H404.225V260.788C404.225 261.245 404.332 261.586 404.547 261.81C404.771 262.025 405.056 262.132 405.401 262.132ZM410.852 255.356C411.486 255.356 412.037 255.496 412.504 255.776C412.97 256.056 413.325 256.453 413.568 256.966C413.82 257.47 413.946 258.063 413.946 258.744V259.486H408.808C408.826 260.335 409.041 260.984 409.452 261.432C409.872 261.871 410.455 262.09 411.202 262.09C411.678 262.09 412.098 262.048 412.462 261.964C412.835 261.871 413.218 261.74 413.61 261.572V262.65C413.227 262.818 412.849 262.939 412.476 263.014C412.102 263.098 411.659 263.14 411.146 263.14C410.427 263.14 409.797 262.995 409.256 262.706C408.714 262.417 408.29 261.987 407.982 261.418C407.683 260.849 407.534 260.144 407.534 259.304C407.534 258.483 407.669 257.778 407.94 257.19C408.22 256.602 408.607 256.149 409.102 255.832C409.606 255.515 410.189 255.356 410.852 255.356ZM410.838 256.364C410.25 256.364 409.783 256.555 409.438 256.938C409.102 257.311 408.901 257.834 408.836 258.506H412.658C412.648 257.871 412.499 257.358 412.21 256.966C411.92 256.565 411.463 256.364 410.838 256.364ZM419.356 255.356C419.496 255.356 419.645 255.365 419.804 255.384C419.963 255.393 420.107 255.412 420.238 255.44L420.084 256.574C419.963 256.546 419.827 256.523 419.678 256.504C419.529 256.485 419.393 256.476 419.272 256.476C418.889 256.476 418.53 256.583 418.194 256.798C417.858 257.003 417.587 257.297 417.382 257.68C417.186 258.053 417.088 258.492 417.088 258.996V263H415.856V255.496H416.864L417.004 256.868H417.06C417.293 256.457 417.601 256.103 417.984 255.804C418.376 255.505 418.833 255.356 419.356 255.356Z" fill="black"/>
<rect width="278" height="36" transform="translate(337 276)" fill="white"/>
<rect x="353" y="286" width="16" height="16" rx="4" fill="white"/>
<rect x="353.5" y="286.5" width="15" height="15" rx="3.5" stroke="#1B77AF"/>
<path d="M384.028 296.326C384.028 297.213 383.706 297.903 383.062 298.398C382.418 298.893 381.55 299.14 380.458 299.14C379.898 299.14 379.38 299.098 378.904 299.014C378.428 298.93 378.031 298.813 377.714 298.664V297.46C378.05 297.609 378.465 297.745 378.96 297.866C379.464 297.987 379.982 298.048 380.514 298.048C381.251 298.048 381.811 297.903 382.194 297.614C382.577 297.325 382.768 296.933 382.768 296.438C382.768 296.111 382.698 295.836 382.558 295.612C382.418 295.388 382.175 295.183 381.83 294.996C381.485 294.809 381.013 294.604 380.416 294.38C379.557 294.072 378.913 293.694 378.484 293.246C378.055 292.798 377.84 292.187 377.84 291.412C377.84 290.889 377.975 290.437 378.246 290.054C378.517 289.671 378.89 289.377 379.366 289.172C379.842 288.967 380.397 288.864 381.032 288.864C381.573 288.864 382.073 288.915 382.53 289.018C382.987 289.121 383.407 289.256 383.79 289.424L383.398 290.502C383.053 290.353 382.675 290.227 382.264 290.124C381.853 290.021 381.433 289.97 381.004 289.97C380.379 289.97 379.907 290.105 379.59 290.376C379.273 290.637 379.114 290.987 379.114 291.426C379.114 291.762 379.184 292.042 379.324 292.266C379.464 292.49 379.693 292.695 380.01 292.882C380.327 293.059 380.757 293.246 381.298 293.442C381.886 293.657 382.381 293.89 382.782 294.142C383.193 294.385 383.501 294.679 383.706 295.024C383.921 295.369 384.028 295.803 384.028 296.326ZM388.716 291.37C389.63 291.37 390.307 291.571 390.746 291.972C391.184 292.373 391.404 293.013 391.404 293.89V299H390.508L390.27 297.936H390.214C389.887 298.347 389.542 298.65 389.178 298.846C388.814 299.042 388.319 299.14 387.694 299.14C387.012 299.14 386.448 298.963 386 298.608C385.552 298.244 385.328 297.679 385.328 296.914C385.328 296.167 385.622 295.593 386.21 295.192C386.798 294.781 387.703 294.557 388.926 294.52L390.2 294.478V294.03C390.2 293.405 390.064 292.971 389.794 292.728C389.523 292.485 389.14 292.364 388.646 292.364C388.254 292.364 387.88 292.425 387.526 292.546C387.171 292.658 386.84 292.789 386.532 292.938L386.154 292.014C386.48 291.837 386.868 291.687 387.316 291.566C387.764 291.435 388.23 291.37 388.716 291.37ZM390.186 295.332L389.08 295.374C388.146 295.411 387.498 295.561 387.134 295.822C386.779 296.083 386.602 296.452 386.602 296.928C386.602 297.348 386.728 297.656 386.98 297.852C387.241 298.048 387.572 298.146 387.974 298.146C388.599 298.146 389.122 297.973 389.542 297.628C389.971 297.273 390.186 296.732 390.186 296.004V295.332ZM396.227 298.132C396.414 298.132 396.605 298.118 396.801 298.09C396.997 298.062 397.156 298.025 397.277 297.978V298.916C397.147 298.981 396.96 299.033 396.717 299.07C396.475 299.117 396.241 299.14 396.017 299.14C395.625 299.14 395.261 299.075 394.925 298.944C394.599 298.804 394.333 298.566 394.127 298.23C393.922 297.894 393.819 297.423 393.819 296.816V292.448H392.755V291.86L393.833 291.37L394.323 289.774H395.051V291.496H397.221V292.448H395.051V296.788C395.051 297.245 395.159 297.586 395.373 297.81C395.597 298.025 395.882 298.132 396.227 298.132ZM405.052 291.496V299H404.044L403.862 298.006H403.806C403.563 298.398 403.227 298.687 402.798 298.874C402.369 299.051 401.911 299.14 401.426 299.14C400.521 299.14 399.839 298.925 399.382 298.496C398.925 298.057 398.696 297.362 398.696 296.41V291.496H399.942V296.326C399.942 297.521 400.497 298.118 401.608 298.118C402.439 298.118 403.013 297.885 403.33 297.418C403.657 296.951 403.82 296.279 403.82 295.402V291.496H405.052ZM410.934 291.356C411.074 291.356 411.223 291.365 411.382 291.384C411.541 291.393 411.685 291.412 411.816 291.44L411.662 292.574C411.541 292.546 411.405 292.523 411.256 292.504C411.107 292.485 410.971 292.476 410.85 292.476C410.467 292.476 410.108 292.583 409.772 292.798C409.436 293.003 409.165 293.297 408.96 293.68C408.764 294.053 408.666 294.492 408.666 294.996V299H407.434V291.496H408.442L408.582 292.868H408.638C408.871 292.457 409.179 292.103 409.562 291.804C409.954 291.505 410.411 291.356 410.934 291.356ZM416.829 291.356C417.725 291.356 418.402 291.575 418.859 292.014C419.317 292.453 419.545 293.153 419.545 294.114V299H418.327V294.198C418.327 292.994 417.767 292.392 416.647 292.392C415.817 292.392 415.243 292.625 414.925 293.092C414.608 293.559 414.449 294.231 414.449 295.108V299H413.217V291.496H414.211L414.393 292.518H414.463C414.706 292.126 415.042 291.837 415.471 291.65C415.901 291.454 416.353 291.356 416.829 291.356Z" fill="black"/>
<rect width="278" height="36" transform="translate(337 312)" fill="white"/>
<rect x="353" y="322" width="16" height="16" rx="4" fill="white"/>
<rect x="353.5" y="322.5" width="15" height="15" rx="3.5" stroke="#1B77AF"/>
<path d="M385.96 325.004V331.472C385.96 332.163 385.82 332.788 385.54 333.348C385.26 333.899 384.831 334.337 384.252 334.664C383.673 334.981 382.945 335.14 382.068 335.14C380.817 335.14 379.87 334.804 379.226 334.132C378.582 333.451 378.26 332.555 378.26 331.444V325.004H379.52V331.486C379.52 332.298 379.735 332.928 380.164 333.376C380.603 333.824 381.261 334.048 382.138 334.048C383.043 334.048 383.697 333.81 384.098 333.334C384.509 332.849 384.714 332.228 384.714 331.472V325.004H385.96ZM391.93 327.356C392.07 327.356 392.22 327.365 392.378 327.384C392.537 327.393 392.682 327.412 392.812 327.44L392.658 328.574C392.537 328.546 392.402 328.523 392.252 328.504C392.103 328.485 391.968 328.476 391.846 328.476C391.464 328.476 391.104 328.583 390.768 328.798C390.432 329.003 390.162 329.297 389.956 329.68C389.76 330.053 389.662 330.492 389.662 330.996V335H388.43V327.496H389.438L389.578 328.868H389.634C389.868 328.457 390.176 328.103 390.558 327.804C390.95 327.505 391.408 327.356 391.93 327.356ZM396.782 327.37C397.697 327.37 398.373 327.571 398.812 327.972C399.251 328.373 399.47 329.013 399.47 329.89V335H398.574L398.336 333.936H398.28C397.953 334.347 397.608 334.65 397.244 334.846C396.88 335.042 396.385 335.14 395.76 335.14C395.079 335.14 394.514 334.963 394.066 334.608C393.618 334.244 393.394 333.679 393.394 332.914C393.394 332.167 393.688 331.593 394.276 331.192C394.864 330.781 395.769 330.557 396.992 330.52L398.266 330.478V330.03C398.266 329.405 398.131 328.971 397.86 328.728C397.589 328.485 397.207 328.364 396.712 328.364C396.32 328.364 395.947 328.425 395.592 328.546C395.237 328.658 394.906 328.789 394.598 328.938L394.22 328.014C394.547 327.837 394.934 327.687 395.382 327.566C395.83 327.435 396.297 327.37 396.782 327.37ZM398.252 331.332L397.146 331.374C396.213 331.411 395.564 331.561 395.2 331.822C394.845 332.083 394.668 332.452 394.668 332.928C394.668 333.348 394.794 333.656 395.046 333.852C395.307 334.048 395.639 334.146 396.04 334.146C396.665 334.146 397.188 333.973 397.608 333.628C398.037 333.273 398.252 332.732 398.252 332.004V331.332ZM405.4 327.356C406.296 327.356 406.972 327.575 407.43 328.014C407.887 328.453 408.116 329.153 408.116 330.114V335H406.898V330.198C406.898 328.994 406.338 328.392 405.218 328.392C404.387 328.392 403.813 328.625 403.496 329.092C403.178 329.559 403.02 330.231 403.02 331.108V335H401.788V327.496H402.782L402.964 328.518H403.034C403.276 328.126 403.612 327.837 404.042 327.65C404.471 327.454 404.924 327.356 405.4 327.356ZM416.714 327.496V335H415.706L415.524 334.006H415.468C415.225 334.398 414.889 334.687 414.46 334.874C414.031 335.051 413.573 335.14 413.088 335.14C412.183 335.14 411.501 334.925 411.044 334.496C410.587 334.057 410.358 333.362 410.358 332.41V327.496H411.604V332.326C411.604 333.521 412.159 334.118 413.27 334.118C414.101 334.118 414.675 333.885 414.992 333.418C415.319 332.951 415.482 332.279 415.482 331.402V327.496H416.714ZM423.982 332.928C423.982 333.656 423.712 334.207 423.17 334.58C422.629 334.953 421.901 335.14 420.986 335.14C420.464 335.14 420.011 335.098 419.628 335.014C419.255 334.93 418.924 334.813 418.634 334.664V333.544C418.933 333.693 419.292 333.833 419.712 333.964C420.142 334.085 420.576 334.146 421.014 334.146C421.64 334.146 422.092 334.048 422.372 333.852C422.652 333.647 422.792 333.376 422.792 333.04C422.792 332.853 422.741 332.685 422.638 332.536C422.536 332.387 422.349 332.237 422.078 332.088C421.817 331.939 421.439 331.771 420.944 331.584C420.459 331.397 420.044 331.211 419.698 331.024C419.353 330.837 419.087 330.613 418.9 330.352C418.714 330.091 418.62 329.755 418.62 329.344C418.62 328.709 418.877 328.219 419.39 327.874C419.913 327.529 420.594 327.356 421.434 327.356C421.892 327.356 422.316 327.403 422.708 327.496C423.11 327.589 423.483 327.711 423.828 327.86L423.408 328.84C423.091 328.709 422.76 328.597 422.414 328.504C422.069 328.411 421.714 328.364 421.35 328.364C420.846 328.364 420.459 328.448 420.188 328.616C419.927 328.775 419.796 328.994 419.796 329.274C419.796 329.489 419.857 329.666 419.978 329.806C420.1 329.946 420.3 330.086 420.58 330.226C420.87 330.366 421.252 330.525 421.728 330.702C422.204 330.879 422.61 331.061 422.946 331.248C423.282 331.435 423.539 331.663 423.716 331.934C423.894 332.195 423.982 332.527 423.982 332.928Z" fill="black"/>
<rect width="278" height="36" transform="translate(337 348)" fill="white"/>
<rect x="353" y="358" width="16" height="16" rx="4" fill="white"/>
<rect x="353.5" y="358.5" width="15" height="15" rx="3.5" stroke="#1B77AF"/>
<path d="M386.282 371H384.812L379.464 362.698H379.408C379.427 363.025 379.45 363.431 379.478 363.916C379.506 364.401 379.52 364.901 379.52 365.414V371H378.358V361.004H379.814L385.148 369.278H385.204C385.195 369.129 385.181 368.905 385.162 368.606C385.153 368.307 385.139 367.985 385.12 367.64C385.111 367.285 385.106 366.954 385.106 366.646V361.004H386.282V371ZM391.725 363.356C392.359 363.356 392.91 363.496 393.377 363.776C393.843 364.056 394.198 364.453 394.441 364.966C394.693 365.47 394.819 366.063 394.819 366.744V367.486H389.681C389.699 368.335 389.914 368.984 390.325 369.432C390.745 369.871 391.328 370.09 392.075 370.09C392.551 370.09 392.971 370.048 393.335 369.964C393.708 369.871 394.091 369.74 394.483 369.572V370.65C394.1 370.818 393.722 370.939 393.349 371.014C392.975 371.098 392.532 371.14 392.019 371.14C391.3 371.14 390.67 370.995 390.129 370.706C389.587 370.417 389.163 369.987 388.855 369.418C388.556 368.849 388.407 368.144 388.407 367.304C388.407 366.483 388.542 365.778 388.813 365.19C389.093 364.602 389.48 364.149 389.975 363.832C390.479 363.515 391.062 363.356 391.725 363.356ZM391.711 364.364C391.123 364.364 390.656 364.555 390.311 364.938C389.975 365.311 389.774 365.834 389.709 366.506H393.531C393.521 365.871 393.372 365.358 393.083 364.966C392.793 364.565 392.336 364.364 391.711 364.364ZM400.299 363.356C401.223 363.356 401.965 363.678 402.525 364.322C403.094 364.966 403.379 365.937 403.379 367.234C403.379 368.513 403.094 369.483 402.525 370.146C401.965 370.809 401.218 371.14 400.285 371.14C399.706 371.14 399.226 371.033 398.843 370.818C398.47 370.603 398.176 370.347 397.961 370.048H397.877C397.886 370.207 397.9 370.407 397.919 370.65C397.947 370.893 397.961 371.103 397.961 371.28V374.36H396.729V363.496H397.737L397.905 364.518H397.961C398.185 364.191 398.479 363.916 398.843 363.692C399.207 363.468 399.692 363.356 400.299 363.356ZM400.075 364.392C399.31 364.392 398.768 364.607 398.451 365.036C398.134 365.465 397.97 366.119 397.961 366.996V367.234C397.961 368.158 398.11 368.872 398.409 369.376C398.717 369.871 399.282 370.118 400.103 370.118C400.551 370.118 400.924 369.997 401.223 369.754C401.522 369.502 401.741 369.157 401.881 368.718C402.03 368.279 402.105 367.78 402.105 367.22C402.105 366.361 401.937 365.675 401.601 365.162C401.274 364.649 400.766 364.392 400.075 364.392ZM407.848 370.132C408.035 370.132 408.226 370.118 408.422 370.09C408.618 370.062 408.777 370.025 408.898 369.978V370.916C408.768 370.981 408.581 371.033 408.338 371.07C408.096 371.117 407.862 371.14 407.638 371.14C407.246 371.14 406.882 371.075 406.546 370.944C406.22 370.804 405.954 370.566 405.748 370.23C405.543 369.894 405.44 369.423 405.44 368.816V364.448H404.376V363.86L405.454 363.37L405.944 361.774H406.672V363.496H408.842V364.448H406.672V368.788C406.672 369.245 406.78 369.586 406.994 369.81C407.218 370.025 407.503 370.132 407.848 370.132ZM416.673 363.496V371H415.665L415.483 370.006H415.427C415.184 370.398 414.848 370.687 414.419 370.874C413.99 371.051 413.532 371.14 413.047 371.14C412.142 371.14 411.46 370.925 411.003 370.496C410.546 370.057 410.317 369.362 410.317 368.41V363.496H411.563V368.326C411.563 369.521 412.118 370.118 413.229 370.118C414.06 370.118 414.634 369.885 414.951 369.418C415.278 368.951 415.441 368.279 415.441 367.402V363.496H416.673ZM422.667 363.356C423.563 363.356 424.24 363.575 424.697 364.014C425.155 364.453 425.383 365.153 425.383 366.114V371H424.165V366.198C424.165 364.994 423.605 364.392 422.485 364.392C421.655 364.392 421.081 364.625 420.763 365.092C420.446 365.559 420.287 366.231 420.287 367.108V371H419.055V363.496H420.049L420.231 364.518H420.301C420.544 364.126 420.88 363.837 421.309 363.65C421.739 363.454 422.191 363.356 422.667 363.356ZM430.608 363.356C431.242 363.356 431.793 363.496 432.26 363.776C432.726 364.056 433.081 364.453 433.324 364.966C433.576 365.47 433.702 366.063 433.702 366.744V367.486H428.564C428.582 368.335 428.797 368.984 429.208 369.432C429.628 369.871 430.211 370.09 430.958 370.09C431.434 370.09 431.854 370.048 432.218 369.964C432.591 369.871 432.974 369.74 433.366 369.572V370.65C432.983 370.818 432.605 370.939 432.232 371.014C431.858 371.098 431.415 371.14 430.902 371.14C430.183 371.14 429.553 370.995 429.012 370.706C428.47 370.417 428.046 369.987 427.738 369.418C427.439 368.849 427.29 368.144 427.29 367.304C427.29 366.483 427.425 365.778 427.696 365.19C427.976 364.602 428.363 364.149 428.858 363.832C429.362 363.515 429.945 363.356 430.608 363.356ZM430.594 364.364C430.006 364.364 429.539 364.555 429.194 364.938C428.858 365.311 428.657 365.834 428.592 366.506H432.414C432.404 365.871 432.255 365.358 431.966 364.966C431.676 364.565 431.219 364.364 430.594 364.364Z" fill="black"/>
</g>
<rect x="336.5" y="95.5" width="279" height="289" rx="4.5" stroke="black" stroke-opacity="0.15"/>
</g>
</g>
</g>
<defs>
<filter id="filter0_d_9554_626678" x="120" y="-4" width="712" height="440" filterUnits="userSpaceOnUse" color-interpolation-filters="sRGB">
<feFlood flood-opacity="0" result="BackgroundImageFix"/>
<feColorMatrix in="SourceAlpha" type="matrix" values="0 0 0 0 0 0 0 0 0 0 0 0 0 0 0 0 0 0 127 0" result="hardAlpha"/>
<feOffset dy="4"/>
<feGaussianBlur stdDeviation="4"/>
<feColorMatrix type="matrix" values="0 0 0 0 0 0 0 0 0 0 0 0 0 0 0 0 0 0 0.25 0"/>
<feBlend mode="normal" in2="BackgroundImageFix" result="effect1_dropShadow_9554_626678"/>
<feBlend mode="normal" in="SourceGraphic" in2="effect1_dropShadow_9554_626678" result="shape"/>
</filter>
<filter id="filter1_d_9554_626678" x="332" y="95" width="288" height="298" filterUnits="userSpaceOnUse" color-interpolation-filters="sRGB">
<feFlood flood-opacity="0" result="BackgroundImageFix"/>
<feColorMatrix in="SourceAlpha" type="matrix" values="0 0 0 0 0 0 0 0 0 0 0 0 0 0 0 0 0 0 127 0" result="hardAlpha"/>
<feOffset dy="4"/>
<feGaussianBlur stdDeviation="2"/>
<feColorMatrix type="matrix" values="0 0 0 0 0 0 0 0 0 0 0 0 0 0 0 0 0 0 0.25 0"/>
<feBlend mode="normal" in2="BackgroundImageFix" result="effect1_dropShadow_9554_626678"/>
<feBlend mode="normal" in="SourceGraphic" in2="effect1_dropShadow_9554_626678" result="shape"/>
</filter>
<clipPath id="clip0_9554_626678">
<rect width="952" height="424" fill="white"/>
</clipPath>
<clipPath id="clip1_9554_626678">
<rect x="337" y="96" width="278" height="288" rx="4" fill="white"/>
</clipPath>
</defs>
</svg>
