<svg width="412" height="200" viewBox="0 0 412 200" fill="none" xmlns="http://www.w3.org/2000/svg">
<rect width="412" height="200" fill="white"/>
<path d="M112.54 85L111.508 82.348H108.112L107.092 85H106L109.348 76.396H110.32L113.656 85H112.54ZM111.184 81.388L110.224 78.796C110.2 78.732 110.16 78.616 110.104 78.448C110.048 78.28 109.992 78.108 109.936 77.932C109.888 77.748 109.848 77.608 109.816 77.512C109.752 77.76 109.684 78.004 109.612 78.244C109.548 78.476 109.492 78.66 109.444 78.796L108.472 81.388H111.184ZM116.964 78.448C117.388 78.448 117.768 78.528 118.104 78.688C118.448 78.848 118.74 79.092 118.98 79.42H119.04L119.184 78.568H120.024V85.108C120.024 86.028 119.788 86.72 119.316 87.184C118.852 87.648 118.128 87.88 117.144 87.88C116.2 87.88 115.428 87.744 114.828 87.472V86.5C115.46 86.836 116.252 87.004 117.204 87.004C117.756 87.004 118.188 86.84 118.5 86.512C118.82 86.192 118.98 85.752 118.98 85.192V84.94C118.98 84.844 118.984 84.708 118.992 84.532C119 84.348 119.008 84.22 119.016 84.148H118.968C118.536 84.796 117.872 85.12 116.976 85.12C116.144 85.12 115.492 84.828 115.02 84.244C114.556 83.66 114.324 82.844 114.324 81.796C114.324 80.772 114.556 79.96 115.02 79.36C115.492 78.752 116.14 78.448 116.964 78.448ZM117.108 79.336C116.572 79.336 116.156 79.552 115.86 79.984C115.564 80.408 115.416 81.016 115.416 81.808C115.416 82.6 115.56 83.208 115.848 83.632C116.136 84.048 116.564 84.256 117.132 84.256C117.78 84.256 118.252 84.084 118.548 83.74C118.844 83.388 118.992 82.824 118.992 82.048V81.796C118.992 80.924 118.84 80.296 118.536 79.912C118.232 79.528 117.756 79.336 117.108 79.336ZM125.067 78.448C125.187 78.448 125.315 78.456 125.451 78.472C125.587 78.48 125.711 78.496 125.823 78.52L125.691 79.492C125.587 79.468 125.471 79.448 125.343 79.432C125.215 79.416 125.099 79.408 124.995 79.408C124.667 79.408 124.359 79.5 124.071 79.684C123.783 79.86 123.551 80.112 123.375 80.44C123.207 80.76 123.123 81.136 123.123 81.568V85H122.067V78.568H122.931L123.051 79.744H123.099C123.299 79.392 123.563 79.088 123.891 78.832C124.227 78.576 124.619 78.448 125.067 78.448ZM129.274 78.448C129.818 78.448 130.29 78.568 130.69 78.808C131.09 79.048 131.394 79.388 131.602 79.828C131.818 80.26 131.926 80.768 131.926 81.352V81.988H127.522C127.538 82.716 127.722 83.272 128.074 83.656C128.434 84.032 128.934 84.22 129.574 84.22C129.982 84.22 130.342 84.184 130.654 84.112C130.974 84.032 131.302 83.92 131.638 83.776V84.7C131.31 84.844 130.986 84.948 130.666 85.012C130.346 85.084 129.966 85.12 129.526 85.12C128.91 85.12 128.37 84.996 127.906 84.748C127.442 84.5 127.078 84.132 126.814 83.644C126.558 83.156 126.43 82.552 126.43 81.832C126.43 81.128 126.546 80.524 126.778 80.02C127.018 79.516 127.35 79.128 127.774 78.856C128.206 78.584 128.706 78.448 129.274 78.448ZM129.262 79.312C128.758 79.312 128.358 79.476 128.062 79.804C127.774 80.124 127.602 80.572 127.546 81.148H130.822C130.814 80.604 130.686 80.164 130.438 79.828C130.19 79.484 129.798 79.312 129.262 79.312ZM136.047 78.448C136.591 78.448 137.063 78.568 137.463 78.808C137.863 79.048 138.167 79.388 138.375 79.828C138.591 80.26 138.699 80.768 138.699 81.352V81.988H134.295C134.311 82.716 134.495 83.272 134.847 83.656C135.207 84.032 135.707 84.22 136.347 84.22C136.755 84.22 137.115 84.184 137.427 84.112C137.747 84.032 138.075 83.92 138.411 83.776V84.7C138.083 84.844 137.759 84.948 137.439 85.012C137.119 85.084 136.739 85.12 136.299 85.12C135.683 85.12 135.143 84.996 134.679 84.748C134.215 84.5 133.851 84.132 133.587 83.644C133.331 83.156 133.203 82.552 133.203 81.832C133.203 81.128 133.319 80.524 133.551 80.02C133.791 79.516 134.123 79.128 134.547 78.856C134.979 78.584 135.479 78.448 136.047 78.448ZM136.035 79.312C135.531 79.312 135.131 79.476 134.835 79.804C134.547 80.124 134.375 80.572 134.319 81.148H137.595C137.587 80.604 137.459 80.164 137.211 79.828C136.963 79.484 136.571 79.312 136.035 79.312ZM145.602 84.256C145.762 84.256 145.926 84.244 146.094 84.22C146.262 84.196 146.398 84.164 146.502 84.124V84.928C146.39 84.984 146.23 85.028 146.022 85.06C145.814 85.1 145.614 85.12 145.422 85.12C145.086 85.12 144.774 85.064 144.486 84.952C144.206 84.832 143.978 84.628 143.802 84.34C143.626 84.052 143.538 83.648 143.538 83.128V79.384H142.626V78.88L143.55 78.46L143.97 77.092H144.594V78.568H146.454V79.384H144.594V83.104C144.594 83.496 144.686 83.788 144.87 83.98C145.062 84.164 145.306 84.256 145.602 84.256ZM153.382 81.772C153.382 82.836 153.11 83.66 152.566 84.244C152.03 84.828 151.302 85.12 150.382 85.12C149.814 85.12 149.306 84.992 148.858 84.736C148.418 84.472 148.07 84.092 147.814 83.596C147.558 83.092 147.43 82.484 147.43 81.772C147.43 80.708 147.694 79.888 148.222 79.312C148.758 78.736 149.49 78.448 150.418 78.448C150.994 78.448 151.506 78.58 151.954 78.844C152.402 79.1 152.75 79.476 152.998 79.972C153.254 80.46 153.382 81.06 153.382 81.772ZM148.522 81.772C148.522 82.532 148.67 83.136 148.966 83.584C149.27 84.024 149.75 84.244 150.406 84.244C151.054 84.244 151.53 84.024 151.834 83.584C152.138 83.136 152.29 82.532 152.29 81.772C152.29 81.012 152.138 80.416 151.834 79.984C151.53 79.552 151.05 79.336 150.394 79.336C149.738 79.336 149.262 79.552 148.966 79.984C148.67 80.416 148.522 81.012 148.522 81.772ZM161.028 85H159.948V77.38H157.272V76.432H163.692V77.38H161.028V85ZM166.481 78.448C167.025 78.448 167.497 78.568 167.897 78.808C168.297 79.048 168.601 79.388 168.809 79.828C169.025 80.26 169.133 80.768 169.133 81.352V81.988H164.729C164.745 82.716 164.929 83.272 165.281 83.656C165.641 84.032 166.141 84.22 166.781 84.22C167.189 84.22 167.549 84.184 167.861 84.112C168.181 84.032 168.509 83.92 168.845 83.776V84.7C168.517 84.844 168.193 84.948 167.873 85.012C167.553 85.084 167.173 85.12 166.733 85.12C166.117 85.12 165.577 84.996 165.113 84.748C164.649 84.5 164.285 84.132 164.021 83.644C163.765 83.156 163.637 82.552 163.637 81.832C163.637 81.128 163.753 80.524 163.985 80.02C164.225 79.516 164.557 79.128 164.981 78.856C165.413 78.584 165.913 78.448 166.481 78.448ZM166.469 79.312C165.965 79.312 165.565 79.476 165.269 79.804C164.981 80.124 164.809 80.572 164.753 81.148H168.029C168.021 80.604 167.893 80.164 167.645 79.828C167.397 79.484 167.005 79.312 166.469 79.312ZM173.77 78.448C173.89 78.448 174.018 78.456 174.154 78.472C174.29 78.48 174.414 78.496 174.526 78.52L174.394 79.492C174.29 79.468 174.174 79.448 174.046 79.432C173.918 79.416 173.802 79.408 173.698 79.408C173.37 79.408 173.062 79.5 172.774 79.684C172.486 79.86 172.254 80.112 172.078 80.44C171.91 80.76 171.826 81.136 171.826 81.568V85H170.77V78.568H171.634L171.754 79.744H171.802C172.002 79.392 172.266 79.088 172.594 78.832C172.93 78.576 173.322 78.448 173.77 78.448ZM182.783 78.448C183.511 78.448 184.055 78.636 184.415 79.012C184.775 79.388 184.955 79.988 184.955 80.812V85H183.911V80.86C183.911 79.844 183.475 79.336 182.603 79.336C181.979 79.336 181.531 79.516 181.259 79.876C180.995 80.236 180.863 80.76 180.863 81.448V85H179.819V80.86C179.819 79.844 179.379 79.336 178.499 79.336C177.851 79.336 177.403 79.536 177.155 79.936C176.907 80.336 176.783 80.912 176.783 81.664V85H175.727V78.568H176.579L176.735 79.444H176.795C176.995 79.108 177.263 78.86 177.599 78.7C177.943 78.532 178.307 78.448 178.691 78.448C179.699 78.448 180.355 78.808 180.659 79.528H180.719C180.935 79.16 181.227 78.888 181.595 78.712C181.963 78.536 182.359 78.448 182.783 78.448ZM191.13 83.224C191.13 83.848 190.898 84.32 190.434 84.64C189.97 84.96 189.346 85.12 188.562 85.12C188.114 85.12 187.726 85.084 187.398 85.012C187.078 84.94 186.794 84.84 186.546 84.712V83.752C186.802 83.88 187.11 84 187.47 84.112C187.838 84.216 188.21 84.268 188.586 84.268C189.122 84.268 189.51 84.184 189.75 84.016C189.99 83.84 190.11 83.608 190.11 83.32C190.11 83.16 190.066 83.016 189.978 82.888C189.89 82.76 189.73 82.632 189.498 82.504C189.274 82.376 188.95 82.232 188.526 82.072C188.11 81.912 187.754 81.752 187.458 81.592C187.162 81.432 186.934 81.24 186.774 81.016C186.614 80.792 186.534 80.504 186.534 80.152C186.534 79.608 186.754 79.188 187.194 78.892C187.642 78.596 188.226 78.448 188.946 78.448C189.338 78.448 189.702 78.488 190.038 78.568C190.382 78.648 190.702 78.752 190.998 78.88L190.638 79.72C190.366 79.608 190.082 79.512 189.786 79.432C189.49 79.352 189.186 79.312 188.874 79.312C188.442 79.312 188.11 79.384 187.878 79.528C187.654 79.664 187.542 79.852 187.542 80.092C187.542 80.276 187.594 80.428 187.698 80.548C187.802 80.668 187.974 80.788 188.214 80.908C188.462 81.028 188.79 81.164 189.198 81.316C189.606 81.468 189.954 81.624 190.242 81.784C190.53 81.944 190.75 82.14 190.902 82.372C191.054 82.596 191.13 82.88 191.13 83.224Z" fill="#323232"/>
<rect x="106.5" y="92.5" width="199" height="35" rx="1.5" fill="white"/>
<path d="M121.962 109.918L124.566 105.004H125.924L122.592 111.122V115H121.332V111.178L118 105.004H119.372L121.962 109.918ZM129.32 107.356C129.955 107.356 130.506 107.496 130.972 107.776C131.439 108.056 131.794 108.453 132.036 108.966C132.288 109.47 132.414 110.063 132.414 110.744V111.486H127.276C127.295 112.335 127.51 112.984 127.92 113.432C128.34 113.871 128.924 114.09 129.67 114.09C130.146 114.09 130.566 114.048 130.93 113.964C131.304 113.871 131.686 113.74 132.078 113.572V114.65C131.696 114.818 131.318 114.939 130.944 115.014C130.571 115.098 130.128 115.14 129.614 115.14C128.896 115.14 128.266 114.995 127.724 114.706C127.183 114.417 126.758 113.987 126.45 113.418C126.152 112.849 126.002 112.144 126.002 111.304C126.002 110.483 126.138 109.778 126.408 109.19C126.688 108.602 127.076 108.149 127.57 107.832C128.074 107.515 128.658 107.356 129.32 107.356ZM129.306 108.364C128.718 108.364 128.252 108.555 127.906 108.938C127.57 109.311 127.37 109.834 127.304 110.506H131.126C131.117 109.871 130.968 109.358 130.678 108.966C130.389 108.565 129.932 108.364 129.306 108.364ZM139.211 112.928C139.211 113.656 138.94 114.207 138.399 114.58C137.857 114.953 137.129 115.14 136.215 115.14C135.692 115.14 135.239 115.098 134.857 115.014C134.483 114.93 134.152 114.813 133.863 114.664V113.544C134.161 113.693 134.521 113.833 134.941 113.964C135.37 114.085 135.804 114.146 136.243 114.146C136.868 114.146 137.321 114.048 137.601 113.852C137.881 113.647 138.021 113.376 138.021 113.04C138.021 112.853 137.969 112.685 137.867 112.536C137.764 112.387 137.577 112.237 137.307 112.088C137.045 111.939 136.667 111.771 136.173 111.584C135.687 111.397 135.272 111.211 134.927 111.024C134.581 110.837 134.315 110.613 134.129 110.352C133.942 110.091 133.849 109.755 133.849 109.344C133.849 108.709 134.105 108.219 134.619 107.874C135.141 107.529 135.823 107.356 136.663 107.356C137.12 107.356 137.545 107.403 137.937 107.496C138.338 107.589 138.711 107.711 139.057 107.86L138.637 108.84C138.319 108.709 137.988 108.597 137.643 108.504C137.297 108.411 136.943 108.364 136.579 108.364C136.075 108.364 135.687 108.448 135.417 108.616C135.155 108.775 135.025 108.994 135.025 109.274C135.025 109.489 135.085 109.666 135.207 109.806C135.328 109.946 135.529 110.086 135.809 110.226C136.098 110.366 136.481 110.525 136.957 110.702C137.433 110.879 137.839 111.061 138.175 111.248C138.511 111.435 138.767 111.663 138.945 111.934C139.122 112.195 139.211 112.527 139.211 112.928Z" fill="black"/>
<path d="M286.012 113.362C285.912 113.362 285.812 113.312 285.762 113.262L280.113 107.662C279.962 107.512 279.962 107.262 280.113 107.112C280.263 106.963 280.512 106.963 280.662 107.112L286.012 112.462L291.312 107.112C291.462 106.963 291.713 106.963 291.863 107.112C292.012 107.262 292.012 107.512 291.863 107.662L286.262 113.262C286.162 113.312 286.112 113.362 286.012 113.362Z" fill="#323232"/>
<rect x="106.5" y="92.5" width="199" height="35" rx="1.5" stroke="#939393"/>
</svg>
