<svg width="412" height="430" viewBox="0 0 412 430" fill="none" xmlns="http://www.w3.org/2000/svg">
<rect width="412" height="430" fill="white"/>
<path d="M70.944 37L68.124 29.488H68.076C68.1 29.736 68.12 30.072 68.136 30.496C68.152 30.912 68.16 31.348 68.16 31.804V37H67.164V28.432H68.76L71.4 35.452H71.448L74.136 28.432H75.72V37H74.652V31.732C74.652 31.316 74.66 30.904 74.676 30.496C74.7 30.088 74.72 29.756 74.736 29.5H74.688L71.832 37H70.944ZM80.3907 30.448C80.9347 30.448 81.4067 30.568 81.8067 30.808C82.2067 31.048 82.5107 31.388 82.7187 31.828C82.9347 32.26 83.0427 32.768 83.0427 33.352V33.988H78.6387C78.6547 34.716 78.8387 35.272 79.1907 35.656C79.5507 36.032 80.0507 36.22 80.6907 36.22C81.0987 36.22 81.4587 36.184 81.7707 36.112C82.0907 36.032 82.4187 35.92 82.7547 35.776V36.7C82.4267 36.844 82.1027 36.948 81.7827 37.012C81.4627 37.084 81.0827 37.12 80.6427 37.12C80.0267 37.12 79.4867 36.996 79.0227 36.748C78.5587 36.5 78.1947 36.132 77.9307 35.644C77.6747 35.156 77.5467 34.552 77.5467 33.832C77.5467 33.128 77.6627 32.524 77.8947 32.02C78.1347 31.516 78.4667 31.128 78.8907 30.856C79.3227 30.584 79.8227 30.448 80.3907 30.448ZM80.3787 31.312C79.8747 31.312 79.4747 31.476 79.1787 31.804C78.8907 32.124 78.7187 32.572 78.6627 33.148H81.9387C81.9307 32.604 81.8027 32.164 81.5547 31.828C81.3067 31.484 80.9147 31.312 80.3787 31.312ZM87.1162 30.46C87.9002 30.46 88.4802 30.632 88.8562 30.976C89.2322 31.32 89.4202 31.868 89.4202 32.62V37H88.6522L88.4482 36.088H88.4002C88.1202 36.44 87.8242 36.7 87.5122 36.868C87.2002 37.036 86.7762 37.12 86.2402 37.12C85.6562 37.12 85.1722 36.968 84.7882 36.664C84.4042 36.352 84.2122 35.868 84.2122 35.212C84.2122 34.572 84.4642 34.08 84.9682 33.736C85.4722 33.384 86.2482 33.192 87.2962 33.16L88.3882 33.124V32.74C88.3882 32.204 88.2722 31.832 88.0402 31.624C87.8082 31.416 87.4802 31.312 87.0562 31.312C86.7202 31.312 86.4002 31.364 86.0962 31.468C85.7922 31.564 85.5082 31.676 85.2442 31.804L84.9202 31.012C85.2002 30.86 85.5322 30.732 85.9162 30.628C86.3002 30.516 86.7002 30.46 87.1162 30.46ZM88.3762 33.856L87.4282 33.892C86.6282 33.924 86.0722 34.052 85.7602 34.276C85.4562 34.5 85.3042 34.816 85.3042 35.224C85.3042 35.584 85.4122 35.848 85.6282 36.016C85.8522 36.184 86.1362 36.268 86.4802 36.268C87.0162 36.268 87.4642 36.12 87.8242 35.824C88.1922 35.52 88.3762 35.056 88.3762 34.432V33.856ZM95.5947 35.224C95.5947 35.848 95.3627 36.32 94.8987 36.64C94.4347 36.96 93.8107 37.12 93.0267 37.12C92.5787 37.12 92.1907 37.084 91.8627 37.012C91.5427 36.94 91.2587 36.84 91.0107 36.712V35.752C91.2667 35.88 91.5747 36 91.9347 36.112C92.3027 36.216 92.6747 36.268 93.0507 36.268C93.5867 36.268 93.9747 36.184 94.2147 36.016C94.4547 35.84 94.5747 35.608 94.5747 35.32C94.5747 35.16 94.5307 35.016 94.4427 34.888C94.3547 34.76 94.1947 34.632 93.9627 34.504C93.7387 34.376 93.4147 34.232 92.9907 34.072C92.5747 33.912 92.2187 33.752 91.9227 33.592C91.6267 33.432 91.3987 33.24 91.2387 33.016C91.0787 32.792 90.9987 32.504 90.9987 32.152C90.9987 31.608 91.2187 31.188 91.6587 30.892C92.1067 30.596 92.6907 30.448 93.4107 30.448C93.8027 30.448 94.1667 30.488 94.5027 30.568C94.8467 30.648 95.1667 30.752 95.4627 30.88L95.1027 31.72C94.8307 31.608 94.5467 31.512 94.2507 31.432C93.9547 31.352 93.6507 31.312 93.3387 31.312C92.9067 31.312 92.5747 31.384 92.3427 31.528C92.1187 31.664 92.0067 31.852 92.0067 32.092C92.0067 32.276 92.0587 32.428 92.1627 32.548C92.2667 32.668 92.4387 32.788 92.6787 32.908C92.9267 33.028 93.2547 33.164 93.6627 33.316C94.0707 33.468 94.4187 33.624 94.7067 33.784C94.9947 33.944 95.2147 34.14 95.3667 34.372C95.5187 34.596 95.5947 34.88 95.5947 35.224ZM102.525 30.568V37H101.661L101.505 36.148H101.457C101.249 36.484 100.961 36.732 100.593 36.892C100.225 37.044 99.8329 37.12 99.4169 37.12C98.6409 37.12 98.0569 36.936 97.6649 36.568C97.2729 36.192 97.0769 35.596 97.0769 34.78V30.568H98.1449V34.708C98.1449 35.732 98.6209 36.244 99.5729 36.244C100.285 36.244 100.777 36.044 101.049 35.644C101.329 35.244 101.469 34.668 101.469 33.916V30.568H102.525ZM107.567 30.448C107.687 30.448 107.815 30.456 107.951 30.472C108.087 30.48 108.211 30.496 108.323 30.52L108.191 31.492C108.087 31.468 107.971 31.448 107.843 31.432C107.715 31.416 107.599 31.408 107.495 31.408C107.167 31.408 106.859 31.5 106.571 31.684C106.283 31.86 106.051 32.112 105.875 32.44C105.707 32.76 105.623 33.136 105.623 33.568V37H104.567V30.568H105.431L105.551 31.744H105.599C105.799 31.392 106.063 31.088 106.391 30.832C106.727 30.576 107.119 30.448 107.567 30.448ZM111.774 30.448C112.318 30.448 112.79 30.568 113.19 30.808C113.59 31.048 113.894 31.388 114.102 31.828C114.318 32.26 114.426 32.768 114.426 33.352V33.988H110.022C110.038 34.716 110.222 35.272 110.574 35.656C110.934 36.032 111.434 36.22 112.074 36.22C112.482 36.22 112.842 36.184 113.154 36.112C113.474 36.032 113.802 35.92 114.138 35.776V36.7C113.81 36.844 113.486 36.948 113.166 37.012C112.846 37.084 112.466 37.12 112.026 37.12C111.41 37.12 110.87 36.996 110.406 36.748C109.942 36.5 109.578 36.132 109.314 35.644C109.058 35.156 108.93 34.552 108.93 33.832C108.93 33.128 109.046 32.524 109.278 32.02C109.518 31.516 109.85 31.128 110.274 30.856C110.706 30.584 111.206 30.448 111.774 30.448ZM111.762 31.312C111.258 31.312 110.858 31.476 110.562 31.804C110.274 32.124 110.102 32.572 110.046 33.148H113.322C113.314 32.604 113.186 32.164 112.938 31.828C112.69 31.484 112.298 31.312 111.762 31.312ZM120.251 35.224C120.251 35.848 120.019 36.32 119.555 36.64C119.091 36.96 118.467 37.12 117.683 37.12C117.235 37.12 116.847 37.084 116.519 37.012C116.199 36.94 115.915 36.84 115.667 36.712V35.752C115.923 35.88 116.231 36 116.591 36.112C116.959 36.216 117.331 36.268 117.707 36.268C118.243 36.268 118.631 36.184 118.871 36.016C119.111 35.84 119.231 35.608 119.231 35.32C119.231 35.16 119.187 35.016 119.099 34.888C119.011 34.76 118.851 34.632 118.619 34.504C118.395 34.376 118.071 34.232 117.647 34.072C117.231 33.912 116.875 33.752 116.579 33.592C116.283 33.432 116.055 33.24 115.895 33.016C115.735 32.792 115.655 32.504 115.655 32.152C115.655 31.608 115.875 31.188 116.315 30.892C116.763 30.596 117.347 30.448 118.067 30.448C118.459 30.448 118.823 30.488 119.159 30.568C119.503 30.648 119.823 30.752 120.119 30.88L119.759 31.72C119.487 31.608 119.203 31.512 118.907 31.432C118.611 31.352 118.307 31.312 117.995 31.312C117.563 31.312 117.231 31.384 116.999 31.528C116.775 31.664 116.663 31.852 116.663 32.092C116.663 32.276 116.715 32.428 116.819 32.548C116.923 32.668 117.095 32.788 117.335 32.908C117.583 33.028 117.911 33.164 118.319 33.316C118.727 33.468 119.075 33.624 119.363 33.784C119.651 33.944 119.871 34.14 120.023 34.372C120.175 34.596 120.251 34.88 120.251 35.224Z" fill="#323232"/>
<rect x="67" y="45" width="278" height="34" rx="1" fill="white"/>
<path d="M331.613 65.3625C331.512 65.3625 331.413 65.3125 331.363 65.2625L326.012 59.9125L320.662 65.2625C320.512 65.4125 320.263 65.4125 320.113 65.2625C319.962 65.1125 319.962 64.8625 320.113 64.7125L325.712 59.1125C325.862 58.9625 326.112 58.9625 326.262 59.1125L331.863 64.7125C332.012 64.8625 332.012 65.1125 331.863 65.2625C331.812 65.3125 331.713 65.3625 331.613 65.3625Z" fill="#323232"/>
<rect x="67" y="45" width="278" height="34" rx="1" stroke="#1B77AF" stroke-width="2"/>
<g filter="url(#filter0_d_8160_481793)">
<g clip-path="url(#clip0_8160_481793)">
<rect x="67" y="81" width="278" height="324" rx="4" fill="white"/>
<rect width="278" height="36" transform="translate(67 81)" fill="white"/>
<rect x="83" y="91" width="16" height="16" rx="4" fill="white"/>
<rect x="83.5" y="91.5" width="15" height="15" rx="3.5" stroke="#1B77AF"/>
<path d="M114.63 104L113.426 100.906H109.464L108.274 104H107L110.906 93.962H112.04L115.932 104H114.63ZM113.048 99.786L111.928 96.762C111.9 96.6873 111.853 96.552 111.788 96.356C111.723 96.16 111.657 95.9593 111.592 95.754C111.536 95.5393 111.489 95.376 111.452 95.264C111.377 95.5533 111.298 95.838 111.214 96.118C111.139 96.3887 111.074 96.6033 111.018 96.762L109.884 99.786H113.048ZM119.791 96.356C120.286 96.356 120.729 96.4493 121.121 96.636C121.523 96.8227 121.863 97.1073 122.143 97.49H122.213L122.381 96.496H123.361V104.126C123.361 105.199 123.086 106.007 122.535 106.548C121.994 107.089 121.149 107.36 120.001 107.36C118.9 107.36 117.999 107.201 117.299 106.884V105.75C118.037 106.142 118.961 106.338 120.071 106.338C120.715 106.338 121.219 106.147 121.583 105.764C121.957 105.391 122.143 104.877 122.143 104.224V103.93C122.143 103.818 122.148 103.659 122.157 103.454C122.167 103.239 122.176 103.09 122.185 103.006H122.129C121.625 103.762 120.851 104.14 119.805 104.14C118.835 104.14 118.074 103.799 117.523 103.118C116.982 102.437 116.711 101.485 116.711 100.262C116.711 99.0673 116.982 98.12 117.523 97.42C118.074 96.7107 118.83 96.356 119.791 96.356ZM119.959 97.392C119.334 97.392 118.849 97.644 118.503 98.148C118.158 98.6427 117.985 99.352 117.985 100.276C117.985 101.2 118.153 101.909 118.489 102.404C118.825 102.889 119.325 103.132 119.987 103.132C120.743 103.132 121.294 102.931 121.639 102.53C121.985 102.119 122.157 101.461 122.157 100.556V100.262C122.157 99.2447 121.98 98.512 121.625 98.064C121.271 97.616 120.715 97.392 119.959 97.392ZM128.643 96.356C129.277 96.356 129.828 96.496 130.295 96.776C130.761 97.056 131.116 97.4527 131.359 97.966C131.611 98.47 131.737 99.0627 131.737 99.744V100.486H126.599C126.617 101.335 126.832 101.984 127.243 102.432C127.663 102.871 128.246 103.09 128.993 103.09C129.469 103.09 129.889 103.048 130.253 102.964C130.626 102.871 131.009 102.74 131.401 102.572V103.65C131.018 103.818 130.64 103.939 130.267 104.014C129.893 104.098 129.45 104.14 128.937 104.14C128.218 104.14 127.588 103.995 127.047 103.706C126.505 103.417 126.081 102.987 125.773 102.418C125.474 101.849 125.325 101.144 125.325 100.304C125.325 99.4827 125.46 98.778 125.731 98.19C126.011 97.602 126.398 97.1493 126.893 96.832C127.397 96.5147 127.98 96.356 128.643 96.356ZM128.629 97.364C128.041 97.364 127.574 97.5553 127.229 97.938C126.893 98.3113 126.692 98.834 126.627 99.506H130.449C130.439 98.8713 130.29 98.358 130.001 97.966C129.711 97.5647 129.254 97.364 128.629 97.364ZM137.259 96.356C138.155 96.356 138.832 96.5753 139.289 97.014C139.746 97.4527 139.975 98.1527 139.975 99.114V104H138.757V99.198C138.757 97.994 138.197 97.392 137.077 97.392C136.246 97.392 135.672 97.6253 135.355 98.092C135.038 98.5587 134.879 99.2307 134.879 100.108V104H133.647V96.496H134.641L134.823 97.518H134.893C135.136 97.126 135.472 96.8367 135.901 96.65C136.33 96.454 136.783 96.356 137.259 96.356ZM144.807 103.132C144.994 103.132 145.185 103.118 145.381 103.09C145.577 103.062 145.736 103.025 145.857 102.978V103.916C145.727 103.981 145.54 104.033 145.297 104.07C145.055 104.117 144.821 104.14 144.597 104.14C144.205 104.14 143.841 104.075 143.505 103.944C143.179 103.804 142.913 103.566 142.707 103.23C142.502 102.894 142.399 102.423 142.399 101.816V97.448H141.335V96.86L142.413 96.37L142.903 94.774H143.631V96.496H145.801V97.448H143.631V101.788C143.631 102.245 143.739 102.586 143.953 102.81C144.177 103.025 144.462 103.132 144.807 103.132ZM153.979 104H150.367V103.272L151.543 103.006V95.012L150.367 94.732V94.004H153.979V94.732L152.803 95.012V103.006L153.979 103.272V104ZM163.917 98.904C163.917 100.593 163.455 101.867 162.531 102.726C161.616 103.575 160.337 104 158.695 104H155.909V94.004H158.989C159.987 94.004 160.855 94.1907 161.593 94.564C162.339 94.9373 162.913 95.488 163.315 96.216C163.716 96.944 163.917 97.84 163.917 98.904ZM162.587 98.946C162.587 97.6113 162.255 96.636 161.593 96.02C160.939 95.3947 160.011 95.082 158.807 95.082H157.169V102.922H158.527C161.233 102.922 162.587 101.597 162.587 98.946ZM168.974 100.164C168.974 99.0253 169.137 97.9287 169.464 96.874C169.8 95.81 170.323 94.8533 171.032 94.004H172.194C171.541 94.8813 171.046 95.8473 170.71 96.902C170.383 97.9567 170.22 99.0393 170.22 100.15C170.22 101.233 170.383 102.297 170.71 103.342C171.046 104.378 171.536 105.335 172.18 106.212H171.032C170.323 105.391 169.8 104.462 169.464 103.426C169.137 102.381 168.974 101.293 168.974 100.164ZM175.019 93.36V98.918C175.019 99.0673 175.01 99.2633 174.991 99.506C174.982 99.7487 174.973 99.9587 174.963 100.136H175.019C175.075 100.061 175.159 99.954 175.271 99.814C175.383 99.674 175.495 99.534 175.607 99.394C175.729 99.2447 175.831 99.1233 175.915 99.03L178.309 96.496H179.751L176.713 99.702L179.961 104H178.477L175.873 100.5L175.019 101.242V104H173.801V93.36H175.019ZM184.178 96.356C184.813 96.356 185.363 96.496 185.83 96.776C186.297 97.056 186.651 97.4527 186.894 97.966C187.146 98.47 187.272 99.0627 187.272 99.744V100.486H182.134C182.153 101.335 182.367 101.984 182.778 102.432C183.198 102.871 183.781 103.09 184.528 103.09C185.004 103.09 185.424 103.048 185.788 102.964C186.161 102.871 186.544 102.74 186.936 102.572V103.65C186.553 103.818 186.175 103.939 185.802 104.014C185.429 104.098 184.985 104.14 184.472 104.14C183.753 104.14 183.123 103.995 182.582 103.706C182.041 103.417 181.616 102.987 181.308 102.418C181.009 101.849 180.86 101.144 180.86 100.304C180.86 99.4827 180.995 98.778 181.266 98.19C181.546 97.602 181.933 97.1493 182.428 96.832C182.932 96.5147 183.515 96.356 184.178 96.356ZM184.164 97.364C183.576 97.364 183.109 97.5553 182.764 97.938C182.428 98.3113 182.227 98.834 182.162 99.506H185.984C185.975 98.8713 185.825 98.358 185.536 97.966C185.247 97.5647 184.789 97.364 184.164 97.364ZM187.733 96.496H189.049L190.673 100.766C190.813 101.149 190.939 101.508 191.051 101.844C191.163 102.18 191.247 102.502 191.303 102.81H191.359C191.415 102.577 191.503 102.273 191.625 101.9C191.746 101.517 191.872 101.135 192.003 100.752L193.529 96.496H194.859L191.625 105.036C191.354 105.745 191.013 106.31 190.603 106.73C190.192 107.15 189.623 107.36 188.895 107.36C188.671 107.36 188.475 107.346 188.307 107.318C188.139 107.299 187.994 107.276 187.873 107.248V106.268C187.975 106.287 188.097 106.305 188.237 106.324C188.386 106.343 188.54 106.352 188.699 106.352C189.128 106.352 189.473 106.231 189.735 105.988C189.996 105.745 190.206 105.423 190.365 105.022L190.757 104.028L187.733 96.496ZM198.495 100.164C198.495 101.293 198.327 102.381 197.991 103.426C197.665 104.462 197.147 105.391 196.437 106.212H195.289C195.933 105.335 196.419 104.378 196.745 103.342C197.081 102.297 197.249 101.233 197.249 100.15C197.249 99.0393 197.081 97.9567 196.745 96.902C196.419 95.8473 195.929 94.8813 195.275 94.004H196.437C197.147 94.8533 197.665 95.81 197.991 96.874C198.327 97.9287 198.495 99.0253 198.495 100.164Z" fill="black"/>
<rect width="278" height="36" transform="translate(67 117)" fill="white"/>
<rect x="83" y="127" width="16" height="16" rx="4" fill="white"/>
<rect x="83.5" y="127.5" width="15" height="15" rx="3.5" stroke="#1B77AF"/>
<path d="M114.63 140L113.426 136.906H109.464L108.274 140H107L110.906 129.962H112.04L115.932 140H114.63ZM113.048 135.786L111.928 132.762C111.9 132.687 111.853 132.552 111.788 132.356C111.723 132.16 111.657 131.959 111.592 131.754C111.536 131.539 111.489 131.376 111.452 131.264C111.377 131.553 111.298 131.838 111.214 132.118C111.139 132.389 111.074 132.603 111.018 132.762L109.884 135.786H113.048ZM120.743 132.356C121.639 132.356 122.316 132.575 122.773 133.014C123.231 133.453 123.459 134.153 123.459 135.114V140H122.241V135.198C122.241 133.994 121.681 133.392 120.561 133.392C119.731 133.392 119.157 133.625 118.839 134.092C118.522 134.559 118.363 135.231 118.363 136.108V140H117.131V132.496H118.125L118.307 133.518H118.377C118.62 133.126 118.956 132.837 119.385 132.65C119.815 132.454 120.267 132.356 120.743 132.356ZM130.672 137.928C130.672 138.656 130.401 139.207 129.86 139.58C129.318 139.953 128.59 140.14 127.676 140.14C127.153 140.14 126.7 140.098 126.318 140.014C125.944 139.93 125.613 139.813 125.324 139.664V138.544C125.622 138.693 125.982 138.833 126.402 138.964C126.831 139.085 127.265 139.146 127.704 139.146C128.329 139.146 128.782 139.048 129.062 138.852C129.342 138.647 129.482 138.376 129.482 138.04C129.482 137.853 129.43 137.685 129.328 137.536C129.225 137.387 129.038 137.237 128.768 137.088C128.506 136.939 128.128 136.771 127.634 136.584C127.148 136.397 126.733 136.211 126.388 136.024C126.042 135.837 125.776 135.613 125.59 135.352C125.403 135.091 125.31 134.755 125.31 134.344C125.31 133.709 125.566 133.219 126.08 132.874C126.602 132.529 127.284 132.356 128.124 132.356C128.581 132.356 129.006 132.403 129.398 132.496C129.799 132.589 130.172 132.711 130.518 132.86L130.098 133.84C129.78 133.709 129.449 133.597 129.104 133.504C128.758 133.411 128.404 133.364 128.04 133.364C127.536 133.364 127.148 133.448 126.878 133.616C126.616 133.775 126.486 133.994 126.486 134.274C126.486 134.489 126.546 134.666 126.668 134.806C126.789 134.946 126.99 135.086 127.27 135.226C127.559 135.366 127.942 135.525 128.418 135.702C128.894 135.879 129.3 136.061 129.636 136.248C129.972 136.435 130.228 136.663 130.406 136.934C130.583 137.195 130.672 137.527 130.672 137.928ZM138.617 139.986L137.329 135.758C137.208 135.375 137.1 135.002 137.007 134.638C136.914 134.274 136.848 133.985 136.811 133.77H136.755C136.718 133.985 136.657 134.274 136.573 134.638C136.489 135.002 136.382 135.38 136.251 135.772L134.907 139.986H133.507L131.449 132.482H132.723L133.759 136.486C133.862 136.887 133.96 137.293 134.053 137.704C134.146 138.115 134.212 138.455 134.249 138.726H134.305C134.333 138.567 134.375 138.371 134.431 138.138C134.487 137.905 134.548 137.662 134.613 137.41C134.678 137.149 134.744 136.915 134.809 136.71L136.139 132.482H137.483L138.771 136.71C138.864 137.037 138.962 137.387 139.065 137.76C139.168 138.133 139.238 138.451 139.275 138.712H139.331C139.359 138.479 139.42 138.157 139.513 137.746C139.616 137.335 139.723 136.915 139.835 136.486L140.885 132.482H142.145L140.059 139.986H138.617ZM146.389 132.356C147.023 132.356 147.574 132.496 148.041 132.776C148.507 133.056 148.862 133.453 149.105 133.966C149.357 134.47 149.483 135.063 149.483 135.744V136.486H144.345C144.363 137.335 144.578 137.984 144.989 138.432C145.409 138.871 145.992 139.09 146.739 139.09C147.215 139.09 147.635 139.048 147.999 138.964C148.372 138.871 148.755 138.74 149.147 138.572V139.65C148.764 139.818 148.386 139.939 148.013 140.014C147.639 140.098 147.196 140.14 146.683 140.14C145.964 140.14 145.334 139.995 144.793 139.706C144.251 139.417 143.827 138.987 143.519 138.418C143.22 137.849 143.071 137.144 143.071 136.304C143.071 135.483 143.206 134.778 143.477 134.19C143.757 133.602 144.144 133.149 144.639 132.832C145.143 132.515 145.726 132.356 146.389 132.356ZM146.375 133.364C145.787 133.364 145.32 133.555 144.975 133.938C144.639 134.311 144.438 134.834 144.373 135.506H148.195C148.185 134.871 148.036 134.358 147.747 133.966C147.457 133.565 147 133.364 146.375 133.364ZM154.893 132.356C155.033 132.356 155.182 132.365 155.341 132.384C155.5 132.393 155.644 132.412 155.775 132.44L155.621 133.574C155.5 133.546 155.364 133.523 155.215 133.504C155.066 133.485 154.93 133.476 154.809 133.476C154.426 133.476 154.067 133.583 153.731 133.798C153.395 134.003 153.124 134.297 152.919 134.68C152.723 135.053 152.625 135.492 152.625 135.996V140H151.393V132.496H152.401L152.541 133.868H152.597C152.83 133.457 153.138 133.103 153.521 132.804C153.913 132.505 154.37 132.356 154.893 132.356ZM159.801 132.356C160.436 132.356 160.986 132.496 161.453 132.776C161.92 133.056 162.274 133.453 162.517 133.966C162.769 134.47 162.895 135.063 162.895 135.744V136.486H157.757C157.776 137.335 157.99 137.984 158.401 138.432C158.821 138.871 159.404 139.09 160.151 139.09C160.627 139.09 161.047 139.048 161.411 138.964C161.784 138.871 162.167 138.74 162.559 138.572V139.65C162.176 139.818 161.798 139.939 161.425 140.014C161.052 140.098 160.608 140.14 160.095 140.14C159.376 140.14 158.746 139.995 158.205 139.706C157.664 139.417 157.239 138.987 156.931 138.418C156.632 137.849 156.483 137.144 156.483 136.304C156.483 135.483 156.618 134.778 156.889 134.19C157.169 133.602 157.556 133.149 158.051 132.832C158.555 132.515 159.138 132.356 159.801 132.356ZM159.787 133.364C159.199 133.364 158.732 133.555 158.387 133.938C158.051 134.311 157.85 134.834 157.785 135.506H161.607C161.598 134.871 161.448 134.358 161.159 133.966C160.87 133.565 160.412 133.364 159.787 133.364ZM167.465 140.14C166.532 140.14 165.785 139.818 165.225 139.174C164.665 138.521 164.385 137.55 164.385 136.262C164.385 134.974 164.665 134.003 165.225 133.35C165.795 132.687 166.546 132.356 167.479 132.356C168.058 132.356 168.529 132.463 168.893 132.678C169.267 132.893 169.57 133.154 169.803 133.462H169.887C169.869 133.341 169.85 133.163 169.831 132.93C169.813 132.687 169.803 132.496 169.803 132.356V129.36H171.035V140H170.041L169.859 138.992H169.803C169.579 139.309 169.281 139.58 168.907 139.804C168.534 140.028 168.053 140.14 167.465 140.14ZM167.661 139.118C168.455 139.118 169.01 138.903 169.327 138.474C169.654 138.035 169.817 137.377 169.817 136.5V136.276C169.817 135.343 169.663 134.629 169.355 134.134C169.047 133.63 168.478 133.378 167.647 133.378C166.985 133.378 166.485 133.644 166.149 134.176C165.823 134.699 165.659 135.403 165.659 136.29C165.659 137.186 165.823 137.881 166.149 138.376C166.485 138.871 166.989 139.118 167.661 139.118Z" fill="black"/>
<rect width="278" height="36" transform="translate(67 153)" fill="white"/>
<rect x="83" y="163" width="16" height="16" rx="4" fill="white"/>
<rect x="83.5" y="163.5" width="15" height="15" rx="3.5" stroke="#1B77AF"/>
<path d="M112.642 166.97C111.569 166.97 110.724 167.329 110.108 168.048C109.492 168.767 109.184 169.751 109.184 171.002C109.184 172.243 109.469 173.228 110.038 173.956C110.617 174.675 111.48 175.034 112.628 175.034C113.057 175.034 113.468 174.997 113.86 174.922C114.252 174.847 114.639 174.754 115.022 174.642V175.734C114.649 175.874 114.261 175.977 113.86 176.042C113.468 176.107 112.997 176.14 112.446 176.14C111.429 176.14 110.579 175.93 109.898 175.51C109.217 175.09 108.703 174.493 108.358 173.718C108.022 172.943 107.854 172.033 107.854 170.988C107.854 169.98 108.036 169.093 108.4 168.328C108.773 167.553 109.319 166.951 110.038 166.522C110.757 166.083 111.629 165.864 112.656 165.864C113.711 165.864 114.63 166.06 115.414 166.452L114.91 167.516C114.602 167.376 114.257 167.25 113.874 167.138C113.501 167.026 113.09 166.97 112.642 166.97ZM123.56 172.234C123.56 173.475 123.242 174.437 122.608 175.118C121.982 175.799 121.133 176.14 120.06 176.14C119.397 176.14 118.804 175.991 118.282 175.692C117.768 175.384 117.362 174.941 117.064 174.362C116.765 173.774 116.616 173.065 116.616 172.234C116.616 170.993 116.924 170.036 117.54 169.364C118.165 168.692 119.019 168.356 120.102 168.356C120.774 168.356 121.371 168.51 121.894 168.818C122.416 169.117 122.822 169.555 123.112 170.134C123.41 170.703 123.56 171.403 123.56 172.234ZM117.89 172.234C117.89 173.121 118.062 173.825 118.408 174.348C118.762 174.861 119.322 175.118 120.088 175.118C120.844 175.118 121.399 174.861 121.754 174.348C122.108 173.825 122.286 173.121 122.286 172.234C122.286 171.347 122.108 170.652 121.754 170.148C121.399 169.644 120.839 169.392 120.074 169.392C119.308 169.392 118.753 169.644 118.408 170.148C118.062 170.652 117.89 171.347 117.89 172.234ZM133.744 168.356C134.594 168.356 135.228 168.575 135.648 169.014C136.068 169.453 136.278 170.153 136.278 171.114V176H135.06V171.17C135.06 169.985 134.552 169.392 133.534 169.392C132.806 169.392 132.284 169.602 131.966 170.022C131.658 170.442 131.504 171.053 131.504 171.856V176H130.286V171.17C130.286 169.985 129.773 169.392 128.746 169.392C127.99 169.392 127.468 169.625 127.178 170.092C126.889 170.559 126.744 171.231 126.744 172.108V176H125.512V168.496H126.506L126.688 169.518H126.758C126.992 169.126 127.304 168.837 127.696 168.65C128.098 168.454 128.522 168.356 128.97 168.356C130.146 168.356 130.912 168.776 131.266 169.616H131.336C131.588 169.187 131.929 168.869 132.358 168.664C132.788 168.459 133.25 168.356 133.744 168.356ZM142.166 168.356C143.09 168.356 143.832 168.678 144.392 169.322C144.962 169.966 145.246 170.937 145.246 172.234C145.246 173.513 144.962 174.483 144.392 175.146C143.832 175.809 143.086 176.14 142.152 176.14C141.574 176.14 141.093 176.033 140.71 175.818C140.337 175.603 140.043 175.347 139.828 175.048H139.744C139.754 175.207 139.768 175.407 139.786 175.65C139.814 175.893 139.828 176.103 139.828 176.28V179.36H138.596V168.496H139.604L139.772 169.518H139.828C140.052 169.191 140.346 168.916 140.71 168.692C141.074 168.468 141.56 168.356 142.166 168.356ZM141.942 169.392C141.177 169.392 140.636 169.607 140.318 170.036C140.001 170.465 139.838 171.119 139.828 171.996V172.234C139.828 173.158 139.978 173.872 140.276 174.376C140.584 174.871 141.149 175.118 141.97 175.118C142.418 175.118 142.792 174.997 143.09 174.754C143.389 174.502 143.608 174.157 143.748 173.718C143.898 173.279 143.972 172.78 143.972 172.22C143.972 171.361 143.804 170.675 143.468 170.162C143.142 169.649 142.633 169.392 141.942 169.392ZM148.442 176H147.21V165.36H148.442V176ZM153.717 168.356C154.352 168.356 154.902 168.496 155.369 168.776C155.836 169.056 156.19 169.453 156.433 169.966C156.685 170.47 156.811 171.063 156.811 171.744V172.486H151.673C151.692 173.335 151.906 173.984 152.317 174.432C152.737 174.871 153.32 175.09 154.067 175.09C154.543 175.09 154.963 175.048 155.327 174.964C155.7 174.871 156.083 174.74 156.475 174.572V175.65C156.092 175.818 155.714 175.939 155.341 176.014C154.968 176.098 154.524 176.14 154.011 176.14C153.292 176.14 152.662 175.995 152.121 175.706C151.58 175.417 151.155 174.987 150.847 174.418C150.548 173.849 150.399 173.144 150.399 172.304C150.399 171.483 150.534 170.778 150.805 170.19C151.085 169.602 151.472 169.149 151.967 168.832C152.471 168.515 153.054 168.356 153.717 168.356ZM153.703 169.364C153.115 169.364 152.648 169.555 152.303 169.938C151.967 170.311 151.766 170.834 151.701 171.506H155.523C155.514 170.871 155.364 170.358 155.075 169.966C154.786 169.565 154.328 169.364 153.703 169.364ZM161.227 175.132C161.414 175.132 161.605 175.118 161.801 175.09C161.997 175.062 162.156 175.025 162.277 174.978V175.916C162.147 175.981 161.96 176.033 161.717 176.07C161.475 176.117 161.241 176.14 161.017 176.14C160.625 176.14 160.261 176.075 159.925 175.944C159.599 175.804 159.333 175.566 159.127 175.23C158.922 174.894 158.819 174.423 158.819 173.816V169.448H157.755V168.86L158.833 168.37L159.323 166.774H160.051V168.496H162.221V169.448H160.051V173.788C160.051 174.245 160.159 174.586 160.373 174.81C160.597 175.025 160.882 175.132 161.227 175.132ZM166.678 168.356C167.313 168.356 167.863 168.496 168.33 168.776C168.797 169.056 169.151 169.453 169.394 169.966C169.646 170.47 169.772 171.063 169.772 171.744V172.486H164.634C164.653 173.335 164.867 173.984 165.278 174.432C165.698 174.871 166.281 175.09 167.028 175.09C167.504 175.09 167.924 175.048 168.288 174.964C168.661 174.871 169.044 174.74 169.436 174.572V175.65C169.053 175.818 168.675 175.939 168.302 176.014C167.929 176.098 167.485 176.14 166.972 176.14C166.253 176.14 165.623 175.995 165.082 175.706C164.541 175.417 164.116 174.987 163.808 174.418C163.509 173.849 163.36 173.144 163.36 172.304C163.36 171.483 163.495 170.778 163.766 170.19C164.046 169.602 164.433 169.149 164.928 168.832C165.432 168.515 166.015 168.356 166.678 168.356ZM166.664 169.364C166.076 169.364 165.609 169.555 165.264 169.938C164.928 170.311 164.727 170.834 164.662 171.506H168.484C168.475 170.871 168.325 170.358 168.036 169.966C167.747 169.565 167.289 169.364 166.664 169.364ZM174.342 176.14C173.409 176.14 172.662 175.818 172.102 175.174C171.542 174.521 171.262 173.55 171.262 172.262C171.262 170.974 171.542 170.003 172.102 169.35C172.672 168.687 173.423 168.356 174.356 168.356C174.935 168.356 175.406 168.463 175.77 168.678C176.144 168.893 176.447 169.154 176.68 169.462H176.764C176.746 169.341 176.727 169.163 176.708 168.93C176.69 168.687 176.68 168.496 176.68 168.356V165.36H177.912V176H176.918L176.736 174.992H176.68C176.456 175.309 176.158 175.58 175.784 175.804C175.411 176.028 174.93 176.14 174.342 176.14ZM174.538 175.118C175.332 175.118 175.887 174.903 176.204 174.474C176.531 174.035 176.694 173.377 176.694 172.5V172.276C176.694 171.343 176.54 170.629 176.232 170.134C175.924 169.63 175.355 169.378 174.524 169.378C173.862 169.378 173.362 169.644 173.026 170.176C172.7 170.699 172.536 171.403 172.536 172.29C172.536 173.186 172.7 173.881 173.026 174.376C173.362 174.871 173.866 175.118 174.538 175.118Z" fill="black"/>
<rect width="278" height="36" transform="translate(67 189)" fill="white"/>
<rect x="83" y="199" width="16" height="16" rx="4" fill="white"/>
<rect x="83.5" y="199.5" width="15" height="15" rx="3.5" stroke="#1B77AF"/>
<path d="M109.618 212H108.358V202.004H113.944V203.11H109.618V206.652H113.678V207.758H109.618V212ZM116.08 201.682C116.266 201.682 116.43 201.747 116.57 201.878C116.719 201.999 116.794 202.195 116.794 202.466C116.794 202.737 116.719 202.937 116.57 203.068C116.43 203.189 116.266 203.25 116.08 203.25C115.874 203.25 115.702 203.189 115.562 203.068C115.422 202.937 115.352 202.737 115.352 202.466C115.352 202.195 115.422 201.999 115.562 201.878C115.702 201.747 115.874 201.682 116.08 201.682ZM116.682 204.496V212H115.45V204.496H116.682ZM122.559 204.356C122.699 204.356 122.848 204.365 123.007 204.384C123.166 204.393 123.31 204.412 123.441 204.44L123.287 205.574C123.166 205.546 123.03 205.523 122.881 205.504C122.732 205.485 122.596 205.476 122.475 205.476C122.092 205.476 121.733 205.583 121.397 205.798C121.061 206.003 120.79 206.297 120.585 206.68C120.389 207.053 120.291 207.492 120.291 207.996V212H119.059V204.496H120.067L120.207 205.868H120.263C120.496 205.457 120.804 205.103 121.187 204.804C121.579 204.505 122.036 204.356 122.559 204.356ZM129.728 209.928C129.728 210.656 129.458 211.207 128.916 211.58C128.375 211.953 127.647 212.14 126.732 212.14C126.21 212.14 125.757 212.098 125.374 212.014C125.001 211.93 124.67 211.813 124.38 211.664V210.544C124.679 210.693 125.038 210.833 125.458 210.964C125.888 211.085 126.322 211.146 126.76 211.146C127.386 211.146 127.838 211.048 128.118 210.852C128.398 210.647 128.538 210.376 128.538 210.04C128.538 209.853 128.487 209.685 128.384 209.536C128.282 209.387 128.095 209.237 127.824 209.088C127.563 208.939 127.185 208.771 126.69 208.584C126.205 208.397 125.79 208.211 125.444 208.024C125.099 207.837 124.833 207.613 124.646 207.352C124.46 207.091 124.366 206.755 124.366 206.344C124.366 205.709 124.623 205.219 125.136 204.874C125.659 204.529 126.34 204.356 127.18 204.356C127.638 204.356 128.062 204.403 128.454 204.496C128.856 204.589 129.229 204.711 129.574 204.86L129.154 205.84C128.837 205.709 128.506 205.597 128.16 205.504C127.815 205.411 127.46 205.364 127.096 205.364C126.592 205.364 126.205 205.448 125.934 205.616C125.673 205.775 125.542 205.994 125.542 206.274C125.542 206.489 125.603 206.666 125.724 206.806C125.846 206.946 126.046 207.086 126.326 207.226C126.616 207.366 126.998 207.525 127.474 207.702C127.95 207.879 128.356 208.061 128.692 208.248C129.028 208.435 129.285 208.663 129.462 208.934C129.64 209.195 129.728 209.527 129.728 209.928ZM134.048 211.132C134.234 211.132 134.426 211.118 134.622 211.09C134.818 211.062 134.976 211.025 135.098 210.978V211.916C134.967 211.981 134.78 212.033 134.538 212.07C134.295 212.117 134.062 212.14 133.838 212.14C133.446 212.14 133.082 212.075 132.746 211.944C132.419 211.804 132.153 211.566 131.948 211.23C131.742 210.894 131.64 210.423 131.64 209.816V205.448H130.576V204.86L131.654 204.37L132.144 202.774H132.872V204.496H135.042V205.448H132.872V209.788C132.872 210.245 132.979 210.586 133.194 210.81C133.418 211.025 133.702 211.132 134.048 211.132ZM148.329 212H146.859L141.511 203.698H141.455C141.474 204.025 141.497 204.431 141.525 204.916C141.553 205.401 141.567 205.901 141.567 206.414V212H140.405V202.004H141.861L147.195 210.278H147.251C147.242 210.129 147.228 209.905 147.209 209.606C147.2 209.307 147.186 208.985 147.167 208.64C147.158 208.285 147.153 207.954 147.153 207.646V202.004H148.329V212ZM153.716 204.37C154.63 204.37 155.307 204.571 155.746 204.972C156.184 205.373 156.404 206.013 156.404 206.89V212H155.508L155.27 210.936H155.214C154.887 211.347 154.542 211.65 154.178 211.846C153.814 212.042 153.319 212.14 152.694 212.14C152.012 212.14 151.448 211.963 151 211.608C150.552 211.244 150.328 210.679 150.328 209.914C150.328 209.167 150.622 208.593 151.21 208.192C151.798 207.781 152.703 207.557 153.926 207.52L155.2 207.478V207.03C155.2 206.405 155.064 205.971 154.794 205.728C154.523 205.485 154.14 205.364 153.646 205.364C153.254 205.364 152.88 205.425 152.526 205.546C152.171 205.658 151.84 205.789 151.532 205.938L151.154 205.014C151.48 204.837 151.868 204.687 152.316 204.566C152.764 204.435 153.23 204.37 153.716 204.37ZM155.186 208.332L154.08 208.374C153.146 208.411 152.498 208.561 152.134 208.822C151.779 209.083 151.602 209.452 151.602 209.928C151.602 210.348 151.728 210.656 151.98 210.852C152.241 211.048 152.572 211.146 152.974 211.146C153.599 211.146 154.122 210.973 154.542 210.628C154.971 210.273 155.186 209.732 155.186 209.004V208.332ZM166.953 204.356C167.803 204.356 168.437 204.575 168.857 205.014C169.277 205.453 169.487 206.153 169.487 207.114V212H168.269V207.17C168.269 205.985 167.761 205.392 166.743 205.392C166.015 205.392 165.493 205.602 165.175 206.022C164.867 206.442 164.713 207.053 164.713 207.856V212H163.495V207.17C163.495 205.985 162.982 205.392 161.955 205.392C161.199 205.392 160.677 205.625 160.387 206.092C160.098 206.559 159.953 207.231 159.953 208.108V212H158.721V204.496H159.715L159.897 205.518H159.967C160.201 205.126 160.513 204.837 160.905 204.65C161.307 204.454 161.731 204.356 162.179 204.356C163.355 204.356 164.121 204.776 164.475 205.616H164.545C164.797 205.187 165.138 204.869 165.567 204.664C165.997 204.459 166.459 204.356 166.953 204.356ZM174.703 204.356C175.338 204.356 175.889 204.496 176.355 204.776C176.822 205.056 177.177 205.453 177.419 205.966C177.671 206.47 177.797 207.063 177.797 207.744V208.486H172.659C172.678 209.335 172.893 209.984 173.303 210.432C173.723 210.871 174.307 211.09 175.053 211.09C175.529 211.09 175.949 211.048 176.313 210.964C176.687 210.871 177.069 210.74 177.461 210.572V211.65C177.079 211.818 176.701 211.939 176.327 212.014C175.954 212.098 175.511 212.14 174.997 212.14C174.279 212.14 173.649 211.995 173.107 211.706C172.566 211.417 172.141 210.987 171.833 210.418C171.535 209.849 171.385 209.144 171.385 208.304C171.385 207.483 171.521 206.778 171.791 206.19C172.071 205.602 172.459 205.149 172.953 204.832C173.457 204.515 174.041 204.356 174.703 204.356ZM174.689 205.364C174.101 205.364 173.635 205.555 173.289 205.938C172.953 206.311 172.753 206.834 172.687 207.506H176.509C176.5 206.871 176.351 206.358 176.061 205.966C175.772 205.565 175.315 205.364 174.689 205.364Z" fill="black"/>
<rect width="278" height="36" transform="translate(67 225)" fill="white"/>
<rect x="83" y="235" width="16" height="16" rx="4" fill="white"/>
<rect x="83.5" y="235.5" width="15" height="15" rx="3.5" stroke="#1B77AF"/>
<path d="M108.358 248V238.004H109.618V246.88H113.986V248H108.358ZM118.374 240.37C119.288 240.37 119.965 240.571 120.404 240.972C120.842 241.373 121.062 242.013 121.062 242.89V248H120.166L119.928 246.936H119.872C119.545 247.347 119.2 247.65 118.836 247.846C118.472 248.042 117.977 248.14 117.352 248.14C116.67 248.14 116.106 247.963 115.658 247.608C115.21 247.244 114.986 246.679 114.986 245.914C114.986 245.167 115.28 244.593 115.868 244.192C116.456 243.781 117.361 243.557 118.584 243.52L119.858 243.478V243.03C119.858 242.405 119.722 241.971 119.452 241.728C119.181 241.485 118.798 241.364 118.304 241.364C117.912 241.364 117.538 241.425 117.184 241.546C116.829 241.658 116.498 241.789 116.19 241.938L115.812 241.014C116.138 240.837 116.526 240.687 116.974 240.566C117.422 240.435 117.888 240.37 118.374 240.37ZM119.844 244.332L118.738 244.374C117.804 244.411 117.156 244.561 116.792 244.822C116.437 245.083 116.26 245.452 116.26 245.928C116.26 246.348 116.386 246.656 116.638 246.852C116.899 247.048 117.23 247.146 117.632 247.146C118.257 247.146 118.78 246.973 119.2 246.628C119.629 246.273 119.844 245.732 119.844 245.004V244.332ZM128.265 245.928C128.265 246.656 127.995 247.207 127.453 247.58C126.912 247.953 126.184 248.14 125.269 248.14C124.747 248.14 124.294 248.098 123.911 248.014C123.538 247.93 123.207 247.813 122.917 247.664V246.544C123.216 246.693 123.575 246.833 123.995 246.964C124.425 247.085 124.859 247.146 125.297 247.146C125.923 247.146 126.375 247.048 126.655 246.852C126.935 246.647 127.075 246.376 127.075 246.04C127.075 245.853 127.024 245.685 126.921 245.536C126.819 245.387 126.632 245.237 126.361 245.088C126.1 244.939 125.722 244.771 125.227 244.584C124.742 244.397 124.327 244.211 123.981 244.024C123.636 243.837 123.37 243.613 123.183 243.352C122.997 243.091 122.903 242.755 122.903 242.344C122.903 241.709 123.16 241.219 123.673 240.874C124.196 240.529 124.877 240.356 125.717 240.356C126.175 240.356 126.599 240.403 126.991 240.496C127.393 240.589 127.766 240.711 128.111 240.86L127.691 241.84C127.374 241.709 127.043 241.597 126.697 241.504C126.352 241.411 125.997 241.364 125.633 241.364C125.129 241.364 124.742 241.448 124.471 241.616C124.21 241.775 124.079 241.994 124.079 242.274C124.079 242.489 124.14 242.666 124.261 242.806C124.383 242.946 124.583 243.086 124.863 243.226C125.153 243.366 125.535 243.525 126.011 243.702C126.487 243.879 126.893 244.061 127.229 244.248C127.565 244.435 127.822 244.663 127.999 244.934C128.177 245.195 128.265 245.527 128.265 245.928ZM132.585 247.132C132.771 247.132 132.963 247.118 133.159 247.09C133.355 247.062 133.513 247.025 133.635 246.978V247.916C133.504 247.981 133.317 248.033 133.075 248.07C132.832 248.117 132.599 248.14 132.375 248.14C131.983 248.14 131.619 248.075 131.283 247.944C130.956 247.804 130.69 247.566 130.485 247.23C130.279 246.894 130.177 246.423 130.177 245.816V241.448H129.113V240.86L130.191 240.37L130.681 238.774H131.409V240.496H133.579V241.448H131.409V245.788C131.409 246.245 131.516 246.586 131.731 246.81C131.955 247.025 132.239 247.132 132.585 247.132ZM146.866 248H145.396L140.048 239.698H139.992C140.011 240.025 140.034 240.431 140.062 240.916C140.09 241.401 140.104 241.901 140.104 242.414V248H138.942V238.004H140.398L145.732 246.278H145.788C145.779 246.129 145.765 245.905 145.746 245.606C145.737 245.307 145.723 244.985 145.704 244.64C145.695 244.285 145.69 243.954 145.69 243.646V238.004H146.866V248ZM152.253 240.37C153.167 240.37 153.844 240.571 154.283 240.972C154.721 241.373 154.941 242.013 154.941 242.89V248H154.045L153.807 246.936H153.751C153.424 247.347 153.079 247.65 152.715 247.846C152.351 248.042 151.856 248.14 151.231 248.14C150.549 248.14 149.985 247.963 149.537 247.608C149.089 247.244 148.865 246.679 148.865 245.914C148.865 245.167 149.159 244.593 149.747 244.192C150.335 243.781 151.24 243.557 152.463 243.52L153.737 243.478V243.03C153.737 242.405 153.601 241.971 153.331 241.728C153.06 241.485 152.677 241.364 152.183 241.364C151.791 241.364 151.417 241.425 151.063 241.546C150.708 241.658 150.377 241.789 150.069 241.938L149.691 241.014C150.017 240.837 150.405 240.687 150.853 240.566C151.301 240.435 151.767 240.37 152.253 240.37ZM153.723 244.332L152.617 244.374C151.683 244.411 151.035 244.561 150.671 244.822C150.316 245.083 150.139 245.452 150.139 245.928C150.139 246.348 150.265 246.656 150.517 246.852C150.778 247.048 151.109 247.146 151.511 247.146C152.136 247.146 152.659 246.973 153.079 246.628C153.508 246.273 153.723 245.732 153.723 245.004V244.332ZM165.49 240.356C166.34 240.356 166.974 240.575 167.394 241.014C167.814 241.453 168.024 242.153 168.024 243.114V248H166.806V243.17C166.806 241.985 166.298 241.392 165.28 241.392C164.552 241.392 164.03 241.602 163.712 242.022C163.404 242.442 163.25 243.053 163.25 243.856V248H162.032V243.17C162.032 241.985 161.519 241.392 160.492 241.392C159.736 241.392 159.214 241.625 158.924 242.092C158.635 242.559 158.49 243.231 158.49 244.108V248H157.258V240.496H158.252L158.434 241.518H158.504C158.738 241.126 159.05 240.837 159.442 240.65C159.844 240.454 160.268 240.356 160.716 240.356C161.892 240.356 162.658 240.776 163.012 241.616H163.082C163.334 241.187 163.675 240.869 164.104 240.664C164.534 240.459 164.996 240.356 165.49 240.356ZM173.24 240.356C173.875 240.356 174.426 240.496 174.892 240.776C175.359 241.056 175.714 241.453 175.956 241.966C176.208 242.47 176.334 243.063 176.334 243.744V244.486H171.196C171.215 245.335 171.43 245.984 171.84 246.432C172.26 246.871 172.844 247.09 173.59 247.09C174.066 247.09 174.486 247.048 174.85 246.964C175.224 246.871 175.606 246.74 175.998 246.572V247.65C175.616 247.818 175.238 247.939 174.864 248.014C174.491 248.098 174.048 248.14 173.534 248.14C172.816 248.14 172.186 247.995 171.644 247.706C171.103 247.417 170.678 246.987 170.37 246.418C170.072 245.849 169.922 245.144 169.922 244.304C169.922 243.483 170.058 242.778 170.328 242.19C170.608 241.602 170.996 241.149 171.49 240.832C171.994 240.515 172.578 240.356 173.24 240.356ZM173.226 241.364C172.638 241.364 172.172 241.555 171.826 241.938C171.49 242.311 171.29 242.834 171.224 243.506H175.046C175.037 242.871 174.888 242.358 174.598 241.966C174.309 241.565 173.852 241.364 173.226 241.364Z" fill="black"/>
<rect width="278" height="36" transform="translate(67 261)" fill="white"/>
<rect x="83" y="271" width="16" height="16" rx="4" fill="white"/>
<rect x="83.5" y="271.5" width="15" height="15" rx="3.5" stroke="#1B77AF"/>
<path d="M116.282 284H114.812L109.464 275.698H109.408C109.427 276.025 109.45 276.431 109.478 276.916C109.506 277.401 109.52 277.901 109.52 278.414V284H108.358V274.004H109.814L115.148 282.278H115.204C115.195 282.129 115.181 281.905 115.162 281.606C115.153 281.307 115.139 280.985 115.12 280.64C115.111 280.285 115.106 279.954 115.106 279.646V274.004H116.282V284ZM125.351 280.234C125.351 281.475 125.033 282.437 124.399 283.118C123.773 283.799 122.924 284.14 121.851 284.14C121.188 284.14 120.595 283.991 120.073 283.692C119.559 283.384 119.153 282.941 118.855 282.362C118.556 281.774 118.407 281.065 118.407 280.234C118.407 278.993 118.715 278.036 119.331 277.364C119.956 276.692 120.81 276.356 121.893 276.356C122.565 276.356 123.162 276.51 123.685 276.818C124.207 277.117 124.613 277.555 124.903 278.134C125.201 278.703 125.351 279.403 125.351 280.234ZM119.681 280.234C119.681 281.121 119.853 281.825 120.199 282.348C120.553 282.861 121.113 283.118 121.879 283.118C122.635 283.118 123.19 282.861 123.545 282.348C123.899 281.825 124.077 281.121 124.077 280.234C124.077 279.347 123.899 278.652 123.545 278.148C123.19 277.644 122.63 277.392 121.865 277.392C121.099 277.392 120.544 277.644 120.199 278.148C119.853 278.652 119.681 279.347 119.681 280.234ZM137.38 284L136.176 280.906H132.214L131.024 284H129.75L133.656 273.962H134.79L138.682 284H137.38ZM135.798 279.786L134.678 276.762C134.65 276.687 134.603 276.552 134.538 276.356C134.473 276.16 134.407 275.959 134.342 275.754C134.286 275.539 134.239 275.376 134.202 275.264C134.127 275.553 134.048 275.838 133.964 276.118C133.889 276.389 133.824 276.603 133.768 276.762L132.634 279.786H135.798ZM143.493 276.356C144.389 276.356 145.066 276.575 145.523 277.014C145.981 277.453 146.209 278.153 146.209 279.114V284H144.991V279.198C144.991 277.994 144.431 277.392 143.311 277.392C142.481 277.392 141.907 277.625 141.589 278.092C141.272 278.559 141.113 279.231 141.113 280.108V284H139.881V276.496H140.875L141.057 277.518H141.127C141.37 277.126 141.706 276.837 142.135 276.65C142.565 276.454 143.017 276.356 143.493 276.356ZM153.422 281.928C153.422 282.656 153.151 283.207 152.61 283.58C152.068 283.953 151.34 284.14 150.426 284.14C149.903 284.14 149.45 284.098 149.068 284.014C148.694 283.93 148.363 283.813 148.074 283.664V282.544C148.372 282.693 148.732 282.833 149.152 282.964C149.581 283.085 150.015 283.146 150.454 283.146C151.079 283.146 151.532 283.048 151.812 282.852C152.092 282.647 152.232 282.376 152.232 282.04C152.232 281.853 152.18 281.685 152.078 281.536C151.975 281.387 151.788 281.237 151.518 281.088C151.256 280.939 150.878 280.771 150.384 280.584C149.898 280.397 149.483 280.211 149.138 280.024C148.792 279.837 148.526 279.613 148.34 279.352C148.153 279.091 148.06 278.755 148.06 278.344C148.06 277.709 148.316 277.219 148.83 276.874C149.352 276.529 150.034 276.356 150.874 276.356C151.331 276.356 151.756 276.403 152.148 276.496C152.549 276.589 152.922 276.711 153.268 276.86L152.848 277.84C152.53 277.709 152.199 277.597 151.854 277.504C151.508 277.411 151.154 277.364 150.79 277.364C150.286 277.364 149.898 277.448 149.628 277.616C149.366 277.775 149.236 277.994 149.236 278.274C149.236 278.489 149.296 278.666 149.418 278.806C149.539 278.946 149.74 279.086 150.02 279.226C150.309 279.366 150.692 279.525 151.168 279.702C151.644 279.879 152.05 280.061 152.386 280.248C152.722 280.435 152.978 280.663 153.156 280.934C153.333 281.195 153.422 281.527 153.422 281.928ZM161.367 283.986L160.079 279.758C159.958 279.375 159.85 279.002 159.757 278.638C159.664 278.274 159.598 277.985 159.561 277.77H159.505C159.468 277.985 159.407 278.274 159.323 278.638C159.239 279.002 159.132 279.38 159.001 279.772L157.657 283.986H156.257L154.199 276.482H155.473L156.509 280.486C156.612 280.887 156.71 281.293 156.803 281.704C156.896 282.115 156.962 282.455 156.999 282.726H157.055C157.083 282.567 157.125 282.371 157.181 282.138C157.237 281.905 157.298 281.662 157.363 281.41C157.428 281.149 157.494 280.915 157.559 280.71L158.889 276.482H160.233L161.521 280.71C161.614 281.037 161.712 281.387 161.815 281.76C161.918 282.133 161.988 282.451 162.025 282.712H162.081C162.109 282.479 162.17 282.157 162.263 281.746C162.366 281.335 162.473 280.915 162.585 280.486L163.635 276.482H164.895L162.809 283.986H161.367ZM169.139 276.356C169.773 276.356 170.324 276.496 170.791 276.776C171.257 277.056 171.612 277.453 171.855 277.966C172.107 278.47 172.233 279.063 172.233 279.744V280.486H167.095C167.113 281.335 167.328 281.984 167.739 282.432C168.159 282.871 168.742 283.09 169.489 283.09C169.965 283.09 170.385 283.048 170.749 282.964C171.122 282.871 171.505 282.74 171.897 282.572V283.65C171.514 283.818 171.136 283.939 170.763 284.014C170.389 284.098 169.946 284.14 169.433 284.14C168.714 284.14 168.084 283.995 167.543 283.706C167.001 283.417 166.577 282.987 166.269 282.418C165.97 281.849 165.821 281.144 165.821 280.304C165.821 279.483 165.956 278.778 166.227 278.19C166.507 277.602 166.894 277.149 167.389 276.832C167.893 276.515 168.476 276.356 169.139 276.356ZM169.125 277.364C168.537 277.364 168.07 277.555 167.725 277.938C167.389 278.311 167.188 278.834 167.123 279.506H170.945C170.935 278.871 170.786 278.358 170.497 277.966C170.207 277.565 169.75 277.364 169.125 277.364ZM177.643 276.356C177.783 276.356 177.932 276.365 178.091 276.384C178.25 276.393 178.394 276.412 178.525 276.44L178.371 277.574C178.25 277.546 178.114 277.523 177.965 277.504C177.816 277.485 177.68 277.476 177.559 277.476C177.176 277.476 176.817 277.583 176.481 277.798C176.145 278.003 175.874 278.297 175.669 278.68C175.473 279.053 175.375 279.492 175.375 279.996V284H174.143V276.496H175.151L175.291 277.868H175.347C175.58 277.457 175.888 277.103 176.271 276.804C176.663 276.505 177.12 276.356 177.643 276.356ZM182.551 276.356C183.186 276.356 183.736 276.496 184.203 276.776C184.67 277.056 185.024 277.453 185.267 277.966C185.519 278.47 185.645 279.063 185.645 279.744V280.486H180.507C180.526 281.335 180.74 281.984 181.151 282.432C181.571 282.871 182.154 283.09 182.901 283.09C183.377 283.09 183.797 283.048 184.161 282.964C184.534 282.871 184.917 282.74 185.309 282.572V283.65C184.926 283.818 184.548 283.939 184.175 284.014C183.802 284.098 183.358 284.14 182.845 284.14C182.126 284.14 181.496 283.995 180.955 283.706C180.414 283.417 179.989 282.987 179.681 282.418C179.382 281.849 179.233 281.144 179.233 280.304C179.233 279.483 179.368 278.778 179.639 278.19C179.919 277.602 180.306 277.149 180.801 276.832C181.305 276.515 181.888 276.356 182.551 276.356ZM182.537 277.364C181.949 277.364 181.482 277.555 181.137 277.938C180.801 278.311 180.6 278.834 180.535 279.506H184.357C184.348 278.871 184.198 278.358 183.909 277.966C183.62 277.565 183.162 277.364 182.537 277.364ZM190.215 284.14C189.282 284.14 188.535 283.818 187.975 283.174C187.415 282.521 187.135 281.55 187.135 280.262C187.135 278.974 187.415 278.003 187.975 277.35C188.545 276.687 189.296 276.356 190.229 276.356C190.808 276.356 191.279 276.463 191.643 276.678C192.017 276.893 192.32 277.154 192.553 277.462H192.637C192.619 277.341 192.6 277.163 192.581 276.93C192.563 276.687 192.553 276.496 192.553 276.356V273.36H193.785V284H192.791L192.609 282.992H192.553C192.329 283.309 192.031 283.58 191.657 283.804C191.284 284.028 190.803 284.14 190.215 284.14ZM190.411 283.118C191.205 283.118 191.76 282.903 192.077 282.474C192.404 282.035 192.567 281.377 192.567 280.5V280.276C192.567 279.343 192.413 278.629 192.105 278.134C191.797 277.63 191.228 277.378 190.397 277.378C189.735 277.378 189.235 277.644 188.899 278.176C188.573 278.699 188.409 279.403 188.409 280.29C188.409 281.186 188.573 281.881 188.899 282.376C189.235 282.871 189.739 283.118 190.411 283.118Z" fill="black"/>
<rect width="278" height="36" transform="translate(67 297)" fill="white"/>
<rect x="83" y="307" width="16" height="16" rx="4" fill="white"/>
<rect x="83.5" y="307.5" width="15" height="15" rx="3.5" stroke="#1B77AF"/>
<path d="M117.08 314.988C117.08 316.024 116.903 316.929 116.548 317.704C116.203 318.469 115.685 319.067 114.994 319.496C114.313 319.925 113.473 320.14 112.474 320.14C111.438 320.14 110.575 319.925 109.884 319.496C109.203 319.067 108.694 318.465 108.358 317.69C108.022 316.915 107.854 316.01 107.854 314.974C107.854 313.957 108.022 313.065 108.358 312.3C108.694 311.525 109.203 310.923 109.884 310.494C110.575 310.065 111.443 309.85 112.488 309.85C113.487 309.85 114.327 310.065 115.008 310.494C115.689 310.914 116.203 311.511 116.548 312.286C116.903 313.051 117.08 313.952 117.08 314.988ZM109.184 314.988C109.184 316.248 109.45 317.242 109.982 317.97C110.514 318.689 111.345 319.048 112.474 319.048C113.603 319.048 114.429 318.689 114.952 317.97C115.484 317.242 115.75 316.248 115.75 314.988C115.75 313.728 115.489 312.743 114.966 312.034C114.443 311.315 113.617 310.956 112.488 310.956C111.349 310.956 110.514 311.315 109.982 312.034C109.45 312.743 109.184 313.728 109.184 314.988ZM122.586 313.448H120.696V320H119.464V313.448H118.148V312.874L119.464 312.454V312.02C119.464 311.049 119.674 310.354 120.094 309.934C120.523 309.505 121.125 309.29 121.9 309.29C122.189 309.29 122.46 309.318 122.712 309.374C122.964 309.421 123.178 309.477 123.356 309.542L123.034 310.508C122.884 310.461 122.712 310.415 122.516 310.368C122.32 310.321 122.119 310.298 121.914 310.298C121.503 310.298 121.195 310.438 120.99 310.718C120.794 310.989 120.696 311.418 120.696 312.006V312.496H122.586V313.448ZM127.398 313.448H125.508V320H124.276V313.448H122.96V312.874L124.276 312.454V312.02C124.276 311.049 124.486 310.354 124.906 309.934C125.335 309.505 125.937 309.29 126.712 309.29C127.001 309.29 127.272 309.318 127.524 309.374C127.776 309.421 127.991 309.477 128.168 309.542L127.846 310.508C127.697 310.461 127.524 310.415 127.328 310.368C127.132 310.321 126.931 310.298 126.726 310.298C126.315 310.298 126.007 310.438 125.802 310.718C125.606 310.989 125.508 311.418 125.508 312.006V312.496H127.398V313.448ZM131.651 312.356C132.285 312.356 132.836 312.496 133.303 312.776C133.769 313.056 134.124 313.453 134.367 313.966C134.619 314.47 134.745 315.063 134.745 315.744V316.486H129.607C129.625 317.335 129.84 317.984 130.251 318.432C130.671 318.871 131.254 319.09 132.001 319.09C132.477 319.09 132.897 319.048 133.261 318.964C133.634 318.871 134.017 318.74 134.409 318.572V319.65C134.026 319.818 133.648 319.939 133.275 320.014C132.901 320.098 132.458 320.14 131.945 320.14C131.226 320.14 130.596 319.995 130.055 319.706C129.513 319.417 129.089 318.987 128.781 318.418C128.482 317.849 128.333 317.144 128.333 316.304C128.333 315.483 128.468 314.778 128.739 314.19C129.019 313.602 129.406 313.149 129.901 312.832C130.405 312.515 130.988 312.356 131.651 312.356ZM131.637 313.364C131.049 313.364 130.582 313.555 130.237 313.938C129.901 314.311 129.7 314.834 129.635 315.506H133.457C133.447 314.871 133.298 314.358 133.009 313.966C132.719 313.565 132.262 313.364 131.637 313.364ZM140.155 312.356C140.295 312.356 140.444 312.365 140.603 312.384C140.762 312.393 140.906 312.412 141.037 312.44L140.883 313.574C140.762 313.546 140.626 313.523 140.477 313.504C140.328 313.485 140.192 313.476 140.071 313.476C139.688 313.476 139.329 313.583 138.993 313.798C138.657 314.003 138.386 314.297 138.181 314.68C137.985 315.053 137.887 315.492 137.887 315.996V320H136.655V312.496H137.663L137.803 313.868H137.859C138.092 313.457 138.4 313.103 138.783 312.804C139.175 312.505 139.632 312.356 140.155 312.356ZM145.063 312.356C145.697 312.356 146.248 312.496 146.715 312.776C147.181 313.056 147.536 313.453 147.779 313.966C148.031 314.47 148.157 315.063 148.157 315.744V316.486H143.019C143.037 317.335 143.252 317.984 143.663 318.432C144.083 318.871 144.666 319.09 145.413 319.09C145.889 319.09 146.309 319.048 146.673 318.964C147.046 318.871 147.429 318.74 147.821 318.572V319.65C147.438 319.818 147.06 319.939 146.687 320.014C146.313 320.098 145.87 320.14 145.357 320.14C144.638 320.14 144.008 319.995 143.467 319.706C142.925 319.417 142.501 318.987 142.193 318.418C141.894 317.849 141.745 317.144 141.745 316.304C141.745 315.483 141.88 314.778 142.151 314.19C142.431 313.602 142.818 313.149 143.313 312.832C143.817 312.515 144.4 312.356 145.063 312.356ZM145.049 313.364C144.461 313.364 143.994 313.555 143.649 313.938C143.313 314.311 143.112 314.834 143.047 315.506H146.869C146.859 314.871 146.71 314.358 146.421 313.966C146.131 313.565 145.674 313.364 145.049 313.364ZM152.727 320.14C151.794 320.14 151.047 319.818 150.487 319.174C149.927 318.521 149.647 317.55 149.647 316.262C149.647 314.974 149.927 314.003 150.487 313.35C151.056 312.687 151.808 312.356 152.741 312.356C153.32 312.356 153.791 312.463 154.155 312.678C154.528 312.893 154.832 313.154 155.065 313.462H155.149C155.13 313.341 155.112 313.163 155.093 312.93C155.074 312.687 155.065 312.496 155.065 312.356V309.36H156.297V320H155.303L155.121 318.992H155.065C154.841 319.309 154.542 319.58 154.169 319.804C153.796 320.028 153.315 320.14 152.727 320.14ZM152.923 319.118C153.716 319.118 154.272 318.903 154.589 318.474C154.916 318.035 155.079 317.377 155.079 316.5V316.276C155.079 315.343 154.925 314.629 154.617 314.134C154.309 313.63 153.74 313.378 152.909 313.378C152.246 313.378 151.747 313.644 151.411 314.176C151.084 314.699 150.921 315.403 150.921 316.29C150.921 317.186 151.084 317.881 151.411 318.376C151.747 318.871 152.251 319.118 152.923 319.118Z" fill="black"/>
<rect width="278" height="36" transform="translate(67 333)" fill="white"/>
<rect x="83" y="343" width="16" height="16" rx="4" fill="white"/>
<rect x="83.5" y="343.5" width="15" height="15" rx="3.5" stroke="#1B77AF"/>
<path d="M112.642 346.97C111.569 346.97 110.724 347.329 110.108 348.048C109.492 348.767 109.184 349.751 109.184 351.002C109.184 352.243 109.469 353.228 110.038 353.956C110.617 354.675 111.48 355.034 112.628 355.034C113.057 355.034 113.468 354.997 113.86 354.922C114.252 354.847 114.639 354.754 115.022 354.642V355.734C114.649 355.874 114.261 355.977 113.86 356.042C113.468 356.107 112.997 356.14 112.446 356.14C111.429 356.14 110.579 355.93 109.898 355.51C109.217 355.09 108.703 354.493 108.358 353.718C108.022 352.943 107.854 352.033 107.854 350.988C107.854 349.98 108.036 349.093 108.4 348.328C108.773 347.553 109.319 346.951 110.038 346.522C110.757 346.083 111.629 345.864 112.656 345.864C113.711 345.864 114.63 346.06 115.414 346.452L114.91 347.516C114.602 347.376 114.257 347.25 113.874 347.138C113.501 347.026 113.09 346.97 112.642 346.97ZM123.56 352.234C123.56 353.475 123.242 354.437 122.608 355.118C121.982 355.799 121.133 356.14 120.06 356.14C119.397 356.14 118.804 355.991 118.282 355.692C117.768 355.384 117.362 354.941 117.064 354.362C116.765 353.774 116.616 353.065 116.616 352.234C116.616 350.993 116.924 350.036 117.54 349.364C118.165 348.692 119.019 348.356 120.102 348.356C120.774 348.356 121.371 348.51 121.894 348.818C122.416 349.117 122.822 349.555 123.112 350.134C123.41 350.703 123.56 351.403 123.56 352.234ZM117.89 352.234C117.89 353.121 118.062 353.825 118.408 354.348C118.762 354.861 119.322 355.118 120.088 355.118C120.844 355.118 121.399 354.861 121.754 354.348C122.108 353.825 122.286 353.121 122.286 352.234C122.286 351.347 122.108 350.652 121.754 350.148C121.399 349.644 120.839 349.392 120.074 349.392C119.308 349.392 118.753 349.644 118.408 350.148C118.062 350.652 117.89 351.347 117.89 352.234ZM129.124 348.356C130.02 348.356 130.697 348.575 131.154 349.014C131.612 349.453 131.84 350.153 131.84 351.114V356H130.622V351.198C130.622 349.994 130.062 349.392 128.942 349.392C128.112 349.392 127.538 349.625 127.22 350.092C126.903 350.559 126.744 351.231 126.744 352.108V356H125.512V348.496H126.506L126.688 349.518H126.758C127.001 349.126 127.337 348.837 127.766 348.65C128.196 348.454 128.648 348.356 129.124 348.356ZM137.625 349.448H135.735V356H134.503V349.448H133.187V348.874L134.503 348.454V348.02C134.503 347.049 134.713 346.354 135.133 345.934C135.562 345.505 136.164 345.29 136.939 345.29C137.228 345.29 137.499 345.318 137.751 345.374C138.003 345.421 138.217 345.477 138.395 345.542L138.073 346.508C137.923 346.461 137.751 346.415 137.555 346.368C137.359 346.321 137.158 346.298 136.953 346.298C136.542 346.298 136.234 346.438 136.029 346.718C135.833 346.989 135.735 347.418 135.735 348.006V348.496H137.625V349.448ZM141.877 348.356C142.512 348.356 143.062 348.496 143.529 348.776C143.996 349.056 144.35 349.453 144.593 349.966C144.845 350.47 144.971 351.063 144.971 351.744V352.486H139.833C139.852 353.335 140.066 353.984 140.477 354.432C140.897 354.871 141.48 355.09 142.227 355.09C142.703 355.09 143.123 355.048 143.487 354.964C143.86 354.871 144.243 354.74 144.635 354.572V355.65C144.252 355.818 143.874 355.939 143.501 356.014C143.128 356.098 142.684 356.14 142.171 356.14C141.452 356.14 140.822 355.995 140.281 355.706C139.74 355.417 139.315 354.987 139.007 354.418C138.708 353.849 138.559 353.144 138.559 352.304C138.559 351.483 138.694 350.778 138.965 350.19C139.245 349.602 139.632 349.149 140.127 348.832C140.631 348.515 141.214 348.356 141.877 348.356ZM141.863 349.364C141.275 349.364 140.808 349.555 140.463 349.938C140.127 350.311 139.926 350.834 139.861 351.506H143.683C143.674 350.871 143.524 350.358 143.235 349.966C142.946 349.565 142.488 349.364 141.863 349.364ZM150.381 348.356C150.521 348.356 150.671 348.365 150.829 348.384C150.988 348.393 151.133 348.412 151.263 348.44L151.109 349.574C150.988 349.546 150.853 349.523 150.703 349.504C150.554 349.485 150.419 349.476 150.297 349.476C149.915 349.476 149.555 349.583 149.219 349.798C148.883 350.003 148.613 350.297 148.407 350.68C148.211 351.053 148.113 351.492 148.113 351.996V356H146.881V348.496H147.889L148.029 349.868H148.085C148.319 349.457 148.627 349.103 149.009 348.804C149.401 348.505 149.859 348.356 150.381 348.356ZM155.289 348.356C155.924 348.356 156.475 348.496 156.941 348.776C157.408 349.056 157.763 349.453 158.005 349.966C158.257 350.47 158.383 351.063 158.383 351.744V352.486H153.245C153.264 353.335 153.479 353.984 153.889 354.432C154.309 354.871 154.893 355.09 155.639 355.09C156.115 355.09 156.535 355.048 156.899 354.964C157.273 354.871 157.655 354.74 158.047 354.572V355.65C157.665 355.818 157.287 355.939 156.913 356.014C156.54 356.098 156.097 356.14 155.583 356.14C154.865 356.14 154.235 355.995 153.693 355.706C153.152 355.417 152.727 354.987 152.419 354.418C152.121 353.849 151.971 353.144 151.971 352.304C151.971 351.483 152.107 350.778 152.377 350.19C152.657 349.602 153.045 349.149 153.539 348.832C154.043 348.515 154.627 348.356 155.289 348.356ZM155.275 349.364C154.687 349.364 154.221 349.555 153.875 349.938C153.539 350.311 153.339 350.834 153.273 351.506H157.095C157.086 350.871 156.937 350.358 156.647 349.966C156.358 349.565 155.901 349.364 155.275 349.364ZM163.906 348.356C164.802 348.356 165.478 348.575 165.936 349.014C166.393 349.453 166.622 350.153 166.622 351.114V356H165.404V351.198C165.404 349.994 164.844 349.392 163.724 349.392C162.893 349.392 162.319 349.625 162.002 350.092C161.684 350.559 161.526 351.231 161.526 352.108V356H160.294V348.496H161.288L161.47 349.518H161.54C161.782 349.126 162.118 348.837 162.548 348.65C162.977 348.454 163.43 348.356 163.906 348.356ZM171.958 356.14C171.286 356.14 170.693 356.005 170.18 355.734C169.666 355.463 169.26 355.043 168.962 354.474C168.672 353.905 168.528 353.177 168.528 352.29C168.528 351.366 168.677 350.615 168.976 350.036C169.284 349.457 169.704 349.033 170.236 348.762C170.768 348.491 171.37 348.356 172.042 348.356C172.415 348.356 172.779 348.398 173.134 348.482C173.498 348.557 173.792 348.65 174.016 348.762L173.638 349.784C173.414 349.7 173.152 349.621 172.854 349.546C172.555 349.471 172.275 349.434 172.014 349.434C170.539 349.434 169.802 350.381 169.802 352.276C169.802 353.181 169.979 353.877 170.334 354.362C170.698 354.838 171.234 355.076 171.944 355.076C172.345 355.076 172.704 355.034 173.022 354.95C173.339 354.866 173.628 354.763 173.89 354.642V355.734C173.638 355.865 173.358 355.963 173.05 356.028C172.751 356.103 172.387 356.14 171.958 356.14ZM178.572 348.356C179.207 348.356 179.758 348.496 180.224 348.776C180.691 349.056 181.046 349.453 181.288 349.966C181.54 350.47 181.666 351.063 181.666 351.744V352.486H176.528C176.547 353.335 176.762 353.984 177.172 354.432C177.592 354.871 178.176 355.09 178.922 355.09C179.398 355.09 179.818 355.048 180.182 354.964C180.556 354.871 180.938 354.74 181.33 354.572V355.65C180.948 355.818 180.57 355.939 180.196 356.014C179.823 356.098 179.38 356.14 178.866 356.14C178.148 356.14 177.518 355.995 176.976 355.706C176.435 355.417 176.01 354.987 175.702 354.418C175.404 353.849 175.254 353.144 175.254 352.304C175.254 351.483 175.39 350.778 175.66 350.19C175.94 349.602 176.328 349.149 176.822 348.832C177.326 348.515 177.91 348.356 178.572 348.356ZM178.558 349.364C177.97 349.364 177.504 349.555 177.158 349.938C176.822 350.311 176.622 350.834 176.556 351.506H180.378C180.369 350.871 180.22 350.358 179.93 349.966C179.641 349.565 179.184 349.364 178.558 349.364ZM186.237 356.14C185.303 356.14 184.557 355.818 183.997 355.174C183.437 354.521 183.157 353.55 183.157 352.262C183.157 350.974 183.437 350.003 183.997 349.35C184.566 348.687 185.317 348.356 186.251 348.356C186.829 348.356 187.301 348.463 187.665 348.678C188.038 348.893 188.341 349.154 188.575 349.462H188.659C188.64 349.341 188.621 349.163 188.603 348.93C188.584 348.687 188.575 348.496 188.575 348.356V345.36H189.807V356H188.813L188.631 354.992H188.575C188.351 355.309 188.052 355.58 187.679 355.804C187.305 356.028 186.825 356.14 186.237 356.14ZM186.433 355.118C187.226 355.118 187.781 354.903 188.099 354.474C188.425 354.035 188.589 353.377 188.589 352.5V352.276C188.589 351.343 188.435 350.629 188.127 350.134C187.819 349.63 187.249 349.378 186.419 349.378C185.756 349.378 185.257 349.644 184.921 350.176C184.594 350.699 184.431 351.403 184.431 352.29C184.431 353.186 184.594 353.881 184.921 354.376C185.257 354.871 185.761 355.118 186.433 355.118Z" fill="black"/>
<rect width="278" height="36" transform="translate(67 369)" fill="white"/>
<rect x="83" y="379" width="16" height="16" rx="4" fill="white"/>
<rect x="83.5" y="379.5" width="15" height="15" rx="3.5" stroke="#1B77AF"/>
<path d="M114.63 392L113.426 388.906H109.464L108.274 392H107L110.906 381.962H112.04L115.932 392H114.63ZM113.048 387.786L111.928 384.762C111.9 384.687 111.853 384.552 111.788 384.356C111.723 384.16 111.657 383.959 111.592 383.754C111.536 383.539 111.489 383.376 111.452 383.264C111.377 383.553 111.298 383.838 111.214 384.118C111.139 384.389 111.074 384.603 111.018 384.762L109.884 387.786H113.048ZM118.363 381.36V383.95C118.363 384.267 118.354 384.566 118.335 384.846C118.326 385.117 118.312 385.331 118.293 385.49H118.363C118.578 385.173 118.872 384.907 119.245 384.692C119.619 384.477 120.099 384.37 120.687 384.37C121.621 384.37 122.367 384.697 122.927 385.35C123.497 385.994 123.781 386.96 123.781 388.248C123.781 389.536 123.497 390.507 122.927 391.16C122.358 391.813 121.611 392.14 120.687 392.14C120.099 392.14 119.619 392.033 119.245 391.818C118.872 391.603 118.578 391.347 118.363 391.048H118.265L118.013 392H117.131V381.36H118.363ZM120.477 385.392C119.675 385.392 119.119 385.621 118.811 386.078C118.513 386.535 118.363 387.245 118.363 388.206V388.262C118.363 389.186 118.513 389.895 118.811 390.39C119.119 390.875 119.684 391.118 120.505 391.118C121.177 391.118 121.677 390.871 122.003 390.376C122.339 389.881 122.507 389.167 122.507 388.234C122.507 386.339 121.831 385.392 120.477 385.392ZM128.587 384.37C129.501 384.37 130.178 384.571 130.617 384.972C131.055 385.373 131.275 386.013 131.275 386.89V392H130.379L130.141 390.936H130.085C129.758 391.347 129.413 391.65 129.049 391.846C128.685 392.042 128.19 392.14 127.565 392.14C126.883 392.14 126.319 391.963 125.871 391.608C125.423 391.244 125.199 390.679 125.199 389.914C125.199 389.167 125.493 388.593 126.081 388.192C126.669 387.781 127.574 387.557 128.797 387.52L130.071 387.478V387.03C130.071 386.405 129.935 385.971 129.665 385.728C129.394 385.485 129.011 385.364 128.517 385.364C128.125 385.364 127.751 385.425 127.397 385.546C127.042 385.658 126.711 385.789 126.403 385.938L126.025 385.014C126.351 384.837 126.739 384.687 127.187 384.566C127.635 384.435 128.101 384.37 128.587 384.37ZM130.057 388.332L128.951 388.374C128.017 388.411 127.369 388.561 127.005 388.822C126.65 389.083 126.473 389.452 126.473 389.928C126.473 390.348 126.599 390.656 126.851 390.852C127.112 391.048 127.443 391.146 127.845 391.146C128.47 391.146 128.993 390.973 129.413 390.628C129.842 390.273 130.057 389.732 130.057 389.004V388.332ZM137.204 384.356C138.1 384.356 138.777 384.575 139.234 385.014C139.692 385.453 139.92 386.153 139.92 387.114V392H138.702V387.198C138.702 385.994 138.142 385.392 137.022 385.392C136.192 385.392 135.618 385.625 135.3 386.092C134.983 386.559 134.824 387.231 134.824 388.108V392H133.592V384.496H134.586L134.768 385.518H134.838C135.081 385.126 135.417 384.837 135.846 384.65C136.276 384.454 136.728 384.356 137.204 384.356ZM144.907 392.14C143.973 392.14 143.227 391.818 142.667 391.174C142.107 390.521 141.827 389.55 141.827 388.262C141.827 386.974 142.107 386.003 142.667 385.35C143.236 384.687 143.987 384.356 144.921 384.356C145.499 384.356 145.971 384.463 146.335 384.678C146.708 384.893 147.011 385.154 147.245 385.462H147.329C147.31 385.341 147.291 385.163 147.273 384.93C147.254 384.687 147.245 384.496 147.245 384.356V381.36H148.477V392H147.483L147.301 390.992H147.245C147.021 391.309 146.722 391.58 146.349 391.804C145.975 392.028 145.495 392.14 144.907 392.14ZM145.103 391.118C145.896 391.118 146.451 390.903 146.769 390.474C147.095 390.035 147.259 389.377 147.259 388.5V388.276C147.259 387.343 147.105 386.629 146.797 386.134C146.489 385.63 145.919 385.378 145.089 385.378C144.426 385.378 143.927 385.644 143.591 386.176C143.264 386.699 143.101 387.403 143.101 388.29C143.101 389.186 143.264 389.881 143.591 390.376C143.927 390.871 144.431 391.118 145.103 391.118ZM157.384 388.234C157.384 389.475 157.067 390.437 156.432 391.118C155.807 391.799 154.957 392.14 153.884 392.14C153.221 392.14 152.629 391.991 152.106 391.692C151.593 391.384 151.187 390.941 150.888 390.362C150.589 389.774 150.44 389.065 150.44 388.234C150.44 386.993 150.748 386.036 151.364 385.364C151.989 384.692 152.843 384.356 153.926 384.356C154.598 384.356 155.195 384.51 155.718 384.818C156.241 385.117 156.647 385.555 156.936 386.134C157.235 386.703 157.384 387.403 157.384 388.234ZM151.714 388.234C151.714 389.121 151.887 389.825 152.232 390.348C152.587 390.861 153.147 391.118 153.912 391.118C154.668 391.118 155.223 390.861 155.578 390.348C155.933 389.825 156.11 389.121 156.11 388.234C156.11 387.347 155.933 386.652 155.578 386.148C155.223 385.644 154.663 385.392 153.898 385.392C153.133 385.392 152.577 385.644 152.232 386.148C151.887 386.652 151.714 387.347 151.714 388.234ZM162.948 384.356C163.844 384.356 164.521 384.575 164.978 385.014C165.436 385.453 165.664 386.153 165.664 387.114V392H164.446V387.198C164.446 385.994 163.886 385.392 162.766 385.392C161.936 385.392 161.362 385.625 161.044 386.092C160.727 386.559 160.568 387.231 160.568 388.108V392H159.336V384.496H160.33L160.512 385.518H160.582C160.825 385.126 161.161 384.837 161.59 384.65C162.02 384.454 162.472 384.356 162.948 384.356ZM170.889 384.356C171.523 384.356 172.074 384.496 172.541 384.776C173.007 385.056 173.362 385.453 173.605 385.966C173.857 386.47 173.983 387.063 173.983 387.744V388.486H168.845C168.863 389.335 169.078 389.984 169.489 390.432C169.909 390.871 170.492 391.09 171.239 391.09C171.715 391.09 172.135 391.048 172.499 390.964C172.872 390.871 173.255 390.74 173.647 390.572V391.65C173.264 391.818 172.886 391.939 172.513 392.014C172.139 392.098 171.696 392.14 171.183 392.14C170.464 392.14 169.834 391.995 169.293 391.706C168.751 391.417 168.327 390.987 168.019 390.418C167.72 389.849 167.571 389.144 167.571 388.304C167.571 387.483 167.706 386.778 167.977 386.19C168.257 385.602 168.644 385.149 169.139 384.832C169.643 384.515 170.226 384.356 170.889 384.356ZM170.875 385.364C170.287 385.364 169.82 385.555 169.475 385.938C169.139 386.311 168.938 386.834 168.873 387.506H172.695C172.685 386.871 172.536 386.358 172.247 385.966C171.957 385.565 171.5 385.364 170.875 385.364ZM178.553 392.14C177.62 392.14 176.873 391.818 176.313 391.174C175.753 390.521 175.473 389.55 175.473 388.262C175.473 386.974 175.753 386.003 176.313 385.35C176.882 384.687 177.634 384.356 178.567 384.356C179.146 384.356 179.617 384.463 179.981 384.678C180.354 384.893 180.658 385.154 180.891 385.462H180.975C180.956 385.341 180.938 385.163 180.919 384.93C180.9 384.687 180.891 384.496 180.891 384.356V381.36H182.123V392H181.129L180.947 390.992H180.891C180.667 391.309 180.368 391.58 179.995 391.804C179.622 392.028 179.141 392.14 178.553 392.14ZM178.749 391.118C179.542 391.118 180.098 390.903 180.415 390.474C180.742 390.035 180.905 389.377 180.905 388.5V388.276C180.905 387.343 180.751 386.629 180.443 386.134C180.135 385.63 179.566 385.378 178.735 385.378C178.072 385.378 177.573 385.644 177.237 386.176C176.91 386.699 176.747 387.403 176.747 388.29C176.747 389.186 176.91 389.881 177.237 390.376C177.573 390.871 178.077 391.118 178.749 391.118Z" fill="black"/>
</g>
<rect x="66.5" y="80.5" width="279" height="325" rx="4.5" stroke="black" stroke-opacity="0.15"/>
</g>
<defs>
<filter id="filter0_d_8160_481793" x="62" y="80" width="288" height="334" filterUnits="userSpaceOnUse" color-interpolation-filters="sRGB">
<feFlood flood-opacity="0" result="BackgroundImageFix"/>
<feColorMatrix in="SourceAlpha" type="matrix" values="0 0 0 0 0 0 0 0 0 0 0 0 0 0 0 0 0 0 127 0" result="hardAlpha"/>
<feOffset dy="4"/>
<feGaussianBlur stdDeviation="2"/>
<feColorMatrix type="matrix" values="0 0 0 0 0 0 0 0 0 0 0 0 0 0 0 0 0 0 0.25 0"/>
<feBlend mode="normal" in2="BackgroundImageFix" result="effect1_dropShadow_8160_481793"/>
<feBlend mode="normal" in="SourceGraphic" in2="effect1_dropShadow_8160_481793" result="shape"/>
</filter>
<clipPath id="clip0_8160_481793">
<rect x="67" y="81" width="278" height="324" rx="4" fill="white"/>
</clipPath>
</defs>
</svg>
