<svg width="412" height="184" viewBox="0 0 412 184" fill="none" xmlns="http://www.w3.org/2000/svg">
<rect width="412" height="184" fill="white"/>
<path d="M110.836 69.26C109.916 69.26 109.192 69.568 108.664 70.184C108.136 70.8 107.872 71.644 107.872 72.716C107.872 73.78 108.116 74.624 108.604 75.248C109.1 75.864 109.84 76.172 110.824 76.172C111.192 76.172 111.544 76.14 111.88 76.076C112.216 76.012 112.548 75.932 112.876 75.836V76.772C112.556 76.892 112.224 76.98 111.88 77.036C111.544 77.092 111.14 77.12 110.668 77.12C109.796 77.12 109.068 76.94 108.484 76.58C107.9 76.22 107.46 75.708 107.164 75.044C106.876 74.38 106.732 73.6 106.732 72.704C106.732 71.84 106.888 71.08 107.2 70.424C107.52 69.76 107.988 69.244 108.604 68.876C109.22 68.5 109.968 68.312 110.848 68.312C111.752 68.312 112.54 68.48 113.212 68.816L112.78 69.728C112.516 69.608 112.22 69.5 111.892 69.404C111.572 69.308 111.22 69.26 110.836 69.26ZM120.194 73.772C120.194 74.836 119.922 75.66 119.378 76.244C118.842 76.828 118.114 77.12 117.194 77.12C116.626 77.12 116.118 76.992 115.67 76.736C115.23 76.472 114.882 76.092 114.626 75.596C114.37 75.092 114.242 74.484 114.242 73.772C114.242 72.708 114.506 71.888 115.034 71.312C115.57 70.736 116.302 70.448 117.23 70.448C117.806 70.448 118.318 70.58 118.766 70.844C119.214 71.1 119.562 71.476 119.81 71.972C120.066 72.46 120.194 73.06 120.194 73.772ZM115.334 73.772C115.334 74.532 115.482 75.136 115.778 75.584C116.082 76.024 116.562 76.244 117.218 76.244C117.866 76.244 118.342 76.024 118.646 75.584C118.95 75.136 119.102 74.532 119.102 73.772C119.102 73.012 118.95 72.416 118.646 71.984C118.342 71.552 117.862 71.336 117.206 71.336C116.55 71.336 116.074 71.552 115.778 71.984C115.482 72.416 115.334 73.012 115.334 73.772ZM127.244 70.568V77H126.38L126.224 76.148H126.176C125.968 76.484 125.68 76.732 125.312 76.892C124.944 77.044 124.552 77.12 124.136 77.12C123.36 77.12 122.776 76.936 122.384 76.568C121.992 76.192 121.796 75.596 121.796 74.78V70.568H122.864V74.708C122.864 75.732 123.34 76.244 124.292 76.244C125.004 76.244 125.496 76.044 125.768 75.644C126.048 75.244 126.188 74.668 126.188 73.916V70.568H127.244ZM132.382 70.448C133.15 70.448 133.73 70.636 134.122 71.012C134.514 71.388 134.71 71.988 134.71 72.812V77H133.666V72.884C133.666 71.852 133.186 71.336 132.226 71.336C131.514 71.336 131.022 71.536 130.75 71.936C130.478 72.336 130.342 72.912 130.342 73.664V77H129.286V70.568H130.138L130.294 71.444H130.354C130.562 71.108 130.85 70.86 131.218 70.7C131.586 70.532 131.974 70.448 132.382 70.448ZM138.852 76.256C139.012 76.256 139.176 76.244 139.344 76.22C139.512 76.196 139.648 76.164 139.752 76.124V76.928C139.64 76.984 139.48 77.028 139.272 77.06C139.064 77.1 138.864 77.12 138.672 77.12C138.336 77.12 138.024 77.064 137.736 76.952C137.456 76.832 137.228 76.628 137.052 76.34C136.876 76.052 136.788 75.648 136.788 75.128V71.384H135.876V70.88L136.8 70.46L137.22 69.092H137.844V70.568H139.704V71.384H137.844V75.104C137.844 75.496 137.936 75.788 138.12 75.98C138.312 76.164 138.556 76.256 138.852 76.256ZM144.04 70.448C144.16 70.448 144.288 70.456 144.424 70.472C144.56 70.48 144.684 70.496 144.796 70.52L144.664 71.492C144.56 71.468 144.444 71.448 144.316 71.432C144.188 71.416 144.072 71.408 143.968 71.408C143.64 71.408 143.332 71.5 143.044 71.684C142.756 71.86 142.524 72.112 142.348 72.44C142.18 72.76 142.096 73.136 142.096 73.568V77H141.04V70.568H141.904L142.024 71.744H142.072C142.272 71.392 142.536 71.088 142.864 70.832C143.2 70.576 143.592 70.448 144.04 70.448ZM144.989 70.568H146.117L147.509 74.228C147.629 74.556 147.737 74.864 147.833 75.152C147.929 75.44 148.001 75.716 148.049 75.98H148.097C148.145 75.78 148.221 75.52 148.325 75.2C148.429 74.872 148.537 74.544 148.649 74.216L149.957 70.568H151.097L148.325 77.888C148.093 78.496 147.801 78.98 147.449 79.34C147.097 79.7 146.609 79.88 145.985 79.88C145.793 79.88 145.625 79.868 145.481 79.844C145.337 79.828 145.213 79.808 145.109 79.784V78.944C145.197 78.96 145.301 78.976 145.421 78.992C145.549 79.008 145.681 79.016 145.817 79.016C146.185 79.016 146.481 78.912 146.705 78.704C146.929 78.496 147.109 78.22 147.245 77.876L147.581 77.024L144.989 70.568Z" fill="#323232"/>
<rect x="106.5" y="84.5" width="199" height="35" rx="1.5" fill="white"/>
<path d="M126.96 97.004V103.472C126.96 104.163 126.82 104.788 126.54 105.348C126.26 105.899 125.831 106.337 125.252 106.664C124.673 106.981 123.945 107.14 123.068 107.14C121.817 107.14 120.87 106.804 120.226 106.132C119.582 105.451 119.26 104.555 119.26 103.444V97.004H120.52V103.486C120.52 104.298 120.735 104.928 121.164 105.376C121.603 105.824 122.261 106.048 123.138 106.048C124.043 106.048 124.697 105.81 125.098 105.334C125.509 104.849 125.714 104.228 125.714 103.472V97.004H126.96ZM133.042 99.356C133.938 99.356 134.615 99.5753 135.072 100.014C135.53 100.453 135.758 101.153 135.758 102.114V107H134.54V102.198C134.54 100.994 133.98 100.392 132.86 100.392C132.03 100.392 131.456 100.625 131.138 101.092C130.821 101.559 130.662 102.231 130.662 103.108V107H129.43V99.496H130.424L130.606 100.518H130.676C130.919 100.126 131.255 99.8367 131.684 99.65C132.114 99.454 132.566 99.356 133.042 99.356ZM138.715 96.682C138.901 96.682 139.065 96.7473 139.205 96.878C139.354 96.9993 139.429 97.1953 139.429 97.466C139.429 97.7367 139.354 97.9373 139.205 98.068C139.065 98.1893 138.901 98.25 138.715 98.25C138.509 98.25 138.337 98.1893 138.197 98.068C138.057 97.9373 137.987 97.7367 137.987 97.466C137.987 97.1953 138.057 96.9993 138.197 96.878C138.337 96.7473 138.509 96.682 138.715 96.682ZM139.317 99.496V107H138.085V99.496H139.317ZM144.2 106.132C144.387 106.132 144.578 106.118 144.774 106.09C144.97 106.062 145.129 106.025 145.25 105.978V106.916C145.119 106.981 144.933 107.033 144.69 107.07C144.447 107.117 144.214 107.14 143.99 107.14C143.598 107.14 143.234 107.075 142.898 106.944C142.571 106.804 142.305 106.566 142.1 106.23C141.895 105.894 141.792 105.423 141.792 104.816V100.448H140.728V99.86L141.806 99.37L142.296 97.774H143.024V99.496H145.194V100.448H143.024V104.788C143.024 105.245 143.131 105.586 143.346 105.81C143.57 106.025 143.855 106.132 144.2 106.132ZM149.651 99.356C150.285 99.356 150.836 99.496 151.303 99.776C151.769 100.056 152.124 100.453 152.367 100.966C152.619 101.47 152.745 102.063 152.745 102.744V103.486H147.607C147.625 104.335 147.84 104.984 148.251 105.432C148.671 105.871 149.254 106.09 150.001 106.09C150.477 106.09 150.897 106.048 151.261 105.964C151.634 105.871 152.017 105.74 152.409 105.572V106.65C152.026 106.818 151.648 106.939 151.275 107.014C150.901 107.098 150.458 107.14 149.945 107.14C149.226 107.14 148.596 106.995 148.055 106.706C147.513 106.417 147.089 105.987 146.781 105.418C146.482 104.849 146.333 104.144 146.333 103.304C146.333 102.483 146.468 101.778 146.739 101.19C147.019 100.602 147.406 100.149 147.901 99.832C148.405 99.5147 148.988 99.356 149.651 99.356ZM149.637 100.364C149.049 100.364 148.582 100.555 148.237 100.938C147.901 101.311 147.7 101.834 147.635 102.506H151.457C151.447 101.871 151.298 101.358 151.009 100.966C150.719 100.565 150.262 100.364 149.637 100.364ZM157.315 107.14C156.382 107.14 155.635 106.818 155.075 106.174C154.515 105.521 154.235 104.55 154.235 103.262C154.235 101.974 154.515 101.003 155.075 100.35C155.644 99.6873 156.396 99.356 157.329 99.356C157.908 99.356 158.379 99.4633 158.743 99.678C159.116 99.8927 159.42 100.154 159.653 100.462H159.737C159.718 100.341 159.7 100.163 159.681 99.93C159.662 99.6873 159.653 99.496 159.653 99.356V96.36H160.885V107H159.891L159.709 105.992H159.653C159.429 106.309 159.13 106.58 158.757 106.804C158.384 107.028 157.903 107.14 157.315 107.14ZM157.511 106.118C158.304 106.118 158.86 105.903 159.177 105.474C159.504 105.035 159.667 104.377 159.667 103.5V103.276C159.667 102.343 159.513 101.629 159.205 101.134C158.897 100.63 158.328 100.378 157.497 100.378C156.834 100.378 156.335 100.644 155.999 101.176C155.672 101.699 155.509 102.403 155.509 103.29C155.509 104.186 155.672 104.881 155.999 105.376C156.335 105.871 156.839 106.118 157.511 106.118ZM172.743 104.326C172.743 105.213 172.421 105.903 171.777 106.398C171.133 106.893 170.265 107.14 169.173 107.14C168.613 107.14 168.095 107.098 167.619 107.014C167.143 106.93 166.746 106.813 166.429 106.664V105.46C166.765 105.609 167.18 105.745 167.675 105.866C168.179 105.987 168.697 106.048 169.229 106.048C169.966 106.048 170.526 105.903 170.909 105.614C171.292 105.325 171.483 104.933 171.483 104.438C171.483 104.111 171.413 103.836 171.273 103.612C171.133 103.388 170.89 103.183 170.545 102.996C170.2 102.809 169.728 102.604 169.131 102.38C168.272 102.072 167.628 101.694 167.199 101.246C166.77 100.798 166.555 100.187 166.555 99.412C166.555 98.8893 166.69 98.4367 166.961 98.054C167.232 97.6713 167.605 97.3773 168.081 97.172C168.557 96.9667 169.112 96.864 169.747 96.864C170.288 96.864 170.788 96.9153 171.245 97.018C171.702 97.1207 172.122 97.256 172.505 97.424L172.113 98.502C171.768 98.3527 171.39 98.2267 170.979 98.124C170.568 98.0213 170.148 97.97 169.719 97.97C169.094 97.97 168.622 98.1053 168.305 98.376C167.988 98.6373 167.829 98.9873 167.829 99.426C167.829 99.762 167.899 100.042 168.039 100.266C168.179 100.49 168.408 100.695 168.725 100.882C169.042 101.059 169.472 101.246 170.013 101.442C170.601 101.657 171.096 101.89 171.497 102.142C171.908 102.385 172.216 102.679 172.421 103.024C172.636 103.369 172.743 103.803 172.743 104.326ZM177.094 106.132C177.281 106.132 177.472 106.118 177.668 106.09C177.864 106.062 178.023 106.025 178.144 105.978V106.916C178.014 106.981 177.827 107.033 177.584 107.07C177.342 107.117 177.108 107.14 176.884 107.14C176.492 107.14 176.128 107.075 175.792 106.944C175.466 106.804 175.2 106.566 174.994 106.23C174.789 105.894 174.686 105.423 174.686 104.816V100.448H173.622V99.86L174.7 99.37L175.19 97.774H175.918V99.496H178.088V100.448H175.918V104.788C175.918 105.245 176.026 105.586 176.24 105.81C176.464 106.025 176.749 106.132 177.094 106.132ZM182.489 99.37C183.404 99.37 184.08 99.5707 184.519 99.972C184.958 100.373 185.177 101.013 185.177 101.89V107H184.281L184.043 105.936H183.987C183.66 106.347 183.315 106.65 182.951 106.846C182.587 107.042 182.092 107.14 181.467 107.14C180.786 107.14 180.221 106.963 179.773 106.608C179.325 106.244 179.101 105.679 179.101 104.914C179.101 104.167 179.395 103.593 179.983 103.192C180.571 102.781 181.476 102.557 182.699 102.52L183.973 102.478V102.03C183.973 101.405 183.838 100.971 183.567 100.728C183.296 100.485 182.914 100.364 182.419 100.364C182.027 100.364 181.654 100.425 181.299 100.546C180.944 100.658 180.613 100.789 180.305 100.938L179.927 100.014C180.254 99.8367 180.641 99.6873 181.089 99.566C181.537 99.4353 182.004 99.37 182.489 99.37ZM183.959 103.332L182.853 103.374C181.92 103.411 181.271 103.561 180.907 103.822C180.552 104.083 180.375 104.452 180.375 104.928C180.375 105.348 180.501 105.656 180.753 105.852C181.014 106.048 181.346 106.146 181.747 106.146C182.372 106.146 182.895 105.973 183.315 105.628C183.744 105.273 183.959 104.732 183.959 104.004V103.332ZM190.001 106.132C190.187 106.132 190.379 106.118 190.575 106.09C190.771 106.062 190.929 106.025 191.051 105.978V106.916C190.92 106.981 190.733 107.033 190.491 107.07C190.248 107.117 190.015 107.14 189.791 107.14C189.399 107.14 189.035 107.075 188.699 106.944C188.372 106.804 188.106 106.566 187.901 106.23C187.695 105.894 187.593 105.423 187.593 104.816V100.448H186.529V99.86L187.607 99.37L188.097 97.774H188.825V99.496H190.995V100.448H188.825V104.788C188.825 105.245 188.932 105.586 189.147 105.81C189.371 106.025 189.655 106.132 190.001 106.132ZM195.451 99.356C196.086 99.356 196.637 99.496 197.103 99.776C197.57 100.056 197.925 100.453 198.167 100.966C198.419 101.47 198.545 102.063 198.545 102.744V103.486H193.407C193.426 104.335 193.641 104.984 194.051 105.432C194.471 105.871 195.055 106.09 195.801 106.09C196.277 106.09 196.697 106.048 197.061 105.964C197.435 105.871 197.817 105.74 198.209 105.572V106.65C197.827 106.818 197.449 106.939 197.075 107.014C196.702 107.098 196.259 107.14 195.745 107.14C195.027 107.14 194.397 106.995 193.855 106.706C193.314 106.417 192.889 105.987 192.581 105.418C192.283 104.849 192.133 104.144 192.133 103.304C192.133 102.483 192.269 101.778 192.539 101.19C192.819 100.602 193.207 100.149 193.701 99.832C194.205 99.5147 194.789 99.356 195.451 99.356ZM195.437 100.364C194.849 100.364 194.383 100.555 194.037 100.938C193.701 101.311 193.501 101.834 193.435 102.506H197.257C197.248 101.871 197.099 101.358 196.809 100.966C196.52 100.565 196.063 100.364 195.437 100.364ZM205.342 104.928C205.342 105.656 205.071 106.207 204.53 106.58C203.988 106.953 203.26 107.14 202.346 107.14C201.823 107.14 201.37 107.098 200.988 107.014C200.614 106.93 200.283 106.813 199.994 106.664V105.544C200.292 105.693 200.652 105.833 201.072 105.964C201.501 106.085 201.935 106.146 202.374 106.146C202.999 106.146 203.452 106.048 203.732 105.852C204.012 105.647 204.152 105.376 204.152 105.04C204.152 104.853 204.1 104.685 203.998 104.536C203.895 104.387 203.708 104.237 203.438 104.088C203.176 103.939 202.798 103.771 202.304 103.584C201.818 103.397 201.403 103.211 201.058 103.024C200.712 102.837 200.446 102.613 200.26 102.352C200.073 102.091 199.98 101.755 199.98 101.344C199.98 100.709 200.236 100.219 200.75 99.874C201.272 99.5287 201.954 99.356 202.794 99.356C203.251 99.356 203.676 99.4027 204.068 99.496C204.469 99.5893 204.842 99.7107 205.188 99.86L204.768 100.84C204.45 100.709 204.119 100.597 203.774 100.504C203.428 100.411 203.074 100.364 202.71 100.364C202.206 100.364 201.818 100.448 201.548 100.616C201.286 100.775 201.156 100.994 201.156 101.274C201.156 101.489 201.216 101.666 201.338 101.806C201.459 101.946 201.66 102.086 201.94 102.226C202.229 102.366 202.612 102.525 203.088 102.702C203.564 102.879 203.97 103.061 204.306 103.248C204.642 103.435 204.898 103.663 205.076 103.934C205.253 104.195 205.342 104.527 205.342 104.928Z" fill="black"/>
<path d="M286.012 105.362C285.912 105.362 285.812 105.312 285.762 105.262L280.113 99.6625C279.962 99.5125 279.962 99.2625 280.113 99.1125C280.263 98.9625 280.512 98.9625 280.662 99.1125L286.012 104.462L291.312 99.1125C291.462 98.9625 291.713 98.9625 291.863 99.1125C292.012 99.2625 292.012 99.5125 291.863 99.6625L286.262 105.262C286.162 105.312 286.112 105.362 286.012 105.362Z" fill="#323232"/>
<rect x="106.5" y="84.5" width="199" height="35" rx="1.5" stroke="#939393"/>
</svg>
