<svg width="412" height="300" viewBox="0 0 412 300" fill="none" xmlns="http://www.w3.org/2000/svg">
<rect width="412" height="300" fill="white"/>
<path d="M69.876 46H68.796V38.38H66.12V37.432H72.54V38.38H69.876V46ZM76.0903 39.448C76.2103 39.448 76.3383 39.456 76.4743 39.472C76.6103 39.48 76.7343 39.496 76.8463 39.52L76.7143 40.492C76.6103 40.468 76.4943 40.448 76.3663 40.432C76.2383 40.416 76.1223 40.408 76.0183 40.408C75.6903 40.408 75.3823 40.5 75.0943 40.684C74.8063 40.86 74.5743 41.112 74.3983 41.44C74.2303 41.76 74.1463 42.136 74.1463 42.568V46H73.0903V39.568H73.9543L74.0743 40.744H74.1223C74.3223 40.392 74.5863 40.088 74.9143 39.832C75.2503 39.576 75.6423 39.448 76.0903 39.448ZM80.249 39.46C81.033 39.46 81.613 39.632 81.989 39.976C82.365 40.32 82.553 40.868 82.553 41.62V46H81.785L81.581 45.088H81.533C81.253 45.44 80.957 45.7 80.645 45.868C80.333 46.036 79.909 46.12 79.373 46.12C78.789 46.12 78.305 45.968 77.921 45.664C77.537 45.352 77.345 44.868 77.345 44.212C77.345 43.572 77.597 43.08 78.101 42.736C78.605 42.384 79.381 42.192 80.429 42.16L81.521 42.124V41.74C81.521 41.204 81.405 40.832 81.173 40.624C80.941 40.416 80.613 40.312 80.189 40.312C79.853 40.312 79.533 40.364 79.229 40.468C78.925 40.564 78.641 40.676 78.377 40.804L78.053 40.012C78.333 39.86 78.665 39.732 79.049 39.628C79.433 39.516 79.833 39.46 80.249 39.46ZM81.509 42.856L80.561 42.892C79.761 42.924 79.205 43.052 78.893 43.276C78.589 43.5 78.437 43.816 78.437 44.224C78.437 44.584 78.545 44.848 78.761 45.016C78.985 45.184 79.269 45.268 79.613 45.268C80.149 45.268 80.597 45.12 80.957 44.824C81.325 44.52 81.509 44.056 81.509 43.432V42.856ZM87.6355 39.448C88.4035 39.448 88.9835 39.636 89.3755 40.012C89.7675 40.388 89.9635 40.988 89.9635 41.812V46H88.9195V41.884C88.9195 40.852 88.4395 40.336 87.4795 40.336C86.7675 40.336 86.2755 40.536 86.0035 40.936C85.7315 41.336 85.5955 41.912 85.5955 42.664V46H84.5395V39.568H85.3915L85.5475 40.444H85.6075C85.8155 40.108 86.1035 39.86 86.4715 39.7C86.8395 39.532 87.2275 39.448 87.6355 39.448ZM96.1455 44.224C96.1455 44.848 95.9135 45.32 95.4495 45.64C94.9855 45.96 94.3615 46.12 93.5775 46.12C93.1295 46.12 92.7415 46.084 92.4135 46.012C92.0935 45.94 91.8095 45.84 91.5615 45.712V44.752C91.8175 44.88 92.1255 45 92.4855 45.112C92.8535 45.216 93.2255 45.268 93.6015 45.268C94.1375 45.268 94.5255 45.184 94.7655 45.016C95.0055 44.84 95.1255 44.608 95.1255 44.32C95.1255 44.16 95.0815 44.016 94.9935 43.888C94.9055 43.76 94.7455 43.632 94.5135 43.504C94.2895 43.376 93.9655 43.232 93.5415 43.072C93.1255 42.912 92.7695 42.752 92.4735 42.592C92.1775 42.432 91.9495 42.24 91.7895 42.016C91.6295 41.792 91.5495 41.504 91.5495 41.152C91.5495 40.608 91.7695 40.188 92.2095 39.892C92.6575 39.596 93.2415 39.448 93.9615 39.448C94.3535 39.448 94.7175 39.488 95.0535 39.568C95.3975 39.648 95.7175 39.752 96.0135 39.88L95.6535 40.72C95.3815 40.608 95.0975 40.512 94.8015 40.432C94.5055 40.352 94.2015 40.312 93.8895 40.312C93.4575 40.312 93.1255 40.384 92.8935 40.528C92.6695 40.664 92.5575 40.852 92.5575 41.092C92.5575 41.276 92.6095 41.428 92.7135 41.548C92.8175 41.668 92.9895 41.788 93.2295 41.908C93.4775 42.028 93.8055 42.164 94.2135 42.316C94.6215 42.468 94.9695 42.624 95.2575 42.784C95.5455 42.944 95.7655 43.14 95.9175 43.372C96.0695 43.596 96.1455 43.88 96.1455 44.224ZM100.664 40.384H99.0437V46H97.9877V40.384H96.8597V39.892L97.9877 39.532V39.16C97.9877 38.328 98.1677 37.732 98.5277 37.372C98.8957 37.004 99.4117 36.82 100.076 36.82C100.324 36.82 100.556 36.844 100.772 36.892C100.988 36.932 101.172 36.98 101.324 37.036L101.048 37.864C100.92 37.824 100.772 37.784 100.604 37.744C100.436 37.704 100.264 37.684 100.088 37.684C99.7357 37.684 99.4717 37.804 99.2957 38.044C99.1277 38.276 99.0437 38.644 99.0437 39.148V39.568H100.664V40.384ZM104.309 39.448C104.853 39.448 105.325 39.568 105.725 39.808C106.125 40.048 106.429 40.388 106.637 40.828C106.853 41.26 106.961 41.768 106.961 42.352V42.988H102.557C102.573 43.716 102.757 44.272 103.109 44.656C103.469 45.032 103.969 45.22 104.609 45.22C105.017 45.22 105.377 45.184 105.689 45.112C106.009 45.032 106.337 44.92 106.673 44.776V45.7C106.345 45.844 106.021 45.948 105.701 46.012C105.381 46.084 105.001 46.12 104.561 46.12C103.945 46.12 103.405 45.996 102.941 45.748C102.477 45.5 102.113 45.132 101.849 44.644C101.593 44.156 101.465 43.552 101.465 42.832C101.465 42.128 101.581 41.524 101.813 41.02C102.053 40.516 102.385 40.128 102.809 39.856C103.241 39.584 103.741 39.448 104.309 39.448ZM104.297 40.312C103.793 40.312 103.393 40.476 103.097 40.804C102.809 41.124 102.637 41.572 102.581 42.148H105.857C105.849 41.604 105.721 41.164 105.473 40.828C105.225 40.484 104.833 40.312 104.297 40.312ZM111.598 39.448C111.718 39.448 111.846 39.456 111.982 39.472C112.118 39.48 112.242 39.496 112.354 39.52L112.222 40.492C112.118 40.468 112.002 40.448 111.874 40.432C111.746 40.416 111.63 40.408 111.526 40.408C111.198 40.408 110.89 40.5 110.602 40.684C110.314 40.86 110.082 41.112 109.906 41.44C109.738 41.76 109.654 42.136 109.654 42.568V46H108.598V39.568H109.462L109.582 40.744H109.63C109.83 40.392 110.094 40.088 110.422 39.832C110.758 39.576 111.15 39.448 111.598 39.448ZM118.82 45.256C118.98 45.256 119.144 45.244 119.312 45.22C119.48 45.196 119.616 45.164 119.72 45.124V45.928C119.608 45.984 119.448 46.028 119.24 46.06C119.032 46.1 118.832 46.12 118.64 46.12C118.304 46.12 117.992 46.064 117.704 45.952C117.424 45.832 117.196 45.628 117.02 45.34C116.844 45.052 116.756 44.648 116.756 44.128V40.384H115.844V39.88L116.768 39.46L117.188 38.092H117.812V39.568H119.672V40.384H117.812V44.104C117.812 44.496 117.904 44.788 118.088 44.98C118.28 45.164 118.524 45.256 118.82 45.256ZM126.6 42.772C126.6 43.836 126.328 44.66 125.784 45.244C125.248 45.828 124.52 46.12 123.6 46.12C123.032 46.12 122.524 45.992 122.076 45.736C121.636 45.472 121.288 45.092 121.032 44.596C120.776 44.092 120.648 43.484 120.648 42.772C120.648 41.708 120.912 40.888 121.44 40.312C121.976 39.736 122.708 39.448 123.636 39.448C124.212 39.448 124.724 39.58 125.172 39.844C125.62 40.1 125.968 40.476 126.216 40.972C126.472 41.46 126.6 42.06 126.6 42.772ZM121.74 42.772C121.74 43.532 121.888 44.136 122.184 44.584C122.488 45.024 122.968 45.244 123.624 45.244C124.272 45.244 124.748 45.024 125.052 44.584C125.356 44.136 125.508 43.532 125.508 42.772C125.508 42.012 125.356 41.416 125.052 40.984C124.748 40.552 124.268 40.336 123.612 40.336C122.956 40.336 122.48 40.552 122.184 40.984C121.888 41.416 121.74 42.012 121.74 42.772Z" fill="#323232"/>
<rect x="67" y="54" width="278" height="34" rx="1" fill="white"/>
<path d="M82.522 76H81.262V67.11H78.14V66.004H85.63V67.11H82.522V76Z" fill="black"/>
<rect x="90" y="63" width="1" height="16" fill="black"/>
<path d="M331.613 74.3625C331.512 74.3625 331.413 74.3125 331.363 74.2625L326.012 68.9125L320.662 74.2625C320.512 74.4125 320.263 74.4125 320.113 74.2625C319.962 74.1125 319.962 73.8625 320.113 73.7125L325.712 68.1125C325.862 67.9625 326.112 67.9625 326.262 68.1125L331.863 73.7125C332.012 73.8625 332.012 74.1125 331.863 74.2625C331.812 74.3125 331.713 74.3625 331.613 74.3625Z" fill="#323232"/>
<rect x="67" y="54" width="278" height="34" rx="1" stroke="#1473E6" stroke-width="2"/>
<g filter="url(#filter0_d_8930_109227)">
<g clip-path="url(#clip0_8930_109227)">
<rect x="67" y="90" width="278" height="176" rx="4" fill="white"/>
<rect width="72" height="44" transform="translate(67 90)" fill="white"/>
<rect width="141" height="44" transform="translate(75 90.5)" fill="white"/>
<path d="M87.9243 117.5H86.6643V108.61H83.5423V107.504H91.0323V108.61H87.9243V117.5ZM94.0925 109.87C95.0072 109.87 95.6839 110.071 96.1225 110.472C96.5612 110.873 96.7805 111.513 96.7805 112.39V117.5H95.8845L95.6465 116.436H95.5905C95.2639 116.847 94.9185 117.15 94.5545 117.346C94.1905 117.542 93.6959 117.64 93.0705 117.64C92.3892 117.64 91.8245 117.463 91.3765 117.108C90.9285 116.744 90.7045 116.179 90.7045 115.414C90.7045 114.667 90.9985 114.093 91.5865 113.692C92.1745 113.281 93.0799 113.057 94.3025 113.02L95.5765 112.978V112.53C95.5765 111.905 95.4412 111.471 95.1705 111.228C94.8999 110.985 94.5172 110.864 94.0225 110.864C93.6305 110.864 93.2572 110.925 92.9025 111.046C92.5479 111.158 92.2165 111.289 91.9085 111.438L91.5305 110.514C91.8572 110.337 92.2445 110.187 92.6925 110.066C93.1405 109.935 93.6072 109.87 94.0925 109.87ZM95.5625 113.832L94.4565 113.874C93.5232 113.911 92.8745 114.061 92.5105 114.322C92.1559 114.583 91.9785 114.952 91.9785 115.428C91.9785 115.848 92.1045 116.156 92.3565 116.352C92.6179 116.548 92.9492 116.646 93.3505 116.646C93.9759 116.646 94.4985 116.473 94.9185 116.128C95.3479 115.773 95.5625 115.232 95.5625 114.504V113.832ZM97.9222 109.996H99.2382L100.862 114.266C101.002 114.649 101.128 115.008 101.24 115.344C101.352 115.68 101.436 116.002 101.492 116.31H101.548C101.604 116.077 101.693 115.773 101.814 115.4C101.936 115.017 102.062 114.635 102.192 114.252L103.718 109.996H105.048L101.814 118.536C101.544 119.245 101.203 119.81 100.792 120.23C100.382 120.65 99.8122 120.86 99.0842 120.86C98.8602 120.86 98.6642 120.846 98.4962 120.818C98.3282 120.799 98.1835 120.776 98.0622 120.748V119.768C98.1649 119.787 98.2862 119.805 98.4262 119.824C98.5755 119.843 98.7295 119.852 98.8882 119.852C99.3175 119.852 99.6629 119.731 99.9242 119.488C100.186 119.245 100.396 118.923 100.554 118.522L100.946 117.528L97.9222 109.996ZM107.467 117.5H106.235V106.86H107.467V117.5ZM116.368 113.734C116.368 114.975 116.051 115.937 115.416 116.618C114.791 117.299 113.942 117.64 112.868 117.64C112.206 117.64 111.613 117.491 111.09 117.192C110.577 116.884 110.171 116.441 109.872 115.862C109.574 115.274 109.424 114.565 109.424 113.734C109.424 112.493 109.732 111.536 110.348 110.864C110.974 110.192 111.828 109.856 112.91 109.856C113.582 109.856 114.18 110.01 114.702 110.318C115.225 110.617 115.631 111.055 115.92 111.634C116.219 112.203 116.368 112.903 116.368 113.734ZM110.698 113.734C110.698 114.621 110.871 115.325 111.216 115.848C111.571 116.361 112.131 116.618 112.896 116.618C113.652 116.618 114.208 116.361 114.562 115.848C114.917 115.325 115.094 114.621 115.094 113.734C115.094 112.847 114.917 112.152 114.562 111.648C114.208 111.144 113.648 110.892 112.882 110.892C112.117 110.892 111.562 111.144 111.216 111.648C110.871 112.152 110.698 112.847 110.698 113.734ZM121.821 109.856C121.961 109.856 122.11 109.865 122.269 109.884C122.428 109.893 122.572 109.912 122.703 109.94L122.549 111.074C122.428 111.046 122.292 111.023 122.143 111.004C121.994 110.985 121.858 110.976 121.737 110.976C121.354 110.976 120.995 111.083 120.659 111.298C120.323 111.503 120.052 111.797 119.847 112.18C119.651 112.553 119.553 112.992 119.553 113.496V117.5H118.321V109.996H119.329L119.469 111.368H119.525C119.758 110.957 120.066 110.603 120.449 110.304C120.841 110.005 121.298 109.856 121.821 109.856ZM134.181 117.5L132.977 114.406H129.015L127.825 117.5H126.551L130.457 107.462H131.591L135.483 117.5H134.181ZM132.599 113.286L131.479 110.262C131.451 110.187 131.404 110.052 131.339 109.856C131.273 109.66 131.208 109.459 131.143 109.254C131.087 109.039 131.04 108.876 131.003 108.764C130.928 109.053 130.849 109.338 130.765 109.618C130.69 109.889 130.625 110.103 130.569 110.262L129.435 113.286H132.599ZM140.294 109.856C141.19 109.856 141.867 110.075 142.324 110.514C142.782 110.953 143.01 111.653 143.01 112.614V117.5H141.792V112.698C141.792 111.494 141.232 110.892 140.112 110.892C139.282 110.892 138.708 111.125 138.39 111.592C138.073 112.059 137.914 112.731 137.914 113.608V117.5H136.682V109.996H137.676L137.858 111.018H137.928C138.171 110.626 138.507 110.337 138.936 110.15C139.366 109.954 139.818 109.856 140.294 109.856ZM148.948 109.856C149.844 109.856 150.521 110.075 150.978 110.514C151.436 110.953 151.664 111.653 151.664 112.614V117.5H150.446V112.698C150.446 111.494 149.886 110.892 148.766 110.892C147.936 110.892 147.362 111.125 147.044 111.592C146.727 112.059 146.568 112.731 146.568 113.608V117.5H145.336V109.996H146.33L146.512 111.018H146.582C146.825 110.626 147.161 110.337 147.59 110.15C148.02 109.954 148.472 109.856 148.948 109.856ZM156.889 109.856C157.523 109.856 158.074 109.996 158.541 110.276C159.007 110.556 159.362 110.953 159.605 111.466C159.857 111.97 159.983 112.563 159.983 113.244V113.986H154.845C154.863 114.835 155.078 115.484 155.489 115.932C155.909 116.371 156.492 116.59 157.239 116.59C157.715 116.59 158.135 116.548 158.499 116.464C158.872 116.371 159.255 116.24 159.647 116.072V117.15C159.264 117.318 158.886 117.439 158.513 117.514C158.139 117.598 157.696 117.64 157.183 117.64C156.464 117.64 155.834 117.495 155.293 117.206C154.751 116.917 154.327 116.487 154.019 115.918C153.72 115.349 153.571 114.644 153.571 113.804C153.571 112.983 153.706 112.278 153.977 111.69C154.257 111.102 154.644 110.649 155.139 110.332C155.643 110.015 156.226 109.856 156.889 109.856ZM156.875 110.864C156.287 110.864 155.82 111.055 155.475 111.438C155.139 111.811 154.938 112.334 154.873 113.006H158.695C158.685 112.371 158.536 111.858 158.247 111.466C157.957 111.065 157.5 110.864 156.875 110.864ZM173.006 117.5H171.522L167.98 112.726L166.958 113.622V117.5H165.698V107.504H166.958V112.432C167.238 112.115 167.523 111.797 167.812 111.48C168.101 111.163 168.391 110.845 168.68 110.528L171.382 107.504H172.852L168.89 111.858L173.006 117.5ZM177.81 109.856C178.706 109.856 179.382 110.075 179.84 110.514C180.297 110.953 180.526 111.653 180.526 112.614V117.5H179.308V112.698C179.308 111.494 178.748 110.892 177.628 110.892C176.797 110.892 176.223 111.125 175.906 111.592C175.588 112.059 175.43 112.731 175.43 113.608V117.5H174.198V109.996H175.192L175.374 111.018H175.444C175.686 110.626 176.022 110.337 176.452 110.15C176.881 109.954 177.334 109.856 177.81 109.856ZM183.482 107.182C183.669 107.182 183.832 107.247 183.972 107.378C184.121 107.499 184.196 107.695 184.196 107.966C184.196 108.237 184.121 108.437 183.972 108.568C183.832 108.689 183.669 108.75 183.482 108.75C183.277 108.75 183.104 108.689 182.964 108.568C182.824 108.437 182.754 108.237 182.754 107.966C182.754 107.695 182.824 107.499 182.964 107.378C183.104 107.247 183.277 107.182 183.482 107.182ZM184.084 109.996V117.5H182.852V109.996H184.084ZM189.121 109.856C189.616 109.856 190.059 109.949 190.451 110.136C190.853 110.323 191.193 110.607 191.473 110.99H191.543L191.711 109.996H192.691V117.626C192.691 118.699 192.416 119.507 191.865 120.048C191.324 120.589 190.479 120.86 189.331 120.86C188.23 120.86 187.329 120.701 186.629 120.384V119.25C187.367 119.642 188.291 119.838 189.401 119.838C190.045 119.838 190.549 119.647 190.913 119.264C191.287 118.891 191.473 118.377 191.473 117.724V117.43C191.473 117.318 191.478 117.159 191.487 116.954C191.497 116.739 191.506 116.59 191.515 116.506H191.459C190.955 117.262 190.181 117.64 189.135 117.64C188.165 117.64 187.404 117.299 186.853 116.618C186.312 115.937 186.041 114.985 186.041 113.762C186.041 112.567 186.312 111.62 186.853 110.92C187.404 110.211 188.16 109.856 189.121 109.856ZM189.289 110.892C188.664 110.892 188.179 111.144 187.833 111.648C187.488 112.143 187.315 112.852 187.315 113.776C187.315 114.7 187.483 115.409 187.819 115.904C188.155 116.389 188.655 116.632 189.317 116.632C190.073 116.632 190.624 116.431 190.969 116.03C191.315 115.619 191.487 114.961 191.487 114.056V113.762C191.487 112.745 191.31 112.012 190.955 111.564C190.601 111.116 190.045 110.892 189.289 110.892ZM196.307 106.86V109.982C196.307 110.355 196.283 110.705 196.237 111.032H196.321C196.563 110.649 196.89 110.36 197.301 110.164C197.721 109.968 198.173 109.87 198.659 109.87C199.564 109.87 200.245 110.089 200.703 110.528C201.169 110.957 201.403 111.653 201.403 112.614V117.5H200.185V112.698C200.185 111.494 199.625 110.892 198.505 110.892C197.665 110.892 197.086 111.13 196.769 111.606C196.461 112.073 196.307 112.745 196.307 113.622V117.5H195.075V106.86H196.307ZM206.235 116.632C206.422 116.632 206.613 116.618 206.809 116.59C207.005 116.562 207.164 116.525 207.285 116.478V117.416C207.154 117.481 206.968 117.533 206.725 117.57C206.482 117.617 206.249 117.64 206.025 117.64C205.633 117.64 205.269 117.575 204.933 117.444C204.606 117.304 204.34 117.066 204.135 116.73C203.93 116.394 203.827 115.923 203.827 115.316V110.948H202.763V110.36L203.841 109.87L204.331 108.274H205.059V109.996H207.229V110.948H205.059V115.288C205.059 115.745 205.166 116.086 205.381 116.31C205.605 116.525 205.89 116.632 206.235 116.632Z" fill="black"/>
<rect width="72" height="44" transform="translate(67 134)" fill="white"/>
<rect width="111" height="44" transform="translate(75 134.5)" fill="white"/>
<path d="M87.5464 161.5H86.2864V152.61H83.1644V151.504H90.6544V152.61H87.5464V161.5ZM92.6237 151.182C92.8104 151.182 92.9737 151.247 93.1137 151.378C93.263 151.499 93.3377 151.695 93.3377 151.966C93.3377 152.237 93.263 152.437 93.1137 152.568C92.9737 152.689 92.8104 152.75 92.6237 152.75C92.4184 152.75 92.2457 152.689 92.1057 152.568C91.9657 152.437 91.8957 152.237 91.8957 151.966C91.8957 151.695 91.9657 151.499 92.1057 151.378C92.2457 151.247 92.4184 151.182 92.6237 151.182ZM93.2257 153.996V161.5H91.9937V153.996H93.2257ZM98.4451 153.87C99.3598 153.87 100.036 154.071 100.475 154.472C100.914 154.873 101.133 155.513 101.133 156.39V161.5H100.237L99.9991 160.436H99.9431C99.6164 160.847 99.2711 161.15 98.9071 161.346C98.5431 161.542 98.0484 161.64 97.4231 161.64C96.7418 161.64 96.1771 161.463 95.7291 161.108C95.2811 160.744 95.0571 160.179 95.0571 159.414C95.0571 158.667 95.3511 158.093 95.9391 157.692C96.5271 157.281 97.4324 157.057 98.6551 157.02L99.9291 156.978V156.53C99.9291 155.905 99.7938 155.471 99.5231 155.228C99.2524 154.985 98.8698 154.864 98.3751 154.864C97.9831 154.864 97.6098 154.925 97.2551 155.046C96.9004 155.158 96.5691 155.289 96.2611 155.438L95.8831 154.514C96.2098 154.337 96.5971 154.187 97.0451 154.066C97.4931 153.935 97.9598 153.87 98.4451 153.87ZM99.9151 157.832L98.8091 157.874C97.8758 157.911 97.2271 158.061 96.8631 158.322C96.5084 158.583 96.3311 158.952 96.3311 159.428C96.3311 159.848 96.4571 160.156 96.7091 160.352C96.9704 160.548 97.3018 160.646 97.7031 160.646C98.3284 160.646 98.8511 160.473 99.2711 160.128C99.7004 159.773 99.9151 159.232 99.9151 158.504V157.832ZM107.063 153.856C107.959 153.856 108.635 154.075 109.093 154.514C109.55 154.953 109.779 155.653 109.779 156.614V161.5H108.561V156.698C108.561 155.494 108.001 154.892 106.881 154.892C106.05 154.892 105.476 155.125 105.159 155.592C104.841 156.059 104.683 156.731 104.683 157.608V161.5H103.451V153.996H104.445L104.627 155.018H104.697C104.939 154.626 105.275 154.337 105.705 154.15C106.134 153.954 106.587 153.856 107.063 153.856ZM114.947 153.87C115.862 153.87 116.538 154.071 116.977 154.472C117.416 154.873 117.635 155.513 117.635 156.39V161.5H116.739L116.501 160.436H116.445C116.118 160.847 115.773 161.15 115.409 161.346C115.045 161.542 114.55 161.64 113.925 161.64C113.244 161.64 112.679 161.463 112.231 161.108C111.783 160.744 111.559 160.179 111.559 159.414C111.559 158.667 111.853 158.093 112.441 157.692C113.029 157.281 113.934 157.057 115.157 157.02L116.431 156.978V156.53C116.431 155.905 116.296 155.471 116.025 155.228C115.754 154.985 115.372 154.864 114.877 154.864C114.485 154.864 114.112 154.925 113.757 155.046C113.402 155.158 113.071 155.289 112.763 155.438L112.385 154.514C112.712 154.337 113.099 154.187 113.547 154.066C113.995 153.935 114.462 153.87 114.947 153.87ZM116.417 157.832L115.311 157.874C114.378 157.911 113.729 158.061 113.365 158.322C113.01 158.583 112.833 158.952 112.833 159.428C112.833 159.848 112.959 160.156 113.211 160.352C113.472 160.548 113.804 160.646 114.205 160.646C114.83 160.646 115.353 160.473 115.773 160.128C116.202 159.773 116.417 159.232 116.417 158.504V157.832ZM130.029 161.5L128.825 158.406H124.863L123.673 161.5H122.399L126.305 151.462H127.439L131.331 161.5H130.029ZM128.447 157.286L127.327 154.262C127.299 154.187 127.253 154.052 127.187 153.856C127.122 153.66 127.057 153.459 126.991 153.254C126.935 153.039 126.889 152.876 126.851 152.764C126.777 153.053 126.697 153.338 126.613 153.618C126.539 153.889 126.473 154.103 126.417 154.262L125.283 157.286H128.447ZM136.143 153.856C137.039 153.856 137.715 154.075 138.173 154.514C138.63 154.953 138.859 155.653 138.859 156.614V161.5H137.641V156.698C137.641 155.494 137.081 154.892 135.961 154.892C135.13 154.892 134.556 155.125 134.239 155.592C133.921 156.059 133.763 156.731 133.763 157.608V161.5H132.531V153.996H133.525L133.707 155.018H133.777C134.019 154.626 134.355 154.337 134.785 154.15C135.214 153.954 135.667 153.856 136.143 153.856ZM143.691 160.632C143.878 160.632 144.069 160.618 144.265 160.59C144.461 160.562 144.62 160.525 144.741 160.478V161.416C144.61 161.481 144.424 161.533 144.181 161.57C143.938 161.617 143.705 161.64 143.481 161.64C143.089 161.64 142.725 161.575 142.389 161.444C142.062 161.304 141.796 161.066 141.591 160.73C141.386 160.394 141.283 159.923 141.283 159.316V154.948H140.219V154.36L141.297 153.87L141.787 152.274H142.515V153.996H144.685V154.948H142.515V159.288C142.515 159.745 142.622 160.086 142.837 160.31C143.061 160.525 143.346 160.632 143.691 160.632ZM147.476 150.86V153.982C147.476 154.355 147.452 154.705 147.406 155.032H147.49C147.732 154.649 148.059 154.36 148.47 154.164C148.89 153.968 149.342 153.87 149.828 153.87C150.733 153.87 151.414 154.089 151.872 154.528C152.338 154.957 152.572 155.653 152.572 156.614V161.5H151.354V156.698C151.354 155.494 150.794 154.892 149.674 154.892C148.834 154.892 148.255 155.13 147.938 155.606C147.63 156.073 147.476 156.745 147.476 157.622V161.5H146.244V150.86H147.476ZM161.422 157.734C161.422 158.975 161.105 159.937 160.47 160.618C159.845 161.299 158.995 161.64 157.922 161.64C157.259 161.64 156.667 161.491 156.144 161.192C155.631 160.884 155.225 160.441 154.926 159.862C154.627 159.274 154.478 158.565 154.478 157.734C154.478 156.493 154.786 155.536 155.402 154.864C156.027 154.192 156.881 153.856 157.964 153.856C158.636 153.856 159.233 154.01 159.756 154.318C160.279 154.617 160.685 155.055 160.974 155.634C161.273 156.203 161.422 156.903 161.422 157.734ZM155.752 157.734C155.752 158.621 155.925 159.325 156.27 159.848C156.625 160.361 157.185 160.618 157.95 160.618C158.706 160.618 159.261 160.361 159.616 159.848C159.971 159.325 160.148 158.621 160.148 157.734C160.148 156.847 159.971 156.152 159.616 155.648C159.261 155.144 158.701 154.892 157.936 154.892C157.171 154.892 156.615 155.144 156.27 155.648C155.925 156.152 155.752 156.847 155.752 157.734ZM166.987 153.856C167.883 153.856 168.559 154.075 169.017 154.514C169.474 154.953 169.703 155.653 169.703 156.614V161.5H168.485V156.698C168.485 155.494 167.925 154.892 166.805 154.892C165.974 154.892 165.4 155.125 165.083 155.592C164.765 156.059 164.607 156.731 164.607 157.608V161.5H163.375V153.996H164.369L164.551 155.018H164.621C164.863 154.626 165.199 154.337 165.629 154.15C166.058 153.954 166.511 153.856 166.987 153.856ZM170.853 153.996H172.169L173.793 158.266C173.933 158.649 174.059 159.008 174.171 159.344C174.283 159.68 174.367 160.002 174.423 160.31H174.479C174.535 160.077 174.624 159.773 174.745 159.4C174.866 159.017 174.992 158.635 175.123 158.252L176.649 153.996H177.979L174.745 162.536C174.474 163.245 174.134 163.81 173.723 164.23C173.312 164.65 172.743 164.86 172.015 164.86C171.791 164.86 171.595 164.846 171.427 164.818C171.259 164.799 171.114 164.776 170.993 164.748V163.768C171.096 163.787 171.217 163.805 171.357 163.824C171.506 163.843 171.66 163.852 171.819 163.852C172.248 163.852 172.594 163.731 172.855 163.488C173.116 163.245 173.326 162.923 173.485 162.522L173.877 161.528L170.853 153.996Z" fill="black"/>
<rect width="72" height="44" transform="translate(67 178)" fill="white"/>
<rect width="106" height="44" transform="translate(75 178.5)" fill="white"/>
<path d="M87.938 205.5H86.678V196.61H83.556V195.504H91.046V196.61H87.938V205.5ZM95.188 197.856C95.328 197.856 95.4774 197.865 95.636 197.884C95.7947 197.893 95.9394 197.912 96.07 197.94L95.916 199.074C95.7947 199.046 95.6594 199.023 95.51 199.004C95.3607 198.985 95.2254 198.976 95.104 198.976C94.7214 198.976 94.362 199.083 94.026 199.298C93.69 199.503 93.4194 199.797 93.214 200.18C93.018 200.553 92.92 200.992 92.92 201.496V205.5H91.688V197.996H92.696L92.836 199.368H92.892C93.1254 198.957 93.4334 198.603 93.816 198.304C94.208 198.005 94.6654 197.856 95.188 197.856ZM100.04 197.87C100.954 197.87 101.631 198.071 102.07 198.472C102.508 198.873 102.728 199.513 102.728 200.39V205.5H101.832L101.594 204.436H101.538C101.211 204.847 100.866 205.15 100.502 205.346C100.138 205.542 99.6431 205.64 99.0178 205.64C98.3365 205.64 97.7718 205.463 97.3238 205.108C96.8758 204.744 96.6518 204.179 96.6518 203.414C96.6518 202.667 96.9458 202.093 97.5338 201.692C98.1218 201.281 99.0271 201.057 100.25 201.02L101.524 200.978V200.53C101.524 199.905 101.388 199.471 101.118 199.228C100.847 198.985 100.464 198.864 99.9698 198.864C99.5778 198.864 99.2045 198.925 98.8498 199.046C98.4951 199.158 98.1638 199.289 97.8558 199.438L97.4778 198.514C97.8045 198.337 98.1918 198.187 98.6398 198.066C99.0878 197.935 99.5545 197.87 100.04 197.87ZM101.51 201.832L100.404 201.874C99.4705 201.911 98.8218 202.061 98.4578 202.322C98.1031 202.583 97.9258 202.952 97.9258 203.428C97.9258 203.848 98.0518 204.156 98.3038 204.352C98.5651 204.548 98.8965 204.646 99.2978 204.646C99.9231 204.646 100.446 204.473 100.866 204.128C101.295 203.773 101.51 203.232 101.51 202.504V201.832ZM106.697 205.5L103.855 197.996H105.171L106.767 202.42C106.842 202.625 106.921 202.854 107.005 203.106C107.089 203.358 107.164 203.601 107.229 203.834C107.295 204.067 107.341 204.259 107.369 204.408H107.425C107.453 204.259 107.505 204.067 107.579 203.834C107.654 203.591 107.733 203.349 107.817 203.106C107.901 202.854 107.981 202.625 108.055 202.42L109.651 197.996H110.967L108.111 205.5H106.697ZM112.785 195.182C112.972 195.182 113.135 195.247 113.275 195.378C113.424 195.499 113.499 195.695 113.499 195.966C113.499 196.237 113.424 196.437 113.275 196.568C113.135 196.689 112.972 196.75 112.785 196.75C112.58 196.75 112.407 196.689 112.267 196.568C112.127 196.437 112.057 196.237 112.057 195.966C112.057 195.695 112.127 195.499 112.267 195.378C112.407 195.247 112.58 195.182 112.785 195.182ZM113.387 197.996V205.5H112.155V197.996H113.387ZM120.65 203.428C120.65 204.156 120.38 204.707 119.838 205.08C119.297 205.453 118.569 205.64 117.654 205.64C117.132 205.64 116.679 205.598 116.296 205.514C115.923 205.43 115.592 205.313 115.302 205.164V204.044C115.601 204.193 115.96 204.333 116.38 204.464C116.81 204.585 117.244 204.646 117.682 204.646C118.308 204.646 118.76 204.548 119.04 204.352C119.32 204.147 119.46 203.876 119.46 203.54C119.46 203.353 119.409 203.185 119.306 203.036C119.204 202.887 119.017 202.737 118.746 202.588C118.485 202.439 118.107 202.271 117.612 202.084C117.127 201.897 116.712 201.711 116.366 201.524C116.021 201.337 115.755 201.113 115.568 200.852C115.382 200.591 115.288 200.255 115.288 199.844C115.288 199.209 115.545 198.719 116.058 198.374C116.581 198.029 117.262 197.856 118.102 197.856C118.56 197.856 118.984 197.903 119.376 197.996C119.778 198.089 120.151 198.211 120.496 198.36L120.076 199.34C119.759 199.209 119.428 199.097 119.082 199.004C118.737 198.911 118.382 198.864 118.018 198.864C117.514 198.864 117.127 198.948 116.856 199.116C116.595 199.275 116.464 199.494 116.464 199.774C116.464 199.989 116.525 200.166 116.646 200.306C116.768 200.446 116.968 200.586 117.248 200.726C117.538 200.866 117.92 201.025 118.396 201.202C118.872 201.379 119.278 201.561 119.614 201.748C119.95 201.935 120.207 202.163 120.384 202.434C120.562 202.695 120.65 203.027 120.65 203.428ZM137.748 195.504L135.088 205.5H133.814L131.868 198.948C131.784 198.687 131.705 198.421 131.63 198.15C131.565 197.87 131.504 197.627 131.448 197.422C131.401 197.207 131.373 197.058 131.364 196.974C131.355 197.095 131.303 197.357 131.21 197.758C131.117 198.15 131.009 198.561 130.888 198.99L128.998 205.5H127.724L125.078 195.504H126.394L127.948 201.608C128.06 202.037 128.153 202.453 128.228 202.854C128.312 203.255 128.377 203.633 128.424 203.988C128.471 203.624 128.541 203.227 128.634 202.798C128.727 202.369 128.835 201.949 128.956 201.538L130.72 195.504H132.022L133.856 201.58C133.987 202.009 134.099 202.439 134.192 202.868C134.285 203.297 134.355 203.671 134.402 203.988C134.439 203.643 134.5 203.269 134.584 202.868C134.677 202.457 134.78 202.033 134.892 201.594L136.432 195.504H137.748ZM139.746 195.182C139.932 195.182 140.096 195.247 140.236 195.378C140.385 195.499 140.46 195.695 140.46 195.966C140.46 196.237 140.385 196.437 140.236 196.568C140.096 196.689 139.932 196.75 139.746 196.75C139.54 196.75 139.368 196.689 139.228 196.568C139.088 196.437 139.018 196.237 139.018 195.966C139.018 195.695 139.088 195.499 139.228 195.378C139.368 195.247 139.54 195.182 139.746 195.182ZM140.348 197.996V205.5H139.116V197.996H140.348ZM143.957 205.5H142.725V194.86H143.957V205.5ZM147.567 205.5H146.335V194.86H147.567V205.5ZM154.83 203.428C154.83 204.156 154.559 204.707 154.018 205.08C153.477 205.453 152.749 205.64 151.834 205.64C151.311 205.64 150.859 205.598 150.476 205.514C150.103 205.43 149.771 205.313 149.482 205.164V204.044C149.781 204.193 150.14 204.333 150.56 204.464C150.989 204.585 151.423 204.646 151.862 204.646C152.487 204.646 152.94 204.548 153.22 204.352C153.5 204.147 153.64 203.876 153.64 203.54C153.64 203.353 153.589 203.185 153.486 203.036C153.383 202.887 153.197 202.737 152.926 202.588C152.665 202.439 152.287 202.271 151.792 202.084C151.307 201.897 150.891 201.711 150.546 201.524C150.201 201.337 149.935 201.113 149.748 200.852C149.561 200.591 149.468 200.255 149.468 199.844C149.468 199.209 149.725 198.719 150.238 198.374C150.761 198.029 151.442 197.856 152.282 197.856C152.739 197.856 153.164 197.903 153.556 197.996C153.957 198.089 154.331 198.211 154.676 198.36L154.256 199.34C153.939 199.209 153.607 199.097 153.262 199.004C152.917 198.911 152.562 198.864 152.198 198.864C151.694 198.864 151.307 198.948 151.036 199.116C150.775 199.275 150.644 199.494 150.644 199.774C150.644 199.989 150.705 200.166 150.826 200.306C150.947 200.446 151.148 200.586 151.428 200.726C151.717 200.866 152.1 201.025 152.576 201.202C153.052 201.379 153.458 201.561 153.794 201.748C154.13 201.935 154.387 202.163 154.564 202.434C154.741 202.695 154.83 203.027 154.83 203.428ZM163.167 201.734C163.167 202.975 162.85 203.937 162.215 204.618C161.59 205.299 160.74 205.64 159.667 205.64C159.004 205.64 158.412 205.491 157.889 205.192C157.376 204.884 156.97 204.441 156.671 203.862C156.372 203.274 156.223 202.565 156.223 201.734C156.223 200.493 156.531 199.536 157.147 198.864C157.772 198.192 158.626 197.856 159.709 197.856C160.381 197.856 160.978 198.01 161.501 198.318C162.024 198.617 162.43 199.055 162.719 199.634C163.018 200.203 163.167 200.903 163.167 201.734ZM157.497 201.734C157.497 202.621 157.67 203.325 158.015 203.848C158.37 204.361 158.93 204.618 159.695 204.618C160.451 204.618 161.006 204.361 161.361 203.848C161.716 203.325 161.893 202.621 161.893 201.734C161.893 200.847 161.716 200.152 161.361 199.648C161.006 199.144 160.446 198.892 159.681 198.892C158.916 198.892 158.36 199.144 158.015 199.648C157.67 200.152 157.497 200.847 157.497 201.734ZM168.732 197.856C169.628 197.856 170.304 198.075 170.762 198.514C171.219 198.953 171.448 199.653 171.448 200.614V205.5H170.23V200.698C170.23 199.494 169.67 198.892 168.55 198.892C167.719 198.892 167.145 199.125 166.828 199.592C166.51 200.059 166.352 200.731 166.352 201.608V205.5H165.12V197.996H166.114L166.296 199.018H166.366C166.608 198.626 166.944 198.337 167.374 198.15C167.803 197.954 168.256 197.856 168.732 197.856Z" fill="black"/>
<rect width="72" height="44" transform="translate(67 222)" fill="white"/>
<rect width="87" height="44" transform="translate(75 222.5)" fill="white"/>
<path d="M87.6324 249.5H86.3724V240.61H83.2504V239.504H90.7404V240.61H87.6324V249.5ZM90.6302 241.996H91.9462L93.5702 246.266C93.7102 246.649 93.8362 247.008 93.9482 247.344C94.0602 247.68 94.1442 248.002 94.2002 248.31H94.2562C94.3122 248.077 94.4009 247.773 94.5222 247.4C94.6435 247.017 94.7695 246.635 94.9002 246.252L96.4262 241.996H97.7562L94.5222 250.536C94.2515 251.245 93.9109 251.81 93.5002 252.23C93.0895 252.65 92.5202 252.86 91.7922 252.86C91.5682 252.86 91.3722 252.846 91.2042 252.818C91.0362 252.799 90.8915 252.776 90.7702 252.748V251.768C90.8729 251.787 90.9942 251.805 91.1342 251.824C91.2835 251.843 91.4375 251.852 91.5962 251.852C92.0255 251.852 92.3709 251.731 92.6322 251.488C92.8935 251.245 93.1035 250.923 93.2622 250.522L93.6542 249.528L90.6302 241.996ZM100.175 249.5H98.9429V238.86H100.175V249.5ZM105.45 241.856C106.085 241.856 106.636 241.996 107.102 242.276C107.569 242.556 107.924 242.953 108.166 243.466C108.418 243.97 108.544 244.563 108.544 245.244V245.986H103.406C103.425 246.835 103.64 247.484 104.05 247.932C104.47 248.371 105.054 248.59 105.8 248.59C106.276 248.59 106.696 248.548 107.06 248.464C107.434 248.371 107.816 248.24 108.208 248.072V249.15C107.826 249.318 107.448 249.439 107.074 249.514C106.701 249.598 106.258 249.64 105.744 249.64C105.026 249.64 104.396 249.495 103.854 249.206C103.313 248.917 102.888 248.487 102.58 247.918C102.282 247.349 102.132 246.644 102.132 245.804C102.132 244.983 102.268 244.278 102.538 243.69C102.818 243.102 103.206 242.649 103.7 242.332C104.204 242.015 104.788 241.856 105.45 241.856ZM105.436 242.864C104.848 242.864 104.382 243.055 104.036 243.438C103.7 243.811 103.5 244.334 103.434 245.006H107.256C107.247 244.371 107.098 243.858 106.808 243.466C106.519 243.065 106.062 242.864 105.436 242.864ZM113.955 241.856C114.095 241.856 114.244 241.865 114.403 241.884C114.561 241.893 114.706 241.912 114.837 241.94L114.683 243.074C114.561 243.046 114.426 243.023 114.277 243.004C114.127 242.985 113.992 242.976 113.871 242.976C113.488 242.976 113.129 243.083 112.793 243.298C112.457 243.503 112.186 243.797 111.981 244.18C111.785 244.553 111.687 244.992 111.687 245.496V249.5H110.455V241.996H111.463L111.603 243.368H111.659C111.892 242.957 112.2 242.603 112.583 242.304C112.975 242.005 113.432 241.856 113.955 241.856ZM127.967 249.5H126.497L121.149 241.198H121.093C121.111 241.525 121.135 241.931 121.163 242.416C121.191 242.901 121.205 243.401 121.205 243.914V249.5H120.043V239.504H121.499L126.833 247.778H126.889C126.879 247.629 126.865 247.405 126.847 247.106C126.837 246.807 126.823 246.485 126.805 246.14C126.795 245.785 126.791 245.454 126.791 245.146V239.504H127.967V249.5ZM137.035 245.734C137.035 246.975 136.718 247.937 136.083 248.618C135.458 249.299 134.609 249.64 133.535 249.64C132.873 249.64 132.28 249.491 131.757 249.192C131.244 248.884 130.838 248.441 130.539 247.862C130.241 247.274 130.091 246.565 130.091 245.734C130.091 244.493 130.399 243.536 131.015 242.864C131.641 242.192 132.495 241.856 133.577 241.856C134.249 241.856 134.847 242.01 135.369 242.318C135.892 242.617 136.298 243.055 136.587 243.634C136.886 244.203 137.035 244.903 137.035 245.734ZM131.365 245.734C131.365 246.621 131.538 247.325 131.883 247.848C132.238 248.361 132.798 248.618 133.563 248.618C134.319 248.618 134.875 248.361 135.229 247.848C135.584 247.325 135.761 246.621 135.761 245.734C135.761 244.847 135.584 244.152 135.229 243.648C134.875 243.144 134.315 242.892 133.549 242.892C132.784 242.892 132.229 243.144 131.883 243.648C131.538 244.152 131.365 244.847 131.365 245.734ZM142.488 241.856C142.628 241.856 142.777 241.865 142.936 241.884C143.095 241.893 143.239 241.912 143.37 241.94L143.216 243.074C143.095 243.046 142.959 243.023 142.81 243.004C142.661 242.985 142.525 242.976 142.404 242.976C142.021 242.976 141.662 243.083 141.326 243.298C140.99 243.503 140.719 243.797 140.514 244.18C140.318 244.553 140.22 244.992 140.22 245.496V249.5H138.988V241.996H139.996L140.136 243.368H140.192C140.425 242.957 140.733 242.603 141.116 242.304C141.508 242.005 141.965 241.856 142.488 241.856ZM145.401 239.182C145.588 239.182 145.751 239.247 145.891 239.378C146.04 239.499 146.115 239.695 146.115 239.966C146.115 240.237 146.04 240.437 145.891 240.568C145.751 240.689 145.588 240.75 145.401 240.75C145.196 240.75 145.023 240.689 144.883 240.568C144.743 240.437 144.673 240.237 144.673 239.966C144.673 239.695 144.743 239.499 144.883 239.378C145.023 239.247 145.196 239.182 145.401 239.182ZM146.003 241.996V249.5H144.771V241.996H146.003ZM153.266 247.428C153.266 248.156 152.996 248.707 152.454 249.08C151.913 249.453 151.185 249.64 150.27 249.64C149.748 249.64 149.295 249.598 148.912 249.514C148.539 249.43 148.208 249.313 147.918 249.164V248.044C148.217 248.193 148.576 248.333 148.996 248.464C149.426 248.585 149.86 248.646 150.298 248.646C150.924 248.646 151.376 248.548 151.656 248.352C151.936 248.147 152.076 247.876 152.076 247.54C152.076 247.353 152.025 247.185 151.922 247.036C151.82 246.887 151.633 246.737 151.362 246.588C151.101 246.439 150.723 246.271 150.228 246.084C149.743 245.897 149.328 245.711 148.982 245.524C148.637 245.337 148.371 245.113 148.184 244.852C147.998 244.591 147.904 244.255 147.904 243.844C147.904 243.209 148.161 242.719 148.674 242.374C149.197 242.029 149.878 241.856 150.718 241.856C151.176 241.856 151.6 241.903 151.992 241.996C152.394 242.089 152.767 242.211 153.112 242.36L152.692 243.34C152.375 243.209 152.044 243.097 151.698 243.004C151.353 242.911 150.998 242.864 150.634 242.864C150.13 242.864 149.743 242.948 149.472 243.116C149.211 243.275 149.08 243.494 149.08 243.774C149.08 243.989 149.141 244.166 149.262 244.306C149.384 244.446 149.584 244.586 149.864 244.726C150.154 244.866 150.536 245.025 151.012 245.202C151.488 245.379 151.894 245.561 152.23 245.748C152.566 245.935 152.823 246.163 153 246.434C153.178 246.695 153.266 247.027 153.266 247.428Z" fill="black"/>
</g>
<rect x="66.5" y="89.5" width="279" height="177" rx="4.5" stroke="black" stroke-opacity="0.15"/>
</g>
<g filter="url(#filter1_ii_8930_109227)">
<path d="M330 90H341C343.209 90 345 91.7909 345 94V262C345 264.209 343.209 266 341 266H330V90Z" fill="#FAFAFA"/>
<rect x="334" y="91" width="8" height="25" rx="4" fill="#C1C1C1"/>
</g>
<defs>
<filter id="filter0_d_8930_109227" x="62" y="89" width="288" height="186" filterUnits="userSpaceOnUse" color-interpolation-filters="sRGB">
<feFlood flood-opacity="0" result="BackgroundImageFix"/>
<feColorMatrix in="SourceAlpha" type="matrix" values="0 0 0 0 0 0 0 0 0 0 0 0 0 0 0 0 0 0 127 0" result="hardAlpha"/>
<feOffset dy="4"/>
<feGaussianBlur stdDeviation="2"/>
<feColorMatrix type="matrix" values="0 0 0 0 0 0 0 0 0 0 0 0 0 0 0 0 0 0 0.25 0"/>
<feBlend mode="normal" in2="BackgroundImageFix" result="effect1_dropShadow_8930_109227"/>
<feBlend mode="normal" in="SourceGraphic" in2="effect1_dropShadow_8930_109227" result="shape"/>
</filter>
<filter id="filter1_ii_8930_109227" x="330" y="90" width="15" height="176" filterUnits="userSpaceOnUse" color-interpolation-filters="sRGB">
<feFlood flood-opacity="0" result="BackgroundImageFix"/>
<feBlend mode="normal" in="SourceGraphic" in2="BackgroundImageFix" result="shape"/>
<feColorMatrix in="SourceAlpha" type="matrix" values="0 0 0 0 0 0 0 0 0 0 0 0 0 0 0 0 0 0 127 0" result="hardAlpha"/>
<feOffset dx="-1"/>
<feComposite in2="hardAlpha" operator="arithmetic" k2="-1" k3="1"/>
<feColorMatrix type="matrix" values="0 0 0 0 0.941176 0 0 0 0 0.941176 0 0 0 0 0.941176 0 0 0 1 0"/>
<feBlend mode="normal" in2="shape" result="effect1_innerShadow_8930_109227"/>
<feColorMatrix in="SourceAlpha" type="matrix" values="0 0 0 0 0 0 0 0 0 0 0 0 0 0 0 0 0 0 127 0" result="hardAlpha"/>
<feOffset dx="1"/>
<feComposite in2="hardAlpha" operator="arithmetic" k2="-1" k3="1"/>
<feColorMatrix type="matrix" values="0 0 0 0 0.909804 0 0 0 0 0.909804 0 0 0 0 0.909804 0 0 0 1 0"/>
<feBlend mode="normal" in2="effect1_innerShadow_8930_109227" result="effect2_innerShadow_8930_109227"/>
</filter>
<clipPath id="clip0_8930_109227">
<rect x="67" y="90" width="278" height="176" rx="4" fill="white"/>
</clipPath>
</defs>
</svg>
