<svg width="412" height="300" viewBox="0 0 412 300" fill="none" xmlns="http://www.w3.org/2000/svg">
<rect width="412" height="300" fill="white"/>
<path d="M67.164 68V59.432H68.244V67.04H71.988V68H67.164ZM73.853 59.156C74.013 59.156 74.153 59.212 74.273 59.324C74.401 59.428 74.465 59.596 74.465 59.828C74.465 60.06 74.401 60.232 74.273 60.344C74.153 60.448 74.013 60.5 73.853 60.5C73.677 60.5 73.529 60.448 73.409 60.344C73.289 60.232 73.229 60.06 73.229 59.828C73.229 59.596 73.289 59.428 73.409 59.324C73.529 59.212 73.677 59.156 73.853 59.156ZM74.369 61.568V68H73.313V61.568H74.369ZM77.4627 58.88V61.1C77.4627 61.372 77.4547 61.628 77.4387 61.868C77.4307 62.1 77.4187 62.284 77.4027 62.42H77.4627C77.6467 62.148 77.8987 61.92 78.2187 61.736C78.5387 61.552 78.9507 61.46 79.4547 61.46C80.2547 61.46 80.8947 61.74 81.3747 62.3C81.8627 62.852 82.1067 63.68 82.1067 64.784C82.1067 65.888 81.8627 66.72 81.3747 67.28C80.8867 67.84 80.2467 68.12 79.4547 68.12C78.9507 68.12 78.5387 68.028 78.2187 67.844C77.8987 67.66 77.6467 67.44 77.4627 67.184H77.3787L77.1627 68H76.4067V58.88H77.4627ZM79.2747 62.336C78.5867 62.336 78.1107 62.532 77.8467 62.924C77.5907 63.316 77.4627 63.924 77.4627 64.748V64.796C77.4627 65.588 77.5907 66.196 77.8467 66.62C78.1107 67.036 78.5947 67.244 79.2987 67.244C79.8747 67.244 80.3027 67.032 80.5827 66.608C80.8707 66.184 81.0147 65.572 81.0147 64.772C81.0147 63.148 80.4347 62.336 79.2747 62.336ZM86.7895 61.448C86.9095 61.448 87.0375 61.456 87.1735 61.472C87.3095 61.48 87.4335 61.496 87.5455 61.52L87.4135 62.492C87.3095 62.468 87.1935 62.448 87.0655 62.432C86.9375 62.416 86.8215 62.408 86.7175 62.408C86.3895 62.408 86.0815 62.5 85.7935 62.684C85.5055 62.86 85.2735 63.112 85.0975 63.44C84.9295 63.76 84.8455 64.136 84.8455 64.568V68H83.7895V61.568H84.6535L84.7735 62.744H84.8215C85.0215 62.392 85.2855 62.088 85.6135 61.832C85.9495 61.576 86.3415 61.448 86.7895 61.448ZM90.9482 61.46C91.7322 61.46 92.3122 61.632 92.6882 61.976C93.0642 62.32 93.2522 62.868 93.2522 63.62V68H92.4842L92.2802 67.088H92.2322C91.9522 67.44 91.6562 67.7 91.3442 67.868C91.0322 68.036 90.6082 68.12 90.0722 68.12C89.4882 68.12 89.0042 67.968 88.6202 67.664C88.2362 67.352 88.0442 66.868 88.0442 66.212C88.0442 65.572 88.2962 65.08 88.8002 64.736C89.3042 64.384 90.0802 64.192 91.1282 64.16L92.2202 64.124V63.74C92.2202 63.204 92.1042 62.832 91.8722 62.624C91.6402 62.416 91.3122 62.312 90.8882 62.312C90.5522 62.312 90.2322 62.364 89.9282 62.468C89.6242 62.564 89.3402 62.676 89.0762 62.804L88.7522 62.012C89.0322 61.86 89.3642 61.732 89.7482 61.628C90.1322 61.516 90.5322 61.46 90.9482 61.46ZM92.2082 64.856L91.2602 64.892C90.4602 64.924 89.9042 65.052 89.5922 65.276C89.2882 65.5 89.1362 65.816 89.1362 66.224C89.1362 66.584 89.2442 66.848 89.4602 67.016C89.6842 67.184 89.9682 67.268 90.3122 67.268C90.8482 67.268 91.2962 67.12 91.6562 66.824C92.0242 66.52 92.2082 66.056 92.2082 65.432V64.856ZM98.2388 61.448C98.3588 61.448 98.4868 61.456 98.6228 61.472C98.7588 61.48 98.8828 61.496 98.9948 61.52L98.8628 62.492C98.7588 62.468 98.6428 62.448 98.5148 62.432C98.3868 62.416 98.2708 62.408 98.1668 62.408C97.8388 62.408 97.5308 62.5 97.2428 62.684C96.9548 62.86 96.7228 63.112 96.5468 63.44C96.3788 63.76 96.2948 64.136 96.2948 64.568V68H95.2388V61.568H96.1028L96.2228 62.744H96.2708C96.4708 62.392 96.7348 62.088 97.0628 61.832C97.3988 61.576 97.7908 61.448 98.2388 61.448ZM99.1878 61.568H100.316L101.708 65.228C101.828 65.556 101.936 65.864 102.032 66.152C102.128 66.44 102.2 66.716 102.248 66.98H102.296C102.344 66.78 102.42 66.52 102.524 66.2C102.628 65.872 102.736 65.544 102.848 65.216L104.156 61.568H105.296L102.524 68.888C102.292 69.496 102 69.98 101.648 70.34C101.296 70.7 100.808 70.88 100.184 70.88C99.9918 70.88 99.8238 70.868 99.6798 70.844C99.5358 70.828 99.4118 70.808 99.3078 70.784V69.944C99.3958 69.96 99.4998 69.976 99.6198 69.992C99.7478 70.008 99.8798 70.016 100.016 70.016C100.384 70.016 100.68 69.912 100.904 69.704C101.128 69.496 101.308 69.22 101.444 68.876L101.78 68.024L99.1878 61.568Z" fill="#323232"/>
<rect x="67" y="76" width="278" height="34" rx="1" fill="white"/>
<path d="M331.613 96.3625C331.512 96.3625 331.413 96.3125 331.363 96.2625L326.012 90.9125L320.662 96.2625C320.512 96.4125 320.263 96.4125 320.113 96.2625C319.962 96.1125 319.962 95.8625 320.113 95.7125L325.712 90.1125C325.862 89.9625 326.112 89.9625 326.262 90.1125L331.863 95.7125C332.012 95.8625 332.012 96.1125 331.863 96.2625C331.812 96.3125 331.713 96.3625 331.613 96.3625Z" fill="#323232"/>
<rect x="67" y="76" width="278" height="34" rx="1" stroke="#1473E6" stroke-width="2"/>
<g filter="url(#filter0_d_8930_107458)">
<g clip-path="url(#clip0_8930_107458)">
<rect x="67" y="112" width="278" height="132" rx="4" fill="white"/>
<rect width="72" height="44" transform="translate(67 112)" fill="white"/>
<rect width="69" height="44" transform="translate(75 112.5)" fill="white"/>
<path d="M91.0782 139.5L89.8742 136.406H85.9122L84.7222 139.5H83.4482L87.3542 129.462H88.4882L92.3802 139.5H91.0782ZM89.4962 135.286L88.3762 132.262C88.3482 132.187 88.3016 132.052 88.2362 131.856C88.1709 131.66 88.1056 131.459 88.0402 131.254C87.9842 131.039 87.9376 130.876 87.9002 130.764C87.8256 131.053 87.7462 131.338 87.6622 131.618C87.5876 131.889 87.5222 132.103 87.4662 132.262L86.3322 135.286H89.4962ZM97.1916 131.856C98.0876 131.856 98.7643 132.075 99.2216 132.514C99.679 132.953 99.9076 133.653 99.9076 134.614V139.5H98.6896V134.698C98.6896 133.494 98.1296 132.892 97.0096 132.892C96.179 132.892 95.605 133.125 95.2876 133.592C94.9703 134.059 94.8116 134.731 94.8116 135.608V139.5H93.5796V131.996H94.5736L94.7556 133.018H94.8256C95.0683 132.626 95.4043 132.337 95.8336 132.15C96.263 131.954 96.7156 131.856 97.1916 131.856ZM104.894 131.856C105.389 131.856 105.832 131.949 106.224 132.136C106.625 132.323 106.966 132.607 107.246 132.99H107.316L107.484 131.996H108.464V139.626C108.464 140.699 108.189 141.507 107.638 142.048C107.097 142.589 106.252 142.86 105.104 142.86C104.003 142.86 103.102 142.701 102.402 142.384V141.25C103.139 141.642 104.063 141.838 105.174 141.838C105.818 141.838 106.322 141.647 106.686 141.264C107.059 140.891 107.246 140.377 107.246 139.724V139.43C107.246 139.318 107.251 139.159 107.26 138.954C107.269 138.739 107.279 138.59 107.288 138.506H107.232C106.728 139.262 105.953 139.64 104.908 139.64C103.937 139.64 103.177 139.299 102.626 138.618C102.085 137.937 101.814 136.985 101.814 135.762C101.814 134.567 102.085 133.62 102.626 132.92C103.177 132.211 103.933 131.856 104.894 131.856ZM105.062 132.892C104.437 132.892 103.951 133.144 103.606 133.648C103.261 134.143 103.088 134.852 103.088 135.776C103.088 136.7 103.256 137.409 103.592 137.904C103.928 138.389 104.427 138.632 105.09 138.632C105.846 138.632 106.397 138.431 106.742 138.03C107.087 137.619 107.26 136.961 107.26 136.056V135.762C107.26 134.745 107.083 134.012 106.728 133.564C106.373 133.116 105.818 132.892 105.062 132.892ZM117.119 131.996V139.5H116.111L115.929 138.506H115.873C115.631 138.898 115.295 139.187 114.865 139.374C114.436 139.551 113.979 139.64 113.493 139.64C112.588 139.64 111.907 139.425 111.449 138.996C110.992 138.557 110.763 137.862 110.763 136.91V131.996H112.009V136.826C112.009 138.021 112.565 138.618 113.675 138.618C114.506 138.618 115.08 138.385 115.397 137.918C115.724 137.451 115.887 136.779 115.887 135.902V131.996H117.119ZM120.734 139.5H119.502V128.86H120.734V139.5ZM125.953 131.87C126.868 131.87 127.544 132.071 127.983 132.472C128.422 132.873 128.641 133.513 128.641 134.39V139.5H127.745L127.507 138.436H127.451C127.124 138.847 126.779 139.15 126.415 139.346C126.051 139.542 125.556 139.64 124.931 139.64C124.25 139.64 123.685 139.463 123.237 139.108C122.789 138.744 122.565 138.179 122.565 137.414C122.565 136.667 122.859 136.093 123.447 135.692C124.035 135.281 124.94 135.057 126.163 135.02L127.437 134.978V134.53C127.437 133.905 127.302 133.471 127.031 133.228C126.76 132.985 126.378 132.864 125.883 132.864C125.491 132.864 125.118 132.925 124.763 133.046C124.408 133.158 124.077 133.289 123.769 133.438L123.391 132.514C123.718 132.337 124.105 132.187 124.553 132.066C125.001 131.935 125.468 131.87 125.953 131.87ZM127.423 135.832L126.317 135.874C125.384 135.911 124.735 136.061 124.371 136.322C124.016 136.583 123.839 136.952 123.839 137.428C123.839 137.848 123.965 138.156 124.217 138.352C124.478 138.548 124.81 138.646 125.211 138.646C125.836 138.646 126.359 138.473 126.779 138.128C127.208 137.773 127.423 137.232 127.423 136.504V135.832ZM134.459 131.856C134.599 131.856 134.748 131.865 134.907 131.884C135.065 131.893 135.21 131.912 135.341 131.94L135.187 133.074C135.065 133.046 134.93 133.023 134.781 133.004C134.631 132.985 134.496 132.976 134.375 132.976C133.992 132.976 133.633 133.083 133.297 133.298C132.961 133.503 132.69 133.797 132.485 134.18C132.289 134.553 132.191 134.992 132.191 135.496V139.5H130.959V131.996H131.967L132.107 133.368H132.163C132.396 132.957 132.704 132.603 133.087 132.304C133.479 132.005 133.936 131.856 134.459 131.856Z" fill="black"/>
<rect width="72" height="44" transform="translate(67 156)" fill="white"/>
<rect width="53" height="44" transform="translate(75 156.5)" fill="white"/>
<path d="M87.4939 173.504C88.7353 173.504 89.6499 173.742 90.2379 174.218C90.8353 174.685 91.1339 175.394 91.1339 176.346C91.1339 176.878 91.0359 177.321 90.8399 177.676C90.6439 178.031 90.3919 178.315 90.0839 178.53C89.7853 178.745 89.4679 178.908 89.1319 179.02L91.8759 183.5H90.4059L87.9839 179.37H85.9959V183.5H84.7359V173.504H87.4939ZM87.4239 174.596H85.9959V178.306H87.4939C88.3059 178.306 88.8986 178.147 89.2719 177.83C89.6453 177.503 89.8319 177.027 89.8319 176.402C89.8319 175.749 89.6359 175.287 89.2439 175.016C88.8519 174.736 88.2453 174.596 87.4239 174.596ZM96.1749 175.856C96.8096 175.856 97.3602 175.996 97.8269 176.276C98.2936 176.556 98.6482 176.953 98.8909 177.466C99.1429 177.97 99.2689 178.563 99.2689 179.244V179.986H94.1309C94.1496 180.835 94.3642 181.484 94.7749 181.932C95.1949 182.371 95.7782 182.59 96.5249 182.59C97.0009 182.59 97.4209 182.548 97.7849 182.464C98.1582 182.371 98.5409 182.24 98.9329 182.072V183.15C98.5502 183.318 98.1722 183.439 97.7989 183.514C97.4256 183.598 96.9822 183.64 96.4689 183.64C95.7502 183.64 95.1202 183.495 94.5789 183.206C94.0376 182.917 93.6129 182.487 93.3049 181.918C93.0062 181.349 92.8569 180.644 92.8569 179.804C92.8569 178.983 92.9922 178.278 93.2629 177.69C93.5429 177.102 93.9302 176.649 94.4249 176.332C94.9289 176.015 95.5122 175.856 96.1749 175.856ZM96.1609 176.864C95.5729 176.864 95.1062 177.055 94.7609 177.438C94.4249 177.811 94.2242 178.334 94.1589 179.006H97.9809C97.9716 178.371 97.8222 177.858 97.5329 177.466C97.2436 177.065 96.7862 176.864 96.1609 176.864ZM104.021 175.87C104.936 175.87 105.613 176.071 106.051 176.472C106.49 176.873 106.709 177.513 106.709 178.39V183.5H105.813L105.575 182.436H105.519C105.193 182.847 104.847 183.15 104.483 183.346C104.119 183.542 103.625 183.64 102.999 183.64C102.318 183.64 101.753 183.463 101.305 183.108C100.857 182.744 100.633 182.179 100.633 181.414C100.633 180.667 100.927 180.093 101.515 179.692C102.103 179.281 103.009 179.057 104.231 179.02L105.505 178.978V178.53C105.505 177.905 105.37 177.471 105.099 177.228C104.829 176.985 104.446 176.864 103.951 176.864C103.559 176.864 103.186 176.925 102.831 177.046C102.477 177.158 102.145 177.289 101.837 177.438L101.459 176.514C101.786 176.337 102.173 176.187 102.621 176.066C103.069 175.935 103.536 175.87 104.021 175.87ZM105.491 179.832L104.385 179.874C103.452 179.911 102.803 180.061 102.439 180.322C102.085 180.583 101.907 180.952 101.907 181.428C101.907 181.848 102.033 182.156 102.285 182.352C102.547 182.548 102.878 182.646 103.279 182.646C103.905 182.646 104.427 182.473 104.847 182.128C105.277 181.773 105.491 181.232 105.491 180.504V179.832ZM112.037 183.64C111.365 183.64 110.772 183.505 110.259 183.234C109.746 182.963 109.34 182.543 109.041 181.974C108.752 181.405 108.607 180.677 108.607 179.79C108.607 178.866 108.756 178.115 109.055 177.536C109.363 176.957 109.783 176.533 110.315 176.262C110.847 175.991 111.449 175.856 112.121 175.856C112.494 175.856 112.858 175.898 113.213 175.982C113.577 176.057 113.871 176.15 114.095 176.262L113.717 177.284C113.493 177.2 113.232 177.121 112.933 177.046C112.634 176.971 112.354 176.934 112.093 176.934C110.618 176.934 109.881 177.881 109.881 179.776C109.881 180.681 110.058 181.377 110.413 181.862C110.777 182.338 111.314 182.576 112.023 182.576C112.424 182.576 112.784 182.534 113.101 182.45C113.418 182.366 113.708 182.263 113.969 182.142V183.234C113.717 183.365 113.437 183.463 113.129 183.528C112.83 183.603 112.466 183.64 112.037 183.64ZM118.259 182.632C118.446 182.632 118.637 182.618 118.833 182.59C119.029 182.562 119.188 182.525 119.309 182.478V183.416C119.179 183.481 118.992 183.533 118.749 183.57C118.507 183.617 118.273 183.64 118.049 183.64C117.657 183.64 117.293 183.575 116.957 183.444C116.631 183.304 116.365 183.066 116.159 182.73C115.954 182.394 115.851 181.923 115.851 181.316V176.948H114.787V176.36L115.865 175.87L116.355 174.274H117.083V175.996H119.253V176.948H117.083V181.288C117.083 181.745 117.191 182.086 117.405 182.31C117.629 182.525 117.914 182.632 118.259 182.632Z" fill="black"/>
<rect width="72" height="44" transform="translate(67 200)" fill="white"/>
<rect width="41" height="44" transform="translate(75 200.5)" fill="white"/>
<path d="M91.4928 217.504L87.9228 227.5H86.6628L83.0928 217.504H84.4088L86.6628 223.916C86.8121 224.327 86.9334 224.714 87.0268 225.078C87.1294 225.433 87.2181 225.773 87.2928 226.1C87.3581 225.773 87.4421 225.428 87.5448 225.064C87.6474 224.7 87.7734 224.308 87.9228 223.888L90.1628 217.504H91.4928ZM98.8126 219.996V227.5H97.8046L97.6226 226.506H97.5666C97.3239 226.898 96.9879 227.187 96.5586 227.374C96.1293 227.551 95.6719 227.64 95.1866 227.64C94.2813 227.64 93.5999 227.425 93.1426 226.996C92.6853 226.557 92.4566 225.862 92.4566 224.91V219.996H93.7026V224.826C93.7026 226.021 94.2579 226.618 95.3686 226.618C96.1993 226.618 96.7733 226.385 97.0906 225.918C97.4173 225.451 97.5806 224.779 97.5806 223.902V219.996H98.8126ZM104.093 219.856C104.728 219.856 105.278 219.996 105.745 220.276C106.212 220.556 106.566 220.953 106.809 221.466C107.061 221.97 107.187 222.563 107.187 223.244V223.986H102.049C102.068 224.835 102.282 225.484 102.693 225.932C103.113 226.371 103.696 226.59 104.443 226.59C104.919 226.59 105.339 226.548 105.703 226.464C106.076 226.371 106.459 226.24 106.851 226.072V227.15C106.468 227.318 106.09 227.439 105.717 227.514C105.344 227.598 104.9 227.64 104.387 227.64C103.668 227.64 103.038 227.495 102.497 227.206C101.956 226.917 101.531 226.487 101.223 225.918C100.924 225.349 100.775 224.644 100.775 223.804C100.775 222.983 100.91 222.278 101.181 221.69C101.461 221.102 101.848 220.649 102.343 220.332C102.847 220.015 103.43 219.856 104.093 219.856ZM104.079 220.864C103.491 220.864 103.024 221.055 102.679 221.438C102.343 221.811 102.142 222.334 102.077 223.006H105.899C105.89 222.371 105.74 221.858 105.451 221.466C105.162 221.065 104.704 220.864 104.079 220.864Z" fill="black"/>
</g>
<rect x="66.5" y="111.5" width="279" height="133" rx="4.5" stroke="black" stroke-opacity="0.15"/>
</g>
<defs>
<filter id="filter0_d_8930_107458" x="62" y="111" width="288" height="142" filterUnits="userSpaceOnUse" color-interpolation-filters="sRGB">
<feFlood flood-opacity="0" result="BackgroundImageFix"/>
<feColorMatrix in="SourceAlpha" type="matrix" values="0 0 0 0 0 0 0 0 0 0 0 0 0 0 0 0 0 0 127 0" result="hardAlpha"/>
<feOffset dy="4"/>
<feGaussianBlur stdDeviation="2"/>
<feColorMatrix type="matrix" values="0 0 0 0 0 0 0 0 0 0 0 0 0 0 0 0 0 0 0.25 0"/>
<feBlend mode="normal" in2="BackgroundImageFix" result="effect1_dropShadow_8930_107458"/>
<feBlend mode="normal" in="SourceGraphic" in2="effect1_dropShadow_8930_107458" result="shape"/>
</filter>
<clipPath id="clip0_8930_107458">
<rect x="67" y="112" width="278" height="132" rx="4" fill="white"/>
</clipPath>
</defs>
</svg>
