<svg width="407" height="427" viewBox="0 0 407 427" fill="none" xmlns="http://www.w3.org/2000/svg">
<rect width="407" height="427" fill="white"/>
<path d="M63.952 37.28C63.76 37.28 63.592 37.264 63.448 37.232C63.304 37.208 63.176 37.172 63.064 37.124V36.212C63.192 36.252 63.328 36.28 63.472 36.296C63.616 36.32 63.768 36.332 63.928 36.332C64.128 36.332 64.316 36.292 64.492 36.212C64.676 36.132 64.824 35.992 64.936 35.792C65.048 35.6 65.104 35.32 65.104 34.952V26.432H66.184V34.868C66.184 35.692 65.98 36.3 65.572 36.692C65.164 37.084 64.624 37.28 63.952 37.28ZM73.8932 31.772C73.8932 32.836 73.6213 33.66 73.0773 34.244C72.5413 34.828 71.8133 35.12 70.8933 35.12C70.3253 35.12 69.8173 34.992 69.3693 34.736C68.9293 34.472 68.5813 34.092 68.3253 33.596C68.0693 33.092 67.9413 32.484 67.9413 31.772C67.9413 30.708 68.2053 29.888 68.7333 29.312C69.2693 28.736 70.0013 28.448 70.9293 28.448C71.5053 28.448 72.0173 28.58 72.4653 28.844C72.9133 29.1 73.2613 29.476 73.5093 29.972C73.7653 30.46 73.8932 31.06 73.8932 31.772ZM69.0333 31.772C69.0333 32.532 69.1813 33.136 69.4773 33.584C69.7813 34.024 70.2613 34.244 70.9173 34.244C71.5653 34.244 72.0413 34.024 72.3453 33.584C72.6493 33.136 72.8013 32.532 72.8013 31.772C72.8013 31.012 72.6493 30.416 72.3453 29.984C72.0413 29.552 71.5613 29.336 70.9053 29.336C70.2493 29.336 69.7733 29.552 69.4773 29.984C69.1813 30.416 69.0333 31.012 69.0333 31.772ZM76.1069 26.156C76.2669 26.156 76.4069 26.212 76.5269 26.324C76.6549 26.428 76.7189 26.596 76.7189 26.828C76.7189 27.06 76.6549 27.232 76.5269 27.344C76.4069 27.448 76.2669 27.5 76.1069 27.5C75.9309 27.5 75.7829 27.448 75.6629 27.344C75.5429 27.232 75.4829 27.06 75.4829 26.828C75.4829 26.596 75.5429 26.428 75.6629 26.324C75.7829 26.212 75.9309 26.156 76.1069 26.156ZM76.6229 28.568V35H75.5669V28.568H76.6229ZM81.7566 28.448C82.5246 28.448 83.1046 28.636 83.4966 29.012C83.8886 29.388 84.0846 29.988 84.0846 30.812V35H83.0406V30.884C83.0406 29.852 82.5606 29.336 81.6006 29.336C80.8886 29.336 80.3966 29.536 80.1246 29.936C79.8526 30.336 79.7166 30.912 79.7166 31.664V35H78.6606V28.568H79.5126L79.6686 29.444H79.7286C79.9366 29.108 80.2246 28.86 80.5926 28.7C80.9606 28.532 81.3486 28.448 81.7566 28.448ZM93.1198 35L90.2998 27.488H90.2518C90.2758 27.736 90.2958 28.072 90.3118 28.496C90.3278 28.912 90.3358 29.348 90.3358 29.804V35H89.3398V26.432H90.9358L93.5758 33.452H93.6238L96.3118 26.432H97.8958V35H96.8278V29.732C96.8278 29.316 96.8358 28.904 96.8518 28.496C96.8758 28.088 96.8958 27.756 96.9118 27.5H96.8638L94.0078 35H93.1198ZM102.567 28.448C103.111 28.448 103.583 28.568 103.983 28.808C104.383 29.048 104.687 29.388 104.895 29.828C105.111 30.26 105.219 30.768 105.219 31.352V31.988H100.815C100.831 32.716 101.015 33.272 101.367 33.656C101.727 34.032 102.227 34.22 102.867 34.22C103.275 34.22 103.635 34.184 103.947 34.112C104.267 34.032 104.595 33.92 104.931 33.776V34.7C104.603 34.844 104.279 34.948 103.959 35.012C103.639 35.084 103.259 35.12 102.819 35.12C102.203 35.12 101.663 34.996 101.199 34.748C100.735 34.5 100.371 34.132 100.107 33.644C99.8505 33.156 99.7225 32.552 99.7225 31.832C99.7225 31.128 99.8385 30.524 100.071 30.02C100.311 29.516 100.643 29.128 101.067 28.856C101.499 28.584 101.999 28.448 102.567 28.448ZM102.555 29.312C102.051 29.312 101.651 29.476 101.355 29.804C101.067 30.124 100.895 30.572 100.839 31.148H104.115C104.107 30.604 103.979 30.164 103.731 29.828C103.483 29.484 103.091 29.312 102.555 29.312ZM109.34 28.448C109.884 28.448 110.356 28.568 110.756 28.808C111.156 29.048 111.46 29.388 111.668 29.828C111.884 30.26 111.992 30.768 111.992 31.352V31.988H107.588C107.604 32.716 107.788 33.272 108.14 33.656C108.5 34.032 109 34.22 109.64 34.22C110.048 34.22 110.408 34.184 110.72 34.112C111.04 34.032 111.368 33.92 111.704 33.776V34.7C111.376 34.844 111.052 34.948 110.732 35.012C110.412 35.084 110.032 35.12 109.592 35.12C108.976 35.12 108.436 34.996 107.972 34.748C107.508 34.5 107.144 34.132 106.88 33.644C106.624 33.156 106.496 32.552 106.496 31.832C106.496 31.128 106.612 30.524 106.844 30.02C107.084 29.516 107.416 29.128 107.84 28.856C108.272 28.584 108.772 28.448 109.34 28.448ZM109.328 29.312C108.824 29.312 108.424 29.476 108.128 29.804C107.84 30.124 107.668 30.572 107.612 31.148H110.888C110.88 30.604 110.752 30.164 110.504 29.828C110.256 29.484 109.864 29.312 109.328 29.312ZM115.777 34.256C115.937 34.256 116.101 34.244 116.269 34.22C116.437 34.196 116.573 34.164 116.677 34.124V34.928C116.565 34.984 116.405 35.028 116.197 35.06C115.989 35.1 115.789 35.12 115.597 35.12C115.261 35.12 114.949 35.064 114.661 34.952C114.381 34.832 114.153 34.628 113.977 34.34C113.801 34.052 113.713 33.648 113.713 33.128V29.384H112.801V28.88L113.725 28.46L114.145 27.092H114.769V28.568H116.629V29.384H114.769V33.104C114.769 33.496 114.861 33.788 115.045 33.98C115.237 34.164 115.481 34.256 115.777 34.256ZM118.505 26.156C118.665 26.156 118.805 26.212 118.925 26.324C119.053 26.428 119.117 26.596 119.117 26.828C119.117 27.06 119.053 27.232 118.925 27.344C118.805 27.448 118.665 27.5 118.505 27.5C118.329 27.5 118.181 27.448 118.061 27.344C117.941 27.232 117.881 27.06 117.881 26.828C117.881 26.596 117.941 26.428 118.061 26.324C118.181 26.212 118.329 26.156 118.505 26.156ZM119.021 28.568V35H117.965V28.568H119.021ZM124.155 28.448C124.923 28.448 125.503 28.636 125.895 29.012C126.287 29.388 126.483 29.988 126.483 30.812V35H125.439V30.884C125.439 29.852 124.959 29.336 123.999 29.336C123.287 29.336 122.795 29.536 122.523 29.936C122.251 30.336 122.115 30.912 122.115 31.664V35H121.059V28.568H121.911L122.067 29.444H122.127C122.335 29.108 122.623 28.86 122.991 28.7C123.359 28.532 123.747 28.448 124.155 28.448ZM130.757 28.448C131.181 28.448 131.561 28.528 131.897 28.688C132.241 28.848 132.533 29.092 132.773 29.42H132.833L132.977 28.568H133.817V35.108C133.817 36.028 133.581 36.72 133.109 37.184C132.645 37.648 131.921 37.88 130.937 37.88C129.993 37.88 129.221 37.744 128.621 37.472V36.5C129.253 36.836 130.045 37.004 130.997 37.004C131.549 37.004 131.981 36.84 132.293 36.512C132.613 36.192 132.773 35.752 132.773 35.192V34.94C132.773 34.844 132.777 34.708 132.785 34.532C132.793 34.348 132.801 34.22 132.809 34.148H132.761C132.329 34.796 131.665 35.12 130.769 35.12C129.937 35.12 129.285 34.828 128.813 34.244C128.349 33.66 128.117 32.844 128.117 31.796C128.117 30.772 128.349 29.96 128.813 29.36C129.285 28.752 129.933 28.448 130.757 28.448ZM130.901 29.336C130.365 29.336 129.949 29.552 129.653 29.984C129.357 30.408 129.209 31.016 129.209 31.808C129.209 32.6 129.353 33.208 129.641 33.632C129.929 34.048 130.357 34.256 130.925 34.256C131.573 34.256 132.045 34.084 132.341 33.74C132.637 33.388 132.785 32.824 132.785 32.048V31.796C132.785 30.924 132.633 30.296 132.329 29.912C132.025 29.528 131.549 29.336 130.901 29.336ZM145.637 26.432V31.976C145.637 32.568 145.517 33.104 145.277 33.584C145.037 34.056 144.669 34.432 144.173 34.712C143.677 34.984 143.053 35.12 142.301 35.12C141.229 35.12 140.417 34.832 139.865 34.256C139.313 33.672 139.037 32.904 139.037 31.952V26.432H140.117V31.988C140.117 32.684 140.301 33.224 140.669 33.608C141.045 33.992 141.609 34.184 142.361 34.184C143.137 34.184 143.697 33.98 144.041 33.572C144.393 33.156 144.569 32.624 144.569 31.976V26.432H145.637ZM151.942 33.224C151.942 33.848 151.71 34.32 151.246 34.64C150.782 34.96 150.158 35.12 149.374 35.12C148.926 35.12 148.538 35.084 148.21 35.012C147.89 34.94 147.606 34.84 147.358 34.712V33.752C147.614 33.88 147.922 34 148.282 34.112C148.65 34.216 149.022 34.268 149.398 34.268C149.934 34.268 150.322 34.184 150.562 34.016C150.802 33.84 150.922 33.608 150.922 33.32C150.922 33.16 150.878 33.016 150.79 32.888C150.702 32.76 150.542 32.632 150.31 32.504C150.086 32.376 149.762 32.232 149.338 32.072C148.922 31.912 148.566 31.752 148.27 31.592C147.974 31.432 147.746 31.24 147.586 31.016C147.426 30.792 147.346 30.504 147.346 30.152C147.346 29.608 147.566 29.188 148.006 28.892C148.454 28.596 149.038 28.448 149.758 28.448C150.15 28.448 150.514 28.488 150.85 28.568C151.194 28.648 151.514 28.752 151.81 28.88L151.45 29.72C151.178 29.608 150.894 29.512 150.598 29.432C150.302 29.352 149.998 29.312 149.686 29.312C149.254 29.312 148.922 29.384 148.69 29.528C148.466 29.664 148.354 29.852 148.354 30.092C148.354 30.276 148.406 30.428 148.51 30.548C148.614 30.668 148.786 30.788 149.026 30.908C149.274 31.028 149.602 31.164 150.01 31.316C150.418 31.468 150.766 31.624 151.054 31.784C151.342 31.944 151.562 32.14 151.714 32.372C151.866 32.596 151.942 32.88 151.942 33.224ZM154.037 26.156C154.197 26.156 154.337 26.212 154.457 26.324C154.585 26.428 154.649 26.596 154.649 26.828C154.649 27.06 154.585 27.232 154.457 27.344C154.337 27.448 154.197 27.5 154.037 27.5C153.861 27.5 153.713 27.448 153.593 27.344C153.473 27.232 153.413 27.06 153.413 26.828C153.413 26.596 153.473 26.428 153.593 26.324C153.713 26.212 153.861 26.156 154.037 26.156ZM154.553 28.568V35H153.497V28.568H154.553ZM159.686 28.448C160.454 28.448 161.034 28.636 161.426 29.012C161.818 29.388 162.014 29.988 162.014 30.812V35H160.97V30.884C160.97 29.852 160.49 29.336 159.53 29.336C158.818 29.336 158.326 29.536 158.054 29.936C157.782 30.336 157.646 30.912 157.646 31.664V35H156.59V28.568H157.442L157.598 29.444H157.658C157.866 29.108 158.154 28.86 158.522 28.7C158.89 28.532 159.278 28.448 159.686 28.448ZM166.288 28.448C166.712 28.448 167.092 28.528 167.428 28.688C167.772 28.848 168.064 29.092 168.304 29.42H168.364L168.508 28.568H169.348V35.108C169.348 36.028 169.112 36.72 168.64 37.184C168.176 37.648 167.452 37.88 166.468 37.88C165.524 37.88 164.752 37.744 164.152 37.472V36.5C164.784 36.836 165.576 37.004 166.528 37.004C167.08 37.004 167.512 36.84 167.824 36.512C168.144 36.192 168.304 35.752 168.304 35.192V34.94C168.304 34.844 168.308 34.708 168.316 34.532C168.324 34.348 168.332 34.22 168.34 34.148H168.292C167.86 34.796 167.196 35.12 166.3 35.12C165.468 35.12 164.816 34.828 164.344 34.244C163.88 33.66 163.648 32.844 163.648 31.796C163.648 30.772 163.88 29.96 164.344 29.36C164.816 28.752 165.464 28.448 166.288 28.448ZM166.432 29.336C165.896 29.336 165.48 29.552 165.184 29.984C164.888 30.408 164.74 31.016 164.74 31.808C164.74 32.6 164.884 33.208 165.172 33.632C165.46 34.048 165.888 34.256 166.456 34.256C167.104 34.256 167.576 34.084 167.872 33.74C168.168 33.388 168.316 32.824 168.316 32.048V31.796C168.316 30.924 168.164 30.296 167.86 29.912C167.556 29.528 167.08 29.336 166.432 29.336Z" fill="#323232"/>
<rect x="65" y="43" width="278" height="34" rx="1" fill="white"/>
<path d="M329.613 63.3625C329.512 63.3625 329.413 63.3125 329.363 63.2625L324.012 57.9125L318.662 63.2625C318.512 63.4125 318.263 63.4125 318.113 63.2625C317.962 63.1125 317.962 62.8625 318.113 62.7125L323.712 57.1125C323.862 56.9625 324.112 56.9625 324.262 57.1125L329.863 62.7125C330.012 62.8625 330.012 63.1125 329.863 63.2625C329.812 63.3125 329.713 63.3625 329.613 63.3625Z" fill="#323232"/>
<rect x="65" y="43" width="278" height="34" rx="1" stroke="#1473E6" stroke-width="2"/>
<g filter="url(#filter0_d_8160_481809)">
<g clip-path="url(#clip0_8160_481809)">
<rect x="65" y="79" width="278" height="109" rx="4" fill="white"/>
<rect width="278" height="36" transform="translate(65 79)" fill="white"/>
<rect x="81" y="89" width="16" height="16" rx="4" fill="white"/>
<rect x="81.5" y="89.5" width="15" height="15" rx="3.5" stroke="#1473E6"/>
<path d="M112.63 102L111.426 98.906H107.464L106.274 102H105L108.906 91.962H110.04L113.932 102H112.63ZM111.048 97.786L109.928 94.762C109.9 94.6873 109.853 94.552 109.788 94.356C109.723 94.16 109.657 93.9593 109.592 93.754C109.536 93.5393 109.489 93.376 109.452 93.264C109.377 93.5533 109.298 93.838 109.214 94.118C109.139 94.3887 109.074 94.6033 109.018 94.762L107.884 97.786H111.048ZM120.017 99.928C120.017 100.656 119.747 101.207 119.205 101.58C118.664 101.953 117.936 102.14 117.021 102.14C116.499 102.14 116.046 102.098 115.663 102.014C115.29 101.93 114.959 101.813 114.669 101.664V100.544C114.968 100.693 115.327 100.833 115.747 100.964C116.177 101.085 116.611 101.146 117.049 101.146C117.675 101.146 118.127 101.048 118.407 100.852C118.687 100.647 118.827 100.376 118.827 100.04C118.827 99.8533 118.776 99.6853 118.673 99.536C118.571 99.3867 118.384 99.2373 118.113 99.088C117.852 98.9387 117.474 98.7707 116.979 98.584C116.494 98.3973 116.079 98.2107 115.733 98.024C115.388 97.8373 115.122 97.6133 114.935 97.352C114.749 97.0907 114.655 96.7547 114.655 96.344C114.655 95.7093 114.912 95.2193 115.425 94.874C115.948 94.5287 116.629 94.356 117.469 94.356C117.927 94.356 118.351 94.4027 118.743 94.496C119.145 94.5893 119.518 94.7107 119.863 94.86L119.443 95.84C119.126 95.7093 118.795 95.5973 118.449 95.504C118.104 95.4107 117.749 95.364 117.385 95.364C116.881 95.364 116.494 95.448 116.223 95.616C115.962 95.7747 115.831 95.994 115.831 96.274C115.831 96.4887 115.892 96.666 116.013 96.806C116.135 96.946 116.335 97.086 116.615 97.226C116.905 97.366 117.287 97.5247 117.763 97.702C118.239 97.8793 118.645 98.0613 118.981 98.248C119.317 98.4347 119.574 98.6633 119.751 98.934C119.929 99.1953 120.017 99.5267 120.017 99.928ZM123.049 91.36V96.918C123.049 97.0673 123.039 97.2633 123.021 97.506C123.011 97.7487 123.002 97.9587 122.993 98.136H123.049C123.105 98.0613 123.189 97.954 123.301 97.814C123.413 97.674 123.525 97.534 123.637 97.394C123.758 97.2447 123.861 97.1233 123.945 97.03L126.339 94.496H127.781L124.743 97.702L127.991 102H126.507L123.903 98.5L123.049 99.242V102H121.831V91.36H123.049ZM135.844 94.356C136.479 94.356 137.029 94.496 137.496 94.776C137.963 95.056 138.317 95.4527 138.56 95.966C138.812 96.47 138.938 97.0627 138.938 97.744V98.486H133.8C133.819 99.3353 134.033 99.984 134.444 100.432C134.864 100.871 135.447 101.09 136.194 101.09C136.67 101.09 137.09 101.048 137.454 100.964C137.827 100.871 138.21 100.74 138.602 100.572V101.65C138.219 101.818 137.841 101.939 137.468 102.014C137.095 102.098 136.651 102.14 136.138 102.14C135.419 102.14 134.789 101.995 134.248 101.706C133.707 101.417 133.282 100.987 132.974 100.418C132.675 99.8487 132.526 99.144 132.526 98.304C132.526 97.4827 132.661 96.778 132.932 96.19C133.212 95.602 133.599 95.1493 134.094 94.832C134.598 94.5147 135.181 94.356 135.844 94.356ZM135.83 95.364C135.242 95.364 134.775 95.5553 134.43 95.938C134.094 96.3113 133.893 96.834 133.828 97.506H137.65C137.641 96.8713 137.491 96.358 137.202 95.966C136.913 95.5647 136.455 95.364 135.83 95.364ZM142.227 102L139.385 94.496H140.701L142.297 98.92C142.371 99.1253 142.451 99.354 142.535 99.606C142.619 99.858 142.693 100.101 142.759 100.334C142.824 100.567 142.871 100.759 142.899 100.908H142.955C142.983 100.759 143.034 100.567 143.109 100.334C143.183 100.091 143.263 99.8487 143.347 99.606C143.431 99.354 143.51 99.1253 143.585 98.92L145.181 94.496H146.497L143.641 102H142.227ZM150.582 94.356C151.217 94.356 151.767 94.496 152.234 94.776C152.701 95.056 153.055 95.4527 153.298 95.966C153.55 96.47 153.676 97.0627 153.676 97.744V98.486H148.538C148.557 99.3353 148.771 99.984 149.182 100.432C149.602 100.871 150.185 101.09 150.932 101.09C151.408 101.09 151.828 101.048 152.192 100.964C152.565 100.871 152.948 100.74 153.34 100.572V101.65C152.957 101.818 152.579 101.939 152.206 102.014C151.833 102.098 151.389 102.14 150.876 102.14C150.157 102.14 149.527 101.995 148.986 101.706C148.445 101.417 148.02 100.987 147.712 100.418C147.413 99.8487 147.264 99.144 147.264 98.304C147.264 97.4827 147.399 96.778 147.67 96.19C147.95 95.602 148.337 95.1493 148.832 94.832C149.336 94.5147 149.919 94.356 150.582 94.356ZM150.568 95.364C149.98 95.364 149.513 95.5553 149.168 95.938C148.832 96.3113 148.631 96.834 148.566 97.506H152.388C152.379 96.8713 152.229 96.358 151.94 95.966C151.651 95.5647 151.193 95.364 150.568 95.364ZM159.086 94.356C159.226 94.356 159.376 94.3653 159.534 94.384C159.693 94.3933 159.838 94.412 159.968 94.44L159.814 95.574C159.693 95.546 159.558 95.5227 159.408 95.504C159.259 95.4853 159.124 95.476 159.002 95.476C158.62 95.476 158.26 95.5833 157.924 95.798C157.588 96.0033 157.318 96.2973 157.112 96.68C156.916 97.0533 156.818 97.492 156.818 97.996V102H155.586V94.496H156.594L156.734 95.868H156.79C157.024 95.4573 157.332 95.1027 157.714 94.804C158.106 94.5053 158.564 94.356 159.086 94.356ZM160.194 94.496H161.51L163.134 98.766C163.274 99.1487 163.4 99.508 163.512 99.844C163.624 100.18 163.708 100.502 163.764 100.81H163.82C163.876 100.577 163.964 100.273 164.086 99.9C164.207 99.5173 164.333 99.1347 164.464 98.752L165.99 94.496H167.32L164.086 103.036C163.815 103.745 163.474 104.31 163.064 104.73C162.653 105.15 162.084 105.36 161.356 105.36C161.132 105.36 160.936 105.346 160.768 105.318C160.6 105.299 160.455 105.276 160.334 105.248V104.268C160.436 104.287 160.558 104.305 160.698 104.324C160.847 104.343 161.001 104.352 161.16 104.352C161.589 104.352 161.934 104.231 162.196 103.988C162.457 103.745 162.667 103.423 162.826 103.022L163.218 102.028L160.194 94.496ZM174.649 101.132C174.836 101.132 175.027 101.118 175.223 101.09C175.419 101.062 175.578 101.025 175.699 100.978V101.916C175.568 101.981 175.382 102.033 175.139 102.07C174.896 102.117 174.663 102.14 174.439 102.14C174.047 102.14 173.683 102.075 173.347 101.944C173.02 101.804 172.754 101.566 172.549 101.23C172.344 100.894 172.241 100.423 172.241 99.816V95.448H171.177V94.86L172.255 94.37L172.745 92.774H173.473V94.496H175.643V95.448H173.473V99.788C173.473 100.245 173.58 100.586 173.795 100.81C174.019 101.025 174.304 101.132 174.649 101.132ZM177.832 91.682C178.018 91.682 178.182 91.7473 178.322 91.878C178.471 91.9993 178.546 92.1953 178.546 92.466C178.546 92.7367 178.471 92.9373 178.322 93.068C178.182 93.1893 178.018 93.25 177.832 93.25C177.626 93.25 177.454 93.1893 177.314 93.068C177.174 92.9373 177.104 92.7367 177.104 92.466C177.104 92.1953 177.174 91.9993 177.314 91.878C177.454 91.7473 177.626 91.682 177.832 91.682ZM178.434 94.496V102H177.202V94.496H178.434ZM189.043 94.356C189.892 94.356 190.527 94.5753 190.947 95.014C191.367 95.4527 191.577 96.1527 191.577 97.114V102H190.359V97.17C190.359 95.9847 189.85 95.392 188.833 95.392C188.105 95.392 187.582 95.602 187.265 96.022C186.957 96.442 186.803 97.0533 186.803 97.856V102H185.585V97.17C185.585 95.9847 185.072 95.392 184.045 95.392C183.289 95.392 182.766 95.6253 182.477 96.092C182.188 96.5587 182.043 97.2307 182.043 98.108V102H180.811V94.496H181.805L181.987 95.518H182.057C182.29 95.126 182.603 94.8367 182.995 94.65C183.396 94.454 183.821 94.356 184.269 94.356C185.445 94.356 186.21 94.776 186.565 95.616H186.635C186.887 95.1867 187.228 94.8693 187.657 94.664C188.086 94.4587 188.548 94.356 189.043 94.356ZM196.793 94.356C197.428 94.356 197.978 94.496 198.445 94.776C198.912 95.056 199.266 95.4527 199.509 95.966C199.761 96.47 199.887 97.0627 199.887 97.744V98.486H194.749C194.768 99.3353 194.982 99.984 195.393 100.432C195.813 100.871 196.396 101.09 197.143 101.09C197.619 101.09 198.039 101.048 198.403 100.964C198.776 100.871 199.159 100.74 199.551 100.572V101.65C199.168 101.818 198.79 101.939 198.417 102.014C198.044 102.098 197.6 102.14 197.087 102.14C196.368 102.14 195.738 101.995 195.197 101.706C194.656 101.417 194.231 100.987 193.923 100.418C193.624 99.8487 193.475 99.144 193.475 98.304C193.475 97.4827 193.61 96.778 193.881 96.19C194.161 95.602 194.548 95.1493 195.043 94.832C195.547 94.5147 196.13 94.356 196.793 94.356ZM196.779 95.364C196.191 95.364 195.724 95.5553 195.379 95.938C195.043 96.3113 194.842 96.834 194.777 97.506H198.599C198.59 96.8713 198.44 96.358 198.151 95.966C197.862 95.5647 197.404 95.364 196.779 95.364Z" fill="black"/>
<rect width="278" height="36" transform="translate(65 115)" fill="white"/>
<rect x="81" y="125" width="16" height="16" rx="4" fill="white"/>
<rect x="81.5" y="125.5" width="15" height="15" rx="3.5" stroke="#1473E6"/>
<path d="M117.838 128.004L115.178 138H113.904L111.958 131.448C111.874 131.187 111.795 130.921 111.72 130.65C111.655 130.37 111.594 130.127 111.538 129.922C111.491 129.707 111.463 129.558 111.454 129.474C111.445 129.595 111.393 129.857 111.3 130.258C111.207 130.65 111.099 131.061 110.978 131.49L109.088 138H107.814L105.168 128.004H106.484L108.038 134.108C108.15 134.537 108.243 134.953 108.318 135.354C108.402 135.755 108.467 136.133 108.514 136.488C108.561 136.124 108.631 135.727 108.724 135.298C108.817 134.869 108.925 134.449 109.046 134.038L110.81 128.004H112.112L113.946 134.08C114.077 134.509 114.189 134.939 114.282 135.368C114.375 135.797 114.445 136.171 114.492 136.488C114.529 136.143 114.59 135.769 114.674 135.368C114.767 134.957 114.87 134.533 114.982 134.094L116.522 128.004H117.838ZM121.83 130.356C122.465 130.356 123.016 130.496 123.482 130.776C123.949 131.056 124.304 131.453 124.546 131.966C124.798 132.47 124.924 133.063 124.924 133.744V134.486H119.786C119.805 135.335 120.02 135.984 120.43 136.432C120.85 136.871 121.434 137.09 122.18 137.09C122.656 137.09 123.076 137.048 123.44 136.964C123.814 136.871 124.196 136.74 124.588 136.572V137.65C124.206 137.818 123.828 137.939 123.454 138.014C123.081 138.098 122.638 138.14 122.124 138.14C121.406 138.14 120.776 137.995 120.234 137.706C119.693 137.417 119.268 136.987 118.96 136.418C118.662 135.849 118.512 135.144 118.512 134.304C118.512 133.483 118.648 132.778 118.918 132.19C119.198 131.602 119.586 131.149 120.08 130.832C120.584 130.515 121.168 130.356 121.83 130.356ZM121.816 131.364C121.228 131.364 120.762 131.555 120.416 131.938C120.08 132.311 119.88 132.834 119.814 133.506H123.636C123.627 132.871 123.478 132.358 123.188 131.966C122.899 131.565 122.442 131.364 121.816 131.364ZM128.067 127.36V129.95C128.067 130.267 128.057 130.566 128.039 130.846C128.029 131.117 128.015 131.331 127.997 131.49H128.067C128.281 131.173 128.575 130.907 128.949 130.692C129.322 130.477 129.803 130.37 130.391 130.37C131.324 130.37 132.071 130.697 132.631 131.35C133.2 131.994 133.485 132.96 133.485 134.248C133.485 135.536 133.2 136.507 132.631 137.16C132.061 137.813 131.315 138.14 130.391 138.14C129.803 138.14 129.322 138.033 128.949 137.818C128.575 137.603 128.281 137.347 128.067 137.048H127.969L127.717 138H126.835V127.36H128.067ZM130.181 131.392C129.378 131.392 128.823 131.621 128.515 132.078C128.216 132.535 128.067 133.245 128.067 134.206V134.262C128.067 135.186 128.216 135.895 128.515 136.39C128.823 136.875 129.387 137.118 130.209 137.118C130.881 137.118 131.38 136.871 131.707 136.376C132.043 135.881 132.211 135.167 132.211 134.234C132.211 132.339 131.534 131.392 130.181 131.392ZM140.317 127.36V129.95C140.317 130.267 140.307 130.566 140.289 130.846C140.279 131.117 140.265 131.331 140.247 131.49H140.317C140.531 131.173 140.825 130.907 141.199 130.692C141.572 130.477 142.053 130.37 142.641 130.37C143.574 130.37 144.321 130.697 144.881 131.35C145.45 131.994 145.735 132.96 145.735 134.248C145.735 135.536 145.45 136.507 144.881 137.16C144.311 137.813 143.565 138.14 142.641 138.14C142.053 138.14 141.572 138.033 141.199 137.818C140.825 137.603 140.531 137.347 140.317 137.048H140.219L139.967 138H139.085V127.36H140.317ZM142.431 131.392C141.628 131.392 141.073 131.621 140.765 132.078C140.466 132.535 140.317 133.245 140.317 134.206V134.262C140.317 135.186 140.466 135.895 140.765 136.39C141.073 136.875 141.637 137.118 142.459 137.118C143.131 137.118 143.63 136.871 143.957 136.376C144.293 135.881 144.461 135.167 144.461 134.234C144.461 132.339 143.784 131.392 142.431 131.392ZM151.198 130.356C151.338 130.356 151.487 130.365 151.646 130.384C151.804 130.393 151.949 130.412 152.08 130.44L151.926 131.574C151.804 131.546 151.669 131.523 151.52 131.504C151.37 131.485 151.235 131.476 151.114 131.476C150.731 131.476 150.372 131.583 150.036 131.798C149.7 132.003 149.429 132.297 149.224 132.68C149.028 133.053 148.93 133.492 148.93 133.996V138H147.698V130.496H148.706L148.846 131.868H148.902C149.135 131.457 149.443 131.103 149.826 130.804C150.218 130.505 150.675 130.356 151.198 130.356ZM159.732 134.234C159.732 135.475 159.414 136.437 158.78 137.118C158.154 137.799 157.305 138.14 156.232 138.14C155.569 138.14 154.976 137.991 154.454 137.692C153.94 137.384 153.534 136.941 153.236 136.362C152.937 135.774 152.788 135.065 152.788 134.234C152.788 132.993 153.096 132.036 153.712 131.364C154.337 130.692 155.191 130.356 156.274 130.356C156.946 130.356 157.543 130.51 158.066 130.818C158.588 131.117 158.994 131.555 159.284 132.134C159.582 132.703 159.732 133.403 159.732 134.234ZM154.062 134.234C154.062 135.121 154.234 135.825 154.58 136.348C154.934 136.861 155.494 137.118 156.26 137.118C157.016 137.118 157.571 136.861 157.926 136.348C158.28 135.825 158.458 135.121 158.458 134.234C158.458 133.347 158.28 132.652 157.926 132.148C157.571 131.644 157.011 131.392 156.246 131.392C155.48 131.392 154.925 131.644 154.58 132.148C154.234 132.652 154.062 133.347 154.062 134.234ZM167.543 137.986L166.255 133.758C166.133 133.375 166.026 133.002 165.933 132.638C165.839 132.274 165.774 131.985 165.737 131.77H165.681C165.643 131.985 165.583 132.274 165.499 132.638C165.415 133.002 165.307 133.38 165.177 133.772L163.833 137.986H162.433L160.375 130.482H161.649L162.685 134.486C162.787 134.887 162.885 135.293 162.979 135.704C163.072 136.115 163.137 136.455 163.175 136.726H163.231C163.259 136.567 163.301 136.371 163.357 136.138C163.413 135.905 163.473 135.662 163.539 135.41C163.604 135.149 163.669 134.915 163.735 134.71L165.065 130.482H166.409L167.697 134.71C167.79 135.037 167.888 135.387 167.991 135.76C168.093 136.133 168.163 136.451 168.201 136.712H168.257C168.285 136.479 168.345 136.157 168.439 135.746C168.541 135.335 168.649 134.915 168.761 134.486L169.811 130.482H171.071L168.985 137.986H167.543ZM177.303 135.928C177.303 136.656 177.032 137.207 176.491 137.58C175.949 137.953 175.221 138.14 174.307 138.14C173.784 138.14 173.331 138.098 172.949 138.014C172.575 137.93 172.244 137.813 171.955 137.664V136.544C172.253 136.693 172.613 136.833 173.033 136.964C173.462 137.085 173.896 137.146 174.335 137.146C174.96 137.146 175.413 137.048 175.693 136.852C175.973 136.647 176.113 136.376 176.113 136.04C176.113 135.853 176.061 135.685 175.959 135.536C175.856 135.387 175.669 135.237 175.399 135.088C175.137 134.939 174.759 134.771 174.265 134.584C173.779 134.397 173.364 134.211 173.019 134.024C172.673 133.837 172.407 133.613 172.221 133.352C172.034 133.091 171.941 132.755 171.941 132.344C171.941 131.709 172.197 131.219 172.711 130.874C173.233 130.529 173.915 130.356 174.755 130.356C175.212 130.356 175.637 130.403 176.029 130.496C176.43 130.589 176.803 130.711 177.149 130.86L176.729 131.84C176.411 131.709 176.08 131.597 175.735 131.504C175.389 131.411 175.035 131.364 174.671 131.364C174.167 131.364 173.779 131.448 173.509 131.616C173.247 131.775 173.117 131.994 173.117 132.274C173.117 132.489 173.177 132.666 173.299 132.806C173.42 132.946 173.621 133.086 173.901 133.226C174.19 133.366 174.573 133.525 175.049 133.702C175.525 133.879 175.931 134.061 176.267 134.248C176.603 134.435 176.859 134.663 177.037 134.934C177.214 135.195 177.303 135.527 177.303 135.928ZM182.014 130.356C182.648 130.356 183.199 130.496 183.666 130.776C184.132 131.056 184.487 131.453 184.73 131.966C184.982 132.47 185.108 133.063 185.108 133.744V134.486H179.97C179.988 135.335 180.203 135.984 180.614 136.432C181.034 136.871 181.617 137.09 182.364 137.09C182.84 137.09 183.26 137.048 183.624 136.964C183.997 136.871 184.38 136.74 184.772 136.572V137.65C184.389 137.818 184.011 137.939 183.638 138.014C183.264 138.098 182.821 138.14 182.308 138.14C181.589 138.14 180.959 137.995 180.418 137.706C179.876 137.417 179.452 136.987 179.144 136.418C178.845 135.849 178.696 135.144 178.696 134.304C178.696 133.483 178.831 132.778 179.102 132.19C179.382 131.602 179.769 131.149 180.264 130.832C180.768 130.515 181.351 130.356 182.014 130.356ZM182 131.364C181.412 131.364 180.945 131.555 180.6 131.938C180.264 132.311 180.063 132.834 179.998 133.506H183.82C183.81 132.871 183.661 132.358 183.372 131.966C183.082 131.565 182.625 131.364 182 131.364ZM190.518 130.356C190.658 130.356 190.807 130.365 190.966 130.384C191.125 130.393 191.269 130.412 191.4 130.44L191.246 131.574C191.125 131.546 190.989 131.523 190.84 131.504C190.691 131.485 190.555 131.476 190.434 131.476C190.051 131.476 189.692 131.583 189.356 131.798C189.02 132.003 188.749 132.297 188.544 132.68C188.348 133.053 188.25 133.492 188.25 133.996V138H187.018V130.496H188.026L188.166 131.868H188.222C188.455 131.457 188.763 131.103 189.146 130.804C189.538 130.505 189.995 130.356 190.518 130.356Z" fill="black"/>
<rect width="278" height="36" transform="translate(65 151)" fill="white"/>
<rect x="81" y="161" width="16" height="16" rx="4" fill="white"/>
<rect x="81.5" y="161.5" width="15" height="15" rx="3.5" stroke="#1473E6"/>
<path d="M114.366 168.904C114.366 170.593 113.904 171.867 112.98 172.726C112.065 173.575 110.787 174 109.144 174H106.358V164.004H109.438C110.437 164.004 111.305 164.191 112.042 164.564C112.789 164.937 113.363 165.488 113.764 166.216C114.165 166.944 114.366 167.84 114.366 168.904ZM113.036 168.946C113.036 167.611 112.705 166.636 112.042 166.02C111.389 165.395 110.46 165.082 109.256 165.082H107.618V172.922H108.976C111.683 172.922 113.036 171.597 113.036 168.946ZM119.315 166.356C119.949 166.356 120.5 166.496 120.967 166.776C121.433 167.056 121.788 167.453 122.031 167.966C122.283 168.47 122.409 169.063 122.409 169.744V170.486H117.271C117.289 171.335 117.504 171.984 117.915 172.432C118.335 172.871 118.918 173.09 119.665 173.09C120.141 173.09 120.561 173.048 120.925 172.964C121.298 172.871 121.681 172.74 122.073 172.572V173.65C121.69 173.818 121.312 173.939 120.939 174.014C120.565 174.098 120.122 174.14 119.609 174.14C118.89 174.14 118.26 173.995 117.719 173.706C117.177 173.417 116.753 172.987 116.445 172.418C116.146 171.849 115.997 171.144 115.997 170.304C115.997 169.483 116.132 168.778 116.403 168.19C116.683 167.602 117.07 167.149 117.565 166.832C118.069 166.515 118.652 166.356 119.315 166.356ZM119.301 167.364C118.713 167.364 118.246 167.555 117.901 167.938C117.565 168.311 117.364 168.834 117.299 169.506H121.121C121.111 168.871 120.962 168.358 120.673 167.966C120.383 167.565 119.926 167.364 119.301 167.364ZM129.205 171.928C129.205 172.656 128.934 173.207 128.393 173.58C127.852 173.953 127.124 174.14 126.209 174.14C125.686 174.14 125.234 174.098 124.851 174.014C124.478 173.93 124.146 173.813 123.857 173.664V172.544C124.156 172.693 124.515 172.833 124.935 172.964C125.364 173.085 125.798 173.146 126.237 173.146C126.862 173.146 127.315 173.048 127.595 172.852C127.875 172.647 128.015 172.376 128.015 172.04C128.015 171.853 127.964 171.685 127.861 171.536C127.758 171.387 127.572 171.237 127.301 171.088C127.04 170.939 126.662 170.771 126.167 170.584C125.682 170.397 125.266 170.211 124.921 170.024C124.576 169.837 124.31 169.613 124.123 169.352C123.936 169.091 123.843 168.755 123.843 168.344C123.843 167.709 124.1 167.219 124.613 166.874C125.136 166.529 125.817 166.356 126.657 166.356C127.114 166.356 127.539 166.403 127.931 166.496C128.332 166.589 128.706 166.711 129.051 166.86L128.631 167.84C128.314 167.709 127.982 167.597 127.637 167.504C127.292 167.411 126.937 167.364 126.573 167.364C126.069 167.364 125.682 167.448 125.411 167.616C125.15 167.775 125.019 167.994 125.019 168.274C125.019 168.489 125.08 168.666 125.201 168.806C125.322 168.946 125.523 169.086 125.803 169.226C126.092 169.366 126.475 169.525 126.951 169.702C127.427 169.879 127.833 170.061 128.169 170.248C128.505 170.435 128.762 170.663 128.939 170.934C129.116 171.195 129.205 171.527 129.205 171.928ZM132.236 163.36V168.918C132.236 169.067 132.227 169.263 132.208 169.506C132.199 169.749 132.189 169.959 132.18 170.136H132.236C132.292 170.061 132.376 169.954 132.488 169.814C132.6 169.674 132.712 169.534 132.824 169.394C132.945 169.245 133.048 169.123 133.132 169.03L135.526 166.496H136.968L133.93 169.702L137.178 174H135.694L133.09 170.5L132.236 171.242V174H131.018V163.36H132.236ZM141.003 173.132C141.189 173.132 141.381 173.118 141.577 173.09C141.773 173.062 141.931 173.025 142.053 172.978V173.916C141.922 173.981 141.735 174.033 141.493 174.07C141.25 174.117 141.017 174.14 140.793 174.14C140.401 174.14 140.037 174.075 139.701 173.944C139.374 173.804 139.108 173.566 138.903 173.23C138.697 172.894 138.595 172.423 138.595 171.816V167.448H137.531V166.86L138.609 166.37L139.099 164.774H139.827V166.496H141.997V167.448H139.827V171.788C139.827 172.245 139.934 172.586 140.149 172.81C140.373 173.025 140.657 173.132 141.003 173.132ZM150.079 170.234C150.079 171.475 149.762 172.437 149.127 173.118C148.502 173.799 147.653 174.14 146.579 174.14C145.917 174.14 145.324 173.991 144.801 173.692C144.288 173.384 143.882 172.941 143.583 172.362C143.285 171.774 143.135 171.065 143.135 170.234C143.135 168.993 143.443 168.036 144.059 167.364C144.685 166.692 145.539 166.356 146.621 166.356C147.293 166.356 147.891 166.51 148.413 166.818C148.936 167.117 149.342 167.555 149.631 168.134C149.93 168.703 150.079 169.403 150.079 170.234ZM144.409 170.234C144.409 171.121 144.582 171.825 144.927 172.348C145.282 172.861 145.842 173.118 146.607 173.118C147.363 173.118 147.919 172.861 148.273 172.348C148.628 171.825 148.805 171.121 148.805 170.234C148.805 169.347 148.628 168.652 148.273 168.148C147.919 167.644 147.359 167.392 146.593 167.392C145.828 167.392 145.273 167.644 144.927 168.148C144.582 168.652 144.409 169.347 144.409 170.234ZM155.602 166.356C156.526 166.356 157.268 166.678 157.828 167.322C158.397 167.966 158.682 168.937 158.682 170.234C158.682 171.513 158.397 172.483 157.828 173.146C157.268 173.809 156.521 174.14 155.588 174.14C155.009 174.14 154.528 174.033 154.146 173.818C153.772 173.603 153.478 173.347 153.264 173.048H153.18C153.189 173.207 153.203 173.407 153.222 173.65C153.25 173.893 153.264 174.103 153.264 174.28V177.36H152.032V166.496H153.04L153.208 167.518H153.264C153.488 167.191 153.782 166.916 154.146 166.692C154.51 166.468 154.995 166.356 155.602 166.356ZM155.378 167.392C154.612 167.392 154.071 167.607 153.754 168.036C153.436 168.465 153.273 169.119 153.264 169.996V170.234C153.264 171.158 153.413 171.872 153.712 172.376C154.02 172.871 154.584 173.118 155.406 173.118C155.854 173.118 156.227 172.997 156.526 172.754C156.824 172.502 157.044 172.157 157.184 171.718C157.333 171.279 157.408 170.78 157.408 170.22C157.408 169.361 157.24 168.675 156.904 168.162C156.577 167.649 156.068 167.392 155.378 167.392ZM167.124 166.37C168.038 166.37 168.715 166.571 169.154 166.972C169.592 167.373 169.812 168.013 169.812 168.89V174H168.916L168.678 172.936H168.622C168.295 173.347 167.95 173.65 167.586 173.846C167.222 174.042 166.727 174.14 166.102 174.14C165.42 174.14 164.856 173.963 164.408 173.608C163.96 173.244 163.736 172.679 163.736 171.914C163.736 171.167 164.03 170.593 164.618 170.192C165.206 169.781 166.111 169.557 167.334 169.52L168.608 169.478V169.03C168.608 168.405 168.472 167.971 168.202 167.728C167.931 167.485 167.548 167.364 167.054 167.364C166.662 167.364 166.288 167.425 165.934 167.546C165.579 167.658 165.248 167.789 164.94 167.938L164.562 167.014C164.888 166.837 165.276 166.687 165.724 166.566C166.172 166.435 166.638 166.37 167.124 166.37ZM168.594 170.332L167.488 170.374C166.554 170.411 165.906 170.561 165.542 170.822C165.187 171.083 165.01 171.452 165.01 171.928C165.01 172.348 165.136 172.656 165.388 172.852C165.649 173.048 165.98 173.146 166.382 173.146C167.007 173.146 167.53 172.973 167.95 172.628C168.379 172.273 168.594 171.732 168.594 171.004V170.332ZM175.699 166.356C176.623 166.356 177.365 166.678 177.925 167.322C178.495 167.966 178.779 168.937 178.779 170.234C178.779 171.513 178.495 172.483 177.925 173.146C177.365 173.809 176.619 174.14 175.685 174.14C175.107 174.14 174.626 174.033 174.243 173.818C173.87 173.603 173.576 173.347 173.361 173.048H173.277C173.287 173.207 173.301 173.407 173.319 173.65C173.347 173.893 173.361 174.103 173.361 174.28V177.36H172.129V166.496H173.137L173.305 167.518H173.361C173.585 167.191 173.879 166.916 174.243 166.692C174.607 166.468 175.093 166.356 175.699 166.356ZM175.475 167.392C174.71 167.392 174.169 167.607 173.851 168.036C173.534 168.465 173.371 169.119 173.361 169.996V170.234C173.361 171.158 173.511 171.872 173.809 172.376C174.117 172.871 174.682 173.118 175.503 173.118C175.951 173.118 176.325 172.997 176.623 172.754C176.922 172.502 177.141 172.157 177.281 171.718C177.431 171.279 177.505 170.78 177.505 170.22C177.505 169.361 177.337 168.675 177.001 168.162C176.675 167.649 176.166 167.392 175.475 167.392ZM184.313 166.356C185.237 166.356 185.979 166.678 186.539 167.322C187.108 167.966 187.393 168.937 187.393 170.234C187.393 171.513 187.108 172.483 186.539 173.146C185.979 173.809 185.232 174.14 184.299 174.14C183.72 174.14 183.239 174.033 182.857 173.818C182.483 173.603 182.189 173.347 181.975 173.048H181.891C181.9 173.207 181.914 173.407 181.933 173.65C181.961 173.893 181.975 174.103 181.975 174.28V177.36H180.743V166.496H181.751L181.919 167.518H181.975C182.199 167.191 182.493 166.916 182.857 166.692C183.221 166.468 183.706 166.356 184.313 166.356ZM184.089 167.392C183.323 167.392 182.782 167.607 182.465 168.036C182.147 168.465 181.984 169.119 181.975 169.996V170.234C181.975 171.158 182.124 171.872 182.423 172.376C182.731 172.871 183.295 173.118 184.117 173.118C184.565 173.118 184.938 172.997 185.237 172.754C185.535 172.502 185.755 172.157 185.895 171.718C186.044 171.279 186.119 170.78 186.119 170.22C186.119 169.361 185.951 168.675 185.615 168.162C185.288 167.649 184.779 167.392 184.089 167.392Z" fill="black"/>
<rect width="278" height="36" transform="translate(65 187)" fill="white"/>
</g>
<rect x="64.5" y="78.5" width="279" height="110" rx="4.5" stroke="black" stroke-opacity="0.15"/>
</g>
<defs>
<filter id="filter0_d_8160_481809" x="60" y="78" width="288" height="119" filterUnits="userSpaceOnUse" color-interpolation-filters="sRGB">
<feFlood flood-opacity="0" result="BackgroundImageFix"/>
<feColorMatrix in="SourceAlpha" type="matrix" values="0 0 0 0 0 0 0 0 0 0 0 0 0 0 0 0 0 0 127 0" result="hardAlpha"/>
<feOffset dy="4"/>
<feGaussianBlur stdDeviation="2"/>
<feColorMatrix type="matrix" values="0 0 0 0 0 0 0 0 0 0 0 0 0 0 0 0 0 0 0.25 0"/>
<feBlend mode="normal" in2="BackgroundImageFix" result="effect1_dropShadow_8160_481809"/>
<feBlend mode="normal" in="SourceGraphic" in2="effect1_dropShadow_8160_481809" result="shape"/>
</filter>
<clipPath id="clip0_8160_481809">
<rect x="65" y="79" width="278" height="109" rx="4" fill="white"/>
</clipPath>
</defs>
</svg>
