<svg width="904" height="219" viewBox="0 0 904 219" fill="none" xmlns="http://www.w3.org/2000/svg">
<rect width="904" height="219" fill="white"/>
<path d="M439.482 179H437.718V172.77C437.718 172.471 437.722 172.154 437.732 171.818C437.741 171.482 437.755 171.169 437.774 170.88C437.68 170.973 437.564 171.085 437.424 171.216C437.293 171.347 437.148 171.473 436.99 171.594L435.87 172.49L434.988 171.398L438.012 169.004H439.482V179ZM442.622 174.744C442.622 174.165 442.659 173.596 442.734 173.036C442.818 172.476 442.962 171.949 443.168 171.454C443.373 170.95 443.658 170.507 444.022 170.124C444.386 169.732 444.848 169.429 445.408 169.214C445.977 168.99 446.663 168.878 447.466 168.878C447.662 168.878 447.886 168.887 448.138 168.906C448.39 168.925 448.6 168.953 448.768 168.99V170.446C448.404 170.343 448.002 170.292 447.564 170.292C446.724 170.292 446.07 170.446 445.604 170.754C445.137 171.053 444.81 171.468 444.624 172C444.437 172.523 444.325 173.111 444.288 173.764H444.372C444.568 173.437 444.848 173.162 445.212 172.938C445.576 172.705 446.047 172.588 446.626 172.588C447.494 172.588 448.189 172.859 448.712 173.4C449.234 173.941 449.496 174.711 449.496 175.71C449.496 176.783 449.197 177.623 448.6 178.23C448.002 178.837 447.195 179.14 446.178 179.14C445.515 179.14 444.913 178.981 444.372 178.664C443.84 178.347 443.415 177.866 443.098 177.222C442.78 176.569 442.622 175.743 442.622 174.744ZM446.15 177.698C446.626 177.698 447.013 177.539 447.312 177.222C447.61 176.895 447.76 176.396 447.76 175.724C447.76 175.183 447.629 174.758 447.368 174.45C447.106 174.133 446.714 173.974 446.192 173.974C445.828 173.974 445.51 174.053 445.24 174.212C444.978 174.361 444.773 174.557 444.624 174.8C444.474 175.033 444.4 175.276 444.4 175.528C444.4 175.873 444.465 176.214 444.596 176.55C444.726 176.877 444.918 177.152 445.17 177.376C445.431 177.591 445.758 177.698 446.15 177.698ZM458.792 171.272C459.679 171.272 460.393 171.603 460.934 172.266C461.475 172.919 461.746 173.895 461.746 175.192C461.746 176.489 461.466 177.474 460.906 178.146C460.355 178.809 459.637 179.14 458.75 179.14C458.19 179.14 457.737 179.037 457.392 178.832C457.047 178.627 456.771 178.389 456.566 178.118H456.454C456.482 178.295 456.505 178.487 456.524 178.692C456.552 178.897 456.566 179.093 456.566 179.28V182.36H454.802V171.412H456.23L456.482 172.42H456.566C456.781 172.103 457.061 171.832 457.406 171.608C457.751 171.384 458.213 171.272 458.792 171.272ZM458.288 172.7C457.663 172.7 457.219 172.887 456.958 173.26C456.706 173.633 456.575 174.198 456.566 174.954V175.178C456.566 175.99 456.687 176.615 456.93 177.054C457.182 177.483 457.644 177.698 458.316 177.698C458.867 177.698 459.273 177.474 459.534 177.026C459.805 176.569 459.94 175.948 459.94 175.164C459.94 174.38 459.805 173.773 459.534 173.344C459.273 172.915 458.857 172.7 458.288 172.7ZM464.93 175.122L462.424 171.412H464.426L466.078 173.988L467.73 171.412H469.732L467.198 175.122L469.858 179H467.856L466.078 176.242L464.3 179H462.298L464.93 175.122Z" fill="#D51588"/>
<path d="M452 138V162" stroke="#D51588"/>
<rect opacity="0.12" x="444" y="2" width="16" height="136" fill="#D51588"/>
<path d="M178.482 214H176.718V207.77C176.718 207.471 176.722 207.154 176.732 206.818C176.741 206.482 176.755 206.169 176.774 205.88C176.68 205.973 176.564 206.085 176.424 206.216C176.293 206.347 176.148 206.473 175.99 206.594L174.87 207.49L173.988 206.398L177.012 204.004H178.482V214ZM181.622 209.744C181.622 209.165 181.659 208.596 181.734 208.036C181.818 207.476 181.962 206.949 182.168 206.454C182.373 205.95 182.658 205.507 183.022 205.124C183.386 204.732 183.848 204.429 184.408 204.214C184.977 203.99 185.663 203.878 186.466 203.878C186.662 203.878 186.886 203.887 187.138 203.906C187.39 203.925 187.6 203.953 187.768 203.99V205.446C187.404 205.343 187.002 205.292 186.564 205.292C185.724 205.292 185.07 205.446 184.604 205.754C184.137 206.053 183.81 206.468 183.624 207C183.437 207.523 183.325 208.111 183.288 208.764H183.372C183.568 208.437 183.848 208.162 184.212 207.938C184.576 207.705 185.047 207.588 185.626 207.588C186.494 207.588 187.189 207.859 187.712 208.4C188.234 208.941 188.496 209.711 188.496 210.71C188.496 211.783 188.197 212.623 187.6 213.23C187.002 213.837 186.195 214.14 185.178 214.14C184.515 214.14 183.913 213.981 183.372 213.664C182.84 213.347 182.415 212.866 182.098 212.222C181.78 211.569 181.622 210.743 181.622 209.744ZM185.15 212.698C185.626 212.698 186.013 212.539 186.312 212.222C186.61 211.895 186.76 211.396 186.76 210.724C186.76 210.183 186.629 209.758 186.368 209.45C186.106 209.133 185.714 208.974 185.192 208.974C184.828 208.974 184.51 209.053 184.24 209.212C183.978 209.361 183.773 209.557 183.624 209.8C183.474 210.033 183.4 210.276 183.4 210.528C183.4 210.873 183.465 211.214 183.596 211.55C183.726 211.877 183.918 212.152 184.17 212.376C184.431 212.591 184.758 212.698 185.15 212.698ZM197.792 206.272C198.679 206.272 199.393 206.603 199.934 207.266C200.475 207.919 200.746 208.895 200.746 210.192C200.746 211.489 200.466 212.474 199.906 213.146C199.355 213.809 198.637 214.14 197.75 214.14C197.19 214.14 196.737 214.037 196.392 213.832C196.047 213.627 195.771 213.389 195.566 213.118H195.454C195.482 213.295 195.505 213.487 195.524 213.692C195.552 213.897 195.566 214.093 195.566 214.28V217.36H193.802V206.412H195.23L195.482 207.42H195.566C195.781 207.103 196.061 206.832 196.406 206.608C196.751 206.384 197.213 206.272 197.792 206.272ZM197.288 207.7C196.663 207.7 196.219 207.887 195.958 208.26C195.706 208.633 195.575 209.198 195.566 209.954V210.178C195.566 210.99 195.687 211.615 195.93 212.054C196.182 212.483 196.644 212.698 197.316 212.698C197.867 212.698 198.273 212.474 198.534 212.026C198.805 211.569 198.94 210.948 198.94 210.164C198.94 209.38 198.805 208.773 198.534 208.344C198.273 207.915 197.857 207.7 197.288 207.7ZM203.93 210.122L201.424 206.412H203.426L205.078 208.988L206.73 206.412H208.732L206.198 210.122L208.858 214H206.856L205.078 211.242L203.3 214H201.298L203.93 210.122Z" fill="#D51588"/>
<path d="M191 173V197" stroke="#D51588"/>
<rect opacity="0.12" x="183" y="136" width="16" height="37" fill="#D51588"/>
<path d="M132.028 8.632C132.028 10.08 131.632 11.172 130.84 11.908C130.056 12.636 128.96 13 127.552 13H125.164V4.432H127.804C128.66 4.432 129.404 4.592 130.036 4.912C130.676 5.232 131.168 5.704 131.512 6.328C131.856 6.952 132.028 7.72 132.028 8.632ZM130.888 8.668C130.888 7.524 130.604 6.688 130.036 6.16C129.476 5.624 128.68 5.356 127.648 5.356H126.244V12.076H127.408C129.728 12.076 130.888 10.94 130.888 8.668ZM136.222 6.46C137.006 6.46 137.586 6.632 137.962 6.976C138.338 7.32 138.526 7.868 138.526 8.62V13H137.758L137.554 12.088H137.506C137.226 12.44 136.93 12.7 136.618 12.868C136.306 13.036 135.882 13.12 135.346 13.12C134.762 13.12 134.278 12.968 133.894 12.664C133.51 12.352 133.318 11.868 133.318 11.212C133.318 10.572 133.57 10.08 134.074 9.736C134.578 9.384 135.354 9.192 136.402 9.16L137.494 9.124V8.74C137.494 8.204 137.378 7.832 137.146 7.624C136.914 7.416 136.586 7.312 136.162 7.312C135.826 7.312 135.506 7.364 135.202 7.468C134.898 7.564 134.614 7.676 134.35 7.804L134.026 7.012C134.306 6.86 134.638 6.732 135.022 6.628C135.406 6.516 135.806 6.46 136.222 6.46ZM137.482 9.856L136.534 9.892C135.734 9.924 135.178 10.052 134.866 10.276C134.562 10.5 134.41 10.816 134.41 11.224C134.41 11.584 134.518 11.848 134.734 12.016C134.958 12.184 135.242 12.268 135.586 12.268C136.122 12.268 136.57 12.12 136.93 11.824C137.298 11.52 137.482 11.056 137.482 10.432V9.856ZM142.66 12.256C142.82 12.256 142.984 12.244 143.152 12.22C143.32 12.196 143.456 12.164 143.56 12.124V12.928C143.448 12.984 143.288 13.028 143.08 13.06C142.872 13.1 142.672 13.12 142.48 13.12C142.144 13.12 141.832 13.064 141.544 12.952C141.264 12.832 141.036 12.628 140.86 12.34C140.684 12.052 140.596 11.648 140.596 11.128V7.384H139.684V6.88L140.608 6.46L141.028 5.092H141.652V6.568H143.512V7.384H141.652V11.104C141.652 11.496 141.744 11.788 141.928 11.98C142.12 12.164 142.364 12.256 142.66 12.256ZM147.284 6.46C148.068 6.46 148.648 6.632 149.024 6.976C149.4 7.32 149.588 7.868 149.588 8.62V13H148.82L148.616 12.088H148.568C148.288 12.44 147.992 12.7 147.68 12.868C147.368 13.036 146.944 13.12 146.408 13.12C145.824 13.12 145.34 12.968 144.956 12.664C144.572 12.352 144.38 11.868 144.38 11.212C144.38 10.572 144.632 10.08 145.136 9.736C145.64 9.384 146.416 9.192 147.464 9.16L148.556 9.124V8.74C148.556 8.204 148.44 7.832 148.208 7.624C147.976 7.416 147.648 7.312 147.224 7.312C146.888 7.312 146.568 7.364 146.264 7.468C145.96 7.564 145.676 7.676 145.412 7.804L145.088 7.012C145.368 6.86 145.7 6.732 146.084 6.628C146.468 6.516 146.868 6.46 147.284 6.46ZM148.544 9.856L147.596 9.892C146.796 9.924 146.24 10.052 145.928 10.276C145.624 10.5 145.472 10.816 145.472 11.224C145.472 11.584 145.58 11.848 145.796 12.016C146.02 12.184 146.304 12.268 146.648 12.268C147.184 12.268 147.632 12.12 147.992 11.824C148.36 11.52 148.544 11.056 148.544 10.432V9.856ZM152.631 3.88V6.1C152.631 6.372 152.623 6.628 152.607 6.868C152.599 7.1 152.587 7.284 152.571 7.42H152.631C152.815 7.148 153.067 6.92 153.387 6.736C153.707 6.552 154.119 6.46 154.623 6.46C155.423 6.46 156.063 6.74 156.543 7.3C157.031 7.852 157.275 8.68 157.275 9.784C157.275 10.888 157.031 11.72 156.543 12.28C156.055 12.84 155.415 13.12 154.623 13.12C154.119 13.12 153.707 13.028 153.387 12.844C153.067 12.66 152.815 12.44 152.631 12.184H152.547L152.331 13H151.575V3.88H152.631ZM154.443 7.336C153.755 7.336 153.279 7.532 153.015 7.924C152.759 8.316 152.631 8.924 152.631 9.748V9.796C152.631 10.588 152.759 11.196 153.015 11.62C153.279 12.036 153.763 12.244 154.467 12.244C155.043 12.244 155.471 12.032 155.751 11.608C156.039 11.184 156.183 10.572 156.183 9.772C156.183 8.148 155.603 7.336 154.443 7.336ZM161.394 6.46C162.178 6.46 162.758 6.632 163.134 6.976C163.51 7.32 163.698 7.868 163.698 8.62V13H162.93L162.726 12.088H162.678C162.398 12.44 162.102 12.7 161.79 12.868C161.478 13.036 161.054 13.12 160.518 13.12C159.934 13.12 159.45 12.968 159.066 12.664C158.682 12.352 158.49 11.868 158.49 11.212C158.49 10.572 158.742 10.08 159.246 9.736C159.75 9.384 160.526 9.192 161.574 9.16L162.666 9.124V8.74C162.666 8.204 162.55 7.832 162.318 7.624C162.086 7.416 161.758 7.312 161.334 7.312C160.998 7.312 160.678 7.364 160.374 7.468C160.07 7.564 159.786 7.676 159.521 7.804L159.198 7.012C159.478 6.86 159.81 6.732 160.194 6.628C160.578 6.516 160.978 6.46 161.394 6.46ZM162.654 9.856L161.706 9.892C160.906 9.924 160.35 10.052 160.038 10.276C159.734 10.5 159.582 10.816 159.582 11.224C159.582 11.584 159.69 11.848 159.906 12.016C160.13 12.184 160.414 12.268 160.758 12.268C161.294 12.268 161.742 12.12 162.102 11.824C162.47 11.52 162.654 11.056 162.654 10.432V9.856ZM169.872 11.224C169.872 11.848 169.64 12.32 169.176 12.64C168.712 12.96 168.088 13.12 167.304 13.12C166.856 13.12 166.468 13.084 166.14 13.012C165.82 12.94 165.536 12.84 165.288 12.712V11.752C165.544 11.88 165.852 12 166.212 12.112C166.58 12.216 166.952 12.268 167.328 12.268C167.864 12.268 168.252 12.184 168.492 12.016C168.732 11.84 168.852 11.608 168.852 11.32C168.852 11.16 168.808 11.016 168.72 10.888C168.632 10.76 168.472 10.632 168.24 10.504C168.016 10.376 167.692 10.232 167.268 10.072C166.852 9.912 166.496 9.752 166.2 9.592C165.904 9.432 165.676 9.24 165.516 9.016C165.356 8.792 165.276 8.504 165.276 8.152C165.276 7.608 165.496 7.188 165.936 6.892C166.384 6.596 166.968 6.448 167.688 6.448C168.08 6.448 168.444 6.488 168.78 6.568C169.124 6.648 169.444 6.752 169.74 6.88L169.38 7.72C169.108 7.608 168.824 7.512 168.528 7.432C168.232 7.352 167.928 7.312 167.616 7.312C167.184 7.312 166.852 7.384 166.62 7.528C166.396 7.664 166.284 7.852 166.284 8.092C166.284 8.276 166.336 8.428 166.44 8.548C166.544 8.668 166.716 8.788 166.956 8.908C167.204 9.028 167.532 9.164 167.94 9.316C168.348 9.468 168.696 9.624 168.984 9.784C169.272 9.944 169.492 10.14 169.644 10.372C169.796 10.596 169.872 10.88 169.872 11.224ZM173.91 6.448C174.454 6.448 174.926 6.568 175.326 6.808C175.726 7.048 176.03 7.388 176.238 7.828C176.454 8.26 176.562 8.768 176.562 9.352V9.988H172.158C172.174 10.716 172.358 11.272 172.71 11.656C173.07 12.032 173.57 12.22 174.21 12.22C174.618 12.22 174.978 12.184 175.29 12.112C175.61 12.032 175.938 11.92 176.274 11.776V12.7C175.946 12.844 175.622 12.948 175.302 13.012C174.982 13.084 174.602 13.12 174.162 13.12C173.546 13.12 173.006 12.996 172.542 12.748C172.078 12.5 171.714 12.132 171.45 11.644C171.194 11.156 171.066 10.552 171.066 9.832C171.066 9.128 171.182 8.524 171.414 8.02C171.654 7.516 171.986 7.128 172.41 6.856C172.842 6.584 173.342 6.448 173.91 6.448ZM173.898 7.312C173.394 7.312 172.994 7.476 172.698 7.804C172.41 8.124 172.238 8.572 172.182 9.148H175.458C175.45 8.604 175.322 8.164 175.074 7.828C174.826 7.484 174.434 7.312 173.898 7.312ZM188.013 13H186.933V9.004H182.541V13H181.461V4.432H182.541V8.056H186.933V4.432H188.013V13ZM195.803 9.772C195.803 10.836 195.531 11.66 194.987 12.244C194.451 12.828 193.723 13.12 192.803 13.12C192.235 13.12 191.727 12.992 191.279 12.736C190.839 12.472 190.491 12.092 190.235 11.596C189.979 11.092 189.851 10.484 189.851 9.772C189.851 8.708 190.115 7.888 190.643 7.312C191.179 6.736 191.911 6.448 192.839 6.448C193.415 6.448 193.927 6.58 194.375 6.844C194.823 7.1 195.171 7.476 195.419 7.972C195.675 8.46 195.803 9.06 195.803 9.772ZM190.943 9.772C190.943 10.532 191.091 11.136 191.387 11.584C191.691 12.024 192.171 12.244 192.827 12.244C193.475 12.244 193.951 12.024 194.255 11.584C194.559 11.136 194.711 10.532 194.711 9.772C194.711 9.012 194.559 8.416 194.255 7.984C193.951 7.552 193.471 7.336 192.815 7.336C192.159 7.336 191.683 7.552 191.387 7.984C191.091 8.416 190.943 9.012 190.943 9.772ZM201.665 11.224C201.665 11.848 201.433 12.32 200.969 12.64C200.505 12.96 199.881 13.12 199.097 13.12C198.649 13.12 198.261 13.084 197.933 13.012C197.613 12.94 197.329 12.84 197.081 12.712V11.752C197.337 11.88 197.645 12 198.005 12.112C198.373 12.216 198.745 12.268 199.121 12.268C199.657 12.268 200.045 12.184 200.285 12.016C200.525 11.84 200.645 11.608 200.645 11.32C200.645 11.16 200.601 11.016 200.513 10.888C200.425 10.76 200.265 10.632 200.033 10.504C199.809 10.376 199.485 10.232 199.061 10.072C198.645 9.912 198.289 9.752 197.993 9.592C197.697 9.432 197.469 9.24 197.309 9.016C197.149 8.792 197.069 8.504 197.069 8.152C197.069 7.608 197.289 7.188 197.729 6.892C198.177 6.596 198.761 6.448 199.481 6.448C199.873 6.448 200.237 6.488 200.573 6.568C200.917 6.648 201.237 6.752 201.533 6.88L201.173 7.72C200.901 7.608 200.617 7.512 200.321 7.432C200.025 7.352 199.721 7.312 199.409 7.312C198.977 7.312 198.645 7.384 198.413 7.528C198.189 7.664 198.077 7.852 198.077 8.092C198.077 8.276 198.129 8.428 198.233 8.548C198.337 8.668 198.509 8.788 198.749 8.908C198.997 9.028 199.325 9.164 199.733 9.316C200.141 9.468 200.489 9.624 200.777 9.784C201.065 9.944 201.285 10.14 201.437 10.372C201.589 10.596 201.665 10.88 201.665 11.224ZM205.367 12.256C205.527 12.256 205.691 12.244 205.859 12.22C206.027 12.196 206.163 12.164 206.267 12.124V12.928C206.155 12.984 205.995 13.028 205.787 13.06C205.579 13.1 205.379 13.12 205.187 13.12C204.851 13.12 204.539 13.064 204.251 12.952C203.971 12.832 203.743 12.628 203.567 12.34C203.391 12.052 203.303 11.648 203.303 11.128V7.384H202.391V6.88L203.315 6.46L203.735 5.092H204.359V6.568H206.219V7.384H204.359V11.104C204.359 11.496 204.451 11.788 204.635 11.98C204.827 12.164 205.071 12.256 205.367 12.256ZM210.651 6.448C211.419 6.448 211.999 6.636 212.391 7.012C212.783 7.388 212.979 7.988 212.979 8.812V13H211.935V8.884C211.935 7.852 211.455 7.336 210.495 7.336C209.783 7.336 209.291 7.536 209.019 7.936C208.747 8.336 208.611 8.912 208.611 9.664V13H207.555V6.568H208.407L208.563 7.444H208.623C208.831 7.108 209.119 6.86 209.487 6.7C209.855 6.532 210.243 6.448 210.651 6.448ZM217.409 6.46C218.193 6.46 218.773 6.632 219.149 6.976C219.525 7.32 219.713 7.868 219.713 8.62V13H218.945L218.741 12.088H218.693C218.413 12.44 218.117 12.7 217.805 12.868C217.493 13.036 217.069 13.12 216.533 13.12C215.949 13.12 215.465 12.968 215.081 12.664C214.697 12.352 214.505 11.868 214.505 11.212C214.505 10.572 214.757 10.08 215.261 9.736C215.765 9.384 216.541 9.192 217.589 9.16L218.681 9.124V8.74C218.681 8.204 218.565 7.832 218.333 7.624C218.101 7.416 217.773 7.312 217.349 7.312C217.013 7.312 216.693 7.364 216.389 7.468C216.085 7.564 215.801 7.676 215.537 7.804L215.213 7.012C215.493 6.86 215.825 6.732 216.209 6.628C216.593 6.516 216.993 6.46 217.409 6.46ZM218.669 9.856L217.721 9.892C216.921 9.924 216.365 10.052 216.053 10.276C215.749 10.5 215.597 10.816 215.597 11.224C215.597 11.584 215.705 11.848 215.921 12.016C216.145 12.184 216.429 12.268 216.773 12.268C217.309 12.268 217.757 12.12 218.117 11.824C218.485 11.52 218.669 11.056 218.669 10.432V9.856ZM228.756 6.448C229.484 6.448 230.028 6.636 230.388 7.012C230.748 7.388 230.928 7.988 230.928 8.812V13H229.884V8.86C229.884 7.844 229.448 7.336 228.576 7.336C227.952 7.336 227.504 7.516 227.232 7.876C226.968 8.236 226.836 8.76 226.836 9.448V13H225.792V8.86C225.792 7.844 225.352 7.336 224.472 7.336C223.824 7.336 223.376 7.536 223.128 7.936C222.88 8.336 222.756 8.912 222.756 9.664V13H221.7V6.568H222.552L222.708 7.444H222.768C222.968 7.108 223.236 6.86 223.572 6.7C223.916 6.532 224.28 6.448 224.664 6.448C225.672 6.448 226.328 6.808 226.632 7.528H226.692C226.908 7.16 227.2 6.888 227.568 6.712C227.936 6.536 228.332 6.448 228.756 6.448ZM235.399 6.448C235.943 6.448 236.415 6.568 236.815 6.808C237.215 7.048 237.519 7.388 237.727 7.828C237.943 8.26 238.051 8.768 238.051 9.352V9.988H233.647C233.663 10.716 233.847 11.272 234.199 11.656C234.559 12.032 235.059 12.22 235.699 12.22C236.107 12.22 236.467 12.184 236.779 12.112C237.099 12.032 237.427 11.92 237.763 11.776V12.7C237.435 12.844 237.111 12.948 236.791 13.012C236.471 13.084 236.091 13.12 235.651 13.12C235.035 13.12 234.495 12.996 234.031 12.748C233.567 12.5 233.203 12.132 232.939 11.644C232.683 11.156 232.555 10.552 232.555 9.832C232.555 9.128 232.671 8.524 232.903 8.02C233.143 7.516 233.475 7.128 233.899 6.856C234.331 6.584 234.831 6.448 235.399 6.448ZM235.387 7.312C234.883 7.312 234.483 7.476 234.187 7.804C233.899 8.124 233.727 8.572 233.671 9.148H236.947C236.939 8.604 236.811 8.164 236.563 7.828C236.315 7.484 235.923 7.312 235.387 7.312Z" fill="#323232"/>
<rect x="124.5" y="20.5" width="319" height="35" rx="1.5" fill="white"/>
<rect x="124.5" y="20.5" width="319" height="35" rx="1.5" stroke="#939393"/>
<path d="M463.432 4.432C464.552 4.432 465.368 4.652 465.88 5.092C466.392 5.532 466.648 6.152 466.648 6.952C466.648 7.424 466.54 7.868 466.324 8.284C466.116 8.692 465.76 9.024 465.256 9.28C464.76 9.536 464.084 9.664 463.228 9.664H462.244V13H461.164V4.432H463.432ZM463.336 5.356H462.244V8.74H463.108C463.924 8.74 464.532 8.608 464.932 8.344C465.332 8.08 465.532 7.632 465.532 7C465.532 6.448 465.352 6.036 464.992 5.764C464.64 5.492 464.088 5.356 463.336 5.356ZM473.878 9.772C473.878 10.836 473.606 11.66 473.062 12.244C472.526 12.828 471.798 13.12 470.878 13.12C470.31 13.12 469.802 12.992 469.354 12.736C468.914 12.472 468.566 12.092 468.31 11.596C468.054 11.092 467.926 10.484 467.926 9.772C467.926 8.708 468.19 7.888 468.718 7.312C469.254 6.736 469.986 6.448 470.914 6.448C471.49 6.448 472.002 6.58 472.45 6.844C472.898 7.1 473.246 7.476 473.494 7.972C473.75 8.46 473.878 9.06 473.878 9.772ZM469.018 9.772C469.018 10.532 469.166 11.136 469.462 11.584C469.766 12.024 470.246 12.244 470.902 12.244C471.55 12.244 472.026 12.024 472.33 11.584C472.634 11.136 472.786 10.532 472.786 9.772C472.786 9.012 472.634 8.416 472.33 7.984C472.026 7.552 471.546 7.336 470.89 7.336C470.234 7.336 469.758 7.552 469.462 7.984C469.166 8.416 469.018 9.012 469.018 9.772ZM478.551 6.448C478.671 6.448 478.799 6.456 478.935 6.472C479.071 6.48 479.195 6.496 479.307 6.52L479.175 7.492C479.071 7.468 478.955 7.448 478.827 7.432C478.699 7.416 478.583 7.408 478.479 7.408C478.151 7.408 477.843 7.5 477.555 7.684C477.267 7.86 477.035 8.112 476.859 8.44C476.691 8.76 476.607 9.136 476.607 9.568V13H475.551V6.568H476.415L476.535 7.744H476.583C476.783 7.392 477.047 7.088 477.375 6.832C477.711 6.576 478.103 6.448 478.551 6.448ZM482.656 12.256C482.816 12.256 482.98 12.244 483.148 12.22C483.316 12.196 483.452 12.164 483.556 12.124V12.928C483.444 12.984 483.284 13.028 483.076 13.06C482.868 13.1 482.668 13.12 482.476 13.12C482.14 13.12 481.828 13.064 481.54 12.952C481.26 12.832 481.032 12.628 480.856 12.34C480.68 12.052 480.592 11.648 480.592 11.128V7.384H479.68V6.88L480.604 6.46L481.024 5.092H481.648V6.568H483.508V7.384H481.648V11.104C481.648 11.496 481.74 11.788 481.924 11.98C482.116 12.164 482.36 12.256 482.656 12.256Z" fill="#323232"/>
<rect x="460.5" y="20.5" width="319" height="35" rx="1.5" fill="white"/>
<rect x="460.5" y="20.5" width="319" height="35" rx="1.5" stroke="#939393"/>
<path d="M132.028 80.632C132.028 82.08 131.632 83.172 130.84 83.908C130.056 84.636 128.96 85 127.552 85H125.164V76.432H127.804C128.66 76.432 129.404 76.592 130.036 76.912C130.676 77.232 131.168 77.704 131.512 78.328C131.856 78.952 132.028 79.72 132.028 80.632ZM130.888 80.668C130.888 79.524 130.604 78.688 130.036 78.16C129.476 77.624 128.68 77.356 127.648 77.356H126.244V84.076H127.408C129.728 84.076 130.888 82.94 130.888 80.668ZM136.222 78.46C137.006 78.46 137.586 78.632 137.962 78.976C138.338 79.32 138.526 79.868 138.526 80.62V85H137.758L137.554 84.088H137.506C137.226 84.44 136.93 84.7 136.618 84.868C136.306 85.036 135.882 85.12 135.346 85.12C134.762 85.12 134.278 84.968 133.894 84.664C133.51 84.352 133.318 83.868 133.318 83.212C133.318 82.572 133.57 82.08 134.074 81.736C134.578 81.384 135.354 81.192 136.402 81.16L137.494 81.124V80.74C137.494 80.204 137.378 79.832 137.146 79.624C136.914 79.416 136.586 79.312 136.162 79.312C135.826 79.312 135.506 79.364 135.202 79.468C134.898 79.564 134.614 79.676 134.35 79.804L134.026 79.012C134.306 78.86 134.638 78.732 135.022 78.628C135.406 78.516 135.806 78.46 136.222 78.46ZM137.482 81.856L136.534 81.892C135.734 81.924 135.178 82.052 134.866 82.276C134.562 82.5 134.41 82.816 134.41 83.224C134.41 83.584 134.518 83.848 134.734 84.016C134.958 84.184 135.242 84.268 135.586 84.268C136.122 84.268 136.57 84.12 136.93 83.824C137.298 83.52 137.482 83.056 137.482 82.432V81.856ZM142.66 84.256C142.82 84.256 142.984 84.244 143.152 84.22C143.32 84.196 143.456 84.164 143.56 84.124V84.928C143.448 84.984 143.288 85.028 143.08 85.06C142.872 85.1 142.672 85.12 142.48 85.12C142.144 85.12 141.832 85.064 141.544 84.952C141.264 84.832 141.036 84.628 140.86 84.34C140.684 84.052 140.596 83.648 140.596 83.128V79.384H139.684V78.88L140.608 78.46L141.028 77.092H141.652V78.568H143.512V79.384H141.652V83.104C141.652 83.496 141.744 83.788 141.928 83.98C142.12 84.164 142.364 84.256 142.66 84.256ZM147.284 78.46C148.068 78.46 148.648 78.632 149.024 78.976C149.4 79.32 149.588 79.868 149.588 80.62V85H148.82L148.616 84.088H148.568C148.288 84.44 147.992 84.7 147.68 84.868C147.368 85.036 146.944 85.12 146.408 85.12C145.824 85.12 145.34 84.968 144.956 84.664C144.572 84.352 144.38 83.868 144.38 83.212C144.38 82.572 144.632 82.08 145.136 81.736C145.64 81.384 146.416 81.192 147.464 81.16L148.556 81.124V80.74C148.556 80.204 148.44 79.832 148.208 79.624C147.976 79.416 147.648 79.312 147.224 79.312C146.888 79.312 146.568 79.364 146.264 79.468C145.96 79.564 145.676 79.676 145.412 79.804L145.088 79.012C145.368 78.86 145.7 78.732 146.084 78.628C146.468 78.516 146.868 78.46 147.284 78.46ZM148.544 81.856L147.596 81.892C146.796 81.924 146.24 82.052 145.928 82.276C145.624 82.5 145.472 82.816 145.472 83.224C145.472 83.584 145.58 83.848 145.796 84.016C146.02 84.184 146.304 84.268 146.648 84.268C147.184 84.268 147.632 84.12 147.992 83.824C148.36 83.52 148.544 83.056 148.544 82.432V81.856ZM152.631 75.88V78.1C152.631 78.372 152.623 78.628 152.607 78.868C152.599 79.1 152.587 79.284 152.571 79.42H152.631C152.815 79.148 153.067 78.92 153.387 78.736C153.707 78.552 154.119 78.46 154.623 78.46C155.423 78.46 156.063 78.74 156.543 79.3C157.031 79.852 157.275 80.68 157.275 81.784C157.275 82.888 157.031 83.72 156.543 84.28C156.055 84.84 155.415 85.12 154.623 85.12C154.119 85.12 153.707 85.028 153.387 84.844C153.067 84.66 152.815 84.44 152.631 84.184H152.547L152.331 85H151.575V75.88H152.631ZM154.443 79.336C153.755 79.336 153.279 79.532 153.015 79.924C152.759 80.316 152.631 80.924 152.631 81.748V81.796C152.631 82.588 152.759 83.196 153.015 83.62C153.279 84.036 153.763 84.244 154.467 84.244C155.043 84.244 155.471 84.032 155.751 83.608C156.039 83.184 156.183 82.572 156.183 81.772C156.183 80.148 155.603 79.336 154.443 79.336ZM161.394 78.46C162.178 78.46 162.758 78.632 163.134 78.976C163.51 79.32 163.698 79.868 163.698 80.62V85H162.93L162.726 84.088H162.678C162.398 84.44 162.102 84.7 161.79 84.868C161.478 85.036 161.054 85.12 160.518 85.12C159.934 85.12 159.45 84.968 159.066 84.664C158.682 84.352 158.49 83.868 158.49 83.212C158.49 82.572 158.742 82.08 159.246 81.736C159.75 81.384 160.526 81.192 161.574 81.16L162.666 81.124V80.74C162.666 80.204 162.55 79.832 162.318 79.624C162.086 79.416 161.758 79.312 161.334 79.312C160.998 79.312 160.678 79.364 160.374 79.468C160.07 79.564 159.786 79.676 159.521 79.804L159.198 79.012C159.478 78.86 159.81 78.732 160.194 78.628C160.578 78.516 160.978 78.46 161.394 78.46ZM162.654 81.856L161.706 81.892C160.906 81.924 160.35 82.052 160.038 82.276C159.734 82.5 159.582 82.816 159.582 83.224C159.582 83.584 159.69 83.848 159.906 84.016C160.13 84.184 160.414 84.268 160.758 84.268C161.294 84.268 161.742 84.12 162.102 83.824C162.47 83.52 162.654 83.056 162.654 82.432V81.856ZM169.872 83.224C169.872 83.848 169.64 84.32 169.176 84.64C168.712 84.96 168.088 85.12 167.304 85.12C166.856 85.12 166.468 85.084 166.14 85.012C165.82 84.94 165.536 84.84 165.288 84.712V83.752C165.544 83.88 165.852 84 166.212 84.112C166.58 84.216 166.952 84.268 167.328 84.268C167.864 84.268 168.252 84.184 168.492 84.016C168.732 83.84 168.852 83.608 168.852 83.32C168.852 83.16 168.808 83.016 168.72 82.888C168.632 82.76 168.472 82.632 168.24 82.504C168.016 82.376 167.692 82.232 167.268 82.072C166.852 81.912 166.496 81.752 166.2 81.592C165.904 81.432 165.676 81.24 165.516 81.016C165.356 80.792 165.276 80.504 165.276 80.152C165.276 79.608 165.496 79.188 165.936 78.892C166.384 78.596 166.968 78.448 167.688 78.448C168.08 78.448 168.444 78.488 168.78 78.568C169.124 78.648 169.444 78.752 169.74 78.88L169.38 79.72C169.108 79.608 168.824 79.512 168.528 79.432C168.232 79.352 167.928 79.312 167.616 79.312C167.184 79.312 166.852 79.384 166.62 79.528C166.396 79.664 166.284 79.852 166.284 80.092C166.284 80.276 166.336 80.428 166.44 80.548C166.544 80.668 166.716 80.788 166.956 80.908C167.204 81.028 167.532 81.164 167.94 81.316C168.348 81.468 168.696 81.624 168.984 81.784C169.272 81.944 169.492 82.14 169.644 82.372C169.796 82.596 169.872 82.88 169.872 83.224ZM173.91 78.448C174.454 78.448 174.926 78.568 175.326 78.808C175.726 79.048 176.03 79.388 176.238 79.828C176.454 80.26 176.562 80.768 176.562 81.352V81.988H172.158C172.174 82.716 172.358 83.272 172.71 83.656C173.07 84.032 173.57 84.22 174.21 84.22C174.618 84.22 174.978 84.184 175.29 84.112C175.61 84.032 175.938 83.92 176.274 83.776V84.7C175.946 84.844 175.622 84.948 175.302 85.012C174.982 85.084 174.602 85.12 174.162 85.12C173.546 85.12 173.006 84.996 172.542 84.748C172.078 84.5 171.714 84.132 171.45 83.644C171.194 83.156 171.066 82.552 171.066 81.832C171.066 81.128 171.182 80.524 171.414 80.02C171.654 79.516 171.986 79.128 172.41 78.856C172.842 78.584 173.342 78.448 173.91 78.448ZM173.898 79.312C173.394 79.312 172.994 79.476 172.698 79.804C172.41 80.124 172.238 80.572 172.182 81.148H175.458C175.45 80.604 175.322 80.164 175.074 79.828C174.826 79.484 174.434 79.312 173.898 79.312ZM187.977 76.432V81.976C187.977 82.568 187.857 83.104 187.617 83.584C187.377 84.056 187.009 84.432 186.513 84.712C186.017 84.984 185.393 85.12 184.641 85.12C183.569 85.12 182.757 84.832 182.205 84.256C181.653 83.672 181.377 82.904 181.377 81.952V76.432H182.457V81.988C182.457 82.684 182.641 83.224 183.009 83.608C183.385 83.992 183.949 84.184 184.701 84.184C185.477 84.184 186.037 83.98 186.381 83.572C186.733 83.156 186.909 82.624 186.909 81.976V76.432H187.977ZM194.282 83.224C194.282 83.848 194.05 84.32 193.586 84.64C193.122 84.96 192.498 85.12 191.714 85.12C191.266 85.12 190.878 85.084 190.55 85.012C190.23 84.94 189.946 84.84 189.698 84.712V83.752C189.954 83.88 190.262 84 190.622 84.112C190.99 84.216 191.362 84.268 191.738 84.268C192.274 84.268 192.662 84.184 192.902 84.016C193.142 83.84 193.262 83.608 193.262 83.32C193.262 83.16 193.218 83.016 193.13 82.888C193.042 82.76 192.882 82.632 192.65 82.504C192.426 82.376 192.102 82.232 191.678 82.072C191.262 81.912 190.906 81.752 190.61 81.592C190.314 81.432 190.086 81.24 189.926 81.016C189.766 80.792 189.686 80.504 189.686 80.152C189.686 79.608 189.906 79.188 190.346 78.892C190.794 78.596 191.378 78.448 192.098 78.448C192.49 78.448 192.854 78.488 193.19 78.568C193.534 78.648 193.854 78.752 194.15 78.88L193.79 79.72C193.518 79.608 193.234 79.512 192.938 79.432C192.642 79.352 192.338 79.312 192.026 79.312C191.594 79.312 191.262 79.384 191.03 79.528C190.806 79.664 190.694 79.852 190.694 80.092C190.694 80.276 190.746 80.428 190.85 80.548C190.954 80.668 191.126 80.788 191.366 80.908C191.614 81.028 191.942 81.164 192.35 81.316C192.758 81.468 193.106 81.624 193.394 81.784C193.682 81.944 193.902 82.14 194.054 82.372C194.206 82.596 194.282 82.88 194.282 83.224ZM198.32 78.448C198.864 78.448 199.336 78.568 199.736 78.808C200.136 79.048 200.44 79.388 200.648 79.828C200.864 80.26 200.972 80.768 200.972 81.352V81.988H196.568C196.584 82.716 196.768 83.272 197.12 83.656C197.48 84.032 197.98 84.22 198.62 84.22C199.028 84.22 199.388 84.184 199.7 84.112C200.02 84.032 200.348 83.92 200.684 83.776V84.7C200.356 84.844 200.032 84.948 199.712 85.012C199.392 85.084 199.012 85.12 198.572 85.12C197.956 85.12 197.416 84.996 196.952 84.748C196.488 84.5 196.124 84.132 195.86 83.644C195.604 83.156 195.476 82.552 195.476 81.832C195.476 81.128 195.592 80.524 195.824 80.02C196.064 79.516 196.396 79.128 196.82 78.856C197.252 78.584 197.752 78.448 198.32 78.448ZM198.308 79.312C197.804 79.312 197.404 79.476 197.108 79.804C196.82 80.124 196.648 80.572 196.592 81.148H199.868C199.86 80.604 199.732 80.164 199.484 79.828C199.236 79.484 198.844 79.312 198.308 79.312ZM205.61 78.448C205.73 78.448 205.858 78.456 205.994 78.472C206.13 78.48 206.254 78.496 206.366 78.52L206.234 79.492C206.13 79.468 206.014 79.448 205.886 79.432C205.758 79.416 205.642 79.408 205.538 79.408C205.21 79.408 204.902 79.5 204.614 79.684C204.326 79.86 204.094 80.112 203.918 80.44C203.75 80.76 203.666 81.136 203.666 81.568V85H202.61V78.568H203.474L203.594 79.744H203.642C203.842 79.392 204.106 79.088 204.434 78.832C204.77 78.576 205.162 78.448 205.61 78.448Z" fill="#323232"/>
<rect x="124.5" y="92.5" width="319" height="35" rx="1.5" fill="white"/>
<rect x="124.5" y="92.5" width="319" height="35" rx="1.5" stroke="#939393"/>
<path d="M463.432 76.432C464.552 76.432 465.368 76.652 465.88 77.092C466.392 77.532 466.648 78.152 466.648 78.952C466.648 79.424 466.54 79.868 466.324 80.284C466.116 80.692 465.76 81.024 465.256 81.28C464.76 81.536 464.084 81.664 463.228 81.664H462.244V85H461.164V76.432H463.432ZM463.336 77.356H462.244V80.74H463.108C463.924 80.74 464.532 80.608 464.932 80.344C465.332 80.08 465.532 79.632 465.532 79C465.532 78.448 465.352 78.036 464.992 77.764C464.64 77.492 464.088 77.356 463.336 77.356ZM473.878 81.772C473.878 82.836 473.606 83.66 473.062 84.244C472.526 84.828 471.798 85.12 470.878 85.12C470.31 85.12 469.802 84.992 469.354 84.736C468.914 84.472 468.566 84.092 468.31 83.596C468.054 83.092 467.926 82.484 467.926 81.772C467.926 80.708 468.19 79.888 468.718 79.312C469.254 78.736 469.986 78.448 470.914 78.448C471.49 78.448 472.002 78.58 472.45 78.844C472.898 79.1 473.246 79.476 473.494 79.972C473.75 80.46 473.878 81.06 473.878 81.772ZM469.018 81.772C469.018 82.532 469.166 83.136 469.462 83.584C469.766 84.024 470.246 84.244 470.902 84.244C471.55 84.244 472.026 84.024 472.33 83.584C472.634 83.136 472.786 82.532 472.786 81.772C472.786 81.012 472.634 80.416 472.33 79.984C472.026 79.552 471.546 79.336 470.89 79.336C470.234 79.336 469.758 79.552 469.462 79.984C469.166 80.416 469.018 81.012 469.018 81.772ZM478.551 78.448C478.671 78.448 478.799 78.456 478.935 78.472C479.071 78.48 479.195 78.496 479.307 78.52L479.175 79.492C479.071 79.468 478.955 79.448 478.827 79.432C478.699 79.416 478.583 79.408 478.479 79.408C478.151 79.408 477.843 79.5 477.555 79.684C477.267 79.86 477.035 80.112 476.859 80.44C476.691 80.76 476.607 81.136 476.607 81.568V85H475.551V78.568H476.415L476.535 79.744H476.583C476.783 79.392 477.047 79.088 477.375 78.832C477.711 78.576 478.103 78.448 478.551 78.448ZM482.656 84.256C482.816 84.256 482.98 84.244 483.148 84.22C483.316 84.196 483.452 84.164 483.556 84.124V84.928C483.444 84.984 483.284 85.028 483.076 85.06C482.868 85.1 482.668 85.12 482.476 85.12C482.14 85.12 481.828 85.064 481.54 84.952C481.26 84.832 481.032 84.628 480.856 84.34C480.68 84.052 480.592 83.648 480.592 83.128V79.384H479.68V78.88L480.604 78.46L481.024 77.092H481.648V78.568H483.508V79.384H481.648V83.104C481.648 83.496 481.74 83.788 481.924 83.98C482.116 84.164 482.36 84.256 482.656 84.256Z" fill="#323232"/>
<rect x="460.5" y="92.5" width="319" height="35" rx="1.5" fill="white"/>
<rect x="460.5" y="92.5" width="319" height="35" rx="1.5" stroke="#939393"/>
<rect x="124" y="146" width="16" height="16" rx="4" fill="white"/>
<rect x="124.5" y="146.5" width="15" height="15" rx="3.5" stroke="#1B77AF"/>
<path d="M156.4 149.004L152.83 159H151.57L148 149.004H149.316L151.57 155.416C151.719 155.827 151.841 156.214 151.934 156.578C152.037 156.933 152.125 157.273 152.2 157.6C152.265 157.273 152.349 156.928 152.452 156.564C152.555 156.2 152.681 155.808 152.83 155.388L155.07 149.004H156.4ZM163.835 155.234C163.835 156.475 163.518 157.437 162.883 158.118C162.258 158.799 161.408 159.14 160.335 159.14C159.672 159.14 159.08 158.991 158.557 158.692C158.044 158.384 157.638 157.941 157.339 157.362C157.04 156.774 156.891 156.065 156.891 155.234C156.891 153.993 157.199 153.036 157.815 152.364C158.44 151.692 159.294 151.356 160.377 151.356C161.049 151.356 161.646 151.51 162.169 151.818C162.692 152.117 163.098 152.555 163.387 153.134C163.686 153.703 163.835 154.403 163.835 155.234ZM158.165 155.234C158.165 156.121 158.338 156.825 158.683 157.348C159.038 157.861 159.598 158.118 160.363 158.118C161.119 158.118 161.674 157.861 162.029 157.348C162.384 156.825 162.561 156.121 162.561 155.234C162.561 154.347 162.384 153.652 162.029 153.148C161.674 152.644 161.114 152.392 160.349 152.392C159.584 152.392 159.028 152.644 158.683 153.148C158.338 153.652 158.165 154.347 158.165 155.234ZM166.418 148.682C166.604 148.682 166.768 148.747 166.908 148.878C167.057 148.999 167.132 149.195 167.132 149.466C167.132 149.737 167.057 149.937 166.908 150.068C166.768 150.189 166.604 150.25 166.418 150.25C166.212 150.25 166.04 150.189 165.9 150.068C165.76 149.937 165.69 149.737 165.69 149.466C165.69 149.195 165.76 148.999 165.9 148.878C166.04 148.747 166.212 148.682 166.418 148.682ZM167.02 151.496V159H165.788V151.496H167.02ZM172.407 159.14C171.735 159.14 171.142 159.005 170.629 158.734C170.116 158.463 169.71 158.043 169.411 157.474C169.122 156.905 168.977 156.177 168.977 155.29C168.977 154.366 169.126 153.615 169.425 153.036C169.733 152.457 170.153 152.033 170.685 151.762C171.217 151.491 171.819 151.356 172.491 151.356C172.864 151.356 173.228 151.398 173.583 151.482C173.947 151.557 174.241 151.65 174.465 151.762L174.087 152.784C173.863 152.7 173.602 152.621 173.303 152.546C173.004 152.471 172.724 152.434 172.463 152.434C170.988 152.434 170.251 153.381 170.251 155.276C170.251 156.181 170.428 156.877 170.783 157.362C171.147 157.838 171.684 158.076 172.393 158.076C172.794 158.076 173.154 158.034 173.471 157.95C173.788 157.866 174.078 157.763 174.339 157.642V158.734C174.087 158.865 173.807 158.963 173.499 159.028C173.2 159.103 172.836 159.14 172.407 159.14ZM179.022 151.356C179.656 151.356 180.207 151.496 180.674 151.776C181.14 152.056 181.495 152.453 181.738 152.966C181.99 153.47 182.116 154.063 182.116 154.744V155.486H176.978C176.996 156.335 177.211 156.984 177.622 157.432C178.042 157.871 178.625 158.09 179.372 158.09C179.848 158.09 180.268 158.048 180.632 157.964C181.005 157.871 181.388 157.74 181.78 157.572V158.65C181.397 158.818 181.019 158.939 180.646 159.014C180.272 159.098 179.829 159.14 179.316 159.14C178.597 159.14 177.967 158.995 177.426 158.706C176.884 158.417 176.46 157.987 176.152 157.418C175.853 156.849 175.704 156.144 175.704 155.304C175.704 154.483 175.839 153.778 176.11 153.19C176.39 152.602 176.777 152.149 177.272 151.832C177.776 151.515 178.359 151.356 179.022 151.356ZM179.008 152.364C178.42 152.364 177.953 152.555 177.608 152.938C177.272 153.311 177.071 153.834 177.006 154.506H180.828C180.818 153.871 180.669 153.358 180.38 152.966C180.09 152.565 179.633 152.364 179.008 152.364Z" fill="black"/>
<rect x="199" y="146" width="16" height="16" rx="4" fill="white"/>
<rect x="199.5" y="146.5" width="15" height="15" rx="3.5" stroke="#1B77AF"/>
<path d="M231.4 149.004L227.83 159H226.57L223 149.004H224.316L226.57 155.416C226.719 155.827 226.841 156.214 226.934 156.578C227.037 156.933 227.125 157.273 227.2 157.6C227.265 157.273 227.349 156.928 227.452 156.564C227.555 156.2 227.681 155.808 227.83 155.388L230.07 149.004H231.4ZM238.835 155.234C238.835 156.475 238.518 157.437 237.883 158.118C237.258 158.799 236.408 159.14 235.335 159.14C234.672 159.14 234.08 158.991 233.557 158.692C233.044 158.384 232.638 157.941 232.339 157.362C232.04 156.774 231.891 156.065 231.891 155.234C231.891 153.993 232.199 153.036 232.815 152.364C233.44 151.692 234.294 151.356 235.377 151.356C236.049 151.356 236.646 151.51 237.169 151.818C237.692 152.117 238.098 152.555 238.387 153.134C238.686 153.703 238.835 154.403 238.835 155.234ZM233.165 155.234C233.165 156.121 233.338 156.825 233.683 157.348C234.038 157.861 234.598 158.118 235.363 158.118C236.119 158.118 236.674 157.861 237.029 157.348C237.384 156.825 237.561 156.121 237.561 155.234C237.561 154.347 237.384 153.652 237.029 153.148C236.674 152.644 236.114 152.392 235.349 152.392C234.584 152.392 234.028 152.644 233.683 153.148C233.338 153.652 233.165 154.347 233.165 155.234ZM241.418 148.682C241.604 148.682 241.768 148.747 241.908 148.878C242.057 148.999 242.132 149.195 242.132 149.466C242.132 149.737 242.057 149.937 241.908 150.068C241.768 150.189 241.604 150.25 241.418 150.25C241.212 150.25 241.04 150.189 240.9 150.068C240.76 149.937 240.69 149.737 240.69 149.466C240.69 149.195 240.76 148.999 240.9 148.878C241.04 148.747 241.212 148.682 241.418 148.682ZM242.02 151.496V159H240.788V151.496H242.02ZM247.407 159.14C246.735 159.14 246.142 159.005 245.629 158.734C245.116 158.463 244.71 158.043 244.411 157.474C244.122 156.905 243.977 156.177 243.977 155.29C243.977 154.366 244.126 153.615 244.425 153.036C244.733 152.457 245.153 152.033 245.685 151.762C246.217 151.491 246.819 151.356 247.491 151.356C247.864 151.356 248.228 151.398 248.583 151.482C248.947 151.557 249.241 151.65 249.465 151.762L249.087 152.784C248.863 152.7 248.602 152.621 248.303 152.546C248.004 152.471 247.724 152.434 247.463 152.434C245.988 152.434 245.251 153.381 245.251 155.276C245.251 156.181 245.428 156.877 245.783 157.362C246.147 157.838 246.684 158.076 247.393 158.076C247.794 158.076 248.154 158.034 248.471 157.95C248.788 157.866 249.078 157.763 249.339 157.642V158.734C249.087 158.865 248.807 158.963 248.499 159.028C248.2 159.103 247.836 159.14 247.407 159.14ZM254.022 151.356C254.656 151.356 255.207 151.496 255.674 151.776C256.14 152.056 256.495 152.453 256.738 152.966C256.99 153.47 257.116 154.063 257.116 154.744V155.486H251.978C251.996 156.335 252.211 156.984 252.622 157.432C253.042 157.871 253.625 158.09 254.372 158.09C254.848 158.09 255.268 158.048 255.632 157.964C256.005 157.871 256.388 157.74 256.78 157.572V158.65C256.397 158.818 256.019 158.939 255.646 159.014C255.272 159.098 254.829 159.14 254.316 159.14C253.597 159.14 252.967 158.995 252.426 158.706C251.884 158.417 251.46 157.987 251.152 157.418C250.853 156.849 250.704 156.144 250.704 155.304C250.704 154.483 250.839 153.778 251.11 153.19C251.39 152.602 251.777 152.149 252.272 151.832C252.776 151.515 253.359 151.356 254.022 151.356ZM254.008 152.364C253.42 152.364 252.953 152.555 252.608 152.938C252.272 153.311 252.071 153.834 252.006 154.506H255.828C255.818 153.871 255.669 153.358 255.38 152.966C255.09 152.565 254.633 152.364 254.008 152.364Z" fill="black"/>
</svg>
