<svg width="952" height="441" viewBox="0 0 952 441" fill="none" xmlns="http://www.w3.org/2000/svg">
<rect width="952" height="441" fill="#F1F1F1"/>
<g clip-path="url(#clip0_8896_377555)">
<g filter="url(#filter0_d_8896_377555)">
<g clip-path="url(#clip1_8896_377555)">
<g filter="url(#filter1_i_8896_377555)">
<rect width="200" height="516" transform="translate(36 98)" fill="white"/>
<rect width="200" height="48" transform="translate(36 98)" fill="white"/>
<path d="M64 134C58.201 134 53.5 129.299 53.5 123.5C53.5 117.701 58.201 113 64 113C69.799 113 74.5 117.701 74.5 123.5C74.5 129.299 69.799 134 64 134Z" fill="#C9C9C9"/>
<rect x="83" y="117" width="120" height="12" rx="2" fill="#C9C9C9"/>
<rect width="200" height="48" transform="translate(36 146)" fill="white"/>
<path d="M64 182C58.201 182 53.5 177.299 53.5 171.5C53.5 165.701 58.201 161 64 161C69.799 161 74.5 165.701 74.5 171.5C74.5 177.299 69.799 182 64 182Z" fill="#C9C9C9"/>
<rect x="83" y="165" width="120" height="12" rx="2" fill="#C9C9C9"/>
<rect width="200" height="48" transform="translate(36 194)" fill="white"/>
<path d="M64 230C58.201 230 53.5 225.299 53.5 219.5C53.5 213.701 58.201 209 64 209C69.799 209 74.5 213.701 74.5 219.5C74.5 225.299 69.799 230 64 230Z" fill="#C9C9C9"/>
<rect x="83" y="213" width="120" height="12" rx="2" fill="#C9C9C9"/>
<rect width="200" height="48" transform="translate(36 242)" fill="white"/>
<path d="M64 278C58.201 278 53.5 273.299 53.5 267.5C53.5 261.701 58.201 257 64 257C69.799 257 74.5 261.701 74.5 267.5C74.5 273.299 69.799 278 64 278Z" fill="#C9C9C9"/>
<rect x="83" y="261" width="120" height="12" rx="2" fill="#C9C9C9"/>
</g>
<g filter="url(#filter2_i_8896_377555)">
<rect width="880" height="58" transform="translate(36 40)" fill="white"/>
<path d="M36 40H83.7595L113 98H36V40Z" fill="#DA291C"/>
<line x1="36" y1="97.5" x2="113" y2="97.5" stroke="#C9C9C9"/>
<path d="M58.9378 74.2534H66.9108L68.2099 77.2799H57.4439L55.7227 80.7635H50.9648L62.7538 57.8442H66.0502L77.8392 80.7635H73.0976L64.4101 63.0617L58.9378 74.2534Z" fill="white"/>
<rect x="129" y="63" width="120" height="12" rx="2" fill="#C9C9C9"/>
<rect x="535.5" y="51.5" width="199" height="35" rx="1.5" fill="white"/>
<path fill-rule="evenodd" clip-rule="evenodd" d="M553.62 62.7493C550.93 62.7493 548.749 64.93 548.749 67.62C548.749 70.31 550.93 72.4906 553.62 72.4906C556.31 72.4906 558.491 70.31 558.491 67.62C558.491 64.93 556.31 62.7493 553.62 62.7493ZM548 67.62C548 64.5162 550.516 62 553.62 62C556.724 62 559.24 64.5162 559.24 67.62C559.24 70.7238 556.724 73.24 553.62 73.24C550.516 73.24 548 70.7238 548 67.62Z" fill="#939393"/>
<path fill-rule="evenodd" clip-rule="evenodd" d="M557.302 71.3015C557.448 71.1552 557.685 71.1552 557.831 71.3015L559.68 73.1499C559.826 73.2962 559.826 73.5334 559.68 73.6797C559.533 73.8261 559.296 73.8261 559.15 73.6797L557.302 71.8314C557.155 71.6851 557.155 71.4478 557.302 71.3015Z" fill="#939393"/>
<path fill-rule="evenodd" clip-rule="evenodd" d="M560.449 73.7297C560.245 73.5263 559.933 73.5263 559.73 73.7297C559.526 73.9331 559.526 74.2453 559.73 74.4487L560.379 75.0981C560.386 75.1049 560.392 75.112 560.399 75.1192C560.538 75.2822 560.882 75.3138 561.098 75.0981C561.302 74.8948 561.302 74.5825 561.098 74.3791L560.449 73.7297ZM559.2 73.1998C559.696 72.7038 560.483 72.7038 560.979 73.1998L561.628 73.8493C562.124 74.3453 562.124 75.132 561.628 75.628C561.148 76.1081 560.302 76.1428 559.84 75.6189L559.2 74.9786C558.704 74.4826 558.704 73.6958 559.2 73.1998Z" fill="#939393"/>
<rect x="535.5" y="51.5" width="199" height="35" rx="1.5" stroke="#C9C9C9"/>
<path d="M775 79.5C769.201 79.5 764.5 74.799 764.5 69C764.5 63.201 769.201 58.5 775 58.5C780.799 58.5 785.5 63.201 785.5 69C785.5 74.799 780.799 79.5 775 79.5Z" fill="#C9C9C9"/>
<path d="M823 79.5C817.201 79.5 812.5 74.799 812.5 69C812.5 63.201 817.201 58.5 823 58.5C828.799 58.5 833.5 63.201 833.5 69C833.5 74.799 828.799 79.5 823 79.5Z" fill="#C9C9C9"/>
<circle cx="880" cy="69" r="20" fill="white"/>
<g clip-path="url(#clip2_8896_377555)">
<path d="M868.571 85.413V83.0845C868.571 80.0534 869.776 77.1465 871.919 75.0032C874.062 72.86 876.969 71.6559 880 71.6559C883.031 71.6559 885.938 72.86 888.081 75.0032C890.224 77.1465 891.429 80.0534 891.429 83.0845V85.413C894.923 82.98 897.549 79.4952 898.926 75.466C900.303 71.4368 900.357 67.0734 899.082 63.0109C897.807 58.9484 895.269 55.3988 891.837 52.8789C888.405 50.3589 884.258 49 880 49C875.742 49 871.595 50.3589 868.163 52.8789C864.731 55.3988 862.193 58.9484 860.918 63.0109C859.643 67.0734 859.697 71.4368 861.074 75.466C862.451 79.4952 865.077 82.98 868.571 85.413ZM880 55.6273C881.297 55.6273 882.565 56.0119 883.643 56.7324C884.721 57.4529 885.562 58.477 886.058 59.6752C886.554 60.8733 886.684 62.1917 886.431 63.4637C886.178 64.7357 885.554 65.904 884.637 66.8211C883.72 67.7381 882.551 68.3626 881.279 68.6156C880.007 68.8686 878.689 68.7388 877.491 68.2425C876.293 67.7462 875.268 66.9057 874.548 65.8274C873.827 64.7491 873.443 63.4813 873.443 62.1845C873.447 60.4466 874.139 58.7809 875.368 57.552C876.596 56.3231 878.262 55.6311 880 55.6273Z" fill="#C9C9C9"/>
</g>
</g>
<rect width="680" height="516" transform="translate(236 98)" fill="#F1F1F1"/>
<rect x="244.5" y="106.5" width="663" height="499" rx="3.5" fill="white"/>
<rect x="244.5" y="106.5" width="663" height="499" rx="3.5" stroke="#C9C9C9"/>
</g>
<rect x="36.5" y="40.5" width="879" height="573" rx="7.5" stroke="#C9C9C9"/>
<rect width="200" height="24" transform="translate(276 146)" fill="#C9C9C9"/>
<rect x="276" y="182" width="200" height="24" rx="1" fill="#C9C9C9"/>
<rect x="488" y="182" width="200" height="24" rx="1" fill="#C9C9C9"/>
<rect x="276" y="218" width="200" height="24" rx="1" fill="#C9C9C9"/>
<rect x="488" y="218" width="200" height="24" rx="1" fill="#C9C9C9"/>
<rect width="200" height="77" transform="translate(276 254)" fill="#C9C9C9"/>
<circle cx="281" cy="348" r="5" fill="#C9C9C9"/>
<rect x="290" y="343" width="56" height="10" rx="1" fill="#C9C9C9"/>
<circle cx="367" cy="348" r="5" fill="#C9C9C9"/>
<rect x="376" y="343" width="56" height="10" rx="1" fill="#C9C9C9"/>
<circle cx="453" cy="348" r="5" fill="#C9C9C9"/>
<rect x="462" y="343" width="56" height="10" rx="1" fill="#C9C9C9"/>
<rect width="60" height="24" transform="translate(276 385)" fill="#1B77AF"/>
<rect x="344.5" y="385.5" width="59" height="23" stroke="#1B77AF"/>
</g>
</g>
<defs>
<filter id="filter0_d_8896_377555" x="28" y="36" width="896" height="590" filterUnits="userSpaceOnUse" color-interpolation-filters="sRGB">
<feFlood flood-opacity="0" result="BackgroundImageFix"/>
<feColorMatrix in="SourceAlpha" type="matrix" values="0 0 0 0 0 0 0 0 0 0 0 0 0 0 0 0 0 0 127 0" result="hardAlpha"/>
<feOffset dy="4"/>
<feGaussianBlur stdDeviation="4"/>
<feColorMatrix type="matrix" values="0 0 0 0 0 0 0 0 0 0 0 0 0 0 0 0 0 0 0.25 0"/>
<feBlend mode="normal" in2="BackgroundImageFix" result="effect1_dropShadow_8896_377555"/>
<feBlend mode="normal" in="SourceGraphic" in2="effect1_dropShadow_8896_377555" result="shape"/>
</filter>
<filter id="filter1_i_8896_377555" x="36" y="98" width="200" height="516" filterUnits="userSpaceOnUse" color-interpolation-filters="sRGB">
<feFlood flood-opacity="0" result="BackgroundImageFix"/>
<feBlend mode="normal" in="SourceGraphic" in2="BackgroundImageFix" result="shape"/>
<feColorMatrix in="SourceAlpha" type="matrix" values="0 0 0 0 0 0 0 0 0 0 0 0 0 0 0 0 0 0 127 0" result="hardAlpha"/>
<feOffset dx="-1"/>
<feComposite in2="hardAlpha" operator="arithmetic" k2="-1" k3="1"/>
<feColorMatrix type="matrix" values="0 0 0 0 0.788235 0 0 0 0 0.788235 0 0 0 0 0.788235 0 0 0 1 0"/>
<feBlend mode="normal" in2="shape" result="effect1_innerShadow_8896_377555"/>
</filter>
<filter id="filter2_i_8896_377555" x="36" y="40" width="880" height="58" filterUnits="userSpaceOnUse" color-interpolation-filters="sRGB">
<feFlood flood-opacity="0" result="BackgroundImageFix"/>
<feBlend mode="normal" in="SourceGraphic" in2="BackgroundImageFix" result="shape"/>
<feColorMatrix in="SourceAlpha" type="matrix" values="0 0 0 0 0 0 0 0 0 0 0 0 0 0 0 0 0 0 127 0" result="hardAlpha"/>
<feOffset dy="-1"/>
<feComposite in2="hardAlpha" operator="arithmetic" k2="-1" k3="1"/>
<feColorMatrix type="matrix" values="0 0 0 0 0.788235 0 0 0 0 0.788235 0 0 0 0 0.788235 0 0 0 1 0"/>
<feBlend mode="normal" in2="shape" result="effect1_innerShadow_8896_377555"/>
</filter>
<clipPath id="clip0_8896_377555">
<rect width="904" height="400" fill="white" transform="translate(24 40)"/>
</clipPath>
<clipPath id="clip1_8896_377555">
<rect x="36" y="40" width="880" height="574" rx="8" fill="white"/>
</clipPath>
<clipPath id="clip2_8896_377555">
<rect width="40.0001" height="36.6667" fill="white" transform="translate(860 49)"/>
</clipPath>
</defs>
</svg>
