<svg width="904" height="247" viewBox="0 0 904 247" fill="none" xmlns="http://www.w3.org/2000/svg">
<rect width="904" height="247" fill="white"/>
<path d="M47.956 53H46.696L42.112 45.884H42.064C42.08 46.164 42.1 46.512 42.124 46.928C42.148 47.344 42.16 47.772 42.16 48.212V53H41.164V44.432H42.412L46.984 51.524H47.032C47.024 51.396 47.012 51.204 46.996 50.948C46.988 50.692 46.976 50.416 46.96 50.12C46.952 49.816 46.948 49.532 46.948 49.268V44.432H47.956V53ZM52.5732 46.46C53.3572 46.46 53.9372 46.632 54.3132 46.976C54.6892 47.32 54.8772 47.868 54.8772 48.62V53H54.1092L53.9052 52.088H53.8572C53.5772 52.44 53.2812 52.7 52.9692 52.868C52.6572 53.036 52.2332 53.12 51.6972 53.12C51.1132 53.12 50.6292 52.968 50.2452 52.664C49.8612 52.352 49.6692 51.868 49.6692 51.212C49.6692 50.572 49.9212 50.08 50.4252 49.736C50.9292 49.384 51.7052 49.192 52.7532 49.16L53.8452 49.124V48.74C53.8452 48.204 53.7292 47.832 53.4972 47.624C53.2652 47.416 52.9372 47.312 52.5132 47.312C52.1772 47.312 51.8572 47.364 51.5532 47.468C51.2492 47.564 50.9652 47.676 50.7012 47.804L50.3772 47.012C50.6572 46.86 50.9892 46.732 51.3732 46.628C51.7572 46.516 52.1572 46.46 52.5732 46.46ZM53.8332 49.856L52.8852 49.892C52.0852 49.924 51.5292 50.052 51.2172 50.276C50.9132 50.5 50.7612 50.816 50.7612 51.224C50.7612 51.584 50.8692 51.848 51.0852 52.016C51.3092 52.184 51.5932 52.268 51.9372 52.268C52.4732 52.268 52.9212 52.12 53.2812 51.824C53.6492 51.52 53.8332 51.056 53.8332 50.432V49.856ZM63.9198 46.448C64.6478 46.448 65.1918 46.636 65.5518 47.012C65.9118 47.388 66.0918 47.988 66.0918 48.812V53H65.0478V48.86C65.0478 47.844 64.6118 47.336 63.7398 47.336C63.1158 47.336 62.6678 47.516 62.3958 47.876C62.1318 48.236 61.9998 48.76 61.9998 49.448V53H60.9558V48.86C60.9558 47.844 60.5158 47.336 59.6358 47.336C58.9878 47.336 58.5398 47.536 58.2918 47.936C58.0438 48.336 57.9198 48.912 57.9198 49.664V53H56.8638V46.568H57.7158L57.8718 47.444H57.9318C58.1318 47.108 58.3998 46.86 58.7358 46.7C59.0798 46.532 59.4438 46.448 59.8278 46.448C60.8358 46.448 61.4918 46.808 61.7958 47.528H61.8558C62.0718 47.16 62.3637 46.888 62.7318 46.712C63.0998 46.536 63.4958 46.448 63.9198 46.448ZM70.5626 46.448C71.1066 46.448 71.5786 46.568 71.9786 46.808C72.3786 47.048 72.6826 47.388 72.8906 47.828C73.1066 48.26 73.2146 48.768 73.2146 49.352V49.988H68.8106C68.8266 50.716 69.0106 51.272 69.3626 51.656C69.7226 52.032 70.2226 52.22 70.8626 52.22C71.2706 52.22 71.6306 52.184 71.9426 52.112C72.2626 52.032 72.5906 51.92 72.9266 51.776V52.7C72.5986 52.844 72.2746 52.948 71.9546 53.012C71.6346 53.084 71.2546 53.12 70.8146 53.12C70.1986 53.12 69.6586 52.996 69.1946 52.748C68.7306 52.5 68.3666 52.132 68.1026 51.644C67.8466 51.156 67.7186 50.552 67.7186 49.832C67.7186 49.128 67.8346 48.524 68.0666 48.02C68.3066 47.516 68.6386 47.128 69.0626 46.856C69.4946 46.584 69.9946 46.448 70.5626 46.448ZM70.5506 47.312C70.0466 47.312 69.6466 47.476 69.3506 47.804C69.0626 48.124 68.8906 48.572 68.8346 49.148H72.1106C72.1026 48.604 71.9746 48.164 71.7266 47.828C71.4786 47.484 71.0866 47.312 70.5506 47.312Z" fill="#323232"/>
<rect x="40.5" y="60.5" width="263" height="35" rx="1.5" fill="white"/>
<path d="M56.522 83H55.262V74.11H52.14V73.004H59.63V74.11H56.522V83ZM62.8829 75.356C63.5176 75.356 64.0683 75.496 64.5349 75.776C65.0016 76.056 65.3563 76.4527 65.5989 76.966C65.8509 77.47 65.9769 78.0627 65.9769 78.744V79.486H60.8389C60.8576 80.3353 61.0723 80.984 61.4829 81.432C61.9029 81.8707 62.4863 82.09 63.2329 82.09C63.7089 82.09 64.1289 82.048 64.4929 81.964C64.8663 81.8707 65.2489 81.74 65.6409 81.572V82.65C65.2583 82.818 64.8803 82.9393 64.5069 83.014C64.1336 83.098 63.6903 83.14 63.1769 83.14C62.4583 83.14 61.8283 82.9953 61.2869 82.706C60.7456 82.4167 60.3209 81.9873 60.0129 81.418C59.7143 80.8487 59.5649 80.144 59.5649 79.304C59.5649 78.4827 59.7003 77.778 59.9709 77.19C60.2509 76.602 60.6383 76.1493 61.1329 75.832C61.6369 75.5147 62.2203 75.356 62.8829 75.356ZM62.8689 76.364C62.2809 76.364 61.8143 76.5553 61.4689 76.938C61.1329 77.3113 60.9323 77.834 60.8669 78.506H64.6889C64.6796 77.8713 64.5303 77.358 64.2409 76.966C63.9516 76.5647 63.4943 76.364 62.8689 76.364ZM72.7733 80.928C72.7733 81.656 72.5026 82.2067 71.9613 82.58C71.4199 82.9533 70.6919 83.14 69.7773 83.14C69.2546 83.14 68.8019 83.098 68.4193 83.014C68.0459 82.93 67.7146 82.8133 67.4253 82.664V81.544C67.7239 81.6933 68.0833 81.8333 68.5033 81.964C68.9326 82.0853 69.3666 82.146 69.8053 82.146C70.4306 82.146 70.8833 82.048 71.1633 81.852C71.4433 81.6467 71.5833 81.376 71.5833 81.04C71.5833 80.8533 71.5319 80.6853 71.4293 80.536C71.3266 80.3867 71.1399 80.2373 70.8693 80.088C70.6079 79.9387 70.2299 79.7707 69.7353 79.584C69.2499 79.3973 68.8346 79.2107 68.4893 79.024C68.1439 78.8373 67.8779 78.6133 67.6913 78.352C67.5046 78.0907 67.4113 77.7547 67.4113 77.344C67.4113 76.7093 67.6679 76.2193 68.1813 75.874C68.7039 75.5287 69.3853 75.356 70.2253 75.356C70.6826 75.356 71.1073 75.4027 71.4993 75.496C71.9006 75.5893 72.2739 75.7107 72.6193 75.86L72.1993 76.84C71.8819 76.7093 71.5506 76.5973 71.2053 76.504C70.8599 76.4107 70.5053 76.364 70.1413 76.364C69.6373 76.364 69.2499 76.448 68.9793 76.616C68.7179 76.7747 68.5873 76.994 68.5873 77.274C68.5873 77.4887 68.6479 77.666 68.7693 77.806C68.8906 77.946 69.0913 78.086 69.3713 78.226C69.6606 78.366 70.0433 78.5247 70.5193 78.702C70.9953 78.8793 71.4013 79.0613 71.7373 79.248C72.0733 79.4347 72.3299 79.6633 72.5073 79.934C72.6846 80.1953 72.7733 80.5267 72.7733 80.928ZM77.0925 82.132C77.2792 82.132 77.4705 82.118 77.6665 82.09C77.8625 82.062 78.0212 82.0247 78.1425 81.978V82.916C78.0118 82.9813 77.8252 83.0327 77.5825 83.07C77.3398 83.1167 77.1065 83.14 76.8825 83.14C76.4905 83.14 76.1265 83.0747 75.7905 82.944C75.4638 82.804 75.1978 82.566 74.9925 82.23C74.7872 81.894 74.6845 81.4227 74.6845 80.816V76.448H73.6205V75.86L74.6985 75.37L75.1885 73.774H75.9165V75.496H78.0865V76.448H75.9165V80.788C75.9165 81.2453 76.0238 81.586 76.2385 81.81C76.4625 82.0247 76.7472 82.132 77.0925 82.132ZM79.4631 82.244C79.4631 81.8987 79.5471 81.656 79.7151 81.516C79.8831 81.376 80.0837 81.306 80.3171 81.306C80.5504 81.306 80.7557 81.376 80.9331 81.516C81.1104 81.656 81.1991 81.8987 81.1991 82.244C81.1991 82.58 81.1104 82.8227 80.9331 82.972C80.7557 83.1213 80.5504 83.196 80.3171 83.196C80.0837 83.196 79.8831 83.1213 79.7151 82.972C79.5471 82.8227 79.4631 82.58 79.4631 82.244ZM86.4012 83.14C85.7292 83.14 85.1365 83.0047 84.6232 82.734C84.1098 82.4633 83.7038 82.0433 83.4052 81.474C83.1158 80.9047 82.9712 80.1767 82.9712 79.29C82.9712 78.366 83.1205 77.6147 83.4192 77.036C83.7272 76.4573 84.1472 76.0327 84.6792 75.762C85.2112 75.4913 85.8132 75.356 86.4852 75.356C86.8585 75.356 87.2225 75.398 87.5772 75.482C87.9412 75.5567 88.2352 75.65 88.4592 75.762L88.0812 76.784C87.8572 76.7 87.5958 76.6207 87.2972 76.546C86.9985 76.4713 86.7185 76.434 86.4572 76.434C84.9825 76.434 84.2452 77.3813 84.2452 79.276C84.2452 80.1813 84.4225 80.8767 84.7772 81.362C85.1412 81.838 85.6778 82.076 86.3872 82.076C86.7885 82.076 87.1478 82.034 87.4652 81.95C87.7825 81.866 88.0718 81.7633 88.3332 81.642V82.734C88.0812 82.8647 87.8012 82.9627 87.4932 83.028C87.1945 83.1027 86.8305 83.14 86.4012 83.14ZM96.6417 79.234C96.6417 80.4753 96.3244 81.4367 95.6897 82.118C95.0644 82.7993 94.2151 83.14 93.1417 83.14C92.4791 83.14 91.8864 82.9907 91.3637 82.692C90.8504 82.384 90.4444 81.9407 90.1457 81.362C89.8471 80.774 89.6977 80.0647 89.6977 79.234C89.6977 77.9927 90.0057 77.036 90.6217 76.364C91.2471 75.692 92.1011 75.356 93.1837 75.356C93.8557 75.356 94.4531 75.51 94.9757 75.818C95.4984 76.1167 95.9044 76.5553 96.1937 77.134C96.4924 77.7033 96.6417 78.4033 96.6417 79.234ZM90.9717 79.234C90.9717 80.1207 91.1444 80.8253 91.4897 81.348C91.8444 81.8613 92.4044 82.118 93.1697 82.118C93.9257 82.118 94.4811 81.8613 94.8357 81.348C95.1904 80.8253 95.3677 80.1207 95.3677 79.234C95.3677 78.3473 95.1904 77.652 94.8357 77.148C94.4811 76.644 93.9211 76.392 93.1557 76.392C92.3904 76.392 91.8351 76.644 91.4897 77.148C91.1444 77.652 90.9717 78.3473 90.9717 79.234ZM106.826 75.356C107.676 75.356 108.31 75.5753 108.73 76.014C109.15 76.4527 109.36 77.1527 109.36 78.114V83H108.142V78.17C108.142 76.9847 107.634 76.392 106.616 76.392C105.888 76.392 105.366 76.602 105.048 77.022C104.74 77.442 104.586 78.0533 104.586 78.856V83H103.368V78.17C103.368 76.9847 102.855 76.392 101.828 76.392C101.072 76.392 100.55 76.6253 100.26 77.092C99.971 77.5587 99.8263 78.2307 99.8263 79.108V83H98.5943V75.496H99.5883L99.7703 76.518H99.8403C100.074 76.126 100.386 75.8367 100.778 75.65C101.18 75.454 101.604 75.356 102.052 75.356C103.228 75.356 103.994 75.776 104.348 76.616H104.418C104.67 76.1867 105.011 75.8693 105.44 75.664C105.87 75.4587 106.332 75.356 106.826 75.356Z" fill="black"/>
<rect x="40.5" y="60.5" width="263" height="35" rx="1.5" stroke="#939393"/>
<path d="M321.164 53V44.432H322.244V52.04H325.988V53H321.164ZM332.905 49.772C332.905 50.836 332.633 51.66 332.089 52.244C331.553 52.828 330.825 53.12 329.905 53.12C329.337 53.12 328.829 52.992 328.381 52.736C327.941 52.472 327.593 52.092 327.337 51.596C327.081 51.092 326.953 50.484 326.953 49.772C326.953 48.708 327.217 47.888 327.745 47.312C328.281 46.736 329.013 46.448 329.941 46.448C330.517 46.448 331.029 46.58 331.477 46.844C331.925 47.1 332.273 47.476 332.521 47.972C332.777 48.46 332.905 49.06 332.905 49.772ZM328.045 49.772C328.045 50.532 328.193 51.136 328.489 51.584C328.793 52.024 329.273 52.244 329.929 52.244C330.577 52.244 331.053 52.024 331.357 51.584C331.661 51.136 331.813 50.532 331.813 49.772C331.813 49.012 331.661 48.416 331.357 47.984C331.053 47.552 330.573 47.336 329.917 47.336C329.261 47.336 328.785 47.552 328.489 47.984C328.193 48.416 328.045 49.012 328.045 49.772ZM336.859 46.448C337.283 46.448 337.663 46.528 337.999 46.688C338.343 46.848 338.635 47.092 338.875 47.42H338.935L339.079 46.568H339.919V53.108C339.919 54.028 339.683 54.72 339.211 55.184C338.747 55.648 338.023 55.88 337.039 55.88C336.095 55.88 335.323 55.744 334.723 55.472V54.5C335.355 54.836 336.147 55.004 337.099 55.004C337.651 55.004 338.083 54.84 338.395 54.512C338.715 54.192 338.875 53.752 338.875 53.192V52.94C338.875 52.844 338.879 52.708 338.887 52.532C338.895 52.348 338.903 52.22 338.911 52.148H338.863C338.431 52.796 337.767 53.12 336.871 53.12C336.039 53.12 335.387 52.828 334.915 52.244C334.451 51.66 334.219 50.844 334.219 49.796C334.219 48.772 334.451 47.96 334.915 47.36C335.387 46.752 336.035 46.448 336.859 46.448ZM337.003 47.336C336.467 47.336 336.051 47.552 335.755 47.984C335.459 48.408 335.311 49.016 335.311 49.808C335.311 50.6 335.455 51.208 335.743 51.632C336.031 52.048 336.459 52.256 337.027 52.256C337.675 52.256 338.147 52.084 338.443 51.74C338.739 51.388 338.887 50.824 338.887 50.048V49.796C338.887 48.924 338.735 48.296 338.431 47.912C338.127 47.528 337.651 47.336 337.003 47.336ZM342.501 44.156C342.661 44.156 342.801 44.212 342.921 44.324C343.049 44.428 343.113 44.596 343.113 44.828C343.113 45.06 343.049 45.232 342.921 45.344C342.801 45.448 342.661 45.5 342.501 45.5C342.325 45.5 342.177 45.448 342.057 45.344C341.937 45.232 341.877 45.06 341.877 44.828C341.877 44.596 341.937 44.428 342.057 44.324C342.177 44.212 342.325 44.156 342.501 44.156ZM343.017 46.568V53H341.961V46.568H343.017ZM348.151 46.448C348.919 46.448 349.499 46.636 349.891 47.012C350.283 47.388 350.479 47.988 350.479 48.812V53H349.435V48.884C349.435 47.852 348.955 47.336 347.995 47.336C347.283 47.336 346.791 47.536 346.519 47.936C346.247 48.336 346.111 48.912 346.111 49.664V53H345.055V46.568H345.907L346.063 47.444H346.123C346.331 47.108 346.619 46.86 346.987 46.7C347.355 46.532 347.743 46.448 348.151 46.448ZM362.598 48.632C362.598 50.08 362.202 51.172 361.41 51.908C360.626 52.636 359.53 53 358.122 53H355.734V44.432H358.374C359.23 44.432 359.974 44.592 360.606 44.912C361.246 45.232 361.738 45.704 362.082 46.328C362.426 46.952 362.598 47.72 362.598 48.632ZM361.458 48.668C361.458 47.524 361.174 46.688 360.606 46.16C360.046 45.624 359.25 45.356 358.218 45.356H356.814V52.076H357.978C360.298 52.076 361.458 50.94 361.458 48.668ZM369.948 49.772C369.948 50.836 369.676 51.66 369.132 52.244C368.596 52.828 367.868 53.12 366.948 53.12C366.38 53.12 365.872 52.992 365.424 52.736C364.984 52.472 364.636 52.092 364.38 51.596C364.124 51.092 363.996 50.484 363.996 49.772C363.996 48.708 364.26 47.888 364.788 47.312C365.324 46.736 366.056 46.448 366.984 46.448C367.56 46.448 368.072 46.58 368.52 46.844C368.968 47.1 369.316 47.476 369.564 47.972C369.82 48.46 369.948 49.06 369.948 49.772ZM365.088 49.772C365.088 50.532 365.236 51.136 365.532 51.584C365.836 52.024 366.316 52.244 366.972 52.244C367.62 52.244 368.096 52.024 368.4 51.584C368.704 51.136 368.856 50.532 368.856 49.772C368.856 49.012 368.704 48.416 368.4 47.984C368.096 47.552 367.616 47.336 366.96 47.336C366.304 47.336 365.828 47.552 365.532 47.984C365.236 48.416 365.088 49.012 365.088 49.772ZM378.678 46.448C379.406 46.448 379.95 46.636 380.31 47.012C380.67 47.388 380.85 47.988 380.85 48.812V53H379.806V48.86C379.806 47.844 379.37 47.336 378.498 47.336C377.874 47.336 377.426 47.516 377.154 47.876C376.89 48.236 376.758 48.76 376.758 49.448V53H375.714V48.86C375.714 47.844 375.274 47.336 374.394 47.336C373.746 47.336 373.298 47.536 373.05 47.936C372.802 48.336 372.678 48.912 372.678 49.664V53H371.622V46.568H372.474L372.63 47.444H372.69C372.89 47.108 373.158 46.86 373.494 46.7C373.838 46.532 374.202 46.448 374.586 46.448C375.594 46.448 376.25 46.808 376.554 47.528H376.614C376.83 47.16 377.122 46.888 377.49 46.712C377.858 46.536 378.254 46.448 378.678 46.448ZM385.272 46.46C386.056 46.46 386.636 46.632 387.012 46.976C387.388 47.32 387.576 47.868 387.576 48.62V53H386.808L386.604 52.088H386.556C386.276 52.44 385.98 52.7 385.668 52.868C385.356 53.036 384.932 53.12 384.396 53.12C383.812 53.12 383.328 52.968 382.944 52.664C382.56 52.352 382.368 51.868 382.368 51.212C382.368 50.572 382.62 50.08 383.124 49.736C383.628 49.384 384.404 49.192 385.452 49.16L386.544 49.124V48.74C386.544 48.204 386.428 47.832 386.196 47.624C385.964 47.416 385.636 47.312 385.212 47.312C384.876 47.312 384.556 47.364 384.252 47.468C383.948 47.564 383.664 47.676 383.4 47.804L383.076 47.012C383.356 46.86 383.688 46.732 384.072 46.628C384.456 46.516 384.856 46.46 385.272 46.46ZM386.532 49.856L385.584 49.892C384.784 49.924 384.228 50.052 383.916 50.276C383.612 50.5 383.46 50.816 383.46 51.224C383.46 51.584 383.568 51.848 383.784 52.016C384.008 52.184 384.292 52.268 384.636 52.268C385.172 52.268 385.62 52.12 385.98 51.824C386.348 51.52 386.532 51.056 386.532 50.432V49.856ZM390.103 44.156C390.263 44.156 390.403 44.212 390.523 44.324C390.651 44.428 390.715 44.596 390.715 44.828C390.715 45.06 390.651 45.232 390.523 45.344C390.403 45.448 390.263 45.5 390.103 45.5C389.927 45.5 389.779 45.448 389.659 45.344C389.539 45.232 389.479 45.06 389.479 44.828C389.479 44.596 389.539 44.428 389.659 44.324C389.779 44.212 389.927 44.156 390.103 44.156ZM390.619 46.568V53H389.563V46.568H390.619ZM395.753 46.448C396.521 46.448 397.101 46.636 397.493 47.012C397.885 47.388 398.081 47.988 398.081 48.812V53H397.037V48.884C397.037 47.852 396.557 47.336 395.597 47.336C394.885 47.336 394.393 47.536 394.121 47.936C393.849 48.336 393.713 48.912 393.713 49.664V53H392.657V46.568H393.509L393.665 47.444H393.725C393.933 47.108 394.221 46.86 394.589 46.7C394.957 46.532 395.345 46.448 395.753 46.448Z" fill="#323232"/>
<rect x="320.5" y="60.5" width="263" height="35" rx="1.5" fill="white"/>
<path d="M336.97 83H335.766V76.014C335.766 75.6127 335.771 75.2907 335.78 75.048C335.789 74.8053 335.803 74.5533 335.822 74.292C335.673 74.4413 335.533 74.5673 335.402 74.67C335.281 74.7727 335.131 74.9033 334.954 75.062L333.89 75.93L333.246 75.104L335.948 73.004H336.97V83ZM347.292 83H340.684V81.978L343.302 79.332C343.796 78.828 344.216 78.38 344.562 77.988C344.916 77.596 345.182 77.2133 345.36 76.84C345.537 76.4667 345.626 76.0513 345.626 75.594C345.626 75.0433 345.462 74.628 345.136 74.348C344.809 74.0587 344.384 73.914 343.862 73.914C343.367 73.914 342.938 73.998 342.574 74.166C342.21 74.334 341.836 74.5673 341.454 74.866L340.796 74.04C341.188 73.7133 341.636 73.438 342.14 73.214C342.653 72.9807 343.227 72.864 343.862 72.864C344.795 72.864 345.532 73.102 346.074 73.578C346.615 74.054 346.886 74.7027 346.886 75.524C346.886 76.0467 346.778 76.5367 346.564 76.994C346.349 77.4513 346.05 77.904 345.668 78.352C345.285 78.8 344.837 79.2713 344.324 79.766L342.238 81.824V81.88H347.292V83ZM354.925 75.342C354.925 76.014 354.734 76.5507 354.351 76.952C353.978 77.344 353.479 77.6053 352.853 77.736V77.792C353.647 77.8853 354.239 78.1373 354.631 78.548C355.033 78.9587 355.233 79.4953 355.233 80.158C355.233 80.746 355.098 81.264 354.827 81.712C354.557 82.16 354.137 82.51 353.567 82.762C353.007 83.014 352.284 83.14 351.397 83.14C350.875 83.14 350.389 83.098 349.941 83.014C349.493 82.9393 349.064 82.7993 348.653 82.594V81.446C349.073 81.6607 349.526 81.824 350.011 81.936C350.497 82.048 350.963 82.104 351.411 82.104C352.307 82.104 352.951 81.9313 353.343 81.586C353.745 81.2313 353.945 80.746 353.945 80.13C353.945 79.5047 353.698 79.0567 353.203 78.786C352.718 78.506 352.032 78.366 351.145 78.366H350.179V77.316H351.159C351.981 77.316 352.601 77.1433 353.021 76.798C353.451 76.4527 353.665 75.9953 353.665 75.426C353.665 74.9407 353.502 74.5673 353.175 74.306C352.849 74.0353 352.405 73.9 351.845 73.9C351.304 73.9 350.842 73.9793 350.459 74.138C350.077 74.2967 349.699 74.4973 349.325 74.74L348.709 73.9C349.064 73.62 349.503 73.3773 350.025 73.172C350.557 72.9667 351.159 72.864 351.831 72.864C352.877 72.864 353.651 73.0973 354.155 73.564C354.669 74.0307 354.925 74.6233 354.925 75.342ZM361.005 83H359.801V76.014C359.801 75.6127 359.806 75.2907 359.815 75.048C359.824 74.8053 359.838 74.5533 359.857 74.292C359.708 74.4413 359.568 74.5673 359.437 74.67C359.316 74.7727 359.166 74.9033 358.989 75.062L357.925 75.93L357.281 75.104L359.983 73.004H361.005V83ZM371.327 83H364.719V81.978L367.337 79.332C367.832 78.828 368.252 78.38 368.597 77.988C368.952 77.596 369.218 77.2133 369.395 76.84C369.572 76.4667 369.661 76.0513 369.661 75.594C369.661 75.0433 369.498 74.628 369.171 74.348C368.844 74.0587 368.42 73.914 367.897 73.914C367.402 73.914 366.973 73.998 366.609 74.166C366.245 74.334 365.872 74.5673 365.489 74.866L364.831 74.04C365.223 73.7133 365.671 73.438 366.175 73.214C366.688 72.9807 367.262 72.864 367.897 72.864C368.83 72.864 369.568 73.102 370.109 73.578C370.65 74.054 370.921 74.7027 370.921 75.524C370.921 76.0467 370.814 76.5367 370.599 76.994C370.384 77.4513 370.086 77.904 369.703 78.352C369.32 78.8 368.872 79.2713 368.359 79.766L366.273 81.824V81.88H371.327V83Z" fill="black"/>
<rect x="320.5" y="60.5" width="263" height="35" rx="1.5" stroke="#939393"/>
<path d="M606.024 50.708C606.024 51.468 605.748 52.06 605.196 52.484C604.644 52.908 603.9 53.12 602.964 53.12C602.484 53.12 602.04 53.084 601.632 53.012C601.224 52.94 600.884 52.84 600.612 52.712V51.68C600.9 51.808 601.256 51.924 601.68 52.028C602.112 52.132 602.556 52.184 603.012 52.184C603.644 52.184 604.124 52.06 604.452 51.812C604.78 51.564 604.944 51.228 604.944 50.804C604.944 50.524 604.884 50.288 604.764 50.096C604.644 49.904 604.436 49.728 604.14 49.568C603.844 49.408 603.44 49.232 602.928 49.04C602.192 48.776 601.64 48.452 601.272 48.068C600.904 47.684 600.72 47.16 600.72 46.496C600.72 46.048 600.836 45.66 601.068 45.332C601.3 45.004 601.62 44.752 602.028 44.576C602.436 44.4 602.912 44.312 603.456 44.312C603.92 44.312 604.348 44.356 604.74 44.444C605.132 44.532 605.492 44.648 605.82 44.792L605.484 45.716C605.188 45.588 604.864 45.48 604.512 45.392C604.16 45.304 603.8 45.26 603.432 45.26C602.896 45.26 602.492 45.376 602.22 45.608C601.948 45.832 601.812 46.132 601.812 46.508C601.812 46.796 601.872 47.036 601.992 47.228C602.112 47.42 602.308 47.596 602.58 47.756C602.852 47.908 603.22 48.068 603.684 48.236C604.188 48.42 604.612 48.62 604.956 48.836C605.308 49.044 605.572 49.296 605.748 49.592C605.932 49.888 606.024 50.26 606.024 50.708ZM610.09 46.448C610.634 46.448 611.106 46.568 611.506 46.808C611.906 47.048 612.21 47.388 612.418 47.828C612.634 48.26 612.742 48.768 612.742 49.352V49.988H608.338C608.354 50.716 608.538 51.272 608.89 51.656C609.25 52.032 609.75 52.22 610.39 52.22C610.798 52.22 611.158 52.184 611.47 52.112C611.79 52.032 612.118 51.92 612.454 51.776V52.7C612.126 52.844 611.802 52.948 611.482 53.012C611.162 53.084 610.782 53.12 610.342 53.12C609.726 53.12 609.186 52.996 608.722 52.748C608.258 52.5 607.894 52.132 607.63 51.644C607.374 51.156 607.246 50.552 607.246 49.832C607.246 49.128 607.362 48.524 607.594 48.02C607.834 47.516 608.166 47.128 608.59 46.856C609.022 46.584 609.522 46.448 610.09 46.448ZM610.078 47.312C609.574 47.312 609.174 47.476 608.878 47.804C608.59 48.124 608.418 48.572 608.362 49.148H611.638C611.63 48.604 611.502 48.164 611.254 47.828C611.006 47.484 610.614 47.312 610.078 47.312ZM615.435 53H614.379V43.88H615.435V53ZM619.957 46.448C620.501 46.448 620.973 46.568 621.373 46.808C621.773 47.048 622.077 47.388 622.285 47.828C622.501 48.26 622.609 48.768 622.609 49.352V49.988H618.205C618.221 50.716 618.405 51.272 618.757 51.656C619.117 52.032 619.617 52.22 620.257 52.22C620.665 52.22 621.025 52.184 621.337 52.112C621.657 52.032 621.985 51.92 622.321 51.776V52.7C621.993 52.844 621.669 52.948 621.349 53.012C621.029 53.084 620.649 53.12 620.209 53.12C619.593 53.12 619.053 52.996 618.589 52.748C618.125 52.5 617.761 52.132 617.497 51.644C617.241 51.156 617.113 50.552 617.113 49.832C617.113 49.128 617.229 48.524 617.461 48.02C617.701 47.516 618.033 47.128 618.457 46.856C618.889 46.584 619.389 46.448 619.957 46.448ZM619.945 47.312C619.441 47.312 619.041 47.476 618.745 47.804C618.457 48.124 618.285 48.572 618.229 49.148H621.505C621.497 48.604 621.369 48.164 621.121 47.828C620.873 47.484 620.481 47.312 619.945 47.312ZM626.827 53.12C626.251 53.12 625.743 53.004 625.303 52.772C624.863 52.54 624.515 52.18 624.259 51.692C624.011 51.204 623.887 50.58 623.887 49.82C623.887 49.028 624.015 48.384 624.271 47.888C624.535 47.392 624.895 47.028 625.351 46.796C625.807 46.564 626.323 46.448 626.899 46.448C627.219 46.448 627.531 46.484 627.835 46.556C628.147 46.62 628.399 46.7 628.591 46.796L628.267 47.672C628.075 47.6 627.851 47.532 627.595 47.468C627.339 47.404 627.099 47.372 626.875 47.372C625.611 47.372 624.979 48.184 624.979 49.808C624.979 50.584 625.131 51.18 625.435 51.596C625.747 52.004 626.207 52.208 626.815 52.208C627.159 52.208 627.467 52.172 627.739 52.1C628.011 52.028 628.259 51.94 628.483 51.836V52.772C628.267 52.884 628.027 52.968 627.763 53.024C627.507 53.088 627.195 53.12 626.827 53.12ZM632.16 52.256C632.32 52.256 632.484 52.244 632.652 52.22C632.82 52.196 632.956 52.164 633.06 52.124V52.928C632.948 52.984 632.788 53.028 632.58 53.06C632.372 53.1 632.172 53.12 631.98 53.12C631.644 53.12 631.332 53.064 631.044 52.952C630.764 52.832 630.536 52.628 630.36 52.34C630.184 52.052 630.096 51.648 630.096 51.128V47.384H629.184V46.88L630.108 46.46L630.528 45.092H631.152V46.568H633.012V47.384H631.152V51.104C631.152 51.496 631.244 51.788 631.428 51.98C631.62 52.164 631.864 52.256 632.16 52.256ZM644.473 48.632C644.473 50.08 644.077 51.172 643.285 51.908C642.501 52.636 641.405 53 639.997 53H637.609V44.432H640.249C641.105 44.432 641.849 44.592 642.481 44.912C643.121 45.232 643.613 45.704 643.957 46.328C644.301 46.952 644.473 47.72 644.473 48.632ZM643.333 48.668C643.333 47.524 643.049 46.688 642.481 46.16C641.921 45.624 641.125 45.356 640.093 45.356H638.689V52.076H639.853C642.173 52.076 643.333 50.94 643.333 48.668ZM648.715 46.448C649.259 46.448 649.731 46.568 650.131 46.808C650.531 47.048 650.835 47.388 651.043 47.828C651.259 48.26 651.367 48.768 651.367 49.352V49.988H646.963C646.979 50.716 647.163 51.272 647.515 51.656C647.875 52.032 648.375 52.22 649.015 52.22C649.423 52.22 649.783 52.184 650.095 52.112C650.415 52.032 650.743 51.92 651.079 51.776V52.7C650.751 52.844 650.427 52.948 650.107 53.012C649.787 53.084 649.407 53.12 648.967 53.12C648.351 53.12 647.811 52.996 647.347 52.748C646.883 52.5 646.519 52.132 646.255 51.644C645.999 51.156 645.871 50.552 645.871 49.832C645.871 49.128 645.987 48.524 646.219 48.02C646.459 47.516 646.791 47.128 647.215 46.856C647.647 46.584 648.147 46.448 648.715 46.448ZM648.703 47.312C648.199 47.312 647.799 47.476 647.503 47.804C647.215 48.124 647.043 48.572 646.987 49.148H650.263C650.255 48.604 650.127 48.164 649.879 47.828C649.631 47.484 649.239 47.312 648.703 47.312ZM655.968 47.384H654.348V53H653.292V47.384H652.164V46.892L653.292 46.532V46.16C653.292 45.328 653.472 44.732 653.832 44.372C654.2 44.004 654.716 43.82 655.38 43.82C655.628 43.82 655.86 43.844 656.076 43.892C656.292 43.932 656.476 43.98 656.628 44.036L656.352 44.864C656.224 44.824 656.076 44.784 655.908 44.744C655.74 44.704 655.568 44.684 655.392 44.684C655.04 44.684 654.776 44.804 654.6 45.044C654.432 45.276 654.348 45.644 654.348 46.148V46.568H655.968V47.384ZM659.565 46.46C660.349 46.46 660.929 46.632 661.305 46.976C661.681 47.32 661.869 47.868 661.869 48.62V53H661.101L660.897 52.088H660.849C660.569 52.44 660.273 52.7 659.961 52.868C659.649 53.036 659.225 53.12 658.689 53.12C658.105 53.12 657.621 52.968 657.237 52.664C656.853 52.352 656.661 51.868 656.661 51.212C656.661 50.572 656.913 50.08 657.417 49.736C657.921 49.384 658.697 49.192 659.745 49.16L660.837 49.124V48.74C660.837 48.204 660.721 47.832 660.489 47.624C660.257 47.416 659.929 47.312 659.505 47.312C659.169 47.312 658.849 47.364 658.545 47.468C658.241 47.564 657.957 47.676 657.693 47.804L657.369 47.012C657.649 46.86 657.981 46.732 658.365 46.628C658.749 46.516 659.149 46.46 659.565 46.46ZM660.825 49.856L659.877 49.892C659.077 49.924 658.521 50.052 658.209 50.276C657.905 50.5 657.753 50.816 657.753 51.224C657.753 51.584 657.861 51.848 658.077 52.016C658.301 52.184 658.585 52.268 658.929 52.268C659.465 52.268 659.913 52.12 660.273 51.824C660.641 51.52 660.825 51.056 660.825 50.432V49.856ZM669.232 46.568V53H668.368L668.212 52.148H668.164C667.956 52.484 667.668 52.732 667.3 52.892C666.932 53.044 666.54 53.12 666.124 53.12C665.348 53.12 664.764 52.936 664.372 52.568C663.98 52.192 663.784 51.596 663.784 50.78V46.568H664.852V50.708C664.852 51.732 665.328 52.244 666.28 52.244C666.992 52.244 667.484 52.044 667.756 51.644C668.036 51.244 668.176 50.668 668.176 49.916V46.568H669.232ZM672.33 53H671.274V43.88H672.33V53ZM676.516 52.256C676.676 52.256 676.84 52.244 677.008 52.22C677.176 52.196 677.312 52.164 677.416 52.124V52.928C677.304 52.984 677.144 53.028 676.936 53.06C676.728 53.1 676.528 53.12 676.336 53.12C676 53.12 675.688 53.064 675.4 52.952C675.12 52.832 674.892 52.628 674.716 52.34C674.54 52.052 674.452 51.648 674.452 51.128V47.384H673.54V46.88L674.464 46.46L674.884 45.092H675.508V46.568H677.368V47.384H675.508V51.104C675.508 51.496 675.6 51.788 675.784 51.98C675.976 52.164 676.22 52.256 676.516 52.256ZM681.965 53V44.432H683.045V52.04H686.789V53H681.965ZM693.706 49.772C693.706 50.836 693.434 51.66 692.89 52.244C692.354 52.828 691.626 53.12 690.706 53.12C690.138 53.12 689.63 52.992 689.182 52.736C688.742 52.472 688.394 52.092 688.138 51.596C687.882 51.092 687.754 50.484 687.754 49.772C687.754 48.708 688.018 47.888 688.546 47.312C689.082 46.736 689.814 46.448 690.742 46.448C691.318 46.448 691.83 46.58 692.278 46.844C692.726 47.1 693.074 47.476 693.322 47.972C693.578 48.46 693.706 49.06 693.706 49.772ZM688.846 49.772C688.846 50.532 688.994 51.136 689.29 51.584C689.594 52.024 690.074 52.244 690.73 52.244C691.378 52.244 691.854 52.024 692.158 51.584C692.462 51.136 692.614 50.532 692.614 49.772C692.614 49.012 692.462 48.416 692.158 47.984C691.854 47.552 691.374 47.336 690.718 47.336C690.062 47.336 689.586 47.552 689.29 47.984C688.994 48.416 688.846 49.012 688.846 49.772ZM697.659 46.448C698.083 46.448 698.463 46.528 698.799 46.688C699.143 46.848 699.435 47.092 699.675 47.42H699.735L699.879 46.568H700.719V53.108C700.719 54.028 700.483 54.72 700.011 55.184C699.547 55.648 698.823 55.88 697.839 55.88C696.895 55.88 696.123 55.744 695.523 55.472V54.5C696.155 54.836 696.947 55.004 697.899 55.004C698.451 55.004 698.883 54.84 699.195 54.512C699.515 54.192 699.675 53.752 699.675 53.192V52.94C699.675 52.844 699.679 52.708 699.687 52.532C699.695 52.348 699.703 52.22 699.711 52.148H699.663C699.231 52.796 698.567 53.12 697.671 53.12C696.839 53.12 696.187 52.828 695.715 52.244C695.251 51.66 695.019 50.844 695.019 49.796C695.019 48.772 695.251 47.96 695.715 47.36C696.187 46.752 696.835 46.448 697.659 46.448ZM697.803 47.336C697.267 47.336 696.851 47.552 696.555 47.984C696.259 48.408 696.111 49.016 696.111 49.808C696.111 50.6 696.255 51.208 696.543 51.632C696.831 52.048 697.259 52.256 697.827 52.256C698.475 52.256 698.947 52.084 699.243 51.74C699.539 51.388 699.687 50.824 699.687 50.048V49.796C699.687 48.924 699.535 48.296 699.231 47.912C698.927 47.528 698.451 47.336 697.803 47.336ZM703.302 44.156C703.462 44.156 703.602 44.212 703.722 44.324C703.85 44.428 703.914 44.596 703.914 44.828C703.914 45.06 703.85 45.232 703.722 45.344C703.602 45.448 703.462 45.5 703.302 45.5C703.126 45.5 702.978 45.448 702.858 45.344C702.738 45.232 702.678 45.06 702.678 44.828C702.678 44.596 702.738 44.428 702.858 44.324C702.978 44.212 703.126 44.156 703.302 44.156ZM703.818 46.568V53H702.762V46.568H703.818ZM708.952 46.448C709.72 46.448 710.3 46.636 710.692 47.012C711.084 47.388 711.28 47.988 711.28 48.812V53H710.236V48.884C710.236 47.852 709.756 47.336 708.796 47.336C708.084 47.336 707.592 47.536 707.32 47.936C707.048 48.336 706.912 48.912 706.912 49.664V53H705.856V46.568H706.708L706.864 47.444H706.924C707.132 47.108 707.42 46.86 707.788 46.7C708.156 46.532 708.544 46.448 708.952 46.448ZM723.399 48.632C723.399 50.08 723.003 51.172 722.211 51.908C721.427 52.636 720.331 53 718.923 53H716.535V44.432H719.175C720.031 44.432 720.775 44.592 721.407 44.912C722.047 45.232 722.539 45.704 722.883 46.328C723.227 46.952 723.399 47.72 723.399 48.632ZM722.259 48.668C722.259 47.524 721.975 46.688 721.407 46.16C720.847 45.624 720.051 45.356 719.019 45.356H717.615V52.076H718.779C721.099 52.076 722.259 50.94 722.259 48.668ZM730.749 49.772C730.749 50.836 730.477 51.66 729.933 52.244C729.397 52.828 728.669 53.12 727.749 53.12C727.181 53.12 726.673 52.992 726.225 52.736C725.785 52.472 725.437 52.092 725.181 51.596C724.925 51.092 724.797 50.484 724.797 49.772C724.797 48.708 725.061 47.888 725.589 47.312C726.125 46.736 726.857 46.448 727.785 46.448C728.361 46.448 728.873 46.58 729.321 46.844C729.769 47.1 730.117 47.476 730.365 47.972C730.621 48.46 730.749 49.06 730.749 49.772ZM725.889 49.772C725.889 50.532 726.037 51.136 726.333 51.584C726.637 52.024 727.117 52.244 727.773 52.244C728.421 52.244 728.897 52.024 729.201 51.584C729.505 51.136 729.657 50.532 729.657 49.772C729.657 49.012 729.505 48.416 729.201 47.984C728.897 47.552 728.417 47.336 727.761 47.336C727.105 47.336 726.629 47.552 726.333 47.984C726.037 48.416 725.889 49.012 725.889 49.772ZM739.478 46.448C740.206 46.448 740.75 46.636 741.11 47.012C741.47 47.388 741.65 47.988 741.65 48.812V53H740.606V48.86C740.606 47.844 740.17 47.336 739.298 47.336C738.674 47.336 738.226 47.516 737.954 47.876C737.69 48.236 737.558 48.76 737.558 49.448V53H736.514V48.86C736.514 47.844 736.074 47.336 735.194 47.336C734.546 47.336 734.098 47.536 733.85 47.936C733.602 48.336 733.478 48.912 733.478 49.664V53H732.422V46.568H733.274L733.43 47.444H733.49C733.69 47.108 733.958 46.86 734.294 46.7C734.638 46.532 735.002 46.448 735.386 46.448C736.394 46.448 737.05 46.808 737.354 47.528H737.414C737.63 47.16 737.922 46.888 738.29 46.712C738.658 46.536 739.054 46.448 739.478 46.448ZM746.073 46.46C746.857 46.46 747.437 46.632 747.813 46.976C748.189 47.32 748.377 47.868 748.377 48.62V53H747.609L747.405 52.088H747.357C747.077 52.44 746.781 52.7 746.469 52.868C746.157 53.036 745.733 53.12 745.197 53.12C744.613 53.12 744.129 52.968 743.745 52.664C743.361 52.352 743.169 51.868 743.169 51.212C743.169 50.572 743.421 50.08 743.925 49.736C744.429 49.384 745.205 49.192 746.253 49.16L747.345 49.124V48.74C747.345 48.204 747.229 47.832 746.997 47.624C746.765 47.416 746.437 47.312 746.013 47.312C745.677 47.312 745.357 47.364 745.053 47.468C744.749 47.564 744.465 47.676 744.201 47.804L743.877 47.012C744.157 46.86 744.489 46.732 744.873 46.628C745.257 46.516 745.657 46.46 746.073 46.46ZM747.333 49.856L746.385 49.892C745.585 49.924 745.029 50.052 744.717 50.276C744.413 50.5 744.261 50.816 744.261 51.224C744.261 51.584 744.369 51.848 744.585 52.016C744.809 52.184 745.093 52.268 745.437 52.268C745.973 52.268 746.421 52.12 746.781 51.824C747.149 51.52 747.333 51.056 747.333 50.432V49.856ZM750.904 44.156C751.064 44.156 751.204 44.212 751.324 44.324C751.452 44.428 751.516 44.596 751.516 44.828C751.516 45.06 751.452 45.232 751.324 45.344C751.204 45.448 751.064 45.5 750.904 45.5C750.728 45.5 750.58 45.448 750.46 45.344C750.34 45.232 750.28 45.06 750.28 44.828C750.28 44.596 750.34 44.428 750.46 44.324C750.58 44.212 750.728 44.156 750.904 44.156ZM751.42 46.568V53H750.364V46.568H751.42ZM756.554 46.448C757.322 46.448 757.902 46.636 758.294 47.012C758.686 47.388 758.882 47.988 758.882 48.812V53H757.838V48.884C757.838 47.852 757.358 47.336 756.398 47.336C755.686 47.336 755.194 47.536 754.922 47.936C754.65 48.336 754.514 48.912 754.514 49.664V53H753.458V46.568H754.31L754.466 47.444H754.526C754.734 47.108 755.022 46.86 755.39 46.7C755.758 46.532 756.146 46.448 756.554 46.448Z" fill="#323232"/>
<rect x="600.5" y="60.5" width="263" height="35" rx="1.5" fill="white"/>
<path d="M616.97 83H615.766V76.014C615.766 75.6127 615.771 75.2907 615.78 75.048C615.789 74.8053 615.803 74.5533 615.822 74.292C615.673 74.4413 615.533 74.5673 615.402 74.67C615.281 74.7727 615.131 74.9033 614.954 75.062L613.89 75.93L613.246 75.104L615.948 73.004H616.97V83ZM627.292 83H620.684V81.978L623.302 79.332C623.796 78.828 624.216 78.38 624.562 77.988C624.916 77.596 625.182 77.2133 625.36 76.84C625.537 76.4667 625.626 76.0513 625.626 75.594C625.626 75.0433 625.462 74.628 625.136 74.348C624.809 74.0587 624.384 73.914 623.862 73.914C623.367 73.914 622.938 73.998 622.574 74.166C622.21 74.334 621.836 74.5673 621.454 74.866L620.796 74.04C621.188 73.7133 621.636 73.438 622.14 73.214C622.653 72.9807 623.227 72.864 623.862 72.864C624.795 72.864 625.532 73.102 626.074 73.578C626.615 74.054 626.886 74.7027 626.886 75.524C626.886 76.0467 626.778 76.5367 626.564 76.994C626.349 77.4513 626.05 77.904 625.668 78.352C625.285 78.8 624.837 79.2713 624.324 79.766L622.238 81.824V81.88H627.292V83ZM634.925 75.342C634.925 76.014 634.734 76.5507 634.351 76.952C633.978 77.344 633.479 77.6053 632.853 77.736V77.792C633.647 77.8853 634.239 78.1373 634.631 78.548C635.033 78.9587 635.233 79.4953 635.233 80.158C635.233 80.746 635.098 81.264 634.827 81.712C634.557 82.16 634.137 82.51 633.567 82.762C633.007 83.014 632.284 83.14 631.397 83.14C630.875 83.14 630.389 83.098 629.941 83.014C629.493 82.9393 629.064 82.7993 628.653 82.594V81.446C629.073 81.6607 629.526 81.824 630.011 81.936C630.497 82.048 630.963 82.104 631.411 82.104C632.307 82.104 632.951 81.9313 633.343 81.586C633.745 81.2313 633.945 80.746 633.945 80.13C633.945 79.5047 633.698 79.0567 633.203 78.786C632.718 78.506 632.032 78.366 631.145 78.366H630.179V77.316H631.159C631.981 77.316 632.601 77.1433 633.021 76.798C633.451 76.4527 633.665 75.9953 633.665 75.426C633.665 74.9407 633.502 74.5673 633.175 74.306C632.849 74.0353 632.405 73.9 631.845 73.9C631.304 73.9 630.842 73.9793 630.459 74.138C630.077 74.2967 629.699 74.4973 629.325 74.74L628.709 73.9C629.064 73.62 629.503 73.3773 630.025 73.172C630.557 72.9667 631.159 72.864 631.831 72.864C632.877 72.864 633.651 73.0973 634.155 73.564C634.669 74.0307 634.925 74.6233 634.925 75.342ZM641.005 83H639.801V76.014C639.801 75.6127 639.806 75.2907 639.815 75.048C639.824 74.8053 639.838 74.5533 639.857 74.292C639.708 74.4413 639.568 74.5673 639.437 74.67C639.316 74.7727 639.166 74.9033 638.989 75.062L637.925 75.93L637.281 75.104L639.983 73.004H641.005V83ZM651.327 83H644.719V81.978L647.337 79.332C647.832 78.828 648.252 78.38 648.597 77.988C648.952 77.596 649.218 77.2133 649.395 76.84C649.572 76.4667 649.661 76.0513 649.661 75.594C649.661 75.0433 649.498 74.628 649.171 74.348C648.844 74.0587 648.42 73.914 647.897 73.914C647.402 73.914 646.973 73.998 646.609 74.166C646.245 74.334 645.872 74.5673 645.489 74.866L644.831 74.04C645.223 73.7133 645.671 73.438 646.175 73.214C646.688 72.9807 647.262 72.864 647.897 72.864C648.83 72.864 649.568 73.102 650.109 73.578C650.65 74.054 650.921 74.7027 650.921 75.524C650.921 76.0467 650.814 76.5367 650.599 76.994C650.384 77.4513 650.086 77.904 649.703 78.352C649.32 78.8 648.872 79.2713 648.359 79.766L646.273 81.824V81.88H651.327V83Z" fill="black"/>
<rect x="600.5" y="60.5" width="263" height="35" rx="1.5" stroke="#939393"/>
<path d="M48.028 120.632C48.028 122.08 47.632 123.172 46.84 123.908C46.056 124.636 44.96 125 43.552 125H41.164V116.432H43.804C44.66 116.432 45.404 116.592 46.036 116.912C46.676 117.232 47.168 117.704 47.512 118.328C47.856 118.952 48.028 119.72 48.028 120.632ZM46.888 120.668C46.888 119.524 46.604 118.688 46.036 118.16C45.476 117.624 44.68 117.356 43.648 117.356H42.244V124.076H43.408C45.728 124.076 46.888 122.94 46.888 120.668ZM52.2696 118.448C52.8136 118.448 53.2856 118.568 53.6856 118.808C54.0856 119.048 54.3896 119.388 54.5976 119.828C54.8136 120.26 54.9216 120.768 54.9216 121.352V121.988H50.5176C50.5336 122.716 50.7176 123.272 51.0696 123.656C51.4296 124.032 51.9296 124.22 52.5696 124.22C52.9776 124.22 53.3376 124.184 53.6496 124.112C53.9696 124.032 54.2976 123.92 54.6336 123.776V124.7C54.3056 124.844 53.9816 124.948 53.6616 125.012C53.3416 125.084 52.9616 125.12 52.5216 125.12C51.9056 125.12 51.3656 124.996 50.9016 124.748C50.4376 124.5 50.0736 124.132 49.8096 123.644C49.5536 123.156 49.4256 122.552 49.4256 121.832C49.4256 121.128 49.5416 120.524 49.7736 120.02C50.0136 119.516 50.3456 119.128 50.7696 118.856C51.2016 118.584 51.7016 118.448 52.2696 118.448ZM52.2576 119.312C51.7536 119.312 51.3536 119.476 51.0576 119.804C50.7696 120.124 50.5976 120.572 50.5416 121.148H53.8176C53.8096 120.604 53.6816 120.164 53.4336 119.828C53.1856 119.484 52.7936 119.312 52.2576 119.312ZM60.7471 123.224C60.7471 123.848 60.5151 124.32 60.0511 124.64C59.5871 124.96 58.9631 125.12 58.1791 125.12C57.7311 125.12 57.3431 125.084 57.0151 125.012C56.6951 124.94 56.4111 124.84 56.1631 124.712V123.752C56.4191 123.88 56.7271 124 57.0871 124.112C57.4551 124.216 57.8271 124.268 58.2031 124.268C58.7391 124.268 59.1271 124.184 59.3671 124.016C59.6071 123.84 59.7271 123.608 59.7271 123.32C59.7271 123.16 59.6831 123.016 59.5951 122.888C59.5071 122.76 59.3471 122.632 59.1151 122.504C58.8911 122.376 58.5671 122.232 58.1431 122.072C57.7271 121.912 57.3711 121.752 57.0751 121.592C56.7791 121.432 56.5511 121.24 56.3911 121.016C56.2311 120.792 56.1511 120.504 56.1511 120.152C56.1511 119.608 56.3711 119.188 56.8111 118.892C57.2591 118.596 57.8431 118.448 58.5631 118.448C58.9551 118.448 59.3191 118.488 59.6551 118.568C59.9991 118.648 60.3191 118.752 60.6151 118.88L60.2551 119.72C59.9831 119.608 59.6991 119.512 59.4031 119.432C59.1071 119.352 58.8031 119.312 58.4911 119.312C58.0591 119.312 57.7271 119.384 57.4951 119.528C57.2711 119.664 57.1591 119.852 57.1591 120.092C57.1591 120.276 57.2111 120.428 57.3151 120.548C57.4191 120.668 57.5911 120.788 57.8311 120.908C58.0791 121.028 58.4071 121.164 58.8151 121.316C59.2231 121.468 59.5711 121.624 59.8591 121.784C60.1471 121.944 60.3671 122.14 60.5191 122.372C60.6711 122.596 60.7471 122.88 60.7471 123.224ZM64.8813 125.12C64.3053 125.12 63.7973 125.004 63.3573 124.772C62.9173 124.54 62.5693 124.18 62.3133 123.692C62.0653 123.204 61.9413 122.58 61.9413 121.82C61.9413 121.028 62.0693 120.384 62.3253 119.888C62.5893 119.392 62.9493 119.028 63.4053 118.796C63.8613 118.564 64.3773 118.448 64.9533 118.448C65.2733 118.448 65.5853 118.484 65.8893 118.556C66.2013 118.62 66.4533 118.7 66.6453 118.796L66.3213 119.672C66.1293 119.6 65.9053 119.532 65.6493 119.468C65.3933 119.404 65.1533 119.372 64.9293 119.372C63.6653 119.372 63.0333 120.184 63.0333 121.808C63.0333 122.584 63.1853 123.18 63.4893 123.596C63.8013 124.004 64.2613 124.208 64.8693 124.208C65.2133 124.208 65.5213 124.172 65.7933 124.1C66.0653 124.028 66.3133 123.94 66.5373 123.836V124.772C66.3213 124.884 66.0813 124.968 65.8173 125.024C65.5613 125.088 65.2493 125.12 64.8813 125.12ZM71.0669 118.448C71.1869 118.448 71.3149 118.456 71.4509 118.472C71.5869 118.48 71.7109 118.496 71.8229 118.52L71.6909 119.492C71.5869 119.468 71.4709 119.448 71.3429 119.432C71.2149 119.416 71.0989 119.408 70.9949 119.408C70.6669 119.408 70.3589 119.5 70.0709 119.684C69.7829 119.86 69.5509 120.112 69.3749 120.44C69.2069 120.76 69.1229 121.136 69.1229 121.568V125H68.0669V118.568H68.9309L69.0509 119.744H69.0989C69.2989 119.392 69.5629 119.088 69.8909 118.832C70.2269 118.576 70.6189 118.448 71.0669 118.448ZM73.5639 116.156C73.7239 116.156 73.8639 116.212 73.9839 116.324C74.1119 116.428 74.1759 116.596 74.1759 116.828C74.1759 117.06 74.1119 117.232 73.9839 117.344C73.8639 117.448 73.7239 117.5 73.5639 117.5C73.3879 117.5 73.2399 117.448 73.1199 117.344C72.9999 117.232 72.9399 117.06 72.9399 116.828C72.9399 116.596 72.9999 116.428 73.1199 116.324C73.2399 116.212 73.3879 116.156 73.5639 116.156ZM74.0799 118.568V125H73.0239V118.568H74.0799ZM79.1777 118.448C79.9697 118.448 80.6057 118.724 81.0857 119.276C81.5737 119.828 81.8177 120.66 81.8177 121.772C81.8177 122.868 81.5737 123.7 81.0857 124.268C80.6057 124.836 79.9657 125.12 79.1657 125.12C78.6697 125.12 78.2577 125.028 77.9297 124.844C77.6097 124.66 77.3577 124.44 77.1737 124.184H77.1017C77.1097 124.32 77.1217 124.492 77.1377 124.7C77.1617 124.908 77.1737 125.088 77.1737 125.24V127.88H76.1177V118.568H76.9817L77.1257 119.444H77.1737C77.3657 119.164 77.6177 118.928 77.9297 118.736C78.2417 118.544 78.6577 118.448 79.1777 118.448ZM78.9857 119.336C78.3297 119.336 77.8657 119.52 77.5937 119.888C77.3217 120.256 77.1817 120.816 77.1737 121.568V121.772C77.1737 122.564 77.3017 123.176 77.5577 123.608C77.8217 124.032 78.3057 124.244 79.0097 124.244C79.3937 124.244 79.7137 124.14 79.9697 123.932C80.2257 123.716 80.4137 123.42 80.5337 123.044C80.6617 122.668 80.7257 122.24 80.7257 121.76C80.7257 121.024 80.5817 120.436 80.2937 119.996C80.0137 119.556 79.5777 119.336 78.9857 119.336ZM85.6485 124.256C85.8085 124.256 85.9725 124.244 86.1405 124.22C86.3085 124.196 86.4445 124.164 86.5485 124.124V124.928C86.4365 124.984 86.2765 125.028 86.0685 125.06C85.8605 125.1 85.6605 125.12 85.4685 125.12C85.1325 125.12 84.8205 125.064 84.5325 124.952C84.2525 124.832 84.0245 124.628 83.8485 124.34C83.6725 124.052 83.5845 123.648 83.5845 123.128V119.384H82.6725V118.88L83.5965 118.46L84.0165 117.092H84.6405V118.568H86.5005V119.384H84.6405V123.104C84.6405 123.496 84.7325 123.788 84.9165 123.98C85.1085 124.164 85.3525 124.256 85.6485 124.256ZM88.3764 116.156C88.5364 116.156 88.6764 116.212 88.7964 116.324C88.9244 116.428 88.9884 116.596 88.9884 116.828C88.9884 117.06 88.9244 117.232 88.7964 117.344C88.6764 117.448 88.5364 117.5 88.3764 117.5C88.2004 117.5 88.0524 117.448 87.9324 117.344C87.8124 117.232 87.7524 117.06 87.7524 116.828C87.7524 116.596 87.8124 116.428 87.9324 116.324C88.0524 116.212 88.2004 116.156 88.3764 116.156ZM88.8924 118.568V125H87.8364V118.568H88.8924ZM96.5222 121.772C96.5222 122.836 96.2502 123.66 95.7062 124.244C95.1702 124.828 94.4422 125.12 93.5222 125.12C92.9542 125.12 92.4462 124.992 91.9982 124.736C91.5582 124.472 91.2102 124.092 90.9542 123.596C90.6982 123.092 90.5702 122.484 90.5702 121.772C90.5702 120.708 90.8342 119.888 91.3622 119.312C91.8982 118.736 92.6302 118.448 93.5582 118.448C94.1342 118.448 94.6462 118.58 95.0942 118.844C95.5422 119.1 95.8902 119.476 96.1382 119.972C96.3942 120.46 96.5222 121.06 96.5222 121.772ZM91.6622 121.772C91.6622 122.532 91.8102 123.136 92.1062 123.584C92.4102 124.024 92.8902 124.244 93.5462 124.244C94.1942 124.244 94.6702 124.024 94.9742 123.584C95.2782 123.136 95.4302 122.532 95.4302 121.772C95.4302 121.012 95.2782 120.416 94.9742 119.984C94.6702 119.552 94.1902 119.336 93.5342 119.336C92.8782 119.336 92.4022 119.552 92.1062 119.984C91.8102 120.416 91.6622 121.012 91.6622 121.772ZM101.292 118.448C102.06 118.448 102.64 118.636 103.032 119.012C103.424 119.388 103.62 119.988 103.62 120.812V125H102.576V120.884C102.576 119.852 102.096 119.336 101.136 119.336C100.424 119.336 99.9318 119.536 99.6598 119.936C99.3878 120.336 99.2518 120.912 99.2518 121.664V125H98.1958V118.568H99.0478L99.2038 119.444H99.2638C99.4718 119.108 99.7598 118.86 100.128 118.7C100.496 118.532 100.884 118.448 101.292 118.448Z" fill="#323232"/>
<rect x="40.5" y="132.5" width="263" height="74" rx="1.5" fill="white"/>
<path d="M56.522 155H55.262V146.11H52.14V145.004H59.63V146.11H56.522V155ZM62.8829 147.356C63.5176 147.356 64.0683 147.496 64.5349 147.776C65.0016 148.056 65.3563 148.453 65.5989 148.966C65.8509 149.47 65.9769 150.063 65.9769 150.744V151.486H60.8389C60.8576 152.335 61.0723 152.984 61.4829 153.432C61.9029 153.871 62.4863 154.09 63.2329 154.09C63.7089 154.09 64.1289 154.048 64.4929 153.964C64.8663 153.871 65.2489 153.74 65.6409 153.572V154.65C65.2583 154.818 64.8803 154.939 64.5069 155.014C64.1336 155.098 63.6903 155.14 63.1769 155.14C62.4583 155.14 61.8283 154.995 61.2869 154.706C60.7456 154.417 60.3209 153.987 60.0129 153.418C59.7143 152.849 59.5649 152.144 59.5649 151.304C59.5649 150.483 59.7003 149.778 59.9709 149.19C60.2509 148.602 60.6383 148.149 61.1329 147.832C61.6369 147.515 62.2203 147.356 62.8829 147.356ZM62.8689 148.364C62.2809 148.364 61.8143 148.555 61.4689 148.938C61.1329 149.311 60.9323 149.834 60.8669 150.506H64.6889C64.6796 149.871 64.5303 149.358 64.2409 148.966C63.9516 148.565 63.4943 148.364 62.8689 148.364ZM69.3918 151.164L66.8018 147.496H68.2018L70.1338 150.324L72.0518 147.496H73.4378L70.8478 151.164L73.5778 155H72.1778L70.1338 152.004L68.0618 155H66.6758L69.3918 151.164ZM77.53 154.132C77.7167 154.132 77.908 154.118 78.104 154.09C78.3 154.062 78.4587 154.025 78.58 153.978V154.916C78.4493 154.981 78.2627 155.033 78.02 155.07C77.7773 155.117 77.544 155.14 77.32 155.14C76.928 155.14 76.564 155.075 76.228 154.944C75.9013 154.804 75.6353 154.566 75.43 154.23C75.2247 153.894 75.122 153.423 75.122 152.816V148.448H74.058V147.86L75.136 147.37L75.626 145.774H76.354V147.496H78.524V148.448H76.354V152.788C76.354 153.245 76.4613 153.586 76.676 153.81C76.9 154.025 77.1847 154.132 77.53 154.132Z" fill="black"/>
<rect x="40.5" y="132.5" width="263" height="74" rx="1.5" stroke="#939393"/>
<path d="M323.432 116.432C324.552 116.432 325.368 116.652 325.88 117.092C326.392 117.532 326.648 118.152 326.648 118.952C326.648 119.424 326.54 119.868 326.324 120.284C326.116 120.692 325.76 121.024 325.256 121.28C324.76 121.536 324.084 121.664 323.228 121.664H322.244V125H321.164V116.432H323.432ZM323.336 117.356H322.244V120.74H323.108C323.924 120.74 324.532 120.608 324.932 120.344C325.332 120.08 325.532 119.632 325.532 119C325.532 118.448 325.352 118.036 324.992 117.764C324.64 117.492 324.088 117.356 323.336 117.356ZM331.286 118.448C331.406 118.448 331.534 118.456 331.67 118.472C331.806 118.48 331.93 118.496 332.042 118.52L331.91 119.492C331.806 119.468 331.69 119.448 331.562 119.432C331.434 119.416 331.318 119.408 331.214 119.408C330.886 119.408 330.578 119.5 330.29 119.684C330.002 119.86 329.77 120.112 329.594 120.44C329.426 120.76 329.342 121.136 329.342 121.568V125H328.286V118.568H329.15L329.27 119.744H329.318C329.518 119.392 329.782 119.088 330.11 118.832C330.446 118.576 330.838 118.448 331.286 118.448ZM338.6 121.772C338.6 122.836 338.328 123.66 337.784 124.244C337.248 124.828 336.52 125.12 335.6 125.12C335.032 125.12 334.524 124.992 334.076 124.736C333.636 124.472 333.288 124.092 333.032 123.596C332.776 123.092 332.648 122.484 332.648 121.772C332.648 120.708 332.912 119.888 333.44 119.312C333.976 118.736 334.708 118.448 335.636 118.448C336.212 118.448 336.724 118.58 337.172 118.844C337.62 119.1 337.968 119.476 338.216 119.972C338.472 120.46 338.6 121.06 338.6 121.772ZM333.74 121.772C333.74 122.532 333.888 123.136 334.184 123.584C334.488 124.024 334.968 124.244 335.624 124.244C336.272 124.244 336.748 124.024 337.052 123.584C337.356 123.136 337.508 122.532 337.508 121.772C337.508 121.012 337.356 120.416 337.052 119.984C336.748 119.552 336.268 119.336 335.612 119.336C334.956 119.336 334.48 119.552 334.184 119.984C333.888 120.416 333.74 121.012 333.74 121.772ZM343.238 119.384H341.618V125H340.562V119.384H339.434V118.892L340.562 118.532V118.16C340.562 117.328 340.742 116.732 341.102 116.372C341.47 116.004 341.986 115.82 342.65 115.82C342.898 115.82 343.13 115.844 343.346 115.892C343.562 115.932 343.746 115.98 343.898 116.036L343.622 116.864C343.494 116.824 343.346 116.784 343.178 116.744C343.01 116.704 342.838 116.684 342.662 116.684C342.31 116.684 342.046 116.804 341.87 117.044C341.702 117.276 341.618 117.644 341.618 118.148V118.568H343.238V119.384ZM344.939 116.156C345.099 116.156 345.239 116.212 345.359 116.324C345.487 116.428 345.551 116.596 345.551 116.828C345.551 117.06 345.487 117.232 345.359 117.344C345.239 117.448 345.099 117.5 344.939 117.5C344.763 117.5 344.615 117.448 344.495 117.344C344.375 117.232 344.315 117.06 344.315 116.828C344.315 116.596 344.375 116.428 344.495 116.324C344.615 116.212 344.763 116.156 344.939 116.156ZM345.455 118.568V125H344.399V118.568H345.455ZM348.549 125H347.493V115.88H348.549V125ZM353.07 118.448C353.614 118.448 354.086 118.568 354.486 118.808C354.886 119.048 355.19 119.388 355.398 119.828C355.614 120.26 355.722 120.768 355.722 121.352V121.988H351.318C351.334 122.716 351.518 123.272 351.87 123.656C352.23 124.032 352.73 124.22 353.37 124.22C353.778 124.22 354.138 124.184 354.45 124.112C354.77 124.032 355.098 123.92 355.434 123.776V124.7C355.106 124.844 354.782 124.948 354.462 125.012C354.142 125.084 353.762 125.12 353.322 125.12C352.706 125.12 352.166 124.996 351.702 124.748C351.238 124.5 350.874 124.132 350.61 123.644C350.354 123.156 350.226 122.552 350.226 121.832C350.226 121.128 350.342 120.524 350.574 120.02C350.814 119.516 351.146 119.128 351.57 118.856C352.002 118.584 352.502 118.448 353.07 118.448ZM353.058 119.312C352.554 119.312 352.154 119.476 351.858 119.804C351.57 120.124 351.398 120.572 351.342 121.148H354.618C354.61 120.604 354.482 120.164 354.234 119.828C353.986 119.484 353.594 119.312 353.058 119.312Z" fill="#323232"/>
<rect x="320.5" y="132.5" width="263" height="35" rx="1.5" fill="white"/>
<path d="M339.63 155L338.426 151.906H334.464L333.274 155H332L335.906 144.962H337.04L340.932 155H339.63ZM338.048 150.786L336.928 147.762C336.9 147.687 336.853 147.552 336.788 147.356C336.723 147.16 336.657 146.959 336.592 146.754C336.536 146.539 336.489 146.376 336.452 146.264C336.377 146.553 336.298 146.838 336.214 147.118C336.139 147.389 336.074 147.603 336.018 147.762L334.884 150.786H338.048ZM345.141 155.14C344.469 155.14 343.877 155.005 343.363 154.734C342.85 154.463 342.444 154.043 342.145 153.474C341.856 152.905 341.711 152.177 341.711 151.29C341.711 150.366 341.861 149.615 342.159 149.036C342.467 148.457 342.887 148.033 343.419 147.762C343.951 147.491 344.553 147.356 345.225 147.356C345.599 147.356 345.963 147.398 346.317 147.482C346.681 147.557 346.975 147.65 347.199 147.762L346.821 148.784C346.597 148.7 346.336 148.621 346.037 148.546C345.739 148.471 345.459 148.434 345.197 148.434C343.723 148.434 342.985 149.381 342.985 151.276C342.985 152.181 343.163 152.877 343.517 153.362C343.881 153.838 344.418 154.076 345.127 154.076C345.529 154.076 345.888 154.034 346.205 153.95C346.523 153.866 346.812 153.763 347.073 153.642V154.734C346.821 154.865 346.541 154.963 346.233 155.028C345.935 155.103 345.571 155.14 345.141 155.14ZM357.09 147.356C357.939 147.356 358.574 147.575 358.994 148.014C359.414 148.453 359.624 149.153 359.624 150.114V155H358.406V150.17C358.406 148.985 357.897 148.392 356.88 148.392C356.152 148.392 355.629 148.602 355.312 149.022C355.004 149.442 354.85 150.053 354.85 150.856V155H353.632V150.17C353.632 148.985 353.119 148.392 352.092 148.392C351.336 148.392 350.813 148.625 350.524 149.092C350.235 149.559 350.09 150.231 350.09 151.108V155H348.858V147.496H349.852L350.034 148.518H350.104C350.337 148.126 350.65 147.837 351.042 147.65C351.443 147.454 351.868 147.356 352.316 147.356C353.492 147.356 354.257 147.776 354.612 148.616H354.682C354.934 148.187 355.275 147.869 355.704 147.664C356.133 147.459 356.595 147.356 357.09 147.356ZM364.84 147.356C365.475 147.356 366.025 147.496 366.492 147.776C366.959 148.056 367.313 148.453 367.556 148.966C367.808 149.47 367.934 150.063 367.934 150.744V151.486H362.796C362.815 152.335 363.029 152.984 363.44 153.432C363.86 153.871 364.443 154.09 365.19 154.09C365.666 154.09 366.086 154.048 366.45 153.964C366.823 153.871 367.206 153.74 367.598 153.572V154.65C367.215 154.818 366.837 154.939 366.464 155.014C366.091 155.098 365.647 155.14 365.134 155.14C364.415 155.14 363.785 154.995 363.244 154.706C362.703 154.417 362.278 153.987 361.97 153.418C361.671 152.849 361.522 152.144 361.522 151.304C361.522 150.483 361.657 149.778 361.928 149.19C362.208 148.602 362.595 148.149 363.09 147.832C363.594 147.515 364.177 147.356 364.84 147.356ZM364.826 148.364C364.238 148.364 363.771 148.555 363.426 148.938C363.09 149.311 362.889 149.834 362.824 150.506H366.646C366.637 149.871 366.487 149.358 366.198 148.966C365.909 148.565 365.451 148.364 364.826 148.364ZM376.463 155H372.851V154.272L374.027 154.006V146.012L372.851 145.732V145.004H376.463V145.732L375.287 146.012V154.006L376.463 154.272V155ZM381.837 147.356C382.733 147.356 383.41 147.575 383.867 148.014C384.324 148.453 384.553 149.153 384.553 150.114V155H383.335V150.198C383.335 148.994 382.775 148.392 381.655 148.392C380.824 148.392 380.25 148.625 379.933 149.092C379.616 149.559 379.457 150.231 379.457 151.108V155H378.225V147.496H379.219L379.401 148.518H379.471C379.714 148.126 380.05 147.837 380.479 147.65C380.908 147.454 381.361 147.356 381.837 147.356ZM391.765 152.928C391.765 153.656 391.495 154.207 390.953 154.58C390.412 154.953 389.684 155.14 388.769 155.14C388.247 155.14 387.794 155.098 387.411 155.014C387.038 154.93 386.707 154.813 386.417 154.664V153.544C386.716 153.693 387.075 153.833 387.495 153.964C387.925 154.085 388.359 154.146 388.797 154.146C389.423 154.146 389.875 154.048 390.155 153.852C390.435 153.647 390.575 153.376 390.575 153.04C390.575 152.853 390.524 152.685 390.421 152.536C390.319 152.387 390.132 152.237 389.861 152.088C389.6 151.939 389.222 151.771 388.727 151.584C388.242 151.397 387.827 151.211 387.481 151.024C387.136 150.837 386.87 150.613 386.683 150.352C386.497 150.091 386.403 149.755 386.403 149.344C386.403 148.709 386.66 148.219 387.173 147.874C387.696 147.529 388.377 147.356 389.217 147.356C389.675 147.356 390.099 147.403 390.491 147.496C390.893 147.589 391.266 147.711 391.611 147.86L391.191 148.84C390.874 148.709 390.543 148.597 390.197 148.504C389.852 148.411 389.497 148.364 389.133 148.364C388.629 148.364 388.242 148.448 387.971 148.616C387.71 148.775 387.579 148.994 387.579 149.274C387.579 149.489 387.64 149.666 387.761 149.806C387.883 149.946 388.083 150.086 388.363 150.226C388.653 150.366 389.035 150.525 389.511 150.702C389.987 150.879 390.393 151.061 390.729 151.248C391.065 151.435 391.322 151.663 391.499 151.934C391.677 152.195 391.765 152.527 391.765 152.928ZM399.851 147.496V155H398.843L398.661 154.006H398.605C398.362 154.398 398.026 154.687 397.597 154.874C397.167 155.051 396.71 155.14 396.225 155.14C395.319 155.14 394.638 154.925 394.181 154.496C393.723 154.057 393.495 153.362 393.495 152.41V147.496H394.741V152.326C394.741 153.521 395.296 154.118 396.407 154.118C397.237 154.118 397.811 153.885 398.129 153.418C398.455 152.951 398.619 152.279 398.619 151.402V147.496H399.851ZM405.733 147.356C405.873 147.356 406.022 147.365 406.181 147.384C406.34 147.393 406.484 147.412 406.615 147.44L406.461 148.574C406.34 148.546 406.204 148.523 406.055 148.504C405.906 148.485 405.77 148.476 405.649 148.476C405.266 148.476 404.907 148.583 404.571 148.798C404.235 149.003 403.964 149.297 403.759 149.68C403.563 150.053 403.465 150.492 403.465 150.996V155H402.233V147.496H403.241L403.381 148.868H403.437C403.67 148.457 403.978 148.103 404.361 147.804C404.753 147.505 405.21 147.356 405.733 147.356ZM410.585 147.37C411.499 147.37 412.176 147.571 412.615 147.972C413.053 148.373 413.273 149.013 413.273 149.89V155H412.377L412.139 153.936H412.083C411.756 154.347 411.411 154.65 411.047 154.846C410.683 155.042 410.188 155.14 409.563 155.14C408.881 155.14 408.317 154.963 407.869 154.608C407.421 154.244 407.197 153.679 407.197 152.914C407.197 152.167 407.491 151.593 408.079 151.192C408.667 150.781 409.572 150.557 410.795 150.52L412.069 150.478V150.03C412.069 149.405 411.933 148.971 411.663 148.728C411.392 148.485 411.009 148.364 410.515 148.364C410.123 148.364 409.749 148.425 409.395 148.546C409.04 148.658 408.709 148.789 408.401 148.938L408.023 148.014C408.349 147.837 408.737 147.687 409.185 147.566C409.633 147.435 410.099 147.37 410.585 147.37ZM412.055 151.332L410.949 151.374C410.015 151.411 409.367 151.561 409.003 151.822C408.648 152.083 408.471 152.452 408.471 152.928C408.471 153.348 408.597 153.656 408.849 153.852C409.11 154.048 409.441 154.146 409.843 154.146C410.468 154.146 410.991 153.973 411.411 153.628C411.84 153.273 412.055 152.732 412.055 152.004V151.332ZM419.202 147.356C420.098 147.356 420.775 147.575 421.232 148.014C421.69 148.453 421.918 149.153 421.918 150.114V155H420.7V150.198C420.7 148.994 420.14 148.392 419.02 148.392C418.19 148.392 417.616 148.625 417.298 149.092C416.981 149.559 416.822 150.231 416.822 151.108V155H415.59V147.496H416.584L416.766 148.518H416.836C417.079 148.126 417.415 147.837 417.844 147.65C418.274 147.454 418.726 147.356 419.202 147.356ZM427.255 155.14C426.583 155.14 425.99 155.005 425.477 154.734C424.963 154.463 424.557 154.043 424.259 153.474C423.969 152.905 423.825 152.177 423.825 151.29C423.825 150.366 423.974 149.615 424.273 149.036C424.581 148.457 425.001 148.033 425.533 147.762C426.065 147.491 426.667 147.356 427.339 147.356C427.712 147.356 428.076 147.398 428.431 147.482C428.795 147.557 429.089 147.65 429.313 147.762L428.935 148.784C428.711 148.7 428.449 148.621 428.151 148.546C427.852 148.471 427.572 148.434 427.311 148.434C425.836 148.434 425.099 149.381 425.099 151.276C425.099 152.181 425.276 152.877 425.631 153.362C425.995 153.838 426.531 154.076 427.241 154.076C427.642 154.076 428.001 154.034 428.319 153.95C428.636 153.866 428.925 153.763 429.187 153.642V154.734C428.935 154.865 428.655 154.963 428.347 155.028C428.048 155.103 427.684 155.14 427.255 155.14ZM433.869 147.356C434.504 147.356 435.055 147.496 435.521 147.776C435.988 148.056 436.343 148.453 436.585 148.966C436.837 149.47 436.963 150.063 436.963 150.744V151.486H431.825C431.844 152.335 432.059 152.984 432.469 153.432C432.889 153.871 433.473 154.09 434.219 154.09C434.695 154.09 435.115 154.048 435.479 153.964C435.853 153.871 436.235 153.74 436.627 153.572V154.65C436.245 154.818 435.867 154.939 435.493 155.014C435.12 155.098 434.677 155.14 434.163 155.14C433.445 155.14 432.815 154.995 432.273 154.706C431.732 154.417 431.307 153.987 430.999 153.418C430.701 152.849 430.551 152.144 430.551 151.304C430.551 150.483 430.687 149.778 430.957 149.19C431.237 148.602 431.625 148.149 432.119 147.832C432.623 147.515 433.207 147.356 433.869 147.356ZM433.855 148.364C433.267 148.364 432.801 148.555 432.455 148.938C432.119 149.311 431.919 149.834 431.853 150.506H435.675C435.666 149.871 435.517 149.358 435.227 148.966C434.938 148.565 434.481 148.364 433.855 148.364Z" fill="black"/>
<rect x="320.5" y="132.5" width="263" height="35" rx="1.5" stroke="#939393"/>
</svg>
