<svg width="412" height="208" viewBox="0 0 412 208" fill="none" xmlns="http://www.w3.org/2000/svg">
<rect width="412" height="208" fill="white"/>
<path d="M22.956 53H21.696L17.112 45.884H17.064C17.08 46.164 17.1 46.512 17.124 46.928C17.148 47.344 17.16 47.772 17.16 48.212V53H16.164V44.432H17.412L21.984 51.524H22.032C22.024 51.396 22.012 51.204 21.996 50.948C21.988 50.692 21.976 50.416 21.96 50.12C21.952 49.816 21.948 49.532 21.948 49.268V44.432H22.956V53ZM27.5732 46.46C28.3572 46.46 28.9372 46.632 29.3132 46.976C29.6892 47.32 29.8772 47.868 29.8772 48.62V53H29.1092L28.9052 52.088H28.8572C28.5772 52.44 28.2812 52.7 27.9692 52.868C27.6572 53.036 27.2332 53.12 26.6972 53.12C26.1132 53.12 25.6292 52.968 25.2452 52.664C24.8612 52.352 24.6692 51.868 24.6692 51.212C24.6692 50.572 24.9212 50.08 25.4252 49.736C25.9292 49.384 26.7052 49.192 27.7532 49.16L28.8452 49.124V48.74C28.8452 48.204 28.7292 47.832 28.4972 47.624C28.2652 47.416 27.9372 47.312 27.5132 47.312C27.1772 47.312 26.8572 47.364 26.5532 47.468C26.2492 47.564 25.9652 47.676 25.7012 47.804L25.3772 47.012C25.6572 46.86 25.9892 46.732 26.3732 46.628C26.7572 46.516 27.1572 46.46 27.5732 46.46ZM28.8332 49.856L27.8852 49.892C27.0852 49.924 26.5292 50.052 26.2172 50.276C25.9132 50.5 25.7612 50.816 25.7612 51.224C25.7612 51.584 25.8692 51.848 26.0852 52.016C26.3092 52.184 26.5932 52.268 26.9372 52.268C27.4732 52.268 27.9212 52.12 28.2812 51.824C28.6492 51.52 28.8332 51.056 28.8332 50.432V49.856ZM38.9198 46.448C39.6478 46.448 40.1918 46.636 40.5518 47.012C40.9118 47.388 41.0918 47.988 41.0918 48.812V53H40.0478V48.86C40.0478 47.844 39.6118 47.336 38.7398 47.336C38.1158 47.336 37.6678 47.516 37.3958 47.876C37.1318 48.236 36.9998 48.76 36.9998 49.448V53H35.9558V48.86C35.9558 47.844 35.5158 47.336 34.6358 47.336C33.9878 47.336 33.5398 47.536 33.2918 47.936C33.0438 48.336 32.9198 48.912 32.9198 49.664V53H31.8638V46.568H32.7158L32.8718 47.444H32.9318C33.1318 47.108 33.3998 46.86 33.7358 46.7C34.0798 46.532 34.4438 46.448 34.8278 46.448C35.8358 46.448 36.4918 46.808 36.7958 47.528H36.8558C37.0718 47.16 37.3637 46.888 37.7318 46.712C38.0998 46.536 38.4958 46.448 38.9198 46.448ZM45.5626 46.448C46.1066 46.448 46.5786 46.568 46.9786 46.808C47.3786 47.048 47.6826 47.388 47.8906 47.828C48.1066 48.26 48.2146 48.768 48.2146 49.352V49.988H43.8106C43.8266 50.716 44.0106 51.272 44.3626 51.656C44.7226 52.032 45.2226 52.22 45.8626 52.22C46.2706 52.22 46.6306 52.184 46.9426 52.112C47.2626 52.032 47.5906 51.92 47.9266 51.776V52.7C47.5986 52.844 47.2746 52.948 46.9546 53.012C46.6346 53.084 46.2546 53.12 45.8146 53.12C45.1986 53.12 44.6586 52.996 44.1946 52.748C43.7306 52.5 43.3666 52.132 43.1026 51.644C42.8466 51.156 42.7186 50.552 42.7186 49.832C42.7186 49.128 42.8346 48.524 43.0666 48.02C43.3066 47.516 43.6386 47.128 44.0626 46.856C44.4946 46.584 44.9946 46.448 45.5626 46.448ZM45.5506 47.312C45.0466 47.312 44.6466 47.476 44.3506 47.804C44.0626 48.124 43.8906 48.572 43.8346 49.148H47.1106C47.1026 48.604 46.9746 48.164 46.7266 47.828C46.4786 47.484 46.0866 47.312 45.5506 47.312Z" fill="#323232"/>
<path d="M22.028 80.326C22.028 81.2127 21.706 81.9033 21.062 82.398C20.418 82.8927 19.55 83.14 18.458 83.14C17.898 83.14 17.38 83.098 16.904 83.014C16.428 82.93 16.0313 82.8133 15.714 82.664V81.46C16.05 81.6093 16.4653 81.7447 16.96 81.866C17.464 81.9873 17.982 82.048 18.514 82.048C19.2513 82.048 19.8113 81.9033 20.194 81.614C20.5767 81.3247 20.768 80.9327 20.768 80.438C20.768 80.1113 20.698 79.836 20.558 79.612C20.418 79.388 20.1753 79.1827 19.83 78.996C19.4847 78.8093 19.0133 78.604 18.416 78.38C17.5573 78.072 16.9133 77.694 16.484 77.246C16.0547 76.798 15.84 76.1867 15.84 75.412C15.84 74.8893 15.9753 74.4367 16.246 74.054C16.5167 73.6713 16.89 73.3773 17.366 73.172C17.842 72.9667 18.3973 72.864 19.032 72.864C19.5733 72.864 20.0727 72.9153 20.53 73.018C20.9873 73.1207 21.4073 73.256 21.79 73.424L21.398 74.502C21.0527 74.3527 20.6747 74.2267 20.264 74.124C19.8533 74.0213 19.4333 73.97 19.004 73.97C18.3787 73.97 17.9073 74.1053 17.59 74.376C17.2727 74.6373 17.114 74.9873 17.114 75.426C17.114 75.762 17.184 76.042 17.324 76.266C17.464 76.49 17.6927 76.6953 18.01 76.882C18.3273 77.0593 18.7567 77.246 19.298 77.442C19.886 77.6567 20.3807 77.89 20.782 78.142C21.1927 78.3847 21.5007 78.6787 21.706 79.024C21.9207 79.3693 22.028 79.8033 22.028 80.326ZM26.7156 75.37C27.6303 75.37 28.3069 75.5707 28.7456 75.972C29.1843 76.3733 29.4036 77.0127 29.4036 77.89V83H28.5076L28.2696 81.936H28.2136C27.8869 82.3467 27.5416 82.65 27.1776 82.846C26.8136 83.042 26.3189 83.14 25.6936 83.14C25.0123 83.14 24.4476 82.9627 23.9996 82.608C23.5516 82.244 23.3276 81.6793 23.3276 80.914C23.3276 80.1673 23.6216 79.5933 24.2096 79.192C24.7976 78.7813 25.7029 78.5573 26.9256 78.52L28.1996 78.478V78.03C28.1996 77.4047 28.0643 76.9707 27.7936 76.728C27.5229 76.4853 27.1403 76.364 26.6456 76.364C26.2536 76.364 25.8803 76.4247 25.5256 76.546C25.1709 76.658 24.8396 76.7887 24.5316 76.938L24.1536 76.014C24.4803 75.8367 24.8676 75.6873 25.3156 75.566C25.7636 75.4353 26.2303 75.37 26.7156 75.37ZM28.1856 79.332L27.0796 79.374C26.1463 79.4113 25.4976 79.5607 25.1336 79.822C24.7789 80.0833 24.6016 80.452 24.6016 80.928C24.6016 81.348 24.7276 81.656 24.9796 81.852C25.2409 82.048 25.5723 82.146 25.9736 82.146C26.5989 82.146 27.1216 81.9733 27.5416 81.628C27.9709 81.2733 28.1856 80.732 28.1856 80.004V79.332ZM35.2213 75.356C35.3613 75.356 35.5106 75.3653 35.6693 75.384C35.8279 75.3933 35.9726 75.412 36.1033 75.44L35.9493 76.574C35.8279 76.546 35.6926 76.5227 35.5433 76.504C35.3939 76.4853 35.2586 76.476 35.1373 76.476C34.7546 76.476 34.3953 76.5833 34.0593 76.798C33.7233 77.0033 33.4526 77.2973 33.2473 77.68C33.0513 78.0533 32.9533 78.492 32.9533 78.996V83H31.7213V75.496H32.7293L32.8693 76.868H32.9253C33.1586 76.4573 33.4666 76.1027 33.8493 75.804C34.2413 75.5053 34.6986 75.356 35.2213 75.356ZM40.073 75.37C40.9877 75.37 41.6643 75.5707 42.103 75.972C42.5417 76.3733 42.761 77.0127 42.761 77.89V83H41.865L41.627 81.936H41.571C41.2443 82.3467 40.899 82.65 40.535 82.846C40.171 83.042 39.6763 83.14 39.051 83.14C38.3697 83.14 37.805 82.9627 37.357 82.608C36.909 82.244 36.685 81.6793 36.685 80.914C36.685 80.1673 36.979 79.5933 37.567 79.192C38.155 78.7813 39.0603 78.5573 40.283 78.52L41.557 78.478V78.03C41.557 77.4047 41.4217 76.9707 41.151 76.728C40.8803 76.4853 40.4977 76.364 40.003 76.364C39.611 76.364 39.2377 76.4247 38.883 76.546C38.5283 76.658 38.197 76.7887 37.889 76.938L37.511 76.014C37.8377 75.8367 38.225 75.6873 38.673 75.566C39.121 75.4353 39.5877 75.37 40.073 75.37ZM41.543 79.332L40.437 79.374C39.5037 79.4113 38.855 79.5607 38.491 79.822C38.1363 80.0833 37.959 80.452 37.959 80.928C37.959 81.348 38.085 81.656 38.337 81.852C38.5983 82.048 38.9297 82.146 39.331 82.146C39.9563 82.146 40.479 81.9733 40.899 81.628C41.3283 81.2733 41.543 80.732 41.543 80.004V79.332ZM46.3107 72.36V75.482C46.3107 75.8553 46.2873 76.2053 46.2407 76.532H46.3247C46.5673 76.1493 46.894 75.86 47.3047 75.664C47.7247 75.468 48.1773 75.37 48.6627 75.37C49.568 75.37 50.2493 75.5893 50.7067 76.028C51.1733 76.4573 51.4067 77.1527 51.4067 78.114V83H50.1887V78.198C50.1887 76.994 49.6287 76.392 48.5087 76.392C47.6687 76.392 47.09 76.63 46.7727 77.106C46.4647 77.5727 46.3107 78.2447 46.3107 79.122V83H45.0787V72.36H46.3107ZM69.0177 73.004L66.3577 83H65.0837L63.1377 76.448C63.0537 76.1867 62.9744 75.9207 62.8997 75.65C62.8344 75.37 62.7737 75.1273 62.7177 74.922C62.671 74.7073 62.643 74.558 62.6337 74.474C62.6244 74.5953 62.573 74.8567 62.4797 75.258C62.3864 75.65 62.279 76.0607 62.1577 76.49L60.2677 83H58.9937L56.3477 73.004H57.6637L59.2177 79.108C59.3297 79.5373 59.423 79.9527 59.4977 80.354C59.5817 80.7553 59.647 81.1333 59.6937 81.488C59.7404 81.124 59.8104 80.7273 59.9037 80.298C59.997 79.8687 60.1044 79.4487 60.2257 79.038L61.9897 73.004H63.2917L65.1257 79.08C65.2564 79.5093 65.3684 79.9387 65.4617 80.368C65.555 80.7973 65.625 81.1707 65.6717 81.488C65.709 81.1427 65.7697 80.7693 65.8537 80.368C65.947 79.9573 66.0497 79.5327 66.1617 79.094L67.7017 73.004H69.0177ZM76.6359 79.234C76.6359 80.4753 76.3185 81.4367 75.6839 82.118C75.0585 82.7993 74.2092 83.14 73.1359 83.14C72.4732 83.14 71.8805 82.9907 71.3579 82.692C70.8445 82.384 70.4385 81.9407 70.1399 81.362C69.8412 80.774 69.6919 80.0647 69.6919 79.234C69.6919 77.9927 69.9999 77.036 70.6159 76.364C71.2412 75.692 72.0952 75.356 73.1779 75.356C73.8499 75.356 74.4472 75.51 74.9699 75.818C75.4925 76.1167 75.8985 76.5553 76.1879 77.134C76.4865 77.7033 76.6359 78.4033 76.6359 79.234ZM70.9659 79.234C70.9659 80.1207 71.1385 80.8253 71.4839 81.348C71.8385 81.8613 72.3985 82.118 73.1639 82.118C73.9199 82.118 74.4752 81.8613 74.8299 81.348C75.1845 80.8253 75.3619 80.1207 75.3619 79.234C75.3619 78.3473 75.1845 77.652 74.8299 77.148C74.4752 76.644 73.9152 76.392 73.1499 76.392C72.3845 76.392 71.8292 76.644 71.4839 77.148C71.1385 77.652 70.9659 78.3473 70.9659 79.234ZM85.1124 79.234C85.1124 80.4753 84.7951 81.4367 84.1604 82.118C83.5351 82.7993 82.6858 83.14 81.6124 83.14C80.9498 83.14 80.3571 82.9907 79.8344 82.692C79.3211 82.384 78.9151 81.9407 78.6164 81.362C78.3178 80.774 78.1684 80.0647 78.1684 79.234C78.1684 77.9927 78.4764 77.036 79.0924 76.364C79.7178 75.692 80.5718 75.356 81.6544 75.356C82.3264 75.356 82.9238 75.51 83.4464 75.818C83.9691 76.1167 84.3751 76.5553 84.6644 77.134C84.9631 77.7033 85.1124 78.4033 85.1124 79.234ZM79.4424 79.234C79.4424 80.1207 79.6151 80.8253 79.9604 81.348C80.3151 81.8613 80.8751 82.118 81.6404 82.118C82.3964 82.118 82.9518 81.8613 83.3064 81.348C83.6611 80.8253 83.8384 80.1207 83.8384 79.234C83.8384 78.3473 83.6611 77.652 83.3064 77.148C82.9518 76.644 82.3918 76.392 81.6264 76.392C80.8611 76.392 80.3058 76.644 79.9604 77.148C79.6151 77.652 79.4424 78.3473 79.4424 79.234ZM88.297 83H87.065V72.36H88.297V83ZM94.1744 75.356C94.3144 75.356 94.4637 75.3653 94.6224 75.384C94.781 75.3933 94.9257 75.412 95.0564 75.44L94.9024 76.574C94.781 76.546 94.6457 76.5227 94.4964 76.504C94.347 76.4853 94.2117 76.476 94.0904 76.476C93.7077 76.476 93.3484 76.5833 93.0124 76.798C92.6764 77.0033 92.4057 77.2973 92.2004 77.68C92.0044 78.0533 91.9064 78.492 91.9064 78.996V83H90.6744V75.496H91.6824L91.8224 76.868H91.8784C92.1117 76.4573 92.4197 76.1027 92.8024 75.804C93.1944 75.5053 93.6517 75.356 94.1744 75.356ZM97.0876 72.682C97.2742 72.682 97.4376 72.7473 97.5776 72.878C97.7269 72.9993 97.8016 73.1953 97.8016 73.466C97.8016 73.7367 97.7269 73.9373 97.5776 74.068C97.4376 74.1893 97.2742 74.25 97.0876 74.25C96.8822 74.25 96.7096 74.1893 96.5696 74.068C96.4296 73.9373 96.3596 73.7367 96.3596 73.466C96.3596 73.1953 96.4296 72.9993 96.5696 72.878C96.7096 72.7473 96.8822 72.682 97.0876 72.682ZM97.6896 75.496V83H96.4576V75.496H97.6896ZM102.727 83.14C101.794 83.14 101.047 82.818 100.487 82.174C99.927 81.5207 99.647 80.55 99.647 79.262C99.647 77.974 99.927 77.0033 100.487 76.35C101.056 75.6873 101.808 75.356 102.741 75.356C103.32 75.356 103.791 75.4633 104.155 75.678C104.528 75.8927 104.832 76.154 105.065 76.462H105.149C105.13 76.3407 105.112 76.1633 105.093 75.93C105.074 75.6873 105.065 75.496 105.065 75.356V72.36H106.297V83H105.303L105.121 81.992H105.065C104.841 82.3093 104.542 82.58 104.169 82.804C103.796 83.028 103.315 83.14 102.727 83.14ZM102.923 82.118C103.716 82.118 104.272 81.9033 104.589 81.474C104.916 81.0353 105.079 80.3773 105.079 79.5V79.276C105.079 78.3427 104.925 77.6287 104.617 77.134C104.309 76.63 103.74 76.378 102.909 76.378C102.246 76.378 101.747 76.644 101.411 77.176C101.084 77.6987 100.921 78.4033 100.921 79.29C100.921 80.186 101.084 80.8813 101.411 81.376C101.747 81.8707 102.251 82.118 102.923 82.118ZM111.34 75.356C111.835 75.356 112.278 75.4493 112.67 75.636C113.072 75.8227 113.412 76.1073 113.692 76.49H113.762L113.93 75.496H114.91V83.126C114.91 84.1993 114.635 85.0067 114.084 85.548C113.543 86.0893 112.698 86.36 111.55 86.36C110.449 86.36 109.548 86.2013 108.848 85.884V84.75C109.586 85.142 110.51 85.338 111.62 85.338C112.264 85.338 112.768 85.1467 113.132 84.764C113.506 84.3907 113.692 83.8773 113.692 83.224V82.93C113.692 82.818 113.697 82.6593 113.706 82.454C113.716 82.2393 113.725 82.09 113.734 82.006H113.678C113.174 82.762 112.4 83.14 111.354 83.14C110.384 83.14 109.623 82.7993 109.072 82.118C108.531 81.4367 108.26 80.4847 108.26 79.262C108.26 78.0673 108.531 77.12 109.072 76.42C109.623 75.7107 110.379 75.356 111.34 75.356ZM111.508 76.392C110.883 76.392 110.398 76.644 110.052 77.148C109.707 77.6427 109.534 78.352 109.534 79.276C109.534 80.2 109.702 80.9093 110.038 81.404C110.374 81.8893 110.874 82.132 111.536 82.132C112.292 82.132 112.843 81.9313 113.188 81.53C113.534 81.1193 113.706 80.4613 113.706 79.556V79.262C113.706 78.2447 113.529 77.512 113.174 77.064C112.82 76.616 112.264 76.392 111.508 76.392ZM120.192 75.356C120.826 75.356 121.377 75.496 121.844 75.776C122.31 76.056 122.665 76.4527 122.908 76.966C123.16 77.47 123.286 78.0627 123.286 78.744V79.486H118.148C118.166 80.3353 118.381 80.984 118.792 81.432C119.212 81.8707 119.795 82.09 120.542 82.09C121.018 82.09 121.438 82.048 121.802 81.964C122.175 81.8707 122.558 81.74 122.95 81.572V82.65C122.567 82.818 122.189 82.9393 121.816 83.014C121.442 83.098 120.999 83.14 120.486 83.14C119.767 83.14 119.137 82.9953 118.596 82.706C118.054 82.4167 117.63 81.9873 117.322 81.418C117.023 80.8487 116.874 80.144 116.874 79.304C116.874 78.4827 117.009 77.778 117.28 77.19C117.56 76.602 117.947 76.1493 118.442 75.832C118.946 75.5147 119.529 75.356 120.192 75.356ZM120.178 76.364C119.59 76.364 119.123 76.5553 118.778 76.938C118.442 77.3113 118.241 77.834 118.176 78.506H121.998C121.988 77.8713 121.839 77.358 121.55 76.966C121.26 76.5647 120.803 76.364 120.178 76.364Z" fill="black"/>
<path d="M20.952 125H16.164V116.432H20.952V117.38H17.244V120.056H20.736V120.992H17.244V124.052H20.952V125ZM29.744 118.448C30.472 118.448 31.016 118.636 31.376 119.012C31.736 119.388 31.916 119.988 31.916 120.812V125H30.872V120.86C30.872 119.844 30.436 119.336 29.564 119.336C28.94 119.336 28.492 119.516 28.22 119.876C27.956 120.236 27.824 120.76 27.824 121.448V125H26.78V120.86C26.78 119.844 26.34 119.336 25.46 119.336C24.812 119.336 24.364 119.536 24.116 119.936C23.868 120.336 23.744 120.912 23.744 121.664V125H22.688V118.568H23.54L23.696 119.444H23.756C23.956 119.108 24.224 118.86 24.56 118.7C24.904 118.532 25.268 118.448 25.652 118.448C26.66 118.448 27.316 118.808 27.62 119.528H27.68C27.896 119.16 28.188 118.888 28.556 118.712C28.924 118.536 29.32 118.448 29.744 118.448ZM36.3388 118.46C37.1228 118.46 37.7028 118.632 38.0788 118.976C38.4548 119.32 38.6428 119.868 38.6428 120.62V125H37.8748L37.6708 124.088H37.6228C37.3428 124.44 37.0468 124.7 36.7348 124.868C36.4228 125.036 35.9988 125.12 35.4628 125.12C34.8788 125.12 34.3948 124.968 34.0108 124.664C33.6268 124.352 33.4348 123.868 33.4348 123.212C33.4348 122.572 33.6868 122.08 34.1908 121.736C34.6948 121.384 35.4708 121.192 36.5188 121.16L37.6108 121.124V120.74C37.6108 120.204 37.4948 119.832 37.2628 119.624C37.0308 119.416 36.7028 119.312 36.2788 119.312C35.9428 119.312 35.6228 119.364 35.3188 119.468C35.0148 119.564 34.7308 119.676 34.4668 119.804L34.1428 119.012C34.4228 118.86 34.7548 118.732 35.1388 118.628C35.5228 118.516 35.9228 118.46 36.3388 118.46ZM37.5988 121.856L36.6508 121.892C35.8508 121.924 35.2948 122.052 34.9828 122.276C34.6788 122.5 34.5268 122.816 34.5268 123.224C34.5268 123.584 34.6348 123.848 34.8508 124.016C35.0748 124.184 35.3588 124.268 35.7028 124.268C36.2388 124.268 36.6868 124.12 37.0468 123.824C37.4148 123.52 37.5988 123.056 37.5988 122.432V121.856ZM41.1694 116.156C41.3294 116.156 41.4694 116.212 41.5894 116.324C41.7174 116.428 41.7814 116.596 41.7814 116.828C41.7814 117.06 41.7174 117.232 41.5894 117.344C41.4694 117.448 41.3294 117.5 41.1694 117.5C40.9934 117.5 40.8454 117.448 40.7254 117.344C40.6054 117.232 40.5454 117.06 40.5454 116.828C40.5454 116.596 40.6054 116.428 40.7254 116.324C40.8454 116.212 40.9934 116.156 41.1694 116.156ZM41.6854 118.568V125H40.6294V118.568H41.6854ZM44.7791 125H43.7231V115.88H44.7791V125Z" fill="#323232"/>
<path d="M21.076 152.928C21.076 153.656 20.8053 154.207 20.264 154.58C19.7227 154.953 18.9947 155.14 18.08 155.14C17.5573 155.14 17.1047 155.098 16.722 155.014C16.3487 154.93 16.0173 154.813 15.728 154.664V153.544C16.0267 153.693 16.386 153.833 16.806 153.964C17.2353 154.085 17.6693 154.146 18.108 154.146C18.7333 154.146 19.186 154.048 19.466 153.852C19.746 153.647 19.886 153.376 19.886 153.04C19.886 152.853 19.8347 152.685 19.732 152.536C19.6293 152.387 19.4427 152.237 19.172 152.088C18.9107 151.939 18.5327 151.771 18.038 151.584C17.5527 151.397 17.1373 151.211 16.792 151.024C16.4467 150.837 16.1807 150.613 15.994 150.352C15.8073 150.091 15.714 149.755 15.714 149.344C15.714 148.709 15.9707 148.219 16.484 147.874C17.0067 147.529 17.688 147.356 18.528 147.356C18.9853 147.356 19.41 147.403 19.802 147.496C20.2033 147.589 20.5767 147.711 20.922 147.86L20.502 148.84C20.1847 148.709 19.8533 148.597 19.508 148.504C19.1627 148.411 18.808 148.364 18.444 148.364C17.94 148.364 17.5527 148.448 17.282 148.616C17.0207 148.775 16.89 148.994 16.89 149.274C16.89 149.489 16.9507 149.666 17.072 149.806C17.1933 149.946 17.394 150.086 17.674 150.226C17.9633 150.366 18.346 150.525 18.822 150.702C19.298 150.879 19.704 151.061 20.04 151.248C20.376 151.435 20.6327 151.663 20.81 151.934C20.9873 152.195 21.076 152.527 21.076 152.928ZM29.0212 154.986L27.7332 150.758C27.6119 150.375 27.5046 150.002 27.4112 149.638C27.3179 149.274 27.2526 148.985 27.2152 148.77H27.1592C27.1219 148.985 27.0612 149.274 26.9772 149.638C26.8932 150.002 26.7859 150.38 26.6552 150.772L25.3112 154.986H23.9112L21.8532 147.482H23.1272L24.1632 151.486C24.2659 151.887 24.3639 152.293 24.4572 152.704C24.5506 153.115 24.6159 153.455 24.6532 153.726H24.7092C24.7372 153.567 24.7792 153.371 24.8352 153.138C24.8912 152.905 24.9519 152.662 25.0172 152.41C25.0826 152.149 25.1479 151.915 25.2132 151.71L26.5432 147.482H27.8872L29.1752 151.71C29.2686 152.037 29.3666 152.387 29.4692 152.76C29.5719 153.133 29.6419 153.451 29.6792 153.712H29.7352C29.7632 153.479 29.8239 153.157 29.9172 152.746C30.0199 152.335 30.1272 151.915 30.2392 151.486L31.2892 147.482H32.5492L30.4632 154.986H29.0212ZM40.4191 151.234C40.4191 152.475 40.1017 153.437 39.4671 154.118C38.8417 154.799 37.9924 155.14 36.9191 155.14C36.2564 155.14 35.6637 154.991 35.1411 154.692C34.6277 154.384 34.2217 153.941 33.9231 153.362C33.6244 152.774 33.4751 152.065 33.4751 151.234C33.4751 149.993 33.7831 149.036 34.3991 148.364C35.0244 147.692 35.8784 147.356 36.9611 147.356C37.6331 147.356 38.2304 147.51 38.7531 147.818C39.2757 148.117 39.6817 148.555 39.9711 149.134C40.2697 149.703 40.4191 150.403 40.4191 151.234ZM34.7491 151.234C34.7491 152.121 34.9217 152.825 35.2671 153.348C35.6217 153.861 36.1817 154.118 36.9471 154.118C37.7031 154.118 38.2584 153.861 38.6131 153.348C38.9677 152.825 39.1451 152.121 39.1451 151.234C39.1451 150.347 38.9677 149.652 38.6131 149.148C38.2584 148.644 37.6984 148.392 36.9331 148.392C36.1677 148.392 35.6124 148.644 35.2671 149.148C34.9217 149.652 34.7491 150.347 34.7491 151.234ZM48.8956 151.234C48.8956 152.475 48.5783 153.437 47.9436 154.118C47.3183 154.799 46.469 155.14 45.3956 155.14C44.733 155.14 44.1403 154.991 43.6176 154.692C43.1043 154.384 42.6983 153.941 42.3996 153.362C42.101 152.774 41.9516 152.065 41.9516 151.234C41.9516 149.993 42.2596 149.036 42.8756 148.364C43.501 147.692 44.355 147.356 45.4376 147.356C46.1096 147.356 46.707 147.51 47.2296 147.818C47.7523 148.117 48.1583 148.555 48.4476 149.134C48.7463 149.703 48.8956 150.403 48.8956 151.234ZM43.2256 151.234C43.2256 152.121 43.3983 152.825 43.7436 153.348C44.0983 153.861 44.6583 154.118 45.4236 154.118C46.1796 154.118 46.735 153.861 47.0896 153.348C47.4443 152.825 47.6216 152.121 47.6216 151.234C47.6216 150.347 47.4443 149.652 47.0896 149.148C46.735 148.644 46.175 148.392 45.4096 148.392C44.6443 148.392 44.089 148.644 43.7436 149.148C43.3983 149.652 43.2256 150.347 43.2256 151.234ZM52.0802 155H50.8482V144.36H52.0802V155ZM57.9576 147.356C58.0976 147.356 58.2469 147.365 58.4056 147.384C58.5642 147.393 58.7089 147.412 58.8396 147.44L58.6856 148.574C58.5642 148.546 58.4289 148.523 58.2796 148.504C58.1302 148.485 57.9949 148.476 57.8736 148.476C57.4909 148.476 57.1316 148.583 56.7956 148.798C56.4596 149.003 56.1889 149.297 55.9836 149.68C55.7876 150.053 55.6896 150.492 55.6896 150.996V155H54.4576V147.496H55.4656L55.6056 148.868H55.6616C55.8949 148.457 56.2029 148.103 56.5856 147.804C56.9776 147.505 57.4349 147.356 57.9576 147.356ZM60.8708 144.682C61.0574 144.682 61.2208 144.747 61.3608 144.878C61.5101 144.999 61.5848 145.195 61.5848 145.466C61.5848 145.737 61.5101 145.937 61.3608 146.068C61.2208 146.189 61.0574 146.25 60.8708 146.25C60.6654 146.25 60.4928 146.189 60.3528 146.068C60.2128 145.937 60.1428 145.737 60.1428 145.466C60.1428 145.195 60.2128 144.999 60.3528 144.878C60.4928 144.747 60.6654 144.682 60.8708 144.682ZM61.4728 147.496V155H60.2408V147.496H61.4728ZM66.5102 155.14C65.5768 155.14 64.8302 154.818 64.2702 154.174C63.7102 153.521 63.4302 152.55 63.4302 151.262C63.4302 149.974 63.7102 149.003 64.2702 148.35C64.8395 147.687 65.5908 147.356 66.5242 147.356C67.1028 147.356 67.5742 147.463 67.9382 147.678C68.3115 147.893 68.6148 148.154 68.8482 148.462H68.9322C68.9135 148.341 68.8948 148.163 68.8762 147.93C68.8575 147.687 68.8482 147.496 68.8482 147.356V144.36H70.0802V155H69.0862L68.9042 153.992H68.8482C68.6242 154.309 68.3255 154.58 67.9522 154.804C67.5788 155.028 67.0982 155.14 66.5102 155.14ZM66.7062 154.118C67.4995 154.118 68.0548 153.903 68.3722 153.474C68.6988 153.035 68.8622 152.377 68.8622 151.5V151.276C68.8622 150.343 68.7082 149.629 68.4002 149.134C68.0922 148.63 67.5228 148.378 66.6922 148.378C66.0295 148.378 65.5302 148.644 65.1942 149.176C64.8675 149.699 64.7042 150.403 64.7042 151.29C64.7042 152.186 64.8675 152.881 65.1942 153.376C65.5302 153.871 66.0342 154.118 66.7062 154.118ZM75.1234 147.356C75.6181 147.356 76.0614 147.449 76.4534 147.636C76.8548 147.823 77.1954 148.107 77.4754 148.49H77.5454L77.7134 147.496H78.6934V155.126C78.6934 156.199 78.4181 157.007 77.8674 157.548C77.3261 158.089 76.4814 158.36 75.3334 158.36C74.2321 158.36 73.3314 158.201 72.6314 157.884V156.75C73.3688 157.142 74.2928 157.338 75.4034 157.338C76.0474 157.338 76.5514 157.147 76.9154 156.764C77.2888 156.391 77.4754 155.877 77.4754 155.224V154.93C77.4754 154.818 77.4801 154.659 77.4894 154.454C77.4988 154.239 77.5081 154.09 77.5174 154.006H77.4614C76.9574 154.762 76.1828 155.14 75.1374 155.14C74.1668 155.14 73.4061 154.799 72.8554 154.118C72.3141 153.437 72.0434 152.485 72.0434 151.262C72.0434 150.067 72.3141 149.12 72.8554 148.42C73.4061 147.711 74.1621 147.356 75.1234 147.356ZM75.2914 148.392C74.6661 148.392 74.1808 148.644 73.8354 149.148C73.4901 149.643 73.3174 150.352 73.3174 151.276C73.3174 152.2 73.4854 152.909 73.8214 153.404C74.1574 153.889 74.6568 154.132 75.3194 154.132C76.0754 154.132 76.6261 153.931 76.9714 153.53C77.3168 153.119 77.4894 152.461 77.4894 151.556V151.262C77.4894 150.245 77.3121 149.512 76.9574 149.064C76.6028 148.616 76.0474 148.392 75.2914 148.392ZM83.9747 147.356C84.6094 147.356 85.1601 147.496 85.6267 147.776C86.0934 148.056 86.4481 148.453 86.6907 148.966C86.9427 149.47 87.0687 150.063 87.0687 150.744V151.486H81.9307C81.9494 152.335 82.1641 152.984 82.5747 153.432C82.9947 153.871 83.5781 154.09 84.3247 154.09C84.8007 154.09 85.2207 154.048 85.5847 153.964C85.9581 153.871 86.3407 153.74 86.7327 153.572V154.65C86.3501 154.818 85.9721 154.939 85.5987 155.014C85.2254 155.098 84.7821 155.14 84.2687 155.14C83.5501 155.14 82.9201 154.995 82.3787 154.706C81.8374 154.417 81.4127 153.987 81.1047 153.418C80.8061 152.849 80.6567 152.144 80.6567 151.304C80.6567 150.483 80.7921 149.778 81.0627 149.19C81.3427 148.602 81.7301 148.149 82.2247 147.832C82.7287 147.515 83.3121 147.356 83.9747 147.356ZM83.9607 148.364C83.3727 148.364 82.9061 148.555 82.5607 148.938C82.2247 149.311 82.0241 149.834 81.9587 150.506H85.7807C85.7714 149.871 85.6221 149.358 85.3327 148.966C85.0434 148.565 84.5861 148.364 83.9607 148.364ZM99.5631 150.002C99.5631 150.431 99.5117 150.851 99.4091 151.262C99.3157 151.673 99.1664 152.046 98.9611 152.382C98.7557 152.709 98.5037 152.975 98.2051 153.18C97.9064 153.376 97.5517 153.474 97.1411 153.474C96.7117 153.474 96.3711 153.353 96.1191 153.11C95.8764 152.858 95.7271 152.573 95.6711 152.256H95.6011C95.4331 152.601 95.1857 152.891 94.8591 153.124C94.5324 153.357 94.1217 153.474 93.6271 153.474C92.9084 153.474 92.3577 153.236 91.9751 152.76C91.5924 152.284 91.4011 151.654 91.4011 150.87C91.4011 150.263 91.5224 149.722 91.7651 149.246C92.0077 148.77 92.3484 148.397 92.7871 148.126C93.2351 147.855 93.7624 147.72 94.3691 147.72C94.7797 147.72 95.1811 147.757 95.5731 147.832C95.9744 147.897 96.2871 147.972 96.5111 148.056L96.3711 150.898C96.3617 151.066 96.3571 151.187 96.3571 151.262C96.3571 151.327 96.3571 151.374 96.3571 151.402C96.3571 151.897 96.4411 152.223 96.6091 152.382C96.7864 152.531 96.9917 152.606 97.2251 152.606C97.5144 152.606 97.7571 152.489 97.9531 152.256C98.1584 152.013 98.3124 151.696 98.4151 151.304C98.5271 150.912 98.5831 150.473 98.5831 149.988C98.5831 149.129 98.4057 148.397 98.0511 147.79C97.7057 147.183 97.2251 146.721 96.6091 146.404C96.0024 146.087 95.3117 145.928 94.5371 145.928C93.4731 145.928 92.5724 146.147 91.8351 146.586C91.1071 147.025 90.5517 147.631 90.1691 148.406C89.7957 149.171 89.6091 150.049 89.6091 151.038C89.6091 152.419 89.9731 153.479 90.7011 154.216C91.4291 154.953 92.4791 155.322 93.8511 155.322C94.4204 155.322 94.9617 155.257 95.4751 155.126C95.9977 155.005 96.4597 154.869 96.8611 154.72V155.672C96.4597 155.84 96.0071 155.975 95.5031 156.078C95.0084 156.19 94.4577 156.246 93.8511 156.246C92.7497 156.246 91.8071 156.041 91.0231 155.63C90.2391 155.219 89.6371 154.631 89.2171 153.866C88.8064 153.091 88.6011 152.163 88.6011 151.08C88.6011 150.212 88.7364 149.409 89.0071 148.672C89.2777 147.925 89.6697 147.281 90.1831 146.74C90.6964 146.189 91.3171 145.765 92.0451 145.466C92.7824 145.158 93.6131 145.004 94.5371 145.004C95.5077 145.004 96.3711 145.205 97.1271 145.606C97.8831 146.007 98.4757 146.581 98.9051 147.328C99.3437 148.075 99.5631 148.966 99.5631 150.002ZM92.4931 150.898C92.4931 151.505 92.6097 151.943 92.8431 152.214C93.0764 152.475 93.3984 152.606 93.8091 152.606C94.3317 152.606 94.7051 152.41 94.9291 152.018C95.1624 151.626 95.2977 151.117 95.3351 150.492L95.4191 148.742C95.2977 148.705 95.1437 148.672 94.9571 148.644C94.7704 148.616 94.5791 148.602 94.3831 148.602C93.9257 148.602 93.5571 148.714 93.2771 148.938C92.9971 149.162 92.7964 149.451 92.6751 149.806C92.5537 150.151 92.4931 150.515 92.4931 150.898ZM104.469 147.356C105.104 147.356 105.654 147.496 106.121 147.776C106.588 148.056 106.942 148.453 107.185 148.966C107.437 149.47 107.563 150.063 107.563 150.744V151.486H102.425C102.444 152.335 102.658 152.984 103.069 153.432C103.489 153.871 104.072 154.09 104.819 154.09C105.295 154.09 105.715 154.048 106.079 153.964C106.452 153.871 106.835 153.74 107.227 153.572V154.65C106.844 154.818 106.466 154.939 106.093 155.014C105.72 155.098 105.276 155.14 104.763 155.14C104.044 155.14 103.414 154.995 102.873 154.706C102.332 154.417 101.907 153.987 101.599 153.418C101.3 152.849 101.151 152.144 101.151 151.304C101.151 150.483 101.286 149.778 101.557 149.19C101.837 148.602 102.224 148.149 102.719 147.832C103.223 147.515 103.806 147.356 104.469 147.356ZM104.455 148.364C103.867 148.364 103.4 148.555 103.055 148.938C102.719 149.311 102.518 149.834 102.453 150.506H106.275C106.266 149.871 106.116 149.358 105.827 148.966C105.538 148.565 105.08 148.364 104.455 148.364ZM117.705 147.356C118.555 147.356 119.189 147.575 119.609 148.014C120.029 148.453 120.239 149.153 120.239 150.114V155H119.021V150.17C119.021 148.985 118.513 148.392 117.495 148.392C116.767 148.392 116.245 148.602 115.927 149.022C115.619 149.442 115.465 150.053 115.465 150.856V155H114.247V150.17C114.247 148.985 113.734 148.392 112.707 148.392C111.951 148.392 111.429 148.625 111.139 149.092C110.85 149.559 110.705 150.231 110.705 151.108V155H109.473V147.496H110.467L110.649 148.518H110.719C110.953 148.126 111.265 147.837 111.657 147.65C112.059 147.454 112.483 147.356 112.931 147.356C114.107 147.356 114.873 147.776 115.227 148.616H115.297C115.549 148.187 115.89 147.869 116.319 147.664C116.749 147.459 117.211 147.356 117.705 147.356ZM125.399 147.37C126.314 147.37 126.991 147.571 127.429 147.972C127.868 148.373 128.087 149.013 128.087 149.89V155H127.191L126.953 153.936H126.897C126.571 154.347 126.225 154.65 125.861 154.846C125.497 155.042 125.003 155.14 124.377 155.14C123.696 155.14 123.131 154.963 122.683 154.608C122.235 154.244 122.011 153.679 122.011 152.914C122.011 152.167 122.305 151.593 122.893 151.192C123.481 150.781 124.387 150.557 125.609 150.52L126.883 150.478V150.03C126.883 149.405 126.748 148.971 126.477 148.728C126.207 148.485 125.824 148.364 125.329 148.364C124.937 148.364 124.564 148.425 124.209 148.546C123.855 148.658 123.523 148.789 123.215 148.938L122.837 148.014C123.164 147.837 123.551 147.687 123.999 147.566C124.447 147.435 124.914 147.37 125.399 147.37ZM126.869 151.332L125.763 151.374C124.83 151.411 124.181 151.561 123.817 151.822C123.463 152.083 123.285 152.452 123.285 152.928C123.285 153.348 123.411 153.656 123.663 153.852C123.925 154.048 124.256 154.146 124.657 154.146C125.283 154.146 125.805 153.973 126.225 153.628C126.655 153.273 126.869 152.732 126.869 152.004V151.332ZM131.035 144.682C131.222 144.682 131.385 144.747 131.525 144.878C131.674 144.999 131.749 145.195 131.749 145.466C131.749 145.737 131.674 145.937 131.525 146.068C131.385 146.189 131.222 146.25 131.035 146.25C130.83 146.25 130.657 146.189 130.517 146.068C130.377 145.937 130.307 145.737 130.307 145.466C130.307 145.195 130.377 144.999 130.517 144.878C130.657 144.747 130.83 144.682 131.035 144.682ZM131.637 147.496V155H130.405V147.496H131.637ZM135.246 155H134.014V144.36H135.246V155ZM137.442 154.244C137.442 153.899 137.526 153.656 137.694 153.516C137.862 153.376 138.062 153.306 138.296 153.306C138.529 153.306 138.734 153.376 138.912 153.516C139.089 153.656 139.178 153.899 139.178 154.244C139.178 154.58 139.089 154.823 138.912 154.972C138.734 155.121 138.529 155.196 138.296 155.196C138.062 155.196 137.862 155.121 137.694 154.972C137.526 154.823 137.442 154.58 137.442 154.244ZM144.38 155.14C143.708 155.14 143.115 155.005 142.602 154.734C142.088 154.463 141.682 154.043 141.384 153.474C141.094 152.905 140.95 152.177 140.95 151.29C140.95 150.366 141.099 149.615 141.398 149.036C141.706 148.457 142.126 148.033 142.658 147.762C143.19 147.491 143.792 147.356 144.464 147.356C144.837 147.356 145.201 147.398 145.556 147.482C145.92 147.557 146.214 147.65 146.438 147.762L146.06 148.784C145.836 148.7 145.574 148.621 145.276 148.546C144.977 148.471 144.697 148.434 144.436 148.434C142.961 148.434 142.224 149.381 142.224 151.276C142.224 152.181 142.401 152.877 142.756 153.362C143.12 153.838 143.656 154.076 144.366 154.076C144.767 154.076 145.126 154.034 145.444 153.95C145.761 153.866 146.05 153.763 146.312 153.642V154.734C146.06 154.865 145.78 154.963 145.472 155.028C145.173 155.103 144.809 155.14 144.38 155.14ZM154.62 151.234C154.62 152.475 154.303 153.437 153.668 154.118C153.043 154.799 152.194 155.14 151.12 155.14C150.458 155.14 149.865 154.991 149.342 154.692C148.829 154.384 148.423 153.941 148.124 153.362C147.826 152.774 147.676 152.065 147.676 151.234C147.676 149.993 147.984 149.036 148.6 148.364C149.226 147.692 150.08 147.356 151.162 147.356C151.834 147.356 152.432 147.51 152.954 147.818C153.477 148.117 153.883 148.555 154.172 149.134C154.471 149.703 154.62 150.403 154.62 151.234ZM148.95 151.234C148.95 152.121 149.123 152.825 149.468 153.348C149.823 153.861 150.383 154.118 151.148 154.118C151.904 154.118 152.46 153.861 152.814 153.348C153.169 152.825 153.346 152.121 153.346 151.234C153.346 150.347 153.169 149.652 152.814 149.148C152.46 148.644 151.9 148.392 151.134 148.392C150.369 148.392 149.814 148.644 149.468 149.148C149.123 149.652 148.95 150.347 148.95 151.234ZM164.805 147.356C165.654 147.356 166.289 147.575 166.709 148.014C167.129 148.453 167.339 149.153 167.339 150.114V155H166.121V150.17C166.121 148.985 165.612 148.392 164.595 148.392C163.867 148.392 163.344 148.602 163.027 149.022C162.719 149.442 162.565 150.053 162.565 150.856V155H161.347V150.17C161.347 148.985 160.833 148.392 159.807 148.392C159.051 148.392 158.528 148.625 158.239 149.092C157.949 149.559 157.805 150.231 157.805 151.108V155H156.573V147.496H157.567L157.749 148.518H157.819C158.052 148.126 158.365 147.837 158.757 147.65C159.158 147.454 159.583 147.356 160.031 147.356C161.207 147.356 161.972 147.776 162.327 148.616H162.397C162.649 148.187 162.989 147.869 163.419 147.664C163.848 147.459 164.31 147.356 164.805 147.356Z" fill="black"/>
</svg>
