<svg width="412" height="206" viewBox="0 0 412 206" fill="none" xmlns="http://www.w3.org/2000/svg">
<rect width="412" height="206" fill="white"/>
<path d="M49.432 71.432C50.552 71.432 51.368 71.652 51.88 72.092C52.392 72.532 52.648 73.152 52.648 73.952C52.648 74.424 52.54 74.868 52.324 75.284C52.116 75.692 51.76 76.024 51.256 76.28C50.76 76.536 50.084 76.664 49.228 76.664H48.244V80H47.164V71.432H49.432ZM49.336 72.356H48.244V75.74H49.108C49.924 75.74 50.532 75.608 50.932 75.344C51.332 75.08 51.532 74.632 51.532 74C51.532 73.448 51.352 73.036 50.992 72.764C50.64 72.492 50.088 72.356 49.336 72.356ZM56.7216 73.46C57.5056 73.46 58.0856 73.632 58.4616 73.976C58.8376 74.32 59.0256 74.868 59.0256 75.62V80H58.2576L58.0536 79.088H58.0056C57.7256 79.44 57.4296 79.7 57.1176 79.868C56.8056 80.036 56.3816 80.12 55.8456 80.12C55.2616 80.12 54.7776 79.968 54.3936 79.664C54.0096 79.352 53.8176 78.868 53.8176 78.212C53.8176 77.572 54.0696 77.08 54.5736 76.736C55.0776 76.384 55.8536 76.192 56.9016 76.16L57.9936 76.124V75.74C57.9936 75.204 57.8776 74.832 57.6456 74.624C57.4136 74.416 57.0856 74.312 56.6616 74.312C56.3256 74.312 56.0056 74.364 55.7016 74.468C55.3976 74.564 55.1136 74.676 54.8496 74.804L54.5256 74.012C54.8056 73.86 55.1376 73.732 55.5216 73.628C55.9056 73.516 56.3056 73.46 56.7216 73.46ZM57.9816 76.856L57.0336 76.892C56.2336 76.924 55.6776 77.052 55.3656 77.276C55.0616 77.5 54.9096 77.816 54.9096 78.224C54.9096 78.584 55.0176 78.848 55.2336 79.016C55.4576 79.184 55.7416 79.268 56.0856 79.268C56.6216 79.268 57.0696 79.12 57.4296 78.824C57.7976 78.52 57.9816 78.056 57.9816 77.432V76.856ZM65.2002 78.224C65.2002 78.848 64.9682 79.32 64.5042 79.64C64.0402 79.96 63.4162 80.12 62.6322 80.12C62.1842 80.12 61.7962 80.084 61.4682 80.012C61.1482 79.94 60.8642 79.84 60.6162 79.712V78.752C60.8722 78.88 61.1802 79 61.5402 79.112C61.9082 79.216 62.2802 79.268 62.6562 79.268C63.1922 79.268 63.5802 79.184 63.8202 79.016C64.0602 78.84 64.1802 78.608 64.1802 78.32C64.1802 78.16 64.1362 78.016 64.0482 77.888C63.9602 77.76 63.8002 77.632 63.5682 77.504C63.3442 77.376 63.0202 77.232 62.5962 77.072C62.1802 76.912 61.8242 76.752 61.5282 76.592C61.2322 76.432 61.0042 76.24 60.8442 76.016C60.6842 75.792 60.6042 75.504 60.6042 75.152C60.6042 74.608 60.8242 74.188 61.2642 73.892C61.7122 73.596 62.2962 73.448 63.0162 73.448C63.4082 73.448 63.7722 73.488 64.1082 73.568C64.4522 73.648 64.7722 73.752 65.0682 73.88L64.7082 74.72C64.4362 74.608 64.1522 74.512 63.8562 74.432C63.5602 74.352 63.2562 74.312 62.9442 74.312C62.5122 74.312 62.1802 74.384 61.9482 74.528C61.7242 74.664 61.6122 74.852 61.6122 75.092C61.6122 75.276 61.6642 75.428 61.7682 75.548C61.8722 75.668 62.0442 75.788 62.2842 75.908C62.5322 76.028 62.8602 76.164 63.2682 76.316C63.6762 76.468 64.0242 76.624 64.3122 76.784C64.6002 76.944 64.8202 77.14 64.9722 77.372C65.1242 77.596 65.2002 77.88 65.2002 78.224ZM70.9424 78.224C70.9424 78.848 70.7104 79.32 70.2464 79.64C69.7824 79.96 69.1584 80.12 68.3744 80.12C67.9264 80.12 67.5384 80.084 67.2104 80.012C66.8904 79.94 66.6064 79.84 66.3584 79.712V78.752C66.6144 78.88 66.9224 79 67.2824 79.112C67.6504 79.216 68.0224 79.268 68.3984 79.268C68.9344 79.268 69.3224 79.184 69.5624 79.016C69.8024 78.84 69.9224 78.608 69.9224 78.32C69.9224 78.16 69.8784 78.016 69.7904 77.888C69.7024 77.76 69.5424 77.632 69.3104 77.504C69.0864 77.376 68.7624 77.232 68.3384 77.072C67.9224 76.912 67.5664 76.752 67.2704 76.592C66.9744 76.432 66.7464 76.24 66.5864 76.016C66.4264 75.792 66.3464 75.504 66.3464 75.152C66.3464 74.608 66.5664 74.188 67.0064 73.892C67.4544 73.596 68.0384 73.448 68.7584 73.448C69.1504 73.448 69.5144 73.488 69.8504 73.568C70.1944 73.648 70.5144 73.752 70.8104 73.88L70.4504 74.72C70.1784 74.608 69.8944 74.512 69.5984 74.432C69.3024 74.352 68.9984 74.312 68.6864 74.312C68.2544 74.312 67.9224 74.384 67.6904 74.528C67.4664 74.664 67.3544 74.852 67.3544 75.092C67.3544 75.276 67.4064 75.428 67.5104 75.548C67.6144 75.668 67.7864 75.788 68.0264 75.908C68.2744 76.028 68.6024 76.164 69.0104 76.316C69.4184 76.468 69.7664 76.624 70.0544 76.784C70.3424 76.944 70.5624 77.14 70.7144 77.372C70.8664 77.596 70.9424 77.88 70.9424 78.224ZM77.7526 79.988L76.6486 76.364C76.5446 76.036 76.4526 75.716 76.3726 75.404C76.2926 75.092 76.2366 74.844 76.2046 74.66H76.1566C76.1246 74.844 76.0726 75.092 76.0006 75.404C75.9286 75.716 75.8366 76.04 75.7246 76.376L74.5726 79.988H73.3726L71.6086 73.556H72.7006L73.5886 76.988C73.6766 77.332 73.7606 77.68 73.8406 78.032C73.9206 78.384 73.9766 78.676 74.0086 78.908H74.0566C74.0806 78.772 74.1166 78.604 74.1646 78.404C74.2126 78.204 74.2646 77.996 74.3206 77.78C74.3766 77.556 74.4326 77.356 74.4886 77.18L75.6286 73.556H76.7806L77.8846 77.18C77.9646 77.46 78.0486 77.76 78.1366 78.08C78.2246 78.4 78.2846 78.672 78.3166 78.896H78.3646C78.3886 78.696 78.4406 78.42 78.5206 78.068C78.6086 77.716 78.7006 77.356 78.7966 76.988L79.6966 73.556H80.7766L78.9886 79.988H77.7526ZM87.5222 76.772C87.5222 77.836 87.2502 78.66 86.7062 79.244C86.1702 79.828 85.4422 80.12 84.5222 80.12C83.9542 80.12 83.4462 79.992 82.9982 79.736C82.5582 79.472 82.2102 79.092 81.9542 78.596C81.6982 78.092 81.5702 77.484 81.5702 76.772C81.5702 75.708 81.8342 74.888 82.3622 74.312C82.8982 73.736 83.6302 73.448 84.5582 73.448C85.1342 73.448 85.6462 73.58 86.0942 73.844C86.5422 74.1 86.8902 74.476 87.1382 74.972C87.3942 75.46 87.5222 76.06 87.5222 76.772ZM82.6622 76.772C82.6622 77.532 82.8102 78.136 83.1062 78.584C83.4102 79.024 83.8902 79.244 84.5462 79.244C85.1942 79.244 85.6702 79.024 85.9742 78.584C86.2782 78.136 86.4302 77.532 86.4302 76.772C86.4302 76.012 86.2782 75.416 85.9742 74.984C85.6702 74.552 85.1902 74.336 84.5342 74.336C83.8782 74.336 83.4022 74.552 83.1062 74.984C82.8102 75.416 82.6622 76.012 82.6622 76.772ZM92.1958 73.448C92.3158 73.448 92.4438 73.456 92.5798 73.472C92.7158 73.48 92.8398 73.496 92.9518 73.52L92.8198 74.492C92.7158 74.468 92.5998 74.448 92.4718 74.432C92.3438 74.416 92.2278 74.408 92.1238 74.408C91.7958 74.408 91.4878 74.5 91.1998 74.684C90.9118 74.86 90.6798 75.112 90.5038 75.44C90.3358 75.76 90.2518 76.136 90.2518 76.568V80H89.1958V73.568H90.0598L90.1798 74.744H90.2278C90.4278 74.392 90.6918 74.088 91.0198 73.832C91.3558 73.576 91.7478 73.448 92.1958 73.448ZM96.1984 80.12C95.3984 80.12 94.7584 79.844 94.2784 79.292C93.7984 78.732 93.5584 77.9 93.5584 76.796C93.5584 75.692 93.7984 74.86 94.2784 74.3C94.7664 73.732 95.4104 73.448 96.2104 73.448C96.7064 73.448 97.1104 73.54 97.4224 73.724C97.7424 73.908 98.0024 74.132 98.2024 74.396H98.2744C98.2584 74.292 98.2424 74.14 98.2264 73.94C98.2104 73.732 98.2024 73.568 98.2024 73.448V70.88H99.2584V80H98.4064L98.2504 79.136H98.2024C98.0104 79.408 97.7544 79.64 97.4344 79.832C97.1144 80.024 96.7024 80.12 96.1984 80.12ZM96.3664 79.244C97.0464 79.244 97.5224 79.06 97.7944 78.692C98.0744 78.316 98.2144 77.752 98.2144 77V76.808C98.2144 76.008 98.0824 75.396 97.8184 74.972C97.5544 74.54 97.0664 74.324 96.3544 74.324C95.7864 74.324 95.3584 74.552 95.0704 75.008C94.7904 75.456 94.6504 76.06 94.6504 76.82C94.6504 77.588 94.7904 78.184 95.0704 78.608C95.3584 79.032 95.7904 79.244 96.3664 79.244Z" fill="#323232"/>
<rect x="47" y="88" width="318" height="30" rx="1" fill="white"/>
<path d="M58.924 103.62C58.924 103.084 59.052 102.704 59.308 102.48C59.564 102.248 59.88 102.132 60.256 102.132C60.624 102.132 60.936 102.248 61.192 102.48C61.456 102.704 61.588 103.084 61.588 103.62C61.588 104.148 61.456 104.528 61.192 104.76C60.936 104.992 60.624 105.108 60.256 105.108C59.88 105.108 59.564 104.992 59.308 104.76C59.052 104.528 58.924 104.148 58.924 103.62ZM63.4357 103.62C63.4357 103.084 63.5637 102.704 63.8197 102.48C64.0757 102.248 64.3917 102.132 64.7677 102.132C65.1357 102.132 65.4477 102.248 65.7037 102.48C65.9677 102.704 66.0997 103.084 66.0997 103.62C66.0997 104.148 65.9677 104.528 65.7037 104.76C65.4477 104.992 65.1357 105.108 64.7677 105.108C64.3917 105.108 64.0757 104.992 63.8197 104.76C63.5637 104.528 63.4357 104.148 63.4357 103.62ZM67.9474 103.62C67.9474 103.084 68.0754 102.704 68.3314 102.48C68.5874 102.248 68.9034 102.132 69.2794 102.132C69.6474 102.132 69.9594 102.248 70.2154 102.48C70.4794 102.704 70.6114 103.084 70.6114 103.62C70.6114 104.148 70.4794 104.528 70.2154 104.76C69.9594 104.992 69.6474 105.108 69.2794 105.108C68.9034 105.108 68.5874 104.992 68.3314 104.76C68.0754 104.528 67.9474 104.148 67.9474 103.62Z" fill="black"/>
<path d="M346 99C342.2 99 339 102.05 339 103.2C339 104.35 342.2 107.4 346 107.4C349.8 107.4 353 104.35 353 103.2C353 102.05 349.8 99 346 99ZM346 106.65C342.4 106.65 339.75 103.75 339.75 103.2C339.75 102.65 342.4 99.75 346 99.75C349.45 99.75 352.25 102.5 352.25 103.2C352.25 103.9 349.45 106.65 346 106.65Z" fill="#323232"/>
<path d="M346 100.6C344.55 100.6 343.4 101.8 343.4 103.2C343.4 104.6 344.55 105.8 346 105.8C347.45 105.8 348.6 104.6 348.6 103.2C348.6 101.8 347.45 100.6 346 100.6ZM346 105.05C344.95 105.05 344.15 104.2 344.15 103.2C344.15 102.2 345 101.35 346 101.35C347 101.35 347.85 102.2 347.85 103.2C347.85 104.2 347.05 105.05 346 105.05Z" fill="#323232"/>
<rect x="47" y="88" width="318" height="30" rx="1" stroke="#B51418" stroke-width="2"/>
<path d="M53.9899 135.042C54.3507 135.042 54.6431 134.75 54.6431 134.389C54.6431 134.028 54.3507 133.736 53.9899 133.736C53.6292 133.736 53.3368 134.028 53.3368 134.389C53.3368 134.75 53.6292 135.042 53.9899 135.042Z" fill="#B51418"/>
<path d="M53.9899 132.604C54.0392 132.605 54.0882 132.596 54.1338 132.577C54.1795 132.559 54.221 132.531 54.2559 132.496C54.2907 132.461 54.3182 132.42 54.3368 132.374C54.3553 132.329 54.3646 132.28 54.3639 132.23V128.361C54.3639 128.262 54.3245 128.167 54.2544 128.097C54.1842 128.027 54.0891 127.987 53.9899 127.987C53.8908 127.987 53.7957 128.027 53.7255 128.097C53.6554 128.167 53.616 128.262 53.616 128.361V132.23C53.616 132.329 53.6554 132.425 53.7255 132.495C53.7957 132.565 53.8908 132.604 53.9899 132.604Z" fill="#B51418"/>
<path d="M60.7707 134.958L55.2863 125.29C55.1585 125.051 54.9684 124.852 54.7361 124.713C54.5039 124.573 54.2382 124.5 53.9675 124.5C53.6968 124.5 53.4311 124.573 53.1989 124.713C52.9666 124.852 52.7765 125.051 52.6487 125.29L47.2092 134.958C47.0741 135.185 47.0019 135.445 47 135.71C46.9982 135.975 47.0666 136.235 47.1985 136.465C47.3303 136.695 47.5208 136.885 47.7504 137.017C47.9801 137.149 48.2406 137.218 48.5055 137.216H59.4744C59.7409 137.221 60.0041 137.155 60.2365 137.025C60.469 136.894 60.6623 136.704 60.7966 136.474C60.9308 136.244 61.001 135.981 61 135.715C60.999 135.448 60.9267 135.187 60.7907 134.958H60.7707ZM60.1176 136.089C60.0547 136.206 59.9622 136.305 59.8493 136.375C59.7365 136.445 59.6072 136.484 59.4744 136.488H48.5055C48.3713 136.489 48.2392 136.455 48.1227 136.388C48.0062 136.322 47.9095 136.226 47.8424 136.109C47.7764 135.993 47.7417 135.862 47.7417 135.728C47.7417 135.594 47.7764 135.463 47.8424 135.346L53.3268 125.679C53.3938 125.561 53.4909 125.462 53.6083 125.394C53.7257 125.325 53.8591 125.289 53.9949 125.289C54.1308 125.289 54.2642 125.325 54.3816 125.394C54.499 125.462 54.5961 125.561 54.663 125.679L60.1475 135.346C60.2068 135.462 60.2351 135.592 60.2299 135.722C60.2247 135.852 60.186 135.979 60.1176 136.089Z" fill="#B51418"/>
<path d="M71.952 136H67.164V127.432H71.952V128.38H68.244V131.056H71.736V131.992H68.244V135.052H71.952V136ZM76.688 129.448C76.808 129.448 76.936 129.456 77.072 129.472C77.208 129.48 77.332 129.496 77.444 129.52L77.312 130.492C77.208 130.468 77.092 130.448 76.964 130.432C76.836 130.416 76.72 130.408 76.616 130.408C76.288 130.408 75.98 130.5 75.692 130.684C75.404 130.86 75.172 131.112 74.996 131.44C74.828 131.76 74.744 132.136 74.744 132.568V136H73.688V129.568H74.552L74.672 130.744H74.72C74.92 130.392 75.184 130.088 75.512 129.832C75.848 129.576 76.24 129.448 76.688 129.448ZM81.645 129.448C81.765 129.448 81.893 129.456 82.029 129.472C82.165 129.48 82.289 129.496 82.401 129.52L82.269 130.492C82.165 130.468 82.049 130.448 81.921 130.432C81.793 130.416 81.677 130.408 81.573 130.408C81.245 130.408 80.937 130.5 80.649 130.684C80.361 130.86 80.129 131.112 79.953 131.44C79.785 131.76 79.701 132.136 79.701 132.568V136H78.645V129.568H79.509L79.629 130.744H79.677C79.877 130.392 80.141 130.088 80.469 129.832C80.805 129.576 81.197 129.448 81.645 129.448ZM88.9597 132.772C88.9597 133.836 88.6877 134.66 88.1437 135.244C87.6077 135.828 86.8797 136.12 85.9597 136.12C85.3917 136.12 84.8837 135.992 84.4357 135.736C83.9957 135.472 83.6477 135.092 83.3917 134.596C83.1357 134.092 83.0077 133.484 83.0077 132.772C83.0077 131.708 83.2717 130.888 83.7997 130.312C84.3357 129.736 85.0677 129.448 85.9957 129.448C86.5717 129.448 87.0837 129.58 87.5317 129.844C87.9797 130.1 88.3277 130.476 88.5757 130.972C88.8317 131.46 88.9597 132.06 88.9597 132.772ZM84.0997 132.772C84.0997 133.532 84.2477 134.136 84.5437 134.584C84.8477 135.024 85.3277 135.244 85.9837 135.244C86.6317 135.244 87.1077 135.024 87.4117 134.584C87.7157 134.136 87.8677 133.532 87.8677 132.772C87.8677 132.012 87.7157 131.416 87.4117 130.984C87.1077 130.552 86.6277 130.336 85.9717 130.336C85.3157 130.336 84.8397 130.552 84.5437 130.984C84.2477 131.416 84.0997 132.012 84.0997 132.772ZM93.6333 129.448C93.7533 129.448 93.8813 129.456 94.0173 129.472C94.1533 129.48 94.2773 129.496 94.3893 129.52L94.2573 130.492C94.1533 130.468 94.0373 130.448 93.9093 130.432C93.7813 130.416 93.6653 130.408 93.5613 130.408C93.2333 130.408 92.9253 130.5 92.6373 130.684C92.3493 130.86 92.1173 131.112 91.9413 131.44C91.7733 131.76 91.6893 132.136 91.6893 132.568V136H90.6333V129.568H91.4973L91.6173 130.744H91.6653C91.8653 130.392 92.1293 130.088 92.4573 129.832C92.7933 129.576 93.1853 129.448 93.6333 129.448Z" fill="#B51418"/>
<rect x="325" y="88" width="1" height="30" fill="#B51418"/>
<path d="M305.513 103.012L308.863 99.6625C309.013 99.5125 309.013 99.2625 308.863 99.1125C308.713 98.9625 308.463 98.9625 308.313 99.1125L305.013 102.463L301.663 99.1125C301.513 98.9625 301.263 98.9625 301.113 99.1125C300.962 99.2625 300.962 99.5125 301.113 99.6625L304.463 103.012L301.113 106.362C300.962 106.512 300.962 106.762 301.113 106.912C301.163 106.963 301.263 107.012 301.363 107.012C301.463 107.012 301.563 106.963 301.613 106.912L305.013 103.512L308.363 106.862C308.413 106.912 308.513 106.962 308.613 106.962C308.713 106.962 308.813 106.912 308.863 106.862C309.013 106.712 309.013 106.463 308.863 106.312L305.513 103.012Z" fill="black"/>
</svg>
