<svg width="904" height="391" viewBox="0 0 904 391" fill="none" xmlns="http://www.w3.org/2000/svg">
<rect width="904" height="391" fill="white"/>
<path d="M187.956 53H186.696L182.112 45.884H182.064C182.08 46.164 182.1 46.512 182.124 46.928C182.148 47.344 182.16 47.772 182.16 48.212V53H181.164V44.432H182.412L186.984 51.524H187.032C187.024 51.396 187.012 51.204 186.996 50.948C186.988 50.692 186.976 50.416 186.96 50.12C186.952 49.816 186.948 49.532 186.948 49.268V44.432H187.956V53ZM192.573 46.46C193.357 46.46 193.937 46.632 194.313 46.976C194.689 47.32 194.877 47.868 194.877 48.62V53H194.109L193.905 52.088H193.857C193.577 52.44 193.281 52.7 192.969 52.868C192.657 53.036 192.233 53.12 191.697 53.12C191.113 53.12 190.629 52.968 190.245 52.664C189.861 52.352 189.669 51.868 189.669 51.212C189.669 50.572 189.921 50.08 190.425 49.736C190.929 49.384 191.705 49.192 192.753 49.16L193.845 49.124V48.74C193.845 48.204 193.729 47.832 193.497 47.624C193.265 47.416 192.937 47.312 192.513 47.312C192.177 47.312 191.857 47.364 191.553 47.468C191.249 47.564 190.965 47.676 190.701 47.804L190.377 47.012C190.657 46.86 190.989 46.732 191.373 46.628C191.757 46.516 192.157 46.46 192.573 46.46ZM193.833 49.856L192.885 49.892C192.085 49.924 191.529 50.052 191.217 50.276C190.913 50.5 190.761 50.816 190.761 51.224C190.761 51.584 190.869 51.848 191.085 52.016C191.309 52.184 191.593 52.268 191.937 52.268C192.473 52.268 192.921 52.12 193.281 51.824C193.649 51.52 193.833 51.056 193.833 50.432V49.856ZM203.92 46.448C204.648 46.448 205.192 46.636 205.552 47.012C205.912 47.388 206.092 47.988 206.092 48.812V53H205.048V48.86C205.048 47.844 204.612 47.336 203.74 47.336C203.116 47.336 202.668 47.516 202.396 47.876C202.132 48.236 202 48.76 202 49.448V53H200.956V48.86C200.956 47.844 200.516 47.336 199.636 47.336C198.988 47.336 198.54 47.536 198.292 47.936C198.044 48.336 197.92 48.912 197.92 49.664V53H196.864V46.568H197.716L197.872 47.444H197.932C198.132 47.108 198.4 46.86 198.736 46.7C199.08 46.532 199.444 46.448 199.828 46.448C200.836 46.448 201.492 46.808 201.796 47.528H201.856C202.072 47.16 202.364 46.888 202.732 46.712C203.1 46.536 203.496 46.448 203.92 46.448ZM210.563 46.448C211.107 46.448 211.579 46.568 211.979 46.808C212.379 47.048 212.683 47.388 212.891 47.828C213.107 48.26 213.215 48.768 213.215 49.352V49.988H208.811C208.827 50.716 209.011 51.272 209.363 51.656C209.723 52.032 210.223 52.22 210.863 52.22C211.271 52.22 211.631 52.184 211.943 52.112C212.263 52.032 212.591 51.92 212.927 51.776V52.7C212.599 52.844 212.275 52.948 211.955 53.012C211.635 53.084 211.255 53.12 210.815 53.12C210.199 53.12 209.659 52.996 209.195 52.748C208.731 52.5 208.367 52.132 208.103 51.644C207.847 51.156 207.719 50.552 207.719 49.832C207.719 49.128 207.835 48.524 208.067 48.02C208.307 47.516 208.639 47.128 209.063 46.856C209.495 46.584 209.995 46.448 210.563 46.448ZM210.551 47.312C210.047 47.312 209.647 47.476 209.351 47.804C209.063 48.124 208.891 48.572 208.835 49.148H212.111C212.103 48.604 211.975 48.164 211.727 47.828C211.479 47.484 211.087 47.312 210.551 47.312Z" fill="#323232"/>
<rect x="180.5" y="60.5" width="263" height="35" rx="1.5" fill="white"/>
<path d="M199.63 83L198.426 79.906H194.464L193.274 83H192L195.906 72.962H197.04L200.932 83H199.63ZM198.048 78.786L196.928 75.762C196.9 75.6873 196.853 75.552 196.788 75.356C196.723 75.16 196.657 74.9593 196.592 74.754C196.536 74.5393 196.489 74.376 196.452 74.264C196.377 74.5533 196.298 74.838 196.214 75.118C196.139 75.3887 196.074 75.6033 196.018 75.762L194.884 78.786H198.048ZM205.141 83.14C204.469 83.14 203.877 83.0047 203.363 82.734C202.85 82.4633 202.444 82.0433 202.145 81.474C201.856 80.9047 201.711 80.1767 201.711 79.29C201.711 78.366 201.861 77.6147 202.159 77.036C202.467 76.4573 202.887 76.0327 203.419 75.762C203.951 75.4913 204.553 75.356 205.225 75.356C205.599 75.356 205.963 75.398 206.317 75.482C206.681 75.5567 206.975 75.65 207.199 75.762L206.821 76.784C206.597 76.7 206.336 76.6207 206.037 76.546C205.739 76.4713 205.459 76.434 205.197 76.434C203.723 76.434 202.985 77.3813 202.985 79.276C202.985 80.1813 203.163 80.8767 203.517 81.362C203.881 81.838 204.418 82.076 205.127 82.076C205.529 82.076 205.888 82.034 206.205 81.95C206.523 81.866 206.812 81.7633 207.073 81.642V82.734C206.821 82.8647 206.541 82.9627 206.233 83.028C205.935 83.1027 205.571 83.14 205.141 83.14ZM217.09 75.356C217.939 75.356 218.574 75.5753 218.994 76.014C219.414 76.4527 219.624 77.1527 219.624 78.114V83H218.406V78.17C218.406 76.9847 217.897 76.392 216.88 76.392C216.152 76.392 215.629 76.602 215.312 77.022C215.004 77.442 214.85 78.0533 214.85 78.856V83H213.632V78.17C213.632 76.9847 213.119 76.392 212.092 76.392C211.336 76.392 210.813 76.6253 210.524 77.092C210.235 77.5587 210.09 78.2307 210.09 79.108V83H208.858V75.496H209.852L210.034 76.518H210.104C210.337 76.126 210.65 75.8367 211.042 75.65C211.443 75.454 211.868 75.356 212.316 75.356C213.492 75.356 214.257 75.776 214.612 76.616H214.682C214.934 76.1867 215.275 75.8693 215.704 75.664C216.133 75.4587 216.595 75.356 217.09 75.356ZM224.84 75.356C225.475 75.356 226.025 75.496 226.492 75.776C226.959 76.056 227.313 76.4527 227.556 76.966C227.808 77.47 227.934 78.0627 227.934 78.744V79.486H222.796C222.815 80.3353 223.029 80.984 223.44 81.432C223.86 81.8707 224.443 82.09 225.19 82.09C225.666 82.09 226.086 82.048 226.45 81.964C226.823 81.8707 227.206 81.74 227.598 81.572V82.65C227.215 82.818 226.837 82.9393 226.464 83.014C226.091 83.098 225.647 83.14 225.134 83.14C224.415 83.14 223.785 82.9953 223.244 82.706C222.703 82.4167 222.278 81.9873 221.97 81.418C221.671 80.8487 221.522 80.144 221.522 79.304C221.522 78.4827 221.657 77.778 221.928 77.19C222.208 76.602 222.595 76.1493 223.09 75.832C223.594 75.5147 224.177 75.356 224.84 75.356ZM224.826 76.364C224.238 76.364 223.771 76.5553 223.426 76.938C223.09 77.3113 222.889 77.834 222.824 78.506H226.646C226.637 77.8713 226.487 77.358 226.198 76.966C225.909 76.5647 225.451 76.364 224.826 76.364ZM236.463 83H232.851V82.272L234.027 82.006V74.012L232.851 73.732V73.004H236.463V73.732L235.287 74.012V82.006L236.463 82.272V83ZM241.837 75.356C242.733 75.356 243.41 75.5753 243.867 76.014C244.324 76.4527 244.553 77.1527 244.553 78.114V83H243.335V78.198C243.335 76.994 242.775 76.392 241.655 76.392C240.824 76.392 240.25 76.6253 239.933 77.092C239.616 77.5587 239.457 78.2307 239.457 79.108V83H238.225V75.496H239.219L239.401 76.518H239.471C239.714 76.126 240.05 75.8367 240.479 75.65C240.908 75.454 241.361 75.356 241.837 75.356ZM251.765 80.928C251.765 81.656 251.495 82.2067 250.953 82.58C250.412 82.9533 249.684 83.14 248.769 83.14C248.247 83.14 247.794 83.098 247.411 83.014C247.038 82.93 246.707 82.8133 246.417 82.664V81.544C246.716 81.6933 247.075 81.8333 247.495 81.964C247.925 82.0853 248.359 82.146 248.797 82.146C249.423 82.146 249.875 82.048 250.155 81.852C250.435 81.6467 250.575 81.376 250.575 81.04C250.575 80.8533 250.524 80.6853 250.421 80.536C250.319 80.3867 250.132 80.2373 249.861 80.088C249.6 79.9387 249.222 79.7707 248.727 79.584C248.242 79.3973 247.827 79.2107 247.481 79.024C247.136 78.8373 246.87 78.6133 246.683 78.352C246.497 78.0907 246.403 77.7547 246.403 77.344C246.403 76.7093 246.66 76.2193 247.173 75.874C247.696 75.5287 248.377 75.356 249.217 75.356C249.675 75.356 250.099 75.4027 250.491 75.496C250.893 75.5893 251.266 75.7107 251.611 75.86L251.191 76.84C250.874 76.7093 250.543 76.5973 250.197 76.504C249.852 76.4107 249.497 76.364 249.133 76.364C248.629 76.364 248.242 76.448 247.971 76.616C247.71 76.7747 247.579 76.994 247.579 77.274C247.579 77.4887 247.64 77.666 247.761 77.806C247.883 77.946 248.083 78.086 248.363 78.226C248.653 78.366 249.035 78.5247 249.511 78.702C249.987 78.8793 250.393 79.0613 250.729 79.248C251.065 79.4347 251.322 79.6633 251.499 79.934C251.677 80.1953 251.765 80.5267 251.765 80.928ZM259.851 75.496V83H258.843L258.661 82.006H258.605C258.362 82.398 258.026 82.6873 257.597 82.874C257.167 83.0513 256.71 83.14 256.225 83.14C255.319 83.14 254.638 82.9253 254.181 82.496C253.723 82.0573 253.495 81.362 253.495 80.41V75.496H254.741V80.326C254.741 81.5207 255.296 82.118 256.407 82.118C257.237 82.118 257.811 81.8847 258.129 81.418C258.455 80.9513 258.619 80.2793 258.619 79.402V75.496H259.851ZM265.733 75.356C265.873 75.356 266.022 75.3653 266.181 75.384C266.34 75.3933 266.484 75.412 266.615 75.44L266.461 76.574C266.34 76.546 266.204 76.5227 266.055 76.504C265.906 76.4853 265.77 76.476 265.649 76.476C265.266 76.476 264.907 76.5833 264.571 76.798C264.235 77.0033 263.964 77.2973 263.759 77.68C263.563 78.0533 263.465 78.492 263.465 78.996V83H262.233V75.496H263.241L263.381 76.868H263.437C263.67 76.4573 263.978 76.1027 264.361 75.804C264.753 75.5053 265.21 75.356 265.733 75.356ZM270.585 75.37C271.499 75.37 272.176 75.5707 272.615 75.972C273.053 76.3733 273.273 77.0127 273.273 77.89V83H272.377L272.139 81.936H272.083C271.756 82.3467 271.411 82.65 271.047 82.846C270.683 83.042 270.188 83.14 269.563 83.14C268.881 83.14 268.317 82.9627 267.869 82.608C267.421 82.244 267.197 81.6793 267.197 80.914C267.197 80.1673 267.491 79.5933 268.079 79.192C268.667 78.7813 269.572 78.5573 270.795 78.52L272.069 78.478V78.03C272.069 77.4047 271.933 76.9707 271.663 76.728C271.392 76.4853 271.009 76.364 270.515 76.364C270.123 76.364 269.749 76.4247 269.395 76.546C269.04 76.658 268.709 76.7887 268.401 76.938L268.023 76.014C268.349 75.8367 268.737 75.6873 269.185 75.566C269.633 75.4353 270.099 75.37 270.585 75.37ZM272.055 79.332L270.949 79.374C270.015 79.4113 269.367 79.5607 269.003 79.822C268.648 80.0833 268.471 80.452 268.471 80.928C268.471 81.348 268.597 81.656 268.849 81.852C269.11 82.048 269.441 82.146 269.843 82.146C270.468 82.146 270.991 81.9733 271.411 81.628C271.84 81.2733 272.055 80.732 272.055 80.004V79.332ZM279.202 75.356C280.098 75.356 280.775 75.5753 281.232 76.014C281.69 76.4527 281.918 77.1527 281.918 78.114V83H280.7V78.198C280.7 76.994 280.14 76.392 279.02 76.392C278.19 76.392 277.616 76.6253 277.298 77.092C276.981 77.5587 276.822 78.2307 276.822 79.108V83H275.59V75.496H276.584L276.766 76.518H276.836C277.079 76.126 277.415 75.8367 277.844 75.65C278.274 75.454 278.726 75.356 279.202 75.356ZM287.255 83.14C286.583 83.14 285.99 83.0047 285.477 82.734C284.963 82.4633 284.557 82.0433 284.259 81.474C283.969 80.9047 283.825 80.1767 283.825 79.29C283.825 78.366 283.974 77.6147 284.273 77.036C284.581 76.4573 285.001 76.0327 285.533 75.762C286.065 75.4913 286.667 75.356 287.339 75.356C287.712 75.356 288.076 75.398 288.431 75.482C288.795 75.5567 289.089 75.65 289.313 75.762L288.935 76.784C288.711 76.7 288.449 76.6207 288.151 76.546C287.852 76.4713 287.572 76.434 287.311 76.434C285.836 76.434 285.099 77.3813 285.099 79.276C285.099 80.1813 285.276 80.8767 285.631 81.362C285.995 81.838 286.531 82.076 287.241 82.076C287.642 82.076 288.001 82.034 288.319 81.95C288.636 81.866 288.925 81.7633 289.187 81.642V82.734C288.935 82.8647 288.655 82.9627 288.347 83.028C288.048 83.1027 287.684 83.14 287.255 83.14ZM293.869 75.356C294.504 75.356 295.055 75.496 295.521 75.776C295.988 76.056 296.343 76.4527 296.585 76.966C296.837 77.47 296.963 78.0627 296.963 78.744V79.486H291.825C291.844 80.3353 292.059 80.984 292.469 81.432C292.889 81.8707 293.473 82.09 294.219 82.09C294.695 82.09 295.115 82.048 295.479 81.964C295.853 81.8707 296.235 81.74 296.627 81.572V82.65C296.245 82.818 295.867 82.9393 295.493 83.014C295.12 83.098 294.677 83.14 294.163 83.14C293.445 83.14 292.815 82.9953 292.273 82.706C291.732 82.4167 291.307 81.9873 290.999 81.418C290.701 80.8487 290.551 80.144 290.551 79.304C290.551 78.4827 290.687 77.778 290.957 77.19C291.237 76.602 291.625 76.1493 292.119 75.832C292.623 75.5147 293.207 75.356 293.869 75.356ZM293.855 76.364C293.267 76.364 292.801 76.5553 292.455 76.938C292.119 77.3113 291.919 77.834 291.853 78.506H295.675C295.666 77.8713 295.517 77.358 295.227 76.966C294.938 76.5647 294.481 76.364 293.855 76.364Z" fill="black"/>
<rect x="180.5" y="60.5" width="263" height="35" rx="1.5" stroke="#939393"/>
<path d="M181.164 125V116.432H182.244V124.04H185.988V125H181.164ZM192.905 121.772C192.905 122.836 192.633 123.66 192.089 124.244C191.553 124.828 190.825 125.12 189.905 125.12C189.337 125.12 188.829 124.992 188.381 124.736C187.941 124.472 187.593 124.092 187.337 123.596C187.081 123.092 186.953 122.484 186.953 121.772C186.953 120.708 187.217 119.888 187.745 119.312C188.281 118.736 189.013 118.448 189.941 118.448C190.517 118.448 191.029 118.58 191.477 118.844C191.925 119.1 192.273 119.476 192.521 119.972C192.777 120.46 192.905 121.06 192.905 121.772ZM188.045 121.772C188.045 122.532 188.193 123.136 188.489 123.584C188.793 124.024 189.273 124.244 189.929 124.244C190.577 124.244 191.053 124.024 191.357 123.584C191.661 123.136 191.813 122.532 191.813 121.772C191.813 121.012 191.661 120.416 191.357 119.984C191.053 119.552 190.573 119.336 189.917 119.336C189.261 119.336 188.785 119.552 188.489 119.984C188.193 120.416 188.045 121.012 188.045 121.772ZM196.859 118.448C197.283 118.448 197.663 118.528 197.999 118.688C198.343 118.848 198.635 119.092 198.875 119.42H198.935L199.079 118.568H199.919V125.108C199.919 126.028 199.683 126.72 199.211 127.184C198.747 127.648 198.023 127.88 197.039 127.88C196.095 127.88 195.323 127.744 194.723 127.472V126.5C195.355 126.836 196.147 127.004 197.099 127.004C197.651 127.004 198.083 126.84 198.395 126.512C198.715 126.192 198.875 125.752 198.875 125.192V124.94C198.875 124.844 198.879 124.708 198.887 124.532C198.895 124.348 198.903 124.22 198.911 124.148H198.863C198.431 124.796 197.767 125.12 196.871 125.12C196.039 125.12 195.387 124.828 194.915 124.244C194.451 123.66 194.219 122.844 194.219 121.796C194.219 120.772 194.451 119.96 194.915 119.36C195.387 118.752 196.035 118.448 196.859 118.448ZM197.003 119.336C196.467 119.336 196.051 119.552 195.755 119.984C195.459 120.408 195.311 121.016 195.311 121.808C195.311 122.6 195.455 123.208 195.743 123.632C196.031 124.048 196.459 124.256 197.027 124.256C197.675 124.256 198.147 124.084 198.443 123.74C198.739 123.388 198.887 122.824 198.887 122.048V121.796C198.887 120.924 198.735 120.296 198.431 119.912C198.127 119.528 197.651 119.336 197.003 119.336ZM202.501 116.156C202.661 116.156 202.801 116.212 202.921 116.324C203.049 116.428 203.113 116.596 203.113 116.828C203.113 117.06 203.049 117.232 202.921 117.344C202.801 117.448 202.661 117.5 202.501 117.5C202.325 117.5 202.177 117.448 202.057 117.344C201.937 117.232 201.877 117.06 201.877 116.828C201.877 116.596 201.937 116.428 202.057 116.324C202.177 116.212 202.325 116.156 202.501 116.156ZM203.017 118.568V125H201.961V118.568H203.017ZM208.151 118.448C208.919 118.448 209.499 118.636 209.891 119.012C210.283 119.388 210.479 119.988 210.479 120.812V125H209.435V120.884C209.435 119.852 208.955 119.336 207.995 119.336C207.283 119.336 206.791 119.536 206.519 119.936C206.247 120.336 206.111 120.912 206.111 121.664V125H205.055V118.568H205.907L206.063 119.444H206.123C206.331 119.108 206.619 118.86 206.987 118.7C207.355 118.532 207.743 118.448 208.151 118.448ZM222.598 120.632C222.598 122.08 222.202 123.172 221.41 123.908C220.626 124.636 219.53 125 218.122 125H215.734V116.432H218.374C219.23 116.432 219.974 116.592 220.606 116.912C221.246 117.232 221.738 117.704 222.082 118.328C222.426 118.952 222.598 119.72 222.598 120.632ZM221.458 120.668C221.458 119.524 221.174 118.688 220.606 118.16C220.046 117.624 219.25 117.356 218.218 117.356H216.814V124.076H217.978C220.298 124.076 221.458 122.94 221.458 120.668ZM229.948 121.772C229.948 122.836 229.676 123.66 229.132 124.244C228.596 124.828 227.868 125.12 226.948 125.12C226.38 125.12 225.872 124.992 225.424 124.736C224.984 124.472 224.636 124.092 224.38 123.596C224.124 123.092 223.996 122.484 223.996 121.772C223.996 120.708 224.26 119.888 224.788 119.312C225.324 118.736 226.056 118.448 226.984 118.448C227.56 118.448 228.072 118.58 228.52 118.844C228.968 119.1 229.316 119.476 229.564 119.972C229.82 120.46 229.948 121.06 229.948 121.772ZM225.088 121.772C225.088 122.532 225.236 123.136 225.532 123.584C225.836 124.024 226.316 124.244 226.972 124.244C227.62 124.244 228.096 124.024 228.4 123.584C228.704 123.136 228.856 122.532 228.856 121.772C228.856 121.012 228.704 120.416 228.4 119.984C228.096 119.552 227.616 119.336 226.96 119.336C226.304 119.336 225.828 119.552 225.532 119.984C225.236 120.416 225.088 121.012 225.088 121.772ZM238.678 118.448C239.406 118.448 239.95 118.636 240.31 119.012C240.67 119.388 240.85 119.988 240.85 120.812V125H239.806V120.86C239.806 119.844 239.37 119.336 238.498 119.336C237.874 119.336 237.426 119.516 237.154 119.876C236.89 120.236 236.758 120.76 236.758 121.448V125H235.714V120.86C235.714 119.844 235.274 119.336 234.394 119.336C233.746 119.336 233.298 119.536 233.05 119.936C232.802 120.336 232.678 120.912 232.678 121.664V125H231.622V118.568H232.474L232.63 119.444H232.69C232.89 119.108 233.158 118.86 233.494 118.7C233.838 118.532 234.202 118.448 234.586 118.448C235.594 118.448 236.25 118.808 236.554 119.528H236.614C236.83 119.16 237.122 118.888 237.49 118.712C237.858 118.536 238.254 118.448 238.678 118.448ZM245.272 118.46C246.056 118.46 246.636 118.632 247.012 118.976C247.388 119.32 247.576 119.868 247.576 120.62V125H246.808L246.604 124.088H246.556C246.276 124.44 245.98 124.7 245.668 124.868C245.356 125.036 244.932 125.12 244.396 125.12C243.812 125.12 243.328 124.968 242.944 124.664C242.56 124.352 242.368 123.868 242.368 123.212C242.368 122.572 242.62 122.08 243.124 121.736C243.628 121.384 244.404 121.192 245.452 121.16L246.544 121.124V120.74C246.544 120.204 246.428 119.832 246.196 119.624C245.964 119.416 245.636 119.312 245.212 119.312C244.876 119.312 244.556 119.364 244.252 119.468C243.948 119.564 243.664 119.676 243.4 119.804L243.076 119.012C243.356 118.86 243.688 118.732 244.072 118.628C244.456 118.516 244.856 118.46 245.272 118.46ZM246.532 121.856L245.584 121.892C244.784 121.924 244.228 122.052 243.916 122.276C243.612 122.5 243.46 122.816 243.46 123.224C243.46 123.584 243.568 123.848 243.784 124.016C244.008 124.184 244.292 124.268 244.636 124.268C245.172 124.268 245.62 124.12 245.98 123.824C246.348 123.52 246.532 123.056 246.532 122.432V121.856ZM250.103 116.156C250.263 116.156 250.403 116.212 250.523 116.324C250.651 116.428 250.715 116.596 250.715 116.828C250.715 117.06 250.651 117.232 250.523 117.344C250.403 117.448 250.263 117.5 250.103 117.5C249.927 117.5 249.779 117.448 249.659 117.344C249.539 117.232 249.479 117.06 249.479 116.828C249.479 116.596 249.539 116.428 249.659 116.324C249.779 116.212 249.927 116.156 250.103 116.156ZM250.619 118.568V125H249.563V118.568H250.619ZM255.753 118.448C256.521 118.448 257.101 118.636 257.493 119.012C257.885 119.388 258.081 119.988 258.081 120.812V125H257.037V120.884C257.037 119.852 256.557 119.336 255.597 119.336C254.885 119.336 254.393 119.536 254.121 119.936C253.849 120.336 253.713 120.912 253.713 121.664V125H252.657V118.568H253.509L253.665 119.444H253.725C253.933 119.108 254.221 118.86 254.589 118.7C254.957 118.532 255.345 118.448 255.753 118.448Z" fill="#323232"/>
<rect x="180.5" y="132.5" width="263" height="35" rx="1.5" fill="white"/>
<path d="M196.522 155H195.262V146.11H192.14V145.004H199.63V146.11H196.522V155ZM202.883 147.356C203.518 147.356 204.068 147.496 204.535 147.776C205.002 148.056 205.356 148.453 205.599 148.966C205.851 149.47 205.977 150.063 205.977 150.744V151.486H200.839C200.858 152.335 201.072 152.984 201.483 153.432C201.903 153.871 202.486 154.09 203.233 154.09C203.709 154.09 204.129 154.048 204.493 153.964C204.866 153.871 205.249 153.74 205.641 153.572V154.65C205.258 154.818 204.88 154.939 204.507 155.014C204.134 155.098 203.69 155.14 203.177 155.14C202.458 155.14 201.828 154.995 201.287 154.706C200.746 154.417 200.321 153.987 200.013 153.418C199.714 152.849 199.565 152.144 199.565 151.304C199.565 150.483 199.7 149.778 199.971 149.19C200.251 148.602 200.638 148.149 201.133 147.832C201.637 147.515 202.22 147.356 202.883 147.356ZM202.869 148.364C202.281 148.364 201.814 148.555 201.469 148.938C201.133 149.311 200.932 149.834 200.867 150.506H204.689C204.68 149.871 204.53 149.358 204.241 148.966C203.952 148.565 203.494 148.364 202.869 148.364ZM212.773 152.928C212.773 153.656 212.503 154.207 211.961 154.58C211.42 154.953 210.692 155.14 209.777 155.14C209.255 155.14 208.802 155.098 208.419 155.014C208.046 154.93 207.715 154.813 207.425 154.664V153.544C207.724 153.693 208.083 153.833 208.503 153.964C208.933 154.085 209.367 154.146 209.805 154.146C210.431 154.146 210.883 154.048 211.163 153.852C211.443 153.647 211.583 153.376 211.583 153.04C211.583 152.853 211.532 152.685 211.429 152.536C211.327 152.387 211.14 152.237 210.869 152.088C210.608 151.939 210.23 151.771 209.735 151.584C209.25 151.397 208.835 151.211 208.489 151.024C208.144 150.837 207.878 150.613 207.691 150.352C207.505 150.091 207.411 149.755 207.411 149.344C207.411 148.709 207.668 148.219 208.181 147.874C208.704 147.529 209.385 147.356 210.225 147.356C210.683 147.356 211.107 147.403 211.499 147.496C211.901 147.589 212.274 147.711 212.619 147.86L212.199 148.84C211.882 148.709 211.551 148.597 211.205 148.504C210.86 148.411 210.505 148.364 210.141 148.364C209.637 148.364 209.25 148.448 208.979 148.616C208.718 148.775 208.587 148.994 208.587 149.274C208.587 149.489 208.648 149.666 208.769 149.806C208.891 149.946 209.091 150.086 209.371 150.226C209.661 150.366 210.043 150.525 210.519 150.702C210.995 150.879 211.401 151.061 211.737 151.248C212.073 151.435 212.33 151.663 212.507 151.934C212.685 152.195 212.773 152.527 212.773 152.928ZM217.092 154.132C217.279 154.132 217.47 154.118 217.666 154.09C217.862 154.062 218.021 154.025 218.142 153.978V154.916C218.012 154.981 217.825 155.033 217.582 155.07C217.34 155.117 217.106 155.14 216.882 155.14C216.49 155.14 216.126 155.075 215.79 154.944C215.464 154.804 215.198 154.566 214.992 154.23C214.787 153.894 214.684 153.423 214.684 152.816V148.448H213.62V147.86L214.698 147.37L215.188 145.774H215.916V147.496H218.086V148.448H215.916V152.788C215.916 153.245 216.024 153.586 216.238 153.81C216.462 154.025 216.747 154.132 217.092 154.132ZM219.463 154.244C219.463 153.899 219.547 153.656 219.715 153.516C219.883 153.376 220.084 153.306 220.317 153.306C220.55 153.306 220.756 153.376 220.933 153.516C221.11 153.656 221.199 153.899 221.199 154.244C221.199 154.58 221.11 154.823 220.933 154.972C220.756 155.121 220.55 155.196 220.317 155.196C220.084 155.196 219.883 155.121 219.715 154.972C219.547 154.823 219.463 154.58 219.463 154.244ZM226.401 155.14C225.729 155.14 225.137 155.005 224.623 154.734C224.11 154.463 223.704 154.043 223.405 153.474C223.116 152.905 222.971 152.177 222.971 151.29C222.971 150.366 223.121 149.615 223.419 149.036C223.727 148.457 224.147 148.033 224.679 147.762C225.211 147.491 225.813 147.356 226.485 147.356C226.859 147.356 227.223 147.398 227.577 147.482C227.941 147.557 228.235 147.65 228.459 147.762L228.081 148.784C227.857 148.7 227.596 148.621 227.297 148.546C226.999 148.471 226.719 148.434 226.457 148.434C224.983 148.434 224.245 149.381 224.245 151.276C224.245 152.181 224.423 152.877 224.777 153.362C225.141 153.838 225.678 154.076 226.387 154.076C226.789 154.076 227.148 154.034 227.465 153.95C227.783 153.866 228.072 153.763 228.333 153.642V154.734C228.081 154.865 227.801 154.963 227.493 155.028C227.195 155.103 226.831 155.14 226.401 155.14ZM236.642 151.234C236.642 152.475 236.324 153.437 235.69 154.118C235.064 154.799 234.215 155.14 233.142 155.14C232.479 155.14 231.886 154.991 231.364 154.692C230.85 154.384 230.444 153.941 230.146 153.362C229.847 152.774 229.698 152.065 229.698 151.234C229.698 149.993 230.006 149.036 230.622 148.364C231.247 147.692 232.101 147.356 233.184 147.356C233.856 147.356 234.453 147.51 234.976 147.818C235.498 148.117 235.904 148.555 236.194 149.134C236.492 149.703 236.642 150.403 236.642 151.234ZM230.972 151.234C230.972 152.121 231.144 152.825 231.49 153.348C231.844 153.861 232.404 154.118 233.17 154.118C233.926 154.118 234.481 153.861 234.836 153.348C235.19 152.825 235.368 152.121 235.368 151.234C235.368 150.347 235.19 149.652 234.836 149.148C234.481 148.644 233.921 148.392 233.156 148.392C232.39 148.392 231.835 148.644 231.49 149.148C231.144 149.652 230.972 150.347 230.972 151.234ZM246.826 147.356C247.676 147.356 248.31 147.575 248.73 148.014C249.15 148.453 249.36 149.153 249.36 150.114V155H248.142V150.17C248.142 148.985 247.634 148.392 246.616 148.392C245.888 148.392 245.366 148.602 245.048 149.022C244.74 149.442 244.586 150.053 244.586 150.856V155H243.368V150.17C243.368 148.985 242.855 148.392 241.828 148.392C241.072 148.392 240.55 148.625 240.26 149.092C239.971 149.559 239.826 150.231 239.826 151.108V155H238.594V147.496H239.588L239.77 148.518H239.84C240.074 148.126 240.386 147.837 240.778 147.65C241.18 147.454 241.604 147.356 242.052 147.356C243.228 147.356 243.994 147.776 244.348 148.616H244.418C244.67 148.187 245.011 147.869 245.44 147.664C245.87 147.459 246.332 147.356 246.826 147.356Z" fill="black"/>
<rect x="180.5" y="132.5" width="263" height="35" rx="1.5" stroke="#939393"/>
<path d="M466.024 122.708C466.024 123.468 465.748 124.06 465.196 124.484C464.644 124.908 463.9 125.12 462.964 125.12C462.484 125.12 462.04 125.084 461.632 125.012C461.224 124.94 460.884 124.84 460.612 124.712V123.68C460.9 123.808 461.256 123.924 461.68 124.028C462.112 124.132 462.556 124.184 463.012 124.184C463.644 124.184 464.124 124.06 464.452 123.812C464.78 123.564 464.944 123.228 464.944 122.804C464.944 122.524 464.884 122.288 464.764 122.096C464.644 121.904 464.436 121.728 464.14 121.568C463.844 121.408 463.44 121.232 462.928 121.04C462.192 120.776 461.64 120.452 461.272 120.068C460.904 119.684 460.72 119.16 460.72 118.496C460.72 118.048 460.836 117.66 461.068 117.332C461.3 117.004 461.62 116.752 462.028 116.576C462.436 116.4 462.912 116.312 463.456 116.312C463.92 116.312 464.348 116.356 464.74 116.444C465.132 116.532 465.492 116.648 465.82 116.792L465.484 117.716C465.188 117.588 464.864 117.48 464.512 117.392C464.16 117.304 463.8 117.26 463.432 117.26C462.896 117.26 462.492 117.376 462.22 117.608C461.948 117.832 461.812 118.132 461.812 118.508C461.812 118.796 461.872 119.036 461.992 119.228C462.112 119.42 462.308 119.596 462.58 119.756C462.852 119.908 463.22 120.068 463.684 120.236C464.188 120.42 464.612 120.62 464.956 120.836C465.308 121.044 465.572 121.296 465.748 121.592C465.932 121.888 466.024 122.26 466.024 122.708ZM470.09 118.448C470.634 118.448 471.106 118.568 471.506 118.808C471.906 119.048 472.21 119.388 472.418 119.828C472.634 120.26 472.742 120.768 472.742 121.352V121.988H468.338C468.354 122.716 468.538 123.272 468.89 123.656C469.25 124.032 469.75 124.22 470.39 124.22C470.798 124.22 471.158 124.184 471.47 124.112C471.79 124.032 472.118 123.92 472.454 123.776V124.7C472.126 124.844 471.802 124.948 471.482 125.012C471.162 125.084 470.782 125.12 470.342 125.12C469.726 125.12 469.186 124.996 468.722 124.748C468.258 124.5 467.894 124.132 467.63 123.644C467.374 123.156 467.246 122.552 467.246 121.832C467.246 121.128 467.362 120.524 467.594 120.02C467.834 119.516 468.166 119.128 468.59 118.856C469.022 118.584 469.522 118.448 470.09 118.448ZM470.078 119.312C469.574 119.312 469.174 119.476 468.878 119.804C468.59 120.124 468.418 120.572 468.362 121.148H471.638C471.63 120.604 471.502 120.164 471.254 119.828C471.006 119.484 470.614 119.312 470.078 119.312ZM475.435 125H474.379V115.88H475.435V125ZM479.957 118.448C480.501 118.448 480.973 118.568 481.373 118.808C481.773 119.048 482.077 119.388 482.285 119.828C482.501 120.26 482.609 120.768 482.609 121.352V121.988H478.205C478.221 122.716 478.405 123.272 478.757 123.656C479.117 124.032 479.617 124.22 480.257 124.22C480.665 124.22 481.025 124.184 481.337 124.112C481.657 124.032 481.985 123.92 482.321 123.776V124.7C481.993 124.844 481.669 124.948 481.349 125.012C481.029 125.084 480.649 125.12 480.209 125.12C479.593 125.12 479.053 124.996 478.589 124.748C478.125 124.5 477.761 124.132 477.497 123.644C477.241 123.156 477.113 122.552 477.113 121.832C477.113 121.128 477.229 120.524 477.461 120.02C477.701 119.516 478.033 119.128 478.457 118.856C478.889 118.584 479.389 118.448 479.957 118.448ZM479.945 119.312C479.441 119.312 479.041 119.476 478.745 119.804C478.457 120.124 478.285 120.572 478.229 121.148H481.505C481.497 120.604 481.369 120.164 481.121 119.828C480.873 119.484 480.481 119.312 479.945 119.312ZM486.827 125.12C486.251 125.12 485.743 125.004 485.303 124.772C484.863 124.54 484.515 124.18 484.259 123.692C484.011 123.204 483.887 122.58 483.887 121.82C483.887 121.028 484.015 120.384 484.271 119.888C484.535 119.392 484.895 119.028 485.351 118.796C485.807 118.564 486.323 118.448 486.899 118.448C487.219 118.448 487.531 118.484 487.835 118.556C488.147 118.62 488.399 118.7 488.591 118.796L488.267 119.672C488.075 119.6 487.851 119.532 487.595 119.468C487.339 119.404 487.099 119.372 486.875 119.372C485.611 119.372 484.979 120.184 484.979 121.808C484.979 122.584 485.131 123.18 485.435 123.596C485.747 124.004 486.207 124.208 486.815 124.208C487.159 124.208 487.467 124.172 487.739 124.1C488.011 124.028 488.259 123.94 488.483 123.836V124.772C488.267 124.884 488.027 124.968 487.763 125.024C487.507 125.088 487.195 125.12 486.827 125.12ZM492.16 124.256C492.32 124.256 492.484 124.244 492.652 124.22C492.82 124.196 492.956 124.164 493.06 124.124V124.928C492.948 124.984 492.788 125.028 492.58 125.06C492.372 125.1 492.172 125.12 491.98 125.12C491.644 125.12 491.332 125.064 491.044 124.952C490.764 124.832 490.536 124.628 490.36 124.34C490.184 124.052 490.096 123.648 490.096 123.128V119.384H489.184V118.88L490.108 118.46L490.528 117.092H491.152V118.568H493.012V119.384H491.152V123.104C491.152 123.496 491.244 123.788 491.428 123.98C491.62 124.164 491.864 124.256 492.16 124.256ZM504.473 120.632C504.473 122.08 504.077 123.172 503.285 123.908C502.501 124.636 501.405 125 499.997 125H497.609V116.432H500.249C501.105 116.432 501.849 116.592 502.481 116.912C503.121 117.232 503.613 117.704 503.957 118.328C504.301 118.952 504.473 119.72 504.473 120.632ZM503.333 120.668C503.333 119.524 503.049 118.688 502.481 118.16C501.921 117.624 501.125 117.356 500.093 117.356H498.689V124.076H499.853C502.173 124.076 503.333 122.94 503.333 120.668ZM508.715 118.448C509.259 118.448 509.731 118.568 510.131 118.808C510.531 119.048 510.835 119.388 511.043 119.828C511.259 120.26 511.367 120.768 511.367 121.352V121.988H506.963C506.979 122.716 507.163 123.272 507.515 123.656C507.875 124.032 508.375 124.22 509.015 124.22C509.423 124.22 509.783 124.184 510.095 124.112C510.415 124.032 510.743 123.92 511.079 123.776V124.7C510.751 124.844 510.427 124.948 510.107 125.012C509.787 125.084 509.407 125.12 508.967 125.12C508.351 125.12 507.811 124.996 507.347 124.748C506.883 124.5 506.519 124.132 506.255 123.644C505.999 123.156 505.871 122.552 505.871 121.832C505.871 121.128 505.987 120.524 506.219 120.02C506.459 119.516 506.791 119.128 507.215 118.856C507.647 118.584 508.147 118.448 508.715 118.448ZM508.703 119.312C508.199 119.312 507.799 119.476 507.503 119.804C507.215 120.124 507.043 120.572 506.987 121.148H510.263C510.255 120.604 510.127 120.164 509.879 119.828C509.631 119.484 509.239 119.312 508.703 119.312ZM515.968 119.384H514.348V125H513.292V119.384H512.164V118.892L513.292 118.532V118.16C513.292 117.328 513.472 116.732 513.832 116.372C514.2 116.004 514.716 115.82 515.38 115.82C515.628 115.82 515.86 115.844 516.076 115.892C516.292 115.932 516.476 115.98 516.628 116.036L516.352 116.864C516.224 116.824 516.076 116.784 515.908 116.744C515.74 116.704 515.568 116.684 515.392 116.684C515.04 116.684 514.776 116.804 514.6 117.044C514.432 117.276 514.348 117.644 514.348 118.148V118.568H515.968V119.384ZM519.565 118.46C520.349 118.46 520.929 118.632 521.305 118.976C521.681 119.32 521.869 119.868 521.869 120.62V125H521.101L520.897 124.088H520.849C520.569 124.44 520.273 124.7 519.961 124.868C519.649 125.036 519.225 125.12 518.689 125.12C518.105 125.12 517.621 124.968 517.237 124.664C516.853 124.352 516.661 123.868 516.661 123.212C516.661 122.572 516.913 122.08 517.417 121.736C517.921 121.384 518.697 121.192 519.745 121.16L520.837 121.124V120.74C520.837 120.204 520.721 119.832 520.489 119.624C520.257 119.416 519.929 119.312 519.505 119.312C519.169 119.312 518.849 119.364 518.545 119.468C518.241 119.564 517.957 119.676 517.693 119.804L517.369 119.012C517.649 118.86 517.981 118.732 518.365 118.628C518.749 118.516 519.149 118.46 519.565 118.46ZM520.825 121.856L519.877 121.892C519.077 121.924 518.521 122.052 518.209 122.276C517.905 122.5 517.753 122.816 517.753 123.224C517.753 123.584 517.861 123.848 518.077 124.016C518.301 124.184 518.585 124.268 518.929 124.268C519.465 124.268 519.913 124.12 520.273 123.824C520.641 123.52 520.825 123.056 520.825 122.432V121.856ZM529.232 118.568V125H528.368L528.212 124.148H528.164C527.956 124.484 527.668 124.732 527.3 124.892C526.932 125.044 526.54 125.12 526.124 125.12C525.348 125.12 524.764 124.936 524.372 124.568C523.98 124.192 523.784 123.596 523.784 122.78V118.568H524.852V122.708C524.852 123.732 525.328 124.244 526.28 124.244C526.992 124.244 527.484 124.044 527.756 123.644C528.036 123.244 528.176 122.668 528.176 121.916V118.568H529.232ZM532.33 125H531.274V115.88H532.33V125ZM536.516 124.256C536.676 124.256 536.84 124.244 537.008 124.22C537.176 124.196 537.312 124.164 537.416 124.124V124.928C537.304 124.984 537.144 125.028 536.936 125.06C536.728 125.1 536.528 125.12 536.336 125.12C536 125.12 535.688 125.064 535.4 124.952C535.12 124.832 534.892 124.628 534.716 124.34C534.54 124.052 534.452 123.648 534.452 123.128V119.384H533.54V118.88L534.464 118.46L534.884 117.092H535.508V118.568H537.368V119.384H535.508V123.104C535.508 123.496 535.6 123.788 535.784 123.98C535.976 124.164 536.22 124.256 536.516 124.256ZM541.965 125V116.432H543.045V124.04H546.789V125H541.965ZM553.706 121.772C553.706 122.836 553.434 123.66 552.89 124.244C552.354 124.828 551.626 125.12 550.706 125.12C550.138 125.12 549.63 124.992 549.182 124.736C548.742 124.472 548.394 124.092 548.138 123.596C547.882 123.092 547.754 122.484 547.754 121.772C547.754 120.708 548.018 119.888 548.546 119.312C549.082 118.736 549.814 118.448 550.742 118.448C551.318 118.448 551.83 118.58 552.278 118.844C552.726 119.1 553.074 119.476 553.322 119.972C553.578 120.46 553.706 121.06 553.706 121.772ZM548.846 121.772C548.846 122.532 548.994 123.136 549.29 123.584C549.594 124.024 550.074 124.244 550.73 124.244C551.378 124.244 551.854 124.024 552.158 123.584C552.462 123.136 552.614 122.532 552.614 121.772C552.614 121.012 552.462 120.416 552.158 119.984C551.854 119.552 551.374 119.336 550.718 119.336C550.062 119.336 549.586 119.552 549.29 119.984C548.994 120.416 548.846 121.012 548.846 121.772ZM557.659 118.448C558.083 118.448 558.463 118.528 558.799 118.688C559.143 118.848 559.435 119.092 559.675 119.42H559.735L559.879 118.568H560.719V125.108C560.719 126.028 560.483 126.72 560.011 127.184C559.547 127.648 558.823 127.88 557.839 127.88C556.895 127.88 556.123 127.744 555.523 127.472V126.5C556.155 126.836 556.947 127.004 557.899 127.004C558.451 127.004 558.883 126.84 559.195 126.512C559.515 126.192 559.675 125.752 559.675 125.192V124.94C559.675 124.844 559.679 124.708 559.687 124.532C559.695 124.348 559.703 124.22 559.711 124.148H559.663C559.231 124.796 558.567 125.12 557.671 125.12C556.839 125.12 556.187 124.828 555.715 124.244C555.251 123.66 555.019 122.844 555.019 121.796C555.019 120.772 555.251 119.96 555.715 119.36C556.187 118.752 556.835 118.448 557.659 118.448ZM557.803 119.336C557.267 119.336 556.851 119.552 556.555 119.984C556.259 120.408 556.111 121.016 556.111 121.808C556.111 122.6 556.255 123.208 556.543 123.632C556.831 124.048 557.259 124.256 557.827 124.256C558.475 124.256 558.947 124.084 559.243 123.74C559.539 123.388 559.687 122.824 559.687 122.048V121.796C559.687 120.924 559.535 120.296 559.231 119.912C558.927 119.528 558.451 119.336 557.803 119.336ZM563.302 116.156C563.462 116.156 563.602 116.212 563.722 116.324C563.85 116.428 563.914 116.596 563.914 116.828C563.914 117.06 563.85 117.232 563.722 117.344C563.602 117.448 563.462 117.5 563.302 117.5C563.126 117.5 562.978 117.448 562.858 117.344C562.738 117.232 562.678 117.06 562.678 116.828C562.678 116.596 562.738 116.428 562.858 116.324C562.978 116.212 563.126 116.156 563.302 116.156ZM563.818 118.568V125H562.762V118.568H563.818ZM568.952 118.448C569.72 118.448 570.3 118.636 570.692 119.012C571.084 119.388 571.28 119.988 571.28 120.812V125H570.236V120.884C570.236 119.852 569.756 119.336 568.796 119.336C568.084 119.336 567.592 119.536 567.32 119.936C567.048 120.336 566.912 120.912 566.912 121.664V125H565.856V118.568H566.708L566.864 119.444H566.924C567.132 119.108 567.42 118.86 567.788 118.7C568.156 118.532 568.544 118.448 568.952 118.448ZM583.399 120.632C583.399 122.08 583.003 123.172 582.211 123.908C581.427 124.636 580.331 125 578.923 125H576.535V116.432H579.175C580.031 116.432 580.775 116.592 581.407 116.912C582.047 117.232 582.539 117.704 582.883 118.328C583.227 118.952 583.399 119.72 583.399 120.632ZM582.259 120.668C582.259 119.524 581.975 118.688 581.407 118.16C580.847 117.624 580.051 117.356 579.019 117.356H577.615V124.076H578.779C581.099 124.076 582.259 122.94 582.259 120.668ZM590.749 121.772C590.749 122.836 590.477 123.66 589.933 124.244C589.397 124.828 588.669 125.12 587.749 125.12C587.181 125.12 586.673 124.992 586.225 124.736C585.785 124.472 585.437 124.092 585.181 123.596C584.925 123.092 584.797 122.484 584.797 121.772C584.797 120.708 585.061 119.888 585.589 119.312C586.125 118.736 586.857 118.448 587.785 118.448C588.361 118.448 588.873 118.58 589.321 118.844C589.769 119.1 590.117 119.476 590.365 119.972C590.621 120.46 590.749 121.06 590.749 121.772ZM585.889 121.772C585.889 122.532 586.037 123.136 586.333 123.584C586.637 124.024 587.117 124.244 587.773 124.244C588.421 124.244 588.897 124.024 589.201 123.584C589.505 123.136 589.657 122.532 589.657 121.772C589.657 121.012 589.505 120.416 589.201 119.984C588.897 119.552 588.417 119.336 587.761 119.336C587.105 119.336 586.629 119.552 586.333 119.984C586.037 120.416 585.889 121.012 585.889 121.772ZM599.478 118.448C600.206 118.448 600.75 118.636 601.11 119.012C601.47 119.388 601.65 119.988 601.65 120.812V125H600.606V120.86C600.606 119.844 600.17 119.336 599.298 119.336C598.674 119.336 598.226 119.516 597.954 119.876C597.69 120.236 597.558 120.76 597.558 121.448V125H596.514V120.86C596.514 119.844 596.074 119.336 595.194 119.336C594.546 119.336 594.098 119.536 593.85 119.936C593.602 120.336 593.478 120.912 593.478 121.664V125H592.422V118.568H593.274L593.43 119.444H593.49C593.69 119.108 593.958 118.86 594.294 118.7C594.638 118.532 595.002 118.448 595.386 118.448C596.394 118.448 597.05 118.808 597.354 119.528H597.414C597.63 119.16 597.922 118.888 598.29 118.712C598.658 118.536 599.054 118.448 599.478 118.448ZM606.073 118.46C606.857 118.46 607.437 118.632 607.813 118.976C608.189 119.32 608.377 119.868 608.377 120.62V125H607.609L607.405 124.088H607.357C607.077 124.44 606.781 124.7 606.469 124.868C606.157 125.036 605.733 125.12 605.197 125.12C604.613 125.12 604.129 124.968 603.745 124.664C603.361 124.352 603.169 123.868 603.169 123.212C603.169 122.572 603.421 122.08 603.925 121.736C604.429 121.384 605.205 121.192 606.253 121.16L607.345 121.124V120.74C607.345 120.204 607.229 119.832 606.997 119.624C606.765 119.416 606.437 119.312 606.013 119.312C605.677 119.312 605.357 119.364 605.053 119.468C604.749 119.564 604.465 119.676 604.201 119.804L603.877 119.012C604.157 118.86 604.489 118.732 604.873 118.628C605.257 118.516 605.657 118.46 606.073 118.46ZM607.333 121.856L606.385 121.892C605.585 121.924 605.029 122.052 604.717 122.276C604.413 122.5 604.261 122.816 604.261 123.224C604.261 123.584 604.369 123.848 604.585 124.016C604.809 124.184 605.093 124.268 605.437 124.268C605.973 124.268 606.421 124.12 606.781 123.824C607.149 123.52 607.333 123.056 607.333 122.432V121.856ZM610.904 116.156C611.064 116.156 611.204 116.212 611.324 116.324C611.452 116.428 611.516 116.596 611.516 116.828C611.516 117.06 611.452 117.232 611.324 117.344C611.204 117.448 611.064 117.5 610.904 117.5C610.728 117.5 610.58 117.448 610.46 117.344C610.34 117.232 610.28 117.06 610.28 116.828C610.28 116.596 610.34 116.428 610.46 116.324C610.58 116.212 610.728 116.156 610.904 116.156ZM611.42 118.568V125H610.364V118.568H611.42ZM616.554 118.448C617.322 118.448 617.902 118.636 618.294 119.012C618.686 119.388 618.882 119.988 618.882 120.812V125H617.838V120.884C617.838 119.852 617.358 119.336 616.398 119.336C615.686 119.336 615.194 119.536 614.922 119.936C614.65 120.336 614.514 120.912 614.514 121.664V125H613.458V118.568H614.31L614.466 119.444H614.526C614.734 119.108 615.022 118.86 615.39 118.7C615.758 118.532 616.146 118.448 616.554 118.448Z" fill="#323232"/>
<rect x="460.5" y="132.5" width="263" height="35" rx="1.5" fill="white"/>
<path d="M476.97 155H475.766V148.014C475.766 147.613 475.771 147.291 475.78 147.048C475.789 146.805 475.803 146.553 475.822 146.292C475.673 146.441 475.533 146.567 475.402 146.67C475.281 146.773 475.131 146.903 474.954 147.062L473.89 147.93L473.246 147.104L475.948 145.004H476.97V155ZM487.292 155H480.684V153.978L483.302 151.332C483.796 150.828 484.216 150.38 484.562 149.988C484.916 149.596 485.182 149.213 485.36 148.84C485.537 148.467 485.626 148.051 485.626 147.594C485.626 147.043 485.462 146.628 485.136 146.348C484.809 146.059 484.384 145.914 483.862 145.914C483.367 145.914 482.938 145.998 482.574 146.166C482.21 146.334 481.836 146.567 481.454 146.866L480.796 146.04C481.188 145.713 481.636 145.438 482.14 145.214C482.653 144.981 483.227 144.864 483.862 144.864C484.795 144.864 485.532 145.102 486.074 145.578C486.615 146.054 486.886 146.703 486.886 147.524C486.886 148.047 486.778 148.537 486.564 148.994C486.349 149.451 486.05 149.904 485.668 150.352C485.285 150.8 484.837 151.271 484.324 151.766L482.238 153.824V153.88H487.292V155ZM494.925 147.342C494.925 148.014 494.734 148.551 494.351 148.952C493.978 149.344 493.479 149.605 492.853 149.736V149.792C493.647 149.885 494.239 150.137 494.631 150.548C495.033 150.959 495.233 151.495 495.233 152.158C495.233 152.746 495.098 153.264 494.827 153.712C494.557 154.16 494.137 154.51 493.567 154.762C493.007 155.014 492.284 155.14 491.397 155.14C490.875 155.14 490.389 155.098 489.941 155.014C489.493 154.939 489.064 154.799 488.653 154.594V153.446C489.073 153.661 489.526 153.824 490.011 153.936C490.497 154.048 490.963 154.104 491.411 154.104C492.307 154.104 492.951 153.931 493.343 153.586C493.745 153.231 493.945 152.746 493.945 152.13C493.945 151.505 493.698 151.057 493.203 150.786C492.718 150.506 492.032 150.366 491.145 150.366H490.179V149.316H491.159C491.981 149.316 492.601 149.143 493.021 148.798C493.451 148.453 493.665 147.995 493.665 147.426C493.665 146.941 493.502 146.567 493.175 146.306C492.849 146.035 492.405 145.9 491.845 145.9C491.304 145.9 490.842 145.979 490.459 146.138C490.077 146.297 489.699 146.497 489.325 146.74L488.709 145.9C489.064 145.62 489.503 145.377 490.025 145.172C490.557 144.967 491.159 144.864 491.831 144.864C492.877 144.864 493.651 145.097 494.155 145.564C494.669 146.031 494.925 146.623 494.925 147.342ZM501.005 155H499.801V148.014C499.801 147.613 499.806 147.291 499.815 147.048C499.824 146.805 499.838 146.553 499.857 146.292C499.708 146.441 499.568 146.567 499.437 146.67C499.316 146.773 499.166 146.903 498.989 147.062L497.925 147.93L497.281 147.104L499.983 145.004H501.005V155ZM511.327 155H504.719V153.978L507.337 151.332C507.832 150.828 508.252 150.38 508.597 149.988C508.952 149.596 509.218 149.213 509.395 148.84C509.572 148.467 509.661 148.051 509.661 147.594C509.661 147.043 509.498 146.628 509.171 146.348C508.844 146.059 508.42 145.914 507.897 145.914C507.402 145.914 506.973 145.998 506.609 146.166C506.245 146.334 505.872 146.567 505.489 146.866L504.831 146.04C505.223 145.713 505.671 145.438 506.175 145.214C506.688 144.981 507.262 144.864 507.897 144.864C508.83 144.864 509.568 145.102 510.109 145.578C510.65 146.054 510.921 146.703 510.921 147.524C510.921 148.047 510.814 148.537 510.599 148.994C510.384 149.451 510.086 149.904 509.703 150.352C509.32 150.8 508.872 151.271 508.359 151.766L506.273 153.824V153.88H511.327V155Z" fill="black"/>
<rect x="460.5" y="132.5" width="263" height="35" rx="1.5" stroke="#939393"/>
<path d="M188.028 192.632C188.028 194.08 187.632 195.172 186.84 195.908C186.056 196.636 184.96 197 183.552 197H181.164V188.432H183.804C184.66 188.432 185.404 188.592 186.036 188.912C186.676 189.232 187.168 189.704 187.512 190.328C187.856 190.952 188.028 191.72 188.028 192.632ZM186.888 192.668C186.888 191.524 186.604 190.688 186.036 190.16C185.476 189.624 184.68 189.356 183.648 189.356H182.244V196.076H183.408C185.728 196.076 186.888 194.94 186.888 192.668ZM192.27 190.448C192.814 190.448 193.286 190.568 193.686 190.808C194.086 191.048 194.39 191.388 194.598 191.828C194.814 192.26 194.922 192.768 194.922 193.352V193.988H190.518C190.534 194.716 190.718 195.272 191.07 195.656C191.43 196.032 191.93 196.22 192.57 196.22C192.978 196.22 193.338 196.184 193.65 196.112C193.97 196.032 194.298 195.92 194.634 195.776V196.7C194.306 196.844 193.982 196.948 193.662 197.012C193.342 197.084 192.962 197.12 192.522 197.12C191.906 197.12 191.366 196.996 190.902 196.748C190.438 196.5 190.074 196.132 189.81 195.644C189.554 195.156 189.426 194.552 189.426 193.832C189.426 193.128 189.542 192.524 189.774 192.02C190.014 191.516 190.346 191.128 190.77 190.856C191.202 190.584 191.702 190.448 192.27 190.448ZM192.258 191.312C191.754 191.312 191.354 191.476 191.058 191.804C190.77 192.124 190.598 192.572 190.542 193.148H193.818C193.81 192.604 193.682 192.164 193.434 191.828C193.186 191.484 192.794 191.312 192.258 191.312ZM200.747 195.224C200.747 195.848 200.515 196.32 200.051 196.64C199.587 196.96 198.963 197.12 198.179 197.12C197.731 197.12 197.343 197.084 197.015 197.012C196.695 196.94 196.411 196.84 196.163 196.712V195.752C196.419 195.88 196.727 196 197.087 196.112C197.455 196.216 197.827 196.268 198.203 196.268C198.739 196.268 199.127 196.184 199.367 196.016C199.607 195.84 199.727 195.608 199.727 195.32C199.727 195.16 199.683 195.016 199.595 194.888C199.507 194.76 199.347 194.632 199.115 194.504C198.891 194.376 198.567 194.232 198.143 194.072C197.727 193.912 197.371 193.752 197.075 193.592C196.779 193.432 196.551 193.24 196.391 193.016C196.231 192.792 196.151 192.504 196.151 192.152C196.151 191.608 196.371 191.188 196.811 190.892C197.259 190.596 197.843 190.448 198.563 190.448C198.955 190.448 199.319 190.488 199.655 190.568C199.999 190.648 200.319 190.752 200.615 190.88L200.255 191.72C199.983 191.608 199.699 191.512 199.403 191.432C199.107 191.352 198.803 191.312 198.491 191.312C198.059 191.312 197.727 191.384 197.495 191.528C197.271 191.664 197.159 191.852 197.159 192.092C197.159 192.276 197.211 192.428 197.315 192.548C197.419 192.668 197.591 192.788 197.831 192.908C198.079 193.028 198.407 193.164 198.815 193.316C199.223 193.468 199.571 193.624 199.859 193.784C200.147 193.944 200.367 194.14 200.519 194.372C200.671 194.596 200.747 194.88 200.747 195.224ZM204.881 197.12C204.305 197.12 203.797 197.004 203.357 196.772C202.917 196.54 202.569 196.18 202.313 195.692C202.065 195.204 201.941 194.58 201.941 193.82C201.941 193.028 202.069 192.384 202.325 191.888C202.589 191.392 202.949 191.028 203.405 190.796C203.861 190.564 204.377 190.448 204.953 190.448C205.273 190.448 205.585 190.484 205.889 190.556C206.201 190.62 206.453 190.7 206.645 190.796L206.321 191.672C206.129 191.6 205.905 191.532 205.649 191.468C205.393 191.404 205.153 191.372 204.929 191.372C203.665 191.372 203.033 192.184 203.033 193.808C203.033 194.584 203.185 195.18 203.489 195.596C203.801 196.004 204.261 196.208 204.869 196.208C205.213 196.208 205.521 196.172 205.793 196.1C206.065 196.028 206.313 195.94 206.537 195.836V196.772C206.321 196.884 206.081 196.968 205.817 197.024C205.561 197.088 205.249 197.12 204.881 197.12ZM211.067 190.448C211.187 190.448 211.315 190.456 211.451 190.472C211.587 190.48 211.711 190.496 211.823 190.52L211.691 191.492C211.587 191.468 211.471 191.448 211.343 191.432C211.215 191.416 211.099 191.408 210.995 191.408C210.667 191.408 210.359 191.5 210.071 191.684C209.783 191.86 209.551 192.112 209.375 192.44C209.207 192.76 209.123 193.136 209.123 193.568V197H208.067V190.568H208.931L209.051 191.744H209.099C209.299 191.392 209.563 191.088 209.891 190.832C210.227 190.576 210.619 190.448 211.067 190.448ZM213.564 188.156C213.724 188.156 213.864 188.212 213.984 188.324C214.112 188.428 214.176 188.596 214.176 188.828C214.176 189.06 214.112 189.232 213.984 189.344C213.864 189.448 213.724 189.5 213.564 189.5C213.388 189.5 213.24 189.448 213.12 189.344C213 189.232 212.94 189.06 212.94 188.828C212.94 188.596 213 188.428 213.12 188.324C213.24 188.212 213.388 188.156 213.564 188.156ZM214.08 190.568V197H213.024V190.568H214.08ZM219.178 190.448C219.97 190.448 220.606 190.724 221.086 191.276C221.574 191.828 221.818 192.66 221.818 193.772C221.818 194.868 221.574 195.7 221.086 196.268C220.606 196.836 219.966 197.12 219.166 197.12C218.67 197.12 218.258 197.028 217.93 196.844C217.61 196.66 217.358 196.44 217.174 196.184H217.102C217.11 196.32 217.122 196.492 217.138 196.7C217.162 196.908 217.174 197.088 217.174 197.24V199.88H216.118V190.568H216.982L217.126 191.444H217.174C217.366 191.164 217.618 190.928 217.93 190.736C218.242 190.544 218.658 190.448 219.178 190.448ZM218.986 191.336C218.33 191.336 217.866 191.52 217.594 191.888C217.322 192.256 217.182 192.816 217.174 193.568V193.772C217.174 194.564 217.302 195.176 217.558 195.608C217.822 196.032 218.306 196.244 219.01 196.244C219.394 196.244 219.714 196.14 219.97 195.932C220.226 195.716 220.414 195.42 220.534 195.044C220.662 194.668 220.726 194.24 220.726 193.76C220.726 193.024 220.582 192.436 220.294 191.996C220.014 191.556 219.578 191.336 218.986 191.336ZM225.648 196.256C225.808 196.256 225.972 196.244 226.14 196.22C226.308 196.196 226.444 196.164 226.548 196.124V196.928C226.436 196.984 226.276 197.028 226.068 197.06C225.86 197.1 225.66 197.12 225.468 197.12C225.132 197.12 224.82 197.064 224.532 196.952C224.252 196.832 224.024 196.628 223.848 196.34C223.672 196.052 223.584 195.648 223.584 195.128V191.384H222.672V190.88L223.596 190.46L224.016 189.092H224.64V190.568H226.5V191.384H224.64V195.104C224.64 195.496 224.732 195.788 224.916 195.98C225.108 196.164 225.352 196.256 225.648 196.256ZM228.376 188.156C228.536 188.156 228.676 188.212 228.796 188.324C228.924 188.428 228.988 188.596 228.988 188.828C228.988 189.06 228.924 189.232 228.796 189.344C228.676 189.448 228.536 189.5 228.376 189.5C228.2 189.5 228.052 189.448 227.932 189.344C227.812 189.232 227.752 189.06 227.752 188.828C227.752 188.596 227.812 188.428 227.932 188.324C228.052 188.212 228.2 188.156 228.376 188.156ZM228.892 190.568V197H227.836V190.568H228.892ZM236.522 193.772C236.522 194.836 236.25 195.66 235.706 196.244C235.17 196.828 234.442 197.12 233.522 197.12C232.954 197.12 232.446 196.992 231.998 196.736C231.558 196.472 231.21 196.092 230.954 195.596C230.698 195.092 230.57 194.484 230.57 193.772C230.57 192.708 230.834 191.888 231.362 191.312C231.898 190.736 232.63 190.448 233.558 190.448C234.134 190.448 234.646 190.58 235.094 190.844C235.542 191.1 235.89 191.476 236.138 191.972C236.394 192.46 236.522 193.06 236.522 193.772ZM231.662 193.772C231.662 194.532 231.81 195.136 232.106 195.584C232.41 196.024 232.89 196.244 233.546 196.244C234.194 196.244 234.67 196.024 234.974 195.584C235.278 195.136 235.43 194.532 235.43 193.772C235.43 193.012 235.278 192.416 234.974 191.984C234.67 191.552 234.19 191.336 233.534 191.336C232.878 191.336 232.402 191.552 232.106 191.984C231.81 192.416 231.662 193.012 231.662 193.772ZM241.292 190.448C242.06 190.448 242.64 190.636 243.032 191.012C243.424 191.388 243.62 191.988 243.62 192.812V197H242.576V192.884C242.576 191.852 242.096 191.336 241.136 191.336C240.424 191.336 239.932 191.536 239.66 191.936C239.388 192.336 239.252 192.912 239.252 193.664V197H238.196V190.568H239.048L239.204 191.444H239.264C239.472 191.108 239.76 190.86 240.128 190.7C240.496 190.532 240.884 190.448 241.292 190.448Z" fill="#323232"/>
<rect x="180.5" y="204.5" width="263" height="74" rx="1.5" fill="white"/>
<path d="M196.522 227H195.262V218.11H192.14V217.004H199.63V218.11H196.522V227ZM202.883 219.356C203.518 219.356 204.068 219.496 204.535 219.776C205.002 220.056 205.356 220.453 205.599 220.966C205.851 221.47 205.977 222.063 205.977 222.744V223.486H200.839C200.858 224.335 201.072 224.984 201.483 225.432C201.903 225.871 202.486 226.09 203.233 226.09C203.709 226.09 204.129 226.048 204.493 225.964C204.866 225.871 205.249 225.74 205.641 225.572V226.65C205.258 226.818 204.88 226.939 204.507 227.014C204.134 227.098 203.69 227.14 203.177 227.14C202.458 227.14 201.828 226.995 201.287 226.706C200.746 226.417 200.321 225.987 200.013 225.418C199.714 224.849 199.565 224.144 199.565 223.304C199.565 222.483 199.7 221.778 199.971 221.19C200.251 220.602 200.638 220.149 201.133 219.832C201.637 219.515 202.22 219.356 202.883 219.356ZM202.869 220.364C202.281 220.364 201.814 220.555 201.469 220.938C201.133 221.311 200.932 221.834 200.867 222.506H204.689C204.68 221.871 204.53 221.358 204.241 220.966C203.952 220.565 203.494 220.364 202.869 220.364ZM209.392 223.164L206.802 219.496H208.202L210.134 222.324L212.052 219.496H213.438L210.848 223.164L213.578 227H212.178L210.134 224.004L208.062 227H206.676L209.392 223.164ZM217.53 226.132C217.717 226.132 217.908 226.118 218.104 226.09C218.3 226.062 218.459 226.025 218.58 225.978V226.916C218.449 226.981 218.263 227.033 218.02 227.07C217.777 227.117 217.544 227.14 217.32 227.14C216.928 227.14 216.564 227.075 216.228 226.944C215.901 226.804 215.635 226.566 215.43 226.23C215.225 225.894 215.122 225.423 215.122 224.816V220.448H214.058V219.86L215.136 219.37L215.626 217.774H216.354V219.496H218.524V220.448H216.354V224.788C216.354 225.245 216.461 225.586 216.676 225.81C216.9 226.025 217.185 226.132 217.53 226.132Z" fill="black"/>
<rect x="180.5" y="204.5" width="263" height="74" rx="1.5" stroke="#939393"/>
<path d="M183.432 299.432C184.552 299.432 185.368 299.652 185.88 300.092C186.392 300.532 186.648 301.152 186.648 301.952C186.648 302.424 186.54 302.868 186.324 303.284C186.116 303.692 185.76 304.024 185.256 304.28C184.76 304.536 184.084 304.664 183.228 304.664H182.244V308H181.164V299.432H183.432ZM183.336 300.356H182.244V303.74H183.108C183.924 303.74 184.532 303.608 184.932 303.344C185.332 303.08 185.532 302.632 185.532 302C185.532 301.448 185.352 301.036 184.992 300.764C184.64 300.492 184.088 300.356 183.336 300.356ZM191.286 301.448C191.406 301.448 191.534 301.456 191.67 301.472C191.806 301.48 191.93 301.496 192.042 301.52L191.91 302.492C191.806 302.468 191.69 302.448 191.562 302.432C191.434 302.416 191.318 302.408 191.214 302.408C190.886 302.408 190.578 302.5 190.29 302.684C190.002 302.86 189.77 303.112 189.594 303.44C189.426 303.76 189.342 304.136 189.342 304.568V308H188.286V301.568H189.15L189.27 302.744H189.318C189.518 302.392 189.782 302.088 190.11 301.832C190.446 301.576 190.838 301.448 191.286 301.448ZM198.6 304.772C198.6 305.836 198.328 306.66 197.784 307.244C197.248 307.828 196.52 308.12 195.6 308.12C195.032 308.12 194.524 307.992 194.076 307.736C193.636 307.472 193.288 307.092 193.032 306.596C192.776 306.092 192.648 305.484 192.648 304.772C192.648 303.708 192.912 302.888 193.44 302.312C193.976 301.736 194.708 301.448 195.636 301.448C196.212 301.448 196.724 301.58 197.172 301.844C197.62 302.1 197.968 302.476 198.216 302.972C198.472 303.46 198.6 304.06 198.6 304.772ZM193.74 304.772C193.74 305.532 193.888 306.136 194.184 306.584C194.488 307.024 194.968 307.244 195.624 307.244C196.272 307.244 196.748 307.024 197.052 306.584C197.356 306.136 197.508 305.532 197.508 304.772C197.508 304.012 197.356 303.416 197.052 302.984C196.748 302.552 196.268 302.336 195.612 302.336C194.956 302.336 194.48 302.552 194.184 302.984C193.888 303.416 193.74 304.012 193.74 304.772ZM203.238 302.384H201.618V308H200.562V302.384H199.434V301.892L200.562 301.532V301.16C200.562 300.328 200.742 299.732 201.102 299.372C201.47 299.004 201.986 298.82 202.65 298.82C202.898 298.82 203.13 298.844 203.346 298.892C203.562 298.932 203.746 298.98 203.898 299.036L203.622 299.864C203.494 299.824 203.346 299.784 203.178 299.744C203.01 299.704 202.838 299.684 202.662 299.684C202.31 299.684 202.046 299.804 201.87 300.044C201.702 300.276 201.618 300.644 201.618 301.148V301.568H203.238V302.384ZM204.939 299.156C205.099 299.156 205.239 299.212 205.359 299.324C205.487 299.428 205.551 299.596 205.551 299.828C205.551 300.06 205.487 300.232 205.359 300.344C205.239 300.448 205.099 300.5 204.939 300.5C204.763 300.5 204.615 300.448 204.495 300.344C204.375 300.232 204.315 300.06 204.315 299.828C204.315 299.596 204.375 299.428 204.495 299.324C204.615 299.212 204.763 299.156 204.939 299.156ZM205.455 301.568V308H204.399V301.568H205.455ZM208.549 308H207.493V298.88H208.549V308ZM213.07 301.448C213.614 301.448 214.086 301.568 214.486 301.808C214.886 302.048 215.19 302.388 215.398 302.828C215.614 303.26 215.722 303.768 215.722 304.352V304.988H211.318C211.334 305.716 211.518 306.272 211.87 306.656C212.23 307.032 212.73 307.22 213.37 307.22C213.778 307.22 214.138 307.184 214.45 307.112C214.77 307.032 215.098 306.92 215.434 306.776V307.7C215.106 307.844 214.782 307.948 214.462 308.012C214.142 308.084 213.762 308.12 213.322 308.12C212.706 308.12 212.166 307.996 211.702 307.748C211.238 307.5 210.874 307.132 210.61 306.644C210.354 306.156 210.226 305.552 210.226 304.832C210.226 304.128 210.342 303.524 210.574 303.02C210.814 302.516 211.146 302.128 211.57 301.856C212.002 301.584 212.502 301.448 213.07 301.448ZM213.058 302.312C212.554 302.312 212.154 302.476 211.858 302.804C211.57 303.124 211.398 303.572 211.342 304.148H214.618C214.61 303.604 214.482 303.164 214.234 302.828C213.986 302.484 213.594 302.312 213.058 302.312Z" fill="#323232"/>
<rect x="180.5" y="315.5" width="263" height="35" rx="1.5" fill="white"/>
<path d="M199.63 338L198.426 334.906H194.464L193.274 338H192L195.906 327.962H197.04L200.932 338H199.63ZM198.048 333.786L196.928 330.762C196.9 330.687 196.853 330.552 196.788 330.356C196.723 330.16 196.657 329.959 196.592 329.754C196.536 329.539 196.489 329.376 196.452 329.264C196.377 329.553 196.298 329.838 196.214 330.118C196.139 330.389 196.074 330.603 196.018 330.762L194.884 333.786H198.048ZM205.141 338.14C204.469 338.14 203.877 338.005 203.363 337.734C202.85 337.463 202.444 337.043 202.145 336.474C201.856 335.905 201.711 335.177 201.711 334.29C201.711 333.366 201.861 332.615 202.159 332.036C202.467 331.457 202.887 331.033 203.419 330.762C203.951 330.491 204.553 330.356 205.225 330.356C205.599 330.356 205.963 330.398 206.317 330.482C206.681 330.557 206.975 330.65 207.199 330.762L206.821 331.784C206.597 331.7 206.336 331.621 206.037 331.546C205.739 331.471 205.459 331.434 205.197 331.434C203.723 331.434 202.985 332.381 202.985 334.276C202.985 335.181 203.163 335.877 203.517 336.362C203.881 336.838 204.418 337.076 205.127 337.076C205.529 337.076 205.888 337.034 206.205 336.95C206.523 336.866 206.812 336.763 207.073 336.642V337.734C206.821 337.865 206.541 337.963 206.233 338.028C205.935 338.103 205.571 338.14 205.141 338.14ZM217.09 330.356C217.939 330.356 218.574 330.575 218.994 331.014C219.414 331.453 219.624 332.153 219.624 333.114V338H218.406V333.17C218.406 331.985 217.897 331.392 216.88 331.392C216.152 331.392 215.629 331.602 215.312 332.022C215.004 332.442 214.85 333.053 214.85 333.856V338H213.632V333.17C213.632 331.985 213.119 331.392 212.092 331.392C211.336 331.392 210.813 331.625 210.524 332.092C210.235 332.559 210.09 333.231 210.09 334.108V338H208.858V330.496H209.852L210.034 331.518H210.104C210.337 331.126 210.65 330.837 211.042 330.65C211.443 330.454 211.868 330.356 212.316 330.356C213.492 330.356 214.257 330.776 214.612 331.616H214.682C214.934 331.187 215.275 330.869 215.704 330.664C216.133 330.459 216.595 330.356 217.09 330.356ZM224.84 330.356C225.475 330.356 226.025 330.496 226.492 330.776C226.959 331.056 227.313 331.453 227.556 331.966C227.808 332.47 227.934 333.063 227.934 333.744V334.486H222.796C222.815 335.335 223.029 335.984 223.44 336.432C223.86 336.871 224.443 337.09 225.19 337.09C225.666 337.09 226.086 337.048 226.45 336.964C226.823 336.871 227.206 336.74 227.598 336.572V337.65C227.215 337.818 226.837 337.939 226.464 338.014C226.091 338.098 225.647 338.14 225.134 338.14C224.415 338.14 223.785 337.995 223.244 337.706C222.703 337.417 222.278 336.987 221.97 336.418C221.671 335.849 221.522 335.144 221.522 334.304C221.522 333.483 221.657 332.778 221.928 332.19C222.208 331.602 222.595 331.149 223.09 330.832C223.594 330.515 224.177 330.356 224.84 330.356ZM224.826 331.364C224.238 331.364 223.771 331.555 223.426 331.938C223.09 332.311 222.889 332.834 222.824 333.506H226.646C226.637 332.871 226.487 332.358 226.198 331.966C225.909 331.565 225.451 331.364 224.826 331.364ZM236.463 338H232.851V337.272L234.027 337.006V329.012L232.851 328.732V328.004H236.463V328.732L235.287 329.012V337.006L236.463 337.272V338ZM241.837 330.356C242.733 330.356 243.41 330.575 243.867 331.014C244.324 331.453 244.553 332.153 244.553 333.114V338H243.335V333.198C243.335 331.994 242.775 331.392 241.655 331.392C240.824 331.392 240.25 331.625 239.933 332.092C239.616 332.559 239.457 333.231 239.457 334.108V338H238.225V330.496H239.219L239.401 331.518H239.471C239.714 331.126 240.05 330.837 240.479 330.65C240.908 330.454 241.361 330.356 241.837 330.356ZM251.765 335.928C251.765 336.656 251.495 337.207 250.953 337.58C250.412 337.953 249.684 338.14 248.769 338.14C248.247 338.14 247.794 338.098 247.411 338.014C247.038 337.93 246.707 337.813 246.417 337.664V336.544C246.716 336.693 247.075 336.833 247.495 336.964C247.925 337.085 248.359 337.146 248.797 337.146C249.423 337.146 249.875 337.048 250.155 336.852C250.435 336.647 250.575 336.376 250.575 336.04C250.575 335.853 250.524 335.685 250.421 335.536C250.319 335.387 250.132 335.237 249.861 335.088C249.6 334.939 249.222 334.771 248.727 334.584C248.242 334.397 247.827 334.211 247.481 334.024C247.136 333.837 246.87 333.613 246.683 333.352C246.497 333.091 246.403 332.755 246.403 332.344C246.403 331.709 246.66 331.219 247.173 330.874C247.696 330.529 248.377 330.356 249.217 330.356C249.675 330.356 250.099 330.403 250.491 330.496C250.893 330.589 251.266 330.711 251.611 330.86L251.191 331.84C250.874 331.709 250.543 331.597 250.197 331.504C249.852 331.411 249.497 331.364 249.133 331.364C248.629 331.364 248.242 331.448 247.971 331.616C247.71 331.775 247.579 331.994 247.579 332.274C247.579 332.489 247.64 332.666 247.761 332.806C247.883 332.946 248.083 333.086 248.363 333.226C248.653 333.366 249.035 333.525 249.511 333.702C249.987 333.879 250.393 334.061 250.729 334.248C251.065 334.435 251.322 334.663 251.499 334.934C251.677 335.195 251.765 335.527 251.765 335.928ZM259.851 330.496V338H258.843L258.661 337.006H258.605C258.362 337.398 258.026 337.687 257.597 337.874C257.167 338.051 256.71 338.14 256.225 338.14C255.319 338.14 254.638 337.925 254.181 337.496C253.723 337.057 253.495 336.362 253.495 335.41V330.496H254.741V335.326C254.741 336.521 255.296 337.118 256.407 337.118C257.237 337.118 257.811 336.885 258.129 336.418C258.455 335.951 258.619 335.279 258.619 334.402V330.496H259.851ZM265.733 330.356C265.873 330.356 266.022 330.365 266.181 330.384C266.34 330.393 266.484 330.412 266.615 330.44L266.461 331.574C266.34 331.546 266.204 331.523 266.055 331.504C265.906 331.485 265.77 331.476 265.649 331.476C265.266 331.476 264.907 331.583 264.571 331.798C264.235 332.003 263.964 332.297 263.759 332.68C263.563 333.053 263.465 333.492 263.465 333.996V338H262.233V330.496H263.241L263.381 331.868H263.437C263.67 331.457 263.978 331.103 264.361 330.804C264.753 330.505 265.21 330.356 265.733 330.356ZM270.585 330.37C271.499 330.37 272.176 330.571 272.615 330.972C273.053 331.373 273.273 332.013 273.273 332.89V338H272.377L272.139 336.936H272.083C271.756 337.347 271.411 337.65 271.047 337.846C270.683 338.042 270.188 338.14 269.563 338.14C268.881 338.14 268.317 337.963 267.869 337.608C267.421 337.244 267.197 336.679 267.197 335.914C267.197 335.167 267.491 334.593 268.079 334.192C268.667 333.781 269.572 333.557 270.795 333.52L272.069 333.478V333.03C272.069 332.405 271.933 331.971 271.663 331.728C271.392 331.485 271.009 331.364 270.515 331.364C270.123 331.364 269.749 331.425 269.395 331.546C269.04 331.658 268.709 331.789 268.401 331.938L268.023 331.014C268.349 330.837 268.737 330.687 269.185 330.566C269.633 330.435 270.099 330.37 270.585 330.37ZM272.055 334.332L270.949 334.374C270.015 334.411 269.367 334.561 269.003 334.822C268.648 335.083 268.471 335.452 268.471 335.928C268.471 336.348 268.597 336.656 268.849 336.852C269.11 337.048 269.441 337.146 269.843 337.146C270.468 337.146 270.991 336.973 271.411 336.628C271.84 336.273 272.055 335.732 272.055 335.004V334.332ZM279.202 330.356C280.098 330.356 280.775 330.575 281.232 331.014C281.69 331.453 281.918 332.153 281.918 333.114V338H280.7V333.198C280.7 331.994 280.14 331.392 279.02 331.392C278.19 331.392 277.616 331.625 277.298 332.092C276.981 332.559 276.822 333.231 276.822 334.108V338H275.59V330.496H276.584L276.766 331.518H276.836C277.079 331.126 277.415 330.837 277.844 330.65C278.274 330.454 278.726 330.356 279.202 330.356ZM287.255 338.14C286.583 338.14 285.99 338.005 285.477 337.734C284.963 337.463 284.557 337.043 284.259 336.474C283.969 335.905 283.825 335.177 283.825 334.29C283.825 333.366 283.974 332.615 284.273 332.036C284.581 331.457 285.001 331.033 285.533 330.762C286.065 330.491 286.667 330.356 287.339 330.356C287.712 330.356 288.076 330.398 288.431 330.482C288.795 330.557 289.089 330.65 289.313 330.762L288.935 331.784C288.711 331.7 288.449 331.621 288.151 331.546C287.852 331.471 287.572 331.434 287.311 331.434C285.836 331.434 285.099 332.381 285.099 334.276C285.099 335.181 285.276 335.877 285.631 336.362C285.995 336.838 286.531 337.076 287.241 337.076C287.642 337.076 288.001 337.034 288.319 336.95C288.636 336.866 288.925 336.763 289.187 336.642V337.734C288.935 337.865 288.655 337.963 288.347 338.028C288.048 338.103 287.684 338.14 287.255 338.14ZM293.869 330.356C294.504 330.356 295.055 330.496 295.521 330.776C295.988 331.056 296.343 331.453 296.585 331.966C296.837 332.47 296.963 333.063 296.963 333.744V334.486H291.825C291.844 335.335 292.059 335.984 292.469 336.432C292.889 336.871 293.473 337.09 294.219 337.09C294.695 337.09 295.115 337.048 295.479 336.964C295.853 336.871 296.235 336.74 296.627 336.572V337.65C296.245 337.818 295.867 337.939 295.493 338.014C295.12 338.098 294.677 338.14 294.163 338.14C293.445 338.14 292.815 337.995 292.273 337.706C291.732 337.417 291.307 336.987 290.999 336.418C290.701 335.849 290.551 335.144 290.551 334.304C290.551 333.483 290.687 332.778 290.957 332.19C291.237 331.602 291.625 331.149 292.119 330.832C292.623 330.515 293.207 330.356 293.869 330.356ZM293.855 331.364C293.267 331.364 292.801 331.555 292.455 331.938C292.119 332.311 291.919 332.834 291.853 333.506H295.675C295.666 332.871 295.517 332.358 295.227 331.966C294.938 331.565 294.481 331.364 293.855 331.364Z" fill="black"/>
<rect x="180.5" y="315.5" width="263" height="35" rx="1.5" stroke="#939393"/>
</svg>
