<svg width="412" height="214" viewBox="0 0 412 214" fill="none" xmlns="http://www.w3.org/2000/svg">
<rect width="412" height="214" fill="white"/>
<path d="M49.432 67.432C50.552 67.432 51.368 67.652 51.88 68.092C52.392 68.532 52.648 69.152 52.648 69.952C52.648 70.424 52.54 70.868 52.324 71.284C52.116 71.692 51.76 72.024 51.256 72.28C50.76 72.536 50.084 72.664 49.228 72.664H48.244V76H47.164V67.432H49.432ZM49.336 68.356H48.244V71.74H49.108C49.924 71.74 50.532 71.608 50.932 71.344C51.332 71.08 51.532 70.632 51.532 70C51.532 69.448 51.352 69.036 50.992 68.764C50.64 68.492 50.088 68.356 49.336 68.356ZM56.7216 69.46C57.5056 69.46 58.0856 69.632 58.4616 69.976C58.8376 70.32 59.0256 70.868 59.0256 71.62V76H58.2576L58.0536 75.088H58.0056C57.7256 75.44 57.4296 75.7 57.1176 75.868C56.8056 76.036 56.3816 76.12 55.8456 76.12C55.2616 76.12 54.7776 75.968 54.3936 75.664C54.0096 75.352 53.8176 74.868 53.8176 74.212C53.8176 73.572 54.0696 73.08 54.5736 72.736C55.0776 72.384 55.8536 72.192 56.9016 72.16L57.9936 72.124V71.74C57.9936 71.204 57.8776 70.832 57.6456 70.624C57.4136 70.416 57.0856 70.312 56.6616 70.312C56.3256 70.312 56.0056 70.364 55.7016 70.468C55.3976 70.564 55.1136 70.676 54.8496 70.804L54.5256 70.012C54.8056 69.86 55.1376 69.732 55.5216 69.628C55.9056 69.516 56.3056 69.46 56.7216 69.46ZM57.9816 72.856L57.0336 72.892C56.2336 72.924 55.6776 73.052 55.3656 73.276C55.0616 73.5 54.9096 73.816 54.9096 74.224C54.9096 74.584 55.0176 74.848 55.2336 75.016C55.4576 75.184 55.7416 75.268 56.0856 75.268C56.6216 75.268 57.0696 75.12 57.4296 74.824C57.7976 74.52 57.9816 74.056 57.9816 73.432V72.856ZM65.2002 74.224C65.2002 74.848 64.9682 75.32 64.5042 75.64C64.0402 75.96 63.4162 76.12 62.6322 76.12C62.1842 76.12 61.7962 76.084 61.4682 76.012C61.1482 75.94 60.8642 75.84 60.6162 75.712V74.752C60.8722 74.88 61.1802 75 61.5402 75.112C61.9082 75.216 62.2802 75.268 62.6562 75.268C63.1922 75.268 63.5802 75.184 63.8202 75.016C64.0602 74.84 64.1802 74.608 64.1802 74.32C64.1802 74.16 64.1362 74.016 64.0482 73.888C63.9602 73.76 63.8002 73.632 63.5682 73.504C63.3442 73.376 63.0202 73.232 62.5962 73.072C62.1802 72.912 61.8242 72.752 61.5282 72.592C61.2322 72.432 61.0042 72.24 60.8442 72.016C60.6842 71.792 60.6042 71.504 60.6042 71.152C60.6042 70.608 60.8242 70.188 61.2642 69.892C61.7122 69.596 62.2962 69.448 63.0162 69.448C63.4082 69.448 63.7722 69.488 64.1082 69.568C64.4522 69.648 64.7722 69.752 65.0682 69.88L64.7082 70.72C64.4362 70.608 64.1522 70.512 63.8562 70.432C63.5602 70.352 63.2562 70.312 62.9442 70.312C62.5122 70.312 62.1802 70.384 61.9482 70.528C61.7242 70.664 61.6122 70.852 61.6122 71.092C61.6122 71.276 61.6642 71.428 61.7682 71.548C61.8722 71.668 62.0442 71.788 62.2842 71.908C62.5322 72.028 62.8602 72.164 63.2682 72.316C63.6762 72.468 64.0242 72.624 64.3122 72.784C64.6002 72.944 64.8202 73.14 64.9722 73.372C65.1242 73.596 65.2002 73.88 65.2002 74.224ZM70.9424 74.224C70.9424 74.848 70.7104 75.32 70.2464 75.64C69.7824 75.96 69.1584 76.12 68.3744 76.12C67.9264 76.12 67.5384 76.084 67.2104 76.012C66.8904 75.94 66.6064 75.84 66.3584 75.712V74.752C66.6144 74.88 66.9224 75 67.2824 75.112C67.6504 75.216 68.0224 75.268 68.3984 75.268C68.9344 75.268 69.3224 75.184 69.5624 75.016C69.8024 74.84 69.9224 74.608 69.9224 74.32C69.9224 74.16 69.8784 74.016 69.7904 73.888C69.7024 73.76 69.5424 73.632 69.3104 73.504C69.0864 73.376 68.7624 73.232 68.3384 73.072C67.9224 72.912 67.5664 72.752 67.2704 72.592C66.9744 72.432 66.7464 72.24 66.5864 72.016C66.4264 71.792 66.3464 71.504 66.3464 71.152C66.3464 70.608 66.5664 70.188 67.0064 69.892C67.4544 69.596 68.0384 69.448 68.7584 69.448C69.1504 69.448 69.5144 69.488 69.8504 69.568C70.1944 69.648 70.5144 69.752 70.8104 69.88L70.4504 70.72C70.1784 70.608 69.8944 70.512 69.5984 70.432C69.3024 70.352 68.9984 70.312 68.6864 70.312C68.2544 70.312 67.9224 70.384 67.6904 70.528C67.4664 70.664 67.3544 70.852 67.3544 71.092C67.3544 71.276 67.4064 71.428 67.5104 71.548C67.6144 71.668 67.7864 71.788 68.0264 71.908C68.2744 72.028 68.6024 72.164 69.0104 72.316C69.4184 72.468 69.7664 72.624 70.0544 72.784C70.3424 72.944 70.5624 73.14 70.7144 73.372C70.8664 73.596 70.9424 73.88 70.9424 74.224ZM77.7526 75.988L76.6486 72.364C76.5446 72.036 76.4526 71.716 76.3726 71.404C76.2926 71.092 76.2366 70.844 76.2046 70.66H76.1566C76.1246 70.844 76.0726 71.092 76.0006 71.404C75.9286 71.716 75.8366 72.04 75.7246 72.376L74.5726 75.988H73.3726L71.6086 69.556H72.7006L73.5886 72.988C73.6766 73.332 73.7606 73.68 73.8406 74.032C73.9206 74.384 73.9766 74.676 74.0086 74.908H74.0566C74.0806 74.772 74.1166 74.604 74.1646 74.404C74.2126 74.204 74.2646 73.996 74.3206 73.78C74.3766 73.556 74.4326 73.356 74.4886 73.18L75.6286 69.556H76.7806L77.8846 73.18C77.9646 73.46 78.0486 73.76 78.1366 74.08C78.2246 74.4 78.2846 74.672 78.3166 74.896H78.3646C78.3886 74.696 78.4406 74.42 78.5206 74.068C78.6086 73.716 78.7006 73.356 78.7966 72.988L79.6966 69.556H80.7766L78.9886 75.988H77.7526ZM87.5222 72.772C87.5222 73.836 87.2502 74.66 86.7062 75.244C86.1702 75.828 85.4422 76.12 84.5222 76.12C83.9542 76.12 83.4462 75.992 82.9982 75.736C82.5582 75.472 82.2102 75.092 81.9542 74.596C81.6982 74.092 81.5702 73.484 81.5702 72.772C81.5702 71.708 81.8342 70.888 82.3622 70.312C82.8982 69.736 83.6302 69.448 84.5582 69.448C85.1342 69.448 85.6462 69.58 86.0942 69.844C86.5422 70.1 86.8902 70.476 87.1382 70.972C87.3942 71.46 87.5222 72.06 87.5222 72.772ZM82.6622 72.772C82.6622 73.532 82.8102 74.136 83.1062 74.584C83.4102 75.024 83.8902 75.244 84.5462 75.244C85.1942 75.244 85.6702 75.024 85.9742 74.584C86.2782 74.136 86.4302 73.532 86.4302 72.772C86.4302 72.012 86.2782 71.416 85.9742 70.984C85.6702 70.552 85.1902 70.336 84.5342 70.336C83.8782 70.336 83.4022 70.552 83.1062 70.984C82.8102 71.416 82.6622 72.012 82.6622 72.772ZM92.1958 69.448C92.3158 69.448 92.4438 69.456 92.5798 69.472C92.7158 69.48 92.8398 69.496 92.9518 69.52L92.8198 70.492C92.7158 70.468 92.5998 70.448 92.4718 70.432C92.3438 70.416 92.2278 70.408 92.1238 70.408C91.7958 70.408 91.4878 70.5 91.1998 70.684C90.9118 70.86 90.6798 71.112 90.5038 71.44C90.3358 71.76 90.2518 72.136 90.2518 72.568V76H89.1958V69.568H90.0598L90.1798 70.744H90.2278C90.4278 70.392 90.6918 70.088 91.0198 69.832C91.3558 69.576 91.7478 69.448 92.1958 69.448ZM96.1984 76.12C95.3984 76.12 94.7584 75.844 94.2784 75.292C93.7984 74.732 93.5584 73.9 93.5584 72.796C93.5584 71.692 93.7984 70.86 94.2784 70.3C94.7664 69.732 95.4104 69.448 96.2104 69.448C96.7064 69.448 97.1104 69.54 97.4224 69.724C97.7424 69.908 98.0024 70.132 98.2024 70.396H98.2744C98.2584 70.292 98.2424 70.14 98.2264 69.94C98.2104 69.732 98.2024 69.568 98.2024 69.448V66.88H99.2584V76H98.4064L98.2504 75.136H98.2024C98.0104 75.408 97.7544 75.64 97.4344 75.832C97.1144 76.024 96.7024 76.12 96.1984 76.12ZM96.3664 75.244C97.0464 75.244 97.5224 75.06 97.7944 74.692C98.0744 74.316 98.2144 73.752 98.2144 73V72.808C98.2144 72.008 98.0824 71.396 97.8184 70.972C97.5544 70.54 97.0664 70.324 96.3544 70.324C95.7864 70.324 95.3584 70.552 95.0704 71.008C94.7904 71.456 94.6504 72.06 94.6504 72.82C94.6504 73.588 94.7904 74.184 95.0704 74.608C95.3584 75.032 95.7904 75.244 96.3664 75.244Z" fill="#323232"/>
<rect x="47" y="84" width="318" height="30" rx="1" fill="white"/>
<path d="M60.868 94.88H61.744V106.892H60.868V94.88Z" fill="black"/>
<path d="M346 95C342.2 95 339 98.05 339 99.2C339 100.35 342.2 103.4 346 103.4C349.8 103.4 353 100.35 353 99.2C353 98.05 349.8 95 346 95ZM346 102.65C342.4 102.65 339.75 99.75 339.75 99.2C339.75 98.65 342.4 95.75 346 95.75C349.45 95.75 352.25 98.5 352.25 99.2C352.25 99.9 349.45 102.65 346 102.65Z" fill="#323232"/>
<path d="M346 96.6C344.55 96.6 343.4 97.8 343.4 99.2C343.4 100.6 344.55 101.8 346 101.8C347.45 101.8 348.6 100.6 348.6 99.2C348.6 97.8 347.45 96.6 346 96.6ZM346 101.05C344.95 101.05 344.15 100.2 344.15 99.2C344.15 98.2 345 97.35 346 97.35C347 97.35 347.85 98.2 347.85 99.2C347.85 100.2 347.05 101.05 346 101.05Z" fill="#323232"/>
<rect x="47" y="84" width="318" height="30" rx="1" stroke="#1B77AF" stroke-width="2"/>
<path d="M50.836 124.26C49.916 124.26 49.192 124.568 48.664 125.184C48.136 125.8 47.872 126.644 47.872 127.716C47.872 128.78 48.116 129.624 48.604 130.248C49.1 130.864 49.84 131.172 50.824 131.172C51.192 131.172 51.544 131.14 51.88 131.076C52.216 131.012 52.548 130.932 52.876 130.836V131.772C52.556 131.892 52.224 131.98 51.88 132.036C51.544 132.092 51.14 132.12 50.668 132.12C49.796 132.12 49.068 131.94 48.484 131.58C47.9 131.22 47.46 130.708 47.164 130.044C46.876 129.38 46.732 128.6 46.732 127.704C46.732 126.84 46.888 126.08 47.2 125.424C47.52 124.76 47.988 124.244 48.604 123.876C49.22 123.5 49.968 123.312 50.848 123.312C51.752 123.312 52.54 123.48 53.212 123.816L52.78 124.728C52.516 124.608 52.22 124.5 51.892 124.404C51.572 124.308 51.22 124.26 50.836 124.26ZM60.194 128.772C60.194 129.836 59.922 130.66 59.378 131.244C58.842 131.828 58.114 132.12 57.194 132.12C56.626 132.12 56.118 131.992 55.67 131.736C55.23 131.472 54.882 131.092 54.626 130.596C54.37 130.092 54.242 129.484 54.242 128.772C54.242 127.708 54.506 126.888 55.034 126.312C55.57 125.736 56.302 125.448 57.23 125.448C57.806 125.448 58.318 125.58 58.766 125.844C59.214 126.1 59.562 126.476 59.81 126.972C60.066 127.46 60.194 128.06 60.194 128.772ZM55.334 128.772C55.334 129.532 55.482 130.136 55.778 130.584C56.082 131.024 56.562 131.244 57.218 131.244C57.866 131.244 58.342 131.024 58.646 130.584C58.95 130.136 59.102 129.532 59.102 128.772C59.102 128.012 58.95 127.416 58.646 126.984C58.342 126.552 57.862 126.336 57.206 126.336C56.55 126.336 56.074 126.552 55.778 126.984C55.482 127.416 55.334 128.012 55.334 128.772ZM64.9637 125.448C65.7317 125.448 66.3117 125.636 66.7037 126.012C67.0957 126.388 67.2917 126.988 67.2917 127.812V132H66.2477V127.884C66.2477 126.852 65.7677 126.336 64.8077 126.336C64.0957 126.336 63.6037 126.536 63.3317 126.936C63.0597 127.336 62.9237 127.912 62.9237 128.664V132H61.8677V125.568H62.7197L62.8757 126.444H62.9357C63.1437 126.108 63.4317 125.86 63.7997 125.7C64.1677 125.532 64.5557 125.448 64.9637 125.448ZM71.4336 131.256C71.5936 131.256 71.7576 131.244 71.9256 131.22C72.0936 131.196 72.2296 131.164 72.3336 131.124V131.928C72.2216 131.984 72.0616 132.028 71.8536 132.06C71.6456 132.1 71.4456 132.12 71.2536 132.12C70.9176 132.12 70.6056 132.064 70.3176 131.952C70.0376 131.832 69.8096 131.628 69.6336 131.34C69.4576 131.052 69.3696 130.648 69.3696 130.128V126.384H68.4576V125.88L69.3816 125.46L69.8016 124.092H70.4256V125.568H72.2856V126.384H70.4256V130.104C70.4256 130.496 70.5176 130.788 70.7016 130.98C70.8936 131.164 71.1376 131.256 71.4336 131.256ZM76.0576 125.46C76.8416 125.46 77.4216 125.632 77.7976 125.976C78.1736 126.32 78.3616 126.868 78.3616 127.62V132H77.5936L77.3896 131.088H77.3416C77.0616 131.44 76.7656 131.7 76.4536 131.868C76.1416 132.036 75.7176 132.12 75.1816 132.12C74.5976 132.12 74.1136 131.968 73.7296 131.664C73.3456 131.352 73.1536 130.868 73.1536 130.212C73.1536 129.572 73.4056 129.08 73.9096 128.736C74.4136 128.384 75.1896 128.192 76.2376 128.16L77.3296 128.124V127.74C77.3296 127.204 77.2136 126.832 76.9816 126.624C76.7496 126.416 76.4216 126.312 75.9976 126.312C75.6616 126.312 75.3416 126.364 75.0376 126.468C74.7336 126.564 74.4496 126.676 74.1856 126.804L73.8616 126.012C74.1416 125.86 74.4736 125.732 74.8576 125.628C75.2416 125.516 75.6416 125.46 76.0576 125.46ZM77.3176 128.856L76.3696 128.892C75.5696 128.924 75.0136 129.052 74.7016 129.276C74.3976 129.5 74.2456 129.816 74.2456 130.224C74.2456 130.584 74.3536 130.848 74.5696 131.016C74.7936 131.184 75.0776 131.268 75.4216 131.268C75.9576 131.268 76.4056 131.12 76.7656 130.824C77.1336 130.52 77.3176 130.056 77.3176 129.432V128.856ZM80.8881 123.156C81.0481 123.156 81.1881 123.212 81.3081 123.324C81.4361 123.428 81.5001 123.596 81.5001 123.828C81.5001 124.06 81.4361 124.232 81.3081 124.344C81.1881 124.448 81.0481 124.5 80.8881 124.5C80.7121 124.5 80.5641 124.448 80.4441 124.344C80.3241 124.232 80.2641 124.06 80.2641 123.828C80.2641 123.596 80.3241 123.428 80.4441 123.324C80.5641 123.212 80.7121 123.156 80.8881 123.156ZM81.4041 125.568V132H80.3481V125.568H81.4041ZM86.5379 125.448C87.3059 125.448 87.8859 125.636 88.2779 126.012C88.6699 126.388 88.8659 126.988 88.8659 127.812V132H87.8219V127.884C87.8219 126.852 87.3419 126.336 86.3819 126.336C85.6699 126.336 85.1779 126.536 84.9059 126.936C84.6339 127.336 84.4979 127.912 84.4979 128.664V132H83.4419V125.568H84.2939L84.4499 126.444H84.5099C84.7179 126.108 85.0059 125.86 85.3739 125.7C85.7419 125.532 86.1299 125.448 86.5379 125.448ZM96.413 125.46C97.197 125.46 97.777 125.632 98.153 125.976C98.529 126.32 98.717 126.868 98.717 127.62V132H97.949L97.745 131.088H97.697C97.417 131.44 97.121 131.7 96.809 131.868C96.497 132.036 96.073 132.12 95.537 132.12C94.953 132.12 94.469 131.968 94.085 131.664C93.701 131.352 93.509 130.868 93.509 130.212C93.509 129.572 93.761 129.08 94.265 128.736C94.769 128.384 95.545 128.192 96.593 128.16L97.685 128.124V127.74C97.685 127.204 97.569 126.832 97.337 126.624C97.105 126.416 96.777 126.312 96.353 126.312C96.017 126.312 95.697 126.364 95.393 126.468C95.089 126.564 94.805 126.676 94.541 126.804L94.217 126.012C94.497 125.86 94.829 125.732 95.213 125.628C95.597 125.516 95.997 125.46 96.413 125.46ZM97.673 128.856L96.725 128.892C95.925 128.924 95.369 129.052 95.057 129.276C94.753 129.5 94.601 129.816 94.601 130.224C94.601 130.584 94.709 130.848 94.925 131.016C95.149 131.184 95.433 131.268 95.777 131.268C96.313 131.268 96.761 131.12 97.121 130.824C97.489 130.52 97.673 130.056 97.673 129.432V128.856ZM102.852 131.256C103.012 131.256 103.176 131.244 103.344 131.22C103.512 131.196 103.648 131.164 103.752 131.124V131.928C103.64 131.984 103.48 132.028 103.272 132.06C103.064 132.1 102.864 132.12 102.672 132.12C102.336 132.12 102.024 132.064 101.736 131.952C101.456 131.832 101.228 131.628 101.052 131.34C100.876 131.052 100.788 130.648 100.788 130.128V126.384H99.8756V125.88L100.8 125.46L101.22 124.092H101.844V125.568H103.704V126.384H101.844V130.104C101.844 130.496 101.936 130.788 102.12 130.98C102.312 131.164 102.556 131.256 102.852 131.256ZM109.213 132H108.157V122.88H109.213V132ZM113.734 125.448C114.278 125.448 114.75 125.568 115.15 125.808C115.55 126.048 115.854 126.388 116.062 126.828C116.278 127.26 116.386 127.768 116.386 128.352V128.988H111.982C111.998 129.716 112.182 130.272 112.534 130.656C112.894 131.032 113.394 131.22 114.034 131.22C114.442 131.22 114.802 131.184 115.114 131.112C115.434 131.032 115.762 130.92 116.098 130.776V131.7C115.77 131.844 115.446 131.948 115.126 132.012C114.806 132.084 114.426 132.12 113.986 132.12C113.37 132.12 112.83 131.996 112.366 131.748C111.902 131.5 111.538 131.132 111.274 130.644C111.018 130.156 110.89 129.552 110.89 128.832C110.89 128.128 111.006 127.524 111.238 127.02C111.478 126.516 111.81 126.128 112.234 125.856C112.666 125.584 113.166 125.448 113.734 125.448ZM113.722 126.312C113.218 126.312 112.818 126.476 112.522 126.804C112.234 127.124 112.062 127.572 112.006 128.148H115.282C115.274 127.604 115.146 127.164 114.898 126.828C114.65 126.484 114.258 126.312 113.722 126.312ZM120.46 125.46C121.244 125.46 121.824 125.632 122.2 125.976C122.576 126.32 122.764 126.868 122.764 127.62V132H121.996L121.792 131.088H121.744C121.464 131.44 121.168 131.7 120.856 131.868C120.544 132.036 120.12 132.12 119.584 132.12C119 132.12 118.516 131.968 118.132 131.664C117.748 131.352 117.556 130.868 117.556 130.212C117.556 129.572 117.808 129.08 118.312 128.736C118.816 128.384 119.592 128.192 120.64 128.16L121.732 128.124V127.74C121.732 127.204 121.616 126.832 121.384 126.624C121.152 126.416 120.824 126.312 120.4 126.312C120.064 126.312 119.744 126.364 119.44 126.468C119.136 126.564 118.852 126.676 118.588 126.804L118.264 126.012C118.544 125.86 118.876 125.732 119.26 125.628C119.644 125.516 120.044 125.46 120.46 125.46ZM121.72 128.856L120.772 128.892C119.972 128.924 119.416 129.052 119.104 129.276C118.8 129.5 118.648 129.816 118.648 130.224C118.648 130.584 118.756 130.848 118.972 131.016C119.196 131.184 119.48 131.268 119.824 131.268C120.36 131.268 120.808 131.12 121.168 130.824C121.536 130.52 121.72 130.056 121.72 129.432V128.856ZM128.938 130.224C128.938 130.848 128.706 131.32 128.242 131.64C127.778 131.96 127.154 132.12 126.37 132.12C125.922 132.12 125.534 132.084 125.206 132.012C124.886 131.94 124.602 131.84 124.354 131.712V130.752C124.61 130.88 124.918 131 125.278 131.112C125.646 131.216 126.018 131.268 126.394 131.268C126.93 131.268 127.318 131.184 127.558 131.016C127.798 130.84 127.918 130.608 127.918 130.32C127.918 130.16 127.874 130.016 127.786 129.888C127.698 129.76 127.538 129.632 127.306 129.504C127.082 129.376 126.758 129.232 126.334 129.072C125.918 128.912 125.562 128.752 125.266 128.592C124.97 128.432 124.742 128.24 124.582 128.016C124.422 127.792 124.342 127.504 124.342 127.152C124.342 126.608 124.562 126.188 125.002 125.892C125.45 125.596 126.034 125.448 126.754 125.448C127.146 125.448 127.51 125.488 127.846 125.568C128.19 125.648 128.51 125.752 128.806 125.88L128.446 126.72C128.174 126.608 127.89 126.512 127.594 126.432C127.298 126.352 126.994 126.312 126.682 126.312C126.25 126.312 125.918 126.384 125.686 126.528C125.462 126.664 125.35 126.852 125.35 127.092C125.35 127.276 125.402 127.428 125.506 127.548C125.61 127.668 125.782 127.788 126.022 127.908C126.27 128.028 126.598 128.164 127.006 128.316C127.414 128.468 127.762 128.624 128.05 128.784C128.338 128.944 128.558 129.14 128.71 129.372C128.862 129.596 128.938 129.88 128.938 130.224ZM132.641 131.256C132.801 131.256 132.965 131.244 133.133 131.22C133.301 131.196 133.437 131.164 133.541 131.124V131.928C133.429 131.984 133.269 132.028 133.061 132.06C132.853 132.1 132.653 132.12 132.461 132.12C132.125 132.12 131.813 132.064 131.525 131.952C131.245 131.832 131.017 131.628 130.841 131.34C130.665 131.052 130.577 130.648 130.577 130.128V126.384H129.665V125.88L130.589 125.46L131.009 124.092H131.633V125.568H133.493V126.384H131.633V130.104C131.633 130.496 131.725 130.788 131.909 130.98C132.101 131.164 132.345 131.256 132.641 131.256ZM141.186 132H140.154V126.012C140.154 125.668 140.158 125.392 140.166 125.184C140.174 124.976 140.186 124.76 140.202 124.536C140.074 124.664 139.954 124.772 139.842 124.86C139.738 124.948 139.61 125.06 139.458 125.196L138.546 125.94L137.994 125.232L140.31 123.432H141.186V132ZM153.306 125.568V132H152.442L152.286 131.148H152.238C152.03 131.484 151.742 131.732 151.374 131.892C151.006 132.044 150.614 132.12 150.198 132.12C149.422 132.12 148.838 131.936 148.446 131.568C148.054 131.192 147.858 130.596 147.858 129.78V125.568H148.926V129.708C148.926 130.732 149.402 131.244 150.354 131.244C151.066 131.244 151.558 131.044 151.83 130.644C152.11 130.244 152.25 129.668 152.25 128.916V125.568H153.306ZM158.408 125.448C159.2 125.448 159.836 125.724 160.316 126.276C160.804 126.828 161.048 127.66 161.048 128.772C161.048 129.868 160.804 130.7 160.316 131.268C159.836 131.836 159.196 132.12 158.396 132.12C157.9 132.12 157.488 132.028 157.16 131.844C156.84 131.66 156.588 131.44 156.404 131.184H156.332C156.34 131.32 156.352 131.492 156.368 131.7C156.392 131.908 156.404 132.088 156.404 132.24V134.88H155.348V125.568H156.212L156.356 126.444H156.404C156.596 126.164 156.848 125.928 157.16 125.736C157.472 125.544 157.888 125.448 158.408 125.448ZM158.216 126.336C157.56 126.336 157.096 126.52 156.824 126.888C156.552 127.256 156.412 127.816 156.404 128.568V128.772C156.404 129.564 156.532 130.176 156.788 130.608C157.052 131.032 157.536 131.244 158.24 131.244C158.624 131.244 158.944 131.14 159.2 130.932C159.456 130.716 159.644 130.42 159.764 130.044C159.892 129.668 159.956 129.24 159.956 128.76C159.956 128.024 159.812 127.436 159.524 126.996C159.244 126.556 158.808 126.336 158.216 126.336ZM165.791 125.448C166.583 125.448 167.219 125.724 167.699 126.276C168.187 126.828 168.431 127.66 168.431 128.772C168.431 129.868 168.187 130.7 167.699 131.268C167.219 131.836 166.579 132.12 165.779 132.12C165.283 132.12 164.871 132.028 164.543 131.844C164.223 131.66 163.971 131.44 163.787 131.184H163.715C163.723 131.32 163.735 131.492 163.751 131.7C163.775 131.908 163.787 132.088 163.787 132.24V134.88H162.731V125.568H163.595L163.739 126.444H163.787C163.979 126.164 164.231 125.928 164.543 125.736C164.855 125.544 165.271 125.448 165.791 125.448ZM165.599 126.336C164.943 126.336 164.479 126.52 164.207 126.888C163.935 127.256 163.795 127.816 163.787 128.568V128.772C163.787 129.564 163.915 130.176 164.171 130.608C164.435 131.032 164.919 131.244 165.623 131.244C166.007 131.244 166.327 131.14 166.583 130.932C166.839 130.716 167.027 130.42 167.147 130.044C167.275 129.668 167.339 129.24 167.339 128.76C167.339 128.024 167.195 127.436 166.907 126.996C166.627 126.556 166.191 126.336 165.599 126.336ZM172.598 125.448C173.142 125.448 173.614 125.568 174.014 125.808C174.414 126.048 174.718 126.388 174.926 126.828C175.142 127.26 175.25 127.768 175.25 128.352V128.988H170.846C170.862 129.716 171.046 130.272 171.398 130.656C171.758 131.032 172.258 131.22 172.898 131.22C173.306 131.22 173.666 131.184 173.978 131.112C174.298 131.032 174.626 130.92 174.962 130.776V131.7C174.634 131.844 174.31 131.948 173.99 132.012C173.67 132.084 173.29 132.12 172.85 132.12C172.234 132.12 171.694 131.996 171.23 131.748C170.766 131.5 170.402 131.132 170.138 130.644C169.882 130.156 169.754 129.552 169.754 128.832C169.754 128.128 169.87 127.524 170.102 127.02C170.342 126.516 170.674 126.128 171.098 125.856C171.53 125.584 172.03 125.448 172.598 125.448ZM172.586 126.312C172.082 126.312 171.682 126.476 171.386 126.804C171.098 127.124 170.926 127.572 170.87 128.148H174.146C174.138 127.604 174.01 127.164 173.762 126.828C173.514 126.484 173.122 126.312 172.586 126.312ZM179.887 125.448C180.007 125.448 180.135 125.456 180.271 125.472C180.407 125.48 180.531 125.496 180.643 125.52L180.511 126.492C180.407 126.468 180.291 126.448 180.163 126.432C180.035 126.416 179.919 126.408 179.815 126.408C179.487 126.408 179.179 126.5 178.891 126.684C178.603 126.86 178.371 127.112 178.195 127.44C178.027 127.76 177.943 128.136 177.943 128.568V132H176.887V125.568H177.751L177.871 126.744H177.919C178.119 126.392 178.383 126.088 178.711 125.832C179.047 125.576 179.439 125.448 179.887 125.448ZM184.19 132.12C183.614 132.12 183.106 132.004 182.666 131.772C182.226 131.54 181.878 131.18 181.622 130.692C181.374 130.204 181.25 129.58 181.25 128.82C181.25 128.028 181.378 127.384 181.634 126.888C181.898 126.392 182.258 126.028 182.714 125.796C183.17 125.564 183.686 125.448 184.262 125.448C184.582 125.448 184.894 125.484 185.198 125.556C185.51 125.62 185.762 125.7 185.954 125.796L185.63 126.672C185.438 126.6 185.214 126.532 184.958 126.468C184.702 126.404 184.462 126.372 184.238 126.372C182.974 126.372 182.342 127.184 182.342 128.808C182.342 129.584 182.494 130.18 182.798 130.596C183.11 131.004 183.57 131.208 184.178 131.208C184.522 131.208 184.83 131.172 185.102 131.1C185.374 131.028 185.622 130.94 185.846 130.836V131.772C185.63 131.884 185.39 131.968 185.126 132.024C184.87 132.088 184.558 132.12 184.19 132.12ZM189.811 125.46C190.595 125.46 191.175 125.632 191.551 125.976C191.927 126.32 192.115 126.868 192.115 127.62V132H191.347L191.143 131.088H191.095C190.815 131.44 190.519 131.7 190.207 131.868C189.895 132.036 189.471 132.12 188.935 132.12C188.351 132.12 187.867 131.968 187.483 131.664C187.099 131.352 186.907 130.868 186.907 130.212C186.907 129.572 187.159 129.08 187.663 128.736C188.167 128.384 188.943 128.192 189.991 128.16L191.083 128.124V127.74C191.083 127.204 190.967 126.832 190.735 126.624C190.503 126.416 190.175 126.312 189.751 126.312C189.415 126.312 189.095 126.364 188.791 126.468C188.487 126.564 188.203 126.676 187.939 126.804L187.615 126.012C187.895 125.86 188.227 125.732 188.611 125.628C188.995 125.516 189.395 125.46 189.811 125.46ZM191.071 128.856L190.123 128.892C189.323 128.924 188.767 129.052 188.455 129.276C188.151 129.5 187.999 129.816 187.999 130.224C187.999 130.584 188.107 130.848 188.323 131.016C188.547 131.184 188.831 131.268 189.175 131.268C189.711 131.268 190.159 131.12 190.519 130.824C190.887 130.52 191.071 130.056 191.071 129.432V128.856ZM198.29 130.224C198.29 130.848 198.058 131.32 197.594 131.64C197.13 131.96 196.506 132.12 195.722 132.12C195.274 132.12 194.886 132.084 194.558 132.012C194.238 131.94 193.954 131.84 193.706 131.712V130.752C193.962 130.88 194.27 131 194.63 131.112C194.998 131.216 195.37 131.268 195.746 131.268C196.282 131.268 196.67 131.184 196.91 131.016C197.15 130.84 197.27 130.608 197.27 130.32C197.27 130.16 197.226 130.016 197.138 129.888C197.05 129.76 196.89 129.632 196.658 129.504C196.434 129.376 196.11 129.232 195.686 129.072C195.27 128.912 194.914 128.752 194.618 128.592C194.322 128.432 194.094 128.24 193.934 128.016C193.774 127.792 193.694 127.504 193.694 127.152C193.694 126.608 193.914 126.188 194.354 125.892C194.802 125.596 195.386 125.448 196.106 125.448C196.498 125.448 196.862 125.488 197.198 125.568C197.542 125.648 197.862 125.752 198.158 125.88L197.798 126.72C197.526 126.608 197.242 126.512 196.946 126.432C196.65 126.352 196.346 126.312 196.034 126.312C195.602 126.312 195.27 126.384 195.038 126.528C194.814 126.664 194.702 126.852 194.702 127.092C194.702 127.276 194.754 127.428 194.858 127.548C194.962 127.668 195.134 127.788 195.374 127.908C195.622 128.028 195.95 128.164 196.358 128.316C196.766 128.468 197.114 128.624 197.402 128.784C197.69 128.944 197.91 129.14 198.062 129.372C198.214 129.596 198.29 129.88 198.29 130.224ZM202.328 125.448C202.872 125.448 203.344 125.568 203.744 125.808C204.144 126.048 204.448 126.388 204.656 126.828C204.872 127.26 204.98 127.768 204.98 128.352V128.988H200.576C200.592 129.716 200.776 130.272 201.128 130.656C201.488 131.032 201.988 131.22 202.628 131.22C203.036 131.22 203.396 131.184 203.708 131.112C204.028 131.032 204.356 130.92 204.692 130.776V131.7C204.364 131.844 204.04 131.948 203.72 132.012C203.4 132.084 203.02 132.12 202.58 132.12C201.964 132.12 201.424 131.996 200.96 131.748C200.496 131.5 200.132 131.132 199.868 130.644C199.612 130.156 199.484 129.552 199.484 128.832C199.484 128.128 199.6 127.524 199.832 127.02C200.072 126.516 200.404 126.128 200.828 125.856C201.26 125.584 201.76 125.448 202.328 125.448ZM202.316 126.312C201.812 126.312 201.412 126.476 201.116 126.804C200.828 127.124 200.656 127.572 200.6 128.148H203.876C203.868 127.604 203.74 127.164 203.492 126.828C203.244 126.484 202.852 126.312 202.316 126.312ZM210.791 132H209.735V122.88H210.791V132ZM215.313 125.448C215.857 125.448 216.329 125.568 216.729 125.808C217.129 126.048 217.433 126.388 217.641 126.828C217.857 127.26 217.965 127.768 217.965 128.352V128.988H213.561C213.577 129.716 213.761 130.272 214.113 130.656C214.473 131.032 214.973 131.22 215.613 131.22C216.021 131.22 216.381 131.184 216.693 131.112C217.013 131.032 217.341 130.92 217.677 130.776V131.7C217.349 131.844 217.025 131.948 216.705 132.012C216.385 132.084 216.005 132.12 215.565 132.12C214.949 132.12 214.409 131.996 213.945 131.748C213.481 131.5 213.117 131.132 212.853 130.644C212.597 130.156 212.469 129.552 212.469 128.832C212.469 128.128 212.585 127.524 212.817 127.02C213.057 126.516 213.389 126.128 213.813 125.856C214.245 125.584 214.745 125.448 215.313 125.448ZM215.301 126.312C214.797 126.312 214.397 126.476 214.101 126.804C213.813 127.124 213.641 127.572 213.585 128.148H216.861C216.853 127.604 216.725 127.164 216.477 126.828C216.229 126.484 215.837 126.312 215.301 126.312ZM221.75 131.256C221.91 131.256 222.074 131.244 222.242 131.22C222.41 131.196 222.546 131.164 222.65 131.124V131.928C222.538 131.984 222.378 132.028 222.17 132.06C221.962 132.1 221.762 132.12 221.57 132.12C221.234 132.12 220.922 132.064 220.634 131.952C220.354 131.832 220.126 131.628 219.95 131.34C219.774 131.052 219.686 130.648 219.686 130.128V126.384H218.774V125.88L219.698 125.46L220.118 124.092H220.742V125.568H222.602V126.384H220.742V130.104C220.742 130.496 220.834 130.788 221.018 130.98C221.21 131.164 221.454 131.256 221.75 131.256ZM226.086 131.256C226.246 131.256 226.41 131.244 226.578 131.22C226.746 131.196 226.882 131.164 226.986 131.124V131.928C226.874 131.984 226.714 132.028 226.506 132.06C226.298 132.1 226.098 132.12 225.906 132.12C225.57 132.12 225.258 132.064 224.97 131.952C224.69 131.832 224.462 131.628 224.286 131.34C224.11 131.052 224.022 130.648 224.022 130.128V126.384H223.11V125.88L224.034 125.46L224.454 124.092H225.078V125.568H226.938V126.384H225.078V130.104C225.078 130.496 225.17 130.788 225.354 130.98C225.546 131.164 225.79 131.256 226.086 131.256ZM230.758 125.448C231.302 125.448 231.774 125.568 232.174 125.808C232.574 126.048 232.878 126.388 233.086 126.828C233.302 127.26 233.41 127.768 233.41 128.352V128.988H229.006C229.022 129.716 229.206 130.272 229.558 130.656C229.918 131.032 230.418 131.22 231.058 131.22C231.466 131.22 231.826 131.184 232.138 131.112C232.458 131.032 232.786 130.92 233.122 130.776V131.7C232.794 131.844 232.47 131.948 232.15 132.012C231.83 132.084 231.45 132.12 231.01 132.12C230.394 132.12 229.854 131.996 229.39 131.748C228.926 131.5 228.562 131.132 228.298 130.644C228.042 130.156 227.914 129.552 227.914 128.832C227.914 128.128 228.03 127.524 228.262 127.02C228.502 126.516 228.834 126.128 229.258 125.856C229.69 125.584 230.19 125.448 230.758 125.448ZM230.746 126.312C230.242 126.312 229.842 126.476 229.546 126.804C229.258 127.124 229.086 127.572 229.03 128.148H232.306C232.298 127.604 232.17 127.164 231.922 126.828C231.674 126.484 231.282 126.312 230.746 126.312ZM238.047 125.448C238.167 125.448 238.295 125.456 238.431 125.472C238.567 125.48 238.691 125.496 238.803 125.52L238.671 126.492C238.567 126.468 238.451 126.448 238.323 126.432C238.195 126.416 238.079 126.408 237.975 126.408C237.647 126.408 237.339 126.5 237.051 126.684C236.763 126.86 236.531 127.112 236.355 127.44C236.187 127.76 236.103 128.136 236.103 128.568V132H235.047V125.568H235.911L236.031 126.744H236.079C236.279 126.392 236.543 126.088 236.871 125.832C237.207 125.576 237.599 125.448 238.047 125.448ZM240.49 130.608L240.574 130.74C240.462 131.164 240.31 131.628 240.118 132.132C239.926 132.644 239.734 133.116 239.542 133.548H238.762C238.874 133.092 238.986 132.592 239.098 132.048C239.218 131.504 239.306 131.024 239.362 130.608H240.49ZM252.314 132H251.234V128.004H246.842V132H245.762V123.432H246.842V127.056H251.234V123.432H252.314V132ZM256.948 125.46C257.732 125.46 258.312 125.632 258.688 125.976C259.064 126.32 259.252 126.868 259.252 127.62V132H258.484L258.28 131.088H258.232C257.952 131.44 257.656 131.7 257.344 131.868C257.032 132.036 256.608 132.12 256.072 132.12C255.488 132.12 255.004 131.968 254.62 131.664C254.236 131.352 254.044 130.868 254.044 130.212C254.044 129.572 254.296 129.08 254.8 128.736C255.304 128.384 256.08 128.192 257.128 128.16L258.22 128.124V127.74C258.22 127.204 258.104 126.832 257.872 126.624C257.64 126.416 257.312 126.312 256.888 126.312C256.552 126.312 256.232 126.364 255.928 126.468C255.624 126.564 255.34 126.676 255.076 126.804L254.752 126.012C255.032 125.86 255.364 125.732 255.748 125.628C256.132 125.516 256.532 125.46 256.948 125.46ZM258.208 128.856L257.26 128.892C256.46 128.924 255.904 129.052 255.592 129.276C255.288 129.5 255.136 129.816 255.136 130.224C255.136 130.584 255.244 130.848 255.46 131.016C255.684 131.184 255.968 131.268 256.312 131.268C256.848 131.268 257.296 131.12 257.656 130.824C258.024 130.52 258.208 130.056 258.208 129.432V128.856ZM262.655 132L260.219 125.568H261.347L262.715 129.36C262.779 129.536 262.847 129.732 262.919 129.948C262.991 130.164 263.055 130.372 263.111 130.572C263.167 130.772 263.207 130.936 263.231 131.064H263.279C263.303 130.936 263.347 130.772 263.411 130.572C263.475 130.364 263.543 130.156 263.615 129.948C263.687 129.732 263.755 129.536 263.819 129.36L265.187 125.568H266.315L263.867 132H262.655ZM269.817 125.448C270.361 125.448 270.833 125.568 271.233 125.808C271.633 126.048 271.937 126.388 272.145 126.828C272.361 127.26 272.469 127.768 272.469 128.352V128.988H268.065C268.081 129.716 268.265 130.272 268.617 130.656C268.977 131.032 269.477 131.22 270.117 131.22C270.525 131.22 270.885 131.184 271.197 131.112C271.517 131.032 271.845 130.92 272.181 130.776V131.7C271.853 131.844 271.529 131.948 271.209 132.012C270.889 132.084 270.509 132.12 270.069 132.12C269.453 132.12 268.913 131.996 268.449 131.748C267.985 131.5 267.621 131.132 267.357 130.644C267.101 130.156 266.973 129.552 266.973 128.832C266.973 128.128 267.089 127.524 267.321 127.02C267.561 126.516 267.893 126.128 268.317 125.856C268.749 125.584 269.249 125.448 269.817 125.448ZM269.805 126.312C269.301 126.312 268.901 126.476 268.605 126.804C268.317 127.124 268.145 127.572 268.089 128.148H271.365C271.357 127.604 271.229 127.164 270.981 126.828C270.733 126.484 270.341 126.312 269.805 126.312ZM279.659 125.46C280.443 125.46 281.023 125.632 281.399 125.976C281.775 126.32 281.963 126.868 281.963 127.62V132H281.195L280.991 131.088H280.943C280.663 131.44 280.367 131.7 280.055 131.868C279.743 132.036 279.319 132.12 278.783 132.12C278.199 132.12 277.715 131.968 277.331 131.664C276.947 131.352 276.755 130.868 276.755 130.212C276.755 129.572 277.007 129.08 277.511 128.736C278.015 128.384 278.791 128.192 279.839 128.16L280.931 128.124V127.74C280.931 127.204 280.815 126.832 280.583 126.624C280.351 126.416 280.023 126.312 279.599 126.312C279.263 126.312 278.943 126.364 278.639 126.468C278.335 126.564 278.051 126.676 277.787 126.804L277.463 126.012C277.743 125.86 278.075 125.732 278.459 125.628C278.843 125.516 279.243 125.46 279.659 125.46ZM280.919 128.856L279.971 128.892C279.171 128.924 278.615 129.052 278.303 129.276C277.999 129.5 277.847 129.816 277.847 130.224C277.847 130.584 277.955 130.848 278.171 131.016C278.395 131.184 278.679 131.268 279.023 131.268C279.559 131.268 280.007 131.12 280.367 130.824C280.735 130.52 280.919 130.056 280.919 129.432V128.856ZM286.098 131.256C286.258 131.256 286.422 131.244 286.59 131.22C286.758 131.196 286.894 131.164 286.998 131.124V131.928C286.886 131.984 286.726 132.028 286.518 132.06C286.31 132.1 286.11 132.12 285.918 132.12C285.582 132.12 285.27 132.064 284.982 131.952C284.702 131.832 284.474 131.628 284.298 131.34C284.122 131.052 284.034 130.648 284.034 130.128V126.384H283.122V125.88L284.046 125.46L284.466 124.092H285.09V125.568H286.95V126.384H285.09V130.104C285.09 130.496 285.182 130.788 285.366 130.98C285.558 131.164 285.802 131.256 286.098 131.256ZM292.459 132H291.403V122.88H292.459V132ZM296.981 125.448C297.525 125.448 297.997 125.568 298.397 125.808C298.797 126.048 299.101 126.388 299.309 126.828C299.525 127.26 299.633 127.768 299.633 128.352V128.988H295.229C295.245 129.716 295.429 130.272 295.781 130.656C296.141 131.032 296.641 131.22 297.281 131.22C297.689 131.22 298.049 131.184 298.361 131.112C298.681 131.032 299.009 130.92 299.345 130.776V131.7C299.017 131.844 298.693 131.948 298.373 132.012C298.053 132.084 297.673 132.12 297.233 132.12C296.617 132.12 296.077 131.996 295.613 131.748C295.149 131.5 294.785 131.132 294.521 130.644C294.265 130.156 294.137 129.552 294.137 128.832C294.137 128.128 294.253 127.524 294.485 127.02C294.725 126.516 295.057 126.128 295.481 125.856C295.913 125.584 296.413 125.448 296.981 125.448ZM296.969 126.312C296.465 126.312 296.065 126.476 295.769 126.804C295.481 127.124 295.309 127.572 295.253 128.148H298.529C298.521 127.604 298.393 127.164 298.145 126.828C297.897 126.484 297.505 126.312 296.969 126.312ZM303.706 125.46C304.49 125.46 305.07 125.632 305.446 125.976C305.822 126.32 306.01 126.868 306.01 127.62V132H305.242L305.038 131.088H304.99C304.71 131.44 304.414 131.7 304.102 131.868C303.79 132.036 303.366 132.12 302.83 132.12C302.246 132.12 301.762 131.968 301.378 131.664C300.994 131.352 300.802 130.868 300.802 130.212C300.802 129.572 301.054 129.08 301.558 128.736C302.062 128.384 302.838 128.192 303.886 128.16L304.978 128.124V127.74C304.978 127.204 304.862 126.832 304.63 126.624C304.398 126.416 304.07 126.312 303.646 126.312C303.31 126.312 302.99 126.364 302.686 126.468C302.382 126.564 302.098 126.676 301.834 126.804L301.51 126.012C301.79 125.86 302.122 125.732 302.506 125.628C302.89 125.516 303.29 125.46 303.706 125.46ZM304.966 128.856L304.018 128.892C303.218 128.924 302.662 129.052 302.35 129.276C302.046 129.5 301.894 129.816 301.894 130.224C301.894 130.584 302.002 130.848 302.218 131.016C302.442 131.184 302.726 131.268 303.07 131.268C303.606 131.268 304.054 131.12 304.414 130.824C304.782 130.52 304.966 130.056 304.966 129.432V128.856ZM312.185 130.224C312.185 130.848 311.953 131.32 311.489 131.64C311.025 131.96 310.401 132.12 309.617 132.12C309.169 132.12 308.781 132.084 308.453 132.012C308.133 131.94 307.849 131.84 307.601 131.712V130.752C307.857 130.88 308.165 131 308.525 131.112C308.893 131.216 309.265 131.268 309.641 131.268C310.177 131.268 310.565 131.184 310.805 131.016C311.045 130.84 311.165 130.608 311.165 130.32C311.165 130.16 311.121 130.016 311.033 129.888C310.945 129.76 310.785 129.632 310.553 129.504C310.329 129.376 310.005 129.232 309.581 129.072C309.165 128.912 308.809 128.752 308.513 128.592C308.217 128.432 307.989 128.24 307.829 128.016C307.669 127.792 307.589 127.504 307.589 127.152C307.589 126.608 307.809 126.188 308.249 125.892C308.697 125.596 309.281 125.448 310.001 125.448C310.393 125.448 310.757 125.488 311.093 125.568C311.437 125.648 311.757 125.752 312.053 125.88L311.693 126.72C311.421 126.608 311.137 126.512 310.841 126.432C310.545 126.352 310.241 126.312 309.929 126.312C309.497 126.312 309.165 126.384 308.933 126.528C308.709 126.664 308.597 126.852 308.597 127.092C308.597 127.276 308.649 127.428 308.753 127.548C308.857 127.668 309.029 127.788 309.269 127.908C309.517 128.028 309.845 128.164 310.253 128.316C310.661 128.468 311.009 128.624 311.297 128.784C311.585 128.944 311.805 129.14 311.957 129.372C312.109 129.596 312.185 129.88 312.185 130.224ZM315.887 131.256C316.047 131.256 316.211 131.244 316.379 131.22C316.547 131.196 316.683 131.164 316.787 131.124V131.928C316.675 131.984 316.515 132.028 316.307 132.06C316.099 132.1 315.899 132.12 315.707 132.12C315.371 132.12 315.059 132.064 314.771 131.952C314.491 131.832 314.263 131.628 314.087 131.34C313.911 131.052 313.823 130.648 313.823 130.128V126.384H312.911V125.88L313.835 125.46L314.255 124.092H314.879V125.568H316.739V126.384H314.879V130.104C314.879 130.496 314.971 130.788 315.155 130.98C315.347 131.164 315.591 131.256 315.887 131.256ZM324.432 132H323.4V126.012C323.4 125.668 323.404 125.392 323.412 125.184C323.42 124.976 323.432 124.76 323.448 124.536C323.32 124.664 323.2 124.772 323.088 124.86C322.984 124.948 322.856 125.06 322.704 125.196L321.792 125.94L321.24 125.232L323.556 123.432H324.432V132ZM50.116 141.448C50.884 141.448 51.464 141.636 51.856 142.012C52.248 142.388 52.444 142.988 52.444 143.812V148H51.4V143.884C51.4 142.852 50.92 142.336 49.96 142.336C49.248 142.336 48.756 142.536 48.484 142.936C48.212 143.336 48.076 143.912 48.076 144.664V148H47.02V141.568H47.872L48.028 142.444H48.088C48.296 142.108 48.584 141.86 48.952 141.7C49.32 141.532 49.708 141.448 50.116 141.448ZM59.814 141.568V148H58.95L58.794 147.148H58.746C58.538 147.484 58.25 147.732 57.882 147.892C57.514 148.044 57.122 148.12 56.706 148.12C55.93 148.12 55.346 147.936 54.954 147.568C54.562 147.192 54.366 146.596 54.366 145.78V141.568H55.434V145.708C55.434 146.732 55.91 147.244 56.862 147.244C57.574 147.244 58.066 147.044 58.338 146.644C58.618 146.244 58.758 145.668 58.758 144.916V141.568H59.814ZM68.9119 141.448C69.6399 141.448 70.1839 141.636 70.5439 142.012C70.9039 142.388 71.0839 142.988 71.0839 143.812V148H70.0399V143.86C70.0399 142.844 69.6039 142.336 68.7319 142.336C68.1079 142.336 67.6599 142.516 67.3879 142.876C67.1239 143.236 66.9919 143.76 66.9919 144.448V148H65.9479V143.86C65.9479 142.844 65.5079 142.336 64.6279 142.336C63.9799 142.336 63.5319 142.536 63.2839 142.936C63.0359 143.336 62.9119 143.912 62.9119 144.664V148H61.8559V141.568H62.7079L62.8639 142.444H62.9239C63.1239 142.108 63.3919 141.86 63.7279 141.7C64.0719 141.532 64.4359 141.448 64.8199 141.448C65.8279 141.448 66.4839 141.808 66.7879 142.528H66.8479C67.0639 142.16 67.3559 141.888 67.7239 141.712C68.0919 141.536 68.4879 141.448 68.9119 141.448ZM74.1268 138.88V141.1C74.1268 141.372 74.1188 141.628 74.1028 141.868C74.0948 142.1 74.0828 142.284 74.0668 142.42H74.1268C74.3108 142.148 74.5628 141.92 74.8828 141.736C75.2028 141.552 75.6148 141.46 76.1188 141.46C76.9188 141.46 77.5588 141.74 78.0388 142.3C78.5268 142.852 78.7708 143.68 78.7708 144.784C78.7708 145.888 78.5268 146.72 78.0388 147.28C77.5508 147.84 76.9108 148.12 76.1188 148.12C75.6148 148.12 75.2028 148.028 74.8828 147.844C74.5628 147.66 74.3108 147.44 74.1268 147.184H74.0428L73.8268 148H73.0708V138.88H74.1268ZM75.9388 142.336C75.2508 142.336 74.7748 142.532 74.5108 142.924C74.2548 143.316 74.1268 143.924 74.1268 144.748V144.796C74.1268 145.588 74.2548 146.196 74.5108 146.62C74.7748 147.036 75.2588 147.244 75.9628 147.244C76.5388 147.244 76.9668 147.032 77.2468 146.608C77.5348 146.184 77.6788 145.572 77.6788 144.772C77.6788 143.148 77.0988 142.336 75.9388 142.336ZM82.9376 141.448C83.4816 141.448 83.9536 141.568 84.3536 141.808C84.7536 142.048 85.0576 142.388 85.2656 142.828C85.4816 143.26 85.5896 143.768 85.5896 144.352V144.988H81.1856C81.2016 145.716 81.3856 146.272 81.7376 146.656C82.0976 147.032 82.5976 147.22 83.2376 147.22C83.6456 147.22 84.0056 147.184 84.3176 147.112C84.6376 147.032 84.9656 146.92 85.3016 146.776V147.7C84.9736 147.844 84.6496 147.948 84.3296 148.012C84.0096 148.084 83.6296 148.12 83.1896 148.12C82.5736 148.12 82.0336 147.996 81.5696 147.748C81.1056 147.5 80.7416 147.132 80.4776 146.644C80.2216 146.156 80.0936 145.552 80.0936 144.832C80.0936 144.128 80.2096 143.524 80.4416 143.02C80.6816 142.516 81.0136 142.128 81.4376 141.856C81.8696 141.584 82.3696 141.448 82.9376 141.448ZM82.9256 142.312C82.4216 142.312 82.0216 142.476 81.7256 142.804C81.4376 143.124 81.2656 143.572 81.2096 144.148H84.4856C84.4776 143.604 84.3496 143.164 84.1016 142.828C83.8536 142.484 83.4616 142.312 82.9256 142.312ZM90.227 141.448C90.347 141.448 90.475 141.456 90.611 141.472C90.747 141.48 90.871 141.496 90.983 141.52L90.851 142.492C90.747 142.468 90.631 142.448 90.503 142.432C90.375 142.416 90.259 142.408 90.155 142.408C89.827 142.408 89.519 142.5 89.231 142.684C88.943 142.86 88.711 143.112 88.535 143.44C88.367 143.76 88.283 144.136 88.283 144.568V148H87.227V141.568H88.091L88.211 142.744H88.259C88.459 142.392 88.723 142.088 89.051 141.832C89.387 141.576 89.779 141.448 90.227 141.448ZM100.893 144.772C100.893 145.836 100.621 146.66 100.077 147.244C99.5413 147.828 98.8133 148.12 97.8933 148.12C97.3253 148.12 96.8173 147.992 96.3693 147.736C95.9293 147.472 95.5813 147.092 95.3253 146.596C95.0693 146.092 94.9413 145.484 94.9413 144.772C94.9413 143.708 95.2053 142.888 95.7333 142.312C96.2693 141.736 97.0013 141.448 97.9293 141.448C98.5053 141.448 99.0173 141.58 99.4653 141.844C99.9133 142.1 100.261 142.476 100.509 142.972C100.765 143.46 100.893 144.06 100.893 144.772ZM96.0333 144.772C96.0333 145.532 96.1813 146.136 96.4773 146.584C96.7813 147.024 97.2613 147.244 97.9173 147.244C98.5653 147.244 99.0413 147.024 99.3453 146.584C99.6493 146.136 99.8013 145.532 99.8013 144.772C99.8013 144.012 99.6493 143.416 99.3453 142.984C99.0413 142.552 98.5613 142.336 97.9053 142.336C97.2493 142.336 96.7733 142.552 96.4773 142.984C96.1813 143.416 96.0333 144.012 96.0333 144.772ZM105.567 141.448C105.687 141.448 105.815 141.456 105.951 141.472C106.087 141.48 106.211 141.496 106.323 141.52L106.191 142.492C106.087 142.468 105.971 142.448 105.843 142.432C105.715 142.416 105.599 142.408 105.495 142.408C105.167 142.408 104.859 142.5 104.571 142.684C104.283 142.86 104.051 143.112 103.875 143.44C103.707 143.76 103.623 144.136 103.623 144.568V148H102.567V141.568H103.431L103.551 142.744H103.599C103.799 142.392 104.063 142.088 104.391 141.832C104.727 141.576 105.119 141.448 105.567 141.448ZM114.829 146.224C114.829 146.848 114.597 147.32 114.133 147.64C113.669 147.96 113.045 148.12 112.261 148.12C111.813 148.12 111.425 148.084 111.097 148.012C110.777 147.94 110.493 147.84 110.245 147.712V146.752C110.501 146.88 110.809 147 111.169 147.112C111.537 147.216 111.909 147.268 112.285 147.268C112.821 147.268 113.209 147.184 113.449 147.016C113.689 146.84 113.809 146.608 113.809 146.32C113.809 146.16 113.765 146.016 113.677 145.888C113.589 145.76 113.429 145.632 113.197 145.504C112.973 145.376 112.649 145.232 112.225 145.072C111.809 144.912 111.453 144.752 111.157 144.592C110.861 144.432 110.633 144.24 110.473 144.016C110.313 143.792 110.233 143.504 110.233 143.152C110.233 142.608 110.453 142.188 110.893 141.892C111.341 141.596 111.925 141.448 112.645 141.448C113.037 141.448 113.401 141.488 113.737 141.568C114.081 141.648 114.401 141.752 114.697 141.88L114.337 142.72C114.065 142.608 113.781 142.512 113.485 142.432C113.189 142.352 112.885 142.312 112.573 142.312C112.141 142.312 111.809 142.384 111.577 142.528C111.353 142.664 111.241 142.852 111.241 143.092C111.241 143.276 111.293 143.428 111.397 143.548C111.501 143.668 111.673 143.788 111.913 143.908C112.161 144.028 112.489 144.164 112.897 144.316C113.305 144.468 113.653 144.624 113.941 144.784C114.229 144.944 114.449 145.14 114.601 145.372C114.753 145.596 114.829 145.88 114.829 146.224ZM115.375 141.568H116.503L117.895 145.228C118.015 145.556 118.123 145.864 118.219 146.152C118.315 146.44 118.387 146.716 118.435 146.98H118.483C118.531 146.78 118.607 146.52 118.711 146.2C118.815 145.872 118.923 145.544 119.035 145.216L120.343 141.568H121.483L118.711 148.888C118.479 149.496 118.187 149.98 117.835 150.34C117.483 150.7 116.995 150.88 116.371 150.88C116.179 150.88 116.011 150.868 115.867 150.844C115.723 150.828 115.599 150.808 115.495 150.784V149.944C115.583 149.96 115.687 149.976 115.807 149.992C115.935 150.008 116.067 150.016 116.203 150.016C116.571 150.016 116.867 149.912 117.091 149.704C117.315 149.496 117.495 149.22 117.631 148.876L117.967 148.024L115.375 141.568ZM129.556 141.448C130.284 141.448 130.828 141.636 131.188 142.012C131.548 142.388 131.728 142.988 131.728 143.812V148H130.684V143.86C130.684 142.844 130.248 142.336 129.376 142.336C128.752 142.336 128.304 142.516 128.032 142.876C127.768 143.236 127.636 143.76 127.636 144.448V148H126.592V143.86C126.592 142.844 126.152 142.336 125.272 142.336C124.624 142.336 124.176 142.536 123.928 142.936C123.68 143.336 123.556 143.912 123.556 144.664V148H122.5V141.568H123.352L123.508 142.444H123.568C123.768 142.108 124.036 141.86 124.372 141.7C124.716 141.532 125.08 141.448 125.464 141.448C126.472 141.448 127.128 141.808 127.432 142.528H127.492C127.708 142.16 128 141.888 128.368 141.712C128.736 141.536 129.132 141.448 129.556 141.448ZM134.771 138.88V141.1C134.771 141.372 134.763 141.628 134.747 141.868C134.739 142.1 134.727 142.284 134.711 142.42H134.771C134.955 142.148 135.207 141.92 135.527 141.736C135.847 141.552 136.259 141.46 136.763 141.46C137.563 141.46 138.203 141.74 138.683 142.3C139.171 142.852 139.415 143.68 139.415 144.784C139.415 145.888 139.171 146.72 138.683 147.28C138.195 147.84 137.555 148.12 136.763 148.12C136.259 148.12 135.847 148.028 135.527 147.844C135.207 147.66 134.955 147.44 134.771 147.184H134.687L134.471 148H133.715V138.88H134.771ZM136.583 142.336C135.895 142.336 135.419 142.532 135.155 142.924C134.899 143.316 134.771 143.924 134.771 144.748V144.796C134.771 145.588 134.899 146.196 135.155 146.62C135.419 147.036 135.903 147.244 136.607 147.244C137.183 147.244 137.611 147.032 137.891 146.608C138.179 146.184 138.323 145.572 138.323 144.772C138.323 143.148 137.743 142.336 136.583 142.336ZM146.69 144.772C146.69 145.836 146.418 146.66 145.874 147.244C145.338 147.828 144.61 148.12 143.69 148.12C143.122 148.12 142.614 147.992 142.166 147.736C141.726 147.472 141.378 147.092 141.122 146.596C140.866 146.092 140.738 145.484 140.738 144.772C140.738 143.708 141.002 142.888 141.53 142.312C142.066 141.736 142.798 141.448 143.726 141.448C144.302 141.448 144.814 141.58 145.262 141.844C145.71 142.1 146.058 142.476 146.306 142.972C146.562 143.46 146.69 144.06 146.69 144.772ZM141.83 144.772C141.83 145.532 141.978 146.136 142.274 146.584C142.578 147.024 143.058 147.244 143.714 147.244C144.362 147.244 144.838 147.024 145.142 146.584C145.446 146.136 145.598 145.532 145.598 144.772C145.598 144.012 145.446 143.416 145.142 142.984C144.838 142.552 144.358 142.336 143.702 142.336C143.046 142.336 142.57 142.552 142.274 142.984C141.978 143.416 141.83 144.012 141.83 144.772ZM149.42 148H148.364V138.88H149.42V148ZM152.658 146.608L152.742 146.74C152.63 147.164 152.478 147.628 152.286 148.132C152.094 148.644 151.902 149.116 151.71 149.548H150.93C151.042 149.092 151.154 148.592 151.266 148.048C151.386 147.504 151.474 147.024 151.53 146.608H152.658ZM161.71 148L158.89 140.488H158.842C158.866 140.736 158.886 141.072 158.902 141.496C158.918 141.912 158.926 142.348 158.926 142.804V148H157.93V139.432H159.526L162.166 146.452H162.214L164.902 139.432H166.486V148H165.418V142.732C165.418 142.316 165.426 141.904 165.442 141.496C165.466 141.088 165.486 140.756 165.502 140.5H165.454L162.598 148H161.71ZM174.048 141.568V148H173.184L173.028 147.148H172.98C172.772 147.484 172.484 147.732 172.116 147.892C171.748 148.044 171.356 148.12 170.94 148.12C170.164 148.12 169.58 147.936 169.188 147.568C168.796 147.192 168.6 146.596 168.6 145.78V141.568H169.668V145.708C169.668 146.732 170.144 147.244 171.096 147.244C171.808 147.244 172.3 147.044 172.572 146.644C172.852 146.244 172.992 145.668 172.992 144.916V141.568H174.048ZM180.278 146.224C180.278 146.848 180.046 147.32 179.582 147.64C179.118 147.96 178.494 148.12 177.71 148.12C177.262 148.12 176.874 148.084 176.546 148.012C176.226 147.94 175.942 147.84 175.694 147.712V146.752C175.95 146.88 176.258 147 176.618 147.112C176.986 147.216 177.358 147.268 177.734 147.268C178.27 147.268 178.658 147.184 178.898 147.016C179.138 146.84 179.258 146.608 179.258 146.32C179.258 146.16 179.214 146.016 179.126 145.888C179.038 145.76 178.878 145.632 178.646 145.504C178.422 145.376 178.098 145.232 177.674 145.072C177.258 144.912 176.902 144.752 176.606 144.592C176.31 144.432 176.082 144.24 175.922 144.016C175.762 143.792 175.682 143.504 175.682 143.152C175.682 142.608 175.902 142.188 176.342 141.892C176.79 141.596 177.374 141.448 178.094 141.448C178.486 141.448 178.85 141.488 179.186 141.568C179.53 141.648 179.85 141.752 180.146 141.88L179.786 142.72C179.514 142.608 179.23 142.512 178.934 142.432C178.638 142.352 178.334 142.312 178.022 142.312C177.59 142.312 177.258 142.384 177.026 142.528C176.802 142.664 176.69 142.852 176.69 143.092C176.69 143.276 176.742 143.428 176.846 143.548C176.95 143.668 177.122 143.788 177.362 143.908C177.61 144.028 177.938 144.164 178.346 144.316C178.754 144.468 179.102 144.624 179.39 144.784C179.678 144.944 179.898 145.14 180.05 145.372C180.202 145.596 180.278 145.88 180.278 146.224ZM183.98 147.256C184.141 147.256 184.305 147.244 184.473 147.22C184.641 147.196 184.777 147.164 184.881 147.124V147.928C184.769 147.984 184.609 148.028 184.401 148.06C184.193 148.1 183.993 148.12 183.801 148.12C183.465 148.12 183.153 148.064 182.865 147.952C182.585 147.832 182.357 147.628 182.181 147.34C182.005 147.052 181.917 146.648 181.917 146.128V142.384H181.005V141.88L181.929 141.46L182.349 140.092H182.973V141.568H184.833V142.384H182.973V146.104C182.973 146.496 183.065 146.788 183.249 146.98C183.441 147.164 183.685 147.256 183.98 147.256ZM190.342 138.88V141.1C190.342 141.372 190.334 141.628 190.318 141.868C190.31 142.1 190.298 142.284 190.282 142.42H190.342C190.526 142.148 190.778 141.92 191.098 141.736C191.418 141.552 191.83 141.46 192.334 141.46C193.134 141.46 193.774 141.74 194.254 142.3C194.742 142.852 194.986 143.68 194.986 144.784C194.986 145.888 194.742 146.72 194.254 147.28C193.766 147.84 193.126 148.12 192.334 148.12C191.83 148.12 191.418 148.028 191.098 147.844C190.778 147.66 190.526 147.44 190.342 147.184H190.258L190.042 148H189.286V138.88H190.342ZM192.154 142.336C191.466 142.336 190.99 142.532 190.726 142.924C190.47 143.316 190.342 143.924 190.342 144.748V144.796C190.342 145.588 190.47 146.196 190.726 146.62C190.99 147.036 191.474 147.244 192.178 147.244C192.754 147.244 193.182 147.032 193.462 146.608C193.75 146.184 193.894 145.572 193.894 144.772C193.894 143.148 193.314 142.336 192.154 142.336ZM199.152 141.448C199.696 141.448 200.168 141.568 200.568 141.808C200.968 142.048 201.272 142.388 201.48 142.828C201.696 143.26 201.804 143.768 201.804 144.352V144.988H197.4C197.416 145.716 197.6 146.272 197.952 146.656C198.312 147.032 198.812 147.22 199.452 147.22C199.86 147.22 200.22 147.184 200.532 147.112C200.852 147.032 201.18 146.92 201.516 146.776V147.7C201.188 147.844 200.864 147.948 200.544 148.012C200.224 148.084 199.844 148.12 199.404 148.12C198.788 148.12 198.248 147.996 197.784 147.748C197.32 147.5 196.956 147.132 196.692 146.644C196.436 146.156 196.308 145.552 196.308 144.832C196.308 144.128 196.424 143.524 196.656 143.02C196.896 142.516 197.228 142.128 197.652 141.856C198.084 141.584 198.584 141.448 199.152 141.448ZM199.14 142.312C198.636 142.312 198.236 142.476 197.94 142.804C197.652 143.124 197.48 143.572 197.424 144.148H200.7C200.692 143.604 200.564 143.164 200.316 142.828C200.068 142.484 199.676 142.312 199.14 142.312ZM208.995 141.46C209.779 141.46 210.359 141.632 210.735 141.976C211.111 142.32 211.299 142.868 211.299 143.62V148H210.531L210.327 147.088H210.279C209.999 147.44 209.703 147.7 209.391 147.868C209.079 148.036 208.655 148.12 208.119 148.12C207.535 148.12 207.051 147.968 206.667 147.664C206.283 147.352 206.091 146.868 206.091 146.212C206.091 145.572 206.343 145.08 206.847 144.736C207.351 144.384 208.127 144.192 209.175 144.16L210.267 144.124V143.74C210.267 143.204 210.151 142.832 209.919 142.624C209.687 142.416 209.359 142.312 208.935 142.312C208.599 142.312 208.279 142.364 207.975 142.468C207.671 142.564 207.387 142.676 207.123 142.804L206.799 142.012C207.079 141.86 207.411 141.732 207.795 141.628C208.179 141.516 208.579 141.46 208.995 141.46ZM210.255 144.856L209.307 144.892C208.507 144.924 207.951 145.052 207.639 145.276C207.335 145.5 207.183 145.816 207.183 146.224C207.183 146.584 207.291 146.848 207.507 147.016C207.731 147.184 208.015 147.268 208.359 147.268C208.895 147.268 209.343 147.12 209.703 146.824C210.071 146.52 210.255 146.056 210.255 145.432V144.856ZM215.434 147.256C215.594 147.256 215.758 147.244 215.926 147.22C216.094 147.196 216.23 147.164 216.334 147.124V147.928C216.222 147.984 216.062 148.028 215.854 148.06C215.646 148.1 215.446 148.12 215.254 148.12C214.918 148.12 214.606 148.064 214.318 147.952C214.038 147.832 213.81 147.628 213.634 147.34C213.458 147.052 213.37 146.648 213.37 146.128V142.384H212.458V141.88L213.382 141.46L213.802 140.092H214.426V141.568H216.286V142.384H214.426V146.104C214.426 146.496 214.518 146.788 214.702 146.98C214.894 147.164 215.138 147.256 215.434 147.256ZM221.795 148H220.739V138.88H221.795V148ZM226.317 141.448C226.861 141.448 227.333 141.568 227.733 141.808C228.133 142.048 228.437 142.388 228.645 142.828C228.861 143.26 228.969 143.768 228.969 144.352V144.988H224.565C224.581 145.716 224.765 146.272 225.117 146.656C225.477 147.032 225.977 147.22 226.617 147.22C227.025 147.22 227.385 147.184 227.697 147.112C228.017 147.032 228.345 146.92 228.681 146.776V147.7C228.353 147.844 228.029 147.948 227.709 148.012C227.389 148.084 227.009 148.12 226.569 148.12C225.953 148.12 225.413 147.996 224.949 147.748C224.485 147.5 224.121 147.132 223.857 146.644C223.601 146.156 223.473 145.552 223.473 144.832C223.473 144.128 223.589 143.524 223.821 143.02C224.061 142.516 224.393 142.128 224.817 141.856C225.249 141.584 225.749 141.448 226.317 141.448ZM226.305 142.312C225.801 142.312 225.401 142.476 225.105 142.804C224.817 143.124 224.645 143.572 224.589 144.148H227.865C227.857 143.604 227.729 143.164 227.481 142.828C227.233 142.484 226.841 142.312 226.305 142.312ZM233.042 141.46C233.826 141.46 234.406 141.632 234.782 141.976C235.158 142.32 235.346 142.868 235.346 143.62V148H234.578L234.374 147.088H234.326C234.046 147.44 233.75 147.7 233.438 147.868C233.126 148.036 232.702 148.12 232.166 148.12C231.582 148.12 231.098 147.968 230.714 147.664C230.33 147.352 230.138 146.868 230.138 146.212C230.138 145.572 230.39 145.08 230.894 144.736C231.398 144.384 232.174 144.192 233.222 144.16L234.314 144.124V143.74C234.314 143.204 234.198 142.832 233.966 142.624C233.734 142.416 233.406 142.312 232.982 142.312C232.646 142.312 232.326 142.364 232.022 142.468C231.718 142.564 231.434 142.676 231.17 142.804L230.846 142.012C231.126 141.86 231.458 141.732 231.842 141.628C232.226 141.516 232.626 141.46 233.042 141.46ZM234.302 144.856L233.354 144.892C232.554 144.924 231.998 145.052 231.686 145.276C231.382 145.5 231.23 145.816 231.23 146.224C231.23 146.584 231.338 146.848 231.554 147.016C231.778 147.184 232.062 147.268 232.406 147.268C232.942 147.268 233.39 147.12 233.75 146.824C234.118 146.52 234.302 146.056 234.302 145.432V144.856ZM241.521 146.224C241.521 146.848 241.289 147.32 240.825 147.64C240.361 147.96 239.737 148.12 238.953 148.12C238.505 148.12 238.117 148.084 237.789 148.012C237.469 147.94 237.185 147.84 236.937 147.712V146.752C237.193 146.88 237.501 147 237.861 147.112C238.229 147.216 238.601 147.268 238.977 147.268C239.513 147.268 239.901 147.184 240.141 147.016C240.381 146.84 240.501 146.608 240.501 146.32C240.501 146.16 240.457 146.016 240.369 145.888C240.281 145.76 240.121 145.632 239.889 145.504C239.665 145.376 239.341 145.232 238.917 145.072C238.501 144.912 238.145 144.752 237.849 144.592C237.553 144.432 237.325 144.24 237.165 144.016C237.005 143.792 236.925 143.504 236.925 143.152C236.925 142.608 237.145 142.188 237.585 141.892C238.033 141.596 238.617 141.448 239.337 141.448C239.729 141.448 240.093 141.488 240.429 141.568C240.773 141.648 241.093 141.752 241.389 141.88L241.029 142.72C240.757 142.608 240.473 142.512 240.177 142.432C239.881 142.352 239.577 142.312 239.265 142.312C238.833 142.312 238.501 142.384 238.269 142.528C238.045 142.664 237.933 142.852 237.933 143.092C237.933 143.276 237.985 143.428 238.089 143.548C238.193 143.668 238.365 143.788 238.605 143.908C238.853 144.028 239.181 144.164 239.589 144.316C239.997 144.468 240.345 144.624 240.633 144.784C240.921 144.944 241.141 145.14 241.293 145.372C241.445 145.596 241.521 145.88 241.521 146.224ZM245.223 147.256C245.383 147.256 245.547 147.244 245.715 147.22C245.883 147.196 246.019 147.164 246.123 147.124V147.928C246.011 147.984 245.851 148.028 245.643 148.06C245.435 148.1 245.235 148.12 245.043 148.12C244.707 148.12 244.395 148.064 244.107 147.952C243.827 147.832 243.599 147.628 243.423 147.34C243.247 147.052 243.159 146.648 243.159 146.128V142.384H242.247V141.88L243.171 141.46L243.591 140.092H244.215V141.568H246.075V142.384H244.215V146.104C244.215 146.496 244.307 146.788 244.491 146.98C244.683 147.164 244.927 147.256 245.223 147.256ZM252.928 139.312C253.68 139.312 254.296 139.488 254.776 139.84C255.256 140.192 255.496 140.7 255.496 141.364C255.496 141.708 255.42 142.008 255.268 142.264C255.124 142.52 254.928 142.748 254.68 142.948C254.432 143.14 254.16 143.312 253.864 143.464C254.216 143.64 254.536 143.832 254.824 144.04C255.112 144.248 255.34 144.492 255.508 144.772C255.684 145.052 255.772 145.388 255.772 145.78C255.772 146.5 255.516 147.072 255.004 147.496C254.492 147.912 253.812 148.12 252.964 148.12C252.036 148.12 251.324 147.92 250.828 147.52C250.34 147.112 250.096 146.544 250.096 145.816C250.096 145.432 250.176 145.096 250.336 144.808C250.504 144.512 250.724 144.26 250.996 144.052C251.268 143.844 251.56 143.668 251.872 143.524C251.448 143.284 251.092 142.996 250.804 142.66C250.516 142.316 250.372 141.88 250.372 141.352C250.372 140.92 250.484 140.552 250.708 140.248C250.932 139.944 251.236 139.712 251.62 139.552C252.004 139.392 252.44 139.312 252.928 139.312ZM252.916 140.164C252.468 140.164 252.104 140.272 251.824 140.488C251.544 140.696 251.404 141 251.404 141.4C251.404 141.696 251.472 141.944 251.608 142.144C251.752 142.344 251.944 142.516 252.184 142.66C252.424 142.796 252.688 142.928 252.976 143.056C253.392 142.88 253.74 142.668 254.02 142.42C254.308 142.172 254.452 141.832 254.452 141.4C254.452 141 254.312 140.696 254.032 140.488C253.752 140.272 253.38 140.164 252.916 140.164ZM251.128 145.828C251.128 146.244 251.276 146.592 251.572 146.872C251.868 147.144 252.324 147.28 252.94 147.28C253.524 147.28 253.968 147.144 254.272 146.872C254.584 146.592 254.74 146.232 254.74 145.792C254.74 145.376 254.576 145.032 254.248 144.76C253.92 144.48 253.484 144.236 252.94 144.028L252.748 143.956C252.22 144.188 251.816 144.448 251.536 144.736C251.264 145.024 251.128 145.388 251.128 145.828ZM263.092 148.12C262.516 148.12 262.008 148.004 261.568 147.772C261.128 147.54 260.78 147.18 260.524 146.692C260.276 146.204 260.152 145.58 260.152 144.82C260.152 144.028 260.28 143.384 260.536 142.888C260.8 142.392 261.16 142.028 261.616 141.796C262.072 141.564 262.588 141.448 263.164 141.448C263.484 141.448 263.796 141.484 264.1 141.556C264.412 141.62 264.664 141.7 264.856 141.796L264.532 142.672C264.34 142.6 264.116 142.532 263.86 142.468C263.604 142.404 263.364 142.372 263.14 142.372C261.876 142.372 261.244 143.184 261.244 144.808C261.244 145.584 261.396 146.18 261.7 146.596C262.012 147.004 262.472 147.208 263.08 147.208C263.424 147.208 263.732 147.172 264.004 147.1C264.276 147.028 264.524 146.94 264.748 146.836V147.772C264.532 147.884 264.292 147.968 264.028 148.024C263.772 148.088 263.46 148.12 263.092 148.12ZM267.334 138.88V141.556C267.334 141.876 267.314 142.176 267.274 142.456H267.346C267.554 142.128 267.834 141.88 268.186 141.712C268.546 141.544 268.934 141.46 269.35 141.46C270.126 141.46 270.71 141.648 271.102 142.024C271.502 142.392 271.702 142.988 271.702 143.812V148H270.658V143.884C270.658 142.852 270.178 142.336 269.218 142.336C268.498 142.336 268.002 142.54 267.73 142.948C267.466 143.348 267.334 143.924 267.334 144.676V148H266.278V138.88H267.334ZM276.132 141.46C276.916 141.46 277.496 141.632 277.872 141.976C278.248 142.32 278.436 142.868 278.436 143.62V148H277.668L277.464 147.088H277.416C277.136 147.44 276.84 147.7 276.528 147.868C276.216 148.036 275.792 148.12 275.256 148.12C274.672 148.12 274.188 147.968 273.804 147.664C273.42 147.352 273.228 146.868 273.228 146.212C273.228 145.572 273.48 145.08 273.984 144.736C274.488 144.384 275.264 144.192 276.312 144.16L277.404 144.124V143.74C277.404 143.204 277.288 142.832 277.056 142.624C276.824 142.416 276.496 142.312 276.072 142.312C275.736 142.312 275.416 142.364 275.112 142.468C274.808 142.564 274.524 142.676 274.26 142.804L273.936 142.012C274.216 141.86 274.548 141.732 274.932 141.628C275.316 141.516 275.716 141.46 276.132 141.46ZM277.392 144.856L276.444 144.892C275.644 144.924 275.088 145.052 274.776 145.276C274.472 145.5 274.32 145.816 274.32 146.224C274.32 146.584 274.428 146.848 274.644 147.016C274.868 147.184 275.152 147.268 275.496 147.268C276.032 147.268 276.48 147.12 276.84 146.824C277.208 146.52 277.392 146.056 277.392 145.432V144.856ZM283.422 141.448C283.542 141.448 283.67 141.456 283.806 141.472C283.942 141.48 284.066 141.496 284.178 141.52L284.046 142.492C283.942 142.468 283.826 142.448 283.698 142.432C283.57 142.416 283.454 142.408 283.35 142.408C283.022 142.408 282.714 142.5 282.426 142.684C282.138 142.86 281.906 143.112 281.73 143.44C281.562 143.76 281.478 144.136 281.478 144.568V148H280.422V141.568H281.286L281.406 142.744H281.454C281.654 142.392 281.918 142.088 282.246 141.832C282.582 141.576 282.974 141.448 283.422 141.448ZM287.581 141.46C288.365 141.46 288.945 141.632 289.321 141.976C289.697 142.32 289.885 142.868 289.885 143.62V148H289.117L288.913 147.088H288.865C288.585 147.44 288.289 147.7 287.977 147.868C287.665 148.036 287.241 148.12 286.705 148.12C286.121 148.12 285.637 147.968 285.253 147.664C284.869 147.352 284.677 146.868 284.677 146.212C284.677 145.572 284.929 145.08 285.433 144.736C285.937 144.384 286.713 144.192 287.761 144.16L288.853 144.124V143.74C288.853 143.204 288.737 142.832 288.505 142.624C288.273 142.416 287.945 142.312 287.521 142.312C287.185 142.312 286.865 142.364 286.561 142.468C286.257 142.564 285.973 142.676 285.709 142.804L285.385 142.012C285.665 141.86 285.997 141.732 286.381 141.628C286.765 141.516 287.165 141.46 287.581 141.46ZM288.841 144.856L287.893 144.892C287.093 144.924 286.537 145.052 286.225 145.276C285.921 145.5 285.769 145.816 285.769 146.224C285.769 146.584 285.877 146.848 286.093 147.016C286.317 147.184 286.601 147.268 286.945 147.268C287.481 147.268 287.929 147.12 288.289 146.824C288.657 146.52 288.841 146.056 288.841 145.432V144.856ZM294.452 148.12C293.876 148.12 293.368 148.004 292.928 147.772C292.488 147.54 292.14 147.18 291.884 146.692C291.636 146.204 291.512 145.58 291.512 144.82C291.512 144.028 291.64 143.384 291.896 142.888C292.16 142.392 292.52 142.028 292.976 141.796C293.432 141.564 293.948 141.448 294.524 141.448C294.844 141.448 295.156 141.484 295.46 141.556C295.772 141.62 296.024 141.7 296.216 141.796L295.892 142.672C295.7 142.6 295.476 142.532 295.22 142.468C294.964 142.404 294.724 142.372 294.5 142.372C293.236 142.372 292.604 143.184 292.604 144.808C292.604 145.584 292.756 146.18 293.06 146.596C293.372 147.004 293.832 147.208 294.44 147.208C294.784 147.208 295.092 147.172 295.364 147.1C295.636 147.028 295.884 146.94 296.108 146.836V147.772C295.892 147.884 295.652 147.968 295.388 148.024C295.132 148.088 294.82 148.12 294.452 148.12ZM299.785 147.256C299.945 147.256 300.109 147.244 300.277 147.22C300.445 147.196 300.581 147.164 300.685 147.124V147.928C300.573 147.984 300.413 148.028 300.205 148.06C299.997 148.1 299.797 148.12 299.605 148.12C299.269 148.12 298.957 148.064 298.669 147.952C298.389 147.832 298.161 147.628 297.985 147.34C297.809 147.052 297.721 146.648 297.721 146.128V142.384H296.809V141.88L297.733 141.46L298.153 140.092H298.777V141.568H300.637V142.384H298.777V146.104C298.777 146.496 298.869 146.788 299.053 146.98C299.245 147.164 299.489 147.256 299.785 147.256ZM304.457 141.448C305.001 141.448 305.473 141.568 305.873 141.808C306.273 142.048 306.577 142.388 306.785 142.828C307.001 143.26 307.109 143.768 307.109 144.352V144.988H302.705C302.721 145.716 302.905 146.272 303.257 146.656C303.617 147.032 304.117 147.22 304.757 147.22C305.165 147.22 305.525 147.184 305.837 147.112C306.157 147.032 306.485 146.92 306.821 146.776V147.7C306.493 147.844 306.169 147.948 305.849 148.012C305.529 148.084 305.149 148.12 304.709 148.12C304.093 148.12 303.553 147.996 303.089 147.748C302.625 147.5 302.261 147.132 301.997 146.644C301.741 146.156 301.613 145.552 301.613 144.832C301.613 144.128 301.729 143.524 301.961 143.02C302.201 142.516 302.533 142.128 302.957 141.856C303.389 141.584 303.889 141.448 304.457 141.448ZM304.445 142.312C303.941 142.312 303.541 142.476 303.245 142.804C302.957 143.124 302.785 143.572 302.729 144.148H306.005C305.997 143.604 305.869 143.164 305.621 142.828C305.373 142.484 304.981 142.312 304.445 142.312ZM311.747 141.448C311.867 141.448 311.995 141.456 312.131 141.472C312.267 141.48 312.391 141.496 312.503 141.52L312.371 142.492C312.267 142.468 312.151 142.448 312.023 142.432C311.895 142.416 311.779 142.408 311.675 142.408C311.347 142.408 311.039 142.5 310.751 142.684C310.463 142.86 310.231 143.112 310.055 143.44C309.887 143.76 309.803 144.136 309.803 144.568V148H308.747V141.568H309.611L309.731 142.744H309.779C309.979 142.392 310.243 142.088 310.571 141.832C310.907 141.576 311.299 141.448 311.747 141.448ZM317.892 146.224C317.892 146.848 317.66 147.32 317.196 147.64C316.732 147.96 316.108 148.12 315.324 148.12C314.876 148.12 314.488 148.084 314.16 148.012C313.84 147.94 313.556 147.84 313.308 147.712V146.752C313.564 146.88 313.872 147 314.232 147.112C314.6 147.216 314.972 147.268 315.348 147.268C315.884 147.268 316.272 147.184 316.512 147.016C316.752 146.84 316.872 146.608 316.872 146.32C316.872 146.16 316.828 146.016 316.74 145.888C316.652 145.76 316.492 145.632 316.26 145.504C316.036 145.376 315.712 145.232 315.288 145.072C314.872 144.912 314.516 144.752 314.22 144.592C313.924 144.432 313.696 144.24 313.536 144.016C313.376 143.792 313.296 143.504 313.296 143.152C313.296 142.608 313.516 142.188 313.956 141.892C314.404 141.596 314.988 141.448 315.708 141.448C316.1 141.448 316.464 141.488 316.8 141.568C317.144 141.648 317.464 141.752 317.76 141.88L317.4 142.72C317.128 142.608 316.844 142.512 316.548 142.432C316.252 142.352 315.948 142.312 315.636 142.312C315.204 142.312 314.872 142.384 314.64 142.528C314.416 142.664 314.304 142.852 314.304 143.092C314.304 143.276 314.356 143.428 314.46 143.548C314.564 143.668 314.736 143.788 314.976 143.908C315.224 144.028 315.552 144.164 315.96 144.316C316.368 144.468 316.716 144.624 317.004 144.784C317.292 144.944 317.512 145.14 317.664 145.372C317.816 145.596 317.892 145.88 317.892 146.224Z" fill="#5E5E5E"/>
<rect x="325" y="83" width="1" height="32" fill="#1B77AF"/>
</svg>
