<svg width="412" height="214" viewBox="0 0 412 214" fill="none" xmlns="http://www.w3.org/2000/svg">
<rect width="412" height="214" fill="white"/>
<path d="M49.432 44.432C50.552 44.432 51.368 44.652 51.88 45.092C52.392 45.532 52.648 46.152 52.648 46.952C52.648 47.424 52.54 47.868 52.324 48.284C52.116 48.692 51.76 49.024 51.256 49.28C50.76 49.536 50.084 49.664 49.228 49.664H48.244V53H47.164V44.432H49.432ZM49.336 45.356H48.244V48.74H49.108C49.924 48.74 50.532 48.608 50.932 48.344C51.332 48.08 51.532 47.632 51.532 47C51.532 46.448 51.352 46.036 50.992 45.764C50.64 45.492 50.088 45.356 49.336 45.356ZM56.7216 46.46C57.5056 46.46 58.0856 46.632 58.4616 46.976C58.8376 47.32 59.0256 47.868 59.0256 48.62V53H58.2576L58.0536 52.088H58.0056C57.7256 52.44 57.4296 52.7 57.1176 52.868C56.8056 53.036 56.3816 53.12 55.8456 53.12C55.2616 53.12 54.7776 52.968 54.3936 52.664C54.0096 52.352 53.8176 51.868 53.8176 51.212C53.8176 50.572 54.0696 50.08 54.5736 49.736C55.0776 49.384 55.8536 49.192 56.9016 49.16L57.9936 49.124V48.74C57.9936 48.204 57.8776 47.832 57.6456 47.624C57.4136 47.416 57.0856 47.312 56.6616 47.312C56.3256 47.312 56.0056 47.364 55.7016 47.468C55.3976 47.564 55.1136 47.676 54.8496 47.804L54.5256 47.012C54.8056 46.86 55.1376 46.732 55.5216 46.628C55.9056 46.516 56.3056 46.46 56.7216 46.46ZM57.9816 49.856L57.0336 49.892C56.2336 49.924 55.6776 50.052 55.3656 50.276C55.0616 50.5 54.9096 50.816 54.9096 51.224C54.9096 51.584 55.0176 51.848 55.2336 52.016C55.4576 52.184 55.7416 52.268 56.0856 52.268C56.6216 52.268 57.0696 52.12 57.4296 51.824C57.7976 51.52 57.9816 51.056 57.9816 50.432V49.856ZM65.2002 51.224C65.2002 51.848 64.9682 52.32 64.5042 52.64C64.0402 52.96 63.4162 53.12 62.6322 53.12C62.1842 53.12 61.7962 53.084 61.4682 53.012C61.1482 52.94 60.8642 52.84 60.6162 52.712V51.752C60.8722 51.88 61.1802 52 61.5402 52.112C61.9082 52.216 62.2802 52.268 62.6562 52.268C63.1922 52.268 63.5802 52.184 63.8202 52.016C64.0602 51.84 64.1802 51.608 64.1802 51.32C64.1802 51.16 64.1362 51.016 64.0482 50.888C63.9602 50.76 63.8002 50.632 63.5682 50.504C63.3442 50.376 63.0202 50.232 62.5962 50.072C62.1802 49.912 61.8242 49.752 61.5282 49.592C61.2322 49.432 61.0042 49.24 60.8442 49.016C60.6842 48.792 60.6042 48.504 60.6042 48.152C60.6042 47.608 60.8242 47.188 61.2642 46.892C61.7122 46.596 62.2962 46.448 63.0162 46.448C63.4082 46.448 63.7722 46.488 64.1082 46.568C64.4522 46.648 64.7722 46.752 65.0682 46.88L64.7082 47.72C64.4362 47.608 64.1522 47.512 63.8562 47.432C63.5602 47.352 63.2562 47.312 62.9442 47.312C62.5122 47.312 62.1802 47.384 61.9482 47.528C61.7242 47.664 61.6122 47.852 61.6122 48.092C61.6122 48.276 61.6642 48.428 61.7682 48.548C61.8722 48.668 62.0442 48.788 62.2842 48.908C62.5322 49.028 62.8602 49.164 63.2682 49.316C63.6762 49.468 64.0242 49.624 64.3122 49.784C64.6002 49.944 64.8202 50.14 64.9722 50.372C65.1242 50.596 65.2002 50.88 65.2002 51.224ZM70.9424 51.224C70.9424 51.848 70.7104 52.32 70.2464 52.64C69.7824 52.96 69.1584 53.12 68.3744 53.12C67.9264 53.12 67.5384 53.084 67.2104 53.012C66.8904 52.94 66.6064 52.84 66.3584 52.712V51.752C66.6144 51.88 66.9224 52 67.2824 52.112C67.6504 52.216 68.0224 52.268 68.3984 52.268C68.9344 52.268 69.3224 52.184 69.5624 52.016C69.8024 51.84 69.9224 51.608 69.9224 51.32C69.9224 51.16 69.8784 51.016 69.7904 50.888C69.7024 50.76 69.5424 50.632 69.3104 50.504C69.0864 50.376 68.7624 50.232 68.3384 50.072C67.9224 49.912 67.5664 49.752 67.2704 49.592C66.9744 49.432 66.7464 49.24 66.5864 49.016C66.4264 48.792 66.3464 48.504 66.3464 48.152C66.3464 47.608 66.5664 47.188 67.0064 46.892C67.4544 46.596 68.0384 46.448 68.7584 46.448C69.1504 46.448 69.5144 46.488 69.8504 46.568C70.1944 46.648 70.5144 46.752 70.8104 46.88L70.4504 47.72C70.1784 47.608 69.8944 47.512 69.5984 47.432C69.3024 47.352 68.9984 47.312 68.6864 47.312C68.2544 47.312 67.9224 47.384 67.6904 47.528C67.4664 47.664 67.3544 47.852 67.3544 48.092C67.3544 48.276 67.4064 48.428 67.5104 48.548C67.6144 48.668 67.7864 48.788 68.0264 48.908C68.2744 49.028 68.6024 49.164 69.0104 49.316C69.4184 49.468 69.7664 49.624 70.0544 49.784C70.3424 49.944 70.5624 50.14 70.7144 50.372C70.8664 50.596 70.9424 50.88 70.9424 51.224ZM77.7526 52.988L76.6486 49.364C76.5446 49.036 76.4526 48.716 76.3726 48.404C76.2926 48.092 76.2366 47.844 76.2046 47.66H76.1566C76.1246 47.844 76.0726 48.092 76.0006 48.404C75.9286 48.716 75.8366 49.04 75.7246 49.376L74.5726 52.988H73.3726L71.6086 46.556H72.7006L73.5886 49.988C73.6766 50.332 73.7606 50.68 73.8406 51.032C73.9206 51.384 73.9766 51.676 74.0086 51.908H74.0566C74.0806 51.772 74.1166 51.604 74.1646 51.404C74.2126 51.204 74.2646 50.996 74.3206 50.78C74.3766 50.556 74.4326 50.356 74.4886 50.18L75.6286 46.556H76.7806L77.8846 50.18C77.9646 50.46 78.0486 50.76 78.1366 51.08C78.2246 51.4 78.2846 51.672 78.3166 51.896H78.3646C78.3886 51.696 78.4406 51.42 78.5206 51.068C78.6086 50.716 78.7006 50.356 78.7966 49.988L79.6966 46.556H80.7766L78.9886 52.988H77.7526ZM87.5222 49.772C87.5222 50.836 87.2502 51.66 86.7062 52.244C86.1702 52.828 85.4422 53.12 84.5222 53.12C83.9542 53.12 83.4462 52.992 82.9982 52.736C82.5582 52.472 82.2102 52.092 81.9542 51.596C81.6982 51.092 81.5702 50.484 81.5702 49.772C81.5702 48.708 81.8342 47.888 82.3622 47.312C82.8982 46.736 83.6302 46.448 84.5582 46.448C85.1342 46.448 85.6462 46.58 86.0942 46.844C86.5422 47.1 86.8902 47.476 87.1382 47.972C87.3942 48.46 87.5222 49.06 87.5222 49.772ZM82.6622 49.772C82.6622 50.532 82.8102 51.136 83.1062 51.584C83.4102 52.024 83.8902 52.244 84.5462 52.244C85.1942 52.244 85.6702 52.024 85.9742 51.584C86.2782 51.136 86.4302 50.532 86.4302 49.772C86.4302 49.012 86.2782 48.416 85.9742 47.984C85.6702 47.552 85.1902 47.336 84.5342 47.336C83.8782 47.336 83.4022 47.552 83.1062 47.984C82.8102 48.416 82.6622 49.012 82.6622 49.772ZM92.1958 46.448C92.3158 46.448 92.4438 46.456 92.5798 46.472C92.7158 46.48 92.8398 46.496 92.9518 46.52L92.8198 47.492C92.7158 47.468 92.5998 47.448 92.4718 47.432C92.3438 47.416 92.2278 47.408 92.1238 47.408C91.7958 47.408 91.4878 47.5 91.1998 47.684C90.9118 47.86 90.6798 48.112 90.5038 48.44C90.3358 48.76 90.2518 49.136 90.2518 49.568V53H89.1958V46.568H90.0598L90.1798 47.744H90.2278C90.4278 47.392 90.6918 47.088 91.0198 46.832C91.3558 46.576 91.7478 46.448 92.1958 46.448ZM96.1984 53.12C95.3984 53.12 94.7584 52.844 94.2784 52.292C93.7984 51.732 93.5584 50.9 93.5584 49.796C93.5584 48.692 93.7984 47.86 94.2784 47.3C94.7664 46.732 95.4104 46.448 96.2104 46.448C96.7064 46.448 97.1104 46.54 97.4224 46.724C97.7424 46.908 98.0024 47.132 98.2024 47.396H98.2744C98.2584 47.292 98.2424 47.14 98.2264 46.94C98.2104 46.732 98.2024 46.568 98.2024 46.448V43.88H99.2584V53H98.4064L98.2504 52.136H98.2024C98.0104 52.408 97.7544 52.64 97.4344 52.832C97.1144 53.024 96.7024 53.12 96.1984 53.12ZM96.3664 52.244C97.0464 52.244 97.5224 52.06 97.7944 51.692C98.0744 51.316 98.2144 50.752 98.2144 50V49.808C98.2144 49.008 98.0824 48.396 97.8184 47.972C97.5544 47.54 97.0664 47.324 96.3544 47.324C95.7864 47.324 95.3584 47.552 95.0704 48.008C94.7904 48.456 94.6504 49.06 94.6504 49.82C94.6504 50.588 94.7904 51.184 95.0704 51.608C95.3584 52.032 95.7904 52.244 96.3664 52.244Z" fill="#323232"/>
<rect x="47" y="61" width="318" height="30" rx="1" fill="white"/>
<path d="M60.868 71.88H61.744V83.892H60.868V71.88Z" fill="black"/>
<path d="M346 72C342.2 72 339 75.05 339 76.2C339 77.35 342.2 80.4 346 80.4C349.8 80.4 353 77.35 353 76.2C353 75.05 349.8 72 346 72ZM346 79.65C342.4 79.65 339.75 76.75 339.75 76.2C339.75 75.65 342.4 72.75 346 72.75C349.45 72.75 352.25 75.5 352.25 76.2C352.25 76.9 349.45 79.65 346 79.65Z" fill="#323232"/>
<path d="M346 73.6C344.55 73.6 343.4 74.8 343.4 76.2C343.4 77.6 344.55 78.8 346 78.8C347.45 78.8 348.6 77.6 348.6 76.2C348.6 74.8 347.45 73.6 346 73.6ZM346 78.05C344.95 78.05 344.15 77.2 344.15 76.2C344.15 75.2 345 74.35 346 74.35C347 74.35 347.85 75.2 347.85 76.2C347.85 77.2 347.05 78.05 346 78.05Z" fill="#323232"/>
<rect x="47" y="61" width="318" height="30" rx="1" stroke="#1B77AF" stroke-width="2"/>
<path d="M74.836 115.26C73.916 115.26 73.192 115.568 72.664 116.184C72.136 116.8 71.872 117.644 71.872 118.716C71.872 119.78 72.116 120.624 72.604 121.248C73.1 121.864 73.84 122.172 74.824 122.172C75.192 122.172 75.544 122.14 75.88 122.076C76.216 122.012 76.548 121.932 76.876 121.836V122.772C76.556 122.892 76.224 122.98 75.88 123.036C75.544 123.092 75.14 123.12 74.668 123.12C73.796 123.12 73.068 122.94 72.484 122.58C71.9 122.22 71.46 121.708 71.164 121.044C70.876 120.38 70.732 119.6 70.732 118.704C70.732 117.84 70.888 117.08 71.2 116.424C71.52 115.76 71.988 115.244 72.604 114.876C73.22 114.5 73.968 114.312 74.848 114.312C75.752 114.312 76.54 114.48 77.212 114.816L76.78 115.728C76.516 115.608 76.22 115.5 75.892 115.404C75.572 115.308 75.22 115.26 74.836 115.26ZM84.194 119.772C84.194 120.836 83.922 121.66 83.378 122.244C82.842 122.828 82.114 123.12 81.194 123.12C80.626 123.12 80.118 122.992 79.67 122.736C79.23 122.472 78.882 122.092 78.626 121.596C78.37 121.092 78.242 120.484 78.242 119.772C78.242 118.708 78.506 117.888 79.034 117.312C79.57 116.736 80.302 116.448 81.23 116.448C81.806 116.448 82.318 116.58 82.766 116.844C83.214 117.1 83.562 117.476 83.81 117.972C84.066 118.46 84.194 119.06 84.194 119.772ZM79.334 119.772C79.334 120.532 79.482 121.136 79.778 121.584C80.082 122.024 80.562 122.244 81.218 122.244C81.866 122.244 82.342 122.024 82.646 121.584C82.95 121.136 83.102 120.532 83.102 119.772C83.102 119.012 82.95 118.416 82.646 117.984C82.342 117.552 81.862 117.336 81.206 117.336C80.55 117.336 80.074 117.552 79.778 117.984C79.482 118.416 79.334 119.012 79.334 119.772ZM88.9637 116.448C89.7317 116.448 90.3117 116.636 90.7037 117.012C91.0957 117.388 91.2917 117.988 91.2917 118.812V123H90.2477V118.884C90.2477 117.852 89.7677 117.336 88.8077 117.336C88.0957 117.336 87.6037 117.536 87.3317 117.936C87.0597 118.336 86.9237 118.912 86.9237 119.664V123H85.8677V116.568H86.7197L86.8757 117.444H86.9357C87.1437 117.108 87.4317 116.86 87.7997 116.7C88.1677 116.532 88.5557 116.448 88.9637 116.448ZM95.4336 122.256C95.5936 122.256 95.7576 122.244 95.9256 122.22C96.0936 122.196 96.2296 122.164 96.3336 122.124V122.928C96.2216 122.984 96.0616 123.028 95.8536 123.06C95.6456 123.1 95.4456 123.12 95.2536 123.12C94.9176 123.12 94.6056 123.064 94.3176 122.952C94.0376 122.832 93.8096 122.628 93.6336 122.34C93.4576 122.052 93.3696 121.648 93.3696 121.128V117.384H92.4576V116.88L93.3816 116.46L93.8016 115.092H94.4256V116.568H96.2856V117.384H94.4256V121.104C94.4256 121.496 94.5176 121.788 94.7016 121.98C94.8936 122.164 95.1376 122.256 95.4336 122.256ZM100.058 116.46C100.842 116.46 101.422 116.632 101.798 116.976C102.174 117.32 102.362 117.868 102.362 118.62V123H101.594L101.39 122.088H101.342C101.062 122.44 100.766 122.7 100.454 122.868C100.142 123.036 99.7176 123.12 99.1816 123.12C98.5976 123.12 98.1136 122.968 97.7296 122.664C97.3456 122.352 97.1536 121.868 97.1536 121.212C97.1536 120.572 97.4056 120.08 97.9096 119.736C98.4136 119.384 99.1896 119.192 100.238 119.16L101.33 119.124V118.74C101.33 118.204 101.214 117.832 100.982 117.624C100.75 117.416 100.422 117.312 99.9976 117.312C99.6616 117.312 99.3416 117.364 99.0376 117.468C98.7336 117.564 98.4496 117.676 98.1856 117.804L97.8616 117.012C98.1416 116.86 98.4736 116.732 98.8576 116.628C99.2416 116.516 99.6416 116.46 100.058 116.46ZM101.318 119.856L100.37 119.892C99.5696 119.924 99.0136 120.052 98.7016 120.276C98.3976 120.5 98.2456 120.816 98.2456 121.224C98.2456 121.584 98.3536 121.848 98.5696 122.016C98.7936 122.184 99.0776 122.268 99.4216 122.268C99.9576 122.268 100.406 122.12 100.766 121.824C101.134 121.52 101.318 121.056 101.318 120.432V119.856ZM104.888 114.156C105.048 114.156 105.188 114.212 105.308 114.324C105.436 114.428 105.5 114.596 105.5 114.828C105.5 115.06 105.436 115.232 105.308 115.344C105.188 115.448 105.048 115.5 104.888 115.5C104.712 115.5 104.564 115.448 104.444 115.344C104.324 115.232 104.264 115.06 104.264 114.828C104.264 114.596 104.324 114.428 104.444 114.324C104.564 114.212 104.712 114.156 104.888 114.156ZM105.404 116.568V123H104.348V116.568H105.404ZM110.538 116.448C111.306 116.448 111.886 116.636 112.278 117.012C112.67 117.388 112.866 117.988 112.866 118.812V123H111.822V118.884C111.822 117.852 111.342 117.336 110.382 117.336C109.67 117.336 109.178 117.536 108.906 117.936C108.634 118.336 108.498 118.912 108.498 119.664V123H107.442V116.568H108.294L108.45 117.444H108.51C108.718 117.108 109.006 116.86 109.374 116.7C109.742 116.532 110.13 116.448 110.538 116.448ZM120.413 116.46C121.197 116.46 121.777 116.632 122.153 116.976C122.529 117.32 122.717 117.868 122.717 118.62V123H121.949L121.745 122.088H121.697C121.417 122.44 121.121 122.7 120.809 122.868C120.497 123.036 120.073 123.12 119.537 123.12C118.953 123.12 118.469 122.968 118.085 122.664C117.701 122.352 117.509 121.868 117.509 121.212C117.509 120.572 117.761 120.08 118.265 119.736C118.769 119.384 119.545 119.192 120.593 119.16L121.685 119.124V118.74C121.685 118.204 121.569 117.832 121.337 117.624C121.105 117.416 120.777 117.312 120.353 117.312C120.017 117.312 119.697 117.364 119.393 117.468C119.089 117.564 118.805 117.676 118.541 117.804L118.217 117.012C118.497 116.86 118.829 116.732 119.213 116.628C119.597 116.516 119.997 116.46 120.413 116.46ZM121.673 119.856L120.725 119.892C119.925 119.924 119.369 120.052 119.057 120.276C118.753 120.5 118.601 120.816 118.601 121.224C118.601 121.584 118.709 121.848 118.925 122.016C119.149 122.184 119.433 122.268 119.777 122.268C120.313 122.268 120.761 122.12 121.121 121.824C121.489 121.52 121.673 121.056 121.673 120.432V119.856ZM126.852 122.256C127.012 122.256 127.176 122.244 127.344 122.22C127.512 122.196 127.648 122.164 127.752 122.124V122.928C127.64 122.984 127.48 123.028 127.272 123.06C127.064 123.1 126.864 123.12 126.672 123.12C126.336 123.12 126.024 123.064 125.736 122.952C125.456 122.832 125.228 122.628 125.052 122.34C124.876 122.052 124.788 121.648 124.788 121.128V117.384H123.876V116.88L124.8 116.46L125.22 115.092H125.844V116.568H127.704V117.384H125.844V121.104C125.844 121.496 125.936 121.788 126.12 121.98C126.312 122.164 126.556 122.256 126.852 122.256ZM133.213 123H132.157V113.88H133.213V123ZM137.734 116.448C138.278 116.448 138.75 116.568 139.15 116.808C139.55 117.048 139.854 117.388 140.062 117.828C140.278 118.26 140.386 118.768 140.386 119.352V119.988H135.982C135.998 120.716 136.182 121.272 136.534 121.656C136.894 122.032 137.394 122.22 138.034 122.22C138.442 122.22 138.802 122.184 139.114 122.112C139.434 122.032 139.762 121.92 140.098 121.776V122.7C139.77 122.844 139.446 122.948 139.126 123.012C138.806 123.084 138.426 123.12 137.986 123.12C137.37 123.12 136.83 122.996 136.366 122.748C135.902 122.5 135.538 122.132 135.274 121.644C135.018 121.156 134.89 120.552 134.89 119.832C134.89 119.128 135.006 118.524 135.238 118.02C135.478 117.516 135.81 117.128 136.234 116.856C136.666 116.584 137.166 116.448 137.734 116.448ZM137.722 117.312C137.218 117.312 136.818 117.476 136.522 117.804C136.234 118.124 136.062 118.572 136.006 119.148H139.282C139.274 118.604 139.146 118.164 138.898 117.828C138.65 117.484 138.258 117.312 137.722 117.312ZM144.46 116.46C145.244 116.46 145.824 116.632 146.2 116.976C146.576 117.32 146.764 117.868 146.764 118.62V123H145.996L145.792 122.088H145.744C145.464 122.44 145.168 122.7 144.856 122.868C144.544 123.036 144.12 123.12 143.584 123.12C143 123.12 142.516 122.968 142.132 122.664C141.748 122.352 141.556 121.868 141.556 121.212C141.556 120.572 141.808 120.08 142.312 119.736C142.816 119.384 143.592 119.192 144.64 119.16L145.732 119.124V118.74C145.732 118.204 145.616 117.832 145.384 117.624C145.152 117.416 144.824 117.312 144.4 117.312C144.064 117.312 143.744 117.364 143.44 117.468C143.136 117.564 142.852 117.676 142.588 117.804L142.264 117.012C142.544 116.86 142.876 116.732 143.26 116.628C143.644 116.516 144.044 116.46 144.46 116.46ZM145.72 119.856L144.772 119.892C143.972 119.924 143.416 120.052 143.104 120.276C142.8 120.5 142.648 120.816 142.648 121.224C142.648 121.584 142.756 121.848 142.972 122.016C143.196 122.184 143.48 122.268 143.824 122.268C144.36 122.268 144.808 122.12 145.168 121.824C145.536 121.52 145.72 121.056 145.72 120.432V119.856ZM152.938 121.224C152.938 121.848 152.706 122.32 152.242 122.64C151.778 122.96 151.154 123.12 150.37 123.12C149.922 123.12 149.534 123.084 149.206 123.012C148.886 122.94 148.602 122.84 148.354 122.712V121.752C148.61 121.88 148.918 122 149.278 122.112C149.646 122.216 150.018 122.268 150.394 122.268C150.93 122.268 151.318 122.184 151.558 122.016C151.798 121.84 151.918 121.608 151.918 121.32C151.918 121.16 151.874 121.016 151.786 120.888C151.698 120.76 151.538 120.632 151.306 120.504C151.082 120.376 150.758 120.232 150.334 120.072C149.918 119.912 149.562 119.752 149.266 119.592C148.97 119.432 148.742 119.24 148.582 119.016C148.422 118.792 148.342 118.504 148.342 118.152C148.342 117.608 148.562 117.188 149.002 116.892C149.45 116.596 150.034 116.448 150.754 116.448C151.146 116.448 151.51 116.488 151.846 116.568C152.19 116.648 152.51 116.752 152.806 116.88L152.446 117.72C152.174 117.608 151.89 117.512 151.594 117.432C151.298 117.352 150.994 117.312 150.682 117.312C150.25 117.312 149.918 117.384 149.686 117.528C149.462 117.664 149.35 117.852 149.35 118.092C149.35 118.276 149.402 118.428 149.506 118.548C149.61 118.668 149.782 118.788 150.022 118.908C150.27 119.028 150.598 119.164 151.006 119.316C151.414 119.468 151.762 119.624 152.05 119.784C152.338 119.944 152.558 120.14 152.71 120.372C152.862 120.596 152.938 120.88 152.938 121.224ZM156.641 122.256C156.801 122.256 156.965 122.244 157.133 122.22C157.301 122.196 157.437 122.164 157.541 122.124V122.928C157.429 122.984 157.269 123.028 157.061 123.06C156.853 123.1 156.653 123.12 156.461 123.12C156.125 123.12 155.813 123.064 155.525 122.952C155.245 122.832 155.017 122.628 154.841 122.34C154.665 122.052 154.577 121.648 154.577 121.128V117.384H153.665V116.88L154.589 116.46L155.009 115.092H155.633V116.568H157.493V117.384H155.633V121.104C155.633 121.496 155.725 121.788 155.909 121.98C156.101 122.164 156.345 122.256 156.641 122.256ZM165.186 123H164.154V117.012C164.154 116.668 164.158 116.392 164.166 116.184C164.174 115.976 164.186 115.76 164.202 115.536C164.074 115.664 163.954 115.772 163.842 115.86C163.738 115.948 163.61 116.06 163.458 116.196L162.546 116.94L161.994 116.232L164.31 114.432H165.186V123ZM177.306 116.568V123H176.442L176.286 122.148H176.238C176.03 122.484 175.742 122.732 175.374 122.892C175.006 123.044 174.614 123.12 174.198 123.12C173.422 123.12 172.838 122.936 172.446 122.568C172.054 122.192 171.858 121.596 171.858 120.78V116.568H172.926V120.708C172.926 121.732 173.402 122.244 174.354 122.244C175.066 122.244 175.558 122.044 175.83 121.644C176.11 121.244 176.25 120.668 176.25 119.916V116.568H177.306ZM182.408 116.448C183.2 116.448 183.836 116.724 184.316 117.276C184.804 117.828 185.048 118.66 185.048 119.772C185.048 120.868 184.804 121.7 184.316 122.268C183.836 122.836 183.196 123.12 182.396 123.12C181.9 123.12 181.488 123.028 181.16 122.844C180.84 122.66 180.588 122.44 180.404 122.184H180.332C180.34 122.32 180.352 122.492 180.368 122.7C180.392 122.908 180.404 123.088 180.404 123.24V125.88H179.348V116.568H180.212L180.356 117.444H180.404C180.596 117.164 180.848 116.928 181.16 116.736C181.472 116.544 181.888 116.448 182.408 116.448ZM182.216 117.336C181.56 117.336 181.096 117.52 180.824 117.888C180.552 118.256 180.412 118.816 180.404 119.568V119.772C180.404 120.564 180.532 121.176 180.788 121.608C181.052 122.032 181.536 122.244 182.24 122.244C182.624 122.244 182.944 122.14 183.2 121.932C183.456 121.716 183.644 121.42 183.764 121.044C183.892 120.668 183.956 120.24 183.956 119.76C183.956 119.024 183.812 118.436 183.524 117.996C183.244 117.556 182.808 117.336 182.216 117.336ZM189.791 116.448C190.583 116.448 191.219 116.724 191.699 117.276C192.187 117.828 192.431 118.66 192.431 119.772C192.431 120.868 192.187 121.7 191.699 122.268C191.219 122.836 190.579 123.12 189.779 123.12C189.283 123.12 188.871 123.028 188.543 122.844C188.223 122.66 187.971 122.44 187.787 122.184H187.715C187.723 122.32 187.735 122.492 187.751 122.7C187.775 122.908 187.787 123.088 187.787 123.24V125.88H186.731V116.568H187.595L187.739 117.444H187.787C187.979 117.164 188.231 116.928 188.543 116.736C188.855 116.544 189.271 116.448 189.791 116.448ZM189.599 117.336C188.943 117.336 188.479 117.52 188.207 117.888C187.935 118.256 187.795 118.816 187.787 119.568V119.772C187.787 120.564 187.915 121.176 188.171 121.608C188.435 122.032 188.919 122.244 189.623 122.244C190.007 122.244 190.327 122.14 190.583 121.932C190.839 121.716 191.027 121.42 191.147 121.044C191.275 120.668 191.339 120.24 191.339 119.76C191.339 119.024 191.195 118.436 190.907 117.996C190.627 117.556 190.191 117.336 189.599 117.336ZM196.598 116.448C197.142 116.448 197.614 116.568 198.014 116.808C198.414 117.048 198.718 117.388 198.926 117.828C199.142 118.26 199.25 118.768 199.25 119.352V119.988H194.846C194.862 120.716 195.046 121.272 195.398 121.656C195.758 122.032 196.258 122.22 196.898 122.22C197.306 122.22 197.666 122.184 197.978 122.112C198.298 122.032 198.626 121.92 198.962 121.776V122.7C198.634 122.844 198.31 122.948 197.99 123.012C197.67 123.084 197.29 123.12 196.85 123.12C196.234 123.12 195.694 122.996 195.23 122.748C194.766 122.5 194.402 122.132 194.138 121.644C193.882 121.156 193.754 120.552 193.754 119.832C193.754 119.128 193.87 118.524 194.102 118.02C194.342 117.516 194.674 117.128 195.098 116.856C195.53 116.584 196.03 116.448 196.598 116.448ZM196.586 117.312C196.082 117.312 195.682 117.476 195.386 117.804C195.098 118.124 194.926 118.572 194.87 119.148H198.146C198.138 118.604 198.01 118.164 197.762 117.828C197.514 117.484 197.122 117.312 196.586 117.312ZM203.887 116.448C204.007 116.448 204.135 116.456 204.271 116.472C204.407 116.48 204.531 116.496 204.643 116.52L204.511 117.492C204.407 117.468 204.291 117.448 204.163 117.432C204.035 117.416 203.919 117.408 203.815 117.408C203.487 117.408 203.179 117.5 202.891 117.684C202.603 117.86 202.371 118.112 202.195 118.44C202.027 118.76 201.943 119.136 201.943 119.568V123H200.887V116.568H201.751L201.871 117.744H201.919C202.119 117.392 202.383 117.088 202.711 116.832C203.047 116.576 203.439 116.448 203.887 116.448ZM208.19 123.12C207.614 123.12 207.106 123.004 206.666 122.772C206.226 122.54 205.878 122.18 205.622 121.692C205.374 121.204 205.25 120.58 205.25 119.82C205.25 119.028 205.378 118.384 205.634 117.888C205.898 117.392 206.258 117.028 206.714 116.796C207.17 116.564 207.686 116.448 208.262 116.448C208.582 116.448 208.894 116.484 209.198 116.556C209.51 116.62 209.762 116.7 209.954 116.796L209.63 117.672C209.438 117.6 209.214 117.532 208.958 117.468C208.702 117.404 208.462 117.372 208.238 117.372C206.974 117.372 206.342 118.184 206.342 119.808C206.342 120.584 206.494 121.18 206.798 121.596C207.11 122.004 207.57 122.208 208.178 122.208C208.522 122.208 208.83 122.172 209.102 122.1C209.374 122.028 209.622 121.94 209.846 121.836V122.772C209.63 122.884 209.39 122.968 209.126 123.024C208.87 123.088 208.558 123.12 208.19 123.12ZM213.811 116.46C214.595 116.46 215.175 116.632 215.551 116.976C215.927 117.32 216.115 117.868 216.115 118.62V123H215.347L215.143 122.088H215.095C214.815 122.44 214.519 122.7 214.207 122.868C213.895 123.036 213.471 123.12 212.935 123.12C212.351 123.12 211.867 122.968 211.483 122.664C211.099 122.352 210.907 121.868 210.907 121.212C210.907 120.572 211.159 120.08 211.663 119.736C212.167 119.384 212.943 119.192 213.991 119.16L215.083 119.124V118.74C215.083 118.204 214.967 117.832 214.735 117.624C214.503 117.416 214.175 117.312 213.751 117.312C213.415 117.312 213.095 117.364 212.791 117.468C212.487 117.564 212.203 117.676 211.939 117.804L211.615 117.012C211.895 116.86 212.227 116.732 212.611 116.628C212.995 116.516 213.395 116.46 213.811 116.46ZM215.071 119.856L214.123 119.892C213.323 119.924 212.767 120.052 212.455 120.276C212.151 120.5 211.999 120.816 211.999 121.224C211.999 121.584 212.107 121.848 212.323 122.016C212.547 122.184 212.831 122.268 213.175 122.268C213.711 122.268 214.159 122.12 214.519 121.824C214.887 121.52 215.071 121.056 215.071 120.432V119.856ZM222.29 121.224C222.29 121.848 222.058 122.32 221.594 122.64C221.13 122.96 220.506 123.12 219.722 123.12C219.274 123.12 218.886 123.084 218.558 123.012C218.238 122.94 217.954 122.84 217.706 122.712V121.752C217.962 121.88 218.27 122 218.63 122.112C218.998 122.216 219.37 122.268 219.746 122.268C220.282 122.268 220.67 122.184 220.91 122.016C221.15 121.84 221.27 121.608 221.27 121.32C221.27 121.16 221.226 121.016 221.138 120.888C221.05 120.76 220.89 120.632 220.658 120.504C220.434 120.376 220.11 120.232 219.686 120.072C219.27 119.912 218.914 119.752 218.618 119.592C218.322 119.432 218.094 119.24 217.934 119.016C217.774 118.792 217.694 118.504 217.694 118.152C217.694 117.608 217.914 117.188 218.354 116.892C218.802 116.596 219.386 116.448 220.106 116.448C220.498 116.448 220.862 116.488 221.198 116.568C221.542 116.648 221.862 116.752 222.158 116.88L221.798 117.72C221.526 117.608 221.242 117.512 220.946 117.432C220.65 117.352 220.346 117.312 220.034 117.312C219.602 117.312 219.27 117.384 219.038 117.528C218.814 117.664 218.702 117.852 218.702 118.092C218.702 118.276 218.754 118.428 218.858 118.548C218.962 118.668 219.134 118.788 219.374 118.908C219.622 119.028 219.95 119.164 220.358 119.316C220.766 119.468 221.114 119.624 221.402 119.784C221.69 119.944 221.91 120.14 222.062 120.372C222.214 120.596 222.29 120.88 222.29 121.224ZM226.328 116.448C226.872 116.448 227.344 116.568 227.744 116.808C228.144 117.048 228.448 117.388 228.656 117.828C228.872 118.26 228.98 118.768 228.98 119.352V119.988H224.576C224.592 120.716 224.776 121.272 225.128 121.656C225.488 122.032 225.988 122.22 226.628 122.22C227.036 122.22 227.396 122.184 227.708 122.112C228.028 122.032 228.356 121.92 228.692 121.776V122.7C228.364 122.844 228.04 122.948 227.72 123.012C227.4 123.084 227.02 123.12 226.58 123.12C225.964 123.12 225.424 122.996 224.96 122.748C224.496 122.5 224.132 122.132 223.868 121.644C223.612 121.156 223.484 120.552 223.484 119.832C223.484 119.128 223.6 118.524 223.832 118.02C224.072 117.516 224.404 117.128 224.828 116.856C225.26 116.584 225.76 116.448 226.328 116.448ZM226.316 117.312C225.812 117.312 225.412 117.476 225.116 117.804C224.828 118.124 224.656 118.572 224.6 119.148H227.876C227.868 118.604 227.74 118.164 227.492 117.828C227.244 117.484 226.852 117.312 226.316 117.312ZM234.791 123H233.735V113.88H234.791V123ZM239.313 116.448C239.857 116.448 240.329 116.568 240.729 116.808C241.129 117.048 241.433 117.388 241.641 117.828C241.857 118.26 241.965 118.768 241.965 119.352V119.988H237.561C237.577 120.716 237.761 121.272 238.113 121.656C238.473 122.032 238.973 122.22 239.613 122.22C240.021 122.22 240.381 122.184 240.693 122.112C241.013 122.032 241.341 121.92 241.677 121.776V122.7C241.349 122.844 241.025 122.948 240.705 123.012C240.385 123.084 240.005 123.12 239.565 123.12C238.949 123.12 238.409 122.996 237.945 122.748C237.481 122.5 237.117 122.132 236.853 121.644C236.597 121.156 236.469 120.552 236.469 119.832C236.469 119.128 236.585 118.524 236.817 118.02C237.057 117.516 237.389 117.128 237.813 116.856C238.245 116.584 238.745 116.448 239.313 116.448ZM239.301 117.312C238.797 117.312 238.397 117.476 238.101 117.804C237.813 118.124 237.641 118.572 237.585 119.148H240.861C240.853 118.604 240.725 118.164 240.477 117.828C240.229 117.484 239.837 117.312 239.301 117.312ZM245.75 122.256C245.91 122.256 246.074 122.244 246.242 122.22C246.41 122.196 246.546 122.164 246.65 122.124V122.928C246.538 122.984 246.378 123.028 246.17 123.06C245.962 123.1 245.762 123.12 245.57 123.12C245.234 123.12 244.922 123.064 244.634 122.952C244.354 122.832 244.126 122.628 243.95 122.34C243.774 122.052 243.686 121.648 243.686 121.128V117.384H242.774V116.88L243.698 116.46L244.118 115.092H244.742V116.568H246.602V117.384H244.742V121.104C244.742 121.496 244.834 121.788 245.018 121.98C245.21 122.164 245.454 122.256 245.75 122.256ZM250.086 122.256C250.246 122.256 250.41 122.244 250.578 122.22C250.746 122.196 250.882 122.164 250.986 122.124V122.928C250.874 122.984 250.714 123.028 250.506 123.06C250.298 123.1 250.098 123.12 249.906 123.12C249.57 123.12 249.258 123.064 248.97 122.952C248.69 122.832 248.462 122.628 248.286 122.34C248.11 122.052 248.022 121.648 248.022 121.128V117.384H247.11V116.88L248.034 116.46L248.454 115.092H249.078V116.568H250.938V117.384H249.078V121.104C249.078 121.496 249.17 121.788 249.354 121.98C249.546 122.164 249.79 122.256 250.086 122.256ZM254.758 116.448C255.302 116.448 255.774 116.568 256.174 116.808C256.574 117.048 256.878 117.388 257.086 117.828C257.302 118.26 257.41 118.768 257.41 119.352V119.988H253.006C253.022 120.716 253.206 121.272 253.558 121.656C253.918 122.032 254.418 122.22 255.058 122.22C255.466 122.22 255.826 122.184 256.138 122.112C256.458 122.032 256.786 121.92 257.122 121.776V122.7C256.794 122.844 256.47 122.948 256.15 123.012C255.83 123.084 255.45 123.12 255.01 123.12C254.394 123.12 253.854 122.996 253.39 122.748C252.926 122.5 252.562 122.132 252.298 121.644C252.042 121.156 251.914 120.552 251.914 119.832C251.914 119.128 252.03 118.524 252.262 118.02C252.502 117.516 252.834 117.128 253.258 116.856C253.69 116.584 254.19 116.448 254.758 116.448ZM254.746 117.312C254.242 117.312 253.842 117.476 253.546 117.804C253.258 118.124 253.086 118.572 253.03 119.148H256.306C256.298 118.604 256.17 118.164 255.922 117.828C255.674 117.484 255.282 117.312 254.746 117.312ZM262.047 116.448C262.167 116.448 262.295 116.456 262.431 116.472C262.567 116.48 262.691 116.496 262.803 116.52L262.671 117.492C262.567 117.468 262.451 117.448 262.323 117.432C262.195 117.416 262.079 117.408 261.975 117.408C261.647 117.408 261.339 117.5 261.051 117.684C260.763 117.86 260.531 118.112 260.355 118.44C260.187 118.76 260.103 119.136 260.103 119.568V123H259.047V116.568H259.911L260.031 117.744H260.079C260.279 117.392 260.543 117.088 260.871 116.832C261.207 116.576 261.599 116.448 262.047 116.448Z" fill="black"/>
<path d="M77.716 147H76.636V143.004H72.244V147H71.164V138.432H72.244V142.056H76.636V138.432H77.716V147ZM82.3505 140.46C83.1345 140.46 83.7145 140.632 84.0905 140.976C84.4665 141.32 84.6545 141.868 84.6545 142.62V147H83.8865L83.6825 146.088H83.6345C83.3545 146.44 83.0585 146.7 82.7465 146.868C82.4345 147.036 82.0105 147.12 81.4745 147.12C80.8905 147.12 80.4065 146.968 80.0225 146.664C79.6385 146.352 79.4465 145.868 79.4465 145.212C79.4465 144.572 79.6985 144.08 80.2025 143.736C80.7065 143.384 81.4825 143.192 82.5305 143.16L83.6225 143.124V142.74C83.6225 142.204 83.5065 141.832 83.2745 141.624C83.0425 141.416 82.7145 141.312 82.2905 141.312C81.9545 141.312 81.6345 141.364 81.3305 141.468C81.0265 141.564 80.7425 141.676 80.4785 141.804L80.1545 141.012C80.4345 140.86 80.7665 140.732 81.1505 140.628C81.5345 140.516 81.9345 140.46 82.3505 140.46ZM83.6105 143.856L82.6625 143.892C81.8625 143.924 81.3065 144.052 80.9945 144.276C80.6905 144.5 80.5385 144.816 80.5385 145.224C80.5385 145.584 80.6465 145.848 80.8625 146.016C81.0865 146.184 81.3705 146.268 81.7145 146.268C82.2505 146.268 82.6985 146.12 83.0585 145.824C83.4265 145.52 83.6105 145.056 83.6105 144.432V143.856ZM88.0571 147L85.6211 140.568H86.7491L88.1171 144.36C88.1811 144.536 88.2491 144.732 88.3211 144.948C88.3931 145.164 88.4571 145.372 88.5131 145.572C88.5691 145.772 88.6091 145.936 88.6331 146.064H88.6811C88.7051 145.936 88.7491 145.772 88.8131 145.572C88.8771 145.364 88.9451 145.156 89.0171 144.948C89.0891 144.732 89.1571 144.536 89.2211 144.36L90.5891 140.568H91.7171L89.2691 147H88.0571ZM95.2188 140.448C95.7628 140.448 96.2348 140.568 96.6348 140.808C97.0348 141.048 97.3388 141.388 97.5468 141.828C97.7628 142.26 97.8708 142.768 97.8708 143.352V143.988H93.4668C93.4828 144.716 93.6668 145.272 94.0188 145.656C94.3788 146.032 94.8788 146.22 95.5188 146.22C95.9268 146.22 96.2868 146.184 96.5988 146.112C96.9188 146.032 97.2468 145.92 97.5828 145.776V146.7C97.2548 146.844 96.9308 146.948 96.6108 147.012C96.2908 147.084 95.9108 147.12 95.4708 147.12C94.8548 147.12 94.3148 146.996 93.8508 146.748C93.3868 146.5 93.0228 146.132 92.7588 145.644C92.5028 145.156 92.3748 144.552 92.3748 143.832C92.3748 143.128 92.4908 142.524 92.7228 142.02C92.9628 141.516 93.2948 141.128 93.7188 140.856C94.1508 140.584 94.6508 140.448 95.2188 140.448ZM95.2068 141.312C94.7028 141.312 94.3028 141.476 94.0068 141.804C93.7188 142.124 93.5468 142.572 93.4908 143.148H96.7668C96.7588 142.604 96.6308 142.164 96.3828 141.828C96.1348 141.484 95.7428 141.312 95.2068 141.312ZM105.061 140.46C105.845 140.46 106.425 140.632 106.801 140.976C107.177 141.32 107.365 141.868 107.365 142.62V147H106.597L106.393 146.088H106.345C106.065 146.44 105.769 146.7 105.457 146.868C105.145 147.036 104.721 147.12 104.185 147.12C103.601 147.12 103.117 146.968 102.733 146.664C102.349 146.352 102.157 145.868 102.157 145.212C102.157 144.572 102.409 144.08 102.913 143.736C103.417 143.384 104.193 143.192 105.241 143.16L106.333 143.124V142.74C106.333 142.204 106.217 141.832 105.985 141.624C105.753 141.416 105.425 141.312 105.001 141.312C104.665 141.312 104.345 141.364 104.041 141.468C103.737 141.564 103.453 141.676 103.189 141.804L102.865 141.012C103.145 140.86 103.477 140.732 103.861 140.628C104.245 140.516 104.645 140.46 105.061 140.46ZM106.321 143.856L105.373 143.892C104.573 143.924 104.017 144.052 103.705 144.276C103.401 144.5 103.249 144.816 103.249 145.224C103.249 145.584 103.357 145.848 103.573 146.016C103.797 146.184 104.081 146.268 104.425 146.268C104.961 146.268 105.409 146.12 105.769 145.824C106.137 145.52 106.321 145.056 106.321 144.432V143.856ZM111.5 146.256C111.66 146.256 111.824 146.244 111.992 146.22C112.16 146.196 112.296 146.164 112.4 146.124V146.928C112.288 146.984 112.128 147.028 111.92 147.06C111.712 147.1 111.512 147.12 111.32 147.12C110.984 147.12 110.672 147.064 110.384 146.952C110.104 146.832 109.876 146.628 109.7 146.34C109.524 146.052 109.436 145.648 109.436 145.128V141.384H108.524V140.88L109.448 140.46L109.868 139.092H110.492V140.568H112.352V141.384H110.492V145.104C110.492 145.496 110.584 145.788 110.768 145.98C110.96 146.164 111.204 146.256 111.5 146.256ZM117.861 147H116.805V137.88H117.861V147ZM122.383 140.448C122.927 140.448 123.399 140.568 123.799 140.808C124.199 141.048 124.503 141.388 124.711 141.828C124.927 142.26 125.035 142.768 125.035 143.352V143.988H120.631C120.647 144.716 120.831 145.272 121.183 145.656C121.543 146.032 122.043 146.22 122.683 146.22C123.091 146.22 123.451 146.184 123.763 146.112C124.083 146.032 124.411 145.92 124.747 145.776V146.7C124.419 146.844 124.095 146.948 123.775 147.012C123.455 147.084 123.075 147.12 122.635 147.12C122.019 147.12 121.479 146.996 121.015 146.748C120.551 146.5 120.187 146.132 119.923 145.644C119.667 145.156 119.539 144.552 119.539 143.832C119.539 143.128 119.655 142.524 119.887 142.02C120.127 141.516 120.459 141.128 120.883 140.856C121.315 140.584 121.815 140.448 122.383 140.448ZM122.371 141.312C121.867 141.312 121.467 141.476 121.171 141.804C120.883 142.124 120.711 142.572 120.655 143.148H123.931C123.923 142.604 123.795 142.164 123.547 141.828C123.299 141.484 122.907 141.312 122.371 141.312ZM129.108 140.46C129.892 140.46 130.472 140.632 130.848 140.976C131.224 141.32 131.412 141.868 131.412 142.62V147H130.644L130.44 146.088H130.392C130.112 146.44 129.816 146.7 129.504 146.868C129.192 147.036 128.768 147.12 128.232 147.12C127.648 147.12 127.164 146.968 126.78 146.664C126.396 146.352 126.204 145.868 126.204 145.212C126.204 144.572 126.456 144.08 126.96 143.736C127.464 143.384 128.24 143.192 129.288 143.16L130.38 143.124V142.74C130.38 142.204 130.264 141.832 130.032 141.624C129.8 141.416 129.472 141.312 129.048 141.312C128.712 141.312 128.392 141.364 128.088 141.468C127.784 141.564 127.5 141.676 127.236 141.804L126.912 141.012C127.192 140.86 127.524 140.732 127.908 140.628C128.292 140.516 128.692 140.46 129.108 140.46ZM130.368 143.856L129.42 143.892C128.62 143.924 128.064 144.052 127.752 144.276C127.448 144.5 127.296 144.816 127.296 145.224C127.296 145.584 127.404 145.848 127.62 146.016C127.844 146.184 128.128 146.268 128.472 146.268C129.008 146.268 129.456 146.12 129.816 145.824C130.184 145.52 130.368 145.056 130.368 144.432V143.856ZM137.587 145.224C137.587 145.848 137.355 146.32 136.891 146.64C136.427 146.96 135.803 147.12 135.019 147.12C134.571 147.12 134.183 147.084 133.855 147.012C133.535 146.94 133.251 146.84 133.003 146.712V145.752C133.259 145.88 133.567 146 133.927 146.112C134.295 146.216 134.667 146.268 135.043 146.268C135.579 146.268 135.967 146.184 136.207 146.016C136.447 145.84 136.567 145.608 136.567 145.32C136.567 145.16 136.523 145.016 136.435 144.888C136.347 144.76 136.187 144.632 135.955 144.504C135.731 144.376 135.407 144.232 134.983 144.072C134.567 143.912 134.211 143.752 133.915 143.592C133.619 143.432 133.391 143.24 133.231 143.016C133.071 142.792 132.991 142.504 132.991 142.152C132.991 141.608 133.211 141.188 133.651 140.892C134.099 140.596 134.683 140.448 135.403 140.448C135.795 140.448 136.159 140.488 136.495 140.568C136.839 140.648 137.159 140.752 137.455 140.88L137.095 141.72C136.823 141.608 136.539 141.512 136.243 141.432C135.947 141.352 135.643 141.312 135.331 141.312C134.899 141.312 134.567 141.384 134.335 141.528C134.111 141.664 133.999 141.852 133.999 142.092C133.999 142.276 134.051 142.428 134.155 142.548C134.259 142.668 134.431 142.788 134.671 142.908C134.919 143.028 135.247 143.164 135.655 143.316C136.063 143.468 136.411 143.624 136.699 143.784C136.987 143.944 137.207 144.14 137.359 144.372C137.511 144.596 137.587 144.88 137.587 145.224ZM141.289 146.256C141.449 146.256 141.613 146.244 141.781 146.22C141.949 146.196 142.085 146.164 142.189 146.124V146.928C142.077 146.984 141.917 147.028 141.709 147.06C141.501 147.1 141.301 147.12 141.109 147.12C140.773 147.12 140.461 147.064 140.173 146.952C139.893 146.832 139.665 146.628 139.489 146.34C139.313 146.052 139.225 145.648 139.225 145.128V141.384H138.313V140.88L139.237 140.46L139.657 139.092H140.281V140.568H142.141V141.384H140.281V145.104C140.281 145.496 140.373 145.788 140.557 145.98C140.749 146.164 140.993 146.256 141.289 146.256ZM149.834 147H148.802V141.012C148.802 140.668 148.806 140.392 148.814 140.184C148.822 139.976 148.834 139.76 148.85 139.536C148.722 139.664 148.602 139.772 148.49 139.86C148.386 139.948 148.258 140.06 148.106 140.196L147.194 140.94L146.642 140.232L148.958 138.432H149.834V147ZM159.675 140.448C160.443 140.448 161.023 140.636 161.415 141.012C161.807 141.388 162.003 141.988 162.003 142.812V147H160.959V142.884C160.959 141.852 160.479 141.336 159.519 141.336C158.807 141.336 158.315 141.536 158.043 141.936C157.771 142.336 157.635 142.912 157.635 143.664V147H156.579V140.568H157.431L157.587 141.444H157.647C157.855 141.108 158.143 140.86 158.511 140.7C158.879 140.532 159.267 140.448 159.675 140.448ZM169.373 140.568V147H168.509L168.353 146.148H168.305C168.097 146.484 167.809 146.732 167.441 146.892C167.073 147.044 166.681 147.12 166.265 147.12C165.489 147.12 164.905 146.936 164.513 146.568C164.121 146.192 163.925 145.596 163.925 144.78V140.568H164.993V144.708C164.993 145.732 165.469 146.244 166.421 146.244C167.133 146.244 167.625 146.044 167.897 145.644C168.177 145.244 168.317 144.668 168.317 143.916V140.568H169.373ZM178.471 140.448C179.199 140.448 179.743 140.636 180.103 141.012C180.463 141.388 180.643 141.988 180.643 142.812V147H179.599V142.86C179.599 141.844 179.163 141.336 178.291 141.336C177.667 141.336 177.219 141.516 176.947 141.876C176.683 142.236 176.551 142.76 176.551 143.448V147H175.507V142.86C175.507 141.844 175.067 141.336 174.187 141.336C173.539 141.336 173.091 141.536 172.843 141.936C172.595 142.336 172.471 142.912 172.471 143.664V147H171.415V140.568H172.267L172.423 141.444H172.483C172.683 141.108 172.951 140.86 173.287 140.7C173.631 140.532 173.995 140.448 174.379 140.448C175.387 140.448 176.043 140.808 176.347 141.528H176.407C176.623 141.16 176.915 140.888 177.283 140.712C177.651 140.536 178.047 140.448 178.471 140.448ZM183.685 137.88V140.1C183.685 140.372 183.677 140.628 183.661 140.868C183.653 141.1 183.641 141.284 183.625 141.42H183.685C183.869 141.148 184.121 140.92 184.441 140.736C184.761 140.552 185.173 140.46 185.677 140.46C186.477 140.46 187.117 140.74 187.597 141.3C188.085 141.852 188.329 142.68 188.329 143.784C188.329 144.888 188.085 145.72 187.597 146.28C187.109 146.84 186.469 147.12 185.677 147.12C185.173 147.12 184.761 147.028 184.441 146.844C184.121 146.66 183.869 146.44 183.685 146.184H183.601L183.385 147H182.629V137.88H183.685ZM185.497 141.336C184.809 141.336 184.333 141.532 184.069 141.924C183.813 142.316 183.685 142.924 183.685 143.748V143.796C183.685 144.588 183.813 145.196 184.069 145.62C184.333 146.036 184.817 146.244 185.521 146.244C186.097 146.244 186.525 146.032 186.805 145.608C187.093 145.184 187.237 144.572 187.237 143.772C187.237 142.148 186.657 141.336 185.497 141.336ZM192.496 140.448C193.04 140.448 193.512 140.568 193.912 140.808C194.312 141.048 194.616 141.388 194.824 141.828C195.04 142.26 195.148 142.768 195.148 143.352V143.988H190.744C190.76 144.716 190.944 145.272 191.296 145.656C191.656 146.032 192.156 146.22 192.796 146.22C193.204 146.22 193.564 146.184 193.876 146.112C194.196 146.032 194.524 145.92 194.86 145.776V146.7C194.532 146.844 194.208 146.948 193.888 147.012C193.568 147.084 193.188 147.12 192.748 147.12C192.132 147.12 191.592 146.996 191.128 146.748C190.664 146.5 190.3 146.132 190.036 145.644C189.78 145.156 189.652 144.552 189.652 143.832C189.652 143.128 189.768 142.524 190 142.02C190.24 141.516 190.572 141.128 190.996 140.856C191.428 140.584 191.928 140.448 192.496 140.448ZM192.484 141.312C191.98 141.312 191.58 141.476 191.284 141.804C190.996 142.124 190.824 142.572 190.768 143.148H194.044C194.036 142.604 193.908 142.164 193.66 141.828C193.412 141.484 193.02 141.312 192.484 141.312ZM199.786 140.448C199.906 140.448 200.034 140.456 200.17 140.472C200.306 140.48 200.43 140.496 200.542 140.52L200.41 141.492C200.306 141.468 200.19 141.448 200.062 141.432C199.934 141.416 199.818 141.408 199.714 141.408C199.386 141.408 199.078 141.5 198.79 141.684C198.502 141.86 198.27 142.112 198.094 142.44C197.926 142.76 197.842 143.136 197.842 143.568V147H196.786V140.568H197.65L197.77 141.744H197.818C198.018 141.392 198.282 141.088 198.61 140.832C198.946 140.576 199.338 140.448 199.786 140.448ZM210.452 143.772C210.452 144.836 210.18 145.66 209.636 146.244C209.1 146.828 208.372 147.12 207.452 147.12C206.884 147.12 206.376 146.992 205.928 146.736C205.488 146.472 205.14 146.092 204.884 145.596C204.628 145.092 204.5 144.484 204.5 143.772C204.5 142.708 204.764 141.888 205.292 141.312C205.828 140.736 206.56 140.448 207.488 140.448C208.064 140.448 208.576 140.58 209.024 140.844C209.472 141.1 209.82 141.476 210.068 141.972C210.324 142.46 210.452 143.06 210.452 143.772ZM205.592 143.772C205.592 144.532 205.74 145.136 206.036 145.584C206.34 146.024 206.82 146.244 207.476 146.244C208.124 146.244 208.6 146.024 208.904 145.584C209.208 145.136 209.36 144.532 209.36 143.772C209.36 143.012 209.208 142.416 208.904 141.984C208.6 141.552 208.12 141.336 207.464 141.336C206.808 141.336 206.332 141.552 206.036 141.984C205.74 142.416 205.592 143.012 205.592 143.772ZM215.125 140.448C215.245 140.448 215.373 140.456 215.509 140.472C215.645 140.48 215.769 140.496 215.881 140.52L215.749 141.492C215.645 141.468 215.529 141.448 215.401 141.432C215.273 141.416 215.157 141.408 215.053 141.408C214.725 141.408 214.417 141.5 214.129 141.684C213.841 141.86 213.609 142.112 213.433 142.44C213.265 142.76 213.181 143.136 213.181 143.568V147H212.125V140.568H212.989L213.109 141.744H213.157C213.357 141.392 213.621 141.088 213.949 140.832C214.285 140.576 214.677 140.448 215.125 140.448ZM224.388 145.224C224.388 145.848 224.156 146.32 223.692 146.64C223.228 146.96 222.604 147.12 221.82 147.12C221.372 147.12 220.984 147.084 220.656 147.012C220.336 146.94 220.052 146.84 219.804 146.712V145.752C220.06 145.88 220.368 146 220.728 146.112C221.096 146.216 221.468 146.268 221.844 146.268C222.38 146.268 222.768 146.184 223.008 146.016C223.248 145.84 223.368 145.608 223.368 145.32C223.368 145.16 223.324 145.016 223.236 144.888C223.148 144.76 222.988 144.632 222.756 144.504C222.532 144.376 222.208 144.232 221.784 144.072C221.368 143.912 221.012 143.752 220.716 143.592C220.42 143.432 220.192 143.24 220.032 143.016C219.872 142.792 219.792 142.504 219.792 142.152C219.792 141.608 220.012 141.188 220.452 140.892C220.9 140.596 221.484 140.448 222.204 140.448C222.596 140.448 222.96 140.488 223.296 140.568C223.64 140.648 223.96 140.752 224.256 140.88L223.896 141.72C223.624 141.608 223.34 141.512 223.044 141.432C222.748 141.352 222.444 141.312 222.132 141.312C221.7 141.312 221.368 141.384 221.136 141.528C220.912 141.664 220.8 141.852 220.8 142.092C220.8 142.276 220.852 142.428 220.956 142.548C221.06 142.668 221.232 142.788 221.472 142.908C221.72 143.028 222.048 143.164 222.456 143.316C222.864 143.468 223.212 143.624 223.5 143.784C223.788 143.944 224.008 144.14 224.16 144.372C224.312 144.596 224.388 144.88 224.388 145.224ZM224.934 140.568H226.062L227.454 144.228C227.574 144.556 227.682 144.864 227.778 145.152C227.874 145.44 227.946 145.716 227.994 145.98H228.042C228.09 145.78 228.166 145.52 228.27 145.2C228.374 144.872 228.482 144.544 228.594 144.216L229.902 140.568H231.042L228.27 147.888C228.038 148.496 227.746 148.98 227.394 149.34C227.042 149.7 226.554 149.88 225.93 149.88C225.738 149.88 225.57 149.868 225.426 149.844C225.282 149.828 225.158 149.808 225.054 149.784V148.944C225.142 148.96 225.246 148.976 225.366 148.992C225.494 149.008 225.626 149.016 225.762 149.016C226.13 149.016 226.426 148.912 226.65 148.704C226.874 148.496 227.054 148.22 227.19 147.876L227.526 147.024L224.934 140.568ZM239.115 140.448C239.843 140.448 240.387 140.636 240.747 141.012C241.107 141.388 241.287 141.988 241.287 142.812V147H240.243V142.86C240.243 141.844 239.807 141.336 238.935 141.336C238.311 141.336 237.863 141.516 237.591 141.876C237.327 142.236 237.195 142.76 237.195 143.448V147H236.151V142.86C236.151 141.844 235.711 141.336 234.831 141.336C234.183 141.336 233.735 141.536 233.487 141.936C233.239 142.336 233.115 142.912 233.115 143.664V147H232.059V140.568H232.911L233.067 141.444H233.127C233.327 141.108 233.595 140.86 233.931 140.7C234.275 140.532 234.639 140.448 235.023 140.448C236.031 140.448 236.687 140.808 236.991 141.528H237.051C237.267 141.16 237.559 140.888 237.927 140.712C238.295 140.536 238.691 140.448 239.115 140.448ZM244.33 137.88V140.1C244.33 140.372 244.322 140.628 244.306 140.868C244.298 141.1 244.286 141.284 244.27 141.42H244.33C244.514 141.148 244.766 140.92 245.086 140.736C245.406 140.552 245.818 140.46 246.322 140.46C247.122 140.46 247.762 140.74 248.242 141.3C248.73 141.852 248.974 142.68 248.974 143.784C248.974 144.888 248.73 145.72 248.242 146.28C247.754 146.84 247.114 147.12 246.322 147.12C245.818 147.12 245.406 147.028 245.086 146.844C244.766 146.66 244.514 146.44 244.33 146.184H244.246L244.03 147H243.274V137.88H244.33ZM246.142 141.336C245.454 141.336 244.978 141.532 244.714 141.924C244.458 142.316 244.33 142.924 244.33 143.748V143.796C244.33 144.588 244.458 145.196 244.714 145.62C244.978 146.036 245.462 146.244 246.166 146.244C246.742 146.244 247.17 146.032 247.45 145.608C247.738 145.184 247.882 144.572 247.882 143.772C247.882 142.148 247.302 141.336 246.142 141.336ZM256.249 143.772C256.249 144.836 255.977 145.66 255.433 146.244C254.897 146.828 254.169 147.12 253.249 147.12C252.681 147.12 252.173 146.992 251.725 146.736C251.285 146.472 250.937 146.092 250.681 145.596C250.425 145.092 250.297 144.484 250.297 143.772C250.297 142.708 250.561 141.888 251.089 141.312C251.625 140.736 252.357 140.448 253.285 140.448C253.861 140.448 254.373 140.58 254.821 140.844C255.269 141.1 255.617 141.476 255.865 141.972C256.121 142.46 256.249 143.06 256.249 143.772ZM251.389 143.772C251.389 144.532 251.537 145.136 251.833 145.584C252.137 146.024 252.617 146.244 253.273 146.244C253.921 146.244 254.397 146.024 254.701 145.584C255.005 145.136 255.157 144.532 255.157 143.772C255.157 143.012 255.005 142.416 254.701 141.984C254.397 141.552 253.917 141.336 253.261 141.336C252.605 141.336 252.129 141.552 251.833 141.984C251.537 142.416 251.389 143.012 251.389 143.772ZM258.978 147H257.922V137.88H258.978V147Z" fill="black"/>
<path d="M74.944 171L72.124 163.488H72.076C72.1 163.736 72.12 164.072 72.136 164.496C72.152 164.912 72.16 165.348 72.16 165.804V171H71.164V162.432H72.76L75.4 169.452H75.448L78.136 162.432H79.72V171H78.652V165.732C78.652 165.316 78.66 164.904 78.676 164.496C78.7 164.088 78.72 163.756 78.736 163.5H78.688L75.832 171H74.944ZM87.2827 164.568V171H86.4187L86.2627 170.148H86.2147C86.0067 170.484 85.7187 170.732 85.3507 170.892C84.9827 171.044 84.5907 171.12 84.1747 171.12C83.3987 171.12 82.8147 170.936 82.4227 170.568C82.0307 170.192 81.8347 169.596 81.8347 168.78V164.568H82.9027V168.708C82.9027 169.732 83.3787 170.244 84.3307 170.244C85.0427 170.244 85.5347 170.044 85.8067 169.644C86.0867 169.244 86.2267 168.668 86.2267 167.916V164.568H87.2827ZM93.5127 169.224C93.5127 169.848 93.2807 170.32 92.8167 170.64C92.3527 170.96 91.7287 171.12 90.9447 171.12C90.4967 171.12 90.1087 171.084 89.7807 171.012C89.4607 170.94 89.1767 170.84 88.9287 170.712V169.752C89.1847 169.88 89.4927 170 89.8527 170.112C90.2207 170.216 90.5927 170.268 90.9687 170.268C91.5047 170.268 91.8927 170.184 92.1327 170.016C92.3727 169.84 92.4927 169.608 92.4927 169.32C92.4927 169.16 92.4487 169.016 92.3607 168.888C92.2727 168.76 92.1127 168.632 91.8807 168.504C91.6567 168.376 91.3327 168.232 90.9087 168.072C90.4927 167.912 90.1367 167.752 89.8407 167.592C89.5447 167.432 89.3167 167.24 89.1567 167.016C88.9967 166.792 88.9167 166.504 88.9167 166.152C88.9167 165.608 89.1367 165.188 89.5767 164.892C90.0247 164.596 90.6087 164.448 91.3287 164.448C91.7207 164.448 92.0847 164.488 92.4207 164.568C92.7647 164.648 93.0847 164.752 93.3807 164.88L93.0207 165.72C92.7487 165.608 92.4647 165.512 92.1687 165.432C91.8727 165.352 91.5687 165.312 91.2567 165.312C90.8247 165.312 90.4927 165.384 90.2607 165.528C90.0367 165.664 89.9247 165.852 89.9247 166.092C89.9247 166.276 89.9767 166.428 90.0807 166.548C90.1847 166.668 90.3567 166.788 90.5967 166.908C90.8447 167.028 91.1727 167.164 91.5807 167.316C91.9887 167.468 92.3367 167.624 92.6247 167.784C92.9127 167.944 93.1327 168.14 93.2847 168.372C93.4367 168.596 93.5127 168.88 93.5127 169.224ZM97.2149 170.256C97.3749 170.256 97.5389 170.244 97.7069 170.22C97.8749 170.196 98.0109 170.164 98.1149 170.124V170.928C98.0029 170.984 97.8429 171.028 97.6349 171.06C97.4269 171.1 97.2269 171.12 97.0349 171.12C96.6989 171.12 96.3869 171.064 96.0989 170.952C95.8189 170.832 95.5909 170.628 95.4149 170.34C95.2389 170.052 95.1509 169.648 95.1509 169.128V165.384H94.2389V164.88L95.1629 164.46L95.5829 163.092H96.2069V164.568H98.0669V165.384H96.2069V169.104C96.2069 169.496 96.2989 169.788 96.4829 169.98C96.6749 170.164 96.9189 170.256 97.2149 170.256ZM103.576 161.88V164.1C103.576 164.372 103.568 164.628 103.552 164.868C103.544 165.1 103.532 165.284 103.516 165.42H103.576C103.76 165.148 104.012 164.92 104.332 164.736C104.652 164.552 105.064 164.46 105.568 164.46C106.368 164.46 107.008 164.74 107.488 165.3C107.976 165.852 108.22 166.68 108.22 167.784C108.22 168.888 107.976 169.72 107.488 170.28C107 170.84 106.36 171.12 105.568 171.12C105.064 171.12 104.652 171.028 104.332 170.844C104.012 170.66 103.76 170.44 103.576 170.184H103.492L103.276 171H102.52V161.88H103.576ZM105.388 165.336C104.7 165.336 104.224 165.532 103.96 165.924C103.704 166.316 103.576 166.924 103.576 167.748V167.796C103.576 168.588 103.704 169.196 103.96 169.62C104.224 170.036 104.708 170.244 105.412 170.244C105.988 170.244 106.416 170.032 106.696 169.608C106.984 169.184 107.128 168.572 107.128 167.772C107.128 166.148 106.548 165.336 105.388 165.336ZM112.387 164.448C112.931 164.448 113.403 164.568 113.803 164.808C114.203 165.048 114.507 165.388 114.715 165.828C114.931 166.26 115.039 166.768 115.039 167.352V167.988H110.635C110.651 168.716 110.835 169.272 111.187 169.656C111.547 170.032 112.047 170.22 112.687 170.22C113.095 170.22 113.455 170.184 113.767 170.112C114.087 170.032 114.415 169.92 114.751 169.776V170.7C114.423 170.844 114.099 170.948 113.779 171.012C113.459 171.084 113.079 171.12 112.639 171.12C112.023 171.12 111.483 170.996 111.019 170.748C110.555 170.5 110.191 170.132 109.927 169.644C109.671 169.156 109.543 168.552 109.543 167.832C109.543 167.128 109.659 166.524 109.891 166.02C110.131 165.516 110.463 165.128 110.887 164.856C111.319 164.584 111.819 164.448 112.387 164.448ZM112.375 165.312C111.871 165.312 111.471 165.476 111.175 165.804C110.887 166.124 110.715 166.572 110.659 167.148H113.935C113.927 166.604 113.799 166.164 113.551 165.828C113.303 165.484 112.911 165.312 112.375 165.312ZM122.229 164.46C123.013 164.46 123.593 164.632 123.969 164.976C124.345 165.32 124.533 165.868 124.533 166.62V171H123.765L123.561 170.088H123.513C123.233 170.44 122.937 170.7 122.625 170.868C122.313 171.036 121.889 171.12 121.353 171.12C120.769 171.12 120.285 170.968 119.901 170.664C119.517 170.352 119.325 169.868 119.325 169.212C119.325 168.572 119.577 168.08 120.081 167.736C120.585 167.384 121.361 167.192 122.409 167.16L123.501 167.124V166.74C123.501 166.204 123.385 165.832 123.153 165.624C122.921 165.416 122.593 165.312 122.169 165.312C121.833 165.312 121.513 165.364 121.209 165.468C120.905 165.564 120.621 165.676 120.357 165.804L120.033 165.012C120.313 164.86 120.645 164.732 121.029 164.628C121.413 164.516 121.813 164.46 122.229 164.46ZM123.489 167.856L122.541 167.892C121.741 167.924 121.185 168.052 120.873 168.276C120.569 168.5 120.417 168.816 120.417 169.224C120.417 169.584 120.525 169.848 120.741 170.016C120.965 170.184 121.249 170.268 121.593 170.268C122.129 170.268 122.577 170.12 122.937 169.824C123.305 169.52 123.489 169.056 123.489 168.432V167.856ZM128.668 170.256C128.828 170.256 128.992 170.244 129.16 170.22C129.328 170.196 129.464 170.164 129.568 170.124V170.928C129.456 170.984 129.296 171.028 129.088 171.06C128.88 171.1 128.68 171.12 128.488 171.12C128.152 171.12 127.84 171.064 127.552 170.952C127.272 170.832 127.044 170.628 126.868 170.34C126.692 170.052 126.604 169.648 126.604 169.128V165.384H125.692V164.88L126.616 164.46L127.036 163.092H127.66V164.568H129.52V165.384H127.66V169.104C127.66 169.496 127.752 169.788 127.936 169.98C128.128 170.164 128.372 170.256 128.668 170.256ZM135.029 171H133.973V161.88H135.029V171ZM139.551 164.448C140.095 164.448 140.567 164.568 140.967 164.808C141.367 165.048 141.671 165.388 141.879 165.828C142.095 166.26 142.203 166.768 142.203 167.352V167.988H137.799C137.815 168.716 137.999 169.272 138.351 169.656C138.711 170.032 139.211 170.22 139.851 170.22C140.259 170.22 140.619 170.184 140.931 170.112C141.251 170.032 141.579 169.92 141.915 169.776V170.7C141.587 170.844 141.263 170.948 140.943 171.012C140.623 171.084 140.243 171.12 139.803 171.12C139.187 171.12 138.647 170.996 138.183 170.748C137.719 170.5 137.355 170.132 137.091 169.644C136.835 169.156 136.707 168.552 136.707 167.832C136.707 167.128 136.823 166.524 137.055 166.02C137.295 165.516 137.627 165.128 138.051 164.856C138.483 164.584 138.983 164.448 139.551 164.448ZM139.539 165.312C139.035 165.312 138.635 165.476 138.339 165.804C138.051 166.124 137.879 166.572 137.823 167.148H141.099C141.091 166.604 140.963 166.164 140.715 165.828C140.467 165.484 140.075 165.312 139.539 165.312ZM146.276 164.46C147.06 164.46 147.64 164.632 148.016 164.976C148.392 165.32 148.58 165.868 148.58 166.62V171H147.812L147.608 170.088H147.56C147.28 170.44 146.984 170.7 146.672 170.868C146.36 171.036 145.936 171.12 145.4 171.12C144.816 171.12 144.332 170.968 143.948 170.664C143.564 170.352 143.372 169.868 143.372 169.212C143.372 168.572 143.624 168.08 144.128 167.736C144.632 167.384 145.408 167.192 146.456 167.16L147.548 167.124V166.74C147.548 166.204 147.432 165.832 147.2 165.624C146.968 165.416 146.64 165.312 146.216 165.312C145.88 165.312 145.56 165.364 145.256 165.468C144.952 165.564 144.668 165.676 144.404 165.804L144.08 165.012C144.36 164.86 144.692 164.732 145.076 164.628C145.46 164.516 145.86 164.46 146.276 164.46ZM147.536 167.856L146.588 167.892C145.788 167.924 145.232 168.052 144.92 168.276C144.616 168.5 144.464 168.816 144.464 169.224C144.464 169.584 144.572 169.848 144.788 170.016C145.012 170.184 145.296 170.268 145.64 170.268C146.176 170.268 146.624 170.12 146.984 169.824C147.352 169.52 147.536 169.056 147.536 168.432V167.856ZM154.755 169.224C154.755 169.848 154.523 170.32 154.059 170.64C153.595 170.96 152.971 171.12 152.187 171.12C151.739 171.12 151.351 171.084 151.023 171.012C150.703 170.94 150.419 170.84 150.171 170.712V169.752C150.427 169.88 150.735 170 151.095 170.112C151.463 170.216 151.835 170.268 152.211 170.268C152.747 170.268 153.135 170.184 153.375 170.016C153.615 169.84 153.735 169.608 153.735 169.32C153.735 169.16 153.691 169.016 153.603 168.888C153.515 168.76 153.355 168.632 153.123 168.504C152.899 168.376 152.575 168.232 152.151 168.072C151.735 167.912 151.379 167.752 151.083 167.592C150.787 167.432 150.559 167.24 150.399 167.016C150.239 166.792 150.159 166.504 150.159 166.152C150.159 165.608 150.379 165.188 150.819 164.892C151.267 164.596 151.851 164.448 152.571 164.448C152.963 164.448 153.327 164.488 153.663 164.568C154.007 164.648 154.327 164.752 154.623 164.88L154.263 165.72C153.991 165.608 153.707 165.512 153.411 165.432C153.115 165.352 152.811 165.312 152.499 165.312C152.067 165.312 151.735 165.384 151.503 165.528C151.279 165.664 151.167 165.852 151.167 166.092C151.167 166.276 151.219 166.428 151.323 166.548C151.427 166.668 151.599 166.788 151.839 166.908C152.087 167.028 152.415 167.164 152.823 167.316C153.231 167.468 153.579 167.624 153.867 167.784C154.155 167.944 154.375 168.14 154.527 168.372C154.679 168.596 154.755 168.88 154.755 169.224ZM158.457 170.256C158.617 170.256 158.781 170.244 158.949 170.22C159.117 170.196 159.253 170.164 159.357 170.124V170.928C159.245 170.984 159.085 171.028 158.877 171.06C158.669 171.1 158.469 171.12 158.277 171.12C157.941 171.12 157.629 171.064 157.341 170.952C157.061 170.832 156.833 170.628 156.657 170.34C156.481 170.052 156.393 169.648 156.393 169.128V165.384H155.481V164.88L156.405 164.46L156.825 163.092H157.449V164.568H159.309V165.384H157.449V169.104C157.449 169.496 157.541 169.788 157.725 169.98C157.917 170.164 158.161 170.256 158.457 170.256ZM166.162 162.312C166.914 162.312 167.53 162.488 168.01 162.84C168.49 163.192 168.73 163.7 168.73 164.364C168.73 164.708 168.654 165.008 168.502 165.264C168.358 165.52 168.162 165.748 167.914 165.948C167.666 166.14 167.394 166.312 167.098 166.464C167.45 166.64 167.77 166.832 168.058 167.04C168.346 167.248 168.574 167.492 168.742 167.772C168.918 168.052 169.006 168.388 169.006 168.78C169.006 169.5 168.75 170.072 168.238 170.496C167.726 170.912 167.046 171.12 166.198 171.12C165.27 171.12 164.558 170.92 164.062 170.52C163.574 170.112 163.33 169.544 163.33 168.816C163.33 168.432 163.41 168.096 163.57 167.808C163.738 167.512 163.958 167.26 164.23 167.052C164.502 166.844 164.794 166.668 165.106 166.524C164.682 166.284 164.326 165.996 164.038 165.66C163.75 165.316 163.606 164.88 163.606 164.352C163.606 163.92 163.718 163.552 163.942 163.248C164.166 162.944 164.47 162.712 164.854 162.552C165.238 162.392 165.674 162.312 166.162 162.312ZM166.15 163.164C165.702 163.164 165.338 163.272 165.058 163.488C164.778 163.696 164.638 164 164.638 164.4C164.638 164.696 164.706 164.944 164.842 165.144C164.986 165.344 165.178 165.516 165.418 165.66C165.658 165.796 165.922 165.928 166.21 166.056C166.626 165.88 166.974 165.668 167.254 165.42C167.542 165.172 167.686 164.832 167.686 164.4C167.686 164 167.546 163.696 167.266 163.488C166.986 163.272 166.614 163.164 166.15 163.164ZM164.362 168.828C164.362 169.244 164.51 169.592 164.806 169.872C165.102 170.144 165.558 170.28 166.174 170.28C166.758 170.28 167.202 170.144 167.506 169.872C167.818 169.592 167.974 169.232 167.974 168.792C167.974 168.376 167.81 168.032 167.482 167.76C167.154 167.48 166.718 167.236 166.174 167.028L165.982 166.956C165.454 167.188 165.05 167.448 164.77 167.736C164.498 168.024 164.362 168.388 164.362 168.828ZM176.327 171.12C175.751 171.12 175.243 171.004 174.803 170.772C174.363 170.54 174.015 170.18 173.759 169.692C173.511 169.204 173.387 168.58 173.387 167.82C173.387 167.028 173.515 166.384 173.771 165.888C174.035 165.392 174.395 165.028 174.851 164.796C175.307 164.564 175.823 164.448 176.399 164.448C176.719 164.448 177.031 164.484 177.335 164.556C177.647 164.62 177.899 164.7 178.091 164.796L177.767 165.672C177.575 165.6 177.351 165.532 177.095 165.468C176.839 165.404 176.599 165.372 176.375 165.372C175.111 165.372 174.479 166.184 174.479 167.808C174.479 168.584 174.631 169.18 174.935 169.596C175.247 170.004 175.707 170.208 176.315 170.208C176.659 170.208 176.967 170.172 177.239 170.1C177.511 170.028 177.759 169.94 177.983 169.836V170.772C177.767 170.884 177.527 170.968 177.263 171.024C177.007 171.088 176.695 171.12 176.327 171.12ZM180.568 161.88V164.556C180.568 164.876 180.548 165.176 180.508 165.456H180.58C180.788 165.128 181.068 164.88 181.42 164.712C181.78 164.544 182.168 164.46 182.584 164.46C183.36 164.46 183.944 164.648 184.336 165.024C184.736 165.392 184.936 165.988 184.936 166.812V171H183.892V166.884C183.892 165.852 183.412 165.336 182.452 165.336C181.732 165.336 181.236 165.54 180.964 165.948C180.7 166.348 180.568 166.924 180.568 167.676V171H179.512V161.88H180.568ZM189.366 164.46C190.15 164.46 190.73 164.632 191.106 164.976C191.482 165.32 191.67 165.868 191.67 166.62V171H190.902L190.698 170.088H190.65C190.37 170.44 190.074 170.7 189.762 170.868C189.45 171.036 189.026 171.12 188.49 171.12C187.906 171.12 187.422 170.968 187.038 170.664C186.654 170.352 186.462 169.868 186.462 169.212C186.462 168.572 186.714 168.08 187.218 167.736C187.722 167.384 188.498 167.192 189.546 167.16L190.638 167.124V166.74C190.638 166.204 190.522 165.832 190.29 165.624C190.058 165.416 189.73 165.312 189.306 165.312C188.97 165.312 188.65 165.364 188.346 165.468C188.042 165.564 187.758 165.676 187.494 165.804L187.17 165.012C187.45 164.86 187.782 164.732 188.166 164.628C188.55 164.516 188.95 164.46 189.366 164.46ZM190.626 167.856L189.678 167.892C188.878 167.924 188.322 168.052 188.01 168.276C187.706 168.5 187.554 168.816 187.554 169.224C187.554 169.584 187.662 169.848 187.878 170.016C188.102 170.184 188.386 170.268 188.73 170.268C189.266 170.268 189.714 170.12 190.074 169.824C190.442 169.52 190.626 169.056 190.626 168.432V167.856ZM196.657 164.448C196.777 164.448 196.905 164.456 197.041 164.472C197.177 164.48 197.301 164.496 197.413 164.52L197.281 165.492C197.177 165.468 197.061 165.448 196.933 165.432C196.805 165.416 196.689 165.408 196.585 165.408C196.257 165.408 195.949 165.5 195.661 165.684C195.373 165.86 195.141 166.112 194.965 166.44C194.797 166.76 194.713 167.136 194.713 167.568V171H193.657V164.568H194.521L194.641 165.744H194.689C194.889 165.392 195.153 165.088 195.481 164.832C195.817 164.576 196.209 164.448 196.657 164.448ZM200.815 164.46C201.599 164.46 202.179 164.632 202.555 164.976C202.931 165.32 203.119 165.868 203.119 166.62V171H202.351L202.147 170.088H202.099C201.819 170.44 201.523 170.7 201.211 170.868C200.899 171.036 200.475 171.12 199.939 171.12C199.355 171.12 198.871 170.968 198.487 170.664C198.103 170.352 197.911 169.868 197.911 169.212C197.911 168.572 198.163 168.08 198.667 167.736C199.171 167.384 199.947 167.192 200.995 167.16L202.087 167.124V166.74C202.087 166.204 201.971 165.832 201.739 165.624C201.507 165.416 201.179 165.312 200.755 165.312C200.419 165.312 200.099 165.364 199.795 165.468C199.491 165.564 199.207 165.676 198.943 165.804L198.619 165.012C198.899 164.86 199.231 164.732 199.615 164.628C199.999 164.516 200.399 164.46 200.815 164.46ZM202.075 167.856L201.127 167.892C200.327 167.924 199.771 168.052 199.459 168.276C199.155 168.5 199.003 168.816 199.003 169.224C199.003 169.584 199.111 169.848 199.327 170.016C199.551 170.184 199.835 170.268 200.179 170.268C200.715 170.268 201.163 170.12 201.523 169.824C201.891 169.52 202.075 169.056 202.075 168.432V167.856ZM207.686 171.12C207.11 171.12 206.602 171.004 206.162 170.772C205.722 170.54 205.374 170.18 205.118 169.692C204.87 169.204 204.746 168.58 204.746 167.82C204.746 167.028 204.874 166.384 205.13 165.888C205.394 165.392 205.754 165.028 206.21 164.796C206.666 164.564 207.182 164.448 207.758 164.448C208.078 164.448 208.39 164.484 208.694 164.556C209.006 164.62 209.258 164.7 209.45 164.796L209.126 165.672C208.934 165.6 208.71 165.532 208.454 165.468C208.198 165.404 207.958 165.372 207.734 165.372C206.47 165.372 205.838 166.184 205.838 167.808C205.838 168.584 205.99 169.18 206.294 169.596C206.606 170.004 207.066 170.208 207.674 170.208C208.018 170.208 208.326 170.172 208.598 170.1C208.87 170.028 209.118 169.94 209.342 169.836V170.772C209.126 170.884 208.886 170.968 208.622 171.024C208.366 171.088 208.054 171.12 207.686 171.12ZM213.02 170.256C213.18 170.256 213.344 170.244 213.512 170.22C213.68 170.196 213.816 170.164 213.92 170.124V170.928C213.808 170.984 213.648 171.028 213.44 171.06C213.232 171.1 213.032 171.12 212.84 171.12C212.504 171.12 212.192 171.064 211.904 170.952C211.624 170.832 211.396 170.628 211.22 170.34C211.044 170.052 210.956 169.648 210.956 169.128V165.384H210.044V164.88L210.968 164.46L211.388 163.092H212.012V164.568H213.872V165.384H212.012V169.104C212.012 169.496 212.104 169.788 212.288 169.98C212.48 170.164 212.724 170.256 213.02 170.256ZM217.692 164.448C218.236 164.448 218.708 164.568 219.108 164.808C219.508 165.048 219.812 165.388 220.02 165.828C220.236 166.26 220.344 166.768 220.344 167.352V167.988H215.94C215.956 168.716 216.14 169.272 216.492 169.656C216.852 170.032 217.352 170.22 217.992 170.22C218.4 170.22 218.76 170.184 219.072 170.112C219.392 170.032 219.72 169.92 220.056 169.776V170.7C219.728 170.844 219.404 170.948 219.084 171.012C218.764 171.084 218.384 171.12 217.944 171.12C217.328 171.12 216.788 170.996 216.324 170.748C215.86 170.5 215.496 170.132 215.232 169.644C214.976 169.156 214.848 168.552 214.848 167.832C214.848 167.128 214.964 166.524 215.196 166.02C215.436 165.516 215.768 165.128 216.192 164.856C216.624 164.584 217.124 164.448 217.692 164.448ZM217.68 165.312C217.176 165.312 216.776 165.476 216.48 165.804C216.192 166.124 216.02 166.572 215.964 167.148H219.24C219.232 166.604 219.104 166.164 218.856 165.828C218.608 165.484 218.216 165.312 217.68 165.312ZM224.981 164.448C225.101 164.448 225.229 164.456 225.365 164.472C225.501 164.48 225.625 164.496 225.737 164.52L225.605 165.492C225.501 165.468 225.385 165.448 225.257 165.432C225.129 165.416 225.013 165.408 224.909 165.408C224.581 165.408 224.273 165.5 223.985 165.684C223.697 165.86 223.465 166.112 223.289 166.44C223.121 166.76 223.037 167.136 223.037 167.568V171H221.981V164.568H222.845L222.965 165.744H223.013C223.213 165.392 223.477 165.088 223.805 164.832C224.141 164.576 224.533 164.448 224.981 164.448ZM231.126 169.224C231.126 169.848 230.894 170.32 230.43 170.64C229.966 170.96 229.342 171.12 228.558 171.12C228.11 171.12 227.722 171.084 227.394 171.012C227.074 170.94 226.79 170.84 226.542 170.712V169.752C226.798 169.88 227.106 170 227.466 170.112C227.834 170.216 228.206 170.268 228.582 170.268C229.118 170.268 229.506 170.184 229.746 170.016C229.986 169.84 230.106 169.608 230.106 169.32C230.106 169.16 230.062 169.016 229.974 168.888C229.886 168.76 229.726 168.632 229.494 168.504C229.27 168.376 228.946 168.232 228.522 168.072C228.106 167.912 227.75 167.752 227.454 167.592C227.158 167.432 226.93 167.24 226.77 167.016C226.61 166.792 226.53 166.504 226.53 166.152C226.53 165.608 226.75 165.188 227.19 164.892C227.638 164.596 228.222 164.448 228.942 164.448C229.334 164.448 229.698 164.488 230.034 164.568C230.378 164.648 230.698 164.752 230.994 164.88L230.634 165.72C230.362 165.608 230.078 165.512 229.782 165.432C229.486 165.352 229.182 165.312 228.87 165.312C228.438 165.312 228.106 165.384 227.874 165.528C227.65 165.664 227.538 165.852 227.538 166.092C227.538 166.276 227.59 166.428 227.694 166.548C227.798 166.668 227.97 166.788 228.21 166.908C228.458 167.028 228.786 167.164 229.194 167.316C229.602 167.468 229.95 167.624 230.238 167.784C230.526 167.944 230.746 168.14 230.898 168.372C231.05 168.596 231.126 168.88 231.126 169.224Z" fill="black"/>
<path d="M54.5125 118.012L57.8625 114.662C58.0125 114.512 58.0125 114.263 57.8625 114.113C57.7125 113.962 57.4625 113.962 57.3125 114.113L54.0125 117.463L50.6625 114.113C50.5125 113.962 50.2625 113.962 50.1125 114.113C49.9625 114.263 49.9625 114.512 50.1125 114.662L53.4625 118.012L50.1125 121.362C49.9625 121.512 49.9625 121.762 50.1125 121.912C50.1625 121.963 50.2625 122.012 50.3625 122.012C50.4625 122.012 50.5625 121.963 50.6125 121.912L54.0125 118.512L57.3625 121.862C57.4125 121.912 57.5125 121.962 57.6125 121.962C57.7125 121.962 57.8125 121.912 57.8625 121.862C58.0125 121.712 58.0125 121.463 57.8625 121.312L54.5125 118.012Z" fill="black"/>
<path d="M54.5125 142.012L57.8625 138.662C58.0125 138.512 58.0125 138.263 57.8625 138.113C57.7125 137.962 57.4625 137.962 57.3125 138.113L54.0125 141.463L50.6625 138.113C50.5125 137.962 50.2625 137.962 50.1125 138.113C49.9625 138.263 49.9625 138.512 50.1125 138.662L53.4625 142.012L50.1125 145.362C49.9625 145.512 49.9625 145.762 50.1125 145.912C50.1625 145.963 50.2625 146.012 50.3625 146.012C50.4625 146.012 50.5625 145.963 50.6125 145.912L54.0125 142.512L57.3625 145.862C57.4125 145.912 57.5125 145.962 57.6125 145.962C57.7125 145.962 57.8125 145.912 57.8625 145.862C58.0125 145.712 58.0125 145.463 57.8625 145.312L54.5125 142.012Z" fill="black"/>
<rect x="325" y="61" width="1" height="30" fill="#1B77AF"/>
<path d="M54.5125 166.012L57.8625 162.662C58.0125 162.512 58.0125 162.263 57.8625 162.113C57.7125 161.962 57.4625 161.962 57.3125 162.113L54.0125 165.463L50.6625 162.113C50.5125 161.962 50.2625 161.962 50.1125 162.113C49.9625 162.263 49.9625 162.512 50.1125 162.662L53.4625 166.012L50.1125 169.362C49.9625 169.512 49.9625 169.762 50.1125 169.912C50.1625 169.963 50.2625 170.012 50.3625 170.012C50.4625 170.012 50.5625 169.963 50.6125 169.912L54.0125 166.512L57.3625 169.862C57.4125 169.912 57.5125 169.962 57.6125 169.962C57.7125 169.962 57.8125 169.912 57.8625 169.862C58.0125 169.712 58.0125 169.463 57.8625 169.312L54.5125 166.012Z" fill="black"/>
</svg>
