<svg width="412" height="269" viewBox="0 0 412 269" fill="none" xmlns="http://www.w3.org/2000/svg">
<g clip-path="url(#clip0_9554_687149)">
<g clip-path="url(#clip1_9554_687149)" filter="url(#filter0_i_9554_687149)">
<rect width="93.6364" height="241.582" transform="translate(0 27.1545)" fill="white"/>
<rect width="93.6364" height="22.4727" transform="translate(0 27.1545)" fill="white"/>
<path d="M13.1093 44.0091C10.3943 44.0091 8.19336 41.8081 8.19336 39.0932C8.19336 36.3782 10.3943 34.1772 13.1093 34.1772C15.8243 34.1772 18.0252 36.3782 18.0252 39.0932C18.0252 41.8081 15.8243 44.0091 13.1093 44.0091Z" fill="#C9C9C9"/>
<rect x="22.0044" y="36.05" width="56.1818" height="5.61818" rx="0.936364" fill="#C9C9C9"/>
<rect width="93.6364" height="22.4727" transform="translate(0 49.6273)" fill="white"/>
<path d="M13.1093 66.4818C10.3943 66.4818 8.19336 64.2809 8.19336 61.5659C8.19336 58.851 10.3943 56.65 13.1093 56.65C15.8243 56.65 18.0252 58.851 18.0252 61.5659C18.0252 64.2809 15.8243 66.4818 13.1093 66.4818Z" fill="#C9C9C9"/>
<rect x="22.0044" y="58.5227" width="56.1818" height="5.61818" rx="0.936364" fill="#C9C9C9"/>
<rect width="93.6364" height="22.4727" transform="translate(0 72.1)" fill="white"/>
<path d="M13.1093 88.9545C10.3943 88.9545 8.19336 86.7536 8.19336 84.0386C8.19336 81.3236 10.3943 79.1227 13.1093 79.1227C15.8243 79.1227 18.0252 81.3236 18.0252 84.0386C18.0252 86.7536 15.8243 88.9545 13.1093 88.9545Z" fill="#C9C9C9"/>
<rect x="22.0044" y="80.9955" width="56.1818" height="5.61818" rx="0.936364" fill="#C9C9C9"/>
<rect width="93.6364" height="22.4727" transform="translate(0 94.5728)" fill="white"/>
<path d="M13.1093 111.427C10.3943 111.427 8.19336 109.226 8.19336 106.511C8.19336 103.796 10.3943 101.595 13.1093 101.595C15.8243 101.595 18.0252 103.796 18.0252 106.511C18.0252 109.226 15.8243 111.427 13.1093 111.427Z" fill="#C9C9C9"/>
<rect x="22.0044" y="103.468" width="56.1818" height="5.61818" rx="0.936364" fill="#C9C9C9"/>
</g>
<rect width="318.364" height="241.582" transform="translate(93.6362 27.1545)" fill="#F1F1F1"/>
<rect x="97.6154" y="31.1341" width="310.405" height="233.623" rx="1.63864" fill="white"/>
<rect x="97.6154" y="31.1341" width="310.405" height="233.623" rx="1.63864" stroke="#C9C9C9" stroke-width="0.468182"/>
<rect x="0.234091" y="0.234091" width="411.532" height="268.268" rx="3.51136" stroke="#C9C9C9" stroke-width="0.468182"/>
<rect x="112.598" y="49.8614" width="199.532" height="23.5318" stroke="#C9C9C9" stroke-width="0.468182"/>
<rect x="112.598" y="66.7159" width="199.532" height="23.5318" rx="0.234091" stroke="#C9C9C9" stroke-width="0.468182"/>
<rect x="211.852" y="66.7159" width="199.532" height="23.5318" rx="0.234091" stroke="#C9C9C9" stroke-width="0.468182"/>
<rect x="112.598" y="83.5705" width="199.532" height="23.5318" rx="0.234091" stroke="#C9C9C9" stroke-width="0.468182"/>
<rect x="211.852" y="83.5705" width="199.532" height="23.5318" rx="0.234091" stroke="#C9C9C9" stroke-width="0.468182"/>
<rect x="112.598" y="100.425" width="199.532" height="23.5318" stroke="#C9C9C9" stroke-width="0.468182"/>
<rect x="112.598" y="117.28" width="199.532" height="23.5318" stroke="#C9C9C9" stroke-width="0.468182"/>
<rect x="112.598" y="134.134" width="199.532" height="23.5318" stroke="#C9C9C9" stroke-width="0.468182"/>
<rect x="112.598" y="150.989" width="199.532" height="23.5318" stroke="#C9C9C9" stroke-width="0.468182"/>
<rect x="112.598" y="167.843" width="199.532" height="23.5318" stroke="#C9C9C9" stroke-width="0.468182"/>
<rect x="112.598" y="184.698" width="199.532" height="23.5318" rx="0.234091" stroke="#C9C9C9" stroke-width="0.468182"/>
<rect x="211.852" y="184.698" width="199.532" height="23.5318" rx="0.234091" stroke="#C9C9C9" stroke-width="0.468182"/>
<rect x="112.598" y="201.552" width="199.532" height="76.5318" stroke="#C9C9C9" stroke-width="0.468182"/>
<path d="M116.811 245.327C116.811 246.491 115.868 247.434 114.705 247.434C113.541 247.434 112.598 246.491 112.598 245.327C112.598 244.164 113.541 243.221 114.705 243.221C115.868 243.221 116.811 244.164 116.811 245.327Z" stroke="#C9C9C9" stroke-width="0.468182"/>
<rect x="119.153" y="243.221" width="55.5318" height="9.53182" rx="0.234091" stroke="#C9C9C9" stroke-width="0.468182"/>
<path d="M157.075 245.327C157.075 246.491 156.132 247.434 154.968 247.434C153.805 247.434 152.862 246.491 152.862 245.327C152.862 244.164 153.805 243.221 154.968 243.221C156.132 243.221 157.075 244.164 157.075 245.327Z" stroke="#C9C9C9" stroke-width="0.468182"/>
<rect x="159.416" y="243.221" width="55.5318" height="9.53182" rx="0.234091" stroke="#C9C9C9" stroke-width="0.468182"/>
<path d="M197.339 245.327C197.339 246.491 196.396 247.434 195.232 247.434C194.068 247.434 193.125 246.491 193.125 245.327C193.125 244.164 194.068 243.221 195.232 243.221C196.396 243.221 197.339 244.164 197.339 245.327Z" stroke="#C9C9C9" stroke-width="0.468182"/>
<rect x="199.68" y="243.221" width="55.5318" height="9.53182" rx="0.234091" stroke="#C9C9C9" stroke-width="0.468182"/>
<rect opacity="0.3" width="412" height="268.736" fill="#242424"/>
<g filter="url(#filter1_d_9554_687149)">
<rect width="149.818" height="241.582" transform="translate(262.182 27.1545)" fill="white"/>
<path d="M276.291 48.3909H275.491V42.7423H273.507V42.0395H278.266V42.7423H276.291V48.3909ZM279.517 41.8349C279.636 41.8349 279.74 41.8764 279.829 41.9595C279.923 42.0365 279.971 42.1611 279.971 42.3331C279.971 42.505 279.923 42.6325 279.829 42.7156C279.74 42.7927 279.636 42.8312 279.517 42.8312C279.387 42.8312 279.277 42.7927 279.188 42.7156C279.099 42.6325 279.055 42.505 279.055 42.3331C279.055 42.1611 279.099 42.0365 279.188 41.9595C279.277 41.8764 279.387 41.8349 279.517 41.8349ZM279.9 43.6229V48.3909H279.117V43.6229H279.9ZM283.003 47.8394C283.121 47.8394 283.243 47.8305 283.367 47.8127C283.492 47.7949 283.593 47.7712 283.67 47.7415V48.3375C283.587 48.379 283.468 48.4116 283.314 48.4353C283.16 48.465 283.012 48.4798 282.869 48.4798C282.62 48.4798 282.389 48.4383 282.175 48.3553C281.968 48.2663 281.799 48.1151 281.668 47.9016C281.538 47.6881 281.473 47.3886 281.473 47.0032V44.2278H280.797V43.8542L281.481 43.5428L281.793 42.5288H282.255V43.6229H283.634V44.2278H282.255V46.9854C282.255 47.276 282.324 47.4924 282.46 47.6348C282.602 47.7712 282.783 47.8394 283.003 47.8394ZM285.407 48.3909H284.625V41.6303H285.407V48.3909ZM288.759 43.534C289.162 43.534 289.512 43.6229 289.809 43.8008C290.105 43.9787 290.331 44.2308 290.485 44.5569C290.645 44.8772 290.725 45.2537 290.725 45.6867V46.1581H287.46C287.472 46.6978 287.609 47.1099 287.87 47.3946C288.137 47.6733 288.507 47.8127 288.982 47.8127C289.284 47.8127 289.551 47.786 289.782 47.7326C290.019 47.6733 290.263 47.5903 290.512 47.4835V48.1685C290.268 48.2752 290.028 48.3523 289.791 48.3998C289.554 48.4531 289.272 48.4798 288.946 48.4798C288.489 48.4798 288.089 48.3879 287.745 48.2041C287.401 48.0202 287.131 47.7474 286.936 47.3857C286.746 47.0239 286.651 46.5762 286.651 46.0425C286.651 45.5206 286.737 45.0729 286.909 44.6993C287.087 44.3256 287.333 44.038 287.647 43.8364C287.968 43.6348 288.338 43.534 288.759 43.534ZM288.75 44.1744C288.377 44.1744 288.08 44.296 287.861 44.5391C287.647 44.7763 287.52 45.1084 287.478 45.5354H289.907C289.901 45.1322 289.806 44.806 289.622 44.5569C289.438 44.3019 289.148 44.1744 288.75 44.1744Z" fill="black"/>
<rect x="273.652" y="65.7341" width="126.877" height="16.3864" rx="0.702273" fill="white"/>
<ellipse cx="282.782" cy="73.9273" rx="3.27727" ry="3.27727" transform="rotate(90 282.782 73.9273)" fill="#C9C9C9"/>
<rect x="290.272" y="71.1182" width="49.1591" height="5.61818" rx="0.936364" fill="#C9C9C9"/>
<rect x="273.652" y="65.7341" width="126.877" height="16.3864" rx="0.702273" stroke="#C9C9C9" stroke-width="0.468182"/>
<rect x="273.652" y="90.0795" width="126.877" height="16.3864" rx="0.702273" fill="white"/>
<ellipse cx="282.782" cy="98.2728" rx="3.27727" ry="3.27727" transform="rotate(90 282.782 98.2728)" fill="#C9C9C9"/>
<rect x="290.272" y="95.4636" width="49.1591" height="5.61818" rx="0.936364" fill="#C9C9C9"/>
<rect x="273.652" y="90.0795" width="126.877" height="16.3864" rx="0.702273" stroke="#C9C9C9" stroke-width="0.468182"/>
<rect x="273.652" y="114.425" width="126.877" height="16.3864" rx="0.702273" fill="white"/>
<ellipse cx="282.782" cy="122.618" rx="3.27727" ry="3.27727" transform="rotate(90 282.782 122.618)" fill="#C9C9C9"/>
<rect x="290.272" y="119.809" width="49.1591" height="5.61818" rx="0.936364" fill="#C9C9C9"/>
<rect x="273.652" y="114.425" width="126.877" height="16.3864" rx="0.702273" stroke="#C9C9C9" stroke-width="0.468182"/>
<rect x="273.652" y="138.77" width="126.877" height="16.3864" rx="0.702273" fill="white"/>
<ellipse cx="282.782" cy="146.964" rx="3.27727" ry="3.27727" transform="rotate(90 282.782 146.964)" fill="#C9C9C9"/>
<rect x="290.272" y="144.155" width="49.1591" height="5.61818" rx="0.936364" fill="#C9C9C9"/>
<rect x="273.652" y="138.77" width="126.877" height="16.3864" rx="0.702273" stroke="#C9C9C9" stroke-width="0.468182"/>
<rect x="273.652" y="168.734" width="31.5136" height="17.0227" rx="0.702273" fill="white"/>
<path d="M283.55 175.018C283.048 175.018 282.652 175.186 282.364 175.523C282.075 175.859 281.931 176.32 281.931 176.906C281.931 177.487 282.064 177.948 282.331 178.289C282.602 178.625 283.006 178.793 283.544 178.793C283.745 178.793 283.937 178.776 284.12 178.741C284.304 178.706 284.485 178.662 284.664 178.61V179.121C284.49 179.186 284.308 179.235 284.12 179.265C283.937 179.296 283.716 179.311 283.458 179.311C282.982 179.311 282.584 179.213 282.265 179.016C281.946 178.819 281.706 178.54 281.544 178.177C281.387 177.814 281.309 177.388 281.309 176.899C281.309 176.427 281.394 176.012 281.564 175.654C281.739 175.291 281.995 175.009 282.331 174.808C282.667 174.603 283.076 174.5 283.557 174.5C284.051 174.5 284.481 174.592 284.848 174.775L284.612 175.273C284.468 175.208 284.306 175.149 284.127 175.096C283.952 175.044 283.76 175.018 283.55 175.018ZM286.184 179.245H285.607V174.264H286.184V179.245ZM290.351 177.482C290.351 178.063 290.203 178.514 289.906 178.833C289.613 179.152 289.215 179.311 288.713 179.311C288.403 179.311 288.125 179.241 287.88 179.101C287.64 178.957 287.45 178.75 287.31 178.479C287.17 178.203 287.1 177.871 287.1 177.482C287.1 176.901 287.245 176.453 287.533 176.139C287.826 175.824 288.226 175.667 288.733 175.667C289.047 175.667 289.327 175.739 289.571 175.883C289.816 176.023 290.006 176.228 290.142 176.499C290.282 176.766 290.351 177.093 290.351 177.482ZM287.697 177.482C287.697 177.897 287.778 178.227 287.939 178.472C288.105 178.712 288.368 178.833 288.726 178.833C289.08 178.833 289.34 178.712 289.506 178.472C289.672 178.227 289.755 177.897 289.755 177.482C289.755 177.067 289.672 176.742 289.506 176.506C289.34 176.27 289.078 176.152 288.719 176.152C288.361 176.152 288.101 176.27 287.939 176.506C287.778 176.742 287.697 177.067 287.697 177.482ZM293.553 178.275C293.553 178.616 293.426 178.874 293.173 179.049C292.92 179.224 292.579 179.311 292.151 179.311C291.906 179.311 291.694 179.291 291.515 179.252C291.34 179.213 291.185 179.158 291.049 179.088V178.564C291.189 178.634 291.357 178.699 291.554 178.76C291.755 178.817 291.958 178.846 292.164 178.846C292.456 178.846 292.668 178.8 292.799 178.708C292.93 178.612 292.996 178.485 292.996 178.328C292.996 178.24 292.972 178.162 292.924 178.092C292.876 178.022 292.788 177.952 292.662 177.882C292.539 177.812 292.362 177.734 292.131 177.646C291.904 177.559 291.709 177.471 291.547 177.384C291.386 177.297 291.261 177.192 291.174 177.069C291.086 176.947 291.043 176.79 291.043 176.597C291.043 176.3 291.163 176.071 291.403 175.909C291.648 175.748 291.967 175.667 292.36 175.667C292.574 175.667 292.773 175.689 292.957 175.732C293.145 175.776 293.319 175.833 293.481 175.903L293.284 176.361C293.136 176.3 292.981 176.248 292.819 176.204C292.657 176.16 292.491 176.139 292.321 176.139C292.085 176.139 291.904 176.178 291.777 176.257C291.655 176.331 291.593 176.434 291.593 176.565C291.593 176.665 291.622 176.748 291.679 176.814C291.735 176.879 291.829 176.945 291.96 177.01C292.096 177.076 292.275 177.15 292.498 177.233C292.721 177.316 292.911 177.401 293.068 177.489C293.225 177.576 293.346 177.683 293.429 177.81C293.512 177.932 293.553 178.088 293.553 178.275ZM295.759 175.667C296.056 175.667 296.314 175.732 296.532 175.863C296.751 175.994 296.917 176.18 297.03 176.42C297.148 176.656 297.207 176.934 297.207 177.253V177.6H294.802C294.811 177.998 294.911 178.302 295.103 178.511C295.3 178.717 295.573 178.819 295.923 178.819C296.146 178.819 296.342 178.8 296.513 178.76C296.687 178.717 296.867 178.656 297.05 178.577V179.082C296.871 179.16 296.694 179.217 296.519 179.252C296.344 179.291 296.137 179.311 295.897 179.311C295.56 179.311 295.265 179.243 295.012 179.108C294.758 178.972 294.559 178.771 294.415 178.505C294.275 178.238 294.205 177.908 294.205 177.515C294.205 177.131 294.269 176.801 294.396 176.525C294.527 176.25 294.708 176.038 294.94 175.89C295.176 175.741 295.449 175.667 295.759 175.667ZM295.752 176.139C295.477 176.139 295.259 176.228 295.097 176.407C294.94 176.582 294.846 176.827 294.815 177.141H296.604C296.6 176.844 296.53 176.604 296.395 176.42C296.259 176.233 296.045 176.139 295.752 176.139Z" fill="#1B77AF"/>
<rect x="273.652" y="168.734" width="31.5136" height="17.0227" rx="0.702273" stroke="#1B77AF" stroke-width="0.468182"/>
<rect x="309.145" y="168.5" width="29.9818" height="17.4909" rx="0.936364" fill="#1B77AF"/>
<path d="M319.926 177.994C319.926 178.409 319.775 178.732 319.474 178.964C319.172 179.195 318.766 179.311 318.255 179.311C317.993 179.311 317.75 179.291 317.527 179.252C317.304 179.213 317.119 179.158 316.97 179.088V178.524C317.127 178.594 317.322 178.658 317.553 178.715C317.789 178.771 318.032 178.8 318.281 178.8C318.626 178.8 318.888 178.732 319.067 178.597C319.247 178.461 319.336 178.278 319.336 178.046C319.336 177.893 319.303 177.764 319.238 177.659C319.172 177.554 319.059 177.458 318.897 177.371C318.735 177.283 318.515 177.187 318.235 177.082C317.833 176.938 317.532 176.761 317.331 176.552C317.13 176.342 317.029 176.056 317.029 175.693C317.029 175.448 317.092 175.236 317.219 175.057C317.346 174.878 317.521 174.74 317.743 174.644C317.966 174.548 318.226 174.5 318.523 174.5C318.777 174.5 319.011 174.524 319.225 174.572C319.439 174.62 319.636 174.684 319.815 174.762L319.631 175.267C319.469 175.197 319.293 175.138 319.1 175.09C318.908 175.042 318.711 175.018 318.51 175.018C318.218 175.018 317.997 175.081 317.848 175.208C317.7 175.33 317.625 175.494 317.625 175.699C317.625 175.857 317.658 175.988 317.724 176.093C317.789 176.198 317.896 176.294 318.045 176.381C318.194 176.464 318.395 176.552 318.648 176.643C318.923 176.744 319.155 176.853 319.343 176.971C319.535 177.085 319.679 177.222 319.775 177.384C319.876 177.546 319.926 177.749 319.926 177.994ZM322.121 175.673C322.549 175.673 322.866 175.767 323.071 175.955C323.277 176.143 323.379 176.442 323.379 176.853V179.245H322.96L322.848 178.747H322.822C322.669 178.94 322.507 179.082 322.337 179.173C322.167 179.265 321.935 179.311 321.642 179.311C321.323 179.311 321.059 179.228 320.849 179.062C320.639 178.892 320.535 178.627 320.535 178.269C320.535 177.919 320.672 177.651 320.948 177.463C321.223 177.27 321.647 177.166 322.219 177.148L322.816 177.128V176.919C322.816 176.626 322.752 176.423 322.625 176.309C322.499 176.195 322.32 176.139 322.088 176.139C321.904 176.139 321.73 176.167 321.564 176.224C321.398 176.276 321.242 176.337 321.098 176.407L320.921 175.975C321.074 175.892 321.256 175.822 321.465 175.765C321.675 175.704 321.894 175.673 322.121 175.673ZM322.809 177.528L322.291 177.548C321.854 177.565 321.551 177.635 321.38 177.758C321.214 177.88 321.131 178.053 321.131 178.275C321.131 178.472 321.19 178.616 321.308 178.708C321.43 178.8 321.585 178.846 321.773 178.846C322.066 178.846 322.311 178.765 322.507 178.603C322.708 178.437 322.809 178.184 322.809 177.843V177.528ZM325.238 179.245L323.907 175.732H324.523L325.271 177.803C325.305 177.9 325.343 178.007 325.382 178.125C325.421 178.243 325.456 178.356 325.487 178.465C325.517 178.575 325.539 178.664 325.552 178.734H325.579C325.592 178.664 325.616 178.575 325.651 178.465C325.686 178.352 325.723 178.238 325.762 178.125C325.801 178.007 325.839 177.9 325.874 177.803L326.621 175.732H327.237L325.9 179.245H325.238ZM329.15 175.667C329.447 175.667 329.705 175.732 329.923 175.863C330.142 175.994 330.308 176.18 330.421 176.42C330.539 176.656 330.598 176.934 330.598 177.253V177.6H328.193C328.201 177.998 328.302 178.302 328.494 178.511C328.691 178.717 328.964 178.819 329.313 178.819C329.536 178.819 329.733 178.8 329.903 178.76C330.078 178.717 330.257 178.656 330.441 178.577V179.082C330.262 179.16 330.085 179.217 329.91 179.252C329.735 179.291 329.528 179.311 329.287 179.311C328.951 179.311 328.656 179.243 328.402 179.108C328.149 178.972 327.95 178.771 327.806 178.505C327.666 178.238 327.596 177.908 327.596 177.515C327.596 177.131 327.66 176.801 327.786 176.525C327.917 176.25 328.099 176.038 328.33 175.89C328.566 175.741 328.839 175.667 329.15 175.667ZM329.143 176.139C328.868 176.139 328.649 176.228 328.488 176.407C328.33 176.582 328.236 176.827 328.206 177.141H329.995C329.991 176.844 329.921 176.604 329.785 176.42C329.65 176.233 329.436 176.139 329.143 176.139Z" fill="white"/>
</g>
<g filter="url(#filter2_i_9554_687149)">
<rect width="412" height="27.1545" fill="white"/>
<path d="M0 0H22.3601L36.05 27.1545H0V0Z" fill="#DA291C"/>
<line y1="26.9205" x2="36.05" y2="26.9205" stroke="#C9C9C9" stroke-width="0.468182"/>
<path d="M10.7392 16.0368H14.472L15.0802 17.4538H10.0397L9.23387 19.0847H7.00635L12.5257 8.35437H14.069L19.5884 19.0847H17.3685L13.3012 10.7971L10.7392 16.0368Z" fill="white"/>
<rect x="43.541" y="10.7682" width="56.1818" height="5.61818" rx="0.936364" fill="#C9C9C9"/>
<g clip-path="url(#clip2_9554_687149)">
<rect x="234.093" y="5.38412" width="93.1682" height="16.3864" rx="0.702273" fill="white"/>
<g clip-path="url(#clip3_9554_687149)">
<path fill-rule="evenodd" clip-rule="evenodd" d="M242.576 10.6509C241.317 10.6509 240.296 11.6718 240.296 12.9312C240.296 14.1906 241.317 15.2116 242.576 15.2116C243.836 15.2116 244.857 14.1906 244.857 12.9312C244.857 11.6718 243.836 10.6509 242.576 10.6509ZM239.945 12.9312C239.945 11.4781 241.123 10.3 242.576 10.3C244.03 10.3 245.208 11.4781 245.208 12.9312C245.208 14.3844 244.03 15.5624 242.576 15.5624C241.123 15.5624 239.945 14.3844 239.945 12.9312Z" fill="#939393"/>
<path fill-rule="evenodd" clip-rule="evenodd" d="M244.3 14.6549C244.369 14.5864 244.48 14.5864 244.548 14.6549L245.414 15.5202C245.482 15.5887 245.482 15.6998 245.414 15.7683C245.345 15.8368 245.234 15.8368 245.165 15.7683L244.3 14.9029C244.232 14.8344 244.232 14.7234 244.3 14.6549Z" fill="#939393"/>
<path fill-rule="evenodd" clip-rule="evenodd" d="M245.774 15.7917C245.678 15.6965 245.532 15.6965 245.437 15.7917C245.342 15.8869 245.342 16.0331 245.437 16.1283L245.741 16.4324C245.744 16.4355 245.747 16.4388 245.75 16.4422C245.816 16.5185 245.977 16.5333 246.078 16.4324C246.173 16.3371 246.173 16.1909 246.078 16.0957L245.774 15.7917ZM245.189 15.5436C245.421 15.3114 245.789 15.3114 246.022 15.5436L246.326 15.8477C246.558 16.0799 246.558 16.4482 246.326 16.6804C246.101 16.9052 245.705 16.9215 245.489 16.6762L245.189 16.3764C244.957 16.1442 244.957 15.7758 245.189 15.5436Z" fill="#939393"/>
</g>
<rect x="234.093" y="5.38412" width="93.1682" height="16.3864" rx="0.702273" stroke="#C9C9C9" stroke-width="0.468182"/>
<path d="M346.223 18.4932C343.508 18.4932 341.307 16.2923 341.307 13.5773C341.307 10.8623 343.508 8.66138 346.223 8.66138C348.938 8.66138 351.139 10.8623 351.139 13.5773C351.139 16.2923 348.938 18.4932 346.223 18.4932Z" fill="#C9C9C9"/>
<path d="M368.696 18.4932C365.981 18.4932 363.78 16.2923 363.78 13.5773C363.78 10.8623 365.981 8.66138 368.696 8.66138C371.411 8.66138 373.612 10.8623 373.612 13.5773C373.612 16.2923 371.411 18.4932 368.696 18.4932Z" fill="#C9C9C9"/>
<circle cx="395.382" cy="13.5773" r="9.36364" fill="white"/>
<g clip-path="url(#clip4_9554_687149)">
<path d="M390.031 21.2615V20.1714C390.031 18.7523 390.595 17.3913 391.598 16.3879C392.602 15.3844 393.963 14.8207 395.382 14.8207C396.801 14.8207 398.162 15.3844 399.165 16.3879C400.169 17.3913 400.732 18.7523 400.732 20.1714V21.2615C402.368 20.1224 403.598 18.4909 404.242 16.6045C404.887 14.7181 404.913 12.6752 404.316 10.7733C403.719 8.87128 402.53 7.20944 400.923 6.02963C399.317 4.84983 397.375 4.21362 395.382 4.21362C393.388 4.21362 391.447 4.84983 389.84 6.02963C388.233 7.20944 387.045 8.87128 386.448 10.7733C385.851 12.6752 385.876 14.7181 386.521 16.6045C387.165 18.4909 388.395 20.1224 390.031 21.2615ZM395.382 7.31642C395.989 7.31642 396.582 7.49646 397.087 7.83379C397.592 8.17112 397.986 8.65058 398.218 9.21154C398.45 9.77249 398.511 10.3898 398.393 10.9853C398.274 11.5808 397.982 12.1278 397.552 12.5571C397.123 12.9865 396.576 13.2788 395.981 13.3973C395.385 13.5158 394.768 13.455 394.207 13.2226C393.646 12.9902 393.166 12.5968 392.829 12.0919C392.492 11.5871 392.312 10.9935 392.312 10.3864C392.314 9.5727 392.638 8.79287 393.213 8.21753C393.788 7.64219 394.568 7.31818 395.382 7.31642Z" fill="#C9C9C9"/>
</g>
</g>
</g>
</g>
<defs>
<filter id="filter0_i_9554_687149" x="0" y="27.1545" width="93.6362" height="241.582" filterUnits="userSpaceOnUse" color-interpolation-filters="sRGB">
<feFlood flood-opacity="0" result="BackgroundImageFix"/>
<feBlend mode="normal" in="SourceGraphic" in2="BackgroundImageFix" result="shape"/>
<feColorMatrix in="SourceAlpha" type="matrix" values="0 0 0 0 0 0 0 0 0 0 0 0 0 0 0 0 0 0 127 0" result="hardAlpha"/>
<feOffset dx="-0.468182"/>
<feComposite in2="hardAlpha" operator="arithmetic" k2="-1" k3="1"/>
<feColorMatrix type="matrix" values="0 0 0 0 0.788235 0 0 0 0 0.788235 0 0 0 0 0.788235 0 0 0 1 0"/>
<feBlend mode="normal" in2="shape" result="effect1_innerShadow_9554_687149"/>
</filter>
<filter id="filter1_d_9554_687149" x="254.691" y="23.4091" width="164.8" height="256.564" filterUnits="userSpaceOnUse" color-interpolation-filters="sRGB">
<feFlood flood-opacity="0" result="BackgroundImageFix"/>
<feColorMatrix in="SourceAlpha" type="matrix" values="0 0 0 0 0 0 0 0 0 0 0 0 0 0 0 0 0 0 127 0" result="hardAlpha"/>
<feOffset dy="3.74546"/>
<feGaussianBlur stdDeviation="3.74546"/>
<feColorMatrix type="matrix" values="0 0 0 0 0 0 0 0 0 0 0 0 0 0 0 0 0 0 0.25 0"/>
<feBlend mode="normal" in2="BackgroundImageFix" result="effect1_dropShadow_9554_687149"/>
<feBlend mode="normal" in="SourceGraphic" in2="effect1_dropShadow_9554_687149" result="shape"/>
</filter>
<filter id="filter2_i_9554_687149" x="0" y="0" width="412" height="27.1545" filterUnits="userSpaceOnUse" color-interpolation-filters="sRGB">
<feFlood flood-opacity="0" result="BackgroundImageFix"/>
<feBlend mode="normal" in="SourceGraphic" in2="BackgroundImageFix" result="shape"/>
<feColorMatrix in="SourceAlpha" type="matrix" values="0 0 0 0 0 0 0 0 0 0 0 0 0 0 0 0 0 0 127 0" result="hardAlpha"/>
<feOffset dy="-0.468182"/>
<feComposite in2="hardAlpha" operator="arithmetic" k2="-1" k3="1"/>
<feColorMatrix type="matrix" values="0 0 0 0 0.788235 0 0 0 0 0.788235 0 0 0 0 0.788235 0 0 0 1 0"/>
<feBlend mode="normal" in2="shape" result="effect1_innerShadow_9554_687149"/>
</filter>
<clipPath id="clip0_9554_687149">
<rect width="412" height="268.736" fill="white"/>
</clipPath>
<clipPath id="clip1_9554_687149">
<rect width="93.6364" height="241.582" fill="white" transform="translate(0 27.1545)"/>
</clipPath>
<clipPath id="clip2_9554_687149">
<rect width="304.786" height="27.1545" fill="white" transform="translate(107.214)"/>
</clipPath>
<clipPath id="clip3_9554_687149">
<rect width="7.49091" height="7.49091" fill="white" transform="translate(239.478 9.83179)"/>
</clipPath>
<clipPath id="clip4_9554_687149">
<rect width="18.7273" height="17.1667" fill="white" transform="translate(386.018 4.21362)"/>
</clipPath>
</defs>
</svg>
