<svg width="952" height="448" viewBox="0 0 952 448" fill="none" xmlns="http://www.w3.org/2000/svg">
<g clip-path="url(#clip0_9559_639996)">
<rect width="952" height="448" fill="#F1F1F1"/>
<g filter="url(#filter0_d_9559_639996)">
<g clip-path="url(#clip1_9559_639996)">
<g clip-path="url(#clip2_9559_639996)">
<rect width="927.273" height="703.636" transform="translate(0.728027 119.092)" fill="#F1F1F1"/>
<rect x="12.3195" y="130.678" width="904.091" height="680.454" rx="4.77273" fill="white"/>
<rect x="12.3195" y="130.678" width="904.091" height="680.454" rx="4.77273" stroke="#C9C9C9" stroke-width="1.36364"/>
<rect x="-271.318" y="40.6818" width="1198.64" height="781.364" rx="10.2273" stroke="#C9C9C9" stroke-width="1.36364"/>
<rect x="55.9538" y="185.229" width="271.364" height="31.3636" stroke="#C9C9C9" stroke-width="1.36364"/>
<rect x="55.9538" y="234.32" width="271.364" height="31.3636" rx="0.681818" stroke="#C9C9C9" stroke-width="1.36364"/>
<rect x="345.045" y="234.32" width="271.364" height="31.3636" rx="0.681818" stroke="#C9C9C9" stroke-width="1.36364"/>
<rect x="55.9538" y="283.41" width="271.364" height="31.3636" rx="0.681818" stroke="#C9C9C9" stroke-width="1.36364"/>
<rect x="345.045" y="283.41" width="271.364" height="31.3636" rx="0.681818" stroke="#C9C9C9" stroke-width="1.36364"/>
<rect x="55.9538" y="332.502" width="271.364" height="31.3636" stroke="#C9C9C9" stroke-width="1.36364"/>
<rect x="55.9538" y="381.592" width="271.364" height="31.3636" stroke="#C9C9C9" stroke-width="1.36364"/>
<rect x="55.9538" y="430.683" width="271.364" height="31.3636" stroke="#C9C9C9" stroke-width="1.36364"/>
<rect opacity="0.3" x="-272" y="40" width="1200" height="782.727" fill="#242424"/>
<g filter="url(#filter1_d_9559_639996)">
<rect width="436.364" height="703.636" transform="translate(491.636 119.092)" fill="white"/>
<path d="M532.732 186.229H530.4V169.776H524.622V167.729H538.484V169.776H532.732V186.229ZM542.128 167.134C542.474 167.134 542.776 167.254 543.035 167.496C543.311 167.721 543.45 168.084 543.45 168.584C543.45 169.085 543.311 169.457 543.035 169.699C542.776 169.923 542.474 170.035 542.128 170.035C541.748 170.035 541.429 169.923 541.17 169.699C540.91 169.457 540.781 169.085 540.781 168.584C540.781 168.084 540.91 167.721 541.17 167.496C541.429 167.254 541.748 167.134 542.128 167.134ZM543.242 172.341V186.229H540.962V172.341H543.242ZM552.28 184.622C552.625 184.622 552.979 184.596 553.342 184.544C553.705 184.493 553.998 184.424 554.223 184.337V186.073C553.981 186.194 553.636 186.289 553.187 186.358C552.737 186.444 552.306 186.488 551.891 186.488C551.166 186.488 550.492 186.367 549.87 186.125C549.266 185.866 548.773 185.425 548.393 184.804C548.013 184.182 547.823 183.309 547.823 182.187V174.103H545.854V173.015L547.849 172.108L548.756 169.154H550.103V172.341H554.119V174.103H550.103V182.135C550.103 182.981 550.302 183.612 550.699 184.026C551.114 184.424 551.641 184.622 552.28 184.622ZM559.284 186.229H557.004V166.538H559.284V186.229ZM569.047 172.082C570.221 172.082 571.24 172.341 572.104 172.859C572.967 173.378 573.624 174.112 574.073 175.062C574.539 175.994 574.772 177.091 574.772 178.352V179.725H565.264C565.298 181.297 565.696 182.498 566.456 183.327C567.233 184.139 568.312 184.544 569.694 184.544C570.575 184.544 571.352 184.467 572.026 184.311C572.717 184.139 573.425 183.897 574.151 183.586V185.581C573.442 185.892 572.743 186.116 572.052 186.254C571.361 186.41 570.541 186.488 569.591 186.488C568.261 186.488 567.095 186.22 566.093 185.684C565.091 185.149 564.305 184.354 563.735 183.301C563.182 182.247 562.906 180.943 562.906 179.389C562.906 177.869 563.157 176.564 563.657 175.476C564.176 174.388 564.892 173.55 565.808 172.963C566.741 172.376 567.82 172.082 569.047 172.082ZM569.021 173.948C567.932 173.948 567.069 174.302 566.43 175.01C565.808 175.701 565.437 176.668 565.316 177.912H572.389C572.372 176.737 572.095 175.787 571.56 175.062C571.024 174.319 570.178 173.948 569.021 173.948Z" fill="black"/>
<rect x="706.772" y="152.501" width="91.2727" height="48.4545" rx="2.04545" fill="white"/>
<path d="M735.602 171.415C734.139 171.415 732.987 171.905 732.147 172.885C731.307 173.865 730.887 175.208 730.887 176.913C730.887 178.606 731.275 179.949 732.051 180.941C732.841 181.921 734.018 182.411 735.583 182.411C736.169 182.411 736.729 182.36 737.263 182.259C737.798 182.157 738.326 182.029 738.848 181.877V183.366C738.339 183.557 737.811 183.697 737.263 183.786C736.729 183.875 736.086 183.919 735.335 183.919C733.948 183.919 732.79 183.633 731.861 183.06C730.931 182.488 730.231 181.673 729.761 180.617C729.302 179.56 729.073 178.319 729.073 176.894C729.073 175.519 729.321 174.31 729.818 173.267C730.327 172.21 731.071 171.389 732.051 170.804C733.031 170.206 734.221 169.907 735.621 169.907C737.06 169.907 738.313 170.174 739.382 170.709L738.695 172.159C738.275 171.969 737.804 171.797 737.282 171.644C736.773 171.491 736.213 171.415 735.602 171.415ZM743.274 183.729H741.594V169.219H743.274V183.729ZM755.412 178.593C755.412 180.286 754.979 181.597 754.114 182.526C753.261 183.455 752.103 183.919 750.639 183.919C749.736 183.919 748.927 183.716 748.215 183.309C747.515 182.889 746.961 182.284 746.554 181.495C746.147 180.693 745.943 179.726 745.943 178.593C745.943 176.9 746.363 175.596 747.203 174.679C748.056 173.763 749.22 173.305 750.697 173.305C751.613 173.305 752.427 173.515 753.14 173.935C753.853 174.342 754.407 174.94 754.801 175.729C755.208 176.506 755.412 177.46 755.412 178.593ZM747.68 178.593C747.68 179.802 747.916 180.763 748.387 181.476C748.87 182.176 749.634 182.526 750.677 182.526C751.708 182.526 752.466 182.176 752.949 181.476C753.433 180.763 753.675 179.802 753.675 178.593C753.675 177.384 753.433 176.436 752.949 175.749C752.466 175.061 751.702 174.718 750.658 174.718C749.615 174.718 748.857 175.061 748.387 175.749C747.916 176.436 747.68 177.384 747.68 178.593ZM764.737 180.903C764.737 181.896 764.368 182.647 763.63 183.156C762.892 183.665 761.899 183.919 760.652 183.919C759.939 183.919 759.322 183.862 758.8 183.748C758.291 183.633 757.839 183.474 757.445 183.27V181.743C757.852 181.947 758.342 182.138 758.915 182.316C759.5 182.481 760.092 182.564 760.69 182.564C761.543 182.564 762.16 182.43 762.542 182.163C762.924 181.883 763.115 181.514 763.115 181.056C763.115 180.801 763.045 180.572 762.905 180.369C762.765 180.165 762.51 179.961 762.141 179.758C761.785 179.554 761.269 179.325 760.595 179.07C759.933 178.816 759.366 178.561 758.895 178.307C758.425 178.052 758.062 177.747 757.807 177.39C757.553 177.034 757.425 176.576 757.425 176.016C757.425 175.15 757.775 174.482 758.475 174.011C759.188 173.54 760.117 173.305 761.263 173.305C761.886 173.305 762.465 173.369 763 173.496C763.547 173.623 764.056 173.789 764.527 173.992L763.955 175.329C763.522 175.15 763.07 174.998 762.599 174.87C762.128 174.743 761.645 174.679 761.148 174.679C760.461 174.679 759.933 174.794 759.564 175.023C759.207 175.239 759.029 175.539 759.029 175.92C759.029 176.213 759.112 176.455 759.277 176.646C759.443 176.837 759.716 177.028 760.098 177.219C760.493 177.409 761.015 177.626 761.664 177.868C762.313 178.109 762.866 178.358 763.325 178.612C763.783 178.867 764.133 179.179 764.375 179.548C764.616 179.904 764.737 180.356 764.737 180.903ZM771.162 173.305C772.027 173.305 772.778 173.496 773.414 173.878C774.051 174.259 774.534 174.8 774.865 175.5C775.209 176.188 775.381 176.996 775.381 177.925V178.937H768.374C768.4 180.095 768.693 180.979 769.253 181.59C769.825 182.189 770.621 182.488 771.639 182.488C772.288 182.488 772.861 182.43 773.357 182.316C773.866 182.189 774.388 182.01 774.923 181.781V183.251C774.401 183.48 773.885 183.646 773.376 183.748C772.867 183.862 772.263 183.919 771.563 183.919C770.583 183.919 769.723 183.722 768.985 183.328C768.247 182.933 767.668 182.348 767.248 181.571C766.841 180.795 766.637 179.834 766.637 178.689C766.637 177.569 766.822 176.608 767.191 175.806C767.573 175.004 768.101 174.387 768.775 173.954C769.463 173.521 770.258 173.305 771.162 173.305ZM771.143 174.679C770.341 174.679 769.704 174.94 769.233 175.462C768.775 175.971 768.502 176.684 768.413 177.6H773.624C773.612 176.735 773.408 176.035 773.013 175.5C772.619 174.953 771.995 174.679 771.143 174.679Z" fill="#1B77AF"/>
<rect x="706.772" y="152.501" width="91.2727" height="48.4545" rx="2.04545" stroke="#1B77AF" stroke-width="1.36364"/>
<rect x="809.636" y="151.819" width="85.6364" height="49.8182" rx="2.72727" fill="#1B77AF"/>
<path d="M841.038 180.082C841.038 181.291 840.599 182.233 839.72 182.908C838.842 183.582 837.659 183.919 836.17 183.919C835.406 183.919 834.7 183.862 834.05 183.748C833.401 183.633 832.86 183.474 832.428 183.27V181.629C832.886 181.832 833.452 182.017 834.127 182.182C834.814 182.348 835.52 182.43 836.246 182.43C837.251 182.43 838.015 182.233 838.537 181.839C839.059 181.444 839.32 180.909 839.32 180.235C839.32 179.789 839.224 179.414 839.033 179.109C838.842 178.803 838.511 178.523 838.04 178.269C837.57 178.014 836.927 177.734 836.112 177.429C834.941 177.009 834.063 176.493 833.478 175.882C832.892 175.271 832.6 174.438 832.6 173.381C832.6 172.669 832.784 172.051 833.153 171.529C833.522 171.008 834.031 170.607 834.68 170.327C835.33 170.047 836.087 169.907 836.952 169.907C837.69 169.907 838.371 169.977 838.995 170.117C839.619 170.257 840.191 170.441 840.713 170.67L840.179 172.14C839.708 171.937 839.192 171.765 838.632 171.625C838.072 171.485 837.5 171.415 836.914 171.415C836.061 171.415 835.419 171.599 834.986 171.969C834.553 172.325 834.337 172.802 834.337 173.4C834.337 173.859 834.432 174.24 834.623 174.546C834.814 174.851 835.126 175.131 835.559 175.386C835.991 175.628 836.577 175.882 837.315 176.149C838.117 176.442 838.791 176.76 839.339 177.104C839.899 177.435 840.319 177.836 840.599 178.307C840.891 178.778 841.038 179.369 841.038 180.082ZM847.43 173.324C848.677 173.324 849.6 173.598 850.198 174.145C850.796 174.692 851.095 175.564 851.095 176.76V183.729H849.874L849.549 182.278H849.473C849.027 182.838 848.556 183.251 848.06 183.519C847.564 183.786 846.889 183.919 846.036 183.919C845.107 183.919 844.337 183.678 843.726 183.194C843.115 182.698 842.81 181.928 842.81 180.884C842.81 179.866 843.211 179.083 844.013 178.536C844.814 177.976 846.049 177.67 847.716 177.619L849.454 177.562V176.951C849.454 176.099 849.269 175.507 848.9 175.176C848.531 174.845 848.009 174.679 847.334 174.679C846.8 174.679 846.291 174.762 845.807 174.928C845.324 175.08 844.872 175.259 844.452 175.462L843.936 174.202C844.382 173.96 844.91 173.757 845.521 173.591C846.132 173.413 846.768 173.324 847.43 173.324ZM849.434 178.727L847.926 178.784C846.654 178.835 845.769 179.039 845.273 179.395C844.789 179.751 844.547 180.254 844.547 180.903C844.547 181.476 844.719 181.896 845.063 182.163C845.419 182.43 845.871 182.564 846.418 182.564C847.271 182.564 847.984 182.329 848.556 181.858C849.142 181.374 849.434 180.636 849.434 179.643V178.727ZM856.509 183.729L852.633 173.496H854.428L856.604 179.529C856.706 179.809 856.814 180.12 856.929 180.464C857.043 180.808 857.145 181.139 857.234 181.457C857.323 181.775 857.387 182.036 857.425 182.239H857.501C857.539 182.036 857.609 181.775 857.711 181.457C857.813 181.126 857.921 180.795 858.036 180.464C858.15 180.12 858.259 179.809 858.36 179.529L860.537 173.496H862.331L858.437 183.729H856.509ZM867.902 173.305C868.768 173.305 869.519 173.496 870.155 173.878C870.791 174.259 871.275 174.8 871.606 175.5C871.949 176.188 872.121 176.996 872.121 177.925V178.937H865.115C865.14 180.095 865.433 180.979 865.993 181.59C866.566 182.189 867.361 182.488 868.379 182.488C869.029 182.488 869.601 182.43 870.098 182.316C870.607 182.189 871.129 182.01 871.663 181.781V183.251C871.141 183.48 870.626 183.646 870.117 183.748C869.608 183.862 869.003 183.919 868.303 183.919C867.323 183.919 866.464 183.722 865.726 183.328C864.988 182.933 864.409 182.348 863.989 181.571C863.581 180.795 863.378 179.834 863.378 178.689C863.378 177.569 863.562 176.608 863.931 175.806C864.313 175.004 864.841 174.387 865.516 173.954C866.203 173.521 866.999 173.305 867.902 173.305ZM867.883 174.679C867.081 174.679 866.445 174.94 865.974 175.462C865.516 175.971 865.242 176.684 865.153 177.6H870.365C870.352 176.735 870.149 176.035 869.754 175.5C869.359 174.953 868.736 174.679 867.883 174.679Z" fill="white"/>
<rect x="525.045" y="240.501" width="369.545" height="47.7273" rx="2.04545" fill="white"/>
<ellipse cx="551.636" cy="264.365" rx="9.54545" ry="9.54545" transform="rotate(90 551.636 264.365)" fill="#C9C9C9"/>
<rect x="573.454" y="256.183" width="143.182" height="16.3636" rx="2.72727" fill="#C9C9C9"/>
<rect x="525.045" y="240.501" width="369.545" height="47.7273" rx="2.04545" stroke="#C9C9C9" stroke-width="1.36364"/>
<rect x="525.045" y="311.41" width="369.545" height="47.7273" rx="2.04545" fill="white"/>
<ellipse cx="551.636" cy="335.273" rx="9.54545" ry="9.54545" transform="rotate(90 551.636 335.273)" fill="#C9C9C9"/>
<rect x="573.454" y="327.092" width="143.182" height="16.3636" rx="2.72727" fill="#C9C9C9"/>
<rect x="525.045" y="311.41" width="369.545" height="47.7273" rx="2.04545" stroke="#C9C9C9" stroke-width="1.36364"/>
<rect x="525.045" y="382.319" width="369.545" height="47.7273" rx="2.04545" fill="white"/>
<ellipse cx="551.636" cy="406.183" rx="9.54545" ry="9.54545" transform="rotate(90 551.636 406.183)" fill="#C9C9C9"/>
<rect x="573.454" y="398.001" width="143.182" height="16.3636" rx="2.72727" fill="#C9C9C9"/>
<rect x="525.045" y="382.319" width="369.545" height="47.7273" rx="2.04545" stroke="#C9C9C9" stroke-width="1.36364"/>
</g>
<g filter="url(#filter2_i_9559_639996)">
<rect width="1200" height="79.0909" transform="translate(-272 40)" fill="white"/>
<g clip-path="url(#clip3_9559_639996)">
<rect x="409.863" y="55.6818" width="271.364" height="47.7273" rx="2.04545" fill="white"/>
<path fill-rule="evenodd" clip-rule="evenodd" d="M434.572 71.0218C430.904 71.0218 427.931 73.9954 427.931 77.6636C427.931 81.3318 430.904 84.3054 434.572 84.3054C438.24 84.3054 441.214 81.3318 441.214 77.6636C441.214 73.9954 438.24 71.0218 434.572 71.0218ZM426.909 77.6636C426.909 73.4311 430.34 70 434.572 70C438.805 70 442.236 73.4311 442.236 77.6636C442.236 81.8961 438.805 85.3272 434.572 85.3272C430.34 85.3272 426.909 81.8961 426.909 77.6636Z" fill="#939393"/>
<path fill-rule="evenodd" clip-rule="evenodd" d="M439.593 82.6839C439.792 82.4844 440.116 82.4844 440.315 82.6839L442.836 85.2044C443.035 85.4039 443.035 85.7274 442.836 85.9269C442.636 86.1264 442.313 86.1264 442.113 85.9269L439.593 83.4064C439.393 83.2069 439.393 82.8834 439.593 82.6839Z" fill="#939393"/>
<path fill-rule="evenodd" clip-rule="evenodd" d="M443.884 85.995C443.607 85.7177 443.181 85.7177 442.904 85.995C442.626 86.2724 442.626 86.6982 442.904 86.9755L443.789 87.8611C443.799 87.8703 443.807 87.8799 443.816 87.8899C444.006 88.1121 444.476 88.1552 444.77 87.8611C445.047 87.5838 445.047 87.1579 444.77 86.8806L443.884 85.995ZM442.181 85.2725C442.858 84.5961 443.93 84.5961 444.607 85.2725L445.492 86.1581C446.169 86.8344 446.169 87.9073 445.492 88.5836C444.838 89.2383 443.685 89.2857 443.054 88.5712L442.181 87.6981C441.505 87.0217 441.505 85.9489 442.181 85.2725Z" fill="#939393"/>
<rect x="409.863" y="55.6818" width="271.364" height="47.7273" rx="2.04545" stroke="#C9C9C9" stroke-width="1.36364"/>
<path d="M736.455 93.8639C728.547 93.8639 722.137 87.4534 722.137 79.5457C722.137 71.638 728.547 65.2275 736.455 65.2275C744.363 65.2275 750.773 71.638 750.773 79.5457C750.773 87.4534 744.363 93.8639 736.455 93.8639Z" fill="#C9C9C9"/>
<path d="M801.909 93.8639C794.001 93.8639 787.591 87.4534 787.591 79.5457C787.591 71.638 794.001 65.2275 801.909 65.2275C809.817 65.2275 816.227 71.638 816.227 79.5457C816.227 87.4534 809.817 93.8639 801.909 93.8639Z" fill="#C9C9C9"/>
<circle cx="879.636" cy="79.5457" r="27.2727" fill="white"/>
<g clip-path="url(#clip4_9559_639996)">
<path d="M864.052 101.927V98.7518C864.052 94.6185 865.694 90.6546 868.616 87.7319C871.539 84.8093 875.503 83.1673 879.636 83.1673C883.769 83.1673 887.733 84.8093 890.656 87.7319C893.578 90.6546 895.22 94.6185 895.22 98.7518V101.927C899.985 98.6092 903.567 93.8573 905.444 88.3629C907.321 82.8685 907.396 76.9184 905.657 71.3787C903.918 65.8389 900.457 60.9986 895.777 57.5623C891.097 54.126 885.442 52.2729 879.636 52.2729C873.83 52.2729 868.175 54.126 863.495 57.5623C858.815 60.9986 855.354 65.8389 853.615 71.3787C851.876 76.9184 851.951 82.8685 853.828 88.3629C855.705 93.8573 859.287 98.6092 864.052 101.927ZM879.636 61.3102C881.404 61.3102 883.133 61.8346 884.604 62.8171C886.074 63.7996 887.22 65.1961 887.897 66.83C888.574 68.4638 888.751 70.2617 888.406 71.9962C888.061 73.7307 887.209 75.3239 885.959 76.5744C884.708 77.8249 883.115 78.6765 881.38 79.0215C879.646 79.3665 877.848 79.1894 876.214 78.5127C874.58 77.8359 873.184 76.6899 872.201 75.2194C871.219 73.749 870.694 72.0202 870.694 70.2518C870.7 67.8819 871.643 65.6106 873.319 63.9348C874.995 62.2591 877.266 61.3154 879.636 61.3102Z" fill="#C9C9C9"/>
</g>
</g>
</g>
</g>
</g>
</g>
</g>
<defs>
<filter id="filter0_d_9559_639996" x="16" y="36" width="920" height="798.727" filterUnits="userSpaceOnUse" color-interpolation-filters="sRGB">
<feFlood flood-opacity="0" result="BackgroundImageFix"/>
<feColorMatrix in="SourceAlpha" type="matrix" values="0 0 0 0 0 0 0 0 0 0 0 0 0 0 0 0 0 0 127 0" result="hardAlpha"/>
<feOffset dy="4"/>
<feGaussianBlur stdDeviation="4"/>
<feColorMatrix type="matrix" values="0 0 0 0 0 0 0 0 0 0 0 0 0 0 0 0 0 0 0.25 0"/>
<feBlend mode="normal" in2="BackgroundImageFix" result="effect1_dropShadow_9559_639996"/>
<feBlend mode="normal" in="SourceGraphic" in2="effect1_dropShadow_9559_639996" result="shape"/>
</filter>
<filter id="filter1_d_9559_639996" x="469.818" y="108.183" width="480" height="747.273" filterUnits="userSpaceOnUse" color-interpolation-filters="sRGB">
<feFlood flood-opacity="0" result="BackgroundImageFix"/>
<feColorMatrix in="SourceAlpha" type="matrix" values="0 0 0 0 0 0 0 0 0 0 0 0 0 0 0 0 0 0 127 0" result="hardAlpha"/>
<feOffset dy="10.9091"/>
<feGaussianBlur stdDeviation="10.9091"/>
<feColorMatrix type="matrix" values="0 0 0 0 0 0 0 0 0 0 0 0 0 0 0 0 0 0 0.25 0"/>
<feBlend mode="normal" in2="BackgroundImageFix" result="effect1_dropShadow_9559_639996"/>
<feBlend mode="normal" in="SourceGraphic" in2="effect1_dropShadow_9559_639996" result="shape"/>
</filter>
<filter id="filter2_i_9559_639996" x="-272" y="40" width="1200" height="79.0908" filterUnits="userSpaceOnUse" color-interpolation-filters="sRGB">
<feFlood flood-opacity="0" result="BackgroundImageFix"/>
<feBlend mode="normal" in="SourceGraphic" in2="BackgroundImageFix" result="shape"/>
<feColorMatrix in="SourceAlpha" type="matrix" values="0 0 0 0 0 0 0 0 0 0 0 0 0 0 0 0 0 0 127 0" result="hardAlpha"/>
<feOffset dy="-1.36364"/>
<feComposite in2="hardAlpha" operator="arithmetic" k2="-1" k3="1"/>
<feColorMatrix type="matrix" values="0 0 0 0 0.788235 0 0 0 0 0.788235 0 0 0 0 0.788235 0 0 0 1 0"/>
<feBlend mode="normal" in2="shape" result="effect1_innerShadow_9559_639996"/>
</filter>
<clipPath id="clip0_9559_639996">
<rect width="952" height="448" fill="white"/>
</clipPath>
<clipPath id="clip1_9559_639996">
<rect x="24" y="40" width="904" height="782.727" rx="8" fill="white"/>
</clipPath>
<clipPath id="clip2_9559_639996">
<rect x="-272" y="40" width="1200" height="782.727" rx="10.9091" fill="white"/>
</clipPath>
<clipPath id="clip3_9559_639996">
<rect width="887.727" height="79.0909" fill="white" transform="translate(40.2725 40)"/>
</clipPath>
<clipPath id="clip4_9559_639996">
<rect width="54.5456" height="50" fill="white" transform="translate(852.363 52.2729)"/>
</clipPath>
</defs>
</svg>
