<svg width="904" height="597" viewBox="0 0 904 597" fill="none" xmlns="http://www.w3.org/2000/svg">
<rect width="904" height="597" fill="#F1F1F1"/>
<g filter="url(#filter0_d_8977_658443)">
<rect width="352" height="483" transform="translate(242 58)" fill="white"/>
<path d="M272.137 107H270.427V94.935H266.19V93.434H276.355V94.935H272.137V107ZM279.028 92.997C279.281 92.997 279.503 93.0857 279.693 93.263C279.895 93.4277 279.997 93.6937 279.997 94.061C279.997 94.4283 279.895 94.7007 279.693 94.878C279.503 95.0427 279.281 95.125 279.028 95.125C278.749 95.125 278.515 95.0427 278.325 94.878C278.135 94.7007 278.04 94.4283 278.04 94.061C278.04 93.6937 278.135 93.4277 278.325 93.263C278.515 93.0857 278.749 92.997 279.028 92.997ZM279.845 96.816V107H278.173V96.816H279.845ZM286.472 105.822C286.725 105.822 286.985 105.803 287.251 105.765C287.517 105.727 287.732 105.676 287.897 105.613V106.886C287.72 106.975 287.466 107.044 287.137 107.095C286.808 107.158 286.491 107.19 286.187 107.19C285.655 107.19 285.161 107.101 284.705 106.924C284.262 106.734 283.901 106.411 283.622 105.955C283.343 105.499 283.204 104.859 283.204 104.036V98.108H281.76V97.31L283.223 96.645L283.888 94.479H284.876V96.816H287.821V98.108H284.876V103.998C284.876 104.619 285.022 105.081 285.313 105.385C285.617 105.676 286.003 105.822 286.472 105.822ZM291.608 107H289.936V92.56H291.608V107ZM298.768 96.626C299.629 96.626 300.376 96.816 301.01 97.196C301.643 97.576 302.124 98.1143 302.454 98.811C302.796 99.495 302.967 100.299 302.967 101.224V102.231H295.994C296.019 103.384 296.31 104.264 296.868 104.872C297.438 105.467 298.229 105.765 299.243 105.765C299.889 105.765 300.459 105.708 300.953 105.594C301.459 105.467 301.979 105.29 302.511 105.062V106.525C301.991 106.753 301.478 106.918 300.972 107.019C300.465 107.133 299.863 107.19 299.167 107.19C298.191 107.19 297.336 106.994 296.602 106.601C295.867 106.208 295.291 105.626 294.873 104.853C294.467 104.08 294.265 103.124 294.265 101.984C294.265 100.869 294.448 99.913 294.816 99.115C295.196 98.317 295.721 97.7027 296.393 97.272C297.077 96.8413 297.868 96.626 298.768 96.626ZM298.749 97.994C297.951 97.994 297.317 98.2537 296.849 98.773C296.393 99.2797 296.12 99.989 296.032 100.901H301.219C301.206 100.04 301.003 99.343 300.611 98.811C300.218 98.2663 299.597 97.994 298.749 97.994Z" fill="black"/>
<rect x="406.5" y="82.5" width="77" height="35" rx="1.5" fill="white"/>
<path d="M423.358 95.004H426.214C427.455 95.004 428.398 95.1907 429.042 95.564C429.686 95.9373 430.008 96.5767 430.008 97.482C430.008 98.07 429.845 98.56 429.518 98.952C429.191 99.3347 428.72 99.582 428.104 99.694V99.764C428.524 99.8387 428.902 99.9647 429.238 100.142C429.583 100.319 429.854 100.571 430.05 100.898C430.246 101.225 430.344 101.645 430.344 102.158C430.344 103.063 430.031 103.763 429.406 104.258C428.79 104.753 427.945 105 426.872 105H423.358V95.004ZM424.618 99.26H426.466C427.315 99.26 427.899 99.1247 428.216 98.854C428.543 98.574 428.706 98.1633 428.706 97.622C428.706 97.0713 428.51 96.6793 428.118 96.446C427.735 96.2033 427.119 96.082 426.27 96.082H424.618V99.26ZM424.618 100.31V103.936H426.634C427.521 103.936 428.137 103.763 428.482 103.418C428.827 103.073 429 102.62 429 102.06C429 101.537 428.818 101.117 428.454 100.8C428.099 100.473 427.46 100.31 426.536 100.31H424.618ZM438.567 97.496V105H437.559L437.377 104.006H437.321C437.079 104.398 436.743 104.687 436.313 104.874C435.884 105.051 435.427 105.14 434.941 105.14C434.036 105.14 433.355 104.925 432.897 104.496C432.44 104.057 432.211 103.362 432.211 102.41V97.496H433.457V102.326C433.457 103.521 434.013 104.118 435.123 104.118C435.954 104.118 436.528 103.885 436.845 103.418C437.172 102.951 437.335 102.279 437.335 101.402V97.496H438.567ZM443.456 104.132C443.642 104.132 443.834 104.118 444.03 104.09C444.226 104.062 444.384 104.025 444.506 103.978V104.916C444.375 104.981 444.188 105.033 443.946 105.07C443.703 105.117 443.47 105.14 443.246 105.14C442.854 105.14 442.49 105.075 442.154 104.944C441.827 104.804 441.561 104.566 441.356 104.23C441.15 103.894 441.048 103.423 441.048 102.816V98.448H439.984V97.86L441.062 97.37L441.552 95.774H442.28V97.496H444.45V98.448H442.28V102.788C442.28 103.245 442.387 103.586 442.602 103.81C442.826 104.025 443.11 104.132 443.456 104.132ZM448.514 104.132C448.701 104.132 448.892 104.118 449.088 104.09C449.284 104.062 449.443 104.025 449.564 103.978V104.916C449.434 104.981 449.247 105.033 449.004 105.07C448.762 105.117 448.528 105.14 448.304 105.14C447.912 105.14 447.548 105.075 447.212 104.944C446.886 104.804 446.62 104.566 446.414 104.23C446.209 103.894 446.106 103.423 446.106 102.816V98.448H445.042V97.86L446.12 97.37L446.61 95.774H447.338V97.496H449.508V98.448H447.338V102.788C447.338 103.245 447.446 103.586 447.66 103.81C447.884 104.025 448.169 104.132 448.514 104.132ZM457.591 101.234C457.591 102.475 457.274 103.437 456.639 104.118C456.014 104.799 455.164 105.14 454.091 105.14C453.428 105.14 452.836 104.991 452.313 104.692C451.8 104.384 451.394 103.941 451.095 103.362C450.796 102.774 450.647 102.065 450.647 101.234C450.647 99.9927 450.955 99.036 451.571 98.364C452.196 97.692 453.05 97.356 454.133 97.356C454.805 97.356 455.402 97.51 455.925 97.818C456.448 98.1167 456.854 98.5553 457.143 99.134C457.442 99.7033 457.591 100.403 457.591 101.234ZM451.921 101.234C451.921 102.121 452.094 102.825 452.439 103.348C452.794 103.861 453.354 104.118 454.119 104.118C454.875 104.118 455.43 103.861 455.785 103.348C456.14 102.825 456.317 102.121 456.317 101.234C456.317 100.347 456.14 99.652 455.785 99.148C455.43 98.644 454.87 98.392 454.105 98.392C453.34 98.392 452.784 98.644 452.439 99.148C452.094 99.652 451.921 100.347 451.921 101.234ZM463.156 97.356C464.052 97.356 464.728 97.5753 465.186 98.014C465.643 98.4527 465.872 99.1527 465.872 100.114V105H464.654V100.198C464.654 98.994 464.094 98.392 462.974 98.392C462.143 98.392 461.569 98.6253 461.252 99.092C460.934 99.5587 460.776 100.231 460.776 101.108V105H459.544V97.496H460.538L460.72 98.518H460.79C461.032 98.126 461.368 97.8367 461.798 97.65C462.227 97.454 462.68 97.356 463.156 97.356Z" fill="#1B77AF"/>
<rect x="406.5" y="82.5" width="77" height="35" rx="1.5" stroke="#1B77AF"/>
<rect x="492" y="82" width="78" height="36" rx="2" fill="#1B77AF"/>
<path d="M509.358 95.004H512.214C513.455 95.004 514.398 95.1907 515.042 95.564C515.686 95.9373 516.008 96.5767 516.008 97.482C516.008 98.07 515.845 98.56 515.518 98.952C515.191 99.3347 514.72 99.582 514.104 99.694V99.764C514.524 99.8387 514.902 99.9647 515.238 100.142C515.583 100.319 515.854 100.571 516.05 100.898C516.246 101.225 516.344 101.645 516.344 102.158C516.344 103.063 516.031 103.763 515.406 104.258C514.79 104.753 513.945 105 512.872 105H509.358V95.004ZM510.618 99.26H512.466C513.315 99.26 513.899 99.1247 514.216 98.854C514.543 98.574 514.706 98.1633 514.706 97.622C514.706 97.0713 514.51 96.6793 514.118 96.446C513.735 96.2033 513.119 96.082 512.27 96.082H510.618V99.26ZM510.618 100.31V103.936H512.634C513.521 103.936 514.137 103.763 514.482 103.418C514.827 103.073 515 102.62 515 102.06C515 101.537 514.818 101.117 514.454 100.8C514.099 100.473 513.46 100.31 512.536 100.31H510.618ZM524.567 97.496V105H523.559L523.377 104.006H523.321C523.079 104.398 522.743 104.687 522.313 104.874C521.884 105.051 521.427 105.14 520.941 105.14C520.036 105.14 519.355 104.925 518.897 104.496C518.44 104.057 518.211 103.362 518.211 102.41V97.496H519.457V102.326C519.457 103.521 520.013 104.118 521.123 104.118C521.954 104.118 522.528 103.885 522.845 103.418C523.172 102.951 523.335 102.279 523.335 101.402V97.496H524.567ZM529.456 104.132C529.642 104.132 529.834 104.118 530.03 104.09C530.226 104.062 530.384 104.025 530.506 103.978V104.916C530.375 104.981 530.188 105.033 529.946 105.07C529.703 105.117 529.47 105.14 529.246 105.14C528.854 105.14 528.49 105.075 528.154 104.944C527.827 104.804 527.561 104.566 527.356 104.23C527.15 103.894 527.048 103.423 527.048 102.816V98.448H525.984V97.86L527.062 97.37L527.552 95.774H528.28V97.496H530.45V98.448H528.28V102.788C528.28 103.245 528.387 103.586 528.602 103.81C528.826 104.025 529.11 104.132 529.456 104.132ZM534.514 104.132C534.701 104.132 534.892 104.118 535.088 104.09C535.284 104.062 535.443 104.025 535.564 103.978V104.916C535.434 104.981 535.247 105.033 535.004 105.07C534.762 105.117 534.528 105.14 534.304 105.14C533.912 105.14 533.548 105.075 533.212 104.944C532.886 104.804 532.62 104.566 532.414 104.23C532.209 103.894 532.106 103.423 532.106 102.816V98.448H531.042V97.86L532.12 97.37L532.61 95.774H533.338V97.496H535.508V98.448H533.338V102.788C533.338 103.245 533.446 103.586 533.66 103.81C533.884 104.025 534.169 104.132 534.514 104.132ZM543.591 101.234C543.591 102.475 543.274 103.437 542.639 104.118C542.014 104.799 541.164 105.14 540.091 105.14C539.428 105.14 538.836 104.991 538.313 104.692C537.8 104.384 537.394 103.941 537.095 103.362C536.796 102.774 536.647 102.065 536.647 101.234C536.647 99.9927 536.955 99.036 537.571 98.364C538.196 97.692 539.05 97.356 540.133 97.356C540.805 97.356 541.402 97.51 541.925 97.818C542.448 98.1167 542.854 98.5553 543.143 99.134C543.442 99.7033 543.591 100.403 543.591 101.234ZM537.921 101.234C537.921 102.121 538.094 102.825 538.439 103.348C538.794 103.861 539.354 104.118 540.119 104.118C540.875 104.118 541.43 103.861 541.785 103.348C542.14 102.825 542.317 102.121 542.317 101.234C542.317 100.347 542.14 99.652 541.785 99.148C541.43 98.644 540.87 98.392 540.105 98.392C539.34 98.392 538.784 98.644 538.439 99.148C538.094 99.652 537.921 100.347 537.921 101.234ZM549.156 97.356C550.052 97.356 550.728 97.5753 551.186 98.014C551.643 98.4527 551.872 99.1527 551.872 100.114V105H550.654V100.198C550.654 98.994 550.094 98.392 548.974 98.392C548.143 98.392 547.569 98.6253 547.252 99.092C546.934 99.5587 546.776 100.231 546.776 101.108V105H545.544V97.496H546.538L546.72 98.518H546.79C547.032 98.126 547.368 97.8367 547.798 97.65C548.227 97.454 548.68 97.356 549.156 97.356Z" fill="white"/>
<rect x="266.5" y="130.5" width="303" height="386" stroke="#939393" stroke-dasharray="5 5"/>
</g>
<rect opacity="0.4" x="242" y="58" width="24" height="503" fill="white"/>
<rect opacity="0.12" x="242" y="58" width="24" height="503" fill="#D51588"/>
<path opacity="0.5" d="M266 58L266 561" stroke="#D51588" stroke-dasharray="3 3"/>
<path opacity="0.5" d="M242 58L242 561" stroke="#D51588" stroke-dasharray="3 3"/>
<path d="M254 561V577" stroke="#D51588"/>
<path d="M243.456 592H236.61V590.698L239.158 588.122C239.662 587.609 240.072 587.17 240.39 586.806C240.716 586.442 240.954 586.101 241.104 585.784C241.262 585.457 241.342 585.107 241.342 584.734C241.342 584.277 241.211 583.936 240.95 583.712C240.698 583.479 240.352 583.362 239.914 583.362C239.494 583.362 239.102 583.451 238.738 583.628C238.374 583.796 237.996 584.039 237.604 584.356L236.638 583.194C237.048 582.839 237.51 582.531 238.024 582.27C238.546 581.999 239.209 581.864 240.012 581.864C240.656 581.864 241.206 581.981 241.664 582.214C242.13 582.438 242.49 582.755 242.742 583.166C242.994 583.567 243.12 584.029 243.12 584.552C243.12 585.093 243.012 585.593 242.798 586.05C242.583 586.498 242.27 586.951 241.86 587.408C241.458 587.856 240.978 588.341 240.418 588.864L238.836 590.39V590.474H243.456V592ZM251.776 589.858H250.474V592H248.738V589.858H244.286V588.542L248.78 581.976H250.474V588.416H251.776V589.858ZM248.738 588.416V586.176C248.738 585.915 248.742 585.644 248.752 585.364C248.761 585.075 248.77 584.809 248.78 584.566C248.798 584.314 248.812 584.123 248.822 583.992H248.766C248.682 584.179 248.588 584.365 248.486 584.552C248.392 584.729 248.285 584.907 248.164 585.084L245.896 588.416H248.738ZM260.792 584.272C261.679 584.272 262.393 584.603 262.934 585.266C263.475 585.919 263.746 586.895 263.746 588.192C263.746 589.489 263.466 590.474 262.906 591.146C262.355 591.809 261.637 592.14 260.75 592.14C260.19 592.14 259.737 592.037 259.392 591.832C259.047 591.627 258.771 591.389 258.566 591.118H258.454C258.482 591.295 258.505 591.487 258.524 591.692C258.552 591.897 258.566 592.093 258.566 592.28V595.36H256.802V584.412H258.23L258.482 585.42H258.566C258.781 585.103 259.061 584.832 259.406 584.608C259.751 584.384 260.213 584.272 260.792 584.272ZM260.288 585.7C259.663 585.7 259.219 585.887 258.958 586.26C258.706 586.633 258.575 587.198 258.566 587.954V588.178C258.566 588.99 258.687 589.615 258.93 590.054C259.182 590.483 259.644 590.698 260.316 590.698C260.867 590.698 261.273 590.474 261.534 590.026C261.805 589.569 261.94 588.948 261.94 588.164C261.94 587.38 261.805 586.773 261.534 586.344C261.273 585.915 260.857 585.7 260.288 585.7ZM266.93 588.122L264.424 584.412H266.426L268.078 586.988L269.73 584.412H271.732L269.198 588.122L271.858 592H269.856L268.078 589.242L266.3 592H264.298L266.93 588.122Z" fill="#D51588"/>
<rect opacity="0.4" x="614" y="58" width="24" height="372" transform="rotate(90 614 58)" fill="white"/>
<rect opacity="0.12" x="614" y="58" width="24" height="372" transform="rotate(90 614 58)" fill="#D51588"/>
<path opacity="0.5" d="M614 82L242 82" stroke="#D51588" stroke-dasharray="3 3"/>
<path opacity="0.5" d="M614 58L242 58" stroke="#D51588" stroke-dasharray="3 3"/>
<path d="M630 70L614 70" stroke="#D51588"/>
<path d="M639.456 75H632.61V73.698L635.158 71.122C635.662 70.6087 636.072 70.17 636.39 69.806C636.716 69.442 636.954 69.1013 637.104 68.784C637.262 68.4573 637.342 68.1073 637.342 67.734C637.342 67.2767 637.211 66.936 636.95 66.712C636.698 66.4787 636.352 66.362 635.914 66.362C635.494 66.362 635.102 66.4507 634.738 66.628C634.374 66.796 633.996 67.0387 633.604 67.356L632.638 66.194C633.048 65.8393 633.51 65.5313 634.024 65.27C634.546 64.9993 635.209 64.864 636.012 64.864C636.656 64.864 637.206 64.9807 637.664 65.214C638.13 65.438 638.49 65.7553 638.742 66.166C638.994 66.5673 639.12 67.0293 639.12 67.552C639.12 68.0933 639.012 68.5927 638.798 69.05C638.583 69.498 638.27 69.9507 637.86 70.408C637.458 70.856 636.978 71.3413 636.418 71.864L634.836 73.39V73.474H639.456V75ZM647.776 72.858H646.474V75H644.738V72.858H640.286V71.542L644.78 64.976H646.474V71.416H647.776V72.858ZM644.738 71.416V69.176C644.738 68.9147 644.742 68.644 644.752 68.364C644.761 68.0747 644.77 67.8087 644.78 67.566C644.798 67.314 644.812 67.1227 644.822 66.992H644.766C644.682 67.1787 644.588 67.3653 644.486 67.552C644.392 67.7293 644.285 67.9067 644.164 68.084L641.896 71.416H644.738ZM656.792 67.272C657.679 67.272 658.393 67.6033 658.934 68.266C659.475 68.9193 659.746 69.8947 659.746 71.192C659.746 72.4893 659.466 73.474 658.906 74.146C658.355 74.8087 657.637 75.14 656.75 75.14C656.19 75.14 655.737 75.0373 655.392 74.832C655.047 74.6267 654.771 74.3887 654.566 74.118H654.454C654.482 74.2953 654.505 74.4867 654.524 74.692C654.552 74.8973 654.566 75.0933 654.566 75.28V78.36H652.802V67.412H654.23L654.482 68.42H654.566C654.781 68.1027 655.061 67.832 655.406 67.608C655.751 67.384 656.213 67.272 656.792 67.272ZM656.288 68.7C655.663 68.7 655.219 68.8867 654.958 69.26C654.706 69.6333 654.575 70.198 654.566 70.954V71.178C654.566 71.99 654.687 72.6153 654.93 73.054C655.182 73.4833 655.644 73.698 656.316 73.698C656.867 73.698 657.273 73.474 657.534 73.026C657.805 72.5687 657.94 71.948 657.94 71.164C657.94 70.38 657.805 69.7733 657.534 69.344C657.273 68.9147 656.857 68.7 656.288 68.7ZM662.93 71.122L660.424 67.412H662.426L664.078 69.988L665.73 67.412H667.732L665.198 71.122L667.858 75H665.856L664.078 72.242L662.3 75H660.298L662.93 71.122Z" fill="#D51588"/>
<rect opacity="0.4" x="614" y="517" width="24" height="372" transform="rotate(90 614 517)" fill="white"/>
<rect opacity="0.12" x="614" y="517" width="24" height="372" transform="rotate(90 614 517)" fill="#D51588"/>
<path opacity="0.5" d="M614 541L242 541" stroke="#D51588" stroke-dasharray="3 3"/>
<path opacity="0.5" d="M614 517L242 517" stroke="#D51588" stroke-dasharray="3 3"/>
<path d="M630 529L614 529" stroke="#D51588"/>
<path d="M639.456 534H632.61V532.698L635.158 530.122C635.662 529.609 636.072 529.17 636.39 528.806C636.716 528.442 636.954 528.101 637.104 527.784C637.262 527.457 637.342 527.107 637.342 526.734C637.342 526.277 637.211 525.936 636.95 525.712C636.698 525.479 636.352 525.362 635.914 525.362C635.494 525.362 635.102 525.451 634.738 525.628C634.374 525.796 633.996 526.039 633.604 526.356L632.638 525.194C633.048 524.839 633.51 524.531 634.024 524.27C634.546 523.999 635.209 523.864 636.012 523.864C636.656 523.864 637.206 523.981 637.664 524.214C638.13 524.438 638.49 524.755 638.742 525.166C638.994 525.567 639.12 526.029 639.12 526.552C639.12 527.093 639.012 527.593 638.798 528.05C638.583 528.498 638.27 528.951 637.86 529.408C637.458 529.856 636.978 530.341 636.418 530.864L634.836 532.39V532.474H639.456V534ZM647.776 531.858H646.474V534H644.738V531.858H640.286V530.542L644.78 523.976H646.474V530.416H647.776V531.858ZM644.738 530.416V528.176C644.738 527.915 644.742 527.644 644.752 527.364C644.761 527.075 644.77 526.809 644.78 526.566C644.798 526.314 644.812 526.123 644.822 525.992H644.766C644.682 526.179 644.588 526.365 644.486 526.552C644.392 526.729 644.285 526.907 644.164 527.084L641.896 530.416H644.738ZM656.792 526.272C657.679 526.272 658.393 526.603 658.934 527.266C659.475 527.919 659.746 528.895 659.746 530.192C659.746 531.489 659.466 532.474 658.906 533.146C658.355 533.809 657.637 534.14 656.75 534.14C656.19 534.14 655.737 534.037 655.392 533.832C655.047 533.627 654.771 533.389 654.566 533.118H654.454C654.482 533.295 654.505 533.487 654.524 533.692C654.552 533.897 654.566 534.093 654.566 534.28V537.36H652.802V526.412H654.23L654.482 527.42H654.566C654.781 527.103 655.061 526.832 655.406 526.608C655.751 526.384 656.213 526.272 656.792 526.272ZM656.288 527.7C655.663 527.7 655.219 527.887 654.958 528.26C654.706 528.633 654.575 529.198 654.566 529.954V530.178C654.566 530.99 654.687 531.615 654.93 532.054C655.182 532.483 655.644 532.698 656.316 532.698C656.867 532.698 657.273 532.474 657.534 532.026C657.805 531.569 657.94 530.948 657.94 530.164C657.94 529.38 657.805 528.773 657.534 528.344C657.273 527.915 656.857 527.7 656.288 527.7ZM662.93 530.122L660.424 526.412H662.426L664.078 528.988L665.73 526.412H667.732L665.198 530.122L667.858 534H665.856L664.078 531.242L662.3 534H660.298L662.93 530.122Z" fill="#D51588"/>
<rect opacity="0.4" x="614" y="118" width="12" height="372" transform="rotate(90 614 118)" fill="white"/>
<rect opacity="0.12" x="614" y="118" width="12" height="372" transform="rotate(90 614 118)" fill="#D51588"/>
<path opacity="0.5" d="M614 130L242 130" stroke="#D51588" stroke-dasharray="3 3"/>
<path opacity="0.5" d="M614 118L242 118" stroke="#D51588" stroke-dasharray="3 3"/>
<path d="M630 124L614 124" stroke="#D51588"/>
<path d="M637.482 129H635.718V122.77C635.718 122.471 635.722 122.154 635.732 121.818C635.741 121.482 635.755 121.169 635.774 120.88C635.68 120.973 635.564 121.085 635.424 121.216C635.293 121.347 635.148 121.473 634.99 121.594L633.87 122.49L632.988 121.398L636.012 119.004H637.482V129ZM647.468 129H640.622V127.698L643.17 125.122C643.674 124.609 644.084 124.17 644.402 123.806C644.728 123.442 644.966 123.101 645.116 122.784C645.274 122.457 645.354 122.107 645.354 121.734C645.354 121.277 645.223 120.936 644.962 120.712C644.71 120.479 644.364 120.362 643.926 120.362C643.506 120.362 643.114 120.451 642.75 120.628C642.386 120.796 642.008 121.039 641.616 121.356L640.65 120.194C641.06 119.839 641.522 119.531 642.036 119.27C642.558 118.999 643.221 118.864 644.024 118.864C644.668 118.864 645.218 118.981 645.676 119.214C646.142 119.438 646.502 119.755 646.754 120.166C647.006 120.567 647.132 121.029 647.132 121.552C647.132 122.093 647.024 122.593 646.81 123.05C646.595 123.498 646.282 123.951 645.872 124.408C645.47 124.856 644.99 125.341 644.43 125.864L642.848 127.39V127.474H647.468V129ZM656.792 121.272C657.679 121.272 658.393 121.603 658.934 122.266C659.475 122.919 659.746 123.895 659.746 125.192C659.746 126.489 659.466 127.474 658.906 128.146C658.355 128.809 657.637 129.14 656.75 129.14C656.19 129.14 655.737 129.037 655.392 128.832C655.047 128.627 654.771 128.389 654.566 128.118H654.454C654.482 128.295 654.505 128.487 654.524 128.692C654.552 128.897 654.566 129.093 654.566 129.28V132.36H652.802V121.412H654.23L654.482 122.42H654.566C654.781 122.103 655.061 121.832 655.406 121.608C655.751 121.384 656.213 121.272 656.792 121.272ZM656.288 122.7C655.663 122.7 655.219 122.887 654.958 123.26C654.706 123.633 654.575 124.198 654.566 124.954V125.178C654.566 125.99 654.687 126.615 654.93 127.054C655.182 127.483 655.644 127.698 656.316 127.698C656.867 127.698 657.273 127.474 657.534 127.026C657.805 126.569 657.94 125.948 657.94 125.164C657.94 124.38 657.805 123.773 657.534 123.344C657.273 122.915 656.857 122.7 656.288 122.7ZM662.93 125.122L660.424 121.412H662.426L664.078 123.988L665.73 121.412H667.732L665.198 125.122L667.858 129H665.856L664.078 126.242L662.3 129H660.298L662.93 125.122Z" fill="#D51588"/>
<rect opacity="0.4" x="570" y="58" width="24" height="503" fill="white"/>
<rect opacity="0.12" x="570" y="58" width="24" height="503" fill="#D51588"/>
<path opacity="0.5" d="M594 58L594 561" stroke="#D51588" stroke-dasharray="3 3"/>
<path opacity="0.5" d="M570 58L570 561" stroke="#D51588" stroke-dasharray="3 3"/>
<path d="M582 561V577" stroke="#D51588"/>
<path d="M571.456 592H564.61V590.698L567.158 588.122C567.662 587.609 568.072 587.17 568.39 586.806C568.716 586.442 568.954 586.101 569.104 585.784C569.262 585.457 569.342 585.107 569.342 584.734C569.342 584.277 569.211 583.936 568.95 583.712C568.698 583.479 568.352 583.362 567.914 583.362C567.494 583.362 567.102 583.451 566.738 583.628C566.374 583.796 565.996 584.039 565.604 584.356L564.638 583.194C565.048 582.839 565.51 582.531 566.024 582.27C566.546 581.999 567.209 581.864 568.012 581.864C568.656 581.864 569.206 581.981 569.664 582.214C570.13 582.438 570.49 582.755 570.742 583.166C570.994 583.567 571.12 584.029 571.12 584.552C571.12 585.093 571.012 585.593 570.798 586.05C570.583 586.498 570.27 586.951 569.86 587.408C569.458 587.856 568.978 588.341 568.418 588.864L566.836 590.39V590.474H571.456V592ZM579.776 589.858H578.474V592H576.738V589.858H572.286V588.542L576.78 581.976H578.474V588.416H579.776V589.858ZM576.738 588.416V586.176C576.738 585.915 576.742 585.644 576.752 585.364C576.761 585.075 576.77 584.809 576.78 584.566C576.798 584.314 576.812 584.123 576.822 583.992H576.766C576.682 584.179 576.588 584.365 576.486 584.552C576.392 584.729 576.285 584.907 576.164 585.084L573.896 588.416H576.738ZM588.792 584.272C589.679 584.272 590.393 584.603 590.934 585.266C591.475 585.919 591.746 586.895 591.746 588.192C591.746 589.489 591.466 590.474 590.906 591.146C590.355 591.809 589.637 592.14 588.75 592.14C588.19 592.14 587.737 592.037 587.392 591.832C587.047 591.627 586.771 591.389 586.566 591.118H586.454C586.482 591.295 586.505 591.487 586.524 591.692C586.552 591.897 586.566 592.093 586.566 592.28V595.36H584.802V584.412H586.23L586.482 585.42H586.566C586.781 585.103 587.061 584.832 587.406 584.608C587.751 584.384 588.213 584.272 588.792 584.272ZM588.288 585.7C587.663 585.7 587.219 585.887 586.958 586.26C586.706 586.633 586.575 587.198 586.566 587.954V588.178C586.566 588.99 586.687 589.615 586.93 590.054C587.182 590.483 587.644 590.698 588.316 590.698C588.867 590.698 589.273 590.474 589.534 590.026C589.805 589.569 589.94 588.948 589.94 588.164C589.94 587.38 589.805 586.773 589.534 586.344C589.273 585.915 588.857 585.7 588.288 585.7ZM594.93 588.122L592.424 584.412H594.426L596.078 586.988L597.73 584.412H599.732L597.198 588.122L599.858 592H597.856L596.078 589.242L594.3 592H592.298L594.93 588.122Z" fill="#D51588"/>
<path d="M478.018 4.878C478.596 4.878 479.119 4.96667 479.586 5.144C480.052 5.32133 480.426 5.592 480.706 5.956C480.986 6.31067 481.126 6.74933 481.126 7.272C481.126 7.86933 480.948 8.364 480.594 8.756C480.239 9.13867 479.805 9.46067 479.292 9.722C479.674 9.918 480.029 10.1373 480.356 10.38C480.682 10.6227 480.944 10.912 481.14 11.248C481.345 11.5747 481.448 11.962 481.448 12.41C481.448 12.9607 481.303 13.4413 481.014 13.852C480.724 14.2627 480.323 14.58 479.81 14.804C479.306 15.028 478.713 15.14 478.032 15.14C476.921 15.14 476.067 14.902 475.47 14.426C474.872 13.95 474.574 13.2967 474.574 12.466C474.574 12.0087 474.662 11.612 474.84 11.276C475.017 10.94 475.255 10.6507 475.554 10.408C475.852 10.1653 476.184 9.95533 476.548 9.778C476.09 9.498 475.698 9.162 475.372 8.77C475.054 8.36867 474.896 7.86467 474.896 7.258C474.896 6.74467 475.036 6.31067 475.316 5.956C475.605 5.60133 475.983 5.33533 476.45 5.158C476.926 4.97133 477.448 4.878 478.018 4.878ZM478.004 6.208C477.593 6.208 477.252 6.31067 476.982 6.516C476.72 6.72133 476.59 7.01067 476.59 7.384C476.59 7.79467 476.73 8.12133 477.01 8.364C477.29 8.60667 477.63 8.81667 478.032 8.994C478.414 8.826 478.741 8.62067 479.012 8.378C479.292 8.13533 479.432 7.804 479.432 7.384C479.432 7.01067 479.296 6.72133 479.026 6.516C478.764 6.31067 478.424 6.208 478.004 6.208ZM476.254 12.382C476.254 12.7927 476.398 13.1333 476.688 13.404C476.977 13.6653 477.416 13.796 478.004 13.796C478.582 13.796 479.021 13.6653 479.32 13.404C479.618 13.1427 479.768 12.802 479.768 12.382C479.768 11.962 479.6 11.612 479.264 11.332C478.928 11.052 478.531 10.8093 478.074 10.604L477.878 10.506C477.374 10.7393 476.977 11.0053 476.688 11.304C476.398 11.5933 476.254 11.9527 476.254 12.382ZM490.786 7.272C491.673 7.272 492.387 7.60333 492.928 8.266C493.469 8.91933 493.74 9.89467 493.74 11.192C493.74 12.4893 493.46 13.474 492.9 14.146C492.349 14.8087 491.631 15.14 490.744 15.14C490.184 15.14 489.731 15.0373 489.386 14.832C489.041 14.6267 488.765 14.3887 488.56 14.118H488.448C488.476 14.2953 488.499 14.4867 488.518 14.692C488.546 14.8973 488.56 15.0933 488.56 15.28V18.36H486.796V7.412H488.224L488.476 8.42H488.56C488.775 8.10267 489.055 7.832 489.4 7.608C489.745 7.384 490.207 7.272 490.786 7.272ZM490.282 8.7C489.657 8.7 489.213 8.88667 488.952 9.26C488.7 9.63333 488.569 10.198 488.56 10.954V11.178C488.56 11.99 488.681 12.6153 488.924 13.054C489.176 13.4833 489.638 13.698 490.31 13.698C490.861 13.698 491.267 13.474 491.528 13.026C491.799 12.5687 491.934 11.948 491.934 11.164C491.934 10.38 491.799 9.77333 491.528 9.344C491.267 8.91467 490.851 8.7 490.282 8.7ZM496.924 11.122L494.418 7.412H496.42L498.072 9.988L499.724 7.412H501.726L499.192 11.122L501.852 15H499.85L498.072 12.242L496.294 15H494.292L496.924 11.122Z" fill="#D51588"/>
<path d="M488 22V38" stroke="#D51588"/>
<rect opacity="0.4" x="484" y="38" width="8" height="80" fill="white"/>
<rect opacity="0.12" x="484" y="38" width="8" height="80" fill="#D51588"/>
<path opacity="0.5" d="M492 38L492 118" stroke="#D51588" stroke-dasharray="3 3"/>
<path opacity="0.5" d="M484 38L484 118" stroke="#D51588" stroke-dasharray="3 3"/>
<defs>
<filter id="filter0_d_8977_658443" x="226" y="50" width="384" height="515" filterUnits="userSpaceOnUse" color-interpolation-filters="sRGB">
<feFlood flood-opacity="0" result="BackgroundImageFix"/>
<feColorMatrix in="SourceAlpha" type="matrix" values="0 0 0 0 0 0 0 0 0 0 0 0 0 0 0 0 0 0 127 0" result="hardAlpha"/>
<feOffset dy="8"/>
<feGaussianBlur stdDeviation="8"/>
<feColorMatrix type="matrix" values="0 0 0 0 0 0 0 0 0 0 0 0 0 0 0 0 0 0 0.25 0"/>
<feBlend mode="normal" in2="BackgroundImageFix" result="effect1_dropShadow_8977_658443"/>
<feBlend mode="normal" in="SourceGraphic" in2="effect1_dropShadow_8977_658443" result="shape"/>
</filter>
</defs>
</svg>
