<svg width="285" height="192" viewBox="0 0 285 192" fill="none" xmlns="http://www.w3.org/2000/svg">
<g filter="url(#filter0_d_9554_667864)">
<g clip-path="url(#clip0_9554_667864)">
<g clip-path="url(#clip1_9554_667864)" filter="url(#filter1_i_9554_667864)">
<rect width="61.1364" height="157.732" transform="translate(8 21.7296)" fill="white"/>
<rect width="61.1364" height="14.6727" transform="translate(8 21.7296)" fill="white"/>
<path d="M16.5588 32.7341C14.7861 32.7341 13.3491 31.2971 13.3491 29.5244C13.3491 27.7518 14.7861 26.3148 16.5588 26.3148C18.3314 26.3148 19.7684 27.7518 19.7684 29.5244C19.7684 31.2971 18.3314 32.7341 16.5588 32.7341Z" fill="#C9C9C9"/>
<rect x="22.3672" y="27.5375" width="36.6818" height="3.66818" rx="0.611364" fill="#C9C9C9"/>
<rect width="61.1364" height="14.6727" transform="translate(8 36.4023)" fill="white"/>
<path d="M16.5588 47.4069C14.7861 47.4069 13.3491 45.9699 13.3491 44.1972C13.3491 42.4246 14.7861 40.9875 16.5588 40.9875C18.3314 40.9875 19.7684 42.4246 19.7684 44.1972C19.7684 45.9699 18.3314 47.4069 16.5588 47.4069Z" fill="#C9C9C9"/>
<rect x="22.3672" y="42.2103" width="36.6818" height="3.66818" rx="0.611364" fill="#C9C9C9"/>
<rect width="61.1364" height="14.6727" transform="translate(8 51.075)" fill="white"/>
<path d="M16.5588 62.0796C14.7861 62.0796 13.3491 60.6426 13.3491 58.8699C13.3491 57.0973 14.7861 55.6603 16.5588 55.6603C18.3314 55.6603 19.7684 57.0973 19.7684 58.8699C19.7684 60.6426 18.3314 62.0796 16.5588 62.0796Z" fill="#C9C9C9"/>
<rect x="22.3672" y="56.883" width="36.6818" height="3.66818" rx="0.611364" fill="#C9C9C9"/>
<rect width="61.1364" height="14.6727" transform="translate(8 65.7477)" fill="white"/>
<path d="M16.5588 76.7523C14.7861 76.7523 13.3491 75.3153 13.3491 73.5427C13.3491 71.77 14.7861 70.333 16.5588 70.333C18.3314 70.333 19.7684 71.77 19.7684 73.5427C19.7684 75.3153 18.3314 76.7523 16.5588 76.7523Z" fill="#C9C9C9"/>
<rect x="22.3672" y="71.5557" width="36.6818" height="3.66818" rx="0.611364" fill="#C9C9C9"/>
</g>
<rect width="207.864" height="157.732" transform="translate(69.1362 21.7296)" fill="#F1F1F1"/>
<rect x="71.7344" y="24.3278" width="202.667" height="152.535" rx="1.06989" fill="white"/>
<rect x="71.7344" y="24.3278" width="202.667" height="152.535" rx="1.06989" stroke="#C9C9C9" stroke-width="0.305682"/>
<rect x="8.15284" y="4.15284" width="268.694" height="175.156" rx="2.29261" stroke="#C9C9C9" stroke-width="0.305682"/>
<rect x="81.5166" y="36.5551" width="60.8307" height="7.03068" stroke="#C9C9C9" stroke-width="0.305682"/>
<rect x="81.5166" y="47.5597" width="60.8307" height="7.03068" rx="0.152841" stroke="#C9C9C9" stroke-width="0.305682"/>
<rect x="146.321" y="47.5597" width="60.8307" height="7.03068" rx="0.152841" stroke="#C9C9C9" stroke-width="0.305682"/>
<rect x="81.5166" y="58.5642" width="60.8307" height="7.03068" rx="0.152841" stroke="#C9C9C9" stroke-width="0.305682"/>
<rect x="146.321" y="58.5642" width="60.8307" height="7.03068" rx="0.152841" stroke="#C9C9C9" stroke-width="0.305682"/>
<rect x="81.5166" y="69.5687" width="60.8307" height="7.03068" stroke="#C9C9C9" stroke-width="0.305682"/>
<rect x="81.5166" y="80.5733" width="60.8307" height="7.03068" stroke="#C9C9C9" stroke-width="0.305682"/>
<rect x="81.5166" y="91.5779" width="60.8307" height="7.03068" stroke="#C9C9C9" stroke-width="0.305682"/>
<rect x="81.5166" y="102.582" width="60.8307" height="7.03068" stroke="#C9C9C9" stroke-width="0.305682"/>
<rect x="81.5166" y="113.587" width="60.8307" height="7.03068" stroke="#C9C9C9" stroke-width="0.305682"/>
<rect x="81.5166" y="124.592" width="60.8307" height="7.03068" rx="0.152841" stroke="#C9C9C9" stroke-width="0.305682"/>
<rect x="146.321" y="124.592" width="60.8307" height="7.03068" rx="0.152841" stroke="#C9C9C9" stroke-width="0.305682"/>
<rect x="81.5166" y="135.596" width="60.8307" height="23.2318" stroke="#C9C9C9" stroke-width="0.305682"/>
<path d="M84.2677 164.177C84.2677 164.937 83.6519 165.553 82.8922 165.553C82.1325 165.553 81.5166 164.937 81.5166 164.177C81.5166 163.418 82.1325 162.802 82.8922 162.802C83.6519 162.802 84.2677 163.418 84.2677 164.177Z" stroke="#C9C9C9" stroke-width="0.305682"/>
<rect x="85.7964" y="162.802" width="16.8125" height="2.75114" rx="0.152841" stroke="#C9C9C9" stroke-width="0.305682"/>
<path d="M110.556 164.177C110.556 164.937 109.94 165.553 109.181 165.553C108.421 165.553 107.805 164.937 107.805 164.177C107.805 163.418 108.421 162.802 109.181 162.802C109.94 162.802 110.556 163.418 110.556 164.177Z" stroke="#C9C9C9" stroke-width="0.305682"/>
<rect x="112.085" y="162.802" width="16.8125" height="2.75114" rx="0.152841" stroke="#C9C9C9" stroke-width="0.305682"/>
<path d="M136.845 164.177C136.845 164.937 136.229 165.553 135.469 165.553C134.71 165.553 134.094 164.937 134.094 164.177C134.094 163.418 134.71 162.802 135.469 162.802C136.229 162.802 136.845 163.418 136.845 164.177Z" stroke="#C9C9C9" stroke-width="0.305682"/>
<rect x="138.374" y="162.802" width="16.8125" height="2.75114" rx="0.152841" stroke="#C9C9C9" stroke-width="0.305682"/>
<rect opacity="0.3" x="8" y="4" width="269" height="175.461" fill="#242424"/>
<g filter="url(#filter2_d_9554_667864)">
<rect width="97.8182" height="157.732" transform="translate(219.182 21.7296)" fill="white"/>
<path d="M228.394 37.5114H227.871V33.8233H226.576V33.3645H229.683V33.8233H228.394V37.5114ZM230.5 33.2309C230.578 33.2309 230.646 33.258 230.704 33.3122C230.766 33.3626 230.797 33.4439 230.797 33.5562C230.797 33.6685 230.766 33.7517 230.704 33.8059C230.646 33.8562 230.578 33.8814 230.5 33.8814C230.415 33.8814 230.344 33.8562 230.285 33.8059C230.227 33.7517 230.198 33.6685 230.198 33.5562C230.198 33.4439 230.227 33.3626 230.285 33.3122C230.344 33.258 230.415 33.2309 230.5 33.2309ZM230.75 34.3983V37.5114H230.239V34.3983H230.75ZM232.776 37.1513C232.853 37.1513 232.933 37.1455 233.014 37.1339C233.095 37.1222 233.161 37.1068 233.212 37.0874V37.4765C233.157 37.5036 233.08 37.5249 232.979 37.5404C232.879 37.5598 232.782 37.5695 232.689 37.5695C232.526 37.5695 232.375 37.5424 232.236 37.4882C232.1 37.4301 231.99 37.3313 231.905 37.1919C231.82 37.0526 231.777 36.857 231.777 36.6053V34.7933H231.336V34.5493L231.783 34.346L231.986 33.6839H232.288V34.3983H233.188V34.7933H232.288V36.5937C232.288 36.7835 232.333 36.9248 232.422 37.0177C232.515 37.1068 232.633 37.1513 232.776 37.1513ZM234.346 37.5114H233.835V33.0973H234.346V37.5114ZM236.535 34.3402C236.798 34.3402 237.026 34.3983 237.22 34.5145C237.414 34.6306 237.561 34.7952 237.661 35.0082C237.766 35.2172 237.818 35.4631 237.818 35.7458V36.0536H235.687C235.694 36.4059 235.783 36.675 235.954 36.8609C236.128 37.0429 236.37 37.1339 236.68 37.1339C236.877 37.1339 237.051 37.1164 237.202 37.0816C237.357 37.0429 237.516 36.9887 237.679 36.919V37.3662C237.52 37.4359 237.363 37.4862 237.208 37.5172C237.053 37.552 236.869 37.5695 236.657 37.5695C236.358 37.5695 236.097 37.5094 235.872 37.3894C235.648 37.2694 235.472 37.0913 235.344 36.8551C235.22 36.6189 235.158 36.3266 235.158 35.9781C235.158 35.6373 235.214 35.345 235.327 35.1011C235.443 34.8571 235.603 34.6694 235.809 34.5377C236.018 34.4061 236.26 34.3402 236.535 34.3402ZM236.529 34.7584C236.285 34.7584 236.091 34.8378 235.948 34.9965C235.809 35.1514 235.725 35.3682 235.698 35.647H237.284C237.28 35.3837 237.218 35.1708 237.098 35.0082C236.978 34.8417 236.788 34.7584 236.529 34.7584Z" fill="black"/>
<rect x="266.807" y="29.2188" width="20.4761" height="11.5852" rx="0.458523" fill="white"/>
<path d="M273.27 33.7511C272.942 33.7511 272.684 33.8609 272.495 34.0806C272.307 34.3003 272.213 34.6013 272.213 34.9836C272.213 35.363 272.3 35.664 272.474 35.8866C272.651 36.1063 272.915 36.2161 273.266 36.2161C273.397 36.2161 273.523 36.2047 273.642 36.1819C273.762 36.159 273.881 36.1305 273.998 36.0963V36.4301C273.883 36.4729 273.765 36.5043 273.642 36.5242C273.523 36.5442 273.378 36.5542 273.21 36.5542C272.899 36.5542 272.64 36.49 272.431 36.3616C272.223 36.2332 272.066 36.0506 271.961 35.8138C271.858 35.577 271.806 35.2988 271.806 34.9793C271.806 34.6712 271.862 34.4001 271.973 34.1662C272.087 33.9294 272.254 33.7454 272.474 33.6141C272.694 33.48 272.961 33.413 273.274 33.413C273.597 33.413 273.878 33.4729 274.117 33.5927L273.963 33.918C273.869 33.8752 273.764 33.8367 273.647 33.8024C273.533 33.7682 273.407 33.7511 273.27 33.7511ZM274.99 36.5114H274.613V33.2589H274.99V36.5114ZM277.711 35.3602C277.711 35.7396 277.614 36.0335 277.42 36.2418C277.229 36.45 276.969 36.5542 276.641 36.5542C276.438 36.5542 276.257 36.5085 276.097 36.4172C275.94 36.3231 275.816 36.1876 275.725 36.0107C275.634 35.8309 275.588 35.6141 275.588 35.3602C275.588 34.9807 275.682 34.6883 275.871 34.4829C276.062 34.2775 276.323 34.1748 276.654 34.1748C276.859 34.1748 277.042 34.2218 277.201 34.316C277.361 34.4073 277.485 34.5414 277.574 34.7183C277.665 34.8923 277.711 35.1063 277.711 35.3602ZM275.978 35.3602C275.978 35.6312 276.03 35.8466 276.136 36.0064C276.244 36.1633 276.415 36.2418 276.649 36.2418C276.88 36.2418 277.05 36.1633 277.159 36.0064C277.267 35.8466 277.321 35.6312 277.321 35.3602C277.321 35.0891 277.267 34.8766 277.159 34.7225C277.05 34.5685 276.879 34.4914 276.645 34.4914C276.411 34.4914 276.241 34.5685 276.136 34.7225C276.03 34.8766 275.978 35.0891 275.978 35.3602ZM279.801 35.878C279.801 36.1005 279.718 36.2689 279.553 36.383C279.387 36.4971 279.165 36.5542 278.885 36.5542C278.726 36.5542 278.587 36.5413 278.47 36.5157C278.356 36.49 278.255 36.4543 278.166 36.4087V36.0663C278.258 36.112 278.368 36.1548 278.496 36.1947C278.627 36.2318 278.76 36.2503 278.894 36.2503C279.085 36.2503 279.223 36.2204 279.309 36.1605C279.395 36.0977 279.437 36.015 279.437 35.9122C279.437 35.8552 279.422 35.8038 279.39 35.7582C279.359 35.7125 279.302 35.6669 279.219 35.6212C279.139 35.5756 279.024 35.5242 278.872 35.4672C278.724 35.4101 278.597 35.3531 278.492 35.296C278.386 35.2389 278.305 35.1705 278.248 35.0906C278.191 35.0107 278.162 34.908 278.162 34.7824C278.162 34.5884 278.241 34.4387 278.397 34.3331C278.557 34.2275 278.766 34.1748 279.022 34.1748C279.162 34.1748 279.292 34.189 279.412 34.2175C279.534 34.2461 279.649 34.2832 279.754 34.3288L279.626 34.6284C279.529 34.5884 279.427 34.5542 279.322 34.5257C279.216 34.4971 279.108 34.4829 278.997 34.4829C278.843 34.4829 278.724 34.5086 278.641 34.5599C278.562 34.6084 278.522 34.6755 278.522 34.761C278.522 34.8267 278.54 34.8809 278.577 34.9237C278.614 34.9665 278.676 35.0093 278.761 35.0521C278.85 35.0949 278.967 35.1434 279.112 35.1976C279.258 35.2518 279.382 35.3074 279.484 35.3645C279.587 35.4215 279.666 35.4914 279.72 35.5742C279.774 35.654 279.801 35.7553 279.801 35.878ZM281.241 34.1748C281.435 34.1748 281.604 34.2175 281.746 34.3031C281.889 34.3887 281.997 34.51 282.072 34.6669C282.149 34.821 282.187 35.0021 282.187 35.2104V35.4372H280.616C280.622 35.6968 280.688 35.8951 280.813 36.0321C280.942 36.1662 281.12 36.2332 281.348 36.2332C281.494 36.2332 281.622 36.2204 281.733 36.1947C281.848 36.1662 281.965 36.1262 282.084 36.0749V36.4044C281.967 36.4557 281.852 36.4928 281.738 36.5157C281.624 36.5413 281.488 36.5542 281.331 36.5542C281.111 36.5542 280.919 36.51 280.753 36.4215C280.588 36.3331 280.458 36.2018 280.364 36.0278C280.273 35.8538 280.227 35.6384 280.227 35.3816C280.227 35.1305 280.268 34.9151 280.351 34.7354C280.437 34.5556 280.555 34.4173 280.706 34.3203C280.86 34.2233 281.039 34.1748 281.241 34.1748ZM281.237 34.4829C281.057 34.4829 280.915 34.5414 280.809 34.6583C280.706 34.7725 280.645 34.9322 280.625 35.1376H281.793C281.79 34.9436 281.745 34.7867 281.656 34.6669C281.568 34.5442 281.428 34.4829 281.237 34.4829Z" fill="#1B77AF"/>
<rect x="266.807" y="29.2188" width="20.4761" height="11.5852" rx="0.458523" stroke="#1B77AF" stroke-width="0.305682"/>
<rect x="226.671" y="49.6688" width="82.8398" height="10.6989" rx="0.458523" fill="white"/>
<circle cx="232.632" cy="55.0182" r="2.13977" transform="rotate(90 232.632 55.0182)" fill="#C9C9C9"/>
<rect x="237.522" y="53.1841" width="32.0966" height="3.66818" rx="0.611364" fill="#C9C9C9"/>
<rect x="226.671" y="49.6688" width="82.8398" height="10.6989" rx="0.458523" stroke="#C9C9C9" stroke-width="0.305682"/>
<rect x="226.671" y="65.5642" width="82.8398" height="10.6989" rx="0.458523" fill="white"/>
<circle cx="232.632" cy="70.9136" r="2.13977" transform="rotate(90 232.632 70.9136)" fill="#C9C9C9"/>
<rect x="237.522" y="69.0796" width="32.0966" height="3.66818" rx="0.611364" fill="#C9C9C9"/>
<rect x="226.671" y="65.5642" width="82.8398" height="10.6989" rx="0.458523" stroke="#C9C9C9" stroke-width="0.305682"/>
<rect x="226.671" y="81.4597" width="82.8398" height="10.6989" rx="0.458523" fill="white"/>
<circle cx="232.632" cy="86.8091" r="2.13977" transform="rotate(90 232.632 86.8091)" fill="#C9C9C9"/>
<rect x="237.522" y="84.975" width="32.0966" height="3.66818" rx="0.611364" fill="#C9C9C9"/>
<rect x="226.671" y="81.4597" width="82.8398" height="10.6989" rx="0.458523" stroke="#C9C9C9" stroke-width="0.305682"/>
<rect x="226.671" y="97.3551" width="82.8398" height="10.6989" rx="0.458523" fill="white"/>
<circle cx="232.632" cy="102.705" r="2.13977" transform="rotate(90 232.632 102.705)" fill="#C9C9C9"/>
<rect x="237.522" y="100.87" width="32.0966" height="3.66818" rx="0.611364" fill="#C9C9C9"/>
<rect x="226.671" y="97.3551" width="82.8398" height="10.6989" rx="0.458523" stroke="#C9C9C9" stroke-width="0.305682"/>
</g>
<g filter="url(#filter3_i_9554_667864)">
<rect width="269" height="17.7295" transform="translate(8 4)" fill="white"/>
<path d="M8 4H22.5992L31.5375 21.7295H8V4Z" fill="#DA291C"/>
<line x1="8" y1="21.5767" x2="31.5375" y2="21.5767" stroke="#C9C9C9" stroke-width="0.305682"/>
<path d="M15.0119 14.4707H17.4491L17.8462 15.3958H14.5552L14.0291 16.4607H12.5747L16.1784 9.45471H17.186L20.7897 16.4607H19.3403L16.6847 11.0496L15.0119 14.4707Z" fill="white"/>
<rect x="36.4282" y="11.0307" width="36.6818" height="3.66818" rx="0.611364" fill="#C9C9C9"/>
<g clip-path="url(#clip2_9554_667864)">
<rect x="161.024" y="7.51533" width="51.3546" height="10.6989" rx="0.458523" fill="white"/>
<g clip-path="url(#clip3_9554_667864)">
<path fill-rule="evenodd" clip-rule="evenodd" d="M166.563 10.954C165.741 10.954 165.074 11.6206 165.074 12.4429C165.074 13.2652 165.741 13.9318 166.563 13.9318C167.385 13.9318 168.052 13.2652 168.052 12.4429C168.052 11.6206 167.385 10.954 166.563 10.954ZM164.845 12.4429C164.845 11.4941 165.614 10.725 166.563 10.725C167.512 10.725 168.281 11.4941 168.281 12.4429C168.281 13.3917 167.512 14.1608 166.563 14.1608C165.614 14.1608 164.845 13.3917 164.845 12.4429Z" fill="#939393"/>
<path fill-rule="evenodd" clip-rule="evenodd" d="M167.689 13.5683C167.733 13.5236 167.806 13.5236 167.85 13.5683L168.415 14.1333C168.46 14.178 168.46 14.2505 168.415 14.2953C168.371 14.34 168.298 14.34 168.254 14.2953L167.689 13.7303C167.644 13.6855 167.644 13.613 167.689 13.5683Z" fill="#939393"/>
<path fill-rule="evenodd" clip-rule="evenodd" d="M168.651 14.3105C168.588 14.2484 168.493 14.2484 168.431 14.3105C168.369 14.3727 168.369 14.4682 168.431 14.5303L168.629 14.7288C168.631 14.7309 168.633 14.7331 168.635 14.7353C168.678 14.7851 168.783 14.7948 168.849 14.7288C168.911 14.6667 168.911 14.5712 168.849 14.509L168.651 14.3105ZM168.269 14.1486C168.42 13.9969 168.661 13.9969 168.813 14.1486L169.011 14.3471C169.163 14.4987 169.163 14.7392 169.011 14.8908C168.864 15.0376 168.606 15.0482 168.465 14.888L168.269 14.6923C168.117 14.5407 168.117 14.3002 168.269 14.1486Z" fill="#939393"/>
</g>
<rect x="161.024" y="7.51533" width="51.3546" height="10.6989" rx="0.458523" stroke="#C9C9C9" stroke-width="0.305682"/>
<path d="M233.899 16.0744C232.126 16.0744 230.689 14.6374 230.689 12.8648C230.689 11.0921 232.126 9.65512 233.899 9.65512C235.672 9.65512 237.109 11.0921 237.109 12.8648C237.109 14.6374 235.672 16.0744 233.899 16.0744Z" fill="#C9C9C9"/>
<path d="M248.572 16.0744C246.799 16.0744 245.362 14.6374 245.362 12.8648C245.362 11.0921 246.799 9.65512 248.572 9.65512C250.345 9.65512 251.782 11.0921 251.782 12.8648C251.782 14.6374 250.345 16.0744 248.572 16.0744Z" fill="#C9C9C9"/>
<circle cx="266.332" cy="12.8648" r="6.11364" fill="white"/>
<g clip-path="url(#clip4_9554_667864)">
<path d="M262.838 17.8819V17.1701C262.838 16.2436 263.206 15.355 263.862 14.6999C264.517 14.0447 265.405 13.6766 266.332 13.6766C267.258 13.6766 268.147 14.0447 268.802 14.6999C269.457 15.355 269.825 16.2436 269.825 17.1701V17.8819C270.894 17.1382 271.696 16.073 272.117 14.8413C272.538 13.6096 272.555 12.2758 272.165 11.034C271.775 9.79217 270.999 8.70714 269.95 7.93683C268.901 7.16651 267.633 6.75113 266.332 6.75113C265.03 6.75113 263.763 7.16651 262.714 7.93683C261.664 8.70714 260.889 9.79217 260.499 11.034C260.109 12.2758 260.126 13.6096 260.547 14.8413C260.967 16.073 261.77 17.1382 262.838 17.8819ZM266.332 8.77698C266.728 8.77698 267.116 8.89454 267.445 9.11478C267.775 9.33503 268.032 9.64807 268.184 10.0143C268.335 10.3806 268.375 10.7836 268.298 11.1724C268.22 11.5612 268.03 11.9184 267.749 12.1987C267.469 12.479 267.112 12.6699 266.723 12.7473C266.334 12.8246 265.931 12.7849 265.565 12.6332C265.199 12.4815 264.886 12.2246 264.665 11.895C264.445 11.5653 264.327 11.1778 264.327 10.7814C264.329 10.2501 264.54 9.74098 264.916 9.36533C265.291 8.98968 265.801 8.77814 266.332 8.77698Z" fill="#C9C9C9"/>
</g>
</g>
</g>
<path d="M214.394 101C214.394 103.544 216.456 105.606 219 105.606C221.544 105.606 223.606 103.544 223.606 101C223.606 98.4562 221.544 96.394 219 96.394C216.456 96.394 214.394 98.4562 214.394 101ZM163.389 100.389C163.052 100.727 163.052 101.273 163.389 101.611L168.885 107.107C169.223 107.444 169.769 107.444 170.107 107.107C170.444 106.769 170.444 106.223 170.107 105.885L165.221 101L170.107 96.1146C170.444 95.7773 170.444 95.2305 170.107 94.8933C169.769 94.556 169.223 94.556 168.885 94.8933L163.389 100.389ZM219 100.136H164V101.864H219V100.136Z" fill="#D51588"/>
</g>
</g>
<defs>
<filter id="filter0_d_9554_667864" x="0" y="0" width="285" height="191.461" filterUnits="userSpaceOnUse" color-interpolation-filters="sRGB">
<feFlood flood-opacity="0" result="BackgroundImageFix"/>
<feColorMatrix in="SourceAlpha" type="matrix" values="0 0 0 0 0 0 0 0 0 0 0 0 0 0 0 0 0 0 127 0" result="hardAlpha"/>
<feOffset dy="4"/>
<feGaussianBlur stdDeviation="4"/>
<feColorMatrix type="matrix" values="0 0 0 0 0 0 0 0 0 0 0 0 0 0 0 0 0 0 0.25 0"/>
<feBlend mode="normal" in2="BackgroundImageFix" result="effect1_dropShadow_9554_667864"/>
<feBlend mode="normal" in="SourceGraphic" in2="effect1_dropShadow_9554_667864" result="shape"/>
</filter>
<filter id="filter1_i_9554_667864" x="8" y="21.7296" width="61.1362" height="157.732" filterUnits="userSpaceOnUse" color-interpolation-filters="sRGB">
<feFlood flood-opacity="0" result="BackgroundImageFix"/>
<feBlend mode="normal" in="SourceGraphic" in2="BackgroundImageFix" result="shape"/>
<feColorMatrix in="SourceAlpha" type="matrix" values="0 0 0 0 0 0 0 0 0 0 0 0 0 0 0 0 0 0 127 0" result="hardAlpha"/>
<feOffset dx="-0.305682"/>
<feComposite in2="hardAlpha" operator="arithmetic" k2="-1" k3="1"/>
<feColorMatrix type="matrix" values="0 0 0 0 0.788235 0 0 0 0 0.788235 0 0 0 0 0.788235 0 0 0 1 0"/>
<feBlend mode="normal" in2="shape" result="effect1_innerShadow_9554_667864"/>
</filter>
<filter id="filter2_d_9554_667864" x="214.291" y="19.2841" width="107.6" height="167.514" filterUnits="userSpaceOnUse" color-interpolation-filters="sRGB">
<feFlood flood-opacity="0" result="BackgroundImageFix"/>
<feColorMatrix in="SourceAlpha" type="matrix" values="0 0 0 0 0 0 0 0 0 0 0 0 0 0 0 0 0 0 127 0" result="hardAlpha"/>
<feOffset dy="2.44546"/>
<feGaussianBlur stdDeviation="2.44546"/>
<feColorMatrix type="matrix" values="0 0 0 0 0 0 0 0 0 0 0 0 0 0 0 0 0 0 0.25 0"/>
<feBlend mode="normal" in2="BackgroundImageFix" result="effect1_dropShadow_9554_667864"/>
<feBlend mode="normal" in="SourceGraphic" in2="effect1_dropShadow_9554_667864" result="shape"/>
</filter>
<filter id="filter3_i_9554_667864" x="8" y="4" width="269" height="17.7296" filterUnits="userSpaceOnUse" color-interpolation-filters="sRGB">
<feFlood flood-opacity="0" result="BackgroundImageFix"/>
<feBlend mode="normal" in="SourceGraphic" in2="BackgroundImageFix" result="shape"/>
<feColorMatrix in="SourceAlpha" type="matrix" values="0 0 0 0 0 0 0 0 0 0 0 0 0 0 0 0 0 0 127 0" result="hardAlpha"/>
<feOffset dy="-0.305682"/>
<feComposite in2="hardAlpha" operator="arithmetic" k2="-1" k3="1"/>
<feColorMatrix type="matrix" values="0 0 0 0 0.788235 0 0 0 0 0.788235 0 0 0 0 0.788235 0 0 0 1 0"/>
<feBlend mode="normal" in2="shape" result="effect1_innerShadow_9554_667864"/>
</filter>
<clipPath id="clip0_9554_667864">
<rect x="8" y="4" width="269" height="175.461" rx="2.44546" fill="white"/>
</clipPath>
<clipPath id="clip1_9554_667864">
<rect width="61.1364" height="157.732" fill="white" transform="translate(8 21.7296)"/>
</clipPath>
<clipPath id="clip2_9554_667864">
<rect width="198.999" height="17.7295" fill="white" transform="translate(78.001 4)"/>
</clipPath>
<clipPath id="clip3_9554_667864">
<rect width="4.89091" height="4.89091" fill="white" transform="translate(164.54 10.4193)"/>
</clipPath>
<clipPath id="clip4_9554_667864">
<rect width="12.2273" height="11.2083" fill="white" transform="translate(260.218 6.7511)"/>
</clipPath>
</defs>
</svg>
