<svg width="904" height="105" viewBox="0 0 904 105" fill="none" xmlns="http://www.w3.org/2000/svg">
<rect width="904" height="82" fill="white"/>
<g filter="url(#filter0_d_8533_523778)">
<rect x="355" y="37" width="196" height="44" rx="4" fill="#323232"/>
<path d="M373.512 64.202C373.412 64.202 373.312 64.152 373.262 64.102L369.113 59.952C368.962 59.802 368.962 59.552 369.113 59.402C369.263 59.252 369.512 59.252 369.662 59.402L373.512 63.252L380.312 54.152C380.413 54.002 380.662 53.952 380.812 54.052C380.963 54.152 381.012 54.402 380.912 54.552L373.812 64.052C373.762 64.152 373.662 64.202 373.512 64.202Z" fill="white"/>
<path d="M393.618 64H392.358V54.004H397.944V55.11H393.618V58.652H397.678V59.758H393.618V64ZM400.08 53.682C400.266 53.682 400.43 53.7473 400.57 53.878C400.719 53.9993 400.794 54.1953 400.794 54.466C400.794 54.7367 400.719 54.9373 400.57 55.068C400.43 55.1893 400.266 55.25 400.08 55.25C399.874 55.25 399.702 55.1893 399.562 55.068C399.422 54.9373 399.352 54.7367 399.352 54.466C399.352 54.1953 399.422 53.9993 399.562 53.878C399.702 53.7473 399.874 53.682 400.08 53.682ZM400.682 56.496V64H399.45V56.496H400.682ZM404.291 64H403.059V53.36H404.291V64ZM409.567 56.356C410.201 56.356 410.752 56.496 411.219 56.776C411.685 57.056 412.04 57.4527 412.283 57.966C412.535 58.47 412.661 59.0627 412.661 59.744V60.486H407.523C407.541 61.3353 407.756 61.984 408.167 62.432C408.587 62.8707 409.17 63.09 409.917 63.09C410.393 63.09 410.813 63.048 411.177 62.964C411.55 62.8707 411.933 62.74 412.325 62.572V63.65C411.942 63.818 411.564 63.9393 411.191 64.014C410.817 64.098 410.374 64.14 409.861 64.14C409.142 64.14 408.512 63.9953 407.971 63.706C407.429 63.4167 407.005 62.9873 406.697 62.418C406.398 61.8487 406.249 61.144 406.249 60.304C406.249 59.4827 406.384 58.778 406.655 58.19C406.935 57.602 407.322 57.1493 407.817 56.832C408.321 56.5147 408.904 56.356 409.567 56.356ZM409.553 57.364C408.965 57.364 408.498 57.5553 408.153 57.938C407.817 58.3113 407.616 58.834 407.551 59.506H411.373C411.363 58.8713 411.214 58.358 410.925 57.966C410.635 57.5647 410.178 57.364 409.553 57.364ZM424.046 61.326C424.046 62.2127 423.724 62.9033 423.08 63.398C422.436 63.8927 421.568 64.14 420.476 64.14C419.916 64.14 419.398 64.098 418.922 64.014C418.446 63.93 418.049 63.8133 417.732 63.664V62.46C418.068 62.6093 418.483 62.7447 418.978 62.866C419.482 62.9873 420 63.048 420.532 63.048C421.269 63.048 421.829 62.9033 422.212 62.614C422.594 62.3247 422.786 61.9327 422.786 61.438C422.786 61.1113 422.716 60.836 422.576 60.612C422.436 60.388 422.193 60.1827 421.848 59.996C421.502 59.8093 421.031 59.604 420.434 59.38C419.575 59.072 418.931 58.694 418.502 58.246C418.072 57.798 417.858 57.1867 417.858 56.412C417.858 55.8893 417.993 55.4367 418.264 55.054C418.534 54.6713 418.908 54.3773 419.384 54.172C419.86 53.9667 420.415 53.864 421.05 53.864C421.591 53.864 422.09 53.9153 422.548 54.018C423.005 54.1207 423.425 54.256 423.808 54.424L423.416 55.502C423.07 55.3527 422.692 55.2267 422.282 55.124C421.871 55.0213 421.451 54.97 421.022 54.97C420.396 54.97 419.925 55.1053 419.608 55.376C419.29 55.6373 419.132 55.9873 419.132 56.426C419.132 56.762 419.202 57.042 419.342 57.266C419.482 57.49 419.71 57.6953 420.028 57.882C420.345 58.0593 420.774 58.246 421.316 58.442C421.904 58.6567 422.398 58.89 422.8 59.142C423.21 59.3847 423.518 59.6787 423.724 60.024C423.938 60.3693 424.046 60.8033 424.046 61.326ZM428.733 56.37C429.648 56.37 430.325 56.5707 430.763 56.972C431.202 57.3733 431.421 58.0127 431.421 58.89V64H430.525L430.287 62.936H430.231C429.905 63.3467 429.559 63.65 429.195 63.846C428.831 64.042 428.337 64.14 427.711 64.14C427.03 64.14 426.465 63.9627 426.017 63.608C425.569 63.244 425.345 62.6793 425.345 61.914C425.345 61.1673 425.639 60.5933 426.227 60.192C426.815 59.7813 427.721 59.5573 428.943 59.52L430.217 59.478V59.03C430.217 58.4047 430.082 57.9707 429.811 57.728C429.541 57.4853 429.158 57.364 428.663 57.364C428.271 57.364 427.898 57.4247 427.543 57.546C427.189 57.658 426.857 57.7887 426.549 57.938L426.171 57.014C426.498 56.8367 426.885 56.6873 427.333 56.566C427.781 56.4353 428.248 56.37 428.733 56.37ZM430.203 60.332L429.097 60.374C428.164 60.4113 427.515 60.5607 427.151 60.822C426.797 61.0833 426.619 61.452 426.619 61.928C426.619 62.348 426.745 62.656 426.997 62.852C427.259 63.048 427.59 63.146 427.991 63.146C428.617 63.146 429.139 62.9733 429.559 62.628C429.989 62.2733 430.203 61.732 430.203 61.004V60.332ZM435.391 64L432.549 56.496H433.865L435.461 60.92C435.535 61.1253 435.615 61.354 435.699 61.606C435.783 61.858 435.857 62.1007 435.923 62.334C435.988 62.5673 436.035 62.7587 436.063 62.908H436.119C436.147 62.7587 436.198 62.5673 436.273 62.334C436.347 62.0913 436.427 61.8487 436.511 61.606C436.595 61.354 436.674 61.1253 436.749 60.92L438.345 56.496H439.661L436.805 64H435.391ZM443.746 56.356C444.381 56.356 444.932 56.496 445.398 56.776C445.865 57.056 446.22 57.4527 446.462 57.966C446.714 58.47 446.84 59.0627 446.84 59.744V60.486H441.702C441.721 61.3353 441.936 61.984 442.346 62.432C442.766 62.8707 443.35 63.09 444.096 63.09C444.572 63.09 444.992 63.048 445.356 62.964C445.73 62.8707 446.112 62.74 446.504 62.572V63.65C446.122 63.818 445.744 63.9393 445.37 64.014C444.997 64.098 444.554 64.14 444.04 64.14C443.322 64.14 442.692 63.9953 442.15 63.706C441.609 63.4167 441.184 62.9873 440.876 62.418C440.578 61.8487 440.428 61.144 440.428 60.304C440.428 59.4827 440.564 58.778 440.834 58.19C441.114 57.602 441.502 57.1493 441.996 56.832C442.5 56.5147 443.084 56.356 443.746 56.356ZM443.732 57.364C443.144 57.364 442.678 57.5553 442.332 57.938C441.996 58.3113 441.796 58.834 441.73 59.506H445.552C445.543 58.8713 445.394 58.358 445.104 57.966C444.815 57.5647 444.358 57.364 443.732 57.364ZM451.411 64.14C450.477 64.14 449.731 63.818 449.171 63.174C448.611 62.5207 448.331 61.55 448.331 60.262C448.331 58.974 448.611 58.0033 449.171 57.35C449.74 56.6873 450.491 56.356 451.425 56.356C452.003 56.356 452.475 56.4633 452.839 56.678C453.212 56.8927 453.515 57.154 453.749 57.462H453.833C453.814 57.3407 453.795 57.1633 453.777 56.93C453.758 56.6873 453.749 56.496 453.749 56.356V53.36H454.981V64H453.987L453.805 62.992H453.749C453.525 63.3093 453.226 63.58 452.853 63.804C452.479 64.028 451.999 64.14 451.411 64.14ZM451.607 63.118C452.4 63.118 452.955 62.9033 453.273 62.474C453.599 62.0353 453.763 61.3773 453.763 60.5V60.276C453.763 59.3427 453.609 58.6287 453.301 58.134C452.993 57.63 452.423 57.378 451.593 57.378C450.93 57.378 450.431 57.644 450.095 58.176C449.768 58.6987 449.605 59.4033 449.605 60.29C449.605 61.186 449.768 61.8813 450.095 62.376C450.431 62.8707 450.935 63.118 451.607 63.118ZM466.839 61.326C466.839 62.2127 466.517 62.9033 465.873 63.398C465.229 63.8927 464.361 64.14 463.269 64.14C462.709 64.14 462.191 64.098 461.715 64.014C461.239 63.93 460.842 63.8133 460.525 63.664V62.46C460.861 62.6093 461.276 62.7447 461.771 62.866C462.275 62.9873 462.793 63.048 463.325 63.048C464.062 63.048 464.622 62.9033 465.005 62.614C465.387 62.3247 465.579 61.9327 465.579 61.438C465.579 61.1113 465.509 60.836 465.369 60.612C465.229 60.388 464.986 60.1827 464.641 59.996C464.295 59.8093 463.824 59.604 463.227 59.38C462.368 59.072 461.724 58.694 461.295 58.246C460.865 57.798 460.651 57.1867 460.651 56.412C460.651 55.8893 460.786 55.4367 461.057 55.054C461.327 54.6713 461.701 54.3773 462.177 54.172C462.653 53.9667 463.208 53.864 463.843 53.864C464.384 53.864 464.883 53.9153 465.341 54.018C465.798 54.1207 466.218 54.256 466.601 54.424L466.209 55.502C465.863 55.3527 465.485 55.2267 465.075 55.124C464.664 55.0213 464.244 54.97 463.815 54.97C463.189 54.97 462.718 55.1053 462.401 55.376C462.083 55.6373 461.925 55.9873 461.925 56.426C461.925 56.762 461.995 57.042 462.135 57.266C462.275 57.49 462.503 57.6953 462.821 57.882C463.138 58.0593 463.567 58.246 464.109 58.442C464.697 58.6567 465.191 58.89 465.593 59.142C466.003 59.3847 466.311 59.6787 466.517 60.024C466.731 60.3693 466.839 60.8033 466.839 61.326ZM474.956 56.496V64H473.948L473.766 63.006H473.71C473.467 63.398 473.131 63.6873 472.702 63.874C472.273 64.0513 471.815 64.14 471.33 64.14C470.425 64.14 469.743 63.9253 469.286 63.496C468.829 63.0573 468.6 62.362 468.6 61.41V56.496H469.846V61.326C469.846 62.5207 470.401 63.118 471.512 63.118C472.343 63.118 472.917 62.8847 473.234 62.418C473.561 61.9513 473.724 61.2793 473.724 60.402V56.496H474.956ZM480.348 64.14C479.676 64.14 479.084 64.0047 478.57 63.734C478.057 63.4633 477.651 63.0433 477.352 62.474C477.063 61.9047 476.918 61.1767 476.918 60.29C476.918 59.366 477.068 58.6147 477.366 58.036C477.674 57.4573 478.094 57.0327 478.626 56.762C479.158 56.4913 479.76 56.356 480.432 56.356C480.806 56.356 481.17 56.398 481.524 56.482C481.888 56.5567 482.182 56.65 482.406 56.762L482.028 57.784C481.804 57.7 481.543 57.6207 481.244 57.546C480.946 57.4713 480.666 57.434 480.404 57.434C478.93 57.434 478.192 58.3813 478.192 60.276C478.192 61.1813 478.37 61.8767 478.724 62.362C479.088 62.838 479.625 63.076 480.334 63.076C480.736 63.076 481.095 63.034 481.412 62.95C481.73 62.866 482.019 62.7633 482.28 62.642V63.734C482.028 63.8647 481.748 63.9627 481.44 64.028C481.142 64.1027 480.778 64.14 480.348 64.14ZM487.075 64.14C486.403 64.14 485.81 64.0047 485.297 63.734C484.784 63.4633 484.378 63.0433 484.079 62.474C483.79 61.9047 483.645 61.1767 483.645 60.29C483.645 59.366 483.794 58.6147 484.093 58.036C484.401 57.4573 484.821 57.0327 485.353 56.762C485.885 56.4913 486.487 56.356 487.159 56.356C487.532 56.356 487.896 56.398 488.251 56.482C488.615 56.5567 488.909 56.65 489.133 56.762L488.755 57.784C488.531 57.7 488.27 57.6207 487.971 57.546C487.672 57.4713 487.392 57.434 487.131 57.434C485.656 57.434 484.919 58.3813 484.919 60.276C484.919 61.1813 485.096 61.8767 485.451 62.362C485.815 62.838 486.352 63.076 487.061 63.076C487.462 63.076 487.822 63.034 488.139 62.95C488.456 62.866 488.746 62.7633 489.007 62.642V63.734C488.755 63.8647 488.475 63.9627 488.167 64.028C487.868 64.1027 487.504 64.14 487.075 64.14ZM493.69 56.356C494.324 56.356 494.875 56.496 495.342 56.776C495.808 57.056 496.163 57.4527 496.406 57.966C496.658 58.47 496.784 59.0627 496.784 59.744V60.486H491.646C491.664 61.3353 491.879 61.984 492.29 62.432C492.71 62.8707 493.293 63.09 494.04 63.09C494.516 63.09 494.936 63.048 495.3 62.964C495.673 62.8707 496.056 62.74 496.448 62.572V63.65C496.065 63.818 495.687 63.9393 495.314 64.014C494.94 64.098 494.497 64.14 493.984 64.14C493.265 64.14 492.635 63.9953 492.094 63.706C491.552 63.4167 491.128 62.9873 490.82 62.418C490.521 61.8487 490.372 61.144 490.372 60.304C490.372 59.4827 490.507 58.778 490.778 58.19C491.058 57.602 491.445 57.1493 491.94 56.832C492.444 56.5147 493.027 56.356 493.69 56.356ZM493.676 57.364C493.088 57.364 492.621 57.5553 492.276 57.938C491.94 58.3113 491.739 58.834 491.674 59.506H495.496C495.486 58.8713 495.337 58.358 495.048 57.966C494.758 57.5647 494.301 57.364 493.676 57.364ZM503.58 61.928C503.58 62.656 503.309 63.2067 502.768 63.58C502.227 63.9533 501.499 64.14 500.584 64.14C500.061 64.14 499.609 64.098 499.226 64.014C498.853 63.93 498.521 63.8133 498.232 63.664V62.544C498.531 62.6933 498.89 62.8333 499.31 62.964C499.739 63.0853 500.173 63.146 500.612 63.146C501.237 63.146 501.69 63.048 501.97 62.852C502.25 62.6467 502.39 62.376 502.39 62.04C502.39 61.8533 502.339 61.6853 502.236 61.536C502.133 61.3867 501.947 61.2373 501.676 61.088C501.415 60.9387 501.037 60.7707 500.542 60.584C500.057 60.3973 499.641 60.2107 499.296 60.024C498.951 59.8373 498.685 59.6133 498.498 59.352C498.311 59.0907 498.218 58.7547 498.218 58.344C498.218 57.7093 498.475 57.2193 498.988 56.874C499.511 56.5287 500.192 56.356 501.032 56.356C501.489 56.356 501.914 56.4027 502.306 56.496C502.707 56.5893 503.081 56.7107 503.426 56.86L503.006 57.84C502.689 57.7093 502.357 57.5973 502.012 57.504C501.667 57.4107 501.312 57.364 500.948 57.364C500.444 57.364 500.057 57.448 499.786 57.616C499.525 57.7747 499.394 57.994 499.394 58.274C499.394 58.4887 499.455 58.666 499.576 58.806C499.697 58.946 499.898 59.086 500.178 59.226C500.467 59.366 500.85 59.5247 501.326 59.702C501.802 59.8793 502.208 60.0613 502.544 60.248C502.88 60.4347 503.137 60.6633 503.314 60.934C503.491 61.1953 503.58 61.5267 503.58 61.928ZM510.279 61.928C510.279 62.656 510.008 63.2067 509.467 63.58C508.926 63.9533 508.198 64.14 507.283 64.14C506.76 64.14 506.308 64.098 505.925 64.014C505.552 63.93 505.22 63.8133 504.931 63.664V62.544C505.23 62.6933 505.589 62.8333 506.009 62.964C506.438 63.0853 506.872 63.146 507.311 63.146C507.936 63.146 508.389 63.048 508.669 62.852C508.949 62.6467 509.089 62.376 509.089 62.04C509.089 61.8533 509.038 61.6853 508.935 61.536C508.832 61.3867 508.646 61.2373 508.375 61.088C508.114 60.9387 507.736 60.7707 507.241 60.584C506.756 60.3973 506.34 60.2107 505.995 60.024C505.65 59.8373 505.384 59.6133 505.197 59.352C505.01 59.0907 504.917 58.7547 504.917 58.344C504.917 57.7093 505.174 57.2193 505.687 56.874C506.21 56.5287 506.891 56.356 507.731 56.356C508.188 56.356 508.613 56.4027 509.005 56.496C509.406 56.5893 509.78 56.7107 510.125 56.86L509.705 57.84C509.388 57.7093 509.056 57.5973 508.711 57.504C508.366 57.4107 508.011 57.364 507.647 57.364C507.143 57.364 506.756 57.448 506.485 57.616C506.224 57.7747 506.093 57.994 506.093 58.274C506.093 58.4887 506.154 58.666 506.275 58.806C506.396 58.946 506.597 59.086 506.877 59.226C507.166 59.366 507.549 59.5247 508.025 59.702C508.501 59.8793 508.907 60.0613 509.243 60.248C509.579 60.4347 509.836 60.6633 510.013 60.934C510.19 61.1953 510.279 61.5267 510.279 61.928ZM515.55 57.448H513.66V64H512.428V57.448H511.112V56.874L512.428 56.454V56.02C512.428 55.0493 512.638 54.354 513.058 53.934C513.488 53.5047 514.09 53.29 514.864 53.29C515.154 53.29 515.424 53.318 515.676 53.374C515.928 53.4207 516.143 53.4767 516.32 53.542L515.998 54.508C515.849 54.4613 515.676 54.4147 515.48 54.368C515.284 54.3213 515.084 54.298 514.878 54.298C514.468 54.298 514.16 54.438 513.954 54.718C513.758 54.9887 513.66 55.418 513.66 56.006V56.496H515.55V57.448ZM523.177 56.496V64H522.169L521.987 63.006H521.931C521.688 63.398 521.352 63.6873 520.923 63.874C520.494 64.0513 520.036 64.14 519.551 64.14C518.646 64.14 517.964 63.9253 517.507 63.496C517.05 63.0573 516.821 62.362 516.821 61.41V56.496H518.067V61.326C518.067 62.5207 518.622 63.118 519.733 63.118C520.564 63.118 521.138 62.8847 521.455 62.418C521.782 61.9513 521.945 61.2793 521.945 60.402V56.496H523.177ZM526.791 64H525.559V53.36H526.791V64ZM530.401 64H529.169V53.36H530.401V64ZM531.602 56.496H532.918L534.542 60.766C534.682 61.1487 534.808 61.508 534.92 61.844C535.032 62.18 535.116 62.502 535.172 62.81H535.228C535.284 62.5767 535.373 62.2733 535.494 61.9C535.615 61.5173 535.741 61.1347 535.872 60.752L537.398 56.496H538.728L535.494 65.036C535.223 65.7453 534.883 66.31 534.472 66.73C534.061 67.15 533.492 67.36 532.764 67.36C532.54 67.36 532.344 67.346 532.176 67.318C532.008 67.2993 531.863 67.276 531.742 67.248V66.268C531.845 66.2867 531.966 66.3053 532.106 66.324C532.255 66.3427 532.409 66.352 532.568 66.352C532.997 66.352 533.343 66.2307 533.604 65.988C533.865 65.7453 534.075 65.4233 534.234 65.022L534.626 64.028L531.602 56.496Z" fill="white"/>
</g>
<circle cx="373" cy="13" r="12" fill="#D51588"/>
<path d="M376.942 18H370.096V16.698L372.644 14.122C373.148 13.6087 373.559 13.17 373.876 12.806C374.203 12.442 374.441 12.1013 374.59 11.784C374.749 11.4573 374.828 11.1073 374.828 10.734C374.828 10.2767 374.697 9.936 374.436 9.712C374.184 9.47867 373.839 9.362 373.4 9.362C372.98 9.362 372.588 9.45067 372.224 9.628C371.86 9.796 371.482 10.0387 371.09 10.356L370.124 9.194C370.535 8.83933 370.997 8.53133 371.51 8.27C372.033 7.99933 372.695 7.864 373.498 7.864C374.142 7.864 374.693 7.98067 375.15 8.214C375.617 8.438 375.976 8.75533 376.228 9.166C376.48 9.56733 376.606 10.0293 376.606 10.552C376.606 11.0933 376.499 11.5927 376.284 12.05C376.069 12.498 375.757 12.9507 375.346 13.408C374.945 13.856 374.464 14.3413 373.904 14.864L372.322 16.39V16.474H376.942V18Z" fill="white"/>
<path d="M373 25V50" stroke="#D51588"/>
<circle cx="325" cy="59" r="12" fill="#D51588"/>
<path d="M326.968 64H325.204V57.77C325.204 57.4713 325.209 57.154 325.218 56.818C325.227 56.482 325.241 56.1693 325.26 55.88C325.167 55.9733 325.05 56.0853 324.91 56.216C324.779 56.3467 324.635 56.4727 324.476 56.594L323.356 57.49L322.474 56.398L325.498 54.004H326.968V64Z" fill="white"/>
<path d="M337 59H355" stroke="#D51588"/>
<path d="M542 59H567" stroke="#D51588"/>
<circle cx="579" cy="59" r="12" fill="#D51588"/>
<path d="M582.55 56.286C582.55 56.9673 582.349 57.5133 581.948 57.924C581.556 58.3253 581.047 58.596 580.422 58.736V58.778C581.225 58.8807 581.831 59.1327 582.242 59.534C582.653 59.9353 582.858 60.4627 582.858 61.116C582.858 61.6947 582.718 62.2127 582.438 62.67C582.158 63.1273 581.724 63.4867 581.136 63.748C580.557 64.0093 579.811 64.14 578.896 64.14C578.345 64.14 577.837 64.0933 577.37 64C576.913 63.916 576.479 63.7807 576.068 63.594V62.04C576.488 62.2547 576.936 62.418 577.412 62.53C577.888 62.642 578.336 62.698 578.756 62.698C579.568 62.698 580.142 62.5533 580.478 62.264C580.814 61.9653 580.982 61.5547 580.982 61.032C580.982 60.5373 580.786 60.1687 580.394 59.926C580.002 59.6833 579.349 59.562 578.434 59.562H577.594V58.148H578.448C579.335 58.148 579.946 58.0033 580.282 57.714C580.618 57.4247 580.786 57.0513 580.786 56.594C580.786 56.1927 580.655 55.88 580.394 55.656C580.133 55.432 579.741 55.32 579.218 55.32C578.714 55.32 578.28 55.404 577.916 55.572C577.552 55.7307 577.225 55.9033 576.936 56.09L576.096 54.872C576.479 54.592 576.931 54.354 577.454 54.158C577.977 53.962 578.593 53.864 579.302 53.864C580.338 53.864 581.136 54.0833 581.696 54.522C582.265 54.9607 582.55 55.5487 582.55 56.286Z" fill="white"/>
<defs>
<filter id="filter0_d_8533_523778" x="339" y="29" width="228" height="76" filterUnits="userSpaceOnUse" color-interpolation-filters="sRGB">
<feFlood flood-opacity="0" result="BackgroundImageFix"/>
<feColorMatrix in="SourceAlpha" type="matrix" values="0 0 0 0 0 0 0 0 0 0 0 0 0 0 0 0 0 0 127 0" result="hardAlpha"/>
<feOffset dy="8"/>
<feGaussianBlur stdDeviation="8"/>
<feColorMatrix type="matrix" values="0 0 0 0 0 0 0 0 0 0 0 0 0 0 0 0 0 0 0.25 0"/>
<feBlend mode="normal" in2="BackgroundImageFix" result="effect1_dropShadow_8533_523778"/>
<feBlend mode="normal" in="SourceGraphic" in2="effect1_dropShadow_8533_523778" result="shape"/>
</filter>
</defs>
</svg>
