<svg width="952" height="385" viewBox="0 0 952 385" fill="none" xmlns="http://www.w3.org/2000/svg">
<g clip-path="url(#clip0_9481_633953)">
<rect width="952" height="385" fill="#F1F1F1"/>
<g filter="url(#filter0_d_9481_633953)">
<g clip-path="url(#clip1_9481_633953)">
<g clip-path="url(#clip2_9481_633953)">
<g filter="url(#filter1_i_9481_633953)">
<rect width="56" height="516" transform="translate(76 98)" fill="white"/>
<rect width="56" height="48" transform="translate(76 98)" fill="white"/>
<path d="M104 134C98.201 134 93.5 129.299 93.5 123.5C93.5 117.701 98.201 113 104 113C109.799 113 114.5 117.701 114.5 123.5C114.5 129.299 109.799 134 104 134Z" fill="#C9C9C9"/>
<rect width="56" height="48" transform="translate(76 146)" fill="white"/>
<path d="M104 182C98.201 182 93.5 177.299 93.5 171.5C93.5 165.701 98.201 161 104 161C109.799 161 114.5 165.701 114.5 171.5C114.5 177.299 109.799 182 104 182Z" fill="#C9C9C9"/>
<rect width="56" height="48" transform="translate(76 194)" fill="white"/>
<path d="M104 230C98.201 230 93.5 225.299 93.5 219.5C93.5 213.701 98.201 209 104 209C109.799 209 114.5 213.701 114.5 219.5C114.5 225.299 109.799 230 104 230Z" fill="#C9C9C9"/>
<rect width="56" height="48" transform="translate(76 242)" fill="white"/>
<path d="M104 278C98.201 278 93.5 273.299 93.5 267.5C93.5 261.701 98.201 257 104 257C109.799 257 114.5 261.701 114.5 267.5C114.5 273.299 109.799 278 104 278Z" fill="#C9C9C9"/>
</g>
<g filter="url(#filter2_i_9481_633953)">
<rect width="800" height="58" transform="translate(76 40)" fill="white"/>
<path d="M76 40H123.759L153 98H76V40Z" fill="#DA291C"/>
<line x1="76" y1="97.5" x2="153" y2="97.5" stroke="#C9C9C9"/>
<path d="M98.9378 74.2535H106.911L108.21 77.28H97.4439L95.7227 80.7636H90.9648L102.754 57.8444H106.05L117.839 80.7636H113.098L104.41 63.0619L98.9378 74.2535Z" fill="white"/>
<rect x="169" y="63" width="120" height="12" rx="2" fill="#C9C9C9"/>
<rect x="495.5" y="51.5" width="199" height="35" rx="1.5" fill="white"/>
<path fill-rule="evenodd" clip-rule="evenodd" d="M513.62 62.7493C510.93 62.7493 508.749 64.93 508.749 67.62C508.749 70.31 510.93 72.4906 513.62 72.4906C516.31 72.4906 518.491 70.31 518.491 67.62C518.491 64.93 516.31 62.7493 513.62 62.7493ZM508 67.62C508 64.5162 510.516 62 513.62 62C516.724 62 519.24 64.5162 519.24 67.62C519.24 70.7238 516.724 73.24 513.62 73.24C510.516 73.24 508 70.7238 508 67.62Z" fill="#939393"/>
<path fill-rule="evenodd" clip-rule="evenodd" d="M517.302 71.3015C517.448 71.1552 517.685 71.1552 517.831 71.3015L519.68 73.1499C519.826 73.2962 519.826 73.5334 519.68 73.6797C519.533 73.8261 519.296 73.8261 519.15 73.6797L517.302 71.8314C517.155 71.6851 517.155 71.4478 517.302 71.3015Z" fill="#939393"/>
<path fill-rule="evenodd" clip-rule="evenodd" d="M520.449 73.7297C520.245 73.5263 519.933 73.5263 519.73 73.7297C519.526 73.9331 519.526 74.2453 519.73 74.4487L520.379 75.0981C520.386 75.1049 520.392 75.112 520.399 75.1192C520.538 75.2822 520.882 75.3138 521.098 75.0981C521.302 74.8948 521.302 74.5825 521.098 74.3791L520.449 73.7297ZM519.2 73.1998C519.696 72.7038 520.483 72.7038 520.979 73.1998L521.628 73.8493C522.124 74.3453 522.124 75.132 521.628 75.628C521.148 76.1081 520.302 76.1428 519.84 75.6189L519.2 74.9786C518.704 74.4826 518.704 73.6958 519.2 73.1998Z" fill="#939393"/>
<rect x="495.5" y="51.5" width="199" height="35" rx="1.5" stroke="#C9C9C9"/>
<path d="M735 79.5C729.201 79.5 724.5 74.799 724.5 69C724.5 63.201 729.201 58.5 735 58.5C740.799 58.5 745.5 63.201 745.5 69C745.5 74.799 740.799 79.5 735 79.5Z" fill="#C9C9C9"/>
<path d="M783 79.5C777.201 79.5 772.5 74.799 772.5 69C772.5 63.201 777.201 58.5 783 58.5C788.799 58.5 793.5 63.201 793.5 69C793.5 74.799 788.799 79.5 783 79.5Z" fill="#C9C9C9"/>
<circle cx="840" cy="69" r="20" fill="white"/>
<g clip-path="url(#clip3_9481_633953)">
<path d="M828.571 85.413V83.0845C828.571 80.0534 829.776 77.1465 831.919 75.0032C834.062 72.86 836.969 71.6559 840 71.6559C843.031 71.6559 845.938 72.86 848.081 75.0032C850.224 77.1465 851.429 80.0534 851.429 83.0845V85.413C854.923 82.98 857.549 79.4952 858.926 75.466C860.303 71.4368 860.357 67.0734 859.082 63.0109C857.807 58.9484 855.269 55.3988 851.837 52.8789C848.405 50.3589 844.258 49 840 49C835.742 49 831.595 50.3589 828.163 52.8789C824.731 55.3988 822.193 58.9484 820.918 63.0109C819.643 67.0734 819.697 71.4368 821.074 75.466C822.451 79.4952 825.077 82.98 828.571 85.413ZM840 55.6273C841.297 55.6273 842.565 56.0119 843.643 56.7324C844.721 57.4529 845.562 58.477 846.058 59.6752C846.554 60.8733 846.684 62.1917 846.431 63.4637C846.178 64.7357 845.554 65.904 844.637 66.8211C843.72 67.7381 842.551 68.3626 841.279 68.6156C840.007 68.8686 838.689 68.7388 837.491 68.2425C836.293 67.7462 835.268 66.9057 834.548 65.8274C833.827 64.7491 833.443 63.4813 833.443 62.1845C833.447 60.4466 834.139 58.7809 835.368 57.552C836.596 56.3231 838.262 55.6311 840 55.6273Z" fill="#C9C9C9"/>
</g>
</g>
<rect width="744" height="516" transform="translate(132 98)" fill="#F1F1F1"/>
<rect x="140.5" y="106.5" width="727" height="499" rx="3.5" fill="white"/>
<rect x="140.5" y="106.5" width="727" height="499" rx="3.5" stroke="#C9C9C9"/>
</g>
<rect x="76.5" y="40.5" width="799" height="573" rx="7.5" stroke="#C9C9C9"/>
<g filter="url(#filter3_d_9481_633953)">
<rect x="378" y="106" width="196" height="44" rx="4" fill="#323232"/>
<path d="M396.512 133.202C396.412 133.202 396.312 133.152 396.262 133.102L392.113 128.952C391.962 128.802 391.962 128.552 392.113 128.402C392.263 128.252 392.512 128.252 392.662 128.402L396.512 132.252L403.312 123.152C403.413 123.002 403.663 122.952 403.812 123.052C403.962 123.152 404.012 123.402 403.912 123.552L396.812 133.052C396.762 133.152 396.662 133.202 396.512 133.202Z" fill="white"/>
<path d="M416.618 133H415.358V123.004H420.944V124.11H416.618V127.652H420.678V128.758H416.618V133ZM423.08 122.682C423.266 122.682 423.43 122.747 423.57 122.878C423.719 122.999 423.794 123.195 423.794 123.466C423.794 123.737 423.719 123.937 423.57 124.068C423.43 124.189 423.266 124.25 423.08 124.25C422.874 124.25 422.702 124.189 422.562 124.068C422.422 123.937 422.352 123.737 422.352 123.466C422.352 123.195 422.422 122.999 422.562 122.878C422.702 122.747 422.874 122.682 423.08 122.682ZM423.682 125.496V133H422.45V125.496H423.682ZM427.291 133H426.059V122.36H427.291V133ZM432.567 125.356C433.201 125.356 433.752 125.496 434.219 125.776C434.685 126.056 435.04 126.453 435.283 126.966C435.535 127.47 435.661 128.063 435.661 128.744V129.486H430.523C430.541 130.335 430.756 130.984 431.167 131.432C431.587 131.871 432.17 132.09 432.917 132.09C433.393 132.09 433.813 132.048 434.177 131.964C434.55 131.871 434.933 131.74 435.325 131.572V132.65C434.942 132.818 434.564 132.939 434.191 133.014C433.817 133.098 433.374 133.14 432.861 133.14C432.142 133.14 431.512 132.995 430.971 132.706C430.429 132.417 430.005 131.987 429.697 131.418C429.398 130.849 429.249 130.144 429.249 129.304C429.249 128.483 429.384 127.778 429.655 127.19C429.935 126.602 430.322 126.149 430.817 125.832C431.321 125.515 431.904 125.356 432.567 125.356ZM432.553 126.364C431.965 126.364 431.498 126.555 431.153 126.938C430.817 127.311 430.616 127.834 430.551 128.506H434.373C434.363 127.871 434.214 127.358 433.925 126.966C433.635 126.565 433.178 126.364 432.553 126.364ZM447.046 130.326C447.046 131.213 446.724 131.903 446.08 132.398C445.436 132.893 444.568 133.14 443.476 133.14C442.916 133.14 442.398 133.098 441.922 133.014C441.446 132.93 441.049 132.813 440.732 132.664V131.46C441.068 131.609 441.483 131.745 441.978 131.866C442.482 131.987 443 132.048 443.532 132.048C444.269 132.048 444.829 131.903 445.212 131.614C445.594 131.325 445.786 130.933 445.786 130.438C445.786 130.111 445.716 129.836 445.576 129.612C445.436 129.388 445.193 129.183 444.848 128.996C444.502 128.809 444.031 128.604 443.434 128.38C442.575 128.072 441.931 127.694 441.502 127.246C441.072 126.798 440.858 126.187 440.858 125.412C440.858 124.889 440.993 124.437 441.264 124.054C441.534 123.671 441.908 123.377 442.384 123.172C442.86 122.967 443.415 122.864 444.05 122.864C444.591 122.864 445.09 122.915 445.548 123.018C446.005 123.121 446.425 123.256 446.808 123.424L446.416 124.502C446.07 124.353 445.692 124.227 445.282 124.124C444.871 124.021 444.451 123.97 444.022 123.97C443.396 123.97 442.925 124.105 442.608 124.376C442.29 124.637 442.132 124.987 442.132 125.426C442.132 125.762 442.202 126.042 442.342 126.266C442.482 126.49 442.71 126.695 443.028 126.882C443.345 127.059 443.774 127.246 444.316 127.442C444.904 127.657 445.398 127.89 445.8 128.142C446.21 128.385 446.518 128.679 446.724 129.024C446.938 129.369 447.046 129.803 447.046 130.326ZM451.733 125.37C452.648 125.37 453.325 125.571 453.763 125.972C454.202 126.373 454.421 127.013 454.421 127.89V133H453.525L453.287 131.936H453.231C452.905 132.347 452.559 132.65 452.195 132.846C451.831 133.042 451.337 133.14 450.711 133.14C450.03 133.14 449.465 132.963 449.017 132.608C448.569 132.244 448.345 131.679 448.345 130.914C448.345 130.167 448.639 129.593 449.227 129.192C449.815 128.781 450.721 128.557 451.943 128.52L453.217 128.478V128.03C453.217 127.405 453.082 126.971 452.811 126.728C452.541 126.485 452.158 126.364 451.663 126.364C451.271 126.364 450.898 126.425 450.543 126.546C450.189 126.658 449.857 126.789 449.549 126.938L449.171 126.014C449.498 125.837 449.885 125.687 450.333 125.566C450.781 125.435 451.248 125.37 451.733 125.37ZM453.203 129.332L452.097 129.374C451.164 129.411 450.515 129.561 450.151 129.822C449.797 130.083 449.619 130.452 449.619 130.928C449.619 131.348 449.745 131.656 449.997 131.852C450.259 132.048 450.59 132.146 450.991 132.146C451.617 132.146 452.139 131.973 452.559 131.628C452.989 131.273 453.203 130.732 453.203 130.004V129.332ZM458.391 133L455.549 125.496H456.865L458.461 129.92C458.535 130.125 458.615 130.354 458.699 130.606C458.783 130.858 458.857 131.101 458.923 131.334C458.988 131.567 459.035 131.759 459.063 131.908H459.119C459.147 131.759 459.198 131.567 459.273 131.334C459.347 131.091 459.427 130.849 459.511 130.606C459.595 130.354 459.674 130.125 459.749 129.92L461.345 125.496H462.661L459.805 133H458.391ZM466.746 125.356C467.381 125.356 467.932 125.496 468.398 125.776C468.865 126.056 469.22 126.453 469.462 126.966C469.714 127.47 469.84 128.063 469.84 128.744V129.486H464.702C464.721 130.335 464.936 130.984 465.346 131.432C465.766 131.871 466.35 132.09 467.096 132.09C467.572 132.09 467.992 132.048 468.356 131.964C468.73 131.871 469.112 131.74 469.504 131.572V132.65C469.122 132.818 468.744 132.939 468.37 133.014C467.997 133.098 467.554 133.14 467.04 133.14C466.322 133.14 465.692 132.995 465.15 132.706C464.609 132.417 464.184 131.987 463.876 131.418C463.578 130.849 463.428 130.144 463.428 129.304C463.428 128.483 463.564 127.778 463.834 127.19C464.114 126.602 464.502 126.149 464.996 125.832C465.5 125.515 466.084 125.356 466.746 125.356ZM466.732 126.364C466.144 126.364 465.678 126.555 465.332 126.938C464.996 127.311 464.796 127.834 464.73 128.506H468.552C468.543 127.871 468.394 127.358 468.104 126.966C467.815 126.565 467.358 126.364 466.732 126.364ZM474.411 133.14C473.477 133.14 472.731 132.818 472.171 132.174C471.611 131.521 471.331 130.55 471.331 129.262C471.331 127.974 471.611 127.003 472.171 126.35C472.74 125.687 473.491 125.356 474.425 125.356C475.003 125.356 475.475 125.463 475.839 125.678C476.212 125.893 476.515 126.154 476.749 126.462H476.833C476.814 126.341 476.795 126.163 476.777 125.93C476.758 125.687 476.749 125.496 476.749 125.356V122.36H477.981V133H476.987L476.805 131.992H476.749C476.525 132.309 476.226 132.58 475.853 132.804C475.479 133.028 474.999 133.14 474.411 133.14ZM474.607 132.118C475.4 132.118 475.955 131.903 476.273 131.474C476.599 131.035 476.763 130.377 476.763 129.5V129.276C476.763 128.343 476.609 127.629 476.301 127.134C475.993 126.63 475.423 126.378 474.593 126.378C473.93 126.378 473.431 126.644 473.095 127.176C472.768 127.699 472.605 128.403 472.605 129.29C472.605 130.186 472.768 130.881 473.095 131.376C473.431 131.871 473.935 132.118 474.607 132.118ZM489.839 130.326C489.839 131.213 489.517 131.903 488.873 132.398C488.229 132.893 487.361 133.14 486.269 133.14C485.709 133.14 485.191 133.098 484.715 133.014C484.239 132.93 483.842 132.813 483.525 132.664V131.46C483.861 131.609 484.276 131.745 484.771 131.866C485.275 131.987 485.793 132.048 486.325 132.048C487.062 132.048 487.622 131.903 488.005 131.614C488.387 131.325 488.579 130.933 488.579 130.438C488.579 130.111 488.509 129.836 488.369 129.612C488.229 129.388 487.986 129.183 487.641 128.996C487.295 128.809 486.824 128.604 486.227 128.38C485.368 128.072 484.724 127.694 484.295 127.246C483.865 126.798 483.651 126.187 483.651 125.412C483.651 124.889 483.786 124.437 484.057 124.054C484.327 123.671 484.701 123.377 485.177 123.172C485.653 122.967 486.208 122.864 486.843 122.864C487.384 122.864 487.883 122.915 488.341 123.018C488.798 123.121 489.218 123.256 489.601 123.424L489.209 124.502C488.863 124.353 488.485 124.227 488.075 124.124C487.664 124.021 487.244 123.97 486.815 123.97C486.189 123.97 485.718 124.105 485.401 124.376C485.083 124.637 484.925 124.987 484.925 125.426C484.925 125.762 484.995 126.042 485.135 126.266C485.275 126.49 485.503 126.695 485.821 126.882C486.138 127.059 486.567 127.246 487.109 127.442C487.697 127.657 488.191 127.89 488.593 128.142C489.003 128.385 489.311 128.679 489.517 129.024C489.731 129.369 489.839 129.803 489.839 130.326ZM497.956 125.496V133H496.948L496.766 132.006H496.71C496.467 132.398 496.131 132.687 495.702 132.874C495.273 133.051 494.815 133.14 494.33 133.14C493.425 133.14 492.743 132.925 492.286 132.496C491.829 132.057 491.6 131.362 491.6 130.41V125.496H492.846V130.326C492.846 131.521 493.401 132.118 494.512 132.118C495.343 132.118 495.917 131.885 496.234 131.418C496.561 130.951 496.724 130.279 496.724 129.402V125.496H497.956ZM503.348 133.14C502.676 133.14 502.084 133.005 501.57 132.734C501.057 132.463 500.651 132.043 500.352 131.474C500.063 130.905 499.918 130.177 499.918 129.29C499.918 128.366 500.068 127.615 500.366 127.036C500.674 126.457 501.094 126.033 501.626 125.762C502.158 125.491 502.76 125.356 503.432 125.356C503.806 125.356 504.17 125.398 504.524 125.482C504.888 125.557 505.182 125.65 505.406 125.762L505.028 126.784C504.804 126.7 504.543 126.621 504.244 126.546C503.946 126.471 503.666 126.434 503.404 126.434C501.93 126.434 501.192 127.381 501.192 129.276C501.192 130.181 501.37 130.877 501.724 131.362C502.088 131.838 502.625 132.076 503.334 132.076C503.736 132.076 504.095 132.034 504.412 131.95C504.73 131.866 505.019 131.763 505.28 131.642V132.734C505.028 132.865 504.748 132.963 504.44 133.028C504.142 133.103 503.778 133.14 503.348 133.14ZM510.075 133.14C509.403 133.14 508.81 133.005 508.297 132.734C507.784 132.463 507.378 132.043 507.079 131.474C506.79 130.905 506.645 130.177 506.645 129.29C506.645 128.366 506.794 127.615 507.093 127.036C507.401 126.457 507.821 126.033 508.353 125.762C508.885 125.491 509.487 125.356 510.159 125.356C510.532 125.356 510.896 125.398 511.251 125.482C511.615 125.557 511.909 125.65 512.133 125.762L511.755 126.784C511.531 126.7 511.27 126.621 510.971 126.546C510.672 126.471 510.392 126.434 510.131 126.434C508.656 126.434 507.919 127.381 507.919 129.276C507.919 130.181 508.096 130.877 508.451 131.362C508.815 131.838 509.352 132.076 510.061 132.076C510.462 132.076 510.822 132.034 511.139 131.95C511.456 131.866 511.746 131.763 512.007 131.642V132.734C511.755 132.865 511.475 132.963 511.167 133.028C510.868 133.103 510.504 133.14 510.075 133.14ZM516.69 125.356C517.324 125.356 517.875 125.496 518.342 125.776C518.808 126.056 519.163 126.453 519.406 126.966C519.658 127.47 519.784 128.063 519.784 128.744V129.486H514.646C514.664 130.335 514.879 130.984 515.29 131.432C515.71 131.871 516.293 132.09 517.04 132.09C517.516 132.09 517.936 132.048 518.3 131.964C518.673 131.871 519.056 131.74 519.448 131.572V132.65C519.065 132.818 518.687 132.939 518.314 133.014C517.94 133.098 517.497 133.14 516.984 133.14C516.265 133.14 515.635 132.995 515.094 132.706C514.552 132.417 514.128 131.987 513.82 131.418C513.521 130.849 513.372 130.144 513.372 129.304C513.372 128.483 513.507 127.778 513.778 127.19C514.058 126.602 514.445 126.149 514.94 125.832C515.444 125.515 516.027 125.356 516.69 125.356ZM516.676 126.364C516.088 126.364 515.621 126.555 515.276 126.938C514.94 127.311 514.739 127.834 514.674 128.506H518.496C518.486 127.871 518.337 127.358 518.048 126.966C517.758 126.565 517.301 126.364 516.676 126.364ZM526.58 130.928C526.58 131.656 526.309 132.207 525.768 132.58C525.227 132.953 524.499 133.14 523.584 133.14C523.061 133.14 522.609 133.098 522.226 133.014C521.853 132.93 521.521 132.813 521.232 132.664V131.544C521.531 131.693 521.89 131.833 522.31 131.964C522.739 132.085 523.173 132.146 523.612 132.146C524.237 132.146 524.69 132.048 524.97 131.852C525.25 131.647 525.39 131.376 525.39 131.04C525.39 130.853 525.339 130.685 525.236 130.536C525.133 130.387 524.947 130.237 524.676 130.088C524.415 129.939 524.037 129.771 523.542 129.584C523.057 129.397 522.641 129.211 522.296 129.024C521.951 128.837 521.685 128.613 521.498 128.352C521.311 128.091 521.218 127.755 521.218 127.344C521.218 126.709 521.475 126.219 521.988 125.874C522.511 125.529 523.192 125.356 524.032 125.356C524.489 125.356 524.914 125.403 525.306 125.496C525.707 125.589 526.081 125.711 526.426 125.86L526.006 126.84C525.689 126.709 525.357 126.597 525.012 126.504C524.667 126.411 524.312 126.364 523.948 126.364C523.444 126.364 523.057 126.448 522.786 126.616C522.525 126.775 522.394 126.994 522.394 127.274C522.394 127.489 522.455 127.666 522.576 127.806C522.697 127.946 522.898 128.086 523.178 128.226C523.467 128.366 523.85 128.525 524.326 128.702C524.802 128.879 525.208 129.061 525.544 129.248C525.88 129.435 526.137 129.663 526.314 129.934C526.491 130.195 526.58 130.527 526.58 130.928ZM533.279 130.928C533.279 131.656 533.008 132.207 532.467 132.58C531.926 132.953 531.198 133.14 530.283 133.14C529.76 133.14 529.308 133.098 528.925 133.014C528.552 132.93 528.22 132.813 527.931 132.664V131.544C528.23 131.693 528.589 131.833 529.009 131.964C529.438 132.085 529.872 132.146 530.311 132.146C530.936 132.146 531.389 132.048 531.669 131.852C531.949 131.647 532.089 131.376 532.089 131.04C532.089 130.853 532.038 130.685 531.935 130.536C531.832 130.387 531.646 130.237 531.375 130.088C531.114 129.939 530.736 129.771 530.241 129.584C529.756 129.397 529.34 129.211 528.995 129.024C528.65 128.837 528.384 128.613 528.197 128.352C528.01 128.091 527.917 127.755 527.917 127.344C527.917 126.709 528.174 126.219 528.687 125.874C529.21 125.529 529.891 125.356 530.731 125.356C531.188 125.356 531.613 125.403 532.005 125.496C532.406 125.589 532.78 125.711 533.125 125.86L532.705 126.84C532.388 126.709 532.056 126.597 531.711 126.504C531.366 126.411 531.011 126.364 530.647 126.364C530.143 126.364 529.756 126.448 529.485 126.616C529.224 126.775 529.093 126.994 529.093 127.274C529.093 127.489 529.154 127.666 529.275 127.806C529.396 127.946 529.597 128.086 529.877 128.226C530.166 128.366 530.549 128.525 531.025 128.702C531.501 128.879 531.907 129.061 532.243 129.248C532.579 129.435 532.836 129.663 533.013 129.934C533.19 130.195 533.279 130.527 533.279 130.928ZM538.55 126.448H536.66V133H535.428V126.448H534.112V125.874L535.428 125.454V125.02C535.428 124.049 535.638 123.354 536.058 122.934C536.488 122.505 537.09 122.29 537.864 122.29C538.154 122.29 538.424 122.318 538.676 122.374C538.928 122.421 539.143 122.477 539.32 122.542L538.998 123.508C538.849 123.461 538.676 123.415 538.48 123.368C538.284 123.321 538.084 123.298 537.878 123.298C537.468 123.298 537.16 123.438 536.954 123.718C536.758 123.989 536.66 124.418 536.66 125.006V125.496H538.55V126.448ZM546.177 125.496V133H545.169L544.987 132.006H544.931C544.688 132.398 544.352 132.687 543.923 132.874C543.494 133.051 543.036 133.14 542.551 133.14C541.646 133.14 540.964 132.925 540.507 132.496C540.05 132.057 539.821 131.362 539.821 130.41V125.496H541.067V130.326C541.067 131.521 541.622 132.118 542.733 132.118C543.564 132.118 544.138 131.885 544.455 131.418C544.782 130.951 544.945 130.279 544.945 129.402V125.496H546.177ZM549.791 133H548.559V122.36H549.791V133ZM553.401 133H552.169V122.36H553.401V133ZM554.602 125.496H555.918L557.542 129.766C557.682 130.149 557.808 130.508 557.92 130.844C558.032 131.18 558.116 131.502 558.172 131.81H558.228C558.284 131.577 558.373 131.273 558.494 130.9C558.615 130.517 558.741 130.135 558.872 129.752L560.398 125.496H561.728L558.494 134.036C558.223 134.745 557.883 135.31 557.472 135.73C557.061 136.15 556.492 136.36 555.764 136.36C555.54 136.36 555.344 136.346 555.176 136.318C555.008 136.299 554.863 136.276 554.742 136.248V135.268C554.845 135.287 554.966 135.305 555.106 135.324C555.255 135.343 555.409 135.352 555.568 135.352C555.997 135.352 556.343 135.231 556.604 134.988C556.865 134.745 557.075 134.423 557.234 134.022L557.626 133.028L554.602 125.496Z" fill="white"/>
</g>
</g>
</g>
</g>
<defs>
<filter id="filter0_d_9481_633953" x="16" y="36" width="920" height="360" filterUnits="userSpaceOnUse" color-interpolation-filters="sRGB">
<feFlood flood-opacity="0" result="BackgroundImageFix"/>
<feColorMatrix in="SourceAlpha" type="matrix" values="0 0 0 0 0 0 0 0 0 0 0 0 0 0 0 0 0 0 127 0" result="hardAlpha"/>
<feOffset dy="4"/>
<feGaussianBlur stdDeviation="4"/>
<feColorMatrix type="matrix" values="0 0 0 0 0 0 0 0 0 0 0 0 0 0 0 0 0 0 0.25 0"/>
<feBlend mode="normal" in2="BackgroundImageFix" result="effect1_dropShadow_9481_633953"/>
<feBlend mode="normal" in="SourceGraphic" in2="effect1_dropShadow_9481_633953" result="shape"/>
</filter>
<filter id="filter1_i_9481_633953" x="76" y="98" width="56" height="516" filterUnits="userSpaceOnUse" color-interpolation-filters="sRGB">
<feFlood flood-opacity="0" result="BackgroundImageFix"/>
<feBlend mode="normal" in="SourceGraphic" in2="BackgroundImageFix" result="shape"/>
<feColorMatrix in="SourceAlpha" type="matrix" values="0 0 0 0 0 0 0 0 0 0 0 0 0 0 0 0 0 0 127 0" result="hardAlpha"/>
<feOffset dx="-1"/>
<feComposite in2="hardAlpha" operator="arithmetic" k2="-1" k3="1"/>
<feColorMatrix type="matrix" values="0 0 0 0 0.788235 0 0 0 0 0.788235 0 0 0 0 0.788235 0 0 0 1 0"/>
<feBlend mode="normal" in2="shape" result="effect1_innerShadow_9481_633953"/>
</filter>
<filter id="filter2_i_9481_633953" x="76" y="40" width="800" height="58" filterUnits="userSpaceOnUse" color-interpolation-filters="sRGB">
<feFlood flood-opacity="0" result="BackgroundImageFix"/>
<feBlend mode="normal" in="SourceGraphic" in2="BackgroundImageFix" result="shape"/>
<feColorMatrix in="SourceAlpha" type="matrix" values="0 0 0 0 0 0 0 0 0 0 0 0 0 0 0 0 0 0 127 0" result="hardAlpha"/>
<feOffset dy="-1"/>
<feComposite in2="hardAlpha" operator="arithmetic" k2="-1" k3="1"/>
<feColorMatrix type="matrix" values="0 0 0 0 0.788235 0 0 0 0 0.788235 0 0 0 0 0.788235 0 0 0 1 0"/>
<feBlend mode="normal" in2="shape" result="effect1_innerShadow_9481_633953"/>
</filter>
<filter id="filter3_d_9481_633953" x="362" y="98" width="228" height="76" filterUnits="userSpaceOnUse" color-interpolation-filters="sRGB">
<feFlood flood-opacity="0" result="BackgroundImageFix"/>
<feColorMatrix in="SourceAlpha" type="matrix" values="0 0 0 0 0 0 0 0 0 0 0 0 0 0 0 0 0 0 127 0" result="hardAlpha"/>
<feOffset dy="8"/>
<feGaussianBlur stdDeviation="8"/>
<feColorMatrix type="matrix" values="0 0 0 0 0 0 0 0 0 0 0 0 0 0 0 0 0 0 0.25 0"/>
<feBlend mode="normal" in2="BackgroundImageFix" result="effect1_dropShadow_9481_633953"/>
<feBlend mode="normal" in="SourceGraphic" in2="effect1_dropShadow_9481_633953" result="shape"/>
</filter>
<clipPath id="clip0_9481_633953">
<rect width="952" height="385" fill="white"/>
</clipPath>
<clipPath id="clip1_9481_633953">
<rect width="800" height="344" fill="white" transform="translate(76 40)"/>
</clipPath>
<clipPath id="clip2_9481_633953">
<rect x="76" y="40" width="800" height="574" rx="8" fill="white"/>
</clipPath>
<clipPath id="clip3_9481_633953">
<rect width="40.0001" height="36.6667" fill="white" transform="translate(820 48.9999)"/>
</clipPath>
</defs>
</svg>
