<svg width="412" height="200" viewBox="0 0 412 200" fill="none" xmlns="http://www.w3.org/2000/svg">
<rect width="412" height="200" fill="white"/>
<g filter="url(#filter0_d_9481_635569)">
<rect x="108" y="78" width="196" height="44" rx="4" fill="#323232"/>
<path d="M126.512 105.202C126.412 105.202 126.312 105.152 126.262 105.102L122.113 100.952C121.962 100.802 121.962 100.552 122.113 100.402C122.263 100.252 122.512 100.252 122.662 100.402L126.512 104.252L133.312 95.152C133.413 95.002 133.663 94.952 133.812 95.052C133.962 95.152 134.012 95.402 133.912 95.552L126.812 105.052C126.762 105.152 126.662 105.202 126.512 105.202Z" fill="white"/>
<path d="M146.618 105H145.358V95.004H150.944V96.11H146.618V99.652H150.678V100.758H146.618V105ZM153.08 94.682C153.266 94.682 153.43 94.7473 153.57 94.878C153.719 94.9993 153.794 95.1953 153.794 95.466C153.794 95.7367 153.719 95.9373 153.57 96.068C153.43 96.1893 153.266 96.25 153.08 96.25C152.874 96.25 152.702 96.1893 152.562 96.068C152.422 95.9373 152.352 95.7367 152.352 95.466C152.352 95.1953 152.422 94.9993 152.562 94.878C152.702 94.7473 152.874 94.682 153.08 94.682ZM153.682 97.496V105H152.45V97.496H153.682ZM157.291 105H156.059V94.36H157.291V105ZM162.567 97.356C163.201 97.356 163.752 97.496 164.219 97.776C164.685 98.056 165.04 98.4527 165.283 98.966C165.535 99.47 165.661 100.063 165.661 100.744V101.486H160.523C160.541 102.335 160.756 102.984 161.167 103.432C161.587 103.871 162.17 104.09 162.917 104.09C163.393 104.09 163.813 104.048 164.177 103.964C164.55 103.871 164.933 103.74 165.325 103.572V104.65C164.942 104.818 164.564 104.939 164.191 105.014C163.817 105.098 163.374 105.14 162.861 105.14C162.142 105.14 161.512 104.995 160.971 104.706C160.429 104.417 160.005 103.987 159.697 103.418C159.398 102.849 159.249 102.144 159.249 101.304C159.249 100.483 159.384 99.778 159.655 99.19C159.935 98.602 160.322 98.1493 160.817 97.832C161.321 97.5147 161.904 97.356 162.567 97.356ZM162.553 98.364C161.965 98.364 161.498 98.5553 161.153 98.938C160.817 99.3113 160.616 99.834 160.551 100.506H164.373C164.363 99.8713 164.214 99.358 163.925 98.966C163.635 98.5647 163.178 98.364 162.553 98.364ZM177.046 102.326C177.046 103.213 176.724 103.903 176.08 104.398C175.436 104.893 174.568 105.14 173.476 105.14C172.916 105.14 172.398 105.098 171.922 105.014C171.446 104.93 171.049 104.813 170.732 104.664V103.46C171.068 103.609 171.483 103.745 171.978 103.866C172.482 103.987 173 104.048 173.532 104.048C174.269 104.048 174.829 103.903 175.212 103.614C175.594 103.325 175.786 102.933 175.786 102.438C175.786 102.111 175.716 101.836 175.576 101.612C175.436 101.388 175.193 101.183 174.848 100.996C174.502 100.809 174.031 100.604 173.434 100.38C172.575 100.072 171.931 99.694 171.502 99.246C171.072 98.798 170.858 98.1867 170.858 97.412C170.858 96.8893 170.993 96.4367 171.264 96.054C171.534 95.6713 171.908 95.3773 172.384 95.172C172.86 94.9667 173.415 94.864 174.05 94.864C174.591 94.864 175.09 94.9153 175.548 95.018C176.005 95.1207 176.425 95.256 176.808 95.424L176.416 96.502C176.07 96.3527 175.692 96.2267 175.282 96.124C174.871 96.0213 174.451 95.97 174.022 95.97C173.396 95.97 172.925 96.1053 172.608 96.376C172.29 96.6373 172.132 96.9873 172.132 97.426C172.132 97.762 172.202 98.042 172.342 98.266C172.482 98.49 172.71 98.6953 173.028 98.882C173.345 99.0593 173.774 99.246 174.316 99.442C174.904 99.6567 175.398 99.89 175.8 100.142C176.21 100.385 176.518 100.679 176.724 101.024C176.938 101.369 177.046 101.803 177.046 102.326ZM181.733 97.37C182.648 97.37 183.325 97.5707 183.763 97.972C184.202 98.3733 184.421 99.0127 184.421 99.89V105H183.525L183.287 103.936H183.231C182.905 104.347 182.559 104.65 182.195 104.846C181.831 105.042 181.337 105.14 180.711 105.14C180.03 105.14 179.465 104.963 179.017 104.608C178.569 104.244 178.345 103.679 178.345 102.914C178.345 102.167 178.639 101.593 179.227 101.192C179.815 100.781 180.721 100.557 181.943 100.52L183.217 100.478V100.03C183.217 99.4047 183.082 98.9707 182.811 98.728C182.541 98.4853 182.158 98.364 181.663 98.364C181.271 98.364 180.898 98.4247 180.543 98.546C180.189 98.658 179.857 98.7887 179.549 98.938L179.171 98.014C179.498 97.8367 179.885 97.6873 180.333 97.566C180.781 97.4353 181.248 97.37 181.733 97.37ZM183.203 101.332L182.097 101.374C181.164 101.411 180.515 101.561 180.151 101.822C179.797 102.083 179.619 102.452 179.619 102.928C179.619 103.348 179.745 103.656 179.997 103.852C180.259 104.048 180.59 104.146 180.991 104.146C181.617 104.146 182.139 103.973 182.559 103.628C182.989 103.273 183.203 102.732 183.203 102.004V101.332ZM188.391 105L185.549 97.496H186.865L188.461 101.92C188.535 102.125 188.615 102.354 188.699 102.606C188.783 102.858 188.857 103.101 188.923 103.334C188.988 103.567 189.035 103.759 189.063 103.908H189.119C189.147 103.759 189.198 103.567 189.273 103.334C189.347 103.091 189.427 102.849 189.511 102.606C189.595 102.354 189.674 102.125 189.749 101.92L191.345 97.496H192.661L189.805 105H188.391ZM196.746 97.356C197.381 97.356 197.932 97.496 198.398 97.776C198.865 98.056 199.22 98.4527 199.462 98.966C199.714 99.47 199.84 100.063 199.84 100.744V101.486H194.702C194.721 102.335 194.936 102.984 195.346 103.432C195.766 103.871 196.35 104.09 197.096 104.09C197.572 104.09 197.992 104.048 198.356 103.964C198.73 103.871 199.112 103.74 199.504 103.572V104.65C199.122 104.818 198.744 104.939 198.37 105.014C197.997 105.098 197.554 105.14 197.04 105.14C196.322 105.14 195.692 104.995 195.15 104.706C194.609 104.417 194.184 103.987 193.876 103.418C193.578 102.849 193.428 102.144 193.428 101.304C193.428 100.483 193.564 99.778 193.834 99.19C194.114 98.602 194.502 98.1493 194.996 97.832C195.5 97.5147 196.084 97.356 196.746 97.356ZM196.732 98.364C196.144 98.364 195.678 98.5553 195.332 98.938C194.996 99.3113 194.796 99.834 194.73 100.506H198.552C198.543 99.8713 198.394 99.358 198.104 98.966C197.815 98.5647 197.358 98.364 196.732 98.364ZM204.411 105.14C203.477 105.14 202.731 104.818 202.171 104.174C201.611 103.521 201.331 102.55 201.331 101.262C201.331 99.974 201.611 99.0033 202.171 98.35C202.74 97.6873 203.491 97.356 204.425 97.356C205.003 97.356 205.475 97.4633 205.839 97.678C206.212 97.8927 206.515 98.154 206.749 98.462H206.833C206.814 98.3407 206.795 98.1633 206.777 97.93C206.758 97.6873 206.749 97.496 206.749 97.356V94.36H207.981V105H206.987L206.805 103.992H206.749C206.525 104.309 206.226 104.58 205.853 104.804C205.479 105.028 204.999 105.14 204.411 105.14ZM204.607 104.118C205.4 104.118 205.955 103.903 206.273 103.474C206.599 103.035 206.763 102.377 206.763 101.5V101.276C206.763 100.343 206.609 99.6287 206.301 99.134C205.993 98.63 205.423 98.378 204.593 98.378C203.93 98.378 203.431 98.644 203.095 99.176C202.768 99.6987 202.605 100.403 202.605 101.29C202.605 102.186 202.768 102.881 203.095 103.376C203.431 103.871 203.935 104.118 204.607 104.118ZM219.839 102.326C219.839 103.213 219.517 103.903 218.873 104.398C218.229 104.893 217.361 105.14 216.269 105.14C215.709 105.14 215.191 105.098 214.715 105.014C214.239 104.93 213.842 104.813 213.525 104.664V103.46C213.861 103.609 214.276 103.745 214.771 103.866C215.275 103.987 215.793 104.048 216.325 104.048C217.062 104.048 217.622 103.903 218.005 103.614C218.387 103.325 218.579 102.933 218.579 102.438C218.579 102.111 218.509 101.836 218.369 101.612C218.229 101.388 217.986 101.183 217.641 100.996C217.295 100.809 216.824 100.604 216.227 100.38C215.368 100.072 214.724 99.694 214.295 99.246C213.865 98.798 213.651 98.1867 213.651 97.412C213.651 96.8893 213.786 96.4367 214.057 96.054C214.327 95.6713 214.701 95.3773 215.177 95.172C215.653 94.9667 216.208 94.864 216.843 94.864C217.384 94.864 217.883 94.9153 218.341 95.018C218.798 95.1207 219.218 95.256 219.601 95.424L219.209 96.502C218.863 96.3527 218.485 96.2267 218.075 96.124C217.664 96.0213 217.244 95.97 216.815 95.97C216.189 95.97 215.718 96.1053 215.401 96.376C215.083 96.6373 214.925 96.9873 214.925 97.426C214.925 97.762 214.995 98.042 215.135 98.266C215.275 98.49 215.503 98.6953 215.821 98.882C216.138 99.0593 216.567 99.246 217.109 99.442C217.697 99.6567 218.191 99.89 218.593 100.142C219.003 100.385 219.311 100.679 219.517 101.024C219.731 101.369 219.839 101.803 219.839 102.326ZM227.956 97.496V105H226.948L226.766 104.006H226.71C226.467 104.398 226.131 104.687 225.702 104.874C225.273 105.051 224.815 105.14 224.33 105.14C223.425 105.14 222.743 104.925 222.286 104.496C221.829 104.057 221.6 103.362 221.6 102.41V97.496H222.846V102.326C222.846 103.521 223.401 104.118 224.512 104.118C225.343 104.118 225.917 103.885 226.234 103.418C226.561 102.951 226.724 102.279 226.724 101.402V97.496H227.956ZM233.348 105.14C232.676 105.14 232.084 105.005 231.57 104.734C231.057 104.463 230.651 104.043 230.352 103.474C230.063 102.905 229.918 102.177 229.918 101.29C229.918 100.366 230.068 99.6147 230.366 99.036C230.674 98.4573 231.094 98.0327 231.626 97.762C232.158 97.4913 232.76 97.356 233.432 97.356C233.806 97.356 234.17 97.398 234.524 97.482C234.888 97.5567 235.182 97.65 235.406 97.762L235.028 98.784C234.804 98.7 234.543 98.6207 234.244 98.546C233.946 98.4713 233.666 98.434 233.404 98.434C231.93 98.434 231.192 99.3813 231.192 101.276C231.192 102.181 231.37 102.877 231.724 103.362C232.088 103.838 232.625 104.076 233.334 104.076C233.736 104.076 234.095 104.034 234.412 103.95C234.73 103.866 235.019 103.763 235.28 103.642V104.734C235.028 104.865 234.748 104.963 234.44 105.028C234.142 105.103 233.778 105.14 233.348 105.14ZM240.075 105.14C239.403 105.14 238.81 105.005 238.297 104.734C237.784 104.463 237.378 104.043 237.079 103.474C236.79 102.905 236.645 102.177 236.645 101.29C236.645 100.366 236.794 99.6147 237.093 99.036C237.401 98.4573 237.821 98.0327 238.353 97.762C238.885 97.4913 239.487 97.356 240.159 97.356C240.532 97.356 240.896 97.398 241.251 97.482C241.615 97.5567 241.909 97.65 242.133 97.762L241.755 98.784C241.531 98.7 241.27 98.6207 240.971 98.546C240.672 98.4713 240.392 98.434 240.131 98.434C238.656 98.434 237.919 99.3813 237.919 101.276C237.919 102.181 238.096 102.877 238.451 103.362C238.815 103.838 239.352 104.076 240.061 104.076C240.462 104.076 240.822 104.034 241.139 103.95C241.456 103.866 241.746 103.763 242.007 103.642V104.734C241.755 104.865 241.475 104.963 241.167 105.028C240.868 105.103 240.504 105.14 240.075 105.14ZM246.69 97.356C247.324 97.356 247.875 97.496 248.342 97.776C248.808 98.056 249.163 98.4527 249.406 98.966C249.658 99.47 249.784 100.063 249.784 100.744V101.486H244.646C244.664 102.335 244.879 102.984 245.29 103.432C245.71 103.871 246.293 104.09 247.04 104.09C247.516 104.09 247.936 104.048 248.3 103.964C248.673 103.871 249.056 103.74 249.448 103.572V104.65C249.065 104.818 248.687 104.939 248.314 105.014C247.94 105.098 247.497 105.14 246.984 105.14C246.265 105.14 245.635 104.995 245.094 104.706C244.552 104.417 244.128 103.987 243.82 103.418C243.521 102.849 243.372 102.144 243.372 101.304C243.372 100.483 243.507 99.778 243.778 99.19C244.058 98.602 244.445 98.1493 244.94 97.832C245.444 97.5147 246.027 97.356 246.69 97.356ZM246.676 98.364C246.088 98.364 245.621 98.5553 245.276 98.938C244.94 99.3113 244.739 99.834 244.674 100.506H248.496C248.486 99.8713 248.337 99.358 248.048 98.966C247.758 98.5647 247.301 98.364 246.676 98.364ZM256.58 102.928C256.58 103.656 256.309 104.207 255.768 104.58C255.227 104.953 254.499 105.14 253.584 105.14C253.061 105.14 252.609 105.098 252.226 105.014C251.853 104.93 251.521 104.813 251.232 104.664V103.544C251.531 103.693 251.89 103.833 252.31 103.964C252.739 104.085 253.173 104.146 253.612 104.146C254.237 104.146 254.69 104.048 254.97 103.852C255.25 103.647 255.39 103.376 255.39 103.04C255.39 102.853 255.339 102.685 255.236 102.536C255.133 102.387 254.947 102.237 254.676 102.088C254.415 101.939 254.037 101.771 253.542 101.584C253.057 101.397 252.641 101.211 252.296 101.024C251.951 100.837 251.685 100.613 251.498 100.352C251.311 100.091 251.218 99.7547 251.218 99.344C251.218 98.7093 251.475 98.2193 251.988 97.874C252.511 97.5287 253.192 97.356 254.032 97.356C254.489 97.356 254.914 97.4027 255.306 97.496C255.707 97.5893 256.081 97.7107 256.426 97.86L256.006 98.84C255.689 98.7093 255.357 98.5973 255.012 98.504C254.667 98.4107 254.312 98.364 253.948 98.364C253.444 98.364 253.057 98.448 252.786 98.616C252.525 98.7747 252.394 98.994 252.394 99.274C252.394 99.4887 252.455 99.666 252.576 99.806C252.697 99.946 252.898 100.086 253.178 100.226C253.467 100.366 253.85 100.525 254.326 100.702C254.802 100.879 255.208 101.061 255.544 101.248C255.88 101.435 256.137 101.663 256.314 101.934C256.491 102.195 256.58 102.527 256.58 102.928ZM263.279 102.928C263.279 103.656 263.008 104.207 262.467 104.58C261.926 104.953 261.198 105.14 260.283 105.14C259.76 105.14 259.308 105.098 258.925 105.014C258.552 104.93 258.22 104.813 257.931 104.664V103.544C258.23 103.693 258.589 103.833 259.009 103.964C259.438 104.085 259.872 104.146 260.311 104.146C260.936 104.146 261.389 104.048 261.669 103.852C261.949 103.647 262.089 103.376 262.089 103.04C262.089 102.853 262.038 102.685 261.935 102.536C261.832 102.387 261.646 102.237 261.375 102.088C261.114 101.939 260.736 101.771 260.241 101.584C259.756 101.397 259.34 101.211 258.995 101.024C258.65 100.837 258.384 100.613 258.197 100.352C258.01 100.091 257.917 99.7547 257.917 99.344C257.917 98.7093 258.174 98.2193 258.687 97.874C259.21 97.5287 259.891 97.356 260.731 97.356C261.188 97.356 261.613 97.4027 262.005 97.496C262.406 97.5893 262.78 97.7107 263.125 97.86L262.705 98.84C262.388 98.7093 262.056 98.5973 261.711 98.504C261.366 98.4107 261.011 98.364 260.647 98.364C260.143 98.364 259.756 98.448 259.485 98.616C259.224 98.7747 259.093 98.994 259.093 99.274C259.093 99.4887 259.154 99.666 259.275 99.806C259.396 99.946 259.597 100.086 259.877 100.226C260.166 100.366 260.549 100.525 261.025 100.702C261.501 100.879 261.907 101.061 262.243 101.248C262.579 101.435 262.836 101.663 263.013 101.934C263.19 102.195 263.279 102.527 263.279 102.928ZM268.55 98.448H266.66V105H265.428V98.448H264.112V97.874L265.428 97.454V97.02C265.428 96.0493 265.638 95.354 266.058 94.934C266.488 94.5047 267.09 94.29 267.864 94.29C268.154 94.29 268.424 94.318 268.676 94.374C268.928 94.4207 269.143 94.4767 269.32 94.542L268.998 95.508C268.849 95.4613 268.676 95.4147 268.48 95.368C268.284 95.3213 268.084 95.298 267.878 95.298C267.468 95.298 267.16 95.438 266.954 95.718C266.758 95.9887 266.66 96.418 266.66 97.006V97.496H268.55V98.448ZM276.177 97.496V105H275.169L274.987 104.006H274.931C274.688 104.398 274.352 104.687 273.923 104.874C273.494 105.051 273.036 105.14 272.551 105.14C271.646 105.14 270.964 104.925 270.507 104.496C270.05 104.057 269.821 103.362 269.821 102.41V97.496H271.067V102.326C271.067 103.521 271.622 104.118 272.733 104.118C273.564 104.118 274.138 103.885 274.455 103.418C274.782 102.951 274.945 102.279 274.945 101.402V97.496H276.177ZM279.791 105H278.559V94.36H279.791V105ZM283.401 105H282.169V94.36H283.401V105ZM284.602 97.496H285.918L287.542 101.766C287.682 102.149 287.808 102.508 287.92 102.844C288.032 103.18 288.116 103.502 288.172 103.81H288.228C288.284 103.577 288.373 103.273 288.494 102.9C288.615 102.517 288.741 102.135 288.872 101.752L290.398 97.496H291.728L288.494 106.036C288.223 106.745 287.883 107.31 287.472 107.73C287.061 108.15 286.492 108.36 285.764 108.36C285.54 108.36 285.344 108.346 285.176 108.318C285.008 108.299 284.863 108.276 284.742 108.248V107.268C284.845 107.287 284.966 107.305 285.106 107.324C285.255 107.343 285.409 107.352 285.568 107.352C285.997 107.352 286.343 107.231 286.604 106.988C286.865 106.745 287.075 106.423 287.234 106.022L287.626 105.028L284.602 97.496Z" fill="white"/>
</g>
<defs>
<filter id="filter0_d_9481_635569" x="92" y="70" width="228" height="76" filterUnits="userSpaceOnUse" color-interpolation-filters="sRGB">
<feFlood flood-opacity="0" result="BackgroundImageFix"/>
<feColorMatrix in="SourceAlpha" type="matrix" values="0 0 0 0 0 0 0 0 0 0 0 0 0 0 0 0 0 0 127 0" result="hardAlpha"/>
<feOffset dy="8"/>
<feGaussianBlur stdDeviation="8"/>
<feColorMatrix type="matrix" values="0 0 0 0 0 0 0 0 0 0 0 0 0 0 0 0 0 0 0.25 0"/>
<feBlend mode="normal" in2="BackgroundImageFix" result="effect1_dropShadow_9481_635569"/>
<feBlend mode="normal" in="SourceGraphic" in2="effect1_dropShadow_9481_635569" result="shape"/>
</filter>
</defs>
</svg>
