<svg width="428" height="96" viewBox="0 0 428 96" fill="none" xmlns="http://www.w3.org/2000/svg">
<rect width="428" height="92" transform="translate(0 4)" fill="white"/>
<g filter="url(#filter0_d_8533_531343)">
<rect x="142.5" y="8" width="196" height="44" rx="4" fill="#323232"/>
<path d="M161.012 35.202C160.912 35.202 160.812 35.152 160.762 35.102L156.613 30.952C156.462 30.802 156.462 30.552 156.613 30.402C156.763 30.252 157.012 30.252 157.162 30.402L161.012 34.252L167.812 25.152C167.913 25.002 168.163 24.952 168.312 25.052C168.462 25.152 168.512 25.402 168.412 25.552L161.312 35.052C161.262 35.152 161.162 35.202 161.012 35.202Z" fill="white"/>
<path d="M181.118 35H179.858V25.004H185.444V26.11H181.118V29.652H185.178V30.758H181.118V35ZM187.58 24.682C187.766 24.682 187.93 24.7473 188.07 24.878C188.219 24.9993 188.294 25.1953 188.294 25.466C188.294 25.7367 188.219 25.9373 188.07 26.068C187.93 26.1893 187.766 26.25 187.58 26.25C187.374 26.25 187.202 26.1893 187.062 26.068C186.922 25.9373 186.852 25.7367 186.852 25.466C186.852 25.1953 186.922 24.9993 187.062 24.878C187.202 24.7473 187.374 24.682 187.58 24.682ZM188.182 27.496V35H186.95V27.496H188.182ZM191.791 35H190.559V24.36H191.791V35ZM197.067 27.356C197.701 27.356 198.252 27.496 198.719 27.776C199.185 28.056 199.54 28.4527 199.783 28.966C200.035 29.47 200.161 30.0627 200.161 30.744V31.486H195.023C195.041 32.3353 195.256 32.984 195.667 33.432C196.087 33.8707 196.67 34.09 197.417 34.09C197.893 34.09 198.313 34.048 198.677 33.964C199.05 33.8707 199.433 33.74 199.825 33.572V34.65C199.442 34.818 199.064 34.9393 198.691 35.014C198.317 35.098 197.874 35.14 197.361 35.14C196.642 35.14 196.012 34.9953 195.471 34.706C194.929 34.4167 194.505 33.9873 194.197 33.418C193.898 32.8487 193.749 32.144 193.749 31.304C193.749 30.4827 193.884 29.778 194.155 29.19C194.435 28.602 194.822 28.1493 195.317 27.832C195.821 27.5147 196.404 27.356 197.067 27.356ZM197.053 28.364C196.465 28.364 195.998 28.5553 195.653 28.938C195.317 29.3113 195.116 29.834 195.051 30.506H198.873C198.863 29.8713 198.714 29.358 198.425 28.966C198.135 28.5647 197.678 28.364 197.053 28.364ZM211.546 32.326C211.546 33.2127 211.224 33.9033 210.58 34.398C209.936 34.8927 209.068 35.14 207.976 35.14C207.416 35.14 206.898 35.098 206.422 35.014C205.946 34.93 205.549 34.8133 205.232 34.664V33.46C205.568 33.6093 205.983 33.7447 206.478 33.866C206.982 33.9873 207.5 34.048 208.032 34.048C208.769 34.048 209.329 33.9033 209.712 33.614C210.094 33.3247 210.286 32.9327 210.286 32.438C210.286 32.1113 210.216 31.836 210.076 31.612C209.936 31.388 209.693 31.1827 209.348 30.996C209.002 30.8093 208.531 30.604 207.934 30.38C207.075 30.072 206.431 29.694 206.002 29.246C205.572 28.798 205.358 28.1867 205.358 27.412C205.358 26.8893 205.493 26.4367 205.764 26.054C206.034 25.6713 206.408 25.3773 206.884 25.172C207.36 24.9667 207.915 24.864 208.55 24.864C209.091 24.864 209.59 24.9153 210.048 25.018C210.505 25.1207 210.925 25.256 211.308 25.424L210.916 26.502C210.57 26.3527 210.192 26.2267 209.782 26.124C209.371 26.0213 208.951 25.97 208.522 25.97C207.896 25.97 207.425 26.1053 207.108 26.376C206.79 26.6373 206.632 26.9873 206.632 27.426C206.632 27.762 206.702 28.042 206.842 28.266C206.982 28.49 207.21 28.6953 207.528 28.882C207.845 29.0593 208.274 29.246 208.816 29.442C209.404 29.6567 209.898 29.89 210.3 30.142C210.71 30.3847 211.018 30.6787 211.224 31.024C211.438 31.3693 211.546 31.8033 211.546 32.326ZM216.233 27.37C217.148 27.37 217.825 27.5707 218.263 27.972C218.702 28.3733 218.921 29.0127 218.921 29.89V35H218.025L217.787 33.936H217.731C217.405 34.3467 217.059 34.65 216.695 34.846C216.331 35.042 215.837 35.14 215.211 35.14C214.53 35.14 213.965 34.9627 213.517 34.608C213.069 34.244 212.845 33.6793 212.845 32.914C212.845 32.1673 213.139 31.5933 213.727 31.192C214.315 30.7813 215.221 30.5573 216.443 30.52L217.717 30.478V30.03C217.717 29.4047 217.582 28.9707 217.311 28.728C217.041 28.4853 216.658 28.364 216.163 28.364C215.771 28.364 215.398 28.4247 215.043 28.546C214.689 28.658 214.357 28.7887 214.049 28.938L213.671 28.014C213.998 27.8367 214.385 27.6873 214.833 27.566C215.281 27.4353 215.748 27.37 216.233 27.37ZM217.703 31.332L216.597 31.374C215.664 31.4113 215.015 31.5607 214.651 31.822C214.297 32.0833 214.119 32.452 214.119 32.928C214.119 33.348 214.245 33.656 214.497 33.852C214.759 34.048 215.09 34.146 215.491 34.146C216.117 34.146 216.639 33.9733 217.059 33.628C217.489 33.2733 217.703 32.732 217.703 32.004V31.332ZM222.891 35L220.049 27.496H221.365L222.961 31.92C223.035 32.1253 223.115 32.354 223.199 32.606C223.283 32.858 223.357 33.1007 223.423 33.334C223.488 33.5673 223.535 33.7587 223.563 33.908H223.619C223.647 33.7587 223.698 33.5673 223.773 33.334C223.847 33.0913 223.927 32.8487 224.011 32.606C224.095 32.354 224.174 32.1253 224.249 31.92L225.845 27.496H227.161L224.305 35H222.891ZM231.246 27.356C231.881 27.356 232.432 27.496 232.898 27.776C233.365 28.056 233.72 28.4527 233.962 28.966C234.214 29.47 234.34 30.0627 234.34 30.744V31.486H229.202C229.221 32.3353 229.436 32.984 229.846 33.432C230.266 33.8707 230.85 34.09 231.596 34.09C232.072 34.09 232.492 34.048 232.856 33.964C233.23 33.8707 233.612 33.74 234.004 33.572V34.65C233.622 34.818 233.244 34.9393 232.87 35.014C232.497 35.098 232.054 35.14 231.54 35.14C230.822 35.14 230.192 34.9953 229.65 34.706C229.109 34.4167 228.684 33.9873 228.376 33.418C228.078 32.8487 227.928 32.144 227.928 31.304C227.928 30.4827 228.064 29.778 228.334 29.19C228.614 28.602 229.002 28.1493 229.496 27.832C230 27.5147 230.584 27.356 231.246 27.356ZM231.232 28.364C230.644 28.364 230.178 28.5553 229.832 28.938C229.496 29.3113 229.296 29.834 229.23 30.506H233.052C233.043 29.8713 232.894 29.358 232.604 28.966C232.315 28.5647 231.858 28.364 231.232 28.364ZM238.911 35.14C237.977 35.14 237.231 34.818 236.671 34.174C236.111 33.5207 235.831 32.55 235.831 31.262C235.831 29.974 236.111 29.0033 236.671 28.35C237.24 27.6873 237.991 27.356 238.925 27.356C239.503 27.356 239.975 27.4633 240.339 27.678C240.712 27.8927 241.015 28.154 241.249 28.462H241.333C241.314 28.3407 241.295 28.1633 241.277 27.93C241.258 27.6873 241.249 27.496 241.249 27.356V24.36H242.481V35H241.487L241.305 33.992H241.249C241.025 34.3093 240.726 34.58 240.353 34.804C239.979 35.028 239.499 35.14 238.911 35.14ZM239.107 34.118C239.9 34.118 240.455 33.9033 240.773 33.474C241.099 33.0353 241.263 32.3773 241.263 31.5V31.276C241.263 30.3427 241.109 29.6287 240.801 29.134C240.493 28.63 239.923 28.378 239.093 28.378C238.43 28.378 237.931 28.644 237.595 29.176C237.268 29.6987 237.105 30.4033 237.105 31.29C237.105 32.186 237.268 32.8813 237.595 33.376C237.931 33.8707 238.435 34.118 239.107 34.118ZM254.339 32.326C254.339 33.2127 254.017 33.9033 253.373 34.398C252.729 34.8927 251.861 35.14 250.769 35.14C250.209 35.14 249.691 35.098 249.215 35.014C248.739 34.93 248.342 34.8133 248.025 34.664V33.46C248.361 33.6093 248.776 33.7447 249.271 33.866C249.775 33.9873 250.293 34.048 250.825 34.048C251.562 34.048 252.122 33.9033 252.505 33.614C252.887 33.3247 253.079 32.9327 253.079 32.438C253.079 32.1113 253.009 31.836 252.869 31.612C252.729 31.388 252.486 31.1827 252.141 30.996C251.795 30.8093 251.324 30.604 250.727 30.38C249.868 30.072 249.224 29.694 248.795 29.246C248.365 28.798 248.151 28.1867 248.151 27.412C248.151 26.8893 248.286 26.4367 248.557 26.054C248.827 25.6713 249.201 25.3773 249.677 25.172C250.153 24.9667 250.708 24.864 251.343 24.864C251.884 24.864 252.383 24.9153 252.841 25.018C253.298 25.1207 253.718 25.256 254.101 25.424L253.709 26.502C253.363 26.3527 252.985 26.2267 252.575 26.124C252.164 26.0213 251.744 25.97 251.315 25.97C250.689 25.97 250.218 26.1053 249.901 26.376C249.583 26.6373 249.425 26.9873 249.425 27.426C249.425 27.762 249.495 28.042 249.635 28.266C249.775 28.49 250.003 28.6953 250.321 28.882C250.638 29.0593 251.067 29.246 251.609 29.442C252.197 29.6567 252.691 29.89 253.093 30.142C253.503 30.3847 253.811 30.6787 254.017 31.024C254.231 31.3693 254.339 31.8033 254.339 32.326ZM262.456 27.496V35H261.448L261.266 34.006H261.21C260.967 34.398 260.631 34.6873 260.202 34.874C259.773 35.0513 259.315 35.14 258.83 35.14C257.925 35.14 257.243 34.9253 256.786 34.496C256.329 34.0573 256.1 33.362 256.1 32.41V27.496H257.346V32.326C257.346 33.5207 257.901 34.118 259.012 34.118C259.843 34.118 260.417 33.8847 260.734 33.418C261.061 32.9513 261.224 32.2793 261.224 31.402V27.496H262.456ZM267.848 35.14C267.176 35.14 266.584 35.0047 266.07 34.734C265.557 34.4633 265.151 34.0433 264.852 33.474C264.563 32.9047 264.418 32.1767 264.418 31.29C264.418 30.366 264.568 29.6147 264.866 29.036C265.174 28.4573 265.594 28.0327 266.126 27.762C266.658 27.4913 267.26 27.356 267.932 27.356C268.306 27.356 268.67 27.398 269.024 27.482C269.388 27.5567 269.682 27.65 269.906 27.762L269.528 28.784C269.304 28.7 269.043 28.6207 268.744 28.546C268.446 28.4713 268.166 28.434 267.904 28.434C266.43 28.434 265.692 29.3813 265.692 31.276C265.692 32.1813 265.87 32.8767 266.224 33.362C266.588 33.838 267.125 34.076 267.834 34.076C268.236 34.076 268.595 34.034 268.912 33.95C269.23 33.866 269.519 33.7633 269.78 33.642V34.734C269.528 34.8647 269.248 34.9627 268.94 35.028C268.642 35.1027 268.278 35.14 267.848 35.14ZM274.575 35.14C273.903 35.14 273.31 35.0047 272.797 34.734C272.284 34.4633 271.878 34.0433 271.579 33.474C271.29 32.9047 271.145 32.1767 271.145 31.29C271.145 30.366 271.294 29.6147 271.593 29.036C271.901 28.4573 272.321 28.0327 272.853 27.762C273.385 27.4913 273.987 27.356 274.659 27.356C275.032 27.356 275.396 27.398 275.751 27.482C276.115 27.5567 276.409 27.65 276.633 27.762L276.255 28.784C276.031 28.7 275.77 28.6207 275.471 28.546C275.172 28.4713 274.892 28.434 274.631 28.434C273.156 28.434 272.419 29.3813 272.419 31.276C272.419 32.1813 272.596 32.8767 272.951 33.362C273.315 33.838 273.852 34.076 274.561 34.076C274.962 34.076 275.322 34.034 275.639 33.95C275.956 33.866 276.246 33.7633 276.507 33.642V34.734C276.255 34.8647 275.975 34.9627 275.667 35.028C275.368 35.1027 275.004 35.14 274.575 35.14ZM281.19 27.356C281.824 27.356 282.375 27.496 282.842 27.776C283.308 28.056 283.663 28.4527 283.906 28.966C284.158 29.47 284.284 30.0627 284.284 30.744V31.486H279.146C279.164 32.3353 279.379 32.984 279.79 33.432C280.21 33.8707 280.793 34.09 281.54 34.09C282.016 34.09 282.436 34.048 282.8 33.964C283.173 33.8707 283.556 33.74 283.948 33.572V34.65C283.565 34.818 283.187 34.9393 282.814 35.014C282.44 35.098 281.997 35.14 281.484 35.14C280.765 35.14 280.135 34.9953 279.594 34.706C279.052 34.4167 278.628 33.9873 278.32 33.418C278.021 32.8487 277.872 32.144 277.872 31.304C277.872 30.4827 278.007 29.778 278.278 29.19C278.558 28.602 278.945 28.1493 279.44 27.832C279.944 27.5147 280.527 27.356 281.19 27.356ZM281.176 28.364C280.588 28.364 280.121 28.5553 279.776 28.938C279.44 29.3113 279.239 29.834 279.174 30.506H282.996C282.986 29.8713 282.837 29.358 282.548 28.966C282.258 28.5647 281.801 28.364 281.176 28.364ZM291.08 32.928C291.08 33.656 290.809 34.2067 290.268 34.58C289.727 34.9533 288.999 35.14 288.084 35.14C287.561 35.14 287.109 35.098 286.726 35.014C286.353 34.93 286.021 34.8133 285.732 34.664V33.544C286.031 33.6933 286.39 33.8333 286.81 33.964C287.239 34.0853 287.673 34.146 288.112 34.146C288.737 34.146 289.19 34.048 289.47 33.852C289.75 33.6467 289.89 33.376 289.89 33.04C289.89 32.8533 289.839 32.6853 289.736 32.536C289.633 32.3867 289.447 32.2373 289.176 32.088C288.915 31.9387 288.537 31.7707 288.042 31.584C287.557 31.3973 287.141 31.2107 286.796 31.024C286.451 30.8373 286.185 30.6133 285.998 30.352C285.811 30.0907 285.718 29.7547 285.718 29.344C285.718 28.7093 285.975 28.2193 286.488 27.874C287.011 27.5287 287.692 27.356 288.532 27.356C288.989 27.356 289.414 27.4027 289.806 27.496C290.207 27.5893 290.581 27.7107 290.926 27.86L290.506 28.84C290.189 28.7093 289.857 28.5973 289.512 28.504C289.167 28.4107 288.812 28.364 288.448 28.364C287.944 28.364 287.557 28.448 287.286 28.616C287.025 28.7747 286.894 28.994 286.894 29.274C286.894 29.4887 286.955 29.666 287.076 29.806C287.197 29.946 287.398 30.086 287.678 30.226C287.967 30.366 288.35 30.5247 288.826 30.702C289.302 30.8793 289.708 31.0613 290.044 31.248C290.38 31.4347 290.637 31.6633 290.814 31.934C290.991 32.1953 291.08 32.5267 291.08 32.928ZM297.779 32.928C297.779 33.656 297.508 34.2067 296.967 34.58C296.426 34.9533 295.698 35.14 294.783 35.14C294.26 35.14 293.808 35.098 293.425 35.014C293.052 34.93 292.72 34.8133 292.431 34.664V33.544C292.73 33.6933 293.089 33.8333 293.509 33.964C293.938 34.0853 294.372 34.146 294.811 34.146C295.436 34.146 295.889 34.048 296.169 33.852C296.449 33.6467 296.589 33.376 296.589 33.04C296.589 32.8533 296.538 32.6853 296.435 32.536C296.332 32.3867 296.146 32.2373 295.875 32.088C295.614 31.9387 295.236 31.7707 294.741 31.584C294.256 31.3973 293.84 31.2107 293.495 31.024C293.15 30.8373 292.884 30.6133 292.697 30.352C292.51 30.0907 292.417 29.7547 292.417 29.344C292.417 28.7093 292.674 28.2193 293.187 27.874C293.71 27.5287 294.391 27.356 295.231 27.356C295.688 27.356 296.113 27.4027 296.505 27.496C296.906 27.5893 297.28 27.7107 297.625 27.86L297.205 28.84C296.888 28.7093 296.556 28.5973 296.211 28.504C295.866 28.4107 295.511 28.364 295.147 28.364C294.643 28.364 294.256 28.448 293.985 28.616C293.724 28.7747 293.593 28.994 293.593 29.274C293.593 29.4887 293.654 29.666 293.775 29.806C293.896 29.946 294.097 30.086 294.377 30.226C294.666 30.366 295.049 30.5247 295.525 30.702C296.001 30.8793 296.407 31.0613 296.743 31.248C297.079 31.4347 297.336 31.6633 297.513 31.934C297.69 32.1953 297.779 32.5267 297.779 32.928ZM303.05 28.448H301.16V35H299.928V28.448H298.612V27.874L299.928 27.454V27.02C299.928 26.0493 300.138 25.354 300.558 24.934C300.988 24.5047 301.59 24.29 302.364 24.29C302.654 24.29 302.924 24.318 303.176 24.374C303.428 24.4207 303.643 24.4767 303.82 24.542L303.498 25.508C303.349 25.4613 303.176 25.4147 302.98 25.368C302.784 25.3213 302.584 25.298 302.378 25.298C301.968 25.298 301.66 25.438 301.454 25.718C301.258 25.9887 301.16 26.418 301.16 27.006V27.496H303.05V28.448ZM310.677 27.496V35H309.669L309.487 34.006H309.431C309.188 34.398 308.852 34.6873 308.423 34.874C307.994 35.0513 307.536 35.14 307.051 35.14C306.146 35.14 305.464 34.9253 305.007 34.496C304.55 34.0573 304.321 33.362 304.321 32.41V27.496H305.567V32.326C305.567 33.5207 306.122 34.118 307.233 34.118C308.064 34.118 308.638 33.8847 308.955 33.418C309.282 32.9513 309.445 32.2793 309.445 31.402V27.496H310.677ZM314.291 35H313.059V24.36H314.291V35ZM317.901 35H316.669V24.36H317.901V35ZM319.102 27.496H320.418L322.042 31.766C322.182 32.1487 322.308 32.508 322.42 32.844C322.532 33.18 322.616 33.502 322.672 33.81H322.728C322.784 33.5767 322.873 33.2733 322.994 32.9C323.115 32.5173 323.241 32.1347 323.372 31.752L324.898 27.496H326.228L322.994 36.036C322.723 36.7453 322.383 37.31 321.972 37.73C321.561 38.15 320.992 38.36 320.264 38.36C320.04 38.36 319.844 38.346 319.676 38.318C319.508 38.2993 319.363 38.276 319.242 38.248V37.268C319.345 37.2867 319.466 37.3053 319.606 37.324C319.755 37.3427 319.909 37.352 320.068 37.352C320.497 37.352 320.843 37.2307 321.104 36.988C321.365 36.7453 321.575 36.4233 321.734 36.022L322.126 35.028L319.102 27.496Z" fill="white"/>
</g>
<path d="M82.9818 19H81.2178V12.77C81.2178 12.4713 81.2225 12.154 81.2318 11.818C81.2411 11.482 81.2551 11.1693 81.2738 10.88C81.1805 10.9733 81.0638 11.0853 80.9238 11.216C80.7931 11.3467 80.6485 11.4727 80.4898 11.594L79.3698 12.49L78.4878 11.398L81.5118 9.004H82.9818V19ZM92.9675 19H86.1215V17.698L88.6695 15.122C89.1735 14.6087 89.5842 14.17 89.9015 13.806C90.2282 13.442 90.4662 13.1013 90.6155 12.784C90.7742 12.4573 90.8535 12.1073 90.8535 11.734C90.8535 11.2767 90.7229 10.936 90.4615 10.712C90.2095 10.4787 89.8642 10.362 89.4255 10.362C89.0055 10.362 88.6135 10.4507 88.2495 10.628C87.8855 10.796 87.5075 11.0387 87.1155 11.356L86.1495 10.194C86.5602 9.83933 87.0222 9.53133 87.5355 9.27C88.0582 8.99933 88.7209 8.864 89.5235 8.864C90.1675 8.864 90.7182 8.98067 91.1755 9.214C91.6422 9.438 92.0015 9.75533 92.2535 10.166C92.5055 10.5673 92.6315 11.0293 92.6315 11.552C92.6315 12.0933 92.5242 12.5927 92.3095 13.05C92.0949 13.498 91.7822 13.9507 91.3715 14.408C90.9702 14.856 90.4895 15.3413 89.9295 15.864L88.3475 17.39V17.474H92.9675V19ZM102.292 11.272C103.179 11.272 103.893 11.6033 104.434 12.266C104.975 12.9193 105.246 13.8947 105.246 15.192C105.246 16.4893 104.966 17.474 104.406 18.146C103.855 18.8087 103.137 19.14 102.25 19.14C101.69 19.14 101.237 19.0373 100.892 18.832C100.547 18.6267 100.271 18.3887 100.066 18.118H99.954C99.982 18.2953 100.005 18.4867 100.024 18.692C100.052 18.8973 100.066 19.0933 100.066 19.28V22.36H98.302V11.412H99.73L99.982 12.42H100.066C100.281 12.1027 100.561 11.832 100.906 11.608C101.251 11.384 101.713 11.272 102.292 11.272ZM101.788 12.7C101.163 12.7 100.719 12.8867 100.458 13.26C100.206 13.6333 100.075 14.198 100.066 14.954V15.178C100.066 15.99 100.187 16.6153 100.43 17.054C100.682 17.4833 101.144 17.698 101.816 17.698C102.367 17.698 102.773 17.474 103.034 17.026C103.305 16.5687 103.44 15.948 103.44 15.164C103.44 14.38 103.305 13.7733 103.034 13.344C102.773 12.9147 102.357 12.7 101.788 12.7ZM108.43 15.122L105.924 11.412H107.926L109.578 13.988L111.23 11.412H113.232L110.698 15.122L113.358 19H111.356L109.578 16.242L107.8 19H105.798L108.43 15.122Z" fill="#E60074"/>
<path d="M131.5 14L115.5 14" stroke="#E60074"/>
<rect opacity="0.4" x="338.5" y="8" width="12" height="207" transform="rotate(90 338.5 8)" fill="white"/>
<rect opacity="0.12" x="338.5" y="8" width="12" height="207" transform="rotate(90 338.5 8)" fill="#E60074"/>
<path opacity="0.5" d="M338.5 20L131.5 20" stroke="#E60074" stroke-dasharray="3 3"/>
<path opacity="0.5" d="M338.5 8.00001L131.5 8" stroke="#E60074" stroke-dasharray="3 3"/>
<path d="M82.9818 51H81.2178V44.77C81.2178 44.4713 81.2225 44.154 81.2318 43.818C81.2411 43.482 81.2551 43.1693 81.2738 42.88C81.1805 42.9733 81.0638 43.0853 80.9238 43.216C80.7931 43.3467 80.6485 43.4727 80.4898 43.594L79.3698 44.49L78.4878 43.398L81.5118 41.004H82.9818V51ZM92.9675 51H86.1215V49.698L88.6695 47.122C89.1735 46.6087 89.5842 46.17 89.9015 45.806C90.2282 45.442 90.4662 45.1013 90.6155 44.784C90.7742 44.4573 90.8535 44.1073 90.8535 43.734C90.8535 43.2767 90.7229 42.936 90.4615 42.712C90.2095 42.4787 89.8642 42.362 89.4255 42.362C89.0055 42.362 88.6135 42.4507 88.2495 42.628C87.8855 42.796 87.5075 43.0387 87.1155 43.356L86.1495 42.194C86.5602 41.8393 87.0222 41.5313 87.5355 41.27C88.0582 40.9993 88.7209 40.864 89.5235 40.864C90.1675 40.864 90.7182 40.9807 91.1755 41.214C91.6422 41.438 92.0015 41.7553 92.2535 42.166C92.5055 42.5673 92.6315 43.0293 92.6315 43.552C92.6315 44.0933 92.5242 44.5927 92.3095 45.05C92.0949 45.498 91.7822 45.9507 91.3715 46.408C90.9702 46.856 90.4895 47.3413 89.9295 47.864L88.3475 49.39V49.474H92.9675V51ZM102.292 43.272C103.179 43.272 103.893 43.6033 104.434 44.266C104.975 44.9193 105.246 45.8947 105.246 47.192C105.246 48.4893 104.966 49.474 104.406 50.146C103.855 50.8087 103.137 51.14 102.25 51.14C101.69 51.14 101.237 51.0373 100.892 50.832C100.547 50.6267 100.271 50.3887 100.066 50.118H99.954C99.982 50.2953 100.005 50.4867 100.024 50.692C100.052 50.8973 100.066 51.0933 100.066 51.28V54.36H98.302V43.412H99.73L99.982 44.42H100.066C100.281 44.1027 100.561 43.832 100.906 43.608C101.251 43.384 101.713 43.272 102.292 43.272ZM101.788 44.7C101.163 44.7 100.719 44.8867 100.458 45.26C100.206 45.6333 100.075 46.198 100.066 46.954V47.178C100.066 47.99 100.187 48.6153 100.43 49.054C100.682 49.4833 101.144 49.698 101.816 49.698C102.367 49.698 102.773 49.474 103.034 49.026C103.305 48.5687 103.44 47.948 103.44 47.164C103.44 46.38 103.305 45.7733 103.034 45.344C102.773 44.9147 102.357 44.7 101.788 44.7ZM108.43 47.122L105.924 43.412H107.926L109.578 45.988L111.23 43.412H113.232L110.698 47.122L113.358 51H111.356L109.578 48.242L107.8 51H105.798L108.43 47.122Z" fill="#E60074"/>
<path d="M131.5 46L115.5 46" stroke="#E60074"/>
<rect opacity="0.4" x="338.5" y="40" width="12" height="207" transform="rotate(90 338.5 40)" fill="white"/>
<rect opacity="0.12" x="338.5" y="40" width="12" height="207" transform="rotate(90 338.5 40)" fill="#E60074"/>
<path opacity="0.5" d="M338.5 52L131.5 52" stroke="#E60074" stroke-dasharray="3 3"/>
<path opacity="0.5" d="M338.5 40L131.5 40" stroke="#E60074" stroke-dasharray="3 3"/>
<rect opacity="0.4" x="142.5" y="8" width="12" height="52" fill="white"/>
<rect opacity="0.12" x="142.5" y="8" width="12" height="52" fill="#E60074"/>
<path opacity="0.5" d="M154.5 8L154.5 60" stroke="#E60074" stroke-dasharray="3 3"/>
<path opacity="0.5" d="M142.5 8L142.5 60" stroke="#E60074" stroke-dasharray="3 3"/>
<path d="M148.5 60V76" stroke="#E60074"/>
<path d="M135.982 91H134.218V84.77C134.218 84.4713 134.222 84.154 134.232 83.818C134.241 83.482 134.255 83.1693 134.274 82.88C134.18 82.9733 134.064 83.0853 133.924 83.216C133.793 83.3467 133.648 83.4727 133.49 83.594L132.37 84.49L131.488 83.398L134.512 81.004H135.982V91ZM145.968 91H139.122V89.698L141.67 87.122C142.174 86.6087 142.584 86.17 142.902 85.806C143.228 85.442 143.466 85.1013 143.616 84.784C143.774 84.4573 143.854 84.1073 143.854 83.734C143.854 83.2767 143.723 82.936 143.462 82.712C143.21 82.4787 142.864 82.362 142.426 82.362C142.006 82.362 141.614 82.4507 141.25 82.628C140.886 82.796 140.508 83.0387 140.116 83.356L139.15 82.194C139.56 81.8393 140.022 81.5313 140.536 81.27C141.058 80.9993 141.721 80.864 142.524 80.864C143.168 80.864 143.718 80.9807 144.176 81.214C144.642 81.438 145.002 81.7553 145.254 82.166C145.506 82.5673 145.632 83.0293 145.632 83.552C145.632 84.0933 145.524 84.5927 145.31 85.05C145.095 85.498 144.782 85.9507 144.372 86.408C143.97 86.856 143.49 87.3413 142.93 87.864L141.348 89.39V89.474H145.968V91ZM155.292 83.272C156.179 83.272 156.893 83.6033 157.434 84.266C157.975 84.9193 158.246 85.8947 158.246 87.192C158.246 88.4893 157.966 89.474 157.406 90.146C156.855 90.8087 156.137 91.14 155.25 91.14C154.69 91.14 154.237 91.0373 153.892 90.832C153.547 90.6267 153.271 90.3887 153.066 90.118H152.954C152.982 90.2953 153.005 90.4867 153.024 90.692C153.052 90.8973 153.066 91.0933 153.066 91.28V94.36H151.302V83.412H152.73L152.982 84.42H153.066C153.281 84.1027 153.561 83.832 153.906 83.608C154.251 83.384 154.713 83.272 155.292 83.272ZM154.788 84.7C154.163 84.7 153.719 84.8867 153.458 85.26C153.206 85.6333 153.075 86.198 153.066 86.954V87.178C153.066 87.99 153.187 88.6153 153.43 89.054C153.682 89.4833 154.144 89.698 154.816 89.698C155.367 89.698 155.773 89.474 156.034 89.026C156.305 88.5687 156.44 87.948 156.44 87.164C156.44 86.38 156.305 85.7733 156.034 85.344C155.773 84.9147 155.357 84.7 154.788 84.7ZM161.43 87.122L158.924 83.412H160.926L162.578 85.988L164.23 83.412H166.232L163.698 87.122L166.358 91H164.356L162.578 88.242L160.8 91H158.798L161.43 87.122Z" fill="#E60074"/>
<rect opacity="0.4" x="326.5" y="8" width="12" height="52" fill="white"/>
<rect opacity="0.12" x="326.5" y="8" width="12" height="52" fill="#E60074"/>
<path opacity="0.5" d="M338.5 8L338.5 60" stroke="#E60074" stroke-dasharray="3 3"/>
<path opacity="0.5" d="M326.5 8L326.5 60" stroke="#E60074" stroke-dasharray="3 3"/>
<path d="M332.5 60V76" stroke="#E60074"/>
<path d="M319.982 91H318.218V84.77C318.218 84.4713 318.222 84.154 318.232 83.818C318.241 83.482 318.255 83.1693 318.274 82.88C318.18 82.9733 318.064 83.0853 317.924 83.216C317.793 83.3467 317.648 83.4727 317.49 83.594L316.37 84.49L315.488 83.398L318.512 81.004H319.982V91ZM329.968 91H323.122V89.698L325.67 87.122C326.174 86.6087 326.584 86.17 326.902 85.806C327.228 85.442 327.466 85.1013 327.616 84.784C327.774 84.4573 327.854 84.1073 327.854 83.734C327.854 83.2767 327.723 82.936 327.462 82.712C327.21 82.4787 326.864 82.362 326.426 82.362C326.006 82.362 325.614 82.4507 325.25 82.628C324.886 82.796 324.508 83.0387 324.116 83.356L323.15 82.194C323.56 81.8393 324.022 81.5313 324.536 81.27C325.058 80.9993 325.721 80.864 326.524 80.864C327.168 80.864 327.718 80.9807 328.176 81.214C328.642 81.438 329.002 81.7553 329.254 82.166C329.506 82.5673 329.632 83.0293 329.632 83.552C329.632 84.0933 329.524 84.5927 329.31 85.05C329.095 85.498 328.782 85.9507 328.372 86.408C327.97 86.856 327.49 87.3413 326.93 87.864L325.348 89.39V89.474H329.968V91ZM339.292 83.272C340.179 83.272 340.893 83.6033 341.434 84.266C341.975 84.9193 342.246 85.8947 342.246 87.192C342.246 88.4893 341.966 89.474 341.406 90.146C340.855 90.8087 340.137 91.14 339.25 91.14C338.69 91.14 338.237 91.0373 337.892 90.832C337.547 90.6267 337.271 90.3887 337.066 90.118H336.954C336.982 90.2953 337.005 90.4867 337.024 90.692C337.052 90.8973 337.066 91.0933 337.066 91.28V94.36H335.302V83.412H336.73L336.982 84.42H337.066C337.281 84.1027 337.561 83.832 337.906 83.608C338.251 83.384 338.713 83.272 339.292 83.272ZM338.788 84.7C338.163 84.7 337.719 84.8867 337.458 85.26C337.206 85.6333 337.075 86.198 337.066 86.954V87.178C337.066 87.99 337.187 88.6153 337.43 89.054C337.682 89.4833 338.144 89.698 338.816 89.698C339.367 89.698 339.773 89.474 340.034 89.026C340.305 88.5687 340.44 87.948 340.44 87.164C340.44 86.38 340.305 85.7733 340.034 85.344C339.773 84.9147 339.357 84.7 338.788 84.7ZM345.43 87.122L342.924 83.412H344.926L346.578 85.988L348.23 83.412H350.232L347.698 87.122L350.358 91H348.356L346.578 88.242L344.8 91H342.798L345.43 87.122Z" fill="#E60074"/>
<defs>
<filter id="filter0_d_8533_531343" x="126.5" y="0" width="228" height="76" filterUnits="userSpaceOnUse" color-interpolation-filters="sRGB">
<feFlood flood-opacity="0" result="BackgroundImageFix"/>
<feColorMatrix in="SourceAlpha" type="matrix" values="0 0 0 0 0 0 0 0 0 0 0 0 0 0 0 0 0 0 127 0" result="hardAlpha"/>
<feOffset dy="8"/>
<feGaussianBlur stdDeviation="8"/>
<feColorMatrix type="matrix" values="0 0 0 0 0 0 0 0 0 0 0 0 0 0 0 0 0 0 0.25 0"/>
<feBlend mode="normal" in2="BackgroundImageFix" result="effect1_dropShadow_8533_531343"/>
<feBlend mode="normal" in="SourceGraphic" in2="effect1_dropShadow_8533_531343" result="shape"/>
</filter>
</defs>
</svg>
