<svg width="952" height="164" viewBox="0 0 952 164" fill="none" xmlns="http://www.w3.org/2000/svg">
<rect x="0.5" y="0.5" width="951" height="163" fill="white"/>
<path d="M317 0V164" stroke="#C9C9C9"/>
<path d="M634 0V164" stroke="#C9C9C9"/>
<path d="M128.816 95.904C128.816 97.5933 128.354 98.8673 127.43 99.726C126.516 100.575 125.237 101 123.594 101H120.808V91.004H123.888C124.887 91.004 125.755 91.1907 126.492 91.564C127.239 91.9373 127.813 92.488 128.214 93.216C128.616 93.944 128.816 94.84 128.816 95.904ZM127.486 95.946C127.486 94.6113 127.155 93.636 126.492 93.02C125.839 92.3947 124.91 92.082 123.706 92.082H122.068V99.922H123.426C126.133 99.922 127.486 98.5967 127.486 95.946ZM133.765 93.356C134.399 93.356 134.95 93.496 135.417 93.776C135.883 94.056 136.238 94.4527 136.481 94.966C136.733 95.47 136.859 96.0627 136.859 96.744V97.486H131.721C131.739 98.3353 131.954 98.984 132.365 99.432C132.785 99.8707 133.368 100.09 134.115 100.09C134.591 100.09 135.011 100.048 135.375 99.964C135.748 99.8707 136.131 99.74 136.523 99.572V100.65C136.14 100.818 135.762 100.939 135.389 101.014C135.015 101.098 134.572 101.14 134.059 101.14C133.34 101.14 132.71 100.995 132.169 100.706C131.627 100.417 131.203 99.9873 130.895 99.418C130.596 98.8487 130.447 98.144 130.447 97.304C130.447 96.4827 130.582 95.778 130.853 95.19C131.133 94.602 131.52 94.1493 132.015 93.832C132.519 93.5147 133.102 93.356 133.765 93.356ZM133.751 94.364C133.163 94.364 132.696 94.5553 132.351 94.938C132.015 95.3113 131.814 95.834 131.749 96.506H135.571C135.561 95.8713 135.412 95.358 135.123 94.966C134.833 94.5647 134.376 94.364 133.751 94.364ZM142.227 94.448H140.337V101H139.105V94.448H137.789V93.874L139.105 93.454V93.02C139.105 92.0493 139.315 91.354 139.735 90.934C140.164 90.5047 140.766 90.29 141.541 90.29C141.83 90.29 142.101 90.318 142.353 90.374C142.605 90.4207 142.82 90.4767 142.997 90.542L142.675 91.508C142.526 91.4613 142.353 91.4147 142.157 91.368C141.961 91.3213 141.76 91.298 141.555 91.298C141.144 91.298 140.836 91.438 140.631 91.718C140.435 91.9887 140.337 92.418 140.337 93.006V93.496H142.227V94.448ZM146.424 93.37C147.338 93.37 148.015 93.5707 148.454 93.972C148.892 94.3733 149.112 95.0127 149.112 95.89V101H148.216L147.978 99.936H147.922C147.595 100.347 147.25 100.65 146.886 100.846C146.522 101.042 146.027 101.14 145.402 101.14C144.72 101.14 144.156 100.963 143.708 100.608C143.26 100.244 143.036 99.6793 143.036 98.914C143.036 98.1673 143.33 97.5933 143.918 97.192C144.506 96.7813 145.411 96.5573 146.634 96.52L147.908 96.478V96.03C147.908 95.4047 147.772 94.9707 147.502 94.728C147.231 94.4853 146.848 94.364 146.354 94.364C145.962 94.364 145.588 94.4247 145.234 94.546C144.879 94.658 144.548 94.7887 144.24 94.938L143.862 94.014C144.188 93.8367 144.576 93.6873 145.024 93.566C145.472 93.4353 145.938 93.37 146.424 93.37ZM147.894 97.332L146.788 97.374C145.854 97.4113 145.206 97.5607 144.842 97.822C144.487 98.0833 144.31 98.452 144.31 98.928C144.31 99.348 144.436 99.656 144.688 99.852C144.949 100.048 145.28 100.146 145.682 100.146C146.307 100.146 146.83 99.9733 147.25 99.628C147.679 99.2733 147.894 98.732 147.894 98.004V97.332ZM157.701 93.496V101H156.693L156.511 100.006H156.455C156.213 100.398 155.877 100.687 155.447 100.874C155.018 101.051 154.561 101.14 154.075 101.14C153.17 101.14 152.489 100.925 152.031 100.496C151.574 100.057 151.345 99.362 151.345 98.41V93.496H152.591V98.326C152.591 99.5207 153.147 100.118 154.257 100.118C155.088 100.118 155.662 99.8847 155.979 99.418C156.306 98.9513 156.469 98.2793 156.469 97.402V93.496H157.701ZM161.316 101H160.084V90.36H161.316V101ZM166.199 100.132C166.386 100.132 166.577 100.118 166.773 100.09C166.969 100.062 167.128 100.025 167.249 99.978V100.916C167.118 100.981 166.932 101.033 166.689 101.07C166.446 101.117 166.213 101.14 165.989 101.14C165.597 101.14 165.233 101.075 164.897 100.944C164.57 100.804 164.304 100.566 164.099 100.23C163.894 99.894 163.791 99.4227 163.791 98.816V94.448H162.727V93.86L163.805 93.37L164.295 91.774H165.023V93.496H167.193V94.448H165.023V98.788C165.023 99.2453 165.13 99.586 165.345 99.81C165.569 100.025 165.854 100.132 166.199 100.132ZM173.62 101H172.388V90.36H173.62V101ZM176.628 90.682C176.814 90.682 176.978 90.7473 177.118 90.878C177.267 90.9993 177.342 91.1953 177.342 91.466C177.342 91.7367 177.267 91.9373 177.118 92.068C176.978 92.1893 176.814 92.25 176.628 92.25C176.422 92.25 176.25 92.1893 176.11 92.068C175.97 91.9373 175.9 91.7367 175.9 91.466C175.9 91.1953 175.97 90.9993 176.11 90.878C176.25 90.7473 176.422 90.682 176.628 90.682ZM177.23 93.496V101H175.998V93.496H177.23ZM183.219 93.356C184.115 93.356 184.792 93.5753 185.249 94.014C185.706 94.4527 185.935 95.1527 185.935 96.114V101H184.717V96.198C184.717 94.994 184.157 94.392 183.037 94.392C182.206 94.392 181.632 94.6253 181.315 95.092C180.998 95.5587 180.839 96.2307 180.839 97.108V101H179.607V93.496H180.601L180.783 94.518H180.853C181.096 94.126 181.432 93.8367 181.861 93.65C182.29 93.454 182.743 93.356 183.219 93.356ZM189.479 90.36V95.918C189.479 96.0673 189.47 96.2633 189.451 96.506C189.442 96.7487 189.433 96.9587 189.423 97.136H189.479C189.535 97.0613 189.619 96.954 189.731 96.814C189.843 96.674 189.955 96.534 190.067 96.394C190.189 96.2447 190.291 96.1233 190.375 96.03L192.769 93.496H194.211L191.173 96.702L194.421 101H192.937L190.333 97.5L189.479 98.242V101H188.261V90.36H189.479Z" fill="#1473E6"/>
<path d="M119.45 102.75H194.547V103.45H119.45V102.75Z" fill="#1473E6"/>
<path d="M449.32 101H448.06V96.338H442.936V101H441.676V91.004H442.936V95.232H448.06V91.004H449.32V101ZM458.409 97.234C458.409 98.4753 458.092 99.4367 457.457 100.118C456.832 100.799 455.983 101.14 454.909 101.14C454.247 101.14 453.654 100.991 453.131 100.692C452.618 100.384 452.212 99.9407 451.913 99.362C451.615 98.774 451.465 98.0647 451.465 97.234C451.465 95.9927 451.773 95.036 452.389 94.364C453.015 93.692 453.869 93.356 454.951 93.356C455.623 93.356 456.221 93.51 456.743 93.818C457.266 94.1167 457.672 94.5553 457.961 95.134C458.26 95.7033 458.409 96.4033 458.409 97.234ZM452.739 97.234C452.739 98.1207 452.912 98.8253 453.257 99.348C453.612 99.8613 454.172 100.118 454.937 100.118C455.693 100.118 456.249 99.8613 456.603 99.348C456.958 98.8253 457.135 98.1207 457.135 97.234C457.135 96.3473 456.958 95.652 456.603 95.148C456.249 94.644 455.689 94.392 454.923 94.392C454.158 94.392 453.603 94.644 453.257 95.148C452.912 95.652 452.739 96.3473 452.739 97.234ZM461.74 101L458.898 93.496H460.214L461.81 97.92C461.885 98.1253 461.964 98.354 462.048 98.606C462.132 98.858 462.207 99.1007 462.272 99.334C462.338 99.5673 462.384 99.7587 462.412 99.908H462.468C462.496 99.7587 462.548 99.5673 462.622 99.334C462.697 99.0913 462.776 98.8487 462.86 98.606C462.944 98.354 463.024 98.1253 463.098 97.92L464.694 93.496H466.01L463.154 101H461.74ZM470.096 93.356C470.73 93.356 471.281 93.496 471.748 93.776C472.214 94.056 472.569 94.4527 472.812 94.966C473.064 95.47 473.19 96.0627 473.19 96.744V97.486H468.052C468.07 98.3353 468.285 98.984 468.696 99.432C469.116 99.8707 469.699 100.09 470.446 100.09C470.922 100.09 471.342 100.048 471.706 99.964C472.079 99.8707 472.462 99.74 472.854 99.572V100.65C472.471 100.818 472.093 100.939 471.72 101.014C471.346 101.098 470.903 101.14 470.39 101.14C469.671 101.14 469.041 100.995 468.5 100.706C467.958 100.417 467.534 99.9873 467.226 99.418C466.927 98.8487 466.778 98.144 466.778 97.304C466.778 96.4827 466.913 95.778 467.184 95.19C467.464 94.602 467.851 94.1493 468.346 93.832C468.85 93.5147 469.433 93.356 470.096 93.356ZM470.082 94.364C469.494 94.364 469.027 94.5553 468.682 94.938C468.346 95.3113 468.145 95.834 468.08 96.506H471.902C471.892 95.8713 471.743 95.358 471.454 94.966C471.164 94.5647 470.707 94.364 470.082 94.364ZM478.6 93.356C478.74 93.356 478.889 93.3653 479.048 93.384C479.207 93.3933 479.351 93.412 479.482 93.44L479.328 94.574C479.207 94.546 479.071 94.5227 478.922 94.504C478.773 94.4853 478.637 94.476 478.516 94.476C478.133 94.476 477.774 94.5833 477.438 94.798C477.102 95.0033 476.831 95.2973 476.626 95.68C476.43 96.0533 476.332 96.492 476.332 96.996V101H475.1V93.496H476.108L476.248 94.868H476.304C476.537 94.4573 476.845 94.1027 477.228 93.804C477.62 93.5053 478.077 93.356 478.6 93.356ZM485.752 101H484.52V90.36H485.752V101ZM488.759 90.682C488.946 90.682 489.109 90.7473 489.249 90.878C489.399 90.9993 489.473 91.1953 489.473 91.466C489.473 91.7367 489.399 91.9373 489.249 92.068C489.109 92.1893 488.946 92.25 488.759 92.25C488.554 92.25 488.381 92.1893 488.241 92.068C488.101 91.9373 488.031 91.7367 488.031 91.466C488.031 91.1953 488.101 90.9993 488.241 90.878C488.381 90.7473 488.554 90.682 488.759 90.682ZM489.361 93.496V101H488.129V93.496H489.361ZM495.351 93.356C496.247 93.356 496.923 93.5753 497.381 94.014C497.838 94.4527 498.067 95.1527 498.067 96.114V101H496.849V96.198C496.849 94.994 496.289 94.392 495.169 94.392C494.338 94.392 493.764 94.6253 493.447 95.092C493.129 95.5587 492.971 96.2307 492.971 97.108V101H491.739V93.496H492.733L492.915 94.518H492.985C493.227 94.126 493.563 93.8367 493.993 93.65C494.422 93.454 494.875 93.356 495.351 93.356ZM501.611 90.36V95.918C501.611 96.0673 501.602 96.2633 501.583 96.506C501.574 96.7487 501.564 96.9587 501.555 97.136H501.611C501.667 97.0613 501.751 96.954 501.863 96.814C501.975 96.674 502.087 96.534 502.199 96.394C502.32 96.2447 502.423 96.1233 502.507 96.03L504.901 93.496H506.343L503.305 96.702L506.553 101H505.069L502.465 97.5L501.611 98.242V101H500.393V90.36H501.611Z" fill="#125AB3"/>
<path d="M758.811 95.904C758.811 97.5933 758.349 98.8673 757.425 99.726C756.511 100.575 755.232 101 753.589 101H750.803V91.004H753.883C754.882 91.004 755.75 91.1907 756.487 91.564C757.234 91.9373 757.808 92.488 758.209 93.216C758.611 93.944 758.811 94.84 758.811 95.904ZM757.481 95.946C757.481 94.6113 757.15 93.636 756.487 93.02C755.834 92.3947 754.905 92.082 753.701 92.082H752.063V99.922H753.421C756.128 99.922 757.481 98.5967 757.481 95.946ZM761.492 90.682C761.679 90.682 761.842 90.7473 761.982 90.878C762.131 90.9993 762.206 91.1953 762.206 91.466C762.206 91.7367 762.131 91.9373 761.982 92.068C761.842 92.1893 761.679 92.25 761.492 92.25C761.287 92.25 761.114 92.1893 760.974 92.068C760.834 91.9373 760.764 91.7367 760.764 91.466C760.764 91.1953 760.834 90.9993 760.974 90.878C761.114 90.7473 761.287 90.682 761.492 90.682ZM762.094 93.496V101H760.862V93.496H762.094ZM769.357 98.928C769.357 99.656 769.087 100.207 768.545 100.58C768.004 100.953 767.276 101.14 766.361 101.14C765.839 101.14 765.386 101.098 765.003 101.014C764.63 100.93 764.299 100.813 764.009 100.664V99.544C764.308 99.6933 764.667 99.8333 765.087 99.964C765.517 100.085 765.951 100.146 766.389 100.146C767.015 100.146 767.467 100.048 767.747 99.852C768.027 99.6467 768.167 99.376 768.167 99.04C768.167 98.8533 768.116 98.6853 768.013 98.536C767.911 98.3867 767.724 98.2373 767.453 98.088C767.192 97.9387 766.814 97.7707 766.319 97.584C765.834 97.3973 765.419 97.2107 765.073 97.024C764.728 96.8373 764.462 96.6133 764.275 96.352C764.089 96.0907 763.995 95.7547 763.995 95.344C763.995 94.7093 764.252 94.2193 764.765 93.874C765.288 93.5287 765.969 93.356 766.809 93.356C767.267 93.356 767.691 93.4027 768.083 93.496C768.485 93.5893 768.858 93.7107 769.203 93.86L768.783 94.84C768.466 94.7093 768.135 94.5973 767.789 94.504C767.444 94.4107 767.089 94.364 766.725 94.364C766.221 94.364 765.834 94.448 765.563 94.616C765.302 94.7747 765.171 94.994 765.171 95.274C765.171 95.4887 765.232 95.666 765.353 95.806C765.475 95.946 765.675 96.086 765.955 96.226C766.245 96.366 766.627 96.5247 767.103 96.702C767.579 96.8793 767.985 97.0613 768.321 97.248C768.657 97.4347 768.914 97.6633 769.091 97.934C769.269 98.1953 769.357 98.5267 769.357 98.928ZM774.012 93.37C774.927 93.37 775.604 93.5707 776.042 93.972C776.481 94.3733 776.7 95.0127 776.7 95.89V101H775.804L775.566 99.936H775.51C775.184 100.347 774.838 100.65 774.474 100.846C774.11 101.042 773.616 101.14 772.99 101.14C772.309 101.14 771.744 100.963 771.296 100.608C770.848 100.244 770.624 99.6793 770.624 98.914C770.624 98.1673 770.918 97.5933 771.506 97.192C772.094 96.7813 773 96.5573 774.222 96.52L775.496 96.478V96.03C775.496 95.4047 775.361 94.9707 775.09 94.728C774.82 94.4853 774.437 94.364 773.942 94.364C773.55 94.364 773.177 94.4247 772.822 94.546C772.468 94.658 772.136 94.7887 771.828 94.938L771.45 94.014C771.777 93.8367 772.164 93.6873 772.612 93.566C773.06 93.4353 773.527 93.37 774.012 93.37ZM775.482 97.332L774.376 97.374C773.443 97.4113 772.794 97.5607 772.43 97.822C772.076 98.0833 771.898 98.452 771.898 98.928C771.898 99.348 772.024 99.656 772.276 99.852C772.538 100.048 772.869 100.146 773.27 100.146C773.896 100.146 774.418 99.9733 774.838 99.628C775.268 99.2733 775.482 98.732 775.482 98.004V97.332ZM780.25 90.36V92.95C780.25 93.2673 780.241 93.566 780.222 93.846C780.213 94.1167 780.199 94.3313 780.18 94.49H780.25C780.465 94.1727 780.759 93.9067 781.132 93.692C781.505 93.4773 781.986 93.37 782.574 93.37C783.507 93.37 784.254 93.6967 784.814 94.35C785.383 94.994 785.668 95.96 785.668 97.248C785.668 98.536 785.383 99.5067 784.814 100.16C784.245 100.813 783.498 101.14 782.574 101.14C781.986 101.14 781.505 101.033 781.132 100.818C780.759 100.603 780.465 100.347 780.25 100.048H780.152L779.9 101H779.018V90.36H780.25ZM782.364 94.392C781.561 94.392 781.006 94.6207 780.698 95.078C780.399 95.5353 780.25 96.2447 780.25 97.206V97.262C780.25 98.186 780.399 98.8953 780.698 99.39C781.006 99.8753 781.571 100.118 782.392 100.118C783.064 100.118 783.563 99.8707 783.89 99.376C784.226 98.8813 784.394 98.1673 784.394 97.234C784.394 95.3393 783.717 94.392 782.364 94.392ZM788.863 101H787.631V90.36H788.863V101ZM794.139 93.356C794.773 93.356 795.324 93.496 795.791 93.776C796.257 94.056 796.612 94.4527 796.855 94.966C797.107 95.47 797.233 96.0627 797.233 96.744V97.486H792.095C792.113 98.3353 792.328 98.984 792.739 99.432C793.159 99.8707 793.742 100.09 794.489 100.09C794.965 100.09 795.385 100.048 795.749 99.964C796.122 99.8707 796.505 99.74 796.897 99.572V100.65C796.514 100.818 796.136 100.939 795.763 101.014C795.389 101.098 794.946 101.14 794.433 101.14C793.714 101.14 793.084 100.995 792.543 100.706C792.001 100.417 791.577 99.9873 791.269 99.418C790.97 98.8487 790.821 98.144 790.821 97.304C790.821 96.4827 790.956 95.778 791.227 95.19C791.507 94.602 791.894 94.1493 792.389 93.832C792.893 93.5147 793.476 93.356 794.139 93.356ZM794.125 94.364C793.537 94.364 793.07 94.5553 792.725 94.938C792.389 95.3113 792.188 95.834 792.123 96.506H795.945C795.935 95.8713 795.786 95.358 795.497 94.966C795.207 94.5647 794.75 94.364 794.125 94.364ZM801.803 101.14C800.87 101.14 800.123 100.818 799.563 100.174C799.003 99.5207 798.723 98.55 798.723 97.262C798.723 95.974 799.003 95.0033 799.563 94.35C800.132 93.6873 800.884 93.356 801.817 93.356C802.396 93.356 802.867 93.4633 803.231 93.678C803.604 93.8927 803.908 94.154 804.141 94.462H804.225C804.206 94.3407 804.188 94.1633 804.169 93.93C804.15 93.6873 804.141 93.496 804.141 93.356V90.36H805.373V101H804.379L804.197 99.992H804.141C803.917 100.309 803.618 100.58 803.245 100.804C802.872 101.028 802.391 101.14 801.803 101.14ZM801.999 100.118C802.792 100.118 803.348 99.9033 803.665 99.474C803.992 99.0353 804.155 98.3773 804.155 97.5V97.276C804.155 96.3427 804.001 95.6287 803.693 95.134C803.385 94.63 802.816 94.378 801.985 94.378C801.322 94.378 800.823 94.644 800.487 95.176C800.16 95.6987 799.997 96.4033 799.997 97.29C799.997 98.186 800.16 98.8813 800.487 99.376C800.823 99.8707 801.327 100.118 801.999 100.118ZM812.625 101H811.393V90.36H812.625V101ZM815.633 90.682C815.819 90.682 815.983 90.7473 816.123 90.878C816.272 90.9993 816.347 91.1953 816.347 91.466C816.347 91.7367 816.272 91.9373 816.123 92.068C815.983 92.1893 815.819 92.25 815.633 92.25C815.427 92.25 815.255 92.1893 815.115 92.068C814.975 91.9373 814.905 91.7367 814.905 91.466C814.905 91.1953 814.975 90.9993 815.115 90.878C815.255 90.7473 815.427 90.682 815.633 90.682ZM816.235 93.496V101H815.003V93.496H816.235ZM822.224 93.356C823.12 93.356 823.797 93.5753 824.254 94.014C824.711 94.4527 824.94 95.1527 824.94 96.114V101H823.722V96.198C823.722 94.994 823.162 94.392 822.042 94.392C821.211 94.392 820.637 94.6253 820.32 95.092C820.003 95.5587 819.844 96.2307 819.844 97.108V101H818.612V93.496H819.606L819.788 94.518H819.858C820.101 94.126 820.437 93.8367 820.866 93.65C821.295 93.454 821.748 93.356 822.224 93.356ZM828.484 90.36V95.918C828.484 96.0673 828.475 96.2633 828.456 96.506C828.447 96.7487 828.438 96.9587 828.428 97.136H828.484C828.54 97.0613 828.624 96.954 828.736 96.814C828.848 96.674 828.96 96.534 829.072 96.394C829.194 96.2447 829.296 96.1233 829.38 96.03L831.774 93.496H833.216L830.178 96.702L833.426 101H831.942L829.338 97.5L828.484 98.242V101H827.266V90.36H828.484Z" fill="#939393"/>
<path d="M749.445 102.75H833.552V103.45H749.445V102.75Z" fill="#939393"/>
<path d="M140.699 41.904C140.699 43.5933 140.227 44.8673 139.285 45.726C138.342 46.5753 137.026 47 135.337 47H132.523V37.004H135.631C136.667 37.004 137.563 37.1907 138.319 37.564C139.075 37.9373 139.658 38.488 140.069 39.216C140.489 39.944 140.699 40.84 140.699 41.904ZM138.823 41.96C138.823 40.7653 138.547 39.888 137.997 39.328C137.446 38.768 136.657 38.488 135.631 38.488H134.315V45.502H135.393C137.679 45.502 138.823 44.3213 138.823 41.96ZM145.715 39.272C146.733 39.272 147.535 39.5753 148.123 40.182C148.721 40.7887 149.019 41.6333 149.019 42.716V43.612H144.007C144.026 44.3027 144.217 44.8393 144.581 45.222C144.945 45.5953 145.449 45.782 146.093 45.782C146.579 45.782 147.017 45.7353 147.409 45.642C147.801 45.5393 148.203 45.3947 148.613 45.208V46.622C148.24 46.7993 147.853 46.93 147.451 47.014C147.05 47.098 146.569 47.14 146.009 47.14C145.263 47.14 144.605 47 144.035 46.72C143.466 46.4307 143.018 46.0013 142.691 45.432C142.374 44.8533 142.215 44.13 142.215 43.262C142.215 41.9647 142.533 40.9753 143.167 40.294C143.811 39.6127 144.661 39.272 145.715 39.272ZM145.715 40.574C145.239 40.574 144.852 40.728 144.553 41.036C144.264 41.3347 144.096 41.7827 144.049 42.38H147.311C147.302 41.8573 147.167 41.428 146.905 41.092C146.653 40.7467 146.257 40.574 145.715 40.574ZM154.732 40.742H152.898V47H151.134V40.742H149.916V39.902L151.134 39.398V38.88C151.134 37.9093 151.363 37.2373 151.82 36.864C152.287 36.4813 152.921 36.29 153.724 36.29C154.088 36.29 154.419 36.3227 154.718 36.388C155.026 36.444 155.278 36.5093 155.474 36.584L155.026 37.9C154.867 37.8533 154.69 37.8113 154.494 37.774C154.307 37.7273 154.102 37.704 153.878 37.704C153.533 37.704 153.281 37.8113 153.122 38.026C152.973 38.2313 152.898 38.53 152.898 38.922V39.412H154.732V40.742ZM159.017 39.272C159.997 39.272 160.739 39.4867 161.243 39.916C161.757 40.3453 162.013 41.008 162.013 41.904V47H160.767L160.417 45.95H160.361C160.035 46.3607 159.689 46.664 159.325 46.86C158.961 47.0467 158.467 47.14 157.841 47.14C157.16 47.14 156.595 46.9487 156.147 46.566C155.699 46.1833 155.475 45.5907 155.475 44.788C155.475 44.004 155.76 43.416 156.329 43.024C156.908 42.632 157.781 42.4127 158.947 42.366L160.263 42.324V41.946C160.263 41.4607 160.147 41.1153 159.913 40.91C159.68 40.7047 159.353 40.602 158.933 40.602C158.551 40.602 158.182 40.658 157.827 40.77C157.482 40.8727 157.137 41.0033 156.791 41.162L156.231 39.93C156.605 39.734 157.029 39.5753 157.505 39.454C157.991 39.3327 158.495 39.272 159.017 39.272ZM160.263 43.416L159.339 43.444C158.565 43.472 158.028 43.6073 157.729 43.85C157.431 44.0833 157.281 44.4007 157.281 44.802C157.281 45.166 157.384 45.4273 157.589 45.586C157.804 45.7353 158.084 45.81 158.429 45.81C158.943 45.81 159.377 45.6653 159.731 45.376C160.086 45.0773 160.263 44.6387 160.263 44.06V43.416ZM170.958 39.412V47H169.572L169.334 46.02H169.25C169.007 46.412 168.671 46.6967 168.242 46.874C167.813 47.0513 167.36 47.14 166.884 47.14C166.035 47.14 165.367 46.9207 164.882 46.482C164.406 46.0433 164.168 45.3387 164.168 44.368V39.412H165.932V44.018C165.932 44.5873 166.044 45.012 166.268 45.292C166.492 45.572 166.847 45.712 167.332 45.712C168.041 45.712 168.527 45.488 168.788 45.04C169.059 44.592 169.194 43.9527 169.194 43.122V39.412H170.958ZM174.97 47H173.206V36.36H174.97V47ZM180.166 45.726C180.38 45.726 180.59 45.7073 180.796 45.67C181.01 45.6233 181.206 45.572 181.384 45.516V46.832C181.197 46.9253 180.954 47 180.656 47.056C180.357 47.112 180.044 47.14 179.718 47.14C179.279 47.14 178.882 47.07 178.528 46.93C178.182 46.79 177.907 46.5427 177.702 46.188C177.496 45.8333 177.394 45.334 177.394 44.69V40.742H176.372V39.972L177.492 39.356L178.052 37.746H179.158V39.412H181.314V40.742H179.158V44.676C179.158 45.0307 179.251 45.2967 179.438 45.474C179.634 45.642 179.876 45.726 180.166 45.726Z" fill="black"/>
<path d="M464.363 47H462.571V42.562H458.175V47H456.383V37.004H458.175V41.036H462.571V37.004H464.363V47ZM473.573 43.192C473.573 44.452 473.246 45.4273 472.593 46.118C471.94 46.7993 471.053 47.14 469.933 47.14C469.242 47.14 468.626 46.986 468.085 46.678C467.544 46.37 467.119 45.922 466.811 45.334C466.503 44.746 466.349 44.032 466.349 43.192C466.349 41.932 466.671 40.966 467.315 40.294C467.968 39.6127 468.855 39.272 469.975 39.272C470.675 39.272 471.296 39.426 471.837 39.734C472.378 40.0327 472.803 40.476 473.111 41.064C473.419 41.6427 473.573 42.352 473.573 43.192ZM468.155 43.192C468.155 43.9947 468.295 44.6153 468.575 45.054C468.864 45.4927 469.326 45.712 469.961 45.712C470.586 45.712 471.044 45.4927 471.333 45.054C471.622 44.6153 471.767 43.9947 471.767 43.192C471.767 42.3893 471.622 41.7733 471.333 41.344C471.044 40.9147 470.582 40.7 469.947 40.7C469.312 40.7 468.855 40.9147 468.575 41.344C468.295 41.7733 468.155 42.3893 468.155 43.192ZM476.873 47L473.989 39.412H475.851L477.363 43.794C477.466 44.0647 477.555 44.3633 477.629 44.69C477.704 45.0167 477.751 45.292 477.769 45.516H477.825C477.853 45.2733 477.909 44.9933 477.993 44.676C478.077 44.3587 478.166 44.0647 478.259 43.794L479.771 39.412H481.633L478.749 47H476.873ZM485.818 39.272C486.835 39.272 487.638 39.5753 488.226 40.182C488.823 40.7887 489.122 41.6333 489.122 42.716V43.612H484.11C484.129 44.3027 484.32 44.8393 484.684 45.222C485.048 45.5953 485.552 45.782 486.196 45.782C486.681 45.782 487.12 45.7353 487.512 45.642C487.904 45.5393 488.305 45.3947 488.716 45.208V46.622C488.343 46.7993 487.955 46.93 487.554 47.014C487.153 47.098 486.672 47.14 486.112 47.14C485.365 47.14 484.707 47 484.138 46.72C483.569 46.4307 483.121 46.0013 482.794 45.432C482.477 44.8533 482.318 44.13 482.318 43.262C482.318 41.9647 482.635 40.9753 483.27 40.294C483.914 39.6127 484.763 39.272 485.818 39.272ZM485.818 40.574C485.342 40.574 484.955 40.728 484.656 41.036C484.367 41.3347 484.199 41.7827 484.152 42.38H487.414C487.405 41.8573 487.269 41.428 487.008 41.092C486.756 40.7467 486.359 40.574 485.818 40.574ZM494.877 39.272C494.998 39.272 495.133 39.2813 495.283 39.3C495.432 39.3093 495.553 39.3233 495.647 39.342L495.493 40.98C495.399 40.9613 495.283 40.9473 495.143 40.938C495.012 40.9193 494.9 40.91 494.807 40.91C494.433 40.91 494.083 40.9893 493.757 41.148C493.43 41.2973 493.164 41.5307 492.959 41.848C492.763 42.1653 492.665 42.5713 492.665 43.066V47H490.901V39.412H492.259L492.511 40.728H492.595C492.819 40.3267 493.127 39.986 493.519 39.706C493.911 39.4167 494.363 39.272 494.877 39.272Z" fill="black"/>
<path d="M771.926 41.904C771.926 43.5933 771.455 44.8673 770.512 45.726C769.57 46.5753 768.254 47 766.564 47H763.75V37.004H766.858C767.894 37.004 768.79 37.1907 769.546 37.564C770.302 37.9373 770.886 38.488 771.296 39.216C771.716 39.944 771.926 40.84 771.926 41.904ZM770.05 41.96C770.05 40.7653 769.775 39.888 769.224 39.328C768.674 38.768 767.885 38.488 766.858 38.488H765.542V45.502H766.62C768.907 45.502 770.05 44.3213 770.05 41.96ZM774.773 36.486C775.034 36.486 775.263 36.556 775.459 36.696C775.655 36.8267 775.753 37.0647 775.753 37.41C775.753 37.7553 775.655 37.998 775.459 38.138C775.263 38.278 775.034 38.348 774.773 38.348C774.502 38.348 774.269 38.278 774.073 38.138C773.886 37.998 773.793 37.7553 773.793 37.41C773.793 37.0647 773.886 36.8267 774.073 36.696C774.269 36.556 774.502 36.486 774.773 36.486ZM775.655 39.412V47H773.891V39.412H775.655ZM783.076 44.802C783.076 45.5673 782.801 46.1507 782.25 46.552C781.709 46.944 780.93 47.14 779.912 47.14C779.38 47.14 778.923 47.1027 778.54 47.028C778.167 46.9533 777.803 46.8367 777.448 46.678V45.18C777.822 45.3573 778.232 45.5067 778.68 45.628C779.138 45.7493 779.567 45.81 779.968 45.81C780.454 45.81 780.804 45.7353 781.018 45.586C781.233 45.4367 781.34 45.236 781.34 44.984C781.34 44.8347 781.298 44.704 781.214 44.592C781.13 44.4707 780.967 44.34 780.724 44.2C780.482 44.06 780.113 43.8873 779.618 43.682C779.133 43.486 778.727 43.29 778.4 43.094C778.083 42.898 777.84 42.6647 777.672 42.394C777.514 42.1233 777.434 41.7733 777.434 41.344C777.434 40.6627 777.705 40.1493 778.246 39.804C778.788 39.4493 779.502 39.272 780.388 39.272C780.855 39.272 781.294 39.3187 781.704 39.412C782.124 39.5053 782.544 39.6453 782.964 39.832L782.404 41.134C782.05 40.9847 781.704 40.8587 781.368 40.756C781.032 40.6533 780.687 40.602 780.332 40.602C779.558 40.602 779.17 40.8213 779.17 41.26C779.17 41.4187 779.217 41.554 779.31 41.666C779.413 41.778 779.586 41.8993 779.828 42.03C780.08 42.1513 780.435 42.3007 780.892 42.478C781.34 42.6553 781.728 42.842 782.054 43.038C782.381 43.2247 782.633 43.458 782.81 43.738C782.988 44.0087 783.076 44.3633 783.076 44.802ZM787.798 39.272C788.778 39.272 789.52 39.4867 790.024 39.916C790.537 40.3453 790.794 41.008 790.794 41.904V47H789.548L789.198 45.95H789.142C788.815 46.3607 788.47 46.664 788.106 46.86C787.742 47.0467 787.247 47.14 786.622 47.14C785.94 47.14 785.376 46.9487 784.928 46.566C784.48 46.1833 784.256 45.5907 784.256 44.788C784.256 44.004 784.54 43.416 785.11 43.024C785.688 42.632 786.561 42.4127 787.728 42.366L789.044 42.324V41.946C789.044 41.4607 788.927 41.1153 788.694 40.91C788.46 40.7047 788.134 40.602 787.714 40.602C787.331 40.602 786.962 40.658 786.608 40.77C786.262 40.8727 785.917 41.0033 785.572 41.162L785.012 39.93C785.385 39.734 785.81 39.5753 786.286 39.454C786.771 39.3327 787.275 39.272 787.798 39.272ZM789.044 43.416L788.12 43.444C787.345 43.472 786.808 43.6073 786.51 43.85C786.211 44.0833 786.062 44.4007 786.062 44.802C786.062 45.166 786.164 45.4273 786.37 45.586C786.584 45.7353 786.864 45.81 787.21 45.81C787.723 45.81 788.157 45.6653 788.512 45.376C788.866 45.0773 789.044 44.6387 789.044 44.06V43.416ZM794.768 36.36V38.88C794.768 39.1787 794.759 39.468 794.74 39.748C794.721 40.028 794.703 40.2473 794.684 40.406H794.768C794.973 40.0887 795.253 39.8227 795.608 39.608C795.963 39.384 796.425 39.272 796.994 39.272C797.871 39.272 798.581 39.6033 799.122 40.266C799.673 40.9287 799.948 41.904 799.948 43.192C799.948 44.4987 799.673 45.4833 799.122 46.146C798.571 46.8087 797.848 47.14 796.952 47.14C796.383 47.14 795.925 47.0373 795.58 46.832C795.244 46.6267 794.973 46.3887 794.768 46.118H794.642L794.32 47H793.004V36.36H794.768ZM796.49 40.7C795.855 40.7 795.412 40.8913 795.16 41.274C794.908 41.6567 794.777 42.2447 794.768 43.038V43.192C794.768 44.004 794.889 44.6247 795.132 45.054C795.384 45.4833 795.846 45.698 796.518 45.698C797.041 45.698 797.442 45.4833 797.722 45.054C798.002 44.6153 798.142 43.99 798.142 43.178C798.142 42.3473 797.997 41.7267 797.708 41.316C797.428 40.9053 797.022 40.7 796.49 40.7ZM803.532 47H801.768V36.36H803.532V47ZM808.839 39.272C809.857 39.272 810.659 39.5753 811.247 40.182C811.845 40.7887 812.143 41.6333 812.143 42.716V43.612H807.131C807.15 44.3027 807.341 44.8393 807.705 45.222C808.069 45.5953 808.573 45.782 809.217 45.782C809.703 45.782 810.141 45.7353 810.533 45.642C810.925 45.5393 811.327 45.3947 811.737 45.208V46.622C811.364 46.7993 810.977 46.93 810.575 47.014C810.174 47.098 809.693 47.14 809.133 47.14C808.387 47.14 807.729 47 807.159 46.72C806.59 46.4307 806.142 46.0013 805.815 45.432C805.498 44.8533 805.339 44.13 805.339 43.262C805.339 41.9647 805.657 40.9753 806.291 40.294C806.935 39.6127 807.785 39.272 808.839 39.272ZM808.839 40.574C808.363 40.574 807.976 40.728 807.677 41.036C807.388 41.3347 807.22 41.7827 807.173 42.38H810.435C810.426 41.8573 810.291 41.428 810.029 41.092C809.777 40.7467 809.381 40.574 808.839 40.574ZM816.428 47.14C815.551 47.14 814.837 46.8133 814.286 46.16C813.745 45.4973 813.474 44.5173 813.474 43.22C813.474 41.9133 813.749 40.9287 814.3 40.266C814.851 39.6033 815.574 39.272 816.47 39.272C817.03 39.272 817.487 39.3793 817.842 39.594C818.206 39.8087 818.495 40.07 818.71 40.378H818.794C818.766 40.2473 818.738 40.0513 818.71 39.79C818.682 39.5193 818.668 39.2627 818.668 39.02V36.36H820.432V47H819.06L818.738 46.006H818.668C818.453 46.3233 818.169 46.594 817.814 46.818C817.459 47.0327 816.997 47.14 816.428 47.14ZM816.96 45.712C817.613 45.712 818.071 45.5253 818.332 45.152C818.603 44.7787 818.743 44.214 818.752 43.458V43.234C818.752 42.422 818.621 41.8013 818.36 41.372C818.108 40.9333 817.632 40.714 816.932 40.714C816.391 40.714 815.975 40.938 815.686 41.386C815.406 41.8247 815.266 42.4453 815.266 43.248C815.266 44.0507 815.411 44.662 815.7 45.082C815.989 45.502 816.409 45.712 816.96 45.712Z" fill="black"/>
<rect x="0.5" y="0.5" width="951" height="163" stroke="#C9C9C9"/>
</svg>
