<svg width="76" height="19" viewBox="0 0 76 19" fill="none" xmlns="http://www.w3.org/2000/svg">
<path d="M9.8162 9.904C9.8162 11.5933 9.3542 12.8673 8.4302 13.726C7.51553 14.5753 6.23686 15 4.5942 15H1.8082V5.004H4.8882C5.88686 5.004 6.75486 5.19067 7.4922 5.564C8.23886 5.93733 8.81286 6.488 9.2142 7.216C9.61553 7.944 9.8162 8.84 9.8162 9.904ZM8.4862 9.946C8.4862 8.61133 8.15486 7.636 7.4922 7.02C6.83886 6.39467 5.9102 6.082 4.7062 6.082H3.0682V13.922H4.4262C7.13286 13.922 8.4862 12.5967 8.4862 9.946ZM14.7648 7.356C15.3994 7.356 15.9501 7.496 16.4168 7.776C16.8834 8.056 17.2381 8.45267 17.4808 8.966C17.7328 9.47 17.8588 10.0627 17.8588 10.744V11.486H12.7208C12.7394 12.3353 12.9541 12.984 13.3648 13.432C13.7848 13.8707 14.3681 14.09 15.1148 14.09C15.5908 14.09 16.0108 14.048 16.3748 13.964C16.7481 13.8707 17.1308 13.74 17.5228 13.572V14.65C17.1401 14.818 16.7621 14.9393 16.3888 15.014C16.0154 15.098 15.5721 15.14 15.0588 15.14C14.3401 15.14 13.7101 14.9953 13.1688 14.706C12.6274 14.4167 12.2028 13.9873 11.8948 13.418C11.5961 12.8487 11.4468 12.144 11.4468 11.304C11.4468 10.4827 11.5821 9.778 11.8528 9.19C12.1328 8.602 12.5201 8.14933 13.0148 7.832C13.5188 7.51467 14.1021 7.356 14.7648 7.356ZM14.7508 8.364C14.1628 8.364 13.6961 8.55533 13.3508 8.938C13.0148 9.31133 12.8141 9.834 12.7488 10.506H16.5708C16.5614 9.87133 16.4121 9.358 16.1228 8.966C15.8334 8.56467 15.3761 8.364 14.7508 8.364ZM23.2271 8.448H21.3371V15H20.1051V8.448H18.7891V7.874L20.1051 7.454V7.02C20.1051 6.04933 20.3151 5.354 20.7351 4.934C21.1644 4.50467 21.7664 4.29 22.5411 4.29C22.8304 4.29 23.1011 4.318 23.3531 4.374C23.6051 4.42067 23.8198 4.47667 23.9971 4.542L23.6751 5.508C23.5258 5.46133 23.3531 5.41467 23.1571 5.368C22.9611 5.32133 22.7604 5.298 22.5551 5.298C22.1444 5.298 21.8364 5.438 21.6311 5.718C21.4351 5.98867 21.3371 6.418 21.3371 7.006V7.496H23.2271V8.448ZM27.4236 7.37C28.3383 7.37 29.0149 7.57067 29.4536 7.972C29.8923 8.37333 30.1116 9.01267 30.1116 9.89V15H29.2156L28.9776 13.936H28.9216C28.5949 14.3467 28.2496 14.65 27.8856 14.846C27.5216 15.042 27.0269 15.14 26.4016 15.14C25.7203 15.14 25.1556 14.9627 24.7076 14.608C24.2596 14.244 24.0356 13.6793 24.0356 12.914C24.0356 12.1673 24.3296 11.5933 24.9176 11.192C25.5056 10.7813 26.4109 10.5573 27.6336 10.52L28.9076 10.478V10.03C28.9076 9.40467 28.7723 8.97067 28.5016 8.728C28.2309 8.48533 27.8483 8.364 27.3536 8.364C26.9616 8.364 26.5883 8.42467 26.2336 8.546C25.8789 8.658 25.5476 8.78867 25.2396 8.938L24.8616 8.014C25.1883 7.83667 25.5756 7.68733 26.0236 7.566C26.4716 7.43533 26.9383 7.37 27.4236 7.37ZM28.8936 11.332L27.7876 11.374C26.8543 11.4113 26.2056 11.5607 25.8416 11.822C25.4869 12.0833 25.3096 12.452 25.3096 12.928C25.3096 13.348 25.4356 13.656 25.6876 13.852C25.9489 14.048 26.2803 14.146 26.6816 14.146C27.3069 14.146 27.8296 13.9733 28.2496 13.628C28.6789 13.2733 28.8936 12.732 28.8936 12.004V11.332ZM38.7013 7.496V15H37.6933L37.5113 14.006H37.4553C37.2126 14.398 36.8766 14.6873 36.4473 14.874C36.0179 15.0513 35.5606 15.14 35.0753 15.14C34.1699 15.14 33.4886 14.9253 33.0313 14.496C32.5739 14.0573 32.3453 13.362 32.3453 12.41V7.496H33.5913V12.326C33.5913 13.5207 34.1466 14.118 35.2573 14.118C36.0879 14.118 36.6619 13.8847 36.9793 13.418C37.3059 12.9513 37.4693 12.2793 37.4693 11.402V7.496H38.7013ZM42.3156 15H41.0836V4.36H42.3156V15ZM47.1989 14.132C47.3856 14.132 47.5769 14.118 47.7729 14.09C47.9689 14.062 48.1276 14.0247 48.2489 13.978V14.916C48.1183 14.9813 47.9316 15.0327 47.6889 15.07C47.4463 15.1167 47.2129 15.14 46.9889 15.14C46.5969 15.14 46.2329 15.0747 45.8969 14.944C45.5703 14.804 45.3043 14.566 45.0989 14.23C44.8936 13.894 44.7909 13.4227 44.7909 12.816V8.448H43.7269V7.86L44.8049 7.37L45.2949 5.774H46.0229V7.496H48.1929V8.448H46.0229V12.788C46.0229 13.2453 46.1303 13.586 46.3449 13.81C46.5689 14.0247 46.8536 14.132 47.1989 14.132ZM54.6202 15H53.3882V4.36H54.6202V15ZM57.6276 4.682C57.8143 4.682 57.9776 4.74733 58.1176 4.878C58.267 4.99933 58.3416 5.19533 58.3416 5.466C58.3416 5.73667 58.267 5.93733 58.1176 6.068C57.9776 6.18933 57.8143 6.25 57.6276 6.25C57.4223 6.25 57.2496 6.18933 57.1096 6.068C56.9696 5.93733 56.8996 5.73667 56.8996 5.466C56.8996 5.19533 56.9696 4.99933 57.1096 4.878C57.2496 4.74733 57.4223 4.682 57.6276 4.682ZM58.2296 7.496V15H56.9976V7.496H58.2296ZM64.219 7.356C65.115 7.356 65.7917 7.57533 66.249 8.014C66.7063 8.45267 66.935 9.15267 66.935 10.114V15H65.717V10.198C65.717 8.994 65.157 8.392 64.037 8.392C63.2063 8.392 62.6323 8.62533 62.315 9.092C61.9977 9.55867 61.839 10.2307 61.839 11.108V15H60.607V7.496H61.601L61.783 8.518H61.853C62.0957 8.126 62.4317 7.83667 62.861 7.65C63.2903 7.454 63.743 7.356 64.219 7.356ZM70.4793 4.36V9.918C70.4793 10.0673 70.47 10.2633 70.4513 10.506C70.442 10.7487 70.4326 10.9587 70.4233 11.136H70.4793C70.5353 11.0613 70.6193 10.954 70.7313 10.814C70.8433 10.674 70.9553 10.534 71.0673 10.394C71.1886 10.2447 71.2913 10.1233 71.3753 10.03L73.7693 7.496H75.2113L72.1733 10.702L75.4213 15H73.9373L71.3333 11.5L70.4793 12.242V15H69.2613V4.36H70.4793Z" fill="#1473E6"/>
<path d="M0.450195 16.75H75.5473V17.45H0.450195V16.75Z" fill="#1473E6"/>
</svg>
