<svg width="67" height="19" viewBox="0 0 67 19" fill="none" xmlns="http://www.w3.org/2000/svg">
<path d="M9.32036 15H8.06036V10.338H2.93636V15H1.67636V5.004H2.93636V9.232H8.06036V5.004H9.32036V15ZM18.4093 11.234C18.4093 12.4753 18.092 13.4367 17.4573 14.118C16.832 14.7993 15.9826 15.14 14.9093 15.14C14.2466 15.14 13.654 14.9907 13.1313 14.692C12.618 14.384 12.212 13.9407 11.9133 13.362C11.6146 12.774 11.4653 12.0647 11.4653 11.234C11.4653 9.99267 11.7733 9.036 12.3893 8.364C13.0146 7.692 13.8686 7.356 14.9513 7.356C15.6233 7.356 16.2206 7.51 16.7433 7.818C17.266 8.11667 17.672 8.55533 17.9613 9.134C18.26 9.70333 18.4093 10.4033 18.4093 11.234ZM12.7393 11.234C12.7393 12.1207 12.912 12.8253 13.2573 13.348C13.612 13.8613 14.172 14.118 14.9373 14.118C15.6933 14.118 16.2486 13.8613 16.6033 13.348C16.958 12.8253 17.1353 12.1207 17.1353 11.234C17.1353 10.3473 16.958 9.652 16.6033 9.148C16.2486 8.644 15.6886 8.392 14.9233 8.392C14.158 8.392 13.6026 8.644 13.2573 9.148C12.912 9.652 12.7393 10.3473 12.7393 11.234ZM21.7404 15L18.8984 7.496H20.2144L21.8104 11.92C21.8851 12.1253 21.9644 12.354 22.0484 12.606C22.1324 12.858 22.2071 13.1007 22.2724 13.334C22.3378 13.5673 22.3844 13.7587 22.4124 13.908H22.4684C22.4964 13.7587 22.5478 13.5673 22.6224 13.334C22.6971 13.0913 22.7764 12.8487 22.8604 12.606C22.9444 12.354 23.0238 12.1253 23.0984 11.92L24.6944 7.496H26.0104L23.1544 15H21.7404ZM30.0958 7.356C30.7305 7.356 31.2811 7.496 31.7478 7.776C32.2145 8.056 32.5691 8.45267 32.8118 8.966C33.0638 9.47 33.1898 10.0627 33.1898 10.744V11.486H28.0518C28.0705 12.3353 28.2851 12.984 28.6958 13.432C29.1158 13.8707 29.6991 14.09 30.4458 14.09C30.9218 14.09 31.3418 14.048 31.7058 13.964C32.0791 13.8707 32.4618 13.74 32.8538 13.572V14.65C32.4711 14.818 32.0931 14.9393 31.7198 15.014C31.3465 15.098 30.9031 15.14 30.3898 15.14C29.6711 15.14 29.0411 14.9953 28.4998 14.706C27.9585 14.4167 27.5338 13.9873 27.2258 13.418C26.9271 12.8487 26.7778 12.144 26.7778 11.304C26.7778 10.4827 26.9131 9.778 27.1838 9.19C27.4638 8.602 27.8511 8.14933 28.3458 7.832C28.8498 7.51467 29.4331 7.356 30.0958 7.356ZM30.0818 8.364C29.4938 8.364 29.0271 8.55533 28.6818 8.938C28.3458 9.31133 28.1451 9.834 28.0798 10.506H31.9018C31.8925 9.87133 31.7431 9.358 31.4538 8.966C31.1645 8.56467 30.7071 8.364 30.0818 8.364ZM38.6002 7.356C38.7402 7.356 38.8895 7.36533 39.0482 7.384C39.2068 7.39333 39.3515 7.412 39.4822 7.44L39.3282 8.574C39.2068 8.546 39.0715 8.52267 38.9222 8.504C38.7728 8.48533 38.6375 8.476 38.5162 8.476C38.1335 8.476 37.7742 8.58333 37.4382 8.798C37.1022 9.00333 36.8315 9.29733 36.6262 9.68C36.4302 10.0533 36.3322 10.492 36.3322 10.996V15H35.1002V7.496H36.1082L36.2482 8.868H36.3042C36.5375 8.45733 36.8455 8.10267 37.2282 7.804C37.6202 7.50533 38.0775 7.356 38.6002 7.356ZM45.7521 15H44.5201V4.36H45.7521V15ZM48.7595 4.682C48.9461 4.682 49.1095 4.74733 49.2495 4.878C49.3988 4.99933 49.4735 5.19533 49.4735 5.466C49.4735 5.73667 49.3988 5.93733 49.2495 6.068C49.1095 6.18933 48.9461 6.25 48.7595 6.25C48.5541 6.25 48.3815 6.18933 48.2415 6.068C48.1015 5.93733 48.0315 5.73667 48.0315 5.466C48.0315 5.19533 48.1015 4.99933 48.2415 4.878C48.3815 4.74733 48.5541 4.682 48.7595 4.682ZM49.3615 7.496V15H48.1295V7.496H49.3615ZM55.3508 7.356C56.2468 7.356 56.9235 7.57533 57.3808 8.014C57.8382 8.45267 58.0668 9.15267 58.0668 10.114V15H56.8488V10.198C56.8488 8.994 56.2888 8.392 55.1688 8.392C54.3382 8.392 53.7642 8.62533 53.4468 9.092C53.1295 9.55867 52.9708 10.2307 52.9708 11.108V15H51.7388V7.496H52.7328L52.9148 8.518H52.9848C53.2275 8.126 53.5635 7.83667 53.9928 7.65C54.4222 7.454 54.8748 7.356 55.3508 7.356ZM61.6111 4.36V9.918C61.6111 10.0673 61.6018 10.2633 61.5831 10.506C61.5738 10.7487 61.5645 10.9587 61.5551 11.136H61.6111C61.6671 11.0613 61.7511 10.954 61.8631 10.814C61.9751 10.674 62.0871 10.534 62.1991 10.394C62.3205 10.2447 62.4231 10.1233 62.5071 10.03L64.9011 7.496H66.3431L63.3051 10.702L66.5531 15H65.0691L62.4651 11.5L61.6111 12.242V15H60.3931V4.36H61.6111Z" fill="#125AB3"/>
</svg>
