<svg width="269" height="35" viewBox="0 0 269 35" fill="none" xmlns="http://www.w3.org/2000/svg">
<rect width="269" height="35" fill="white"/>
<path d="M110.32 23H109.06V18.338H103.936V23H102.676V13.004H103.936V17.232H109.06V13.004H110.32V23ZM119.409 19.234C119.409 20.4753 119.092 21.4367 118.457 22.118C117.832 22.7993 116.983 23.14 115.909 23.14C115.247 23.14 114.654 22.9907 114.131 22.692C113.618 22.384 113.212 21.9407 112.913 21.362C112.615 20.774 112.465 20.0647 112.465 19.234C112.465 17.9927 112.773 17.036 113.389 16.364C114.015 15.692 114.869 15.356 115.951 15.356C116.623 15.356 117.221 15.51 117.743 15.818C118.266 16.1167 118.672 16.5553 118.961 17.134C119.26 17.7033 119.409 18.4033 119.409 19.234ZM113.739 19.234C113.739 20.1207 113.912 20.8253 114.257 21.348C114.612 21.8613 115.172 22.118 115.937 22.118C116.693 22.118 117.249 21.8613 117.603 21.348C117.958 20.8253 118.135 20.1207 118.135 19.234C118.135 18.3473 117.958 17.652 117.603 17.148C117.249 16.644 116.689 16.392 115.923 16.392C115.158 16.392 114.603 16.644 114.257 17.148C113.912 17.652 113.739 18.3473 113.739 19.234ZM122.74 23L119.898 15.496H121.214L122.81 19.92C122.885 20.1253 122.964 20.354 123.048 20.606C123.132 20.858 123.207 21.1007 123.272 21.334C123.338 21.5673 123.384 21.7587 123.412 21.908H123.468C123.496 21.7587 123.548 21.5673 123.622 21.334C123.697 21.0913 123.776 20.8487 123.86 20.606C123.944 20.354 124.024 20.1253 124.098 19.92L125.694 15.496H127.01L124.154 23H122.74ZM131.096 15.356C131.73 15.356 132.281 15.496 132.748 15.776C133.214 16.056 133.569 16.4527 133.812 16.966C134.064 17.47 134.19 18.0627 134.19 18.744V19.486H129.052C129.07 20.3353 129.285 20.984 129.696 21.432C130.116 21.8707 130.699 22.09 131.446 22.09C131.922 22.09 132.342 22.048 132.706 21.964C133.079 21.8707 133.462 21.74 133.854 21.572V22.65C133.471 22.818 133.093 22.9393 132.72 23.014C132.346 23.098 131.903 23.14 131.39 23.14C130.671 23.14 130.041 22.9953 129.5 22.706C128.958 22.4167 128.534 21.9873 128.226 21.418C127.927 20.8487 127.778 20.144 127.778 19.304C127.778 18.4827 127.913 17.778 128.184 17.19C128.464 16.602 128.851 16.1493 129.346 15.832C129.85 15.5147 130.433 15.356 131.096 15.356ZM131.082 16.364C130.494 16.364 130.027 16.5553 129.682 16.938C129.346 17.3113 129.145 17.834 129.08 18.506H132.902C132.892 17.8713 132.743 17.358 132.454 16.966C132.164 16.5647 131.707 16.364 131.082 16.364ZM139.6 15.356C139.74 15.356 139.889 15.3653 140.048 15.384C140.207 15.3933 140.351 15.412 140.482 15.44L140.328 16.574C140.207 16.546 140.071 16.5227 139.922 16.504C139.773 16.4853 139.637 16.476 139.516 16.476C139.133 16.476 138.774 16.5833 138.438 16.798C138.102 17.0033 137.831 17.2973 137.626 17.68C137.43 18.0533 137.332 18.492 137.332 18.996V23H136.1V15.496H137.108L137.248 16.868H137.304C137.537 16.4573 137.845 16.1027 138.228 15.804C138.62 15.5053 139.077 15.356 139.6 15.356ZM146.752 23H145.52V12.36H146.752V23ZM149.759 12.682C149.946 12.682 150.109 12.7473 150.249 12.878C150.399 12.9993 150.473 13.1953 150.473 13.466C150.473 13.7367 150.399 13.9373 150.249 14.068C150.109 14.1893 149.946 14.25 149.759 14.25C149.554 14.25 149.381 14.1893 149.241 14.068C149.101 13.9373 149.031 13.7367 149.031 13.466C149.031 13.1953 149.101 12.9993 149.241 12.878C149.381 12.7473 149.554 12.682 149.759 12.682ZM150.361 15.496V23H149.129V15.496H150.361ZM156.351 15.356C157.247 15.356 157.923 15.5753 158.381 16.014C158.838 16.4527 159.067 17.1527 159.067 18.114V23H157.849V18.198C157.849 16.994 157.289 16.392 156.169 16.392C155.338 16.392 154.764 16.6253 154.447 17.092C154.129 17.5587 153.971 18.2307 153.971 19.108V23H152.739V15.496H153.733L153.915 16.518H153.985C154.227 16.126 154.563 15.8367 154.993 15.65C155.422 15.454 155.875 15.356 156.351 15.356ZM162.611 12.36V17.918C162.611 18.0673 162.602 18.2633 162.583 18.506C162.574 18.7487 162.564 18.9587 162.555 19.136H162.611C162.667 19.0613 162.751 18.954 162.863 18.814C162.975 18.674 163.087 18.534 163.199 18.394C163.32 18.2447 163.423 18.1233 163.507 18.03L165.901 15.496H167.343L164.305 18.702L167.553 23H166.069L163.465 19.5L162.611 20.242V23H161.393V12.36H162.611Z" fill="#155E8B"/>
</svg>
