<svg width="269" height="35" viewBox="0 0 269 35" fill="none" xmlns="http://www.w3.org/2000/svg">
<rect width="269" height="35" fill="white"/>
<path d="M108.454 23H107.194V18.338H102.07V23H100.81V13.004H102.07V17.232H107.194V13.004H108.454V23ZM117.543 19.234C117.543 20.4753 117.226 21.4367 116.591 22.118C115.966 22.7993 115.116 23.14 114.043 23.14C113.38 23.14 112.788 22.9907 112.265 22.692C111.752 22.384 111.346 21.9407 111.047 21.362C110.748 20.774 110.599 20.0647 110.599 19.234C110.599 17.9927 110.907 17.036 111.523 16.364C112.148 15.692 113.002 15.356 114.085 15.356C114.757 15.356 115.354 15.51 115.877 15.818C116.4 16.1167 116.806 16.5553 117.095 17.134C117.394 17.7033 117.543 18.4033 117.543 19.234ZM111.873 19.234C111.873 20.1207 112.046 20.8253 112.391 21.348C112.746 21.8613 113.306 22.118 114.071 22.118C114.827 22.118 115.382 21.8613 115.737 21.348C116.092 20.8253 116.269 20.1207 116.269 19.234C116.269 18.3473 116.092 17.652 115.737 17.148C115.382 16.644 114.822 16.392 114.057 16.392C113.292 16.392 112.736 16.644 112.391 17.148C112.046 17.652 111.873 18.3473 111.873 19.234ZM120.874 23L118.032 15.496H119.348L120.944 19.92C121.019 20.1253 121.098 20.354 121.182 20.606C121.266 20.858 121.341 21.1007 121.406 21.334C121.472 21.5673 121.518 21.7587 121.546 21.908H121.602C121.63 21.7587 121.682 21.5673 121.756 21.334C121.831 21.0913 121.91 20.8487 121.994 20.606C122.078 20.354 122.158 20.1253 122.232 19.92L123.828 15.496H125.144L122.288 23H120.874ZM129.23 15.356C129.864 15.356 130.415 15.496 130.882 15.776C131.348 16.056 131.703 16.4527 131.946 16.966C132.198 17.47 132.324 18.0627 132.324 18.744V19.486H127.186C127.204 20.3353 127.419 20.984 127.83 21.432C128.25 21.8707 128.833 22.09 129.58 22.09C130.056 22.09 130.476 22.048 130.84 21.964C131.213 21.8707 131.596 21.74 131.988 21.572V22.65C131.605 22.818 131.227 22.9393 130.854 23.014C130.48 23.098 130.037 23.14 129.524 23.14C128.805 23.14 128.175 22.9953 127.634 22.706C127.092 22.4167 126.668 21.9873 126.36 21.418C126.061 20.8487 125.912 20.144 125.912 19.304C125.912 18.4827 126.047 17.778 126.318 17.19C126.598 16.602 126.985 16.1493 127.48 15.832C127.984 15.5147 128.567 15.356 129.23 15.356ZM129.216 16.364C128.628 16.364 128.161 16.5553 127.816 16.938C127.48 17.3113 127.279 17.834 127.214 18.506H131.036C131.026 17.8713 130.877 17.358 130.588 16.966C130.298 16.5647 129.841 16.364 129.216 16.364ZM137.734 15.356C137.874 15.356 138.023 15.3653 138.182 15.384C138.341 15.3933 138.485 15.412 138.616 15.44L138.462 16.574C138.341 16.546 138.205 16.5227 138.056 16.504C137.907 16.4853 137.771 16.476 137.65 16.476C137.267 16.476 136.908 16.5833 136.572 16.798C136.236 17.0033 135.965 17.2973 135.76 17.68C135.564 18.0533 135.466 18.492 135.466 18.996V23H134.234V15.496H135.242L135.382 16.868H135.438C135.671 16.4573 135.979 16.1027 136.362 15.804C136.754 15.5053 137.211 15.356 137.734 15.356ZM143.822 23V13.004H145.082V21.88H149.45V23H143.822ZM151.626 12.682C151.812 12.682 151.976 12.7473 152.116 12.878C152.265 12.9993 152.34 13.1953 152.34 13.466C152.34 13.7367 152.265 13.9373 152.116 14.068C151.976 14.1893 151.812 14.25 151.626 14.25C151.42 14.25 151.248 14.1893 151.108 14.068C150.968 13.9373 150.898 13.7367 150.898 13.466C150.898 13.1953 150.968 12.9993 151.108 12.878C151.248 12.7473 151.42 12.682 151.626 12.682ZM152.228 15.496V23H150.996V15.496H152.228ZM158.217 15.356C159.113 15.356 159.79 15.5753 160.247 16.014C160.704 16.4527 160.933 17.1527 160.933 18.114V23H159.715V18.198C159.715 16.994 159.155 16.392 158.035 16.392C157.204 16.392 156.63 16.6253 156.313 17.092C155.996 17.5587 155.837 18.2307 155.837 19.108V23H154.605V15.496H155.599L155.781 16.518H155.851C156.094 16.126 156.43 15.8367 156.859 15.65C157.288 15.454 157.741 15.356 158.217 15.356ZM164.477 12.36V17.918C164.477 18.0673 164.468 18.2633 164.449 18.506C164.44 18.7487 164.431 18.9587 164.421 19.136H164.477C164.533 19.0613 164.617 18.954 164.729 18.814C164.841 18.674 164.953 18.534 165.065 18.394C165.187 18.2447 165.289 18.1233 165.373 18.03L167.767 15.496H169.209L166.171 18.702L169.419 23H167.935L165.331 19.5L164.477 20.242V23H163.259V12.36H164.477Z" fill="#155E8B"/>
<path d="M99.4521 24.75H169.545V25.45H99.4521V24.75Z" fill="#155E8B"/>
</svg>
