<svg width="88" height="19" viewBox="0 0 88 19" fill="none" xmlns="http://www.w3.org/2000/svg">
<path d="M9.4451 9.904C9.4451 11.5933 8.9831 12.8673 8.0591 13.726C7.14444 14.5753 5.86577 15 4.2231 15H1.4371V5.004H4.5171C5.51577 5.004 6.38377 5.19067 7.1211 5.564C7.86777 5.93733 8.44177 6.488 8.8431 7.216C9.24444 7.944 9.4451 8.84 9.4451 9.904ZM8.1151 9.946C8.1151 8.61133 7.78377 7.636 7.1211 7.02C6.46777 6.39467 5.5391 6.082 4.3351 6.082H2.6971V13.922H4.0551C6.76177 13.922 8.1151 12.5967 8.1151 9.946ZM12.1257 4.682C12.3123 4.682 12.4757 4.74733 12.6157 4.878C12.765 4.99933 12.8397 5.19533 12.8397 5.466C12.8397 5.73667 12.765 5.93733 12.6157 6.068C12.4757 6.18933 12.3123 6.25 12.1257 6.25C11.9203 6.25 11.7477 6.18933 11.6077 6.068C11.4677 5.93733 11.3977 5.73667 11.3977 5.466C11.3977 5.19533 11.4677 4.99933 11.6077 4.878C11.7477 4.74733 11.9203 4.682 12.1257 4.682ZM12.7277 7.496V15H11.4957V7.496H12.7277ZM19.991 12.928C19.991 13.656 19.7204 14.2067 19.179 14.58C18.6377 14.9533 17.9097 15.14 16.995 15.14C16.4724 15.14 16.0197 15.098 15.637 15.014C15.2637 14.93 14.9324 14.8133 14.643 14.664V13.544C14.9417 13.6933 15.301 13.8333 15.721 13.964C16.1504 14.0853 16.5844 14.146 17.023 14.146C17.6484 14.146 18.101 14.048 18.381 13.852C18.661 13.6467 18.801 13.376 18.801 13.04C18.801 12.8533 18.7497 12.6853 18.647 12.536C18.5444 12.3867 18.3577 12.2373 18.087 12.088C17.8257 11.9387 17.4477 11.7707 16.953 11.584C16.4677 11.3973 16.0524 11.2107 15.707 11.024C15.3617 10.8373 15.0957 10.6133 14.909 10.352C14.7224 10.0907 14.629 9.75467 14.629 9.344C14.629 8.70933 14.8857 8.21933 15.399 7.874C15.9217 7.52867 16.603 7.356 17.443 7.356C17.9004 7.356 18.325 7.40267 18.717 7.496C19.1184 7.58933 19.4917 7.71067 19.837 7.86L19.417 8.84C19.0997 8.70933 18.7684 8.59733 18.423 8.504C18.0777 8.41067 17.723 8.364 17.359 8.364C16.855 8.364 16.4677 8.448 16.197 8.616C15.9357 8.77467 15.805 8.994 15.805 9.274C15.805 9.48867 15.8657 9.666 15.987 9.806C16.1084 9.946 16.309 10.086 16.589 10.226C16.8784 10.366 17.261 10.5247 17.737 10.702C18.213 10.8793 18.619 11.0613 18.955 11.248C19.291 11.4347 19.5477 11.6633 19.725 11.934C19.9024 12.1953 19.991 12.5267 19.991 12.928ZM24.6463 7.37C25.5609 7.37 26.2376 7.57067 26.6763 7.972C27.1149 8.37333 27.3343 9.01267 27.3343 9.89V15H26.4383L26.2003 13.936H26.1443C25.8176 14.3467 25.4723 14.65 25.1083 14.846C24.7443 15.042 24.2496 15.14 23.6243 15.14C22.9429 15.14 22.3783 14.9627 21.9303 14.608C21.4823 14.244 21.2583 13.6793 21.2583 12.914C21.2583 12.1673 21.5523 11.5933 22.1403 11.192C22.7283 10.7813 23.6336 10.5573 24.8563 10.52L26.1303 10.478V10.03C26.1303 9.40467 25.9949 8.97067 25.7243 8.728C25.4536 8.48533 25.0709 8.364 24.5763 8.364C24.1843 8.364 23.8109 8.42467 23.4563 8.546C23.1016 8.658 22.7703 8.78867 22.4623 8.938L22.0843 8.014C22.4109 7.83667 22.7983 7.68733 23.2463 7.566C23.6943 7.43533 24.1609 7.37 24.6463 7.37ZM26.1163 11.332L25.0103 11.374C24.0769 11.4113 23.4283 11.5607 23.0643 11.822C22.7096 12.0833 22.5323 12.452 22.5323 12.928C22.5323 13.348 22.6583 13.656 22.9103 13.852C23.1716 14.048 23.5029 14.146 23.9043 14.146C24.5296 14.146 25.0523 13.9733 25.4723 13.628C25.9016 13.2733 26.1163 12.732 26.1163 12.004V11.332ZM30.8839 4.36V6.95C30.8839 7.26733 30.8746 7.566 30.8559 7.846C30.8466 8.11667 30.8326 8.33133 30.8139 8.49H30.8839C31.0986 8.17267 31.3926 7.90667 31.7659 7.692C32.1392 7.47733 32.6199 7.37 33.2079 7.37C34.1412 7.37 34.8879 7.69667 35.4479 8.35C36.0172 8.994 36.3019 9.96 36.3019 11.248C36.3019 12.536 36.0172 13.5067 35.4479 14.16C34.8786 14.8133 34.1319 15.14 33.2079 15.14C32.6199 15.14 32.1392 15.0327 31.7659 14.818C31.3926 14.6033 31.0986 14.3467 30.8839 14.048H30.7859L30.5339 15H29.6519V4.36H30.8839ZM32.9979 8.392C32.1952 8.392 31.6399 8.62067 31.3319 9.078C31.0332 9.53533 30.8839 10.2447 30.8839 11.206V11.262C30.8839 12.186 31.0332 12.8953 31.3319 13.39C31.6399 13.8753 32.2046 14.118 33.0259 14.118C33.6979 14.118 34.1972 13.8707 34.5239 13.376C34.8599 12.8813 35.0279 12.1673 35.0279 11.234C35.0279 9.33933 34.3512 8.392 32.9979 8.392ZM39.4972 15H38.2652V4.36H39.4972V15ZM44.7726 7.356C45.4072 7.356 45.9579 7.496 46.4246 7.776C46.8912 8.056 47.2459 8.45267 47.4886 8.966C47.7406 9.47 47.8666 10.0627 47.8666 10.744V11.486H42.7286C42.7472 12.3353 42.9619 12.984 43.3726 13.432C43.7926 13.8707 44.3759 14.09 45.1226 14.09C45.5986 14.09 46.0186 14.048 46.3826 13.964C46.7559 13.8707 47.1386 13.74 47.5306 13.572V14.65C47.1479 14.818 46.7699 14.9393 46.3966 15.014C46.0232 15.098 45.5799 15.14 45.0666 15.14C44.3479 15.14 43.7179 14.9953 43.1766 14.706C42.6352 14.4167 42.2106 13.9873 41.9026 13.418C41.6039 12.8487 41.4546 12.144 41.4546 11.304C41.4546 10.4827 41.5899 9.778 41.8606 9.19C42.1406 8.602 42.5279 8.14933 43.0226 7.832C43.5266 7.51467 44.1099 7.356 44.7726 7.356ZM44.7586 8.364C44.1706 8.364 43.7039 8.55533 43.3586 8.938C43.0226 9.31133 42.8219 9.834 42.7566 10.506H46.5786C46.5692 9.87133 46.4199 9.358 46.1306 8.966C45.8412 8.56467 45.3839 8.364 44.7586 8.364ZM52.4369 15.14C51.5036 15.14 50.7569 14.818 50.1969 14.174C49.6369 13.5207 49.3569 12.55 49.3569 11.262C49.3569 9.974 49.6369 9.00333 50.1969 8.35C50.7662 7.68733 51.5176 7.356 52.4509 7.356C53.0296 7.356 53.5009 7.46333 53.8649 7.678C54.2382 7.89267 54.5416 8.154 54.7749 8.462H54.8589C54.8402 8.34067 54.8216 8.16333 54.8029 7.93C54.7842 7.68733 54.7749 7.496 54.7749 7.356V4.36H56.0069V15H55.0129L54.8309 13.992H54.7749C54.5509 14.3093 54.2522 14.58 53.8789 14.804C53.5056 15.028 53.0249 15.14 52.4369 15.14ZM52.6329 14.118C53.4262 14.118 53.9816 13.9033 54.2989 13.474C54.6256 13.0353 54.7889 12.3773 54.7889 11.5V11.276C54.7889 10.3427 54.6349 9.62867 54.3269 9.134C54.0189 8.63 53.4496 8.378 52.6189 8.378C51.9562 8.378 51.4569 8.644 51.1209 9.176C50.7942 9.69867 50.6309 10.4033 50.6309 11.29C50.6309 12.186 50.7942 12.8813 51.1209 13.376C51.4569 13.8707 51.9609 14.118 52.6329 14.118ZM62.1949 15V5.004H63.4549V13.88H67.8229V15H62.1949ZM69.9987 4.682C70.1854 4.682 70.3487 4.74733 70.4887 4.878C70.638 4.99933 70.7127 5.19533 70.7127 5.466C70.7127 5.73667 70.638 5.93733 70.4887 6.068C70.3487 6.18933 70.1854 6.25 69.9987 6.25C69.7934 6.25 69.6207 6.18933 69.4807 6.068C69.3407 5.93733 69.2707 5.73667 69.2707 5.466C69.2707 5.19533 69.3407 4.99933 69.4807 4.878C69.6207 4.74733 69.7934 4.682 69.9987 4.682ZM70.6007 7.496V15H69.3687V7.496H70.6007ZM76.5901 7.356C77.4861 7.356 78.1628 7.57533 78.6201 8.014C79.0774 8.45267 79.3061 9.15267 79.3061 10.114V15H78.0881V10.198C78.0881 8.994 77.5281 8.392 76.4081 8.392C75.5774 8.392 75.0034 8.62533 74.6861 9.092C74.3688 9.55867 74.2101 10.2307 74.2101 11.108V15H72.9781V7.496H73.9721L74.1541 8.518H74.2241C74.4668 8.126 74.8028 7.83667 75.2321 7.65C75.6614 7.454 76.1141 7.356 76.5901 7.356ZM82.8504 4.36V9.918C82.8504 10.0673 82.841 10.2633 82.8224 10.506C82.813 10.7487 82.8037 10.9587 82.7944 11.136H82.8504C82.9064 11.0613 82.9904 10.954 83.1024 10.814C83.2144 10.674 83.3264 10.534 83.4384 10.394C83.5597 10.2447 83.6624 10.1233 83.7464 10.03L86.1404 7.496H87.5824L84.5444 10.702L87.7924 15H86.3084L83.7044 11.5L82.8504 12.242V15H81.6324V4.36H82.8504Z" fill="#939393"/>
</svg>
