<svg width="269" height="35" viewBox="0 0 269 35" fill="none" xmlns="http://www.w3.org/2000/svg">
<rect width="269" height="35" fill="white"/>
<path d="M101.811 17.904C101.811 19.5933 101.349 20.8673 100.425 21.726C99.5106 22.5753 98.232 23 96.5893 23H93.8033V13.004H96.8833C97.882 13.004 98.75 13.1907 99.4873 13.564C100.234 13.9373 100.808 14.488 101.209 15.216C101.611 15.944 101.811 16.84 101.811 17.904ZM100.481 17.946C100.481 16.6113 100.15 15.636 99.4873 15.02C98.834 14.3947 97.9053 14.082 96.7013 14.082H95.0633V21.922H96.4213C99.128 21.922 100.481 20.5967 100.481 17.946ZM104.492 12.682C104.679 12.682 104.842 12.7473 104.982 12.878C105.131 12.9993 105.206 13.1953 105.206 13.466C105.206 13.7367 105.131 13.9373 104.982 14.068C104.842 14.1893 104.679 14.25 104.492 14.25C104.287 14.25 104.114 14.1893 103.974 14.068C103.834 13.9373 103.764 13.7367 103.764 13.466C103.764 13.1953 103.834 12.9993 103.974 12.878C104.114 12.7473 104.287 12.682 104.492 12.682ZM105.094 15.496V23H103.862V15.496H105.094ZM112.357 20.928C112.357 21.656 112.087 22.2067 111.545 22.58C111.004 22.9533 110.276 23.14 109.361 23.14C108.839 23.14 108.386 23.098 108.003 23.014C107.63 22.93 107.299 22.8133 107.009 22.664V21.544C107.308 21.6933 107.667 21.8333 108.087 21.964C108.517 22.0853 108.951 22.146 109.389 22.146C110.015 22.146 110.467 22.048 110.747 21.852C111.027 21.6467 111.167 21.376 111.167 21.04C111.167 20.8533 111.116 20.6853 111.013 20.536C110.911 20.3867 110.724 20.2373 110.453 20.088C110.192 19.9387 109.814 19.7707 109.319 19.584C108.834 19.3973 108.419 19.2107 108.073 19.024C107.728 18.8373 107.462 18.6133 107.275 18.352C107.089 18.0907 106.995 17.7547 106.995 17.344C106.995 16.7093 107.252 16.2193 107.765 15.874C108.288 15.5287 108.969 15.356 109.809 15.356C110.267 15.356 110.691 15.4027 111.083 15.496C111.485 15.5893 111.858 15.7107 112.203 15.86L111.783 16.84C111.466 16.7093 111.135 16.5973 110.789 16.504C110.444 16.4107 110.089 16.364 109.725 16.364C109.221 16.364 108.834 16.448 108.563 16.616C108.302 16.7747 108.171 16.994 108.171 17.274C108.171 17.4887 108.232 17.666 108.353 17.806C108.475 17.946 108.675 18.086 108.955 18.226C109.245 18.366 109.627 18.5247 110.103 18.702C110.579 18.8793 110.985 19.0613 111.321 19.248C111.657 19.4347 111.914 19.6633 112.091 19.934C112.269 20.1953 112.357 20.5267 112.357 20.928ZM117.012 15.37C117.927 15.37 118.604 15.5707 119.042 15.972C119.481 16.3733 119.7 17.0127 119.7 17.89V23H118.804L118.566 21.936H118.51C118.184 22.3467 117.838 22.65 117.474 22.846C117.11 23.042 116.616 23.14 115.99 23.14C115.309 23.14 114.744 22.9627 114.296 22.608C113.848 22.244 113.624 21.6793 113.624 20.914C113.624 20.1673 113.918 19.5933 114.506 19.192C115.094 18.7813 116 18.5573 117.222 18.52L118.496 18.478V18.03C118.496 17.4047 118.361 16.9707 118.09 16.728C117.82 16.4853 117.437 16.364 116.942 16.364C116.55 16.364 116.177 16.4247 115.822 16.546C115.468 16.658 115.136 16.7887 114.828 16.938L114.45 16.014C114.777 15.8367 115.164 15.6873 115.612 15.566C116.06 15.4353 116.527 15.37 117.012 15.37ZM118.482 19.332L117.376 19.374C116.443 19.4113 115.794 19.5607 115.43 19.822C115.076 20.0833 114.898 20.452 114.898 20.928C114.898 21.348 115.024 21.656 115.276 21.852C115.538 22.048 115.869 22.146 116.27 22.146C116.896 22.146 117.418 21.9733 117.838 21.628C118.268 21.2733 118.482 20.732 118.482 20.004V19.332ZM123.25 12.36V14.95C123.25 15.2673 123.241 15.566 123.222 15.846C123.213 16.1167 123.199 16.3313 123.18 16.49H123.25C123.465 16.1727 123.759 15.9067 124.132 15.692C124.505 15.4773 124.986 15.37 125.574 15.37C126.507 15.37 127.254 15.6967 127.814 16.35C128.383 16.994 128.668 17.96 128.668 19.248C128.668 20.536 128.383 21.5067 127.814 22.16C127.245 22.8133 126.498 23.14 125.574 23.14C124.986 23.14 124.505 23.0327 124.132 22.818C123.759 22.6033 123.465 22.3467 123.25 22.048H123.152L122.9 23H122.018V12.36H123.25ZM125.364 16.392C124.561 16.392 124.006 16.6207 123.698 17.078C123.399 17.5353 123.25 18.2447 123.25 19.206V19.262C123.25 20.186 123.399 20.8953 123.698 21.39C124.006 21.8753 124.571 22.118 125.392 22.118C126.064 22.118 126.563 21.8707 126.89 21.376C127.226 20.8813 127.394 20.1673 127.394 19.234C127.394 17.3393 126.717 16.392 125.364 16.392ZM131.863 23H130.631V12.36H131.863V23ZM137.139 15.356C137.773 15.356 138.324 15.496 138.791 15.776C139.257 16.056 139.612 16.4527 139.855 16.966C140.107 17.47 140.233 18.0627 140.233 18.744V19.486H135.095C135.113 20.3353 135.328 20.984 135.739 21.432C136.159 21.8707 136.742 22.09 137.489 22.09C137.965 22.09 138.385 22.048 138.749 21.964C139.122 21.8707 139.505 21.74 139.897 21.572V22.65C139.514 22.818 139.136 22.9393 138.763 23.014C138.389 23.098 137.946 23.14 137.433 23.14C136.714 23.14 136.084 22.9953 135.543 22.706C135.001 22.4167 134.577 21.9873 134.269 21.418C133.97 20.8487 133.821 20.144 133.821 19.304C133.821 18.4827 133.956 17.778 134.227 17.19C134.507 16.602 134.894 16.1493 135.389 15.832C135.893 15.5147 136.476 15.356 137.139 15.356ZM137.125 16.364C136.537 16.364 136.07 16.5553 135.725 16.938C135.389 17.3113 135.188 17.834 135.123 18.506H138.945C138.935 17.8713 138.786 17.358 138.497 16.966C138.207 16.5647 137.75 16.364 137.125 16.364ZM144.803 23.14C143.87 23.14 143.123 22.818 142.563 22.174C142.003 21.5207 141.723 20.55 141.723 19.262C141.723 17.974 142.003 17.0033 142.563 16.35C143.132 15.6873 143.884 15.356 144.817 15.356C145.396 15.356 145.867 15.4633 146.231 15.678C146.604 15.8927 146.908 16.154 147.141 16.462H147.225C147.206 16.3407 147.188 16.1633 147.169 15.93C147.15 15.6873 147.141 15.496 147.141 15.356V12.36H148.373V23H147.379L147.197 21.992H147.141C146.917 22.3093 146.618 22.58 146.245 22.804C145.872 23.028 145.391 23.14 144.803 23.14ZM144.999 22.118C145.792 22.118 146.348 21.9033 146.665 21.474C146.992 21.0353 147.155 20.3773 147.155 19.5V19.276C147.155 18.3427 147.001 17.6287 146.693 17.134C146.385 16.63 145.816 16.378 144.985 16.378C144.322 16.378 143.823 16.644 143.487 17.176C143.16 17.6987 142.997 18.4033 142.997 19.29C142.997 20.186 143.16 20.8813 143.487 21.376C143.823 21.8707 144.327 22.118 144.999 22.118ZM155.625 23H154.393V12.36H155.625V23ZM158.633 12.682C158.819 12.682 158.983 12.7473 159.123 12.878C159.272 12.9993 159.347 13.1953 159.347 13.466C159.347 13.7367 159.272 13.9373 159.123 14.068C158.983 14.1893 158.819 14.25 158.633 14.25C158.427 14.25 158.255 14.1893 158.115 14.068C157.975 13.9373 157.905 13.7367 157.905 13.466C157.905 13.1953 157.975 12.9993 158.115 12.878C158.255 12.7473 158.427 12.682 158.633 12.682ZM159.235 15.496V23H158.003V15.496H159.235ZM165.224 15.356C166.12 15.356 166.797 15.5753 167.254 16.014C167.711 16.4527 167.94 17.1527 167.94 18.114V23H166.722V18.198C166.722 16.994 166.162 16.392 165.042 16.392C164.211 16.392 163.637 16.6253 163.32 17.092C163.003 17.5587 162.844 18.2307 162.844 19.108V23H161.612V15.496H162.606L162.788 16.518H162.858C163.101 16.126 163.437 15.8367 163.866 15.65C164.295 15.454 164.748 15.356 165.224 15.356ZM171.484 12.36V17.918C171.484 18.0673 171.475 18.2633 171.456 18.506C171.447 18.7487 171.438 18.9587 171.428 19.136H171.484C171.54 19.0613 171.624 18.954 171.736 18.814C171.848 18.674 171.96 18.534 172.072 18.394C172.194 18.2447 172.296 18.1233 172.38 18.03L174.774 15.496H176.216L173.178 18.702L176.426 23H174.942L172.338 19.5L171.484 20.242V23H170.266V12.36H171.484Z" fill="#939393"/>
<path d="M92.4453 24.75H176.552V25.45H92.4453V24.75Z" fill="#939393"/>
</svg>
