<svg width="269" height="35" viewBox="0 0 269 35" fill="none" xmlns="http://www.w3.org/2000/svg">
<rect width="269" height="35" fill="white"/>
<path d="M99.9451 17.904C99.9451 19.5933 99.4831 20.8673 98.5591 21.726C97.6444 22.5753 96.3658 23 94.7231 23H91.9371V13.004H95.0171C96.0158 13.004 96.8838 13.1907 97.6211 13.564C98.3678 13.9373 98.9418 14.488 99.3431 15.216C99.7444 15.944 99.9451 16.84 99.9451 17.904ZM98.6151 17.946C98.6151 16.6113 98.2838 15.636 97.6211 15.02C96.9678 14.3947 96.0391 14.082 94.8351 14.082H93.1971V21.922H94.5551C97.2618 21.922 98.6151 20.5967 98.6151 17.946ZM102.626 12.682C102.812 12.682 102.976 12.7473 103.116 12.878C103.265 12.9993 103.34 13.1953 103.34 13.466C103.34 13.7367 103.265 13.9373 103.116 14.068C102.976 14.1893 102.812 14.25 102.626 14.25C102.42 14.25 102.248 14.1893 102.108 14.068C101.968 13.9373 101.898 13.7367 101.898 13.466C101.898 13.1953 101.968 12.9993 102.108 12.878C102.248 12.7473 102.42 12.682 102.626 12.682ZM103.228 15.496V23H101.996V15.496H103.228ZM110.491 20.928C110.491 21.656 110.22 22.2067 109.679 22.58C109.138 22.9533 108.41 23.14 107.495 23.14C106.972 23.14 106.52 23.098 106.137 23.014C105.764 22.93 105.432 22.8133 105.143 22.664V21.544C105.442 21.6933 105.801 21.8333 106.221 21.964C106.65 22.0853 107.084 22.146 107.523 22.146C108.148 22.146 108.601 22.048 108.881 21.852C109.161 21.6467 109.301 21.376 109.301 21.04C109.301 20.8533 109.25 20.6853 109.147 20.536C109.044 20.3867 108.858 20.2373 108.587 20.088C108.326 19.9387 107.948 19.7707 107.453 19.584C106.968 19.3973 106.552 19.2107 106.207 19.024C105.862 18.8373 105.596 18.6133 105.409 18.352C105.222 18.0907 105.129 17.7547 105.129 17.344C105.129 16.7093 105.386 16.2193 105.899 15.874C106.422 15.5287 107.103 15.356 107.943 15.356C108.4 15.356 108.825 15.4027 109.217 15.496C109.618 15.5893 109.992 15.7107 110.337 15.86L109.917 16.84C109.6 16.7093 109.268 16.5973 108.923 16.504C108.578 16.4107 108.223 16.364 107.859 16.364C107.355 16.364 106.968 16.448 106.697 16.616C106.436 16.7747 106.305 16.994 106.305 17.274C106.305 17.4887 106.366 17.666 106.487 17.806C106.608 17.946 106.809 18.086 107.089 18.226C107.378 18.366 107.761 18.5247 108.237 18.702C108.713 18.8793 109.119 19.0613 109.455 19.248C109.791 19.4347 110.048 19.6633 110.225 19.934C110.402 20.1953 110.491 20.5267 110.491 20.928ZM115.146 15.37C116.061 15.37 116.738 15.5707 117.176 15.972C117.615 16.3733 117.834 17.0127 117.834 17.89V23H116.938L116.7 21.936H116.644C116.318 22.3467 115.972 22.65 115.608 22.846C115.244 23.042 114.75 23.14 114.124 23.14C113.443 23.14 112.878 22.9627 112.43 22.608C111.982 22.244 111.758 21.6793 111.758 20.914C111.758 20.1673 112.052 19.5933 112.64 19.192C113.228 18.7813 114.134 18.5573 115.356 18.52L116.63 18.478V18.03C116.63 17.4047 116.495 16.9707 116.224 16.728C115.954 16.4853 115.571 16.364 115.076 16.364C114.684 16.364 114.311 16.4247 113.956 16.546C113.602 16.658 113.27 16.7887 112.962 16.938L112.584 16.014C112.911 15.8367 113.298 15.6873 113.746 15.566C114.194 15.4353 114.661 15.37 115.146 15.37ZM116.616 19.332L115.51 19.374C114.577 19.4113 113.928 19.5607 113.564 19.822C113.21 20.0833 113.032 20.452 113.032 20.928C113.032 21.348 113.158 21.656 113.41 21.852C113.672 22.048 114.003 22.146 114.404 22.146C115.03 22.146 115.552 21.9733 115.972 21.628C116.402 21.2733 116.616 20.732 116.616 20.004V19.332ZM121.384 12.36V14.95C121.384 15.2673 121.375 15.566 121.356 15.846C121.347 16.1167 121.333 16.3313 121.314 16.49H121.384C121.599 16.1727 121.893 15.9067 122.266 15.692C122.639 15.4773 123.12 15.37 123.708 15.37C124.641 15.37 125.388 15.6967 125.948 16.35C126.517 16.994 126.802 17.96 126.802 19.248C126.802 20.536 126.517 21.5067 125.948 22.16C125.379 22.8133 124.632 23.14 123.708 23.14C123.12 23.14 122.639 23.0327 122.266 22.818C121.893 22.6033 121.599 22.3467 121.384 22.048H121.286L121.034 23H120.152V12.36H121.384ZM123.498 16.392C122.695 16.392 122.14 16.6207 121.832 17.078C121.533 17.5353 121.384 18.2447 121.384 19.206V19.262C121.384 20.186 121.533 20.8953 121.832 21.39C122.14 21.8753 122.705 22.118 123.526 22.118C124.198 22.118 124.697 21.8707 125.024 21.376C125.36 20.8813 125.528 20.1673 125.528 19.234C125.528 17.3393 124.851 16.392 123.498 16.392ZM129.997 23H128.765V12.36H129.997V23ZM135.273 15.356C135.907 15.356 136.458 15.496 136.925 15.776C137.391 16.056 137.746 16.4527 137.989 16.966C138.241 17.47 138.367 18.0627 138.367 18.744V19.486H133.229C133.247 20.3353 133.462 20.984 133.873 21.432C134.293 21.8707 134.876 22.09 135.623 22.09C136.099 22.09 136.519 22.048 136.883 21.964C137.256 21.8707 137.639 21.74 138.031 21.572V22.65C137.648 22.818 137.27 22.9393 136.897 23.014C136.523 23.098 136.08 23.14 135.567 23.14C134.848 23.14 134.218 22.9953 133.677 22.706C133.135 22.4167 132.711 21.9873 132.403 21.418C132.104 20.8487 131.955 20.144 131.955 19.304C131.955 18.4827 132.09 17.778 132.361 17.19C132.641 16.602 133.028 16.1493 133.523 15.832C134.027 15.5147 134.61 15.356 135.273 15.356ZM135.259 16.364C134.671 16.364 134.204 16.5553 133.859 16.938C133.523 17.3113 133.322 17.834 133.257 18.506H137.079C137.069 17.8713 136.92 17.358 136.631 16.966C136.341 16.5647 135.884 16.364 135.259 16.364ZM142.937 23.14C142.004 23.14 141.257 22.818 140.697 22.174C140.137 21.5207 139.857 20.55 139.857 19.262C139.857 17.974 140.137 17.0033 140.697 16.35C141.266 15.6873 142.018 15.356 142.951 15.356C143.53 15.356 144.001 15.4633 144.365 15.678C144.738 15.8927 145.042 16.154 145.275 16.462H145.359C145.34 16.3407 145.322 16.1633 145.303 15.93C145.284 15.6873 145.275 15.496 145.275 15.356V12.36H146.507V23H145.513L145.331 21.992H145.275C145.051 22.3093 144.752 22.58 144.379 22.804C144.006 23.028 143.525 23.14 142.937 23.14ZM143.133 22.118C143.926 22.118 144.482 21.9033 144.799 21.474C145.126 21.0353 145.289 20.3773 145.289 19.5V19.276C145.289 18.3427 145.135 17.6287 144.827 17.134C144.519 16.63 143.95 16.378 143.119 16.378C142.456 16.378 141.957 16.644 141.621 17.176C141.294 17.6987 141.131 18.4033 141.131 19.29C141.131 20.186 141.294 20.8813 141.621 21.376C141.957 21.8707 142.461 22.118 143.133 22.118ZM152.695 23V13.004H153.955V21.88H158.323V23H152.695ZM160.499 12.682C160.685 12.682 160.849 12.7473 160.989 12.878C161.138 12.9993 161.213 13.1953 161.213 13.466C161.213 13.7367 161.138 13.9373 160.989 14.068C160.849 14.1893 160.685 14.25 160.499 14.25C160.293 14.25 160.121 14.1893 159.981 14.068C159.841 13.9373 159.771 13.7367 159.771 13.466C159.771 13.1953 159.841 12.9993 159.981 12.878C160.121 12.7473 160.293 12.682 160.499 12.682ZM161.101 15.496V23H159.869V15.496H161.101ZM167.09 15.356C167.986 15.356 168.663 15.5753 169.12 16.014C169.577 16.4527 169.806 17.1527 169.806 18.114V23H168.588V18.198C168.588 16.994 168.028 16.392 166.908 16.392C166.077 16.392 165.503 16.6253 165.186 17.092C164.869 17.5587 164.71 18.2307 164.71 19.108V23H163.478V15.496H164.472L164.654 16.518H164.724C164.967 16.126 165.303 15.8367 165.732 15.65C166.161 15.454 166.614 15.356 167.09 15.356ZM173.35 12.36V17.918C173.35 18.0673 173.341 18.2633 173.322 18.506C173.313 18.7487 173.304 18.9587 173.294 19.136H173.35C173.406 19.0613 173.49 18.954 173.602 18.814C173.714 18.674 173.826 18.534 173.938 18.394C174.06 18.2447 174.162 18.1233 174.246 18.03L176.64 15.496H178.082L175.044 18.702L178.292 23H176.808L174.204 19.5L173.35 20.242V23H172.132V12.36H173.35Z" fill="#939393"/>
</svg>
