<svg width="412" height="292" viewBox="0 0 412 292" fill="none" xmlns="http://www.w3.org/2000/svg">
<rect width="412" height="292" fill="white"/>
<g filter="url(#filter0_d_10224_39194)">
<mask id="path-1-inside-1_10224_39194" fill="white">
<path d="M30 44C30 41.7909 31.7909 40 34 40H378C380.209 40 382 41.7909 382 44V138C382 140.209 380.209 142 378 142H34C31.7909 142 30 140.209 30 138V44Z"/>
</mask>
<path d="M30 44C30 41.7909 31.7909 40 34 40H378C380.209 40 382 41.7909 382 44V138C382 140.209 380.209 142 378 142H34C31.7909 142 30 140.209 30 138V44Z" fill="#FEF6F6"/>
<path d="M29 39C29 36.2386 31.2386 34 34 34H378C380.761 34 383 36.2386 383 39L381 46C381 46 379.657 46 378 46H34C32.3431 46 31 46 31 46L29 39ZM383 138C383 140.761 380.761 143 378 143H34C31.2386 143 29 140.761 29 138H31C31 139.657 32.3431 141 34 141H378C379.657 141 381 139.657 381 138H383ZM34 143C31.2386 143 29 140.761 29 138V39C29 36.2386 31.2386 34 34 34V46C32.3431 46 31 46 31 46V138C31 139.657 32.3431 141 34 141V143ZM378 34C380.761 34 383 36.2386 383 39V138C383 140.761 380.761 143 378 143V141C379.657 141 381 139.657 381 138V46C381 46 379.657 46 378 46V34Z" fill="#DA291C" mask="url(#path-1-inside-1_10224_39194)"/>
<path d="M61.25 79.06V71.35C61.25 71.1511 61.329 70.9603 61.4697 70.8197C61.6103 70.679 61.8011 70.6 62 70.6C62.1989 70.6 62.3897 70.679 62.5303 70.8197C62.671 70.9603 62.75 71.1511 62.75 71.35V79.06C62.75 79.2589 62.671 79.4497 62.5303 79.5903C62.3897 79.731 62.1989 79.81 62 79.81C61.8011 79.81 61.6103 79.731 61.4697 79.5903C61.329 79.4497 61.25 79.2589 61.25 79.06ZM74.8 80.89L64.89 90.8C64.511 91.1804 64.0606 91.4822 63.5646 91.6881C63.0687 91.894 62.537 92 62 92C61.463 92 60.9313 91.894 60.4354 91.6881C59.9395 91.4822 59.4891 91.1804 59.11 90.8L49.2 80.89C48.8197 80.511 48.5179 80.0606 48.3119 79.5646C48.106 79.0687 48 78.537 48 78C48 77.463 48.106 76.9313 48.3119 76.4354C48.5179 75.9395 48.8197 75.4891 49.2 75.11L59.11 65.2C59.4891 64.8197 59.9395 64.5179 60.4354 64.3119C60.9313 64.106 61.463 64 62 64C62.537 64 63.0687 64.106 63.5646 64.3119C64.0606 64.5179 64.511 64.8197 64.89 65.2L74.8 75.11C75.1804 75.4891 75.4822 75.9395 75.6881 76.4354C75.894 76.9313 76 77.463 76 78C76 78.537 75.894 79.0687 75.6881 79.5646C75.4822 80.0606 75.1804 80.511 74.8 80.89ZM73.74 76.17L63.83 66.26C63.5902 66.0187 63.3051 65.8273 62.991 65.6966C62.677 65.5659 62.3402 65.4987 62 65.4987C61.6599 65.4987 61.3231 65.5659 61.009 65.6966C60.6949 65.8273 60.4098 66.0187 60.17 66.26L50.26 76.17C49.7752 76.6556 49.5028 77.3138 49.5028 78C49.5028 78.6862 49.7752 79.3444 50.26 79.83L60.17 89.74C60.663 90.2107 61.3184 90.4734 62 90.4734C62.6816 90.4734 63.337 90.2107 63.83 89.74L73.74 79.83C74.2249 79.3444 74.4972 78.6862 74.4972 78C74.4972 77.3138 74.2249 76.6556 73.74 76.17ZM62 82.05C61.7429 82.05 61.4916 82.1263 61.2778 82.2691C61.064 82.412 60.8974 82.615 60.799 82.8525C60.7006 83.0901 60.6748 83.3515 60.725 83.6036C60.7752 83.8558 60.899 84.0874 61.0808 84.2693C61.2626 84.4511 61.4942 84.5749 61.7464 84.625C61.9986 84.6752 62.26 84.6495 62.4975 84.5511C62.735 84.4527 62.9381 84.286 63.0809 84.0723C63.2238 83.8585 63.3 83.6071 63.3 83.35C63.3 83.1793 63.2664 83.0103 63.2011 82.8525C63.1357 82.6948 63.04 82.5515 62.9193 82.4308C62.7985 82.3101 62.6552 82.2143 62.4975 82.149C62.3398 82.0836 62.1707 82.05 62 82.05Z" fill="#B51418"/>
<path d="M100.276 70.704C100.276 71.632 100.18 72.424 99.988 73.08C99.796 73.736 99.488 74.24 99.064 74.592C98.648 74.944 98.1 75.12 97.42 75.12C96.452 75.12 95.736 74.732 95.272 73.956C94.816 73.172 94.588 72.088 94.588 70.704C94.588 69.776 94.68 68.984 94.864 68.328C95.056 67.672 95.36 67.172 95.776 66.828C96.192 66.476 96.74 66.3 97.42 66.3C98.38 66.3 99.096 66.688 99.568 67.464C100.04 68.232 100.276 69.312 100.276 70.704ZM95.644 70.704C95.644 71.88 95.776 72.76 96.04 73.344C96.312 73.928 96.772 74.22 97.42 74.22C98.06 74.22 98.516 73.932 98.788 73.356C99.068 72.772 99.208 71.888 99.208 70.704C99.208 69.536 99.068 68.66 98.788 68.076C98.516 67.492 98.06 67.2 97.42 67.2C96.772 67.2 96.312 67.492 96.04 68.076C95.776 68.66 95.644 69.536 95.644 70.704ZM101.527 71.34C101.527 70.724 101.579 70.12 101.683 69.528C101.795 68.928 101.991 68.388 102.271 67.908C102.559 67.42 102.959 67.032 103.471 66.744C103.983 66.456 104.643 66.312 105.451 66.312C105.619 66.312 105.803 66.32 106.003 66.336C106.211 66.352 106.379 66.38 106.507 66.42V67.32C106.363 67.272 106.199 67.236 106.015 67.212C105.831 67.188 105.651 67.176 105.475 67.176C104.923 67.176 104.463 67.268 104.095 67.452C103.727 67.636 103.435 67.888 103.219 68.208C103.011 68.528 102.859 68.896 102.763 69.312C102.667 69.728 102.607 70.172 102.583 70.644H102.655C102.839 70.364 103.095 70.128 103.423 69.936C103.751 69.736 104.171 69.636 104.683 69.636C105.427 69.636 106.027 69.864 106.483 70.32C106.939 70.768 107.167 71.408 107.167 72.24C107.167 73.136 106.919 73.84 106.423 74.352C105.935 74.864 105.275 75.12 104.443 75.12C103.899 75.12 103.407 74.984 102.967 74.712C102.527 74.44 102.175 74.024 101.911 73.464C101.655 72.904 101.527 72.196 101.527 71.34ZM104.431 74.232C104.935 74.232 105.343 74.072 105.655 73.752C105.967 73.424 106.123 72.92 106.123 72.24C106.123 71.696 105.983 71.264 105.703 70.944C105.431 70.624 105.019 70.464 104.467 70.464C104.091 70.464 103.763 70.544 103.483 70.704C103.203 70.856 102.983 71.056 102.823 71.304C102.671 71.544 102.595 71.788 102.595 72.036C102.595 72.38 102.663 72.724 102.799 73.068C102.935 73.404 103.139 73.684 103.411 73.908C103.683 74.124 104.023 74.232 104.431 74.232ZM112.078 66.432L108.886 75H107.854L111.046 66.432H112.078ZM116.459 75H115.427V69.012C115.427 68.668 115.431 68.392 115.439 68.184C115.447 67.976 115.459 67.76 115.475 67.536C115.347 67.664 115.227 67.772 115.115 67.86C115.011 67.948 114.883 68.06 114.731 68.196L113.819 68.94L113.267 68.232L115.583 66.432H116.459V75ZM125.306 75H119.642V74.124L121.886 71.856C122.31 71.424 122.67 71.04 122.966 70.704C123.27 70.368 123.498 70.04 123.65 69.72C123.802 69.4 123.878 69.044 123.878 68.652C123.878 68.18 123.738 67.824 123.458 67.584C123.178 67.336 122.814 67.212 122.366 67.212C121.942 67.212 121.574 67.284 121.262 67.428C120.95 67.572 120.63 67.772 120.302 68.028L119.738 67.32C120.074 67.04 120.458 66.804 120.89 66.612C121.33 66.412 121.822 66.312 122.366 66.312C123.166 66.312 123.798 66.516 124.262 66.924C124.726 67.332 124.958 67.888 124.958 68.592C124.958 69.04 124.866 69.46 124.682 69.852C124.498 70.244 124.242 70.632 123.914 71.016C123.586 71.4 123.202 71.804 122.762 72.228L120.974 73.992V74.04H125.306V75ZM130.278 66.432L127.086 75H126.054L129.246 66.432H130.278ZM136.638 75H130.974V74.124L133.218 71.856C133.642 71.424 134.002 71.04 134.298 70.704C134.602 70.368 134.83 70.04 134.982 69.72C135.134 69.4 135.21 69.044 135.21 68.652C135.21 68.18 135.07 67.824 134.79 67.584C134.51 67.336 134.146 67.212 133.698 67.212C133.274 67.212 132.906 67.284 132.594 67.428C132.282 67.572 131.962 67.772 131.634 68.028L131.07 67.32C131.406 67.04 131.79 66.804 132.222 66.612C132.662 66.412 133.154 66.312 133.698 66.312C134.498 66.312 135.13 66.516 135.594 66.924C136.058 67.332 136.29 67.888 136.29 68.592C136.29 69.04 136.198 69.46 136.014 69.852C135.83 70.244 135.574 70.632 135.246 71.016C134.918 71.4 134.534 71.804 134.094 72.228L132.306 73.992V74.04H136.638V75ZM143.182 68.436C143.182 69.012 143.018 69.472 142.69 69.816C142.37 70.152 141.942 70.376 141.406 70.488V70.536C142.086 70.616 142.594 70.832 142.93 71.184C143.274 71.536 143.446 71.996 143.446 72.564C143.446 73.068 143.33 73.512 143.098 73.896C142.866 74.28 142.506 74.58 142.018 74.796C141.538 75.012 140.918 75.12 140.158 75.12C139.71 75.12 139.294 75.084 138.91 75.012C138.526 74.948 138.158 74.828 137.806 74.652V73.668C138.166 73.852 138.554 73.992 138.97 74.088C139.386 74.184 139.786 74.232 140.17 74.232C140.938 74.232 141.49 74.084 141.826 73.788C142.17 73.484 142.342 73.068 142.342 72.54C142.342 72.004 142.13 71.62 141.706 71.388C141.29 71.148 140.702 71.028 139.942 71.028H139.114V70.128H139.954C140.658 70.128 141.19 69.98 141.55 69.684C141.918 69.388 142.102 68.996 142.102 68.508C142.102 68.092 141.962 67.772 141.682 67.548C141.402 67.316 141.022 67.2 140.542 67.2C140.078 67.2 139.682 67.268 139.354 67.404C139.026 67.54 138.702 67.712 138.382 67.92L137.854 67.2C138.158 66.96 138.534 66.752 138.982 66.576C139.438 66.4 139.954 66.312 140.53 66.312C141.426 66.312 142.09 66.512 142.522 66.912C142.962 67.312 143.182 67.82 143.182 68.436ZM146.353 73.608L146.437 73.74C146.325 74.164 146.173 74.628 145.981 75.132C145.789 75.644 145.597 76.116 145.405 76.548H144.625C144.737 76.092 144.849 75.592 144.961 75.048C145.081 74.504 145.169 74.024 145.225 73.608H146.353ZM156.701 75H151.037V74.124L153.281 71.856C153.705 71.424 154.065 71.04 154.361 70.704C154.665 70.368 154.893 70.04 155.045 69.72C155.197 69.4 155.273 69.044 155.273 68.652C155.273 68.18 155.133 67.824 154.853 67.584C154.573 67.336 154.209 67.212 153.761 67.212C153.337 67.212 152.969 67.284 152.657 67.428C152.345 67.572 152.025 67.772 151.697 68.028L151.133 67.32C151.469 67.04 151.853 66.804 152.285 66.612C152.725 66.412 153.217 66.312 153.761 66.312C154.561 66.312 155.193 66.516 155.657 66.924C156.121 67.332 156.353 67.888 156.353 68.592C156.353 69.04 156.261 69.46 156.077 69.852C155.893 70.244 155.637 70.632 155.309 71.016C154.981 71.4 154.597 71.804 154.157 72.228L152.369 73.992V74.04H156.701V75ZM158.192 69.216C158.192 68.912 158.264 68.7 158.408 68.58C158.552 68.46 158.724 68.4 158.924 68.4C159.124 68.4 159.3 68.46 159.452 68.58C159.604 68.7 159.68 68.912 159.68 69.216C159.68 69.504 159.604 69.712 159.452 69.84C159.3 69.968 159.124 70.032 158.924 70.032C158.724 70.032 158.552 69.968 158.408 69.84C158.264 69.712 158.192 69.504 158.192 69.216ZM158.192 74.352C158.192 74.056 158.264 73.848 158.408 73.728C158.552 73.608 158.724 73.548 158.924 73.548C159.124 73.548 159.3 73.608 159.452 73.728C159.604 73.848 159.68 74.056 159.68 74.352C159.68 74.64 159.604 74.848 159.452 74.976C159.3 75.104 159.124 75.168 158.924 75.168C158.724 75.168 158.552 75.104 158.408 74.976C158.264 74.848 158.192 74.64 158.192 74.352ZM164.799 75H163.767V69.012C163.767 68.668 163.771 68.392 163.779 68.184C163.787 67.976 163.799 67.76 163.815 67.536C163.687 67.664 163.567 67.772 163.455 67.86C163.351 67.948 163.223 68.06 163.071 68.196L162.159 68.94L161.607 68.232L163.923 66.432H164.799V75ZM170.706 69.744C171.578 69.744 172.274 69.964 172.794 70.404C173.322 70.844 173.586 71.464 173.586 72.264C173.586 73.152 173.302 73.852 172.734 74.364C172.174 74.868 171.39 75.12 170.382 75.12C169.934 75.12 169.518 75.08 169.134 75C168.75 74.92 168.426 74.804 168.162 74.652V73.656C168.45 73.832 168.798 73.972 169.206 74.076C169.622 74.172 170.018 74.22 170.394 74.22C171.026 74.22 171.534 74.072 171.918 73.776C172.31 73.472 172.506 73.004 172.506 72.372C172.506 71.812 172.334 71.384 171.99 71.088C171.646 70.784 171.102 70.632 170.358 70.632C170.134 70.632 169.878 70.652 169.59 70.692C169.302 70.732 169.07 70.772 168.894 70.812L168.366 70.476L168.69 66.432H172.986V67.392H169.59L169.386 69.876C169.522 69.852 169.706 69.824 169.938 69.792C170.17 69.76 170.426 69.744 170.706 69.744ZM180.823 66.432C181.943 66.432 182.759 66.652 183.271 67.092C183.783 67.532 184.039 68.152 184.039 68.952C184.039 69.424 183.931 69.868 183.715 70.284C183.507 70.692 183.151 71.024 182.647 71.28C182.151 71.536 181.475 71.664 180.619 71.664H179.635V75H178.555V66.432H180.823ZM180.727 67.356H179.635V70.74H180.499C181.315 70.74 181.923 70.608 182.323 70.344C182.723 70.08 182.923 69.632 182.923 69C182.923 68.448 182.743 68.036 182.383 67.764C182.031 67.492 181.479 67.356 180.727 67.356ZM189.6 75L186.78 67.488H186.732C186.756 67.736 186.776 68.072 186.792 68.496C186.808 68.912 186.816 69.348 186.816 69.804V75H185.82V66.432H187.416L190.056 73.452H190.104L192.792 66.432H194.376V75H193.308V69.732C193.308 69.316 193.316 68.904 193.332 68.496C193.356 68.088 193.376 67.756 193.392 67.5H193.344L190.488 75H189.6Z" fill="#242424"/>
<path d="M97.066 97H95.302V87.004H100.972V88.502H97.066V91.442H100.706V92.94H97.066V97ZM103.549 86.486C103.811 86.486 104.039 86.556 104.235 86.696C104.431 86.8267 104.529 87.0647 104.529 87.41C104.529 87.7553 104.431 87.998 104.235 88.138C104.039 88.278 103.811 88.348 103.549 88.348C103.279 88.348 103.045 88.278 102.849 88.138C102.663 87.998 102.569 87.7553 102.569 87.41C102.569 87.0647 102.663 86.8267 102.849 86.696C103.045 86.556 103.279 86.486 103.549 86.486ZM104.431 89.412V97H102.667V89.412H104.431ZM108.451 97H106.687V86.36H108.451V97ZM113.758 89.272C114.776 89.272 115.578 89.5753 116.166 90.182C116.764 90.7887 117.062 91.6333 117.062 92.716V93.612H112.05C112.069 94.3027 112.26 94.8393 112.624 95.222C112.988 95.5953 113.492 95.782 114.136 95.782C114.622 95.782 115.06 95.7353 115.452 95.642C115.844 95.5393 116.246 95.3947 116.656 95.208V96.622C116.283 96.7993 115.896 96.93 115.494 97.014C115.093 97.098 114.612 97.14 114.052 97.14C113.306 97.14 112.648 97 112.078 96.72C111.509 96.4307 111.061 96.0013 110.734 95.432C110.417 94.8533 110.258 94.13 110.258 93.262C110.258 91.9647 110.576 90.9753 111.21 90.294C111.854 89.6127 112.704 89.272 113.758 89.272ZM113.758 90.574C113.282 90.574 112.895 90.728 112.596 91.036C112.307 91.3347 112.139 91.7827 112.092 92.38H115.354C115.345 91.8573 115.21 91.428 114.948 91.092C114.696 90.7467 114.3 90.574 113.758 90.574ZM129.212 89.412V97H127.826L127.588 96.02H127.504C127.261 96.412 126.925 96.6967 126.496 96.874C126.066 97.0513 125.614 97.14 125.138 97.14C124.288 97.14 123.621 96.9207 123.136 96.482C122.66 96.0433 122.422 95.3387 122.422 94.368V89.412H124.186V94.018C124.186 94.5873 124.298 95.012 124.522 95.292C124.746 95.572 125.1 95.712 125.586 95.712C126.295 95.712 126.78 95.488 127.042 95.04C127.312 94.592 127.448 93.9527 127.448 93.122V89.412H129.212ZM135.45 89.272C136.337 89.272 137.051 89.6033 137.592 90.266C138.134 90.9193 138.404 91.8947 138.404 93.192C138.404 94.4893 138.124 95.474 137.564 96.146C137.014 96.8087 136.295 97.14 135.408 97.14C134.848 97.14 134.396 97.0373 134.05 96.832C133.705 96.6267 133.43 96.3887 133.224 96.118H133.112C133.14 96.2953 133.164 96.4867 133.182 96.692C133.21 96.8973 133.224 97.0933 133.224 97.28V100.36H131.46V89.412H132.888L133.14 90.42H133.224C133.439 90.1027 133.719 89.832 134.064 89.608C134.41 89.384 134.872 89.272 135.45 89.272ZM134.946 90.7C134.321 90.7 133.878 90.8867 133.616 91.26C133.364 91.6333 133.234 92.198 133.224 92.954V93.178C133.224 93.99 133.346 94.6153 133.588 95.054C133.84 95.4833 134.302 95.698 134.974 95.698C135.525 95.698 135.931 95.474 136.192 95.026C136.463 94.5687 136.598 93.948 136.598 93.164C136.598 92.38 136.463 91.7733 136.192 91.344C135.931 90.9147 135.516 90.7 134.946 90.7ZM141.988 97H140.224V86.36H141.988V97ZM151.019 93.192C151.019 94.452 150.693 95.4273 150.039 96.118C149.386 96.7993 148.499 97.14 147.379 97.14C146.689 97.14 146.073 96.986 145.531 96.678C144.99 96.37 144.565 95.922 144.257 95.334C143.949 94.746 143.795 94.032 143.795 93.192C143.795 91.932 144.117 90.966 144.761 90.294C145.415 89.6127 146.301 89.272 147.421 89.272C148.121 89.272 148.742 89.426 149.283 89.734C149.825 90.0327 150.249 90.476 150.557 91.064C150.865 91.6427 151.019 92.352 151.019 93.192ZM145.601 93.192C145.601 93.9947 145.741 94.6153 146.021 95.054C146.311 95.4927 146.773 95.712 147.407 95.712C148.033 95.712 148.49 95.4927 148.779 95.054C149.069 94.6153 149.213 93.9947 149.213 93.192C149.213 92.3893 149.069 91.7733 148.779 91.344C148.49 90.9147 148.028 90.7 147.393 90.7C146.759 90.7 146.301 90.9147 146.021 91.344C145.741 91.7733 145.601 92.3893 145.601 93.192ZM155.867 89.272C156.847 89.272 157.589 89.4867 158.093 89.916C158.606 90.3453 158.863 91.008 158.863 91.904V97H157.617L157.267 95.95H157.211C156.884 96.3607 156.539 96.664 156.175 96.86C155.811 97.0467 155.316 97.14 154.691 97.14C154.01 97.14 153.445 96.9487 152.997 96.566C152.549 96.1833 152.325 95.5907 152.325 94.788C152.325 94.004 152.61 93.416 153.179 93.024C153.758 92.632 154.63 92.4127 155.797 92.366L157.113 92.324V91.946C157.113 91.4607 156.996 91.1153 156.763 90.91C156.53 90.7047 156.203 90.602 155.783 90.602C155.4 90.602 155.032 90.658 154.677 90.77C154.332 90.8727 153.986 91.0033 153.641 91.162L153.081 89.93C153.454 89.734 153.879 89.5753 154.355 89.454C154.84 89.3327 155.344 89.272 155.867 89.272ZM157.113 93.416L156.189 93.444C155.414 93.472 154.878 93.6073 154.579 93.85C154.28 94.0833 154.131 94.4007 154.131 94.802C154.131 95.166 154.234 95.4273 154.439 95.586C154.654 95.7353 154.934 95.81 155.279 95.81C155.792 95.81 156.226 95.6653 156.581 95.376C156.936 95.0773 157.113 94.6387 157.113 94.06V93.416ZM163.579 97.14C162.702 97.14 161.988 96.8133 161.437 96.16C160.896 95.4973 160.625 94.5173 160.625 93.22C160.625 91.9133 160.901 90.9287 161.451 90.266C162.002 89.6033 162.725 89.272 163.621 89.272C164.181 89.272 164.639 89.3793 164.993 89.594C165.357 89.8087 165.647 90.07 165.861 90.378H165.945C165.917 90.2473 165.889 90.0513 165.861 89.79C165.833 89.5193 165.819 89.2627 165.819 89.02V86.36H167.583V97H166.211L165.889 96.006H165.819C165.605 96.3233 165.32 96.594 164.965 96.818C164.611 97.0327 164.149 97.14 163.579 97.14ZM164.111 95.712C164.765 95.712 165.222 95.5253 165.483 95.152C165.754 94.7787 165.894 94.214 165.903 93.458V93.234C165.903 92.422 165.773 91.8013 165.511 91.372C165.259 90.9333 164.783 90.714 164.083 90.714C163.542 90.714 163.127 90.938 162.837 91.386C162.557 91.8247 162.417 92.4453 162.417 93.248C162.417 94.0507 162.562 94.662 162.851 95.082C163.141 95.502 163.561 95.712 164.111 95.712ZM177.408 90.742H175.574V97H173.81V90.742H172.592V89.902L173.81 89.398V88.88C173.81 87.9093 174.039 87.2373 174.496 86.864C174.963 86.4813 175.597 86.29 176.4 86.29C176.764 86.29 177.095 86.3227 177.394 86.388C177.702 86.444 177.954 86.5093 178.15 86.584L177.702 87.9C177.543 87.8533 177.366 87.8113 177.17 87.774C176.983 87.7273 176.778 87.704 176.554 87.704C176.209 87.704 175.957 87.8113 175.798 88.026C175.649 88.2313 175.574 88.53 175.574 88.922V89.412H177.408V90.742ZM181.693 89.272C182.673 89.272 183.415 89.4867 183.919 89.916C184.432 90.3453 184.689 91.008 184.689 91.904V97H183.443L183.093 95.95H183.037C182.71 96.3607 182.365 96.664 182.001 96.86C181.637 97.0467 181.142 97.14 180.517 97.14C179.836 97.14 179.271 96.9487 178.823 96.566C178.375 96.1833 178.151 95.5907 178.151 94.788C178.151 94.004 178.436 93.416 179.005 93.024C179.584 92.632 180.456 92.4127 181.623 92.366L182.939 92.324V91.946C182.939 91.4607 182.822 91.1153 182.589 90.91C182.356 90.7047 182.029 90.602 181.609 90.602C181.226 90.602 180.858 90.658 180.503 90.77C180.158 90.8727 179.812 91.0033 179.467 91.162L178.907 89.93C179.28 89.734 179.705 89.5753 180.181 89.454C180.666 89.3327 181.17 89.272 181.693 89.272ZM182.939 93.416L182.015 93.444C181.24 93.472 180.704 93.6073 180.405 93.85C180.106 94.0833 179.957 94.4007 179.957 94.802C179.957 95.166 180.06 95.4273 180.265 95.586C180.48 95.7353 180.76 95.81 181.105 95.81C181.618 95.81 182.052 95.6653 182.407 95.376C182.762 95.0773 182.939 94.6387 182.939 94.06V93.416ZM187.782 86.486C188.043 86.486 188.272 86.556 188.468 86.696C188.664 86.8267 188.762 87.0647 188.762 87.41C188.762 87.7553 188.664 87.998 188.468 88.138C188.272 88.278 188.043 88.348 187.782 88.348C187.511 88.348 187.278 88.278 187.082 88.138C186.895 87.998 186.802 87.7553 186.802 87.41C186.802 87.0647 186.895 86.8267 187.082 86.696C187.278 86.556 187.511 86.486 187.782 86.486ZM188.664 89.412V97H186.9V89.412H188.664ZM192.683 97H190.919V86.36H192.683V97ZM197.991 89.272C199.008 89.272 199.811 89.5753 200.399 90.182C200.996 90.7887 201.295 91.6333 201.295 92.716V93.612H196.283C196.301 94.3027 196.493 94.8393 196.857 95.222C197.221 95.5953 197.725 95.782 198.369 95.782C198.854 95.782 199.293 95.7353 199.685 95.642C200.077 95.5393 200.478 95.3947 200.889 95.208V96.622C200.515 96.7993 200.128 96.93 199.727 97.014C199.325 97.098 198.845 97.14 198.285 97.14C197.538 97.14 196.88 97 196.311 96.72C195.741 96.4307 195.293 96.0013 194.967 95.432C194.649 94.8533 194.491 94.13 194.491 93.262C194.491 91.9647 194.808 90.9753 195.443 90.294C196.087 89.6127 196.936 89.272 197.991 89.272ZM197.991 90.574C197.515 90.574 197.127 90.728 196.829 91.036C196.539 91.3347 196.371 91.7827 196.325 92.38H199.587C199.577 91.8573 199.442 91.428 199.181 91.092C198.929 90.7467 198.532 90.574 197.991 90.574ZM205.579 97.14C204.702 97.14 203.988 96.8133 203.437 96.16C202.896 95.4973 202.625 94.5173 202.625 93.22C202.625 91.9133 202.901 90.9287 203.451 90.266C204.002 89.6033 204.725 89.272 205.621 89.272C206.181 89.272 206.639 89.3793 206.993 89.594C207.357 89.8087 207.647 90.07 207.861 90.378H207.945C207.917 90.2473 207.889 90.0513 207.861 89.79C207.833 89.5193 207.819 89.2627 207.819 89.02V86.36H209.583V97H208.211L207.889 96.006H207.819C207.605 96.3233 207.32 96.594 206.965 96.818C206.611 97.0327 206.149 97.14 205.579 97.14ZM206.111 95.712C206.765 95.712 207.222 95.5253 207.483 95.152C207.754 94.7787 207.894 94.214 207.903 93.458V93.234C207.903 92.422 207.773 91.8013 207.511 91.372C207.259 90.9333 206.783 90.714 206.083 90.714C205.542 90.714 205.127 90.938 204.837 91.386C204.557 91.8247 204.417 92.4453 204.417 93.248C204.417 94.0507 204.562 94.662 204.851 95.082C205.141 95.502 205.561 95.712 206.111 95.712Z" fill="#242424"/>
<path d="M98.522 121H97.262V112.11H94.14V111.004H101.63V112.11H98.522V121ZM104.201 110.36V113.482C104.201 113.855 104.178 114.205 104.131 114.532H104.215C104.458 114.149 104.785 113.86 105.195 113.664C105.615 113.468 106.068 113.37 106.553 113.37C107.459 113.37 108.14 113.589 108.597 114.028C109.064 114.457 109.297 115.153 109.297 116.114V121H108.079V116.198C108.079 114.994 107.519 114.392 106.399 114.392C105.559 114.392 104.981 114.63 104.663 115.106C104.355 115.573 104.201 116.245 104.201 117.122V121H102.969V110.36H104.201ZM114.522 113.356C115.156 113.356 115.707 113.496 116.174 113.776C116.64 114.056 116.995 114.453 117.238 114.966C117.49 115.47 117.616 116.063 117.616 116.744V117.486H112.478C112.496 118.335 112.711 118.984 113.122 119.432C113.542 119.871 114.125 120.09 114.872 120.09C115.348 120.09 115.768 120.048 116.132 119.964C116.505 119.871 116.888 119.74 117.28 119.572V120.65C116.897 120.818 116.519 120.939 116.146 121.014C115.772 121.098 115.329 121.14 114.816 121.14C114.097 121.14 113.467 120.995 112.926 120.706C112.384 120.417 111.96 119.987 111.652 119.418C111.353 118.849 111.204 118.144 111.204 117.304C111.204 116.483 111.339 115.778 111.61 115.19C111.89 114.602 112.277 114.149 112.772 113.832C113.276 113.515 113.859 113.356 114.522 113.356ZM114.508 114.364C113.92 114.364 113.453 114.555 113.108 114.938C112.772 115.311 112.571 115.834 112.506 116.506H116.328C116.318 115.871 116.169 115.358 115.88 114.966C115.59 114.565 115.133 114.364 114.508 114.364ZM126.621 114.448H124.731V121H123.499V114.448H122.183V113.874L123.499 113.454V113.02C123.499 112.049 123.709 111.354 124.129 110.934C124.558 110.505 125.16 110.29 125.935 110.29C126.224 110.29 126.495 110.318 126.747 110.374C126.999 110.421 127.213 110.477 127.391 110.542L127.069 111.508C126.919 111.461 126.747 111.415 126.551 111.368C126.355 111.321 126.154 111.298 125.949 111.298C125.538 111.298 125.23 111.438 125.025 111.718C124.829 111.989 124.731 112.418 124.731 113.006V113.496H126.621V114.448ZM128.605 110.682C128.792 110.682 128.955 110.747 129.095 110.878C129.244 110.999 129.319 111.195 129.319 111.466C129.319 111.737 129.244 111.937 129.095 112.068C128.955 112.189 128.792 112.25 128.605 112.25C128.4 112.25 128.227 112.189 128.087 112.068C127.947 111.937 127.877 111.737 127.877 111.466C127.877 111.195 127.947 110.999 128.087 110.878C128.227 110.747 128.4 110.682 128.605 110.682ZM129.207 113.496V121H127.975V113.496H129.207ZM132.817 121H131.585V110.36H132.817V121ZM138.092 113.356C138.727 113.356 139.277 113.496 139.744 113.776C140.211 114.056 140.565 114.453 140.808 114.966C141.06 115.47 141.186 116.063 141.186 116.744V117.486H136.048C136.067 118.335 136.281 118.984 136.692 119.432C137.112 119.871 137.695 120.09 138.442 120.09C138.918 120.09 139.338 120.048 139.702 119.964C140.075 119.871 140.458 119.74 140.85 119.572V120.65C140.467 120.818 140.089 120.939 139.716 121.014C139.343 121.098 138.899 121.14 138.386 121.14C137.667 121.14 137.037 120.995 136.496 120.706C135.955 120.417 135.53 119.987 135.222 119.418C134.923 118.849 134.774 118.144 134.774 117.304C134.774 116.483 134.909 115.778 135.18 115.19C135.46 114.602 135.847 114.149 136.342 113.832C136.846 113.515 137.429 113.356 138.092 113.356ZM138.078 114.364C137.49 114.364 137.023 114.555 136.678 114.938C136.342 115.311 136.141 115.834 136.076 116.506H139.898C139.889 115.871 139.739 115.358 139.45 114.966C139.161 114.565 138.703 114.364 138.078 114.364ZM149.631 113.356C150.266 113.356 150.816 113.496 151.283 113.776C151.75 114.056 152.104 114.453 152.347 114.966C152.599 115.47 152.725 116.063 152.725 116.744V117.486H147.587C147.606 118.335 147.82 118.984 148.231 119.432C148.651 119.871 149.234 120.09 149.981 120.09C150.457 120.09 150.877 120.048 151.241 119.964C151.614 119.871 151.997 119.74 152.389 119.572V120.65C152.006 120.818 151.628 120.939 151.255 121.014C150.882 121.098 150.438 121.14 149.925 121.14C149.206 121.14 148.576 120.995 148.035 120.706C147.494 120.417 147.069 119.987 146.761 119.418C146.462 118.849 146.313 118.144 146.313 117.304C146.313 116.483 146.448 115.778 146.719 115.19C146.999 114.602 147.386 114.149 147.881 113.832C148.385 113.515 148.968 113.356 149.631 113.356ZM149.617 114.364C149.029 114.364 148.562 114.555 148.217 114.938C147.881 115.311 147.68 115.834 147.615 116.506H151.437C151.428 115.871 151.278 115.358 150.989 114.966C150.7 114.565 150.242 114.364 149.617 114.364ZM156.14 117.164L153.55 113.496H154.95L156.882 116.324L158.8 113.496H160.186L157.596 117.164L160.326 121H158.926L156.882 118.004L154.81 121H153.424L156.14 117.164ZM164.509 121.14C163.837 121.14 163.244 121.005 162.731 120.734C162.217 120.463 161.811 120.043 161.513 119.474C161.223 118.905 161.079 118.177 161.079 117.29C161.079 116.366 161.228 115.615 161.527 115.036C161.835 114.457 162.255 114.033 162.787 113.762C163.319 113.491 163.921 113.356 164.593 113.356C164.966 113.356 165.33 113.398 165.685 113.482C166.049 113.557 166.343 113.65 166.567 113.762L166.189 114.784C165.965 114.7 165.703 114.621 165.405 114.546C165.106 114.471 164.826 114.434 164.565 114.434C163.09 114.434 162.353 115.381 162.353 117.276C162.353 118.181 162.53 118.877 162.885 119.362C163.249 119.838 163.785 120.076 164.495 120.076C164.896 120.076 165.255 120.034 165.573 119.95C165.89 119.866 166.179 119.763 166.441 119.642V120.734C166.189 120.865 165.909 120.963 165.601 121.028C165.302 121.103 164.938 121.14 164.509 121.14ZM171.123 113.356C171.758 113.356 172.308 113.496 172.775 113.776C173.242 114.056 173.596 114.453 173.839 114.966C174.091 115.47 174.217 116.063 174.217 116.744V117.486H169.079C169.098 118.335 169.312 118.984 169.723 119.432C170.143 119.871 170.726 120.09 171.473 120.09C171.949 120.09 172.369 120.048 172.733 119.964C173.106 119.871 173.489 119.74 173.881 119.572V120.65C173.498 120.818 173.12 120.939 172.747 121.014C172.374 121.098 171.93 121.14 171.417 121.14C170.698 121.14 170.068 120.995 169.527 120.706C168.986 120.417 168.561 119.987 168.253 119.418C167.954 118.849 167.805 118.144 167.805 117.304C167.805 116.483 167.94 115.778 168.211 115.19C168.491 114.602 168.878 114.149 169.373 113.832C169.877 113.515 170.46 113.356 171.123 113.356ZM171.109 114.364C170.521 114.364 170.054 114.555 169.709 114.938C169.373 115.311 169.172 115.834 169.107 116.506H172.929C172.92 115.871 172.77 115.358 172.481 114.966C172.192 114.565 171.734 114.364 171.109 114.364ZM179.026 113.356C179.66 113.356 180.211 113.496 180.678 113.776C181.144 114.056 181.499 114.453 181.742 114.966C181.994 115.47 182.12 116.063 182.12 116.744V117.486H176.982C177 118.335 177.215 118.984 177.626 119.432C178.046 119.871 178.629 120.09 179.376 120.09C179.852 120.09 180.272 120.048 180.636 119.964C181.009 119.871 181.392 119.74 181.784 119.572V120.65C181.401 120.818 181.023 120.939 180.65 121.014C180.276 121.098 179.833 121.14 179.32 121.14C178.601 121.14 177.971 120.995 177.43 120.706C176.888 120.417 176.464 119.987 176.156 119.418C175.857 118.849 175.708 118.144 175.708 117.304C175.708 116.483 175.843 115.778 176.114 115.19C176.394 114.602 176.781 114.149 177.276 113.832C177.78 113.515 178.363 113.356 179.026 113.356ZM179.012 114.364C178.424 114.364 177.957 114.555 177.612 114.938C177.276 115.311 177.075 115.834 177.01 116.506H180.832C180.822 115.871 180.673 115.358 180.384 114.966C180.094 114.565 179.637 114.364 179.012 114.364ZM186.69 121.14C185.757 121.14 185.01 120.818 184.45 120.174C183.89 119.521 183.61 118.55 183.61 117.262C183.61 115.974 183.89 115.003 184.45 114.35C185.019 113.687 185.771 113.356 186.704 113.356C187.283 113.356 187.754 113.463 188.118 113.678C188.491 113.893 188.795 114.154 189.028 114.462H189.112C189.093 114.341 189.075 114.163 189.056 113.93C189.037 113.687 189.028 113.496 189.028 113.356V110.36H190.26V121H189.266L189.084 119.992H189.028C188.804 120.309 188.505 120.58 188.132 120.804C187.759 121.028 187.278 121.14 186.69 121.14ZM186.886 120.118C187.679 120.118 188.235 119.903 188.552 119.474C188.879 119.035 189.042 118.377 189.042 117.5V117.276C189.042 116.343 188.888 115.629 188.58 115.134C188.272 114.63 187.703 114.378 186.872 114.378C186.209 114.378 185.71 114.644 185.374 115.176C185.047 115.699 184.884 116.403 184.884 117.29C184.884 118.186 185.047 118.881 185.374 119.376C185.71 119.871 186.214 120.118 186.886 120.118ZM197.529 118.928C197.529 119.656 197.258 120.207 196.717 120.58C196.176 120.953 195.448 121.14 194.533 121.14C194.01 121.14 193.558 121.098 193.175 121.014C192.802 120.93 192.47 120.813 192.181 120.664V119.544C192.48 119.693 192.839 119.833 193.259 119.964C193.688 120.085 194.122 120.146 194.561 120.146C195.186 120.146 195.639 120.048 195.919 119.852C196.199 119.647 196.339 119.376 196.339 119.04C196.339 118.853 196.288 118.685 196.185 118.536C196.082 118.387 195.896 118.237 195.625 118.088C195.364 117.939 194.986 117.771 194.491 117.584C194.006 117.397 193.59 117.211 193.245 117.024C192.9 116.837 192.634 116.613 192.447 116.352C192.26 116.091 192.167 115.755 192.167 115.344C192.167 114.709 192.424 114.219 192.937 113.874C193.46 113.529 194.141 113.356 194.981 113.356C195.438 113.356 195.863 113.403 196.255 113.496C196.656 113.589 197.03 113.711 197.375 113.86L196.955 114.84C196.638 114.709 196.306 114.597 195.961 114.504C195.616 114.411 195.261 114.364 194.897 114.364C194.393 114.364 194.006 114.448 193.735 114.616C193.474 114.775 193.343 114.994 193.343 115.274C193.343 115.489 193.404 115.666 193.525 115.806C193.646 115.946 193.847 116.086 194.127 116.226C194.416 116.366 194.799 116.525 195.275 116.702C195.751 116.879 196.157 117.061 196.493 117.248C196.829 117.435 197.086 117.663 197.263 117.934C197.44 118.195 197.529 118.527 197.529 118.928ZM205.485 120.132C205.672 120.132 205.863 120.118 206.059 120.09C206.255 120.062 206.414 120.025 206.535 119.978V120.916C206.404 120.981 206.218 121.033 205.975 121.07C205.732 121.117 205.499 121.14 205.275 121.14C204.883 121.14 204.519 121.075 204.183 120.944C203.856 120.804 203.59 120.566 203.385 120.23C203.18 119.894 203.077 119.423 203.077 118.816V114.448H202.013V113.86L203.091 113.37L203.581 111.774H204.309V113.496H206.479V114.448H204.309V118.788C204.309 119.245 204.416 119.586 204.631 119.81C204.855 120.025 205.14 120.132 205.485 120.132ZM209.27 110.36V113.482C209.27 113.855 209.246 114.205 209.2 114.532H209.284C209.526 114.149 209.853 113.86 210.264 113.664C210.684 113.468 211.136 113.37 211.622 113.37C212.527 113.37 213.208 113.589 213.666 114.028C214.132 114.457 214.366 115.153 214.366 116.114V121H213.148V116.198C213.148 114.994 212.588 114.392 211.468 114.392C210.628 114.392 210.049 114.63 209.732 115.106C209.424 115.573 209.27 116.245 209.27 117.122V121H208.038V110.36H209.27ZM219.59 113.356C220.225 113.356 220.775 113.496 221.242 113.776C221.709 114.056 222.063 114.453 222.306 114.966C222.558 115.47 222.684 116.063 222.684 116.744V117.486H217.546C217.565 118.335 217.779 118.984 218.19 119.432C218.61 119.871 219.193 120.09 219.94 120.09C220.416 120.09 220.836 120.048 221.2 119.964C221.573 119.871 221.956 119.74 222.348 119.572V120.65C221.965 120.818 221.587 120.939 221.214 121.014C220.841 121.098 220.397 121.14 219.884 121.14C219.165 121.14 218.535 120.995 217.994 120.706C217.453 120.417 217.028 119.987 216.72 119.418C216.421 118.849 216.272 118.144 216.272 117.304C216.272 116.483 216.407 115.778 216.678 115.19C216.958 114.602 217.345 114.149 217.84 113.832C218.344 113.515 218.927 113.356 219.59 113.356ZM219.576 114.364C218.988 114.364 218.521 114.555 218.176 114.938C217.84 115.311 217.639 115.834 217.574 116.506H221.396C221.387 115.871 221.237 115.358 220.948 114.966C220.659 114.565 220.201 114.364 219.576 114.364ZM232.011 121H230.807V114.014C230.807 113.613 230.812 113.291 230.821 113.048C230.83 112.805 230.844 112.553 230.863 112.292C230.714 112.441 230.574 112.567 230.443 112.67C230.322 112.773 230.172 112.903 229.995 113.062L228.931 113.93L228.287 113.104L230.989 111.004H232.011V121ZM244.387 115.722H247.845V120.622C247.304 120.799 246.758 120.93 246.207 121.014C245.657 121.098 245.031 121.14 244.331 121.14C243.295 121.14 242.423 120.935 241.713 120.524C241.004 120.104 240.463 119.511 240.089 118.746C239.725 117.971 239.543 117.057 239.543 116.002C239.543 114.966 239.744 114.065 240.145 113.3C240.556 112.525 241.149 111.928 241.923 111.508C242.698 111.079 243.631 110.864 244.723 110.864C245.283 110.864 245.811 110.915 246.305 111.018C246.809 111.121 247.276 111.265 247.705 111.452L247.229 112.544C246.875 112.395 246.473 112.264 246.025 112.152C245.587 112.031 245.129 111.97 244.653 111.97C243.459 111.97 242.525 112.334 241.853 113.062C241.191 113.781 240.859 114.761 240.859 116.002C240.859 116.795 240.985 117.5 241.237 118.116C241.499 118.723 241.905 119.199 242.455 119.544C243.006 119.88 243.729 120.048 244.625 120.048C245.064 120.048 245.437 120.025 245.745 119.978C246.053 119.931 246.333 119.875 246.585 119.81V116.842H244.387V115.722ZM250.233 111.004H253.089C254.33 111.004 255.273 111.191 255.917 111.564C256.561 111.937 256.883 112.577 256.883 113.482C256.883 114.07 256.72 114.56 256.393 114.952C256.066 115.335 255.595 115.582 254.979 115.694V115.764C255.399 115.839 255.777 115.965 256.113 116.142C256.458 116.319 256.729 116.571 256.925 116.898C257.121 117.225 257.219 117.645 257.219 118.158C257.219 119.063 256.906 119.763 256.281 120.258C255.665 120.753 254.82 121 253.747 121H250.233V111.004ZM251.493 115.26H253.341C254.19 115.26 254.774 115.125 255.091 114.854C255.418 114.574 255.581 114.163 255.581 113.622C255.581 113.071 255.385 112.679 254.993 112.446C254.61 112.203 253.994 112.082 253.145 112.082H251.493V115.26ZM251.493 116.31V119.936H253.509C254.396 119.936 255.012 119.763 255.357 119.418C255.702 119.073 255.875 118.62 255.875 118.06C255.875 117.537 255.693 117.117 255.329 116.8C254.974 116.473 254.335 116.31 253.411 116.31H251.493ZM264.039 121H262.807V110.36H264.039V121ZM267.047 110.682C267.233 110.682 267.397 110.747 267.537 110.878C267.686 110.999 267.761 111.195 267.761 111.466C267.761 111.737 267.686 111.937 267.537 112.068C267.397 112.189 267.233 112.25 267.047 112.25C266.841 112.25 266.669 112.189 266.529 112.068C266.389 111.937 266.319 111.737 266.319 111.466C266.319 111.195 266.389 110.999 266.529 110.878C266.669 110.747 266.841 110.682 267.047 110.682ZM267.649 113.496V121H266.417V113.496H267.649ZM278.258 113.356C279.107 113.356 279.742 113.575 280.162 114.014C280.582 114.453 280.792 115.153 280.792 116.114V121H279.574V116.17C279.574 114.985 279.065 114.392 278.048 114.392C277.32 114.392 276.797 114.602 276.48 115.022C276.172 115.442 276.018 116.053 276.018 116.856V121H274.8V116.17C274.8 114.985 274.287 114.392 273.26 114.392C272.504 114.392 271.981 114.625 271.692 115.092C271.403 115.559 271.258 116.231 271.258 117.108V121H270.026V113.496H271.02L271.202 114.518H271.272C271.505 114.126 271.818 113.837 272.21 113.65C272.611 113.454 273.036 113.356 273.484 113.356C274.66 113.356 275.425 113.776 275.78 114.616H275.85C276.102 114.187 276.443 113.869 276.872 113.664C277.301 113.459 277.763 113.356 278.258 113.356ZM283.74 110.682C283.927 110.682 284.09 110.747 284.23 110.878C284.379 110.999 284.454 111.195 284.454 111.466C284.454 111.737 284.379 111.937 284.23 112.068C284.09 112.189 283.927 112.25 283.74 112.25C283.535 112.25 283.362 112.189 283.222 112.068C283.082 111.937 283.012 111.737 283.012 111.466C283.012 111.195 283.082 110.999 283.222 110.878C283.362 110.747 283.535 110.682 283.74 110.682ZM284.342 113.496V121H283.11V113.496H284.342ZM289.225 120.132C289.412 120.132 289.603 120.118 289.799 120.09C289.995 120.062 290.154 120.025 290.275 119.978V120.916C290.145 120.981 289.958 121.033 289.715 121.07C289.473 121.117 289.239 121.14 289.015 121.14C288.623 121.14 288.259 121.075 287.923 120.944C287.597 120.804 287.331 120.566 287.125 120.23C286.92 119.894 286.817 119.423 286.817 118.816V114.448H285.753V113.86L286.831 113.37L287.321 111.774H288.049V113.496H290.219V114.448H288.049V118.788C288.049 119.245 288.157 119.586 288.371 119.81C288.595 120.025 288.88 120.132 289.225 120.132ZM291.596 120.244C291.596 119.899 291.68 119.656 291.848 119.516C292.016 119.376 292.217 119.306 292.45 119.306C292.683 119.306 292.889 119.376 293.066 119.516C293.243 119.656 293.332 119.899 293.332 120.244C293.332 120.58 293.243 120.823 293.066 120.972C292.889 121.121 292.683 121.196 292.45 121.196C292.217 121.196 292.016 121.121 291.848 120.972C291.68 120.823 291.596 120.58 291.596 120.244Z" fill="#242424"/>
<path d="M354.512 78.0125L357.862 74.6625C358.012 74.5125 358.012 74.2625 357.862 74.1125C357.712 73.9625 357.462 73.9625 357.312 74.1125L354.012 77.4625L350.662 74.1125C350.512 73.9625 350.262 73.9625 350.112 74.1125C349.963 74.2625 349.963 74.5125 350.112 74.6625L353.462 78.0125L350.112 81.3625C349.963 81.5125 349.963 81.7625 350.112 81.9125C350.162 81.9625 350.262 82.0125 350.362 82.0125C350.462 82.0125 350.562 81.9625 350.612 81.9125L354.012 78.5125L357.362 81.8625C357.412 81.9125 357.512 81.9625 357.612 81.9625C357.712 81.9625 357.812 81.9125 357.862 81.8625C358.012 81.7125 358.012 81.4625 357.862 81.3125L354.512 78.0125Z" fill="#323232"/>
<mask id="path-9-inside-2_10224_39194" fill="white">
<path d="M30 154C30 151.791 31.7909 150 34 150H378C380.209 150 382 151.791 382 154V248C382 250.209 380.209 252 378 252H34C31.7909 252 30 250.209 30 248V154Z"/>
</mask>
<path d="M30 154C30 151.791 31.7909 150 34 150H378C380.209 150 382 151.791 382 154V248C382 250.209 380.209 252 378 252H34C31.7909 252 30 250.209 30 248V154Z" fill="#FEF6F6"/>
<path d="M29 149C29 146.239 31.2386 144 34 144H378C380.761 144 383 146.239 383 149L381 156C381 156 379.657 156 378 156H34C32.3431 156 31 156 31 156L29 149ZM383 248C383 250.761 380.761 253 378 253H34C31.2386 253 29 250.761 29 248H31C31 249.657 32.3431 251 34 251H378C379.657 251 381 249.657 381 248H383ZM34 253C31.2386 253 29 250.761 29 248V149C29 146.239 31.2386 144 34 144V156C32.3431 156 31 156 31 156V248C31 249.657 32.3431 251 34 251V253ZM378 144C380.761 144 383 146.239 383 149V248C383 250.761 380.761 253 378 253V251C379.657 251 381 249.657 381 248V156C381 156 379.657 156 378 156V144Z" fill="#DA291C" mask="url(#path-9-inside-2_10224_39194)"/>
<path d="M61.25 189.06V181.35C61.25 181.151 61.329 180.96 61.4697 180.82C61.6103 180.679 61.8011 180.6 62 180.6C62.1989 180.6 62.3897 180.679 62.5303 180.82C62.671 180.96 62.75 181.151 62.75 181.35V189.06C62.75 189.259 62.671 189.45 62.5303 189.59C62.3897 189.731 62.1989 189.81 62 189.81C61.8011 189.81 61.6103 189.731 61.4697 189.59C61.329 189.45 61.25 189.259 61.25 189.06ZM74.8 190.89L64.89 200.8C64.511 201.18 64.0606 201.482 63.5646 201.688C63.0687 201.894 62.537 202 62 202C61.463 202 60.9313 201.894 60.4354 201.688C59.9395 201.482 59.4891 201.18 59.11 200.8L49.2 190.89C48.8197 190.511 48.5179 190.061 48.3119 189.565C48.106 189.069 48 188.537 48 188C48 187.463 48.106 186.931 48.3119 186.435C48.5179 185.939 48.8197 185.489 49.2 185.11L59.11 175.2C59.4891 174.82 59.9395 174.518 60.4354 174.312C60.9313 174.106 61.463 174 62 174C62.537 174 63.0687 174.106 63.5646 174.312C64.0606 174.518 64.511 174.82 64.89 175.2L74.8 185.11C75.1804 185.489 75.4822 185.939 75.6881 186.435C75.894 186.931 76 187.463 76 188C76 188.537 75.894 189.069 75.6881 189.565C75.4822 190.061 75.1804 190.511 74.8 190.89ZM73.74 186.17L63.83 176.26C63.5902 176.019 63.3051 175.827 62.991 175.697C62.677 175.566 62.3402 175.499 62 175.499C61.6599 175.499 61.3231 175.566 61.009 175.697C60.6949 175.827 60.4098 176.019 60.17 176.26L50.26 186.17C49.7752 186.656 49.5028 187.314 49.5028 188C49.5028 188.686 49.7752 189.344 50.26 189.83L60.17 199.74C60.663 200.211 61.3184 200.473 62 200.473C62.6816 200.473 63.337 200.211 63.83 199.74L73.74 189.83C74.2249 189.344 74.4972 188.686 74.4972 188C74.4972 187.314 74.2249 186.656 73.74 186.17ZM62 192.05C61.7429 192.05 61.4916 192.126 61.2778 192.269C61.064 192.412 60.8974 192.615 60.799 192.853C60.7006 193.09 60.6748 193.351 60.725 193.604C60.7752 193.856 60.899 194.087 61.0808 194.269C61.2626 194.451 61.4942 194.575 61.7464 194.625C61.9986 194.675 62.26 194.649 62.4975 194.551C62.735 194.453 62.9381 194.286 63.0809 194.072C63.2238 193.858 63.3 193.607 63.3 193.35C63.3 193.179 63.2664 193.01 63.2011 192.853C63.1357 192.695 63.04 192.551 62.9193 192.431C62.7985 192.31 62.6552 192.214 62.4975 192.149C62.3398 192.084 62.1707 192.05 62 192.05Z" fill="#B51418"/>
<path d="M100.276 180.704C100.276 181.632 100.18 182.424 99.988 183.08C99.796 183.736 99.488 184.24 99.064 184.592C98.648 184.944 98.1 185.12 97.42 185.12C96.452 185.12 95.736 184.732 95.272 183.956C94.816 183.172 94.588 182.088 94.588 180.704C94.588 179.776 94.68 178.984 94.864 178.328C95.056 177.672 95.36 177.172 95.776 176.828C96.192 176.476 96.74 176.3 97.42 176.3C98.38 176.3 99.096 176.688 99.568 177.464C100.04 178.232 100.276 179.312 100.276 180.704ZM95.644 180.704C95.644 181.88 95.776 182.76 96.04 183.344C96.312 183.928 96.772 184.22 97.42 184.22C98.06 184.22 98.516 183.932 98.788 183.356C99.068 182.772 99.208 181.888 99.208 180.704C99.208 179.536 99.068 178.66 98.788 178.076C98.516 177.492 98.06 177.2 97.42 177.2C96.772 177.2 96.312 177.492 96.04 178.076C95.776 178.66 95.644 179.536 95.644 180.704ZM101.527 181.34C101.527 180.724 101.579 180.12 101.683 179.528C101.795 178.928 101.991 178.388 102.271 177.908C102.559 177.42 102.959 177.032 103.471 176.744C103.983 176.456 104.643 176.312 105.451 176.312C105.619 176.312 105.803 176.32 106.003 176.336C106.211 176.352 106.379 176.38 106.507 176.42V177.32C106.363 177.272 106.199 177.236 106.015 177.212C105.831 177.188 105.651 177.176 105.475 177.176C104.923 177.176 104.463 177.268 104.095 177.452C103.727 177.636 103.435 177.888 103.219 178.208C103.011 178.528 102.859 178.896 102.763 179.312C102.667 179.728 102.607 180.172 102.583 180.644H102.655C102.839 180.364 103.095 180.128 103.423 179.936C103.751 179.736 104.171 179.636 104.683 179.636C105.427 179.636 106.027 179.864 106.483 180.32C106.939 180.768 107.167 181.408 107.167 182.24C107.167 183.136 106.919 183.84 106.423 184.352C105.935 184.864 105.275 185.12 104.443 185.12C103.899 185.12 103.407 184.984 102.967 184.712C102.527 184.44 102.175 184.024 101.911 183.464C101.655 182.904 101.527 182.196 101.527 181.34ZM104.431 184.232C104.935 184.232 105.343 184.072 105.655 183.752C105.967 183.424 106.123 182.92 106.123 182.24C106.123 181.696 105.983 181.264 105.703 180.944C105.431 180.624 105.019 180.464 104.467 180.464C104.091 180.464 103.763 180.544 103.483 180.704C103.203 180.856 102.983 181.056 102.823 181.304C102.671 181.544 102.595 181.788 102.595 182.036C102.595 182.38 102.663 182.724 102.799 183.068C102.935 183.404 103.139 183.684 103.411 183.908C103.683 184.124 104.023 184.232 104.431 184.232ZM112.078 176.432L108.886 185H107.854L111.046 176.432H112.078ZM116.459 185H115.427V179.012C115.427 178.668 115.431 178.392 115.439 178.184C115.447 177.976 115.459 177.76 115.475 177.536C115.347 177.664 115.227 177.772 115.115 177.86C115.011 177.948 114.883 178.06 114.731 178.196L113.819 178.94L113.267 178.232L115.583 176.432H116.459V185ZM125.306 185H119.642V184.124L121.886 181.856C122.31 181.424 122.67 181.04 122.966 180.704C123.27 180.368 123.498 180.04 123.65 179.72C123.802 179.4 123.878 179.044 123.878 178.652C123.878 178.18 123.738 177.824 123.458 177.584C123.178 177.336 122.814 177.212 122.366 177.212C121.942 177.212 121.574 177.284 121.262 177.428C120.95 177.572 120.63 177.772 120.302 178.028L119.738 177.32C120.074 177.04 120.458 176.804 120.89 176.612C121.33 176.412 121.822 176.312 122.366 176.312C123.166 176.312 123.798 176.516 124.262 176.924C124.726 177.332 124.958 177.888 124.958 178.592C124.958 179.04 124.866 179.46 124.682 179.852C124.498 180.244 124.242 180.632 123.914 181.016C123.586 181.4 123.202 181.804 122.762 182.228L120.974 183.992V184.04H125.306V185ZM130.278 176.432L127.086 185H126.054L129.246 176.432H130.278ZM136.638 185H130.974V184.124L133.218 181.856C133.642 181.424 134.002 181.04 134.298 180.704C134.602 180.368 134.83 180.04 134.982 179.72C135.134 179.4 135.21 179.044 135.21 178.652C135.21 178.18 135.07 177.824 134.79 177.584C134.51 177.336 134.146 177.212 133.698 177.212C133.274 177.212 132.906 177.284 132.594 177.428C132.282 177.572 131.962 177.772 131.634 178.028L131.07 177.32C131.406 177.04 131.79 176.804 132.222 176.612C132.662 176.412 133.154 176.312 133.698 176.312C134.498 176.312 135.13 176.516 135.594 176.924C136.058 177.332 136.29 177.888 136.29 178.592C136.29 179.04 136.198 179.46 136.014 179.852C135.83 180.244 135.574 180.632 135.246 181.016C134.918 181.4 134.534 181.804 134.094 182.228L132.306 183.992V184.04H136.638V185ZM143.182 178.436C143.182 179.012 143.018 179.472 142.69 179.816C142.37 180.152 141.942 180.376 141.406 180.488V180.536C142.086 180.616 142.594 180.832 142.93 181.184C143.274 181.536 143.446 181.996 143.446 182.564C143.446 183.068 143.33 183.512 143.098 183.896C142.866 184.28 142.506 184.58 142.018 184.796C141.538 185.012 140.918 185.12 140.158 185.12C139.71 185.12 139.294 185.084 138.91 185.012C138.526 184.948 138.158 184.828 137.806 184.652V183.668C138.166 183.852 138.554 183.992 138.97 184.088C139.386 184.184 139.786 184.232 140.17 184.232C140.938 184.232 141.49 184.084 141.826 183.788C142.17 183.484 142.342 183.068 142.342 182.54C142.342 182.004 142.13 181.62 141.706 181.388C141.29 181.148 140.702 181.028 139.942 181.028H139.114V180.128H139.954C140.658 180.128 141.19 179.98 141.55 179.684C141.918 179.388 142.102 178.996 142.102 178.508C142.102 178.092 141.962 177.772 141.682 177.548C141.402 177.316 141.022 177.2 140.542 177.2C140.078 177.2 139.682 177.268 139.354 177.404C139.026 177.54 138.702 177.712 138.382 177.92L137.854 177.2C138.158 176.96 138.534 176.752 138.982 176.576C139.438 176.4 139.954 176.312 140.53 176.312C141.426 176.312 142.09 176.512 142.522 176.912C142.962 177.312 143.182 177.82 143.182 178.436ZM146.353 183.608L146.437 183.74C146.325 184.164 146.173 184.628 145.981 185.132C145.789 185.644 145.597 186.116 145.405 186.548H144.625C144.737 186.092 144.849 185.592 144.961 185.048C145.081 184.504 145.169 184.024 145.225 183.608H146.353ZM156.701 185H151.037V184.124L153.281 181.856C153.705 181.424 154.065 181.04 154.361 180.704C154.665 180.368 154.893 180.04 155.045 179.72C155.197 179.4 155.273 179.044 155.273 178.652C155.273 178.18 155.133 177.824 154.853 177.584C154.573 177.336 154.209 177.212 153.761 177.212C153.337 177.212 152.969 177.284 152.657 177.428C152.345 177.572 152.025 177.772 151.697 178.028L151.133 177.32C151.469 177.04 151.853 176.804 152.285 176.612C152.725 176.412 153.217 176.312 153.761 176.312C154.561 176.312 155.193 176.516 155.657 176.924C156.121 177.332 156.353 177.888 156.353 178.592C156.353 179.04 156.261 179.46 156.077 179.852C155.893 180.244 155.637 180.632 155.309 181.016C154.981 181.4 154.597 181.804 154.157 182.228L152.369 183.992V184.04H156.701V185ZM158.192 179.216C158.192 178.912 158.264 178.7 158.408 178.58C158.552 178.46 158.724 178.4 158.924 178.4C159.124 178.4 159.3 178.46 159.452 178.58C159.604 178.7 159.68 178.912 159.68 179.216C159.68 179.504 159.604 179.712 159.452 179.84C159.3 179.968 159.124 180.032 158.924 180.032C158.724 180.032 158.552 179.968 158.408 179.84C158.264 179.712 158.192 179.504 158.192 179.216ZM158.192 184.352C158.192 184.056 158.264 183.848 158.408 183.728C158.552 183.608 158.724 183.548 158.924 183.548C159.124 183.548 159.3 183.608 159.452 183.728C159.604 183.848 159.68 184.056 159.68 184.352C159.68 184.64 159.604 184.848 159.452 184.976C159.3 185.104 159.124 185.168 158.924 185.168C158.724 185.168 158.552 185.104 158.408 184.976C158.264 184.848 158.192 184.64 158.192 184.352ZM166.815 180.704C166.815 181.632 166.719 182.424 166.527 183.08C166.335 183.736 166.027 184.24 165.603 184.592C165.187 184.944 164.639 185.12 163.959 185.12C162.991 185.12 162.275 184.732 161.811 183.956C161.355 183.172 161.127 182.088 161.127 180.704C161.127 179.776 161.219 178.984 161.403 178.328C161.595 177.672 161.899 177.172 162.315 176.828C162.731 176.476 163.279 176.3 163.959 176.3C164.919 176.3 165.635 176.688 166.107 177.464C166.579 178.232 166.815 179.312 166.815 180.704ZM162.183 180.704C162.183 181.88 162.315 182.76 162.579 183.344C162.851 183.928 163.311 184.22 163.959 184.22C164.599 184.22 165.055 183.932 165.327 183.356C165.607 182.772 165.747 181.888 165.747 180.704C165.747 179.536 165.607 178.66 165.327 178.076C165.055 177.492 164.599 177.2 163.959 177.2C163.311 177.2 162.851 177.492 162.579 178.076C162.315 178.66 162.183 179.536 162.183 180.704ZM173.322 178.436C173.322 179.012 173.158 179.472 172.83 179.816C172.51 180.152 172.082 180.376 171.546 180.488V180.536C172.226 180.616 172.734 180.832 173.07 181.184C173.414 181.536 173.586 181.996 173.586 182.564C173.586 183.068 173.47 183.512 173.238 183.896C173.006 184.28 172.646 184.58 172.158 184.796C171.678 185.012 171.058 185.12 170.298 185.12C169.85 185.12 169.434 185.084 169.05 185.012C168.666 184.948 168.298 184.828 167.946 184.652V183.668C168.306 183.852 168.694 183.992 169.11 184.088C169.526 184.184 169.926 184.232 170.31 184.232C171.078 184.232 171.63 184.084 171.966 183.788C172.31 183.484 172.482 183.068 172.482 182.54C172.482 182.004 172.27 181.62 171.846 181.388C171.43 181.148 170.842 181.028 170.082 181.028H169.254V180.128H170.094C170.798 180.128 171.33 179.98 171.69 179.684C172.058 179.388 172.242 178.996 172.242 178.508C172.242 178.092 172.102 177.772 171.822 177.548C171.542 177.316 171.162 177.2 170.682 177.2C170.218 177.2 169.822 177.268 169.494 177.404C169.166 177.54 168.842 177.712 168.522 177.92L167.994 177.2C168.298 176.96 168.674 176.752 169.122 176.576C169.578 176.4 170.094 176.312 170.67 176.312C171.566 176.312 172.23 176.512 172.662 176.912C173.102 177.312 173.322 177.82 173.322 178.436ZM180.823 176.432C181.943 176.432 182.759 176.652 183.271 177.092C183.783 177.532 184.039 178.152 184.039 178.952C184.039 179.424 183.931 179.868 183.715 180.284C183.507 180.692 183.151 181.024 182.647 181.28C182.151 181.536 181.475 181.664 180.619 181.664H179.635V185H178.555V176.432H180.823ZM180.727 177.356H179.635V180.74H180.499C181.315 180.74 181.923 180.608 182.323 180.344C182.723 180.08 182.923 179.632 182.923 179C182.923 178.448 182.743 178.036 182.383 177.764C182.031 177.492 181.479 177.356 180.727 177.356ZM189.6 185L186.78 177.488H186.732C186.756 177.736 186.776 178.072 186.792 178.496C186.808 178.912 186.816 179.348 186.816 179.804V185H185.82V176.432H187.416L190.056 183.452H190.104L192.792 176.432H194.376V185H193.308V179.732C193.308 179.316 193.316 178.904 193.332 178.496C193.356 178.088 193.376 177.756 193.392 177.5H193.344L190.488 185H189.6Z" fill="#242424"/>
<path d="M101.112 204.27C101.112 205.157 100.79 205.857 100.146 206.37C99.502 206.883 98.6107 207.14 97.472 207.14C96.3707 207.14 95.4373 206.953 94.672 206.58V204.9C95.092 205.087 95.554 205.259 96.058 205.418C96.5713 205.567 97.0847 205.642 97.598 205.642C98.2047 205.642 98.6433 205.525 98.914 205.292C99.194 205.049 99.334 204.741 99.334 204.368C99.334 203.957 99.1567 203.631 98.802 203.388C98.4473 203.136 97.9293 202.865 97.248 202.576C96.8373 202.408 96.4407 202.203 96.058 201.96C95.6847 201.708 95.3767 201.395 95.134 201.022C94.9007 200.639 94.784 200.163 94.784 199.594C94.784 198.745 95.0827 198.077 95.68 197.592C96.2867 197.107 97.094 196.864 98.102 196.864C98.6247 196.864 99.1193 196.92 99.586 197.032C100.062 197.144 100.529 197.303 100.986 197.508L100.412 198.95C99.992 198.773 99.5907 198.633 99.208 198.53C98.8347 198.427 98.4473 198.376 98.046 198.376C97.5607 198.376 97.192 198.483 96.94 198.698C96.688 198.913 96.562 199.197 96.562 199.552C96.562 199.823 96.632 200.056 96.772 200.252C96.912 200.439 97.1267 200.611 97.416 200.77C97.7147 200.929 98.0973 201.111 98.564 201.316C99.1053 201.549 99.5627 201.797 99.936 202.058C100.319 202.31 100.608 202.613 100.804 202.968C101.009 203.313 101.112 203.747 101.112 204.27ZM101.697 199.412H103.615L105.127 203.696C105.23 203.967 105.314 204.237 105.379 204.508C105.445 204.769 105.491 205.031 105.519 205.292H105.575C105.613 205.049 105.669 204.793 105.743 204.522C105.818 204.242 105.902 203.967 105.995 203.696L107.451 199.412H109.355L106.121 208.008C105.832 208.764 105.435 209.343 104.931 209.744C104.437 210.155 103.825 210.36 103.097 210.36C102.864 210.36 102.659 210.346 102.481 210.318C102.313 210.299 102.169 210.276 102.047 210.248V208.848C102.15 208.867 102.271 208.885 102.411 208.904C102.561 208.923 102.715 208.932 102.873 208.932C103.303 208.932 103.648 208.801 103.909 208.54C104.171 208.288 104.371 207.971 104.511 207.588L104.735 206.972L101.697 199.412ZM115.654 204.802C115.654 205.567 115.378 206.151 114.828 206.552C114.286 206.944 113.507 207.14 112.49 207.14C111.958 207.14 111.5 207.103 111.118 207.028C110.744 206.953 110.38 206.837 110.026 206.678V205.18C110.399 205.357 110.81 205.507 111.258 205.628C111.715 205.749 112.144 205.81 112.546 205.81C113.031 205.81 113.381 205.735 113.596 205.586C113.81 205.437 113.918 205.236 113.918 204.984C113.918 204.835 113.876 204.704 113.792 204.592C113.708 204.471 113.544 204.34 113.302 204.2C113.059 204.06 112.69 203.887 112.196 203.682C111.71 203.486 111.304 203.29 110.978 203.094C110.66 202.898 110.418 202.665 110.25 202.394C110.091 202.123 110.012 201.773 110.012 201.344C110.012 200.663 110.282 200.149 110.824 199.804C111.365 199.449 112.079 199.272 112.966 199.272C113.432 199.272 113.871 199.319 114.282 199.412C114.702 199.505 115.122 199.645 115.542 199.832L114.982 201.134C114.627 200.985 114.282 200.859 113.946 200.756C113.61 200.653 113.264 200.602 112.91 200.602C112.135 200.602 111.748 200.821 111.748 201.26C111.748 201.419 111.794 201.554 111.888 201.666C111.99 201.778 112.163 201.899 112.406 202.03C112.658 202.151 113.012 202.301 113.47 202.478C113.918 202.655 114.305 202.842 114.632 203.038C114.958 203.225 115.21 203.458 115.388 203.738C115.565 204.009 115.654 204.363 115.654 204.802ZM120.291 205.726C120.505 205.726 120.715 205.707 120.921 205.67C121.135 205.623 121.331 205.572 121.509 205.516V206.832C121.322 206.925 121.079 207 120.781 207.056C120.482 207.112 120.169 207.14 119.843 207.14C119.404 207.14 119.007 207.07 118.653 206.93C118.307 206.79 118.032 206.543 117.827 206.188C117.621 205.833 117.519 205.334 117.519 204.69V200.742H116.497V199.972L117.617 199.356L118.177 197.746H119.283V199.412H121.439V200.742H119.283V204.676C119.283 205.031 119.376 205.297 119.563 205.474C119.759 205.642 120.001 205.726 120.291 205.726ZM126.09 199.272C127.108 199.272 127.91 199.575 128.498 200.182C129.096 200.789 129.394 201.633 129.394 202.716V203.612H124.382C124.401 204.303 124.592 204.839 124.956 205.222C125.32 205.595 125.824 205.782 126.468 205.782C126.954 205.782 127.392 205.735 127.784 205.642C128.176 205.539 128.578 205.395 128.988 205.208V206.622C128.615 206.799 128.228 206.93 127.826 207.014C127.425 207.098 126.944 207.14 126.384 207.14C125.638 207.14 124.98 207 124.41 206.72C123.841 206.431 123.393 206.001 123.066 205.432C122.749 204.853 122.59 204.13 122.59 203.262C122.59 201.965 122.908 200.975 123.542 200.294C124.186 199.613 125.036 199.272 126.09 199.272ZM126.09 200.574C125.614 200.574 125.227 200.728 124.928 201.036C124.639 201.335 124.471 201.783 124.424 202.38H127.686C127.677 201.857 127.542 201.428 127.28 201.092C127.028 200.747 126.632 200.574 126.09 200.574ZM139.867 199.272C140.726 199.272 141.37 199.491 141.799 199.93C142.238 200.369 142.457 201.078 142.457 202.058V207H140.693V202.394C140.693 201.265 140.264 200.7 139.405 200.7C138.789 200.7 138.35 200.901 138.089 201.302C137.828 201.703 137.697 202.287 137.697 203.052V207H135.933V202.394C135.933 201.265 135.499 200.7 134.631 200.7C133.987 200.7 133.544 200.924 133.301 201.372C133.058 201.82 132.937 202.459 132.937 203.29V207H131.173V199.412H132.531L132.783 200.406H132.881C133.114 200.014 133.432 199.729 133.833 199.552C134.234 199.365 134.654 199.272 135.093 199.272C135.662 199.272 136.138 199.365 136.521 199.552C136.913 199.739 137.212 200.037 137.417 200.448H137.557C137.79 200.037 138.117 199.739 138.537 199.552C138.957 199.365 139.4 199.272 139.867 199.272ZM154.156 207H148.472V197.004H154.156V198.502H150.264V201.05H153.904V202.548H150.264V205.488H154.156V207ZM160.087 199.272C160.208 199.272 160.343 199.281 160.493 199.3C160.642 199.309 160.763 199.323 160.857 199.342L160.703 200.98C160.609 200.961 160.493 200.947 160.353 200.938C160.222 200.919 160.11 200.91 160.017 200.91C159.643 200.91 159.293 200.989 158.967 201.148C158.64 201.297 158.374 201.531 158.169 201.848C157.973 202.165 157.875 202.571 157.875 203.066V207H156.111V199.412H157.469L157.721 200.728H157.805C158.029 200.327 158.337 199.986 158.729 199.706C159.121 199.417 159.573 199.272 160.087 199.272ZM166.239 199.272C166.36 199.272 166.496 199.281 166.645 199.3C166.794 199.309 166.916 199.323 167.009 199.342L166.855 200.98C166.762 200.961 166.645 200.947 166.505 200.938C166.374 200.919 166.262 200.91 166.169 200.91C165.796 200.91 165.446 200.989 165.119 201.148C164.792 201.297 164.526 201.531 164.321 201.848C164.125 202.165 164.027 202.571 164.027 203.066V207H162.263V199.412H163.621L163.873 200.728H163.957C164.181 200.327 164.489 199.986 164.881 199.706C165.273 199.417 165.726 199.272 166.239 199.272ZM174.918 203.192C174.918 204.452 174.591 205.427 173.938 206.118C173.284 206.799 172.398 207.14 171.278 207.14C170.587 207.14 169.971 206.986 169.43 206.678C168.888 206.37 168.464 205.922 168.156 205.334C167.848 204.746 167.694 204.032 167.694 203.192C167.694 201.932 168.016 200.966 168.66 200.294C169.313 199.613 170.2 199.272 171.32 199.272C172.02 199.272 172.64 199.426 173.182 199.734C173.723 200.033 174.148 200.476 174.456 201.064C174.764 201.643 174.918 202.352 174.918 203.192ZM169.5 203.192C169.5 203.995 169.64 204.615 169.92 205.054C170.209 205.493 170.671 205.712 171.306 205.712C171.931 205.712 172.388 205.493 172.678 205.054C172.967 204.615 173.112 203.995 173.112 203.192C173.112 202.389 172.967 201.773 172.678 201.344C172.388 200.915 171.926 200.7 171.292 200.7C170.657 200.7 170.2 200.915 169.92 201.344C169.64 201.773 169.5 202.389 169.5 203.192ZM180.717 199.272C180.839 199.272 180.974 199.281 181.123 199.3C181.273 199.309 181.394 199.323 181.487 199.342L181.333 200.98C181.24 200.961 181.123 200.947 180.983 200.938C180.853 200.919 180.741 200.91 180.647 200.91C180.274 200.91 179.924 200.989 179.597 201.148C179.271 201.297 179.005 201.531 178.799 201.848C178.603 202.165 178.505 202.571 178.505 203.066V207H176.741V199.412H178.099L178.351 200.728H178.435C178.659 200.327 178.967 199.986 179.359 199.706C179.751 199.417 180.204 199.272 180.717 199.272Z" fill="#242424"/>
<path d="M103.366 225.904C103.366 227.593 102.904 228.867 101.98 229.726C101.065 230.575 99.7867 231 98.144 231H95.358V221.004H98.438C99.4367 221.004 100.305 221.191 101.042 221.564C101.789 221.937 102.363 222.488 102.764 223.216C103.165 223.944 103.366 224.84 103.366 225.904ZM102.036 225.946C102.036 224.611 101.705 223.636 101.042 223.02C100.389 222.395 99.46 222.082 98.256 222.082H96.618V229.922H97.976C100.683 229.922 102.036 228.597 102.036 225.946ZM108.315 223.356C108.949 223.356 109.5 223.496 109.967 223.776C110.433 224.056 110.788 224.453 111.031 224.966C111.283 225.47 111.409 226.063 111.409 226.744V227.486H106.271C106.289 228.335 106.504 228.984 106.915 229.432C107.335 229.871 107.918 230.09 108.665 230.09C109.141 230.09 109.561 230.048 109.925 229.964C110.298 229.871 110.681 229.74 111.073 229.572V230.65C110.69 230.818 110.312 230.939 109.939 231.014C109.565 231.098 109.122 231.14 108.609 231.14C107.89 231.14 107.26 230.995 106.719 230.706C106.177 230.417 105.753 229.987 105.445 229.418C105.146 228.849 104.997 228.144 104.997 227.304C104.997 226.483 105.132 225.778 105.403 225.19C105.683 224.602 106.07 224.149 106.565 223.832C107.069 223.515 107.652 223.356 108.315 223.356ZM108.301 224.364C107.713 224.364 107.246 224.555 106.901 224.938C106.565 225.311 106.364 225.834 106.299 226.506H110.121C110.111 225.871 109.962 225.358 109.673 224.966C109.383 224.565 108.926 224.364 108.301 224.364ZM118.205 228.928C118.205 229.656 117.934 230.207 117.393 230.58C116.852 230.953 116.124 231.14 115.209 231.14C114.686 231.14 114.234 231.098 113.851 231.014C113.478 230.93 113.146 230.813 112.857 230.664V229.544C113.156 229.693 113.515 229.833 113.935 229.964C114.364 230.085 114.798 230.146 115.237 230.146C115.862 230.146 116.315 230.048 116.595 229.852C116.875 229.647 117.015 229.376 117.015 229.04C117.015 228.853 116.964 228.685 116.861 228.536C116.758 228.387 116.572 228.237 116.301 228.088C116.04 227.939 115.662 227.771 115.167 227.584C114.682 227.397 114.266 227.211 113.921 227.024C113.576 226.837 113.31 226.613 113.123 226.352C112.936 226.091 112.843 225.755 112.843 225.344C112.843 224.709 113.1 224.219 113.613 223.874C114.136 223.529 114.817 223.356 115.657 223.356C116.114 223.356 116.539 223.403 116.931 223.496C117.332 223.589 117.706 223.711 118.051 223.86L117.631 224.84C117.314 224.709 116.982 224.597 116.637 224.504C116.292 224.411 115.937 224.364 115.573 224.364C115.069 224.364 114.682 224.448 114.411 224.616C114.15 224.775 114.019 224.994 114.019 225.274C114.019 225.489 114.08 225.666 114.201 225.806C114.322 225.946 114.523 226.086 114.803 226.226C115.092 226.366 115.475 226.525 115.951 226.702C116.427 226.879 116.833 227.061 117.169 227.248C117.505 227.435 117.762 227.663 117.939 227.934C118.116 228.195 118.205 228.527 118.205 228.928ZM123.028 231.14C122.356 231.14 121.763 231.005 121.25 230.734C120.737 230.463 120.331 230.043 120.032 229.474C119.743 228.905 119.598 228.177 119.598 227.29C119.598 226.366 119.747 225.615 120.046 225.036C120.354 224.457 120.774 224.033 121.306 223.762C121.838 223.491 122.44 223.356 123.112 223.356C123.485 223.356 123.849 223.398 124.204 223.482C124.568 223.557 124.862 223.65 125.086 223.762L124.708 224.784C124.484 224.7 124.223 224.621 123.924 224.546C123.625 224.471 123.345 224.434 123.084 224.434C121.609 224.434 120.872 225.381 120.872 227.276C120.872 228.181 121.049 228.877 121.404 229.362C121.768 229.838 122.305 230.076 123.014 230.076C123.415 230.076 123.775 230.034 124.092 229.95C124.409 229.866 124.699 229.763 124.96 229.642V230.734C124.708 230.865 124.428 230.963 124.12 231.028C123.821 231.103 123.457 231.14 123.028 231.14ZM130.245 223.356C130.385 223.356 130.534 223.365 130.693 223.384C130.851 223.393 130.996 223.412 131.127 223.44L130.973 224.574C130.851 224.546 130.716 224.523 130.567 224.504C130.417 224.485 130.282 224.476 130.161 224.476C129.778 224.476 129.419 224.583 129.083 224.798C128.747 225.003 128.476 225.297 128.271 225.68C128.075 226.053 127.977 226.492 127.977 226.996V231H126.745V223.496H127.753L127.893 224.868H127.949C128.182 224.457 128.49 224.103 128.873 223.804C129.265 223.505 129.722 223.356 130.245 223.356ZM133.158 220.682C133.345 220.682 133.508 220.747 133.648 220.878C133.797 220.999 133.872 221.195 133.872 221.466C133.872 221.737 133.797 221.937 133.648 222.068C133.508 222.189 133.345 222.25 133.158 222.25C132.953 222.25 132.78 222.189 132.64 222.068C132.5 221.937 132.43 221.737 132.43 221.466C132.43 221.195 132.5 220.999 132.64 220.878C132.78 220.747 132.953 220.682 133.158 220.682ZM133.76 223.496V231H132.528V223.496H133.76ZM139.707 223.356C140.631 223.356 141.373 223.678 141.933 224.322C142.503 224.966 142.787 225.937 142.787 227.234C142.787 228.513 142.503 229.483 141.933 230.146C141.373 230.809 140.627 231.14 139.693 231.14C139.115 231.14 138.634 231.033 138.251 230.818C137.878 230.603 137.584 230.347 137.369 230.048H137.285C137.295 230.207 137.309 230.407 137.327 230.65C137.355 230.893 137.369 231.103 137.369 231.28V234.36H136.137V223.496H137.145L137.313 224.518H137.369C137.593 224.191 137.887 223.916 138.251 223.692C138.615 223.468 139.101 223.356 139.707 223.356ZM139.483 224.392C138.718 224.392 138.177 224.607 137.859 225.036C137.542 225.465 137.379 226.119 137.369 226.996V227.234C137.369 228.158 137.519 228.872 137.817 229.376C138.125 229.871 138.69 230.118 139.511 230.118C139.959 230.118 140.333 229.997 140.631 229.754C140.93 229.502 141.149 229.157 141.289 228.718C141.439 228.279 141.513 227.78 141.513 227.22C141.513 226.361 141.345 225.675 141.009 225.162C140.683 224.649 140.174 224.392 139.483 224.392ZM147.257 230.132C147.443 230.132 147.635 230.118 147.831 230.09C148.027 230.062 148.185 230.025 148.307 229.978V230.916C148.176 230.981 147.989 231.033 147.747 231.07C147.504 231.117 147.271 231.14 147.047 231.14C146.655 231.14 146.291 231.075 145.955 230.944C145.628 230.804 145.362 230.566 145.157 230.23C144.951 229.894 144.849 229.423 144.849 228.816V224.448H143.785V223.86L144.863 223.37L145.353 221.774H146.081V223.496H148.251V224.448H146.081V228.788C146.081 229.245 146.188 229.586 146.403 229.81C146.627 230.025 146.911 230.132 147.257 230.132ZM150.439 220.682C150.626 220.682 150.789 220.747 150.929 220.878C151.078 220.999 151.153 221.195 151.153 221.466C151.153 221.737 151.078 221.937 150.929 222.068C150.789 222.189 150.626 222.25 150.439 222.25C150.234 222.25 150.061 222.189 149.921 222.068C149.781 221.937 149.711 221.737 149.711 221.466C149.711 221.195 149.781 220.999 149.921 220.878C150.061 220.747 150.234 220.682 150.439 220.682ZM151.041 223.496V231H149.809V223.496H151.041ZM159.943 227.234C159.943 228.475 159.625 229.437 158.991 230.118C158.365 230.799 157.516 231.14 156.443 231.14C155.78 231.14 155.187 230.991 154.665 230.692C154.151 230.384 153.745 229.941 153.447 229.362C153.148 228.774 152.999 228.065 152.999 227.234C152.999 225.993 153.307 225.036 153.923 224.364C154.548 223.692 155.402 223.356 156.485 223.356C157.157 223.356 157.754 223.51 158.277 223.818C158.799 224.117 159.205 224.555 159.495 225.134C159.793 225.703 159.943 226.403 159.943 227.234ZM154.273 227.234C154.273 228.121 154.445 228.825 154.791 229.348C155.145 229.861 155.705 230.118 156.471 230.118C157.227 230.118 157.782 229.861 158.137 229.348C158.491 228.825 158.669 228.121 158.669 227.234C158.669 226.347 158.491 225.652 158.137 225.148C157.782 224.644 157.222 224.392 156.457 224.392C155.691 224.392 155.136 224.644 154.791 225.148C154.445 225.652 154.273 226.347 154.273 227.234ZM165.507 223.356C166.403 223.356 167.08 223.575 167.537 224.014C167.994 224.453 168.223 225.153 168.223 226.114V231H167.005V226.198C167.005 224.994 166.445 224.392 165.325 224.392C164.494 224.392 163.92 224.625 163.603 225.092C163.286 225.559 163.127 226.231 163.127 227.108V231H161.895V223.496H162.889L163.071 224.518H163.141C163.384 224.126 163.72 223.837 164.149 223.65C164.578 223.454 165.031 223.356 165.507 223.356ZM180.71 227.234C180.71 228.475 180.393 229.437 179.758 230.118C179.133 230.799 178.283 231.14 177.21 231.14C176.547 231.14 175.955 230.991 175.432 230.692C174.919 230.384 174.513 229.941 174.214 229.362C173.915 228.774 173.766 228.065 173.766 227.234C173.766 225.993 174.074 225.036 174.69 224.364C175.315 223.692 176.169 223.356 177.252 223.356C177.924 223.356 178.521 223.51 179.044 223.818C179.567 224.117 179.973 224.555 180.262 225.134C180.561 225.703 180.71 226.403 180.71 227.234ZM175.04 227.234C175.04 228.121 175.213 228.825 175.558 229.348C175.913 229.861 176.473 230.118 177.238 230.118C177.994 230.118 178.549 229.861 178.904 229.348C179.259 228.825 179.436 228.121 179.436 227.234C179.436 226.347 179.259 225.652 178.904 225.148C178.549 224.644 177.989 224.392 177.224 224.392C176.459 224.392 175.903 224.644 175.558 225.148C175.213 225.652 175.04 226.347 175.04 227.234ZM186.121 224.448H184.231V231H182.999V224.448H181.683V223.874L182.999 223.454V223.02C182.999 222.049 183.209 221.354 183.629 220.934C184.058 220.505 184.66 220.29 185.435 220.29C185.724 220.29 185.995 220.318 186.247 220.374C186.499 220.421 186.713 220.477 186.891 220.542L186.569 221.508C186.419 221.461 186.247 221.415 186.051 221.368C185.855 221.321 185.654 221.298 185.449 221.298C185.038 221.298 184.73 221.438 184.525 221.718C184.329 221.989 184.231 222.418 184.231 223.006V223.496H186.121V224.448ZM199.344 223.356C200.193 223.356 200.828 223.575 201.248 224.014C201.668 224.453 201.878 225.153 201.878 226.114V231H200.66V226.17C200.66 224.985 200.151 224.392 199.134 224.392C198.406 224.392 197.883 224.602 197.566 225.022C197.258 225.442 197.104 226.053 197.104 226.856V231H195.886V226.17C195.886 224.985 195.373 224.392 194.346 224.392C193.59 224.392 193.067 224.625 192.778 225.092C192.489 225.559 192.344 226.231 192.344 227.108V231H191.112V223.496H192.106L192.288 224.518H192.358C192.591 224.126 192.904 223.837 193.296 223.65C193.697 223.454 194.122 223.356 194.57 223.356C195.746 223.356 196.511 223.776 196.866 224.616H196.936C197.188 224.187 197.529 223.869 197.958 223.664C198.387 223.459 198.849 223.356 199.344 223.356ZM207.094 223.356C207.729 223.356 208.279 223.496 208.746 223.776C209.213 224.056 209.567 224.453 209.81 224.966C210.062 225.47 210.188 226.063 210.188 226.744V227.486H205.05C205.069 228.335 205.283 228.984 205.694 229.432C206.114 229.871 206.697 230.09 207.444 230.09C207.92 230.09 208.34 230.048 208.704 229.964C209.077 229.871 209.46 229.74 209.852 229.572V230.65C209.469 230.818 209.091 230.939 208.718 231.014C208.345 231.098 207.901 231.14 207.388 231.14C206.669 231.14 206.039 230.995 205.498 230.706C204.957 230.417 204.532 229.987 204.224 229.418C203.925 228.849 203.776 228.144 203.776 227.304C203.776 226.483 203.911 225.778 204.182 225.19C204.462 224.602 204.849 224.149 205.344 223.832C205.848 223.515 206.431 223.356 207.094 223.356ZM207.08 224.364C206.492 224.364 206.025 224.555 205.68 224.938C205.344 225.311 205.143 225.834 205.078 226.506H208.9C208.891 225.871 208.741 225.358 208.452 224.966C208.163 224.565 207.705 224.364 207.08 224.364ZM216.984 228.928C216.984 229.656 216.714 230.207 216.172 230.58C215.631 230.953 214.903 231.14 213.988 231.14C213.466 231.14 213.013 231.098 212.63 231.014C212.257 230.93 211.926 230.813 211.636 230.664V229.544C211.935 229.693 212.294 229.833 212.714 229.964C213.144 230.085 213.578 230.146 214.016 230.146C214.642 230.146 215.094 230.048 215.374 229.852C215.654 229.647 215.794 229.376 215.794 229.04C215.794 228.853 215.743 228.685 215.64 228.536C215.538 228.387 215.351 228.237 215.08 228.088C214.819 227.939 214.441 227.771 213.946 227.584C213.461 227.397 213.046 227.211 212.7 227.024C212.355 226.837 212.089 226.613 211.902 226.352C211.716 226.091 211.622 225.755 211.622 225.344C211.622 224.709 211.879 224.219 212.392 223.874C212.915 223.529 213.596 223.356 214.436 223.356C214.894 223.356 215.318 223.403 215.71 223.496C216.112 223.589 216.485 223.711 216.83 223.86L216.41 224.84C216.093 224.709 215.762 224.597 215.416 224.504C215.071 224.411 214.716 224.364 214.352 224.364C213.848 224.364 213.461 224.448 213.19 224.616C212.929 224.775 212.798 224.994 212.798 225.274C212.798 225.489 212.859 225.666 212.98 225.806C213.102 225.946 213.302 226.086 213.582 226.226C213.872 226.366 214.254 226.525 214.73 226.702C215.206 226.879 215.612 227.061 215.948 227.248C216.284 227.435 216.541 227.663 216.718 227.934C216.896 228.195 216.984 228.527 216.984 228.928ZM223.683 228.928C223.683 229.656 223.413 230.207 222.871 230.58C222.33 230.953 221.602 231.14 220.687 231.14C220.165 231.14 219.712 231.098 219.329 231.014C218.956 230.93 218.625 230.813 218.335 230.664V229.544C218.634 229.693 218.993 229.833 219.413 229.964C219.843 230.085 220.277 230.146 220.715 230.146C221.341 230.146 221.793 230.048 222.073 229.852C222.353 229.647 222.493 229.376 222.493 229.04C222.493 228.853 222.442 228.685 222.339 228.536C222.237 228.387 222.05 228.237 221.779 228.088C221.518 227.939 221.14 227.771 220.645 227.584C220.16 227.397 219.745 227.211 219.399 227.024C219.054 226.837 218.788 226.613 218.601 226.352C218.415 226.091 218.321 225.755 218.321 225.344C218.321 224.709 218.578 224.219 219.091 223.874C219.614 223.529 220.295 223.356 221.135 223.356C221.593 223.356 222.017 223.403 222.409 223.496C222.811 223.589 223.184 223.711 223.529 223.86L223.109 224.84C222.792 224.709 222.461 224.597 222.115 224.504C221.77 224.411 221.415 224.364 221.051 224.364C220.547 224.364 220.16 224.448 219.889 224.616C219.628 224.775 219.497 224.994 219.497 225.274C219.497 225.489 219.558 225.666 219.679 225.806C219.801 225.946 220.001 226.086 220.281 226.226C220.571 226.366 220.953 226.525 221.429 226.702C221.905 226.879 222.311 227.061 222.647 227.248C222.983 227.435 223.24 227.663 223.417 227.934C223.595 228.195 223.683 228.527 223.683 228.928ZM228.339 223.37C229.253 223.37 229.93 223.571 230.369 223.972C230.807 224.373 231.027 225.013 231.027 225.89V231H230.131L229.893 229.936H229.837C229.51 230.347 229.165 230.65 228.801 230.846C228.437 231.042 227.942 231.14 227.317 231.14C226.635 231.14 226.071 230.963 225.623 230.608C225.175 230.244 224.951 229.679 224.951 228.914C224.951 228.167 225.245 227.593 225.833 227.192C226.421 226.781 227.326 226.557 228.549 226.52L229.823 226.478V226.03C229.823 225.405 229.687 224.971 229.417 224.728C229.146 224.485 228.763 224.364 228.269 224.364C227.877 224.364 227.503 224.425 227.149 224.546C226.794 224.658 226.463 224.789 226.155 224.938L225.777 224.014C226.103 223.837 226.491 223.687 226.939 223.566C227.387 223.435 227.853 223.37 228.339 223.37ZM229.809 227.332L228.703 227.374C227.769 227.411 227.121 227.561 226.757 227.822C226.402 228.083 226.225 228.452 226.225 228.928C226.225 229.348 226.351 229.656 226.603 229.852C226.864 230.048 227.195 230.146 227.597 230.146C228.222 230.146 228.745 229.973 229.165 229.628C229.594 229.273 229.809 228.732 229.809 228.004V227.332ZM236.004 223.356C236.499 223.356 236.942 223.449 237.334 223.636C237.736 223.823 238.076 224.107 238.356 224.49H238.426L238.594 223.496H239.574V231.126C239.574 232.199 239.299 233.007 238.748 233.548C238.207 234.089 237.362 234.36 236.214 234.36C235.113 234.36 234.212 234.201 233.512 233.884V232.75C234.25 233.142 235.174 233.338 236.284 233.338C236.928 233.338 237.432 233.147 237.796 232.764C238.17 232.391 238.356 231.877 238.356 231.224V230.93C238.356 230.818 238.361 230.659 238.37 230.454C238.38 230.239 238.389 230.09 238.398 230.006H238.342C237.838 230.762 237.064 231.14 236.018 231.14C235.048 231.14 234.287 230.799 233.736 230.118C233.195 229.437 232.924 228.485 232.924 227.262C232.924 226.067 233.195 225.12 233.736 224.42C234.287 223.711 235.043 223.356 236.004 223.356ZM236.172 224.392C235.547 224.392 235.062 224.644 234.716 225.148C234.371 225.643 234.198 226.352 234.198 227.276C234.198 228.2 234.366 228.909 234.702 229.404C235.038 229.889 235.538 230.132 236.2 230.132C236.956 230.132 237.507 229.931 237.852 229.53C238.198 229.119 238.37 228.461 238.37 227.556V227.262C238.37 226.245 238.193 225.512 237.838 225.064C237.484 224.616 236.928 224.392 236.172 224.392ZM244.856 223.356C245.49 223.356 246.041 223.496 246.508 223.776C246.974 224.056 247.329 224.453 247.572 224.966C247.824 225.47 247.95 226.063 247.95 226.744V227.486H242.812C242.83 228.335 243.045 228.984 243.456 229.432C243.876 229.871 244.459 230.09 245.206 230.09C245.682 230.09 246.102 230.048 246.466 229.964C246.839 229.871 247.222 229.74 247.614 229.572V230.65C247.231 230.818 246.853 230.939 246.48 231.014C246.106 231.098 245.663 231.14 245.15 231.14C244.431 231.14 243.801 230.995 243.26 230.706C242.718 230.417 242.294 229.987 241.986 229.418C241.687 228.849 241.538 228.144 241.538 227.304C241.538 226.483 241.673 225.778 241.944 225.19C242.224 224.602 242.611 224.149 243.106 223.832C243.61 223.515 244.193 223.356 244.856 223.356ZM244.842 224.364C244.254 224.364 243.787 224.555 243.442 224.938C243.106 225.311 242.905 225.834 242.84 226.506H246.662C246.652 225.871 246.503 225.358 246.214 224.966C245.924 224.565 245.467 224.364 244.842 224.364ZM249.678 230.244C249.678 229.899 249.762 229.656 249.93 229.516C250.098 229.376 250.299 229.306 250.532 229.306C250.765 229.306 250.971 229.376 251.148 229.516C251.325 229.656 251.414 229.899 251.414 230.244C251.414 230.58 251.325 230.823 251.148 230.972C250.971 231.121 250.765 231.196 250.532 231.196C250.299 231.196 250.098 231.121 249.93 230.972C249.762 230.823 249.678 230.58 249.678 230.244Z" fill="#242424"/>
<path d="M354.512 188.013L357.862 184.663C358.012 184.513 358.012 184.263 357.862 184.113C357.712 183.962 357.462 183.962 357.312 184.113L354.012 187.463L350.662 184.113C350.512 183.962 350.262 183.962 350.112 184.113C349.963 184.263 349.963 184.513 350.112 184.663L353.462 188.013L350.112 191.363C349.963 191.513 349.963 191.763 350.112 191.913C350.162 191.963 350.262 192.013 350.362 192.013C350.462 192.013 350.562 191.963 350.612 191.913L354.012 188.513L357.362 191.863C357.412 191.913 357.512 191.963 357.612 191.963C357.712 191.963 357.812 191.913 357.862 191.863C358.012 191.713 358.012 191.463 357.862 191.313L354.512 188.013Z" fill="#323232"/>
</g>
<defs>
<filter id="filter0_d_10224_39194" x="22" y="36" width="368" height="228" filterUnits="userSpaceOnUse" color-interpolation-filters="sRGB">
<feFlood flood-opacity="0" result="BackgroundImageFix"/>
<feColorMatrix in="SourceAlpha" type="matrix" values="0 0 0 0 0 0 0 0 0 0 0 0 0 0 0 0 0 0 127 0" result="hardAlpha"/>
<feOffset dy="4"/>
<feGaussianBlur stdDeviation="4"/>
<feColorMatrix type="matrix" values="0 0 0 0 0 0 0 0 0 0 0 0 0 0 0 0 0 0 0.25 0"/>
<feBlend mode="normal" in2="BackgroundImageFix" result="effect1_dropShadow_10224_39194"/>
<feBlend mode="normal" in="SourceGraphic" in2="effect1_dropShadow_10224_39194" result="shape"/>
</filter>
</defs>
</svg>
