<svg width="952" height="280" viewBox="0 0 952 280" fill="none" xmlns="http://www.w3.org/2000/svg">
<g clip-path="url(#clip0_9044_345661)">
<rect width="952" height="280" fill="#F1F1F1"/>
<g clip-path="url(#clip1_9044_345661)">
<g filter="url(#filter0_i_9044_345661)">
<rect width="112" height="418" transform="translate(-2 -58)" fill="white"/>
</g>
<rect width="914" height="434" transform="translate(110 -74)" fill="#F1F1F1"/>
<rect x="127" y="-57" width="880" height="400" fill="white"/>
<rect x="127" y="-57" width="880" height="400" stroke="#C9C9C9" stroke-width="2"/>
</g>
<rect x="-1" y="-36" width="1024" height="395" stroke="#C9C9C9" stroke-width="2"/>
<g filter="url(#filter1_d_9044_345661)">
<g clip-path="url(#clip2_9044_345661)">
<rect x="56.0005" y="126" width="557.371" height="107.016" rx="5.57371" fill="#FDEDED"/>
<path d="M99.5455 180.986V170.242C99.5455 169.965 99.6556 169.699 99.8516 169.503C100.048 169.307 100.313 169.197 100.591 169.197C100.868 169.197 101.134 169.307 101.33 169.503C101.526 169.699 101.636 169.965 101.636 170.242V180.986C101.636 181.263 101.526 181.529 101.33 181.725C101.134 181.921 100.868 182.031 100.591 182.031C100.313 182.031 100.048 181.921 99.8516 181.725C99.6556 181.529 99.5455 181.263 99.5455 180.986ZM118.426 183.536L104.618 197.344C104.089 197.874 103.462 198.295 102.771 198.582C102.08 198.869 101.339 199.017 100.591 199.017C99.8423 199.017 99.1014 198.869 98.4104 198.582C97.7193 198.295 97.0917 197.874 96.5635 197.344L82.7547 183.536C82.2246 183.007 81.8041 182.38 81.5172 181.689C81.2302 180.998 81.0825 180.257 81.0825 179.509C81.0825 178.76 81.2302 178.019 81.5172 177.328C81.8041 176.637 82.2246 176.01 82.7547 175.482L96.5635 161.673C97.0917 161.143 97.7193 160.722 98.4104 160.435C99.1014 160.148 99.8423 160 100.591 160C101.339 160 102.08 160.148 102.771 160.435C103.462 160.722 104.089 161.143 104.618 161.673L118.426 175.482C118.956 176.01 119.377 176.637 119.664 177.328C119.951 178.019 120.099 178.76 120.099 179.509C120.099 180.257 119.951 180.998 119.664 181.689C119.377 182.38 118.956 183.007 118.426 183.536ZM116.949 176.959L103.141 163.15C102.806 162.813 102.409 162.547 101.971 162.365C101.534 162.183 101.065 162.089 100.591 162.089C100.117 162.089 99.6472 162.183 99.2096 162.365C98.772 162.547 98.3747 162.813 98.0406 163.15L84.2317 176.959C83.5561 177.635 83.1766 178.552 83.1766 179.509C83.1766 180.465 83.5561 181.382 84.2317 182.058L98.0406 195.867C98.7275 196.523 99.6408 196.889 100.591 196.889C101.54 196.889 102.454 196.523 103.141 195.867L116.949 182.058C117.625 181.382 118.004 180.465 118.004 179.509C118.004 178.552 117.625 177.635 116.949 176.959ZM100.591 185.152C100.232 185.152 99.882 185.258 99.5842 185.457C99.2863 185.656 99.0541 185.939 98.917 186.27C98.7799 186.601 98.744 186.965 98.8139 187.317C98.8838 187.668 99.0563 187.991 99.3097 188.244C99.563 188.498 99.8858 188.67 100.237 188.74C100.589 188.81 100.953 188.774 101.284 188.637C101.615 188.5 101.898 188.268 102.097 187.97C102.296 187.672 102.402 187.322 102.402 186.963C102.402 186.725 102.355 186.49 102.264 186.27C102.173 186.05 102.04 185.851 101.871 185.682C101.703 185.514 101.504 185.381 101.284 185.29C101.064 185.199 100.828 185.152 100.591 185.152Z" fill="#B51418"/>
<path d="M147.323 167.664C147.323 169.341 146.714 170.647 145.496 171.583C144.279 172.518 142.637 172.986 140.572 172.986C139.513 172.986 138.533 172.907 137.633 172.748C136.733 172.589 135.983 172.368 135.383 172.086V169.809C136.018 170.091 136.804 170.347 137.739 170.577C138.692 170.806 139.672 170.921 140.678 170.921C142.072 170.921 143.131 170.647 143.855 170.1C144.579 169.553 144.94 168.812 144.94 167.876C144.94 167.258 144.808 166.738 144.543 166.314C144.279 165.891 143.82 165.502 143.167 165.149C142.514 164.796 141.622 164.408 140.493 163.984C138.869 163.402 137.651 162.687 136.839 161.84C136.027 160.993 135.621 159.837 135.621 158.372C135.621 157.383 135.877 156.527 136.389 155.804C136.901 155.08 137.607 154.524 138.507 154.136C139.407 153.747 140.457 153.553 141.658 153.553C142.681 153.553 143.626 153.65 144.49 153.844C145.355 154.039 146.15 154.294 146.873 154.612L146.132 156.651C145.479 156.368 144.764 156.13 143.987 155.936C143.211 155.742 142.417 155.645 141.605 155.645C140.422 155.645 139.531 155.901 138.931 156.413C138.331 156.907 138.03 157.569 138.03 158.398C138.03 159.034 138.163 159.563 138.428 159.987C138.692 160.41 139.125 160.799 139.725 161.152C140.325 161.487 141.137 161.84 142.161 162.211C143.273 162.617 144.208 163.058 144.967 163.534C145.744 163.993 146.326 164.549 146.714 165.202C147.12 165.855 147.323 166.676 147.323 167.664ZM148.589 158.531H151.078L154.149 166.605C154.414 167.329 154.652 168.009 154.864 168.644C155.076 169.279 155.235 169.888 155.341 170.471H155.447C155.552 170.03 155.72 169.456 155.95 168.75C156.179 168.026 156.417 167.303 156.664 166.579L159.55 158.531H162.065L155.95 174.68C155.438 176.022 154.794 177.09 154.017 177.884C153.24 178.678 152.164 179.075 150.787 179.075C150.363 179.075 149.993 179.049 149.675 178.996C149.357 178.961 149.084 178.916 148.854 178.863V177.01C149.048 177.045 149.278 177.081 149.543 177.116C149.825 177.151 150.116 177.169 150.416 177.169C151.228 177.169 151.881 176.94 152.375 176.481C152.87 176.022 153.267 175.413 153.567 174.654L154.308 172.774L148.589 158.531ZM173.549 168.803C173.549 170.18 173.037 171.221 172.014 171.927C170.99 172.633 169.613 172.986 167.884 172.986C166.895 172.986 166.039 172.907 165.316 172.748C164.61 172.589 163.983 172.368 163.436 172.086V169.968C164.001 170.25 164.68 170.515 165.474 170.762C166.286 170.991 167.107 171.106 167.937 171.106C169.119 171.106 169.975 170.921 170.505 170.55C171.034 170.162 171.299 169.65 171.299 169.015C171.299 168.662 171.202 168.344 171.008 168.062C170.814 167.779 170.461 167.497 169.949 167.214C169.455 166.932 168.74 166.614 167.804 166.261C166.886 165.908 166.101 165.555 165.448 165.202C164.795 164.849 164.292 164.426 163.939 163.931C163.586 163.437 163.409 162.802 163.409 162.025C163.409 160.825 163.895 159.898 164.866 159.245C165.854 158.592 167.142 158.266 168.731 158.266C169.596 158.266 170.399 158.354 171.14 158.531C171.899 158.707 172.605 158.936 173.258 159.219L172.464 161.072C171.864 160.825 171.237 160.613 170.584 160.437C169.931 160.26 169.26 160.172 168.572 160.172C167.619 160.172 166.886 160.331 166.375 160.649C165.88 160.949 165.633 161.363 165.633 161.893C165.633 162.299 165.748 162.634 165.977 162.899C166.207 163.164 166.586 163.428 167.116 163.693C167.663 163.958 168.387 164.258 169.287 164.593C170.187 164.929 170.955 165.273 171.59 165.626C172.226 165.979 172.711 166.411 173.046 166.923C173.382 167.417 173.549 168.044 173.549 168.803ZM181.717 171.08C182.07 171.08 182.432 171.053 182.803 171C183.173 170.947 183.474 170.877 183.703 170.789V172.562C183.456 172.686 183.103 172.783 182.644 172.854C182.185 172.942 181.744 172.986 181.32 172.986C180.579 172.986 179.891 172.862 179.255 172.615C178.637 172.351 178.134 171.9 177.746 171.265C177.358 170.63 177.164 169.738 177.164 168.591V160.331H175.152V159.219L177.19 158.292L178.117 155.274H179.493V158.531H183.597V160.331H179.493V168.538C179.493 169.403 179.696 170.047 180.102 170.471C180.526 170.877 181.064 171.08 181.717 171.08ZM192.025 158.266C193.225 158.266 194.266 158.531 195.149 159.06C196.031 159.59 196.702 160.34 197.161 161.31C197.638 162.264 197.876 163.384 197.876 164.673V166.076H188.159C188.195 167.682 188.601 168.909 189.377 169.756C190.172 170.586 191.275 171 192.687 171C193.587 171 194.381 170.921 195.07 170.762C195.776 170.586 196.499 170.338 197.24 170.021V172.059C196.517 172.377 195.802 172.606 195.096 172.748C194.39 172.907 193.552 172.986 192.581 172.986C191.222 172.986 190.03 172.712 189.007 172.165C187.983 171.618 187.18 170.806 186.597 169.729C186.033 168.653 185.75 167.32 185.75 165.732C185.75 164.179 186.006 162.846 186.518 161.734C187.048 160.622 187.78 159.766 188.715 159.166C189.669 158.566 190.772 158.266 192.025 158.266ZM191.998 160.172C190.886 160.172 190.004 160.534 189.351 161.257C188.715 161.963 188.336 162.952 188.212 164.223H195.44C195.423 163.022 195.14 162.052 194.593 161.31C194.046 160.551 193.181 160.172 191.998 160.172ZM217.056 158.266C218.662 158.266 219.862 158.681 220.656 159.51C221.451 160.34 221.848 161.663 221.848 163.481V172.721H219.545V163.587C219.545 161.346 218.583 160.225 216.659 160.225C215.282 160.225 214.294 160.622 213.694 161.416C213.111 162.211 212.82 163.367 212.82 164.885V172.721H210.517V163.587C210.517 161.346 209.546 160.225 207.604 160.225C206.175 160.225 205.186 160.666 204.639 161.549C204.092 162.431 203.818 163.702 203.818 165.361V172.721H201.488V158.531H203.368L203.712 160.463H203.845C204.286 159.722 204.877 159.175 205.619 158.822C206.378 158.451 207.181 158.266 208.028 158.266C210.252 158.266 211.699 159.06 212.37 160.649H212.502C212.979 159.837 213.623 159.237 214.435 158.848C215.247 158.46 216.12 158.266 217.056 158.266ZM243.99 172.721H233.426V153.818H243.99V155.909H235.809V161.813H243.513V163.878H235.809V170.63H243.99V172.721ZM254.439 158.266C254.704 158.266 254.986 158.283 255.286 158.319C255.586 158.336 255.86 158.372 256.107 158.425L255.815 160.569C255.586 160.516 255.33 160.472 255.048 160.437C254.765 160.401 254.509 160.384 254.28 160.384C253.556 160.384 252.877 160.587 252.241 160.993C251.606 161.381 251.094 161.937 250.706 162.661C250.335 163.367 250.15 164.196 250.15 165.149V172.721H247.82V158.531H249.726L249.991 161.125H250.097C250.538 160.348 251.121 159.678 251.844 159.113C252.586 158.548 253.45 158.266 254.439 158.266ZM265.375 158.266C265.64 158.266 265.922 158.283 266.222 158.319C266.523 158.336 266.796 158.372 267.043 158.425L266.752 160.569C266.523 160.516 266.267 160.472 265.984 160.437C265.702 160.401 265.446 160.384 265.216 160.384C264.493 160.384 263.813 160.587 263.178 160.993C262.542 161.381 262.031 161.937 261.642 162.661C261.272 163.367 261.086 164.196 261.086 165.149V172.721H258.757V158.531H260.663L260.927 161.125H261.033C261.475 160.348 262.057 159.678 262.781 159.113C263.522 158.548 264.387 158.266 265.375 158.266ZM281.513 165.599C281.513 167.947 280.913 169.765 279.713 171.053C278.53 172.342 276.924 172.986 274.895 172.986C273.641 172.986 272.521 172.704 271.532 172.139C270.561 171.556 269.794 170.718 269.229 169.624C268.664 168.512 268.382 167.17 268.382 165.599C268.382 163.252 268.964 161.443 270.129 160.172C271.312 158.901 272.927 158.266 274.974 158.266C276.245 158.266 277.374 158.557 278.363 159.139C279.351 159.704 280.119 160.534 280.666 161.628C281.231 162.705 281.513 164.029 281.513 165.599ZM270.791 165.599C270.791 167.276 271.117 168.609 271.77 169.597C272.441 170.568 273.5 171.053 274.948 171.053C276.377 171.053 277.427 170.568 278.098 169.597C278.769 168.609 279.104 167.276 279.104 165.599C279.104 163.923 278.769 162.608 278.098 161.655C277.427 160.701 276.368 160.225 274.921 160.225C273.474 160.225 272.424 160.701 271.77 161.655C271.117 162.608 270.791 163.923 270.791 165.599ZM291.825 158.266C292.089 158.266 292.372 158.283 292.672 158.319C292.972 158.336 293.245 158.372 293.493 158.425L293.201 160.569C292.972 160.516 292.716 160.472 292.434 160.437C292.151 160.401 291.895 160.384 291.666 160.384C290.942 160.384 290.263 160.587 289.627 160.993C288.992 161.381 288.48 161.937 288.092 162.661C287.721 163.367 287.536 164.196 287.536 165.149V172.721H285.206V158.531H287.112L287.377 161.125H287.483C287.924 160.348 288.506 159.678 289.23 159.113C289.971 158.548 290.836 158.266 291.825 158.266Z" fill="black"/>
<path d="M147.084 203.194C147.084 205.548 146.44 207.323 145.152 208.52C143.878 209.703 142.096 210.295 139.807 210.295H135.925V196.366H140.217C141.608 196.366 142.818 196.626 143.845 197.147C144.886 197.667 145.685 198.434 146.245 199.448C146.804 200.463 147.084 201.711 147.084 203.194ZM145.23 203.253C145.23 201.393 144.769 200.034 143.845 199.175C142.935 198.304 141.641 197.868 139.963 197.868H137.681V208.793H139.573C143.345 208.793 145.23 206.946 145.23 203.253ZM153.979 199.644C154.863 199.644 155.631 199.839 156.281 200.229C156.931 200.619 157.425 201.172 157.764 201.887C158.115 202.589 158.29 203.415 158.29 204.364V205.398H151.131C151.157 206.582 151.456 207.486 152.028 208.11C152.613 208.721 153.426 209.027 154.467 209.027C155.13 209.027 155.715 208.968 156.222 208.851C156.743 208.721 157.276 208.539 157.822 208.305V209.807C157.289 210.041 156.762 210.21 156.242 210.314C155.722 210.431 155.104 210.49 154.389 210.49C153.387 210.49 152.509 210.288 151.755 209.885C151.001 209.482 150.409 208.884 149.98 208.091C149.564 207.297 149.356 206.315 149.356 205.145C149.356 204 149.544 203.018 149.921 202.199C150.312 201.38 150.851 200.749 151.541 200.307C152.243 199.865 153.056 199.644 153.979 199.644ZM153.96 201.048C153.14 201.048 152.49 201.315 152.009 201.848C151.541 202.368 151.261 203.096 151.17 204.033H156.496C156.483 203.148 156.274 202.433 155.871 201.887C155.468 201.328 154.831 201.048 153.96 201.048ZM167.761 207.408C167.761 208.422 167.383 209.189 166.629 209.71C165.875 210.23 164.86 210.49 163.586 210.49C162.858 210.49 162.227 210.431 161.694 210.314C161.173 210.197 160.712 210.035 160.308 209.827V208.266C160.725 208.474 161.225 208.669 161.811 208.851C162.409 209.02 163.014 209.105 163.625 209.105C164.496 209.105 165.127 208.968 165.517 208.695C165.907 208.409 166.102 208.032 166.102 207.564C166.102 207.304 166.031 207.07 165.888 206.862C165.745 206.653 165.485 206.445 165.107 206.237C164.743 206.029 164.217 205.795 163.527 205.535C162.851 205.275 162.272 205.015 161.791 204.755C161.31 204.495 160.939 204.182 160.679 203.818C160.419 203.454 160.289 202.986 160.289 202.414C160.289 201.529 160.647 200.847 161.362 200.365C162.09 199.884 163.04 199.644 164.21 199.644C164.847 199.644 165.439 199.709 165.985 199.839C166.545 199.969 167.065 200.138 167.546 200.346L166.961 201.711C166.519 201.529 166.057 201.373 165.576 201.243C165.094 201.113 164.6 201.048 164.093 201.048C163.391 201.048 162.851 201.165 162.474 201.399C162.11 201.62 161.928 201.926 161.928 202.316C161.928 202.615 162.012 202.862 162.181 203.057C162.35 203.253 162.63 203.448 163.02 203.643C163.423 203.838 163.956 204.059 164.62 204.306C165.283 204.553 165.849 204.807 166.317 205.067C166.785 205.327 167.143 205.646 167.39 206.023C167.637 206.387 167.761 206.849 167.761 207.408ZM174.481 210.49C173.545 210.49 172.719 210.301 172.004 209.924C171.289 209.547 170.723 208.962 170.307 208.169C169.903 207.375 169.702 206.361 169.702 205.125C169.702 203.838 169.91 202.791 170.326 201.985C170.755 201.178 171.341 200.586 172.082 200.209C172.823 199.832 173.662 199.644 174.598 199.644C175.119 199.644 175.626 199.702 176.12 199.819C176.627 199.923 177.037 200.053 177.349 200.209L176.822 201.633C176.51 201.516 176.146 201.406 175.73 201.302C175.314 201.198 174.924 201.146 174.559 201.146C172.505 201.146 171.477 202.466 171.477 205.106C171.477 206.367 171.724 207.336 172.218 208.012C172.726 208.676 173.473 209.007 174.462 209.007C175.021 209.007 175.522 208.949 175.964 208.832C176.406 208.715 176.809 208.572 177.173 208.403V209.924C176.822 210.106 176.432 210.243 176.003 210.334C175.587 210.438 175.08 210.49 174.481 210.49ZM184.537 199.644C184.732 199.644 184.94 199.657 185.161 199.683C185.382 199.696 185.584 199.722 185.766 199.761L185.552 201.341C185.382 201.302 185.194 201.269 184.986 201.243C184.778 201.217 184.589 201.204 184.42 201.204C183.887 201.204 183.386 201.354 182.918 201.653C182.45 201.939 182.073 202.349 181.786 202.882C181.513 203.402 181.377 204.013 181.377 204.716V210.295H179.66V199.839H181.065L181.26 201.75H181.338C181.663 201.178 182.092 200.684 182.625 200.268C183.172 199.852 183.809 199.644 184.537 199.644ZM188.596 195.918C188.857 195.918 189.084 196.009 189.279 196.191C189.487 196.36 189.591 196.633 189.591 197.01C189.591 197.387 189.487 197.667 189.279 197.849C189.084 198.018 188.857 198.102 188.596 198.102C188.31 198.102 188.07 198.018 187.875 197.849C187.68 197.667 187.582 197.387 187.582 197.01C187.582 196.633 187.68 196.36 187.875 196.191C188.07 196.009 188.31 195.918 188.596 195.918ZM189.435 199.839V210.295H187.719V199.839H189.435ZM197.723 199.644C199.01 199.644 200.044 200.092 200.824 200.99C201.618 201.887 202.014 203.24 202.014 205.047C202.014 206.829 201.618 208.182 200.824 209.105C200.044 210.028 199.004 210.49 197.703 210.49C196.897 210.49 196.227 210.34 195.694 210.041C195.173 209.742 194.764 209.385 194.465 208.968H194.348C194.361 209.189 194.38 209.469 194.406 209.807C194.445 210.145 194.465 210.438 194.465 210.685V214.977H192.748V199.839H194.153L194.387 201.263H194.465C194.777 200.808 195.186 200.424 195.694 200.112C196.201 199.8 196.877 199.644 197.723 199.644ZM197.41 201.087C196.344 201.087 195.59 201.386 195.147 201.985C194.705 202.583 194.478 203.493 194.465 204.716V205.047C194.465 206.335 194.673 207.33 195.089 208.032C195.518 208.721 196.305 209.066 197.449 209.066C198.074 209.066 198.594 208.897 199.01 208.559C199.426 208.208 199.732 207.726 199.927 207.115C200.135 206.504 200.239 205.808 200.239 205.028C200.239 203.831 200.005 202.875 199.537 202.16C199.082 201.445 198.373 201.087 197.41 201.087ZM208.242 209.085C208.502 209.085 208.769 209.066 209.042 209.027C209.315 208.988 209.536 208.936 209.705 208.871V210.178C209.523 210.269 209.263 210.34 208.925 210.392C208.587 210.457 208.261 210.49 207.949 210.49C207.403 210.49 206.896 210.399 206.428 210.217C205.972 210.022 205.602 209.69 205.316 209.222C205.03 208.754 204.887 208.097 204.887 207.252V201.165H203.404V200.346L204.906 199.663L205.589 197.439H206.603V199.839H209.627V201.165H206.603V207.213C206.603 207.85 206.753 208.325 207.052 208.637C207.364 208.936 207.761 209.085 208.242 209.085ZM212.677 195.918C212.937 195.918 213.164 196.009 213.359 196.191C213.568 196.36 213.672 196.633 213.672 197.01C213.672 197.387 213.568 197.667 213.359 197.849C213.164 198.018 212.937 198.102 212.677 198.102C212.391 198.102 212.15 198.018 211.955 197.849C211.76 197.667 211.662 197.387 211.662 197.01C211.662 196.633 211.76 196.36 211.955 196.191C212.15 196.009 212.391 195.918 212.677 195.918ZM213.515 199.839V210.295H211.799V199.839H213.515ZM225.919 205.047C225.919 206.777 225.477 208.117 224.592 209.066C223.721 210.015 222.538 210.49 221.042 210.49C220.119 210.49 219.293 210.282 218.564 209.866C217.849 209.437 217.283 208.819 216.867 208.012C216.451 207.193 216.243 206.205 216.243 205.047C216.243 203.318 216.672 201.985 217.53 201.048C218.402 200.112 219.592 199.644 221.1 199.644C222.037 199.644 222.869 199.858 223.597 200.287C224.326 200.703 224.891 201.315 225.295 202.121C225.711 202.914 225.919 203.89 225.919 205.047ZM218.018 205.047C218.018 206.283 218.259 207.265 218.74 207.993C219.234 208.708 220.014 209.066 221.081 209.066C222.134 209.066 222.908 208.708 223.402 207.993C223.897 207.265 224.144 206.283 224.144 205.047C224.144 203.812 223.897 202.843 223.402 202.141C222.908 201.438 222.128 201.087 221.061 201.087C219.995 201.087 219.221 201.438 218.74 202.141C218.259 202.843 218.018 203.812 218.018 205.047ZM233.673 199.644C234.921 199.644 235.864 199.949 236.501 200.56C237.139 201.172 237.457 202.147 237.457 203.487V210.295H235.76V203.604C235.76 201.926 234.98 201.087 233.419 201.087C232.262 201.087 231.462 201.412 231.02 202.063C230.577 202.713 230.356 203.649 230.356 204.872V210.295H228.64V199.839H230.025L230.278 201.263H230.376C230.714 200.716 231.182 200.313 231.78 200.053C232.379 199.78 233.009 199.644 233.673 199.644ZM254.857 205.047C254.857 206.777 254.415 208.117 253.531 209.066C252.659 210.015 251.476 210.49 249.98 210.49C249.057 210.49 248.231 210.282 247.503 209.866C246.787 209.437 246.222 208.819 245.805 208.012C245.389 207.193 245.181 206.205 245.181 205.047C245.181 203.318 245.61 201.985 246.469 201.048C247.34 200.112 248.53 199.644 250.039 199.644C250.975 199.644 251.807 199.858 252.536 200.287C253.264 200.703 253.83 201.315 254.233 202.121C254.649 202.914 254.857 203.89 254.857 205.047ZM246.956 205.047C246.956 206.283 247.197 207.265 247.678 207.993C248.172 208.708 248.953 209.066 250.019 209.066C251.072 209.066 251.846 208.708 252.341 207.993C252.835 207.265 253.082 206.283 253.082 205.047C253.082 203.812 252.835 202.843 252.341 202.141C251.846 201.438 251.066 201.087 250 201.087C248.933 201.087 248.159 201.438 247.678 202.141C247.197 202.843 246.956 203.812 246.956 205.047ZM262.396 201.165H259.763V210.295H258.046V201.165H256.212V200.365L258.046 199.78V199.175C258.046 197.823 258.339 196.854 258.924 196.269C259.522 195.67 260.361 195.371 261.44 195.371C261.844 195.371 262.221 195.41 262.572 195.488C262.923 195.553 263.222 195.631 263.469 195.722L263.021 197.068C262.812 197.003 262.572 196.938 262.299 196.873C262.026 196.808 261.746 196.776 261.46 196.776C260.888 196.776 260.458 196.971 260.172 197.361C259.899 197.738 259.763 198.337 259.763 199.156V199.839H262.396V201.165ZM280.822 199.644C282.005 199.644 282.89 199.949 283.475 200.56C284.06 201.172 284.353 202.147 284.353 203.487V210.295H282.656V203.565C282.656 201.913 281.947 201.087 280.529 201.087C279.515 201.087 278.787 201.38 278.344 201.965C277.915 202.55 277.701 203.402 277.701 204.521V210.295H276.003V203.565C276.003 201.913 275.288 201.087 273.858 201.087C272.804 201.087 272.076 201.412 271.673 202.063C271.269 202.713 271.068 203.649 271.068 204.872V210.295H269.351V199.839H270.736L270.99 201.263H271.087C271.413 200.716 271.848 200.313 272.394 200.053C272.954 199.78 273.545 199.644 274.17 199.644C275.808 199.644 276.875 200.229 277.369 201.399H277.467C277.818 200.801 278.292 200.359 278.891 200.073C279.489 199.787 280.133 199.644 280.822 199.644ZM291.621 199.644C292.505 199.644 293.273 199.839 293.923 200.229C294.573 200.619 295.067 201.172 295.405 201.887C295.757 202.589 295.932 203.415 295.932 204.364V205.398H288.773C288.799 206.582 289.098 207.486 289.67 208.11C290.255 208.721 291.068 209.027 292.109 209.027C292.772 209.027 293.357 208.968 293.864 208.851C294.385 208.721 294.918 208.539 295.464 208.305V209.807C294.931 210.041 294.404 210.21 293.884 210.314C293.364 210.431 292.746 210.49 292.031 210.49C291.029 210.49 290.151 210.288 289.397 209.885C288.643 209.482 288.051 208.884 287.622 208.091C287.206 207.297 286.998 206.315 286.998 205.145C286.998 204 287.186 203.018 287.563 202.199C287.953 201.38 288.493 200.749 289.182 200.307C289.885 199.865 290.698 199.644 291.621 199.644ZM291.601 201.048C290.782 201.048 290.132 201.315 289.651 201.848C289.182 202.368 288.903 203.096 288.812 204.033H294.137C294.124 203.148 293.916 202.433 293.513 201.887C293.11 201.328 292.473 201.048 291.601 201.048ZM305.402 207.408C305.402 208.422 305.025 209.189 304.271 209.71C303.517 210.23 302.502 210.49 301.228 210.49C300.499 210.49 299.869 210.431 299.335 210.314C298.815 210.197 298.354 210.035 297.95 209.827V208.266C298.367 208.474 298.867 208.669 299.452 208.851C300.051 209.02 300.655 209.105 301.267 209.105C302.138 209.105 302.769 208.968 303.159 208.695C303.549 208.409 303.744 208.032 303.744 207.564C303.744 207.304 303.673 207.07 303.53 206.862C303.387 206.653 303.126 206.445 302.749 206.237C302.385 206.029 301.858 205.795 301.169 205.535C300.493 205.275 299.914 205.015 299.433 204.755C298.952 204.495 298.581 204.182 298.321 203.818C298.061 203.454 297.931 202.986 297.931 202.414C297.931 201.529 298.289 200.847 299.004 200.365C299.732 199.884 300.681 199.644 301.852 199.644C302.489 199.644 303.081 199.709 303.627 199.839C304.186 199.969 304.707 200.138 305.188 200.346L304.603 201.711C304.16 201.529 303.699 201.373 303.218 201.243C302.736 201.113 302.242 201.048 301.735 201.048C301.033 201.048 300.493 201.165 300.116 201.399C299.752 201.62 299.57 201.926 299.57 202.316C299.57 202.615 299.654 202.862 299.823 203.057C299.992 203.253 300.272 203.448 300.662 203.643C301.065 203.838 301.598 204.059 302.262 204.306C302.925 204.553 303.491 204.807 303.959 205.067C304.427 205.327 304.785 205.646 305.032 206.023C305.279 206.387 305.402 206.849 305.402 207.408ZM314.737 207.408C314.737 208.422 314.36 209.189 313.606 209.71C312.852 210.23 311.837 210.49 310.563 210.49C309.834 210.49 309.204 210.431 308.67 210.314C308.15 210.197 307.688 210.035 307.285 209.827V208.266C307.701 208.474 308.202 208.669 308.787 208.851C309.386 209.02 309.99 209.105 310.602 209.105C311.473 209.105 312.104 208.968 312.494 208.695C312.884 208.409 313.079 208.032 313.079 207.564C313.079 207.304 313.008 207.07 312.865 206.862C312.721 206.653 312.461 206.445 312.084 206.237C311.72 206.029 311.193 205.795 310.504 205.535C309.828 205.275 309.249 205.015 308.768 204.755C308.287 204.495 307.916 204.182 307.656 203.818C307.396 203.454 307.266 202.986 307.266 202.414C307.266 201.529 307.623 200.847 308.339 200.365C309.067 199.884 310.016 199.644 311.187 199.644C311.824 199.644 312.416 199.709 312.962 199.839C313.521 199.969 314.042 200.138 314.523 200.346L313.937 201.711C313.495 201.529 313.034 201.373 312.552 201.243C312.071 201.113 311.577 201.048 311.07 201.048C310.368 201.048 309.828 201.165 309.451 201.399C309.086 201.62 308.904 201.926 308.904 202.316C308.904 202.615 308.989 202.862 309.158 203.057C309.327 203.253 309.607 203.448 309.997 203.643C310.4 203.838 310.933 204.059 311.597 204.306C312.26 204.553 312.826 204.807 313.294 205.067C313.762 205.327 314.12 205.646 314.367 206.023C314.614 206.387 314.737 206.849 314.737 207.408ZM321.224 199.663C322.499 199.663 323.441 199.943 324.053 200.502C324.664 201.061 324.97 201.952 324.97 203.175V210.295H323.721L323.389 208.812H323.311C322.856 209.385 322.375 209.807 321.868 210.08C321.361 210.353 320.671 210.49 319.8 210.49C318.851 210.49 318.064 210.243 317.439 209.749C316.815 209.241 316.503 208.455 316.503 207.388C316.503 206.348 316.913 205.548 317.732 204.989C318.551 204.417 319.813 204.104 321.517 204.052L323.292 203.994V203.37C323.292 202.498 323.103 201.893 322.726 201.555C322.349 201.217 321.816 201.048 321.126 201.048C320.58 201.048 320.06 201.133 319.566 201.302C319.072 201.458 318.61 201.64 318.181 201.848L317.654 200.56C318.109 200.313 318.649 200.105 319.273 199.936C319.897 199.754 320.548 199.663 321.224 199.663ZM323.272 205.184L321.731 205.242C320.431 205.294 319.527 205.502 319.02 205.867C318.525 206.231 318.278 206.744 318.278 207.408C318.278 207.993 318.454 208.422 318.805 208.695C319.169 208.968 319.631 209.105 320.19 209.105C321.061 209.105 321.79 208.864 322.375 208.383C322.973 207.889 323.272 207.135 323.272 206.12V205.184ZM331.906 199.644C332.595 199.644 333.213 199.774 333.759 200.034C334.318 200.294 334.793 200.69 335.183 201.224H335.28L335.515 199.839H336.88V210.47C336.88 211.966 336.496 213.091 335.729 213.845C334.975 214.6 333.798 214.977 332.198 214.977C330.664 214.977 329.409 214.756 328.433 214.314V212.733C329.461 213.28 330.748 213.553 332.296 213.553C333.193 213.553 333.895 213.286 334.403 212.753C334.923 212.233 335.183 211.517 335.183 210.607V210.197C335.183 210.041 335.189 209.82 335.202 209.534C335.215 209.235 335.228 209.027 335.241 208.91H335.163C334.461 209.963 333.382 210.49 331.925 210.49C330.573 210.49 329.513 210.015 328.745 209.066C327.991 208.117 327.614 206.79 327.614 205.086C327.614 203.422 327.991 202.102 328.745 201.126C329.513 200.138 330.566 199.644 331.906 199.644ZM332.14 201.087C331.268 201.087 330.592 201.438 330.111 202.141C329.63 202.83 329.389 203.818 329.389 205.106C329.389 206.393 329.623 207.382 330.091 208.071C330.56 208.747 331.255 209.085 332.179 209.085C333.232 209.085 333.999 208.806 334.481 208.247C334.962 207.674 335.202 206.757 335.202 205.496V205.086C335.202 203.669 334.955 202.648 334.461 202.024C333.967 201.399 333.193 201.087 332.14 201.087ZM344.239 199.644C345.124 199.644 345.891 199.839 346.541 200.229C347.191 200.619 347.686 201.172 348.024 201.887C348.375 202.589 348.55 203.415 348.55 204.364V205.398H341.391C341.417 206.582 341.716 207.486 342.288 208.11C342.874 208.721 343.686 209.027 344.727 209.027C345.39 209.027 345.975 208.968 346.483 208.851C347.003 208.721 347.536 208.539 348.082 208.305V209.807C347.549 210.041 347.022 210.21 346.502 210.314C345.982 210.431 345.364 210.49 344.649 210.49C343.647 210.49 342.77 210.288 342.015 209.885C341.261 209.482 340.669 208.884 340.24 208.091C339.824 207.297 339.616 206.315 339.616 205.145C339.616 204 339.804 203.018 340.182 202.199C340.572 201.38 341.111 200.749 341.801 200.307C342.503 199.865 343.316 199.644 344.239 199.644ZM344.22 201.048C343.4 201.048 342.75 201.315 342.269 201.848C341.801 202.368 341.521 203.096 341.43 204.033H346.756C346.743 203.148 346.535 202.433 346.131 201.887C345.728 201.328 345.091 201.048 344.22 201.048Z" fill="black"/>
<rect width="22.2949" height="22.2949" transform="translate(568.782 168.36)" fill="#FFC0BE"/>
<path d="M580.644 179.525L585.312 174.857C585.521 174.648 585.521 174.3 585.312 174.091C585.103 173.882 584.754 173.882 584.545 174.091L579.947 178.759L575.279 174.091C575.07 173.882 574.722 173.882 574.513 174.091C574.304 174.3 574.304 174.648 574.513 174.857L579.181 179.525L574.513 184.193C574.304 184.402 574.304 184.751 574.513 184.96C574.582 185.029 574.722 185.099 574.861 185.099C575 185.099 575.14 185.029 575.209 184.96L579.947 180.222L584.615 184.89C584.685 184.96 584.824 185.029 584.963 185.029C585.103 185.029 585.242 184.96 585.312 184.89C585.521 184.681 585.521 184.333 585.312 184.124L580.644 179.525Z" fill="black"/>
</g>
<rect x="56.6972" y="126.697" width="555.978" height="105.623" rx="4.877" stroke="#FFC0BE" stroke-width="1.39343"/>
</g>
<g filter="url(#filter2_d_9044_345661)">
<mask id="path-10-outside-1_9044_345661" maskUnits="userSpaceOnUse" x="578" y="189" width="32" height="38" fill="black">
<rect fill="white" x="578" y="189" width="32" height="38"/>
<path fill-rule="evenodd" clip-rule="evenodd" d="M587.671 211L585.898 208.291C584.687 206.441 582.108 205.766 580.135 206.78L580.595 206.544C580.105 206.795 579.871 207.423 580.072 207.944L582.527 214.295C582.916 215.301 583.91 216.725 584.733 217.441C584.733 217.441 589.671 221.528 589.671 223.06V225H597.671L599.671 221L601.671 225H603.671V223.06C603.671 221.528 606.689 216.701 606.689 216.701C607.244 215.763 607.707 214.11 607.707 213.013V204.944C607.671 203.157 606.152 201.709 604.278 201.709C603.341 201.709 602.582 202.433 602.582 203.327V203.973C602.582 202.186 601.063 200.739 599.189 200.739C598.252 200.739 597.492 201.463 597.492 202.356V203.003C597.492 201.216 595.974 199.768 594.1 199.768C593.162 199.768 592.403 200.492 592.403 201.386V202.032C592.403 201.745 592.372 201.517 592.313 201.336L591.795 193.002C591.725 191.876 590.776 191 589.671 191C588.559 191 587.671 191.895 587.671 193V201V211ZM601.707 209H603.707V217H601.707V209ZM597.707 209H599.707V217H597.707V209ZM593.707 209H595.707V217H593.707V209Z"/>
</mask>
<path fill-rule="evenodd" clip-rule="evenodd" d="M587.671 211L585.898 208.291C584.687 206.441 582.108 205.766 580.135 206.78L580.595 206.544C580.105 206.795 579.871 207.423 580.072 207.944L582.527 214.295C582.916 215.301 583.91 216.725 584.733 217.441C584.733 217.441 589.671 221.528 589.671 223.06V225H597.671L599.671 221L601.671 225H603.671V223.06C603.671 221.528 606.689 216.701 606.689 216.701C607.244 215.763 607.707 214.11 607.707 213.013V204.944C607.671 203.157 606.152 201.709 604.278 201.709C603.341 201.709 602.582 202.433 602.582 203.327V203.973C602.582 202.186 601.063 200.739 599.189 200.739C598.252 200.739 597.492 201.463 597.492 202.356V203.003C597.492 201.216 595.974 199.768 594.1 199.768C593.162 199.768 592.403 200.492 592.403 201.386V202.032C592.403 201.745 592.372 201.517 592.313 201.336L591.795 193.002C591.725 191.876 590.776 191 589.671 191C588.559 191 587.671 191.895 587.671 193V201V211ZM601.707 209H603.707V217H601.707V209ZM597.707 209H599.707V217H597.707V209ZM593.707 209H595.707V217H593.707V209Z" fill="white"/>
<path d="M587.671 211L585.998 212.095L589.671 217.708V211H587.671ZM585.898 208.291L587.571 207.195L585.898 208.291ZM580.072 207.944L578.207 208.665H578.207L580.072 207.944ZM582.527 214.295L584.392 213.574L582.527 214.295ZM584.733 217.441L583.422 218.95L583.44 218.966L583.458 218.981L584.733 217.441ZM589.671 225H587.671V227H589.671V225ZM597.671 225V227H598.907L599.46 225.894L597.671 225ZM599.671 221L601.46 220.105L599.671 216.528L597.882 220.105L599.671 221ZM601.671 225L599.882 225.894L600.435 227H601.671V225ZM603.671 225V227H605.671V225H603.671ZM606.689 216.701L608.384 217.762L608.397 217.741L608.41 217.72L606.689 216.701ZM607.707 204.944H609.707V204.923L609.707 204.903L607.707 204.944ZM592.313 201.336L590.317 201.46L590.333 201.716L590.412 201.959L592.313 201.336ZM591.795 193.002L589.799 193.126L591.795 193.002ZM587.671 193H585.671H587.671ZM603.707 209H605.707V207H603.707V209ZM603.707 217V219H605.707V217H603.707ZM601.707 217H599.707V219H601.707V217ZM601.707 209V207H599.707V209H601.707ZM599.707 209H601.707V207H599.707V209ZM599.707 217V219H601.707V217H599.707ZM597.707 217H595.707V219H597.707V217ZM597.707 209V207H595.707V209H597.707ZM595.707 209H597.707V207H595.707L595.707 209ZM595.707 217V219H597.707V217H595.707ZM593.707 217H591.707V219H593.707V217ZM593.707 209V207H591.707V209H593.707ZM589.345 209.905L587.571 207.195L584.224 209.386L585.998 212.095L589.345 209.905ZM587.571 207.195C585.796 204.483 582.098 203.522 579.221 205.001L581.05 208.559C582.118 208.009 583.578 208.398 584.224 209.386L587.571 207.195ZM581.05 208.559L581.509 208.322L579.681 204.765L579.221 205.001L581.05 208.559ZM579.681 204.765C578.262 205.494 577.644 207.21 578.207 208.665L581.938 207.223C582.029 207.459 582.009 207.679 581.948 207.842C581.887 208.005 581.753 208.197 581.509 208.322L579.681 204.765ZM578.207 208.665L580.661 215.016L584.392 213.574L581.938 207.223L578.207 208.665ZM580.661 215.016C581.167 216.323 582.349 218.019 583.422 218.95L586.045 215.931C585.47 215.431 584.665 214.28 584.392 213.574L580.661 215.016ZM584.733 217.441C583.458 218.981 583.458 218.981 583.458 218.981C583.458 218.981 583.458 218.981 583.458 218.981C583.458 218.981 583.458 218.981 583.458 218.981C583.458 218.981 583.458 218.982 583.459 218.982C583.461 218.984 583.464 218.986 583.468 218.989C583.475 218.996 583.488 219.006 583.504 219.02C583.537 219.047 583.586 219.089 583.65 219.143C583.778 219.252 583.962 219.41 584.184 219.605C584.63 219.997 585.218 220.529 585.8 221.102C586.391 221.683 586.935 222.265 587.317 222.759C587.509 223.007 587.626 223.189 587.686 223.305C587.767 223.46 587.671 223.348 587.671 223.06H591.671C591.671 222.389 591.42 221.814 591.231 221.452C591.022 221.051 590.753 220.662 590.482 220.312C589.938 219.609 589.247 218.881 588.604 218.249C587.952 217.608 587.306 217.023 586.826 216.601C586.584 216.389 586.383 216.216 586.241 216.095C586.169 216.035 586.113 215.987 586.073 215.954C586.054 215.937 586.038 215.924 586.027 215.915C586.022 215.911 586.017 215.907 586.014 215.905C586.013 215.903 586.011 215.902 586.01 215.901C586.01 215.901 586.01 215.901 586.009 215.9C586.009 215.9 586.009 215.9 586.009 215.9C586.009 215.9 586.008 215.9 584.733 217.441ZM587.671 223.06V225H591.671V223.06H587.671ZM589.671 227H597.671V223H589.671V227ZM599.46 225.894L601.46 221.894L597.882 220.105L595.882 224.105L599.46 225.894ZM597.882 221.894L599.882 225.894L603.46 224.105L601.46 220.105L597.882 221.894ZM601.671 227H603.671V223H601.671V227ZM605.671 225V223.06H601.671V225H605.671ZM605.671 223.06C605.671 223.132 605.693 222.888 605.984 222.2C606.232 221.615 606.576 220.93 606.94 220.256C607.3 219.588 607.663 218.962 607.937 218.5C608.073 218.271 608.187 218.083 608.265 217.955C608.305 217.891 608.335 217.841 608.356 217.808C608.366 217.792 608.373 217.779 608.378 217.772C608.381 217.768 608.382 217.765 608.383 217.763C608.384 217.762 608.384 217.762 608.385 217.761C608.385 217.761 608.385 217.761 608.385 217.761C608.385 217.761 608.385 217.761 608.385 217.761C608.385 217.761 608.384 217.762 606.689 216.701C604.993 215.641 604.993 215.641 604.993 215.641C604.993 215.641 604.993 215.641 604.992 215.642C604.992 215.642 604.992 215.642 604.992 215.643C604.991 215.644 604.99 215.645 604.989 215.646C604.988 215.649 604.985 215.653 604.982 215.659C604.975 215.669 604.966 215.684 604.954 215.704C604.93 215.742 604.896 215.798 604.853 215.868C604.766 216.01 604.644 216.212 604.498 216.458C604.206 216.95 603.814 217.626 603.42 218.356C603.029 219.08 602.619 219.889 602.301 220.64C602.026 221.288 601.671 222.222 601.671 223.06H605.671ZM608.41 217.72C608.805 217.052 609.119 216.226 609.333 215.451C609.548 214.678 609.707 213.802 609.707 213.013H605.707C605.707 213.322 605.635 213.821 605.479 214.382C605.324 214.943 605.128 215.412 604.968 215.682L608.41 217.72ZM609.707 213.013V204.944H605.707V213.013H609.707ZM609.707 204.903C609.647 201.964 607.176 199.709 604.278 199.709V203.709C605.129 203.709 605.695 204.35 605.708 204.984L609.707 204.903ZM604.278 199.709C602.327 199.709 600.582 201.24 600.582 203.327H604.582C604.582 203.463 604.52 203.571 604.459 203.63C604.399 203.687 604.33 203.709 604.278 203.709V199.709ZM600.582 203.327V203.973H604.582V203.327H600.582ZM604.582 203.973C604.582 200.993 602.077 198.739 599.189 198.739V202.739C600.049 202.739 600.582 203.38 600.582 203.973H604.582ZM599.189 198.739C597.238 198.739 595.492 200.269 595.492 202.356H599.492C599.492 202.493 599.431 202.601 599.369 202.66C599.309 202.717 599.241 202.739 599.189 202.739V198.739ZM595.492 202.356V203.003H599.492V202.356H595.492ZM599.492 203.003C599.492 200.023 596.987 197.768 594.1 197.768V201.768C594.96 201.768 595.492 202.409 595.492 203.003H599.492ZM594.1 197.768C592.149 197.768 590.403 199.299 590.403 201.386H594.403C594.403 201.522 594.342 201.631 594.28 201.689C594.22 201.747 594.152 201.768 594.1 201.768V197.768ZM590.403 201.386V202.032H594.403V201.386H590.403ZM594.403 202.032C594.403 201.618 594.361 201.162 594.213 200.713L590.412 201.959C590.397 201.911 590.395 201.889 590.397 201.903C590.399 201.917 590.403 201.958 590.403 202.032H594.403ZM594.309 201.212L593.792 192.878L589.799 193.126L590.317 201.46L594.309 201.212ZM593.792 192.878C593.656 190.69 591.825 189 589.671 189V193C589.689 193 589.72 193.007 589.754 193.039C589.786 193.069 589.798 193.1 589.799 193.126L593.792 192.878ZM589.671 189C587.45 189 585.671 190.795 585.671 193H589.671V193V189ZM585.671 193V201H589.671V193H585.671ZM585.671 201V211H589.671V201H585.671ZM601.707 211H603.707V207L601.707 207V211ZM601.707 209V217H605.707V209H601.707ZM603.707 215H601.707V219H603.707V215ZM603.707 217V209H599.707V217H603.707ZM597.707 211H599.707V207L597.707 207V211ZM597.707 209V217H601.707V209H597.707ZM599.707 215H597.707V219H599.707V215ZM599.707 217V209H595.707V217H599.707ZM593.707 211H595.707L595.707 207L593.707 207V211ZM593.707 209V217H597.707V209H593.707ZM595.707 215H593.707V219H595.707V215ZM595.707 217V209H591.707V217H595.707Z" fill="black" fill-opacity="0.8" mask="url(#path-10-outside-1_9044_345661)"/>
</g>
</g>
<defs>
<filter id="filter0_i_9044_345661" x="-2" y="-58" width="112" height="418" filterUnits="userSpaceOnUse" color-interpolation-filters="sRGB">
<feFlood flood-opacity="0" result="BackgroundImageFix"/>
<feBlend mode="normal" in="SourceGraphic" in2="BackgroundImageFix" result="shape"/>
<feColorMatrix in="SourceAlpha" type="matrix" values="0 0 0 0 0 0 0 0 0 0 0 0 0 0 0 0 0 0 127 0" result="hardAlpha"/>
<feOffset dx="-2"/>
<feComposite in2="hardAlpha" operator="arithmetic" k2="-1" k3="1"/>
<feColorMatrix type="matrix" values="0 0 0 0 0.788235 0 0 0 0 0.788235 0 0 0 0 0.788235 0 0 0 1 0"/>
<feBlend mode="normal" in2="shape" result="effect1_innerShadow_9044_345661"/>
</filter>
<filter id="filter1_d_9044_345661" x="48.0005" y="122" width="573.372" height="123.016" filterUnits="userSpaceOnUse" color-interpolation-filters="sRGB">
<feFlood flood-opacity="0" result="BackgroundImageFix"/>
<feColorMatrix in="SourceAlpha" type="matrix" values="0 0 0 0 0 0 0 0 0 0 0 0 0 0 0 0 0 0 127 0" result="hardAlpha"/>
<feOffset dy="4"/>
<feGaussianBlur stdDeviation="4"/>
<feColorMatrix type="matrix" values="0 0 0 0 0 0 0 0 0 0 0 0 0 0 0 0 0 0 0.25 0"/>
<feBlend mode="normal" in2="BackgroundImageFix" result="effect1_dropShadow_9044_345661"/>
<feBlend mode="normal" in="SourceGraphic" in2="effect1_dropShadow_9044_345661" result="shape"/>
</filter>
<filter id="filter2_d_9044_345661" x="572.001" y="185" width="43.7065" height="49.9999" filterUnits="userSpaceOnUse" color-interpolation-filters="sRGB">
<feFlood flood-opacity="0" result="BackgroundImageFix"/>
<feColorMatrix in="SourceAlpha" type="matrix" values="0 0 0 0 0 0 0 0 0 0 0 0 0 0 0 0 0 0 127 0" result="hardAlpha"/>
<feOffset dy="1.99999"/>
<feGaussianBlur stdDeviation="2.99999"/>
<feColorMatrix type="matrix" values="0 0 0 0 0 0 0 0 0 0 0 0 0 0 0 0 0 0 0.2 0"/>
<feBlend mode="normal" in2="BackgroundImageFix" result="effect1_dropShadow_9044_345661"/>
<feBlend mode="normal" in="SourceGraphic" in2="effect1_dropShadow_9044_345661" result="shape"/>
</filter>
<clipPath id="clip0_9044_345661">
<rect width="952" height="280" fill="white"/>
</clipPath>
<clipPath id="clip1_9044_345661">
<rect x="-2" y="-37" width="1026" height="397" fill="white"/>
</clipPath>
<clipPath id="clip2_9044_345661">
<rect x="56.0005" y="126" width="557.371" height="107.016" rx="5.57371" fill="white"/>
</clipPath>
</defs>
</svg>
