<svg width="428" height="76" viewBox="0 0 428 76" fill="none" xmlns="http://www.w3.org/2000/svg">
<rect width="428" height="76" fill="white"/>
<g clip-path="url(#clip0_9044_340046)">
<rect x="14" width="400" height="76" rx="4" fill="#E4F7E4"/>
<path d="M46 24C43.2311 24 40.5243 24.8211 38.222 26.3594C35.9197 27.8978 34.1253 30.0843 33.0657 32.6424C32.0061 35.2006 31.7288 38.0155 32.269 40.7313C32.8092 43.447 34.1426 45.9416 36.1005 47.8995C38.0584 49.8574 40.553 51.1908 43.2687 51.731C45.9845 52.2712 48.7994 51.9939 51.3576 50.9343C53.9157 49.8747 56.1022 48.0803 57.6406 45.778C59.1789 43.4757 60 40.7689 60 38C60 34.287 58.525 30.726 55.8995 28.1005C53.274 25.475 49.713 24 46 24ZM46 50.5C43.5277 50.5 41.111 49.7669 39.0554 48.3934C36.9998 47.0199 35.3976 45.0676 34.4515 42.7835C33.5054 40.4995 33.2579 37.9861 33.7402 35.5614C34.2225 33.1366 35.413 30.9093 37.1612 29.1612C38.9093 27.413 41.1366 26.2225 43.5614 25.7402C45.9861 25.2579 48.4995 25.5054 50.7835 26.4515C53.0676 27.3976 55.0199 28.9998 56.3934 31.0554C57.7669 33.111 58.5 35.5277 58.5 38C58.4947 41.3136 57.1761 44.4899 54.833 46.833C52.4899 49.1761 49.3136 50.4947 46 50.5Z" fill="#2B6B2B"/>
<path d="M52.7 31.63C52.5418 31.5123 52.362 31.427 52.1708 31.3789C51.9796 31.3308 51.7808 31.3209 51.5857 31.3497C51.3907 31.3785 51.2033 31.4454 51.0341 31.5467C50.865 31.648 50.7175 31.7816 50.6 31.94L43.69 41.18L40.25 37.75C40.1114 37.6097 39.9464 37.4983 39.7644 37.4223C39.5824 37.3463 39.3872 37.3071 39.19 37.3071C38.9928 37.3071 38.7976 37.3463 38.6156 37.4223C38.4337 37.4983 38.2686 37.6097 38.13 37.75C37.8515 38.0325 37.6954 38.4133 37.6954 38.81C37.6954 39.2067 37.8515 39.5875 38.13 39.87L42.79 44.53C42.9297 44.668 43.0952 44.777 43.2771 44.8508C43.459 44.9246 43.6537 44.9617 43.85 44.96H44C44.2142 44.9444 44.4225 44.8828 44.6106 44.7792C44.7988 44.6757 44.9623 44.5327 45.09 44.36L53 33.73C53.1195 33.5729 53.2066 33.3937 53.2562 33.2026C53.3058 33.0116 53.317 32.8126 53.2891 32.6173C53.2612 32.4219 53.1947 32.234 53.0936 32.0645C52.9925 31.8951 52.8587 31.7473 52.7 31.63Z" fill="#2B6B2B"/>
<g clip-path="url(#clip1_9044_340046)">
<path d="M82.217 33H80.507V26.673H73.553V33H71.843V19.434H73.553V25.172H80.507V19.434H82.217V33ZM89.631 22.626C90.4923 22.626 91.2397 22.816 91.873 23.196C92.5063 23.576 92.9877 24.1143 93.317 24.811C93.659 25.495 93.83 26.2993 93.83 27.224V28.231H86.857C86.8823 29.3837 87.1737 30.264 87.731 30.872C88.301 31.4673 89.0927 31.765 90.106 31.765C90.752 31.765 91.322 31.708 91.816 31.594C92.3227 31.4673 92.842 31.29 93.374 31.062V32.525C92.8547 32.753 92.3417 32.9177 91.835 33.019C91.3283 33.133 90.7267 33.19 90.03 33.19C89.0547 33.19 88.1997 32.9937 87.465 32.601C86.7303 32.2083 86.154 31.6257 85.736 30.853C85.3307 30.0803 85.128 29.124 85.128 27.984C85.128 26.8693 85.3117 25.913 85.679 25.115C86.059 24.317 86.5847 23.7027 87.256 23.272C87.94 22.8413 88.7317 22.626 89.631 22.626ZM89.612 23.994C88.814 23.994 88.1807 24.2537 87.712 24.773C87.256 25.2797 86.9837 25.989 86.895 26.901H92.082C92.0693 26.0397 91.8667 25.343 91.474 24.811C91.0813 24.2663 90.4607 23.994 89.612 23.994ZM100.28 22.645C101.521 22.645 102.439 22.9173 103.035 23.462C103.63 24.0067 103.928 24.8743 103.928 26.065V33H102.712L102.389 31.556H102.313C101.869 32.1133 101.401 32.525 100.907 32.791C100.413 33.057 99.7413 33.19 98.8926 33.19C97.968 33.19 97.2016 32.9493 96.5936 32.468C95.9856 31.974 95.6816 31.2077 95.6816 30.169C95.6816 29.1557 96.0806 28.3767 96.8786 27.832C97.6766 27.2747 98.9053 26.9707 100.565 26.92L102.294 26.863V26.255C102.294 25.4063 102.11 24.8173 101.743 24.488C101.375 24.1587 100.856 23.994 100.185 23.994C99.6526 23.994 99.146 24.0763 98.6646 24.241C98.1833 24.393 97.7336 24.5703 97.3156 24.773L96.8026 23.519C97.246 23.2783 97.7716 23.0757 98.3796 22.911C98.9876 22.7337 99.621 22.645 100.28 22.645ZM102.275 28.022L100.774 28.079C99.507 28.1297 98.6266 28.3323 98.1326 28.687C97.6513 29.0417 97.4106 29.542 97.4106 30.188C97.4106 30.758 97.5816 31.176 97.9236 31.442C98.2783 31.708 98.728 31.841 99.2726 31.841C100.121 31.841 100.831 31.6067 101.401 31.138C101.983 30.6567 102.275 29.922 102.275 28.934V28.022ZM110.683 33.19C109.416 33.19 108.403 32.753 107.643 31.879C106.883 30.9923 106.503 29.675 106.503 27.927C106.503 26.179 106.883 24.8617 107.643 23.975C108.416 23.0757 109.435 22.626 110.702 22.626C111.487 22.626 112.127 22.7717 112.621 23.063C113.128 23.3543 113.539 23.709 113.856 24.127H113.97C113.945 23.9623 113.919 23.7217 113.894 23.405C113.869 23.0757 113.856 22.816 113.856 22.626V18.56H115.528V33H114.179L113.932 31.632H113.856C113.552 32.0627 113.147 32.43 112.64 32.734C112.133 33.038 111.481 33.19 110.683 33.19ZM110.949 31.803C112.026 31.803 112.779 31.5117 113.21 30.929C113.653 30.3337 113.875 29.4407 113.875 28.25V27.946C113.875 26.6793 113.666 25.7103 113.248 25.039C112.83 24.355 112.057 24.013 110.93 24.013C110.031 24.013 109.353 24.374 108.897 25.096C108.454 25.8053 108.232 26.7617 108.232 27.965C108.232 29.181 108.454 30.1247 108.897 30.796C109.353 31.4673 110.037 31.803 110.949 31.803ZM122.695 22.626C123.557 22.626 124.304 22.816 124.937 23.196C125.571 23.576 126.052 24.1143 126.381 24.811C126.723 25.495 126.894 26.2993 126.894 27.224V28.231H119.921C119.947 29.3837 120.238 30.264 120.795 30.872C121.365 31.4673 122.157 31.765 123.17 31.765C123.816 31.765 124.386 31.708 124.88 31.594C125.387 31.4673 125.906 31.29 126.438 31.062V32.525C125.919 32.753 125.406 32.9177 124.899 33.019C124.393 33.133 123.791 33.19 123.094 33.19C122.119 33.19 121.264 32.9937 120.529 32.601C119.795 32.2083 119.218 31.6257 118.8 30.853C118.395 30.0803 118.192 29.124 118.192 27.984C118.192 26.8693 118.376 25.913 118.743 25.115C119.123 24.317 119.649 23.7027 120.32 23.272C121.004 22.8413 121.796 22.626 122.695 22.626ZM122.676 23.994C121.878 23.994 121.245 24.2537 120.776 24.773C120.32 25.2797 120.048 25.989 119.959 26.901H125.146C125.134 26.0397 124.931 25.343 124.538 24.811C124.146 24.2663 123.525 23.994 122.676 23.994ZM134.237 22.626C134.427 22.626 134.63 22.6387 134.845 22.664C135.06 22.6767 135.257 22.702 135.434 22.74L135.225 24.279C135.06 24.241 134.877 24.2093 134.674 24.184C134.471 24.1587 134.288 24.146 134.123 24.146C133.604 24.146 133.116 24.2917 132.66 24.583C132.204 24.8617 131.837 25.2607 131.558 25.78C131.292 26.2867 131.159 26.882 131.159 27.566V33H129.487V22.816H130.855L131.045 24.678H131.121C131.438 24.1207 131.856 23.6393 132.375 23.234C132.907 22.8287 133.528 22.626 134.237 22.626ZM146.793 33H145.083V20.935H140.846V19.434H151.011V20.935H146.793V33ZM155.426 22.626C156.287 22.626 157.035 22.816 157.668 23.196C158.301 23.576 158.783 24.1143 159.112 24.811C159.454 25.495 159.625 26.2993 159.625 27.224V28.231H152.652C152.677 29.3837 152.969 30.264 153.526 30.872C154.096 31.4673 154.888 31.765 155.901 31.765C156.547 31.765 157.117 31.708 157.611 31.594C158.118 31.4673 158.637 31.29 159.169 31.062V32.525C158.65 32.753 158.137 32.9177 157.63 33.019C157.123 33.133 156.522 33.19 155.825 33.19C154.85 33.19 153.995 32.9937 153.26 32.601C152.525 32.2083 151.949 31.6257 151.531 30.853C151.126 30.0803 150.923 29.124 150.923 27.984C150.923 26.8693 151.107 25.913 151.474 25.115C151.854 24.317 152.38 23.7027 153.051 23.272C153.735 22.8413 154.527 22.626 155.426 22.626ZM155.407 23.994C154.609 23.994 153.976 24.2537 153.507 24.773C153.051 25.2797 152.779 25.989 152.69 26.901H157.877C157.864 26.0397 157.662 25.343 157.269 24.811C156.876 24.2663 156.256 23.994 155.407 23.994ZM164.259 27.794L160.744 22.816H162.644L165.266 26.654L167.869 22.816H169.75L166.235 27.794L169.94 33H168.04L165.266 28.934L162.454 33H160.573L164.259 27.794ZM175.304 31.822C175.557 31.822 175.817 31.803 176.083 31.765C176.349 31.727 176.564 31.6763 176.729 31.613V32.886C176.552 32.9747 176.298 33.0443 175.969 33.095C175.64 33.1583 175.323 33.19 175.019 33.19C174.487 33.19 173.993 33.1013 173.537 32.924C173.094 32.734 172.733 32.411 172.454 31.955C172.175 31.499 172.036 30.8593 172.036 30.036V24.108H170.592V23.31L172.055 22.645L172.72 20.479H173.708V22.816H176.653V24.108H173.708V29.998C173.708 30.6187 173.854 31.081 174.145 31.385C174.449 31.6763 174.835 31.822 175.304 31.822Z" fill="black"/>
<path d="M79.366 53.904C79.366 55.5933 78.904 56.8673 77.98 57.726C77.0653 58.5753 75.7867 59 74.144 59H71.358V49.004H74.438C75.4367 49.004 76.3047 49.1907 77.042 49.564C77.7887 49.9373 78.3627 50.488 78.764 51.216C79.1653 51.944 79.366 52.84 79.366 53.904ZM78.036 53.946C78.036 52.6113 77.7047 51.636 77.042 51.02C76.3887 50.3947 75.46 50.082 74.256 50.082H72.618V57.922H73.976C76.6827 57.922 78.036 56.5967 78.036 53.946ZM84.3146 51.356C84.9492 51.356 85.4999 51.496 85.9666 51.776C86.4332 52.056 86.7879 52.4527 87.0306 52.966C87.2826 53.47 87.4086 54.0627 87.4086 54.744V55.486H82.2706C82.2892 56.3353 82.5039 56.984 82.9146 57.432C83.3346 57.8707 83.9179 58.09 84.6646 58.09C85.1406 58.09 85.5606 58.048 85.9246 57.964C86.2979 57.8707 86.6806 57.74 87.0726 57.572V58.65C86.6899 58.818 86.3119 58.9393 85.9386 59.014C85.5652 59.098 85.1219 59.14 84.6086 59.14C83.8899 59.14 83.2599 58.9953 82.7186 58.706C82.1772 58.4167 81.7526 57.9873 81.4446 57.418C81.1459 56.8487 80.9966 56.144 80.9966 55.304C80.9966 54.4827 81.1319 53.778 81.4026 53.19C81.6826 52.602 82.0699 52.1493 82.5646 51.832C83.0686 51.5147 83.6519 51.356 84.3146 51.356ZM84.3006 52.364C83.7126 52.364 83.2459 52.5553 82.9006 52.938C82.5646 53.3113 82.3639 53.834 82.2986 54.506H86.1206C86.1112 53.8713 85.9619 53.358 85.6726 52.966C85.3832 52.5647 84.9259 52.364 84.3006 52.364ZM94.2049 56.928C94.2049 57.656 93.9342 58.2067 93.3929 58.58C92.8516 58.9533 92.1236 59.14 91.2089 59.14C90.6862 59.14 90.2336 59.098 89.8509 59.014C89.4776 58.93 89.1462 58.8133 88.8569 58.664V57.544C89.1556 57.6933 89.5149 57.8333 89.9349 57.964C90.3642 58.0853 90.7982 58.146 91.2369 58.146C91.8622 58.146 92.3149 58.048 92.5949 57.852C92.8749 57.6467 93.0149 57.376 93.0149 57.04C93.0149 56.8533 92.9636 56.6853 92.8609 56.536C92.7582 56.3867 92.5716 56.2373 92.3009 56.088C92.0396 55.9387 91.6616 55.7707 91.1669 55.584C90.6816 55.3973 90.2662 55.2107 89.9209 55.024C89.5756 54.8373 89.3096 54.6133 89.1229 54.352C88.9362 54.0907 88.8429 53.7547 88.8429 53.344C88.8429 52.7093 89.0996 52.2193 89.6129 51.874C90.1356 51.5287 90.8169 51.356 91.6569 51.356C92.1142 51.356 92.5389 51.4027 92.9309 51.496C93.3322 51.5893 93.7056 51.7107 94.0509 51.86L93.6309 52.84C93.3136 52.7093 92.9822 52.5973 92.6369 52.504C92.2916 52.4107 91.9369 52.364 91.5729 52.364C91.0689 52.364 90.6816 52.448 90.4109 52.616C90.1496 52.7747 90.0189 52.994 90.0189 53.274C90.0189 53.4887 90.0796 53.666 90.2009 53.806C90.3222 53.946 90.5229 54.086 90.8029 54.226C91.0922 54.366 91.4749 54.5247 91.9509 54.702C92.4269 54.8793 92.8329 55.0613 93.1689 55.248C93.5049 55.4347 93.7616 55.6633 93.9389 55.934C94.1162 56.1953 94.2049 56.5267 94.2049 56.928ZM99.0281 59.14C98.3561 59.14 97.7635 59.0047 97.2501 58.734C96.7368 58.4633 96.3308 58.0433 96.0321 57.474C95.7428 56.9047 95.5981 56.1767 95.5981 55.29C95.5981 54.366 95.7475 53.6147 96.0461 53.036C96.3541 52.4573 96.7741 52.0327 97.3061 51.762C97.8381 51.4913 98.4401 51.356 99.1121 51.356C99.4855 51.356 99.8495 51.398 100.204 51.482C100.568 51.5567 100.862 51.65 101.086 51.762L100.708 52.784C100.484 52.7 100.223 52.6207 99.9241 52.546C99.6255 52.4713 99.3455 52.434 99.0841 52.434C97.6095 52.434 96.8721 53.3813 96.8721 55.276C96.8721 56.1813 97.0495 56.8767 97.4041 57.362C97.7681 57.838 98.3048 58.076 99.0141 58.076C99.4155 58.076 99.7748 58.034 100.092 57.95C100.409 57.866 100.699 57.7633 100.96 57.642V58.734C100.708 58.8647 100.428 58.9627 100.12 59.028C99.8215 59.1027 99.4575 59.14 99.0281 59.14ZM106.245 51.356C106.385 51.356 106.534 51.3653 106.693 51.384C106.851 51.3933 106.996 51.412 107.127 51.44L106.973 52.574C106.851 52.546 106.716 52.5227 106.567 52.504C106.417 52.4853 106.282 52.476 106.161 52.476C105.778 52.476 105.419 52.5833 105.083 52.798C104.747 53.0033 104.476 53.2973 104.271 53.68C104.075 54.0533 103.977 54.492 103.977 54.996V59H102.745V51.496H103.753L103.893 52.868H103.949C104.182 52.4573 104.49 52.1027 104.873 51.804C105.265 51.5053 105.722 51.356 106.245 51.356ZM109.158 48.682C109.345 48.682 109.508 48.7473 109.648 48.878C109.797 48.9993 109.872 49.1953 109.872 49.466C109.872 49.7367 109.797 49.9373 109.648 50.068C109.508 50.1893 109.345 50.25 109.158 50.25C108.953 50.25 108.78 50.1893 108.64 50.068C108.5 49.9373 108.43 49.7367 108.43 49.466C108.43 49.1953 108.5 48.9993 108.64 48.878C108.78 48.7473 108.953 48.682 109.158 48.682ZM109.76 51.496V59H108.528V51.496H109.76ZM115.707 51.356C116.631 51.356 117.373 51.678 117.933 52.322C118.503 52.966 118.787 53.9367 118.787 55.234C118.787 56.5127 118.503 57.4833 117.933 58.146C117.373 58.8087 116.627 59.14 115.693 59.14C115.115 59.14 114.634 59.0327 114.251 58.818C113.878 58.6033 113.584 58.3467 113.369 58.048H113.285C113.295 58.2067 113.309 58.4073 113.327 58.65C113.355 58.8927 113.369 59.1027 113.369 59.28V62.36H112.137V51.496H113.145L113.313 52.518H113.369C113.593 52.1913 113.887 51.916 114.251 51.692C114.615 51.468 115.101 51.356 115.707 51.356ZM115.483 52.392C114.718 52.392 114.177 52.6067 113.859 53.036C113.542 53.4653 113.379 54.1187 113.369 54.996V55.234C113.369 56.158 113.519 56.872 113.817 57.376C114.125 57.8707 114.69 58.118 115.511 58.118C115.959 58.118 116.333 57.9967 116.631 57.754C116.93 57.502 117.149 57.1567 117.289 56.718C117.439 56.2793 117.513 55.78 117.513 55.22C117.513 54.3613 117.345 53.6753 117.009 53.162C116.683 52.6487 116.174 52.392 115.483 52.392ZM123.257 58.132C123.443 58.132 123.635 58.118 123.831 58.09C124.027 58.062 124.185 58.0247 124.307 57.978V58.916C124.176 58.9813 123.989 59.0327 123.747 59.07C123.504 59.1167 123.271 59.14 123.047 59.14C122.655 59.14 122.291 59.0747 121.955 58.944C121.628 58.804 121.362 58.566 121.157 58.23C120.951 57.894 120.849 57.4227 120.849 56.816V52.448H119.785V51.86L120.863 51.37L121.353 49.774H122.081V51.496H124.251V52.448H122.081V56.788C122.081 57.2453 122.188 57.586 122.403 57.81C122.627 58.0247 122.911 58.132 123.257 58.132ZM126.439 48.682C126.626 48.682 126.789 48.7473 126.929 48.878C127.078 48.9993 127.153 49.1953 127.153 49.466C127.153 49.7367 127.078 49.9373 126.929 50.068C126.789 50.1893 126.626 50.25 126.439 50.25C126.234 50.25 126.061 50.1893 125.921 50.068C125.781 49.9373 125.711 49.7367 125.711 49.466C125.711 49.1953 125.781 48.9993 125.921 48.878C126.061 48.7473 126.234 48.682 126.439 48.682ZM127.041 51.496V59H125.809V51.496H127.041ZM135.943 55.234C135.943 56.4753 135.625 57.4367 134.991 58.118C134.365 58.7993 133.516 59.14 132.443 59.14C131.78 59.14 131.187 58.9907 130.665 58.692C130.151 58.384 129.745 57.9407 129.447 57.362C129.148 56.774 128.999 56.0647 128.999 55.234C128.999 53.9927 129.307 53.036 129.923 52.364C130.548 51.692 131.402 51.356 132.485 51.356C133.157 51.356 133.754 51.51 134.277 51.818C134.799 52.1167 135.205 52.5553 135.495 53.134C135.793 53.7033 135.943 54.4033 135.943 55.234ZM130.273 55.234C130.273 56.1207 130.445 56.8253 130.791 57.348C131.145 57.8613 131.705 58.118 132.471 58.118C133.227 58.118 133.782 57.8613 134.137 57.348C134.491 56.8253 134.669 56.1207 134.669 55.234C134.669 54.3473 134.491 53.652 134.137 53.148C133.782 52.644 133.222 52.392 132.457 52.392C131.691 52.392 131.136 52.644 130.791 53.148C130.445 53.652 130.273 54.3473 130.273 55.234ZM141.507 51.356C142.403 51.356 143.08 51.5753 143.537 52.014C143.994 52.4527 144.223 53.1527 144.223 54.114V59H143.005V54.198C143.005 52.994 142.445 52.392 141.325 52.392C140.494 52.392 139.92 52.6253 139.603 53.092C139.286 53.5587 139.127 54.2307 139.127 55.108V59H137.895V51.496H138.889L139.071 52.518H139.141C139.384 52.126 139.72 51.8367 140.149 51.65C140.578 51.454 141.031 51.356 141.507 51.356ZM156.71 55.234C156.71 56.4753 156.393 57.4367 155.758 58.118C155.133 58.7993 154.283 59.14 153.21 59.14C152.547 59.14 151.955 58.9907 151.432 58.692C150.919 58.384 150.513 57.9407 150.214 57.362C149.915 56.774 149.766 56.0647 149.766 55.234C149.766 53.9927 150.074 53.036 150.69 52.364C151.315 51.692 152.169 51.356 153.252 51.356C153.924 51.356 154.521 51.51 155.044 51.818C155.567 52.1167 155.973 52.5553 156.262 53.134C156.561 53.7033 156.71 54.4033 156.71 55.234ZM151.04 55.234C151.04 56.1207 151.213 56.8253 151.558 57.348C151.913 57.8613 152.473 58.118 153.238 58.118C153.994 58.118 154.549 57.8613 154.904 57.348C155.259 56.8253 155.436 56.1207 155.436 55.234C155.436 54.3473 155.259 53.652 154.904 53.148C154.549 52.644 153.989 52.392 153.224 52.392C152.459 52.392 151.903 52.644 151.558 53.148C151.213 53.652 151.04 54.3473 151.04 55.234ZM162.121 52.448H160.231V59H158.999V52.448H157.683V51.874L158.999 51.454V51.02C158.999 50.0493 159.209 49.354 159.629 48.934C160.058 48.5047 160.66 48.29 161.435 48.29C161.724 48.29 161.995 48.318 162.247 48.374C162.499 48.4207 162.713 48.4767 162.891 48.542L162.569 49.508C162.419 49.4613 162.247 49.4147 162.051 49.368C161.855 49.3213 161.654 49.298 161.449 49.298C161.038 49.298 160.73 49.438 160.525 49.718C160.329 49.9887 160.231 50.418 160.231 51.006V51.496H162.121V52.448ZM175.344 51.356C176.193 51.356 176.828 51.5753 177.248 52.014C177.668 52.4527 177.878 53.1527 177.878 54.114V59H176.66V54.17C176.66 52.9847 176.151 52.392 175.134 52.392C174.406 52.392 173.883 52.602 173.566 53.022C173.258 53.442 173.104 54.0533 173.104 54.856V59H171.886V54.17C171.886 52.9847 171.373 52.392 170.346 52.392C169.59 52.392 169.067 52.6253 168.778 53.092C168.489 53.5587 168.344 54.2307 168.344 55.108V59H167.112V51.496H168.106L168.288 52.518H168.358C168.591 52.126 168.904 51.8367 169.296 51.65C169.697 51.454 170.122 51.356 170.57 51.356C171.746 51.356 172.511 51.776 172.866 52.616H172.936C173.188 52.1867 173.529 51.8693 173.958 51.664C174.387 51.4587 174.849 51.356 175.344 51.356ZM183.094 51.356C183.729 51.356 184.279 51.496 184.746 51.776C185.213 52.056 185.567 52.4527 185.81 52.966C186.062 53.47 186.188 54.0627 186.188 54.744V55.486H181.05C181.069 56.3353 181.283 56.984 181.694 57.432C182.114 57.8707 182.697 58.09 183.444 58.09C183.92 58.09 184.34 58.048 184.704 57.964C185.077 57.8707 185.46 57.74 185.852 57.572V58.65C185.469 58.818 185.091 58.9393 184.718 59.014C184.345 59.098 183.901 59.14 183.388 59.14C182.669 59.14 182.039 58.9953 181.498 58.706C180.957 58.4167 180.532 57.9873 180.224 57.418C179.925 56.8487 179.776 56.144 179.776 55.304C179.776 54.4827 179.911 53.778 180.182 53.19C180.462 52.602 180.849 52.1493 181.344 51.832C181.848 51.5147 182.431 51.356 183.094 51.356ZM183.08 52.364C182.492 52.364 182.025 52.5553 181.68 52.938C181.344 53.3113 181.143 53.834 181.078 54.506H184.9C184.891 53.8713 184.741 53.358 184.452 52.966C184.163 52.5647 183.705 52.364 183.08 52.364ZM192.984 56.928C192.984 57.656 192.714 58.2067 192.172 58.58C191.631 58.9533 190.903 59.14 189.988 59.14C189.466 59.14 189.013 59.098 188.63 59.014C188.257 58.93 187.926 58.8133 187.636 58.664V57.544C187.935 57.6933 188.294 57.8333 188.714 57.964C189.144 58.0853 189.578 58.146 190.016 58.146C190.642 58.146 191.094 58.048 191.374 57.852C191.654 57.6467 191.794 57.376 191.794 57.04C191.794 56.8533 191.743 56.6853 191.64 56.536C191.538 56.3867 191.351 56.2373 191.08 56.088C190.819 55.9387 190.441 55.7707 189.946 55.584C189.461 55.3973 189.046 55.2107 188.7 55.024C188.355 54.8373 188.089 54.6133 187.902 54.352C187.716 54.0907 187.622 53.7547 187.622 53.344C187.622 52.7093 187.879 52.2193 188.392 51.874C188.915 51.5287 189.596 51.356 190.436 51.356C190.894 51.356 191.318 51.4027 191.71 51.496C192.112 51.5893 192.485 51.7107 192.83 51.86L192.41 52.84C192.093 52.7093 191.762 52.5973 191.416 52.504C191.071 52.4107 190.716 52.364 190.352 52.364C189.848 52.364 189.461 52.448 189.19 52.616C188.929 52.7747 188.798 52.994 188.798 53.274C188.798 53.4887 188.859 53.666 188.98 53.806C189.102 53.946 189.302 54.086 189.582 54.226C189.872 54.366 190.254 54.5247 190.73 54.702C191.206 54.8793 191.612 55.0613 191.948 55.248C192.284 55.4347 192.541 55.6633 192.718 55.934C192.896 56.1953 192.984 56.5267 192.984 56.928ZM199.683 56.928C199.683 57.656 199.413 58.2067 198.871 58.58C198.33 58.9533 197.602 59.14 196.687 59.14C196.165 59.14 195.712 59.098 195.329 59.014C194.956 58.93 194.625 58.8133 194.335 58.664V57.544C194.634 57.6933 194.993 57.8333 195.413 57.964C195.843 58.0853 196.277 58.146 196.715 58.146C197.341 58.146 197.793 58.048 198.073 57.852C198.353 57.6467 198.493 57.376 198.493 57.04C198.493 56.8533 198.442 56.6853 198.339 56.536C198.237 56.3867 198.05 56.2373 197.779 56.088C197.518 55.9387 197.14 55.7707 196.645 55.584C196.16 55.3973 195.745 55.2107 195.399 55.024C195.054 54.8373 194.788 54.6133 194.601 54.352C194.415 54.0907 194.321 53.7547 194.321 53.344C194.321 52.7093 194.578 52.2193 195.091 51.874C195.614 51.5287 196.295 51.356 197.135 51.356C197.593 51.356 198.017 51.4027 198.409 51.496C198.811 51.5893 199.184 51.7107 199.529 51.86L199.109 52.84C198.792 52.7093 198.461 52.5973 198.115 52.504C197.77 52.4107 197.415 52.364 197.051 52.364C196.547 52.364 196.16 52.448 195.889 52.616C195.628 52.7747 195.497 52.994 195.497 53.274C195.497 53.4887 195.558 53.666 195.679 53.806C195.801 53.946 196.001 54.086 196.281 54.226C196.571 54.366 196.953 54.5247 197.429 54.702C197.905 54.8793 198.311 55.0613 198.647 55.248C198.983 55.4347 199.24 55.6633 199.417 55.934C199.595 56.1953 199.683 56.5267 199.683 56.928ZM204.339 51.37C205.253 51.37 205.93 51.5707 206.369 51.972C206.807 52.3733 207.027 53.0127 207.027 53.89V59H206.131L205.893 57.936H205.837C205.51 58.3467 205.165 58.65 204.801 58.846C204.437 59.042 203.942 59.14 203.317 59.14C202.635 59.14 202.071 58.9627 201.623 58.608C201.175 58.244 200.951 57.6793 200.951 56.914C200.951 56.1673 201.245 55.5933 201.833 55.192C202.421 54.7813 203.326 54.5573 204.549 54.52L205.823 54.478V54.03C205.823 53.4047 205.687 52.9707 205.417 52.728C205.146 52.4853 204.763 52.364 204.269 52.364C203.877 52.364 203.503 52.4247 203.149 52.546C202.794 52.658 202.463 52.7887 202.155 52.938L201.777 52.014C202.103 51.8367 202.491 51.6873 202.939 51.566C203.387 51.4353 203.853 51.37 204.339 51.37ZM205.809 55.332L204.703 55.374C203.769 55.4113 203.121 55.5607 202.757 55.822C202.402 56.0833 202.225 56.452 202.225 56.928C202.225 57.348 202.351 57.656 202.603 57.852C202.864 58.048 203.195 58.146 203.597 58.146C204.222 58.146 204.745 57.9733 205.165 57.628C205.594 57.2733 205.809 56.732 205.809 56.004V55.332ZM212.004 51.356C212.499 51.356 212.942 51.4493 213.334 51.636C213.736 51.8227 214.076 52.1073 214.356 52.49H214.426L214.594 51.496H215.574V59.126C215.574 60.1993 215.299 61.0067 214.748 61.548C214.207 62.0893 213.362 62.36 212.214 62.36C211.113 62.36 210.212 62.2013 209.512 61.884V60.75C210.25 61.142 211.174 61.338 212.284 61.338C212.928 61.338 213.432 61.1467 213.796 60.764C214.17 60.3907 214.356 59.8773 214.356 59.224V58.93C214.356 58.818 214.361 58.6593 214.37 58.454C214.38 58.2393 214.389 58.09 214.398 58.006H214.342C213.838 58.762 213.064 59.14 212.018 59.14C211.048 59.14 210.287 58.7993 209.736 58.118C209.195 57.4367 208.924 56.4847 208.924 55.262C208.924 54.0673 209.195 53.12 209.736 52.42C210.287 51.7107 211.043 51.356 212.004 51.356ZM212.172 52.392C211.547 52.392 211.062 52.644 210.716 53.148C210.371 53.6427 210.198 54.352 210.198 55.276C210.198 56.2 210.366 56.9093 210.702 57.404C211.038 57.8893 211.538 58.132 212.2 58.132C212.956 58.132 213.507 57.9313 213.852 57.53C214.198 57.1193 214.37 56.4613 214.37 55.556V55.262C214.37 54.2447 214.193 53.512 213.838 53.064C213.484 52.616 212.928 52.392 212.172 52.392ZM220.856 51.356C221.49 51.356 222.041 51.496 222.508 51.776C222.974 52.056 223.329 52.4527 223.572 52.966C223.824 53.47 223.95 54.0627 223.95 54.744V55.486H218.812C218.83 56.3353 219.045 56.984 219.456 57.432C219.876 57.8707 220.459 58.09 221.206 58.09C221.682 58.09 222.102 58.048 222.466 57.964C222.839 57.8707 223.222 57.74 223.614 57.572V58.65C223.231 58.818 222.853 58.9393 222.48 59.014C222.106 59.098 221.663 59.14 221.15 59.14C220.431 59.14 219.801 58.9953 219.26 58.706C218.718 58.4167 218.294 57.9873 217.986 57.418C217.687 56.8487 217.538 56.144 217.538 55.304C217.538 54.4827 217.673 53.778 217.944 53.19C218.224 52.602 218.611 52.1493 219.106 51.832C219.61 51.5147 220.193 51.356 220.856 51.356ZM220.842 52.364C220.254 52.364 219.787 52.5553 219.442 52.938C219.106 53.3113 218.905 53.834 218.84 54.506H222.662C222.652 53.8713 222.503 53.358 222.214 52.966C221.924 52.5647 221.467 52.364 220.842 52.364Z" fill="black"/>
</g>
<path d="M390.513 38.0125L393.863 34.6625C394.013 34.5125 394.013 34.2625 393.863 34.1125C393.713 33.9625 393.463 33.9625 393.313 34.1125L390.013 37.4625L386.663 34.1125C386.513 33.9625 386.263 33.9625 386.113 34.1125C385.962 34.2625 385.962 34.5125 386.113 34.6625L389.463 38.0125L386.113 41.3625C385.962 41.5125 385.962 41.7625 386.113 41.9125C386.163 41.9625 386.263 42.0125 386.363 42.0125C386.463 42.0125 386.563 41.9625 386.613 41.9125L390.013 38.5125L393.363 41.8625C393.413 41.9125 393.513 41.9625 393.613 41.9625C393.713 41.9625 393.813 41.9125 393.863 41.8625C394.013 41.7125 394.013 41.4625 393.863 41.3125L390.513 38.0125Z" fill="black"/>
</g>
<rect x="14.5" y="0.5" width="399" height="75" rx="3.5" stroke="#9CD99C"/>
<defs>
<clipPath id="clip0_9044_340046">
<rect x="14" width="400" height="76" rx="4" fill="white"/>
</clipPath>
<clipPath id="clip1_9044_340046">
<rect width="155" height="52" fill="white" transform="translate(70 12)"/>
</clipPath>
</defs>
</svg>
