<svg width="412" height="226" viewBox="0 0 412 226" fill="none" xmlns="http://www.w3.org/2000/svg">
<rect width="412" height="226" fill="white"/>
<rect x="30" y="46" width="48" height="16" fill="#FDEDED"/>
<rect x="82" y="46" width="48" height="16" fill="#FFC0BE"/>
<rect x="134" y="46" width="48" height="16" fill="#DA291C"/>
<rect x="186" y="46" width="48" height="16" fill="#B51418"/>
<mask id="path-5-inside-1_10221_32403" fill="white">
<path d="M30 82C30 79.7909 31.7909 78 34 78H378C380.209 78 382 79.7909 382 82V176C382 178.209 380.209 180 378 180H34C31.7909 180 30 178.209 30 176V82Z"/>
</mask>
<path d="M30 82C30 79.7909 31.7909 78 34 78H378C380.209 78 382 79.7909 382 82V176C382 178.209 380.209 180 378 180H34C31.7909 180 30 178.209 30 176V82Z" fill="#FEF6F6"/>
<path d="M29 77C29 74.2386 31.2386 72 34 72H378C380.761 72 383 74.2386 383 77L381 84C381 84 379.657 84 378 84H34C32.3431 84 31 84 31 84L29 77ZM383 176C383 178.761 380.761 181 378 181H34C31.2386 181 29 178.761 29 176H31C31 177.657 32.3431 179 34 179H378C379.657 179 381 177.657 381 176H383ZM34 181C31.2386 181 29 178.761 29 176V77C29 74.2386 31.2386 72 34 72V84C32.3431 84 31 84 31 84V176C31 177.657 32.3431 179 34 179V181ZM378 72C380.761 72 383 74.2386 383 77V176C383 178.761 380.761 181 378 181V179C379.657 179 381 177.657 381 176V84C381 84 379.657 84 378 84V72Z" fill="#DA291C" mask="url(#path-5-inside-1_10221_32403)"/>
<path d="M61.25 117.06V109.35C61.25 109.151 61.329 108.96 61.4697 108.82C61.6103 108.679 61.8011 108.6 62 108.6C62.1989 108.6 62.3897 108.679 62.5303 108.82C62.671 108.96 62.75 109.151 62.75 109.35V117.06C62.75 117.259 62.671 117.45 62.5303 117.59C62.3897 117.731 62.1989 117.81 62 117.81C61.8011 117.81 61.6103 117.731 61.4697 117.59C61.329 117.45 61.25 117.259 61.25 117.06ZM74.8 118.89L64.89 128.8C64.511 129.18 64.0606 129.482 63.5646 129.688C63.0687 129.894 62.537 130 62 130C61.463 130 60.9313 129.894 60.4354 129.688C59.9395 129.482 59.4891 129.18 59.11 128.8L49.2 118.89C48.8197 118.511 48.5179 118.061 48.3119 117.565C48.106 117.069 48 116.537 48 116C48 115.463 48.106 114.931 48.3119 114.435C48.5179 113.939 48.8197 113.489 49.2 113.11L59.11 103.2C59.4891 102.82 59.9395 102.518 60.4354 102.312C60.9313 102.106 61.463 102 62 102C62.537 102 63.0687 102.106 63.5646 102.312C64.0606 102.518 64.511 102.82 64.89 103.2L74.8 113.11C75.1804 113.489 75.4822 113.939 75.6881 114.435C75.894 114.931 76 115.463 76 116C76 116.537 75.894 117.069 75.6881 117.565C75.4822 118.061 75.1804 118.511 74.8 118.89ZM73.74 114.17L63.83 104.26C63.5902 104.019 63.3051 103.827 62.991 103.697C62.677 103.566 62.3402 103.499 62 103.499C61.6599 103.499 61.3231 103.566 61.009 103.697C60.6949 103.827 60.4098 104.019 60.17 104.26L50.26 114.17C49.7752 114.656 49.5028 115.314 49.5028 116C49.5028 116.686 49.7752 117.344 50.26 117.83L60.17 127.74C60.663 128.211 61.3184 128.473 62 128.473C62.6816 128.473 63.337 128.211 63.83 127.74L73.74 117.83C74.2249 117.344 74.4972 116.686 74.4972 116C74.4972 115.314 74.2249 114.656 73.74 114.17ZM62 120.05C61.7429 120.05 61.4916 120.126 61.2778 120.269C61.064 120.412 60.8974 120.615 60.799 120.853C60.7006 121.09 60.6748 121.351 60.725 121.604C60.7752 121.856 60.899 122.087 61.0808 122.269C61.2626 122.451 61.4942 122.575 61.7464 122.625C61.9986 122.675 62.26 122.649 62.4975 122.551C62.735 122.453 62.9381 122.286 63.0809 122.072C63.2238 121.858 63.3 121.607 63.3 121.35C63.3 121.179 63.2664 121.01 63.2011 120.853C63.1357 120.695 63.04 120.551 62.9193 120.431C62.7985 120.31 62.6552 120.214 62.4975 120.149C62.3398 120.084 62.1707 120.05 62 120.05Z" fill="#B51418"/>
<path d="M100.276 108.704C100.276 109.632 100.18 110.424 99.988 111.08C99.796 111.736 99.488 112.24 99.064 112.592C98.648 112.944 98.1 113.12 97.42 113.12C96.452 113.12 95.736 112.732 95.272 111.956C94.816 111.172 94.588 110.088 94.588 108.704C94.588 107.776 94.68 106.984 94.864 106.328C95.056 105.672 95.36 105.172 95.776 104.828C96.192 104.476 96.74 104.3 97.42 104.3C98.38 104.3 99.096 104.688 99.568 105.464C100.04 106.232 100.276 107.312 100.276 108.704ZM95.644 108.704C95.644 109.88 95.776 110.76 96.04 111.344C96.312 111.928 96.772 112.22 97.42 112.22C98.06 112.22 98.516 111.932 98.788 111.356C99.068 110.772 99.208 109.888 99.208 108.704C99.208 107.536 99.068 106.66 98.788 106.076C98.516 105.492 98.06 105.2 97.42 105.2C96.772 105.2 96.312 105.492 96.04 106.076C95.776 106.66 95.644 107.536 95.644 108.704ZM101.527 109.34C101.527 108.724 101.579 108.12 101.683 107.528C101.795 106.928 101.991 106.388 102.271 105.908C102.559 105.42 102.959 105.032 103.471 104.744C103.983 104.456 104.643 104.312 105.451 104.312C105.619 104.312 105.803 104.32 106.003 104.336C106.211 104.352 106.379 104.38 106.507 104.42V105.32C106.363 105.272 106.199 105.236 106.015 105.212C105.831 105.188 105.651 105.176 105.475 105.176C104.923 105.176 104.463 105.268 104.095 105.452C103.727 105.636 103.435 105.888 103.219 106.208C103.011 106.528 102.859 106.896 102.763 107.312C102.667 107.728 102.607 108.172 102.583 108.644H102.655C102.839 108.364 103.095 108.128 103.423 107.936C103.751 107.736 104.171 107.636 104.683 107.636C105.427 107.636 106.027 107.864 106.483 108.32C106.939 108.768 107.167 109.408 107.167 110.24C107.167 111.136 106.919 111.84 106.423 112.352C105.935 112.864 105.275 113.12 104.443 113.12C103.899 113.12 103.407 112.984 102.967 112.712C102.527 112.44 102.175 112.024 101.911 111.464C101.655 110.904 101.527 110.196 101.527 109.34ZM104.431 112.232C104.935 112.232 105.343 112.072 105.655 111.752C105.967 111.424 106.123 110.92 106.123 110.24C106.123 109.696 105.983 109.264 105.703 108.944C105.431 108.624 105.019 108.464 104.467 108.464C104.091 108.464 103.763 108.544 103.483 108.704C103.203 108.856 102.983 109.056 102.823 109.304C102.671 109.544 102.595 109.788 102.595 110.036C102.595 110.38 102.663 110.724 102.799 111.068C102.935 111.404 103.139 111.684 103.411 111.908C103.683 112.124 104.023 112.232 104.431 112.232ZM112.078 104.432L108.886 113H107.854L111.046 104.432H112.078ZM116.459 113H115.427V107.012C115.427 106.668 115.431 106.392 115.439 106.184C115.447 105.976 115.459 105.76 115.475 105.536C115.347 105.664 115.227 105.772 115.115 105.86C115.011 105.948 114.883 106.06 114.731 106.196L113.819 106.94L113.267 106.232L115.583 104.432H116.459V113ZM125.306 113H119.642V112.124L121.886 109.856C122.31 109.424 122.67 109.04 122.966 108.704C123.27 108.368 123.498 108.04 123.65 107.72C123.802 107.4 123.878 107.044 123.878 106.652C123.878 106.18 123.738 105.824 123.458 105.584C123.178 105.336 122.814 105.212 122.366 105.212C121.942 105.212 121.574 105.284 121.262 105.428C120.95 105.572 120.63 105.772 120.302 106.028L119.738 105.32C120.074 105.04 120.458 104.804 120.89 104.612C121.33 104.412 121.822 104.312 122.366 104.312C123.166 104.312 123.798 104.516 124.262 104.924C124.726 105.332 124.958 105.888 124.958 106.592C124.958 107.04 124.866 107.46 124.682 107.852C124.498 108.244 124.242 108.632 123.914 109.016C123.586 109.4 123.202 109.804 122.762 110.228L120.974 111.992V112.04H125.306V113ZM130.278 104.432L127.086 113H126.054L129.246 104.432H130.278ZM136.638 113H130.974V112.124L133.218 109.856C133.642 109.424 134.002 109.04 134.298 108.704C134.602 108.368 134.83 108.04 134.982 107.72C135.134 107.4 135.21 107.044 135.21 106.652C135.21 106.18 135.07 105.824 134.79 105.584C134.51 105.336 134.146 105.212 133.698 105.212C133.274 105.212 132.906 105.284 132.594 105.428C132.282 105.572 131.962 105.772 131.634 106.028L131.07 105.32C131.406 105.04 131.79 104.804 132.222 104.612C132.662 104.412 133.154 104.312 133.698 104.312C134.498 104.312 135.13 104.516 135.594 104.924C136.058 105.332 136.29 105.888 136.29 106.592C136.29 107.04 136.198 107.46 136.014 107.852C135.83 108.244 135.574 108.632 135.246 109.016C134.918 109.4 134.534 109.804 134.094 110.228L132.306 111.992V112.04H136.638V113ZM143.182 106.436C143.182 107.012 143.018 107.472 142.69 107.816C142.37 108.152 141.942 108.376 141.406 108.488V108.536C142.086 108.616 142.594 108.832 142.93 109.184C143.274 109.536 143.446 109.996 143.446 110.564C143.446 111.068 143.33 111.512 143.098 111.896C142.866 112.28 142.506 112.58 142.018 112.796C141.538 113.012 140.918 113.12 140.158 113.12C139.71 113.12 139.294 113.084 138.91 113.012C138.526 112.948 138.158 112.828 137.806 112.652V111.668C138.166 111.852 138.554 111.992 138.97 112.088C139.386 112.184 139.786 112.232 140.17 112.232C140.938 112.232 141.49 112.084 141.826 111.788C142.17 111.484 142.342 111.068 142.342 110.54C142.342 110.004 142.13 109.62 141.706 109.388C141.29 109.148 140.702 109.028 139.942 109.028H139.114V108.128H139.954C140.658 108.128 141.19 107.98 141.55 107.684C141.918 107.388 142.102 106.996 142.102 106.508C142.102 106.092 141.962 105.772 141.682 105.548C141.402 105.316 141.022 105.2 140.542 105.2C140.078 105.2 139.682 105.268 139.354 105.404C139.026 105.54 138.702 105.712 138.382 105.92L137.854 105.2C138.158 104.96 138.534 104.752 138.982 104.576C139.438 104.4 139.954 104.312 140.53 104.312C141.426 104.312 142.09 104.512 142.522 104.912C142.962 105.312 143.182 105.82 143.182 106.436ZM146.353 111.608L146.437 111.74C146.325 112.164 146.173 112.628 145.981 113.132C145.789 113.644 145.597 114.116 145.405 114.548H144.625C144.737 114.092 144.849 113.592 144.961 113.048C145.081 112.504 145.169 112.024 145.225 111.608H146.353ZM156.701 113H151.037V112.124L153.281 109.856C153.705 109.424 154.065 109.04 154.361 108.704C154.665 108.368 154.893 108.04 155.045 107.72C155.197 107.4 155.273 107.044 155.273 106.652C155.273 106.18 155.133 105.824 154.853 105.584C154.573 105.336 154.209 105.212 153.761 105.212C153.337 105.212 152.969 105.284 152.657 105.428C152.345 105.572 152.025 105.772 151.697 106.028L151.133 105.32C151.469 105.04 151.853 104.804 152.285 104.612C152.725 104.412 153.217 104.312 153.761 104.312C154.561 104.312 155.193 104.516 155.657 104.924C156.121 105.332 156.353 105.888 156.353 106.592C156.353 107.04 156.261 107.46 156.077 107.852C155.893 108.244 155.637 108.632 155.309 109.016C154.981 109.4 154.597 109.804 154.157 110.228L152.369 111.992V112.04H156.701V113ZM158.192 107.216C158.192 106.912 158.264 106.7 158.408 106.58C158.552 106.46 158.724 106.4 158.924 106.4C159.124 106.4 159.3 106.46 159.452 106.58C159.604 106.7 159.68 106.912 159.68 107.216C159.68 107.504 159.604 107.712 159.452 107.84C159.3 107.968 159.124 108.032 158.924 108.032C158.724 108.032 158.552 107.968 158.408 107.84C158.264 107.712 158.192 107.504 158.192 107.216ZM158.192 112.352C158.192 112.056 158.264 111.848 158.408 111.728C158.552 111.608 158.724 111.548 158.924 111.548C159.124 111.548 159.3 111.608 159.452 111.728C159.604 111.848 159.68 112.056 159.68 112.352C159.68 112.64 159.604 112.848 159.452 112.976C159.3 113.104 159.124 113.168 158.924 113.168C158.724 113.168 158.552 113.104 158.408 112.976C158.264 112.848 158.192 112.64 158.192 112.352ZM166.815 108.704C166.815 109.632 166.719 110.424 166.527 111.08C166.335 111.736 166.027 112.24 165.603 112.592C165.187 112.944 164.639 113.12 163.959 113.12C162.991 113.12 162.275 112.732 161.811 111.956C161.355 111.172 161.127 110.088 161.127 108.704C161.127 107.776 161.219 106.984 161.403 106.328C161.595 105.672 161.899 105.172 162.315 104.828C162.731 104.476 163.279 104.3 163.959 104.3C164.919 104.3 165.635 104.688 166.107 105.464C166.579 106.232 166.815 107.312 166.815 108.704ZM162.183 108.704C162.183 109.88 162.315 110.76 162.579 111.344C162.851 111.928 163.311 112.22 163.959 112.22C164.599 112.22 165.055 111.932 165.327 111.356C165.607 110.772 165.747 109.888 165.747 108.704C165.747 107.536 165.607 106.66 165.327 106.076C165.055 105.492 164.599 105.2 163.959 105.2C163.311 105.2 162.851 105.492 162.579 106.076C162.315 106.66 162.183 107.536 162.183 108.704ZM173.322 106.436C173.322 107.012 173.158 107.472 172.83 107.816C172.51 108.152 172.082 108.376 171.546 108.488V108.536C172.226 108.616 172.734 108.832 173.07 109.184C173.414 109.536 173.586 109.996 173.586 110.564C173.586 111.068 173.47 111.512 173.238 111.896C173.006 112.28 172.646 112.58 172.158 112.796C171.678 113.012 171.058 113.12 170.298 113.12C169.85 113.12 169.434 113.084 169.05 113.012C168.666 112.948 168.298 112.828 167.946 112.652V111.668C168.306 111.852 168.694 111.992 169.11 112.088C169.526 112.184 169.926 112.232 170.31 112.232C171.078 112.232 171.63 112.084 171.966 111.788C172.31 111.484 172.482 111.068 172.482 110.54C172.482 110.004 172.27 109.62 171.846 109.388C171.43 109.148 170.842 109.028 170.082 109.028H169.254V108.128H170.094C170.798 108.128 171.33 107.98 171.69 107.684C172.058 107.388 172.242 106.996 172.242 106.508C172.242 106.092 172.102 105.772 171.822 105.548C171.542 105.316 171.162 105.2 170.682 105.2C170.218 105.2 169.822 105.268 169.494 105.404C169.166 105.54 168.842 105.712 168.522 105.92L167.994 105.2C168.298 104.96 168.674 104.752 169.122 104.576C169.578 104.4 170.094 104.312 170.67 104.312C171.566 104.312 172.23 104.512 172.662 104.912C173.102 105.312 173.322 105.82 173.322 106.436ZM180.823 104.432C181.943 104.432 182.759 104.652 183.271 105.092C183.783 105.532 184.039 106.152 184.039 106.952C184.039 107.424 183.931 107.868 183.715 108.284C183.507 108.692 183.151 109.024 182.647 109.28C182.151 109.536 181.475 109.664 180.619 109.664H179.635V113H178.555V104.432H180.823ZM180.727 105.356H179.635V108.74H180.499C181.315 108.74 181.923 108.608 182.323 108.344C182.723 108.08 182.923 107.632 182.923 107C182.923 106.448 182.743 106.036 182.383 105.764C182.031 105.492 181.479 105.356 180.727 105.356ZM189.6 113L186.78 105.488H186.732C186.756 105.736 186.776 106.072 186.792 106.496C186.808 106.912 186.816 107.348 186.816 107.804V113H185.82V104.432H187.416L190.056 111.452H190.104L192.792 104.432H194.376V113H193.308V107.732C193.308 107.316 193.316 106.904 193.332 106.496C193.356 106.088 193.376 105.756 193.392 105.5H193.344L190.488 113H189.6Z" fill="#242424"/>
<path d="M97.066 135H95.302V125.004H100.972V126.502H97.066V129.442H100.706V130.94H97.066V135ZM103.549 124.486C103.811 124.486 104.039 124.556 104.235 124.696C104.431 124.827 104.529 125.065 104.529 125.41C104.529 125.755 104.431 125.998 104.235 126.138C104.039 126.278 103.811 126.348 103.549 126.348C103.279 126.348 103.045 126.278 102.849 126.138C102.663 125.998 102.569 125.755 102.569 125.41C102.569 125.065 102.663 124.827 102.849 124.696C103.045 124.556 103.279 124.486 103.549 124.486ZM104.431 127.412V135H102.667V127.412H104.431ZM108.451 135H106.687V124.36H108.451V135ZM113.758 127.272C114.776 127.272 115.578 127.575 116.166 128.182C116.764 128.789 117.062 129.633 117.062 130.716V131.612H112.05C112.069 132.303 112.26 132.839 112.624 133.222C112.988 133.595 113.492 133.782 114.136 133.782C114.622 133.782 115.06 133.735 115.452 133.642C115.844 133.539 116.246 133.395 116.656 133.208V134.622C116.283 134.799 115.896 134.93 115.494 135.014C115.093 135.098 114.612 135.14 114.052 135.14C113.306 135.14 112.648 135 112.078 134.72C111.509 134.431 111.061 134.001 110.734 133.432C110.417 132.853 110.258 132.13 110.258 131.262C110.258 129.965 110.576 128.975 111.21 128.294C111.854 127.613 112.704 127.272 113.758 127.272ZM113.758 128.574C113.282 128.574 112.895 128.728 112.596 129.036C112.307 129.335 112.139 129.783 112.092 130.38H115.354C115.345 129.857 115.21 129.428 114.948 129.092C114.696 128.747 114.3 128.574 113.758 128.574ZM129.212 127.412V135H127.826L127.588 134.02H127.504C127.261 134.412 126.925 134.697 126.496 134.874C126.066 135.051 125.614 135.14 125.138 135.14C124.288 135.14 123.621 134.921 123.136 134.482C122.66 134.043 122.422 133.339 122.422 132.368V127.412H124.186V132.018C124.186 132.587 124.298 133.012 124.522 133.292C124.746 133.572 125.1 133.712 125.586 133.712C126.295 133.712 126.78 133.488 127.042 133.04C127.312 132.592 127.448 131.953 127.448 131.122V127.412H129.212ZM135.45 127.272C136.337 127.272 137.051 127.603 137.592 128.266C138.134 128.919 138.404 129.895 138.404 131.192C138.404 132.489 138.124 133.474 137.564 134.146C137.014 134.809 136.295 135.14 135.408 135.14C134.848 135.14 134.396 135.037 134.05 134.832C133.705 134.627 133.43 134.389 133.224 134.118H133.112C133.14 134.295 133.164 134.487 133.182 134.692C133.21 134.897 133.224 135.093 133.224 135.28V138.36H131.46V127.412H132.888L133.14 128.42H133.224C133.439 128.103 133.719 127.832 134.064 127.608C134.41 127.384 134.872 127.272 135.45 127.272ZM134.946 128.7C134.321 128.7 133.878 128.887 133.616 129.26C133.364 129.633 133.234 130.198 133.224 130.954V131.178C133.224 131.99 133.346 132.615 133.588 133.054C133.84 133.483 134.302 133.698 134.974 133.698C135.525 133.698 135.931 133.474 136.192 133.026C136.463 132.569 136.598 131.948 136.598 131.164C136.598 130.38 136.463 129.773 136.192 129.344C135.931 128.915 135.516 128.7 134.946 128.7ZM141.988 135H140.224V124.36H141.988V135ZM151.019 131.192C151.019 132.452 150.693 133.427 150.039 134.118C149.386 134.799 148.499 135.14 147.379 135.14C146.689 135.14 146.073 134.986 145.531 134.678C144.99 134.37 144.565 133.922 144.257 133.334C143.949 132.746 143.795 132.032 143.795 131.192C143.795 129.932 144.117 128.966 144.761 128.294C145.415 127.613 146.301 127.272 147.421 127.272C148.121 127.272 148.742 127.426 149.283 127.734C149.825 128.033 150.249 128.476 150.557 129.064C150.865 129.643 151.019 130.352 151.019 131.192ZM145.601 131.192C145.601 131.995 145.741 132.615 146.021 133.054C146.311 133.493 146.773 133.712 147.407 133.712C148.033 133.712 148.49 133.493 148.779 133.054C149.069 132.615 149.213 131.995 149.213 131.192C149.213 130.389 149.069 129.773 148.779 129.344C148.49 128.915 148.028 128.7 147.393 128.7C146.759 128.7 146.301 128.915 146.021 129.344C145.741 129.773 145.601 130.389 145.601 131.192ZM155.867 127.272C156.847 127.272 157.589 127.487 158.093 127.916C158.606 128.345 158.863 129.008 158.863 129.904V135H157.617L157.267 133.95H157.211C156.884 134.361 156.539 134.664 156.175 134.86C155.811 135.047 155.316 135.14 154.691 135.14C154.01 135.14 153.445 134.949 152.997 134.566C152.549 134.183 152.325 133.591 152.325 132.788C152.325 132.004 152.61 131.416 153.179 131.024C153.758 130.632 154.63 130.413 155.797 130.366L157.113 130.324V129.946C157.113 129.461 156.996 129.115 156.763 128.91C156.53 128.705 156.203 128.602 155.783 128.602C155.4 128.602 155.032 128.658 154.677 128.77C154.332 128.873 153.986 129.003 153.641 129.162L153.081 127.93C153.454 127.734 153.879 127.575 154.355 127.454C154.84 127.333 155.344 127.272 155.867 127.272ZM157.113 131.416L156.189 131.444C155.414 131.472 154.878 131.607 154.579 131.85C154.28 132.083 154.131 132.401 154.131 132.802C154.131 133.166 154.234 133.427 154.439 133.586C154.654 133.735 154.934 133.81 155.279 133.81C155.792 133.81 156.226 133.665 156.581 133.376C156.936 133.077 157.113 132.639 157.113 132.06V131.416ZM163.579 135.14C162.702 135.14 161.988 134.813 161.437 134.16C160.896 133.497 160.625 132.517 160.625 131.22C160.625 129.913 160.901 128.929 161.451 128.266C162.002 127.603 162.725 127.272 163.621 127.272C164.181 127.272 164.639 127.379 164.993 127.594C165.357 127.809 165.647 128.07 165.861 128.378H165.945C165.917 128.247 165.889 128.051 165.861 127.79C165.833 127.519 165.819 127.263 165.819 127.02V124.36H167.583V135H166.211L165.889 134.006H165.819C165.605 134.323 165.32 134.594 164.965 134.818C164.611 135.033 164.149 135.14 163.579 135.14ZM164.111 133.712C164.765 133.712 165.222 133.525 165.483 133.152C165.754 132.779 165.894 132.214 165.903 131.458V131.234C165.903 130.422 165.773 129.801 165.511 129.372C165.259 128.933 164.783 128.714 164.083 128.714C163.542 128.714 163.127 128.938 162.837 129.386C162.557 129.825 162.417 130.445 162.417 131.248C162.417 132.051 162.562 132.662 162.851 133.082C163.141 133.502 163.561 133.712 164.111 133.712ZM177.408 128.742H175.574V135H173.81V128.742H172.592V127.902L173.81 127.398V126.88C173.81 125.909 174.039 125.237 174.496 124.864C174.963 124.481 175.597 124.29 176.4 124.29C176.764 124.29 177.095 124.323 177.394 124.388C177.702 124.444 177.954 124.509 178.15 124.584L177.702 125.9C177.543 125.853 177.366 125.811 177.17 125.774C176.983 125.727 176.778 125.704 176.554 125.704C176.209 125.704 175.957 125.811 175.798 126.026C175.649 126.231 175.574 126.53 175.574 126.922V127.412H177.408V128.742ZM181.693 127.272C182.673 127.272 183.415 127.487 183.919 127.916C184.432 128.345 184.689 129.008 184.689 129.904V135H183.443L183.093 133.95H183.037C182.71 134.361 182.365 134.664 182.001 134.86C181.637 135.047 181.142 135.14 180.517 135.14C179.836 135.14 179.271 134.949 178.823 134.566C178.375 134.183 178.151 133.591 178.151 132.788C178.151 132.004 178.436 131.416 179.005 131.024C179.584 130.632 180.456 130.413 181.623 130.366L182.939 130.324V129.946C182.939 129.461 182.822 129.115 182.589 128.91C182.356 128.705 182.029 128.602 181.609 128.602C181.226 128.602 180.858 128.658 180.503 128.77C180.158 128.873 179.812 129.003 179.467 129.162L178.907 127.93C179.28 127.734 179.705 127.575 180.181 127.454C180.666 127.333 181.17 127.272 181.693 127.272ZM182.939 131.416L182.015 131.444C181.24 131.472 180.704 131.607 180.405 131.85C180.106 132.083 179.957 132.401 179.957 132.802C179.957 133.166 180.06 133.427 180.265 133.586C180.48 133.735 180.76 133.81 181.105 133.81C181.618 133.81 182.052 133.665 182.407 133.376C182.762 133.077 182.939 132.639 182.939 132.06V131.416ZM187.782 124.486C188.043 124.486 188.272 124.556 188.468 124.696C188.664 124.827 188.762 125.065 188.762 125.41C188.762 125.755 188.664 125.998 188.468 126.138C188.272 126.278 188.043 126.348 187.782 126.348C187.511 126.348 187.278 126.278 187.082 126.138C186.895 125.998 186.802 125.755 186.802 125.41C186.802 125.065 186.895 124.827 187.082 124.696C187.278 124.556 187.511 124.486 187.782 124.486ZM188.664 127.412V135H186.9V127.412H188.664ZM192.683 135H190.919V124.36H192.683V135ZM197.991 127.272C199.008 127.272 199.811 127.575 200.399 128.182C200.996 128.789 201.295 129.633 201.295 130.716V131.612H196.283C196.301 132.303 196.493 132.839 196.857 133.222C197.221 133.595 197.725 133.782 198.369 133.782C198.854 133.782 199.293 133.735 199.685 133.642C200.077 133.539 200.478 133.395 200.889 133.208V134.622C200.515 134.799 200.128 134.93 199.727 135.014C199.325 135.098 198.845 135.14 198.285 135.14C197.538 135.14 196.88 135 196.311 134.72C195.741 134.431 195.293 134.001 194.967 133.432C194.649 132.853 194.491 132.13 194.491 131.262C194.491 129.965 194.808 128.975 195.443 128.294C196.087 127.613 196.936 127.272 197.991 127.272ZM197.991 128.574C197.515 128.574 197.127 128.728 196.829 129.036C196.539 129.335 196.371 129.783 196.325 130.38H199.587C199.577 129.857 199.442 129.428 199.181 129.092C198.929 128.747 198.532 128.574 197.991 128.574ZM205.579 135.14C204.702 135.14 203.988 134.813 203.437 134.16C202.896 133.497 202.625 132.517 202.625 131.22C202.625 129.913 202.901 128.929 203.451 128.266C204.002 127.603 204.725 127.272 205.621 127.272C206.181 127.272 206.639 127.379 206.993 127.594C207.357 127.809 207.647 128.07 207.861 128.378H207.945C207.917 128.247 207.889 128.051 207.861 127.79C207.833 127.519 207.819 127.263 207.819 127.02V124.36H209.583V135H208.211L207.889 134.006H207.819C207.605 134.323 207.32 134.594 206.965 134.818C206.611 135.033 206.149 135.14 205.579 135.14ZM206.111 133.712C206.765 133.712 207.222 133.525 207.483 133.152C207.754 132.779 207.894 132.214 207.903 131.458V131.234C207.903 130.422 207.773 129.801 207.511 129.372C207.259 128.933 206.783 128.714 206.083 128.714C205.542 128.714 205.127 128.938 204.837 129.386C204.557 129.825 204.417 130.445 204.417 131.248C204.417 132.051 204.562 132.662 204.851 133.082C205.141 133.502 205.561 133.712 206.111 133.712Z" fill="#242424"/>
<path d="M98.522 159H97.262V150.11H94.14V149.004H101.63V150.11H98.522V159ZM104.201 148.36V151.482C104.201 151.855 104.178 152.205 104.131 152.532H104.215C104.458 152.149 104.785 151.86 105.195 151.664C105.615 151.468 106.068 151.37 106.553 151.37C107.459 151.37 108.14 151.589 108.597 152.028C109.064 152.457 109.297 153.153 109.297 154.114V159H108.079V154.198C108.079 152.994 107.519 152.392 106.399 152.392C105.559 152.392 104.981 152.63 104.663 153.106C104.355 153.573 104.201 154.245 104.201 155.122V159H102.969V148.36H104.201ZM114.522 151.356C115.156 151.356 115.707 151.496 116.174 151.776C116.64 152.056 116.995 152.453 117.238 152.966C117.49 153.47 117.616 154.063 117.616 154.744V155.486H112.478C112.496 156.335 112.711 156.984 113.122 157.432C113.542 157.871 114.125 158.09 114.872 158.09C115.348 158.09 115.768 158.048 116.132 157.964C116.505 157.871 116.888 157.74 117.28 157.572V158.65C116.897 158.818 116.519 158.939 116.146 159.014C115.772 159.098 115.329 159.14 114.816 159.14C114.097 159.14 113.467 158.995 112.926 158.706C112.384 158.417 111.96 157.987 111.652 157.418C111.353 156.849 111.204 156.144 111.204 155.304C111.204 154.483 111.339 153.778 111.61 153.19C111.89 152.602 112.277 152.149 112.772 151.832C113.276 151.515 113.859 151.356 114.522 151.356ZM114.508 152.364C113.92 152.364 113.453 152.555 113.108 152.938C112.772 153.311 112.571 153.834 112.506 154.506H116.328C116.318 153.871 116.169 153.358 115.88 152.966C115.59 152.565 115.133 152.364 114.508 152.364ZM126.621 152.448H124.731V159H123.499V152.448H122.183V151.874L123.499 151.454V151.02C123.499 150.049 123.709 149.354 124.129 148.934C124.558 148.505 125.16 148.29 125.935 148.29C126.224 148.29 126.495 148.318 126.747 148.374C126.999 148.421 127.213 148.477 127.391 148.542L127.069 149.508C126.919 149.461 126.747 149.415 126.551 149.368C126.355 149.321 126.154 149.298 125.949 149.298C125.538 149.298 125.23 149.438 125.025 149.718C124.829 149.989 124.731 150.418 124.731 151.006V151.496H126.621V152.448ZM128.605 148.682C128.792 148.682 128.955 148.747 129.095 148.878C129.244 148.999 129.319 149.195 129.319 149.466C129.319 149.737 129.244 149.937 129.095 150.068C128.955 150.189 128.792 150.25 128.605 150.25C128.4 150.25 128.227 150.189 128.087 150.068C127.947 149.937 127.877 149.737 127.877 149.466C127.877 149.195 127.947 148.999 128.087 148.878C128.227 148.747 128.4 148.682 128.605 148.682ZM129.207 151.496V159H127.975V151.496H129.207ZM132.817 159H131.585V148.36H132.817V159ZM138.092 151.356C138.727 151.356 139.277 151.496 139.744 151.776C140.211 152.056 140.565 152.453 140.808 152.966C141.06 153.47 141.186 154.063 141.186 154.744V155.486H136.048C136.067 156.335 136.281 156.984 136.692 157.432C137.112 157.871 137.695 158.09 138.442 158.09C138.918 158.09 139.338 158.048 139.702 157.964C140.075 157.871 140.458 157.74 140.85 157.572V158.65C140.467 158.818 140.089 158.939 139.716 159.014C139.343 159.098 138.899 159.14 138.386 159.14C137.667 159.14 137.037 158.995 136.496 158.706C135.955 158.417 135.53 157.987 135.222 157.418C134.923 156.849 134.774 156.144 134.774 155.304C134.774 154.483 134.909 153.778 135.18 153.19C135.46 152.602 135.847 152.149 136.342 151.832C136.846 151.515 137.429 151.356 138.092 151.356ZM138.078 152.364C137.49 152.364 137.023 152.555 136.678 152.938C136.342 153.311 136.141 153.834 136.076 154.506H139.898C139.889 153.871 139.739 153.358 139.45 152.966C139.161 152.565 138.703 152.364 138.078 152.364ZM149.631 151.356C150.266 151.356 150.816 151.496 151.283 151.776C151.75 152.056 152.104 152.453 152.347 152.966C152.599 153.47 152.725 154.063 152.725 154.744V155.486H147.587C147.606 156.335 147.82 156.984 148.231 157.432C148.651 157.871 149.234 158.09 149.981 158.09C150.457 158.09 150.877 158.048 151.241 157.964C151.614 157.871 151.997 157.74 152.389 157.572V158.65C152.006 158.818 151.628 158.939 151.255 159.014C150.882 159.098 150.438 159.14 149.925 159.14C149.206 159.14 148.576 158.995 148.035 158.706C147.494 158.417 147.069 157.987 146.761 157.418C146.462 156.849 146.313 156.144 146.313 155.304C146.313 154.483 146.448 153.778 146.719 153.19C146.999 152.602 147.386 152.149 147.881 151.832C148.385 151.515 148.968 151.356 149.631 151.356ZM149.617 152.364C149.029 152.364 148.562 152.555 148.217 152.938C147.881 153.311 147.68 153.834 147.615 154.506H151.437C151.428 153.871 151.278 153.358 150.989 152.966C150.7 152.565 150.242 152.364 149.617 152.364ZM156.14 155.164L153.55 151.496H154.95L156.882 154.324L158.8 151.496H160.186L157.596 155.164L160.326 159H158.926L156.882 156.004L154.81 159H153.424L156.14 155.164ZM164.509 159.14C163.837 159.14 163.244 159.005 162.731 158.734C162.217 158.463 161.811 158.043 161.513 157.474C161.223 156.905 161.079 156.177 161.079 155.29C161.079 154.366 161.228 153.615 161.527 153.036C161.835 152.457 162.255 152.033 162.787 151.762C163.319 151.491 163.921 151.356 164.593 151.356C164.966 151.356 165.33 151.398 165.685 151.482C166.049 151.557 166.343 151.65 166.567 151.762L166.189 152.784C165.965 152.7 165.703 152.621 165.405 152.546C165.106 152.471 164.826 152.434 164.565 152.434C163.09 152.434 162.353 153.381 162.353 155.276C162.353 156.181 162.53 156.877 162.885 157.362C163.249 157.838 163.785 158.076 164.495 158.076C164.896 158.076 165.255 158.034 165.573 157.95C165.89 157.866 166.179 157.763 166.441 157.642V158.734C166.189 158.865 165.909 158.963 165.601 159.028C165.302 159.103 164.938 159.14 164.509 159.14ZM171.123 151.356C171.758 151.356 172.308 151.496 172.775 151.776C173.242 152.056 173.596 152.453 173.839 152.966C174.091 153.47 174.217 154.063 174.217 154.744V155.486H169.079C169.098 156.335 169.312 156.984 169.723 157.432C170.143 157.871 170.726 158.09 171.473 158.09C171.949 158.09 172.369 158.048 172.733 157.964C173.106 157.871 173.489 157.74 173.881 157.572V158.65C173.498 158.818 173.12 158.939 172.747 159.014C172.374 159.098 171.93 159.14 171.417 159.14C170.698 159.14 170.068 158.995 169.527 158.706C168.986 158.417 168.561 157.987 168.253 157.418C167.954 156.849 167.805 156.144 167.805 155.304C167.805 154.483 167.94 153.778 168.211 153.19C168.491 152.602 168.878 152.149 169.373 151.832C169.877 151.515 170.46 151.356 171.123 151.356ZM171.109 152.364C170.521 152.364 170.054 152.555 169.709 152.938C169.373 153.311 169.172 153.834 169.107 154.506H172.929C172.92 153.871 172.77 153.358 172.481 152.966C172.192 152.565 171.734 152.364 171.109 152.364ZM179.026 151.356C179.66 151.356 180.211 151.496 180.678 151.776C181.144 152.056 181.499 152.453 181.742 152.966C181.994 153.47 182.12 154.063 182.12 154.744V155.486H176.982C177 156.335 177.215 156.984 177.626 157.432C178.046 157.871 178.629 158.09 179.376 158.09C179.852 158.09 180.272 158.048 180.636 157.964C181.009 157.871 181.392 157.74 181.784 157.572V158.65C181.401 158.818 181.023 158.939 180.65 159.014C180.276 159.098 179.833 159.14 179.32 159.14C178.601 159.14 177.971 158.995 177.43 158.706C176.888 158.417 176.464 157.987 176.156 157.418C175.857 156.849 175.708 156.144 175.708 155.304C175.708 154.483 175.843 153.778 176.114 153.19C176.394 152.602 176.781 152.149 177.276 151.832C177.78 151.515 178.363 151.356 179.026 151.356ZM179.012 152.364C178.424 152.364 177.957 152.555 177.612 152.938C177.276 153.311 177.075 153.834 177.01 154.506H180.832C180.822 153.871 180.673 153.358 180.384 152.966C180.094 152.565 179.637 152.364 179.012 152.364ZM186.69 159.14C185.757 159.14 185.01 158.818 184.45 158.174C183.89 157.521 183.61 156.55 183.61 155.262C183.61 153.974 183.89 153.003 184.45 152.35C185.019 151.687 185.771 151.356 186.704 151.356C187.283 151.356 187.754 151.463 188.118 151.678C188.491 151.893 188.795 152.154 189.028 152.462H189.112C189.093 152.341 189.075 152.163 189.056 151.93C189.037 151.687 189.028 151.496 189.028 151.356V148.36H190.26V159H189.266L189.084 157.992H189.028C188.804 158.309 188.505 158.58 188.132 158.804C187.759 159.028 187.278 159.14 186.69 159.14ZM186.886 158.118C187.679 158.118 188.235 157.903 188.552 157.474C188.879 157.035 189.042 156.377 189.042 155.5V155.276C189.042 154.343 188.888 153.629 188.58 153.134C188.272 152.63 187.703 152.378 186.872 152.378C186.209 152.378 185.71 152.644 185.374 153.176C185.047 153.699 184.884 154.403 184.884 155.29C184.884 156.186 185.047 156.881 185.374 157.376C185.71 157.871 186.214 158.118 186.886 158.118ZM197.529 156.928C197.529 157.656 197.258 158.207 196.717 158.58C196.176 158.953 195.448 159.14 194.533 159.14C194.01 159.14 193.558 159.098 193.175 159.014C192.802 158.93 192.47 158.813 192.181 158.664V157.544C192.48 157.693 192.839 157.833 193.259 157.964C193.688 158.085 194.122 158.146 194.561 158.146C195.186 158.146 195.639 158.048 195.919 157.852C196.199 157.647 196.339 157.376 196.339 157.04C196.339 156.853 196.288 156.685 196.185 156.536C196.082 156.387 195.896 156.237 195.625 156.088C195.364 155.939 194.986 155.771 194.491 155.584C194.006 155.397 193.59 155.211 193.245 155.024C192.9 154.837 192.634 154.613 192.447 154.352C192.26 154.091 192.167 153.755 192.167 153.344C192.167 152.709 192.424 152.219 192.937 151.874C193.46 151.529 194.141 151.356 194.981 151.356C195.438 151.356 195.863 151.403 196.255 151.496C196.656 151.589 197.03 151.711 197.375 151.86L196.955 152.84C196.638 152.709 196.306 152.597 195.961 152.504C195.616 152.411 195.261 152.364 194.897 152.364C194.393 152.364 194.006 152.448 193.735 152.616C193.474 152.775 193.343 152.994 193.343 153.274C193.343 153.489 193.404 153.666 193.525 153.806C193.646 153.946 193.847 154.086 194.127 154.226C194.416 154.366 194.799 154.525 195.275 154.702C195.751 154.879 196.157 155.061 196.493 155.248C196.829 155.435 197.086 155.663 197.263 155.934C197.44 156.195 197.529 156.527 197.529 156.928ZM205.485 158.132C205.672 158.132 205.863 158.118 206.059 158.09C206.255 158.062 206.414 158.025 206.535 157.978V158.916C206.404 158.981 206.218 159.033 205.975 159.07C205.732 159.117 205.499 159.14 205.275 159.14C204.883 159.14 204.519 159.075 204.183 158.944C203.856 158.804 203.59 158.566 203.385 158.23C203.18 157.894 203.077 157.423 203.077 156.816V152.448H202.013V151.86L203.091 151.37L203.581 149.774H204.309V151.496H206.479V152.448H204.309V156.788C204.309 157.245 204.416 157.586 204.631 157.81C204.855 158.025 205.14 158.132 205.485 158.132ZM209.27 148.36V151.482C209.27 151.855 209.246 152.205 209.2 152.532H209.284C209.526 152.149 209.853 151.86 210.264 151.664C210.684 151.468 211.136 151.37 211.622 151.37C212.527 151.37 213.208 151.589 213.666 152.028C214.132 152.457 214.366 153.153 214.366 154.114V159H213.148V154.198C213.148 152.994 212.588 152.392 211.468 152.392C210.628 152.392 210.049 152.63 209.732 153.106C209.424 153.573 209.27 154.245 209.27 155.122V159H208.038V148.36H209.27ZM219.59 151.356C220.225 151.356 220.775 151.496 221.242 151.776C221.709 152.056 222.063 152.453 222.306 152.966C222.558 153.47 222.684 154.063 222.684 154.744V155.486H217.546C217.565 156.335 217.779 156.984 218.19 157.432C218.61 157.871 219.193 158.09 219.94 158.09C220.416 158.09 220.836 158.048 221.2 157.964C221.573 157.871 221.956 157.74 222.348 157.572V158.65C221.965 158.818 221.587 158.939 221.214 159.014C220.841 159.098 220.397 159.14 219.884 159.14C219.165 159.14 218.535 158.995 217.994 158.706C217.453 158.417 217.028 157.987 216.72 157.418C216.421 156.849 216.272 156.144 216.272 155.304C216.272 154.483 216.407 153.778 216.678 153.19C216.958 152.602 217.345 152.149 217.84 151.832C218.344 151.515 218.927 151.356 219.59 151.356ZM219.576 152.364C218.988 152.364 218.521 152.555 218.176 152.938C217.84 153.311 217.639 153.834 217.574 154.506H221.396C221.387 153.871 221.237 153.358 220.948 152.966C220.659 152.565 220.201 152.364 219.576 152.364ZM232.011 159H230.807V152.014C230.807 151.613 230.812 151.291 230.821 151.048C230.83 150.805 230.844 150.553 230.863 150.292C230.714 150.441 230.574 150.567 230.443 150.67C230.322 150.773 230.172 150.903 229.995 151.062L228.931 151.93L228.287 151.104L230.989 149.004H232.011V159ZM244.387 153.722H247.845V158.622C247.304 158.799 246.758 158.93 246.207 159.014C245.657 159.098 245.031 159.14 244.331 159.14C243.295 159.14 242.423 158.935 241.713 158.524C241.004 158.104 240.463 157.511 240.089 156.746C239.725 155.971 239.543 155.057 239.543 154.002C239.543 152.966 239.744 152.065 240.145 151.3C240.556 150.525 241.149 149.928 241.923 149.508C242.698 149.079 243.631 148.864 244.723 148.864C245.283 148.864 245.811 148.915 246.305 149.018C246.809 149.121 247.276 149.265 247.705 149.452L247.229 150.544C246.875 150.395 246.473 150.264 246.025 150.152C245.587 150.031 245.129 149.97 244.653 149.97C243.459 149.97 242.525 150.334 241.853 151.062C241.191 151.781 240.859 152.761 240.859 154.002C240.859 154.795 240.985 155.5 241.237 156.116C241.499 156.723 241.905 157.199 242.455 157.544C243.006 157.88 243.729 158.048 244.625 158.048C245.064 158.048 245.437 158.025 245.745 157.978C246.053 157.931 246.333 157.875 246.585 157.81V154.842H244.387V153.722ZM250.233 149.004H253.089C254.33 149.004 255.273 149.191 255.917 149.564C256.561 149.937 256.883 150.577 256.883 151.482C256.883 152.07 256.72 152.56 256.393 152.952C256.066 153.335 255.595 153.582 254.979 153.694V153.764C255.399 153.839 255.777 153.965 256.113 154.142C256.458 154.319 256.729 154.571 256.925 154.898C257.121 155.225 257.219 155.645 257.219 156.158C257.219 157.063 256.906 157.763 256.281 158.258C255.665 158.753 254.82 159 253.747 159H250.233V149.004ZM251.493 153.26H253.341C254.19 153.26 254.774 153.125 255.091 152.854C255.418 152.574 255.581 152.163 255.581 151.622C255.581 151.071 255.385 150.679 254.993 150.446C254.61 150.203 253.994 150.082 253.145 150.082H251.493V153.26ZM251.493 154.31V157.936H253.509C254.396 157.936 255.012 157.763 255.357 157.418C255.702 157.073 255.875 156.62 255.875 156.06C255.875 155.537 255.693 155.117 255.329 154.8C254.974 154.473 254.335 154.31 253.411 154.31H251.493ZM264.039 159H262.807V148.36H264.039V159ZM267.047 148.682C267.233 148.682 267.397 148.747 267.537 148.878C267.686 148.999 267.761 149.195 267.761 149.466C267.761 149.737 267.686 149.937 267.537 150.068C267.397 150.189 267.233 150.25 267.047 150.25C266.841 150.25 266.669 150.189 266.529 150.068C266.389 149.937 266.319 149.737 266.319 149.466C266.319 149.195 266.389 148.999 266.529 148.878C266.669 148.747 266.841 148.682 267.047 148.682ZM267.649 151.496V159H266.417V151.496H267.649ZM278.258 151.356C279.107 151.356 279.742 151.575 280.162 152.014C280.582 152.453 280.792 153.153 280.792 154.114V159H279.574V154.17C279.574 152.985 279.065 152.392 278.048 152.392C277.32 152.392 276.797 152.602 276.48 153.022C276.172 153.442 276.018 154.053 276.018 154.856V159H274.8V154.17C274.8 152.985 274.287 152.392 273.26 152.392C272.504 152.392 271.981 152.625 271.692 153.092C271.403 153.559 271.258 154.231 271.258 155.108V159H270.026V151.496H271.02L271.202 152.518H271.272C271.505 152.126 271.818 151.837 272.21 151.65C272.611 151.454 273.036 151.356 273.484 151.356C274.66 151.356 275.425 151.776 275.78 152.616H275.85C276.102 152.187 276.443 151.869 276.872 151.664C277.301 151.459 277.763 151.356 278.258 151.356ZM283.74 148.682C283.927 148.682 284.09 148.747 284.23 148.878C284.379 148.999 284.454 149.195 284.454 149.466C284.454 149.737 284.379 149.937 284.23 150.068C284.09 150.189 283.927 150.25 283.74 150.25C283.535 150.25 283.362 150.189 283.222 150.068C283.082 149.937 283.012 149.737 283.012 149.466C283.012 149.195 283.082 148.999 283.222 148.878C283.362 148.747 283.535 148.682 283.74 148.682ZM284.342 151.496V159H283.11V151.496H284.342ZM289.225 158.132C289.412 158.132 289.603 158.118 289.799 158.09C289.995 158.062 290.154 158.025 290.275 157.978V158.916C290.145 158.981 289.958 159.033 289.715 159.07C289.473 159.117 289.239 159.14 289.015 159.14C288.623 159.14 288.259 159.075 287.923 158.944C287.597 158.804 287.331 158.566 287.125 158.23C286.92 157.894 286.817 157.423 286.817 156.816V152.448H285.753V151.86L286.831 151.37L287.321 149.774H288.049V151.496H290.219V152.448H288.049V156.788C288.049 157.245 288.157 157.586 288.371 157.81C288.595 158.025 288.88 158.132 289.225 158.132ZM291.596 158.244C291.596 157.899 291.68 157.656 291.848 157.516C292.016 157.376 292.217 157.306 292.45 157.306C292.683 157.306 292.889 157.376 293.066 157.516C293.243 157.656 293.332 157.899 293.332 158.244C293.332 158.58 293.243 158.823 293.066 158.972C292.889 159.121 292.683 159.196 292.45 159.196C292.217 159.196 292.016 159.121 291.848 158.972C291.68 158.823 291.596 158.58 291.596 158.244Z" fill="#242424"/>
<path d="M354.512 116.013L357.862 112.663C358.012 112.513 358.012 112.263 357.862 112.113C357.712 111.962 357.462 111.962 357.312 112.113L354.012 115.463L350.662 112.113C350.512 111.962 350.262 111.962 350.112 112.113C349.963 112.263 349.963 112.513 350.112 112.663L353.462 116.013L350.112 119.363C349.963 119.513 349.963 119.763 350.112 119.913C350.162 119.963 350.262 120.013 350.362 120.013C350.462 120.013 350.562 119.963 350.612 119.913L354.012 116.513L357.362 119.863C357.412 119.913 357.512 119.963 357.612 119.963C357.712 119.963 357.812 119.913 357.862 119.863C358.012 119.713 358.012 119.463 357.862 119.313L354.512 116.013Z" fill="#323232"/>
</svg>
