<svg width="412" height="220" viewBox="0 0 412 220" fill="none" xmlns="http://www.w3.org/2000/svg">
<g clip-path="url(#clip0_10224_40055)">
<rect width="412" height="220" fill="#F1F1F1"/>
<g clip-path="url(#clip1_10224_40055)">
<g clip-path="url(#clip2_10224_40055)">
<g filter="url(#filter0_i_10224_40055)">
<rect width="71" height="251" transform="translate(-4 -20)" fill="white"/>
</g>
<rect width="548.4" height="260.4" transform="translate(67.2002 -29.1997)" fill="#F1F1F1"/>
<rect x="77.4003" y="-18.9996" width="528" height="240" fill="white"/>
<rect x="77.4003" y="-18.9996" width="528" height="240" stroke="#C9C9C9" stroke-width="1.2"/>
</g>
<g filter="url(#filter1_d_10224_40055)">
<rect x="16.4004" y="72" width="316" height="132" rx="3.6" fill="white"/>
</g>
<mask id="path-3-inside-1_10224_40055" fill="white">
<path d="M16.4004 75.6C16.4004 73.6118 18.0122 72 20.0004 72H328.8C330.789 72 332.4 73.6118 332.4 75.6V201C332.4 202.988 330.789 204.6 328.8 204.6H20.0004C18.0122 204.6 16.4004 202.988 16.4004 201V75.6Z"/>
</mask>
<path d="M16.4004 75.6C16.4004 73.6118 18.0122 72 20.0004 72H328.8C330.789 72 332.4 73.6118 332.4 75.6V201C332.4 202.988 330.789 204.6 328.8 204.6H20.0004C18.0122 204.6 16.4004 202.988 16.4004 201V75.6Z" fill="#FEF6F6"/>
<path d="M15.5004 71.1C15.5004 68.6147 17.5151 66.6 20.0004 66.6H328.8C331.286 66.6 333.3 68.6147 333.3 71.1L331.5 77.4C331.5 77.4 330.292 77.4 328.8 77.4H20.0004C18.5092 77.4 17.3004 77.4 17.3004 77.4L15.5004 71.1ZM333.3 201C333.3 203.485 331.286 205.5 328.8 205.5H20.0004C17.5151 205.5 15.5004 203.485 15.5004 201H17.3004C17.3004 202.491 18.5092 203.7 20.0004 203.7H328.8C330.292 203.7 331.5 202.491 331.5 201H333.3ZM20.0004 205.5C17.5151 205.5 15.5004 203.485 15.5004 201V71.1C15.5004 68.6147 17.5151 66.6 20.0004 66.6L20.0004 77.4C18.5092 77.4 17.3004 77.4 17.3004 77.4V201C17.3004 202.491 18.5092 203.7 20.0004 203.7L20.0004 205.5ZM328.8 66.6C331.286 66.6 333.3 68.6147 333.3 71.1V201C333.3 203.485 331.286 205.5 328.8 205.5V203.7C330.292 203.7 331.5 202.491 331.5 201V77.4C331.5 77.4 330.292 77.4 328.8 77.4V66.6Z" fill="#DA291C" mask="url(#path-3-inside-1_10224_40055)"/>
<path d="M44.5251 107.154V100.215C44.5251 100.036 44.5962 99.8644 44.7228 99.7378C44.8494 99.6112 45.0211 99.5401 45.2001 99.5401C45.3791 99.5401 45.5508 99.6112 45.6774 99.7378C45.804 99.8644 45.8751 100.036 45.8751 100.215V107.154C45.8751 107.333 45.804 107.505 45.6774 107.631C45.5508 107.758 45.3791 107.829 45.2001 107.829C45.0211 107.829 44.8494 107.758 44.7228 107.631C44.5962 107.505 44.5251 107.333 44.5251 107.154ZM56.7201 108.801L47.8011 117.72C47.46 118.062 47.0546 118.334 46.6083 118.519C46.1619 118.705 45.6834 118.8 45.2001 118.8C44.7168 118.8 44.2383 118.705 43.792 118.519C43.3456 118.334 42.9403 118.062 42.5991 117.72L33.6801 108.801C33.3378 108.46 33.0662 108.055 32.8808 107.608C32.6955 107.162 32.6001 106.683 32.6001 106.2C32.6001 105.717 32.6955 105.238 32.8808 104.792C33.0662 104.346 33.3378 103.94 33.6801 103.599L42.5991 94.6801C42.9403 94.3378 43.3456 94.0662 43.792 93.8808C44.2383 93.6955 44.7168 93.6001 45.2001 93.6001C45.6834 93.6001 46.1619 93.6955 46.6083 93.8808C47.0546 94.0662 47.46 94.3378 47.8011 94.6801L56.7201 103.599C57.0624 103.94 57.3341 104.346 57.5194 104.792C57.7047 105.238 57.8001 105.717 57.8001 106.2C57.8001 106.683 57.7047 107.162 57.5194 107.608C57.3341 108.055 57.0624 108.46 56.7201 108.801ZM55.7661 104.553L46.8471 95.6341C46.6313 95.417 46.3747 95.2446 46.092 95.127C45.8094 95.0094 45.5063 94.9489 45.2001 94.9489C44.894 94.9489 44.5908 95.0094 44.3082 95.127C44.0255 95.2446 43.7689 95.417 43.5531 95.6341L34.6341 104.553C34.1977 104.99 33.9526 105.583 33.9526 106.2C33.9526 106.818 34.1977 107.41 34.6341 107.847L43.5531 116.766C43.9968 117.19 44.5867 117.426 45.2001 117.426C45.8136 117.426 46.4034 117.19 46.8471 116.766L55.7661 107.847C56.2025 107.41 56.4476 106.818 56.4476 106.2C56.4476 105.583 56.2025 104.99 55.7661 104.553ZM45.2001 109.845C44.9687 109.845 44.7425 109.914 44.5501 110.042C44.3577 110.171 44.2077 110.354 44.1192 110.567C44.0306 110.781 44.0075 111.016 44.0526 111.243C44.0977 111.47 44.2092 111.679 44.3728 111.842C44.5364 112.006 44.7449 112.117 44.9719 112.163C45.1988 112.208 45.4341 112.185 45.6479 112.096C45.8616 112.007 46.0444 111.858 46.1729 111.665C46.3015 111.473 46.3701 111.247 46.3701 111.015C46.3701 110.861 46.3399 110.709 46.2811 110.567C46.2223 110.425 46.1361 110.296 46.0274 110.188C45.9188 110.079 45.7898 109.993 45.6479 109.934C45.5059 109.875 45.3538 109.845 45.2001 109.845Z" fill="#B51418"/>
<path d="M79.6489 102.534C79.6489 103.369 79.5625 104.082 79.3897 104.672C79.2169 105.262 78.9397 105.716 78.5581 106.033C78.1837 106.35 77.6905 106.508 77.0785 106.508C76.2073 106.508 75.5629 106.159 75.1453 105.46C74.7349 104.755 74.5297 103.779 74.5297 102.534C74.5297 101.698 74.6125 100.986 74.7781 100.395C74.9509 99.8047 75.2245 99.3547 75.5989 99.0451C75.9733 98.7283 76.4665 98.5699 77.0785 98.5699C77.9425 98.5699 78.5869 98.9191 79.0117 99.6175C79.4365 100.309 79.6489 101.281 79.6489 102.534ZM75.4801 102.534C75.4801 103.592 75.5989 104.384 75.8365 104.91C76.0813 105.435 76.4953 105.698 77.0785 105.698C77.6545 105.698 78.0649 105.439 78.3097 104.92C78.5617 104.395 78.6877 103.599 78.6877 102.534C78.6877 101.482 78.5617 100.694 78.3097 100.168C78.0649 99.6427 77.6545 99.3799 77.0785 99.3799C76.4953 99.3799 76.0813 99.6427 75.8365 100.168C75.5989 100.694 75.4801 101.482 75.4801 102.534ZM80.775 103.106C80.775 102.552 80.8218 102.008 80.9154 101.475C81.0162 100.935 81.1926 100.449 81.4446 100.017C81.7038 99.5779 82.0638 99.2287 82.5246 98.9695C82.9854 98.7103 83.5794 98.5807 84.3066 98.5807C84.4578 98.5807 84.6234 98.5879 84.8034 98.6023C84.9906 98.6167 85.1418 98.6419 85.257 98.6779V99.4879C85.1274 99.4447 84.9798 99.4123 84.8142 99.3907C84.6486 99.3691 84.4866 99.3583 84.3282 99.3583C83.8314 99.3583 83.4174 99.4411 83.0862 99.6067C82.755 99.7723 82.4922 99.9991 82.2978 100.287C82.1106 100.575 81.9738 100.906 81.8874 101.281C81.801 101.655 81.747 102.055 81.7254 102.48H81.7902C81.9558 102.228 82.1862 102.015 82.4814 101.842C82.7766 101.662 83.1546 101.572 83.6154 101.572C84.285 101.572 84.825 101.778 85.2354 102.188C85.6458 102.591 85.851 103.167 85.851 103.916C85.851 104.722 85.6278 105.356 85.1814 105.817C84.7422 106.278 84.1482 106.508 83.3994 106.508C82.9098 106.508 82.467 106.386 82.071 106.141C81.675 105.896 81.3582 105.522 81.1206 105.018C80.8902 104.514 80.775 103.876 80.775 103.106ZM83.3886 105.709C83.8422 105.709 84.2094 105.565 84.4902 105.277C84.771 104.982 84.9114 104.528 84.9114 103.916C84.9114 103.426 84.7854 103.038 84.5334 102.75C84.2886 102.462 83.9178 102.318 83.421 102.318C83.0826 102.318 82.7874 102.39 82.5354 102.534C82.2834 102.67 82.0854 102.85 81.9414 103.074C81.8046 103.29 81.7362 103.509 81.7362 103.732C81.7362 104.042 81.7974 104.352 81.9198 104.661C82.0422 104.964 82.2258 105.216 82.4706 105.417C82.7154 105.612 83.0214 105.709 83.3886 105.709ZM90.271 98.6887L87.3982 106.4H86.4694L89.3422 98.6887H90.271ZM94.2138 106.4H93.285V101.011C93.285 100.701 93.2886 100.453 93.2958 100.266C93.303 100.078 93.3138 99.8839 93.3282 99.6823C93.213 99.7975 93.105 99.8947 93.0042 99.9739C92.9106 100.053 92.7954 100.154 92.6586 100.276L91.8378 100.946L91.341 100.309L93.4254 98.6887H94.2138V106.4ZM102.176 106.4H97.0787V105.612L99.0983 103.57C99.4799 103.182 99.8039 102.836 100.07 102.534C100.344 102.231 100.549 101.936 100.686 101.648C100.823 101.36 100.891 101.04 100.891 100.687C100.891 100.262 100.765 99.9415 100.513 99.7255C100.261 99.5023 99.9335 99.3907 99.5303 99.3907C99.1487 99.3907 98.8175 99.4555 98.5367 99.5851C98.2559 99.7147 97.9679 99.8947 97.6727 100.125L97.1651 99.4879C97.4675 99.2359 97.8131 99.0235 98.2019 98.8507C98.5979 98.6707 99.0407 98.5807 99.5303 98.5807C100.25 98.5807 100.819 98.7643 101.237 99.1315C101.654 99.4987 101.863 99.9991 101.863 100.633C101.863 101.036 101.78 101.414 101.615 101.767C101.449 102.12 101.219 102.469 100.923 102.814C100.628 103.16 100.283 103.524 99.8867 103.905L98.2775 105.493V105.536H102.176V106.4ZM106.65 98.6887L103.778 106.4H102.849L105.722 98.6887H106.65ZM112.375 106.4H107.277V105.612L109.297 103.57C109.679 103.182 110.003 102.836 110.269 102.534C110.543 102.231 110.748 101.936 110.885 101.648C111.021 101.36 111.09 101.04 111.09 100.687C111.09 100.262 110.964 99.9415 110.712 99.7255C110.46 99.5023 110.132 99.3907 109.729 99.3907C109.347 99.3907 109.016 99.4555 108.735 99.5851C108.455 99.7147 108.167 99.8947 107.871 100.125L107.364 99.4879C107.666 99.2359 108.012 99.0235 108.401 98.8507C108.797 98.6707 109.239 98.5807 109.729 98.5807C110.449 98.5807 111.018 98.7643 111.435 99.1315C111.853 99.4987 112.062 99.9991 112.062 100.633C112.062 101.036 111.979 101.414 111.813 101.767C111.648 102.12 111.417 102.469 111.122 102.814C110.827 103.16 110.481 103.524 110.085 103.905L108.476 105.493V105.536H112.375V106.4ZM118.264 100.492C118.264 101.011 118.116 101.425 117.821 101.734C117.533 102.037 117.148 102.238 116.666 102.339V102.382C117.278 102.454 117.735 102.649 118.037 102.966C118.347 103.282 118.502 103.696 118.502 104.208C118.502 104.661 118.397 105.061 118.188 105.406C117.98 105.752 117.656 106.022 117.216 106.216C116.784 106.411 116.226 106.508 115.542 106.508C115.139 106.508 114.765 106.476 114.419 106.411C114.074 106.353 113.742 106.245 113.426 106.087V105.201C113.75 105.367 114.099 105.493 114.473 105.579C114.848 105.666 115.208 105.709 115.553 105.709C116.244 105.709 116.741 105.576 117.044 105.309C117.353 105.036 117.508 104.661 117.508 104.186C117.508 103.704 117.317 103.358 116.936 103.149C116.561 102.933 116.032 102.825 115.348 102.825H114.603V102.015H115.359C115.992 102.015 116.471 101.882 116.795 101.616C117.126 101.349 117.292 100.996 117.292 100.557C117.292 100.183 117.166 99.8947 116.914 99.6931C116.662 99.4843 116.32 99.3799 115.888 99.3799C115.47 99.3799 115.114 99.4411 114.819 99.5635C114.524 99.6859 114.232 99.8407 113.944 100.028L113.469 99.3799C113.742 99.1639 114.081 98.9767 114.484 98.8183C114.894 98.6599 115.359 98.5807 115.877 98.5807C116.684 98.5807 117.281 98.7607 117.67 99.1207C118.066 99.4807 118.264 99.9379 118.264 100.492ZM121.118 105.147L121.194 105.266C121.093 105.648 120.956 106.065 120.783 106.519C120.61 106.98 120.438 107.404 120.265 107.793H119.563C119.664 107.383 119.764 106.933 119.865 106.443C119.973 105.954 120.052 105.522 120.103 105.147H121.118ZM130.431 106.4H125.334V105.612L127.353 103.57C127.735 103.182 128.059 102.836 128.325 102.534C128.599 102.231 128.804 101.936 128.941 101.648C129.078 101.36 129.146 101.04 129.146 100.687C129.146 100.262 129.02 99.9415 128.768 99.7255C128.516 99.5023 128.189 99.3907 127.785 99.3907C127.404 99.3907 127.073 99.4555 126.792 99.5851C126.511 99.7147 126.223 99.8947 125.928 100.125L125.42 99.4879C125.723 99.2359 126.068 99.0235 126.457 98.8507C126.853 98.6707 127.296 98.5807 127.785 98.5807C128.505 98.5807 129.074 98.7643 129.492 99.1315C129.909 99.4987 130.118 99.9991 130.118 100.633C130.118 101.036 130.035 101.414 129.87 101.767C129.704 102.12 129.474 102.469 129.179 102.814C128.883 103.16 128.538 103.524 128.142 103.905L126.533 105.493V105.536H130.431V106.4ZM131.773 101.194C131.773 100.921 131.838 100.73 131.968 100.622C132.097 100.514 132.252 100.46 132.432 100.46C132.612 100.46 132.771 100.514 132.907 100.622C133.044 100.73 133.113 100.921 133.113 101.194C133.113 101.454 133.044 101.641 132.907 101.756C132.771 101.871 132.612 101.929 132.432 101.929C132.252 101.929 132.097 101.871 131.968 101.756C131.838 101.641 131.773 101.454 131.773 101.194ZM131.773 105.817C131.773 105.55 131.838 105.363 131.968 105.255C132.097 105.147 132.252 105.093 132.432 105.093C132.612 105.093 132.771 105.147 132.907 105.255C133.044 105.363 133.113 105.55 133.113 105.817C133.113 106.076 133.044 106.263 132.907 106.378C132.771 106.494 132.612 106.551 132.432 106.551C132.252 106.551 132.097 106.494 131.968 106.378C131.838 106.263 131.773 106.076 131.773 105.817ZM139.534 102.534C139.534 103.369 139.448 104.082 139.275 104.672C139.102 105.262 138.825 105.716 138.443 106.033C138.069 106.35 137.576 106.508 136.964 106.508C136.092 106.508 135.448 106.159 135.03 105.46C134.62 104.755 134.415 103.779 134.415 102.534C134.415 101.698 134.498 100.986 134.663 100.395C134.836 99.8047 135.11 99.3547 135.484 99.0451C135.858 98.7283 136.352 98.5699 136.964 98.5699C137.828 98.5699 138.472 98.9191 138.897 99.6175C139.322 100.309 139.534 101.281 139.534 102.534ZM135.365 102.534C135.365 103.592 135.484 104.384 135.722 104.91C135.966 105.435 136.38 105.698 136.964 105.698C137.54 105.698 137.95 105.439 138.195 104.92C138.447 104.395 138.573 103.599 138.573 102.534C138.573 101.482 138.447 100.694 138.195 100.168C137.95 99.6427 137.54 99.3799 136.964 99.3799C136.38 99.3799 135.966 99.6427 135.722 100.168C135.484 100.694 135.365 101.482 135.365 102.534ZM145.391 100.492C145.391 101.011 145.243 101.425 144.948 101.734C144.66 102.037 144.275 102.238 143.792 102.339V102.382C144.404 102.454 144.861 102.649 145.164 102.966C145.473 103.282 145.628 103.696 145.628 104.208C145.628 104.661 145.524 105.061 145.315 105.406C145.106 105.752 144.782 106.022 144.343 106.216C143.911 106.411 143.353 106.508 142.669 106.508C142.266 106.508 141.891 106.476 141.546 106.411C141.2 106.353 140.869 106.245 140.552 106.087V105.201C140.876 105.367 141.225 105.493 141.6 105.579C141.974 105.666 142.334 105.709 142.68 105.709C143.371 105.709 143.868 105.576 144.17 105.309C144.48 105.036 144.635 104.661 144.635 104.186C144.635 103.704 144.444 103.358 144.062 103.149C143.688 102.933 143.159 102.825 142.475 102.825H141.729V102.015H142.485C143.119 102.015 143.598 101.882 143.922 101.616C144.253 101.349 144.419 100.996 144.419 100.557C144.419 100.183 144.293 99.8947 144.041 99.6931C143.789 99.4843 143.447 99.3799 143.015 99.3799C142.597 99.3799 142.241 99.4411 141.945 99.5635C141.65 99.6859 141.359 99.8407 141.071 100.028L140.595 99.3799C140.869 99.1639 141.207 98.9767 141.611 98.8183C142.021 98.6599 142.485 98.5807 143.004 98.5807C143.81 98.5807 144.408 98.7607 144.797 99.1207C145.193 99.4807 145.391 99.9379 145.391 100.492ZM152.141 98.6887C153.149 98.6887 153.883 98.8867 154.344 99.2827C154.805 99.6787 155.035 100.237 155.035 100.957C155.035 101.382 154.938 101.781 154.744 102.156C154.556 102.523 154.236 102.822 153.782 103.052C153.336 103.282 152.728 103.398 151.957 103.398H151.072V106.4H150.1V98.6887H152.141ZM152.054 99.5203H151.072V102.566H151.849C152.584 102.566 153.131 102.447 153.491 102.21C153.851 101.972 154.031 101.569 154.031 101C154.031 100.503 153.869 100.132 153.545 99.8875C153.228 99.6427 152.731 99.5203 152.054 99.5203ZM160.041 106.4L157.503 99.6391H157.46C157.481 99.8623 157.499 100.165 157.514 100.546C157.528 100.921 157.535 101.313 157.535 101.724V106.4H156.639V98.6887H158.075L160.451 105.007H160.494L162.914 98.6887H164.339V106.4H163.378V101.659C163.378 101.284 163.385 100.914 163.4 100.546C163.421 100.179 163.439 99.8803 163.454 99.6499H163.41L160.84 106.4H160.041Z" fill="#242424"/>
<path d="M80.4013 125.543C80.4013 126.341 80.1115 126.971 79.5319 127.433C78.9523 127.895 78.1501 128.126 77.1253 128.126C76.1341 128.126 75.2941 127.958 74.6053 127.622V126.11C74.9833 126.278 75.3991 126.433 75.8527 126.576C76.3147 126.711 76.7767 126.778 77.2387 126.778C77.7847 126.778 78.1795 126.673 78.4231 126.463C78.6751 126.244 78.8011 125.967 78.8011 125.631C78.8011 125.262 78.6415 124.968 78.3223 124.749C78.0031 124.522 77.5369 124.279 76.9237 124.018C76.5541 123.867 76.1971 123.682 75.8527 123.464C75.5167 123.237 75.2395 122.956 75.0211 122.62C74.8111 122.275 74.7061 121.847 74.7061 121.335C74.7061 120.57 74.9749 119.97 75.5125 119.533C76.0585 119.096 76.7851 118.878 77.6923 118.878C78.1627 118.878 78.6079 118.928 79.0279 119.029C79.4563 119.13 79.8763 119.272 80.2879 119.457L79.7713 120.755C79.3933 120.595 79.0321 120.469 78.6877 120.377C78.3517 120.285 78.0031 120.238 77.6419 120.238C77.2051 120.238 76.8733 120.335 76.6465 120.528C76.4197 120.721 76.3063 120.978 76.3063 121.297C76.3063 121.54 76.3693 121.75 76.4953 121.927C76.6213 122.095 76.8145 122.25 77.0749 122.393C77.3437 122.536 77.6881 122.7 78.1081 122.884C78.5953 123.094 79.0069 123.317 79.3429 123.552C79.6873 123.779 79.9477 124.052 80.1241 124.371C80.3089 124.682 80.4013 125.073 80.4013 125.543ZM88.047 124.573C88.047 125.707 87.753 126.585 87.165 127.206C86.577 127.819 85.779 128.126 84.771 128.126C84.1494 128.126 83.595 127.987 83.1078 127.71C82.6206 127.433 82.2384 127.03 81.9612 126.501C81.684 125.971 81.5454 125.329 81.5454 124.573C81.5454 123.439 81.8352 122.569 82.4148 121.965C83.0028 121.351 83.8008 121.045 84.8088 121.045C85.4388 121.045 85.9974 121.183 86.4846 121.461C86.9718 121.729 87.354 122.128 87.6312 122.658C87.9084 123.178 88.047 123.817 88.047 124.573ZM83.1708 124.573C83.1708 125.295 83.2968 125.854 83.5488 126.249C83.8092 126.643 84.225 126.841 84.7962 126.841C85.359 126.841 85.7706 126.643 86.031 126.249C86.2914 125.854 86.4216 125.295 86.4216 124.573C86.4216 123.85 86.2914 123.296 86.031 122.91C85.7706 122.523 85.3548 122.33 84.7836 122.33C84.2124 122.33 83.8008 122.523 83.5488 122.91C83.2968 123.296 83.1708 123.85 83.1708 124.573ZM93.2289 122.368H91.5783V128H89.9907V122.368H88.8945V121.612L89.9907 121.158V120.692C89.9907 119.818 90.1965 119.214 90.6081 118.878C91.0281 118.533 91.5993 118.361 92.3217 118.361C92.6493 118.361 92.9475 118.39 93.2163 118.449C93.4935 118.5 93.7203 118.558 93.8967 118.626L93.4935 119.81C93.3507 119.768 93.1911 119.73 93.0147 119.697C92.8467 119.655 92.6619 119.634 92.4603 119.634C92.1495 119.634 91.9227 119.73 91.7799 119.923C91.6455 120.108 91.5783 120.377 91.5783 120.73V121.171H93.2289V122.368ZM97.0101 126.853C97.2033 126.853 97.3923 126.837 97.5771 126.803C97.7703 126.761 97.9467 126.715 98.1063 126.664V127.849C97.9383 127.933 97.7199 128 97.4511 128.05C97.1823 128.101 96.9009 128.126 96.6069 128.126C96.2121 128.126 95.8551 128.063 95.5359 127.937C95.2251 127.811 94.9773 127.588 94.7925 127.269C94.6077 126.95 94.5153 126.501 94.5153 125.921V122.368H93.5955V121.675L94.6035 121.12L95.1075 119.671H96.1029V121.171H98.0433V122.368H96.1029V125.908C96.1029 126.228 96.1869 126.467 96.3549 126.627C96.5313 126.778 96.7497 126.853 97.0101 126.853ZM105.077 128L104.321 125.064C104.279 124.913 104.229 124.716 104.17 124.472C104.111 124.228 104.048 123.976 103.981 123.716C103.922 123.456 103.868 123.216 103.817 122.998C103.767 122.771 103.729 122.603 103.704 122.494H103.653C103.628 122.603 103.59 122.771 103.54 122.998C103.49 123.216 103.431 123.456 103.364 123.716C103.305 123.976 103.246 124.228 103.187 124.472C103.128 124.716 103.078 124.917 103.036 125.077L102.242 128H100.503L98.5882 121.158H100.188L101.033 124.422C101.091 124.648 101.146 124.9 101.196 125.178C101.255 125.455 101.306 125.719 101.348 125.971C101.39 126.223 101.419 126.429 101.436 126.589H101.486C101.503 126.438 101.532 126.232 101.574 125.971C101.625 125.711 101.675 125.459 101.726 125.215C101.776 124.963 101.818 124.774 101.852 124.648L102.834 121.158H104.573L105.518 124.648C105.552 124.8 105.594 124.997 105.644 125.241C105.703 125.484 105.753 125.728 105.795 125.971C105.837 126.215 105.863 126.417 105.871 126.576H105.921C105.938 126.433 105.968 126.24 106.01 125.997C106.052 125.745 106.102 125.48 106.161 125.203C106.22 124.917 106.283 124.657 106.35 124.422L107.207 121.158H108.782L106.841 128H105.077ZM112.663 121.045C113.545 121.045 114.213 121.238 114.667 121.624C115.129 122.011 115.36 122.607 115.36 123.414V128H114.238L113.923 127.055H113.873C113.579 127.425 113.268 127.698 112.941 127.874C112.613 128.042 112.168 128.126 111.605 128.126C110.992 128.126 110.484 127.954 110.08 127.609C109.677 127.265 109.476 126.732 109.476 126.009C109.476 125.304 109.732 124.774 110.244 124.422C110.765 124.069 111.55 123.871 112.6 123.829L113.785 123.792V123.451C113.785 123.015 113.68 122.704 113.47 122.519C113.26 122.334 112.966 122.242 112.588 122.242C112.243 122.242 111.912 122.292 111.592 122.393C111.282 122.485 110.971 122.603 110.66 122.746L110.156 121.637C110.492 121.461 110.874 121.318 111.303 121.209C111.739 121.099 112.193 121.045 112.663 121.045ZM113.785 124.774L112.953 124.8C112.256 124.825 111.773 124.947 111.504 125.165C111.235 125.375 111.101 125.661 111.101 126.022C111.101 126.349 111.193 126.585 111.378 126.727C111.571 126.862 111.823 126.929 112.134 126.929C112.596 126.929 112.987 126.799 113.306 126.538C113.625 126.27 113.785 125.875 113.785 125.354V124.774ZM120.928 121.045C121.037 121.045 121.159 121.053 121.293 121.07C121.427 121.078 121.537 121.091 121.621 121.108L121.482 122.582C121.398 122.565 121.293 122.553 121.167 122.544C121.049 122.527 120.949 122.519 120.865 122.519C120.529 122.519 120.214 122.59 119.92 122.733C119.626 122.868 119.386 123.078 119.201 123.363C119.025 123.649 118.937 124.014 118.937 124.459V128H117.349V121.171H118.571L118.798 122.355H118.874C119.075 121.994 119.353 121.687 119.705 121.435C120.058 121.175 120.466 121.045 120.928 121.045ZM125.387 121.045C126.303 121.045 127.025 121.318 127.554 121.864C128.092 122.41 128.361 123.17 128.361 124.144V124.951H123.85C123.867 125.572 124.039 126.055 124.366 126.4C124.694 126.736 125.148 126.904 125.727 126.904C126.164 126.904 126.559 126.862 126.912 126.778C127.264 126.685 127.626 126.555 127.995 126.387V127.66C127.659 127.819 127.311 127.937 126.949 128.013C126.588 128.088 126.156 128.126 125.652 128.126C124.98 128.126 124.387 128 123.875 127.748C123.363 127.488 122.959 127.101 122.665 126.589C122.38 126.068 122.237 125.417 122.237 124.636C122.237 123.468 122.523 122.578 123.094 121.965C123.673 121.351 124.438 121.045 125.387 121.045ZM125.387 122.217C124.959 122.217 124.61 122.355 124.341 122.632C124.081 122.901 123.93 123.304 123.888 123.842H126.823C126.815 123.372 126.693 122.985 126.458 122.683C126.231 122.372 125.874 122.217 125.387 122.217ZM140.517 119.004V124.825C140.517 125.446 140.383 126.009 140.114 126.513C139.854 127.009 139.455 127.404 138.917 127.698C138.38 127.983 137.699 128.126 136.876 128.126C135.708 128.126 134.822 127.824 134.217 127.219C133.613 126.606 133.31 125.799 133.31 124.8V119.004H134.923V124.636C134.923 125.375 135.087 125.913 135.414 126.249C135.75 126.585 136.254 126.753 136.926 126.753C137.624 126.753 138.128 126.572 138.438 126.211C138.758 125.841 138.917 125.312 138.917 124.623V119.004H140.517ZM146.239 121.045C147.037 121.045 147.679 121.343 148.166 121.939C148.654 122.527 148.897 123.405 148.897 124.573C148.897 125.74 148.645 126.627 148.141 127.231C147.646 127.828 146.999 128.126 146.201 128.126C145.697 128.126 145.289 128.034 144.979 127.849C144.668 127.664 144.42 127.45 144.235 127.206H144.134C144.16 127.366 144.181 127.538 144.197 127.723C144.223 127.908 144.235 128.084 144.235 128.252V131.024H142.648V121.171H143.933L144.16 122.078H144.235C144.428 121.792 144.68 121.549 144.991 121.347C145.302 121.146 145.718 121.045 146.239 121.045ZM145.785 122.33C145.222 122.33 144.823 122.498 144.588 122.834C144.361 123.17 144.244 123.678 144.235 124.359V124.56C144.235 125.291 144.344 125.854 144.563 126.249C144.79 126.635 145.205 126.828 145.81 126.828C146.306 126.828 146.671 126.627 146.906 126.223C147.15 125.812 147.272 125.253 147.272 124.548C147.272 123.842 147.15 123.296 146.906 122.91C146.671 122.523 146.297 122.33 145.785 122.33ZM152.79 128.126C152.001 128.126 151.358 127.832 150.863 127.244C150.375 126.648 150.132 125.766 150.132 124.598C150.132 123.422 150.38 122.536 150.875 121.939C151.371 121.343 152.022 121.045 152.828 121.045C153.332 121.045 153.744 121.141 154.063 121.335C154.391 121.528 154.651 121.763 154.844 122.04H154.92C154.895 121.923 154.869 121.746 154.844 121.511C154.819 121.267 154.806 121.036 154.806 120.818V118.424H156.394V128H155.159L154.869 127.105H154.806C154.613 127.391 154.357 127.635 154.038 127.836C153.719 128.029 153.303 128.126 152.79 128.126ZM153.269 126.841C153.857 126.841 154.269 126.673 154.504 126.337C154.748 126.001 154.874 125.493 154.882 124.812V124.611C154.882 123.88 154.764 123.321 154.529 122.935C154.302 122.54 153.874 122.343 153.244 122.343C152.757 122.343 152.383 122.544 152.123 122.947C151.871 123.342 151.745 123.901 151.745 124.623C151.745 125.346 151.875 125.896 152.135 126.274C152.396 126.652 152.774 126.841 153.269 126.841ZM161.144 121.045C162.026 121.045 162.694 121.238 163.147 121.624C163.609 122.011 163.84 122.607 163.84 123.414V128H162.719L162.404 127.055H162.353C162.059 127.425 161.749 127.698 161.421 127.874C161.093 128.042 160.648 128.126 160.085 128.126C159.472 128.126 158.964 127.954 158.561 127.609C158.158 127.265 157.956 126.732 157.956 126.009C157.956 125.304 158.212 124.774 158.725 124.422C159.245 124.069 160.031 123.871 161.081 123.829L162.265 123.792V123.451C162.265 123.015 162.16 122.704 161.95 122.519C161.74 122.334 161.446 122.242 161.068 122.242C160.724 122.242 160.392 122.292 160.073 122.393C159.762 122.485 159.451 122.603 159.14 122.746L158.636 121.637C158.972 121.461 159.355 121.318 159.783 121.209C160.22 121.099 160.673 121.045 161.144 121.045ZM162.265 124.774L161.434 124.8C160.736 124.825 160.253 124.947 159.985 125.165C159.716 125.375 159.581 125.661 159.581 126.022C159.581 126.349 159.674 126.585 159.859 126.727C160.052 126.862 160.304 126.929 160.615 126.929C161.077 126.929 161.467 126.799 161.786 126.538C162.106 126.27 162.265 125.875 162.265 125.354V124.774ZM168.476 126.853C168.669 126.853 168.858 126.837 169.043 126.803C169.236 126.761 169.412 126.715 169.572 126.664V127.849C169.404 127.933 169.185 128 168.917 128.05C168.648 128.101 168.366 128.126 168.072 128.126C167.678 128.126 167.321 128.063 167.001 127.937C166.691 127.811 166.443 127.588 166.258 127.269C166.073 126.95 165.981 126.501 165.981 125.921V122.368H165.061V121.675L166.069 121.12L166.573 119.671H167.568V121.171H169.509V122.368H167.568V125.908C167.568 126.228 167.652 126.467 167.82 126.627C167.997 126.778 168.215 126.853 168.476 126.853ZM173.695 121.045C174.611 121.045 175.333 121.318 175.862 121.864C176.4 122.41 176.669 123.17 176.669 124.144V124.951H172.158C172.175 125.572 172.347 126.055 172.675 126.4C173.002 126.736 173.456 126.904 174.035 126.904C174.472 126.904 174.867 126.862 175.22 126.778C175.573 126.685 175.934 126.555 176.303 126.387V127.66C175.967 127.819 175.619 127.937 175.258 128.013C174.896 128.088 174.464 128.126 173.96 128.126C173.288 128.126 172.696 128 172.183 127.748C171.671 127.488 171.268 127.101 170.974 126.589C170.688 126.068 170.545 125.417 170.545 124.636C170.545 123.468 170.831 122.578 171.402 121.965C171.982 121.351 172.746 121.045 173.695 121.045ZM173.695 122.217C173.267 122.217 172.918 122.355 172.649 122.632C172.389 122.901 172.238 123.304 172.196 123.842H175.132C175.123 123.372 175.001 122.985 174.766 122.683C174.539 122.372 174.182 122.217 173.695 122.217Z" fill="#242424"/>
<path d="M78.0703 149.6H76.9363V141.599H74.1265V140.604H80.8675V141.599H78.0703V149.6ZM83.1817 140.024V142.834C83.1817 143.17 83.1607 143.485 83.1187 143.779H83.1943C83.4127 143.434 83.7067 143.174 84.0763 142.998C84.4543 142.821 84.8617 142.733 85.2985 142.733C86.1133 142.733 86.7265 142.93 87.1381 143.325C87.5581 143.712 87.7681 144.337 87.7681 145.203V149.6H86.6719V145.278C86.6719 144.195 86.1679 143.653 85.1599 143.653C84.4039 143.653 83.8831 143.867 83.5975 144.295C83.3203 144.715 83.1817 145.32 83.1817 146.11V149.6H82.0729V140.024H83.1817ZM92.4699 142.72C93.0411 142.72 93.5367 142.846 93.9567 143.098C94.3767 143.35 94.6959 143.707 94.9143 144.169C95.1411 144.623 95.2545 145.156 95.2545 145.77V146.437H90.6303C90.6471 147.202 90.8403 147.786 91.2099 148.189C91.5879 148.584 92.1129 148.781 92.7849 148.781C93.2133 148.781 93.5913 148.743 93.9189 148.668C94.2549 148.584 94.5993 148.466 94.9521 148.315V149.285C94.6077 149.436 94.2675 149.545 93.9315 149.613C93.5955 149.688 93.1965 149.726 92.7345 149.726C92.0877 149.726 91.5207 149.596 91.0335 149.335C90.5463 149.075 90.1641 148.689 89.8869 148.176C89.6181 147.664 89.4837 147.03 89.4837 146.274C89.4837 145.534 89.6055 144.9 89.8491 144.371C90.1011 143.842 90.4497 143.434 90.8949 143.149C91.3485 142.863 91.8735 142.72 92.4699 142.72ZM92.4573 143.628C91.9281 143.628 91.5081 143.8 91.1973 144.144C90.8949 144.48 90.7143 144.951 90.6555 145.555H94.0953C94.0869 144.984 93.9525 144.522 93.6921 144.169C93.4317 143.808 93.0201 143.628 92.4573 143.628ZM101.356 149.6H100.247V140.024H101.356V149.6ZM106.053 142.733C106.876 142.733 107.485 142.914 107.88 143.275C108.275 143.636 108.472 144.211 108.472 145.001V149.6H107.666L107.452 148.642H107.401C107.107 149.012 106.797 149.285 106.469 149.461C106.141 149.638 105.696 149.726 105.133 149.726C104.52 149.726 104.012 149.566 103.609 149.247C103.206 148.92 103.004 148.411 103.004 147.723C103.004 147.051 103.269 146.534 103.798 146.173C104.327 145.803 105.142 145.602 106.242 145.568L107.389 145.53V145.127C107.389 144.564 107.267 144.174 107.023 143.955C106.78 143.737 106.435 143.628 105.99 143.628C105.637 143.628 105.301 143.682 104.982 143.791C104.663 143.892 104.365 144.01 104.088 144.144L103.747 143.313C104.041 143.153 104.39 143.019 104.793 142.909C105.196 142.792 105.616 142.733 106.053 142.733ZM107.376 146.299L106.381 146.337C105.541 146.37 104.957 146.505 104.629 146.74C104.31 146.975 104.151 147.307 104.151 147.735C104.151 148.113 104.264 148.39 104.491 148.567C104.726 148.743 105.024 148.831 105.385 148.831C105.948 148.831 106.419 148.676 106.797 148.365C107.183 148.046 107.376 147.559 107.376 146.904V146.299ZM112.814 148.819C112.982 148.819 113.154 148.806 113.33 148.781C113.507 148.756 113.649 148.722 113.759 148.68V149.524C113.641 149.583 113.473 149.629 113.255 149.663C113.036 149.705 112.826 149.726 112.625 149.726C112.272 149.726 111.944 149.667 111.642 149.55C111.348 149.424 111.108 149.209 110.924 148.907C110.739 148.605 110.646 148.18 110.646 147.634V143.703H109.689V143.174L110.659 142.733L111.1 141.297H111.755V142.846H113.708V143.703H111.755V147.609C111.755 148.021 111.852 148.327 112.045 148.529C112.247 148.722 112.503 148.819 112.814 148.819ZM117.719 142.72C118.29 142.72 118.786 142.846 119.206 143.098C119.626 143.35 119.945 143.707 120.164 144.169C120.39 144.623 120.504 145.156 120.504 145.77V146.437H115.88C115.896 147.202 116.09 147.786 116.459 148.189C116.837 148.584 117.362 148.781 118.034 148.781C118.463 148.781 118.841 148.743 119.168 148.668C119.504 148.584 119.849 148.466 120.201 148.315V149.285C119.857 149.436 119.517 149.545 119.181 149.613C118.845 149.688 118.446 149.726 117.984 149.726C117.337 149.726 116.77 149.596 116.283 149.335C115.796 149.075 115.413 148.689 115.136 148.176C114.867 147.664 114.733 147.03 114.733 146.274C114.733 145.534 114.855 144.9 115.098 144.371C115.35 143.842 115.699 143.434 116.144 143.149C116.598 142.863 117.123 142.72 117.719 142.72ZM117.707 143.628C117.177 143.628 116.757 143.8 116.447 144.144C116.144 144.48 115.964 144.951 115.905 145.555H119.345C119.336 144.984 119.202 144.522 118.941 144.169C118.681 143.808 118.269 143.628 117.707 143.628ZM126.62 147.735C126.62 148.39 126.377 148.886 125.89 149.222C125.402 149.558 124.747 149.726 123.924 149.726C123.454 149.726 123.046 149.688 122.702 149.613C122.366 149.537 122.068 149.432 121.807 149.298V148.29C122.076 148.424 122.399 148.55 122.777 148.668C123.164 148.777 123.554 148.831 123.949 148.831C124.512 148.831 124.919 148.743 125.171 148.567C125.423 148.382 125.549 148.138 125.549 147.836C125.549 147.668 125.503 147.517 125.411 147.382C125.318 147.248 125.15 147.114 124.907 146.979C124.672 146.845 124.331 146.694 123.886 146.526C123.449 146.358 123.076 146.19 122.765 146.022C122.454 145.854 122.215 145.652 122.047 145.417C121.879 145.182 121.795 144.879 121.795 144.51C121.795 143.938 122.026 143.497 122.488 143.187C122.958 142.876 123.571 142.72 124.327 142.72C124.739 142.72 125.121 142.762 125.474 142.846C125.835 142.93 126.171 143.04 126.482 143.174L126.104 144.056C125.818 143.938 125.52 143.838 125.209 143.754C124.898 143.67 124.579 143.628 124.252 143.628C123.798 143.628 123.449 143.703 123.206 143.854C122.971 143.997 122.853 144.195 122.853 144.447C122.853 144.64 122.908 144.799 123.017 144.925C123.126 145.051 123.307 145.177 123.559 145.303C123.819 145.429 124.163 145.572 124.592 145.732C125.02 145.891 125.386 146.055 125.688 146.223C125.99 146.391 126.221 146.597 126.381 146.841C126.541 147.076 126.62 147.374 126.62 147.735ZM130.508 148.819C130.676 148.819 130.848 148.806 131.024 148.781C131.201 148.756 131.344 148.722 131.453 148.68V149.524C131.335 149.583 131.167 149.629 130.949 149.663C130.73 149.705 130.52 149.726 130.319 149.726C129.966 149.726 129.638 149.667 129.336 149.55C129.042 149.424 128.803 149.209 128.618 148.907C128.433 148.605 128.341 148.18 128.341 147.634V143.703H127.383V143.174L128.353 142.733L128.794 141.297H129.449V142.846H131.402V143.703H129.449V147.609C129.449 148.021 129.546 148.327 129.739 148.529C129.941 148.722 130.197 148.819 130.508 148.819ZM137.565 149.6L135.007 142.846H136.192L137.628 146.828C137.695 147.013 137.767 147.219 137.842 147.445C137.918 147.672 137.985 147.891 138.044 148.101C138.103 148.311 138.145 148.483 138.17 148.617H138.22C138.245 148.483 138.292 148.311 138.359 148.101C138.426 147.882 138.497 147.664 138.573 147.445C138.649 147.219 138.72 147.013 138.787 146.828L140.224 142.846H141.408L138.838 149.6H137.565ZM145.085 142.72C145.656 142.72 146.152 142.846 146.572 143.098C146.992 143.35 147.311 143.707 147.529 144.169C147.756 144.623 147.869 145.156 147.869 145.77V146.437H143.245C143.262 147.202 143.455 147.786 143.825 148.189C144.203 148.584 144.728 148.781 145.4 148.781C145.828 148.781 146.206 148.743 146.534 148.668C146.87 148.584 147.214 148.466 147.567 148.315V149.285C147.223 149.436 146.882 149.545 146.546 149.613C146.21 149.688 145.811 149.726 145.349 149.726C144.703 149.726 144.136 149.596 143.648 149.335C143.161 149.075 142.779 148.689 142.502 148.176C142.233 147.664 142.099 147.03 142.099 146.274C142.099 145.534 142.22 144.9 142.464 144.371C142.716 143.842 143.065 143.434 143.51 143.149C143.963 142.863 144.488 142.72 145.085 142.72ZM145.072 143.628C144.543 143.628 144.123 143.8 143.812 144.144C143.51 144.48 143.329 144.951 143.27 145.555H146.71C146.702 144.984 146.567 144.522 146.307 144.169C146.047 143.808 145.635 143.628 145.072 143.628ZM152.739 142.72C152.865 142.72 152.999 142.729 153.142 142.746C153.285 142.754 153.415 142.771 153.532 142.796L153.394 143.817C153.285 143.791 153.163 143.77 153.028 143.754C152.894 143.737 152.772 143.728 152.663 143.728C152.319 143.728 151.995 143.825 151.693 144.018C151.39 144.203 151.147 144.468 150.962 144.812C150.786 145.148 150.697 145.543 150.697 145.996V149.6H149.589V142.846H150.496L150.622 144.081H150.672C150.882 143.712 151.159 143.392 151.504 143.124C151.857 142.855 152.268 142.72 152.739 142.72ZM159.191 147.735C159.191 148.39 158.947 148.886 158.46 149.222C157.973 149.558 157.318 149.726 156.495 149.726C156.024 149.726 155.617 149.688 155.272 149.613C154.936 149.537 154.638 149.432 154.378 149.298V148.29C154.647 148.424 154.97 148.55 155.348 148.668C155.734 148.777 156.125 148.831 156.52 148.831C157.083 148.831 157.49 148.743 157.742 148.567C157.994 148.382 158.12 148.138 158.12 147.836C158.12 147.668 158.074 147.517 157.981 147.382C157.889 147.248 157.721 147.114 157.477 146.979C157.242 146.845 156.902 146.694 156.457 146.526C156.02 146.358 155.646 146.19 155.335 146.022C155.025 145.854 154.785 145.652 154.617 145.417C154.449 145.182 154.365 144.879 154.365 144.51C154.365 143.938 154.596 143.497 155.058 143.187C155.529 142.876 156.142 142.72 156.898 142.72C157.309 142.72 157.692 142.762 158.044 142.846C158.406 142.93 158.742 143.04 159.052 143.174L158.674 144.056C158.389 143.938 158.091 143.838 157.78 143.754C157.469 143.67 157.15 143.628 156.822 143.628C156.369 143.628 156.02 143.703 155.776 143.854C155.541 143.997 155.424 144.195 155.424 144.447C155.424 144.64 155.478 144.799 155.587 144.925C155.697 145.051 155.877 145.177 156.129 145.303C156.39 145.429 156.734 145.572 157.162 145.732C157.591 145.891 157.956 146.055 158.259 146.223C158.561 146.391 158.792 146.597 158.952 146.841C159.111 147.076 159.191 147.374 159.191 147.735ZM161.39 140.314C161.558 140.314 161.705 140.373 161.831 140.49C161.965 140.599 162.032 140.776 162.032 141.019C162.032 141.263 161.965 141.444 161.831 141.561C161.705 141.67 161.558 141.725 161.39 141.725C161.205 141.725 161.05 141.67 160.924 141.561C160.798 141.444 160.735 141.263 160.735 141.019C160.735 140.776 160.798 140.599 160.924 140.49C161.05 140.373 161.205 140.314 161.39 140.314ZM161.932 142.846V149.6H160.823V142.846H161.932ZM169.943 146.211C169.943 147.328 169.657 148.193 169.086 148.806C168.523 149.419 167.759 149.726 166.793 149.726C166.196 149.726 165.663 149.592 165.193 149.323C164.731 149.046 164.365 148.647 164.096 148.126C163.828 147.597 163.693 146.958 163.693 146.211C163.693 145.093 163.97 144.232 164.525 143.628C165.088 143.023 165.856 142.72 166.831 142.72C167.435 142.72 167.973 142.859 168.443 143.136C168.914 143.405 169.279 143.8 169.54 144.321C169.808 144.833 169.943 145.463 169.943 146.211ZM164.84 146.211C164.84 147.009 164.995 147.643 165.306 148.113C165.625 148.575 166.129 148.806 166.818 148.806C167.498 148.806 167.998 148.575 168.317 148.113C168.637 147.643 168.796 147.009 168.796 146.211C168.796 145.413 168.637 144.787 168.317 144.333C167.998 143.88 167.494 143.653 166.805 143.653C166.117 143.653 165.617 143.88 165.306 144.333C164.995 144.787 164.84 145.413 164.84 146.211ZM174.951 142.72C175.757 142.72 176.366 142.918 176.778 143.313C177.19 143.707 177.395 144.337 177.395 145.203V149.6H176.299V145.278C176.299 144.195 175.795 143.653 174.787 143.653C174.04 143.653 173.523 143.863 173.237 144.283C172.952 144.703 172.809 145.308 172.809 146.097V149.6H171.7V142.846H172.595L172.759 143.766H172.822C173.04 143.413 173.342 143.153 173.729 142.985C174.115 142.809 174.523 142.72 174.951 142.72ZM183.871 140.024V142.834C183.871 143.17 183.85 143.485 183.808 143.779H183.884C184.102 143.434 184.396 143.174 184.766 142.998C185.144 142.821 185.551 142.733 185.988 142.733C186.803 142.733 187.416 142.93 187.827 143.325C188.247 143.712 188.457 144.337 188.457 145.203V149.6H187.361V145.278C187.361 144.195 186.857 143.653 185.849 143.653C185.093 143.653 184.572 143.867 184.287 144.295C184.01 144.715 183.871 145.32 183.871 146.11V149.6H182.762V140.024H183.871ZM193.109 142.733C193.932 142.733 194.541 142.914 194.936 143.275C195.331 143.636 195.528 144.211 195.528 145.001V149.6H194.722L194.507 148.642H194.457C194.163 149.012 193.852 149.285 193.525 149.461C193.197 149.638 192.752 149.726 192.189 149.726C191.576 149.726 191.068 149.566 190.664 149.247C190.261 148.92 190.06 148.411 190.06 147.723C190.06 147.051 190.324 146.534 190.853 146.173C191.383 145.803 192.197 145.602 193.298 145.568L194.444 145.53V145.127C194.444 144.564 194.323 144.174 194.079 143.955C193.835 143.737 193.491 143.628 193.046 143.628C192.693 143.628 192.357 143.682 192.038 143.791C191.719 143.892 191.42 144.01 191.143 144.144L190.803 143.313C191.097 143.153 191.446 143.019 191.849 142.909C192.252 142.792 192.672 142.733 193.109 142.733ZM194.432 146.299L193.436 146.337C192.596 146.37 192.013 146.505 191.685 146.74C191.366 146.975 191.206 147.307 191.206 147.735C191.206 148.113 191.32 148.39 191.546 148.567C191.782 148.743 192.08 148.831 192.441 148.831C193.004 148.831 193.474 148.676 193.852 148.365C194.239 148.046 194.432 147.559 194.432 146.904V146.299ZM202.011 147.735C202.011 148.39 201.768 148.886 201.28 149.222C200.793 149.558 200.138 149.726 199.315 149.726C198.844 149.726 198.437 149.688 198.093 149.613C197.757 149.537 197.458 149.432 197.198 149.298V148.29C197.467 148.424 197.79 148.55 198.168 148.668C198.555 148.777 198.945 148.831 199.34 148.831C199.903 148.831 200.31 148.743 200.562 148.567C200.814 148.382 200.94 148.138 200.94 147.836C200.94 147.668 200.894 147.517 200.802 147.382C200.709 147.248 200.541 147.114 200.298 146.979C200.062 146.845 199.722 146.694 199.277 146.526C198.84 146.358 198.466 146.19 198.156 146.022C197.845 145.854 197.605 145.652 197.437 145.417C197.269 145.182 197.185 144.879 197.185 144.51C197.185 143.938 197.416 143.497 197.878 143.187C198.349 142.876 198.962 142.72 199.718 142.72C200.13 142.72 200.512 142.762 200.865 142.846C201.226 142.93 201.562 143.04 201.873 143.174L201.495 144.056C201.209 143.938 200.911 143.838 200.6 143.754C200.289 143.67 199.97 143.628 199.642 143.628C199.189 143.628 198.84 143.703 198.597 143.854C198.361 143.997 198.244 144.195 198.244 144.447C198.244 144.64 198.298 144.799 198.408 144.925C198.517 145.051 198.697 145.177 198.949 145.303C199.21 145.429 199.554 145.572 199.983 145.732C200.411 145.891 200.776 146.055 201.079 146.223C201.381 146.391 201.612 146.597 201.772 146.841C201.931 147.076 202.011 147.374 202.011 147.735ZM208.025 140.024V142.355C208.025 142.641 208.017 142.909 208 143.161C207.991 143.405 207.979 143.598 207.962 143.741H208.025C208.218 143.455 208.483 143.216 208.819 143.023C209.155 142.83 209.587 142.733 210.117 142.733C210.957 142.733 211.629 143.027 212.133 143.615C212.645 144.195 212.901 145.064 212.901 146.223C212.901 147.382 212.645 148.256 212.133 148.844C211.62 149.432 210.948 149.726 210.117 149.726C209.587 149.726 209.155 149.629 208.819 149.436C208.483 149.243 208.218 149.012 208.025 148.743H207.937L207.71 149.6H206.916V140.024H208.025ZM209.928 143.653C209.205 143.653 208.705 143.859 208.428 144.27C208.159 144.682 208.025 145.32 208.025 146.185V146.236C208.025 147.067 208.159 147.706 208.428 148.151C208.705 148.588 209.214 148.806 209.953 148.806C210.558 148.806 211.007 148.584 211.301 148.138C211.603 147.693 211.755 147.051 211.755 146.211C211.755 144.505 211.146 143.653 209.928 143.653ZM217.276 142.72C217.848 142.72 218.343 142.846 218.763 143.098C219.183 143.35 219.502 143.707 219.721 144.169C219.948 144.623 220.061 145.156 220.061 145.77V146.437H215.437C215.454 147.202 215.647 147.786 216.016 148.189C216.394 148.584 216.919 148.781 217.591 148.781C218.02 148.781 218.398 148.743 218.725 148.668C219.061 148.584 219.406 148.466 219.759 148.315V149.285C219.414 149.436 219.074 149.545 218.738 149.613C218.402 149.688 218.003 149.726 217.541 149.726C216.894 149.726 216.327 149.596 215.84 149.335C215.353 149.075 214.971 148.689 214.693 148.176C214.425 147.664 214.29 147.03 214.29 146.274C214.29 145.534 214.412 144.9 214.656 144.371C214.908 143.842 215.256 143.434 215.701 143.149C216.155 142.863 216.68 142.72 217.276 142.72ZM217.264 143.628C216.735 143.628 216.315 143.8 216.004 144.144C215.701 144.48 215.521 144.951 215.462 145.555H218.902C218.893 144.984 218.759 144.522 218.499 144.169C218.238 143.808 217.827 143.628 217.264 143.628ZM224.388 142.72C224.96 142.72 225.455 142.846 225.875 143.098C226.295 143.35 226.614 143.707 226.833 144.169C227.06 144.623 227.173 145.156 227.173 145.77V146.437H222.549C222.566 147.202 222.759 147.786 223.128 148.189C223.506 148.584 224.031 148.781 224.703 148.781C225.132 148.781 225.51 148.743 225.837 148.668C226.173 148.584 226.518 148.466 226.871 148.315V149.285C226.526 149.436 226.186 149.545 225.85 149.613C225.514 149.688 225.115 149.726 224.653 149.726C224.006 149.726 223.439 149.596 222.952 149.335C222.465 149.075 222.083 148.689 221.805 148.176C221.537 147.664 221.402 147.03 221.402 146.274C221.402 145.534 221.524 144.9 221.768 144.371C222.02 143.842 222.368 143.434 222.813 143.149C223.267 142.863 223.792 142.72 224.388 142.72ZM224.376 143.628C223.847 143.628 223.427 143.8 223.116 144.144C222.813 144.48 222.633 144.951 222.574 145.555H226.014C226.005 144.984 225.871 144.522 225.611 144.169C225.35 143.808 224.939 143.628 224.376 143.628ZM232.143 142.72C232.95 142.72 233.559 142.918 233.97 143.313C234.382 143.707 234.588 144.337 234.588 145.203V149.6H233.491V145.278C233.491 144.195 232.987 143.653 231.979 143.653C231.232 143.653 230.715 143.863 230.43 144.283C230.144 144.703 230.001 145.308 230.001 146.097V149.6H228.892V142.846H229.787L229.951 143.766H230.014C230.232 143.413 230.535 143.153 230.921 142.985C231.307 142.809 231.715 142.72 232.143 142.72ZM243.104 142.72C243.23 142.72 243.365 142.729 243.508 142.746C243.65 142.754 243.781 142.771 243.898 142.796L243.76 143.817C243.65 143.791 243.529 143.77 243.394 143.754C243.26 143.737 243.138 143.728 243.029 143.728C242.684 143.728 242.361 143.825 242.059 144.018C241.756 144.203 241.513 144.468 241.328 144.812C241.151 145.148 241.063 145.543 241.063 145.996V149.6H239.954V142.846H240.862L240.988 144.081H241.038C241.248 143.712 241.525 143.392 241.87 143.124C242.222 142.855 242.634 142.72 243.104 142.72ZM247.521 142.72C248.093 142.72 248.588 142.846 249.008 143.098C249.428 143.35 249.747 143.707 249.966 144.169C250.193 144.623 250.306 145.156 250.306 145.77V146.437H245.682C245.699 147.202 245.892 147.786 246.261 148.189C246.639 148.584 247.164 148.781 247.836 148.781C248.265 148.781 248.643 148.743 248.97 148.668C249.306 148.584 249.651 148.466 250.004 148.315V149.285C249.659 149.436 249.319 149.545 248.983 149.613C248.647 149.688 248.248 149.726 247.786 149.726C247.139 149.726 246.572 149.596 246.085 149.335C245.598 149.075 245.216 148.689 244.938 148.176C244.67 147.664 244.535 147.03 244.535 146.274C244.535 145.534 244.657 144.9 244.901 144.371C245.153 143.842 245.501 143.434 245.946 143.149C246.4 142.863 246.925 142.72 247.521 142.72ZM247.509 143.628C246.98 143.628 246.56 143.8 246.249 144.144C245.946 144.48 245.766 144.951 245.707 145.555H249.147C249.138 144.984 249.004 144.522 248.744 144.169C248.483 143.808 248.072 143.628 247.509 143.628ZM253.134 149.6H252.025V140.024H253.134V149.6ZM257.882 142.72C258.453 142.72 258.949 142.846 259.369 143.098C259.789 143.35 260.108 143.707 260.326 144.169C260.553 144.623 260.666 145.156 260.666 145.77V146.437H256.042C256.059 147.202 256.252 147.786 256.622 148.189C257 148.584 257.525 148.781 258.197 148.781C258.625 148.781 259.003 148.743 259.331 148.668C259.667 148.584 260.011 148.466 260.364 148.315V149.285C260.02 149.436 259.679 149.545 259.343 149.613C259.007 149.688 258.608 149.726 258.146 149.726C257.5 149.726 256.933 149.596 256.445 149.335C255.958 149.075 255.576 148.689 255.299 148.176C255.03 147.664 254.896 147.03 254.896 146.274C254.896 145.534 255.017 144.9 255.261 144.371C255.513 143.842 255.862 143.434 256.307 143.149C256.76 142.863 257.285 142.72 257.882 142.72ZM257.869 143.628C257.34 143.628 256.92 143.8 256.609 144.144C256.307 144.48 256.126 144.951 256.067 145.555H259.507C259.499 144.984 259.364 144.522 259.104 144.169C258.844 143.808 258.432 143.628 257.869 143.628ZM264.944 142.733C265.767 142.733 266.376 142.914 266.771 143.275C267.165 143.636 267.363 144.211 267.363 145.001V149.6H266.556L266.342 148.642H266.292C265.998 149.012 265.687 149.285 265.359 149.461C265.032 149.638 264.587 149.726 264.024 149.726C263.411 149.726 262.902 149.566 262.499 149.247C262.096 148.92 261.894 148.411 261.894 147.723C261.894 147.051 262.159 146.534 262.688 146.173C263.217 145.803 264.032 145.602 265.133 145.568L266.279 145.53V145.127C266.279 144.564 266.157 144.174 265.914 143.955C265.67 143.737 265.326 143.628 264.881 143.628C264.528 143.628 264.192 143.682 263.873 143.791C263.553 143.892 263.255 144.01 262.978 144.144L262.638 143.313C262.932 143.153 263.28 143.019 263.684 142.909C264.087 142.792 264.507 142.733 264.944 142.733ZM266.267 146.299L265.271 146.337C264.431 146.37 263.847 146.505 263.52 146.74C263.201 146.975 263.041 147.307 263.041 147.735C263.041 148.113 263.154 148.39 263.381 148.567C263.616 148.743 263.915 148.831 264.276 148.831C264.839 148.831 265.309 148.676 265.687 148.365C266.073 148.046 266.267 147.559 266.267 146.904V146.299ZM273.846 147.735C273.846 148.39 273.602 148.886 273.115 149.222C272.628 149.558 271.973 149.726 271.15 149.726C270.679 149.726 270.272 149.688 269.927 149.613C269.591 149.537 269.293 149.432 269.033 149.298V148.29C269.302 148.424 269.625 148.55 270.003 148.668C270.389 148.777 270.78 148.831 271.175 148.831C271.738 148.831 272.145 148.743 272.397 148.567C272.649 148.382 272.775 148.138 272.775 147.836C272.775 147.668 272.729 147.517 272.636 147.382C272.544 147.248 272.376 147.114 272.132 146.979C271.897 146.845 271.557 146.694 271.112 146.526C270.675 146.358 270.301 146.19 269.99 146.022C269.68 145.854 269.44 145.652 269.272 145.417C269.104 145.182 269.02 144.879 269.02 144.51C269.02 143.938 269.251 143.497 269.713 143.187C270.184 142.876 270.797 142.72 271.553 142.72C271.964 142.72 272.347 142.762 272.699 142.846C273.061 142.93 273.397 143.04 273.707 143.174L273.329 144.056C273.044 143.938 272.746 143.838 272.435 143.754C272.124 143.67 271.805 143.628 271.477 143.628C271.024 143.628 270.675 143.703 270.431 143.854C270.196 143.997 270.079 144.195 270.079 144.447C270.079 144.64 270.133 144.799 270.242 144.925C270.352 145.051 270.532 145.177 270.784 145.303C271.045 145.429 271.389 145.572 271.817 145.732C272.246 145.891 272.611 146.055 272.914 146.223C273.216 146.391 273.447 146.597 273.607 146.841C273.766 147.076 273.846 147.374 273.846 147.735ZM278.086 142.72C278.657 142.72 279.153 142.846 279.573 143.098C279.993 143.35 280.312 143.707 280.531 144.169C280.757 144.623 280.871 145.156 280.871 145.77V146.437H276.247C276.263 147.202 276.457 147.786 276.826 148.189C277.204 148.584 277.729 148.781 278.401 148.781C278.83 148.781 279.208 148.743 279.535 148.668C279.871 148.584 280.216 148.466 280.568 148.315V149.285C280.224 149.436 279.884 149.545 279.548 149.613C279.212 149.688 278.813 149.726 278.351 149.726C277.704 149.726 277.137 149.596 276.65 149.335C276.163 149.075 275.78 148.689 275.503 148.176C275.234 147.664 275.1 147.03 275.1 146.274C275.1 145.534 275.222 144.9 275.465 144.371C275.717 143.842 276.066 143.434 276.511 143.149C276.965 142.863 277.49 142.72 278.086 142.72ZM278.074 143.628C277.544 143.628 277.124 143.8 276.814 144.144C276.511 144.48 276.331 144.951 276.272 145.555H279.712C279.703 144.984 279.569 144.522 279.308 144.169C279.048 143.808 278.636 143.628 278.074 143.628ZM284.984 149.726C284.144 149.726 283.472 149.436 282.968 148.857C282.464 148.269 282.212 147.395 282.212 146.236C282.212 145.077 282.464 144.203 282.968 143.615C283.48 143.019 284.157 142.72 284.997 142.72C285.517 142.72 285.942 142.817 286.269 143.01C286.605 143.203 286.878 143.439 287.088 143.716H287.164C287.147 143.607 287.13 143.447 287.113 143.237C287.097 143.019 287.088 142.846 287.088 142.72V140.024H288.197V149.6H287.302L287.139 148.693H287.088C286.887 148.978 286.618 149.222 286.282 149.424C285.946 149.625 285.513 149.726 284.984 149.726ZM285.16 148.806C285.874 148.806 286.374 148.613 286.66 148.227C286.954 147.832 287.101 147.24 287.101 146.45V146.248C287.101 145.408 286.962 144.766 286.685 144.321C286.408 143.867 285.895 143.64 285.148 143.64C284.551 143.64 284.102 143.88 283.8 144.358C283.506 144.829 283.359 145.463 283.359 146.261C283.359 147.067 283.506 147.693 283.8 148.138C284.102 148.584 284.556 148.806 285.16 148.806Z" fill="#242424"/>
<rect x="74.4505" y="168.45" width="58.5" height="21.3" rx="1.35" stroke="#323232" stroke-width="0.9"/>
<path d="M88.1127 174.889V179.878C88.1127 180.411 88.0047 180.894 87.7887 181.326C87.5727 181.75 87.2415 182.089 86.7951 182.341C86.3487 182.586 85.7871 182.708 85.1103 182.708C84.1455 182.708 83.4147 182.449 82.9179 181.93C82.4211 181.405 82.1727 180.714 82.1727 179.857V174.889H83.1447V179.889C83.1447 180.516 83.3103 181.002 83.6415 181.347C83.9799 181.693 84.4875 181.866 85.1643 181.866C85.8627 181.866 86.3667 181.682 86.6763 181.315C86.9931 180.94 87.1515 180.462 87.1515 179.878V174.889H88.1127ZM92.7723 176.703C93.4851 176.703 94.0575 176.952 94.4895 177.448C94.9287 177.945 95.1483 178.694 95.1483 179.695C95.1483 180.681 94.9287 181.43 94.4895 181.941C94.0575 182.452 93.4815 182.708 92.7615 182.708C92.3151 182.708 91.9443 182.625 91.6491 182.46C91.3611 182.294 91.1343 182.096 90.9687 181.866H90.9039C90.9111 181.988 90.9219 182.143 90.9363 182.33C90.9579 182.517 90.9687 182.679 90.9687 182.816V185.192H90.0183V176.811H90.7959L90.9255 177.6H90.9687C91.1415 177.348 91.3683 177.135 91.6491 176.962C91.9299 176.79 92.3043 176.703 92.7723 176.703ZM92.5995 177.502C92.0091 177.502 91.5915 177.668 91.3467 177.999C91.1019 178.33 90.9759 178.834 90.9687 179.511V179.695C90.9687 180.408 91.0839 180.958 91.3143 181.347C91.5519 181.729 91.9875 181.92 92.6211 181.92C92.9667 181.92 93.2547 181.826 93.4851 181.639C93.7155 181.444 93.8847 181.178 93.9927 180.84C94.1079 180.501 94.1655 180.116 94.1655 179.684C94.1655 179.022 94.0359 178.492 93.7767 178.096C93.5247 177.7 93.1323 177.502 92.5995 177.502ZM98.7148 176.703C99.0964 176.703 99.4384 176.775 99.7408 176.919C100.05 177.063 100.313 177.283 100.529 177.578H100.583L100.713 176.811H101.469V182.697C101.469 183.525 101.256 184.148 100.832 184.566C100.414 184.983 99.7624 185.192 98.8768 185.192C98.0272 185.192 97.3324 185.07 96.7924 184.825V183.95C97.3612 184.252 98.074 184.404 98.9308 184.404C99.4276 184.404 99.8164 184.256 100.097 183.961C100.385 183.673 100.529 183.277 100.529 182.773V182.546C100.529 182.46 100.533 182.337 100.54 182.179C100.547 182.013 100.554 181.898 100.562 181.833H100.518C100.13 182.416 99.532 182.708 98.7256 182.708C97.9768 182.708 97.39 182.445 96.9652 181.92C96.5476 181.394 96.3388 180.66 96.3388 179.716C96.3388 178.795 96.5476 178.064 96.9652 177.524C97.39 176.977 97.9732 176.703 98.7148 176.703ZM98.8444 177.502C98.362 177.502 97.9876 177.697 97.7212 178.086C97.4548 178.467 97.3216 179.014 97.3216 179.727C97.3216 180.44 97.4512 180.987 97.7104 181.369C97.9696 181.743 98.3548 181.93 98.866 181.93C99.4492 181.93 99.874 181.776 100.14 181.466C100.407 181.149 100.54 180.642 100.54 179.943V179.716C100.54 178.932 100.403 178.366 100.13 178.021C99.856 177.675 99.4276 177.502 98.8444 177.502ZM106.007 176.703C106.115 176.703 106.231 176.71 106.353 176.725C106.475 176.732 106.587 176.746 106.688 176.768L106.569 177.643C106.475 177.621 106.371 177.603 106.256 177.589C106.141 177.574 106.036 177.567 105.943 177.567C105.647 177.567 105.37 177.65 105.111 177.816C104.852 177.974 104.643 178.201 104.485 178.496C104.333 178.784 104.258 179.122 104.258 179.511V182.6H103.307V176.811H104.085L104.193 177.87H104.236C104.416 177.553 104.654 177.279 104.949 177.049C105.251 176.818 105.604 176.703 106.007 176.703ZM109.75 176.714C110.456 176.714 110.978 176.869 111.316 177.178C111.655 177.488 111.824 177.981 111.824 178.658V182.6H111.133L110.949 181.779H110.906C110.654 182.096 110.387 182.33 110.107 182.481C109.826 182.632 109.444 182.708 108.962 182.708C108.436 182.708 108.001 182.571 107.655 182.298C107.309 182.017 107.137 181.581 107.137 180.991C107.137 180.415 107.363 179.972 107.817 179.662C108.271 179.346 108.969 179.173 109.912 179.144L110.895 179.112V178.766C110.895 178.284 110.791 177.949 110.582 177.762C110.373 177.574 110.078 177.481 109.696 177.481C109.394 177.481 109.106 177.528 108.832 177.621C108.559 177.708 108.303 177.808 108.065 177.924L107.774 177.211C108.026 177.074 108.325 176.959 108.67 176.865C109.016 176.764 109.376 176.714 109.75 176.714ZM110.884 179.77L110.031 179.803C109.311 179.832 108.811 179.947 108.53 180.148C108.256 180.35 108.119 180.634 108.119 181.002C108.119 181.326 108.217 181.563 108.411 181.714C108.613 181.866 108.868 181.941 109.178 181.941C109.66 181.941 110.063 181.808 110.387 181.542C110.719 181.268 110.884 180.85 110.884 180.289V179.77ZM115.664 182.708C114.944 182.708 114.368 182.46 113.936 181.963C113.504 181.459 113.288 180.71 113.288 179.716C113.288 178.723 113.504 177.974 113.936 177.47C114.375 176.959 114.954 176.703 115.674 176.703C116.121 176.703 116.484 176.786 116.765 176.952C117.053 177.117 117.287 177.319 117.467 177.556H117.532C117.518 177.463 117.503 177.326 117.489 177.146C117.474 176.959 117.467 176.811 117.467 176.703V174.392H118.418V182.6H117.651L117.51 181.822H117.467C117.294 182.067 117.064 182.276 116.776 182.449C116.488 182.622 116.117 182.708 115.664 182.708ZM115.815 181.92C116.427 181.92 116.855 181.754 117.1 181.423C117.352 181.084 117.478 180.577 117.478 179.9V179.727C117.478 179.007 117.359 178.456 117.122 178.075C116.884 177.686 116.445 177.492 115.804 177.492C115.293 177.492 114.908 177.697 114.648 178.107C114.396 178.51 114.27 179.054 114.27 179.738C114.27 180.429 114.396 180.966 114.648 181.347C114.908 181.729 115.296 181.92 115.815 181.92ZM122.492 176.703C122.981 176.703 123.406 176.811 123.766 177.027C124.126 177.243 124.4 177.549 124.587 177.945C124.781 178.334 124.879 178.791 124.879 179.317V179.889H120.915C120.929 180.544 121.095 181.045 121.412 181.39C121.736 181.729 122.186 181.898 122.762 181.898C123.129 181.898 123.453 181.866 123.734 181.801C124.022 181.729 124.317 181.628 124.619 181.498V182.33C124.324 182.46 124.033 182.553 123.745 182.611C123.457 182.676 123.115 182.708 122.719 182.708C122.164 182.708 121.678 182.596 121.261 182.373C120.843 182.15 120.515 181.819 120.278 181.38C120.047 180.94 119.932 180.397 119.932 179.749C119.932 179.115 120.037 178.572 120.245 178.118C120.461 177.664 120.76 177.315 121.142 177.07C121.531 176.826 121.981 176.703 122.492 176.703ZM122.481 177.481C122.027 177.481 121.667 177.628 121.401 177.924C121.142 178.212 120.987 178.615 120.937 179.133H123.885C123.878 178.644 123.763 178.248 123.539 177.945C123.316 177.636 122.963 177.481 122.481 177.481Z" fill="#323232"/>
<rect x="141.051" y="168.45" width="47.5" height="21.3" rx="1.35" stroke="#323232" stroke-width="0.9"/>
<path d="M152.153 175.634C151.325 175.634 150.674 175.911 150.198 176.466C149.723 177.02 149.486 177.78 149.486 178.744C149.486 179.702 149.705 180.462 150.144 181.023C150.591 181.578 151.257 181.855 152.142 181.855C152.474 181.855 152.79 181.826 153.093 181.768C153.395 181.711 153.694 181.639 153.989 181.552V182.395C153.701 182.503 153.402 182.582 153.093 182.632C152.79 182.683 152.427 182.708 152.002 182.708C151.217 182.708 150.562 182.546 150.036 182.222C149.511 181.898 149.115 181.437 148.848 180.84C148.589 180.242 148.46 179.54 148.46 178.734C148.46 177.956 148.6 177.272 148.881 176.682C149.169 176.084 149.59 175.62 150.144 175.288C150.699 174.95 151.372 174.781 152.164 174.781C152.978 174.781 153.687 174.932 154.292 175.234L153.903 176.055C153.665 175.947 153.399 175.85 153.104 175.764C152.816 175.677 152.499 175.634 152.153 175.634ZM157.735 176.714C158.441 176.714 158.963 176.869 159.301 177.178C159.639 177.488 159.809 177.981 159.809 178.658V182.6H159.117L158.934 181.779H158.891C158.639 182.096 158.372 182.33 158.091 182.481C157.811 182.632 157.429 182.708 156.947 182.708C156.421 182.708 155.985 182.571 155.64 182.298C155.294 182.017 155.121 181.581 155.121 180.991C155.121 180.415 155.348 179.972 155.802 179.662C156.255 179.346 156.954 179.173 157.897 179.144L158.88 179.112V178.766C158.88 178.284 158.775 177.949 158.567 177.762C158.358 177.574 158.063 177.481 157.681 177.481C157.379 177.481 157.091 177.528 156.817 177.621C156.543 177.708 156.288 177.808 156.05 177.924L155.759 177.211C156.011 177.074 156.309 176.959 156.655 176.865C157.001 176.764 157.361 176.714 157.735 176.714ZM158.869 179.77L158.016 179.803C157.296 179.832 156.795 179.947 156.515 180.148C156.241 180.35 156.104 180.634 156.104 181.002C156.104 181.326 156.201 181.563 156.396 181.714C156.597 181.866 156.853 181.941 157.163 181.941C157.645 181.941 158.048 181.808 158.372 181.542C158.703 181.268 158.869 180.85 158.869 180.289V179.77ZM164.383 176.703C165.074 176.703 165.596 176.872 165.949 177.211C166.302 177.549 166.478 178.089 166.478 178.831V182.6H165.539V178.896C165.539 177.967 165.107 177.502 164.243 177.502C163.602 177.502 163.159 177.682 162.914 178.042C162.669 178.402 162.547 178.921 162.547 179.598V182.6H161.597V176.811H162.363L162.504 177.6H162.558C162.745 177.297 163.004 177.074 163.335 176.93C163.667 176.779 164.016 176.703 164.383 176.703ZM170.595 182.708C170.076 182.708 169.619 182.604 169.223 182.395C168.827 182.186 168.514 181.862 168.283 181.423C168.06 180.984 167.949 180.422 167.949 179.738C167.949 179.025 168.064 178.446 168.294 177.999C168.532 177.553 168.856 177.225 169.266 177.016C169.677 176.808 170.141 176.703 170.659 176.703C170.947 176.703 171.228 176.736 171.502 176.8C171.783 176.858 172.009 176.93 172.182 177.016L171.891 177.805C171.718 177.74 171.516 177.679 171.286 177.621C171.055 177.564 170.839 177.535 170.638 177.535C169.5 177.535 168.931 178.266 168.931 179.727C168.931 180.426 169.068 180.962 169.342 181.336C169.623 181.704 170.037 181.887 170.584 181.887C170.893 181.887 171.171 181.855 171.415 181.79C171.66 181.725 171.883 181.646 172.085 181.552V182.395C171.891 182.496 171.675 182.571 171.437 182.622C171.207 182.679 170.926 182.708 170.595 182.708ZM175.697 176.703C176.187 176.703 176.612 176.811 176.972 177.027C177.332 177.243 177.605 177.549 177.793 177.945C177.987 178.334 178.084 178.791 178.084 179.317V179.889H174.121C174.135 180.544 174.301 181.045 174.617 181.39C174.941 181.729 175.391 181.898 175.967 181.898C176.335 181.898 176.659 181.866 176.939 181.801C177.227 181.729 177.523 181.628 177.825 181.498V182.33C177.53 182.46 177.238 182.553 176.95 182.611C176.662 182.676 176.32 182.708 175.924 182.708C175.37 182.708 174.884 182.596 174.466 182.373C174.049 182.15 173.721 181.819 173.483 181.38C173.253 180.94 173.138 180.397 173.138 179.749C173.138 179.115 173.242 178.572 173.451 178.118C173.667 177.664 173.966 177.315 174.347 177.07C174.736 176.826 175.186 176.703 175.697 176.703ZM175.687 177.481C175.233 177.481 174.873 177.628 174.607 177.924C174.347 178.212 174.193 178.615 174.142 179.133H177.091C177.083 178.644 176.968 178.248 176.745 177.945C176.522 177.636 176.169 177.481 175.687 177.481ZM180.508 182.6H179.558V174.392H180.508V182.6Z" fill="#323232"/>
</g>
</g>
<defs>
<filter id="filter0_i_10224_40055" x="-4" y="-20" width="71" height="251" filterUnits="userSpaceOnUse" color-interpolation-filters="sRGB">
<feFlood flood-opacity="0" result="BackgroundImageFix"/>
<feBlend mode="normal" in="SourceGraphic" in2="BackgroundImageFix" result="shape"/>
<feColorMatrix in="SourceAlpha" type="matrix" values="0 0 0 0 0 0 0 0 0 0 0 0 0 0 0 0 0 0 127 0" result="hardAlpha"/>
<feOffset dx="-1.2"/>
<feComposite in2="hardAlpha" operator="arithmetic" k2="-1" k3="1"/>
<feColorMatrix type="matrix" values="0 0 0 0 0.788235 0 0 0 0 0.788235 0 0 0 0 0.788235 0 0 0 1 0"/>
<feBlend mode="normal" in2="shape" result="effect1_innerShadow_10224_40055"/>
</filter>
<filter id="filter1_d_10224_40055" x="8.40039" y="68" width="332" height="148" filterUnits="userSpaceOnUse" color-interpolation-filters="sRGB">
<feFlood flood-opacity="0" result="BackgroundImageFix"/>
<feColorMatrix in="SourceAlpha" type="matrix" values="0 0 0 0 0 0 0 0 0 0 0 0 0 0 0 0 0 0 127 0" result="hardAlpha"/>
<feOffset dy="4"/>
<feGaussianBlur stdDeviation="4"/>
<feColorMatrix type="matrix" values="0 0 0 0 0 0 0 0 0 0 0 0 0 0 0 0 0 0 0.25 0"/>
<feBlend mode="normal" in2="BackgroundImageFix" result="effect1_dropShadow_10224_40055"/>
<feBlend mode="normal" in="SourceGraphic" in2="effect1_dropShadow_10224_40055" result="shape"/>
</filter>
<clipPath id="clip0_10224_40055">
<rect width="412" height="220" fill="white"/>
</clipPath>
<clipPath id="clip1_10224_40055">
<rect width="412" height="220" fill="white"/>
</clipPath>
<clipPath id="clip2_10224_40055">
<rect width="615.6" height="238.2" fill="white" transform="translate(0 -7)"/>
</clipPath>
</defs>
</svg>
