<svg width="952" height="560" viewBox="0 0 952 560" fill="none" xmlns="http://www.w3.org/2000/svg">
<rect width="952" height="560" fill="#F1F1F1"/>
<g filter="url(#filter0_d_10221_30454)">
<g clip-path="url(#clip0_10221_30454)">
<g clip-path="url(#clip1_10221_30454)">
<rect width="880" height="480" transform="translate(36 40)" fill="#EEEEF0"/>
<g filter="url(#filter1_i_10221_30454)">
<rect width="880" height="58" transform="translate(36 40)" fill="white"/>
<path d="M36 40H83.7595L113 98H36V40Z" fill="#DA291C"/>
<line x1="36" y1="97.5" x2="113" y2="97.5" stroke="#C9C9C9"/>
<path d="M58.9378 74.2535H66.9108L68.2099 77.28H57.4439L55.7227 80.7636H50.9648L62.7538 57.8444H66.0502L77.8392 80.7636H73.0976L64.4101 63.0619L58.9378 74.2535Z" fill="white"/>
<rect x="129" y="63" width="120" height="12" rx="2" fill="#C9C9C9"/>
<rect x="535.5" y="51.5" width="199" height="35" rx="1.5" fill="white"/>
<rect x="535.5" y="51.5" width="199" height="35" rx="1.5" stroke="#C9C9C9"/>
<path fill-rule="evenodd" clip-rule="evenodd" d="M553.62 62.7493C550.93 62.7493 548.749 64.93 548.749 67.62C548.749 70.31 550.93 72.4906 553.62 72.4906C556.31 72.4906 558.491 70.31 558.491 67.62C558.491 64.93 556.31 62.7493 553.62 62.7493ZM548 67.62C548 64.5162 550.516 62 553.62 62C556.724 62 559.24 64.5162 559.24 67.62C559.24 70.7238 556.724 73.24 553.62 73.24C550.516 73.24 548 70.7238 548 67.62Z" fill="#939393"/>
<path fill-rule="evenodd" clip-rule="evenodd" d="M557.302 71.3015C557.448 71.1552 557.685 71.1552 557.831 71.3015L559.68 73.1499C559.826 73.2962 559.826 73.5334 559.68 73.6797C559.533 73.8261 559.296 73.8261 559.15 73.6797L557.302 71.8314C557.155 71.6851 557.155 71.4478 557.302 71.3015Z" fill="#939393"/>
<path fill-rule="evenodd" clip-rule="evenodd" d="M560.449 73.7297C560.245 73.5263 559.933 73.5263 559.73 73.7297C559.526 73.9331 559.526 74.2453 559.73 74.4487L560.379 75.0981C560.386 75.1049 560.392 75.112 560.399 75.1192C560.538 75.2822 560.882 75.3138 561.098 75.0981C561.302 74.8948 561.302 74.5825 561.098 74.3791L560.449 73.7297ZM559.2 73.1998C559.696 72.7038 560.483 72.7038 560.979 73.1998L561.628 73.8493C562.124 74.3453 562.124 75.132 561.628 75.628C561.148 76.1081 560.302 76.1428 559.84 75.6189L559.2 74.9786C558.704 74.4826 558.704 73.6958 559.2 73.1998Z" fill="#939393"/>
<path d="M775 79.5C769.201 79.5 764.5 74.799 764.5 69C764.5 63.201 769.201 58.5 775 58.5C780.799 58.5 785.5 63.201 785.5 69C785.5 74.799 780.799 79.5 775 79.5Z" fill="#C9C9C9"/>
<path d="M823 79.5C817.201 79.5 812.5 74.799 812.5 69C812.5 63.201 817.201 58.5 823 58.5C828.799 58.5 833.5 63.201 833.5 69C833.5 74.799 828.799 79.5 823 79.5Z" fill="#C9C9C9"/>
<circle cx="880" cy="69" r="20" fill="white"/>
<g clip-path="url(#clip2_10221_30454)">
<path d="M868.571 85.413V83.0845C868.571 80.0534 869.776 77.1465 871.919 75.0032C874.062 72.86 876.969 71.6559 880 71.6559C883.031 71.6559 885.938 72.86 888.081 75.0032C890.224 77.1465 891.429 80.0534 891.429 83.0845V85.413C894.923 82.98 897.549 79.4952 898.926 75.466C900.303 71.4368 900.357 67.0734 899.082 63.0109C897.807 58.9484 895.269 55.3988 891.837 52.8789C888.405 50.3589 884.258 49 880 49C875.742 49 871.595 50.3589 868.163 52.8789C864.731 55.3988 862.193 58.9484 860.918 63.0109C859.643 67.0734 859.697 71.4368 861.074 75.466C862.451 79.4952 865.077 82.98 868.571 85.413ZM880 55.6273C881.297 55.6273 882.565 56.0119 883.643 56.7324C884.721 57.4529 885.562 58.477 886.058 59.6752C886.554 60.8733 886.684 62.1917 886.431 63.4637C886.178 64.7357 885.554 65.904 884.637 66.8211C883.72 67.7381 882.551 68.3626 881.279 68.6156C880.007 68.8686 878.689 68.7388 877.491 68.2425C876.293 67.7462 875.268 66.9057 874.548 65.8274C873.827 64.7491 873.443 63.4813 873.443 62.1845C873.447 60.4466 874.139 58.7809 875.368 57.552C876.596 56.3231 878.262 55.6311 880 55.6273Z" fill="#C9C9C9"/>
</g>
</g>
<g filter="url(#filter2_i_10221_30454)">
<rect width="200" height="422" transform="translate(36 98)" fill="white"/>
<rect width="200" height="48" transform="translate(36 98)" fill="white"/>
<path d="M64 134C58.201 134 53.5 129.299 53.5 123.5C53.5 117.701 58.201 113 64 113C69.799 113 74.5 117.701 74.5 123.5C74.5 129.299 69.799 134 64 134Z" fill="#C9C9C9"/>
<rect x="83" y="117" width="120" height="12" rx="2" fill="#C9C9C9"/>
<rect width="200" height="48" transform="translate(36 146)" fill="white"/>
<path d="M64 182C58.201 182 53.5 177.299 53.5 171.5C53.5 165.701 58.201 161 64 161C69.799 161 74.5 165.701 74.5 171.5C74.5 177.299 69.799 182 64 182Z" fill="#C9C9C9"/>
<rect x="83" y="165" width="120" height="12" rx="2" fill="#C9C9C9"/>
<rect width="200" height="48" transform="translate(36 194)" fill="white"/>
<path d="M64 230C58.201 230 53.5 225.299 53.5 219.5C53.5 213.701 58.201 209 64 209C69.799 209 74.5 213.701 74.5 219.5C74.5 225.299 69.799 230 64 230Z" fill="#C9C9C9"/>
<rect x="83" y="213" width="120" height="12" rx="2" fill="#C9C9C9"/>
<rect width="200" height="48" transform="translate(36 242)" fill="white"/>
<path d="M64 278C58.201 278 53.5 273.299 53.5 267.5C53.5 261.701 58.201 257 64 257C69.799 257 74.5 261.701 74.5 267.5C74.5 273.299 69.799 278 64 278Z" fill="#C9C9C9"/>
<rect x="83" y="261" width="120" height="12" rx="2" fill="#C9C9C9"/>
</g>
<g filter="url(#filter3_d_10221_30454)">
<g clip-path="url(#clip3_10221_30454)">
<rect x="244" y="106" width="664" height="406" rx="4" fill="white"/>
</g>
<rect x="243.5" y="105.5" width="665" height="407" rx="4.5" stroke="black" stroke-opacity="0.15"/>
</g>
<g filter="url(#filter4_d_10221_30454)">
<mask id="path-22-inside-1_10221_30454" fill="white">
<path d="M44 438C44 436.343 45.3431 435 47 435H359C360.657 435 362 436.343 362 438V508.5C362 510.157 360.657 511.5 359 511.5H47C45.3432 511.5 44 510.157 44 508.5V438Z"/>
</mask>
<path d="M44 438C44 436.343 45.3431 435 47 435H359C360.657 435 362 436.343 362 438V508.5C362 510.157 360.657 511.5 359 511.5H47C45.3432 511.5 44 510.157 44 508.5V438Z" fill="#FEF6F6"/>
<path d="M43.25 434.25C43.25 432.179 44.9289 430.5 47 430.5H359C361.071 430.5 362.75 432.179 362.75 434.25L361.25 439.5C361.25 439.5 360.243 439.5 359 439.5H47C45.7574 439.5 44.75 439.5 44.75 439.5L43.25 434.25ZM362.75 508.5C362.75 510.571 361.071 512.25 359 512.25H47C44.9289 512.25 43.25 510.571 43.25 508.5H44.75C44.75 509.743 45.7574 510.75 47 510.75H359C360.243 510.75 361.25 509.743 361.25 508.5H362.75ZM47 512.25C44.9289 512.25 43.25 510.571 43.25 508.5V434.25C43.25 432.179 44.9289 430.5 47 430.5V439.5C45.7574 439.5 44.75 439.5 44.75 439.5V508.5C44.75 509.743 45.7574 510.75 47 510.75V512.25ZM359 430.5C361.071 430.5 362.75 432.179 362.75 434.25V508.5C362.75 510.571 361.071 512.25 359 512.25V510.75C360.243 510.75 361.25 509.743 361.25 508.5V439.5C361.25 439.5 360.243 439.5 359 439.5V430.5Z" fill="#DA291C" mask="url(#path-22-inside-1_10221_30454)"/>
<path d="M67.4375 464.295V458.513C67.4375 458.363 67.4968 458.22 67.6023 458.115C67.7078 458.009 67.8508 457.95 68 457.95C68.1492 457.95 68.2923 458.009 68.3978 458.115C68.5033 458.22 68.5625 458.363 68.5625 458.513V464.295C68.5625 464.444 68.5033 464.587 68.3978 464.693C68.2923 464.798 68.1492 464.858 68 464.858C67.8508 464.858 67.7078 464.798 67.6023 464.693C67.4968 464.587 67.4375 464.444 67.4375 464.295ZM77.6 465.668L70.1675 473.1C69.8832 473.385 69.5454 473.612 69.1735 473.766C68.8015 473.921 68.4028 474 68 474C67.5973 474 67.1985 473.921 66.8265 473.766C66.4546 473.612 66.1168 473.385 65.8325 473.1L58.4 465.668C58.1147 465.383 57.8884 465.045 57.7339 464.673C57.5795 464.302 57.5 463.903 57.5 463.5C57.5 463.097 57.5795 462.698 57.7339 462.327C57.8884 461.955 58.1147 461.617 58.4 461.333L65.8325 453.9C66.1168 453.615 66.4546 453.388 66.8265 453.234C67.1985 453.08 67.5973 453 68 453C68.4028 453 68.8015 453.08 69.1735 453.234C69.5454 453.388 69.8832 453.615 70.1675 453.9L77.6 461.333C77.8853 461.617 78.1116 461.955 78.2661 462.327C78.4205 462.698 78.5 463.097 78.5 463.5C78.5 463.903 78.4205 464.302 78.2661 464.673C78.1116 465.045 77.8853 465.383 77.6 465.668ZM76.805 462.128L69.3725 454.695C69.1927 454.514 68.9788 454.37 68.7433 454.272C68.5077 454.174 68.2551 454.124 68 454.124C67.7449 454.124 67.4923 454.174 67.2567 454.272C67.0212 454.37 66.8073 454.514 66.6275 454.695L59.195 462.128C58.8314 462.492 58.6271 462.985 58.6271 463.5C58.6271 464.015 58.8314 464.508 59.195 464.873L66.6275 472.305C66.9973 472.658 67.4888 472.855 68 472.855C68.5112 472.855 69.0028 472.658 69.3725 472.305L76.805 464.873C77.1687 464.508 77.3729 464.015 77.3729 463.5C77.3729 462.985 77.1687 462.492 76.805 462.128ZM68 466.538C67.8072 466.538 67.6187 466.595 67.4583 466.702C67.298 466.809 67.173 466.961 67.0992 467.139C67.0254 467.318 67.0061 467.514 67.0437 467.703C67.0814 467.892 67.1742 468.066 67.3106 468.202C67.4469 468.338 67.6207 468.431 67.8098 468.469C67.9989 468.506 68.195 468.487 68.3731 468.413C68.5513 468.34 68.7036 468.215 68.8107 468.054C68.9178 467.894 68.975 467.705 68.975 467.513C68.975 467.384 68.9498 467.258 68.9008 467.139C68.8518 467.021 68.78 466.914 68.6894 466.823C68.5989 466.733 68.4914 466.661 68.3731 466.612C68.2548 466.563 68.1281 466.538 68 466.538Z" fill="#B51418"/>
<path d="M96.77 463.287C96.77 463.977 96.698 464.568 96.554 465.06C96.41 465.552 96.176 465.93 95.852 466.194C95.528 466.458 95.099 466.59 94.565 466.59C93.809 466.59 93.254 466.299 92.9 465.717C92.546 465.135 92.369 464.325 92.369 463.287C92.369 462.597 92.441 462.006 92.585 461.514C92.729 461.016 92.96 460.635 93.278 460.371C93.602 460.107 94.031 459.975 94.565 459.975C95.315 459.975 95.87 460.266 96.23 460.848C96.59 461.43 96.77 462.243 96.77 463.287ZM93.512 463.287C93.512 464.073 93.587 464.664 93.737 465.06C93.893 465.456 94.169 465.654 94.565 465.654C94.955 465.654 95.228 465.459 95.384 465.069C95.546 464.673 95.627 464.079 95.627 463.287C95.627 462.501 95.546 461.91 95.384 461.514C95.228 461.112 94.955 460.911 94.565 460.911C94.169 460.911 93.893 461.112 93.737 461.514C93.587 461.91 93.512 462.501 93.512 463.287ZM97.5374 463.764C97.5374 463.392 97.5614 463.026 97.6094 462.666C97.6634 462.306 97.7564 461.967 97.8884 461.649C98.0204 461.325 98.2034 461.04 98.4374 460.794C98.6714 460.542 98.9684 460.347 99.3284 460.209C99.6944 460.065 100.135 459.993 100.651 459.993C100.777 459.993 100.921 459.999 101.083 460.011C101.245 460.023 101.38 460.041 101.488 460.065V461.001C101.254 460.935 100.996 460.902 100.714 460.902C100.174 460.902 99.7544 461.001 99.4544 461.199C99.1544 461.391 98.9444 461.658 98.8244 462C98.7044 462.336 98.6324 462.714 98.6084 463.134H98.6624C98.7884 462.924 98.9684 462.747 99.2024 462.603C99.4364 462.453 99.7394 462.378 100.111 462.378C100.669 462.378 101.116 462.552 101.452 462.9C101.788 463.248 101.956 463.743 101.956 464.385C101.956 465.075 101.764 465.615 101.38 466.005C100.996 466.395 100.477 466.59 99.8234 466.59C99.3974 466.59 99.0104 466.488 98.6624 466.284C98.3204 466.08 98.0474 465.771 97.8434 465.357C97.6394 464.937 97.5374 464.406 97.5374 463.764ZM99.8054 465.663C100.111 465.663 100.36 465.561 100.552 465.357C100.744 465.147 100.84 464.826 100.84 464.394C100.84 464.046 100.756 463.773 100.588 463.575C100.42 463.371 100.168 463.269 99.8324 463.269C99.5984 463.269 99.3944 463.32 99.2204 463.422C99.0524 463.518 98.9204 463.644 98.8244 463.8C98.7284 463.95 98.6804 464.106 98.6804 464.268C98.6804 464.49 98.7224 464.709 98.8064 464.925C98.8904 465.135 99.0134 465.312 99.1754 465.456C99.3434 465.594 99.5534 465.663 99.8054 465.663ZM105.82 460.074L103.426 466.5H102.373L104.767 460.074H105.82ZM109.406 466.5H108.272V462.495C108.272 462.303 108.275 462.099 108.281 461.883C108.287 461.667 108.296 461.466 108.308 461.28C108.248 461.34 108.173 461.412 108.083 461.496C107.999 461.58 107.906 461.661 107.804 461.739L107.084 462.315L106.517 461.613L108.461 460.074H109.406V466.5ZM115.825 466.5H111.424V465.663L113.062 464.007C113.386 463.677 113.65 463.395 113.854 463.161C114.064 462.927 114.217 462.708 114.313 462.504C114.415 462.294 114.466 462.069 114.466 461.829C114.466 461.535 114.382 461.316 114.214 461.172C114.052 461.022 113.83 460.947 113.548 460.947C113.278 460.947 113.026 461.004 112.792 461.118C112.558 461.226 112.315 461.382 112.063 461.586L111.442 460.839C111.706 460.611 112.003 460.413 112.333 460.245C112.669 460.071 113.095 459.984 113.611 459.984C114.025 459.984 114.379 460.059 114.673 460.209C114.973 460.353 115.204 460.557 115.366 460.821C115.528 461.079 115.609 461.376 115.609 461.712C115.609 462.06 115.54 462.381 115.402 462.675C115.264 462.963 115.063 463.254 114.799 463.548C114.541 463.836 114.232 464.148 113.872 464.484L112.855 465.465V465.519H115.825V466.5ZM119.707 460.074L117.312 466.5H116.26L118.654 460.074H119.707ZM124.561 466.5H120.16V465.663L121.798 464.007C122.122 463.677 122.386 463.395 122.59 463.161C122.8 462.927 122.953 462.708 123.049 462.504C123.151 462.294 123.202 462.069 123.202 461.829C123.202 461.535 123.118 461.316 122.95 461.172C122.788 461.022 122.566 460.947 122.284 460.947C122.014 460.947 121.762 461.004 121.528 461.118C121.294 461.226 121.051 461.382 120.799 461.586L120.178 460.839C120.442 460.611 120.739 460.413 121.069 460.245C121.405 460.071 121.831 459.984 122.347 459.984C122.761 459.984 123.115 460.059 123.409 460.209C123.709 460.353 123.94 460.557 124.102 460.821C124.264 461.079 124.345 461.376 124.345 461.712C124.345 462.06 124.276 462.381 124.138 462.675C124 462.963 123.799 463.254 123.535 463.548C123.277 463.836 122.968 464.148 122.608 464.484L121.591 465.465V465.519H124.561V466.5ZM129.46 461.541C129.46 461.979 129.331 462.33 129.073 462.594C128.821 462.852 128.494 463.026 128.092 463.116V463.143C128.608 463.209 128.998 463.371 129.262 463.629C129.526 463.887 129.658 464.226 129.658 464.646C129.658 465.018 129.568 465.351 129.388 465.645C129.208 465.939 128.929 466.17 128.551 466.338C128.179 466.506 127.699 466.59 127.111 466.59C126.757 466.59 126.43 466.56 126.13 466.5C125.836 466.446 125.557 466.359 125.293 466.239V465.24C125.563 465.378 125.851 465.483 126.157 465.555C126.463 465.627 126.751 465.663 127.021 465.663C127.543 465.663 127.912 465.57 128.128 465.384C128.344 465.192 128.452 464.928 128.452 464.592C128.452 464.274 128.326 464.037 128.074 463.881C127.822 463.725 127.402 463.647 126.814 463.647H126.274V462.738H126.823C127.393 462.738 127.786 462.645 128.002 462.459C128.218 462.273 128.326 462.033 128.326 461.739C128.326 461.481 128.242 461.28 128.074 461.136C127.906 460.992 127.654 460.92 127.318 460.92C126.994 460.92 126.715 460.974 126.481 461.082C126.247 461.184 126.037 461.295 125.851 461.415L125.311 460.632C125.557 460.452 125.848 460.299 126.184 460.173C126.52 460.047 126.916 459.984 127.372 459.984C128.038 459.984 128.551 460.125 128.911 460.407C129.277 460.689 129.46 461.067 129.46 461.541ZM131.919 465.456L131.982 465.555C131.898 465.873 131.784 466.221 131.64 466.599C131.502 466.977 131.358 467.331 131.208 467.661H130.389C130.473 467.307 130.554 466.929 130.632 466.527C130.716 466.125 130.782 465.768 130.83 465.456H131.919ZM139.714 466.5H135.313V465.663L136.951 464.007C137.275 463.677 137.539 463.395 137.743 463.161C137.953 462.927 138.106 462.708 138.202 462.504C138.304 462.294 138.355 462.069 138.355 461.829C138.355 461.535 138.271 461.316 138.103 461.172C137.941 461.022 137.719 460.947 137.437 460.947C137.167 460.947 136.915 461.004 136.681 461.118C136.447 461.226 136.204 461.382 135.952 461.586L135.331 460.839C135.595 460.611 135.892 460.413 136.222 460.245C136.558 460.071 136.984 459.984 137.5 459.984C137.914 459.984 138.268 460.059 138.562 460.209C138.862 460.353 139.093 460.557 139.255 460.821C139.417 461.079 139.498 461.376 139.498 461.712C139.498 462.06 139.429 462.381 139.291 462.675C139.153 462.963 138.952 463.254 138.688 463.548C138.43 463.836 138.121 464.148 137.761 464.484L136.744 465.465V465.519H139.714V466.5ZM140.643 462.216C140.643 461.958 140.709 461.778 140.841 461.676C140.979 461.568 141.141 461.514 141.327 461.514C141.513 461.514 141.675 461.568 141.813 461.676C141.951 461.778 142.02 461.958 142.02 462.216C142.02 462.456 141.951 462.633 141.813 462.747C141.675 462.855 141.513 462.909 141.327 462.909C141.141 462.909 140.979 462.855 140.841 462.747C140.709 462.633 140.643 462.456 140.643 462.216ZM140.643 465.924C140.643 465.672 140.709 465.495 140.841 465.393C140.979 465.285 141.141 465.231 141.327 465.231C141.513 465.231 141.675 465.285 141.813 465.393C141.951 465.495 142.02 465.672 142.02 465.924C142.02 466.17 141.951 466.347 141.813 466.455C141.675 466.563 141.513 466.617 141.327 466.617C141.141 466.617 140.979 466.563 140.841 466.455C140.709 466.347 140.643 466.17 140.643 465.924ZM147.36 463.287C147.36 463.977 147.288 464.568 147.144 465.06C147 465.552 146.766 465.93 146.442 466.194C146.118 466.458 145.689 466.59 145.155 466.59C144.399 466.59 143.844 466.299 143.49 465.717C143.136 465.135 142.959 464.325 142.959 463.287C142.959 462.597 143.031 462.006 143.175 461.514C143.319 461.016 143.55 460.635 143.868 460.371C144.192 460.107 144.621 459.975 145.155 459.975C145.905 459.975 146.46 460.266 146.82 460.848C147.18 461.43 147.36 462.243 147.36 463.287ZM144.102 463.287C144.102 464.073 144.177 464.664 144.327 465.06C144.483 465.456 144.759 465.654 145.155 465.654C145.545 465.654 145.818 465.459 145.974 465.069C146.136 464.673 146.217 464.079 146.217 463.287C146.217 462.501 146.136 461.91 145.974 461.514C145.818 461.112 145.545 460.911 145.155 460.911C144.759 460.911 144.483 461.112 144.327 461.514C144.177 461.91 144.102 462.501 144.102 463.287ZM152.276 461.541C152.276 461.979 152.147 462.33 151.889 462.594C151.637 462.852 151.31 463.026 150.908 463.116V463.143C151.424 463.209 151.814 463.371 152.078 463.629C152.342 463.887 152.474 464.226 152.474 464.646C152.474 465.018 152.384 465.351 152.204 465.645C152.024 465.939 151.745 466.17 151.367 466.338C150.995 466.506 150.515 466.59 149.927 466.59C149.573 466.59 149.246 466.56 148.946 466.5C148.652 466.446 148.373 466.359 148.109 466.239V465.24C148.379 465.378 148.667 465.483 148.973 465.555C149.279 465.627 149.567 465.663 149.837 465.663C150.359 465.663 150.728 465.57 150.944 465.384C151.16 465.192 151.268 464.928 151.268 464.592C151.268 464.274 151.142 464.037 150.89 463.881C150.638 463.725 150.218 463.647 149.63 463.647H149.09V462.738H149.639C150.209 462.738 150.602 462.645 150.818 462.459C151.034 462.273 151.142 462.033 151.142 461.739C151.142 461.481 151.058 461.28 150.89 461.136C150.722 460.992 150.47 460.92 150.134 460.92C149.81 460.92 149.531 460.974 149.297 461.082C149.063 461.184 148.853 461.295 148.667 461.415L148.127 460.632C148.373 460.452 148.664 460.299 149 460.173C149.336 460.047 149.732 459.984 150.188 459.984C150.854 459.984 151.367 460.125 151.727 460.407C152.093 460.689 152.276 461.067 152.276 461.541ZM157.983 460.074C158.817 460.074 159.423 460.248 159.801 460.596C160.185 460.938 160.377 461.418 160.377 462.036C160.377 462.402 160.299 462.744 160.143 463.062C159.987 463.38 159.723 463.638 159.351 463.836C158.985 464.034 158.487 464.133 157.857 464.133H157.218V466.5H156.066V460.074H157.983ZM157.911 461.028H157.218V463.179H157.74C158.208 463.179 158.568 463.095 158.82 462.927C159.078 462.753 159.207 462.471 159.207 462.081C159.207 461.727 159.102 461.463 158.892 461.289C158.682 461.115 158.355 461.028 157.911 461.028ZM164.401 466.5L162.637 461.235H162.601C162.613 461.355 162.622 461.526 162.628 461.748C162.64 461.964 162.649 462.201 162.655 462.459C162.667 462.711 162.673 462.948 162.673 463.17V466.5H161.638V460.074H163.24L164.932 465.123H164.968L166.732 460.074H168.334V466.5H167.236V463.116C167.236 462.912 167.239 462.69 167.245 462.45C167.257 462.204 167.266 461.973 167.272 461.757C167.284 461.535 167.293 461.364 167.299 461.244H167.263L165.427 466.5H164.401Z" fill="#5E5E5E"/>
<path d="M99.1085 483.678C99.1085 484.945 98.755 485.9 98.048 486.544C97.341 487.181 96.354 487.5 95.087 487.5H92.9765V480.003H95.3075C96.0845 480.003 96.7565 480.143 97.3235 480.423C97.8905 480.703 98.328 481.116 98.636 481.662C98.951 482.208 99.1085 482.88 99.1085 483.678ZM97.7015 483.72C97.7015 482.824 97.495 482.166 97.082 481.746C96.669 481.326 96.0775 481.116 95.3075 481.116H94.3205V486.376H95.129C96.844 486.376 97.7015 485.491 97.7015 483.72ZM105.664 484.644C105.664 485.589 105.419 486.32 104.929 486.838C104.439 487.35 103.774 487.605 102.934 487.605C102.416 487.605 101.954 487.489 101.548 487.258C101.142 487.027 100.823 486.691 100.592 486.25C100.361 485.809 100.246 485.274 100.246 484.644C100.246 483.699 100.487 482.974 100.97 482.47C101.46 481.959 102.125 481.704 102.965 481.704C103.49 481.704 103.956 481.819 104.362 482.05C104.768 482.274 105.086 482.607 105.317 483.048C105.548 483.482 105.664 484.014 105.664 484.644ZM101.6 484.644C101.6 485.246 101.705 485.711 101.915 486.04C102.132 486.369 102.479 486.534 102.955 486.534C103.424 486.534 103.767 486.369 103.984 486.04C104.201 485.711 104.309 485.246 104.309 484.644C104.309 484.042 104.201 483.58 103.984 483.258C103.767 482.936 103.42 482.775 102.944 482.775C102.468 482.775 102.125 482.936 101.915 483.258C101.705 483.58 101.6 484.042 101.6 484.644ZM109.331 487.605C108.519 487.605 107.875 487.37 107.399 486.901C106.93 486.432 106.696 485.694 106.696 484.686C106.696 483.986 106.811 483.419 107.042 482.985C107.28 482.544 107.606 482.222 108.019 482.019C108.432 481.809 108.904 481.704 109.436 481.704C109.786 481.704 110.101 481.739 110.381 481.809C110.668 481.879 110.91 481.963 111.106 482.061L110.717 483.1C110.493 483.016 110.273 482.946 110.056 482.89C109.839 482.827 109.632 482.796 109.436 482.796C108.512 482.796 108.05 483.422 108.05 484.675C108.05 485.284 108.166 485.743 108.397 486.051C108.635 486.359 108.974 486.513 109.415 486.513C109.73 486.513 110.01 486.474 110.255 486.397C110.507 486.32 110.742 486.215 110.959 486.082V487.227C110.742 487.36 110.507 487.454 110.255 487.511C110.003 487.574 109.695 487.605 109.331 487.605ZM117.342 481.809V487.5H116.303L116.124 486.765H116.061C115.879 487.059 115.627 487.272 115.305 487.405C114.983 487.539 114.644 487.605 114.287 487.605C113.65 487.605 113.149 487.441 112.785 487.111C112.428 486.782 112.25 486.254 112.25 485.526V481.809H113.573V485.263C113.573 485.69 113.657 486.009 113.825 486.219C113.993 486.429 114.259 486.534 114.623 486.534C115.155 486.534 115.519 486.366 115.715 486.03C115.918 485.694 116.019 485.214 116.019 484.591V481.809H117.342ZM125.549 481.704C126.193 481.704 126.676 481.868 126.998 482.198C127.327 482.526 127.492 483.058 127.492 483.793V487.5H126.169V484.045C126.169 483.198 125.847 482.775 125.203 482.775C124.741 482.775 124.412 482.925 124.216 483.226C124.02 483.527 123.922 483.965 123.922 484.539V487.5H122.599V484.045C122.599 483.198 122.273 482.775 121.622 482.775C121.139 482.775 120.807 482.943 120.625 483.279C120.443 483.615 120.352 484.094 120.352 484.717V487.5H119.029V481.809H120.047L120.236 482.554H120.31C120.485 482.26 120.723 482.047 121.024 481.914C121.325 481.774 121.64 481.704 121.969 481.704C122.396 481.704 122.753 481.774 123.04 481.914C123.334 482.054 123.558 482.278 123.712 482.586H123.817C123.992 482.278 124.237 482.054 124.552 481.914C124.867 481.774 125.199 481.704 125.549 481.704ZM131.438 481.704C132.201 481.704 132.803 481.931 133.244 482.386C133.692 482.841 133.916 483.475 133.916 484.287V484.959H130.157C130.171 485.477 130.315 485.879 130.588 486.166C130.861 486.446 131.239 486.586 131.722 486.586C132.086 486.586 132.415 486.551 132.709 486.481C133.003 486.404 133.304 486.296 133.612 486.156V487.216C133.332 487.349 133.041 487.447 132.74 487.511C132.439 487.574 132.079 487.605 131.659 487.605C131.099 487.605 130.605 487.5 130.178 487.29C129.751 487.073 129.415 486.751 129.17 486.324C128.932 485.89 128.813 485.347 128.813 484.696C128.813 483.723 129.051 482.981 129.527 482.47C130.01 481.959 130.647 481.704 131.438 481.704ZM131.438 482.68C131.081 482.68 130.791 482.796 130.567 483.027C130.35 483.251 130.224 483.587 130.189 484.035H132.635C132.628 483.643 132.527 483.321 132.331 483.069C132.142 482.81 131.844 482.68 131.438 482.68ZM138.295 481.704C138.932 481.704 139.429 481.868 139.786 482.198C140.15 482.526 140.332 483.058 140.332 483.793V487.5H139.009V484.056C139.009 483.629 138.925 483.31 138.757 483.1C138.589 482.883 138.323 482.775 137.959 482.775C137.427 482.775 137.063 482.943 136.867 483.279C136.671 483.615 136.573 484.094 136.573 484.717V487.5H135.25V481.809H136.269L136.458 482.554H136.531C136.713 482.26 136.962 482.047 137.277 481.914C137.599 481.774 137.938 481.704 138.295 481.704ZM144.192 486.544C144.353 486.544 144.511 486.53 144.665 486.502C144.826 486.467 144.973 486.429 145.106 486.387V487.374C144.966 487.444 144.784 487.5 144.56 487.542C144.336 487.584 144.101 487.605 143.856 487.605C143.527 487.605 143.23 487.553 142.964 487.447C142.705 487.342 142.498 487.157 142.344 486.891C142.19 486.625 142.113 486.25 142.113 485.767V482.806H141.347V482.229L142.187 481.767L142.607 480.559H143.436V481.809H145.053V482.806H143.436V485.757C143.436 486.023 143.506 486.222 143.646 486.355C143.793 486.481 143.975 486.544 144.192 486.544ZM150.303 479.52V481.42C150.303 481.644 150.293 481.865 150.272 482.082C150.258 482.292 150.244 482.449 150.23 482.554H150.314C150.496 482.267 150.734 482.054 151.028 481.914C151.322 481.774 151.647 481.704 152.004 481.704C152.648 481.704 153.152 481.872 153.516 482.208C153.88 482.537 154.062 483.065 154.062 483.793V487.5H152.739V484.056C152.739 483.629 152.655 483.31 152.487 483.1C152.319 482.883 152.053 482.775 151.689 482.775C151.157 482.775 150.793 482.943 150.597 483.279C150.401 483.615 150.303 484.094 150.303 484.717V487.5H148.98V479.52H150.303ZM157.985 481.704C158.72 481.704 159.277 481.865 159.655 482.187C160.04 482.509 160.232 483.006 160.232 483.678V487.5H159.298L159.035 486.712H158.993C158.748 487.02 158.489 487.248 158.216 487.395C157.943 487.535 157.572 487.605 157.103 487.605C156.592 487.605 156.169 487.462 155.833 487.174C155.497 486.887 155.329 486.443 155.329 485.841C155.329 485.253 155.542 484.812 155.969 484.518C156.403 484.224 157.058 484.059 157.933 484.024L158.92 483.993V483.709C158.92 483.345 158.832 483.086 158.657 482.932C158.482 482.778 158.237 482.701 157.922 482.701C157.635 482.701 157.359 482.743 157.093 482.827C156.834 482.904 156.575 483.002 156.316 483.121L155.896 482.198C156.176 482.05 156.494 481.931 156.851 481.84C157.215 481.749 157.593 481.704 157.985 481.704ZM158.92 484.812L158.227 484.833C157.646 484.854 157.243 484.955 157.019 485.137C156.795 485.312 156.683 485.55 156.683 485.851C156.683 486.124 156.76 486.32 156.914 486.439C157.075 486.551 157.285 486.607 157.544 486.607C157.929 486.607 158.255 486.499 158.521 486.282C158.787 486.058 158.92 485.729 158.92 485.295V484.812ZM165.765 485.851C165.765 486.425 165.558 486.863 165.145 487.164C164.739 487.458 164.155 487.605 163.392 487.605C162.993 487.605 162.65 487.577 162.363 487.521C162.083 487.465 161.81 487.377 161.544 487.258V486.135C161.824 486.268 162.132 486.38 162.468 486.471C162.811 486.562 163.133 486.607 163.434 486.607C163.798 486.607 164.06 486.551 164.221 486.439C164.382 486.327 164.463 486.177 164.463 485.988C164.463 485.876 164.431 485.778 164.368 485.694C164.305 485.603 164.183 485.505 164.001 485.4C163.819 485.295 163.542 485.165 163.171 485.011C162.807 484.864 162.503 484.717 162.258 484.57C162.02 484.423 161.838 484.248 161.712 484.045C161.593 483.842 161.533 483.58 161.533 483.258C161.533 482.747 161.736 482.362 162.142 482.103C162.548 481.837 163.084 481.704 163.749 481.704C164.099 481.704 164.428 481.739 164.736 481.809C165.051 481.879 165.366 481.984 165.681 482.124L165.261 483.1C164.995 482.988 164.736 482.894 164.484 482.817C164.232 482.74 163.973 482.701 163.707 482.701C163.126 482.701 162.835 482.866 162.835 483.195C162.835 483.314 162.87 483.415 162.94 483.499C163.017 483.583 163.147 483.674 163.329 483.772C163.518 483.863 163.784 483.975 164.127 484.108C164.463 484.241 164.753 484.381 164.998 484.528C165.243 484.668 165.432 484.843 165.565 485.053C165.698 485.256 165.765 485.522 165.765 485.851ZM171.088 479.52V481.41C171.088 481.634 171.081 481.851 171.067 482.061C171.053 482.271 171.039 482.435 171.025 482.554H171.088C171.242 482.316 171.452 482.117 171.718 481.956C171.984 481.788 172.331 481.704 172.758 481.704C173.416 481.704 173.948 481.952 174.354 482.449C174.767 482.946 174.973 483.678 174.973 484.644C174.973 485.624 174.767 486.362 174.354 486.859C173.941 487.356 173.398 487.605 172.726 487.605C172.299 487.605 171.956 487.528 171.697 487.374C171.445 487.22 171.242 487.041 171.088 486.838H170.994L170.752 487.5H169.765V479.52H171.088ZM172.38 482.775C171.904 482.775 171.571 482.918 171.382 483.205C171.193 483.492 171.095 483.933 171.088 484.528V484.644C171.088 485.253 171.179 485.718 171.361 486.04C171.55 486.362 171.897 486.523 172.401 486.523C172.793 486.523 173.094 486.362 173.304 486.04C173.514 485.711 173.619 485.242 173.619 484.633C173.619 484.01 173.51 483.545 173.293 483.237C173.083 482.929 172.779 482.775 172.38 482.775ZM178.627 481.704C179.39 481.704 179.992 481.931 180.433 482.386C180.881 482.841 181.105 483.475 181.105 484.287V484.959H177.346C177.36 485.477 177.503 485.879 177.776 486.166C178.049 486.446 178.427 486.586 178.91 486.586C179.274 486.586 179.603 486.551 179.897 486.481C180.191 486.404 180.492 486.296 180.8 486.156V487.216C180.52 487.349 180.23 487.447 179.929 487.511C179.628 487.574 179.267 487.605 178.847 487.605C178.287 487.605 177.794 487.5 177.367 487.29C176.94 487.073 176.604 486.751 176.359 486.324C176.121 485.89 176.002 485.347 176.002 484.696C176.002 483.723 176.24 482.981 176.716 482.47C177.199 481.959 177.836 481.704 178.627 481.704ZM178.627 482.68C178.27 482.68 177.979 482.796 177.755 483.027C177.538 483.251 177.412 483.587 177.377 484.035H179.824C179.817 483.643 179.715 483.321 179.519 483.069C179.33 482.81 179.033 482.68 178.627 482.68ZM184.728 481.704C185.491 481.704 186.093 481.931 186.534 482.386C186.982 482.841 187.206 483.475 187.206 484.287V484.959H183.447C183.461 485.477 183.604 485.879 183.877 486.166C184.15 486.446 184.528 486.586 185.011 486.586C185.375 486.586 185.704 486.551 185.998 486.481C186.292 486.404 186.593 486.296 186.901 486.156V487.216C186.621 487.349 186.331 487.447 186.03 487.511C185.729 487.574 185.368 487.605 184.948 487.605C184.388 487.605 183.895 487.5 183.468 487.29C183.041 487.073 182.705 486.751 182.46 486.324C182.222 485.89 182.103 485.347 182.103 484.696C182.103 483.723 182.341 482.981 182.817 482.47C183.3 481.959 183.937 481.704 184.728 481.704ZM184.728 482.68C184.371 482.68 184.08 482.796 183.856 483.027C183.639 483.251 183.513 483.587 183.478 484.035H185.925C185.918 483.643 185.816 483.321 185.62 483.069C185.431 482.81 185.134 482.68 184.728 482.68ZM191.585 481.704C192.222 481.704 192.719 481.868 193.076 482.198C193.44 482.526 193.622 483.058 193.622 483.793V487.5H192.299V484.056C192.299 483.629 192.215 483.31 192.047 483.1C191.879 482.883 191.613 482.775 191.249 482.775C190.717 482.775 190.353 482.943 190.157 483.279C189.961 483.615 189.863 484.094 189.863 484.717V487.5H188.54V481.809H189.558L189.747 482.554H189.821C190.003 482.26 190.251 482.047 190.566 481.914C190.888 481.774 191.228 481.704 191.585 481.704ZM200.997 481.704C201.662 481.704 202.197 481.952 202.603 482.449C203.009 482.939 203.212 483.671 203.212 484.644C203.212 485.617 203.002 486.355 202.582 486.859C202.169 487.356 201.63 487.605 200.965 487.605C200.545 487.605 200.206 487.528 199.947 487.374C199.688 487.22 199.481 487.041 199.327 486.838H199.243C199.264 486.971 199.282 487.115 199.296 487.269C199.317 487.423 199.327 487.57 199.327 487.71V490.02H198.004V481.809H199.075L199.264 482.565H199.327C199.488 482.327 199.698 482.124 199.957 481.956C200.216 481.788 200.563 481.704 200.997 481.704ZM200.619 482.775C200.15 482.775 199.817 482.915 199.621 483.195C199.432 483.475 199.334 483.898 199.327 484.465V484.633C199.327 485.242 199.418 485.711 199.6 486.04C199.789 486.362 200.136 486.523 200.64 486.523C201.053 486.523 201.357 486.355 201.553 486.019C201.756 485.676 201.858 485.211 201.858 484.623C201.858 484.035 201.756 483.58 201.553 483.258C201.357 482.936 201.046 482.775 200.619 482.775ZM206.866 481.704C207.629 481.704 208.231 481.931 208.672 482.386C209.12 482.841 209.344 483.475 209.344 484.287V484.959H205.585C205.599 485.477 205.743 485.879 206.016 486.166C206.289 486.446 206.667 486.586 207.15 486.586C207.514 486.586 207.843 486.551 208.137 486.481C208.431 486.404 208.732 486.296 209.04 486.156V487.216C208.76 487.349 208.469 487.447 208.168 487.511C207.867 487.574 207.507 487.605 207.087 487.605C206.527 487.605 206.033 487.5 205.606 487.29C205.179 487.073 204.843 486.751 204.598 486.324C204.36 485.89 204.241 485.347 204.241 484.696C204.241 483.723 204.479 482.981 204.955 482.47C205.438 481.959 206.075 481.704 206.866 481.704ZM206.866 482.68C206.509 482.68 206.219 482.796 205.995 483.027C205.778 483.251 205.652 483.587 205.617 484.035H208.063C208.056 483.643 207.955 483.321 207.759 483.069C207.57 482.81 207.272 482.68 206.866 482.68ZM213.66 481.704C213.751 481.704 213.853 481.711 213.965 481.725C214.077 481.732 214.168 481.742 214.238 481.756L214.122 482.985C214.052 482.971 213.965 482.96 213.86 482.953C213.762 482.939 213.678 482.932 213.608 482.932C213.328 482.932 213.065 482.992 212.82 483.111C212.575 483.223 212.376 483.398 212.222 483.636C212.075 483.874 212.001 484.178 212.001 484.549V487.5H210.678V481.809H211.697L211.886 482.796H211.949C212.117 482.495 212.348 482.239 212.642 482.029C212.936 481.812 213.275 481.704 213.66 481.704ZM221.813 481.704C222.457 481.704 222.94 481.868 223.262 482.198C223.591 482.526 223.755 483.058 223.755 483.793V487.5H222.432V484.045C222.432 483.198 222.11 482.775 221.466 482.775C221.004 482.775 220.675 482.925 220.479 483.226C220.283 483.527 220.185 483.965 220.185 484.539V487.5H218.862V484.045C218.862 483.198 218.537 482.775 217.886 482.775C217.403 482.775 217.07 482.943 216.888 483.279C216.706 483.615 216.615 484.094 216.615 484.717V487.5H215.292V481.809H216.311L216.5 482.554H216.573C216.748 482.26 216.986 482.047 217.287 481.914C217.588 481.774 217.903 481.704 218.232 481.704C218.659 481.704 219.016 481.774 219.303 481.914C219.597 482.054 219.821 482.278 219.975 482.586H220.08C220.255 482.278 220.5 482.054 220.815 481.914C221.13 481.774 221.463 481.704 221.813 481.704ZM227.681 481.704C228.416 481.704 228.973 481.865 229.351 482.187C229.736 482.509 229.928 483.006 229.928 483.678V487.5H228.994L228.731 486.712H228.689C228.444 487.02 228.185 487.248 227.912 487.395C227.639 487.535 227.268 487.605 226.799 487.605C226.288 487.605 225.865 487.462 225.529 487.174C225.193 486.887 225.025 486.443 225.025 485.841C225.025 485.253 225.238 484.812 225.665 484.518C226.099 484.224 226.754 484.059 227.629 484.024L228.616 483.993V483.709C228.616 483.345 228.528 483.086 228.353 482.932C228.178 482.778 227.933 482.701 227.618 482.701C227.331 482.701 227.055 482.743 226.789 482.827C226.53 482.904 226.271 483.002 226.012 483.121L225.592 482.198C225.872 482.05 226.19 481.931 226.547 481.84C226.911 481.749 227.289 481.704 227.681 481.704ZM228.616 484.812L227.923 484.833C227.342 484.854 226.939 484.955 226.715 485.137C226.491 485.312 226.379 485.55 226.379 485.851C226.379 486.124 226.456 486.32 226.61 486.439C226.771 486.551 226.981 486.607 227.24 486.607C227.625 486.607 227.951 486.499 228.217 486.282C228.483 486.058 228.616 485.729 228.616 485.295V484.812ZM234.631 481.704C235.268 481.704 235.765 481.868 236.122 482.198C236.486 482.526 236.668 483.058 236.668 483.793V487.5H235.345V484.056C235.345 483.629 235.261 483.31 235.093 483.1C234.925 482.883 234.659 482.775 234.295 482.775C233.763 482.775 233.399 482.943 233.203 483.279C233.007 483.615 232.909 484.094 232.909 484.717V487.5H231.586V481.809H232.604L232.793 482.554H232.867C233.049 482.26 233.297 482.047 233.612 481.914C233.934 481.774 234.274 481.704 234.631 481.704ZM240.612 481.704C241.375 481.704 241.977 481.931 242.418 482.386C242.866 482.841 243.09 483.475 243.09 484.287V484.959H239.331C239.345 485.477 239.488 485.879 239.761 486.166C240.034 486.446 240.412 486.586 240.895 486.586C241.259 486.586 241.588 486.551 241.882 486.481C242.176 486.404 242.477 486.296 242.785 486.156V487.216C242.505 487.349 242.215 487.447 241.914 487.511C241.613 487.574 241.252 487.605 240.832 487.605C240.272 487.605 239.779 487.5 239.352 487.29C238.925 487.073 238.589 486.751 238.344 486.324C238.106 485.89 237.987 485.347 237.987 484.696C237.987 483.723 238.225 482.981 238.701 482.47C239.184 481.959 239.821 481.704 240.612 481.704ZM240.612 482.68C240.255 482.68 239.964 482.796 239.74 483.027C239.523 483.251 239.397 483.587 239.362 484.035H241.809C241.802 483.643 241.7 483.321 241.504 483.069C241.315 482.81 241.018 482.68 240.612 482.68ZM247.469 481.704C248.106 481.704 248.603 481.868 248.96 482.198C249.324 482.526 249.506 483.058 249.506 483.793V487.5H248.183V484.056C248.183 483.629 248.099 483.31 247.931 483.1C247.763 482.883 247.497 482.775 247.133 482.775C246.601 482.775 246.237 482.943 246.041 483.279C245.845 483.615 245.747 484.094 245.747 484.717V487.5H244.424V481.809H245.442L245.631 482.554H245.705C245.887 482.26 246.135 482.047 246.45 481.914C246.772 481.774 247.112 481.704 247.469 481.704ZM253.366 486.544C253.527 486.544 253.684 486.53 253.838 486.502C253.999 486.467 254.146 486.429 254.279 486.387V487.374C254.139 487.444 253.957 487.5 253.733 487.542C253.509 487.584 253.275 487.605 253.03 487.605C252.701 487.605 252.403 487.553 252.137 487.447C251.878 487.342 251.672 487.157 251.518 486.891C251.364 486.625 251.287 486.25 251.287 485.767V482.806H250.52V482.229L251.36 481.767L251.78 480.559H252.61V481.809H254.227V482.806H252.61V485.757C252.61 486.023 252.68 486.222 252.82 486.355C252.967 486.481 253.149 486.544 253.366 486.544ZM256.749 487.5H255.426V479.52H256.749V487.5ZM257.59 481.809H259.029L260.163 485.022C260.24 485.225 260.303 485.428 260.352 485.631C260.401 485.827 260.436 486.023 260.457 486.219H260.499C260.527 486.037 260.569 485.844 260.625 485.641C260.681 485.431 260.744 485.225 260.814 485.022L261.906 481.809H263.334L260.908 488.256C260.691 488.823 260.394 489.257 260.016 489.558C259.645 489.866 259.186 490.02 258.64 490.02C258.465 490.02 258.311 490.01 258.178 489.989C258.052 489.975 257.944 489.957 257.853 489.936V488.886C257.93 488.9 258.021 488.914 258.126 488.928C258.238 488.942 258.353 488.949 258.472 488.949C258.794 488.949 259.053 488.851 259.249 488.655C259.445 488.466 259.596 488.228 259.701 487.941L259.869 487.479L257.59 481.809ZM269.893 481.704C269.984 481.704 270.085 481.711 270.197 481.725C270.309 481.732 270.4 481.742 270.47 481.756L270.355 482.985C270.285 482.971 270.197 482.96 270.092 482.953C269.994 482.939 269.91 482.932 269.84 482.932C269.56 482.932 269.298 482.992 269.053 483.111C268.808 483.223 268.608 483.398 268.454 483.636C268.307 483.874 268.234 484.178 268.234 484.549V487.5H266.911V481.809H267.929L268.118 482.796H268.181C268.349 482.495 268.58 482.239 268.874 482.029C269.168 481.812 269.508 481.704 269.893 481.704ZM273.609 481.704C274.372 481.704 274.974 481.931 275.415 482.386C275.863 482.841 276.087 483.475 276.087 484.287V484.959H272.328C272.342 485.477 272.485 485.879 272.758 486.166C273.031 486.446 273.409 486.586 273.892 486.586C274.256 486.586 274.585 486.551 274.879 486.481C275.173 486.404 275.474 486.296 275.782 486.156V487.216C275.502 487.349 275.212 487.447 274.911 487.511C274.61 487.574 274.249 487.605 273.829 487.605C273.269 487.605 272.776 487.5 272.349 487.29C271.922 487.073 271.586 486.751 271.341 486.324C271.103 485.89 270.984 485.347 270.984 484.696C270.984 483.723 271.222 482.981 271.698 482.47C272.181 481.959 272.818 481.704 273.609 481.704ZM273.609 482.68C273.252 482.68 272.961 482.796 272.737 483.027C272.52 483.251 272.394 483.587 272.359 484.035H274.806C274.799 483.643 274.697 483.321 274.501 483.069C274.312 482.81 274.015 482.68 273.609 482.68ZM283.941 481.704C284.585 481.704 285.068 481.868 285.39 482.198C285.719 482.526 285.884 483.058 285.884 483.793V487.5H284.561V484.045C284.561 483.198 284.239 482.775 283.595 482.775C283.133 482.775 282.804 482.925 282.608 483.226C282.412 483.527 282.314 483.965 282.314 484.539V487.5H280.991V484.045C280.991 483.198 280.665 482.775 280.014 482.775C279.531 482.775 279.199 482.943 279.017 483.279C278.835 483.615 278.744 484.094 278.744 484.717V487.5H277.421V481.809H278.439L278.628 482.554H278.702C278.877 482.26 279.115 482.047 279.416 481.914C279.717 481.774 280.032 481.704 280.361 481.704C280.788 481.704 281.145 481.774 281.432 481.914C281.726 482.054 281.95 482.278 282.104 482.586H282.209C282.384 482.278 282.629 482.054 282.944 481.914C283.259 481.774 283.591 481.704 283.941 481.704ZM292.623 484.644C292.623 485.589 292.378 486.32 291.888 486.838C291.398 487.35 290.733 487.605 289.893 487.605C289.375 487.605 288.913 487.489 288.507 487.258C288.101 487.027 287.783 486.691 287.552 486.25C287.321 485.809 287.205 485.274 287.205 484.644C287.205 483.699 287.447 482.974 287.93 482.47C288.42 481.959 289.085 481.704 289.925 481.704C290.45 481.704 290.915 481.819 291.321 482.05C291.727 482.274 292.046 482.607 292.277 483.048C292.508 483.482 292.623 484.014 292.623 484.644ZM288.56 484.644C288.56 485.246 288.665 485.711 288.875 486.04C289.092 486.369 289.438 486.534 289.914 486.534C290.383 486.534 290.726 486.369 290.943 486.04C291.16 485.711 291.269 485.246 291.269 484.644C291.269 484.042 291.16 483.58 290.943 483.258C290.726 482.936 290.38 482.775 289.904 482.775C289.428 482.775 289.085 482.936 288.875 483.258C288.665 483.58 288.56 484.042 288.56 484.644ZM295.099 487.5L292.936 481.809H294.332L295.466 485.095C295.543 485.298 295.61 485.522 295.666 485.767C295.722 486.012 295.757 486.219 295.771 486.387H295.813C295.834 486.205 295.876 485.995 295.939 485.757C296.002 485.519 296.068 485.298 296.138 485.095L297.272 481.809H298.669L296.506 487.5H295.099ZM301.807 481.704C302.57 481.704 303.172 481.931 303.613 482.386C304.061 482.841 304.285 483.475 304.285 484.287V484.959H300.526C300.54 485.477 300.683 485.879 300.956 486.166C301.229 486.446 301.607 486.586 302.09 486.586C302.454 486.586 302.783 486.551 303.077 486.481C303.371 486.404 303.672 486.296 303.98 486.156V487.216C303.7 487.349 303.41 487.447 303.109 487.511C302.808 487.574 302.447 487.605 302.027 487.605C301.467 487.605 300.974 487.5 300.547 487.29C300.12 487.073 299.784 486.751 299.539 486.324C299.301 485.89 299.182 485.347 299.182 484.696C299.182 483.723 299.42 482.981 299.896 482.47C300.379 481.959 301.016 481.704 301.807 481.704ZM301.807 482.68C301.45 482.68 301.159 482.796 300.935 483.027C300.718 483.251 300.592 483.587 300.557 484.035H303.004C302.997 483.643 302.895 483.321 302.699 483.069C302.51 482.81 302.213 482.68 301.807 482.68ZM307.499 487.605C306.841 487.605 306.305 487.36 305.892 486.87C305.486 486.373 305.283 485.638 305.283 484.665C305.283 483.685 305.49 482.946 305.903 482.449C306.316 481.952 306.858 481.704 307.53 481.704C307.95 481.704 308.293 481.784 308.559 481.945C308.832 482.106 309.049 482.302 309.21 482.533H309.273C309.252 482.435 309.231 482.288 309.21 482.092C309.189 481.889 309.179 481.697 309.179 481.515V479.52H310.502V487.5H309.473L309.231 486.754H309.179C309.018 486.992 308.804 487.195 308.538 487.363C308.272 487.525 307.926 487.605 307.499 487.605ZM307.898 486.534C308.388 486.534 308.731 486.394 308.927 486.114C309.13 485.834 309.235 485.41 309.242 484.843V484.675C309.242 484.066 309.144 483.601 308.948 483.279C308.759 482.95 308.402 482.785 307.877 482.785C307.471 482.785 307.159 482.953 306.942 483.289C306.732 483.618 306.627 484.084 306.627 484.686C306.627 485.288 306.736 485.746 306.953 486.061C307.17 486.376 307.485 486.534 307.898 486.534ZM312.003 486.828C312.003 486.534 312.08 486.327 312.234 486.208C312.395 486.082 312.584 486.019 312.801 486.019C313.018 486.019 313.207 486.082 313.368 486.208C313.529 486.327 313.609 486.534 313.609 486.828C313.609 487.115 313.529 487.321 313.368 487.447C313.207 487.574 313.018 487.637 312.801 487.637C312.584 487.637 312.395 487.574 312.234 487.447C312.08 487.321 312.003 487.115 312.003 486.828Z" fill="#242424"/>
<path d="M341.384 463.509L343.897 460.997C344.009 460.884 344.009 460.697 343.897 460.584C343.784 460.472 343.597 460.472 343.484 460.584L341.009 463.097L338.497 460.584C338.384 460.472 338.197 460.472 338.084 460.584C337.972 460.697 337.972 460.884 338.084 460.997L340.597 463.509L338.084 466.022C337.972 466.134 337.972 466.322 338.084 466.434C338.122 466.472 338.197 466.509 338.272 466.509C338.347 466.509 338.422 466.472 338.459 466.434L341.009 463.884L343.522 466.397C343.559 466.434 343.634 466.472 343.709 466.472C343.784 466.472 343.859 466.434 343.897 466.397C344.009 466.284 344.009 466.097 343.897 465.984L341.384 463.509Z" fill="#323232"/>
</g>
</g>
</g>
</g>
<defs>
<filter id="filter0_d_10221_30454" x="16" y="36" width="920" height="496" filterUnits="userSpaceOnUse" color-interpolation-filters="sRGB">
<feFlood flood-opacity="0" result="BackgroundImageFix"/>
<feColorMatrix in="SourceAlpha" type="matrix" values="0 0 0 0 0 0 0 0 0 0 0 0 0 0 0 0 0 0 127 0" result="hardAlpha"/>
<feOffset dy="4"/>
<feGaussianBlur stdDeviation="4"/>
<feColorMatrix type="matrix" values="0 0 0 0 0 0 0 0 0 0 0 0 0 0 0 0 0 0 0.25 0"/>
<feBlend mode="normal" in2="BackgroundImageFix" result="effect1_dropShadow_10221_30454"/>
<feBlend mode="normal" in="SourceGraphic" in2="effect1_dropShadow_10221_30454" result="shape"/>
</filter>
<filter id="filter1_i_10221_30454" x="36" y="40" width="880" height="58" filterUnits="userSpaceOnUse" color-interpolation-filters="sRGB">
<feFlood flood-opacity="0" result="BackgroundImageFix"/>
<feBlend mode="normal" in="SourceGraphic" in2="BackgroundImageFix" result="shape"/>
<feColorMatrix in="SourceAlpha" type="matrix" values="0 0 0 0 0 0 0 0 0 0 0 0 0 0 0 0 0 0 127 0" result="hardAlpha"/>
<feOffset dy="-1"/>
<feComposite in2="hardAlpha" operator="arithmetic" k2="-1" k3="1"/>
<feColorMatrix type="matrix" values="0 0 0 0 0.788235 0 0 0 0 0.788235 0 0 0 0 0.788235 0 0 0 1 0"/>
<feBlend mode="normal" in2="shape" result="effect1_innerShadow_10221_30454"/>
</filter>
<filter id="filter2_i_10221_30454" x="36" y="98" width="200" height="422" filterUnits="userSpaceOnUse" color-interpolation-filters="sRGB">
<feFlood flood-opacity="0" result="BackgroundImageFix"/>
<feBlend mode="normal" in="SourceGraphic" in2="BackgroundImageFix" result="shape"/>
<feColorMatrix in="SourceAlpha" type="matrix" values="0 0 0 0 0 0 0 0 0 0 0 0 0 0 0 0 0 0 127 0" result="hardAlpha"/>
<feOffset dx="-1"/>
<feComposite in2="hardAlpha" operator="arithmetic" k2="-1" k3="1"/>
<feColorMatrix type="matrix" values="0 0 0 0 0.788235 0 0 0 0 0.788235 0 0 0 0 0.788235 0 0 0 1 0"/>
<feBlend mode="normal" in2="shape" result="effect1_innerShadow_10221_30454"/>
</filter>
<filter id="filter3_d_10221_30454" x="233" y="95" width="686" height="428" filterUnits="userSpaceOnUse" color-interpolation-filters="sRGB">
<feFlood flood-opacity="0" result="BackgroundImageFix"/>
<feColorMatrix in="SourceAlpha" type="matrix" values="0 0 0 0 0 0 0 0 0 0 0 0 0 0 0 0 0 0 127 0" result="hardAlpha"/>
<feOffset/>
<feGaussianBlur stdDeviation="5"/>
<feColorMatrix type="matrix" values="0 0 0 0 0 0 0 0 0 0 0 0 0 0 0 0 0 0 0.05 0"/>
<feBlend mode="normal" in2="BackgroundImageFix" result="effect1_dropShadow_10221_30454"/>
<feBlend mode="normal" in="SourceGraphic" in2="effect1_dropShadow_10221_30454" result="shape"/>
</filter>
<filter id="filter4_d_10221_30454" x="28" y="427" width="350" height="108.5" filterUnits="userSpaceOnUse" color-interpolation-filters="sRGB">
<feFlood flood-opacity="0" result="BackgroundImageFix"/>
<feColorMatrix in="SourceAlpha" type="matrix" values="0 0 0 0 0 0 0 0 0 0 0 0 0 0 0 0 0 0 127 0" result="hardAlpha"/>
<feOffset dy="8"/>
<feGaussianBlur stdDeviation="8"/>
<feColorMatrix type="matrix" values="0 0 0 0 0 0 0 0 0 0 0 0 0 0 0 0 0 0 0.25 0"/>
<feBlend mode="normal" in2="BackgroundImageFix" result="effect1_dropShadow_10221_30454"/>
<feBlend mode="normal" in="SourceGraphic" in2="effect1_dropShadow_10221_30454" result="shape"/>
</filter>
<clipPath id="clip0_10221_30454">
<rect x="36" y="40" width="880" height="480" rx="8" fill="white"/>
</clipPath>
<clipPath id="clip1_10221_30454">
<rect width="880" height="480" fill="white" transform="translate(36 40)"/>
</clipPath>
<clipPath id="clip2_10221_30454">
<rect width="40.0001" height="36.6667" fill="white" transform="translate(860 48.9999)"/>
</clipPath>
<clipPath id="clip3_10221_30454">
<rect x="244" y="106" width="664" height="406" rx="4" fill="white"/>
</clipPath>
</defs>
</svg>
