<svg width="428" height="78" viewBox="0 0 428 78" fill="none" xmlns="http://www.w3.org/2000/svg">
<rect width="428" height="78" fill="white"/>
<mask id="path-1-inside-1_10221_32079" fill="white">
<path d="M14 4C14 1.79086 15.7909 0 18 0H410C412.209 0 414 1.79086 414 4V74C414 76.2091 412.209 78 410 78H18C15.7909 78 14 76.2091 14 74V4Z"/>
</mask>
<path d="M14 4C14 1.79086 15.7909 0 18 0H410C412.209 0 414 1.79086 414 4V74C414 76.2091 412.209 78 410 78H18C15.7909 78 14 76.2091 14 74V4Z" fill="#FFFBF5"/>
<path d="M13 -1C13 -3.76142 15.2386 -6 18 -6H410C412.761 -6 415 -3.76142 415 -1L413 6C413 6 411.657 6 410 6H18C16.3431 6 15 6 15 6L13 -1ZM415 74C415 76.7614 412.761 79 410 79H18C15.2386 79 13 76.7614 13 74H15C15 75.6569 16.3431 77 18 77H410C411.657 77 413 75.6569 413 74H415ZM18 79C15.2386 79 13 76.7614 13 74V-1C13 -3.76142 15.2386 -6 18 -6V6C16.3431 6 15 6 15 6V74C15 75.6569 16.3431 77 18 77V79ZM410 -6C412.761 -6 415 -3.76142 415 -1V74C415 76.7614 412.761 79 410 79V77C411.657 77 413 75.6569 413 74V6C413 6 411.657 6 410 6V-6Z" fill="#B35C00" mask="url(#path-1-inside-1_10221_32079)"/>
<path d="M45.9799 46.3681C46.7013 46.3681 47.2862 45.7832 47.2862 45.0618C47.2862 44.3403 46.7013 43.7555 45.9799 43.7555C45.2584 43.7555 44.6736 44.3403 44.6736 45.0618C44.6736 45.7832 45.2584 46.3681 45.9799 46.3681Z" fill="#8E4900"/>
<path d="M45.9799 41.4919C46.0785 41.4932 46.1763 41.4748 46.2677 41.4377C46.359 41.4006 46.442 41.3456 46.5117 41.2758C46.5814 41.2061 46.6365 41.1231 46.6736 41.0318C46.7107 40.9405 46.7291 40.8426 46.7278 40.744V33.0059C46.7278 32.8076 46.649 32.6174 46.5087 32.4771C46.3685 32.3369 46.1782 32.2581 45.9799 32.2581C45.7815 32.2581 45.5913 32.3369 45.4511 32.4771C45.3108 32.6174 45.232 32.8076 45.232 33.0059V40.744C45.232 40.9424 45.3108 41.1326 45.4511 41.2728C45.5913 41.4131 45.7815 41.4919 45.9799 41.4919Z" fill="#8E4900"/>
<path d="M59.5415 46.1986L48.5726 26.8634C48.3171 26.386 47.9368 25.9869 47.4723 25.7086C47.0078 25.4304 46.4765 25.2834 45.935 25.2834C45.3936 25.2834 44.8623 25.4304 44.3978 25.7086C43.9333 25.9869 43.553 26.386 43.2975 26.8634L32.4183 46.1986C32.1482 46.6542 32.0038 47.1734 32.0001 47.7031C31.9963 48.2328 32.1333 48.754 32.397 49.2134C32.6607 49.6729 33.0416 50.054 33.5009 50.318C33.9602 50.5819 34.4813 50.7192 35.011 50.7158H56.9488C57.4819 50.7264 58.0081 50.5944 58.473 50.3333C58.9379 50.0723 59.3246 49.6918 59.5931 49.2311C59.8616 48.7705 60.002 48.2464 60 47.7132C59.9979 47.1801 59.8534 46.6571 59.5814 46.1986H59.5415ZM58.2352 48.4621C58.1095 48.6962 57.9245 48.8931 57.6987 49.0331C57.4729 49.1731 57.2143 49.2513 56.9488 49.2599H35.011C34.7426 49.2623 34.4784 49.1934 34.2454 49.0602C34.0124 48.9271 33.8189 48.7345 33.6847 48.502C33.5528 48.2695 33.4834 48.0066 33.4834 47.7392C33.4834 47.4718 33.5528 47.2089 33.6847 46.9764L44.6537 27.6411C44.7876 27.4047 44.9818 27.2081 45.2166 27.0712C45.4513 26.9344 45.7182 26.8623 45.9899 26.8623C46.2616 26.8623 46.5284 26.9344 46.7632 27.0712C46.9979 27.2081 47.1922 27.4047 47.3261 27.6411L58.295 46.9764C58.4135 47.2083 58.4703 47.4668 58.4598 47.7271C58.4493 47.9873 58.372 48.2405 58.2352 48.4621Z" fill="#8E4900"/>
<path d="M84.276 30.704C84.276 31.632 84.18 32.424 83.988 33.08C83.796 33.736 83.488 34.24 83.064 34.592C82.648 34.944 82.1 35.12 81.42 35.12C80.452 35.12 79.736 34.732 79.272 33.956C78.816 33.172 78.588 32.088 78.588 30.704C78.588 29.776 78.68 28.984 78.864 28.328C79.056 27.672 79.36 27.172 79.776 26.828C80.192 26.476 80.74 26.3 81.42 26.3C82.38 26.3 83.096 26.688 83.568 27.464C84.04 28.232 84.276 29.312 84.276 30.704ZM79.644 30.704C79.644 31.88 79.776 32.76 80.04 33.344C80.312 33.928 80.772 34.22 81.42 34.22C82.06 34.22 82.516 33.932 82.788 33.356C83.068 32.772 83.208 31.888 83.208 30.704C83.208 29.536 83.068 28.66 82.788 28.076C82.516 27.492 82.06 27.2 81.42 27.2C80.772 27.2 80.312 27.492 80.04 28.076C79.776 28.66 79.644 29.536 79.644 30.704ZM85.5272 31.34C85.5272 30.724 85.5792 30.12 85.6832 29.528C85.7952 28.928 85.9912 28.388 86.2712 27.908C86.5592 27.42 86.9592 27.032 87.4712 26.744C87.9832 26.456 88.6432 26.312 89.4512 26.312C89.6192 26.312 89.8032 26.32 90.0032 26.336C90.2112 26.352 90.3792 26.38 90.5072 26.42V27.32C90.3632 27.272 90.1992 27.236 90.0152 27.212C89.8312 27.188 89.6512 27.176 89.4752 27.176C88.9232 27.176 88.4632 27.268 88.0952 27.452C87.7272 27.636 87.4352 27.888 87.2192 28.208C87.0112 28.528 86.8592 28.896 86.7632 29.312C86.6672 29.728 86.6072 30.172 86.5832 30.644H86.6552C86.8392 30.364 87.0952 30.128 87.4232 29.936C87.7512 29.736 88.1712 29.636 88.6832 29.636C89.4272 29.636 90.0272 29.864 90.4832 30.32C90.9392 30.768 91.1672 31.408 91.1672 32.24C91.1672 33.136 90.9192 33.84 90.4232 34.352C89.9352 34.864 89.2752 35.12 88.4432 35.12C87.8992 35.12 87.4072 34.984 86.9672 34.712C86.5272 34.44 86.1752 34.024 85.9112 33.464C85.6552 32.904 85.5272 32.196 85.5272 31.34ZM88.4312 34.232C88.9352 34.232 89.3432 34.072 89.6552 33.752C89.9672 33.424 90.1232 32.92 90.1232 32.24C90.1232 31.696 89.9832 31.264 89.7032 30.944C89.4312 30.624 89.0192 30.464 88.4672 30.464C88.0912 30.464 87.7632 30.544 87.4832 30.704C87.2032 30.856 86.9832 31.056 86.8232 31.304C86.6712 31.544 86.5952 31.788 86.5952 32.036C86.5952 32.38 86.6632 32.724 86.7992 33.068C86.9352 33.404 87.1392 33.684 87.4112 33.908C87.6832 34.124 88.0232 34.232 88.4312 34.232ZM96.0784 26.432L92.8864 35H91.8544L95.0464 26.432H96.0784ZM100.459 35H99.4272V29.012C99.4272 28.668 99.4312 28.392 99.4392 28.184C99.4472 27.976 99.4592 27.76 99.4752 27.536C99.3472 27.664 99.2272 27.772 99.1152 27.86C99.0112 27.948 98.8832 28.06 98.7312 28.196L97.8192 28.94L97.2672 28.232L99.5832 26.432H100.459V35ZM109.306 35H103.642V34.124L105.886 31.856C106.31 31.424 106.67 31.04 106.966 30.704C107.27 30.368 107.498 30.04 107.65 29.72C107.802 29.4 107.878 29.044 107.878 28.652C107.878 28.18 107.738 27.824 107.458 27.584C107.178 27.336 106.814 27.212 106.366 27.212C105.942 27.212 105.574 27.284 105.262 27.428C104.95 27.572 104.63 27.772 104.302 28.028L103.738 27.32C104.074 27.04 104.458 26.804 104.89 26.612C105.33 26.412 105.822 26.312 106.366 26.312C107.166 26.312 107.798 26.516 108.262 26.924C108.726 27.332 108.958 27.888 108.958 28.592C108.958 29.04 108.866 29.46 108.682 29.852C108.498 30.244 108.242 30.632 107.914 31.016C107.586 31.4 107.202 31.804 106.762 32.228L104.974 33.992V34.04H109.306V35ZM114.278 26.432L111.086 35H110.054L113.246 26.432H114.278ZM120.638 35H114.974V34.124L117.218 31.856C117.642 31.424 118.002 31.04 118.298 30.704C118.602 30.368 118.83 30.04 118.982 29.72C119.134 29.4 119.21 29.044 119.21 28.652C119.21 28.18 119.07 27.824 118.79 27.584C118.51 27.336 118.146 27.212 117.698 27.212C117.274 27.212 116.906 27.284 116.594 27.428C116.282 27.572 115.962 27.772 115.634 28.028L115.07 27.32C115.406 27.04 115.79 26.804 116.222 26.612C116.662 26.412 117.154 26.312 117.698 26.312C118.498 26.312 119.13 26.516 119.594 26.924C120.058 27.332 120.29 27.888 120.29 28.592C120.29 29.04 120.198 29.46 120.014 29.852C119.83 30.244 119.574 30.632 119.246 31.016C118.918 31.4 118.534 31.804 118.094 32.228L116.306 33.992V34.04H120.638V35ZM127.182 28.436C127.182 29.012 127.018 29.472 126.69 29.816C126.37 30.152 125.942 30.376 125.406 30.488V30.536C126.086 30.616 126.594 30.832 126.93 31.184C127.274 31.536 127.446 31.996 127.446 32.564C127.446 33.068 127.33 33.512 127.098 33.896C126.866 34.28 126.506 34.58 126.018 34.796C125.538 35.012 124.918 35.12 124.158 35.12C123.71 35.12 123.294 35.084 122.91 35.012C122.526 34.948 122.158 34.828 121.806 34.652V33.668C122.166 33.852 122.554 33.992 122.97 34.088C123.386 34.184 123.786 34.232 124.17 34.232C124.938 34.232 125.49 34.084 125.826 33.788C126.17 33.484 126.342 33.068 126.342 32.54C126.342 32.004 126.13 31.62 125.706 31.388C125.29 31.148 124.702 31.028 123.942 31.028H123.114V30.128H123.954C124.658 30.128 125.19 29.98 125.55 29.684C125.918 29.388 126.102 28.996 126.102 28.508C126.102 28.092 125.962 27.772 125.682 27.548C125.402 27.316 125.022 27.2 124.542 27.2C124.078 27.2 123.682 27.268 123.354 27.404C123.026 27.54 122.702 27.712 122.382 27.92L121.854 27.2C122.158 26.96 122.534 26.752 122.982 26.576C123.438 26.4 123.954 26.312 124.53 26.312C125.426 26.312 126.09 26.512 126.522 26.912C126.962 27.312 127.182 27.82 127.182 28.436ZM130.353 33.608L130.437 33.74C130.325 34.164 130.173 34.628 129.981 35.132C129.789 35.644 129.597 36.116 129.405 36.548H128.625C128.737 36.092 128.849 35.592 128.961 35.048C129.081 34.504 129.169 34.024 129.225 33.608H130.353ZM140.701 35H135.037V34.124L137.281 31.856C137.705 31.424 138.065 31.04 138.361 30.704C138.665 30.368 138.893 30.04 139.045 29.72C139.197 29.4 139.273 29.044 139.273 28.652C139.273 28.18 139.133 27.824 138.853 27.584C138.573 27.336 138.209 27.212 137.761 27.212C137.337 27.212 136.969 27.284 136.657 27.428C136.345 27.572 136.025 27.772 135.697 28.028L135.133 27.32C135.469 27.04 135.853 26.804 136.285 26.612C136.725 26.412 137.217 26.312 137.761 26.312C138.561 26.312 139.193 26.516 139.657 26.924C140.121 27.332 140.353 27.888 140.353 28.592C140.353 29.04 140.261 29.46 140.077 29.852C139.893 30.244 139.637 30.632 139.309 31.016C138.981 31.4 138.597 31.804 138.157 32.228L136.369 33.992V34.04H140.701V35ZM142.192 29.216C142.192 28.912 142.264 28.7 142.408 28.58C142.552 28.46 142.724 28.4 142.924 28.4C143.124 28.4 143.3 28.46 143.452 28.58C143.604 28.7 143.68 28.912 143.68 29.216C143.68 29.504 143.604 29.712 143.452 29.84C143.3 29.968 143.124 30.032 142.924 30.032C142.724 30.032 142.552 29.968 142.408 29.84C142.264 29.712 142.192 29.504 142.192 29.216ZM142.192 34.352C142.192 34.056 142.264 33.848 142.408 33.728C142.552 33.608 142.724 33.548 142.924 33.548C143.124 33.548 143.3 33.608 143.452 33.728C143.604 33.848 143.68 34.056 143.68 34.352C143.68 34.64 143.604 34.848 143.452 34.976C143.3 35.104 143.124 35.168 142.924 35.168C142.724 35.168 142.552 35.104 142.408 34.976C142.264 34.848 142.192 34.64 142.192 34.352ZM150.815 30.704C150.815 31.632 150.719 32.424 150.527 33.08C150.335 33.736 150.027 34.24 149.603 34.592C149.187 34.944 148.639 35.12 147.959 35.12C146.991 35.12 146.275 34.732 145.811 33.956C145.355 33.172 145.127 32.088 145.127 30.704C145.127 29.776 145.219 28.984 145.403 28.328C145.595 27.672 145.899 27.172 146.315 26.828C146.731 26.476 147.279 26.3 147.959 26.3C148.919 26.3 149.635 26.688 150.107 27.464C150.579 28.232 150.815 29.312 150.815 30.704ZM146.183 30.704C146.183 31.88 146.315 32.76 146.579 33.344C146.851 33.928 147.311 34.22 147.959 34.22C148.599 34.22 149.055 33.932 149.327 33.356C149.607 32.772 149.747 31.888 149.747 30.704C149.747 29.536 149.607 28.66 149.327 28.076C149.055 27.492 148.599 27.2 147.959 27.2C147.311 27.2 146.851 27.492 146.579 28.076C146.315 28.66 146.183 29.536 146.183 30.704ZM157.322 28.436C157.322 29.012 157.158 29.472 156.83 29.816C156.51 30.152 156.082 30.376 155.546 30.488V30.536C156.226 30.616 156.734 30.832 157.07 31.184C157.414 31.536 157.586 31.996 157.586 32.564C157.586 33.068 157.47 33.512 157.238 33.896C157.006 34.28 156.646 34.58 156.158 34.796C155.678 35.012 155.058 35.12 154.298 35.12C153.85 35.12 153.434 35.084 153.05 35.012C152.666 34.948 152.298 34.828 151.946 34.652V33.668C152.306 33.852 152.694 33.992 153.11 34.088C153.526 34.184 153.926 34.232 154.31 34.232C155.078 34.232 155.63 34.084 155.966 33.788C156.31 33.484 156.482 33.068 156.482 32.54C156.482 32.004 156.27 31.62 155.846 31.388C155.43 31.148 154.842 31.028 154.082 31.028H153.254V30.128H154.094C154.798 30.128 155.33 29.98 155.69 29.684C156.058 29.388 156.242 28.996 156.242 28.508C156.242 28.092 156.102 27.772 155.822 27.548C155.542 27.316 155.162 27.2 154.682 27.2C154.218 27.2 153.822 27.268 153.494 27.404C153.166 27.54 152.842 27.712 152.522 27.92L151.994 27.2C152.298 26.96 152.674 26.752 153.122 26.576C153.578 26.4 154.094 26.312 154.67 26.312C155.566 26.312 156.23 26.512 156.662 26.912C157.102 27.312 157.322 27.82 157.322 28.436ZM164.823 26.432C165.943 26.432 166.759 26.652 167.271 27.092C167.783 27.532 168.039 28.152 168.039 28.952C168.039 29.424 167.931 29.868 167.715 30.284C167.507 30.692 167.151 31.024 166.647 31.28C166.151 31.536 165.475 31.664 164.619 31.664H163.635V35H162.555V26.432H164.823ZM164.727 27.356H163.635V30.74H164.499C165.315 30.74 165.923 30.608 166.323 30.344C166.723 30.08 166.923 29.632 166.923 29C166.923 28.448 166.743 28.036 166.383 27.764C166.031 27.492 165.479 27.356 164.727 27.356ZM173.6 35L170.78 27.488H170.732C170.756 27.736 170.776 28.072 170.792 28.496C170.808 28.912 170.816 29.348 170.816 29.804V35H169.82V26.432H171.416L174.056 33.452H174.104L176.792 26.432H178.376V35H177.308V29.732C177.308 29.316 177.316 28.904 177.332 28.496C177.356 28.088 177.376 27.756 177.392 27.5H177.344L174.488 35H173.6Z" fill="#242424"/>
<path d="M91.272 47.004L88.682 57H86.708L85.126 51.26C85.0793 51.0733 85.0187 50.8353 84.944 50.546C84.8787 50.2473 84.8133 49.9627 84.748 49.692C84.692 49.412 84.6593 49.202 84.65 49.062C84.6313 49.202 84.594 49.412 84.538 49.692C84.482 49.9627 84.4213 50.2473 84.356 50.546C84.2907 50.8353 84.23 51.0827 84.174 51.288L82.634 57H80.646L78.07 47.004H79.862L81.234 52.702C81.2993 52.9447 81.36 53.22 81.416 53.528C81.4813 53.836 81.542 54.144 81.598 54.452C81.654 54.7507 81.696 55.012 81.724 55.236C81.752 54.9933 81.794 54.7227 81.85 54.424C81.906 54.116 81.962 53.8173 82.018 53.528C82.0833 53.2293 82.1487 52.9773 82.214 52.772L83.782 47.004H85.518L87.114 52.786C87.1793 53.0007 87.2447 53.2573 87.31 53.556C87.3753 53.8547 87.436 54.1533 87.492 54.452C87.548 54.7507 87.59 55.012 87.618 55.236C87.646 55.012 87.688 54.7507 87.744 54.452C87.8 54.144 87.8607 53.8407 87.926 53.542C87.9913 53.234 88.052 52.954 88.108 52.702L89.48 47.004H91.272ZM95.2283 49.272C96.2083 49.272 96.9503 49.4867 97.4543 49.916C97.9676 50.3453 98.2243 51.008 98.2243 51.904V57H96.9783L96.6283 55.95H96.5723C96.2456 56.3607 95.9003 56.664 95.5363 56.86C95.1723 57.0467 94.6776 57.14 94.0523 57.14C93.371 57.14 92.8063 56.9487 92.3583 56.566C91.9103 56.1833 91.6863 55.5907 91.6863 54.788C91.6863 54.004 91.971 53.416 92.5403 53.024C93.119 52.632 93.9916 52.4127 95.1583 52.366L96.4743 52.324V51.946C96.4743 51.4607 96.3576 51.1153 96.1243 50.91C95.891 50.7047 95.5643 50.602 95.1443 50.602C94.7616 50.602 94.393 50.658 94.0383 50.77C93.693 50.8727 93.3476 51.0033 93.0023 51.162L92.4423 49.93C92.8156 49.734 93.2403 49.5753 93.7163 49.454C94.2016 49.3327 94.7056 49.272 95.2283 49.272ZM96.4743 53.416L95.5503 53.444C94.7756 53.472 94.239 53.6073 93.9403 53.85C93.6416 54.0833 93.4923 54.4007 93.4923 54.802C93.4923 55.166 93.595 55.4273 93.8003 55.586C94.015 55.7353 94.295 55.81 94.6403 55.81C95.1536 55.81 95.5876 55.6653 95.9423 55.376C96.297 55.0773 96.4743 54.6387 96.4743 54.06V53.416ZM104.411 49.272C104.532 49.272 104.667 49.2813 104.817 49.3C104.966 49.3093 105.087 49.3233 105.181 49.342L105.027 50.98C104.933 50.9613 104.817 50.9473 104.677 50.938C104.546 50.9193 104.434 50.91 104.341 50.91C103.967 50.91 103.617 50.9893 103.291 51.148C102.964 51.2973 102.698 51.5307 102.493 51.848C102.297 52.1653 102.199 52.5713 102.199 53.066V57H100.435V49.412H101.793L102.045 50.728H102.129C102.353 50.3267 102.661 49.986 103.053 49.706C103.445 49.4167 103.897 49.272 104.411 49.272ZM110.647 49.272C111.496 49.272 112.159 49.4913 112.635 49.93C113.12 50.3687 113.363 51.078 113.363 52.058V57H111.599V52.408C111.599 51.8387 111.487 51.414 111.263 51.134C111.039 50.8447 110.684 50.7 110.199 50.7C109.49 50.7 109.004 50.924 108.743 51.372C108.482 51.82 108.351 52.4593 108.351 53.29V57H106.587V49.412H107.945L108.197 50.406H108.295C108.538 50.014 108.869 49.7293 109.289 49.552C109.718 49.3653 110.171 49.272 110.647 49.272ZM116.452 46.486C116.713 46.486 116.942 46.556 117.138 46.696C117.334 46.8267 117.432 47.0647 117.432 47.41C117.432 47.7553 117.334 47.998 117.138 48.138C116.942 48.278 116.713 48.348 116.452 48.348C116.181 48.348 115.948 48.278 115.752 48.138C115.565 47.998 115.472 47.7553 115.472 47.41C115.472 47.0647 115.565 46.8267 115.752 46.696C115.948 46.556 116.181 46.486 116.452 46.486ZM117.334 49.412V57H115.57V49.412H117.334ZM123.649 49.272C124.498 49.272 125.161 49.4913 125.637 49.93C126.122 50.3687 126.365 51.078 126.365 52.058V57H124.601V52.408C124.601 51.8387 124.489 51.414 124.265 51.134C124.041 50.8447 123.686 50.7 123.201 50.7C122.492 50.7 122.006 50.924 121.745 51.372C121.484 51.82 121.353 52.4593 121.353 53.29V57H119.589V49.412H120.947L121.199 50.406H121.297C121.54 50.014 121.871 49.7293 122.291 49.552C122.72 49.3653 123.173 49.272 123.649 49.272ZM131.12 49.272C132.1 49.272 132.851 49.6453 133.374 50.392H133.444L133.612 49.412H135.082V57.056C135.082 58.1387 134.778 58.96 134.172 59.52C133.565 60.08 132.65 60.36 131.428 60.36C130.886 60.36 130.387 60.3227 129.93 60.248C129.472 60.1827 129.038 60.066 128.628 59.898V58.442C129.057 58.6287 129.514 58.7733 130 58.876C130.494 58.9787 131.008 59.03 131.54 59.03C132.109 59.03 132.548 58.8667 132.856 58.54C133.164 58.2227 133.318 57.756 133.318 57.14V56.944C133.318 56.804 133.322 56.6407 133.332 56.454C133.341 56.2673 133.355 56.118 133.374 56.006H133.318C133.056 56.398 132.734 56.6873 132.352 56.874C131.978 57.0513 131.554 57.14 131.078 57.14C130.154 57.14 129.43 56.7947 128.908 56.104C128.385 55.4133 128.124 54.452 128.124 53.22C128.124 51.988 128.385 51.022 128.908 50.322C129.44 49.622 130.177 49.272 131.12 49.272ZM131.582 50.714C130.48 50.714 129.93 51.5587 129.93 53.248C129.93 54.9093 130.49 55.74 131.61 55.74C132.226 55.74 132.678 55.572 132.968 55.236C133.266 54.8907 133.416 54.312 133.416 53.5V53.234C133.416 52.338 133.266 51.694 132.968 51.302C132.678 50.91 132.216 50.714 131.582 50.714Z" fill="#242424"/>
<path d="M386.512 38.0125L389.862 34.6625C390.012 34.5125 390.012 34.2625 389.862 34.1125C389.712 33.9625 389.462 33.9625 389.312 34.1125L386.012 37.4625L382.662 34.1125C382.512 33.9625 382.262 33.9625 382.112 34.1125C381.963 34.2625 381.963 34.5125 382.112 34.6625L385.462 38.0125L382.112 41.3625C381.963 41.5125 381.963 41.7625 382.112 41.9125C382.162 41.9625 382.262 42.0125 382.362 42.0125C382.462 42.0125 382.562 41.9625 382.612 41.9125L386.012 38.5125L389.362 41.8625C389.412 41.9125 389.512 41.9625 389.612 41.9625C389.712 41.9625 389.812 41.9125 389.862 41.8625C390.012 41.7125 390.012 41.4625 389.862 41.3125L386.512 38.0125Z" fill="#323232"/>
</svg>
