<svg width="428" height="78" viewBox="0 0 428 78" fill="none" xmlns="http://www.w3.org/2000/svg">
<rect width="428" height="78" fill="white"/>
<mask id="path-1-inside-1_10221_32103" fill="white">
<path d="M14 4C14 1.79086 15.7909 0 18 0H410C412.209 0 414 1.79086 414 4V74C414 76.2091 412.209 78 410 78H18C15.7909 78 14 76.2091 14 74V4Z"/>
</mask>
<path d="M14 4C14 1.79086 15.7909 0 18 0H410C412.209 0 414 1.79086 414 4V74C414 76.2091 412.209 78 410 78H18C15.7909 78 14 76.2091 14 74V4Z" fill="#F3F9FD"/>
<path d="M13 -1C13 -3.76142 15.2386 -6 18 -6H410C412.761 -6 415 -3.76142 415 -1L413 6C413 6 411.657 6 410 6H18C16.3431 6 15 6 15 6L13 -1ZM415 74C415 76.7614 412.761 79 410 79H18C15.2386 79 13 76.7614 13 74H15C15 75.6569 16.3431 77 18 77H410C411.657 77 413 75.6569 413 74H415ZM18 79C15.2386 79 13 76.7614 13 74V-1C13 -3.76142 15.2386 -6 18 -6V6C16.3431 6 15 6 15 6V74C15 75.6569 16.3431 77 18 77V79ZM410 -6C412.761 -6 415 -3.76142 415 -1V74C415 76.7614 412.761 79 410 79V77C411.657 77 413 75.6569 413 74V6C413 6 411.657 6 410 6V-6Z" fill="#1B77AF" mask="url(#path-1-inside-1_10221_32103)"/>
<path d="M46 24C43.2311 24 40.5243 24.8211 38.222 26.3594C35.9197 27.8978 34.1253 30.0843 33.0657 32.6424C32.0061 35.2006 31.7288 38.0155 32.269 40.7313C32.8092 43.447 34.1426 45.9416 36.1005 47.8995C38.0584 49.8574 40.553 51.1908 43.2687 51.731C45.9845 52.2712 48.7994 51.9939 51.3576 50.9343C53.9157 49.8747 56.1022 48.0803 57.6406 45.778C59.1789 43.4757 60 40.7689 60 38C60 34.287 58.525 30.726 55.8995 28.1005C53.274 25.475 49.713 24 46 24ZM46 50.5C43.5277 50.5 41.111 49.7669 39.0554 48.3934C36.9998 47.0199 35.3976 45.0676 34.4515 42.7835C33.5054 40.4995 33.2579 37.9861 33.7402 35.5614C34.2225 33.1366 35.413 30.9093 37.1612 29.1612C38.9093 27.413 41.1366 26.2225 43.5614 25.7402C45.9861 25.2579 48.4995 25.5054 50.7835 26.4515C53.0676 27.3976 55.0199 28.9998 56.3934 31.0554C57.7669 33.111 58.5 35.5277 58.5 38C58.4947 41.3136 57.1761 44.4899 54.833 46.833C52.4899 49.1761 49.3136 50.4947 46 50.5Z" fill="#155E8B"/>
<path d="M48.5 44H46.75V36C46.75 35.8011 46.671 35.6103 46.5303 35.4697C46.3897 35.329 46.1989 35.25 46 35.25H44.69C44.4911 35.25 44.3003 35.329 44.1597 35.4697C44.019 35.6103 43.94 35.8011 43.94 36C43.94 36.1989 44.019 36.3897 44.1597 36.5303C44.3003 36.671 44.4911 36.75 44.69 36.75H45.25V44H43.5C43.3011 44 43.1103 44.079 42.9697 44.2197C42.829 44.3603 42.75 44.5511 42.75 44.75C42.75 44.9489 42.829 45.1397 42.9697 45.2803C43.1103 45.421 43.3011 45.5 43.5 45.5H48.5C48.6989 45.5 48.8897 45.421 49.0303 45.2803C49.171 45.1397 49.25 44.9489 49.25 44.75C49.25 44.5511 49.171 44.3603 49.0303 44.2197C48.8897 44.079 48.6989 44 48.5 44Z" fill="#155E8B"/>
<path d="M46 32.92C46.2591 32.92 46.5124 32.8432 46.7278 32.6992C46.9432 32.5553 47.1111 32.3507 47.2103 32.1113C47.3094 31.8719 47.3354 31.6085 47.2848 31.3544C47.2343 31.1003 47.1095 30.8669 46.9263 30.6837C46.7431 30.5005 46.5097 30.3757 46.2556 30.3252C46.0015 30.2746 45.7381 30.3006 45.4987 30.3997C45.2593 30.4989 45.0547 30.6668 44.9108 30.8822C44.7668 31.0976 44.69 31.3509 44.69 31.61C44.69 31.9574 44.828 32.2906 45.0737 32.5363C45.3194 32.782 45.6526 32.92 46 32.92Z" fill="#155E8B"/>
<path d="M84.276 30.704C84.276 31.632 84.18 32.424 83.988 33.08C83.796 33.736 83.488 34.24 83.064 34.592C82.648 34.944 82.1 35.12 81.42 35.12C80.452 35.12 79.736 34.732 79.272 33.956C78.816 33.172 78.588 32.088 78.588 30.704C78.588 29.776 78.68 28.984 78.864 28.328C79.056 27.672 79.36 27.172 79.776 26.828C80.192 26.476 80.74 26.3 81.42 26.3C82.38 26.3 83.096 26.688 83.568 27.464C84.04 28.232 84.276 29.312 84.276 30.704ZM79.644 30.704C79.644 31.88 79.776 32.76 80.04 33.344C80.312 33.928 80.772 34.22 81.42 34.22C82.06 34.22 82.516 33.932 82.788 33.356C83.068 32.772 83.208 31.888 83.208 30.704C83.208 29.536 83.068 28.66 82.788 28.076C82.516 27.492 82.06 27.2 81.42 27.2C80.772 27.2 80.312 27.492 80.04 28.076C79.776 28.66 79.644 29.536 79.644 30.704ZM85.5272 31.34C85.5272 30.724 85.5792 30.12 85.6832 29.528C85.7952 28.928 85.9912 28.388 86.2712 27.908C86.5592 27.42 86.9592 27.032 87.4712 26.744C87.9832 26.456 88.6432 26.312 89.4512 26.312C89.6192 26.312 89.8032 26.32 90.0032 26.336C90.2112 26.352 90.3792 26.38 90.5072 26.42V27.32C90.3632 27.272 90.1992 27.236 90.0152 27.212C89.8312 27.188 89.6512 27.176 89.4752 27.176C88.9232 27.176 88.4632 27.268 88.0952 27.452C87.7272 27.636 87.4352 27.888 87.2192 28.208C87.0112 28.528 86.8592 28.896 86.7632 29.312C86.6672 29.728 86.6072 30.172 86.5832 30.644H86.6552C86.8392 30.364 87.0952 30.128 87.4232 29.936C87.7512 29.736 88.1712 29.636 88.6832 29.636C89.4272 29.636 90.0272 29.864 90.4832 30.32C90.9392 30.768 91.1672 31.408 91.1672 32.24C91.1672 33.136 90.9192 33.84 90.4232 34.352C89.9352 34.864 89.2752 35.12 88.4432 35.12C87.8992 35.12 87.4072 34.984 86.9672 34.712C86.5272 34.44 86.1752 34.024 85.9112 33.464C85.6552 32.904 85.5272 32.196 85.5272 31.34ZM88.4312 34.232C88.9352 34.232 89.3432 34.072 89.6552 33.752C89.9672 33.424 90.1232 32.92 90.1232 32.24C90.1232 31.696 89.9832 31.264 89.7032 30.944C89.4312 30.624 89.0192 30.464 88.4672 30.464C88.0912 30.464 87.7632 30.544 87.4832 30.704C87.2032 30.856 86.9832 31.056 86.8232 31.304C86.6712 31.544 86.5952 31.788 86.5952 32.036C86.5952 32.38 86.6632 32.724 86.7992 33.068C86.9352 33.404 87.1392 33.684 87.4112 33.908C87.6832 34.124 88.0232 34.232 88.4312 34.232ZM96.0784 26.432L92.8864 35H91.8544L95.0464 26.432H96.0784ZM100.459 35H99.4272V29.012C99.4272 28.668 99.4312 28.392 99.4392 28.184C99.4472 27.976 99.4592 27.76 99.4752 27.536C99.3472 27.664 99.2272 27.772 99.1152 27.86C99.0112 27.948 98.8832 28.06 98.7312 28.196L97.8192 28.94L97.2672 28.232L99.5832 26.432H100.459V35ZM109.306 35H103.642V34.124L105.886 31.856C106.31 31.424 106.67 31.04 106.966 30.704C107.27 30.368 107.498 30.04 107.65 29.72C107.802 29.4 107.878 29.044 107.878 28.652C107.878 28.18 107.738 27.824 107.458 27.584C107.178 27.336 106.814 27.212 106.366 27.212C105.942 27.212 105.574 27.284 105.262 27.428C104.95 27.572 104.63 27.772 104.302 28.028L103.738 27.32C104.074 27.04 104.458 26.804 104.89 26.612C105.33 26.412 105.822 26.312 106.366 26.312C107.166 26.312 107.798 26.516 108.262 26.924C108.726 27.332 108.958 27.888 108.958 28.592C108.958 29.04 108.866 29.46 108.682 29.852C108.498 30.244 108.242 30.632 107.914 31.016C107.586 31.4 107.202 31.804 106.762 32.228L104.974 33.992V34.04H109.306V35ZM114.278 26.432L111.086 35H110.054L113.246 26.432H114.278ZM120.638 35H114.974V34.124L117.218 31.856C117.642 31.424 118.002 31.04 118.298 30.704C118.602 30.368 118.83 30.04 118.982 29.72C119.134 29.4 119.21 29.044 119.21 28.652C119.21 28.18 119.07 27.824 118.79 27.584C118.51 27.336 118.146 27.212 117.698 27.212C117.274 27.212 116.906 27.284 116.594 27.428C116.282 27.572 115.962 27.772 115.634 28.028L115.07 27.32C115.406 27.04 115.79 26.804 116.222 26.612C116.662 26.412 117.154 26.312 117.698 26.312C118.498 26.312 119.13 26.516 119.594 26.924C120.058 27.332 120.29 27.888 120.29 28.592C120.29 29.04 120.198 29.46 120.014 29.852C119.83 30.244 119.574 30.632 119.246 31.016C118.918 31.4 118.534 31.804 118.094 32.228L116.306 33.992V34.04H120.638V35ZM127.182 28.436C127.182 29.012 127.018 29.472 126.69 29.816C126.37 30.152 125.942 30.376 125.406 30.488V30.536C126.086 30.616 126.594 30.832 126.93 31.184C127.274 31.536 127.446 31.996 127.446 32.564C127.446 33.068 127.33 33.512 127.098 33.896C126.866 34.28 126.506 34.58 126.018 34.796C125.538 35.012 124.918 35.12 124.158 35.12C123.71 35.12 123.294 35.084 122.91 35.012C122.526 34.948 122.158 34.828 121.806 34.652V33.668C122.166 33.852 122.554 33.992 122.97 34.088C123.386 34.184 123.786 34.232 124.17 34.232C124.938 34.232 125.49 34.084 125.826 33.788C126.17 33.484 126.342 33.068 126.342 32.54C126.342 32.004 126.13 31.62 125.706 31.388C125.29 31.148 124.702 31.028 123.942 31.028H123.114V30.128H123.954C124.658 30.128 125.19 29.98 125.55 29.684C125.918 29.388 126.102 28.996 126.102 28.508C126.102 28.092 125.962 27.772 125.682 27.548C125.402 27.316 125.022 27.2 124.542 27.2C124.078 27.2 123.682 27.268 123.354 27.404C123.026 27.54 122.702 27.712 122.382 27.92L121.854 27.2C122.158 26.96 122.534 26.752 122.982 26.576C123.438 26.4 123.954 26.312 124.53 26.312C125.426 26.312 126.09 26.512 126.522 26.912C126.962 27.312 127.182 27.82 127.182 28.436ZM130.353 33.608L130.437 33.74C130.325 34.164 130.173 34.628 129.981 35.132C129.789 35.644 129.597 36.116 129.405 36.548H128.625C128.737 36.092 128.849 35.592 128.961 35.048C129.081 34.504 129.169 34.024 129.225 33.608H130.353ZM140.701 35H135.037V34.124L137.281 31.856C137.705 31.424 138.065 31.04 138.361 30.704C138.665 30.368 138.893 30.04 139.045 29.72C139.197 29.4 139.273 29.044 139.273 28.652C139.273 28.18 139.133 27.824 138.853 27.584C138.573 27.336 138.209 27.212 137.761 27.212C137.337 27.212 136.969 27.284 136.657 27.428C136.345 27.572 136.025 27.772 135.697 28.028L135.133 27.32C135.469 27.04 135.853 26.804 136.285 26.612C136.725 26.412 137.217 26.312 137.761 26.312C138.561 26.312 139.193 26.516 139.657 26.924C140.121 27.332 140.353 27.888 140.353 28.592C140.353 29.04 140.261 29.46 140.077 29.852C139.893 30.244 139.637 30.632 139.309 31.016C138.981 31.4 138.597 31.804 138.157 32.228L136.369 33.992V34.04H140.701V35ZM142.192 29.216C142.192 28.912 142.264 28.7 142.408 28.58C142.552 28.46 142.724 28.4 142.924 28.4C143.124 28.4 143.3 28.46 143.452 28.58C143.604 28.7 143.68 28.912 143.68 29.216C143.68 29.504 143.604 29.712 143.452 29.84C143.3 29.968 143.124 30.032 142.924 30.032C142.724 30.032 142.552 29.968 142.408 29.84C142.264 29.712 142.192 29.504 142.192 29.216ZM142.192 34.352C142.192 34.056 142.264 33.848 142.408 33.728C142.552 33.608 142.724 33.548 142.924 33.548C143.124 33.548 143.3 33.608 143.452 33.728C143.604 33.848 143.68 34.056 143.68 34.352C143.68 34.64 143.604 34.848 143.452 34.976C143.3 35.104 143.124 35.168 142.924 35.168C142.724 35.168 142.552 35.104 142.408 34.976C142.264 34.848 142.192 34.64 142.192 34.352ZM150.815 30.704C150.815 31.632 150.719 32.424 150.527 33.08C150.335 33.736 150.027 34.24 149.603 34.592C149.187 34.944 148.639 35.12 147.959 35.12C146.991 35.12 146.275 34.732 145.811 33.956C145.355 33.172 145.127 32.088 145.127 30.704C145.127 29.776 145.219 28.984 145.403 28.328C145.595 27.672 145.899 27.172 146.315 26.828C146.731 26.476 147.279 26.3 147.959 26.3C148.919 26.3 149.635 26.688 150.107 27.464C150.579 28.232 150.815 29.312 150.815 30.704ZM146.183 30.704C146.183 31.88 146.315 32.76 146.579 33.344C146.851 33.928 147.311 34.22 147.959 34.22C148.599 34.22 149.055 33.932 149.327 33.356C149.607 32.772 149.747 31.888 149.747 30.704C149.747 29.536 149.607 28.66 149.327 28.076C149.055 27.492 148.599 27.2 147.959 27.2C147.311 27.2 146.851 27.492 146.579 28.076C146.315 28.66 146.183 29.536 146.183 30.704ZM157.322 28.436C157.322 29.012 157.158 29.472 156.83 29.816C156.51 30.152 156.082 30.376 155.546 30.488V30.536C156.226 30.616 156.734 30.832 157.07 31.184C157.414 31.536 157.586 31.996 157.586 32.564C157.586 33.068 157.47 33.512 157.238 33.896C157.006 34.28 156.646 34.58 156.158 34.796C155.678 35.012 155.058 35.12 154.298 35.12C153.85 35.12 153.434 35.084 153.05 35.012C152.666 34.948 152.298 34.828 151.946 34.652V33.668C152.306 33.852 152.694 33.992 153.11 34.088C153.526 34.184 153.926 34.232 154.31 34.232C155.078 34.232 155.63 34.084 155.966 33.788C156.31 33.484 156.482 33.068 156.482 32.54C156.482 32.004 156.27 31.62 155.846 31.388C155.43 31.148 154.842 31.028 154.082 31.028H153.254V30.128H154.094C154.798 30.128 155.33 29.98 155.69 29.684C156.058 29.388 156.242 28.996 156.242 28.508C156.242 28.092 156.102 27.772 155.822 27.548C155.542 27.316 155.162 27.2 154.682 27.2C154.218 27.2 153.822 27.268 153.494 27.404C153.166 27.54 152.842 27.712 152.522 27.92L151.994 27.2C152.298 26.96 152.674 26.752 153.122 26.576C153.578 26.4 154.094 26.312 154.67 26.312C155.566 26.312 156.23 26.512 156.662 26.912C157.102 27.312 157.322 27.82 157.322 28.436ZM164.823 26.432C165.943 26.432 166.759 26.652 167.271 27.092C167.783 27.532 168.039 28.152 168.039 28.952C168.039 29.424 167.931 29.868 167.715 30.284C167.507 30.692 167.151 31.024 166.647 31.28C166.151 31.536 165.475 31.664 164.619 31.664H163.635V35H162.555V26.432H164.823ZM164.727 27.356H163.635V30.74H164.499C165.315 30.74 165.923 30.608 166.323 30.344C166.723 30.08 166.923 29.632 166.923 29C166.923 28.448 166.743 28.036 166.383 27.764C166.031 27.492 165.479 27.356 164.727 27.356ZM173.6 35L170.78 27.488H170.732C170.756 27.736 170.776 28.072 170.792 28.496C170.808 28.912 170.816 29.348 170.816 29.804V35H169.82V26.432H171.416L174.056 33.452H174.104L176.792 26.432H178.376V35H177.308V29.732C177.308 29.316 177.316 28.904 177.332 28.496C177.356 28.088 177.376 27.756 177.392 27.5H177.344L174.488 35H173.6Z" fill="#242424"/>
<path d="M82.69 57H78.49V55.978L79.694 55.53V48.488L78.49 48.026V47.004H82.69V48.026L81.486 48.488V55.53L82.69 55.978V57ZM88.3756 49.272C89.225 49.272 89.8876 49.4913 90.3636 49.93C90.849 50.3687 91.0916 51.078 91.0916 52.058V57H89.3276V52.408C89.3276 51.8387 89.2156 51.414 88.9916 51.134C88.7676 50.8447 88.413 50.7 87.9276 50.7C87.2183 50.7 86.733 50.924 86.4716 51.372C86.2103 51.82 86.0796 52.4593 86.0796 53.29V57H84.3156V49.412H85.6736L85.9256 50.406H86.0236C86.2663 50.014 86.5976 49.7293 87.0176 49.552C87.447 49.3653 87.8996 49.272 88.3756 49.272ZM97.2321 50.742H95.3981V57H93.6341V50.742H92.4161V49.902L93.6341 49.398V48.88C93.6341 47.9093 93.8627 47.2373 94.3201 46.864C94.7867 46.4813 95.4214 46.29 96.2241 46.29C96.5881 46.29 96.9194 46.3227 97.2181 46.388C97.5261 46.444 97.7781 46.5093 97.9741 46.584L97.5261 47.9C97.3674 47.8533 97.1901 47.8113 96.9941 47.774C96.8074 47.7273 96.6021 47.704 96.3781 47.704C96.0327 47.704 95.7807 47.8113 95.6221 48.026C95.4727 48.2313 95.3981 48.53 95.3981 48.922V49.412H97.2321V50.742ZM105.269 53.192C105.269 54.452 104.943 55.4273 104.289 56.118C103.636 56.7993 102.749 57.14 101.629 57.14C100.939 57.14 100.323 56.986 99.7814 56.678C99.24 56.37 98.8154 55.922 98.5074 55.334C98.1994 54.746 98.0454 54.032 98.0454 53.192C98.0454 51.932 98.3674 50.966 99.0114 50.294C99.6647 49.6127 100.551 49.272 101.671 49.272C102.371 49.272 102.992 49.426 103.533 49.734C104.075 50.0327 104.499 50.476 104.807 51.064C105.115 51.6427 105.269 52.352 105.269 53.192ZM99.8514 53.192C99.8514 53.9947 99.9914 54.6153 100.271 55.054C100.561 55.4927 101.023 55.712 101.657 55.712C102.283 55.712 102.74 55.4927 103.029 55.054C103.319 54.6153 103.463 53.9947 103.463 53.192C103.463 52.3893 103.319 51.7733 103.029 51.344C102.74 50.9147 102.278 50.7 101.643 50.7C101.009 50.7 100.551 50.9147 100.271 51.344C99.9914 51.7733 99.8514 52.3893 99.8514 53.192ZM111.069 49.272C111.19 49.272 111.326 49.2813 111.475 49.3C111.624 49.3093 111.746 49.3233 111.839 49.342L111.685 50.98C111.592 50.9613 111.475 50.9473 111.335 50.938C111.204 50.9193 111.092 50.91 110.999 50.91C110.626 50.91 110.276 50.9893 109.949 51.148C109.622 51.2973 109.356 51.5307 109.151 51.848C108.955 52.1653 108.857 52.5713 108.857 53.066V57H107.093V49.412H108.451L108.703 50.728H108.787C109.011 50.3267 109.319 49.986 109.711 49.706C110.103 49.4167 110.556 49.272 111.069 49.272ZM121.939 49.272C122.798 49.272 123.442 49.4913 123.871 49.93C124.31 50.3687 124.529 51.078 124.529 52.058V57H122.765V52.394C122.765 51.2647 122.336 50.7 121.477 50.7C120.861 50.7 120.423 50.9007 120.161 51.302C119.9 51.7033 119.769 52.2867 119.769 53.052V57H118.005V52.394C118.005 51.2647 117.571 50.7 116.703 50.7C116.059 50.7 115.616 50.924 115.373 51.372C115.131 51.82 115.009 52.4593 115.009 53.29V57H113.245V49.412H114.603L114.855 50.406H114.953C115.187 50.014 115.504 49.7293 115.905 49.552C116.307 49.3653 116.727 49.272 117.165 49.272C117.735 49.272 118.211 49.3653 118.593 49.552C118.985 49.7387 119.284 50.0373 119.489 50.448H119.629C119.863 50.0373 120.189 49.7387 120.609 49.552C121.029 49.3653 121.473 49.272 121.939 49.272ZM129.763 49.272C130.743 49.272 131.485 49.4867 131.989 49.916C132.503 50.3453 132.759 51.008 132.759 51.904V57H131.513L131.163 55.95H131.107C130.781 56.3607 130.435 56.664 130.071 56.86C129.707 57.0467 129.213 57.14 128.587 57.14C127.906 57.14 127.341 56.9487 126.893 56.566C126.445 56.1833 126.221 55.5907 126.221 54.788C126.221 54.004 126.506 53.416 127.075 53.024C127.654 52.632 128.527 52.4127 129.693 52.366L131.009 52.324V51.946C131.009 51.4607 130.893 51.1153 130.659 50.91C130.426 50.7047 130.099 50.602 129.679 50.602C129.297 50.602 128.928 50.658 128.573 50.77C128.228 50.8727 127.883 51.0033 127.537 51.162L126.977 49.93C127.351 49.734 127.775 49.5753 128.251 49.454C128.737 49.3327 129.241 49.272 129.763 49.272ZM131.009 53.416L130.085 53.444C129.311 53.472 128.774 53.6073 128.475 53.85C128.177 54.0833 128.027 54.4007 128.027 54.802C128.027 55.166 128.13 55.4273 128.335 55.586C128.55 55.7353 128.83 55.81 129.175 55.81C129.689 55.81 130.123 55.6653 130.477 55.376C130.832 55.0773 131.009 54.6387 131.009 54.06V53.416ZM137.91 55.726C138.125 55.726 138.335 55.7073 138.54 55.67C138.755 55.6233 138.951 55.572 139.128 55.516V56.832C138.941 56.9253 138.699 57 138.4 57.056C138.101 57.112 137.789 57.14 137.462 57.14C137.023 57.14 136.627 57.07 136.272 56.93C135.927 56.79 135.651 56.5427 135.446 56.188C135.241 55.8333 135.138 55.334 135.138 54.69V50.742H134.116V49.972L135.236 49.356L135.796 47.746H136.902V49.412H139.058V50.742H136.902V54.676C136.902 55.0307 136.995 55.2967 137.182 55.474C137.378 55.642 137.621 55.726 137.91 55.726ZM141.539 46.486C141.801 46.486 142.029 46.556 142.225 46.696C142.421 46.8267 142.519 47.0647 142.519 47.41C142.519 47.7553 142.421 47.998 142.225 48.138C142.029 48.278 141.801 48.348 141.539 48.348C141.269 48.348 141.035 48.278 140.839 48.138C140.653 47.998 140.559 47.7553 140.559 47.41C140.559 47.0647 140.653 46.8267 140.839 46.696C141.035 46.556 141.269 46.486 141.539 46.486ZM142.421 49.412V57H140.657V49.412H142.421ZM151.453 53.192C151.453 54.452 151.126 55.4273 150.473 56.118C149.82 56.7993 148.933 57.14 147.813 57.14C147.122 57.14 146.506 56.986 145.965 56.678C145.424 56.37 144.999 55.922 144.691 55.334C144.383 54.746 144.229 54.032 144.229 53.192C144.229 51.932 144.551 50.966 145.195 50.294C145.848 49.6127 146.735 49.272 147.855 49.272C148.555 49.272 149.176 49.426 149.717 49.734C150.258 50.0327 150.683 50.476 150.991 51.064C151.299 51.6427 151.453 52.352 151.453 53.192ZM146.035 53.192C146.035 53.9947 146.175 54.6153 146.455 55.054C146.744 55.4927 147.206 55.712 147.841 55.712C148.466 55.712 148.924 55.4927 149.213 55.054C149.502 54.6153 149.647 53.9947 149.647 53.192C149.647 52.3893 149.502 51.7733 149.213 51.344C148.924 50.9147 148.462 50.7 147.827 50.7C147.192 50.7 146.735 50.9147 146.455 51.344C146.175 51.7733 146.035 52.3893 146.035 53.192ZM157.337 49.272C158.186 49.272 158.849 49.4913 159.325 49.93C159.81 50.3687 160.053 51.078 160.053 52.058V57H158.289V52.408C158.289 51.8387 158.177 51.414 157.953 51.134C157.729 50.8447 157.374 50.7 156.889 50.7C156.179 50.7 155.694 50.924 155.433 51.372C155.171 51.82 155.041 52.4593 155.041 53.29V57H153.277V49.412H154.635L154.887 50.406H154.985C155.227 50.014 155.559 49.7293 155.979 49.552C156.408 49.3653 156.861 49.272 157.337 49.272Z" fill="#242424"/>
<path d="M386.512 38.0125L389.862 34.6625C390.012 34.5125 390.012 34.2625 389.862 34.1125C389.712 33.9625 389.462 33.9625 389.312 34.1125L386.012 37.4625L382.662 34.1125C382.512 33.9625 382.262 33.9625 382.112 34.1125C381.963 34.2625 381.963 34.5125 382.112 34.6625L385.462 38.0125L382.112 41.3625C381.963 41.5125 381.963 41.7625 382.112 41.9125C382.162 41.9625 382.262 42.0125 382.362 42.0125C382.462 42.0125 382.562 41.9625 382.612 41.9125L386.012 38.5125L389.362 41.8625C389.412 41.9125 389.512 41.9625 389.612 41.9625C389.712 41.9625 389.812 41.9125 389.862 41.8625C390.012 41.7125 390.012 41.4625 389.862 41.3125L386.512 38.0125Z" fill="#323232"/>
</svg>
