<svg width="904" height="161" viewBox="0 0 904 161" fill="none" xmlns="http://www.w3.org/2000/svg">
<rect width="904" height="161" fill="white"/>
<rect width="150" height="35" transform="translate(377 66)" fill="white"/>
<path d="M421.31 82.73C420.61 82.7313 419.94 83.0099 419.445 83.5047C418.95 83.9995 418.671 84.6702 418.67 85.37V86.3C418.67 86.3995 418.71 86.4948 418.78 86.5652C418.85 86.6355 418.946 86.675 419.045 86.675H423.575C423.624 86.6757 423.673 86.6664 423.719 86.6478C423.765 86.6292 423.807 86.6016 423.842 86.5667C423.877 86.5317 423.904 86.4901 423.923 86.4443C423.941 86.3985 423.951 86.3494 423.95 86.3V85.37C423.95 84.6698 423.672 83.9983 423.177 83.5032C422.682 83.0081 422.01 82.73 421.31 82.73ZM423.2 85.925H419.42V85.37C419.42 84.8687 419.619 84.388 419.974 84.0336C420.328 83.6791 420.809 83.48 421.31 83.48C421.811 83.48 422.292 83.6791 422.646 84.0336C423.001 84.388 423.2 84.8687 423.2 85.37V85.925Z" fill="#1B77AF"/>
<path d="M425.125 76H414.905C414.806 76 414.71 76.0395 414.64 76.1098C414.57 76.1802 414.53 76.2755 414.53 76.375V78.47H413.375C413.276 78.47 413.18 78.5095 413.11 78.5798C413.04 78.6502 413 78.7455 413 78.845C413 78.9445 413.04 79.0398 413.11 79.1102C413.18 79.1805 413.276 79.22 413.375 79.22H414.53V81.22H413.375C413.276 81.22 413.18 81.2595 413.11 81.3298C413.04 81.4002 413 81.4955 413 81.595C413 81.6945 413.04 81.7898 413.11 81.8602C413.18 81.9305 413.276 81.97 413.375 81.97H414.53V83.97H413.375C413.276 83.97 413.18 84.0095 413.11 84.0798C413.04 84.1502 413 84.2455 413 84.345C413 84.4445 413.04 84.5398 413.11 84.6102C413.18 84.6805 413.276 84.72 413.375 84.72H414.53V86.72H413.375C413.276 86.72 413.18 86.7595 413.11 86.8298C413.04 86.9002 413 86.9955 413 87.095C413 87.1945 413.04 87.2898 413.11 87.3602C413.18 87.4305 413.276 87.47 413.375 87.47H414.53V89.565C414.53 89.6645 414.57 89.7598 414.64 89.8302C414.71 89.9005 414.806 89.94 414.905 89.94H425.125C425.612 89.9402 426.08 89.751 426.43 89.4122C426.78 89.0734 426.984 88.6118 427 88.125V77.875C427 77.3777 426.802 76.9008 426.451 76.5492C426.099 76.1975 425.622 76 425.125 76ZM426.25 88.125C426.25 88.4234 426.131 88.7095 425.92 88.9205C425.71 89.1315 425.423 89.25 425.125 89.25H415.28V87.53H416.405C416.504 87.53 416.6 87.4905 416.67 87.4202C416.74 87.3498 416.78 87.2545 416.78 87.155C416.78 87.0555 416.74 86.9602 416.67 86.8898C416.6 86.8195 416.504 86.78 416.405 86.78H415.28V84.78H416.405C416.504 84.78 416.6 84.7405 416.67 84.6702C416.74 84.5998 416.78 84.5045 416.78 84.405C416.78 84.3055 416.74 84.2102 416.67 84.1398C416.6 84.0695 416.504 84.03 416.405 84.03H415.28V82H416.405C416.504 82 416.6 81.9605 416.67 81.8902C416.74 81.8198 416.78 81.7245 416.78 81.625C416.78 81.5255 416.74 81.4302 416.67 81.3598C416.6 81.2895 416.504 81.25 416.405 81.25H415.28V79.25H416.405C416.504 79.25 416.6 79.2105 416.67 79.1402C416.74 79.0698 416.78 78.9745 416.78 78.875C416.78 78.7755 416.74 78.6802 416.67 78.6098C416.6 78.5395 416.504 78.5 416.405 78.5H415.28V76.75H425.125C425.423 76.75 425.71 76.8685 425.92 77.0795C426.131 77.2905 426.25 77.5766 426.25 77.875V88.125Z" fill="#1B77AF"/>
<path d="M421.31 82.55C421.63 82.551 421.942 82.4571 422.209 82.2803C422.475 82.1034 422.683 81.8515 422.806 81.5565C422.929 81.2615 422.961 80.9366 422.9 80.623C422.838 80.3094 422.684 80.0212 422.459 79.7948C422.233 79.5684 421.945 79.4141 421.632 79.3514C421.318 79.2887 420.994 79.3204 420.698 79.4425C420.403 79.5645 420.15 79.7715 419.973 80.0372C419.795 80.3029 419.7 80.6154 419.7 80.935C419.7 81.3625 419.869 81.7725 420.171 82.0752C420.473 82.3779 420.883 82.5487 421.31 82.55ZM421.31 80.05C421.48 80.0491 421.647 80.0985 421.79 80.1921C421.932 80.2857 422.044 80.4193 422.111 80.5761C422.177 80.7329 422.196 80.9059 422.165 81.0734C422.134 81.241 422.054 81.3956 421.935 81.5178C421.816 81.64 421.664 81.7245 421.498 81.7605C421.331 81.7965 421.157 81.7825 420.999 81.7202C420.84 81.6579 420.703 81.5502 420.606 81.4105C420.508 81.2708 420.454 81.1054 420.45 80.935C420.45 80.7065 420.54 80.4872 420.702 80.3251C420.863 80.163 421.081 80.0713 421.31 80.07V80.05Z" fill="#1B77AF"/>
<path d="M436.89 88H435.098V79.516H432.228V78.004H439.76V79.516H436.89V88ZM443.025 80.272C444.005 80.272 444.747 80.4867 445.251 80.916C445.765 81.3453 446.021 82.008 446.021 82.904V88H444.775L444.425 86.95H444.369C444.043 87.3607 443.697 87.664 443.333 87.86C442.969 88.0467 442.475 88.14 441.849 88.14C441.168 88.14 440.603 87.9487 440.155 87.566C439.707 87.1833 439.483 86.5907 439.483 85.788C439.483 85.004 439.768 84.416 440.337 84.024C440.916 83.632 441.789 83.4127 442.955 83.366L444.271 83.324V82.946C444.271 82.4607 444.155 82.1153 443.921 81.91C443.688 81.7047 443.361 81.602 442.941 81.602C442.559 81.602 442.19 81.658 441.835 81.77C441.49 81.8727 441.145 82.0033 440.799 82.162L440.239 80.93C440.613 80.734 441.037 80.5753 441.513 80.454C441.999 80.3327 442.503 80.272 443.025 80.272ZM444.271 84.416L443.347 84.444C442.573 84.472 442.036 84.6073 441.737 84.85C441.439 85.0833 441.289 85.4007 441.289 85.802C441.289 86.166 441.392 86.4273 441.597 86.586C441.812 86.7353 442.092 86.81 442.437 86.81C442.951 86.81 443.385 86.6653 443.739 86.376C444.094 86.0773 444.271 85.6387 444.271 85.06V84.416ZM449.996 77.36V79.88C449.996 80.1787 449.986 80.468 449.968 80.748C449.949 81.028 449.93 81.2473 449.912 81.406H449.996C450.201 81.0887 450.481 80.8227 450.836 80.608C451.19 80.384 451.652 80.272 452.222 80.272C453.099 80.272 453.808 80.6033 454.35 81.266C454.9 81.9287 455.176 82.904 455.176 84.192C455.176 85.4987 454.9 86.4833 454.35 87.146C453.799 87.8087 453.076 88.14 452.18 88.14C451.61 88.14 451.153 88.0373 450.808 87.832C450.472 87.6267 450.201 87.3887 449.996 87.118H449.87L449.548 88H448.232V77.36H449.996ZM451.718 81.7C451.083 81.7 450.64 81.8913 450.388 82.274C450.136 82.6567 450.005 83.2447 449.996 84.038V84.192C449.996 85.004 450.117 85.6247 450.36 86.054C450.612 86.4833 451.074 86.698 451.746 86.698C452.268 86.698 452.67 86.4833 452.95 86.054C453.23 85.6153 453.37 84.99 453.37 84.178C453.37 83.3473 453.225 82.7267 452.936 82.316C452.656 81.9053 452.25 81.7 451.718 81.7ZM464.188 88H459.988V86.978L461.192 86.53V79.488L459.988 79.026V78.004H464.188V79.026L462.984 79.488V86.53L464.188 86.978V88ZM468.754 86.726C468.968 86.726 469.178 86.7073 469.384 86.67C469.598 86.6233 469.794 86.572 469.972 86.516V87.832C469.785 87.9253 469.542 88 469.244 88.056C468.945 88.112 468.632 88.14 468.306 88.14C467.867 88.14 467.47 88.07 467.116 87.93C466.77 87.79 466.495 87.5427 466.29 87.188C466.084 86.8333 465.982 86.334 465.982 85.69V81.742H464.96V80.972L466.08 80.356L466.64 78.746H467.746V80.412H469.902V81.742H467.746V85.676C467.746 86.0307 467.839 86.2967 468.026 86.474C468.222 86.642 468.464 86.726 468.754 86.726ZM474.553 80.272C475.571 80.272 476.373 80.5753 476.961 81.182C477.559 81.7887 477.857 82.6333 477.857 83.716V84.612H472.845C472.864 85.3027 473.055 85.8393 473.419 86.222C473.783 86.5953 474.287 86.782 474.931 86.782C475.417 86.782 475.855 86.7353 476.247 86.642C476.639 86.5393 477.041 86.3947 477.451 86.208V87.622C477.078 87.7993 476.691 87.93 476.289 88.014C475.888 88.098 475.407 88.14 474.847 88.14C474.101 88.14 473.443 88 472.873 87.72C472.304 87.4307 471.856 87.0013 471.529 86.432C471.212 85.8533 471.053 85.13 471.053 84.262C471.053 82.9647 471.371 81.9753 472.005 81.294C472.649 80.6127 473.499 80.272 474.553 80.272ZM474.553 81.574C474.077 81.574 473.69 81.728 473.391 82.036C473.102 82.3347 472.934 82.7827 472.887 83.38H476.149C476.14 82.8573 476.005 82.428 475.743 82.092C475.491 81.7467 475.095 81.574 474.553 81.574ZM488.33 80.272C489.189 80.272 489.833 80.4913 490.262 80.93C490.701 81.3687 490.92 82.078 490.92 83.058V88H489.156V83.394C489.156 82.2647 488.727 81.7 487.868 81.7C487.252 81.7 486.813 81.9007 486.552 82.302C486.291 82.7033 486.16 83.2867 486.16 84.052V88H484.396V83.394C484.396 82.2647 483.962 81.7 483.094 81.7C482.45 81.7 482.007 81.924 481.764 82.372C481.521 82.82 481.4 83.4593 481.4 84.29V88H479.636V80.412H480.994L481.246 81.406H481.344C481.577 81.014 481.895 80.7293 482.296 80.552C482.697 80.3653 483.117 80.272 483.556 80.272C484.125 80.272 484.601 80.3653 484.984 80.552C485.376 80.7387 485.675 81.0373 485.88 81.448H486.02C486.253 81.0373 486.58 80.7387 487 80.552C487.42 80.3653 487.863 80.272 488.33 80.272Z" fill="#1B77AF"/>
<rect x="377" y="99" width="150" height="2" fill="#1B77AF"/>
<circle cx="452" cy="36" r="12" fill="#D51588"/>
<path d="M455.942 41H449.096V39.698L451.644 37.122C452.148 36.6087 452.559 36.17 452.876 35.806C453.203 35.442 453.441 35.1013 453.59 34.784C453.749 34.4573 453.828 34.1073 453.828 33.734C453.828 33.2767 453.697 32.936 453.436 32.712C453.184 32.4787 452.839 32.362 452.4 32.362C451.98 32.362 451.588 32.4507 451.224 32.628C450.86 32.796 450.482 33.0387 450.09 33.356L449.124 32.194C449.535 31.8393 449.997 31.5313 450.51 31.27C451.033 30.9993 451.695 30.864 452.498 30.864C453.142 30.864 453.693 30.9807 454.15 31.214C454.617 31.438 454.976 31.7553 455.228 32.166C455.48 32.5673 455.606 33.0293 455.606 33.552C455.606 34.0933 455.499 34.5927 455.284 35.05C455.069 35.498 454.757 35.9507 454.346 36.408C453.945 36.856 453.464 37.3413 452.904 37.864L451.322 39.39V39.474H455.942V41Z" fill="white"/>
<path d="M452 48V72" stroke="#D51588"/>
<path d="M452 101V113" stroke="#D51588"/>
<circle cx="452" cy="125" r="12" fill="#D51588"/>
<path d="M455.55 122.286C455.55 122.967 455.349 123.513 454.948 123.924C454.556 124.325 454.047 124.596 453.422 124.736V124.778C454.225 124.881 454.831 125.133 455.242 125.534C455.653 125.935 455.858 126.463 455.858 127.116C455.858 127.695 455.718 128.213 455.438 128.67C455.158 129.127 454.724 129.487 454.136 129.748C453.557 130.009 452.811 130.14 451.896 130.14C451.345 130.14 450.837 130.093 450.37 130C449.913 129.916 449.479 129.781 449.068 129.594V128.04C449.488 128.255 449.936 128.418 450.412 128.53C450.888 128.642 451.336 128.698 451.756 128.698C452.568 128.698 453.142 128.553 453.478 128.264C453.814 127.965 453.982 127.555 453.982 127.032C453.982 126.537 453.786 126.169 453.394 125.926C453.002 125.683 452.349 125.562 451.434 125.562H450.594V124.148H451.448C452.335 124.148 452.946 124.003 453.282 123.714C453.618 123.425 453.786 123.051 453.786 122.594C453.786 122.193 453.655 121.88 453.394 121.656C453.133 121.432 452.741 121.32 452.218 121.32C451.714 121.32 451.28 121.404 450.916 121.572C450.552 121.731 450.225 121.903 449.936 122.09L449.096 120.872C449.479 120.592 449.931 120.354 450.454 120.158C450.977 119.962 451.593 119.864 452.302 119.864C453.338 119.864 454.136 120.083 454.696 120.522C455.265 120.961 455.55 121.549 455.55 122.286Z" fill="white"/>
<circle cx="420" cy="36" r="12" fill="#D51588"/>
<path d="M421.968 41H420.204V34.77C420.204 34.4713 420.209 34.154 420.218 33.818C420.227 33.482 420.241 33.1693 420.26 32.88C420.167 32.9733 420.05 33.0853 419.91 33.216C419.779 33.3467 419.635 33.4727 419.476 33.594L418.356 34.49L417.474 33.398L420.498 31.004H421.968V41Z" fill="white"/>
<path d="M420 48V72" stroke="#D51588"/>
</svg>
