<svg width="190" height="35" viewBox="0 0 190 35" fill="none" xmlns="http://www.w3.org/2000/svg">
<rect width="190" height="35" fill="white"/>
<rect width="150" height="35" transform="translate(20)" fill="white"/>
<path d="M70.7495 22H69.4895V13.11H66.3675V12.004H73.8575V13.11H70.7495V22ZM76.9177 14.37C77.8324 14.37 78.5091 14.5707 78.9477 14.972C79.3864 15.3733 79.6057 16.0127 79.6057 16.89V22H78.7097L78.4717 20.936H78.4157C78.0891 21.3467 77.7437 21.65 77.3797 21.846C77.0157 22.042 76.5211 22.14 75.8957 22.14C75.2144 22.14 74.6497 21.9627 74.2017 21.608C73.7537 21.244 73.5297 20.6793 73.5297 19.914C73.5297 19.1673 73.8237 18.5933 74.4117 18.192C74.9997 17.7813 75.9051 17.5573 77.1277 17.52L78.4017 17.478V17.03C78.4017 16.4047 78.2664 15.9707 77.9957 15.728C77.7251 15.4853 77.3424 15.364 76.8477 15.364C76.4557 15.364 76.0824 15.4247 75.7277 15.546C75.3731 15.658 75.0417 15.7887 74.7337 15.938L74.3557 15.014C74.6824 14.8367 75.0697 14.6873 75.5177 14.566C75.9657 14.4353 76.4324 14.37 76.9177 14.37ZM78.3877 18.332L77.2817 18.374C76.3484 18.4113 75.6997 18.5607 75.3357 18.822C74.9811 19.0833 74.8037 19.452 74.8037 19.928C74.8037 20.348 74.9297 20.656 75.1817 20.852C75.4431 21.048 75.7744 21.146 76.1757 21.146C76.8011 21.146 77.3237 20.9733 77.7437 20.628C78.1731 20.2733 78.3877 19.732 78.3877 19.004V18.332ZM83.1554 11.36V13.95C83.1554 14.2673 83.1461 14.566 83.1274 14.846C83.1181 15.1167 83.1041 15.3313 83.0854 15.49H83.1554C83.3701 15.1727 83.6641 14.9067 84.0374 14.692C84.4107 14.4773 84.8914 14.37 85.4794 14.37C86.4127 14.37 87.1594 14.6967 87.7194 15.35C88.2887 15.994 88.5734 16.96 88.5734 18.248C88.5734 19.536 88.2887 20.5067 87.7194 21.16C87.1501 21.8133 86.4034 22.14 85.4794 22.14C84.8914 22.14 84.4107 22.0327 84.0374 21.818C83.6641 21.6033 83.3701 21.3467 83.1554 21.048H83.0574L82.8054 22H81.9234V11.36H83.1554ZM85.2694 15.392C84.4667 15.392 83.9114 15.6207 83.6034 16.078C83.3047 16.5353 83.1554 17.2447 83.1554 18.206V18.262C83.1554 19.186 83.3047 19.8953 83.6034 20.39C83.9114 20.8753 84.4761 21.118 85.2974 21.118C85.9694 21.118 86.4687 20.8707 86.7954 20.376C87.1314 19.8813 87.2994 19.1673 87.2994 18.234C87.2994 16.3393 86.6227 15.392 85.2694 15.392ZM97.1554 22H93.5434V21.272L94.7194 21.006V13.012L93.5434 12.732V12.004H97.1554V12.732L95.9794 13.012V21.006L97.1554 21.272V22ZM101.424 21.132C101.61 21.132 101.802 21.118 101.998 21.09C102.194 21.062 102.352 21.0247 102.474 20.978V21.916C102.343 21.9813 102.156 22.0327 101.914 22.07C101.671 22.1167 101.438 22.14 101.214 22.14C100.822 22.14 100.458 22.0747 100.122 21.944C99.7949 21.804 99.5289 21.566 99.3235 21.23C99.1182 20.894 99.0155 20.4227 99.0155 19.816V15.448H97.9515V14.86L99.0295 14.37L99.5195 12.774H100.248V14.496H102.418V15.448H100.248V19.788C100.248 20.2453 100.355 20.586 100.57 20.81C100.794 21.0247 101.078 21.132 101.424 21.132ZM106.874 14.356C107.509 14.356 108.059 14.496 108.526 14.776C108.993 15.056 109.347 15.4527 109.59 15.966C109.842 16.47 109.968 17.0627 109.968 17.744V18.486H104.83C104.849 19.3353 105.063 19.984 105.474 20.432C105.894 20.8707 106.477 21.09 107.224 21.09C107.7 21.09 108.12 21.048 108.484 20.964C108.857 20.8707 109.24 20.74 109.632 20.572V21.65C109.249 21.818 108.871 21.9393 108.498 22.014C108.125 22.098 107.681 22.14 107.168 22.14C106.449 22.14 105.819 21.9953 105.278 21.706C104.737 21.4167 104.312 20.9873 104.004 20.418C103.705 19.8487 103.556 19.144 103.556 18.304C103.556 17.4827 103.691 16.778 103.962 16.19C104.242 15.602 104.629 15.1493 105.124 14.832C105.628 14.5147 106.211 14.356 106.874 14.356ZM106.86 15.364C106.272 15.364 105.805 15.5553 105.46 15.938C105.124 16.3113 104.923 16.834 104.858 17.506H108.68C108.671 16.8713 108.521 16.358 108.232 15.966C107.943 15.5647 107.485 15.364 106.86 15.364ZM120.11 14.356C120.96 14.356 121.594 14.5753 122.014 15.014C122.434 15.4527 122.644 16.1527 122.644 17.114V22H121.426V17.17C121.426 15.9847 120.918 15.392 119.9 15.392C119.172 15.392 118.65 15.602 118.332 16.022C118.024 16.442 117.87 17.0533 117.87 17.856V22H116.652V17.17C116.652 15.9847 116.139 15.392 115.112 15.392C114.356 15.392 113.834 15.6253 113.544 16.092C113.255 16.5587 113.11 17.2307 113.11 18.108V22H111.878V14.496H112.872L113.054 15.518H113.124C113.358 15.126 113.67 14.8367 114.062 14.65C114.464 14.454 114.888 14.356 115.336 14.356C116.512 14.356 117.278 14.776 117.632 15.616H117.702C117.954 15.1867 118.295 14.8693 118.724 14.664C119.154 14.4587 119.616 14.356 120.11 14.356Z" fill="#323232"/>
</svg>
