<svg width="190" height="35" viewBox="0 0 190 35" fill="none" xmlns="http://www.w3.org/2000/svg">
<rect width="190" height="35" fill="white"/>
<rect width="150" height="35" transform="translate(20)" fill="#F1F1F1"/>
<path d="M69.8899 22H68.0979V13.516H65.2279V12.004H72.7599V13.516H69.8899V22ZM76.0252 14.272C77.0052 14.272 77.7472 14.4867 78.2512 14.916C78.7645 15.3453 79.0212 16.008 79.0212 16.904V22H77.7752L77.4252 20.95H77.3692C77.0425 21.3607 76.6972 21.664 76.3332 21.86C75.9692 22.0467 75.4745 22.14 74.8492 22.14C74.1679 22.14 73.6032 21.9487 73.1552 21.566C72.7072 21.1833 72.4832 20.5907 72.4832 19.788C72.4832 19.004 72.7679 18.416 73.3372 18.024C73.9159 17.632 74.7885 17.4127 75.9552 17.366L77.2712 17.324V16.946C77.2712 16.4607 77.1545 16.1153 76.9212 15.91C76.6879 15.7047 76.3612 15.602 75.9412 15.602C75.5585 15.602 75.1899 15.658 74.8352 15.77C74.4899 15.8727 74.1445 16.0033 73.7992 16.162L73.2392 14.93C73.6125 14.734 74.0372 14.5753 74.5132 14.454C74.9985 14.3327 75.5025 14.272 76.0252 14.272ZM77.2712 18.416L76.3472 18.444C75.5725 18.472 75.0359 18.6073 74.7372 18.85C74.4385 19.0833 74.2892 19.4007 74.2892 19.802C74.2892 20.166 74.3919 20.4273 74.5972 20.586C74.8119 20.7353 75.0919 20.81 75.4372 20.81C75.9505 20.81 76.3845 20.6653 76.7392 20.376C77.0939 20.0773 77.2712 19.6387 77.2712 19.06V18.416ZM82.9957 11.36V13.88C82.9957 14.1787 82.9863 14.468 82.9677 14.748C82.949 15.028 82.9303 15.2473 82.9117 15.406H82.9957C83.201 15.0887 83.481 14.8227 83.8357 14.608C84.1903 14.384 84.6523 14.272 85.2217 14.272C86.099 14.272 86.8083 14.6033 87.3497 15.266C87.9003 15.9287 88.1757 16.904 88.1757 18.192C88.1757 19.4987 87.9003 20.4833 87.3497 21.146C86.799 21.8087 86.0757 22.14 85.1797 22.14C84.6103 22.14 84.153 22.0373 83.8077 21.832C83.4717 21.6267 83.201 21.3887 82.9957 21.118H82.8697L82.5477 22H81.2317V11.36H82.9957ZM84.7177 15.7C84.083 15.7 83.6397 15.8913 83.3877 16.274C83.1357 16.6567 83.005 17.2447 82.9957 18.038V18.192C82.9957 19.004 83.117 19.6247 83.3597 20.054C83.6117 20.4833 84.0737 20.698 84.7457 20.698C85.2683 20.698 85.6697 20.4833 85.9497 20.054C86.2297 19.6153 86.3697 18.99 86.3697 18.178C86.3697 17.3473 86.225 16.7267 85.9357 16.316C85.6557 15.9053 85.2497 15.7 84.7177 15.7ZM97.188 22H92.988V20.978L94.192 20.53V13.488L92.988 13.026V12.004H97.188V13.026L95.984 13.488V20.53L97.188 20.978V22ZM101.754 20.726C101.968 20.726 102.178 20.7073 102.384 20.67C102.598 20.6233 102.794 20.572 102.972 20.516V21.832C102.785 21.9253 102.542 22 102.244 22.056C101.945 22.112 101.632 22.14 101.306 22.14C100.867 22.14 100.47 22.07 100.116 21.93C99.7704 21.79 99.495 21.5427 99.2897 21.188C99.0844 20.8333 98.9817 20.334 98.9817 19.69V15.742H97.9597V14.972L99.0797 14.356L99.6397 12.746H100.746V14.412H102.902V15.742H100.746V19.676C100.746 20.0307 100.839 20.2967 101.026 20.474C101.222 20.642 101.464 20.726 101.754 20.726ZM107.553 14.272C108.571 14.272 109.373 14.5753 109.961 15.182C110.559 15.7887 110.857 16.6333 110.857 17.716V18.612H105.845C105.864 19.3027 106.055 19.8393 106.419 20.222C106.783 20.5953 107.287 20.782 107.931 20.782C108.417 20.782 108.855 20.7353 109.247 20.642C109.639 20.5393 110.041 20.3947 110.451 20.208V21.622C110.078 21.7993 109.691 21.93 109.289 22.014C108.888 22.098 108.407 22.14 107.847 22.14C107.101 22.14 106.443 22 105.873 21.72C105.304 21.4307 104.856 21.0013 104.529 20.432C104.212 19.8533 104.053 19.13 104.053 18.262C104.053 16.9647 104.371 15.9753 105.005 15.294C105.649 14.6127 106.499 14.272 107.553 14.272ZM107.553 15.574C107.077 15.574 106.69 15.728 106.391 16.036C106.102 16.3347 105.934 16.7827 105.887 17.38H109.149C109.14 16.8573 109.005 16.428 108.743 16.092C108.491 15.7467 108.095 15.574 107.553 15.574ZM121.33 14.272C122.189 14.272 122.833 14.4913 123.262 14.93C123.701 15.3687 123.92 16.078 123.92 17.058V22H122.156V17.394C122.156 16.2647 121.727 15.7 120.868 15.7C120.252 15.7 119.813 15.9007 119.552 16.302C119.291 16.7033 119.16 17.2867 119.16 18.052V22H117.396V17.394C117.396 16.2647 116.962 15.7 116.094 15.7C115.45 15.7 115.007 15.924 114.764 16.372C114.521 16.82 114.4 17.4593 114.4 18.29V22H112.636V14.412H113.994L114.246 15.406H114.344C114.577 15.014 114.895 14.7293 115.296 14.552C115.697 14.3653 116.117 14.272 116.556 14.272C117.125 14.272 117.601 14.3653 117.984 14.552C118.376 14.7387 118.675 15.0373 118.88 15.448H119.02C119.253 15.0373 119.58 14.7387 120 14.552C120.42 14.3653 120.863 14.272 121.33 14.272Z" fill="#155E8B"/>
<rect x="20" y="33" width="150" height="2" fill="#155E8B"/>
</svg>
