<svg width="412" height="200" viewBox="0 0 412 200" fill="none" xmlns="http://www.w3.org/2000/svg">
<rect width="412" height="200" fill="white"/>
<rect width="262" height="35" transform="translate(32 82)" fill="white"/>
<path d="M57.6409 104V94.004H59.4329V102.488H63.6049V104H57.6409ZM71.9461 100.192C71.9461 101.452 71.6195 102.427 70.9661 103.118C70.3128 103.799 69.4261 104.14 68.3061 104.14C67.6155 104.14 66.9995 103.986 66.4581 103.678C65.9168 103.37 65.4921 102.922 65.1841 102.334C64.8761 101.746 64.7221 101.032 64.7221 100.192C64.7221 98.932 65.0441 97.966 65.6881 97.294C66.3415 96.6127 67.2281 96.272 68.3481 96.272C69.0481 96.272 69.6688 96.426 70.2101 96.734C70.7515 97.0327 71.1761 97.476 71.4841 98.064C71.7921 98.6427 71.9461 99.352 71.9461 100.192ZM66.5281 100.192C66.5281 100.995 66.6681 101.615 66.9481 102.054C67.2375 102.493 67.6995 102.712 68.3341 102.712C68.9595 102.712 69.4168 102.493 69.7061 102.054C69.9955 101.615 70.1401 100.995 70.1401 100.192C70.1401 99.3893 69.9955 98.7733 69.7061 98.344C69.4168 97.9147 68.9548 97.7 68.3201 97.7C67.6855 97.7 67.2281 97.9147 66.9481 98.344C66.6681 98.7733 66.5281 99.3893 66.5281 100.192ZM77.8297 96.272C78.6791 96.272 79.3417 96.4913 79.8177 96.93C80.3031 97.3687 80.5457 98.078 80.5457 99.058V104H78.7817V99.408C78.7817 98.8387 78.6697 98.414 78.4457 98.134C78.2217 97.8447 77.8671 97.7 77.3817 97.7C76.6724 97.7 76.1871 97.924 75.9257 98.372C75.6644 98.82 75.5337 99.4593 75.5337 100.29V104H73.7697V96.412H75.1277L75.3797 97.406H75.4777C75.7204 97.014 76.0517 96.7293 76.4717 96.552C76.9011 96.3653 77.3537 96.272 77.8297 96.272ZM85.3002 96.272C86.2802 96.272 87.0315 96.6453 87.5542 97.392H87.6242L87.7922 96.412H89.2622V104.056C89.2622 105.139 88.9588 105.96 88.3522 106.52C87.7455 107.08 86.8308 107.36 85.6082 107.36C85.0668 107.36 84.5675 107.323 84.1102 107.248C83.6528 107.183 83.2188 107.066 82.8082 106.898V105.442C83.2375 105.629 83.6948 105.773 84.1802 105.876C84.6748 105.979 85.1882 106.03 85.7202 106.03C86.2895 106.03 86.7282 105.867 87.0362 105.54C87.3442 105.223 87.4982 104.756 87.4982 104.14V103.944C87.4982 103.804 87.5028 103.641 87.5122 103.454C87.5215 103.267 87.5355 103.118 87.5542 103.006H87.4982C87.2368 103.398 86.9148 103.687 86.5322 103.874C86.1588 104.051 85.7342 104.14 85.2582 104.14C84.3342 104.14 83.6108 103.795 83.0882 103.104C82.5655 102.413 82.3042 101.452 82.3042 100.22C82.3042 98.988 82.5655 98.022 83.0882 97.322C83.6202 96.622 84.3575 96.272 85.3002 96.272ZM85.7622 97.714C84.6608 97.714 84.1102 98.5587 84.1102 100.248C84.1102 101.909 84.6702 102.74 85.7902 102.74C86.4062 102.74 86.8588 102.572 87.1482 102.236C87.4468 101.891 87.5962 101.312 87.5962 100.5V100.234C87.5962 99.338 87.4468 98.694 87.1482 98.302C86.8588 97.91 86.3968 97.714 85.7622 97.714ZM98.9046 104H97.1126V95.516H94.2426V94.004H101.775V95.516H98.9046V104ZM105.04 96.272C106.02 96.272 106.762 96.4867 107.266 96.916C107.779 97.3453 108.036 98.008 108.036 98.904V104H106.79L106.44 102.95H106.384C106.057 103.361 105.712 103.664 105.348 103.86C104.984 104.047 104.489 104.14 103.864 104.14C103.183 104.14 102.618 103.949 102.17 103.566C101.722 103.183 101.498 102.591 101.498 101.788C101.498 101.004 101.783 100.416 102.352 100.024C102.931 99.632 103.803 99.4127 104.97 99.366L106.286 99.324V98.946C106.286 98.4607 106.169 98.1153 105.936 97.91C105.703 97.7047 105.376 97.602 104.956 97.602C104.573 97.602 104.205 97.658 103.85 97.77C103.505 97.8727 103.159 98.0033 102.814 98.162L102.254 96.93C102.627 96.734 103.052 96.5753 103.528 96.454C104.013 96.3327 104.517 96.272 105.04 96.272ZM106.286 100.416L105.362 100.444C104.587 100.472 104.051 100.607 103.752 100.85C103.453 101.083 103.304 101.401 103.304 101.802C103.304 102.166 103.407 102.427 103.612 102.586C103.827 102.735 104.107 102.81 104.452 102.81C104.965 102.81 105.399 102.665 105.754 102.376C106.109 102.077 106.286 101.639 106.286 101.06V100.416ZM112.01 93.36V95.88C112.01 96.1787 112.001 96.468 111.982 96.748C111.964 97.028 111.945 97.2473 111.926 97.406H112.01C112.216 97.0887 112.496 96.8227 112.85 96.608C113.205 96.384 113.667 96.272 114.236 96.272C115.114 96.272 115.823 96.6033 116.364 97.266C116.915 97.9287 117.19 98.904 117.19 100.192C117.19 101.499 116.915 102.483 116.364 103.146C115.814 103.809 115.09 104.14 114.194 104.14C113.625 104.14 113.168 104.037 112.822 103.832C112.486 103.627 112.216 103.389 112.01 103.118H111.884L111.562 104H110.246V93.36H112.01ZM113.732 97.7C113.098 97.7 112.654 97.8913 112.402 98.274C112.15 98.6567 112.02 99.2447 112.01 100.038V100.192C112.01 101.004 112.132 101.625 112.374 102.054C112.626 102.483 113.088 102.698 113.76 102.698C114.283 102.698 114.684 102.483 114.964 102.054C115.244 101.615 115.384 100.99 115.384 100.178C115.384 99.3473 115.24 98.7267 114.95 98.316C114.67 97.9053 114.264 97.7 113.732 97.7ZM130.795 104H129.003V99.562H124.607V104H122.815V94.004H124.607V98.036H129.003V94.004H130.795V104ZM136.281 96.272C137.298 96.272 138.101 96.5753 138.689 97.182C139.286 97.7887 139.585 98.6333 139.585 99.716V100.612H134.573C134.591 101.303 134.783 101.839 135.147 102.222C135.511 102.595 136.015 102.782 136.659 102.782C137.144 102.782 137.583 102.735 137.975 102.642C138.367 102.539 138.768 102.395 139.179 102.208V103.622C138.805 103.799 138.418 103.93 138.017 104.014C137.615 104.098 137.135 104.14 136.575 104.14C135.828 104.14 135.17 104 134.601 103.72C134.031 103.431 133.583 103.001 133.257 102.432C132.939 101.853 132.781 101.13 132.781 100.262C132.781 98.9647 133.098 97.9753 133.733 97.294C134.377 96.6127 135.226 96.272 136.281 96.272ZM136.281 97.574C135.805 97.574 135.417 97.728 135.119 98.036C134.829 98.3347 134.661 98.7827 134.615 99.38H137.877C137.867 98.8573 137.732 98.428 137.471 98.092C137.219 97.7467 136.822 97.574 136.281 97.574ZM144.387 96.272C145.367 96.272 146.109 96.4867 146.613 96.916C147.127 97.3453 147.383 98.008 147.383 98.904V104H146.137L145.787 102.95H145.731C145.405 103.361 145.059 103.664 144.695 103.86C144.331 104.047 143.837 104.14 143.211 104.14C142.53 104.14 141.965 103.949 141.517 103.566C141.069 103.183 140.845 102.591 140.845 101.788C140.845 101.004 141.13 100.416 141.699 100.024C142.278 99.632 143.151 99.4127 144.317 99.366L145.633 99.324V98.946C145.633 98.4607 145.517 98.1153 145.283 97.91C145.05 97.7047 144.723 97.602 144.303 97.602C143.921 97.602 143.552 97.658 143.197 97.77C142.852 97.8727 142.507 98.0033 142.161 98.162L141.601 96.93C141.975 96.734 142.399 96.5753 142.875 96.454C143.361 96.3327 143.865 96.272 144.387 96.272ZM145.633 100.416L144.709 100.444C143.935 100.472 143.398 100.607 143.099 100.85C142.801 101.083 142.651 101.401 142.651 101.802C142.651 102.166 142.754 102.427 142.959 102.586C143.174 102.735 143.454 102.81 143.799 102.81C144.313 102.81 144.747 102.665 145.101 102.376C145.456 102.077 145.633 101.639 145.633 101.06V100.416ZM152.1 104.14C151.223 104.14 150.509 103.813 149.958 103.16C149.417 102.497 149.146 101.517 149.146 100.22C149.146 98.9133 149.421 97.9287 149.972 97.266C150.523 96.6033 151.246 96.272 152.142 96.272C152.702 96.272 153.159 96.3793 153.514 96.594C153.878 96.8087 154.167 97.07 154.382 97.378H154.466C154.438 97.2473 154.41 97.0513 154.382 96.79C154.354 96.5193 154.34 96.2627 154.34 96.02V93.36H156.104V104H154.732L154.41 103.006H154.34C154.125 103.323 153.841 103.594 153.486 103.818C153.131 104.033 152.669 104.14 152.1 104.14ZM152.632 102.712C153.285 102.712 153.743 102.525 154.004 102.152C154.275 101.779 154.415 101.214 154.424 100.458V100.234C154.424 99.422 154.293 98.8013 154.032 98.372C153.78 97.9333 153.304 97.714 152.604 97.714C152.063 97.714 151.647 97.938 151.358 98.386C151.078 98.8247 150.938 99.4453 150.938 100.248C150.938 101.051 151.083 101.662 151.372 102.082C151.661 102.502 152.081 102.712 152.632 102.712ZM161.41 96.272C162.427 96.272 163.23 96.5753 163.818 97.182C164.415 97.7887 164.714 98.6333 164.714 99.716V100.612H159.702C159.72 101.303 159.912 101.839 160.276 102.222C160.64 102.595 161.144 102.782 161.788 102.782C162.273 102.782 162.712 102.735 163.104 102.642C163.496 102.539 163.897 102.395 164.308 102.208V103.622C163.934 103.799 163.547 103.93 163.146 104.014C162.744 104.098 162.264 104.14 161.704 104.14C160.957 104.14 160.299 104 159.73 103.72C159.16 103.431 158.712 103.001 158.386 102.432C158.068 101.853 157.91 101.13 157.91 100.262C157.91 98.9647 158.227 97.9753 158.862 97.294C159.506 96.6127 160.355 96.272 161.41 96.272ZM161.41 97.574C160.934 97.574 160.546 97.728 160.248 98.036C159.958 98.3347 159.79 98.7827 159.744 99.38H163.006C162.996 98.8573 162.861 98.428 162.6 98.092C162.348 97.7467 161.951 97.574 161.41 97.574ZM170.468 96.272C170.59 96.272 170.725 96.2813 170.874 96.3C171.024 96.3093 171.145 96.3233 171.238 96.342L171.084 97.98C170.991 97.9613 170.874 97.9473 170.734 97.938C170.604 97.9193 170.492 97.91 170.398 97.91C170.025 97.91 169.675 97.9893 169.348 98.148C169.022 98.2973 168.756 98.5307 168.55 98.848C168.354 99.1653 168.256 99.5713 168.256 100.066V104H166.492V96.412H167.85L168.102 97.728H168.186C168.41 97.3267 168.718 96.986 169.11 96.706C169.502 96.4167 169.955 96.272 170.468 96.272ZM177.811 101.802C177.811 102.567 177.535 103.151 176.985 103.552C176.443 103.944 175.664 104.14 174.647 104.14C174.115 104.14 173.657 104.103 173.275 104.028C172.901 103.953 172.537 103.837 172.183 103.678V102.18C172.556 102.357 172.967 102.507 173.415 102.628C173.872 102.749 174.301 102.81 174.703 102.81C175.188 102.81 175.538 102.735 175.753 102.586C175.967 102.437 176.075 102.236 176.075 101.984C176.075 101.835 176.033 101.704 175.949 101.592C175.865 101.471 175.701 101.34 175.459 101.2C175.216 101.06 174.847 100.887 174.353 100.682C173.867 100.486 173.461 100.29 173.135 100.094C172.817 99.898 172.575 99.6647 172.407 99.394C172.248 99.1233 172.169 98.7733 172.169 98.344C172.169 97.6627 172.439 97.1493 172.981 96.804C173.522 96.4493 174.236 96.272 175.123 96.272C175.589 96.272 176.028 96.3187 176.439 96.412C176.859 96.5053 177.279 96.6453 177.699 96.832L177.139 98.134C176.784 97.9847 176.439 97.8587 176.103 97.756C175.767 97.6533 175.421 97.602 175.067 97.602C174.292 97.602 173.905 97.8213 173.905 98.26C173.905 98.4187 173.951 98.554 174.045 98.666C174.147 98.778 174.32 98.8993 174.563 99.03C174.815 99.1513 175.169 99.3007 175.627 99.478C176.075 99.6553 176.462 99.842 176.789 100.038C177.115 100.225 177.367 100.458 177.545 100.738C177.722 101.009 177.811 101.363 177.811 101.802ZM191.489 98.904C191.489 100.593 191.017 101.867 190.075 102.726C189.132 103.575 187.816 104 186.127 104H183.313V94.004H186.421C187.457 94.004 188.353 94.1907 189.109 94.564C189.865 94.9373 190.448 95.488 190.859 96.216C191.279 96.944 191.489 97.84 191.489 98.904ZM189.613 98.96C189.613 97.7653 189.337 96.888 188.787 96.328C188.236 95.768 187.447 95.488 186.421 95.488H185.105V102.502H186.183C188.469 102.502 189.613 101.321 189.613 98.96ZM200.229 100.192C200.229 101.452 199.903 102.427 199.249 103.118C198.596 103.799 197.709 104.14 196.589 104.14C195.899 104.14 195.283 103.986 194.741 103.678C194.2 103.37 193.775 102.922 193.467 102.334C193.159 101.746 193.005 101.032 193.005 100.192C193.005 98.932 193.327 97.966 193.971 97.294C194.625 96.6127 195.511 96.272 196.631 96.272C197.331 96.272 197.952 96.426 198.493 96.734C199.035 97.0327 199.459 97.476 199.767 98.064C200.075 98.6427 200.229 99.352 200.229 100.192ZM194.811 100.192C194.811 100.995 194.951 101.615 195.231 102.054C195.521 102.493 195.983 102.712 196.617 102.712C197.243 102.712 197.7 102.493 197.989 102.054C198.279 101.615 198.423 100.995 198.423 100.192C198.423 99.3893 198.279 98.7733 197.989 98.344C197.7 97.9147 197.238 97.7 196.603 97.7C195.969 97.7 195.511 97.9147 195.231 98.344C194.951 98.7733 194.811 99.3893 194.811 100.192ZM214.356 104H212.13L207.398 96.16H207.342C207.36 96.58 207.379 97.0327 207.398 97.518C207.426 97.994 207.449 98.4747 207.468 98.96V104H205.858V94.004H208.07L212.788 101.788H212.83C212.82 101.415 212.802 100.985 212.774 100.5C212.755 100.015 212.741 99.5433 212.732 99.086V94.004H214.356V104ZM223.567 100.192C223.567 101.452 223.241 102.427 222.587 103.118C221.934 103.799 221.047 104.14 219.927 104.14C219.237 104.14 218.621 103.986 218.079 103.678C217.538 103.37 217.113 102.922 216.805 102.334C216.497 101.746 216.343 101.032 216.343 100.192C216.343 98.932 216.665 97.966 217.309 97.294C217.963 96.6127 218.849 96.272 219.969 96.272C220.669 96.272 221.29 96.426 221.831 96.734C222.373 97.0327 222.797 97.476 223.105 98.064C223.413 98.6427 223.567 99.352 223.567 100.192ZM218.149 100.192C218.149 100.995 218.289 101.615 218.569 102.054C218.859 102.493 219.321 102.712 219.955 102.712C220.581 102.712 221.038 102.493 221.327 102.054C221.617 101.615 221.761 100.995 221.761 100.192C221.761 99.3893 221.617 98.7733 221.327 98.344C221.038 97.9147 220.576 97.7 219.941 97.7C219.307 97.7 218.849 97.9147 218.569 98.344C218.289 98.7733 218.149 99.3893 218.149 100.192ZM228.331 102.726C228.546 102.726 228.756 102.707 228.961 102.67C229.176 102.623 229.372 102.572 229.549 102.516V103.832C229.362 103.925 229.12 104 228.821 104.056C228.522 104.112 228.21 104.14 227.883 104.14C227.444 104.14 227.048 104.07 226.693 103.93C226.348 103.79 226.072 103.543 225.867 103.188C225.662 102.833 225.559 102.334 225.559 101.69V97.742H224.537V96.972L225.657 96.356L226.217 94.746H227.323V96.412H229.479V97.742H227.323V101.676C227.323 102.031 227.416 102.297 227.603 102.474C227.799 102.642 228.042 102.726 228.331 102.726ZM246.853 94.004L244.263 104H242.289L240.707 98.26C240.66 98.0733 240.6 97.8353 240.525 97.546C240.46 97.2473 240.394 96.9627 240.329 96.692C240.273 96.412 240.24 96.202 240.231 96.062C240.212 96.202 240.175 96.412 240.119 96.692C240.063 96.9627 240.002 97.2473 239.937 97.546C239.872 97.8353 239.811 98.0827 239.755 98.288L238.215 104H236.227L233.651 94.004H235.443L236.815 99.702C236.88 99.9447 236.941 100.22 236.997 100.528C237.062 100.836 237.123 101.144 237.179 101.452C237.235 101.751 237.277 102.012 237.305 102.236C237.333 101.993 237.375 101.723 237.431 101.424C237.487 101.116 237.543 100.817 237.599 100.528C237.664 100.229 237.73 99.9773 237.795 99.772L239.363 94.004H241.099L242.695 99.786C242.76 100.001 242.826 100.257 242.891 100.556C242.956 100.855 243.017 101.153 243.073 101.452C243.129 101.751 243.171 102.012 243.199 102.236C243.227 102.012 243.269 101.751 243.325 101.452C243.381 101.144 243.442 100.841 243.507 100.542C243.572 100.234 243.633 99.954 243.689 99.702L245.061 94.004H246.853ZM251.898 96.272C252.019 96.272 252.155 96.2813 252.304 96.3C252.453 96.3093 252.575 96.3233 252.668 96.342L252.514 97.98C252.421 97.9613 252.304 97.9473 252.164 97.938C252.033 97.9193 251.921 97.91 251.828 97.91C251.455 97.91 251.105 97.9893 250.778 98.148C250.451 98.2973 250.185 98.5307 249.98 98.848C249.784 99.1653 249.686 99.5713 249.686 100.066V104H247.922V96.412H249.28L249.532 97.728H249.616C249.84 97.3267 250.148 96.986 250.54 96.706C250.932 96.4167 251.385 96.272 251.898 96.272ZM256.825 96.272C257.805 96.272 258.547 96.4867 259.051 96.916C259.564 97.3453 259.821 98.008 259.821 98.904V104H258.575L258.225 102.95H258.169C257.842 103.361 257.497 103.664 257.133 103.86C256.769 104.047 256.274 104.14 255.649 104.14C254.968 104.14 254.403 103.949 253.955 103.566C253.507 103.183 253.283 102.591 253.283 101.788C253.283 101.004 253.568 100.416 254.137 100.024C254.716 99.632 255.588 99.4127 256.755 99.366L258.071 99.324V98.946C258.071 98.4607 257.954 98.1153 257.721 97.91C257.488 97.7047 257.161 97.602 256.741 97.602C256.358 97.602 255.99 97.658 255.635 97.77C255.29 97.8727 254.944 98.0033 254.599 98.162L254.039 96.93C254.412 96.734 254.837 96.5753 255.313 96.454C255.798 96.3327 256.302 96.272 256.825 96.272ZM258.071 100.416L257.147 100.444C256.372 100.472 255.836 100.607 255.537 100.85C255.238 101.083 255.089 101.401 255.089 101.802C255.089 102.166 255.192 102.427 255.397 102.586C255.612 102.735 255.892 102.81 256.237 102.81C256.75 102.81 257.184 102.665 257.539 102.376C257.894 102.077 258.071 101.639 258.071 101.06V100.416ZM266.021 96.272C266.908 96.272 267.622 96.6033 268.163 97.266C268.705 97.9193 268.975 98.8947 268.975 100.192C268.975 101.489 268.695 102.474 268.135 103.146C267.585 103.809 266.866 104.14 265.979 104.14C265.419 104.14 264.967 104.037 264.621 103.832C264.276 103.627 264.001 103.389 263.795 103.118H263.683C263.711 103.295 263.735 103.487 263.753 103.692C263.781 103.897 263.795 104.093 263.795 104.28V107.36H262.031V96.412H263.459L263.711 97.42H263.795C264.01 97.1027 264.29 96.832 264.635 96.608C264.981 96.384 265.443 96.272 266.021 96.272ZM265.517 97.7C264.892 97.7 264.449 97.8867 264.187 98.26C263.935 98.6333 263.805 99.198 263.795 99.954V100.178C263.795 100.99 263.917 101.615 264.159 102.054C264.411 102.483 264.873 102.698 265.545 102.698C266.096 102.698 266.502 102.474 266.763 102.026C267.034 101.569 267.169 100.948 267.169 100.164C267.169 99.38 267.034 98.7733 266.763 98.344C266.502 97.9147 266.087 97.7 265.517 97.7Z" fill="#1B77AF"/>
<rect x="32" y="115" width="262" height="2" fill="#1B77AF"/>
<rect width="86" height="35" transform="translate(294 82)" fill="white"/>
<path d="M323.831 104H322.571V95.11H319.449V94.004H326.939V95.11H323.831V104ZM329.999 96.37C330.913 96.37 331.59 96.5707 332.029 96.972C332.467 97.3733 332.687 98.0127 332.687 98.89V104H331.791L331.553 102.936H331.497C331.17 103.347 330.825 103.65 330.461 103.846C330.097 104.042 329.602 104.14 328.977 104.14C328.295 104.14 327.731 103.963 327.283 103.608C326.835 103.244 326.611 102.679 326.611 101.914C326.611 101.167 326.905 100.593 327.493 100.192C328.081 99.7813 328.986 99.5573 330.209 99.52L331.483 99.478V99.03C331.483 98.4047 331.347 97.9707 331.077 97.728C330.806 97.4853 330.423 97.364 329.929 97.364C329.537 97.364 329.163 97.4247 328.809 97.546C328.454 97.658 328.123 97.7887 327.815 97.938L327.437 97.014C327.763 96.8367 328.151 96.6873 328.599 96.566C329.047 96.4353 329.513 96.37 329.999 96.37ZM331.469 100.332L330.363 100.374C329.429 100.411 328.781 100.561 328.417 100.822C328.062 101.083 327.885 101.452 327.885 101.928C327.885 102.348 328.011 102.656 328.263 102.852C328.524 103.048 328.855 103.146 329.257 103.146C329.882 103.146 330.405 102.973 330.825 102.628C331.254 102.273 331.469 101.732 331.469 101.004V100.332ZM339.89 101.928C339.89 102.656 339.62 103.207 339.078 103.58C338.537 103.953 337.809 104.14 336.894 104.14C336.372 104.14 335.919 104.098 335.536 104.014C335.163 103.93 334.832 103.813 334.542 103.664V102.544C334.841 102.693 335.2 102.833 335.62 102.964C336.05 103.085 336.484 103.146 336.922 103.146C337.548 103.146 338 103.048 338.28 102.852C338.56 102.647 338.7 102.376 338.7 102.04C338.7 101.853 338.649 101.685 338.546 101.536C338.444 101.387 338.257 101.237 337.986 101.088C337.725 100.939 337.347 100.771 336.852 100.584C336.367 100.397 335.952 100.211 335.606 100.024C335.261 99.8373 334.995 99.6133 334.808 99.352C334.622 99.0907 334.528 98.7547 334.528 98.344C334.528 97.7093 334.785 97.2193 335.298 96.874C335.821 96.5287 336.502 96.356 337.342 96.356C337.8 96.356 338.224 96.4027 338.616 96.496C339.018 96.5893 339.391 96.7107 339.736 96.86L339.316 97.84C338.999 97.7093 338.668 97.5973 338.322 97.504C337.977 97.4107 337.622 97.364 337.258 97.364C336.754 97.364 336.367 97.448 336.096 97.616C335.835 97.7747 335.704 97.994 335.704 98.274C335.704 98.4887 335.765 98.666 335.886 98.806C336.008 98.946 336.208 99.086 336.488 99.226C336.778 99.366 337.16 99.5247 337.636 99.702C338.112 99.8793 338.518 100.061 338.854 100.248C339.19 100.435 339.447 100.663 339.624 100.934C339.802 101.195 339.89 101.527 339.89 101.928ZM342.922 93.36V98.918C342.922 99.0673 342.912 99.2633 342.894 99.506C342.884 99.7487 342.875 99.9587 342.866 100.136H342.922C342.978 100.061 343.062 99.954 343.174 99.814C343.286 99.674 343.398 99.534 343.51 99.394C343.631 99.2447 343.734 99.1233 343.818 99.03L346.212 96.496H347.654L344.616 99.702L347.864 104H346.38L343.776 100.5L342.922 101.242V104H341.704V93.36H342.922ZM354.068 101.928C354.068 102.656 353.798 103.207 353.256 103.58C352.715 103.953 351.987 104.14 351.072 104.14C350.55 104.14 350.097 104.098 349.714 104.014C349.341 103.93 349.01 103.813 348.72 103.664V102.544C349.019 102.693 349.378 102.833 349.798 102.964C350.228 103.085 350.662 103.146 351.1 103.146C351.726 103.146 352.178 103.048 352.458 102.852C352.738 102.647 352.878 102.376 352.878 102.04C352.878 101.853 352.827 101.685 352.724 101.536C352.622 101.387 352.435 101.237 352.164 101.088C351.903 100.939 351.525 100.771 351.03 100.584C350.545 100.397 350.13 100.211 349.784 100.024C349.439 99.8373 349.173 99.6133 348.986 99.352C348.8 99.0907 348.706 98.7547 348.706 98.344C348.706 97.7093 348.963 97.2193 349.476 96.874C349.999 96.5287 350.68 96.356 351.52 96.356C351.978 96.356 352.402 96.4027 352.794 96.496C353.196 96.5893 353.569 96.7107 353.914 96.86L353.494 97.84C353.177 97.7093 352.846 97.5973 352.5 97.504C352.155 97.4107 351.8 97.364 351.436 97.364C350.932 97.364 350.545 97.448 350.274 97.616C350.013 97.7747 349.882 97.994 349.882 98.274C349.882 98.4887 349.943 98.666 350.064 98.806C350.186 98.946 350.386 99.086 350.666 99.226C350.956 99.366 351.338 99.5247 351.814 99.702C352.29 99.8793 352.696 100.061 353.032 100.248C353.368 100.435 353.625 100.663 353.802 100.934C353.98 101.195 354.068 101.527 354.068 101.928Z" fill="#323232"/>
</svg>
