<svg width="428" height="92" viewBox="0 0 428 92" fill="none" xmlns="http://www.w3.org/2000/svg">
<rect width="428" height="92" fill="white"/>
<rect width="149" height="36" transform="translate(129.5 50)" fill="white"/>
<path d="M129.5 50H131.5V86H129.5V50Z" fill="#1B77AF"/>
<path d="M151.5 75C147.634 75 144.5 71.866 144.5 68C144.5 64.134 147.634 61 151.5 61C155.366 61 158.5 64.134 158.5 68C158.5 71.866 155.366 75 151.5 75Z" fill="#1B77AF"/>
<path d="M169.1 73L166.356 64.81H166.3C166.319 64.9967 166.333 65.2627 166.342 65.608C166.361 65.944 166.375 66.3127 166.384 66.714C166.403 67.106 166.412 67.4747 166.412 67.82V73H164.802V63.004H167.294L169.926 70.858H169.982L172.726 63.004H175.218V73H173.51V67.736C173.51 67.4187 173.515 67.0733 173.524 66.7C173.543 66.3173 173.557 65.958 173.566 65.622C173.585 65.2767 173.599 65.0107 173.608 64.824H173.552L170.696 73H169.1ZM180.688 65.272C181.705 65.272 182.508 65.5753 183.096 66.182C183.693 66.7887 183.992 67.6333 183.992 68.716V69.612H178.98C178.999 70.3027 179.19 70.8393 179.554 71.222C179.918 71.5953 180.422 71.782 181.066 71.782C181.551 71.782 181.99 71.7353 182.382 71.642C182.774 71.5393 183.175 71.3947 183.586 71.208V72.622C183.213 72.7993 182.825 72.93 182.424 73.014C182.023 73.098 181.542 73.14 180.982 73.14C180.235 73.14 179.577 73 179.008 72.72C178.439 72.4307 177.991 72.0013 177.664 71.432C177.347 70.8533 177.188 70.13 177.188 69.262C177.188 67.9647 177.505 66.9753 178.14 66.294C178.784 65.6127 179.633 65.272 180.688 65.272ZM180.688 66.574C180.212 66.574 179.825 66.728 179.526 67.036C179.237 67.3347 179.069 67.7827 179.022 68.38H182.284C182.275 67.8573 182.139 67.428 181.878 67.092C181.626 66.7467 181.229 66.574 180.688 66.574ZM189.831 65.272C190.68 65.272 191.343 65.4913 191.819 65.93C192.304 66.3687 192.547 67.078 192.547 68.058V73H190.783V68.408C190.783 67.8387 190.671 67.414 190.447 67.134C190.223 66.8447 189.868 66.7 189.383 66.7C188.673 66.7 188.188 66.924 187.927 67.372C187.665 67.82 187.535 68.4593 187.535 69.29V73H185.771V65.412H187.129L187.381 66.406H187.479C187.721 66.014 188.053 65.7293 188.473 65.552C188.902 65.3653 189.355 65.272 189.831 65.272ZM201.487 65.412V73H200.101L199.863 72.02H199.779C199.536 72.412 199.2 72.6967 198.771 72.874C198.342 73.0513 197.889 73.14 197.413 73.14C196.564 73.14 195.896 72.9207 195.411 72.482C194.935 72.0433 194.697 71.3387 194.697 70.368V65.412H196.461V70.018C196.461 70.5873 196.573 71.012 196.797 71.292C197.021 71.572 197.376 71.712 197.861 71.712C198.57 71.712 199.056 71.488 199.317 71.04C199.588 70.592 199.723 69.9527 199.723 69.122V65.412H201.487ZM210.928 73H206.728V71.978L207.932 71.53V64.488L206.728 64.026V63.004H210.928V64.026L209.724 64.488V71.53L210.928 71.978V73ZM215.494 71.726C215.709 71.726 215.919 71.7073 216.124 71.67C216.339 71.6233 216.535 71.572 216.712 71.516V72.832C216.525 72.9253 216.283 73 215.984 73.056C215.685 73.112 215.373 73.14 215.046 73.14C214.607 73.14 214.211 73.07 213.856 72.93C213.511 72.79 213.235 72.5427 213.03 72.188C212.825 71.8333 212.722 71.334 212.722 70.69V66.742H211.7V65.972L212.82 65.356L213.38 63.746H214.486V65.412H216.642V66.742H214.486V70.676C214.486 71.0307 214.579 71.2967 214.766 71.474C214.962 71.642 215.205 71.726 215.494 71.726ZM221.293 65.272C222.311 65.272 223.113 65.5753 223.701 66.182C224.299 66.7887 224.597 67.6333 224.597 68.716V69.612H219.585C219.604 70.3027 219.795 70.8393 220.159 71.222C220.523 71.5953 221.027 71.782 221.671 71.782C222.157 71.782 222.595 71.7353 222.987 71.642C223.379 71.5393 223.781 71.3947 224.191 71.208V72.622C223.818 72.7993 223.431 72.93 223.029 73.014C222.628 73.098 222.147 73.14 221.587 73.14C220.841 73.14 220.183 73 219.613 72.72C219.044 72.4307 218.596 72.0013 218.269 71.432C217.952 70.8533 217.793 70.13 217.793 69.262C217.793 67.9647 218.111 66.9753 218.745 66.294C219.389 65.6127 220.239 65.272 221.293 65.272ZM221.293 66.574C220.817 66.574 220.43 66.728 220.131 67.036C219.842 67.3347 219.674 67.7827 219.627 68.38H222.889C222.88 67.8573 222.745 67.428 222.483 67.092C222.231 66.7467 221.835 66.574 221.293 66.574ZM235.07 65.272C235.929 65.272 236.573 65.4913 237.002 65.93C237.441 66.3687 237.66 67.078 237.66 68.058V73H235.896V68.394C235.896 67.2647 235.467 66.7 234.608 66.7C233.992 66.7 233.554 66.9007 233.292 67.302C233.031 67.7033 232.9 68.2867 232.9 69.052V73H231.136V68.394C231.136 67.2647 230.702 66.7 229.834 66.7C229.19 66.7 228.747 66.924 228.504 67.372C228.262 67.82 228.14 68.4593 228.14 69.29V73H226.376V65.412H227.734L227.986 66.406H228.084C228.318 66.014 228.635 65.7293 229.036 65.552C229.438 65.3653 229.858 65.272 230.296 65.272C230.866 65.272 231.342 65.3653 231.724 65.552C232.116 65.7387 232.415 66.0373 232.62 66.448H232.76C232.994 66.0373 233.32 65.7387 233.74 65.552C234.16 65.3653 234.604 65.272 235.07 65.272Z" fill="#1B77AF"/>
<rect opacity="0.4" x="311.5" y="50" width="8" height="182" transform="rotate(90 311.5 50)" fill="white"/>
<rect opacity="0.12" x="311.5" y="50" width="8" height="182" transform="rotate(90 311.5 50)" fill="#D51588"/>
<path opacity="0.5" d="M311.5 58L129.5 58" stroke="#D51588" stroke-dasharray="3 3"/>
<path opacity="0.5" d="M311.5 50L129.5 50" stroke="#D51588" stroke-dasharray="3 3"/>
<path d="M327.5 54L311.5 54" stroke="#D51588"/>
<path d="M333.518 48.878C334.096 48.878 334.619 48.9667 335.086 49.144C335.552 49.3213 335.926 49.592 336.206 49.956C336.486 50.3107 336.626 50.7493 336.626 51.272C336.626 51.8693 336.448 52.364 336.094 52.756C335.739 53.1387 335.305 53.4607 334.792 53.722C335.174 53.918 335.529 54.1373 335.856 54.38C336.182 54.6227 336.444 54.912 336.64 55.248C336.845 55.5747 336.948 55.962 336.948 56.41C336.948 56.9607 336.803 57.4413 336.514 57.852C336.224 58.2627 335.823 58.58 335.31 58.804C334.806 59.028 334.213 59.14 333.532 59.14C332.421 59.14 331.567 58.902 330.97 58.426C330.372 57.95 330.074 57.2967 330.074 56.466C330.074 56.0087 330.162 55.612 330.34 55.276C330.517 54.94 330.755 54.6507 331.054 54.408C331.352 54.1653 331.684 53.9553 332.048 53.778C331.59 53.498 331.198 53.162 330.872 52.77C330.554 52.3687 330.396 51.8647 330.396 51.258C330.396 50.7447 330.536 50.3107 330.816 49.956C331.105 49.6013 331.483 49.3353 331.95 49.158C332.426 48.9713 332.948 48.878 333.518 48.878ZM333.504 50.208C333.093 50.208 332.752 50.3107 332.482 50.516C332.22 50.7213 332.09 51.0107 332.09 51.384C332.09 51.7947 332.23 52.1213 332.51 52.364C332.79 52.6067 333.13 52.8167 333.532 52.994C333.914 52.826 334.241 52.6207 334.512 52.378C334.792 52.1353 334.932 51.804 334.932 51.384C334.932 51.0107 334.796 50.7213 334.526 50.516C334.264 50.3107 333.924 50.208 333.504 50.208ZM331.754 56.382C331.754 56.7927 331.898 57.1333 332.188 57.404C332.477 57.6653 332.916 57.796 333.504 57.796C334.082 57.796 334.521 57.6653 334.82 57.404C335.118 57.1427 335.268 56.802 335.268 56.382C335.268 55.962 335.1 55.612 334.764 55.332C334.428 55.052 334.031 54.8093 333.574 54.604L333.378 54.506C332.874 54.7393 332.477 55.0053 332.188 55.304C331.898 55.5933 331.754 55.9527 331.754 56.382ZM346.286 51.272C347.173 51.272 347.887 51.6033 348.428 52.266C348.969 52.9193 349.24 53.8947 349.24 55.192C349.24 56.4893 348.96 57.474 348.4 58.146C347.849 58.8087 347.131 59.14 346.244 59.14C345.684 59.14 345.231 59.0373 344.886 58.832C344.541 58.6267 344.265 58.3887 344.06 58.118H343.948C343.976 58.2953 343.999 58.4867 344.018 58.692C344.046 58.8973 344.06 59.0933 344.06 59.28V62.36H342.296V51.412H343.724L343.976 52.42H344.06C344.275 52.1027 344.555 51.832 344.9 51.608C345.245 51.384 345.707 51.272 346.286 51.272ZM345.782 52.7C345.157 52.7 344.713 52.8867 344.452 53.26C344.2 53.6333 344.069 54.198 344.06 54.954V55.178C344.06 55.99 344.181 56.6153 344.424 57.054C344.676 57.4833 345.138 57.698 345.81 57.698C346.361 57.698 346.767 57.474 347.028 57.026C347.299 56.5687 347.434 55.948 347.434 55.164C347.434 54.38 347.299 53.7733 347.028 53.344C346.767 52.9147 346.351 52.7 345.782 52.7ZM352.424 55.122L349.918 51.412H351.92L353.572 53.988L355.224 51.412H357.226L354.692 55.122L357.352 59H355.35L353.572 56.242L351.794 59H349.792L352.424 55.122Z" fill="#D51588"/>
<rect opacity="0.4" x="311.5" y="78" width="8" height="182" transform="rotate(90 311.5 78)" fill="white"/>
<rect opacity="0.12" x="311.5" y="78" width="8" height="182" transform="rotate(90 311.5 78)" fill="#D51588"/>
<path opacity="0.5" d="M311.5 86L129.5 86" stroke="#D51588" stroke-dasharray="3 3"/>
<path opacity="0.5" d="M311.5 78L129.5 78" stroke="#D51588" stroke-dasharray="3 3"/>
<path d="M327.5 82L311.5 82" stroke="#D51588"/>
<path d="M333.518 76.878C334.096 76.878 334.619 76.9667 335.086 77.144C335.552 77.3213 335.926 77.592 336.206 77.956C336.486 78.3107 336.626 78.7493 336.626 79.272C336.626 79.8693 336.448 80.364 336.094 80.756C335.739 81.1387 335.305 81.4607 334.792 81.722C335.174 81.918 335.529 82.1373 335.856 82.38C336.182 82.6227 336.444 82.912 336.64 83.248C336.845 83.5747 336.948 83.962 336.948 84.41C336.948 84.9607 336.803 85.4413 336.514 85.852C336.224 86.2627 335.823 86.58 335.31 86.804C334.806 87.028 334.213 87.14 333.532 87.14C332.421 87.14 331.567 86.902 330.97 86.426C330.372 85.95 330.074 85.2967 330.074 84.466C330.074 84.0087 330.162 83.612 330.34 83.276C330.517 82.94 330.755 82.6507 331.054 82.408C331.352 82.1653 331.684 81.9553 332.048 81.778C331.59 81.498 331.198 81.162 330.872 80.77C330.554 80.3687 330.396 79.8647 330.396 79.258C330.396 78.7447 330.536 78.3107 330.816 77.956C331.105 77.6013 331.483 77.3353 331.95 77.158C332.426 76.9713 332.948 76.878 333.518 76.878ZM333.504 78.208C333.093 78.208 332.752 78.3107 332.482 78.516C332.22 78.7213 332.09 79.0107 332.09 79.384C332.09 79.7947 332.23 80.1213 332.51 80.364C332.79 80.6067 333.13 80.8167 333.532 80.994C333.914 80.826 334.241 80.6207 334.512 80.378C334.792 80.1353 334.932 79.804 334.932 79.384C334.932 79.0107 334.796 78.7213 334.526 78.516C334.264 78.3107 333.924 78.208 333.504 78.208ZM331.754 84.382C331.754 84.7927 331.898 85.1333 332.188 85.404C332.477 85.6653 332.916 85.796 333.504 85.796C334.082 85.796 334.521 85.6653 334.82 85.404C335.118 85.1427 335.268 84.802 335.268 84.382C335.268 83.962 335.1 83.612 334.764 83.332C334.428 83.052 334.031 82.8093 333.574 82.604L333.378 82.506C332.874 82.7393 332.477 83.0053 332.188 83.304C331.898 83.5933 331.754 83.9527 331.754 84.382ZM346.286 79.272C347.173 79.272 347.887 79.6033 348.428 80.266C348.969 80.9193 349.24 81.8947 349.24 83.192C349.24 84.4893 348.96 85.474 348.4 86.146C347.849 86.8087 347.131 87.14 346.244 87.14C345.684 87.14 345.231 87.0373 344.886 86.832C344.541 86.6267 344.265 86.3887 344.06 86.118H343.948C343.976 86.2953 343.999 86.4867 344.018 86.692C344.046 86.8973 344.06 87.0933 344.06 87.28V90.36H342.296V79.412H343.724L343.976 80.42H344.06C344.275 80.1027 344.555 79.832 344.9 79.608C345.245 79.384 345.707 79.272 346.286 79.272ZM345.782 80.7C345.157 80.7 344.713 80.8867 344.452 81.26C344.2 81.6333 344.069 82.198 344.06 82.954V83.178C344.06 83.99 344.181 84.6153 344.424 85.054C344.676 85.4833 345.138 85.698 345.81 85.698C346.361 85.698 346.767 85.474 347.028 85.026C347.299 84.5687 347.434 83.948 347.434 83.164C347.434 82.38 347.299 81.7733 347.028 81.344C346.767 80.9147 346.351 80.7 345.782 80.7ZM352.424 83.122L349.918 79.412H351.92L353.572 81.988L355.224 79.412H357.226L354.692 83.122L357.352 87H355.35L353.572 84.242L351.794 87H349.792L352.424 83.122Z" fill="#D51588"/>
<path d="M155.27 12.858H153.968V15H152.232V12.858H147.78V11.542L152.274 4.976H153.968V11.416H155.27V12.858ZM152.232 11.416V9.176C152.232 8.91467 152.236 8.644 152.246 8.364C152.255 8.07467 152.264 7.80867 152.274 7.566C152.292 7.314 152.306 7.12267 152.316 6.992H152.26C152.176 7.17867 152.082 7.36533 151.98 7.552C151.886 7.72933 151.779 7.90667 151.658 8.084L149.39 11.416H152.232ZM164.286 7.272C165.173 7.272 165.887 7.60333 166.428 8.266C166.969 8.91933 167.24 9.89467 167.24 11.192C167.24 12.4893 166.96 13.474 166.4 14.146C165.849 14.8087 165.131 15.14 164.244 15.14C163.684 15.14 163.231 15.0373 162.886 14.832C162.541 14.6267 162.265 14.3887 162.06 14.118H161.948C161.976 14.2953 161.999 14.4867 162.018 14.692C162.046 14.8973 162.06 15.0933 162.06 15.28V18.36H160.296V7.412H161.724L161.976 8.42H162.06C162.275 8.10267 162.555 7.832 162.9 7.608C163.245 7.384 163.707 7.272 164.286 7.272ZM163.782 8.7C163.157 8.7 162.713 8.88667 162.452 9.26C162.2 9.63333 162.069 10.198 162.06 10.954V11.178C162.06 11.99 162.181 12.6153 162.424 13.054C162.676 13.4833 163.138 13.698 163.81 13.698C164.361 13.698 164.767 13.474 165.028 13.026C165.299 12.5687 165.434 11.948 165.434 11.164C165.434 10.38 165.299 9.77333 165.028 9.344C164.767 8.91467 164.351 8.7 163.782 8.7ZM170.424 11.122L167.918 7.412H169.92L171.572 9.988L173.224 7.412H175.226L172.692 11.122L175.352 15H173.35L171.572 12.242L169.794 15H167.792L170.424 11.122Z" fill="#D51588"/>
<path d="M161.5 20V36" stroke="#D51588"/>
<rect opacity="0.4" x="159.5" y="36" width="4" height="42" fill="white"/>
<rect opacity="0.12" x="159.5" y="36" width="4" height="42" fill="#D51588"/>
<path opacity="0.5" d="M163.5 36L163.5 78" stroke="#D51588" stroke-dasharray="3 3"/>
<path opacity="0.5" d="M159.5 36L159.5 78" stroke="#D51588" stroke-dasharray="3 3"/>
<g clip-path="url(#clip0_9706_737041)">
<line x1="118.5" y1="50.5" x2="127.5" y2="50.5" stroke="#D51588"/>
<line x1="123" y1="84.7139" x2="123" y2="49.9996" stroke="#D51588"/>
<line x1="118.5" y1="85.5" x2="127.5" y2="85.5" stroke="#D51588"/>
</g>
<path d="M86.5716 65.286C86.5716 65.9673 86.371 66.5133 85.9696 66.924C85.5776 67.3253 85.069 67.596 84.4436 67.736V67.778C85.2463 67.8807 85.853 68.1327 86.2636 68.534C86.6743 68.9353 86.8796 69.4627 86.8796 70.116C86.8796 70.6947 86.7396 71.2127 86.4596 71.67C86.1796 72.1273 85.7456 72.4867 85.1576 72.748C84.579 73.0093 83.8323 73.14 82.9176 73.14C82.367 73.14 81.8583 73.0933 81.3916 73C80.9343 72.916 80.5003 72.7807 80.0896 72.594V71.04C80.5096 71.2547 80.9576 71.418 81.4336 71.53C81.9096 71.642 82.3576 71.698 82.7776 71.698C83.5896 71.698 84.1636 71.5533 84.4996 71.264C84.8356 70.9653 85.0036 70.5547 85.0036 70.032C85.0036 69.5373 84.8076 69.1687 84.4156 68.926C84.0236 68.6833 83.3703 68.562 82.4556 68.562H81.6156V67.148H82.4696C83.3563 67.148 83.9676 67.0033 84.3036 66.714C84.6396 66.4247 84.8076 66.0513 84.8076 65.594C84.8076 65.1927 84.677 64.88 84.4156 64.656C84.1543 64.432 83.7623 64.32 83.2396 64.32C82.7356 64.32 82.3016 64.404 81.9376 64.572C81.5736 64.7307 81.247 64.9033 80.9576 65.09L80.1176 63.872C80.5003 63.592 80.953 63.354 81.4756 63.158C81.9983 62.962 82.6143 62.864 83.3236 62.864C84.3596 62.864 85.1576 63.0833 85.7176 63.522C86.287 63.9607 86.5716 64.5487 86.5716 65.286ZM88.1293 68.744C88.1293 68.1653 88.1667 67.596 88.2413 67.036C88.3253 66.476 88.47 65.9487 88.6753 65.454C88.8807 64.95 89.1653 64.5067 89.5293 64.124C89.8933 63.732 90.3553 63.4287 90.9153 63.214C91.4847 62.99 92.1707 62.878 92.9733 62.878C93.1693 62.878 93.3933 62.8873 93.6453 62.906C93.8973 62.9247 94.1073 62.9527 94.2753 62.99V64.446C93.9113 64.3433 93.51 64.292 93.0713 64.292C92.2313 64.292 91.578 64.446 91.1113 64.754C90.6447 65.0527 90.318 65.468 90.1313 66C89.9447 66.5227 89.8327 67.1107 89.7953 67.764H89.8793C90.0753 67.4373 90.3553 67.162 90.7193 66.938C91.0833 66.7047 91.5547 66.588 92.1333 66.588C93.0013 66.588 93.6967 66.8587 94.2193 67.4C94.742 67.9413 95.0033 68.7113 95.0033 69.71C95.0033 70.7833 94.7047 71.6233 94.1073 72.23C93.51 72.8367 92.7027 73.14 91.6853 73.14C91.0227 73.14 90.4207 72.9813 89.8793 72.664C89.3473 72.3467 88.9227 71.866 88.6053 71.222C88.288 70.5687 88.1293 69.7427 88.1293 68.744ZM91.6573 71.698C92.1333 71.698 92.5207 71.5393 92.8193 71.222C93.118 70.8953 93.2673 70.396 93.2673 69.724C93.2673 69.1827 93.1367 68.758 92.8753 68.45C92.614 68.1327 92.222 67.974 91.6993 67.974C91.3353 67.974 91.018 68.0533 90.7473 68.212C90.486 68.3613 90.2807 68.5573 90.1313 68.8C89.982 69.0333 89.9073 69.276 89.9073 69.528C89.9073 69.8733 89.9727 70.214 90.1033 70.55C90.234 70.8767 90.4253 71.152 90.6773 71.376C90.9387 71.5907 91.2653 71.698 91.6573 71.698ZM104.3 65.272C105.186 65.272 105.9 65.6033 106.442 66.266C106.983 66.9193 107.254 67.8947 107.254 69.192C107.254 70.4893 106.974 71.474 106.414 72.146C105.863 72.8087 105.144 73.14 104.258 73.14C103.698 73.14 103.245 73.0373 102.9 72.832C102.554 72.6267 102.279 72.3887 102.074 72.118H101.962C101.99 72.2953 102.013 72.4867 102.032 72.692C102.06 72.8973 102.074 73.0933 102.074 73.28V76.36H100.31V65.412H101.738L101.99 66.42H102.074C102.288 66.1027 102.568 65.832 102.914 65.608C103.259 65.384 103.721 65.272 104.3 65.272ZM103.796 66.7C103.17 66.7 102.727 66.8867 102.466 67.26C102.214 67.6333 102.083 68.198 102.074 68.954V69.178C102.074 69.99 102.195 70.6153 102.438 71.054C102.69 71.4833 103.152 71.698 103.824 71.698C104.374 71.698 104.78 71.474 105.042 71.026C105.312 70.5687 105.448 69.948 105.448 69.164C105.448 68.38 105.312 67.7733 105.042 67.344C104.78 66.9147 104.365 66.7 103.796 66.7ZM110.438 69.122L107.932 65.412H109.934L111.586 67.988L113.238 65.412H115.24L112.706 69.122L115.366 73H113.364L111.586 70.242L109.808 73H107.806L110.438 69.122Z" fill="#D51588"/>
<defs>
<clipPath id="clip0_9706_737041">
<rect width="15" height="36" fill="white" transform="translate(115.5 50)"/>
</clipPath>
</defs>
</svg>
