<svg width="952" height="344" viewBox="0 0 952 344" fill="none" xmlns="http://www.w3.org/2000/svg">
<g clip-path="url(#clip0_9706_736823)">
<rect width="952" height="344" fill="#F1F1F1"/>
<g clip-path="url(#clip1_9706_736823)">
<g filter="url(#filter0_d_9706_736823)">
<g clip-path="url(#clip2_9706_736823)">
<g filter="url(#filter1_i_9706_736823)">
<rect width="200" height="516" transform="translate(36 98)" fill="white"/>
<rect width="200" height="48" transform="translate(36 98)" fill="white"/>
<path d="M64 134C58.201 134 53.5 129.299 53.5 123.5C53.5 117.701 58.201 113 64 113C69.799 113 74.5 117.701 74.5 123.5C74.5 129.299 69.799 134 64 134Z" fill="#C9C9C9"/>
<rect x="83" y="117" width="120" height="12" rx="2" fill="#C9C9C9"/>
<rect width="200" height="48" transform="translate(36 146)" fill="white"/>
<path d="M64 182C58.201 182 53.5 177.299 53.5 171.5C53.5 165.701 58.201 161 64 161C69.799 161 74.5 165.701 74.5 171.5C74.5 177.299 69.799 182 64 182Z" fill="#C9C9C9"/>
<rect x="83" y="165" width="120" height="12" rx="2" fill="#C9C9C9"/>
<rect width="200" height="48" transform="translate(36 194)" fill="white"/>
<path d="M64 230C58.201 230 53.5 225.299 53.5 219.5C53.5 213.701 58.201 209 64 209C69.799 209 74.5 213.701 74.5 219.5C74.5 225.299 69.799 230 64 230Z" fill="#C9C9C9"/>
<rect x="83" y="213" width="120" height="12" rx="2" fill="#C9C9C9"/>
<rect width="200" height="48" transform="translate(36 242)" fill="white"/>
<path d="M64 278C58.201 278 53.5 273.299 53.5 267.5C53.5 261.701 58.201 257 64 257C69.799 257 74.5 261.701 74.5 267.5C74.5 273.299 69.799 278 64 278Z" fill="#C9C9C9"/>
<rect x="83" y="261" width="120" height="12" rx="2" fill="#C9C9C9"/>
</g>
<g filter="url(#filter2_i_9706_736823)">
<rect width="880" height="58" transform="translate(36 40)" fill="white"/>
<path d="M36 40H83.7595L113 98H36V40Z" fill="#DA291C"/>
<line x1="36" y1="97.5" x2="113" y2="97.5" stroke="#C9C9C9"/>
<path d="M58.9378 74.2534H66.9108L68.2099 77.2799H57.4439L55.7227 80.7635H50.9648L62.7538 57.8442H66.0502L77.8392 80.7635H73.0976L64.4101 63.0617L58.9378 74.2534Z" fill="white"/>
<rect x="129" y="63" width="120" height="12" rx="2" fill="#C9C9C9"/>
<rect x="535.5" y="51.5" width="199" height="35" rx="1.5" fill="white"/>
<path fill-rule="evenodd" clip-rule="evenodd" d="M553.62 62.7493C550.93 62.7493 548.749 64.93 548.749 67.62C548.749 70.31 550.93 72.4906 553.62 72.4906C556.31 72.4906 558.491 70.31 558.491 67.62C558.491 64.93 556.31 62.7493 553.62 62.7493ZM548 67.62C548 64.5162 550.516 62 553.62 62C556.724 62 559.24 64.5162 559.24 67.62C559.24 70.7238 556.724 73.24 553.62 73.24C550.516 73.24 548 70.7238 548 67.62Z" fill="#939393"/>
<path fill-rule="evenodd" clip-rule="evenodd" d="M557.302 71.3015C557.448 71.1552 557.685 71.1552 557.831 71.3015L559.68 73.1499C559.826 73.2962 559.826 73.5334 559.68 73.6797C559.533 73.8261 559.296 73.8261 559.15 73.6797L557.302 71.8314C557.155 71.6851 557.155 71.4478 557.302 71.3015Z" fill="#939393"/>
<path fill-rule="evenodd" clip-rule="evenodd" d="M560.449 73.7297C560.245 73.5263 559.933 73.5263 559.73 73.7297C559.526 73.9331 559.526 74.2453 559.73 74.4487L560.379 75.0981C560.386 75.1049 560.392 75.112 560.399 75.1192C560.538 75.2822 560.882 75.3138 561.098 75.0981C561.302 74.8948 561.302 74.5825 561.098 74.3791L560.449 73.7297ZM559.2 73.1998C559.696 72.7038 560.483 72.7038 560.979 73.1998L561.628 73.8493C562.124 74.3453 562.124 75.132 561.628 75.628C561.148 76.1081 560.302 76.1428 559.84 75.6189L559.2 74.9786C558.704 74.4826 558.704 73.6958 559.2 73.1998Z" fill="#939393"/>
<rect x="535.5" y="51.5" width="199" height="35" rx="1.5" stroke="#C9C9C9"/>
<path d="M775 79.5C769.201 79.5 764.5 74.799 764.5 69C764.5 63.201 769.201 58.5 775 58.5C780.799 58.5 785.5 63.201 785.5 69C785.5 74.799 780.799 79.5 775 79.5Z" fill="#C9C9C9"/>
<path d="M823 79.5C817.201 79.5 812.5 74.799 812.5 69C812.5 63.201 817.201 58.5 823 58.5C828.799 58.5 833.5 63.201 833.5 69C833.5 74.799 828.799 79.5 823 79.5Z" fill="#C9C9C9"/>
<circle cx="880" cy="69" r="20" fill="white"/>
<g clip-path="url(#clip3_9706_736823)">
<path d="M868.571 85.413V83.0845C868.571 80.0534 869.776 77.1465 871.919 75.0032C874.062 72.86 876.969 71.6559 880 71.6559C883.031 71.6559 885.938 72.86 888.081 75.0032C890.224 77.1465 891.429 80.0534 891.429 83.0845V85.413C894.923 82.98 897.549 79.4952 898.926 75.466C900.303 71.4368 900.357 67.0734 899.082 63.0109C897.807 58.9484 895.269 55.3988 891.837 52.8789C888.405 50.3589 884.258 49 880 49C875.742 49 871.595 50.3589 868.163 52.8789C864.731 55.3988 862.193 58.9484 860.918 63.0109C859.643 67.0734 859.697 71.4368 861.074 75.466C862.451 79.4952 865.077 82.98 868.571 85.413ZM880 55.6273C881.297 55.6273 882.565 56.0119 883.643 56.7324C884.721 57.4529 885.562 58.477 886.058 59.6752C886.554 60.8733 886.684 62.1917 886.431 63.4637C886.178 64.7357 885.554 65.904 884.637 66.8211C883.72 67.7381 882.551 68.3626 881.279 68.6156C880.007 68.8686 878.689 68.7388 877.491 68.2425C876.293 67.7462 875.268 66.9057 874.548 65.8274C873.827 64.7491 873.443 63.4813 873.443 62.1845C873.447 60.4466 874.139 58.7809 875.368 57.552C876.596 56.3231 878.262 55.6311 880 55.6273Z" fill="#C9C9C9"/>
</g>
</g>
<rect width="680" height="516" transform="translate(236 98)" fill="#F1F1F1"/>
<rect x="244.5" y="106.5" width="663" height="499" rx="3.5" fill="white"/>
<rect x="244.5" y="106.5" width="663" height="499" rx="3.5" stroke="#C9C9C9"/>
</g>
<rect x="36.5" y="40.5" width="879" height="573" rx="7.5" stroke="#C9C9C9"/>
<path d="M276.114 147.677C275.977 147.677 275.84 147.609 275.771 147.54L268.023 139.86C267.954 139.791 267.886 139.654 267.886 139.517C267.886 139.38 267.954 139.243 268.023 139.174L275.703 131.426C275.909 131.22 276.251 131.22 276.457 131.426C276.663 131.631 276.663 131.974 276.457 132.18L269.12 139.517L276.457 146.854C276.663 147.06 276.663 147.403 276.457 147.609C276.32 147.677 276.251 147.677 276.114 147.677Z" fill="#323232"/>
<rect width="80" height="35" transform="translate(284 122)" fill="white"/>
<path d="M314.439 134.97C313.366 134.97 312.521 135.329 311.905 136.048C311.289 136.767 310.981 137.751 310.981 139.002C310.981 140.243 311.266 141.228 311.835 141.956C312.414 142.675 313.277 143.034 314.425 143.034C314.854 143.034 315.265 142.997 315.657 142.922C316.049 142.847 316.436 142.754 316.819 142.642V143.734C316.446 143.874 316.058 143.977 315.657 144.042C315.265 144.107 314.794 144.14 314.243 144.14C313.226 144.14 312.376 143.93 311.695 143.51C311.014 143.09 310.5 142.493 310.155 141.718C309.819 140.943 309.651 140.033 309.651 138.988C309.651 137.98 309.833 137.093 310.197 136.328C310.57 135.553 311.116 134.951 311.835 134.522C312.554 134.083 313.426 133.864 314.453 133.864C315.508 133.864 316.427 134.06 317.211 134.452L316.707 135.516C316.399 135.376 316.054 135.25 315.671 135.138C315.298 135.026 314.887 134.97 314.439 134.97ZM320.065 133.36V136.482C320.065 136.855 320.041 137.205 319.995 137.532H320.079C320.321 137.149 320.648 136.86 321.059 136.664C321.479 136.468 321.931 136.37 322.417 136.37C323.322 136.37 324.003 136.589 324.461 137.028C324.927 137.457 325.161 138.153 325.161 139.114V144H323.943V139.198C323.943 137.994 323.383 137.392 322.263 137.392C321.423 137.392 320.844 137.63 320.527 138.106C320.219 138.573 320.065 139.245 320.065 140.122V144H318.833V133.36H320.065ZM330.329 136.37C331.244 136.37 331.92 136.571 332.359 136.972C332.798 137.373 333.017 138.013 333.017 138.89V144H332.121L331.883 142.936H331.827C331.5 143.347 331.155 143.65 330.791 143.846C330.427 144.042 329.932 144.14 329.307 144.14C328.626 144.14 328.061 143.963 327.613 143.608C327.165 143.244 326.941 142.679 326.941 141.914C326.941 141.167 327.235 140.593 327.823 140.192C328.411 139.781 329.316 139.557 330.539 139.52L331.813 139.478V139.03C331.813 138.405 331.678 137.971 331.407 137.728C331.136 137.485 330.754 137.364 330.259 137.364C329.867 137.364 329.494 137.425 329.139 137.546C328.784 137.658 328.453 137.789 328.145 137.938L327.767 137.014C328.094 136.837 328.481 136.687 328.929 136.566C329.377 136.435 329.844 136.37 330.329 136.37ZM331.799 140.332L330.693 140.374C329.76 140.411 329.111 140.561 328.747 140.822C328.392 141.083 328.215 141.452 328.215 141.928C328.215 142.348 328.341 142.656 328.593 142.852C328.854 143.048 329.186 143.146 329.587 143.146C330.212 143.146 330.735 142.973 331.155 142.628C331.584 142.273 331.799 141.732 331.799 141.004V140.332ZM337.841 143.132C338.027 143.132 338.219 143.118 338.415 143.09C338.611 143.062 338.769 143.025 338.891 142.978V143.916C338.76 143.981 338.573 144.033 338.331 144.07C338.088 144.117 337.855 144.14 337.631 144.14C337.239 144.14 336.875 144.075 336.539 143.944C336.212 143.804 335.946 143.566 335.741 143.23C335.535 142.894 335.433 142.423 335.433 141.816V137.448H334.369V136.86L335.447 136.37L335.937 134.774H336.665V136.496H338.835V137.448H336.665V141.788C336.665 142.245 336.772 142.586 336.987 142.81C337.211 143.025 337.495 143.132 337.841 143.132Z" fill="#323232"/>
<rect width="78" height="35" transform="translate(364 122)" fill="white"/>
<path d="M392.375 134.004C393.672 134.004 394.615 134.275 395.203 134.816C395.8 135.348 396.099 136.095 396.099 137.056C396.099 137.625 395.977 138.157 395.735 138.652C395.492 139.147 395.081 139.548 394.503 139.856C393.933 140.164 393.159 140.318 392.179 140.318H391.185V144H389.393V134.004H392.375ZM392.263 135.488H391.185V138.834H391.997C392.725 138.834 393.285 138.703 393.677 138.442C394.078 138.171 394.279 137.733 394.279 137.126C394.279 136.575 394.115 136.165 393.789 135.894C393.462 135.623 392.953 135.488 392.263 135.488ZM404.669 140.192C404.669 141.452 404.342 142.427 403.689 143.118C403.035 143.799 402.149 144.14 401.029 144.14C400.338 144.14 399.722 143.986 399.181 143.678C398.639 143.37 398.215 142.922 397.907 142.334C397.599 141.746 397.445 141.032 397.445 140.192C397.445 138.932 397.767 137.966 398.411 137.294C399.064 136.613 399.951 136.272 401.071 136.272C401.771 136.272 402.391 136.426 402.933 136.734C403.474 137.033 403.899 137.476 404.207 138.064C404.515 138.643 404.669 139.352 404.669 140.192ZM399.251 140.192C399.251 140.995 399.391 141.615 399.671 142.054C399.96 142.493 400.422 142.712 401.057 142.712C401.682 142.712 402.139 142.493 402.429 142.054C402.718 141.615 402.863 140.995 402.863 140.192C402.863 139.389 402.718 138.773 402.429 138.344C402.139 137.915 401.677 137.7 401.043 137.7C400.408 137.7 399.951 137.915 399.671 138.344C399.391 138.773 399.251 139.389 399.251 140.192ZM411.658 141.802C411.658 142.567 411.383 143.151 410.832 143.552C410.291 143.944 409.512 144.14 408.494 144.14C407.962 144.14 407.505 144.103 407.122 144.028C406.749 143.953 406.385 143.837 406.03 143.678V142.18C406.404 142.357 406.814 142.507 407.262 142.628C407.72 142.749 408.149 142.81 408.55 142.81C409.036 142.81 409.386 142.735 409.6 142.586C409.815 142.437 409.922 142.236 409.922 141.984C409.922 141.835 409.88 141.704 409.796 141.592C409.712 141.471 409.549 141.34 409.306 141.2C409.064 141.06 408.695 140.887 408.2 140.682C407.715 140.486 407.309 140.29 406.982 140.094C406.665 139.898 406.422 139.665 406.254 139.394C406.096 139.123 406.016 138.773 406.016 138.344C406.016 137.663 406.287 137.149 406.828 136.804C407.37 136.449 408.084 136.272 408.97 136.272C409.437 136.272 409.876 136.319 410.286 136.412C410.706 136.505 411.126 136.645 411.546 136.832L410.986 138.134C410.632 137.985 410.286 137.859 409.95 137.756C409.614 137.653 409.269 137.602 408.914 137.602C408.14 137.602 407.752 137.821 407.752 138.26C407.752 138.419 407.799 138.554 407.892 138.666C407.995 138.778 408.168 138.899 408.41 139.03C408.662 139.151 409.017 139.301 409.474 139.478C409.922 139.655 410.31 139.842 410.636 140.038C410.963 140.225 411.215 140.458 411.392 140.738C411.57 141.009 411.658 141.363 411.658 141.802ZM416.296 142.726C416.51 142.726 416.72 142.707 416.926 142.67C417.14 142.623 417.336 142.572 417.514 142.516V143.832C417.327 143.925 417.084 144 416.786 144.056C416.487 144.112 416.174 144.14 415.848 144.14C415.409 144.14 415.012 144.07 414.658 143.93C414.312 143.79 414.037 143.543 413.832 143.188C413.626 142.833 413.524 142.334 413.524 141.69V137.742H412.502V136.972L413.622 136.356L414.182 134.746H415.288V136.412H417.444V137.742H415.288V141.676C415.288 142.031 415.381 142.297 415.568 142.474C415.764 142.642 416.006 142.726 416.296 142.726Z" fill="#1B77AF"/>
<rect x="364" y="155" width="78" height="2" fill="#1B77AF"/>
<rect width="86" height="35" transform="translate(442 122)" fill="white"/>
<path d="M471.831 144H470.571V135.11H467.449V134.004H474.939V135.11H471.831V144ZM477.999 136.37C478.913 136.37 479.59 136.571 480.029 136.972C480.467 137.373 480.687 138.013 480.687 138.89V144H479.791L479.553 142.936H479.497C479.17 143.347 478.825 143.65 478.461 143.846C478.097 144.042 477.602 144.14 476.977 144.14C476.295 144.14 475.731 143.963 475.283 143.608C474.835 143.244 474.611 142.679 474.611 141.914C474.611 141.167 474.905 140.593 475.493 140.192C476.081 139.781 476.986 139.557 478.209 139.52L479.483 139.478V139.03C479.483 138.405 479.347 137.971 479.077 137.728C478.806 137.485 478.423 137.364 477.929 137.364C477.537 137.364 477.163 137.425 476.809 137.546C476.454 137.658 476.123 137.789 475.815 137.938L475.437 137.014C475.763 136.837 476.151 136.687 476.599 136.566C477.047 136.435 477.513 136.37 477.999 136.37ZM479.469 140.332L478.363 140.374C477.429 140.411 476.781 140.561 476.417 140.822C476.062 141.083 475.885 141.452 475.885 141.928C475.885 142.348 476.011 142.656 476.263 142.852C476.524 143.048 476.855 143.146 477.257 143.146C477.882 143.146 478.405 142.973 478.825 142.628C479.254 142.273 479.469 141.732 479.469 141.004V140.332ZM487.89 141.928C487.89 142.656 487.62 143.207 487.078 143.58C486.537 143.953 485.809 144.14 484.894 144.14C484.372 144.14 483.919 144.098 483.536 144.014C483.163 143.93 482.832 143.813 482.542 143.664V142.544C482.841 142.693 483.2 142.833 483.62 142.964C484.05 143.085 484.484 143.146 484.922 143.146C485.548 143.146 486 143.048 486.28 142.852C486.56 142.647 486.7 142.376 486.7 142.04C486.7 141.853 486.649 141.685 486.546 141.536C486.444 141.387 486.257 141.237 485.986 141.088C485.725 140.939 485.347 140.771 484.852 140.584C484.367 140.397 483.952 140.211 483.606 140.024C483.261 139.837 482.995 139.613 482.808 139.352C482.622 139.091 482.528 138.755 482.528 138.344C482.528 137.709 482.785 137.219 483.298 136.874C483.821 136.529 484.502 136.356 485.342 136.356C485.8 136.356 486.224 136.403 486.616 136.496C487.018 136.589 487.391 136.711 487.736 136.86L487.316 137.84C486.999 137.709 486.668 137.597 486.322 137.504C485.977 137.411 485.622 137.364 485.258 137.364C484.754 137.364 484.367 137.448 484.096 137.616C483.835 137.775 483.704 137.994 483.704 138.274C483.704 138.489 483.765 138.666 483.886 138.806C484.008 138.946 484.208 139.086 484.488 139.226C484.778 139.366 485.16 139.525 485.636 139.702C486.112 139.879 486.518 140.061 486.854 140.248C487.19 140.435 487.447 140.663 487.624 140.934C487.802 141.195 487.89 141.527 487.89 141.928ZM490.922 133.36V138.918C490.922 139.067 490.912 139.263 490.894 139.506C490.884 139.749 490.875 139.959 490.866 140.136H490.922C490.978 140.061 491.062 139.954 491.174 139.814C491.286 139.674 491.398 139.534 491.51 139.394C491.631 139.245 491.734 139.123 491.818 139.03L494.212 136.496H495.654L492.616 139.702L495.864 144H494.38L491.776 140.5L490.922 141.242V144H489.704V133.36H490.922ZM502.068 141.928C502.068 142.656 501.798 143.207 501.256 143.58C500.715 143.953 499.987 144.14 499.072 144.14C498.55 144.14 498.097 144.098 497.714 144.014C497.341 143.93 497.01 143.813 496.72 143.664V142.544C497.019 142.693 497.378 142.833 497.798 142.964C498.228 143.085 498.662 143.146 499.1 143.146C499.726 143.146 500.178 143.048 500.458 142.852C500.738 142.647 500.878 142.376 500.878 142.04C500.878 141.853 500.827 141.685 500.724 141.536C500.622 141.387 500.435 141.237 500.164 141.088C499.903 140.939 499.525 140.771 499.03 140.584C498.545 140.397 498.13 140.211 497.784 140.024C497.439 139.837 497.173 139.613 496.986 139.352C496.8 139.091 496.706 138.755 496.706 138.344C496.706 137.709 496.963 137.219 497.476 136.874C497.999 136.529 498.68 136.356 499.52 136.356C499.978 136.356 500.402 136.403 500.794 136.496C501.196 136.589 501.569 136.711 501.914 136.86L501.494 137.84C501.177 137.709 500.846 137.597 500.5 137.504C500.155 137.411 499.8 137.364 499.436 137.364C498.932 137.364 498.545 137.448 498.274 137.616C498.013 137.775 497.882 137.994 497.882 138.274C497.882 138.489 497.943 138.666 498.064 138.806C498.186 138.946 498.386 139.086 498.666 139.226C498.956 139.366 499.338 139.525 499.814 139.702C500.29 139.879 500.696 140.061 501.032 140.248C501.368 140.435 501.625 140.663 501.802 140.934C501.98 141.195 502.068 141.527 502.068 141.928Z" fill="#323232"/>
<rect width="112" height="35" transform="translate(528 122)" fill="white"/>
<path d="M559.198 144L555.908 135.236H555.852C555.88 135.525 555.903 135.917 555.922 136.412C555.94 136.897 555.95 137.406 555.95 137.938V144H554.788V134.004H556.65L559.73 142.194H559.786L562.922 134.004H564.77V144H563.524V137.854C563.524 137.369 563.533 136.888 563.552 136.412C563.58 135.936 563.603 135.549 563.622 135.25H563.566L560.234 144H559.198ZM570.219 136.356C570.854 136.356 571.404 136.496 571.871 136.776C572.338 137.056 572.692 137.453 572.935 137.966C573.187 138.47 573.313 139.063 573.313 139.744V140.486H568.175C568.194 141.335 568.408 141.984 568.819 142.432C569.239 142.871 569.822 143.09 570.569 143.09C571.045 143.09 571.465 143.048 571.829 142.964C572.202 142.871 572.585 142.74 572.977 142.572V143.65C572.594 143.818 572.216 143.939 571.843 144.014C571.47 144.098 571.026 144.14 570.513 144.14C569.794 144.14 569.164 143.995 568.623 143.706C568.082 143.417 567.657 142.987 567.349 142.418C567.05 141.849 566.901 141.144 566.901 140.304C566.901 139.483 567.036 138.778 567.307 138.19C567.587 137.602 567.974 137.149 568.469 136.832C568.973 136.515 569.556 136.356 570.219 136.356ZM570.205 137.364C569.617 137.364 569.15 137.555 568.805 137.938C568.469 138.311 568.268 138.834 568.203 139.506H572.025C572.016 138.871 571.866 138.358 571.577 137.966C571.288 137.565 570.83 137.364 570.205 137.364ZM578.121 136.356C578.756 136.356 579.307 136.496 579.773 136.776C580.24 137.056 580.595 137.453 580.837 137.966C581.089 138.47 581.215 139.063 581.215 139.744V140.486H576.077C576.096 141.335 576.311 141.984 576.721 142.432C577.141 142.871 577.725 143.09 578.471 143.09C578.947 143.09 579.367 143.048 579.731 142.964C580.105 142.871 580.487 142.74 580.879 142.572V143.65C580.497 143.818 580.119 143.939 579.745 144.014C579.372 144.098 578.929 144.14 578.415 144.14C577.697 144.14 577.067 143.995 576.525 143.706C575.984 143.417 575.559 142.987 575.251 142.418C574.953 141.849 574.803 141.144 574.803 140.304C574.803 139.483 574.939 138.778 575.209 138.19C575.489 137.602 575.877 137.149 576.371 136.832C576.875 136.515 577.459 136.356 578.121 136.356ZM578.107 137.364C577.519 137.364 577.053 137.555 576.707 137.938C576.371 138.311 576.171 138.834 576.105 139.506H579.927C579.918 138.871 579.769 138.358 579.479 137.966C579.19 137.565 578.733 137.364 578.107 137.364ZM585.632 143.132C585.818 143.132 586.01 143.118 586.206 143.09C586.402 143.062 586.56 143.025 586.682 142.978V143.916C586.551 143.981 586.364 144.033 586.122 144.07C585.879 144.117 585.646 144.14 585.422 144.14C585.03 144.14 584.666 144.075 584.33 143.944C584.003 143.804 583.737 143.566 583.532 143.23C583.326 142.894 583.224 142.423 583.224 141.816V137.448H582.16V136.86L583.238 136.37L583.728 134.774H584.456V136.496H586.626V137.448H584.456V141.788C584.456 142.245 584.563 142.586 584.778 142.81C585.002 143.025 585.286 143.132 585.632 143.132ZM588.814 133.682C589.001 133.682 589.164 133.747 589.304 133.878C589.453 133.999 589.528 134.195 589.528 134.466C589.528 134.737 589.453 134.937 589.304 135.068C589.164 135.189 589.001 135.25 588.814 135.25C588.609 135.25 588.436 135.189 588.296 135.068C588.156 134.937 588.086 134.737 588.086 134.466C588.086 134.195 588.156 133.999 588.296 133.878C588.436 133.747 588.609 133.682 588.814 133.682ZM589.416 136.496V144H588.184V136.496H589.416ZM595.406 136.356C596.302 136.356 596.978 136.575 597.436 137.014C597.893 137.453 598.122 138.153 598.122 139.114V144H596.904V139.198C596.904 137.994 596.344 137.392 595.224 137.392C594.393 137.392 593.819 137.625 593.502 138.092C593.184 138.559 593.026 139.231 593.026 140.108V144H591.794V136.496H592.788L592.97 137.518H593.04C593.282 137.126 593.618 136.837 594.048 136.65C594.477 136.454 594.93 136.356 595.406 136.356ZM603.108 136.356C603.602 136.356 604.046 136.449 604.438 136.636C604.839 136.823 605.18 137.107 605.46 137.49H605.53L605.698 136.496H606.678V144.126C606.678 145.199 606.402 146.007 605.852 146.548C605.31 147.089 604.466 147.36 603.318 147.36C602.216 147.36 601.316 147.201 600.616 146.884V145.75C601.353 146.142 602.277 146.338 603.388 146.338C604.032 146.338 604.536 146.147 604.9 145.764C605.273 145.391 605.46 144.877 605.46 144.224V143.93C605.46 143.818 605.464 143.659 605.474 143.454C605.483 143.239 605.492 143.09 605.502 143.006H605.446C604.942 143.762 604.167 144.14 603.122 144.14C602.151 144.14 601.39 143.799 600.84 143.118C600.298 142.437 600.028 141.485 600.028 140.262C600.028 139.067 600.298 138.12 600.84 137.42C601.39 136.711 602.146 136.356 603.108 136.356ZM603.276 137.392C602.65 137.392 602.165 137.644 601.82 138.148C601.474 138.643 601.302 139.352 601.302 140.276C601.302 141.2 601.47 141.909 601.806 142.404C602.142 142.889 602.641 143.132 603.304 143.132C604.06 143.132 604.61 142.931 604.956 142.53C605.301 142.119 605.474 141.461 605.474 140.556V140.262C605.474 139.245 605.296 138.512 604.942 138.064C604.587 137.616 604.032 137.392 603.276 137.392ZM613.947 141.928C613.947 142.656 613.676 143.207 613.135 143.58C612.594 143.953 611.866 144.14 610.951 144.14C610.428 144.14 609.976 144.098 609.593 144.014C609.22 143.93 608.888 143.813 608.599 143.664V142.544C608.898 142.693 609.257 142.833 609.677 142.964C610.106 143.085 610.54 143.146 610.979 143.146C611.604 143.146 612.057 143.048 612.337 142.852C612.617 142.647 612.757 142.376 612.757 142.04C612.757 141.853 612.706 141.685 612.603 141.536C612.5 141.387 612.314 141.237 612.043 141.088C611.782 140.939 611.404 140.771 610.909 140.584C610.424 140.397 610.008 140.211 609.663 140.024C609.318 139.837 609.052 139.613 608.865 139.352C608.678 139.091 608.585 138.755 608.585 138.344C608.585 137.709 608.842 137.219 609.355 136.874C609.878 136.529 610.559 136.356 611.399 136.356C611.856 136.356 612.281 136.403 612.673 136.496C613.074 136.589 613.448 136.711 613.793 136.86L613.373 137.84C613.056 137.709 612.724 137.597 612.379 137.504C612.034 137.411 611.679 137.364 611.315 137.364C610.811 137.364 610.424 137.448 610.153 137.616C609.892 137.775 609.761 137.994 609.761 138.274C609.761 138.489 609.822 138.666 609.943 138.806C610.064 138.946 610.265 139.086 610.545 139.226C610.834 139.366 611.217 139.525 611.693 139.702C612.169 139.879 612.575 140.061 612.911 140.248C613.247 140.435 613.504 140.663 613.681 140.934C613.858 141.195 613.947 141.527 613.947 141.928Z" fill="#323232"/>
<rect width="160" height="35" transform="translate(640 122)" fill="white"/>
<path d="M675.499 138.904C675.499 140.593 675.037 141.867 674.113 142.726C673.198 143.575 671.919 144 670.277 144H667.491V134.004H670.571C671.569 134.004 672.437 134.191 673.175 134.564C673.921 134.937 674.495 135.488 674.897 136.216C675.298 136.944 675.499 137.84 675.499 138.904ZM674.169 138.946C674.169 137.611 673.837 136.636 673.175 136.02C672.521 135.395 671.593 135.082 670.389 135.082H668.751V142.922H670.109C672.815 142.922 674.169 141.597 674.169 138.946ZM678.179 133.682C678.366 133.682 678.529 133.747 678.669 133.878C678.819 133.999 678.893 134.195 678.893 134.466C678.893 134.737 678.819 134.937 678.669 135.068C678.529 135.189 678.366 135.25 678.179 135.25C677.974 135.25 677.801 135.189 677.661 135.068C677.521 134.937 677.451 134.737 677.451 134.466C677.451 134.195 677.521 133.999 677.661 133.878C677.801 133.747 677.974 133.682 678.179 133.682ZM678.781 136.496V144H677.549V136.496H678.781ZM684.659 136.356C684.799 136.356 684.948 136.365 685.107 136.384C685.265 136.393 685.41 136.412 685.541 136.44L685.387 137.574C685.265 137.546 685.13 137.523 684.981 137.504C684.831 137.485 684.696 137.476 684.575 137.476C684.192 137.476 683.833 137.583 683.497 137.798C683.161 138.003 682.89 138.297 682.685 138.68C682.489 139.053 682.391 139.492 682.391 139.996V144H681.159V136.496H682.167L682.307 137.868H682.363C682.596 137.457 682.904 137.103 683.287 136.804C683.679 136.505 684.136 136.356 684.659 136.356ZM689.567 136.356C690.201 136.356 690.752 136.496 691.219 136.776C691.685 137.056 692.04 137.453 692.283 137.966C692.535 138.47 692.661 139.063 692.661 139.744V140.486H687.523C687.541 141.335 687.756 141.984 688.167 142.432C688.587 142.871 689.17 143.09 689.917 143.09C690.393 143.09 690.813 143.048 691.177 142.964C691.55 142.871 691.933 142.74 692.325 142.572V143.65C691.942 143.818 691.564 143.939 691.191 144.014C690.817 144.098 690.374 144.14 689.861 144.14C689.142 144.14 688.512 143.995 687.971 143.706C687.429 143.417 687.005 142.987 686.697 142.418C686.398 141.849 686.249 141.144 686.249 140.304C686.249 139.483 686.384 138.778 686.655 138.19C686.935 137.602 687.322 137.149 687.817 136.832C688.321 136.515 688.904 136.356 689.567 136.356ZM689.553 137.364C688.965 137.364 688.498 137.555 688.153 137.938C687.817 138.311 687.616 138.834 687.551 139.506H691.373C691.363 138.871 691.214 138.358 690.925 137.966C690.635 137.565 690.178 137.364 689.553 137.364ZM697.581 144.14C696.909 144.14 696.316 144.005 695.803 143.734C695.29 143.463 694.884 143.043 694.585 142.474C694.296 141.905 694.151 141.177 694.151 140.29C694.151 139.366 694.3 138.615 694.599 138.036C694.907 137.457 695.327 137.033 695.859 136.762C696.391 136.491 696.993 136.356 697.665 136.356C698.038 136.356 698.402 136.398 698.757 136.482C699.121 136.557 699.415 136.65 699.639 136.762L699.261 137.784C699.037 137.7 698.776 137.621 698.477 137.546C698.178 137.471 697.898 137.434 697.637 137.434C696.162 137.434 695.425 138.381 695.425 140.276C695.425 141.181 695.602 141.877 695.957 142.362C696.321 142.838 696.858 143.076 697.567 143.076C697.968 143.076 698.328 143.034 698.645 142.95C698.962 142.866 699.252 142.763 699.513 142.642V143.734C699.261 143.865 698.981 143.963 698.673 144.028C698.374 144.103 698.01 144.14 697.581 144.14ZM703.803 143.132C703.99 143.132 704.181 143.118 704.377 143.09C704.573 143.062 704.732 143.025 704.853 142.978V143.916C704.723 143.981 704.536 144.033 704.293 144.07C704.051 144.117 703.817 144.14 703.593 144.14C703.201 144.14 702.837 144.075 702.501 143.944C702.175 143.804 701.909 143.566 701.703 143.23C701.498 142.894 701.395 142.423 701.395 141.816V137.448H700.331V136.86L701.409 136.37L701.899 134.774H702.627V136.496H704.797V137.448H702.627V141.788C702.627 142.245 702.735 142.586 702.949 142.81C703.173 143.025 703.458 143.132 703.803 143.132ZM714.571 144L711.281 135.236H711.225C711.253 135.525 711.276 135.917 711.295 136.412C711.313 136.897 711.323 137.406 711.323 137.938V144H710.161V134.004H712.023L715.103 142.194H715.159L718.295 134.004H720.143V144H718.897V137.854C718.897 137.369 718.906 136.888 718.925 136.412C718.953 135.936 718.976 135.549 718.995 135.25H718.939L715.607 144H714.571ZM725.592 136.356C726.227 136.356 726.777 136.496 727.244 136.776C727.711 137.056 728.065 137.453 728.308 137.966C728.56 138.47 728.686 139.063 728.686 139.744V140.486H723.548C723.567 141.335 723.781 141.984 724.192 142.432C724.612 142.871 725.195 143.09 725.942 143.09C726.418 143.09 726.838 143.048 727.202 142.964C727.575 142.871 727.958 142.74 728.35 142.572V143.65C727.967 143.818 727.589 143.939 727.216 144.014C726.843 144.098 726.399 144.14 725.886 144.14C725.167 144.14 724.537 143.995 723.996 143.706C723.455 143.417 723.03 142.987 722.722 142.418C722.423 141.849 722.274 141.144 722.274 140.304C722.274 139.483 722.409 138.778 722.68 138.19C722.96 137.602 723.347 137.149 723.842 136.832C724.346 136.515 724.929 136.356 725.592 136.356ZM725.578 137.364C724.99 137.364 724.523 137.555 724.178 137.938C723.842 138.311 723.641 138.834 723.576 139.506H727.398C727.389 138.871 727.239 138.358 726.95 137.966C726.661 137.565 726.203 137.364 725.578 137.364ZM735.482 141.928C735.482 142.656 735.212 143.207 734.67 143.58C734.129 143.953 733.401 144.14 732.486 144.14C731.964 144.14 731.511 144.098 731.128 144.014C730.755 143.93 730.424 143.813 730.134 143.664V142.544C730.433 142.693 730.792 142.833 731.212 142.964C731.642 143.085 732.076 143.146 732.514 143.146C733.14 143.146 733.592 143.048 733.872 142.852C734.152 142.647 734.292 142.376 734.292 142.04C734.292 141.853 734.241 141.685 734.138 141.536C734.036 141.387 733.849 141.237 733.578 141.088C733.317 140.939 732.939 140.771 732.444 140.584C731.959 140.397 731.544 140.211 731.198 140.024C730.853 139.837 730.587 139.613 730.4 139.352C730.214 139.091 730.12 138.755 730.12 138.344C730.12 137.709 730.377 137.219 730.89 136.874C731.413 136.529 732.094 136.356 732.934 136.356C733.392 136.356 733.816 136.403 734.208 136.496C734.61 136.589 734.983 136.711 735.328 136.86L734.908 137.84C734.591 137.709 734.26 137.597 733.914 137.504C733.569 137.411 733.214 137.364 732.85 137.364C732.346 137.364 731.959 137.448 731.688 137.616C731.427 137.775 731.296 137.994 731.296 138.274C731.296 138.489 731.357 138.666 731.478 138.806C731.6 138.946 731.8 139.086 732.08 139.226C732.37 139.366 732.752 139.525 733.228 139.702C733.704 139.879 734.11 140.061 734.446 140.248C734.782 140.435 735.039 140.663 735.216 140.934C735.394 141.195 735.482 141.527 735.482 141.928ZM742.181 141.928C742.181 142.656 741.911 143.207 741.369 143.58C740.828 143.953 740.1 144.14 739.185 144.14C738.663 144.14 738.21 144.098 737.827 144.014C737.454 143.93 737.123 143.813 736.833 143.664V142.544C737.132 142.693 737.491 142.833 737.911 142.964C738.341 143.085 738.775 143.146 739.213 143.146C739.839 143.146 740.291 143.048 740.571 142.852C740.851 142.647 740.991 142.376 740.991 142.04C740.991 141.853 740.94 141.685 740.837 141.536C740.735 141.387 740.548 141.237 740.277 141.088C740.016 140.939 739.638 140.771 739.143 140.584C738.658 140.397 738.243 140.211 737.897 140.024C737.552 139.837 737.286 139.613 737.099 139.352C736.913 139.091 736.819 138.755 736.819 138.344C736.819 137.709 737.076 137.219 737.589 136.874C738.112 136.529 738.793 136.356 739.633 136.356C740.091 136.356 740.515 136.403 740.907 136.496C741.309 136.589 741.682 136.711 742.027 136.86L741.607 137.84C741.29 137.709 740.959 137.597 740.613 137.504C740.268 137.411 739.913 137.364 739.549 137.364C739.045 137.364 738.658 137.448 738.387 137.616C738.126 137.775 737.995 137.994 737.995 138.274C737.995 138.489 738.056 138.666 738.177 138.806C738.299 138.946 738.499 139.086 738.779 139.226C739.069 139.366 739.451 139.525 739.927 139.702C740.403 139.879 740.809 140.061 741.145 140.248C741.481 140.435 741.738 140.663 741.915 140.934C742.093 141.195 742.181 141.527 742.181 141.928ZM746.837 136.37C747.751 136.37 748.428 136.571 748.867 136.972C749.305 137.373 749.525 138.013 749.525 138.89V144H748.629L748.391 142.936H748.335C748.008 143.347 747.663 143.65 747.299 143.846C746.935 144.042 746.44 144.14 745.815 144.14C745.133 144.14 744.569 143.963 744.121 143.608C743.673 143.244 743.449 142.679 743.449 141.914C743.449 141.167 743.743 140.593 744.331 140.192C744.919 139.781 745.824 139.557 747.047 139.52L748.321 139.478V139.03C748.321 138.405 748.185 137.971 747.915 137.728C747.644 137.485 747.261 137.364 746.767 137.364C746.375 137.364 746.001 137.425 745.647 137.546C745.292 137.658 744.961 137.789 744.653 137.938L744.275 137.014C744.601 136.837 744.989 136.687 745.437 136.566C745.885 136.435 746.351 136.37 746.837 136.37ZM748.307 140.332L747.201 140.374C746.267 140.411 745.619 140.561 745.255 140.822C744.9 141.083 744.723 141.452 744.723 141.928C744.723 142.348 744.849 142.656 745.101 142.852C745.362 143.048 745.693 143.146 746.095 143.146C746.72 143.146 747.243 142.973 747.663 142.628C748.092 142.273 748.307 141.732 748.307 141.004V140.332ZM754.502 136.356C754.997 136.356 755.44 136.449 755.832 136.636C756.234 136.823 756.574 137.107 756.854 137.49H756.924L757.092 136.496H758.072V144.126C758.072 145.199 757.797 146.007 757.246 146.548C756.705 147.089 755.86 147.36 754.712 147.36C753.611 147.36 752.71 147.201 752.01 146.884V145.75C752.748 146.142 753.672 146.338 754.782 146.338C755.426 146.338 755.93 146.147 756.294 145.764C756.668 145.391 756.854 144.877 756.854 144.224V143.93C756.854 143.818 756.859 143.659 756.868 143.454C756.878 143.239 756.887 143.09 756.896 143.006H756.84C756.336 143.762 755.562 144.14 754.516 144.14C753.546 144.14 752.785 143.799 752.234 143.118C751.693 142.437 751.422 141.485 751.422 140.262C751.422 139.067 751.693 138.12 752.234 137.42C752.785 136.711 753.541 136.356 754.502 136.356ZM754.67 137.392C754.045 137.392 753.56 137.644 753.214 138.148C752.869 138.643 752.696 139.352 752.696 140.276C752.696 141.2 752.864 141.909 753.2 142.404C753.536 142.889 754.036 143.132 754.698 143.132C755.454 143.132 756.005 142.931 756.35 142.53C756.696 142.119 756.868 141.461 756.868 140.556V140.262C756.868 139.245 756.691 138.512 756.336 138.064C755.982 137.616 755.426 137.392 754.67 137.392ZM763.354 136.356C763.988 136.356 764.539 136.496 765.006 136.776C765.472 137.056 765.827 137.453 766.07 137.966C766.322 138.47 766.448 139.063 766.448 139.744V140.486H761.31C761.328 141.335 761.543 141.984 761.954 142.432C762.374 142.871 762.957 143.09 763.704 143.09C764.18 143.09 764.6 143.048 764.964 142.964C765.337 142.871 765.72 142.74 766.112 142.572V143.65C765.729 143.818 765.351 143.939 764.978 144.014C764.604 144.098 764.161 144.14 763.648 144.14C762.929 144.14 762.299 143.995 761.758 143.706C761.216 143.417 760.792 142.987 760.484 142.418C760.185 141.849 760.036 141.144 760.036 140.304C760.036 139.483 760.171 138.778 760.442 138.19C760.722 137.602 761.109 137.149 761.604 136.832C762.108 136.515 762.691 136.356 763.354 136.356ZM763.34 137.364C762.752 137.364 762.285 137.555 761.94 137.938C761.604 138.311 761.403 138.834 761.338 139.506H765.16C765.15 138.871 765.001 138.358 764.712 137.966C764.422 137.565 763.965 137.364 763.34 137.364ZM773.244 141.928C773.244 142.656 772.973 143.207 772.432 143.58C771.891 143.953 771.163 144.14 770.248 144.14C769.725 144.14 769.273 144.098 768.89 144.014C768.517 143.93 768.185 143.813 767.896 143.664V142.544C768.195 142.693 768.554 142.833 768.974 142.964C769.403 143.085 769.837 143.146 770.276 143.146C770.901 143.146 771.354 143.048 771.634 142.852C771.914 142.647 772.054 142.376 772.054 142.04C772.054 141.853 772.003 141.685 771.9 141.536C771.797 141.387 771.611 141.237 771.34 141.088C771.079 140.939 770.701 140.771 770.206 140.584C769.721 140.397 769.305 140.211 768.96 140.024C768.615 139.837 768.349 139.613 768.162 139.352C767.975 139.091 767.882 138.755 767.882 138.344C767.882 137.709 768.139 137.219 768.652 136.874C769.175 136.529 769.856 136.356 770.696 136.356C771.153 136.356 771.578 136.403 771.97 136.496C772.371 136.589 772.745 136.711 773.09 136.86L772.67 137.84C772.353 137.709 772.021 137.597 771.676 137.504C771.331 137.411 770.976 137.364 770.612 137.364C770.108 137.364 769.721 137.448 769.45 137.616C769.189 137.775 769.058 137.994 769.058 138.274C769.058 138.489 769.119 138.666 769.24 138.806C769.361 138.946 769.562 139.086 769.842 139.226C770.131 139.366 770.514 139.525 770.99 139.702C771.466 139.879 771.872 140.061 772.208 140.248C772.544 140.435 772.801 140.663 772.978 140.934C773.155 141.195 773.244 141.527 773.244 141.928Z" fill="#323232"/>
<path d="M808.451 147.677C808.314 147.677 808.177 147.609 808.109 147.54C807.903 147.334 807.903 146.991 808.109 146.786L815.377 139.517L808.04 132.18C807.834 131.974 807.834 131.631 808.04 131.426C808.246 131.22 808.589 131.22 808.794 131.426L816.474 139.106C816.543 139.174 816.611 139.311 816.611 139.449C816.611 139.586 816.543 139.723 816.474 139.791L808.794 147.54C808.657 147.677 808.52 147.677 808.451 147.677Z" fill="#323232"/>
</g>
</g>
</g>
<defs>
<filter id="filter0_d_9706_736823" x="28" y="36" width="896" height="590" filterUnits="userSpaceOnUse" color-interpolation-filters="sRGB">
<feFlood flood-opacity="0" result="BackgroundImageFix"/>
<feColorMatrix in="SourceAlpha" type="matrix" values="0 0 0 0 0 0 0 0 0 0 0 0 0 0 0 0 0 0 127 0" result="hardAlpha"/>
<feOffset dy="4"/>
<feGaussianBlur stdDeviation="4"/>
<feColorMatrix type="matrix" values="0 0 0 0 0 0 0 0 0 0 0 0 0 0 0 0 0 0 0.25 0"/>
<feBlend mode="normal" in2="BackgroundImageFix" result="effect1_dropShadow_9706_736823"/>
<feBlend mode="normal" in="SourceGraphic" in2="effect1_dropShadow_9706_736823" result="shape"/>
</filter>
<filter id="filter1_i_9706_736823" x="36" y="98" width="200" height="516" filterUnits="userSpaceOnUse" color-interpolation-filters="sRGB">
<feFlood flood-opacity="0" result="BackgroundImageFix"/>
<feBlend mode="normal" in="SourceGraphic" in2="BackgroundImageFix" result="shape"/>
<feColorMatrix in="SourceAlpha" type="matrix" values="0 0 0 0 0 0 0 0 0 0 0 0 0 0 0 0 0 0 127 0" result="hardAlpha"/>
<feOffset dx="-1"/>
<feComposite in2="hardAlpha" operator="arithmetic" k2="-1" k3="1"/>
<feColorMatrix type="matrix" values="0 0 0 0 0.788235 0 0 0 0 0.788235 0 0 0 0 0.788235 0 0 0 1 0"/>
<feBlend mode="normal" in2="shape" result="effect1_innerShadow_9706_736823"/>
</filter>
<filter id="filter2_i_9706_736823" x="36" y="40" width="880" height="58" filterUnits="userSpaceOnUse" color-interpolation-filters="sRGB">
<feFlood flood-opacity="0" result="BackgroundImageFix"/>
<feBlend mode="normal" in="SourceGraphic" in2="BackgroundImageFix" result="shape"/>
<feColorMatrix in="SourceAlpha" type="matrix" values="0 0 0 0 0 0 0 0 0 0 0 0 0 0 0 0 0 0 127 0" result="hardAlpha"/>
<feOffset dy="-1"/>
<feComposite in2="hardAlpha" operator="arithmetic" k2="-1" k3="1"/>
<feColorMatrix type="matrix" values="0 0 0 0 0.788235 0 0 0 0 0.788235 0 0 0 0 0.788235 0 0 0 1 0"/>
<feBlend mode="normal" in2="shape" result="effect1_innerShadow_9706_736823"/>
</filter>
<clipPath id="clip0_9706_736823">
<rect width="952" height="344" fill="white"/>
</clipPath>
<clipPath id="clip1_9706_736823">
<rect width="904" height="432" fill="white" transform="translate(24 40)"/>
</clipPath>
<clipPath id="clip2_9706_736823">
<rect x="36" y="40" width="880" height="574" rx="8" fill="white"/>
</clipPath>
<clipPath id="clip3_9706_736823">
<rect width="40.0001" height="36.6667" fill="white" transform="translate(860 49)"/>
</clipPath>
</defs>
</svg>
