<svg width="904" height="199" viewBox="0 0 904 199" fill="none" xmlns="http://www.w3.org/2000/svg">
<rect width="904" height="199" fill="white"/>
<rect x="299" y="40.4707" width="360" height="127.059" rx="6" fill="#1B77AF"/>
<path d="M444.832 86.9639H454.624C458.88 86.9639 462.112 87.6039 464.32 88.8839C466.528 90.1639 467.632 92.3559 467.632 95.4599C467.632 97.4759 467.072 99.1559 465.952 100.5C464.832 101.812 463.216 102.66 461.104 103.044V103.284C462.544 103.54 463.84 103.972 464.992 104.58C466.176 105.188 467.104 106.052 467.776 107.172C468.448 108.292 468.784 109.732 468.784 111.492C468.784 114.596 467.712 116.996 465.568 118.692C463.456 120.388 460.56 121.236 456.88 121.236H444.832V86.9639ZM449.152 101.556H455.488C458.4 101.556 460.4 101.092 461.488 100.164C462.608 99.2039 463.168 97.7959 463.168 95.9399C463.168 94.0519 462.496 92.7079 461.152 91.9079C459.84 91.0759 457.728 90.6599 454.816 90.6599H449.152V101.556ZM449.152 105.156V117.588H456.064C459.104 117.588 461.216 116.996 462.4 115.812C463.584 114.628 464.176 113.076 464.176 111.156C464.176 109.364 463.552 107.924 462.304 106.836C461.088 105.716 458.896 105.156 455.728 105.156H449.152Z" fill="white"/>
<path d="M496.979 95.5079V121.236H493.523L492.899 117.828H492.707C491.875 119.172 490.723 120.164 489.251 120.804C487.779 121.412 486.211 121.716 484.547 121.716C481.443 121.716 479.107 120.98 477.539 119.508C475.971 118.004 475.187 115.62 475.187 112.356V95.5079H479.459V112.068C479.459 116.164 481.363 118.212 485.171 118.212C488.019 118.212 489.987 117.412 491.075 115.812C492.195 114.212 492.755 111.908 492.755 108.9V95.5079H496.979Z" fill="white"/>
<path d="M513.739 118.26C514.379 118.26 515.035 118.212 515.707 118.116C516.379 118.02 516.923 117.892 517.339 117.732V120.948C516.891 121.172 516.251 121.348 515.419 121.476C514.587 121.636 513.787 121.716 513.019 121.716C511.675 121.716 510.427 121.492 509.275 121.044C508.155 120.564 507.243 119.748 506.539 118.596C505.835 117.444 505.483 115.828 505.483 113.748V98.7719H501.835V96.7559L505.531 95.0759L507.211 89.6039H509.707V95.5079H517.147V98.7719H509.707V113.652C509.707 115.22 510.075 116.388 510.811 117.156C511.579 117.892 512.555 118.26 513.739 118.26Z" fill="white"/>
<path d="M531.083 118.26C531.723 118.26 532.379 118.212 533.051 118.116C533.723 118.02 534.267 117.892 534.683 117.732V120.948C534.235 121.172 533.595 121.348 532.763 121.476C531.931 121.636 531.131 121.716 530.363 121.716C529.019 121.716 527.771 121.492 526.619 121.044C525.499 120.564 524.587 119.748 523.883 118.596C523.179 117.444 522.827 115.828 522.827 113.748V98.7719H519.179V96.7559L522.875 95.0759L524.555 89.6039H527.051V95.5079H534.491V98.7719H527.051V113.652C527.051 115.22 527.419 116.388 528.155 117.156C528.923 117.892 529.899 118.26 531.083 118.26Z" fill="white"/>
<path d="M562.203 108.324C562.203 112.58 561.115 115.876 558.939 118.212C556.795 120.548 553.883 121.716 550.203 121.716C547.931 121.716 545.899 121.204 544.107 120.18C542.347 119.124 540.955 117.604 539.931 115.62C538.907 113.604 538.395 111.172 538.395 108.324C538.395 104.068 539.451 100.788 541.563 98.4839C543.707 96.1799 546.635 95.0279 550.347 95.0279C552.651 95.0279 554.699 95.5559 556.491 96.6119C558.283 97.6359 559.675 99.1399 560.667 101.124C561.691 103.076 562.203 105.476 562.203 108.324ZM542.763 108.324C542.763 111.364 543.355 113.78 544.539 115.572C545.755 117.332 547.675 118.212 550.299 118.212C552.891 118.212 554.795 117.332 556.011 115.572C557.227 113.78 557.835 111.364 557.835 108.324C557.835 105.284 557.227 102.9 556.011 101.172C554.795 99.4439 552.875 98.5799 550.251 98.5799C547.627 98.5799 545.723 99.4439 544.539 101.172C543.355 102.9 542.763 105.284 542.763 108.324Z" fill="white"/>
<path d="M581.281 95.0279C584.353 95.0279 586.673 95.7799 588.241 97.2839C589.809 98.7879 590.593 101.188 590.593 104.484V121.236H586.417V104.772C586.417 100.644 584.497 98.5799 580.657 98.5799C577.809 98.5799 575.841 99.3799 574.753 100.98C573.665 102.58 573.121 104.884 573.121 107.892V121.236H568.897V95.5079H572.305L572.929 99.0119H573.169C574.001 97.6679 575.153 96.6759 576.625 96.0359C578.097 95.3639 579.649 95.0279 581.281 95.0279Z" fill="white"/>
<circle cx="383.706" cy="104" r="24.7059" transform="rotate(90 383.706 104)" fill="white"/>
<path d="M299 199L299 1.99999" stroke="#D51588" stroke-width="2"/>
<path d="M603 199L603 1.99999" stroke="#D51588" stroke-width="2"/>
<path d="M412 199L412 1.99999" stroke="#D51588" stroke-width="2"/>
<path d="M356 199L356 1.99999" stroke="#D51588" stroke-width="2"/>
<path d="M659 199L659 1.99999" stroke="#D51588" stroke-width="2"/>
<path d="M442 199L442 1.99999" stroke="#D51588" stroke-width="2"/>
<path d="M427.497 7.263C428.283 7.263 428.992 7.38333 429.625 7.624C430.259 7.86467 430.765 8.232 431.145 8.726C431.525 9.20733 431.715 9.80267 431.715 10.512C431.715 11.3227 431.475 11.994 430.993 12.526C430.512 13.0453 429.923 13.4823 429.226 13.837C429.746 14.103 430.227 14.4007 430.67 14.73C431.114 15.0593 431.468 15.452 431.734 15.908C432.013 16.3513 432.152 16.877 432.152 17.485C432.152 18.2323 431.956 18.8847 431.563 19.442C431.171 19.9993 430.626 20.43 429.929 20.734C429.245 21.038 428.441 21.19 427.516 21.19C426.009 21.19 424.85 20.867 424.039 20.221C423.229 19.575 422.823 18.6883 422.823 17.561C422.823 16.9403 422.944 16.402 423.184 15.946C423.425 15.49 423.748 15.0973 424.153 14.768C424.559 14.4387 425.008 14.1537 425.502 13.913C424.882 13.533 424.35 13.077 423.906 12.545C423.476 12.0003 423.26 11.3163 423.26 10.493C423.26 9.79633 423.45 9.20733 423.83 8.726C424.223 8.24467 424.736 7.88367 425.369 7.643C426.015 7.38967 426.725 7.263 427.497 7.263ZM427.478 9.068C426.921 9.068 426.459 9.20733 426.091 9.486C425.737 9.76467 425.559 10.1573 425.559 10.664C425.559 11.2213 425.749 11.6647 426.129 11.994C426.509 12.3233 426.972 12.6083 427.516 12.849C428.036 12.621 428.479 12.3423 428.846 12.013C429.226 11.6837 429.416 11.234 429.416 10.664C429.416 10.1573 429.233 9.76467 428.865 9.486C428.511 9.20733 428.048 9.068 427.478 9.068ZM425.103 17.447C425.103 18.0043 425.3 18.4667 425.692 18.834C426.085 19.1887 426.68 19.366 427.478 19.366C428.264 19.366 428.859 19.1887 429.264 18.834C429.67 18.4793 429.872 18.017 429.872 17.447C429.872 16.877 429.644 16.402 429.188 16.022C428.732 15.642 428.194 15.3127 427.573 15.034L427.307 14.901C426.623 15.2177 426.085 15.5787 425.692 15.984C425.3 16.3767 425.103 16.8643 425.103 17.447Z" fill="#D51588"/>
<path d="M323.556 21H321.162V12.545C321.162 12.1397 321.168 11.709 321.181 11.253C321.194 10.797 321.213 10.3727 321.238 9.98C321.111 10.1067 320.953 10.2587 320.763 10.436C320.586 10.6133 320.389 10.7843 320.174 10.949L318.654 12.165L317.457 10.683L321.561 7.434H323.556V21ZM327.817 15.224C327.817 14.4387 327.868 13.666 327.969 12.906C328.083 12.146 328.279 11.4303 328.558 10.759C328.837 10.075 329.223 9.47333 329.717 8.954C330.211 8.422 330.838 8.01033 331.598 7.719C332.371 7.415 333.302 7.263 334.391 7.263C334.657 7.263 334.961 7.27567 335.303 7.301C335.645 7.32633 335.93 7.36433 336.158 7.415V9.391C335.664 9.25167 335.119 9.182 334.524 9.182C333.384 9.182 332.497 9.391 331.864 9.809C331.231 10.2143 330.787 10.778 330.534 11.5C330.281 12.2093 330.129 13.0073 330.078 13.894H330.192C330.458 13.4507 330.838 13.077 331.332 12.773C331.826 12.4563 332.466 12.298 333.251 12.298C334.429 12.298 335.373 12.6653 336.082 13.4C336.791 14.1347 337.146 15.1797 337.146 16.535C337.146 17.9917 336.741 19.1317 335.93 19.955C335.119 20.7783 334.024 21.19 332.643 21.19C331.744 21.19 330.927 20.9747 330.192 20.544C329.47 20.1133 328.894 19.461 328.463 18.587C328.032 17.7003 327.817 16.5793 327.817 15.224ZM332.605 19.233C333.251 19.233 333.777 19.0177 334.182 18.587C334.587 18.1437 334.79 17.466 334.79 16.554C334.79 15.8193 334.613 15.243 334.258 14.825C333.903 14.3943 333.371 14.179 332.662 14.179C332.168 14.179 331.737 14.2867 331.37 14.502C331.015 14.7047 330.737 14.9707 330.534 15.3C330.331 15.6167 330.23 15.946 330.23 16.288C330.23 16.7567 330.319 17.219 330.496 17.675C330.673 18.1183 330.933 18.492 331.275 18.796C331.63 19.0873 332.073 19.233 332.605 19.233Z" fill="#D51588"/>
<path d="M626.556 21H624.162V12.545C624.162 12.1397 624.168 11.709 624.181 11.253C624.194 10.797 624.213 10.3727 624.238 9.98C624.111 10.1067 623.953 10.2587 623.763 10.436C623.586 10.6133 623.389 10.7843 623.174 10.949L621.654 12.165L620.457 10.683L624.561 7.434H626.556V21ZM630.817 15.224C630.817 14.4387 630.868 13.666 630.969 12.906C631.083 12.146 631.279 11.4303 631.558 10.759C631.837 10.075 632.223 9.47333 632.717 8.954C633.211 8.422 633.838 8.01033 634.598 7.719C635.371 7.415 636.302 7.263 637.391 7.263C637.657 7.263 637.961 7.27567 638.303 7.301C638.645 7.32633 638.93 7.36433 639.158 7.415V9.391C638.664 9.25167 638.119 9.182 637.524 9.182C636.384 9.182 635.497 9.391 634.864 9.809C634.231 10.2143 633.787 10.778 633.534 11.5C633.281 12.2093 633.129 13.0073 633.078 13.894H633.192C633.458 13.4507 633.838 13.077 634.332 12.773C634.826 12.4563 635.466 12.298 636.251 12.298C637.429 12.298 638.373 12.6653 639.082 13.4C639.791 14.1347 640.146 15.1797 640.146 16.535C640.146 17.9917 639.741 19.1317 638.93 19.955C638.119 20.7783 637.024 21.19 635.643 21.19C634.744 21.19 633.927 20.9747 633.192 20.544C632.47 20.1133 631.894 19.461 631.463 18.587C631.032 17.7003 630.817 16.5793 630.817 15.224ZM635.605 19.233C636.251 19.233 636.777 19.0177 637.182 18.587C637.587 18.1437 637.79 17.466 637.79 16.554C637.79 15.8193 637.613 15.243 637.258 14.825C636.903 14.3943 636.371 14.179 635.662 14.179C635.168 14.179 634.737 14.2867 634.37 14.502C634.015 14.7047 633.737 14.9707 633.534 15.3C633.331 15.6167 633.23 15.946 633.23 16.288C633.23 16.7567 633.319 17.219 633.496 17.675C633.673 18.1183 633.933 18.492 634.275 18.796C634.63 19.0873 635.073 19.233 635.605 19.233Z" fill="#D51588"/>
<path d="M280 42L280 167" stroke="#D51588" stroke-width="2"/>
<path d="M288 167H272" stroke="#D51588" stroke-width="2"/>
<path d="M288 42H272" stroke="#D51588" stroke-width="2"/>
<path d="M253.703 93.531C253.703 94.4557 253.431 95.1967 252.886 95.754C252.354 96.2987 251.664 96.666 250.815 96.856V96.913C251.904 97.0523 252.728 97.3943 253.285 97.939C253.842 98.4837 254.121 99.1993 254.121 100.086C254.121 100.871 253.931 101.574 253.551 102.195C253.171 102.816 252.582 103.303 251.784 103.658C250.999 104.013 249.985 104.19 248.744 104.19C247.997 104.19 247.306 104.127 246.673 104C246.052 103.886 245.463 103.702 244.906 103.449V101.34C245.476 101.631 246.084 101.853 246.73 102.005C247.376 102.157 247.984 102.233 248.554 102.233C249.656 102.233 250.435 102.037 250.891 101.644C251.347 101.239 251.575 100.681 251.575 99.972C251.575 99.3007 251.309 98.8003 250.777 98.471C250.245 98.1417 249.358 97.977 248.117 97.977H246.977V96.058H248.136C249.339 96.058 250.169 95.8617 250.625 95.469C251.081 95.0763 251.309 94.5697 251.309 93.949C251.309 93.4043 251.132 92.98 250.777 92.676C250.422 92.372 249.89 92.22 249.181 92.22C248.497 92.22 247.908 92.334 247.414 92.562C246.92 92.7773 246.477 93.0117 246.084 93.265L244.944 91.612C245.463 91.232 246.078 90.909 246.787 90.643C247.496 90.377 248.332 90.244 249.295 90.244C250.701 90.244 251.784 90.5417 252.544 91.137C253.317 91.7323 253.703 92.5303 253.703 93.531ZM265.108 104H255.817V102.233L259.275 98.737C259.959 98.0403 260.516 97.445 260.947 96.951C261.39 96.457 261.713 95.9947 261.916 95.564C262.131 95.1207 262.239 94.6457 262.239 94.139C262.239 93.5183 262.062 93.056 261.707 92.752C261.365 92.4353 260.896 92.277 260.301 92.277C259.731 92.277 259.199 92.3973 258.705 92.638C258.211 92.866 257.698 93.1953 257.166 93.626L255.855 92.049C256.412 91.5677 257.039 91.1497 257.736 90.795C258.445 90.4277 259.345 90.244 260.434 90.244C261.308 90.244 262.055 90.4023 262.676 90.719C263.309 91.023 263.797 91.4537 264.139 92.011C264.481 92.5557 264.652 93.1827 264.652 93.892C264.652 94.6267 264.506 95.3043 264.215 95.925C263.924 96.533 263.499 97.1473 262.942 97.768C262.397 98.376 261.745 99.0347 260.985 99.744L258.838 101.815V101.929H265.108V104Z" fill="#D51588"/>
</svg>
