<svg width="904" height="400" viewBox="0 0 904 400" fill="none" xmlns="http://www.w3.org/2000/svg">
<g clip-path="url(#clip0_6499_174845)">
<rect width="904" height="400" fill="white"/>
<g clip-path="url(#clip1_6499_174845)">
<rect x="72" width="768" height="400" fill="#F1F1F1"/>
<rect width="608" height="342" transform="translate(232 58)" fill="#F1F1F1"/>
<g clip-path="url(#clip2_6499_174845)">
<rect x="240" y="66" width="592" height="326" rx="4" fill="#FFF7EB"/>
<path d="M514.817 224.97C513.743 224.97 512.899 225.329 512.283 226.048C511.667 226.767 511.359 227.751 511.359 229.002C511.359 230.243 511.643 231.228 512.213 231.956C512.791 232.675 513.655 233.034 514.803 233.034C515.232 233.034 515.643 232.997 516.035 232.922C516.427 232.847 516.814 232.754 517.197 232.642V233.734C516.823 233.874 516.436 233.977 516.035 234.042C515.643 234.107 515.171 234.14 514.621 234.14C513.603 234.14 512.754 233.93 512.073 233.51C511.391 233.09 510.878 232.493 510.533 231.718C510.197 230.943 510.029 230.033 510.029 228.988C510.029 227.98 510.211 227.093 510.575 226.328C510.948 225.553 511.494 224.951 512.213 224.522C512.931 224.083 513.804 223.864 514.831 223.864C515.885 223.864 516.805 224.06 517.589 224.452L517.085 225.516C516.777 225.376 516.431 225.25 516.049 225.138C515.675 225.026 515.265 224.97 514.817 224.97ZM525.735 230.234C525.735 231.475 525.417 232.437 524.783 233.118C524.157 233.799 523.308 234.14 522.235 234.14C521.572 234.14 520.979 233.991 520.457 233.692C519.943 233.384 519.537 232.941 519.239 232.362C518.94 231.774 518.791 231.065 518.791 230.234C518.791 228.993 519.099 228.036 519.715 227.364C520.34 226.692 521.194 226.356 522.277 226.356C522.949 226.356 523.546 226.51 524.069 226.818C524.591 227.117 524.997 227.555 525.287 228.134C525.585 228.703 525.735 229.403 525.735 230.234ZM520.065 230.234C520.065 231.121 520.237 231.825 520.583 232.348C520.937 232.861 521.497 233.118 522.263 233.118C523.019 233.118 523.574 232.861 523.929 232.348C524.283 231.825 524.461 231.121 524.461 230.234C524.461 229.347 524.283 228.652 523.929 228.148C523.574 227.644 523.014 227.392 522.249 227.392C521.483 227.392 520.928 227.644 520.583 228.148C520.237 228.652 520.065 229.347 520.065 230.234ZM531.299 226.356C532.195 226.356 532.872 226.575 533.329 227.014C533.786 227.453 534.015 228.153 534.015 229.114V234H532.797V229.198C532.797 227.994 532.237 227.392 531.117 227.392C530.286 227.392 529.712 227.625 529.395 228.092C529.078 228.559 528.919 229.231 528.919 230.108V234H527.687V226.496H528.681L528.863 227.518H528.933C529.176 227.126 529.512 226.837 529.941 226.65C530.37 226.454 530.823 226.356 531.299 226.356ZM538.847 233.132C539.034 233.132 539.225 233.118 539.421 233.09C539.617 233.062 539.776 233.025 539.897 232.978V233.916C539.767 233.981 539.58 234.033 539.337 234.07C539.095 234.117 538.861 234.14 538.637 234.14C538.245 234.14 537.881 234.075 537.545 233.944C537.219 233.804 536.953 233.566 536.747 233.23C536.542 232.894 536.439 232.423 536.439 231.816V227.448H535.375V226.86L536.453 226.37L536.943 224.774H537.671V226.496H539.841V227.448H537.671V231.788C537.671 232.245 537.779 232.586 537.993 232.81C538.217 233.025 538.502 233.132 538.847 233.132ZM544.298 226.356C544.933 226.356 545.483 226.496 545.95 226.776C546.417 227.056 546.771 227.453 547.014 227.966C547.266 228.47 547.392 229.063 547.392 229.744V230.486H542.254C542.273 231.335 542.487 231.984 542.898 232.432C543.318 232.871 543.901 233.09 544.648 233.09C545.124 233.09 545.544 233.048 545.908 232.964C546.281 232.871 546.664 232.74 547.056 232.572V233.65C546.673 233.818 546.295 233.939 545.922 234.014C545.549 234.098 545.105 234.14 544.592 234.14C543.873 234.14 543.243 233.995 542.702 233.706C542.161 233.417 541.736 232.987 541.428 232.418C541.129 231.849 540.98 231.144 540.98 230.304C540.98 229.483 541.115 228.778 541.386 228.19C541.666 227.602 542.053 227.149 542.548 226.832C543.052 226.515 543.635 226.356 544.298 226.356ZM544.284 227.364C543.696 227.364 543.229 227.555 542.884 227.938C542.548 228.311 542.347 228.834 542.282 229.506H546.104C546.095 228.871 545.945 228.358 545.656 227.966C545.367 227.565 544.909 227.364 544.284 227.364ZM552.914 226.356C553.81 226.356 554.487 226.575 554.944 227.014C555.402 227.453 555.63 228.153 555.63 229.114V234H554.412V229.198C554.412 227.994 553.852 227.392 552.732 227.392C551.902 227.392 551.328 227.625 551.01 228.092C550.693 228.559 550.534 229.231 550.534 230.108V234H549.302V226.496H550.296L550.478 227.518H550.548C550.791 227.126 551.127 226.837 551.556 226.65C551.986 226.454 552.438 226.356 552.914 226.356ZM560.463 233.132C560.649 233.132 560.841 233.118 561.037 233.09C561.233 233.062 561.391 233.025 561.513 232.978V233.916C561.382 233.981 561.195 234.033 560.953 234.07C560.71 234.117 560.477 234.14 560.253 234.14C559.861 234.14 559.497 234.075 559.161 233.944C558.834 233.804 558.568 233.566 558.363 233.23C558.157 232.894 558.055 232.423 558.055 231.816V227.448H556.991V226.86L558.069 226.37L558.559 224.774H559.287V226.496H561.457V227.448H559.287V231.788C559.287 232.245 559.394 232.586 559.609 232.81C559.833 233.025 560.117 233.132 560.463 233.132Z" fill="#242424"/>
</g>
<rect x="240.5" y="66.5" width="591" height="325" rx="3.5" stroke="#C9C9C9"/>
<g filter="url(#filter0_i_6499_174845)">
<rect width="160" height="342" transform="translate(72 58)" fill="#E7F4FB"/>
<path d="M107.074 231.326C107.074 232.213 106.752 232.903 106.108 233.398C105.464 233.893 104.596 234.14 103.504 234.14C102.944 234.14 102.426 234.098 101.95 234.014C101.474 233.93 101.077 233.813 100.76 233.664V232.46C101.096 232.609 101.511 232.745 102.006 232.866C102.51 232.987 103.028 233.048 103.56 233.048C104.297 233.048 104.857 232.903 105.24 232.614C105.623 232.325 105.814 231.933 105.814 231.438C105.814 231.111 105.744 230.836 105.604 230.612C105.464 230.388 105.221 230.183 104.876 229.996C104.531 229.809 104.059 229.604 103.462 229.38C102.603 229.072 101.959 228.694 101.53 228.246C101.101 227.798 100.886 227.187 100.886 226.412C100.886 225.889 101.021 225.437 101.292 225.054C101.563 224.671 101.936 224.377 102.412 224.172C102.888 223.967 103.443 223.864 104.078 223.864C104.619 223.864 105.119 223.915 105.576 224.018C106.033 224.121 106.453 224.256 106.836 224.424L106.444 225.502C106.099 225.353 105.721 225.227 105.31 225.124C104.899 225.021 104.479 224.97 104.05 224.97C103.425 224.97 102.953 225.105 102.636 225.376C102.319 225.637 102.16 225.987 102.16 226.426C102.16 226.762 102.23 227.042 102.37 227.266C102.51 227.49 102.739 227.695 103.056 227.882C103.373 228.059 103.803 228.246 104.344 228.442C104.932 228.657 105.427 228.89 105.828 229.142C106.239 229.385 106.547 229.679 106.752 230.024C106.967 230.369 107.074 230.803 107.074 231.326ZM109.549 223.682C109.736 223.682 109.899 223.747 110.039 223.878C110.189 223.999 110.263 224.195 110.263 224.466C110.263 224.737 110.189 224.937 110.039 225.068C109.899 225.189 109.736 225.25 109.549 225.25C109.344 225.25 109.171 225.189 109.031 225.068C108.891 224.937 108.821 224.737 108.821 224.466C108.821 224.195 108.891 223.999 109.031 223.878C109.171 223.747 109.344 223.682 109.549 223.682ZM110.151 226.496V234H108.919V226.496H110.151ZM115.189 234.14C114.256 234.14 113.509 233.818 112.949 233.174C112.389 232.521 112.109 231.55 112.109 230.262C112.109 228.974 112.389 228.003 112.949 227.35C113.518 226.687 114.27 226.356 115.203 226.356C115.782 226.356 116.253 226.463 116.617 226.678C116.99 226.893 117.294 227.154 117.527 227.462H117.611C117.592 227.341 117.574 227.163 117.555 226.93C117.536 226.687 117.527 226.496 117.527 226.356V223.36H118.759V234H117.765L117.583 232.992H117.527C117.303 233.309 117.004 233.58 116.631 233.804C116.258 234.028 115.777 234.14 115.189 234.14ZM115.385 233.118C116.178 233.118 116.734 232.903 117.051 232.474C117.378 232.035 117.541 231.377 117.541 230.5V230.276C117.541 229.343 117.387 228.629 117.079 228.134C116.771 227.63 116.202 227.378 115.371 227.378C114.708 227.378 114.209 227.644 113.873 228.176C113.546 228.699 113.383 229.403 113.383 230.29C113.383 231.186 113.546 231.881 113.873 232.376C114.209 232.871 114.713 233.118 115.385 233.118ZM124.04 226.356C124.675 226.356 125.225 226.496 125.692 226.776C126.159 227.056 126.513 227.453 126.756 227.966C127.008 228.47 127.134 229.063 127.134 229.744V230.486H121.996C122.015 231.335 122.229 231.984 122.64 232.432C123.06 232.871 123.643 233.09 124.39 233.09C124.866 233.09 125.286 233.048 125.65 232.964C126.023 232.871 126.406 232.74 126.798 232.572V233.65C126.415 233.818 126.037 233.939 125.664 234.014C125.291 234.098 124.847 234.14 124.334 234.14C123.615 234.14 122.985 233.995 122.444 233.706C121.903 233.417 121.478 232.987 121.17 232.418C120.871 231.849 120.722 231.144 120.722 230.304C120.722 229.483 120.857 228.778 121.128 228.19C121.408 227.602 121.795 227.149 122.29 226.832C122.794 226.515 123.377 226.356 124.04 226.356ZM124.026 227.364C123.438 227.364 122.971 227.555 122.626 227.938C122.29 228.311 122.089 228.834 122.024 229.506H125.846C125.837 228.871 125.687 228.358 125.398 227.966C125.109 227.565 124.651 227.364 124.026 227.364ZM140.773 234H139.303L133.955 225.698H133.899C133.918 226.025 133.941 226.431 133.969 226.916C133.997 227.401 134.011 227.901 134.011 228.414V234H132.849V224.004H134.305L139.639 232.278H139.695C139.686 232.129 139.672 231.905 139.653 231.606C139.644 231.307 139.63 230.985 139.611 230.64C139.602 230.285 139.597 229.954 139.597 229.646V224.004H140.773V234ZM146.16 226.37C147.075 226.37 147.751 226.571 148.19 226.972C148.629 227.373 148.848 228.013 148.848 228.89V234H147.952L147.714 232.936H147.658C147.331 233.347 146.986 233.65 146.622 233.846C146.258 234.042 145.763 234.14 145.138 234.14C144.457 234.14 143.892 233.963 143.444 233.608C142.996 233.244 142.772 232.679 142.772 231.914C142.772 231.167 143.066 230.593 143.654 230.192C144.242 229.781 145.147 229.557 146.37 229.52L147.644 229.478V229.03C147.644 228.405 147.509 227.971 147.238 227.728C146.967 227.485 146.585 227.364 146.09 227.364C145.698 227.364 145.325 227.425 144.97 227.546C144.615 227.658 144.284 227.789 143.976 227.938L143.598 227.014C143.925 226.837 144.312 226.687 144.76 226.566C145.208 226.435 145.675 226.37 146.16 226.37ZM147.63 230.332L146.524 230.374C145.591 230.411 144.942 230.561 144.578 230.822C144.223 231.083 144.046 231.452 144.046 231.928C144.046 232.348 144.172 232.656 144.424 232.852C144.685 233.048 145.017 233.146 145.418 233.146C146.043 233.146 146.566 232.973 146.986 232.628C147.415 232.273 147.63 231.732 147.63 231.004V230.332ZM152.818 234L149.976 226.496H151.292L152.888 230.92C152.962 231.125 153.042 231.354 153.126 231.606C153.21 231.858 153.284 232.101 153.35 232.334C153.415 232.567 153.462 232.759 153.49 232.908H153.546C153.574 232.759 153.625 232.567 153.7 232.334C153.774 232.091 153.854 231.849 153.938 231.606C154.022 231.354 154.101 231.125 154.176 230.92L155.772 226.496H157.088L154.232 234H152.818ZM158.905 223.682C159.092 223.682 159.255 223.747 159.395 223.878C159.544 223.999 159.619 224.195 159.619 224.466C159.619 224.737 159.544 224.937 159.395 225.068C159.255 225.189 159.092 225.25 158.905 225.25C158.7 225.25 158.527 225.189 158.387 225.068C158.247 224.937 158.177 224.737 158.177 224.466C158.177 224.195 158.247 223.999 158.387 223.878C158.527 223.747 158.7 223.682 158.905 223.682ZM159.507 226.496V234H158.275V226.496H159.507ZM164.544 226.356C165.039 226.356 165.482 226.449 165.874 226.636C166.276 226.823 166.616 227.107 166.896 227.49H166.966L167.134 226.496H168.114V234.126C168.114 235.199 167.839 236.007 167.288 236.548C166.747 237.089 165.902 237.36 164.754 237.36C163.653 237.36 162.752 237.201 162.052 236.884V235.75C162.79 236.142 163.714 236.338 164.824 236.338C165.468 236.338 165.972 236.147 166.336 235.764C166.71 235.391 166.896 234.877 166.896 234.224V233.93C166.896 233.818 166.901 233.659 166.91 233.454C166.92 233.239 166.929 233.09 166.938 233.006H166.882C166.378 233.762 165.604 234.14 164.558 234.14C163.588 234.14 162.827 233.799 162.276 233.118C161.735 232.437 161.464 231.485 161.464 230.262C161.464 229.067 161.735 228.12 162.276 227.42C162.827 226.711 163.583 226.356 164.544 226.356ZM164.712 227.392C164.087 227.392 163.602 227.644 163.256 228.148C162.911 228.643 162.738 229.352 162.738 230.276C162.738 231.2 162.906 231.909 163.242 232.404C163.578 232.889 164.078 233.132 164.74 233.132C165.496 233.132 166.047 232.931 166.392 232.53C166.738 232.119 166.91 231.461 166.91 230.556V230.262C166.91 229.245 166.733 228.512 166.378 228.064C166.024 227.616 165.468 227.392 164.712 227.392ZM173.34 226.37C174.254 226.37 174.931 226.571 175.37 226.972C175.808 227.373 176.028 228.013 176.028 228.89V234H175.132L174.894 232.936H174.838C174.511 233.347 174.166 233.65 173.802 233.846C173.438 234.042 172.943 234.14 172.318 234.14C171.636 234.14 171.072 233.963 170.624 233.608C170.176 233.244 169.952 232.679 169.952 231.914C169.952 231.167 170.246 230.593 170.834 230.192C171.422 229.781 172.327 229.557 173.55 229.52L174.824 229.478V229.03C174.824 228.405 174.688 227.971 174.418 227.728C174.147 227.485 173.764 227.364 173.27 227.364C172.878 227.364 172.504 227.425 172.15 227.546C171.795 227.658 171.464 227.789 171.156 227.938L170.778 227.014C171.104 226.837 171.492 226.687 171.94 226.566C172.388 226.435 172.854 226.37 173.34 226.37ZM174.81 230.332L173.704 230.374C172.77 230.411 172.122 230.561 171.758 230.822C171.403 231.083 171.226 231.452 171.226 231.928C171.226 232.348 171.352 232.656 171.604 232.852C171.865 233.048 172.196 233.146 172.598 233.146C173.223 233.146 173.746 232.973 174.166 232.628C174.595 232.273 174.81 231.732 174.81 231.004V230.332ZM180.851 233.132C181.038 233.132 181.229 233.118 181.425 233.09C181.621 233.062 181.78 233.025 181.901 232.978V233.916C181.771 233.981 181.584 234.033 181.341 234.07C181.099 234.117 180.865 234.14 180.641 234.14C180.249 234.14 179.885 234.075 179.549 233.944C179.223 233.804 178.957 233.566 178.751 233.23C178.546 232.894 178.443 232.423 178.443 231.816V227.448H177.379V226.86L178.457 226.37L178.947 224.774H179.675V226.496H181.845V227.448H179.675V231.788C179.675 232.245 179.783 232.586 179.997 232.81C180.221 233.025 180.506 233.132 180.851 233.132ZM184.034 223.682C184.221 223.682 184.384 223.747 184.524 223.878C184.673 223.999 184.748 224.195 184.748 224.466C184.748 224.737 184.673 224.937 184.524 225.068C184.384 225.189 184.221 225.25 184.034 225.25C183.829 225.25 183.656 225.189 183.516 225.068C183.376 224.937 183.306 224.737 183.306 224.466C183.306 224.195 183.376 223.999 183.516 223.878C183.656 223.747 183.829 223.682 184.034 223.682ZM184.636 226.496V234H183.404V226.496H184.636ZM193.537 230.234C193.537 231.475 193.22 232.437 192.585 233.118C191.96 233.799 191.111 234.14 190.037 234.14C189.375 234.14 188.782 233.991 188.259 233.692C187.746 233.384 187.34 232.941 187.041 232.362C186.743 231.774 186.593 231.065 186.593 230.234C186.593 228.993 186.901 228.036 187.517 227.364C188.143 226.692 188.997 226.356 190.079 226.356C190.751 226.356 191.349 226.51 191.871 226.818C192.394 227.117 192.8 227.555 193.089 228.134C193.388 228.703 193.537 229.403 193.537 230.234ZM187.867 230.234C187.867 231.121 188.04 231.825 188.385 232.348C188.74 232.861 189.3 233.118 190.065 233.118C190.821 233.118 191.377 232.861 191.731 232.348C192.086 231.825 192.263 231.121 192.263 230.234C192.263 229.347 192.086 228.652 191.731 228.148C191.377 227.644 190.817 227.392 190.051 227.392C189.286 227.392 188.731 227.644 188.385 228.148C188.04 228.652 187.867 229.347 187.867 230.234ZM199.102 226.356C199.998 226.356 200.674 226.575 201.132 227.014C201.589 227.453 201.818 228.153 201.818 229.114V234H200.6V229.198C200.6 227.994 200.04 227.392 198.92 227.392C198.089 227.392 197.515 227.625 197.198 228.092C196.88 228.559 196.722 229.231 196.722 230.108V234H195.49V226.496H196.484L196.666 227.518H196.736C196.978 227.126 197.314 226.837 197.744 226.65C198.173 226.454 198.626 226.356 199.102 226.356Z" fill="#242424"/>
</g>
<g filter="url(#filter1_i_6499_174845)">
<rect width="768" height="58" transform="translate(72)" fill="#F7EDFC"/>
<path d="M440.289 34H439.029V29.338H433.905V34H432.645V24.004H433.905V28.232H439.029V24.004H440.289V34ZM445.752 26.356C446.387 26.356 446.937 26.496 447.404 26.776C447.871 27.056 448.225 27.4527 448.468 27.966C448.72 28.47 448.846 29.0627 448.846 29.744V30.486H443.708C443.727 31.3353 443.941 31.984 444.352 32.432C444.772 32.8707 445.355 33.09 446.102 33.09C446.578 33.09 446.998 33.048 447.362 32.964C447.735 32.8707 448.118 32.74 448.51 32.572V33.65C448.127 33.818 447.749 33.9393 447.376 34.014C447.003 34.098 446.559 34.14 446.046 34.14C445.327 34.14 444.697 33.9953 444.156 33.706C443.615 33.4167 443.19 32.9873 442.882 32.418C442.583 31.8487 442.434 31.144 442.434 30.304C442.434 29.4827 442.569 28.778 442.84 28.19C443.12 27.602 443.507 27.1493 444.002 26.832C444.506 26.5147 445.089 26.356 445.752 26.356ZM445.738 27.364C445.15 27.364 444.683 27.5553 444.338 27.938C444.002 28.3113 443.801 28.834 443.736 29.506H447.558C447.549 28.8713 447.399 28.358 447.11 27.966C446.821 27.5647 446.363 27.364 445.738 27.364ZM453.598 26.37C454.513 26.37 455.19 26.5707 455.628 26.972C456.067 27.3733 456.286 28.0127 456.286 28.89V34H455.39L455.152 32.936H455.096C454.77 33.3467 454.424 33.65 454.06 33.846C453.696 34.042 453.202 34.14 452.576 34.14C451.895 34.14 451.33 33.9627 450.882 33.608C450.434 33.244 450.21 32.6793 450.21 31.914C450.21 31.1673 450.504 30.5933 451.092 30.192C451.68 29.7813 452.586 29.5573 453.808 29.52L455.082 29.478V29.03C455.082 28.4047 454.947 27.9707 454.676 27.728C454.406 27.4853 454.023 27.364 453.528 27.364C453.136 27.364 452.763 27.4247 452.408 27.546C452.054 27.658 451.722 27.7887 451.414 27.938L451.036 27.014C451.363 26.8367 451.75 26.6873 452.198 26.566C452.646 26.4353 453.113 26.37 453.598 26.37ZM455.068 30.332L453.962 30.374C453.029 30.4113 452.38 30.5607 452.016 30.822C451.662 31.0833 451.484 31.452 451.484 31.928C451.484 32.348 451.61 32.656 451.862 32.852C452.124 33.048 452.455 33.146 452.856 33.146C453.482 33.146 454.004 32.9733 454.424 32.628C454.854 32.2733 455.068 31.732 455.068 31.004V30.332ZM461.264 34.14C460.331 34.14 459.584 33.818 459.024 33.174C458.464 32.5207 458.184 31.55 458.184 30.262C458.184 28.974 458.464 28.0033 459.024 27.35C459.593 26.6873 460.345 26.356 461.278 26.356C461.857 26.356 462.328 26.4633 462.692 26.678C463.065 26.8927 463.369 27.154 463.602 27.462H463.686C463.667 27.3407 463.649 27.1633 463.63 26.93C463.611 26.6873 463.602 26.496 463.602 26.356V23.36H464.834V34H463.84L463.658 32.992H463.602C463.378 33.3093 463.079 33.58 462.706 33.804C462.333 34.028 461.852 34.14 461.264 34.14ZM461.46 33.118C462.253 33.118 462.809 32.9033 463.126 32.474C463.453 32.0353 463.616 31.3773 463.616 30.5V30.276C463.616 29.3427 463.462 28.6287 463.154 28.134C462.846 27.63 462.277 27.378 461.446 27.378C460.783 27.378 460.284 27.644 459.948 28.176C459.621 28.6987 459.458 29.4033 459.458 30.29C459.458 31.186 459.621 31.8813 459.948 32.376C460.284 32.8707 460.788 33.118 461.46 33.118ZM470.115 26.356C470.75 26.356 471.301 26.496 471.767 26.776C472.234 27.056 472.589 27.4527 472.831 27.966C473.083 28.47 473.209 29.0627 473.209 29.744V30.486H468.071C468.09 31.3353 468.305 31.984 468.715 32.432C469.135 32.8707 469.719 33.09 470.465 33.09C470.941 33.09 471.361 33.048 471.725 32.964C472.099 32.8707 472.481 32.74 472.873 32.572V33.65C472.491 33.818 472.113 33.9393 471.739 34.014C471.366 34.098 470.923 34.14 470.409 34.14C469.691 34.14 469.061 33.9953 468.519 33.706C467.978 33.4167 467.553 32.9873 467.245 32.418C466.947 31.8487 466.797 31.144 466.797 30.304C466.797 29.4827 466.933 28.778 467.203 28.19C467.483 27.602 467.871 27.1493 468.365 26.832C468.869 26.5147 469.453 26.356 470.115 26.356ZM470.101 27.364C469.513 27.364 469.047 27.5553 468.701 27.938C468.365 28.3113 468.165 28.834 468.099 29.506H471.921C471.912 28.8713 471.763 28.358 471.473 27.966C471.184 27.5647 470.727 27.364 470.101 27.364ZM478.62 26.356C478.76 26.356 478.909 26.3653 479.068 26.384C479.226 26.3933 479.371 26.412 479.502 26.44L479.348 27.574C479.226 27.546 479.091 27.5227 478.942 27.504C478.792 27.4853 478.657 27.476 478.536 27.476C478.153 27.476 477.794 27.5833 477.458 27.798C477.122 28.0033 476.851 28.2973 476.646 28.68C476.45 29.0533 476.352 29.492 476.352 29.996V34H475.12V26.496H476.128L476.268 27.868H476.324C476.557 27.4573 476.865 27.1027 477.248 26.804C477.64 26.5053 478.097 26.356 478.62 26.356Z" fill="#242424"/>
</g>
</g>
<rect x="72.5" y="0.5" width="767" height="399" stroke="#C9C9C9"/>
<circle cx="29" cy="29" r="12" fill="#D51588"/>
<path d="M30.9681 34H29.2041V27.77C29.2041 27.4713 29.2088 27.154 29.2181 26.818C29.2275 26.482 29.2415 26.1693 29.2601 25.88C29.1668 25.9733 29.0501 26.0853 28.9101 26.216C28.7795 26.3467 28.6348 26.4727 28.4761 26.594L27.3561 27.49L26.4741 26.398L29.4981 24.004H30.9681V34Z" fill="white"/>
<path d="M41 29L72 29" stroke="#D51588"/>
<circle cx="29" cy="221" r="12" fill="#D51588"/>
<path d="M32.9421 226H26.0961V224.698L28.6441 222.122C29.1481 221.609 29.5588 221.17 29.8761 220.806C30.2028 220.442 30.4408 220.101 30.5901 219.784C30.7488 219.457 30.8281 219.107 30.8281 218.734C30.8281 218.277 30.6975 217.936 30.4361 217.712C30.1841 217.479 29.8388 217.362 29.4001 217.362C28.9801 217.362 28.5881 217.451 28.2241 217.628C27.8601 217.796 27.4821 218.039 27.0901 218.356L26.1241 217.194C26.5348 216.839 26.9968 216.531 27.5101 216.27C28.0328 215.999 28.6955 215.864 29.4981 215.864C30.1421 215.864 30.6928 215.981 31.1501 216.214C31.6168 216.438 31.9761 216.755 32.2281 217.166C32.4801 217.567 32.6061 218.029 32.6061 218.552C32.6061 219.093 32.4988 219.593 32.2841 220.05C32.0695 220.498 31.7568 220.951 31.3461 221.408C30.9448 221.856 30.4641 222.341 29.9041 222.864L28.3221 224.39V224.474H32.9421V226Z" fill="white"/>
<path d="M41 221H72" stroke="#D51588"/>
<path d="M832 221H863" stroke="#D51588"/>
<circle cx="875" cy="221" r="12" fill="#D51588"/>
<path d="M878.55 218.286C878.55 218.967 878.349 219.513 877.948 219.924C877.556 220.325 877.047 220.596 876.422 220.736V220.778C877.225 220.881 877.831 221.133 878.242 221.534C878.653 221.935 878.858 222.463 878.858 223.116C878.858 223.695 878.718 224.213 878.438 224.67C878.158 225.127 877.724 225.487 877.136 225.748C876.557 226.009 875.811 226.14 874.896 226.14C874.345 226.14 873.837 226.093 873.37 226C872.913 225.916 872.479 225.781 872.068 225.594V224.04C872.488 224.255 872.936 224.418 873.412 224.53C873.888 224.642 874.336 224.698 874.756 224.698C875.568 224.698 876.142 224.553 876.478 224.264C876.814 223.965 876.982 223.555 876.982 223.032C876.982 222.537 876.786 222.169 876.394 221.926C876.002 221.683 875.349 221.562 874.434 221.562H873.594V220.148H874.448C875.335 220.148 875.946 220.003 876.282 219.714C876.618 219.425 876.786 219.051 876.786 218.594C876.786 218.193 876.655 217.88 876.394 217.656C876.133 217.432 875.741 217.32 875.218 217.32C874.714 217.32 874.28 217.404 873.916 217.572C873.552 217.731 873.225 217.903 872.936 218.09L872.096 216.872C872.479 216.592 872.931 216.354 873.454 216.158C873.977 215.962 874.593 215.864 875.302 215.864C876.338 215.864 877.136 216.083 877.696 216.522C878.265 216.961 878.55 217.549 878.55 218.286Z" fill="white"/>
</g>
<defs>
<filter id="filter0_i_6499_174845" x="72" y="58" width="160" height="342" filterUnits="userSpaceOnUse" color-interpolation-filters="sRGB">
<feFlood flood-opacity="0" result="BackgroundImageFix"/>
<feBlend mode="normal" in="SourceGraphic" in2="BackgroundImageFix" result="shape"/>
<feColorMatrix in="SourceAlpha" type="matrix" values="0 0 0 0 0 0 0 0 0 0 0 0 0 0 0 0 0 0 127 0" result="hardAlpha"/>
<feOffset dx="-1"/>
<feComposite in2="hardAlpha" operator="arithmetic" k2="-1" k3="1"/>
<feColorMatrix type="matrix" values="0 0 0 0 0.788235 0 0 0 0 0.788235 0 0 0 0 0.788235 0 0 0 1 0"/>
<feBlend mode="normal" in2="shape" result="effect1_innerShadow_6499_174845"/>
</filter>
<filter id="filter1_i_6499_174845" x="72" y="0" width="768" height="58" filterUnits="userSpaceOnUse" color-interpolation-filters="sRGB">
<feFlood flood-opacity="0" result="BackgroundImageFix"/>
<feBlend mode="normal" in="SourceGraphic" in2="BackgroundImageFix" result="shape"/>
<feColorMatrix in="SourceAlpha" type="matrix" values="0 0 0 0 0 0 0 0 0 0 0 0 0 0 0 0 0 0 127 0" result="hardAlpha"/>
<feOffset dy="-1"/>
<feComposite in2="hardAlpha" operator="arithmetic" k2="-1" k3="1"/>
<feColorMatrix type="matrix" values="0 0 0 0 0.788235 0 0 0 0 0.788235 0 0 0 0 0.788235 0 0 0 1 0"/>
<feBlend mode="normal" in2="shape" result="effect1_innerShadow_6499_174845"/>
</filter>
<clipPath id="clip0_6499_174845">
<rect width="904" height="400" fill="white"/>
</clipPath>
<clipPath id="clip1_6499_174845">
<rect x="72" width="768" height="400" fill="white"/>
</clipPath>
<clipPath id="clip2_6499_174845">
<rect x="240" y="66" width="592" height="326" rx="4" fill="white"/>
</clipPath>
</defs>
</svg>
