<svg width="269" height="32" viewBox="0 0 269 32" fill="none" xmlns="http://www.w3.org/2000/svg">
<rect width="269" height="32" fill="white"/>
<rect x="118.5" width="32" height="32" rx="2" fill="#F1F1F1"/>
<path d="M134.344 14.868C135.361 14.868 136.173 15.1247 136.78 15.638C137.396 16.1513 137.704 16.8747 137.704 17.808C137.704 18.844 137.373 19.6607 136.71 20.258C136.057 20.846 135.142 21.14 133.966 21.14C133.443 21.14 132.958 21.0933 132.51 21C132.062 20.9067 131.684 20.7713 131.376 20.594V19.432C131.712 19.6373 132.118 19.8007 132.594 19.922C133.079 20.034 133.541 20.09 133.98 20.09C134.717 20.09 135.31 19.9173 135.758 19.572C136.215 19.2173 136.444 18.6713 136.444 17.934C136.444 17.2807 136.243 16.7813 135.842 16.436C135.441 16.0813 134.806 15.904 133.938 15.904C133.677 15.904 133.378 15.9273 133.042 15.974C132.706 16.0207 132.435 16.0673 132.23 16.114L131.614 15.722L131.992 11.004H137.004V12.124H133.042L132.804 15.022C132.963 14.994 133.177 14.9613 133.448 14.924C133.719 14.8867 134.017 14.868 134.344 14.868Z" fill="#242424"/>
</svg>
