<svg width="904" height="480" viewBox="0 0 904 480" fill="none" xmlns="http://www.w3.org/2000/svg">
<g filter="url(#filter0_d_10400_51296)">
<g clip-path="url(#clip0_10400_51296)">
<rect x="12.5" y="4.5" width="879" height="573" rx="7.5" stroke="#C9C9C9"/>
<g filter="url(#filter1_i_10400_51296)">
<rect width="200" height="516" transform="translate(12 62)" fill="white"/>
<rect width="200" height="48" transform="translate(12 62)" fill="white"/>
<path d="M40 98C34.201 98 29.5 93.299 29.5 87.5C29.5 81.701 34.201 77 40 77C45.799 77 50.5 81.701 50.5 87.5C50.5 93.299 45.799 98 40 98Z" fill="#C9C9C9"/>
<rect x="59" y="81" width="120" height="12" rx="2" fill="#C9C9C9"/>
<rect width="200" height="48" transform="translate(12 110)" fill="white"/>
<path d="M40 146C34.201 146 29.5 141.299 29.5 135.5C29.5 129.701 34.201 125 40 125C45.799 125 50.5 129.701 50.5 135.5C50.5 141.299 45.799 146 40 146Z" fill="#C9C9C9"/>
<rect x="59" y="129" width="120" height="12" rx="2" fill="#C9C9C9"/>
<rect width="200" height="48" transform="translate(12 158)" fill="white"/>
<path d="M40 194C34.201 194 29.5 189.299 29.5 183.5C29.5 177.701 34.201 173 40 173C45.799 173 50.5 177.701 50.5 183.5C50.5 189.299 45.799 194 40 194Z" fill="#C9C9C9"/>
<rect x="59" y="177" width="120" height="12" rx="2" fill="#C9C9C9"/>
<rect width="200" height="48" transform="translate(12 206)" fill="white"/>
<path d="M40 242C34.201 242 29.5 237.299 29.5 231.5C29.5 225.701 34.201 221 40 221C45.799 221 50.5 225.701 50.5 231.5C50.5 237.299 45.799 242 40 242Z" fill="#C9C9C9"/>
<rect x="59" y="225" width="120" height="12" rx="2" fill="#C9C9C9"/>
</g>
<rect width="680" height="516" transform="translate(212 62)" fill="#F1F1F1"/>
<rect x="220.5" y="70.5" width="663" height="499" rx="3.5" fill="white"/>
<rect x="220.5" y="70.5" width="663" height="499" rx="3.5" stroke="#C9C9C9"/>
<rect x="252.5" y="110.5" width="279" height="23" stroke="#C9C9C9"/>
<rect x="252.5" y="146.5" width="279" height="23" stroke="#C9C9C9"/>
<rect x="252.5" y="182.5" width="279" height="23" stroke="#C9C9C9"/>
<rect x="252.5" y="218.5" width="279" height="23" stroke="#C9C9C9"/>
<rect x="252.5" y="254.5" width="279" height="23" stroke="#C9C9C9"/>
<rect x="252.5" y="290.5" width="279" height="23" stroke="#C9C9C9"/>
<rect x="252.5" y="326.5" width="279" height="23" stroke="#C9C9C9"/>
<rect x="252.5" y="362.5" width="279" height="23" stroke="#C9C9C9"/>
<rect x="252.5" y="398.5" width="279" height="23" stroke="#C9C9C9"/>
<rect x="252.5" y="434.5" width="279" height="23" stroke="#C9C9C9"/>
<rect opacity="0.3" x="12" y="62" width="595" height="406" fill="#242424"/>
<g filter="url(#filter2_d_10400_51296)">
<rect width="285.12" height="406" transform="translate(607 62)" fill="white"/>
<mask id="path-24-inside-1_10400_51296" fill="white">
<path d="M607 62H892.12V110.92H607V62Z"/>
</mask>
<path d="M607 62H892.12V110.92H607V62Z" fill="white"/>
<path d="M892.12 110.11H607V111.73H892.12V110.11Z" fill="#C9C9C9" mask="url(#path-24-inside-1_10400_51296)"/>
<path d="M631.411 91.96H630.026V82.1873H626.594V80.9715H634.827V82.1873H631.411V91.96ZM636.992 80.6175C637.198 80.6175 637.377 80.6894 637.531 80.833C637.695 80.9664 637.777 81.1818 637.777 81.4794C637.777 81.7769 637.695 81.9975 637.531 82.1411C637.377 82.2745 637.198 82.3412 636.992 82.3412C636.767 82.3412 636.577 82.2745 636.423 82.1411C636.269 81.9975 636.192 81.7769 636.192 81.4794C636.192 81.1818 636.269 80.9664 636.423 80.833C636.577 80.6894 636.767 80.6175 636.992 80.6175ZM637.654 83.7109V91.96H636.3V83.7109H637.654ZM643.022 91.0058C643.228 91.0058 643.438 90.9904 643.653 90.9596C643.869 90.9288 644.043 90.8878 644.177 90.8365V91.8676C644.033 91.9394 643.828 91.9959 643.561 92.0369C643.294 92.0882 643.038 92.1139 642.791 92.1139C642.361 92.1139 641.96 92.042 641.591 91.8984C641.232 91.7445 640.94 91.4829 640.714 91.1135C640.488 90.7442 640.375 90.226 640.375 89.5591V84.7574H639.206V84.1111L640.391 83.5724L640.929 81.818H641.73V83.7109H644.115V84.7574H641.73V89.5283C641.73 90.0311 641.848 90.4056 642.084 90.6518C642.33 90.8878 642.643 91.0058 643.022 91.0058ZM647.183 91.96H645.828V80.2636H647.183V91.96ZM652.982 83.557C653.679 83.557 654.285 83.7109 654.798 84.0187C655.311 84.3265 655.701 84.7626 655.967 85.3269C656.244 85.8809 656.383 86.5324 656.383 87.2814V88.0971H650.735C650.755 89.0307 650.991 89.7438 651.443 90.2363C651.904 90.7185 652.546 90.9596 653.367 90.9596C653.89 90.9596 654.352 90.9134 654.752 90.8211C655.162 90.7185 655.583 90.5749 656.014 90.3902V91.5752C655.593 91.7599 655.177 91.8933 654.767 91.9754C654.357 92.0677 653.869 92.1139 653.305 92.1139C652.515 92.1139 651.822 91.9548 651.227 91.6368C650.632 91.3187 650.165 90.8468 649.827 90.2209C649.499 89.595 649.334 88.8204 649.334 87.897C649.334 86.9941 649.483 86.2195 649.781 85.5731C650.088 84.9267 650.514 84.4291 651.058 84.0803C651.612 83.7314 652.253 83.557 652.982 83.557ZM652.966 84.6651C652.32 84.6651 651.807 84.8754 651.427 85.2961C651.058 85.7065 650.837 86.2811 650.766 87.0198H654.967C654.957 86.3221 654.793 85.7578 654.475 85.3269C654.157 84.8857 653.654 84.6651 652.966 84.6651Z" fill="#242424"/>
<rect width="19.44" height="19.44" transform="translate(853.24 76.5801)" fill="#F1F1F1"/>
<path d="M863.598 86.3076L867.669 82.2373C867.851 82.0551 867.851 81.7513 867.669 81.5691C867.486 81.3868 867.183 81.3868 867 81.5691L862.991 85.6393L858.921 81.5691C858.738 81.3868 858.435 81.3868 858.252 81.5691C858.07 81.7513 858.07 82.0551 858.252 82.2373L862.323 86.3076L858.252 90.3778C858.07 90.5601 858.07 90.8638 858.252 91.0461C858.313 91.1068 858.435 91.1676 858.556 91.1676C858.678 91.1676 858.799 91.1068 858.86 91.0461L862.991 86.9151L867.061 90.9853C867.122 91.0461 867.243 91.1068 867.365 91.1068C867.486 91.1068 867.608 91.0461 867.669 90.9853C867.851 90.8031 867.851 90.4993 867.669 90.3171L863.598 86.3076Z" fill="#242424"/>
<path d="M628.258 130.64H627.383V123.7H631.261V124.468H628.258V126.927H631.076V127.695H628.258V130.64ZM632.744 123.476C632.873 123.476 632.987 123.522 633.084 123.612C633.188 123.697 633.24 123.833 633.24 124.021C633.24 124.208 633.188 124.348 633.084 124.439C632.987 124.523 632.873 124.565 632.744 124.565C632.601 124.565 632.481 124.523 632.384 124.439C632.287 124.348 632.238 124.208 632.238 124.021C632.238 123.833 632.287 123.697 632.384 123.612C632.481 123.522 632.601 123.476 632.744 123.476ZM633.162 125.43V130.64H632.306V125.43H633.162ZM637.242 125.333C637.34 125.333 637.443 125.339 637.553 125.352C637.664 125.359 637.764 125.372 637.855 125.391L637.748 126.178C637.664 126.159 637.57 126.143 637.466 126.13C637.362 126.117 637.268 126.11 637.184 126.11C636.918 126.11 636.669 126.185 636.436 126.334C636.202 126.476 636.014 126.681 635.872 126.946C635.736 127.205 635.668 127.51 635.668 127.86V130.64H634.812V125.43H635.512L635.609 126.383H635.648C635.81 126.097 636.024 125.851 636.29 125.644C636.562 125.436 636.88 125.333 637.242 125.333ZM642.22 129.201C642.22 129.707 642.032 130.089 641.656 130.348C641.28 130.607 640.775 130.737 640.14 130.737C639.777 130.737 639.463 130.708 639.197 130.65C638.938 130.591 638.708 130.51 638.507 130.407V129.629C638.714 129.733 638.964 129.83 639.255 129.921C639.553 130.005 639.855 130.047 640.159 130.047C640.593 130.047 640.908 129.979 641.102 129.843C641.297 129.7 641.394 129.512 641.394 129.279C641.394 129.149 641.358 129.033 641.287 128.929C641.216 128.825 641.086 128.722 640.898 128.618C640.717 128.514 640.454 128.398 640.111 128.268C639.774 128.139 639.485 128.009 639.246 127.879C639.006 127.75 638.821 127.594 638.692 127.413C638.562 127.231 638.497 126.998 638.497 126.713C638.497 126.272 638.675 125.932 639.032 125.692C639.395 125.453 639.868 125.333 640.451 125.333C640.768 125.333 641.063 125.365 641.335 125.43C641.614 125.495 641.873 125.579 642.113 125.683L641.821 126.363C641.601 126.272 641.371 126.195 641.131 126.13C640.892 126.065 640.645 126.033 640.393 126.033C640.043 126.033 639.774 126.091 639.586 126.208C639.404 126.318 639.314 126.47 639.314 126.664C639.314 126.813 639.356 126.937 639.44 127.034C639.524 127.131 639.664 127.228 639.858 127.325C640.059 127.423 640.325 127.533 640.655 127.656C640.985 127.779 641.267 127.905 641.501 128.035C641.734 128.165 641.912 128.323 642.035 128.511C642.158 128.693 642.22 128.923 642.22 129.201ZM645.219 130.037C645.348 130.037 645.481 130.028 645.617 130.008C645.753 129.989 645.863 129.963 645.948 129.93V130.582C645.857 130.627 645.727 130.663 645.559 130.688C645.39 130.721 645.228 130.737 645.073 130.737C644.801 130.737 644.548 130.692 644.315 130.601C644.088 130.504 643.903 130.339 643.761 130.105C643.618 129.872 643.547 129.545 643.547 129.124V126.091H642.808V125.683L643.557 125.342L643.897 124.234H644.402V125.43H645.909V126.091H644.402V129.104C644.402 129.422 644.477 129.658 644.626 129.814C644.781 129.963 644.979 130.037 645.219 130.037ZM655.134 130.64H654.113L650.4 124.876H650.361C650.374 125.103 650.391 125.385 650.41 125.722C650.43 126.059 650.439 126.405 650.439 126.762V130.64H649.632V123.7H650.643L654.347 129.444H654.386C654.379 129.341 654.369 129.185 654.356 128.978C654.35 128.77 654.34 128.547 654.327 128.307C654.321 128.061 654.318 127.831 654.318 127.617V123.7H655.134V130.64ZM658.874 125.342C659.509 125.342 659.979 125.482 660.283 125.76C660.588 126.039 660.74 126.483 660.74 127.092V130.64H660.118L659.953 129.901H659.914C659.687 130.186 659.447 130.397 659.195 130.533C658.942 130.669 658.599 130.737 658.164 130.737C657.691 130.737 657.299 130.614 656.988 130.368C656.677 130.115 656.522 129.723 656.522 129.192C656.522 128.673 656.726 128.275 657.134 127.996C657.542 127.711 658.171 127.555 659.02 127.529L659.904 127.5V127.189C659.904 126.755 659.81 126.454 659.622 126.285C659.434 126.117 659.169 126.033 658.825 126.033C658.553 126.033 658.294 126.075 658.048 126.159C657.801 126.237 657.571 126.327 657.358 126.431L657.095 125.79C657.322 125.666 657.591 125.563 657.902 125.479C658.213 125.388 658.537 125.342 658.874 125.342ZM659.895 128.093L659.127 128.122C658.479 128.148 658.028 128.252 657.776 128.433C657.529 128.615 657.406 128.871 657.406 129.201C657.406 129.493 657.494 129.707 657.669 129.843C657.85 129.979 658.08 130.047 658.359 130.047C658.793 130.047 659.156 129.927 659.447 129.687C659.745 129.441 659.895 129.065 659.895 128.56V128.093ZM668.065 125.333C668.654 125.333 669.095 125.485 669.387 125.79C669.678 126.094 669.824 126.58 669.824 127.248V130.64H668.978V127.286C668.978 126.464 668.625 126.052 667.919 126.052C667.413 126.052 667.051 126.198 666.83 126.489C666.616 126.781 666.509 127.205 666.509 127.763V130.64H665.664V127.286C665.664 126.464 665.307 126.052 664.595 126.052C664.07 126.052 663.707 126.214 663.506 126.538C663.305 126.862 663.205 127.329 663.205 127.938V130.64H662.349V125.43H663.039L663.166 126.14H663.214C663.376 125.867 663.593 125.666 663.866 125.537C664.144 125.401 664.439 125.333 664.75 125.333C665.567 125.333 666.098 125.624 666.344 126.208H666.393C666.568 125.909 666.804 125.689 667.102 125.547C667.4 125.404 667.721 125.333 668.065 125.333ZM673.445 125.333C673.886 125.333 674.268 125.43 674.592 125.624C674.916 125.819 675.163 126.094 675.331 126.451C675.506 126.8 675.593 127.212 675.593 127.685V128.2H672.026C672.039 128.79 672.188 129.24 672.473 129.551C672.765 129.856 673.17 130.008 673.688 130.008C674.019 130.008 674.31 129.979 674.563 129.921C674.822 129.856 675.088 129.765 675.36 129.648V130.397C675.094 130.514 674.832 130.598 674.573 130.65C674.314 130.708 674.006 130.737 673.649 130.737C673.15 130.737 672.713 130.637 672.337 130.436C671.961 130.235 671.667 129.937 671.453 129.542C671.245 129.146 671.142 128.657 671.142 128.074C671.142 127.504 671.236 127.014 671.424 126.606C671.618 126.198 671.887 125.884 672.23 125.663C672.58 125.443 672.985 125.333 673.445 125.333ZM673.436 126.033C673.027 126.033 672.703 126.165 672.464 126.431C672.23 126.69 672.091 127.053 672.046 127.52H674.699C674.693 127.079 674.589 126.723 674.388 126.451C674.187 126.172 673.87 126.033 673.436 126.033Z" fill="#242424"/>
<path d="M628.06 137.285H871.06C871.731 137.285 872.275 137.829 872.275 138.5V164.42C872.275 165.091 871.731 165.635 871.06 165.635H628.06C627.389 165.635 626.845 165.091 626.845 164.42V138.5C626.845 137.829 627.389 137.285 628.06 137.285Z" fill="white"/>
<path d="M628.06 137.285H871.06C871.731 137.285 872.275 137.829 872.275 138.5V164.42C872.275 165.091 871.731 165.635 871.06 165.635H628.06C627.389 165.635 626.845 165.091 626.845 164.42V138.5C626.845 137.829 627.389 137.285 628.06 137.285Z" stroke="#939393" stroke-width="0.81"/>
<path d="M627.383 189V182.06H628.258V188.222H631.29V189H627.383ZM634.337 183.703C634.972 183.703 635.441 183.842 635.746 184.121C636.051 184.399 636.203 184.843 636.203 185.452V189H635.581L635.416 188.261H635.377C635.15 188.546 634.91 188.757 634.657 188.893C634.405 189.029 634.061 189.097 633.627 189.097C633.154 189.097 632.762 188.974 632.451 188.728C632.14 188.475 631.984 188.083 631.984 187.552C631.984 187.033 632.188 186.635 632.597 186.356C633.005 186.071 633.634 185.916 634.482 185.89L635.367 185.86V185.549C635.367 185.115 635.273 184.814 635.085 184.645C634.897 184.477 634.631 184.393 634.288 184.393C634.016 184.393 633.757 184.435 633.51 184.519C633.264 184.597 633.034 184.688 632.82 184.791L632.558 184.15C632.785 184.027 633.054 183.923 633.365 183.839C633.676 183.748 634 183.703 634.337 183.703ZM635.357 186.453L634.589 186.483C633.941 186.508 633.491 186.612 633.238 186.794C632.992 186.975 632.869 187.231 632.869 187.561C632.869 187.853 632.956 188.067 633.131 188.203C633.313 188.339 633.543 188.407 633.821 188.407C634.256 188.407 634.618 188.287 634.91 188.047C635.208 187.801 635.357 187.425 635.357 186.92V186.453ZM641.204 187.561C641.204 188.067 641.016 188.449 640.64 188.708C640.265 188.968 639.759 189.097 639.124 189.097C638.761 189.097 638.447 189.068 638.181 189.01C637.922 188.951 637.692 188.87 637.491 188.767V187.989C637.699 188.093 637.948 188.19 638.24 188.281C638.538 188.365 638.839 188.407 639.144 188.407C639.578 188.407 639.892 188.339 640.086 188.203C640.281 188.06 640.378 187.872 640.378 187.639C640.378 187.51 640.342 187.393 640.271 187.289C640.2 187.186 640.07 187.082 639.882 186.978C639.701 186.875 639.438 186.758 639.095 186.628C638.758 186.499 638.47 186.369 638.23 186.24C637.99 186.11 637.805 185.954 637.676 185.773C637.546 185.592 637.481 185.358 637.481 185.073C637.481 184.632 637.66 184.292 638.016 184.053C638.379 183.813 638.852 183.693 639.435 183.693C639.753 183.693 640.048 183.725 640.32 183.79C640.598 183.855 640.858 183.939 641.097 184.043L640.806 184.723C640.585 184.632 640.355 184.555 640.116 184.49C639.876 184.425 639.63 184.393 639.377 184.393C639.027 184.393 638.758 184.451 638.57 184.568C638.389 184.678 638.298 184.83 638.298 185.025C638.298 185.174 638.34 185.297 638.424 185.394C638.509 185.491 638.648 185.588 638.842 185.685C639.043 185.783 639.309 185.893 639.639 186.016C639.97 186.139 640.252 186.265 640.485 186.395C640.718 186.525 640.896 186.683 641.02 186.871C641.143 187.053 641.204 187.283 641.204 187.561ZM644.203 188.397C644.333 188.397 644.465 188.388 644.602 188.368C644.738 188.349 644.848 188.323 644.932 188.29V188.942C644.841 188.987 644.712 189.023 644.543 189.049C644.375 189.081 644.213 189.097 644.057 189.097C643.785 189.097 643.532 189.052 643.299 188.961C643.072 188.864 642.888 188.699 642.745 188.465C642.602 188.232 642.531 187.905 642.531 187.484V184.451H641.792V184.043L642.541 183.703L642.881 182.595H643.387V183.79H644.893V184.451H643.387V187.464C643.387 187.782 643.461 188.018 643.61 188.174C643.766 188.323 643.963 188.397 644.203 188.397ZM654.118 189H653.098L649.385 183.236H649.346C649.359 183.463 649.375 183.745 649.394 184.082C649.414 184.419 649.424 184.765 649.424 185.122V189H648.617V182.06H649.628L653.331 187.804H653.37C653.363 187.701 653.354 187.545 653.341 187.338C653.334 187.131 653.325 186.907 653.312 186.667C653.305 186.421 653.302 186.191 653.302 185.977V182.06H654.118V189ZM657.858 183.703C658.493 183.703 658.963 183.842 659.268 184.121C659.572 184.399 659.724 184.843 659.724 185.452V189H659.102L658.937 188.261H658.898C658.671 188.546 658.432 188.757 658.179 188.893C657.926 189.029 657.583 189.097 657.149 189.097C656.676 189.097 656.284 188.974 655.973 188.728C655.662 188.475 655.506 188.083 655.506 187.552C655.506 187.033 655.71 186.635 656.118 186.356C656.527 186.071 657.155 185.916 658.004 185.89L658.889 185.86V185.549C658.889 185.115 658.795 184.814 658.607 184.645C658.419 184.477 658.153 184.393 657.81 184.393C657.537 184.393 657.278 184.435 657.032 184.519C656.786 184.597 656.556 184.688 656.342 184.791L656.079 184.15C656.306 184.027 656.575 183.923 656.886 183.839C657.197 183.748 657.521 183.703 657.858 183.703ZM658.879 186.453L658.111 186.483C657.463 186.508 657.013 186.612 656.76 186.794C656.514 186.975 656.391 187.231 656.391 187.561C656.391 187.853 656.478 188.067 656.653 188.203C656.834 188.339 657.064 188.407 657.343 188.407C657.777 188.407 658.14 188.287 658.432 188.047C658.73 187.801 658.879 187.425 658.879 186.92V186.453ZM667.049 183.693C667.639 183.693 668.079 183.845 668.371 184.15C668.662 184.454 668.808 184.94 668.808 185.608V189H667.963V185.647C667.963 184.824 667.609 184.412 666.903 184.412C666.398 184.412 666.035 184.558 665.815 184.85C665.601 185.141 665.494 185.566 665.494 186.123V189H664.648V185.647C664.648 184.824 664.292 184.412 663.579 184.412C663.054 184.412 662.691 184.574 662.49 184.898C662.289 185.222 662.189 185.689 662.189 186.298V189H661.334V183.79H662.024L662.15 184.5H662.199C662.361 184.227 662.578 184.027 662.85 183.897C663.129 183.761 663.423 183.693 663.734 183.693C664.551 183.693 665.082 183.984 665.329 184.568H665.377C665.552 184.27 665.789 184.049 666.087 183.907C666.385 183.764 666.706 183.693 667.049 183.693ZM672.43 183.693C672.87 183.693 673.253 183.79 673.577 183.984C673.901 184.179 674.147 184.454 674.315 184.811C674.49 185.161 674.578 185.572 674.578 186.045V186.56H671.011C671.024 187.15 671.173 187.6 671.458 187.911C671.749 188.216 672.154 188.368 672.673 188.368C673.003 188.368 673.295 188.339 673.547 188.281C673.807 188.216 674.072 188.125 674.345 188.009V188.757C674.079 188.874 673.816 188.958 673.557 189.01C673.298 189.068 672.99 189.097 672.634 189.097C672.135 189.097 671.697 188.997 671.322 188.796C670.946 188.595 670.651 188.297 670.437 187.902C670.23 187.506 670.126 187.017 670.126 186.434C670.126 185.864 670.22 185.374 670.408 184.966C670.602 184.558 670.871 184.244 671.215 184.023C671.565 183.803 671.97 183.693 672.43 183.693ZM672.42 184.393C672.012 184.393 671.688 184.526 671.448 184.791C671.215 185.05 671.075 185.413 671.03 185.88H673.684C673.677 185.439 673.573 185.083 673.373 184.811C673.172 184.532 672.854 184.393 672.42 184.393Z" fill="#242424"/>
<path d="M628.06 195.645H871.06C871.731 195.645 872.275 196.189 872.275 196.86V222.78C872.275 223.451 871.731 223.995 871.06 223.995H628.06C627.389 223.995 626.845 223.451 626.845 222.78V196.86C626.845 196.189 627.389 195.645 628.06 195.645Z" fill="white"/>
<path d="M628.06 195.645H871.06C871.731 195.645 872.275 196.189 872.275 196.86V222.78C872.275 223.451 871.731 223.995 871.06 223.995H628.06C627.389 223.995 626.845 223.451 626.845 222.78V196.86C626.845 196.189 627.389 195.645 628.06 195.645Z" stroke="#939393" stroke-width="0.81"/>
<path d="M631.261 247.36H627.383V240.42H631.261V241.188H628.258V243.355H631.086V244.113H628.258V246.592H631.261V247.36ZM638.383 242.053C638.972 242.053 639.413 242.205 639.704 242.51C639.996 242.814 640.142 243.3 640.142 243.968V247.36H639.296V244.006C639.296 243.184 638.943 242.772 638.237 242.772C637.731 242.772 637.368 242.918 637.148 243.209C636.934 243.501 636.827 243.925 636.827 244.483V247.36H635.982V244.006C635.982 243.184 635.625 242.772 634.913 242.772C634.388 242.772 634.025 242.934 633.824 243.258C633.623 243.582 633.523 244.049 633.523 244.658V247.36H632.667V242.15H633.357L633.484 242.86H633.532C633.694 242.587 633.911 242.386 634.184 242.257C634.462 242.121 634.757 242.053 635.068 242.053C635.885 242.053 636.416 242.344 636.662 242.928H636.711C636.886 242.629 637.122 242.409 637.42 242.267C637.718 242.124 638.039 242.053 638.383 242.053ZM643.724 242.062C644.359 242.062 644.829 242.202 645.134 242.48C645.438 242.759 645.591 243.203 645.591 243.812V247.36H644.969L644.803 246.621H644.764C644.538 246.906 644.298 247.117 644.045 247.253C643.792 247.389 643.449 247.457 643.015 247.457C642.542 247.457 642.15 247.334 641.839 247.088C641.528 246.835 641.372 246.443 641.372 245.912C641.372 245.393 641.576 244.995 641.984 244.716C642.393 244.431 643.021 244.275 643.87 244.249L644.755 244.22V243.909C644.755 243.475 644.661 243.174 644.473 243.005C644.285 242.837 644.019 242.753 643.676 242.753C643.404 242.753 643.144 242.795 642.898 242.879C642.652 242.957 642.422 243.047 642.208 243.151L641.946 242.51C642.172 242.386 642.441 242.283 642.752 242.199C643.063 242.108 643.387 242.062 643.724 242.062ZM644.745 244.813L643.977 244.842C643.329 244.868 642.879 244.972 642.626 245.153C642.38 245.335 642.257 245.591 642.257 245.921C642.257 246.213 642.344 246.427 642.519 246.563C642.701 246.699 642.931 246.767 643.209 246.767C643.643 246.767 644.006 246.647 644.298 246.407C644.596 246.161 644.745 245.785 644.745 245.28V244.813ZM647.637 240.196C647.767 240.196 647.88 240.242 647.977 240.332C648.081 240.417 648.133 240.553 648.133 240.741C648.133 240.928 648.081 241.068 647.977 241.159C647.88 241.243 647.767 241.285 647.637 241.285C647.495 241.285 647.375 241.243 647.277 241.159C647.18 241.068 647.132 240.928 647.132 240.741C647.132 240.553 647.18 240.417 647.277 240.332C647.375 240.242 647.495 240.196 647.637 240.196ZM648.055 242.15V247.36H647.2V242.15H648.055ZM650.561 247.36H649.706V239.973H650.561V247.36Z" fill="#242424"/>
<path d="M628.06 254.005H871.06C871.731 254.005 872.275 254.549 872.275 255.22V281.14C872.275 281.811 871.731 282.355 871.06 282.355H628.06C627.389 282.355 626.845 281.811 626.845 281.14V255.22C626.845 254.549 627.389 254.005 628.06 254.005Z" fill="white"/>
<path d="M628.06 254.005H871.06C871.731 254.005 872.275 254.549 872.275 255.22V281.14C872.275 281.811 871.731 282.355 871.06 282.355H628.06C627.389 282.355 626.845 281.811 626.845 281.14V255.22C626.845 254.549 627.389 254.005 628.06 254.005Z" stroke="#939393" stroke-width="0.81"/>
<path d="M630.357 299.45C629.612 299.45 629.025 299.7 628.598 300.199C628.17 300.698 627.956 301.381 627.956 302.25C627.956 303.112 628.154 303.795 628.549 304.301C628.951 304.8 629.55 305.049 630.347 305.049C630.645 305.049 630.931 305.023 631.203 304.971C631.475 304.919 631.744 304.855 632.01 304.777V305.535C631.75 305.632 631.481 305.704 631.203 305.749C630.931 305.794 630.603 305.817 630.221 305.817C629.515 305.817 628.925 305.671 628.452 305.38C627.979 305.088 627.623 304.673 627.383 304.135C627.15 303.598 627.033 302.966 627.033 302.24C627.033 301.54 627.159 300.925 627.412 300.393C627.671 299.855 628.05 299.437 628.549 299.139C629.048 298.835 629.654 298.682 630.367 298.682C631.099 298.682 631.737 298.819 632.282 299.091L631.932 299.829C631.718 299.732 631.478 299.645 631.212 299.567C630.953 299.489 630.668 299.45 630.357 299.45ZM637.937 303.105C637.937 303.967 637.717 304.634 637.276 305.107C636.842 305.58 636.252 305.817 635.507 305.817C635.047 305.817 634.636 305.713 634.273 305.506C633.916 305.292 633.634 304.984 633.427 304.582C633.22 304.174 633.116 303.682 633.116 303.105C633.116 302.243 633.33 301.579 633.758 301.112C634.192 300.646 634.785 300.413 635.536 300.413C636.003 300.413 636.418 300.52 636.78 300.733C637.143 300.941 637.425 301.245 637.626 301.647C637.833 302.042 637.937 302.528 637.937 303.105ZM634.001 303.105C634.001 303.721 634.12 304.21 634.36 304.573C634.606 304.929 634.995 305.107 635.527 305.107C636.051 305.107 636.437 304.929 636.683 304.573C636.929 304.21 637.053 303.721 637.053 303.105C637.053 302.489 636.929 302.007 636.683 301.657C636.437 301.307 636.048 301.132 635.517 301.132C634.985 301.132 634.6 301.307 634.36 301.657C634.12 302.007 634.001 302.489 634.001 303.105ZM645.008 300.413C645.598 300.413 646.038 300.565 646.33 300.869C646.622 301.174 646.767 301.66 646.767 302.327V305.72H645.922V302.366C645.922 301.543 645.569 301.132 644.862 301.132C644.357 301.132 643.994 301.278 643.774 301.569C643.56 301.861 643.453 302.285 643.453 302.843V305.72H642.607V302.366C642.607 301.543 642.251 301.132 641.538 301.132C641.013 301.132 640.65 301.294 640.449 301.618C640.249 301.942 640.148 302.408 640.148 303.018V305.72H639.293V300.51H639.983L640.109 301.219H640.158C640.32 300.947 640.537 300.746 640.809 300.617C641.088 300.481 641.383 300.413 641.694 300.413C642.51 300.413 643.041 300.704 643.288 301.287H643.336C643.511 300.989 643.748 300.769 644.046 300.626C644.344 300.484 644.665 300.413 645.008 300.413ZM650.855 300.413C651.497 300.413 652.012 300.636 652.401 301.083C652.796 301.53 652.994 302.204 652.994 303.105C652.994 303.993 652.796 304.667 652.401 305.127C652.012 305.587 651.494 305.817 650.846 305.817C650.444 305.817 650.11 305.742 649.844 305.593C649.585 305.444 649.381 305.266 649.232 305.059H649.174C649.18 305.169 649.19 305.308 649.203 305.477C649.222 305.645 649.232 305.791 649.232 305.914V308.053H648.377V300.51H649.077L649.193 301.219H649.232C649.388 300.993 649.592 300.801 649.844 300.646C650.097 300.49 650.434 300.413 650.855 300.413ZM650.7 301.132C650.168 301.132 649.793 301.281 649.572 301.579C649.352 301.877 649.239 302.331 649.232 302.94V303.105C649.232 303.747 649.336 304.242 649.543 304.592C649.757 304.936 650.149 305.107 650.719 305.107C651.03 305.107 651.29 305.023 651.497 304.855C651.704 304.68 651.857 304.44 651.954 304.135C652.057 303.831 652.109 303.484 652.109 303.095C652.109 302.499 651.993 302.023 651.759 301.666C651.533 301.31 651.179 301.132 650.7 301.132ZM656.33 300.422C656.965 300.422 657.435 300.562 657.739 300.84C658.044 301.119 658.196 301.563 658.196 302.172V305.72H657.574L657.409 304.981H657.37C657.143 305.266 656.903 305.477 656.651 305.613C656.398 305.749 656.055 305.817 655.62 305.817C655.147 305.817 654.755 305.694 654.444 305.448C654.133 305.195 653.978 304.803 653.978 304.271C653.978 303.753 654.182 303.355 654.59 303.076C654.998 302.791 655.627 302.635 656.476 302.609L657.36 302.58V302.269C657.36 301.835 657.266 301.534 657.078 301.365C656.891 301.197 656.625 301.112 656.281 301.112C656.009 301.112 655.75 301.155 655.504 301.239C655.258 301.317 655.028 301.407 654.814 301.511L654.551 300.869C654.778 300.746 655.047 300.643 655.358 300.558C655.669 300.468 655.993 300.422 656.33 300.422ZM657.351 303.173L656.583 303.202C655.935 303.228 655.484 303.332 655.232 303.513C654.985 303.695 654.862 303.951 654.862 304.281C654.862 304.573 654.95 304.787 655.125 304.923C655.306 305.059 655.536 305.127 655.815 305.127C656.249 305.127 656.612 305.007 656.903 304.767C657.202 304.521 657.351 304.145 657.351 303.64V303.173ZM662.313 300.413C662.935 300.413 663.405 300.565 663.723 300.869C664.04 301.174 664.199 301.66 664.199 302.327V305.72H663.353V302.386C663.353 301.55 662.964 301.132 662.187 301.132C661.61 301.132 661.212 301.294 660.991 301.618C660.771 301.942 660.661 302.408 660.661 303.018V305.72H659.805V300.51H660.495L660.622 301.219H660.67C660.839 300.947 661.072 300.746 661.37 300.617C661.668 300.481 661.983 300.413 662.313 300.413ZM664.997 300.51H665.911L667.039 303.474C667.136 303.74 667.223 303.99 667.301 304.223C667.379 304.456 667.437 304.68 667.476 304.894H667.515C667.554 304.732 667.615 304.521 667.7 304.262C667.784 303.996 667.871 303.73 667.962 303.465L669.022 300.51H669.945L667.7 306.439C667.512 306.931 667.275 307.324 666.99 307.615C666.705 307.907 666.31 308.053 665.804 308.053C665.649 308.053 665.513 308.043 665.396 308.023C665.279 308.01 665.179 307.994 665.095 307.975V307.294C665.166 307.307 665.25 307.32 665.347 307.333C665.451 307.346 665.558 307.353 665.668 307.353C665.966 307.353 666.206 307.268 666.387 307.1C666.569 306.931 666.715 306.708 666.825 306.429L667.097 305.739L664.997 300.51ZM675.364 305.72H672.856V305.214L673.673 305.03V299.479L672.856 299.285V298.78H675.364V299.285L674.548 299.479V305.03L675.364 305.214V305.72ZM682.264 302.182C682.264 303.355 681.943 304.239 681.302 304.835C680.667 305.425 679.779 305.72 678.638 305.72H676.704V298.78H678.843C679.536 298.78 680.139 298.909 680.651 299.168C681.169 299.428 681.567 299.81 681.846 300.315C682.125 300.821 682.264 301.443 682.264 302.182ZM681.341 302.211C681.341 301.284 681.111 300.607 680.651 300.179C680.197 299.745 679.552 299.528 678.716 299.528H677.579V304.971H678.522C680.401 304.971 681.341 304.051 681.341 302.211Z" fill="#242424"/>
<path d="M628.06 312.365H871.06C871.731 312.365 872.275 312.909 872.275 313.58V339.5C872.275 340.171 871.731 340.715 871.06 340.715H628.06C627.389 340.715 626.845 340.171 626.845 339.5V313.58C626.845 312.909 627.389 312.365 628.06 312.365Z" fill="white"/>
<path d="M628.06 312.365H871.06C871.731 312.365 872.275 312.909 872.275 313.58V339.5C872.275 340.171 871.731 340.715 871.06 340.715H628.06C627.389 340.715 626.845 340.171 626.845 339.5V313.58C626.845 312.909 627.389 312.365 628.06 312.365Z" stroke="#939393" stroke-width="0.81"/>
<path d="M629.298 357.14C630.159 357.14 630.795 357.305 631.203 357.636C631.617 357.96 631.825 358.452 631.825 359.113C631.825 359.483 631.757 359.79 631.621 360.037C631.485 360.283 631.31 360.48 631.096 360.629C630.888 360.779 630.668 360.892 630.435 360.97L632.34 364.08H631.319L629.638 361.213H628.258V364.08H627.383V357.14H629.298ZM629.249 357.898H628.258V360.474H629.298C629.861 360.474 630.273 360.364 630.532 360.143C630.791 359.917 630.921 359.586 630.921 359.152C630.921 358.698 630.785 358.378 630.513 358.19C630.24 357.995 629.819 357.898 629.249 357.898ZM635.325 358.773C635.765 358.773 636.148 358.87 636.472 359.065C636.796 359.259 637.042 359.534 637.21 359.891C637.385 360.241 637.473 360.652 637.473 361.125V361.64H633.906C633.919 362.23 634.068 362.68 634.353 362.991C634.644 363.296 635.049 363.448 635.568 363.448C635.898 363.448 636.19 363.419 636.443 363.361C636.702 363.296 636.967 363.205 637.24 363.089V363.837C636.974 363.954 636.711 364.038 636.452 364.09C636.193 364.148 635.885 364.177 635.529 364.177C635.03 364.177 634.592 364.077 634.217 363.876C633.841 363.675 633.546 363.377 633.332 362.982C633.125 362.586 633.021 362.097 633.021 361.514C633.021 360.944 633.115 360.455 633.303 360.046C633.497 359.638 633.766 359.324 634.11 359.103C634.46 358.883 634.865 358.773 635.325 358.773ZM635.315 359.473C634.907 359.473 634.583 359.606 634.343 359.871C634.11 360.131 633.97 360.493 633.925 360.96H636.579C636.572 360.519 636.468 360.163 636.268 359.891C636.067 359.612 635.749 359.473 635.315 359.473ZM642.269 366.413V364.187C642.269 364.07 642.272 363.934 642.279 363.779C642.285 363.623 642.298 363.49 642.318 363.38H642.259C642.11 363.601 641.903 363.788 641.637 363.944C641.378 364.1 641.041 364.177 640.627 364.177C639.998 364.177 639.486 363.954 639.091 363.507C638.702 363.053 638.508 362.379 638.508 361.485C638.508 360.591 638.705 359.917 639.1 359.463C639.502 359.003 640.021 358.773 640.656 358.773C641.064 358.773 641.398 358.851 641.657 359.006C641.916 359.162 642.123 359.353 642.279 359.58H642.318L642.444 358.87H643.125V366.413H642.269ZM640.792 363.468C641.323 363.468 641.702 363.322 641.929 363.03C642.156 362.732 642.272 362.279 642.279 361.67V361.495C642.279 360.834 642.169 360.335 641.948 359.998C641.728 359.654 641.336 359.483 640.772 359.483C640.306 359.483 639.959 359.667 639.732 360.037C639.505 360.399 639.392 360.889 639.392 361.504C639.392 362.12 639.505 362.603 639.732 362.953C639.959 363.296 640.312 363.468 640.792 363.468ZM649.134 358.87V364.08H648.434L648.308 363.39H648.269C648.1 363.662 647.867 363.863 647.569 363.993C647.271 364.116 646.953 364.177 646.616 364.177C645.988 364.177 645.515 364.028 645.197 363.73C644.88 363.426 644.721 362.943 644.721 362.282V358.87H645.586V362.224C645.586 363.053 645.972 363.468 646.743 363.468C647.319 363.468 647.718 363.306 647.938 362.982C648.165 362.658 648.278 362.191 648.278 361.582V358.87H649.134ZM652.8 358.773C653.24 358.773 653.623 358.87 653.947 359.065C654.271 359.259 654.517 359.534 654.686 359.891C654.86 360.241 654.948 360.652 654.948 361.125V361.64H651.381C651.394 362.23 651.543 362.68 651.828 362.991C652.119 363.296 652.524 363.448 653.043 363.448C653.373 363.448 653.665 363.419 653.918 363.361C654.177 363.296 654.443 363.205 654.715 363.089V363.837C654.449 363.954 654.187 364.038 653.927 364.09C653.668 364.148 653.36 364.177 653.004 364.177C652.505 364.177 652.068 364.077 651.692 363.876C651.316 363.675 651.021 363.377 650.807 362.982C650.6 362.586 650.496 362.097 650.496 361.514C650.496 360.944 650.59 360.455 650.778 360.046C650.972 359.638 651.241 359.324 651.585 359.103C651.935 358.883 652.34 358.773 652.8 358.773ZM652.79 359.473C652.382 359.473 652.058 359.606 651.818 359.871C651.585 360.131 651.446 360.493 651.4 360.96H654.054C654.047 360.519 653.944 360.163 653.743 359.891C653.542 359.612 653.224 359.473 652.79 359.473ZM659.667 362.642C659.667 363.147 659.479 363.529 659.103 363.788C658.727 364.048 658.222 364.177 657.586 364.177C657.224 364.177 656.909 364.148 656.644 364.09C656.384 364.031 656.154 363.95 655.954 363.847V363.069C656.161 363.173 656.41 363.27 656.702 363.361C657 363.445 657.301 363.487 657.606 363.487C658.04 363.487 658.354 363.419 658.549 363.283C658.743 363.14 658.84 362.953 658.84 362.719C658.84 362.59 658.805 362.473 658.733 362.369C658.662 362.266 658.533 362.162 658.345 362.058C658.163 361.955 657.901 361.838 657.557 361.708C657.22 361.579 656.932 361.449 656.692 361.32C656.452 361.19 656.268 361.034 656.138 360.853C656.009 360.672 655.944 360.438 655.944 360.153C655.944 359.713 656.122 359.372 656.478 359.133C656.841 358.893 657.314 358.773 657.898 358.773C658.215 358.773 658.51 358.805 658.782 358.87C659.061 358.935 659.32 359.019 659.56 359.123L659.268 359.803C659.048 359.713 658.818 359.635 658.578 359.57C658.338 359.505 658.092 359.473 657.839 359.473C657.489 359.473 657.22 359.531 657.032 359.648C656.851 359.758 656.76 359.91 656.76 360.105C656.76 360.254 656.802 360.377 656.887 360.474C656.971 360.571 657.11 360.668 657.305 360.766C657.505 360.863 657.771 360.973 658.102 361.096C658.432 361.219 658.714 361.346 658.947 361.475C659.181 361.605 659.359 361.763 659.482 361.951C659.605 362.133 659.667 362.363 659.667 362.642ZM662.665 363.477C662.795 363.477 662.928 363.468 663.064 363.448C663.2 363.429 663.31 363.403 663.394 363.371V364.022C663.304 364.067 663.174 364.103 663.006 364.129C662.837 364.161 662.675 364.177 662.52 364.177C662.247 364.177 661.995 364.132 661.761 364.041C661.535 363.944 661.35 363.779 661.207 363.545C661.065 363.312 660.993 362.985 660.993 362.564V359.531H660.255V359.123L661.003 358.783L661.343 357.675H661.849V358.87H663.355V359.531H661.849V362.544C661.849 362.862 661.923 363.098 662.072 363.254C662.228 363.403 662.426 363.477 662.665 363.477ZM669.276 364.08H668.401V357.908H666.233V357.14H671.434V357.908H669.276V364.08ZM671.357 358.87H672.271L673.398 361.835C673.496 362.1 673.583 362.35 673.661 362.583C673.739 362.816 673.797 363.04 673.836 363.254H673.875C673.914 363.092 673.975 362.881 674.059 362.622C674.144 362.356 674.231 362.091 674.322 361.825L675.381 358.87H676.305L674.059 364.799C673.871 365.292 673.635 365.684 673.35 365.975C673.065 366.267 672.669 366.413 672.164 366.413C672.008 366.413 671.872 366.403 671.756 366.384C671.639 366.371 671.539 366.355 671.454 366.335V365.655C671.526 365.668 671.61 365.681 671.707 365.694C671.811 365.707 671.918 365.713 672.028 365.713C672.326 365.713 672.566 365.629 672.747 365.46C672.929 365.292 673.074 365.068 673.185 364.79L673.457 364.1L671.357 358.87ZM679.607 358.773C680.249 358.773 680.764 358.997 681.153 359.444C681.548 359.891 681.746 360.565 681.746 361.465C681.746 362.353 681.548 363.027 681.153 363.487C680.764 363.947 680.245 364.177 679.597 364.177C679.196 364.177 678.862 364.103 678.596 363.954C678.337 363.805 678.133 363.626 677.984 363.419H677.926C677.932 363.529 677.942 363.669 677.955 363.837C677.974 364.006 677.984 364.151 677.984 364.274V366.413H677.129V358.87H677.828L677.945 359.58H677.984C678.139 359.353 678.344 359.162 678.596 359.006C678.849 358.851 679.186 358.773 679.607 358.773ZM679.452 359.492C678.92 359.492 678.544 359.641 678.324 359.939C678.104 360.237 677.99 360.691 677.984 361.3V361.465C677.984 362.107 678.088 362.603 678.295 362.953C678.509 363.296 678.901 363.468 679.471 363.468C679.782 363.468 680.041 363.383 680.249 363.215C680.456 363.04 680.608 362.8 680.706 362.496C680.809 362.191 680.861 361.844 680.861 361.456C680.861 360.86 680.744 360.383 680.511 360.027C680.284 359.67 679.931 359.492 679.452 359.492ZM685.121 358.773C685.561 358.773 685.944 358.87 686.268 359.065C686.592 359.259 686.838 359.534 687.006 359.891C687.181 360.241 687.269 360.652 687.269 361.125V361.64H683.702C683.715 362.23 683.864 362.68 684.149 362.991C684.44 363.296 684.845 363.448 685.364 363.448C685.694 363.448 685.986 363.419 686.239 363.361C686.498 363.296 686.763 363.205 687.036 363.089V363.837C686.77 363.954 686.507 364.038 686.248 364.09C685.989 364.148 685.681 364.177 685.325 364.177C684.826 364.177 684.388 364.077 684.013 363.876C683.637 363.675 683.342 363.377 683.128 362.982C682.921 362.586 682.817 362.097 682.817 361.514C682.817 360.944 682.911 360.455 683.099 360.046C683.293 359.638 683.562 359.324 683.906 359.103C684.256 358.883 684.661 358.773 685.121 358.773ZM685.111 359.473C684.703 359.473 684.379 359.606 684.139 359.871C683.906 360.131 683.766 360.493 683.721 360.96H686.375C686.368 360.519 686.264 360.163 686.064 359.891C685.863 359.612 685.545 359.473 685.111 359.473Z" fill="#242424"/>
<path d="M628.06 370.725H871.06C871.731 370.725 872.275 371.269 872.275 371.94V397.86C872.275 398.531 871.731 399.075 871.06 399.075H628.06C627.389 399.075 626.845 398.531 626.845 397.86V371.94C626.845 371.269 627.389 370.725 628.06 370.725Z" fill="white"/>
<path d="M628.06 370.725H871.06C871.731 370.725 872.275 371.269 872.275 371.94V397.86C872.275 398.531 871.731 399.075 871.06 399.075H628.06C627.389 399.075 626.845 398.531 626.845 397.86V371.94C626.845 371.269 627.389 370.725 628.06 370.725Z" stroke="#939393" stroke-width="0.81"/>
<path d="M856.5 387.533C856.419 387.533 856.338 387.492 856.297 387.45L851.711 382.816C851.59 382.692 851.59 382.485 851.711 382.361C851.833 382.237 852.036 382.237 852.158 382.361L856.5 386.788L860.802 382.361C860.924 382.237 861.127 382.237 861.249 382.361C861.371 382.485 861.371 382.692 861.249 382.816L856.703 387.45C856.622 387.492 856.582 387.533 856.5 387.533Z" fill="#242424"/>
</g>
<g filter="url(#filter3_d_10400_51296)">
<mask id="path-39-outside-2_10400_51296" maskUnits="userSpaceOnUse" x="863" y="87" width="16" height="19" fill="black">
<rect fill="white" x="863" y="87" width="16" height="19"/>
<path fill-rule="evenodd" clip-rule="evenodd" d="M867.836 98L866.949 96.6453C866.344 95.7203 865.054 95.3829 864.068 95.89L864.298 95.7718C864.053 95.8977 863.935 96.2114 864.036 96.4721L865.263 99.6474C865.458 100.151 865.955 100.863 866.367 101.22C866.367 101.22 868.836 103.264 868.836 104.03V105H872.836L873.836 103L874.836 105H875.836V104.03C875.836 103.264 877.344 100.851 877.344 100.851C877.622 100.382 877.854 99.5552 877.854 99.0066V94.9718C877.836 94.0785 877.076 93.3545 876.139 93.3545C875.671 93.3545 875.291 93.7165 875.291 94.1634V94.4866C875.291 93.5933 874.532 92.8693 873.595 92.8693C873.126 92.8693 872.746 93.2313 872.746 93.6782V94.0013C872.746 93.108 871.987 92.3841 871.05 92.3841C870.581 92.3841 870.201 92.7461 870.201 93.193V93.5161C870.201 93.3726 870.186 93.2584 870.157 93.168L869.898 89.0012C869.863 88.4378 869.388 88 868.836 88C868.279 88 867.836 88.4476 867.836 88.9998V93V98ZM874.854 97L875.854 97V101H874.854V97V97ZM872.854 97L873.854 97V101H872.854V97V97ZM870.854 97L871.854 97V101H870.854V97V97Z"/>
</mask>
<path fill-rule="evenodd" clip-rule="evenodd" d="M867.836 98L866.949 96.6453C866.344 95.7203 865.054 95.3829 864.068 95.89L864.298 95.7718C864.053 95.8977 863.935 96.2114 864.036 96.4721L865.263 99.6474C865.458 100.151 865.955 100.863 866.367 101.22C866.367 101.22 868.836 103.264 868.836 104.03V105H872.836L873.836 103L874.836 105H875.836V104.03C875.836 103.264 877.344 100.851 877.344 100.851C877.622 100.382 877.854 99.5552 877.854 99.0066V94.9718C877.836 94.0785 877.076 93.3545 876.139 93.3545C875.671 93.3545 875.291 93.7165 875.291 94.1634V94.4866C875.291 93.5933 874.532 92.8693 873.595 92.8693C873.126 92.8693 872.746 93.2313 872.746 93.6782V94.0013C872.746 93.108 871.987 92.3841 871.05 92.3841C870.581 92.3841 870.201 92.7461 870.201 93.193V93.5161C870.201 93.3726 870.186 93.2584 870.157 93.168L869.898 89.0012C869.863 88.4378 869.388 88 868.836 88C868.279 88 867.836 88.4476 867.836 88.9998V93V98ZM874.854 97L875.854 97V101H874.854V97V97ZM872.854 97L873.854 97V101H872.854V97V97ZM870.854 97L871.854 97V101H870.854V97V97Z" fill="white"/>
<path d="M867.836 98L866.999 98.5476L868.836 101.354V98H867.836ZM866.949 96.6453L867.786 96.0977L867.786 96.0977L866.949 96.6453ZM864.036 96.4721L863.103 96.8327L863.103 96.8327L864.036 96.4721ZM865.263 99.6474L866.196 99.2869L866.196 99.2869L865.263 99.6474ZM866.367 101.22L865.711 101.975L865.72 101.983L865.729 101.991L866.367 101.22ZM868.836 105H867.836V106H868.836V105ZM872.836 105V106H873.454L873.73 105.447L872.836 105ZM873.836 103L874.73 102.553L873.836 100.764L872.941 102.553L873.836 103ZM874.836 105L873.941 105.447L874.218 106H874.836V105ZM875.836 105V106H876.836V105H875.836ZM877.344 100.851L878.192 101.381L878.199 101.371L878.205 101.36L877.344 100.851ZM877.854 94.9718H878.854V94.9617L878.853 94.9516L877.854 94.9718ZM870.157 93.168L869.158 93.23L869.166 93.3578L869.206 93.4795L870.157 93.168ZM869.898 89.0012L868.9 89.0632L868.9 89.0632L869.898 89.0012ZM867.836 88.9998H866.836H867.836ZM875.854 97H876.854V96L875.854 96L875.854 97ZM875.854 101V102H876.854V101H875.854ZM874.854 101H873.854V102H874.854V101ZM873.854 97H874.854V96L873.854 96L873.854 97ZM873.854 101V102H874.854V101H873.854ZM872.854 101H871.854V102H872.854V101ZM871.854 97H872.854V96L871.854 96L871.854 97ZM871.854 101V102H872.854V101H871.854ZM870.854 101H869.854V102H870.854V101ZM868.672 97.4524L867.786 96.0977L866.112 97.193L866.999 98.5476L868.672 97.4524ZM867.786 96.0977C866.898 94.7415 865.049 94.2611 863.61 95.0006L864.525 96.7793C865.059 96.5047 865.789 96.6992 866.112 97.193L867.786 96.0977ZM864.525 96.7793L864.755 96.6612L863.84 94.8825L863.61 95.0006L864.525 96.7793ZM863.84 94.8825C863.131 95.2471 862.822 96.1052 863.103 96.8327L864.969 96.1116C865.014 96.2295 865.005 96.3396 864.974 96.4213C864.944 96.5027 864.876 96.5986 864.755 96.6612L863.84 94.8825ZM863.103 96.8327L864.331 100.008L866.196 99.2869L864.969 96.1116L863.103 96.8327ZM864.331 100.008C864.583 100.662 865.175 101.51 865.711 101.975L867.022 100.465C866.735 100.216 866.333 99.6398 866.196 99.2869L864.331 100.008ZM866.367 101.22C865.729 101.991 865.729 101.991 865.729 101.991C865.729 101.991 865.729 101.991 865.729 101.991C865.729 101.991 865.729 101.991 865.729 101.991C865.729 101.991 865.729 101.991 865.73 101.991C865.73 101.992 865.732 101.993 865.734 101.995C865.738 101.998 865.744 102.003 865.752 102.01C865.768 102.024 865.793 102.045 865.825 102.072C865.889 102.126 865.981 102.205 866.092 102.303C866.315 102.499 866.609 102.765 866.9 103.051C867.196 103.342 867.468 103.632 867.659 103.88C867.755 104.004 867.813 104.095 867.843 104.152C867.884 104.23 867.836 104.174 867.836 104.03H869.836C869.836 103.694 869.71 103.407 869.616 103.226C869.511 103.025 869.376 102.831 869.241 102.656C868.969 102.304 868.624 101.941 868.302 101.625C867.976 101.304 867.653 101.012 867.413 100.801C867.292 100.695 867.191 100.608 867.12 100.548C867.085 100.517 867.056 100.494 867.037 100.477C867.027 100.469 867.019 100.462 867.014 100.458C867.011 100.455 867.009 100.454 867.007 100.452C867.006 100.452 867.006 100.451 867.005 100.451C867.005 100.451 867.005 100.45 867.005 100.45C867.005 100.45 867.004 100.45 867.004 100.45C867.004 100.45 867.004 100.45 866.367 101.22ZM867.836 104.03V105H869.836V104.03H867.836ZM868.836 106H872.836V104H868.836V106ZM873.73 105.447L874.73 103.447L872.941 102.553L871.941 104.553L873.73 105.447ZM872.941 103.447L873.941 105.447L875.73 104.553L874.73 102.553L872.941 103.447ZM874.836 106H875.836V104H874.836V106ZM876.836 105V104.03H874.836V105H876.836ZM876.836 104.03C876.836 104.066 876.846 103.944 876.992 103.6C877.116 103.307 877.288 102.965 877.47 102.628C877.65 102.294 877.831 101.981 877.968 101.75C878.037 101.635 878.093 101.542 878.133 101.477C878.152 101.445 878.168 101.421 878.178 101.404C878.183 101.396 878.187 101.39 878.189 101.386C878.19 101.384 878.191 101.382 878.192 101.382C878.192 101.381 878.192 101.381 878.192 101.381C878.192 101.381 878.192 101.381 878.192 101.381C878.192 101.381 878.192 101.381 878.192 101.381C878.192 101.381 878.192 101.381 877.344 100.851C876.496 100.321 876.496 100.321 876.496 100.321C876.496 100.321 876.496 100.321 876.496 100.321C876.496 100.321 876.496 100.321 876.496 100.321C876.496 100.322 876.495 100.322 876.495 100.323C876.494 100.325 876.493 100.327 876.491 100.329C876.488 100.335 876.483 100.342 876.477 100.352C876.465 100.371 876.448 100.399 876.426 100.434C876.383 100.505 876.322 100.606 876.249 100.729C876.103 100.975 875.907 101.313 875.71 101.678C875.515 102.04 875.309 102.445 875.15 102.82C875.013 103.144 874.836 103.611 874.836 104.03H876.836ZM878.205 101.36C878.403 101.026 878.559 100.613 878.667 100.226C878.774 99.839 878.854 99.4009 878.854 99.0066H876.854C876.854 99.161 876.817 99.4103 876.74 99.6912C876.662 99.9714 876.564 100.206 876.484 100.341L878.205 101.36ZM878.854 99.0066V94.9718H876.854V99.0066H878.854ZM878.853 94.9516C878.824 93.4818 877.588 92.3545 876.139 92.3545V94.3545C876.565 94.3545 876.847 94.6752 876.854 94.992L878.853 94.9516ZM876.139 92.3545C875.164 92.3545 874.291 93.1198 874.291 94.1634H876.291C876.291 94.2317 876.26 94.2858 876.229 94.3152C876.199 94.3437 876.165 94.3545 876.139 94.3545V92.3545ZM874.291 94.1634V94.4866H876.291V94.1634H874.291ZM876.291 94.4866C876.291 92.9966 875.038 91.8693 873.595 91.8693V93.8693C874.025 93.8693 874.291 94.19 874.291 94.4866H876.291ZM873.595 91.8693C872.619 91.8693 871.746 92.6346 871.746 93.6782H873.746C873.746 93.7465 873.715 93.8005 873.685 93.8299C873.655 93.8585 873.621 93.8693 873.595 93.8693V91.8693ZM871.746 93.6782V94.0013H873.746V93.6782H871.746ZM873.746 94.0013C873.746 92.5113 872.494 91.3841 871.05 91.3841V93.3841C871.48 93.3841 871.746 93.7047 871.746 94.0013H873.746ZM871.05 91.3841C870.074 91.3841 869.201 92.1494 869.201 93.193H871.201C871.201 93.2613 871.171 93.3153 871.14 93.3447C871.11 93.3733 871.076 93.3841 871.05 93.3841V91.3841ZM869.201 93.193V93.5161H871.201V93.193H869.201ZM871.201 93.5161C871.201 93.3088 871.18 93.0809 871.107 92.8565L869.206 93.4795C869.198 93.4555 869.198 93.4444 869.199 93.4516C869.199 93.4587 869.201 93.4791 869.201 93.5161H871.201ZM871.155 93.106L870.896 88.9392L868.9 89.0632L869.158 93.23L871.155 93.106ZM870.896 88.9392C870.828 87.845 869.912 87 868.836 87V89C868.844 89 868.86 89.0035 868.877 89.0193C868.893 89.0344 868.899 89.0498 868.9 89.0632L870.896 88.9392ZM868.836 87C867.725 87 866.836 87.8977 866.836 88.9998L868.836 88.9998V89V87ZM866.836 88.9998V93H868.836V88.9998H866.836ZM866.836 93V98H868.836V93H866.836ZM874.854 98L875.854 98L875.854 96L874.854 96L874.854 98ZM874.854 97V101H876.854V97H874.854ZM875.854 100H874.854V102H875.854V100ZM875.854 101V97H873.854V101H875.854ZM872.854 98L873.854 98L873.854 96L872.854 96L872.854 98ZM872.854 97V101H874.854V97H872.854ZM873.854 100H872.854V102H873.854V100ZM873.854 101V97H871.854V101H873.854ZM870.854 98L871.854 98L871.854 96L870.854 96L870.854 98ZM870.854 97V101H872.854V97H870.854ZM871.854 100H870.854V102H871.854V100ZM871.854 101V97H869.854V101H871.854Z" fill="black" fill-opacity="0.8" mask="url(#path-39-outside-2_10400_51296)"/>
</g>
<g filter="url(#filter4_i_10400_51296)">
<rect width="880" height="58" transform="translate(12 4)" fill="white"/>
<path d="M12 4H59.7595L89 62H12V4Z" fill="#DA291C"/>
<line x1="12" y1="61.5" x2="89" y2="61.5" stroke="#C9C9C9"/>
<path d="M34.9378 38.2536H42.9108L44.2099 41.2801H33.4439L31.7227 44.7637H26.9648L38.7538 21.8445H42.0502L53.8392 44.7637H49.0976L40.4101 27.062L34.9378 38.2536Z" fill="white"/>
<rect x="105" y="27" width="120" height="12" rx="2" fill="#C9C9C9"/>
<rect x="511.5" y="15.5" width="199" height="35" rx="1.5" fill="white"/>
<rect x="511.5" y="15.5" width="199" height="35" rx="1.5" stroke="#C9C9C9"/>
<path fill-rule="evenodd" clip-rule="evenodd" d="M529.62 26.7493C526.93 26.7493 524.749 28.93 524.749 31.62C524.749 34.31 526.93 36.4906 529.62 36.4906C532.31 36.4906 534.491 34.31 534.491 31.62C534.491 28.93 532.31 26.7493 529.62 26.7493ZM524 31.62C524 28.5162 526.516 26 529.62 26C532.724 26 535.24 28.5162 535.24 31.62C535.24 34.7238 532.724 37.24 529.62 37.24C526.516 37.24 524 34.7238 524 31.62Z" fill="#939393"/>
<path fill-rule="evenodd" clip-rule="evenodd" d="M533.302 35.3015C533.448 35.1552 533.685 35.1552 533.831 35.3015L535.68 37.1499C535.826 37.2962 535.826 37.5334 535.68 37.6797C535.533 37.8261 535.296 37.8261 535.15 37.6797L533.302 35.8314C533.155 35.6851 533.155 35.4478 533.302 35.3015Z" fill="#939393"/>
<path fill-rule="evenodd" clip-rule="evenodd" d="M536.449 37.7297C536.245 37.5263 535.933 37.5263 535.73 37.7297C535.526 37.9331 535.526 38.2453 535.73 38.4487L536.379 39.0981C536.386 39.1049 536.392 39.112 536.399 39.1192C536.538 39.2822 536.882 39.3138 537.098 39.0981C537.302 38.8948 537.302 38.5825 537.098 38.3791L536.449 37.7297ZM535.2 37.1998C535.696 36.7038 536.483 36.7038 536.979 37.1998L537.628 37.8493C538.124 38.3453 538.124 39.132 537.628 39.628C537.148 40.1081 536.302 40.1428 535.84 39.6189L535.2 38.9786C534.704 38.4826 534.704 37.6958 535.2 37.1998Z" fill="#939393"/>
<path d="M751 43.5C745.201 43.5 740.5 38.799 740.5 33C740.5 27.201 745.201 22.5 751 22.5C756.799 22.5 761.5 27.201 761.5 33C761.5 38.799 756.799 43.5 751 43.5Z" fill="#C9C9C9"/>
<path d="M799 43.5C793.201 43.5 788.5 38.799 788.5 33C788.5 27.201 793.201 22.5 799 22.5C804.799 22.5 809.5 27.201 809.5 33C809.5 38.799 804.799 43.5 799 43.5Z" fill="#C9C9C9"/>
<circle cx="856" cy="33" r="20" fill="white"/>
<g clip-path="url(#clip1_10400_51296)">
<path d="M844.571 49.413V47.0845C844.571 44.0534 845.776 41.1465 847.919 39.0032C850.062 36.86 852.969 35.6559 856 35.6559C859.031 35.6559 861.938 36.86 864.081 39.0032C866.224 41.1465 867.429 44.0534 867.429 47.0845V49.413C870.923 46.98 873.549 43.4952 874.926 39.466C876.303 35.4368 876.357 31.0734 875.082 27.0109C873.807 22.9484 871.269 19.3988 867.837 16.8789C864.405 14.3589 860.258 13 856 13C851.742 13 847.595 14.3589 844.163 16.8789C840.731 19.3988 838.193 22.9484 836.918 27.0109C835.643 31.0734 835.697 35.4368 837.074 39.466C838.451 43.4952 841.077 46.98 844.571 49.413V49.413ZM856 19.6273C857.297 19.6273 858.565 20.0119 859.643 20.7324C860.721 21.4529 861.562 22.477 862.058 23.6752C862.554 24.8733 862.684 26.1917 862.431 27.4637C862.178 28.7357 861.554 29.904 860.637 30.8211C859.72 31.7381 858.551 32.3626 857.279 32.6156C856.007 32.8686 854.689 32.7388 853.491 32.2425C852.293 31.7462 851.268 30.9057 850.548 29.8274C849.827 28.7491 849.443 27.4813 849.443 26.1845C849.447 24.4466 850.139 22.7809 851.368 21.552C852.596 20.3231 854.262 19.6311 856 19.6273V19.6273Z" fill="#C9C9C9"/>
</g>
</g>
</g>
</g>
<defs>
<filter id="filter0_d_10400_51296" x="4" y="0" width="896" height="480" filterUnits="userSpaceOnUse" color-interpolation-filters="sRGB">
<feFlood flood-opacity="0" result="BackgroundImageFix"/>
<feColorMatrix in="SourceAlpha" type="matrix" values="0 0 0 0 0 0 0 0 0 0 0 0 0 0 0 0 0 0 127 0" result="hardAlpha"/>
<feOffset dy="4"/>
<feGaussianBlur stdDeviation="4"/>
<feColorMatrix type="matrix" values="0 0 0 0 0 0 0 0 0 0 0 0 0 0 0 0 0 0 0.25 0"/>
<feBlend mode="normal" in2="BackgroundImageFix" result="effect1_dropShadow_10400_51296"/>
<feBlend mode="normal" in="SourceGraphic" in2="effect1_dropShadow_10400_51296" result="shape"/>
</filter>
<filter id="filter1_i_10400_51296" x="12" y="62" width="200" height="516" filterUnits="userSpaceOnUse" color-interpolation-filters="sRGB">
<feFlood flood-opacity="0" result="BackgroundImageFix"/>
<feBlend mode="normal" in="SourceGraphic" in2="BackgroundImageFix" result="shape"/>
<feColorMatrix in="SourceAlpha" type="matrix" values="0 0 0 0 0 0 0 0 0 0 0 0 0 0 0 0 0 0 127 0" result="hardAlpha"/>
<feOffset dx="-1"/>
<feComposite in2="hardAlpha" operator="arithmetic" k2="-1" k3="1"/>
<feColorMatrix type="matrix" values="0 0 0 0 0.788235 0 0 0 0 0.788235 0 0 0 0 0.788235 0 0 0 1 0"/>
<feBlend mode="normal" in2="shape" result="effect1_innerShadow_10400_51296"/>
</filter>
<filter id="filter2_d_10400_51296" x="600.52" y="58.76" width="298.08" height="418.96" filterUnits="userSpaceOnUse" color-interpolation-filters="sRGB">
<feFlood flood-opacity="0" result="BackgroundImageFix"/>
<feColorMatrix in="SourceAlpha" type="matrix" values="0 0 0 0 0 0 0 0 0 0 0 0 0 0 0 0 0 0 127 0" result="hardAlpha"/>
<feOffset dy="3.24"/>
<feGaussianBlur stdDeviation="3.24"/>
<feColorMatrix type="matrix" values="0 0 0 0 0 0 0 0 0 0 0 0 0 0 0 0 0 0 0.25 0"/>
<feBlend mode="normal" in2="BackgroundImageFix" result="effect1_dropShadow_10400_51296"/>
<feBlend mode="normal" in="SourceGraphic" in2="effect1_dropShadow_10400_51296" result="shape"/>
</filter>
<filter id="filter3_d_10400_51296" x="860" y="85" width="21.8535" height="25" filterUnits="userSpaceOnUse" color-interpolation-filters="sRGB">
<feFlood flood-opacity="0" result="BackgroundImageFix"/>
<feColorMatrix in="SourceAlpha" type="matrix" values="0 0 0 0 0 0 0 0 0 0 0 0 0 0 0 0 0 0 127 0" result="hardAlpha"/>
<feOffset dy="1"/>
<feGaussianBlur stdDeviation="1.5"/>
<feColorMatrix type="matrix" values="0 0 0 0 0 0 0 0 0 0 0 0 0 0 0 0 0 0 0.2 0"/>
<feBlend mode="normal" in2="BackgroundImageFix" result="effect1_dropShadow_10400_51296"/>
<feBlend mode="normal" in="SourceGraphic" in2="effect1_dropShadow_10400_51296" result="shape"/>
</filter>
<filter id="filter4_i_10400_51296" x="12" y="4" width="880" height="58" filterUnits="userSpaceOnUse" color-interpolation-filters="sRGB">
<feFlood flood-opacity="0" result="BackgroundImageFix"/>
<feBlend mode="normal" in="SourceGraphic" in2="BackgroundImageFix" result="shape"/>
<feColorMatrix in="SourceAlpha" type="matrix" values="0 0 0 0 0 0 0 0 0 0 0 0 0 0 0 0 0 0 127 0" result="hardAlpha"/>
<feOffset dy="-1"/>
<feComposite in2="hardAlpha" operator="arithmetic" k2="-1" k3="1"/>
<feColorMatrix type="matrix" values="0 0 0 0 0.788235 0 0 0 0 0.788235 0 0 0 0 0.788235 0 0 0 1 0"/>
<feBlend mode="normal" in2="shape" result="effect1_innerShadow_10400_51296"/>
</filter>
<clipPath id="clip0_10400_51296">
<rect x="12" y="4" width="880" height="464" rx="8" fill="white"/>
</clipPath>
<clipPath id="clip1_10400_51296">
<rect width="40.0001" height="36.6667" fill="white" transform="translate(836 13)"/>
</clipPath>
</defs>
</svg>
