<svg width="413" height="232" viewBox="0 0 413 232" fill="none" xmlns="http://www.w3.org/2000/svg">
<g clip-path="url(#clip0_10400_30969)">
<rect x="0.234091" y="27.2341" width="411.532" height="194.532" rx="3.51136" stroke="#C9C9C9" stroke-width="0.468182"/>
<g clip-path="url(#clip1_10400_30969)">
<rect width="318" height="205" transform="translate(94 27)" fill="#F1F1F1"/>
<mask id="path-2-inside-1_10400_30969" fill="white">
<path d="M98 32.8727C98 31.8384 98.8384 31 99.8727 31H407.127C408.162 31 409 31.8384 409 32.8727V242H98V32.8727Z"/>
</mask>
<path d="M98 32.8727C98 31.8384 98.8384 31 99.8727 31H407.127C408.162 31 409 31.8384 409 32.8727V242H98V32.8727Z" fill="white"/>
<path d="M97.5318 32.8727C97.5318 31.5799 98.5799 30.5318 99.8727 30.5318H407.127C408.42 30.5318 409.468 31.5799 409.468 32.8727L408.532 32.8727C408.532 32.097 407.903 31.4682 407.127 31.4682H99.8727C99.097 31.4682 98.4682 32.097 98.4682 32.8727L97.5318 32.8727ZM409 242H98H409ZM97.5318 242V32.8727C97.5318 31.5799 98.5799 30.5318 99.8727 30.5318L99.8727 31.4682C99.097 31.4682 98.4682 32.097 98.4682 32.8727V242H97.5318ZM407.127 30.5318C408.42 30.5318 409.468 31.5799 409.468 32.8727V242H408.532V32.8727C408.532 32.097 407.903 31.4682 407.127 31.4682L407.127 30.5318Z" fill="#C9C9C9" mask="url(#path-2-inside-1_10400_30969)"/>
</g>
<rect opacity="0.3" x="133" y="27" width="279" height="205" fill="#242424"/>
<g filter="url(#filter0_d_10400_30969)">
<rect width="133.488" height="205" transform="translate(0 27)" fill="white"/>
<mask id="path-5-inside-2_10400_30969" fill="white">
<path d="M0 27H133.488V50.1353H0V27Z"/>
</mask>
<path d="M0 27H133.488V50.1353H0V27Z" fill="white"/>
<path d="M133.488 49.756H0V50.5145H133.488V49.756Z" fill="#C9C9C9" mask="url(#path-5-inside-2_10400_30969)"/>
<path d="M11.4289 41.0676H10.7804V36.4922H9.17362V35.923H13.0285V36.4922H11.4289V41.0676ZM14.042 35.7573C14.1381 35.7573 14.2221 35.7909 14.2942 35.8582C14.371 35.9206 14.4095 36.0215 14.4095 36.1608C14.4095 36.3001 14.371 36.4034 14.2942 36.4706C14.2221 36.5331 14.1381 36.5643 14.042 36.5643C13.9363 36.5643 13.8474 36.5331 13.7754 36.4706C13.7033 36.4034 13.6673 36.3001 13.6673 36.1608C13.6673 36.0215 13.7033 35.9206 13.7754 35.8582C13.8474 35.7909 13.9363 35.7573 14.042 35.7573ZM14.3518 37.2056V41.0676H13.7178V37.2056H14.3518ZM16.8651 40.6209C16.9612 40.6209 17.0597 40.6137 17.1605 40.5993C17.2614 40.5849 17.3431 40.5657 17.4055 40.5416V41.0244C17.3383 41.058 17.2422 41.0844 17.1173 41.1037C16.9924 41.1277 16.8723 41.1397 16.757 41.1397C16.5553 41.1397 16.368 41.1061 16.195 41.0388C16.0269 40.9668 15.89 40.8443 15.7843 40.6713C15.6786 40.4984 15.6258 40.2558 15.6258 39.9436V37.6955H15.0782V37.3929L15.633 37.1407L15.8852 36.3193H16.2599V37.2056H17.3767V37.6955H16.2599V39.9292C16.2599 40.1646 16.3151 40.3399 16.4256 40.4552C16.5409 40.5657 16.6874 40.6209 16.8651 40.6209ZM18.8129 41.0676H18.1789V35.5916H18.8129V41.0676ZM21.528 37.1335C21.8546 37.1335 22.138 37.2056 22.3782 37.3497C22.6184 37.4938 22.8009 37.6979 22.9258 37.9621C23.0555 38.2215 23.1204 38.5266 23.1204 38.8772V39.2591H20.476C20.4856 39.6962 20.5961 40.0301 20.8074 40.2606C21.0236 40.4864 21.3238 40.5993 21.7081 40.5993C21.9531 40.5993 22.1693 40.5777 22.3566 40.5344C22.5487 40.4864 22.7457 40.4191 22.9474 40.3327V40.8875C22.7505 40.974 22.5559 41.0364 22.3638 41.0748C22.1717 41.1181 21.9435 41.1397 21.6793 41.1397C21.3094 41.1397 20.9852 41.0652 20.7066 40.9163C20.428 40.7674 20.2094 40.5464 20.0509 40.2534C19.8972 39.9604 19.8203 39.5977 19.8203 39.1654C19.8203 38.7427 19.89 38.38 20.0293 38.0774C20.1734 37.7748 20.3727 37.5418 20.6273 37.3785C20.8867 37.2152 21.1869 37.1335 21.528 37.1335ZM21.5208 37.6523C21.2181 37.6523 20.978 37.7508 20.8002 37.9477C20.6273 38.1399 20.524 38.4089 20.4904 38.7547H22.4575C22.4527 38.4281 22.3758 38.1639 22.2269 37.9621C22.078 37.7556 21.8426 37.6523 21.5208 37.6523Z" fill="#242424"/>
<path d="M9.95255 59.686H9.54298V56.4368H11.3587V56.7963H9.95255V57.9477H11.2723V58.3072H9.95255V59.686ZM12.053 56.3321C12.1136 56.3321 12.1667 56.3534 12.2122 56.3959C12.2608 56.4353 12.285 56.499 12.285 56.587C12.285 56.675 12.2608 56.7402 12.2122 56.7827C12.1667 56.8221 12.1136 56.8418 12.053 56.8418C11.9862 56.8418 11.9301 56.8221 11.8846 56.7827C11.8391 56.7402 11.8163 56.675 11.8163 56.587C11.8163 56.499 11.8391 56.4353 11.8846 56.3959C11.9301 56.3534 11.9862 56.3321 12.053 56.3321ZM12.2486 57.2468V59.686H11.8482V57.2468H12.2486ZM14.1591 57.2013C14.2046 57.2013 14.2531 57.2044 14.3047 57.2104C14.3563 57.2135 14.4033 57.2195 14.4458 57.2286L14.3957 57.5973C14.3563 57.5881 14.3123 57.5806 14.2638 57.5745C14.2152 57.5684 14.1712 57.5654 14.1318 57.5654C14.0074 57.5654 13.8906 57.6003 13.7814 57.6701C13.6722 57.7368 13.5842 57.8324 13.5174 57.9568C13.4537 58.0781 13.4219 58.2207 13.4219 58.3845V59.686H13.0214V57.2468H13.3491L13.3946 57.6928H13.4128C13.4886 57.5593 13.5887 57.444 13.7131 57.347C13.8405 57.2499 13.9892 57.2013 14.1591 57.2013ZM16.4895 59.0125C16.4895 59.2492 16.4015 59.4282 16.2255 59.5495C16.0496 59.6709 15.8129 59.7315 15.5156 59.7315C15.3457 59.7315 15.1986 59.7179 15.0742 59.6906C14.9528 59.6633 14.8451 59.6254 14.7511 59.5768V59.2128C14.8482 59.2613 14.965 59.3068 15.1015 59.3493C15.241 59.3887 15.3821 59.4084 15.5247 59.4084C15.728 59.4084 15.8751 59.3766 15.9661 59.3129C16.0571 59.2461 16.1026 59.1582 16.1026 59.0489C16.1026 58.9883 16.086 58.9336 16.0526 58.8851C16.0192 58.8366 15.9585 58.788 15.8706 58.7395C15.7856 58.6909 15.6627 58.6363 15.5019 58.5757C15.3442 58.515 15.2092 58.4543 15.0969 58.3936C14.9847 58.333 14.8982 58.2601 14.8375 58.1752C14.7769 58.0902 14.7465 57.981 14.7465 57.8475C14.7465 57.6412 14.83 57.482 14.9968 57.3697C15.1667 57.2575 15.3882 57.2013 15.6612 57.2013C15.8099 57.2013 15.9479 57.2165 16.0753 57.2468C16.2058 57.2772 16.3271 57.3166 16.4394 57.3652L16.3029 57.6837C16.1997 57.6412 16.092 57.6048 15.9798 57.5745C15.8675 57.5442 15.7522 57.529 15.6339 57.529C15.4701 57.529 15.3442 57.5563 15.2562 57.6109C15.1713 57.6625 15.1288 57.7338 15.1288 57.8248C15.1288 57.8946 15.1485 57.9522 15.1879 57.9977C15.2274 58.0432 15.2926 58.0887 15.3836 58.1342C15.4777 58.1797 15.6021 58.2313 15.7568 58.289C15.9115 58.3466 16.0435 58.4058 16.1527 58.4664C16.2619 58.5271 16.3453 58.6014 16.403 58.6894C16.4606 58.7744 16.4895 58.8821 16.4895 59.0125ZM17.8934 59.4039C17.9541 59.4039 18.0163 59.3993 18.08 59.3902C18.1437 59.3811 18.1953 59.369 18.2347 59.3538V59.6587C18.1923 59.68 18.1316 59.6967 18.0527 59.7088C17.9738 59.724 17.898 59.7315 17.8252 59.7315C17.6977 59.7315 17.5794 59.7103 17.4702 59.6678C17.364 59.6223 17.2776 59.545 17.2108 59.4357C17.1441 59.3265 17.1107 59.1733 17.1107 58.9761V57.5563H16.7648V57.3652L17.1153 57.2059L17.2745 56.6871H17.5112V57.2468H18.2165V57.5563H17.5112V58.967C17.5112 59.1157 17.5461 59.2264 17.6158 59.2992C17.6886 59.369 17.7812 59.4039 17.8934 59.4039ZM22.5356 59.686H22.0578L20.3194 56.9875H20.3012C20.3073 57.0936 20.3148 57.2256 20.3239 57.3834C20.333 57.5411 20.3376 57.7034 20.3376 57.8703V59.686H19.9599V56.4368H20.4332L22.167 59.1263H22.1852C22.1822 59.0778 22.1776 59.0049 22.1715 58.9079C22.1685 58.8108 22.164 58.7061 22.1579 58.5939C22.1548 58.4786 22.1533 58.3709 22.1533 58.2708V56.4368H22.5356V59.686ZM24.2866 57.2059C24.5839 57.2059 24.8038 57.2711 24.9464 57.4016C25.089 57.532 25.1603 57.7398 25.1603 58.025V59.686H24.869L24.7917 59.3402H24.7735C24.6673 59.4737 24.555 59.5723 24.4367 59.636C24.3184 59.6997 24.1576 59.7315 23.9544 59.7315C23.7329 59.7315 23.5493 59.6739 23.4037 59.5586C23.2581 59.4403 23.1853 59.2567 23.1853 59.008C23.1853 58.7653 23.2808 58.5787 23.472 58.4482C23.6631 58.3147 23.9574 58.2419 24.3548 58.2298L24.7689 58.2162V58.0705C24.7689 57.8673 24.7249 57.7262 24.637 57.6473C24.549 57.5684 24.4246 57.529 24.2638 57.529C24.1364 57.529 24.015 57.5487 23.8997 57.5881C23.7845 57.6246 23.6768 57.667 23.5766 57.7156L23.4538 57.4152C23.56 57.3576 23.6859 57.309 23.8315 57.2696C23.9771 57.2271 24.1288 57.2059 24.2866 57.2059ZM24.7644 58.4937L24.4049 58.5074C24.1015 58.5195 23.8906 58.5681 23.7723 58.653C23.657 58.738 23.5994 58.8578 23.5994 59.0125C23.5994 59.149 23.6404 59.2492 23.7223 59.3129C23.8072 59.3766 23.9149 59.4084 24.0454 59.4084C24.2486 59.4084 24.4185 59.3523 24.555 59.2401C24.6946 59.1248 24.7644 58.9488 24.7644 58.7122V58.4937ZM28.5895 57.2013C28.8656 57.2013 29.0719 57.2726 29.2084 57.4152C29.3449 57.5578 29.4132 57.7853 29.4132 58.0978V59.686H29.0172V58.116C29.0172 57.7307 28.8519 57.5381 28.5212 57.5381C28.2846 57.5381 28.1147 57.6064 28.0115 57.7429C27.9114 57.8794 27.8614 58.0781 27.8614 58.339V59.686H27.4655V58.116C27.4655 57.7307 27.2986 57.5381 26.9649 57.5381C26.7191 57.5381 26.5492 57.6139 26.4552 57.7656C26.3611 57.9173 26.3141 58.1358 26.3141 58.4209V59.686H25.9137V57.2468H26.2368L26.2959 57.579H26.3187C26.3945 57.4516 26.4961 57.3576 26.6236 57.2969C26.754 57.2332 26.8921 57.2013 27.0377 57.2013C27.4199 57.2013 27.6687 57.3379 27.784 57.6109H27.8068C27.8887 57.4713 27.9994 57.3682 28.139 57.3015C28.2785 57.2347 28.4287 57.2013 28.5895 57.2013ZM31.1086 57.2013C31.3149 57.2013 31.4939 57.2468 31.6456 57.3379C31.7973 57.4289 31.9126 57.5578 31.9915 57.7247C32.0734 57.8885 32.1143 58.0811 32.1143 58.3026V58.5438H30.4442C30.4503 58.8199 30.5201 59.0307 30.6536 59.1764C30.7901 59.3189 30.9797 59.3902 31.2224 59.3902C31.3771 59.3902 31.5136 59.3766 31.632 59.3493C31.7533 59.3189 31.8777 59.2765 32.0051 59.2219V59.5723C31.8807 59.6269 31.7579 59.6663 31.6365 59.6906C31.5152 59.7179 31.3711 59.7315 31.2042 59.7315C30.9706 59.7315 30.7658 59.6845 30.5898 59.5905C30.4139 59.4964 30.2758 59.3569 30.1757 59.1718C30.0786 58.9867 30.0301 58.7577 30.0301 58.4846C30.0301 58.2177 30.0741 57.9886 30.1621 57.7975C30.2531 57.6064 30.379 57.4592 30.5398 57.3561C30.7036 57.2529 30.8932 57.2013 31.1086 57.2013ZM31.1041 57.529C30.9129 57.529 30.7613 57.5912 30.649 57.7156C30.5398 57.8369 30.4746 58.0068 30.4533 58.2253H31.6957C31.6926 58.019 31.6441 57.8521 31.55 57.7247C31.456 57.5942 31.3073 57.529 31.1041 57.529Z" fill="#242424"/>
<path d="M9.86002 63.3926H123.628C123.942 63.3926 124.197 63.6473 124.197 63.9615V76.0967C124.197 76.4109 123.942 76.6656 123.628 76.6656H9.86001C9.54585 76.6656 9.29118 76.4109 9.29118 76.0967V63.9615C9.29118 63.6473 9.54585 63.3926 9.86002 63.3926Z" fill="white"/>
<path d="M9.86002 63.3926H123.628C123.942 63.3926 124.197 63.6473 124.197 63.9615V76.0967C124.197 76.4109 123.942 76.6656 123.628 76.6656H9.86001C9.54585 76.6656 9.29118 76.4109 9.29118 76.0967V63.9615C9.29118 63.6473 9.54585 63.3926 9.86002 63.3926Z" stroke="#939393" stroke-width="0.379227"/>
<path d="M9.54298 87.9227V84.6735H9.95255V87.5587H11.3724V87.9227H9.54298ZM12.7986 85.4426C13.096 85.4426 13.3159 85.5078 13.4585 85.6383C13.6011 85.7687 13.6724 85.9765 13.6724 86.2617V87.9227H13.3811L13.3038 87.5769H13.2856C13.1794 87.7104 13.0671 87.809 12.9488 87.8727C12.8305 87.9364 12.6697 87.9682 12.4664 87.9682C12.245 87.9682 12.0614 87.9106 11.9158 87.7953C11.7702 87.677 11.6974 87.4934 11.6974 87.2447C11.6974 87.002 11.7929 86.8154 11.9841 86.6849C12.1752 86.5514 12.4695 86.4786 12.8669 86.4665L13.281 86.4528V86.3072C13.281 86.104 13.237 85.9629 13.149 85.884C13.0611 85.8051 12.9367 85.7657 12.7759 85.7657C12.6485 85.7657 12.5271 85.7854 12.4118 85.8248C12.2965 85.8613 12.1888 85.9037 12.0887 85.9523L11.9659 85.6519C12.072 85.5943 12.1979 85.5457 12.3436 85.5063C12.4892 85.4638 12.6409 85.4426 12.7986 85.4426ZM13.2765 86.7304L12.917 86.7441C12.6136 86.7562 12.4027 86.8048 12.2844 86.8897C12.1691 86.9747 12.1115 87.0945 12.1115 87.2492C12.1115 87.3857 12.1524 87.4859 12.2343 87.5496C12.3193 87.6133 12.427 87.6451 12.5574 87.6451C12.7607 87.6451 12.9306 87.589 13.0671 87.4768C13.2067 87.3615 13.2765 87.1855 13.2765 86.9489V86.7304ZM16.0139 87.2492C16.0139 87.4859 15.926 87.6649 15.75 87.7862C15.574 87.9076 15.3374 87.9682 15.0401 87.9682C14.8702 87.9682 14.723 87.9546 14.5987 87.9273C14.4773 87.9 14.3696 87.8621 14.2756 87.8135V87.4495C14.3726 87.498 14.4894 87.5435 14.626 87.586C14.7655 87.6254 14.9066 87.6451 15.0492 87.6451C15.2525 87.6451 15.3996 87.6133 15.4906 87.5496C15.5816 87.4828 15.6271 87.3948 15.6271 87.2856C15.6271 87.225 15.6104 87.1703 15.5771 87.1218C15.5437 87.0733 15.483 87.0247 15.395 86.9762C15.3101 86.9276 15.1872 86.873 15.0264 86.8124C14.8687 86.7517 14.7337 86.691 14.6214 86.6303C14.5092 86.5696 14.4227 86.4968 14.362 86.4119C14.3013 86.3269 14.271 86.2177 14.271 86.0842C14.271 85.8779 14.3544 85.7187 14.5213 85.6064C14.6912 85.4942 14.9127 85.438 15.1857 85.438C15.3344 85.438 15.4724 85.4532 15.5998 85.4835C15.7303 85.5139 15.8516 85.5533 15.9639 85.6019L15.8274 85.9204C15.7242 85.8779 15.6165 85.8415 15.5043 85.8112C15.392 85.7809 15.2767 85.7657 15.1584 85.7657C14.9946 85.7657 14.8687 85.793 14.7807 85.8476C14.6957 85.8992 14.6533 85.9705 14.6533 86.0615C14.6533 86.1313 14.673 86.1889 14.7124 86.2344C14.7519 86.2799 14.8171 86.3254 14.9081 86.3709C15.0022 86.4164 15.1265 86.468 15.2813 86.5257C15.436 86.5833 15.568 86.6425 15.6772 86.7031C15.7864 86.7638 15.8698 86.8381 15.9275 86.9261C15.9851 87.0111 16.0139 87.1188 16.0139 87.2492ZM17.4179 87.6406C17.4786 87.6406 17.5408 87.636 17.6045 87.6269C17.6682 87.6178 17.7198 87.6057 17.7592 87.5905V87.8954C17.7167 87.9167 17.6561 87.9333 17.5772 87.9455C17.4983 87.9607 17.4225 87.9682 17.3496 87.9682C17.2222 87.9682 17.1039 87.947 16.9947 87.9045C16.8885 87.859 16.802 87.7817 16.7353 87.6724C16.6686 87.5632 16.6352 87.41 16.6352 87.2128V85.793H16.2893V85.6019L16.6397 85.4426L16.799 84.9238H17.0356V85.4835H17.741V85.793H17.0356V87.2037C17.0356 87.3524 17.0705 87.4631 17.1403 87.5359C17.2131 87.6057 17.3057 87.6406 17.4179 87.6406ZM22.0601 87.9227H21.5823L19.8439 85.2241H19.8257C19.8317 85.3303 19.8393 85.4623 19.8484 85.6201C19.8575 85.7778 19.8621 85.9401 19.8621 86.107V87.9227H19.4844V84.6735H19.9576L21.6915 87.363H21.7097C21.7066 87.3144 21.7021 87.2416 21.696 87.1446C21.693 87.0475 21.6884 86.9428 21.6824 86.8306C21.6793 86.7153 21.6778 86.6076 21.6778 86.5075V84.6735H22.0601V87.9227ZM23.811 85.4426C24.1084 85.4426 24.3283 85.5078 24.4709 85.6383C24.6135 85.7687 24.6848 85.9765 24.6848 86.2617V87.9227H24.3935L24.3162 87.5769H24.298C24.1918 87.7104 24.0795 87.809 23.9612 87.8727C23.8429 87.9364 23.6821 87.9682 23.4788 87.9682C23.2574 87.9682 23.0738 87.9106 22.9282 87.7953C22.7826 87.677 22.7098 87.4934 22.7098 87.2447C22.7098 87.002 22.8053 86.8154 22.9965 86.6849C23.1876 86.5514 23.4819 86.4786 23.8793 86.4665L24.2934 86.4528V86.3072C24.2934 86.104 24.2494 85.9629 24.1614 85.884C24.0735 85.8051 23.9491 85.7657 23.7883 85.7657C23.6609 85.7657 23.5395 85.7854 23.4242 85.8248C23.3089 85.8613 23.2012 85.9037 23.1011 85.9523L22.9783 85.6519C23.0844 85.5943 23.2103 85.5457 23.356 85.5063C23.5016 85.4638 23.6533 85.4426 23.811 85.4426ZM24.2889 86.7304L23.9294 86.7441C23.626 86.7562 23.4151 86.8048 23.2968 86.8897C23.1815 86.9747 23.1239 87.0945 23.1239 87.2492C23.1239 87.3857 23.1648 87.4859 23.2468 87.5496C23.3317 87.6133 23.4394 87.6451 23.5699 87.6451C23.7731 87.6451 23.943 87.589 24.0795 87.4768C24.2191 87.3615 24.2889 87.1855 24.2889 86.9489V86.7304ZM28.114 85.438C28.39 85.438 28.5963 85.5093 28.7329 85.6519C28.8694 85.7945 28.9376 86.022 28.9376 86.3345V87.9227H28.5417V86.3527C28.5417 85.9674 28.3764 85.7748 28.0457 85.7748C27.8091 85.7748 27.6392 85.843 27.536 85.9796C27.4359 86.1161 27.3858 86.3148 27.3858 86.5757V87.9227H26.9899V86.3527C26.9899 85.9674 26.8231 85.7748 26.4894 85.7748C26.2436 85.7748 26.0737 85.8506 25.9797 86.0023C25.8856 86.154 25.8386 86.3724 25.8386 86.6576V87.9227H25.4381V85.4835H25.7612L25.8204 85.8157H25.8432C25.919 85.6883 26.0206 85.5943 26.1481 85.5336C26.2785 85.4699 26.4165 85.438 26.5622 85.438C26.9444 85.438 27.1932 85.5746 27.3085 85.8476H27.3312C27.4132 85.708 27.5239 85.6049 27.6634 85.5381C27.803 85.4714 27.9532 85.438 28.114 85.438ZM30.6331 85.438C30.8394 85.438 31.0184 85.4835 31.1701 85.5746C31.3218 85.6656 31.4371 85.7945 31.516 85.9614C31.5979 86.1252 31.6388 86.3178 31.6388 86.5393V86.7805H29.9687C29.9748 87.0566 30.0446 87.2674 30.178 87.413C30.3146 87.5556 30.5042 87.6269 30.7469 87.6269C30.9016 87.6269 31.0381 87.6133 31.1564 87.586C31.2778 87.5556 31.4022 87.5132 31.5296 87.4586V87.809C31.4052 87.8636 31.2823 87.903 31.161 87.9273C31.0396 87.9546 30.8955 87.9682 30.7287 87.9682C30.4951 87.9682 30.2903 87.9212 30.1143 87.8272C29.9384 87.7331 29.8003 87.5936 29.7002 87.4085C29.6031 87.2234 29.5546 86.9944 29.5546 86.7213C29.5546 86.4544 29.5986 86.2253 29.6866 86.0342C29.7776 85.843 29.9035 85.6959 30.0643 85.5928C30.2281 85.4896 30.4177 85.438 30.6331 85.438ZM30.6286 85.7657C30.4374 85.7657 30.2857 85.8279 30.1735 85.9523C30.0643 86.0736 29.999 86.2435 29.9778 86.4619H31.2202C31.2171 86.2556 31.1686 86.0888 31.0745 85.9614C30.9805 85.8309 30.8318 85.7657 30.6286 85.7657Z" fill="#242424"/>
<path d="M9.86002 91.6293H123.628C123.942 91.6293 124.197 91.884 124.197 92.1982V104.333C124.197 104.648 123.942 104.902 123.628 104.902H9.86001C9.54585 104.902 9.29118 104.648 9.29118 104.333V92.1982C9.29118 91.884 9.54585 91.6293 9.86002 91.6293Z" fill="white"/>
<path d="M9.86002 91.6293H123.628C123.942 91.6293 124.197 91.884 124.197 92.1982V104.333C124.197 104.648 123.942 104.902 123.628 104.902H9.86001C9.54585 104.902 9.29118 104.648 9.29118 104.333V92.1982C9.29118 91.884 9.54585 91.6293 9.86002 91.6293Z" stroke="#939393" stroke-width="0.379227"/>
<path d="M11.3587 116.16H9.54298V112.91H11.3587V113.27H9.95255V114.285H11.2768V114.64H9.95255V115.8H11.3587V116.16ZM14.6929 113.675C14.969 113.675 15.1753 113.746 15.3118 113.889C15.4483 114.031 15.5166 114.259 15.5166 114.571V116.16H15.1206V114.59C15.1206 114.204 14.9553 114.012 14.6246 114.012C14.388 114.012 14.2181 114.08 14.1149 114.216C14.0148 114.353 13.9648 114.552 13.9648 114.813V116.16H13.5688V114.59C13.5688 114.204 13.402 114.012 13.0683 114.012C12.8225 114.012 12.6526 114.087 12.5586 114.239C12.4645 114.391 12.4175 114.609 12.4175 114.894V116.16H12.017V113.72H12.3402L12.3993 114.053H12.4221C12.4979 113.925 12.5995 113.831 12.727 113.77C12.8574 113.707 12.9955 113.675 13.1411 113.675C13.5233 113.675 13.7721 113.811 13.8874 114.084H13.9102C13.9921 113.945 14.1028 113.842 14.2424 113.775C14.3819 113.708 14.5321 113.675 14.6929 113.675ZM17.1938 113.679C17.4911 113.679 17.7111 113.745 17.8537 113.875C17.9963 114.006 18.0676 114.213 18.0676 114.499V116.16H17.7763L17.699 115.814H17.6807C17.5746 115.947 17.4623 116.046 17.344 116.109C17.2257 116.173 17.0649 116.205 16.8616 116.205C16.6401 116.205 16.4566 116.147 16.311 116.032C16.1654 115.914 16.0925 115.73 16.0925 115.481C16.0925 115.239 16.1881 115.052 16.3792 114.922C16.5704 114.788 16.8647 114.715 17.2621 114.703L17.6762 114.69V114.544C17.6762 114.341 17.6322 114.2 17.5442 114.121C17.4562 114.042 17.3319 114.003 17.1711 114.003C17.0436 114.003 16.9223 114.022 16.807 114.062C16.6917 114.098 16.584 114.141 16.4839 114.189L16.361 113.889C16.4672 113.831 16.5931 113.783 16.7387 113.743C16.8844 113.701 17.0361 113.679 17.1938 113.679ZM17.6716 114.967L17.3121 114.981C17.0088 114.993 16.7979 115.042 16.6796 115.127C16.5643 115.211 16.5067 115.331 16.5067 115.486C16.5067 115.623 16.5476 115.723 16.6295 115.786C16.7145 115.85 16.8222 115.882 16.9526 115.882C17.1559 115.882 17.3258 115.826 17.4623 115.714C17.6019 115.598 17.6716 115.422 17.6716 115.186V114.967ZM19.0257 112.806C19.0864 112.806 19.1395 112.827 19.185 112.869C19.2335 112.909 19.2578 112.973 19.2578 113.061C19.2578 113.148 19.2335 113.214 19.185 113.256C19.1395 113.296 19.0864 113.315 19.0257 113.315C18.959 113.315 18.9028 113.296 18.8573 113.256C18.8118 113.214 18.7891 113.148 18.7891 113.061C18.7891 112.973 18.8118 112.909 18.8573 112.869C18.9028 112.827 18.959 112.806 19.0257 112.806ZM19.2214 113.72V116.16H18.8209V113.72H19.2214ZM20.3946 116.16H19.9942V112.701H20.3946V116.16Z" fill="#242424"/>
<path d="M9.86002 119.866H123.628C123.942 119.866 124.197 120.121 124.197 120.435V132.57C124.197 132.884 123.942 133.139 123.628 133.139H9.86001C9.54585 133.139 9.29118 132.884 9.29118 132.57V120.435C9.29118 120.121 9.54585 119.866 9.86002 119.866Z" fill="white"/>
<path d="M9.86002 119.866H123.628C123.942 119.866 124.197 120.121 124.197 120.435V132.57C124.197 132.884 123.942 133.139 123.628 133.139H9.86001C9.54585 133.139 9.29118 132.884 9.29118 132.57V120.435C9.29118 120.121 9.54585 119.866 9.86002 119.866Z" stroke="#939393" stroke-width="0.379227"/>
<path d="M10.9355 141.461C10.5866 141.461 10.3121 141.578 10.1118 141.811C9.91159 142.045 9.81148 142.365 9.81148 142.772C9.81148 143.175 9.90401 143.495 10.0891 143.732C10.2772 143.965 10.5578 144.082 10.931 144.082C11.0705 144.082 11.204 144.07 11.3314 144.046C11.4588 144.022 11.5847 143.991 11.7091 143.955V144.31C11.5878 144.355 11.4619 144.389 11.3314 144.41C11.204 144.431 11.0508 144.442 10.8718 144.442C10.5411 144.442 10.265 144.373 10.0436 144.237C9.82209 144.1 9.65523 143.906 9.54298 143.654C9.43377 143.403 9.37916 143.107 9.37916 142.767C9.37916 142.439 9.43832 142.151 9.55664 141.902C9.67799 141.651 9.85547 141.455 10.0891 141.315C10.3227 141.173 10.6063 141.102 10.9401 141.102C11.2829 141.102 11.5817 141.165 11.8365 141.293L11.6727 141.638C11.5726 141.593 11.4604 141.552 11.336 141.516C11.2146 141.479 11.0811 141.461 10.9355 141.461ZM14.4843 143.172C14.4843 143.576 14.3812 143.888 14.1749 144.11C13.9716 144.331 13.6955 144.442 13.3466 144.442C13.1312 144.442 12.9386 144.393 12.7687 144.296C12.6018 144.196 12.4699 144.052 12.3728 143.864C12.2757 143.673 12.2272 143.442 12.2272 143.172C12.2272 142.769 12.3273 142.458 12.5275 142.239C12.7308 142.021 13.0084 141.912 13.3603 141.912C13.5787 141.912 13.7729 141.962 13.9428 142.062C14.1127 142.159 14.2447 142.301 14.3387 142.489C14.4358 142.675 14.4843 142.902 14.4843 143.172ZM12.6413 143.172C12.6413 143.46 12.6974 143.689 12.8097 143.859C12.9249 144.026 13.107 144.11 13.3557 144.11C13.6015 144.11 13.782 144.026 13.8973 143.859C14.0126 143.689 14.0702 143.46 14.0702 143.172C14.0702 142.884 14.0126 142.658 13.8973 142.494C13.782 142.33 13.6 142.248 13.3512 142.248C13.1024 142.248 12.9219 142.33 12.8097 142.494C12.6974 142.658 12.6413 142.884 12.6413 143.172ZM17.7948 141.912C18.0709 141.912 18.2772 141.983 18.4137 142.125C18.5503 142.268 18.6185 142.496 18.6185 142.808V144.396H18.2226V142.826C18.2226 142.441 18.0573 142.248 17.7266 142.248C17.4899 142.248 17.32 142.317 17.2169 142.453C17.1168 142.59 17.0667 142.788 17.0667 143.049V144.396H16.6708V142.826C16.6708 142.441 16.5039 142.248 16.1702 142.248C15.9245 142.248 15.7546 142.324 15.6605 142.476C15.5665 142.628 15.5195 142.846 15.5195 143.131V144.396H15.119V141.957H15.4421L15.5013 142.289H15.524C15.5999 142.162 15.7015 142.068 15.8289 142.007C15.9594 141.943 16.0974 141.912 16.243 141.912C16.6253 141.912 16.8741 142.048 16.9894 142.321H17.0121C17.094 142.182 17.2048 142.078 17.3443 142.012C17.4839 141.945 17.634 141.912 17.7948 141.912ZM20.5324 141.912C20.8328 141.912 21.074 142.016 21.256 142.226C21.441 142.435 21.5336 142.75 21.5336 143.172C21.5336 143.588 21.441 143.903 21.256 144.119C21.074 144.334 20.8313 144.442 20.5279 144.442C20.3398 144.442 20.1835 144.407 20.0591 144.337C19.9378 144.267 19.8422 144.184 19.7724 144.087H19.7451C19.7482 144.138 19.7527 144.204 19.7588 144.282C19.7679 144.361 19.7724 144.43 19.7724 144.487V145.488H19.372V141.957H19.6996L19.7542 142.289H19.7724C19.8453 142.183 19.9408 142.094 20.0591 142.021C20.1775 141.948 20.3352 141.912 20.5324 141.912ZM20.4596 142.248C20.2108 142.248 20.0349 142.318 19.9317 142.458C19.8286 142.597 19.7755 142.81 19.7724 143.095V143.172C19.7724 143.472 19.821 143.705 19.9181 143.868C20.0182 144.029 20.2017 144.11 20.4687 144.11C20.6143 144.11 20.7357 144.07 20.8328 143.991C20.9298 143.909 21.0011 143.797 21.0467 143.654C21.0952 143.512 21.1195 143.35 21.1195 143.168C21.1195 142.888 21.0649 142.665 20.9556 142.499C20.8495 142.332 20.6841 142.248 20.4596 142.248ZM23.0955 141.916C23.3929 141.916 23.6128 141.981 23.7554 142.112C23.898 142.242 23.9693 142.45 23.9693 142.735V144.396H23.678L23.6007 144.05H23.5825C23.4763 144.184 23.364 144.282 23.2457 144.346C23.1274 144.41 22.9666 144.442 22.7633 144.442C22.5419 144.442 22.3583 144.384 22.2127 144.269C22.0671 144.151 21.9943 143.967 21.9943 143.718C21.9943 143.475 22.0898 143.289 22.281 143.158C22.4721 143.025 22.7664 142.952 23.1638 142.94L23.5779 142.926V142.781C23.5779 142.577 23.5339 142.436 23.446 142.358C23.358 142.279 23.2336 142.239 23.0728 142.239C22.9454 142.239 22.824 142.259 22.7087 142.298C22.5934 142.335 22.4857 142.377 22.3856 142.426L22.2628 142.125C22.3689 142.068 22.4948 142.019 22.6405 141.98C22.7861 141.937 22.9378 141.916 23.0955 141.916ZM23.5734 143.204L23.2139 143.218C22.9105 143.23 22.6996 143.278 22.5813 143.363C22.466 143.448 22.4084 143.568 22.4084 143.723C22.4084 143.859 22.4493 143.959 22.5313 144.023C22.6162 144.087 22.7239 144.119 22.8544 144.119C23.0576 144.119 23.2275 144.063 23.364 143.95C23.5036 143.835 23.5734 143.659 23.5734 143.422V143.204ZM25.8967 141.912C26.188 141.912 26.4079 141.983 26.5566 142.125C26.7052 142.268 26.7796 142.496 26.7796 142.808V144.396H26.3837V142.835C26.3837 142.444 26.2016 142.248 25.8376 142.248C25.5676 142.248 25.381 142.324 25.2778 142.476C25.1747 142.628 25.1231 142.846 25.1231 143.131V144.396H24.7226V141.957H25.0457L25.1049 142.289H25.1277C25.2065 142.162 25.3158 142.068 25.4553 142.007C25.5949 141.943 25.742 141.912 25.8967 141.912ZM27.1535 141.957H27.5812L28.1091 143.345C28.1546 143.469 28.1956 143.586 28.232 143.695C28.2684 143.805 28.2957 143.909 28.3139 144.009H28.3321C28.3503 143.934 28.3791 143.835 28.4186 143.714C28.458 143.589 28.499 143.465 28.5415 143.34L29.0375 141.957H29.4698L28.4186 144.733C28.3306 144.964 28.2199 145.147 28.0864 145.284C27.9529 145.42 27.7678 145.488 27.5312 145.488C27.4584 145.488 27.3947 145.484 27.3401 145.475C27.2854 145.469 27.2384 145.461 27.199 145.452V145.133C27.2324 145.14 27.2718 145.146 27.3173 145.152C27.3658 145.158 27.4159 145.161 27.4675 145.161C27.607 145.161 27.7193 145.121 27.8042 145.042C27.8892 144.964 27.9574 144.859 28.009 144.728L28.1364 144.405L27.1535 141.957ZM32.007 144.396H30.8329V144.16L31.2151 144.073V141.475L30.8329 141.384V141.147H32.007V141.384L31.6247 141.475V144.073L32.007 144.16V144.396ZM35.2374 142.74C35.2374 143.289 35.0872 143.703 34.7869 143.982C34.4895 144.258 34.0739 144.396 33.54 144.396H32.6344V141.147H33.6355C33.9601 141.147 34.2423 141.208 34.482 141.329C34.7247 141.45 34.9112 141.629 35.0417 141.866C35.1722 142.103 35.2374 142.394 35.2374 142.74ZM34.8051 142.753C34.8051 142.32 34.6974 142.003 34.482 141.802C34.2696 141.599 33.9677 141.497 33.5764 141.497H33.0439V144.046H33.4854C34.3652 144.046 34.8051 143.615 34.8051 142.753Z" fill="#242424"/>
<path d="M9.86002 148.103H123.628C123.942 148.103 124.197 148.357 124.197 148.672V160.807C124.197 161.121 123.942 161.376 123.628 161.376H9.86001C9.54585 161.376 9.29118 161.121 9.29118 160.807V148.672C9.29118 148.358 9.54585 148.103 9.86002 148.103Z" fill="white"/>
<path d="M9.86002 148.103H123.628C123.942 148.103 124.197 148.357 124.197 148.672V160.807C124.197 161.121 123.942 161.376 123.628 161.376H9.86001C9.54585 161.376 9.29118 161.121 9.29118 160.807V148.672C9.29118 148.358 9.54585 148.103 9.86002 148.103Z" stroke="#939393" stroke-width="0.379227"/>
<path d="M10.4395 169.384C10.843 169.384 11.1403 169.461 11.3314 169.616C11.5256 169.767 11.6227 169.998 11.6227 170.308C11.6227 170.48 11.5908 170.625 11.5271 170.74C11.4634 170.855 11.3815 170.948 11.2814 171.017C11.1843 171.087 11.0811 171.14 10.9719 171.177L11.8639 172.633H11.386L10.5988 171.29H9.95255V172.633H9.54298V169.384H10.4395ZM10.4167 169.739H9.95255V170.945H10.4395C10.7034 170.945 10.8961 170.893 11.0174 170.79C11.1388 170.684 11.1994 170.529 11.1994 170.326C11.1994 170.113 11.1357 169.963 11.0083 169.875C10.8809 169.784 10.6837 169.739 10.4167 169.739ZM13.2612 170.148C13.4675 170.148 13.6465 170.194 13.7982 170.285C13.9499 170.376 14.0652 170.505 14.1441 170.672C14.226 170.835 14.267 171.028 14.267 171.25V171.491H12.5968C12.6029 171.767 12.6727 171.978 12.8062 172.123C12.9427 172.266 13.1323 172.337 13.375 172.337C13.5297 172.337 13.6663 172.323 13.7846 172.296C13.9059 172.266 14.0303 172.223 14.1577 172.169V172.519C14.0334 172.574 13.9105 172.613 13.7891 172.637C13.6678 172.665 13.5237 172.678 13.3568 172.678C13.1232 172.678 12.9184 172.631 12.7425 172.537C12.5665 172.443 12.4285 172.304 12.3283 172.119C12.2313 171.934 12.1827 171.705 12.1827 171.432C12.1827 171.165 12.2267 170.936 12.3147 170.744C12.4057 170.553 12.5316 170.406 12.6924 170.303C12.8562 170.2 13.0458 170.148 13.2612 170.148ZM13.2567 170.476C13.0656 170.476 12.9139 170.538 12.8016 170.662C12.6924 170.784 12.6272 170.954 12.6059 171.172H13.8483C13.8453 170.966 13.7967 170.799 13.7027 170.672C13.6086 170.541 13.46 170.476 13.2567 170.476ZM16.5125 173.725V172.683C16.5125 172.628 16.514 172.565 16.5171 172.492C16.5201 172.419 16.5262 172.357 16.5353 172.305H16.508C16.4382 172.408 16.3411 172.496 16.2167 172.569C16.0954 172.642 15.9376 172.678 15.7435 172.678C15.4492 172.678 15.2095 172.574 15.0244 172.364C14.8424 172.152 14.7514 171.837 14.7514 171.418C14.7514 170.999 14.8439 170.684 15.029 170.471C15.2171 170.256 15.4598 170.148 15.7571 170.148C15.9482 170.148 16.1045 170.185 16.2258 170.257C16.3472 170.33 16.4443 170.42 16.5171 170.526H16.5353L16.5944 170.194H16.913V173.725H16.5125ZM15.8208 172.346C16.0696 172.346 16.2471 172.278 16.3533 172.141C16.4594 172.002 16.514 171.79 16.5171 171.504V171.422C16.5171 171.113 16.4655 170.879 16.3624 170.722C16.2592 170.561 16.0757 170.48 15.8117 170.48C15.5933 170.48 15.431 170.567 15.3248 170.74C15.2186 170.91 15.1655 171.139 15.1655 171.427C15.1655 171.715 15.2186 171.941 15.3248 172.105C15.431 172.266 15.5963 172.346 15.8208 172.346ZM19.7264 170.194V172.633H19.3988L19.3396 172.31H19.3214C19.2425 172.437 19.1333 172.531 18.9937 172.592C18.8542 172.65 18.7055 172.678 18.5478 172.678C18.2535 172.678 18.032 172.609 17.8834 172.469C17.7347 172.327 17.6604 172.1 17.6604 171.791V170.194H18.0654V171.764C18.0654 172.152 18.2459 172.346 18.6069 172.346C18.8769 172.346 19.0635 172.27 19.1667 172.119C19.2729 171.967 19.3259 171.749 19.3259 171.463V170.194H19.7264ZM21.4428 170.148C21.6491 170.148 21.8281 170.194 21.9798 170.285C22.1315 170.376 22.2467 170.505 22.3256 170.672C22.4075 170.835 22.4485 171.028 22.4485 171.25V171.491H20.7784C20.7844 171.767 20.8542 171.978 20.9877 172.123C21.1242 172.266 21.3138 172.337 21.5565 172.337C21.7113 172.337 21.8478 172.323 21.9661 172.296C22.0875 172.266 22.2119 172.223 22.3393 172.169V172.519C22.2149 172.574 22.092 172.613 21.9707 172.637C21.8493 172.665 21.7052 172.678 21.5383 172.678C21.3047 172.678 21.1 172.631 20.924 172.537C20.748 172.443 20.61 172.304 20.5099 172.119C20.4128 171.934 20.3643 171.705 20.3643 171.432C20.3643 171.165 20.4082 170.936 20.4962 170.744C20.5872 170.553 20.7131 170.406 20.8739 170.303C21.0378 170.2 21.2274 170.148 21.4428 170.148ZM21.4382 170.476C21.2471 170.476 21.0954 170.538 20.9832 170.662C20.8739 170.784 20.8087 170.954 20.7875 171.172H22.0298C22.0268 170.966 21.9782 170.799 21.8842 170.672C21.7902 170.541 21.6415 170.476 21.4382 170.476ZM24.6577 171.959C24.6577 172.196 24.5697 172.375 24.3937 172.496C24.2178 172.618 23.9811 172.678 23.6838 172.678C23.5139 172.678 23.3668 172.665 23.2424 172.637C23.121 172.61 23.0133 172.572 22.9193 172.524V172.16C23.0164 172.208 23.1332 172.254 23.2697 172.296C23.4092 172.336 23.5503 172.355 23.6929 172.355C23.8962 172.355 24.0433 172.323 24.1343 172.26C24.2253 172.193 24.2708 172.105 24.2708 171.996C24.2708 171.935 24.2542 171.881 24.2208 171.832C24.1874 171.783 24.1267 171.735 24.0388 171.686C23.9538 171.638 23.8309 171.583 23.6701 171.523C23.5124 171.462 23.3774 171.401 23.2651 171.341C23.1529 171.28 23.0664 171.207 23.0057 171.122C22.9451 171.037 22.9147 170.928 22.9147 170.794C22.9147 170.588 22.9982 170.429 23.165 170.317C23.3349 170.204 23.5564 170.148 23.8294 170.148C23.9781 170.148 24.1161 170.163 24.2435 170.194C24.374 170.224 24.4953 170.264 24.6076 170.312L24.4711 170.631C24.3679 170.588 24.2602 170.552 24.148 170.521C24.0357 170.491 23.9204 170.476 23.8021 170.476C23.6383 170.476 23.5124 170.503 23.4244 170.558C23.3395 170.609 23.297 170.681 23.297 170.772C23.297 170.841 23.3167 170.899 23.3561 170.945C23.3956 170.99 23.4608 171.036 23.5518 171.081C23.6459 171.127 23.7703 171.178 23.925 171.236C24.0797 171.294 24.2117 171.353 24.3209 171.413C24.4301 171.474 24.5135 171.548 24.5712 171.636C24.6288 171.721 24.6577 171.829 24.6577 171.959ZM26.0616 172.351C26.1223 172.351 26.1845 172.346 26.2482 172.337C26.3119 172.328 26.3635 172.316 26.4029 172.301V172.606C26.3605 172.627 26.2998 172.644 26.2209 172.656C26.142 172.671 26.0662 172.678 25.9934 172.678C25.8659 172.678 25.7476 172.657 25.6384 172.615C25.5322 172.569 25.4458 172.492 25.379 172.383C25.3123 172.273 25.2789 172.12 25.2789 171.923V170.503H24.933V170.312L25.2834 170.153L25.4427 169.634H25.6794V170.194H26.3847V170.503H25.6794V171.914C25.6794 172.063 25.7143 172.173 25.784 172.246C25.8568 172.316 25.9494 172.351 26.0616 172.351ZM29.1565 172.633H28.747V169.743H27.7322V169.384H30.1668V169.743H29.1565V172.633ZM30.131 170.194H30.5588L31.0867 171.582C31.1322 171.706 31.1731 171.823 31.2095 171.932C31.2459 172.041 31.2732 172.146 31.2914 172.246H31.3096C31.3278 172.17 31.3567 172.072 31.3961 171.95C31.4355 171.826 31.4765 171.702 31.519 171.577L32.015 170.194H32.4473L31.3961 172.97C31.3081 173.2 31.1974 173.384 31.0639 173.52C30.9304 173.657 30.7454 173.725 30.5087 173.725C30.4359 173.725 30.3722 173.721 30.3176 173.711C30.263 173.705 30.216 173.698 30.1765 173.689V173.37C30.2099 173.376 30.2493 173.382 30.2948 173.388C30.3434 173.394 30.3934 173.397 30.445 173.397C30.5846 173.397 30.6968 173.358 30.7818 173.279C30.8667 173.2 30.935 173.096 30.9865 172.965L31.114 172.642L30.131 170.194ZM33.9935 170.148C34.2939 170.148 34.535 170.253 34.7171 170.462C34.9021 170.672 34.9947 170.987 34.9947 171.409C34.9947 171.824 34.9021 172.14 34.7171 172.355C34.535 172.571 34.2923 172.678 33.989 172.678C33.8009 172.678 33.6446 172.644 33.5202 172.574C33.3989 172.504 33.3033 172.421 33.2335 172.323H33.2062C33.2093 172.375 33.2138 172.44 33.2199 172.519C33.229 172.598 33.2335 172.666 33.2335 172.724V173.725H32.8331V170.194H33.1607L33.2153 170.526H33.2335C33.3063 170.42 33.4019 170.33 33.5202 170.257C33.6385 170.185 33.7963 170.148 33.9935 170.148ZM33.9207 170.485C33.6719 170.485 33.496 170.555 33.3928 170.694C33.2897 170.834 33.2366 171.046 33.2335 171.331V171.409C33.2335 171.709 33.2821 171.941 33.3792 172.105C33.4793 172.266 33.6628 172.346 33.9298 172.346C34.0754 172.346 34.1968 172.307 34.2939 172.228C34.3909 172.146 34.4622 172.034 34.5077 171.891C34.5563 171.749 34.5805 171.586 34.5805 171.404C34.5805 171.125 34.5259 170.902 34.4167 170.735C34.3105 170.568 34.1452 170.485 33.9207 170.485ZM36.5748 170.148C36.7811 170.148 36.9601 170.194 37.1118 170.285C37.2635 170.376 37.3788 170.505 37.4577 170.672C37.5396 170.835 37.5805 171.028 37.5805 171.25V171.491H35.9104C35.9165 171.767 35.9863 171.978 36.1198 172.123C36.2563 172.266 36.4459 172.337 36.6886 172.337C36.8433 172.337 36.9798 172.323 37.0982 172.296C37.2195 172.266 37.3439 172.223 37.4713 172.169V172.519C37.3469 172.574 37.2241 172.613 37.1027 172.637C36.9814 172.665 36.8373 172.678 36.6704 172.678C36.4368 172.678 36.232 172.631 36.0561 172.537C35.8801 172.443 35.7421 172.304 35.6419 172.119C35.5449 171.934 35.4963 171.705 35.4963 171.432C35.4963 171.165 35.5403 170.936 35.6283 170.744C35.7193 170.553 35.8452 170.406 36.006 170.303C36.1698 170.2 36.3594 170.148 36.5748 170.148ZM36.5703 170.476C36.3792 170.476 36.2275 170.538 36.1152 170.662C36.006 170.784 35.9408 170.954 35.9195 171.172H37.1619C37.1588 170.966 37.1103 170.799 37.0163 170.672C36.9222 170.541 36.7735 170.476 36.5703 170.476Z" fill="#242424"/>
<path d="M9.86002 176.34H123.628C123.942 176.34 124.197 176.594 124.197 176.908V189.044C124.197 189.358 123.942 189.612 123.628 189.612H9.86001C9.54585 189.612 9.29118 189.358 9.29118 189.044V176.908C9.29118 176.594 9.54585 176.34 9.86002 176.34Z" fill="white"/>
<path d="M9.86002 176.34H123.628C123.942 176.34 124.197 176.594 124.197 176.908V189.044C124.197 189.358 123.942 189.612 123.628 189.612H9.86001C9.54585 189.612 9.29118 189.358 9.29118 189.044V176.908C9.29118 176.594 9.54585 176.34 9.86002 176.34Z" stroke="#939393" stroke-width="0.379227"/>
<path d="M116.812 184.209C116.774 184.209 116.736 184.189 116.717 184.17L114.57 182C114.513 181.942 114.513 181.845 114.57 181.787C114.627 181.729 114.722 181.729 114.779 181.787L116.812 183.86L118.826 181.787C118.883 181.729 118.978 181.729 119.035 181.787C119.092 181.845 119.092 181.942 119.035 182L116.907 184.17C116.869 184.189 116.85 184.209 116.812 184.209Z" fill="#242424"/>
<mask id="path-19-inside-3_10400_30969" fill="white">
<path d="M0 205.797H133.488V232H0V205.797Z"/>
</mask>
<path d="M0 205.797H133.488V232H0V205.797Z" fill="white"/>
<path d="M0 206.176H133.488V205.418H0V206.176Z" fill="#C9C9C9" mask="url(#path-19-inside-3_10400_30969)"/>
<path d="M66.841 212.054H94.4593C94.7735 212.054 95.0282 212.309 95.0282 212.623V225.174C95.0282 225.488 94.7735 225.743 94.4593 225.743H66.841C66.5268 225.743 66.2721 225.488 66.2721 225.174V212.623C66.2721 212.309 66.5268 212.054 66.841 212.054Z" fill="white"/>
<path d="M66.841 212.054H94.4593C94.7735 212.054 95.0282 212.309 95.0282 212.623V225.174C95.0282 225.488 94.7735 225.743 94.4593 225.743H66.841C66.5268 225.743 66.2721 225.488 66.2721 225.174V212.623C66.2721 212.309 66.5268 212.054 66.841 212.054Z" stroke="#1B77AF" stroke-width="0.379227"/>
<path d="M74.5255 217.474C74.1185 217.474 73.7981 217.61 73.5645 217.883C73.3309 218.155 73.2141 218.529 73.2141 219.003C73.2141 219.474 73.3221 219.847 73.538 220.123C73.7574 220.396 74.0848 220.532 74.5202 220.532C74.683 220.532 74.8387 220.518 74.9874 220.49C75.1361 220.461 75.2829 220.426 75.4281 220.384V220.798C75.2865 220.851 75.1396 220.89 74.9874 220.914C74.8387 220.939 74.66 220.952 74.4512 220.952C74.0654 220.952 73.7433 220.872 73.4849 220.713C73.2265 220.553 73.0319 220.327 72.9009 220.033C72.7735 219.739 72.7098 219.394 72.7098 218.998C72.7098 218.616 72.7788 218.279 72.9168 217.989C73.0584 217.695 73.2655 217.467 73.538 217.304C73.8105 217.138 74.1415 217.055 74.5308 217.055C74.9308 217.055 75.2794 217.129 75.5767 217.278L75.3856 217.681C75.2688 217.628 75.1378 217.58 74.9927 217.538C74.8511 217.495 74.6954 217.474 74.5255 217.474ZM77.2695 218.005C77.6163 218.005 77.873 218.081 78.0393 218.233C78.2057 218.386 78.2888 218.628 78.2888 218.961V220.899H77.9491L77.8588 220.495H77.8376C77.7137 220.651 77.5827 220.766 77.4447 220.84C77.3066 220.914 77.1191 220.952 76.8819 220.952C76.6235 220.952 76.4094 220.884 76.2395 220.75C76.0696 220.612 75.9847 220.398 75.9847 220.107C75.9847 219.824 76.0961 219.607 76.3191 219.454C76.5421 219.299 76.8854 219.214 77.3491 219.2L77.8323 219.184V219.014C77.8323 218.777 77.7809 218.612 77.6783 218.52C77.5756 218.428 77.4305 218.382 77.2429 218.382C77.0943 218.382 76.9527 218.405 76.8182 218.451C76.6837 218.494 76.558 218.543 76.4412 218.6L76.2979 218.249C76.4218 218.182 76.5687 218.125 76.7386 218.079C76.9085 218.03 77.0854 218.005 77.2695 218.005ZM77.8269 219.508L77.4075 219.523C77.0536 219.538 76.8076 219.594 76.6695 219.693C76.535 219.792 76.4678 219.932 76.4678 220.113C76.4678 220.272 76.5156 220.389 76.6111 220.463C76.7102 220.538 76.8359 220.575 76.9881 220.575C77.2252 220.575 77.4234 220.509 77.5827 220.378C77.7455 220.244 77.8269 220.038 77.8269 219.762V219.508ZM80.5375 218C80.8773 218 81.1339 218.083 81.3074 218.249C81.4808 218.416 81.5675 218.681 81.5675 219.046V220.899H81.1056V219.078C81.1056 218.621 80.8932 218.393 80.4685 218.393C80.1535 218.393 79.9358 218.481 79.8155 218.658C79.6951 218.835 79.635 219.09 79.635 219.423V220.899H79.1678V218.053H79.5447L79.6137 218.44H79.6403C79.7323 218.292 79.8597 218.182 80.0225 218.111C80.1854 218.037 80.357 218 80.5375 218ZM83.5912 220.952C83.3363 220.952 83.1116 220.9 82.9169 220.798C82.7222 220.695 82.5683 220.536 82.455 220.32C82.3453 220.104 82.2904 219.828 82.2904 219.492C82.2904 219.141 82.3471 218.856 82.4603 218.637C82.5771 218.417 82.7364 218.256 82.9381 218.154C83.1399 218.051 83.3682 218 83.623 218C83.7646 218 83.9027 218.016 84.0372 218.048C84.1752 218.076 84.2867 218.111 84.3716 218.154L84.2283 218.541C84.1433 218.509 84.0442 218.479 83.931 218.451C83.8177 218.423 83.7115 218.409 83.6124 218.409C83.0532 218.409 82.7736 218.768 82.7736 219.486C82.7736 219.83 82.8408 220.093 82.9753 220.277C83.1134 220.458 83.3169 220.548 83.5859 220.548C83.7381 220.548 83.8743 220.532 83.9947 220.5C84.115 220.469 84.2247 220.43 84.3238 220.384V220.798C84.2283 220.847 84.1221 220.884 84.0053 220.909C83.892 220.937 83.754 220.952 83.5912 220.952ZM86.0996 218C86.3403 218 86.5491 218.053 86.7261 218.159C86.9031 218.265 87.0376 218.416 87.1296 218.61C87.2251 218.801 87.2729 219.026 87.2729 219.285V219.566H85.3245C85.3315 219.888 85.4129 220.134 85.5687 220.304C85.728 220.47 85.9492 220.553 86.2323 220.553C86.4128 220.553 86.5721 220.538 86.7102 220.506C86.8517 220.47 86.9969 220.421 87.1455 220.357V220.766C87.0004 220.83 86.857 220.876 86.7155 220.904C86.5739 220.936 86.4058 220.952 86.2111 220.952C85.9386 220.952 85.6996 220.897 85.4944 220.787C85.2891 220.677 85.128 220.515 85.0112 220.299C84.898 220.083 84.8413 219.815 84.8413 219.497C84.8413 219.185 84.8926 218.918 84.9953 218.695C85.1015 218.472 85.2484 218.301 85.436 218.18C85.6271 218.06 85.8483 218 86.0996 218ZM86.0943 218.382C85.8713 218.382 85.6943 218.455 85.5634 218.6C85.436 218.741 85.3599 218.939 85.3351 219.194H86.7845C86.7809 218.954 86.7243 218.759 86.6146 218.61C86.5049 218.458 86.3314 218.382 86.0943 218.382ZM88.4646 220.899H87.9974V216.864H88.4646V220.899Z" fill="#1B77AF"/>
<path d="M98.2515 212.623C98.2515 212.204 98.591 211.865 99.0099 211.865H123.628C124.047 211.865 124.387 212.204 124.387 212.623V225.174C124.387 225.593 124.047 225.932 123.628 225.932H99.0099C98.591 225.932 98.2515 225.593 98.2515 225.174V212.623Z" fill="#1B77AF"/>
<path d="M107.213 220.899L106.757 219.725H105.254L104.803 220.899H104.32L105.801 217.092H106.231L107.707 220.899H107.213ZM106.613 219.3L106.189 218.154C106.178 218.125 106.16 218.074 106.136 218C106.111 217.925 106.086 217.849 106.061 217.771C106.04 217.69 106.022 217.628 106.008 217.586C105.98 217.695 105.95 217.803 105.918 217.909C105.89 218.012 105.865 218.094 105.844 218.154L105.414 219.3H106.613ZM109.516 218C109.866 218 110.148 218.122 110.36 218.366C110.576 218.61 110.684 218.978 110.684 219.47C110.684 219.955 110.576 220.323 110.36 220.575C110.148 220.826 109.865 220.952 109.511 220.952C109.291 220.952 109.109 220.911 108.964 220.83C108.822 220.748 108.711 220.651 108.629 220.538H108.597C108.601 220.598 108.606 220.674 108.613 220.766C108.624 220.858 108.629 220.937 108.629 221.005V222.173H108.162V218.053H108.544L108.608 218.44H108.629C108.714 218.317 108.826 218.212 108.964 218.127C109.102 218.042 109.286 218 109.516 218ZM109.431 218.393C109.141 218.393 108.935 218.474 108.815 218.637C108.695 218.8 108.633 219.047 108.629 219.38V219.47C108.629 219.821 108.686 220.092 108.799 220.283C108.916 220.47 109.13 220.564 109.442 220.564C109.611 220.564 109.753 220.518 109.866 220.426C109.98 220.33 110.063 220.2 110.116 220.033C110.172 219.867 110.201 219.677 110.201 219.465C110.201 219.139 110.137 218.879 110.01 218.685C109.886 218.49 109.693 218.393 109.431 218.393ZM112.782 218C113.133 218 113.414 218.122 113.626 218.366C113.842 218.61 113.95 218.978 113.95 219.47C113.95 219.955 113.842 220.323 113.626 220.575C113.414 220.826 113.131 220.952 112.777 220.952C112.558 220.952 112.375 220.911 112.23 220.83C112.089 220.748 111.977 220.651 111.896 220.538H111.864C111.867 220.598 111.873 220.674 111.88 220.766C111.89 220.858 111.896 220.937 111.896 221.005V222.173H111.428V218.053H111.811L111.874 218.44H111.896C111.981 218.317 112.092 218.212 112.23 218.127C112.368 218.042 112.552 218 112.782 218ZM112.697 218.393C112.407 218.393 112.202 218.474 112.081 218.637C111.961 218.8 111.899 219.047 111.896 219.38V219.47C111.896 219.821 111.952 220.092 112.066 220.283C112.182 220.47 112.396 220.564 112.708 220.564C112.878 220.564 113.019 220.518 113.133 220.426C113.246 220.33 113.329 220.2 113.382 220.033C113.439 219.867 113.467 219.677 113.467 219.465C113.467 219.139 113.403 218.879 113.276 218.685C113.152 218.49 112.959 218.393 112.697 218.393ZM115.162 220.899H114.695V216.864H115.162V220.899ZM115.618 218.053H116.117L116.733 219.672C116.786 219.817 116.833 219.954 116.876 220.081C116.918 220.208 116.95 220.33 116.971 220.447H116.993C117.014 220.359 117.048 220.244 117.094 220.102C117.14 219.957 117.187 219.812 117.237 219.667L117.816 218.053H118.32L117.094 221.291C116.991 221.56 116.862 221.775 116.706 221.934C116.55 222.093 116.334 222.173 116.058 222.173C115.973 222.173 115.899 222.167 115.835 222.157C115.772 222.15 115.717 222.141 115.671 222.13V221.759C115.71 221.766 115.756 221.773 115.809 221.78C115.865 221.787 115.924 221.791 115.984 221.791C116.147 221.791 116.278 221.744 116.377 221.652C116.476 221.56 116.556 221.438 116.616 221.286L116.764 220.909L115.618 218.053Z" fill="white"/>
</g>
<g filter="url(#filter1_i_10400_30969)">
<rect width="412" height="27.1545" fill="white"/>
<path d="M0 0H22.3601L36.05 27.1545H0V0Z" fill="#DA291C"/>
<line y1="26.9205" x2="36.05" y2="26.9205" stroke="#C9C9C9" stroke-width="0.468182"/>
<path d="M10.7392 16.0368H14.472L15.0802 17.4538H10.0397L9.23387 19.0847H7.00635L12.5257 8.35437H14.069L19.5884 19.0847H17.3685L13.3012 10.7971L10.7392 16.0368Z" fill="white"/>
<rect x="43.541" y="10.7682" width="56.1818" height="5.61818" rx="0.936364" fill="#C9C9C9"/>
<g clip-path="url(#clip2_10400_30969)">
<rect x="234.093" y="5.38412" width="93.1682" height="16.3864" rx="0.702273" fill="white"/>
<rect x="234.093" y="5.38412" width="93.1682" height="16.3864" rx="0.702273" stroke="#C9C9C9" stroke-width="0.468182"/>
<g clip-path="url(#clip3_10400_30969)">
<path fill-rule="evenodd" clip-rule="evenodd" d="M242.577 10.6507C241.318 10.6507 240.297 11.6717 240.297 12.9311C240.297 14.1905 241.318 15.2115 242.577 15.2115C243.836 15.2115 244.857 14.1905 244.857 12.9311C244.857 11.6717 243.836 10.6507 242.577 10.6507ZM239.946 12.9311C239.946 11.4779 241.124 10.2999 242.577 10.2999C244.03 10.2999 245.208 11.4779 245.208 12.9311C245.208 14.3843 244.03 15.5623 242.577 15.5623C241.124 15.5623 239.946 14.3843 239.946 12.9311Z" fill="#939393"/>
<path fill-rule="evenodd" clip-rule="evenodd" d="M244.301 14.6547C244.369 14.5862 244.48 14.5862 244.549 14.6547L245.414 15.5201C245.483 15.5886 245.483 15.6997 245.414 15.7682C245.346 15.8367 245.234 15.8367 245.166 15.7682L244.301 14.9028C244.232 14.8343 244.232 14.7232 244.301 14.6547Z" fill="#939393"/>
<path fill-rule="evenodd" clip-rule="evenodd" d="M245.774 15.7916C245.679 15.6963 245.533 15.6963 245.437 15.7916C245.342 15.8868 245.342 16.033 245.437 16.1282L245.741 16.4322C245.745 16.4354 245.748 16.4387 245.751 16.4421C245.816 16.5184 245.977 16.5332 246.078 16.4322C246.173 16.337 246.173 16.1908 246.078 16.0956L245.774 15.7916ZM245.189 15.5435C245.422 15.3113 245.79 15.3113 246.022 15.5435L246.326 15.8475C246.558 16.0798 246.558 16.4481 246.326 16.6803C246.101 16.9051 245.706 16.9213 245.489 16.676L245.189 16.3763C244.957 16.144 244.957 15.7757 245.189 15.5435Z" fill="#939393"/>
</g>
<path d="M346.223 18.4932C343.508 18.4932 341.307 16.2923 341.307 13.5773C341.307 10.8623 343.508 8.66138 346.223 8.66138C348.938 8.66138 351.138 10.8623 351.138 13.5773C351.138 16.2923 348.938 18.4932 346.223 18.4932Z" fill="#C9C9C9"/>
<path d="M368.696 18.4932C365.981 18.4932 363.78 16.2923 363.78 13.5773C363.78 10.8623 365.981 8.66138 368.696 8.66138C371.411 8.66138 373.612 10.8623 373.612 13.5773C373.612 16.2923 371.411 18.4932 368.696 18.4932Z" fill="#C9C9C9"/>
<circle cx="395.382" cy="13.5773" r="9.36364" fill="white"/>
<g clip-path="url(#clip4_10400_30969)">
<path d="M390.031 21.2615V20.1714C390.031 18.7523 390.595 17.3913 391.598 16.3879C392.602 15.3844 393.963 14.8207 395.382 14.8207C396.801 14.8207 398.162 15.3844 399.165 16.3879C400.169 17.3913 400.732 18.7523 400.732 20.1714V21.2615C402.368 20.1224 403.598 18.4909 404.242 16.6045C404.887 14.7181 404.913 12.6752 404.316 10.7733C403.719 8.87127 402.53 7.20944 400.923 6.02963C399.317 4.84983 397.375 4.21362 395.382 4.21362C393.388 4.21362 391.447 4.84983 389.84 6.02963C388.233 7.20944 387.045 8.87127 386.448 10.7733C385.851 12.6752 385.876 14.7181 386.521 16.6045C387.165 18.4909 388.395 20.1224 390.031 21.2615V21.2615ZM395.382 7.31641C395.989 7.31641 396.582 7.49646 397.087 7.83379C397.592 8.17112 397.986 8.65058 398.218 9.21154C398.45 9.77249 398.511 10.3898 398.393 10.9853C398.274 11.5808 397.982 12.1278 397.552 12.5571C397.123 12.9865 396.576 13.2788 395.981 13.3973C395.385 13.5158 394.768 13.455 394.207 13.2226C393.646 12.9902 393.166 12.5968 392.829 12.0919C392.492 11.5871 392.312 10.9935 392.312 10.3864C392.314 9.5727 392.638 8.79287 393.213 8.21753C393.788 7.64219 394.568 7.31818 395.382 7.31641V7.31641Z" fill="#C9C9C9"/>
</g>
</g>
</g>
</g>
<defs>
<filter id="filter0_d_10400_30969" x="-3.03382" y="25.4831" width="139.555" height="211.068" filterUnits="userSpaceOnUse" color-interpolation-filters="sRGB">
<feFlood flood-opacity="0" result="BackgroundImageFix"/>
<feColorMatrix in="SourceAlpha" type="matrix" values="0 0 0 0 0 0 0 0 0 0 0 0 0 0 0 0 0 0 127 0" result="hardAlpha"/>
<feOffset dy="1.51691"/>
<feGaussianBlur stdDeviation="1.51691"/>
<feColorMatrix type="matrix" values="0 0 0 0 0 0 0 0 0 0 0 0 0 0 0 0 0 0 0.25 0"/>
<feBlend mode="normal" in2="BackgroundImageFix" result="effect1_dropShadow_10400_30969"/>
<feBlend mode="normal" in="SourceGraphic" in2="effect1_dropShadow_10400_30969" result="shape"/>
</filter>
<filter id="filter1_i_10400_30969" x="0" y="0" width="412" height="27.1545" filterUnits="userSpaceOnUse" color-interpolation-filters="sRGB">
<feFlood flood-opacity="0" result="BackgroundImageFix"/>
<feBlend mode="normal" in="SourceGraphic" in2="BackgroundImageFix" result="shape"/>
<feColorMatrix in="SourceAlpha" type="matrix" values="0 0 0 0 0 0 0 0 0 0 0 0 0 0 0 0 0 0 127 0" result="hardAlpha"/>
<feOffset dy="-0.468182"/>
<feComposite in2="hardAlpha" operator="arithmetic" k2="-1" k3="1"/>
<feColorMatrix type="matrix" values="0 0 0 0 0.788235 0 0 0 0 0.788235 0 0 0 0 0.788235 0 0 0 1 0"/>
<feBlend mode="normal" in2="shape" result="effect1_innerShadow_10400_30969"/>
</filter>
<clipPath id="clip0_10400_30969">
<rect width="412" height="232" fill="white"/>
</clipPath>
<clipPath id="clip1_10400_30969">
<rect width="318" height="205" fill="white" transform="translate(94 27)"/>
</clipPath>
<clipPath id="clip2_10400_30969">
<rect width="304.786" height="27.1545" fill="white" transform="translate(107.214)"/>
</clipPath>
<clipPath id="clip3_10400_30969">
<rect width="7.49091" height="7.49091" fill="white" transform="translate(239.477 9.83179)"/>
</clipPath>
<clipPath id="clip4_10400_30969">
<rect width="18.7273" height="17.1667" fill="white" transform="translate(386.018 4.21362)"/>
</clipPath>
</defs>
</svg>
