<svg width="142" height="57" viewBox="0 0 142 57" fill="none" xmlns="http://www.w3.org/2000/svg">
<rect width="142" height="57" fill="white"/>
<rect width="1" height="22" transform="matrix(1 0 0 -1 58 39.5)" fill="#939393"/>
<path d="M15.4169 33.251H22.8338L24.0423 36.1561H14.0272L12.426 39.5H8L18.9668 17.5H22.0332L33 39.5H28.5891L20.5076 22.5083L15.4169 33.251Z" fill="#DA291C"/>
<path d="M130.422 17.5118C126.97 17.5118 123.888 19.114 121.871 21.6105V17.5118H97.0317V30.5317L84 17.5V39.5H121.869V35.4012C123.888 37.8978 126.968 39.5 130.42 39.5C136.482 39.5 141.414 34.5677 141.414 28.5059C141.414 22.444 136.484 17.5118 130.422 17.5118ZM119.428 30.5435H105.99V26.4722H119.428V30.5435ZM105.99 19.9534H119.428V24.0247H105.99V19.9534ZM86.4436 23.3991L100.103 37.0584H86.4436V23.3991ZM99.4733 32.9733V19.9534H103.545V37.0447L99.4733 32.9733ZM105.988 37.0564V32.9851H119.426V37.0564H105.988ZM130.42 37.0564C125.705 37.0564 121.869 33.2204 121.869 28.5059C121.869 23.7913 125.705 19.9553 130.42 19.9553C135.135 19.9553 138.971 23.7913 138.971 28.5059C138.971 33.2204 135.135 37.0564 130.42 37.0564Z" fill="#242424"/>
<path d="M130.422 24.0267C127.951 24.0267 125.943 26.0368 125.943 28.5059C125.943 30.975 127.953 32.9851 130.422 32.9851C132.891 32.9851 134.901 30.975 134.901 28.5059C134.901 26.0368 132.891 24.0267 130.422 24.0267ZM130.422 30.5415C129.3 30.5415 128.386 29.6277 128.386 28.5059C128.386 27.3841 129.3 26.4702 130.422 26.4702C131.544 26.4702 132.458 27.3841 132.458 28.5059C132.458 29.6277 131.544 30.5415 130.422 30.5415Z" fill="#242424"/>
</svg>
