<svg width="104" height="58" viewBox="0 0 104 58" fill="none" xmlns="http://www.w3.org/2000/svg">
<rect width="104" height="58" fill="#242424"/>
<path d="M74.2153 15.2203C69.8869 15.2203 66.0208 17.2296 63.4926 20.3603V15.2203H32.3424V31.5479L16 15.2055V42.7945H63.4901V37.6545C66.0208 40.7852 69.8844 42.7945 74.2129 42.7945C81.8147 42.7945 88 36.6092 88 29.0074C88 21.4055 81.8172 15.2203 74.2153 15.2203ZM60.4282 31.5627H43.5767V26.457H60.4282V31.5627ZM43.5767 18.2822H60.4282V23.3878H43.5767V18.2822ZM19.0644 22.6032L36.1937 39.7326H19.0644V22.6032ZM35.4043 34.6098V18.2822H40.5099V39.7154L35.4043 34.6098ZM43.5743 39.7302V34.6246H60.4257V39.7302H43.5743ZM74.2129 39.7302C68.3006 39.7302 63.4901 34.9197 63.4901 29.0074C63.4901 23.0951 68.3006 18.2846 74.2129 18.2846C80.1252 18.2846 84.9356 23.0951 84.9356 29.0074C84.9356 34.9197 80.1252 39.7302 74.2129 39.7302Z" fill="white"/>
<path d="M74.2153 23.3902C71.1165 23.3902 68.5982 25.9111 68.5982 29.0074C68.5982 32.1037 71.119 34.6246 74.2153 34.6246C77.3117 34.6246 79.8325 32.1037 79.8325 29.0074C79.8325 25.9111 77.3117 23.3902 74.2153 23.3902ZM74.2153 31.5602C72.8086 31.5602 71.6625 30.4141 71.6625 29.0074C71.6625 27.6006 72.8086 26.4546 74.2153 26.4546C75.6221 26.4546 76.7681 27.6006 76.7681 29.0074C76.7681 30.4141 75.6221 31.5602 74.2153 31.5602Z" fill="white"/>
</svg>
