<svg width="91" height="48" viewBox="0 0 91 48" fill="none" xmlns="http://www.w3.org/2000/svg">
<g clip-path="url(#clip0_79_19750)">
<rect width="34" height="58" transform="translate(0 -5)" fill="#DA291C"/>
<path fill-rule="evenodd" clip-rule="evenodd" d="M22.7065 13L33.9998 35.537H29.442L21.1198 18.1305L15.8931 29.1355H23.5309L24.7754 32.1115H14.4465L12.8131 35.537H8.25537L19.5487 13H22.7065Z" fill="white"/>
<path d="M34 -5L63 53H34V-5Z" fill="#DA291C"/>
<path fill-rule="evenodd" clip-rule="evenodd" d="M71 34.6399H79.0866C85.3538 34.6399 90.4079 29.8849 90.4079 23.8684C90.4079 17.852 85.3538 13 79.0866 13H71V34.6399ZM72.6173 32.8552L78.7834 29.4368V18.2913L72.6173 14.8765V32.8552ZM73.6137 33.0872H78.7834V30.2212L73.6137 33.0872ZM79.5921 33.0748C84.3925 32.8381 88.2737 29.2488 88.743 24.6998L79.5921 29.7729V33.0748ZM88.7904 23.8333C88.7903 23.852 88.7901 23.8707 88.7899 23.8894L79.5921 28.9885V18.7392L88.7904 23.8333ZM88.7604 23.0325C88.3806 18.4026 84.4587 14.7993 79.5921 14.5648V17.9549L88.7604 23.0325ZM78.7834 14.5526V17.5071L73.4486 14.5526H78.7834Z" fill="black"/>
</g>
<defs>
<clipPath id="clip0_79_19750">
<rect width="91" height="48" fill="white"/>
</clipPath>
</defs>
</svg>
