<svg width="271" height="58" viewBox="0 0 271 58" fill="none" xmlns="http://www.w3.org/2000/svg">
<rect width="268" height="58" fill="#242424"/>
<path d="M74.2153 15.5148C69.8869 15.5148 66.0208 17.524 63.4926 20.6548V15.5148H32.3424V31.8424L16 15.5V43.089H63.4901V37.949C66.0208 41.0797 69.8844 43.089 74.2129 43.089C81.8147 43.089 88 36.9037 88 29.3019C88 21.7 81.8172 15.5148 74.2153 15.5148ZM60.4282 31.8572H43.5767V26.7515H60.4282V31.8572ZM43.5767 18.5766H60.4282V23.6823H43.5767V18.5766ZM19.0644 22.8977L36.1937 40.0271H19.0644V22.8977ZM35.4043 34.9043V18.5766H40.5099V40.0099L35.4043 34.9043ZM43.5743 40.0247V34.919H60.4257V40.0247H43.5743ZM74.2129 40.0247C68.3006 40.0247 63.4901 35.2142 63.4901 29.3019C63.4901 23.3896 68.3006 18.5791 74.2129 18.5791C80.1252 18.5791 84.9356 23.3896 84.9356 29.3019C84.9356 35.2142 80.1252 40.0247 74.2129 40.0247Z" fill="white"/>
<path d="M74.2153 23.6847C71.1165 23.6847 68.5982 26.2056 68.5982 29.3019C68.5982 32.3982 71.119 34.919 74.2153 34.919C77.3117 34.919 79.8325 32.3982 79.8325 29.3019C79.8325 26.2056 77.3117 23.6847 74.2153 23.6847ZM74.2153 31.8547C72.8086 31.8547 71.6625 30.7086 71.6625 29.3019C71.6625 27.8951 72.8086 26.7491 74.2153 26.7491C75.6221 26.7491 76.7681 27.8951 76.7681 29.3019C76.7681 30.7086 75.6221 31.8547 74.2153 31.8547Z" fill="white"/>
<path d="M130.593 34.3526H128.08L122.738 25.5025H122.675C122.696 25.9766 122.717 26.4876 122.738 27.0355C122.77 27.5728 122.796 28.1154 122.817 28.6633V34.3526H121V23.0687H123.497L128.823 31.8556H128.87C128.86 31.4342 128.839 30.9495 128.807 30.4017C128.786 29.8538 128.77 29.3217 128.76 28.8055V23.0687H130.593V34.3526Z" fill="white"/>
<path d="M136.787 25.6289C137.936 25.6289 138.842 25.9714 139.506 26.6562C140.18 27.341 140.517 28.2945 140.517 29.5167V30.5281H134.859C134.88 31.3077 135.096 31.9136 135.507 32.3455C135.918 32.767 136.487 32.9777 137.214 32.9777C137.762 32.9777 138.257 32.925 138.7 32.8196C139.142 32.7037 139.595 32.5404 140.059 32.3297V33.9259C139.637 34.1261 139.2 34.2736 138.747 34.3684C138.294 34.4632 137.751 34.5106 137.119 34.5106C136.276 34.5106 135.534 34.3526 134.891 34.0365C134.248 33.7099 133.743 33.2253 133.374 32.5826C133.016 31.9294 132.836 31.1128 132.836 30.133C132.836 28.6685 133.195 27.5517 133.911 26.7826C134.638 26.0135 135.597 25.6289 136.787 25.6289ZM136.787 27.0987C136.25 27.0987 135.813 27.2725 135.476 27.6202C135.149 27.9574 134.959 28.4631 134.907 29.1374H138.589C138.579 28.5474 138.426 28.0627 138.131 27.6834C137.846 27.2936 137.398 27.0987 136.787 27.0987Z" fill="white"/>
<path d="M150.174 30.054C150.174 31.4763 149.805 32.5773 149.068 33.357C148.33 34.1261 147.329 34.5106 146.065 34.5106C145.285 34.5106 144.59 34.3368 143.979 33.9891C143.368 33.6414 142.889 33.1357 142.541 32.472C142.193 31.8082 142.019 31.0022 142.019 30.054C142.019 28.6317 142.383 27.5412 143.11 26.7826C143.847 26.0135 144.848 25.6289 146.112 25.6289C146.903 25.6289 147.603 25.8028 148.214 26.1505C148.825 26.4876 149.305 26.9881 149.653 27.6518C150 28.305 150.174 29.1058 150.174 30.054ZM144.058 30.054C144.058 30.9601 144.216 31.6607 144.532 32.1559C144.859 32.6511 145.38 32.8987 146.097 32.8987C146.803 32.8987 147.319 32.6511 147.645 32.1559C147.972 31.6607 148.135 30.9601 148.135 30.054C148.135 29.1479 147.972 28.4525 147.645 27.9679C147.319 27.4833 146.797 27.2409 146.081 27.2409C145.364 27.2409 144.848 27.4833 144.532 27.9679C144.216 28.4525 144.058 29.1479 144.058 30.054Z" fill="white"/>
<path d="M165.757 28.6C165.757 30.507 165.225 31.9452 164.161 32.9145C163.097 33.8732 161.611 34.3526 159.704 34.3526H156.527V23.0687H160.036C161.205 23.0687 162.217 23.2795 163.07 23.7009C163.924 24.1223 164.582 24.7439 165.046 25.5657C165.52 26.3875 165.757 27.399 165.757 28.6ZM163.639 28.6633C163.639 27.3147 163.328 26.3243 162.707 25.6922C162.085 25.06 161.195 24.7439 160.036 24.7439H158.55V32.6616H159.767C162.349 32.6616 163.639 31.3288 163.639 28.6633Z" fill="white"/>
<path d="M171.42 25.6289C172.568 25.6289 173.474 25.9714 174.138 26.6562C174.812 27.341 175.149 28.2945 175.149 29.5167V30.5281H169.492C169.513 31.3077 169.729 31.9136 170.14 32.3455C170.551 32.767 171.12 32.9777 171.846 32.9777C172.394 32.9777 172.89 32.925 173.332 32.8196C173.775 32.7037 174.228 32.5404 174.691 32.3297V33.9259C174.27 34.1261 173.832 34.2736 173.379 34.3684C172.926 34.4632 172.384 34.5106 171.752 34.5106C170.909 34.5106 170.166 34.3526 169.523 34.0365C168.881 33.7099 168.375 33.2253 168.006 32.5826C167.648 31.9294 167.469 31.1128 167.469 30.133C167.469 28.6685 167.827 27.5517 168.543 26.7826C169.27 26.0135 170.229 25.6289 171.42 25.6289ZM171.42 27.0987C170.882 27.0987 170.445 27.2725 170.108 27.6202C169.781 27.9574 169.592 28.4631 169.539 29.1374H173.221C173.211 28.5474 173.058 28.0627 172.763 27.6834C172.479 27.2936 172.031 27.0987 171.42 27.0987Z" fill="white"/>
<path d="M182.989 31.8714C182.989 32.7354 182.678 33.3938 182.057 33.8469C181.445 34.2894 180.566 34.5106 179.417 34.5106C178.817 34.5106 178.301 34.4685 177.869 34.3842C177.447 34.2999 177.036 34.1682 176.636 33.9891V32.2981C177.057 32.4983 177.521 32.6669 178.027 32.8038C178.543 32.9408 179.027 33.0093 179.481 33.0093C180.028 33.0093 180.423 32.925 180.666 32.7564C180.908 32.5878 181.029 32.3613 181.029 32.0769C181.029 31.9083 180.982 31.7608 180.887 31.6344C180.792 31.4974 180.608 31.3499 180.334 31.1919C180.06 31.0338 179.644 30.8389 179.085 30.6071C178.538 30.3859 178.079 30.1646 177.711 29.9434C177.352 29.7221 177.078 29.4587 176.889 29.1532C176.71 28.8476 176.62 28.4525 176.62 27.9679C176.62 27.1988 176.926 26.6193 177.537 26.2295C178.148 25.8291 178.954 25.6289 179.955 25.6289C180.481 25.6289 180.977 25.6816 181.44 25.787C181.914 25.8923 182.388 26.0504 182.863 26.2611L182.23 27.7308C181.83 27.5623 181.44 27.42 181.061 27.3041C180.682 27.1882 180.292 27.1303 179.891 27.1303C179.017 27.1303 178.58 27.3779 178.58 27.8731C178.58 28.0522 178.632 28.205 178.738 28.3314C178.854 28.4578 179.049 28.5948 179.322 28.7423C179.607 28.8792 180.007 29.0478 180.524 29.248C181.029 29.4482 181.467 29.6589 181.835 29.8801C182.204 30.0909 182.489 30.3543 182.689 30.6703C182.889 30.9759 182.989 31.3762 182.989 31.8714Z" fill="white"/>
<path d="M185.901 22.484C186.196 22.484 186.454 22.563 186.675 22.7211C186.896 22.8686 187.007 23.1372 187.007 23.5271C187.007 23.9169 186.896 24.1908 186.675 24.3488C186.454 24.5069 186.196 24.5859 185.901 24.5859C185.595 24.5859 185.332 24.5069 185.11 24.3488C184.9 24.1908 184.794 23.9169 184.794 23.5271C184.794 23.1372 184.9 22.8686 185.11 22.7211C185.332 22.563 185.595 22.484 185.901 22.484ZM186.896 25.787V34.3526H184.905V25.787H186.896Z" fill="white"/>
<path d="M192.319 25.6289C193.425 25.6289 194.273 26.0504 194.863 26.8932H194.942L195.132 25.787H196.791V34.4158C196.791 35.638 196.449 36.5651 195.764 37.1973C195.079 37.8294 194.046 38.1455 192.666 38.1455C192.055 38.1455 191.492 38.1033 190.975 38.0191C190.459 37.9453 189.969 37.8136 189.506 37.624V35.9804C189.99 36.1911 190.506 36.3544 191.054 36.4703C191.613 36.5862 192.192 36.6441 192.793 36.6441C193.435 36.6441 193.931 36.4598 194.278 36.091C194.626 35.7328 194.8 35.206 194.8 34.5106V34.2894C194.8 34.1313 194.805 33.947 194.816 33.7363C194.826 33.5255 194.842 33.357 194.863 33.2305H194.8C194.505 33.673 194.141 33.9996 193.709 34.2104C193.288 34.4105 192.808 34.5106 192.271 34.5106C191.228 34.5106 190.412 34.1208 189.822 33.3412C189.232 32.5615 188.937 31.4763 188.937 30.0856C188.937 28.6949 189.232 27.6044 189.822 26.8142C190.422 26.024 191.254 25.6289 192.319 25.6289ZM192.84 27.2567C191.597 27.2567 190.975 28.2102 190.975 30.1172C190.975 31.9926 191.607 32.9303 192.872 32.9303C193.567 32.9303 194.078 32.7406 194.405 32.3613C194.742 31.9715 194.91 31.3183 194.91 30.4017V30.1014C194.91 29.09 194.742 28.363 194.405 27.9205C194.078 27.478 193.557 27.2567 192.84 27.2567Z" fill="white"/>
<path d="M203.918 25.6289C204.877 25.6289 205.625 25.8765 206.162 26.3717C206.71 26.8669 206.984 27.6676 206.984 28.7739V34.3526H204.993V29.169C204.993 28.5263 204.866 28.0469 204.613 27.7308C204.361 27.4042 203.96 27.2409 203.412 27.2409C202.612 27.2409 202.064 27.4938 201.769 27.9995C201.474 28.5052 201.326 29.2269 201.326 30.1646V34.3526H199.335V25.787H200.868L201.152 26.909H201.263C201.537 26.4665 201.911 26.1452 202.385 25.945C202.87 25.7343 203.381 25.6289 203.918 25.6289Z" fill="white"/>
<path d="M220.328 31.2709C220.328 32.2718 219.965 33.062 219.238 33.6414C218.511 34.2209 217.505 34.5106 216.219 34.5106C214.976 34.5106 213.922 34.2999 213.058 33.8785V31.982C213.533 32.1928 214.054 32.3877 214.623 32.5668C215.203 32.7354 215.782 32.8196 216.361 32.8196C217.046 32.8196 217.541 32.6879 217.847 32.4245C218.163 32.1506 218.321 31.8029 218.321 31.3815C218.321 30.9179 218.121 30.5492 217.721 30.2752C217.32 29.9908 216.735 29.6852 215.966 29.3586C215.503 29.169 215.055 28.9372 214.623 28.6633C214.202 28.3788 213.854 28.0258 213.58 27.6044C213.317 27.1724 213.185 26.6351 213.185 25.9924C213.185 25.0337 213.522 24.2804 214.196 23.7325C214.881 23.1846 215.793 22.9107 216.93 22.9107C217.52 22.9107 218.079 22.9739 218.606 23.1004C219.143 23.2268 219.67 23.4059 220.186 23.6377L219.538 25.2655C219.064 25.0653 218.611 24.9072 218.179 24.7914C217.757 24.6755 217.32 24.6175 216.867 24.6175C216.319 24.6175 215.903 24.7387 215.619 24.981C215.334 25.2233 215.192 25.5447 215.192 25.945C215.192 26.2506 215.271 26.514 215.429 26.7352C215.587 26.9459 215.829 27.1408 216.156 27.3199C216.493 27.4991 216.925 27.7045 217.452 27.9363C218.063 28.1997 218.579 28.4789 219.001 28.7739C219.433 29.0584 219.759 29.4008 219.981 29.8011C220.212 30.191 220.328 30.6809 220.328 31.2709Z" fill="white"/>
<path d="M220.989 25.787H223.154L224.861 30.6229C224.977 30.9285 225.071 31.234 225.145 31.5395C225.219 31.8345 225.272 32.1295 225.303 32.4245H225.366C225.409 32.1506 225.472 31.8609 225.556 31.5553C225.64 31.2393 225.735 30.9285 225.841 30.6229L227.484 25.787H229.633L225.983 35.4905C225.656 36.3439 225.208 36.9971 224.64 37.4501C224.081 37.9137 223.391 38.1455 222.569 38.1455C222.306 38.1455 222.074 38.1297 221.874 38.0981C221.684 38.077 221.521 38.0507 221.384 38.0191V36.4387C221.5 36.4598 221.637 36.4808 221.795 36.5019C221.963 36.523 222.137 36.5335 222.316 36.5335C222.801 36.5335 223.191 36.386 223.486 36.091C223.781 35.8065 224.007 35.4483 224.165 35.0164L224.418 34.321L220.989 25.787Z" fill="white"/>
<path d="M236.743 31.8714C236.743 32.7354 236.432 33.3938 235.811 33.8469C235.2 34.2894 234.32 34.5106 233.172 34.5106C232.571 34.5106 232.055 34.4685 231.623 34.3842C231.201 34.2999 230.79 34.1682 230.39 33.9891V32.2981C230.812 32.4983 231.275 32.6669 231.781 32.8038C232.297 32.9408 232.782 33.0093 233.235 33.0093C233.783 33.0093 234.178 32.925 234.42 32.7564C234.662 32.5878 234.784 32.3613 234.784 32.0769C234.784 31.9083 234.736 31.7608 234.641 31.6344C234.546 31.4974 234.362 31.3499 234.088 31.1919C233.814 31.0338 233.398 30.8389 232.84 30.6071C232.292 30.3859 231.833 30.1646 231.465 29.9434C231.107 29.7221 230.833 29.4587 230.643 29.1532C230.464 28.8476 230.374 28.4525 230.374 27.9679C230.374 27.1988 230.68 26.6193 231.291 26.2295C231.902 25.8291 232.708 25.6289 233.709 25.6289C234.236 25.6289 234.731 25.6816 235.194 25.787C235.669 25.8923 236.143 26.0504 236.617 26.2611L235.985 27.7308C235.584 27.5623 235.194 27.42 234.815 27.3041C234.436 27.1882 234.046 27.1303 233.646 27.1303C232.771 27.1303 232.334 27.3779 232.334 27.8731C232.334 28.0522 232.387 28.205 232.492 28.3314C232.608 28.4578 232.803 28.5948 233.077 28.7423C233.361 28.8792 233.762 29.0478 234.278 29.248C234.784 29.4482 235.221 29.6589 235.59 29.8801C235.958 30.0909 236.243 30.3543 236.443 30.6703C236.643 30.9759 236.743 31.3762 236.743 31.8714Z" fill="white"/>
<path d="M241.978 32.9145C242.22 32.9145 242.457 32.8934 242.689 32.8512C242.931 32.7986 243.153 32.7406 243.353 32.6774V34.163C243.142 34.2683 242.868 34.3526 242.531 34.4158C242.194 34.479 241.841 34.5106 241.472 34.5106C240.977 34.5106 240.529 34.4316 240.129 34.2736C239.739 34.1155 239.428 33.8363 239.196 33.436C238.965 33.0356 238.849 32.472 238.849 31.745V27.2883H237.695V26.4191L238.959 25.7238L239.592 23.9063H240.84V25.787H243.274V27.2883H240.84V31.7292C240.84 32.1295 240.945 32.4298 241.156 32.63C241.377 32.8196 241.651 32.9145 241.978 32.9145Z" fill="white"/>
<path d="M248.525 25.6289C249.673 25.6289 250.579 25.9714 251.243 26.6562C251.917 27.341 252.254 28.2945 252.254 29.5167V30.5281H246.597C246.618 31.3077 246.834 31.9136 247.245 32.3455C247.655 32.767 248.224 32.9777 248.951 32.9777C249.499 32.9777 249.994 32.925 250.437 32.8196C250.879 32.7037 251.332 32.5404 251.796 32.3297V33.9259C251.375 34.1261 250.937 34.2736 250.484 34.3684C250.031 34.4632 249.489 34.5106 248.856 34.5106C248.014 34.5106 247.271 34.3526 246.628 34.0365C245.985 33.7099 245.48 33.2253 245.111 32.5826C244.753 31.9294 244.574 31.1128 244.574 30.133C244.574 28.6685 244.932 27.5517 245.648 26.7826C246.375 26.0135 247.334 25.6289 248.525 25.6289ZM248.525 27.0987C247.987 27.0987 247.55 27.2725 247.213 27.6202C246.886 27.9574 246.697 28.4631 246.644 29.1374H250.326C250.316 28.5474 250.163 28.0627 249.868 27.6834C249.583 27.2936 249.136 27.0987 248.525 27.0987Z" fill="white"/>
<path d="M264.076 25.6289C265.046 25.6289 265.773 25.8765 266.257 26.3717C266.752 26.8669 267 27.6676 267 28.7739V34.3526H265.009V29.1532C265.009 27.8783 264.524 27.2409 263.555 27.2409C262.859 27.2409 262.364 27.4674 262.069 27.9205C261.774 28.3735 261.627 29.032 261.627 29.896V34.3526H259.635V29.1532C259.635 27.8783 259.146 27.2409 258.166 27.2409C257.439 27.2409 256.938 27.4938 256.664 27.9995C256.39 28.5052 256.253 29.2269 256.253 30.1646V34.3526H254.262V25.787H255.795L256.08 26.909H256.19C256.454 26.4665 256.812 26.1452 257.265 25.945C257.718 25.7343 258.192 25.6289 258.687 25.6289C259.33 25.6289 259.867 25.7343 260.299 25.945C260.742 26.1557 261.079 26.4929 261.311 26.9565H261.469C261.732 26.4929 262.101 26.1557 262.575 25.945C263.049 25.7343 263.55 25.6289 264.076 25.6289Z" fill="white"/>
<rect width="1" height="32" transform="matrix(1 0 0 -1 104 45)" fill="#757474"/>
</svg>
