<svg width="136" height="48" viewBox="0 0 136 48" fill="none" xmlns="http://www.w3.org/2000/svg">
<rect width="136" height="48" fill="#242424"/>
<rect width="1" height="22" transform="matrix(1 0 0 -1 59 35)" fill="#757474"/>
<path d="M23.4169 28.751H30.8338L32.0423 31.6561H22.0272L20.426 35H16L26.9668 13H30.0332L41 35H36.5891L28.5076 18.0083L23.4169 28.751Z" fill="white"/>
<path d="M124.422 13.0118C120.97 13.0118 117.888 14.614 115.871 17.1105V13.0118H91.0317V26.0317L78 13V35H115.869V30.9012C117.888 33.3978 120.968 35 124.42 35C130.482 35 135.414 30.0677 135.414 24.0059C135.414 17.944 130.484 13.0118 124.422 13.0118ZM113.428 26.0435H99.9902V21.9722H113.428V26.0435ZM99.9902 15.4534H113.428V19.5247H99.9902V15.4534ZM80.4436 18.8991L94.1029 32.5584H80.4436V18.8991ZM93.4733 28.4733V15.4534H97.5447V32.5447L93.4733 28.4733ZM99.9882 32.5564V28.4851H113.426V32.5564H99.9882ZM124.42 32.5564C119.705 32.5564 115.869 28.7204 115.869 24.0059C115.869 19.2913 119.705 15.4553 124.42 15.4553C129.135 15.4553 132.971 19.2913 132.971 24.0059C132.971 28.7204 129.135 32.5564 124.42 32.5564Z" fill="white"/>
<path d="M124.422 19.5267C121.951 19.5267 119.943 21.5368 119.943 24.0059C119.943 26.475 121.953 28.4851 124.422 28.4851C126.891 28.4851 128.901 26.475 128.901 24.0059C128.901 21.5368 126.891 19.5267 124.422 19.5267ZM124.422 26.0415C123.3 26.0415 122.386 25.1277 122.386 24.0059C122.386 22.8841 123.3 21.9702 124.422 21.9702C125.544 21.9702 126.458 22.8841 126.458 24.0059C126.458 25.1277 125.544 26.0415 124.422 26.0415Z" fill="white"/>
</svg>
