<svg width="252" height="58" viewBox="0 0 252 58" fill="none" xmlns="http://www.w3.org/2000/svg">
<rect width="112" height="58" fill="#DA291C"/>
<g clip-path="url(#clip0_82_23131)">
<path fill-rule="evenodd" clip-rule="evenodd" d="M69.4244 18L77.4044 36.073L86.0689 18H90.6111L75.0244 49H70.6689L75.1489 40.537L64.8667 18H69.4244ZM100.707 18L112 40.537H107.442L99.12 23.1305L93.8933 34.1355H101.531L102.776 37.1115H92.4467L90.8133 40.537H86.2556L97.5489 18H100.707ZM14.4511 18L25.7444 40.537H21.2022L12.88 23.1305L7.63778 34.1355H15.2756L16.52 37.1115H6.20667L4.55778 40.537H0L11.2933 18H14.4511ZM57.4156 18L68.7089 40.537H64.1511L55.8444 23.1305L50.6022 34.1355H58.2556L59.4844 37.1115H49.1711L47.5222 40.537H42.9644L54.2578 18H57.4156ZM26.04 18L34.3622 35.732L42.6844 18H47.2422L35.9489 40.537H32.7911L21.4978 18H26.04Z" fill="white"/>
</g>
<path d="M112 0L141 58H112V0Z" fill="#DA291C"/>
<g clip-path="url(#clip1_82_23131)">
<path d="M172.653 32.6571C172.653 27.8051 175.989 24.065 180.437 24.065C184.985 24.065 187.917 27.8051 187.917 32.6571C187.917 32.9603 187.917 33.0614 187.917 33.2636H174.372C174.675 37.3069 177.606 39.7329 180.841 39.7329C183.368 39.7329 185.087 38.621 186.502 37.2058L187.614 38.2166C185.895 40.0361 183.975 41.3502 180.841 41.3502C176.393 41.2491 172.653 37.8123 172.653 32.6571ZM186.198 31.8484C185.996 28.5127 184.076 25.4802 180.336 25.4802C177.101 25.4802 174.574 28.2094 174.271 31.8484H186.198Z" fill="white"/>
<path d="M191.152 38.722L192.061 37.5091C193.881 38.9242 195.903 39.6318 197.924 39.6318C200.148 39.6318 201.866 38.4188 201.866 36.4982V36.3971C201.866 34.4766 199.845 33.769 197.52 33.1625C194.892 32.3538 191.859 31.5452 191.859 28.6137V28.5127C191.859 25.8845 194.083 23.9639 197.217 23.9639C199.137 23.9639 201.361 24.6715 203.079 25.7834L202.271 27.0975C200.754 26.0867 198.935 25.4802 197.217 25.4802C194.993 25.4802 193.477 26.6932 193.477 28.3105V28.4116C193.477 30.2311 195.7 30.9387 198.025 31.5452C200.653 32.2527 203.383 33.2636 203.383 36.0939V36.195C203.383 39.1264 200.856 40.9459 197.722 40.9459C195.498 41.148 192.87 40.1372 191.152 38.722Z" fill="white"/>
<path d="M208.538 18H210.458V20.1227H208.538V18ZM208.74 24.4693H210.357V40.8448H208.74V24.4693Z" fill="white"/>
<path d="M216.22 43.4729L217.13 42.1589C219.05 43.6751 221.375 44.4838 223.801 44.4838C227.541 44.4838 230.271 42.361 230.271 38.1155V35.6896C228.855 37.7112 226.632 39.5307 223.397 39.5307C219.455 39.5307 215.512 36.4982 215.512 31.8484V31.7473C215.512 27.0975 219.354 24.065 223.296 24.065C226.53 24.065 228.754 25.7834 230.169 27.704V24.4693H231.787V38.3177C231.787 40.7437 230.978 42.5632 229.664 43.8773C228.249 45.2924 226.126 46.1011 223.7 46.1011C220.971 46 218.444 45.1914 216.22 43.4729ZM230.271 31.8484C230.271 28.0072 226.935 25.5812 223.498 25.5812C220.061 25.5812 217.13 28.0072 217.13 31.7473V31.8484C217.13 35.5885 220.061 38.1155 223.498 38.1155C226.935 38.1155 230.271 35.5885 230.271 31.8484Z" fill="white"/>
<path d="M237.751 24.4693H239.368V27.5018C240.379 25.5812 242.198 24.065 245.231 24.065C249.375 24.065 251.801 26.8953 251.801 30.8376V40.8448H250.184V31.1408C250.184 27.8051 248.263 25.5812 244.928 25.5812C241.693 25.5812 239.267 28.0072 239.267 31.4441V40.9459H237.65V24.4693H237.751Z" fill="white"/>
<path d="M149.585 18.8454L149.231 19.4583L167.356 29.9141L167.71 29.3012L149.585 18.8454Z" fill="white"/>
<path d="M167.353 29.3209L149.233 39.7851L149.587 40.3979L167.707 29.9337L167.353 29.3209Z" fill="white"/>
<path d="M157.592 19.1119H156.783V40.0361H157.592V19.1119Z" fill="white"/>
<path d="M157.087 40.8447H149V18.3032H157.087C163.354 18.3032 168.408 23.3574 168.408 29.6245C168.408 35.8917 163.354 40.8447 157.087 40.8447ZM150.617 39.2274H157.087C162.444 39.2274 166.791 34.8808 166.791 29.5234C166.791 24.166 162.444 19.9206 157.087 19.9206H150.617V39.2274Z" fill="white"/>
</g>
<defs>
<clipPath id="clip0_82_23131">
<rect width="112" height="31" fill="white" transform="translate(0 18)"/>
</clipPath>
<clipPath id="clip1_82_23131">
<rect width="102.801" height="28" fill="white" transform="translate(149 18)"/>
</clipPath>
</defs>
</svg>
