<svg width="952" height="360" viewBox="0 0 952 360" fill="none" xmlns="http://www.w3.org/2000/svg">
<rect width="952" height="360" fill="#F1F1F1"/>
<rect x="195.5" y="40" width="561" height="280" rx="4" fill="white"/>
<rect width="529" height="20" transform="translate(211.5 52)" fill="white"/>
<path d="M224.338 57.004L221.678 67H220.404L218.458 60.448C218.374 60.1867 218.295 59.9207 218.22 59.65C218.155 59.37 218.094 59.1273 218.038 58.922C217.991 58.7073 217.963 58.558 217.954 58.474C217.945 58.5953 217.893 58.8567 217.8 59.258C217.707 59.65 217.599 60.0607 217.478 60.49L215.588 67H214.314L211.668 57.004H212.984L214.538 63.108C214.65 63.5373 214.743 63.9527 214.818 64.354C214.902 64.7553 214.967 65.1333 215.014 65.488C215.061 65.124 215.131 64.7273 215.224 64.298C215.317 63.8687 215.425 63.4487 215.546 63.038L217.31 57.004H218.612L220.446 63.08C220.577 63.5093 220.689 63.9387 220.782 64.368C220.875 64.7973 220.945 65.1707 220.992 65.488C221.029 65.1427 221.09 64.7693 221.174 64.368C221.267 63.9573 221.37 63.5327 221.482 63.094L223.022 57.004H224.338ZM226.336 56.682C226.522 56.682 226.686 56.7473 226.826 56.878C226.975 56.9993 227.05 57.1953 227.05 57.466C227.05 57.7367 226.975 57.9373 226.826 58.068C226.686 58.1893 226.522 58.25 226.336 58.25C226.13 58.25 225.958 58.1893 225.818 58.068C225.678 57.9373 225.608 57.7367 225.608 57.466C225.608 57.1953 225.678 56.9993 225.818 56.878C225.958 56.7473 226.13 56.682 226.336 56.682ZM226.938 59.496V67H225.706V59.496H226.938ZM231.975 67.14C231.042 67.14 230.295 66.818 229.735 66.174C229.175 65.5207 228.895 64.55 228.895 63.262C228.895 61.974 229.175 61.0033 229.735 60.35C230.304 59.6873 231.056 59.356 231.989 59.356C232.568 59.356 233.039 59.4633 233.403 59.678C233.776 59.8927 234.08 60.154 234.313 60.462H234.397C234.378 60.3407 234.36 60.1633 234.341 59.93C234.322 59.6873 234.313 59.496 234.313 59.356V56.36H235.545V67H234.551L234.369 65.992H234.313C234.089 66.3093 233.79 66.58 233.417 66.804C233.044 67.028 232.563 67.14 231.975 67.14ZM232.171 66.118C232.964 66.118 233.52 65.9033 233.837 65.474C234.164 65.0353 234.327 64.3773 234.327 63.5V63.276C234.327 62.3427 234.173 61.6287 233.865 61.134C233.557 60.63 232.988 60.378 232.157 60.378C231.494 60.378 230.995 60.644 230.659 61.176C230.332 61.6987 230.169 62.4033 230.169 63.29C230.169 64.186 230.332 64.8813 230.659 65.376C230.995 65.8707 231.499 66.118 232.171 66.118ZM240.588 59.356C241.083 59.356 241.526 59.4493 241.918 59.636C242.32 59.8227 242.66 60.1073 242.94 60.49H243.01L243.178 59.496H244.158V67.126C244.158 68.1993 243.883 69.0067 243.332 69.548C242.791 70.0893 241.946 70.36 240.798 70.36C239.697 70.36 238.796 70.2013 238.096 69.884V68.75C238.834 69.142 239.758 69.338 240.868 69.338C241.512 69.338 242.016 69.1467 242.38 68.764C242.754 68.3907 242.94 67.8773 242.94 67.224V66.93C242.94 66.818 242.945 66.6593 242.954 66.454C242.964 66.2393 242.973 66.09 242.982 66.006H242.926C242.422 66.762 241.648 67.14 240.602 67.14C239.632 67.14 238.871 66.7993 238.32 66.118C237.779 65.4367 237.508 64.4847 237.508 63.262C237.508 62.0673 237.779 61.12 238.32 60.42C238.871 59.7107 239.627 59.356 240.588 59.356ZM240.756 60.392C240.131 60.392 239.646 60.644 239.3 61.148C238.955 61.6427 238.782 62.352 238.782 63.276C238.782 64.2 238.95 64.9093 239.286 65.404C239.622 65.8893 240.122 66.132 240.784 66.132C241.54 66.132 242.091 65.9313 242.436 65.53C242.782 65.1193 242.954 64.4613 242.954 63.556V63.262C242.954 62.2447 242.777 61.512 242.422 61.064C242.068 60.616 241.512 60.392 240.756 60.392ZM249.44 59.356C250.074 59.356 250.625 59.496 251.092 59.776C251.558 60.056 251.913 60.4527 252.156 60.966C252.408 61.47 252.534 62.0627 252.534 62.744V63.486H247.396C247.414 64.3353 247.629 64.984 248.04 65.432C248.46 65.8707 249.043 66.09 249.79 66.09C250.266 66.09 250.686 66.048 251.05 65.964C251.423 65.8707 251.806 65.74 252.198 65.572V66.65C251.815 66.818 251.437 66.9393 251.064 67.014C250.69 67.098 250.247 67.14 249.734 67.14C249.015 67.14 248.385 66.9953 247.844 66.706C247.302 66.4167 246.878 65.9873 246.57 65.418C246.271 64.8487 246.122 64.144 246.122 63.304C246.122 62.4827 246.257 61.778 246.528 61.19C246.808 60.602 247.195 60.1493 247.69 59.832C248.194 59.5147 248.777 59.356 249.44 59.356ZM249.426 60.364C248.838 60.364 248.371 60.5553 248.026 60.938C247.69 61.3113 247.489 61.834 247.424 62.506H251.246C251.236 61.8713 251.087 61.358 250.798 60.966C250.508 60.5647 250.051 60.364 249.426 60.364ZM256.95 66.132C257.137 66.132 257.328 66.118 257.524 66.09C257.72 66.062 257.879 66.0247 258 65.978V66.916C257.869 66.9813 257.683 67.0327 257.44 67.07C257.197 67.1167 256.964 67.14 256.74 67.14C256.348 67.14 255.984 67.0747 255.648 66.944C255.321 66.804 255.055 66.566 254.85 66.23C254.645 65.894 254.542 65.4227 254.542 64.816V60.448H253.478V59.86L254.556 59.37L255.046 57.774H255.774V59.496H257.944V60.448H255.774V64.788C255.774 65.2453 255.881 65.586 256.096 65.81C256.32 66.0247 256.605 66.132 256.95 66.132ZM266.471 67H265.211V58.11H262.089V57.004H269.579V58.11H266.471V67ZM271.549 56.682C271.735 56.682 271.899 56.7473 272.039 56.878C272.188 56.9993 272.263 57.1953 272.263 57.466C272.263 57.7367 272.188 57.9373 272.039 58.068C271.899 58.1893 271.735 58.25 271.549 58.25C271.343 58.25 271.171 58.1893 271.031 58.068C270.891 57.9373 270.821 57.7367 270.821 57.466C270.821 57.1953 270.891 56.9993 271.031 56.878C271.171 56.7473 271.343 56.682 271.549 56.682ZM272.151 59.496V67H270.919V59.496H272.151ZM277.034 66.132C277.221 66.132 277.412 66.118 277.608 66.09C277.804 66.062 277.963 66.0247 278.084 65.978V66.916C277.953 66.9813 277.767 67.0327 277.524 67.07C277.281 67.1167 277.048 67.14 276.824 67.14C276.432 67.14 276.068 67.0747 275.732 66.944C275.405 66.804 275.139 66.566 274.934 66.23C274.729 65.894 274.626 65.4227 274.626 64.816V60.448H273.562V59.86L274.64 59.37L275.13 57.774H275.858V59.496H278.028V60.448H275.858V64.788C275.858 65.2453 275.965 65.586 276.18 65.81C276.404 66.0247 276.689 66.132 277.034 66.132ZM280.818 67H279.586V56.36H280.818V67ZM286.094 59.356C286.729 59.356 287.279 59.496 287.746 59.776C288.213 60.056 288.567 60.4527 288.81 60.966C289.062 61.47 289.188 62.0627 289.188 62.744V63.486H284.05C284.069 64.3353 284.283 64.984 284.694 65.432C285.114 65.8707 285.697 66.09 286.444 66.09C286.92 66.09 287.34 66.048 287.704 65.964C288.077 65.8707 288.46 65.74 288.852 65.572V66.65C288.469 66.818 288.091 66.9393 287.718 67.014C287.345 67.098 286.901 67.14 286.388 67.14C285.669 67.14 285.039 66.9953 284.498 66.706C283.957 66.4167 283.532 65.9873 283.224 65.418C282.925 64.8487 282.776 64.144 282.776 63.304C282.776 62.4827 282.911 61.778 283.182 61.19C283.462 60.602 283.849 60.1493 284.344 59.832C284.848 59.5147 285.431 59.356 286.094 59.356ZM286.08 60.364C285.492 60.364 285.025 60.5553 284.68 60.938C284.344 61.3113 284.143 61.834 284.078 62.506H287.9C287.891 61.8713 287.741 61.358 287.452 60.966C287.163 60.5647 286.705 60.364 286.08 60.364Z" fill="black"/>
<rect width="243" height="32" transform="translate(219.5 165)" fill="url(#paint0_linear_9928_652666)"/>
<rect width="519" height="32" transform="translate(219.5 93)" fill="url(#paint1_linear_9928_652666)"/>
<rect width="519" height="32" transform="translate(219.5 213)" fill="url(#paint2_linear_9928_652666)"/>
<rect width="519" height="32" transform="translate(219.5 261)" fill="url(#paint3_linear_9928_652666)"/>
<rect x="195" y="39.5" width="562" height="281" rx="4.5" stroke="black" stroke-opacity="0.15"/>
<defs>
<linearGradient id="paint0_linear_9928_652666" x1="1.07498e-06" y1="15.9999" x2="243" y2="15.9999" gradientUnits="userSpaceOnUse">
<stop stop-color="#F1F1F1"/>
<stop offset="0.1875" stop-color="#F1F1F1"/>
<stop offset="0.364583" stop-color="white"/>
<stop offset="0.546875" stop-color="#F1F1F1"/>
<stop offset="0.979067" stop-color="#F1F1F1"/>
</linearGradient>
<linearGradient id="paint1_linear_9928_652666" x1="2.29595e-06" y1="15.9999" x2="519" y2="15.9999" gradientUnits="userSpaceOnUse">
<stop stop-color="#F1F1F1"/>
<stop offset="0.1875" stop-color="#F1F1F1"/>
<stop offset="0.364583" stop-color="white"/>
<stop offset="0.546875" stop-color="#F1F1F1"/>
<stop offset="0.979067" stop-color="#F1F1F1"/>
</linearGradient>
<linearGradient id="paint2_linear_9928_652666" x1="2.29595e-06" y1="15.9999" x2="519" y2="15.9999" gradientUnits="userSpaceOnUse">
<stop stop-color="#F1F1F1"/>
<stop offset="0.1875" stop-color="#F1F1F1"/>
<stop offset="0.364583" stop-color="white"/>
<stop offset="0.546875" stop-color="#F1F1F1"/>
<stop offset="0.979067" stop-color="#F1F1F1"/>
</linearGradient>
<linearGradient id="paint3_linear_9928_652666" x1="2.29595e-06" y1="15.9999" x2="519" y2="15.9999" gradientUnits="userSpaceOnUse">
<stop stop-color="#F1F1F1"/>
<stop offset="0.1875" stop-color="#F1F1F1"/>
<stop offset="0.364583" stop-color="white"/>
<stop offset="0.546875" stop-color="#F1F1F1"/>
<stop offset="0.979067" stop-color="#F1F1F1"/>
</linearGradient>
</defs>
</svg>
