<svg width="904" height="181" viewBox="0 0 904 181" fill="none" xmlns="http://www.w3.org/2000/svg">
<rect width="904" height="180.318" fill="white"/>
<path d="M424.024 36.4189C424.024 37.1789 423.748 37.7709 423.196 38.1949C422.644 38.6189 421.9 38.8309 420.964 38.8309C420.484 38.8309 420.04 38.7949 419.632 38.7229C419.224 38.6509 418.884 38.5509 418.612 38.4229V37.3909C418.9 37.5189 419.256 37.6349 419.68 37.7389C420.112 37.8429 420.556 37.8949 421.012 37.8949C421.644 37.8949 422.124 37.7709 422.452 37.5229C422.78 37.2749 422.944 36.9389 422.944 36.5149C422.944 36.2349 422.884 35.9989 422.764 35.8069C422.644 35.6149 422.436 35.4389 422.14 35.2789C421.844 35.1189 421.44 34.9429 420.928 34.7509C420.192 34.4869 419.64 34.1629 419.272 33.7789C418.904 33.3949 418.72 32.8709 418.72 32.2069C418.72 31.7589 418.836 31.3709 419.068 31.0429C419.3 30.7149 419.62 30.4629 420.028 30.2869C420.436 30.1109 420.912 30.0229 421.456 30.0229C421.92 30.0229 422.348 30.0669 422.74 30.1549C423.132 30.2429 423.492 30.3589 423.82 30.5029L423.484 31.4269C423.188 31.2989 422.864 31.1909 422.512 31.1029C422.16 31.0149 421.8 30.9709 421.432 30.9709C420.896 30.9709 420.492 31.0869 420.22 31.3189C419.948 31.5429 419.812 31.8429 419.812 32.2189C419.812 32.5069 419.872 32.7469 419.992 32.9389C420.112 33.1309 420.308 33.3069 420.58 33.4669C420.852 33.6189 421.22 33.7789 421.684 33.9469C422.188 34.1309 422.612 34.3309 422.956 34.5469C423.308 34.7549 423.572 35.0069 423.748 35.3029C423.932 35.5989 424.024 35.9709 424.024 36.4189ZM428.09 32.1589C428.634 32.1589 429.106 32.2789 429.506 32.5189C429.906 32.7589 430.21 33.0989 430.418 33.5389C430.634 33.9709 430.742 34.4789 430.742 35.0629V35.6989H426.338C426.354 36.4269 426.538 36.9829 426.89 37.3669C427.25 37.7429 427.75 37.9309 428.39 37.9309C428.798 37.9309 429.158 37.8949 429.47 37.8229C429.79 37.7429 430.118 37.6309 430.454 37.4869V38.4109C430.126 38.5549 429.802 38.6589 429.482 38.7229C429.162 38.7949 428.782 38.8309 428.342 38.8309C427.726 38.8309 427.186 38.7069 426.722 38.4589C426.258 38.2109 425.894 37.8429 425.63 37.3549C425.374 36.8669 425.246 36.2629 425.246 35.5429C425.246 34.8389 425.362 34.2349 425.594 33.7309C425.834 33.2269 426.166 32.8389 426.59 32.5669C427.022 32.2949 427.522 32.1589 428.09 32.1589ZM428.078 33.0229C427.574 33.0229 427.174 33.1869 426.878 33.5149C426.59 33.8349 426.418 34.2829 426.362 34.8589H429.638C429.63 34.3149 429.502 33.8749 429.254 33.5389C429.006 33.1949 428.614 33.0229 428.078 33.0229ZM433.435 38.7109H432.379V29.5909H433.435V38.7109ZM437.957 32.1589C438.501 32.1589 438.973 32.2789 439.373 32.5189C439.773 32.7589 440.077 33.0989 440.285 33.5389C440.501 33.9709 440.609 34.4789 440.609 35.0629V35.6989H436.205C436.221 36.4269 436.405 36.9829 436.757 37.3669C437.117 37.7429 437.617 37.9309 438.257 37.9309C438.665 37.9309 439.025 37.8949 439.337 37.8229C439.657 37.7429 439.985 37.6309 440.321 37.4869V38.4109C439.993 38.5549 439.669 38.6589 439.349 38.7229C439.029 38.7949 438.649 38.8309 438.209 38.8309C437.593 38.8309 437.053 38.7069 436.589 38.4589C436.125 38.2109 435.761 37.8429 435.497 37.3549C435.241 36.8669 435.113 36.2629 435.113 35.5429C435.113 34.8389 435.229 34.2349 435.461 33.7309C435.701 33.2269 436.033 32.8389 436.457 32.5669C436.889 32.2949 437.389 32.1589 437.957 32.1589ZM437.945 33.0229C437.441 33.0229 437.041 33.1869 436.745 33.5149C436.457 33.8349 436.285 34.2829 436.229 34.8589H439.505C439.497 34.3149 439.369 33.8749 439.121 33.5389C438.873 33.1949 438.481 33.0229 437.945 33.0229ZM444.827 38.8309C444.251 38.8309 443.743 38.7149 443.303 38.4829C442.863 38.2509 442.515 37.8909 442.259 37.4029C442.011 36.9149 441.887 36.2909 441.887 35.5309C441.887 34.7389 442.015 34.0949 442.271 33.5989C442.535 33.1029 442.895 32.7389 443.351 32.5069C443.807 32.2749 444.323 32.1589 444.899 32.1589C445.219 32.1589 445.531 32.1949 445.835 32.2669C446.147 32.3309 446.399 32.4109 446.591 32.5069L446.267 33.3829C446.075 33.3109 445.851 33.2429 445.595 33.1789C445.339 33.1149 445.099 33.0829 444.875 33.0829C443.611 33.0829 442.979 33.8949 442.979 35.5189C442.979 36.2949 443.131 36.8909 443.435 37.3069C443.747 37.7149 444.207 37.9189 444.815 37.9189C445.159 37.9189 445.467 37.8829 445.739 37.8109C446.011 37.7389 446.259 37.6509 446.483 37.5469V38.4829C446.267 38.5949 446.027 38.6789 445.763 38.7349C445.507 38.7989 445.195 38.8309 444.827 38.8309ZM450.16 37.9669C450.32 37.9669 450.484 37.9549 450.652 37.9309C450.82 37.9069 450.956 37.8749 451.06 37.8349V38.6389C450.948 38.6949 450.788 38.7389 450.58 38.7709C450.372 38.8109 450.172 38.8309 449.98 38.8309C449.644 38.8309 449.332 38.7749 449.044 38.6629C448.764 38.5429 448.536 38.3389 448.36 38.0509C448.184 37.7629 448.096 37.3589 448.096 36.8389V33.0949H447.184V32.5909L448.108 32.1709L448.528 30.8029H449.152V32.2789H451.012V33.0949H449.152V36.8149C449.152 37.2069 449.244 37.4989 449.428 37.6909C449.62 37.8749 449.864 37.9669 450.16 37.9669ZM461.057 35.4829C461.057 36.5469 460.785 37.3709 460.241 37.9549C459.705 38.5389 458.977 38.8309 458.057 38.8309C457.489 38.8309 456.981 38.7029 456.533 38.4469C456.093 38.1829 455.745 37.8029 455.489 37.3069C455.233 36.8029 455.105 36.1949 455.105 35.4829C455.105 34.4189 455.369 33.5989 455.897 33.0229C456.433 32.4469 457.165 32.1589 458.093 32.1589C458.669 32.1589 459.181 32.2909 459.629 32.5549C460.077 32.8109 460.425 33.1869 460.673 33.6829C460.929 34.1709 461.057 34.7709 461.057 35.4829ZM456.197 35.4829C456.197 36.2429 456.345 36.8469 456.641 37.2949C456.945 37.7349 457.425 37.9549 458.081 37.9549C458.729 37.9549 459.205 37.7349 459.509 37.2949C459.813 36.8469 459.965 36.2429 459.965 35.4829C459.965 34.7229 459.813 34.1269 459.509 33.6949C459.205 33.2629 458.725 33.0469 458.069 33.0469C457.413 33.0469 456.937 33.2629 456.641 33.6949C456.345 34.1269 456.197 34.7229 456.197 35.4829ZM465.791 32.1589C466.583 32.1589 467.219 32.4349 467.699 32.9869C468.187 33.5389 468.431 34.3709 468.431 35.4829C468.431 36.5789 468.187 37.4109 467.699 37.9789C467.219 38.5469 466.579 38.8309 465.779 38.8309C465.283 38.8309 464.871 38.7389 464.543 38.5549C464.223 38.3709 463.971 38.1509 463.787 37.8949H463.715C463.723 38.0309 463.735 38.2029 463.751 38.4109C463.775 38.6189 463.787 38.7989 463.787 38.9509V41.5909H462.731V32.2789H463.595L463.739 33.1549H463.787C463.979 32.8749 464.231 32.6389 464.543 32.4469C464.855 32.2549 465.271 32.1589 465.791 32.1589ZM465.599 33.0469C464.943 33.0469 464.479 33.2309 464.207 33.5989C463.935 33.9669 463.795 34.5269 463.787 35.2789V35.4829C463.787 36.2749 463.915 36.8869 464.171 37.3189C464.435 37.7429 464.919 37.9549 465.623 37.9549C466.007 37.9549 466.327 37.8509 466.583 37.6429C466.839 37.4269 467.027 37.1309 467.147 36.7549C467.275 36.3789 467.339 35.9509 467.339 35.4709C467.339 34.7349 467.195 34.1469 466.907 33.7069C466.627 33.2669 466.191 33.0469 465.599 33.0469ZM472.262 37.9669C472.422 37.9669 472.586 37.9549 472.754 37.9309C472.922 37.9069 473.058 37.8749 473.162 37.8349V38.6389C473.05 38.6949 472.89 38.7389 472.682 38.7709C472.474 38.8109 472.274 38.8309 472.082 38.8309C471.746 38.8309 471.434 38.7749 471.146 38.6629C470.866 38.5429 470.638 38.3389 470.462 38.0509C470.286 37.7629 470.198 37.3589 470.198 36.8389V33.0949H469.286V32.5909L470.21 32.1709L470.63 30.8029H471.254V32.2789H473.114V33.0949H471.254V36.8149C471.254 37.2069 471.346 37.4989 471.53 37.6909C471.722 37.8749 471.966 37.9669 472.262 37.9669ZM474.99 29.8669C475.15 29.8669 475.29 29.9229 475.41 30.0349C475.538 30.1389 475.602 30.3069 475.602 30.5389C475.602 30.7709 475.538 30.9429 475.41 31.0549C475.29 31.1589 475.15 31.2109 474.99 31.2109C474.814 31.2109 474.666 31.1589 474.546 31.0549C474.426 30.9429 474.366 30.7709 474.366 30.5389C474.366 30.3069 474.426 30.1389 474.546 30.0349C474.666 29.9229 474.814 29.8669 474.99 29.8669ZM475.506 32.2789V38.7109H474.45V32.2789H475.506ZM483.135 35.4829C483.135 36.5469 482.863 37.3709 482.319 37.9549C481.783 38.5389 481.055 38.8309 480.135 38.8309C479.567 38.8309 479.059 38.7029 478.611 38.4469C478.171 38.1829 477.823 37.8029 477.567 37.3069C477.311 36.8029 477.183 36.1949 477.183 35.4829C477.183 34.4189 477.447 33.5989 477.975 33.0229C478.511 32.4469 479.243 32.1589 480.171 32.1589C480.747 32.1589 481.259 32.2909 481.707 32.5549C482.155 32.8109 482.503 33.1869 482.751 33.6829C483.007 34.1709 483.135 34.7709 483.135 35.4829ZM478.275 35.4829C478.275 36.2429 478.423 36.8469 478.719 37.2949C479.023 37.7349 479.503 37.9549 480.159 37.9549C480.807 37.9549 481.283 37.7349 481.587 37.2949C481.891 36.8469 482.043 36.2429 482.043 35.4829C482.043 34.7229 481.891 34.1269 481.587 33.6949C481.283 33.2629 480.803 33.0469 480.147 33.0469C479.491 33.0469 479.015 33.2629 478.719 33.6949C478.423 34.1269 478.275 34.7229 478.275 35.4829ZM487.905 32.1589C488.673 32.1589 489.253 32.3469 489.645 32.7229C490.037 33.0989 490.233 33.6989 490.233 34.5229V38.7109H489.189V34.5949C489.189 33.5629 488.709 33.0469 487.749 33.0469C487.037 33.0469 486.545 33.2469 486.273 33.6469C486.001 34.0469 485.865 34.6229 485.865 35.3749V38.7109H484.809V32.2789H485.661L485.817 33.1549H485.877C486.085 32.8189 486.373 32.5709 486.741 32.4109C487.109 32.2429 487.497 32.1589 487.905 32.1589Z" fill="black"/>
<circle cx="426" cy="59.7109" r="7.5" fill="white" stroke="#1B77AF"/>
<path d="M452.08 59.6989C452.08 60.7349 451.903 61.6403 451.548 62.4149C451.203 63.1803 450.685 63.7776 449.994 64.2069C449.313 64.6363 448.473 64.8509 447.474 64.8509C446.438 64.8509 445.575 64.6363 444.884 64.2069C444.203 63.7776 443.694 63.1756 443.358 62.4009C443.022 61.6263 442.854 60.7209 442.854 59.6849C442.854 58.6676 443.022 57.7763 443.358 57.0109C443.694 56.2363 444.203 55.6343 444.884 55.2049C445.575 54.7756 446.443 54.5609 447.488 54.5609C448.487 54.5609 449.327 54.7756 450.008 55.2049C450.689 55.6249 451.203 56.2223 451.548 56.9969C451.903 57.7623 452.08 58.6629 452.08 59.6989ZM444.184 59.6989C444.184 60.9589 444.45 61.9529 444.982 62.6809C445.514 63.3996 446.345 63.7589 447.474 63.7589C448.603 63.7589 449.429 63.3996 449.952 62.6809C450.484 61.9529 450.75 60.9589 450.75 59.6989C450.75 58.4389 450.489 57.4543 449.966 56.7449C449.443 56.0263 448.617 55.6669 447.488 55.6669C446.349 55.6669 445.514 56.0263 444.982 56.7449C444.45 57.4543 444.184 58.4389 444.184 59.6989ZM457.698 57.0669C458.622 57.0669 459.364 57.3889 459.924 58.0329C460.493 58.6769 460.778 59.6476 460.778 60.9449C460.778 62.2236 460.493 63.1943 459.924 63.8569C459.364 64.5196 458.617 64.8509 457.684 64.8509C457.105 64.8509 456.624 64.7436 456.242 64.5289C455.868 64.3143 455.574 64.0576 455.36 63.7589H455.276C455.285 63.9176 455.299 64.1183 455.318 64.3609C455.346 64.6036 455.36 64.8136 455.36 64.9909V68.0709H454.128V57.2069H455.136L455.304 58.2289H455.36C455.584 57.9023 455.878 57.6269 456.242 57.4029C456.606 57.1789 457.091 57.0669 457.698 57.0669ZM457.474 58.1029C456.708 58.1029 456.167 58.3176 455.85 58.7469C455.532 59.1763 455.369 59.8296 455.36 60.7069V60.9449C455.36 61.8689 455.509 62.5829 455.808 63.0869C456.116 63.5816 456.68 63.8289 457.502 63.8289C457.95 63.8289 458.323 63.7076 458.622 63.4649C458.92 63.2129 459.14 62.8676 459.28 62.4289C459.429 61.9903 459.504 61.4909 459.504 60.9309C459.504 60.0723 459.336 59.3863 459 58.8729C458.673 58.3596 458.164 58.1029 457.474 58.1029ZM465.247 63.8429C465.433 63.8429 465.625 63.8289 465.821 63.8009C466.017 63.7729 466.175 63.7356 466.297 63.6889V64.6269C466.166 64.6923 465.979 64.7436 465.737 64.7809C465.494 64.8276 465.261 64.8509 465.037 64.8509C464.645 64.8509 464.281 64.7856 463.945 64.6549C463.618 64.5149 463.352 64.2769 463.147 63.9409C462.941 63.6049 462.839 63.1336 462.839 62.5269V58.1589H461.775V57.5709L462.853 57.0809L463.343 55.4849H464.071V57.2069H466.241V58.1589H464.071V62.4989C464.071 62.9563 464.178 63.2969 464.393 63.5209C464.617 63.7356 464.901 63.8429 465.247 63.8429ZM468.429 54.3929C468.616 54.3929 468.779 54.4583 468.919 54.5889C469.069 54.7103 469.143 54.9063 469.143 55.1769C469.143 55.4476 469.069 55.6483 468.919 55.7789C468.779 55.9003 468.616 55.9609 468.429 55.9609C468.224 55.9609 468.051 55.9003 467.911 55.7789C467.771 55.6483 467.701 55.4476 467.701 55.1769C467.701 54.9063 467.771 54.7103 467.911 54.5889C468.051 54.4583 468.224 54.3929 468.429 54.3929ZM469.031 57.2069V64.7109H467.799V57.2069H469.031ZM477.933 60.9449C477.933 62.1863 477.615 63.1476 476.981 63.8289C476.355 64.5103 475.506 64.8509 474.433 64.8509C473.77 64.8509 473.177 64.7016 472.655 64.4029C472.141 64.0949 471.735 63.6516 471.437 63.0729C471.138 62.4849 470.989 61.7756 470.989 60.9449C470.989 59.7036 471.297 58.7469 471.913 58.0749C472.538 57.4029 473.392 57.0669 474.475 57.0669C475.147 57.0669 475.744 57.2209 476.267 57.5289C476.789 57.8276 477.195 58.2663 477.485 58.8449C477.783 59.4143 477.933 60.1143 477.933 60.9449ZM472.263 60.9449C472.263 61.8316 472.435 62.5363 472.781 63.0589C473.135 63.5723 473.695 63.8289 474.461 63.8289C475.217 63.8289 475.772 63.5723 476.127 63.0589C476.481 62.5363 476.659 61.8316 476.659 60.9449C476.659 60.0583 476.481 59.3629 476.127 58.8589C475.772 58.3549 475.212 58.1029 474.447 58.1029C473.681 58.1029 473.126 58.3549 472.781 58.8589C472.435 59.3629 472.263 60.0583 472.263 60.9449ZM483.497 57.0669C484.393 57.0669 485.07 57.2863 485.527 57.7249C485.985 58.1636 486.213 58.8636 486.213 59.8249V64.7109H484.995V59.9089C484.995 58.7049 484.435 58.1029 483.315 58.1029C482.485 58.1029 481.911 58.3363 481.593 58.8029C481.276 59.2696 481.117 59.9416 481.117 60.8189V64.7109H479.885V57.2069H480.879L481.061 58.2289H481.131C481.374 57.8369 481.71 57.5476 482.139 57.3609C482.569 57.1649 483.021 57.0669 483.497 57.0669Z" fill="black"/>
<circle cx="426" cy="87.7109" r="7.5" fill="white" stroke="#1B77AF"/>
<circle cx="426" cy="87.7109" r="5" fill="#1B77AF"/>
<path d="M452.08 87.6989C452.08 88.7349 451.903 89.6403 451.548 90.4149C451.203 91.1803 450.685 91.7776 449.994 92.2069C449.313 92.6363 448.473 92.8509 447.474 92.8509C446.438 92.8509 445.575 92.6363 444.884 92.2069C444.203 91.7776 443.694 91.1756 443.358 90.4009C443.022 89.6263 442.854 88.7209 442.854 87.6849C442.854 86.6676 443.022 85.7763 443.358 85.0109C443.694 84.2363 444.203 83.6343 444.884 83.2049C445.575 82.7756 446.443 82.5609 447.488 82.5609C448.487 82.5609 449.327 82.7756 450.008 83.2049C450.689 83.6249 451.203 84.2223 451.548 84.9969C451.903 85.7623 452.08 86.6629 452.08 87.6989ZM444.184 87.6989C444.184 88.9589 444.45 89.9529 444.982 90.6809C445.514 91.3996 446.345 91.7589 447.474 91.7589C448.603 91.7589 449.429 91.3996 449.952 90.6809C450.484 89.9529 450.75 88.9589 450.75 87.6989C450.75 86.4389 450.489 85.4543 449.966 84.7449C449.443 84.0263 448.617 83.6669 447.488 83.6669C446.349 83.6669 445.514 84.0263 444.982 84.7449C444.45 85.4543 444.184 86.4389 444.184 87.6989ZM457.698 85.0669C458.622 85.0669 459.364 85.3889 459.924 86.0329C460.493 86.6769 460.778 87.6476 460.778 88.9449C460.778 90.2236 460.493 91.1943 459.924 91.8569C459.364 92.5196 458.617 92.8509 457.684 92.8509C457.105 92.8509 456.624 92.7436 456.242 92.5289C455.868 92.3143 455.574 92.0576 455.36 91.7589H455.276C455.285 91.9176 455.299 92.1183 455.318 92.3609C455.346 92.6036 455.36 92.8136 455.36 92.9909V96.0709H454.128V85.2069H455.136L455.304 86.2289H455.36C455.584 85.9023 455.878 85.6269 456.242 85.4029C456.606 85.1789 457.091 85.0669 457.698 85.0669ZM457.474 86.1029C456.708 86.1029 456.167 86.3176 455.85 86.7469C455.532 87.1763 455.369 87.8296 455.36 88.7069V88.9449C455.36 89.8689 455.509 90.5829 455.808 91.0869C456.116 91.5816 456.68 91.8289 457.502 91.8289C457.95 91.8289 458.323 91.7076 458.622 91.4649C458.92 91.2129 459.14 90.8676 459.28 90.4289C459.429 89.9903 459.504 89.4909 459.504 88.9309C459.504 88.0723 459.336 87.3863 459 86.8729C458.673 86.3596 458.164 86.1029 457.474 86.1029ZM465.247 91.8429C465.433 91.8429 465.625 91.8289 465.821 91.8009C466.017 91.7729 466.175 91.7356 466.297 91.6889V92.6269C466.166 92.6923 465.979 92.7436 465.737 92.7809C465.494 92.8276 465.261 92.8509 465.037 92.8509C464.645 92.8509 464.281 92.7856 463.945 92.6549C463.618 92.5149 463.352 92.2769 463.147 91.9409C462.941 91.6049 462.839 91.1336 462.839 90.5269V86.1589H461.775V85.5709L462.853 85.0809L463.343 83.4849H464.071V85.2069H466.241V86.1589H464.071V90.4989C464.071 90.9563 464.178 91.2969 464.393 91.5209C464.617 91.7356 464.901 91.8429 465.247 91.8429ZM468.429 82.3929C468.616 82.3929 468.779 82.4583 468.919 82.5889C469.069 82.7103 469.143 82.9063 469.143 83.1769C469.143 83.4476 469.069 83.6483 468.919 83.7789C468.779 83.9003 468.616 83.9609 468.429 83.9609C468.224 83.9609 468.051 83.9003 467.911 83.7789C467.771 83.6483 467.701 83.4476 467.701 83.1769C467.701 82.9063 467.771 82.7103 467.911 82.5889C468.051 82.4583 468.224 82.3929 468.429 82.3929ZM469.031 85.2069V92.7109H467.799V85.2069H469.031ZM477.933 88.9449C477.933 90.1863 477.615 91.1476 476.981 91.8289C476.355 92.5103 475.506 92.8509 474.433 92.8509C473.77 92.8509 473.177 92.7016 472.655 92.4029C472.141 92.0949 471.735 91.6516 471.437 91.0729C471.138 90.4849 470.989 89.7756 470.989 88.9449C470.989 87.7036 471.297 86.7469 471.913 86.0749C472.538 85.4029 473.392 85.0669 474.475 85.0669C475.147 85.0669 475.744 85.2209 476.267 85.5289C476.789 85.8276 477.195 86.2663 477.485 86.8449C477.783 87.4143 477.933 88.1143 477.933 88.9449ZM472.263 88.9449C472.263 89.8316 472.435 90.5363 472.781 91.0589C473.135 91.5723 473.695 91.8289 474.461 91.8289C475.217 91.8289 475.772 91.5723 476.127 91.0589C476.481 90.5363 476.659 89.8316 476.659 88.9449C476.659 88.0583 476.481 87.3629 476.127 86.8589C475.772 86.3549 475.212 86.1029 474.447 86.1029C473.681 86.1029 473.126 86.3549 472.781 86.8589C472.435 87.3629 472.263 88.0583 472.263 88.9449ZM483.497 85.0669C484.393 85.0669 485.07 85.2863 485.527 85.7249C485.985 86.1636 486.213 86.8636 486.213 87.8249V92.7109H484.995V87.9089C484.995 86.7049 484.435 86.1029 483.315 86.1029C482.485 86.1029 481.911 86.3363 481.593 86.8029C481.276 87.2696 481.117 87.9416 481.117 88.8189V92.7109H479.885V85.2069H480.879L481.061 86.2289H481.131C481.374 85.8369 481.71 85.5476 482.139 85.3609C482.569 85.1649 483.021 85.0669 483.497 85.0669Z" fill="black"/>
<circle cx="426" cy="115.711" r="7.5" fill="white" stroke="#1B77AF"/>
<path d="M452.08 115.699C452.08 116.735 451.903 117.64 451.548 118.415C451.203 119.18 450.685 119.778 449.994 120.207C449.313 120.636 448.473 120.851 447.474 120.851C446.438 120.851 445.575 120.636 444.884 120.207C444.203 119.778 443.694 119.176 443.358 118.401C443.022 117.626 442.854 116.721 442.854 115.685C442.854 114.668 443.022 113.776 443.358 113.011C443.694 112.236 444.203 111.634 444.884 111.205C445.575 110.776 446.443 110.561 447.488 110.561C448.487 110.561 449.327 110.776 450.008 111.205C450.689 111.625 451.203 112.222 451.548 112.997C451.903 113.762 452.08 114.663 452.08 115.699ZM444.184 115.699C444.184 116.959 444.45 117.953 444.982 118.681C445.514 119.4 446.345 119.759 447.474 119.759C448.603 119.759 449.429 119.4 449.952 118.681C450.484 117.953 450.75 116.959 450.75 115.699C450.75 114.439 450.489 113.454 449.966 112.745C449.443 112.026 448.617 111.667 447.488 111.667C446.349 111.667 445.514 112.026 444.982 112.745C444.45 113.454 444.184 114.439 444.184 115.699ZM457.698 113.067C458.622 113.067 459.364 113.389 459.924 114.033C460.493 114.677 460.778 115.648 460.778 116.945C460.778 118.224 460.493 119.194 459.924 119.857C459.364 120.52 458.617 120.851 457.684 120.851C457.105 120.851 456.624 120.744 456.242 120.529C455.868 120.314 455.574 120.058 455.36 119.759H455.276C455.285 119.918 455.299 120.118 455.318 120.361C455.346 120.604 455.36 120.814 455.36 120.991V124.071H454.128V113.207H455.136L455.304 114.229H455.36C455.584 113.902 455.878 113.627 456.242 113.403C456.606 113.179 457.091 113.067 457.698 113.067ZM457.474 114.103C456.708 114.103 456.167 114.318 455.85 114.747C455.532 115.176 455.369 115.83 455.36 116.707V116.945C455.36 117.869 455.509 118.583 455.808 119.087C456.116 119.582 456.68 119.829 457.502 119.829C457.95 119.829 458.323 119.708 458.622 119.465C458.92 119.213 459.14 118.868 459.28 118.429C459.429 117.99 459.504 117.491 459.504 116.931C459.504 116.072 459.336 115.386 459 114.873C458.673 114.36 458.164 114.103 457.474 114.103ZM465.247 119.843C465.433 119.843 465.625 119.829 465.821 119.801C466.017 119.773 466.175 119.736 466.297 119.689V120.627C466.166 120.692 465.979 120.744 465.737 120.781C465.494 120.828 465.261 120.851 465.037 120.851C464.645 120.851 464.281 120.786 463.945 120.655C463.618 120.515 463.352 120.277 463.147 119.941C462.941 119.605 462.839 119.134 462.839 118.527V114.159H461.775V113.571L462.853 113.081L463.343 111.485H464.071V113.207H466.241V114.159H464.071V118.499C464.071 118.956 464.178 119.297 464.393 119.521C464.617 119.736 464.901 119.843 465.247 119.843ZM468.429 110.393C468.616 110.393 468.779 110.458 468.919 110.589C469.069 110.71 469.143 110.906 469.143 111.177C469.143 111.448 469.069 111.648 468.919 111.779C468.779 111.9 468.616 111.961 468.429 111.961C468.224 111.961 468.051 111.9 467.911 111.779C467.771 111.648 467.701 111.448 467.701 111.177C467.701 110.906 467.771 110.71 467.911 110.589C468.051 110.458 468.224 110.393 468.429 110.393ZM469.031 113.207V120.711H467.799V113.207H469.031ZM477.933 116.945C477.933 118.186 477.615 119.148 476.981 119.829C476.355 120.51 475.506 120.851 474.433 120.851C473.77 120.851 473.177 120.702 472.655 120.403C472.141 120.095 471.735 119.652 471.437 119.073C471.138 118.485 470.989 117.776 470.989 116.945C470.989 115.704 471.297 114.747 471.913 114.075C472.538 113.403 473.392 113.067 474.475 113.067C475.147 113.067 475.744 113.221 476.267 113.529C476.789 113.828 477.195 114.266 477.485 114.845C477.783 115.414 477.933 116.114 477.933 116.945ZM472.263 116.945C472.263 117.832 472.435 118.536 472.781 119.059C473.135 119.572 473.695 119.829 474.461 119.829C475.217 119.829 475.772 119.572 476.127 119.059C476.481 118.536 476.659 117.832 476.659 116.945C476.659 116.058 476.481 115.363 476.127 114.859C475.772 114.355 475.212 114.103 474.447 114.103C473.681 114.103 473.126 114.355 472.781 114.859C472.435 115.363 472.263 116.058 472.263 116.945ZM483.497 113.067C484.393 113.067 485.07 113.286 485.527 113.725C485.985 114.164 486.213 114.864 486.213 115.825V120.711H484.995V115.909C484.995 114.705 484.435 114.103 483.315 114.103C482.485 114.103 481.911 114.336 481.593 114.803C481.276 115.27 481.117 115.942 481.117 116.819V120.711H479.885V113.207H480.879L481.061 114.229H481.131C481.374 113.837 481.71 113.548 482.139 113.361C482.569 113.165 483.021 113.067 483.497 113.067Z" fill="black"/>
<circle cx="426" cy="143.711" r="7.5" fill="white" stroke="#1B77AF"/>
<path d="M452.08 143.699C452.08 144.735 451.903 145.64 451.548 146.415C451.203 147.18 450.685 147.778 449.994 148.207C449.313 148.636 448.473 148.851 447.474 148.851C446.438 148.851 445.575 148.636 444.884 148.207C444.203 147.778 443.694 147.176 443.358 146.401C443.022 145.626 442.854 144.721 442.854 143.685C442.854 142.668 443.022 141.776 443.358 141.011C443.694 140.236 444.203 139.634 444.884 139.205C445.575 138.776 446.443 138.561 447.488 138.561C448.487 138.561 449.327 138.776 450.008 139.205C450.689 139.625 451.203 140.222 451.548 140.997C451.903 141.762 452.08 142.663 452.08 143.699ZM444.184 143.699C444.184 144.959 444.45 145.953 444.982 146.681C445.514 147.4 446.345 147.759 447.474 147.759C448.603 147.759 449.429 147.4 449.952 146.681C450.484 145.953 450.75 144.959 450.75 143.699C450.75 142.439 450.489 141.454 449.966 140.745C449.443 140.026 448.617 139.667 447.488 139.667C446.349 139.667 445.514 140.026 444.982 140.745C444.45 141.454 444.184 142.439 444.184 143.699ZM457.698 141.067C458.622 141.067 459.364 141.389 459.924 142.033C460.493 142.677 460.778 143.648 460.778 144.945C460.778 146.224 460.493 147.194 459.924 147.857C459.364 148.52 458.617 148.851 457.684 148.851C457.105 148.851 456.624 148.744 456.242 148.529C455.868 148.314 455.574 148.058 455.36 147.759H455.276C455.285 147.918 455.299 148.118 455.318 148.361C455.346 148.604 455.36 148.814 455.36 148.991V152.071H454.128V141.207H455.136L455.304 142.229H455.36C455.584 141.902 455.878 141.627 456.242 141.403C456.606 141.179 457.091 141.067 457.698 141.067ZM457.474 142.103C456.708 142.103 456.167 142.318 455.85 142.747C455.532 143.176 455.369 143.83 455.36 144.707V144.945C455.36 145.869 455.509 146.583 455.808 147.087C456.116 147.582 456.68 147.829 457.502 147.829C457.95 147.829 458.323 147.708 458.622 147.465C458.92 147.213 459.14 146.868 459.28 146.429C459.429 145.99 459.504 145.491 459.504 144.931C459.504 144.072 459.336 143.386 459 142.873C458.673 142.36 458.164 142.103 457.474 142.103ZM465.247 147.843C465.433 147.843 465.625 147.829 465.821 147.801C466.017 147.773 466.175 147.736 466.297 147.689V148.627C466.166 148.692 465.979 148.744 465.737 148.781C465.494 148.828 465.261 148.851 465.037 148.851C464.645 148.851 464.281 148.786 463.945 148.655C463.618 148.515 463.352 148.277 463.147 147.941C462.941 147.605 462.839 147.134 462.839 146.527V142.159H461.775V141.571L462.853 141.081L463.343 139.485H464.071V141.207H466.241V142.159H464.071V146.499C464.071 146.956 464.178 147.297 464.393 147.521C464.617 147.736 464.901 147.843 465.247 147.843ZM468.429 138.393C468.616 138.393 468.779 138.458 468.919 138.589C469.069 138.71 469.143 138.906 469.143 139.177C469.143 139.448 469.069 139.648 468.919 139.779C468.779 139.9 468.616 139.961 468.429 139.961C468.224 139.961 468.051 139.9 467.911 139.779C467.771 139.648 467.701 139.448 467.701 139.177C467.701 138.906 467.771 138.71 467.911 138.589C468.051 138.458 468.224 138.393 468.429 138.393ZM469.031 141.207V148.711H467.799V141.207H469.031ZM477.933 144.945C477.933 146.186 477.615 147.148 476.981 147.829C476.355 148.51 475.506 148.851 474.433 148.851C473.77 148.851 473.177 148.702 472.655 148.403C472.141 148.095 471.735 147.652 471.437 147.073C471.138 146.485 470.989 145.776 470.989 144.945C470.989 143.704 471.297 142.747 471.913 142.075C472.538 141.403 473.392 141.067 474.475 141.067C475.147 141.067 475.744 141.221 476.267 141.529C476.789 141.828 477.195 142.266 477.485 142.845C477.783 143.414 477.933 144.114 477.933 144.945ZM472.263 144.945C472.263 145.832 472.435 146.536 472.781 147.059C473.135 147.572 473.695 147.829 474.461 147.829C475.217 147.829 475.772 147.572 476.127 147.059C476.481 146.536 476.659 145.832 476.659 144.945C476.659 144.058 476.481 143.363 476.127 142.859C475.772 142.355 475.212 142.103 474.447 142.103C473.681 142.103 473.126 142.355 472.781 142.859C472.435 143.363 472.263 144.058 472.263 144.945ZM483.497 141.067C484.393 141.067 485.07 141.286 485.527 141.725C485.985 142.164 486.213 142.864 486.213 143.825V148.711H484.995V143.909C484.995 142.705 484.435 142.103 483.315 142.103C482.485 142.103 481.911 142.336 481.593 142.803C481.276 143.27 481.117 143.942 481.117 144.819V148.711H479.885V141.207H480.879L481.061 142.229H481.131C481.374 141.837 481.71 141.548 482.139 141.361C482.569 141.165 483.021 141.067 483.497 141.067Z" fill="black"/>
<circle cx="363" cy="36" r="12" fill="#D51588"/>
<path d="M364.968 41H363.204V34.77C363.204 34.4713 363.209 34.154 363.218 33.818C363.227 33.482 363.241 33.1693 363.26 32.88C363.167 32.9733 363.05 33.0853 362.91 33.216C362.779 33.3467 362.635 33.4727 362.476 33.594L361.356 34.49L360.474 33.398L363.498 31.004H364.968V41Z" fill="white"/>
<path d="M375 36H416" stroke="#D51588"/>
<circle cx="363" cy="88.2371" r="12" fill="#D51588"/>
<path d="M366.55 85.5231C366.55 86.2044 366.349 86.7504 365.948 87.1611C365.556 87.5624 365.047 87.8331 364.422 87.9731V88.0151C365.225 88.1177 365.831 88.3697 366.242 88.7711C366.653 89.1724 366.858 89.6997 366.858 90.3531C366.858 90.9317 366.718 91.4497 366.438 91.9071C366.158 92.3644 365.724 92.7237 365.136 92.9851C364.557 93.2464 363.811 93.3771 362.896 93.3771C362.345 93.3771 361.837 93.3304 361.37 93.2371C360.913 93.1531 360.479 93.0177 360.068 92.8311V91.2771C360.488 91.4917 360.936 91.6551 361.412 91.7671C361.888 91.8791 362.336 91.9351 362.756 91.9351C363.568 91.9351 364.142 91.7904 364.478 91.5011C364.814 91.2024 364.982 90.7917 364.982 90.2691C364.982 89.7744 364.786 89.4057 364.394 89.1631C364.002 88.9204 363.349 88.7991 362.434 88.7991H361.594V87.3851H362.448C363.335 87.3851 363.946 87.2404 364.282 86.9511C364.618 86.6617 364.786 86.2884 364.786 85.8311C364.786 85.4297 364.655 85.1171 364.394 84.8931C364.133 84.6691 363.741 84.5571 363.218 84.5571C362.714 84.5571 362.28 84.6411 361.916 84.8091C361.552 84.9677 361.225 85.1404 360.936 85.3271L360.096 84.1091C360.479 83.8291 360.931 83.5911 361.454 83.3951C361.977 83.1991 362.593 83.1011 363.302 83.1011C364.338 83.1011 365.136 83.3204 365.696 83.7591C366.265 84.1977 366.55 84.7857 366.55 85.5231Z" fill="white"/>
<path d="M375 88.2371H416" stroke="#D51588"/>
<circle cx="363" cy="144.318" r="12" fill="#D51588"/>
<path d="M367.25 147.176H365.948V149.318H364.212V147.176H359.76V145.86L364.254 139.294H365.948V145.734H367.25V147.176ZM364.212 145.734V143.494C364.212 143.232 364.217 142.962 364.226 142.682C364.235 142.392 364.245 142.126 364.254 141.884C364.273 141.632 364.287 141.44 364.296 141.31H364.24C364.156 141.496 364.063 141.683 363.96 141.87C363.867 142.047 363.759 142.224 363.638 142.402L361.37 145.734H364.212Z" fill="white"/>
<path d="M375 144.318H416" stroke="#D51588"/>
<path d="M488 60.6445H529" stroke="#D51588"/>
<circle cx="541" cy="60.6445" r="12" fill="#D51588"/>
<path d="M544.942 65.6445H538.096V64.3425L540.644 61.7665C541.148 61.2532 541.559 60.8145 541.876 60.4505C542.203 60.0865 542.441 59.7459 542.59 59.4285C542.749 59.1019 542.828 58.7519 542.828 58.3785C542.828 57.9212 542.697 57.5805 542.436 57.3565C542.184 57.1232 541.839 57.0065 541.4 57.0065C540.98 57.0065 540.588 57.0952 540.224 57.2725C539.86 57.4405 539.482 57.6832 539.09 58.0005L538.124 56.8385C538.535 56.4839 538.997 56.1759 539.51 55.9145C540.033 55.6439 540.695 55.5085 541.498 55.5085C542.142 55.5085 542.693 55.6252 543.15 55.8585C543.617 56.0825 543.976 56.3999 544.228 56.8105C544.48 57.2119 544.606 57.6739 544.606 58.1965C544.606 58.7379 544.499 59.2372 544.284 59.6945C544.069 60.1425 543.757 60.5952 543.346 61.0525C542.945 61.5005 542.464 61.9859 541.904 62.5085L540.322 64.0345V64.1185H544.942V65.6445Z" fill="white"/>
</svg>
