<svg width="202" height="128" viewBox="0 0 202 128" fill="none" xmlns="http://www.w3.org/2000/svg">
<path d="M4.944 13L2.124 5.488H2.076C2.1 5.736 2.12 6.072 2.136 6.496C2.152 6.912 2.16 7.348 2.16 7.804V13H1.164V4.432H2.76L5.4 11.452H5.448L8.136 4.432H9.72V13H8.652V7.732C8.652 7.316 8.66 6.904 8.676 6.496C8.7 6.088 8.72 5.756 8.736 5.5H8.688L5.832 13H4.944ZM14.3427 6.46C15.1267 6.46 15.7067 6.632 16.0827 6.976C16.4587 7.32 16.6467 7.868 16.6467 8.62V13H15.8787L15.6747 12.088H15.6267C15.3467 12.44 15.0507 12.7 14.7387 12.868C14.4267 13.036 14.0027 13.12 13.4667 13.12C12.8827 13.12 12.3987 12.968 12.0147 12.664C11.6307 12.352 11.4387 11.868 11.4387 11.212C11.4387 10.572 11.6907 10.08 12.1947 9.736C12.6987 9.384 13.4747 9.192 14.5227 9.16L15.6147 9.124V8.74C15.6147 8.204 15.4987 7.832 15.2667 7.624C15.0347 7.416 14.7067 7.312 14.2827 7.312C13.9467 7.312 13.6267 7.364 13.3227 7.468C13.0187 7.564 12.7347 7.676 12.4707 7.804L12.1467 7.012C12.4267 6.86 12.7587 6.732 13.1427 6.628C13.5267 6.516 13.9267 6.46 14.3427 6.46ZM15.6027 9.856L14.6547 9.892C13.8547 9.924 13.2987 10.052 12.9867 10.276C12.6827 10.5 12.5307 10.816 12.5307 11.224C12.5307 11.584 12.6387 11.848 12.8547 12.016C13.0787 12.184 13.3627 12.268 13.7067 12.268C14.2427 12.268 14.6907 12.12 15.0507 11.824C15.4187 11.52 15.6027 11.056 15.6027 10.432V9.856ZM20.1573 9.712L17.9373 6.568H19.1373L20.7933 8.992L22.4373 6.568H23.6253L21.4053 9.712L23.7453 13H22.5453L20.7933 10.432L19.0173 13H17.8293L20.1573 9.712ZM25.5248 4.156C25.6848 4.156 25.8248 4.212 25.9448 4.324C26.0728 4.428 26.1368 4.596 26.1368 4.828C26.1368 5.06 26.0728 5.232 25.9448 5.344C25.8248 5.448 25.6848 5.5 25.5248 5.5C25.3488 5.5 25.2008 5.448 25.0808 5.344C24.9608 5.232 24.9008 5.06 24.9008 4.828C24.9008 4.596 24.9608 4.428 25.0808 4.324C25.2008 4.212 25.3488 4.156 25.5248 4.156ZM26.0408 6.568V13H24.9848V6.568H26.0408ZM35.1346 6.448C35.8626 6.448 36.4066 6.636 36.7666 7.012C37.1266 7.388 37.3066 7.988 37.3066 8.812V13H36.2626V8.86C36.2626 7.844 35.8266 7.336 34.9546 7.336C34.3306 7.336 33.8826 7.516 33.6106 7.876C33.3466 8.236 33.2146 8.76 33.2146 9.448V13H32.1706V8.86C32.1706 7.844 31.7306 7.336 30.8506 7.336C30.2026 7.336 29.7546 7.536 29.5066 7.936C29.2586 8.336 29.1346 8.912 29.1346 9.664V13H28.0786V6.568H28.9306L29.0866 7.444H29.1466C29.3466 7.108 29.6146 6.86 29.9506 6.7C30.2946 6.532 30.6586 6.448 31.0426 6.448C32.0506 6.448 32.7066 6.808 33.0106 7.528H33.0706C33.2866 7.16 33.5786 6.888 33.9466 6.712C34.3146 6.536 34.7106 6.448 35.1346 6.448ZM44.6694 6.568V13H43.8054L43.6494 12.148H43.6014C43.3934 12.484 43.1054 12.732 42.7374 12.892C42.3694 13.044 41.9774 13.12 41.5614 13.12C40.7854 13.12 40.2014 12.936 39.8094 12.568C39.4174 12.192 39.2214 11.596 39.2214 10.78V6.568H40.2894V10.708C40.2894 11.732 40.7654 12.244 41.7174 12.244C42.4294 12.244 42.9214 12.044 43.1934 11.644C43.4734 11.244 43.6134 10.668 43.6134 9.916V6.568H44.6694ZM53.7674 6.448C54.4954 6.448 55.0394 6.636 55.3994 7.012C55.7594 7.388 55.9394 7.988 55.9394 8.812V13H54.8954V8.86C54.8954 7.844 54.4594 7.336 53.5874 7.336C52.9634 7.336 52.5154 7.516 52.2434 7.876C51.9794 8.236 51.8474 8.76 51.8474 9.448V13H50.8034V8.86C50.8034 7.844 50.3634 7.336 49.4834 7.336C48.8354 7.336 48.3874 7.536 48.1394 7.936C47.8914 8.336 47.7674 8.912 47.7674 9.664V13H46.7114V6.568H47.5634L47.7194 7.444H47.7794C47.9794 7.108 48.2474 6.86 48.5834 6.7C48.9274 6.532 49.2914 6.448 49.6754 6.448C50.6834 6.448 51.3394 6.808 51.6434 7.528H51.7034C51.9194 7.16 52.2114 6.888 52.5794 6.712C52.9474 6.536 53.3434 6.448 53.7674 6.448ZM62.4594 13L60.0234 6.568H61.1514L62.5194 10.36C62.5834 10.536 62.6514 10.732 62.7234 10.948C62.7954 11.164 62.8594 11.372 62.9154 11.572C62.9714 11.772 63.0114 11.936 63.0354 12.064H63.0834C63.1074 11.936 63.1514 11.772 63.2154 11.572C63.2794 11.364 63.3474 11.156 63.4194 10.948C63.4914 10.732 63.5594 10.536 63.6234 10.36L64.9914 6.568H66.1194L63.6714 13H62.4594ZM67.6772 4.156C67.8372 4.156 67.9772 4.212 68.0972 4.324C68.2252 4.428 68.2892 4.596 68.2892 4.828C68.2892 5.06 68.2252 5.232 68.0972 5.344C67.9772 5.448 67.8372 5.5 67.6772 5.5C67.5012 5.5 67.3532 5.448 67.2332 5.344C67.1132 5.232 67.0532 5.06 67.0532 4.828C67.0532 4.596 67.1132 4.428 67.2332 4.324C67.3532 4.212 67.5012 4.156 67.6772 4.156ZM68.1932 6.568V13H67.1372V6.568H68.1932ZM72.5109 13.12C71.7109 13.12 71.0709 12.844 70.5909 12.292C70.1109 11.732 69.8709 10.9 69.8709 9.796C69.8709 8.692 70.1109 7.86 70.5909 7.3C71.0789 6.732 71.7229 6.448 72.5229 6.448C73.0189 6.448 73.4229 6.54 73.7349 6.724C74.0549 6.908 74.3149 7.132 74.5149 7.396H74.5869C74.5709 7.292 74.5549 7.14 74.5389 6.94C74.5229 6.732 74.5149 6.568 74.5149 6.448V3.88H75.5709V13H74.7189L74.5629 12.136H74.5149C74.3229 12.408 74.0669 12.64 73.7469 12.832C73.4269 13.024 73.0149 13.12 72.5109 13.12ZM72.6789 12.244C73.3589 12.244 73.8349 12.06 74.1069 11.692C74.3869 11.316 74.5269 10.752 74.5269 10V9.808C74.5269 9.008 74.3949 8.396 74.1309 7.972C73.8669 7.54 73.3789 7.324 72.6669 7.324C72.0989 7.324 71.6709 7.552 71.3829 8.008C71.1029 8.456 70.9629 9.06 70.9629 9.82C70.9629 10.588 71.1029 11.184 71.3829 11.608C71.6709 12.032 72.1029 12.244 72.6789 12.244ZM80.0978 6.448C80.6418 6.448 81.1138 6.568 81.5138 6.808C81.9138 7.048 82.2178 7.388 82.4258 7.828C82.6418 8.26 82.7498 8.768 82.7498 9.352V9.988H78.3458C78.3618 10.716 78.5458 11.272 78.8978 11.656C79.2578 12.032 79.7578 12.22 80.3978 12.22C80.8058 12.22 81.1658 12.184 81.4778 12.112C81.7978 12.032 82.1258 11.92 82.4618 11.776V12.7C82.1338 12.844 81.8098 12.948 81.4898 13.012C81.1698 13.084 80.7898 13.12 80.3498 13.12C79.7338 13.12 79.1938 12.996 78.7298 12.748C78.2658 12.5 77.9018 12.132 77.6378 11.644C77.3818 11.156 77.2538 10.552 77.2538 9.832C77.2538 9.128 77.3698 8.524 77.6018 8.02C77.8418 7.516 78.1738 7.128 78.5978 6.856C79.0298 6.584 79.5298 6.448 80.0978 6.448ZM80.0858 7.312C79.5818 7.312 79.1818 7.476 78.8858 7.804C78.5978 8.124 78.4258 8.572 78.3698 9.148H81.6458C81.6378 8.604 81.5098 8.164 81.2618 7.828C81.0138 7.484 80.6218 7.312 80.0858 7.312ZM89.9792 9.772C89.9792 10.836 89.7072 11.66 89.1632 12.244C88.6272 12.828 87.8992 13.12 86.9792 13.12C86.4112 13.12 85.9032 12.992 85.4552 12.736C85.0152 12.472 84.6672 12.092 84.4112 11.596C84.1552 11.092 84.0272 10.484 84.0272 9.772C84.0272 8.708 84.2912 7.888 84.8192 7.312C85.3552 6.736 86.0872 6.448 87.0152 6.448C87.5912 6.448 88.1032 6.58 88.5512 6.844C88.9992 7.1 89.3472 7.476 89.5952 7.972C89.8512 8.46 89.9792 9.06 89.9792 9.772ZM85.1192 9.772C85.1192 10.532 85.2672 11.136 85.5632 11.584C85.8672 12.024 86.3472 12.244 87.0032 12.244C87.6512 12.244 88.1272 12.024 88.4312 11.584C88.7352 11.136 88.8872 10.532 88.8872 9.772C88.8872 9.012 88.7352 8.416 88.4312 7.984C88.1272 7.552 87.6472 7.336 86.9912 7.336C86.3352 7.336 85.8592 7.552 85.5632 7.984C85.2672 8.416 85.1192 9.012 85.1192 9.772ZM99.054 15.88V13.132C99.054 12.988 99.058 12.82 99.066 12.628C99.074 12.436 99.09 12.272 99.114 12.136H99.042C98.858 12.408 98.602 12.64 98.274 12.832C97.954 13.024 97.538 13.12 97.026 13.12C96.25 13.12 95.618 12.844 95.13 12.292C94.65 11.732 94.41 10.9 94.41 9.796C94.41 8.692 94.654 7.86 95.142 7.3C95.638 6.732 96.278 6.448 97.062 6.448C97.566 6.448 97.978 6.544 98.298 6.736C98.618 6.928 98.874 7.164 99.066 7.444H99.114L99.27 6.568H100.11V15.88H99.054ZM97.23 12.244C97.886 12.244 98.354 12.064 98.634 11.704C98.914 11.336 99.058 10.776 99.066 10.024V9.808C99.066 8.992 98.93 8.376 98.658 7.96C98.386 7.536 97.902 7.324 97.206 7.324C96.63 7.324 96.202 7.552 95.922 8.008C95.642 8.456 95.502 9.06 95.502 9.82C95.502 10.58 95.642 11.176 95.922 11.608C96.202 12.032 96.638 12.244 97.23 12.244ZM107.529 6.568V13H106.665L106.509 12.148H106.461C106.253 12.484 105.965 12.732 105.597 12.892C105.229 13.044 104.837 13.12 104.421 13.12C103.645 13.12 103.061 12.936 102.669 12.568C102.277 12.192 102.081 11.596 102.081 10.78V6.568H103.149V10.708C103.149 11.732 103.625 12.244 104.577 12.244C105.289 12.244 105.781 12.044 106.053 11.644C106.333 11.244 106.473 10.668 106.473 9.916V6.568H107.529ZM112.007 6.46C112.791 6.46 113.371 6.632 113.747 6.976C114.123 7.32 114.311 7.868 114.311 8.62V13H113.543L113.339 12.088H113.291C113.011 12.44 112.715 12.7 112.403 12.868C112.091 13.036 111.667 13.12 111.131 13.12C110.547 13.12 110.063 12.968 109.679 12.664C109.295 12.352 109.103 11.868 109.103 11.212C109.103 10.572 109.355 10.08 109.859 9.736C110.363 9.384 111.139 9.192 112.187 9.16L113.279 9.124V8.74C113.279 8.204 113.163 7.832 112.931 7.624C112.699 7.416 112.371 7.312 111.947 7.312C111.611 7.312 111.291 7.364 110.987 7.468C110.683 7.564 110.399 7.676 110.135 7.804L109.811 7.012C110.091 6.86 110.423 6.732 110.807 6.628C111.191 6.516 111.591 6.46 112.007 6.46ZM113.267 9.856L112.319 9.892C111.519 9.924 110.963 10.052 110.651 10.276C110.347 10.5 110.195 10.816 110.195 11.224C110.195 11.584 110.303 11.848 110.519 12.016C110.743 12.184 111.027 12.268 111.371 12.268C111.907 12.268 112.355 12.12 112.715 11.824C113.083 11.52 113.267 11.056 113.267 10.432V9.856ZM117.353 13H116.297V3.88H117.353V13ZM119.931 4.156C120.091 4.156 120.231 4.212 120.351 4.324C120.479 4.428 120.543 4.596 120.543 4.828C120.543 5.06 120.479 5.232 120.351 5.344C120.231 5.448 120.091 5.5 119.931 5.5C119.755 5.5 119.607 5.448 119.487 5.344C119.367 5.232 119.307 5.06 119.307 4.828C119.307 4.596 119.367 4.428 119.487 4.324C119.607 4.212 119.755 4.156 119.931 4.156ZM120.447 6.568V13H119.391V6.568H120.447ZM124.633 12.256C124.793 12.256 124.957 12.244 125.125 12.22C125.293 12.196 125.429 12.164 125.533 12.124V12.928C125.421 12.984 125.261 13.028 125.053 13.06C124.845 13.1 124.645 13.12 124.453 13.12C124.117 13.12 123.805 13.064 123.517 12.952C123.237 12.832 123.009 12.628 122.833 12.34C122.657 12.052 122.569 11.648 122.569 11.128V7.384H121.657V6.88L122.581 6.46L123.001 5.092H123.625V6.568H125.485V7.384H123.625V11.104C123.625 11.496 123.717 11.788 123.901 11.98C124.093 12.164 124.337 12.256 124.633 12.256ZM125.813 6.568H126.941L128.333 10.228C128.453 10.556 128.561 10.864 128.657 11.152C128.753 11.44 128.825 11.716 128.873 11.98H128.921C128.969 11.78 129.045 11.52 129.149 11.2C129.253 10.872 129.361 10.544 129.473 10.216L130.781 6.568H131.921L129.149 13.888C128.917 14.496 128.625 14.98 128.273 15.34C127.921 15.7 127.433 15.88 126.809 15.88C126.617 15.88 126.449 15.868 126.305 15.844C126.161 15.828 126.037 15.808 125.933 15.784V14.944C126.021 14.96 126.125 14.976 126.245 14.992C126.373 15.008 126.505 15.016 126.641 15.016C127.009 15.016 127.305 14.912 127.529 14.704C127.753 14.496 127.933 14.22 128.069 13.876L128.405 13.024L125.813 6.568ZM139.019 7.384H137.399V13H136.343V7.384H135.215V6.892L136.343 6.532V6.16C136.343 5.328 136.523 4.732 136.883 4.372C137.251 4.004 137.767 3.82 138.431 3.82C138.679 3.82 138.911 3.844 139.127 3.892C139.343 3.932 139.527 3.98 139.679 4.036L139.403 4.864C139.275 4.824 139.127 4.784 138.959 4.744C138.791 4.704 138.619 4.684 138.443 4.684C138.091 4.684 137.827 4.804 137.651 5.044C137.483 5.276 137.399 5.644 137.399 6.148V6.568H139.019V7.384ZM145.772 9.772C145.772 10.836 145.5 11.66 144.956 12.244C144.42 12.828 143.692 13.12 142.772 13.12C142.204 13.12 141.696 12.992 141.248 12.736C140.808 12.472 140.46 12.092 140.204 11.596C139.948 11.092 139.82 10.484 139.82 9.772C139.82 8.708 140.084 7.888 140.612 7.312C141.148 6.736 141.88 6.448 142.808 6.448C143.384 6.448 143.896 6.58 144.344 6.844C144.792 7.1 145.14 7.476 145.388 7.972C145.644 8.46 145.772 9.06 145.772 9.772ZM140.912 9.772C140.912 10.532 141.06 11.136 141.356 11.584C141.66 12.024 142.14 12.244 142.796 12.244C143.444 12.244 143.92 12.024 144.224 11.584C144.528 11.136 144.68 10.532 144.68 9.772C144.68 9.012 144.528 8.416 144.224 7.984C143.92 7.552 143.44 7.336 142.784 7.336C142.128 7.336 141.652 7.552 141.356 7.984C141.06 8.416 140.912 9.012 140.912 9.772ZM150.446 6.448C150.566 6.448 150.694 6.456 150.83 6.472C150.966 6.48 151.09 6.496 151.202 6.52L151.07 7.492C150.966 7.468 150.85 7.448 150.722 7.432C150.594 7.416 150.478 7.408 150.374 7.408C150.046 7.408 149.738 7.5 149.45 7.684C149.162 7.86 148.93 8.112 148.754 8.44C148.586 8.76 148.502 9.136 148.502 9.568V13H147.446V6.568H148.31L148.43 7.744H148.478C148.678 7.392 148.942 7.088 149.27 6.832C149.606 6.576 149.998 6.448 150.446 6.448ZM162.576 6.448C163.304 6.448 163.848 6.636 164.208 7.012C164.568 7.388 164.748 7.988 164.748 8.812V13H163.704V8.86C163.704 7.844 163.268 7.336 162.396 7.336C161.772 7.336 161.324 7.516 161.052 7.876C160.788 8.236 160.656 8.76 160.656 9.448V13H159.612V8.86C159.612 7.844 159.172 7.336 158.292 7.336C157.644 7.336 157.196 7.536 156.948 7.936C156.7 8.336 156.576 8.912 156.576 9.664V13H155.52V6.568H156.372L156.528 7.444H156.588C156.788 7.108 157.056 6.86 157.392 6.7C157.736 6.532 158.1 6.448 158.484 6.448C159.492 6.448 160.148 6.808 160.452 7.528H160.512C160.728 7.16 161.02 6.888 161.388 6.712C161.756 6.536 162.152 6.448 162.576 6.448ZM169.219 6.448C169.763 6.448 170.235 6.568 170.635 6.808C171.035 7.048 171.339 7.388 171.547 7.828C171.763 8.26 171.871 8.768 171.871 9.352V9.988H167.467C167.483 10.716 167.667 11.272 168.019 11.656C168.379 12.032 168.879 12.22 169.519 12.22C169.927 12.22 170.287 12.184 170.599 12.112C170.919 12.032 171.247 11.92 171.583 11.776V12.7C171.255 12.844 170.931 12.948 170.611 13.012C170.291 13.084 169.911 13.12 169.471 13.12C168.855 13.12 168.315 12.996 167.851 12.748C167.387 12.5 167.023 12.132 166.759 11.644C166.503 11.156 166.375 10.552 166.375 9.832C166.375 9.128 166.491 8.524 166.723 8.02C166.963 7.516 167.295 7.128 167.719 6.856C168.151 6.584 168.651 6.448 169.219 6.448ZM169.207 7.312C168.703 7.312 168.303 7.476 168.007 7.804C167.719 8.124 167.547 8.572 167.491 9.148H170.767C170.759 8.604 170.631 8.164 170.383 7.828C170.135 7.484 169.743 7.312 169.207 7.312ZM175.992 6.448C176.536 6.448 177.008 6.568 177.408 6.808C177.808 7.048 178.112 7.388 178.32 7.828C178.536 8.26 178.644 8.768 178.644 9.352V9.988H174.24C174.256 10.716 174.44 11.272 174.792 11.656C175.152 12.032 175.652 12.22 176.292 12.22C176.7 12.22 177.06 12.184 177.372 12.112C177.692 12.032 178.02 11.92 178.356 11.776V12.7C178.028 12.844 177.704 12.948 177.384 13.012C177.064 13.084 176.684 13.12 176.244 13.12C175.628 13.12 175.088 12.996 174.624 12.748C174.16 12.5 173.796 12.132 173.532 11.644C173.276 11.156 173.148 10.552 173.148 9.832C173.148 9.128 173.264 8.524 173.496 8.02C173.736 7.516 174.068 7.128 174.492 6.856C174.924 6.584 175.424 6.448 175.992 6.448ZM175.98 7.312C175.476 7.312 175.076 7.476 174.78 7.804C174.492 8.124 174.32 8.572 174.264 9.148H177.54C177.532 8.604 177.404 8.164 177.156 7.828C176.908 7.484 176.516 7.312 175.98 7.312ZM182.43 12.256C182.59 12.256 182.754 12.244 182.922 12.22C183.09 12.196 183.226 12.164 183.33 12.124V12.928C183.218 12.984 183.058 13.028 182.85 13.06C182.642 13.1 182.442 13.12 182.25 13.12C181.914 13.12 181.602 13.064 181.314 12.952C181.034 12.832 180.806 12.628 180.63 12.34C180.454 12.052 180.366 11.648 180.366 11.128V7.384H179.454V6.88L180.378 6.46L180.798 5.092H181.422V6.568H183.282V7.384H181.422V11.104C181.422 11.496 181.514 11.788 181.698 11.98C181.89 12.164 182.134 12.256 182.43 12.256ZM185.158 4.156C185.318 4.156 185.458 4.212 185.578 4.324C185.706 4.428 185.77 4.596 185.77 4.828C185.77 5.06 185.706 5.232 185.578 5.344C185.458 5.448 185.318 5.5 185.158 5.5C184.982 5.5 184.834 5.448 184.714 5.344C184.594 5.232 184.534 5.06 184.534 4.828C184.534 4.596 184.594 4.428 184.714 4.324C184.834 4.212 184.982 4.156 185.158 4.156ZM185.674 6.568V13H184.618V6.568H185.674ZM190.807 6.448C191.575 6.448 192.155 6.636 192.547 7.012C192.939 7.388 193.135 7.988 193.135 8.812V13H192.091V8.884C192.091 7.852 191.611 7.336 190.651 7.336C189.939 7.336 189.447 7.536 189.175 7.936C188.903 8.336 188.767 8.912 188.767 9.664V13H187.711V6.568H188.563L188.719 7.444H188.779C188.987 7.108 189.275 6.86 189.643 6.7C190.011 6.532 190.399 6.448 190.807 6.448ZM197.409 6.448C197.833 6.448 198.213 6.528 198.549 6.688C198.893 6.848 199.185 7.092 199.425 7.42H199.485L199.629 6.568H200.469V13.108C200.469 14.028 200.233 14.72 199.761 15.184C199.297 15.648 198.573 15.88 197.589 15.88C196.645 15.88 195.873 15.744 195.273 15.472V14.5C195.905 14.836 196.697 15.004 197.649 15.004C198.201 15.004 198.633 14.84 198.945 14.512C199.265 14.192 199.425 13.752 199.425 13.192V12.94C199.425 12.844 199.429 12.708 199.437 12.532C199.445 12.348 199.453 12.22 199.461 12.148H199.413C198.981 12.796 198.317 13.12 197.421 13.12C196.589 13.12 195.937 12.828 195.465 12.244C195.001 11.66 194.769 10.844 194.769 9.796C194.769 8.772 195.001 7.96 195.465 7.36C195.937 6.752 196.585 6.448 197.409 6.448ZM197.553 7.336C197.017 7.336 196.601 7.552 196.305 7.984C196.009 8.408 195.861 9.016 195.861 9.808C195.861 10.6 196.005 11.208 196.293 11.632C196.581 12.048 197.009 12.256 197.577 12.256C198.225 12.256 198.697 12.084 198.993 11.74C199.289 11.388 199.437 10.824 199.437 10.048V9.796C199.437 8.924 199.285 8.296 198.981 7.912C198.677 7.528 198.201 7.336 197.553 7.336Z" fill="black"/>
<circle cx="8" cy="34" r="7.5" fill="white" stroke="#1473E6"/>
<circle cx="8" cy="34" r="5" fill="#1473E6"/>
<path d="M25.904 39L30.006 30.124H24.616V29.004H31.322V29.956L27.262 39H25.904ZM39.2917 39H32.6837V37.978L35.3017 35.332C35.7964 34.828 36.2164 34.38 36.5617 33.988C36.9164 33.596 37.1824 33.2133 37.3597 32.84C37.5371 32.4667 37.6257 32.0513 37.6257 31.594C37.6257 31.0433 37.4624 30.628 37.1357 30.348C36.8091 30.0587 36.3844 29.914 35.8617 29.914C35.3671 29.914 34.9377 29.998 34.5737 30.166C34.2097 30.334 33.8364 30.5673 33.4537 30.866L32.7957 30.04C33.1877 29.7133 33.6357 29.438 34.1397 29.214C34.6531 28.9807 35.2271 28.864 35.8617 28.864C36.7951 28.864 37.5324 29.102 38.0737 29.578C38.6151 30.054 38.8857 30.7027 38.8857 31.524C38.8857 32.0467 38.7784 32.5367 38.5637 32.994C38.3491 33.4513 38.0504 33.904 37.6677 34.352C37.2851 34.8 36.8371 35.2713 36.3237 35.766L34.2377 37.824V37.88H39.2917V39ZM47.3454 33.988C47.3454 35.0707 47.2334 35.9947 47.0094 36.76C46.7854 37.5253 46.4261 38.1133 45.9314 38.524C45.4461 38.9347 44.8068 39.14 44.0134 39.14C42.8841 39.14 42.0488 38.6873 41.5074 37.782C40.9754 36.8673 40.7094 35.6027 40.7094 33.988C40.7094 32.9053 40.8168 31.9813 41.0314 31.216C41.2554 30.4507 41.6101 29.8673 42.0954 29.466C42.5808 29.0553 43.2201 28.85 44.0134 28.85C45.1334 28.85 45.9688 29.3027 46.5194 30.208C47.0701 31.104 47.3454 32.364 47.3454 33.988ZM41.9414 33.988C41.9414 35.36 42.0954 36.3867 42.4034 37.068C42.7208 37.7493 43.2574 38.09 44.0134 38.09C44.7601 38.09 45.2921 37.754 45.6094 37.082C45.9361 36.4007 46.0994 35.3693 46.0994 33.988C46.0994 32.6253 45.9361 31.6033 45.6094 30.922C45.2921 30.2407 44.7601 29.9 44.0134 29.9C43.2574 29.9 42.7208 30.2407 42.4034 30.922C42.0954 31.6033 41.9414 32.6253 41.9414 33.988ZM52.7952 31.356C53.7192 31.356 54.4612 31.678 55.0212 32.322C55.5905 32.966 55.8752 33.9367 55.8752 35.234C55.8752 36.5127 55.5905 37.4833 55.0212 38.146C54.4612 38.8087 53.7145 39.14 52.7812 39.14C52.2025 39.14 51.7218 39.0327 51.3392 38.818C50.9658 38.6033 50.6718 38.3467 50.4572 38.048H50.3732C50.3825 38.2067 50.3965 38.4073 50.4152 38.65C50.4432 38.8927 50.4572 39.1027 50.4572 39.28V42.36H49.2252V31.496H50.2332L50.4012 32.518H50.4572C50.6812 32.1913 50.9752 31.916 51.3392 31.692C51.7032 31.468 52.1885 31.356 52.7952 31.356ZM52.5712 32.392C51.8058 32.392 51.2645 32.6067 50.9472 33.036C50.6298 33.4653 50.4665 34.1187 50.4572 34.996V35.234C50.4572 36.158 50.6065 36.872 50.9052 37.376C51.2132 37.8707 51.7778 38.118 52.5992 38.118C53.0472 38.118 53.4205 37.9967 53.7192 37.754C54.0178 37.502 54.2372 37.1567 54.3772 36.718C54.5265 36.2793 54.6012 35.78 54.6012 35.22C54.6012 34.3613 54.4332 33.6753 54.0972 33.162C53.7705 32.6487 53.2618 32.392 52.5712 32.392Z" fill="black"/>
<circle cx="8" cy="62" r="7.5" fill="white" stroke="#1473E6"/>
<path d="M31.728 64.732H30.272V67H29.082V64.732H24.294V63.682L28.998 56.948H30.272V63.626H31.728V64.732ZM29.082 63.626V60.476C29.082 59.9907 29.0867 59.58 29.096 59.244C29.1147 58.8987 29.1333 58.572 29.152 58.264H29.096C29.0213 58.4413 28.928 58.6327 28.816 58.838C28.704 59.0433 28.5967 59.216 28.494 59.356L25.498 63.626H29.082ZM36.0017 56.864C36.8791 56.864 37.5977 57.0693 38.1577 57.48C38.7177 57.8907 38.9977 58.4833 38.9977 59.258C38.9977 59.6593 38.9091 60.0093 38.7317 60.308C38.5637 60.6067 38.3351 60.8727 38.0457 61.106C37.7564 61.33 37.4391 61.5307 37.0937 61.708C37.5044 61.9133 37.8777 62.1373 38.2137 62.38C38.5497 62.6227 38.8157 62.9073 39.0117 63.234C39.2171 63.5607 39.3197 63.9527 39.3197 64.41C39.3197 65.25 39.0211 65.9173 38.4237 66.412C37.8264 66.8973 37.0331 67.14 36.0437 67.14C34.9611 67.14 34.1304 66.9067 33.5517 66.44C32.9824 65.964 32.6977 65.3013 32.6977 64.452C32.6977 64.004 32.7911 63.612 32.9777 63.276C33.1737 62.9307 33.4304 62.6367 33.7477 62.394C34.0651 62.1513 34.4057 61.946 34.7697 61.778C34.2751 61.498 33.8597 61.162 33.5237 60.77C33.1877 60.3687 33.0197 59.86 33.0197 59.244C33.0197 58.74 33.1504 58.3107 33.4117 57.956C33.6731 57.6013 34.0277 57.3307 34.4757 57.144C34.9237 56.9573 35.4324 56.864 36.0017 56.864ZM35.9877 57.858C35.4651 57.858 35.0404 57.984 34.7137 58.236C34.3871 58.4787 34.2237 58.8333 34.2237 59.3C34.2237 59.6453 34.3031 59.9347 34.4617 60.168C34.6297 60.4013 34.8537 60.602 35.1337 60.77C35.4137 60.9287 35.7217 61.0827 36.0577 61.232C36.5431 61.0267 36.9491 60.7793 37.2757 60.49C37.6117 60.2007 37.7797 59.804 37.7797 59.3C37.7797 58.8333 37.6164 58.4787 37.2897 58.236C36.9631 57.984 36.5291 57.858 35.9877 57.858ZM33.9017 64.466C33.9017 64.9513 34.0744 65.3573 34.4197 65.684C34.7651 66.0013 35.2971 66.16 36.0157 66.16C36.6971 66.16 37.2151 66.0013 37.5697 65.684C37.9337 65.3573 38.1157 64.9373 38.1157 64.424C38.1157 63.9387 37.9244 63.5373 37.5417 63.22C37.1591 62.8933 36.6504 62.6087 36.0157 62.366L35.7917 62.282C35.1757 62.5527 34.7044 62.856 34.3777 63.192C34.0604 63.528 33.9017 63.9527 33.9017 64.466ZM47.3454 61.988C47.3454 63.0707 47.2334 63.9947 47.0094 64.76C46.7854 65.5253 46.4261 66.1133 45.9314 66.524C45.4461 66.9347 44.8068 67.14 44.0134 67.14C42.8841 67.14 42.0488 66.6873 41.5074 65.782C40.9754 64.8673 40.7094 63.6027 40.7094 61.988C40.7094 60.9053 40.8168 59.9813 41.0314 59.216C41.2554 58.4507 41.6101 57.8673 42.0954 57.466C42.5808 57.0553 43.2201 56.85 44.0134 56.85C45.1334 56.85 45.9688 57.3027 46.5194 58.208C47.0701 59.104 47.3454 60.364 47.3454 61.988ZM41.9414 61.988C41.9414 63.36 42.0954 64.3867 42.4034 65.068C42.7208 65.7493 43.2574 66.09 44.0134 66.09C44.7601 66.09 45.2921 65.754 45.6094 65.082C45.9361 64.4007 46.0994 63.3693 46.0994 61.988C46.0994 60.6253 45.9361 59.6033 45.6094 58.922C45.2921 58.2407 44.7601 57.9 44.0134 57.9C43.2574 57.9 42.7208 58.2407 42.4034 58.922C42.0954 59.6033 41.9414 60.6253 41.9414 61.988ZM52.7952 59.356C53.7192 59.356 54.4612 59.678 55.0212 60.322C55.5905 60.966 55.8752 61.9367 55.8752 63.234C55.8752 64.5127 55.5905 65.4833 55.0212 66.146C54.4612 66.8087 53.7145 67.14 52.7812 67.14C52.2025 67.14 51.7218 67.0327 51.3392 66.818C50.9658 66.6033 50.6718 66.3467 50.4572 66.048H50.3732C50.3825 66.2067 50.3965 66.4073 50.4152 66.65C50.4432 66.8927 50.4572 67.1027 50.4572 67.28V70.36H49.2252V59.496H50.2332L50.4012 60.518H50.4572C50.6812 60.1913 50.9752 59.916 51.3392 59.692C51.7032 59.468 52.1885 59.356 52.7952 59.356ZM52.5712 60.392C51.8058 60.392 51.2645 60.6067 50.9472 61.036C50.6298 61.4653 50.4665 62.1187 50.4572 62.996V63.234C50.4572 64.158 50.6065 64.872 50.9052 65.376C51.2132 65.8707 51.7778 66.118 52.5992 66.118C53.0472 66.118 53.4205 65.9967 53.7192 65.754C54.0178 65.502 54.2372 65.1567 54.3772 64.718C54.5265 64.2793 54.6012 63.78 54.6012 63.22C54.6012 62.3613 54.4332 61.6753 54.0972 61.162C53.7705 60.6487 53.2618 60.392 52.5712 60.392Z" fill="black"/>
<circle cx="8" cy="90" r="7.5" fill="white" stroke="#1473E6"/>
<path d="M30.902 87.342C30.902 88.014 30.7107 88.5507 30.328 88.952C29.9547 89.344 29.4553 89.6053 28.83 89.736V89.792C29.6233 89.8853 30.216 90.1373 30.608 90.548C31.0093 90.9587 31.21 91.4953 31.21 92.158C31.21 92.746 31.0747 93.264 30.804 93.712C30.5333 94.16 30.1133 94.51 29.544 94.762C28.984 95.014 28.2607 95.14 27.374 95.14C26.8513 95.14 26.366 95.098 25.918 95.014C25.47 94.9393 25.0407 94.7993 24.63 94.594V93.446C25.05 93.6607 25.5027 93.824 25.988 93.936C26.4733 94.048 26.94 94.104 27.388 94.104C28.284 94.104 28.928 93.9313 29.32 93.586C29.7213 93.2313 29.922 92.746 29.922 92.13C29.922 91.5047 29.6747 91.0567 29.18 90.786C28.6947 90.506 28.0087 90.366 27.122 90.366H26.156V89.316H27.136C27.9573 89.316 28.578 89.1433 28.998 88.798C29.4273 88.4527 29.642 87.9953 29.642 87.426C29.642 86.9407 29.4787 86.5673 29.152 86.306C28.8253 86.0353 28.382 85.9 27.822 85.9C27.2807 85.9 26.8187 85.9793 26.436 86.138C26.0533 86.2967 25.6753 86.4973 25.302 86.74L24.686 85.9C25.0407 85.62 25.4793 85.3773 26.002 85.172C26.534 84.9667 27.136 84.864 27.808 84.864C28.8533 84.864 29.628 85.0973 30.132 85.564C30.6453 86.0307 30.902 86.6233 30.902 87.342ZM32.7817 90.73C32.7817 90.0113 32.8424 89.3067 32.9637 88.616C33.0944 87.916 33.3231 87.286 33.6497 86.726C33.9857 86.1567 34.4524 85.704 35.0497 85.368C35.6471 85.032 36.4171 84.864 37.3597 84.864C37.5557 84.864 37.7704 84.8733 38.0037 84.892C38.2464 84.9107 38.4424 84.9433 38.5917 84.99V86.04C38.4237 85.984 38.2324 85.942 38.0177 85.914C37.8031 85.886 37.5931 85.872 37.3877 85.872C36.7437 85.872 36.2071 85.9793 35.7777 86.194C35.3484 86.4087 35.0077 86.7027 34.7557 87.076C34.5131 87.4493 34.3357 87.8787 34.2237 88.364C34.1117 88.8493 34.0417 89.3673 34.0137 89.918H34.0977C34.3124 89.5913 34.6111 89.316 34.9937 89.092C35.3764 88.8587 35.8664 88.742 36.4637 88.742C37.3317 88.742 38.0317 89.008 38.5637 89.54C39.0957 90.0627 39.3617 90.8093 39.3617 91.78C39.3617 92.8253 39.0724 93.6467 38.4937 94.244C37.9244 94.8413 37.1544 95.14 36.1837 95.14C35.5491 95.14 34.9751 94.9813 34.4617 94.664C33.9484 94.3467 33.5377 93.8613 33.2297 93.208C32.9311 92.5547 32.7817 91.7287 32.7817 90.73ZM36.1697 94.104C36.7577 94.104 37.2337 93.9173 37.5977 93.544C37.9617 93.1613 38.1437 92.5733 38.1437 91.78C38.1437 91.1453 37.9804 90.6413 37.6537 90.268C37.3364 89.8947 36.8557 89.708 36.2117 89.708C35.7731 89.708 35.3904 89.8013 35.0637 89.988C34.7371 90.1653 34.4804 90.3987 34.2937 90.688C34.1164 90.968 34.0277 91.2527 34.0277 91.542C34.0277 91.9433 34.1071 92.3447 34.2657 92.746C34.4244 93.138 34.6624 93.4647 34.9797 93.726C35.2971 93.978 35.6937 94.104 36.1697 94.104ZM47.3454 89.988C47.3454 91.0707 47.2334 91.9947 47.0094 92.76C46.7854 93.5253 46.4261 94.1133 45.9314 94.524C45.4461 94.9347 44.8068 95.14 44.0134 95.14C42.8841 95.14 42.0488 94.6873 41.5074 93.782C40.9754 92.8673 40.7094 91.6027 40.7094 89.988C40.7094 88.9053 40.8168 87.9813 41.0314 87.216C41.2554 86.4507 41.6101 85.8673 42.0954 85.466C42.5808 85.0553 43.2201 84.85 44.0134 84.85C45.1334 84.85 45.9688 85.3027 46.5194 86.208C47.0701 87.104 47.3454 88.364 47.3454 89.988ZM41.9414 89.988C41.9414 91.36 42.0954 92.3867 42.4034 93.068C42.7208 93.7493 43.2574 94.09 44.0134 94.09C44.7601 94.09 45.2921 93.754 45.6094 93.082C45.9361 92.4007 46.0994 91.3693 46.0994 89.988C46.0994 88.6253 45.9361 87.6033 45.6094 86.922C45.2921 86.2407 44.7601 85.9 44.0134 85.9C43.2574 85.9 42.7208 86.2407 42.4034 86.922C42.0954 87.6033 41.9414 88.6253 41.9414 89.988ZM52.7952 87.356C53.7192 87.356 54.4612 87.678 55.0212 88.322C55.5905 88.966 55.8752 89.9367 55.8752 91.234C55.8752 92.5127 55.5905 93.4833 55.0212 94.146C54.4612 94.8087 53.7145 95.14 52.7812 95.14C52.2025 95.14 51.7218 95.0327 51.3392 94.818C50.9658 94.6033 50.6718 94.3467 50.4572 94.048H50.3732C50.3825 94.2067 50.3965 94.4073 50.4152 94.65C50.4432 94.8927 50.4572 95.1027 50.4572 95.28V98.36H49.2252V87.496H50.2332L50.4012 88.518H50.4572C50.6812 88.1913 50.9752 87.916 51.3392 87.692C51.7032 87.468 52.1885 87.356 52.7952 87.356ZM52.5712 88.392C51.8058 88.392 51.2645 88.6067 50.9472 89.036C50.6298 89.4653 50.4665 90.1187 50.4572 90.996V91.234C50.4572 92.158 50.6065 92.872 50.9052 93.376C51.2132 93.8707 51.7778 94.118 52.5992 94.118C53.0472 94.118 53.4205 93.9967 53.7192 93.754C54.0178 93.502 54.2372 93.1567 54.3772 92.718C54.5265 92.2793 54.6012 91.78 54.6012 91.22C54.6012 90.3613 54.4332 89.6753 54.0972 89.162C53.7705 88.6487 53.2618 88.392 52.5712 88.392Z" fill="black"/>
<circle cx="8" cy="118" r="7.5" fill="white" stroke="#1473E6"/>
<path d="M31.63 123L30.426 119.906H26.464L25.274 123H24L27.906 112.962H29.04L32.932 123H31.63ZM30.048 118.786L28.928 115.762C28.9 115.687 28.8533 115.552 28.788 115.356C28.7227 115.16 28.6573 114.959 28.592 114.754C28.536 114.539 28.4893 114.376 28.452 114.264C28.3773 114.553 28.298 114.838 28.214 115.118C28.1393 115.389 28.074 115.603 28.018 115.762L26.884 118.786H30.048ZM40.4034 115.496V123H39.3954L39.2134 122.006H39.1574C38.9147 122.398 38.5787 122.687 38.1494 122.874C37.7201 123.051 37.2627 123.14 36.7774 123.14C35.8721 123.14 35.1907 122.925 34.7334 122.496C34.2761 122.057 34.0474 121.362 34.0474 120.41V115.496H35.2934V120.326C35.2934 121.521 35.8487 122.118 36.9594 122.118C37.7901 122.118 38.3641 121.885 38.6814 121.418C39.0081 120.951 39.1714 120.279 39.1714 119.402V115.496H40.4034ZM45.4457 123.14C44.5124 123.14 43.7657 122.818 43.2057 122.174C42.6457 121.521 42.3657 120.55 42.3657 119.262C42.3657 117.974 42.6457 117.003 43.2057 116.35C43.775 115.687 44.5264 115.356 45.4597 115.356C46.0384 115.356 46.5097 115.463 46.8737 115.678C47.247 115.893 47.5504 116.154 47.7837 116.462H47.8677C47.849 116.341 47.8304 116.163 47.8117 115.93C47.793 115.687 47.7837 115.496 47.7837 115.356V112.36H49.0157V123H48.0217L47.8397 121.992H47.7837C47.5597 122.309 47.261 122.58 46.8877 122.804C46.5144 123.028 46.0337 123.14 45.4457 123.14ZM45.6417 122.118C46.435 122.118 46.9904 121.903 47.3077 121.474C47.6344 121.035 47.7977 120.377 47.7977 119.5V119.276C47.7977 118.343 47.6437 117.629 47.3357 117.134C47.0277 116.63 46.4584 116.378 45.6277 116.378C44.965 116.378 44.4657 116.644 44.1297 117.176C43.803 117.699 43.6397 118.403 43.6397 119.29C43.6397 120.186 43.803 120.881 44.1297 121.376C44.4657 121.871 44.9697 122.118 45.6417 122.118ZM52.029 112.682C52.2157 112.682 52.379 112.747 52.519 112.878C52.6683 112.999 52.743 113.195 52.743 113.466C52.743 113.737 52.6683 113.937 52.519 114.068C52.379 114.189 52.2157 114.25 52.029 114.25C51.8237 114.25 51.651 114.189 51.511 114.068C51.371 113.937 51.301 113.737 51.301 113.466C51.301 113.195 51.371 112.999 51.511 112.878C51.651 112.747 51.8237 112.682 52.029 112.682ZM52.631 115.496V123H51.399V115.496H52.631ZM61.5324 119.234C61.5324 120.475 61.215 121.437 60.5804 122.118C59.955 122.799 59.1057 123.14 58.0324 123.14C57.3697 123.14 56.777 122.991 56.2544 122.692C55.741 122.384 55.335 121.941 55.0364 121.362C54.7377 120.774 54.5884 120.065 54.5884 119.234C54.5884 117.993 54.8964 117.036 55.5124 116.364C56.1377 115.692 56.9917 115.356 58.0744 115.356C58.7464 115.356 59.3437 115.51 59.8664 115.818C60.389 116.117 60.795 116.555 61.0844 117.134C61.383 117.703 61.5324 118.403 61.5324 119.234ZM55.8624 119.234C55.8624 120.121 56.035 120.825 56.3804 121.348C56.735 121.861 57.295 122.118 58.0604 122.118C58.8164 122.118 59.3717 121.861 59.7264 121.348C60.081 120.825 60.2584 120.121 60.2584 119.234C60.2584 118.347 60.081 117.652 59.7264 117.148C59.3717 116.644 58.8117 116.392 58.0464 116.392C57.281 116.392 56.7257 116.644 56.3804 117.148C56.035 117.652 55.8624 118.347 55.8624 119.234ZM73.6456 119.234C73.6456 120.475 73.3283 121.437 72.6936 122.118C72.0683 122.799 71.219 123.14 70.1456 123.14C69.483 123.14 68.8903 122.991 68.3676 122.692C67.8543 122.384 67.4483 121.941 67.1496 121.362C66.851 120.774 66.7016 120.065 66.7016 119.234C66.7016 117.993 67.0096 117.036 67.6256 116.364C68.251 115.692 69.105 115.356 70.1876 115.356C70.8596 115.356 71.457 115.51 71.9796 115.818C72.5023 116.117 72.9083 116.555 73.1976 117.134C73.4963 117.703 73.6456 118.403 73.6456 119.234ZM67.9756 119.234C67.9756 120.121 68.1483 120.825 68.4936 121.348C68.8483 121.861 69.4083 122.118 70.1736 122.118C70.9296 122.118 71.485 121.861 71.8396 121.348C72.1943 120.825 72.3716 120.121 72.3716 119.234C72.3716 118.347 72.1943 117.652 71.8396 117.148C71.485 116.644 70.925 116.392 70.1596 116.392C69.3943 116.392 68.839 116.644 68.4936 117.148C68.1483 117.652 67.9756 118.347 67.9756 119.234ZM79.2102 115.356C80.1062 115.356 80.7829 115.575 81.2402 116.014C81.6975 116.453 81.9262 117.153 81.9262 118.114V123H80.7082V118.198C80.7082 116.994 80.1482 116.392 79.0282 116.392C78.1975 116.392 77.6235 116.625 77.3062 117.092C76.9889 117.559 76.8302 118.231 76.8302 119.108V123H75.5982V115.496H76.5922L76.7742 116.518H76.8442C77.0869 116.126 77.4229 115.837 77.8522 115.65C78.2815 115.454 78.7342 115.356 79.2102 115.356ZM85.4845 123H84.2525V112.36H85.4845V123ZM86.6859 115.496H88.0019L89.6259 119.766C89.7659 120.149 89.8919 120.508 90.0039 120.844C90.1159 121.18 90.1999 121.502 90.2559 121.81H90.3119C90.3679 121.577 90.4565 121.273 90.5779 120.9C90.6992 120.517 90.8252 120.135 90.9559 119.752L92.4819 115.496H93.8119L90.5779 124.036C90.3072 124.745 89.9665 125.31 89.5559 125.73C89.1452 126.15 88.5759 126.36 87.8479 126.36C87.6239 126.36 87.4279 126.346 87.2599 126.318C87.0919 126.299 86.9472 126.276 86.8259 126.248V125.268C86.9285 125.287 87.0499 125.305 87.1899 125.324C87.3392 125.343 87.4932 125.352 87.6519 125.352C88.0812 125.352 88.4265 125.231 88.6879 124.988C88.9492 124.745 89.1592 124.423 89.3179 124.022L89.7099 123.028L86.6859 115.496Z" fill="black"/>
</svg>
