<svg width="196" height="324" viewBox="0 0 196 324" fill="none" xmlns="http://www.w3.org/2000/svg">
<path d="M17.008 26.244C17.008 25.8987 17.092 25.656 17.26 25.516C17.428 25.376 17.6287 25.306 17.862 25.306C18.0953 25.306 18.3007 25.376 18.478 25.516C18.6553 25.656 18.744 25.8987 18.744 26.244C18.744 26.58 18.6553 26.8227 18.478 26.972C18.3007 27.1213 18.0953 27.196 17.862 27.196C17.6287 27.196 17.428 27.1213 17.26 26.972C17.092 26.8227 17.008 26.58 17.008 26.244ZM20.7541 26.244C20.7541 25.8987 20.8381 25.656 21.0061 25.516C21.1741 25.376 21.3748 25.306 21.6081 25.306C21.8414 25.306 22.0468 25.376 22.2241 25.516C22.4014 25.656 22.4901 25.8987 22.4901 26.244C22.4901 26.58 22.4014 26.8227 22.2241 26.972C22.0468 27.1213 21.8414 27.196 21.6081 27.196C21.3748 27.196 21.1741 27.1213 21.0061 26.972C20.8381 26.8227 20.7541 26.58 20.7541 26.244ZM24.5002 26.244C24.5002 25.8987 24.5842 25.656 24.7522 25.516C24.9202 25.376 25.1209 25.306 25.3542 25.306C25.5875 25.306 25.7929 25.376 25.9702 25.516C26.1475 25.656 26.2362 25.8987 26.2362 26.244C26.2362 26.58 26.1475 26.8227 25.9702 26.972C25.7929 27.1213 25.5875 27.196 25.3542 27.196C25.1209 27.196 24.9202 27.1213 24.7522 26.972C24.5842 26.8227 24.5002 26.58 24.5002 26.244Z" fill="black"/>
<circle cx="24" cy="50" r="7.5" fill="white" stroke="#1473E6"/>
<path d="M48.96 45.004V51.472C48.96 52.1627 48.82 52.788 48.54 53.348C48.26 53.8987 47.8307 54.3373 47.252 54.664C46.6733 54.9813 45.9453 55.14 45.068 55.14C43.8173 55.14 42.87 54.804 42.226 54.132C41.582 53.4507 41.26 52.5547 41.26 51.444V45.004H42.52V51.486C42.52 52.298 42.7347 52.928 43.164 53.376C43.6027 53.824 44.2607 54.048 45.138 54.048C46.0433 54.048 46.6967 53.81 47.098 53.334C47.5087 52.8487 47.714 52.228 47.714 51.472V45.004H48.96ZM54.0902 47.356C54.5849 47.356 55.0282 47.4493 55.4202 47.636C55.8216 47.8227 56.1622 48.1073 56.4422 48.49H56.5122L56.6802 47.496H57.6602V55.126C57.6602 56.1993 57.3849 57.0067 56.8342 57.548C56.2929 58.0893 55.4482 58.36 54.3002 58.36C53.1989 58.36 52.2982 58.2013 51.5982 57.884V56.75C52.3356 57.142 53.2596 57.338 54.3702 57.338C55.0142 57.338 55.5182 57.1467 55.8822 56.764C56.2556 56.3907 56.4422 55.8773 56.4422 55.224V54.93C56.4422 54.818 56.4469 54.6593 56.4562 54.454C56.4656 54.2393 56.4749 54.09 56.4842 54.006H56.4282C55.9242 54.762 55.1496 55.14 54.1042 55.14C53.1336 55.14 52.3729 54.7993 51.8222 54.118C51.2809 53.4367 51.0102 52.4847 51.0102 51.262C51.0102 50.0673 51.2809 49.12 51.8222 48.42C52.3729 47.7107 53.1289 47.356 54.0902 47.356ZM54.2582 48.392C53.6329 48.392 53.1476 48.644 52.8022 49.148C52.4569 49.6427 52.2842 50.352 52.2842 51.276C52.2842 52.2 52.4522 52.9093 52.7882 53.404C53.1242 53.8893 53.6236 54.132 54.2862 54.132C55.0422 54.132 55.5929 53.9313 55.9382 53.53C56.2836 53.1193 56.4562 52.4613 56.4562 51.556V51.262C56.4562 50.2447 56.2789 49.512 55.9242 49.064C55.5696 48.616 55.0142 48.392 54.2582 48.392ZM62.8855 47.37C63.8002 47.37 64.4768 47.5707 64.9155 47.972C65.3542 48.3733 65.5735 49.0127 65.5735 49.89V55H64.6775L64.4395 53.936H64.3835C64.0568 54.3467 63.7115 54.65 63.3475 54.846C62.9835 55.042 62.4888 55.14 61.8635 55.14C61.1822 55.14 60.6175 54.9627 60.1695 54.608C59.7215 54.244 59.4975 53.6793 59.4975 52.914C59.4975 52.1673 59.7915 51.5933 60.3795 51.192C60.9675 50.7813 61.8728 50.5573 63.0955 50.52L64.3695 50.478V50.03C64.3695 49.4047 64.2342 48.9707 63.9635 48.728C63.6928 48.4853 63.3102 48.364 62.8155 48.364C62.4235 48.364 62.0502 48.4247 61.6955 48.546C61.3408 48.658 61.0095 48.7887 60.7015 48.938L60.3235 48.014C60.6502 47.8367 61.0375 47.6873 61.4855 47.566C61.9335 47.4353 62.4002 47.37 62.8855 47.37ZM64.3555 51.332L63.2495 51.374C62.3162 51.4113 61.6675 51.5607 61.3035 51.822C60.9488 52.0833 60.7715 52.452 60.7715 52.928C60.7715 53.348 60.8975 53.656 61.1495 53.852C61.4108 54.048 61.7422 54.146 62.1435 54.146C62.7688 54.146 63.2915 53.9733 63.7115 53.628C64.1408 53.2733 64.3555 52.732 64.3555 52.004V51.332ZM71.5032 47.356C72.3992 47.356 73.0758 47.5753 73.5332 48.014C73.9905 48.4527 74.2192 49.1527 74.2192 50.114V55H73.0012V50.198C73.0012 48.994 72.4412 48.392 71.3212 48.392C70.4905 48.392 69.9165 48.6253 69.5992 49.092C69.2818 49.5587 69.1232 50.2307 69.1232 51.108V55H67.8912V47.496H68.8852L69.0672 48.518H69.1372C69.3798 48.126 69.7158 47.8367 70.1452 47.65C70.5745 47.454 71.0272 47.356 71.5032 47.356ZM79.2055 55.14C78.2721 55.14 77.5255 54.818 76.9655 54.174C76.4055 53.5207 76.1255 52.55 76.1255 51.262C76.1255 49.974 76.4055 49.0033 76.9655 48.35C77.5348 47.6873 78.2861 47.356 79.2195 47.356C79.7981 47.356 80.2695 47.4633 80.6335 47.678C81.0068 47.8927 81.3101 48.154 81.5435 48.462H81.6275C81.6088 48.3407 81.5901 48.1633 81.5715 47.93C81.5528 47.6873 81.5435 47.496 81.5435 47.356V44.36H82.7755V55H81.7815L81.5995 53.992H81.5435C81.3195 54.3093 81.0208 54.58 80.6475 54.804C80.2741 55.028 79.7935 55.14 79.2055 55.14ZM79.4015 54.118C80.1948 54.118 80.7501 53.9033 81.0675 53.474C81.3941 53.0353 81.5575 52.3773 81.5575 51.5V51.276C81.5575 50.3427 81.4035 49.6287 81.0955 49.134C80.7875 48.63 80.2181 48.378 79.3875 48.378C78.7248 48.378 78.2255 48.644 77.8895 49.176C77.5628 49.6987 77.3995 50.4033 77.3995 51.29C77.3995 52.186 77.5628 52.8813 77.8895 53.376C78.2255 53.8707 78.7295 54.118 79.4015 54.118ZM88.0008 47.37C88.9154 47.37 89.5921 47.5707 90.0308 47.972C90.4694 48.3733 90.6888 49.0127 90.6888 49.89V55H89.7928L89.5548 53.936H89.4988C89.1721 54.3467 88.8268 54.65 88.4628 54.846C88.0988 55.042 87.6041 55.14 86.9788 55.14C86.2974 55.14 85.7328 54.9627 85.2848 54.608C84.8368 54.244 84.6128 53.6793 84.6128 52.914C84.6128 52.1673 84.9068 51.5933 85.4948 51.192C86.0828 50.7813 86.9881 50.5573 88.2108 50.52L89.4848 50.478V50.03C89.4848 49.4047 89.3494 48.9707 89.0788 48.728C88.8081 48.4853 88.4254 48.364 87.9308 48.364C87.5388 48.364 87.1654 48.4247 86.8108 48.546C86.4561 48.658 86.1248 48.7887 85.8167 48.938L85.4388 48.014C85.7654 47.8367 86.1528 47.6873 86.6008 47.566C87.0488 47.4353 87.5154 47.37 88.0008 47.37ZM89.4708 51.332L88.3648 51.374C87.4314 51.4113 86.7828 51.5607 86.4188 51.822C86.0641 52.0833 85.8868 52.452 85.8868 52.928C85.8868 53.348 86.0128 53.656 86.2648 53.852C86.5261 54.048 86.8574 54.146 87.2588 54.146C87.8841 54.146 88.4068 53.9733 88.8268 53.628C89.2561 53.2733 89.4708 52.732 89.4708 52.004V51.332Z" fill="black"/>
<circle cx="24" cy="78" r="7.5" fill="white" stroke="#1473E6"/>
<path d="M48.96 73.004V79.472C48.96 80.1627 48.82 80.788 48.54 81.348C48.26 81.8987 47.8307 82.3373 47.252 82.664C46.6733 82.9813 45.9453 83.14 45.068 83.14C43.8173 83.14 42.87 82.804 42.226 82.132C41.582 81.4507 41.26 80.5547 41.26 79.444V73.004H42.52V79.486C42.52 80.298 42.7347 80.928 43.164 81.376C43.6027 81.824 44.2607 82.048 45.138 82.048C46.0433 82.048 46.6967 81.81 47.098 81.334C47.5087 80.8487 47.714 80.228 47.714 79.472V73.004H48.96ZM52.6482 72.36V77.918C52.6482 78.0673 52.6389 78.2633 52.6202 78.506C52.6109 78.7487 52.6016 78.9587 52.5922 79.136H52.6482C52.7042 79.0613 52.7882 78.954 52.9002 78.814C53.0122 78.674 53.1242 78.534 53.2362 78.394C53.3576 78.2447 53.4602 78.1233 53.5442 78.03L55.9382 75.496H57.3802L54.3422 78.702L57.5902 83H56.1062L53.5022 79.5L52.6482 80.242V83H51.4302V72.36H52.6482ZM62.4088 75.356C62.5488 75.356 62.6981 75.3653 62.8568 75.384C63.0154 75.3933 63.1601 75.412 63.2908 75.44L63.1368 76.574C63.0154 76.546 62.8801 76.5227 62.7308 76.504C62.5814 76.4853 62.4461 76.476 62.3248 76.476C61.9421 76.476 61.5828 76.5833 61.2468 76.798C60.9108 77.0033 60.6401 77.2973 60.4348 77.68C60.2388 78.0533 60.1408 78.492 60.1408 78.996V83H58.9088V75.496H59.9168L60.0568 76.868H60.1128C60.3461 76.4573 60.6541 76.1027 61.0368 75.804C61.4288 75.5053 61.8861 75.356 62.4088 75.356ZM67.2605 75.37C68.1752 75.37 68.8518 75.5707 69.2905 75.972C69.7292 76.3733 69.9485 77.0127 69.9485 77.89V83H69.0525L68.8145 81.936H68.7585C68.4318 82.3467 68.0865 82.65 67.7225 82.846C67.3585 83.042 66.8638 83.14 66.2385 83.14C65.5572 83.14 64.9925 82.9627 64.5445 82.608C64.0965 82.244 63.8725 81.6793 63.8725 80.914C63.8725 80.1673 64.1665 79.5933 64.7545 79.192C65.3425 78.7813 66.2478 78.5573 67.4705 78.52L68.7445 78.478V78.03C68.7445 77.4047 68.6092 76.9707 68.3385 76.728C68.0678 76.4853 67.6852 76.364 67.1905 76.364C66.7985 76.364 66.4252 76.4247 66.0705 76.546C65.7158 76.658 65.3845 76.7887 65.0765 76.938L64.6985 76.014C65.0252 75.8367 65.4125 75.6873 65.8605 75.566C66.3085 75.4353 66.7752 75.37 67.2605 75.37ZM68.7305 79.332L67.6245 79.374C66.6912 79.4113 66.0425 79.5607 65.6785 79.822C65.3238 80.0833 65.1465 80.452 65.1465 80.928C65.1465 81.348 65.2725 81.656 65.5245 81.852C65.7858 82.048 66.1172 82.146 66.5185 82.146C67.1438 82.146 67.6665 81.9733 68.0865 81.628C68.5158 81.2733 68.7305 80.732 68.7305 80.004V79.332ZM72.8962 72.682C73.0828 72.682 73.2462 72.7473 73.3862 72.878C73.5355 72.9993 73.6102 73.1953 73.6102 73.466C73.6102 73.7367 73.5355 73.9373 73.3862 74.068C73.2462 74.1893 73.0828 74.25 72.8962 74.25C72.6908 74.25 72.5182 74.1893 72.3782 74.068C72.2382 73.9373 72.1682 73.7367 72.1682 73.466C72.1682 73.1953 72.2382 72.9993 72.3782 72.878C72.5182 72.7473 72.6908 72.682 72.8962 72.682ZM73.4982 75.496V83H72.2662V75.496H73.4982ZM79.4875 75.356C80.3835 75.356 81.0602 75.5753 81.5175 76.014C81.9749 76.4527 82.2035 77.1527 82.2035 78.114V83H80.9855V78.198C80.9855 76.994 80.4255 76.392 79.3055 76.392C78.4749 76.392 77.9009 76.6253 77.5835 77.092C77.2662 77.5587 77.1075 78.2307 77.1075 79.108V83H75.8755V75.496H76.8695L77.0515 76.518H77.1215C77.3642 76.126 77.7002 75.8367 78.1295 75.65C78.5589 75.454 79.0115 75.356 79.4875 75.356ZM87.4278 75.356C88.0625 75.356 88.6132 75.496 89.0798 75.776C89.5465 76.056 89.9012 76.4527 90.1438 76.966C90.3958 77.47 90.5218 78.0627 90.5218 78.744V79.486H85.3838C85.4025 80.3353 85.6172 80.984 86.0278 81.432C86.4478 81.8707 87.0312 82.09 87.7778 82.09C88.2538 82.09 88.6738 82.048 89.0378 81.964C89.4112 81.8707 89.7938 81.74 90.1858 81.572V82.65C89.8032 82.818 89.4252 82.9393 89.0518 83.014C88.6785 83.098 88.2352 83.14 87.7218 83.14C87.0032 83.14 86.3732 82.9953 85.8318 82.706C85.2905 82.4167 84.8658 81.9873 84.5578 81.418C84.2592 80.8487 84.1098 80.144 84.1098 79.304C84.1098 78.4827 84.2452 77.778 84.5158 77.19C84.7958 76.602 85.1832 76.1493 85.6778 75.832C86.1818 75.5147 86.7652 75.356 87.4278 75.356ZM87.4138 76.364C86.8258 76.364 86.3592 76.5553 86.0138 76.938C85.6778 77.3113 85.4772 77.834 85.4118 78.506H89.2338C89.2245 77.8713 89.0752 77.358 88.7858 76.966C88.4965 76.5647 88.0392 76.364 87.4138 76.364Z" fill="black"/>
<circle cx="24" cy="106" r="7.5" fill="white" stroke="#1473E6"/>
<path d="M48.96 101.004V107.472C48.96 108.163 48.82 108.788 48.54 109.348C48.26 109.899 47.8307 110.337 47.252 110.664C46.6733 110.981 45.9453 111.14 45.068 111.14C43.8173 111.14 42.87 110.804 42.226 110.132C41.582 109.451 41.26 108.555 41.26 107.444V101.004H42.52V107.486C42.52 108.298 42.7347 108.928 43.164 109.376C43.6027 109.824 44.2607 110.048 45.138 110.048C46.0433 110.048 46.6967 109.81 47.098 109.334C47.5087 108.849 47.714 108.228 47.714 107.472V101.004H48.96ZM55.0422 103.356C55.9382 103.356 56.6149 103.575 57.0722 104.014C57.5296 104.453 57.7582 105.153 57.7582 106.114V111H56.5402V106.198C56.5402 104.994 55.9802 104.392 54.8602 104.392C54.0296 104.392 53.4556 104.625 53.1382 105.092C52.8209 105.559 52.6622 106.231 52.6622 107.108V111H51.4302V103.496H52.4242L52.6062 104.518H52.6762C52.9189 104.126 53.2549 103.837 53.6842 103.65C54.1136 103.454 54.5662 103.356 55.0422 103.356ZM60.7145 100.682C60.9012 100.682 61.0645 100.747 61.2045 100.878C61.3539 100.999 61.4285 101.195 61.4285 101.466C61.4285 101.737 61.3539 101.937 61.2045 102.068C61.0645 102.189 60.9012 102.25 60.7145 102.25C60.5092 102.25 60.3365 102.189 60.1965 102.068C60.0565 101.937 59.9865 101.737 59.9865 101.466C59.9865 101.195 60.0565 100.999 60.1965 100.878C60.3365 100.747 60.5092 100.682 60.7145 100.682ZM61.3165 103.496V111H60.0845V103.496H61.3165ZM66.1999 110.132C66.3866 110.132 66.5779 110.118 66.7739 110.09C66.9699 110.062 67.1286 110.025 67.2499 109.978V110.916C67.1192 110.981 66.9326 111.033 66.6899 111.07C66.4472 111.117 66.2139 111.14 65.9899 111.14C65.5979 111.14 65.2339 111.075 64.8979 110.944C64.5712 110.804 64.3052 110.566 64.0999 110.23C63.8946 109.894 63.7919 109.423 63.7919 108.816V104.448H62.7279V103.86L63.8059 103.37L64.2959 101.774H65.0239V103.496H67.1939V104.448H65.0239V108.788C65.0239 109.245 65.1312 109.586 65.3459 109.81C65.5699 110.025 65.8546 110.132 66.1999 110.132ZM71.6505 103.356C72.2852 103.356 72.8358 103.496 73.3025 103.776C73.7692 104.056 74.1238 104.453 74.3665 104.966C74.6185 105.47 74.7445 106.063 74.7445 106.744V107.486H69.6065C69.6252 108.335 69.8398 108.984 70.2505 109.432C70.6705 109.871 71.2538 110.09 72.0005 110.09C72.4765 110.09 72.8965 110.048 73.2605 109.964C73.6338 109.871 74.0165 109.74 74.4085 109.572V110.65C74.0258 110.818 73.6478 110.939 73.2745 111.014C72.9012 111.098 72.4578 111.14 71.9445 111.14C71.2258 111.14 70.5958 110.995 70.0545 110.706C69.5132 110.417 69.0885 109.987 68.7805 109.418C68.4818 108.849 68.3325 108.144 68.3325 107.304C68.3325 106.483 68.4678 105.778 68.7385 105.19C69.0185 104.602 69.4058 104.149 69.9005 103.832C70.4045 103.515 70.9878 103.356 71.6505 103.356ZM71.6365 104.364C71.0485 104.364 70.5818 104.555 70.2365 104.938C69.9005 105.311 69.6998 105.834 69.6345 106.506H73.4565C73.4472 105.871 73.2978 105.358 73.0085 104.966C72.7192 104.565 72.2618 104.364 71.6365 104.364ZM79.3148 111.14C78.3815 111.14 77.6348 110.818 77.0748 110.174C76.5148 109.521 76.2348 108.55 76.2348 107.262C76.2348 105.974 76.5148 105.003 77.0748 104.35C77.6442 103.687 78.3955 103.356 79.3288 103.356C79.9075 103.356 80.3788 103.463 80.7428 103.678C81.1162 103.893 81.4195 104.154 81.6528 104.462H81.7368C81.7182 104.341 81.6995 104.163 81.6808 103.93C81.6622 103.687 81.6528 103.496 81.6528 103.356V100.36H82.8848V111H81.8908L81.7088 109.992H81.6528C81.4288 110.309 81.1302 110.58 80.7568 110.804C80.3835 111.028 79.9028 111.14 79.3148 111.14ZM79.5108 110.118C80.3042 110.118 80.8595 109.903 81.1768 109.474C81.5035 109.035 81.6668 108.377 81.6668 107.5V107.276C81.6668 106.343 81.5128 105.629 81.2048 105.134C80.8968 104.63 80.3275 104.378 79.4968 104.378C78.8342 104.378 78.3348 104.644 77.9988 105.176C77.6722 105.699 77.5088 106.403 77.5088 107.29C77.5088 108.186 77.6722 108.881 77.9988 109.376C78.3348 109.871 78.8388 110.118 79.5108 110.118ZM96.3808 111H94.8968L91.3548 106.226L90.3328 107.122V111H89.0728V101.004H90.3328V105.932C90.6128 105.615 90.8975 105.297 91.1868 104.98C91.4762 104.663 91.7655 104.345 92.0548 104.028L94.7568 101.004H96.2268L92.2648 105.358L96.3808 111ZM98.2028 100.682C98.3895 100.682 98.5528 100.747 98.6928 100.878C98.8421 100.999 98.9168 101.195 98.9168 101.466C98.9168 101.737 98.8421 101.937 98.6928 102.068C98.5528 102.189 98.3895 102.25 98.2028 102.25C97.9975 102.25 97.8248 102.189 97.6848 102.068C97.5448 101.937 97.4748 101.737 97.4748 101.466C97.4748 101.195 97.5448 100.999 97.6848 100.878C97.8248 100.747 97.9975 100.682 98.2028 100.682ZM98.8048 103.496V111H97.5728V103.496H98.8048ZM104.794 103.356C105.69 103.356 106.367 103.575 106.824 104.014C107.282 104.453 107.51 105.153 107.51 106.114V111H106.292V106.198C106.292 104.994 105.732 104.392 104.612 104.392C103.782 104.392 103.208 104.625 102.89 105.092C102.573 105.559 102.414 106.231 102.414 107.108V111H101.182V103.496H102.176L102.358 104.518H102.428C102.671 104.126 103.007 103.837 103.436 103.65C103.866 103.454 104.318 103.356 104.794 103.356ZM112.496 103.356C112.991 103.356 113.434 103.449 113.826 103.636C114.228 103.823 114.568 104.107 114.848 104.49H114.918L115.086 103.496H116.066V111.126C116.066 112.199 115.791 113.007 115.24 113.548C114.699 114.089 113.854 114.36 112.706 114.36C111.605 114.36 110.704 114.201 110.004 113.884V112.75C110.742 113.142 111.666 113.338 112.776 113.338C113.42 113.338 113.924 113.147 114.288 112.764C114.662 112.391 114.848 111.877 114.848 111.224V110.93C114.848 110.818 114.853 110.659 114.862 110.454C114.872 110.239 114.881 110.09 114.89 110.006H114.834C114.33 110.762 113.556 111.14 112.51 111.14C111.54 111.14 110.779 110.799 110.228 110.118C109.687 109.437 109.416 108.485 109.416 107.262C109.416 106.067 109.687 105.12 110.228 104.42C110.779 103.711 111.535 103.356 112.496 103.356ZM112.664 104.392C112.039 104.392 111.554 104.644 111.208 105.148C110.863 105.643 110.69 106.352 110.69 107.276C110.69 108.2 110.858 108.909 111.194 109.404C111.53 109.889 112.03 110.132 112.692 110.132C113.448 110.132 113.999 109.931 114.344 109.53C114.69 109.119 114.862 108.461 114.862 107.556V107.262C114.862 106.245 114.685 105.512 114.33 105.064C113.976 104.616 113.42 104.392 112.664 104.392ZM121.11 111.14C120.176 111.14 119.43 110.818 118.87 110.174C118.31 109.521 118.03 108.55 118.03 107.262C118.03 105.974 118.31 105.003 118.87 104.35C119.439 103.687 120.19 103.356 121.124 103.356C121.702 103.356 122.174 103.463 122.538 103.678C122.911 103.893 123.214 104.154 123.448 104.462H123.532C123.513 104.341 123.494 104.163 123.476 103.93C123.457 103.687 123.448 103.496 123.448 103.356V100.36H124.68V111H123.686L123.504 109.992H123.448C123.224 110.309 122.925 110.58 122.552 110.804C122.178 111.028 121.698 111.14 121.11 111.14ZM121.306 110.118C122.099 110.118 122.654 109.903 122.972 109.474C123.298 109.035 123.462 108.377 123.462 107.5V107.276C123.462 106.343 123.308 105.629 123 105.134C122.692 104.63 122.122 104.378 121.292 104.378C120.629 104.378 120.13 104.644 119.794 105.176C119.467 105.699 119.304 106.403 119.304 107.29C119.304 108.186 119.467 108.881 119.794 109.376C120.13 109.871 120.634 110.118 121.306 110.118ZM133.587 107.234C133.587 108.475 133.27 109.437 132.635 110.118C132.01 110.799 131.16 111.14 130.087 111.14C129.424 111.14 128.832 110.991 128.309 110.692C127.796 110.384 127.39 109.941 127.091 109.362C126.792 108.774 126.643 108.065 126.643 107.234C126.643 105.993 126.951 105.036 127.567 104.364C128.192 103.692 129.046 103.356 130.129 103.356C130.801 103.356 131.398 103.51 131.921 103.818C132.444 104.117 132.85 104.555 133.139 105.134C133.438 105.703 133.587 106.403 133.587 107.234ZM127.917 107.234C127.917 108.121 128.09 108.825 128.435 109.348C128.79 109.861 129.35 110.118 130.115 110.118C130.871 110.118 131.426 109.861 131.781 109.348C132.136 108.825 132.313 108.121 132.313 107.234C132.313 106.347 132.136 105.652 131.781 105.148C131.426 104.644 130.866 104.392 130.101 104.392C129.336 104.392 128.78 104.644 128.435 105.148C128.09 105.652 127.917 106.347 127.917 107.234ZM143.772 103.356C144.621 103.356 145.256 103.575 145.676 104.014C146.096 104.453 146.306 105.153 146.306 106.114V111H145.088V106.17C145.088 104.985 144.579 104.392 143.562 104.392C142.834 104.392 142.311 104.602 141.994 105.022C141.686 105.442 141.532 106.053 141.532 106.856V111H140.314V106.17C140.314 104.985 139.8 104.392 138.774 104.392C138.018 104.392 137.495 104.625 137.206 105.092C136.916 105.559 136.772 106.231 136.772 107.108V111H135.54V103.496H136.534L136.716 104.518H136.786C137.019 104.126 137.332 103.837 137.724 103.65C138.125 103.454 138.55 103.356 138.998 103.356C140.174 103.356 140.939 103.776 141.294 104.616H141.364C141.616 104.187 141.956 103.869 142.386 103.664C142.815 103.459 143.277 103.356 143.772 103.356Z" fill="black"/>
<circle cx="24" cy="134" r="7.5" fill="white" stroke="#1473E6"/>
<path d="M48.96 129.004V135.472C48.96 136.163 48.82 136.788 48.54 137.348C48.26 137.899 47.8307 138.337 47.252 138.664C46.6733 138.981 45.9453 139.14 45.068 139.14C43.8173 139.14 42.87 138.804 42.226 138.132C41.582 137.451 41.26 136.555 41.26 135.444V129.004H42.52V135.486C42.52 136.298 42.7347 136.928 43.164 137.376C43.6027 137.824 44.2607 138.048 45.138 138.048C46.0433 138.048 46.6967 137.81 47.098 137.334C47.5087 136.849 47.714 136.228 47.714 135.472V129.004H48.96ZM52.6482 128.36V133.918C52.6482 134.067 52.6389 134.263 52.6202 134.506C52.6109 134.749 52.6016 134.959 52.5922 135.136H52.6482C52.7042 135.061 52.7882 134.954 52.9002 134.814C53.0122 134.674 53.1242 134.534 53.2362 134.394C53.3576 134.245 53.4602 134.123 53.5442 134.03L55.9382 131.496H57.3802L54.3422 134.702L57.5902 139H56.1062L53.5022 135.5L52.6482 136.242V139H51.4302V128.36H52.6482ZM62.4088 131.356C62.5488 131.356 62.6981 131.365 62.8568 131.384C63.0154 131.393 63.1601 131.412 63.2908 131.44L63.1368 132.574C63.0154 132.546 62.8801 132.523 62.7308 132.504C62.5814 132.485 62.4461 132.476 62.3248 132.476C61.9421 132.476 61.5828 132.583 61.2468 132.798C60.9108 133.003 60.6401 133.297 60.4348 133.68C60.2388 134.053 60.1408 134.492 60.1408 134.996V139H58.9088V131.496H59.9168L60.0568 132.868H60.1128C60.3461 132.457 60.6541 132.103 61.0368 131.804C61.4288 131.505 61.8861 131.356 62.4088 131.356ZM67.2605 131.37C68.1752 131.37 68.8518 131.571 69.2905 131.972C69.7292 132.373 69.9485 133.013 69.9485 133.89V139H69.0525L68.8145 137.936H68.7585C68.4318 138.347 68.0865 138.65 67.7225 138.846C67.3585 139.042 66.8638 139.14 66.2385 139.14C65.5572 139.14 64.9925 138.963 64.5445 138.608C64.0965 138.244 63.8725 137.679 63.8725 136.914C63.8725 136.167 64.1665 135.593 64.7545 135.192C65.3425 134.781 66.2478 134.557 67.4705 134.52L68.7445 134.478V134.03C68.7445 133.405 68.6092 132.971 68.3385 132.728C68.0678 132.485 67.6852 132.364 67.1905 132.364C66.7985 132.364 66.4252 132.425 66.0705 132.546C65.7158 132.658 65.3845 132.789 65.0765 132.938L64.6985 132.014C65.0252 131.837 65.4125 131.687 65.8605 131.566C66.3085 131.435 66.7752 131.37 67.2605 131.37ZM68.7305 135.332L67.6245 135.374C66.6912 135.411 66.0425 135.561 65.6785 135.822C65.3238 136.083 65.1465 136.452 65.1465 136.928C65.1465 137.348 65.2725 137.656 65.5245 137.852C65.7858 138.048 66.1172 138.146 66.5185 138.146C67.1438 138.146 67.6665 137.973 68.0865 137.628C68.5158 137.273 68.7305 136.732 68.7305 136.004V135.332ZM72.8962 128.682C73.0828 128.682 73.2462 128.747 73.3862 128.878C73.5355 128.999 73.6102 129.195 73.6102 129.466C73.6102 129.737 73.5355 129.937 73.3862 130.068C73.2462 130.189 73.0828 130.25 72.8962 130.25C72.6908 130.25 72.5182 130.189 72.3782 130.068C72.2382 129.937 72.1682 129.737 72.1682 129.466C72.1682 129.195 72.2382 128.999 72.3782 128.878C72.5182 128.747 72.6908 128.682 72.8962 128.682ZM73.4982 131.496V139H72.2662V131.496H73.4982ZM79.4875 131.356C80.3835 131.356 81.0602 131.575 81.5175 132.014C81.9749 132.453 82.2035 133.153 82.2035 134.114V139H80.9855V134.198C80.9855 132.994 80.4255 132.392 79.3055 132.392C78.4749 132.392 77.9009 132.625 77.5835 133.092C77.2662 133.559 77.1075 134.231 77.1075 135.108V139H75.8755V131.496H76.8695L77.0515 132.518H77.1215C77.3642 132.126 77.7002 131.837 78.1295 131.65C78.5589 131.454 79.0115 131.356 79.4875 131.356ZM87.4278 131.356C88.0625 131.356 88.6132 131.496 89.0798 131.776C89.5465 132.056 89.9012 132.453 90.1438 132.966C90.3958 133.47 90.5218 134.063 90.5218 134.744V135.486H85.3838C85.4025 136.335 85.6172 136.984 86.0278 137.432C86.4478 137.871 87.0312 138.09 87.7778 138.09C88.2538 138.09 88.6738 138.048 89.0378 137.964C89.4112 137.871 89.7938 137.74 90.1858 137.572V138.65C89.8032 138.818 89.4252 138.939 89.0518 139.014C88.6785 139.098 88.2352 139.14 87.7218 139.14C87.0032 139.14 86.3732 138.995 85.8318 138.706C85.2905 138.417 84.8658 137.987 84.5578 137.418C84.2592 136.849 84.1098 136.144 84.1098 135.304C84.1098 134.483 84.2452 133.778 84.5158 133.19C84.7958 132.602 85.1832 132.149 85.6778 131.832C86.1818 131.515 86.7652 131.356 87.4278 131.356ZM87.4138 132.364C86.8258 132.364 86.3592 132.555 86.0138 132.938C85.6778 133.311 85.4772 133.834 85.4118 134.506H89.2338C89.2245 133.871 89.0752 133.358 88.7858 132.966C88.4965 132.565 88.0392 132.364 87.4138 132.364Z" fill="black"/>
<circle cx="24" cy="162" r="7.5" fill="white" stroke="#1473E6"/>
<path d="M48.96 157.004V163.472C48.96 164.163 48.82 164.788 48.54 165.348C48.26 165.899 47.8307 166.337 47.252 166.664C46.6733 166.981 45.9453 167.14 45.068 167.14C43.8173 167.14 42.87 166.804 42.226 166.132C41.582 165.451 41.26 164.555 41.26 163.444V157.004H42.52V163.486C42.52 164.298 42.7347 164.928 43.164 165.376C43.6027 165.824 44.2607 166.048 45.138 166.048C46.0433 166.048 46.6967 165.81 47.098 165.334C47.5087 164.849 47.714 164.228 47.714 163.472V157.004H48.96ZM55.0422 159.356C55.9382 159.356 56.6149 159.575 57.0722 160.014C57.5296 160.453 57.7582 161.153 57.7582 162.114V167H56.5402V162.198C56.5402 160.994 55.9802 160.392 54.8602 160.392C54.0296 160.392 53.4556 160.625 53.1382 161.092C52.8209 161.559 52.6622 162.231 52.6622 163.108V167H51.4302V159.496H52.4242L52.6062 160.518H52.6762C52.9189 160.126 53.2549 159.837 53.6842 159.65C54.1136 159.454 54.5662 159.356 55.0422 159.356ZM60.7145 156.682C60.9012 156.682 61.0645 156.747 61.2045 156.878C61.3539 156.999 61.4285 157.195 61.4285 157.466C61.4285 157.737 61.3539 157.937 61.2045 158.068C61.0645 158.189 60.9012 158.25 60.7145 158.25C60.5092 158.25 60.3365 158.189 60.1965 158.068C60.0565 157.937 59.9865 157.737 59.9865 157.466C59.9865 157.195 60.0565 156.999 60.1965 156.878C60.3365 156.747 60.5092 156.682 60.7145 156.682ZM61.3165 159.496V167H60.0845V159.496H61.3165ZM66.1999 166.132C66.3866 166.132 66.5779 166.118 66.7739 166.09C66.9699 166.062 67.1286 166.025 67.2499 165.978V166.916C67.1192 166.981 66.9326 167.033 66.6899 167.07C66.4472 167.117 66.2139 167.14 65.9899 167.14C65.5979 167.14 65.2339 167.075 64.8979 166.944C64.5712 166.804 64.3052 166.566 64.0999 166.23C63.8946 165.894 63.7919 165.423 63.7919 164.816V160.448H62.7279V159.86L63.8059 159.37L64.2959 157.774H65.0239V159.496H67.1939V160.448H65.0239V164.788C65.0239 165.245 65.1312 165.586 65.3459 165.81C65.5699 166.025 65.8546 166.132 66.1999 166.132ZM71.6505 159.356C72.2852 159.356 72.8358 159.496 73.3025 159.776C73.7692 160.056 74.1238 160.453 74.3665 160.966C74.6185 161.47 74.7445 162.063 74.7445 162.744V163.486H69.6065C69.6252 164.335 69.8398 164.984 70.2505 165.432C70.6705 165.871 71.2538 166.09 72.0005 166.09C72.4765 166.09 72.8965 166.048 73.2605 165.964C73.6338 165.871 74.0165 165.74 74.4085 165.572V166.65C74.0258 166.818 73.6478 166.939 73.2745 167.014C72.9012 167.098 72.4578 167.14 71.9445 167.14C71.2258 167.14 70.5958 166.995 70.0545 166.706C69.5132 166.417 69.0885 165.987 68.7805 165.418C68.4818 164.849 68.3325 164.144 68.3325 163.304C68.3325 162.483 68.4678 161.778 68.7385 161.19C69.0185 160.602 69.4058 160.149 69.9005 159.832C70.4045 159.515 70.9878 159.356 71.6505 159.356ZM71.6365 160.364C71.0485 160.364 70.5818 160.555 70.2365 160.938C69.9005 161.311 69.6998 161.834 69.6345 162.506H73.4565C73.4472 161.871 73.2978 161.358 73.0085 160.966C72.7192 160.565 72.2618 160.364 71.6365 160.364ZM79.3148 167.14C78.3815 167.14 77.6348 166.818 77.0748 166.174C76.5148 165.521 76.2348 164.55 76.2348 163.262C76.2348 161.974 76.5148 161.003 77.0748 160.35C77.6442 159.687 78.3955 159.356 79.3288 159.356C79.9075 159.356 80.3788 159.463 80.7428 159.678C81.1162 159.893 81.4195 160.154 81.6528 160.462H81.7368C81.7182 160.341 81.6995 160.163 81.6808 159.93C81.6622 159.687 81.6528 159.496 81.6528 159.356V156.36H82.8848V167H81.8908L81.7088 165.992H81.6528C81.4288 166.309 81.1302 166.58 80.7568 166.804C80.3835 167.028 79.9028 167.14 79.3148 167.14ZM79.5108 166.118C80.3042 166.118 80.8595 165.903 81.1768 165.474C81.5035 165.035 81.6668 164.377 81.6668 163.5V163.276C81.6668 162.343 81.5128 161.629 81.2048 161.134C80.8968 160.63 80.3275 160.378 79.4968 160.378C78.8342 160.378 78.3348 160.644 77.9988 161.176C77.6722 161.699 77.5088 162.403 77.5088 163.29C77.5088 164.186 77.6722 164.881 77.9988 165.376C78.3348 165.871 78.8388 166.118 79.5108 166.118ZM95.3448 167L94.1408 163.906H90.1788L88.9888 167H87.7148L91.6208 156.962H92.7548L96.6468 167H95.3448ZM93.7628 162.786L92.6428 159.762C92.6148 159.687 92.5682 159.552 92.5028 159.356C92.4375 159.16 92.3722 158.959 92.3068 158.754C92.2508 158.539 92.2042 158.376 92.1668 158.264C92.0922 158.553 92.0128 158.838 91.9288 159.118C91.8542 159.389 91.7888 159.603 91.7328 159.762L90.5988 162.786H93.7628ZM101.346 159.356C101.486 159.356 101.636 159.365 101.794 159.384C101.953 159.393 102.098 159.412 102.228 159.44L102.074 160.574C101.953 160.546 101.818 160.523 101.668 160.504C101.519 160.485 101.384 160.476 101.262 160.476C100.88 160.476 100.52 160.583 100.184 160.798C99.8483 161.003 99.5776 161.297 99.3723 161.68C99.1763 162.053 99.0783 162.492 99.0783 162.996V167H97.8463V159.496H98.8543L98.9943 160.868H99.0503C99.2836 160.457 99.5916 160.103 99.9743 159.804C100.366 159.505 100.824 159.356 101.346 159.356ZM106.198 159.37C107.113 159.37 107.789 159.571 108.228 159.972C108.667 160.373 108.886 161.013 108.886 161.89V167H107.99L107.752 165.936H107.696C107.369 166.347 107.024 166.65 106.66 166.846C106.296 167.042 105.801 167.14 105.176 167.14C104.495 167.14 103.93 166.963 103.482 166.608C103.034 166.244 102.81 165.679 102.81 164.914C102.81 164.167 103.104 163.593 103.692 163.192C104.28 162.781 105.185 162.557 106.408 162.52L107.682 162.478V162.03C107.682 161.405 107.547 160.971 107.276 160.728C107.005 160.485 106.623 160.364 106.128 160.364C105.736 160.364 105.363 160.425 105.008 160.546C104.653 160.658 104.322 160.789 104.014 160.938L103.636 160.014C103.963 159.837 104.35 159.687 104.798 159.566C105.246 159.435 105.713 159.37 106.198 159.37ZM107.668 163.332L106.562 163.374C105.629 163.411 104.98 163.561 104.616 163.822C104.261 164.083 104.084 164.452 104.084 164.928C104.084 165.348 104.21 165.656 104.462 165.852C104.723 166.048 105.055 166.146 105.456 166.146C106.081 166.146 106.604 165.973 107.024 165.628C107.453 165.273 107.668 164.732 107.668 164.004V163.332ZM112.436 156.36V158.95C112.436 159.267 112.426 159.566 112.408 159.846C112.398 160.117 112.384 160.331 112.366 160.49H112.436C112.65 160.173 112.944 159.907 113.318 159.692C113.691 159.477 114.172 159.37 114.76 159.37C115.693 159.37 116.44 159.697 117 160.35C117.569 160.994 117.854 161.96 117.854 163.248C117.854 164.536 117.569 165.507 117 166.16C116.43 166.813 115.684 167.14 114.76 167.14C114.172 167.14 113.691 167.033 113.318 166.818C112.944 166.603 112.65 166.347 112.436 166.048H112.338L112.086 167H111.204V156.36H112.436ZM114.55 160.392C113.747 160.392 113.192 160.621 112.884 161.078C112.585 161.535 112.436 162.245 112.436 163.206V163.262C112.436 164.186 112.585 164.895 112.884 165.39C113.192 165.875 113.756 166.118 114.578 166.118C115.25 166.118 115.749 165.871 116.076 165.376C116.412 164.881 116.58 164.167 116.58 163.234C116.58 161.339 115.903 160.392 114.55 160.392ZM129.208 167H123.622V157.004H129.208V158.11H124.882V161.232H128.956V162.324H124.882V165.894H129.208V167ZM139.465 159.356C140.314 159.356 140.949 159.575 141.369 160.014C141.789 160.453 141.999 161.153 141.999 162.114V167H140.781V162.17C140.781 160.985 140.272 160.392 139.255 160.392C138.527 160.392 138.004 160.602 137.687 161.022C137.379 161.442 137.225 162.053 137.225 162.856V167H136.007V162.17C136.007 160.985 135.494 160.392 134.467 160.392C133.711 160.392 133.188 160.625 132.899 161.092C132.61 161.559 132.465 162.231 132.465 163.108V167H131.233V159.496H132.227L132.409 160.518H132.479C132.712 160.126 133.025 159.837 133.417 159.65C133.818 159.454 134.243 159.356 134.691 159.356C135.867 159.356 136.632 159.776 136.987 160.616H137.057C137.309 160.187 137.65 159.869 138.079 159.664C138.508 159.459 138.97 159.356 139.465 159.356ZM144.947 156.682C145.134 156.682 145.297 156.747 145.437 156.878C145.586 156.999 145.661 157.195 145.661 157.466C145.661 157.737 145.586 157.937 145.437 158.068C145.297 158.189 145.134 158.25 144.947 158.25C144.742 158.25 144.569 158.189 144.429 158.068C144.289 157.937 144.219 157.737 144.219 157.466C144.219 157.195 144.289 156.999 144.429 156.878C144.569 156.747 144.742 156.682 144.947 156.682ZM145.549 159.496V167H144.317V159.496H145.549ZM151.426 159.356C151.566 159.356 151.716 159.365 151.874 159.384C152.033 159.393 152.178 159.412 152.308 159.44L152.154 160.574C152.033 160.546 151.898 160.523 151.748 160.504C151.599 160.485 151.464 160.476 151.342 160.476C150.96 160.476 150.6 160.583 150.264 160.798C149.928 161.003 149.658 161.297 149.452 161.68C149.256 162.053 149.158 162.492 149.158 162.996V167H147.926V159.496H148.934L149.074 160.868H149.13C149.364 160.457 149.672 160.103 150.054 159.804C150.446 159.505 150.904 159.356 151.426 159.356ZM156.278 159.37C157.193 159.37 157.869 159.571 158.308 159.972C158.747 160.373 158.966 161.013 158.966 161.89V167H158.07L157.832 165.936H157.776C157.449 166.347 157.104 166.65 156.74 166.846C156.376 167.042 155.881 167.14 155.256 167.14C154.575 167.14 154.01 166.963 153.562 166.608C153.114 166.244 152.89 165.679 152.89 164.914C152.89 164.167 153.184 163.593 153.772 163.192C154.36 162.781 155.265 162.557 156.488 162.52L157.762 162.478V162.03C157.762 161.405 157.627 160.971 157.356 160.728C157.085 160.485 156.703 160.364 156.208 160.364C155.816 160.364 155.443 160.425 155.088 160.546C154.733 160.658 154.402 160.789 154.094 160.938L153.716 160.014C154.043 159.837 154.43 159.687 154.878 159.566C155.326 159.435 155.793 159.37 156.278 159.37ZM157.748 163.332L156.642 163.374C155.709 163.411 155.06 163.561 154.696 163.822C154.341 164.083 154.164 164.452 154.164 164.928C154.164 165.348 154.29 165.656 154.542 165.852C154.803 166.048 155.135 166.146 155.536 166.146C156.161 166.146 156.684 165.973 157.104 165.628C157.533 165.273 157.748 164.732 157.748 164.004V163.332ZM163.79 166.132C163.976 166.132 164.168 166.118 164.364 166.09C164.56 166.062 164.718 166.025 164.84 165.978V166.916C164.709 166.981 164.522 167.033 164.28 167.07C164.037 167.117 163.804 167.14 163.58 167.14C163.188 167.14 162.824 167.075 162.488 166.944C162.161 166.804 161.895 166.566 161.69 166.23C161.484 165.894 161.382 165.423 161.382 164.816V160.448H160.318V159.86L161.396 159.37L161.886 157.774H162.614V159.496H164.784V160.448H162.614V164.788C162.614 165.245 162.721 165.586 162.936 165.81C163.16 166.025 163.444 166.132 163.79 166.132ZM169.24 159.356C169.875 159.356 170.426 159.496 170.892 159.776C171.359 160.056 171.714 160.453 171.956 160.966C172.208 161.47 172.334 162.063 172.334 162.744V163.486H167.196C167.215 164.335 167.43 164.984 167.84 165.432C168.26 165.871 168.844 166.09 169.59 166.09C170.066 166.09 170.486 166.048 170.85 165.964C171.224 165.871 171.606 165.74 171.998 165.572V166.65C171.616 166.818 171.238 166.939 170.864 167.014C170.491 167.098 170.048 167.14 169.534 167.14C168.816 167.14 168.186 166.995 167.644 166.706C167.103 166.417 166.678 165.987 166.37 165.418C166.072 164.849 165.922 164.144 165.922 163.304C165.922 162.483 166.058 161.778 166.328 161.19C166.608 160.602 166.996 160.149 167.49 159.832C167.994 159.515 168.578 159.356 169.24 159.356ZM169.226 160.364C168.638 160.364 168.172 160.555 167.826 160.938C167.49 161.311 167.29 161.834 167.224 162.506H171.046C171.037 161.871 170.888 161.358 170.598 160.966C170.309 160.565 169.852 160.364 169.226 160.364ZM179.131 164.928C179.131 165.656 178.86 166.207 178.319 166.58C177.777 166.953 177.049 167.14 176.135 167.14C175.612 167.14 175.159 167.098 174.777 167.014C174.403 166.93 174.072 166.813 173.783 166.664V165.544C174.081 165.693 174.441 165.833 174.861 165.964C175.29 166.085 175.724 166.146 176.163 166.146C176.788 166.146 177.241 166.048 177.521 165.852C177.801 165.647 177.941 165.376 177.941 165.04C177.941 164.853 177.889 164.685 177.787 164.536C177.684 164.387 177.497 164.237 177.227 164.088C176.965 163.939 176.587 163.771 176.093 163.584C175.607 163.397 175.192 163.211 174.847 163.024C174.501 162.837 174.235 162.613 174.049 162.352C173.862 162.091 173.769 161.755 173.769 161.344C173.769 160.709 174.025 160.219 174.539 159.874C175.061 159.529 175.743 159.356 176.583 159.356C177.04 159.356 177.465 159.403 177.857 159.496C178.258 159.589 178.631 159.711 178.977 159.86L178.557 160.84C178.239 160.709 177.908 160.597 177.563 160.504C177.217 160.411 176.863 160.364 176.499 160.364C175.995 160.364 175.607 160.448 175.337 160.616C175.075 160.775 174.945 160.994 174.945 161.274C174.945 161.489 175.005 161.666 175.127 161.806C175.248 161.946 175.449 162.086 175.729 162.226C176.018 162.366 176.401 162.525 176.877 162.702C177.353 162.879 177.759 163.061 178.095 163.248C178.431 163.435 178.687 163.663 178.865 163.934C179.042 164.195 179.131 164.527 179.131 164.928Z" fill="black"/>
<circle cx="24" cy="190" r="7.5" fill="white" stroke="#1473E6"/>
<circle cx="24" cy="190" r="5" fill="#1473E6"/>
<path d="M48.96 185.004V191.472C48.96 192.163 48.82 192.788 48.54 193.348C48.26 193.899 47.8307 194.337 47.252 194.664C46.6733 194.981 45.9453 195.14 45.068 195.14C43.8173 195.14 42.87 194.804 42.226 194.132C41.582 193.451 41.26 192.555 41.26 191.444V185.004H42.52V191.486C42.52 192.298 42.7347 192.928 43.164 193.376C43.6027 193.824 44.2607 194.048 45.138 194.048C46.0433 194.048 46.6967 193.81 47.098 193.334C47.5087 192.849 47.714 192.228 47.714 191.472V185.004H48.96ZM55.0422 187.356C55.9382 187.356 56.6149 187.575 57.0722 188.014C57.5296 188.453 57.7582 189.153 57.7582 190.114V195H56.5402V190.198C56.5402 188.994 55.9802 188.392 54.8602 188.392C54.0296 188.392 53.4556 188.625 53.1382 189.092C52.8209 189.559 52.6622 190.231 52.6622 191.108V195H51.4302V187.496H52.4242L52.6062 188.518H52.6762C52.9189 188.126 53.2549 187.837 53.6842 187.65C54.1136 187.454 54.5662 187.356 55.0422 187.356ZM60.7145 184.682C60.9012 184.682 61.0645 184.747 61.2045 184.878C61.3539 184.999 61.4285 185.195 61.4285 185.466C61.4285 185.737 61.3539 185.937 61.2045 186.068C61.0645 186.189 60.9012 186.25 60.7145 186.25C60.5092 186.25 60.3365 186.189 60.1965 186.068C60.0565 185.937 59.9865 185.737 59.9865 185.466C59.9865 185.195 60.0565 184.999 60.1965 184.878C60.3365 184.747 60.5092 184.682 60.7145 184.682ZM61.3165 187.496V195H60.0845V187.496H61.3165ZM66.1999 194.132C66.3866 194.132 66.5779 194.118 66.7739 194.09C66.9699 194.062 67.1286 194.025 67.2499 193.978V194.916C67.1192 194.981 66.9326 195.033 66.6899 195.07C66.4472 195.117 66.2139 195.14 65.9899 195.14C65.5979 195.14 65.2339 195.075 64.8979 194.944C64.5712 194.804 64.3052 194.566 64.0999 194.23C63.8946 193.894 63.7919 193.423 63.7919 192.816V188.448H62.7279V187.86L63.8059 187.37L64.2959 185.774H65.0239V187.496H67.1939V188.448H65.0239V192.788C65.0239 193.245 65.1312 193.586 65.3459 193.81C65.5699 194.025 65.8546 194.132 66.1999 194.132ZM71.6505 187.356C72.2852 187.356 72.8358 187.496 73.3025 187.776C73.7692 188.056 74.1238 188.453 74.3665 188.966C74.6185 189.47 74.7445 190.063 74.7445 190.744V191.486H69.6065C69.6252 192.335 69.8398 192.984 70.2505 193.432C70.6705 193.871 71.2538 194.09 72.0005 194.09C72.4765 194.09 72.8965 194.048 73.2605 193.964C73.6338 193.871 74.0165 193.74 74.4085 193.572V194.65C74.0258 194.818 73.6478 194.939 73.2745 195.014C72.9012 195.098 72.4578 195.14 71.9445 195.14C71.2258 195.14 70.5958 194.995 70.0545 194.706C69.5132 194.417 69.0885 193.987 68.7805 193.418C68.4818 192.849 68.3325 192.144 68.3325 191.304C68.3325 190.483 68.4678 189.778 68.7385 189.19C69.0185 188.602 69.4058 188.149 69.9005 187.832C70.4045 187.515 70.9878 187.356 71.6505 187.356ZM71.6365 188.364C71.0485 188.364 70.5818 188.555 70.2365 188.938C69.9005 189.311 69.6998 189.834 69.6345 190.506H73.4565C73.4472 189.871 73.2978 189.358 73.0085 188.966C72.7192 188.565 72.2618 188.364 71.6365 188.364ZM79.3148 195.14C78.3815 195.14 77.6348 194.818 77.0748 194.174C76.5148 193.521 76.2348 192.55 76.2348 191.262C76.2348 189.974 76.5148 189.003 77.0748 188.35C77.6442 187.687 78.3955 187.356 79.3288 187.356C79.9075 187.356 80.3788 187.463 80.7428 187.678C81.1162 187.893 81.4195 188.154 81.6528 188.462H81.7368C81.7182 188.341 81.6995 188.163 81.6808 187.93C81.6622 187.687 81.6528 187.496 81.6528 187.356V184.36H82.8848V195H81.8908L81.7088 193.992H81.6528C81.4288 194.309 81.1302 194.58 80.7568 194.804C80.3835 195.028 79.9028 195.14 79.3148 195.14ZM79.5108 194.118C80.3042 194.118 80.8595 193.903 81.1768 193.474C81.5035 193.035 81.6668 192.377 81.6668 191.5V191.276C81.6668 190.343 81.5128 189.629 81.2048 189.134C80.8968 188.63 80.3275 188.378 79.4968 188.378C78.8342 188.378 78.3348 188.644 77.9988 189.176C77.6722 189.699 77.5088 190.403 77.5088 191.29C77.5088 192.186 77.6722 192.881 77.9988 193.376C78.3348 193.871 78.8388 194.118 79.5108 194.118ZM94.7428 192.326C94.7428 193.213 94.4208 193.903 93.7768 194.398C93.1328 194.893 92.2648 195.14 91.1728 195.14C90.6128 195.14 90.0948 195.098 89.6188 195.014C89.1428 194.93 88.7462 194.813 88.4288 194.664V193.46C88.7648 193.609 89.1802 193.745 89.6748 193.866C90.1788 193.987 90.6968 194.048 91.2288 194.048C91.9662 194.048 92.5262 193.903 92.9088 193.614C93.2915 193.325 93.4828 192.933 93.4828 192.438C93.4828 192.111 93.4128 191.836 93.2728 191.612C93.1328 191.388 92.8902 191.183 92.5448 190.996C92.1995 190.809 91.7282 190.604 91.1308 190.38C90.2722 190.072 89.6282 189.694 89.1988 189.246C88.7695 188.798 88.5548 188.187 88.5548 187.412C88.5548 186.889 88.6902 186.437 88.9608 186.054C89.2315 185.671 89.6048 185.377 90.0808 185.172C90.5568 184.967 91.1122 184.864 91.7468 184.864C92.2882 184.864 92.7875 184.915 93.2448 185.018C93.7022 185.121 94.1222 185.256 94.5048 185.424L94.1128 186.502C93.7675 186.353 93.3895 186.227 92.9788 186.124C92.5682 186.021 92.1482 185.97 91.7188 185.97C91.0935 185.97 90.6222 186.105 90.3048 186.376C89.9875 186.637 89.8288 186.987 89.8288 187.426C89.8288 187.762 89.8988 188.042 90.0388 188.266C90.1788 188.49 90.4075 188.695 90.7248 188.882C91.0422 189.059 91.4715 189.246 92.0128 189.442C92.6008 189.657 93.0955 189.89 93.4968 190.142C93.9075 190.385 94.2155 190.679 94.4208 191.024C94.6355 191.369 94.7428 191.803 94.7428 192.326ZM99.0944 194.132C99.2811 194.132 99.4724 194.118 99.6684 194.09C99.8644 194.062 100.023 194.025 100.144 193.978V194.916C100.014 194.981 99.8271 195.033 99.5844 195.07C99.3418 195.117 99.1084 195.14 98.8844 195.14C98.4924 195.14 98.1284 195.075 97.7924 194.944C97.4658 194.804 97.1998 194.566 96.9944 194.23C96.7891 193.894 96.6864 193.423 96.6864 192.816V188.448H95.6224V187.86L96.7004 187.37L97.1904 185.774H97.9184V187.496H100.088V188.448H97.9184V192.788C97.9184 193.245 98.0258 193.586 98.2404 193.81C98.4644 194.025 98.7491 194.132 99.0944 194.132ZM104.489 187.37C105.404 187.37 106.08 187.571 106.519 187.972C106.958 188.373 107.177 189.013 107.177 189.89V195H106.281L106.043 193.936H105.987C105.66 194.347 105.315 194.65 104.951 194.846C104.587 195.042 104.092 195.14 103.467 195.14C102.786 195.14 102.221 194.963 101.773 194.608C101.325 194.244 101.101 193.679 101.101 192.914C101.101 192.167 101.395 191.593 101.983 191.192C102.571 190.781 103.476 190.557 104.699 190.52L105.973 190.478V190.03C105.973 189.405 105.838 188.971 105.567 188.728C105.296 188.485 104.914 188.364 104.419 188.364C104.027 188.364 103.654 188.425 103.299 188.546C102.944 188.658 102.613 188.789 102.305 188.938L101.927 188.014C102.254 187.837 102.641 187.687 103.089 187.566C103.537 187.435 104.004 187.37 104.489 187.37ZM105.959 191.332L104.853 191.374C103.92 191.411 103.271 191.561 102.907 191.822C102.552 192.083 102.375 192.452 102.375 192.928C102.375 193.348 102.501 193.656 102.753 193.852C103.014 194.048 103.346 194.146 103.747 194.146C104.372 194.146 104.895 193.973 105.315 193.628C105.744 193.273 105.959 192.732 105.959 192.004V191.332ZM112.001 194.132C112.187 194.132 112.379 194.118 112.575 194.09C112.771 194.062 112.929 194.025 113.051 193.978V194.916C112.92 194.981 112.733 195.033 112.491 195.07C112.248 195.117 112.015 195.14 111.791 195.14C111.399 195.14 111.035 195.075 110.699 194.944C110.372 194.804 110.106 194.566 109.901 194.23C109.695 193.894 109.593 193.423 109.593 192.816V188.448H108.529V187.86L109.607 187.37L110.097 185.774H110.825V187.496H112.995V188.448H110.825V192.788C110.825 193.245 110.932 193.586 111.147 193.81C111.371 194.025 111.655 194.132 112.001 194.132ZM117.451 187.356C118.086 187.356 118.637 187.496 119.103 187.776C119.57 188.056 119.925 188.453 120.167 188.966C120.419 189.47 120.545 190.063 120.545 190.744V191.486H115.407C115.426 192.335 115.641 192.984 116.051 193.432C116.471 193.871 117.055 194.09 117.801 194.09C118.277 194.09 118.697 194.048 119.061 193.964C119.435 193.871 119.817 193.74 120.209 193.572V194.65C119.827 194.818 119.449 194.939 119.075 195.014C118.702 195.098 118.259 195.14 117.745 195.14C117.027 195.14 116.397 194.995 115.855 194.706C115.314 194.417 114.889 193.987 114.581 193.418C114.283 192.849 114.133 192.144 114.133 191.304C114.133 190.483 114.269 189.778 114.539 189.19C114.819 188.602 115.207 188.149 115.701 187.832C116.205 187.515 116.789 187.356 117.451 187.356ZM117.437 188.364C116.849 188.364 116.383 188.555 116.037 188.938C115.701 189.311 115.501 189.834 115.435 190.506H119.257C119.248 189.871 119.099 189.358 118.809 188.966C118.52 188.565 118.063 188.364 117.437 188.364ZM127.342 192.928C127.342 193.656 127.071 194.207 126.53 194.58C125.988 194.953 125.26 195.14 124.346 195.14C123.823 195.14 123.37 195.098 122.988 195.014C122.614 194.93 122.283 194.813 121.994 194.664V193.544C122.292 193.693 122.652 193.833 123.072 193.964C123.501 194.085 123.935 194.146 124.374 194.146C124.999 194.146 125.452 194.048 125.732 193.852C126.012 193.647 126.152 193.376 126.152 193.04C126.152 192.853 126.1 192.685 125.998 192.536C125.895 192.387 125.708 192.237 125.438 192.088C125.176 191.939 124.798 191.771 124.304 191.584C123.818 191.397 123.403 191.211 123.058 191.024C122.712 190.837 122.446 190.613 122.26 190.352C122.073 190.091 121.98 189.755 121.98 189.344C121.98 188.709 122.236 188.219 122.75 187.874C123.272 187.529 123.954 187.356 124.794 187.356C125.251 187.356 125.676 187.403 126.068 187.496C126.469 187.589 126.842 187.711 127.188 187.86L126.768 188.84C126.45 188.709 126.119 188.597 125.774 188.504C125.428 188.411 125.074 188.364 124.71 188.364C124.206 188.364 123.818 188.448 123.548 188.616C123.286 188.775 123.156 188.994 123.156 189.274C123.156 189.489 123.216 189.666 123.338 189.806C123.459 189.946 123.66 190.086 123.94 190.226C124.229 190.366 124.612 190.525 125.088 190.702C125.564 190.879 125.97 191.061 126.306 191.248C126.642 191.435 126.898 191.663 127.076 191.934C127.253 192.195 127.342 192.527 127.342 192.928Z" fill="black"/>
<circle cx="24" cy="218" r="7.5" fill="white" stroke="#1473E6"/>
<path d="M48.96 213.004V219.472C48.96 220.163 48.82 220.788 48.54 221.348C48.26 221.899 47.8307 222.337 47.252 222.664C46.6733 222.981 45.9453 223.14 45.068 223.14C43.8173 223.14 42.87 222.804 42.226 222.132C41.582 221.451 41.26 220.555 41.26 219.444V213.004H42.52V219.486C42.52 220.298 42.7347 220.928 43.164 221.376C43.6027 221.824 44.2607 222.048 45.138 222.048C46.0433 222.048 46.6967 221.81 47.098 221.334C47.5087 220.849 47.714 220.228 47.714 219.472V213.004H48.96ZM54.9302 215.356C55.0702 215.356 55.2196 215.365 55.3782 215.384C55.5369 215.393 55.6816 215.412 55.8122 215.44L55.6582 216.574C55.5369 216.546 55.4016 216.523 55.2522 216.504C55.1029 216.485 54.9676 216.476 54.8462 216.476C54.4636 216.476 54.1042 216.583 53.7682 216.798C53.4322 217.003 53.1616 217.297 52.9562 217.68C52.7602 218.053 52.6622 218.492 52.6622 218.996V223H51.4302V215.496H52.4382L52.5782 216.868H52.6342C52.8676 216.457 53.1756 216.103 53.5582 215.804C53.9502 215.505 54.4076 215.356 54.9302 215.356ZM59.782 215.37C60.6967 215.37 61.3733 215.571 61.812 215.972C62.2507 216.373 62.47 217.013 62.47 217.89V223H61.574L61.336 221.936H61.28C60.9533 222.347 60.608 222.65 60.244 222.846C59.88 223.042 59.3853 223.14 58.76 223.14C58.0787 223.14 57.514 222.963 57.066 222.608C56.618 222.244 56.394 221.679 56.394 220.914C56.394 220.167 56.688 219.593 57.276 219.192C57.864 218.781 58.7693 218.557 59.992 218.52L61.266 218.478V218.03C61.266 217.405 61.1307 216.971 60.86 216.728C60.5893 216.485 60.2067 216.364 59.712 216.364C59.32 216.364 58.9467 216.425 58.592 216.546C58.2373 216.658 57.906 216.789 57.598 216.938L57.22 216.014C57.5467 215.837 57.934 215.687 58.382 215.566C58.83 215.435 59.2967 215.37 59.782 215.37ZM61.252 219.332L60.146 219.374C59.2127 219.411 58.564 219.561 58.2 219.822C57.8453 220.083 57.668 220.452 57.668 220.928C57.668 221.348 57.794 221.656 58.046 221.852C58.3073 222.048 58.6387 222.146 59.04 222.146C59.6653 222.146 60.188 221.973 60.608 221.628C61.0373 221.273 61.252 220.732 61.252 220.004V219.332ZM67.4477 215.356C67.9423 215.356 68.3857 215.449 68.7777 215.636C69.179 215.823 69.5197 216.107 69.7997 216.49H69.8697L70.0377 215.496H71.0177V223.126C71.0177 224.199 70.7423 225.007 70.1917 225.548C69.6503 226.089 68.8057 226.36 67.6577 226.36C66.5563 226.36 65.6557 226.201 64.9557 225.884V224.75C65.693 225.142 66.617 225.338 67.7277 225.338C68.3717 225.338 68.8757 225.147 69.2397 224.764C69.613 224.391 69.7997 223.877 69.7997 223.224V222.93C69.7997 222.818 69.8043 222.659 69.8137 222.454C69.823 222.239 69.8323 222.09 69.8417 222.006H69.7857C69.2817 222.762 68.507 223.14 67.4617 223.14C66.491 223.14 65.7303 222.799 65.1797 222.118C64.6383 221.437 64.3677 220.485 64.3677 219.262C64.3677 218.067 64.6383 217.12 65.1797 216.42C65.7303 215.711 66.4863 215.356 67.4477 215.356ZM67.6157 216.392C66.9903 216.392 66.505 216.644 66.1597 217.148C65.8143 217.643 65.6417 218.352 65.6417 219.276C65.6417 220.2 65.8097 220.909 66.1457 221.404C66.4817 221.889 66.981 222.132 67.6437 222.132C68.3997 222.132 68.9503 221.931 69.2957 221.53C69.641 221.119 69.8137 220.461 69.8137 219.556V219.262C69.8137 218.245 69.6363 217.512 69.2817 217.064C68.927 216.616 68.3717 216.392 67.6157 216.392ZM79.6729 215.496V223H78.6649L78.4829 222.006H78.4269C78.1843 222.398 77.8483 222.687 77.4189 222.874C76.9896 223.051 76.5323 223.14 76.0469 223.14C75.1416 223.14 74.4603 222.925 74.0029 222.496C73.5456 222.057 73.3169 221.362 73.3169 220.41V215.496H74.5629V220.326C74.5629 221.521 75.1183 222.118 76.2289 222.118C77.0596 222.118 77.6336 221.885 77.9509 221.418C78.2776 220.951 78.4409 220.279 78.4409 219.402V215.496H79.6729ZM84.8972 215.37C85.8119 215.37 86.4886 215.571 86.9272 215.972C87.3659 216.373 87.5852 217.013 87.5852 217.89V223H86.6892L86.4512 221.936H86.3952C86.0686 222.347 85.7232 222.65 85.3592 222.846C84.9952 223.042 84.5006 223.14 83.8752 223.14C83.1939 223.14 82.6292 222.963 82.1812 222.608C81.7332 222.244 81.5092 221.679 81.5092 220.914C81.5092 220.167 81.8032 219.593 82.3912 219.192C82.9792 218.781 83.8846 218.557 85.1072 218.52L86.3812 218.478V218.03C86.3812 217.405 86.2459 216.971 85.9752 216.728C85.7046 216.485 85.3219 216.364 84.8272 216.364C84.4352 216.364 84.0619 216.425 83.7072 216.546C83.3526 216.658 83.0212 216.789 82.7132 216.938L82.3352 216.014C82.6619 215.837 83.0492 215.687 83.4972 215.566C83.9452 215.435 84.4119 215.37 84.8972 215.37ZM86.3672 219.332L85.2612 219.374C84.3279 219.411 83.6792 219.561 83.3152 219.822C82.9606 220.083 82.7832 220.452 82.7832 220.928C82.7832 221.348 82.9092 221.656 83.1612 221.852C83.4226 222.048 83.7539 222.146 84.1552 222.146C84.7806 222.146 85.3032 221.973 85.7232 221.628C86.1526 221.273 86.3672 220.732 86.3672 220.004V219.332ZM88.7269 215.496H90.0429L91.6669 219.766C91.8069 220.149 91.9329 220.508 92.0449 220.844C92.1569 221.18 92.2409 221.502 92.2969 221.81H92.3529C92.4089 221.577 92.4976 221.273 92.6189 220.9C92.7402 220.517 92.8662 220.135 92.9969 219.752L94.5229 215.496H95.8529L92.6189 224.036C92.3482 224.745 92.0076 225.31 91.5969 225.73C91.1862 226.15 90.6169 226.36 89.8889 226.36C89.6649 226.36 89.4689 226.346 89.3009 226.318C89.1329 226.299 88.9882 226.276 88.8669 226.248V225.268C88.9696 225.287 89.0909 225.305 89.2309 225.324C89.3802 225.343 89.5342 225.352 89.6929 225.352C90.1222 225.352 90.4676 225.231 90.7289 224.988C90.9902 224.745 91.2002 224.423 91.3589 224.022L91.7509 223.028L88.7269 215.496Z" fill="black"/>
<circle cx="24" cy="246" r="7.5" fill="white" stroke="#1473E6"/>
<path d="M48.96 241.004V247.472C48.96 248.163 48.82 248.788 48.54 249.348C48.26 249.899 47.8307 250.337 47.252 250.664C46.6733 250.981 45.9453 251.14 45.068 251.14C43.8173 251.14 42.87 250.804 42.226 250.132C41.582 249.451 41.26 248.555 41.26 247.444V241.004H42.52V247.486C42.52 248.298 42.7347 248.928 43.164 249.376C43.6027 249.824 44.2607 250.048 45.138 250.048C46.0433 250.048 46.6967 249.81 47.098 249.334C47.5087 248.849 47.714 248.228 47.714 247.472V241.004H48.96ZM56.2742 251H50.7862V250.188L54.8182 244.448H51.0242V243.496H56.1762V244.42L52.2002 250.048H56.2742V251ZM59.2384 240.36V242.95C59.2384 243.267 59.2291 243.566 59.2104 243.846C59.2011 244.117 59.1871 244.331 59.1684 244.49H59.2384C59.4531 244.173 59.7471 243.907 60.1204 243.692C60.4937 243.477 60.9744 243.37 61.5624 243.37C62.4957 243.37 63.2424 243.697 63.8024 244.35C64.3717 244.994 64.6564 245.96 64.6564 247.248C64.6564 248.536 64.3717 249.507 63.8024 250.16C63.2331 250.813 62.4864 251.14 61.5624 251.14C60.9744 251.14 60.4937 251.033 60.1204 250.818C59.7471 250.603 59.4531 250.347 59.2384 250.048H59.1404L58.8884 251H58.0064V240.36H59.2384ZM61.3524 244.392C60.5497 244.392 59.9944 244.621 59.6864 245.078C59.3877 245.535 59.2384 246.245 59.2384 247.206V247.262C59.2384 248.186 59.3877 248.895 59.6864 249.39C59.9944 249.875 60.5591 250.118 61.3804 250.118C62.0524 250.118 62.5517 249.871 62.8784 249.376C63.2144 248.881 63.3824 248.167 63.3824 247.234C63.3824 245.339 62.7057 244.392 61.3524 244.392ZM69.5177 243.356C70.1524 243.356 70.703 243.496 71.1697 243.776C71.6364 244.056 71.991 244.453 72.2337 244.966C72.4857 245.47 72.6117 246.063 72.6117 246.744V247.486H67.4737C67.4924 248.335 67.707 248.984 68.1177 249.432C68.5377 249.871 69.121 250.09 69.8677 250.09C70.3437 250.09 70.7637 250.048 71.1277 249.964C71.501 249.871 71.8837 249.74 72.2757 249.572V250.65C71.893 250.818 71.515 250.939 71.1417 251.014C70.7684 251.098 70.325 251.14 69.8117 251.14C69.093 251.14 68.463 250.995 67.9217 250.706C67.3804 250.417 66.9557 249.987 66.6477 249.418C66.349 248.849 66.1997 248.144 66.1997 247.304C66.1997 246.483 66.335 245.778 66.6057 245.19C66.8857 244.602 67.273 244.149 67.7677 243.832C68.2717 243.515 68.855 243.356 69.5177 243.356ZM69.5037 244.364C68.9157 244.364 68.449 244.555 68.1037 244.938C67.7677 245.311 67.567 245.834 67.5017 246.506H71.3237C71.3144 245.871 71.165 245.358 70.8757 244.966C70.5864 244.565 70.129 244.364 69.5037 244.364ZM75.74 240.36V245.918C75.74 246.067 75.7307 246.263 75.712 246.506C75.7027 246.749 75.6934 246.959 75.684 247.136H75.74C75.796 247.061 75.88 246.954 75.992 246.814C76.104 246.674 76.216 246.534 76.328 246.394C76.4494 246.245 76.552 246.123 76.636 246.03L79.03 243.496H80.472L77.434 246.702L80.682 251H79.198L76.594 247.5L75.74 248.242V251H74.522V240.36H75.74ZM82.6305 240.682C82.8172 240.682 82.9805 240.747 83.1205 240.878C83.2699 240.999 83.3445 241.195 83.3445 241.466C83.3445 241.737 83.2699 241.937 83.1205 242.068C82.9805 242.189 82.8172 242.25 82.6305 242.25C82.4252 242.25 82.2525 242.189 82.1125 242.068C81.9725 241.937 81.9025 241.737 81.9025 241.466C81.9025 241.195 81.9725 240.999 82.1125 240.878C82.2525 240.747 82.4252 240.682 82.6305 240.682ZM83.2325 243.496V251H82.0005V243.496H83.2325ZM90.4959 248.928C90.4959 249.656 90.2253 250.207 89.6839 250.58C89.1426 250.953 88.4146 251.14 87.4999 251.14C86.9773 251.14 86.5246 251.098 86.1419 251.014C85.7686 250.93 85.4373 250.813 85.1479 250.664V249.544C85.4466 249.693 85.8059 249.833 86.2259 249.964C86.6553 250.085 87.0893 250.146 87.5279 250.146C88.1533 250.146 88.6059 250.048 88.8859 249.852C89.1659 249.647 89.3059 249.376 89.3059 249.04C89.3059 248.853 89.2546 248.685 89.1519 248.536C89.0493 248.387 88.8626 248.237 88.5919 248.088C88.3306 247.939 87.9526 247.771 87.4579 247.584C86.9726 247.397 86.5573 247.211 86.2119 247.024C85.8666 246.837 85.6006 246.613 85.4139 246.352C85.2273 246.091 85.1339 245.755 85.1339 245.344C85.1339 244.709 85.3906 244.219 85.9039 243.874C86.4266 243.529 87.1079 243.356 87.9479 243.356C88.4053 243.356 88.8299 243.403 89.2219 243.496C89.6233 243.589 89.9966 243.711 90.3419 243.86L89.9219 244.84C89.6046 244.709 89.2733 244.597 88.9279 244.504C88.5826 244.411 88.2279 244.364 87.8639 244.364C87.3599 244.364 86.9726 244.448 86.7019 244.616C86.4406 244.775 86.3099 244.994 86.3099 245.274C86.3099 245.489 86.3706 245.666 86.4919 245.806C86.6133 245.946 86.8139 246.086 87.0939 246.226C87.3833 246.366 87.7659 246.525 88.2419 246.702C88.7179 246.879 89.1239 247.061 89.4599 247.248C89.7959 247.435 90.0526 247.663 90.2299 247.934C90.4073 248.195 90.4959 248.527 90.4959 248.928ZM94.8151 250.132C95.0018 250.132 95.1931 250.118 95.3891 250.09C95.5851 250.062 95.7438 250.025 95.8651 249.978V250.916C95.7345 250.981 95.5478 251.033 95.3051 251.07C95.0625 251.117 94.8291 251.14 94.6051 251.14C94.2131 251.14 93.8491 251.075 93.5131 250.944C93.1865 250.804 92.9205 250.566 92.7151 250.23C92.5098 249.894 92.4071 249.423 92.4071 248.816V244.448H91.3431V243.86L92.4211 243.37L92.9111 241.774H93.6391V243.496H95.8091V244.448H93.6391V248.788C93.6391 249.245 93.7465 249.586 93.9611 249.81C94.1851 250.025 94.4698 250.132 94.8151 250.132ZM100.21 243.37C101.124 243.37 101.801 243.571 102.24 243.972C102.678 244.373 102.898 245.013 102.898 245.89V251H102.002L101.764 249.936H101.708C101.381 250.347 101.036 250.65 100.672 250.846C100.308 251.042 99.8131 251.14 99.1877 251.14C98.5064 251.14 97.9417 250.963 97.4937 250.608C97.0457 250.244 96.8217 249.679 96.8217 248.914C96.8217 248.167 97.1157 247.593 97.7037 247.192C98.2917 246.781 99.1971 246.557 100.42 246.52L101.694 246.478V246.03C101.694 245.405 101.558 244.971 101.288 244.728C101.017 244.485 100.634 244.364 100.14 244.364C99.7477 244.364 99.3744 244.425 99.0197 244.546C98.6651 244.658 98.3337 244.789 98.0257 244.938L97.6477 244.014C97.9744 243.837 98.3617 243.687 98.8097 243.566C99.2577 243.435 99.7244 243.37 100.21 243.37ZM101.68 247.332L100.574 247.374C99.6404 247.411 98.9917 247.561 98.6277 247.822C98.2731 248.083 98.0957 248.452 98.0957 248.928C98.0957 249.348 98.2217 249.656 98.4737 249.852C98.7351 250.048 99.0664 250.146 99.4677 250.146C100.093 250.146 100.616 249.973 101.036 249.628C101.465 249.273 101.68 248.732 101.68 248.004V247.332ZM108.827 243.356C109.723 243.356 110.4 243.575 110.857 244.014C111.315 244.453 111.543 245.153 111.543 246.114V251H110.325V246.198C110.325 244.994 109.765 244.392 108.645 244.392C107.815 244.392 107.241 244.625 106.923 245.092C106.606 245.559 106.447 246.231 106.447 247.108V251H105.215V243.496H106.209L106.391 244.518H106.461C106.704 244.126 107.04 243.837 107.469 243.65C107.899 243.454 108.351 243.356 108.827 243.356Z" fill="black"/>
<circle cx="24" cy="274" r="7.5" fill="white" stroke="#1473E6"/>
<path d="M48.4 269.004L44.83 279H43.57L40 269.004H41.316L43.57 275.416C43.7193 275.827 43.8407 276.214 43.934 276.578C44.0367 276.933 44.1253 277.273 44.2 277.6C44.2653 277.273 44.3493 276.928 44.452 276.564C44.5547 276.2 44.6807 275.808 44.83 275.388L47.07 269.004H48.4ZM52.1531 271.37C53.0678 271.37 53.7444 271.571 54.1831 271.972C54.6218 272.373 54.8411 273.013 54.8411 273.89V279H53.9451L53.7071 277.936H53.6511C53.3244 278.347 52.9791 278.65 52.6151 278.846C52.2511 279.042 51.7564 279.14 51.1311 279.14C50.4498 279.14 49.8851 278.963 49.4371 278.608C48.9891 278.244 48.7651 277.679 48.7651 276.914C48.7651 276.167 49.0591 275.593 49.6471 275.192C50.2351 274.781 51.1404 274.557 52.3631 274.52L53.6371 274.478V274.03C53.6371 273.405 53.5018 272.971 53.2311 272.728C52.9604 272.485 52.5778 272.364 52.0831 272.364C51.6911 272.364 51.3178 272.425 50.9631 272.546C50.6084 272.658 50.2771 272.789 49.9691 272.938L49.5911 272.014C49.9178 271.837 50.3051 271.687 50.7531 271.566C51.2011 271.435 51.6678 271.37 52.1531 271.37ZM53.6231 275.332L52.5171 275.374C51.5838 275.411 50.9351 275.561 50.5711 275.822C50.2164 276.083 50.0391 276.452 50.0391 276.928C50.0391 277.348 50.1651 277.656 50.4171 277.852C50.6784 278.048 51.0098 278.146 51.4111 278.146C52.0364 278.146 52.5591 277.973 52.9791 277.628C53.4084 277.273 53.6231 276.732 53.6231 276.004V275.332ZM60.7708 271.356C61.6668 271.356 62.3434 271.575 62.8008 272.014C63.2581 272.453 63.4868 273.153 63.4868 274.114V279H62.2688V274.198C62.2688 272.994 61.7088 272.392 60.5888 272.392C59.7581 272.392 59.1841 272.625 58.8668 273.092C58.5494 273.559 58.3908 274.231 58.3908 275.108V279H57.1588V271.496H58.1528L58.3348 272.518H58.4048C58.6474 272.126 58.9834 271.837 59.4128 271.65C59.8421 271.454 60.2948 271.356 60.7708 271.356ZM72.085 271.496V279H71.077L70.895 278.006H70.839C70.5964 278.398 70.2604 278.687 69.831 278.874C69.4017 279.051 68.9444 279.14 68.459 279.14C67.5537 279.14 66.8724 278.925 66.415 278.496C65.9577 278.057 65.729 277.362 65.729 276.41V271.496H66.975V276.326C66.975 277.521 67.5304 278.118 68.641 278.118C69.4717 278.118 70.0457 277.885 70.363 277.418C70.6897 276.951 70.853 276.279 70.853 275.402V271.496H72.085ZM77.3093 271.37C78.224 271.37 78.9007 271.571 79.3393 271.972C79.778 272.373 79.9973 273.013 79.9973 273.89V279H79.1013L78.8633 277.936H78.8073C78.4807 278.347 78.1353 278.65 77.7713 278.846C77.4073 279.042 76.9127 279.14 76.2873 279.14C75.606 279.14 75.0413 278.963 74.5933 278.608C74.1453 278.244 73.9213 277.679 73.9213 276.914C73.9213 276.167 74.2153 275.593 74.8033 275.192C75.3913 274.781 76.2967 274.557 77.5193 274.52L78.7933 274.478V274.03C78.7933 273.405 78.658 272.971 78.3873 272.728C78.1167 272.485 77.734 272.364 77.2393 272.364C76.8473 272.364 76.474 272.425 76.1193 272.546C75.7647 272.658 75.4333 272.789 75.1253 272.938L74.7473 272.014C75.074 271.837 75.4613 271.687 75.9093 271.566C76.3573 271.435 76.824 271.37 77.3093 271.37ZM78.7793 275.332L77.6733 275.374C76.74 275.411 76.0913 275.561 75.7273 275.822C75.3727 276.083 75.1953 276.452 75.1953 276.928C75.1953 277.348 75.3213 277.656 75.5733 277.852C75.8347 278.048 76.166 278.146 76.5673 278.146C77.1927 278.146 77.7153 277.973 78.1353 277.628C78.5647 277.273 78.7793 276.732 78.7793 276.004V275.332ZM84.821 278.132C85.0077 278.132 85.199 278.118 85.395 278.09C85.591 278.062 85.7497 278.025 85.871 277.978V278.916C85.7403 278.981 85.5537 279.033 85.311 279.07C85.0683 279.117 84.835 279.14 84.611 279.14C84.219 279.14 83.855 279.075 83.519 278.944C83.1923 278.804 82.9263 278.566 82.721 278.23C82.5157 277.894 82.413 277.423 82.413 276.816V272.448H81.349V271.86L82.427 271.37L82.917 269.774H83.645V271.496H85.815V272.448H83.645V276.788C83.645 277.245 83.7523 277.586 83.967 277.81C84.191 278.025 84.4757 278.132 84.821 278.132ZM93.6456 271.496V279H92.6376L92.4556 278.006H92.3996C92.1569 278.398 91.8209 278.687 91.3916 278.874C90.9623 279.051 90.5049 279.14 90.0196 279.14C89.1143 279.14 88.4329 278.925 87.9756 278.496C87.5183 278.057 87.2896 277.362 87.2896 276.41V271.496H88.5356V276.326C88.5356 277.521 89.0909 278.118 90.2016 278.118C91.0323 278.118 91.6063 277.885 91.9236 277.418C92.2503 276.951 92.4136 276.279 92.4136 275.402V271.496H93.6456Z" fill="black"/>
<path d="M17.008 306.244C17.008 305.899 17.092 305.656 17.26 305.516C17.428 305.376 17.6287 305.306 17.862 305.306C18.0953 305.306 18.3007 305.376 18.478 305.516C18.6553 305.656 18.744 305.899 18.744 306.244C18.744 306.58 18.6553 306.823 18.478 306.972C18.3007 307.121 18.0953 307.196 17.862 307.196C17.6287 307.196 17.428 307.121 17.26 306.972C17.092 306.823 17.008 306.58 17.008 306.244ZM20.7541 306.244C20.7541 305.899 20.8381 305.656 21.0061 305.516C21.1741 305.376 21.3748 305.306 21.6081 305.306C21.8414 305.306 22.0468 305.376 22.2241 305.516C22.4014 305.656 22.4901 305.899 22.4901 306.244C22.4901 306.58 22.4014 306.823 22.2241 306.972C22.0468 307.121 21.8414 307.196 21.6081 307.196C21.3748 307.196 21.1741 307.121 21.0061 306.972C20.8381 306.823 20.7541 306.58 20.7541 306.244ZM24.5002 306.244C24.5002 305.899 24.5842 305.656 24.7522 305.516C24.9202 305.376 25.1209 305.306 25.3542 305.306C25.5875 305.306 25.7929 305.376 25.9702 305.516C26.1475 305.656 26.2362 305.899 26.2362 306.244C26.2362 306.58 26.1475 306.823 25.9702 306.972C25.7929 307.121 25.5875 307.196 25.3542 307.196C25.1209 307.196 24.9202 307.121 24.7522 306.972C24.5842 306.823 24.5002 306.58 24.5002 306.244Z" fill="black"/>
</svg>
