<svg width="70" height="20" viewBox="0 0 70 20" fill="none" xmlns="http://www.w3.org/2000/svg">
<circle cx="8" cy="10" r="7.5" fill="white" stroke="#939393"/>
<circle cx="8" cy="10" r="5" fill="#939393"/>
<path d="M34.08 9.988C34.08 11.024 33.9027 11.9293 33.548 12.704C33.2027 13.4693 32.6847 14.0667 31.994 14.496C31.3127 14.9253 30.4727 15.14 29.474 15.14C28.438 15.14 27.5747 14.9253 26.884 14.496C26.2027 14.0667 25.694 13.4647 25.358 12.69C25.022 11.9153 24.854 11.01 24.854 9.974C24.854 8.95667 25.022 8.06533 25.358 7.3C25.694 6.52533 26.2027 5.92333 26.884 5.494C27.5747 5.06467 28.4427 4.85 29.488 4.85C30.4867 4.85 31.3267 5.06467 32.008 5.494C32.6893 5.914 33.2027 6.51133 33.548 7.286C33.9027 8.05133 34.08 8.952 34.08 9.988ZM26.184 9.988C26.184 11.248 26.45 12.242 26.982 12.97C27.514 13.6887 28.3447 14.048 29.474 14.048C30.6033 14.048 31.4293 13.6887 31.952 12.97C32.484 12.242 32.75 11.248 32.75 9.988C32.75 8.728 32.4887 7.74333 31.966 7.034C31.4433 6.31533 30.6173 5.956 29.488 5.956C28.3493 5.956 27.514 6.31533 26.982 7.034C26.45 7.74333 26.184 8.728 26.184 9.988ZM39.6975 7.356C40.6215 7.356 41.3635 7.678 41.9235 8.322C42.4928 8.966 42.7775 9.93667 42.7775 11.234C42.7775 12.5127 42.4928 13.4833 41.9235 14.146C41.3635 14.8087 40.6168 15.14 39.6835 15.14C39.1048 15.14 38.6242 15.0327 38.2415 14.818C37.8682 14.6033 37.5742 14.3467 37.3595 14.048H37.2755C37.2848 14.2067 37.2988 14.4073 37.3175 14.65C37.3455 14.8927 37.3595 15.1027 37.3595 15.28V18.36H36.1275V7.496H37.1355L37.3035 8.518H37.3595C37.5835 8.19133 37.8775 7.916 38.2415 7.692C38.6055 7.468 39.0908 7.356 39.6975 7.356ZM39.4735 8.392C38.7082 8.392 38.1668 8.60667 37.8495 9.036C37.5322 9.46533 37.3688 10.1187 37.3595 10.996V11.234C37.3595 12.158 37.5088 12.872 37.8075 13.376C38.1155 13.8707 38.6802 14.118 39.5015 14.118C39.9495 14.118 40.3228 13.9967 40.6215 13.754C40.9202 13.502 41.1395 13.1567 41.2795 12.718C41.4288 12.2793 41.5035 11.78 41.5035 11.22C41.5035 10.3613 41.3355 9.67533 40.9995 9.162C40.6728 8.64867 40.1642 8.392 39.4735 8.392ZM47.2468 14.132C47.4334 14.132 47.6248 14.118 47.8208 14.09C48.0168 14.062 48.1754 14.0247 48.2968 13.978V14.916C48.1661 14.9813 47.9794 15.0327 47.7368 15.07C47.4941 15.1167 47.2608 15.14 47.0368 15.14C46.6448 15.14 46.2808 15.0747 45.9448 14.944C45.6181 14.804 45.3521 14.566 45.1468 14.23C44.9414 13.894 44.8388 13.4227 44.8388 12.816V8.448H43.7748V7.86L44.8528 7.37L45.3428 5.774H46.0708V7.496H48.2408V8.448H46.0708V12.788C46.0708 13.2453 46.1781 13.586 46.3928 13.81C46.6168 14.0247 46.9014 14.132 47.2468 14.132ZM50.4294 4.682C50.616 4.682 50.7794 4.74733 50.9194 4.878C51.0687 4.99933 51.1434 5.19533 51.1434 5.466C51.1434 5.73667 51.0687 5.93733 50.9194 6.068C50.7794 6.18933 50.616 6.25 50.4294 6.25C50.224 6.25 50.0514 6.18933 49.9114 6.068C49.7714 5.93733 49.7014 5.73667 49.7014 5.466C49.7014 5.19533 49.7714 4.99933 49.9114 4.878C50.0514 4.74733 50.224 4.682 50.4294 4.682ZM51.0314 7.496V15H49.7994V7.496H51.0314ZM59.9327 11.234C59.9327 12.4753 59.6154 13.4367 58.9808 14.118C58.3554 14.7993 57.5061 15.14 56.4328 15.14C55.7701 15.14 55.1774 14.9907 54.6548 14.692C54.1414 14.384 53.7354 13.9407 53.4368 13.362C53.1381 12.774 52.9888 12.0647 52.9888 11.234C52.9888 9.99267 53.2968 9.036 53.9128 8.364C54.5381 7.692 55.3921 7.356 56.4748 7.356C57.1468 7.356 57.7441 7.51 58.2668 7.818C58.7894 8.11667 59.1954 8.55533 59.4848 9.134C59.7834 9.70333 59.9327 10.4033 59.9327 11.234ZM54.2628 11.234C54.2628 12.1207 54.4354 12.8253 54.7808 13.348C55.1354 13.8613 55.6954 14.118 56.4608 14.118C57.2168 14.118 57.7721 13.8613 58.1268 13.348C58.4814 12.8253 58.6588 12.1207 58.6588 11.234C58.6588 10.3473 58.4814 9.652 58.1268 9.148C57.7721 8.644 57.2121 8.392 56.4468 8.392C55.6814 8.392 55.1261 8.644 54.7808 9.148C54.4354 9.652 54.2628 10.3473 54.2628 11.234ZM65.4973 7.356C66.3933 7.356 67.07 7.57533 67.5273 8.014C67.9846 8.45267 68.2133 9.15267 68.2133 10.114V15H66.9953V10.198C66.9953 8.994 66.4353 8.392 65.3153 8.392C64.4846 8.392 63.9106 8.62533 63.5933 9.092C63.276 9.55867 63.1173 10.2307 63.1173 11.108V15H61.8853V7.496H62.8793L63.0613 8.518H63.1313C63.374 8.126 63.71 7.83667 64.1393 7.65C64.5686 7.454 65.0213 7.356 65.4973 7.356Z" fill="black"/>
</svg>
