<svg width="639" height="603" viewBox="0 0 639 603" fill="none" xmlns="http://www.w3.org/2000/svg">
<g filter="url(#filter0_d_5248_1139)">
<rect x="8" y="4" width="623" height="586.506" rx="8" fill="white"/>
<rect x="8.5" y="4.5" width="622" height="585.506" rx="7.5" stroke="#C9C9C9"/>
</g>
<rect x="30.1572" y="49.6172" width="148.582" height="11.7301" rx="2" fill="#C9C9C9"/>
<rect x="65.3477" y="80.8975" width="148.582" height="11.7301" rx="2" fill="#C9C9C9"/>
<rect x="574.956" y="39.1904" width="33.887" height="33.887" rx="2" fill="#C9C9C9"/>
<rect x="30.6572" y="478.918" width="577.686" height="34.1904" rx="1.5" stroke="#939393"/>
<rect x="417.251" y="166.918" width="148.582" height="11.7301" rx="2" fill="#C9C9C9"/>
<rect x="498.059" y="393.701" width="67.7741" height="11.7301" rx="2" fill="#C9C9C9"/>
<rect x="65.3477" y="135.638" width="49.5272" height="11.7301" rx="2" fill="#C9C9C9"/>
<path d="M65.3477 96.5376H323.32C325.53 96.5376 327.32 98.3285 327.32 100.538V127.728C327.32 129.937 325.53 131.728 323.32 131.728H69.3477C67.1385 131.728 65.3477 129.937 65.3477 127.728V96.5376Z" fill="#F1F1F1"/>
<rect x="507.616" y="104.128" width="94.0455" height="27.6003" fill="#2E9FDB"/>
<g filter="url(#filter1_d_5248_1139)">
<path d="M490.238 79.5942L495.349 105.15L500.972 95.4389L512.727 92.8833L490.238 79.5942Z" fill="#2E9FDB"/>
<path d="M490.238 79.5942L495.349 105.15L500.972 95.4389L512.727 92.8833L490.238 79.5942Z" stroke="white" stroke-width="1.5"/>
</g>
<path d="M534.057 117.83C534.057 119.557 533.585 120.859 532.64 121.737C531.705 122.605 530.398 123.039 528.719 123.039H525.871V112.821H529.02C530.04 112.821 530.928 113.012 531.681 113.393C532.445 113.775 533.031 114.338 533.442 115.082C533.852 115.826 534.057 116.742 534.057 117.83ZM532.698 117.873C532.698 116.508 532.359 115.511 531.681 114.882C531.014 114.242 530.064 113.923 528.834 113.923H527.159V121.937H528.547C531.314 121.937 532.698 120.582 532.698 117.873Z" fill="white"/>
<path d="M539.116 115.225C539.764 115.225 540.327 115.368 540.804 115.654C541.281 115.941 541.644 116.346 541.892 116.871C542.15 117.386 542.279 117.992 542.279 118.688V119.447H537.026C537.045 120.315 537.265 120.978 537.685 121.436C538.114 121.885 538.71 122.109 539.474 122.109C539.96 122.109 540.389 122.066 540.762 121.98C541.143 121.885 541.534 121.751 541.935 121.579V122.681C541.544 122.853 541.157 122.977 540.776 123.053C540.394 123.139 539.941 123.182 539.416 123.182C538.682 123.182 538.038 123.034 537.484 122.739C536.931 122.443 536.497 122.004 536.182 121.422C535.877 120.84 535.724 120.12 535.724 119.261C535.724 118.421 535.862 117.701 536.139 117.1C536.425 116.499 536.821 116.036 537.327 115.712C537.842 115.387 538.438 115.225 539.116 115.225ZM539.101 116.256C538.5 116.256 538.023 116.451 537.67 116.842C537.327 117.224 537.122 117.758 537.055 118.445H540.962C540.952 117.796 540.8 117.272 540.504 116.871C540.208 116.461 539.741 116.256 539.101 116.256Z" fill="white"/>
<path d="M549.226 120.921C549.226 121.665 548.949 122.228 548.396 122.61C547.843 122.991 547.098 123.182 546.163 123.182C545.629 123.182 545.166 123.139 544.775 123.053C544.394 122.968 544.055 122.848 543.759 122.696V121.551C544.064 121.703 544.432 121.846 544.861 121.98C545.3 122.104 545.744 122.166 546.192 122.166C546.831 122.166 547.294 122.066 547.58 121.866C547.866 121.656 548.01 121.379 548.01 121.036C548.01 120.845 547.957 120.673 547.852 120.52C547.747 120.368 547.556 120.215 547.28 120.062C547.012 119.91 546.626 119.738 546.12 119.547C545.624 119.356 545.2 119.166 544.847 118.975C544.494 118.784 544.222 118.555 544.031 118.288C543.84 118.021 543.745 117.677 543.745 117.257C543.745 116.609 544.007 116.108 544.532 115.755C545.066 115.402 545.763 115.225 546.621 115.225C547.089 115.225 547.523 115.273 547.924 115.368C548.334 115.464 548.716 115.588 549.069 115.74L548.639 116.742C548.315 116.609 547.976 116.494 547.623 116.399C547.27 116.303 546.908 116.256 546.535 116.256C546.02 116.256 545.624 116.341 545.348 116.513C545.08 116.675 544.947 116.9 544.947 117.186C544.947 117.405 545.009 117.587 545.133 117.73C545.257 117.873 545.462 118.016 545.748 118.159C546.044 118.302 546.435 118.464 546.922 118.646C547.408 118.827 547.823 119.013 548.167 119.204C548.51 119.394 548.773 119.628 548.954 119.905C549.135 120.172 549.226 120.511 549.226 120.921Z" fill="white"/>
<path d="M551.723 112.492C551.914 112.492 552.081 112.558 552.224 112.692C552.377 112.816 552.453 113.016 552.453 113.293C552.453 113.57 552.377 113.775 552.224 113.909C552.081 114.033 551.914 114.095 551.723 114.095C551.514 114.095 551.337 114.033 551.194 113.909C551.051 113.775 550.979 113.57 550.979 113.293C550.979 113.016 551.051 112.816 551.194 112.692C551.337 112.558 551.514 112.492 551.723 112.492ZM552.339 115.368V123.039H551.079V115.368H552.339Z" fill="white"/>
<path d="M557.488 115.225C557.994 115.225 558.447 115.321 558.848 115.511C559.258 115.702 559.606 115.993 559.893 116.384H559.964L560.136 115.368H561.138V123.168C561.138 124.265 560.856 125.09 560.293 125.644C559.74 126.197 558.876 126.474 557.703 126.474C556.577 126.474 555.656 126.312 554.941 125.987V124.828C555.695 125.229 556.639 125.429 557.774 125.429C558.433 125.429 558.948 125.233 559.32 124.842C559.702 124.461 559.893 123.936 559.893 123.268V122.968C559.893 122.853 559.897 122.691 559.907 122.481C559.916 122.262 559.926 122.109 559.935 122.023H559.878C559.363 122.796 558.571 123.182 557.503 123.182C556.51 123.182 555.733 122.834 555.17 122.137C554.616 121.441 554.34 120.468 554.34 119.218C554.34 117.997 554.616 117.028 555.17 116.313C555.733 115.588 556.506 115.225 557.488 115.225ZM557.66 116.284C557.021 116.284 556.525 116.542 556.172 117.057C555.819 117.563 555.642 118.288 555.642 119.232C555.642 120.177 555.814 120.902 556.157 121.408C556.501 121.904 557.011 122.152 557.689 122.152C558.461 122.152 559.024 121.947 559.377 121.536C559.73 121.117 559.907 120.444 559.907 119.519V119.218C559.907 118.178 559.726 117.429 559.363 116.971C559 116.513 558.433 116.284 557.66 116.284Z" fill="white"/>
<path d="M567.266 115.225C568.182 115.225 568.874 115.449 569.341 115.898C569.809 116.346 570.043 117.062 570.043 118.044V123.039H568.798V118.13C568.798 116.9 568.225 116.284 567.08 116.284C566.231 116.284 565.644 116.523 565.32 117C564.995 117.477 564.833 118.164 564.833 119.061V123.039H563.574V115.368H564.59L564.776 116.413H564.848C565.096 116.012 565.439 115.717 565.878 115.526C566.317 115.325 566.78 115.225 567.266 115.225Z" fill="white"/>
<path d="M575.383 115.225C576.032 115.225 576.595 115.368 577.072 115.654C577.549 115.941 577.911 116.346 578.159 116.871C578.417 117.386 578.546 117.992 578.546 118.688V119.447H573.294C573.313 120.315 573.532 120.978 573.952 121.436C574.381 121.885 574.978 122.109 575.741 122.109C576.227 122.109 576.657 122.066 577.029 121.98C577.41 121.885 577.802 121.751 578.202 121.579V122.681C577.811 122.853 577.425 122.977 577.043 123.053C576.662 123.139 576.208 123.182 575.684 123.182C574.949 123.182 574.305 123.034 573.752 122.739C573.198 122.443 572.764 122.004 572.449 121.422C572.144 120.84 571.991 120.12 571.991 119.261C571.991 118.421 572.13 117.701 572.406 117.1C572.693 116.499 573.088 116.036 573.594 115.712C574.109 115.387 574.706 115.225 575.383 115.225ZM575.369 116.256C574.768 116.256 574.291 116.451 573.938 116.842C573.594 117.224 573.389 117.758 573.322 118.445H577.229C577.22 117.796 577.067 117.272 576.771 116.871C576.475 116.461 576.008 116.256 575.369 116.256Z" fill="white"/>
<path d="M584.076 115.225C584.22 115.225 584.372 115.235 584.534 115.254C584.697 115.263 584.844 115.282 584.978 115.311L584.821 116.47C584.697 116.442 584.558 116.418 584.406 116.399C584.253 116.38 584.115 116.37 583.991 116.37C583.599 116.37 583.232 116.48 582.889 116.699C582.545 116.909 582.268 117.21 582.059 117.601C581.858 117.982 581.758 118.431 581.758 118.946V123.039H580.499V115.368H581.529L581.672 116.771H581.729C581.968 116.351 582.283 115.988 582.674 115.683C583.075 115.378 583.542 115.225 584.076 115.225Z" fill="white"/>
<rect x="195.782" y="521.729" width="100.257" height="26.067" fill="#51A651"/>
<g filter="url(#filter2_d_5248_1139)">
<path d="M178.738 496.665L183.751 521.729L189.265 512.205L200.795 509.699L178.738 496.665Z" fill="#51A651"/>
<path d="M178.738 496.665L183.751 521.729L189.265 512.205L200.795 509.699L178.738 496.665Z" stroke="white" stroke-width="1.5"/>
</g>
<path d="M221.214 534.166C221.214 535.859 220.751 537.137 219.825 537.998C218.908 538.849 217.626 539.275 215.979 539.275H213.186V529.253H216.273C217.275 529.253 218.145 529.44 218.884 529.815C219.633 530.189 220.208 530.741 220.611 531.471C221.013 532.201 221.214 533.099 221.214 534.166ZM219.881 534.208C219.881 532.87 219.549 531.892 218.884 531.274C218.229 530.647 217.298 530.334 216.091 530.334H214.449V538.194H215.81C218.524 538.194 219.881 536.865 219.881 534.208Z" fill="white"/>
<path d="M226.175 531.611C226.812 531.611 227.364 531.751 227.832 532.032C228.3 532.313 228.655 532.711 228.898 533.225C229.151 533.731 229.277 534.325 229.277 535.008V535.752H224.126C224.145 536.603 224.36 537.254 224.772 537.703C225.193 538.143 225.778 538.362 226.526 538.362C227.004 538.362 227.425 538.32 227.79 538.236C228.164 538.143 228.548 538.012 228.941 537.843V538.924C228.557 539.092 228.178 539.214 227.804 539.289C227.429 539.373 226.985 539.415 226.47 539.415C225.75 539.415 225.118 539.27 224.575 538.98C224.033 538.69 223.607 538.26 223.298 537.689C222.999 537.118 222.849 536.411 222.849 535.569C222.849 534.746 222.985 534.039 223.256 533.45C223.537 532.86 223.925 532.407 224.421 532.088C224.926 531.77 225.511 531.611 226.175 531.611ZM226.161 532.622C225.572 532.622 225.104 532.814 224.758 533.197C224.421 533.572 224.22 534.096 224.154 534.769H227.986C227.977 534.133 227.827 533.618 227.537 533.225C227.247 532.823 226.788 532.622 226.161 532.622Z" fill="white"/>
<path d="M232.575 539.275L229.725 531.751H231.045L232.645 536.187C232.72 536.393 232.799 536.622 232.884 536.875C232.968 537.127 233.043 537.371 233.108 537.605C233.174 537.838 233.22 538.03 233.249 538.18H233.305C233.333 538.03 233.384 537.838 233.459 537.605C233.534 537.361 233.613 537.118 233.698 536.875C233.782 536.622 233.861 536.393 233.936 536.187L235.536 531.751H236.856L233.992 539.275H232.575Z" fill="white"/>
<path d="M240.952 531.611C241.588 531.611 242.14 531.751 242.608 532.032C243.076 532.313 243.431 532.711 243.675 533.225C243.927 533.731 244.054 534.325 244.054 535.008V535.752H238.902C238.921 536.603 239.136 537.254 239.548 537.703C239.969 538.143 240.554 538.362 241.303 538.362C241.78 538.362 242.201 538.32 242.566 538.236C242.94 538.143 243.324 538.012 243.717 537.843V538.924C243.333 539.092 242.954 539.214 242.58 539.289C242.206 539.373 241.761 539.415 241.246 539.415C240.526 539.415 239.894 539.27 239.352 538.98C238.809 538.69 238.383 538.26 238.074 537.689C237.775 537.118 237.625 536.411 237.625 535.569C237.625 534.746 237.761 534.039 238.032 533.45C238.313 532.86 238.701 532.407 239.197 532.088C239.702 531.77 240.287 531.611 240.952 531.611ZM240.938 532.622C240.348 532.622 239.88 532.814 239.534 533.197C239.197 533.572 238.996 534.096 238.931 534.769H242.762C242.753 534.133 242.603 533.618 242.313 533.225C242.023 532.823 241.565 532.622 240.938 532.622Z" fill="white"/>
<path d="M247.204 539.275H245.969V528.607H247.204V539.275Z" fill="white"/>
<path d="M256.128 535.499C256.128 536.744 255.81 537.707 255.174 538.391C254.547 539.074 253.695 539.415 252.619 539.415C251.955 539.415 251.361 539.265 250.837 538.966C250.322 538.657 249.915 538.213 249.616 537.633C249.316 537.043 249.167 536.332 249.167 535.499C249.167 534.255 249.475 533.295 250.093 532.622C250.72 531.948 251.576 531.611 252.661 531.611C253.335 531.611 253.934 531.766 254.458 532.074C254.982 532.374 255.389 532.814 255.679 533.394C255.979 533.965 256.128 534.666 256.128 535.499ZM250.444 535.499C250.444 536.388 250.617 537.095 250.963 537.619C251.319 538.133 251.88 538.391 252.647 538.391C253.405 538.391 253.962 538.133 254.318 537.619C254.673 537.095 254.851 536.388 254.851 535.499C254.851 534.61 254.673 533.913 254.318 533.408C253.962 532.902 253.401 532.65 252.633 532.65C251.866 532.65 251.309 532.902 250.963 533.408C250.617 533.913 250.444 534.61 250.444 535.499Z" fill="white"/>
<path d="M261.665 531.611C262.592 531.611 263.335 531.934 263.897 532.58C264.468 533.225 264.753 534.198 264.753 535.499C264.753 536.781 264.468 537.754 263.897 538.419C263.335 539.083 262.587 539.415 261.651 539.415C261.071 539.415 260.589 539.308 260.205 539.092C259.831 538.877 259.536 538.62 259.321 538.32H259.237C259.246 538.479 259.26 538.681 259.279 538.924C259.307 539.167 259.321 539.378 259.321 539.556V542.643H258.086V531.751H259.097L259.265 532.776H259.321C259.546 532.449 259.84 532.173 260.205 531.948C260.57 531.723 261.057 531.611 261.665 531.611ZM261.441 532.65C260.673 532.65 260.131 532.865 259.812 533.295C259.494 533.726 259.331 534.381 259.321 535.261V535.499C259.321 536.426 259.471 537.141 259.77 537.647C260.079 538.143 260.645 538.391 261.469 538.391C261.918 538.391 262.292 538.269 262.592 538.026C262.891 537.773 263.111 537.427 263.251 536.987C263.401 536.547 263.476 536.047 263.476 535.485C263.476 534.624 263.307 533.936 262.971 533.422C262.643 532.907 262.133 532.65 261.441 532.65Z" fill="white"/>
<path d="M269.627 531.611C270.263 531.611 270.815 531.751 271.283 532.032C271.751 532.313 272.107 532.711 272.35 533.225C272.603 533.731 272.729 534.325 272.729 535.008V535.752H267.578C267.596 536.603 267.812 537.254 268.223 537.703C268.644 538.143 269.229 538.362 269.978 538.362C270.455 538.362 270.876 538.32 271.241 538.236C271.615 538.143 271.999 538.012 272.392 537.843V538.924C272.008 539.092 271.629 539.214 271.255 539.289C270.881 539.373 270.436 539.415 269.922 539.415C269.201 539.415 268.57 539.27 268.027 538.98C267.484 538.69 267.058 538.26 266.75 537.689C266.45 537.118 266.3 536.411 266.3 535.569C266.3 534.746 266.436 534.039 266.707 533.45C266.988 532.86 267.376 532.407 267.872 532.088C268.378 531.77 268.963 531.611 269.627 531.611ZM269.613 532.622C269.023 532.622 268.555 532.814 268.209 533.197C267.872 533.572 267.671 534.096 267.606 534.769H271.438C271.428 534.133 271.278 533.618 270.988 533.225C270.698 532.823 270.24 532.622 269.613 532.622Z" fill="white"/>
<path d="M278.153 531.611C278.294 531.611 278.443 531.62 278.602 531.639C278.761 531.649 278.906 531.667 279.037 531.695L278.883 532.832C278.761 532.804 278.626 532.781 278.476 532.762C278.326 532.743 278.191 532.734 278.069 532.734C277.685 532.734 277.325 532.842 276.988 533.057C276.651 533.263 276.38 533.557 276.174 533.941C275.978 534.315 275.879 534.755 275.879 535.261V539.275H274.644V531.751H275.655L275.795 533.127H275.851C276.085 532.715 276.394 532.36 276.778 532.06C277.171 531.761 277.629 531.611 278.153 531.611Z" fill="white"/>
<path d="M541.982 55.7101C538.952 55.7101 536.508 58.1538 536.508 61.1841C536.508 61.2819 536.508 61.8684 536.508 61.9661C536.508 62.3571 536.899 62.6504 537.192 62.6504C537.583 62.6504 537.876 62.2594 537.876 61.8684V61.1841C537.876 58.9359 539.636 57.1763 541.884 57.1763C542.471 57.1763 543.057 57.2741 543.546 57.5673C543.839 57.1763 544.132 56.6876 544.426 56.3943C543.741 55.9056 542.862 55.7101 541.982 55.7101Z" fill="#1B77AF"/>
<path d="M541.982 54.6348C543.839 54.6348 545.305 53.1685 545.305 51.3113C545.305 49.454 543.839 47.9877 541.982 47.9877C540.125 47.9877 538.658 49.454 538.658 51.3113C538.658 53.1685 540.125 54.6348 541.982 54.6348ZM541.982 49.454C543.057 49.454 543.839 50.236 543.839 51.3113C543.839 52.3865 543.057 53.1685 541.982 53.1685C541.004 53.1685 540.125 52.2888 540.125 51.3113C540.125 50.236 541.004 49.454 541.982 49.454Z" fill="#1B77AF"/>
<path d="M558.404 55.7101C557.524 55.7101 556.645 55.9056 555.863 56.2966C556.156 56.6876 556.449 57.0786 556.742 57.4696C557.231 57.2741 557.818 57.0786 558.404 57.0786C560.652 57.0786 562.412 58.8381 562.412 61.0864V61.7706C562.412 62.1616 562.705 62.5526 563.096 62.5526C563.487 62.5526 563.78 62.2594 563.878 61.8684V61.0864C563.878 58.1538 561.434 55.7101 558.404 55.7101Z" fill="#1B77AF"/>
<path d="M558.404 54.6348C560.261 54.6348 561.728 53.1685 561.728 51.3113C561.728 49.454 560.261 47.9877 558.404 47.9877C556.547 47.9877 555.081 49.454 555.081 51.3113C555.081 53.1685 556.547 54.6348 558.404 54.6348ZM558.404 49.454C559.382 49.454 560.261 50.236 560.261 51.3113C560.261 52.3865 559.382 53.1685 558.404 53.1685C557.329 53.1685 556.547 52.2888 556.547 51.3113C556.547 50.236 557.427 49.454 558.404 49.454Z" fill="#1B77AF"/>
<path d="M550.193 55.0258C546.674 55.0258 543.839 57.8606 543.839 61.3796V63.6279C543.839 64.0189 544.132 64.4099 544.621 64.4099C545.11 64.4099 545.305 64.0189 545.305 63.6279V61.2819C545.305 58.6426 547.456 56.3943 550.193 56.3943C552.93 56.3943 555.081 58.5448 555.081 61.2819V63.6279C555.081 64.0189 555.374 64.4099 555.863 64.4099C556.351 64.4099 556.645 64.1167 556.645 63.6279V61.2819C556.547 57.8606 553.712 55.0258 550.193 55.0258Z" fill="#1B77AF"/>
<path d="M550.193 53.6573C552.246 53.6573 554.005 51.9955 554.005 49.845C554.005 47.6945 552.246 46.0327 550.193 46.0327C548.14 46.0327 546.381 47.6945 546.381 49.845C546.381 51.8978 548.14 53.6573 550.193 53.6573ZM550.193 47.499C551.464 47.499 552.539 48.5742 552.539 49.845C552.539 51.1158 551.464 52.191 550.193 52.191C548.922 52.191 547.847 51.1158 547.847 49.845C547.847 48.5742 548.922 47.499 550.193 47.499Z" fill="#1B77AF"/>
<path d="M58.8309 93.9311C58.8309 101.849 52.4121 108.268 44.494 108.268C36.576 108.268 30.1572 101.849 30.1572 93.9311C30.1572 86.0131 36.576 79.5942 44.494 79.5942C52.4121 79.5942 58.8309 86.0131 58.8309 93.9311Z" fill="#003A51"/>
<path d="M604.933 181.255C604.933 189.173 598.515 195.592 590.597 195.592C582.679 195.592 576.26 189.173 576.26 181.255C576.26 173.337 582.679 166.918 590.597 166.918C598.515 166.918 604.933 173.337 604.933 181.255Z" fill="#C9C9C9"/>
<path d="M36.6738 90.021H38.8437C39.7868 90.021 40.5031 90.1427 40.9923 90.3861C41.4816 90.6295 41.7263 91.0463 41.7263 91.6365C41.7263 92.0198 41.6022 92.3393 41.354 92.5948C41.1058 92.8443 40.7477 93.0056 40.2797 93.0786V93.1242C40.5988 93.1729 40.886 93.255 41.1413 93.3706C41.4036 93.4862 41.6093 93.6505 41.7582 93.8635C41.9071 94.0765 41.9816 94.3503 41.9816 94.6849C41.9816 95.2752 41.744 95.7315 41.2689 96.054C40.8009 96.3765 40.1591 96.5377 39.3437 96.5377H36.6738V90.021ZM37.6311 92.7956H39.0352C39.6805 92.7956 40.1237 92.7074 40.3648 92.5309C40.613 92.3484 40.7371 92.0807 40.7371 91.7278C40.7371 91.3688 40.5882 91.1132 40.2903 90.9611C39.9996 90.8029 39.5316 90.7238 38.8863 90.7238H37.6311V92.7956ZM37.6311 93.4802V95.8441H39.1628C39.8365 95.8441 40.3045 95.7315 40.5669 95.5064C40.8292 95.2812 40.9604 94.9861 40.9604 94.621C40.9604 94.2803 40.8222 94.0065 40.5456 93.7996C40.2761 93.5866 39.7904 93.4802 39.0884 93.4802H37.6311Z" fill="white"/>
<path d="M52.314 90.021L50.293 96.5377H49.3251L47.8466 92.2663C47.7827 92.0959 47.7225 91.9225 47.6657 91.746C47.6161 91.5635 47.57 91.4053 47.5275 91.2714C47.492 91.1315 47.4707 91.0341 47.4636 90.9793C47.4566 91.0584 47.4175 91.2288 47.3466 91.4905C47.2757 91.746 47.1942 92.0137 47.102 92.2936L45.666 96.5377H44.6981L42.6877 90.021H43.6876L44.8683 94.0004C44.9534 94.2803 45.0243 94.5511 45.081 94.8127C45.1448 95.0744 45.1945 95.3208 45.2299 95.552C45.2654 95.3147 45.3186 95.0561 45.3895 94.7762C45.4604 94.4963 45.5419 94.2225 45.6341 93.9548L46.9744 90.021H47.9636L49.357 93.9822C49.4563 94.262 49.5414 94.5419 49.6123 94.8218C49.6832 95.1017 49.7364 95.3451 49.7718 95.552C49.8002 95.3269 49.8463 95.0835 49.9101 94.8218C49.981 94.5541 50.059 94.2773 50.1441 93.9913L51.3141 90.021H52.314Z" fill="white"/>
<path d="M46.3838 500.054H43.1904V499.376L44.2301 499.129V491.686L43.1904 491.426V490.748H46.3838V491.426L45.3441 491.686V499.129L46.3838 499.376V500.054Z" fill="black"/>
<path d="M52.2461 490.148V493.055C52.2461 493.402 52.2255 493.728 52.1842 494.032H52.2585C52.473 493.676 52.7618 493.407 53.1249 493.224C53.4962 493.042 53.8964 492.951 54.3255 492.951C55.1259 492.951 55.7283 493.155 56.1326 493.563C56.5452 493.963 56.7515 494.61 56.7515 495.505V500.054H55.6746V495.583C55.6746 494.463 55.1795 493.902 54.1894 493.902C53.4467 493.902 52.9351 494.124 52.6546 494.567C52.3823 495.001 52.2461 495.627 52.2461 496.444V500.054H51.1569V490.148H52.2461Z" fill="black"/>
<path d="M64.576 496.548C64.576 497.704 64.2954 498.598 63.7343 499.233C63.1815 499.867 62.4306 500.184 61.4816 500.184C60.8958 500.184 60.3718 500.045 59.9097 499.767C59.4559 499.48 59.0969 499.068 58.8329 498.529C58.5688 497.982 58.4368 497.321 58.4368 496.548C58.4368 495.392 58.7091 494.502 59.2537 493.876C59.8066 493.25 60.5616 492.938 61.5188 492.938C62.1129 492.938 62.641 493.081 63.1031 493.368C63.5652 493.646 63.9241 494.054 64.1799 494.593C64.444 495.123 64.576 495.775 64.576 496.548ZM59.5632 496.548C59.5632 497.373 59.7158 498.029 60.0211 498.516C60.3347 498.994 60.8298 499.233 61.5064 499.233C62.1748 499.233 62.6657 498.994 62.9793 498.516C63.2929 498.029 63.4496 497.373 63.4496 496.548C63.4496 495.722 63.2929 495.075 62.9793 494.606C62.6657 494.137 62.1707 493.902 61.494 493.902C60.8174 493.902 60.3264 494.137 60.0211 494.606C59.7158 495.075 59.5632 495.722 59.5632 496.548Z" fill="black"/>
<path d="M69.4585 492.938C70.2754 492.938 70.9314 493.237 71.4265 493.837C71.9298 494.436 72.1815 495.34 72.1815 496.548C72.1815 497.738 71.9298 498.642 71.4265 499.259C70.9314 499.876 70.2712 500.184 69.4461 500.184C68.9345 500.184 68.5095 500.084 68.1712 499.884C67.8412 499.685 67.5812 499.446 67.3914 499.168H67.3172C67.3254 499.315 67.3378 499.502 67.3543 499.728C67.3791 499.954 67.3914 500.149 67.3914 500.315V503.182H66.3022V493.068H67.1934L67.3419 494.019H67.3914C67.5895 493.715 67.8494 493.459 68.1712 493.25C68.493 493.042 68.9221 492.938 69.4585 492.938ZM69.2604 493.902C68.5838 493.902 68.1052 494.102 67.8247 494.502C67.5441 494.901 67.3997 495.51 67.3914 496.326V496.548C67.3914 497.408 67.5235 498.073 67.7875 498.542C68.0598 499.003 68.559 499.233 69.2852 499.233C69.6813 499.233 70.0113 499.12 70.2754 498.894C70.5394 498.659 70.7333 498.338 70.8571 497.929C70.9891 497.521 71.0551 497.056 71.0551 496.535C71.0551 495.735 70.9066 495.097 70.6096 494.619C70.3208 494.141 69.871 493.902 69.2604 493.902Z" fill="black"/>
<path d="M76.4793 492.938C77.0404 492.938 77.5273 493.068 77.9399 493.329C78.3524 493.589 78.666 493.959 78.8805 494.436C79.1033 494.906 79.2147 495.457 79.2147 496.092V496.782H74.6722C74.6887 497.573 74.8785 498.177 75.2416 498.594C75.6129 499.003 76.1286 499.207 76.7888 499.207C77.2096 499.207 77.5809 499.168 77.9027 499.089C78.2328 499.003 78.5711 498.881 78.9177 498.724V499.728C78.5794 499.884 78.2452 499.997 77.9151 500.067C77.585 500.145 77.1931 500.184 76.7393 500.184C76.1039 500.184 75.5469 500.05 75.0683 499.78C74.5897 499.511 74.2143 499.111 73.942 498.581C73.6779 498.051 73.5459 497.395 73.5459 496.613C73.5459 495.848 73.6655 495.192 73.9048 494.645C74.1524 494.098 74.4948 493.676 74.9322 493.381C75.3777 493.085 75.8935 492.938 76.4793 492.938ZM76.467 493.876C75.9471 493.876 75.5345 494.054 75.2292 494.41C74.9322 494.758 74.7548 495.245 74.697 495.87H78.076C78.0678 495.279 77.9357 494.801 77.6799 494.436C77.4241 494.063 77.0198 493.876 76.467 493.876Z" fill="black"/>
<path d="M86.3344 499.246C86.4994 499.246 86.6686 499.233 86.8419 499.207C87.0152 499.181 87.1554 499.146 87.2627 499.102V499.976C87.1472 500.037 86.9822 500.084 86.7676 500.119C86.5531 500.162 86.3468 500.184 86.1488 500.184C85.8022 500.184 85.4804 500.123 85.1833 500.002C84.8945 499.871 84.6593 499.65 84.4778 499.337C84.2963 499.024 84.2055 498.585 84.2055 498.021V493.954H83.2648V493.407L84.2179 492.951L84.6511 491.465H85.2947V493.068H87.2132V493.954H85.2947V497.995C85.2947 498.42 85.3896 498.737 85.5794 498.946C85.7774 499.146 86.0291 499.246 86.3344 499.246Z" fill="black"/>
<path d="M89.6804 490.148V493.055C89.6804 493.402 89.6597 493.728 89.6185 494.032H89.6927C89.9073 493.676 90.1961 493.407 90.5592 493.224C90.9305 493.042 91.3307 492.951 91.7598 492.951C92.5602 492.951 93.1625 493.155 93.5669 493.563C93.9794 493.963 94.1857 494.61 94.1857 495.505V500.054H93.1089V495.583C93.1089 494.463 92.6138 493.902 91.6236 493.902C90.881 493.902 90.3694 494.124 90.0888 494.567C89.8165 495.001 89.6804 495.627 89.6804 496.444V500.054H88.5912V490.148H89.6804Z" fill="black"/>
<path d="M96.7994 490.448C96.9644 490.448 97.1088 490.509 97.2326 490.631C97.3646 490.744 97.4306 490.926 97.4306 491.178C97.4306 491.43 97.3646 491.617 97.2326 491.739C97.1088 491.851 96.9644 491.908 96.7994 491.908C96.6178 491.908 96.4652 491.851 96.3414 491.739C96.2176 491.617 96.1558 491.43 96.1558 491.178C96.1558 490.926 96.2176 490.744 96.3414 490.631C96.4652 490.509 96.6178 490.448 96.7994 490.448ZM97.3316 493.068V500.054H96.2424V493.068H97.3316Z" fill="black"/>
<path d="M103.753 498.125C103.753 498.803 103.514 499.315 103.035 499.663C102.557 500.01 101.913 500.184 101.104 500.184C100.642 500.184 100.242 500.145 99.9038 500.067C99.5737 499.989 99.2808 499.88 99.025 499.741V498.698C99.289 498.837 99.6067 498.968 99.978 499.089C100.358 499.202 100.741 499.259 101.129 499.259C101.682 499.259 102.082 499.168 102.33 498.985C102.577 498.794 102.701 498.542 102.701 498.229C102.701 498.055 102.656 497.899 102.565 497.76C102.474 497.621 102.309 497.482 102.07 497.343C101.839 497.204 101.505 497.047 101.067 496.874C100.638 496.7 100.271 496.526 99.9657 496.352C99.6604 496.179 99.4252 495.97 99.2601 495.727C99.0951 495.483 99.0126 495.171 99.0126 494.788C99.0126 494.198 99.2395 493.741 99.6934 493.42C100.155 493.098 100.758 492.938 101.5 492.938C101.905 492.938 102.28 492.981 102.627 493.068C102.982 493.155 103.312 493.268 103.617 493.407L103.246 494.319C102.965 494.198 102.672 494.093 102.367 494.006C102.062 493.919 101.748 493.876 101.426 493.876C100.981 493.876 100.638 493.954 100.399 494.111C100.168 494.258 100.052 494.463 100.052 494.723C100.052 494.923 100.106 495.088 100.213 495.218C100.32 495.349 100.498 495.479 100.745 495.609C101.001 495.74 101.34 495.888 101.76 496.053C102.181 496.218 102.54 496.387 102.837 496.561C103.134 496.735 103.361 496.948 103.518 497.2C103.675 497.443 103.753 497.751 103.753 498.125Z" fill="black"/>
<path d="M109.661 490.148V493.055C109.661 493.402 109.64 493.728 109.599 494.032H109.673C109.888 493.676 110.176 493.407 110.539 493.224C110.911 493.042 111.311 492.951 111.74 492.951C112.54 492.951 113.143 493.155 113.547 493.563C113.96 493.963 114.166 494.61 114.166 495.505V500.054H113.089V495.583C113.089 494.463 112.594 493.902 111.604 493.902C110.861 493.902 110.35 494.124 110.069 494.567C109.797 495.001 109.661 495.627 109.661 496.444V500.054H108.571V490.148H109.661Z" fill="black"/>
<path d="M118.785 492.938C119.346 492.938 119.833 493.068 120.245 493.329C120.658 493.589 120.971 493.959 121.186 494.436C121.409 494.906 121.52 495.457 121.52 496.092V496.782H116.978C116.994 497.573 117.184 498.177 117.547 498.594C117.918 499.003 118.434 499.207 119.094 499.207C119.515 499.207 119.886 499.168 120.208 499.089C120.538 499.003 120.877 498.881 121.223 498.724V499.728C120.885 499.884 120.551 499.997 120.221 500.067C119.89 500.145 119.499 500.184 119.045 500.184C118.409 500.184 117.852 500.05 117.374 499.78C116.895 499.511 116.52 499.111 116.247 498.581C115.983 498.051 115.851 497.395 115.851 496.613C115.851 495.848 115.971 495.192 116.21 494.645C116.458 494.098 116.8 493.676 117.238 493.381C117.683 493.085 118.199 492.938 118.785 492.938ZM118.772 493.876C118.253 493.876 117.84 494.054 117.535 494.41C117.238 494.758 117.06 495.245 117.002 495.87H120.381C120.373 495.279 120.241 494.801 119.985 494.436C119.73 494.063 119.325 493.876 118.772 493.876Z" fill="black"/>
<path d="M124.298 500.054H123.209V490.148H124.298V500.054Z" fill="black"/>
<path d="M129.556 492.938C130.373 492.938 131.029 493.237 131.524 493.837C132.028 494.436 132.279 495.34 132.279 496.548C132.279 497.738 132.028 498.642 131.524 499.259C131.029 499.876 130.369 500.184 129.544 500.184C129.032 500.184 128.607 500.084 128.269 499.884C127.939 499.685 127.679 499.446 127.489 499.168H127.415C127.423 499.315 127.436 499.502 127.452 499.728C127.477 499.954 127.489 500.149 127.489 500.315V503.182H126.4V493.068H127.291L127.44 494.019H127.489C127.687 493.715 127.947 493.459 128.269 493.25C128.591 493.042 129.02 492.938 129.556 492.938ZM129.358 493.902C128.682 493.902 128.203 494.102 127.923 494.502C127.642 494.901 127.498 495.51 127.489 496.326V496.548C127.489 497.408 127.621 498.073 127.885 498.542C128.158 499.003 128.657 499.233 129.383 499.233C129.779 499.233 130.109 499.12 130.373 498.894C130.637 498.659 130.831 498.338 130.955 497.929C131.087 497.521 131.153 497.056 131.153 496.535C131.153 495.735 131.004 495.097 130.707 494.619C130.419 494.141 129.969 493.902 129.358 493.902Z" fill="black"/>
<path d="M138.335 498.125C138.335 498.803 138.095 499.315 137.617 499.663C137.138 500.01 136.495 500.184 135.686 500.184C135.224 500.184 134.824 500.145 134.485 500.067C134.155 499.989 133.862 499.88 133.607 499.741V498.698C133.871 498.837 134.188 498.968 134.56 499.089C134.939 499.202 135.323 499.259 135.711 499.259C136.264 499.259 136.664 499.168 136.911 498.985C137.159 498.794 137.283 498.542 137.283 498.229C137.283 498.055 137.237 497.899 137.147 497.76C137.056 497.621 136.891 497.482 136.651 497.343C136.42 497.204 136.086 497.047 135.649 496.874C135.22 496.7 134.853 496.526 134.547 496.352C134.242 496.179 134.007 495.97 133.842 495.727C133.677 495.483 133.594 495.171 133.594 494.788C133.594 494.198 133.821 493.741 134.275 493.42C134.737 493.098 135.339 492.938 136.082 492.938C136.486 492.938 136.862 492.981 137.208 493.068C137.563 493.155 137.893 493.268 138.199 493.407L137.827 494.319C137.547 494.198 137.254 494.093 136.949 494.006C136.643 493.919 136.33 493.876 136.008 493.876C135.562 493.876 135.22 493.954 134.981 494.111C134.749 494.258 134.634 494.463 134.634 494.723C134.634 494.923 134.688 495.088 134.795 495.218C134.902 495.349 135.08 495.479 135.327 495.609C135.583 495.74 135.921 495.888 136.342 496.053C136.763 496.218 137.122 496.387 137.419 496.561C137.716 496.735 137.943 496.948 138.1 497.2C138.256 497.443 138.335 497.751 138.335 498.125Z" fill="black"/>
<path fill-rule="evenodd" clip-rule="evenodd" d="M589.24 49.9801C589.02 49.4962 588.38 49.4962 588.16 49.9801L582.84 61.7048C582.64 62.1447 582.94 62.6507 583.38 62.6507C583.38 62.6507 594.08 62.6507 594.1 62.6507C594.12 62.6507 600.42 62.6507 600.42 62.6507C600.86 62.6507 601.16 62.1447 600.96 61.7048L597.84 54.8196C597.62 54.3356 596.98 54.3356 596.76 54.8196L594.1 60.6709L589.24 49.9801Z" fill="#F1F1F1"/>
<rect x="30.1572" y="521.429" width="33.887" height="33.887" rx="2" fill="#C9C9C9"/>
<path fill-rule="evenodd" clip-rule="evenodd" d="M44.4399 532.218C44.2199 531.734 43.5799 531.734 43.3599 532.218L38.0398 543.943C37.8398 544.383 38.1398 544.889 38.5798 544.889C38.5798 544.889 49.28 544.889 49.3 544.889C49.32 544.889 55.6202 544.889 55.6202 544.889C56.0602 544.889 56.3602 544.383 56.1602 543.943L53.0401 537.058C52.8201 536.574 52.1801 536.574 51.9601 537.058L49.3 542.909L44.4399 532.218Z" fill="#F1F1F1"/>
<rect x="70.5605" y="521.429" width="33.887" height="33.887" rx="2" fill="#C9C9C9"/>
<path fill-rule="evenodd" clip-rule="evenodd" d="M84.8442 532.218C84.6242 531.734 83.9842 531.734 83.7642 532.218L78.4441 543.943C78.2441 544.383 78.5441 544.889 78.9841 544.889C78.9841 544.889 89.6843 544.889 89.7043 544.889C89.7243 544.889 96.0245 544.889 96.0245 544.889C96.4645 544.889 96.7645 544.383 96.5645 543.943L93.4444 537.058C93.2244 536.574 92.5844 536.574 92.3644 537.058L89.7043 542.909L84.8442 532.218Z" fill="#F1F1F1"/>
<rect x="574.956" y="521.429" width="33.887" height="33.887" rx="2" fill="#C9C9C9"/>
<path fill-rule="evenodd" clip-rule="evenodd" d="M589.24 532.218C589.02 531.734 588.38 531.734 588.16 532.218L582.84 543.943C582.64 544.383 582.94 544.889 583.38 544.889C583.38 544.889 594.08 544.889 594.1 544.889C594.12 544.889 600.42 544.889 600.42 544.889C600.86 544.889 601.16 544.383 600.96 543.943L597.84 537.058C597.62 536.574 596.98 536.574 596.76 537.058L594.1 542.909L589.24 532.218Z" fill="#F1F1F1"/>
<path d="M173.525 186.559C173.525 184.349 175.316 182.559 177.525 182.559H565.833V385.791C565.833 388 564.042 389.791 561.833 389.791H177.525C175.316 389.791 173.525 388 173.525 385.791V186.559Z" fill="#E7F4FB"/>
<g filter="url(#filter3_d_5248_1139)">
<rect x="238.692" y="327.23" width="155.098" height="105.571" rx="4" fill="white"/>
</g>
<ellipse cx="259.546" cy="372.847" rx="10.4268" ry="10.4268" fill="#E7F4FB"/>
<path fill-rule="evenodd" clip-rule="evenodd" d="M259.546 385.392C266.474 385.392 272.091 379.775 272.091 372.847C272.091 365.919 266.474 360.302 259.546 360.302C252.618 360.302 247.001 365.919 247.001 372.847C247.001 379.775 252.618 385.392 259.546 385.392ZM259.546 387.184C267.464 387.184 273.883 380.765 273.883 372.847C273.883 364.929 267.464 358.51 259.546 358.51C251.628 358.51 245.209 364.929 245.209 372.847C245.209 380.765 251.628 387.184 259.546 387.184Z" fill="#2E9FDB"/>
<ellipse cx="259.546" cy="400.869" rx="10.4268" ry="11.0784" fill="#003A51"/>
<circle cx="288.22" cy="372.847" r="10.4268" fill="#ABD8F1"/>
<ellipse cx="288.22" cy="400.869" rx="10.4268" ry="11.0784" fill="#002837"/>
<ellipse cx="316.242" cy="372.847" rx="11.0785" ry="10.4268" fill="#2E9FDB"/>
<ellipse cx="344.264" cy="372.847" rx="10.4268" ry="10.4268" fill="#1B77AF"/>
<ellipse cx="372.938" cy="372.847" rx="10.4268" ry="10.4268" fill="#155E8B"/>
<path d="M250.423 345.944H252.613C253.565 345.944 254.288 346.08 254.782 346.35C255.276 346.621 255.523 347.085 255.523 347.742C255.523 348.168 255.397 348.524 255.147 348.808C254.896 349.086 254.535 349.265 254.062 349.346V349.397C254.384 349.451 254.674 349.543 254.932 349.671C255.197 349.8 255.404 349.983 255.555 350.22C255.705 350.457 255.78 350.762 255.78 351.134C255.78 351.791 255.54 352.298 255.061 352.657C254.588 353.016 253.941 353.196 253.118 353.196H250.423V345.944ZM251.389 349.032H252.806C253.458 349.032 253.905 348.933 254.148 348.737C254.399 348.534 254.524 348.236 254.524 347.843C254.524 347.444 254.374 347.16 254.073 346.99C253.78 346.814 253.307 346.726 252.656 346.726H251.389V349.032ZM251.389 349.793V352.424H252.935C253.615 352.424 254.087 352.298 254.352 352.048C254.617 351.797 254.75 351.469 254.75 351.063C254.75 350.684 254.61 350.379 254.331 350.149C254.059 349.912 253.569 349.793 252.86 349.793H251.389Z" fill="#939393"/>
<path d="M258.221 353.196H257.277V345.477H258.221V353.196Z" fill="#939393"/>
<path d="M264.854 347.752V353.196H264.081L263.942 352.475H263.899C263.713 352.759 263.455 352.969 263.126 353.104C262.797 353.233 262.446 353.297 262.074 353.297C261.379 353.297 260.857 353.141 260.506 352.83C260.156 352.512 259.98 352.007 259.98 351.317V347.752H260.936V351.256C260.936 352.122 261.362 352.556 262.213 352.556C262.85 352.556 263.291 352.386 263.534 352.048C263.784 351.709 263.91 351.222 263.91 350.586V347.752H264.854Z" fill="#939393"/>
<path d="M268.904 347.65C269.39 347.65 269.813 347.752 270.171 347.955C270.528 348.158 270.8 348.446 270.987 348.818C271.18 349.184 271.276 349.614 271.276 350.108V350.646H267.336C267.351 351.263 267.515 351.733 267.83 352.058C268.152 352.376 268.6 352.535 269.172 352.535C269.537 352.535 269.859 352.505 270.138 352.444C270.425 352.376 270.718 352.282 271.019 352.16V352.942C270.725 353.064 270.435 353.152 270.149 353.206C269.863 353.267 269.523 353.297 269.129 353.297C268.578 353.297 268.095 353.192 267.68 352.982C267.265 352.772 266.939 352.461 266.703 352.048C266.474 351.635 266.359 351.124 266.359 350.514C266.359 349.919 266.463 349.407 266.671 348.981C266.885 348.554 267.182 348.226 267.562 347.996C267.948 347.766 268.396 347.65 268.904 347.65ZM268.893 348.382C268.442 348.382 268.084 348.52 267.819 348.798C267.562 349.069 267.408 349.448 267.358 349.936H270.289C270.282 349.475 270.167 349.103 269.945 348.818C269.723 348.527 269.373 348.382 268.893 348.382Z" fill="#939393"/>
<rect x="275.62" y="392.167" width="108.357" height="27.6003" fill="#F38D00"/>
<g filter="url(#filter4_d_5248_1139)">
<path d="M258.242 367.634L263.353 393.19L268.976 383.478L280.731 380.923L258.242 367.634Z" fill="#F38D00"/>
<path d="M258.242 367.634L263.353 393.19L268.976 383.478L280.731 380.923L258.242 367.634Z" stroke="white" stroke-width="1.5"/>
</g>
<path d="M296.695 400.86C297.964 400.86 298.899 401.104 299.5 401.59C300.111 402.067 300.416 402.792 300.416 403.766C300.416 404.309 300.316 404.763 300.116 405.125C299.915 405.488 299.658 405.779 299.343 405.998C299.038 406.218 298.713 406.385 298.37 406.499L301.175 411.079H299.672L297.196 406.857H295.164V411.079H293.876V400.86H296.695ZM296.624 401.977H295.164V405.769H296.695C297.525 405.769 298.131 405.607 298.513 405.283C298.894 404.949 299.085 404.462 299.085 403.823C299.085 403.155 298.885 402.683 298.484 402.406C298.083 402.12 297.463 401.977 296.624 401.977Z" fill="white"/>
<path d="M305.569 403.265C306.218 403.265 306.781 403.408 307.258 403.694C307.735 403.98 308.098 404.386 308.346 404.911C308.603 405.426 308.732 406.032 308.732 406.728V407.487H303.48C303.499 408.355 303.718 409.018 304.138 409.476C304.567 409.924 305.164 410.148 305.927 410.148C306.414 410.148 306.843 410.106 307.215 410.02C307.597 409.924 307.988 409.791 308.389 409.619V410.721C307.997 410.893 307.611 411.017 307.229 411.093C306.848 411.179 306.395 411.222 305.87 411.222C305.135 411.222 304.491 411.074 303.938 410.778C303.384 410.482 302.95 410.044 302.635 409.462C302.33 408.88 302.178 408.159 302.178 407.301C302.178 406.461 302.316 405.741 302.593 405.14C302.879 404.538 303.275 404.076 303.78 403.751C304.296 403.427 304.892 403.265 305.569 403.265ZM305.555 404.295C304.954 404.295 304.477 404.491 304.124 404.882C303.78 405.264 303.575 405.798 303.508 406.485H307.415C307.406 405.836 307.253 405.311 306.957 404.911C306.662 404.5 306.194 404.295 305.555 404.295Z" fill="white"/>
<path d="M315.68 408.961C315.68 409.705 315.403 410.268 314.849 410.649C314.296 411.031 313.552 411.222 312.617 411.222C312.083 411.222 311.62 411.179 311.229 411.093C310.847 411.007 310.508 410.888 310.213 410.735V409.59C310.518 409.743 310.885 409.886 311.315 410.02C311.753 410.144 312.197 410.206 312.646 410.206C313.285 410.206 313.748 410.106 314.034 409.905C314.32 409.695 314.463 409.419 314.463 409.075C314.463 408.884 314.411 408.713 314.306 408.56C314.201 408.407 314.01 408.255 313.733 408.102C313.466 407.949 313.08 407.778 312.574 407.587C312.078 407.396 311.653 407.205 311.3 407.014C310.947 406.823 310.675 406.595 310.485 406.327C310.294 406.06 310.198 405.717 310.198 405.297C310.198 404.648 310.461 404.147 310.985 403.794C311.52 403.441 312.216 403.265 313.075 403.265C313.542 403.265 313.976 403.312 314.377 403.408C314.787 403.503 315.169 403.627 315.522 403.78L315.093 404.782C314.768 404.648 314.43 404.534 314.077 404.438C313.724 404.343 313.361 404.295 312.989 404.295C312.474 404.295 312.078 404.381 311.801 404.553C311.534 404.715 311.4 404.939 311.4 405.225C311.4 405.445 311.462 405.626 311.587 405.769C311.711 405.912 311.916 406.055 312.202 406.199C312.498 406.342 312.889 406.504 313.375 406.685C313.862 406.866 314.277 407.052 314.62 407.243C314.964 407.434 315.226 407.668 315.408 407.945C315.589 408.212 315.68 408.55 315.68 408.961Z" fill="white"/>
<path d="M320.495 403.265C321.144 403.265 321.707 403.408 322.184 403.694C322.661 403.98 323.024 404.386 323.272 404.911C323.529 405.426 323.658 406.032 323.658 406.728V407.487H318.406C318.425 408.355 318.645 409.018 319.064 409.476C319.494 409.924 320.09 410.148 320.853 410.148C321.34 410.148 321.769 410.106 322.141 410.02C322.523 409.924 322.914 409.791 323.315 409.619V410.721C322.924 410.893 322.537 411.017 322.156 411.093C321.774 411.179 321.321 411.222 320.796 411.222C320.061 411.222 319.417 411.074 318.864 410.778C318.311 410.482 317.877 410.044 317.562 409.462C317.256 408.88 317.104 408.159 317.104 407.301C317.104 406.461 317.242 405.741 317.519 405.14C317.805 404.538 318.201 404.076 318.707 403.751C319.222 403.427 319.818 403.265 320.495 403.265ZM320.481 404.295C319.88 404.295 319.403 404.491 319.05 404.882C318.707 405.264 318.501 405.798 318.435 406.485H322.342C322.332 405.836 322.179 405.311 321.884 404.911C321.588 404.5 321.12 404.295 320.481 404.295Z" fill="white"/>
<path d="M328.516 403.279C329.451 403.279 330.143 403.484 330.591 403.894C331.04 404.305 331.264 404.958 331.264 405.855V411.079H330.348L330.105 409.991H330.048C329.714 410.411 329.361 410.721 328.989 410.921C328.616 411.122 328.111 411.222 327.472 411.222C326.775 411.222 326.198 411.041 325.74 410.678C325.282 410.306 325.053 409.729 325.053 408.946C325.053 408.183 325.353 407.596 325.955 407.186C326.556 406.766 327.481 406.537 328.731 406.499L330.033 406.456V405.998C330.033 405.359 329.895 404.915 329.618 404.667C329.342 404.419 328.95 404.295 328.445 404.295C328.044 404.295 327.662 404.357 327.3 404.481C326.937 404.596 326.599 404.729 326.284 404.882L325.897 403.937C326.231 403.756 326.627 403.603 327.085 403.479C327.543 403.346 328.02 403.279 328.516 403.279ZM330.019 407.329L328.888 407.372C327.934 407.41 327.271 407.563 326.899 407.83C326.537 408.097 326.355 408.474 326.355 408.961C326.355 409.39 326.484 409.705 326.742 409.905C327.009 410.106 327.348 410.206 327.758 410.206C328.397 410.206 328.931 410.029 329.361 409.676C329.8 409.314 330.019 408.76 330.019 408.016V407.329Z" fill="white"/>
<path d="M337.211 403.265C337.354 403.265 337.507 403.274 337.669 403.293C337.831 403.303 337.979 403.322 338.113 403.351L337.955 404.51C337.831 404.481 337.693 404.457 337.54 404.438C337.388 404.419 337.249 404.41 337.125 404.41C336.734 404.41 336.367 404.519 336.023 404.739C335.68 404.949 335.403 405.249 335.193 405.64C334.993 406.022 334.893 406.47 334.893 406.986V411.079H333.633V403.408H334.664L334.807 404.81H334.864C335.103 404.391 335.417 404.028 335.809 403.723C336.209 403.417 336.677 403.265 337.211 403.265Z" fill="white"/>
<path d="M342.342 411.222C341.655 411.222 341.05 411.083 340.525 410.807C340 410.53 339.585 410.101 339.28 409.519C338.984 408.937 338.836 408.193 338.836 407.286C338.836 406.342 338.989 405.574 339.294 404.982C339.609 404.391 340.038 403.956 340.582 403.68C341.126 403.403 341.741 403.265 342.428 403.265C342.81 403.265 343.182 403.308 343.545 403.394C343.917 403.47 344.217 403.565 344.446 403.68L344.06 404.725C343.831 404.639 343.564 404.558 343.258 404.481C342.953 404.405 342.667 404.367 342.4 404.367C340.892 404.367 340.138 405.335 340.138 407.272C340.138 408.197 340.32 408.908 340.682 409.404C341.054 409.891 341.603 410.134 342.328 410.134C342.738 410.134 343.106 410.091 343.43 410.005C343.754 409.919 344.05 409.815 344.317 409.691V410.807C344.06 410.94 343.774 411.041 343.459 411.107C343.153 411.184 342.781 411.222 342.342 411.222Z" fill="white"/>
<path d="M347.401 400.202V403.394C347.401 403.775 347.377 404.133 347.329 404.467H347.415C347.663 404.076 347.997 403.78 348.417 403.58C348.846 403.379 349.309 403.279 349.805 403.279C350.731 403.279 351.427 403.503 351.895 403.952C352.372 404.391 352.61 405.101 352.61 406.084V411.079H351.365V406.17C351.365 404.939 350.793 404.324 349.648 404.324C348.789 404.324 348.198 404.567 347.873 405.054C347.558 405.531 347.401 406.218 347.401 407.114V411.079H346.142V400.202H347.401Z" fill="white"/>
<path d="M357.951 403.265C358.6 403.265 359.162 403.408 359.639 403.694C360.117 403.98 360.479 404.386 360.727 404.911C360.985 405.426 361.114 406.032 361.114 406.728V407.487H355.861C355.88 408.355 356.1 409.018 356.52 409.476C356.949 409.924 357.545 410.148 358.309 410.148C358.795 410.148 359.224 410.106 359.597 410.02C359.978 409.924 360.369 409.791 360.77 409.619V410.721C360.379 410.893 359.992 411.017 359.611 411.093C359.229 411.179 358.776 411.222 358.251 411.222C357.517 411.222 356.873 411.074 356.319 410.778C355.766 410.482 355.332 410.044 355.017 409.462C354.712 408.88 354.559 408.159 354.559 407.301C354.559 406.461 354.697 405.741 354.974 405.14C355.26 404.538 355.656 404.076 356.162 403.751C356.677 403.427 357.273 403.265 357.951 403.265ZM357.936 404.295C357.335 404.295 356.858 404.491 356.505 404.882C356.162 405.264 355.957 405.798 355.89 406.485H359.797C359.787 405.836 359.635 405.311 359.339 404.911C359.043 404.5 358.576 404.295 357.936 404.295Z" fill="white"/>
<path d="M366.644 403.265C366.787 403.265 366.94 403.274 367.102 403.293C367.264 403.303 367.412 403.322 367.546 403.351L367.388 404.51C367.264 404.481 367.126 404.457 366.973 404.438C366.821 404.419 366.682 404.41 366.558 404.41C366.167 404.41 365.8 404.519 365.456 404.739C365.113 404.949 364.836 405.249 364.626 405.64C364.426 406.022 364.326 406.47 364.326 406.986V411.079H363.066V403.408H364.097L364.24 404.81H364.297C364.536 404.391 364.85 404.028 365.242 403.723C365.642 403.417 366.11 403.265 366.644 403.265Z" fill="white"/>
<rect x="76.208" y="233.159" width="151.29" height="27.6003" fill="#AB3FE0"/>
<g filter="url(#filter5_d_5248_1139)">
<path d="M58.8301 208.625L63.9412 234.181L69.5635 224.47L81.3192 221.915L58.8301 208.625Z" fill="#AB3FE0"/>
<path d="M58.8301 208.625L63.9412 234.181L69.5635 224.47L81.3192 221.915L58.8301 208.625Z" stroke="white" stroke-width="1.5"/>
</g>
<path d="M97.1687 241.852C98.5044 241.852 99.4776 242.115 100.088 242.639C100.699 243.164 101.004 243.903 101.004 244.858C101.004 245.42 100.875 245.95 100.618 246.446C100.37 246.933 99.9451 247.329 99.344 247.634C98.7525 247.939 97.9463 248.092 96.9254 248.092H95.7519V252.07H94.4639V241.852H97.1687ZM97.0542 242.954H95.7519V246.99H96.7823C97.7555 246.99 98.4806 246.832 98.9576 246.518C99.4346 246.203 99.6732 245.669 99.6732 244.915C99.6732 244.256 99.4585 243.765 99.0292 243.441C98.6094 243.116 97.951 242.954 97.0542 242.954Z" fill="white"/>
<path d="M106.535 244.256C106.678 244.256 106.831 244.266 106.993 244.285C107.155 244.295 107.303 244.314 107.437 244.342L107.279 245.502C107.155 245.473 107.017 245.449 106.864 245.43C106.711 245.411 106.573 245.401 106.449 245.401C106.058 245.401 105.691 245.511 105.347 245.731C105.004 245.94 104.727 246.241 104.517 246.632C104.317 247.014 104.217 247.462 104.217 247.977V252.07H102.957V244.4H103.988L104.131 245.802H104.188C104.426 245.382 104.741 245.02 105.132 244.714C105.533 244.409 106.001 244.256 106.535 244.256Z" fill="white"/>
<path d="M115.258 248.221C115.258 249.49 114.934 250.472 114.285 251.169C113.646 251.865 112.778 252.214 111.681 252.214C111.003 252.214 110.397 252.061 109.863 251.756C109.338 251.441 108.923 250.988 108.618 250.396C108.313 249.795 108.16 249.07 108.16 248.221C108.16 246.952 108.475 245.974 109.105 245.287C109.744 244.6 110.617 244.256 111.724 244.256C112.411 244.256 113.021 244.414 113.555 244.729C114.09 245.034 114.505 245.482 114.801 246.074C115.106 246.656 115.258 247.372 115.258 248.221ZM109.462 248.221C109.462 249.127 109.639 249.847 109.992 250.382C110.354 250.906 110.927 251.169 111.709 251.169C112.482 251.169 113.05 250.906 113.412 250.382C113.775 249.847 113.956 249.127 113.956 248.221C113.956 247.314 113.775 246.604 113.412 246.088C113.05 245.573 112.477 245.315 111.695 245.315C110.913 245.315 110.345 245.573 109.992 246.088C109.639 246.604 109.462 247.314 109.462 248.221Z" fill="white"/>
<path d="M119.974 252.214C119.019 252.214 118.256 251.884 117.684 251.226C117.111 250.558 116.825 249.566 116.825 248.249C116.825 246.933 117.111 245.94 117.684 245.273C118.266 244.595 119.034 244.256 119.988 244.256C120.579 244.256 121.061 244.366 121.433 244.586C121.815 244.805 122.125 245.072 122.364 245.387H122.449C122.43 245.263 122.411 245.082 122.392 244.843C122.373 244.595 122.364 244.4 122.364 244.256V241.194H123.623V252.07H122.607L122.421 251.04H122.364C122.135 251.364 121.829 251.641 121.448 251.87C121.066 252.099 120.575 252.214 119.974 252.214ZM120.174 251.169C120.985 251.169 121.553 250.949 121.877 250.51C122.211 250.062 122.378 249.389 122.378 248.493V248.264C122.378 247.31 122.22 246.58 121.906 246.074C121.591 245.559 121.009 245.301 120.16 245.301C119.482 245.301 118.972 245.573 118.628 246.117C118.294 246.651 118.127 247.372 118.127 248.278C118.127 249.194 118.294 249.905 118.628 250.41C118.972 250.916 119.487 251.169 120.174 251.169Z" fill="white"/>
<path d="M132.471 244.4V252.07H131.44L131.254 251.054H131.197C130.949 251.455 130.605 251.751 130.167 251.942C129.728 252.123 129.26 252.214 128.764 252.214C127.839 252.214 127.142 251.994 126.675 251.555C126.207 251.107 125.973 250.396 125.973 249.423V244.4H127.247V249.337C127.247 250.558 127.815 251.169 128.95 251.169C129.799 251.169 130.386 250.93 130.71 250.453C131.044 249.976 131.211 249.289 131.211 248.392V244.4H132.471Z" fill="white"/>
<path d="M137.983 252.214C137.296 252.214 136.69 252.075 136.165 251.798C135.641 251.522 135.226 251.092 134.92 250.51C134.624 249.928 134.477 249.184 134.477 248.278C134.477 247.333 134.629 246.565 134.935 245.974C135.249 245.382 135.679 244.948 136.223 244.671C136.766 244.395 137.382 244.256 138.069 244.256C138.45 244.256 138.822 244.299 139.185 244.385C139.557 244.462 139.858 244.557 140.087 244.671L139.7 245.716C139.471 245.63 139.204 245.549 138.899 245.473C138.593 245.397 138.307 245.358 138.04 245.358C136.533 245.358 135.779 246.327 135.779 248.264C135.779 249.189 135.96 249.9 136.323 250.396C136.695 250.883 137.243 251.126 137.969 251.126C138.379 251.126 138.746 251.083 139.07 250.997C139.395 250.911 139.691 250.806 139.958 250.682V251.798C139.7 251.932 139.414 252.032 139.099 252.099C138.794 252.175 138.422 252.214 137.983 252.214Z" fill="white"/>
<path d="M144.344 251.183C144.535 251.183 144.73 251.169 144.931 251.14C145.131 251.112 145.293 251.073 145.417 251.026V251.985C145.284 252.051 145.093 252.104 144.845 252.142C144.597 252.19 144.358 252.214 144.129 252.214C143.728 252.214 143.356 252.147 143.013 252.013C142.679 251.87 142.407 251.627 142.197 251.283C141.987 250.94 141.882 250.458 141.882 249.838V245.373H140.795V244.772L141.897 244.271L142.397 242.639H143.142V244.4H145.36V245.373H143.142V249.809C143.142 250.277 143.251 250.625 143.471 250.854C143.7 251.073 143.991 251.183 144.344 251.183Z" fill="white"/>
<path d="M155.35 252.07L151.987 243.112H151.93C151.959 243.407 151.983 243.808 152.002 244.314C152.021 244.81 152.03 245.33 152.03 245.874V252.07H150.842V241.852H152.746L155.894 250.224H155.952L159.157 241.852H161.046V252.07H159.773V245.788C159.773 245.292 159.782 244.8 159.801 244.314C159.83 243.827 159.854 243.431 159.873 243.126H159.816L156.409 252.07H155.35Z" fill="white"/>
<path d="M166.559 244.271C167.494 244.271 168.186 244.476 168.635 244.886C169.083 245.296 169.307 245.95 169.307 246.847V252.07H168.391L168.148 250.983H168.091C167.757 251.403 167.404 251.713 167.032 251.913C166.66 252.113 166.154 252.214 165.515 252.214C164.818 252.214 164.241 252.032 163.783 251.67C163.325 251.298 163.096 250.72 163.096 249.938C163.096 249.175 163.397 248.588 163.998 248.178C164.599 247.758 165.524 247.529 166.774 247.491L168.076 247.448V246.99C168.076 246.351 167.938 245.907 167.661 245.659C167.385 245.411 166.994 245.287 166.488 245.287C166.087 245.287 165.706 245.349 165.343 245.473C164.98 245.587 164.642 245.721 164.327 245.874L163.94 244.929C164.274 244.748 164.67 244.595 165.128 244.471C165.586 244.338 166.063 244.271 166.559 244.271ZM168.062 248.321L166.932 248.364C165.977 248.402 165.314 248.555 164.942 248.822C164.58 249.089 164.398 249.466 164.398 249.952C164.398 250.382 164.527 250.697 164.785 250.897C165.052 251.097 165.391 251.197 165.801 251.197C166.44 251.197 166.974 251.021 167.404 250.668C167.843 250.305 168.062 249.752 168.062 249.008V248.321Z" fill="white"/>
<path d="M175.369 244.256C176.285 244.256 176.976 244.481 177.444 244.929C177.911 245.378 178.145 246.093 178.145 247.076V252.07H176.9V247.162C176.9 245.931 176.328 245.315 175.183 245.315C174.333 245.315 173.747 245.554 173.422 246.031C173.098 246.508 172.936 247.195 172.936 248.092V252.07H171.676V244.4H172.692L172.879 245.444H172.95C173.198 245.044 173.542 244.748 173.98 244.557C174.419 244.357 174.882 244.256 175.369 244.256Z" fill="white"/>
<path d="M183.428 244.271C184.363 244.271 185.055 244.476 185.503 244.886C185.952 245.296 186.176 245.95 186.176 246.847V252.07H185.26L185.017 250.983H184.96C184.626 251.403 184.273 251.713 183.901 251.913C183.528 252.113 183.023 252.214 182.384 252.214C181.687 252.214 181.11 252.032 180.652 251.67C180.194 251.298 179.965 250.72 179.965 249.938C179.965 249.175 180.265 248.588 180.867 248.178C181.468 247.758 182.393 247.529 183.643 247.491L184.945 247.448V246.99C184.945 246.351 184.807 245.907 184.53 245.659C184.254 245.411 183.862 245.287 183.357 245.287C182.956 245.287 182.574 245.349 182.212 245.473C181.849 245.587 181.511 245.721 181.196 245.874L180.809 244.929C181.143 244.748 181.539 244.595 181.997 244.471C182.455 244.338 182.932 244.271 183.428 244.271ZM184.931 248.321L183.8 248.364C182.846 248.402 182.183 248.555 181.811 248.822C181.449 249.089 181.267 249.466 181.267 249.952C181.267 250.382 181.396 250.697 181.654 250.897C181.921 251.097 182.259 251.197 182.67 251.197C183.309 251.197 183.843 251.021 184.273 250.668C184.711 250.305 184.931 249.752 184.931 249.008V248.321Z" fill="white"/>
<path d="M191.264 244.256C191.77 244.256 192.223 244.352 192.624 244.543C193.034 244.734 193.382 245.024 193.669 245.416H193.74L193.912 244.4H194.914V252.199C194.914 253.296 194.632 254.122 194.069 254.675C193.516 255.228 192.653 255.505 191.479 255.505C190.353 255.505 189.432 255.343 188.717 255.019V253.859C189.471 254.26 190.415 254.46 191.551 254.46C192.209 254.46 192.724 254.265 193.096 253.874C193.478 253.492 193.669 252.967 193.669 252.299V251.999C193.669 251.884 193.673 251.722 193.683 251.512C193.692 251.293 193.702 251.14 193.712 251.054H193.654C193.139 251.827 192.347 252.214 191.279 252.214C190.286 252.214 189.509 251.865 188.946 251.169C188.393 250.472 188.116 249.499 188.116 248.249C188.116 247.028 188.393 246.06 188.946 245.344C189.509 244.619 190.282 244.256 191.264 244.256ZM191.436 245.315C190.797 245.315 190.301 245.573 189.948 246.088C189.595 246.594 189.418 247.319 189.418 248.264C189.418 249.208 189.59 249.933 189.933 250.439C190.277 250.935 190.787 251.183 191.465 251.183C192.238 251.183 192.8 250.978 193.153 250.568C193.506 250.148 193.683 249.475 193.683 248.55V248.249C193.683 247.209 193.502 246.46 193.139 246.002C192.777 245.544 192.209 245.315 191.436 245.315Z" fill="white"/>
<path d="M200.312 244.256C200.961 244.256 201.524 244.4 202.001 244.686C202.478 244.972 202.841 245.378 203.089 245.902C203.346 246.417 203.475 247.023 203.475 247.72V248.478H198.223C198.242 249.346 198.461 250.01 198.881 250.468C199.311 250.916 199.907 251.14 200.67 251.14C201.157 251.14 201.586 251.097 201.958 251.011C202.34 250.916 202.731 250.782 203.132 250.611V251.713C202.741 251.884 202.354 252.008 201.973 252.085C201.591 252.171 201.138 252.214 200.613 252.214C199.878 252.214 199.234 252.066 198.681 251.77C198.128 251.474 197.693 251.035 197.379 250.453C197.073 249.871 196.921 249.151 196.921 248.292C196.921 247.453 197.059 246.732 197.336 246.131C197.622 245.53 198.018 245.067 198.523 244.743C199.039 244.419 199.635 244.256 200.312 244.256ZM200.298 245.287C199.697 245.287 199.22 245.482 198.867 245.874C198.524 246.255 198.318 246.79 198.252 247.476H202.159C202.149 246.828 201.996 246.303 201.701 245.902C201.405 245.492 200.937 245.287 200.298 245.287Z" fill="white"/>
<path d="M209.006 244.256C209.149 244.256 209.302 244.266 209.464 244.285C209.626 244.295 209.774 244.314 209.907 244.342L209.75 245.502C209.626 245.473 209.488 245.449 209.335 245.43C209.182 245.411 209.044 245.401 208.92 245.401C208.529 245.401 208.161 245.511 207.818 245.731C207.475 245.94 207.198 246.241 206.988 246.632C206.788 247.014 206.687 247.462 206.687 247.977V252.07H205.428V244.4H206.458L206.602 245.802H206.659C206.897 245.382 207.212 245.02 207.603 244.714C208.004 244.409 208.472 244.256 209.006 244.256Z" fill="white"/>
<defs>
<filter id="filter0_d_5248_1139" x="0" y="0" width="639" height="602.506" filterUnits="userSpaceOnUse" color-interpolation-filters="sRGB">
<feFlood flood-opacity="0" result="BackgroundImageFix"/>
<feColorMatrix in="SourceAlpha" type="matrix" values="0 0 0 0 0 0 0 0 0 0 0 0 0 0 0 0 0 0 127 0" result="hardAlpha"/>
<feOffset dy="4"/>
<feGaussianBlur stdDeviation="4"/>
<feColorMatrix type="matrix" values="0 0 0 0 0 0 0 0 0 0 0 0 0 0 0 0 0 0 0.25 0"/>
<feBlend mode="normal" in2="BackgroundImageFix" result="effect1_dropShadow_5248_1139"/>
<feBlend mode="normal" in="SourceGraphic" in2="effect1_dropShadow_5248_1139" result="shape"/>
</filter>
<filter id="filter1_d_5248_1139" x="485.174" y="78.0938" width="33.5811" height="37.1509" filterUnits="userSpaceOnUse" color-interpolation-filters="sRGB">
<feFlood flood-opacity="0" result="BackgroundImageFix"/>
<feColorMatrix in="SourceAlpha" type="matrix" values="0 0 0 0 0 0 0 0 0 0 0 0 0 0 0 0 0 0 127 0" result="hardAlpha"/>
<feOffset dy="4"/>
<feGaussianBlur stdDeviation="2"/>
<feColorMatrix type="matrix" values="0 0 0 0 0 0 0 0 0 0 0 0 0 0 0 0 0 0 0.25 0"/>
<feBlend mode="normal" in2="BackgroundImageFix" result="effect1_dropShadow_5248_1139"/>
<feBlend mode="normal" in="SourceGraphic" in2="effect1_dropShadow_5248_1139" result="shape"/>
</filter>
<filter id="filter2_d_5248_1139" x="173.674" y="495.165" width="33.1484" height="36.6592" filterUnits="userSpaceOnUse" color-interpolation-filters="sRGB">
<feFlood flood-opacity="0" result="BackgroundImageFix"/>
<feColorMatrix in="SourceAlpha" type="matrix" values="0 0 0 0 0 0 0 0 0 0 0 0 0 0 0 0 0 0 127 0" result="hardAlpha"/>
<feOffset dy="4"/>
<feGaussianBlur stdDeviation="2"/>
<feColorMatrix type="matrix" values="0 0 0 0 0 0 0 0 0 0 0 0 0 0 0 0 0 0 0.25 0"/>
<feBlend mode="normal" in2="BackgroundImageFix" result="effect1_dropShadow_5248_1139"/>
<feBlend mode="normal" in="SourceGraphic" in2="effect1_dropShadow_5248_1139" result="shape"/>
</filter>
<filter id="filter3_d_5248_1139" x="234.692" y="327.23" width="163.099" height="113.571" filterUnits="userSpaceOnUse" color-interpolation-filters="sRGB">
<feFlood flood-opacity="0" result="BackgroundImageFix"/>
<feColorMatrix in="SourceAlpha" type="matrix" values="0 0 0 0 0 0 0 0 0 0 0 0 0 0 0 0 0 0 127 0" result="hardAlpha"/>
<feOffset dy="4"/>
<feGaussianBlur stdDeviation="2"/>
<feColorMatrix type="matrix" values="0 0 0 0 0 0 0 0 0 0 0 0 0 0 0 0 0 0 0.25 0"/>
<feBlend mode="normal" in2="BackgroundImageFix" result="effect1_dropShadow_5248_1139"/>
<feBlend mode="normal" in="SourceGraphic" in2="effect1_dropShadow_5248_1139" result="shape"/>
</filter>
<filter id="filter4_d_5248_1139" x="253.178" y="366.133" width="33.5811" height="37.1509" filterUnits="userSpaceOnUse" color-interpolation-filters="sRGB">
<feFlood flood-opacity="0" result="BackgroundImageFix"/>
<feColorMatrix in="SourceAlpha" type="matrix" values="0 0 0 0 0 0 0 0 0 0 0 0 0 0 0 0 0 0 127 0" result="hardAlpha"/>
<feOffset dy="4"/>
<feGaussianBlur stdDeviation="2"/>
<feColorMatrix type="matrix" values="0 0 0 0 0 0 0 0 0 0 0 0 0 0 0 0 0 0 0.25 0"/>
<feBlend mode="normal" in2="BackgroundImageFix" result="effect1_dropShadow_5248_1139"/>
<feBlend mode="normal" in="SourceGraphic" in2="effect1_dropShadow_5248_1139" result="shape"/>
</filter>
<filter id="filter5_d_5248_1139" x="53.7656" y="207.125" width="33.5811" height="37.1509" filterUnits="userSpaceOnUse" color-interpolation-filters="sRGB">
<feFlood flood-opacity="0" result="BackgroundImageFix"/>
<feColorMatrix in="SourceAlpha" type="matrix" values="0 0 0 0 0 0 0 0 0 0 0 0 0 0 0 0 0 0 127 0" result="hardAlpha"/>
<feOffset dy="4"/>
<feGaussianBlur stdDeviation="2"/>
<feColorMatrix type="matrix" values="0 0 0 0 0 0 0 0 0 0 0 0 0 0 0 0 0 0 0.25 0"/>
<feBlend mode="normal" in2="BackgroundImageFix" result="effect1_dropShadow_5248_1139"/>
<feBlend mode="normal" in="SourceGraphic" in2="effect1_dropShadow_5248_1139" result="shape"/>
</filter>
</defs>
</svg>
