<svg width="904" height="215" viewBox="0 0 904 215" fill="none" xmlns="http://www.w3.org/2000/svg">
<rect width="904" height="215" fill="white"/>
<rect x="334" y="80" width="300" height="48" rx="4" fill="#323232"/>
<path d="M349.876 101H348.796V93.38H346.12V92.432H352.54V93.38H349.876V101ZM354.744 91.88V94.556C354.744 94.876 354.724 95.176 354.684 95.456H354.756C354.964 95.128 355.244 94.88 355.596 94.712C355.956 94.544 356.344 94.46 356.76 94.46C357.536 94.46 358.12 94.648 358.512 95.024C358.912 95.392 359.112 95.988 359.112 96.812V101H358.068V96.884C358.068 95.852 357.588 95.336 356.628 95.336C355.908 95.336 355.412 95.54 355.14 95.948C354.876 96.348 354.744 96.924 354.744 97.676V101H353.688V91.88H354.744ZM361.646 92.156C361.806 92.156 361.946 92.212 362.066 92.324C362.194 92.428 362.258 92.596 362.258 92.828C362.258 93.06 362.194 93.232 362.066 93.344C361.946 93.448 361.806 93.5 361.646 93.5C361.47 93.5 361.322 93.448 361.202 93.344C361.082 93.232 361.022 93.06 361.022 92.828C361.022 92.596 361.082 92.428 361.202 92.324C361.322 92.212 361.47 92.156 361.646 92.156ZM362.162 94.568V101H361.106V94.568H362.162ZM368.388 99.224C368.388 99.848 368.156 100.32 367.692 100.64C367.228 100.96 366.604 101.12 365.82 101.12C365.372 101.12 364.984 101.084 364.656 101.012C364.336 100.94 364.052 100.84 363.804 100.712V99.752C364.06 99.88 364.368 100 364.728 100.112C365.096 100.216 365.468 100.268 365.844 100.268C366.38 100.268 366.768 100.184 367.008 100.016C367.248 99.84 367.368 99.608 367.368 99.32C367.368 99.16 367.324 99.016 367.236 98.888C367.148 98.76 366.988 98.632 366.756 98.504C366.532 98.376 366.208 98.232 365.784 98.072C365.368 97.912 365.012 97.752 364.716 97.592C364.42 97.432 364.192 97.24 364.032 97.016C363.872 96.792 363.792 96.504 363.792 96.152C363.792 95.608 364.012 95.188 364.452 94.892C364.9 94.596 365.484 94.448 366.204 94.448C366.596 94.448 366.96 94.488 367.296 94.568C367.64 94.648 367.96 94.752 368.256 94.88L367.896 95.72C367.624 95.608 367.34 95.512 367.044 95.432C366.748 95.352 366.444 95.312 366.132 95.312C365.7 95.312 365.368 95.384 365.136 95.528C364.912 95.664 364.8 95.852 364.8 96.092C364.8 96.276 364.852 96.428 364.956 96.548C365.06 96.668 365.232 96.788 365.472 96.908C365.72 97.028 366.048 97.164 366.456 97.316C366.864 97.468 367.212 97.624 367.5 97.784C367.788 97.944 368.008 98.14 368.16 98.372C368.312 98.596 368.388 98.88 368.388 99.224ZM373.599 92.156C373.759 92.156 373.899 92.212 374.019 92.324C374.147 92.428 374.211 92.596 374.211 92.828C374.211 93.06 374.147 93.232 374.019 93.344C373.899 93.448 373.759 93.5 373.599 93.5C373.423 93.5 373.275 93.448 373.155 93.344C373.035 93.232 372.975 93.06 372.975 92.828C372.975 92.596 373.035 92.428 373.155 92.324C373.275 92.212 373.423 92.156 373.599 92.156ZM374.115 94.568V101H373.059V94.568H374.115ZM378.733 101.12C378.157 101.12 377.649 101.004 377.209 100.772C376.769 100.54 376.421 100.18 376.165 99.692C375.917 99.204 375.793 98.58 375.793 97.82C375.793 97.028 375.921 96.384 376.177 95.888C376.441 95.392 376.801 95.028 377.257 94.796C377.713 94.564 378.229 94.448 378.805 94.448C379.125 94.448 379.437 94.484 379.741 94.556C380.053 94.62 380.305 94.7 380.497 94.796L380.173 95.672C379.981 95.6 379.757 95.532 379.501 95.468C379.245 95.404 379.005 95.372 378.781 95.372C377.517 95.372 376.885 96.184 376.885 97.808C376.885 98.584 377.037 99.18 377.341 99.596C377.653 100.004 378.113 100.208 378.721 100.208C379.065 100.208 379.373 100.172 379.645 100.1C379.917 100.028 380.165 99.94 380.389 99.836V100.772C380.173 100.884 379.933 100.968 379.669 101.024C379.413 101.088 379.101 101.12 378.733 101.12ZM387.51 97.772C387.51 98.836 387.238 99.66 386.694 100.244C386.158 100.828 385.43 101.12 384.51 101.12C383.942 101.12 383.434 100.992 382.986 100.736C382.546 100.472 382.198 100.092 381.942 99.596C381.686 99.092 381.558 98.484 381.558 97.772C381.558 96.708 381.822 95.888 382.35 95.312C382.886 94.736 383.618 94.448 384.546 94.448C385.122 94.448 385.634 94.58 386.082 94.844C386.53 95.1 386.878 95.476 387.126 95.972C387.382 96.46 387.51 97.06 387.51 97.772ZM382.65 97.772C382.65 98.532 382.798 99.136 383.094 99.584C383.398 100.024 383.878 100.244 384.534 100.244C385.182 100.244 385.658 100.024 385.962 99.584C386.266 99.136 386.418 98.532 386.418 97.772C386.418 97.012 386.266 96.416 385.962 95.984C385.658 95.552 385.178 95.336 384.522 95.336C383.866 95.336 383.39 95.552 383.094 95.984C382.798 96.416 382.65 97.012 382.65 97.772ZM392.28 94.448C393.048 94.448 393.628 94.636 394.02 95.012C394.412 95.388 394.608 95.988 394.608 96.812V101H393.564V96.884C393.564 95.852 393.084 95.336 392.124 95.336C391.412 95.336 390.92 95.536 390.648 95.936C390.376 96.336 390.24 96.912 390.24 97.664V101H389.184V94.568H390.036L390.192 95.444H390.252C390.46 95.108 390.748 94.86 391.116 94.7C391.484 94.532 391.872 94.448 392.28 94.448ZM402.299 101.12C401.723 101.12 401.215 101.004 400.775 100.772C400.335 100.54 399.987 100.18 399.731 99.692C399.483 99.204 399.359 98.58 399.359 97.82C399.359 97.028 399.487 96.384 399.743 95.888C400.007 95.392 400.367 95.028 400.823 94.796C401.279 94.564 401.795 94.448 402.371 94.448C402.691 94.448 403.003 94.484 403.307 94.556C403.619 94.62 403.871 94.7 404.063 94.796L403.739 95.672C403.547 95.6 403.323 95.532 403.067 95.468C402.811 95.404 402.571 95.372 402.347 95.372C401.083 95.372 400.451 96.184 400.451 97.808C400.451 98.584 400.603 99.18 400.907 99.596C401.219 100.004 401.679 100.208 402.287 100.208C402.631 100.208 402.939 100.172 403.211 100.1C403.483 100.028 403.731 99.94 403.955 99.836V100.772C403.739 100.884 403.499 100.968 403.235 101.024C402.979 101.088 402.667 101.12 402.299 101.12ZM411.077 97.772C411.077 98.836 410.805 99.66 410.261 100.244C409.725 100.828 408.997 101.12 408.077 101.12C407.509 101.12 407.001 100.992 406.553 100.736C406.113 100.472 405.765 100.092 405.509 99.596C405.253 99.092 405.125 98.484 405.125 97.772C405.125 96.708 405.389 95.888 405.917 95.312C406.453 94.736 407.185 94.448 408.113 94.448C408.689 94.448 409.201 94.58 409.649 94.844C410.097 95.1 410.445 95.476 410.693 95.972C410.949 96.46 411.077 97.06 411.077 97.772ZM406.217 97.772C406.217 98.532 406.365 99.136 406.661 99.584C406.965 100.024 407.445 100.244 408.101 100.244C408.749 100.244 409.225 100.024 409.529 99.584C409.833 99.136 409.985 98.532 409.985 97.772C409.985 97.012 409.833 96.416 409.529 95.984C409.225 95.552 408.745 95.336 408.089 95.336C407.433 95.336 406.957 95.552 406.661 95.984C406.365 96.416 406.217 97.012 406.217 97.772ZM415.846 94.448C416.614 94.448 417.194 94.636 417.586 95.012C417.978 95.388 418.174 95.988 418.174 96.812V101H417.13V96.884C417.13 95.852 416.65 95.336 415.69 95.336C414.978 95.336 414.486 95.536 414.214 95.936C413.942 96.336 413.806 96.912 413.806 97.664V101H412.75V94.568H413.602L413.758 95.444H413.818C414.026 95.108 414.314 94.86 414.682 94.7C415.05 94.532 415.438 94.448 415.846 94.448ZM422.316 100.256C422.476 100.256 422.64 100.244 422.808 100.22C422.976 100.196 423.112 100.164 423.216 100.124V100.928C423.104 100.984 422.944 101.028 422.736 101.06C422.528 101.1 422.328 101.12 422.136 101.12C421.8 101.12 421.488 101.064 421.2 100.952C420.92 100.832 420.692 100.628 420.516 100.34C420.34 100.052 420.252 99.648 420.252 99.128V95.384H419.34V94.88L420.264 94.46L420.684 93.092H421.308V94.568H423.168V95.384H421.308V99.104C421.308 99.496 421.4 99.788 421.584 99.98C421.776 100.164 422.02 100.256 422.316 100.256ZM426.94 94.46C427.724 94.46 428.304 94.632 428.68 94.976C429.056 95.32 429.244 95.868 429.244 96.62V101H428.476L428.272 100.088H428.224C427.944 100.44 427.648 100.7 427.336 100.868C427.024 101.036 426.6 101.12 426.064 101.12C425.48 101.12 424.996 100.968 424.612 100.664C424.228 100.352 424.036 99.868 424.036 99.212C424.036 98.572 424.288 98.08 424.792 97.736C425.296 97.384 426.072 97.192 427.12 97.16L428.212 97.124V96.74C428.212 96.204 428.096 95.832 427.864 95.624C427.632 95.416 427.304 95.312 426.88 95.312C426.544 95.312 426.224 95.364 425.92 95.468C425.616 95.564 425.332 95.676 425.068 95.804L424.744 95.012C425.024 94.86 425.356 94.732 425.74 94.628C426.124 94.516 426.524 94.46 426.94 94.46ZM428.2 97.856L427.252 97.892C426.452 97.924 425.896 98.052 425.584 98.276C425.28 98.5 425.128 98.816 425.128 99.224C425.128 99.584 425.236 99.848 425.452 100.016C425.676 100.184 425.96 100.268 426.304 100.268C426.84 100.268 427.288 100.12 427.648 99.824C428.016 99.52 428.2 99.056 428.2 98.432V97.856ZM431.771 92.156C431.931 92.156 432.071 92.212 432.191 92.324C432.319 92.428 432.383 92.596 432.383 92.828C432.383 93.06 432.319 93.232 432.191 93.344C432.071 93.448 431.931 93.5 431.771 93.5C431.595 93.5 431.447 93.448 431.327 93.344C431.207 93.232 431.147 93.06 431.147 92.828C431.147 92.596 431.207 92.428 431.327 92.324C431.447 92.212 431.595 92.156 431.771 92.156ZM432.287 94.568V101H431.231V94.568H432.287ZM437.421 94.448C438.189 94.448 438.769 94.636 439.161 95.012C439.553 95.388 439.749 95.988 439.749 96.812V101H438.705V96.884C438.705 95.852 438.225 95.336 437.265 95.336C436.553 95.336 436.061 95.536 435.789 95.936C435.517 96.336 435.381 96.912 435.381 97.664V101H434.325V94.568H435.177L435.333 95.444H435.393C435.601 95.108 435.889 94.86 436.257 94.7C436.625 94.532 437.013 94.448 437.421 94.448ZM445.931 99.224C445.931 99.848 445.699 100.32 445.235 100.64C444.771 100.96 444.147 101.12 443.363 101.12C442.915 101.12 442.527 101.084 442.199 101.012C441.879 100.94 441.595 100.84 441.347 100.712V99.752C441.603 99.88 441.911 100 442.271 100.112C442.639 100.216 443.011 100.268 443.387 100.268C443.923 100.268 444.311 100.184 444.551 100.016C444.791 99.84 444.911 99.608 444.911 99.32C444.911 99.16 444.867 99.016 444.779 98.888C444.691 98.76 444.531 98.632 444.299 98.504C444.075 98.376 443.751 98.232 443.327 98.072C442.911 97.912 442.555 97.752 442.259 97.592C441.963 97.432 441.735 97.24 441.575 97.016C441.415 96.792 441.335 96.504 441.335 96.152C441.335 95.608 441.555 95.188 441.995 94.892C442.443 94.596 443.027 94.448 443.747 94.448C444.139 94.448 444.503 94.488 444.839 94.568C445.183 94.648 445.503 94.752 445.799 94.88L445.439 95.72C445.167 95.608 444.883 95.512 444.587 95.432C444.291 95.352 443.987 95.312 443.675 95.312C443.243 95.312 442.911 95.384 442.679 95.528C442.455 95.664 442.343 95.852 442.343 96.092C442.343 96.276 442.395 96.428 442.499 96.548C442.603 96.668 442.775 96.788 443.015 96.908C443.263 97.028 443.591 97.164 443.999 97.316C444.407 97.468 444.755 97.624 445.043 97.784C445.331 97.944 445.551 98.14 445.703 98.372C445.855 98.596 445.931 98.88 445.931 99.224ZM451.142 92.156C451.302 92.156 451.442 92.212 451.562 92.324C451.69 92.428 451.754 92.596 451.754 92.828C451.754 93.06 451.69 93.232 451.562 93.344C451.442 93.448 451.302 93.5 451.142 93.5C450.966 93.5 450.818 93.448 450.698 93.344C450.578 93.232 450.518 93.06 450.518 92.828C450.518 92.596 450.578 92.428 450.698 92.324C450.818 92.212 450.966 92.156 451.142 92.156ZM451.658 94.568V101H450.602V94.568H451.658ZM456.792 94.448C457.56 94.448 458.14 94.636 458.532 95.012C458.924 95.388 459.12 95.988 459.12 96.812V101H458.076V96.884C458.076 95.852 457.596 95.336 456.636 95.336C455.924 95.336 455.432 95.536 455.16 95.936C454.888 96.336 454.752 96.912 454.752 97.664V101H453.696V94.568H454.548L454.704 95.444H454.764C454.972 95.108 455.26 94.86 455.628 94.7C455.996 94.532 456.384 94.448 456.792 94.448ZM464.078 95.384H462.458V101H461.402V95.384H460.274V94.892L461.402 94.532V94.16C461.402 93.328 461.582 92.732 461.942 92.372C462.31 92.004 462.826 91.82 463.49 91.82C463.738 91.82 463.97 91.844 464.186 91.892C464.402 91.932 464.586 91.98 464.738 92.036L464.462 92.864C464.334 92.824 464.186 92.784 464.018 92.744C463.85 92.704 463.678 92.684 463.502 92.684C463.15 92.684 462.886 92.804 462.71 93.044C462.542 93.276 462.458 93.644 462.458 94.148V94.568H464.078V95.384ZM470.831 97.772C470.831 98.836 470.559 99.66 470.015 100.244C469.479 100.828 468.751 101.12 467.831 101.12C467.263 101.12 466.755 100.992 466.307 100.736C465.867 100.472 465.519 100.092 465.263 99.596C465.007 99.092 464.879 98.484 464.879 97.772C464.879 96.708 465.143 95.888 465.671 95.312C466.207 94.736 466.939 94.448 467.867 94.448C468.443 94.448 468.955 94.58 469.403 94.844C469.851 95.1 470.199 95.476 470.447 95.972C470.703 96.46 470.831 97.06 470.831 97.772ZM465.971 97.772C465.971 98.532 466.119 99.136 466.415 99.584C466.719 100.024 467.199 100.244 467.855 100.244C468.503 100.244 468.979 100.024 469.283 99.584C469.587 99.136 469.739 98.532 469.739 97.772C469.739 97.012 469.587 96.416 469.283 95.984C468.979 95.552 468.499 95.336 467.843 95.336C467.187 95.336 466.711 95.552 466.415 95.984C466.119 96.416 465.971 97.012 465.971 97.772ZM475.504 94.448C475.624 94.448 475.752 94.456 475.888 94.472C476.024 94.48 476.148 94.496 476.26 94.52L476.128 95.492C476.024 95.468 475.908 95.448 475.78 95.432C475.652 95.416 475.536 95.408 475.432 95.408C475.104 95.408 474.796 95.5 474.508 95.684C474.22 95.86 473.988 96.112 473.812 96.44C473.644 96.76 473.56 97.136 473.56 97.568V101H472.504V94.568H473.368L473.488 95.744H473.536C473.736 95.392 474 95.088 474.328 94.832C474.664 94.576 475.056 94.448 475.504 94.448ZM484.517 94.448C485.245 94.448 485.789 94.636 486.149 95.012C486.509 95.388 486.689 95.988 486.689 96.812V101H485.645V96.86C485.645 95.844 485.209 95.336 484.337 95.336C483.713 95.336 483.265 95.516 482.993 95.876C482.729 96.236 482.597 96.76 482.597 97.448V101H481.553V96.86C481.553 95.844 481.113 95.336 480.233 95.336C479.585 95.336 479.137 95.536 478.889 95.936C478.641 96.336 478.517 96.912 478.517 97.664V101H477.461V94.568H478.313L478.469 95.444H478.529C478.729 95.108 478.997 94.86 479.333 94.7C479.677 94.532 480.041 94.448 480.425 94.448C481.433 94.448 482.089 94.808 482.393 95.528H482.453C482.669 95.16 482.961 94.888 483.329 94.712C483.697 94.536 484.093 94.448 484.517 94.448ZM491.112 94.46C491.896 94.46 492.476 94.632 492.852 94.976C493.228 95.32 493.416 95.868 493.416 96.62V101H492.648L492.444 100.088H492.396C492.116 100.44 491.82 100.7 491.508 100.868C491.196 101.036 490.772 101.12 490.236 101.12C489.652 101.12 489.168 100.968 488.784 100.664C488.4 100.352 488.208 99.868 488.208 99.212C488.208 98.572 488.46 98.08 488.964 97.736C489.468 97.384 490.244 97.192 491.292 97.16L492.384 97.124V96.74C492.384 96.204 492.268 95.832 492.036 95.624C491.804 95.416 491.476 95.312 491.052 95.312C490.716 95.312 490.396 95.364 490.092 95.468C489.788 95.564 489.504 95.676 489.24 95.804L488.916 95.012C489.196 94.86 489.528 94.732 489.912 94.628C490.296 94.516 490.696 94.46 491.112 94.46ZM492.372 97.856L491.424 97.892C490.624 97.924 490.068 98.052 489.756 98.276C489.452 98.5 489.3 98.816 489.3 99.224C489.3 99.584 489.408 99.848 489.624 100.016C489.848 100.184 490.132 100.268 490.476 100.268C491.012 100.268 491.46 100.12 491.82 99.824C492.188 99.52 492.372 99.056 492.372 98.432V97.856ZM497.551 100.256C497.711 100.256 497.875 100.244 498.043 100.22C498.211 100.196 498.347 100.164 498.451 100.124V100.928C498.339 100.984 498.179 101.028 497.971 101.06C497.763 101.1 497.563 101.12 497.371 101.12C497.035 101.12 496.723 101.064 496.435 100.952C496.155 100.832 495.927 100.628 495.751 100.34C495.575 100.052 495.487 99.648 495.487 99.128V95.384H494.575V94.88L495.499 94.46L495.919 93.092H496.543V94.568H498.403V95.384H496.543V99.104C496.543 99.496 496.635 99.788 496.819 99.98C497.011 100.164 497.255 100.256 497.551 100.256ZM500.279 92.156C500.439 92.156 500.579 92.212 500.699 92.324C500.827 92.428 500.891 92.596 500.891 92.828C500.891 93.06 500.827 93.232 500.699 93.344C500.579 93.448 500.439 93.5 500.279 93.5C500.103 93.5 499.955 93.448 499.835 93.344C499.715 93.232 499.655 93.06 499.655 92.828C499.655 92.596 499.715 92.428 499.835 92.324C499.955 92.212 500.103 92.156 500.279 92.156ZM500.795 94.568V101H499.739V94.568H500.795ZM508.424 97.772C508.424 98.836 508.153 99.66 507.609 100.244C507.073 100.828 506.345 101.12 505.425 101.12C504.857 101.12 504.349 100.992 503.901 100.736C503.461 100.472 503.113 100.092 502.857 99.596C502.601 99.092 502.473 98.484 502.473 97.772C502.473 96.708 502.737 95.888 503.265 95.312C503.801 94.736 504.533 94.448 505.461 94.448C506.037 94.448 506.549 94.58 506.997 94.844C507.445 95.1 507.793 95.476 508.041 95.972C508.297 96.46 508.424 97.06 508.424 97.772ZM503.565 97.772C503.565 98.532 503.713 99.136 504.009 99.584C504.313 100.024 504.793 100.244 505.449 100.244C506.097 100.244 506.573 100.024 506.877 99.584C507.181 99.136 507.333 98.532 507.333 97.772C507.333 97.012 507.181 96.416 506.877 95.984C506.573 95.552 506.093 95.336 505.437 95.336C504.781 95.336 504.305 95.552 504.009 95.984C503.713 96.416 503.565 97.012 503.565 97.772ZM513.194 94.448C513.962 94.448 514.542 94.636 514.934 95.012C515.326 95.388 515.522 95.988 515.522 96.812V101H514.478V96.884C514.478 95.852 513.998 95.336 513.038 95.336C512.326 95.336 511.834 95.536 511.562 95.936C511.29 96.336 511.154 96.912 511.154 97.664V101H510.098V94.568H510.95L511.106 95.444H511.166C511.374 95.108 511.662 94.86 512.03 94.7C512.398 94.532 512.786 94.448 513.194 94.448ZM522.781 100.256C522.941 100.256 523.105 100.244 523.273 100.22C523.441 100.196 523.577 100.164 523.681 100.124V100.928C523.569 100.984 523.409 101.028 523.201 101.06C522.993 101.1 522.793 101.12 522.601 101.12C522.265 101.12 521.953 101.064 521.665 100.952C521.385 100.832 521.157 100.628 520.981 100.34C520.805 100.052 520.717 99.648 520.717 99.128V95.384H519.805V94.88L520.729 94.46L521.149 93.092H521.773V94.568H523.633V95.384H521.773V99.104C521.773 99.496 521.865 99.788 522.049 99.98C522.241 100.164 522.485 100.256 522.781 100.256ZM526.025 91.88V94.556C526.025 94.876 526.005 95.176 525.965 95.456H526.037C526.245 95.128 526.525 94.88 526.877 94.712C527.237 94.544 527.625 94.46 528.041 94.46C528.817 94.46 529.401 94.648 529.793 95.024C530.193 95.392 530.393 95.988 530.393 96.812V101H529.349V96.884C529.349 95.852 528.869 95.336 527.909 95.336C527.189 95.336 526.693 95.54 526.421 95.948C526.157 96.348 526.025 96.924 526.025 97.676V101H524.969V91.88H526.025ZM534.823 94.46C535.607 94.46 536.187 94.632 536.563 94.976C536.939 95.32 537.127 95.868 537.127 96.62V101H536.359L536.155 100.088H536.107C535.827 100.44 535.531 100.7 535.219 100.868C534.907 101.036 534.483 101.12 533.947 101.12C533.363 101.12 532.879 100.968 532.495 100.664C532.111 100.352 531.919 99.868 531.919 99.212C531.919 98.572 532.171 98.08 532.675 97.736C533.179 97.384 533.955 97.192 535.003 97.16L536.095 97.124V96.74C536.095 96.204 535.979 95.832 535.747 95.624C535.515 95.416 535.187 95.312 534.763 95.312C534.427 95.312 534.107 95.364 533.803 95.468C533.499 95.564 533.215 95.676 532.951 95.804L532.627 95.012C532.907 94.86 533.239 94.732 533.623 94.628C534.007 94.516 534.407 94.46 534.823 94.46ZM536.083 97.856L535.135 97.892C534.335 97.924 533.779 98.052 533.467 98.276C533.163 98.5 533.011 98.816 533.011 99.224C533.011 99.584 533.119 99.848 533.335 100.016C533.559 100.184 533.843 100.268 534.187 100.268C534.723 100.268 535.171 100.12 535.531 99.824C535.899 99.52 536.083 99.056 536.083 98.432V97.856ZM541.262 100.256C541.422 100.256 541.586 100.244 541.754 100.22C541.922 100.196 542.058 100.164 542.162 100.124V100.928C542.05 100.984 541.89 101.028 541.682 101.06C541.474 101.1 541.274 101.12 541.082 101.12C540.746 101.12 540.434 101.064 540.146 100.952C539.866 100.832 539.638 100.628 539.462 100.34C539.286 100.052 539.198 99.648 539.198 99.128V95.384H538.286V94.88L539.21 94.46L539.63 93.092H540.254V94.568H542.114V95.384H540.254V99.104C540.254 99.496 540.346 99.788 540.53 99.98C540.722 100.164 540.966 100.256 541.262 100.256ZM549.003 94.46C549.787 94.46 550.367 94.632 550.743 94.976C551.119 95.32 551.307 95.868 551.307 96.62V101H550.539L550.335 100.088H550.287C550.007 100.44 549.711 100.7 549.399 100.868C549.087 101.036 548.663 101.12 548.127 101.12C547.543 101.12 547.059 100.968 546.675 100.664C546.291 100.352 546.099 99.868 546.099 99.212C546.099 98.572 546.351 98.08 546.855 97.736C547.359 97.384 548.135 97.192 549.183 97.16L550.275 97.124V96.74C550.275 96.204 550.159 95.832 549.927 95.624C549.695 95.416 549.367 95.312 548.943 95.312C548.607 95.312 548.287 95.364 547.983 95.468C547.679 95.564 547.395 95.676 547.131 95.804L546.807 95.012C547.087 94.86 547.419 94.732 547.803 94.628C548.187 94.516 548.587 94.46 549.003 94.46ZM550.263 97.856L549.315 97.892C548.515 97.924 547.959 98.052 547.647 98.276C547.343 98.5 547.191 98.816 547.191 99.224C547.191 99.584 547.299 99.848 547.515 100.016C547.739 100.184 548.023 100.268 548.367 100.268C548.903 100.268 549.351 100.12 549.711 99.824C550.079 99.52 550.263 99.056 550.263 98.432V97.856ZM556.353 94.448C557.145 94.448 557.781 94.724 558.261 95.276C558.749 95.828 558.993 96.66 558.993 97.772C558.993 98.868 558.749 99.7 558.261 100.268C557.781 100.836 557.141 101.12 556.341 101.12C555.845 101.12 555.433 101.028 555.105 100.844C554.785 100.66 554.533 100.44 554.349 100.184H554.277C554.285 100.32 554.297 100.492 554.313 100.7C554.337 100.908 554.349 101.088 554.349 101.24V103.88H553.293V94.568H554.157L554.301 95.444H554.349C554.541 95.164 554.793 94.928 555.105 94.736C555.417 94.544 555.833 94.448 556.353 94.448ZM556.161 95.336C555.505 95.336 555.041 95.52 554.769 95.888C554.497 96.256 554.357 96.816 554.349 97.568V97.772C554.349 98.564 554.477 99.176 554.733 99.608C554.997 100.032 555.481 100.244 556.185 100.244C556.569 100.244 556.889 100.14 557.145 99.932C557.401 99.716 557.589 99.42 557.709 99.044C557.837 98.668 557.901 98.24 557.901 97.76C557.901 97.024 557.757 96.436 557.469 95.996C557.189 95.556 556.753 95.336 556.161 95.336ZM563.736 94.448C564.528 94.448 565.164 94.724 565.644 95.276C566.132 95.828 566.376 96.66 566.376 97.772C566.376 98.868 566.132 99.7 565.644 100.268C565.164 100.836 564.524 101.12 563.724 101.12C563.228 101.12 562.816 101.028 562.488 100.844C562.168 100.66 561.916 100.44 561.732 100.184H561.66C561.668 100.32 561.68 100.492 561.696 100.7C561.72 100.908 561.732 101.088 561.732 101.24V103.88H560.676V94.568H561.54L561.684 95.444H561.732C561.924 95.164 562.176 94.928 562.488 94.736C562.8 94.544 563.216 94.448 563.736 94.448ZM563.544 95.336C562.888 95.336 562.424 95.52 562.152 95.888C561.88 96.256 561.74 96.816 561.732 97.568V97.772C561.732 98.564 561.86 99.176 562.116 99.608C562.38 100.032 562.864 100.244 563.568 100.244C563.952 100.244 564.272 100.14 564.528 99.932C564.784 99.716 564.972 99.42 565.092 99.044C565.22 98.668 565.284 98.24 565.284 97.76C565.284 97.024 565.14 96.436 564.852 95.996C564.572 95.556 564.136 95.336 563.544 95.336ZM570.543 94.448C571.087 94.448 571.559 94.568 571.959 94.808C572.359 95.048 572.663 95.388 572.871 95.828C573.087 96.26 573.195 96.768 573.195 97.352V97.988H568.791C568.807 98.716 568.991 99.272 569.343 99.656C569.703 100.032 570.203 100.22 570.843 100.22C571.251 100.22 571.611 100.184 571.923 100.112C572.243 100.032 572.571 99.92 572.907 99.776V100.7C572.579 100.844 572.255 100.948 571.935 101.012C571.615 101.084 571.235 101.12 570.795 101.12C570.179 101.12 569.639 100.996 569.175 100.748C568.711 100.5 568.347 100.132 568.083 99.644C567.827 99.156 567.699 98.552 567.699 97.832C567.699 97.128 567.815 96.524 568.047 96.02C568.287 95.516 568.619 95.128 569.043 94.856C569.475 94.584 569.975 94.448 570.543 94.448ZM570.531 95.312C570.027 95.312 569.627 95.476 569.331 95.804C569.043 96.124 568.871 96.572 568.815 97.148H572.091C572.083 96.604 571.955 96.164 571.707 95.828C571.459 95.484 571.067 95.312 570.531 95.312ZM577.269 94.46C578.053 94.46 578.633 94.632 579.009 94.976C579.385 95.32 579.573 95.868 579.573 96.62V101H578.805L578.601 100.088H578.553C578.273 100.44 577.977 100.7 577.665 100.868C577.353 101.036 576.929 101.12 576.393 101.12C575.809 101.12 575.325 100.968 574.941 100.664C574.557 100.352 574.365 99.868 574.365 99.212C574.365 98.572 574.617 98.08 575.121 97.736C575.625 97.384 576.401 97.192 577.449 97.16L578.541 97.124V96.74C578.541 96.204 578.425 95.832 578.193 95.624C577.961 95.416 577.633 95.312 577.209 95.312C576.873 95.312 576.553 95.364 576.249 95.468C575.945 95.564 575.661 95.676 575.396 95.804L575.073 95.012C575.353 94.86 575.685 94.732 576.069 94.628C576.453 94.516 576.853 94.46 577.269 94.46ZM578.529 97.856L577.581 97.892C576.781 97.924 576.225 98.052 575.913 98.276C575.609 98.5 575.457 98.816 575.457 99.224C575.457 99.584 575.565 99.848 575.781 100.016C576.005 100.184 576.289 100.268 576.633 100.268C577.169 100.268 577.617 100.12 577.977 99.824C578.345 99.52 578.529 99.056 578.529 98.432V97.856ZM584.559 94.448C584.679 94.448 584.807 94.456 584.943 94.472C585.079 94.48 585.203 94.496 585.315 94.52L585.183 95.492C585.079 95.468 584.963 95.448 584.835 95.432C584.707 95.416 584.591 95.408 584.487 95.408C584.159 95.408 583.851 95.5 583.563 95.684C583.275 95.86 583.043 96.112 582.867 96.44C582.699 96.76 582.615 97.136 582.615 97.568V101H581.559V94.568H582.423L582.543 95.744H582.591C582.791 95.392 583.055 95.088 583.383 94.832C583.719 94.576 584.111 94.448 584.559 94.448ZM590.704 99.224C590.704 99.848 590.472 100.32 590.008 100.64C589.544 100.96 588.92 101.12 588.136 101.12C587.688 101.12 587.3 101.084 586.972 101.012C586.652 100.94 586.368 100.84 586.12 100.712V99.752C586.376 99.88 586.684 100 587.044 100.112C587.412 100.216 587.784 100.268 588.16 100.268C588.696 100.268 589.084 100.184 589.324 100.016C589.564 99.84 589.684 99.608 589.684 99.32C589.684 99.16 589.64 99.016 589.552 98.888C589.464 98.76 589.304 98.632 589.072 98.504C588.848 98.376 588.524 98.232 588.1 98.072C587.684 97.912 587.328 97.752 587.032 97.592C586.736 97.432 586.508 97.24 586.348 97.016C586.188 96.792 586.108 96.504 586.108 96.152C586.108 95.608 586.328 95.188 586.768 94.892C587.216 94.596 587.8 94.448 588.52 94.448C588.912 94.448 589.276 94.488 589.612 94.568C589.956 94.648 590.276 94.752 590.572 94.88L590.212 95.72C589.94 95.608 589.656 95.512 589.36 95.432C589.064 95.352 588.76 95.312 588.448 95.312C588.016 95.312 587.684 95.384 587.452 95.528C587.228 95.664 587.116 95.852 587.116 96.092C587.116 96.276 587.168 96.428 587.272 96.548C587.376 96.668 587.548 96.788 587.788 96.908C588.036 97.028 588.364 97.164 588.772 97.316C589.18 97.468 589.528 97.624 589.816 97.784C590.104 97.944 590.324 98.14 590.476 98.372C590.628 98.596 590.704 98.88 590.704 99.224ZM600.967 97.772C600.967 98.836 600.695 99.66 600.151 100.244C599.615 100.828 598.887 101.12 597.967 101.12C597.399 101.12 596.891 100.992 596.443 100.736C596.003 100.472 595.655 100.092 595.399 99.596C595.143 99.092 595.015 98.484 595.015 97.772C595.015 96.708 595.279 95.888 595.807 95.312C596.343 94.736 597.075 94.448 598.003 94.448C598.579 94.448 599.091 94.58 599.539 94.844C599.987 95.1 600.335 95.476 600.583 95.972C600.839 96.46 600.967 97.06 600.967 97.772ZM596.107 97.772C596.107 98.532 596.255 99.136 596.551 99.584C596.855 100.024 597.335 100.244 597.991 100.244C598.639 100.244 599.115 100.024 599.419 99.584C599.723 99.136 599.875 98.532 599.875 97.772C599.875 97.012 599.723 96.416 599.419 95.984C599.115 95.552 598.635 95.336 597.979 95.336C597.323 95.336 596.847 95.552 596.551 95.984C596.255 96.416 596.107 97.012 596.107 97.772ZM605.737 94.448C606.505 94.448 607.085 94.636 607.477 95.012C607.869 95.388 608.065 95.988 608.065 96.812V101H607.021V96.884C607.021 95.852 606.541 95.336 605.581 95.336C604.869 95.336 604.377 95.536 604.105 95.936C603.833 96.336 603.697 96.912 603.697 97.664V101H602.641V94.568H603.493L603.649 95.444H603.709C603.917 95.108 604.205 94.86 604.573 94.7C604.941 94.532 605.329 94.448 605.737 94.448ZM348.076 107.88V110.556C348.076 110.876 348.056 111.176 348.016 111.456H348.088C348.296 111.128 348.576 110.88 348.928 110.712C349.288 110.544 349.676 110.46 350.092 110.46C350.868 110.46 351.452 110.648 351.844 111.024C352.244 111.392 352.444 111.988 352.444 112.812V117H351.4V112.884C351.4 111.852 350.92 111.336 349.96 111.336C349.24 111.336 348.744 111.54 348.472 111.948C348.208 112.348 348.076 112.924 348.076 113.676V117H347.02V107.88H348.076ZM360.03 113.772C360.03 114.836 359.758 115.66 359.214 116.244C358.678 116.828 357.95 117.12 357.03 117.12C356.462 117.12 355.954 116.992 355.506 116.736C355.066 116.472 354.718 116.092 354.462 115.596C354.206 115.092 354.078 114.484 354.078 113.772C354.078 112.708 354.342 111.888 354.87 111.312C355.406 110.736 356.138 110.448 357.066 110.448C357.642 110.448 358.154 110.58 358.602 110.844C359.05 111.1 359.398 111.476 359.646 111.972C359.902 112.46 360.03 113.06 360.03 113.772ZM355.17 113.772C355.17 114.532 355.318 115.136 355.614 115.584C355.918 116.024 356.398 116.244 357.054 116.244C357.702 116.244 358.178 116.024 358.482 115.584C358.786 115.136 358.938 114.532 358.938 113.772C358.938 113.012 358.786 112.416 358.482 111.984C358.178 111.552 357.698 111.336 357.042 111.336C356.386 111.336 355.91 111.552 355.614 111.984C355.318 112.416 355.17 113.012 355.17 113.772ZM362.885 117L360.449 110.568H361.577L362.945 114.36C363.009 114.536 363.077 114.732 363.149 114.948C363.221 115.164 363.285 115.372 363.341 115.572C363.397 115.772 363.437 115.936 363.461 116.064H363.509C363.533 115.936 363.577 115.772 363.641 115.572C363.705 115.364 363.773 115.156 363.845 114.948C363.917 114.732 363.985 114.536 364.049 114.36L365.417 110.568H366.545L364.097 117H362.885ZM370.047 110.448C370.591 110.448 371.063 110.568 371.463 110.808C371.863 111.048 372.167 111.388 372.375 111.828C372.591 112.26 372.699 112.768 372.699 113.352V113.988H368.295C368.311 114.716 368.495 115.272 368.847 115.656C369.207 116.032 369.707 116.22 370.347 116.22C370.755 116.22 371.115 116.184 371.427 116.112C371.747 116.032 372.075 115.92 372.411 115.776V116.7C372.083 116.844 371.759 116.948 371.439 117.012C371.119 117.084 370.739 117.12 370.299 117.12C369.683 117.12 369.143 116.996 368.679 116.748C368.215 116.5 367.851 116.132 367.587 115.644C367.331 115.156 367.203 114.552 367.203 113.832C367.203 113.128 367.319 112.524 367.551 112.02C367.791 111.516 368.123 111.128 368.547 110.856C368.979 110.584 369.479 110.448 370.047 110.448ZM370.035 111.312C369.531 111.312 369.131 111.476 368.835 111.804C368.547 112.124 368.375 112.572 368.319 113.148H371.595C371.587 112.604 371.459 112.164 371.211 111.828C370.963 111.484 370.571 111.312 370.035 111.312ZM377.336 110.448C377.456 110.448 377.584 110.456 377.72 110.472C377.856 110.48 377.98 110.496 378.092 110.52L377.96 111.492C377.856 111.468 377.74 111.448 377.612 111.432C377.484 111.416 377.368 111.408 377.264 111.408C376.936 111.408 376.628 111.5 376.34 111.684C376.052 111.86 375.82 112.112 375.644 112.44C375.476 112.76 375.392 113.136 375.392 113.568V117H374.336V110.568H375.2L375.32 111.744H375.368C375.568 111.392 375.832 111.088 376.16 110.832C376.496 110.576 376.888 110.448 377.336 110.448ZM388.003 113.772C388.003 114.836 387.731 115.66 387.187 116.244C386.651 116.828 385.923 117.12 385.003 117.12C384.435 117.12 383.927 116.992 383.479 116.736C383.039 116.472 382.691 116.092 382.435 115.596C382.179 115.092 382.051 114.484 382.051 113.772C382.051 112.708 382.315 111.888 382.843 111.312C383.379 110.736 384.111 110.448 385.039 110.448C385.615 110.448 386.127 110.58 386.575 110.844C387.023 111.1 387.371 111.476 387.619 111.972C387.875 112.46 388.003 113.06 388.003 113.772ZM383.143 113.772C383.143 114.532 383.291 115.136 383.587 115.584C383.891 116.024 384.371 116.244 385.027 116.244C385.675 116.244 386.151 116.024 386.455 115.584C386.759 115.136 386.911 114.532 386.911 113.772C386.911 113.012 386.759 112.416 386.455 111.984C386.151 111.552 385.671 111.336 385.015 111.336C384.359 111.336 383.883 111.552 383.587 111.984C383.291 112.416 383.143 113.012 383.143 113.772ZM392.676 110.448C392.796 110.448 392.924 110.456 393.06 110.472C393.196 110.48 393.32 110.496 393.432 110.52L393.3 111.492C393.196 111.468 393.08 111.448 392.952 111.432C392.824 111.416 392.708 111.408 392.604 111.408C392.276 111.408 391.968 111.5 391.68 111.684C391.392 111.86 391.16 112.112 390.984 112.44C390.816 112.76 390.732 113.136 390.732 113.568V117H389.676V110.568H390.54L390.66 111.744H390.708C390.908 111.392 391.172 111.088 391.5 110.832C391.836 110.576 392.228 110.448 392.676 110.448ZM400.714 111.384H399.094V117H398.038V111.384H396.91V110.892L398.038 110.532V110.16C398.038 109.328 398.218 108.732 398.578 108.372C398.946 108.004 399.462 107.82 400.126 107.82C400.374 107.82 400.606 107.844 400.822 107.892C401.038 107.932 401.222 107.98 401.374 108.036L401.098 108.864C400.97 108.824 400.822 108.784 400.654 108.744C400.486 108.704 400.314 108.684 400.138 108.684C399.786 108.684 399.522 108.804 399.346 109.044C399.178 109.276 399.094 109.644 399.094 110.148V110.568H400.714V111.384ZM407.467 113.772C407.467 114.836 407.195 115.66 406.651 116.244C406.115 116.828 405.387 117.12 404.467 117.12C403.899 117.12 403.391 116.992 402.943 116.736C402.503 116.472 402.155 116.092 401.899 115.596C401.643 115.092 401.515 114.484 401.515 113.772C401.515 112.708 401.779 111.888 402.307 111.312C402.843 110.736 403.575 110.448 404.503 110.448C405.079 110.448 405.591 110.58 406.039 110.844C406.487 111.1 406.835 111.476 407.083 111.972C407.339 112.46 407.467 113.06 407.467 113.772ZM402.607 113.772C402.607 114.532 402.755 115.136 403.051 115.584C403.355 116.024 403.835 116.244 404.491 116.244C405.139 116.244 405.615 116.024 405.919 115.584C406.223 115.136 406.375 114.532 406.375 113.772C406.375 113.012 406.223 112.416 405.919 111.984C405.615 111.552 405.135 111.336 404.479 111.336C403.823 111.336 403.347 111.552 403.051 111.984C402.755 112.416 402.607 113.012 402.607 113.772ZM411.721 117.12C411.145 117.12 410.637 117.004 410.197 116.772C409.757 116.54 409.409 116.18 409.153 115.692C408.905 115.204 408.781 114.58 408.781 113.82C408.781 113.028 408.909 112.384 409.165 111.888C409.429 111.392 409.789 111.028 410.245 110.796C410.701 110.564 411.217 110.448 411.793 110.448C412.113 110.448 412.425 110.484 412.729 110.556C413.041 110.62 413.293 110.7 413.485 110.796L413.161 111.672C412.969 111.6 412.745 111.532 412.489 111.468C412.233 111.404 411.993 111.372 411.769 111.372C410.505 111.372 409.873 112.184 409.873 113.808C409.873 114.584 410.025 115.18 410.329 115.596C410.641 116.004 411.101 116.208 411.709 116.208C412.053 116.208 412.361 116.172 412.633 116.1C412.905 116.028 413.153 115.94 413.377 115.836V116.772C413.161 116.884 412.921 116.968 412.657 117.024C412.401 117.088 412.089 117.12 411.721 117.12ZM420.283 110.568V117H419.419L419.263 116.148H419.215C419.007 116.484 418.719 116.732 418.351 116.892C417.983 117.044 417.591 117.12 417.175 117.12C416.399 117.12 415.815 116.936 415.423 116.568C415.031 116.192 414.835 115.596 414.835 114.78V110.568H415.903V114.708C415.903 115.732 416.379 116.244 417.331 116.244C418.043 116.244 418.535 116.044 418.807 115.644C419.087 115.244 419.227 114.668 419.227 113.916V110.568H420.283ZM426.513 115.224C426.513 115.848 426.281 116.32 425.817 116.64C425.353 116.96 424.729 117.12 423.945 117.12C423.497 117.12 423.109 117.084 422.781 117.012C422.461 116.94 422.177 116.84 421.929 116.712V115.752C422.185 115.88 422.493 116 422.853 116.112C423.221 116.216 423.593 116.268 423.969 116.268C424.505 116.268 424.893 116.184 425.133 116.016C425.373 115.84 425.493 115.608 425.493 115.32C425.493 115.16 425.449 115.016 425.361 114.888C425.273 114.76 425.113 114.632 424.881 114.504C424.657 114.376 424.333 114.232 423.909 114.072C423.493 113.912 423.137 113.752 422.841 113.592C422.545 113.432 422.317 113.24 422.157 113.016C421.997 112.792 421.917 112.504 421.917 112.152C421.917 111.608 422.137 111.188 422.577 110.892C423.025 110.596 423.609 110.448 424.329 110.448C424.721 110.448 425.085 110.488 425.421 110.568C425.765 110.648 426.085 110.752 426.381 110.88L426.021 111.72C425.749 111.608 425.465 111.512 425.169 111.432C424.873 111.352 424.569 111.312 424.257 111.312C423.825 111.312 423.493 111.384 423.261 111.528C423.037 111.664 422.925 111.852 422.925 112.092C422.925 112.276 422.977 112.428 423.081 112.548C423.185 112.668 423.357 112.788 423.597 112.908C423.845 113.028 424.173 113.164 424.581 113.316C424.989 113.468 425.337 113.624 425.625 113.784C425.913 113.944 426.133 114.14 426.285 114.372C426.437 114.596 426.513 114.88 426.513 115.224ZM427.911 116.352C427.911 116.056 427.983 115.848 428.127 115.728C428.271 115.608 428.443 115.548 428.643 115.548C428.843 115.548 429.019 115.608 429.171 115.728C429.323 115.848 429.399 116.056 429.399 116.352C429.399 116.64 429.323 116.848 429.171 116.976C429.019 117.104 428.843 117.168 428.643 117.168C428.443 117.168 428.271 117.104 428.127 116.976C427.983 116.848 427.911 116.64 427.911 116.352ZM436.543 116.256C436.703 116.256 436.867 116.244 437.035 116.22C437.203 116.196 437.339 116.164 437.443 116.124V116.928C437.331 116.984 437.171 117.028 436.963 117.06C436.755 117.1 436.555 117.12 436.363 117.12C436.027 117.12 435.715 117.064 435.427 116.952C435.147 116.832 434.919 116.628 434.743 116.34C434.567 116.052 434.479 115.648 434.479 115.128V111.384H433.567V110.88L434.491 110.46L434.911 109.092H435.535V110.568H437.395V111.384H435.535V115.104C435.535 115.496 435.627 115.788 435.811 115.98C436.003 116.164 436.247 116.256 436.543 116.256ZM444.323 113.772C444.323 114.836 444.051 115.66 443.507 116.244C442.971 116.828 442.243 117.12 441.323 117.12C440.755 117.12 440.247 116.992 439.799 116.736C439.359 116.472 439.011 116.092 438.755 115.596C438.499 115.092 438.371 114.484 438.371 113.772C438.371 112.708 438.635 111.888 439.163 111.312C439.699 110.736 440.431 110.448 441.359 110.448C441.935 110.448 442.447 110.58 442.895 110.844C443.343 111.1 443.691 111.476 443.939 111.972C444.195 112.46 444.323 113.06 444.323 113.772ZM439.463 113.772C439.463 114.532 439.611 115.136 439.907 115.584C440.211 116.024 440.691 116.244 441.347 116.244C441.995 116.244 442.471 116.024 442.775 115.584C443.079 115.136 443.231 114.532 443.231 113.772C443.231 113.012 443.079 112.416 442.775 111.984C442.471 111.552 441.991 111.336 441.335 111.336C440.679 111.336 440.203 111.552 439.907 111.984C439.611 112.416 439.463 113.012 439.463 113.772ZM450.17 107.88V110.556C450.17 110.876 450.15 111.176 450.11 111.456H450.182C450.39 111.128 450.67 110.88 451.022 110.712C451.382 110.544 451.77 110.46 452.186 110.46C452.962 110.46 453.546 110.648 453.938 111.024C454.338 111.392 454.538 111.988 454.538 112.812V117H453.494V112.884C453.494 111.852 453.014 111.336 452.054 111.336C451.334 111.336 450.838 111.54 450.566 111.948C450.302 112.348 450.17 112.924 450.17 113.676V117H449.114V107.88H450.17ZM459.016 110.448C459.56 110.448 460.032 110.568 460.432 110.808C460.832 111.048 461.136 111.388 461.344 111.828C461.56 112.26 461.668 112.768 461.668 113.352V113.988H457.264C457.28 114.716 457.464 115.272 457.816 115.656C458.176 116.032 458.676 116.22 459.316 116.22C459.724 116.22 460.084 116.184 460.396 116.112C460.716 116.032 461.044 115.92 461.38 115.776V116.7C461.052 116.844 460.728 116.948 460.408 117.012C460.088 117.084 459.708 117.12 459.268 117.12C458.652 117.12 458.112 116.996 457.648 116.748C457.184 116.5 456.82 116.132 456.556 115.644C456.3 115.156 456.172 114.552 456.172 113.832C456.172 113.128 456.288 112.524 456.52 112.02C456.76 111.516 457.092 111.128 457.516 110.856C457.948 110.584 458.448 110.448 459.016 110.448ZM459.004 111.312C458.5 111.312 458.1 111.476 457.804 111.804C457.516 112.124 457.344 112.572 457.288 113.148H460.564C460.556 112.604 460.428 112.164 460.18 111.828C459.932 111.484 459.54 111.312 459.004 111.312ZM464.361 117H463.305V107.88H464.361V117ZM469.459 110.448C470.251 110.448 470.887 110.724 471.367 111.276C471.855 111.828 472.099 112.66 472.099 113.772C472.099 114.868 471.855 115.7 471.367 116.268C470.887 116.836 470.247 117.12 469.447 117.12C468.951 117.12 468.539 117.028 468.211 116.844C467.891 116.66 467.639 116.44 467.455 116.184H467.383C467.391 116.32 467.403 116.492 467.419 116.7C467.443 116.908 467.455 117.088 467.455 117.24V119.88H466.399V110.568H467.263L467.407 111.444H467.455C467.647 111.164 467.899 110.928 468.211 110.736C468.523 110.544 468.939 110.448 469.459 110.448ZM469.267 111.336C468.611 111.336 468.147 111.52 467.875 111.888C467.603 112.256 467.463 112.816 467.455 113.568V113.772C467.455 114.564 467.583 115.176 467.839 115.608C468.103 116.032 468.587 116.244 469.291 116.244C469.675 116.244 469.995 116.14 470.251 115.932C470.507 115.716 470.695 115.42 470.815 115.044C470.943 114.668 471.007 114.24 471.007 113.76C471.007 113.024 470.863 112.436 470.575 111.996C470.295 111.556 469.859 111.336 469.267 111.336ZM482.275 110.568V117H481.411L481.255 116.148H481.207C480.999 116.484 480.711 116.732 480.343 116.892C479.975 117.044 479.583 117.12 479.167 117.12C478.391 117.12 477.807 116.936 477.415 116.568C477.023 116.192 476.827 115.596 476.827 114.78V110.568H477.895V114.708C477.895 115.732 478.371 116.244 479.323 116.244C480.035 116.244 480.527 116.044 480.799 115.644C481.079 115.244 481.219 114.668 481.219 113.916V110.568H482.275ZM488.505 115.224C488.505 115.848 488.273 116.32 487.809 116.64C487.345 116.96 486.721 117.12 485.937 117.12C485.489 117.12 485.101 117.084 484.773 117.012C484.453 116.94 484.169 116.84 483.921 116.712V115.752C484.177 115.88 484.485 116 484.845 116.112C485.213 116.216 485.585 116.268 485.961 116.268C486.497 116.268 486.885 116.184 487.125 116.016C487.365 115.84 487.485 115.608 487.485 115.32C487.485 115.16 487.441 115.016 487.353 114.888C487.265 114.76 487.105 114.632 486.873 114.504C486.649 114.376 486.325 114.232 485.901 114.072C485.485 113.912 485.129 113.752 484.833 113.592C484.537 113.432 484.309 113.24 484.149 113.016C483.989 112.792 483.909 112.504 483.909 112.152C483.909 111.608 484.129 111.188 484.569 110.892C485.017 110.596 485.601 110.448 486.321 110.448C486.713 110.448 487.077 110.488 487.413 110.568C487.757 110.648 488.077 110.752 488.373 110.88L488.013 111.72C487.741 111.608 487.457 111.512 487.161 111.432C486.865 111.352 486.561 111.312 486.249 111.312C485.817 111.312 485.485 111.384 485.253 111.528C485.029 111.664 484.917 111.852 484.917 112.092C484.917 112.276 484.969 112.428 485.073 112.548C485.177 112.668 485.349 112.788 485.589 112.908C485.837 113.028 486.165 113.164 486.573 113.316C486.981 113.468 487.329 113.624 487.617 113.784C487.905 113.944 488.125 114.14 488.277 114.372C488.429 114.596 488.505 114.88 488.505 115.224ZM492.543 110.448C493.087 110.448 493.559 110.568 493.959 110.808C494.359 111.048 494.663 111.388 494.871 111.828C495.087 112.26 495.195 112.768 495.195 113.352V113.988H490.791C490.807 114.716 490.991 115.272 491.343 115.656C491.703 116.032 492.203 116.22 492.843 116.22C493.251 116.22 493.611 116.184 493.923 116.112C494.243 116.032 494.571 115.92 494.907 115.776V116.7C494.579 116.844 494.255 116.948 493.935 117.012C493.615 117.084 493.235 117.12 492.795 117.12C492.179 117.12 491.639 116.996 491.175 116.748C490.711 116.5 490.347 116.132 490.083 115.644C489.827 115.156 489.699 114.552 489.699 113.832C489.699 113.128 489.815 112.524 490.047 112.02C490.287 111.516 490.619 111.128 491.043 110.856C491.475 110.584 491.975 110.448 492.543 110.448ZM492.531 111.312C492.027 111.312 491.627 111.476 491.331 111.804C491.043 112.124 490.871 112.572 490.815 113.148H494.091C494.083 112.604 493.955 112.164 493.707 111.828C493.459 111.484 493.067 111.312 492.531 111.312ZM499.833 110.448C499.953 110.448 500.081 110.456 500.217 110.472C500.353 110.48 500.477 110.496 500.589 110.52L500.457 111.492C500.353 111.468 500.237 111.448 500.109 111.432C499.981 111.416 499.865 111.408 499.761 111.408C499.433 111.408 499.125 111.5 498.837 111.684C498.549 111.86 498.317 112.112 498.141 112.44C497.973 112.76 497.889 113.136 497.889 113.568V117H496.833V110.568H497.697L497.817 111.744H497.865C498.065 111.392 498.329 111.088 498.657 110.832C498.993 110.576 499.385 110.448 499.833 110.448ZM505.978 115.224C505.978 115.848 505.746 116.32 505.282 116.64C504.818 116.96 504.194 117.12 503.41 117.12C502.962 117.12 502.574 117.084 502.246 117.012C501.926 116.94 501.642 116.84 501.394 116.712V115.752C501.65 115.88 501.958 116 502.318 116.112C502.686 116.216 503.058 116.268 503.434 116.268C503.97 116.268 504.358 116.184 504.598 116.016C504.838 115.84 504.958 115.608 504.958 115.32C504.958 115.16 504.914 115.016 504.826 114.888C504.738 114.76 504.578 114.632 504.346 114.504C504.122 114.376 503.798 114.232 503.374 114.072C502.958 113.912 502.602 113.752 502.306 113.592C502.01 113.432 501.782 113.24 501.622 113.016C501.462 112.792 501.382 112.504 501.382 112.152C501.382 111.608 501.602 111.188 502.042 110.892C502.49 110.596 503.074 110.448 503.794 110.448C504.186 110.448 504.55 110.488 504.886 110.568C505.23 110.648 505.55 110.752 505.846 110.88L505.486 111.72C505.214 111.608 504.93 111.512 504.634 111.432C504.338 111.352 504.034 111.312 503.722 111.312C503.29 111.312 502.958 111.384 502.726 111.528C502.502 111.664 502.39 111.852 502.39 112.092C502.39 112.276 502.442 112.428 502.546 112.548C502.65 112.668 502.822 112.788 503.062 112.908C503.31 113.028 503.638 113.164 504.046 113.316C504.454 113.468 504.802 113.624 505.09 113.784C505.378 113.944 505.598 114.14 505.75 114.372C505.902 114.596 505.978 114.88 505.978 115.224ZM515.905 116.988L514.801 113.364C514.697 113.036 514.605 112.716 514.525 112.404C514.445 112.092 514.389 111.844 514.357 111.66H514.309C514.277 111.844 514.225 112.092 514.153 112.404C514.081 112.716 513.989 113.04 513.877 113.376L512.725 116.988H511.525L509.761 110.556H510.853L511.741 113.988C511.829 114.332 511.913 114.68 511.993 115.032C512.073 115.384 512.129 115.676 512.161 115.908H512.209C512.233 115.772 512.269 115.604 512.317 115.404C512.365 115.204 512.417 114.996 512.473 114.78C512.529 114.556 512.585 114.356 512.641 114.18L513.781 110.556H514.933L516.037 114.18C516.117 114.46 516.201 114.76 516.289 115.08C516.377 115.4 516.437 115.672 516.469 115.896H516.517C516.541 115.696 516.593 115.42 516.673 115.068C516.761 114.716 516.853 114.356 516.949 113.988L517.849 110.556H518.929L517.141 116.988H515.905ZM520.623 108.156C520.783 108.156 520.923 108.212 521.043 108.324C521.171 108.428 521.235 108.596 521.235 108.828C521.235 109.06 521.171 109.232 521.043 109.344C520.923 109.448 520.783 109.5 520.623 109.5C520.447 109.5 520.299 109.448 520.179 109.344C520.059 109.232 519.999 109.06 519.999 108.828C519.999 108.596 520.059 108.428 520.179 108.324C520.299 108.212 520.447 108.156 520.623 108.156ZM521.139 110.568V117H520.083V110.568H521.139ZM525.324 116.256C525.484 116.256 525.648 116.244 525.816 116.22C525.984 116.196 526.12 116.164 526.224 116.124V116.928C526.112 116.984 525.952 117.028 525.744 117.06C525.536 117.1 525.336 117.12 525.144 117.12C524.808 117.12 524.496 117.064 524.208 116.952C523.928 116.832 523.7 116.628 523.524 116.34C523.348 116.052 523.26 115.648 523.26 115.128V111.384H522.348V110.88L523.272 110.46L523.692 109.092H524.316V110.568H526.176V111.384H524.316V115.104C524.316 115.496 524.408 115.788 524.592 115.98C524.784 116.164 525.028 116.256 525.324 116.256ZM528.568 107.88V110.556C528.568 110.876 528.548 111.176 528.508 111.456H528.58C528.788 111.128 529.068 110.88 529.42 110.712C529.78 110.544 530.168 110.46 530.584 110.46C531.36 110.46 531.944 110.648 532.336 111.024C532.736 111.392 532.936 111.988 532.936 112.812V117H531.892V112.884C531.892 111.852 531.412 111.336 530.452 111.336C529.732 111.336 529.236 111.54 528.964 111.948C528.7 112.348 528.568 112.924 528.568 113.676V117H527.512V107.88H528.568ZM540.483 110.46C541.267 110.46 541.847 110.632 542.223 110.976C542.599 111.32 542.787 111.868 542.787 112.62V117H542.019L541.815 116.088H541.767C541.487 116.44 541.191 116.7 540.879 116.868C540.567 117.036 540.143 117.12 539.607 117.12C539.023 117.12 538.539 116.968 538.155 116.664C537.771 116.352 537.579 115.868 537.579 115.212C537.579 114.572 537.831 114.08 538.335 113.736C538.839 113.384 539.615 113.192 540.663 113.16L541.755 113.124V112.74C541.755 112.204 541.639 111.832 541.407 111.624C541.175 111.416 540.847 111.312 540.423 111.312C540.087 111.312 539.767 111.364 539.463 111.468C539.159 111.564 538.875 111.676 538.611 111.804L538.287 111.012C538.567 110.86 538.899 110.732 539.283 110.628C539.667 110.516 540.067 110.46 540.483 110.46ZM541.743 113.856L540.795 113.892C539.995 113.924 539.439 114.052 539.127 114.276C538.823 114.5 538.671 114.816 538.671 115.224C538.671 115.584 538.779 115.848 538.995 116.016C539.219 116.184 539.503 116.268 539.847 116.268C540.383 116.268 540.831 116.12 541.191 115.824C541.559 115.52 541.743 115.056 541.743 114.432V113.856ZM547.87 110.448C548.638 110.448 549.218 110.636 549.61 111.012C550.002 111.388 550.198 111.988 550.198 112.812V117H549.154V112.884C549.154 111.852 548.674 111.336 547.714 111.336C547.002 111.336 546.51 111.536 546.238 111.936C545.966 112.336 545.83 112.912 545.83 113.664V117H544.774V110.568H545.626L545.782 111.444H545.842C546.05 111.108 546.338 110.86 546.706 110.7C547.074 110.532 547.462 110.448 547.87 110.448ZM557.745 110.46C558.529 110.46 559.109 110.632 559.485 110.976C559.861 111.32 560.049 111.868 560.049 112.62V117H559.281L559.077 116.088H559.029C558.749 116.44 558.453 116.7 558.141 116.868C557.829 117.036 557.405 117.12 556.869 117.12C556.285 117.12 555.801 116.968 555.417 116.664C555.033 116.352 554.841 115.868 554.841 115.212C554.841 114.572 555.093 114.08 555.597 113.736C556.101 113.384 556.877 113.192 557.925 113.16L559.017 113.124V112.74C559.017 112.204 558.901 111.832 558.669 111.624C558.437 111.416 558.109 111.312 557.685 111.312C557.349 111.312 557.029 111.364 556.725 111.468C556.421 111.564 556.137 111.676 555.873 111.804L555.549 111.012C555.829 110.86 556.161 110.732 556.545 110.628C556.929 110.516 557.329 110.46 557.745 110.46ZM559.005 113.856L558.057 113.892C557.257 113.924 556.701 114.052 556.389 114.276C556.085 114.5 555.933 114.816 555.933 115.224C555.933 115.584 556.041 115.848 556.257 116.016C556.481 116.184 556.765 116.268 557.109 116.268C557.645 116.268 558.093 116.12 558.453 115.824C558.821 115.52 559.005 115.056 559.005 114.432V113.856ZM564.616 117.12C564.04 117.12 563.532 117.004 563.092 116.772C562.652 116.54 562.304 116.18 562.048 115.692C561.8 115.204 561.676 114.58 561.676 113.82C561.676 113.028 561.804 112.384 562.06 111.888C562.324 111.392 562.684 111.028 563.14 110.796C563.596 110.564 564.112 110.448 564.688 110.448C565.008 110.448 565.32 110.484 565.624 110.556C565.936 110.62 566.188 110.7 566.38 110.796L566.056 111.672C565.864 111.6 565.64 111.532 565.384 111.468C565.128 111.404 564.888 111.372 564.664 111.372C563.4 111.372 562.768 112.184 562.768 113.808C562.768 114.584 562.92 115.18 563.224 115.596C563.536 116.004 563.996 116.208 564.604 116.208C564.948 116.208 565.256 116.172 565.528 116.1C565.8 116.028 566.048 115.94 566.272 115.836V116.772C566.056 116.884 565.816 116.968 565.552 117.024C565.296 117.088 564.984 117.12 564.616 117.12ZM569.949 116.256C570.109 116.256 570.273 116.244 570.441 116.22C570.609 116.196 570.745 116.164 570.849 116.124V116.928C570.737 116.984 570.577 117.028 570.369 117.06C570.161 117.1 569.961 117.12 569.769 117.12C569.433 117.12 569.121 117.064 568.833 116.952C568.553 116.832 568.325 116.628 568.149 116.34C567.973 116.052 567.885 115.648 567.885 115.128V111.384H566.973V110.88L567.897 110.46L568.317 109.092H568.941V110.568H570.801V111.384H568.941V115.104C568.941 115.496 569.033 115.788 569.217 115.98C569.409 116.164 569.653 116.256 569.949 116.256ZM572.677 108.156C572.837 108.156 572.977 108.212 573.097 108.324C573.225 108.428 573.289 108.596 573.289 108.828C573.289 109.06 573.225 109.232 573.097 109.344C572.977 109.448 572.837 109.5 572.677 109.5C572.501 109.5 572.353 109.448 572.233 109.344C572.113 109.232 572.053 109.06 572.053 108.828C572.053 108.596 572.113 108.428 572.233 108.324C572.353 108.212 572.501 108.156 572.677 108.156ZM573.193 110.568V117H572.137V110.568H573.193ZM580.823 113.772C580.823 114.836 580.551 115.66 580.007 116.244C579.471 116.828 578.743 117.12 577.823 117.12C577.255 117.12 576.747 116.992 576.299 116.736C575.859 116.472 575.511 116.092 575.255 115.596C574.999 115.092 574.871 114.484 574.871 113.772C574.871 112.708 575.135 111.888 575.663 111.312C576.199 110.736 576.931 110.448 577.859 110.448C578.435 110.448 578.947 110.58 579.395 110.844C579.843 111.1 580.191 111.476 580.439 111.972C580.695 112.46 580.823 113.06 580.823 113.772ZM575.963 113.772C575.963 114.532 576.111 115.136 576.407 115.584C576.711 116.024 577.191 116.244 577.847 116.244C578.495 116.244 578.971 116.024 579.275 115.584C579.579 115.136 579.731 114.532 579.731 113.772C579.731 113.012 579.579 112.416 579.275 111.984C578.971 111.552 578.491 111.336 577.835 111.336C577.179 111.336 576.703 111.552 576.407 111.984C576.111 112.416 575.963 113.012 575.963 113.772ZM585.593 110.448C586.361 110.448 586.941 110.636 587.333 111.012C587.725 111.388 587.921 111.988 587.921 112.812V117H586.877V112.884C586.877 111.852 586.397 111.336 585.437 111.336C584.725 111.336 584.233 111.536 583.961 111.936C583.689 112.336 583.553 112.912 583.553 113.664V117H582.497V110.568H583.349L583.505 111.444H583.565C583.773 111.108 584.061 110.86 584.429 110.7C584.797 110.532 585.185 110.448 585.593 110.448ZM589.759 116.352C589.759 116.056 589.831 115.848 589.975 115.728C590.119 115.608 590.291 115.548 590.491 115.548C590.691 115.548 590.867 115.608 591.019 115.728C591.171 115.848 591.247 116.056 591.247 116.352C591.247 116.64 591.171 116.848 591.019 116.976C590.867 117.104 590.691 117.168 590.491 117.168C590.291 117.168 590.119 117.104 589.975 116.976C589.831 116.848 589.759 116.64 589.759 116.352Z" fill="white"/>
<path d="M477 128H491L484 135L477 128Z" fill="#323232"/>
<circle cx="282" cy="107" r="12" fill="#D51588"/>
<path d="M285.942 112H279.096V110.698L281.644 108.122C282.148 107.609 282.559 107.17 282.876 106.806C283.203 106.442 283.441 106.101 283.59 105.784C283.749 105.457 283.828 105.107 283.828 104.734C283.828 104.277 283.697 103.936 283.436 103.712C283.184 103.479 282.839 103.362 282.4 103.362C281.98 103.362 281.588 103.451 281.224 103.628C280.86 103.796 280.482 104.039 280.09 104.356L279.124 103.194C279.535 102.839 279.997 102.531 280.51 102.27C281.033 101.999 281.695 101.864 282.498 101.864C283.142 101.864 283.693 101.981 284.15 102.214C284.617 102.438 284.976 102.755 285.228 103.166C285.48 103.567 285.606 104.029 285.606 104.552C285.606 105.093 285.499 105.593 285.284 106.05C285.069 106.498 284.757 106.951 284.346 107.408C283.945 107.856 283.464 108.341 282.904 108.864L281.322 110.39V110.474H285.942V112Z" fill="white"/>
<path d="M294 107H328" stroke="#D51588"/>
<circle cx="484" cy="52" r="12" fill="#D51588"/>
<path d="M485.968 57H484.204V50.77C484.204 50.4713 484.209 50.154 484.218 49.818C484.227 49.482 484.241 49.1693 484.26 48.88C484.167 48.9733 484.05 49.0853 483.91 49.216C483.779 49.3467 483.635 49.4727 483.476 49.594L482.356 50.49L481.474 49.398L484.498 47.004H485.968V57Z" fill="white"/>
<path d="M484 64V80" stroke="#D51588"/>
<path d="M484 135V151" stroke="#D51588"/>
<circle cx="484" cy="163" r="12" fill="#D51588"/>
<path d="M487.55 160.286C487.55 160.967 487.349 161.513 486.948 161.924C486.556 162.325 486.047 162.596 485.422 162.736V162.778C486.225 162.881 486.831 163.133 487.242 163.534C487.653 163.935 487.858 164.463 487.858 165.116C487.858 165.695 487.718 166.213 487.438 166.67C487.158 167.127 486.724 167.487 486.136 167.748C485.557 168.009 484.811 168.14 483.896 168.14C483.345 168.14 482.837 168.093 482.37 168C481.913 167.916 481.479 167.781 481.068 167.594V166.04C481.488 166.255 481.936 166.418 482.412 166.53C482.888 166.642 483.336 166.698 483.756 166.698C484.568 166.698 485.142 166.553 485.478 166.264C485.814 165.965 485.982 165.555 485.982 165.032C485.982 164.537 485.786 164.169 485.394 163.926C485.002 163.683 484.349 163.562 483.434 163.562H482.594V162.148H483.448C484.335 162.148 484.946 162.003 485.282 161.714C485.618 161.425 485.786 161.051 485.786 160.594C485.786 160.193 485.655 159.88 485.394 159.656C485.133 159.432 484.741 159.32 484.218 159.32C483.714 159.32 483.28 159.404 482.916 159.572C482.552 159.731 482.225 159.903 481.936 160.09L481.096 158.872C481.479 158.592 481.931 158.354 482.454 158.158C482.977 157.962 483.593 157.864 484.302 157.864C485.338 157.864 486.136 158.083 486.696 158.522C487.265 158.961 487.55 159.549 487.55 160.286Z" fill="white"/>
<path d="M328 90V124" stroke="#E60074" stroke-width="2"/>
</svg>
