<svg width="791" height="115" viewBox="0 0 791 115" fill="none" xmlns="http://www.w3.org/2000/svg">
<path d="M16 44C13.2311 44 10.5243 44.8211 8.22202 46.3594C5.91973 47.8978 4.12532 50.0843 3.06569 52.6424C2.00607 55.2006 1.72882 58.0155 2.26901 60.7313C2.80921 63.447 4.14258 65.9416 6.10051 67.8995C8.05845 69.8574 10.553 71.1908 13.2687 71.731C15.9845 72.2712 18.7994 71.9939 21.3576 70.9343C23.9157 69.8747 26.1022 68.0803 27.6406 65.778C29.1789 63.4757 30 60.7689 30 58C30 54.287 28.525 50.726 25.8995 48.1005C23.274 45.475 19.713 44 16 44ZM16 70.5C13.5277 70.5 11.111 69.7669 9.05538 68.3934C6.99976 67.0199 5.39761 65.0676 4.45151 62.7835C3.50542 60.4995 3.25787 57.9861 3.74019 55.5614C4.22251 53.1366 5.41301 50.9093 7.16117 49.1612C8.90933 47.413 11.1366 46.2225 13.5614 45.7402C15.9861 45.2579 18.4995 45.5054 20.7835 46.4515C23.0676 47.3976 25.0199 48.9998 26.3934 51.0554C27.7669 53.111 28.5 55.5277 28.5 58C28.4947 61.3136 27.1761 64.4899 24.833 66.833C22.4899 69.1761 19.3136 70.4947 16 70.5Z" fill="black"/>
<path d="M18.5 64H16.75V56C16.75 55.8011 16.671 55.6103 16.5303 55.4697C16.3897 55.329 16.1989 55.25 16 55.25H14.69C14.4911 55.25 14.3003 55.329 14.1597 55.4697C14.019 55.6103 13.94 55.8011 13.94 56C13.94 56.1989 14.019 56.3897 14.1597 56.5303C14.3003 56.671 14.4911 56.75 14.69 56.75H15.25V64H13.5C13.3011 64 13.1103 64.079 12.9697 64.2197C12.829 64.3603 12.75 64.5511 12.75 64.75C12.75 64.9489 12.829 65.1397 12.9697 65.2803C13.1103 65.421 13.3011 65.5 13.5 65.5H18.5C18.6989 65.5 18.8897 65.421 19.0303 65.2803C19.171 65.1397 19.25 64.9489 19.25 64.75C19.25 64.5511 19.171 64.3603 19.0303 64.2197C18.8897 64.079 18.6989 64 18.5 64Z" fill="black"/>
<path d="M16 52.92C16.2591 52.92 16.5124 52.8432 16.7278 52.6992C16.9432 52.5553 17.1111 52.3507 17.2103 52.1113C17.3094 51.8719 17.3354 51.6085 17.2848 51.3544C17.2343 51.1003 17.1095 50.8669 16.9263 50.6837C16.7431 50.5005 16.5097 50.3757 16.2556 50.3252C16.0015 50.2746 15.7381 50.3006 15.4987 50.3997C15.2593 50.4989 15.0547 50.6668 14.9108 50.8822C14.7668 51.0976 14.69 51.3509 14.69 51.61C14.69 51.9574 14.828 52.2906 15.0737 52.5363C15.3194 52.782 15.6526 52.92 16 52.92Z" fill="black"/>
<rect width="102" height="32" rx="4" fill="#323232"/>
<path d="M15.876 21H14.796V13.38H12.12V12.432H18.54V13.38H15.876V21ZM24.4362 17.772C24.4362 18.836 24.1642 19.66 23.6202 20.244C23.0842 20.828 22.3562 21.12 21.4362 21.12C20.8682 21.12 20.3602 20.992 19.9122 20.736C19.4722 20.472 19.1242 20.092 18.8682 19.596C18.6122 19.092 18.4842 18.484 18.4842 17.772C18.4842 16.708 18.7482 15.888 19.2762 15.312C19.8122 14.736 20.5442 14.448 21.4722 14.448C22.0482 14.448 22.5602 14.58 23.0082 14.844C23.4562 15.1 23.8042 15.476 24.0522 15.972C24.3082 16.46 24.4362 17.06 24.4362 17.772ZM19.5762 17.772C19.5762 18.532 19.7242 19.136 20.0202 19.584C20.3242 20.024 20.8042 20.244 21.4602 20.244C22.1082 20.244 22.5842 20.024 22.8882 19.584C23.1922 19.136 23.3442 18.532 23.3442 17.772C23.3442 17.012 23.1922 16.416 22.8882 15.984C22.5842 15.552 22.1042 15.336 21.4482 15.336C20.7922 15.336 20.3162 15.552 20.0202 15.984C19.7242 16.416 19.5762 17.012 19.5762 17.772ZM29.1698 14.448C29.9618 14.448 30.5978 14.724 31.0778 15.276C31.5658 15.828 31.8098 16.66 31.8098 17.772C31.8098 18.868 31.5658 19.7 31.0778 20.268C30.5978 20.836 29.9578 21.12 29.1578 21.12C28.6618 21.12 28.2498 21.028 27.9218 20.844C27.6018 20.66 27.3498 20.44 27.1658 20.184H27.0938C27.1018 20.32 27.1138 20.492 27.1298 20.7C27.1538 20.908 27.1658 21.088 27.1658 21.24V23.88H26.1098V14.568H26.9738L27.1178 15.444H27.1658C27.3578 15.164 27.6098 14.928 27.9218 14.736C28.2338 14.544 28.6498 14.448 29.1698 14.448ZM28.9778 15.336C28.3218 15.336 27.8578 15.52 27.5858 15.888C27.3138 16.256 27.1738 16.816 27.1658 17.568V17.772C27.1658 18.564 27.2938 19.176 27.5498 19.608C27.8138 20.032 28.2978 20.244 29.0018 20.244C29.3858 20.244 29.7058 20.14 29.9618 19.932C30.2178 19.716 30.4058 19.42 30.5258 19.044C30.6538 18.668 30.7178 18.24 30.7178 17.76C30.7178 17.024 30.5738 16.436 30.2858 15.996C30.0058 15.556 29.5698 15.336 28.9778 15.336ZM37.6658 21H36.6098V11.88H37.6658V21ZM42.1876 14.448C42.7316 14.448 43.2036 14.568 43.6036 14.808C44.0036 15.048 44.3076 15.388 44.5156 15.828C44.7316 16.26 44.8396 16.768 44.8396 17.352V17.988H40.4356C40.4516 18.716 40.6356 19.272 40.9876 19.656C41.3476 20.032 41.8476 20.22 42.4876 20.22C42.8956 20.22 43.2556 20.184 43.5676 20.112C43.8876 20.032 44.2156 19.92 44.5516 19.776V20.7C44.2236 20.844 43.8996 20.948 43.5796 21.012C43.2596 21.084 42.8796 21.12 42.4396 21.12C41.8236 21.12 41.2836 20.996 40.8196 20.748C40.3556 20.5 39.9916 20.132 39.7276 19.644C39.4716 19.156 39.3436 18.552 39.3436 17.832C39.3436 17.128 39.4596 16.524 39.6916 16.02C39.9316 15.516 40.2636 15.128 40.6876 14.856C41.1196 14.584 41.6196 14.448 42.1876 14.448ZM42.1756 15.312C41.6716 15.312 41.2716 15.476 40.9756 15.804C40.6876 16.124 40.5156 16.572 40.4596 17.148H43.7356C43.7276 16.604 43.5996 16.164 43.3516 15.828C43.1036 15.484 42.7116 15.312 42.1756 15.312ZM49.441 15.384H47.821V21H46.765V15.384H45.637V14.892L46.765 14.532V14.16C46.765 13.328 46.945 12.732 47.305 12.372C47.673 12.004 48.189 11.82 48.853 11.82C49.101 11.82 49.333 11.844 49.549 11.892C49.765 11.932 49.949 11.98 50.101 12.036L49.825 12.864C49.697 12.824 49.549 12.784 49.381 12.744C49.213 12.704 49.041 12.684 48.865 12.684C48.513 12.684 48.249 12.804 48.073 13.044C47.905 13.276 47.821 13.644 47.821 14.148V14.568H49.441V15.384ZM52.75 20.256C52.91 20.256 53.074 20.244 53.242 20.22C53.41 20.196 53.546 20.164 53.65 20.124V20.928C53.538 20.984 53.378 21.028 53.17 21.06C52.962 21.1 52.762 21.12 52.57 21.12C52.234 21.12 51.922 21.064 51.634 20.952C51.354 20.832 51.126 20.628 50.95 20.34C50.774 20.052 50.686 19.648 50.686 19.128V15.384H49.774V14.88L50.698 14.46L51.118 13.092H51.742V14.568H53.602V15.384H51.742V19.104C51.742 19.496 51.834 19.788 52.018 19.98C52.21 20.164 52.454 20.256 52.75 20.256ZM63.6472 17.772C63.6472 18.836 63.3752 19.66 62.8312 20.244C62.2952 20.828 61.5672 21.12 60.6472 21.12C60.0792 21.12 59.5712 20.992 59.1232 20.736C58.6832 20.472 58.3352 20.092 58.0792 19.596C57.8232 19.092 57.6952 18.484 57.6952 17.772C57.6952 16.708 57.9592 15.888 58.4872 15.312C59.0232 14.736 59.7552 14.448 60.6832 14.448C61.2592 14.448 61.7712 14.58 62.2192 14.844C62.6672 15.1 63.0152 15.476 63.2632 15.972C63.5192 16.46 63.6472 17.06 63.6472 17.772ZM58.7872 17.772C58.7872 18.532 58.9352 19.136 59.2312 19.584C59.5352 20.024 60.0152 20.244 60.6712 20.244C61.3192 20.244 61.7952 20.024 62.0992 19.584C62.4032 19.136 62.5552 18.532 62.5552 17.772C62.5552 17.012 62.4032 16.416 62.0992 15.984C61.7952 15.552 61.3152 15.336 60.6592 15.336C60.0032 15.336 59.5272 15.552 59.2312 15.984C58.9352 16.416 58.7872 17.012 58.7872 17.772ZM68.2848 15.384H66.6648V21H65.6088V15.384H64.4808V14.892L65.6088 14.532V14.16C65.6088 13.328 65.7888 12.732 66.1488 12.372C66.5168 12.004 67.0328 11.82 67.6968 11.82C67.9448 11.82 68.1768 11.844 68.3928 11.892C68.6088 11.932 68.7928 11.98 68.9448 12.036L68.6688 12.864C68.5408 12.824 68.3928 12.784 68.2248 12.744C68.0568 12.704 67.8848 12.684 67.7088 12.684C67.3568 12.684 67.0928 12.804 66.9168 13.044C66.7488 13.276 66.6648 13.644 66.6648 14.148V14.568H68.2848V15.384ZM72.4098 15.384H70.7898V21H69.7338V15.384H68.6058V14.892L69.7338 14.532V14.16C69.7338 13.328 69.9138 12.732 70.2738 12.372C70.6418 12.004 71.1578 11.82 71.8218 11.82C72.0698 11.82 72.3018 11.844 72.5178 11.892C72.7338 11.932 72.9178 11.98 73.0698 12.036L72.7938 12.864C72.6658 12.824 72.5178 12.784 72.3498 12.744C72.1818 12.704 72.0098 12.684 71.8338 12.684C71.4818 12.684 71.2178 12.804 71.0418 13.044C70.8738 13.276 70.7898 13.644 70.7898 14.148V14.568H72.4098V15.384ZM77.7588 19.224C77.7588 19.848 77.5268 20.32 77.0628 20.64C76.5988 20.96 75.9748 21.12 75.1908 21.12C74.7428 21.12 74.3548 21.084 74.0268 21.012C73.7068 20.94 73.4228 20.84 73.1748 20.712V19.752C73.4308 19.88 73.7388 20 74.0988 20.112C74.4668 20.216 74.8388 20.268 75.2148 20.268C75.7508 20.268 76.1388 20.184 76.3788 20.016C76.6188 19.84 76.7388 19.608 76.7388 19.32C76.7388 19.16 76.6948 19.016 76.6068 18.888C76.5188 18.76 76.3588 18.632 76.1268 18.504C75.9028 18.376 75.5788 18.232 75.1548 18.072C74.7388 17.912 74.3828 17.752 74.0868 17.592C73.7908 17.432 73.5628 17.24 73.4028 17.016C73.2428 16.792 73.1628 16.504 73.1628 16.152C73.1628 15.608 73.3828 15.188 73.8228 14.892C74.2708 14.596 74.8548 14.448 75.5748 14.448C75.9668 14.448 76.3308 14.488 76.6668 14.568C77.0108 14.648 77.3308 14.752 77.6268 14.88L77.2668 15.72C76.9948 15.608 76.7108 15.512 76.4148 15.432C76.1188 15.352 75.8148 15.312 75.5028 15.312C75.0708 15.312 74.7388 15.384 74.5068 15.528C74.2828 15.664 74.1708 15.852 74.1708 16.092C74.1708 16.276 74.2228 16.428 74.3268 16.548C74.4308 16.668 74.6028 16.788 74.8428 16.908C75.0908 17.028 75.4188 17.164 75.8268 17.316C76.2348 17.468 76.5828 17.624 76.8708 17.784C77.1588 17.944 77.3788 18.14 77.5308 18.372C77.6828 18.596 77.7588 18.88 77.7588 19.224ZM81.797 14.448C82.341 14.448 82.813 14.568 83.213 14.808C83.613 15.048 83.917 15.388 84.125 15.828C84.341 16.26 84.449 16.768 84.449 17.352V17.988H80.045C80.061 18.716 80.245 19.272 80.597 19.656C80.957 20.032 81.457 20.22 82.097 20.22C82.505 20.22 82.865 20.184 83.177 20.112C83.497 20.032 83.825 19.92 84.161 19.776V20.7C83.833 20.844 83.509 20.948 83.189 21.012C82.869 21.084 82.489 21.12 82.049 21.12C81.433 21.12 80.893 20.996 80.429 20.748C79.965 20.5 79.601 20.132 79.337 19.644C79.081 19.156 78.953 18.552 78.953 17.832C78.953 17.128 79.069 16.524 79.301 16.02C79.541 15.516 79.873 15.128 80.297 14.856C80.729 14.584 81.229 14.448 81.797 14.448ZM81.785 15.312C81.281 15.312 80.881 15.476 80.585 15.804C80.297 16.124 80.125 16.572 80.069 17.148H83.345C83.337 16.604 83.209 16.164 82.961 15.828C82.713 15.484 82.321 15.312 81.785 15.312ZM88.2344 20.256C88.3944 20.256 88.5584 20.244 88.7264 20.22C88.8944 20.196 89.0304 20.164 89.1344 20.124V20.928C89.0224 20.984 88.8624 21.028 88.6544 21.06C88.4464 21.1 88.2464 21.12 88.0544 21.12C87.7184 21.12 87.4064 21.064 87.1184 20.952C86.8384 20.832 86.6104 20.628 86.4344 20.34C86.2584 20.052 86.1704 19.648 86.1704 19.128V15.384H85.2584V14.88L86.1824 14.46L86.6024 13.092H87.2264V14.568H89.0864V15.384H87.2264V19.104C87.2264 19.496 87.3184 19.788 87.5024 19.98C87.6944 20.164 87.9384 20.256 88.2344 20.256Z" fill="white"/>
<path d="M10 32H24L17 39L10 32Z" fill="#323232"/>
<path d="M522 44C519.231 44 516.524 44.8211 514.222 46.3594C511.92 47.8978 510.125 50.0843 509.066 52.6424C508.006 55.2006 507.729 58.0155 508.269 60.7313C508.809 63.447 510.143 65.9416 512.101 67.8995C514.058 69.8574 516.553 71.1908 519.269 71.731C521.984 72.2712 524.799 71.9939 527.358 70.9343C529.916 69.8747 532.102 68.0803 533.641 65.778C535.179 63.4757 536 60.7689 536 58C536 54.287 534.525 50.726 531.899 48.1005C529.274 45.475 525.713 44 522 44ZM522 70.5C519.528 70.5 517.111 69.7669 515.055 68.3934C513 67.0199 511.398 65.0676 510.452 62.7835C509.505 60.4995 509.258 57.9861 509.74 55.5614C510.223 53.1366 511.413 50.9093 513.161 49.1612C514.909 47.413 517.137 46.2225 519.561 45.7402C521.986 45.2579 524.499 45.5054 526.784 46.4515C529.068 47.3976 531.02 48.9998 532.393 51.0554C533.767 53.111 534.5 55.5277 534.5 58C534.495 61.3136 533.176 64.4899 530.833 66.833C528.49 69.1761 525.314 70.4947 522 70.5Z" fill="black"/>
<path d="M524.5 64H522.75V56C522.75 55.8011 522.671 55.6103 522.53 55.4697C522.39 55.329 522.199 55.25 522 55.25H520.69C520.491 55.25 520.3 55.329 520.16 55.4697C520.019 55.6103 519.94 55.8011 519.94 56C519.94 56.1989 520.019 56.3897 520.16 56.5303C520.3 56.671 520.491 56.75 520.69 56.75H521.25V64H519.5C519.301 64 519.11 64.079 518.97 64.2197C518.829 64.3603 518.75 64.5511 518.75 64.75C518.75 64.9489 518.829 65.1397 518.97 65.2803C519.11 65.421 519.301 65.5 519.5 65.5H524.5C524.699 65.5 524.89 65.421 525.03 65.2803C525.171 65.1397 525.25 64.9489 525.25 64.75C525.25 64.5511 525.171 64.3603 525.03 64.2197C524.89 64.079 524.699 64 524.5 64Z" fill="black"/>
<path d="M522 52.92C522.259 52.92 522.512 52.8432 522.728 52.6992C522.943 52.5553 523.111 52.3507 523.21 52.1113C523.309 51.8719 523.335 51.6085 523.285 51.3544C523.234 51.1003 523.11 50.8669 522.926 50.6837C522.743 50.5005 522.51 50.3757 522.256 50.3252C522.001 50.2746 521.738 50.3006 521.499 50.3997C521.259 50.4989 521.055 50.6668 520.911 50.8822C520.767 51.0976 520.69 51.3509 520.69 51.61C520.69 51.9574 520.828 52.2906 521.074 52.5363C521.319 52.782 521.653 52.92 522 52.92Z" fill="black"/>
<rect x="250" y="83" width="102" height="32" rx="4" fill="#323232"/>
<path d="M265.876 104H264.796V96.38H262.12V95.432H268.54V96.38H265.876V104ZM274.436 100.772C274.436 101.836 274.164 102.66 273.62 103.244C273.084 103.828 272.356 104.12 271.436 104.12C270.868 104.12 270.36 103.992 269.912 103.736C269.472 103.472 269.124 103.092 268.868 102.596C268.612 102.092 268.484 101.484 268.484 100.772C268.484 99.708 268.748 98.888 269.276 98.312C269.812 97.736 270.544 97.448 271.472 97.448C272.048 97.448 272.56 97.58 273.008 97.844C273.456 98.1 273.804 98.476 274.052 98.972C274.308 99.46 274.436 100.06 274.436 100.772ZM269.576 100.772C269.576 101.532 269.724 102.136 270.02 102.584C270.324 103.024 270.804 103.244 271.46 103.244C272.108 103.244 272.584 103.024 272.888 102.584C273.192 102.136 273.344 101.532 273.344 100.772C273.344 100.012 273.192 99.416 272.888 98.984C272.584 98.552 272.104 98.336 271.448 98.336C270.792 98.336 270.316 98.552 270.02 98.984C269.724 99.416 269.576 100.012 269.576 100.772ZM279.17 97.448C279.962 97.448 280.598 97.724 281.078 98.276C281.566 98.828 281.81 99.66 281.81 100.772C281.81 101.868 281.566 102.7 281.078 103.268C280.598 103.836 279.958 104.12 279.158 104.12C278.662 104.12 278.25 104.028 277.922 103.844C277.602 103.66 277.35 103.44 277.166 103.184H277.094C277.102 103.32 277.114 103.492 277.13 103.7C277.154 103.908 277.166 104.088 277.166 104.24V106.88H276.11V97.568H276.974L277.118 98.444H277.166C277.358 98.164 277.61 97.928 277.922 97.736C278.234 97.544 278.65 97.448 279.17 97.448ZM278.978 98.336C278.322 98.336 277.858 98.52 277.586 98.888C277.314 99.256 277.174 99.816 277.166 100.568V100.772C277.166 101.564 277.294 102.176 277.55 102.608C277.814 103.032 278.298 103.244 279.002 103.244C279.386 103.244 279.706 103.14 279.962 102.932C280.218 102.716 280.406 102.42 280.526 102.044C280.654 101.668 280.718 101.24 280.718 100.76C280.718 100.024 280.574 99.436 280.286 98.996C280.006 98.556 279.57 98.336 278.978 98.336ZM287.666 104H286.61V94.88H287.666V104ZM292.188 97.448C292.732 97.448 293.204 97.568 293.604 97.808C294.004 98.048 294.308 98.388 294.516 98.828C294.732 99.26 294.84 99.768 294.84 100.352V100.988H290.436C290.452 101.716 290.636 102.272 290.988 102.656C291.348 103.032 291.848 103.22 292.488 103.22C292.896 103.22 293.256 103.184 293.568 103.112C293.888 103.032 294.216 102.92 294.552 102.776V103.7C294.224 103.844 293.9 103.948 293.58 104.012C293.26 104.084 292.88 104.12 292.44 104.12C291.824 104.12 291.284 103.996 290.82 103.748C290.356 103.5 289.992 103.132 289.728 102.644C289.472 102.156 289.344 101.552 289.344 100.832C289.344 100.128 289.46 99.524 289.692 99.02C289.932 98.516 290.264 98.128 290.688 97.856C291.12 97.584 291.62 97.448 292.188 97.448ZM292.176 98.312C291.672 98.312 291.272 98.476 290.976 98.804C290.688 99.124 290.516 99.572 290.46 100.148H293.736C293.728 99.604 293.6 99.164 293.352 98.828C293.104 98.484 292.712 98.312 292.176 98.312ZM299.441 98.384H297.821V104H296.765V98.384H295.637V97.892L296.765 97.532V97.16C296.765 96.328 296.945 95.732 297.305 95.372C297.673 95.004 298.189 94.82 298.853 94.82C299.101 94.82 299.333 94.844 299.549 94.892C299.765 94.932 299.949 94.98 300.101 95.036L299.825 95.864C299.697 95.824 299.549 95.784 299.381 95.744C299.213 95.704 299.041 95.684 298.865 95.684C298.513 95.684 298.249 95.804 298.073 96.044C297.905 96.276 297.821 96.644 297.821 97.148V97.568H299.441V98.384ZM302.75 103.256C302.91 103.256 303.074 103.244 303.242 103.22C303.41 103.196 303.546 103.164 303.65 103.124V103.928C303.538 103.984 303.378 104.028 303.17 104.06C302.962 104.1 302.762 104.12 302.57 104.12C302.234 104.12 301.922 104.064 301.634 103.952C301.354 103.832 301.126 103.628 300.95 103.34C300.774 103.052 300.686 102.648 300.686 102.128V98.384H299.774V97.88L300.698 97.46L301.118 96.092H301.742V97.568H303.602V98.384H301.742V102.104C301.742 102.496 301.834 102.788 302.018 102.98C302.21 103.164 302.454 103.256 302.75 103.256ZM313.647 100.772C313.647 101.836 313.375 102.66 312.831 103.244C312.295 103.828 311.567 104.12 310.647 104.12C310.079 104.12 309.571 103.992 309.123 103.736C308.683 103.472 308.335 103.092 308.079 102.596C307.823 102.092 307.695 101.484 307.695 100.772C307.695 99.708 307.959 98.888 308.487 98.312C309.023 97.736 309.755 97.448 310.683 97.448C311.259 97.448 311.771 97.58 312.219 97.844C312.667 98.1 313.015 98.476 313.263 98.972C313.519 99.46 313.647 100.06 313.647 100.772ZM308.787 100.772C308.787 101.532 308.935 102.136 309.231 102.584C309.535 103.024 310.015 103.244 310.671 103.244C311.319 103.244 311.795 103.024 312.099 102.584C312.403 102.136 312.555 101.532 312.555 100.772C312.555 100.012 312.403 99.416 312.099 98.984C311.795 98.552 311.315 98.336 310.659 98.336C310.003 98.336 309.527 98.552 309.231 98.984C308.935 99.416 308.787 100.012 308.787 100.772ZM318.285 98.384H316.665V104H315.609V98.384H314.481V97.892L315.609 97.532V97.16C315.609 96.328 315.789 95.732 316.149 95.372C316.517 95.004 317.033 94.82 317.697 94.82C317.945 94.82 318.177 94.844 318.393 94.892C318.609 94.932 318.793 94.98 318.945 95.036L318.669 95.864C318.541 95.824 318.393 95.784 318.225 95.744C318.057 95.704 317.885 95.684 317.709 95.684C317.357 95.684 317.093 95.804 316.917 96.044C316.749 96.276 316.665 96.644 316.665 97.148V97.568H318.285V98.384ZM322.41 98.384H320.79V104H319.734V98.384H318.606V97.892L319.734 97.532V97.16C319.734 96.328 319.914 95.732 320.274 95.372C320.642 95.004 321.158 94.82 321.822 94.82C322.07 94.82 322.302 94.844 322.518 94.892C322.734 94.932 322.918 94.98 323.07 95.036L322.794 95.864C322.666 95.824 322.518 95.784 322.35 95.744C322.182 95.704 322.01 95.684 321.834 95.684C321.482 95.684 321.218 95.804 321.042 96.044C320.874 96.276 320.79 96.644 320.79 97.148V97.568H322.41V98.384ZM327.759 102.224C327.759 102.848 327.527 103.32 327.063 103.64C326.599 103.96 325.975 104.12 325.191 104.12C324.743 104.12 324.355 104.084 324.027 104.012C323.707 103.94 323.423 103.84 323.175 103.712V102.752C323.431 102.88 323.739 103 324.099 103.112C324.467 103.216 324.839 103.268 325.215 103.268C325.751 103.268 326.139 103.184 326.379 103.016C326.619 102.84 326.739 102.608 326.739 102.32C326.739 102.16 326.695 102.016 326.607 101.888C326.519 101.76 326.359 101.632 326.127 101.504C325.903 101.376 325.579 101.232 325.155 101.072C324.739 100.912 324.383 100.752 324.087 100.592C323.791 100.432 323.563 100.24 323.403 100.016C323.243 99.792 323.163 99.504 323.163 99.152C323.163 98.608 323.383 98.188 323.823 97.892C324.271 97.596 324.855 97.448 325.575 97.448C325.967 97.448 326.331 97.488 326.667 97.568C327.011 97.648 327.331 97.752 327.627 97.88L327.267 98.72C326.995 98.608 326.711 98.512 326.415 98.432C326.119 98.352 325.815 98.312 325.503 98.312C325.071 98.312 324.739 98.384 324.507 98.528C324.283 98.664 324.171 98.852 324.171 99.092C324.171 99.276 324.223 99.428 324.327 99.548C324.431 99.668 324.603 99.788 324.843 99.908C325.091 100.028 325.419 100.164 325.827 100.316C326.235 100.468 326.583 100.624 326.871 100.784C327.159 100.944 327.379 101.14 327.531 101.372C327.683 101.596 327.759 101.88 327.759 102.224ZM331.797 97.448C332.341 97.448 332.813 97.568 333.213 97.808C333.613 98.048 333.917 98.388 334.125 98.828C334.341 99.26 334.449 99.768 334.449 100.352V100.988H330.045C330.061 101.716 330.245 102.272 330.597 102.656C330.957 103.032 331.457 103.22 332.097 103.22C332.505 103.22 332.865 103.184 333.177 103.112C333.497 103.032 333.825 102.92 334.161 102.776V103.7C333.833 103.844 333.509 103.948 333.189 104.012C332.869 104.084 332.489 104.12 332.049 104.12C331.433 104.12 330.893 103.996 330.429 103.748C329.965 103.5 329.601 103.132 329.337 102.644C329.081 102.156 328.953 101.552 328.953 100.832C328.953 100.128 329.069 99.524 329.301 99.02C329.541 98.516 329.873 98.128 330.297 97.856C330.729 97.584 331.229 97.448 331.797 97.448ZM331.785 98.312C331.281 98.312 330.881 98.476 330.585 98.804C330.297 99.124 330.125 99.572 330.069 100.148H333.345C333.337 99.604 333.209 99.164 332.961 98.828C332.713 98.484 332.321 98.312 331.785 98.312ZM338.234 103.256C338.394 103.256 338.558 103.244 338.726 103.22C338.894 103.196 339.03 103.164 339.134 103.124V103.928C339.022 103.984 338.862 104.028 338.654 104.06C338.446 104.1 338.246 104.12 338.054 104.12C337.718 104.12 337.406 104.064 337.118 103.952C336.838 103.832 336.61 103.628 336.434 103.34C336.258 103.052 336.17 102.648 336.17 102.128V98.384H335.258V97.88L336.182 97.46L336.602 96.092H337.226V97.568H339.086V98.384H337.226V102.104C337.226 102.496 337.318 102.788 337.502 102.98C337.694 103.164 337.938 103.256 338.234 103.256Z" fill="white"/>
<path d="M274 83L260 83L267 76L274 83Z" fill="#323232"/>
<path d="M775 44C772.231 44 769.524 44.8211 767.222 46.3594C764.92 47.8978 763.125 50.0843 762.066 52.6424C761.006 55.2006 760.729 58.0155 761.269 60.7313C761.809 63.447 763.143 65.9416 765.101 67.8995C767.058 69.8574 769.553 71.1908 772.269 71.731C774.984 72.2712 777.799 71.9939 780.358 70.9343C782.916 69.8747 785.102 68.0803 786.641 65.778C788.179 63.4757 789 60.7689 789 58C789 54.287 787.525 50.726 784.899 48.1005C782.274 45.475 778.713 44 775 44ZM775 70.5C772.528 70.5 770.111 69.7669 768.055 68.3934C766 67.0199 764.398 65.0676 763.452 62.7835C762.505 60.4995 762.258 57.9861 762.74 55.5614C763.223 53.1366 764.413 50.9093 766.161 49.1612C767.909 47.413 770.137 46.2225 772.561 45.7402C774.986 45.2579 777.499 45.5054 779.784 46.4515C782.068 47.3976 784.02 48.9998 785.393 51.0554C786.767 53.111 787.5 55.5277 787.5 58C787.495 61.3136 786.176 64.4899 783.833 66.833C781.49 69.1761 778.314 70.4947 775 70.5Z" fill="black"/>
<path d="M777.5 64H775.75V56C775.75 55.8011 775.671 55.6103 775.53 55.4697C775.39 55.329 775.199 55.25 775 55.25H773.69C773.491 55.25 773.3 55.329 773.16 55.4697C773.019 55.6103 772.94 55.8011 772.94 56C772.94 56.1989 773.019 56.3897 773.16 56.5303C773.3 56.671 773.491 56.75 773.69 56.75H774.25V64H772.5C772.301 64 772.11 64.079 771.97 64.2197C771.829 64.3603 771.75 64.5511 771.75 64.75C771.75 64.9489 771.829 65.1397 771.97 65.2803C772.11 65.421 772.301 65.5 772.5 65.5H777.5C777.699 65.5 777.89 65.421 778.03 65.2803C778.171 65.1397 778.25 64.9489 778.25 64.75C778.25 64.5511 778.171 64.3603 778.03 64.2197C777.89 64.079 777.699 64 777.5 64Z" fill="black"/>
<path d="M775 52.92C775.259 52.92 775.512 52.8432 775.728 52.6992C775.943 52.5553 776.111 52.3507 776.21 52.1113C776.309 51.8719 776.335 51.6085 776.285 51.3544C776.234 51.1003 776.11 50.8669 775.926 50.6837C775.743 50.5005 775.51 50.3757 775.256 50.3252C775.001 50.2746 774.738 50.3006 774.499 50.3997C774.259 50.4989 774.055 50.6668 773.911 50.8822C773.767 51.0976 773.69 51.3509 773.69 51.61C773.69 51.9574 773.828 52.2906 774.074 52.5363C774.319 52.782 774.653 52.92 775 52.92Z" fill="black"/>
<rect x="658" y="83" width="133" height="32" rx="4" fill="#323232"/>
<path d="M671.164 95.432H673.612C674.676 95.432 675.484 95.592 676.036 95.912C676.588 96.232 676.864 96.78 676.864 97.556C676.864 98.06 676.724 98.48 676.444 98.816C676.164 99.144 675.76 99.356 675.232 99.452V99.512C675.592 99.576 675.916 99.684 676.204 99.836C676.5 99.988 676.732 100.204 676.9 100.484C677.068 100.764 677.152 101.124 677.152 101.564C677.152 102.34 676.884 102.94 676.348 103.364C675.82 103.788 675.096 104 674.176 104H671.164V95.432ZM672.244 99.08H673.828C674.556 99.08 675.056 98.964 675.328 98.732C675.608 98.492 675.748 98.14 675.748 97.676C675.748 97.204 675.58 96.868 675.244 96.668C674.916 96.46 674.388 96.356 673.66 96.356H672.244V99.08ZM672.244 99.98V103.088H673.972C674.732 103.088 675.26 102.94 675.556 102.644C675.852 102.348 676 101.96 676 101.48C676 101.032 675.844 100.672 675.532 100.4C675.228 100.12 674.68 99.98 673.888 99.98H672.244ZM684.417 100.772C684.417 101.836 684.145 102.66 683.601 103.244C683.065 103.828 682.337 104.12 681.417 104.12C680.849 104.12 680.341 103.992 679.893 103.736C679.453 103.472 679.105 103.092 678.849 102.596C678.593 102.092 678.465 101.484 678.465 100.772C678.465 99.708 678.729 98.888 679.257 98.312C679.793 97.736 680.525 97.448 681.453 97.448C682.029 97.448 682.541 97.58 682.989 97.844C683.437 98.1 683.785 98.476 684.033 98.972C684.289 99.46 684.417 100.06 684.417 100.772ZM679.557 100.772C679.557 101.532 679.705 102.136 680.001 102.584C680.305 103.024 680.785 103.244 681.441 103.244C682.089 103.244 682.565 103.024 682.869 102.584C683.173 102.136 683.325 101.532 683.325 100.772C683.325 100.012 683.173 99.416 682.869 98.984C682.565 98.552 682.085 98.336 681.429 98.336C680.773 98.336 680.297 98.552 680.001 98.984C679.705 99.416 679.557 100.012 679.557 100.772ZM688.238 103.256C688.398 103.256 688.562 103.244 688.73 103.22C688.898 103.196 689.034 103.164 689.138 103.124V103.928C689.026 103.984 688.866 104.028 688.658 104.06C688.45 104.1 688.25 104.12 688.058 104.12C687.722 104.12 687.41 104.064 687.122 103.952C686.842 103.832 686.614 103.628 686.438 103.34C686.262 103.052 686.174 102.648 686.174 102.128V98.384H685.262V97.88L686.186 97.46L686.606 96.092H687.23V97.568H689.09V98.384H687.23V102.104C687.23 102.496 687.322 102.788 687.506 102.98C687.698 103.164 687.942 103.256 688.238 103.256ZM692.574 103.256C692.734 103.256 692.898 103.244 693.066 103.22C693.234 103.196 693.37 103.164 693.474 103.124V103.928C693.362 103.984 693.202 104.028 692.994 104.06C692.786 104.1 692.586 104.12 692.394 104.12C692.058 104.12 691.746 104.064 691.458 103.952C691.178 103.832 690.95 103.628 690.774 103.34C690.598 103.052 690.51 102.648 690.51 102.128V98.384H689.598V97.88L690.522 97.46L690.942 96.092H691.566V97.568H693.426V98.384H691.566V102.104C691.566 102.496 691.658 102.788 691.842 102.98C692.034 103.164 692.278 103.256 692.574 103.256ZM700.354 100.772C700.354 101.836 700.082 102.66 699.538 103.244C699.002 103.828 698.274 104.12 697.354 104.12C696.786 104.12 696.278 103.992 695.83 103.736C695.39 103.472 695.042 103.092 694.786 102.596C694.53 102.092 694.402 101.484 694.402 100.772C694.402 99.708 694.666 98.888 695.194 98.312C695.73 97.736 696.462 97.448 697.39 97.448C697.966 97.448 698.478 97.58 698.926 97.844C699.374 98.1 699.722 98.476 699.97 98.972C700.226 99.46 700.354 100.06 700.354 100.772ZM695.494 100.772C695.494 101.532 695.642 102.136 695.938 102.584C696.242 103.024 696.722 103.244 697.378 103.244C698.026 103.244 698.502 103.024 698.806 102.584C699.11 102.136 699.262 101.532 699.262 100.772C699.262 100.012 699.11 99.416 698.806 98.984C698.502 98.552 698.022 98.336 697.366 98.336C696.71 98.336 696.234 98.552 695.938 98.984C695.642 99.416 695.494 100.012 695.494 100.772ZM709.084 97.448C709.812 97.448 710.356 97.636 710.716 98.012C711.076 98.388 711.256 98.988 711.256 99.812V104H710.212V99.86C710.212 98.844 709.776 98.336 708.904 98.336C708.28 98.336 707.832 98.516 707.56 98.876C707.296 99.236 707.164 99.76 707.164 100.448V104H706.12V99.86C706.12 98.844 705.68 98.336 704.8 98.336C704.152 98.336 703.704 98.536 703.456 98.936C703.208 99.336 703.084 99.912 703.084 100.664V104H702.028V97.568H702.88L703.036 98.444H703.096C703.296 98.108 703.564 97.86 703.9 97.7C704.244 97.532 704.608 97.448 704.992 97.448C706 97.448 706.656 97.808 706.96 98.528H707.02C707.236 98.16 707.528 97.888 707.896 97.712C708.264 97.536 708.66 97.448 709.084 97.448ZM719.36 97.448C719.48 97.448 719.608 97.456 719.744 97.472C719.88 97.48 720.004 97.496 720.116 97.52L719.984 98.492C719.88 98.468 719.764 98.448 719.636 98.432C719.508 98.416 719.392 98.408 719.288 98.408C718.96 98.408 718.652 98.5 718.364 98.684C718.076 98.86 717.844 99.112 717.668 99.44C717.5 99.76 717.416 100.136 717.416 100.568V104H716.36V97.568H717.224L717.344 98.744H717.392C717.592 98.392 717.856 98.088 718.184 97.832C718.52 97.576 718.912 97.448 719.36 97.448ZM721.857 95.156C722.017 95.156 722.157 95.212 722.277 95.324C722.405 95.428 722.469 95.596 722.469 95.828C722.469 96.06 722.405 96.232 722.277 96.344C722.157 96.448 722.017 96.5 721.857 96.5C721.681 96.5 721.533 96.448 721.413 96.344C721.293 96.232 721.233 96.06 721.233 95.828C721.233 95.596 721.293 95.428 721.413 95.324C721.533 95.212 721.681 95.156 721.857 95.156ZM722.373 97.568V104H721.317V97.568H722.373ZM726.691 97.448C727.115 97.448 727.495 97.528 727.831 97.688C728.175 97.848 728.467 98.092 728.707 98.42H728.767L728.911 97.568H729.751V104.108C729.751 105.028 729.515 105.72 729.043 106.184C728.579 106.648 727.855 106.88 726.871 106.88C725.927 106.88 725.155 106.744 724.555 106.472V105.5C725.187 105.836 725.979 106.004 726.931 106.004C727.483 106.004 727.915 105.84 728.227 105.512C728.547 105.192 728.707 104.752 728.707 104.192V103.94C728.707 103.844 728.711 103.708 728.719 103.532C728.727 103.348 728.735 103.22 728.743 103.148H728.695C728.263 103.796 727.599 104.12 726.703 104.12C725.871 104.12 725.219 103.828 724.747 103.244C724.283 102.66 724.051 101.844 724.051 100.796C724.051 99.772 724.283 98.96 724.747 98.36C725.219 97.752 725.867 97.448 726.691 97.448ZM726.835 98.336C726.299 98.336 725.883 98.552 725.587 98.984C725.291 99.408 725.143 100.016 725.143 100.808C725.143 101.6 725.287 102.208 725.575 102.632C725.863 103.048 726.291 103.256 726.859 103.256C727.507 103.256 727.979 103.084 728.275 102.74C728.571 102.388 728.719 101.824 728.719 101.048V100.796C728.719 99.924 728.567 99.296 728.263 98.912C727.959 98.528 727.483 98.336 726.835 98.336ZM732.849 94.88V97.556C732.849 97.876 732.829 98.176 732.789 98.456H732.861C733.069 98.128 733.349 97.88 733.701 97.712C734.061 97.544 734.449 97.46 734.865 97.46C735.641 97.46 736.225 97.648 736.617 98.024C737.017 98.392 737.217 98.988 737.217 99.812V104H736.173V99.884C736.173 98.852 735.693 98.336 734.733 98.336C734.013 98.336 733.517 98.54 733.245 98.948C732.981 99.348 732.849 99.924 732.849 100.676V104H731.793V94.88H732.849ZM741.359 103.256C741.519 103.256 741.683 103.244 741.851 103.22C742.019 103.196 742.155 103.164 742.259 103.124V103.928C742.147 103.984 741.987 104.028 741.779 104.06C741.571 104.1 741.371 104.12 741.179 104.12C740.843 104.12 740.531 104.064 740.243 103.952C739.963 103.832 739.735 103.628 739.559 103.34C739.383 103.052 739.295 102.648 739.295 102.128V98.384H738.383V97.88L739.307 97.46L739.727 96.092H740.351V97.568H742.211V98.384H740.351V102.104C740.351 102.496 740.443 102.788 740.627 102.98C740.819 103.164 741.063 103.256 741.359 103.256ZM752.257 100.772C752.257 101.836 751.985 102.66 751.441 103.244C750.905 103.828 750.177 104.12 749.257 104.12C748.689 104.12 748.181 103.992 747.733 103.736C747.293 103.472 746.945 103.092 746.689 102.596C746.433 102.092 746.305 101.484 746.305 100.772C746.305 99.708 746.569 98.888 747.097 98.312C747.633 97.736 748.365 97.448 749.293 97.448C749.869 97.448 750.381 97.58 750.829 97.844C751.277 98.1 751.625 98.476 751.873 98.972C752.129 99.46 752.257 100.06 752.257 100.772ZM747.397 100.772C747.397 101.532 747.545 102.136 747.841 102.584C748.145 103.024 748.625 103.244 749.281 103.244C749.929 103.244 750.405 103.024 750.709 102.584C751.013 102.136 751.165 101.532 751.165 100.772C751.165 100.012 751.013 99.416 750.709 98.984C750.405 98.552 749.925 98.336 749.269 98.336C748.613 98.336 748.137 98.552 747.841 98.984C747.545 99.416 747.397 100.012 747.397 100.772ZM756.894 98.384H755.274V104H754.218V98.384H753.09V97.892L754.218 97.532V97.16C754.218 96.328 754.398 95.732 754.758 95.372C755.126 95.004 755.642 94.82 756.306 94.82C756.554 94.82 756.786 94.844 757.002 94.892C757.218 94.932 757.402 94.98 757.554 95.036L757.278 95.864C757.15 95.824 757.002 95.784 756.834 95.744C756.666 95.704 756.494 95.684 756.318 95.684C755.966 95.684 755.702 95.804 755.526 96.044C755.358 96.276 755.274 96.644 755.274 97.148V97.568H756.894V98.384ZM761.019 98.384H759.399V104H758.343V98.384H757.215V97.892L758.343 97.532V97.16C758.343 96.328 758.523 95.732 758.883 95.372C759.251 95.004 759.767 94.82 760.431 94.82C760.679 94.82 760.911 94.844 761.127 94.892C761.343 94.932 761.527 94.98 761.679 95.036L761.403 95.864C761.275 95.824 761.127 95.784 760.959 95.744C760.791 95.704 760.619 95.684 760.443 95.684C760.091 95.684 759.827 95.804 759.651 96.044C759.483 96.276 759.399 96.644 759.399 97.148V97.568H761.019V98.384ZM766.368 102.224C766.368 102.848 766.136 103.32 765.672 103.64C765.208 103.96 764.584 104.12 763.8 104.12C763.352 104.12 762.964 104.084 762.636 104.012C762.316 103.94 762.032 103.84 761.784 103.712V102.752C762.04 102.88 762.348 103 762.708 103.112C763.076 103.216 763.448 103.268 763.824 103.268C764.36 103.268 764.748 103.184 764.988 103.016C765.228 102.84 765.348 102.608 765.348 102.32C765.348 102.16 765.304 102.016 765.216 101.888C765.128 101.76 764.968 101.632 764.736 101.504C764.512 101.376 764.188 101.232 763.764 101.072C763.348 100.912 762.992 100.752 762.696 100.592C762.4 100.432 762.172 100.24 762.012 100.016C761.852 99.792 761.772 99.504 761.772 99.152C761.772 98.608 761.992 98.188 762.432 97.892C762.88 97.596 763.464 97.448 764.184 97.448C764.576 97.448 764.94 97.488 765.276 97.568C765.62 97.648 765.94 97.752 766.236 97.88L765.876 98.72C765.604 98.608 765.32 98.512 765.024 98.432C764.728 98.352 764.424 98.312 764.112 98.312C763.68 98.312 763.348 98.384 763.116 98.528C762.892 98.664 762.78 98.852 762.78 99.092C762.78 99.276 762.832 99.428 762.936 99.548C763.04 99.668 763.212 99.788 763.452 99.908C763.7 100.028 764.028 100.164 764.436 100.316C764.844 100.468 765.192 100.624 765.48 100.784C765.768 100.944 765.988 101.14 766.14 101.372C766.292 101.596 766.368 101.88 766.368 102.224ZM770.406 97.448C770.95 97.448 771.422 97.568 771.822 97.808C772.222 98.048 772.526 98.388 772.734 98.828C772.95 99.26 773.058 99.768 773.058 100.352V100.988H768.654C768.67 101.716 768.854 102.272 769.206 102.656C769.566 103.032 770.066 103.22 770.706 103.22C771.114 103.22 771.474 103.184 771.786 103.112C772.106 103.032 772.434 102.92 772.77 102.776V103.7C772.442 103.844 772.118 103.948 771.798 104.012C771.478 104.084 771.098 104.12 770.658 104.12C770.042 104.12 769.502 103.996 769.038 103.748C768.574 103.5 768.21 103.132 767.946 102.644C767.69 102.156 767.562 101.552 767.562 100.832C767.562 100.128 767.678 99.524 767.91 99.02C768.15 98.516 768.482 98.128 768.906 97.856C769.338 97.584 769.838 97.448 770.406 97.448ZM770.394 98.312C769.89 98.312 769.49 98.476 769.194 98.804C768.906 99.124 768.734 99.572 768.678 100.148H771.954C771.946 99.604 771.818 99.164 771.57 98.828C771.322 98.484 770.93 98.312 770.394 98.312ZM776.844 103.256C777.004 103.256 777.168 103.244 777.336 103.22C777.504 103.196 777.64 103.164 777.744 103.124V103.928C777.632 103.984 777.472 104.028 777.264 104.06C777.056 104.1 776.856 104.12 776.664 104.12C776.328 104.12 776.016 104.064 775.728 103.952C775.448 103.832 775.22 103.628 775.044 103.34C774.868 103.052 774.78 102.648 774.78 102.128V98.384H773.868V97.88L774.792 97.46L775.212 96.092H775.836V97.568H777.696V98.384H775.836V102.104C775.836 102.496 775.928 102.788 776.112 102.98C776.304 103.164 776.548 103.256 776.844 103.256Z" fill="white"/>
<path d="M782 83L768 83L775 76L782 83Z" fill="#323232"/>
<path d="M269 44C266.231 44 263.524 44.8211 261.222 46.3594C258.92 47.8978 257.125 50.0843 256.066 52.6424C255.006 55.2006 254.729 58.0155 255.269 60.7313C255.809 63.447 257.143 65.9416 259.101 67.8995C261.058 69.8574 263.553 71.1908 266.269 71.731C268.984 72.2712 271.799 71.9939 274.358 70.9343C276.916 69.8747 279.102 68.0803 280.641 65.778C282.179 63.4757 283 60.7689 283 58C283 54.287 281.525 50.726 278.899 48.1005C276.274 45.475 272.713 44 269 44ZM269 70.5C266.528 70.5 264.111 69.7669 262.055 68.3934C260 67.0199 258.398 65.0676 257.452 62.7835C256.505 60.4995 256.258 57.9861 256.74 55.5614C257.223 53.1366 258.413 50.9093 260.161 49.1612C261.909 47.413 264.137 46.2225 266.561 45.7402C268.986 45.2579 271.499 45.5054 273.784 46.4515C276.068 47.3976 278.02 48.9998 279.393 51.0554C280.767 53.111 281.5 55.5277 281.5 58C281.495 61.3136 280.176 64.4899 277.833 66.833C275.49 69.1761 272.314 70.4947 269 70.5Z" fill="black"/>
<path d="M271.5 64H269.75V56C269.75 55.8011 269.671 55.6103 269.53 55.4697C269.39 55.329 269.199 55.25 269 55.25H267.69C267.491 55.25 267.3 55.329 267.16 55.4697C267.019 55.6103 266.94 55.8011 266.94 56C266.94 56.1989 267.019 56.3897 267.16 56.5303C267.3 56.671 267.491 56.75 267.69 56.75H268.25V64H266.5C266.301 64 266.11 64.079 265.97 64.2197C265.829 64.3603 265.75 64.5511 265.75 64.75C265.75 64.9489 265.829 65.1397 265.97 65.2803C266.11 65.421 266.301 65.5 266.5 65.5H271.5C271.699 65.5 271.89 65.421 272.03 65.2803C272.171 65.1397 272.25 64.9489 272.25 64.75C272.25 64.5511 272.171 64.3603 272.03 64.2197C271.89 64.079 271.699 64 271.5 64Z" fill="black"/>
<path d="M269 52.92C269.259 52.92 269.512 52.8432 269.728 52.6992C269.943 52.5553 270.111 52.3507 270.21 52.1113C270.309 51.8719 270.335 51.6085 270.285 51.3544C270.234 51.1003 270.11 50.8669 269.926 50.6837C269.743 50.5005 269.51 50.3757 269.256 50.3252C269.001 50.2746 268.738 50.3006 268.499 50.3997C268.259 50.4989 268.055 50.6668 267.911 50.8822C267.767 51.0976 267.69 51.3509 267.69 51.61C267.69 51.9574 267.828 52.2906 268.074 52.5363C268.319 52.782 268.653 52.92 269 52.92Z" fill="black"/>
<rect x="427" width="111" height="32" rx="4" fill="#323232"/>
<path d="M442.876 21H441.796V13.38H439.12V12.432H445.54V13.38H442.876V21ZM451.436 17.772C451.436 18.836 451.164 19.66 450.62 20.244C450.084 20.828 449.356 21.12 448.436 21.12C447.868 21.12 447.36 20.992 446.912 20.736C446.472 20.472 446.124 20.092 445.868 19.596C445.612 19.092 445.484 18.484 445.484 17.772C445.484 16.708 445.748 15.888 446.276 15.312C446.812 14.736 447.544 14.448 448.472 14.448C449.048 14.448 449.56 14.58 450.008 14.844C450.456 15.1 450.804 15.476 451.052 15.972C451.308 16.46 451.436 17.06 451.436 17.772ZM446.576 17.772C446.576 18.532 446.724 19.136 447.02 19.584C447.324 20.024 447.804 20.244 448.46 20.244C449.108 20.244 449.584 20.024 449.888 19.584C450.192 19.136 450.344 18.532 450.344 17.772C450.344 17.012 450.192 16.416 449.888 15.984C449.584 15.552 449.104 15.336 448.448 15.336C447.792 15.336 447.316 15.552 447.02 15.984C446.724 16.416 446.576 17.012 446.576 17.772ZM456.17 14.448C456.962 14.448 457.598 14.724 458.078 15.276C458.566 15.828 458.81 16.66 458.81 17.772C458.81 18.868 458.566 19.7 458.078 20.268C457.598 20.836 456.958 21.12 456.158 21.12C455.662 21.12 455.25 21.028 454.922 20.844C454.602 20.66 454.35 20.44 454.166 20.184H454.094C454.102 20.32 454.114 20.492 454.13 20.7C454.154 20.908 454.166 21.088 454.166 21.24V23.88H453.11V14.568H453.974L454.118 15.444H454.166C454.358 15.164 454.61 14.928 454.922 14.736C455.234 14.544 455.65 14.448 456.17 14.448ZM455.978 15.336C455.322 15.336 454.858 15.52 454.586 15.888C454.314 16.256 454.174 16.816 454.166 17.568V17.772C454.166 18.564 454.294 19.176 454.55 19.608C454.814 20.032 455.298 20.244 456.002 20.244C456.386 20.244 456.706 20.14 456.962 19.932C457.218 19.716 457.406 19.42 457.526 19.044C457.654 18.668 457.718 18.24 457.718 17.76C457.718 17.024 457.574 16.436 457.286 15.996C457.006 15.556 456.57 15.336 455.978 15.336ZM466.61 14.448C466.73 14.448 466.858 14.456 466.994 14.472C467.13 14.48 467.254 14.496 467.366 14.52L467.234 15.492C467.13 15.468 467.014 15.448 466.886 15.432C466.758 15.416 466.642 15.408 466.538 15.408C466.21 15.408 465.902 15.5 465.614 15.684C465.326 15.86 465.094 16.112 464.918 16.44C464.75 16.76 464.666 17.136 464.666 17.568V21H463.61V14.568H464.474L464.594 15.744H464.642C464.842 15.392 465.106 15.088 465.434 14.832C465.77 14.576 466.162 14.448 466.61 14.448ZM469.107 12.156C469.267 12.156 469.407 12.212 469.527 12.324C469.655 12.428 469.719 12.596 469.719 12.828C469.719 13.06 469.655 13.232 469.527 13.344C469.407 13.448 469.267 13.5 469.107 13.5C468.931 13.5 468.783 13.448 468.663 13.344C468.543 13.232 468.483 13.06 468.483 12.828C468.483 12.596 468.543 12.428 468.663 12.324C468.783 12.212 468.931 12.156 469.107 12.156ZM469.623 14.568V21H468.567V14.568H469.623ZM473.941 14.448C474.365 14.448 474.745 14.528 475.081 14.688C475.425 14.848 475.717 15.092 475.957 15.42H476.017L476.161 14.568H477.001V21.108C477.001 22.028 476.765 22.72 476.293 23.184C475.829 23.648 475.105 23.88 474.121 23.88C473.177 23.88 472.405 23.744 471.805 23.472V22.5C472.437 22.836 473.229 23.004 474.181 23.004C474.733 23.004 475.165 22.84 475.477 22.512C475.797 22.192 475.957 21.752 475.957 21.192V20.94C475.957 20.844 475.961 20.708 475.969 20.532C475.977 20.348 475.985 20.22 475.993 20.148H475.945C475.513 20.796 474.849 21.12 473.953 21.12C473.121 21.12 472.469 20.828 471.997 20.244C471.533 19.66 471.301 18.844 471.301 17.796C471.301 16.772 471.533 15.96 471.997 15.36C472.469 14.752 473.117 14.448 473.941 14.448ZM474.085 15.336C473.549 15.336 473.133 15.552 472.837 15.984C472.541 16.408 472.393 17.016 472.393 17.808C472.393 18.6 472.537 19.208 472.825 19.632C473.113 20.048 473.541 20.256 474.109 20.256C474.757 20.256 475.229 20.084 475.525 19.74C475.821 19.388 475.969 18.824 475.969 18.048V17.796C475.969 16.924 475.817 16.296 475.513 15.912C475.209 15.528 474.733 15.336 474.085 15.336ZM480.099 11.88V14.556C480.099 14.876 480.079 15.176 480.039 15.456H480.111C480.319 15.128 480.599 14.88 480.951 14.712C481.311 14.544 481.699 14.46 482.115 14.46C482.891 14.46 483.475 14.648 483.867 15.024C484.267 15.392 484.467 15.988 484.467 16.812V21H483.423V16.884C483.423 15.852 482.943 15.336 481.983 15.336C481.263 15.336 480.767 15.54 480.495 15.948C480.231 16.348 480.099 16.924 480.099 17.676V21H479.043V11.88H480.099ZM488.609 20.256C488.769 20.256 488.933 20.244 489.101 20.22C489.269 20.196 489.405 20.164 489.509 20.124V20.928C489.397 20.984 489.237 21.028 489.029 21.06C488.821 21.1 488.621 21.12 488.429 21.12C488.093 21.12 487.781 21.064 487.493 20.952C487.213 20.832 486.985 20.628 486.809 20.34C486.633 20.052 486.545 19.648 486.545 19.128V15.384H485.633V14.88L486.557 14.46L486.977 13.092H487.601V14.568H489.461V15.384H487.601V19.104C487.601 19.496 487.693 19.788 487.877 19.98C488.069 20.164 488.313 20.256 488.609 20.256ZM499.507 17.772C499.507 18.836 499.235 19.66 498.691 20.244C498.155 20.828 497.427 21.12 496.507 21.12C495.939 21.12 495.431 20.992 494.983 20.736C494.543 20.472 494.195 20.092 493.939 19.596C493.683 19.092 493.555 18.484 493.555 17.772C493.555 16.708 493.819 15.888 494.347 15.312C494.883 14.736 495.615 14.448 496.543 14.448C497.119 14.448 497.631 14.58 498.079 14.844C498.527 15.1 498.875 15.476 499.123 15.972C499.379 16.46 499.507 17.06 499.507 17.772ZM494.647 17.772C494.647 18.532 494.795 19.136 495.091 19.584C495.395 20.024 495.875 20.244 496.531 20.244C497.179 20.244 497.655 20.024 497.959 19.584C498.263 19.136 498.415 18.532 498.415 17.772C498.415 17.012 498.263 16.416 497.959 15.984C497.655 15.552 497.175 15.336 496.519 15.336C495.863 15.336 495.387 15.552 495.091 15.984C494.795 16.416 494.647 17.012 494.647 17.772ZM504.144 15.384H502.524V21H501.468V15.384H500.34V14.892L501.468 14.532V14.16C501.468 13.328 501.648 12.732 502.008 12.372C502.376 12.004 502.892 11.82 503.556 11.82C503.804 11.82 504.036 11.844 504.252 11.892C504.468 11.932 504.652 11.98 504.804 12.036L504.528 12.864C504.4 12.824 504.252 12.784 504.084 12.744C503.916 12.704 503.744 12.684 503.568 12.684C503.216 12.684 502.952 12.804 502.776 13.044C502.608 13.276 502.524 13.644 502.524 14.148V14.568H504.144V15.384ZM508.269 15.384H506.649V21H505.593V15.384H504.465V14.892L505.593 14.532V14.16C505.593 13.328 505.773 12.732 506.133 12.372C506.501 12.004 507.017 11.82 507.681 11.82C507.929 11.82 508.161 11.844 508.377 11.892C508.593 11.932 508.777 11.98 508.929 12.036L508.653 12.864C508.525 12.824 508.377 12.784 508.209 12.744C508.041 12.704 507.869 12.684 507.693 12.684C507.341 12.684 507.077 12.804 506.901 13.044C506.733 13.276 506.649 13.644 506.649 14.148V14.568H508.269V15.384ZM513.618 19.224C513.618 19.848 513.386 20.32 512.922 20.64C512.458 20.96 511.834 21.12 511.05 21.12C510.602 21.12 510.214 21.084 509.886 21.012C509.566 20.94 509.282 20.84 509.034 20.712V19.752C509.29 19.88 509.598 20 509.958 20.112C510.326 20.216 510.698 20.268 511.074 20.268C511.61 20.268 511.998 20.184 512.238 20.016C512.478 19.84 512.598 19.608 512.598 19.32C512.598 19.16 512.554 19.016 512.466 18.888C512.378 18.76 512.218 18.632 511.986 18.504C511.762 18.376 511.438 18.232 511.014 18.072C510.598 17.912 510.242 17.752 509.946 17.592C509.65 17.432 509.422 17.24 509.262 17.016C509.102 16.792 509.022 16.504 509.022 16.152C509.022 15.608 509.242 15.188 509.682 14.892C510.13 14.596 510.714 14.448 511.434 14.448C511.826 14.448 512.19 14.488 512.526 14.568C512.87 14.648 513.19 14.752 513.486 14.88L513.126 15.72C512.854 15.608 512.57 15.512 512.274 15.432C511.978 15.352 511.674 15.312 511.362 15.312C510.93 15.312 510.598 15.384 510.366 15.528C510.142 15.664 510.03 15.852 510.03 16.092C510.03 16.276 510.082 16.428 510.186 16.548C510.29 16.668 510.462 16.788 510.702 16.908C510.95 17.028 511.278 17.164 511.686 17.316C512.094 17.468 512.442 17.624 512.73 17.784C513.018 17.944 513.238 18.14 513.39 18.372C513.542 18.596 513.618 18.88 513.618 19.224ZM517.656 14.448C518.2 14.448 518.672 14.568 519.072 14.808C519.472 15.048 519.776 15.388 519.984 15.828C520.2 16.26 520.308 16.768 520.308 17.352V17.988H515.904C515.92 18.716 516.104 19.272 516.456 19.656C516.816 20.032 517.316 20.22 517.956 20.22C518.364 20.22 518.724 20.184 519.036 20.112C519.356 20.032 519.684 19.92 520.02 19.776V20.7C519.692 20.844 519.368 20.948 519.048 21.012C518.728 21.084 518.348 21.12 517.908 21.12C517.292 21.12 516.752 20.996 516.288 20.748C515.824 20.5 515.46 20.132 515.196 19.644C514.94 19.156 514.812 18.552 514.812 17.832C514.812 17.128 514.928 16.524 515.16 16.02C515.4 15.516 515.732 15.128 516.156 14.856C516.588 14.584 517.088 14.448 517.656 14.448ZM517.644 15.312C517.14 15.312 516.74 15.476 516.444 15.804C516.156 16.124 515.984 16.572 515.928 17.148H519.204C519.196 16.604 519.068 16.164 518.82 15.828C518.572 15.484 518.18 15.312 517.644 15.312ZM524.094 20.256C524.254 20.256 524.418 20.244 524.586 20.22C524.754 20.196 524.89 20.164 524.994 20.124V20.928C524.882 20.984 524.722 21.028 524.514 21.06C524.306 21.1 524.106 21.12 523.914 21.12C523.578 21.12 523.266 21.064 522.978 20.952C522.698 20.832 522.47 20.628 522.294 20.34C522.118 20.052 522.03 19.648 522.03 19.128V15.384H521.118V14.88L522.042 14.46L522.462 13.092H523.086V14.568H524.946V15.384H523.086V19.104C523.086 19.496 523.178 19.788 523.362 19.98C523.554 20.164 523.798 20.256 524.094 20.256Z" fill="white"/>
<path d="M514.5 32H528.5L521.5 39L514.5 32Z" fill="#323232"/>
</svg>
