<svg width="136" height="40" viewBox="0 0 136 40" fill="none" xmlns="http://www.w3.org/2000/svg">
<path d="M7.07163 14.286C7.07163 14.9673 6.87096 15.5133 6.46963 15.924C6.07763 16.3253 5.56896 16.596 4.94363 16.736V16.778C5.74629 16.8807 6.35296 17.1327 6.76363 17.534C7.17429 17.9353 7.37963 18.4627 7.37963 19.116C7.37963 19.6947 7.23963 20.2127 6.95963 20.67C6.67963 21.1273 6.24563 21.4867 5.65763 21.748C5.07896 22.0093 4.33229 22.14 3.41763 22.14C2.86696 22.14 2.35829 22.0933 1.89163 22C1.43429 21.916 1.00029 21.7807 0.589625 21.594V20.04C1.00963 20.2547 1.45763 20.418 1.93363 20.53C2.40963 20.642 2.85763 20.698 3.27763 20.698C4.08963 20.698 4.66363 20.5533 4.99963 20.264C5.33563 19.9653 5.50363 19.5547 5.50363 19.032C5.50363 18.5373 5.30763 18.1687 4.91563 17.926C4.52363 17.6833 3.87029 17.562 2.95563 17.562H2.11563V16.148H2.96963C3.85629 16.148 4.46763 16.0033 4.80363 15.714C5.13963 15.4247 5.30763 15.0513 5.30763 14.594C5.30763 14.1927 5.17696 13.88 4.91563 13.656C4.65429 13.432 4.26229 13.32 3.73963 13.32C3.23563 13.32 2.80163 13.404 2.43763 13.572C2.07363 13.7307 1.74696 13.9033 1.45763 14.09L0.617625 12.872C1.00029 12.592 1.45296 12.354 1.97563 12.158C2.49829 11.962 3.11429 11.864 3.82363 11.864C4.85963 11.864 5.65763 12.0833 6.21763 12.522C6.78696 12.9607 7.07163 13.5487 7.07163 14.286ZM15.4753 22H8.62934V20.698L11.1773 18.122C11.6813 17.6087 12.092 17.17 12.4093 16.806C12.736 16.442 12.974 16.1013 13.1233 15.784C13.282 15.4573 13.3613 15.1073 13.3613 14.734C13.3613 14.2767 13.2307 13.936 12.9693 13.712C12.7173 13.4787 12.372 13.362 11.9333 13.362C11.5133 13.362 11.1213 13.4507 10.7573 13.628C10.3933 13.796 10.0153 14.0387 9.62334 14.356L8.65734 13.194C9.06801 12.8393 9.53001 12.5313 10.0433 12.27C10.566 11.9993 11.2287 11.864 12.0313 11.864C12.6753 11.864 13.226 11.9807 13.6833 12.214C14.15 12.438 14.5093 12.7553 14.7613 13.166C15.0133 13.5673 15.1393 14.0293 15.1393 14.552C15.1393 15.0933 15.032 15.5927 14.8173 16.05C14.6027 16.498 14.29 16.9507 13.8793 17.408C13.478 17.856 12.9973 18.3413 12.4373 18.864L10.8553 20.39V20.474H15.4753V22ZM24.7998 14.272C25.6864 14.272 26.4004 14.6033 26.9418 15.266C27.4831 15.9193 27.7538 16.8947 27.7538 18.192C27.7538 19.4893 27.4738 20.474 26.9138 21.146C26.3631 21.8087 25.6444 22.14 24.7578 22.14C24.1978 22.14 23.7451 22.0373 23.3998 21.832C23.0544 21.6267 22.7791 21.3887 22.5738 21.118H22.4618C22.4898 21.2953 22.5131 21.4867 22.5318 21.692C22.5598 21.8973 22.5738 22.0933 22.5738 22.28V25.36H20.8098V14.412H22.2378L22.4898 15.42H22.5738C22.7884 15.1027 23.0684 14.832 23.4138 14.608C23.7591 14.384 24.2211 14.272 24.7998 14.272ZM24.2958 15.7C23.6704 15.7 23.2271 15.8867 22.9658 16.26C22.7138 16.6333 22.5831 17.198 22.5738 17.954V18.178C22.5738 18.99 22.6951 19.6153 22.9378 20.054C23.1898 20.4833 23.6518 20.698 24.3238 20.698C24.8744 20.698 25.2804 20.474 25.5418 20.026C25.8124 19.5687 25.9478 18.948 25.9478 18.164C25.9478 17.38 25.8124 16.7733 25.5418 16.344C25.2804 15.9147 24.8651 15.7 24.2958 15.7ZM30.938 18.122L28.432 14.412H30.434L32.086 16.988L33.738 14.412H35.74L33.206 18.122L35.866 22H33.864L32.086 19.242L30.308 22H28.306L30.938 18.122Z" fill="#E60074"/>
<path d="M48 1H40" stroke="#E60074"/>
<path d="M44 0.999999L44 33" stroke="#E60074"/>
<path d="M48 33H40" stroke="#E60074"/>
<rect x="49" y="1" width="87" height="32" rx="4" fill="#323232"/>
<path d="M64.876 22H63.796V14.38H61.12V13.432H67.54V14.38H64.876V22ZM73.4362 18.772C73.4362 19.836 73.1642 20.66 72.6202 21.244C72.0842 21.828 71.3562 22.12 70.4362 22.12C69.8682 22.12 69.3602 21.992 68.9122 21.736C68.4722 21.472 68.1242 21.092 67.8682 20.596C67.6122 20.092 67.4842 19.484 67.4842 18.772C67.4842 17.708 67.7482 16.888 68.2762 16.312C68.8122 15.736 69.5442 15.448 70.4722 15.448C71.0482 15.448 71.5602 15.58 72.0082 15.844C72.4562 16.1 72.8042 16.476 73.0522 16.972C73.3082 17.46 73.4362 18.06 73.4362 18.772ZM68.5762 18.772C68.5762 19.532 68.7242 20.136 69.0202 20.584C69.3242 21.024 69.8042 21.244 70.4602 21.244C71.1082 21.244 71.5842 21.024 71.8882 20.584C72.1922 20.136 72.3442 19.532 72.3442 18.772C72.3442 18.012 72.1922 17.416 71.8882 16.984C71.5842 16.552 71.1042 16.336 70.4482 16.336C69.7922 16.336 69.3162 16.552 69.0202 16.984C68.7242 17.416 68.5762 18.012 68.5762 18.772ZM80.7018 18.772C80.7018 19.836 80.4298 20.66 79.8858 21.244C79.3498 21.828 78.6218 22.12 77.7018 22.12C77.1338 22.12 76.6258 21.992 76.1778 21.736C75.7378 21.472 75.3898 21.092 75.1338 20.596C74.8778 20.092 74.7498 19.484 74.7498 18.772C74.7498 17.708 75.0138 16.888 75.5418 16.312C76.0778 15.736 76.8098 15.448 77.7378 15.448C78.3138 15.448 78.8258 15.58 79.2738 15.844C79.7218 16.1 80.0698 16.476 80.3178 16.972C80.5738 17.46 80.7018 18.06 80.7018 18.772ZM75.8418 18.772C75.8418 19.532 75.9898 20.136 76.2858 20.584C76.5898 21.024 77.0698 21.244 77.7258 21.244C78.3738 21.244 78.8498 21.024 79.1538 20.584C79.4578 20.136 79.6098 19.532 79.6098 18.772C79.6098 18.012 79.4578 17.416 79.1538 16.984C78.8498 16.552 78.3698 16.336 77.7138 16.336C77.0578 16.336 76.5818 16.552 76.2858 16.984C75.9898 17.416 75.8418 18.012 75.8418 18.772ZM83.4315 22H82.3755V12.88H83.4315V22ZM87.6172 21.256C87.7772 21.256 87.9412 21.244 88.1092 21.22C88.2772 21.196 88.4132 21.164 88.5172 21.124V21.928C88.4052 21.984 88.2452 22.028 88.0372 22.06C87.8292 22.1 87.6292 22.12 87.4372 22.12C87.1012 22.12 86.7892 22.064 86.5012 21.952C86.2212 21.832 85.9932 21.628 85.8172 21.34C85.6412 21.052 85.5532 20.648 85.5532 20.128V16.384H84.6412V15.88L85.5652 15.46L85.9852 14.092H86.6092V15.568H88.4692V16.384H86.6092V20.104C86.6092 20.496 86.7012 20.788 86.8852 20.98C87.0772 21.164 87.3212 21.256 87.6172 21.256ZM90.3452 13.156C90.5052 13.156 90.6452 13.212 90.7652 13.324C90.8932 13.428 90.9572 13.596 90.9572 13.828C90.9572 14.06 90.8932 14.232 90.7652 14.344C90.6452 14.448 90.5052 14.5 90.3452 14.5C90.1692 14.5 90.0212 14.448 89.9012 14.344C89.7812 14.232 89.7212 14.06 89.7212 13.828C89.7212 13.596 89.7812 13.428 89.9012 13.324C90.0212 13.212 90.1692 13.156 90.3452 13.156ZM90.8612 15.568V22H89.8052V15.568H90.8612ZM95.9589 15.448C96.7509 15.448 97.3869 15.724 97.8669 16.276C98.3549 16.828 98.5989 17.66 98.5989 18.772C98.5989 19.868 98.3549 20.7 97.8669 21.268C97.3869 21.836 96.7469 22.12 95.9469 22.12C95.4509 22.12 95.0389 22.028 94.7109 21.844C94.3909 21.66 94.1389 21.44 93.9549 21.184H93.8829C93.8909 21.32 93.9029 21.492 93.9189 21.7C93.9429 21.908 93.9549 22.088 93.9549 22.24V24.88H92.8989V15.568H93.7629L93.9069 16.444H93.9549C94.1469 16.164 94.3989 15.928 94.7109 15.736C95.0229 15.544 95.4389 15.448 95.9589 15.448ZM95.7669 16.336C95.1109 16.336 94.6469 16.52 94.3749 16.888C94.1029 17.256 93.9629 17.816 93.9549 18.568V18.772C93.9549 19.564 94.0829 20.176 94.3389 20.608C94.6029 21.032 95.0869 21.244 95.7909 21.244C96.1749 21.244 96.4949 21.14 96.7509 20.932C97.0069 20.716 97.1949 20.42 97.3149 20.044C97.4429 19.668 97.5069 19.24 97.5069 18.76C97.5069 18.024 97.3629 17.436 97.0749 16.996C96.7949 16.556 96.3589 16.336 95.7669 16.336ZM105.547 21.256C105.707 21.256 105.871 21.244 106.039 21.22C106.207 21.196 106.343 21.164 106.447 21.124V21.928C106.335 21.984 106.175 22.028 105.967 22.06C105.759 22.1 105.559 22.12 105.367 22.12C105.031 22.12 104.719 22.064 104.431 21.952C104.151 21.832 103.923 21.628 103.747 21.34C103.571 21.052 103.483 20.648 103.483 20.128V16.384H102.571V15.88L103.495 15.46L103.915 14.092H104.539V15.568H106.399V16.384H104.539V20.104C104.539 20.496 104.631 20.788 104.815 20.98C105.007 21.164 105.251 21.256 105.547 21.256ZM110.219 15.448C110.763 15.448 111.235 15.568 111.635 15.808C112.035 16.048 112.339 16.388 112.547 16.828C112.763 17.26 112.871 17.768 112.871 18.352V18.988H108.467C108.483 19.716 108.667 20.272 109.019 20.656C109.379 21.032 109.879 21.22 110.519 21.22C110.927 21.22 111.287 21.184 111.599 21.112C111.919 21.032 112.247 20.92 112.583 20.776V21.7C112.255 21.844 111.931 21.948 111.611 22.012C111.291 22.084 110.911 22.12 110.471 22.12C109.855 22.12 109.315 21.996 108.851 21.748C108.387 21.5 108.023 21.132 107.759 20.644C107.503 20.156 107.375 19.552 107.375 18.832C107.375 18.128 107.491 17.524 107.723 17.02C107.963 16.516 108.295 16.128 108.719 15.856C109.151 15.584 109.651 15.448 110.219 15.448ZM110.207 16.312C109.703 16.312 109.303 16.476 109.007 16.804C108.719 17.124 108.547 17.572 108.491 18.148H111.767C111.759 17.604 111.631 17.164 111.383 16.828C111.135 16.484 110.743 16.312 110.207 16.312ZM115.798 18.712L113.578 15.568H114.778L116.434 17.992L118.078 15.568H119.266L117.046 18.712L119.386 22H118.186L116.434 19.432L114.658 22H113.47L115.798 18.712ZM122.773 21.256C122.933 21.256 123.097 21.244 123.265 21.22C123.433 21.196 123.569 21.164 123.673 21.124V21.928C123.561 21.984 123.401 22.028 123.193 22.06C122.985 22.1 122.785 22.12 122.593 22.12C122.257 22.12 121.945 22.064 121.657 21.952C121.377 21.832 121.149 21.628 120.973 21.34C120.797 21.052 120.709 20.648 120.709 20.128V16.384H119.797V15.88L120.721 15.46L121.141 14.092H121.765V15.568H123.625V16.384H121.765V20.104C121.765 20.496 121.857 20.788 122.041 20.98C122.233 21.164 122.477 21.256 122.773 21.256Z" fill="white"/>
<path d="M85.5 33H99.5L92.5 40L85.5 33Z" fill="#323232"/>
</svg>
