<svg width="428" height="96" viewBox="0 0 428 96" fill="none" xmlns="http://www.w3.org/2000/svg">
<g clip-path="url(#clip0_8319_506151)">
<rect width="428" height="96" fill="white"/>
<path d="M248.5 8.5H234.5L241.5 1.5L248.5 8.5Z" fill="#323232"/>
<rect x="198" y="8.5" width="87" height="32" rx="4" fill="#323232"/>
<path d="M213.876 29.5H212.796V21.88H210.12V20.932H216.54V21.88H213.876V29.5ZM222.436 26.272C222.436 27.336 222.164 28.16 221.62 28.744C221.084 29.328 220.356 29.62 219.436 29.62C218.868 29.62 218.36 29.492 217.912 29.236C217.472 28.972 217.124 28.592 216.868 28.096C216.612 27.592 216.484 26.984 216.484 26.272C216.484 25.208 216.748 24.388 217.276 23.812C217.812 23.236 218.544 22.948 219.472 22.948C220.048 22.948 220.56 23.08 221.008 23.344C221.456 23.6 221.804 23.976 222.052 24.472C222.308 24.96 222.436 25.56 222.436 26.272ZM217.576 26.272C217.576 27.032 217.724 27.636 218.02 28.084C218.324 28.524 218.804 28.744 219.46 28.744C220.108 28.744 220.584 28.524 220.888 28.084C221.192 27.636 221.344 27.032 221.344 26.272C221.344 25.512 221.192 24.916 220.888 24.484C220.584 24.052 220.104 23.836 219.448 23.836C218.792 23.836 218.316 24.052 218.02 24.484C217.724 24.916 217.576 25.512 217.576 26.272ZM229.702 26.272C229.702 27.336 229.43 28.16 228.886 28.744C228.35 29.328 227.622 29.62 226.702 29.62C226.134 29.62 225.626 29.492 225.178 29.236C224.738 28.972 224.39 28.592 224.134 28.096C223.878 27.592 223.75 26.984 223.75 26.272C223.75 25.208 224.014 24.388 224.542 23.812C225.078 23.236 225.81 22.948 226.738 22.948C227.314 22.948 227.826 23.08 228.274 23.344C228.722 23.6 229.07 23.976 229.318 24.472C229.574 24.96 229.702 25.56 229.702 26.272ZM224.842 26.272C224.842 27.032 224.99 27.636 225.286 28.084C225.59 28.524 226.07 28.744 226.726 28.744C227.374 28.744 227.85 28.524 228.154 28.084C228.458 27.636 228.61 27.032 228.61 26.272C228.61 25.512 228.458 24.916 228.154 24.484C227.85 24.052 227.37 23.836 226.714 23.836C226.058 23.836 225.582 24.052 225.286 24.484C224.99 24.916 224.842 25.512 224.842 26.272ZM232.431 29.5H231.375V20.38H232.431V29.5ZM236.617 28.756C236.777 28.756 236.941 28.744 237.109 28.72C237.277 28.696 237.413 28.664 237.517 28.624V29.428C237.405 29.484 237.245 29.528 237.037 29.56C236.829 29.6 236.629 29.62 236.437 29.62C236.101 29.62 235.789 29.564 235.501 29.452C235.221 29.332 234.993 29.128 234.817 28.84C234.641 28.552 234.553 28.148 234.553 27.628V23.884H233.641V23.38L234.565 22.96L234.985 21.592H235.609V23.068H237.469V23.884H235.609V27.604C235.609 27.996 235.701 28.288 235.885 28.48C236.077 28.664 236.321 28.756 236.617 28.756ZM239.345 20.656C239.505 20.656 239.645 20.712 239.765 20.824C239.893 20.928 239.957 21.096 239.957 21.328C239.957 21.56 239.893 21.732 239.765 21.844C239.645 21.948 239.505 22 239.345 22C239.169 22 239.021 21.948 238.901 21.844C238.781 21.732 238.721 21.56 238.721 21.328C238.721 21.096 238.781 20.928 238.901 20.824C239.021 20.712 239.169 20.656 239.345 20.656ZM239.861 23.068V29.5H238.805V23.068H239.861ZM244.959 22.948C245.751 22.948 246.387 23.224 246.867 23.776C247.355 24.328 247.599 25.16 247.599 26.272C247.599 27.368 247.355 28.2 246.867 28.768C246.387 29.336 245.747 29.62 244.947 29.62C244.451 29.62 244.039 29.528 243.711 29.344C243.391 29.16 243.139 28.94 242.955 28.684H242.883C242.891 28.82 242.903 28.992 242.919 29.2C242.943 29.408 242.955 29.588 242.955 29.74V32.38H241.899V23.068H242.763L242.907 23.944H242.955C243.147 23.664 243.399 23.428 243.711 23.236C244.023 23.044 244.439 22.948 244.959 22.948ZM244.767 23.836C244.111 23.836 243.647 24.02 243.375 24.388C243.103 24.756 242.963 25.316 242.955 26.068V26.272C242.955 27.064 243.083 27.676 243.339 28.108C243.603 28.532 244.087 28.744 244.791 28.744C245.175 28.744 245.495 28.64 245.751 28.432C246.007 28.216 246.195 27.92 246.315 27.544C246.443 27.168 246.507 26.74 246.507 26.26C246.507 25.524 246.363 24.936 246.075 24.496C245.795 24.056 245.359 23.836 244.767 23.836ZM254.547 28.756C254.707 28.756 254.871 28.744 255.039 28.72C255.207 28.696 255.343 28.664 255.447 28.624V29.428C255.335 29.484 255.175 29.528 254.967 29.56C254.759 29.6 254.559 29.62 254.367 29.62C254.031 29.62 253.719 29.564 253.431 29.452C253.151 29.332 252.923 29.128 252.747 28.84C252.571 28.552 252.483 28.148 252.483 27.628V23.884H251.571V23.38L252.495 22.96L252.915 21.592H253.539V23.068H255.399V23.884H253.539V27.604C253.539 27.996 253.631 28.288 253.815 28.48C254.007 28.664 254.251 28.756 254.547 28.756ZM259.219 22.948C259.763 22.948 260.235 23.068 260.635 23.308C261.035 23.548 261.339 23.888 261.547 24.328C261.763 24.76 261.871 25.268 261.871 25.852V26.488H257.467C257.483 27.216 257.667 27.772 258.019 28.156C258.379 28.532 258.879 28.72 259.519 28.72C259.927 28.72 260.287 28.684 260.599 28.612C260.919 28.532 261.247 28.42 261.583 28.276V29.2C261.255 29.344 260.931 29.448 260.611 29.512C260.291 29.584 259.911 29.62 259.471 29.62C258.855 29.62 258.315 29.496 257.851 29.248C257.387 29 257.023 28.632 256.759 28.144C256.503 27.656 256.375 27.052 256.375 26.332C256.375 25.628 256.491 25.024 256.723 24.52C256.963 24.016 257.295 23.628 257.719 23.356C258.151 23.084 258.651 22.948 259.219 22.948ZM259.207 23.812C258.703 23.812 258.303 23.976 258.007 24.304C257.719 24.624 257.547 25.072 257.491 25.648H260.767C260.759 25.104 260.631 24.664 260.383 24.328C260.135 23.984 259.743 23.812 259.207 23.812ZM264.798 26.212L262.578 23.068H263.778L265.434 25.492L267.078 23.068H268.266L266.046 26.212L268.386 29.5H267.186L265.434 26.932L263.658 29.5H262.47L264.798 26.212ZM271.773 28.756C271.933 28.756 272.097 28.744 272.265 28.72C272.433 28.696 272.569 28.664 272.673 28.624V29.428C272.561 29.484 272.401 29.528 272.193 29.56C271.985 29.6 271.785 29.62 271.593 29.62C271.257 29.62 270.945 29.564 270.657 29.452C270.377 29.332 270.149 29.128 269.973 28.84C269.797 28.552 269.709 28.148 269.709 27.628V23.884H268.797V23.38L269.721 22.96L270.141 21.592H270.765V23.068H272.625V23.884H270.765V27.604C270.765 27.996 270.857 28.288 271.041 28.48C271.233 28.664 271.477 28.756 271.773 28.756Z" fill="white"/>
<path d="M135.018 7.378C135.596 7.378 136.119 7.46667 136.586 7.644C137.052 7.82133 137.426 8.092 137.706 8.456C137.986 8.81067 138.126 9.24933 138.126 9.772C138.126 10.3693 137.948 10.864 137.594 11.256C137.239 11.6387 136.805 11.9607 136.292 12.222C136.674 12.418 137.029 12.6373 137.356 12.88C137.682 13.1227 137.944 13.412 138.14 13.748C138.345 14.0747 138.448 14.462 138.448 14.91C138.448 15.4607 138.303 15.9413 138.014 16.352C137.724 16.7627 137.323 17.08 136.81 17.304C136.306 17.528 135.713 17.64 135.032 17.64C133.921 17.64 133.067 17.402 132.47 16.926C131.872 16.45 131.574 15.7967 131.574 14.966C131.574 14.5087 131.662 14.112 131.84 13.776C132.017 13.44 132.255 13.1507 132.554 12.908C132.852 12.6653 133.184 12.4553 133.548 12.278C133.09 11.998 132.698 11.662 132.372 11.27C132.054 10.8687 131.896 10.3647 131.896 9.758C131.896 9.24467 132.036 8.81067 132.316 8.456C132.605 8.10133 132.983 7.83533 133.45 7.658C133.926 7.47133 134.448 7.378 135.018 7.378ZM135.004 8.708C134.593 8.708 134.252 8.81067 133.982 9.016C133.72 9.22133 133.59 9.51067 133.59 9.884C133.59 10.2947 133.73 10.6213 134.01 10.864C134.29 11.1067 134.63 11.3167 135.032 11.494C135.414 11.326 135.741 11.1207 136.012 10.878C136.292 10.6353 136.432 10.304 136.432 9.884C136.432 9.51067 136.296 9.22133 136.026 9.016C135.764 8.81067 135.424 8.708 135.004 8.708ZM133.254 14.882C133.254 15.2927 133.398 15.6333 133.688 15.904C133.977 16.1653 134.416 16.296 135.004 16.296C135.582 16.296 136.021 16.1653 136.32 15.904C136.618 15.6427 136.768 15.302 136.768 14.882C136.768 14.462 136.6 14.112 136.264 13.832C135.928 13.552 135.531 13.3093 135.074 13.104L134.878 13.006C134.374 13.2393 133.977 13.5053 133.688 13.804C133.398 14.0933 133.254 14.4527 133.254 14.882ZM147.786 9.772C148.673 9.772 149.387 10.1033 149.928 10.766C150.469 11.4193 150.74 12.3947 150.74 13.692C150.74 14.9893 150.46 15.974 149.9 16.646C149.349 17.3087 148.631 17.64 147.744 17.64C147.184 17.64 146.731 17.5373 146.386 17.332C146.041 17.1267 145.765 16.8887 145.56 16.618H145.448C145.476 16.7953 145.499 16.9867 145.518 17.192C145.546 17.3973 145.56 17.5933 145.56 17.78V20.86H143.796V9.912H145.224L145.476 10.92H145.56C145.775 10.6027 146.055 10.332 146.4 10.108C146.745 9.884 147.207 9.772 147.786 9.772ZM147.282 11.2C146.657 11.2 146.213 11.3867 145.952 11.76C145.7 12.1333 145.569 12.698 145.56 13.454V13.678C145.56 14.49 145.681 15.1153 145.924 15.554C146.176 15.9833 146.638 16.198 147.31 16.198C147.861 16.198 148.267 15.974 148.528 15.526C148.799 15.0687 148.934 14.448 148.934 13.664C148.934 12.88 148.799 12.2733 148.528 11.844C148.267 11.4147 147.851 11.2 147.282 11.2ZM153.924 13.622L151.418 9.912H153.42L155.072 12.488L156.724 9.912H158.726L156.192 13.622L158.852 17.5H156.85L155.072 14.742L153.294 17.5H151.292L153.924 13.622Z" fill="#E60074"/>
<path d="M177 12.5L161 12.5" stroke="#E60074"/>
<rect opacity="0.4" x="285" y="8.5" width="8" height="108" transform="rotate(90 285 8.5)" fill="white"/>
<rect opacity="0.12" x="285" y="8.5" width="8" height="108" transform="rotate(90 285 8.5)" fill="#E60074"/>
<path opacity="0.5" d="M285 16.5L177 16.5" stroke="#E60074" stroke-dasharray="3 3"/>
<path opacity="0.5" d="M285 8.5L177 8.5" stroke="#E60074" stroke-dasharray="3 3"/>
<path d="M135.018 31.378C135.596 31.378 136.119 31.4667 136.586 31.644C137.052 31.8213 137.426 32.092 137.706 32.456C137.986 32.8107 138.126 33.2493 138.126 33.772C138.126 34.3693 137.948 34.864 137.594 35.256C137.239 35.6387 136.805 35.9607 136.292 36.222C136.674 36.418 137.029 36.6373 137.356 36.88C137.682 37.1227 137.944 37.412 138.14 37.748C138.345 38.0747 138.448 38.462 138.448 38.91C138.448 39.4607 138.303 39.9413 138.014 40.352C137.724 40.7627 137.323 41.08 136.81 41.304C136.306 41.528 135.713 41.64 135.032 41.64C133.921 41.64 133.067 41.402 132.47 40.926C131.872 40.45 131.574 39.7967 131.574 38.966C131.574 38.5087 131.662 38.112 131.84 37.776C132.017 37.44 132.255 37.1507 132.554 36.908C132.852 36.6653 133.184 36.4553 133.548 36.278C133.09 35.998 132.698 35.662 132.372 35.27C132.054 34.8687 131.896 34.3647 131.896 33.758C131.896 33.2447 132.036 32.8107 132.316 32.456C132.605 32.1013 132.983 31.8353 133.45 31.658C133.926 31.4713 134.448 31.378 135.018 31.378ZM135.004 32.708C134.593 32.708 134.252 32.8107 133.982 33.016C133.72 33.2213 133.59 33.5107 133.59 33.884C133.59 34.2947 133.73 34.6213 134.01 34.864C134.29 35.1067 134.63 35.3167 135.032 35.494C135.414 35.326 135.741 35.1207 136.012 34.878C136.292 34.6353 136.432 34.304 136.432 33.884C136.432 33.5107 136.296 33.2213 136.026 33.016C135.764 32.8107 135.424 32.708 135.004 32.708ZM133.254 38.882C133.254 39.2927 133.398 39.6333 133.688 39.904C133.977 40.1653 134.416 40.296 135.004 40.296C135.582 40.296 136.021 40.1653 136.32 39.904C136.618 39.6427 136.768 39.302 136.768 38.882C136.768 38.462 136.6 38.112 136.264 37.832C135.928 37.552 135.531 37.3093 135.074 37.104L134.878 37.006C134.374 37.2393 133.977 37.5053 133.688 37.804C133.398 38.0933 133.254 38.4527 133.254 38.882ZM147.786 33.772C148.673 33.772 149.387 34.1033 149.928 34.766C150.469 35.4193 150.74 36.3947 150.74 37.692C150.74 38.9893 150.46 39.974 149.9 40.646C149.349 41.3087 148.631 41.64 147.744 41.64C147.184 41.64 146.731 41.5373 146.386 41.332C146.041 41.1267 145.765 40.8887 145.56 40.618H145.448C145.476 40.7953 145.499 40.9867 145.518 41.192C145.546 41.3973 145.56 41.5933 145.56 41.78V44.86H143.796V33.912H145.224L145.476 34.92H145.56C145.775 34.6027 146.055 34.332 146.4 34.108C146.745 33.884 147.207 33.772 147.786 33.772ZM147.282 35.2C146.657 35.2 146.213 35.3867 145.952 35.76C145.7 36.1333 145.569 36.698 145.56 37.454V37.678C145.56 38.49 145.681 39.1153 145.924 39.554C146.176 39.9833 146.638 40.198 147.31 40.198C147.861 40.198 148.267 39.974 148.528 39.526C148.799 39.0687 148.934 38.448 148.934 37.664C148.934 36.88 148.799 36.2733 148.528 35.844C148.267 35.4147 147.851 35.2 147.282 35.2ZM153.924 37.622L151.418 33.912H153.42L155.072 36.488L156.724 33.912H158.726L156.192 37.622L158.852 41.5H156.85L155.072 38.742L153.294 41.5H151.292L153.924 37.622Z" fill="#E60074"/>
<path d="M177 36.5L161 36.5" stroke="#E60074"/>
<rect opacity="0.4" x="285" y="32.5" width="8" height="108" transform="rotate(90 285 32.5)" fill="white"/>
<rect opacity="0.12" x="285" y="32.5" width="8" height="108" transform="rotate(90 285 32.5)" fill="#E60074"/>
<path opacity="0.5" d="M285 40.5L177 40.5" stroke="#E60074" stroke-dasharray="3 3"/>
<path opacity="0.5" d="M285 32.5L177 32.5" stroke="#E60074" stroke-dasharray="3 3"/>
<rect opacity="0.4" x="198" y="8.5" width="12" height="52" fill="white"/>
<rect opacity="0.12" x="198" y="8.5" width="12" height="52" fill="#E60074"/>
<path opacity="0.5" d="M210 8.5L210 60.5" stroke="#E60074" stroke-dasharray="3 3"/>
<path opacity="0.5" d="M198 8.5L198 60.5" stroke="#E60074" stroke-dasharray="3 3"/>
<path d="M204 60.5V76.5" stroke="#E60074"/>
<path d="M191.482 91.5H189.718V85.27C189.718 84.9713 189.722 84.654 189.732 84.318C189.741 83.982 189.755 83.6693 189.774 83.38C189.68 83.4733 189.564 83.5853 189.424 83.716C189.293 83.8467 189.148 83.9727 188.99 84.094L187.87 84.99L186.988 83.898L190.012 81.504H191.482V91.5ZM201.468 91.5H194.622V90.198L197.17 87.622C197.674 87.1087 198.084 86.67 198.402 86.306C198.728 85.942 198.966 85.6013 199.116 85.284C199.274 84.9573 199.354 84.6073 199.354 84.234C199.354 83.7767 199.223 83.436 198.962 83.212C198.71 82.9787 198.364 82.862 197.926 82.862C197.506 82.862 197.114 82.9507 196.75 83.128C196.386 83.296 196.008 83.5387 195.616 83.856L194.65 82.694C195.06 82.3393 195.522 82.0313 196.036 81.77C196.558 81.4993 197.221 81.364 198.024 81.364C198.668 81.364 199.218 81.4807 199.676 81.714C200.142 81.938 200.502 82.2553 200.754 82.666C201.006 83.0673 201.132 83.5293 201.132 84.052C201.132 84.5933 201.024 85.0927 200.81 85.55C200.595 85.998 200.282 86.4507 199.872 86.908C199.47 87.356 198.99 87.8413 198.43 88.364L196.848 89.89V89.974H201.468V91.5ZM210.792 83.772C211.679 83.772 212.393 84.1033 212.934 84.766C213.475 85.4193 213.746 86.3947 213.746 87.692C213.746 88.9893 213.466 89.974 212.906 90.646C212.355 91.3087 211.637 91.64 210.75 91.64C210.19 91.64 209.737 91.5373 209.392 91.332C209.047 91.1267 208.771 90.8887 208.566 90.618H208.454C208.482 90.7953 208.505 90.9867 208.524 91.192C208.552 91.3973 208.566 91.5933 208.566 91.78V94.86H206.802V83.912H208.23L208.482 84.92H208.566C208.781 84.6027 209.061 84.332 209.406 84.108C209.751 83.884 210.213 83.772 210.792 83.772ZM210.288 85.2C209.663 85.2 209.219 85.3867 208.958 85.76C208.706 86.1333 208.575 86.698 208.566 87.454V87.678C208.566 88.49 208.687 89.1153 208.93 89.554C209.182 89.9833 209.644 90.198 210.316 90.198C210.867 90.198 211.273 89.974 211.534 89.526C211.805 89.0687 211.94 88.448 211.94 87.664C211.94 86.88 211.805 86.2733 211.534 85.844C211.273 85.4147 210.857 85.2 210.288 85.2ZM216.93 87.622L214.424 83.912H216.426L218.078 86.488L219.73 83.912H221.732L219.198 87.622L221.858 91.5H219.856L218.078 88.742L216.3 91.5H214.298L216.93 87.622Z" fill="#E60074"/>
<rect opacity="0.4" x="273" y="8.5" width="12" height="52" fill="white"/>
<rect opacity="0.12" x="273" y="8.5" width="12" height="52" fill="#E60074"/>
<path opacity="0.5" d="M285 8.5L285 60.5" stroke="#E60074" stroke-dasharray="3 3"/>
<path opacity="0.5" d="M273 8.5L273 60.5" stroke="#E60074" stroke-dasharray="3 3"/>
<path d="M279 60.5V76.5" stroke="#E60074"/>
<path d="M266.482 91.5H264.718V85.27C264.718 84.9713 264.722 84.654 264.732 84.318C264.741 83.982 264.755 83.6693 264.774 83.38C264.68 83.4733 264.564 83.5853 264.424 83.716C264.293 83.8467 264.148 83.9727 263.99 84.094L262.87 84.99L261.988 83.898L265.012 81.504H266.482V91.5ZM276.468 91.5H269.622V90.198L272.17 87.622C272.674 87.1087 273.084 86.67 273.402 86.306C273.728 85.942 273.966 85.6013 274.116 85.284C274.274 84.9573 274.354 84.6073 274.354 84.234C274.354 83.7767 274.223 83.436 273.962 83.212C273.71 82.9787 273.364 82.862 272.926 82.862C272.506 82.862 272.114 82.9507 271.75 83.128C271.386 83.296 271.008 83.5387 270.616 83.856L269.65 82.694C270.06 82.3393 270.522 82.0313 271.036 81.77C271.558 81.4993 272.221 81.364 273.024 81.364C273.668 81.364 274.218 81.4807 274.676 81.714C275.142 81.938 275.502 82.2553 275.754 82.666C276.006 83.0673 276.132 83.5293 276.132 84.052C276.132 84.5933 276.024 85.0927 275.81 85.55C275.595 85.998 275.282 86.4507 274.872 86.908C274.47 87.356 273.99 87.8413 273.43 88.364L271.848 89.89V89.974H276.468V91.5ZM285.792 83.772C286.679 83.772 287.393 84.1033 287.934 84.766C288.475 85.4193 288.746 86.3947 288.746 87.692C288.746 88.9893 288.466 89.974 287.906 90.646C287.355 91.3087 286.637 91.64 285.75 91.64C285.19 91.64 284.737 91.5373 284.392 91.332C284.047 91.1267 283.771 90.8887 283.566 90.618H283.454C283.482 90.7953 283.505 90.9867 283.524 91.192C283.552 91.3973 283.566 91.5933 283.566 91.78V94.86H281.802V83.912H283.23L283.482 84.92H283.566C283.781 84.6027 284.061 84.332 284.406 84.108C284.751 83.884 285.213 83.772 285.792 83.772ZM285.288 85.2C284.663 85.2 284.219 85.3867 283.958 85.76C283.706 86.1333 283.575 86.698 283.566 87.454V87.678C283.566 88.49 283.687 89.1153 283.93 89.554C284.182 89.9833 284.644 90.198 285.316 90.198C285.867 90.198 286.273 89.974 286.534 89.526C286.805 89.0687 286.94 88.448 286.94 87.664C286.94 86.88 286.805 86.2733 286.534 85.844C286.273 85.4147 285.857 85.2 285.288 85.2ZM291.93 87.622L289.424 83.912H291.426L293.078 86.488L294.73 83.912H296.732L294.198 87.622L296.858 91.5H294.856L293.078 88.742L291.3 91.5H289.298L291.93 87.622Z" fill="#E60074"/>
</g>
<defs>
<clipPath id="clip0_8319_506151">
<rect width="428" height="96" fill="white"/>
</clipPath>
</defs>
</svg>
