<svg width="428" height="96" viewBox="0 0 428 96" fill="none" xmlns="http://www.w3.org/2000/svg">
<rect width="428" height="96" fill="white"/>
<path d="M153.072 41.786C153.072 42.4673 152.871 43.0133 152.47 43.424C152.078 43.8253 151.569 44.096 150.944 44.236V44.278C151.746 44.3807 152.353 44.6327 152.764 45.034C153.174 45.4353 153.38 45.9627 153.38 46.616C153.38 47.1947 153.24 47.7127 152.96 48.17C152.68 48.6273 152.246 48.9867 151.658 49.248C151.079 49.5093 150.332 49.64 149.418 49.64C148.867 49.64 148.358 49.5933 147.892 49.5C147.434 49.416 147 49.2807 146.59 49.094V47.54C147.01 47.7547 147.458 47.918 147.934 48.03C148.41 48.142 148.858 48.198 149.278 48.198C150.09 48.198 150.664 48.0533 151 47.764C151.336 47.4653 151.504 47.0547 151.504 46.532C151.504 46.0373 151.308 45.6687 150.916 45.426C150.524 45.1833 149.87 45.062 148.956 45.062H148.116V43.648H148.97C149.856 43.648 150.468 43.5033 150.804 43.214C151.14 42.9247 151.308 42.5513 151.308 42.094C151.308 41.6927 151.177 41.38 150.916 41.156C150.654 40.932 150.262 40.82 149.74 40.82C149.236 40.82 148.802 40.904 148.438 41.072C148.074 41.2307 147.747 41.4033 147.458 41.59L146.618 40.372C147 40.092 147.453 39.854 147.976 39.658C148.498 39.462 149.114 39.364 149.824 39.364C150.86 39.364 151.658 39.5833 152.218 40.022C152.787 40.4607 153.072 41.0487 153.072 41.786ZM161.475 49.5H154.629V48.198L157.177 45.622C157.681 45.1087 158.092 44.67 158.409 44.306C158.736 43.942 158.974 43.6013 159.123 43.284C159.282 42.9573 159.361 42.6073 159.361 42.234C159.361 41.7767 159.231 41.436 158.969 41.212C158.717 40.9787 158.372 40.862 157.933 40.862C157.513 40.862 157.121 40.9507 156.757 41.128C156.393 41.296 156.015 41.5387 155.623 41.856L154.657 40.694C155.068 40.3393 155.53 40.0313 156.043 39.77C156.566 39.4993 157.229 39.364 158.031 39.364C158.675 39.364 159.226 39.4807 159.683 39.714C160.15 39.938 160.509 40.2553 160.761 40.666C161.013 41.0673 161.139 41.5293 161.139 42.052C161.139 42.5933 161.032 43.0927 160.817 43.55C160.603 43.998 160.29 44.4507 159.879 44.908C159.478 45.356 158.997 45.8413 158.437 46.364L156.855 47.89V47.974H161.475V49.5ZM170.8 41.772C171.686 41.772 172.4 42.1033 172.942 42.766C173.483 43.4193 173.754 44.3947 173.754 45.692C173.754 46.9893 173.474 47.974 172.914 48.646C172.363 49.3087 171.644 49.64 170.758 49.64C170.198 49.64 169.745 49.5373 169.4 49.332C169.054 49.1267 168.779 48.8887 168.574 48.618H168.462C168.49 48.7953 168.513 48.9867 168.532 49.192C168.56 49.3973 168.574 49.5933 168.574 49.78V52.86H166.81V41.912H168.238L168.49 42.92H168.574C168.788 42.6027 169.068 42.332 169.414 42.108C169.759 41.884 170.221 41.772 170.8 41.772ZM170.296 43.2C169.67 43.2 169.227 43.3867 168.966 43.76C168.714 44.1333 168.583 44.698 168.574 45.454V45.678C168.574 46.49 168.695 47.1153 168.938 47.554C169.19 47.9833 169.652 48.198 170.324 48.198C170.874 48.198 171.28 47.974 171.542 47.526C171.812 47.0687 171.948 46.448 171.948 45.664C171.948 44.88 171.812 44.2733 171.542 43.844C171.28 43.4147 170.865 43.2 170.296 43.2ZM176.938 45.622L174.432 41.912H176.434L178.086 44.488L179.738 41.912H181.74L179.206 45.622L181.866 49.5H179.864L178.086 46.742L176.308 49.5H174.306L176.938 45.622Z" fill="#E60074"/>
<path d="M194 28.5H186" stroke="#E60074"/>
<path d="M190 28.5L190 60.5" stroke="#E60074"/>
<path d="M194 60.5H186" stroke="#E60074"/>
<rect x="195" y="28.5" width="87" height="32" rx="4" fill="#323232"/>
<path d="M210.876 49.5H209.796V41.88H207.12V40.932H213.54V41.88H210.876V49.5ZM219.436 46.272C219.436 47.336 219.164 48.16 218.62 48.744C218.084 49.328 217.356 49.62 216.436 49.62C215.868 49.62 215.36 49.492 214.912 49.236C214.472 48.972 214.124 48.592 213.868 48.096C213.612 47.592 213.484 46.984 213.484 46.272C213.484 45.208 213.748 44.388 214.276 43.812C214.812 43.236 215.544 42.948 216.472 42.948C217.048 42.948 217.56 43.08 218.008 43.344C218.456 43.6 218.804 43.976 219.052 44.472C219.308 44.96 219.436 45.56 219.436 46.272ZM214.576 46.272C214.576 47.032 214.724 47.636 215.02 48.084C215.324 48.524 215.804 48.744 216.46 48.744C217.108 48.744 217.584 48.524 217.888 48.084C218.192 47.636 218.344 47.032 218.344 46.272C218.344 45.512 218.192 44.916 217.888 44.484C217.584 44.052 217.104 43.836 216.448 43.836C215.792 43.836 215.316 44.052 215.02 44.484C214.724 44.916 214.576 45.512 214.576 46.272ZM226.702 46.272C226.702 47.336 226.43 48.16 225.886 48.744C225.35 49.328 224.622 49.62 223.702 49.62C223.134 49.62 222.626 49.492 222.178 49.236C221.738 48.972 221.39 48.592 221.134 48.096C220.878 47.592 220.75 46.984 220.75 46.272C220.75 45.208 221.014 44.388 221.542 43.812C222.078 43.236 222.81 42.948 223.738 42.948C224.314 42.948 224.826 43.08 225.274 43.344C225.722 43.6 226.07 43.976 226.318 44.472C226.574 44.96 226.702 45.56 226.702 46.272ZM221.842 46.272C221.842 47.032 221.99 47.636 222.286 48.084C222.59 48.524 223.07 48.744 223.726 48.744C224.374 48.744 224.85 48.524 225.154 48.084C225.458 47.636 225.61 47.032 225.61 46.272C225.61 45.512 225.458 44.916 225.154 44.484C224.85 44.052 224.37 43.836 223.714 43.836C223.058 43.836 222.582 44.052 222.286 44.484C221.99 44.916 221.842 45.512 221.842 46.272ZM229.431 49.5H228.375V40.38H229.431V49.5ZM233.617 48.756C233.777 48.756 233.941 48.744 234.109 48.72C234.277 48.696 234.413 48.664 234.517 48.624V49.428C234.405 49.484 234.245 49.528 234.037 49.56C233.829 49.6 233.629 49.62 233.437 49.62C233.101 49.62 232.789 49.564 232.501 49.452C232.221 49.332 231.993 49.128 231.817 48.84C231.641 48.552 231.553 48.148 231.553 47.628V43.884H230.641V43.38L231.565 42.96L231.985 41.592H232.609V43.068H234.469V43.884H232.609V47.604C232.609 47.996 232.701 48.288 232.885 48.48C233.077 48.664 233.321 48.756 233.617 48.756ZM236.345 40.656C236.505 40.656 236.645 40.712 236.765 40.824C236.893 40.928 236.957 41.096 236.957 41.328C236.957 41.56 236.893 41.732 236.765 41.844C236.645 41.948 236.505 42 236.345 42C236.169 42 236.021 41.948 235.901 41.844C235.781 41.732 235.721 41.56 235.721 41.328C235.721 41.096 235.781 40.928 235.901 40.824C236.021 40.712 236.169 40.656 236.345 40.656ZM236.861 43.068V49.5H235.805V43.068H236.861ZM241.959 42.948C242.751 42.948 243.387 43.224 243.867 43.776C244.355 44.328 244.599 45.16 244.599 46.272C244.599 47.368 244.355 48.2 243.867 48.768C243.387 49.336 242.747 49.62 241.947 49.62C241.451 49.62 241.039 49.528 240.711 49.344C240.391 49.16 240.139 48.94 239.955 48.684H239.883C239.891 48.82 239.903 48.992 239.919 49.2C239.943 49.408 239.955 49.588 239.955 49.74V52.38H238.899V43.068H239.763L239.907 43.944H239.955C240.147 43.664 240.399 43.428 240.711 43.236C241.023 43.044 241.439 42.948 241.959 42.948ZM241.767 43.836C241.111 43.836 240.647 44.02 240.375 44.388C240.103 44.756 239.963 45.316 239.955 46.068V46.272C239.955 47.064 240.083 47.676 240.339 48.108C240.603 48.532 241.087 48.744 241.791 48.744C242.175 48.744 242.495 48.64 242.751 48.432C243.007 48.216 243.195 47.92 243.315 47.544C243.443 47.168 243.507 46.74 243.507 46.26C243.507 45.524 243.363 44.936 243.075 44.496C242.795 44.056 242.359 43.836 241.767 43.836ZM251.547 48.756C251.707 48.756 251.871 48.744 252.039 48.72C252.207 48.696 252.343 48.664 252.447 48.624V49.428C252.335 49.484 252.175 49.528 251.967 49.56C251.759 49.6 251.559 49.62 251.367 49.62C251.031 49.62 250.719 49.564 250.431 49.452C250.151 49.332 249.923 49.128 249.747 48.84C249.571 48.552 249.483 48.148 249.483 47.628V43.884H248.571V43.38L249.495 42.96L249.915 41.592H250.539V43.068H252.399V43.884H250.539V47.604C250.539 47.996 250.631 48.288 250.815 48.48C251.007 48.664 251.251 48.756 251.547 48.756ZM256.219 42.948C256.763 42.948 257.235 43.068 257.635 43.308C258.035 43.548 258.339 43.888 258.547 44.328C258.763 44.76 258.871 45.268 258.871 45.852V46.488H254.467C254.483 47.216 254.667 47.772 255.019 48.156C255.379 48.532 255.879 48.72 256.519 48.72C256.927 48.72 257.287 48.684 257.599 48.612C257.919 48.532 258.247 48.42 258.583 48.276V49.2C258.255 49.344 257.931 49.448 257.611 49.512C257.291 49.584 256.911 49.62 256.471 49.62C255.855 49.62 255.315 49.496 254.851 49.248C254.387 49 254.023 48.632 253.759 48.144C253.503 47.656 253.375 47.052 253.375 46.332C253.375 45.628 253.491 45.024 253.723 44.52C253.963 44.016 254.295 43.628 254.719 43.356C255.151 43.084 255.651 42.948 256.219 42.948ZM256.207 43.812C255.703 43.812 255.303 43.976 255.007 44.304C254.719 44.624 254.547 45.072 254.491 45.648H257.767C257.759 45.104 257.631 44.664 257.383 44.328C257.135 43.984 256.743 43.812 256.207 43.812ZM261.798 46.212L259.578 43.068H260.778L262.434 45.492L264.078 43.068H265.266L263.046 46.212L265.386 49.5H264.186L262.434 46.932L260.658 49.5H259.47L261.798 46.212ZM268.773 48.756C268.933 48.756 269.097 48.744 269.265 48.72C269.433 48.696 269.569 48.664 269.673 48.624V49.428C269.561 49.484 269.401 49.528 269.193 49.56C268.985 49.6 268.785 49.62 268.593 49.62C268.257 49.62 267.945 49.564 267.657 49.452C267.377 49.332 267.149 49.128 266.973 48.84C266.797 48.552 266.709 48.148 266.709 47.628V43.884H265.797V43.38L266.721 42.96L267.141 41.592H267.765V43.068H269.625V43.884H267.765V47.604C267.765 47.996 267.857 48.288 268.041 48.48C268.233 48.664 268.477 48.756 268.773 48.756Z" fill="white"/>
<path d="M231.5 60.5H245.5L238.5 67.5L231.5 60.5Z" fill="#323232"/>
</svg>
