<svg width="364" height="135" viewBox="0 0 364 135" fill="none" xmlns="http://www.w3.org/2000/svg">
<rect x="64" y="40" width="300" height="48" rx="4" fill="#323232"/>
<path d="M79.876 61H78.796V53.38H76.12V52.432H82.54V53.38H79.876V61ZM84.744 51.88V54.556C84.744 54.876 84.724 55.176 84.684 55.456H84.756C84.964 55.128 85.244 54.88 85.596 54.712C85.956 54.544 86.344 54.46 86.76 54.46C87.536 54.46 88.12 54.648 88.512 55.024C88.912 55.392 89.112 55.988 89.112 56.812V61H88.068V56.884C88.068 55.852 87.588 55.336 86.628 55.336C85.908 55.336 85.412 55.54 85.14 55.948C84.876 56.348 84.744 56.924 84.744 57.676V61H83.688V51.88H84.744ZM91.6459 52.156C91.8059 52.156 91.9459 52.212 92.0659 52.324C92.1939 52.428 92.2579 52.596 92.2579 52.828C92.2579 53.06 92.1939 53.232 92.0659 53.344C91.9459 53.448 91.8059 53.5 91.6459 53.5C91.4699 53.5 91.3219 53.448 91.2019 53.344C91.0819 53.232 91.0219 53.06 91.0219 52.828C91.0219 52.596 91.0819 52.428 91.2019 52.324C91.3219 52.212 91.4699 52.156 91.6459 52.156ZM92.1619 54.568V61H91.1059V54.568H92.1619ZM98.3877 59.224C98.3877 59.848 98.1557 60.32 97.6917 60.64C97.2277 60.96 96.6037 61.12 95.8197 61.12C95.3717 61.12 94.9837 61.084 94.6557 61.012C94.3357 60.94 94.0517 60.84 93.8037 60.712V59.752C94.0597 59.88 94.3677 60 94.7277 60.112C95.0957 60.216 95.4677 60.268 95.8437 60.268C96.3797 60.268 96.7677 60.184 97.0077 60.016C97.2477 59.84 97.3677 59.608 97.3677 59.32C97.3677 59.16 97.3237 59.016 97.2357 58.888C97.1477 58.76 96.9877 58.632 96.7557 58.504C96.5317 58.376 96.2077 58.232 95.7837 58.072C95.3677 57.912 95.0117 57.752 94.7157 57.592C94.4197 57.432 94.1917 57.24 94.0317 57.016C93.8717 56.792 93.7917 56.504 93.7917 56.152C93.7917 55.608 94.0117 55.188 94.4517 54.892C94.8997 54.596 95.4837 54.448 96.2037 54.448C96.5957 54.448 96.9597 54.488 97.2957 54.568C97.6397 54.648 97.9597 54.752 98.2557 54.88L97.8957 55.72C97.6237 55.608 97.3397 55.512 97.0437 55.432C96.7477 55.352 96.4437 55.312 96.1317 55.312C95.6997 55.312 95.3677 55.384 95.1357 55.528C94.9117 55.664 94.7997 55.852 94.7997 56.092C94.7997 56.276 94.8517 56.428 94.9557 56.548C95.0597 56.668 95.2317 56.788 95.4717 56.908C95.7197 57.028 96.0477 57.164 96.4557 57.316C96.8637 57.468 97.2117 57.624 97.4997 57.784C97.7877 57.944 98.0077 58.14 98.1597 58.372C98.3117 58.596 98.3877 58.88 98.3877 59.224ZM103.599 52.156C103.759 52.156 103.899 52.212 104.019 52.324C104.147 52.428 104.211 52.596 104.211 52.828C104.211 53.06 104.147 53.232 104.019 53.344C103.899 53.448 103.759 53.5 103.599 53.5C103.423 53.5 103.275 53.448 103.155 53.344C103.035 53.232 102.975 53.06 102.975 52.828C102.975 52.596 103.035 52.428 103.155 52.324C103.275 52.212 103.423 52.156 103.599 52.156ZM104.115 54.568V61H103.059V54.568H104.115ZM108.733 61.12C108.157 61.12 107.649 61.004 107.209 60.772C106.769 60.54 106.421 60.18 106.165 59.692C105.917 59.204 105.793 58.58 105.793 57.82C105.793 57.028 105.921 56.384 106.177 55.888C106.441 55.392 106.801 55.028 107.257 54.796C107.713 54.564 108.229 54.448 108.805 54.448C109.125 54.448 109.437 54.484 109.741 54.556C110.053 54.62 110.305 54.7 110.497 54.796L110.173 55.672C109.981 55.6 109.757 55.532 109.501 55.468C109.245 55.404 109.005 55.372 108.781 55.372C107.517 55.372 106.885 56.184 106.885 57.808C106.885 58.584 107.037 59.18 107.341 59.596C107.653 60.004 108.113 60.208 108.721 60.208C109.065 60.208 109.373 60.172 109.645 60.1C109.917 60.028 110.165 59.94 110.389 59.836V60.772C110.173 60.884 109.933 60.968 109.669 61.024C109.413 61.088 109.101 61.12 108.733 61.12ZM117.51 57.772C117.51 58.836 117.238 59.66 116.694 60.244C116.158 60.828 115.43 61.12 114.51 61.12C113.942 61.12 113.434 60.992 112.986 60.736C112.546 60.472 112.198 60.092 111.942 59.596C111.686 59.092 111.558 58.484 111.558 57.772C111.558 56.708 111.822 55.888 112.35 55.312C112.886 54.736 113.618 54.448 114.546 54.448C115.122 54.448 115.634 54.58 116.082 54.844C116.53 55.1 116.878 55.476 117.126 55.972C117.382 56.46 117.51 57.06 117.51 57.772ZM112.65 57.772C112.65 58.532 112.798 59.136 113.094 59.584C113.398 60.024 113.878 60.244 114.534 60.244C115.182 60.244 115.658 60.024 115.962 59.584C116.266 59.136 116.418 58.532 116.418 57.772C116.418 57.012 116.266 56.416 115.962 55.984C115.658 55.552 115.178 55.336 114.522 55.336C113.866 55.336 113.39 55.552 113.094 55.984C112.798 56.416 112.65 57.012 112.65 57.772ZM122.28 54.448C123.048 54.448 123.628 54.636 124.02 55.012C124.412 55.388 124.608 55.988 124.608 56.812V61H123.564V56.884C123.564 55.852 123.084 55.336 122.124 55.336C121.412 55.336 120.92 55.536 120.648 55.936C120.376 56.336 120.24 56.912 120.24 57.664V61H119.184V54.568H120.036L120.192 55.444H120.252C120.46 55.108 120.748 54.86 121.116 54.7C121.484 54.532 121.872 54.448 122.28 54.448ZM132.299 61.12C131.723 61.12 131.215 61.004 130.775 60.772C130.335 60.54 129.987 60.18 129.731 59.692C129.483 59.204 129.359 58.58 129.359 57.82C129.359 57.028 129.487 56.384 129.743 55.888C130.007 55.392 130.367 55.028 130.823 54.796C131.279 54.564 131.795 54.448 132.371 54.448C132.691 54.448 133.003 54.484 133.307 54.556C133.619 54.62 133.871 54.7 134.063 54.796L133.739 55.672C133.547 55.6 133.323 55.532 133.067 55.468C132.811 55.404 132.571 55.372 132.347 55.372C131.083 55.372 130.451 56.184 130.451 57.808C130.451 58.584 130.603 59.18 130.907 59.596C131.219 60.004 131.679 60.208 132.287 60.208C132.631 60.208 132.939 60.172 133.211 60.1C133.483 60.028 133.731 59.94 133.955 59.836V60.772C133.739 60.884 133.499 60.968 133.235 61.024C132.979 61.088 132.667 61.12 132.299 61.12ZM141.077 57.772C141.077 58.836 140.805 59.66 140.261 60.244C139.725 60.828 138.997 61.12 138.077 61.12C137.509 61.12 137.001 60.992 136.553 60.736C136.113 60.472 135.765 60.092 135.509 59.596C135.253 59.092 135.125 58.484 135.125 57.772C135.125 56.708 135.389 55.888 135.917 55.312C136.453 54.736 137.185 54.448 138.113 54.448C138.689 54.448 139.201 54.58 139.649 54.844C140.097 55.1 140.445 55.476 140.693 55.972C140.949 56.46 141.077 57.06 141.077 57.772ZM136.217 57.772C136.217 58.532 136.365 59.136 136.661 59.584C136.965 60.024 137.445 60.244 138.101 60.244C138.749 60.244 139.225 60.024 139.529 59.584C139.833 59.136 139.985 58.532 139.985 57.772C139.985 57.012 139.833 56.416 139.529 55.984C139.225 55.552 138.745 55.336 138.089 55.336C137.433 55.336 136.957 55.552 136.661 55.984C136.365 56.416 136.217 57.012 136.217 57.772ZM145.846 54.448C146.614 54.448 147.194 54.636 147.586 55.012C147.978 55.388 148.174 55.988 148.174 56.812V61H147.13V56.884C147.13 55.852 146.65 55.336 145.69 55.336C144.978 55.336 144.486 55.536 144.214 55.936C143.942 56.336 143.806 56.912 143.806 57.664V61H142.75V54.568H143.602L143.758 55.444H143.818C144.026 55.108 144.314 54.86 144.682 54.7C145.05 54.532 145.438 54.448 145.846 54.448ZM152.316 60.256C152.476 60.256 152.64 60.244 152.808 60.22C152.976 60.196 153.112 60.164 153.216 60.124V60.928C153.104 60.984 152.944 61.028 152.736 61.06C152.528 61.1 152.328 61.12 152.136 61.12C151.8 61.12 151.488 61.064 151.2 60.952C150.92 60.832 150.692 60.628 150.516 60.34C150.34 60.052 150.252 59.648 150.252 59.128V55.384H149.34V54.88L150.264 54.46L150.684 53.092H151.308V54.568H153.168V55.384H151.308V59.104C151.308 59.496 151.4 59.788 151.584 59.98C151.776 60.164 152.02 60.256 152.316 60.256ZM156.94 54.46C157.724 54.46 158.304 54.632 158.68 54.976C159.056 55.32 159.244 55.868 159.244 56.62V61H158.476L158.272 60.088H158.224C157.944 60.44 157.648 60.7 157.336 60.868C157.024 61.036 156.6 61.12 156.064 61.12C155.48 61.12 154.996 60.968 154.612 60.664C154.228 60.352 154.036 59.868 154.036 59.212C154.036 58.572 154.288 58.08 154.792 57.736C155.296 57.384 156.072 57.192 157.12 57.16L158.212 57.124V56.74C158.212 56.204 158.096 55.832 157.864 55.624C157.632 55.416 157.304 55.312 156.88 55.312C156.544 55.312 156.224 55.364 155.92 55.468C155.616 55.564 155.332 55.676 155.068 55.804L154.744 55.012C155.024 54.86 155.356 54.732 155.74 54.628C156.124 54.516 156.524 54.46 156.94 54.46ZM158.2 57.856L157.252 57.892C156.452 57.924 155.896 58.052 155.584 58.276C155.28 58.5 155.128 58.816 155.128 59.224C155.128 59.584 155.236 59.848 155.452 60.016C155.676 60.184 155.96 60.268 156.304 60.268C156.84 60.268 157.288 60.12 157.648 59.824C158.016 59.52 158.2 59.056 158.2 58.432V57.856ZM161.771 52.156C161.931 52.156 162.071 52.212 162.191 52.324C162.319 52.428 162.383 52.596 162.383 52.828C162.383 53.06 162.319 53.232 162.191 53.344C162.071 53.448 161.931 53.5 161.771 53.5C161.595 53.5 161.447 53.448 161.327 53.344C161.207 53.232 161.147 53.06 161.147 52.828C161.147 52.596 161.207 52.428 161.327 52.324C161.447 52.212 161.595 52.156 161.771 52.156ZM162.287 54.568V61H161.231V54.568H162.287ZM167.421 54.448C168.189 54.448 168.769 54.636 169.161 55.012C169.553 55.388 169.749 55.988 169.749 56.812V61H168.705V56.884C168.705 55.852 168.225 55.336 167.265 55.336C166.553 55.336 166.061 55.536 165.789 55.936C165.517 56.336 165.381 56.912 165.381 57.664V61H164.325V54.568H165.177L165.333 55.444H165.393C165.601 55.108 165.889 54.86 166.257 54.7C166.625 54.532 167.013 54.448 167.421 54.448ZM175.931 59.224C175.931 59.848 175.699 60.32 175.235 60.64C174.771 60.96 174.147 61.12 173.363 61.12C172.915 61.12 172.527 61.084 172.199 61.012C171.879 60.94 171.595 60.84 171.347 60.712V59.752C171.603 59.88 171.911 60 172.271 60.112C172.639 60.216 173.011 60.268 173.387 60.268C173.923 60.268 174.311 60.184 174.551 60.016C174.791 59.84 174.911 59.608 174.911 59.32C174.911 59.16 174.867 59.016 174.779 58.888C174.691 58.76 174.531 58.632 174.299 58.504C174.075 58.376 173.751 58.232 173.327 58.072C172.911 57.912 172.555 57.752 172.259 57.592C171.963 57.432 171.735 57.24 171.575 57.016C171.415 56.792 171.335 56.504 171.335 56.152C171.335 55.608 171.555 55.188 171.995 54.892C172.443 54.596 173.027 54.448 173.747 54.448C174.139 54.448 174.503 54.488 174.839 54.568C175.183 54.648 175.503 54.752 175.799 54.88L175.439 55.72C175.167 55.608 174.883 55.512 174.587 55.432C174.291 55.352 173.987 55.312 173.675 55.312C173.243 55.312 172.911 55.384 172.679 55.528C172.455 55.664 172.343 55.852 172.343 56.092C172.343 56.276 172.395 56.428 172.499 56.548C172.603 56.668 172.775 56.788 173.015 56.908C173.263 57.028 173.591 57.164 173.999 57.316C174.407 57.468 174.755 57.624 175.043 57.784C175.331 57.944 175.551 58.14 175.703 58.372C175.855 58.596 175.931 58.88 175.931 59.224ZM181.142 52.156C181.302 52.156 181.442 52.212 181.562 52.324C181.69 52.428 181.754 52.596 181.754 52.828C181.754 53.06 181.69 53.232 181.562 53.344C181.442 53.448 181.302 53.5 181.142 53.5C180.966 53.5 180.818 53.448 180.698 53.344C180.578 53.232 180.518 53.06 180.518 52.828C180.518 52.596 180.578 52.428 180.698 52.324C180.818 52.212 180.966 52.156 181.142 52.156ZM181.658 54.568V61H180.602V54.568H181.658ZM186.792 54.448C187.56 54.448 188.14 54.636 188.532 55.012C188.924 55.388 189.12 55.988 189.12 56.812V61H188.076V56.884C188.076 55.852 187.596 55.336 186.636 55.336C185.924 55.336 185.432 55.536 185.16 55.936C184.888 56.336 184.752 56.912 184.752 57.664V61H183.696V54.568H184.548L184.704 55.444H184.764C184.972 55.108 185.26 54.86 185.628 54.7C185.996 54.532 186.384 54.448 186.792 54.448ZM194.078 55.384H192.458V61H191.402V55.384H190.274V54.892L191.402 54.532V54.16C191.402 53.328 191.582 52.732 191.942 52.372C192.31 52.004 192.826 51.82 193.49 51.82C193.738 51.82 193.97 51.844 194.186 51.892C194.402 51.932 194.586 51.98 194.738 52.036L194.462 52.864C194.334 52.824 194.186 52.784 194.018 52.744C193.85 52.704 193.678 52.684 193.502 52.684C193.15 52.684 192.886 52.804 192.71 53.044C192.542 53.276 192.458 53.644 192.458 54.148V54.568H194.078V55.384ZM200.831 57.772C200.831 58.836 200.559 59.66 200.015 60.244C199.479 60.828 198.751 61.12 197.831 61.12C197.263 61.12 196.755 60.992 196.307 60.736C195.867 60.472 195.519 60.092 195.263 59.596C195.007 59.092 194.879 58.484 194.879 57.772C194.879 56.708 195.143 55.888 195.671 55.312C196.207 54.736 196.939 54.448 197.867 54.448C198.443 54.448 198.955 54.58 199.403 54.844C199.851 55.1 200.199 55.476 200.447 55.972C200.703 56.46 200.831 57.06 200.831 57.772ZM195.971 57.772C195.971 58.532 196.119 59.136 196.415 59.584C196.719 60.024 197.199 60.244 197.855 60.244C198.503 60.244 198.979 60.024 199.283 59.584C199.587 59.136 199.739 58.532 199.739 57.772C199.739 57.012 199.587 56.416 199.283 55.984C198.979 55.552 198.499 55.336 197.843 55.336C197.187 55.336 196.711 55.552 196.415 55.984C196.119 56.416 195.971 57.012 195.971 57.772ZM205.504 54.448C205.624 54.448 205.752 54.456 205.888 54.472C206.024 54.48 206.148 54.496 206.26 54.52L206.128 55.492C206.024 55.468 205.908 55.448 205.78 55.432C205.652 55.416 205.536 55.408 205.432 55.408C205.104 55.408 204.796 55.5 204.508 55.684C204.22 55.86 203.988 56.112 203.812 56.44C203.644 56.76 203.56 57.136 203.56 57.568V61H202.504V54.568H203.368L203.488 55.744H203.536C203.736 55.392 204 55.088 204.328 54.832C204.664 54.576 205.056 54.448 205.504 54.448ZM214.517 54.448C215.245 54.448 215.789 54.636 216.149 55.012C216.509 55.388 216.689 55.988 216.689 56.812V61H215.645V56.86C215.645 55.844 215.209 55.336 214.337 55.336C213.713 55.336 213.265 55.516 212.993 55.876C212.729 56.236 212.597 56.76 212.597 57.448V61H211.553V56.86C211.553 55.844 211.113 55.336 210.233 55.336C209.585 55.336 209.137 55.536 208.889 55.936C208.641 56.336 208.517 56.912 208.517 57.664V61H207.461V54.568H208.313L208.469 55.444H208.529C208.729 55.108 208.997 54.86 209.333 54.7C209.677 54.532 210.041 54.448 210.425 54.448C211.433 54.448 212.089 54.808 212.393 55.528H212.453C212.669 55.16 212.961 54.888 213.329 54.712C213.697 54.536 214.093 54.448 214.517 54.448ZM221.112 54.46C221.896 54.46 222.476 54.632 222.852 54.976C223.228 55.32 223.416 55.868 223.416 56.62V61H222.648L222.444 60.088H222.396C222.116 60.44 221.82 60.7 221.508 60.868C221.196 61.036 220.772 61.12 220.236 61.12C219.652 61.12 219.168 60.968 218.784 60.664C218.4 60.352 218.208 59.868 218.208 59.212C218.208 58.572 218.46 58.08 218.964 57.736C219.468 57.384 220.244 57.192 221.292 57.16L222.384 57.124V56.74C222.384 56.204 222.268 55.832 222.036 55.624C221.804 55.416 221.476 55.312 221.052 55.312C220.716 55.312 220.396 55.364 220.092 55.468C219.788 55.564 219.504 55.676 219.24 55.804L218.916 55.012C219.196 54.86 219.528 54.732 219.912 54.628C220.296 54.516 220.696 54.46 221.112 54.46ZM222.372 57.856L221.424 57.892C220.624 57.924 220.068 58.052 219.756 58.276C219.452 58.5 219.3 58.816 219.3 59.224C219.3 59.584 219.408 59.848 219.624 60.016C219.848 60.184 220.132 60.268 220.476 60.268C221.012 60.268 221.46 60.12 221.82 59.824C222.188 59.52 222.372 59.056 222.372 58.432V57.856ZM227.551 60.256C227.711 60.256 227.875 60.244 228.043 60.22C228.211 60.196 228.347 60.164 228.451 60.124V60.928C228.339 60.984 228.179 61.028 227.971 61.06C227.763 61.1 227.563 61.12 227.371 61.12C227.035 61.12 226.723 61.064 226.435 60.952C226.155 60.832 225.927 60.628 225.751 60.34C225.575 60.052 225.487 59.648 225.487 59.128V55.384H224.575V54.88L225.499 54.46L225.919 53.092H226.543V54.568H228.403V55.384H226.543V59.104C226.543 59.496 226.635 59.788 226.819 59.98C227.011 60.164 227.255 60.256 227.551 60.256ZM230.279 52.156C230.439 52.156 230.579 52.212 230.699 52.324C230.827 52.428 230.891 52.596 230.891 52.828C230.891 53.06 230.827 53.232 230.699 53.344C230.579 53.448 230.439 53.5 230.279 53.5C230.103 53.5 229.955 53.448 229.835 53.344C229.715 53.232 229.655 53.06 229.655 52.828C229.655 52.596 229.715 52.428 229.835 52.324C229.955 52.212 230.103 52.156 230.279 52.156ZM230.795 54.568V61H229.739V54.568H230.795ZM238.424 57.772C238.424 58.836 238.153 59.66 237.609 60.244C237.073 60.828 236.345 61.12 235.425 61.12C234.857 61.12 234.349 60.992 233.901 60.736C233.461 60.472 233.113 60.092 232.857 59.596C232.601 59.092 232.473 58.484 232.473 57.772C232.473 56.708 232.737 55.888 233.265 55.312C233.801 54.736 234.533 54.448 235.461 54.448C236.037 54.448 236.549 54.58 236.997 54.844C237.445 55.1 237.793 55.476 238.041 55.972C238.297 56.46 238.424 57.06 238.424 57.772ZM233.565 57.772C233.565 58.532 233.713 59.136 234.009 59.584C234.313 60.024 234.793 60.244 235.449 60.244C236.097 60.244 236.573 60.024 236.877 59.584C237.181 59.136 237.333 58.532 237.333 57.772C237.333 57.012 237.181 56.416 236.877 55.984C236.573 55.552 236.093 55.336 235.437 55.336C234.781 55.336 234.305 55.552 234.009 55.984C233.713 56.416 233.565 57.012 233.565 57.772ZM243.194 54.448C243.962 54.448 244.542 54.636 244.934 55.012C245.326 55.388 245.522 55.988 245.522 56.812V61H244.478V56.884C244.478 55.852 243.998 55.336 243.038 55.336C242.326 55.336 241.834 55.536 241.562 55.936C241.29 56.336 241.154 56.912 241.154 57.664V61H240.098V54.568H240.95L241.106 55.444H241.166C241.374 55.108 241.662 54.86 242.03 54.7C242.398 54.532 242.786 54.448 243.194 54.448ZM252.781 60.256C252.941 60.256 253.105 60.244 253.273 60.22C253.441 60.196 253.577 60.164 253.681 60.124V60.928C253.569 60.984 253.409 61.028 253.201 61.06C252.993 61.1 252.793 61.12 252.601 61.12C252.265 61.12 251.953 61.064 251.665 60.952C251.385 60.832 251.157 60.628 250.981 60.34C250.805 60.052 250.717 59.648 250.717 59.128V55.384H249.805V54.88L250.729 54.46L251.149 53.092H251.773V54.568H253.633V55.384H251.773V59.104C251.773 59.496 251.865 59.788 252.049 59.98C252.241 60.164 252.485 60.256 252.781 60.256ZM256.025 51.88V54.556C256.025 54.876 256.005 55.176 255.965 55.456H256.037C256.245 55.128 256.525 54.88 256.877 54.712C257.237 54.544 257.625 54.46 258.041 54.46C258.817 54.46 259.401 54.648 259.793 55.024C260.193 55.392 260.393 55.988 260.393 56.812V61H259.349V56.884C259.349 55.852 258.869 55.336 257.909 55.336C257.189 55.336 256.693 55.54 256.421 55.948C256.157 56.348 256.025 56.924 256.025 57.676V61H254.969V51.88H256.025ZM264.823 54.46C265.607 54.46 266.187 54.632 266.563 54.976C266.939 55.32 267.127 55.868 267.127 56.62V61H266.359L266.155 60.088H266.107C265.827 60.44 265.531 60.7 265.219 60.868C264.907 61.036 264.483 61.12 263.947 61.12C263.363 61.12 262.879 60.968 262.495 60.664C262.111 60.352 261.919 59.868 261.919 59.212C261.919 58.572 262.171 58.08 262.675 57.736C263.179 57.384 263.955 57.192 265.003 57.16L266.095 57.124V56.74C266.095 56.204 265.979 55.832 265.747 55.624C265.515 55.416 265.187 55.312 264.763 55.312C264.427 55.312 264.107 55.364 263.803 55.468C263.499 55.564 263.215 55.676 262.951 55.804L262.627 55.012C262.907 54.86 263.239 54.732 263.623 54.628C264.007 54.516 264.407 54.46 264.823 54.46ZM266.083 57.856L265.135 57.892C264.335 57.924 263.779 58.052 263.467 58.276C263.163 58.5 263.011 58.816 263.011 59.224C263.011 59.584 263.119 59.848 263.335 60.016C263.559 60.184 263.843 60.268 264.187 60.268C264.723 60.268 265.171 60.12 265.531 59.824C265.899 59.52 266.083 59.056 266.083 58.432V57.856ZM271.262 60.256C271.422 60.256 271.586 60.244 271.754 60.22C271.922 60.196 272.058 60.164 272.162 60.124V60.928C272.05 60.984 271.89 61.028 271.682 61.06C271.474 61.1 271.274 61.12 271.082 61.12C270.746 61.12 270.434 61.064 270.146 60.952C269.866 60.832 269.638 60.628 269.462 60.34C269.286 60.052 269.198 59.648 269.198 59.128V55.384H268.286V54.88L269.21 54.46L269.63 53.092H270.254V54.568H272.114V55.384H270.254V59.104C270.254 59.496 270.346 59.788 270.53 59.98C270.722 60.164 270.966 60.256 271.262 60.256ZM279.003 54.46C279.787 54.46 280.367 54.632 280.743 54.976C281.119 55.32 281.307 55.868 281.307 56.62V61H280.539L280.335 60.088H280.287C280.007 60.44 279.711 60.7 279.399 60.868C279.087 61.036 278.663 61.12 278.127 61.12C277.543 61.12 277.059 60.968 276.675 60.664C276.291 60.352 276.099 59.868 276.099 59.212C276.099 58.572 276.351 58.08 276.855 57.736C277.359 57.384 278.135 57.192 279.183 57.16L280.275 57.124V56.74C280.275 56.204 280.159 55.832 279.927 55.624C279.695 55.416 279.367 55.312 278.943 55.312C278.607 55.312 278.287 55.364 277.983 55.468C277.679 55.564 277.395 55.676 277.131 55.804L276.807 55.012C277.087 54.86 277.419 54.732 277.803 54.628C278.187 54.516 278.587 54.46 279.003 54.46ZM280.263 57.856L279.315 57.892C278.515 57.924 277.959 58.052 277.647 58.276C277.343 58.5 277.191 58.816 277.191 59.224C277.191 59.584 277.299 59.848 277.515 60.016C277.739 60.184 278.023 60.268 278.367 60.268C278.903 60.268 279.351 60.12 279.711 59.824C280.079 59.52 280.263 59.056 280.263 58.432V57.856ZM286.353 54.448C287.145 54.448 287.781 54.724 288.261 55.276C288.749 55.828 288.993 56.66 288.993 57.772C288.993 58.868 288.749 59.7 288.261 60.268C287.781 60.836 287.141 61.12 286.341 61.12C285.845 61.12 285.433 61.028 285.105 60.844C284.785 60.66 284.533 60.44 284.349 60.184H284.277C284.285 60.32 284.297 60.492 284.313 60.7C284.337 60.908 284.349 61.088 284.349 61.24V63.88H283.293V54.568H284.157L284.301 55.444H284.349C284.541 55.164 284.793 54.928 285.105 54.736C285.417 54.544 285.833 54.448 286.353 54.448ZM286.161 55.336C285.505 55.336 285.041 55.52 284.769 55.888C284.497 56.256 284.357 56.816 284.349 57.568V57.772C284.349 58.564 284.477 59.176 284.733 59.608C284.997 60.032 285.481 60.244 286.185 60.244C286.569 60.244 286.889 60.14 287.145 59.932C287.401 59.716 287.589 59.42 287.709 59.044C287.837 58.668 287.901 58.24 287.901 57.76C287.901 57.024 287.757 56.436 287.469 55.996C287.189 55.556 286.753 55.336 286.161 55.336ZM293.736 54.448C294.528 54.448 295.164 54.724 295.644 55.276C296.132 55.828 296.376 56.66 296.376 57.772C296.376 58.868 296.132 59.7 295.644 60.268C295.164 60.836 294.524 61.12 293.724 61.12C293.228 61.12 292.816 61.028 292.488 60.844C292.168 60.66 291.916 60.44 291.732 60.184H291.66C291.668 60.32 291.68 60.492 291.696 60.7C291.72 60.908 291.732 61.088 291.732 61.24V63.88H290.676V54.568H291.54L291.684 55.444H291.732C291.924 55.164 292.176 54.928 292.488 54.736C292.8 54.544 293.216 54.448 293.736 54.448ZM293.544 55.336C292.888 55.336 292.424 55.52 292.152 55.888C291.88 56.256 291.74 56.816 291.732 57.568V57.772C291.732 58.564 291.86 59.176 292.116 59.608C292.38 60.032 292.864 60.244 293.568 60.244C293.952 60.244 294.272 60.14 294.528 59.932C294.784 59.716 294.972 59.42 295.092 59.044C295.22 58.668 295.284 58.24 295.284 57.76C295.284 57.024 295.14 56.436 294.852 55.996C294.572 55.556 294.136 55.336 293.544 55.336ZM300.543 54.448C301.087 54.448 301.559 54.568 301.959 54.808C302.359 55.048 302.663 55.388 302.871 55.828C303.087 56.26 303.195 56.768 303.195 57.352V57.988H298.791C298.807 58.716 298.991 59.272 299.343 59.656C299.703 60.032 300.203 60.22 300.843 60.22C301.251 60.22 301.611 60.184 301.923 60.112C302.243 60.032 302.571 59.92 302.907 59.776V60.7C302.579 60.844 302.255 60.948 301.935 61.012C301.615 61.084 301.235 61.12 300.795 61.12C300.179 61.12 299.639 60.996 299.175 60.748C298.711 60.5 298.347 60.132 298.083 59.644C297.827 59.156 297.699 58.552 297.699 57.832C297.699 57.128 297.815 56.524 298.047 56.02C298.287 55.516 298.619 55.128 299.043 54.856C299.475 54.584 299.975 54.448 300.543 54.448ZM300.531 55.312C300.027 55.312 299.627 55.476 299.331 55.804C299.043 56.124 298.871 56.572 298.815 57.148H302.091C302.083 56.604 301.955 56.164 301.707 55.828C301.459 55.484 301.067 55.312 300.531 55.312ZM307.269 54.46C308.053 54.46 308.633 54.632 309.009 54.976C309.385 55.32 309.573 55.868 309.573 56.62V61H308.805L308.601 60.088H308.553C308.273 60.44 307.977 60.7 307.665 60.868C307.353 61.036 306.929 61.12 306.393 61.12C305.809 61.12 305.325 60.968 304.941 60.664C304.557 60.352 304.365 59.868 304.365 59.212C304.365 58.572 304.617 58.08 305.121 57.736C305.625 57.384 306.401 57.192 307.449 57.16L308.541 57.124V56.74C308.541 56.204 308.425 55.832 308.193 55.624C307.961 55.416 307.633 55.312 307.209 55.312C306.873 55.312 306.553 55.364 306.249 55.468C305.945 55.564 305.661 55.676 305.396 55.804L305.073 55.012C305.353 54.86 305.685 54.732 306.069 54.628C306.453 54.516 306.853 54.46 307.269 54.46ZM308.529 57.856L307.581 57.892C306.781 57.924 306.225 58.052 305.913 58.276C305.609 58.5 305.457 58.816 305.457 59.224C305.457 59.584 305.565 59.848 305.781 60.016C306.005 60.184 306.289 60.268 306.633 60.268C307.169 60.268 307.617 60.12 307.977 59.824C308.345 59.52 308.529 59.056 308.529 58.432V57.856ZM314.559 54.448C314.679 54.448 314.807 54.456 314.943 54.472C315.079 54.48 315.203 54.496 315.315 54.52L315.183 55.492C315.079 55.468 314.963 55.448 314.835 55.432C314.707 55.416 314.591 55.408 314.487 55.408C314.159 55.408 313.851 55.5 313.563 55.684C313.275 55.86 313.043 56.112 312.867 56.44C312.699 56.76 312.615 57.136 312.615 57.568V61H311.559V54.568H312.423L312.543 55.744H312.591C312.791 55.392 313.055 55.088 313.383 54.832C313.719 54.576 314.111 54.448 314.559 54.448ZM320.704 59.224C320.704 59.848 320.472 60.32 320.008 60.64C319.544 60.96 318.92 61.12 318.136 61.12C317.688 61.12 317.3 61.084 316.972 61.012C316.652 60.94 316.368 60.84 316.12 60.712V59.752C316.376 59.88 316.684 60 317.044 60.112C317.412 60.216 317.784 60.268 318.16 60.268C318.696 60.268 319.084 60.184 319.324 60.016C319.564 59.84 319.684 59.608 319.684 59.32C319.684 59.16 319.64 59.016 319.552 58.888C319.464 58.76 319.304 58.632 319.072 58.504C318.848 58.376 318.524 58.232 318.1 58.072C317.684 57.912 317.328 57.752 317.032 57.592C316.736 57.432 316.508 57.24 316.348 57.016C316.188 56.792 316.108 56.504 316.108 56.152C316.108 55.608 316.328 55.188 316.768 54.892C317.216 54.596 317.8 54.448 318.52 54.448C318.912 54.448 319.276 54.488 319.612 54.568C319.956 54.648 320.276 54.752 320.572 54.88L320.212 55.72C319.94 55.608 319.656 55.512 319.36 55.432C319.064 55.352 318.76 55.312 318.448 55.312C318.016 55.312 317.684 55.384 317.452 55.528C317.228 55.664 317.116 55.852 317.116 56.092C317.116 56.276 317.168 56.428 317.272 56.548C317.376 56.668 317.548 56.788 317.788 56.908C318.036 57.028 318.364 57.164 318.772 57.316C319.18 57.468 319.528 57.624 319.816 57.784C320.104 57.944 320.324 58.14 320.476 58.372C320.628 58.596 320.704 58.88 320.704 59.224ZM330.967 57.772C330.967 58.836 330.695 59.66 330.151 60.244C329.615 60.828 328.887 61.12 327.967 61.12C327.399 61.12 326.891 60.992 326.443 60.736C326.003 60.472 325.655 60.092 325.399 59.596C325.143 59.092 325.015 58.484 325.015 57.772C325.015 56.708 325.279 55.888 325.807 55.312C326.343 54.736 327.075 54.448 328.003 54.448C328.579 54.448 329.091 54.58 329.539 54.844C329.987 55.1 330.335 55.476 330.583 55.972C330.839 56.46 330.967 57.06 330.967 57.772ZM326.107 57.772C326.107 58.532 326.255 59.136 326.551 59.584C326.855 60.024 327.335 60.244 327.991 60.244C328.639 60.244 329.115 60.024 329.419 59.584C329.723 59.136 329.875 58.532 329.875 57.772C329.875 57.012 329.723 56.416 329.419 55.984C329.115 55.552 328.635 55.336 327.979 55.336C327.323 55.336 326.847 55.552 326.551 55.984C326.255 56.416 326.107 57.012 326.107 57.772ZM335.737 54.448C336.505 54.448 337.085 54.636 337.477 55.012C337.869 55.388 338.065 55.988 338.065 56.812V61H337.021V56.884C337.021 55.852 336.541 55.336 335.581 55.336C334.869 55.336 334.377 55.536 334.105 55.936C333.833 56.336 333.697 56.912 333.697 57.664V61H332.641V54.568H333.493L333.649 55.444H333.709C333.917 55.108 334.205 54.86 334.573 54.7C334.941 54.532 335.329 54.448 335.737 54.448ZM78.076 67.88V70.556C78.076 70.876 78.056 71.176 78.016 71.456H78.088C78.296 71.128 78.576 70.88 78.928 70.712C79.288 70.544 79.676 70.46 80.092 70.46C80.868 70.46 81.452 70.648 81.844 71.024C82.244 71.392 82.444 71.988 82.444 72.812V77H81.4V72.884C81.4 71.852 80.92 71.336 79.96 71.336C79.24 71.336 78.744 71.54 78.472 71.948C78.208 72.348 78.076 72.924 78.076 73.676V77H77.02V67.88H78.076ZM90.03 73.772C90.03 74.836 89.758 75.66 89.214 76.244C88.678 76.828 87.95 77.12 87.03 77.12C86.462 77.12 85.954 76.992 85.506 76.736C85.066 76.472 84.718 76.092 84.462 75.596C84.206 75.092 84.078 74.484 84.078 73.772C84.078 72.708 84.342 71.888 84.87 71.312C85.406 70.736 86.138 70.448 87.066 70.448C87.642 70.448 88.154 70.58 88.602 70.844C89.05 71.1 89.398 71.476 89.646 71.972C89.902 72.46 90.03 73.06 90.03 73.772ZM85.17 73.772C85.17 74.532 85.318 75.136 85.614 75.584C85.918 76.024 86.398 76.244 87.054 76.244C87.702 76.244 88.178 76.024 88.482 75.584C88.786 75.136 88.938 74.532 88.938 73.772C88.938 73.012 88.786 72.416 88.482 71.984C88.178 71.552 87.698 71.336 87.042 71.336C86.386 71.336 85.91 71.552 85.614 71.984C85.318 72.416 85.17 73.012 85.17 73.772ZM92.8852 77L90.4492 70.568H91.5772L92.9452 74.36C93.0092 74.536 93.0772 74.732 93.1492 74.948C93.2212 75.164 93.2852 75.372 93.3412 75.572C93.3972 75.772 93.4372 75.936 93.4612 76.064H93.5092C93.5332 75.936 93.5772 75.772 93.6412 75.572C93.7052 75.364 93.7732 75.156 93.8452 74.948C93.9172 74.732 93.9852 74.536 94.0492 74.36L95.4172 70.568H96.5452L94.0972 77H92.8852ZM100.047 70.448C100.591 70.448 101.063 70.568 101.463 70.808C101.863 71.048 102.167 71.388 102.375 71.828C102.591 72.26 102.699 72.768 102.699 73.352V73.988H98.295C98.311 74.716 98.495 75.272 98.847 75.656C99.207 76.032 99.707 76.22 100.347 76.22C100.755 76.22 101.115 76.184 101.427 76.112C101.747 76.032 102.075 75.92 102.411 75.776V76.7C102.083 76.844 101.759 76.948 101.439 77.012C101.119 77.084 100.739 77.12 100.299 77.12C99.683 77.12 99.143 76.996 98.679 76.748C98.215 76.5 97.851 76.132 97.587 75.644C97.331 75.156 97.203 74.552 97.203 73.832C97.203 73.128 97.319 72.524 97.551 72.02C97.791 71.516 98.123 71.128 98.547 70.856C98.979 70.584 99.479 70.448 100.047 70.448ZM100.035 71.312C99.531 71.312 99.131 71.476 98.835 71.804C98.547 72.124 98.375 72.572 98.319 73.148H101.595C101.587 72.604 101.459 72.164 101.211 71.828C100.963 71.484 100.571 71.312 100.035 71.312ZM107.336 70.448C107.456 70.448 107.584 70.456 107.72 70.472C107.856 70.48 107.98 70.496 108.092 70.52L107.96 71.492C107.856 71.468 107.74 71.448 107.612 71.432C107.484 71.416 107.368 71.408 107.264 71.408C106.936 71.408 106.628 71.5 106.34 71.684C106.052 71.86 105.82 72.112 105.644 72.44C105.476 72.76 105.392 73.136 105.392 73.568V77H104.336V70.568H105.2L105.32 71.744H105.368C105.568 71.392 105.832 71.088 106.16 70.832C106.496 70.576 106.888 70.448 107.336 70.448ZM118.003 73.772C118.003 74.836 117.731 75.66 117.187 76.244C116.651 76.828 115.923 77.12 115.003 77.12C114.435 77.12 113.927 76.992 113.479 76.736C113.039 76.472 112.691 76.092 112.435 75.596C112.179 75.092 112.051 74.484 112.051 73.772C112.051 72.708 112.315 71.888 112.843 71.312C113.379 70.736 114.111 70.448 115.039 70.448C115.615 70.448 116.127 70.58 116.575 70.844C117.023 71.1 117.371 71.476 117.619 71.972C117.875 72.46 118.003 73.06 118.003 73.772ZM113.143 73.772C113.143 74.532 113.291 75.136 113.587 75.584C113.891 76.024 114.371 76.244 115.027 76.244C115.675 76.244 116.151 76.024 116.455 75.584C116.759 75.136 116.911 74.532 116.911 73.772C116.911 73.012 116.759 72.416 116.455 71.984C116.151 71.552 115.671 71.336 115.015 71.336C114.359 71.336 113.883 71.552 113.587 71.984C113.291 72.416 113.143 73.012 113.143 73.772ZM122.676 70.448C122.796 70.448 122.924 70.456 123.06 70.472C123.196 70.48 123.32 70.496 123.432 70.52L123.3 71.492C123.196 71.468 123.08 71.448 122.952 71.432C122.824 71.416 122.708 71.408 122.604 71.408C122.276 71.408 121.968 71.5 121.68 71.684C121.392 71.86 121.16 72.112 120.984 72.44C120.816 72.76 120.732 73.136 120.732 73.568V77H119.676V70.568H120.54L120.66 71.744H120.708C120.908 71.392 121.172 71.088 121.5 70.832C121.836 70.576 122.228 70.448 122.676 70.448ZM130.714 71.384H129.094V77H128.038V71.384H126.91V70.892L128.038 70.532V70.16C128.038 69.328 128.218 68.732 128.578 68.372C128.946 68.004 129.462 67.82 130.126 67.82C130.374 67.82 130.606 67.844 130.822 67.892C131.038 67.932 131.222 67.98 131.374 68.036L131.098 68.864C130.97 68.824 130.822 68.784 130.654 68.744C130.486 68.704 130.314 68.684 130.138 68.684C129.786 68.684 129.522 68.804 129.346 69.044C129.178 69.276 129.094 69.644 129.094 70.148V70.568H130.714V71.384ZM137.467 73.772C137.467 74.836 137.195 75.66 136.651 76.244C136.115 76.828 135.387 77.12 134.467 77.12C133.899 77.12 133.391 76.992 132.943 76.736C132.503 76.472 132.155 76.092 131.899 75.596C131.643 75.092 131.515 74.484 131.515 73.772C131.515 72.708 131.779 71.888 132.307 71.312C132.843 70.736 133.575 70.448 134.503 70.448C135.079 70.448 135.591 70.58 136.039 70.844C136.487 71.1 136.835 71.476 137.083 71.972C137.339 72.46 137.467 73.06 137.467 73.772ZM132.607 73.772C132.607 74.532 132.755 75.136 133.051 75.584C133.355 76.024 133.835 76.244 134.491 76.244C135.139 76.244 135.615 76.024 135.919 75.584C136.223 75.136 136.375 74.532 136.375 73.772C136.375 73.012 136.223 72.416 135.919 71.984C135.615 71.552 135.135 71.336 134.479 71.336C133.823 71.336 133.347 71.552 133.051 71.984C132.755 72.416 132.607 73.012 132.607 73.772ZM141.721 77.12C141.145 77.12 140.637 77.004 140.197 76.772C139.757 76.54 139.409 76.18 139.153 75.692C138.905 75.204 138.781 74.58 138.781 73.82C138.781 73.028 138.909 72.384 139.165 71.888C139.429 71.392 139.789 71.028 140.245 70.796C140.701 70.564 141.217 70.448 141.793 70.448C142.113 70.448 142.425 70.484 142.729 70.556C143.041 70.62 143.293 70.7 143.485 70.796L143.161 71.672C142.969 71.6 142.745 71.532 142.489 71.468C142.233 71.404 141.993 71.372 141.769 71.372C140.505 71.372 139.873 72.184 139.873 73.808C139.873 74.584 140.025 75.18 140.329 75.596C140.641 76.004 141.101 76.208 141.709 76.208C142.053 76.208 142.361 76.172 142.633 76.1C142.905 76.028 143.153 75.94 143.377 75.836V76.772C143.161 76.884 142.921 76.968 142.657 77.024C142.401 77.088 142.089 77.12 141.721 77.12ZM150.283 70.568V77H149.419L149.263 76.148H149.215C149.007 76.484 148.719 76.732 148.351 76.892C147.983 77.044 147.591 77.12 147.175 77.12C146.399 77.12 145.815 76.936 145.423 76.568C145.031 76.192 144.835 75.596 144.835 74.78V70.568H145.903V74.708C145.903 75.732 146.379 76.244 147.331 76.244C148.043 76.244 148.535 76.044 148.807 75.644C149.087 75.244 149.227 74.668 149.227 73.916V70.568H150.283ZM156.513 75.224C156.513 75.848 156.281 76.32 155.817 76.64C155.353 76.96 154.729 77.12 153.945 77.12C153.497 77.12 153.109 77.084 152.781 77.012C152.461 76.94 152.177 76.84 151.929 76.712V75.752C152.185 75.88 152.493 76 152.853 76.112C153.221 76.216 153.593 76.268 153.969 76.268C154.505 76.268 154.893 76.184 155.133 76.016C155.373 75.84 155.493 75.608 155.493 75.32C155.493 75.16 155.449 75.016 155.361 74.888C155.273 74.76 155.113 74.632 154.881 74.504C154.657 74.376 154.333 74.232 153.909 74.072C153.493 73.912 153.137 73.752 152.841 73.592C152.545 73.432 152.317 73.24 152.157 73.016C151.997 72.792 151.917 72.504 151.917 72.152C151.917 71.608 152.137 71.188 152.577 70.892C153.025 70.596 153.609 70.448 154.329 70.448C154.721 70.448 155.085 70.488 155.421 70.568C155.765 70.648 156.085 70.752 156.381 70.88L156.021 71.72C155.749 71.608 155.465 71.512 155.169 71.432C154.873 71.352 154.569 71.312 154.257 71.312C153.825 71.312 153.493 71.384 153.261 71.528C153.037 71.664 152.925 71.852 152.925 72.092C152.925 72.276 152.977 72.428 153.081 72.548C153.185 72.668 153.357 72.788 153.597 72.908C153.845 73.028 154.173 73.164 154.581 73.316C154.989 73.468 155.337 73.624 155.625 73.784C155.913 73.944 156.133 74.14 156.285 74.372C156.437 74.596 156.513 74.88 156.513 75.224ZM157.911 76.352C157.911 76.056 157.983 75.848 158.127 75.728C158.271 75.608 158.443 75.548 158.643 75.548C158.843 75.548 159.019 75.608 159.171 75.728C159.323 75.848 159.399 76.056 159.399 76.352C159.399 76.64 159.323 76.848 159.171 76.976C159.019 77.104 158.843 77.168 158.643 77.168C158.443 77.168 158.271 77.104 158.127 76.976C157.983 76.848 157.911 76.64 157.911 76.352ZM166.543 76.256C166.703 76.256 166.867 76.244 167.035 76.22C167.203 76.196 167.339 76.164 167.443 76.124V76.928C167.331 76.984 167.171 77.028 166.963 77.06C166.755 77.1 166.555 77.12 166.363 77.12C166.027 77.12 165.715 77.064 165.427 76.952C165.147 76.832 164.919 76.628 164.743 76.34C164.567 76.052 164.479 75.648 164.479 75.128V71.384H163.567V70.88L164.491 70.46L164.911 69.092H165.535V70.568H167.395V71.384H165.535V75.104C165.535 75.496 165.627 75.788 165.811 75.98C166.003 76.164 166.247 76.256 166.543 76.256ZM174.323 73.772C174.323 74.836 174.051 75.66 173.507 76.244C172.971 76.828 172.243 77.12 171.323 77.12C170.755 77.12 170.247 76.992 169.799 76.736C169.359 76.472 169.011 76.092 168.755 75.596C168.499 75.092 168.371 74.484 168.371 73.772C168.371 72.708 168.635 71.888 169.163 71.312C169.699 70.736 170.431 70.448 171.359 70.448C171.935 70.448 172.447 70.58 172.895 70.844C173.343 71.1 173.691 71.476 173.939 71.972C174.195 72.46 174.323 73.06 174.323 73.772ZM169.463 73.772C169.463 74.532 169.611 75.136 169.907 75.584C170.211 76.024 170.691 76.244 171.347 76.244C171.995 76.244 172.471 76.024 172.775 75.584C173.079 75.136 173.231 74.532 173.231 73.772C173.231 73.012 173.079 72.416 172.775 71.984C172.471 71.552 171.991 71.336 171.335 71.336C170.679 71.336 170.203 71.552 169.907 71.984C169.611 72.416 169.463 73.012 169.463 73.772ZM180.17 67.88V70.556C180.17 70.876 180.15 71.176 180.11 71.456H180.182C180.39 71.128 180.67 70.88 181.022 70.712C181.382 70.544 181.77 70.46 182.186 70.46C182.962 70.46 183.546 70.648 183.938 71.024C184.338 71.392 184.538 71.988 184.538 72.812V77H183.494V72.884C183.494 71.852 183.014 71.336 182.054 71.336C181.334 71.336 180.838 71.54 180.566 71.948C180.302 72.348 180.17 72.924 180.17 73.676V77H179.114V67.88H180.17ZM189.016 70.448C189.56 70.448 190.032 70.568 190.432 70.808C190.832 71.048 191.136 71.388 191.344 71.828C191.56 72.26 191.668 72.768 191.668 73.352V73.988H187.264C187.28 74.716 187.464 75.272 187.816 75.656C188.176 76.032 188.676 76.22 189.316 76.22C189.724 76.22 190.084 76.184 190.396 76.112C190.716 76.032 191.044 75.92 191.38 75.776V76.7C191.052 76.844 190.728 76.948 190.408 77.012C190.088 77.084 189.708 77.12 189.268 77.12C188.652 77.12 188.112 76.996 187.648 76.748C187.184 76.5 186.82 76.132 186.556 75.644C186.3 75.156 186.172 74.552 186.172 73.832C186.172 73.128 186.288 72.524 186.52 72.02C186.76 71.516 187.092 71.128 187.516 70.856C187.948 70.584 188.448 70.448 189.016 70.448ZM189.004 71.312C188.5 71.312 188.1 71.476 187.804 71.804C187.516 72.124 187.344 72.572 187.288 73.148H190.564C190.556 72.604 190.428 72.164 190.18 71.828C189.932 71.484 189.54 71.312 189.004 71.312ZM194.361 77H193.305V67.88H194.361V77ZM199.459 70.448C200.251 70.448 200.887 70.724 201.367 71.276C201.855 71.828 202.099 72.66 202.099 73.772C202.099 74.868 201.855 75.7 201.367 76.268C200.887 76.836 200.247 77.12 199.447 77.12C198.951 77.12 198.539 77.028 198.211 76.844C197.891 76.66 197.639 76.44 197.455 76.184H197.383C197.391 76.32 197.403 76.492 197.419 76.7C197.443 76.908 197.455 77.088 197.455 77.24V79.88H196.399V70.568H197.263L197.407 71.444H197.455C197.647 71.164 197.899 70.928 198.211 70.736C198.523 70.544 198.939 70.448 199.459 70.448ZM199.267 71.336C198.611 71.336 198.147 71.52 197.875 71.888C197.603 72.256 197.463 72.816 197.455 73.568V73.772C197.455 74.564 197.583 75.176 197.839 75.608C198.103 76.032 198.587 76.244 199.291 76.244C199.675 76.244 199.995 76.14 200.251 75.932C200.507 75.716 200.695 75.42 200.815 75.044C200.943 74.668 201.007 74.24 201.007 73.76C201.007 73.024 200.863 72.436 200.575 71.996C200.295 71.556 199.859 71.336 199.267 71.336ZM212.275 70.568V77H211.411L211.255 76.148H211.207C210.999 76.484 210.711 76.732 210.343 76.892C209.975 77.044 209.583 77.12 209.167 77.12C208.391 77.12 207.807 76.936 207.415 76.568C207.023 76.192 206.827 75.596 206.827 74.78V70.568H207.895V74.708C207.895 75.732 208.371 76.244 209.323 76.244C210.035 76.244 210.527 76.044 210.799 75.644C211.079 75.244 211.219 74.668 211.219 73.916V70.568H212.275ZM218.505 75.224C218.505 75.848 218.273 76.32 217.809 76.64C217.345 76.96 216.721 77.12 215.937 77.12C215.489 77.12 215.101 77.084 214.773 77.012C214.453 76.94 214.169 76.84 213.921 76.712V75.752C214.177 75.88 214.485 76 214.845 76.112C215.213 76.216 215.585 76.268 215.961 76.268C216.497 76.268 216.885 76.184 217.125 76.016C217.365 75.84 217.485 75.608 217.485 75.32C217.485 75.16 217.441 75.016 217.353 74.888C217.265 74.76 217.105 74.632 216.873 74.504C216.649 74.376 216.325 74.232 215.901 74.072C215.485 73.912 215.129 73.752 214.833 73.592C214.537 73.432 214.309 73.24 214.149 73.016C213.989 72.792 213.909 72.504 213.909 72.152C213.909 71.608 214.129 71.188 214.569 70.892C215.017 70.596 215.601 70.448 216.321 70.448C216.713 70.448 217.077 70.488 217.413 70.568C217.757 70.648 218.077 70.752 218.373 70.88L218.013 71.72C217.741 71.608 217.457 71.512 217.161 71.432C216.865 71.352 216.561 71.312 216.249 71.312C215.817 71.312 215.485 71.384 215.253 71.528C215.029 71.664 214.917 71.852 214.917 72.092C214.917 72.276 214.969 72.428 215.073 72.548C215.177 72.668 215.349 72.788 215.589 72.908C215.837 73.028 216.165 73.164 216.573 73.316C216.981 73.468 217.329 73.624 217.617 73.784C217.905 73.944 218.125 74.14 218.277 74.372C218.429 74.596 218.505 74.88 218.505 75.224ZM222.543 70.448C223.087 70.448 223.559 70.568 223.959 70.808C224.359 71.048 224.663 71.388 224.871 71.828C225.087 72.26 225.195 72.768 225.195 73.352V73.988H220.791C220.807 74.716 220.991 75.272 221.343 75.656C221.703 76.032 222.203 76.22 222.843 76.22C223.251 76.22 223.611 76.184 223.923 76.112C224.243 76.032 224.571 75.92 224.907 75.776V76.7C224.579 76.844 224.255 76.948 223.935 77.012C223.615 77.084 223.235 77.12 222.795 77.12C222.179 77.12 221.639 76.996 221.175 76.748C220.711 76.5 220.347 76.132 220.083 75.644C219.827 75.156 219.699 74.552 219.699 73.832C219.699 73.128 219.815 72.524 220.047 72.02C220.287 71.516 220.619 71.128 221.043 70.856C221.475 70.584 221.975 70.448 222.543 70.448ZM222.531 71.312C222.027 71.312 221.627 71.476 221.331 71.804C221.043 72.124 220.871 72.572 220.815 73.148H224.091C224.083 72.604 223.955 72.164 223.707 71.828C223.459 71.484 223.067 71.312 222.531 71.312ZM229.833 70.448C229.953 70.448 230.081 70.456 230.217 70.472C230.353 70.48 230.477 70.496 230.589 70.52L230.457 71.492C230.353 71.468 230.237 71.448 230.109 71.432C229.981 71.416 229.865 71.408 229.761 71.408C229.433 71.408 229.125 71.5 228.837 71.684C228.549 71.86 228.317 72.112 228.141 72.44C227.973 72.76 227.889 73.136 227.889 73.568V77H226.833V70.568H227.697L227.817 71.744H227.865C228.065 71.392 228.329 71.088 228.657 70.832C228.993 70.576 229.385 70.448 229.833 70.448ZM235.978 75.224C235.978 75.848 235.746 76.32 235.282 76.64C234.818 76.96 234.194 77.12 233.41 77.12C232.962 77.12 232.574 77.084 232.246 77.012C231.926 76.94 231.642 76.84 231.394 76.712V75.752C231.65 75.88 231.958 76 232.318 76.112C232.686 76.216 233.058 76.268 233.434 76.268C233.97 76.268 234.358 76.184 234.598 76.016C234.838 75.84 234.958 75.608 234.958 75.32C234.958 75.16 234.914 75.016 234.826 74.888C234.738 74.76 234.578 74.632 234.346 74.504C234.122 74.376 233.798 74.232 233.374 74.072C232.958 73.912 232.602 73.752 232.306 73.592C232.01 73.432 231.782 73.24 231.622 73.016C231.462 72.792 231.382 72.504 231.382 72.152C231.382 71.608 231.602 71.188 232.042 70.892C232.49 70.596 233.074 70.448 233.794 70.448C234.186 70.448 234.55 70.488 234.886 70.568C235.23 70.648 235.55 70.752 235.846 70.88L235.486 71.72C235.214 71.608 234.93 71.512 234.634 71.432C234.338 71.352 234.034 71.312 233.722 71.312C233.29 71.312 232.958 71.384 232.726 71.528C232.502 71.664 232.39 71.852 232.39 72.092C232.39 72.276 232.442 72.428 232.546 72.548C232.65 72.668 232.822 72.788 233.062 72.908C233.31 73.028 233.638 73.164 234.046 73.316C234.454 73.468 234.802 73.624 235.09 73.784C235.378 73.944 235.598 74.14 235.75 74.372C235.902 74.596 235.978 74.88 235.978 75.224ZM245.905 76.988L244.801 73.364C244.697 73.036 244.605 72.716 244.525 72.404C244.445 72.092 244.389 71.844 244.357 71.66H244.309C244.277 71.844 244.225 72.092 244.153 72.404C244.081 72.716 243.989 73.04 243.877 73.376L242.725 76.988H241.525L239.761 70.556H240.853L241.741 73.988C241.829 74.332 241.913 74.68 241.993 75.032C242.073 75.384 242.129 75.676 242.161 75.908H242.209C242.233 75.772 242.269 75.604 242.317 75.404C242.365 75.204 242.417 74.996 242.473 74.78C242.529 74.556 242.585 74.356 242.641 74.18L243.781 70.556H244.933L246.037 74.18C246.117 74.46 246.201 74.76 246.289 75.08C246.377 75.4 246.437 75.672 246.469 75.896H246.517C246.541 75.696 246.593 75.42 246.673 75.068C246.761 74.716 246.853 74.356 246.949 73.988L247.849 70.556H248.929L247.141 76.988H245.905ZM250.623 68.156C250.783 68.156 250.923 68.212 251.043 68.324C251.171 68.428 251.235 68.596 251.235 68.828C251.235 69.06 251.171 69.232 251.043 69.344C250.923 69.448 250.783 69.5 250.623 69.5C250.447 69.5 250.299 69.448 250.179 69.344C250.059 69.232 249.999 69.06 249.999 68.828C249.999 68.596 250.059 68.428 250.179 68.324C250.299 68.212 250.447 68.156 250.623 68.156ZM251.139 70.568V77H250.083V70.568H251.139ZM255.324 76.256C255.484 76.256 255.648 76.244 255.816 76.22C255.984 76.196 256.12 76.164 256.224 76.124V76.928C256.112 76.984 255.952 77.028 255.744 77.06C255.536 77.1 255.336 77.12 255.144 77.12C254.808 77.12 254.496 77.064 254.208 76.952C253.928 76.832 253.7 76.628 253.524 76.34C253.348 76.052 253.26 75.648 253.26 75.128V71.384H252.348V70.88L253.272 70.46L253.692 69.092H254.316V70.568H256.176V71.384H254.316V75.104C254.316 75.496 254.408 75.788 254.592 75.98C254.784 76.164 255.028 76.256 255.324 76.256ZM258.568 67.88V70.556C258.568 70.876 258.548 71.176 258.508 71.456H258.58C258.788 71.128 259.068 70.88 259.42 70.712C259.78 70.544 260.168 70.46 260.584 70.46C261.36 70.46 261.944 70.648 262.336 71.024C262.736 71.392 262.936 71.988 262.936 72.812V77H261.892V72.884C261.892 71.852 261.412 71.336 260.452 71.336C259.732 71.336 259.236 71.54 258.964 71.948C258.7 72.348 258.568 72.924 258.568 73.676V77H257.512V67.88H258.568ZM270.483 70.46C271.267 70.46 271.847 70.632 272.223 70.976C272.599 71.32 272.787 71.868 272.787 72.62V77H272.019L271.815 76.088H271.767C271.487 76.44 271.191 76.7 270.879 76.868C270.567 77.036 270.143 77.12 269.607 77.12C269.023 77.12 268.539 76.968 268.155 76.664C267.771 76.352 267.579 75.868 267.579 75.212C267.579 74.572 267.831 74.08 268.335 73.736C268.839 73.384 269.615 73.192 270.663 73.16L271.755 73.124V72.74C271.755 72.204 271.639 71.832 271.407 71.624C271.175 71.416 270.847 71.312 270.423 71.312C270.087 71.312 269.767 71.364 269.463 71.468C269.159 71.564 268.875 71.676 268.611 71.804L268.287 71.012C268.567 70.86 268.899 70.732 269.283 70.628C269.667 70.516 270.067 70.46 270.483 70.46ZM271.743 73.856L270.795 73.892C269.995 73.924 269.439 74.052 269.127 74.276C268.823 74.5 268.671 74.816 268.671 75.224C268.671 75.584 268.779 75.848 268.995 76.016C269.219 76.184 269.503 76.268 269.847 76.268C270.383 76.268 270.831 76.12 271.191 75.824C271.559 75.52 271.743 75.056 271.743 74.432V73.856ZM277.87 70.448C278.638 70.448 279.218 70.636 279.61 71.012C280.002 71.388 280.198 71.988 280.198 72.812V77H279.154V72.884C279.154 71.852 278.674 71.336 277.714 71.336C277.002 71.336 276.51 71.536 276.238 71.936C275.966 72.336 275.83 72.912 275.83 73.664V77H274.774V70.568H275.626L275.782 71.444H275.842C276.05 71.108 276.338 70.86 276.706 70.7C277.074 70.532 277.462 70.448 277.87 70.448ZM287.745 70.46C288.529 70.46 289.109 70.632 289.485 70.976C289.861 71.32 290.049 71.868 290.049 72.62V77H289.281L289.077 76.088H289.029C288.749 76.44 288.453 76.7 288.141 76.868C287.829 77.036 287.405 77.12 286.869 77.12C286.285 77.12 285.801 76.968 285.417 76.664C285.033 76.352 284.841 75.868 284.841 75.212C284.841 74.572 285.093 74.08 285.597 73.736C286.101 73.384 286.877 73.192 287.925 73.16L289.017 73.124V72.74C289.017 72.204 288.901 71.832 288.669 71.624C288.437 71.416 288.109 71.312 287.685 71.312C287.349 71.312 287.029 71.364 286.725 71.468C286.421 71.564 286.137 71.676 285.873 71.804L285.549 71.012C285.829 70.86 286.161 70.732 286.545 70.628C286.929 70.516 287.329 70.46 287.745 70.46ZM289.005 73.856L288.057 73.892C287.257 73.924 286.701 74.052 286.389 74.276C286.085 74.5 285.933 74.816 285.933 75.224C285.933 75.584 286.041 75.848 286.257 76.016C286.481 76.184 286.765 76.268 287.109 76.268C287.645 76.268 288.093 76.12 288.453 75.824C288.821 75.52 289.005 75.056 289.005 74.432V73.856ZM294.616 77.12C294.04 77.12 293.532 77.004 293.092 76.772C292.652 76.54 292.304 76.18 292.048 75.692C291.8 75.204 291.676 74.58 291.676 73.82C291.676 73.028 291.804 72.384 292.06 71.888C292.324 71.392 292.684 71.028 293.14 70.796C293.596 70.564 294.112 70.448 294.688 70.448C295.008 70.448 295.32 70.484 295.624 70.556C295.936 70.62 296.188 70.7 296.38 70.796L296.056 71.672C295.864 71.6 295.64 71.532 295.384 71.468C295.128 71.404 294.888 71.372 294.664 71.372C293.4 71.372 292.768 72.184 292.768 73.808C292.768 74.584 292.92 75.18 293.224 75.596C293.536 76.004 293.996 76.208 294.604 76.208C294.948 76.208 295.256 76.172 295.528 76.1C295.8 76.028 296.048 75.94 296.272 75.836V76.772C296.056 76.884 295.816 76.968 295.552 77.024C295.296 77.088 294.984 77.12 294.616 77.12ZM299.949 76.256C300.109 76.256 300.273 76.244 300.441 76.22C300.609 76.196 300.745 76.164 300.849 76.124V76.928C300.737 76.984 300.577 77.028 300.369 77.06C300.161 77.1 299.961 77.12 299.769 77.12C299.433 77.12 299.121 77.064 298.833 76.952C298.553 76.832 298.325 76.628 298.149 76.34C297.973 76.052 297.885 75.648 297.885 75.128V71.384H296.973V70.88L297.897 70.46L298.317 69.092H298.941V70.568H300.801V71.384H298.941V75.104C298.941 75.496 299.033 75.788 299.217 75.98C299.409 76.164 299.653 76.256 299.949 76.256ZM302.677 68.156C302.837 68.156 302.977 68.212 303.097 68.324C303.225 68.428 303.289 68.596 303.289 68.828C303.289 69.06 303.225 69.232 303.097 69.344C302.977 69.448 302.837 69.5 302.677 69.5C302.501 69.5 302.353 69.448 302.233 69.344C302.113 69.232 302.053 69.06 302.053 68.828C302.053 68.596 302.113 68.428 302.233 68.324C302.353 68.212 302.501 68.156 302.677 68.156ZM303.193 70.568V77H302.137V70.568H303.193ZM310.823 73.772C310.823 74.836 310.551 75.66 310.007 76.244C309.471 76.828 308.743 77.12 307.823 77.12C307.255 77.12 306.747 76.992 306.299 76.736C305.859 76.472 305.511 76.092 305.255 75.596C304.999 75.092 304.871 74.484 304.871 73.772C304.871 72.708 305.135 71.888 305.663 71.312C306.199 70.736 306.931 70.448 307.859 70.448C308.435 70.448 308.947 70.58 309.395 70.844C309.843 71.1 310.191 71.476 310.439 71.972C310.695 72.46 310.823 73.06 310.823 73.772ZM305.963 73.772C305.963 74.532 306.111 75.136 306.407 75.584C306.711 76.024 307.191 76.244 307.847 76.244C308.495 76.244 308.971 76.024 309.275 75.584C309.579 75.136 309.731 74.532 309.731 73.772C309.731 73.012 309.579 72.416 309.275 71.984C308.971 71.552 308.491 71.336 307.835 71.336C307.179 71.336 306.703 71.552 306.407 71.984C306.111 72.416 305.963 73.012 305.963 73.772ZM315.593 70.448C316.361 70.448 316.941 70.636 317.333 71.012C317.725 71.388 317.921 71.988 317.921 72.812V77H316.877V72.884C316.877 71.852 316.397 71.336 315.437 71.336C314.725 71.336 314.233 71.536 313.961 71.936C313.689 72.336 313.553 72.912 313.553 73.664V77H312.497V70.568H313.349L313.505 71.444H313.565C313.773 71.108 314.061 70.86 314.429 70.7C314.797 70.532 315.185 70.448 315.593 70.448ZM319.759 76.352C319.759 76.056 319.831 75.848 319.975 75.728C320.119 75.608 320.291 75.548 320.491 75.548C320.691 75.548 320.867 75.608 321.019 75.728C321.171 75.848 321.247 76.056 321.247 76.352C321.247 76.64 321.171 76.848 321.019 76.976C320.867 77.104 320.691 77.168 320.491 77.168C320.291 77.168 320.119 77.104 319.975 76.976C319.831 76.848 319.759 76.64 319.759 76.352Z" fill="white"/>
<path d="M207 88H221L214 95L207 88Z" fill="#323232"/>
<circle cx="12" cy="67" r="12" fill="#E60074"/>
<path d="M15.9421 72H9.09614V70.698L11.6441 68.122C12.1481 67.6087 12.5588 67.17 12.8761 66.806C13.2028 66.442 13.4408 66.1013 13.5901 65.784C13.7488 65.4573 13.8281 65.1073 13.8281 64.734C13.8281 64.2767 13.6975 63.936 13.4361 63.712C13.1841 63.4787 12.8388 63.362 12.4001 63.362C11.9801 63.362 11.5881 63.4507 11.2241 63.628C10.8601 63.796 10.4821 64.0387 10.0901 64.356L9.12414 63.194C9.53481 62.8393 9.99681 62.5313 10.5101 62.27C11.0328 61.9993 11.6955 61.864 12.4981 61.864C13.1421 61.864 13.6928 61.9807 14.1501 62.214C14.6168 62.438 14.9761 62.7553 15.2281 63.166C15.4801 63.5673 15.6061 64.0293 15.6061 64.552C15.6061 65.0933 15.4988 65.5927 15.2841 66.05C15.0695 66.498 14.7568 66.9507 14.3461 67.408C13.9448 67.856 13.4641 68.3413 12.9041 68.864L11.3221 70.39V70.474H15.9421V72Z" fill="white"/>
<path d="M24 67H58" stroke="#E60074"/>
<circle cx="214" cy="12" r="12" fill="#E60074"/>
<path d="M215.968 17H214.204V10.77C214.204 10.4713 214.209 10.154 214.218 9.818C214.227 9.482 214.241 9.16933 214.26 8.88C214.167 8.97333 214.05 9.08533 213.91 9.216C213.779 9.34667 213.635 9.47267 213.476 9.594L212.356 10.49L211.474 9.398L214.498 7.004H215.968V17Z" fill="white"/>
<path d="M214 24V40" stroke="#E60074"/>
<path d="M214 95V111" stroke="#E60074"/>
<circle cx="214" cy="123" r="12" fill="#E60074"/>
<path d="M217.55 120.286C217.55 120.967 217.349 121.513 216.948 121.924C216.556 122.325 216.047 122.596 215.422 122.736V122.778C216.225 122.881 216.831 123.133 217.242 123.534C217.653 123.935 217.858 124.463 217.858 125.116C217.858 125.695 217.718 126.213 217.438 126.67C217.158 127.127 216.724 127.487 216.136 127.748C215.557 128.009 214.811 128.14 213.896 128.14C213.345 128.14 212.837 128.093 212.37 128C211.913 127.916 211.479 127.781 211.068 127.594V126.04C211.488 126.255 211.936 126.418 212.412 126.53C212.888 126.642 213.336 126.698 213.756 126.698C214.568 126.698 215.142 126.553 215.478 126.264C215.814 125.965 215.982 125.555 215.982 125.032C215.982 124.537 215.786 124.169 215.394 123.926C215.002 123.683 214.349 123.562 213.434 123.562H212.594V122.148H213.448C214.335 122.148 214.946 122.003 215.282 121.714C215.618 121.425 215.786 121.051 215.786 120.594C215.786 120.193 215.655 119.88 215.394 119.656C215.133 119.432 214.741 119.32 214.218 119.32C213.714 119.32 213.28 119.404 212.916 119.572C212.552 119.731 212.225 119.903 211.936 120.09L211.096 118.872C211.479 118.592 211.931 118.354 212.454 118.158C212.977 117.962 213.593 117.864 214.302 117.864C215.338 117.864 216.136 118.083 216.696 118.522C217.265 118.961 217.55 119.549 217.55 120.286Z" fill="white"/>
<path d="M58 50V84" stroke="#E60074" stroke-width="2"/>
</svg>
