<svg width="269" height="110" viewBox="0 0 269 110" fill="none" xmlns="http://www.w3.org/2000/svg">
<rect width="269" height="110" fill="white"/>
<path d="M134.5 60.5C132.858 60.5047 131.231 60.1836 129.713 59.5554C128.196 58.9272 126.818 58.0042 125.66 56.84C125.591 56.7663 125.509 56.7072 125.417 56.6662C125.325 56.6252 125.225 56.6032 125.125 56.6014C125.024 56.5996 124.924 56.6182 124.83 56.6559C124.737 56.6936 124.652 56.7497 124.581 56.821C124.51 56.8922 124.454 56.977 124.416 57.0704C124.378 57.1638 124.36 57.2638 124.361 57.3645C124.363 57.4652 124.385 57.5645 124.426 57.6565C124.467 57.7485 124.526 57.8313 124.6 57.9C126.558 59.8578 129.053 61.191 131.768 61.7311C134.484 62.2712 137.299 61.9939 139.857 60.9342C142.415 59.8745 144.601 58.0801 146.14 55.7778C147.678 53.4756 148.499 50.7689 148.499 48C148.499 45.2311 147.678 42.5244 146.14 40.2222C144.601 37.9199 142.415 36.1255 139.857 35.0658C137.299 34.0062 134.484 33.7288 131.768 34.2689C129.053 34.809 126.558 36.1422 124.6 38.1C124.468 38.2422 124.395 38.4302 124.399 38.6245C124.402 38.8188 124.481 39.0042 124.618 39.1416C124.756 39.279 124.941 39.3578 125.136 39.3612C125.33 39.3646 125.518 39.2925 125.66 39.16C127.114 37.7068 128.903 36.6344 130.87 36.0379C132.837 35.4414 134.921 35.3392 136.937 35.7403C138.953 36.1414 140.839 37.0335 142.428 38.3375C144.017 39.6415 145.259 41.3172 146.046 43.2161C146.833 45.1151 147.139 47.1788 146.938 49.2244C146.736 51.27 146.034 53.2343 144.892 54.9435C143.75 56.6527 142.204 58.0539 140.392 59.0232C138.579 59.9924 136.556 60.4996 134.5 60.5Z" fill="black"/>
<path d="M72.5716 45.286C72.5716 45.9673 72.371 46.5133 71.9696 46.924C71.5776 47.3253 71.069 47.596 70.4436 47.736V47.778C71.2463 47.8807 71.853 48.1327 72.2636 48.534C72.6743 48.9353 72.8796 49.4627 72.8796 50.116C72.8796 50.6947 72.7396 51.2127 72.4596 51.67C72.1796 52.1273 71.7456 52.4867 71.1576 52.748C70.579 53.0093 69.8323 53.14 68.9176 53.14C68.367 53.14 67.8583 53.0933 67.3916 53C66.9343 52.916 66.5003 52.7807 66.0896 52.594V51.04C66.5096 51.2547 66.9576 51.418 67.4336 51.53C67.9096 51.642 68.3576 51.698 68.7776 51.698C69.5896 51.698 70.1636 51.5533 70.4996 51.264C70.8356 50.9653 71.0036 50.5547 71.0036 50.032C71.0036 49.5373 70.8076 49.1687 70.4156 48.926C70.0236 48.6833 69.3703 48.562 68.4556 48.562H67.6156V47.148H68.4696C69.3563 47.148 69.9676 47.0033 70.3036 46.714C70.6396 46.4247 70.8076 46.0513 70.8076 45.594C70.8076 45.1927 70.677 44.88 70.4156 44.656C70.1543 44.432 69.7623 44.32 69.2396 44.32C68.7356 44.32 68.3016 44.404 67.9376 44.572C67.5736 44.7307 67.247 44.9033 66.9576 45.09L66.1176 43.872C66.5003 43.592 66.953 43.354 67.4756 43.158C67.9983 42.962 68.6143 42.864 69.3236 42.864C70.3596 42.864 71.1576 43.0833 71.7176 43.522C72.287 43.9607 72.5716 44.5487 72.5716 45.286ZM80.9753 53H74.1293V51.698L76.6773 49.122C77.1813 48.6087 77.592 48.17 77.9093 47.806C78.236 47.442 78.474 47.1013 78.6233 46.784C78.782 46.4573 78.8613 46.1073 78.8613 45.734C78.8613 45.2767 78.7307 44.936 78.4693 44.712C78.2173 44.4787 77.872 44.362 77.4333 44.362C77.0133 44.362 76.6213 44.4507 76.2573 44.628C75.8933 44.796 75.5153 45.0387 75.1233 45.356L74.1573 44.194C74.568 43.8393 75.03 43.5313 75.5433 43.27C76.066 42.9993 76.7287 42.864 77.5313 42.864C78.1753 42.864 78.726 42.9807 79.1833 43.214C79.65 43.438 80.0093 43.7553 80.2613 44.166C80.5133 44.5673 80.6393 45.0293 80.6393 45.552C80.6393 46.0933 80.532 46.5927 80.3173 47.05C80.1027 47.498 79.79 47.9507 79.3793 48.408C78.978 48.856 78.4973 49.3413 77.9373 49.864L76.3553 51.39V51.474H80.9753V53ZM90.2998 45.272C91.1864 45.272 91.9004 45.6033 92.4418 46.266C92.9831 46.9193 93.2538 47.8947 93.2538 49.192C93.2538 50.4893 92.9738 51.474 92.4138 52.146C91.8631 52.8087 91.1444 53.14 90.2578 53.14C89.6978 53.14 89.2451 53.0373 88.8998 52.832C88.5544 52.6267 88.2791 52.3887 88.0738 52.118H87.9618C87.9898 52.2953 88.0131 52.4867 88.0318 52.692C88.0598 52.8973 88.0738 53.0933 88.0738 53.28V56.36H86.3098V45.412H87.7378L87.9898 46.42H88.0738C88.2884 46.1027 88.5684 45.832 88.9138 45.608C89.2591 45.384 89.7211 45.272 90.2998 45.272ZM89.7958 46.7C89.1704 46.7 88.7271 46.8867 88.4658 47.26C88.2138 47.6333 88.0831 48.198 88.0738 48.954V49.178C88.0738 49.99 88.1951 50.6153 88.4378 51.054C88.6898 51.4833 89.1518 51.698 89.8238 51.698C90.3744 51.698 90.7804 51.474 91.0418 51.026C91.3124 50.5687 91.4478 49.948 91.4478 49.164C91.4478 48.38 91.3124 47.7733 91.0418 47.344C90.7804 46.9147 90.3651 46.7 89.7958 46.7ZM96.438 49.122L93.932 45.412H95.934L97.586 47.988L99.238 45.412H101.24L98.706 49.122L101.366 53H99.364L97.586 50.242L95.808 53H93.806L96.438 49.122Z" fill="#E60074"/>
<path d="M113.5 32H105.5" stroke="#E60074"/>
<path d="M109.5 32L109.5 64" stroke="#E60074"/>
<path d="M113.5 64H105.5" stroke="#E60074"/>
<path d="M150.5 77L150.5 69" stroke="#E60074"/>
<path d="M150.5 73L118.5 73" stroke="#E60074"/>
<path d="M118.5 77L118.5 69" stroke="#E60074"/>
<path d="M123.564 84.286C123.564 84.9673 123.363 85.5133 122.962 85.924C122.57 86.3253 122.061 86.596 121.436 86.736V86.778C122.238 86.8807 122.845 87.1327 123.256 87.534C123.666 87.9353 123.872 88.4627 123.872 89.116C123.872 89.6947 123.732 90.2127 123.452 90.67C123.172 91.1273 122.738 91.4867 122.15 91.748C121.571 92.0093 120.824 92.14 119.91 92.14C119.359 92.14 118.85 92.0933 118.384 92C117.926 91.916 117.492 91.7807 117.082 91.594V90.04C117.502 90.2547 117.95 90.418 118.426 90.53C118.902 90.642 119.35 90.698 119.77 90.698C120.582 90.698 121.156 90.5533 121.492 90.264C121.828 89.9653 121.996 89.5547 121.996 89.032C121.996 88.5373 121.8 88.1687 121.408 87.926C121.016 87.6833 120.362 87.562 119.448 87.562H118.608V86.148H119.462C120.348 86.148 120.96 86.0033 121.296 85.714C121.632 85.4247 121.8 85.0513 121.8 84.594C121.8 84.1927 121.669 83.88 121.408 83.656C121.146 83.432 120.754 83.32 120.232 83.32C119.728 83.32 119.294 83.404 118.93 83.572C118.566 83.7307 118.239 83.9033 117.95 84.09L117.11 82.872C117.492 82.592 117.945 82.354 118.468 82.158C118.99 81.962 119.606 81.864 120.316 81.864C121.352 81.864 122.15 82.0833 122.71 82.522C123.279 82.9607 123.564 83.5487 123.564 84.286ZM131.968 92H125.122V90.698L127.67 88.122C128.174 87.6087 128.584 87.17 128.902 86.806C129.228 86.442 129.466 86.1013 129.616 85.784C129.774 85.4573 129.854 85.1073 129.854 84.734C129.854 84.2767 129.723 83.936 129.462 83.712C129.21 83.4787 128.864 83.362 128.426 83.362C128.006 83.362 127.614 83.4507 127.25 83.628C126.886 83.796 126.508 84.0387 126.116 84.356L125.15 83.194C125.56 82.8393 126.022 82.5313 126.536 82.27C127.058 81.9993 127.721 81.864 128.524 81.864C129.168 81.864 129.718 81.9807 130.176 82.214C130.642 82.438 131.002 82.7553 131.254 83.166C131.506 83.5673 131.632 84.0293 131.632 84.552C131.632 85.0933 131.524 85.5927 131.31 86.05C131.095 86.498 130.782 86.9507 130.372 87.408C129.97 87.856 129.49 88.3413 128.93 88.864L127.348 90.39V90.474H131.968V92ZM141.292 84.272C142.179 84.272 142.893 84.6033 143.434 85.266C143.975 85.9193 144.246 86.8947 144.246 88.192C144.246 89.4893 143.966 90.474 143.406 91.146C142.855 91.8087 142.137 92.14 141.25 92.14C140.69 92.14 140.237 92.0373 139.892 91.832C139.547 91.6267 139.271 91.3887 139.066 91.118H138.954C138.982 91.2953 139.005 91.4867 139.024 91.692C139.052 91.8973 139.066 92.0933 139.066 92.28V95.36H137.302V84.412H138.73L138.982 85.42H139.066C139.281 85.1027 139.561 84.832 139.906 84.608C140.251 84.384 140.713 84.272 141.292 84.272ZM140.788 85.7C140.163 85.7 139.719 85.8867 139.458 86.26C139.206 86.6333 139.075 87.198 139.066 87.954V88.178C139.066 88.99 139.187 89.6153 139.43 90.054C139.682 90.4833 140.144 90.698 140.816 90.698C141.367 90.698 141.773 90.474 142.034 90.026C142.305 89.5687 142.44 88.948 142.44 88.164C142.44 87.38 142.305 86.7733 142.034 86.344C141.773 85.9147 141.357 85.7 140.788 85.7ZM147.43 88.122L144.924 84.412H146.926L148.578 86.988L150.23 84.412H152.232L149.698 88.122L152.358 92H150.356L148.578 89.242L146.8 92H144.798L147.43 88.122Z" fill="#E60074"/>
</svg>
