<svg width="270" height="98" viewBox="0 0 270 98" fill="none" xmlns="http://www.w3.org/2000/svg">
<g clip-path="url(#clip0_8745_50566)">
<path d="M135 54.5C133.358 54.5047 131.731 54.1836 130.213 53.5554C128.696 52.9272 127.318 52.0042 126.16 50.84C126.091 50.7663 126.009 50.7072 125.917 50.6662C125.825 50.6252 125.725 50.6032 125.625 50.6014C125.524 50.5996 125.424 50.6182 125.33 50.6559C125.237 50.6936 125.152 50.7497 125.081 50.821C125.01 50.8922 124.954 50.977 124.916 51.0704C124.878 51.1638 124.86 51.2638 124.861 51.3645C124.863 51.4652 124.885 51.5645 124.926 51.6565C124.967 51.7485 125.026 51.8313 125.1 51.9C127.058 53.8578 129.553 55.191 132.268 55.7311C134.984 56.2712 137.799 55.9939 140.357 54.9342C142.915 53.8745 145.101 52.0801 146.64 49.7778C148.178 47.4756 148.999 44.7689 148.999 42C148.999 39.2311 148.178 36.5244 146.64 34.2222C145.101 31.9199 142.915 30.1255 140.357 29.0658C137.799 28.0062 134.984 27.7288 132.268 28.2689C129.553 28.809 127.058 30.1422 125.1 32.1C124.968 32.2422 124.895 32.4302 124.899 32.6245C124.902 32.8188 124.981 33.0042 125.118 33.1416C125.256 33.279 125.441 33.3578 125.636 33.3612C125.83 33.3646 126.018 33.2925 126.16 33.16C127.614 31.7068 129.403 30.6344 131.37 30.0379C133.337 29.4414 135.421 29.3392 137.437 29.7403C139.453 30.1414 141.339 31.0335 142.928 32.3375C144.517 33.6415 145.759 35.3172 146.546 37.2161C147.333 39.1151 147.639 41.1788 147.438 43.2244C147.236 45.27 146.534 47.2343 145.392 48.9435C144.25 50.6527 142.704 52.0539 140.892 53.0232C139.079 53.9924 137.056 54.4996 135 54.5Z" fill="black"/>
<path d="M73.0716 39.286C73.0716 39.9673 72.871 40.5133 72.4696 40.924C72.0776 41.3253 71.569 41.596 70.9436 41.736V41.778C71.7463 41.8807 72.353 42.1327 72.7636 42.534C73.1743 42.9353 73.3796 43.4627 73.3796 44.116C73.3796 44.6947 73.2396 45.2127 72.9596 45.67C72.6796 46.1273 72.2456 46.4867 71.6576 46.748C71.079 47.0093 70.3323 47.14 69.4176 47.14C68.867 47.14 68.3583 47.0933 67.8916 47C67.4343 46.916 67.0003 46.7807 66.5896 46.594V45.04C67.0096 45.2547 67.4576 45.418 67.9336 45.53C68.4096 45.642 68.8576 45.698 69.2776 45.698C70.0896 45.698 70.6636 45.5533 70.9996 45.264C71.3356 44.9653 71.5036 44.5547 71.5036 44.032C71.5036 43.5373 71.3076 43.1687 70.9156 42.926C70.5236 42.6833 69.8703 42.562 68.9556 42.562H68.1156V41.148H68.9696C69.8563 41.148 70.4676 41.0033 70.8036 40.714C71.1396 40.4247 71.3076 40.0513 71.3076 39.594C71.3076 39.1927 71.177 38.88 70.9156 38.656C70.6543 38.432 70.2623 38.32 69.7396 38.32C69.2356 38.32 68.8016 38.404 68.4376 38.572C68.0736 38.7307 67.747 38.9033 67.4576 39.09L66.6176 37.872C67.0003 37.592 67.453 37.354 67.9756 37.158C68.4983 36.962 69.1143 36.864 69.8236 36.864C70.8596 36.864 71.6576 37.0833 72.2176 37.522C72.787 37.9607 73.0716 38.5487 73.0716 39.286ZM81.4753 47H74.6293V45.698L77.1773 43.122C77.6813 42.6087 78.092 42.17 78.4093 41.806C78.736 41.442 78.974 41.1013 79.1233 40.784C79.282 40.4573 79.3613 40.1073 79.3613 39.734C79.3613 39.2767 79.2307 38.936 78.9693 38.712C78.7173 38.4787 78.372 38.362 77.9333 38.362C77.5133 38.362 77.1213 38.4507 76.7573 38.628C76.3933 38.796 76.0153 39.0387 75.6233 39.356L74.6573 38.194C75.068 37.8393 75.53 37.5313 76.0433 37.27C76.566 36.9993 77.2287 36.864 78.0313 36.864C78.6753 36.864 79.226 36.9807 79.6833 37.214C80.15 37.438 80.5093 37.7553 80.7613 38.166C81.0133 38.5673 81.1393 39.0293 81.1393 39.552C81.1393 40.0933 81.032 40.5927 80.8173 41.05C80.6027 41.498 80.29 41.9507 79.8793 42.408C79.478 42.856 78.9973 43.3413 78.4373 43.864L76.8553 45.39V45.474H81.4753V47ZM90.7998 39.272C91.6864 39.272 92.4004 39.6033 92.9418 40.266C93.4831 40.9193 93.7538 41.8947 93.7538 43.192C93.7538 44.4893 93.4738 45.474 92.9138 46.146C92.3631 46.8087 91.6444 47.14 90.7578 47.14C90.1978 47.14 89.7451 47.0373 89.3998 46.832C89.0544 46.6267 88.7791 46.3887 88.5738 46.118H88.4618C88.4898 46.2953 88.5131 46.4867 88.5318 46.692C88.5598 46.8973 88.5738 47.0933 88.5738 47.28V50.36H86.8098V39.412H88.2378L88.4898 40.42H88.5738C88.7884 40.1027 89.0684 39.832 89.4138 39.608C89.7591 39.384 90.2211 39.272 90.7998 39.272ZM90.2958 40.7C89.6704 40.7 89.2271 40.8867 88.9658 41.26C88.7138 41.6333 88.5831 42.198 88.5738 42.954V43.178C88.5738 43.99 88.6951 44.6153 88.9378 45.054C89.1898 45.4833 89.6518 45.698 90.3238 45.698C90.8744 45.698 91.2804 45.474 91.5418 45.026C91.8124 44.5687 91.9478 43.948 91.9478 43.164C91.9478 42.38 91.8124 41.7733 91.5418 41.344C91.2804 40.9147 90.8651 40.7 90.2958 40.7ZM96.938 43.122L94.432 39.412H96.434L98.086 41.988L99.738 39.412H101.74L99.206 43.122L101.866 47H99.864L98.086 44.242L96.308 47H94.306L96.938 43.122Z" fill="#E60074"/>
<path d="M114 26H106" stroke="#E60074"/>
<path d="M110 26L110 58" stroke="#E60074"/>
<path d="M114 58H106" stroke="#E60074"/>
<path d="M151 71L151 63" stroke="#E60074"/>
<path d="M151 67L119 67" stroke="#E60074"/>
<path d="M119 71L119 63" stroke="#E60074"/>
<path d="M124.064 78.286C124.064 78.9673 123.863 79.5133 123.462 79.924C123.07 80.3253 122.561 80.596 121.936 80.736V80.778C122.738 80.8807 123.345 81.1327 123.756 81.534C124.166 81.9353 124.372 82.4627 124.372 83.116C124.372 83.6947 124.232 84.2127 123.952 84.67C123.672 85.1273 123.238 85.4867 122.65 85.748C122.071 86.0093 121.324 86.14 120.41 86.14C119.859 86.14 119.35 86.0933 118.884 86C118.426 85.916 117.992 85.7807 117.582 85.594V84.04C118.002 84.2547 118.45 84.418 118.926 84.53C119.402 84.642 119.85 84.698 120.27 84.698C121.082 84.698 121.656 84.5533 121.992 84.264C122.328 83.9653 122.496 83.5547 122.496 83.032C122.496 82.5373 122.3 82.1687 121.908 81.926C121.516 81.6833 120.862 81.562 119.948 81.562H119.108V80.148H119.962C120.848 80.148 121.46 80.0033 121.796 79.714C122.132 79.4247 122.3 79.0513 122.3 78.594C122.3 78.1927 122.169 77.88 121.908 77.656C121.646 77.432 121.254 77.32 120.732 77.32C120.228 77.32 119.794 77.404 119.43 77.572C119.066 77.7307 118.739 77.9033 118.45 78.09L117.61 76.872C117.992 76.592 118.445 76.354 118.968 76.158C119.49 75.962 120.106 75.864 120.816 75.864C121.852 75.864 122.65 76.0833 123.21 76.522C123.779 76.9607 124.064 77.5487 124.064 78.286ZM132.468 86H125.622V84.698L128.17 82.122C128.674 81.6087 129.084 81.17 129.402 80.806C129.728 80.442 129.966 80.1013 130.116 79.784C130.274 79.4573 130.354 79.1073 130.354 78.734C130.354 78.2767 130.223 77.936 129.962 77.712C129.71 77.4787 129.364 77.362 128.926 77.362C128.506 77.362 128.114 77.4507 127.75 77.628C127.386 77.796 127.008 78.0387 126.616 78.356L125.65 77.194C126.06 76.8393 126.522 76.5313 127.036 76.27C127.558 75.9993 128.221 75.864 129.024 75.864C129.668 75.864 130.218 75.9807 130.676 76.214C131.142 76.438 131.502 76.7553 131.754 77.166C132.006 77.5673 132.132 78.0293 132.132 78.552C132.132 79.0933 132.024 79.5927 131.81 80.05C131.595 80.498 131.282 80.9507 130.872 81.408C130.47 81.856 129.99 82.3413 129.43 82.864L127.848 84.39V84.474H132.468V86ZM141.792 78.272C142.679 78.272 143.393 78.6033 143.934 79.266C144.475 79.9193 144.746 80.8947 144.746 82.192C144.746 83.4893 144.466 84.474 143.906 85.146C143.355 85.8087 142.637 86.14 141.75 86.14C141.19 86.14 140.737 86.0373 140.392 85.832C140.047 85.6267 139.771 85.3887 139.566 85.118H139.454C139.482 85.2953 139.505 85.4867 139.524 85.692C139.552 85.8973 139.566 86.0933 139.566 86.28V89.36H137.802V78.412H139.23L139.482 79.42H139.566C139.781 79.1027 140.061 78.832 140.406 78.608C140.751 78.384 141.213 78.272 141.792 78.272ZM141.288 79.7C140.663 79.7 140.219 79.8867 139.958 80.26C139.706 80.6333 139.575 81.198 139.566 81.954V82.178C139.566 82.99 139.687 83.6153 139.93 84.054C140.182 84.4833 140.644 84.698 141.316 84.698C141.867 84.698 142.273 84.474 142.534 84.026C142.805 83.5687 142.94 82.948 142.94 82.164C142.94 81.38 142.805 80.7733 142.534 80.344C142.273 79.9147 141.857 79.7 141.288 79.7ZM147.93 82.122L145.424 78.412H147.426L149.078 80.988L150.73 78.412H152.732L150.198 82.122L152.858 86H150.856L149.078 83.242L147.3 86H145.298L147.93 82.122Z" fill="#E60074"/>
</g>
<defs>
<clipPath id="clip0_8745_50566">
<rect width="269.333" height="98" fill="white" transform="translate(0.333008)"/>
</clipPath>
</defs>
</svg>
