<svg width="166" height="95" viewBox="0 0 166 95" fill="none" xmlns="http://www.w3.org/2000/svg">
<path d="M117.5 7L103.5 7L110.5 0L117.5 7Z" fill="#323232"/>
<rect x="67" y="7" width="87" height="32" rx="4" fill="#323232"/>
<path d="M82.876 28H81.796V20.38H79.12V19.432H85.54V20.38H82.876V28ZM91.4362 24.772C91.4362 25.836 91.1642 26.66 90.6202 27.244C90.0842 27.828 89.3562 28.12 88.4362 28.12C87.8682 28.12 87.3602 27.992 86.9122 27.736C86.4722 27.472 86.1242 27.092 85.8682 26.596C85.6122 26.092 85.4842 25.484 85.4842 24.772C85.4842 23.708 85.7482 22.888 86.2762 22.312C86.8122 21.736 87.5442 21.448 88.4722 21.448C89.0482 21.448 89.5602 21.58 90.0082 21.844C90.4562 22.1 90.8042 22.476 91.0522 22.972C91.3082 23.46 91.4362 24.06 91.4362 24.772ZM86.5762 24.772C86.5762 25.532 86.7242 26.136 87.0202 26.584C87.3242 27.024 87.8042 27.244 88.4602 27.244C89.1082 27.244 89.5842 27.024 89.8882 26.584C90.1922 26.136 90.3442 25.532 90.3442 24.772C90.3442 24.012 90.1922 23.416 89.8882 22.984C89.5842 22.552 89.1042 22.336 88.4482 22.336C87.7922 22.336 87.3162 22.552 87.0202 22.984C86.7242 23.416 86.5762 24.012 86.5762 24.772ZM98.7018 24.772C98.7018 25.836 98.4298 26.66 97.8858 27.244C97.3498 27.828 96.6218 28.12 95.7018 28.12C95.1338 28.12 94.6258 27.992 94.1778 27.736C93.7378 27.472 93.3898 27.092 93.1338 26.596C92.8778 26.092 92.7498 25.484 92.7498 24.772C92.7498 23.708 93.0138 22.888 93.5418 22.312C94.0778 21.736 94.8098 21.448 95.7378 21.448C96.3138 21.448 96.8258 21.58 97.2738 21.844C97.7218 22.1 98.0698 22.476 98.3178 22.972C98.5738 23.46 98.7018 24.06 98.7018 24.772ZM93.8418 24.772C93.8418 25.532 93.9898 26.136 94.2858 26.584C94.5898 27.024 95.0698 27.244 95.7258 27.244C96.3738 27.244 96.8498 27.024 97.1538 26.584C97.4578 26.136 97.6098 25.532 97.6098 24.772C97.6098 24.012 97.4578 23.416 97.1538 22.984C96.8498 22.552 96.3698 22.336 95.7138 22.336C95.0578 22.336 94.5818 22.552 94.2858 22.984C93.9898 23.416 93.8418 24.012 93.8418 24.772ZM101.431 28H100.375V18.88H101.431V28ZM105.617 27.256C105.777 27.256 105.941 27.244 106.109 27.22C106.277 27.196 106.413 27.164 106.517 27.124V27.928C106.405 27.984 106.245 28.028 106.037 28.06C105.829 28.1 105.629 28.12 105.437 28.12C105.101 28.12 104.789 28.064 104.501 27.952C104.221 27.832 103.993 27.628 103.817 27.34C103.641 27.052 103.553 26.648 103.553 26.128V22.384H102.641V21.88L103.565 21.46L103.985 20.092H104.609V21.568H106.469V22.384H104.609V26.104C104.609 26.496 104.701 26.788 104.885 26.98C105.077 27.164 105.321 27.256 105.617 27.256ZM108.345 19.156C108.505 19.156 108.645 19.212 108.765 19.324C108.893 19.428 108.957 19.596 108.957 19.828C108.957 20.06 108.893 20.232 108.765 20.344C108.645 20.448 108.505 20.5 108.345 20.5C108.169 20.5 108.021 20.448 107.901 20.344C107.781 20.232 107.721 20.06 107.721 19.828C107.721 19.596 107.781 19.428 107.901 19.324C108.021 19.212 108.169 19.156 108.345 19.156ZM108.861 21.568V28H107.805V21.568H108.861ZM113.959 21.448C114.751 21.448 115.387 21.724 115.867 22.276C116.355 22.828 116.599 23.66 116.599 24.772C116.599 25.868 116.355 26.7 115.867 27.268C115.387 27.836 114.747 28.12 113.947 28.12C113.451 28.12 113.039 28.028 112.711 27.844C112.391 27.66 112.139 27.44 111.955 27.184H111.883C111.891 27.32 111.903 27.492 111.919 27.7C111.943 27.908 111.955 28.088 111.955 28.24V30.88H110.899V21.568H111.763L111.907 22.444H111.955C112.147 22.164 112.399 21.928 112.711 21.736C113.023 21.544 113.439 21.448 113.959 21.448ZM113.767 22.336C113.111 22.336 112.647 22.52 112.375 22.888C112.103 23.256 111.963 23.816 111.955 24.568V24.772C111.955 25.564 112.083 26.176 112.339 26.608C112.603 27.032 113.087 27.244 113.791 27.244C114.175 27.244 114.495 27.14 114.751 26.932C115.007 26.716 115.195 26.42 115.315 26.044C115.443 25.668 115.507 25.24 115.507 24.76C115.507 24.024 115.363 23.436 115.075 22.996C114.795 22.556 114.359 22.336 113.767 22.336ZM123.547 27.256C123.707 27.256 123.871 27.244 124.039 27.22C124.207 27.196 124.343 27.164 124.447 27.124V27.928C124.335 27.984 124.175 28.028 123.967 28.06C123.759 28.1 123.559 28.12 123.367 28.12C123.031 28.12 122.719 28.064 122.431 27.952C122.151 27.832 121.923 27.628 121.747 27.34C121.571 27.052 121.483 26.648 121.483 26.128V22.384H120.571V21.88L121.495 21.46L121.915 20.092H122.539V21.568H124.399V22.384H122.539V26.104C122.539 26.496 122.631 26.788 122.815 26.98C123.007 27.164 123.251 27.256 123.547 27.256ZM128.219 21.448C128.763 21.448 129.235 21.568 129.635 21.808C130.035 22.048 130.339 22.388 130.547 22.828C130.763 23.26 130.871 23.768 130.871 24.352V24.988H126.467C126.483 25.716 126.667 26.272 127.019 26.656C127.379 27.032 127.879 27.22 128.519 27.22C128.927 27.22 129.287 27.184 129.599 27.112C129.919 27.032 130.247 26.92 130.583 26.776V27.7C130.255 27.844 129.931 27.948 129.611 28.012C129.291 28.084 128.911 28.12 128.471 28.12C127.855 28.12 127.315 27.996 126.851 27.748C126.387 27.5 126.023 27.132 125.759 26.644C125.503 26.156 125.375 25.552 125.375 24.832C125.375 24.128 125.491 23.524 125.723 23.02C125.963 22.516 126.295 22.128 126.719 21.856C127.151 21.584 127.651 21.448 128.219 21.448ZM128.207 22.312C127.703 22.312 127.303 22.476 127.007 22.804C126.719 23.124 126.547 23.572 126.491 24.148H129.767C129.759 23.604 129.631 23.164 129.383 22.828C129.135 22.484 128.743 22.312 128.207 22.312ZM133.798 24.712L131.578 21.568H132.778L134.434 23.992L136.078 21.568H137.266L135.046 24.712L137.386 28H136.186L134.434 25.432L132.658 28H131.47L133.798 24.712ZM140.773 27.256C140.933 27.256 141.097 27.244 141.265 27.22C141.433 27.196 141.569 27.164 141.673 27.124V27.928C141.561 27.984 141.401 28.028 141.193 28.06C140.985 28.1 140.785 28.12 140.593 28.12C140.257 28.12 139.945 28.064 139.657 27.952C139.377 27.832 139.149 27.628 138.973 27.34C138.797 27.052 138.709 26.648 138.709 26.128V22.384H137.797V21.88L138.721 21.46L139.141 20.092H139.765V21.568H141.625V22.384H139.765V26.104C139.765 26.496 139.857 26.788 140.041 26.98C140.233 27.164 140.477 27.256 140.773 27.256Z" fill="white"/>
<path d="M4.01767 5.878C4.59634 5.878 5.11901 5.96667 5.58567 6.144C6.05234 6.32133 6.42567 6.592 6.70567 6.956C6.98567 7.31067 7.12567 7.74933 7.12567 8.272C7.12567 8.86933 6.94834 9.364 6.59367 9.756C6.23901 10.1387 5.80501 10.4607 5.29167 10.722C5.67434 10.918 6.02901 11.1373 6.35567 11.38C6.68234 11.6227 6.94367 11.912 7.13967 12.248C7.34501 12.5747 7.44767 12.962 7.44767 13.41C7.44767 13.9607 7.30301 14.4413 7.01367 14.852C6.72434 15.2627 6.32301 15.58 5.80967 15.804C5.30567 16.028 4.71301 16.14 4.03167 16.14C2.92101 16.14 2.06701 15.902 1.46967 15.426C0.872339 14.95 0.573672 14.2967 0.573672 13.466C0.573672 13.0087 0.662339 12.612 0.839672 12.276C1.01701 11.94 1.25501 11.6507 1.55367 11.408C1.85234 11.1653 2.18367 10.9553 2.54767 10.778C2.09034 10.498 1.69834 10.162 1.37167 9.77C1.05434 9.36867 0.895672 8.86467 0.895672 8.258C0.895672 7.74467 1.03567 7.31067 1.31567 6.956C1.60501 6.60133 1.98301 6.33533 2.44967 6.158C2.92567 5.97133 3.44834 5.878 4.01767 5.878ZM4.00367 7.208C3.59301 7.208 3.25234 7.31067 2.98167 7.516C2.72034 7.72133 2.58967 8.01067 2.58967 8.384C2.58967 8.79467 2.72967 9.12133 3.00967 9.364C3.28967 9.60667 3.63034 9.81667 4.03167 9.994C4.41434 9.826 4.74101 9.62067 5.01167 9.378C5.29167 9.13533 5.43167 8.804 5.43167 8.384C5.43167 8.01067 5.29634 7.72133 5.02567 7.516C4.76434 7.31067 4.42367 7.208 4.00367 7.208ZM2.25367 13.382C2.25367 13.7927 2.39834 14.1333 2.68767 14.404C2.97701 14.6653 3.41567 14.796 4.00367 14.796C4.58234 14.796 5.02101 14.6653 5.31967 14.404C5.61834 14.1427 5.76767 13.802 5.76767 13.382C5.76767 12.962 5.59967 12.612 5.26367 12.332C4.92767 12.052 4.53101 11.8093 4.07367 11.604L3.87767 11.506C3.37367 11.7393 2.97701 12.0053 2.68767 12.304C2.39834 12.5933 2.25367 12.9527 2.25367 13.382ZM16.7861 8.272C17.6728 8.272 18.3868 8.60333 18.9281 9.266C19.4694 9.91933 19.7401 10.8947 19.7401 12.192C19.7401 13.4893 19.4601 14.474 18.9001 15.146C18.3494 15.8087 17.6308 16.14 16.7441 16.14C16.1841 16.14 15.7314 16.0373 15.3861 15.832C15.0408 15.6267 14.7654 15.3887 14.5601 15.118H14.4481C14.4761 15.2953 14.4994 15.4867 14.5181 15.692C14.5461 15.8973 14.5601 16.0933 14.5601 16.28V19.36H12.7961V8.412H14.2241L14.4761 9.42H14.5601C14.7748 9.10267 15.0548 8.832 15.4001 8.608C15.7454 8.384 16.2074 8.272 16.7861 8.272ZM16.2821 9.7C15.6568 9.7 15.2134 9.88667 14.9521 10.26C14.7001 10.6333 14.5694 11.198 14.5601 11.954V12.178C14.5601 12.99 14.6814 13.6153 14.9241 14.054C15.1761 14.4833 15.6381 14.698 16.3101 14.698C16.8608 14.698 17.2668 14.474 17.5281 14.026C17.7988 13.5687 17.9341 12.948 17.9341 12.164C17.9341 11.38 17.7988 10.7733 17.5281 10.344C17.2668 9.91467 16.8514 9.7 16.2821 9.7ZM22.9243 12.122L20.4183 8.412H22.4203L24.0723 10.988L25.7243 8.412H27.7263L25.1923 12.122L27.8523 16H25.8503L24.0723 13.242L22.2943 16H20.2923L22.9243 12.122Z" fill="#E60074"/>
<path d="M46 11L30 11" stroke="#E60074"/>
<rect opacity="0.4" x="154" y="7" width="8" height="108" transform="rotate(90 154 7)" fill="white"/>
<rect opacity="0.12" x="154" y="7" width="8" height="108" transform="rotate(90 154 7)" fill="#E60074"/>
<path opacity="0.5" d="M154 15L46 15" stroke="#E60074" stroke-dasharray="3 3"/>
<path opacity="0.5" d="M154 7L46 7" stroke="#E60074" stroke-dasharray="3 3"/>
<path d="M4.01767 29.878C4.59634 29.878 5.11901 29.9667 5.58567 30.144C6.05234 30.3213 6.42567 30.592 6.70567 30.956C6.98567 31.3107 7.12567 31.7493 7.12567 32.272C7.12567 32.8693 6.94834 33.364 6.59367 33.756C6.23901 34.1387 5.80501 34.4607 5.29167 34.722C5.67434 34.918 6.02901 35.1373 6.35567 35.38C6.68234 35.6227 6.94367 35.912 7.13967 36.248C7.34501 36.5747 7.44767 36.962 7.44767 37.41C7.44767 37.9607 7.30301 38.4413 7.01367 38.852C6.72434 39.2627 6.32301 39.58 5.80967 39.804C5.30567 40.028 4.71301 40.14 4.03167 40.14C2.92101 40.14 2.06701 39.902 1.46967 39.426C0.872339 38.95 0.573672 38.2967 0.573672 37.466C0.573672 37.0087 0.662339 36.612 0.839672 36.276C1.01701 35.94 1.25501 35.6507 1.55367 35.408C1.85234 35.1653 2.18367 34.9553 2.54767 34.778C2.09034 34.498 1.69834 34.162 1.37167 33.77C1.05434 33.3687 0.895672 32.8647 0.895672 32.258C0.895672 31.7447 1.03567 31.3107 1.31567 30.956C1.60501 30.6013 1.98301 30.3353 2.44967 30.158C2.92567 29.9713 3.44834 29.878 4.01767 29.878ZM4.00367 31.208C3.59301 31.208 3.25234 31.3107 2.98167 31.516C2.72034 31.7213 2.58967 32.0107 2.58967 32.384C2.58967 32.7947 2.72967 33.1213 3.00967 33.364C3.28967 33.6067 3.63034 33.8167 4.03167 33.994C4.41434 33.826 4.74101 33.6207 5.01167 33.378C5.29167 33.1353 5.43167 32.804 5.43167 32.384C5.43167 32.0107 5.29634 31.7213 5.02567 31.516C4.76434 31.3107 4.42367 31.208 4.00367 31.208ZM2.25367 37.382C2.25367 37.7927 2.39834 38.1333 2.68767 38.404C2.97701 38.6653 3.41567 38.796 4.00367 38.796C4.58234 38.796 5.02101 38.6653 5.31967 38.404C5.61834 38.1427 5.76767 37.802 5.76767 37.382C5.76767 36.962 5.59967 36.612 5.26367 36.332C4.92767 36.052 4.53101 35.8093 4.07367 35.604L3.87767 35.506C3.37367 35.7393 2.97701 36.0053 2.68767 36.304C2.39834 36.5933 2.25367 36.9527 2.25367 37.382ZM16.7861 32.272C17.6728 32.272 18.3868 32.6033 18.9281 33.266C19.4694 33.9193 19.7401 34.8947 19.7401 36.192C19.7401 37.4893 19.4601 38.474 18.9001 39.146C18.3494 39.8087 17.6308 40.14 16.7441 40.14C16.1841 40.14 15.7314 40.0373 15.3861 39.832C15.0408 39.6267 14.7654 39.3887 14.5601 39.118H14.4481C14.4761 39.2953 14.4994 39.4867 14.5181 39.692C14.5461 39.8973 14.5601 40.0933 14.5601 40.28V43.36H12.7961V32.412H14.2241L14.4761 33.42H14.5601C14.7748 33.1027 15.0548 32.832 15.4001 32.608C15.7454 32.384 16.2074 32.272 16.7861 32.272ZM16.2821 33.7C15.6568 33.7 15.2134 33.8867 14.9521 34.26C14.7001 34.6333 14.5694 35.198 14.5601 35.954V36.178C14.5601 36.99 14.6814 37.6153 14.9241 38.054C15.1761 38.4833 15.6381 38.698 16.3101 38.698C16.8608 38.698 17.2668 38.474 17.5281 38.026C17.7988 37.5687 17.9341 36.948 17.9341 36.164C17.9341 35.38 17.7988 34.7733 17.5281 34.344C17.2668 33.9147 16.8514 33.7 16.2821 33.7ZM22.9243 36.122L20.4183 32.412H22.4203L24.0723 34.988L25.7243 32.412H27.7263L25.1923 36.122L27.8523 40H25.8503L24.0723 37.242L22.2943 40H20.2923L22.9243 36.122Z" fill="#E60074"/>
<path d="M46 35L30 35" stroke="#E60074"/>
<rect opacity="0.4" x="154" y="31" width="8" height="108" transform="rotate(90 154 31)" fill="white"/>
<rect opacity="0.12" x="154" y="31" width="8" height="108" transform="rotate(90 154 31)" fill="#E60074"/>
<path opacity="0.5" d="M154 39L46 39" stroke="#E60074" stroke-dasharray="3 3"/>
<path opacity="0.5" d="M154 31L46 31" stroke="#E60074" stroke-dasharray="3 3"/>
<rect opacity="0.4" x="67" y="7" width="12" height="52" fill="white"/>
<rect opacity="0.12" x="67" y="7" width="12" height="52" fill="#E60074"/>
<path opacity="0.5" d="M79 7L79 59" stroke="#E60074" stroke-dasharray="3 3"/>
<path opacity="0.5" d="M67 7L67 59" stroke="#E60074" stroke-dasharray="3 3"/>
<path d="M73 59V75" stroke="#E60074"/>
<path d="M60.4818 90H58.7178V83.77C58.7178 83.4713 58.7225 83.154 58.7318 82.818C58.7411 82.482 58.7551 82.1693 58.7738 81.88C58.6805 81.9733 58.5638 82.0853 58.4238 82.216C58.2931 82.3467 58.1485 82.4727 57.9898 82.594L56.8698 83.49L55.9878 82.398L59.0118 80.004H60.4818V90ZM70.4675 90H63.6215V88.698L66.1695 86.122C66.6735 85.6087 67.0842 85.17 67.4015 84.806C67.7282 84.442 67.9662 84.1013 68.1155 83.784C68.2742 83.4573 68.3535 83.1073 68.3535 82.734C68.3535 82.2767 68.2229 81.936 67.9615 81.712C67.7095 81.4787 67.3642 81.362 66.9255 81.362C66.5055 81.362 66.1135 81.4507 65.7495 81.628C65.3855 81.796 65.0075 82.0387 64.6155 82.356L63.6495 81.194C64.0602 80.8393 64.5222 80.5313 65.0355 80.27C65.5582 79.9993 66.2209 79.864 67.0235 79.864C67.6675 79.864 68.2182 79.9807 68.6755 80.214C69.1422 80.438 69.5015 80.7553 69.7535 81.166C70.0055 81.5673 70.1315 82.0293 70.1315 82.552C70.1315 83.0933 70.0242 83.5927 69.8095 84.05C69.5949 84.498 69.2822 84.9507 68.8715 85.408C68.4702 85.856 67.9895 86.3413 67.4295 86.864L65.8475 88.39V88.474H70.4675V90ZM79.792 82.272C80.6786 82.272 81.3926 82.6033 81.934 83.266C82.4753 83.9193 82.746 84.8947 82.746 86.192C82.746 87.4893 82.466 88.474 81.906 89.146C81.3553 89.8087 80.6366 90.14 79.75 90.14C79.19 90.14 78.7373 90.0373 78.392 89.832C78.0466 89.6267 77.7713 89.3887 77.566 89.118H77.454C77.482 89.2953 77.5053 89.4867 77.524 89.692C77.552 89.8973 77.566 90.0933 77.566 90.28V93.36H75.802V82.412H77.23L77.482 83.42H77.566C77.7806 83.1027 78.0606 82.832 78.406 82.608C78.7513 82.384 79.2133 82.272 79.792 82.272ZM79.288 83.7C78.6626 83.7 78.2193 83.8867 77.958 84.26C77.706 84.6333 77.5753 85.198 77.566 85.954V86.178C77.566 86.99 77.6873 87.6153 77.93 88.054C78.182 88.4833 78.644 88.698 79.316 88.698C79.8666 88.698 80.2726 88.474 80.534 88.026C80.8046 87.5687 80.94 86.948 80.94 86.164C80.94 85.38 80.8046 84.7733 80.534 84.344C80.2726 83.9147 79.8573 83.7 79.288 83.7ZM85.9302 86.122L83.4242 82.412H85.4262L87.0782 84.988L88.7302 82.412H90.7322L88.1982 86.122L90.8582 90H88.8562L87.0782 87.242L85.3002 90H83.2982L85.9302 86.122Z" fill="#E60074"/>
<rect opacity="0.4" x="142" y="7" width="12" height="52" fill="white"/>
<rect opacity="0.12" x="142" y="7" width="12" height="52" fill="#E60074"/>
<path opacity="0.5" d="M154 7L154 59" stroke="#E60074" stroke-dasharray="3 3"/>
<path opacity="0.5" d="M142 7L142 59" stroke="#E60074" stroke-dasharray="3 3"/>
<path d="M148 59V75" stroke="#E60074"/>
<path d="M135.482 90H133.718V83.77C133.718 83.4713 133.722 83.154 133.732 82.818C133.741 82.482 133.755 82.1693 133.774 81.88C133.68 81.9733 133.564 82.0853 133.424 82.216C133.293 82.3467 133.148 82.4727 132.99 82.594L131.87 83.49L130.988 82.398L134.012 80.004H135.482V90ZM145.468 90H138.622V88.698L141.17 86.122C141.674 85.6087 142.084 85.17 142.402 84.806C142.728 84.442 142.966 84.1013 143.116 83.784C143.274 83.4573 143.354 83.1073 143.354 82.734C143.354 82.2767 143.223 81.936 142.962 81.712C142.71 81.4787 142.364 81.362 141.926 81.362C141.506 81.362 141.114 81.4507 140.75 81.628C140.386 81.796 140.008 82.0387 139.616 82.356L138.65 81.194C139.06 80.8393 139.522 80.5313 140.036 80.27C140.558 79.9993 141.221 79.864 142.024 79.864C142.668 79.864 143.218 79.9807 143.676 80.214C144.142 80.438 144.502 80.7553 144.754 81.166C145.006 81.5673 145.132 82.0293 145.132 82.552C145.132 83.0933 145.024 83.5927 144.81 84.05C144.595 84.498 144.282 84.9507 143.872 85.408C143.47 85.856 142.99 86.3413 142.43 86.864L140.848 88.39V88.474H145.468V90ZM154.792 82.272C155.679 82.272 156.393 82.6033 156.934 83.266C157.475 83.9193 157.746 84.8947 157.746 86.192C157.746 87.4893 157.466 88.474 156.906 89.146C156.355 89.8087 155.637 90.14 154.75 90.14C154.19 90.14 153.737 90.0373 153.392 89.832C153.047 89.6267 152.771 89.3887 152.566 89.118H152.454C152.482 89.2953 152.505 89.4867 152.524 89.692C152.552 89.8973 152.566 90.0933 152.566 90.28V93.36H150.802V82.412H152.23L152.482 83.42H152.566C152.781 83.1027 153.061 82.832 153.406 82.608C153.751 82.384 154.213 82.272 154.792 82.272ZM154.288 83.7C153.663 83.7 153.219 83.8867 152.958 84.26C152.706 84.6333 152.575 85.198 152.566 85.954V86.178C152.566 86.99 152.687 87.6153 152.93 88.054C153.182 88.4833 153.644 88.698 154.316 88.698C154.867 88.698 155.273 88.474 155.534 88.026C155.805 87.5687 155.94 86.948 155.94 86.164C155.94 85.38 155.805 84.7733 155.534 84.344C155.273 83.9147 154.857 83.7 154.288 83.7ZM160.93 86.122L158.424 82.412H160.426L162.078 84.988L163.73 82.412H165.732L163.198 86.122L165.858 90H163.856L162.078 87.242L160.3 90H158.298L160.93 86.122Z" fill="#E60074"/>
</svg>
