<svg width="412" height="252" viewBox="0 0 412 252" fill="none" xmlns="http://www.w3.org/2000/svg">
<rect x="7" y="16" width="398" height="220" rx="4" fill="white"/>
<rect width="200" height="44" transform="translate(31 16)" fill="white"/>
<line x1="31" y1="16.5" x2="231" y2="16.5" stroke="#C9C9C9"/>
<line x1="31" y1="59.5" x2="231" y2="59.5" stroke="#C9C9C9"/>
<path d="M52.558 34.376C51.6527 34.376 50.948 34.7027 50.444 35.356C49.94 36 49.688 36.8867 49.688 38.016C49.688 39.1547 49.9213 40.0413 50.388 40.676C50.8547 41.3107 51.5733 41.628 52.544 41.628C52.964 41.628 53.3747 41.586 53.776 41.502C54.1867 41.4087 54.6067 41.2873 55.036 41.138V42.664C54.6253 42.832 54.21 42.9533 53.79 43.028C53.3793 43.1027 52.9033 43.14 52.362 43.14C51.3353 43.14 50.486 42.93 49.814 42.51C49.142 42.0807 48.6427 41.4833 48.316 40.718C47.9893 39.9433 47.826 39.038 47.826 38.002C47.826 36.994 48.008 36.1073 48.372 35.342C48.736 34.5673 49.268 33.9607 49.968 33.522C50.6773 33.0833 51.5407 32.864 52.558 32.864C53.062 32.864 53.5567 32.92 54.042 33.032C54.5367 33.144 54.9987 33.3073 55.428 33.522L54.812 34.992C54.4573 34.8333 54.0887 34.6933 53.706 34.572C53.3327 34.4413 52.95 34.376 52.558 34.376ZM63.7547 35.412V43H62.3687L62.1307 42.02H62.0467C61.8041 42.412 61.4681 42.6967 61.0387 42.874C60.6094 43.0513 60.1567 43.14 59.6807 43.14C58.8314 43.14 58.1641 42.9207 57.6787 42.482C57.2027 42.0433 56.9647 41.3387 56.9647 40.368V35.412H58.7287V40.018C58.7287 40.5873 58.8407 41.012 59.0647 41.292C59.2887 41.572 59.6434 41.712 60.1287 41.712C60.8381 41.712 61.3234 41.488 61.5847 41.04C61.8554 40.592 61.9907 39.9527 61.9907 39.122V35.412H63.7547ZM71.1691 40.802C71.1691 41.5673 70.8938 42.1507 70.3431 42.552C69.8018 42.944 69.0225 43.14 68.0051 43.14C67.4731 43.14 67.0158 43.1027 66.6331 43.028C66.2598 42.9533 65.8958 42.8367 65.5411 42.678V41.18C65.9145 41.3573 66.3251 41.5067 66.7731 41.628C67.2305 41.7493 67.6598 41.81 68.0611 41.81C68.5465 41.81 68.8965 41.7353 69.1111 41.586C69.3258 41.4367 69.4331 41.236 69.4331 40.984C69.4331 40.8347 69.3911 40.704 69.3071 40.592C69.2231 40.4707 69.0598 40.34 68.8171 40.2C68.5745 40.06 68.2058 39.8873 67.7111 39.682C67.2258 39.486 66.8198 39.29 66.4931 39.094C66.1758 38.898 65.9331 38.6647 65.7651 38.394C65.6065 38.1233 65.5271 37.7733 65.5271 37.344C65.5271 36.6627 65.7978 36.1493 66.3391 35.804C66.8805 35.4493 67.5945 35.272 68.4811 35.272C68.9478 35.272 69.3865 35.3187 69.7971 35.412C70.2171 35.5053 70.6371 35.6453 71.0571 35.832L70.4971 37.134C70.1425 36.9847 69.7971 36.8587 69.4611 36.756C69.1251 36.6533 68.7798 36.602 68.4251 36.602C67.6505 36.602 67.2631 36.8213 67.2631 37.26C67.2631 37.4187 67.3098 37.554 67.4031 37.666C67.5058 37.778 67.6785 37.8993 67.9211 38.03C68.1731 38.1513 68.5278 38.3007 68.9851 38.478C69.4331 38.6553 69.8205 38.842 70.1471 39.038C70.4738 39.2247 70.7258 39.458 70.9031 39.738C71.0805 40.0087 71.1691 40.3633 71.1691 40.802ZM75.8064 41.726C76.0211 41.726 76.2311 41.7073 76.4364 41.67C76.6511 41.6233 76.8471 41.572 77.0244 41.516V42.832C76.8378 42.9253 76.5951 43 76.2964 43.056C75.9978 43.112 75.6851 43.14 75.3584 43.14C74.9198 43.14 74.5231 43.07 74.1684 42.93C73.8231 42.79 73.5478 42.5427 73.3424 42.188C73.1371 41.8333 73.0344 41.334 73.0344 40.69V36.742H72.0124V35.972L73.1324 35.356L73.6924 33.746H74.7984V35.412H76.9544V36.742H74.7984V40.676C74.7984 41.0307 74.8918 41.2967 75.0784 41.474C75.2744 41.642 75.5171 41.726 75.8064 41.726ZM85.3299 39.192C85.3299 40.452 85.0033 41.4273 84.3499 42.118C83.6966 42.7993 82.8099 43.14 81.6899 43.14C80.9993 43.14 80.3833 42.986 79.8419 42.678C79.3006 42.37 78.8759 41.922 78.5679 41.334C78.2599 40.746 78.1059 40.032 78.1059 39.192C78.1059 37.932 78.4279 36.966 79.0719 36.294C79.7253 35.6127 80.6119 35.272 81.7319 35.272C82.4319 35.272 83.0526 35.426 83.5939 35.734C84.1353 36.0327 84.5599 36.476 84.8679 37.064C85.1759 37.6427 85.3299 38.352 85.3299 39.192ZM79.9119 39.192C79.9119 39.9947 80.0519 40.6153 80.3319 41.054C80.6213 41.4927 81.0833 41.712 81.7179 41.712C82.3433 41.712 82.8006 41.4927 83.0899 41.054C83.3793 40.6153 83.5239 39.9947 83.5239 39.192C83.5239 38.3893 83.3793 37.7733 83.0899 37.344C82.8006 36.9147 82.3386 36.7 81.7039 36.7C81.0693 36.7 80.6119 36.9147 80.3319 37.344C80.0519 37.7733 79.9119 38.3893 79.9119 39.192ZM95.8475 35.272C96.7062 35.272 97.3502 35.4913 97.7795 35.93C98.2182 36.3687 98.4375 37.078 98.4375 38.058V43H96.6735V38.394C96.6735 37.2647 96.2442 36.7 95.3855 36.7C94.7695 36.7 94.3309 36.9007 94.0695 37.302C93.8082 37.7033 93.6775 38.2867 93.6775 39.052V43H91.9135V38.394C91.9135 37.2647 91.4795 36.7 90.6115 36.7C89.9675 36.7 89.5242 36.924 89.2815 37.372C89.0389 37.82 88.9175 38.4593 88.9175 39.29V43H87.1535V35.412H88.5115L88.7635 36.406H88.8615C89.0949 36.014 89.4122 35.7293 89.8135 35.552C90.2149 35.3653 90.6349 35.272 91.0735 35.272C91.6429 35.272 92.1189 35.3653 92.5015 35.552C92.8935 35.7387 93.1922 36.0373 93.3975 36.448H93.5375C93.7709 36.0373 94.0975 35.7387 94.5175 35.552C94.9375 35.3653 95.3809 35.272 95.8475 35.272ZM103.7 35.272C104.717 35.272 105.52 35.5753 106.108 36.182C106.705 36.7887 107.004 37.6333 107.004 38.716V39.612H101.992C102.01 40.3027 102.202 40.8393 102.566 41.222C102.93 41.5953 103.434 41.782 104.078 41.782C104.563 41.782 105.002 41.7353 105.394 41.642C105.786 41.5393 106.187 41.3947 106.598 41.208V42.622C106.224 42.7993 105.837 42.93 105.436 43.014C105.034 43.098 104.554 43.14 103.994 43.14C103.247 43.14 102.589 43 102.02 42.72C101.45 42.4307 101.002 42.0013 100.676 41.432C100.358 40.8533 100.2 40.13 100.2 39.262C100.2 37.9647 100.517 36.9753 101.152 36.294C101.796 35.6127 102.645 35.272 103.7 35.272ZM103.7 36.574C103.224 36.574 102.836 36.728 102.538 37.036C102.248 37.3347 102.08 37.7827 102.034 38.38H105.296C105.286 37.8573 105.151 37.428 104.89 37.092C104.638 36.7467 104.241 36.574 103.7 36.574ZM112.758 35.272C112.88 35.272 113.015 35.2813 113.164 35.3C113.314 35.3093 113.435 35.3233 113.528 35.342L113.374 36.98C113.281 36.9613 113.164 36.9473 113.024 36.938C112.894 36.9193 112.782 36.91 112.688 36.91C112.315 36.91 111.965 36.9893 111.638 37.148C111.312 37.2973 111.046 37.5307 110.84 37.848C110.644 38.1653 110.546 38.5713 110.546 39.066V43H108.782V35.412H110.14L110.392 36.728H110.476C110.7 36.3267 111.008 35.986 111.4 35.706C111.792 35.4167 112.245 35.272 112.758 35.272ZM127.238 43H125.012L120.28 35.16H120.224C120.242 35.58 120.261 36.0327 120.28 36.518C120.308 36.994 120.331 37.4747 120.35 37.96V43H118.74V33.004H120.952L125.669 40.788H125.712C125.702 40.4147 125.684 39.9853 125.656 39.5C125.637 39.0147 125.623 38.5433 125.614 38.086V33.004H127.238V43ZM132.697 35.272C133.677 35.272 134.419 35.4867 134.923 35.916C135.436 36.3453 135.693 37.008 135.693 37.904V43H134.447L134.097 41.95H134.041C133.714 42.3607 133.369 42.664 133.005 42.86C132.641 43.0467 132.146 43.14 131.521 43.14C130.84 43.14 130.275 42.9487 129.827 42.566C129.379 42.1833 129.155 41.5907 129.155 40.788C129.155 40.004 129.44 39.416 130.009 39.024C130.588 38.632 131.46 38.4127 132.627 38.366L133.943 38.324V37.946C133.943 37.4607 133.826 37.1153 133.593 36.91C133.36 36.7047 133.033 36.602 132.613 36.602C132.23 36.602 131.862 36.658 131.507 36.77C131.162 36.8727 130.816 37.0033 130.471 37.162L129.911 35.93C130.284 35.734 130.709 35.5753 131.185 35.454C131.67 35.3327 132.174 35.272 132.697 35.272ZM133.943 39.416L133.019 39.444C132.244 39.472 131.708 39.6073 131.409 39.85C131.11 40.0833 130.961 40.4007 130.961 40.802C130.961 41.166 131.064 41.4273 131.269 41.586C131.484 41.7353 131.764 41.81 132.109 41.81C132.622 41.81 133.056 41.6653 133.411 41.376C133.766 41.0773 133.943 40.6387 133.943 40.06V39.416ZM146.598 35.272C147.456 35.272 148.1 35.4913 148.53 35.93C148.968 36.3687 149.188 37.078 149.188 38.058V43H147.424V38.394C147.424 37.2647 146.994 36.7 146.136 36.7C145.52 36.7 145.081 36.9007 144.82 37.302C144.558 37.7033 144.428 38.2867 144.428 39.052V43H142.664V38.394C142.664 37.2647 142.23 36.7 141.362 36.7C140.718 36.7 140.274 36.924 140.032 37.372C139.789 37.82 139.668 38.4593 139.668 39.29V43H137.904V35.412H139.262L139.514 36.406H139.612C139.845 36.014 140.162 35.7293 140.564 35.552C140.965 35.3653 141.385 35.272 141.824 35.272C142.393 35.272 142.869 35.3653 143.252 35.552C143.644 35.7387 143.942 36.0373 144.148 36.448H144.288C144.521 36.0373 144.848 35.7387 145.268 35.552C145.688 35.3653 146.131 35.272 146.598 35.272ZM154.45 35.272C155.467 35.272 156.27 35.5753 156.858 36.182C157.455 36.7887 157.754 37.6333 157.754 38.716V39.612H152.742C152.76 40.3027 152.952 40.8393 153.316 41.222C153.68 41.5953 154.184 41.782 154.828 41.782C155.313 41.782 155.752 41.7353 156.144 41.642C156.536 41.5393 156.937 41.3947 157.348 41.208V42.622C156.974 42.7993 156.587 42.93 156.186 43.014C155.784 43.098 155.304 43.14 154.744 43.14C153.997 43.14 153.339 43 152.77 42.72C152.2 42.4307 151.752 42.0013 151.426 41.432C151.108 40.8533 150.95 40.13 150.95 39.262C150.95 37.9647 151.267 36.9753 151.902 36.294C152.546 35.6127 153.395 35.272 154.45 35.272ZM154.45 36.574C153.974 36.574 153.586 36.728 153.288 37.036C152.998 37.3347 152.83 37.7827 152.784 38.38H156.046C156.036 37.8573 155.901 37.428 155.64 37.092C155.388 36.7467 154.991 36.574 154.45 36.574Z" fill="black"/>
<rect width="24" height="24" transform="translate(167 26)" fill="#DDDDDD"/>
<rect x="167" y="26" width="24" height="24" rx="2" fill="#DDDDDD"/>
<path d="M184.966 31.81C184.851 31.5672 184.669 31.3621 184.441 31.2187C184.214 31.0753 183.95 30.9995 183.681 31H174.421C174.153 31.0007 173.89 31.0774 173.663 31.2211C173.436 31.3648 173.254 31.5697 173.138 31.8122C173.023 32.0547 172.978 32.325 173.01 32.5917C173.041 32.8585 173.147 33.111 173.316 33.32L177.316 38.29C177.336 38.3178 177.346 38.351 177.346 38.385V44.1C177.35 44.3375 177.446 44.5642 177.614 44.7321C177.782 44.9001 178.009 44.9961 178.246 45C178.41 45.0011 178.571 44.9561 178.711 44.87L180.286 43.925C180.419 43.8453 180.529 43.7325 180.605 43.5975C180.682 43.4625 180.722 43.31 180.721 43.155V38.385C180.723 38.3505 180.735 38.3174 180.756 38.29L184.756 33.32C184.932 33.1149 185.046 32.8635 185.083 32.5958C185.12 32.3281 185.08 32.0553 184.966 31.81ZM184.206 32.85L180.206 37.82C180.079 37.9809 180.008 38.1797 180.006 38.385V43.155C180.006 43.1808 180 43.2062 179.988 43.2289C179.975 43.2516 179.958 43.2709 179.936 43.285L178.361 44.23C178.338 44.2427 178.312 44.2494 178.286 44.2494C178.26 44.2494 178.234 44.2427 178.211 44.23C178.187 44.2179 178.167 44.1993 178.153 44.1764C178.139 44.1534 178.131 44.127 178.131 44.1V38.385C178.131 38.1793 178.061 37.9798 177.931 37.82L173.896 32.85C173.816 32.7511 173.765 32.631 173.751 32.5043C173.737 32.3775 173.759 32.2493 173.816 32.135C173.869 32.0193 173.954 31.9215 174.062 31.8532C174.169 31.7849 174.294 31.749 174.421 31.75H183.681C183.808 31.749 183.933 31.7849 184.04 31.8532C184.148 31.9215 184.233 32.0193 184.286 32.135C184.343 32.2493 184.365 32.3775 184.351 32.5043C184.337 32.631 184.287 32.7511 184.206 32.85Z" fill="#323232"/>
<path d="M201.012 41.3625C200.912 41.3625 200.812 41.3125 200.762 41.2625L195.113 35.6625C194.962 35.5125 194.962 35.2625 195.113 35.1125C195.263 34.9625 195.512 34.9625 195.662 35.1125L201.012 40.4625L206.312 35.1125C206.463 34.9625 206.713 34.9625 206.863 35.1125C207.013 35.2625 207.013 35.5125 206.863 35.6625L201.262 41.2625C201.162 41.3125 201.112 41.3625 201.012 41.3625Z" fill="black"/>
<rect width="200" height="44" transform="translate(31 60)" fill="white"/>
<path d="M51.004 77.004C52.3107 77.004 53.2627 77.2607 53.86 77.774C54.4573 78.2873 54.756 79.0107 54.756 79.944C54.756 80.4947 54.63 81.0127 54.378 81.498C54.1353 81.974 53.72 82.3613 53.132 82.66C52.5533 82.9587 51.7647 83.108 50.766 83.108H49.618V87H48.358V77.004H51.004ZM50.892 78.082H49.618V82.03H50.626C51.578 82.03 52.2873 81.876 52.754 81.568C53.2207 81.26 53.454 80.7373 53.454 80C53.454 79.356 53.244 78.8753 52.824 78.558C52.4133 78.2407 51.7693 78.082 50.892 78.082ZM59.5086 79.37C60.4232 79.37 61.0999 79.5707 61.5386 79.972C61.9772 80.3733 62.1966 81.0127 62.1966 81.89V87H61.3006L61.0626 85.936H61.0066C60.6799 86.3467 60.3346 86.65 59.9706 86.846C59.6066 87.042 59.1119 87.14 58.4866 87.14C57.8052 87.14 57.2406 86.9627 56.7926 86.608C56.3446 86.244 56.1206 85.6793 56.1206 84.914C56.1206 84.1673 56.4146 83.5933 57.0026 83.192C57.5906 82.7813 58.4959 82.5573 59.7186 82.52L60.9926 82.478V82.03C60.9926 81.4047 60.8572 80.9707 60.5866 80.728C60.3159 80.4853 59.9332 80.364 59.4386 80.364C59.0466 80.364 58.6732 80.4247 58.3186 80.546C57.9639 80.658 57.6326 80.7887 57.3246 80.938L56.9466 80.014C57.2732 79.8367 57.6606 79.6873 58.1086 79.566C58.5566 79.4353 59.0232 79.37 59.5086 79.37ZM60.9786 83.332L59.8726 83.374C58.9392 83.4113 58.2906 83.5607 57.9266 83.822C57.5719 84.0833 57.3946 84.452 57.3946 84.928C57.3946 85.348 57.5206 85.656 57.7726 85.852C58.0339 86.048 58.3652 86.146 58.7666 86.146C59.3919 86.146 59.9146 85.9733 60.3346 85.628C60.7639 85.2733 60.9786 84.732 60.9786 84.004V83.332ZM67.0202 86.132C67.2069 86.132 67.3982 86.118 67.5942 86.09C67.7902 86.062 67.9489 86.0247 68.0702 85.978V86.916C67.9396 86.9813 67.7529 87.0327 67.5102 87.07C67.2676 87.1167 67.0342 87.14 66.8102 87.14C66.4182 87.14 66.0542 87.0747 65.7182 86.944C65.3916 86.804 65.1256 86.566 64.9202 86.23C64.7149 85.894 64.6122 85.4227 64.6122 84.816V80.448H63.5482V79.86L64.6262 79.37L65.1162 77.774H65.8442V79.496H68.0142V80.448H65.8442V84.788C65.8442 85.2453 65.9516 85.586 66.1662 85.81C66.3902 86.0247 66.6749 86.132 67.0202 86.132ZM72.0788 86.132C72.2655 86.132 72.4568 86.118 72.6528 86.09C72.8488 86.062 73.0075 86.0247 73.1288 85.978V86.916C72.9981 86.9813 72.8115 87.0327 72.5688 87.07C72.3261 87.1167 72.0928 87.14 71.8688 87.14C71.4768 87.14 71.1128 87.0747 70.7768 86.944C70.4501 86.804 70.1841 86.566 69.9788 86.23C69.7735 85.894 69.6708 85.4227 69.6708 84.816V80.448H68.6068V79.86L69.6848 79.37L70.1748 77.774H70.9028V79.496H73.0728V80.448H70.9028V84.788C70.9028 85.2453 71.0101 85.586 71.2248 85.81C71.4488 86.0247 71.7335 86.132 72.0788 86.132ZM73.4554 79.496H74.7714L76.3954 83.766C76.5354 84.1487 76.6614 84.508 76.7734 84.844C76.8854 85.18 76.9694 85.502 77.0254 85.81H77.0814C77.1374 85.5767 77.2261 85.2733 77.3474 84.9C77.4687 84.5173 77.5947 84.1347 77.7254 83.752L79.2514 79.496H80.5814L77.3474 88.036C77.0767 88.7453 76.7361 89.31 76.3254 89.73C75.9147 90.15 75.3454 90.36 74.6174 90.36C74.3934 90.36 74.1974 90.346 74.0294 90.318C73.8614 90.2993 73.7167 90.276 73.5954 90.248V89.268C73.6981 89.2867 73.8194 89.3053 73.9594 89.324C74.1087 89.3427 74.2627 89.352 74.4214 89.352C74.8507 89.352 75.1961 89.2307 75.4574 88.988C75.7187 88.7453 75.9287 88.4233 76.0874 88.022L76.4794 87.028L73.4554 79.496ZM93.5808 81.904C93.5808 83.5933 93.1188 84.8673 92.1948 85.726C91.2802 86.5753 90.0015 87 88.3588 87H85.5728V77.004H88.6528C89.6515 77.004 90.5195 77.1907 91.2568 77.564C92.0035 77.9373 92.5775 78.488 92.9788 79.216C93.3802 79.944 93.5808 80.84 93.5808 81.904ZM92.2508 81.946C92.2508 80.6113 91.9195 79.636 91.2568 79.02C90.6035 78.3947 89.6748 78.082 88.4708 78.082H86.8328V85.922H88.1908C90.8975 85.922 92.2508 84.5967 92.2508 81.946ZM102.155 83.234C102.155 84.4753 101.838 85.4367 101.203 86.118C100.578 86.7993 99.7287 87.14 98.6554 87.14C97.9927 87.14 97.4001 86.9907 96.8774 86.692C96.3641 86.384 95.9581 85.9407 95.6594 85.362C95.3607 84.774 95.2114 84.0647 95.2114 83.234C95.2114 81.9927 95.5194 81.036 96.1354 80.364C96.7607 79.692 97.6147 79.356 98.6974 79.356C99.3694 79.356 99.9667 79.51 100.489 79.818C101.012 80.1167 101.418 80.5553 101.707 81.134C102.006 81.7033 102.155 82.4033 102.155 83.234ZM96.4854 83.234C96.4854 84.1207 96.6581 84.8253 97.0034 85.348C97.3581 85.8613 97.9181 86.118 98.6834 86.118C99.4394 86.118 99.9947 85.8613 100.349 85.348C100.704 84.8253 100.881 84.1207 100.881 83.234C100.881 82.3473 100.704 81.652 100.349 81.148C99.9947 80.644 99.4347 80.392 98.6694 80.392C97.9041 80.392 97.3487 80.644 97.0034 81.148C96.6581 81.652 96.4854 82.3473 96.4854 83.234ZM105.34 87H104.108V76.36H105.34V87ZM114.241 83.234C114.241 84.4753 113.924 85.4367 113.289 86.118C112.664 86.7993 111.815 87.14 110.741 87.14C110.079 87.14 109.486 86.9907 108.963 86.692C108.45 86.384 108.044 85.9407 107.745 85.362C107.447 84.774 107.297 84.0647 107.297 83.234C107.297 81.9927 107.605 81.036 108.221 80.364C108.847 79.692 109.701 79.356 110.783 79.356C111.455 79.356 112.053 79.51 112.575 79.818C113.098 80.1167 113.504 80.5553 113.793 81.134C114.092 81.7033 114.241 82.4033 114.241 83.234ZM108.571 83.234C108.571 84.1207 108.744 84.8253 109.089 85.348C109.444 85.8613 110.004 86.118 110.769 86.118C111.525 86.118 112.081 85.8613 112.435 85.348C112.79 84.8253 112.967 84.1207 112.967 83.234C112.967 82.3473 112.79 81.652 112.435 81.148C112.081 80.644 111.521 80.392 110.755 80.392C109.99 80.392 109.435 80.644 109.089 81.148C108.744 81.652 108.571 82.3473 108.571 83.234ZM119.694 79.356C119.834 79.356 119.983 79.3653 120.142 79.384C120.301 79.3933 120.445 79.412 120.576 79.44L120.422 80.574C120.301 80.546 120.165 80.5227 120.016 80.504C119.867 80.4853 119.731 80.476 119.61 80.476C119.227 80.476 118.868 80.5833 118.532 80.798C118.196 81.0033 117.925 81.2973 117.72 81.68C117.524 82.0533 117.426 82.492 117.426 82.996V87H116.194V79.496H117.202L117.342 80.868H117.398C117.631 80.4573 117.939 80.1027 118.322 79.804C118.714 79.5053 119.171 79.356 119.694 79.356ZM124.602 79.356C125.236 79.356 125.787 79.496 126.254 79.776C126.72 80.056 127.075 80.4527 127.318 80.966C127.57 81.47 127.696 82.0627 127.696 82.744V83.486H122.558C122.576 84.3353 122.791 84.984 123.202 85.432C123.622 85.8707 124.205 86.09 124.952 86.09C125.428 86.09 125.848 86.048 126.212 85.964C126.585 85.8707 126.968 85.74 127.36 85.572V86.65C126.977 86.818 126.599 86.9393 126.226 87.014C125.852 87.098 125.409 87.14 124.896 87.14C124.177 87.14 123.547 86.9953 123.006 86.706C122.464 86.4167 122.04 85.9873 121.732 85.418C121.433 84.8487 121.284 84.144 121.284 83.304C121.284 82.4827 121.419 81.778 121.69 81.19C121.97 80.602 122.357 80.1493 122.852 79.832C123.356 79.5147 123.939 79.356 124.602 79.356ZM124.588 80.364C124 80.364 123.533 80.5553 123.188 80.938C122.852 81.3113 122.651 81.834 122.586 82.506H126.408C126.398 81.8713 126.249 81.358 125.96 80.966C125.67 80.5647 125.213 80.364 124.588 80.364ZM134.492 84.928C134.492 85.656 134.221 86.2067 133.68 86.58C133.139 86.9533 132.411 87.14 131.496 87.14C130.973 87.14 130.521 87.098 130.138 87.014C129.765 86.93 129.433 86.8133 129.144 86.664V85.544C129.443 85.6933 129.802 85.8333 130.222 85.964C130.651 86.0853 131.085 86.146 131.524 86.146C132.149 86.146 132.602 86.048 132.882 85.852C133.162 85.6467 133.302 85.376 133.302 85.04C133.302 84.8533 133.251 84.6853 133.148 84.536C133.045 84.3867 132.859 84.2373 132.588 84.088C132.327 83.9387 131.949 83.7707 131.454 83.584C130.969 83.3973 130.553 83.2107 130.208 83.024C129.863 82.8373 129.597 82.6133 129.41 82.352C129.223 82.0907 129.13 81.7547 129.13 81.344C129.13 80.7093 129.387 80.2193 129.9 79.874C130.423 79.5287 131.104 79.356 131.944 79.356C132.401 79.356 132.826 79.4027 133.218 79.496C133.619 79.5893 133.993 79.7107 134.338 79.86L133.918 80.84C133.601 80.7093 133.269 80.5973 132.924 80.504C132.579 80.4107 132.224 80.364 131.86 80.364C131.356 80.364 130.969 80.448 130.698 80.616C130.437 80.7747 130.306 80.994 130.306 81.274C130.306 81.4887 130.367 81.666 130.488 81.806C130.609 81.946 130.81 82.086 131.09 82.226C131.379 82.366 131.762 82.5247 132.238 82.702C132.714 82.8793 133.12 83.0613 133.456 83.248C133.792 83.4347 134.049 83.6633 134.226 83.934C134.403 84.1953 134.492 84.5267 134.492 84.928Z" fill="#1B77AF"/>
<line x1="31" y1="103.5" x2="231" y2="103.5" stroke="#F1F1F1"/>
<rect width="200" height="44" transform="translate(31 104)" fill="white"/>
<path d="M51.004 121.004C52.3107 121.004 53.2627 121.261 53.86 121.774C54.4573 122.287 54.756 123.011 54.756 123.944C54.756 124.495 54.63 125.013 54.378 125.498C54.1353 125.974 53.72 126.361 53.132 126.66C52.5533 126.959 51.7647 127.108 50.766 127.108H49.618V131H48.358V121.004H51.004ZM50.892 122.082H49.618V126.03H50.626C51.578 126.03 52.2873 125.876 52.754 125.568C53.2207 125.26 53.454 124.737 53.454 124C53.454 123.356 53.244 122.875 52.824 122.558C52.4133 122.241 51.7693 122.082 50.892 122.082ZM59.5086 123.37C60.4232 123.37 61.0999 123.571 61.5386 123.972C61.9772 124.373 62.1966 125.013 62.1966 125.89V131H61.3006L61.0626 129.936H61.0066C60.6799 130.347 60.3346 130.65 59.9706 130.846C59.6066 131.042 59.1119 131.14 58.4866 131.14C57.8052 131.14 57.2406 130.963 56.7926 130.608C56.3446 130.244 56.1206 129.679 56.1206 128.914C56.1206 128.167 56.4146 127.593 57.0026 127.192C57.5906 126.781 58.4959 126.557 59.7186 126.52L60.9926 126.478V126.03C60.9926 125.405 60.8572 124.971 60.5866 124.728C60.3159 124.485 59.9332 124.364 59.4386 124.364C59.0466 124.364 58.6732 124.425 58.3186 124.546C57.9639 124.658 57.6326 124.789 57.3246 124.938L56.9466 124.014C57.2732 123.837 57.6606 123.687 58.1086 123.566C58.5566 123.435 59.0232 123.37 59.5086 123.37ZM60.9786 127.332L59.8726 127.374C58.9392 127.411 58.2906 127.561 57.9266 127.822C57.5719 128.083 57.3946 128.452 57.3946 128.928C57.3946 129.348 57.5206 129.656 57.7726 129.852C58.0339 130.048 58.3652 130.146 58.7666 130.146C59.3919 130.146 59.9146 129.973 60.3346 129.628C60.7639 129.273 60.9786 128.732 60.9786 128.004V127.332ZM70.7862 123.496V131H69.7782L69.5962 130.006H69.5402C69.2976 130.398 68.9616 130.687 68.5322 130.874C68.1029 131.051 67.6456 131.14 67.1602 131.14C66.2549 131.14 65.5736 130.925 65.1162 130.496C64.6589 130.057 64.4302 129.362 64.4302 128.41V123.496H65.6762V128.326C65.6762 129.521 66.2316 130.118 67.3422 130.118C68.1729 130.118 68.7469 129.885 69.0642 129.418C69.3909 128.951 69.5542 128.279 69.5542 127.402V123.496H70.7862ZM74.4005 131H73.1685V120.36H74.4005V131ZM86.8546 131L85.6506 127.906H81.6886L80.4986 131H79.2246L83.1306 120.962H84.2646L88.1566 131H86.8546ZM85.2726 126.786L84.1526 123.762C84.1246 123.687 84.0779 123.552 84.0126 123.356C83.9473 123.16 83.8819 122.959 83.8166 122.754C83.7606 122.539 83.7139 122.376 83.6766 122.264C83.6019 122.553 83.5226 122.838 83.4386 123.118C83.3639 123.389 83.2986 123.603 83.2426 123.762L82.1086 126.786H85.2726ZM92.968 123.356C93.864 123.356 94.5407 123.575 94.998 124.014C95.4553 124.453 95.684 125.153 95.684 126.114V131H94.466V126.198C94.466 124.994 93.906 124.392 92.786 124.392C91.9553 124.392 91.3813 124.625 91.064 125.092C90.7467 125.559 90.588 126.231 90.588 127.108V131H89.356V123.496H90.35L90.532 124.518H90.602C90.8447 124.126 91.1807 123.837 91.61 123.65C92.0393 123.454 92.492 123.356 92.968 123.356ZM100.67 131.14C99.737 131.14 98.9903 130.818 98.4303 130.174C97.8703 129.521 97.5903 128.55 97.5903 127.262C97.5903 125.974 97.8703 125.003 98.4303 124.35C98.9996 123.687 99.751 123.356 100.684 123.356C101.263 123.356 101.734 123.463 102.098 123.678C102.472 123.893 102.775 124.154 103.008 124.462H103.092C103.074 124.341 103.055 124.163 103.036 123.93C103.018 123.687 103.008 123.496 103.008 123.356V120.36H104.24V131H103.246L103.064 129.992H103.008C102.784 130.309 102.486 130.58 102.112 130.804C101.739 131.028 101.258 131.14 100.67 131.14ZM100.866 130.118C101.66 130.118 102.215 129.903 102.532 129.474C102.859 129.035 103.022 128.377 103.022 127.5V127.276C103.022 126.343 102.868 125.629 102.56 125.134C102.252 124.63 101.683 124.378 100.852 124.378C100.19 124.378 99.6903 124.644 99.3543 125.176C99.0276 125.699 98.8643 126.403 98.8643 127.29C98.8643 128.186 99.0276 128.881 99.3543 129.376C99.6903 129.871 100.194 130.118 100.866 130.118ZM110.124 123.356C110.264 123.356 110.413 123.365 110.572 123.384C110.73 123.393 110.875 123.412 111.006 123.44L110.852 124.574C110.73 124.546 110.595 124.523 110.446 124.504C110.296 124.485 110.161 124.476 110.04 124.476C109.657 124.476 109.298 124.583 108.962 124.798C108.626 125.003 108.355 125.297 108.15 125.68C107.954 126.053 107.856 126.492 107.856 126.996V131H106.624V123.496H107.632L107.772 124.868H107.828C108.061 124.457 108.369 124.103 108.752 123.804C109.144 123.505 109.601 123.356 110.124 123.356ZM115.031 123.356C115.666 123.356 116.217 123.496 116.683 123.776C117.15 124.056 117.505 124.453 117.747 124.966C117.999 125.47 118.125 126.063 118.125 126.744V127.486H112.987C113.006 128.335 113.221 128.984 113.631 129.432C114.051 129.871 114.635 130.09 115.381 130.09C115.857 130.09 116.277 130.048 116.641 129.964C117.015 129.871 117.397 129.74 117.789 129.572V130.65C117.407 130.818 117.029 130.939 116.655 131.014C116.282 131.098 115.839 131.14 115.325 131.14C114.607 131.14 113.977 130.995 113.435 130.706C112.894 130.417 112.469 129.987 112.161 129.418C111.863 128.849 111.713 128.144 111.713 127.304C111.713 126.483 111.849 125.778 112.119 125.19C112.399 124.602 112.787 124.149 113.281 123.832C113.785 123.515 114.369 123.356 115.031 123.356ZM115.017 124.364C114.429 124.364 113.963 124.555 113.617 124.938C113.281 125.311 113.081 125.834 113.015 126.506H116.837C116.828 125.871 116.679 125.358 116.389 124.966C116.1 124.565 115.643 124.364 115.017 124.364ZM125.894 130.986L124.606 126.758C124.485 126.375 124.378 126.002 124.284 125.638C124.191 125.274 124.126 124.985 124.088 124.77H124.032C123.995 124.985 123.934 125.274 123.85 125.638C123.766 126.002 123.659 126.38 123.528 126.772L122.184 130.986H120.784L118.726 123.482H120L121.036 127.486C121.139 127.887 121.237 128.293 121.33 128.704C121.424 129.115 121.489 129.455 121.526 129.726H121.582C121.61 129.567 121.652 129.371 121.708 129.138C121.764 128.905 121.825 128.662 121.89 128.41C121.956 128.149 122.021 127.915 122.086 127.71L123.416 123.482H124.76L126.048 127.71C126.142 128.037 126.24 128.387 126.342 128.76C126.445 129.133 126.515 129.451 126.552 129.712H126.608C126.636 129.479 126.697 129.157 126.79 128.746C126.893 128.335 127 127.915 127.112 127.486L128.162 123.482H129.422L127.336 130.986H125.894Z" fill="#1B77AF"/>
<line x1="31" y1="147.5" x2="231" y2="147.5" stroke="#F1F1F1"/>
<rect width="200" height="44" transform="translate(31 148)" fill="white"/>
<path d="M51.116 165.004C52.3573 165.004 53.272 165.242 53.86 165.718C54.4573 166.185 54.756 166.894 54.756 167.846C54.756 168.378 54.658 168.821 54.462 169.176C54.266 169.531 54.014 169.815 53.706 170.03C53.4073 170.245 53.09 170.408 52.754 170.52L55.498 175H54.028L51.606 170.87H49.618V175H48.358V165.004H51.116ZM51.046 166.096H49.618V169.806H51.116C51.928 169.806 52.5207 169.647 52.894 169.33C53.2673 169.003 53.454 168.527 53.454 167.902C53.454 167.249 53.258 166.787 52.866 166.516C52.474 166.236 51.8673 166.096 51.046 166.096ZM63.423 171.234C63.423 172.475 63.1057 173.437 62.471 174.118C61.8457 174.799 60.9963 175.14 59.923 175.14C59.2603 175.14 58.6677 174.991 58.145 174.692C57.6317 174.384 57.2257 173.941 56.927 173.362C56.6283 172.774 56.479 172.065 56.479 171.234C56.479 169.993 56.787 169.036 57.403 168.364C58.0283 167.692 58.8823 167.356 59.965 167.356C60.637 167.356 61.2343 167.51 61.757 167.818C62.2797 168.117 62.6857 168.555 62.975 169.134C63.2737 169.703 63.423 170.403 63.423 171.234ZM57.753 171.234C57.753 172.121 57.9257 172.825 58.271 173.348C58.6257 173.861 59.1857 174.118 59.951 174.118C60.707 174.118 61.2623 173.861 61.617 173.348C61.9717 172.825 62.149 172.121 62.149 171.234C62.149 170.347 61.9717 169.652 61.617 169.148C61.2623 168.644 60.7023 168.392 59.937 168.392C59.1717 168.392 58.6163 168.644 58.271 169.148C57.9257 169.652 57.753 170.347 57.753 171.234ZM68.3855 175.14C67.7135 175.14 67.1209 175.005 66.6075 174.734C66.0942 174.463 65.6882 174.043 65.3895 173.474C65.1002 172.905 64.9555 172.177 64.9555 171.29C64.9555 170.366 65.1049 169.615 65.4035 169.036C65.7115 168.457 66.1315 168.033 66.6635 167.762C67.1955 167.491 67.7975 167.356 68.4695 167.356C68.8429 167.356 69.2069 167.398 69.5615 167.482C69.9255 167.557 70.2195 167.65 70.4435 167.762L70.0655 168.784C69.8415 168.7 69.5802 168.621 69.2815 168.546C68.9829 168.471 68.7029 168.434 68.4415 168.434C66.9669 168.434 66.2295 169.381 66.2295 171.276C66.2295 172.181 66.4069 172.877 66.7615 173.362C67.1255 173.838 67.6622 174.076 68.3715 174.076C68.7729 174.076 69.1322 174.034 69.4495 173.95C69.7669 173.866 70.0562 173.763 70.3175 173.642V174.734C70.0655 174.865 69.7855 174.963 69.4775 175.028C69.1789 175.103 68.8149 175.14 68.3855 175.14ZM73.3341 164.36V167.482C73.3341 167.855 73.3108 168.205 73.2641 168.532H73.3481C73.5908 168.149 73.9174 167.86 74.3281 167.664C74.7481 167.468 75.2008 167.37 75.6861 167.37C76.5914 167.37 77.2728 167.589 77.7301 168.028C78.1968 168.457 78.4301 169.153 78.4301 170.114V175H77.2121V170.198C77.2121 168.994 76.6521 168.392 75.5321 168.392C74.6921 168.392 74.1134 168.63 73.7961 169.106C73.4881 169.573 73.3341 170.245 73.3341 171.122V175H72.1021V164.36H73.3341ZM83.6544 167.356C84.2891 167.356 84.8397 167.496 85.3064 167.776C85.7731 168.056 86.1277 168.453 86.3704 168.966C86.6224 169.47 86.7484 170.063 86.7484 170.744V171.486H81.6104C81.6291 172.335 81.8437 172.984 82.2544 173.432C82.6744 173.871 83.2577 174.09 84.0044 174.09C84.4804 174.09 84.9004 174.048 85.2644 173.964C85.6377 173.871 86.0204 173.74 86.4124 173.572V174.65C86.0297 174.818 85.6517 174.939 85.2784 175.014C84.9051 175.098 84.4617 175.14 83.9484 175.14C83.2297 175.14 82.5997 174.995 82.0584 174.706C81.5171 174.417 81.0924 173.987 80.7844 173.418C80.4857 172.849 80.3364 172.144 80.3364 171.304C80.3364 170.483 80.4717 169.778 80.7424 169.19C81.0224 168.602 81.4097 168.149 81.9044 167.832C82.4084 167.515 82.9917 167.356 83.6544 167.356ZM83.6404 168.364C83.0524 168.364 82.5857 168.555 82.2404 168.938C81.9044 169.311 81.7037 169.834 81.6384 170.506H85.4604C85.4511 169.871 85.3017 169.358 85.0124 168.966C84.7231 168.565 84.2657 168.364 83.6404 168.364ZM89.8908 175H88.6588V164.36H89.8908V175ZM93.5001 175H92.2681V164.36H93.5001V175ZM98.7755 167.356C99.4102 167.356 99.9608 167.496 100.428 167.776C100.894 168.056 101.249 168.453 101.492 168.966C101.744 169.47 101.87 170.063 101.87 170.744V171.486H96.7315C96.7502 172.335 96.9648 172.984 97.3755 173.432C97.7955 173.871 98.3788 174.09 99.1255 174.09C99.6015 174.09 100.022 174.048 100.386 173.964C100.759 173.871 101.142 173.74 101.534 173.572V174.65C101.151 174.818 100.773 174.939 100.4 175.014C100.026 175.098 99.5828 175.14 99.0695 175.14C98.3508 175.14 97.7208 174.995 97.1795 174.706C96.6382 174.417 96.2135 173.987 95.9055 173.418C95.6068 172.849 95.4575 172.144 95.4575 171.304C95.4575 170.483 95.5928 169.778 95.8635 169.19C96.1435 168.602 96.5308 168.149 97.0255 167.832C97.5295 167.515 98.1128 167.356 98.7755 167.356ZM98.7615 168.364C98.1735 168.364 97.7068 168.555 97.3615 168.938C97.0255 169.311 96.8248 169.834 96.7595 170.506H100.582C100.572 169.871 100.423 169.358 100.134 168.966C99.8442 168.565 99.3868 168.364 98.7615 168.364ZM111.995 175L108.705 166.236H108.649C108.677 166.525 108.7 166.917 108.719 167.412C108.737 167.897 108.747 168.406 108.747 168.938V175H107.585V165.004H109.447L112.527 173.194H112.583L115.719 165.004H117.567V175H116.321V168.854C116.321 168.369 116.33 167.888 116.349 167.412C116.377 166.936 116.4 166.549 116.419 166.25H116.363L113.031 175H111.995ZM120.748 164.682C120.934 164.682 121.098 164.747 121.238 164.878C121.387 164.999 121.462 165.195 121.462 165.466C121.462 165.737 121.387 165.937 121.238 166.068C121.098 166.189 120.934 166.25 120.748 166.25C120.542 166.25 120.37 166.189 120.23 166.068C120.09 165.937 120.02 165.737 120.02 165.466C120.02 165.195 120.09 164.999 120.23 164.878C120.37 164.747 120.542 164.682 120.748 164.682ZM121.35 167.496V175H120.118V167.496H121.35ZM127.339 167.356C128.235 167.356 128.912 167.575 129.369 168.014C129.826 168.453 130.055 169.153 130.055 170.114V175H128.837V170.198C128.837 168.994 128.277 168.392 127.157 168.392C126.326 168.392 125.752 168.625 125.435 169.092C125.118 169.559 124.959 170.231 124.959 171.108V175H123.727V167.496H124.721L124.903 168.518H124.973C125.216 168.126 125.552 167.837 125.981 167.65C126.41 167.454 126.863 167.356 127.339 167.356ZM135.041 167.356C135.536 167.356 135.979 167.449 136.371 167.636C136.773 167.823 137.113 168.107 137.393 168.49H137.463L137.631 167.496H138.611V175.126C138.611 176.199 138.336 177.007 137.785 177.548C137.244 178.089 136.399 178.36 135.251 178.36C134.15 178.36 133.249 178.201 132.549 177.884V176.75C133.287 177.142 134.211 177.338 135.321 177.338C135.965 177.338 136.469 177.147 136.833 176.764C137.207 176.391 137.393 175.877 137.393 175.224V174.93C137.393 174.818 137.398 174.659 137.407 174.454C137.417 174.239 137.426 174.09 137.435 174.006H137.379C136.875 174.762 136.101 175.14 135.055 175.14C134.085 175.14 133.324 174.799 132.773 174.118C132.232 173.437 131.961 172.485 131.961 171.262C131.961 170.067 132.232 169.12 132.773 168.42C133.324 167.711 134.08 167.356 135.041 167.356ZM135.209 168.392C134.584 168.392 134.099 168.644 133.753 169.148C133.408 169.643 133.235 170.352 133.235 171.276C133.235 172.2 133.403 172.909 133.739 173.404C134.075 173.889 134.575 174.132 135.237 174.132C135.993 174.132 136.544 173.931 136.889 173.53C137.235 173.119 137.407 172.461 137.407 171.556V171.262C137.407 170.245 137.23 169.512 136.875 169.064C136.521 168.616 135.965 168.392 135.209 168.392Z" fill="#1B77AF"/>
<line x1="31" y1="191.5" x2="231" y2="191.5" stroke="#F1F1F1"/>
<rect width="200" height="44" transform="translate(31 192)" fill="white"/>
<path d="M51.522 219H50.262V210.11H47.14V209.004H54.63V210.11H51.522V219ZM56.5993 208.682C56.786 208.682 56.9493 208.747 57.0893 208.878C57.2386 208.999 57.3133 209.195 57.3133 209.466C57.3133 209.737 57.2386 209.937 57.0893 210.068C56.9493 210.189 56.786 210.25 56.5993 210.25C56.394 210.25 56.2213 210.189 56.0813 210.068C55.9413 209.937 55.8713 209.737 55.8713 209.466C55.8713 209.195 55.9413 208.999 56.0813 208.878C56.2213 208.747 56.394 208.682 56.5993 208.682ZM57.2013 211.496V219H55.9693V211.496H57.2013ZM67.8107 211.356C68.66 211.356 69.2947 211.575 69.7147 212.014C70.1347 212.453 70.3447 213.153 70.3447 214.114V219H69.1267V214.17C69.1267 212.985 68.618 212.392 67.6007 212.392C66.8727 212.392 66.35 212.602 66.0327 213.022C65.7247 213.442 65.5707 214.053 65.5707 214.856V219H64.3527V214.17C64.3527 212.985 63.8393 212.392 62.8127 212.392C62.0567 212.392 61.534 212.625 61.2447 213.092C60.9553 213.559 60.8107 214.231 60.8107 215.108V219H59.5787V211.496H60.5727L60.7547 212.518H60.8247C61.058 212.126 61.3707 211.837 61.7627 211.65C62.164 211.454 62.5887 211.356 63.0367 211.356C64.2127 211.356 64.978 211.776 65.3327 212.616H65.4027C65.6547 212.187 65.9953 211.869 66.4247 211.664C66.854 211.459 67.316 211.356 67.8107 211.356ZM79.2254 209.004C80.4667 209.004 81.3814 209.242 81.9694 209.718C82.5667 210.185 82.8654 210.894 82.8654 211.846C82.8654 212.378 82.7674 212.821 82.5714 213.176C82.3754 213.531 82.1234 213.815 81.8154 214.03C81.5167 214.245 81.1994 214.408 80.8634 214.52L83.6074 219H82.1374L79.7154 214.87H77.7274V219H76.4674V209.004H79.2254ZM79.1554 210.096H77.7274V213.806H79.2254C80.0374 213.806 80.63 213.647 81.0034 213.33C81.3767 213.003 81.5634 212.527 81.5634 211.902C81.5634 211.249 81.3674 210.787 80.9754 210.516C80.5834 210.236 79.9767 210.096 79.1554 210.096ZM87.9064 211.356C88.541 211.356 89.0917 211.496 89.5584 211.776C90.025 212.056 90.3797 212.453 90.6224 212.966C90.8744 213.47 91.0004 214.063 91.0004 214.744V215.486H85.8624C85.881 216.335 86.0957 216.984 86.5064 217.432C86.9264 217.871 87.5097 218.09 88.2564 218.09C88.7324 218.09 89.1524 218.048 89.5164 217.964C89.8897 217.871 90.2724 217.74 90.6644 217.572V218.65C90.2817 218.818 89.9037 218.939 89.5304 219.014C89.157 219.098 88.7137 219.14 88.2004 219.14C87.4817 219.14 86.8517 218.995 86.3104 218.706C85.769 218.417 85.3444 217.987 85.0364 217.418C84.7377 216.849 84.5884 216.144 84.5884 215.304C84.5884 214.483 84.7237 213.778 84.9944 213.19C85.2744 212.602 85.6617 212.149 86.1564 211.832C86.6604 211.515 87.2437 211.356 87.9064 211.356ZM87.8924 212.364C87.3044 212.364 86.8377 212.555 86.4924 212.938C86.1564 213.311 85.9557 213.834 85.8904 214.506H89.7124C89.703 213.871 89.5537 213.358 89.2644 212.966C88.975 212.565 88.5177 212.364 87.8924 212.364ZM91.4613 211.496H92.7773L94.4013 215.766C94.5413 216.149 94.6673 216.508 94.7793 216.844C94.8913 217.18 94.9753 217.502 95.0313 217.81H95.0873C95.1433 217.577 95.2319 217.273 95.3533 216.9C95.4746 216.517 95.6006 216.135 95.7313 215.752L97.2573 211.496H98.5873L95.3533 220.036C95.0826 220.745 94.7419 221.31 94.3313 221.73C93.9206 222.15 93.3513 222.36 92.6233 222.36C92.3993 222.36 92.2033 222.346 92.0353 222.318C91.8673 222.299 91.7226 222.276 91.6013 222.248V221.268C91.7039 221.287 91.8253 221.305 91.9653 221.324C92.1146 221.343 92.2686 221.352 92.4273 221.352C92.8566 221.352 93.2019 221.231 93.4633 220.988C93.7246 220.745 93.9346 220.423 94.0933 220.022L94.4853 219.028L91.4613 211.496ZM103.386 211.356C104.282 211.356 104.959 211.575 105.416 212.014C105.873 212.453 106.102 213.153 106.102 214.114V219H104.884V214.198C104.884 212.994 104.324 212.392 103.204 212.392C102.373 212.392 101.799 212.625 101.482 213.092C101.165 213.559 101.006 214.231 101.006 215.108V219H99.774V211.496H100.768L100.95 212.518H101.02C101.263 212.126 101.599 211.837 102.028 211.65C102.457 211.454 102.91 211.356 103.386 211.356ZM114.952 215.234C114.952 216.475 114.635 217.437 114 218.118C113.375 218.799 112.526 219.14 111.452 219.14C110.79 219.14 110.197 218.991 109.674 218.692C109.161 218.384 108.755 217.941 108.456 217.362C108.158 216.774 108.008 216.065 108.008 215.234C108.008 213.993 108.316 213.036 108.932 212.364C109.558 211.692 110.412 211.356 111.494 211.356C112.166 211.356 112.764 211.51 113.286 211.818C113.809 212.117 114.215 212.555 114.504 213.134C114.803 213.703 114.952 214.403 114.952 215.234ZM109.282 215.234C109.282 216.121 109.455 216.825 109.8 217.348C110.155 217.861 110.715 218.118 111.48 218.118C112.236 218.118 112.792 217.861 113.146 217.348C113.501 216.825 113.678 216.121 113.678 215.234C113.678 214.347 113.501 213.652 113.146 213.148C112.792 212.644 112.232 212.392 111.466 212.392C110.701 212.392 110.146 212.644 109.8 213.148C109.455 213.652 109.282 214.347 109.282 215.234ZM118.137 219H116.905V208.36H118.137V219ZM123.174 219.14C122.241 219.14 121.494 218.818 120.934 218.174C120.374 217.521 120.094 216.55 120.094 215.262C120.094 213.974 120.374 213.003 120.934 212.35C121.504 211.687 122.255 211.356 123.188 211.356C123.767 211.356 124.238 211.463 124.602 211.678C124.976 211.893 125.279 212.154 125.512 212.462H125.596C125.578 212.341 125.559 212.163 125.54 211.93C125.522 211.687 125.512 211.496 125.512 211.356V208.36H126.744V219H125.75L125.568 217.992H125.512C125.288 218.309 124.99 218.58 124.616 218.804C124.243 219.028 123.762 219.14 123.174 219.14ZM123.37 218.118C124.164 218.118 124.719 217.903 125.036 217.474C125.363 217.035 125.526 216.377 125.526 215.5V215.276C125.526 214.343 125.372 213.629 125.064 213.134C124.756 212.63 124.187 212.378 123.356 212.378C122.694 212.378 122.194 212.644 121.858 213.176C121.532 213.699 121.368 214.403 121.368 215.29C121.368 216.186 121.532 216.881 121.858 217.376C122.194 217.871 122.698 218.118 123.37 218.118ZM134.014 216.928C134.014 217.656 133.743 218.207 133.202 218.58C132.66 218.953 131.932 219.14 131.018 219.14C130.495 219.14 130.042 219.098 129.66 219.014C129.286 218.93 128.955 218.813 128.666 218.664V217.544C128.964 217.693 129.324 217.833 129.744 217.964C130.173 218.085 130.607 218.146 131.046 218.146C131.671 218.146 132.124 218.048 132.404 217.852C132.684 217.647 132.824 217.376 132.824 217.04C132.824 216.853 132.772 216.685 132.67 216.536C132.567 216.387 132.38 216.237 132.11 216.088C131.848 215.939 131.47 215.771 130.976 215.584C130.49 215.397 130.075 215.211 129.73 215.024C129.384 214.837 129.118 214.613 128.932 214.352C128.745 214.091 128.652 213.755 128.652 213.344C128.652 212.709 128.908 212.219 129.422 211.874C129.944 211.529 130.626 211.356 131.466 211.356C131.923 211.356 132.348 211.403 132.74 211.496C133.141 211.589 133.514 211.711 133.86 211.86L133.44 212.84C133.122 212.709 132.791 212.597 132.446 212.504C132.1 212.411 131.746 212.364 131.382 212.364C130.878 212.364 130.49 212.448 130.22 212.616C129.958 212.775 129.828 212.994 129.828 213.274C129.828 213.489 129.888 213.666 130.01 213.806C130.131 213.946 130.332 214.086 130.612 214.226C130.901 214.366 131.284 214.525 131.76 214.702C132.236 214.879 132.642 215.061 132.978 215.248C133.314 215.435 133.57 215.663 133.748 215.934C133.925 216.195 134.014 216.527 134.014 216.928Z" fill="#1B77AF"/>
<line x1="31" y1="235.5" x2="231" y2="235.5" stroke="#F1F1F1"/>
<g filter="url(#filter0_d_9160_136981)">
<mask id="path-16-outside-1_9160_136981" maskUnits="userSpaceOnUse" x="178" y="40" width="16" height="19" fill="black">
<rect fill="white" x="178" y="40" width="16" height="19"/>
<path fill-rule="evenodd" clip-rule="evenodd" d="M182.836 51L181.949 49.6453C181.344 48.7203 180.054 48.3829 179.068 48.89L179.298 48.7718C179.053 48.8977 178.935 49.2114 179.036 49.4721L180.263 52.6474C180.458 53.1508 180.955 53.8627 181.367 54.2203C181.367 54.2203 183.836 56.2639 183.836 57.03V58H187.836L188.836 56L189.836 58H190.836V57.03C190.836 56.2639 192.344 53.8507 192.344 53.8507C192.622 53.3816 192.854 52.5552 192.854 52.0066V47.9718C192.836 47.0785 192.076 46.3545 191.139 46.3545C190.671 46.3545 190.291 46.7165 190.291 47.1634V47.4866C190.291 46.5933 189.532 45.8693 188.595 45.8693C188.126 45.8693 187.746 46.2313 187.746 46.6782V47.0013C187.746 46.108 186.987 45.3841 186.05 45.3841C185.581 45.3841 185.201 45.7461 185.201 46.193V46.5161C185.201 46.3726 185.186 46.2584 185.157 46.168L184.898 42.0012C184.863 41.4378 184.388 41 183.836 41C183.279 41 182.836 41.4476 182.836 41.9998V46V51ZM189.854 50L190.854 50V54H189.854V50ZM187.854 50L188.854 50V54H187.854V50ZM185.854 50L186.854 50V54H185.854V50Z"/>
</mask>
<path fill-rule="evenodd" clip-rule="evenodd" d="M182.836 51L181.949 49.6453C181.344 48.7203 180.054 48.3829 179.068 48.89L179.298 48.7718C179.053 48.8977 178.935 49.2114 179.036 49.4721L180.263 52.6474C180.458 53.1508 180.955 53.8627 181.367 54.2203C181.367 54.2203 183.836 56.2639 183.836 57.03V58H187.836L188.836 56L189.836 58H190.836V57.03C190.836 56.2639 192.344 53.8507 192.344 53.8507C192.622 53.3816 192.854 52.5552 192.854 52.0066V47.9718C192.836 47.0785 192.076 46.3545 191.139 46.3545C190.671 46.3545 190.291 46.7165 190.291 47.1634V47.4866C190.291 46.5933 189.532 45.8693 188.595 45.8693C188.126 45.8693 187.746 46.2313 187.746 46.6782V47.0013C187.746 46.108 186.987 45.3841 186.05 45.3841C185.581 45.3841 185.201 45.7461 185.201 46.193V46.5161C185.201 46.3726 185.186 46.2584 185.157 46.168L184.898 42.0012C184.863 41.4378 184.388 41 183.836 41C183.279 41 182.836 41.4476 182.836 41.9998V46V51ZM189.854 50L190.854 50V54H189.854V50ZM187.854 50L188.854 50V54H187.854V50ZM185.854 50L186.854 50V54H185.854V50Z" fill="white"/>
<path d="M182.836 51L181.999 51.5476L183.836 54.354V51H182.836ZM181.949 49.6453L182.786 49.0977L181.949 49.6453ZM179.036 49.4721L178.103 49.8327L179.036 49.4721ZM180.263 52.6474L181.196 52.2869L180.263 52.6474ZM181.367 54.2203L180.711 54.9753L180.72 54.9831L180.729 54.9907L181.367 54.2203ZM183.836 58H182.836V59H183.836V58ZM187.836 58V59H188.454L188.73 58.4472L187.836 58ZM188.836 56L189.73 55.5528L188.836 53.7639L187.941 55.5528L188.836 56ZM189.836 58L188.941 58.4472L189.218 59H189.836V58ZM190.836 58V59H191.836V58H190.836ZM192.344 53.8507L193.192 54.3808L193.199 54.3706L193.205 54.3602L192.344 53.8507ZM192.854 47.9718H193.854V47.9617L193.853 47.9516L192.854 47.9718ZM185.157 46.168L184.158 46.23L184.166 46.3578L184.206 46.4795L185.157 46.168ZM184.898 42.0012L183.9 42.0632V42.0632L184.898 42.0012ZM182.836 41.9998H181.836H182.836ZM190.854 50H191.854V49H190.854V50ZM190.854 54V55H191.854V54H190.854ZM189.854 54H188.854V55H189.854V54ZM189.854 50V49H188.854V50H189.854ZM188.854 50H189.854V49H188.854V50ZM188.854 54V55H189.854V54H188.854ZM187.854 54H186.854V55H187.854V54ZM187.854 50V49H186.854V50H187.854ZM186.854 50H187.854V49H186.854V50ZM186.854 54V55H187.854V54H186.854ZM185.854 54H184.854V55H185.854V54ZM185.854 50V49H184.854V50H185.854ZM183.672 50.4524L182.786 49.0977L181.112 50.193L181.999 51.5476L183.672 50.4524ZM182.786 49.0977C181.898 47.7415 180.049 47.2611 178.61 48.0006L179.525 49.7793C180.059 49.5047 180.789 49.6992 181.112 50.193L182.786 49.0977ZM179.525 49.7793L179.755 49.6612L178.84 47.8825L178.61 48.0006L179.525 49.7793ZM178.84 47.8825C178.131 48.2471 177.822 49.1052 178.103 49.8327L179.969 49.1116C180.014 49.2295 180.005 49.3396 179.974 49.4213C179.944 49.5027 179.876 49.5986 179.755 49.6612L178.84 47.8825ZM178.103 49.8327L179.331 53.0079L181.196 52.2869L179.969 49.1116L178.103 49.8327ZM179.331 53.0079C179.583 53.6618 180.175 54.5096 180.711 54.9753L182.022 53.4653C181.735 53.2158 181.333 52.6398 181.196 52.2869L179.331 53.0079ZM181.367 54.2203C180.729 54.9907 180.729 54.9906 180.729 54.9906C180.729 54.9906 180.729 54.9905 180.729 54.9905C180.729 54.9905 180.729 54.9905 180.729 54.9906C180.729 54.9907 180.729 54.9909 180.73 54.9912C180.73 54.9919 180.732 54.993 180.734 54.9947C180.738 54.9979 180.744 55.003 180.752 55.0099C180.768 55.0237 180.793 55.0445 180.825 55.0716C180.889 55.1259 180.981 55.205 181.092 55.3025C181.315 55.4985 181.609 55.7648 181.9 56.051C182.196 56.3416 182.468 56.6324 182.659 56.8795C182.755 57.0037 182.813 57.0948 182.843 57.1524C182.884 57.23 182.836 57.1741 182.836 57.03H184.836C184.836 56.6944 184.71 56.407 184.616 56.2262C184.511 56.0255 184.376 55.8312 184.241 55.6561C183.969 55.3045 183.624 54.9407 183.302 54.6247C182.976 54.3042 182.653 54.0118 182.413 53.8007C182.292 53.6947 182.191 53.6081 182.12 53.5476C182.085 53.5174 182.056 53.4935 182.037 53.477C182.027 53.4687 182.019 53.4623 182.014 53.4577C182.011 53.4555 182.009 53.4537 182.007 53.4524C182.006 53.4517 182.006 53.4512 182.005 53.4508C182.005 53.4506 182.005 53.4504 182.005 53.4503C182.005 53.4502 182.004 53.4501 182.004 53.4501C182.004 53.45 182.004 53.45 181.367 54.2203ZM182.836 57.03V58H184.836V57.03H182.836ZM183.836 59H187.836V57H183.836V59ZM188.73 58.4472L189.73 56.4472L187.941 55.5528L186.941 57.5528L188.73 58.4472ZM187.941 56.4472L188.941 58.4472L190.73 57.5528L189.73 55.5528L187.941 56.4472ZM189.836 59H190.836V57H189.836V59ZM191.836 58V57.03H189.836V58H191.836ZM191.836 57.03C191.836 57.0658 191.846 56.9439 191.992 56.6C192.116 56.3073 192.288 55.9649 192.47 55.6279C192.65 55.2941 192.831 54.9809 192.968 54.7503C193.037 54.6354 193.093 54.5418 193.133 54.4775C193.152 54.4453 193.168 54.4206 193.178 54.4041C193.183 54.3959 193.187 54.3897 193.189 54.3858C193.19 54.3839 193.191 54.3825 193.192 54.3816C193.192 54.3812 193.192 54.3809 193.192 54.3808C193.192 54.3807 193.192 54.3807 193.192 54.3807C193.192 54.3807 193.192 54.3807 193.192 54.3807C193.192 54.3808 193.192 54.3808 192.344 53.8507C191.496 53.3205 191.496 53.3206 191.496 53.3207C191.496 53.3207 191.496 53.3208 191.496 53.3209C191.496 53.321 191.496 53.3212 191.496 53.3214C191.496 53.3219 191.495 53.3225 191.495 53.3232C191.494 53.3247 191.493 53.3268 191.491 53.3294C191.488 53.3347 191.483 53.3422 191.477 53.3518C191.465 53.3711 191.448 53.3989 191.426 53.4342C191.383 53.5049 191.322 53.6059 191.249 53.7291C191.103 53.9749 190.907 54.3129 190.71 54.6782C190.515 55.0402 190.309 55.4448 190.15 55.82C190.013 56.1441 189.836 56.6111 189.836 57.03H191.836ZM193.205 54.3602C193.403 54.0261 193.559 53.6131 193.667 53.2258C193.774 52.839 193.854 52.4009 193.854 52.0066H191.854C191.854 52.161 191.817 52.4103 191.74 52.6912C191.662 52.9714 191.564 53.2061 191.484 53.3412L193.205 54.3602ZM193.854 52.0066V47.9718H191.854V52.0066H193.854ZM193.853 47.9516C193.824 46.4818 192.588 45.3545 191.139 45.3545V47.3545C191.565 47.3545 191.847 47.6752 191.854 47.992L193.853 47.9516ZM191.139 45.3545C190.164 45.3545 189.291 46.1198 189.291 47.1634H191.291C191.291 47.2317 191.26 47.2858 191.229 47.3152C191.199 47.3437 191.165 47.3545 191.139 47.3545V45.3545ZM189.291 47.1634V47.4866H191.291V47.1634H189.291ZM191.291 47.4866C191.291 45.9966 190.038 44.8693 188.595 44.8693V46.8693C189.025 46.8693 189.291 47.19 189.291 47.4866H191.291ZM188.595 44.8693C187.619 44.8693 186.746 45.6346 186.746 46.6782H188.746C188.746 46.7465 188.715 46.8005 188.685 46.8299C188.655 46.8585 188.621 46.8693 188.595 46.8693V44.8693ZM186.746 46.6782V47.0013H188.746V46.6782H186.746ZM188.746 47.0013C188.746 45.5113 187.494 44.3841 186.05 44.3841V46.3841C186.48 46.3841 186.746 46.7047 186.746 47.0013H188.746ZM186.05 44.3841C185.074 44.3841 184.201 45.1494 184.201 46.193H186.201C186.201 46.2613 186.171 46.3153 186.14 46.3447C186.11 46.3733 186.076 46.3841 186.05 46.3841V44.3841ZM184.201 46.193V46.5161H186.201V46.193H184.201ZM186.201 46.5161C186.201 46.3088 186.18 46.0809 186.107 45.8565L184.206 46.4795C184.198 46.4555 184.198 46.4444 184.199 46.4516C184.199 46.4587 184.201 46.4791 184.201 46.5161H186.201ZM186.155 46.106L185.896 41.9392L183.9 42.0632L184.158 46.23L186.155 46.106ZM185.896 41.9392C185.828 40.845 184.912 40 183.836 40V42C183.844 42 183.86 42.0035 183.877 42.0193C183.893 42.0344 183.899 42.0498 183.9 42.0632L185.896 41.9392ZM183.836 40C182.725 40 181.836 40.8977 181.836 41.9998H183.836V42V40ZM181.836 41.9998V46H183.836V41.9998H181.836ZM181.836 46V51H183.836V46H181.836ZM189.854 51H190.854V49H189.854V51ZM189.854 50V54H191.854V50H189.854ZM190.854 53H189.854V55H190.854V53ZM190.854 54V50H188.854V54H190.854ZM187.854 51H188.854V49H187.854V51ZM187.854 50V54H189.854V50H187.854ZM188.854 53H187.854V55H188.854V53ZM188.854 54V50H186.854V54H188.854ZM185.854 51H186.854V49H185.854V51ZM185.854 50V54H187.854V50H185.854ZM186.854 53H185.854V55H186.854V53ZM186.854 54V50H184.854V54H186.854Z" fill="black" fill-opacity="0.8" mask="url(#path-16-outside-1_9160_136981)"/>
</g>
<rect width="150" height="44" transform="translate(231 16)" fill="white"/>
<path d="M254.476 43L253.566 40.354H249.8L248.904 43H247L250.668 32.962H252.712L256.38 43H254.476ZM253.104 38.814L252.236 36.238C252.199 36.1167 252.143 35.944 252.068 35.72C251.993 35.4867 251.923 35.2533 251.858 35.02C251.793 34.7773 251.737 34.5767 251.69 34.418C251.643 34.614 251.583 34.8333 251.508 35.076C251.443 35.3187 251.377 35.5473 251.312 35.762C251.256 35.9767 251.209 36.1353 251.172 36.238L250.29 38.814H253.104ZM260.075 35.272C261.055 35.272 261.806 35.6453 262.329 36.392H262.399L262.567 35.412H264.037V43.056C264.037 44.1387 263.733 44.96 263.127 45.52C262.52 46.08 261.605 46.36 260.383 46.36C259.841 46.36 259.342 46.3227 258.885 46.248C258.427 46.1827 257.993 46.066 257.583 45.898V44.442C258.012 44.6287 258.469 44.7733 258.955 44.876C259.449 44.9787 259.963 45.03 260.495 45.03C261.064 45.03 261.503 44.8667 261.811 44.54C262.119 44.2227 262.273 43.756 262.273 43.14V42.944C262.273 42.804 262.277 42.6407 262.287 42.454C262.296 42.2673 262.31 42.118 262.329 42.006H262.273C262.011 42.398 261.689 42.6873 261.307 42.874C260.933 43.0513 260.509 43.14 260.033 43.14C259.109 43.14 258.385 42.7947 257.863 42.104C257.34 41.4133 257.079 40.452 257.079 39.22C257.079 37.988 257.34 37.022 257.863 36.322C258.395 35.622 259.132 35.272 260.075 35.272ZM260.537 36.714C259.435 36.714 258.885 37.5587 258.885 39.248C258.885 40.9093 259.445 41.74 260.565 41.74C261.181 41.74 261.633 41.572 261.923 41.236C262.221 40.8907 262.371 40.312 262.371 39.5V39.234C262.371 38.338 262.221 37.694 261.923 37.302C261.633 36.91 261.171 36.714 260.537 36.714ZM269.342 35.272C270.36 35.272 271.162 35.5753 271.75 36.182C272.348 36.7887 272.646 37.6333 272.646 38.716V39.612H267.634C267.653 40.3027 267.844 40.8393 268.208 41.222C268.572 41.5953 269.076 41.782 269.72 41.782C270.206 41.782 270.644 41.7353 271.036 41.642C271.428 41.5393 271.83 41.3947 272.24 41.208V42.622C271.867 42.7993 271.48 42.93 271.078 43.014C270.677 43.098 270.196 43.14 269.636 43.14C268.89 43.14 268.232 43 267.662 42.72C267.093 42.4307 266.645 42.0013 266.318 41.432C266.001 40.8533 265.842 40.13 265.842 39.262C265.842 37.9647 266.16 36.9753 266.794 36.294C267.438 35.6127 268.288 35.272 269.342 35.272ZM269.342 36.574C268.866 36.574 268.479 36.728 268.18 37.036C267.891 37.3347 267.723 37.7827 267.676 38.38H270.938C270.929 37.8573 270.794 37.428 270.532 37.092C270.28 36.7467 269.884 36.574 269.342 36.574ZM278.485 35.272C279.334 35.272 279.997 35.4913 280.473 35.93C280.958 36.3687 281.201 37.078 281.201 38.058V43H279.437V38.408C279.437 37.8387 279.325 37.414 279.101 37.134C278.877 36.8447 278.522 36.7 278.037 36.7C277.328 36.7 276.842 36.924 276.581 37.372C276.32 37.82 276.189 38.4593 276.189 39.29V43H274.425V35.412H275.783L276.035 36.406H276.133C276.376 36.014 276.707 35.7293 277.127 35.552C277.556 35.3653 278.009 35.272 278.485 35.272ZM286.347 41.726C286.562 41.726 286.772 41.7073 286.977 41.67C287.192 41.6233 287.388 41.572 287.565 41.516V42.832C287.379 42.9253 287.136 43 286.837 43.056C286.539 43.112 286.226 43.14 285.899 43.14C285.461 43.14 285.064 43.07 284.709 42.93C284.364 42.79 284.089 42.5427 283.883 42.188C283.678 41.8333 283.575 41.334 283.575 40.69V36.742H282.553V35.972L283.673 35.356L284.233 33.746H285.339V35.412H287.495V36.742H285.339V40.676C285.339 41.0307 285.433 41.2967 285.619 41.474C285.815 41.642 286.058 41.726 286.347 41.726ZM296.288 43H292.088V41.978L293.292 41.53V34.488L292.088 34.026V33.004H296.288V34.026L295.084 34.488V41.53L296.288 41.978V43ZM306.257 37.904C306.257 39.5933 305.786 40.8673 304.843 41.726C303.901 42.5753 302.585 43 300.895 43H298.081V33.004H301.189C302.225 33.004 303.121 33.1907 303.877 33.564C304.633 33.9373 305.217 34.488 305.627 35.216C306.047 35.944 306.257 36.84 306.257 37.904ZM304.381 37.96C304.381 36.7653 304.106 35.888 303.555 35.328C303.005 34.768 302.216 34.488 301.189 34.488H299.873V41.502H300.951C303.238 41.502 304.381 40.3213 304.381 37.96Z" fill="black"/>
<line x1="231" y1="16.5" x2="381" y2="16.5" stroke="#C9C9C9"/>
<line x1="231" y1="59.5" x2="381" y2="59.5" stroke="#C9C9C9"/>
<rect width="150" height="44" transform="translate(231 60)" fill="white"/>
<path d="M251.97 87H250.766V80.014C250.766 79.6127 250.771 79.2907 250.78 79.048C250.789 78.8053 250.803 78.5533 250.822 78.292C250.673 78.4413 250.533 78.5673 250.402 78.67C250.281 78.7727 250.131 78.9033 249.954 79.062L248.89 79.93L248.246 79.104L250.948 77.004H251.97V87ZM261.914 79.342C261.914 80.014 261.722 80.5507 261.34 80.952C260.966 81.344 260.467 81.6053 259.842 81.736V81.792C260.635 81.8853 261.228 82.1373 261.62 82.548C262.021 82.9587 262.222 83.4953 262.222 84.158C262.222 84.746 262.086 85.264 261.816 85.712C261.545 86.16 261.125 86.51 260.556 86.762C259.996 87.014 259.272 87.14 258.386 87.14C257.863 87.14 257.378 87.098 256.93 87.014C256.482 86.9393 256.052 86.7993 255.642 86.594V85.446C256.062 85.6607 256.514 85.824 257 85.936C257.485 86.048 257.952 86.104 258.4 86.104C259.296 86.104 259.94 85.9313 260.332 85.586C260.733 85.2313 260.934 84.746 260.934 84.13C260.934 83.5047 260.686 83.0567 260.192 82.786C259.706 82.506 259.02 82.366 258.134 82.366H257.168V81.316H258.148C258.969 81.316 259.59 81.1433 260.01 80.798C260.439 80.4527 260.654 79.9953 260.654 79.426C260.654 78.9407 260.49 78.5673 260.164 78.306C259.837 78.0353 259.394 77.9 258.834 77.9C258.292 77.9 257.83 77.9793 257.448 78.138C257.065 78.2967 256.687 78.4973 256.314 78.74L255.698 77.9C256.052 77.62 256.491 77.3773 257.014 77.172C257.546 76.9667 258.148 76.864 258.82 76.864C259.865 76.864 260.64 77.0973 261.144 77.564C261.657 78.0307 261.914 78.6233 261.914 79.342ZM263.793 82.73C263.793 82.0113 263.854 81.3067 263.975 80.616C264.106 79.916 264.335 79.286 264.661 78.726C264.997 78.1567 265.464 77.704 266.061 77.368C266.659 77.032 267.429 76.864 268.371 76.864C268.567 76.864 268.782 76.8733 269.015 76.892C269.258 76.9107 269.454 76.9433 269.603 76.99V78.04C269.435 77.984 269.244 77.942 269.029 77.914C268.815 77.886 268.605 77.872 268.399 77.872C267.755 77.872 267.219 77.9793 266.789 78.194C266.36 78.4087 266.019 78.7027 265.767 79.076C265.525 79.4493 265.347 79.8787 265.235 80.364C265.123 80.8493 265.053 81.3673 265.025 81.918H265.109C265.324 81.5913 265.623 81.316 266.005 81.092C266.388 80.8587 266.878 80.742 267.475 80.742C268.343 80.742 269.043 81.008 269.575 81.54C270.107 82.0627 270.373 82.8093 270.373 83.78C270.373 84.8253 270.084 85.6467 269.505 86.244C268.936 86.8413 268.166 87.14 267.195 87.14C266.561 87.14 265.987 86.9813 265.473 86.664C264.96 86.3467 264.549 85.8613 264.241 85.208C263.943 84.5547 263.793 83.7287 263.793 82.73ZM267.181 86.104C267.769 86.104 268.245 85.9173 268.609 85.544C268.973 85.1613 269.155 84.5733 269.155 83.78C269.155 83.1453 268.992 82.6413 268.665 82.268C268.348 81.8947 267.867 81.708 267.223 81.708C266.785 81.708 266.402 81.8013 266.075 81.988C265.749 82.1653 265.492 82.3987 265.305 82.688C265.128 82.968 265.039 83.2527 265.039 83.542C265.039 83.9433 265.119 84.3447 265.277 84.746C265.436 85.138 265.674 85.4647 265.991 85.726C266.309 85.978 266.705 86.104 267.181 86.104ZM278.763 84.732H277.307V87H276.117V84.732H271.329V83.682L276.033 76.948H277.307V83.626H278.763V84.732ZM276.117 83.626V80.476C276.117 79.9907 276.122 79.58 276.131 79.244C276.15 78.8987 276.168 78.572 276.187 78.264H276.131C276.056 78.4413 275.963 78.6327 275.851 78.838C275.739 79.0433 275.632 79.216 275.529 79.356L272.533 83.626H276.117ZM282.897 80.868C283.914 80.868 284.726 81.1247 285.333 81.638C285.949 82.1513 286.257 82.8747 286.257 83.808C286.257 84.844 285.926 85.6607 285.263 86.258C284.61 86.846 283.695 87.14 282.519 87.14C281.996 87.14 281.511 87.0933 281.063 87C280.615 86.9067 280.237 86.7713 279.929 86.594V85.432C280.265 85.6373 280.671 85.8007 281.147 85.922C281.632 86.034 282.094 86.09 282.533 86.09C283.27 86.09 283.863 85.9173 284.311 85.572C284.768 85.2173 284.997 84.6713 284.997 83.934C284.997 83.2807 284.796 82.7813 284.395 82.436C283.994 82.0813 283.359 81.904 282.491 81.904C282.23 81.904 281.931 81.9273 281.595 81.974C281.259 82.0207 280.988 82.0673 280.783 82.114L280.167 81.722L280.545 77.004H285.557V78.124H281.595L281.357 81.022C281.516 80.994 281.73 80.9613 282.001 80.924C282.272 80.8867 282.57 80.868 282.897 80.868ZM292.029 87H290.825V80.014C290.825 79.6127 290.829 79.2907 290.839 79.048C290.848 78.8053 290.862 78.5533 290.881 78.292C290.731 78.4413 290.591 78.5673 290.461 78.67C290.339 78.7727 290.19 78.9033 290.013 79.062L288.949 79.93L288.305 79.104L291.007 77.004H292.029V87Z" fill="black"/>
<line x1="231" y1="103.5" x2="381" y2="103.5" stroke="#F1F1F1"/>
<rect width="150" height="44" transform="translate(231 104)" fill="white"/>
<path d="M251.97 131H250.766V124.014C250.766 123.613 250.771 123.291 250.78 123.048C250.789 122.805 250.803 122.553 250.822 122.292C250.673 122.441 250.533 122.567 250.402 122.67C250.281 122.773 250.131 122.903 249.954 123.062L248.89 123.93L248.246 123.104L250.948 121.004H251.97V131ZM258.862 124.868C259.879 124.868 260.691 125.125 261.298 125.638C261.914 126.151 262.222 126.875 262.222 127.808C262.222 128.844 261.89 129.661 261.228 130.258C260.574 130.846 259.66 131.14 258.484 131.14C257.961 131.14 257.476 131.093 257.028 131C256.58 130.907 256.202 130.771 255.894 130.594V129.432C256.23 129.637 256.636 129.801 257.112 129.922C257.597 130.034 258.059 130.09 258.498 130.09C259.235 130.09 259.828 129.917 260.276 129.572C260.733 129.217 260.962 128.671 260.962 127.934C260.962 127.281 260.761 126.781 260.36 126.436C259.958 126.081 259.324 125.904 258.456 125.904C258.194 125.904 257.896 125.927 257.56 125.974C257.224 126.021 256.953 126.067 256.748 126.114L256.132 125.722L256.51 121.004H261.522V122.124H257.56L257.322 125.022C257.48 124.994 257.695 124.961 257.966 124.924C258.236 124.887 258.535 124.868 258.862 124.868ZM269.925 123.342C269.925 124.014 269.734 124.551 269.351 124.952C268.978 125.344 268.479 125.605 267.853 125.736V125.792C268.647 125.885 269.239 126.137 269.631 126.548C270.033 126.959 270.233 127.495 270.233 128.158C270.233 128.746 270.098 129.264 269.827 129.712C269.557 130.16 269.137 130.51 268.567 130.762C268.007 131.014 267.284 131.14 266.397 131.14C265.875 131.14 265.389 131.098 264.941 131.014C264.493 130.939 264.064 130.799 263.653 130.594V129.446C264.073 129.661 264.526 129.824 265.011 129.936C265.497 130.048 265.963 130.104 266.411 130.104C267.307 130.104 267.951 129.931 268.343 129.586C268.745 129.231 268.945 128.746 268.945 128.13C268.945 127.505 268.698 127.057 268.203 126.786C267.718 126.506 267.032 126.366 266.145 126.366H265.179V125.316H266.159C266.981 125.316 267.601 125.143 268.021 124.798C268.451 124.453 268.665 123.995 268.665 123.426C268.665 122.941 268.502 122.567 268.175 122.306C267.849 122.035 267.405 121.9 266.845 121.9C266.304 121.9 265.842 121.979 265.459 122.138C265.077 122.297 264.699 122.497 264.325 122.74L263.709 121.9C264.064 121.62 264.503 121.377 265.025 121.172C265.557 120.967 266.159 120.864 266.831 120.864C267.877 120.864 268.651 121.097 269.155 121.564C269.669 122.031 269.925 122.623 269.925 123.342ZM277.937 123.342C277.937 124.014 277.746 124.551 277.363 124.952C276.99 125.344 276.49 125.605 275.865 125.736V125.792C276.658 125.885 277.251 126.137 277.643 126.548C278.044 126.959 278.245 127.495 278.245 128.158C278.245 128.746 278.11 129.264 277.839 129.712C277.568 130.16 277.148 130.51 276.579 130.762C276.019 131.014 275.296 131.14 274.409 131.14C273.886 131.14 273.401 131.098 272.953 131.014C272.505 130.939 272.076 130.799 271.665 130.594V129.446C272.085 129.661 272.538 129.824 273.023 129.936C273.508 130.048 273.975 130.104 274.423 130.104C275.319 130.104 275.963 129.931 276.355 129.586C276.756 129.231 276.957 128.746 276.957 128.13C276.957 127.505 276.71 127.057 276.215 126.786C275.73 126.506 275.044 126.366 274.157 126.366H273.191V125.316H274.171C274.992 125.316 275.613 125.143 276.033 124.798C276.462 124.453 276.677 123.995 276.677 123.426C276.677 122.941 276.514 122.567 276.187 122.306C275.86 122.035 275.417 121.9 274.857 121.9C274.316 121.9 273.854 121.979 273.471 122.138C273.088 122.297 272.71 122.497 272.337 122.74L271.721 121.9C272.076 121.62 272.514 121.377 273.037 121.172C273.569 120.967 274.171 120.864 274.843 120.864C275.888 120.864 276.663 121.097 277.167 121.564C277.68 122.031 277.937 122.623 277.937 123.342ZM286.775 128.732H285.319V131H284.129V128.732H279.341V127.682L284.045 120.948H285.319V127.626H286.775V128.732ZM284.129 127.626V124.476C284.129 123.991 284.134 123.58 284.143 123.244C284.162 122.899 284.18 122.572 284.199 122.264H284.143C284.068 122.441 283.975 122.633 283.863 122.838C283.751 123.043 283.644 123.216 283.541 123.356L280.545 127.626H284.129ZM290.909 124.868C291.926 124.868 292.738 125.125 293.345 125.638C293.961 126.151 294.269 126.875 294.269 127.808C294.269 128.844 293.937 129.661 293.275 130.258C292.621 130.846 291.707 131.14 290.531 131.14C290.008 131.14 289.523 131.093 289.075 131C288.627 130.907 288.249 130.771 287.941 130.594V129.432C288.277 129.637 288.683 129.801 289.159 129.922C289.644 130.034 290.106 130.09 290.545 130.09C291.282 130.09 291.875 129.917 292.323 129.572C292.78 129.217 293.009 128.671 293.009 127.934C293.009 127.281 292.808 126.781 292.407 126.436C292.005 126.081 291.371 125.904 290.503 125.904C290.241 125.904 289.943 125.927 289.607 125.974C289.271 126.021 289 126.067 288.795 126.114L288.179 125.722L288.557 121.004H293.569V122.124H289.607L289.369 125.022C289.527 124.994 289.742 124.961 290.013 124.924C290.283 124.887 290.582 124.868 290.909 124.868Z" fill="black"/>
<line x1="231" y1="147.5" x2="381" y2="147.5" stroke="#F1F1F1"/>
<rect width="150" height="44" transform="translate(231 148)" fill="white"/>
<path d="M254.28 175H247.672V173.978L250.29 171.332C250.785 170.828 251.205 170.38 251.55 169.988C251.905 169.596 252.171 169.213 252.348 168.84C252.525 168.467 252.614 168.051 252.614 167.594C252.614 167.043 252.451 166.628 252.124 166.348C251.797 166.059 251.373 165.914 250.85 165.914C250.355 165.914 249.926 165.998 249.562 166.166C249.198 166.334 248.825 166.567 248.442 166.866L247.784 166.04C248.176 165.713 248.624 165.438 249.128 165.214C249.641 164.981 250.215 164.864 250.85 164.864C251.783 164.864 252.521 165.102 253.062 165.578C253.603 166.054 253.874 166.703 253.874 167.524C253.874 168.047 253.767 168.537 253.552 168.994C253.337 169.451 253.039 169.904 252.656 170.352C252.273 170.8 251.825 171.271 251.312 171.766L249.226 173.824V173.88H254.28V175ZM261.914 167.342C261.914 168.014 261.722 168.551 261.34 168.952C260.966 169.344 260.467 169.605 259.842 169.736V169.792C260.635 169.885 261.228 170.137 261.62 170.548C262.021 170.959 262.222 171.495 262.222 172.158C262.222 172.746 262.086 173.264 261.816 173.712C261.545 174.16 261.125 174.51 260.556 174.762C259.996 175.014 259.272 175.14 258.386 175.14C257.863 175.14 257.378 175.098 256.93 175.014C256.482 174.939 256.052 174.799 255.642 174.594V173.446C256.062 173.661 256.514 173.824 257 173.936C257.485 174.048 257.952 174.104 258.4 174.104C259.296 174.104 259.94 173.931 260.332 173.586C260.733 173.231 260.934 172.746 260.934 172.13C260.934 171.505 260.686 171.057 260.192 170.786C259.706 170.506 259.02 170.366 258.134 170.366H257.168V169.316H258.148C258.969 169.316 259.59 169.143 260.01 168.798C260.439 168.453 260.654 167.995 260.654 167.426C260.654 166.941 260.49 166.567 260.164 166.306C259.837 166.035 259.394 165.9 258.834 165.9C258.292 165.9 257.83 165.979 257.448 166.138C257.065 166.297 256.687 166.497 256.314 166.74L255.698 165.9C256.052 165.62 256.491 165.377 257.014 165.172C257.546 164.967 258.148 164.864 258.82 164.864C259.865 164.864 260.64 165.097 261.144 165.564C261.657 166.031 261.914 166.623 261.914 167.342ZM263.793 170.73C263.793 170.011 263.854 169.307 263.975 168.616C264.106 167.916 264.335 167.286 264.661 166.726C264.997 166.157 265.464 165.704 266.061 165.368C266.659 165.032 267.429 164.864 268.371 164.864C268.567 164.864 268.782 164.873 269.015 164.892C269.258 164.911 269.454 164.943 269.603 164.99V166.04C269.435 165.984 269.244 165.942 269.029 165.914C268.815 165.886 268.605 165.872 268.399 165.872C267.755 165.872 267.219 165.979 266.789 166.194C266.36 166.409 266.019 166.703 265.767 167.076C265.525 167.449 265.347 167.879 265.235 168.364C265.123 168.849 265.053 169.367 265.025 169.918H265.109C265.324 169.591 265.623 169.316 266.005 169.092C266.388 168.859 266.878 168.742 267.475 168.742C268.343 168.742 269.043 169.008 269.575 169.54C270.107 170.063 270.373 170.809 270.373 171.78C270.373 172.825 270.084 173.647 269.505 174.244C268.936 174.841 268.166 175.14 267.195 175.14C266.561 175.14 265.987 174.981 265.473 174.664C264.96 174.347 264.549 173.861 264.241 173.208C263.943 172.555 263.793 171.729 263.793 170.73ZM267.181 174.104C267.769 174.104 268.245 173.917 268.609 173.544C268.973 173.161 269.155 172.573 269.155 171.78C269.155 171.145 268.992 170.641 268.665 170.268C268.348 169.895 267.867 169.708 267.223 169.708C266.785 169.708 266.402 169.801 266.075 169.988C265.749 170.165 265.492 170.399 265.305 170.688C265.128 170.968 265.039 171.253 265.039 171.542C265.039 171.943 265.119 172.345 265.277 172.746C265.436 173.138 265.674 173.465 265.991 173.726C266.309 173.978 266.705 174.104 267.181 174.104ZM278.315 169.274C278.315 169.993 278.25 170.702 278.119 171.402C277.998 172.093 277.769 172.723 277.433 173.292C277.106 173.852 276.64 174.3 276.033 174.636C275.436 174.972 274.666 175.14 273.723 175.14C273.536 175.14 273.317 175.126 273.065 175.098C272.813 175.079 272.612 175.047 272.463 175V173.95C272.827 174.071 273.238 174.132 273.695 174.132C274.348 174.132 274.885 174.025 275.305 173.81C275.734 173.595 276.075 173.306 276.327 172.942C276.579 172.569 276.761 172.139 276.873 171.654C276.985 171.159 277.05 170.641 277.069 170.1H276.985C276.77 170.417 276.472 170.693 276.089 170.926C275.706 171.15 275.212 171.262 274.605 171.262C273.746 171.262 273.051 171.001 272.519 170.478C271.996 169.946 271.735 169.199 271.735 168.238C271.735 167.538 271.866 166.936 272.127 166.432C272.388 165.928 272.757 165.541 273.233 165.27C273.718 164.999 274.283 164.864 274.927 164.864C275.562 164.864 276.136 165.027 276.649 165.354C277.162 165.671 277.568 166.157 277.867 166.81C278.166 167.454 278.315 168.275 278.315 169.274ZM274.927 165.9C274.348 165.9 273.872 166.091 273.499 166.474C273.135 166.857 272.953 167.44 272.953 168.224C272.953 168.868 273.107 169.377 273.415 169.75C273.732 170.114 274.218 170.296 274.871 170.296C275.319 170.296 275.706 170.207 276.033 170.03C276.36 169.843 276.612 169.61 276.789 169.33C276.976 169.05 277.069 168.761 277.069 168.462C277.069 168.061 276.99 167.664 276.831 167.272C276.672 166.88 276.434 166.553 276.117 166.292C275.8 166.031 275.403 165.9 274.927 165.9ZM286.327 175H279.719V173.978L282.337 171.332C282.832 170.828 283.252 170.38 283.597 169.988C283.952 169.596 284.218 169.213 284.395 168.84C284.572 168.467 284.661 168.051 284.661 167.594C284.661 167.043 284.498 166.628 284.171 166.348C283.844 166.059 283.42 165.914 282.897 165.914C282.402 165.914 281.973 165.998 281.609 166.166C281.245 166.334 280.872 166.567 280.489 166.866L279.831 166.04C280.223 165.713 280.671 165.438 281.175 165.214C281.688 164.981 282.262 164.864 282.897 164.864C283.83 164.864 284.568 165.102 285.109 165.578C285.65 166.054 285.921 166.703 285.921 167.524C285.921 168.047 285.814 168.537 285.599 168.994C285.384 169.451 285.086 169.904 284.703 170.352C284.32 170.8 283.872 171.271 283.359 171.766L281.273 173.824V173.88H286.327V175ZM292.029 175H290.825V168.014C290.825 167.613 290.829 167.291 290.839 167.048C290.848 166.805 290.862 166.553 290.881 166.292C290.731 166.441 290.591 166.567 290.461 166.67C290.339 166.773 290.19 166.903 290.013 167.062L288.949 167.93L288.305 167.104L291.007 165.004H292.029V175Z" fill="black"/>
<line x1="231" y1="191.5" x2="381" y2="191.5" stroke="#F1F1F1"/>
<rect width="150" height="44" transform="translate(231 192)" fill="white"/>
<path d="M253.902 211.342C253.902 212.014 253.711 212.551 253.328 212.952C252.955 213.344 252.455 213.605 251.83 213.736V213.792C252.623 213.885 253.216 214.137 253.608 214.548C254.009 214.959 254.21 215.495 254.21 216.158C254.21 216.746 254.075 217.264 253.804 217.712C253.533 218.16 253.113 218.51 252.544 218.762C251.984 219.014 251.261 219.14 250.374 219.14C249.851 219.14 249.366 219.098 248.918 219.014C248.47 218.939 248.041 218.799 247.63 218.594V217.446C248.05 217.661 248.503 217.824 248.988 217.936C249.473 218.048 249.94 218.104 250.388 218.104C251.284 218.104 251.928 217.931 252.32 217.586C252.721 217.231 252.922 216.746 252.922 216.13C252.922 215.505 252.675 215.057 252.18 214.786C251.695 214.506 251.009 214.366 250.122 214.366H249.156V213.316H250.136C250.957 213.316 251.578 213.143 251.998 212.798C252.427 212.453 252.642 211.995 252.642 211.426C252.642 210.941 252.479 210.567 252.152 210.306C251.825 210.035 251.382 209.9 250.822 209.9C250.281 209.9 249.819 209.979 249.436 210.138C249.053 210.297 248.675 210.497 248.302 210.74L247.686 209.9C248.041 209.62 248.479 209.377 249.002 209.172C249.534 208.967 250.136 208.864 250.808 208.864C251.853 208.864 252.628 209.097 253.132 209.564C253.645 210.031 253.902 210.623 253.902 211.342ZM255.782 214.73C255.782 214.011 255.842 213.307 255.964 212.616C256.094 211.916 256.323 211.286 256.65 210.726C256.986 210.157 257.452 209.704 258.05 209.368C258.647 209.032 259.417 208.864 260.36 208.864C260.556 208.864 260.77 208.873 261.004 208.892C261.246 208.911 261.442 208.943 261.592 208.99V210.04C261.424 209.984 261.232 209.942 261.018 209.914C260.803 209.886 260.593 209.872 260.388 209.872C259.744 209.872 259.207 209.979 258.778 210.194C258.348 210.409 258.008 210.703 257.756 211.076C257.513 211.449 257.336 211.879 257.224 212.364C257.112 212.849 257.042 213.367 257.014 213.918H257.098C257.312 213.591 257.611 213.316 257.994 213.092C258.376 212.859 258.866 212.742 259.464 212.742C260.332 212.742 261.032 213.008 261.564 213.54C262.096 214.063 262.362 214.809 262.362 215.78C262.362 216.825 262.072 217.647 261.494 218.244C260.924 218.841 260.154 219.14 259.184 219.14C258.549 219.14 257.975 218.981 257.462 218.664C256.948 218.347 256.538 217.861 256.23 217.208C255.931 216.555 255.782 215.729 255.782 214.73ZM259.17 218.104C259.758 218.104 260.234 217.917 260.598 217.544C260.962 217.161 261.144 216.573 261.144 215.78C261.144 215.145 260.98 214.641 260.654 214.268C260.336 213.895 259.856 213.708 259.212 213.708C258.773 213.708 258.39 213.801 258.064 213.988C257.737 214.165 257.48 214.399 257.294 214.688C257.116 214.968 257.028 215.253 257.028 215.542C257.028 215.943 257.107 216.345 257.266 216.746C257.424 217.138 257.662 217.465 257.98 217.726C258.297 217.978 258.694 218.104 259.17 218.104ZM270.303 219H263.695V217.978L266.313 215.332C266.808 214.828 267.228 214.38 267.573 213.988C267.928 213.596 268.194 213.213 268.371 212.84C268.549 212.467 268.637 212.051 268.637 211.594C268.637 211.043 268.474 210.628 268.147 210.348C267.821 210.059 267.396 209.914 266.873 209.914C266.379 209.914 265.949 209.998 265.585 210.166C265.221 210.334 264.848 210.567 264.465 210.866L263.807 210.04C264.199 209.713 264.647 209.438 265.151 209.214C265.665 208.981 266.239 208.864 266.873 208.864C267.807 208.864 268.544 209.102 269.085 209.578C269.627 210.054 269.897 210.703 269.897 211.524C269.897 212.047 269.79 212.537 269.575 212.994C269.361 213.451 269.062 213.904 268.679 214.352C268.297 214.8 267.849 215.271 267.335 215.766L265.249 217.824V217.88H270.303V219ZM278.315 213.274C278.315 213.993 278.25 214.702 278.119 215.402C277.998 216.093 277.769 216.723 277.433 217.292C277.106 217.852 276.64 218.3 276.033 218.636C275.436 218.972 274.666 219.14 273.723 219.14C273.536 219.14 273.317 219.126 273.065 219.098C272.813 219.079 272.612 219.047 272.463 219V217.95C272.827 218.071 273.238 218.132 273.695 218.132C274.348 218.132 274.885 218.025 275.305 217.81C275.734 217.595 276.075 217.306 276.327 216.942C276.579 216.569 276.761 216.139 276.873 215.654C276.985 215.159 277.05 214.641 277.069 214.1H276.985C276.77 214.417 276.472 214.693 276.089 214.926C275.706 215.15 275.212 215.262 274.605 215.262C273.746 215.262 273.051 215.001 272.519 214.478C271.996 213.946 271.735 213.199 271.735 212.238C271.735 211.538 271.866 210.936 272.127 210.432C272.388 209.928 272.757 209.541 273.233 209.27C273.718 208.999 274.283 208.864 274.927 208.864C275.562 208.864 276.136 209.027 276.649 209.354C277.162 209.671 277.568 210.157 277.867 210.81C278.166 211.454 278.315 212.275 278.315 213.274ZM274.927 209.9C274.348 209.9 273.872 210.091 273.499 210.474C273.135 210.857 272.953 211.44 272.953 212.224C272.953 212.868 273.107 213.377 273.415 213.75C273.732 214.114 274.218 214.296 274.871 214.296C275.319 214.296 275.706 214.207 276.033 214.03C276.36 213.843 276.612 213.61 276.789 213.33C276.976 213.05 277.069 212.761 277.069 212.462C277.069 212.061 276.99 211.664 276.831 211.272C276.672 210.88 276.434 210.553 276.117 210.292C275.8 210.031 275.403 209.9 274.927 209.9ZM286.327 213.274C286.327 213.993 286.262 214.702 286.131 215.402C286.01 216.093 285.781 216.723 285.445 217.292C285.118 217.852 284.652 218.3 284.045 218.636C283.448 218.972 282.678 219.14 281.735 219.14C281.548 219.14 281.329 219.126 281.077 219.098C280.825 219.079 280.624 219.047 280.475 219V217.95C280.839 218.071 281.25 218.132 281.707 218.132C282.36 218.132 282.897 218.025 283.317 217.81C283.746 217.595 284.087 217.306 284.339 216.942C284.591 216.569 284.773 216.139 284.885 215.654C284.997 215.159 285.062 214.641 285.081 214.1H284.997C284.782 214.417 284.484 214.693 284.101 214.926C283.718 215.15 283.224 215.262 282.617 215.262C281.758 215.262 281.063 215.001 280.531 214.478C280.008 213.946 279.747 213.199 279.747 212.238C279.747 211.538 279.878 210.936 280.139 210.432C280.4 209.928 280.769 209.541 281.245 209.27C281.73 208.999 282.295 208.864 282.939 208.864C283.574 208.864 284.148 209.027 284.661 209.354C285.174 209.671 285.58 210.157 285.879 210.81C286.178 211.454 286.327 212.275 286.327 213.274ZM282.939 209.9C282.36 209.9 281.884 210.091 281.511 210.474C281.147 210.857 280.965 211.44 280.965 212.224C280.965 212.868 281.119 213.377 281.427 213.75C281.744 214.114 282.23 214.296 282.883 214.296C283.331 214.296 283.718 214.207 284.045 214.03C284.372 213.843 284.624 213.61 284.801 213.33C284.988 213.05 285.081 212.761 285.081 212.462C285.081 212.061 285.002 211.664 284.843 211.272C284.684 210.88 284.446 210.553 284.129 210.292C283.812 210.031 283.415 209.9 282.939 209.9ZM293.961 211.342C293.961 212.014 293.769 212.551 293.387 212.952C293.013 213.344 292.514 213.605 291.889 213.736V213.792C292.682 213.885 293.275 214.137 293.667 214.548C294.068 214.959 294.269 215.495 294.269 216.158C294.269 216.746 294.133 217.264 293.863 217.712C293.592 218.16 293.172 218.51 292.603 218.762C292.043 219.014 291.319 219.14 290.433 219.14C289.91 219.14 289.425 219.098 288.977 219.014C288.529 218.939 288.099 218.799 287.689 218.594V217.446C288.109 217.661 288.561 217.824 289.047 217.936C289.532 218.048 289.999 218.104 290.447 218.104C291.343 218.104 291.987 217.931 292.379 217.586C292.78 217.231 292.981 216.746 292.981 216.13C292.981 215.505 292.733 215.057 292.239 214.786C291.753 214.506 291.067 214.366 290.181 214.366H289.215V213.316H290.195C291.016 213.316 291.637 213.143 292.057 212.798C292.486 212.453 292.701 211.995 292.701 211.426C292.701 210.941 292.537 210.567 292.211 210.306C291.884 210.035 291.441 209.9 290.881 209.9C290.339 209.9 289.877 209.979 289.495 210.138C289.112 210.297 288.734 210.497 288.361 210.74L287.745 209.9C288.099 209.62 288.538 209.377 289.061 209.172C289.593 208.967 290.195 208.864 290.867 208.864C291.912 208.864 292.687 209.097 293.191 209.564C293.704 210.031 293.961 210.623 293.961 211.342Z" fill="black"/>
<line x1="231" y1="235.5" x2="381" y2="235.5" stroke="#F1F1F1"/>
<defs>
<filter id="filter0_d_9160_136981" x="175" y="38" width="21.8535" height="25" filterUnits="userSpaceOnUse" color-interpolation-filters="sRGB">
<feFlood flood-opacity="0" result="BackgroundImageFix"/>
<feColorMatrix in="SourceAlpha" type="matrix" values="0 0 0 0 0 0 0 0 0 0 0 0 0 0 0 0 0 0 127 0" result="hardAlpha"/>
<feOffset dy="1"/>
<feGaussianBlur stdDeviation="1.5"/>
<feColorMatrix type="matrix" values="0 0 0 0 0 0 0 0 0 0 0 0 0 0 0 0 0 0 0.2 0"/>
<feBlend mode="normal" in2="BackgroundImageFix" result="effect1_dropShadow_9160_136981"/>
<feBlend mode="normal" in="SourceGraphic" in2="effect1_dropShadow_9160_136981" result="shape"/>
</filter>
</defs>
</svg>
