<svg width="412" height="312" viewBox="0 0 412 312" fill="none" xmlns="http://www.w3.org/2000/svg">
<rect width="412" height="312" fill="white"/>
<mask id="path-1-inside-1_9160_132408" fill="white">
<path d="M21 24H89V68H21V24Z"/>
</mask>
<path d="M21 24H89V68H21V24Z" fill="white"/>
<rect x="41" y="38" width="16" height="16" rx="4" fill="white"/>
<rect x="41.5" y="38.5" width="15" height="15" rx="3.5" stroke="#1473E6"/>
<path d="M73.0125 49.3625C72.9125 49.3625 72.8125 49.3125 72.7625 49.2625L67.1125 43.6625C66.9625 43.5125 66.9625 43.2625 67.1125 43.1125C67.2625 42.9625 67.5125 42.9625 67.6625 43.1125L73.0125 48.4625L78.3125 43.1125C78.4625 42.9625 78.7125 42.9625 78.8625 43.1125C79.0125 43.2625 79.0125 43.5125 78.8625 43.6625L73.2625 49.2625C73.1625 49.3125 73.1125 49.3625 73.0125 49.3625Z" fill="#323232"/>
<path d="M21 25H89V23H21V25ZM89 67H21V69H89V67Z" fill="#C9C9C9" mask="url(#path-1-inside-1_9160_132408)"/>
<mask id="path-7-inside-2_9160_132408" fill="white">
<path d="M21 68H89V112H21V68Z"/>
</mask>
<path d="M21 68H89V112H21V68Z" fill="white"/>
<path d="M89 111H21V113H89V111Z" fill="#F1F1F1" mask="url(#path-7-inside-2_9160_132408)"/>
<mask id="path-9-inside-3_9160_132408" fill="white">
<path d="M21 112H89V156H21V112Z"/>
</mask>
<path d="M21 112H89V156H21V112Z" fill="#DDDDDD"/>
<rect x="41" y="126" width="16" height="16" rx="4" fill="white"/>
<rect x="41.5" y="126.5" width="15" height="15" rx="3.5" stroke="#1473E6"/>
<path d="M89 155H21V157H89V155Z" fill="#F1F1F1" mask="url(#path-9-inside-3_9160_132408)"/>
<mask id="path-14-inside-4_9160_132408" fill="white">
<path d="M21 156H89V200H21V156Z"/>
</mask>
<path d="M21 156H89V200H21V156Z" fill="white"/>
<path d="M89 199H21V201H89V199Z" fill="#F1F1F1" mask="url(#path-14-inside-4_9160_132408)"/>
<mask id="path-16-inside-5_9160_132408" fill="white">
<path d="M21 200H89V244H21V200Z"/>
</mask>
<path d="M21 200H89V244H21V200Z" fill="white"/>
<path d="M89 243H21V245H89V243Z" fill="#F1F1F1" mask="url(#path-16-inside-5_9160_132408)"/>
<mask id="path-18-inside-6_9160_132408" fill="white">
<path d="M21 244H89V288H21V244Z"/>
</mask>
<path d="M21 244H89V288H21V244Z" fill="white"/>
<path d="M89 287H21V289H89V287Z" fill="#F1F1F1" mask="url(#path-18-inside-6_9160_132408)"/>
<rect width="200" height="44" transform="translate(89 24)" fill="white"/>
<path d="M110.558 42.376C109.653 42.376 108.948 42.7027 108.444 43.356C107.94 44 107.688 44.8867 107.688 46.016C107.688 47.1547 107.921 48.0413 108.388 48.676C108.855 49.3107 109.573 49.628 110.544 49.628C110.964 49.628 111.375 49.586 111.776 49.502C112.187 49.4087 112.607 49.2873 113.036 49.138V50.664C112.625 50.832 112.21 50.9533 111.79 51.028C111.379 51.1027 110.903 51.14 110.362 51.14C109.335 51.14 108.486 50.93 107.814 50.51C107.142 50.0807 106.643 49.4833 106.316 48.718C105.989 47.9433 105.826 47.038 105.826 46.002C105.826 44.994 106.008 44.1073 106.372 43.342C106.736 42.5673 107.268 41.9607 107.968 41.522C108.677 41.0833 109.541 40.864 110.558 40.864C111.062 40.864 111.557 40.92 112.042 41.032C112.537 41.144 112.999 41.3073 113.428 41.522L112.812 42.992C112.457 42.8333 112.089 42.6933 111.706 42.572C111.333 42.4413 110.95 42.376 110.558 42.376ZM121.755 43.412V51H120.369L120.131 50.02H120.047C119.804 50.412 119.468 50.6967 119.039 50.874C118.609 51.0513 118.157 51.14 117.681 51.14C116.831 51.14 116.164 50.9207 115.679 50.482C115.203 50.0433 114.965 49.3387 114.965 48.368V43.412H116.729V48.018C116.729 48.5873 116.841 49.012 117.065 49.292C117.289 49.572 117.643 49.712 118.129 49.712C118.838 49.712 119.323 49.488 119.585 49.04C119.855 48.592 119.991 47.9527 119.991 47.122V43.412H121.755ZM129.169 48.802C129.169 49.5673 128.894 50.1507 128.343 50.552C127.802 50.944 127.022 51.14 126.005 51.14C125.473 51.14 125.016 51.1027 124.633 51.028C124.26 50.9533 123.896 50.8367 123.541 50.678V49.18C123.914 49.3573 124.325 49.5067 124.773 49.628C125.23 49.7493 125.66 49.81 126.061 49.81C126.546 49.81 126.896 49.7353 127.111 49.586C127.326 49.4367 127.433 49.236 127.433 48.984C127.433 48.8347 127.391 48.704 127.307 48.592C127.223 48.4707 127.06 48.34 126.817 48.2C126.574 48.06 126.206 47.8873 125.711 47.682C125.226 47.486 124.82 47.29 124.493 47.094C124.176 46.898 123.933 46.6647 123.765 46.394C123.606 46.1233 123.527 45.7733 123.527 45.344C123.527 44.6627 123.798 44.1493 124.339 43.804C124.88 43.4493 125.594 43.272 126.481 43.272C126.948 43.272 127.386 43.3187 127.797 43.412C128.217 43.5053 128.637 43.6453 129.057 43.832L128.497 45.134C128.142 44.9847 127.797 44.8587 127.461 44.756C127.125 44.6533 126.78 44.602 126.425 44.602C125.65 44.602 125.263 44.8213 125.263 45.26C125.263 45.4187 125.31 45.554 125.403 45.666C125.506 45.778 125.678 45.8993 125.921 46.03C126.173 46.1513 126.528 46.3007 126.985 46.478C127.433 46.6553 127.82 46.842 128.147 47.038C128.474 47.2247 128.726 47.458 128.903 47.738C129.08 48.0087 129.169 48.3633 129.169 48.802ZM133.806 49.726C134.021 49.726 134.231 49.7073 134.436 49.67C134.651 49.6233 134.847 49.572 135.024 49.516V50.832C134.838 50.9253 134.595 51 134.296 51.056C133.998 51.112 133.685 51.14 133.358 51.14C132.92 51.14 132.523 51.07 132.168 50.93C131.823 50.79 131.548 50.5427 131.342 50.188C131.137 49.8333 131.034 49.334 131.034 48.69V44.742H130.012V43.972L131.132 43.356L131.692 41.746H132.798V43.412H134.954V44.742H132.798V48.676C132.798 49.0307 132.892 49.2967 133.078 49.474C133.274 49.642 133.517 49.726 133.806 49.726ZM143.33 47.192C143.33 48.452 143.003 49.4273 142.35 50.118C141.697 50.7993 140.81 51.14 139.69 51.14C138.999 51.14 138.383 50.986 137.842 50.678C137.301 50.37 136.876 49.922 136.568 49.334C136.26 48.746 136.106 48.032 136.106 47.192C136.106 45.932 136.428 44.966 137.072 44.294C137.725 43.6127 138.612 43.272 139.732 43.272C140.432 43.272 141.053 43.426 141.594 43.734C142.135 44.0327 142.56 44.476 142.868 45.064C143.176 45.6427 143.33 46.352 143.33 47.192ZM137.912 47.192C137.912 47.9947 138.052 48.6153 138.332 49.054C138.621 49.4927 139.083 49.712 139.718 49.712C140.343 49.712 140.801 49.4927 141.09 49.054C141.379 48.6153 141.524 47.9947 141.524 47.192C141.524 46.3893 141.379 45.7733 141.09 45.344C140.801 44.9147 140.339 44.7 139.704 44.7C139.069 44.7 138.612 44.9147 138.332 45.344C138.052 45.7733 137.912 46.3893 137.912 47.192ZM153.848 43.272C154.706 43.272 155.35 43.4913 155.78 43.93C156.218 44.3687 156.438 45.078 156.438 46.058V51H154.674V46.394C154.674 45.2647 154.244 44.7 153.386 44.7C152.77 44.7 152.331 44.9007 152.07 45.302C151.808 45.7033 151.678 46.2867 151.678 47.052V51H149.914V46.394C149.914 45.2647 149.48 44.7 148.612 44.7C147.968 44.7 147.524 44.924 147.282 45.372C147.039 45.82 146.918 46.4593 146.918 47.29V51H145.154V43.412H146.512L146.764 44.406H146.862C147.095 44.014 147.412 43.7293 147.814 43.552C148.215 43.3653 148.635 43.272 149.074 43.272C149.643 43.272 150.119 43.3653 150.502 43.552C150.894 43.7387 151.192 44.0373 151.398 44.448H151.538C151.771 44.0373 152.098 43.7387 152.518 43.552C152.938 43.3653 153.381 43.272 153.848 43.272ZM161.7 43.272C162.717 43.272 163.52 43.5753 164.108 44.182C164.705 44.7887 165.004 45.6333 165.004 46.716V47.612H159.992C160.01 48.3027 160.202 48.8393 160.566 49.222C160.93 49.5953 161.434 49.782 162.078 49.782C162.563 49.782 163.002 49.7353 163.394 49.642C163.786 49.5393 164.187 49.3947 164.598 49.208V50.622C164.224 50.7993 163.837 50.93 163.436 51.014C163.034 51.098 162.554 51.14 161.994 51.14C161.247 51.14 160.589 51 160.02 50.72C159.45 50.4307 159.002 50.0013 158.676 49.432C158.358 48.8533 158.2 48.13 158.2 47.262C158.2 45.9647 158.517 44.9753 159.152 44.294C159.796 43.6127 160.645 43.272 161.7 43.272ZM161.7 44.574C161.224 44.574 160.836 44.728 160.538 45.036C160.248 45.3347 160.08 45.7827 160.034 46.38H163.296C163.286 45.8573 163.151 45.428 162.89 45.092C162.638 44.7467 162.241 44.574 161.7 44.574ZM170.758 43.272C170.88 43.272 171.015 43.2813 171.164 43.3C171.314 43.3093 171.435 43.3233 171.528 43.342L171.374 44.98C171.281 44.9613 171.164 44.9473 171.024 44.938C170.894 44.9193 170.782 44.91 170.688 44.91C170.315 44.91 169.965 44.9893 169.638 45.148C169.312 45.2973 169.046 45.5307 168.84 45.848C168.644 46.1653 168.546 46.5713 168.546 47.066V51H166.782V43.412H168.14L168.392 44.728H168.476C168.7 44.3267 169.008 43.986 169.4 43.706C169.792 43.4167 170.245 43.272 170.758 43.272ZM185.238 51H183.012L178.28 43.16H178.224C178.242 43.58 178.261 44.0327 178.28 44.518C178.308 44.994 178.331 45.4747 178.35 45.96V51H176.74V41.004H178.952L183.669 48.788H183.712C183.702 48.4147 183.684 47.9853 183.656 47.5C183.637 47.0147 183.623 46.5433 183.614 46.086V41.004H185.238V51ZM190.697 43.272C191.677 43.272 192.419 43.4867 192.923 43.916C193.436 44.3453 193.693 45.008 193.693 45.904V51H192.447L192.097 49.95H192.041C191.714 50.3607 191.369 50.664 191.005 50.86C190.641 51.0467 190.146 51.14 189.521 51.14C188.84 51.14 188.275 50.9487 187.827 50.566C187.379 50.1833 187.155 49.5907 187.155 48.788C187.155 48.004 187.44 47.416 188.009 47.024C188.588 46.632 189.46 46.4127 190.627 46.366L191.943 46.324V45.946C191.943 45.4607 191.826 45.1153 191.593 44.91C191.36 44.7047 191.033 44.602 190.613 44.602C190.23 44.602 189.862 44.658 189.507 44.77C189.162 44.8727 188.816 45.0033 188.471 45.162L187.911 43.93C188.284 43.734 188.709 43.5753 189.185 43.454C189.67 43.3327 190.174 43.272 190.697 43.272ZM191.943 47.416L191.019 47.444C190.244 47.472 189.708 47.6073 189.409 47.85C189.11 48.0833 188.961 48.4007 188.961 48.802C188.961 49.166 189.064 49.4273 189.269 49.586C189.484 49.7353 189.764 49.81 190.109 49.81C190.622 49.81 191.056 49.6653 191.411 49.376C191.766 49.0773 191.943 48.6387 191.943 48.06V47.416ZM204.598 43.272C205.456 43.272 206.1 43.4913 206.53 43.93C206.968 44.3687 207.188 45.078 207.188 46.058V51H205.424V46.394C205.424 45.2647 204.994 44.7 204.136 44.7C203.52 44.7 203.081 44.9007 202.82 45.302C202.558 45.7033 202.428 46.2867 202.428 47.052V51H200.664V46.394C200.664 45.2647 200.23 44.7 199.362 44.7C198.718 44.7 198.274 44.924 198.032 45.372C197.789 45.82 197.668 46.4593 197.668 47.29V51H195.904V43.412H197.262L197.514 44.406H197.612C197.845 44.014 198.162 43.7293 198.564 43.552C198.965 43.3653 199.385 43.272 199.824 43.272C200.393 43.272 200.869 43.3653 201.252 43.552C201.644 43.7387 201.942 44.0373 202.148 44.448H202.288C202.521 44.0373 202.848 43.7387 203.268 43.552C203.688 43.3653 204.131 43.272 204.598 43.272ZM212.45 43.272C213.467 43.272 214.27 43.5753 214.858 44.182C215.455 44.7887 215.754 45.6333 215.754 46.716V47.612H210.742C210.76 48.3027 210.952 48.8393 211.316 49.222C211.68 49.5953 212.184 49.782 212.828 49.782C213.313 49.782 213.752 49.7353 214.144 49.642C214.536 49.5393 214.937 49.3947 215.348 49.208V50.622C214.974 50.7993 214.587 50.93 214.186 51.014C213.784 51.098 213.304 51.14 212.744 51.14C211.997 51.14 211.339 51 210.77 50.72C210.2 50.4307 209.752 50.0013 209.426 49.432C209.108 48.8533 208.95 48.13 208.95 47.262C208.95 45.9647 209.267 44.9753 209.902 44.294C210.546 43.6127 211.395 43.272 212.45 43.272ZM212.45 44.574C211.974 44.574 211.586 44.728 211.288 45.036C210.998 45.3347 210.83 45.7827 210.784 46.38H214.046C214.036 45.8573 213.901 45.428 213.64 45.092C213.388 44.7467 212.991 44.574 212.45 44.574Z" fill="black"/>
<path d="M233.012 49.3625C232.912 49.3625 232.812 49.3125 232.762 49.2625L227.113 43.6625C226.962 43.5125 226.962 43.2625 227.113 43.1125C227.263 42.9625 227.512 42.9625 227.662 43.1125L233.012 48.4625L238.312 43.1125C238.462 42.9625 238.713 42.9625 238.863 43.1125C239.012 43.2625 239.012 43.5125 238.863 43.6625L233.262 49.2625C233.162 49.3125 233.112 49.3625 233.012 49.3625Z" fill="#323232"/>
<line x1="89" y1="24.5" x2="289" y2="24.5" stroke="#C9C9C9"/>
<line x1="89" y1="67.5" x2="289" y2="67.5" stroke="#C9C9C9"/>
<rect width="200" height="44" transform="translate(89 68)" fill="white"/>
<path d="M109.522 95H108.262V86.11H105.14V85.004H112.63V86.11H109.522V95ZM114.599 84.682C114.786 84.682 114.949 84.7473 115.089 84.878C115.239 84.9993 115.313 85.1953 115.313 85.466C115.313 85.7367 115.239 85.9373 115.089 86.068C114.949 86.1893 114.786 86.25 114.599 86.25C114.394 86.25 114.221 86.1893 114.081 86.068C113.941 85.9373 113.871 85.7367 113.871 85.466C113.871 85.1953 113.941 84.9993 114.081 84.878C114.221 84.7473 114.394 84.682 114.599 84.682ZM115.201 87.496V95H113.969V87.496H115.201ZM125.811 87.356C126.66 87.356 127.295 87.5753 127.715 88.014C128.135 88.4527 128.345 89.1527 128.345 90.114V95H127.127V90.17C127.127 88.9847 126.618 88.392 125.601 88.392C124.873 88.392 124.35 88.602 124.033 89.022C123.725 89.442 123.571 90.0533 123.571 90.856V95H122.353V90.17C122.353 88.9847 121.839 88.392 120.813 88.392C120.057 88.392 119.534 88.6253 119.245 89.092C118.955 89.5587 118.811 90.2307 118.811 91.108V95H117.579V87.496H118.573L118.755 88.518H118.825C119.058 88.126 119.371 87.8367 119.763 87.65C120.164 87.454 120.589 87.356 121.037 87.356C122.213 87.356 122.978 87.776 123.333 88.616H123.403C123.655 88.1867 123.995 87.8693 124.425 87.664C124.854 87.4587 125.316 87.356 125.811 87.356ZM137.225 85.004C138.467 85.004 139.381 85.242 139.969 85.718C140.567 86.1847 140.865 86.894 140.865 87.846C140.865 88.378 140.767 88.8213 140.571 89.176C140.375 89.5307 140.123 89.8153 139.815 90.03C139.517 90.2447 139.199 90.408 138.863 90.52L141.607 95H140.137L137.715 90.87H135.727V95H134.467V85.004H137.225ZM137.155 86.096H135.727V89.806H137.225C138.037 89.806 138.63 89.6473 139.003 89.33C139.377 89.0033 139.563 88.5273 139.563 87.902C139.563 87.2487 139.367 86.7867 138.975 86.516C138.583 86.236 137.977 86.096 137.155 86.096ZM145.906 87.356C146.541 87.356 147.092 87.496 147.558 87.776C148.025 88.056 148.38 88.4527 148.622 88.966C148.874 89.47 149 90.0627 149 90.744V91.486H143.862C143.881 92.3353 144.096 92.984 144.506 93.432C144.926 93.8707 145.51 94.09 146.256 94.09C146.732 94.09 147.152 94.048 147.516 93.964C147.89 93.8707 148.272 93.74 148.664 93.572V94.65C148.282 94.818 147.904 94.9393 147.53 95.014C147.157 95.098 146.714 95.14 146.2 95.14C145.482 95.14 144.852 94.9953 144.31 94.706C143.769 94.4167 143.344 93.9873 143.036 93.418C142.738 92.8487 142.588 92.144 142.588 91.304C142.588 90.4827 142.724 89.778 142.994 89.19C143.274 88.602 143.662 88.1493 144.156 87.832C144.66 87.5147 145.244 87.356 145.906 87.356ZM145.892 88.364C145.304 88.364 144.838 88.5553 144.492 88.938C144.156 89.3113 143.956 89.834 143.89 90.506H147.712C147.703 89.8713 147.554 89.358 147.264 88.966C146.975 88.5647 146.518 88.364 145.892 88.364ZM149.461 87.496H150.777L152.401 91.766C152.541 92.1487 152.667 92.508 152.779 92.844C152.891 93.18 152.975 93.502 153.031 93.81H153.087C153.143 93.5767 153.232 93.2733 153.353 92.9C153.475 92.5173 153.601 92.1347 153.731 91.752L155.257 87.496H156.587L153.353 96.036C153.083 96.7453 152.742 97.31 152.331 97.73C151.921 98.15 151.351 98.36 150.623 98.36C150.399 98.36 150.203 98.346 150.035 98.318C149.867 98.2993 149.723 98.276 149.601 98.248V97.268C149.704 97.2867 149.825 97.3053 149.965 97.324C150.115 97.3427 150.269 97.352 150.427 97.352C150.857 97.352 151.202 97.2307 151.463 96.988C151.725 96.7453 151.935 96.4233 152.093 96.022L152.485 95.028L149.461 87.496ZM161.386 87.356C162.282 87.356 162.959 87.5753 163.416 88.014C163.873 88.4527 164.102 89.1527 164.102 90.114V95H162.884V90.198C162.884 88.994 162.324 88.392 161.204 88.392C160.373 88.392 159.799 88.6253 159.482 89.092C159.165 89.5587 159.006 90.2307 159.006 91.108V95H157.774V87.496H158.768L158.95 88.518H159.02C159.263 88.126 159.599 87.8367 160.028 87.65C160.457 87.454 160.91 87.356 161.386 87.356ZM172.952 91.234C172.952 92.4753 172.635 93.4367 172 94.118C171.375 94.7993 170.526 95.14 169.452 95.14C168.79 95.14 168.197 94.9907 167.674 94.692C167.161 94.384 166.755 93.9407 166.456 93.362C166.158 92.774 166.008 92.0647 166.008 91.234C166.008 89.9927 166.316 89.036 166.932 88.364C167.558 87.692 168.412 87.356 169.494 87.356C170.166 87.356 170.764 87.51 171.286 87.818C171.809 88.1167 172.215 88.5553 172.504 89.134C172.803 89.7033 172.952 90.4033 172.952 91.234ZM167.282 91.234C167.282 92.1207 167.455 92.8253 167.8 93.348C168.155 93.8613 168.715 94.118 169.48 94.118C170.236 94.118 170.792 93.8613 171.146 93.348C171.501 92.8253 171.678 92.1207 171.678 91.234C171.678 90.3473 171.501 89.652 171.146 89.148C170.792 88.644 170.232 88.392 169.466 88.392C168.701 88.392 168.146 88.644 167.8 89.148C167.455 89.652 167.282 90.3473 167.282 91.234ZM176.137 95H174.905V84.36H176.137V95ZM181.174 95.14C180.241 95.14 179.494 94.818 178.934 94.174C178.374 93.5207 178.094 92.55 178.094 91.262C178.094 89.974 178.374 89.0033 178.934 88.35C179.504 87.6873 180.255 87.356 181.188 87.356C181.767 87.356 182.238 87.4633 182.602 87.678C182.976 87.8927 183.279 88.154 183.512 88.462H183.596C183.578 88.3407 183.559 88.1633 183.54 87.93C183.522 87.6873 183.512 87.496 183.512 87.356V84.36H184.744V95H183.75L183.568 93.992H183.512C183.288 94.3093 182.99 94.58 182.616 94.804C182.243 95.028 181.762 95.14 181.174 95.14ZM181.37 94.118C182.164 94.118 182.719 93.9033 183.036 93.474C183.363 93.0353 183.526 92.3773 183.526 91.5V91.276C183.526 90.3427 183.372 89.6287 183.064 89.134C182.756 88.63 182.187 88.378 181.356 88.378C180.694 88.378 180.194 88.644 179.858 89.176C179.532 89.6987 179.368 90.4033 179.368 91.29C179.368 92.186 179.532 92.8813 179.858 93.376C180.194 93.8707 180.698 94.118 181.37 94.118ZM192.014 92.928C192.014 93.656 191.743 94.2067 191.202 94.58C190.66 94.9533 189.932 95.14 189.018 95.14C188.495 95.14 188.042 95.098 187.66 95.014C187.286 94.93 186.955 94.8133 186.666 94.664V93.544C186.964 93.6933 187.324 93.8333 187.744 93.964C188.173 94.0853 188.607 94.146 189.046 94.146C189.671 94.146 190.124 94.048 190.404 93.852C190.684 93.6467 190.824 93.376 190.824 93.04C190.824 92.8533 190.772 92.6853 190.67 92.536C190.567 92.3867 190.38 92.2373 190.11 92.088C189.848 91.9387 189.47 91.7707 188.976 91.584C188.49 91.3973 188.075 91.2107 187.73 91.024C187.384 90.8373 187.118 90.6133 186.932 90.352C186.745 90.0907 186.652 89.7547 186.652 89.344C186.652 88.7093 186.908 88.2193 187.422 87.874C187.944 87.5287 188.626 87.356 189.466 87.356C189.923 87.356 190.348 87.4027 190.74 87.496C191.141 87.5893 191.514 87.7107 191.86 87.86L191.44 88.84C191.122 88.7093 190.791 88.5973 190.446 88.504C190.1 88.4107 189.746 88.364 189.382 88.364C188.878 88.364 188.49 88.448 188.22 88.616C187.958 88.7747 187.828 88.994 187.828 89.274C187.828 89.4887 187.888 89.666 188.01 89.806C188.131 89.946 188.332 90.086 188.612 90.226C188.901 90.366 189.284 90.5247 189.76 90.702C190.236 90.8793 190.642 91.0613 190.978 91.248C191.314 91.4347 191.57 91.6633 191.748 91.934C191.925 92.1953 192.014 92.5267 192.014 92.928Z" fill="#1B77AF"/>
<line x1="89" y1="111.5" x2="289" y2="111.5" stroke="#F1F1F1"/>
<rect width="200" height="44" transform="translate(89 112)" fill="#DDDDDD"/>
<path d="M109.004 129.004C110.311 129.004 111.263 129.261 111.86 129.774C112.457 130.287 112.756 131.011 112.756 131.944C112.756 132.495 112.63 133.013 112.378 133.498C112.135 133.974 111.72 134.361 111.132 134.66C110.553 134.959 109.765 135.108 108.766 135.108H107.618V139H106.358V129.004H109.004ZM108.892 130.082H107.618V134.03H108.626C109.578 134.03 110.287 133.876 110.754 133.568C111.221 133.26 111.454 132.737 111.454 132C111.454 131.356 111.244 130.875 110.824 130.558C110.413 130.241 109.769 130.082 108.892 130.082ZM117.509 131.37C118.423 131.37 119.1 131.571 119.539 131.972C119.977 132.373 120.197 133.013 120.197 133.89V139H119.301L119.063 137.936H119.007C118.68 138.347 118.335 138.65 117.971 138.846C117.607 139.042 117.112 139.14 116.487 139.14C115.805 139.14 115.241 138.963 114.793 138.608C114.345 138.244 114.121 137.679 114.121 136.914C114.121 136.167 114.415 135.593 115.003 135.192C115.591 134.781 116.496 134.557 117.719 134.52L118.993 134.478V134.03C118.993 133.405 118.857 132.971 118.587 132.728C118.316 132.485 117.933 132.364 117.439 132.364C117.047 132.364 116.673 132.425 116.319 132.546C115.964 132.658 115.633 132.789 115.325 132.938L114.947 132.014C115.273 131.837 115.661 131.687 116.109 131.566C116.557 131.435 117.023 131.37 117.509 131.37ZM118.979 135.332L117.873 135.374C116.939 135.411 116.291 135.561 115.927 135.822C115.572 136.083 115.395 136.452 115.395 136.928C115.395 137.348 115.521 137.656 115.773 137.852C116.034 138.048 116.365 138.146 116.767 138.146C117.392 138.146 117.915 137.973 118.335 137.628C118.764 137.273 118.979 136.732 118.979 136.004V135.332ZM125.02 138.132C125.207 138.132 125.398 138.118 125.594 138.09C125.79 138.062 125.949 138.025 126.07 137.978V138.916C125.94 138.981 125.753 139.033 125.51 139.07C125.268 139.117 125.034 139.14 124.81 139.14C124.418 139.14 124.054 139.075 123.718 138.944C123.392 138.804 123.126 138.566 122.92 138.23C122.715 137.894 122.612 137.423 122.612 136.816V132.448H121.548V131.86L122.626 131.37L123.116 129.774H123.844V131.496H126.014V132.448H123.844V136.788C123.844 137.245 123.952 137.586 124.166 137.81C124.39 138.025 124.675 138.132 125.02 138.132ZM130.079 138.132C130.265 138.132 130.457 138.118 130.653 138.09C130.849 138.062 131.007 138.025 131.129 137.978V138.916C130.998 138.981 130.811 139.033 130.569 139.07C130.326 139.117 130.093 139.14 129.869 139.14C129.477 139.14 129.113 139.075 128.777 138.944C128.45 138.804 128.184 138.566 127.979 138.23C127.773 137.894 127.671 137.423 127.671 136.816V132.448H126.607V131.86L127.685 131.37L128.175 129.774H128.903V131.496H131.073V132.448H128.903V136.788C128.903 137.245 129.01 137.586 129.225 137.81C129.449 138.025 129.733 138.132 130.079 138.132ZM131.455 131.496H132.771L134.395 135.766C134.535 136.149 134.661 136.508 134.773 136.844C134.885 137.18 134.969 137.502 135.025 137.81H135.081C135.137 137.577 135.226 137.273 135.347 136.9C135.469 136.517 135.595 136.135 135.725 135.752L137.251 131.496H138.581L135.347 140.036C135.077 140.745 134.736 141.31 134.325 141.73C133.915 142.15 133.345 142.36 132.617 142.36C132.393 142.36 132.197 142.346 132.029 142.318C131.861 142.299 131.717 142.276 131.595 142.248V141.268C131.698 141.287 131.819 141.305 131.959 141.324C132.109 141.343 132.263 141.352 132.421 141.352C132.851 141.352 133.196 141.231 133.457 140.988C133.719 140.745 133.929 140.423 134.087 140.022L134.479 139.028L131.455 131.496ZM151.581 133.904C151.581 135.593 151.119 136.867 150.195 137.726C149.28 138.575 148.002 139 146.359 139H143.573V129.004H146.653C147.652 129.004 148.52 129.191 149.257 129.564C150.004 129.937 150.578 130.488 150.979 131.216C151.38 131.944 151.581 132.84 151.581 133.904ZM150.251 133.946C150.251 132.611 149.92 131.636 149.257 131.02C148.604 130.395 147.675 130.082 146.471 130.082H144.833V137.922H146.191C148.898 137.922 150.251 136.597 150.251 133.946ZM160.155 135.234C160.155 136.475 159.838 137.437 159.203 138.118C158.578 138.799 157.729 139.14 156.655 139.14C155.993 139.14 155.4 138.991 154.877 138.692C154.364 138.384 153.958 137.941 153.659 137.362C153.361 136.774 153.211 136.065 153.211 135.234C153.211 133.993 153.519 133.036 154.135 132.364C154.761 131.692 155.615 131.356 156.697 131.356C157.369 131.356 157.967 131.51 158.489 131.818C159.012 132.117 159.418 132.555 159.707 133.134C160.006 133.703 160.155 134.403 160.155 135.234ZM154.485 135.234C154.485 136.121 154.658 136.825 155.003 137.348C155.358 137.861 155.918 138.118 156.683 138.118C157.439 138.118 157.995 137.861 158.349 137.348C158.704 136.825 158.881 136.121 158.881 135.234C158.881 134.347 158.704 133.652 158.349 133.148C157.995 132.644 157.435 132.392 156.669 132.392C155.904 132.392 155.349 132.644 155.003 133.148C154.658 133.652 154.485 134.347 154.485 135.234ZM163.34 139H162.108V128.36H163.34V139ZM172.241 135.234C172.241 136.475 171.924 137.437 171.289 138.118C170.664 138.799 169.815 139.14 168.741 139.14C168.079 139.14 167.486 138.991 166.963 138.692C166.45 138.384 166.044 137.941 165.745 137.362C165.447 136.774 165.297 136.065 165.297 135.234C165.297 133.993 165.605 133.036 166.221 132.364C166.847 131.692 167.701 131.356 168.783 131.356C169.455 131.356 170.053 131.51 170.575 131.818C171.098 132.117 171.504 132.555 171.793 133.134C172.092 133.703 172.241 134.403 172.241 135.234ZM166.571 135.234C166.571 136.121 166.744 136.825 167.089 137.348C167.444 137.861 168.004 138.118 168.769 138.118C169.525 138.118 170.081 137.861 170.435 137.348C170.79 136.825 170.967 136.121 170.967 135.234C170.967 134.347 170.79 133.652 170.435 133.148C170.081 132.644 169.521 132.392 168.755 132.392C167.99 132.392 167.435 132.644 167.089 133.148C166.744 133.652 166.571 134.347 166.571 135.234ZM177.694 131.356C177.834 131.356 177.983 131.365 178.142 131.384C178.301 131.393 178.445 131.412 178.576 131.44L178.422 132.574C178.301 132.546 178.165 132.523 178.016 132.504C177.867 132.485 177.731 132.476 177.61 132.476C177.227 132.476 176.868 132.583 176.532 132.798C176.196 133.003 175.925 133.297 175.72 133.68C175.524 134.053 175.426 134.492 175.426 134.996V139H174.194V131.496H175.202L175.342 132.868H175.398C175.631 132.457 175.939 132.103 176.322 131.804C176.714 131.505 177.171 131.356 177.694 131.356ZM182.602 131.356C183.236 131.356 183.787 131.496 184.254 131.776C184.72 132.056 185.075 132.453 185.318 132.966C185.57 133.47 185.696 134.063 185.696 134.744V135.486H180.558C180.576 136.335 180.791 136.984 181.202 137.432C181.622 137.871 182.205 138.09 182.952 138.09C183.428 138.09 183.848 138.048 184.212 137.964C184.585 137.871 184.968 137.74 185.36 137.572V138.65C184.977 138.818 184.599 138.939 184.226 139.014C183.852 139.098 183.409 139.14 182.896 139.14C182.177 139.14 181.547 138.995 181.006 138.706C180.464 138.417 180.04 137.987 179.732 137.418C179.433 136.849 179.284 136.144 179.284 135.304C179.284 134.483 179.419 133.778 179.69 133.19C179.97 132.602 180.357 132.149 180.852 131.832C181.356 131.515 181.939 131.356 182.602 131.356ZM182.588 132.364C182 132.364 181.533 132.555 181.188 132.938C180.852 133.311 180.651 133.834 180.586 134.506H184.408C184.398 133.871 184.249 133.358 183.96 132.966C183.67 132.565 183.213 132.364 182.588 132.364ZM192.492 136.928C192.492 137.656 192.221 138.207 191.68 138.58C191.139 138.953 190.411 139.14 189.496 139.14C188.973 139.14 188.521 139.098 188.138 139.014C187.765 138.93 187.433 138.813 187.144 138.664V137.544C187.443 137.693 187.802 137.833 188.222 137.964C188.651 138.085 189.085 138.146 189.524 138.146C190.149 138.146 190.602 138.048 190.882 137.852C191.162 137.647 191.302 137.376 191.302 137.04C191.302 136.853 191.251 136.685 191.148 136.536C191.045 136.387 190.859 136.237 190.588 136.088C190.327 135.939 189.949 135.771 189.454 135.584C188.969 135.397 188.553 135.211 188.208 135.024C187.863 134.837 187.597 134.613 187.41 134.352C187.223 134.091 187.13 133.755 187.13 133.344C187.13 132.709 187.387 132.219 187.9 131.874C188.423 131.529 189.104 131.356 189.944 131.356C190.401 131.356 190.826 131.403 191.218 131.496C191.619 131.589 191.993 131.711 192.338 131.86L191.918 132.84C191.601 132.709 191.269 132.597 190.924 132.504C190.579 132.411 190.224 132.364 189.86 132.364C189.356 132.364 188.969 132.448 188.698 132.616C188.437 132.775 188.306 132.994 188.306 133.274C188.306 133.489 188.367 133.666 188.488 133.806C188.609 133.946 188.81 134.086 189.09 134.226C189.379 134.366 189.762 134.525 190.238 134.702C190.714 134.879 191.12 135.061 191.456 135.248C191.792 135.435 192.049 135.663 192.226 135.934C192.403 136.195 192.492 136.527 192.492 136.928Z" fill="#1B77AF"/>
<line x1="89" y1="155.5" x2="289" y2="155.5" stroke="#F1F1F1"/>
<rect width="200" height="44" transform="translate(89 156)" fill="white"/>
<path d="M109.004 173.004C110.311 173.004 111.263 173.261 111.86 173.774C112.457 174.287 112.756 175.011 112.756 175.944C112.756 176.495 112.63 177.013 112.378 177.498C112.135 177.974 111.72 178.361 111.132 178.66C110.553 178.959 109.765 179.108 108.766 179.108H107.618V183H106.358V173.004H109.004ZM108.892 174.082H107.618V178.03H108.626C109.578 178.03 110.287 177.876 110.754 177.568C111.221 177.26 111.454 176.737 111.454 176C111.454 175.356 111.244 174.875 110.824 174.558C110.413 174.241 109.769 174.082 108.892 174.082ZM117.509 175.37C118.423 175.37 119.1 175.571 119.539 175.972C119.977 176.373 120.197 177.013 120.197 177.89V183H119.301L119.063 181.936H119.007C118.68 182.347 118.335 182.65 117.971 182.846C117.607 183.042 117.112 183.14 116.487 183.14C115.805 183.14 115.241 182.963 114.793 182.608C114.345 182.244 114.121 181.679 114.121 180.914C114.121 180.167 114.415 179.593 115.003 179.192C115.591 178.781 116.496 178.557 117.719 178.52L118.993 178.478V178.03C118.993 177.405 118.857 176.971 118.587 176.728C118.316 176.485 117.933 176.364 117.439 176.364C117.047 176.364 116.673 176.425 116.319 176.546C115.964 176.658 115.633 176.789 115.325 176.938L114.947 176.014C115.273 175.837 115.661 175.687 116.109 175.566C116.557 175.435 117.023 175.37 117.509 175.37ZM118.979 179.332L117.873 179.374C116.939 179.411 116.291 179.561 115.927 179.822C115.572 180.083 115.395 180.452 115.395 180.928C115.395 181.348 115.521 181.656 115.773 181.852C116.034 182.048 116.365 182.146 116.767 182.146C117.392 182.146 117.915 181.973 118.335 181.628C118.764 181.273 118.979 180.732 118.979 180.004V179.332ZM128.786 175.496V183H127.778L127.596 182.006H127.54C127.298 182.398 126.962 182.687 126.532 182.874C126.103 183.051 125.646 183.14 125.16 183.14C124.255 183.14 123.574 182.925 123.116 182.496C122.659 182.057 122.43 181.362 122.43 180.41V175.496H123.676V180.326C123.676 181.521 124.232 182.118 125.342 182.118C126.173 182.118 126.747 181.885 127.064 181.418C127.391 180.951 127.554 180.279 127.554 179.402V175.496H128.786ZM132.401 183H131.169V172.36H132.401V183ZM144.855 183L143.651 179.906H139.689L138.499 183H137.225L141.131 172.962H142.265L146.157 183H144.855ZM143.273 178.786L142.153 175.762C142.125 175.687 142.078 175.552 142.013 175.356C141.947 175.16 141.882 174.959 141.817 174.754C141.761 174.539 141.714 174.376 141.677 174.264C141.602 174.553 141.523 174.838 141.439 175.118C141.364 175.389 141.299 175.603 141.243 175.762L140.109 178.786H143.273ZM150.968 175.356C151.864 175.356 152.541 175.575 152.998 176.014C153.455 176.453 153.684 177.153 153.684 178.114V183H152.466V178.198C152.466 176.994 151.906 176.392 150.786 176.392C149.955 176.392 149.381 176.625 149.064 177.092C148.747 177.559 148.588 178.231 148.588 179.108V183H147.356V175.496H148.35L148.532 176.518H148.602C148.845 176.126 149.181 175.837 149.61 175.65C150.039 175.454 150.492 175.356 150.968 175.356ZM158.67 183.14C157.737 183.14 156.99 182.818 156.43 182.174C155.87 181.521 155.59 180.55 155.59 179.262C155.59 177.974 155.87 177.003 156.43 176.35C157 175.687 157.751 175.356 158.684 175.356C159.263 175.356 159.734 175.463 160.098 175.678C160.472 175.893 160.775 176.154 161.008 176.462H161.092C161.074 176.341 161.055 176.163 161.036 175.93C161.018 175.687 161.008 175.496 161.008 175.356V172.36H162.24V183H161.246L161.064 181.992H161.008C160.784 182.309 160.486 182.58 160.112 182.804C159.739 183.028 159.258 183.14 158.67 183.14ZM158.866 182.118C159.66 182.118 160.215 181.903 160.532 181.474C160.859 181.035 161.022 180.377 161.022 179.5V179.276C161.022 178.343 160.868 177.629 160.56 177.134C160.252 176.63 159.683 176.378 158.852 176.378C158.19 176.378 157.69 176.644 157.354 177.176C157.028 177.699 156.864 178.403 156.864 179.29C156.864 180.186 157.028 180.881 157.354 181.376C157.69 181.871 158.194 182.118 158.866 182.118ZM168.124 175.356C168.264 175.356 168.413 175.365 168.572 175.384C168.73 175.393 168.875 175.412 169.006 175.44L168.852 176.574C168.73 176.546 168.595 176.523 168.446 176.504C168.296 176.485 168.161 176.476 168.04 176.476C167.657 176.476 167.298 176.583 166.962 176.798C166.626 177.003 166.355 177.297 166.15 177.68C165.954 178.053 165.856 178.492 165.856 178.996V183H164.624V175.496H165.632L165.772 176.868H165.828C166.061 176.457 166.369 176.103 166.752 175.804C167.144 175.505 167.601 175.356 168.124 175.356ZM173.031 175.356C173.666 175.356 174.217 175.496 174.683 175.776C175.15 176.056 175.505 176.453 175.747 176.966C175.999 177.47 176.125 178.063 176.125 178.744V179.486H170.987C171.006 180.335 171.221 180.984 171.631 181.432C172.051 181.871 172.635 182.09 173.381 182.09C173.857 182.09 174.277 182.048 174.641 181.964C175.015 181.871 175.397 181.74 175.789 181.572V182.65C175.407 182.818 175.029 182.939 174.655 183.014C174.282 183.098 173.839 183.14 173.325 183.14C172.607 183.14 171.977 182.995 171.435 182.706C170.894 182.417 170.469 181.987 170.161 181.418C169.863 180.849 169.713 180.144 169.713 179.304C169.713 178.483 169.849 177.778 170.119 177.19C170.399 176.602 170.787 176.149 171.281 175.832C171.785 175.515 172.369 175.356 173.031 175.356ZM173.017 176.364C172.429 176.364 171.963 176.555 171.617 176.938C171.281 177.311 171.081 177.834 171.015 178.506H174.837C174.828 177.871 174.679 177.358 174.389 176.966C174.1 176.565 173.643 176.364 173.017 176.364ZM183.894 182.986L182.606 178.758C182.485 178.375 182.378 178.002 182.284 177.638C182.191 177.274 182.126 176.985 182.088 176.77H182.032C181.995 176.985 181.934 177.274 181.85 177.638C181.766 178.002 181.659 178.38 181.528 178.772L180.184 182.986H178.784L176.726 175.482H178L179.036 179.486C179.139 179.887 179.237 180.293 179.33 180.704C179.424 181.115 179.489 181.455 179.526 181.726H179.582C179.61 181.567 179.652 181.371 179.708 181.138C179.764 180.905 179.825 180.662 179.89 180.41C179.956 180.149 180.021 179.915 180.086 179.71L181.416 175.482H182.76L184.048 179.71C184.142 180.037 184.24 180.387 184.342 180.76C184.445 181.133 184.515 181.451 184.552 181.712H184.608C184.636 181.479 184.697 181.157 184.79 180.746C184.893 180.335 185 179.915 185.112 179.486L186.162 175.482H187.422L185.336 182.986H183.894Z" fill="#1B77AF"/>
<line x1="89" y1="199.5" x2="289" y2="199.5" stroke="#F1F1F1"/>
<rect width="200" height="44" transform="translate(89 200)" fill="white"/>
<path d="M109.116 217.004C110.357 217.004 111.272 217.242 111.86 217.718C112.457 218.185 112.756 218.894 112.756 219.846C112.756 220.378 112.658 220.821 112.462 221.176C112.266 221.531 112.014 221.815 111.706 222.03C111.407 222.245 111.09 222.408 110.754 222.52L113.498 227H112.028L109.606 222.87H107.618V227H106.358V217.004H109.116ZM109.046 218.096H107.618V221.806H109.116C109.928 221.806 110.521 221.647 110.894 221.33C111.267 221.003 111.454 220.527 111.454 219.902C111.454 219.249 111.258 218.787 110.866 218.516C110.474 218.236 109.867 218.096 109.046 218.096ZM121.423 223.234C121.423 224.475 121.106 225.437 120.471 226.118C119.846 226.799 118.996 227.14 117.923 227.14C117.26 227.14 116.668 226.991 116.145 226.692C115.632 226.384 115.226 225.941 114.927 225.362C114.628 224.774 114.479 224.065 114.479 223.234C114.479 221.993 114.787 221.036 115.403 220.364C116.028 219.692 116.882 219.356 117.965 219.356C118.637 219.356 119.234 219.51 119.757 219.818C120.28 220.117 120.686 220.555 120.975 221.134C121.274 221.703 121.423 222.403 121.423 223.234ZM115.753 223.234C115.753 224.121 115.926 224.825 116.271 225.348C116.626 225.861 117.186 226.118 117.951 226.118C118.707 226.118 119.262 225.861 119.617 225.348C119.972 224.825 120.149 224.121 120.149 223.234C120.149 222.347 119.972 221.652 119.617 221.148C119.262 220.644 118.702 220.392 117.937 220.392C117.172 220.392 116.616 220.644 116.271 221.148C115.926 221.652 115.753 222.347 115.753 223.234ZM126.386 227.14C125.714 227.14 125.121 227.005 124.608 226.734C124.094 226.463 123.688 226.043 123.39 225.474C123.1 224.905 122.956 224.177 122.956 223.29C122.956 222.366 123.105 221.615 123.404 221.036C123.712 220.457 124.132 220.033 124.664 219.762C125.196 219.491 125.798 219.356 126.47 219.356C126.843 219.356 127.207 219.398 127.562 219.482C127.926 219.557 128.22 219.65 128.444 219.762L128.066 220.784C127.842 220.7 127.58 220.621 127.282 220.546C126.983 220.471 126.703 220.434 126.442 220.434C124.967 220.434 124.23 221.381 124.23 223.276C124.23 224.181 124.407 224.877 124.762 225.362C125.126 225.838 125.662 226.076 126.372 226.076C126.773 226.076 127.132 226.034 127.45 225.95C127.767 225.866 128.056 225.763 128.318 225.642V226.734C128.066 226.865 127.786 226.963 127.478 227.028C127.179 227.103 126.815 227.14 126.386 227.14ZM131.334 216.36V219.482C131.334 219.855 131.311 220.205 131.264 220.532H131.348C131.591 220.149 131.917 219.86 132.328 219.664C132.748 219.468 133.201 219.37 133.686 219.37C134.591 219.37 135.273 219.589 135.73 220.028C136.197 220.457 136.43 221.153 136.43 222.114V227H135.212V222.198C135.212 220.994 134.652 220.392 133.532 220.392C132.692 220.392 132.113 220.63 131.796 221.106C131.488 221.573 131.334 222.245 131.334 223.122V227H130.102V216.36H131.334ZM141.654 219.356C142.289 219.356 142.84 219.496 143.306 219.776C143.773 220.056 144.128 220.453 144.37 220.966C144.622 221.47 144.748 222.063 144.748 222.744V223.486H139.61C139.629 224.335 139.844 224.984 140.254 225.432C140.674 225.871 141.258 226.09 142.004 226.09C142.48 226.09 142.9 226.048 143.264 225.964C143.638 225.871 144.02 225.74 144.412 225.572V226.65C144.03 226.818 143.652 226.939 143.278 227.014C142.905 227.098 142.462 227.14 141.948 227.14C141.23 227.14 140.6 226.995 140.058 226.706C139.517 226.417 139.092 225.987 138.784 225.418C138.486 224.849 138.336 224.144 138.336 223.304C138.336 222.483 138.472 221.778 138.742 221.19C139.022 220.602 139.41 220.149 139.904 219.832C140.408 219.515 140.992 219.356 141.654 219.356ZM141.64 220.364C141.052 220.364 140.586 220.555 140.24 220.938C139.904 221.311 139.704 221.834 139.638 222.506H143.46C143.451 221.871 143.302 221.358 143.012 220.966C142.723 220.565 142.266 220.364 141.64 220.364ZM147.891 227H146.659V216.36H147.891V227ZM151.5 227H150.268V216.36H151.5V227ZM156.776 219.356C157.41 219.356 157.961 219.496 158.428 219.776C158.894 220.056 159.249 220.453 159.492 220.966C159.744 221.47 159.87 222.063 159.87 222.744V223.486H154.732C154.75 224.335 154.965 224.984 155.376 225.432C155.796 225.871 156.379 226.09 157.126 226.09C157.602 226.09 158.022 226.048 158.386 225.964C158.759 225.871 159.142 225.74 159.534 225.572V226.65C159.151 226.818 158.773 226.939 158.4 227.014C158.026 227.098 157.583 227.14 157.07 227.14C156.351 227.14 155.721 226.995 155.18 226.706C154.638 226.417 154.214 225.987 153.906 225.418C153.607 224.849 153.458 224.144 153.458 223.304C153.458 222.483 153.593 221.778 153.864 221.19C154.144 220.602 154.531 220.149 155.026 219.832C155.53 219.515 156.113 219.356 156.776 219.356ZM156.762 220.364C156.174 220.364 155.707 220.555 155.362 220.938C155.026 221.311 154.825 221.834 154.76 222.506H158.582C158.572 221.871 158.423 221.358 158.134 220.966C157.844 220.565 157.387 220.364 156.762 220.364ZM169.995 227L166.705 218.236H166.649C166.677 218.525 166.7 218.917 166.719 219.412C166.737 219.897 166.747 220.406 166.747 220.938V227H165.585V217.004H167.447L170.527 225.194H170.583L173.719 217.004H175.567V227H174.321V220.854C174.321 220.369 174.33 219.888 174.349 219.412C174.377 218.936 174.4 218.549 174.419 218.25H174.363L171.031 227H169.995ZM178.748 216.682C178.934 216.682 179.098 216.747 179.238 216.878C179.387 216.999 179.462 217.195 179.462 217.466C179.462 217.737 179.387 217.937 179.238 218.068C179.098 218.189 178.934 218.25 178.748 218.25C178.542 218.25 178.37 218.189 178.23 218.068C178.09 217.937 178.02 217.737 178.02 217.466C178.02 217.195 178.09 216.999 178.23 216.878C178.37 216.747 178.542 216.682 178.748 216.682ZM179.35 219.496V227H178.118V219.496H179.35ZM185.339 219.356C186.235 219.356 186.912 219.575 187.369 220.014C187.826 220.453 188.055 221.153 188.055 222.114V227H186.837V222.198C186.837 220.994 186.277 220.392 185.157 220.392C184.326 220.392 183.752 220.625 183.435 221.092C183.118 221.559 182.959 222.231 182.959 223.108V227H181.727V219.496H182.721L182.903 220.518H182.973C183.216 220.126 183.552 219.837 183.981 219.65C184.41 219.454 184.863 219.356 185.339 219.356ZM193.041 219.356C193.536 219.356 193.979 219.449 194.371 219.636C194.773 219.823 195.113 220.107 195.393 220.49H195.463L195.631 219.496H196.611V227.126C196.611 228.199 196.336 229.007 195.785 229.548C195.244 230.089 194.399 230.36 193.251 230.36C192.15 230.36 191.249 230.201 190.549 229.884V228.75C191.287 229.142 192.211 229.338 193.321 229.338C193.965 229.338 194.469 229.147 194.833 228.764C195.207 228.391 195.393 227.877 195.393 227.224V226.93C195.393 226.818 195.398 226.659 195.407 226.454C195.417 226.239 195.426 226.09 195.435 226.006H195.379C194.875 226.762 194.101 227.14 193.055 227.14C192.085 227.14 191.324 226.799 190.773 226.118C190.232 225.437 189.961 224.485 189.961 223.262C189.961 222.067 190.232 221.12 190.773 220.42C191.324 219.711 192.08 219.356 193.041 219.356ZM193.209 220.392C192.584 220.392 192.099 220.644 191.753 221.148C191.408 221.643 191.235 222.352 191.235 223.276C191.235 224.2 191.403 224.909 191.739 225.404C192.075 225.889 192.575 226.132 193.237 226.132C193.993 226.132 194.544 225.931 194.889 225.53C195.235 225.119 195.407 224.461 195.407 223.556V223.262C195.407 222.245 195.23 221.512 194.875 221.064C194.521 220.616 193.965 220.392 193.209 220.392Z" fill="#1B77AF"/>
<line x1="89" y1="243.5" x2="289" y2="243.5" stroke="#F1F1F1"/>
<rect width="200" height="44" transform="translate(89 244)" fill="white"/>
<path d="M110.768 271L107.478 262.236H107.422C107.45 262.525 107.473 262.917 107.492 263.412C107.511 263.897 107.52 264.406 107.52 264.938V271H106.358V261.004H108.22L111.3 269.194H111.356L114.492 261.004H116.34V271H115.094V264.854C115.094 264.369 115.103 263.888 115.122 263.412C115.15 262.936 115.173 262.549 115.192 262.25H115.136L111.804 271H110.768ZM121.733 263.37C122.648 263.37 123.325 263.571 123.763 263.972C124.202 264.373 124.421 265.013 124.421 265.89V271H123.525L123.287 269.936H123.231C122.905 270.347 122.559 270.65 122.195 270.846C121.831 271.042 121.337 271.14 120.711 271.14C120.03 271.14 119.465 270.963 119.017 270.608C118.569 270.244 118.345 269.679 118.345 268.914C118.345 268.167 118.639 267.593 119.227 267.192C119.815 266.781 120.721 266.557 121.943 266.52L123.217 266.478V266.03C123.217 265.405 123.082 264.971 122.811 264.728C122.541 264.485 122.158 264.364 121.663 264.364C121.271 264.364 120.898 264.425 120.543 264.546C120.189 264.658 119.857 264.789 119.549 264.938L119.171 264.014C119.498 263.837 119.885 263.687 120.333 263.566C120.781 263.435 121.248 263.37 121.733 263.37ZM123.203 267.332L122.097 267.374C121.164 267.411 120.515 267.561 120.151 267.822C119.797 268.083 119.619 268.452 119.619 268.928C119.619 269.348 119.745 269.656 119.997 269.852C120.259 270.048 120.59 270.146 120.991 270.146C121.617 270.146 122.139 269.973 122.559 269.628C122.989 269.273 123.203 268.732 123.203 268.004V267.332ZM131.625 268.928C131.625 269.656 131.354 270.207 130.813 270.58C130.271 270.953 129.543 271.14 128.629 271.14C128.106 271.14 127.653 271.098 127.271 271.014C126.897 270.93 126.566 270.813 126.277 270.664V269.544C126.575 269.693 126.935 269.833 127.355 269.964C127.784 270.085 128.218 270.146 128.657 270.146C129.282 270.146 129.735 270.048 130.015 269.852C130.295 269.647 130.435 269.376 130.435 269.04C130.435 268.853 130.383 268.685 130.281 268.536C130.178 268.387 129.991 268.237 129.721 268.088C129.459 267.939 129.081 267.771 128.587 267.584C128.101 267.397 127.686 267.211 127.341 267.024C126.995 266.837 126.729 266.613 126.543 266.352C126.356 266.091 126.263 265.755 126.263 265.344C126.263 264.709 126.519 264.219 127.033 263.874C127.555 263.529 128.237 263.356 129.077 263.356C129.534 263.356 129.959 263.403 130.351 263.496C130.752 263.589 131.125 263.711 131.471 263.86L131.051 264.84C130.733 264.709 130.402 264.597 130.057 264.504C129.711 264.411 129.357 264.364 128.993 264.364C128.489 264.364 128.101 264.448 127.831 264.616C127.569 264.775 127.439 264.994 127.439 265.274C127.439 265.489 127.499 265.666 127.621 265.806C127.742 265.946 127.943 266.086 128.223 266.226C128.512 266.366 128.895 266.525 129.371 266.702C129.847 266.879 130.253 267.061 130.589 267.248C130.925 267.435 131.181 267.663 131.359 267.934C131.536 268.195 131.625 268.527 131.625 268.928ZM139.962 267.234C139.962 268.475 139.645 269.437 139.01 270.118C138.385 270.799 137.535 271.14 136.462 271.14C135.799 271.14 135.207 270.991 134.684 270.692C134.171 270.384 133.765 269.941 133.466 269.362C133.167 268.774 133.018 268.065 133.018 267.234C133.018 265.993 133.326 265.036 133.942 264.364C134.567 263.692 135.421 263.356 136.504 263.356C137.176 263.356 137.773 263.51 138.296 263.818C138.819 264.117 139.225 264.555 139.514 265.134C139.813 265.703 139.962 266.403 139.962 267.234ZM134.292 267.234C134.292 268.121 134.465 268.825 134.81 269.348C135.165 269.861 135.725 270.118 136.49 270.118C137.246 270.118 137.801 269.861 138.156 269.348C138.511 268.825 138.688 268.121 138.688 267.234C138.688 266.347 138.511 265.652 138.156 265.148C137.801 264.644 137.241 264.392 136.476 264.392C135.711 264.392 135.155 264.644 134.81 265.148C134.465 265.652 134.292 266.347 134.292 267.234ZM145.527 263.356C146.423 263.356 147.099 263.575 147.557 264.014C148.014 264.453 148.243 265.153 148.243 266.114V271H147.025V266.198C147.025 264.994 146.465 264.392 145.345 264.392C144.514 264.392 143.94 264.625 143.623 265.092C143.305 265.559 143.147 266.231 143.147 267.108V271H141.915V263.496H142.909L143.091 264.518H143.161C143.403 264.126 143.739 263.837 144.169 263.65C144.598 263.454 145.051 263.356 145.527 263.356ZM160.646 271L159.442 267.906H155.48L154.29 271H153.016L156.922 260.962H158.056L161.948 271H160.646ZM159.064 266.786L157.944 263.762C157.916 263.687 157.869 263.552 157.804 263.356C157.738 263.16 157.673 262.959 157.608 262.754C157.552 262.539 157.505 262.376 157.468 262.264C157.393 262.553 157.314 262.838 157.23 263.118C157.155 263.389 157.09 263.603 157.034 263.762L155.9 266.786H159.064ZM166.759 263.356C167.655 263.356 168.332 263.575 168.789 264.014C169.246 264.453 169.475 265.153 169.475 266.114V271H168.257V266.198C168.257 264.994 167.697 264.392 166.577 264.392C165.746 264.392 165.172 264.625 164.855 265.092C164.538 265.559 164.379 266.231 164.379 267.108V271H163.147V263.496H164.141L164.323 264.518H164.393C164.636 264.126 164.972 263.837 165.401 263.65C165.83 263.454 166.283 263.356 166.759 263.356ZM174.461 271.14C173.528 271.14 172.781 270.818 172.221 270.174C171.661 269.521 171.381 268.55 171.381 267.262C171.381 265.974 171.661 265.003 172.221 264.35C172.791 263.687 173.542 263.356 174.475 263.356C175.054 263.356 175.525 263.463 175.889 263.678C176.263 263.893 176.566 264.154 176.799 264.462H176.883C176.865 264.341 176.846 264.163 176.827 263.93C176.809 263.687 176.799 263.496 176.799 263.356V260.36H178.031V271H177.037L176.855 269.992H176.799C176.575 270.309 176.277 270.58 175.903 270.804C175.53 271.028 175.049 271.14 174.461 271.14ZM174.657 270.118C175.451 270.118 176.006 269.903 176.323 269.474C176.65 269.035 176.813 268.377 176.813 267.5V267.276C176.813 266.343 176.659 265.629 176.351 265.134C176.043 264.63 175.474 264.378 174.643 264.378C173.981 264.378 173.481 264.644 173.145 265.176C172.819 265.699 172.655 266.403 172.655 267.29C172.655 268.186 172.819 268.881 173.145 269.376C173.481 269.871 173.985 270.118 174.657 270.118ZM183.313 263.356C183.947 263.356 184.498 263.496 184.965 263.776C185.431 264.056 185.786 264.453 186.029 264.966C186.281 265.47 186.407 266.063 186.407 266.744V267.486H181.269C181.287 268.335 181.502 268.984 181.913 269.432C182.333 269.871 182.916 270.09 183.663 270.09C184.139 270.09 184.559 270.048 184.923 269.964C185.296 269.871 185.679 269.74 186.071 269.572V270.65C185.688 270.818 185.31 270.939 184.937 271.014C184.563 271.098 184.12 271.14 183.607 271.14C182.888 271.14 182.258 270.995 181.717 270.706C181.175 270.417 180.751 269.987 180.443 269.418C180.144 268.849 179.995 268.144 179.995 267.304C179.995 266.483 180.13 265.778 180.401 265.19C180.681 264.602 181.068 264.149 181.563 263.832C182.067 263.515 182.65 263.356 183.313 263.356ZM183.299 264.364C182.711 264.364 182.244 264.555 181.899 264.938C181.563 265.311 181.362 265.834 181.297 266.506H185.119C185.109 265.871 184.96 265.358 184.671 264.966C184.381 264.565 183.924 264.364 183.299 264.364ZM191.817 263.356C191.957 263.356 192.106 263.365 192.265 263.384C192.424 263.393 192.568 263.412 192.699 263.44L192.545 264.574C192.424 264.546 192.288 264.523 192.139 264.504C191.99 264.485 191.854 264.476 191.733 264.476C191.35 264.476 190.991 264.583 190.655 264.798C190.319 265.003 190.048 265.297 189.843 265.68C189.647 266.053 189.549 266.492 189.549 266.996V271H188.317V263.496H189.325L189.465 264.868H189.521C189.754 264.457 190.062 264.103 190.445 263.804C190.837 263.505 191.294 263.356 191.817 263.356ZM198.986 268.928C198.986 269.656 198.715 270.207 198.174 270.58C197.633 270.953 196.905 271.14 195.99 271.14C195.467 271.14 195.015 271.098 194.632 271.014C194.259 270.93 193.927 270.813 193.638 270.664V269.544C193.937 269.693 194.296 269.833 194.716 269.964C195.145 270.085 195.579 270.146 196.018 270.146C196.643 270.146 197.096 270.048 197.376 269.852C197.656 269.647 197.796 269.376 197.796 269.04C197.796 268.853 197.745 268.685 197.642 268.536C197.539 268.387 197.353 268.237 197.082 268.088C196.821 267.939 196.443 267.771 195.948 267.584C195.463 267.397 195.047 267.211 194.702 267.024C194.357 266.837 194.091 266.613 193.904 266.352C193.717 266.091 193.624 265.755 193.624 265.344C193.624 264.709 193.881 264.219 194.394 263.874C194.917 263.529 195.598 263.356 196.438 263.356C196.895 263.356 197.32 263.403 197.712 263.496C198.113 263.589 198.487 263.711 198.832 263.86L198.412 264.84C198.095 264.709 197.763 264.597 197.418 264.504C197.073 264.411 196.718 264.364 196.354 264.364C195.85 264.364 195.463 264.448 195.192 264.616C194.931 264.775 194.8 264.994 194.8 265.274C194.8 265.489 194.861 265.666 194.982 265.806C195.103 265.946 195.304 266.086 195.584 266.226C195.873 266.366 196.256 266.525 196.732 266.702C197.208 266.879 197.614 267.061 197.95 267.248C198.286 267.435 198.543 267.663 198.72 267.934C198.897 268.195 198.986 268.527 198.986 268.928ZM207.323 267.234C207.323 268.475 207.006 269.437 206.371 270.118C205.746 270.799 204.897 271.14 203.823 271.14C203.161 271.14 202.568 270.991 202.045 270.692C201.532 270.384 201.126 269.941 200.827 269.362C200.529 268.774 200.379 268.065 200.379 267.234C200.379 265.993 200.687 265.036 201.303 264.364C201.929 263.692 202.783 263.356 203.865 263.356C204.537 263.356 205.135 263.51 205.657 263.818C206.18 264.117 206.586 264.555 206.875 265.134C207.174 265.703 207.323 266.403 207.323 267.234ZM201.653 267.234C201.653 268.121 201.826 268.825 202.171 269.348C202.526 269.861 203.086 270.118 203.851 270.118C204.607 270.118 205.163 269.861 205.517 269.348C205.872 268.825 206.049 268.121 206.049 267.234C206.049 266.347 205.872 265.652 205.517 265.148C205.163 264.644 204.603 264.392 203.837 264.392C203.072 264.392 202.517 264.644 202.171 265.148C201.826 265.652 201.653 266.347 201.653 267.234ZM212.888 263.356C213.784 263.356 214.461 263.575 214.918 264.014C215.375 264.453 215.604 265.153 215.604 266.114V271H214.386V266.198C214.386 264.994 213.826 264.392 212.706 264.392C211.875 264.392 211.301 264.625 210.984 265.092C210.667 265.559 210.508 266.231 210.508 267.108V271H209.276V263.496H210.27L210.452 264.518H210.522C210.765 264.126 211.101 263.837 211.53 263.65C211.959 263.454 212.412 263.356 212.888 263.356Z" fill="#1B77AF"/>
<line x1="89" y1="287.5" x2="289" y2="287.5" stroke="#F1F1F1"/>
<g filter="url(#filter0_d_9160_132408)">
<path fill-rule="evenodd" clip-rule="evenodd" d="M248.841 135.516L253.487 133.865L241 127L244.64 140.776L247.366 136.668L250.63 140.845L252.104 139.693L248.841 135.516Z" fill="#363B3E"/>
<path d="M249.662 135.755L253.654 134.336L254.703 133.963L253.727 133.427L241.241 126.562L240.219 126L240.517 127.128L244.157 140.904L244.441 141.981L245.057 141.053L247.399 137.522L250.236 141.153L250.544 141.547L250.938 141.239L252.412 140.087L252.806 139.78L252.498 139.386L249.662 135.755Z" stroke="white" stroke-opacity="0.8"/>
</g>
<rect width="102" height="44" transform="translate(289 24)" fill="white"/>
<path d="M312.476 51L311.566 48.354H307.8L306.904 51H305L308.668 40.962H310.712L314.38 51H312.476ZM311.104 46.814L310.236 44.238C310.199 44.1167 310.143 43.944 310.068 43.72C309.993 43.4867 309.923 43.2533 309.858 43.02C309.793 42.7773 309.737 42.5767 309.69 42.418C309.643 42.614 309.583 42.8333 309.508 43.076C309.443 43.3187 309.377 43.5473 309.312 43.762C309.256 43.9767 309.209 44.1353 309.172 44.238L308.29 46.814H311.104ZM318.075 43.272C319.055 43.272 319.806 43.6453 320.329 44.392H320.399L320.567 43.412H322.037V51.056C322.037 52.1387 321.733 52.96 321.127 53.52C320.52 54.08 319.605 54.36 318.383 54.36C317.841 54.36 317.342 54.3227 316.885 54.248C316.427 54.1827 315.993 54.066 315.583 53.898V52.442C316.012 52.6287 316.469 52.7733 316.955 52.876C317.449 52.9787 317.963 53.03 318.495 53.03C319.064 53.03 319.503 52.8667 319.811 52.54C320.119 52.2227 320.273 51.756 320.273 51.14V50.944C320.273 50.804 320.277 50.6407 320.287 50.454C320.296 50.2673 320.31 50.118 320.329 50.006H320.273C320.011 50.398 319.689 50.6873 319.307 50.874C318.933 51.0513 318.509 51.14 318.033 51.14C317.109 51.14 316.385 50.7947 315.863 50.104C315.34 49.4133 315.079 48.452 315.079 47.22C315.079 45.988 315.34 45.022 315.863 44.322C316.395 43.622 317.132 43.272 318.075 43.272ZM318.537 44.714C317.435 44.714 316.885 45.5587 316.885 47.248C316.885 48.9093 317.445 49.74 318.565 49.74C319.181 49.74 319.633 49.572 319.923 49.236C320.221 48.8907 320.371 48.312 320.371 47.5V47.234C320.371 46.338 320.221 45.694 319.923 45.302C319.633 44.91 319.171 44.714 318.537 44.714ZM327.342 43.272C328.36 43.272 329.162 43.5753 329.75 44.182C330.348 44.7887 330.646 45.6333 330.646 46.716V47.612H325.634C325.653 48.3027 325.844 48.8393 326.208 49.222C326.572 49.5953 327.076 49.782 327.72 49.782C328.206 49.782 328.644 49.7353 329.036 49.642C329.428 49.5393 329.83 49.3947 330.24 49.208V50.622C329.867 50.7993 329.48 50.93 329.078 51.014C328.677 51.098 328.196 51.14 327.636 51.14C326.89 51.14 326.232 51 325.662 50.72C325.093 50.4307 324.645 50.0013 324.318 49.432C324.001 48.8533 323.842 48.13 323.842 47.262C323.842 45.9647 324.16 44.9753 324.794 44.294C325.438 43.6127 326.288 43.272 327.342 43.272ZM327.342 44.574C326.866 44.574 326.479 44.728 326.18 45.036C325.891 45.3347 325.723 45.7827 325.676 46.38H328.938C328.929 45.8573 328.794 45.428 328.532 45.092C328.28 44.7467 327.884 44.574 327.342 44.574ZM336.485 43.272C337.334 43.272 337.997 43.4913 338.473 43.93C338.958 44.3687 339.201 45.078 339.201 46.058V51H337.437V46.408C337.437 45.8387 337.325 45.414 337.101 45.134C336.877 44.8447 336.522 44.7 336.037 44.7C335.328 44.7 334.842 44.924 334.581 45.372C334.32 45.82 334.189 46.4593 334.189 47.29V51H332.425V43.412H333.783L334.035 44.406H334.133C334.376 44.014 334.707 43.7293 335.127 43.552C335.556 43.3653 336.009 43.272 336.485 43.272ZM344.347 49.726C344.562 49.726 344.772 49.7073 344.977 49.67C345.192 49.6233 345.388 49.572 345.565 49.516V50.832C345.379 50.9253 345.136 51 344.837 51.056C344.539 51.112 344.226 51.14 343.899 51.14C343.461 51.14 343.064 51.07 342.709 50.93C342.364 50.79 342.089 50.5427 341.883 50.188C341.678 49.8333 341.575 49.334 341.575 48.69V44.742H340.553V43.972L341.673 43.356L342.233 41.746H343.339V43.412H345.495V44.742H343.339V48.676C343.339 49.0307 343.433 49.2967 343.619 49.474C343.815 49.642 344.058 49.726 344.347 49.726ZM354.288 51H350.088V49.978L351.292 49.53V42.488L350.088 42.026V41.004H354.288V42.026L353.084 42.488V49.53L354.288 49.978V51ZM364.257 45.904C364.257 47.5933 363.786 48.8673 362.843 49.726C361.901 50.5753 360.585 51 358.895 51H356.081V41.004H359.189C360.225 41.004 361.121 41.1907 361.877 41.564C362.633 41.9373 363.217 42.488 363.627 43.216C364.047 43.944 364.257 44.84 364.257 45.904ZM362.381 45.96C362.381 44.7653 362.106 43.888 361.555 43.328C361.005 42.768 360.216 42.488 359.189 42.488H357.873V49.502H358.951C361.238 49.502 362.381 48.3213 362.381 45.96Z" fill="black"/>
<line x1="289" y1="24.5" x2="391" y2="24.5" stroke="#C9C9C9"/>
<line x1="289" y1="67.5" x2="391" y2="67.5" stroke="#C9C9C9"/>
<rect width="102" height="44" transform="translate(289 68)" fill="white"/>
<path d="M309.97 95H308.766V88.014C308.766 87.6127 308.771 87.2907 308.78 87.048C308.789 86.8053 308.803 86.5533 308.822 86.292C308.673 86.4413 308.533 86.5673 308.402 86.67C308.281 86.7727 308.131 86.9033 307.954 87.062L306.89 87.93L306.246 87.104L308.948 85.004H309.97V95ZM319.914 87.342C319.914 88.014 319.722 88.5507 319.34 88.952C318.966 89.344 318.467 89.6053 317.842 89.736V89.792C318.635 89.8853 319.228 90.1373 319.62 90.548C320.021 90.9587 320.222 91.4953 320.222 92.158C320.222 92.746 320.086 93.264 319.816 93.712C319.545 94.16 319.125 94.51 318.556 94.762C317.996 95.014 317.272 95.14 316.386 95.14C315.863 95.14 315.378 95.098 314.93 95.014C314.482 94.9393 314.052 94.7993 313.642 94.594V93.446C314.062 93.6607 314.514 93.824 315 93.936C315.485 94.048 315.952 94.104 316.4 94.104C317.296 94.104 317.94 93.9313 318.332 93.586C318.733 93.2313 318.934 92.746 318.934 92.13C318.934 91.5047 318.686 91.0567 318.192 90.786C317.706 90.506 317.02 90.366 316.134 90.366H315.168V89.316H316.148C316.969 89.316 317.59 89.1433 318.01 88.798C318.439 88.4527 318.654 87.9953 318.654 87.426C318.654 86.9407 318.49 86.5673 318.164 86.306C317.837 86.0353 317.394 85.9 316.834 85.9C316.292 85.9 315.83 85.9793 315.448 86.138C315.065 86.2967 314.687 86.4973 314.314 86.74L313.698 85.9C314.052 85.62 314.491 85.3773 315.014 85.172C315.546 84.9667 316.148 84.864 316.82 84.864C317.865 84.864 318.64 85.0973 319.144 85.564C319.657 86.0307 319.914 86.6233 319.914 87.342ZM321.793 90.73C321.793 90.0113 321.854 89.3067 321.975 88.616C322.106 87.916 322.335 87.286 322.661 86.726C322.997 86.1567 323.464 85.704 324.061 85.368C324.659 85.032 325.429 84.864 326.371 84.864C326.567 84.864 326.782 84.8733 327.015 84.892C327.258 84.9107 327.454 84.9433 327.603 84.99V86.04C327.435 85.984 327.244 85.942 327.029 85.914C326.815 85.886 326.605 85.872 326.399 85.872C325.755 85.872 325.219 85.9793 324.789 86.194C324.36 86.4087 324.019 86.7027 323.767 87.076C323.525 87.4493 323.347 87.8787 323.235 88.364C323.123 88.8493 323.053 89.3673 323.025 89.918H323.109C323.324 89.5913 323.623 89.316 324.005 89.092C324.388 88.8587 324.878 88.742 325.475 88.742C326.343 88.742 327.043 89.008 327.575 89.54C328.107 90.0627 328.373 90.8093 328.373 91.78C328.373 92.8253 328.084 93.6467 327.505 94.244C326.936 94.8413 326.166 95.14 325.195 95.14C324.561 95.14 323.987 94.9813 323.473 94.664C322.96 94.3467 322.549 93.8613 322.241 93.208C321.943 92.5547 321.793 91.7287 321.793 90.73ZM325.181 94.104C325.769 94.104 326.245 93.9173 326.609 93.544C326.973 93.1613 327.155 92.5733 327.155 91.78C327.155 91.1453 326.992 90.6413 326.665 90.268C326.348 89.8947 325.867 89.708 325.223 89.708C324.785 89.708 324.402 89.8013 324.075 89.988C323.749 90.1653 323.492 90.3987 323.305 90.688C323.128 90.968 323.039 91.2527 323.039 91.542C323.039 91.9433 323.119 92.3447 323.277 92.746C323.436 93.138 323.674 93.4647 323.991 93.726C324.309 93.978 324.705 94.104 325.181 94.104ZM336.763 92.732H335.307V95H334.117V92.732H329.329V91.682L334.033 84.948H335.307V91.626H336.763V92.732ZM334.117 91.626V88.476C334.117 87.9907 334.122 87.58 334.131 87.244C334.15 86.8987 334.168 86.572 334.187 86.264H334.131C334.056 86.4413 333.963 86.6327 333.851 86.838C333.739 87.0433 333.632 87.216 333.529 87.356L330.533 91.626H334.117ZM340.897 88.868C341.914 88.868 342.726 89.1247 343.333 89.638C343.949 90.1513 344.257 90.8747 344.257 91.808C344.257 92.844 343.926 93.6607 343.263 94.258C342.61 94.846 341.695 95.14 340.519 95.14C339.996 95.14 339.511 95.0933 339.063 95C338.615 94.9067 338.237 94.7713 337.929 94.594V93.432C338.265 93.6373 338.671 93.8007 339.147 93.922C339.632 94.034 340.094 94.09 340.533 94.09C341.27 94.09 341.863 93.9173 342.311 93.572C342.768 93.2173 342.997 92.6713 342.997 91.934C342.997 91.2807 342.796 90.7813 342.395 90.436C341.994 90.0813 341.359 89.904 340.491 89.904C340.23 89.904 339.931 89.9273 339.595 89.974C339.259 90.0207 338.988 90.0673 338.783 90.114L338.167 89.722L338.545 85.004H343.557V86.124H339.595L339.357 89.022C339.516 88.994 339.73 88.9613 340.001 88.924C340.272 88.8867 340.57 88.868 340.897 88.868ZM350.029 95H348.825V88.014C348.825 87.6127 348.829 87.2907 348.839 87.048C348.848 86.8053 348.862 86.5533 348.881 86.292C348.731 86.4413 348.591 86.5673 348.461 86.67C348.339 86.7727 348.19 86.9033 348.013 87.062L346.949 87.93L346.305 87.104L349.007 85.004H350.029V95Z" fill="black"/>
<line x1="289" y1="111.5" x2="391" y2="111.5" stroke="#F1F1F1"/>
<rect width="102" height="44" transform="translate(289 112)" fill="#DDDDDD"/>
<path d="M309.97 139H308.766V132.014C308.766 131.613 308.771 131.291 308.78 131.048C308.789 130.805 308.803 130.553 308.822 130.292C308.673 130.441 308.533 130.567 308.402 130.67C308.281 130.773 308.131 130.903 307.954 131.062L306.89 131.93L306.246 131.104L308.948 129.004H309.97V139ZM316.862 132.868C317.879 132.868 318.691 133.125 319.298 133.638C319.914 134.151 320.222 134.875 320.222 135.808C320.222 136.844 319.89 137.661 319.228 138.258C318.574 138.846 317.66 139.14 316.484 139.14C315.961 139.14 315.476 139.093 315.028 139C314.58 138.907 314.202 138.771 313.894 138.594V137.432C314.23 137.637 314.636 137.801 315.112 137.922C315.597 138.034 316.059 138.09 316.498 138.09C317.235 138.09 317.828 137.917 318.276 137.572C318.733 137.217 318.962 136.671 318.962 135.934C318.962 135.281 318.761 134.781 318.36 134.436C317.958 134.081 317.324 133.904 316.456 133.904C316.194 133.904 315.896 133.927 315.56 133.974C315.224 134.021 314.953 134.067 314.748 134.114L314.132 133.722L314.51 129.004H319.522V130.124H315.56L315.322 133.022C315.48 132.994 315.695 132.961 315.966 132.924C316.236 132.887 316.535 132.868 316.862 132.868ZM327.925 131.342C327.925 132.014 327.734 132.551 327.351 132.952C326.978 133.344 326.479 133.605 325.853 133.736V133.792C326.647 133.885 327.239 134.137 327.631 134.548C328.033 134.959 328.233 135.495 328.233 136.158C328.233 136.746 328.098 137.264 327.827 137.712C327.557 138.16 327.137 138.51 326.567 138.762C326.007 139.014 325.284 139.14 324.397 139.14C323.875 139.14 323.389 139.098 322.941 139.014C322.493 138.939 322.064 138.799 321.653 138.594V137.446C322.073 137.661 322.526 137.824 323.011 137.936C323.497 138.048 323.963 138.104 324.411 138.104C325.307 138.104 325.951 137.931 326.343 137.586C326.745 137.231 326.945 136.746 326.945 136.13C326.945 135.505 326.698 135.057 326.203 134.786C325.718 134.506 325.032 134.366 324.145 134.366H323.179V133.316H324.159C324.981 133.316 325.601 133.143 326.021 132.798C326.451 132.453 326.665 131.995 326.665 131.426C326.665 130.941 326.502 130.567 326.175 130.306C325.849 130.035 325.405 129.9 324.845 129.9C324.304 129.9 323.842 129.979 323.459 130.138C323.077 130.297 322.699 130.497 322.325 130.74L321.709 129.9C322.064 129.62 322.503 129.377 323.025 129.172C323.557 128.967 324.159 128.864 324.831 128.864C325.877 128.864 326.651 129.097 327.155 129.564C327.669 130.031 327.925 130.623 327.925 131.342ZM335.937 131.342C335.937 132.014 335.746 132.551 335.363 132.952C334.99 133.344 334.49 133.605 333.865 133.736V133.792C334.658 133.885 335.251 134.137 335.643 134.548C336.044 134.959 336.245 135.495 336.245 136.158C336.245 136.746 336.11 137.264 335.839 137.712C335.568 138.16 335.148 138.51 334.579 138.762C334.019 139.014 333.296 139.14 332.409 139.14C331.886 139.14 331.401 139.098 330.953 139.014C330.505 138.939 330.076 138.799 329.665 138.594V137.446C330.085 137.661 330.538 137.824 331.023 137.936C331.508 138.048 331.975 138.104 332.423 138.104C333.319 138.104 333.963 137.931 334.355 137.586C334.756 137.231 334.957 136.746 334.957 136.13C334.957 135.505 334.71 135.057 334.215 134.786C333.73 134.506 333.044 134.366 332.157 134.366H331.191V133.316H332.171C332.992 133.316 333.613 133.143 334.033 132.798C334.462 132.453 334.677 131.995 334.677 131.426C334.677 130.941 334.514 130.567 334.187 130.306C333.86 130.035 333.417 129.9 332.857 129.9C332.316 129.9 331.854 129.979 331.471 130.138C331.088 130.297 330.71 130.497 330.337 130.74L329.721 129.9C330.076 129.62 330.514 129.377 331.037 129.172C331.569 128.967 332.171 128.864 332.843 128.864C333.888 128.864 334.663 129.097 335.167 129.564C335.68 130.031 335.937 130.623 335.937 131.342ZM344.775 136.732H343.319V139H342.129V136.732H337.341V135.682L342.045 128.948H343.319V135.626H344.775V136.732ZM342.129 135.626V132.476C342.129 131.991 342.134 131.58 342.143 131.244C342.162 130.899 342.18 130.572 342.199 130.264H342.143C342.068 130.441 341.975 130.633 341.863 130.838C341.751 131.043 341.644 131.216 341.541 131.356L338.545 135.626H342.129ZM348.909 132.868C349.926 132.868 350.738 133.125 351.345 133.638C351.961 134.151 352.269 134.875 352.269 135.808C352.269 136.844 351.937 137.661 351.275 138.258C350.621 138.846 349.707 139.14 348.531 139.14C348.008 139.14 347.523 139.093 347.075 139C346.627 138.907 346.249 138.771 345.941 138.594V137.432C346.277 137.637 346.683 137.801 347.159 137.922C347.644 138.034 348.106 138.09 348.545 138.09C349.282 138.09 349.875 137.917 350.323 137.572C350.78 137.217 351.009 136.671 351.009 135.934C351.009 135.281 350.808 134.781 350.407 134.436C350.005 134.081 349.371 133.904 348.503 133.904C348.241 133.904 347.943 133.927 347.607 133.974C347.271 134.021 347 134.067 346.795 134.114L346.179 133.722L346.557 129.004H351.569V130.124H347.607L347.369 133.022C347.527 132.994 347.742 132.961 348.013 132.924C348.283 132.887 348.582 132.868 348.909 132.868Z" fill="black"/>
<line x1="289" y1="155.5" x2="391" y2="155.5" stroke="#F1F1F1"/>
<rect width="102" height="44" transform="translate(289 156)" fill="white"/>
<path d="M312.28 183H305.672V181.978L308.29 179.332C308.785 178.828 309.205 178.38 309.55 177.988C309.905 177.596 310.171 177.213 310.348 176.84C310.525 176.467 310.614 176.051 310.614 175.594C310.614 175.043 310.451 174.628 310.124 174.348C309.797 174.059 309.373 173.914 308.85 173.914C308.355 173.914 307.926 173.998 307.562 174.166C307.198 174.334 306.825 174.567 306.442 174.866L305.784 174.04C306.176 173.713 306.624 173.438 307.128 173.214C307.641 172.981 308.215 172.864 308.85 172.864C309.783 172.864 310.521 173.102 311.062 173.578C311.603 174.054 311.874 174.703 311.874 175.524C311.874 176.047 311.767 176.537 311.552 176.994C311.337 177.451 311.039 177.904 310.656 178.352C310.273 178.8 309.825 179.271 309.312 179.766L307.226 181.824V181.88H312.28V183ZM319.914 175.342C319.914 176.014 319.722 176.551 319.34 176.952C318.966 177.344 318.467 177.605 317.842 177.736V177.792C318.635 177.885 319.228 178.137 319.62 178.548C320.021 178.959 320.222 179.495 320.222 180.158C320.222 180.746 320.086 181.264 319.816 181.712C319.545 182.16 319.125 182.51 318.556 182.762C317.996 183.014 317.272 183.14 316.386 183.14C315.863 183.14 315.378 183.098 314.93 183.014C314.482 182.939 314.052 182.799 313.642 182.594V181.446C314.062 181.661 314.514 181.824 315 181.936C315.485 182.048 315.952 182.104 316.4 182.104C317.296 182.104 317.94 181.931 318.332 181.586C318.733 181.231 318.934 180.746 318.934 180.13C318.934 179.505 318.686 179.057 318.192 178.786C317.706 178.506 317.02 178.366 316.134 178.366H315.168V177.316H316.148C316.969 177.316 317.59 177.143 318.01 176.798C318.439 176.453 318.654 175.995 318.654 175.426C318.654 174.941 318.49 174.567 318.164 174.306C317.837 174.035 317.394 173.9 316.834 173.9C316.292 173.9 315.83 173.979 315.448 174.138C315.065 174.297 314.687 174.497 314.314 174.74L313.698 173.9C314.052 173.62 314.491 173.377 315.014 173.172C315.546 172.967 316.148 172.864 316.82 172.864C317.865 172.864 318.64 173.097 319.144 173.564C319.657 174.031 319.914 174.623 319.914 175.342ZM321.793 178.73C321.793 178.011 321.854 177.307 321.975 176.616C322.106 175.916 322.335 175.286 322.661 174.726C322.997 174.157 323.464 173.704 324.061 173.368C324.659 173.032 325.429 172.864 326.371 172.864C326.567 172.864 326.782 172.873 327.015 172.892C327.258 172.911 327.454 172.943 327.603 172.99V174.04C327.435 173.984 327.244 173.942 327.029 173.914C326.815 173.886 326.605 173.872 326.399 173.872C325.755 173.872 325.219 173.979 324.789 174.194C324.36 174.409 324.019 174.703 323.767 175.076C323.525 175.449 323.347 175.879 323.235 176.364C323.123 176.849 323.053 177.367 323.025 177.918H323.109C323.324 177.591 323.623 177.316 324.005 177.092C324.388 176.859 324.878 176.742 325.475 176.742C326.343 176.742 327.043 177.008 327.575 177.54C328.107 178.063 328.373 178.809 328.373 179.78C328.373 180.825 328.084 181.647 327.505 182.244C326.936 182.841 326.166 183.14 325.195 183.14C324.561 183.14 323.987 182.981 323.473 182.664C322.96 182.347 322.549 181.861 322.241 181.208C321.943 180.555 321.793 179.729 321.793 178.73ZM325.181 182.104C325.769 182.104 326.245 181.917 326.609 181.544C326.973 181.161 327.155 180.573 327.155 179.78C327.155 179.145 326.992 178.641 326.665 178.268C326.348 177.895 325.867 177.708 325.223 177.708C324.785 177.708 324.402 177.801 324.075 177.988C323.749 178.165 323.492 178.399 323.305 178.688C323.128 178.968 323.039 179.253 323.039 179.542C323.039 179.943 323.119 180.345 323.277 180.746C323.436 181.138 323.674 181.465 323.991 181.726C324.309 181.978 324.705 182.104 325.181 182.104ZM336.315 177.274C336.315 177.993 336.25 178.702 336.119 179.402C335.998 180.093 335.769 180.723 335.433 181.292C335.106 181.852 334.64 182.3 334.033 182.636C333.436 182.972 332.666 183.14 331.723 183.14C331.536 183.14 331.317 183.126 331.065 183.098C330.813 183.079 330.612 183.047 330.463 183V181.95C330.827 182.071 331.238 182.132 331.695 182.132C332.348 182.132 332.885 182.025 333.305 181.81C333.734 181.595 334.075 181.306 334.327 180.942C334.579 180.569 334.761 180.139 334.873 179.654C334.985 179.159 335.05 178.641 335.069 178.1H334.985C334.77 178.417 334.472 178.693 334.089 178.926C333.706 179.15 333.212 179.262 332.605 179.262C331.746 179.262 331.051 179.001 330.519 178.478C329.996 177.946 329.735 177.199 329.735 176.238C329.735 175.538 329.866 174.936 330.127 174.432C330.388 173.928 330.757 173.541 331.233 173.27C331.718 172.999 332.283 172.864 332.927 172.864C333.562 172.864 334.136 173.027 334.649 173.354C335.162 173.671 335.568 174.157 335.867 174.81C336.166 175.454 336.315 176.275 336.315 177.274ZM332.927 173.9C332.348 173.9 331.872 174.091 331.499 174.474C331.135 174.857 330.953 175.44 330.953 176.224C330.953 176.868 331.107 177.377 331.415 177.75C331.732 178.114 332.218 178.296 332.871 178.296C333.319 178.296 333.706 178.207 334.033 178.03C334.36 177.843 334.612 177.61 334.789 177.33C334.976 177.05 335.069 176.761 335.069 176.462C335.069 176.061 334.99 175.664 334.831 175.272C334.672 174.88 334.434 174.553 334.117 174.292C333.8 174.031 333.403 173.9 332.927 173.9ZM344.327 183H337.719V181.978L340.337 179.332C340.832 178.828 341.252 178.38 341.597 177.988C341.952 177.596 342.218 177.213 342.395 176.84C342.572 176.467 342.661 176.051 342.661 175.594C342.661 175.043 342.498 174.628 342.171 174.348C341.844 174.059 341.42 173.914 340.897 173.914C340.402 173.914 339.973 173.998 339.609 174.166C339.245 174.334 338.872 174.567 338.489 174.866L337.831 174.04C338.223 173.713 338.671 173.438 339.175 173.214C339.688 172.981 340.262 172.864 340.897 172.864C341.83 172.864 342.568 173.102 343.109 173.578C343.65 174.054 343.921 174.703 343.921 175.524C343.921 176.047 343.814 176.537 343.599 176.994C343.384 177.451 343.086 177.904 342.703 178.352C342.32 178.8 341.872 179.271 341.359 179.766L339.273 181.824V181.88H344.327V183ZM350.029 183H348.825V176.014C348.825 175.613 348.829 175.291 348.839 175.048C348.848 174.805 348.862 174.553 348.881 174.292C348.731 174.441 348.591 174.567 348.461 174.67C348.339 174.773 348.19 174.903 348.013 175.062L346.949 175.93L346.305 175.104L349.007 173.004H350.029V183Z" fill="black"/>
<line x1="289" y1="199.5" x2="391" y2="199.5" stroke="#F1F1F1"/>
<rect width="102" height="44" transform="translate(289 200)" fill="white"/>
<path d="M311.902 219.342C311.902 220.014 311.711 220.551 311.328 220.952C310.955 221.344 310.455 221.605 309.83 221.736V221.792C310.623 221.885 311.216 222.137 311.608 222.548C312.009 222.959 312.21 223.495 312.21 224.158C312.21 224.746 312.075 225.264 311.804 225.712C311.533 226.16 311.113 226.51 310.544 226.762C309.984 227.014 309.261 227.14 308.374 227.14C307.851 227.14 307.366 227.098 306.918 227.014C306.47 226.939 306.041 226.799 305.63 226.594V225.446C306.05 225.661 306.503 225.824 306.988 225.936C307.473 226.048 307.94 226.104 308.388 226.104C309.284 226.104 309.928 225.931 310.32 225.586C310.721 225.231 310.922 224.746 310.922 224.13C310.922 223.505 310.675 223.057 310.18 222.786C309.695 222.506 309.009 222.366 308.122 222.366H307.156V221.316H308.136C308.957 221.316 309.578 221.143 309.998 220.798C310.427 220.453 310.642 219.995 310.642 219.426C310.642 218.941 310.479 218.567 310.152 218.306C309.825 218.035 309.382 217.9 308.822 217.9C308.281 217.9 307.819 217.979 307.436 218.138C307.053 218.297 306.675 218.497 306.302 218.74L305.686 217.9C306.041 217.62 306.479 217.377 307.002 217.172C307.534 216.967 308.136 216.864 308.808 216.864C309.853 216.864 310.628 217.097 311.132 217.564C311.645 218.031 311.902 218.623 311.902 219.342ZM320.74 224.732H319.284V227H318.094V224.732H313.306V223.682L318.01 216.948H319.284V223.626H320.74V224.732ZM318.094 223.626V220.476C318.094 219.991 318.098 219.58 318.108 219.244C318.126 218.899 318.145 218.572 318.164 218.264H318.108C318.033 218.441 317.94 218.633 317.828 218.838C317.716 219.043 317.608 219.216 317.506 219.356L314.51 223.626H318.094ZM324.873 220.868C325.891 220.868 326.703 221.125 327.309 221.638C327.925 222.151 328.233 222.875 328.233 223.808C328.233 224.844 327.902 225.661 327.239 226.258C326.586 226.846 325.671 227.14 324.495 227.14C323.973 227.14 323.487 227.093 323.039 227C322.591 226.907 322.213 226.771 321.905 226.594V225.432C322.241 225.637 322.647 225.801 323.123 225.922C323.609 226.034 324.071 226.09 324.509 226.09C325.247 226.09 325.839 225.917 326.287 225.572C326.745 225.217 326.973 224.671 326.973 223.934C326.973 223.281 326.773 222.781 326.371 222.436C325.97 222.081 325.335 221.904 324.467 221.904C324.206 221.904 323.907 221.927 323.571 221.974C323.235 222.021 322.965 222.067 322.759 222.114L322.143 221.722L322.521 217.004H327.533V218.124H323.571L323.333 221.022C323.492 220.994 323.707 220.961 323.977 220.924C324.248 220.887 324.547 220.868 324.873 220.868ZM334.005 227H332.801V220.014C332.801 219.613 332.806 219.291 332.815 219.048C332.824 218.805 332.838 218.553 332.857 218.292C332.708 218.441 332.568 218.567 332.437 218.67C332.316 218.773 332.166 218.903 331.989 219.062L330.925 219.93L330.281 219.104L332.983 217.004H334.005V227ZM343.949 219.342C343.949 220.014 343.758 220.551 343.375 220.952C343.002 221.344 342.502 221.605 341.877 221.736V221.792C342.67 221.885 343.263 222.137 343.655 222.548C344.056 222.959 344.257 223.495 344.257 224.158C344.257 224.746 344.122 225.264 343.851 225.712C343.58 226.16 343.16 226.51 342.591 226.762C342.031 227.014 341.308 227.14 340.421 227.14C339.898 227.14 339.413 227.098 338.965 227.014C338.517 226.939 338.088 226.799 337.677 226.594V225.446C338.097 225.661 338.55 225.824 339.035 225.936C339.52 226.048 339.987 226.104 340.435 226.104C341.331 226.104 341.975 225.931 342.367 225.586C342.768 225.231 342.969 224.746 342.969 224.13C342.969 223.505 342.722 223.057 342.227 222.786C341.742 222.506 341.056 222.366 340.169 222.366H339.203V221.316H340.183C341.004 221.316 341.625 221.143 342.045 220.798C342.474 220.453 342.689 219.995 342.689 219.426C342.689 218.941 342.526 218.567 342.199 218.306C341.872 218.035 341.429 217.9 340.869 217.9C340.328 217.9 339.866 217.979 339.483 218.138C339.1 218.297 338.722 218.497 338.349 218.74L337.733 217.9C338.088 217.62 338.526 217.377 339.049 217.172C339.581 216.967 340.183 216.864 340.855 216.864C341.9 216.864 342.675 217.097 343.179 217.564C343.692 218.031 343.949 218.623 343.949 219.342ZM348.909 220.868C349.926 220.868 350.738 221.125 351.345 221.638C351.961 222.151 352.269 222.875 352.269 223.808C352.269 224.844 351.937 225.661 351.275 226.258C350.621 226.846 349.707 227.14 348.531 227.14C348.008 227.14 347.523 227.093 347.075 227C346.627 226.907 346.249 226.771 345.941 226.594V225.432C346.277 225.637 346.683 225.801 347.159 225.922C347.644 226.034 348.106 226.09 348.545 226.09C349.282 226.09 349.875 225.917 350.323 225.572C350.78 225.217 351.009 224.671 351.009 223.934C351.009 223.281 350.808 222.781 350.407 222.436C350.005 222.081 349.371 221.904 348.503 221.904C348.241 221.904 347.943 221.927 347.607 221.974C347.271 222.021 347 222.067 346.795 222.114L346.179 221.722L346.557 217.004H351.569V218.124H347.607L347.369 221.022C347.527 220.994 347.742 220.961 348.013 220.924C348.283 220.887 348.582 220.868 348.909 220.868Z" fill="black"/>
<line x1="289" y1="243.5" x2="391" y2="243.5" stroke="#F1F1F1"/>
<rect width="102" height="44" transform="translate(289 244)" fill="white"/>
<path d="M312.28 271H305.672V269.978L308.29 267.332C308.785 266.828 309.205 266.38 309.55 265.988C309.905 265.596 310.171 265.213 310.348 264.84C310.525 264.467 310.614 264.051 310.614 263.594C310.614 263.043 310.451 262.628 310.124 262.348C309.797 262.059 309.373 261.914 308.85 261.914C308.355 261.914 307.926 261.998 307.562 262.166C307.198 262.334 306.825 262.567 306.442 262.866L305.784 262.04C306.176 261.713 306.624 261.438 307.128 261.214C307.641 260.981 308.215 260.864 308.85 260.864C309.783 260.864 310.521 261.102 311.062 261.578C311.603 262.054 311.874 262.703 311.874 263.524C311.874 264.047 311.767 264.537 311.552 264.994C311.337 265.451 311.039 265.904 310.656 266.352C310.273 266.8 309.825 267.271 309.312 267.766L307.226 269.824V269.88H312.28V271ZM319.914 263.342C319.914 264.014 319.722 264.551 319.34 264.952C318.966 265.344 318.467 265.605 317.842 265.736V265.792C318.635 265.885 319.228 266.137 319.62 266.548C320.021 266.959 320.222 267.495 320.222 268.158C320.222 268.746 320.086 269.264 319.816 269.712C319.545 270.16 319.125 270.51 318.556 270.762C317.996 271.014 317.272 271.14 316.386 271.14C315.863 271.14 315.378 271.098 314.93 271.014C314.482 270.939 314.052 270.799 313.642 270.594V269.446C314.062 269.661 314.514 269.824 315 269.936C315.485 270.048 315.952 270.104 316.4 270.104C317.296 270.104 317.94 269.931 318.332 269.586C318.733 269.231 318.934 268.746 318.934 268.13C318.934 267.505 318.686 267.057 318.192 266.786C317.706 266.506 317.02 266.366 316.134 266.366H315.168V265.316H316.148C316.969 265.316 317.59 265.143 318.01 264.798C318.439 264.453 318.654 263.995 318.654 263.426C318.654 262.941 318.49 262.567 318.164 262.306C317.837 262.035 317.394 261.9 316.834 261.9C316.292 261.9 315.83 261.979 315.448 262.138C315.065 262.297 314.687 262.497 314.314 262.74L313.698 261.9C314.052 261.62 314.491 261.377 315.014 261.172C315.546 260.967 316.148 260.864 316.82 260.864C317.865 260.864 318.64 261.097 319.144 261.564C319.657 262.031 319.914 262.623 319.914 263.342ZM321.793 266.73C321.793 266.011 321.854 265.307 321.975 264.616C322.106 263.916 322.335 263.286 322.661 262.726C322.997 262.157 323.464 261.704 324.061 261.368C324.659 261.032 325.429 260.864 326.371 260.864C326.567 260.864 326.782 260.873 327.015 260.892C327.258 260.911 327.454 260.943 327.603 260.99V262.04C327.435 261.984 327.244 261.942 327.029 261.914C326.815 261.886 326.605 261.872 326.399 261.872C325.755 261.872 325.219 261.979 324.789 262.194C324.36 262.409 324.019 262.703 323.767 263.076C323.525 263.449 323.347 263.879 323.235 264.364C323.123 264.849 323.053 265.367 323.025 265.918H323.109C323.324 265.591 323.623 265.316 324.005 265.092C324.388 264.859 324.878 264.742 325.475 264.742C326.343 264.742 327.043 265.008 327.575 265.54C328.107 266.063 328.373 266.809 328.373 267.78C328.373 268.825 328.084 269.647 327.505 270.244C326.936 270.841 326.166 271.14 325.195 271.14C324.561 271.14 323.987 270.981 323.473 270.664C322.96 270.347 322.549 269.861 322.241 269.208C321.943 268.555 321.793 267.729 321.793 266.73ZM325.181 270.104C325.769 270.104 326.245 269.917 326.609 269.544C326.973 269.161 327.155 268.573 327.155 267.78C327.155 267.145 326.992 266.641 326.665 266.268C326.348 265.895 325.867 265.708 325.223 265.708C324.785 265.708 324.402 265.801 324.075 265.988C323.749 266.165 323.492 266.399 323.305 266.688C323.128 266.968 323.039 267.253 323.039 267.542C323.039 267.943 323.119 268.345 323.277 268.746C323.436 269.138 323.674 269.465 323.991 269.726C324.309 269.978 324.705 270.104 325.181 270.104ZM336.315 265.274C336.315 265.993 336.25 266.702 336.119 267.402C335.998 268.093 335.769 268.723 335.433 269.292C335.106 269.852 334.64 270.3 334.033 270.636C333.436 270.972 332.666 271.14 331.723 271.14C331.536 271.14 331.317 271.126 331.065 271.098C330.813 271.079 330.612 271.047 330.463 271V269.95C330.827 270.071 331.238 270.132 331.695 270.132C332.348 270.132 332.885 270.025 333.305 269.81C333.734 269.595 334.075 269.306 334.327 268.942C334.579 268.569 334.761 268.139 334.873 267.654C334.985 267.159 335.05 266.641 335.069 266.1H334.985C334.77 266.417 334.472 266.693 334.089 266.926C333.706 267.15 333.212 267.262 332.605 267.262C331.746 267.262 331.051 267.001 330.519 266.478C329.996 265.946 329.735 265.199 329.735 264.238C329.735 263.538 329.866 262.936 330.127 262.432C330.388 261.928 330.757 261.541 331.233 261.27C331.718 260.999 332.283 260.864 332.927 260.864C333.562 260.864 334.136 261.027 334.649 261.354C335.162 261.671 335.568 262.157 335.867 262.81C336.166 263.454 336.315 264.275 336.315 265.274ZM332.927 261.9C332.348 261.9 331.872 262.091 331.499 262.474C331.135 262.857 330.953 263.44 330.953 264.224C330.953 264.868 331.107 265.377 331.415 265.75C331.732 266.114 332.218 266.296 332.871 266.296C333.319 266.296 333.706 266.207 334.033 266.03C334.36 265.843 334.612 265.61 334.789 265.33C334.976 265.05 335.069 264.761 335.069 264.462C335.069 264.061 334.99 263.664 334.831 263.272C334.672 262.88 334.434 262.553 334.117 262.292C333.8 262.031 333.403 261.9 332.927 261.9ZM344.327 271H337.719V269.978L340.337 267.332C340.832 266.828 341.252 266.38 341.597 265.988C341.952 265.596 342.218 265.213 342.395 264.84C342.572 264.467 342.661 264.051 342.661 263.594C342.661 263.043 342.498 262.628 342.171 262.348C341.844 262.059 341.42 261.914 340.897 261.914C340.402 261.914 339.973 261.998 339.609 262.166C339.245 262.334 338.872 262.567 338.489 262.866L337.831 262.04C338.223 261.713 338.671 261.438 339.175 261.214C339.688 260.981 340.262 260.864 340.897 260.864C341.83 260.864 342.568 261.102 343.109 261.578C343.65 262.054 343.921 262.703 343.921 263.524C343.921 264.047 343.814 264.537 343.599 264.994C343.384 265.451 343.086 265.904 342.703 266.352C342.32 266.8 341.872 267.271 341.359 267.766L339.273 269.824V269.88H344.327V271ZM350.029 271H348.825V264.014C348.825 263.613 348.829 263.291 348.839 263.048C348.848 262.805 348.862 262.553 348.881 262.292C348.731 262.441 348.591 262.567 348.461 262.67C348.339 262.773 348.19 262.903 348.013 263.062L346.949 263.93L346.305 263.104L349.007 261.004H350.029V271Z" fill="black"/>
<line x1="289" y1="287.5" x2="391" y2="287.5" stroke="#F1F1F1"/>
<defs>
<filter id="filter0_d_9160_132408" x="236.437" y="123" width="22.4829" height="24.1855" filterUnits="userSpaceOnUse" color-interpolation-filters="sRGB">
<feFlood flood-opacity="0" result="BackgroundImageFix"/>
<feColorMatrix in="SourceAlpha" type="matrix" values="0 0 0 0 0 0 0 0 0 0 0 0 0 0 0 0 0 0 127 0" result="hardAlpha"/>
<feOffset dy="1"/>
<feGaussianBlur stdDeviation="1.5"/>
<feColorMatrix type="matrix" values="0 0 0 0 0 0 0 0 0 0 0 0 0 0 0 0 0 0 0.25 0"/>
<feBlend mode="normal" in2="BackgroundImageFix" result="effect1_dropShadow_9160_132408"/>
<feBlend mode="normal" in="SourceGraphic" in2="effect1_dropShadow_9160_132408" result="shape"/>
</filter>
</defs>
</svg>
