<svg width="312" height="220" viewBox="0 0 312 220" fill="none" xmlns="http://www.w3.org/2000/svg">
<rect width="130" height="44" fill="white"/>
<path d="M24.834 17.004L21.376 27H19.458L16 17.004H17.834L19.85 23.122C19.906 23.29 19.9713 23.5093 20.046 23.78C20.1207 24.0413 20.1907 24.312 20.256 24.592C20.3307 24.872 20.3867 25.1147 20.424 25.32C20.4613 25.1147 20.5127 24.8767 20.578 24.606C20.6433 24.326 20.7133 24.0553 20.788 23.794C20.8627 23.5233 20.928 23.2993 20.984 23.122L23 17.004H24.834ZM28.7446 19.272C29.7619 19.272 30.5646 19.5753 31.1526 20.182C31.7499 20.7887 32.0486 21.6333 32.0486 22.716V23.612H27.0366C27.0553 24.3027 27.2466 24.8393 27.6106 25.222C27.9746 25.5953 28.4786 25.782 29.1226 25.782C29.6079 25.782 30.0466 25.7353 30.4386 25.642C30.8306 25.5393 31.2319 25.3947 31.6426 25.208V26.622C31.2693 26.7993 30.8819 26.93 30.4806 27.014C30.0793 27.098 29.5986 27.14 29.0386 27.14C28.2919 27.14 27.6339 27 27.0646 26.72C26.4953 26.4307 26.0473 26.0013 25.7206 25.432C25.4033 24.8533 25.2446 24.13 25.2446 23.262C25.2446 21.9647 25.5619 20.9753 26.1966 20.294C26.8406 19.6127 27.6899 19.272 28.7446 19.272ZM28.7446 20.574C28.2686 20.574 27.8813 20.728 27.5826 21.036C27.2933 21.3347 27.1253 21.7827 27.0786 22.38H30.3406C30.3313 21.8573 30.1959 21.428 29.9346 21.092C29.6826 20.7467 29.2859 20.574 28.7446 20.574ZM37.8034 19.272C37.9247 19.272 38.06 19.2813 38.2094 19.3C38.3587 19.3093 38.48 19.3233 38.5734 19.342L38.4194 20.98C38.326 20.9613 38.2094 20.9473 38.0694 20.938C37.9387 20.9193 37.8267 20.91 37.7334 20.91C37.36 20.91 37.01 20.9893 36.6834 21.148C36.3567 21.2973 36.0907 21.5307 35.8854 21.848C35.6894 22.1653 35.5914 22.5713 35.5914 23.066V27H33.8274V19.412H35.1854L35.4374 20.728H35.5214C35.7454 20.3267 36.0534 19.986 36.4454 19.706C36.8374 19.4167 37.29 19.272 37.8034 19.272ZM45.1457 24.802C45.1457 25.5673 44.8704 26.1507 44.3197 26.552C43.7784 26.944 42.999 27.14 41.9817 27.14C41.4497 27.14 40.9924 27.1027 40.6097 27.028C40.2364 26.9533 39.8724 26.8367 39.5177 26.678V25.18C39.891 25.3573 40.3017 25.5067 40.7497 25.628C41.207 25.7493 41.6364 25.81 42.0377 25.81C42.523 25.81 42.873 25.7353 43.0877 25.586C43.3024 25.4367 43.4097 25.236 43.4097 24.984C43.4097 24.8347 43.3677 24.704 43.2837 24.592C43.1997 24.4707 43.0364 24.34 42.7937 24.2C42.551 24.06 42.1824 23.8873 41.6877 23.682C41.2024 23.486 40.7964 23.29 40.4697 23.094C40.1524 22.898 39.9097 22.6647 39.7417 22.394C39.583 22.1233 39.5037 21.7733 39.5037 21.344C39.5037 20.6627 39.7744 20.1493 40.3157 19.804C40.857 19.4493 41.571 19.272 42.4577 19.272C42.9244 19.272 43.363 19.3187 43.7737 19.412C44.1937 19.5053 44.6137 19.6453 45.0337 19.832L44.4737 21.134C44.119 20.9847 43.7737 20.8587 43.4377 20.756C43.1017 20.6533 42.7564 20.602 42.4017 20.602C41.627 20.602 41.2397 20.8213 41.2397 21.26C41.2397 21.4187 41.2864 21.554 41.3797 21.666C41.4824 21.778 41.655 21.8993 41.8977 22.03C42.1497 22.1513 42.5044 22.3007 42.9617 22.478C43.4097 22.6553 43.797 22.842 44.1237 23.038C44.4504 23.2247 44.7024 23.458 44.8797 23.738C45.057 24.0087 45.1457 24.3633 45.1457 24.802ZM47.725 16.486C47.9863 16.486 48.215 16.556 48.411 16.696C48.607 16.8267 48.705 17.0647 48.705 17.41C48.705 17.7553 48.607 17.998 48.411 18.138C48.215 18.278 47.9863 18.348 47.725 18.348C47.4543 18.348 47.221 18.278 47.025 18.138C46.8383 17.998 46.745 17.7553 46.745 17.41C46.745 17.0647 46.8383 16.8267 47.025 16.696C47.221 16.556 47.4543 16.486 47.725 16.486ZM48.607 19.412V27H46.843V19.412H48.607ZM57.6385 23.192C57.6385 24.452 57.3118 25.4273 56.6585 26.118C56.0052 26.7993 55.1185 27.14 53.9985 27.14C53.3078 27.14 52.6918 26.986 52.1505 26.678C51.6092 26.37 51.1845 25.922 50.8765 25.334C50.5685 24.746 50.4145 24.032 50.4145 23.192C50.4145 21.932 50.7365 20.966 51.3805 20.294C52.0338 19.6127 52.9205 19.272 54.0405 19.272C54.7405 19.272 55.3612 19.426 55.9025 19.734C56.4438 20.0327 56.8685 20.476 57.1765 21.064C57.4845 21.6427 57.6385 22.352 57.6385 23.192ZM52.2205 23.192C52.2205 23.9947 52.3605 24.6153 52.6405 25.054C52.9298 25.4927 53.3918 25.712 54.0265 25.712C54.6518 25.712 55.1092 25.4927 55.3985 25.054C55.6878 24.6153 55.8325 23.9947 55.8325 23.192C55.8325 22.3893 55.6878 21.7733 55.3985 21.344C55.1092 20.9147 54.6472 20.7 54.0125 20.7C53.3778 20.7 52.9205 20.9147 52.6405 21.344C52.3605 21.7733 52.2205 22.3893 52.2205 23.192ZM63.5221 19.272C64.3715 19.272 65.0341 19.4913 65.5101 19.93C65.9955 20.3687 66.2381 21.078 66.2381 22.058V27H64.4741V22.408C64.4741 21.8387 64.3621 21.414 64.1381 21.134C63.9141 20.8447 63.5595 20.7 63.0741 20.7C62.3648 20.7 61.8795 20.924 61.6181 21.372C61.3568 21.82 61.2261 22.4593 61.2261 23.29V27H59.4621V19.412H60.8201L61.0721 20.406H61.1701C61.4128 20.014 61.7441 19.7293 62.1641 19.552C62.5935 19.3653 63.0461 19.272 63.5221 19.272Z" fill="black"/>
<line x1="4.37114e-08" y1="0.5" x2="130" y2="0.500011" stroke="#C9C9C9"/>
<line x1="4.37114e-08" y1="43.5" x2="130" y2="43.5" stroke="#C9C9C9"/>
<rect width="130" height="44" transform="translate(0 44)" fill="white"/>
<path d="M23.322 65.988C23.322 67.0707 23.21 67.9947 22.986 68.76C22.762 69.5253 22.4027 70.1133 21.908 70.524C21.4227 70.9347 20.7833 71.14 19.99 71.14C18.8607 71.14 18.0253 70.6873 17.484 69.782C16.952 68.8673 16.686 67.6027 16.686 65.988C16.686 64.9053 16.7933 63.9813 17.008 63.216C17.232 62.4507 17.5867 61.8673 18.072 61.466C18.5573 61.0553 19.1967 60.85 19.99 60.85C21.11 60.85 21.9453 61.3027 22.496 62.208C23.0467 63.104 23.322 64.364 23.322 65.988ZM17.918 65.988C17.918 67.36 18.072 68.3867 18.38 69.068C18.6973 69.7493 19.234 70.09 19.99 70.09C20.7367 70.09 21.2687 69.754 21.586 69.082C21.9127 68.4007 22.076 67.3693 22.076 65.988C22.076 64.6253 21.9127 63.6033 21.586 62.922C21.2687 62.2407 20.7367 61.9 19.99 61.9C19.234 61.9 18.6973 62.2407 18.38 62.922C18.072 63.6033 17.918 64.6253 17.918 65.988ZM25.0197 70.244C25.0197 69.8987 25.1037 69.656 25.2717 69.516C25.4397 69.376 25.6404 69.306 25.8737 69.306C26.1071 69.306 26.3124 69.376 26.4897 69.516C26.6671 69.656 26.7557 69.8987 26.7557 70.244C26.7557 70.58 26.6671 70.8227 26.4897 70.972C26.3124 71.1213 26.1071 71.196 25.8737 71.196C25.6404 71.196 25.4397 71.1213 25.2717 70.972C25.1037 70.8227 25.0197 70.58 25.0197 70.244ZM35.0798 65.988C35.0798 67.0707 34.9678 67.9947 34.7438 68.76C34.5198 69.5253 34.1605 70.1133 33.6658 70.524C33.1805 70.9347 32.5411 71.14 31.7478 71.14C30.6185 71.14 29.7831 70.6873 29.2418 69.782C28.7098 68.8673 28.4438 67.6027 28.4438 65.988C28.4438 64.9053 28.5511 63.9813 28.7658 63.216C28.9898 62.4507 29.3445 61.8673 29.8298 61.466C30.3151 61.0553 30.9545 60.85 31.7478 60.85C32.8678 60.85 33.7031 61.3027 34.2538 62.208C34.8045 63.104 35.0798 64.364 35.0798 65.988ZM29.6758 65.988C29.6758 67.36 29.8298 68.3867 30.1378 69.068C30.4551 69.7493 30.9918 70.09 31.7478 70.09C32.4945 70.09 33.0265 69.754 33.3438 69.082C33.6705 68.4007 33.8338 67.3693 33.8338 65.988C33.8338 64.6253 33.6705 63.6033 33.3438 62.922C33.0265 62.2407 32.4945 61.9 31.7478 61.9C30.9918 61.9 30.4551 62.2407 30.1378 62.922C29.8298 63.6033 29.6758 64.6253 29.6758 65.988ZM43.0495 71H36.4415V69.978L39.0595 67.332C39.5542 66.828 39.9742 66.38 40.3195 65.988C40.6742 65.596 40.9402 65.2133 41.1175 64.84C41.2949 64.4667 41.3835 64.0513 41.3835 63.594C41.3835 63.0433 41.2202 62.628 40.8935 62.348C40.5669 62.0587 40.1422 61.914 39.6195 61.914C39.1249 61.914 38.6955 61.998 38.3315 62.166C37.9675 62.334 37.5942 62.5673 37.2115 62.866L36.5535 62.04C36.9455 61.7133 37.3935 61.438 37.8975 61.214C38.4109 60.9807 38.9849 60.864 39.6195 60.864C40.5529 60.864 41.2902 61.102 41.8315 61.578C42.3729 62.054 42.6435 62.7027 42.6435 63.524C42.6435 64.0467 42.5362 64.5367 42.3215 64.994C42.1069 65.4513 41.8082 65.904 41.4255 66.352C41.0429 66.8 40.5949 67.2713 40.0815 67.766L37.9955 69.824V69.88H43.0495V71ZM44.7893 70.244C44.7893 69.8987 44.8733 69.656 45.0413 69.516C45.2093 69.376 45.4099 69.306 45.6433 69.306C45.8766 69.306 46.0819 69.376 46.2593 69.516C46.4366 69.656 46.5253 69.8987 46.5253 70.244C46.5253 70.58 46.4366 70.8227 46.2593 70.972C46.0819 71.1213 45.8766 71.196 45.6433 71.196C45.4099 71.196 45.2093 71.1213 45.0413 70.972C44.8733 70.8227 44.7893 70.58 44.7893 70.244ZM52.4973 71H51.2933V64.014C51.2933 63.6127 51.298 63.2907 51.3073 63.048C51.3167 62.8053 51.3307 62.5533 51.3493 62.292C51.2 62.4413 51.06 62.5673 50.9293 62.67C50.808 62.7727 50.6587 62.9033 50.4813 63.062L49.4173 63.93L48.7733 63.104L51.4753 61.004H52.4973V71Z" fill="black"/>
<line x1="4.37114e-08" y1="87.5" x2="130" y2="87.5" stroke="#F1F1F1"/>
<rect width="130" height="44" transform="translate(0 88)" fill="white"/>
<path d="M23.322 109.988C23.322 111.071 23.21 111.995 22.986 112.76C22.762 113.525 22.4027 114.113 21.908 114.524C21.4227 114.935 20.7833 115.14 19.99 115.14C18.8607 115.14 18.0253 114.687 17.484 113.782C16.952 112.867 16.686 111.603 16.686 109.988C16.686 108.905 16.7933 107.981 17.008 107.216C17.232 106.451 17.5867 105.867 18.072 105.466C18.5573 105.055 19.1967 104.85 19.99 104.85C21.11 104.85 21.9453 105.303 22.496 106.208C23.0467 107.104 23.322 108.364 23.322 109.988ZM17.918 109.988C17.918 111.36 18.072 112.387 18.38 113.068C18.6973 113.749 19.234 114.09 19.99 114.09C20.7367 114.09 21.2687 113.754 21.586 113.082C21.9127 112.401 22.076 111.369 22.076 109.988C22.076 108.625 21.9127 107.603 21.586 106.922C21.2687 106.241 20.7367 105.9 19.99 105.9C19.234 105.9 18.6973 106.241 18.38 106.922C18.072 107.603 17.918 108.625 17.918 109.988ZM25.0197 114.244C25.0197 113.899 25.1037 113.656 25.2717 113.516C25.4397 113.376 25.6404 113.306 25.8737 113.306C26.1071 113.306 26.3124 113.376 26.4897 113.516C26.6671 113.656 26.7557 113.899 26.7557 114.244C26.7557 114.58 26.6671 114.823 26.4897 114.972C26.3124 115.121 26.1071 115.196 25.8737 115.196C25.6404 115.196 25.4397 115.121 25.2717 114.972C25.1037 114.823 25.0197 114.58 25.0197 114.244ZM34.6598 107.342C34.6598 108.014 34.4685 108.551 34.0858 108.952C33.7125 109.344 33.2131 109.605 32.5878 109.736V109.792C33.3811 109.885 33.9738 110.137 34.3658 110.548C34.7671 110.959 34.9678 111.495 34.9678 112.158C34.9678 112.746 34.8325 113.264 34.5618 113.712C34.2911 114.16 33.8711 114.51 33.3018 114.762C32.7418 115.014 32.0185 115.14 31.1318 115.14C30.6091 115.14 30.1238 115.098 29.6758 115.014C29.2278 114.939 28.7985 114.799 28.3878 114.594V113.446C28.8078 113.661 29.2605 113.824 29.7458 113.936C30.2311 114.048 30.6978 114.104 31.1458 114.104C32.0418 114.104 32.6858 113.931 33.0778 113.586C33.4791 113.231 33.6798 112.746 33.6798 112.13C33.6798 111.505 33.4325 111.057 32.9378 110.786C32.4525 110.506 31.7665 110.366 30.8798 110.366H29.9138V109.316H30.8938C31.7151 109.316 32.3358 109.143 32.7558 108.798C33.1851 108.453 33.3998 107.995 33.3998 107.426C33.3998 106.941 33.2365 106.567 32.9098 106.306C32.5831 106.035 32.1398 105.9 31.5798 105.9C31.0385 105.9 30.5765 105.979 30.1938 106.138C29.8111 106.297 29.4331 106.497 29.0598 106.74L28.4438 105.9C28.7985 105.62 29.2371 105.377 29.7598 105.172C30.2918 104.967 30.8938 104.864 31.5658 104.864C32.6111 104.864 33.3858 105.097 33.8898 105.564C34.4031 106.031 34.6598 106.623 34.6598 107.342ZM43.0495 115H36.4415V113.978L39.0595 111.332C39.5542 110.828 39.9742 110.38 40.3195 109.988C40.6742 109.596 40.9402 109.213 41.1175 108.84C41.2949 108.467 41.3835 108.051 41.3835 107.594C41.3835 107.043 41.2202 106.628 40.8935 106.348C40.5669 106.059 40.1422 105.914 39.6195 105.914C39.1249 105.914 38.6955 105.998 38.3315 106.166C37.9675 106.334 37.5942 106.567 37.2115 106.866L36.5535 106.04C36.9455 105.713 37.3935 105.438 37.8975 105.214C38.4109 104.981 38.9849 104.864 39.6195 104.864C40.5529 104.864 41.2902 105.102 41.8315 105.578C42.3729 106.054 42.6435 106.703 42.6435 107.524C42.6435 108.047 42.5362 108.537 42.3215 108.994C42.1069 109.451 41.8082 109.904 41.4255 110.352C41.0429 110.8 40.5949 111.271 40.0815 111.766L37.9955 113.824V113.88H43.0495V115ZM44.7893 114.244C44.7893 113.899 44.8733 113.656 45.0413 113.516C45.2093 113.376 45.4099 113.306 45.6433 113.306C45.8766 113.306 46.0819 113.376 46.2593 113.516C46.4366 113.656 46.5253 113.899 46.5253 114.244C46.5253 114.58 46.4366 114.823 46.2593 114.972C46.0819 115.121 45.8766 115.196 45.6433 115.196C45.4099 115.196 45.2093 115.121 45.0413 114.972C44.8733 114.823 44.7893 114.58 44.7893 114.244ZM54.4293 107.342C54.4293 108.014 54.238 108.551 53.8553 108.952C53.482 109.344 52.9827 109.605 52.3573 109.736V109.792C53.1507 109.885 53.7433 110.137 54.1353 110.548C54.5367 110.959 54.7373 111.495 54.7373 112.158C54.7373 112.746 54.602 113.264 54.3313 113.712C54.0607 114.16 53.6407 114.51 53.0713 114.762C52.5113 115.014 51.788 115.14 50.9013 115.14C50.3787 115.14 49.8933 115.098 49.4453 115.014C48.9973 114.939 48.568 114.799 48.1573 114.594V113.446C48.5773 113.661 49.03 113.824 49.5153 113.936C50.0007 114.048 50.4673 114.104 50.9153 114.104C51.8113 114.104 52.4553 113.931 52.8473 113.586C53.2487 113.231 53.4493 112.746 53.4493 112.13C53.4493 111.505 53.202 111.057 52.7073 110.786C52.222 110.506 51.536 110.366 50.6493 110.366H49.6833V109.316H50.6633C51.4847 109.316 52.1053 109.143 52.5253 108.798C52.9547 108.453 53.1693 107.995 53.1693 107.426C53.1693 106.941 53.006 106.567 52.6793 106.306C52.3527 106.035 51.9093 105.9 51.3493 105.9C50.808 105.9 50.346 105.979 49.9633 106.138C49.5807 106.297 49.2027 106.497 48.8293 106.74L48.2133 105.9C48.568 105.62 49.0067 105.377 49.5293 105.172C50.0613 104.967 50.6633 104.864 51.3353 104.864C52.3807 104.864 53.1553 105.097 53.6593 105.564C54.1727 106.031 54.4293 106.623 54.4293 107.342Z" fill="black"/>
<line x1="4.37114e-08" y1="131.5" x2="130" y2="131.5" stroke="#F1F1F1"/>
<rect width="130" height="44" transform="translate(0 132)" fill="white"/>
<path d="M23.322 153.988C23.322 155.071 23.21 155.995 22.986 156.76C22.762 157.525 22.4027 158.113 21.908 158.524C21.4227 158.935 20.7833 159.14 19.99 159.14C18.8607 159.14 18.0253 158.687 17.484 157.782C16.952 156.867 16.686 155.603 16.686 153.988C16.686 152.905 16.7933 151.981 17.008 151.216C17.232 150.451 17.5867 149.867 18.072 149.466C18.5573 149.055 19.1967 148.85 19.99 148.85C21.11 148.85 21.9453 149.303 22.496 150.208C23.0467 151.104 23.322 152.364 23.322 153.988ZM17.918 153.988C17.918 155.36 18.072 156.387 18.38 157.068C18.6973 157.749 19.234 158.09 19.99 158.09C20.7367 158.09 21.2687 157.754 21.586 157.082C21.9127 156.401 22.076 155.369 22.076 153.988C22.076 152.625 21.9127 151.603 21.586 150.922C21.2687 150.241 20.7367 149.9 19.99 149.9C19.234 149.9 18.6973 150.241 18.38 150.922C18.072 151.603 17.918 152.625 17.918 153.988ZM25.0197 158.244C25.0197 157.899 25.1037 157.656 25.2717 157.516C25.4397 157.376 25.6404 157.306 25.8737 157.306C26.1071 157.306 26.3124 157.376 26.4897 157.516C26.6671 157.656 26.7557 157.899 26.7557 158.244C26.7557 158.58 26.6671 158.823 26.4897 158.972C26.3124 159.121 26.1071 159.196 25.8737 159.196C25.6404 159.196 25.4397 159.121 25.2717 158.972C25.1037 158.823 25.0197 158.58 25.0197 158.244ZM35.0798 153.988C35.0798 155.071 34.9678 155.995 34.7438 156.76C34.5198 157.525 34.1605 158.113 33.6658 158.524C33.1805 158.935 32.5411 159.14 31.7478 159.14C30.6185 159.14 29.7831 158.687 29.2418 157.782C28.7098 156.867 28.4438 155.603 28.4438 153.988C28.4438 152.905 28.5511 151.981 28.7658 151.216C28.9898 150.451 29.3445 149.867 29.8298 149.466C30.3151 149.055 30.9545 148.85 31.7478 148.85C32.8678 148.85 33.7031 149.303 34.2538 150.208C34.8045 151.104 35.0798 152.364 35.0798 153.988ZM29.6758 153.988C29.6758 155.36 29.8298 156.387 30.1378 157.068C30.4551 157.749 30.9918 158.09 31.7478 158.09C32.4945 158.09 33.0265 157.754 33.3438 157.082C33.6705 156.401 33.8338 155.369 33.8338 153.988C33.8338 152.625 33.6705 151.603 33.3438 150.922C33.0265 150.241 32.4945 149.9 31.7478 149.9C30.9918 149.9 30.4551 150.241 30.1378 150.922C29.8298 151.603 29.6758 152.625 29.6758 153.988ZM39.7595 148.864C40.6369 148.864 41.3555 149.069 41.9155 149.48C42.4755 149.891 42.7555 150.483 42.7555 151.258C42.7555 151.659 42.6669 152.009 42.4895 152.308C42.3215 152.607 42.0929 152.873 41.8035 153.106C41.5142 153.33 41.1969 153.531 40.8515 153.708C41.2622 153.913 41.6355 154.137 41.9715 154.38C42.3075 154.623 42.5735 154.907 42.7695 155.234C42.9749 155.561 43.0775 155.953 43.0775 156.41C43.0775 157.25 42.7789 157.917 42.1815 158.412C41.5842 158.897 40.7909 159.14 39.8015 159.14C38.7189 159.14 37.8882 158.907 37.3095 158.44C36.7402 157.964 36.4555 157.301 36.4555 156.452C36.4555 156.004 36.5489 155.612 36.7355 155.276C36.9315 154.931 37.1882 154.637 37.5055 154.394C37.8229 154.151 38.1635 153.946 38.5275 153.778C38.0329 153.498 37.6175 153.162 37.2815 152.77C36.9455 152.369 36.7775 151.86 36.7775 151.244C36.7775 150.74 36.9082 150.311 37.1695 149.956C37.4309 149.601 37.7855 149.331 38.2335 149.144C38.6815 148.957 39.1902 148.864 39.7595 148.864ZM39.7455 149.858C39.2229 149.858 38.7982 149.984 38.4715 150.236C38.1449 150.479 37.9815 150.833 37.9815 151.3C37.9815 151.645 38.0609 151.935 38.2195 152.168C38.3875 152.401 38.6115 152.602 38.8915 152.77C39.1715 152.929 39.4795 153.083 39.8155 153.232C40.3009 153.027 40.7069 152.779 41.0335 152.49C41.3695 152.201 41.5375 151.804 41.5375 151.3C41.5375 150.833 41.3742 150.479 41.0475 150.236C40.7209 149.984 40.2869 149.858 39.7455 149.858ZM37.6595 156.466C37.6595 156.951 37.8322 157.357 38.1775 157.684C38.5229 158.001 39.0549 158.16 39.7735 158.16C40.4549 158.16 40.9729 158.001 41.3275 157.684C41.6915 157.357 41.8735 156.937 41.8735 156.424C41.8735 155.939 41.6822 155.537 41.2995 155.22C40.9169 154.893 40.4082 154.609 39.7735 154.366L39.5495 154.282C38.9335 154.553 38.4622 154.856 38.1355 155.192C37.8182 155.528 37.6595 155.953 37.6595 156.466ZM44.7893 158.244C44.7893 157.899 44.8733 157.656 45.0413 157.516C45.2093 157.376 45.4099 157.306 45.6433 157.306C45.8766 157.306 46.0819 157.376 46.2593 157.516C46.4366 157.656 46.5253 157.899 46.5253 158.244C46.5253 158.58 46.4366 158.823 46.2593 158.972C46.0819 159.121 45.8766 159.196 45.6433 159.196C45.4099 159.196 45.2093 159.121 45.0413 158.972C44.8733 158.823 44.7893 158.58 44.7893 158.244ZM54.8073 153.274C54.8073 153.993 54.742 154.702 54.6113 155.402C54.49 156.093 54.2613 156.723 53.9253 157.292C53.5987 157.852 53.132 158.3 52.5253 158.636C51.928 158.972 51.158 159.14 50.2153 159.14C50.0287 159.14 49.8093 159.126 49.5573 159.098C49.3053 159.079 49.1047 159.047 48.9553 159V157.95C49.3193 158.071 49.73 158.132 50.1873 158.132C50.8407 158.132 51.3773 158.025 51.7973 157.81C52.2267 157.595 52.5673 157.306 52.8193 156.942C53.0713 156.569 53.2533 156.139 53.3653 155.654C53.4773 155.159 53.5427 154.641 53.5613 154.1H53.4773C53.2627 154.417 52.964 154.693 52.5813 154.926C52.1987 155.15 51.704 155.262 51.0973 155.262C50.2387 155.262 49.5433 155.001 49.0113 154.478C48.4887 153.946 48.2273 153.199 48.2273 152.238C48.2273 151.538 48.358 150.936 48.6193 150.432C48.8807 149.928 49.2493 149.541 49.7253 149.27C50.2107 148.999 50.7753 148.864 51.4193 148.864C52.054 148.864 52.628 149.027 53.1413 149.354C53.6547 149.671 54.0607 150.157 54.3593 150.81C54.658 151.454 54.8073 152.275 54.8073 153.274ZM51.4193 149.9C50.8407 149.9 50.3647 150.091 49.9913 150.474C49.6273 150.857 49.4453 151.44 49.4453 152.224C49.4453 152.868 49.5993 153.377 49.9073 153.75C50.2247 154.114 50.71 154.296 51.3633 154.296C51.8113 154.296 52.1987 154.207 52.5253 154.03C52.852 153.843 53.104 153.61 53.2813 153.33C53.468 153.05 53.5613 152.761 53.5613 152.462C53.5613 152.061 53.482 151.664 53.3233 151.272C53.1647 150.88 52.9267 150.553 52.6093 150.292C52.292 150.031 51.8953 149.9 51.4193 149.9Z" fill="black"/>
<line x1="4.37114e-08" y1="175.5" x2="130" y2="175.5" stroke="#F1F1F1"/>
<rect width="130" height="44" transform="translate(0 176)" fill="white"/>
<path d="M23.322 197.988C23.322 199.071 23.21 199.995 22.986 200.76C22.762 201.525 22.4027 202.113 21.908 202.524C21.4227 202.935 20.7833 203.14 19.99 203.14C18.8607 203.14 18.0253 202.687 17.484 201.782C16.952 200.867 16.686 199.603 16.686 197.988C16.686 196.905 16.7933 195.981 17.008 195.216C17.232 194.451 17.5867 193.867 18.072 193.466C18.5573 193.055 19.1967 192.85 19.99 192.85C21.11 192.85 21.9453 193.303 22.496 194.208C23.0467 195.104 23.322 196.364 23.322 197.988ZM17.918 197.988C17.918 199.36 18.072 200.387 18.38 201.068C18.6973 201.749 19.234 202.09 19.99 202.09C20.7367 202.09 21.2687 201.754 21.586 201.082C21.9127 200.401 22.076 199.369 22.076 197.988C22.076 196.625 21.9127 195.603 21.586 194.922C21.2687 194.241 20.7367 193.9 19.99 193.9C19.234 193.9 18.6973 194.241 18.38 194.922C18.072 195.603 17.918 196.625 17.918 197.988ZM25.0197 202.244C25.0197 201.899 25.1037 201.656 25.2717 201.516C25.4397 201.376 25.6404 201.306 25.8737 201.306C26.1071 201.306 26.3124 201.376 26.4897 201.516C26.6671 201.656 26.7557 201.899 26.7557 202.244C26.7557 202.58 26.6671 202.823 26.4897 202.972C26.3124 203.121 26.1071 203.196 25.8737 203.196C25.6404 203.196 25.4397 203.121 25.2717 202.972C25.1037 202.823 25.0197 202.58 25.0197 202.244ZM35.0378 203H28.4298V201.978L31.0478 199.332C31.5425 198.828 31.9625 198.38 32.3078 197.988C32.6625 197.596 32.9285 197.213 33.1058 196.84C33.2831 196.467 33.3718 196.051 33.3718 195.594C33.3718 195.043 33.2085 194.628 32.8818 194.348C32.5551 194.059 32.1305 193.914 31.6078 193.914C31.1131 193.914 30.6838 193.998 30.3198 194.166C29.9558 194.334 29.5825 194.567 29.1998 194.866L28.5418 194.04C28.9338 193.713 29.3818 193.438 29.8858 193.214C30.3991 192.981 30.9731 192.864 31.6078 192.864C32.5411 192.864 33.2785 193.102 33.8198 193.578C34.3611 194.054 34.6318 194.703 34.6318 195.524C34.6318 196.047 34.5245 196.537 34.3098 196.994C34.0951 197.451 33.7965 197.904 33.4138 198.352C33.0311 198.8 32.5831 199.271 32.0698 199.766L29.9838 201.824V201.88H35.0378V203ZM39.7595 192.864C40.6369 192.864 41.3555 193.069 41.9155 193.48C42.4755 193.891 42.7555 194.483 42.7555 195.258C42.7555 195.659 42.6669 196.009 42.4895 196.308C42.3215 196.607 42.0929 196.873 41.8035 197.106C41.5142 197.33 41.1969 197.531 40.8515 197.708C41.2622 197.913 41.6355 198.137 41.9715 198.38C42.3075 198.623 42.5735 198.907 42.7695 199.234C42.9749 199.561 43.0775 199.953 43.0775 200.41C43.0775 201.25 42.7789 201.917 42.1815 202.412C41.5842 202.897 40.7909 203.14 39.8015 203.14C38.7189 203.14 37.8882 202.907 37.3095 202.44C36.7402 201.964 36.4555 201.301 36.4555 200.452C36.4555 200.004 36.5489 199.612 36.7355 199.276C36.9315 198.931 37.1882 198.637 37.5055 198.394C37.8229 198.151 38.1635 197.946 38.5275 197.778C38.0329 197.498 37.6175 197.162 37.2815 196.77C36.9455 196.369 36.7775 195.86 36.7775 195.244C36.7775 194.74 36.9082 194.311 37.1695 193.956C37.4309 193.601 37.7855 193.331 38.2335 193.144C38.6815 192.957 39.1902 192.864 39.7595 192.864ZM39.7455 193.858C39.2229 193.858 38.7982 193.984 38.4715 194.236C38.1449 194.479 37.9815 194.833 37.9815 195.3C37.9815 195.645 38.0609 195.935 38.2195 196.168C38.3875 196.401 38.6115 196.602 38.8915 196.77C39.1715 196.929 39.4795 197.083 39.8155 197.232C40.3009 197.027 40.7069 196.779 41.0335 196.49C41.3695 196.201 41.5375 195.804 41.5375 195.3C41.5375 194.833 41.3742 194.479 41.0475 194.236C40.7209 193.984 40.2869 193.858 39.7455 193.858ZM37.6595 200.466C37.6595 200.951 37.8322 201.357 38.1775 201.684C38.5229 202.001 39.0549 202.16 39.7735 202.16C40.4549 202.16 40.9729 202.001 41.3275 201.684C41.6915 201.357 41.8735 200.937 41.8735 200.424C41.8735 199.939 41.6822 199.537 41.2995 199.22C40.9169 198.893 40.4082 198.609 39.7735 198.366L39.5495 198.282C38.9335 198.553 38.4622 198.856 38.1355 199.192C37.8182 199.528 37.6595 199.953 37.6595 200.466ZM44.7893 202.244C44.7893 201.899 44.8733 201.656 45.0413 201.516C45.2093 201.376 45.4099 201.306 45.6433 201.306C45.8766 201.306 46.0819 201.376 46.2593 201.516C46.4366 201.656 46.5253 201.899 46.5253 202.244C46.5253 202.58 46.4366 202.823 46.2593 202.972C46.0819 203.121 45.8766 203.196 45.6433 203.196C45.4099 203.196 45.2093 203.121 45.0413 202.972C44.8733 202.823 44.7893 202.58 44.7893 202.244ZM51.3773 196.868C52.3947 196.868 53.2067 197.125 53.8133 197.638C54.4293 198.151 54.7373 198.875 54.7373 199.808C54.7373 200.844 54.406 201.661 53.7433 202.258C53.09 202.846 52.1753 203.14 50.9993 203.14C50.4767 203.14 49.9913 203.093 49.5433 203C49.0953 202.907 48.7173 202.771 48.4093 202.594V201.432C48.7453 201.637 49.1513 201.801 49.6273 201.922C50.1127 202.034 50.5747 202.09 51.0133 202.09C51.7507 202.09 52.3433 201.917 52.7913 201.572C53.2487 201.217 53.4773 200.671 53.4773 199.934C53.4773 199.281 53.2767 198.781 52.8753 198.436C52.474 198.081 51.8393 197.904 50.9713 197.904C50.71 197.904 50.4113 197.927 50.0753 197.974C49.7393 198.021 49.4687 198.067 49.2633 198.114L48.6473 197.722L49.0253 193.004H54.0373V194.124H50.0753L49.8373 197.022C49.996 196.994 50.2107 196.961 50.4813 196.924C50.752 196.887 51.0507 196.868 51.3773 196.868Z" fill="black"/>
<line x1="4.37114e-08" y1="219.5" x2="130" y2="219.5" stroke="#F1F1F1"/>
<rect width="150" height="44" transform="translate(130)" fill="#F1F1F1"/>
<path d="M147.302 27V17.004H149.094V25.488H153.266V27H147.302ZM157.855 19.272C158.835 19.272 159.577 19.4867 160.081 19.916C160.595 20.3453 160.851 21.008 160.851 21.904V27H159.605L159.255 25.95H159.199C158.873 26.3607 158.527 26.664 158.163 26.86C157.799 27.0467 157.305 27.14 156.679 27.14C155.998 27.14 155.433 26.9487 154.985 26.566C154.537 26.1833 154.313 25.5907 154.313 24.788C154.313 24.004 154.598 23.416 155.167 23.024C155.746 22.632 156.619 22.4127 157.785 22.366L159.101 22.324V21.946C159.101 21.4607 158.985 21.1153 158.751 20.91C158.518 20.7047 158.191 20.602 157.771 20.602C157.389 20.602 157.02 20.658 156.665 20.77C156.32 20.8727 155.975 21.0033 155.629 21.162L155.069 19.93C155.443 19.734 155.867 19.5753 156.343 19.454C156.829 19.3327 157.333 19.272 157.855 19.272ZM159.101 23.416L158.177 23.444C157.403 23.472 156.866 23.6073 156.567 23.85C156.269 24.0833 156.119 24.4007 156.119 24.802C156.119 25.166 156.222 25.4273 156.427 25.586C156.642 25.7353 156.922 25.81 157.267 25.81C157.781 25.81 158.215 25.6653 158.569 25.376C158.924 25.0773 159.101 24.6387 159.101 24.06V23.416ZM168.228 24.802C168.228 25.5673 167.952 26.1507 167.402 26.552C166.86 26.944 166.081 27.14 165.064 27.14C164.532 27.14 164.074 27.1027 163.692 27.028C163.318 26.9533 162.954 26.8367 162.6 26.678V25.18C162.973 25.3573 163.384 25.5067 163.832 25.628C164.289 25.7493 164.718 25.81 165.12 25.81C165.605 25.81 165.955 25.7353 166.17 25.586C166.384 25.4367 166.492 25.236 166.492 24.984C166.492 24.8347 166.45 24.704 166.366 24.592C166.282 24.4707 166.118 24.34 165.876 24.2C165.633 24.06 165.264 23.8873 164.77 23.682C164.284 23.486 163.878 23.29 163.552 23.094C163.234 22.898 162.992 22.6647 162.824 22.394C162.665 22.1233 162.586 21.7733 162.586 21.344C162.586 20.6627 162.856 20.1493 163.398 19.804C163.939 19.4493 164.653 19.272 165.54 19.272C166.006 19.272 166.445 19.3187 166.856 19.412C167.276 19.5053 167.696 19.6453 168.116 19.832L167.556 21.134C167.201 20.9847 166.856 20.8587 166.52 20.756C166.184 20.6533 165.838 20.602 165.484 20.602C164.709 20.602 164.322 20.8213 164.322 21.26C164.322 21.4187 164.368 21.554 164.462 21.666C164.564 21.778 164.737 21.8993 164.98 22.03C165.232 22.1513 165.586 22.3007 166.044 22.478C166.492 22.6553 166.879 22.842 167.206 23.038C167.532 23.2247 167.784 23.458 167.962 23.738C168.139 24.0087 168.228 24.3633 168.228 24.802ZM172.865 25.726C173.08 25.726 173.29 25.7073 173.495 25.67C173.71 25.6233 173.906 25.572 174.083 25.516V26.832C173.896 26.9253 173.654 27 173.355 27.056C173.056 27.112 172.744 27.14 172.417 27.14C171.978 27.14 171.582 27.07 171.227 26.93C170.882 26.79 170.606 26.5427 170.401 26.188C170.196 25.8333 170.093 25.334 170.093 24.69V20.742H169.071V19.972L170.191 19.356L170.751 17.746H171.857V19.412H174.013V20.742H171.857V24.676C171.857 25.0307 171.95 25.2967 172.137 25.474C172.333 25.642 172.576 25.726 172.865 25.726ZM183.715 27L180.971 18.81H180.915C180.934 18.9967 180.948 19.2627 180.957 19.608C180.976 19.944 180.99 20.3127 180.999 20.714C181.018 21.106 181.027 21.4747 181.027 21.82V27H179.417V17.004H181.909L184.541 24.858H184.597L187.341 17.004H189.833V27H188.125V21.736C188.125 21.4187 188.13 21.0733 188.139 20.7C188.158 20.3173 188.172 19.958 188.181 19.622C188.2 19.2767 188.214 19.0107 188.223 18.824H188.167L185.311 27H183.715ZM199.027 23.192C199.027 24.452 198.701 25.4273 198.047 26.118C197.394 26.7993 196.507 27.14 195.387 27.14C194.697 27.14 194.081 26.986 193.539 26.678C192.998 26.37 192.573 25.922 192.265 25.334C191.957 24.746 191.803 24.032 191.803 23.192C191.803 21.932 192.125 20.966 192.769 20.294C193.423 19.6127 194.309 19.272 195.429 19.272C196.129 19.272 196.75 19.426 197.291 19.734C197.833 20.0327 198.257 20.476 198.565 21.064C198.873 21.6427 199.027 22.352 199.027 23.192ZM193.609 23.192C193.609 23.9947 193.749 24.6153 194.029 25.054C194.319 25.4927 194.781 25.712 195.415 25.712C196.041 25.712 196.498 25.4927 196.787 25.054C197.077 24.6153 197.221 23.9947 197.221 23.192C197.221 22.3893 197.077 21.7733 196.787 21.344C196.498 20.9147 196.036 20.7 195.401 20.7C194.767 20.7 194.309 20.9147 194.029 21.344C193.749 21.7733 193.609 22.3893 193.609 23.192ZM203.357 27.14C202.479 27.14 201.765 26.8133 201.215 26.16C200.673 25.4973 200.403 24.5173 200.403 23.22C200.403 21.9133 200.678 20.9287 201.229 20.266C201.779 19.6033 202.503 19.272 203.399 19.272C203.959 19.272 204.416 19.3793 204.771 19.594C205.135 19.8087 205.424 20.07 205.639 20.378H205.723C205.695 20.2473 205.667 20.0513 205.639 19.79C205.611 19.5193 205.597 19.2627 205.597 19.02V16.36H207.361V27H205.989L205.667 26.006H205.597C205.382 26.3233 205.097 26.594 204.743 26.818C204.388 27.0327 203.926 27.14 203.357 27.14ZM203.889 25.712C204.542 25.712 204.999 25.5253 205.261 25.152C205.531 24.7787 205.671 24.214 205.681 23.458V23.234C205.681 22.422 205.55 21.8013 205.289 21.372C205.037 20.9333 204.561 20.714 203.861 20.714C203.319 20.714 202.904 20.938 202.615 21.386C202.335 21.8247 202.195 22.4453 202.195 23.248C202.195 24.0507 202.339 24.662 202.629 25.082C202.918 25.502 203.338 25.712 203.889 25.712ZM210.496 16.486C210.758 16.486 210.986 16.556 211.182 16.696C211.378 16.8267 211.476 17.0647 211.476 17.41C211.476 17.7553 211.378 17.998 211.182 18.138C210.986 18.278 210.758 18.348 210.496 18.348C210.226 18.348 209.992 18.278 209.796 18.138C209.61 17.998 209.516 17.7553 209.516 17.41C209.516 17.0647 209.61 16.8267 209.796 16.696C209.992 16.556 210.226 16.486 210.496 16.486ZM211.378 19.412V27H209.614V19.412H211.378ZM217.568 20.742H215.734V27H213.97V20.742H212.752V19.902L213.97 19.398V18.88C213.97 17.9093 214.199 17.2373 214.656 16.864C215.123 16.4813 215.757 16.29 216.56 16.29C216.924 16.29 217.255 16.3227 217.554 16.388C217.862 16.444 218.114 16.5093 218.31 16.584L217.862 17.9C217.703 17.8533 217.526 17.8113 217.33 17.774C217.143 17.7273 216.938 17.704 216.714 17.704C216.369 17.704 216.117 17.8113 215.958 18.026C215.809 18.2313 215.734 18.53 215.734 18.922V19.412H217.568V20.742ZM219.711 16.486C219.973 16.486 220.201 16.556 220.397 16.696C220.593 16.8267 220.691 17.0647 220.691 17.41C220.691 17.7553 220.593 17.998 220.397 18.138C220.201 18.278 219.973 18.348 219.711 18.348C219.441 18.348 219.207 18.278 219.011 18.138C218.825 17.998 218.731 17.7553 218.731 17.41C218.731 17.0647 218.825 16.8267 219.011 16.696C219.207 16.556 219.441 16.486 219.711 16.486ZM220.593 19.412V27H218.829V19.412H220.593ZM225.901 19.272C226.918 19.272 227.721 19.5753 228.309 20.182C228.906 20.7887 229.205 21.6333 229.205 22.716V23.612H224.193C224.212 24.3027 224.403 24.8393 224.767 25.222C225.131 25.5953 225.635 25.782 226.279 25.782C226.764 25.782 227.203 25.7353 227.595 25.642C227.987 25.5393 228.388 25.3947 228.799 25.208V26.622C228.426 26.7993 228.038 26.93 227.637 27.014C227.236 27.098 226.755 27.14 226.195 27.14C225.448 27.14 224.79 27 224.221 26.72C223.652 26.4307 223.204 26.0013 222.877 25.432C222.56 24.8533 222.401 24.13 222.401 23.262C222.401 21.9647 222.718 20.9753 223.353 20.294C223.997 19.6127 224.846 19.272 225.901 19.272ZM225.901 20.574C225.425 20.574 225.038 20.728 224.739 21.036C224.45 21.3347 224.282 21.7827 224.235 22.38H227.497C227.488 21.8573 227.352 21.428 227.091 21.092C226.839 20.7467 226.442 20.574 225.901 20.574ZM233.49 27.14C232.612 27.14 231.898 26.8133 231.348 26.16C230.806 25.4973 230.536 24.5173 230.536 23.22C230.536 21.9133 230.811 20.9287 231.362 20.266C231.912 19.6033 232.636 19.272 233.532 19.272C234.092 19.272 234.549 19.3793 234.904 19.594C235.268 19.8087 235.557 20.07 235.772 20.378H235.856C235.828 20.2473 235.8 20.0513 235.772 19.79C235.744 19.5193 235.73 19.2627 235.73 19.02V16.36H237.494V27H236.122L235.8 26.006H235.73C235.515 26.3233 235.23 26.594 234.876 26.818C234.521 27.0327 234.059 27.14 233.49 27.14ZM234.022 25.712C234.675 25.712 235.132 25.5253 235.394 25.152C235.664 24.7787 235.804 24.214 235.814 23.458V23.234C235.814 22.422 235.683 21.8013 235.422 21.372C235.17 20.9333 234.694 20.714 233.994 20.714C233.452 20.714 233.037 20.938 232.748 21.386C232.468 21.8247 232.328 22.4453 232.328 23.248C232.328 24.0507 232.472 24.662 232.762 25.082C233.051 25.502 233.471 25.712 234.022 25.712Z" fill="black"/>
<path d="M255.012 25.3625C254.912 25.3625 254.812 25.3125 254.762 25.2625L249.113 19.6625C248.962 19.5125 248.962 19.2625 249.113 19.1125C249.263 18.9625 249.512 18.9625 249.662 19.1125L255.012 24.4625L260.312 19.1125C260.462 18.9625 260.713 18.9625 260.863 19.1125C261.012 19.2625 261.012 19.5125 260.863 19.6625L255.262 25.2625C255.162 25.3125 255.112 25.3625 255.012 25.3625Z" fill="#323232"/>
<line x1="130" y1="0.5" x2="280" y2="0.500013" stroke="#C9C9C9"/>
<line x1="130" y1="43.5" x2="280" y2="43.5" stroke="#C9C9C9"/>
<rect width="150" height="44" transform="translate(130 44)" fill="white"/>
<path d="M153.322 65.988C153.322 67.0707 153.21 67.9947 152.986 68.76C152.762 69.5253 152.403 70.1133 151.908 70.524C151.423 70.9347 150.783 71.14 149.99 71.14C148.861 71.14 148.025 70.6873 147.484 69.782C146.952 68.8673 146.686 67.6027 146.686 65.988C146.686 64.9053 146.793 63.9813 147.008 63.216C147.232 62.4507 147.587 61.8673 148.072 61.466C148.557 61.0553 149.197 60.85 149.99 60.85C151.11 60.85 151.945 61.3027 152.496 62.208C153.047 63.104 153.322 64.364 153.322 65.988ZM147.918 65.988C147.918 67.36 148.072 68.3867 148.38 69.068C148.697 69.7493 149.234 70.09 149.99 70.09C150.737 70.09 151.269 69.754 151.586 69.082C151.913 68.4007 152.076 67.3693 152.076 65.988C152.076 64.6253 151.913 63.6033 151.586 62.922C151.269 62.2407 150.737 61.9 149.99 61.9C149.234 61.9 148.697 62.2407 148.38 62.922C148.072 63.6033 147.918 64.6253 147.918 65.988ZM158.982 71H157.778V64.014C157.778 63.6127 157.782 63.2907 157.792 63.048C157.801 62.8053 157.815 62.5533 157.834 62.292C157.684 62.4413 157.544 62.5673 157.414 62.67C157.292 62.7727 157.143 62.9033 156.966 63.062L155.902 63.93L155.258 63.104L157.96 61.004H158.982V71ZM167.091 61.004L163.367 71H162.163L165.887 61.004H167.091ZM172.202 71H170.998V64.014C170.998 63.6127 171.003 63.2907 171.012 63.048C171.022 62.8053 171.036 62.5533 171.054 62.292C170.905 62.4413 170.765 62.5673 170.634 62.67C170.513 62.7727 170.364 62.9033 170.186 63.062L169.122 63.93L168.478 63.104L171.18 61.004H172.202V71ZM182.146 63.342C182.146 64.014 181.955 64.5507 181.572 64.952C181.199 65.344 180.699 65.6053 180.074 65.736V65.792C180.867 65.8853 181.46 66.1373 181.852 66.548C182.253 66.9587 182.454 67.4953 182.454 68.158C182.454 68.746 182.319 69.264 182.048 69.712C181.777 70.16 181.357 70.51 180.788 70.762C180.228 71.014 179.505 71.14 178.618 71.14C178.095 71.14 177.61 71.098 177.162 71.014C176.714 70.9393 176.285 70.7993 175.874 70.594V69.446C176.294 69.6607 176.747 69.824 177.232 69.936C177.717 70.048 178.184 70.104 178.632 70.104C179.528 70.104 180.172 69.9313 180.564 69.586C180.965 69.2313 181.166 68.746 181.166 68.13C181.166 67.5047 180.919 67.0567 180.424 66.786C179.939 66.506 179.253 66.366 178.366 66.366H177.4V65.316H178.38C179.201 65.316 179.822 65.1433 180.242 64.798C180.671 64.4527 180.886 63.9953 180.886 63.426C180.886 62.9407 180.723 62.5673 180.396 62.306C180.069 62.0353 179.626 61.9 179.066 61.9C178.525 61.9 178.063 61.9793 177.68 62.138C177.297 62.2967 176.919 62.4973 176.546 62.74L175.93 61.9C176.285 61.62 176.723 61.3773 177.246 61.172C177.778 60.9667 178.38 60.864 179.052 60.864C180.097 60.864 180.872 61.0973 181.376 61.564C181.889 62.0307 182.146 62.6233 182.146 63.342ZM188.324 61.004L184.6 71H183.396L187.12 61.004H188.324ZM195.745 71H189.137V69.978L191.755 67.332C192.25 66.828 192.67 66.38 193.015 65.988C193.37 65.596 193.636 65.2133 193.813 64.84C193.99 64.4667 194.079 64.0513 194.079 63.594C194.079 63.0433 193.916 62.628 193.589 62.348C193.262 62.0587 192.838 61.914 192.315 61.914C191.82 61.914 191.391 61.998 191.027 62.166C190.663 62.334 190.29 62.5673 189.907 62.866L189.249 62.04C189.641 61.7133 190.089 61.438 190.593 61.214C191.106 60.9807 191.68 60.864 192.315 60.864C193.248 60.864 193.986 61.102 194.527 61.578C195.068 62.054 195.339 62.7027 195.339 63.524C195.339 64.0467 195.232 64.5367 195.017 64.994C194.802 65.4513 194.504 65.904 194.121 66.352C193.738 66.8 193.29 67.2713 192.777 67.766L190.691 69.824V69.88H195.745V71ZM203.799 65.988C203.799 67.0707 203.687 67.9947 203.463 68.76C203.239 69.5253 202.879 70.1133 202.385 70.524C201.899 70.9347 201.26 71.14 200.467 71.14C199.337 71.14 198.502 70.6873 197.961 69.782C197.429 68.8673 197.163 67.6027 197.163 65.988C197.163 64.9053 197.27 63.9813 197.485 63.216C197.709 62.4507 198.063 61.8673 198.549 61.466C199.034 61.0553 199.673 60.85 200.467 60.85C201.587 60.85 202.422 61.3027 202.973 62.208C203.523 63.104 203.799 64.364 203.799 65.988ZM198.395 65.988C198.395 67.36 198.549 68.3867 198.857 69.068C199.174 69.7493 199.711 70.09 200.467 70.09C201.213 70.09 201.745 69.754 202.063 69.082C202.389 68.4007 202.553 67.3693 202.553 65.988C202.553 64.6253 202.389 63.6033 202.063 62.922C201.745 62.2407 201.213 61.9 200.467 61.9C199.711 61.9 199.174 62.2407 198.857 62.922C198.549 63.6033 198.395 64.6253 198.395 65.988ZM211.768 71H205.16V69.978L207.778 67.332C208.273 66.828 208.693 66.38 209.038 65.988C209.393 65.596 209.659 65.2133 209.836 64.84C210.014 64.4667 210.102 64.0513 210.102 63.594C210.102 63.0433 209.939 62.628 209.612 62.348C209.286 62.0587 208.861 61.914 208.338 61.914C207.844 61.914 207.414 61.998 207.05 62.166C206.686 62.334 206.313 62.5673 205.93 62.866L205.272 62.04C205.664 61.7133 206.112 61.438 206.616 61.214C207.13 60.9807 207.704 60.864 208.338 60.864C209.272 60.864 210.009 61.102 210.55 61.578C211.092 62.054 211.362 62.7027 211.362 63.524C211.362 64.0467 211.255 64.5367 211.04 64.994C210.826 65.4513 210.527 65.904 210.144 66.352C209.762 66.8 209.314 67.2713 208.8 67.766L206.714 69.824V69.88H211.768V71ZM219.78 71H213.172V69.978L215.79 67.332C216.285 66.828 216.705 66.38 217.05 65.988C217.405 65.596 217.671 65.2133 217.848 64.84C218.025 64.4667 218.114 64.0513 218.114 63.594C218.114 63.0433 217.951 62.628 217.624 62.348C217.297 62.0587 216.873 61.914 216.35 61.914C215.855 61.914 215.426 61.998 215.062 62.166C214.698 62.334 214.325 62.5673 213.942 62.866L213.284 62.04C213.676 61.7133 214.124 61.438 214.628 61.214C215.141 60.9807 215.715 60.864 216.35 60.864C217.283 60.864 218.021 61.102 218.562 61.578C219.103 62.054 219.374 62.7027 219.374 63.524C219.374 64.0467 219.267 64.5367 219.052 64.994C218.837 65.4513 218.539 65.904 218.156 66.352C217.773 66.8 217.325 67.2713 216.812 67.766L214.726 69.824V69.88H219.78V71Z" fill="black"/>
<line x1="130" y1="87.5" x2="280" y2="87.5" stroke="#F1F1F1"/>
<rect width="150" height="44" transform="translate(130 88)" fill="white"/>
<path d="M153.322 109.988C153.322 111.071 153.21 111.995 152.986 112.76C152.762 113.525 152.403 114.113 151.908 114.524C151.423 114.935 150.783 115.14 149.99 115.14C148.861 115.14 148.025 114.687 147.484 113.782C146.952 112.867 146.686 111.603 146.686 109.988C146.686 108.905 146.793 107.981 147.008 107.216C147.232 106.451 147.587 105.867 148.072 105.466C148.557 105.055 149.197 104.85 149.99 104.85C151.11 104.85 151.945 105.303 152.496 106.208C153.047 107.104 153.322 108.364 153.322 109.988ZM147.918 109.988C147.918 111.36 148.072 112.387 148.38 113.068C148.697 113.749 149.234 114.09 149.99 114.09C150.737 114.09 151.269 113.754 151.586 113.082C151.913 112.401 152.076 111.369 152.076 109.988C152.076 108.625 151.913 107.603 151.586 106.922C151.269 106.241 150.737 105.9 149.99 105.9C149.234 105.9 148.697 106.241 148.38 106.922C148.072 107.603 147.918 108.625 147.918 109.988ZM161.292 115H154.684V113.978L157.302 111.332C157.796 110.828 158.216 110.38 158.562 109.988C158.916 109.596 159.182 109.213 159.36 108.84C159.537 108.467 159.626 108.051 159.626 107.594C159.626 107.043 159.462 106.628 159.136 106.348C158.809 106.059 158.384 105.914 157.862 105.914C157.367 105.914 156.938 105.998 156.574 106.166C156.21 106.334 155.836 106.567 155.454 106.866L154.796 106.04C155.188 105.713 155.636 105.438 156.14 105.214C156.653 104.981 157.227 104.864 157.862 104.864C158.795 104.864 159.532 105.102 160.074 105.578C160.615 106.054 160.886 106.703 160.886 107.524C160.886 108.047 160.778 108.537 160.564 108.994C160.349 109.451 160.05 109.904 159.668 110.352C159.285 110.8 158.837 111.271 158.324 111.766L156.238 113.824V113.88H161.292V115ZM167.091 105.004L163.367 115H162.163L165.887 105.004H167.091ZM174.554 109.988C174.554 111.071 174.442 111.995 174.218 112.76C173.994 113.525 173.635 114.113 173.14 114.524C172.655 114.935 172.016 115.14 171.222 115.14C170.093 115.14 169.258 114.687 168.716 113.782C168.184 112.867 167.918 111.603 167.918 109.988C167.918 108.905 168.026 107.981 168.24 107.216C168.464 106.451 168.819 105.867 169.304 105.466C169.79 105.055 170.429 104.85 171.222 104.85C172.342 104.85 173.178 105.303 173.728 106.208C174.279 107.104 174.554 108.364 174.554 109.988ZM169.15 109.988C169.15 111.36 169.304 112.387 169.612 113.068C169.93 113.749 170.466 114.09 171.222 114.09C171.969 114.09 172.501 113.754 172.818 113.082C173.145 112.401 173.308 111.369 173.308 109.988C173.308 108.625 173.145 107.603 172.818 106.922C172.501 106.241 171.969 105.9 171.222 105.9C170.466 105.9 169.93 106.241 169.612 106.922C169.304 107.603 169.15 108.625 169.15 109.988ZM179.094 108.868C180.111 108.868 180.923 109.125 181.53 109.638C182.146 110.151 182.454 110.875 182.454 111.808C182.454 112.844 182.123 113.661 181.46 114.258C180.807 114.846 179.892 115.14 178.716 115.14C178.193 115.14 177.708 115.093 177.26 115C176.812 114.907 176.434 114.771 176.126 114.594V113.432C176.462 113.637 176.868 113.801 177.344 113.922C177.829 114.034 178.291 114.09 178.73 114.09C179.467 114.09 180.06 113.917 180.508 113.572C180.965 113.217 181.194 112.671 181.194 111.934C181.194 111.281 180.993 110.781 180.592 110.436C180.191 110.081 179.556 109.904 178.688 109.904C178.427 109.904 178.128 109.927 177.792 109.974C177.456 110.021 177.185 110.067 176.98 110.114L176.364 109.722L176.742 105.004H181.754V106.124H177.792L177.554 109.022C177.713 108.994 177.927 108.961 178.198 108.924C178.469 108.887 178.767 108.868 179.094 108.868ZM188.324 105.004L184.6 115H183.396L187.12 105.004H188.324ZM195.745 115H189.137V113.978L191.755 111.332C192.25 110.828 192.67 110.38 193.015 109.988C193.37 109.596 193.636 109.213 193.813 108.84C193.99 108.467 194.079 108.051 194.079 107.594C194.079 107.043 193.916 106.628 193.589 106.348C193.262 106.059 192.838 105.914 192.315 105.914C191.82 105.914 191.391 105.998 191.027 106.166C190.663 106.334 190.29 106.567 189.907 106.866L189.249 106.04C189.641 105.713 190.089 105.438 190.593 105.214C191.106 104.981 191.68 104.864 192.315 104.864C193.248 104.864 193.986 105.102 194.527 105.578C195.068 106.054 195.339 106.703 195.339 107.524C195.339 108.047 195.232 108.537 195.017 108.994C194.802 109.451 194.504 109.904 194.121 110.352C193.738 110.8 193.29 111.271 192.777 111.766L190.691 113.824V113.88H195.745V115ZM203.799 109.988C203.799 111.071 203.687 111.995 203.463 112.76C203.239 113.525 202.879 114.113 202.385 114.524C201.899 114.935 201.26 115.14 200.467 115.14C199.337 115.14 198.502 114.687 197.961 113.782C197.429 112.867 197.163 111.603 197.163 109.988C197.163 108.905 197.27 107.981 197.485 107.216C197.709 106.451 198.063 105.867 198.549 105.466C199.034 105.055 199.673 104.85 200.467 104.85C201.587 104.85 202.422 105.303 202.973 106.208C203.523 107.104 203.799 108.364 203.799 109.988ZM198.395 109.988C198.395 111.36 198.549 112.387 198.857 113.068C199.174 113.749 199.711 114.09 200.467 114.09C201.213 114.09 201.745 113.754 202.063 113.082C202.389 112.401 202.553 111.369 202.553 109.988C202.553 108.625 202.389 107.603 202.063 106.922C201.745 106.241 201.213 105.9 200.467 105.9C199.711 105.9 199.174 106.241 198.857 106.922C198.549 107.603 198.395 108.625 198.395 109.988ZM211.768 115H205.16V113.978L207.778 111.332C208.273 110.828 208.693 110.38 209.038 109.988C209.393 109.596 209.659 109.213 209.836 108.84C210.014 108.467 210.102 108.051 210.102 107.594C210.102 107.043 209.939 106.628 209.612 106.348C209.286 106.059 208.861 105.914 208.338 105.914C207.844 105.914 207.414 105.998 207.05 106.166C206.686 106.334 206.313 106.567 205.93 106.866L205.272 106.04C205.664 105.713 206.112 105.438 206.616 105.214C207.13 104.981 207.704 104.864 208.338 104.864C209.272 104.864 210.009 105.102 210.55 105.578C211.092 106.054 211.362 106.703 211.362 107.524C211.362 108.047 211.255 108.537 211.04 108.994C210.826 109.451 210.527 109.904 210.144 110.352C209.762 110.8 209.314 111.271 208.8 111.766L206.714 113.824V113.88H211.768V115ZM219.78 115H213.172V113.978L215.79 111.332C216.285 110.828 216.705 110.38 217.05 109.988C217.405 109.596 217.671 109.213 217.848 108.84C218.025 108.467 218.114 108.051 218.114 107.594C218.114 107.043 217.951 106.628 217.624 106.348C217.297 106.059 216.873 105.914 216.35 105.914C215.855 105.914 215.426 105.998 215.062 106.166C214.698 106.334 214.325 106.567 213.942 106.866L213.284 106.04C213.676 105.713 214.124 105.438 214.628 105.214C215.141 104.981 215.715 104.864 216.35 104.864C217.283 104.864 218.021 105.102 218.562 105.578C219.103 106.054 219.374 106.703 219.374 107.524C219.374 108.047 219.267 108.537 219.052 108.994C218.837 109.451 218.539 109.904 218.156 110.352C217.773 110.8 217.325 111.271 216.812 111.766L214.726 113.824V113.88H219.78V115Z" fill="black"/>
<line x1="130" y1="131.5" x2="280" y2="131.5" stroke="#F1F1F1"/>
<rect width="150" height="44" transform="translate(130 132)" fill="white"/>
<path d="M153.322 153.988C153.322 155.071 153.21 155.995 152.986 156.76C152.762 157.525 152.403 158.113 151.908 158.524C151.423 158.935 150.783 159.14 149.99 159.14C148.861 159.14 148.025 158.687 147.484 157.782C146.952 156.867 146.686 155.603 146.686 153.988C146.686 152.905 146.793 151.981 147.008 151.216C147.232 150.451 147.587 149.867 148.072 149.466C148.557 149.055 149.197 148.85 149.99 148.85C151.11 148.85 151.945 149.303 152.496 150.208C153.047 151.104 153.322 152.364 153.322 153.988ZM147.918 153.988C147.918 155.36 148.072 156.387 148.38 157.068C148.697 157.749 149.234 158.09 149.99 158.09C150.737 158.09 151.269 157.754 151.586 157.082C151.913 156.401 152.076 155.369 152.076 153.988C152.076 152.625 151.913 151.603 151.586 150.922C151.269 150.241 150.737 149.9 149.99 149.9C149.234 149.9 148.697 150.241 148.38 150.922C148.072 151.603 147.918 152.625 147.918 153.988ZM154.782 154.73C154.782 154.011 154.842 153.307 154.964 152.616C155.094 151.916 155.323 151.286 155.65 150.726C155.986 150.157 156.452 149.704 157.05 149.368C157.647 149.032 158.417 148.864 159.36 148.864C159.556 148.864 159.77 148.873 160.004 148.892C160.246 148.911 160.442 148.943 160.592 148.99V150.04C160.424 149.984 160.232 149.942 160.018 149.914C159.803 149.886 159.593 149.872 159.388 149.872C158.744 149.872 158.207 149.979 157.778 150.194C157.348 150.409 157.008 150.703 156.756 151.076C156.513 151.449 156.336 151.879 156.224 152.364C156.112 152.849 156.042 153.367 156.014 153.918H156.098C156.312 153.591 156.611 153.316 156.994 153.092C157.376 152.859 157.866 152.742 158.464 152.742C159.332 152.742 160.032 153.008 160.564 153.54C161.096 154.063 161.362 154.809 161.362 155.78C161.362 156.825 161.072 157.647 160.494 158.244C159.924 158.841 159.154 159.14 158.184 159.14C157.549 159.14 156.975 158.981 156.462 158.664C155.948 158.347 155.538 157.861 155.23 157.208C154.931 156.555 154.782 155.729 154.782 154.73ZM158.17 158.104C158.758 158.104 159.234 157.917 159.598 157.544C159.962 157.161 160.144 156.573 160.144 155.78C160.144 155.145 159.98 154.641 159.654 154.268C159.336 153.895 158.856 153.708 158.212 153.708C157.773 153.708 157.39 153.801 157.064 153.988C156.737 154.165 156.48 154.399 156.294 154.688C156.116 154.968 156.028 155.253 156.028 155.542C156.028 155.943 156.107 156.345 156.266 156.746C156.424 157.138 156.662 157.465 156.98 157.726C157.297 157.978 157.694 158.104 158.17 158.104ZM167.091 149.004L163.367 159H162.163L165.887 149.004H167.091ZM172.202 159H170.998V152.014C170.998 151.613 171.003 151.291 171.012 151.048C171.022 150.805 171.036 150.553 171.054 150.292C170.905 150.441 170.765 150.567 170.634 150.67C170.513 150.773 170.364 150.903 170.186 151.062L169.122 151.93L168.478 151.104L171.18 149.004H172.202V159ZM179.234 148.864C180.111 148.864 180.83 149.069 181.39 149.48C181.95 149.891 182.23 150.483 182.23 151.258C182.23 151.659 182.141 152.009 181.964 152.308C181.796 152.607 181.567 152.873 181.278 153.106C180.989 153.33 180.671 153.531 180.326 153.708C180.737 153.913 181.11 154.137 181.446 154.38C181.782 154.623 182.048 154.907 182.244 155.234C182.449 155.561 182.552 155.953 182.552 156.41C182.552 157.25 182.253 157.917 181.656 158.412C181.059 158.897 180.265 159.14 179.276 159.14C178.193 159.14 177.363 158.907 176.784 158.44C176.215 157.964 175.93 157.301 175.93 156.452C175.93 156.004 176.023 155.612 176.21 155.276C176.406 154.931 176.663 154.637 176.98 154.394C177.297 154.151 177.638 153.946 178.002 153.778C177.507 153.498 177.092 153.162 176.756 152.77C176.42 152.369 176.252 151.86 176.252 151.244C176.252 150.74 176.383 150.311 176.644 149.956C176.905 149.601 177.26 149.331 177.708 149.144C178.156 148.957 178.665 148.864 179.234 148.864ZM179.22 149.858C178.697 149.858 178.273 149.984 177.946 150.236C177.619 150.479 177.456 150.833 177.456 151.3C177.456 151.645 177.535 151.935 177.694 152.168C177.862 152.401 178.086 152.602 178.366 152.77C178.646 152.929 178.954 153.083 179.29 153.232C179.775 153.027 180.181 152.779 180.508 152.49C180.844 152.201 181.012 151.804 181.012 151.3C181.012 150.833 180.849 150.479 180.522 150.236C180.195 149.984 179.761 149.858 179.22 149.858ZM177.134 156.466C177.134 156.951 177.307 157.357 177.652 157.684C177.997 158.001 178.529 158.16 179.248 158.16C179.929 158.16 180.447 158.001 180.802 157.684C181.166 157.357 181.348 156.937 181.348 156.424C181.348 155.939 181.157 155.537 180.774 155.22C180.391 154.893 179.883 154.609 179.248 154.366L179.024 154.282C178.408 154.553 177.937 154.856 177.61 155.192C177.293 155.528 177.134 155.953 177.134 156.466ZM188.324 149.004L184.6 159H183.396L187.12 149.004H188.324ZM195.745 159H189.137V157.978L191.755 155.332C192.25 154.828 192.67 154.38 193.015 153.988C193.37 153.596 193.636 153.213 193.813 152.84C193.99 152.467 194.079 152.051 194.079 151.594C194.079 151.043 193.916 150.628 193.589 150.348C193.262 150.059 192.838 149.914 192.315 149.914C191.82 149.914 191.391 149.998 191.027 150.166C190.663 150.334 190.29 150.567 189.907 150.866L189.249 150.04C189.641 149.713 190.089 149.438 190.593 149.214C191.106 148.981 191.68 148.864 192.315 148.864C193.248 148.864 193.986 149.102 194.527 149.578C195.068 150.054 195.339 150.703 195.339 151.524C195.339 152.047 195.232 152.537 195.017 152.994C194.802 153.451 194.504 153.904 194.121 154.352C193.738 154.8 193.29 155.271 192.777 155.766L190.691 157.824V157.88H195.745V159ZM203.799 153.988C203.799 155.071 203.687 155.995 203.463 156.76C203.239 157.525 202.879 158.113 202.385 158.524C201.899 158.935 201.26 159.14 200.467 159.14C199.337 159.14 198.502 158.687 197.961 157.782C197.429 156.867 197.163 155.603 197.163 153.988C197.163 152.905 197.27 151.981 197.485 151.216C197.709 150.451 198.063 149.867 198.549 149.466C199.034 149.055 199.673 148.85 200.467 148.85C201.587 148.85 202.422 149.303 202.973 150.208C203.523 151.104 203.799 152.364 203.799 153.988ZM198.395 153.988C198.395 155.36 198.549 156.387 198.857 157.068C199.174 157.749 199.711 158.09 200.467 158.09C201.213 158.09 201.745 157.754 202.063 157.082C202.389 156.401 202.553 155.369 202.553 153.988C202.553 152.625 202.389 151.603 202.063 150.922C201.745 150.241 201.213 149.9 200.467 149.9C199.711 149.9 199.174 150.241 198.857 150.922C198.549 151.603 198.395 152.625 198.395 153.988ZM211.768 159H205.16V157.978L207.778 155.332C208.273 154.828 208.693 154.38 209.038 153.988C209.393 153.596 209.659 153.213 209.836 152.84C210.014 152.467 210.102 152.051 210.102 151.594C210.102 151.043 209.939 150.628 209.612 150.348C209.286 150.059 208.861 149.914 208.338 149.914C207.844 149.914 207.414 149.998 207.05 150.166C206.686 150.334 206.313 150.567 205.93 150.866L205.272 150.04C205.664 149.713 206.112 149.438 206.616 149.214C207.13 148.981 207.704 148.864 208.338 148.864C209.272 148.864 210.009 149.102 210.55 149.578C211.092 150.054 211.362 150.703 211.362 151.524C211.362 152.047 211.255 152.537 211.04 152.994C210.826 153.451 210.527 153.904 210.144 154.352C209.762 154.8 209.314 155.271 208.8 155.766L206.714 157.824V157.88H211.768V159ZM219.78 159H213.172V157.978L215.79 155.332C216.285 154.828 216.705 154.38 217.05 153.988C217.405 153.596 217.671 153.213 217.848 152.84C218.025 152.467 218.114 152.051 218.114 151.594C218.114 151.043 217.951 150.628 217.624 150.348C217.297 150.059 216.873 149.914 216.35 149.914C215.855 149.914 215.426 149.998 215.062 150.166C214.698 150.334 214.325 150.567 213.942 150.866L213.284 150.04C213.676 149.713 214.124 149.438 214.628 149.214C215.141 148.981 215.715 148.864 216.35 148.864C217.283 148.864 218.021 149.102 218.562 149.578C219.103 150.054 219.374 150.703 219.374 151.524C219.374 152.047 219.267 152.537 219.052 152.994C218.837 153.451 218.539 153.904 218.156 154.352C217.773 154.8 217.325 155.271 216.812 155.766L214.726 157.824V157.88H219.78V159Z" fill="black"/>
<line x1="130" y1="175.5" x2="280" y2="175.5" stroke="#F1F1F1"/>
<rect width="150" height="44" transform="translate(130 176)" fill="white"/>
<path d="M153.322 197.988C153.322 199.071 153.21 199.995 152.986 200.76C152.762 201.525 152.403 202.113 151.908 202.524C151.423 202.935 150.783 203.14 149.99 203.14C148.861 203.14 148.025 202.687 147.484 201.782C146.952 200.867 146.686 199.603 146.686 197.988C146.686 196.905 146.793 195.981 147.008 195.216C147.232 194.451 147.587 193.867 148.072 193.466C148.557 193.055 149.197 192.85 149.99 192.85C151.11 192.85 151.945 193.303 152.496 194.208C153.047 195.104 153.322 196.364 153.322 197.988ZM147.918 197.988C147.918 199.36 148.072 200.387 148.38 201.068C148.697 201.749 149.234 202.09 149.99 202.09C150.737 202.09 151.269 201.754 151.586 201.082C151.913 200.401 152.076 199.369 152.076 197.988C152.076 196.625 151.913 195.603 151.586 194.922C151.269 194.241 150.737 193.9 149.99 193.9C149.234 193.9 148.697 194.241 148.38 194.922C148.072 195.603 147.918 196.625 147.918 197.988ZM160.914 195.342C160.914 196.014 160.722 196.551 160.34 196.952C159.966 197.344 159.467 197.605 158.842 197.736V197.792C159.635 197.885 160.228 198.137 160.62 198.548C161.021 198.959 161.222 199.495 161.222 200.158C161.222 200.746 161.086 201.264 160.816 201.712C160.545 202.16 160.125 202.51 159.556 202.762C158.996 203.014 158.272 203.14 157.386 203.14C156.863 203.14 156.378 203.098 155.93 203.014C155.482 202.939 155.052 202.799 154.642 202.594V201.446C155.062 201.661 155.514 201.824 156 201.936C156.485 202.048 156.952 202.104 157.4 202.104C158.296 202.104 158.94 201.931 159.332 201.586C159.733 201.231 159.934 200.746 159.934 200.13C159.934 199.505 159.686 199.057 159.192 198.786C158.706 198.506 158.02 198.366 157.134 198.366H156.168V197.316H157.148C157.969 197.316 158.59 197.143 159.01 196.798C159.439 196.453 159.654 195.995 159.654 195.426C159.654 194.941 159.49 194.567 159.164 194.306C158.837 194.035 158.394 193.9 157.834 193.9C157.292 193.9 156.83 193.979 156.448 194.138C156.065 194.297 155.687 194.497 155.314 194.74L154.698 193.9C155.052 193.62 155.491 193.377 156.014 193.172C156.546 192.967 157.148 192.864 157.82 192.864C158.865 192.864 159.64 193.097 160.144 193.564C160.657 194.031 160.914 194.623 160.914 195.342ZM167.091 193.004L163.367 203H162.163L165.887 193.004H167.091ZM174.512 203H167.904V201.978L170.522 199.332C171.017 198.828 171.437 198.38 171.782 197.988C172.137 197.596 172.403 197.213 172.58 196.84C172.758 196.467 172.846 196.051 172.846 195.594C172.846 195.043 172.683 194.628 172.356 194.348C172.03 194.059 171.605 193.914 171.082 193.914C170.588 193.914 170.158 193.998 169.794 194.166C169.43 194.334 169.057 194.567 168.674 194.866L168.016 194.04C168.408 193.713 168.856 193.438 169.36 193.214C169.874 192.981 170.448 192.864 171.082 192.864C172.016 192.864 172.753 193.102 173.294 193.578C173.836 194.054 174.106 194.703 174.106 195.524C174.106 196.047 173.999 196.537 173.784 196.994C173.57 197.451 173.271 197.904 172.888 198.352C172.506 198.8 172.058 199.271 171.544 199.766L169.458 201.824V201.88H174.512V203ZM182.524 203H175.916V201.978L178.534 199.332C179.029 198.828 179.449 198.38 179.794 197.988C180.149 197.596 180.415 197.213 180.592 196.84C180.769 196.467 180.858 196.051 180.858 195.594C180.858 195.043 180.695 194.628 180.368 194.348C180.041 194.059 179.617 193.914 179.094 193.914C178.599 193.914 178.17 193.998 177.806 194.166C177.442 194.334 177.069 194.567 176.686 194.866L176.028 194.04C176.42 193.713 176.868 193.438 177.372 193.214C177.885 192.981 178.459 192.864 179.094 192.864C180.027 192.864 180.765 193.102 181.306 193.578C181.847 194.054 182.118 194.703 182.118 195.524C182.118 196.047 182.011 196.537 181.796 196.994C181.581 197.451 181.283 197.904 180.9 198.352C180.517 198.8 180.069 199.271 179.556 199.766L177.47 201.824V201.88H182.524V203ZM188.324 193.004L184.6 203H183.396L187.12 193.004H188.324ZM195.745 203H189.137V201.978L191.755 199.332C192.25 198.828 192.67 198.38 193.015 197.988C193.37 197.596 193.636 197.213 193.813 196.84C193.99 196.467 194.079 196.051 194.079 195.594C194.079 195.043 193.916 194.628 193.589 194.348C193.262 194.059 192.838 193.914 192.315 193.914C191.82 193.914 191.391 193.998 191.027 194.166C190.663 194.334 190.29 194.567 189.907 194.866L189.249 194.04C189.641 193.713 190.089 193.438 190.593 193.214C191.106 192.981 191.68 192.864 192.315 192.864C193.248 192.864 193.986 193.102 194.527 193.578C195.068 194.054 195.339 194.703 195.339 195.524C195.339 196.047 195.232 196.537 195.017 196.994C194.802 197.451 194.504 197.904 194.121 198.352C193.738 198.8 193.29 199.271 192.777 199.766L190.691 201.824V201.88H195.745V203ZM203.799 197.988C203.799 199.071 203.687 199.995 203.463 200.76C203.239 201.525 202.879 202.113 202.385 202.524C201.899 202.935 201.26 203.14 200.467 203.14C199.337 203.14 198.502 202.687 197.961 201.782C197.429 200.867 197.163 199.603 197.163 197.988C197.163 196.905 197.27 195.981 197.485 195.216C197.709 194.451 198.063 193.867 198.549 193.466C199.034 193.055 199.673 192.85 200.467 192.85C201.587 192.85 202.422 193.303 202.973 194.208C203.523 195.104 203.799 196.364 203.799 197.988ZM198.395 197.988C198.395 199.36 198.549 200.387 198.857 201.068C199.174 201.749 199.711 202.09 200.467 202.09C201.213 202.09 201.745 201.754 202.063 201.082C202.389 200.401 202.553 199.369 202.553 197.988C202.553 196.625 202.389 195.603 202.063 194.922C201.745 194.241 201.213 193.9 200.467 193.9C199.711 193.9 199.174 194.241 198.857 194.922C198.549 195.603 198.395 196.625 198.395 197.988ZM211.768 203H205.16V201.978L207.778 199.332C208.273 198.828 208.693 198.38 209.038 197.988C209.393 197.596 209.659 197.213 209.836 196.84C210.014 196.467 210.102 196.051 210.102 195.594C210.102 195.043 209.939 194.628 209.612 194.348C209.286 194.059 208.861 193.914 208.338 193.914C207.844 193.914 207.414 193.998 207.05 194.166C206.686 194.334 206.313 194.567 205.93 194.866L205.272 194.04C205.664 193.713 206.112 193.438 206.616 193.214C207.13 192.981 207.704 192.864 208.338 192.864C209.272 192.864 210.009 193.102 210.55 193.578C211.092 194.054 211.362 194.703 211.362 195.524C211.362 196.047 211.255 196.537 211.04 196.994C210.826 197.451 210.527 197.904 210.144 198.352C209.762 198.8 209.314 199.271 208.8 199.766L206.714 201.824V201.88H211.768V203ZM219.78 203H213.172V201.978L215.79 199.332C216.285 198.828 216.705 198.38 217.05 197.988C217.405 197.596 217.671 197.213 217.848 196.84C218.025 196.467 218.114 196.051 218.114 195.594C218.114 195.043 217.951 194.628 217.624 194.348C217.297 194.059 216.873 193.914 216.35 193.914C215.855 193.914 215.426 193.998 215.062 194.166C214.698 194.334 214.325 194.567 213.942 194.866L213.284 194.04C213.676 193.713 214.124 193.438 214.628 193.214C215.141 192.981 215.715 192.864 216.35 192.864C217.283 192.864 218.021 193.102 218.562 193.578C219.103 194.054 219.374 194.703 219.374 195.524C219.374 196.047 219.267 196.537 219.052 196.994C218.837 197.451 218.539 197.904 218.156 198.352C217.773 198.8 217.325 199.271 216.812 199.766L214.726 201.824V201.88H219.78V203Z" fill="black"/>
<line x1="130" y1="219.5" x2="280" y2="219.5" stroke="#F1F1F1"/>
<g clip-path="url(#clip0_9152_125912)">
<rect width="32" height="44" transform="translate(280)" fill="white"/>
<line x1="280" y1="0.5" x2="312" y2="0.500003" stroke="#C9C9C9"/>
<line x1="280" y1="43.5" x2="312" y2="43.5" stroke="#C9C9C9"/>
</g>
<g clip-path="url(#clip1_9152_125912)">
<rect width="32" height="44" transform="translate(280 44)" fill="white"/>
<line x1="280" y1="87.5" x2="312" y2="87.5" stroke="#F1F1F1"/>
</g>
<g clip-path="url(#clip2_9152_125912)">
<rect width="32" height="44" transform="translate(280 88)" fill="white"/>
<line x1="280" y1="131.5" x2="312" y2="131.5" stroke="#F1F1F1"/>
</g>
<g clip-path="url(#clip3_9152_125912)">
<rect width="32" height="44" transform="translate(280 132)" fill="white"/>
<line x1="280" y1="175.5" x2="312" y2="175.5" stroke="#F1F1F1"/>
</g>
<g clip-path="url(#clip4_9152_125912)">
<rect width="32" height="44" transform="translate(280 176)" fill="white"/>
<line x1="280" y1="219.5" x2="312" y2="219.5" stroke="#F1F1F1"/>
</g>
<g filter="url(#filter0_d_9152_125912)">
<g clip-path="url(#clip5_9152_125912)">
<rect x="130" y="44" width="150" height="108" rx="4" fill="white"/>
<rect width="150" height="36" transform="translate(130 44)" fill="#F1F1F1"/>
<path d="M148.08 61.988C148.08 63.024 147.903 63.9293 147.548 64.704C147.203 65.4693 146.685 66.0667 145.994 66.496C145.313 66.9253 144.473 67.14 143.474 67.14C142.438 67.14 141.575 66.9253 140.884 66.496C140.203 66.0667 139.694 65.4647 139.358 64.69C139.022 63.9153 138.854 63.01 138.854 61.974C138.854 60.9567 139.022 60.0653 139.358 59.3C139.694 58.5253 140.203 57.9233 140.884 57.494C141.575 57.0647 142.443 56.85 143.488 56.85C144.487 56.85 145.327 57.0647 146.008 57.494C146.689 57.914 147.203 58.5113 147.548 59.286C147.903 60.0513 148.08 60.952 148.08 61.988ZM140.184 61.988C140.184 63.248 140.45 64.242 140.982 64.97C141.514 65.6887 142.345 66.048 143.474 66.048C144.603 66.048 145.429 65.6887 145.952 64.97C146.484 64.242 146.75 63.248 146.75 61.988C146.75 60.728 146.489 59.7433 145.966 59.034C145.443 58.3153 144.617 57.956 143.488 57.956C142.349 57.956 141.514 58.3153 140.982 59.034C140.45 59.7433 140.184 60.728 140.184 61.988ZM151.36 67H150.128V56.36H151.36V67ZM156.397 67.14C155.464 67.14 154.717 66.818 154.157 66.174C153.597 65.5207 153.317 64.55 153.317 63.262C153.317 61.974 153.597 61.0033 154.157 60.35C154.726 59.6873 155.478 59.356 156.411 59.356C156.99 59.356 157.461 59.4633 157.825 59.678C158.198 59.8927 158.502 60.154 158.735 60.462H158.819C158.8 60.3407 158.782 60.1633 158.763 59.93C158.744 59.6873 158.735 59.496 158.735 59.356V56.36H159.967V67H158.973L158.791 65.992H158.735C158.511 66.3093 158.212 66.58 157.839 66.804C157.466 67.028 156.985 67.14 156.397 67.14ZM156.593 66.118C157.386 66.118 157.942 65.9033 158.259 65.474C158.586 65.0353 158.749 64.3773 158.749 63.5V63.276C158.749 62.3427 158.595 61.6287 158.287 61.134C157.979 60.63 157.41 60.378 156.579 60.378C155.916 60.378 155.417 60.644 155.081 61.176C154.754 61.6987 154.591 62.4033 154.591 63.29C154.591 64.186 154.754 64.8813 155.081 65.376C155.417 65.8707 155.921 66.118 156.593 66.118ZM165.248 59.356C165.883 59.356 166.433 59.496 166.9 59.776C167.367 60.056 167.721 60.4527 167.964 60.966C168.216 61.47 168.342 62.0627 168.342 62.744V63.486H163.204C163.223 64.3353 163.437 64.984 163.848 65.432C164.268 65.8707 164.851 66.09 165.598 66.09C166.074 66.09 166.494 66.048 166.858 65.964C167.231 65.8707 167.614 65.74 168.006 65.572V66.65C167.623 66.818 167.245 66.9393 166.872 67.014C166.499 67.098 166.055 67.14 165.542 67.14C164.823 67.14 164.193 66.9953 163.652 66.706C163.111 66.4167 162.686 65.9873 162.378 65.418C162.079 64.8487 161.93 64.144 161.93 63.304C161.93 62.4827 162.065 61.778 162.336 61.19C162.616 60.602 163.003 60.1493 163.498 59.832C164.002 59.5147 164.585 59.356 165.248 59.356ZM165.234 60.364C164.646 60.364 164.179 60.5553 163.834 60.938C163.498 61.3113 163.297 61.834 163.232 62.506H167.054C167.045 61.8713 166.895 61.358 166.606 60.966C166.317 60.5647 165.859 60.364 165.234 60.364ZM173.753 59.356C173.893 59.356 174.042 59.3653 174.201 59.384C174.359 59.3933 174.504 59.412 174.635 59.44L174.481 60.574C174.359 60.546 174.224 60.5227 174.075 60.504C173.925 60.4853 173.79 60.476 173.669 60.476C173.286 60.476 172.927 60.5833 172.591 60.798C172.255 61.0033 171.984 61.2973 171.779 61.68C171.583 62.0533 171.485 62.492 171.485 62.996V67H170.253V59.496H171.261L171.401 60.868H171.457C171.69 60.4573 171.998 60.1027 172.381 59.804C172.773 59.5053 173.23 59.356 173.753 59.356ZM182.178 66.132C182.365 66.132 182.556 66.118 182.752 66.09C182.948 66.062 183.107 66.0247 183.228 65.978V66.916C183.098 66.9813 182.911 67.0327 182.668 67.07C182.426 67.1167 182.192 67.14 181.968 67.14C181.576 67.14 181.212 67.0747 180.876 66.944C180.55 66.804 180.284 66.566 180.078 66.23C179.873 65.894 179.77 65.4227 179.77 64.816V60.448H178.706V59.86L179.784 59.37L180.274 57.774H181.002V59.496H183.172V60.448H181.002V64.788C181.002 65.2453 181.11 65.586 181.324 65.81C181.548 66.0247 181.833 66.132 182.178 66.132ZM191.255 63.234C191.255 64.4753 190.938 65.4367 190.303 66.118C189.678 66.7993 188.828 67.14 187.755 67.14C187.092 67.14 186.5 66.9907 185.977 66.692C185.464 66.384 185.058 65.9407 184.759 65.362C184.46 64.774 184.311 64.0647 184.311 63.234C184.311 61.9927 184.619 61.036 185.235 60.364C185.86 59.692 186.714 59.356 187.797 59.356C188.469 59.356 189.066 59.51 189.589 59.818C190.112 60.1167 190.518 60.5553 190.807 61.134C191.106 61.7033 191.255 62.4033 191.255 63.234ZM185.585 63.234C185.585 64.1207 185.758 64.8253 186.103 65.348C186.458 65.8613 187.018 66.118 187.783 66.118C188.539 66.118 189.094 65.8613 189.449 65.348C189.804 64.8253 189.981 64.1207 189.981 63.234C189.981 62.3473 189.804 61.652 189.449 61.148C189.094 60.644 188.534 60.392 187.769 60.392C187.004 60.392 186.448 60.644 186.103 61.148C185.758 61.652 185.585 62.3473 185.585 63.234ZM204.936 67H203.466L198.118 58.698H198.062C198.081 59.0247 198.104 59.4307 198.132 59.916C198.16 60.4013 198.174 60.9007 198.174 61.414V67H197.012V57.004H198.468L203.802 65.278H203.858C203.849 65.1287 203.835 64.9047 203.816 64.606C203.807 64.3073 203.793 63.9853 203.774 63.64C203.765 63.2853 203.76 62.954 203.76 62.646V57.004H204.936V67ZM210.379 59.356C211.014 59.356 211.564 59.496 212.031 59.776C212.498 60.056 212.852 60.4527 213.095 60.966C213.347 61.47 213.473 62.0627 213.473 62.744V63.486H208.335C208.354 64.3353 208.568 64.984 208.979 65.432C209.399 65.8707 209.982 66.09 210.729 66.09C211.205 66.09 211.625 66.048 211.989 65.964C212.362 65.8707 212.745 65.74 213.137 65.572V66.65C212.754 66.818 212.376 66.9393 212.003 67.014C211.63 67.098 211.186 67.14 210.673 67.14C209.954 67.14 209.324 66.9953 208.783 66.706C208.242 66.4167 207.817 65.9873 207.509 65.418C207.21 64.8487 207.061 64.144 207.061 63.304C207.061 62.4827 207.196 61.778 207.467 61.19C207.747 60.602 208.134 60.1493 208.629 59.832C209.133 59.5147 209.716 59.356 210.379 59.356ZM210.365 60.364C209.777 60.364 209.31 60.5553 208.965 60.938C208.629 61.3113 208.428 61.834 208.363 62.506H212.185C212.176 61.8713 212.026 61.358 211.737 60.966C211.448 60.5647 210.99 60.364 210.365 60.364ZM221.242 66.986L219.954 62.758C219.833 62.3753 219.725 62.002 219.632 61.638C219.539 61.274 219.473 60.9847 219.436 60.77H219.38C219.343 60.9847 219.282 61.274 219.198 61.638C219.114 62.002 219.007 62.38 218.876 62.772L217.532 66.986H216.132L214.074 59.482H215.348L216.384 63.486C216.487 63.8873 216.585 64.2933 216.678 64.704C216.771 65.1147 216.837 65.4553 216.874 65.726H216.93C216.958 65.5673 217 65.3713 217.056 65.138C217.112 64.9047 217.173 64.662 217.238 64.41C217.303 64.1487 217.369 63.9153 217.434 63.71L218.764 59.482H220.108L221.396 63.71C221.489 64.0367 221.587 64.3867 221.69 64.76C221.793 65.1333 221.863 65.4507 221.9 65.712H221.956C221.984 65.4787 222.045 65.1567 222.138 64.746C222.241 64.3353 222.348 63.9153 222.46 63.486L223.51 59.482H224.77L222.684 66.986H221.242ZM229.014 59.356C229.648 59.356 230.199 59.496 230.666 59.776C231.132 60.056 231.487 60.4527 231.73 60.966C231.982 61.47 232.108 62.0627 232.108 62.744V63.486H226.97C226.988 64.3353 227.203 64.984 227.614 65.432C228.034 65.8707 228.617 66.09 229.364 66.09C229.84 66.09 230.26 66.048 230.624 65.964C230.997 65.8707 231.38 65.74 231.772 65.572V66.65C231.389 66.818 231.011 66.9393 230.638 67.014C230.264 67.098 229.821 67.14 229.308 67.14C228.589 67.14 227.959 66.9953 227.418 66.706C226.876 66.4167 226.452 65.9873 226.144 65.418C225.845 64.8487 225.696 64.144 225.696 63.304C225.696 62.4827 225.831 61.778 226.102 61.19C226.382 60.602 226.769 60.1493 227.264 59.832C227.768 59.5147 228.351 59.356 229.014 59.356ZM229 60.364C228.412 60.364 227.945 60.5553 227.6 60.938C227.264 61.3113 227.063 61.834 226.998 62.506H230.82C230.81 61.8713 230.661 61.358 230.372 60.966C230.082 60.5647 229.625 60.364 229 60.364ZM237.518 59.356C237.658 59.356 237.807 59.3653 237.966 59.384C238.125 59.3933 238.269 59.412 238.4 59.44L238.246 60.574C238.125 60.546 237.989 60.5227 237.84 60.504C237.691 60.4853 237.555 60.476 237.434 60.476C237.051 60.476 236.692 60.5833 236.356 60.798C236.02 61.0033 235.749 61.2973 235.544 61.68C235.348 62.0533 235.25 62.492 235.25 62.996V67H234.018V59.496H235.026L235.166 60.868H235.222C235.455 60.4573 235.763 60.1027 236.146 59.804C236.538 59.5053 236.995 59.356 237.518 59.356Z" fill="black"/>
<path d="M147.282 103H145.812L140.464 94.698H140.408C140.427 95.0247 140.45 95.4307 140.478 95.916C140.506 96.4013 140.52 96.9007 140.52 97.414V103H139.358V93.004H140.814L146.148 101.278H146.204C146.195 101.129 146.181 100.905 146.162 100.606C146.153 100.307 146.139 99.9853 146.12 99.64C146.111 99.2853 146.106 98.954 146.106 98.646V93.004H147.282V103ZM152.725 95.356C153.359 95.356 153.91 95.496 154.377 95.776C154.843 96.056 155.198 96.4527 155.441 96.966C155.693 97.47 155.819 98.0627 155.819 98.744V99.486H150.681C150.699 100.335 150.914 100.984 151.325 101.432C151.745 101.871 152.328 102.09 153.075 102.09C153.551 102.09 153.971 102.048 154.335 101.964C154.708 101.871 155.091 101.74 155.483 101.572V102.65C155.1 102.818 154.722 102.939 154.349 103.014C153.975 103.098 153.532 103.14 153.019 103.14C152.3 103.14 151.67 102.995 151.129 102.706C150.587 102.417 150.163 101.987 149.855 101.418C149.556 100.849 149.407 100.144 149.407 99.304C149.407 98.4827 149.542 97.778 149.813 97.19C150.093 96.602 150.48 96.1493 150.975 95.832C151.479 95.5147 152.062 95.356 152.725 95.356ZM152.711 96.364C152.123 96.364 151.656 96.5553 151.311 96.938C150.975 97.3113 150.774 97.834 150.709 98.506H154.531C154.521 97.8713 154.372 97.358 154.083 96.966C153.793 96.5647 153.336 96.364 152.711 96.364ZM163.588 102.986L162.3 98.758C162.178 98.3753 162.071 98.002 161.978 97.638C161.884 97.274 161.819 96.9847 161.782 96.77H161.726C161.688 96.9847 161.628 97.274 161.544 97.638C161.46 98.002 161.352 98.38 161.222 98.772L159.878 102.986H158.478L156.42 95.482H157.694L158.73 99.486C158.832 99.8873 158.93 100.293 159.024 100.704C159.117 101.115 159.182 101.455 159.22 101.726H159.276C159.304 101.567 159.346 101.371 159.402 101.138C159.458 100.905 159.518 100.662 159.584 100.41C159.649 100.149 159.714 99.9153 159.78 99.71L161.11 95.482H162.454L163.742 99.71C163.835 100.037 163.933 100.387 164.036 100.76C164.138 101.133 164.208 101.451 164.246 101.712H164.302C164.33 101.479 164.39 101.157 164.484 100.746C164.586 100.335 164.694 99.9153 164.806 99.486L165.856 95.482H167.116L165.03 102.986H163.588ZM171.359 95.356C171.994 95.356 172.545 95.496 173.011 95.776C173.478 96.056 173.833 96.4527 174.075 96.966C174.327 97.47 174.453 98.0627 174.453 98.744V99.486H169.315C169.334 100.335 169.549 100.984 169.959 101.432C170.379 101.871 170.963 102.09 171.709 102.09C172.185 102.09 172.605 102.048 172.969 101.964C173.343 101.871 173.725 101.74 174.117 101.572V102.65C173.735 102.818 173.357 102.939 172.983 103.014C172.61 103.098 172.167 103.14 171.653 103.14C170.935 103.14 170.305 102.995 169.763 102.706C169.222 102.417 168.797 101.987 168.489 101.418C168.191 100.849 168.041 100.144 168.041 99.304C168.041 98.4827 168.177 97.778 168.447 97.19C168.727 96.602 169.115 96.1493 169.609 95.832C170.113 95.5147 170.697 95.356 171.359 95.356ZM171.345 96.364C170.757 96.364 170.291 96.5553 169.945 96.938C169.609 97.3113 169.409 97.834 169.343 98.506H173.165C173.156 97.8713 173.007 97.358 172.717 96.966C172.428 96.5647 171.971 96.364 171.345 96.364ZM179.864 95.356C180.004 95.356 180.153 95.3653 180.312 95.384C180.47 95.3933 180.615 95.412 180.746 95.44L180.592 96.574C180.47 96.546 180.335 96.5227 180.186 96.504C180.036 96.4853 179.901 96.476 179.78 96.476C179.397 96.476 179.038 96.5833 178.702 96.798C178.366 97.0033 178.095 97.2973 177.89 97.68C177.694 98.0533 177.596 98.492 177.596 98.996V103H176.364V95.496H177.372L177.512 96.868H177.568C177.801 96.4573 178.109 96.1027 178.492 95.804C178.884 95.5053 179.341 95.356 179.864 95.356ZM188.29 102.132C188.476 102.132 188.668 102.118 188.864 102.09C189.06 102.062 189.218 102.025 189.34 101.978V102.916C189.209 102.981 189.022 103.033 188.78 103.07C188.537 103.117 188.304 103.14 188.08 103.14C187.688 103.14 187.324 103.075 186.988 102.944C186.661 102.804 186.395 102.566 186.19 102.23C185.984 101.894 185.882 101.423 185.882 100.816V96.448H184.818V95.86L185.896 95.37L186.386 93.774H187.114V95.496H189.284V96.448H187.114V100.788C187.114 101.245 187.221 101.586 187.436 101.81C187.66 102.025 187.944 102.132 188.29 102.132ZM197.366 99.234C197.366 100.475 197.049 101.437 196.414 102.118C195.789 102.799 194.94 103.14 193.866 103.14C193.204 103.14 192.611 102.991 192.088 102.692C191.575 102.384 191.169 101.941 190.87 101.362C190.572 100.774 190.422 100.065 190.422 99.234C190.422 97.9927 190.73 97.036 191.346 96.364C191.972 95.692 192.826 95.356 193.908 95.356C194.58 95.356 195.178 95.51 195.7 95.818C196.223 96.1167 196.629 96.5553 196.918 97.134C197.217 97.7033 197.366 98.4033 197.366 99.234ZM191.696 99.234C191.696 100.121 191.869 100.825 192.214 101.348C192.569 101.861 193.129 102.118 193.894 102.118C194.65 102.118 195.206 101.861 195.56 101.348C195.915 100.825 196.092 100.121 196.092 99.234C196.092 98.3473 195.915 97.652 195.56 97.148C195.206 96.644 194.646 96.392 193.88 96.392C193.115 96.392 192.56 96.644 192.214 97.148C191.869 97.652 191.696 98.3473 191.696 99.234ZM211.846 97.988C211.846 99.024 211.668 99.9293 211.314 100.704C210.968 101.469 210.45 102.067 209.76 102.496C209.078 102.925 208.238 103.14 207.24 103.14C206.204 103.14 205.34 102.925 204.65 102.496C203.968 102.067 203.46 101.465 203.124 100.69C202.788 99.9153 202.62 99.01 202.62 97.974C202.62 96.9567 202.788 96.0653 203.124 95.3C203.46 94.5253 203.968 93.9233 204.65 93.494C205.34 93.0647 206.208 92.85 207.254 92.85C208.252 92.85 209.092 93.0647 209.774 93.494C210.455 93.914 210.968 94.5113 211.314 95.286C211.668 96.0513 211.846 96.952 211.846 97.988ZM203.95 97.988C203.95 99.248 204.216 100.242 204.748 100.97C205.28 101.689 206.11 102.048 207.24 102.048C208.369 102.048 209.195 101.689 209.718 100.97C210.25 100.242 210.516 99.248 210.516 97.988C210.516 96.728 210.254 95.7433 209.732 95.034C209.209 94.3153 208.383 93.956 207.254 93.956C206.115 93.956 205.28 94.3153 204.748 95.034C204.216 95.7433 203.95 96.728 203.95 97.988ZM215.125 103H213.893V92.36H215.125V103ZM220.163 103.14C219.229 103.14 218.483 102.818 217.923 102.174C217.363 101.521 217.083 100.55 217.083 99.262C217.083 97.974 217.363 97.0033 217.923 96.35C218.492 95.6873 219.243 95.356 220.177 95.356C220.755 95.356 221.227 95.4633 221.591 95.678C221.964 95.8927 222.267 96.154 222.501 96.462H222.585C222.566 96.3407 222.547 96.1633 222.529 95.93C222.51 95.6873 222.501 95.496 222.501 95.356V92.36H223.733V103H222.739L222.557 101.992H222.501C222.277 102.309 221.978 102.58 221.605 102.804C221.231 103.028 220.751 103.14 220.163 103.14ZM220.359 102.118C221.152 102.118 221.707 101.903 222.025 101.474C222.351 101.035 222.515 100.377 222.515 99.5V99.276C222.515 98.3427 222.361 97.6287 222.053 97.134C221.745 96.63 221.175 96.378 220.345 96.378C219.682 96.378 219.183 96.644 218.847 97.176C218.52 97.6987 218.357 98.4033 218.357 99.29C218.357 100.186 218.52 100.881 218.847 101.376C219.183 101.871 219.687 102.118 220.359 102.118ZM229.014 95.356C229.648 95.356 230.199 95.496 230.666 95.776C231.132 96.056 231.487 96.4527 231.73 96.966C231.982 97.47 232.108 98.0627 232.108 98.744V99.486H226.97C226.988 100.335 227.203 100.984 227.614 101.432C228.034 101.871 228.617 102.09 229.364 102.09C229.84 102.09 230.26 102.048 230.624 101.964C230.997 101.871 231.38 101.74 231.772 101.572V102.65C231.389 102.818 231.011 102.939 230.638 103.014C230.264 103.098 229.821 103.14 229.308 103.14C228.589 103.14 227.959 102.995 227.418 102.706C226.876 102.417 226.452 101.987 226.144 101.418C225.845 100.849 225.696 100.144 225.696 99.304C225.696 98.4827 225.831 97.778 226.102 97.19C226.382 96.602 226.769 96.1493 227.264 95.832C227.768 95.5147 228.351 95.356 229.014 95.356ZM229 96.364C228.412 96.364 227.945 96.5553 227.6 96.938C227.264 97.3113 227.063 97.834 226.998 98.506H230.82C230.81 97.8713 230.661 97.358 230.372 96.966C230.082 96.5647 229.625 96.364 229 96.364ZM237.518 95.356C237.658 95.356 237.807 95.3653 237.966 95.384C238.125 95.3933 238.269 95.412 238.4 95.44L238.246 96.574C238.125 96.546 237.989 96.5227 237.84 96.504C237.691 96.4853 237.555 96.476 237.434 96.476C237.051 96.476 236.692 96.5833 236.356 96.798C236.02 97.0033 235.749 97.2973 235.544 97.68C235.348 98.0533 235.25 98.492 235.25 98.996V103H234.018V95.496H235.026L235.166 96.868H235.222C235.455 96.4573 235.763 96.1027 236.146 95.804C236.538 95.5053 236.995 95.356 237.518 95.356Z" fill="black"/>
<line x1="130" y1="115.5" x2="280" y2="115.5" stroke="#C9C9C9"/>
<path d="M140.618 139H139.358V129.004H144.944V130.11H140.618V133.652H144.678V134.758H140.618V139ZM147.08 128.682C147.266 128.682 147.43 128.747 147.57 128.878C147.719 128.999 147.794 129.195 147.794 129.466C147.794 129.737 147.719 129.937 147.57 130.068C147.43 130.189 147.266 130.25 147.08 130.25C146.874 130.25 146.702 130.189 146.562 130.068C146.422 129.937 146.352 129.737 146.352 129.466C146.352 129.195 146.422 128.999 146.562 128.878C146.702 128.747 146.874 128.682 147.08 128.682ZM147.682 131.496V139H146.45V131.496H147.682ZM151.291 139H150.059V128.36H151.291V139ZM156.175 138.132C156.361 138.132 156.553 138.118 156.749 138.09C156.945 138.062 157.103 138.025 157.225 137.978V138.916C157.094 138.981 156.907 139.033 156.665 139.07C156.422 139.117 156.189 139.14 155.965 139.14C155.573 139.14 155.209 139.075 154.873 138.944C154.546 138.804 154.28 138.566 154.075 138.23C153.869 137.894 153.767 137.423 153.767 136.816V132.448H152.703V131.86L153.781 131.37L154.271 129.774H154.999V131.496H157.169V132.448H154.999V136.788C154.999 137.245 155.106 137.586 155.321 137.81C155.545 138.025 155.829 138.132 156.175 138.132ZM161.625 131.356C162.26 131.356 162.81 131.496 163.277 131.776C163.744 132.056 164.098 132.453 164.341 132.966C164.593 133.47 164.719 134.063 164.719 134.744V135.486H159.581C159.6 136.335 159.814 136.984 160.225 137.432C160.645 137.871 161.228 138.09 161.975 138.09C162.451 138.09 162.871 138.048 163.235 137.964C163.608 137.871 163.991 137.74 164.383 137.572V138.65C164 138.818 163.622 138.939 163.249 139.014C162.876 139.098 162.432 139.14 161.919 139.14C161.2 139.14 160.57 138.995 160.029 138.706C159.488 138.417 159.063 137.987 158.755 137.418C158.456 136.849 158.307 136.144 158.307 135.304C158.307 134.483 158.442 133.778 158.713 133.19C158.993 132.602 159.38 132.149 159.875 131.832C160.379 131.515 160.962 131.356 161.625 131.356ZM161.611 132.364C161.023 132.364 160.556 132.555 160.211 132.938C159.875 133.311 159.674 133.834 159.609 134.506H163.431C163.422 133.871 163.272 133.358 162.983 132.966C162.694 132.565 162.236 132.364 161.611 132.364ZM170.129 131.356C170.269 131.356 170.419 131.365 170.577 131.384C170.736 131.393 170.881 131.412 171.011 131.44L170.857 132.574C170.736 132.546 170.601 132.523 170.451 132.504C170.302 132.485 170.167 132.476 170.045 132.476C169.663 132.476 169.303 132.583 168.967 132.798C168.631 133.003 168.361 133.297 168.155 133.68C167.959 134.053 167.861 134.492 167.861 134.996V139H166.629V131.496H167.637L167.777 132.868H167.833C168.067 132.457 168.375 132.103 168.757 131.804C169.149 131.505 169.607 131.356 170.129 131.356Z" fill="black"/>
</g>
<rect x="129.5" y="43.5" width="151" height="109" rx="4.5" stroke="black" stroke-opacity="0.15"/>
</g>
<g filter="url(#filter1_d_9152_125912)">
<mask id="path-36-outside-1_9152_125912" maskUnits="userSpaceOnUse" x="247" y="53" width="16" height="19" fill="black">
<rect fill="white" x="247" y="53" width="16" height="19"/>
<path fill-rule="evenodd" clip-rule="evenodd" d="M251.836 64L250.949 62.6453C250.344 61.7203 249.054 61.3829 248.068 61.89L248.298 61.7718C248.053 61.8977 247.935 62.2114 248.036 62.4721L249.263 65.6474C249.458 66.1508 249.955 66.8627 250.367 67.2203C250.367 67.2203 252.836 69.2639 252.836 70.03V71H256.836L257.836 69L258.836 71H259.836V70.03C259.836 69.2639 261.344 66.8507 261.344 66.8507C261.622 66.3816 261.854 65.5552 261.854 65.0066V60.9718C261.836 60.0785 261.076 59.3545 260.139 59.3545C259.671 59.3545 259.291 59.7165 259.291 60.1634V60.4866C259.291 59.5933 258.532 58.8693 257.595 58.8693C257.126 58.8693 256.746 59.2313 256.746 59.6782V60.0013C256.746 59.108 255.987 58.3841 255.05 58.3841C254.581 58.3841 254.201 58.7461 254.201 59.193V59.5161C254.201 59.3726 254.186 59.2584 254.157 59.168L253.898 55.0012C253.863 54.4378 253.388 54 252.836 54C252.279 54 251.836 54.4476 251.836 54.9998V59V64ZM258.854 63H259.854V67H258.854V63ZM256.854 63H257.854V67H256.854V63ZM254.854 63H255.854V67H254.854V63Z"/>
</mask>
<path fill-rule="evenodd" clip-rule="evenodd" d="M251.836 64L250.949 62.6453C250.344 61.7203 249.054 61.3829 248.068 61.89L248.298 61.7718C248.053 61.8977 247.935 62.2114 248.036 62.4721L249.263 65.6474C249.458 66.1508 249.955 66.8627 250.367 67.2203C250.367 67.2203 252.836 69.2639 252.836 70.03V71H256.836L257.836 69L258.836 71H259.836V70.03C259.836 69.2639 261.344 66.8507 261.344 66.8507C261.622 66.3816 261.854 65.5552 261.854 65.0066V60.9718C261.836 60.0785 261.076 59.3545 260.139 59.3545C259.671 59.3545 259.291 59.7165 259.291 60.1634V60.4866C259.291 59.5933 258.532 58.8693 257.595 58.8693C257.126 58.8693 256.746 59.2313 256.746 59.6782V60.0013C256.746 59.108 255.987 58.3841 255.05 58.3841C254.581 58.3841 254.201 58.7461 254.201 59.193V59.5161C254.201 59.3726 254.186 59.2584 254.157 59.168L253.898 55.0012C253.863 54.4378 253.388 54 252.836 54C252.279 54 251.836 54.4476 251.836 54.9998V59V64ZM258.854 63H259.854V67H258.854V63ZM256.854 63H257.854V67H256.854V63ZM254.854 63H255.854V67H254.854V63Z" fill="white"/>
<path d="M251.836 64L250.999 64.5476L252.836 67.354V64H251.836ZM250.949 62.6453L251.786 62.0977L250.949 62.6453ZM248.036 62.4721L247.103 62.8327L248.036 62.4721ZM249.263 65.6474L250.196 65.2869L249.263 65.6474ZM250.367 67.2203L249.711 67.9753L249.72 67.9831L249.729 67.9907L250.367 67.2203ZM252.836 71H251.836V72H252.836V71ZM256.836 71V72H257.454L257.73 71.4472L256.836 71ZM257.836 69L258.73 68.5528L257.836 66.7639L256.941 68.5528L257.836 69ZM258.836 71L257.941 71.4472L258.218 72H258.836V71ZM259.836 71V72H260.836V71H259.836ZM261.344 66.8507L262.192 67.3808L262.199 67.3706L262.205 67.3602L261.344 66.8507ZM261.854 60.9718H262.854V60.9617L262.853 60.9516L261.854 60.9718ZM254.157 59.168L253.158 59.23L253.166 59.3578L253.206 59.4795L254.157 59.168ZM253.898 55.0012L252.9 55.0632V55.0632L253.898 55.0012ZM251.836 54.9998H250.836H251.836ZM259.854 63H260.854V62H259.854V63ZM259.854 67V68H260.854V67H259.854ZM258.854 67H257.854V68H258.854V67ZM258.854 63V62H257.854V63H258.854ZM257.854 63H258.854V62H257.854V63ZM257.854 67V68H258.854V67H257.854ZM256.854 67H255.854V68H256.854V67ZM256.854 63V62H255.854V63H256.854ZM255.854 63H256.854V62H255.854V63ZM255.854 67V68H256.854V67H255.854ZM254.854 67H253.854V68H254.854V67ZM254.854 63V62H253.854V63H254.854ZM252.672 63.4524L251.786 62.0977L250.112 63.193L250.999 64.5476L252.672 63.4524ZM251.786 62.0977C250.898 60.7415 249.049 60.2611 247.61 61.0006L248.525 62.7793C249.059 62.5047 249.789 62.6992 250.112 63.193L251.786 62.0977ZM248.525 62.7793L248.755 62.6612L247.84 60.8825L247.61 61.0006L248.525 62.7793ZM247.84 60.8825C247.131 61.2471 246.822 62.1052 247.103 62.8327L248.969 62.1116C249.014 62.2295 249.005 62.3396 248.974 62.4213C248.944 62.5027 248.876 62.5986 248.755 62.6612L247.84 60.8825ZM247.103 62.8327L248.331 66.0079L250.196 65.2869L248.969 62.1116L247.103 62.8327ZM248.331 66.0079C248.583 66.6618 249.175 67.5096 249.711 67.9753L251.022 66.4653C250.735 66.2158 250.333 65.6398 250.196 65.2869L248.331 66.0079ZM250.367 67.2203C249.729 67.9907 249.729 67.9906 249.729 67.9906C249.729 67.9906 249.729 67.9905 249.729 67.9905C249.729 67.9905 249.729 67.9905 249.729 67.9906C249.729 67.9907 249.729 67.9909 249.73 67.9912C249.73 67.9919 249.732 67.993 249.734 67.9947C249.738 67.9979 249.744 68.003 249.752 68.0099C249.768 68.0237 249.793 68.0445 249.825 68.0716C249.889 68.1259 249.981 68.205 250.092 68.3025C250.315 68.4985 250.609 68.7648 250.9 69.051C251.196 69.3416 251.468 69.6324 251.659 69.8795C251.755 70.0037 251.813 70.0948 251.843 70.1524C251.884 70.23 251.836 70.1741 251.836 70.03H253.836C253.836 69.6944 253.71 69.407 253.616 69.2262C253.511 69.0255 253.376 68.8312 253.241 68.6561C252.969 68.3045 252.624 67.9407 252.302 67.6247C251.976 67.3042 251.653 67.0118 251.413 66.8007C251.292 66.6947 251.191 66.6081 251.12 66.5476C251.085 66.5174 251.056 66.4935 251.037 66.477C251.027 66.4687 251.019 66.4623 251.014 66.4577C251.011 66.4555 251.009 66.4537 251.007 66.4524C251.006 66.4517 251.006 66.4512 251.005 66.4508C251.005 66.4506 251.005 66.4504 251.005 66.4503C251.005 66.4502 251.004 66.4501 251.004 66.4501C251.004 66.45 251.004 66.45 250.367 67.2203ZM251.836 70.03V71H253.836V70.03H251.836ZM252.836 72H256.836V70H252.836V72ZM257.73 71.4472L258.73 69.4472L256.941 68.5528L255.941 70.5528L257.73 71.4472ZM256.941 69.4472L257.941 71.4472L259.73 70.5528L258.73 68.5528L256.941 69.4472ZM258.836 72H259.836V70H258.836V72ZM260.836 71V70.03H258.836V71H260.836ZM260.836 70.03C260.836 70.0658 260.846 69.9439 260.992 69.6C261.116 69.3073 261.288 68.9649 261.47 68.6279C261.65 68.2941 261.831 67.9809 261.968 67.7503C262.037 67.6354 262.093 67.5418 262.133 67.4775C262.152 67.4453 262.168 67.4206 262.178 67.4041C262.183 67.3959 262.187 67.3897 262.189 67.3858C262.19 67.3839 262.191 67.3825 262.192 67.3816C262.192 67.3812 262.192 67.3809 262.192 67.3808C262.192 67.3807 262.192 67.3807 262.192 67.3807C262.192 67.3807 262.192 67.3807 262.192 67.3807C262.192 67.3808 262.192 67.3808 261.344 66.8507C260.496 66.3205 260.496 66.3206 260.496 66.3207C260.496 66.3207 260.496 66.3208 260.496 66.3209C260.496 66.321 260.496 66.3212 260.496 66.3214C260.496 66.3219 260.495 66.3225 260.495 66.3232C260.494 66.3247 260.493 66.3268 260.491 66.3294C260.488 66.3347 260.483 66.3422 260.477 66.3518C260.465 66.3711 260.448 66.3989 260.426 66.4342C260.383 66.5049 260.322 66.6059 260.249 66.7291C260.103 66.9749 259.907 67.3129 259.71 67.6782C259.515 68.0402 259.309 68.4448 259.15 68.82C259.013 69.1441 258.836 69.6111 258.836 70.03H260.836ZM262.205 67.3602C262.403 67.0261 262.559 66.6131 262.667 66.2258C262.774 65.839 262.854 65.4009 262.854 65.0066H260.854C260.854 65.161 260.817 65.4103 260.74 65.6912C260.662 65.9714 260.564 66.2061 260.484 66.3412L262.205 67.3602ZM262.854 65.0066V60.9718H260.854V65.0066H262.854ZM262.853 60.9516C262.824 59.4818 261.588 58.3545 260.139 58.3545V60.3545C260.565 60.3545 260.847 60.6752 260.854 60.992L262.853 60.9516ZM260.139 58.3545C259.164 58.3545 258.291 59.1198 258.291 60.1634H260.291C260.291 60.2317 260.26 60.2858 260.229 60.3152C260.199 60.3437 260.165 60.3545 260.139 60.3545V58.3545ZM258.291 60.1634V60.4866H260.291V60.1634H258.291ZM260.291 60.4866C260.291 58.9966 259.038 57.8693 257.595 57.8693V59.8693C258.025 59.8693 258.291 60.19 258.291 60.4866H260.291ZM257.595 57.8693C256.619 57.8693 255.746 58.6346 255.746 59.6782H257.746C257.746 59.7465 257.715 59.8005 257.685 59.8299C257.655 59.8585 257.621 59.8693 257.595 59.8693V57.8693ZM255.746 59.6782V60.0013H257.746V59.6782H255.746ZM257.746 60.0013C257.746 58.5113 256.494 57.3841 255.05 57.3841V59.3841C255.48 59.3841 255.746 59.7047 255.746 60.0013H257.746ZM255.05 57.3841C254.074 57.3841 253.201 58.1494 253.201 59.193H255.201C255.201 59.2613 255.171 59.3153 255.14 59.3447C255.11 59.3733 255.076 59.3841 255.05 59.3841V57.3841ZM253.201 59.193V59.5161H255.201V59.193H253.201ZM255.201 59.5161C255.201 59.3088 255.18 59.0809 255.107 58.8565L253.206 59.4795C253.198 59.4555 253.198 59.4444 253.199 59.4516C253.199 59.4587 253.201 59.4791 253.201 59.5161H255.201ZM255.155 59.106L254.896 54.9392L252.9 55.0632L253.158 59.23L255.155 59.106ZM254.896 54.9392C254.828 53.845 253.912 53 252.836 53V55C252.844 55 252.86 55.0035 252.877 55.0193C252.893 55.0344 252.899 55.0498 252.9 55.0632L254.896 54.9392ZM252.836 53C251.725 53 250.836 53.8977 250.836 54.9998H252.836V55V53ZM250.836 54.9998V59H252.836V54.9998H250.836ZM250.836 59V64H252.836V59H250.836ZM258.854 64H259.854V62H258.854V64ZM258.854 63V67H260.854V63H258.854ZM259.854 66H258.854V68H259.854V66ZM259.854 67V63H257.854V67H259.854ZM256.854 64H257.854V62H256.854V64ZM256.854 63V67H258.854V63H256.854ZM257.854 66H256.854V68H257.854V66ZM257.854 67V63H255.854V67H257.854ZM254.854 64H255.854V62H254.854V64ZM254.854 63V67H256.854V63H254.854ZM255.854 66H254.854V68H255.854V66ZM255.854 67V63H253.854V67H255.854Z" fill="black" fill-opacity="0.8" mask="url(#path-36-outside-1_9152_125912)"/>
</g>
<defs>
<filter id="filter0_d_9152_125912" x="125" y="43" width="160" height="118" filterUnits="userSpaceOnUse" color-interpolation-filters="sRGB">
<feFlood flood-opacity="0" result="BackgroundImageFix"/>
<feColorMatrix in="SourceAlpha" type="matrix" values="0 0 0 0 0 0 0 0 0 0 0 0 0 0 0 0 0 0 127 0" result="hardAlpha"/>
<feOffset dy="4"/>
<feGaussianBlur stdDeviation="2"/>
<feColorMatrix type="matrix" values="0 0 0 0 0 0 0 0 0 0 0 0 0 0 0 0 0 0 0.25 0"/>
<feBlend mode="normal" in2="BackgroundImageFix" result="effect1_dropShadow_9152_125912"/>
<feBlend mode="normal" in="SourceGraphic" in2="effect1_dropShadow_9152_125912" result="shape"/>
</filter>
<filter id="filter1_d_9152_125912" x="244" y="51" width="21.8535" height="25" filterUnits="userSpaceOnUse" color-interpolation-filters="sRGB">
<feFlood flood-opacity="0" result="BackgroundImageFix"/>
<feColorMatrix in="SourceAlpha" type="matrix" values="0 0 0 0 0 0 0 0 0 0 0 0 0 0 0 0 0 0 127 0" result="hardAlpha"/>
<feOffset dy="1"/>
<feGaussianBlur stdDeviation="1.5"/>
<feColorMatrix type="matrix" values="0 0 0 0 0 0 0 0 0 0 0 0 0 0 0 0 0 0 0.2 0"/>
<feBlend mode="normal" in2="BackgroundImageFix" result="effect1_dropShadow_9152_125912"/>
<feBlend mode="normal" in="SourceGraphic" in2="effect1_dropShadow_9152_125912" result="shape"/>
</filter>
<clipPath id="clip0_9152_125912">
<rect width="32" height="44" fill="white" transform="translate(280)"/>
</clipPath>
<clipPath id="clip1_9152_125912">
<rect width="32" height="44" fill="white" transform="translate(280 44)"/>
</clipPath>
<clipPath id="clip2_9152_125912">
<rect width="32" height="44" fill="white" transform="translate(280 88)"/>
</clipPath>
<clipPath id="clip3_9152_125912">
<rect width="32" height="44" fill="white" transform="translate(280 132)"/>
</clipPath>
<clipPath id="clip4_9152_125912">
<rect width="32" height="44" fill="white" transform="translate(280 176)"/>
</clipPath>
<clipPath id="clip5_9152_125912">
<rect x="130" y="44" width="150" height="108" rx="4" fill="white"/>
</clipPath>
</defs>
</svg>
