<svg width="428" height="220" viewBox="0 0 428 220" fill="none" xmlns="http://www.w3.org/2000/svg">
<rect width="428" height="220" fill="white"/>
<g clip-path="url(#clip0_8507_527436)">
<rect width="16" height="44" transform="translate(45)" fill="white"/>
<line x1="45" y1="0.5" x2="61" y2="0.500001" stroke="#C9C9C9"/>
<line x1="45" y1="43.5" x2="61" y2="43.5" stroke="#C9C9C9"/>
</g>
<g clip-path="url(#clip1_8507_527436)">
<rect width="16" height="44" transform="translate(45 44)" fill="white"/>
<line x1="45" y1="87.5" x2="61" y2="87.5" stroke="#F1F1F1"/>
</g>
<g clip-path="url(#clip2_8507_527436)">
<rect width="16" height="44" transform="translate(45 88)" fill="white"/>
<line x1="45" y1="131.5" x2="61" y2="131.5" stroke="#F1F1F1"/>
</g>
<g clip-path="url(#clip3_8507_527436)">
<rect width="16" height="44" transform="translate(45 132)" fill="white"/>
<line x1="45" y1="175.5" x2="61" y2="175.5" stroke="#F1F1F1"/>
</g>
<g clip-path="url(#clip4_8507_527436)">
<rect width="16" height="44" transform="translate(45 176)" fill="white"/>
<line x1="45" y1="219.5" x2="61" y2="219.5" stroke="#F1F1F1"/>
</g>
<rect width="200" height="44" transform="translate(61)" fill="#F1F1F1"/>
<path d="M82.558 18.376C81.6527 18.376 80.948 18.7027 80.444 19.356C79.94 20 79.688 20.8867 79.688 22.016C79.688 23.1547 79.9213 24.0413 80.388 24.676C80.8547 25.3107 81.5733 25.628 82.544 25.628C82.964 25.628 83.3747 25.586 83.776 25.502C84.1867 25.4087 84.6067 25.2873 85.036 25.138V26.664C84.6253 26.832 84.21 26.9533 83.79 27.028C83.3793 27.1027 82.9033 27.14 82.362 27.14C81.3353 27.14 80.486 26.93 79.814 26.51C79.142 26.0807 78.6427 25.4833 78.316 24.718C77.9893 23.9433 77.826 23.038 77.826 22.002C77.826 20.994 78.008 20.1073 78.372 19.342C78.736 18.5673 79.268 17.9607 79.968 17.522C80.6773 17.0833 81.5407 16.864 82.558 16.864C83.062 16.864 83.5567 16.92 84.042 17.032C84.5367 17.144 84.9987 17.3073 85.428 17.522L84.812 18.992C84.4573 18.8333 84.0887 18.6933 83.706 18.572C83.3327 18.4413 82.95 18.376 82.558 18.376ZM93.7547 19.412V27H92.3687L92.1307 26.02H92.0467C91.8041 26.412 91.4681 26.6967 91.0387 26.874C90.6094 27.0513 90.1567 27.14 89.6807 27.14C88.8314 27.14 88.1641 26.9207 87.6787 26.482C87.2027 26.0433 86.9647 25.3387 86.9647 24.368V19.412H88.7287V24.018C88.7287 24.5873 88.8407 25.012 89.0647 25.292C89.2887 25.572 89.6434 25.712 90.1287 25.712C90.8381 25.712 91.3234 25.488 91.5847 25.04C91.8554 24.592 91.9907 23.9527 91.9907 23.122V19.412H93.7547ZM101.169 24.802C101.169 25.5673 100.894 26.1507 100.343 26.552C99.8018 26.944 99.0225 27.14 98.0051 27.14C97.4731 27.14 97.0158 27.1027 96.6331 27.028C96.2598 26.9533 95.8958 26.8367 95.5411 26.678V25.18C95.9145 25.3573 96.3251 25.5067 96.7731 25.628C97.2305 25.7493 97.6598 25.81 98.0611 25.81C98.5465 25.81 98.8965 25.7353 99.1111 25.586C99.3258 25.4367 99.4331 25.236 99.4331 24.984C99.4331 24.8347 99.3911 24.704 99.3071 24.592C99.2231 24.4707 99.0598 24.34 98.8171 24.2C98.5745 24.06 98.2058 23.8873 97.7111 23.682C97.2258 23.486 96.8198 23.29 96.4931 23.094C96.1758 22.898 95.9331 22.6647 95.7651 22.394C95.6065 22.1233 95.5271 21.7733 95.5271 21.344C95.5271 20.6627 95.7978 20.1493 96.3391 19.804C96.8805 19.4493 97.5945 19.272 98.4811 19.272C98.9478 19.272 99.3865 19.3187 99.7971 19.412C100.217 19.5053 100.637 19.6453 101.057 19.832L100.497 21.134C100.142 20.9847 99.7971 20.8587 99.4611 20.756C99.1251 20.6533 98.7798 20.602 98.4251 20.602C97.6505 20.602 97.2631 20.8213 97.2631 21.26C97.2631 21.4187 97.3098 21.554 97.4031 21.666C97.5058 21.778 97.6785 21.8993 97.9211 22.03C98.1731 22.1513 98.5278 22.3007 98.9851 22.478C99.4331 22.6553 99.8205 22.842 100.147 23.038C100.474 23.2247 100.726 23.458 100.903 23.738C101.08 24.0087 101.169 24.3633 101.169 24.802ZM105.806 25.726C106.021 25.726 106.231 25.7073 106.436 25.67C106.651 25.6233 106.847 25.572 107.024 25.516V26.832C106.838 26.9253 106.595 27 106.296 27.056C105.998 27.112 105.685 27.14 105.358 27.14C104.92 27.14 104.523 27.07 104.168 26.93C103.823 26.79 103.548 26.5427 103.342 26.188C103.137 25.8333 103.034 25.334 103.034 24.69V20.742H102.012V19.972L103.132 19.356L103.692 17.746H104.798V19.412H106.954V20.742H104.798V24.676C104.798 25.0307 104.892 25.2967 105.078 25.474C105.274 25.642 105.517 25.726 105.806 25.726ZM115.33 23.192C115.33 24.452 115.003 25.4273 114.35 26.118C113.697 26.7993 112.81 27.14 111.69 27.14C110.999 27.14 110.383 26.986 109.842 26.678C109.301 26.37 108.876 25.922 108.568 25.334C108.26 24.746 108.106 24.032 108.106 23.192C108.106 21.932 108.428 20.966 109.072 20.294C109.725 19.6127 110.612 19.272 111.732 19.272C112.432 19.272 113.053 19.426 113.594 19.734C114.135 20.0327 114.56 20.476 114.868 21.064C115.176 21.6427 115.33 22.352 115.33 23.192ZM109.912 23.192C109.912 23.9947 110.052 24.6153 110.332 25.054C110.621 25.4927 111.083 25.712 111.718 25.712C112.343 25.712 112.801 25.4927 113.09 25.054C113.379 24.6153 113.524 23.9947 113.524 23.192C113.524 22.3893 113.379 21.7733 113.09 21.344C112.801 20.9147 112.339 20.7 111.704 20.7C111.069 20.7 110.612 20.9147 110.332 21.344C110.052 21.7733 109.912 22.3893 109.912 23.192ZM125.848 19.272C126.706 19.272 127.35 19.4913 127.78 19.93C128.218 20.3687 128.438 21.078 128.438 22.058V27H126.674V22.394C126.674 21.2647 126.244 20.7 125.386 20.7C124.77 20.7 124.331 20.9007 124.07 21.302C123.808 21.7033 123.678 22.2867 123.678 23.052V27H121.914V22.394C121.914 21.2647 121.48 20.7 120.612 20.7C119.968 20.7 119.524 20.924 119.282 21.372C119.039 21.82 118.918 22.4593 118.918 23.29V27H117.154V19.412H118.512L118.764 20.406H118.862C119.095 20.014 119.412 19.7293 119.814 19.552C120.215 19.3653 120.635 19.272 121.074 19.272C121.643 19.272 122.119 19.3653 122.502 19.552C122.894 19.7387 123.192 20.0373 123.398 20.448H123.538C123.771 20.0373 124.098 19.7387 124.518 19.552C124.938 19.3653 125.381 19.272 125.848 19.272ZM133.7 19.272C134.717 19.272 135.52 19.5753 136.108 20.182C136.705 20.7887 137.004 21.6333 137.004 22.716V23.612H131.992C132.01 24.3027 132.202 24.8393 132.566 25.222C132.93 25.5953 133.434 25.782 134.078 25.782C134.563 25.782 135.002 25.7353 135.394 25.642C135.786 25.5393 136.187 25.3947 136.598 25.208V26.622C136.224 26.7993 135.837 26.93 135.436 27.014C135.034 27.098 134.554 27.14 133.994 27.14C133.247 27.14 132.589 27 132.02 26.72C131.45 26.4307 131.002 26.0013 130.676 25.432C130.358 24.8533 130.2 24.13 130.2 23.262C130.2 21.9647 130.517 20.9753 131.152 20.294C131.796 19.6127 132.645 19.272 133.7 19.272ZM133.7 20.574C133.224 20.574 132.836 20.728 132.538 21.036C132.248 21.3347 132.08 21.7827 132.034 22.38H135.296C135.286 21.8573 135.151 21.428 134.89 21.092C134.638 20.7467 134.241 20.574 133.7 20.574ZM142.758 19.272C142.88 19.272 143.015 19.2813 143.164 19.3C143.314 19.3093 143.435 19.3233 143.528 19.342L143.374 20.98C143.281 20.9613 143.164 20.9473 143.024 20.938C142.894 20.9193 142.782 20.91 142.688 20.91C142.315 20.91 141.965 20.9893 141.638 21.148C141.312 21.2973 141.046 21.5307 140.84 21.848C140.644 22.1653 140.546 22.5713 140.546 23.066V27H138.782V19.412H140.14L140.392 20.728H140.476C140.7 20.3267 141.008 19.986 141.4 19.706C141.792 19.4167 142.245 19.272 142.758 19.272ZM157.238 27H155.012L150.28 19.16H150.224C150.242 19.58 150.261 20.0327 150.28 20.518C150.308 20.994 150.331 21.4747 150.35 21.96V27H148.74V17.004H150.952L155.669 24.788H155.712C155.702 24.4147 155.684 23.9853 155.656 23.5C155.637 23.0147 155.623 22.5433 155.614 22.086V17.004H157.238V27ZM162.697 19.272C163.677 19.272 164.419 19.4867 164.923 19.916C165.436 20.3453 165.693 21.008 165.693 21.904V27H164.447L164.097 25.95H164.041C163.714 26.3607 163.369 26.664 163.005 26.86C162.641 27.0467 162.146 27.14 161.521 27.14C160.84 27.14 160.275 26.9487 159.827 26.566C159.379 26.1833 159.155 25.5907 159.155 24.788C159.155 24.004 159.44 23.416 160.009 23.024C160.588 22.632 161.46 22.4127 162.627 22.366L163.943 22.324V21.946C163.943 21.4607 163.826 21.1153 163.593 20.91C163.36 20.7047 163.033 20.602 162.613 20.602C162.23 20.602 161.862 20.658 161.507 20.77C161.162 20.8727 160.816 21.0033 160.471 21.162L159.911 19.93C160.284 19.734 160.709 19.5753 161.185 19.454C161.67 19.3327 162.174 19.272 162.697 19.272ZM163.943 23.416L163.019 23.444C162.244 23.472 161.708 23.6073 161.409 23.85C161.11 24.0833 160.961 24.4007 160.961 24.802C160.961 25.166 161.064 25.4273 161.269 25.586C161.484 25.7353 161.764 25.81 162.109 25.81C162.622 25.81 163.056 25.6653 163.411 25.376C163.766 25.0773 163.943 24.6387 163.943 24.06V23.416ZM176.598 19.272C177.456 19.272 178.1 19.4913 178.53 19.93C178.968 20.3687 179.188 21.078 179.188 22.058V27H177.424V22.394C177.424 21.2647 176.994 20.7 176.136 20.7C175.52 20.7 175.081 20.9007 174.82 21.302C174.558 21.7033 174.428 22.2867 174.428 23.052V27H172.664V22.394C172.664 21.2647 172.23 20.7 171.362 20.7C170.718 20.7 170.274 20.924 170.032 21.372C169.789 21.82 169.668 22.4593 169.668 23.29V27H167.904V19.412H169.262L169.514 20.406H169.612C169.845 20.014 170.162 19.7293 170.564 19.552C170.965 19.3653 171.385 19.272 171.824 19.272C172.393 19.272 172.869 19.3653 173.252 19.552C173.644 19.7387 173.942 20.0373 174.148 20.448H174.288C174.521 20.0373 174.848 19.7387 175.268 19.552C175.688 19.3653 176.131 19.272 176.598 19.272ZM184.45 19.272C185.467 19.272 186.27 19.5753 186.858 20.182C187.455 20.7887 187.754 21.6333 187.754 22.716V23.612H182.742C182.76 24.3027 182.952 24.8393 183.316 25.222C183.68 25.5953 184.184 25.782 184.828 25.782C185.313 25.782 185.752 25.7353 186.144 25.642C186.536 25.5393 186.937 25.3947 187.348 25.208V26.622C186.974 26.7993 186.587 26.93 186.186 27.014C185.784 27.098 185.304 27.14 184.744 27.14C183.997 27.14 183.339 27 182.77 26.72C182.2 26.4307 181.752 26.0013 181.426 25.432C181.108 24.8533 180.95 24.13 180.95 23.262C180.95 21.9647 181.267 20.9753 181.902 20.294C182.546 19.6127 183.395 19.272 184.45 19.272ZM184.45 20.574C183.974 20.574 183.586 20.728 183.288 21.036C182.998 21.3347 182.83 21.7827 182.784 22.38H186.046C186.036 21.8573 185.901 21.428 185.64 21.092C185.388 20.7467 184.991 20.574 184.45 20.574Z" fill="black"/>
<path d="M210.613 25.3625C210.512 25.3625 210.413 25.3125 210.363 25.2625L205.012 19.9125L199.662 25.2625C199.512 25.4125 199.263 25.4125 199.113 25.2625C198.962 25.1125 198.962 24.8625 199.113 24.7125L204.712 19.1125C204.862 18.9625 205.112 18.9625 205.262 19.1125L210.863 24.7125C211.012 24.8625 211.012 25.1125 210.863 25.2625C210.812 25.3125 210.713 25.3625 210.613 25.3625Z" fill="#323232"/>
<line x1="61" y1="0.5" x2="261" y2="0.500017" stroke="#C9C9C9"/>
<line x1="61" y1="43.5" x2="261" y2="43.5" stroke="#C9C9C9"/>
<rect width="200" height="44" transform="translate(61 44)" fill="white"/>
<path d="M81.522 71H80.262V62.11H77.14V61.004H84.63V62.11H81.522V71ZM86.5993 60.682C86.786 60.682 86.9493 60.7473 87.0893 60.878C87.2386 60.9993 87.3133 61.1953 87.3133 61.466C87.3133 61.7367 87.2386 61.9373 87.0893 62.068C86.9493 62.1893 86.786 62.25 86.5993 62.25C86.394 62.25 86.2213 62.1893 86.0813 62.068C85.9413 61.9373 85.8713 61.7367 85.8713 61.466C85.8713 61.1953 85.9413 60.9993 86.0813 60.878C86.2213 60.7473 86.394 60.682 86.5993 60.682ZM87.2013 63.496V71H85.9693V63.496H87.2013ZM97.8107 63.356C98.66 63.356 99.2947 63.5753 99.7147 64.014C100.135 64.4527 100.345 65.1527 100.345 66.114V71H99.1267V66.17C99.1267 64.9847 98.618 64.392 97.6007 64.392C96.8727 64.392 96.35 64.602 96.0327 65.022C95.7247 65.442 95.5707 66.0533 95.5707 66.856V71H94.3527V66.17C94.3527 64.9847 93.8393 64.392 92.8127 64.392C92.0567 64.392 91.534 64.6253 91.2447 65.092C90.9553 65.5587 90.8107 66.2307 90.8107 67.108V71H89.5787V63.496H90.5727L90.7547 64.518H90.8247C91.058 64.126 91.3707 63.8367 91.7627 63.65C92.164 63.454 92.5887 63.356 93.0367 63.356C94.2127 63.356 94.978 63.776 95.3327 64.616H95.4027C95.6547 64.1867 95.9953 63.8693 96.4247 63.664C96.854 63.4587 97.316 63.356 97.8107 63.356ZM109.225 61.004C110.467 61.004 111.381 61.242 111.969 61.718C112.567 62.1847 112.865 62.894 112.865 63.846C112.865 64.378 112.767 64.8213 112.571 65.176C112.375 65.5307 112.123 65.8153 111.815 66.03C111.517 66.2447 111.199 66.408 110.863 66.52L113.607 71H112.137L109.715 66.87H107.727V71H106.467V61.004H109.225ZM109.155 62.096H107.727V65.806H109.225C110.037 65.806 110.63 65.6473 111.003 65.33C111.377 65.0033 111.563 64.5273 111.563 63.902C111.563 63.2487 111.367 62.7867 110.975 62.516C110.583 62.236 109.977 62.096 109.155 62.096ZM117.906 63.356C118.541 63.356 119.092 63.496 119.558 63.776C120.025 64.056 120.38 64.4527 120.622 64.966C120.874 65.47 121 66.0627 121 66.744V67.486H115.862C115.881 68.3353 116.096 68.984 116.506 69.432C116.926 69.8707 117.51 70.09 118.256 70.09C118.732 70.09 119.152 70.048 119.516 69.964C119.89 69.8707 120.272 69.74 120.664 69.572V70.65C120.282 70.818 119.904 70.9393 119.53 71.014C119.157 71.098 118.714 71.14 118.2 71.14C117.482 71.14 116.852 70.9953 116.31 70.706C115.769 70.4167 115.344 69.9873 115.036 69.418C114.738 68.8487 114.588 68.144 114.588 67.304C114.588 66.4827 114.724 65.778 114.994 65.19C115.274 64.602 115.662 64.1493 116.156 63.832C116.66 63.5147 117.244 63.356 117.906 63.356ZM117.892 64.364C117.304 64.364 116.838 64.5553 116.492 64.938C116.156 65.3113 115.956 65.834 115.89 66.506H119.712C119.703 65.8713 119.554 65.358 119.264 64.966C118.975 64.5647 118.518 64.364 117.892 64.364ZM121.461 63.496H122.777L124.401 67.766C124.541 68.1487 124.667 68.508 124.779 68.844C124.891 69.18 124.975 69.502 125.031 69.81H125.087C125.143 69.5767 125.232 69.2733 125.353 68.9C125.475 68.5173 125.601 68.1347 125.731 67.752L127.257 63.496H128.587L125.353 72.036C125.083 72.7453 124.742 73.31 124.331 73.73C123.921 74.15 123.351 74.36 122.623 74.36C122.399 74.36 122.203 74.346 122.035 74.318C121.867 74.2993 121.723 74.276 121.601 74.248V73.268C121.704 73.2867 121.825 73.3053 121.965 73.324C122.115 73.3427 122.269 73.352 122.427 73.352C122.857 73.352 123.202 73.2307 123.463 72.988C123.725 72.7453 123.935 72.4233 124.093 72.022L124.485 71.028L121.461 63.496ZM133.386 63.356C134.282 63.356 134.959 63.5753 135.416 64.014C135.873 64.4527 136.102 65.1527 136.102 66.114V71H134.884V66.198C134.884 64.994 134.324 64.392 133.204 64.392C132.373 64.392 131.799 64.6253 131.482 65.092C131.165 65.5587 131.006 66.2307 131.006 67.108V71H129.774V63.496H130.768L130.95 64.518H131.02C131.263 64.126 131.599 63.8367 132.028 63.65C132.457 63.454 132.91 63.356 133.386 63.356ZM144.952 67.234C144.952 68.4753 144.635 69.4367 144 70.118C143.375 70.7993 142.526 71.14 141.452 71.14C140.79 71.14 140.197 70.9907 139.674 70.692C139.161 70.384 138.755 69.9407 138.456 69.362C138.158 68.774 138.008 68.0647 138.008 67.234C138.008 65.9927 138.316 65.036 138.932 64.364C139.558 63.692 140.412 63.356 141.494 63.356C142.166 63.356 142.764 63.51 143.286 63.818C143.809 64.1167 144.215 64.5553 144.504 65.134C144.803 65.7033 144.952 66.4033 144.952 67.234ZM139.282 67.234C139.282 68.1207 139.455 68.8253 139.8 69.348C140.155 69.8613 140.715 70.118 141.48 70.118C142.236 70.118 142.792 69.8613 143.146 69.348C143.501 68.8253 143.678 68.1207 143.678 67.234C143.678 66.3473 143.501 65.652 143.146 65.148C142.792 64.644 142.232 64.392 141.466 64.392C140.701 64.392 140.146 64.644 139.8 65.148C139.455 65.652 139.282 66.3473 139.282 67.234ZM148.137 71H146.905V60.36H148.137V71ZM153.174 71.14C152.241 71.14 151.494 70.818 150.934 70.174C150.374 69.5207 150.094 68.55 150.094 67.262C150.094 65.974 150.374 65.0033 150.934 64.35C151.504 63.6873 152.255 63.356 153.188 63.356C153.767 63.356 154.238 63.4633 154.602 63.678C154.976 63.8927 155.279 64.154 155.512 64.462H155.596C155.578 64.3407 155.559 64.1633 155.54 63.93C155.522 63.6873 155.512 63.496 155.512 63.356V60.36H156.744V71H155.75L155.568 69.992H155.512C155.288 70.3093 154.99 70.58 154.616 70.804C154.243 71.028 153.762 71.14 153.174 71.14ZM153.37 70.118C154.164 70.118 154.719 69.9033 155.036 69.474C155.363 69.0353 155.526 68.3773 155.526 67.5V67.276C155.526 66.3427 155.372 65.6287 155.064 65.134C154.756 64.63 154.187 64.378 153.356 64.378C152.694 64.378 152.194 64.644 151.858 65.176C151.532 65.6987 151.368 66.4033 151.368 67.29C151.368 68.186 151.532 68.8813 151.858 69.376C152.194 69.8707 152.698 70.118 153.37 70.118ZM164.014 68.928C164.014 69.656 163.743 70.2067 163.202 70.58C162.66 70.9533 161.932 71.14 161.018 71.14C160.495 71.14 160.042 71.098 159.66 71.014C159.286 70.93 158.955 70.8133 158.666 70.664V69.544C158.964 69.6933 159.324 69.8333 159.744 69.964C160.173 70.0853 160.607 70.146 161.046 70.146C161.671 70.146 162.124 70.048 162.404 69.852C162.684 69.6467 162.824 69.376 162.824 69.04C162.824 68.8533 162.772 68.6853 162.67 68.536C162.567 68.3867 162.38 68.2373 162.11 68.088C161.848 67.9387 161.47 67.7707 160.976 67.584C160.49 67.3973 160.075 67.2107 159.73 67.024C159.384 66.8373 159.118 66.6133 158.932 66.352C158.745 66.0907 158.652 65.7547 158.652 65.344C158.652 64.7093 158.908 64.2193 159.422 63.874C159.944 63.5287 160.626 63.356 161.466 63.356C161.923 63.356 162.348 63.4027 162.74 63.496C163.141 63.5893 163.514 63.7107 163.86 63.86L163.44 64.84C163.122 64.7093 162.791 64.5973 162.446 64.504C162.1 64.4107 161.746 64.364 161.382 64.364C160.878 64.364 160.49 64.448 160.22 64.616C159.958 64.7747 159.828 64.994 159.828 65.274C159.828 65.4887 159.888 65.666 160.01 65.806C160.131 65.946 160.332 66.086 160.612 66.226C160.901 66.366 161.284 66.5247 161.76 66.702C162.236 66.8793 162.642 67.0613 162.978 67.248C163.314 67.4347 163.57 67.6633 163.748 67.934C163.925 68.1953 164.014 68.5267 164.014 68.928Z" fill="#1B77AF"/>
<line x1="61" y1="87.5" x2="261" y2="87.5" stroke="#F1F1F1"/>
<rect width="200" height="44" transform="translate(61 88)" fill="white"/>
<path d="M81.004 105.004C82.3107 105.004 83.2627 105.261 83.86 105.774C84.4573 106.287 84.756 107.011 84.756 107.944C84.756 108.495 84.63 109.013 84.378 109.498C84.1353 109.974 83.72 110.361 83.132 110.66C82.5533 110.959 81.7647 111.108 80.766 111.108H79.618V115H78.358V105.004H81.004ZM80.892 106.082H79.618V110.03H80.626C81.578 110.03 82.2873 109.876 82.754 109.568C83.2207 109.26 83.454 108.737 83.454 108C83.454 107.356 83.244 106.875 82.824 106.558C82.4133 106.241 81.7693 106.082 80.892 106.082ZM89.5086 107.37C90.4232 107.37 91.0999 107.571 91.5386 107.972C91.9772 108.373 92.1966 109.013 92.1966 109.89V115H91.3006L91.0626 113.936H91.0066C90.6799 114.347 90.3346 114.65 89.9706 114.846C89.6066 115.042 89.1119 115.14 88.4866 115.14C87.8052 115.14 87.2406 114.963 86.7926 114.608C86.3446 114.244 86.1206 113.679 86.1206 112.914C86.1206 112.167 86.4146 111.593 87.0026 111.192C87.5906 110.781 88.4959 110.557 89.7186 110.52L90.9926 110.478V110.03C90.9926 109.405 90.8572 108.971 90.5866 108.728C90.3159 108.485 89.9332 108.364 89.4386 108.364C89.0466 108.364 88.6732 108.425 88.3186 108.546C87.9639 108.658 87.6326 108.789 87.3246 108.938L86.9466 108.014C87.2732 107.837 87.6606 107.687 88.1086 107.566C88.5566 107.435 89.0232 107.37 89.5086 107.37ZM90.9786 111.332L89.8726 111.374C88.9392 111.411 88.2906 111.561 87.9266 111.822C87.5719 112.083 87.3946 112.452 87.3946 112.928C87.3946 113.348 87.5206 113.656 87.7726 113.852C88.0339 114.048 88.3652 114.146 88.7666 114.146C89.3919 114.146 89.9146 113.973 90.3346 113.628C90.7639 113.273 90.9786 112.732 90.9786 112.004V111.332ZM97.0202 114.132C97.2069 114.132 97.3982 114.118 97.5942 114.09C97.7902 114.062 97.9489 114.025 98.0702 113.978V114.916C97.9396 114.981 97.7529 115.033 97.5102 115.07C97.2676 115.117 97.0342 115.14 96.8102 115.14C96.4182 115.14 96.0542 115.075 95.7182 114.944C95.3916 114.804 95.1256 114.566 94.9202 114.23C94.7149 113.894 94.6122 113.423 94.6122 112.816V108.448H93.5482V107.86L94.6262 107.37L95.1162 105.774H95.8442V107.496H98.0142V108.448H95.8442V112.788C95.8442 113.245 95.9516 113.586 96.1662 113.81C96.3902 114.025 96.6749 114.132 97.0202 114.132ZM102.079 114.132C102.265 114.132 102.457 114.118 102.653 114.09C102.849 114.062 103.007 114.025 103.129 113.978V114.916C102.998 114.981 102.811 115.033 102.569 115.07C102.326 115.117 102.093 115.14 101.869 115.14C101.477 115.14 101.113 115.075 100.777 114.944C100.45 114.804 100.184 114.566 99.9788 114.23C99.7735 113.894 99.6708 113.423 99.6708 112.816V108.448H98.6068V107.86L99.6848 107.37L100.175 105.774H100.903V107.496H103.073V108.448H100.903V112.788C100.903 113.245 101.01 113.586 101.225 113.81C101.449 114.025 101.733 114.132 102.079 114.132ZM103.455 107.496H104.771L106.395 111.766C106.535 112.149 106.661 112.508 106.773 112.844C106.885 113.18 106.969 113.502 107.025 113.81H107.081C107.137 113.577 107.226 113.273 107.347 112.9C107.469 112.517 107.595 112.135 107.725 111.752L109.251 107.496H110.581L107.347 116.036C107.077 116.745 106.736 117.31 106.325 117.73C105.915 118.15 105.345 118.36 104.617 118.36C104.393 118.36 104.197 118.346 104.029 118.318C103.861 118.299 103.717 118.276 103.595 118.248V117.268C103.698 117.287 103.819 117.305 103.959 117.324C104.109 117.343 104.263 117.352 104.421 117.352C104.851 117.352 105.196 117.231 105.457 116.988C105.719 116.745 105.929 116.423 106.087 116.022L106.479 115.028L103.455 107.496ZM123.581 109.904C123.581 111.593 123.119 112.867 122.195 113.726C121.28 114.575 120.002 115 118.359 115H115.573V105.004H118.653C119.652 105.004 120.52 105.191 121.257 105.564C122.004 105.937 122.578 106.488 122.979 107.216C123.38 107.944 123.581 108.84 123.581 109.904ZM122.251 109.946C122.251 108.611 121.92 107.636 121.257 107.02C120.604 106.395 119.675 106.082 118.471 106.082H116.833V113.922H118.191C120.898 113.922 122.251 112.597 122.251 109.946ZM132.155 111.234C132.155 112.475 131.838 113.437 131.203 114.118C130.578 114.799 129.729 115.14 128.655 115.14C127.993 115.14 127.4 114.991 126.877 114.692C126.364 114.384 125.958 113.941 125.659 113.362C125.361 112.774 125.211 112.065 125.211 111.234C125.211 109.993 125.519 109.036 126.135 108.364C126.761 107.692 127.615 107.356 128.697 107.356C129.369 107.356 129.967 107.51 130.489 107.818C131.012 108.117 131.418 108.555 131.707 109.134C132.006 109.703 132.155 110.403 132.155 111.234ZM126.485 111.234C126.485 112.121 126.658 112.825 127.003 113.348C127.358 113.861 127.918 114.118 128.683 114.118C129.439 114.118 129.995 113.861 130.349 113.348C130.704 112.825 130.881 112.121 130.881 111.234C130.881 110.347 130.704 109.652 130.349 109.148C129.995 108.644 129.435 108.392 128.669 108.392C127.904 108.392 127.349 108.644 127.003 109.148C126.658 109.652 126.485 110.347 126.485 111.234ZM135.34 115H134.108V104.36H135.34V115ZM144.241 111.234C144.241 112.475 143.924 113.437 143.289 114.118C142.664 114.799 141.815 115.14 140.741 115.14C140.079 115.14 139.486 114.991 138.963 114.692C138.45 114.384 138.044 113.941 137.745 113.362C137.447 112.774 137.297 112.065 137.297 111.234C137.297 109.993 137.605 109.036 138.221 108.364C138.847 107.692 139.701 107.356 140.783 107.356C141.455 107.356 142.053 107.51 142.575 107.818C143.098 108.117 143.504 108.555 143.793 109.134C144.092 109.703 144.241 110.403 144.241 111.234ZM138.571 111.234C138.571 112.121 138.744 112.825 139.089 113.348C139.444 113.861 140.004 114.118 140.769 114.118C141.525 114.118 142.081 113.861 142.435 113.348C142.79 112.825 142.967 112.121 142.967 111.234C142.967 110.347 142.79 109.652 142.435 109.148C142.081 108.644 141.521 108.392 140.755 108.392C139.99 108.392 139.435 108.644 139.089 109.148C138.744 109.652 138.571 110.347 138.571 111.234ZM149.694 107.356C149.834 107.356 149.983 107.365 150.142 107.384C150.301 107.393 150.445 107.412 150.576 107.44L150.422 108.574C150.301 108.546 150.165 108.523 150.016 108.504C149.867 108.485 149.731 108.476 149.61 108.476C149.227 108.476 148.868 108.583 148.532 108.798C148.196 109.003 147.925 109.297 147.72 109.68C147.524 110.053 147.426 110.492 147.426 110.996V115H146.194V107.496H147.202L147.342 108.868H147.398C147.631 108.457 147.939 108.103 148.322 107.804C148.714 107.505 149.171 107.356 149.694 107.356ZM154.602 107.356C155.236 107.356 155.787 107.496 156.254 107.776C156.72 108.056 157.075 108.453 157.318 108.966C157.57 109.47 157.696 110.063 157.696 110.744V111.486H152.558C152.576 112.335 152.791 112.984 153.202 113.432C153.622 113.871 154.205 114.09 154.952 114.09C155.428 114.09 155.848 114.048 156.212 113.964C156.585 113.871 156.968 113.74 157.36 113.572V114.65C156.977 114.818 156.599 114.939 156.226 115.014C155.852 115.098 155.409 115.14 154.896 115.14C154.177 115.14 153.547 114.995 153.006 114.706C152.464 114.417 152.04 113.987 151.732 113.418C151.433 112.849 151.284 112.144 151.284 111.304C151.284 110.483 151.419 109.778 151.69 109.19C151.97 108.602 152.357 108.149 152.852 107.832C153.356 107.515 153.939 107.356 154.602 107.356ZM154.588 108.364C154 108.364 153.533 108.555 153.188 108.938C152.852 109.311 152.651 109.834 152.586 110.506H156.408C156.398 109.871 156.249 109.358 155.96 108.966C155.67 108.565 155.213 108.364 154.588 108.364ZM164.492 112.928C164.492 113.656 164.221 114.207 163.68 114.58C163.139 114.953 162.411 115.14 161.496 115.14C160.973 115.14 160.521 115.098 160.138 115.014C159.765 114.93 159.433 114.813 159.144 114.664V113.544C159.443 113.693 159.802 113.833 160.222 113.964C160.651 114.085 161.085 114.146 161.524 114.146C162.149 114.146 162.602 114.048 162.882 113.852C163.162 113.647 163.302 113.376 163.302 113.04C163.302 112.853 163.251 112.685 163.148 112.536C163.045 112.387 162.859 112.237 162.588 112.088C162.327 111.939 161.949 111.771 161.454 111.584C160.969 111.397 160.553 111.211 160.208 111.024C159.863 110.837 159.597 110.613 159.41 110.352C159.223 110.091 159.13 109.755 159.13 109.344C159.13 108.709 159.387 108.219 159.9 107.874C160.423 107.529 161.104 107.356 161.944 107.356C162.401 107.356 162.826 107.403 163.218 107.496C163.619 107.589 163.993 107.711 164.338 107.86L163.918 108.84C163.601 108.709 163.269 108.597 162.924 108.504C162.579 108.411 162.224 108.364 161.86 108.364C161.356 108.364 160.969 108.448 160.698 108.616C160.437 108.775 160.306 108.994 160.306 109.274C160.306 109.489 160.367 109.666 160.488 109.806C160.609 109.946 160.81 110.086 161.09 110.226C161.379 110.366 161.762 110.525 162.238 110.702C162.714 110.879 163.12 111.061 163.456 111.248C163.792 111.435 164.049 111.663 164.226 111.934C164.403 112.195 164.492 112.527 164.492 112.928Z" fill="#1B77AF"/>
<line x1="61" y1="131.5" x2="261" y2="131.5" stroke="#F1F1F1"/>
<rect width="200" height="44" transform="translate(61 132)" fill="white"/>
<path d="M81.004 149.004C82.3107 149.004 83.2627 149.261 83.86 149.774C84.4573 150.287 84.756 151.011 84.756 151.944C84.756 152.495 84.63 153.013 84.378 153.498C84.1353 153.974 83.72 154.361 83.132 154.66C82.5533 154.959 81.7647 155.108 80.766 155.108H79.618V159H78.358V149.004H81.004ZM80.892 150.082H79.618V154.03H80.626C81.578 154.03 82.2873 153.876 82.754 153.568C83.2207 153.26 83.454 152.737 83.454 152C83.454 151.356 83.244 150.875 82.824 150.558C82.4133 150.241 81.7693 150.082 80.892 150.082ZM89.5086 151.37C90.4232 151.37 91.0999 151.571 91.5386 151.972C91.9772 152.373 92.1966 153.013 92.1966 153.89V159H91.3006L91.0626 157.936H91.0066C90.6799 158.347 90.3346 158.65 89.9706 158.846C89.6066 159.042 89.1119 159.14 88.4866 159.14C87.8052 159.14 87.2406 158.963 86.7926 158.608C86.3446 158.244 86.1206 157.679 86.1206 156.914C86.1206 156.167 86.4146 155.593 87.0026 155.192C87.5906 154.781 88.4959 154.557 89.7186 154.52L90.9926 154.478V154.03C90.9926 153.405 90.8572 152.971 90.5866 152.728C90.3159 152.485 89.9332 152.364 89.4386 152.364C89.0466 152.364 88.6732 152.425 88.3186 152.546C87.9639 152.658 87.6326 152.789 87.3246 152.938L86.9466 152.014C87.2732 151.837 87.6606 151.687 88.1086 151.566C88.5566 151.435 89.0232 151.37 89.5086 151.37ZM90.9786 155.332L89.8726 155.374C88.9392 155.411 88.2906 155.561 87.9266 155.822C87.5719 156.083 87.3946 156.452 87.3946 156.928C87.3946 157.348 87.5206 157.656 87.7726 157.852C88.0339 158.048 88.3652 158.146 88.7666 158.146C89.3919 158.146 89.9146 157.973 90.3346 157.628C90.7639 157.273 90.9786 156.732 90.9786 156.004V155.332ZM100.786 151.496V159H99.7782L99.5962 158.006H99.5402C99.2976 158.398 98.9616 158.687 98.5322 158.874C98.1029 159.051 97.6456 159.14 97.1602 159.14C96.2549 159.14 95.5736 158.925 95.1162 158.496C94.6589 158.057 94.4302 157.362 94.4302 156.41V151.496H95.6762V156.326C95.6762 157.521 96.2316 158.118 97.3422 158.118C98.1729 158.118 98.7469 157.885 99.0642 157.418C99.3909 156.951 99.5542 156.279 99.5542 155.402V151.496H100.786ZM104.401 159H103.169V148.36H104.401V159ZM116.855 159L115.651 155.906H111.689L110.499 159H109.225L113.131 148.962H114.265L118.157 159H116.855ZM115.273 154.786L114.153 151.762C114.125 151.687 114.078 151.552 114.013 151.356C113.947 151.16 113.882 150.959 113.817 150.754C113.761 150.539 113.714 150.376 113.677 150.264C113.602 150.553 113.523 150.838 113.439 151.118C113.364 151.389 113.299 151.603 113.243 151.762L112.109 154.786H115.273ZM122.968 151.356C123.864 151.356 124.541 151.575 124.998 152.014C125.455 152.453 125.684 153.153 125.684 154.114V159H124.466V154.198C124.466 152.994 123.906 152.392 122.786 152.392C121.955 152.392 121.381 152.625 121.064 153.092C120.747 153.559 120.588 154.231 120.588 155.108V159H119.356V151.496H120.35L120.532 152.518H120.602C120.845 152.126 121.181 151.837 121.61 151.65C122.039 151.454 122.492 151.356 122.968 151.356ZM130.67 159.14C129.737 159.14 128.99 158.818 128.43 158.174C127.87 157.521 127.59 156.55 127.59 155.262C127.59 153.974 127.87 153.003 128.43 152.35C129 151.687 129.751 151.356 130.684 151.356C131.263 151.356 131.734 151.463 132.098 151.678C132.472 151.893 132.775 152.154 133.008 152.462H133.092C133.074 152.341 133.055 152.163 133.036 151.93C133.018 151.687 133.008 151.496 133.008 151.356V148.36H134.24V159H133.246L133.064 157.992H133.008C132.784 158.309 132.486 158.58 132.112 158.804C131.739 159.028 131.258 159.14 130.67 159.14ZM130.866 158.118C131.66 158.118 132.215 157.903 132.532 157.474C132.859 157.035 133.022 156.377 133.022 155.5V155.276C133.022 154.343 132.868 153.629 132.56 153.134C132.252 152.63 131.683 152.378 130.852 152.378C130.19 152.378 129.69 152.644 129.354 153.176C129.028 153.699 128.864 154.403 128.864 155.29C128.864 156.186 129.028 156.881 129.354 157.376C129.69 157.871 130.194 158.118 130.866 158.118ZM140.124 151.356C140.264 151.356 140.413 151.365 140.572 151.384C140.73 151.393 140.875 151.412 141.006 151.44L140.852 152.574C140.73 152.546 140.595 152.523 140.446 152.504C140.296 152.485 140.161 152.476 140.04 152.476C139.657 152.476 139.298 152.583 138.962 152.798C138.626 153.003 138.355 153.297 138.15 153.68C137.954 154.053 137.856 154.492 137.856 154.996V159H136.624V151.496H137.632L137.772 152.868H137.828C138.061 152.457 138.369 152.103 138.752 151.804C139.144 151.505 139.601 151.356 140.124 151.356ZM145.031 151.356C145.666 151.356 146.217 151.496 146.683 151.776C147.15 152.056 147.505 152.453 147.747 152.966C147.999 153.47 148.125 154.063 148.125 154.744V155.486H142.987C143.006 156.335 143.221 156.984 143.631 157.432C144.051 157.871 144.635 158.09 145.381 158.09C145.857 158.09 146.277 158.048 146.641 157.964C147.015 157.871 147.397 157.74 147.789 157.572V158.65C147.407 158.818 147.029 158.939 146.655 159.014C146.282 159.098 145.839 159.14 145.325 159.14C144.607 159.14 143.977 158.995 143.435 158.706C142.894 158.417 142.469 157.987 142.161 157.418C141.863 156.849 141.713 156.144 141.713 155.304C141.713 154.483 141.849 153.778 142.119 153.19C142.399 152.602 142.787 152.149 143.281 151.832C143.785 151.515 144.369 151.356 145.031 151.356ZM145.017 152.364C144.429 152.364 143.963 152.555 143.617 152.938C143.281 153.311 143.081 153.834 143.015 154.506H146.837C146.828 153.871 146.679 153.358 146.389 152.966C146.1 152.565 145.643 152.364 145.017 152.364ZM155.894 158.986L154.606 154.758C154.485 154.375 154.378 154.002 154.284 153.638C154.191 153.274 154.126 152.985 154.088 152.77H154.032C153.995 152.985 153.934 153.274 153.85 153.638C153.766 154.002 153.659 154.38 153.528 154.772L152.184 158.986H150.784L148.726 151.482H150L151.036 155.486C151.139 155.887 151.237 156.293 151.33 156.704C151.424 157.115 151.489 157.455 151.526 157.726H151.582C151.61 157.567 151.652 157.371 151.708 157.138C151.764 156.905 151.825 156.662 151.89 156.41C151.956 156.149 152.021 155.915 152.086 155.71L153.416 151.482H154.76L156.048 155.71C156.142 156.037 156.24 156.387 156.342 156.76C156.445 157.133 156.515 157.451 156.552 157.712H156.608C156.636 157.479 156.697 157.157 156.79 156.746C156.893 156.335 157 155.915 157.112 155.486L158.162 151.482H159.422L157.336 158.986H155.894Z" fill="#1B77AF"/>
<line x1="61" y1="175.5" x2="261" y2="175.5" stroke="#F1F1F1"/>
<rect width="200" height="44" transform="translate(61 176)" fill="white"/>
<path d="M81.116 193.004C82.3573 193.004 83.272 193.242 83.86 193.718C84.4573 194.185 84.756 194.894 84.756 195.846C84.756 196.378 84.658 196.821 84.462 197.176C84.266 197.531 84.014 197.815 83.706 198.03C83.4073 198.245 83.09 198.408 82.754 198.52L85.498 203H84.028L81.606 198.87H79.618V203H78.358V193.004H81.116ZM81.046 194.096H79.618V197.806H81.116C81.928 197.806 82.5207 197.647 82.894 197.33C83.2673 197.003 83.454 196.527 83.454 195.902C83.454 195.249 83.258 194.787 82.866 194.516C82.474 194.236 81.8673 194.096 81.046 194.096ZM93.423 199.234C93.423 200.475 93.1057 201.437 92.471 202.118C91.8457 202.799 90.9963 203.14 89.923 203.14C89.2603 203.14 88.6677 202.991 88.145 202.692C87.6317 202.384 87.2257 201.941 86.927 201.362C86.6283 200.774 86.479 200.065 86.479 199.234C86.479 197.993 86.787 197.036 87.403 196.364C88.0283 195.692 88.8823 195.356 89.965 195.356C90.637 195.356 91.2343 195.51 91.757 195.818C92.2797 196.117 92.6857 196.555 92.975 197.134C93.2737 197.703 93.423 198.403 93.423 199.234ZM87.753 199.234C87.753 200.121 87.9257 200.825 88.271 201.348C88.6257 201.861 89.1857 202.118 89.951 202.118C90.707 202.118 91.2623 201.861 91.617 201.348C91.9717 200.825 92.149 200.121 92.149 199.234C92.149 198.347 91.9717 197.652 91.617 197.148C91.2623 196.644 90.7023 196.392 89.937 196.392C89.1717 196.392 88.6163 196.644 88.271 197.148C87.9257 197.652 87.753 198.347 87.753 199.234ZM98.3855 203.14C97.7135 203.14 97.1209 203.005 96.6075 202.734C96.0942 202.463 95.6882 202.043 95.3895 201.474C95.1002 200.905 94.9555 200.177 94.9555 199.29C94.9555 198.366 95.1049 197.615 95.4035 197.036C95.7115 196.457 96.1315 196.033 96.6635 195.762C97.1955 195.491 97.7975 195.356 98.4695 195.356C98.8429 195.356 99.2069 195.398 99.5615 195.482C99.9255 195.557 100.22 195.65 100.444 195.762L100.066 196.784C99.8415 196.7 99.5802 196.621 99.2815 196.546C98.9829 196.471 98.7029 196.434 98.4415 196.434C96.9669 196.434 96.2295 197.381 96.2295 199.276C96.2295 200.181 96.4069 200.877 96.7615 201.362C97.1255 201.838 97.6622 202.076 98.3715 202.076C98.7729 202.076 99.1322 202.034 99.4495 201.95C99.7669 201.866 100.056 201.763 100.318 201.642V202.734C100.066 202.865 99.7855 202.963 99.4775 203.028C99.1789 203.103 98.8149 203.14 98.3855 203.14ZM103.334 192.36V195.482C103.334 195.855 103.311 196.205 103.264 196.532H103.348C103.591 196.149 103.917 195.86 104.328 195.664C104.748 195.468 105.201 195.37 105.686 195.37C106.591 195.37 107.273 195.589 107.73 196.028C108.197 196.457 108.43 197.153 108.43 198.114V203H107.212V198.198C107.212 196.994 106.652 196.392 105.532 196.392C104.692 196.392 104.113 196.63 103.796 197.106C103.488 197.573 103.334 198.245 103.334 199.122V203H102.102V192.36H103.334ZM113.654 195.356C114.289 195.356 114.84 195.496 115.306 195.776C115.773 196.056 116.128 196.453 116.37 196.966C116.622 197.47 116.748 198.063 116.748 198.744V199.486H111.61C111.629 200.335 111.844 200.984 112.254 201.432C112.674 201.871 113.258 202.09 114.004 202.09C114.48 202.09 114.9 202.048 115.264 201.964C115.638 201.871 116.02 201.74 116.412 201.572V202.65C116.03 202.818 115.652 202.939 115.278 203.014C114.905 203.098 114.462 203.14 113.948 203.14C113.23 203.14 112.6 202.995 112.058 202.706C111.517 202.417 111.092 201.987 110.784 201.418C110.486 200.849 110.336 200.144 110.336 199.304C110.336 198.483 110.472 197.778 110.742 197.19C111.022 196.602 111.41 196.149 111.904 195.832C112.408 195.515 112.992 195.356 113.654 195.356ZM113.64 196.364C113.052 196.364 112.586 196.555 112.24 196.938C111.904 197.311 111.704 197.834 111.638 198.506H115.46C115.451 197.871 115.302 197.358 115.012 196.966C114.723 196.565 114.266 196.364 113.64 196.364ZM119.891 203H118.659V192.36H119.891V203ZM123.5 203H122.268V192.36H123.5V203ZM128.776 195.356C129.41 195.356 129.961 195.496 130.428 195.776C130.894 196.056 131.249 196.453 131.492 196.966C131.744 197.47 131.87 198.063 131.87 198.744V199.486H126.732C126.75 200.335 126.965 200.984 127.376 201.432C127.796 201.871 128.379 202.09 129.126 202.09C129.602 202.09 130.022 202.048 130.386 201.964C130.759 201.871 131.142 201.74 131.534 201.572V202.65C131.151 202.818 130.773 202.939 130.4 203.014C130.026 203.098 129.583 203.14 129.07 203.14C128.351 203.14 127.721 202.995 127.18 202.706C126.638 202.417 126.214 201.987 125.906 201.418C125.607 200.849 125.458 200.144 125.458 199.304C125.458 198.483 125.593 197.778 125.864 197.19C126.144 196.602 126.531 196.149 127.026 195.832C127.53 195.515 128.113 195.356 128.776 195.356ZM128.762 196.364C128.174 196.364 127.707 196.555 127.362 196.938C127.026 197.311 126.825 197.834 126.76 198.506H130.582C130.572 197.871 130.423 197.358 130.134 196.966C129.844 196.565 129.387 196.364 128.762 196.364ZM141.995 203L138.705 194.236H138.649C138.677 194.525 138.7 194.917 138.719 195.412C138.737 195.897 138.747 196.406 138.747 196.938V203H137.585V193.004H139.447L142.527 201.194H142.583L145.719 193.004H147.567V203H146.321V196.854C146.321 196.369 146.33 195.888 146.349 195.412C146.377 194.936 146.4 194.549 146.419 194.25H146.363L143.031 203H141.995ZM150.748 192.682C150.934 192.682 151.098 192.747 151.238 192.878C151.387 192.999 151.462 193.195 151.462 193.466C151.462 193.737 151.387 193.937 151.238 194.068C151.098 194.189 150.934 194.25 150.748 194.25C150.542 194.25 150.37 194.189 150.23 194.068C150.09 193.937 150.02 193.737 150.02 193.466C150.02 193.195 150.09 192.999 150.23 192.878C150.37 192.747 150.542 192.682 150.748 192.682ZM151.35 195.496V203H150.118V195.496H151.35ZM157.339 195.356C158.235 195.356 158.912 195.575 159.369 196.014C159.826 196.453 160.055 197.153 160.055 198.114V203H158.837V198.198C158.837 196.994 158.277 196.392 157.157 196.392C156.326 196.392 155.752 196.625 155.435 197.092C155.118 197.559 154.959 198.231 154.959 199.108V203H153.727V195.496H154.721L154.903 196.518H154.973C155.216 196.126 155.552 195.837 155.981 195.65C156.41 195.454 156.863 195.356 157.339 195.356ZM165.041 195.356C165.536 195.356 165.979 195.449 166.371 195.636C166.773 195.823 167.113 196.107 167.393 196.49H167.463L167.631 195.496H168.611V203.126C168.611 204.199 168.336 205.007 167.785 205.548C167.244 206.089 166.399 206.36 165.251 206.36C164.15 206.36 163.249 206.201 162.549 205.884V204.75C163.287 205.142 164.211 205.338 165.321 205.338C165.965 205.338 166.469 205.147 166.833 204.764C167.207 204.391 167.393 203.877 167.393 203.224V202.93C167.393 202.818 167.398 202.659 167.407 202.454C167.417 202.239 167.426 202.09 167.435 202.006H167.379C166.875 202.762 166.101 203.14 165.055 203.14C164.085 203.14 163.324 202.799 162.773 202.118C162.232 201.437 161.961 200.485 161.961 199.262C161.961 198.067 162.232 197.12 162.773 196.42C163.324 195.711 164.08 195.356 165.041 195.356ZM165.209 196.392C164.584 196.392 164.099 196.644 163.753 197.148C163.408 197.643 163.235 198.352 163.235 199.276C163.235 200.2 163.403 200.909 163.739 201.404C164.075 201.889 164.575 202.132 165.237 202.132C165.993 202.132 166.544 201.931 166.889 201.53C167.235 201.119 167.407 200.461 167.407 199.556V199.262C167.407 198.245 167.23 197.512 166.875 197.064C166.521 196.616 165.965 196.392 165.209 196.392Z" fill="#1B77AF"/>
<line x1="61" y1="219.5" x2="261" y2="219.5" stroke="#F1F1F1"/>
<rect width="90" height="44" transform="translate(261)" fill="white"/>
<path d="M284.476 27L283.566 24.354H279.8L278.904 27H277L280.668 16.962H282.712L286.38 27H284.476ZM283.104 22.814L282.236 20.238C282.199 20.1167 282.143 19.944 282.068 19.72C281.993 19.4867 281.923 19.2533 281.858 19.02C281.793 18.7773 281.737 18.5767 281.69 18.418C281.643 18.614 281.583 18.8333 281.508 19.076C281.443 19.3187 281.377 19.5473 281.312 19.762C281.256 19.9767 281.209 20.1353 281.172 20.238L280.29 22.814H283.104ZM290.075 19.272C291.055 19.272 291.806 19.6453 292.329 20.392H292.399L292.567 19.412H294.037V27.056C294.037 28.1387 293.733 28.96 293.127 29.52C292.52 30.08 291.605 30.36 290.383 30.36C289.841 30.36 289.342 30.3227 288.885 30.248C288.427 30.1827 287.993 30.066 287.583 29.898V28.442C288.012 28.6287 288.469 28.7733 288.955 28.876C289.449 28.9787 289.963 29.03 290.495 29.03C291.064 29.03 291.503 28.8667 291.811 28.54C292.119 28.2227 292.273 27.756 292.273 27.14V26.944C292.273 26.804 292.277 26.6407 292.287 26.454C292.296 26.2673 292.31 26.118 292.329 26.006H292.273C292.011 26.398 291.689 26.6873 291.307 26.874C290.933 27.0513 290.509 27.14 290.033 27.14C289.109 27.14 288.385 26.7947 287.863 26.104C287.34 25.4133 287.079 24.452 287.079 23.22C287.079 21.988 287.34 21.022 287.863 20.322C288.395 19.622 289.132 19.272 290.075 19.272ZM290.537 20.714C289.435 20.714 288.885 21.5587 288.885 23.248C288.885 24.9093 289.445 25.74 290.565 25.74C291.181 25.74 291.633 25.572 291.923 25.236C292.221 24.8907 292.371 24.312 292.371 23.5V23.234C292.371 22.338 292.221 21.694 291.923 21.302C291.633 20.91 291.171 20.714 290.537 20.714ZM299.342 19.272C300.36 19.272 301.162 19.5753 301.75 20.182C302.348 20.7887 302.646 21.6333 302.646 22.716V23.612H297.634C297.653 24.3027 297.844 24.8393 298.208 25.222C298.572 25.5953 299.076 25.782 299.72 25.782C300.206 25.782 300.644 25.7353 301.036 25.642C301.428 25.5393 301.83 25.3947 302.24 25.208V26.622C301.867 26.7993 301.48 26.93 301.078 27.014C300.677 27.098 300.196 27.14 299.636 27.14C298.89 27.14 298.232 27 297.662 26.72C297.093 26.4307 296.645 26.0013 296.318 25.432C296.001 24.8533 295.842 24.13 295.842 23.262C295.842 21.9647 296.16 20.9753 296.794 20.294C297.438 19.6127 298.288 19.272 299.342 19.272ZM299.342 20.574C298.866 20.574 298.479 20.728 298.18 21.036C297.891 21.3347 297.723 21.7827 297.676 22.38H300.938C300.929 21.8573 300.794 21.428 300.532 21.092C300.28 20.7467 299.884 20.574 299.342 20.574ZM308.485 19.272C309.334 19.272 309.997 19.4913 310.473 19.93C310.958 20.3687 311.201 21.078 311.201 22.058V27H309.437V22.408C309.437 21.8387 309.325 21.414 309.101 21.134C308.877 20.8447 308.522 20.7 308.037 20.7C307.328 20.7 306.842 20.924 306.581 21.372C306.32 21.82 306.189 22.4593 306.189 23.29V27H304.425V19.412H305.783L306.035 20.406H306.133C306.376 20.014 306.707 19.7293 307.127 19.552C307.556 19.3653 308.009 19.272 308.485 19.272ZM316.347 25.726C316.562 25.726 316.772 25.7073 316.977 25.67C317.192 25.6233 317.388 25.572 317.565 25.516V26.832C317.379 26.9253 317.136 27 316.837 27.056C316.539 27.112 316.226 27.14 315.899 27.14C315.461 27.14 315.064 27.07 314.709 26.93C314.364 26.79 314.089 26.5427 313.883 26.188C313.678 25.8333 313.575 25.334 313.575 24.69V20.742H312.553V19.972L313.673 19.356L314.233 17.746H315.339V19.412H317.495V20.742H315.339V24.676C315.339 25.0307 315.433 25.2967 315.619 25.474C315.815 25.642 316.058 25.726 316.347 25.726ZM326.288 27H322.088V25.978L323.292 25.53V18.488L322.088 18.026V17.004H326.288V18.026L325.084 18.488V25.53L326.288 25.978V27ZM336.257 21.904C336.257 23.5933 335.786 24.8673 334.843 25.726C333.901 26.5753 332.585 27 330.895 27H328.081V17.004H331.189C332.225 17.004 333.121 17.1907 333.877 17.564C334.633 17.9373 335.217 18.488 335.627 19.216C336.047 19.944 336.257 20.84 336.257 21.904ZM334.381 21.96C334.381 20.7653 334.106 19.888 333.555 19.328C333.005 18.768 332.216 18.488 331.189 18.488H329.873V25.502H330.951C333.238 25.502 334.381 24.3213 334.381 21.96Z" fill="black"/>
<line x1="261" y1="0.5" x2="351" y2="0.500008" stroke="#C9C9C9"/>
<line x1="261" y1="43.5" x2="351" y2="43.5" stroke="#C9C9C9"/>
<rect width="90" height="44" transform="translate(261 44)" fill="white"/>
<path d="M281.97 71H280.766V64.014C280.766 63.6127 280.771 63.2907 280.78 63.048C280.789 62.8053 280.803 62.5533 280.822 62.292C280.673 62.4413 280.533 62.5673 280.402 62.67C280.281 62.7727 280.131 62.9033 279.954 63.062L278.89 63.93L278.246 63.104L280.948 61.004H281.97V71ZM291.914 63.342C291.914 64.014 291.722 64.5507 291.34 64.952C290.966 65.344 290.467 65.6053 289.842 65.736V65.792C290.635 65.8853 291.228 66.1373 291.62 66.548C292.021 66.9587 292.222 67.4953 292.222 68.158C292.222 68.746 292.086 69.264 291.816 69.712C291.545 70.16 291.125 70.51 290.556 70.762C289.996 71.014 289.272 71.14 288.386 71.14C287.863 71.14 287.378 71.098 286.93 71.014C286.482 70.9393 286.052 70.7993 285.642 70.594V69.446C286.062 69.6607 286.514 69.824 287 69.936C287.485 70.048 287.952 70.104 288.4 70.104C289.296 70.104 289.94 69.9313 290.332 69.586C290.733 69.2313 290.934 68.746 290.934 68.13C290.934 67.5047 290.686 67.0567 290.192 66.786C289.706 66.506 289.02 66.366 288.134 66.366H287.168V65.316H288.148C288.969 65.316 289.59 65.1433 290.01 64.798C290.439 64.4527 290.654 63.9953 290.654 63.426C290.654 62.9407 290.49 62.5673 290.164 62.306C289.837 62.0353 289.394 61.9 288.834 61.9C288.292 61.9 287.83 61.9793 287.448 62.138C287.065 62.2967 286.687 62.4973 286.314 62.74L285.698 61.9C286.052 61.62 286.491 61.3773 287.014 61.172C287.546 60.9667 288.148 60.864 288.82 60.864C289.865 60.864 290.64 61.0973 291.144 61.564C291.657 62.0307 291.914 62.6233 291.914 63.342ZM293.793 66.73C293.793 66.0113 293.854 65.3067 293.975 64.616C294.106 63.916 294.335 63.286 294.661 62.726C294.997 62.1567 295.464 61.704 296.061 61.368C296.659 61.032 297.429 60.864 298.371 60.864C298.567 60.864 298.782 60.8733 299.015 60.892C299.258 60.9107 299.454 60.9433 299.603 60.99V62.04C299.435 61.984 299.244 61.942 299.029 61.914C298.815 61.886 298.605 61.872 298.399 61.872C297.755 61.872 297.219 61.9793 296.789 62.194C296.36 62.4087 296.019 62.7027 295.767 63.076C295.525 63.4493 295.347 63.8787 295.235 64.364C295.123 64.8493 295.053 65.3673 295.025 65.918H295.109C295.324 65.5913 295.623 65.316 296.005 65.092C296.388 64.8587 296.878 64.742 297.475 64.742C298.343 64.742 299.043 65.008 299.575 65.54C300.107 66.0627 300.373 66.8093 300.373 67.78C300.373 68.8253 300.084 69.6467 299.505 70.244C298.936 70.8413 298.166 71.14 297.195 71.14C296.561 71.14 295.987 70.9813 295.473 70.664C294.96 70.3467 294.549 69.8613 294.241 69.208C293.943 68.5547 293.793 67.7287 293.793 66.73ZM297.181 70.104C297.769 70.104 298.245 69.9173 298.609 69.544C298.973 69.1613 299.155 68.5733 299.155 67.78C299.155 67.1453 298.992 66.6413 298.665 66.268C298.348 65.8947 297.867 65.708 297.223 65.708C296.785 65.708 296.402 65.8013 296.075 65.988C295.749 66.1653 295.492 66.3987 295.305 66.688C295.128 66.968 295.039 67.2527 295.039 67.542C295.039 67.9433 295.119 68.3447 295.277 68.746C295.436 69.138 295.674 69.4647 295.991 69.726C296.309 69.978 296.705 70.104 297.181 70.104ZM308.763 68.732H307.307V71H306.117V68.732H301.329V67.682L306.033 60.948H307.307V67.626H308.763V68.732ZM306.117 67.626V64.476C306.117 63.9907 306.122 63.58 306.131 63.244C306.15 62.8987 306.168 62.572 306.187 62.264H306.131C306.056 62.4413 305.963 62.6327 305.851 62.838C305.739 63.0433 305.632 63.216 305.529 63.356L302.533 67.626H306.117ZM312.897 64.868C313.914 64.868 314.726 65.1247 315.333 65.638C315.949 66.1513 316.257 66.8747 316.257 67.808C316.257 68.844 315.926 69.6607 315.263 70.258C314.61 70.846 313.695 71.14 312.519 71.14C311.996 71.14 311.511 71.0933 311.063 71C310.615 70.9067 310.237 70.7713 309.929 70.594V69.432C310.265 69.6373 310.671 69.8007 311.147 69.922C311.632 70.034 312.094 70.09 312.533 70.09C313.27 70.09 313.863 69.9173 314.311 69.572C314.768 69.2173 314.997 68.6713 314.997 67.934C314.997 67.2807 314.796 66.7813 314.395 66.436C313.994 66.0813 313.359 65.904 312.491 65.904C312.23 65.904 311.931 65.9273 311.595 65.974C311.259 66.0207 310.988 66.0673 310.783 66.114L310.167 65.722L310.545 61.004H315.557V62.124H311.595L311.357 65.022C311.516 64.994 311.73 64.9613 312.001 64.924C312.272 64.8867 312.57 64.868 312.897 64.868ZM322.029 71H320.825V64.014C320.825 63.6127 320.829 63.2907 320.839 63.048C320.848 62.8053 320.862 62.5533 320.881 62.292C320.731 62.4413 320.591 62.5673 320.461 62.67C320.339 62.7727 320.19 62.9033 320.013 63.062L318.949 63.93L318.305 63.104L321.007 61.004H322.029V71Z" fill="black"/>
<line x1="261" y1="87.5" x2="351" y2="87.5" stroke="#F1F1F1"/>
<rect width="90" height="44" transform="translate(261 88)" fill="white"/>
<path d="M281.97 115H280.766V108.014C280.766 107.613 280.771 107.291 280.78 107.048C280.789 106.805 280.803 106.553 280.822 106.292C280.673 106.441 280.533 106.567 280.402 106.67C280.281 106.773 280.131 106.903 279.954 107.062L278.89 107.93L278.246 107.104L280.948 105.004H281.97V115ZM288.862 108.868C289.879 108.868 290.691 109.125 291.298 109.638C291.914 110.151 292.222 110.875 292.222 111.808C292.222 112.844 291.89 113.661 291.228 114.258C290.574 114.846 289.66 115.14 288.484 115.14C287.961 115.14 287.476 115.093 287.028 115C286.58 114.907 286.202 114.771 285.894 114.594V113.432C286.23 113.637 286.636 113.801 287.112 113.922C287.597 114.034 288.059 114.09 288.498 114.09C289.235 114.09 289.828 113.917 290.276 113.572C290.733 113.217 290.962 112.671 290.962 111.934C290.962 111.281 290.761 110.781 290.36 110.436C289.958 110.081 289.324 109.904 288.456 109.904C288.194 109.904 287.896 109.927 287.56 109.974C287.224 110.021 286.953 110.067 286.748 110.114L286.132 109.722L286.51 105.004H291.522V106.124H287.56L287.322 109.022C287.48 108.994 287.695 108.961 287.966 108.924C288.236 108.887 288.535 108.868 288.862 108.868ZM299.925 107.342C299.925 108.014 299.734 108.551 299.351 108.952C298.978 109.344 298.479 109.605 297.853 109.736V109.792C298.647 109.885 299.239 110.137 299.631 110.548C300.033 110.959 300.233 111.495 300.233 112.158C300.233 112.746 300.098 113.264 299.827 113.712C299.557 114.16 299.137 114.51 298.567 114.762C298.007 115.014 297.284 115.14 296.397 115.14C295.875 115.14 295.389 115.098 294.941 115.014C294.493 114.939 294.064 114.799 293.653 114.594V113.446C294.073 113.661 294.526 113.824 295.011 113.936C295.497 114.048 295.963 114.104 296.411 114.104C297.307 114.104 297.951 113.931 298.343 113.586C298.745 113.231 298.945 112.746 298.945 112.13C298.945 111.505 298.698 111.057 298.203 110.786C297.718 110.506 297.032 110.366 296.145 110.366H295.179V109.316H296.159C296.981 109.316 297.601 109.143 298.021 108.798C298.451 108.453 298.665 107.995 298.665 107.426C298.665 106.941 298.502 106.567 298.175 106.306C297.849 106.035 297.405 105.9 296.845 105.9C296.304 105.9 295.842 105.979 295.459 106.138C295.077 106.297 294.699 106.497 294.325 106.74L293.709 105.9C294.064 105.62 294.503 105.377 295.025 105.172C295.557 104.967 296.159 104.864 296.831 104.864C297.877 104.864 298.651 105.097 299.155 105.564C299.669 106.031 299.925 106.623 299.925 107.342ZM307.937 107.342C307.937 108.014 307.746 108.551 307.363 108.952C306.99 109.344 306.49 109.605 305.865 109.736V109.792C306.658 109.885 307.251 110.137 307.643 110.548C308.044 110.959 308.245 111.495 308.245 112.158C308.245 112.746 308.11 113.264 307.839 113.712C307.568 114.16 307.148 114.51 306.579 114.762C306.019 115.014 305.296 115.14 304.409 115.14C303.886 115.14 303.401 115.098 302.953 115.014C302.505 114.939 302.076 114.799 301.665 114.594V113.446C302.085 113.661 302.538 113.824 303.023 113.936C303.508 114.048 303.975 114.104 304.423 114.104C305.319 114.104 305.963 113.931 306.355 113.586C306.756 113.231 306.957 112.746 306.957 112.13C306.957 111.505 306.71 111.057 306.215 110.786C305.73 110.506 305.044 110.366 304.157 110.366H303.191V109.316H304.171C304.992 109.316 305.613 109.143 306.033 108.798C306.462 108.453 306.677 107.995 306.677 107.426C306.677 106.941 306.514 106.567 306.187 106.306C305.86 106.035 305.417 105.9 304.857 105.9C304.316 105.9 303.854 105.979 303.471 106.138C303.088 106.297 302.71 106.497 302.337 106.74L301.721 105.9C302.076 105.62 302.514 105.377 303.037 105.172C303.569 104.967 304.171 104.864 304.843 104.864C305.888 104.864 306.663 105.097 307.167 105.564C307.68 106.031 307.937 106.623 307.937 107.342ZM316.775 112.732H315.319V115H314.129V112.732H309.341V111.682L314.045 104.948H315.319V111.626H316.775V112.732ZM314.129 111.626V108.476C314.129 107.991 314.134 107.58 314.143 107.244C314.162 106.899 314.18 106.572 314.199 106.264H314.143C314.068 106.441 313.975 106.633 313.863 106.838C313.751 107.043 313.644 107.216 313.541 107.356L310.545 111.626H314.129ZM320.909 108.868C321.926 108.868 322.738 109.125 323.345 109.638C323.961 110.151 324.269 110.875 324.269 111.808C324.269 112.844 323.937 113.661 323.275 114.258C322.621 114.846 321.707 115.14 320.531 115.14C320.008 115.14 319.523 115.093 319.075 115C318.627 114.907 318.249 114.771 317.941 114.594V113.432C318.277 113.637 318.683 113.801 319.159 113.922C319.644 114.034 320.106 114.09 320.545 114.09C321.282 114.09 321.875 113.917 322.323 113.572C322.78 113.217 323.009 112.671 323.009 111.934C323.009 111.281 322.808 110.781 322.407 110.436C322.005 110.081 321.371 109.904 320.503 109.904C320.241 109.904 319.943 109.927 319.607 109.974C319.271 110.021 319 110.067 318.795 110.114L318.179 109.722L318.557 105.004H323.569V106.124H319.607L319.369 109.022C319.527 108.994 319.742 108.961 320.013 108.924C320.283 108.887 320.582 108.868 320.909 108.868Z" fill="black"/>
<line x1="261" y1="131.5" x2="351" y2="131.5" stroke="#F1F1F1"/>
<rect width="90" height="44" transform="translate(261 132)" fill="white"/>
<path d="M284.28 159H277.672V157.978L280.29 155.332C280.785 154.828 281.205 154.38 281.55 153.988C281.905 153.596 282.171 153.213 282.348 152.84C282.525 152.467 282.614 152.051 282.614 151.594C282.614 151.043 282.451 150.628 282.124 150.348C281.797 150.059 281.373 149.914 280.85 149.914C280.355 149.914 279.926 149.998 279.562 150.166C279.198 150.334 278.825 150.567 278.442 150.866L277.784 150.04C278.176 149.713 278.624 149.438 279.128 149.214C279.641 148.981 280.215 148.864 280.85 148.864C281.783 148.864 282.521 149.102 283.062 149.578C283.603 150.054 283.874 150.703 283.874 151.524C283.874 152.047 283.767 152.537 283.552 152.994C283.337 153.451 283.039 153.904 282.656 154.352C282.273 154.8 281.825 155.271 281.312 155.766L279.226 157.824V157.88H284.28V159ZM291.914 151.342C291.914 152.014 291.722 152.551 291.34 152.952C290.966 153.344 290.467 153.605 289.842 153.736V153.792C290.635 153.885 291.228 154.137 291.62 154.548C292.021 154.959 292.222 155.495 292.222 156.158C292.222 156.746 292.086 157.264 291.816 157.712C291.545 158.16 291.125 158.51 290.556 158.762C289.996 159.014 289.272 159.14 288.386 159.14C287.863 159.14 287.378 159.098 286.93 159.014C286.482 158.939 286.052 158.799 285.642 158.594V157.446C286.062 157.661 286.514 157.824 287 157.936C287.485 158.048 287.952 158.104 288.4 158.104C289.296 158.104 289.94 157.931 290.332 157.586C290.733 157.231 290.934 156.746 290.934 156.13C290.934 155.505 290.686 155.057 290.192 154.786C289.706 154.506 289.02 154.366 288.134 154.366H287.168V153.316H288.148C288.969 153.316 289.59 153.143 290.01 152.798C290.439 152.453 290.654 151.995 290.654 151.426C290.654 150.941 290.49 150.567 290.164 150.306C289.837 150.035 289.394 149.9 288.834 149.9C288.292 149.9 287.83 149.979 287.448 150.138C287.065 150.297 286.687 150.497 286.314 150.74L285.698 149.9C286.052 149.62 286.491 149.377 287.014 149.172C287.546 148.967 288.148 148.864 288.82 148.864C289.865 148.864 290.64 149.097 291.144 149.564C291.657 150.031 291.914 150.623 291.914 151.342ZM293.793 154.73C293.793 154.011 293.854 153.307 293.975 152.616C294.106 151.916 294.335 151.286 294.661 150.726C294.997 150.157 295.464 149.704 296.061 149.368C296.659 149.032 297.429 148.864 298.371 148.864C298.567 148.864 298.782 148.873 299.015 148.892C299.258 148.911 299.454 148.943 299.603 148.99V150.04C299.435 149.984 299.244 149.942 299.029 149.914C298.815 149.886 298.605 149.872 298.399 149.872C297.755 149.872 297.219 149.979 296.789 150.194C296.36 150.409 296.019 150.703 295.767 151.076C295.525 151.449 295.347 151.879 295.235 152.364C295.123 152.849 295.053 153.367 295.025 153.918H295.109C295.324 153.591 295.623 153.316 296.005 153.092C296.388 152.859 296.878 152.742 297.475 152.742C298.343 152.742 299.043 153.008 299.575 153.54C300.107 154.063 300.373 154.809 300.373 155.78C300.373 156.825 300.084 157.647 299.505 158.244C298.936 158.841 298.166 159.14 297.195 159.14C296.561 159.14 295.987 158.981 295.473 158.664C294.96 158.347 294.549 157.861 294.241 157.208C293.943 156.555 293.793 155.729 293.793 154.73ZM297.181 158.104C297.769 158.104 298.245 157.917 298.609 157.544C298.973 157.161 299.155 156.573 299.155 155.78C299.155 155.145 298.992 154.641 298.665 154.268C298.348 153.895 297.867 153.708 297.223 153.708C296.785 153.708 296.402 153.801 296.075 153.988C295.749 154.165 295.492 154.399 295.305 154.688C295.128 154.968 295.039 155.253 295.039 155.542C295.039 155.943 295.119 156.345 295.277 156.746C295.436 157.138 295.674 157.465 295.991 157.726C296.309 157.978 296.705 158.104 297.181 158.104ZM308.315 153.274C308.315 153.993 308.25 154.702 308.119 155.402C307.998 156.093 307.769 156.723 307.433 157.292C307.106 157.852 306.64 158.3 306.033 158.636C305.436 158.972 304.666 159.14 303.723 159.14C303.536 159.14 303.317 159.126 303.065 159.098C302.813 159.079 302.612 159.047 302.463 159V157.95C302.827 158.071 303.238 158.132 303.695 158.132C304.348 158.132 304.885 158.025 305.305 157.81C305.734 157.595 306.075 157.306 306.327 156.942C306.579 156.569 306.761 156.139 306.873 155.654C306.985 155.159 307.05 154.641 307.069 154.1H306.985C306.77 154.417 306.472 154.693 306.089 154.926C305.706 155.15 305.212 155.262 304.605 155.262C303.746 155.262 303.051 155.001 302.519 154.478C301.996 153.946 301.735 153.199 301.735 152.238C301.735 151.538 301.866 150.936 302.127 150.432C302.388 149.928 302.757 149.541 303.233 149.27C303.718 148.999 304.283 148.864 304.927 148.864C305.562 148.864 306.136 149.027 306.649 149.354C307.162 149.671 307.568 150.157 307.867 150.81C308.166 151.454 308.315 152.275 308.315 153.274ZM304.927 149.9C304.348 149.9 303.872 150.091 303.499 150.474C303.135 150.857 302.953 151.44 302.953 152.224C302.953 152.868 303.107 153.377 303.415 153.75C303.732 154.114 304.218 154.296 304.871 154.296C305.319 154.296 305.706 154.207 306.033 154.03C306.36 153.843 306.612 153.61 306.789 153.33C306.976 153.05 307.069 152.761 307.069 152.462C307.069 152.061 306.99 151.664 306.831 151.272C306.672 150.88 306.434 150.553 306.117 150.292C305.8 150.031 305.403 149.9 304.927 149.9ZM316.327 159H309.719V157.978L312.337 155.332C312.832 154.828 313.252 154.38 313.597 153.988C313.952 153.596 314.218 153.213 314.395 152.84C314.572 152.467 314.661 152.051 314.661 151.594C314.661 151.043 314.498 150.628 314.171 150.348C313.844 150.059 313.42 149.914 312.897 149.914C312.402 149.914 311.973 149.998 311.609 150.166C311.245 150.334 310.872 150.567 310.489 150.866L309.831 150.04C310.223 149.713 310.671 149.438 311.175 149.214C311.688 148.981 312.262 148.864 312.897 148.864C313.83 148.864 314.568 149.102 315.109 149.578C315.65 150.054 315.921 150.703 315.921 151.524C315.921 152.047 315.814 152.537 315.599 152.994C315.384 153.451 315.086 153.904 314.703 154.352C314.32 154.8 313.872 155.271 313.359 155.766L311.273 157.824V157.88H316.327V159ZM322.029 159H320.825V152.014C320.825 151.613 320.829 151.291 320.839 151.048C320.848 150.805 320.862 150.553 320.881 150.292C320.731 150.441 320.591 150.567 320.461 150.67C320.339 150.773 320.19 150.903 320.013 151.062L318.949 151.93L318.305 151.104L321.007 149.004H322.029V159Z" fill="black"/>
<line x1="261" y1="175.5" x2="351" y2="175.5" stroke="#F1F1F1"/>
<rect width="90" height="44" transform="translate(261 176)" fill="white"/>
<path d="M283.902 195.342C283.902 196.014 283.711 196.551 283.328 196.952C282.955 197.344 282.455 197.605 281.83 197.736V197.792C282.623 197.885 283.216 198.137 283.608 198.548C284.009 198.959 284.21 199.495 284.21 200.158C284.21 200.746 284.075 201.264 283.804 201.712C283.533 202.16 283.113 202.51 282.544 202.762C281.984 203.014 281.261 203.14 280.374 203.14C279.851 203.14 279.366 203.098 278.918 203.014C278.47 202.939 278.041 202.799 277.63 202.594V201.446C278.05 201.661 278.503 201.824 278.988 201.936C279.473 202.048 279.94 202.104 280.388 202.104C281.284 202.104 281.928 201.931 282.32 201.586C282.721 201.231 282.922 200.746 282.922 200.13C282.922 199.505 282.675 199.057 282.18 198.786C281.695 198.506 281.009 198.366 280.122 198.366H279.156V197.316H280.136C280.957 197.316 281.578 197.143 281.998 196.798C282.427 196.453 282.642 195.995 282.642 195.426C282.642 194.941 282.479 194.567 282.152 194.306C281.825 194.035 281.382 193.9 280.822 193.9C280.281 193.9 279.819 193.979 279.436 194.138C279.053 194.297 278.675 194.497 278.302 194.74L277.686 193.9C278.041 193.62 278.479 193.377 279.002 193.172C279.534 192.967 280.136 192.864 280.808 192.864C281.853 192.864 282.628 193.097 283.132 193.564C283.645 194.031 283.902 194.623 283.902 195.342ZM285.782 198.73C285.782 198.011 285.842 197.307 285.964 196.616C286.094 195.916 286.323 195.286 286.65 194.726C286.986 194.157 287.452 193.704 288.05 193.368C288.647 193.032 289.417 192.864 290.36 192.864C290.556 192.864 290.77 192.873 291.004 192.892C291.246 192.911 291.442 192.943 291.592 192.99V194.04C291.424 193.984 291.232 193.942 291.018 193.914C290.803 193.886 290.593 193.872 290.388 193.872C289.744 193.872 289.207 193.979 288.778 194.194C288.348 194.409 288.008 194.703 287.756 195.076C287.513 195.449 287.336 195.879 287.224 196.364C287.112 196.849 287.042 197.367 287.014 197.918H287.098C287.312 197.591 287.611 197.316 287.994 197.092C288.376 196.859 288.866 196.742 289.464 196.742C290.332 196.742 291.032 197.008 291.564 197.54C292.096 198.063 292.362 198.809 292.362 199.78C292.362 200.825 292.072 201.647 291.494 202.244C290.924 202.841 290.154 203.14 289.184 203.14C288.549 203.14 287.975 202.981 287.462 202.664C286.948 202.347 286.538 201.861 286.23 201.208C285.931 200.555 285.782 199.729 285.782 198.73ZM289.17 202.104C289.758 202.104 290.234 201.917 290.598 201.544C290.962 201.161 291.144 200.573 291.144 199.78C291.144 199.145 290.98 198.641 290.654 198.268C290.336 197.895 289.856 197.708 289.212 197.708C288.773 197.708 288.39 197.801 288.064 197.988C287.737 198.165 287.48 198.399 287.294 198.688C287.116 198.968 287.028 199.253 287.028 199.542C287.028 199.943 287.107 200.345 287.266 200.746C287.424 201.138 287.662 201.465 287.98 201.726C288.297 201.978 288.694 202.104 289.17 202.104ZM300.303 203H293.695V201.978L296.313 199.332C296.808 198.828 297.228 198.38 297.573 197.988C297.928 197.596 298.194 197.213 298.371 196.84C298.549 196.467 298.637 196.051 298.637 195.594C298.637 195.043 298.474 194.628 298.147 194.348C297.821 194.059 297.396 193.914 296.873 193.914C296.379 193.914 295.949 193.998 295.585 194.166C295.221 194.334 294.848 194.567 294.465 194.866L293.807 194.04C294.199 193.713 294.647 193.438 295.151 193.214C295.665 192.981 296.239 192.864 296.873 192.864C297.807 192.864 298.544 193.102 299.085 193.578C299.627 194.054 299.897 194.703 299.897 195.524C299.897 196.047 299.79 196.537 299.575 196.994C299.361 197.451 299.062 197.904 298.679 198.352C298.297 198.8 297.849 199.271 297.335 199.766L295.249 201.824V201.88H300.303V203ZM308.315 197.274C308.315 197.993 308.25 198.702 308.119 199.402C307.998 200.093 307.769 200.723 307.433 201.292C307.106 201.852 306.64 202.3 306.033 202.636C305.436 202.972 304.666 203.14 303.723 203.14C303.536 203.14 303.317 203.126 303.065 203.098C302.813 203.079 302.612 203.047 302.463 203V201.95C302.827 202.071 303.238 202.132 303.695 202.132C304.348 202.132 304.885 202.025 305.305 201.81C305.734 201.595 306.075 201.306 306.327 200.942C306.579 200.569 306.761 200.139 306.873 199.654C306.985 199.159 307.05 198.641 307.069 198.1H306.985C306.77 198.417 306.472 198.693 306.089 198.926C305.706 199.15 305.212 199.262 304.605 199.262C303.746 199.262 303.051 199.001 302.519 198.478C301.996 197.946 301.735 197.199 301.735 196.238C301.735 195.538 301.866 194.936 302.127 194.432C302.388 193.928 302.757 193.541 303.233 193.27C303.718 192.999 304.283 192.864 304.927 192.864C305.562 192.864 306.136 193.027 306.649 193.354C307.162 193.671 307.568 194.157 307.867 194.81C308.166 195.454 308.315 196.275 308.315 197.274ZM304.927 193.9C304.348 193.9 303.872 194.091 303.499 194.474C303.135 194.857 302.953 195.44 302.953 196.224C302.953 196.868 303.107 197.377 303.415 197.75C303.732 198.114 304.218 198.296 304.871 198.296C305.319 198.296 305.706 198.207 306.033 198.03C306.36 197.843 306.612 197.61 306.789 197.33C306.976 197.05 307.069 196.761 307.069 196.462C307.069 196.061 306.99 195.664 306.831 195.272C306.672 194.88 306.434 194.553 306.117 194.292C305.8 194.031 305.403 193.9 304.927 193.9ZM316.327 197.274C316.327 197.993 316.262 198.702 316.131 199.402C316.01 200.093 315.781 200.723 315.445 201.292C315.118 201.852 314.652 202.3 314.045 202.636C313.448 202.972 312.678 203.14 311.735 203.14C311.548 203.14 311.329 203.126 311.077 203.098C310.825 203.079 310.624 203.047 310.475 203V201.95C310.839 202.071 311.25 202.132 311.707 202.132C312.36 202.132 312.897 202.025 313.317 201.81C313.746 201.595 314.087 201.306 314.339 200.942C314.591 200.569 314.773 200.139 314.885 199.654C314.997 199.159 315.062 198.641 315.081 198.1H314.997C314.782 198.417 314.484 198.693 314.101 198.926C313.718 199.15 313.224 199.262 312.617 199.262C311.758 199.262 311.063 199.001 310.531 198.478C310.008 197.946 309.747 197.199 309.747 196.238C309.747 195.538 309.878 194.936 310.139 194.432C310.4 193.928 310.769 193.541 311.245 193.27C311.73 192.999 312.295 192.864 312.939 192.864C313.574 192.864 314.148 193.027 314.661 193.354C315.174 193.671 315.58 194.157 315.879 194.81C316.178 195.454 316.327 196.275 316.327 197.274ZM312.939 193.9C312.36 193.9 311.884 194.091 311.511 194.474C311.147 194.857 310.965 195.44 310.965 196.224C310.965 196.868 311.119 197.377 311.427 197.75C311.744 198.114 312.23 198.296 312.883 198.296C313.331 198.296 313.718 198.207 314.045 198.03C314.372 197.843 314.624 197.61 314.801 197.33C314.988 197.05 315.081 196.761 315.081 196.462C315.081 196.061 315.002 195.664 314.843 195.272C314.684 194.88 314.446 194.553 314.129 194.292C313.812 194.031 313.415 193.9 312.939 193.9ZM323.961 195.342C323.961 196.014 323.769 196.551 323.387 196.952C323.013 197.344 322.514 197.605 321.889 197.736V197.792C322.682 197.885 323.275 198.137 323.667 198.548C324.068 198.959 324.269 199.495 324.269 200.158C324.269 200.746 324.133 201.264 323.863 201.712C323.592 202.16 323.172 202.51 322.603 202.762C322.043 203.014 321.319 203.14 320.433 203.14C319.91 203.14 319.425 203.098 318.977 203.014C318.529 202.939 318.099 202.799 317.689 202.594V201.446C318.109 201.661 318.561 201.824 319.047 201.936C319.532 202.048 319.999 202.104 320.447 202.104C321.343 202.104 321.987 201.931 322.379 201.586C322.78 201.231 322.981 200.746 322.981 200.13C322.981 199.505 322.733 199.057 322.239 198.786C321.753 198.506 321.067 198.366 320.181 198.366H319.215V197.316H320.195C321.016 197.316 321.637 197.143 322.057 196.798C322.486 196.453 322.701 195.995 322.701 195.426C322.701 194.941 322.537 194.567 322.211 194.306C321.884 194.035 321.441 193.9 320.881 193.9C320.339 193.9 319.877 193.979 319.495 194.138C319.112 194.297 318.734 194.497 318.361 194.74L317.745 193.9C318.099 193.62 318.538 193.377 319.061 193.172C319.593 192.967 320.195 192.864 320.867 192.864C321.912 192.864 322.687 193.097 323.191 193.564C323.704 194.031 323.961 194.623 323.961 195.342Z" fill="black"/>
<line x1="261" y1="219.5" x2="351" y2="219.5" stroke="#F1F1F1"/>
<g clip-path="url(#clip5_8507_527436)">
<rect width="32" height="44" transform="translate(351)" fill="white"/>
<line x1="351" y1="0.5" x2="383" y2="0.500003" stroke="#C9C9C9"/>
<line x1="351" y1="43.5" x2="383" y2="43.5" stroke="#C9C9C9"/>
</g>
<g clip-path="url(#clip6_8507_527436)">
<rect width="32" height="44" transform="translate(351 44)" fill="white"/>
<line x1="351" y1="87.5" x2="383" y2="87.5" stroke="#F1F1F1"/>
</g>
<g clip-path="url(#clip7_8507_527436)">
<rect width="32" height="44" transform="translate(351 88)" fill="white"/>
<line x1="351" y1="131.5" x2="383" y2="131.5" stroke="#F1F1F1"/>
</g>
<g clip-path="url(#clip8_8507_527436)">
<rect width="32" height="44" transform="translate(351 132)" fill="white"/>
<line x1="351" y1="175.5" x2="383" y2="175.5" stroke="#F1F1F1"/>
</g>
<g clip-path="url(#clip9_8507_527436)">
<rect width="32" height="44" transform="translate(351 176)" fill="white"/>
<line x1="351" y1="219.5" x2="383" y2="219.5" stroke="#F1F1F1"/>
</g>
<g filter="url(#filter0_d_8507_527436)">
<g clip-path="url(#clip10_8507_527436)">
<rect x="61" y="44" width="200" height="108" rx="4" fill="white"/>
<rect width="200" height="36" transform="translate(61 44)" fill="#F1F1F1"/>
<path d="M76.63 67L75.426 63.906H71.464L70.274 67H69L72.906 56.962H74.04L77.932 67H76.63ZM75.048 62.786L73.928 59.762C73.9 59.6873 73.8533 59.552 73.788 59.356C73.7227 59.16 73.6573 58.9593 73.592 58.754C73.536 58.5393 73.4893 58.376 73.452 58.264C73.3773 58.5533 73.298 58.838 73.214 59.118C73.1393 59.3887 73.074 59.6033 73.018 59.762L71.884 62.786H75.048ZM85.2741 66.132C85.4608 66.132 85.6521 66.118 85.8481 66.09C86.0441 66.062 86.2028 66.0247 86.3241 65.978V66.916C86.1935 66.9813 86.0068 67.0327 85.7641 67.07C85.5215 67.1167 85.2881 67.14 85.0641 67.14C84.6721 67.14 84.3081 67.0747 83.9721 66.944C83.6455 66.804 83.3795 66.566 83.1741 66.23C82.9688 65.894 82.8661 65.4227 82.8661 64.816V60.448H81.8021V59.86L82.8801 59.37L83.3701 57.774H84.0981V59.496H86.2681V60.448H84.0981V64.788C84.0981 65.2453 84.2055 65.586 84.4201 65.81C84.6441 66.0247 84.9288 66.132 85.2741 66.132ZM94.3507 63.234C94.3507 64.4753 94.0334 65.4367 93.3987 66.118C92.7734 66.7993 91.9241 67.14 90.8507 67.14C90.1881 67.14 89.5954 66.9907 89.0727 66.692C88.5594 66.384 88.1534 65.9407 87.8547 65.362C87.5561 64.774 87.4067 64.0647 87.4067 63.234C87.4067 61.9927 87.7147 61.036 88.3307 60.364C88.9561 59.692 89.8101 59.356 90.8927 59.356C91.5647 59.356 92.1621 59.51 92.6847 59.818C93.2074 60.1167 93.6134 60.5553 93.9027 61.134C94.2014 61.7033 94.3507 62.4033 94.3507 63.234ZM88.6807 63.234C88.6807 64.1207 88.8534 64.8253 89.1987 65.348C89.5534 65.8613 90.1134 66.118 90.8787 66.118C91.6347 66.118 92.1901 65.8613 92.5447 65.348C92.8994 64.8253 93.0767 64.1207 93.0767 63.234C93.0767 62.3473 92.8994 61.652 92.5447 61.148C92.1901 60.644 91.6301 60.392 90.8647 60.392C90.0994 60.392 89.5441 60.644 89.1987 61.148C88.8534 61.652 88.6807 62.3473 88.6807 63.234ZM106.212 67H99.282V66.048L104.546 58.124H99.45V57.004H106.072V57.956L100.808 65.88H106.212V67Z" fill="black"/>
<path d="M76.462 103H69.532V102.048L74.796 94.124H69.7V93.004H76.322V93.956L71.058 101.88H76.462V103ZM84.3444 102.132C84.5311 102.132 84.7224 102.118 84.9184 102.09C85.1144 102.062 85.2731 102.025 85.3944 101.978V102.916C85.2638 102.981 85.0771 103.033 84.8344 103.07C84.5918 103.117 84.3584 103.14 84.1344 103.14C83.7424 103.14 83.3784 103.075 83.0424 102.944C82.7158 102.804 82.4498 102.566 82.2444 102.23C82.0391 101.894 81.9364 101.423 81.9364 100.816V96.448H80.8724V95.86L81.9504 95.37L82.4404 93.774H83.1684V95.496H85.3384V96.448H83.1684V100.788C83.1684 101.245 83.2758 101.586 83.4904 101.81C83.7144 102.025 83.9991 102.132 84.3444 102.132ZM93.421 99.234C93.421 100.475 93.1037 101.437 92.469 102.118C91.8437 102.799 90.9944 103.14 89.921 103.14C89.2584 103.14 88.6657 102.991 88.143 102.692C87.6297 102.384 87.2237 101.941 86.925 101.362C86.6264 100.774 86.477 100.065 86.477 99.234C86.477 97.9927 86.785 97.036 87.401 96.364C88.0264 95.692 88.8804 95.356 89.963 95.356C90.635 95.356 91.2324 95.51 91.755 95.818C92.2777 96.1167 92.6837 96.5553 92.973 97.134C93.2717 97.7033 93.421 98.4033 93.421 99.234ZM87.751 99.234C87.751 100.121 87.9237 100.825 88.269 101.348C88.6237 101.861 89.1837 102.118 89.949 102.118C90.705 102.118 91.2604 101.861 91.615 101.348C91.9697 100.825 92.147 100.121 92.147 99.234C92.147 98.3473 91.9697 97.652 91.615 97.148C91.2604 96.644 90.7004 96.392 89.935 96.392C89.1697 96.392 88.6144 96.644 88.269 97.148C87.9237 97.652 87.751 98.3473 87.751 99.234ZM105.45 103L104.246 99.906H100.284L99.0943 103H97.8203L101.726 92.962H102.86L106.752 103H105.45ZM103.868 98.786L102.748 95.762C102.72 95.6873 102.674 95.552 102.608 95.356C102.543 95.16 102.478 94.9593 102.412 94.754C102.356 94.5393 102.31 94.376 102.272 94.264C102.198 94.5533 102.118 94.838 102.034 95.118C101.96 95.3887 101.894 95.6033 101.838 95.762L100.704 98.786H103.868Z" fill="black"/>
<line x1="61" y1="115.5" x2="261" y2="115.5" stroke="#C9C9C9"/>
<path d="M71.618 139H70.358V129.004H75.944V130.11H71.618V133.652H75.678V134.758H71.618V139ZM78.0798 128.682C78.2664 128.682 78.4298 128.747 78.5698 128.878C78.7191 128.999 78.7938 129.195 78.7938 129.466C78.7938 129.737 78.7191 129.937 78.5698 130.068C78.4298 130.189 78.2664 130.25 78.0798 130.25C77.8744 130.25 77.7018 130.189 77.5618 130.068C77.4218 129.937 77.3518 129.737 77.3518 129.466C77.3518 129.195 77.4218 128.999 77.5618 128.878C77.7018 128.747 77.8744 128.682 78.0798 128.682ZM78.6818 131.496V139H77.4498V131.496H78.6818ZM82.2911 139H81.0591V128.36H82.2911V139ZM87.1745 138.132C87.3612 138.132 87.5525 138.118 87.7485 138.09C87.9445 138.062 88.1032 138.025 88.2245 137.978V138.916C88.0938 138.981 87.9072 139.033 87.6645 139.07C87.4218 139.117 87.1885 139.14 86.9645 139.14C86.5725 139.14 86.2085 139.075 85.8725 138.944C85.5458 138.804 85.2798 138.566 85.0745 138.23C84.8692 137.894 84.7665 137.423 84.7665 136.816V132.448H83.7025V131.86L84.7805 131.37L85.2705 129.774H85.9985V131.496H88.1685V132.448H85.9985V136.788C85.9985 137.245 86.1058 137.586 86.3205 137.81C86.5445 138.025 86.8292 138.132 87.1745 138.132ZM92.6251 131.356C93.2598 131.356 93.8104 131.496 94.2771 131.776C94.7438 132.056 95.0984 132.453 95.3411 132.966C95.5931 133.47 95.7191 134.063 95.7191 134.744V135.486H90.5811C90.5998 136.335 90.8144 136.984 91.2251 137.432C91.6451 137.871 92.2284 138.09 92.9751 138.09C93.4511 138.09 93.8711 138.048 94.2351 137.964C94.6084 137.871 94.9911 137.74 95.3831 137.572V138.65C95.0004 138.818 94.6224 138.939 94.2491 139.014C93.8758 139.098 93.4324 139.14 92.9191 139.14C92.2004 139.14 91.5704 138.995 91.0291 138.706C90.4878 138.417 90.0631 137.987 89.7551 137.418C89.4564 136.849 89.3071 136.144 89.3071 135.304C89.3071 134.483 89.4424 133.778 89.7131 133.19C89.9931 132.602 90.3804 132.149 90.8751 131.832C91.3791 131.515 91.9624 131.356 92.6251 131.356ZM92.6111 132.364C92.0231 132.364 91.5564 132.555 91.2111 132.938C90.8751 133.311 90.6744 133.834 90.6091 134.506H94.4311C94.4218 133.871 94.2724 133.358 93.9831 132.966C93.6938 132.565 93.2364 132.364 92.6111 132.364ZM101.129 131.356C101.269 131.356 101.419 131.365 101.577 131.384C101.736 131.393 101.881 131.412 102.011 131.44L101.857 132.574C101.736 132.546 101.601 132.523 101.451 132.504C101.302 132.485 101.167 132.476 101.045 132.476C100.663 132.476 100.303 132.583 99.9675 132.798C99.6315 133.003 99.3608 133.297 99.1555 133.68C98.9595 134.053 98.8615 134.492 98.8615 134.996V139H97.6295V131.496H98.6375L98.7775 132.868H98.8335C99.0668 132.457 99.3748 132.103 99.7575 131.804C100.149 131.505 100.607 131.356 101.129 131.356Z" fill="black"/>
</g>
<rect x="60.5" y="43.5" width="201" height="109" rx="4.5" stroke="black" stroke-opacity="0.15"/>
</g>
<g filter="url(#filter1_d_8507_527436)">
<mask id="path-42-outside-1_8507_527436" maskUnits="userSpaceOnUse" x="196" y="54" width="16" height="19" fill="black">
<rect fill="white" x="196" y="54" width="16" height="19"/>
<path fill-rule="evenodd" clip-rule="evenodd" d="M200.836 65L199.949 63.6453C199.344 62.7203 198.054 62.3829 197.068 62.89L197.298 62.7718C197.053 62.8977 196.935 63.2114 197.036 63.4721L198.263 66.6474C198.458 67.1508 198.955 67.8627 199.367 68.2203C199.367 68.2203 201.836 70.2639 201.836 71.03V72H205.836L206.836 70L207.836 72H208.836V71.03C208.836 70.2639 210.344 67.8507 210.344 67.8507C210.622 67.3816 210.854 66.5552 210.854 66.0066V61.9718C210.836 61.0785 210.076 60.3545 209.139 60.3545C208.671 60.3545 208.291 60.7165 208.291 61.1634V61.4866C208.291 60.5933 207.532 59.8693 206.595 59.8693C206.126 59.8693 205.746 60.2313 205.746 60.6782V61.0013C205.746 60.108 204.987 59.3841 204.05 59.3841C203.581 59.3841 203.201 59.7461 203.201 60.193V60.5161C203.201 60.3726 203.186 60.2584 203.157 60.168L202.898 56.0012C202.863 55.4378 202.388 55 201.836 55C201.279 55 200.836 55.4476 200.836 55.9998V60V65ZM207.854 64H208.854V68H207.854V64ZM205.854 64H206.854V68H205.854V64ZM203.854 64H204.854V68H203.854V64Z"/>
</mask>
<path fill-rule="evenodd" clip-rule="evenodd" d="M200.836 65L199.949 63.6453C199.344 62.7203 198.054 62.3829 197.068 62.89L197.298 62.7718C197.053 62.8977 196.935 63.2114 197.036 63.4721L198.263 66.6474C198.458 67.1508 198.955 67.8627 199.367 68.2203C199.367 68.2203 201.836 70.2639 201.836 71.03V72H205.836L206.836 70L207.836 72H208.836V71.03C208.836 70.2639 210.344 67.8507 210.344 67.8507C210.622 67.3816 210.854 66.5552 210.854 66.0066V61.9718C210.836 61.0785 210.076 60.3545 209.139 60.3545C208.671 60.3545 208.291 60.7165 208.291 61.1634V61.4866C208.291 60.5933 207.532 59.8693 206.595 59.8693C206.126 59.8693 205.746 60.2313 205.746 60.6782V61.0013C205.746 60.108 204.987 59.3841 204.05 59.3841C203.581 59.3841 203.201 59.7461 203.201 60.193V60.5161C203.201 60.3726 203.186 60.2584 203.157 60.168L202.898 56.0012C202.863 55.4378 202.388 55 201.836 55C201.279 55 200.836 55.4476 200.836 55.9998V60V65ZM207.854 64H208.854V68H207.854V64ZM205.854 64H206.854V68H205.854V64ZM203.854 64H204.854V68H203.854V64Z" fill="white"/>
<path d="M200.836 65L199.999 65.5476L201.836 68.354V65H200.836ZM199.949 63.6453L200.786 63.0977L199.949 63.6453ZM197.036 63.4721L196.103 63.8327L197.036 63.4721ZM198.263 66.6474L199.196 66.2869L198.263 66.6474ZM199.367 68.2203L198.711 68.9753L198.72 68.9831L198.729 68.9907L199.367 68.2203ZM201.836 72H200.836V73H201.836V72ZM205.836 72V73H206.454L206.73 72.4472L205.836 72ZM206.836 70L207.73 69.5528L206.836 67.7639L205.941 69.5528L206.836 70ZM207.836 72L206.941 72.4472L207.218 73H207.836V72ZM208.836 72V73H209.836V72H208.836ZM210.344 67.8507L211.192 68.3808L211.199 68.3706L211.205 68.3602L210.344 67.8507ZM210.854 61.9718H211.854V61.9617L211.853 61.9516L210.854 61.9718ZM203.157 60.168L202.158 60.23L202.166 60.3578L202.206 60.4795L203.157 60.168ZM202.898 56.0012L201.9 56.0632V56.0632L202.898 56.0012ZM200.836 55.9998H199.836H200.836ZM208.854 64H209.854V63H208.854V64ZM208.854 68V69H209.854V68H208.854ZM207.854 68H206.854V69H207.854V68ZM207.854 64V63H206.854V64H207.854ZM206.854 64H207.854V63H206.854V64ZM206.854 68V69H207.854V68H206.854ZM205.854 68H204.854V69H205.854V68ZM205.854 64V63H204.854V64H205.854ZM204.854 64H205.854V63H204.854V64ZM204.854 68V69H205.854V68H204.854ZM203.854 68H202.854V69H203.854V68ZM203.854 64V63H202.854V64H203.854ZM201.672 64.4524L200.786 63.0977L199.112 64.193L199.999 65.5476L201.672 64.4524ZM200.786 63.0977C199.898 61.7415 198.049 61.2611 196.61 62.0006L197.525 63.7793C198.059 63.5047 198.789 63.6992 199.112 64.193L200.786 63.0977ZM197.525 63.7793L197.755 63.6612L196.84 61.8825L196.61 62.0006L197.525 63.7793ZM196.84 61.8825C196.131 62.2471 195.822 63.1052 196.103 63.8327L197.969 63.1116C198.014 63.2295 198.005 63.3396 197.974 63.4213C197.944 63.5027 197.876 63.5986 197.755 63.6612L196.84 61.8825ZM196.103 63.8327L197.331 67.0079L199.196 66.2869L197.969 63.1116L196.103 63.8327ZM197.331 67.0079C197.583 67.6618 198.175 68.5096 198.711 68.9753L200.022 67.4653C199.735 67.2158 199.333 66.6398 199.196 66.2869L197.331 67.0079ZM199.367 68.2203C198.729 68.9907 198.729 68.9906 198.729 68.9906C198.729 68.9906 198.729 68.9905 198.729 68.9905C198.729 68.9905 198.729 68.9905 198.729 68.9906C198.729 68.9907 198.729 68.9909 198.73 68.9912C198.73 68.9919 198.732 68.993 198.734 68.9947C198.738 68.9979 198.744 69.003 198.752 69.0099C198.768 69.0237 198.793 69.0445 198.825 69.0716C198.889 69.1259 198.981 69.205 199.092 69.3025C199.315 69.4985 199.609 69.7648 199.9 70.051C200.196 70.3416 200.468 70.6324 200.659 70.8795C200.755 71.0037 200.813 71.0948 200.843 71.1524C200.884 71.23 200.836 71.1741 200.836 71.03H202.836C202.836 70.6944 202.71 70.407 202.616 70.2262C202.511 70.0255 202.376 69.8312 202.241 69.6561C201.969 69.3045 201.624 68.9407 201.302 68.6247C200.976 68.3042 200.653 68.0118 200.413 67.8007C200.292 67.6947 200.191 67.6081 200.12 67.5476C200.085 67.5174 200.056 67.4935 200.037 67.477C200.027 67.4687 200.019 67.4623 200.014 67.4577C200.011 67.4555 200.009 67.4537 200.007 67.4524C200.006 67.4517 200.006 67.4512 200.005 67.4508C200.005 67.4506 200.005 67.4504 200.005 67.4503C200.005 67.4502 200.004 67.4501 200.004 67.4501C200.004 67.45 200.004 67.45 199.367 68.2203ZM200.836 71.03V72H202.836V71.03H200.836ZM201.836 73H205.836V71H201.836V73ZM206.73 72.4472L207.73 70.4472L205.941 69.5528L204.941 71.5528L206.73 72.4472ZM205.941 70.4472L206.941 72.4472L208.73 71.5528L207.73 69.5528L205.941 70.4472ZM207.836 73H208.836V71H207.836V73ZM209.836 72V71.03H207.836V72H209.836ZM209.836 71.03C209.836 71.0658 209.846 70.9439 209.992 70.6C210.116 70.3073 210.288 69.9649 210.47 69.6279C210.65 69.2941 210.831 68.9809 210.968 68.7503C211.037 68.6354 211.093 68.5418 211.133 68.4775C211.152 68.4453 211.168 68.4206 211.178 68.4041C211.183 68.3959 211.187 68.3897 211.189 68.3858C211.19 68.3839 211.191 68.3825 211.192 68.3816C211.192 68.3812 211.192 68.3809 211.192 68.3808C211.192 68.3807 211.192 68.3807 211.192 68.3807C211.192 68.3807 211.192 68.3807 211.192 68.3807C211.192 68.3808 211.192 68.3808 210.344 67.8507C209.496 67.3205 209.496 67.3206 209.496 67.3207C209.496 67.3207 209.496 67.3208 209.496 67.3209C209.496 67.321 209.496 67.3212 209.496 67.3214C209.496 67.3219 209.495 67.3225 209.495 67.3232C209.494 67.3247 209.493 67.3268 209.491 67.3294C209.488 67.3347 209.483 67.3422 209.477 67.3518C209.465 67.3711 209.448 67.3989 209.426 67.4342C209.383 67.5049 209.322 67.6059 209.249 67.7291C209.103 67.9749 208.907 68.3129 208.71 68.6782C208.515 69.0402 208.309 69.4448 208.15 69.82C208.013 70.1441 207.836 70.6111 207.836 71.03H209.836ZM211.205 68.3602C211.403 68.0261 211.559 67.6131 211.667 67.2258C211.774 66.839 211.854 66.4009 211.854 66.0066H209.854C209.854 66.161 209.817 66.4103 209.74 66.6912C209.662 66.9714 209.564 67.2061 209.484 67.3412L211.205 68.3602ZM211.854 66.0066V61.9718H209.854V66.0066H211.854ZM211.853 61.9516C211.824 60.4818 210.588 59.3545 209.139 59.3545V61.3545C209.565 61.3545 209.847 61.6752 209.854 61.992L211.853 61.9516ZM209.139 59.3545C208.164 59.3545 207.291 60.1198 207.291 61.1634H209.291C209.291 61.2317 209.26 61.2858 209.229 61.3152C209.199 61.3437 209.165 61.3545 209.139 61.3545V59.3545ZM207.291 61.1634V61.4866H209.291V61.1634H207.291ZM209.291 61.4866C209.291 59.9966 208.038 58.8693 206.595 58.8693V60.8693C207.025 60.8693 207.291 61.19 207.291 61.4866H209.291ZM206.595 58.8693C205.619 58.8693 204.746 59.6346 204.746 60.6782H206.746C206.746 60.7465 206.715 60.8005 206.685 60.8299C206.655 60.8585 206.621 60.8693 206.595 60.8693V58.8693ZM204.746 60.6782V61.0013H206.746V60.6782H204.746ZM206.746 61.0013C206.746 59.5113 205.494 58.3841 204.05 58.3841V60.3841C204.48 60.3841 204.746 60.7047 204.746 61.0013H206.746ZM204.05 58.3841C203.074 58.3841 202.201 59.1494 202.201 60.193H204.201C204.201 60.2613 204.171 60.3153 204.14 60.3447C204.11 60.3733 204.076 60.3841 204.05 60.3841V58.3841ZM202.201 60.193V60.5161H204.201V60.193H202.201ZM204.201 60.5161C204.201 60.3088 204.18 60.0809 204.107 59.8565L202.206 60.4795C202.198 60.4555 202.198 60.4444 202.199 60.4516C202.199 60.4587 202.201 60.4791 202.201 60.5161H204.201ZM204.155 60.106L203.896 55.9392L201.9 56.0632L202.158 60.23L204.155 60.106ZM203.896 55.9392C203.828 54.845 202.912 54 201.836 54V56C201.844 56 201.86 56.0035 201.877 56.0193C201.893 56.0344 201.899 56.0498 201.9 56.0632L203.896 55.9392ZM201.836 54C200.725 54 199.836 54.8977 199.836 55.9998H201.836V56V54ZM199.836 55.9998V60H201.836V55.9998H199.836ZM199.836 60V65H201.836V60H199.836ZM207.854 65H208.854V63H207.854V65ZM207.854 64V68H209.854V64H207.854ZM208.854 67H207.854V69H208.854V67ZM208.854 68V64H206.854V68H208.854ZM205.854 65H206.854V63H205.854V65ZM205.854 64V68H207.854V64H205.854ZM206.854 67H205.854V69H206.854V67ZM206.854 68V64H204.854V68H206.854ZM203.854 65H204.854V63H203.854V65ZM203.854 64V68H205.854V64H203.854ZM204.854 67H203.854V69H204.854V67ZM204.854 68V64H202.854V68H204.854Z" fill="black" fill-opacity="0.8" mask="url(#path-42-outside-1_8507_527436)"/>
</g>
<defs>
<filter id="filter0_d_8507_527436" x="56" y="43" width="210" height="118" filterUnits="userSpaceOnUse" color-interpolation-filters="sRGB">
<feFlood flood-opacity="0" result="BackgroundImageFix"/>
<feColorMatrix in="SourceAlpha" type="matrix" values="0 0 0 0 0 0 0 0 0 0 0 0 0 0 0 0 0 0 127 0" result="hardAlpha"/>
<feOffset dy="4"/>
<feGaussianBlur stdDeviation="2"/>
<feColorMatrix type="matrix" values="0 0 0 0 0 0 0 0 0 0 0 0 0 0 0 0 0 0 0.25 0"/>
<feBlend mode="normal" in2="BackgroundImageFix" result="effect1_dropShadow_8507_527436"/>
<feBlend mode="normal" in="SourceGraphic" in2="effect1_dropShadow_8507_527436" result="shape"/>
</filter>
<filter id="filter1_d_8507_527436" x="193" y="52" width="21.8535" height="25" filterUnits="userSpaceOnUse" color-interpolation-filters="sRGB">
<feFlood flood-opacity="0" result="BackgroundImageFix"/>
<feColorMatrix in="SourceAlpha" type="matrix" values="0 0 0 0 0 0 0 0 0 0 0 0 0 0 0 0 0 0 127 0" result="hardAlpha"/>
<feOffset dy="1"/>
<feGaussianBlur stdDeviation="1.5"/>
<feColorMatrix type="matrix" values="0 0 0 0 0 0 0 0 0 0 0 0 0 0 0 0 0 0 0.2 0"/>
<feBlend mode="normal" in2="BackgroundImageFix" result="effect1_dropShadow_8507_527436"/>
<feBlend mode="normal" in="SourceGraphic" in2="effect1_dropShadow_8507_527436" result="shape"/>
</filter>
<clipPath id="clip0_8507_527436">
<rect width="16" height="44" fill="white" transform="translate(45)"/>
</clipPath>
<clipPath id="clip1_8507_527436">
<rect width="16" height="44" fill="white" transform="translate(45 44)"/>
</clipPath>
<clipPath id="clip2_8507_527436">
<rect width="16" height="44" fill="white" transform="translate(45 88)"/>
</clipPath>
<clipPath id="clip3_8507_527436">
<rect width="16" height="44" fill="white" transform="translate(45 132)"/>
</clipPath>
<clipPath id="clip4_8507_527436">
<rect width="16" height="44" fill="white" transform="translate(45 176)"/>
</clipPath>
<clipPath id="clip5_8507_527436">
<rect width="32" height="44" fill="white" transform="translate(351)"/>
</clipPath>
<clipPath id="clip6_8507_527436">
<rect width="32" height="44" fill="white" transform="translate(351 44)"/>
</clipPath>
<clipPath id="clip7_8507_527436">
<rect width="32" height="44" fill="white" transform="translate(351 88)"/>
</clipPath>
<clipPath id="clip8_8507_527436">
<rect width="32" height="44" fill="white" transform="translate(351 132)"/>
</clipPath>
<clipPath id="clip9_8507_527436">
<rect width="32" height="44" fill="white" transform="translate(351 176)"/>
</clipPath>
<clipPath id="clip10_8507_527436">
<rect x="61" y="44" width="200" height="108" rx="4" fill="white"/>
</clipPath>
</defs>
</svg>
