<svg width="412" height="312" viewBox="0 0 412 312" fill="none" xmlns="http://www.w3.org/2000/svg">
<rect width="412" height="312" fill="white"/>
<rect width="90" height="44" transform="translate(20 24)" fill="white"/>
<path d="M40.284 41.004C41.5813 41.004 42.524 41.2747 43.112 41.816C43.7093 42.348 44.008 43.0947 44.008 44.056C44.008 44.6253 43.8867 45.1573 43.644 45.652C43.4013 46.1467 42.9907 46.548 42.412 46.856C41.8427 47.164 41.068 47.318 40.088 47.318H39.094V51H37.302V41.004H40.284ZM40.172 42.488H39.094V45.834H39.906C40.634 45.834 41.194 45.7033 41.586 45.442C41.9873 45.1713 42.188 44.7327 42.188 44.126C42.188 43.5753 42.0247 43.1647 41.698 42.894C41.3713 42.6233 40.8627 42.488 40.172 42.488ZM49.778 43.272C49.8993 43.272 50.0346 43.2813 50.184 43.3C50.3333 43.3093 50.4546 43.3233 50.548 43.342L50.394 44.98C50.3006 44.9613 50.184 44.9473 50.044 44.938C49.9133 44.9193 49.8013 44.91 49.708 44.91C49.3346 44.91 48.9846 44.9893 48.658 45.148C48.3313 45.2973 48.0653 45.5307 47.86 45.848C47.664 46.1653 47.566 46.5713 47.566 47.066V51H45.802V43.412H47.16L47.412 44.728H47.496C47.72 44.3267 48.028 43.986 48.42 43.706C48.812 43.4167 49.2646 43.272 49.778 43.272ZM58.4569 47.192C58.4569 48.452 58.1302 49.4273 57.4769 50.118C56.8235 50.7993 55.9369 51.14 54.8169 51.14C54.1262 51.14 53.5102 50.986 52.9689 50.678C52.4275 50.37 52.0029 49.922 51.6949 49.334C51.3869 48.746 51.2329 48.032 51.2329 47.192C51.2329 45.932 51.5549 44.966 52.1989 44.294C52.8522 43.6127 53.7389 43.272 54.8589 43.272C55.5589 43.272 56.1795 43.426 56.7209 43.734C57.2622 44.0327 57.6869 44.476 57.9949 45.064C58.3029 45.6427 58.4569 46.352 58.4569 47.192ZM53.0389 47.192C53.0389 47.9947 53.1789 48.6153 53.4589 49.054C53.7482 49.4927 54.2102 49.712 54.8449 49.712C55.4702 49.712 55.9275 49.4927 56.2169 49.054C56.5062 48.6153 56.6509 47.9947 56.6509 47.192C56.6509 46.3893 56.5062 45.7733 56.2169 45.344C55.9275 44.9147 55.4655 44.7 54.8309 44.7C54.1962 44.7 53.7389 44.9147 53.4589 45.344C53.1789 45.7733 53.0389 46.3893 53.0389 47.192ZM60.1825 41.41C60.1825 41.0647 60.2758 40.8267 60.4625 40.696C60.6585 40.556 60.8918 40.486 61.1625 40.486C61.4238 40.486 61.6525 40.556 61.8485 40.696C62.0445 40.8267 62.1425 41.0647 62.1425 41.41C62.1425 41.7553 62.0445 41.998 61.8485 42.138C61.6525 42.278 61.4238 42.348 61.1625 42.348C60.8918 42.348 60.6585 42.278 60.4625 42.138C60.2758 41.998 60.1825 41.7553 60.1825 41.41ZM59.5525 54.36C59.3192 54.36 59.0905 54.3413 58.8665 54.304C58.6425 54.276 58.4512 54.2387 58.2925 54.192V52.792C58.4512 52.8293 58.6052 52.862 58.7545 52.89C58.9038 52.918 59.0718 52.932 59.2585 52.932C59.5478 52.932 59.7905 52.8527 59.9865 52.694C60.1825 52.5353 60.2805 52.2227 60.2805 51.756V43.412H62.0445V51.938C62.0445 52.638 61.8485 53.2167 61.4565 53.674C61.0738 54.1313 60.4392 54.36 59.5525 54.36ZM67.352 43.272C68.3693 43.272 69.172 43.5753 69.76 44.182C70.3573 44.7887 70.656 45.6333 70.656 46.716V47.612H65.644C65.6627 48.3027 65.854 48.8393 66.218 49.222C66.582 49.5953 67.086 49.782 67.73 49.782C68.2153 49.782 68.654 49.7353 69.046 49.642C69.438 49.5393 69.8393 49.3947 70.25 49.208V50.622C69.8767 50.7993 69.4893 50.93 69.088 51.014C68.6867 51.098 68.206 51.14 67.646 51.14C66.8993 51.14 66.2413 51 65.672 50.72C65.1027 50.4307 64.6547 50.0013 64.328 49.432C64.0107 48.8533 63.852 48.13 63.852 47.262C63.852 45.9647 64.1693 44.9753 64.804 44.294C65.448 43.6127 66.2973 43.272 67.352 43.272ZM67.352 44.574C66.876 44.574 66.4887 44.728 66.19 45.036C65.9007 45.3347 65.7327 45.7827 65.686 46.38H68.948C68.9387 45.8573 68.8033 45.428 68.542 45.092C68.29 44.7467 67.8933 44.574 67.352 44.574ZM75.5008 51.14C74.4181 51.14 73.5594 50.8273 72.9248 50.202C72.2994 49.5767 71.9868 48.592 71.9868 47.248C71.9868 46.3147 72.1408 45.5587 72.4488 44.98C72.7661 44.392 73.2001 43.9627 73.7508 43.692C74.3014 43.412 74.9314 43.272 75.6408 43.272C76.1074 43.272 76.5274 43.3187 76.9008 43.412C77.2834 43.5053 77.6054 43.6173 77.8668 43.748L77.3488 45.134C77.0501 45.022 76.7561 44.9287 76.4668 44.854C76.1774 44.77 75.9021 44.728 75.6408 44.728C74.4088 44.728 73.7928 45.5633 73.7928 47.234C73.7928 48.046 73.9468 48.6573 74.2548 49.068C74.5721 49.4787 75.0248 49.684 75.6128 49.684C76.0328 49.684 76.4061 49.6327 76.7328 49.53C77.0688 49.4273 77.3814 49.2873 77.6708 49.11V50.636C77.3814 50.8133 77.0688 50.9393 76.7328 51.014C76.3968 51.098 75.9861 51.14 75.5008 51.14ZM82.3885 49.726C82.6031 49.726 82.8131 49.7073 83.0185 49.67C83.2331 49.6233 83.4291 49.572 83.6065 49.516V50.832C83.4198 50.9253 83.1771 51 82.8785 51.056C82.5798 51.112 82.2671 51.14 81.9405 51.14C81.5018 51.14 81.1051 51.07 80.7505 50.93C80.4051 50.79 80.1298 50.5427 79.9245 50.188C79.7191 49.8333 79.6165 49.334 79.6165 48.69V44.742H78.5945V43.972L79.7145 43.356L80.2745 41.746H81.3805V43.412H83.5365V44.742H81.3805V48.676C81.3805 49.0307 81.4738 49.2967 81.6605 49.474C81.8565 49.642 82.0991 49.726 82.3885 49.726ZM90.302 48.802C90.302 49.5673 90.0266 50.1507 89.476 50.552C88.9346 50.944 88.1553 51.14 87.138 51.14C86.606 51.14 86.1486 51.1027 85.766 51.028C85.3926 50.9533 85.0286 50.8367 84.674 50.678V49.18C85.0473 49.3573 85.458 49.5067 85.906 49.628C86.3633 49.7493 86.7926 49.81 87.194 49.81C87.6793 49.81 88.0293 49.7353 88.244 49.586C88.4586 49.4367 88.566 49.236 88.566 48.984C88.566 48.8347 88.524 48.704 88.44 48.592C88.356 48.4707 88.1926 48.34 87.95 48.2C87.7073 48.06 87.3386 47.8873 86.844 47.682C86.3586 47.486 85.9526 47.29 85.626 47.094C85.3086 46.898 85.066 46.6647 84.898 46.394C84.7393 46.1233 84.66 45.7733 84.66 45.344C84.66 44.6627 84.9306 44.1493 85.472 43.804C86.0133 43.4493 86.7273 43.272 87.614 43.272C88.0806 43.272 88.5193 43.3187 88.93 43.412C89.35 43.5053 89.77 43.6453 90.19 43.832L89.63 45.134C89.2753 44.9847 88.93 44.8587 88.594 44.756C88.258 44.6533 87.9126 44.602 87.558 44.602C86.7833 44.602 86.396 44.8213 86.396 45.26C86.396 45.4187 86.4426 45.554 86.536 45.666C86.6386 45.778 86.8113 45.8993 87.054 46.03C87.306 46.1513 87.6606 46.3007 88.118 46.478C88.566 46.6553 88.9533 46.842 89.28 47.038C89.6066 47.2247 89.8586 47.458 90.036 47.738C90.2133 48.0087 90.302 48.3633 90.302 48.802Z" fill="black"/>
<line x1="20" y1="24.5" x2="110" y2="24.5" stroke="#C9C9C9"/>
<line x1="20" y1="67.5" x2="110" y2="67.5" stroke="#C9C9C9"/>
<rect width="90" height="44" transform="translate(20 68)" fill="white"/>
<path d="M42.902 87.342C42.902 88.014 42.7107 88.5507 42.328 88.952C41.9547 89.344 41.4553 89.6053 40.83 89.736V89.792C41.6233 89.8853 42.216 90.1373 42.608 90.548C43.0093 90.9587 43.21 91.4953 43.21 92.158C43.21 92.746 43.0747 93.264 42.804 93.712C42.5333 94.16 42.1133 94.51 41.544 94.762C40.984 95.014 40.2607 95.14 39.374 95.14C38.8513 95.14 38.366 95.098 37.918 95.014C37.47 94.9393 37.0407 94.7993 36.63 94.594V93.446C37.05 93.6607 37.5027 93.824 37.988 93.936C38.4733 94.048 38.94 94.104 39.388 94.104C40.284 94.104 40.928 93.9313 41.32 93.586C41.7213 93.2313 41.922 92.746 41.922 92.13C41.922 91.5047 41.6747 91.0567 41.18 90.786C40.6947 90.506 40.0087 90.366 39.122 90.366H38.156V89.316H39.136C39.9573 89.316 40.578 89.1433 40.998 88.798C41.4273 88.4527 41.642 87.9953 41.642 87.426C41.642 86.9407 41.4787 86.5673 41.152 86.306C40.8253 86.0353 40.382 85.9 39.822 85.9C39.2807 85.9 38.8187 85.9793 38.436 86.138C38.0533 86.2967 37.6753 86.4973 37.302 86.74L36.686 85.9C37.0407 85.62 37.4793 85.3773 38.002 85.172C38.534 84.9667 39.136 84.864 39.808 84.864C40.8533 84.864 41.628 85.0973 42.132 85.564C42.6453 86.0307 42.902 86.6233 42.902 87.342ZM51.2917 95H44.6837V93.978L47.3017 91.332C47.7964 90.828 48.2164 90.38 48.5617 89.988C48.9164 89.596 49.1824 89.2133 49.3597 88.84C49.5371 88.4667 49.6257 88.0513 49.6257 87.594C49.6257 87.0433 49.4624 86.628 49.1357 86.348C48.8091 86.0587 48.3844 85.914 47.8617 85.914C47.3671 85.914 46.9377 85.998 46.5737 86.166C46.2097 86.334 45.8364 86.5673 45.4537 86.866L44.7957 86.04C45.1877 85.7133 45.6357 85.438 46.1397 85.214C46.6531 84.9807 47.2271 84.864 47.8617 84.864C48.7951 84.864 49.5324 85.102 50.0737 85.578C50.6151 86.054 50.8857 86.7027 50.8857 87.524C50.8857 88.0467 50.7784 88.5367 50.5637 88.994C50.3491 89.4513 50.0504 89.904 49.6677 90.352C49.2851 90.8 48.8371 91.2713 48.3237 91.766L46.2377 93.824V93.88H51.2917V95Z" fill="black"/>
<line x1="20" y1="111.5" x2="110" y2="111.5" stroke="#F1F1F1"/>
<rect width="90" height="44" transform="translate(20 112)" fill="white"/>
<path d="M42.902 131.342C42.902 132.014 42.7107 132.551 42.328 132.952C41.9547 133.344 41.4553 133.605 40.83 133.736V133.792C41.6233 133.885 42.216 134.137 42.608 134.548C43.0093 134.959 43.21 135.495 43.21 136.158C43.21 136.746 43.0747 137.264 42.804 137.712C42.5333 138.16 42.1133 138.51 41.544 138.762C40.984 139.014 40.2607 139.14 39.374 139.14C38.8513 139.14 38.366 139.098 37.918 139.014C37.47 138.939 37.0407 138.799 36.63 138.594V137.446C37.05 137.661 37.5027 137.824 37.988 137.936C38.4733 138.048 38.94 138.104 39.388 138.104C40.284 138.104 40.928 137.931 41.32 137.586C41.7213 137.231 41.922 136.746 41.922 136.13C41.922 135.505 41.6747 135.057 41.18 134.786C40.6947 134.506 40.0087 134.366 39.122 134.366H38.156V133.316H39.136C39.9573 133.316 40.578 133.143 40.998 132.798C41.4273 132.453 41.642 131.995 41.642 131.426C41.642 130.941 41.4787 130.567 41.152 130.306C40.8253 130.035 40.382 129.9 39.822 129.9C39.2807 129.9 38.8187 129.979 38.436 130.138C38.0533 130.297 37.6753 130.497 37.302 130.74L36.686 129.9C37.0407 129.62 37.4793 129.377 38.002 129.172C38.534 128.967 39.136 128.864 39.808 128.864C40.8533 128.864 41.628 129.097 42.132 129.564C42.6453 130.031 42.902 130.623 42.902 131.342ZM51.3337 133.988C51.3337 135.071 51.2217 135.995 50.9977 136.76C50.7737 137.525 50.4144 138.113 49.9197 138.524C49.4344 138.935 48.7951 139.14 48.0017 139.14C46.8724 139.14 46.0371 138.687 45.4957 137.782C44.9637 136.867 44.6977 135.603 44.6977 133.988C44.6977 132.905 44.8051 131.981 45.0197 131.216C45.2437 130.451 45.5984 129.867 46.0837 129.466C46.5691 129.055 47.2084 128.85 48.0017 128.85C49.1217 128.85 49.9571 129.303 50.5077 130.208C51.0584 131.104 51.3337 132.364 51.3337 133.988ZM45.9297 133.988C45.9297 135.36 46.0837 136.387 46.3917 137.068C46.7091 137.749 47.2457 138.09 48.0017 138.09C48.7484 138.09 49.2804 137.754 49.5977 137.082C49.9244 136.401 50.0877 135.369 50.0877 133.988C50.0877 132.625 49.9244 131.603 49.5977 130.922C49.2804 130.241 48.7484 129.9 48.0017 129.9C47.2457 129.9 46.7091 130.241 46.3917 130.922C46.0837 131.603 45.9297 132.625 45.9297 133.988ZM58.9254 131.342C58.9254 132.014 58.7341 132.551 58.3514 132.952C57.9781 133.344 57.4788 133.605 56.8534 133.736V133.792C57.6468 133.885 58.2394 134.137 58.6314 134.548C59.0328 134.959 59.2334 135.495 59.2334 136.158C59.2334 136.746 59.0981 137.264 58.8274 137.712C58.5568 138.16 58.1368 138.51 57.5674 138.762C57.0074 139.014 56.2841 139.14 55.3974 139.14C54.8748 139.14 54.3894 139.098 53.9414 139.014C53.4934 138.939 53.0641 138.799 52.6534 138.594V137.446C53.0734 137.661 53.5261 137.824 54.0114 137.936C54.4968 138.048 54.9634 138.104 55.4114 138.104C56.3074 138.104 56.9514 137.931 57.3434 137.586C57.7448 137.231 57.9454 136.746 57.9454 136.13C57.9454 135.505 57.6981 135.057 57.2034 134.786C56.7181 134.506 56.0321 134.366 55.1454 134.366H54.1794V133.316H55.1594C55.9808 133.316 56.6014 133.143 57.0214 132.798C57.4508 132.453 57.6654 131.995 57.6654 131.426C57.6654 130.941 57.5021 130.567 57.1754 130.306C56.8488 130.035 56.4054 129.9 55.8454 129.9C55.3041 129.9 54.8421 129.979 54.4594 130.138C54.0768 130.297 53.6988 130.497 53.3254 130.74L52.7094 129.9C53.0641 129.62 53.5028 129.377 54.0254 129.172C54.5574 128.967 55.1594 128.864 55.8314 128.864C56.8768 128.864 57.6514 129.097 58.1554 129.564C58.6688 130.031 58.9254 130.623 58.9254 131.342Z" fill="black"/>
<line x1="20" y1="155.5" x2="110" y2="155.5" stroke="#F1F1F1"/>
<rect width="90" height="44" transform="translate(20 156)" fill="white"/>
<path d="M39.99 172.864C40.8673 172.864 41.586 173.069 42.146 173.48C42.706 173.891 42.986 174.483 42.986 175.258C42.986 175.659 42.8973 176.009 42.72 176.308C42.552 176.607 42.3233 176.873 42.034 177.106C41.7447 177.33 41.4273 177.531 41.082 177.708C41.4927 177.913 41.866 178.137 42.202 178.38C42.538 178.623 42.804 178.907 43 179.234C43.2053 179.561 43.308 179.953 43.308 180.41C43.308 181.25 43.0093 181.917 42.412 182.412C41.8147 182.897 41.0213 183.14 40.032 183.14C38.9493 183.14 38.1187 182.907 37.54 182.44C36.9707 181.964 36.686 181.301 36.686 180.452C36.686 180.004 36.7793 179.612 36.966 179.276C37.162 178.931 37.4187 178.637 37.736 178.394C38.0533 178.151 38.394 177.946 38.758 177.778C38.2633 177.498 37.848 177.162 37.512 176.77C37.176 176.369 37.008 175.86 37.008 175.244C37.008 174.74 37.1387 174.311 37.4 173.956C37.6613 173.601 38.016 173.331 38.464 173.144C38.912 172.957 39.4207 172.864 39.99 172.864ZM39.976 173.858C39.4533 173.858 39.0287 173.984 38.702 174.236C38.3753 174.479 38.212 174.833 38.212 175.3C38.212 175.645 38.2913 175.935 38.45 176.168C38.618 176.401 38.842 176.602 39.122 176.77C39.402 176.929 39.71 177.083 40.046 177.232C40.5313 177.027 40.9373 176.779 41.264 176.49C41.6 176.201 41.768 175.804 41.768 175.3C41.768 174.833 41.6047 174.479 41.278 174.236C40.9513 173.984 40.5173 173.858 39.976 173.858ZM37.89 180.466C37.89 180.951 38.0627 181.357 38.408 181.684C38.7533 182.001 39.2853 182.16 40.004 182.16C40.6853 182.16 41.2033 182.001 41.558 181.684C41.922 181.357 42.104 180.937 42.104 180.424C42.104 179.939 41.9127 179.537 41.53 179.22C41.1473 178.893 40.6387 178.609 40.004 178.366L39.78 178.282C39.164 178.553 38.6927 178.856 38.366 179.192C38.0487 179.528 37.89 179.953 37.89 180.466ZM45.9157 183L50.0177 174.124H44.6277V173.004H51.3337V173.956L47.2737 183H45.9157Z" fill="black"/>
<line x1="20" y1="199.5" x2="110" y2="199.5" stroke="#F1F1F1"/>
<rect width="90" height="44" transform="translate(20 200)" fill="white"/>
<path d="M43.728 224.732H42.272V227H41.082V224.732H36.294V223.682L40.998 216.948H42.272V223.626H43.728V224.732ZM41.082 223.626V220.476C41.082 219.991 41.0867 219.58 41.096 219.244C41.1147 218.899 41.1333 218.572 41.152 218.264H41.096C41.0213 218.441 40.928 218.633 40.816 218.838C40.704 219.043 40.5967 219.216 40.494 219.356L37.498 223.626H41.082Z" fill="black"/>
<line x1="20" y1="243.5" x2="110" y2="243.5" stroke="#F1F1F1"/>
<rect width="90" height="44" transform="translate(20 244)" fill="white"/>
<path d="M40.97 271H39.766V264.014C39.766 263.613 39.7707 263.291 39.78 263.048C39.7893 262.805 39.8033 262.553 39.822 262.292C39.6727 262.441 39.5327 262.567 39.402 262.67C39.2807 262.773 39.1313 262.903 38.954 263.062L37.89 263.93L37.246 263.104L39.948 261.004H40.97V271ZM51.2917 271H44.6837V269.978L47.3017 267.332C47.7964 266.828 48.2164 266.38 48.5617 265.988C48.9164 265.596 49.1824 265.213 49.3597 264.84C49.5371 264.467 49.6257 264.051 49.6257 263.594C49.6257 263.043 49.4624 262.628 49.1357 262.348C48.8091 262.059 48.3844 261.914 47.8617 261.914C47.3671 261.914 46.9377 261.998 46.5737 262.166C46.2097 262.334 45.8364 262.567 45.4537 262.866L44.7957 262.04C45.1877 261.713 45.6357 261.438 46.1397 261.214C46.6531 260.981 47.2271 260.864 47.8617 260.864C48.7951 260.864 49.5324 261.102 50.0737 261.578C50.6151 262.054 50.8857 262.703 50.8857 263.524C50.8857 264.047 50.7784 264.537 50.5637 264.994C50.3491 265.451 50.0504 265.904 49.6677 266.352C49.2851 266.8 48.8371 267.271 48.3237 267.766L46.2377 269.824V269.88H51.2917V271Z" fill="black"/>
<line x1="20" y1="287.5" x2="110" y2="287.5" stroke="#F1F1F1"/>
<g clip-path="url(#clip0_9160_132060)">
<rect width="16" height="44" transform="translate(110 24)" fill="white"/>
<line x1="110" y1="24.5" x2="126" y2="24.5" stroke="#C9C9C9"/>
<line x1="110" y1="67.5" x2="126" y2="67.5" stroke="#C9C9C9"/>
</g>
<g clip-path="url(#clip1_9160_132060)">
<rect width="16" height="44" transform="translate(110 68)" fill="white"/>
<line x1="110" y1="111.5" x2="126" y2="111.5" stroke="#F1F1F1"/>
</g>
<g clip-path="url(#clip2_9160_132060)">
<rect width="16" height="44" transform="translate(110 112)" fill="white"/>
<line x1="110" y1="155.5" x2="126" y2="155.5" stroke="#F1F1F1"/>
</g>
<g clip-path="url(#clip3_9160_132060)">
<rect width="16" height="44" transform="translate(110 156)" fill="white"/>
<line x1="110" y1="199.5" x2="126" y2="199.5" stroke="#F1F1F1"/>
</g>
<g clip-path="url(#clip4_9160_132060)">
<rect width="16" height="44" transform="translate(110 200)" fill="white"/>
<line x1="110" y1="243.5" x2="126" y2="243.5" stroke="#F1F1F1"/>
</g>
<g clip-path="url(#clip5_9160_132060)">
<rect width="16" height="44" transform="translate(110 244)" fill="white"/>
<line x1="110" y1="287.5" x2="126" y2="287.5" stroke="#F1F1F1"/>
</g>
<rect width="120" height="44" transform="translate(126 24)" fill="white"/>
<path d="M151.282 51H149.49V46.562H145.094V51H143.302V41.004H145.094V45.036H149.49V41.004H151.282V51ZM160.492 47.192C160.492 48.452 160.165 49.4273 159.512 50.118C158.859 50.7993 157.972 51.14 156.852 51.14C156.161 51.14 155.545 50.986 155.004 50.678C154.463 50.37 154.038 49.922 153.73 49.334C153.422 48.746 153.268 48.032 153.268 47.192C153.268 45.932 153.59 44.966 154.234 44.294C154.887 43.6127 155.774 43.272 156.894 43.272C157.594 43.272 158.215 43.426 158.756 43.734C159.297 44.0327 159.722 44.476 160.03 45.064C160.338 45.6427 160.492 46.352 160.492 47.192ZM155.074 47.192C155.074 47.9947 155.214 48.6153 155.494 49.054C155.783 49.4927 156.245 49.712 156.88 49.712C157.505 49.712 157.963 49.4927 158.252 49.054C158.541 48.6153 158.686 47.9947 158.686 47.192C158.686 46.3893 158.541 45.7733 158.252 45.344C157.963 44.9147 157.501 44.7 156.866 44.7C156.231 44.7 155.774 44.9147 155.494 45.344C155.214 45.7733 155.074 46.3893 155.074 47.192ZM169.05 43.412V51H167.664L167.426 50.02H167.342C167.099 50.412 166.763 50.6967 166.334 50.874C165.904 51.0513 165.452 51.14 164.976 51.14C164.126 51.14 163.459 50.9207 162.974 50.482C162.498 50.0433 162.26 49.3387 162.26 48.368V43.412H164.024V48.018C164.024 48.5873 164.136 49.012 164.36 49.292C164.584 49.572 164.938 49.712 165.424 49.712C166.133 49.712 166.618 49.488 166.88 49.04C167.15 48.592 167.286 47.9527 167.286 47.122V43.412H169.05ZM175.274 43.272C175.395 43.272 175.531 43.2813 175.68 43.3C175.829 43.3093 175.951 43.3233 176.044 43.342L175.89 44.98C175.797 44.9613 175.68 44.9473 175.54 44.938C175.409 44.9193 175.297 44.91 175.204 44.91C174.831 44.91 174.481 44.9893 174.154 45.148C173.827 45.2973 173.561 45.5307 173.356 45.848C173.16 46.1653 173.062 46.5713 173.062 47.066V51H171.298V43.412H172.656L172.908 44.728H172.992C173.216 44.3267 173.524 43.986 173.916 43.706C174.308 43.4167 174.761 43.272 175.274 43.272ZM179.214 51H177.45V40.36H179.214V51ZM180.336 43.412H182.254L183.766 47.696C183.869 47.9667 183.953 48.2373 184.018 48.508C184.083 48.7693 184.13 49.0307 184.158 49.292H184.214C184.251 49.0493 184.307 48.7927 184.382 48.522C184.457 48.242 184.541 47.9667 184.634 47.696L186.09 43.412H187.994L184.76 52.008C184.471 52.764 184.074 53.3427 183.57 53.744C183.075 54.1547 182.464 54.36 181.736 54.36C181.503 54.36 181.297 54.346 181.12 54.318C180.952 54.2993 180.807 54.276 180.686 54.248V52.848C180.789 52.8667 180.91 52.8853 181.05 52.904C181.199 52.9227 181.353 52.932 181.512 52.932C181.941 52.932 182.287 52.8013 182.548 52.54C182.809 52.288 183.01 51.9707 183.15 51.588L183.374 50.972L180.336 43.412ZM195.773 41.004C197.089 41.004 198.06 41.2467 198.685 41.732C199.32 42.2173 199.637 42.9547 199.637 43.944C199.637 44.4293 199.544 44.8447 199.357 45.19C199.18 45.5353 198.942 45.8247 198.643 46.058C198.354 46.282 198.046 46.464 197.719 46.604L200.589 51H198.573L196.179 47.052H194.723V51H192.931V41.004H195.773ZM195.661 42.502H194.723V45.582H195.717C196.464 45.582 197 45.4513 197.327 45.19C197.654 44.9193 197.817 44.5227 197.817 44C197.817 43.4587 197.64 43.076 197.285 42.852C196.94 42.6187 196.398 42.502 195.661 42.502ZM204.838 43.272C205.818 43.272 206.56 43.4867 207.064 43.916C207.577 44.3453 207.834 45.008 207.834 45.904V51H206.588L206.238 49.95H206.182C205.855 50.3607 205.51 50.664 205.146 50.86C204.782 51.0467 204.287 51.14 203.662 51.14C202.98 51.14 202.416 50.9487 201.968 50.566C201.52 50.1833 201.296 49.5907 201.296 48.788C201.296 48.004 201.58 47.416 202.15 47.024C202.728 46.632 203.601 46.4127 204.768 46.366L206.084 46.324V45.946C206.084 45.4607 205.967 45.1153 205.734 44.91C205.5 44.7047 205.174 44.602 204.754 44.602C204.371 44.602 204.002 44.658 203.648 44.77C203.302 44.8727 202.957 45.0033 202.612 45.162L202.052 43.93C202.425 43.734 202.85 43.5753 203.326 43.454C203.811 43.3327 204.315 43.272 204.838 43.272ZM206.084 47.416L205.16 47.444C204.385 47.472 203.848 47.6073 203.55 47.85C203.251 48.0833 203.102 48.4007 203.102 48.802C203.102 49.166 203.204 49.4273 203.41 49.586C203.624 49.7353 203.904 49.81 204.25 49.81C204.763 49.81 205.197 49.6653 205.552 49.376C205.906 49.0773 206.084 48.6387 206.084 48.06V47.416ZM212.984 49.726C213.199 49.726 213.409 49.7073 213.614 49.67C213.829 49.6233 214.025 49.572 214.202 49.516V50.832C214.015 50.9253 213.773 51 213.474 51.056C213.175 51.112 212.863 51.14 212.536 51.14C212.097 51.14 211.701 51.07 211.346 50.93C211.001 50.79 210.725 50.5427 210.52 50.188C210.315 49.8333 210.212 49.334 210.212 48.69V44.742H209.19V43.972L210.31 43.356L210.87 41.746H211.976V43.412H214.132V44.742H211.976V48.676C211.976 49.0307 212.069 49.2967 212.256 49.474C212.452 49.642 212.695 49.726 212.984 49.726ZM218.784 43.272C219.801 43.272 220.604 43.5753 221.192 44.182C221.789 44.7887 222.088 45.6333 222.088 46.716V47.612H217.076C217.094 48.3027 217.286 48.8393 217.65 49.222C218.014 49.5953 218.518 49.782 219.162 49.782C219.647 49.782 220.086 49.7353 220.478 49.642C220.87 49.5393 221.271 49.3947 221.682 49.208V50.622C221.308 50.7993 220.921 50.93 220.52 51.014C220.118 51.098 219.638 51.14 219.078 51.14C218.331 51.14 217.673 51 217.104 50.72C216.534 50.4307 216.086 50.0013 215.76 49.432C215.442 48.8533 215.284 48.13 215.284 47.262C215.284 45.9647 215.601 44.9753 216.236 44.294C216.88 43.6127 217.729 43.272 218.784 43.272ZM218.784 44.574C218.308 44.574 217.92 44.728 217.622 45.036C217.332 45.3347 217.164 45.7827 217.118 46.38H220.38C220.37 45.8573 220.235 45.428 219.974 45.092C219.722 44.7467 219.325 44.574 218.784 44.574Z" fill="black"/>
<line x1="126" y1="24.5" x2="246" y2="24.5" stroke="#C9C9C9"/>
<line x1="126" y1="67.5" x2="246" y2="67.5" stroke="#C9C9C9"/>
<rect width="120" height="44" transform="translate(126 68)" fill="white"/>
<path d="M167.64 95.812V94.314C167.126 94.3047 166.627 94.2627 166.142 94.188C165.656 94.104 165.264 93.992 164.966 93.852V92.662C165.283 92.8113 165.689 92.942 166.184 93.054C166.678 93.166 167.164 93.2267 167.64 93.236V90.408C166.716 90.156 166.039 89.8387 165.61 89.456C165.18 89.0733 164.966 88.5507 164.966 87.888C164.966 87.1973 165.204 86.656 165.68 86.264C166.165 85.872 166.818 85.6527 167.64 85.606V84.374H168.536V85.592C169.03 85.6107 169.478 85.6667 169.88 85.76C170.29 85.8533 170.664 85.97 171 86.11L170.622 87.146C170.323 87.0247 169.992 86.922 169.628 86.838C169.273 86.7447 168.909 86.684 168.536 86.656V89.47C169.152 89.6473 169.665 89.8387 170.076 90.044C170.486 90.24 170.794 90.4873 171 90.786C171.214 91.0753 171.322 91.4533 171.322 91.92C171.322 92.5733 171.079 93.1053 170.594 93.516C170.108 93.9173 169.422 94.1647 168.536 94.258V95.812H167.64ZM167.64 89.162V86.684C167.136 86.7213 166.762 86.838 166.52 87.034C166.286 87.23 166.17 87.482 166.17 87.79C166.17 88.1633 166.272 88.4527 166.478 88.658C166.692 88.854 167.08 89.022 167.64 89.162ZM168.536 93.166C169.086 93.11 169.488 92.984 169.74 92.788C169.992 92.5827 170.118 92.3213 170.118 92.004C170.118 91.6493 170.006 91.3833 169.782 91.206C169.558 91.0287 169.142 90.8607 168.536 90.702V93.166ZM179.389 95H172.781V93.978L175.399 91.332C175.894 90.828 176.314 90.38 176.659 89.988C177.014 89.596 177.28 89.2133 177.457 88.84C177.635 88.4667 177.723 88.0513 177.723 87.594C177.723 87.0433 177.56 86.628 177.233 86.348C176.907 86.0587 176.482 85.914 175.959 85.914C175.465 85.914 175.035 85.998 174.671 86.166C174.307 86.334 173.934 86.5673 173.551 86.866L172.893 86.04C173.285 85.7133 173.733 85.438 174.237 85.214C174.751 84.9807 175.325 84.864 175.959 84.864C176.893 84.864 177.63 85.102 178.171 85.578C178.713 86.054 178.983 86.7027 178.983 87.524C178.983 88.0467 178.876 88.5367 178.661 88.994C178.447 89.4513 178.148 89.904 177.765 90.352C177.383 90.8 176.935 91.2713 176.421 91.766L174.335 93.824V93.88H179.389V95ZM187.023 87.342C187.023 88.014 186.832 88.5507 186.449 88.952C186.076 89.344 185.576 89.6053 184.951 89.736V89.792C185.744 89.8853 186.337 90.1373 186.729 90.548C187.13 90.9587 187.331 91.4953 187.331 92.158C187.331 92.746 187.196 93.264 186.925 93.712C186.654 94.16 186.234 94.51 185.665 94.762C185.105 95.014 184.382 95.14 183.495 95.14C182.972 95.14 182.487 95.098 182.039 95.014C181.591 94.9393 181.162 94.7993 180.751 94.594V93.446C181.171 93.6607 181.624 93.824 182.109 93.936C182.594 94.048 183.061 94.104 183.509 94.104C184.405 94.104 185.049 93.9313 185.441 93.586C185.842 93.2313 186.043 92.746 186.043 92.13C186.043 91.5047 185.796 91.0567 185.301 90.786C184.816 90.506 184.13 90.366 183.243 90.366H182.277V89.316H183.257C184.078 89.316 184.699 89.1433 185.119 88.798C185.548 88.4527 185.763 87.9953 185.763 87.426C185.763 86.9407 185.6 86.5673 185.273 86.306C184.946 86.0353 184.503 85.9 183.943 85.9C183.402 85.9 182.94 85.9793 182.557 86.138C182.174 86.2967 181.796 86.4973 181.423 86.74L180.807 85.9C181.162 85.62 181.6 85.3773 182.123 85.172C182.655 84.9667 183.257 84.864 183.929 84.864C184.974 84.864 185.749 85.0973 186.253 85.564C186.766 86.0307 187.023 86.6233 187.023 87.342ZM189.141 94.244C189.141 93.8987 189.225 93.656 189.393 93.516C189.561 93.376 189.761 93.306 189.995 93.306C190.228 93.306 190.433 93.376 190.611 93.516C190.788 93.656 190.877 93.8987 190.877 94.244C190.877 94.58 190.788 94.8227 190.611 94.972C190.433 95.1213 190.228 95.196 189.995 95.196C189.761 95.196 189.561 95.1213 189.393 94.972C189.225 94.8227 189.141 94.58 189.141 94.244ZM199.607 92.732H198.151V95H196.961V92.732H192.173V91.682L196.877 84.948H198.151V91.626H199.607V92.732ZM196.961 91.626V88.476C196.961 87.9907 196.966 87.58 196.975 87.244C196.994 86.8987 197.012 86.572 197.031 86.264H196.975C196.9 86.4413 196.807 86.6327 196.695 86.838C196.583 87.0433 196.476 87.216 196.373 87.356L193.377 91.626H196.961ZM207.171 95H200.563V93.978L203.181 91.332C203.675 90.828 204.095 90.38 204.441 89.988C204.795 89.596 205.061 89.2133 205.239 88.84C205.416 88.4667 205.505 88.0513 205.505 87.594C205.505 87.0433 205.341 86.628 205.015 86.348C204.688 86.0587 204.263 85.914 203.741 85.914C203.246 85.914 202.817 85.998 202.453 86.166C202.089 86.334 201.715 86.5673 201.333 86.866L200.675 86.04C201.067 85.7133 201.515 85.438 202.019 85.214C202.532 84.9807 203.106 84.864 203.741 84.864C204.674 84.864 205.411 85.102 205.953 85.578C206.494 86.054 206.765 86.7027 206.765 87.524C206.765 88.0467 206.657 88.5367 206.443 88.994C206.228 89.4513 205.929 89.904 205.547 90.352C205.164 90.8 204.716 91.2713 204.203 91.766L202.117 93.824V93.88H207.171V95Z" fill="black"/>
<line x1="126" y1="111.5" x2="246" y2="111.5" stroke="#F1F1F1"/>
<rect width="120" height="44" transform="translate(126 112)" fill="white"/>
<path d="M167.64 139.812V138.314C167.126 138.305 166.627 138.263 166.142 138.188C165.656 138.104 165.264 137.992 164.966 137.852V136.662C165.283 136.811 165.689 136.942 166.184 137.054C166.678 137.166 167.164 137.227 167.64 137.236V134.408C166.716 134.156 166.039 133.839 165.61 133.456C165.18 133.073 164.966 132.551 164.966 131.888C164.966 131.197 165.204 130.656 165.68 130.264C166.165 129.872 166.818 129.653 167.64 129.606V128.374H168.536V129.592C169.03 129.611 169.478 129.667 169.88 129.76C170.29 129.853 170.664 129.97 171 130.11L170.622 131.146C170.323 131.025 169.992 130.922 169.628 130.838C169.273 130.745 168.909 130.684 168.536 130.656V133.47C169.152 133.647 169.665 133.839 170.076 134.044C170.486 134.24 170.794 134.487 171 134.786C171.214 135.075 171.322 135.453 171.322 135.92C171.322 136.573 171.079 137.105 170.594 137.516C170.108 137.917 169.422 138.165 168.536 138.258V139.812H167.64ZM167.64 133.162V130.684C167.136 130.721 166.762 130.838 166.52 131.034C166.286 131.23 166.17 131.482 166.17 131.79C166.17 132.163 166.272 132.453 166.478 132.658C166.692 132.854 167.08 133.022 167.64 133.162ZM168.536 137.166C169.086 137.11 169.488 136.984 169.74 136.788C169.992 136.583 170.118 136.321 170.118 136.004C170.118 135.649 170.006 135.383 169.782 135.206C169.558 135.029 169.142 134.861 168.536 134.702V137.166ZM177.079 139H175.875V132.014C175.875 131.613 175.88 131.291 175.889 131.048C175.899 130.805 175.913 130.553 175.931 130.292C175.782 130.441 175.642 130.567 175.511 130.67C175.39 130.773 175.241 130.903 175.063 131.062L173.999 131.93L173.355 131.104L176.057 129.004H177.079V139ZM180.891 134.73C180.891 134.011 180.952 133.307 181.073 132.616C181.204 131.916 181.432 131.286 181.759 130.726C182.095 130.157 182.562 129.704 183.159 129.368C183.756 129.032 184.526 128.864 185.469 128.864C185.665 128.864 185.88 128.873 186.113 128.892C186.356 128.911 186.552 128.943 186.701 128.99V130.04C186.533 129.984 186.342 129.942 186.127 129.914C185.912 129.886 185.702 129.872 185.497 129.872C184.853 129.872 184.316 129.979 183.887 130.194C183.458 130.409 183.117 130.703 182.865 131.076C182.622 131.449 182.445 131.879 182.333 132.364C182.221 132.849 182.151 133.367 182.123 133.918H182.207C182.422 133.591 182.72 133.316 183.103 133.092C183.486 132.859 183.976 132.742 184.573 132.742C185.441 132.742 186.141 133.008 186.673 133.54C187.205 134.063 187.471 134.809 187.471 135.78C187.471 136.825 187.182 137.647 186.603 138.244C186.034 138.841 185.264 139.14 184.293 139.14C183.658 139.14 183.084 138.981 182.571 138.664C182.058 138.347 181.647 137.861 181.339 137.208C181.04 136.555 180.891 135.729 180.891 134.73ZM184.279 138.104C184.867 138.104 185.343 137.917 185.707 137.544C186.071 137.161 186.253 136.573 186.253 135.78C186.253 135.145 186.09 134.641 185.763 134.268C185.446 133.895 184.965 133.708 184.321 133.708C183.882 133.708 183.5 133.801 183.173 133.988C182.846 134.165 182.59 134.399 182.403 134.688C182.226 134.968 182.137 135.253 182.137 135.542C182.137 135.943 182.216 136.345 182.375 136.746C182.534 137.138 182.772 137.465 183.089 137.726C183.406 137.978 183.803 138.104 184.279 138.104ZM189.141 138.244C189.141 137.899 189.225 137.656 189.393 137.516C189.561 137.376 189.761 137.306 189.995 137.306C190.228 137.306 190.433 137.376 190.611 137.516C190.788 137.656 190.877 137.899 190.877 138.244C190.877 138.58 190.788 138.823 190.611 138.972C190.433 139.121 190.228 139.196 189.995 139.196C189.761 139.196 189.561 139.121 189.393 138.972C189.225 138.823 189.141 138.58 189.141 138.244ZM199.201 133.988C199.201 135.071 199.089 135.995 198.865 136.76C198.641 137.525 198.282 138.113 197.787 138.524C197.302 138.935 196.662 139.14 195.869 139.14C194.74 139.14 193.904 138.687 193.363 137.782C192.831 136.867 192.565 135.603 192.565 133.988C192.565 132.905 192.672 131.981 192.887 131.216C193.111 130.451 193.466 129.867 193.951 129.466C194.436 129.055 195.076 128.85 195.869 128.85C196.989 128.85 197.824 129.303 198.375 130.208C198.926 131.104 199.201 132.364 199.201 133.988ZM193.797 133.988C193.797 135.36 193.951 136.387 194.259 137.068C194.576 137.749 195.113 138.09 195.869 138.09C196.616 138.09 197.148 137.754 197.465 137.082C197.792 136.401 197.955 135.369 197.955 133.988C197.955 132.625 197.792 131.603 197.465 130.922C197.148 130.241 196.616 129.9 195.869 129.9C195.113 129.9 194.576 130.241 194.259 130.922C193.951 131.603 193.797 132.625 193.797 133.988ZM207.213 133.988C207.213 135.071 207.101 135.995 206.877 136.76C206.653 137.525 206.293 138.113 205.799 138.524C205.313 138.935 204.674 139.14 203.881 139.14C202.751 139.14 201.916 138.687 201.375 137.782C200.843 136.867 200.577 135.603 200.577 133.988C200.577 132.905 200.684 131.981 200.899 131.216C201.123 130.451 201.477 129.867 201.963 129.466C202.448 129.055 203.087 128.85 203.881 128.85C205.001 128.85 205.836 129.303 206.387 130.208C206.937 131.104 207.213 132.364 207.213 133.988ZM201.809 133.988C201.809 135.36 201.963 136.387 202.271 137.068C202.588 137.749 203.125 138.09 203.881 138.09C204.627 138.09 205.159 137.754 205.477 137.082C205.803 136.401 205.967 135.369 205.967 133.988C205.967 132.625 205.803 131.603 205.477 130.922C205.159 130.241 204.627 129.9 203.881 129.9C203.125 129.9 202.588 130.241 202.271 130.922C201.963 131.603 201.809 132.625 201.809 133.988Z" fill="black"/>
<line x1="126" y1="155.5" x2="246" y2="155.5" stroke="#F1F1F1"/>
<rect width="120" height="44" transform="translate(126 156)" fill="white"/>
<path d="M167.64 183.812V182.314C167.126 182.305 166.627 182.263 166.142 182.188C165.656 182.104 165.264 181.992 164.966 181.852V180.662C165.283 180.811 165.689 180.942 166.184 181.054C166.678 181.166 167.164 181.227 167.64 181.236V178.408C166.716 178.156 166.039 177.839 165.61 177.456C165.18 177.073 164.966 176.551 164.966 175.888C164.966 175.197 165.204 174.656 165.68 174.264C166.165 173.872 166.818 173.653 167.64 173.606V172.374H168.536V173.592C169.03 173.611 169.478 173.667 169.88 173.76C170.29 173.853 170.664 173.97 171 174.11L170.622 175.146C170.323 175.025 169.992 174.922 169.628 174.838C169.273 174.745 168.909 174.684 168.536 174.656V177.47C169.152 177.647 169.665 177.839 170.076 178.044C170.486 178.24 170.794 178.487 171 178.786C171.214 179.075 171.322 179.453 171.322 179.92C171.322 180.573 171.079 181.105 170.594 181.516C170.108 181.917 169.422 182.165 168.536 182.258V183.812H167.64ZM167.64 177.162V174.684C167.136 174.721 166.762 174.838 166.52 175.034C166.286 175.23 166.17 175.482 166.17 175.79C166.17 176.163 166.272 176.453 166.478 176.658C166.692 176.854 167.08 177.022 167.64 177.162ZM168.536 181.166C169.086 181.11 169.488 180.984 169.74 180.788C169.992 180.583 170.118 180.321 170.118 180.004C170.118 179.649 170.006 179.383 169.782 179.206C169.558 179.029 169.142 178.861 168.536 178.702V181.166ZM179.837 180.732H178.381V183H177.191V180.732H172.403V179.682L177.107 172.948H178.381V179.626H179.837V180.732ZM177.191 179.626V176.476C177.191 175.991 177.196 175.58 177.205 175.244C177.224 174.899 177.243 174.572 177.261 174.264H177.205C177.131 174.441 177.037 174.633 176.925 174.838C176.813 175.043 176.706 175.216 176.603 175.356L173.607 179.626H177.191ZM183.971 176.868C184.988 176.868 185.8 177.125 186.407 177.638C187.023 178.151 187.331 178.875 187.331 179.808C187.331 180.844 187 181.661 186.337 182.258C185.684 182.846 184.769 183.14 183.593 183.14C183.07 183.14 182.585 183.093 182.137 183C181.689 182.907 181.311 182.771 181.003 182.594V181.432C181.339 181.637 181.745 181.801 182.221 181.922C182.706 182.034 183.168 182.09 183.607 182.09C184.344 182.09 184.937 181.917 185.385 181.572C185.842 181.217 186.071 180.671 186.071 179.934C186.071 179.281 185.87 178.781 185.469 178.436C185.068 178.081 184.433 177.904 183.565 177.904C183.304 177.904 183.005 177.927 182.669 177.974C182.333 178.021 182.062 178.067 181.857 178.114L181.241 177.722L181.619 173.004H186.631V174.124H182.669L182.431 177.022C182.59 176.994 182.804 176.961 183.075 176.924C183.346 176.887 183.644 176.868 183.971 176.868ZM189.141 182.244C189.141 181.899 189.225 181.656 189.393 181.516C189.561 181.376 189.761 181.306 189.995 181.306C190.228 181.306 190.433 181.376 190.611 181.516C190.788 181.656 190.877 181.899 190.877 182.244C190.877 182.58 190.788 182.823 190.611 182.972C190.433 183.121 190.228 183.196 189.995 183.196C189.761 183.196 189.561 183.121 189.393 182.972C189.225 182.823 189.141 182.58 189.141 182.244ZM195.729 176.868C196.746 176.868 197.558 177.125 198.165 177.638C198.781 178.151 199.089 178.875 199.089 179.808C199.089 180.844 198.758 181.661 198.095 182.258C197.442 182.846 196.527 183.14 195.351 183.14C194.828 183.14 194.343 183.093 193.895 183C193.447 182.907 193.069 182.771 192.761 182.594V181.432C193.097 181.637 193.503 181.801 193.979 181.922C194.464 182.034 194.926 182.09 195.365 182.09C196.102 182.09 196.695 181.917 197.143 181.572C197.6 181.217 197.829 180.671 197.829 179.934C197.829 179.281 197.628 178.781 197.227 178.436C196.826 178.081 196.191 177.904 195.323 177.904C195.062 177.904 194.763 177.927 194.427 177.974C194.091 178.021 193.82 178.067 193.615 178.114L192.999 177.722L193.377 173.004H198.389V174.124H194.427L194.189 177.022C194.348 176.994 194.562 176.961 194.833 176.924C195.104 176.887 195.402 176.868 195.729 176.868ZM207.213 177.988C207.213 179.071 207.101 179.995 206.877 180.76C206.653 181.525 206.293 182.113 205.799 182.524C205.313 182.935 204.674 183.14 203.881 183.14C202.751 183.14 201.916 182.687 201.375 181.782C200.843 180.867 200.577 179.603 200.577 177.988C200.577 176.905 200.684 175.981 200.899 175.216C201.123 174.451 201.477 173.867 201.963 173.466C202.448 173.055 203.087 172.85 203.881 172.85C205.001 172.85 205.836 173.303 206.387 174.208C206.937 175.104 207.213 176.364 207.213 177.988ZM201.809 177.988C201.809 179.36 201.963 180.387 202.271 181.068C202.588 181.749 203.125 182.09 203.881 182.09C204.627 182.09 205.159 181.754 205.477 181.082C205.803 180.401 205.967 179.369 205.967 177.988C205.967 176.625 205.803 175.603 205.477 174.922C205.159 174.241 204.627 173.9 203.881 173.9C203.125 173.9 202.588 174.241 202.271 174.922C201.963 175.603 201.809 176.625 201.809 177.988Z" fill="black"/>
<line x1="126" y1="199.5" x2="246" y2="199.5" stroke="#F1F1F1"/>
<rect width="120" height="44" transform="translate(126 200)" fill="white"/>
<path d="M163.634 227.812V226.314C163.12 226.305 162.621 226.263 162.136 226.188C161.65 226.104 161.258 225.992 160.96 225.852V224.662C161.277 224.811 161.683 224.942 162.178 225.054C162.672 225.166 163.158 225.227 163.634 225.236V222.408C162.71 222.156 162.033 221.839 161.604 221.456C161.174 221.073 160.96 220.551 160.96 219.888C160.96 219.197 161.198 218.656 161.674 218.264C162.159 217.872 162.812 217.653 163.634 217.606V216.374H164.53V217.592C165.024 217.611 165.472 217.667 165.874 217.76C166.284 217.853 166.658 217.97 166.994 218.11L166.616 219.146C166.317 219.025 165.986 218.922 165.622 218.838C165.267 218.745 164.903 218.684 164.53 218.656V221.47C165.146 221.647 165.659 221.839 166.07 222.044C166.48 222.24 166.788 222.487 166.994 222.786C167.208 223.075 167.316 223.453 167.316 223.92C167.316 224.573 167.073 225.105 166.588 225.516C166.102 225.917 165.416 226.165 164.53 226.258V227.812H163.634ZM163.634 221.162V218.684C163.13 218.721 162.756 218.838 162.514 219.034C162.28 219.23 162.164 219.482 162.164 219.79C162.164 220.163 162.266 220.453 162.472 220.658C162.686 220.854 163.074 221.022 163.634 221.162ZM164.53 225.166C165.08 225.11 165.482 224.984 165.734 224.788C165.986 224.583 166.112 224.321 166.112 224.004C166.112 223.649 166 223.383 165.776 223.206C165.552 223.029 165.136 222.861 164.53 222.702V225.166ZM173.074 227H171.87V220.014C171.87 219.613 171.874 219.291 171.884 219.048C171.893 218.805 171.907 218.553 171.926 218.292C171.776 218.441 171.636 218.567 171.506 218.67C171.384 218.773 171.235 218.903 171.058 219.062L169.994 219.93L169.35 219.104L172.052 217.004H173.074V227ZM183.395 227H176.787V225.978L179.405 223.332C179.9 222.828 180.32 222.38 180.665 221.988C181.02 221.596 181.286 221.213 181.463 220.84C181.641 220.467 181.729 220.051 181.729 219.594C181.729 219.043 181.566 218.628 181.239 218.348C180.913 218.059 180.488 217.914 179.965 217.914C179.471 217.914 179.041 217.998 178.677 218.166C178.313 218.334 177.94 218.567 177.557 218.866L176.899 218.04C177.291 217.713 177.739 217.438 178.243 217.214C178.757 216.981 179.331 216.864 179.965 216.864C180.899 216.864 181.636 217.102 182.177 217.578C182.719 218.054 182.989 218.703 182.989 219.524C182.989 220.047 182.882 220.537 182.667 220.994C182.453 221.451 182.154 221.904 181.771 222.352C181.389 222.8 180.941 223.271 180.427 223.766L178.341 225.824V225.88H183.395V227ZM189.097 227H187.893V220.014C187.893 219.613 187.898 219.291 187.907 219.048C187.916 218.805 187.93 218.553 187.949 218.292C187.8 218.441 187.66 218.567 187.529 218.67C187.408 218.773 187.258 218.903 187.081 219.062L186.017 219.93L185.373 219.104L188.075 217.004H189.097V227ZM193.147 226.244C193.147 225.899 193.231 225.656 193.399 225.516C193.567 225.376 193.767 225.306 194.001 225.306C194.234 225.306 194.439 225.376 194.617 225.516C194.794 225.656 194.883 225.899 194.883 226.244C194.883 226.58 194.794 226.823 194.617 226.972C194.439 227.121 194.234 227.196 194.001 227.196C193.767 227.196 193.567 227.121 193.399 226.972C193.231 226.823 193.147 226.58 193.147 226.244ZM203.207 221.988C203.207 223.071 203.095 223.995 202.871 224.76C202.647 225.525 202.287 226.113 201.793 226.524C201.307 226.935 200.668 227.14 199.875 227.14C198.745 227.14 197.91 226.687 197.369 225.782C196.837 224.867 196.571 223.603 196.571 221.988C196.571 220.905 196.678 219.981 196.893 219.216C197.117 218.451 197.471 217.867 197.957 217.466C198.442 217.055 199.081 216.85 199.875 216.85C200.995 216.85 201.83 217.303 202.381 218.208C202.931 219.104 203.207 220.364 203.207 221.988ZM197.803 221.988C197.803 223.36 197.957 224.387 198.265 225.068C198.582 225.749 199.119 226.09 199.875 226.09C200.621 226.09 201.153 225.754 201.471 225.082C201.797 224.401 201.961 223.369 201.961 221.988C201.961 220.625 201.797 219.603 201.471 218.922C201.153 218.241 200.621 217.9 199.875 217.9C199.119 217.9 198.582 218.241 198.265 218.922C197.957 219.603 197.803 220.625 197.803 221.988ZM207.886 216.864C208.764 216.864 209.482 217.069 210.042 217.48C210.602 217.891 210.882 218.483 210.882 219.258C210.882 219.659 210.794 220.009 210.616 220.308C210.448 220.607 210.22 220.873 209.93 221.106C209.641 221.33 209.324 221.531 208.978 221.708C209.389 221.913 209.762 222.137 210.098 222.38C210.434 222.623 210.7 222.907 210.896 223.234C211.102 223.561 211.204 223.953 211.204 224.41C211.204 225.25 210.906 225.917 210.308 226.412C209.711 226.897 208.918 227.14 207.928 227.14C206.846 227.14 206.015 226.907 205.436 226.44C204.867 225.964 204.582 225.301 204.582 224.452C204.582 224.004 204.676 223.612 204.862 223.276C205.058 222.931 205.315 222.637 205.632 222.394C205.95 222.151 206.29 221.946 206.654 221.778C206.16 221.498 205.744 221.162 205.408 220.77C205.072 220.369 204.904 219.86 204.904 219.244C204.904 218.74 205.035 218.311 205.296 217.956C205.558 217.601 205.912 217.331 206.36 217.144C206.808 216.957 207.317 216.864 207.886 216.864ZM207.872 217.858C207.35 217.858 206.925 217.984 206.598 218.236C206.272 218.479 206.108 218.833 206.108 219.3C206.108 219.645 206.188 219.935 206.346 220.168C206.514 220.401 206.738 220.602 207.018 220.77C207.298 220.929 207.606 221.083 207.942 221.232C208.428 221.027 208.834 220.779 209.16 220.49C209.496 220.201 209.664 219.804 209.664 219.3C209.664 218.833 209.501 218.479 209.174 218.236C208.848 217.984 208.414 217.858 207.872 217.858ZM205.786 224.466C205.786 224.951 205.959 225.357 206.304 225.684C206.65 226.001 207.182 226.16 207.9 226.16C208.582 226.16 209.1 226.001 209.454 225.684C209.818 225.357 210 224.937 210 224.424C210 223.939 209.809 223.537 209.426 223.22C209.044 222.893 208.535 222.609 207.9 222.366L207.676 222.282C207.06 222.553 206.589 222.856 206.262 223.192C205.945 223.528 205.786 223.953 205.786 224.466Z" fill="black"/>
<line x1="126" y1="243.5" x2="246" y2="243.5" stroke="#F1F1F1"/>
<rect width="120" height="44" transform="translate(126 244)" fill="white"/>
<path d="M167.64 271.812V270.314C167.126 270.305 166.627 270.263 166.142 270.188C165.656 270.104 165.264 269.992 164.966 269.852V268.662C165.283 268.811 165.689 268.942 166.184 269.054C166.678 269.166 167.164 269.227 167.64 269.236V266.408C166.716 266.156 166.039 265.839 165.61 265.456C165.18 265.073 164.966 264.551 164.966 263.888C164.966 263.197 165.204 262.656 165.68 262.264C166.165 261.872 166.818 261.653 167.64 261.606V260.374H168.536V261.592C169.03 261.611 169.478 261.667 169.88 261.76C170.29 261.853 170.664 261.97 171 262.11L170.622 263.146C170.323 263.025 169.992 262.922 169.628 262.838C169.273 262.745 168.909 262.684 168.536 262.656V265.47C169.152 265.647 169.665 265.839 170.076 266.044C170.486 266.24 170.794 266.487 171 266.786C171.214 267.075 171.322 267.453 171.322 267.92C171.322 268.573 171.079 269.105 170.594 269.516C170.108 269.917 169.422 270.165 168.536 270.258V271.812H167.64ZM167.64 265.162V262.684C167.136 262.721 166.762 262.838 166.52 263.034C166.286 263.23 166.17 263.482 166.17 263.79C166.17 264.163 166.272 264.453 166.478 264.658C166.692 264.854 167.08 265.022 167.64 265.162ZM168.536 269.166C169.086 269.11 169.488 268.984 169.74 268.788C169.992 268.583 170.118 268.321 170.118 268.004C170.118 267.649 170.006 267.383 169.782 267.206C169.558 267.029 169.142 266.861 168.536 266.702V269.166ZM179.837 268.732H178.381V271H177.191V268.732H172.403V267.682L177.107 260.948H178.381V267.626H179.837V268.732ZM177.191 267.626V264.476C177.191 263.991 177.196 263.58 177.205 263.244C177.224 262.899 177.243 262.572 177.261 262.264H177.205C177.131 262.441 177.037 262.633 176.925 262.838C176.813 263.043 176.706 263.216 176.603 263.356L173.607 267.626H177.191ZM187.023 263.342C187.023 264.014 186.832 264.551 186.449 264.952C186.076 265.344 185.576 265.605 184.951 265.736V265.792C185.744 265.885 186.337 266.137 186.729 266.548C187.13 266.959 187.331 267.495 187.331 268.158C187.331 268.746 187.196 269.264 186.925 269.712C186.654 270.16 186.234 270.51 185.665 270.762C185.105 271.014 184.382 271.14 183.495 271.14C182.972 271.14 182.487 271.098 182.039 271.014C181.591 270.939 181.162 270.799 180.751 270.594V269.446C181.171 269.661 181.624 269.824 182.109 269.936C182.594 270.048 183.061 270.104 183.509 270.104C184.405 270.104 185.049 269.931 185.441 269.586C185.842 269.231 186.043 268.746 186.043 268.13C186.043 267.505 185.796 267.057 185.301 266.786C184.816 266.506 184.13 266.366 183.243 266.366H182.277V265.316H183.257C184.078 265.316 184.699 265.143 185.119 264.798C185.548 264.453 185.763 263.995 185.763 263.426C185.763 262.941 185.6 262.567 185.273 262.306C184.946 262.035 184.503 261.9 183.943 261.9C183.402 261.9 182.94 261.979 182.557 262.138C182.174 262.297 181.796 262.497 181.423 262.74L180.807 261.9C181.162 261.62 181.6 261.377 182.123 261.172C182.655 260.967 183.257 260.864 183.929 260.864C184.974 260.864 185.749 261.097 186.253 261.564C186.766 262.031 187.023 262.623 187.023 263.342ZM189.141 270.244C189.141 269.899 189.225 269.656 189.393 269.516C189.561 269.376 189.761 269.306 189.995 269.306C190.228 269.306 190.433 269.376 190.611 269.516C190.788 269.656 190.877 269.899 190.877 270.244C190.877 270.58 190.788 270.823 190.611 270.972C190.433 271.121 190.228 271.196 189.995 271.196C189.761 271.196 189.561 271.121 189.393 270.972C189.225 270.823 189.141 270.58 189.141 270.244ZM199.159 265.274C199.159 265.993 199.094 266.702 198.963 267.402C198.842 268.093 198.613 268.723 198.277 269.292C197.95 269.852 197.484 270.3 196.877 270.636C196.28 270.972 195.51 271.14 194.567 271.14C194.38 271.14 194.161 271.126 193.909 271.098C193.657 271.079 193.456 271.047 193.307 271V269.95C193.671 270.071 194.082 270.132 194.539 270.132C195.192 270.132 195.729 270.025 196.149 269.81C196.578 269.595 196.919 269.306 197.171 268.942C197.423 268.569 197.605 268.139 197.717 267.654C197.829 267.159 197.894 266.641 197.913 266.1H197.829C197.614 266.417 197.316 266.693 196.933 266.926C196.55 267.15 196.056 267.262 195.449 267.262C194.59 267.262 193.895 267.001 193.363 266.478C192.84 265.946 192.579 265.199 192.579 264.238C192.579 263.538 192.71 262.936 192.971 262.432C193.232 261.928 193.601 261.541 194.077 261.27C194.562 260.999 195.127 260.864 195.771 260.864C196.406 260.864 196.98 261.027 197.493 261.354C198.006 261.671 198.412 262.157 198.711 262.81C199.01 263.454 199.159 264.275 199.159 265.274ZM195.771 261.9C195.192 261.9 194.716 262.091 194.343 262.474C193.979 262.857 193.797 263.44 193.797 264.224C193.797 264.868 193.951 265.377 194.259 265.75C194.576 266.114 195.062 266.296 195.715 266.296C196.163 266.296 196.55 266.207 196.877 266.03C197.204 265.843 197.456 265.61 197.633 265.33C197.82 265.05 197.913 264.761 197.913 264.462C197.913 264.061 197.834 263.664 197.675 263.272C197.516 262.88 197.278 262.553 196.961 262.292C196.644 262.031 196.247 261.9 195.771 261.9ZM203.741 264.868C204.758 264.868 205.57 265.125 206.177 265.638C206.793 266.151 207.101 266.875 207.101 267.808C207.101 268.844 206.769 269.661 206.107 270.258C205.453 270.846 204.539 271.14 203.363 271.14C202.84 271.14 202.355 271.093 201.907 271C201.459 270.907 201.081 270.771 200.773 270.594V269.432C201.109 269.637 201.515 269.801 201.991 269.922C202.476 270.034 202.938 270.09 203.377 270.09C204.114 270.09 204.707 269.917 205.155 269.572C205.612 269.217 205.841 268.671 205.841 267.934C205.841 267.281 205.64 266.781 205.239 266.436C204.837 266.081 204.203 265.904 203.335 265.904C203.073 265.904 202.775 265.927 202.439 265.974C202.103 266.021 201.832 266.067 201.627 266.114L201.011 265.722L201.389 261.004H206.401V262.124H202.439L202.201 265.022C202.359 264.994 202.574 264.961 202.845 264.924C203.115 264.887 203.414 264.868 203.741 264.868Z" fill="black"/>
<line x1="126" y1="287.5" x2="246" y2="287.5" stroke="#F1F1F1"/>
<g clip-path="url(#clip6_9160_132060)">
<rect width="16" height="44" transform="translate(246 24)" fill="white"/>
<line x1="246" y1="24.5" x2="262" y2="24.5" stroke="#C9C9C9"/>
<line x1="246" y1="67.5" x2="262" y2="67.5" stroke="#C9C9C9"/>
</g>
<g clip-path="url(#clip7_9160_132060)">
<rect width="16" height="44" transform="translate(246 68)" fill="white"/>
<line x1="246" y1="111.5" x2="262" y2="111.5" stroke="#F1F1F1"/>
</g>
<g clip-path="url(#clip8_9160_132060)">
<rect width="16" height="44" transform="translate(246 112)" fill="white"/>
<line x1="246" y1="155.5" x2="262" y2="155.5" stroke="#F1F1F1"/>
</g>
<g clip-path="url(#clip9_9160_132060)">
<rect width="16" height="44" transform="translate(246 156)" fill="white"/>
<line x1="246" y1="199.5" x2="262" y2="199.5" stroke="#F1F1F1"/>
</g>
<g clip-path="url(#clip10_9160_132060)">
<rect width="16" height="44" transform="translate(246 200)" fill="white"/>
<line x1="246" y1="243.5" x2="262" y2="243.5" stroke="#F1F1F1"/>
</g>
<g clip-path="url(#clip11_9160_132060)">
<rect width="16" height="44" transform="translate(246 244)" fill="white"/>
<line x1="246" y1="287.5" x2="262" y2="287.5" stroke="#F1F1F1"/>
</g>
<rect width="130" height="44" transform="translate(262 24)" fill="white"/>
<path d="M282.886 51H281.094V42.516H278.224V41.004H285.756V42.516H282.886V51ZM292.91 47.192C292.91 48.452 292.583 49.4273 291.93 50.118C291.277 50.7993 290.39 51.14 289.27 51.14C288.579 51.14 287.963 50.986 287.422 50.678C286.881 50.37 286.456 49.922 286.148 49.334C285.84 48.746 285.686 48.032 285.686 47.192C285.686 45.932 286.008 44.966 286.652 44.294C287.305 43.6127 288.192 43.272 289.312 43.272C290.012 43.272 290.633 43.426 291.174 43.734C291.715 44.0327 292.14 44.476 292.448 45.064C292.756 45.6427 292.91 46.352 292.91 47.192ZM287.492 47.192C287.492 47.9947 287.632 48.6153 287.912 49.054C288.201 49.4927 288.663 49.712 289.298 49.712C289.923 49.712 290.381 49.4927 290.67 49.054C290.959 48.6153 291.104 47.9947 291.104 47.192C291.104 46.3893 290.959 45.7733 290.67 45.344C290.381 44.9147 289.919 44.7 289.284 44.7C288.649 44.7 288.192 44.9147 287.912 45.344C287.632 45.7733 287.492 46.3893 287.492 47.192ZM297.674 49.726C297.888 49.726 298.098 49.7073 298.304 49.67C298.518 49.6233 298.714 49.572 298.892 49.516V50.832C298.705 50.9253 298.462 51 298.164 51.056C297.865 51.112 297.552 51.14 297.226 51.14C296.787 51.14 296.39 51.07 296.036 50.93C295.69 50.79 295.415 50.5427 295.21 50.188C295.004 49.8333 294.902 49.334 294.902 48.69V44.742H293.88V43.972L295 43.356L295.56 41.746H296.666V43.412H298.822V44.742H296.666V48.676C296.666 49.0307 296.759 49.2967 296.946 49.474C297.142 49.642 297.384 49.726 297.674 49.726ZM303.445 43.272C304.425 43.272 305.167 43.4867 305.671 43.916C306.184 44.3453 306.441 45.008 306.441 45.904V51H305.195L304.845 49.95H304.789C304.462 50.3607 304.117 50.664 303.753 50.86C303.389 51.0467 302.894 51.14 302.269 51.14C301.588 51.14 301.023 50.9487 300.575 50.566C300.127 50.1833 299.903 49.5907 299.903 48.788C299.903 48.004 300.188 47.416 300.757 47.024C301.336 46.632 302.208 46.4127 303.375 46.366L304.691 46.324V45.946C304.691 45.4607 304.574 45.1153 304.341 44.91C304.108 44.7047 303.781 44.602 303.361 44.602C302.978 44.602 302.61 44.658 302.255 44.77C301.91 44.8727 301.564 45.0033 301.219 45.162L300.659 43.93C301.032 43.734 301.457 43.5753 301.933 43.454C302.418 43.3327 302.922 43.272 303.445 43.272ZM304.691 47.416L303.767 47.444C302.992 47.472 302.456 47.6073 302.157 47.85C301.858 48.0833 301.709 48.4007 301.709 48.802C301.709 49.166 301.812 49.4273 302.017 49.586C302.232 49.7353 302.512 49.81 302.857 49.81C303.37 49.81 303.804 49.6653 304.159 49.376C304.514 49.0773 304.691 48.6387 304.691 48.06V47.416ZM310.416 51H308.652V40.36H310.416V51ZM322.65 51L321.74 48.354H317.974L317.078 51H315.174L318.842 40.962H320.886L324.554 51H322.65ZM321.278 46.814L320.41 44.238C320.372 44.1167 320.316 43.944 320.242 43.72C320.167 43.4867 320.097 43.2533 320.032 43.02C319.966 42.7773 319.91 42.5767 319.864 42.418C319.817 42.614 319.756 42.8333 319.682 43.076C319.616 43.3187 319.551 43.5473 319.486 43.762C319.43 43.9767 319.383 44.1353 319.346 44.238L318.464 46.814H321.278ZM334.394 43.272C335.253 43.272 335.897 43.4913 336.326 43.93C336.765 44.3687 336.984 45.078 336.984 46.058V51H335.22V46.394C335.22 45.2647 334.791 44.7 333.932 44.7C333.316 44.7 332.878 44.9007 332.616 45.302C332.355 45.7033 332.224 46.2867 332.224 47.052V51H330.46V46.394C330.46 45.2647 330.026 44.7 329.158 44.7C328.514 44.7 328.071 44.924 327.828 45.372C327.586 45.82 327.464 46.4593 327.464 47.29V51H325.7V43.412H327.058L327.31 44.406H327.408C327.642 44.014 327.959 43.7293 328.36 43.552C328.762 43.3653 329.182 43.272 329.62 43.272C330.19 43.272 330.666 43.3653 331.048 43.552C331.44 43.7387 331.739 44.0373 331.944 44.448H332.084C332.318 44.0373 332.644 43.7387 333.064 43.552C333.484 43.3653 333.928 43.272 334.394 43.272ZM345.971 47.192C345.971 48.452 345.644 49.4273 344.991 50.118C344.337 50.7993 343.451 51.14 342.331 51.14C341.64 51.14 341.024 50.986 340.483 50.678C339.941 50.37 339.517 49.922 339.209 49.334C338.901 48.746 338.747 48.032 338.747 47.192C338.747 45.932 339.069 44.966 339.713 44.294C340.366 43.6127 341.253 43.272 342.373 43.272C343.073 43.272 343.693 43.426 344.235 43.734C344.776 44.0327 345.201 44.476 345.509 45.064C345.817 45.6427 345.971 46.352 345.971 47.192ZM340.553 47.192C340.553 47.9947 340.693 48.6153 340.973 49.054C341.262 49.4927 341.724 49.712 342.359 49.712C342.984 49.712 343.441 49.4927 343.731 49.054C344.02 48.6153 344.165 47.9947 344.165 47.192C344.165 46.3893 344.02 45.7733 343.731 45.344C343.441 44.9147 342.979 44.7 342.345 44.7C341.71 44.7 341.253 44.9147 340.973 45.344C340.693 45.7733 340.553 46.3893 340.553 47.192ZM354.528 43.412V51H353.142L352.904 50.02H352.82C352.577 50.412 352.241 50.6967 351.812 50.874C351.383 51.0513 350.93 51.14 350.454 51.14C349.605 51.14 348.937 50.9207 348.452 50.482C347.976 50.0433 347.738 49.3387 347.738 48.368V43.412H349.502V48.018C349.502 48.5873 349.614 49.012 349.838 49.292C350.062 49.572 350.417 49.712 350.902 49.712C351.611 49.712 352.097 49.488 352.358 49.04C352.629 48.592 352.764 47.9527 352.764 47.122V43.412H354.528ZM360.837 43.272C361.686 43.272 362.349 43.4913 362.825 43.93C363.31 44.3687 363.553 45.078 363.553 46.058V51H361.789V46.408C361.789 45.8387 361.677 45.414 361.453 45.134C361.229 44.8447 360.874 44.7 360.389 44.7C359.679 44.7 359.194 44.924 358.933 45.372C358.671 45.82 358.541 46.4593 358.541 47.29V51H356.777V43.412H358.135L358.387 44.406H358.485C358.727 44.014 359.059 43.7293 359.479 43.552C359.908 43.3653 360.361 43.272 360.837 43.272ZM368.699 49.726C368.914 49.726 369.124 49.7073 369.329 49.67C369.544 49.6233 369.74 49.572 369.917 49.516V50.832C369.73 50.9253 369.488 51 369.189 51.056C368.89 51.112 368.578 51.14 368.251 51.14C367.812 51.14 367.416 51.07 367.061 50.93C366.716 50.79 366.44 50.5427 366.235 50.188C366.03 49.8333 365.927 49.334 365.927 48.69V44.742H364.905V43.972L366.025 43.356L366.585 41.746H367.691V43.412H369.847V44.742H367.691V48.676C367.691 49.0307 367.784 49.2967 367.971 49.474C368.167 49.642 368.41 49.726 368.699 49.726Z" fill="black"/>
<line x1="262" y1="24.5" x2="392" y2="24.5" stroke="#C9C9C9"/>
<line x1="262" y1="67.5" x2="392" y2="67.5" stroke="#C9C9C9"/>
<rect width="130" height="44" transform="translate(262 68)" fill="white"/>
<path d="M281.542 95.812V94.314C281.029 94.3047 280.529 94.2627 280.044 94.188C279.559 94.104 279.167 93.992 278.868 93.852V92.662C279.185 92.8113 279.591 92.942 280.086 93.054C280.581 93.166 281.066 93.2267 281.542 93.236V90.408C280.618 90.156 279.941 89.8387 279.512 89.456C279.083 89.0733 278.868 88.5507 278.868 87.888C278.868 87.1973 279.106 86.656 279.582 86.264C280.067 85.872 280.721 85.6527 281.542 85.606V84.374H282.438V85.592C282.933 85.6107 283.381 85.6667 283.782 85.76C284.193 85.8533 284.566 85.97 284.902 86.11L284.524 87.146C284.225 87.0247 283.894 86.922 283.53 86.838C283.175 86.7447 282.811 86.684 282.438 86.656V89.47C283.054 89.6473 283.567 89.8387 283.978 90.044C284.389 90.24 284.697 90.4873 284.902 90.786C285.117 91.0753 285.224 91.4533 285.224 91.92C285.224 92.5733 284.981 93.1053 284.496 93.516C284.011 93.9173 283.325 94.1647 282.438 94.258V95.812H281.542ZM281.542 89.162V86.684C281.038 86.7213 280.665 86.838 280.422 87.034C280.189 87.23 280.072 87.482 280.072 87.79C280.072 88.1633 280.175 88.4527 280.38 88.658C280.595 88.854 280.982 89.022 281.542 89.162ZM282.438 93.166C282.989 93.11 283.39 92.984 283.642 92.788C283.894 92.5827 284.02 92.3213 284.02 92.004C284.02 91.6493 283.908 91.3833 283.684 91.206C283.46 91.0287 283.045 90.8607 282.438 90.702V93.166ZM287.916 95L292.018 86.124H286.628V85.004H293.334V85.956L289.274 95H287.916ZM301.751 92.732H300.295V95H299.105V92.732H294.317V91.682L299.021 84.948H300.295V91.626H301.751V92.732ZM299.105 91.626V88.476C299.105 87.9907 299.11 87.58 299.119 87.244C299.138 86.8987 299.157 86.572 299.175 86.264H299.119C299.045 86.4413 298.951 86.6327 298.839 86.838C298.727 87.0433 298.62 87.216 298.517 87.356L295.521 91.626H299.105ZM309.315 89.274C309.315 89.9927 309.25 90.702 309.119 91.402C308.998 92.0927 308.769 92.7227 308.433 93.292C308.106 93.852 307.64 94.3 307.033 94.636C306.436 94.972 305.666 95.14 304.723 95.14C304.536 95.14 304.317 95.126 304.065 95.098C303.813 95.0793 303.612 95.0467 303.463 95V93.95C303.827 94.0713 304.238 94.132 304.695 94.132C305.348 94.132 305.885 94.0247 306.305 93.81C306.734 93.5953 307.075 93.306 307.327 92.942C307.579 92.5687 307.761 92.1393 307.873 91.654C307.985 91.1593 308.05 90.6413 308.069 90.1H307.985C307.77 90.4173 307.472 90.6927 307.089 90.926C306.706 91.15 306.212 91.262 305.605 91.262C304.746 91.262 304.051 91.0007 303.519 90.478C302.996 89.946 302.735 89.1993 302.735 88.238C302.735 87.538 302.866 86.936 303.127 86.432C303.388 85.928 303.757 85.5407 304.233 85.27C304.718 84.9993 305.283 84.864 305.927 84.864C306.562 84.864 307.136 85.0273 307.649 85.354C308.162 85.6713 308.568 86.1567 308.867 86.81C309.166 87.454 309.315 88.2753 309.315 89.274ZM305.927 85.9C305.348 85.9 304.872 86.0913 304.499 86.474C304.135 86.8567 303.953 87.44 303.953 88.224C303.953 88.868 304.107 89.3767 304.415 89.75C304.732 90.114 305.218 90.296 305.871 90.296C306.319 90.296 306.706 90.2073 307.033 90.03C307.36 89.8433 307.612 89.61 307.789 89.33C307.976 89.05 308.069 88.7607 308.069 88.462C308.069 88.0607 307.99 87.664 307.831 87.272C307.672 86.88 307.434 86.5533 307.117 86.292C306.8 86.0307 306.403 85.9 305.927 85.9ZM311.055 94.244C311.055 93.8987 311.139 93.656 311.307 93.516C311.475 93.376 311.676 93.306 311.909 93.306C312.142 93.306 312.348 93.376 312.525 93.516C312.702 93.656 312.791 93.8987 312.791 94.244C312.791 94.58 312.702 94.8227 312.525 94.972C312.348 95.1213 312.142 95.196 311.909 95.196C311.676 95.196 311.475 95.1213 311.307 94.972C311.139 94.8227 311.055 94.58 311.055 94.244ZM321.521 92.732H320.065V95H318.875V92.732H314.087V91.682L318.791 84.948H320.065V91.626H321.521V92.732ZM318.875 91.626V88.476C318.875 87.9907 318.88 87.58 318.889 87.244C318.908 86.8987 318.926 86.572 318.945 86.264H318.889C318.814 86.4413 318.721 86.6327 318.609 86.838C318.497 87.0433 318.39 87.216 318.287 87.356L315.291 91.626H318.875ZM329.533 92.732H328.077V95H326.887V92.732H322.099V91.682L326.803 84.948H328.077V91.626H329.533V92.732ZM326.887 91.626V88.476C326.887 87.9907 326.891 87.58 326.901 87.244C326.919 86.8987 326.938 86.572 326.957 86.264H326.901C326.826 86.4413 326.733 86.6327 326.621 86.838C326.509 87.0433 326.401 87.216 326.299 87.356L323.303 91.626H326.887Z" fill="black"/>
<line x1="262" y1="111.5" x2="392" y2="111.5" stroke="#F1F1F1"/>
<rect width="130" height="44" transform="translate(262 112)" fill="white"/>
<path d="M281.542 139.812V138.314C281.029 138.305 280.529 138.263 280.044 138.188C279.559 138.104 279.167 137.992 278.868 137.852V136.662C279.185 136.811 279.591 136.942 280.086 137.054C280.581 137.166 281.066 137.227 281.542 137.236V134.408C280.618 134.156 279.941 133.839 279.512 133.456C279.083 133.073 278.868 132.551 278.868 131.888C278.868 131.197 279.106 130.656 279.582 130.264C280.067 129.872 280.721 129.653 281.542 129.606V128.374H282.438V129.592C282.933 129.611 283.381 129.667 283.782 129.76C284.193 129.853 284.566 129.97 284.902 130.11L284.524 131.146C284.225 131.025 283.894 130.922 283.53 130.838C283.175 130.745 282.811 130.684 282.438 130.656V133.47C283.054 133.647 283.567 133.839 283.978 134.044C284.389 134.24 284.697 134.487 284.902 134.786C285.117 135.075 285.224 135.453 285.224 135.92C285.224 136.573 284.981 137.105 284.496 137.516C284.011 137.917 283.325 138.165 282.438 138.258V139.812H281.542ZM281.542 133.162V130.684C281.038 130.721 280.665 130.838 280.422 131.034C280.189 131.23 280.072 131.482 280.072 131.79C280.072 132.163 280.175 132.453 280.38 132.658C280.595 132.854 280.982 133.022 281.542 133.162ZM282.438 137.166C282.989 137.11 283.39 136.984 283.642 136.788C283.894 136.583 284.02 136.321 284.02 136.004C284.02 135.649 283.908 135.383 283.684 135.206C283.46 135.029 283.045 134.861 282.438 134.702V137.166ZM293.74 136.732H292.284V139H291.094V136.732H286.306V135.682L291.01 128.948H292.284V135.626H293.74V136.732ZM291.094 135.626V132.476C291.094 131.991 291.098 131.58 291.108 131.244C291.126 130.899 291.145 130.572 291.164 130.264H291.108C291.033 130.441 290.94 130.633 290.828 130.838C290.716 131.043 290.608 131.216 290.506 131.356L287.51 135.626H291.094ZM296.613 137.376L296.711 137.53C296.581 138.025 296.403 138.566 296.179 139.154C295.955 139.751 295.731 140.302 295.507 140.806H294.597C294.728 140.274 294.859 139.691 294.989 139.056C295.129 138.421 295.232 137.861 295.297 137.376H296.613ZM301.76 128.864C302.637 128.864 303.356 129.069 303.916 129.48C304.476 129.891 304.756 130.483 304.756 131.258C304.756 131.659 304.667 132.009 304.49 132.308C304.322 132.607 304.093 132.873 303.804 133.106C303.514 133.33 303.197 133.531 302.852 133.708C303.262 133.913 303.636 134.137 303.972 134.38C304.308 134.623 304.574 134.907 304.77 135.234C304.975 135.561 305.078 135.953 305.078 136.41C305.078 137.25 304.779 137.917 304.182 138.412C303.584 138.897 302.791 139.14 301.802 139.14C300.719 139.14 299.888 138.907 299.31 138.44C298.74 137.964 298.456 137.301 298.456 136.452C298.456 136.004 298.549 135.612 298.736 135.276C298.932 134.931 299.188 134.637 299.506 134.394C299.823 134.151 300.164 133.946 300.528 133.778C300.033 133.498 299.618 133.162 299.282 132.77C298.946 132.369 298.778 131.86 298.778 131.244C298.778 130.74 298.908 130.311 299.17 129.956C299.431 129.601 299.786 129.331 300.234 129.144C300.682 128.957 301.19 128.864 301.76 128.864ZM301.746 129.858C301.223 129.858 300.798 129.984 300.472 130.236C300.145 130.479 299.982 130.833 299.982 131.3C299.982 131.645 300.061 131.935 300.22 132.168C300.388 132.401 300.612 132.602 300.892 132.77C301.172 132.929 301.48 133.083 301.816 133.232C302.301 133.027 302.707 132.779 303.034 132.49C303.37 132.201 303.538 131.804 303.538 131.3C303.538 130.833 303.374 130.479 303.048 130.236C302.721 129.984 302.287 129.858 301.746 129.858ZM299.66 136.466C299.66 136.951 299.832 137.357 300.178 137.684C300.523 138.001 301.055 138.16 301.774 138.16C302.455 138.16 302.973 138.001 303.328 137.684C303.692 137.357 303.874 136.937 303.874 136.424C303.874 135.939 303.682 135.537 303.3 135.22C302.917 134.893 302.408 134.609 301.774 134.366L301.55 134.282C300.934 134.553 300.462 134.856 300.136 135.192C299.818 135.528 299.66 135.953 299.66 136.466ZM313.509 136.732H312.053V139H310.863V136.732H306.075V135.682L310.779 128.948H312.053V135.626H313.509V136.732ZM310.863 135.626V132.476C310.863 131.991 310.868 131.58 310.877 131.244C310.896 130.899 310.915 130.572 310.933 130.264H310.877C310.803 130.441 310.709 130.633 310.597 130.838C310.485 131.043 310.378 131.216 310.275 131.356L307.279 135.626H310.863ZM317.783 128.864C318.66 128.864 319.379 129.069 319.939 129.48C320.499 129.891 320.779 130.483 320.779 131.258C320.779 131.659 320.69 132.009 320.513 132.308C320.345 132.607 320.116 132.873 319.827 133.106C319.538 133.33 319.22 133.531 318.875 133.708C319.286 133.913 319.659 134.137 319.995 134.38C320.331 134.623 320.597 134.907 320.793 135.234C320.998 135.561 321.101 135.953 321.101 136.41C321.101 137.25 320.802 137.917 320.205 138.412C319.608 138.897 318.814 139.14 317.825 139.14C316.742 139.14 315.912 138.907 315.333 138.44C314.764 137.964 314.479 137.301 314.479 136.452C314.479 136.004 314.572 135.612 314.759 135.276C314.955 134.931 315.212 134.637 315.529 134.394C315.846 134.151 316.187 133.946 316.551 133.778C316.056 133.498 315.641 133.162 315.305 132.77C314.969 132.369 314.801 131.86 314.801 131.244C314.801 130.74 314.932 130.311 315.193 129.956C315.454 129.601 315.809 129.331 316.257 129.144C316.705 128.957 317.214 128.864 317.783 128.864ZM317.769 129.858C317.246 129.858 316.822 129.984 316.495 130.236C316.168 130.479 316.005 130.833 316.005 131.3C316.005 131.645 316.084 131.935 316.243 132.168C316.411 132.401 316.635 132.602 316.915 132.77C317.195 132.929 317.503 133.083 317.839 133.232C318.324 133.027 318.73 132.779 319.057 132.49C319.393 132.201 319.561 131.804 319.561 131.3C319.561 130.833 319.398 130.479 319.071 130.236C318.744 129.984 318.31 129.858 317.769 129.858ZM315.683 136.466C315.683 136.951 315.856 137.357 316.201 137.684C316.546 138.001 317.078 138.16 317.797 138.16C318.478 138.16 318.996 138.001 319.351 137.684C319.715 137.357 319.897 136.937 319.897 136.424C319.897 135.939 319.706 135.537 319.323 135.22C318.94 134.893 318.432 134.609 317.797 134.366L317.573 134.282C316.957 134.553 316.486 134.856 316.159 135.192C315.842 135.528 315.683 135.953 315.683 136.466ZM322.813 138.244C322.813 137.899 322.897 137.656 323.065 137.516C323.233 137.376 323.433 137.306 323.667 137.306C323.9 137.306 324.105 137.376 324.283 137.516C324.46 137.656 324.549 137.899 324.549 138.244C324.549 138.58 324.46 138.823 324.283 138.972C324.105 139.121 323.9 139.196 323.667 139.196C323.433 139.196 323.233 139.121 323.065 138.972C322.897 138.823 322.813 138.58 322.813 138.244ZM332.873 133.988C332.873 135.071 332.761 135.995 332.537 136.76C332.313 137.525 331.953 138.113 331.459 138.524C330.973 138.935 330.334 139.14 329.541 139.14C328.411 139.14 327.576 138.687 327.035 137.782C326.503 136.867 326.237 135.603 326.237 133.988C326.237 132.905 326.344 131.981 326.559 131.216C326.783 130.451 327.137 129.867 327.623 129.466C328.108 129.055 328.747 128.85 329.541 128.85C330.661 128.85 331.496 129.303 332.047 130.208C332.597 131.104 332.873 132.364 332.873 133.988ZM327.469 133.988C327.469 135.36 327.623 136.387 327.931 137.068C328.248 137.749 328.785 138.09 329.541 138.09C330.287 138.09 330.819 137.754 331.137 137.082C331.463 136.401 331.627 135.369 331.627 133.988C331.627 132.625 331.463 131.603 331.137 130.922C330.819 130.241 330.287 129.9 329.541 129.9C328.785 129.9 328.248 130.241 327.931 130.922C327.623 131.603 327.469 132.625 327.469 133.988ZM340.885 133.988C340.885 135.071 340.773 135.995 340.549 136.76C340.325 137.525 339.965 138.113 339.471 138.524C338.985 138.935 338.346 139.14 337.553 139.14C336.423 139.14 335.588 138.687 335.047 137.782C334.515 136.867 334.249 135.603 334.249 133.988C334.249 132.905 334.356 131.981 334.571 131.216C334.795 130.451 335.149 129.867 335.635 129.466C336.12 129.055 336.759 128.85 337.553 128.85C338.673 128.85 339.508 129.303 340.059 130.208C340.609 131.104 340.885 132.364 340.885 133.988ZM335.481 133.988C335.481 135.36 335.635 136.387 335.943 137.068C336.26 137.749 336.797 138.09 337.553 138.09C338.299 138.09 338.831 137.754 339.149 137.082C339.475 136.401 339.639 135.369 339.639 133.988C339.639 132.625 339.475 131.603 339.149 130.922C338.831 130.241 338.299 129.9 337.553 129.9C336.797 129.9 336.26 130.241 335.943 130.922C335.635 131.603 335.481 132.625 335.481 133.988Z" fill="black"/>
<line x1="262" y1="155.5" x2="392" y2="155.5" stroke="#F1F1F1"/>
<rect width="130" height="44" transform="translate(262 156)" fill="white"/>
<path d="M281.542 183.812V182.314C281.029 182.305 280.529 182.263 280.044 182.188C279.559 182.104 279.167 181.992 278.868 181.852V180.662C279.185 180.811 279.591 180.942 280.086 181.054C280.581 181.166 281.066 181.227 281.542 181.236V178.408C280.618 178.156 279.941 177.839 279.512 177.456C279.083 177.073 278.868 176.551 278.868 175.888C278.868 175.197 279.106 174.656 279.582 174.264C280.067 173.872 280.721 173.653 281.542 173.606V172.374H282.438V173.592C282.933 173.611 283.381 173.667 283.782 173.76C284.193 173.853 284.566 173.97 284.902 174.11L284.524 175.146C284.225 175.025 283.894 174.922 283.53 174.838C283.175 174.745 282.811 174.684 282.438 174.656V177.47C283.054 177.647 283.567 177.839 283.978 178.044C284.389 178.24 284.697 178.487 284.902 178.786C285.117 179.075 285.224 179.453 285.224 179.92C285.224 180.573 284.981 181.105 284.496 181.516C284.011 181.917 283.325 182.165 282.438 182.258V183.812H281.542ZM281.542 177.162V174.684C281.038 174.721 280.665 174.838 280.422 175.034C280.189 175.23 280.072 175.482 280.072 175.79C280.072 176.163 280.175 176.453 280.38 176.658C280.595 176.854 280.982 177.022 281.542 177.162ZM282.438 181.166C282.989 181.11 283.39 180.984 283.642 180.788C283.894 180.583 284.02 180.321 284.02 180.004C284.02 179.649 283.908 179.383 283.684 179.206C283.46 179.029 283.045 178.861 282.438 178.702V181.166ZM292.914 175.342C292.914 176.014 292.722 176.551 292.34 176.952C291.966 177.344 291.467 177.605 290.842 177.736V177.792C291.635 177.885 292.228 178.137 292.62 178.548C293.021 178.959 293.222 179.495 293.222 180.158C293.222 180.746 293.086 181.264 292.816 181.712C292.545 182.16 292.125 182.51 291.556 182.762C290.996 183.014 290.272 183.14 289.386 183.14C288.863 183.14 288.378 183.098 287.93 183.014C287.482 182.939 287.052 182.799 286.642 182.594V181.446C287.062 181.661 287.514 181.824 288 181.936C288.485 182.048 288.952 182.104 289.4 182.104C290.296 182.104 290.94 181.931 291.332 181.586C291.733 181.231 291.934 180.746 291.934 180.13C291.934 179.505 291.686 179.057 291.192 178.786C290.706 178.506 290.02 178.366 289.134 178.366H288.168V177.316H289.148C289.969 177.316 290.59 177.143 291.01 176.798C291.439 176.453 291.654 175.995 291.654 175.426C291.654 174.941 291.49 174.567 291.164 174.306C290.837 174.035 290.394 173.9 289.834 173.9C289.292 173.9 288.83 173.979 288.448 174.138C288.065 174.297 287.687 174.497 287.314 174.74L286.698 173.9C287.052 173.62 287.491 173.377 288.014 173.172C288.546 172.967 289.148 172.864 289.82 172.864C290.865 172.864 291.64 173.097 292.144 173.564C292.657 174.031 292.914 174.623 292.914 175.342ZM296.613 181.376L296.711 181.53C296.581 182.025 296.403 182.566 296.179 183.154C295.955 183.751 295.731 184.302 295.507 184.806H294.597C294.728 184.274 294.859 183.691 294.989 183.056C295.129 182.421 295.232 181.861 295.297 181.376H296.613ZM305.05 177.274C305.05 177.993 304.984 178.702 304.854 179.402C304.732 180.093 304.504 180.723 304.168 181.292C303.841 181.852 303.374 182.3 302.768 182.636C302.17 182.972 301.4 183.14 300.458 183.14C300.271 183.14 300.052 183.126 299.8 183.098C299.548 183.079 299.347 183.047 299.198 183V181.95C299.562 182.071 299.972 182.132 300.43 182.132C301.083 182.132 301.62 182.025 302.04 181.81C302.469 181.595 302.81 181.306 303.062 180.942C303.314 180.569 303.496 180.139 303.608 179.654C303.72 179.159 303.785 178.641 303.804 178.1H303.72C303.505 178.417 303.206 178.693 302.824 178.926C302.441 179.15 301.946 179.262 301.34 179.262C300.481 179.262 299.786 179.001 299.254 178.478C298.731 177.946 298.47 177.199 298.47 176.238C298.47 175.538 298.6 174.936 298.862 174.432C299.123 173.928 299.492 173.541 299.968 173.27C300.453 172.999 301.018 172.864 301.662 172.864C302.296 172.864 302.87 173.027 303.384 173.354C303.897 173.671 304.303 174.157 304.602 174.81C304.9 175.454 305.05 176.275 305.05 177.274ZM301.662 173.9C301.083 173.9 300.607 174.091 300.234 174.474C299.87 174.857 299.688 175.44 299.688 176.224C299.688 176.868 299.842 177.377 300.15 177.75C300.467 178.114 300.952 178.296 301.606 178.296C302.054 178.296 302.441 178.207 302.768 178.03C303.094 177.843 303.346 177.61 303.524 177.33C303.71 177.05 303.804 176.761 303.804 176.462C303.804 176.061 303.724 175.664 303.566 175.272C303.407 174.88 303.169 174.553 302.852 174.292C302.534 174.031 302.138 173.9 301.662 173.9ZM309.631 176.868C310.649 176.868 311.461 177.125 312.067 177.638C312.683 178.151 312.991 178.875 312.991 179.808C312.991 180.844 312.66 181.661 311.997 182.258C311.344 182.846 310.429 183.14 309.253 183.14C308.731 183.14 308.245 183.093 307.797 183C307.349 182.907 306.971 182.771 306.663 182.594V181.432C306.999 181.637 307.405 181.801 307.881 181.922C308.367 182.034 308.829 182.09 309.267 182.09C310.005 182.09 310.597 181.917 311.045 181.572C311.503 181.217 311.731 180.671 311.731 179.934C311.731 179.281 311.531 178.781 311.129 178.436C310.728 178.081 310.093 177.904 309.225 177.904C308.964 177.904 308.665 177.927 308.329 177.974C307.993 178.021 307.723 178.067 307.517 178.114L306.901 177.722L307.279 173.004H312.291V174.124H308.329L308.091 177.022C308.25 176.994 308.465 176.961 308.735 176.924C309.006 176.887 309.305 176.868 309.631 176.868ZM317.783 172.864C318.66 172.864 319.379 173.069 319.939 173.48C320.499 173.891 320.779 174.483 320.779 175.258C320.779 175.659 320.69 176.009 320.513 176.308C320.345 176.607 320.116 176.873 319.827 177.106C319.538 177.33 319.22 177.531 318.875 177.708C319.286 177.913 319.659 178.137 319.995 178.38C320.331 178.623 320.597 178.907 320.793 179.234C320.998 179.561 321.101 179.953 321.101 180.41C321.101 181.25 320.802 181.917 320.205 182.412C319.608 182.897 318.814 183.14 317.825 183.14C316.742 183.14 315.912 182.907 315.333 182.44C314.764 181.964 314.479 181.301 314.479 180.452C314.479 180.004 314.572 179.612 314.759 179.276C314.955 178.931 315.212 178.637 315.529 178.394C315.846 178.151 316.187 177.946 316.551 177.778C316.056 177.498 315.641 177.162 315.305 176.77C314.969 176.369 314.801 175.86 314.801 175.244C314.801 174.74 314.932 174.311 315.193 173.956C315.454 173.601 315.809 173.331 316.257 173.144C316.705 172.957 317.214 172.864 317.783 172.864ZM317.769 173.858C317.246 173.858 316.822 173.984 316.495 174.236C316.168 174.479 316.005 174.833 316.005 175.3C316.005 175.645 316.084 175.935 316.243 176.168C316.411 176.401 316.635 176.602 316.915 176.77C317.195 176.929 317.503 177.083 317.839 177.232C318.324 177.027 318.73 176.779 319.057 176.49C319.393 176.201 319.561 175.804 319.561 175.3C319.561 174.833 319.398 174.479 319.071 174.236C318.744 173.984 318.31 173.858 317.769 173.858ZM315.683 180.466C315.683 180.951 315.856 181.357 316.201 181.684C316.546 182.001 317.078 182.16 317.797 182.16C318.478 182.16 318.996 182.001 319.351 181.684C319.715 181.357 319.897 180.937 319.897 180.424C319.897 179.939 319.706 179.537 319.323 179.22C318.94 178.893 318.432 178.609 317.797 178.366L317.573 178.282C316.957 178.553 316.486 178.856 316.159 179.192C315.842 179.528 315.683 179.953 315.683 180.466ZM322.813 182.244C322.813 181.899 322.897 181.656 323.065 181.516C323.233 181.376 323.433 181.306 323.667 181.306C323.9 181.306 324.105 181.376 324.283 181.516C324.46 181.656 324.549 181.899 324.549 182.244C324.549 182.58 324.46 182.823 324.283 182.972C324.105 183.121 323.9 183.196 323.667 183.196C323.433 183.196 323.233 183.121 323.065 182.972C322.897 182.823 322.813 182.58 322.813 182.244ZM329.401 176.868C330.418 176.868 331.23 177.125 331.837 177.638C332.453 178.151 332.761 178.875 332.761 179.808C332.761 180.844 332.429 181.661 331.767 182.258C331.113 182.846 330.199 183.14 329.023 183.14C328.5 183.14 328.015 183.093 327.567 183C327.119 182.907 326.741 182.771 326.433 182.594V181.432C326.769 181.637 327.175 181.801 327.651 181.922C328.136 182.034 328.598 182.09 329.037 182.09C329.774 182.09 330.367 181.917 330.815 181.572C331.272 181.217 331.501 180.671 331.501 179.934C331.501 179.281 331.3 178.781 330.899 178.436C330.497 178.081 329.863 177.904 328.995 177.904C328.733 177.904 328.435 177.927 328.099 177.974C327.763 178.021 327.492 178.067 327.287 178.114L326.671 177.722L327.049 173.004H332.061V174.124H328.099L327.861 177.022C328.019 176.994 328.234 176.961 328.505 176.924C328.775 176.887 329.074 176.868 329.401 176.868ZM340.885 177.988C340.885 179.071 340.773 179.995 340.549 180.76C340.325 181.525 339.965 182.113 339.471 182.524C338.985 182.935 338.346 183.14 337.553 183.14C336.423 183.14 335.588 182.687 335.047 181.782C334.515 180.867 334.249 179.603 334.249 177.988C334.249 176.905 334.356 175.981 334.571 175.216C334.795 174.451 335.149 173.867 335.635 173.466C336.12 173.055 336.759 172.85 337.553 172.85C338.673 172.85 339.508 173.303 340.059 174.208C340.609 175.104 340.885 176.364 340.885 177.988ZM335.481 177.988C335.481 179.36 335.635 180.387 335.943 181.068C336.26 181.749 336.797 182.09 337.553 182.09C338.299 182.09 338.831 181.754 339.149 181.082C339.475 180.401 339.639 179.369 339.639 177.988C339.639 176.625 339.475 175.603 339.149 174.922C338.831 174.241 338.299 173.9 337.553 173.9C336.797 173.9 336.26 174.241 335.943 174.922C335.635 175.603 335.481 176.625 335.481 177.988Z" fill="black"/>
<line x1="262" y1="199.5" x2="392" y2="199.5" stroke="#F1F1F1"/>
<rect width="130" height="44" transform="translate(262 200)" fill="white"/>
<path d="M281.542 227.812V226.314C281.029 226.305 280.529 226.263 280.044 226.188C279.559 226.104 279.167 225.992 278.868 225.852V224.662C279.185 224.811 279.591 224.942 280.086 225.054C280.581 225.166 281.066 225.227 281.542 225.236V222.408C280.618 222.156 279.941 221.839 279.512 221.456C279.083 221.073 278.868 220.551 278.868 219.888C278.868 219.197 279.106 218.656 279.582 218.264C280.067 217.872 280.721 217.653 281.542 217.606V216.374H282.438V217.592C282.933 217.611 283.381 217.667 283.782 217.76C284.193 217.853 284.566 217.97 284.902 218.11L284.524 219.146C284.225 219.025 283.894 218.922 283.53 218.838C283.175 218.745 282.811 218.684 282.438 218.656V221.47C283.054 221.647 283.567 221.839 283.978 222.044C284.389 222.24 284.697 222.487 284.902 222.786C285.117 223.075 285.224 223.453 285.224 223.92C285.224 224.573 284.981 225.105 284.496 225.516C284.011 225.917 283.325 226.165 282.438 226.258V227.812H281.542ZM281.542 221.162V218.684C281.038 218.721 280.665 218.838 280.422 219.034C280.189 219.23 280.072 219.482 280.072 219.79C280.072 220.163 280.175 220.453 280.38 220.658C280.595 220.854 280.982 221.022 281.542 221.162ZM282.438 225.166C282.989 225.11 283.39 224.984 283.642 224.788C283.894 224.583 284.02 224.321 284.02 224.004C284.02 223.649 283.908 223.383 283.684 223.206C283.46 223.029 283.045 222.861 282.438 222.702V225.166ZM293.74 224.732H292.284V227H291.094V224.732H286.306V223.682L291.01 216.948H292.284V223.626H293.74V224.732ZM291.094 223.626V220.476C291.094 219.991 291.098 219.58 291.108 219.244C291.126 218.899 291.145 218.572 291.164 218.264H291.108C291.033 218.441 290.94 218.633 290.828 218.838C290.716 219.043 290.608 219.216 290.506 219.356L287.51 223.626H291.094ZM298.013 216.864C298.891 216.864 299.609 217.069 300.169 217.48C300.729 217.891 301.009 218.483 301.009 219.258C301.009 219.659 300.921 220.009 300.743 220.308C300.575 220.607 300.347 220.873 300.057 221.106C299.768 221.33 299.451 221.531 299.105 221.708C299.516 221.913 299.889 222.137 300.225 222.38C300.561 222.623 300.827 222.907 301.023 223.234C301.229 223.561 301.331 223.953 301.331 224.41C301.331 225.25 301.033 225.917 300.435 226.412C299.838 226.897 299.045 227.14 298.055 227.14C296.973 227.14 296.142 226.907 295.563 226.44C294.994 225.964 294.709 225.301 294.709 224.452C294.709 224.004 294.803 223.612 294.989 223.276C295.185 222.931 295.442 222.637 295.759 222.394C296.077 222.151 296.417 221.946 296.781 221.778C296.287 221.498 295.871 221.162 295.535 220.77C295.199 220.369 295.031 219.86 295.031 219.244C295.031 218.74 295.162 218.311 295.423 217.956C295.685 217.601 296.039 217.331 296.487 217.144C296.935 216.957 297.444 216.864 298.013 216.864ZM297.999 217.858C297.477 217.858 297.052 217.984 296.725 218.236C296.399 218.479 296.235 218.833 296.235 219.3C296.235 219.645 296.315 219.935 296.473 220.168C296.641 220.401 296.865 220.602 297.145 220.77C297.425 220.929 297.733 221.083 298.069 221.232C298.555 221.027 298.961 220.779 299.287 220.49C299.623 220.201 299.791 219.804 299.791 219.3C299.791 218.833 299.628 218.479 299.301 218.236C298.975 217.984 298.541 217.858 297.999 217.858ZM295.913 224.466C295.913 224.951 296.086 225.357 296.431 225.684C296.777 226.001 297.309 226.16 298.027 226.16C298.709 226.16 299.227 226.001 299.581 225.684C299.945 225.357 300.127 224.937 300.127 224.424C300.127 223.939 299.936 223.537 299.553 223.22C299.171 222.893 298.662 222.609 298.027 222.366L297.803 222.282C297.187 222.553 296.716 222.856 296.389 223.192C296.072 223.528 295.913 223.953 295.913 224.466ZM309.763 224.732H308.307V227H307.117V224.732H302.329V223.682L307.033 216.948H308.307V223.626H309.763V224.732ZM307.117 223.626V220.476C307.117 219.991 307.122 219.58 307.131 219.244C307.15 218.899 307.168 218.572 307.187 218.264H307.131C307.056 218.441 306.963 218.633 306.851 218.838C306.739 219.043 306.632 219.216 306.529 219.356L303.533 223.626H307.117ZM311.055 226.244C311.055 225.899 311.139 225.656 311.307 225.516C311.475 225.376 311.676 225.306 311.909 225.306C312.142 225.306 312.348 225.376 312.525 225.516C312.702 225.656 312.791 225.899 312.791 226.244C312.791 226.58 312.702 226.823 312.525 226.972C312.348 227.121 312.142 227.196 311.909 227.196C311.676 227.196 311.475 227.121 311.307 226.972C311.139 226.823 311.055 226.58 311.055 226.244ZM320.695 219.342C320.695 220.014 320.504 220.551 320.121 220.952C319.748 221.344 319.248 221.605 318.623 221.736V221.792C319.416 221.885 320.009 222.137 320.401 222.548C320.802 222.959 321.003 223.495 321.003 224.158C321.003 224.746 320.868 225.264 320.597 225.712C320.326 226.16 319.906 226.51 319.337 226.762C318.777 227.014 318.054 227.14 317.167 227.14C316.644 227.14 316.159 227.098 315.711 227.014C315.263 226.939 314.834 226.799 314.423 226.594V225.446C314.843 225.661 315.296 225.824 315.781 225.936C316.266 226.048 316.733 226.104 317.181 226.104C318.077 226.104 318.721 225.931 319.113 225.586C319.514 225.231 319.715 224.746 319.715 224.13C319.715 223.505 319.468 223.057 318.973 222.786C318.488 222.506 317.802 222.366 316.915 222.366H315.949V221.316H316.929C317.75 221.316 318.371 221.143 318.791 220.798C319.22 220.453 319.435 219.995 319.435 219.426C319.435 218.941 319.272 218.567 318.945 218.306C318.618 218.035 318.175 217.9 317.615 217.9C317.074 217.9 316.612 217.979 316.229 218.138C315.846 218.297 315.468 218.497 315.095 218.74L314.479 217.9C314.834 217.62 315.272 217.377 315.795 217.172C316.327 216.967 316.929 216.864 317.601 216.864C318.646 216.864 319.421 217.097 319.925 217.564C320.438 218.031 320.695 218.623 320.695 219.342ZM329.085 227H322.477V225.978L325.095 223.332C325.589 222.828 326.009 222.38 326.355 221.988C326.709 221.596 326.975 221.213 327.153 220.84C327.33 220.467 327.419 220.051 327.419 219.594C327.419 219.043 327.255 218.628 326.929 218.348C326.602 218.059 326.177 217.914 325.655 217.914C325.16 217.914 324.731 217.998 324.367 218.166C324.003 218.334 323.629 218.567 323.247 218.866L322.589 218.04C322.981 217.713 323.429 217.438 323.933 217.214C324.446 216.981 325.02 216.864 325.655 216.864C326.588 216.864 327.325 217.102 327.867 217.578C328.408 218.054 328.679 218.703 328.679 219.524C328.679 220.047 328.571 220.537 328.357 220.994C328.142 221.451 327.843 221.904 327.461 222.352C327.078 222.8 326.63 223.271 326.117 223.766L324.031 225.824V225.88H329.085V227Z" fill="black"/>
<line x1="262" y1="243.5" x2="392" y2="243.5" stroke="#F1F1F1"/>
<rect width="130" height="44" transform="translate(262 244)" fill="white"/>
<path d="M281.542 271.812V270.314C281.029 270.305 280.529 270.263 280.044 270.188C279.559 270.104 279.167 269.992 278.868 269.852V268.662C279.185 268.811 279.591 268.942 280.086 269.054C280.581 269.166 281.066 269.227 281.542 269.236V266.408C280.618 266.156 279.941 265.839 279.512 265.456C279.083 265.073 278.868 264.551 278.868 263.888C278.868 263.197 279.106 262.656 279.582 262.264C280.067 261.872 280.721 261.653 281.542 261.606V260.374H282.438V261.592C282.933 261.611 283.381 261.667 283.782 261.76C284.193 261.853 284.566 261.97 284.902 262.11L284.524 263.146C284.225 263.025 283.894 262.922 283.53 262.838C283.175 262.745 282.811 262.684 282.438 262.656V265.47C283.054 265.647 283.567 265.839 283.978 266.044C284.389 266.24 284.697 266.487 284.902 266.786C285.117 267.075 285.224 267.453 285.224 267.92C285.224 268.573 284.981 269.105 284.496 269.516C284.011 269.917 283.325 270.165 282.438 270.258V271.812H281.542ZM281.542 265.162V262.684C281.038 262.721 280.665 262.838 280.422 263.034C280.189 263.23 280.072 263.482 280.072 263.79C280.072 264.163 280.175 264.453 280.38 264.658C280.595 264.854 280.982 265.022 281.542 265.162ZM282.438 269.166C282.989 269.11 283.39 268.984 283.642 268.788C283.894 268.583 284.02 268.321 284.02 268.004C284.02 267.649 283.908 267.383 283.684 267.206C283.46 267.029 283.045 266.861 282.438 266.702V269.166ZM289.862 264.868C290.879 264.868 291.691 265.125 292.298 265.638C292.914 266.151 293.222 266.875 293.222 267.808C293.222 268.844 292.89 269.661 292.228 270.258C291.574 270.846 290.66 271.14 289.484 271.14C288.961 271.14 288.476 271.093 288.028 271C287.58 270.907 287.202 270.771 286.894 270.594V269.432C287.23 269.637 287.636 269.801 288.112 269.922C288.597 270.034 289.059 270.09 289.498 270.09C290.235 270.09 290.828 269.917 291.276 269.572C291.733 269.217 291.962 268.671 291.962 267.934C291.962 267.281 291.761 266.781 291.36 266.436C290.958 266.081 290.324 265.904 289.456 265.904C289.194 265.904 288.896 265.927 288.56 265.974C288.224 266.021 287.953 266.067 287.748 266.114L287.132 265.722L287.51 261.004H292.522V262.124H288.56L288.322 265.022C288.48 264.994 288.695 264.961 288.966 264.924C289.236 264.887 289.535 264.868 289.862 264.868ZM301.303 271H294.695V269.978L297.313 267.332C297.808 266.828 298.228 266.38 298.573 265.988C298.928 265.596 299.194 265.213 299.371 264.84C299.549 264.467 299.637 264.051 299.637 263.594C299.637 263.043 299.474 262.628 299.147 262.348C298.821 262.059 298.396 261.914 297.873 261.914C297.379 261.914 296.949 261.998 296.585 262.166C296.221 262.334 295.848 262.567 295.465 262.866L294.807 262.04C295.199 261.713 295.647 261.438 296.151 261.214C296.665 260.981 297.239 260.864 297.873 260.864C298.807 260.864 299.544 261.102 300.085 261.578C300.627 262.054 300.897 262.703 300.897 263.524C300.897 264.047 300.79 264.537 300.575 264.994C300.361 265.451 300.062 265.904 299.679 266.352C299.297 266.8 298.849 267.271 298.335 267.766L296.249 269.824V269.88H301.303V271ZM303.939 271L308.041 262.124H302.651V261.004H309.357V261.956L305.297 271H303.939ZM311.055 270.244C311.055 269.899 311.139 269.656 311.307 269.516C311.475 269.376 311.676 269.306 311.909 269.306C312.142 269.306 312.348 269.376 312.525 269.516C312.702 269.656 312.791 269.899 312.791 270.244C312.791 270.58 312.702 270.823 312.525 270.972C312.348 271.121 312.142 271.196 311.909 271.196C311.676 271.196 311.475 271.121 311.307 270.972C311.139 270.823 311.055 270.58 311.055 270.244ZM321.521 268.732H320.065V271H318.875V268.732H314.087V267.682L318.791 260.948H320.065V267.626H321.521V268.732ZM318.875 267.626V264.476C318.875 263.991 318.88 263.58 318.889 263.244C318.908 262.899 318.926 262.572 318.945 262.264H318.889C318.814 262.441 318.721 262.633 318.609 262.838C318.497 263.043 318.39 263.216 318.287 263.356L315.291 267.626H318.875ZM329.127 265.988C329.127 267.071 329.015 267.995 328.791 268.76C328.567 269.525 328.207 270.113 327.713 270.524C327.227 270.935 326.588 271.14 325.795 271.14C324.665 271.14 323.83 270.687 323.289 269.782C322.757 268.867 322.491 267.603 322.491 265.988C322.491 264.905 322.598 263.981 322.813 263.216C323.037 262.451 323.391 261.867 323.877 261.466C324.362 261.055 325.001 260.85 325.795 260.85C326.915 260.85 327.75 261.303 328.301 262.208C328.851 263.104 329.127 264.364 329.127 265.988ZM323.723 265.988C323.723 267.36 323.877 268.387 324.185 269.068C324.502 269.749 325.039 270.09 325.795 270.09C326.541 270.09 327.073 269.754 327.391 269.082C327.717 268.401 327.881 267.369 327.881 265.988C327.881 264.625 327.717 263.603 327.391 262.922C327.073 262.241 326.541 261.9 325.795 261.9C325.039 261.9 324.502 262.241 324.185 262.922C323.877 263.603 323.723 264.625 323.723 265.988Z" fill="black"/>
<line x1="262" y1="287.5" x2="392" y2="287.5" stroke="#F1F1F1"/>
<defs>
<clipPath id="clip0_9160_132060">
<rect width="16" height="44" fill="white" transform="translate(110 24)"/>
</clipPath>
<clipPath id="clip1_9160_132060">
<rect width="16" height="44" fill="white" transform="translate(110 68)"/>
</clipPath>
<clipPath id="clip2_9160_132060">
<rect width="16" height="44" fill="white" transform="translate(110 112)"/>
</clipPath>
<clipPath id="clip3_9160_132060">
<rect width="16" height="44" fill="white" transform="translate(110 156)"/>
</clipPath>
<clipPath id="clip4_9160_132060">
<rect width="16" height="44" fill="white" transform="translate(110 200)"/>
</clipPath>
<clipPath id="clip5_9160_132060">
<rect width="16" height="44" fill="white" transform="translate(110 244)"/>
</clipPath>
<clipPath id="clip6_9160_132060">
<rect width="16" height="44" fill="white" transform="translate(246 24)"/>
</clipPath>
<clipPath id="clip7_9160_132060">
<rect width="16" height="44" fill="white" transform="translate(246 68)"/>
</clipPath>
<clipPath id="clip8_9160_132060">
<rect width="16" height="44" fill="white" transform="translate(246 112)"/>
</clipPath>
<clipPath id="clip9_9160_132060">
<rect width="16" height="44" fill="white" transform="translate(246 156)"/>
</clipPath>
<clipPath id="clip10_9160_132060">
<rect width="16" height="44" fill="white" transform="translate(246 200)"/>
</clipPath>
<clipPath id="clip11_9160_132060">
<rect width="16" height="44" fill="white" transform="translate(246 244)"/>
</clipPath>
</defs>
</svg>
