<svg width="434" height="296" viewBox="0 0 434 296" fill="none" xmlns="http://www.w3.org/2000/svg">
<rect width="434" height="296" fill="white"/>
<mask id="path-1-inside-1_8602_550381" fill="white">
<path d="M32 16H100V60H32V16Z"/>
</mask>
<path d="M32 16H100V60H32V16Z" fill="white"/>
<path d="M32 17H100V15H32V17ZM100 59H32V61H100V59Z" fill="#C9C9C9" mask="url(#path-1-inside-1_8602_550381)"/>
<rect x="52" y="30" width="16" height="16" rx="4" fill="white"/>
<rect x="52.5" y="30.5" width="15" height="15" rx="3.5" stroke="#1B77AF"/>
<path d="M84.0125 41.3625C83.9125 41.3625 83.8125 41.3125 83.7625 41.2625L78.1125 35.6625C77.9625 35.5125 77.9625 35.2625 78.1125 35.1125C78.2625 34.9625 78.5125 34.9625 78.6625 35.1125L84.0125 40.4625L89.3125 35.1125C89.4625 34.9625 89.7125 34.9625 89.8625 35.1125C90.0125 35.2625 90.0125 35.5125 89.8625 35.6625L84.2625 41.2625C84.1625 41.3125 84.1125 41.3625 84.0125 41.3625Z" fill="#323232"/>
<mask id="path-7-inside-2_8602_550381" fill="white">
<path d="M32 60H100V104H32V60Z"/>
</mask>
<path d="M32 60H100V104H32V60Z" fill="white"/>
<path d="M100 103H32V105H100V103Z" fill="#F1F1F1" mask="url(#path-7-inside-2_8602_550381)"/>
<rect x="52" y="74" width="16" height="16" rx="4" fill="white"/>
<rect x="52.5" y="74.5" width="15" height="15" rx="3.5" stroke="#1B77AF"/>
<mask id="path-12-inside-3_8602_550381" fill="white">
<path d="M32 104H100V148H32V104Z"/>
</mask>
<path d="M32 104H100V148H32V104Z" fill="white"/>
<path d="M100 147H32V149H100V147Z" fill="#F1F1F1" mask="url(#path-12-inside-3_8602_550381)"/>
<rect x="52" y="118" width="16" height="16" rx="4" fill="white"/>
<rect x="52.5" y="118.5" width="15" height="15" rx="3.5" stroke="#1B77AF"/>
<mask id="path-17-inside-4_8602_550381" fill="white">
<path d="M32 148H100V192H32V148Z"/>
</mask>
<path d="M32 148H100V192H32V148Z" fill="#F1F1F1"/>
<path d="M100 191H32V193H100V191Z" fill="#F1F1F1" mask="url(#path-17-inside-4_8602_550381)"/>
<rect x="52" y="162" width="16" height="16" rx="4" fill="white"/>
<rect x="52.5" y="162.5" width="15" height="15" rx="3.5" stroke="#1B77AF"/>
<mask id="path-22-inside-5_8602_550381" fill="white">
<path d="M32 192H100V236H32V192Z"/>
</mask>
<path d="M32 192H100V236H32V192Z" fill="white"/>
<path d="M100 235H32V237H100V235Z" fill="#F1F1F1" mask="url(#path-22-inside-5_8602_550381)"/>
<rect x="52" y="206" width="16" height="16" rx="4" fill="white"/>
<rect x="52.5" y="206.5" width="15" height="15" rx="3.5" stroke="#1B77AF"/>
<mask id="path-27-inside-6_8602_550381" fill="white">
<path d="M32 236H100V280H32V236Z"/>
</mask>
<path d="M32 236H100V280H32V236Z" fill="white"/>
<path d="M100 279H32V281H100V279Z" fill="#F1F1F1" mask="url(#path-27-inside-6_8602_550381)"/>
<rect x="52" y="250" width="16" height="16" rx="4" fill="white"/>
<rect x="52.5" y="250.5" width="15" height="15" rx="3.5" stroke="#1B77AF"/>
<rect width="200" height="44" transform="translate(100 16)" fill="white"/>
<path d="M121.558 34.376C120.653 34.376 119.948 34.7027 119.444 35.356C118.94 36 118.688 36.8867 118.688 38.016C118.688 39.1547 118.921 40.0413 119.388 40.676C119.855 41.3107 120.573 41.628 121.544 41.628C121.964 41.628 122.375 41.586 122.776 41.502C123.187 41.4087 123.607 41.2873 124.036 41.138V42.664C123.625 42.832 123.21 42.9533 122.79 43.028C122.379 43.1027 121.903 43.14 121.362 43.14C120.335 43.14 119.486 42.93 118.814 42.51C118.142 42.0807 117.643 41.4833 117.316 40.718C116.989 39.9433 116.826 39.038 116.826 38.002C116.826 36.994 117.008 36.1073 117.372 35.342C117.736 34.5673 118.268 33.9607 118.968 33.522C119.677 33.0833 120.541 32.864 121.558 32.864C122.062 32.864 122.557 32.92 123.042 33.032C123.537 33.144 123.999 33.3073 124.428 33.522L123.812 34.992C123.457 34.8333 123.089 34.6933 122.706 34.572C122.333 34.4413 121.95 34.376 121.558 34.376ZM132.755 35.412V43H131.369L131.131 42.02H131.047C130.804 42.412 130.468 42.6967 130.039 42.874C129.609 43.0513 129.157 43.14 128.681 43.14C127.831 43.14 127.164 42.9207 126.679 42.482C126.203 42.0433 125.965 41.3387 125.965 40.368V35.412H127.729V40.018C127.729 40.5873 127.841 41.012 128.065 41.292C128.289 41.572 128.643 41.712 129.129 41.712C129.838 41.712 130.323 41.488 130.585 41.04C130.855 40.592 130.991 39.9527 130.991 39.122V35.412H132.755ZM140.169 40.802C140.169 41.5673 139.894 42.1507 139.343 42.552C138.802 42.944 138.022 43.14 137.005 43.14C136.473 43.14 136.016 43.1027 135.633 43.028C135.26 42.9533 134.896 42.8367 134.541 42.678V41.18C134.914 41.3573 135.325 41.5067 135.773 41.628C136.23 41.7493 136.66 41.81 137.061 41.81C137.546 41.81 137.896 41.7353 138.111 41.586C138.326 41.4367 138.433 41.236 138.433 40.984C138.433 40.8347 138.391 40.704 138.307 40.592C138.223 40.4707 138.06 40.34 137.817 40.2C137.574 40.06 137.206 39.8873 136.711 39.682C136.226 39.486 135.82 39.29 135.493 39.094C135.176 38.898 134.933 38.6647 134.765 38.394C134.606 38.1233 134.527 37.7733 134.527 37.344C134.527 36.6627 134.798 36.1493 135.339 35.804C135.88 35.4493 136.594 35.272 137.481 35.272C137.948 35.272 138.386 35.3187 138.797 35.412C139.217 35.5053 139.637 35.6453 140.057 35.832L139.497 37.134C139.142 36.9847 138.797 36.8587 138.461 36.756C138.125 36.6533 137.78 36.602 137.425 36.602C136.65 36.602 136.263 36.8213 136.263 37.26C136.263 37.4187 136.31 37.554 136.403 37.666C136.506 37.778 136.678 37.8993 136.921 38.03C137.173 38.1513 137.528 38.3007 137.985 38.478C138.433 38.6553 138.82 38.842 139.147 39.038C139.474 39.2247 139.726 39.458 139.903 39.738C140.08 40.0087 140.169 40.3633 140.169 40.802ZM144.806 41.726C145.021 41.726 145.231 41.7073 145.436 41.67C145.651 41.6233 145.847 41.572 146.024 41.516V42.832C145.838 42.9253 145.595 43 145.296 43.056C144.998 43.112 144.685 43.14 144.358 43.14C143.92 43.14 143.523 43.07 143.168 42.93C142.823 42.79 142.548 42.5427 142.342 42.188C142.137 41.8333 142.034 41.334 142.034 40.69V36.742H141.012V35.972L142.132 35.356L142.692 33.746H143.798V35.412H145.954V36.742H143.798V40.676C143.798 41.0307 143.892 41.2967 144.078 41.474C144.274 41.642 144.517 41.726 144.806 41.726ZM154.33 39.192C154.33 40.452 154.003 41.4273 153.35 42.118C152.697 42.7993 151.81 43.14 150.69 43.14C149.999 43.14 149.383 42.986 148.842 42.678C148.301 42.37 147.876 41.922 147.568 41.334C147.26 40.746 147.106 40.032 147.106 39.192C147.106 37.932 147.428 36.966 148.072 36.294C148.725 35.6127 149.612 35.272 150.732 35.272C151.432 35.272 152.053 35.426 152.594 35.734C153.135 36.0327 153.56 36.476 153.868 37.064C154.176 37.6427 154.33 38.352 154.33 39.192ZM148.912 39.192C148.912 39.9947 149.052 40.6153 149.332 41.054C149.621 41.4927 150.083 41.712 150.718 41.712C151.343 41.712 151.801 41.4927 152.09 41.054C152.379 40.6153 152.524 39.9947 152.524 39.192C152.524 38.3893 152.379 37.7733 152.09 37.344C151.801 36.9147 151.339 36.7 150.704 36.7C150.069 36.7 149.612 36.9147 149.332 37.344C149.052 37.7733 148.912 38.3893 148.912 39.192ZM164.848 35.272C165.706 35.272 166.35 35.4913 166.78 35.93C167.218 36.3687 167.438 37.078 167.438 38.058V43H165.674V38.394C165.674 37.2647 165.244 36.7 164.386 36.7C163.77 36.7 163.331 36.9007 163.07 37.302C162.808 37.7033 162.678 38.2867 162.678 39.052V43H160.914V38.394C160.914 37.2647 160.48 36.7 159.612 36.7C158.968 36.7 158.524 36.924 158.282 37.372C158.039 37.82 157.918 38.4593 157.918 39.29V43H156.154V35.412H157.512L157.764 36.406H157.862C158.095 36.014 158.412 35.7293 158.814 35.552C159.215 35.3653 159.635 35.272 160.074 35.272C160.643 35.272 161.119 35.3653 161.502 35.552C161.894 35.7387 162.192 36.0373 162.398 36.448H162.538C162.771 36.0373 163.098 35.7387 163.518 35.552C163.938 35.3653 164.381 35.272 164.848 35.272ZM172.7 35.272C173.717 35.272 174.52 35.5753 175.108 36.182C175.705 36.7887 176.004 37.6333 176.004 38.716V39.612H170.992C171.01 40.3027 171.202 40.8393 171.566 41.222C171.93 41.5953 172.434 41.782 173.078 41.782C173.563 41.782 174.002 41.7353 174.394 41.642C174.786 41.5393 175.187 41.3947 175.598 41.208V42.622C175.224 42.7993 174.837 42.93 174.436 43.014C174.034 43.098 173.554 43.14 172.994 43.14C172.247 43.14 171.589 43 171.02 42.72C170.45 42.4307 170.002 42.0013 169.676 41.432C169.358 40.8533 169.2 40.13 169.2 39.262C169.2 37.9647 169.517 36.9753 170.152 36.294C170.796 35.6127 171.645 35.272 172.7 35.272ZM172.7 36.574C172.224 36.574 171.836 36.728 171.538 37.036C171.248 37.3347 171.08 37.7827 171.034 38.38H174.296C174.286 37.8573 174.151 37.428 173.89 37.092C173.638 36.7467 173.241 36.574 172.7 36.574ZM181.758 35.272C181.88 35.272 182.015 35.2813 182.164 35.3C182.314 35.3093 182.435 35.3233 182.528 35.342L182.374 36.98C182.281 36.9613 182.164 36.9473 182.024 36.938C181.894 36.9193 181.782 36.91 181.688 36.91C181.315 36.91 180.965 36.9893 180.638 37.148C180.312 37.2973 180.046 37.5307 179.84 37.848C179.644 38.1653 179.546 38.5713 179.546 39.066V43H177.782V35.412H179.14L179.392 36.728H179.476C179.7 36.3267 180.008 35.986 180.4 35.706C180.792 35.4167 181.245 35.272 181.758 35.272ZM196.238 43H194.012L189.28 35.16H189.224C189.242 35.58 189.261 36.0327 189.28 36.518C189.308 36.994 189.331 37.4747 189.35 37.96V43H187.74V33.004H189.952L194.669 40.788H194.712C194.702 40.4147 194.684 39.9853 194.656 39.5C194.637 39.0147 194.623 38.5433 194.614 38.086V33.004H196.238V43ZM201.697 35.272C202.677 35.272 203.419 35.4867 203.923 35.916C204.436 36.3453 204.693 37.008 204.693 37.904V43H203.447L203.097 41.95H203.041C202.714 42.3607 202.369 42.664 202.005 42.86C201.641 43.0467 201.146 43.14 200.521 43.14C199.84 43.14 199.275 42.9487 198.827 42.566C198.379 42.1833 198.155 41.5907 198.155 40.788C198.155 40.004 198.44 39.416 199.009 39.024C199.588 38.632 200.46 38.4127 201.627 38.366L202.943 38.324V37.946C202.943 37.4607 202.826 37.1153 202.593 36.91C202.36 36.7047 202.033 36.602 201.613 36.602C201.23 36.602 200.862 36.658 200.507 36.77C200.162 36.8727 199.816 37.0033 199.471 37.162L198.911 35.93C199.284 35.734 199.709 35.5753 200.185 35.454C200.67 35.3327 201.174 35.272 201.697 35.272ZM202.943 39.416L202.019 39.444C201.244 39.472 200.708 39.6073 200.409 39.85C200.11 40.0833 199.961 40.4007 199.961 40.802C199.961 41.166 200.064 41.4273 200.269 41.586C200.484 41.7353 200.764 41.81 201.109 41.81C201.622 41.81 202.056 41.6653 202.411 41.376C202.766 41.0773 202.943 40.6387 202.943 40.06V39.416ZM215.598 35.272C216.456 35.272 217.1 35.4913 217.53 35.93C217.968 36.3687 218.188 37.078 218.188 38.058V43H216.424V38.394C216.424 37.2647 215.994 36.7 215.136 36.7C214.52 36.7 214.081 36.9007 213.82 37.302C213.558 37.7033 213.428 38.2867 213.428 39.052V43H211.664V38.394C211.664 37.2647 211.23 36.7 210.362 36.7C209.718 36.7 209.274 36.924 209.032 37.372C208.789 37.82 208.668 38.4593 208.668 39.29V43H206.904V35.412H208.262L208.514 36.406H208.612C208.845 36.014 209.162 35.7293 209.564 35.552C209.965 35.3653 210.385 35.272 210.824 35.272C211.393 35.272 211.869 35.3653 212.252 35.552C212.644 35.7387 212.942 36.0373 213.148 36.448H213.288C213.521 36.0373 213.848 35.7387 214.268 35.552C214.688 35.3653 215.131 35.272 215.598 35.272ZM223.45 35.272C224.467 35.272 225.27 35.5753 225.858 36.182C226.455 36.7887 226.754 37.6333 226.754 38.716V39.612H221.742C221.76 40.3027 221.952 40.8393 222.316 41.222C222.68 41.5953 223.184 41.782 223.828 41.782C224.313 41.782 224.752 41.7353 225.144 41.642C225.536 41.5393 225.937 41.3947 226.348 41.208V42.622C225.974 42.7993 225.587 42.93 225.186 43.014C224.784 43.098 224.304 43.14 223.744 43.14C222.997 43.14 222.339 43 221.77 42.72C221.2 42.4307 220.752 42.0013 220.426 41.432C220.108 40.8533 219.95 40.13 219.95 39.262C219.95 37.9647 220.267 36.9753 220.902 36.294C221.546 35.6127 222.395 35.272 223.45 35.272ZM223.45 36.574C222.974 36.574 222.586 36.728 222.288 37.036C221.998 37.3347 221.83 37.7827 221.784 38.38H225.046C225.036 37.8573 224.901 37.428 224.64 37.092C224.388 36.7467 223.991 36.574 223.45 36.574Z" fill="black"/>
<path d="M244.012 41.3625C243.912 41.3625 243.812 41.3125 243.762 41.2625L238.113 35.6625C237.962 35.5125 237.962 35.2625 238.113 35.1125C238.263 34.9625 238.512 34.9625 238.662 35.1125L244.012 40.4625L249.312 35.1125C249.462 34.9625 249.713 34.9625 249.863 35.1125C250.012 35.2625 250.012 35.5125 249.863 35.6625L244.262 41.2625C244.162 41.3125 244.112 41.3625 244.012 41.3625Z" fill="#323232"/>
<line x1="100" y1="16.5" x2="300" y2="16.5" stroke="#C9C9C9"/>
<line x1="100" y1="59.5" x2="300" y2="59.5" stroke="#C9C9C9"/>
<rect width="200" height="44" transform="translate(100 60)" fill="white"/>
<path d="M120.522 87H119.262V78.11H116.14V77.004H123.63V78.11H120.522V87ZM125.599 76.682C125.786 76.682 125.949 76.7473 126.089 76.878C126.239 76.9993 126.313 77.1953 126.313 77.466C126.313 77.7367 126.239 77.9373 126.089 78.068C125.949 78.1893 125.786 78.25 125.599 78.25C125.394 78.25 125.221 78.1893 125.081 78.068C124.941 77.9373 124.871 77.7367 124.871 77.466C124.871 77.1953 124.941 76.9993 125.081 76.878C125.221 76.7473 125.394 76.682 125.599 76.682ZM126.201 79.496V87H124.969V79.496H126.201ZM136.811 79.356C137.66 79.356 138.295 79.5753 138.715 80.014C139.135 80.4527 139.345 81.1527 139.345 82.114V87H138.127V82.17C138.127 80.9847 137.618 80.392 136.601 80.392C135.873 80.392 135.35 80.602 135.033 81.022C134.725 81.442 134.571 82.0533 134.571 82.856V87H133.353V82.17C133.353 80.9847 132.839 80.392 131.813 80.392C131.057 80.392 130.534 80.6253 130.245 81.092C129.955 81.5587 129.811 82.2307 129.811 83.108V87H128.579V79.496H129.573L129.755 80.518H129.825C130.058 80.126 130.371 79.8367 130.763 79.65C131.164 79.454 131.589 79.356 132.037 79.356C133.213 79.356 133.978 79.776 134.333 80.616H134.403C134.655 80.1867 134.995 79.8693 135.425 79.664C135.854 79.4587 136.316 79.356 136.811 79.356ZM148.225 77.004C149.467 77.004 150.381 77.242 150.969 77.718C151.567 78.1847 151.865 78.894 151.865 79.846C151.865 80.378 151.767 80.8213 151.571 81.176C151.375 81.5307 151.123 81.8153 150.815 82.03C150.517 82.2447 150.199 82.408 149.863 82.52L152.607 87H151.137L148.715 82.87H146.727V87H145.467V77.004H148.225ZM148.155 78.096H146.727V81.806H148.225C149.037 81.806 149.63 81.6473 150.003 81.33C150.377 81.0033 150.563 80.5273 150.563 79.902C150.563 79.2487 150.367 78.7867 149.975 78.516C149.583 78.236 148.977 78.096 148.155 78.096ZM156.906 79.356C157.541 79.356 158.092 79.496 158.558 79.776C159.025 80.056 159.38 80.4527 159.622 80.966C159.874 81.47 160 82.0627 160 82.744V83.486H154.862C154.881 84.3353 155.096 84.984 155.506 85.432C155.926 85.8707 156.51 86.09 157.256 86.09C157.732 86.09 158.152 86.048 158.516 85.964C158.89 85.8707 159.272 85.74 159.664 85.572V86.65C159.282 86.818 158.904 86.9393 158.53 87.014C158.157 87.098 157.714 87.14 157.2 87.14C156.482 87.14 155.852 86.9953 155.31 86.706C154.769 86.4167 154.344 85.9873 154.036 85.418C153.738 84.8487 153.588 84.144 153.588 83.304C153.588 82.4827 153.724 81.778 153.994 81.19C154.274 80.602 154.662 80.1493 155.156 79.832C155.66 79.5147 156.244 79.356 156.906 79.356ZM156.892 80.364C156.304 80.364 155.838 80.5553 155.492 80.938C155.156 81.3113 154.956 81.834 154.89 82.506H158.712C158.703 81.8713 158.554 81.358 158.264 80.966C157.975 80.5647 157.518 80.364 156.892 80.364ZM160.461 79.496H161.777L163.401 83.766C163.541 84.1487 163.667 84.508 163.779 84.844C163.891 85.18 163.975 85.502 164.031 85.81H164.087C164.143 85.5767 164.232 85.2733 164.353 84.9C164.475 84.5173 164.601 84.1347 164.731 83.752L166.257 79.496H167.587L164.353 88.036C164.083 88.7453 163.742 89.31 163.331 89.73C162.921 90.15 162.351 90.36 161.623 90.36C161.399 90.36 161.203 90.346 161.035 90.318C160.867 90.2993 160.723 90.276 160.601 90.248V89.268C160.704 89.2867 160.825 89.3053 160.965 89.324C161.115 89.3427 161.269 89.352 161.427 89.352C161.857 89.352 162.202 89.2307 162.463 88.988C162.725 88.7453 162.935 88.4233 163.093 88.022L163.485 87.028L160.461 79.496ZM172.386 79.356C173.282 79.356 173.959 79.5753 174.416 80.014C174.873 80.4527 175.102 81.1527 175.102 82.114V87H173.884V82.198C173.884 80.994 173.324 80.392 172.204 80.392C171.373 80.392 170.799 80.6253 170.482 81.092C170.165 81.5587 170.006 82.2307 170.006 83.108V87H168.774V79.496H169.768L169.95 80.518H170.02C170.263 80.126 170.599 79.8367 171.028 79.65C171.457 79.454 171.91 79.356 172.386 79.356ZM183.952 83.234C183.952 84.4753 183.635 85.4367 183 86.118C182.375 86.7993 181.526 87.14 180.452 87.14C179.79 87.14 179.197 86.9907 178.674 86.692C178.161 86.384 177.755 85.9407 177.456 85.362C177.158 84.774 177.008 84.0647 177.008 83.234C177.008 81.9927 177.316 81.036 177.932 80.364C178.558 79.692 179.412 79.356 180.494 79.356C181.166 79.356 181.764 79.51 182.286 79.818C182.809 80.1167 183.215 80.5553 183.504 81.134C183.803 81.7033 183.952 82.4033 183.952 83.234ZM178.282 83.234C178.282 84.1207 178.455 84.8253 178.8 85.348C179.155 85.8613 179.715 86.118 180.48 86.118C181.236 86.118 181.792 85.8613 182.146 85.348C182.501 84.8253 182.678 84.1207 182.678 83.234C182.678 82.3473 182.501 81.652 182.146 81.148C181.792 80.644 181.232 80.392 180.466 80.392C179.701 80.392 179.146 80.644 178.8 81.148C178.455 81.652 178.282 82.3473 178.282 83.234ZM187.137 87H185.905V76.36H187.137V87ZM192.174 87.14C191.241 87.14 190.494 86.818 189.934 86.174C189.374 85.5207 189.094 84.55 189.094 83.262C189.094 81.974 189.374 81.0033 189.934 80.35C190.504 79.6873 191.255 79.356 192.188 79.356C192.767 79.356 193.238 79.4633 193.602 79.678C193.976 79.8927 194.279 80.154 194.512 80.462H194.596C194.578 80.3407 194.559 80.1633 194.54 79.93C194.522 79.6873 194.512 79.496 194.512 79.356V76.36H195.744V87H194.75L194.568 85.992H194.512C194.288 86.3093 193.99 86.58 193.616 86.804C193.243 87.028 192.762 87.14 192.174 87.14ZM192.37 86.118C193.164 86.118 193.719 85.9033 194.036 85.474C194.363 85.0353 194.526 84.3773 194.526 83.5V83.276C194.526 82.3427 194.372 81.6287 194.064 81.134C193.756 80.63 193.187 80.378 192.356 80.378C191.694 80.378 191.194 80.644 190.858 81.176C190.532 81.6987 190.368 82.4033 190.368 83.29C190.368 84.186 190.532 84.8813 190.858 85.376C191.194 85.8707 191.698 86.118 192.37 86.118ZM203.014 84.928C203.014 85.656 202.743 86.2067 202.202 86.58C201.66 86.9533 200.932 87.14 200.018 87.14C199.495 87.14 199.042 87.098 198.66 87.014C198.286 86.93 197.955 86.8133 197.666 86.664V85.544C197.964 85.6933 198.324 85.8333 198.744 85.964C199.173 86.0853 199.607 86.146 200.046 86.146C200.671 86.146 201.124 86.048 201.404 85.852C201.684 85.6467 201.824 85.376 201.824 85.04C201.824 84.8533 201.772 84.6853 201.67 84.536C201.567 84.3867 201.38 84.2373 201.11 84.088C200.848 83.9387 200.47 83.7707 199.976 83.584C199.49 83.3973 199.075 83.2107 198.73 83.024C198.384 82.8373 198.118 82.6133 197.932 82.352C197.745 82.0907 197.652 81.7547 197.652 81.344C197.652 80.7093 197.908 80.2193 198.422 79.874C198.944 79.5287 199.626 79.356 200.466 79.356C200.923 79.356 201.348 79.4027 201.74 79.496C202.141 79.5893 202.514 79.7107 202.86 79.86L202.44 80.84C202.122 80.7093 201.791 80.5973 201.446 80.504C201.1 80.4107 200.746 80.364 200.382 80.364C199.878 80.364 199.49 80.448 199.22 80.616C198.958 80.7747 198.828 80.994 198.828 81.274C198.828 81.4887 198.888 81.666 199.01 81.806C199.131 81.946 199.332 82.086 199.612 82.226C199.901 82.366 200.284 82.5247 200.76 82.702C201.236 82.8793 201.642 83.0613 201.978 83.248C202.314 83.4347 202.57 83.6633 202.748 83.934C202.925 84.1953 203.014 84.5267 203.014 84.928Z" fill="#1B77AF"/>
<line x1="100" y1="103.5" x2="300" y2="103.5" stroke="#F1F1F1"/>
<rect width="200" height="44" transform="translate(100 104)" fill="white"/>
<path d="M120.004 121.004C121.311 121.004 122.263 121.261 122.86 121.774C123.457 122.287 123.756 123.011 123.756 123.944C123.756 124.495 123.63 125.013 123.378 125.498C123.135 125.974 122.72 126.361 122.132 126.66C121.553 126.959 120.765 127.108 119.766 127.108H118.618V131H117.358V121.004H120.004ZM119.892 122.082H118.618V126.03H119.626C120.578 126.03 121.287 125.876 121.754 125.568C122.221 125.26 122.454 124.737 122.454 124C122.454 123.356 122.244 122.875 121.824 122.558C121.413 122.241 120.769 122.082 119.892 122.082ZM128.509 123.37C129.423 123.37 130.1 123.571 130.539 123.972C130.977 124.373 131.197 125.013 131.197 125.89V131H130.301L130.063 129.936H130.007C129.68 130.347 129.335 130.65 128.971 130.846C128.607 131.042 128.112 131.14 127.487 131.14C126.805 131.14 126.241 130.963 125.793 130.608C125.345 130.244 125.121 129.679 125.121 128.914C125.121 128.167 125.415 127.593 126.003 127.192C126.591 126.781 127.496 126.557 128.719 126.52L129.993 126.478V126.03C129.993 125.405 129.857 124.971 129.587 124.728C129.316 124.485 128.933 124.364 128.439 124.364C128.047 124.364 127.673 124.425 127.319 124.546C126.964 124.658 126.633 124.789 126.325 124.938L125.947 124.014C126.273 123.837 126.661 123.687 127.109 123.566C127.557 123.435 128.023 123.37 128.509 123.37ZM129.979 127.332L128.873 127.374C127.939 127.411 127.291 127.561 126.927 127.822C126.572 128.083 126.395 128.452 126.395 128.928C126.395 129.348 126.521 129.656 126.773 129.852C127.034 130.048 127.365 130.146 127.767 130.146C128.392 130.146 128.915 129.973 129.335 129.628C129.764 129.273 129.979 128.732 129.979 128.004V127.332ZM136.02 130.132C136.207 130.132 136.398 130.118 136.594 130.09C136.79 130.062 136.949 130.025 137.07 129.978V130.916C136.94 130.981 136.753 131.033 136.51 131.07C136.268 131.117 136.034 131.14 135.81 131.14C135.418 131.14 135.054 131.075 134.718 130.944C134.392 130.804 134.126 130.566 133.92 130.23C133.715 129.894 133.612 129.423 133.612 128.816V124.448H132.548V123.86L133.626 123.37L134.116 121.774H134.844V123.496H137.014V124.448H134.844V128.788C134.844 129.245 134.952 129.586 135.166 129.81C135.39 130.025 135.675 130.132 136.02 130.132ZM141.079 130.132C141.265 130.132 141.457 130.118 141.653 130.09C141.849 130.062 142.007 130.025 142.129 129.978V130.916C141.998 130.981 141.811 131.033 141.569 131.07C141.326 131.117 141.093 131.14 140.869 131.14C140.477 131.14 140.113 131.075 139.777 130.944C139.45 130.804 139.184 130.566 138.979 130.23C138.773 129.894 138.671 129.423 138.671 128.816V124.448H137.607V123.86L138.685 123.37L139.175 121.774H139.903V123.496H142.073V124.448H139.903V128.788C139.903 129.245 140.01 129.586 140.225 129.81C140.449 130.025 140.733 130.132 141.079 130.132ZM142.455 123.496H143.771L145.395 127.766C145.535 128.149 145.661 128.508 145.773 128.844C145.885 129.18 145.969 129.502 146.025 129.81H146.081C146.137 129.577 146.226 129.273 146.347 128.9C146.469 128.517 146.595 128.135 146.725 127.752L148.251 123.496H149.581L146.347 132.036C146.077 132.745 145.736 133.31 145.325 133.73C144.915 134.15 144.345 134.36 143.617 134.36C143.393 134.36 143.197 134.346 143.029 134.318C142.861 134.299 142.717 134.276 142.595 134.248V133.268C142.698 133.287 142.819 133.305 142.959 133.324C143.109 133.343 143.263 133.352 143.421 133.352C143.851 133.352 144.196 133.231 144.457 132.988C144.719 132.745 144.929 132.423 145.087 132.022L145.479 131.028L142.455 123.496ZM162.581 125.904C162.581 127.593 162.119 128.867 161.195 129.726C160.28 130.575 159.002 131 157.359 131H154.573V121.004H157.653C158.652 121.004 159.52 121.191 160.257 121.564C161.004 121.937 161.578 122.488 161.979 123.216C162.38 123.944 162.581 124.84 162.581 125.904ZM161.251 125.946C161.251 124.611 160.92 123.636 160.257 123.02C159.604 122.395 158.675 122.082 157.471 122.082H155.833V129.922H157.191C159.898 129.922 161.251 128.597 161.251 125.946ZM171.155 127.234C171.155 128.475 170.838 129.437 170.203 130.118C169.578 130.799 168.729 131.14 167.655 131.14C166.993 131.14 166.4 130.991 165.877 130.692C165.364 130.384 164.958 129.941 164.659 129.362C164.361 128.774 164.211 128.065 164.211 127.234C164.211 125.993 164.519 125.036 165.135 124.364C165.761 123.692 166.615 123.356 167.697 123.356C168.369 123.356 168.967 123.51 169.489 123.818C170.012 124.117 170.418 124.555 170.707 125.134C171.006 125.703 171.155 126.403 171.155 127.234ZM165.485 127.234C165.485 128.121 165.658 128.825 166.003 129.348C166.358 129.861 166.918 130.118 167.683 130.118C168.439 130.118 168.995 129.861 169.349 129.348C169.704 128.825 169.881 128.121 169.881 127.234C169.881 126.347 169.704 125.652 169.349 125.148C168.995 124.644 168.435 124.392 167.669 124.392C166.904 124.392 166.349 124.644 166.003 125.148C165.658 125.652 165.485 126.347 165.485 127.234ZM174.34 131H173.108V120.36H174.34V131ZM183.241 127.234C183.241 128.475 182.924 129.437 182.289 130.118C181.664 130.799 180.815 131.14 179.741 131.14C179.079 131.14 178.486 130.991 177.963 130.692C177.45 130.384 177.044 129.941 176.745 129.362C176.447 128.774 176.297 128.065 176.297 127.234C176.297 125.993 176.605 125.036 177.221 124.364C177.847 123.692 178.701 123.356 179.783 123.356C180.455 123.356 181.053 123.51 181.575 123.818C182.098 124.117 182.504 124.555 182.793 125.134C183.092 125.703 183.241 126.403 183.241 127.234ZM177.571 127.234C177.571 128.121 177.744 128.825 178.089 129.348C178.444 129.861 179.004 130.118 179.769 130.118C180.525 130.118 181.081 129.861 181.435 129.348C181.79 128.825 181.967 128.121 181.967 127.234C181.967 126.347 181.79 125.652 181.435 125.148C181.081 124.644 180.521 124.392 179.755 124.392C178.99 124.392 178.435 124.644 178.089 125.148C177.744 125.652 177.571 126.347 177.571 127.234ZM188.694 123.356C188.834 123.356 188.983 123.365 189.142 123.384C189.301 123.393 189.445 123.412 189.576 123.44L189.422 124.574C189.301 124.546 189.165 124.523 189.016 124.504C188.867 124.485 188.731 124.476 188.61 124.476C188.227 124.476 187.868 124.583 187.532 124.798C187.196 125.003 186.925 125.297 186.72 125.68C186.524 126.053 186.426 126.492 186.426 126.996V131H185.194V123.496H186.202L186.342 124.868H186.398C186.631 124.457 186.939 124.103 187.322 123.804C187.714 123.505 188.171 123.356 188.694 123.356ZM193.602 123.356C194.236 123.356 194.787 123.496 195.254 123.776C195.72 124.056 196.075 124.453 196.318 124.966C196.57 125.47 196.696 126.063 196.696 126.744V127.486H191.558C191.576 128.335 191.791 128.984 192.202 129.432C192.622 129.871 193.205 130.09 193.952 130.09C194.428 130.09 194.848 130.048 195.212 129.964C195.585 129.871 195.968 129.74 196.36 129.572V130.65C195.977 130.818 195.599 130.939 195.226 131.014C194.852 131.098 194.409 131.14 193.896 131.14C193.177 131.14 192.547 130.995 192.006 130.706C191.464 130.417 191.04 129.987 190.732 129.418C190.433 128.849 190.284 128.144 190.284 127.304C190.284 126.483 190.419 125.778 190.69 125.19C190.97 124.602 191.357 124.149 191.852 123.832C192.356 123.515 192.939 123.356 193.602 123.356ZM193.588 124.364C193 124.364 192.533 124.555 192.188 124.938C191.852 125.311 191.651 125.834 191.586 126.506H195.408C195.398 125.871 195.249 125.358 194.96 124.966C194.67 124.565 194.213 124.364 193.588 124.364ZM203.492 128.928C203.492 129.656 203.221 130.207 202.68 130.58C202.139 130.953 201.411 131.14 200.496 131.14C199.973 131.14 199.521 131.098 199.138 131.014C198.765 130.93 198.433 130.813 198.144 130.664V129.544C198.443 129.693 198.802 129.833 199.222 129.964C199.651 130.085 200.085 130.146 200.524 130.146C201.149 130.146 201.602 130.048 201.882 129.852C202.162 129.647 202.302 129.376 202.302 129.04C202.302 128.853 202.251 128.685 202.148 128.536C202.045 128.387 201.859 128.237 201.588 128.088C201.327 127.939 200.949 127.771 200.454 127.584C199.969 127.397 199.553 127.211 199.208 127.024C198.863 126.837 198.597 126.613 198.41 126.352C198.223 126.091 198.13 125.755 198.13 125.344C198.13 124.709 198.387 124.219 198.9 123.874C199.423 123.529 200.104 123.356 200.944 123.356C201.401 123.356 201.826 123.403 202.218 123.496C202.619 123.589 202.993 123.711 203.338 123.86L202.918 124.84C202.601 124.709 202.269 124.597 201.924 124.504C201.579 124.411 201.224 124.364 200.86 124.364C200.356 124.364 199.969 124.448 199.698 124.616C199.437 124.775 199.306 124.994 199.306 125.274C199.306 125.489 199.367 125.666 199.488 125.806C199.609 125.946 199.81 126.086 200.09 126.226C200.379 126.366 200.762 126.525 201.238 126.702C201.714 126.879 202.12 127.061 202.456 127.248C202.792 127.435 203.049 127.663 203.226 127.934C203.403 128.195 203.492 128.527 203.492 128.928Z" fill="#1B77AF"/>
<line x1="100" y1="147.5" x2="300" y2="147.5" stroke="#F1F1F1"/>
<rect width="200" height="44" transform="translate(100 148)" fill="#F1F1F1"/>
<path d="M120.004 165.004C121.311 165.004 122.263 165.261 122.86 165.774C123.457 166.287 123.756 167.011 123.756 167.944C123.756 168.495 123.63 169.013 123.378 169.498C123.135 169.974 122.72 170.361 122.132 170.66C121.553 170.959 120.765 171.108 119.766 171.108H118.618V175H117.358V165.004H120.004ZM119.892 166.082H118.618V170.03H119.626C120.578 170.03 121.287 169.876 121.754 169.568C122.221 169.26 122.454 168.737 122.454 168C122.454 167.356 122.244 166.875 121.824 166.558C121.413 166.241 120.769 166.082 119.892 166.082ZM128.509 167.37C129.423 167.37 130.1 167.571 130.539 167.972C130.977 168.373 131.197 169.013 131.197 169.89V175H130.301L130.063 173.936H130.007C129.68 174.347 129.335 174.65 128.971 174.846C128.607 175.042 128.112 175.14 127.487 175.14C126.805 175.14 126.241 174.963 125.793 174.608C125.345 174.244 125.121 173.679 125.121 172.914C125.121 172.167 125.415 171.593 126.003 171.192C126.591 170.781 127.496 170.557 128.719 170.52L129.993 170.478V170.03C129.993 169.405 129.857 168.971 129.587 168.728C129.316 168.485 128.933 168.364 128.439 168.364C128.047 168.364 127.673 168.425 127.319 168.546C126.964 168.658 126.633 168.789 126.325 168.938L125.947 168.014C126.273 167.837 126.661 167.687 127.109 167.566C127.557 167.435 128.023 167.37 128.509 167.37ZM129.979 171.332L128.873 171.374C127.939 171.411 127.291 171.561 126.927 171.822C126.572 172.083 126.395 172.452 126.395 172.928C126.395 173.348 126.521 173.656 126.773 173.852C127.034 174.048 127.365 174.146 127.767 174.146C128.392 174.146 128.915 173.973 129.335 173.628C129.764 173.273 129.979 172.732 129.979 172.004V171.332ZM139.786 167.496V175H138.778L138.596 174.006H138.54C138.298 174.398 137.962 174.687 137.532 174.874C137.103 175.051 136.646 175.14 136.16 175.14C135.255 175.14 134.574 174.925 134.116 174.496C133.659 174.057 133.43 173.362 133.43 172.41V167.496H134.676V172.326C134.676 173.521 135.232 174.118 136.342 174.118C137.173 174.118 137.747 173.885 138.064 173.418C138.391 172.951 138.554 172.279 138.554 171.402V167.496H139.786ZM143.401 175H142.169V164.36H143.401V175ZM155.855 175L154.651 171.906H150.689L149.499 175H148.225L152.131 164.962H153.265L157.157 175H155.855ZM154.273 170.786L153.153 167.762C153.125 167.687 153.078 167.552 153.013 167.356C152.947 167.16 152.882 166.959 152.817 166.754C152.761 166.539 152.714 166.376 152.677 166.264C152.602 166.553 152.523 166.838 152.439 167.118C152.364 167.389 152.299 167.603 152.243 167.762L151.109 170.786H154.273ZM161.968 167.356C162.864 167.356 163.541 167.575 163.998 168.014C164.455 168.453 164.684 169.153 164.684 170.114V175H163.466V170.198C163.466 168.994 162.906 168.392 161.786 168.392C160.955 168.392 160.381 168.625 160.064 169.092C159.747 169.559 159.588 170.231 159.588 171.108V175H158.356V167.496H159.35L159.532 168.518H159.602C159.845 168.126 160.181 167.837 160.61 167.65C161.039 167.454 161.492 167.356 161.968 167.356ZM169.67 175.14C168.737 175.14 167.99 174.818 167.43 174.174C166.87 173.521 166.59 172.55 166.59 171.262C166.59 169.974 166.87 169.003 167.43 168.35C168 167.687 168.751 167.356 169.684 167.356C170.263 167.356 170.734 167.463 171.098 167.678C171.472 167.893 171.775 168.154 172.008 168.462H172.092C172.074 168.341 172.055 168.163 172.036 167.93C172.018 167.687 172.008 167.496 172.008 167.356V164.36H173.24V175H172.246L172.064 173.992H172.008C171.784 174.309 171.486 174.58 171.112 174.804C170.739 175.028 170.258 175.14 169.67 175.14ZM169.866 174.118C170.66 174.118 171.215 173.903 171.532 173.474C171.859 173.035 172.022 172.377 172.022 171.5V171.276C172.022 170.343 171.868 169.629 171.56 169.134C171.252 168.63 170.683 168.378 169.852 168.378C169.19 168.378 168.69 168.644 168.354 169.176C168.028 169.699 167.864 170.403 167.864 171.29C167.864 172.186 168.028 172.881 168.354 173.376C168.69 173.871 169.194 174.118 169.866 174.118ZM179.124 167.356C179.264 167.356 179.413 167.365 179.572 167.384C179.73 167.393 179.875 167.412 180.006 167.44L179.852 168.574C179.73 168.546 179.595 168.523 179.446 168.504C179.296 168.485 179.161 168.476 179.04 168.476C178.657 168.476 178.298 168.583 177.962 168.798C177.626 169.003 177.355 169.297 177.15 169.68C176.954 170.053 176.856 170.492 176.856 170.996V175H175.624V167.496H176.632L176.772 168.868H176.828C177.061 168.457 177.369 168.103 177.752 167.804C178.144 167.505 178.601 167.356 179.124 167.356ZM184.031 167.356C184.666 167.356 185.217 167.496 185.683 167.776C186.15 168.056 186.505 168.453 186.747 168.966C186.999 169.47 187.125 170.063 187.125 170.744V171.486H181.987C182.006 172.335 182.221 172.984 182.631 173.432C183.051 173.871 183.635 174.09 184.381 174.09C184.857 174.09 185.277 174.048 185.641 173.964C186.015 173.871 186.397 173.74 186.789 173.572V174.65C186.407 174.818 186.029 174.939 185.655 175.014C185.282 175.098 184.839 175.14 184.325 175.14C183.607 175.14 182.977 174.995 182.435 174.706C181.894 174.417 181.469 173.987 181.161 173.418C180.863 172.849 180.713 172.144 180.713 171.304C180.713 170.483 180.849 169.778 181.119 169.19C181.399 168.602 181.787 168.149 182.281 167.832C182.785 167.515 183.369 167.356 184.031 167.356ZM184.017 168.364C183.429 168.364 182.963 168.555 182.617 168.938C182.281 169.311 182.081 169.834 182.015 170.506H185.837C185.828 169.871 185.679 169.358 185.389 168.966C185.1 168.565 184.643 168.364 184.017 168.364ZM194.894 174.986L193.606 170.758C193.485 170.375 193.378 170.002 193.284 169.638C193.191 169.274 193.126 168.985 193.088 168.77H193.032C192.995 168.985 192.934 169.274 192.85 169.638C192.766 170.002 192.659 170.38 192.528 170.772L191.184 174.986H189.784L187.726 167.482H189L190.036 171.486C190.139 171.887 190.237 172.293 190.33 172.704C190.424 173.115 190.489 173.455 190.526 173.726H190.582C190.61 173.567 190.652 173.371 190.708 173.138C190.764 172.905 190.825 172.662 190.89 172.41C190.956 172.149 191.021 171.915 191.086 171.71L192.416 167.482H193.76L195.048 171.71C195.142 172.037 195.24 172.387 195.342 172.76C195.445 173.133 195.515 173.451 195.552 173.712H195.608C195.636 173.479 195.697 173.157 195.79 172.746C195.893 172.335 196 171.915 196.112 171.486L197.162 167.482H198.422L196.336 174.986H194.894Z" fill="#1B77AF"/>
<line x1="100" y1="191.5" x2="300" y2="191.5" stroke="#F1F1F1"/>
<g filter="url(#filter0_d_8602_550381)">
<mask id="path-42-outside-7_8602_550381" maskUnits="userSpaceOnUse" x="176.752" y="166.703" width="16" height="19" fill="black">
<rect fill="white" x="176.752" y="166.703" width="16" height="19"/>
<path fill-rule="evenodd" clip-rule="evenodd" d="M181.588 177.703L180.701 176.349C180.096 175.424 178.806 175.086 177.82 175.593L178.05 175.475C177.805 175.601 177.688 175.915 177.788 176.176L179.016 179.351C179.21 179.854 179.707 180.566 180.119 180.924C180.119 180.924 182.588 182.967 182.588 183.733V184.703H186.588L187.588 182.703L188.588 184.703H189.588V183.733C189.588 182.967 191.097 180.554 191.097 180.554C191.374 180.085 191.606 179.259 191.606 178.71V174.675C191.588 173.782 190.828 173.058 189.891 173.058C189.423 173.058 189.043 173.42 189.043 173.867V174.19C189.043 173.297 188.284 172.573 187.347 172.573C186.878 172.573 186.498 172.935 186.498 173.382V173.705C186.498 172.811 185.739 172.087 184.802 172.087C184.333 172.087 183.954 172.449 183.954 172.896V173.219C183.954 173.076 183.938 172.962 183.909 172.871L183.65 168.705C183.615 168.141 183.14 167.703 182.588 167.703C182.032 167.703 181.588 168.151 181.588 168.703V172.703V177.703ZM188.606 176.703H189.606V180.703H188.606V176.703ZM186.606 176.703H187.606V180.703H186.606V176.703ZM184.606 176.703H185.606V180.703H184.606V176.703Z"/>
</mask>
<path fill-rule="evenodd" clip-rule="evenodd" d="M181.588 177.703L180.701 176.349C180.096 175.424 178.806 175.086 177.82 175.593L178.05 175.475C177.805 175.601 177.688 175.915 177.788 176.176L179.016 179.351C179.21 179.854 179.707 180.566 180.119 180.924C180.119 180.924 182.588 182.967 182.588 183.733V184.703H186.588L187.588 182.703L188.588 184.703H189.588V183.733C189.588 182.967 191.097 180.554 191.097 180.554C191.374 180.085 191.606 179.259 191.606 178.71V174.675C191.588 173.782 190.828 173.058 189.891 173.058C189.423 173.058 189.043 173.42 189.043 173.867V174.19C189.043 173.297 188.284 172.573 187.347 172.573C186.878 172.573 186.498 172.935 186.498 173.382V173.705C186.498 172.811 185.739 172.087 184.802 172.087C184.333 172.087 183.954 172.449 183.954 172.896V173.219C183.954 173.076 183.938 172.962 183.909 172.871L183.65 168.705C183.615 168.141 183.14 167.703 182.588 167.703C182.032 167.703 181.588 168.151 181.588 168.703V172.703V177.703ZM188.606 176.703H189.606V180.703H188.606V176.703ZM186.606 176.703H187.606V180.703H186.606V176.703ZM184.606 176.703H185.606V180.703H184.606V176.703Z" fill="white"/>
<path d="M181.588 177.703L180.751 178.251L182.588 181.057V177.703H181.588ZM180.701 176.349L181.538 175.801L180.701 176.349ZM177.788 176.176L176.856 176.536L177.788 176.176ZM179.016 179.351L179.948 178.99L179.016 179.351ZM180.119 180.924L179.463 181.679L179.472 181.686L179.481 181.694L180.119 180.924ZM182.588 184.703H181.588V185.703H182.588V184.703ZM186.588 184.703V185.703H187.206L187.482 185.151L186.588 184.703ZM187.588 182.703L188.482 182.256L187.588 180.467L186.693 182.256L187.588 182.703ZM188.588 184.703L187.693 185.151L187.97 185.703H188.588V184.703ZM189.588 184.703V185.703H190.588V184.703H189.588ZM191.097 180.554L191.944 181.084L191.951 181.074L191.957 181.064L191.097 180.554ZM191.606 174.675H192.606V174.665L192.606 174.655L191.606 174.675ZM183.909 172.871L182.911 172.933L182.919 173.061L182.958 173.183L183.909 172.871ZM183.65 168.705L182.652 168.767V168.767L183.65 168.705ZM181.588 168.703H180.588H181.588ZM189.606 176.703H190.606V175.703H189.606V176.703ZM189.606 180.703V181.703H190.606V180.703H189.606ZM188.606 180.703H187.606V181.703H188.606V180.703ZM188.606 176.703V175.703H187.606V176.703H188.606ZM187.606 176.703H188.606V175.703H187.606V176.703ZM187.606 180.703V181.703H188.606V180.703H187.606ZM186.606 180.703H185.606V181.703H186.606V180.703ZM186.606 176.703V175.703H185.606V176.703H186.606ZM185.606 176.703H186.606V175.703H185.606V176.703ZM185.606 180.703V181.703H186.606V180.703H185.606ZM184.606 180.703H183.606V181.703H184.606V180.703ZM184.606 176.703V175.703H183.606V176.703H184.606ZM182.424 177.156L181.538 175.801L179.864 176.896L180.751 178.251L182.424 177.156ZM181.538 175.801C180.65 174.445 178.801 173.964 177.363 174.704L178.277 176.483C178.811 176.208 179.541 176.403 179.864 176.896L181.538 175.801ZM178.277 176.483L178.507 176.365L177.592 174.586L177.363 174.704L178.277 176.483ZM177.592 174.586C176.883 174.95 176.574 175.809 176.856 176.536L178.721 175.815C178.767 175.933 178.757 176.043 178.726 176.125C178.696 176.206 178.629 176.302 178.507 176.365L177.592 174.586ZM176.856 176.536L178.083 179.711L179.948 178.99L178.721 175.815L176.856 176.536ZM178.083 179.711C178.336 180.365 178.927 181.213 179.463 181.679L180.775 180.169C180.487 179.919 180.085 179.343 179.948 178.99L178.083 179.711ZM180.119 180.924C179.481 181.694 179.481 181.694 179.481 181.694C179.481 181.694 179.481 181.694 179.481 181.694C179.481 181.694 179.481 181.694 179.481 181.694C179.481 181.694 179.481 181.694 179.482 181.695C179.483 181.695 179.484 181.696 179.486 181.698C179.49 181.701 179.496 181.706 179.504 181.713C179.521 181.727 179.545 181.748 179.577 181.775C179.641 181.829 179.733 181.908 179.844 182.006C180.067 182.202 180.361 182.468 180.652 182.754C180.948 183.045 181.22 183.336 181.411 183.583C181.507 183.707 181.565 183.798 181.595 183.856C181.636 183.933 181.588 183.877 181.588 183.733H183.588C183.588 183.398 183.462 183.11 183.368 182.93C183.263 182.729 183.128 182.535 182.993 182.359C182.721 182.008 182.376 181.644 182.054 181.328C181.728 181.008 181.405 180.715 181.165 180.504C181.044 180.398 180.944 180.311 180.872 180.251C180.837 180.221 180.809 180.197 180.789 180.18C180.779 180.172 180.771 180.166 180.766 180.161C180.763 180.159 180.761 180.157 180.759 180.156C180.759 180.155 180.758 180.155 180.757 180.154C180.757 180.154 180.757 180.154 180.757 180.154C180.757 180.154 180.757 180.154 180.757 180.153C180.757 180.153 180.756 180.153 180.119 180.924ZM181.588 183.733V184.703H183.588V183.733H181.588ZM182.588 185.703H186.588V183.703H182.588V185.703ZM187.482 185.151L188.482 183.151L186.693 182.256L185.693 184.256L187.482 185.151ZM186.693 183.151L187.693 185.151L189.482 184.256L188.482 182.256L186.693 183.151ZM188.588 185.703H189.588V183.703H188.588V185.703ZM190.588 184.703V183.733H188.588V184.703H190.588ZM190.588 183.733C190.588 183.769 190.599 183.647 190.744 183.303C190.868 183.011 191.04 182.668 191.222 182.331C191.402 181.997 191.584 181.684 191.721 181.454C191.789 181.339 191.846 181.245 191.885 181.181C191.905 181.149 191.92 181.124 191.93 181.107C191.935 181.099 191.939 181.093 191.941 181.089C191.943 181.087 191.943 181.086 191.944 181.085C191.944 181.085 191.944 181.084 191.945 181.084C191.945 181.084 191.945 181.084 191.945 181.084C191.945 181.084 191.945 181.084 191.945 181.084C191.945 181.084 191.944 181.084 191.097 180.554C190.249 180.024 190.249 180.024 190.249 180.024C190.249 180.024 190.249 180.024 190.248 180.024C190.248 180.024 190.248 180.025 190.248 180.025C190.248 180.025 190.247 180.026 190.247 180.027C190.246 180.028 190.245 180.03 190.243 180.033C190.24 180.038 190.235 180.046 190.229 180.055C190.217 180.074 190.2 180.102 190.179 180.138C190.135 180.208 190.074 180.309 190.001 180.432C189.855 180.678 189.659 181.016 189.462 181.382C189.267 181.744 189.062 182.148 188.903 182.523C188.765 182.847 188.588 183.315 188.588 183.733H190.588ZM191.957 181.064C192.155 180.73 192.312 180.317 192.419 179.929C192.526 179.542 192.606 179.104 192.606 178.71H190.606C190.606 178.864 190.57 179.114 190.492 179.395C190.414 179.675 190.316 179.91 190.236 180.045L191.957 181.064ZM192.606 178.71V174.675H190.606V178.71H192.606ZM192.606 174.655C192.576 173.185 191.34 172.058 189.891 172.058V174.058C190.317 174.058 190.6 174.379 190.606 174.695L192.606 174.655ZM189.891 172.058C188.916 172.058 188.043 172.823 188.043 173.867H190.043C190.043 173.935 190.012 173.989 189.982 174.019C189.952 174.047 189.917 174.058 189.891 174.058V172.058ZM188.043 173.867V174.19H190.043V173.867H188.043ZM190.043 174.19C190.043 172.7 188.791 171.573 187.347 171.573V173.573C187.777 173.573 188.043 173.893 188.043 174.19H190.043ZM187.347 171.573C186.371 171.573 185.498 172.338 185.498 173.382H187.498C187.498 173.45 187.468 173.504 187.437 173.533C187.407 173.562 187.373 173.573 187.347 173.573V171.573ZM185.498 173.382V173.705H187.498V173.382H185.498ZM187.498 173.705C187.498 172.215 186.246 171.087 184.802 171.087V173.087C185.232 173.087 185.498 173.408 185.498 173.705H187.498ZM184.802 171.087C183.827 171.087 182.954 171.853 182.954 172.896H184.954C184.954 172.965 184.923 173.019 184.892 173.048C184.862 173.077 184.828 173.087 184.802 173.087V171.087ZM182.954 172.896V173.219H184.954V172.896H182.954ZM184.954 173.219C184.954 173.012 184.933 172.784 184.859 172.56L182.958 173.183C182.951 173.159 182.95 173.148 182.951 173.155C182.952 173.162 182.954 173.182 182.954 173.219H184.954ZM184.907 172.809L184.648 168.643L182.652 168.767L182.911 172.933L184.907 172.809ZM184.648 168.643C184.58 167.548 183.665 166.703 182.588 166.703V168.703C182.597 168.703 182.612 168.707 182.629 168.723C182.645 168.738 182.651 168.753 182.652 168.767L184.648 168.643ZM182.588 166.703C181.477 166.703 180.588 167.601 180.588 168.703H182.588V168.703V166.703ZM180.588 168.703V172.703H182.588V168.703H180.588ZM180.588 172.703V177.703H182.588V172.703H180.588ZM188.606 177.703H189.606V175.703H188.606V177.703ZM188.606 176.703V180.703H190.606V176.703H188.606ZM189.606 179.703H188.606V181.703H189.606V179.703ZM189.606 180.703V176.703H187.606V180.703H189.606ZM186.606 177.703H187.606V175.703H186.606V177.703ZM186.606 176.703V180.703H188.606V176.703H186.606ZM187.606 179.703H186.606V181.703H187.606V179.703ZM187.606 180.703V176.703H185.606V180.703H187.606ZM184.606 177.703H185.606V175.703H184.606V177.703ZM184.606 176.703V180.703H186.606V176.703H184.606ZM185.606 179.703H184.606V181.703H185.606V179.703ZM185.606 180.703V176.703H183.606V180.703H185.606Z" fill="black" fill-opacity="0.8" mask="url(#path-42-outside-7_8602_550381)"/>
</g>
<rect width="200" height="44" transform="translate(100 192)" fill="white"/>
<path d="M120.116 209.004C121.357 209.004 122.272 209.242 122.86 209.718C123.457 210.185 123.756 210.894 123.756 211.846C123.756 212.378 123.658 212.821 123.462 213.176C123.266 213.531 123.014 213.815 122.706 214.03C122.407 214.245 122.09 214.408 121.754 214.52L124.498 219H123.028L120.606 214.87H118.618V219H117.358V209.004H120.116ZM120.046 210.096H118.618V213.806H120.116C120.928 213.806 121.521 213.647 121.894 213.33C122.267 213.003 122.454 212.527 122.454 211.902C122.454 211.249 122.258 210.787 121.866 210.516C121.474 210.236 120.867 210.096 120.046 210.096ZM132.423 215.234C132.423 216.475 132.106 217.437 131.471 218.118C130.846 218.799 129.996 219.14 128.923 219.14C128.26 219.14 127.668 218.991 127.145 218.692C126.632 218.384 126.226 217.941 125.927 217.362C125.628 216.774 125.479 216.065 125.479 215.234C125.479 213.993 125.787 213.036 126.403 212.364C127.028 211.692 127.882 211.356 128.965 211.356C129.637 211.356 130.234 211.51 130.757 211.818C131.28 212.117 131.686 212.555 131.975 213.134C132.274 213.703 132.423 214.403 132.423 215.234ZM126.753 215.234C126.753 216.121 126.926 216.825 127.271 217.348C127.626 217.861 128.186 218.118 128.951 218.118C129.707 218.118 130.262 217.861 130.617 217.348C130.972 216.825 131.149 216.121 131.149 215.234C131.149 214.347 130.972 213.652 130.617 213.148C130.262 212.644 129.702 212.392 128.937 212.392C128.172 212.392 127.616 212.644 127.271 213.148C126.926 213.652 126.753 214.347 126.753 215.234ZM137.386 219.14C136.714 219.14 136.121 219.005 135.608 218.734C135.094 218.463 134.688 218.043 134.39 217.474C134.1 216.905 133.956 216.177 133.956 215.29C133.956 214.366 134.105 213.615 134.404 213.036C134.712 212.457 135.132 212.033 135.664 211.762C136.196 211.491 136.798 211.356 137.47 211.356C137.843 211.356 138.207 211.398 138.562 211.482C138.926 211.557 139.22 211.65 139.444 211.762L139.066 212.784C138.842 212.7 138.58 212.621 138.282 212.546C137.983 212.471 137.703 212.434 137.442 212.434C135.967 212.434 135.23 213.381 135.23 215.276C135.23 216.181 135.407 216.877 135.762 217.362C136.126 217.838 136.662 218.076 137.372 218.076C137.773 218.076 138.132 218.034 138.45 217.95C138.767 217.866 139.056 217.763 139.318 217.642V218.734C139.066 218.865 138.786 218.963 138.478 219.028C138.179 219.103 137.815 219.14 137.386 219.14ZM142.334 208.36V211.482C142.334 211.855 142.311 212.205 142.264 212.532H142.348C142.591 212.149 142.917 211.86 143.328 211.664C143.748 211.468 144.201 211.37 144.686 211.37C145.591 211.37 146.273 211.589 146.73 212.028C147.197 212.457 147.43 213.153 147.43 214.114V219H146.212V214.198C146.212 212.994 145.652 212.392 144.532 212.392C143.692 212.392 143.113 212.63 142.796 213.106C142.488 213.573 142.334 214.245 142.334 215.122V219H141.102V208.36H142.334ZM152.654 211.356C153.289 211.356 153.84 211.496 154.306 211.776C154.773 212.056 155.128 212.453 155.37 212.966C155.622 213.47 155.748 214.063 155.748 214.744V215.486H150.61C150.629 216.335 150.844 216.984 151.254 217.432C151.674 217.871 152.258 218.09 153.004 218.09C153.48 218.09 153.9 218.048 154.264 217.964C154.638 217.871 155.02 217.74 155.412 217.572V218.65C155.03 218.818 154.652 218.939 154.278 219.014C153.905 219.098 153.462 219.14 152.948 219.14C152.23 219.14 151.6 218.995 151.058 218.706C150.517 218.417 150.092 217.987 149.784 217.418C149.486 216.849 149.336 216.144 149.336 215.304C149.336 214.483 149.472 213.778 149.742 213.19C150.022 212.602 150.41 212.149 150.904 211.832C151.408 211.515 151.992 211.356 152.654 211.356ZM152.64 212.364C152.052 212.364 151.586 212.555 151.24 212.938C150.904 213.311 150.704 213.834 150.638 214.506H154.46C154.451 213.871 154.302 213.358 154.012 212.966C153.723 212.565 153.266 212.364 152.64 212.364ZM158.891 219H157.659V208.36H158.891V219ZM162.5 219H161.268V208.36H162.5V219ZM167.776 211.356C168.41 211.356 168.961 211.496 169.428 211.776C169.894 212.056 170.249 212.453 170.492 212.966C170.744 213.47 170.87 214.063 170.87 214.744V215.486H165.732C165.75 216.335 165.965 216.984 166.376 217.432C166.796 217.871 167.379 218.09 168.126 218.09C168.602 218.09 169.022 218.048 169.386 217.964C169.759 217.871 170.142 217.74 170.534 217.572V218.65C170.151 218.818 169.773 218.939 169.4 219.014C169.026 219.098 168.583 219.14 168.07 219.14C167.351 219.14 166.721 218.995 166.18 218.706C165.638 218.417 165.214 217.987 164.906 217.418C164.607 216.849 164.458 216.144 164.458 215.304C164.458 214.483 164.593 213.778 164.864 213.19C165.144 212.602 165.531 212.149 166.026 211.832C166.53 211.515 167.113 211.356 167.776 211.356ZM167.762 212.364C167.174 212.364 166.707 212.555 166.362 212.938C166.026 213.311 165.825 213.834 165.76 214.506H169.582C169.572 213.871 169.423 213.358 169.134 212.966C168.844 212.565 168.387 212.364 167.762 212.364ZM180.995 219L177.705 210.236H177.649C177.677 210.525 177.7 210.917 177.719 211.412C177.737 211.897 177.747 212.406 177.747 212.938V219H176.585V209.004H178.447L181.527 217.194H181.583L184.719 209.004H186.567V219H185.321V212.854C185.321 212.369 185.33 211.888 185.349 211.412C185.377 210.936 185.4 210.549 185.419 210.25H185.363L182.031 219H180.995ZM189.748 208.682C189.934 208.682 190.098 208.747 190.238 208.878C190.387 208.999 190.462 209.195 190.462 209.466C190.462 209.737 190.387 209.937 190.238 210.068C190.098 210.189 189.934 210.25 189.748 210.25C189.542 210.25 189.37 210.189 189.23 210.068C189.09 209.937 189.02 209.737 189.02 209.466C189.02 209.195 189.09 208.999 189.23 208.878C189.37 208.747 189.542 208.682 189.748 208.682ZM190.35 211.496V219H189.118V211.496H190.35ZM196.339 211.356C197.235 211.356 197.912 211.575 198.369 212.014C198.826 212.453 199.055 213.153 199.055 214.114V219H197.837V214.198C197.837 212.994 197.277 212.392 196.157 212.392C195.326 212.392 194.752 212.625 194.435 213.092C194.118 213.559 193.959 214.231 193.959 215.108V219H192.727V211.496H193.721L193.903 212.518H193.973C194.216 212.126 194.552 211.837 194.981 211.65C195.41 211.454 195.863 211.356 196.339 211.356ZM204.041 211.356C204.536 211.356 204.979 211.449 205.371 211.636C205.773 211.823 206.113 212.107 206.393 212.49H206.463L206.631 211.496H207.611V219.126C207.611 220.199 207.336 221.007 206.785 221.548C206.244 222.089 205.399 222.36 204.251 222.36C203.15 222.36 202.249 222.201 201.549 221.884V220.75C202.287 221.142 203.211 221.338 204.321 221.338C204.965 221.338 205.469 221.147 205.833 220.764C206.207 220.391 206.393 219.877 206.393 219.224V218.93C206.393 218.818 206.398 218.659 206.407 218.454C206.417 218.239 206.426 218.09 206.435 218.006H206.379C205.875 218.762 205.101 219.14 204.055 219.14C203.085 219.14 202.324 218.799 201.773 218.118C201.232 217.437 200.961 216.485 200.961 215.262C200.961 214.067 201.232 213.12 201.773 212.42C202.324 211.711 203.08 211.356 204.041 211.356ZM204.209 212.392C203.584 212.392 203.099 212.644 202.753 213.148C202.408 213.643 202.235 214.352 202.235 215.276C202.235 216.2 202.403 216.909 202.739 217.404C203.075 217.889 203.575 218.132 204.237 218.132C204.993 218.132 205.544 217.931 205.889 217.53C206.235 217.119 206.407 216.461 206.407 215.556V215.262C206.407 214.245 206.23 213.512 205.875 213.064C205.521 212.616 204.965 212.392 204.209 212.392Z" fill="#1B77AF"/>
<line x1="100" y1="235.5" x2="300" y2="235.5" stroke="#F1F1F1"/>
<rect width="200" height="44" transform="translate(100 236)" fill="white"/>
<path d="M121.768 263L118.478 254.236H118.422C118.45 254.525 118.473 254.917 118.492 255.412C118.511 255.897 118.52 256.406 118.52 256.938V263H117.358V253.004H119.22L122.3 261.194H122.356L125.492 253.004H127.34V263H126.094V256.854C126.094 256.369 126.103 255.888 126.122 255.412C126.15 254.936 126.173 254.549 126.192 254.25H126.136L122.804 263H121.768ZM132.733 255.37C133.648 255.37 134.325 255.571 134.763 255.972C135.202 256.373 135.421 257.013 135.421 257.89V263H134.525L134.287 261.936H134.231C133.905 262.347 133.559 262.65 133.195 262.846C132.831 263.042 132.337 263.14 131.711 263.14C131.03 263.14 130.465 262.963 130.017 262.608C129.569 262.244 129.345 261.679 129.345 260.914C129.345 260.167 129.639 259.593 130.227 259.192C130.815 258.781 131.721 258.557 132.943 258.52L134.217 258.478V258.03C134.217 257.405 134.082 256.971 133.811 256.728C133.541 256.485 133.158 256.364 132.663 256.364C132.271 256.364 131.898 256.425 131.543 256.546C131.189 256.658 130.857 256.789 130.549 256.938L130.171 256.014C130.498 255.837 130.885 255.687 131.333 255.566C131.781 255.435 132.248 255.37 132.733 255.37ZM134.203 259.332L133.097 259.374C132.164 259.411 131.515 259.561 131.151 259.822C130.797 260.083 130.619 260.452 130.619 260.928C130.619 261.348 130.745 261.656 130.997 261.852C131.259 262.048 131.59 262.146 131.991 262.146C132.617 262.146 133.139 261.973 133.559 261.628C133.989 261.273 134.203 260.732 134.203 260.004V259.332ZM142.625 260.928C142.625 261.656 142.354 262.207 141.813 262.58C141.271 262.953 140.543 263.14 139.629 263.14C139.106 263.14 138.653 263.098 138.271 263.014C137.897 262.93 137.566 262.813 137.277 262.664V261.544C137.575 261.693 137.935 261.833 138.355 261.964C138.784 262.085 139.218 262.146 139.657 262.146C140.282 262.146 140.735 262.048 141.015 261.852C141.295 261.647 141.435 261.376 141.435 261.04C141.435 260.853 141.383 260.685 141.281 260.536C141.178 260.387 140.991 260.237 140.721 260.088C140.459 259.939 140.081 259.771 139.587 259.584C139.101 259.397 138.686 259.211 138.341 259.024C137.995 258.837 137.729 258.613 137.543 258.352C137.356 258.091 137.263 257.755 137.263 257.344C137.263 256.709 137.519 256.219 138.033 255.874C138.555 255.529 139.237 255.356 140.077 255.356C140.534 255.356 140.959 255.403 141.351 255.496C141.752 255.589 142.125 255.711 142.471 255.86L142.051 256.84C141.733 256.709 141.402 256.597 141.057 256.504C140.711 256.411 140.357 256.364 139.993 256.364C139.489 256.364 139.101 256.448 138.831 256.616C138.569 256.775 138.439 256.994 138.439 257.274C138.439 257.489 138.499 257.666 138.621 257.806C138.742 257.946 138.943 258.086 139.223 258.226C139.512 258.366 139.895 258.525 140.371 258.702C140.847 258.879 141.253 259.061 141.589 259.248C141.925 259.435 142.181 259.663 142.359 259.934C142.536 260.195 142.625 260.527 142.625 260.928ZM150.962 259.234C150.962 260.475 150.645 261.437 150.01 262.118C149.385 262.799 148.535 263.14 147.462 263.14C146.799 263.14 146.207 262.991 145.684 262.692C145.171 262.384 144.765 261.941 144.466 261.362C144.167 260.774 144.018 260.065 144.018 259.234C144.018 257.993 144.326 257.036 144.942 256.364C145.567 255.692 146.421 255.356 147.504 255.356C148.176 255.356 148.773 255.51 149.296 255.818C149.819 256.117 150.225 256.555 150.514 257.134C150.813 257.703 150.962 258.403 150.962 259.234ZM145.292 259.234C145.292 260.121 145.465 260.825 145.81 261.348C146.165 261.861 146.725 262.118 147.49 262.118C148.246 262.118 148.801 261.861 149.156 261.348C149.511 260.825 149.688 260.121 149.688 259.234C149.688 258.347 149.511 257.652 149.156 257.148C148.801 256.644 148.241 256.392 147.476 256.392C146.711 256.392 146.155 256.644 145.81 257.148C145.465 257.652 145.292 258.347 145.292 259.234ZM156.527 255.356C157.423 255.356 158.099 255.575 158.557 256.014C159.014 256.453 159.243 257.153 159.243 258.114V263H158.025V258.198C158.025 256.994 157.465 256.392 156.345 256.392C155.514 256.392 154.94 256.625 154.623 257.092C154.305 257.559 154.147 258.231 154.147 259.108V263H152.915V255.496H153.909L154.091 256.518H154.161C154.403 256.126 154.739 255.837 155.169 255.65C155.598 255.454 156.051 255.356 156.527 255.356ZM171.646 263L170.442 259.906H166.48L165.29 263H164.016L167.922 252.962H169.056L172.948 263H171.646ZM170.064 258.786L168.944 255.762C168.916 255.687 168.869 255.552 168.804 255.356C168.738 255.16 168.673 254.959 168.608 254.754C168.552 254.539 168.505 254.376 168.468 254.264C168.393 254.553 168.314 254.838 168.23 255.118C168.155 255.389 168.09 255.603 168.034 255.762L166.9 258.786H170.064ZM177.759 255.356C178.655 255.356 179.332 255.575 179.789 256.014C180.246 256.453 180.475 257.153 180.475 258.114V263H179.257V258.198C179.257 256.994 178.697 256.392 177.577 256.392C176.746 256.392 176.172 256.625 175.855 257.092C175.538 257.559 175.379 258.231 175.379 259.108V263H174.147V255.496H175.141L175.323 256.518H175.393C175.636 256.126 175.972 255.837 176.401 255.65C176.83 255.454 177.283 255.356 177.759 255.356ZM185.461 263.14C184.528 263.14 183.781 262.818 183.221 262.174C182.661 261.521 182.381 260.55 182.381 259.262C182.381 257.974 182.661 257.003 183.221 256.35C183.791 255.687 184.542 255.356 185.475 255.356C186.054 255.356 186.525 255.463 186.889 255.678C187.263 255.893 187.566 256.154 187.799 256.462H187.883C187.865 256.341 187.846 256.163 187.827 255.93C187.809 255.687 187.799 255.496 187.799 255.356V252.36H189.031V263H188.037L187.855 261.992H187.799C187.575 262.309 187.277 262.58 186.903 262.804C186.53 263.028 186.049 263.14 185.461 263.14ZM185.657 262.118C186.451 262.118 187.006 261.903 187.323 261.474C187.65 261.035 187.813 260.377 187.813 259.5V259.276C187.813 258.343 187.659 257.629 187.351 257.134C187.043 256.63 186.474 256.378 185.643 256.378C184.981 256.378 184.481 256.644 184.145 257.176C183.819 257.699 183.655 258.403 183.655 259.29C183.655 260.186 183.819 260.881 184.145 261.376C184.481 261.871 184.985 262.118 185.657 262.118ZM194.313 255.356C194.947 255.356 195.498 255.496 195.965 255.776C196.431 256.056 196.786 256.453 197.029 256.966C197.281 257.47 197.407 258.063 197.407 258.744V259.486H192.269C192.287 260.335 192.502 260.984 192.913 261.432C193.333 261.871 193.916 262.09 194.663 262.09C195.139 262.09 195.559 262.048 195.923 261.964C196.296 261.871 196.679 261.74 197.071 261.572V262.65C196.688 262.818 196.31 262.939 195.937 263.014C195.563 263.098 195.12 263.14 194.607 263.14C193.888 263.14 193.258 262.995 192.717 262.706C192.175 262.417 191.751 261.987 191.443 261.418C191.144 260.849 190.995 260.144 190.995 259.304C190.995 258.483 191.13 257.778 191.401 257.19C191.681 256.602 192.068 256.149 192.563 255.832C193.067 255.515 193.65 255.356 194.313 255.356ZM194.299 256.364C193.711 256.364 193.244 256.555 192.899 256.938C192.563 257.311 192.362 257.834 192.297 258.506H196.119C196.109 257.871 195.96 257.358 195.671 256.966C195.381 256.565 194.924 256.364 194.299 256.364ZM202.817 255.356C202.957 255.356 203.106 255.365 203.265 255.384C203.424 255.393 203.568 255.412 203.699 255.44L203.545 256.574C203.424 256.546 203.288 256.523 203.139 256.504C202.99 256.485 202.854 256.476 202.733 256.476C202.35 256.476 201.991 256.583 201.655 256.798C201.319 257.003 201.048 257.297 200.843 257.68C200.647 258.053 200.549 258.492 200.549 258.996V263H199.317V255.496H200.325L200.465 256.868H200.521C200.754 256.457 201.062 256.103 201.445 255.804C201.837 255.505 202.294 255.356 202.817 255.356ZM209.986 260.928C209.986 261.656 209.715 262.207 209.174 262.58C208.633 262.953 207.905 263.14 206.99 263.14C206.467 263.14 206.015 263.098 205.632 263.014C205.259 262.93 204.927 262.813 204.638 262.664V261.544C204.937 261.693 205.296 261.833 205.716 261.964C206.145 262.085 206.579 262.146 207.018 262.146C207.643 262.146 208.096 262.048 208.376 261.852C208.656 261.647 208.796 261.376 208.796 261.04C208.796 260.853 208.745 260.685 208.642 260.536C208.539 260.387 208.353 260.237 208.082 260.088C207.821 259.939 207.443 259.771 206.948 259.584C206.463 259.397 206.047 259.211 205.702 259.024C205.357 258.837 205.091 258.613 204.904 258.352C204.717 258.091 204.624 257.755 204.624 257.344C204.624 256.709 204.881 256.219 205.394 255.874C205.917 255.529 206.598 255.356 207.438 255.356C207.895 255.356 208.32 255.403 208.712 255.496C209.113 255.589 209.487 255.711 209.832 255.86L209.412 256.84C209.095 256.709 208.763 256.597 208.418 256.504C208.073 256.411 207.718 256.364 207.354 256.364C206.85 256.364 206.463 256.448 206.192 256.616C205.931 256.775 205.8 256.994 205.8 257.274C205.8 257.489 205.861 257.666 205.982 257.806C206.103 257.946 206.304 258.086 206.584 258.226C206.873 258.366 207.256 258.525 207.732 258.702C208.208 258.879 208.614 259.061 208.95 259.248C209.286 259.435 209.543 259.663 209.72 259.934C209.897 260.195 209.986 260.527 209.986 260.928ZM218.323 259.234C218.323 260.475 218.006 261.437 217.371 262.118C216.746 262.799 215.897 263.14 214.823 263.14C214.161 263.14 213.568 262.991 213.045 262.692C212.532 262.384 212.126 261.941 211.827 261.362C211.529 260.774 211.379 260.065 211.379 259.234C211.379 257.993 211.687 257.036 212.303 256.364C212.929 255.692 213.783 255.356 214.865 255.356C215.537 255.356 216.135 255.51 216.657 255.818C217.18 256.117 217.586 256.555 217.875 257.134C218.174 257.703 218.323 258.403 218.323 259.234ZM212.653 259.234C212.653 260.121 212.826 260.825 213.171 261.348C213.526 261.861 214.086 262.118 214.851 262.118C215.607 262.118 216.163 261.861 216.517 261.348C216.872 260.825 217.049 260.121 217.049 259.234C217.049 258.347 216.872 257.652 216.517 257.148C216.163 256.644 215.603 256.392 214.837 256.392C214.072 256.392 213.517 256.644 213.171 257.148C212.826 257.652 212.653 258.347 212.653 259.234ZM223.888 255.356C224.784 255.356 225.461 255.575 225.918 256.014C226.375 256.453 226.604 257.153 226.604 258.114V263H225.386V258.198C225.386 256.994 224.826 256.392 223.706 256.392C222.875 256.392 222.301 256.625 221.984 257.092C221.667 257.559 221.508 258.231 221.508 259.108V263H220.276V255.496H221.27L221.452 256.518H221.522C221.765 256.126 222.101 255.837 222.53 255.65C222.959 255.454 223.412 255.356 223.888 255.356Z" fill="#1B77AF"/>
<line x1="100" y1="279.5" x2="300" y2="279.5" stroke="#F1F1F1"/>
<rect width="102" height="44" transform="translate(300 16)" fill="white"/>
<path d="M323.476 43L322.566 40.354H318.8L317.904 43H316L319.668 32.962H321.712L325.38 43H323.476ZM322.104 38.814L321.236 36.238C321.199 36.1167 321.143 35.944 321.068 35.72C320.993 35.4867 320.923 35.2533 320.858 35.02C320.793 34.7773 320.737 34.5767 320.69 34.418C320.643 34.614 320.583 34.8333 320.508 35.076C320.443 35.3187 320.377 35.5473 320.312 35.762C320.256 35.9767 320.209 36.1353 320.172 36.238L319.29 38.814H322.104ZM329.075 35.272C330.055 35.272 330.806 35.6453 331.329 36.392H331.399L331.567 35.412H333.037V43.056C333.037 44.1387 332.733 44.96 332.127 45.52C331.52 46.08 330.605 46.36 329.383 46.36C328.841 46.36 328.342 46.3227 327.885 46.248C327.427 46.1827 326.993 46.066 326.583 45.898V44.442C327.012 44.6287 327.469 44.7733 327.955 44.876C328.449 44.9787 328.963 45.03 329.495 45.03C330.064 45.03 330.503 44.8667 330.811 44.54C331.119 44.2227 331.273 43.756 331.273 43.14V42.944C331.273 42.804 331.277 42.6407 331.287 42.454C331.296 42.2673 331.31 42.118 331.329 42.006H331.273C331.011 42.398 330.689 42.6873 330.307 42.874C329.933 43.0513 329.509 43.14 329.033 43.14C328.109 43.14 327.385 42.7947 326.863 42.104C326.34 41.4133 326.079 40.452 326.079 39.22C326.079 37.988 326.34 37.022 326.863 36.322C327.395 35.622 328.132 35.272 329.075 35.272ZM329.537 36.714C328.435 36.714 327.885 37.5587 327.885 39.248C327.885 40.9093 328.445 41.74 329.565 41.74C330.181 41.74 330.633 41.572 330.923 41.236C331.221 40.8907 331.371 40.312 331.371 39.5V39.234C331.371 38.338 331.221 37.694 330.923 37.302C330.633 36.91 330.171 36.714 329.537 36.714ZM338.342 35.272C339.36 35.272 340.162 35.5753 340.75 36.182C341.348 36.7887 341.646 37.6333 341.646 38.716V39.612H336.634C336.653 40.3027 336.844 40.8393 337.208 41.222C337.572 41.5953 338.076 41.782 338.72 41.782C339.206 41.782 339.644 41.7353 340.036 41.642C340.428 41.5393 340.83 41.3947 341.24 41.208V42.622C340.867 42.7993 340.48 42.93 340.078 43.014C339.677 43.098 339.196 43.14 338.636 43.14C337.89 43.14 337.232 43 336.662 42.72C336.093 42.4307 335.645 42.0013 335.318 41.432C335.001 40.8533 334.842 40.13 334.842 39.262C334.842 37.9647 335.16 36.9753 335.794 36.294C336.438 35.6127 337.288 35.272 338.342 35.272ZM338.342 36.574C337.866 36.574 337.479 36.728 337.18 37.036C336.891 37.3347 336.723 37.7827 336.676 38.38H339.938C339.929 37.8573 339.794 37.428 339.532 37.092C339.28 36.7467 338.884 36.574 338.342 36.574ZM347.485 35.272C348.334 35.272 348.997 35.4913 349.473 35.93C349.958 36.3687 350.201 37.078 350.201 38.058V43H348.437V38.408C348.437 37.8387 348.325 37.414 348.101 37.134C347.877 36.8447 347.522 36.7 347.037 36.7C346.328 36.7 345.842 36.924 345.581 37.372C345.32 37.82 345.189 38.4593 345.189 39.29V43H343.425V35.412H344.783L345.035 36.406H345.133C345.376 36.014 345.707 35.7293 346.127 35.552C346.556 35.3653 347.009 35.272 347.485 35.272ZM355.347 41.726C355.562 41.726 355.772 41.7073 355.977 41.67C356.192 41.6233 356.388 41.572 356.565 41.516V42.832C356.379 42.9253 356.136 43 355.837 43.056C355.539 43.112 355.226 43.14 354.899 43.14C354.461 43.14 354.064 43.07 353.709 42.93C353.364 42.79 353.089 42.5427 352.883 42.188C352.678 41.8333 352.575 41.334 352.575 40.69V36.742H351.553V35.972L352.673 35.356L353.233 33.746H354.339V35.412H356.495V36.742H354.339V40.676C354.339 41.0307 354.433 41.2967 354.619 41.474C354.815 41.642 355.058 41.726 355.347 41.726ZM365.288 43H361.088V41.978L362.292 41.53V34.488L361.088 34.026V33.004H365.288V34.026L364.084 34.488V41.53L365.288 41.978V43ZM375.257 37.904C375.257 39.5933 374.786 40.8673 373.843 41.726C372.901 42.5753 371.585 43 369.895 43H367.081V33.004H370.189C371.225 33.004 372.121 33.1907 372.877 33.564C373.633 33.9373 374.217 34.488 374.627 35.216C375.047 35.944 375.257 36.84 375.257 37.904ZM373.381 37.96C373.381 36.7653 373.106 35.888 372.555 35.328C372.005 34.768 371.216 34.488 370.189 34.488H368.873V41.502H369.951C372.238 41.502 373.381 40.3213 373.381 37.96Z" fill="black"/>
<line x1="300" y1="16.5" x2="402" y2="16.5" stroke="#C9C9C9"/>
<line x1="300" y1="59.5" x2="402" y2="59.5" stroke="#C9C9C9"/>
<rect width="102" height="44" transform="translate(300 60)" fill="white"/>
<path d="M320.97 87H319.766V80.014C319.766 79.6127 319.771 79.2907 319.78 79.048C319.789 78.8053 319.803 78.5533 319.822 78.292C319.673 78.4413 319.533 78.5673 319.402 78.67C319.281 78.7727 319.131 78.9033 318.954 79.062L317.89 79.93L317.246 79.104L319.948 77.004H320.97V87ZM330.914 79.342C330.914 80.014 330.722 80.5507 330.34 80.952C329.966 81.344 329.467 81.6053 328.842 81.736V81.792C329.635 81.8853 330.228 82.1373 330.62 82.548C331.021 82.9587 331.222 83.4953 331.222 84.158C331.222 84.746 331.086 85.264 330.816 85.712C330.545 86.16 330.125 86.51 329.556 86.762C328.996 87.014 328.272 87.14 327.386 87.14C326.863 87.14 326.378 87.098 325.93 87.014C325.482 86.9393 325.052 86.7993 324.642 86.594V85.446C325.062 85.6607 325.514 85.824 326 85.936C326.485 86.048 326.952 86.104 327.4 86.104C328.296 86.104 328.94 85.9313 329.332 85.586C329.733 85.2313 329.934 84.746 329.934 84.13C329.934 83.5047 329.686 83.0567 329.192 82.786C328.706 82.506 328.02 82.366 327.134 82.366H326.168V81.316H327.148C327.969 81.316 328.59 81.1433 329.01 80.798C329.439 80.4527 329.654 79.9953 329.654 79.426C329.654 78.9407 329.49 78.5673 329.164 78.306C328.837 78.0353 328.394 77.9 327.834 77.9C327.292 77.9 326.83 77.9793 326.448 78.138C326.065 78.2967 325.687 78.4973 325.314 78.74L324.698 77.9C325.052 77.62 325.491 77.3773 326.014 77.172C326.546 76.9667 327.148 76.864 327.82 76.864C328.865 76.864 329.64 77.0973 330.144 77.564C330.657 78.0307 330.914 78.6233 330.914 79.342ZM332.793 82.73C332.793 82.0113 332.854 81.3067 332.975 80.616C333.106 79.916 333.335 79.286 333.661 78.726C333.997 78.1567 334.464 77.704 335.061 77.368C335.659 77.032 336.429 76.864 337.371 76.864C337.567 76.864 337.782 76.8733 338.015 76.892C338.258 76.9107 338.454 76.9433 338.603 76.99V78.04C338.435 77.984 338.244 77.942 338.029 77.914C337.815 77.886 337.605 77.872 337.399 77.872C336.755 77.872 336.219 77.9793 335.789 78.194C335.36 78.4087 335.019 78.7027 334.767 79.076C334.525 79.4493 334.347 79.8787 334.235 80.364C334.123 80.8493 334.053 81.3673 334.025 81.918H334.109C334.324 81.5913 334.623 81.316 335.005 81.092C335.388 80.8587 335.878 80.742 336.475 80.742C337.343 80.742 338.043 81.008 338.575 81.54C339.107 82.0627 339.373 82.8093 339.373 83.78C339.373 84.8253 339.084 85.6467 338.505 86.244C337.936 86.8413 337.166 87.14 336.195 87.14C335.561 87.14 334.987 86.9813 334.473 86.664C333.96 86.3467 333.549 85.8613 333.241 85.208C332.943 84.5547 332.793 83.7287 332.793 82.73ZM336.181 86.104C336.769 86.104 337.245 85.9173 337.609 85.544C337.973 85.1613 338.155 84.5733 338.155 83.78C338.155 83.1453 337.992 82.6413 337.665 82.268C337.348 81.8947 336.867 81.708 336.223 81.708C335.785 81.708 335.402 81.8013 335.075 81.988C334.749 82.1653 334.492 82.3987 334.305 82.688C334.128 82.968 334.039 83.2527 334.039 83.542C334.039 83.9433 334.119 84.3447 334.277 84.746C334.436 85.138 334.674 85.4647 334.991 85.726C335.309 85.978 335.705 86.104 336.181 86.104ZM347.763 84.732H346.307V87H345.117V84.732H340.329V83.682L345.033 76.948H346.307V83.626H347.763V84.732ZM345.117 83.626V80.476C345.117 79.9907 345.122 79.58 345.131 79.244C345.15 78.8987 345.168 78.572 345.187 78.264H345.131C345.056 78.4413 344.963 78.6327 344.851 78.838C344.739 79.0433 344.632 79.216 344.529 79.356L341.533 83.626H345.117ZM351.897 80.868C352.914 80.868 353.726 81.1247 354.333 81.638C354.949 82.1513 355.257 82.8747 355.257 83.808C355.257 84.844 354.926 85.6607 354.263 86.258C353.61 86.846 352.695 87.14 351.519 87.14C350.996 87.14 350.511 87.0933 350.063 87C349.615 86.9067 349.237 86.7713 348.929 86.594V85.432C349.265 85.6373 349.671 85.8007 350.147 85.922C350.632 86.034 351.094 86.09 351.533 86.09C352.27 86.09 352.863 85.9173 353.311 85.572C353.768 85.2173 353.997 84.6713 353.997 83.934C353.997 83.2807 353.796 82.7813 353.395 82.436C352.994 82.0813 352.359 81.904 351.491 81.904C351.23 81.904 350.931 81.9273 350.595 81.974C350.259 82.0207 349.988 82.0673 349.783 82.114L349.167 81.722L349.545 77.004H354.557V78.124H350.595L350.357 81.022C350.516 80.994 350.73 80.9613 351.001 80.924C351.272 80.8867 351.57 80.868 351.897 80.868ZM361.029 87H359.825V80.014C359.825 79.6127 359.829 79.2907 359.839 79.048C359.848 78.8053 359.862 78.5533 359.881 78.292C359.731 78.4413 359.591 78.5673 359.461 78.67C359.339 78.7727 359.19 78.9033 359.013 79.062L357.949 79.93L357.305 79.104L360.007 77.004H361.029V87Z" fill="black"/>
<line x1="300" y1="103.5" x2="402" y2="103.5" stroke="#F1F1F1"/>
<rect width="102" height="44" transform="translate(300 104)" fill="white"/>
<path d="M320.97 131H319.766V124.014C319.766 123.613 319.771 123.291 319.78 123.048C319.789 122.805 319.803 122.553 319.822 122.292C319.673 122.441 319.533 122.567 319.402 122.67C319.281 122.773 319.131 122.903 318.954 123.062L317.89 123.93L317.246 123.104L319.948 121.004H320.97V131ZM327.862 124.868C328.879 124.868 329.691 125.125 330.298 125.638C330.914 126.151 331.222 126.875 331.222 127.808C331.222 128.844 330.89 129.661 330.228 130.258C329.574 130.846 328.66 131.14 327.484 131.14C326.961 131.14 326.476 131.093 326.028 131C325.58 130.907 325.202 130.771 324.894 130.594V129.432C325.23 129.637 325.636 129.801 326.112 129.922C326.597 130.034 327.059 130.09 327.498 130.09C328.235 130.09 328.828 129.917 329.276 129.572C329.733 129.217 329.962 128.671 329.962 127.934C329.962 127.281 329.761 126.781 329.36 126.436C328.958 126.081 328.324 125.904 327.456 125.904C327.194 125.904 326.896 125.927 326.56 125.974C326.224 126.021 325.953 126.067 325.748 126.114L325.132 125.722L325.51 121.004H330.522V122.124H326.56L326.322 125.022C326.48 124.994 326.695 124.961 326.966 124.924C327.236 124.887 327.535 124.868 327.862 124.868ZM338.925 123.342C338.925 124.014 338.734 124.551 338.351 124.952C337.978 125.344 337.479 125.605 336.853 125.736V125.792C337.647 125.885 338.239 126.137 338.631 126.548C339.033 126.959 339.233 127.495 339.233 128.158C339.233 128.746 339.098 129.264 338.827 129.712C338.557 130.16 338.137 130.51 337.567 130.762C337.007 131.014 336.284 131.14 335.397 131.14C334.875 131.14 334.389 131.098 333.941 131.014C333.493 130.939 333.064 130.799 332.653 130.594V129.446C333.073 129.661 333.526 129.824 334.011 129.936C334.497 130.048 334.963 130.104 335.411 130.104C336.307 130.104 336.951 129.931 337.343 129.586C337.745 129.231 337.945 128.746 337.945 128.13C337.945 127.505 337.698 127.057 337.203 126.786C336.718 126.506 336.032 126.366 335.145 126.366H334.179V125.316H335.159C335.981 125.316 336.601 125.143 337.021 124.798C337.451 124.453 337.665 123.995 337.665 123.426C337.665 122.941 337.502 122.567 337.175 122.306C336.849 122.035 336.405 121.9 335.845 121.9C335.304 121.9 334.842 121.979 334.459 122.138C334.077 122.297 333.699 122.497 333.325 122.74L332.709 121.9C333.064 121.62 333.503 121.377 334.025 121.172C334.557 120.967 335.159 120.864 335.831 120.864C336.877 120.864 337.651 121.097 338.155 121.564C338.669 122.031 338.925 122.623 338.925 123.342ZM346.937 123.342C346.937 124.014 346.746 124.551 346.363 124.952C345.99 125.344 345.49 125.605 344.865 125.736V125.792C345.658 125.885 346.251 126.137 346.643 126.548C347.044 126.959 347.245 127.495 347.245 128.158C347.245 128.746 347.11 129.264 346.839 129.712C346.568 130.16 346.148 130.51 345.579 130.762C345.019 131.014 344.296 131.14 343.409 131.14C342.886 131.14 342.401 131.098 341.953 131.014C341.505 130.939 341.076 130.799 340.665 130.594V129.446C341.085 129.661 341.538 129.824 342.023 129.936C342.508 130.048 342.975 130.104 343.423 130.104C344.319 130.104 344.963 129.931 345.355 129.586C345.756 129.231 345.957 128.746 345.957 128.13C345.957 127.505 345.71 127.057 345.215 126.786C344.73 126.506 344.044 126.366 343.157 126.366H342.191V125.316H343.171C343.992 125.316 344.613 125.143 345.033 124.798C345.462 124.453 345.677 123.995 345.677 123.426C345.677 122.941 345.514 122.567 345.187 122.306C344.86 122.035 344.417 121.9 343.857 121.9C343.316 121.9 342.854 121.979 342.471 122.138C342.088 122.297 341.71 122.497 341.337 122.74L340.721 121.9C341.076 121.62 341.514 121.377 342.037 121.172C342.569 120.967 343.171 120.864 343.843 120.864C344.888 120.864 345.663 121.097 346.167 121.564C346.68 122.031 346.937 122.623 346.937 123.342ZM355.775 128.732H354.319V131H353.129V128.732H348.341V127.682L353.045 120.948H354.319V127.626H355.775V128.732ZM353.129 127.626V124.476C353.129 123.991 353.134 123.58 353.143 123.244C353.162 122.899 353.18 122.572 353.199 122.264H353.143C353.068 122.441 352.975 122.633 352.863 122.838C352.751 123.043 352.644 123.216 352.541 123.356L349.545 127.626H353.129ZM359.909 124.868C360.926 124.868 361.738 125.125 362.345 125.638C362.961 126.151 363.269 126.875 363.269 127.808C363.269 128.844 362.937 129.661 362.275 130.258C361.621 130.846 360.707 131.14 359.531 131.14C359.008 131.14 358.523 131.093 358.075 131C357.627 130.907 357.249 130.771 356.941 130.594V129.432C357.277 129.637 357.683 129.801 358.159 129.922C358.644 130.034 359.106 130.09 359.545 130.09C360.282 130.09 360.875 129.917 361.323 129.572C361.78 129.217 362.009 128.671 362.009 127.934C362.009 127.281 361.808 126.781 361.407 126.436C361.005 126.081 360.371 125.904 359.503 125.904C359.241 125.904 358.943 125.927 358.607 125.974C358.271 126.021 358 126.067 357.795 126.114L357.179 125.722L357.557 121.004H362.569V122.124H358.607L358.369 125.022C358.527 124.994 358.742 124.961 359.013 124.924C359.283 124.887 359.582 124.868 359.909 124.868Z" fill="black"/>
<line x1="300" y1="147.5" x2="402" y2="147.5" stroke="#F1F1F1"/>
<rect width="102" height="44" transform="translate(300 148)" fill="#F1F1F1"/>
<path d="M323.28 175H316.672V173.978L319.29 171.332C319.785 170.828 320.205 170.38 320.55 169.988C320.905 169.596 321.171 169.213 321.348 168.84C321.525 168.467 321.614 168.051 321.614 167.594C321.614 167.043 321.451 166.628 321.124 166.348C320.797 166.059 320.373 165.914 319.85 165.914C319.355 165.914 318.926 165.998 318.562 166.166C318.198 166.334 317.825 166.567 317.442 166.866L316.784 166.04C317.176 165.713 317.624 165.438 318.128 165.214C318.641 164.981 319.215 164.864 319.85 164.864C320.783 164.864 321.521 165.102 322.062 165.578C322.603 166.054 322.874 166.703 322.874 167.524C322.874 168.047 322.767 168.537 322.552 168.994C322.337 169.451 322.039 169.904 321.656 170.352C321.273 170.8 320.825 171.271 320.312 171.766L318.226 173.824V173.88H323.28V175ZM330.914 167.342C330.914 168.014 330.722 168.551 330.34 168.952C329.966 169.344 329.467 169.605 328.842 169.736V169.792C329.635 169.885 330.228 170.137 330.62 170.548C331.021 170.959 331.222 171.495 331.222 172.158C331.222 172.746 331.086 173.264 330.816 173.712C330.545 174.16 330.125 174.51 329.556 174.762C328.996 175.014 328.272 175.14 327.386 175.14C326.863 175.14 326.378 175.098 325.93 175.014C325.482 174.939 325.052 174.799 324.642 174.594V173.446C325.062 173.661 325.514 173.824 326 173.936C326.485 174.048 326.952 174.104 327.4 174.104C328.296 174.104 328.94 173.931 329.332 173.586C329.733 173.231 329.934 172.746 329.934 172.13C329.934 171.505 329.686 171.057 329.192 170.786C328.706 170.506 328.02 170.366 327.134 170.366H326.168V169.316H327.148C327.969 169.316 328.59 169.143 329.01 168.798C329.439 168.453 329.654 167.995 329.654 167.426C329.654 166.941 329.49 166.567 329.164 166.306C328.837 166.035 328.394 165.9 327.834 165.9C327.292 165.9 326.83 165.979 326.448 166.138C326.065 166.297 325.687 166.497 325.314 166.74L324.698 165.9C325.052 165.62 325.491 165.377 326.014 165.172C326.546 164.967 327.148 164.864 327.82 164.864C328.865 164.864 329.64 165.097 330.144 165.564C330.657 166.031 330.914 166.623 330.914 167.342ZM332.793 170.73C332.793 170.011 332.854 169.307 332.975 168.616C333.106 167.916 333.335 167.286 333.661 166.726C333.997 166.157 334.464 165.704 335.061 165.368C335.659 165.032 336.429 164.864 337.371 164.864C337.567 164.864 337.782 164.873 338.015 164.892C338.258 164.911 338.454 164.943 338.603 164.99V166.04C338.435 165.984 338.244 165.942 338.029 165.914C337.815 165.886 337.605 165.872 337.399 165.872C336.755 165.872 336.219 165.979 335.789 166.194C335.36 166.409 335.019 166.703 334.767 167.076C334.525 167.449 334.347 167.879 334.235 168.364C334.123 168.849 334.053 169.367 334.025 169.918H334.109C334.324 169.591 334.623 169.316 335.005 169.092C335.388 168.859 335.878 168.742 336.475 168.742C337.343 168.742 338.043 169.008 338.575 169.54C339.107 170.063 339.373 170.809 339.373 171.78C339.373 172.825 339.084 173.647 338.505 174.244C337.936 174.841 337.166 175.14 336.195 175.14C335.561 175.14 334.987 174.981 334.473 174.664C333.96 174.347 333.549 173.861 333.241 173.208C332.943 172.555 332.793 171.729 332.793 170.73ZM336.181 174.104C336.769 174.104 337.245 173.917 337.609 173.544C337.973 173.161 338.155 172.573 338.155 171.78C338.155 171.145 337.992 170.641 337.665 170.268C337.348 169.895 336.867 169.708 336.223 169.708C335.785 169.708 335.402 169.801 335.075 169.988C334.749 170.165 334.492 170.399 334.305 170.688C334.128 170.968 334.039 171.253 334.039 171.542C334.039 171.943 334.119 172.345 334.277 172.746C334.436 173.138 334.674 173.465 334.991 173.726C335.309 173.978 335.705 174.104 336.181 174.104ZM347.315 169.274C347.315 169.993 347.25 170.702 347.119 171.402C346.998 172.093 346.769 172.723 346.433 173.292C346.106 173.852 345.64 174.3 345.033 174.636C344.436 174.972 343.666 175.14 342.723 175.14C342.536 175.14 342.317 175.126 342.065 175.098C341.813 175.079 341.612 175.047 341.463 175V173.95C341.827 174.071 342.238 174.132 342.695 174.132C343.348 174.132 343.885 174.025 344.305 173.81C344.734 173.595 345.075 173.306 345.327 172.942C345.579 172.569 345.761 172.139 345.873 171.654C345.985 171.159 346.05 170.641 346.069 170.1H345.985C345.77 170.417 345.472 170.693 345.089 170.926C344.706 171.15 344.212 171.262 343.605 171.262C342.746 171.262 342.051 171.001 341.519 170.478C340.996 169.946 340.735 169.199 340.735 168.238C340.735 167.538 340.866 166.936 341.127 166.432C341.388 165.928 341.757 165.541 342.233 165.27C342.718 164.999 343.283 164.864 343.927 164.864C344.562 164.864 345.136 165.027 345.649 165.354C346.162 165.671 346.568 166.157 346.867 166.81C347.166 167.454 347.315 168.275 347.315 169.274ZM343.927 165.9C343.348 165.9 342.872 166.091 342.499 166.474C342.135 166.857 341.953 167.44 341.953 168.224C341.953 168.868 342.107 169.377 342.415 169.75C342.732 170.114 343.218 170.296 343.871 170.296C344.319 170.296 344.706 170.207 345.033 170.03C345.36 169.843 345.612 169.61 345.789 169.33C345.976 169.05 346.069 168.761 346.069 168.462C346.069 168.061 345.99 167.664 345.831 167.272C345.672 166.88 345.434 166.553 345.117 166.292C344.8 166.031 344.403 165.9 343.927 165.9ZM355.327 175H348.719V173.978L351.337 171.332C351.832 170.828 352.252 170.38 352.597 169.988C352.952 169.596 353.218 169.213 353.395 168.84C353.572 168.467 353.661 168.051 353.661 167.594C353.661 167.043 353.498 166.628 353.171 166.348C352.844 166.059 352.42 165.914 351.897 165.914C351.402 165.914 350.973 165.998 350.609 166.166C350.245 166.334 349.872 166.567 349.489 166.866L348.831 166.04C349.223 165.713 349.671 165.438 350.175 165.214C350.688 164.981 351.262 164.864 351.897 164.864C352.83 164.864 353.568 165.102 354.109 165.578C354.65 166.054 354.921 166.703 354.921 167.524C354.921 168.047 354.814 168.537 354.599 168.994C354.384 169.451 354.086 169.904 353.703 170.352C353.32 170.8 352.872 171.271 352.359 171.766L350.273 173.824V173.88H355.327V175ZM361.029 175H359.825V168.014C359.825 167.613 359.829 167.291 359.839 167.048C359.848 166.805 359.862 166.553 359.881 166.292C359.731 166.441 359.591 166.567 359.461 166.67C359.339 166.773 359.19 166.903 359.013 167.062L357.949 167.93L357.305 167.104L360.007 165.004H361.029V175Z" fill="black"/>
<line x1="300" y1="191.5" x2="402" y2="191.5" stroke="#F1F1F1"/>
<rect width="102" height="44" transform="translate(300 192)" fill="white"/>
<path d="M322.902 211.342C322.902 212.014 322.711 212.551 322.328 212.952C321.955 213.344 321.455 213.605 320.83 213.736V213.792C321.623 213.885 322.216 214.137 322.608 214.548C323.009 214.959 323.21 215.495 323.21 216.158C323.21 216.746 323.075 217.264 322.804 217.712C322.533 218.16 322.113 218.51 321.544 218.762C320.984 219.014 320.261 219.14 319.374 219.14C318.851 219.14 318.366 219.098 317.918 219.014C317.47 218.939 317.041 218.799 316.63 218.594V217.446C317.05 217.661 317.503 217.824 317.988 217.936C318.473 218.048 318.94 218.104 319.388 218.104C320.284 218.104 320.928 217.931 321.32 217.586C321.721 217.231 321.922 216.746 321.922 216.13C321.922 215.505 321.675 215.057 321.18 214.786C320.695 214.506 320.009 214.366 319.122 214.366H318.156V213.316H319.136C319.957 213.316 320.578 213.143 320.998 212.798C321.427 212.453 321.642 211.995 321.642 211.426C321.642 210.941 321.479 210.567 321.152 210.306C320.825 210.035 320.382 209.9 319.822 209.9C319.281 209.9 318.819 209.979 318.436 210.138C318.053 210.297 317.675 210.497 317.302 210.74L316.686 209.9C317.041 209.62 317.479 209.377 318.002 209.172C318.534 208.967 319.136 208.864 319.808 208.864C320.853 208.864 321.628 209.097 322.132 209.564C322.645 210.031 322.902 210.623 322.902 211.342ZM331.74 216.732H330.284V219H329.094V216.732H324.306V215.682L329.01 208.948H330.284V215.626H331.74V216.732ZM329.094 215.626V212.476C329.094 211.991 329.098 211.58 329.108 211.244C329.126 210.899 329.145 210.572 329.164 210.264H329.108C329.033 210.441 328.94 210.633 328.828 210.838C328.716 211.043 328.608 211.216 328.506 211.356L325.51 215.626H329.094ZM335.873 212.868C336.891 212.868 337.703 213.125 338.309 213.638C338.925 214.151 339.233 214.875 339.233 215.808C339.233 216.844 338.902 217.661 338.239 218.258C337.586 218.846 336.671 219.14 335.495 219.14C334.973 219.14 334.487 219.093 334.039 219C333.591 218.907 333.213 218.771 332.905 218.594V217.432C333.241 217.637 333.647 217.801 334.123 217.922C334.609 218.034 335.071 218.09 335.509 218.09C336.247 218.09 336.839 217.917 337.287 217.572C337.745 217.217 337.973 216.671 337.973 215.934C337.973 215.281 337.773 214.781 337.371 214.436C336.97 214.081 336.335 213.904 335.467 213.904C335.206 213.904 334.907 213.927 334.571 213.974C334.235 214.021 333.965 214.067 333.759 214.114L333.143 213.722L333.521 209.004H338.533V210.124H334.571L334.333 213.022C334.492 212.994 334.707 212.961 334.977 212.924C335.248 212.887 335.547 212.868 335.873 212.868ZM345.005 219H343.801V212.014C343.801 211.613 343.806 211.291 343.815 211.048C343.824 210.805 343.838 210.553 343.857 210.292C343.708 210.441 343.568 210.567 343.437 210.67C343.316 210.773 343.166 210.903 342.989 211.062L341.925 211.93L341.281 211.104L343.983 209.004H345.005V219ZM354.949 211.342C354.949 212.014 354.758 212.551 354.375 212.952C354.002 213.344 353.502 213.605 352.877 213.736V213.792C353.67 213.885 354.263 214.137 354.655 214.548C355.056 214.959 355.257 215.495 355.257 216.158C355.257 216.746 355.122 217.264 354.851 217.712C354.58 218.16 354.16 218.51 353.591 218.762C353.031 219.014 352.308 219.14 351.421 219.14C350.898 219.14 350.413 219.098 349.965 219.014C349.517 218.939 349.088 218.799 348.677 218.594V217.446C349.097 217.661 349.55 217.824 350.035 217.936C350.52 218.048 350.987 218.104 351.435 218.104C352.331 218.104 352.975 217.931 353.367 217.586C353.768 217.231 353.969 216.746 353.969 216.13C353.969 215.505 353.722 215.057 353.227 214.786C352.742 214.506 352.056 214.366 351.169 214.366H350.203V213.316H351.183C352.004 213.316 352.625 213.143 353.045 212.798C353.474 212.453 353.689 211.995 353.689 211.426C353.689 210.941 353.526 210.567 353.199 210.306C352.872 210.035 352.429 209.9 351.869 209.9C351.328 209.9 350.866 209.979 350.483 210.138C350.1 210.297 349.722 210.497 349.349 210.74L348.733 209.9C349.088 209.62 349.526 209.377 350.049 209.172C350.581 208.967 351.183 208.864 351.855 208.864C352.9 208.864 353.675 209.097 354.179 209.564C354.692 210.031 354.949 210.623 354.949 211.342ZM359.909 212.868C360.926 212.868 361.738 213.125 362.345 213.638C362.961 214.151 363.269 214.875 363.269 215.808C363.269 216.844 362.937 217.661 362.275 218.258C361.621 218.846 360.707 219.14 359.531 219.14C359.008 219.14 358.523 219.093 358.075 219C357.627 218.907 357.249 218.771 356.941 218.594V217.432C357.277 217.637 357.683 217.801 358.159 217.922C358.644 218.034 359.106 218.09 359.545 218.09C360.282 218.09 360.875 217.917 361.323 217.572C361.78 217.217 362.009 216.671 362.009 215.934C362.009 215.281 361.808 214.781 361.407 214.436C361.005 214.081 360.371 213.904 359.503 213.904C359.241 213.904 358.943 213.927 358.607 213.974C358.271 214.021 358 214.067 357.795 214.114L357.179 213.722L357.557 209.004H362.569V210.124H358.607L358.369 213.022C358.527 212.994 358.742 212.961 359.013 212.924C359.283 212.887 359.582 212.868 359.909 212.868Z" fill="black"/>
<line x1="300" y1="235.5" x2="402" y2="235.5" stroke="#F1F1F1"/>
<rect width="102" height="44" transform="translate(300 236)" fill="white"/>
<path d="M323.28 263H316.672V261.978L319.29 259.332C319.785 258.828 320.205 258.38 320.55 257.988C320.905 257.596 321.171 257.213 321.348 256.84C321.525 256.467 321.614 256.051 321.614 255.594C321.614 255.043 321.451 254.628 321.124 254.348C320.797 254.059 320.373 253.914 319.85 253.914C319.355 253.914 318.926 253.998 318.562 254.166C318.198 254.334 317.825 254.567 317.442 254.866L316.784 254.04C317.176 253.713 317.624 253.438 318.128 253.214C318.641 252.981 319.215 252.864 319.85 252.864C320.783 252.864 321.521 253.102 322.062 253.578C322.603 254.054 322.874 254.703 322.874 255.524C322.874 256.047 322.767 256.537 322.552 256.994C322.337 257.451 322.039 257.904 321.656 258.352C321.273 258.8 320.825 259.271 320.312 259.766L318.226 261.824V261.88H323.28V263ZM330.914 255.342C330.914 256.014 330.722 256.551 330.34 256.952C329.966 257.344 329.467 257.605 328.842 257.736V257.792C329.635 257.885 330.228 258.137 330.62 258.548C331.021 258.959 331.222 259.495 331.222 260.158C331.222 260.746 331.086 261.264 330.816 261.712C330.545 262.16 330.125 262.51 329.556 262.762C328.996 263.014 328.272 263.14 327.386 263.14C326.863 263.14 326.378 263.098 325.93 263.014C325.482 262.939 325.052 262.799 324.642 262.594V261.446C325.062 261.661 325.514 261.824 326 261.936C326.485 262.048 326.952 262.104 327.4 262.104C328.296 262.104 328.94 261.931 329.332 261.586C329.733 261.231 329.934 260.746 329.934 260.13C329.934 259.505 329.686 259.057 329.192 258.786C328.706 258.506 328.02 258.366 327.134 258.366H326.168V257.316H327.148C327.969 257.316 328.59 257.143 329.01 256.798C329.439 256.453 329.654 255.995 329.654 255.426C329.654 254.941 329.49 254.567 329.164 254.306C328.837 254.035 328.394 253.9 327.834 253.9C327.292 253.9 326.83 253.979 326.448 254.138C326.065 254.297 325.687 254.497 325.314 254.74L324.698 253.9C325.052 253.62 325.491 253.377 326.014 253.172C326.546 252.967 327.148 252.864 327.82 252.864C328.865 252.864 329.64 253.097 330.144 253.564C330.657 254.031 330.914 254.623 330.914 255.342ZM332.793 258.73C332.793 258.011 332.854 257.307 332.975 256.616C333.106 255.916 333.335 255.286 333.661 254.726C333.997 254.157 334.464 253.704 335.061 253.368C335.659 253.032 336.429 252.864 337.371 252.864C337.567 252.864 337.782 252.873 338.015 252.892C338.258 252.911 338.454 252.943 338.603 252.99V254.04C338.435 253.984 338.244 253.942 338.029 253.914C337.815 253.886 337.605 253.872 337.399 253.872C336.755 253.872 336.219 253.979 335.789 254.194C335.36 254.409 335.019 254.703 334.767 255.076C334.525 255.449 334.347 255.879 334.235 256.364C334.123 256.849 334.053 257.367 334.025 257.918H334.109C334.324 257.591 334.623 257.316 335.005 257.092C335.388 256.859 335.878 256.742 336.475 256.742C337.343 256.742 338.043 257.008 338.575 257.54C339.107 258.063 339.373 258.809 339.373 259.78C339.373 260.825 339.084 261.647 338.505 262.244C337.936 262.841 337.166 263.14 336.195 263.14C335.561 263.14 334.987 262.981 334.473 262.664C333.96 262.347 333.549 261.861 333.241 261.208C332.943 260.555 332.793 259.729 332.793 258.73ZM336.181 262.104C336.769 262.104 337.245 261.917 337.609 261.544C337.973 261.161 338.155 260.573 338.155 259.78C338.155 259.145 337.992 258.641 337.665 258.268C337.348 257.895 336.867 257.708 336.223 257.708C335.785 257.708 335.402 257.801 335.075 257.988C334.749 258.165 334.492 258.399 334.305 258.688C334.128 258.968 334.039 259.253 334.039 259.542C334.039 259.943 334.119 260.345 334.277 260.746C334.436 261.138 334.674 261.465 334.991 261.726C335.309 261.978 335.705 262.104 336.181 262.104ZM347.315 257.274C347.315 257.993 347.25 258.702 347.119 259.402C346.998 260.093 346.769 260.723 346.433 261.292C346.106 261.852 345.64 262.3 345.033 262.636C344.436 262.972 343.666 263.14 342.723 263.14C342.536 263.14 342.317 263.126 342.065 263.098C341.813 263.079 341.612 263.047 341.463 263V261.95C341.827 262.071 342.238 262.132 342.695 262.132C343.348 262.132 343.885 262.025 344.305 261.81C344.734 261.595 345.075 261.306 345.327 260.942C345.579 260.569 345.761 260.139 345.873 259.654C345.985 259.159 346.05 258.641 346.069 258.1H345.985C345.77 258.417 345.472 258.693 345.089 258.926C344.706 259.15 344.212 259.262 343.605 259.262C342.746 259.262 342.051 259.001 341.519 258.478C340.996 257.946 340.735 257.199 340.735 256.238C340.735 255.538 340.866 254.936 341.127 254.432C341.388 253.928 341.757 253.541 342.233 253.27C342.718 252.999 343.283 252.864 343.927 252.864C344.562 252.864 345.136 253.027 345.649 253.354C346.162 253.671 346.568 254.157 346.867 254.81C347.166 255.454 347.315 256.275 347.315 257.274ZM343.927 253.9C343.348 253.9 342.872 254.091 342.499 254.474C342.135 254.857 341.953 255.44 341.953 256.224C341.953 256.868 342.107 257.377 342.415 257.75C342.732 258.114 343.218 258.296 343.871 258.296C344.319 258.296 344.706 258.207 345.033 258.03C345.36 257.843 345.612 257.61 345.789 257.33C345.976 257.05 346.069 256.761 346.069 256.462C346.069 256.061 345.99 255.664 345.831 255.272C345.672 254.88 345.434 254.553 345.117 254.292C344.8 254.031 344.403 253.9 343.927 253.9ZM355.327 263H348.719V261.978L351.337 259.332C351.832 258.828 352.252 258.38 352.597 257.988C352.952 257.596 353.218 257.213 353.395 256.84C353.572 256.467 353.661 256.051 353.661 255.594C353.661 255.043 353.498 254.628 353.171 254.348C352.844 254.059 352.42 253.914 351.897 253.914C351.402 253.914 350.973 253.998 350.609 254.166C350.245 254.334 349.872 254.567 349.489 254.866L348.831 254.04C349.223 253.713 349.671 253.438 350.175 253.214C350.688 252.981 351.262 252.864 351.897 252.864C352.83 252.864 353.568 253.102 354.109 253.578C354.65 254.054 354.921 254.703 354.921 255.524C354.921 256.047 354.814 256.537 354.599 256.994C354.384 257.451 354.086 257.904 353.703 258.352C353.32 258.8 352.872 259.271 352.359 259.766L350.273 261.824V261.88H355.327V263ZM361.029 263H359.825V256.014C359.825 255.613 359.829 255.291 359.839 255.048C359.848 254.805 359.862 254.553 359.881 254.292C359.731 254.441 359.591 254.567 359.461 254.67C359.339 254.773 359.19 254.903 359.013 255.062L357.949 255.93L357.305 255.104L360.007 253.004H361.029V263Z" fill="black"/>
<line x1="300" y1="279.5" x2="402" y2="279.5" stroke="#F1F1F1"/>
<defs>
<filter id="filter0_d_8602_550381" x="173.752" y="164.703" width="21.8535" height="25" filterUnits="userSpaceOnUse" color-interpolation-filters="sRGB">
<feFlood flood-opacity="0" result="BackgroundImageFix"/>
<feColorMatrix in="SourceAlpha" type="matrix" values="0 0 0 0 0 0 0 0 0 0 0 0 0 0 0 0 0 0 127 0" result="hardAlpha"/>
<feOffset dy="1"/>
<feGaussianBlur stdDeviation="1.5"/>
<feColorMatrix type="matrix" values="0 0 0 0 0 0 0 0 0 0 0 0 0 0 0 0 0 0 0.2 0"/>
<feBlend mode="normal" in2="BackgroundImageFix" result="effect1_dropShadow_8602_550381"/>
<feBlend mode="normal" in="SourceGraphic" in2="effect1_dropShadow_8602_550381" result="shape"/>
</filter>
</defs>
</svg>
