<svg width="412" height="312" viewBox="0 0 412 312" fill="none" xmlns="http://www.w3.org/2000/svg">
<rect width="412" height="312" fill="white"/>
<rect width="182" height="44" transform="translate(21.5 24)" fill="white"/>
<path d="M44.976 51L44.066 48.354H40.3L39.404 51H37.5L41.168 40.962H43.212L46.88 51H44.976ZM43.604 46.814L42.736 44.238C42.6987 44.1167 42.6427 43.944 42.568 43.72C42.4933 43.4867 42.4233 43.2533 42.358 43.02C42.2927 42.7773 42.2367 42.5767 42.19 42.418C42.1433 42.614 42.0827 42.8333 42.008 43.076C41.9427 43.3187 41.8773 43.5473 41.812 43.762C41.756 43.9767 41.7093 44.1353 41.672 44.238L40.79 46.814H43.604ZM50.5746 43.272C51.5546 43.272 52.3059 43.6453 52.8286 44.392H52.8986L53.0666 43.412H54.5366V51.056C54.5366 52.1387 54.2332 52.96 53.6266 53.52C53.0199 54.08 52.1052 54.36 50.8826 54.36C50.3412 54.36 49.8419 54.3227 49.3846 54.248C48.9272 54.1827 48.4932 54.066 48.0826 53.898V52.442C48.5119 52.6287 48.9692 52.7733 49.4546 52.876C49.9492 52.9787 50.4626 53.03 50.9946 53.03C51.5639 53.03 52.0026 52.8667 52.3106 52.54C52.6186 52.2227 52.7726 51.756 52.7726 51.14V50.944C52.7726 50.804 52.7772 50.6407 52.7866 50.454C52.7959 50.2673 52.8099 50.118 52.8286 50.006H52.7726C52.5112 50.398 52.1892 50.6873 51.8066 50.874C51.4332 51.0513 51.0086 51.14 50.5326 51.14C49.6086 51.14 48.8852 50.7947 48.3626 50.104C47.8399 49.4133 47.5786 48.452 47.5786 47.22C47.5786 45.988 47.8399 45.022 48.3626 44.322C48.8946 43.622 49.6319 43.272 50.5746 43.272ZM51.0366 44.714C49.9352 44.714 49.3846 45.5587 49.3846 47.248C49.3846 48.9093 49.9446 49.74 51.0646 49.74C51.6806 49.74 52.1332 49.572 52.4226 49.236C52.7212 48.8907 52.8706 48.312 52.8706 47.5V47.234C52.8706 46.338 52.7212 45.694 52.4226 45.302C52.1332 44.91 51.6712 44.714 51.0366 44.714ZM59.8423 43.272C60.8596 43.272 61.6623 43.5753 62.2503 44.182C62.8476 44.7887 63.1463 45.6333 63.1463 46.716V47.612H58.1343C58.1529 48.3027 58.3443 48.8393 58.7083 49.222C59.0723 49.5953 59.5763 49.782 60.2203 49.782C60.7056 49.782 61.1443 49.7353 61.5363 49.642C61.9283 49.5393 62.3296 49.3947 62.7403 49.208V50.622C62.3669 50.7993 61.9796 50.93 61.5783 51.014C61.1769 51.098 60.6963 51.14 60.1363 51.14C59.3896 51.14 58.7316 51 58.1623 50.72C57.5929 50.4307 57.1449 50.0013 56.8183 49.432C56.5009 48.8533 56.3423 48.13 56.3423 47.262C56.3423 45.9647 56.6596 44.9753 57.2943 44.294C57.9383 43.6127 58.7876 43.272 59.8423 43.272ZM59.8423 44.574C59.3663 44.574 58.9789 44.728 58.6803 45.036C58.3909 45.3347 58.2229 45.7827 58.1763 46.38H61.4383C61.4289 45.8573 61.2936 45.428 61.0323 45.092C60.7803 44.7467 60.3836 44.574 59.8423 44.574ZM68.985 43.272C69.8343 43.272 70.497 43.4913 70.973 43.93C71.4583 44.3687 71.701 45.078 71.701 46.058V51H69.937V46.408C69.937 45.8387 69.825 45.414 69.601 45.134C69.377 44.8447 69.0223 44.7 68.537 44.7C67.8277 44.7 67.3423 44.924 67.081 45.372C66.8197 45.82 66.689 46.4593 66.689 47.29V51H64.925V43.412H66.283L66.535 44.406H66.633C66.8757 44.014 67.207 43.7293 67.627 43.552C68.0563 43.3653 68.509 43.272 68.985 43.272ZM76.8474 49.726C77.0621 49.726 77.2721 49.7073 77.4774 49.67C77.6921 49.6233 77.8881 49.572 78.0654 49.516V50.832C77.8788 50.9253 77.6361 51 77.3374 51.056C77.0388 51.112 76.7261 51.14 76.3994 51.14C75.9608 51.14 75.5641 51.07 75.2094 50.93C74.8641 50.79 74.5888 50.5427 74.3834 50.188C74.1781 49.8333 74.0754 49.334 74.0754 48.69V44.742H73.0534V43.972L74.1734 43.356L74.7334 41.746H75.8394V43.412H77.9954V44.742H75.8394V48.676C75.8394 49.0307 75.9328 49.2967 76.1194 49.474C76.3154 49.642 76.5581 49.726 76.8474 49.726ZM86.7877 51H82.5877V49.978L83.7917 49.53V42.488L82.5877 42.026V41.004H86.7877V42.026L85.5837 42.488V49.53L86.7877 49.978V51ZM96.7573 45.904C96.7573 47.5933 96.286 48.8673 95.3433 49.726C94.4006 50.5753 93.0846 51 91.3953 51H88.5813V41.004H91.6893C92.7253 41.004 93.6213 41.1907 94.3773 41.564C95.1333 41.9373 95.7166 42.488 96.1273 43.216C96.5473 43.944 96.7573 44.84 96.7573 45.904ZM94.8813 45.96C94.8813 44.7653 94.606 43.888 94.0553 43.328C93.5046 42.768 92.716 42.488 91.6893 42.488H90.3733V49.502H91.4513C93.738 49.502 94.8813 48.3213 94.8813 45.96Z" fill="black"/>
<line x1="21.5" y1="24.5" x2="203.5" y2="24.5" stroke="#C9C9C9"/>
<line x1="21.5" y1="67.5" x2="203.5" y2="67.5" stroke="#C9C9C9"/>
<rect width="182" height="44" transform="translate(21.5 68)" fill="white"/>
<path d="M42.47 95H41.266V88.014C41.266 87.6127 41.2707 87.2907 41.28 87.048C41.2893 86.8053 41.3033 86.5533 41.322 86.292C41.1727 86.4413 41.0327 86.5673 40.902 86.67C40.7807 86.7727 40.6313 86.9033 40.454 87.062L39.39 87.93L38.746 87.104L41.448 85.004H42.47V95ZM52.4137 87.342C52.4137 88.014 52.2224 88.5507 51.8397 88.952C51.4664 89.344 50.9671 89.6053 50.3417 89.736V89.792C51.1351 89.8853 51.7277 90.1373 52.1197 90.548C52.5211 90.9587 52.7217 91.4953 52.7217 92.158C52.7217 92.746 52.5864 93.264 52.3157 93.712C52.0451 94.16 51.6251 94.51 51.0557 94.762C50.4957 95.014 49.7724 95.14 48.8857 95.14C48.3631 95.14 47.8777 95.098 47.4297 95.014C46.9817 94.9393 46.5524 94.7993 46.1417 94.594V93.446C46.5617 93.6607 47.0144 93.824 47.4997 93.936C47.9851 94.048 48.4517 94.104 48.8997 94.104C49.7957 94.104 50.4397 93.9313 50.8317 93.586C51.2331 93.2313 51.4337 92.746 51.4337 92.13C51.4337 91.5047 51.1864 91.0567 50.6917 90.786C50.2064 90.506 49.5204 90.366 48.6337 90.366H47.6677V89.316H48.6477C49.4691 89.316 50.0897 89.1433 50.5097 88.798C50.9391 88.4527 51.1537 87.9953 51.1537 87.426C51.1537 86.9407 50.9904 86.5673 50.6637 86.306C50.3371 86.0353 49.8937 85.9 49.3337 85.9C48.7924 85.9 48.3304 85.9793 47.9477 86.138C47.5651 86.2967 47.1871 86.4973 46.8137 86.74L46.1977 85.9C46.5524 85.62 46.9911 85.3773 47.5137 85.172C48.0457 84.9667 48.6477 84.864 49.3197 84.864C50.3651 84.864 51.1397 85.0973 51.6437 85.564C52.1571 86.0307 52.4137 86.6233 52.4137 87.342ZM54.2934 90.73C54.2934 90.0113 54.3541 89.3067 54.4754 88.616C54.6061 87.916 54.8348 87.286 55.1614 86.726C55.4974 86.1567 55.9641 85.704 56.5614 85.368C57.1588 85.032 57.9288 84.864 58.8714 84.864C59.0674 84.864 59.2821 84.8733 59.5154 84.892C59.7581 84.9107 59.9541 84.9433 60.1034 84.99V86.04C59.9354 85.984 59.7441 85.942 59.5294 85.914C59.3148 85.886 59.1048 85.872 58.8994 85.872C58.2554 85.872 57.7188 85.9793 57.2894 86.194C56.8601 86.4087 56.5194 86.7027 56.2674 87.076C56.0248 87.4493 55.8474 87.8787 55.7354 88.364C55.6234 88.8493 55.5534 89.3673 55.5254 89.918H55.6094C55.8241 89.5913 56.1228 89.316 56.5054 89.092C56.8881 88.8587 57.3781 88.742 57.9754 88.742C58.8434 88.742 59.5434 89.008 60.0754 89.54C60.6074 90.0627 60.8734 90.8093 60.8734 91.78C60.8734 92.8253 60.5841 93.6467 60.0054 94.244C59.4361 94.8413 58.6661 95.14 57.6954 95.14C57.0608 95.14 56.4868 94.9813 55.9734 94.664C55.4601 94.3467 55.0494 93.8613 54.7414 93.208C54.4428 92.5547 54.2934 91.7287 54.2934 90.73ZM57.6814 94.104C58.2694 94.104 58.7454 93.9173 59.1094 93.544C59.4734 93.1613 59.6554 92.5733 59.6554 91.78C59.6554 91.1453 59.4921 90.6413 59.1654 90.268C58.8481 89.8947 58.3674 89.708 57.7234 89.708C57.2848 89.708 56.9021 89.8013 56.5754 89.988C56.2488 90.1653 55.9921 90.3987 55.8054 90.688C55.6281 90.968 55.5394 91.2527 55.5394 91.542C55.5394 91.9433 55.6188 92.3447 55.7774 92.746C55.9361 93.138 56.1741 93.4647 56.4914 93.726C56.8088 93.978 57.2054 94.104 57.6814 94.104ZM69.2632 92.732H67.8072V95H66.6172V92.732H61.8292V91.682L66.5332 84.948H67.8072V91.626H69.2632V92.732ZM66.6172 91.626V88.476C66.6172 87.9907 66.6218 87.58 66.6312 87.244C66.6498 86.8987 66.6685 86.572 66.6872 86.264H66.6312C66.5565 86.4413 66.4632 86.6327 66.3512 86.838C66.2392 87.0433 66.1318 87.216 66.0292 87.356L63.0332 91.626H66.6172ZM73.3969 88.868C74.4142 88.868 75.2262 89.1247 75.8329 89.638C76.4489 90.1513 76.7569 90.8747 76.7569 91.808C76.7569 92.844 76.4255 93.6607 75.7629 94.258C75.1095 94.846 74.1949 95.14 73.0189 95.14C72.4962 95.14 72.0109 95.0933 71.5629 95C71.1149 94.9067 70.7369 94.7713 70.4289 94.594V93.432C70.7649 93.6373 71.1709 93.8007 71.6469 93.922C72.1322 94.034 72.5942 94.09 73.0329 94.09C73.7702 94.09 74.3629 93.9173 74.8109 93.572C75.2682 93.2173 75.4969 92.6713 75.4969 91.934C75.4969 91.2807 75.2962 90.7813 74.8949 90.436C74.4935 90.0813 73.8589 89.904 72.9909 89.904C72.7295 89.904 72.4309 89.9273 72.0949 89.974C71.7589 90.0207 71.4882 90.0673 71.2829 90.114L70.6669 89.722L71.0449 85.004H76.0569V86.124H72.0949L71.8569 89.022C72.0155 88.994 72.2302 88.9613 72.5009 88.924C72.7715 88.8867 73.0702 88.868 73.3969 88.868ZM82.5286 95H81.3246V88.014C81.3246 87.6127 81.3293 87.2907 81.3386 87.048C81.3479 86.8053 81.3619 86.5533 81.3806 86.292C81.2313 86.4413 81.0913 86.5673 80.9606 86.67C80.8393 86.7727 80.6899 86.9033 80.5126 87.062L79.4486 87.93L78.8046 87.104L81.5066 85.004H82.5286V95Z" fill="black"/>
<line x1="21.5" y1="111.5" x2="203.5" y2="111.5" stroke="#F1F1F1"/>
<rect width="182" height="44" transform="translate(21.5 112)" fill="white"/>
<path d="M42.47 139H41.266V132.014C41.266 131.613 41.2707 131.291 41.28 131.048C41.2893 130.805 41.3033 130.553 41.322 130.292C41.1727 130.441 41.0327 130.567 40.902 130.67C40.7807 130.773 40.6313 130.903 40.454 131.062L39.39 131.93L38.746 131.104L41.448 129.004H42.47V139ZM49.3617 132.868C50.3791 132.868 51.1911 133.125 51.7977 133.638C52.4137 134.151 52.7217 134.875 52.7217 135.808C52.7217 136.844 52.3904 137.661 51.7277 138.258C51.0744 138.846 50.1597 139.14 48.9837 139.14C48.4611 139.14 47.9757 139.093 47.5277 139C47.0797 138.907 46.7017 138.771 46.3937 138.594V137.432C46.7297 137.637 47.1357 137.801 47.6117 137.922C48.0971 138.034 48.5591 138.09 48.9977 138.09C49.7351 138.09 50.3277 137.917 50.7757 137.572C51.2331 137.217 51.4617 136.671 51.4617 135.934C51.4617 135.281 51.2611 134.781 50.8597 134.436C50.4584 134.081 49.8237 133.904 48.9557 133.904C48.6944 133.904 48.3957 133.927 48.0597 133.974C47.7237 134.021 47.4531 134.067 47.2477 134.114L46.6317 133.722L47.0097 129.004H52.0217V130.124H48.0597L47.8217 133.022C47.9804 132.994 48.1951 132.961 48.4657 132.924C48.7364 132.887 49.0351 132.868 49.3617 132.868ZM60.4254 131.342C60.4254 132.014 60.2341 132.551 59.8514 132.952C59.4781 133.344 58.9788 133.605 58.3534 133.736V133.792C59.1468 133.885 59.7394 134.137 60.1314 134.548C60.5328 134.959 60.7334 135.495 60.7334 136.158C60.7334 136.746 60.5981 137.264 60.3274 137.712C60.0568 138.16 59.6368 138.51 59.0674 138.762C58.5074 139.014 57.7841 139.14 56.8974 139.14C56.3748 139.14 55.8894 139.098 55.4414 139.014C54.9934 138.939 54.5641 138.799 54.1534 138.594V137.446C54.5734 137.661 55.0261 137.824 55.5114 137.936C55.9968 138.048 56.4634 138.104 56.9114 138.104C57.8074 138.104 58.4514 137.931 58.8434 137.586C59.2448 137.231 59.4454 136.746 59.4454 136.13C59.4454 135.505 59.1981 135.057 58.7034 134.786C58.2181 134.506 57.5321 134.366 56.6454 134.366H55.6794V133.316H56.6594C57.4808 133.316 58.1014 133.143 58.5214 132.798C58.9508 132.453 59.1654 131.995 59.1654 131.426C59.1654 130.941 59.0021 130.567 58.6754 130.306C58.3488 130.035 57.9054 129.9 57.3454 129.9C56.8041 129.9 56.3421 129.979 55.9594 130.138C55.5768 130.297 55.1988 130.497 54.8254 130.74L54.2094 129.9C54.5641 129.62 55.0028 129.377 55.5254 129.172C56.0574 128.967 56.6594 128.864 57.3314 128.864C58.3768 128.864 59.1514 129.097 59.6554 129.564C60.1688 130.031 60.4254 130.623 60.4254 131.342ZM68.4372 131.342C68.4372 132.014 68.2458 132.551 67.8632 132.952C67.4898 133.344 66.9905 133.605 66.3652 133.736V133.792C67.1585 133.885 67.7512 134.137 68.1432 134.548C68.5445 134.959 68.7452 135.495 68.7452 136.158C68.7452 136.746 68.6098 137.264 68.3392 137.712C68.0685 138.16 67.6485 138.51 67.0792 138.762C66.5192 139.014 65.7958 139.14 64.9092 139.14C64.3865 139.14 63.9012 139.098 63.4532 139.014C63.0052 138.939 62.5758 138.799 62.1652 138.594V137.446C62.5852 137.661 63.0378 137.824 63.5232 137.936C64.0085 138.048 64.4752 138.104 64.9232 138.104C65.8192 138.104 66.4632 137.931 66.8552 137.586C67.2565 137.231 67.4572 136.746 67.4572 136.13C67.4572 135.505 67.2098 135.057 66.7152 134.786C66.2298 134.506 65.5438 134.366 64.6572 134.366H63.6912V133.316H64.6712C65.4925 133.316 66.1132 133.143 66.5332 132.798C66.9625 132.453 67.1772 131.995 67.1772 131.426C67.1772 130.941 67.0138 130.567 66.6872 130.306C66.3605 130.035 65.9172 129.9 65.3572 129.9C64.8158 129.9 64.3538 129.979 63.9712 130.138C63.5885 130.297 63.2105 130.497 62.8372 130.74L62.2212 129.9C62.5758 129.62 63.0145 129.377 63.5372 129.172C64.0692 128.967 64.6712 128.864 65.3432 128.864C66.3885 128.864 67.1632 129.097 67.6672 129.564C68.1805 130.031 68.4372 130.623 68.4372 131.342ZM77.2749 136.732H75.8189V139H74.6289V136.732H69.8409V135.682L74.5449 128.948H75.8189V135.626H77.2749V136.732ZM74.6289 135.626V132.476C74.6289 131.991 74.6335 131.58 74.6429 131.244C74.6615 130.899 74.6802 130.572 74.6989 130.264H74.6429C74.5682 130.441 74.4749 130.633 74.3629 130.838C74.2509 131.043 74.1435 131.216 74.0409 131.356L71.0449 135.626H74.6289ZM81.4086 132.868C82.4259 132.868 83.2379 133.125 83.8446 133.638C84.4606 134.151 84.7686 134.875 84.7686 135.808C84.7686 136.844 84.4373 137.661 83.7746 138.258C83.1213 138.846 82.2066 139.14 81.0306 139.14C80.5079 139.14 80.0226 139.093 79.5746 139C79.1266 138.907 78.7486 138.771 78.4406 138.594V137.432C78.7766 137.637 79.1826 137.801 79.6586 137.922C80.1439 138.034 80.6059 138.09 81.0446 138.09C81.7819 138.09 82.3746 137.917 82.8226 137.572C83.2799 137.217 83.5086 136.671 83.5086 135.934C83.5086 135.281 83.3079 134.781 82.9066 134.436C82.5053 134.081 81.8706 133.904 81.0026 133.904C80.7413 133.904 80.4426 133.927 80.1066 133.974C79.7706 134.021 79.4999 134.067 79.2946 134.114L78.6786 133.722L79.0566 129.004H84.0686V130.124H80.1066L79.8686 133.022C80.0273 132.994 80.2419 132.961 80.5126 132.924C80.7833 132.887 81.0819 132.868 81.4086 132.868Z" fill="black"/>
<line x1="21.5" y1="155.5" x2="203.5" y2="155.5" stroke="#F1F1F1"/>
<rect width="182" height="44" transform="translate(21.5 156)" fill="white"/>
<path d="M44.78 183H38.172V181.978L40.79 179.332C41.2847 178.828 41.7047 178.38 42.05 177.988C42.4047 177.596 42.6707 177.213 42.848 176.84C43.0253 176.467 43.114 176.051 43.114 175.594C43.114 175.043 42.9507 174.628 42.624 174.348C42.2973 174.059 41.8727 173.914 41.35 173.914C40.8553 173.914 40.426 173.998 40.062 174.166C39.698 174.334 39.3247 174.567 38.942 174.866L38.284 174.04C38.676 173.713 39.124 173.438 39.628 173.214C40.1413 172.981 40.7153 172.864 41.35 172.864C42.2833 172.864 43.0207 173.102 43.562 173.578C44.1033 174.054 44.374 174.703 44.374 175.524C44.374 176.047 44.2667 176.537 44.052 176.994C43.8373 177.451 43.5387 177.904 43.156 178.352C42.7733 178.8 42.3253 179.271 41.812 179.766L39.726 181.824V181.88H44.78V183ZM52.4137 175.342C52.4137 176.014 52.2224 176.551 51.8397 176.952C51.4664 177.344 50.9671 177.605 50.3417 177.736V177.792C51.1351 177.885 51.7277 178.137 52.1197 178.548C52.5211 178.959 52.7217 179.495 52.7217 180.158C52.7217 180.746 52.5864 181.264 52.3157 181.712C52.0451 182.16 51.6251 182.51 51.0557 182.762C50.4957 183.014 49.7724 183.14 48.8857 183.14C48.3631 183.14 47.8777 183.098 47.4297 183.014C46.9817 182.939 46.5524 182.799 46.1417 182.594V181.446C46.5617 181.661 47.0144 181.824 47.4997 181.936C47.9851 182.048 48.4517 182.104 48.8997 182.104C49.7957 182.104 50.4397 181.931 50.8317 181.586C51.2331 181.231 51.4337 180.746 51.4337 180.13C51.4337 179.505 51.1864 179.057 50.6917 178.786C50.2064 178.506 49.5204 178.366 48.6337 178.366H47.6677V177.316H48.6477C49.4691 177.316 50.0897 177.143 50.5097 176.798C50.9391 176.453 51.1537 175.995 51.1537 175.426C51.1537 174.941 50.9904 174.567 50.6637 174.306C50.3371 174.035 49.8937 173.9 49.3337 173.9C48.7924 173.9 48.3304 173.979 47.9477 174.138C47.5651 174.297 47.1871 174.497 46.8137 174.74L46.1977 173.9C46.5524 173.62 46.9911 173.377 47.5137 173.172C48.0457 172.967 48.6477 172.864 49.3197 172.864C50.3651 172.864 51.1397 173.097 51.6437 173.564C52.1571 174.031 52.4137 174.623 52.4137 175.342ZM54.2934 178.73C54.2934 178.011 54.3541 177.307 54.4754 176.616C54.6061 175.916 54.8348 175.286 55.1614 174.726C55.4974 174.157 55.9641 173.704 56.5614 173.368C57.1588 173.032 57.9288 172.864 58.8714 172.864C59.0674 172.864 59.2821 172.873 59.5154 172.892C59.7581 172.911 59.9541 172.943 60.1034 172.99V174.04C59.9354 173.984 59.7441 173.942 59.5294 173.914C59.3148 173.886 59.1048 173.872 58.8994 173.872C58.2554 173.872 57.7188 173.979 57.2894 174.194C56.8601 174.409 56.5194 174.703 56.2674 175.076C56.0248 175.449 55.8474 175.879 55.7354 176.364C55.6234 176.849 55.5534 177.367 55.5254 177.918H55.6094C55.8241 177.591 56.1228 177.316 56.5054 177.092C56.8881 176.859 57.3781 176.742 57.9754 176.742C58.8434 176.742 59.5434 177.008 60.0754 177.54C60.6074 178.063 60.8734 178.809 60.8734 179.78C60.8734 180.825 60.5841 181.647 60.0054 182.244C59.4361 182.841 58.6661 183.14 57.6954 183.14C57.0608 183.14 56.4868 182.981 55.9734 182.664C55.4601 182.347 55.0494 181.861 54.7414 181.208C54.4428 180.555 54.2934 179.729 54.2934 178.73ZM57.6814 182.104C58.2694 182.104 58.7454 181.917 59.1094 181.544C59.4734 181.161 59.6554 180.573 59.6554 179.78C59.6554 179.145 59.4921 178.641 59.1654 178.268C58.8481 177.895 58.3674 177.708 57.7234 177.708C57.2848 177.708 56.9021 177.801 56.5754 177.988C56.2488 178.165 55.9921 178.399 55.8054 178.688C55.6281 178.968 55.5394 179.253 55.5394 179.542C55.5394 179.943 55.6188 180.345 55.7774 180.746C55.9361 181.138 56.1741 181.465 56.4914 181.726C56.8088 181.978 57.2054 182.104 57.6814 182.104ZM68.8152 177.274C68.8152 177.993 68.7498 178.702 68.6192 179.402C68.4978 180.093 68.2692 180.723 67.9332 181.292C67.6065 181.852 67.1398 182.3 66.5332 182.636C65.9358 182.972 65.1658 183.14 64.2232 183.14C64.0365 183.14 63.8172 183.126 63.5652 183.098C63.3132 183.079 63.1125 183.047 62.9632 183V181.95C63.3272 182.071 63.7378 182.132 64.1952 182.132C64.8485 182.132 65.3852 182.025 65.8052 181.81C66.2345 181.595 66.5752 181.306 66.8272 180.942C67.0792 180.569 67.2612 180.139 67.3732 179.654C67.4852 179.159 67.5505 178.641 67.5692 178.1H67.4852C67.2705 178.417 66.9718 178.693 66.5892 178.926C66.2065 179.15 65.7118 179.262 65.1052 179.262C64.2465 179.262 63.5512 179.001 63.0192 178.478C62.4965 177.946 62.2352 177.199 62.2352 176.238C62.2352 175.538 62.3658 174.936 62.6272 174.432C62.8885 173.928 63.2572 173.541 63.7332 173.27C64.2185 172.999 64.7832 172.864 65.4272 172.864C66.0618 172.864 66.6358 173.027 67.1492 173.354C67.6625 173.671 68.0685 174.157 68.3672 174.81C68.6658 175.454 68.8152 176.275 68.8152 177.274ZM65.4272 173.9C64.8485 173.9 64.3725 174.091 63.9992 174.474C63.6352 174.857 63.4532 175.44 63.4532 176.224C63.4532 176.868 63.6072 177.377 63.9152 177.75C64.2325 178.114 64.7178 178.296 65.3712 178.296C65.8192 178.296 66.2065 178.207 66.5332 178.03C66.8598 177.843 67.1118 177.61 67.2892 177.33C67.4758 177.05 67.5692 176.761 67.5692 176.462C67.5692 176.061 67.4898 175.664 67.3312 175.272C67.1725 174.88 66.9345 174.553 66.6172 174.292C66.2998 174.031 65.9032 173.9 65.4272 173.9ZM76.8269 183H70.2189V181.978L72.8369 179.332C73.3315 178.828 73.7515 178.38 74.0969 177.988C74.4515 177.596 74.7175 177.213 74.8949 176.84C75.0722 176.467 75.1609 176.051 75.1609 175.594C75.1609 175.043 74.9975 174.628 74.6709 174.348C74.3442 174.059 73.9195 173.914 73.3969 173.914C72.9022 173.914 72.4729 173.998 72.1089 174.166C71.7449 174.334 71.3715 174.567 70.9889 174.866L70.3309 174.04C70.7229 173.713 71.1709 173.438 71.6749 173.214C72.1882 172.981 72.7622 172.864 73.3969 172.864C74.3302 172.864 75.0675 173.102 75.6089 173.578C76.1502 174.054 76.4209 174.703 76.4209 175.524C76.4209 176.047 76.3135 176.537 76.0989 176.994C75.8842 177.451 75.5855 177.904 75.2029 178.352C74.8202 178.8 74.3722 179.271 73.8589 179.766L71.7729 181.824V181.88H76.8269V183ZM82.5286 183H81.3246V176.014C81.3246 175.613 81.3293 175.291 81.3386 175.048C81.3479 174.805 81.3619 174.553 81.3806 174.292C81.2313 174.441 81.0913 174.567 80.9606 174.67C80.8393 174.773 80.6899 174.903 80.5126 175.062L79.4486 175.93L78.8046 175.104L81.5066 173.004H82.5286V183Z" fill="black"/>
<line x1="21.5" y1="199.5" x2="203.5" y2="199.5" stroke="#F1F1F1"/>
<rect width="182" height="44" transform="translate(21.5 200)" fill="white"/>
<path d="M44.402 219.342C44.402 220.014 44.2107 220.551 43.828 220.952C43.4547 221.344 42.9553 221.605 42.33 221.736V221.792C43.1233 221.885 43.716 222.137 44.108 222.548C44.5093 222.959 44.71 223.495 44.71 224.158C44.71 224.746 44.5747 225.264 44.304 225.712C44.0333 226.16 43.6133 226.51 43.044 226.762C42.484 227.014 41.7607 227.14 40.874 227.14C40.3513 227.14 39.866 227.098 39.418 227.014C38.97 226.939 38.5407 226.799 38.13 226.594V225.446C38.55 225.661 39.0027 225.824 39.488 225.936C39.9733 226.048 40.44 226.104 40.888 226.104C41.784 226.104 42.428 225.931 42.82 225.586C43.2213 225.231 43.422 224.746 43.422 224.13C43.422 223.505 43.1747 223.057 42.68 222.786C42.1947 222.506 41.5087 222.366 40.622 222.366H39.656V221.316H40.636C41.4573 221.316 42.078 221.143 42.498 220.798C42.9273 220.453 43.142 219.995 43.142 219.426C43.142 218.941 42.9787 218.567 42.652 218.306C42.3253 218.035 41.882 217.9 41.322 217.9C40.7807 217.9 40.3187 217.979 39.936 218.138C39.5533 218.297 39.1753 218.497 38.802 218.74L38.186 217.9C38.5407 217.62 38.9793 217.377 39.502 217.172C40.034 216.967 40.636 216.864 41.308 216.864C42.3533 216.864 43.128 217.097 43.632 217.564C44.1453 218.031 44.402 218.623 44.402 219.342ZM53.2397 224.732H51.7837V227H50.5937V224.732H45.8057V223.682L50.5097 216.948H51.7837V223.626H53.2397V224.732ZM50.5937 223.626V220.476C50.5937 219.991 50.5984 219.58 50.6077 219.244C50.6264 218.899 50.6451 218.572 50.6637 218.264H50.6077C50.5331 218.441 50.4397 218.633 50.3277 218.838C50.2157 219.043 50.1084 219.216 50.0057 219.356L47.0097 223.626H50.5937ZM57.3734 220.868C58.3908 220.868 59.2028 221.125 59.8094 221.638C60.4254 222.151 60.7334 222.875 60.7334 223.808C60.7334 224.844 60.4021 225.661 59.7394 226.258C59.0861 226.846 58.1714 227.14 56.9954 227.14C56.4728 227.14 55.9874 227.093 55.5394 227C55.0914 226.907 54.7134 226.771 54.4054 226.594V225.432C54.7414 225.637 55.1474 225.801 55.6234 225.922C56.1088 226.034 56.5708 226.09 57.0094 226.09C57.7468 226.09 58.3394 225.917 58.7874 225.572C59.2448 225.217 59.4734 224.671 59.4734 223.934C59.4734 223.281 59.2728 222.781 58.8714 222.436C58.4701 222.081 57.8354 221.904 56.9674 221.904C56.7061 221.904 56.4074 221.927 56.0714 221.974C55.7354 222.021 55.4648 222.067 55.2594 222.114L54.6434 221.722L55.0214 217.004H60.0334V218.124H56.0714L55.8334 221.022C55.9921 220.994 56.2068 220.961 56.4774 220.924C56.7481 220.887 57.0468 220.868 57.3734 220.868ZM66.5052 227H65.3012V220.014C65.3012 219.613 65.3058 219.291 65.3152 219.048C65.3245 218.805 65.3385 218.553 65.3572 218.292C65.2078 218.441 65.0678 218.567 64.9372 218.67C64.8158 218.773 64.6665 218.903 64.4892 219.062L63.4252 219.93L62.7812 219.104L65.4832 217.004H66.5052V227ZM76.4489 219.342C76.4489 220.014 76.2575 220.551 75.8749 220.952C75.5015 221.344 75.0022 221.605 74.3769 221.736V221.792C75.1702 221.885 75.7629 222.137 76.1549 222.548C76.5562 222.959 76.7569 223.495 76.7569 224.158C76.7569 224.746 76.6215 225.264 76.3509 225.712C76.0802 226.16 75.6602 226.51 75.0909 226.762C74.5309 227.014 73.8075 227.14 72.9209 227.14C72.3982 227.14 71.9129 227.098 71.4649 227.014C71.0169 226.939 70.5875 226.799 70.1769 226.594V225.446C70.5969 225.661 71.0495 225.824 71.5349 225.936C72.0202 226.048 72.4869 226.104 72.9349 226.104C73.8309 226.104 74.4749 225.931 74.8669 225.586C75.2682 225.231 75.4689 224.746 75.4689 224.13C75.4689 223.505 75.2215 223.057 74.7269 222.786C74.2415 222.506 73.5555 222.366 72.6689 222.366H71.7029V221.316H72.6829C73.5042 221.316 74.1249 221.143 74.5449 220.798C74.9742 220.453 75.1889 219.995 75.1889 219.426C75.1889 218.941 75.0255 218.567 74.6989 218.306C74.3722 218.035 73.9289 217.9 73.3689 217.9C72.8275 217.9 72.3655 217.979 71.9829 218.138C71.6002 218.297 71.2222 218.497 70.8489 218.74L70.2329 217.9C70.5875 217.62 71.0262 217.377 71.5489 217.172C72.0809 216.967 72.6829 216.864 73.3549 216.864C74.4002 216.864 75.1749 217.097 75.6789 217.564C76.1922 218.031 76.4489 218.623 76.4489 219.342ZM81.4086 220.868C82.4259 220.868 83.2379 221.125 83.8446 221.638C84.4606 222.151 84.7686 222.875 84.7686 223.808C84.7686 224.844 84.4373 225.661 83.7746 226.258C83.1213 226.846 82.2066 227.14 81.0306 227.14C80.5079 227.14 80.0226 227.093 79.5746 227C79.1266 226.907 78.7486 226.771 78.4406 226.594V225.432C78.7766 225.637 79.1826 225.801 79.6586 225.922C80.1439 226.034 80.6059 226.09 81.0446 226.09C81.7819 226.09 82.3746 225.917 82.8226 225.572C83.2799 225.217 83.5086 224.671 83.5086 223.934C83.5086 223.281 83.3079 222.781 82.9066 222.436C82.5053 222.081 81.8706 221.904 81.0026 221.904C80.7413 221.904 80.4426 221.927 80.1066 221.974C79.7706 222.021 79.4999 222.067 79.2946 222.114L78.6786 221.722L79.0566 217.004H84.0686V218.124H80.1066L79.8686 221.022C80.0273 220.994 80.2419 220.961 80.5126 220.924C80.7833 220.887 81.0819 220.868 81.4086 220.868Z" fill="black"/>
<line x1="21.5" y1="243.5" x2="203.5" y2="243.5" stroke="#F1F1F1"/>
<rect width="182" height="44" transform="translate(21.5 244)" fill="white"/>
<path d="M41.35 264.868C42.3673 264.868 43.1793 265.125 43.786 265.638C44.402 266.151 44.71 266.875 44.71 267.808C44.71 268.844 44.3787 269.661 43.716 270.258C43.0627 270.846 42.148 271.14 40.972 271.14C40.4493 271.14 39.964 271.093 39.516 271C39.068 270.907 38.69 270.771 38.382 270.594V269.432C38.718 269.637 39.124 269.801 39.6 269.922C40.0853 270.034 40.5473 270.09 40.986 270.09C41.7233 270.09 42.316 269.917 42.764 269.572C43.2213 269.217 43.45 268.671 43.45 267.934C43.45 267.281 43.2493 266.781 42.848 266.436C42.4467 266.081 41.812 265.904 40.944 265.904C40.6827 265.904 40.384 265.927 40.048 265.974C39.712 266.021 39.4413 266.067 39.236 266.114L38.62 265.722L38.998 261.004H44.01V262.124H40.048L39.81 265.022C39.9687 264.994 40.1833 264.961 40.454 264.924C40.7247 264.887 41.0233 264.868 41.35 264.868ZM46.2817 266.73C46.2817 266.011 46.3424 265.307 46.4637 264.616C46.5944 263.916 46.8231 263.286 47.1497 262.726C47.4857 262.157 47.9524 261.704 48.5497 261.368C49.1471 261.032 49.9171 260.864 50.8597 260.864C51.0557 260.864 51.2704 260.873 51.5037 260.892C51.7464 260.911 51.9424 260.943 52.0917 260.99V262.04C51.9237 261.984 51.7324 261.942 51.5177 261.914C51.3031 261.886 51.0931 261.872 50.8877 261.872C50.2437 261.872 49.7071 261.979 49.2777 262.194C48.8484 262.409 48.5077 262.703 48.2557 263.076C48.0131 263.449 47.8357 263.879 47.7237 264.364C47.6117 264.849 47.5417 265.367 47.5137 265.918H47.5977C47.8124 265.591 48.1111 265.316 48.4937 265.092C48.8764 264.859 49.3664 264.742 49.9637 264.742C50.8317 264.742 51.5317 265.008 52.0637 265.54C52.5957 266.063 52.8617 266.809 52.8617 267.78C52.8617 268.825 52.5724 269.647 51.9937 270.244C51.4244 270.841 50.6544 271.14 49.6837 271.14C49.0491 271.14 48.4751 270.981 47.9617 270.664C47.4484 270.347 47.0377 269.861 46.7297 269.208C46.4311 268.555 46.2817 267.729 46.2817 266.73ZM49.6697 270.104C50.2577 270.104 50.7337 269.917 51.0977 269.544C51.4617 269.161 51.6437 268.573 51.6437 267.78C51.6437 267.145 51.4804 266.641 51.1537 266.268C50.8364 265.895 50.3557 265.708 49.7117 265.708C49.2731 265.708 48.8904 265.801 48.5637 265.988C48.2371 266.165 47.9804 266.399 47.7937 266.688C47.6164 266.968 47.5277 267.253 47.5277 267.542C47.5277 267.943 47.6071 268.345 47.7657 268.746C47.9244 269.138 48.1624 269.465 48.4797 269.726C48.7971 269.978 49.1937 270.104 49.6697 270.104ZM60.8034 271H54.1954V269.978L56.8134 267.332C57.3081 266.828 57.7281 266.38 58.0734 265.988C58.4281 265.596 58.6941 265.213 58.8714 264.84C59.0488 264.467 59.1374 264.051 59.1374 263.594C59.1374 263.043 58.9741 262.628 58.6474 262.348C58.3208 262.059 57.8961 261.914 57.3734 261.914C56.8788 261.914 56.4494 261.998 56.0854 262.166C55.7214 262.334 55.3481 262.567 54.9654 262.866L54.3074 262.04C54.6994 261.713 55.1474 261.438 55.6514 261.214C56.1648 260.981 56.7388 260.864 57.3734 260.864C58.3068 260.864 59.0441 261.102 59.5854 261.578C60.1268 262.054 60.3974 262.703 60.3974 263.524C60.3974 264.047 60.2901 264.537 60.0754 264.994C59.8608 265.451 59.5621 265.904 59.1794 266.352C58.7968 266.8 58.3488 267.271 57.8354 267.766L55.7494 269.824V269.88H60.8034V271ZM62.3052 266.73C62.3052 266.011 62.3658 265.307 62.4872 264.616C62.6178 263.916 62.8465 263.286 63.1732 262.726C63.5092 262.157 63.9758 261.704 64.5732 261.368C65.1705 261.032 65.9405 260.864 66.8832 260.864C67.0792 260.864 67.2938 260.873 67.5272 260.892C67.7698 260.911 67.9658 260.943 68.1152 260.99V262.04C67.9472 261.984 67.7558 261.942 67.5412 261.914C67.3265 261.886 67.1165 261.872 66.9112 261.872C66.2672 261.872 65.7305 261.979 65.3012 262.194C64.8718 262.409 64.5312 262.703 64.2792 263.076C64.0365 263.449 63.8592 263.879 63.7472 264.364C63.6352 264.849 63.5652 265.367 63.5372 265.918H63.6212C63.8358 265.591 64.1345 265.316 64.5172 265.092C64.8998 264.859 65.3898 264.742 65.9872 264.742C66.8552 264.742 67.5552 265.008 68.0872 265.54C68.6192 266.063 68.8852 266.809 68.8852 267.78C68.8852 268.825 68.5958 269.647 68.0172 270.244C67.4478 270.841 66.6778 271.14 65.7072 271.14C65.0725 271.14 64.4985 270.981 63.9852 270.664C63.4718 270.347 63.0612 269.861 62.7532 269.208C62.4545 268.555 62.3052 267.729 62.3052 266.73ZM65.6932 270.104C66.2812 270.104 66.7572 269.917 67.1212 269.544C67.4852 269.161 67.6672 268.573 67.6672 267.78C67.6672 267.145 67.5038 266.641 67.1772 266.268C66.8598 265.895 66.3792 265.708 65.7352 265.708C65.2965 265.708 64.9138 265.801 64.5872 265.988C64.2605 266.165 64.0038 266.399 63.8172 266.688C63.6398 266.968 63.5512 267.253 63.5512 267.542C63.5512 267.943 63.6305 268.345 63.7892 268.746C63.9478 269.138 64.1858 269.465 64.5032 269.726C64.8205 269.978 65.2172 270.104 65.6932 270.104ZM76.4489 263.342C76.4489 264.014 76.2575 264.551 75.8749 264.952C75.5015 265.344 75.0022 265.605 74.3769 265.736V265.792C75.1702 265.885 75.7629 266.137 76.1549 266.548C76.5562 266.959 76.7569 267.495 76.7569 268.158C76.7569 268.746 76.6215 269.264 76.3509 269.712C76.0802 270.16 75.6602 270.51 75.0909 270.762C74.5309 271.014 73.8075 271.14 72.9209 271.14C72.3982 271.14 71.9129 271.098 71.4649 271.014C71.0169 270.939 70.5875 270.799 70.1769 270.594V269.446C70.5969 269.661 71.0495 269.824 71.5349 269.936C72.0202 270.048 72.4869 270.104 72.9349 270.104C73.8309 270.104 74.4749 269.931 74.8669 269.586C75.2682 269.231 75.4689 268.746 75.4689 268.13C75.4689 267.505 75.2215 267.057 74.7269 266.786C74.2415 266.506 73.5555 266.366 72.6689 266.366H71.7029V265.316H72.6829C73.5042 265.316 74.1249 265.143 74.5449 264.798C74.9742 264.453 75.1889 263.995 75.1889 263.426C75.1889 262.941 75.0255 262.567 74.6989 262.306C74.3722 262.035 73.9289 261.9 73.3689 261.9C72.8275 261.9 72.3655 261.979 71.9829 262.138C71.6002 262.297 71.2222 262.497 70.8489 262.74L70.2329 261.9C70.5875 261.62 71.0262 261.377 71.5489 261.172C72.0809 260.967 72.6829 260.864 73.3549 260.864C74.4002 260.864 75.1749 261.097 75.6789 261.564C76.1922 262.031 76.4489 262.623 76.4489 263.342ZM82.5286 271H81.3246V264.014C81.3246 263.613 81.3293 263.291 81.3386 263.048C81.3479 262.805 81.3619 262.553 81.3806 262.292C81.2313 262.441 81.0913 262.567 80.9606 262.67C80.8393 262.773 80.6899 262.903 80.5126 263.062L79.4486 263.93L78.8046 263.104L81.5066 261.004H82.5286V271Z" fill="black"/>
<line x1="21.5" y1="287.5" x2="203.5" y2="287.5" stroke="#F1F1F1"/>
<rect width="187" height="44" transform="translate(203.5 24)" fill="white"/>
<path d="M220.802 51V41.004H222.594V49.488H226.766V51H220.802ZM231.355 43.272C232.335 43.272 233.077 43.4867 233.581 43.916C234.095 44.3453 234.351 45.008 234.351 45.904V51H233.105L232.755 49.95H232.699C232.373 50.3607 232.027 50.664 231.663 50.86C231.299 51.0467 230.805 51.14 230.179 51.14C229.498 51.14 228.933 50.9487 228.485 50.566C228.037 50.1833 227.813 49.5907 227.813 48.788C227.813 48.004 228.098 47.416 228.667 47.024C229.246 46.632 230.119 46.4127 231.285 46.366L232.601 46.324V45.946C232.601 45.4607 232.485 45.1153 232.251 44.91C232.018 44.7047 231.691 44.602 231.271 44.602C230.889 44.602 230.52 44.658 230.165 44.77C229.82 44.8727 229.475 45.0033 229.129 45.162L228.569 43.93C228.943 43.734 229.367 43.5753 229.843 43.454C230.329 43.3327 230.833 43.272 231.355 43.272ZM232.601 47.416L231.677 47.444C230.903 47.472 230.366 47.6073 230.067 47.85C229.769 48.0833 229.619 48.4007 229.619 48.802C229.619 49.166 229.722 49.4273 229.927 49.586C230.142 49.7353 230.422 49.81 230.767 49.81C231.281 49.81 231.715 49.6653 232.069 49.376C232.424 49.0773 232.601 48.6387 232.601 48.06V47.416ZM241.728 48.802C241.728 49.5673 241.452 50.1507 240.902 50.552C240.36 50.944 239.581 51.14 238.564 51.14C238.032 51.14 237.574 51.1027 237.192 51.028C236.818 50.9533 236.454 50.8367 236.1 50.678V49.18C236.473 49.3573 236.884 49.5067 237.332 49.628C237.789 49.7493 238.218 49.81 238.62 49.81C239.105 49.81 239.455 49.7353 239.67 49.586C239.884 49.4367 239.992 49.236 239.992 48.984C239.992 48.8347 239.95 48.704 239.866 48.592C239.782 48.4707 239.618 48.34 239.376 48.2C239.133 48.06 238.764 47.8873 238.27 47.682C237.784 47.486 237.378 47.29 237.052 47.094C236.734 46.898 236.492 46.6647 236.324 46.394C236.165 46.1233 236.086 45.7733 236.086 45.344C236.086 44.6627 236.356 44.1493 236.898 43.804C237.439 43.4493 238.153 43.272 239.04 43.272C239.506 43.272 239.945 43.3187 240.356 43.412C240.776 43.5053 241.196 43.6453 241.616 43.832L241.056 45.134C240.701 44.9847 240.356 44.8587 240.02 44.756C239.684 44.6533 239.338 44.602 238.984 44.602C238.209 44.602 237.822 44.8213 237.822 45.26C237.822 45.4187 237.868 45.554 237.962 45.666C238.064 45.778 238.237 45.8993 238.48 46.03C238.732 46.1513 239.086 46.3007 239.544 46.478C239.992 46.6553 240.379 46.842 240.706 47.038C241.032 47.2247 241.284 47.458 241.462 47.738C241.639 48.0087 241.728 48.3633 241.728 48.802ZM246.365 49.726C246.58 49.726 246.79 49.7073 246.995 49.67C247.21 49.6233 247.406 49.572 247.583 49.516V50.832C247.396 50.9253 247.154 51 246.855 51.056C246.556 51.112 246.244 51.14 245.917 51.14C245.478 51.14 245.082 51.07 244.727 50.93C244.382 50.79 244.106 50.5427 243.901 50.188C243.696 49.8333 243.593 49.334 243.593 48.69V44.742H242.571V43.972L243.691 43.356L244.251 41.746H245.357V43.412H247.513V44.742H245.357V48.676C245.357 49.0307 245.45 49.2967 245.637 49.474C245.833 49.642 246.076 49.726 246.365 49.726ZM257.215 51L254.471 42.81H254.415C254.434 42.9967 254.448 43.2627 254.457 43.608C254.476 43.944 254.49 44.3127 254.499 44.714C254.518 45.106 254.527 45.4747 254.527 45.82V51H252.917V41.004H255.409L258.041 48.858H258.097L260.841 41.004H263.333V51H261.625V45.736C261.625 45.4187 261.63 45.0733 261.639 44.7C261.658 44.3173 261.672 43.958 261.681 43.622C261.7 43.2767 261.714 43.0107 261.723 42.824H261.667L258.811 51H257.215ZM272.527 47.192C272.527 48.452 272.201 49.4273 271.547 50.118C270.894 50.7993 270.007 51.14 268.887 51.14C268.197 51.14 267.581 50.986 267.039 50.678C266.498 50.37 266.073 49.922 265.765 49.334C265.457 48.746 265.303 48.032 265.303 47.192C265.303 45.932 265.625 44.966 266.269 44.294C266.923 43.6127 267.809 43.272 268.929 43.272C269.629 43.272 270.25 43.426 270.791 43.734C271.333 44.0327 271.757 44.476 272.065 45.064C272.373 45.6427 272.527 46.352 272.527 47.192ZM267.109 47.192C267.109 47.9947 267.249 48.6153 267.529 49.054C267.819 49.4927 268.281 49.712 268.915 49.712C269.541 49.712 269.998 49.4927 270.287 49.054C270.577 48.6153 270.721 47.9947 270.721 47.192C270.721 46.3893 270.577 45.7733 270.287 45.344C269.998 44.9147 269.536 44.7 268.901 44.7C268.267 44.7 267.809 44.9147 267.529 45.344C267.249 45.7733 267.109 46.3893 267.109 47.192ZM276.857 51.14C275.979 51.14 275.265 50.8133 274.715 50.16C274.173 49.4973 273.903 48.5173 273.903 47.22C273.903 45.9133 274.178 44.9287 274.729 44.266C275.279 43.6033 276.003 43.272 276.899 43.272C277.459 43.272 277.916 43.3793 278.271 43.594C278.635 43.8087 278.924 44.07 279.139 44.378H279.223C279.195 44.2473 279.167 44.0513 279.139 43.79C279.111 43.5193 279.097 43.2627 279.097 43.02V40.36H280.861V51H279.489L279.167 50.006H279.097C278.882 50.3233 278.597 50.594 278.243 50.818C277.888 51.0327 277.426 51.14 276.857 51.14ZM277.389 49.712C278.042 49.712 278.499 49.5253 278.761 49.152C279.031 48.7787 279.171 48.214 279.181 47.458V47.234C279.181 46.422 279.05 45.8013 278.789 45.372C278.537 44.9333 278.061 44.714 277.361 44.714C276.819 44.714 276.404 44.938 276.115 45.386C275.835 45.8247 275.695 46.4453 275.695 47.248C275.695 48.0507 275.839 48.662 276.129 49.082C276.418 49.502 276.838 49.712 277.389 49.712ZM283.996 40.486C284.258 40.486 284.486 40.556 284.682 40.696C284.878 40.8267 284.976 41.0647 284.976 41.41C284.976 41.7553 284.878 41.998 284.682 42.138C284.486 42.278 284.258 42.348 283.996 42.348C283.726 42.348 283.492 42.278 283.296 42.138C283.11 41.998 283.016 41.7553 283.016 41.41C283.016 41.0647 283.11 40.8267 283.296 40.696C283.492 40.556 283.726 40.486 283.996 40.486ZM284.878 43.412V51H283.114V43.412H284.878ZM291.068 44.742H289.234V51H287.47V44.742H286.252V43.902L287.47 43.398V42.88C287.47 41.9093 287.699 41.2373 288.156 40.864C288.623 40.4813 289.257 40.29 290.06 40.29C290.424 40.29 290.755 40.3227 291.054 40.388C291.362 40.444 291.614 40.5093 291.81 40.584L291.362 41.9C291.203 41.8533 291.026 41.8113 290.83 41.774C290.643 41.7273 290.438 41.704 290.214 41.704C289.869 41.704 289.617 41.8113 289.458 42.026C289.309 42.2313 289.234 42.53 289.234 42.922V43.412H291.068V44.742ZM293.211 40.486C293.473 40.486 293.701 40.556 293.897 40.696C294.093 40.8267 294.191 41.0647 294.191 41.41C294.191 41.7553 294.093 41.998 293.897 42.138C293.701 42.278 293.473 42.348 293.211 42.348C292.941 42.348 292.707 42.278 292.511 42.138C292.325 41.998 292.231 41.7553 292.231 41.41C292.231 41.0647 292.325 40.8267 292.511 40.696C292.707 40.556 292.941 40.486 293.211 40.486ZM294.093 43.412V51H292.329V43.412H294.093ZM299.401 43.272C300.418 43.272 301.221 43.5753 301.809 44.182C302.406 44.7887 302.705 45.6333 302.705 46.716V47.612H297.693C297.712 48.3027 297.903 48.8393 298.267 49.222C298.631 49.5953 299.135 49.782 299.779 49.782C300.264 49.782 300.703 49.7353 301.095 49.642C301.487 49.5393 301.888 49.3947 302.299 49.208V50.622C301.926 50.7993 301.538 50.93 301.137 51.014C300.736 51.098 300.255 51.14 299.695 51.14C298.948 51.14 298.29 51 297.721 50.72C297.152 50.4307 296.704 50.0013 296.377 49.432C296.06 48.8533 295.901 48.13 295.901 47.262C295.901 45.9647 296.218 44.9753 296.853 44.294C297.497 43.6127 298.346 43.272 299.401 43.272ZM299.401 44.574C298.925 44.574 298.538 44.728 298.239 45.036C297.95 45.3347 297.782 45.7827 297.735 46.38H300.997C300.988 45.8573 300.852 45.428 300.591 45.092C300.339 44.7467 299.942 44.574 299.401 44.574ZM306.99 51.14C306.112 51.14 305.398 50.8133 304.848 50.16C304.306 49.4973 304.036 48.5173 304.036 47.22C304.036 45.9133 304.311 44.9287 304.862 44.266C305.412 43.6033 306.136 43.272 307.032 43.272C307.592 43.272 308.049 43.3793 308.404 43.594C308.768 43.8087 309.057 44.07 309.272 44.378H309.356C309.328 44.2473 309.3 44.0513 309.272 43.79C309.244 43.5193 309.23 43.2627 309.23 43.02V40.36H310.994V51H309.622L309.3 50.006H309.23C309.015 50.3233 308.73 50.594 308.376 50.818C308.021 51.0327 307.559 51.14 306.99 51.14ZM307.522 49.712C308.175 49.712 308.632 49.5253 308.894 49.152C309.164 48.7787 309.304 48.214 309.314 47.458V47.234C309.314 46.422 309.183 45.8013 308.922 45.372C308.67 44.9333 308.194 44.714 307.494 44.714C306.952 44.714 306.537 44.938 306.248 45.386C305.968 45.8247 305.828 46.4453 305.828 47.248C305.828 48.0507 305.972 48.662 306.262 49.082C306.551 49.502 306.971 49.712 307.522 49.712Z" fill="black"/>
<line x1="203.5" y1="24.5" x2="390.5" y2="24.5" stroke="#C9C9C9"/>
<line x1="203.5" y1="67.5" x2="390.5" y2="67.5" stroke="#C9C9C9"/>
<rect width="187" height="44" transform="translate(203.5 68)" fill="white"/>
<path d="M226.822 89.988C226.822 91.0707 226.71 91.9947 226.486 92.76C226.262 93.5253 225.903 94.1133 225.408 94.524C224.923 94.9347 224.283 95.14 223.49 95.14C222.361 95.14 221.525 94.6873 220.984 93.782C220.452 92.8673 220.186 91.6027 220.186 89.988C220.186 88.9053 220.293 87.9813 220.508 87.216C220.732 86.4507 221.087 85.8673 221.572 85.466C222.057 85.0553 222.697 84.85 223.49 84.85C224.61 84.85 225.445 85.3027 225.996 86.208C226.547 87.104 226.822 88.364 226.822 89.988ZM221.418 89.988C221.418 91.36 221.572 92.3867 221.88 93.068C222.197 93.7493 222.734 94.09 223.49 94.09C224.237 94.09 224.769 93.754 225.086 93.082C225.413 92.4007 225.576 91.3693 225.576 89.988C225.576 88.6253 225.413 87.6033 225.086 86.922C224.769 86.2407 224.237 85.9 223.49 85.9C222.734 85.9 222.197 86.2407 221.88 86.922C221.572 87.6033 221.418 88.6253 221.418 89.988ZM232.482 95H231.278V88.014C231.278 87.6127 231.282 87.2907 231.292 87.048C231.301 86.8053 231.315 86.5533 231.334 86.292C231.184 86.4413 231.044 86.5673 230.914 86.67C230.792 86.7727 230.643 86.9033 230.466 87.062L229.402 87.93L228.758 87.104L231.46 85.004H232.482V95ZM240.591 85.004L236.867 95H235.663L239.387 85.004H240.591ZM245.702 95H244.498V88.014C244.498 87.6127 244.503 87.2907 244.512 87.048C244.522 86.8053 244.536 86.5533 244.554 86.292C244.405 86.4413 244.265 86.5673 244.134 86.67C244.013 86.7727 243.864 86.9033 243.686 87.062L242.622 87.93L241.978 87.104L244.68 85.004H245.702V95ZM255.646 87.342C255.646 88.014 255.455 88.5507 255.072 88.952C254.699 89.344 254.199 89.6053 253.574 89.736V89.792C254.367 89.8853 254.96 90.1373 255.352 90.548C255.753 90.9587 255.954 91.4953 255.954 92.158C255.954 92.746 255.819 93.264 255.548 93.712C255.277 94.16 254.857 94.51 254.288 94.762C253.728 95.014 253.005 95.14 252.118 95.14C251.595 95.14 251.11 95.098 250.662 95.014C250.214 94.9393 249.785 94.7993 249.374 94.594V93.446C249.794 93.6607 250.247 93.824 250.732 93.936C251.217 94.048 251.684 94.104 252.132 94.104C253.028 94.104 253.672 93.9313 254.064 93.586C254.465 93.2313 254.666 92.746 254.666 92.13C254.666 91.5047 254.419 91.0567 253.924 90.786C253.439 90.506 252.753 90.366 251.866 90.366H250.9V89.316H251.88C252.701 89.316 253.322 89.1433 253.742 88.798C254.171 88.4527 254.386 87.9953 254.386 87.426C254.386 86.9407 254.223 86.5673 253.896 86.306C253.569 86.0353 253.126 85.9 252.566 85.9C252.025 85.9 251.563 85.9793 251.18 86.138C250.797 86.2967 250.419 86.4973 250.046 86.74L249.43 85.9C249.785 85.62 250.223 85.3773 250.746 85.172C251.278 84.9667 251.88 84.864 252.552 84.864C253.597 84.864 254.372 85.0973 254.876 85.564C255.389 86.0307 255.646 86.6233 255.646 87.342ZM261.824 85.004L258.1 95H256.896L260.62 85.004H261.824ZM269.245 95H262.637V93.978L265.255 91.332C265.75 90.828 266.17 90.38 266.515 89.988C266.87 89.596 267.136 89.2133 267.313 88.84C267.49 88.4667 267.579 88.0513 267.579 87.594C267.579 87.0433 267.416 86.628 267.089 86.348C266.762 86.0587 266.338 85.914 265.815 85.914C265.32 85.914 264.891 85.998 264.527 86.166C264.163 86.334 263.79 86.5673 263.407 86.866L262.749 86.04C263.141 85.7133 263.589 85.438 264.093 85.214C264.606 84.9807 265.18 84.864 265.815 84.864C266.748 84.864 267.486 85.102 268.027 85.578C268.568 86.054 268.839 86.7027 268.839 87.524C268.839 88.0467 268.732 88.5367 268.517 88.994C268.302 89.4513 268.004 89.904 267.621 90.352C267.238 90.8 266.79 91.2713 266.277 91.766L264.191 93.824V93.88H269.245V95ZM277.299 89.988C277.299 91.0707 277.187 91.9947 276.963 92.76C276.739 93.5253 276.379 94.1133 275.885 94.524C275.399 94.9347 274.76 95.14 273.967 95.14C272.837 95.14 272.002 94.6873 271.461 93.782C270.929 92.8673 270.663 91.6027 270.663 89.988C270.663 88.9053 270.77 87.9813 270.985 87.216C271.209 86.4507 271.563 85.8673 272.049 85.466C272.534 85.0553 273.173 84.85 273.967 84.85C275.087 84.85 275.922 85.3027 276.473 86.208C277.023 87.104 277.299 88.364 277.299 89.988ZM271.895 89.988C271.895 91.36 272.049 92.3867 272.357 93.068C272.674 93.7493 273.211 94.09 273.967 94.09C274.713 94.09 275.245 93.754 275.563 93.082C275.889 92.4007 276.053 91.3693 276.053 89.988C276.053 88.6253 275.889 87.6033 275.563 86.922C275.245 86.2407 274.713 85.9 273.967 85.9C273.211 85.9 272.674 86.2407 272.357 86.922C272.049 87.6033 271.895 88.6253 271.895 89.988ZM285.268 95H278.66V93.978L281.278 91.332C281.773 90.828 282.193 90.38 282.538 89.988C282.893 89.596 283.159 89.2133 283.336 88.84C283.514 88.4667 283.602 88.0513 283.602 87.594C283.602 87.0433 283.439 86.628 283.112 86.348C282.786 86.0587 282.361 85.914 281.838 85.914C281.344 85.914 280.914 85.998 280.55 86.166C280.186 86.334 279.813 86.5673 279.43 86.866L278.772 86.04C279.164 85.7133 279.612 85.438 280.116 85.214C280.63 84.9807 281.204 84.864 281.838 84.864C282.772 84.864 283.509 85.102 284.05 85.578C284.592 86.054 284.862 86.7027 284.862 87.524C284.862 88.0467 284.755 88.5367 284.54 88.994C284.326 89.4513 284.027 89.904 283.644 90.352C283.262 90.8 282.814 91.2713 282.3 91.766L280.214 93.824V93.88H285.268V95ZM293.28 95H286.672V93.978L289.29 91.332C289.785 90.828 290.205 90.38 290.55 89.988C290.905 89.596 291.171 89.2133 291.348 88.84C291.525 88.4667 291.614 88.0513 291.614 87.594C291.614 87.0433 291.451 86.628 291.124 86.348C290.797 86.0587 290.373 85.914 289.85 85.914C289.355 85.914 288.926 85.998 288.562 86.166C288.198 86.334 287.825 86.5673 287.442 86.866L286.784 86.04C287.176 85.7133 287.624 85.438 288.128 85.214C288.641 84.9807 289.215 84.864 289.85 84.864C290.783 84.864 291.521 85.102 292.062 85.578C292.603 86.054 292.874 86.7027 292.874 87.524C292.874 88.0467 292.767 88.5367 292.552 88.994C292.337 89.4513 292.039 89.904 291.656 90.352C291.273 90.8 290.825 91.2713 290.312 91.766L288.226 93.824V93.88H293.28V95Z" fill="#1B77AF"/>
<line x1="203.5" y1="111.5" x2="390.5" y2="111.5" stroke="#F1F1F1"/>
<rect width="187" height="44" transform="translate(203.5 112)" fill="white"/>
<path d="M226.822 133.988C226.822 135.071 226.71 135.995 226.486 136.76C226.262 137.525 225.903 138.113 225.408 138.524C224.923 138.935 224.283 139.14 223.49 139.14C222.361 139.14 221.525 138.687 220.984 137.782C220.452 136.867 220.186 135.603 220.186 133.988C220.186 132.905 220.293 131.981 220.508 131.216C220.732 130.451 221.087 129.867 221.572 129.466C222.057 129.055 222.697 128.85 223.49 128.85C224.61 128.85 225.445 129.303 225.996 130.208C226.547 131.104 226.822 132.364 226.822 133.988ZM221.418 133.988C221.418 135.36 221.572 136.387 221.88 137.068C222.197 137.749 222.734 138.09 223.49 138.09C224.237 138.09 224.769 137.754 225.086 137.082C225.413 136.401 225.576 135.369 225.576 133.988C225.576 132.625 225.413 131.603 225.086 130.922C224.769 130.241 224.237 129.9 223.49 129.9C222.734 129.9 222.197 130.241 221.88 130.922C221.572 131.603 221.418 132.625 221.418 133.988ZM234.792 139H228.184V137.978L230.802 135.332C231.296 134.828 231.716 134.38 232.062 133.988C232.416 133.596 232.682 133.213 232.86 132.84C233.037 132.467 233.126 132.051 233.126 131.594C233.126 131.043 232.962 130.628 232.636 130.348C232.309 130.059 231.884 129.914 231.362 129.914C230.867 129.914 230.438 129.998 230.074 130.166C229.71 130.334 229.336 130.567 228.954 130.866L228.296 130.04C228.688 129.713 229.136 129.438 229.64 129.214C230.153 128.981 230.727 128.864 231.362 128.864C232.295 128.864 233.032 129.102 233.574 129.578C234.115 130.054 234.386 130.703 234.386 131.524C234.386 132.047 234.278 132.537 234.064 132.994C233.849 133.451 233.55 133.904 233.168 134.352C232.785 134.8 232.337 135.271 231.824 135.766L229.738 137.824V137.88H234.792V139ZM240.591 129.004L236.867 139H235.663L239.387 129.004H240.591ZM248.054 133.988C248.054 135.071 247.942 135.995 247.718 136.76C247.494 137.525 247.135 138.113 246.64 138.524C246.155 138.935 245.516 139.14 244.722 139.14C243.593 139.14 242.758 138.687 242.216 137.782C241.684 136.867 241.418 135.603 241.418 133.988C241.418 132.905 241.526 131.981 241.74 131.216C241.964 130.451 242.319 129.867 242.804 129.466C243.29 129.055 243.929 128.85 244.722 128.85C245.842 128.85 246.678 129.303 247.228 130.208C247.779 131.104 248.054 132.364 248.054 133.988ZM242.65 133.988C242.65 135.36 242.804 136.387 243.112 137.068C243.43 137.749 243.966 138.09 244.722 138.09C245.469 138.09 246.001 137.754 246.318 137.082C246.645 136.401 246.808 135.369 246.808 133.988C246.808 132.625 246.645 131.603 246.318 130.922C246.001 130.241 245.469 129.9 244.722 129.9C243.966 129.9 243.43 130.241 243.112 130.922C242.804 131.603 242.65 132.625 242.65 133.988ZM252.594 132.868C253.611 132.868 254.423 133.125 255.03 133.638C255.646 134.151 255.954 134.875 255.954 135.808C255.954 136.844 255.623 137.661 254.96 138.258C254.307 138.846 253.392 139.14 252.216 139.14C251.693 139.14 251.208 139.093 250.76 139C250.312 138.907 249.934 138.771 249.626 138.594V137.432C249.962 137.637 250.368 137.801 250.844 137.922C251.329 138.034 251.791 138.09 252.23 138.09C252.967 138.09 253.56 137.917 254.008 137.572C254.465 137.217 254.694 136.671 254.694 135.934C254.694 135.281 254.493 134.781 254.092 134.436C253.691 134.081 253.056 133.904 252.188 133.904C251.927 133.904 251.628 133.927 251.292 133.974C250.956 134.021 250.685 134.067 250.48 134.114L249.864 133.722L250.242 129.004H255.254V130.124H251.292L251.054 133.022C251.213 132.994 251.427 132.961 251.698 132.924C251.969 132.887 252.267 132.868 252.594 132.868ZM261.824 129.004L258.1 139H256.896L260.62 129.004H261.824ZM269.245 139H262.637V137.978L265.255 135.332C265.75 134.828 266.17 134.38 266.515 133.988C266.87 133.596 267.136 133.213 267.313 132.84C267.49 132.467 267.579 132.051 267.579 131.594C267.579 131.043 267.416 130.628 267.089 130.348C266.762 130.059 266.338 129.914 265.815 129.914C265.32 129.914 264.891 129.998 264.527 130.166C264.163 130.334 263.79 130.567 263.407 130.866L262.749 130.04C263.141 129.713 263.589 129.438 264.093 129.214C264.606 128.981 265.18 128.864 265.815 128.864C266.748 128.864 267.486 129.102 268.027 129.578C268.568 130.054 268.839 130.703 268.839 131.524C268.839 132.047 268.732 132.537 268.517 132.994C268.302 133.451 268.004 133.904 267.621 134.352C267.238 134.8 266.79 135.271 266.277 135.766L264.191 137.824V137.88H269.245V139ZM277.299 133.988C277.299 135.071 277.187 135.995 276.963 136.76C276.739 137.525 276.379 138.113 275.885 138.524C275.399 138.935 274.76 139.14 273.967 139.14C272.837 139.14 272.002 138.687 271.461 137.782C270.929 136.867 270.663 135.603 270.663 133.988C270.663 132.905 270.77 131.981 270.985 131.216C271.209 130.451 271.563 129.867 272.049 129.466C272.534 129.055 273.173 128.85 273.967 128.85C275.087 128.85 275.922 129.303 276.473 130.208C277.023 131.104 277.299 132.364 277.299 133.988ZM271.895 133.988C271.895 135.36 272.049 136.387 272.357 137.068C272.674 137.749 273.211 138.09 273.967 138.09C274.713 138.09 275.245 137.754 275.563 137.082C275.889 136.401 276.053 135.369 276.053 133.988C276.053 132.625 275.889 131.603 275.563 130.922C275.245 130.241 274.713 129.9 273.967 129.9C273.211 129.9 272.674 130.241 272.357 130.922C272.049 131.603 271.895 132.625 271.895 133.988ZM285.268 139H278.66V137.978L281.278 135.332C281.773 134.828 282.193 134.38 282.538 133.988C282.893 133.596 283.159 133.213 283.336 132.84C283.514 132.467 283.602 132.051 283.602 131.594C283.602 131.043 283.439 130.628 283.112 130.348C282.786 130.059 282.361 129.914 281.838 129.914C281.344 129.914 280.914 129.998 280.55 130.166C280.186 130.334 279.813 130.567 279.43 130.866L278.772 130.04C279.164 129.713 279.612 129.438 280.116 129.214C280.63 128.981 281.204 128.864 281.838 128.864C282.772 128.864 283.509 129.102 284.05 129.578C284.592 130.054 284.862 130.703 284.862 131.524C284.862 132.047 284.755 132.537 284.54 132.994C284.326 133.451 284.027 133.904 283.644 134.352C283.262 134.8 282.814 135.271 282.3 135.766L280.214 137.824V137.88H285.268V139ZM293.28 139H286.672V137.978L289.29 135.332C289.785 134.828 290.205 134.38 290.55 133.988C290.905 133.596 291.171 133.213 291.348 132.84C291.525 132.467 291.614 132.051 291.614 131.594C291.614 131.043 291.451 130.628 291.124 130.348C290.797 130.059 290.373 129.914 289.85 129.914C289.355 129.914 288.926 129.998 288.562 130.166C288.198 130.334 287.825 130.567 287.442 130.866L286.784 130.04C287.176 129.713 287.624 129.438 288.128 129.214C288.641 128.981 289.215 128.864 289.85 128.864C290.783 128.864 291.521 129.102 292.062 129.578C292.603 130.054 292.874 130.703 292.874 131.524C292.874 132.047 292.767 132.537 292.552 132.994C292.337 133.451 292.039 133.904 291.656 134.352C291.273 134.8 290.825 135.271 290.312 135.766L288.226 137.824V137.88H293.28V139Z" fill="#1B77AF"/>
<line x1="203.5" y1="155.5" x2="390.5" y2="155.5" stroke="#F1F1F1"/>
<rect width="187" height="44" transform="translate(203.5 156)" fill="white"/>
<path d="M226.822 177.988C226.822 179.071 226.71 179.995 226.486 180.76C226.262 181.525 225.903 182.113 225.408 182.524C224.923 182.935 224.283 183.14 223.49 183.14C222.361 183.14 221.525 182.687 220.984 181.782C220.452 180.867 220.186 179.603 220.186 177.988C220.186 176.905 220.293 175.981 220.508 175.216C220.732 174.451 221.087 173.867 221.572 173.466C222.057 173.055 222.697 172.85 223.49 172.85C224.61 172.85 225.445 173.303 225.996 174.208C226.547 175.104 226.822 176.364 226.822 177.988ZM221.418 177.988C221.418 179.36 221.572 180.387 221.88 181.068C222.197 181.749 222.734 182.09 223.49 182.09C224.237 182.09 224.769 181.754 225.086 181.082C225.413 180.401 225.576 179.369 225.576 177.988C225.576 176.625 225.413 175.603 225.086 174.922C224.769 174.241 224.237 173.9 223.49 173.9C222.734 173.9 222.197 174.241 221.88 174.922C221.572 175.603 221.418 176.625 221.418 177.988ZM228.282 178.73C228.282 178.011 228.342 177.307 228.464 176.616C228.594 175.916 228.823 175.286 229.15 174.726C229.486 174.157 229.952 173.704 230.55 173.368C231.147 173.032 231.917 172.864 232.86 172.864C233.056 172.864 233.27 172.873 233.504 172.892C233.746 172.911 233.942 172.943 234.092 172.99V174.04C233.924 173.984 233.732 173.942 233.518 173.914C233.303 173.886 233.093 173.872 232.888 173.872C232.244 173.872 231.707 173.979 231.278 174.194C230.848 174.409 230.508 174.703 230.256 175.076C230.013 175.449 229.836 175.879 229.724 176.364C229.612 176.849 229.542 177.367 229.514 177.918H229.598C229.812 177.591 230.111 177.316 230.494 177.092C230.876 176.859 231.366 176.742 231.964 176.742C232.832 176.742 233.532 177.008 234.064 177.54C234.596 178.063 234.862 178.809 234.862 179.78C234.862 180.825 234.572 181.647 233.994 182.244C233.424 182.841 232.654 183.14 231.684 183.14C231.049 183.14 230.475 182.981 229.962 182.664C229.448 182.347 229.038 181.861 228.73 181.208C228.431 180.555 228.282 179.729 228.282 178.73ZM231.67 182.104C232.258 182.104 232.734 181.917 233.098 181.544C233.462 181.161 233.644 180.573 233.644 179.78C233.644 179.145 233.48 178.641 233.154 178.268C232.836 177.895 232.356 177.708 231.712 177.708C231.273 177.708 230.89 177.801 230.564 177.988C230.237 178.165 229.98 178.399 229.794 178.688C229.616 178.968 229.528 179.253 229.528 179.542C229.528 179.943 229.607 180.345 229.766 180.746C229.924 181.138 230.162 181.465 230.48 181.726C230.797 181.978 231.194 182.104 231.67 182.104ZM240.591 173.004L236.867 183H235.663L239.387 173.004H240.591ZM245.702 183H244.498V176.014C244.498 175.613 244.503 175.291 244.512 175.048C244.522 174.805 244.536 174.553 244.554 174.292C244.405 174.441 244.265 174.567 244.134 174.67C244.013 174.773 243.864 174.903 243.686 175.062L242.622 175.93L241.978 175.104L244.68 173.004H245.702V183ZM252.734 172.864C253.611 172.864 254.33 173.069 254.89 173.48C255.45 173.891 255.73 174.483 255.73 175.258C255.73 175.659 255.641 176.009 255.464 176.308C255.296 176.607 255.067 176.873 254.778 177.106C254.489 177.33 254.171 177.531 253.826 177.708C254.237 177.913 254.61 178.137 254.946 178.38C255.282 178.623 255.548 178.907 255.744 179.234C255.949 179.561 256.052 179.953 256.052 180.41C256.052 181.25 255.753 181.917 255.156 182.412C254.559 182.897 253.765 183.14 252.776 183.14C251.693 183.14 250.863 182.907 250.284 182.44C249.715 181.964 249.43 181.301 249.43 180.452C249.43 180.004 249.523 179.612 249.71 179.276C249.906 178.931 250.163 178.637 250.48 178.394C250.797 178.151 251.138 177.946 251.502 177.778C251.007 177.498 250.592 177.162 250.256 176.77C249.92 176.369 249.752 175.86 249.752 175.244C249.752 174.74 249.883 174.311 250.144 173.956C250.405 173.601 250.76 173.331 251.208 173.144C251.656 172.957 252.165 172.864 252.734 172.864ZM252.72 173.858C252.197 173.858 251.773 173.984 251.446 174.236C251.119 174.479 250.956 174.833 250.956 175.3C250.956 175.645 251.035 175.935 251.194 176.168C251.362 176.401 251.586 176.602 251.866 176.77C252.146 176.929 252.454 177.083 252.79 177.232C253.275 177.027 253.681 176.779 254.008 176.49C254.344 176.201 254.512 175.804 254.512 175.3C254.512 174.833 254.349 174.479 254.022 174.236C253.695 173.984 253.261 173.858 252.72 173.858ZM250.634 180.466C250.634 180.951 250.807 181.357 251.152 181.684C251.497 182.001 252.029 182.16 252.748 182.16C253.429 182.16 253.947 182.001 254.302 181.684C254.666 181.357 254.848 180.937 254.848 180.424C254.848 179.939 254.657 179.537 254.274 179.22C253.891 178.893 253.383 178.609 252.748 178.366L252.524 178.282C251.908 178.553 251.437 178.856 251.11 179.192C250.793 179.528 250.634 179.953 250.634 180.466ZM261.824 173.004L258.1 183H256.896L260.62 173.004H261.824ZM269.245 183H262.637V181.978L265.255 179.332C265.75 178.828 266.17 178.38 266.515 177.988C266.87 177.596 267.136 177.213 267.313 176.84C267.49 176.467 267.579 176.051 267.579 175.594C267.579 175.043 267.416 174.628 267.089 174.348C266.762 174.059 266.338 173.914 265.815 173.914C265.32 173.914 264.891 173.998 264.527 174.166C264.163 174.334 263.79 174.567 263.407 174.866L262.749 174.04C263.141 173.713 263.589 173.438 264.093 173.214C264.606 172.981 265.18 172.864 265.815 172.864C266.748 172.864 267.486 173.102 268.027 173.578C268.568 174.054 268.839 174.703 268.839 175.524C268.839 176.047 268.732 176.537 268.517 176.994C268.302 177.451 268.004 177.904 267.621 178.352C267.238 178.8 266.79 179.271 266.277 179.766L264.191 181.824V181.88H269.245V183ZM277.299 177.988C277.299 179.071 277.187 179.995 276.963 180.76C276.739 181.525 276.379 182.113 275.885 182.524C275.399 182.935 274.76 183.14 273.967 183.14C272.837 183.14 272.002 182.687 271.461 181.782C270.929 180.867 270.663 179.603 270.663 177.988C270.663 176.905 270.77 175.981 270.985 175.216C271.209 174.451 271.563 173.867 272.049 173.466C272.534 173.055 273.173 172.85 273.967 172.85C275.087 172.85 275.922 173.303 276.473 174.208C277.023 175.104 277.299 176.364 277.299 177.988ZM271.895 177.988C271.895 179.36 272.049 180.387 272.357 181.068C272.674 181.749 273.211 182.09 273.967 182.09C274.713 182.09 275.245 181.754 275.563 181.082C275.889 180.401 276.053 179.369 276.053 177.988C276.053 176.625 275.889 175.603 275.563 174.922C275.245 174.241 274.713 173.9 273.967 173.9C273.211 173.9 272.674 174.241 272.357 174.922C272.049 175.603 271.895 176.625 271.895 177.988ZM285.268 183H278.66V181.978L281.278 179.332C281.773 178.828 282.193 178.38 282.538 177.988C282.893 177.596 283.159 177.213 283.336 176.84C283.514 176.467 283.602 176.051 283.602 175.594C283.602 175.043 283.439 174.628 283.112 174.348C282.786 174.059 282.361 173.914 281.838 173.914C281.344 173.914 280.914 173.998 280.55 174.166C280.186 174.334 279.813 174.567 279.43 174.866L278.772 174.04C279.164 173.713 279.612 173.438 280.116 173.214C280.63 172.981 281.204 172.864 281.838 172.864C282.772 172.864 283.509 173.102 284.05 173.578C284.592 174.054 284.862 174.703 284.862 175.524C284.862 176.047 284.755 176.537 284.54 176.994C284.326 177.451 284.027 177.904 283.644 178.352C283.262 178.8 282.814 179.271 282.3 179.766L280.214 181.824V181.88H285.268V183ZM293.28 183H286.672V181.978L289.29 179.332C289.785 178.828 290.205 178.38 290.55 177.988C290.905 177.596 291.171 177.213 291.348 176.84C291.525 176.467 291.614 176.051 291.614 175.594C291.614 175.043 291.451 174.628 291.124 174.348C290.797 174.059 290.373 173.914 289.85 173.914C289.355 173.914 288.926 173.998 288.562 174.166C288.198 174.334 287.825 174.567 287.442 174.866L286.784 174.04C287.176 173.713 287.624 173.438 288.128 173.214C288.641 172.981 289.215 172.864 289.85 172.864C290.783 172.864 291.521 173.102 292.062 173.578C292.603 174.054 292.874 174.703 292.874 175.524C292.874 176.047 292.767 176.537 292.552 176.994C292.337 177.451 292.039 177.904 291.656 178.352C291.273 178.8 290.825 179.271 290.312 179.766L288.226 181.824V181.88H293.28V183Z" fill="#1B77AF"/>
<line x1="203.5" y1="199.5" x2="390.5" y2="199.5" stroke="#F1F1F1"/>
<rect width="187" height="44" transform="translate(203.5 200)" fill="white"/>
<path d="M226.822 221.988C226.822 223.071 226.71 223.995 226.486 224.76C226.262 225.525 225.903 226.113 225.408 226.524C224.923 226.935 224.283 227.14 223.49 227.14C222.361 227.14 221.525 226.687 220.984 225.782C220.452 224.867 220.186 223.603 220.186 221.988C220.186 220.905 220.293 219.981 220.508 219.216C220.732 218.451 221.087 217.867 221.572 217.466C222.057 217.055 222.697 216.85 223.49 216.85C224.61 216.85 225.445 217.303 225.996 218.208C226.547 219.104 226.822 220.364 226.822 221.988ZM221.418 221.988C221.418 223.36 221.572 224.387 221.88 225.068C222.197 225.749 222.734 226.09 223.49 226.09C224.237 226.09 224.769 225.754 225.086 225.082C225.413 224.401 225.576 223.369 225.576 221.988C225.576 220.625 225.413 219.603 225.086 218.922C224.769 218.241 224.237 217.9 223.49 217.9C222.734 217.9 222.197 218.241 221.88 218.922C221.572 219.603 221.418 220.625 221.418 221.988ZM234.414 219.342C234.414 220.014 234.222 220.551 233.84 220.952C233.466 221.344 232.967 221.605 232.342 221.736V221.792C233.135 221.885 233.728 222.137 234.12 222.548C234.521 222.959 234.722 223.495 234.722 224.158C234.722 224.746 234.586 225.264 234.316 225.712C234.045 226.16 233.625 226.51 233.056 226.762C232.496 227.014 231.772 227.14 230.886 227.14C230.363 227.14 229.878 227.098 229.43 227.014C228.982 226.939 228.552 226.799 228.142 226.594V225.446C228.562 225.661 229.014 225.824 229.5 225.936C229.985 226.048 230.452 226.104 230.9 226.104C231.796 226.104 232.44 225.931 232.832 225.586C233.233 225.231 233.434 224.746 233.434 224.13C233.434 223.505 233.186 223.057 232.692 222.786C232.206 222.506 231.52 222.366 230.634 222.366H229.668V221.316H230.648C231.469 221.316 232.09 221.143 232.51 220.798C232.939 220.453 233.154 219.995 233.154 219.426C233.154 218.941 232.99 218.567 232.664 218.306C232.337 218.035 231.894 217.9 231.334 217.9C230.792 217.9 230.33 217.979 229.948 218.138C229.565 218.297 229.187 218.497 228.814 218.74L228.198 217.9C228.552 217.62 228.991 217.377 229.514 217.172C230.046 216.967 230.648 216.864 231.32 216.864C232.365 216.864 233.14 217.097 233.644 217.564C234.157 218.031 234.414 218.623 234.414 219.342ZM240.591 217.004L236.867 227H235.663L239.387 217.004H240.591ZM248.012 227H241.404V225.978L244.022 223.332C244.517 222.828 244.937 222.38 245.282 221.988C245.637 221.596 245.903 221.213 246.08 220.84C246.258 220.467 246.346 220.051 246.346 219.594C246.346 219.043 246.183 218.628 245.856 218.348C245.53 218.059 245.105 217.914 244.582 217.914C244.088 217.914 243.658 217.998 243.294 218.166C242.93 218.334 242.557 218.567 242.174 218.866L241.516 218.04C241.908 217.713 242.356 217.438 242.86 217.214C243.374 216.981 243.948 216.864 244.582 216.864C245.516 216.864 246.253 217.102 246.794 217.578C247.336 218.054 247.606 218.703 247.606 219.524C247.606 220.047 247.499 220.537 247.284 220.994C247.07 221.451 246.771 221.904 246.388 222.352C246.006 222.8 245.558 223.271 245.044 223.766L242.958 225.824V225.88H248.012V227ZM256.024 227H249.416V225.978L252.034 223.332C252.529 222.828 252.949 222.38 253.294 221.988C253.649 221.596 253.915 221.213 254.092 220.84C254.269 220.467 254.358 220.051 254.358 219.594C254.358 219.043 254.195 218.628 253.868 218.348C253.541 218.059 253.117 217.914 252.594 217.914C252.099 217.914 251.67 217.998 251.306 218.166C250.942 218.334 250.569 218.567 250.186 218.866L249.528 218.04C249.92 217.713 250.368 217.438 250.872 217.214C251.385 216.981 251.959 216.864 252.594 216.864C253.527 216.864 254.265 217.102 254.806 217.578C255.347 218.054 255.618 218.703 255.618 219.524C255.618 220.047 255.511 220.537 255.296 220.994C255.081 221.451 254.783 221.904 254.4 222.352C254.017 222.8 253.569 223.271 253.056 223.766L250.97 225.824V225.88H256.024V227ZM261.824 217.004L258.1 227H256.896L260.62 217.004H261.824ZM269.245 227H262.637V225.978L265.255 223.332C265.75 222.828 266.17 222.38 266.515 221.988C266.87 221.596 267.136 221.213 267.313 220.84C267.49 220.467 267.579 220.051 267.579 219.594C267.579 219.043 267.416 218.628 267.089 218.348C266.762 218.059 266.338 217.914 265.815 217.914C265.32 217.914 264.891 217.998 264.527 218.166C264.163 218.334 263.79 218.567 263.407 218.866L262.749 218.04C263.141 217.713 263.589 217.438 264.093 217.214C264.606 216.981 265.18 216.864 265.815 216.864C266.748 216.864 267.486 217.102 268.027 217.578C268.568 218.054 268.839 218.703 268.839 219.524C268.839 220.047 268.732 220.537 268.517 220.994C268.302 221.451 268.004 221.904 267.621 222.352C267.238 222.8 266.79 223.271 266.277 223.766L264.191 225.824V225.88H269.245V227ZM277.299 221.988C277.299 223.071 277.187 223.995 276.963 224.76C276.739 225.525 276.379 226.113 275.885 226.524C275.399 226.935 274.76 227.14 273.967 227.14C272.837 227.14 272.002 226.687 271.461 225.782C270.929 224.867 270.663 223.603 270.663 221.988C270.663 220.905 270.77 219.981 270.985 219.216C271.209 218.451 271.563 217.867 272.049 217.466C272.534 217.055 273.173 216.85 273.967 216.85C275.087 216.85 275.922 217.303 276.473 218.208C277.023 219.104 277.299 220.364 277.299 221.988ZM271.895 221.988C271.895 223.36 272.049 224.387 272.357 225.068C272.674 225.749 273.211 226.09 273.967 226.09C274.713 226.09 275.245 225.754 275.563 225.082C275.889 224.401 276.053 223.369 276.053 221.988C276.053 220.625 275.889 219.603 275.563 218.922C275.245 218.241 274.713 217.9 273.967 217.9C273.211 217.9 272.674 218.241 272.357 218.922C272.049 219.603 271.895 220.625 271.895 221.988ZM285.268 227H278.66V225.978L281.278 223.332C281.773 222.828 282.193 222.38 282.538 221.988C282.893 221.596 283.159 221.213 283.336 220.84C283.514 220.467 283.602 220.051 283.602 219.594C283.602 219.043 283.439 218.628 283.112 218.348C282.786 218.059 282.361 217.914 281.838 217.914C281.344 217.914 280.914 217.998 280.55 218.166C280.186 218.334 279.813 218.567 279.43 218.866L278.772 218.04C279.164 217.713 279.612 217.438 280.116 217.214C280.63 216.981 281.204 216.864 281.838 216.864C282.772 216.864 283.509 217.102 284.05 217.578C284.592 218.054 284.862 218.703 284.862 219.524C284.862 220.047 284.755 220.537 284.54 220.994C284.326 221.451 284.027 221.904 283.644 222.352C283.262 222.8 282.814 223.271 282.3 223.766L280.214 225.824V225.88H285.268V227ZM293.28 227H286.672V225.978L289.29 223.332C289.785 222.828 290.205 222.38 290.55 221.988C290.905 221.596 291.171 221.213 291.348 220.84C291.525 220.467 291.614 220.051 291.614 219.594C291.614 219.043 291.451 218.628 291.124 218.348C290.797 218.059 290.373 217.914 289.85 217.914C289.355 217.914 288.926 217.998 288.562 218.166C288.198 218.334 287.825 218.567 287.442 218.866L286.784 218.04C287.176 217.713 287.624 217.438 288.128 217.214C288.641 216.981 289.215 216.864 289.85 216.864C290.783 216.864 291.521 217.102 292.062 217.578C292.603 218.054 292.874 218.703 292.874 219.524C292.874 220.047 292.767 220.537 292.552 220.994C292.337 221.451 292.039 221.904 291.656 222.352C291.273 222.8 290.825 223.271 290.312 223.766L288.226 225.824V225.88H293.28V227Z" fill="#1B77AF"/>
<line x1="203.5" y1="243.5" x2="390.5" y2="243.5" stroke="#F1F1F1"/>
<rect width="187" height="44" transform="translate(203.5 244)" fill="white"/>
<path d="M224.47 271H223.266V264.014C223.266 263.613 223.271 263.291 223.28 263.048C223.289 262.805 223.303 262.553 223.322 262.292C223.173 262.441 223.033 262.567 222.902 262.67C222.781 262.773 222.631 262.903 222.454 263.062L221.39 263.93L220.746 263.104L223.448 261.004H224.47V271ZM234.792 271H228.184V269.978L230.802 267.332C231.296 266.828 231.716 266.38 232.062 265.988C232.416 265.596 232.682 265.213 232.86 264.84C233.037 264.467 233.126 264.051 233.126 263.594C233.126 263.043 232.962 262.628 232.636 262.348C232.309 262.059 231.884 261.914 231.362 261.914C230.867 261.914 230.438 261.998 230.074 262.166C229.71 262.334 229.336 262.567 228.954 262.866L228.296 262.04C228.688 261.713 229.136 261.438 229.64 261.214C230.153 260.981 230.727 260.864 231.362 260.864C232.295 260.864 233.032 261.102 233.574 261.578C234.115 262.054 234.386 262.703 234.386 263.524C234.386 264.047 234.278 264.537 234.064 264.994C233.849 265.451 233.55 265.904 233.168 266.352C232.785 266.8 232.337 267.271 231.824 267.766L229.738 269.824V269.88H234.792V271ZM240.591 261.004L236.867 271H235.663L239.387 261.004H240.591ZM248.012 271H241.404V269.978L244.022 267.332C244.517 266.828 244.937 266.38 245.282 265.988C245.637 265.596 245.903 265.213 246.08 264.84C246.258 264.467 246.346 264.051 246.346 263.594C246.346 263.043 246.183 262.628 245.856 262.348C245.53 262.059 245.105 261.914 244.582 261.914C244.088 261.914 243.658 261.998 243.294 262.166C242.93 262.334 242.557 262.567 242.174 262.866L241.516 262.04C241.908 261.713 242.356 261.438 242.86 261.214C243.374 260.981 243.948 260.864 244.582 260.864C245.516 260.864 246.253 261.102 246.794 261.578C247.336 262.054 247.606 262.703 247.606 263.524C247.606 264.047 247.499 264.537 247.284 264.994C247.07 265.451 246.771 265.904 246.388 266.352C246.006 266.8 245.558 267.271 245.044 267.766L242.958 269.824V269.88H248.012V271ZM255.646 263.342C255.646 264.014 255.455 264.551 255.072 264.952C254.699 265.344 254.199 265.605 253.574 265.736V265.792C254.367 265.885 254.96 266.137 255.352 266.548C255.753 266.959 255.954 267.495 255.954 268.158C255.954 268.746 255.819 269.264 255.548 269.712C255.277 270.16 254.857 270.51 254.288 270.762C253.728 271.014 253.005 271.14 252.118 271.14C251.595 271.14 251.11 271.098 250.662 271.014C250.214 270.939 249.785 270.799 249.374 270.594V269.446C249.794 269.661 250.247 269.824 250.732 269.936C251.217 270.048 251.684 270.104 252.132 270.104C253.028 270.104 253.672 269.931 254.064 269.586C254.465 269.231 254.666 268.746 254.666 268.13C254.666 267.505 254.419 267.057 253.924 266.786C253.439 266.506 252.753 266.366 251.866 266.366H250.9V265.316H251.88C252.701 265.316 253.322 265.143 253.742 264.798C254.171 264.453 254.386 263.995 254.386 263.426C254.386 262.941 254.223 262.567 253.896 262.306C253.569 262.035 253.126 261.9 252.566 261.9C252.025 261.9 251.563 261.979 251.18 262.138C250.797 262.297 250.419 262.497 250.046 262.74L249.43 261.9C249.785 261.62 250.223 261.377 250.746 261.172C251.278 260.967 251.88 260.864 252.552 260.864C253.597 260.864 254.372 261.097 254.876 261.564C255.389 262.031 255.646 262.623 255.646 263.342ZM261.824 261.004L258.1 271H256.896L260.62 261.004H261.824ZM269.245 271H262.637V269.978L265.255 267.332C265.75 266.828 266.17 266.38 266.515 265.988C266.87 265.596 267.136 265.213 267.313 264.84C267.49 264.467 267.579 264.051 267.579 263.594C267.579 263.043 267.416 262.628 267.089 262.348C266.762 262.059 266.338 261.914 265.815 261.914C265.32 261.914 264.891 261.998 264.527 262.166C264.163 262.334 263.79 262.567 263.407 262.866L262.749 262.04C263.141 261.713 263.589 261.438 264.093 261.214C264.606 260.981 265.18 260.864 265.815 260.864C266.748 260.864 267.486 261.102 268.027 261.578C268.568 262.054 268.839 262.703 268.839 263.524C268.839 264.047 268.732 264.537 268.517 264.994C268.302 265.451 268.004 265.904 267.621 266.352C267.238 266.8 266.79 267.271 266.277 267.766L264.191 269.824V269.88H269.245V271ZM277.299 265.988C277.299 267.071 277.187 267.995 276.963 268.76C276.739 269.525 276.379 270.113 275.885 270.524C275.399 270.935 274.76 271.14 273.967 271.14C272.837 271.14 272.002 270.687 271.461 269.782C270.929 268.867 270.663 267.603 270.663 265.988C270.663 264.905 270.77 263.981 270.985 263.216C271.209 262.451 271.563 261.867 272.049 261.466C272.534 261.055 273.173 260.85 273.967 260.85C275.087 260.85 275.922 261.303 276.473 262.208C277.023 263.104 277.299 264.364 277.299 265.988ZM271.895 265.988C271.895 267.36 272.049 268.387 272.357 269.068C272.674 269.749 273.211 270.09 273.967 270.09C274.713 270.09 275.245 269.754 275.563 269.082C275.889 268.401 276.053 267.369 276.053 265.988C276.053 264.625 275.889 263.603 275.563 262.922C275.245 262.241 274.713 261.9 273.967 261.9C273.211 261.9 272.674 262.241 272.357 262.922C272.049 263.603 271.895 264.625 271.895 265.988ZM285.268 271H278.66V269.978L281.278 267.332C281.773 266.828 282.193 266.38 282.538 265.988C282.893 265.596 283.159 265.213 283.336 264.84C283.514 264.467 283.602 264.051 283.602 263.594C283.602 263.043 283.439 262.628 283.112 262.348C282.786 262.059 282.361 261.914 281.838 261.914C281.344 261.914 280.914 261.998 280.55 262.166C280.186 262.334 279.813 262.567 279.43 262.866L278.772 262.04C279.164 261.713 279.612 261.438 280.116 261.214C280.63 260.981 281.204 260.864 281.838 260.864C282.772 260.864 283.509 261.102 284.05 261.578C284.592 262.054 284.862 262.703 284.862 263.524C284.862 264.047 284.755 264.537 284.54 264.994C284.326 265.451 284.027 265.904 283.644 266.352C283.262 266.8 282.814 267.271 282.3 267.766L280.214 269.824V269.88H285.268V271ZM293.28 271H286.672V269.978L289.29 267.332C289.785 266.828 290.205 266.38 290.55 265.988C290.905 265.596 291.171 265.213 291.348 264.84C291.525 264.467 291.614 264.051 291.614 263.594C291.614 263.043 291.451 262.628 291.124 262.348C290.797 262.059 290.373 261.914 289.85 261.914C289.355 261.914 288.926 261.998 288.562 262.166C288.198 262.334 287.825 262.567 287.442 262.866L286.784 262.04C287.176 261.713 287.624 261.438 288.128 261.214C288.641 260.981 289.215 260.864 289.85 260.864C290.783 260.864 291.521 261.102 292.062 261.578C292.603 262.054 292.874 262.703 292.874 263.524C292.874 264.047 292.767 264.537 292.552 264.994C292.337 265.451 292.039 265.904 291.656 266.352C291.273 266.8 290.825 267.271 290.312 267.766L288.226 269.824V269.88H293.28V271Z" fill="#1B77AF"/>
<line x1="203.5" y1="287.5" x2="390.5" y2="287.5" stroke="#F1F1F1"/>
</svg>
