<svg width="838" height="244" viewBox="0 0 838 244" fill="none" xmlns="http://www.w3.org/2000/svg">
<rect width="838" height="244" fill="white"/>
<rect x="110.5" y="84.5" width="559" height="75" rx="3.5" fill="#FDEDED"/>
<path d="M141.25 123.06V115.35C141.25 115.151 141.329 114.96 141.47 114.82C141.61 114.679 141.801 114.6 142 114.6C142.199 114.6 142.39 114.679 142.53 114.82C142.671 114.96 142.75 115.151 142.75 115.35V123.06C142.75 123.259 142.671 123.45 142.53 123.59C142.39 123.731 142.199 123.81 142 123.81C141.801 123.81 141.61 123.731 141.47 123.59C141.329 123.45 141.25 123.259 141.25 123.06ZM154.8 124.89L144.89 134.8C144.511 135.18 144.061 135.482 143.565 135.688C143.069 135.894 142.537 136 142 136C141.463 136 140.931 135.894 140.435 135.688C139.939 135.482 139.489 135.18 139.11 134.8L129.2 124.89C128.82 124.511 128.518 124.061 128.312 123.565C128.106 123.069 128 122.537 128 122C128 121.463 128.106 120.931 128.312 120.435C128.518 119.939 128.82 119.489 129.2 119.11L139.11 109.2C139.489 108.82 139.939 108.518 140.435 108.312C140.931 108.106 141.463 108 142 108C142.537 108 143.069 108.106 143.565 108.312C144.061 108.518 144.511 108.82 144.89 109.2L154.8 119.11C155.18 119.489 155.482 119.939 155.688 120.435C155.894 120.931 156 121.463 156 122C156 122.537 155.894 123.069 155.688 123.565C155.482 124.061 155.18 124.511 154.8 124.89ZM153.74 120.17L143.83 110.26C143.59 110.019 143.305 109.827 142.991 109.697C142.677 109.566 142.34 109.499 142 109.499C141.66 109.499 141.323 109.566 141.009 109.697C140.695 109.827 140.41 110.019 140.17 110.26L130.26 120.17C129.775 120.656 129.503 121.314 129.503 122C129.503 122.686 129.775 123.344 130.26 123.83L140.17 133.74C140.663 134.211 141.318 134.473 142 134.473C142.682 134.473 143.337 134.211 143.83 133.74L153.74 123.83C154.225 123.344 154.497 122.686 154.497 122C154.497 121.314 154.225 120.656 153.74 120.17ZM142 126.05C141.743 126.05 141.492 126.126 141.278 126.269C141.064 126.412 140.897 126.615 140.799 126.853C140.701 127.09 140.675 127.351 140.725 127.604C140.775 127.856 140.899 128.087 141.081 128.269C141.263 128.451 141.494 128.575 141.746 128.625C141.999 128.675 142.26 128.649 142.498 128.551C142.735 128.453 142.938 128.286 143.081 128.072C143.224 127.858 143.3 127.607 143.3 127.35C143.3 127.179 143.266 127.01 143.201 126.853C143.136 126.695 143.04 126.551 142.919 126.431C142.799 126.31 142.655 126.214 142.498 126.149C142.34 126.084 142.171 126.05 142 126.05Z" fill="#B51418"/>
<g clip-path="url(#clip0_9044_344956)">
<path d="M178.217 117H176.507V110.673H169.553V117H167.843V103.434H169.553V109.172H176.507V103.434H178.217V117ZM185.631 106.626C186.492 106.626 187.24 106.816 187.873 107.196C188.506 107.576 188.988 108.114 189.317 108.811C189.659 109.495 189.83 110.299 189.83 111.224V112.231H182.857C182.882 113.384 183.174 114.264 183.731 114.872C184.301 115.467 185.093 115.765 186.106 115.765C186.752 115.765 187.322 115.708 187.816 115.594C188.323 115.467 188.842 115.29 189.374 115.062V116.525C188.855 116.753 188.342 116.918 187.835 117.019C187.328 117.133 186.727 117.19 186.03 117.19C185.055 117.19 184.2 116.994 183.465 116.601C182.73 116.208 182.154 115.626 181.736 114.853C181.331 114.08 181.128 113.124 181.128 111.984C181.128 110.869 181.312 109.913 181.679 109.115C182.059 108.317 182.585 107.703 183.256 107.272C183.94 106.841 184.732 106.626 185.631 106.626ZM185.612 107.994C184.814 107.994 184.181 108.254 183.712 108.773C183.256 109.28 182.984 109.989 182.895 110.901H188.082C188.069 110.04 187.867 109.343 187.474 108.811C187.081 108.266 186.461 107.994 185.612 107.994ZM196.28 106.645C197.521 106.645 198.439 106.917 199.035 107.462C199.63 108.007 199.928 108.874 199.928 110.065V117H198.712L198.389 115.556H198.313C197.869 116.113 197.401 116.525 196.907 116.791C196.413 117.057 195.741 117.19 194.893 117.19C193.968 117.19 193.202 116.949 192.594 116.468C191.986 115.974 191.682 115.208 191.682 114.169C191.682 113.156 192.081 112.377 192.879 111.832C193.677 111.275 194.905 110.971 196.565 110.92L198.294 110.863V110.255C198.294 109.406 198.11 108.817 197.743 108.488C197.375 108.159 196.856 107.994 196.185 107.994C195.653 107.994 195.146 108.076 194.665 108.241C194.183 108.393 193.734 108.57 193.316 108.773L192.803 107.519C193.246 107.278 193.772 107.076 194.38 106.911C194.988 106.734 195.621 106.645 196.28 106.645ZM198.275 112.022L196.774 112.079C195.507 112.13 194.627 112.332 194.133 112.687C193.651 113.042 193.411 113.542 193.411 114.188C193.411 114.758 193.582 115.176 193.924 115.442C194.278 115.708 194.728 115.841 195.273 115.841C196.121 115.841 196.831 115.607 197.401 115.138C197.983 114.657 198.275 113.922 198.275 112.934V112.022ZM206.683 117.19C205.416 117.19 204.403 116.753 203.643 115.879C202.883 114.992 202.503 113.675 202.503 111.927C202.503 110.179 202.883 108.862 203.643 107.975C204.416 107.076 205.435 106.626 206.702 106.626C207.487 106.626 208.127 106.772 208.621 107.063C209.128 107.354 209.539 107.709 209.856 108.127H209.97C209.945 107.962 209.919 107.722 209.894 107.405C209.869 107.076 209.856 106.816 209.856 106.626V102.56H211.528V117H210.179L209.932 115.632H209.856C209.552 116.063 209.147 116.43 208.64 116.734C208.133 117.038 207.481 117.19 206.683 117.19ZM206.949 115.803C208.026 115.803 208.779 115.512 209.21 114.929C209.653 114.334 209.875 113.441 209.875 112.25V111.946C209.875 110.679 209.666 109.71 209.248 109.039C208.83 108.355 208.057 108.013 206.93 108.013C206.031 108.013 205.353 108.374 204.897 109.096C204.454 109.805 204.232 110.762 204.232 111.965C204.232 113.181 204.454 114.125 204.897 114.796C205.353 115.467 206.037 115.803 206.949 115.803ZM218.695 106.626C219.557 106.626 220.304 106.816 220.937 107.196C221.571 107.576 222.052 108.114 222.381 108.811C222.723 109.495 222.894 110.299 222.894 111.224V112.231H215.921C215.947 113.384 216.238 114.264 216.795 114.872C217.365 115.467 218.157 115.765 219.17 115.765C219.816 115.765 220.386 115.708 220.88 115.594C221.387 115.467 221.906 115.29 222.438 115.062V116.525C221.919 116.753 221.406 116.918 220.899 117.019C220.393 117.133 219.791 117.19 219.094 117.19C218.119 117.19 217.264 116.994 216.529 116.601C215.795 116.208 215.218 115.626 214.8 114.853C214.395 114.08 214.192 113.124 214.192 111.984C214.192 110.869 214.376 109.913 214.743 109.115C215.123 108.317 215.649 107.703 216.32 107.272C217.004 106.841 217.796 106.626 218.695 106.626ZM218.676 107.994C217.878 107.994 217.245 108.254 216.776 108.773C216.32 109.28 216.048 109.989 215.959 110.901H221.146C221.134 110.04 220.931 109.343 220.538 108.811C220.146 108.266 219.525 107.994 218.676 107.994ZM230.237 106.626C230.427 106.626 230.63 106.639 230.845 106.664C231.06 106.677 231.257 106.702 231.434 106.74L231.225 108.279C231.06 108.241 230.877 108.209 230.674 108.184C230.471 108.159 230.288 108.146 230.123 108.146C229.604 108.146 229.116 108.292 228.66 108.583C228.204 108.862 227.837 109.261 227.558 109.78C227.292 110.287 227.159 110.882 227.159 111.566V117H225.487V106.816H226.855L227.045 108.678H227.121C227.438 108.121 227.856 107.639 228.375 107.234C228.907 106.829 229.528 106.626 230.237 106.626ZM242.793 117H241.083V104.935H236.846V103.434H247.011V104.935H242.793V117ZM251.426 106.626C252.287 106.626 253.035 106.816 253.668 107.196C254.301 107.576 254.783 108.114 255.112 108.811C255.454 109.495 255.625 110.299 255.625 111.224V112.231H248.652C248.677 113.384 248.969 114.264 249.526 114.872C250.096 115.467 250.888 115.765 251.901 115.765C252.547 115.765 253.117 115.708 253.611 115.594C254.118 115.467 254.637 115.29 255.169 115.062V116.525C254.65 116.753 254.137 116.918 253.63 117.019C253.123 117.133 252.522 117.19 251.825 117.19C250.85 117.19 249.995 116.994 249.26 116.601C248.525 116.208 247.949 115.626 247.531 114.853C247.126 114.08 246.923 113.124 246.923 111.984C246.923 110.869 247.107 109.913 247.474 109.115C247.854 108.317 248.38 107.703 249.051 107.272C249.735 106.841 250.527 106.626 251.426 106.626ZM251.407 107.994C250.609 107.994 249.976 108.254 249.507 108.773C249.051 109.28 248.779 109.989 248.69 110.901H253.877C253.864 110.04 253.662 109.343 253.269 108.811C252.876 108.266 252.256 107.994 251.407 107.994ZM260.259 111.794L256.744 106.816H258.644L261.266 110.654L263.869 106.816H265.75L262.235 111.794L265.94 117H264.04L261.266 112.934L258.454 117H256.573L260.259 111.794ZM271.304 115.822C271.557 115.822 271.817 115.803 272.083 115.765C272.349 115.727 272.564 115.676 272.729 115.613V116.886C272.552 116.975 272.298 117.044 271.969 117.095C271.64 117.158 271.323 117.19 271.019 117.19C270.487 117.19 269.993 117.101 269.537 116.924C269.094 116.734 268.733 116.411 268.454 115.955C268.175 115.499 268.036 114.859 268.036 114.036V108.108H266.592V107.31L268.055 106.645L268.72 104.479H269.708V106.816H272.653V108.108H269.708V113.998C269.708 114.619 269.854 115.081 270.145 115.385C270.449 115.676 270.835 115.822 271.304 115.822Z" fill="black"/>
<path d="M175.366 137.904C175.366 139.593 174.904 140.867 173.98 141.726C173.065 142.575 171.787 143 170.144 143H167.358V133.004H170.438C171.437 133.004 172.305 133.191 173.042 133.564C173.789 133.937 174.363 134.488 174.764 135.216C175.165 135.944 175.366 136.84 175.366 137.904ZM174.036 137.946C174.036 136.611 173.705 135.636 173.042 135.02C172.389 134.395 171.46 134.082 170.256 134.082H168.618V141.922H169.976C172.683 141.922 174.036 140.597 174.036 137.946ZM180.315 135.356C180.949 135.356 181.5 135.496 181.967 135.776C182.433 136.056 182.788 136.453 183.031 136.966C183.283 137.47 183.409 138.063 183.409 138.744V139.486H178.271C178.289 140.335 178.504 140.984 178.915 141.432C179.335 141.871 179.918 142.09 180.665 142.09C181.141 142.09 181.561 142.048 181.925 141.964C182.298 141.871 182.681 141.74 183.073 141.572V142.65C182.69 142.818 182.312 142.939 181.939 143.014C181.565 143.098 181.122 143.14 180.609 143.14C179.89 143.14 179.26 142.995 178.719 142.706C178.177 142.417 177.753 141.987 177.445 141.418C177.146 140.849 176.997 140.144 176.997 139.304C176.997 138.483 177.132 137.778 177.403 137.19C177.683 136.602 178.07 136.149 178.565 135.832C179.069 135.515 179.652 135.356 180.315 135.356ZM180.301 136.364C179.713 136.364 179.246 136.555 178.901 136.938C178.565 137.311 178.364 137.834 178.299 138.506H182.121C182.111 137.871 181.962 137.358 181.673 136.966C181.383 136.565 180.926 136.364 180.301 136.364ZM190.205 140.928C190.205 141.656 189.934 142.207 189.393 142.58C188.852 142.953 188.124 143.14 187.209 143.14C186.686 143.14 186.234 143.098 185.851 143.014C185.478 142.93 185.146 142.813 184.857 142.664V141.544C185.156 141.693 185.515 141.833 185.935 141.964C186.364 142.085 186.798 142.146 187.237 142.146C187.862 142.146 188.315 142.048 188.595 141.852C188.875 141.647 189.015 141.376 189.015 141.04C189.015 140.853 188.964 140.685 188.861 140.536C188.758 140.387 188.572 140.237 188.301 140.088C188.04 139.939 187.662 139.771 187.167 139.584C186.682 139.397 186.266 139.211 185.921 139.024C185.576 138.837 185.31 138.613 185.123 138.352C184.936 138.091 184.843 137.755 184.843 137.344C184.843 136.709 185.1 136.219 185.613 135.874C186.136 135.529 186.817 135.356 187.657 135.356C188.114 135.356 188.539 135.403 188.931 135.496C189.332 135.589 189.706 135.711 190.051 135.86L189.631 136.84C189.314 136.709 188.982 136.597 188.637 136.504C188.292 136.411 187.937 136.364 187.573 136.364C187.069 136.364 186.682 136.448 186.411 136.616C186.15 136.775 186.019 136.994 186.019 137.274C186.019 137.489 186.08 137.666 186.201 137.806C186.322 137.946 186.523 138.086 186.803 138.226C187.092 138.366 187.475 138.525 187.951 138.702C188.427 138.879 188.833 139.061 189.169 139.248C189.505 139.435 189.762 139.663 189.939 139.934C190.116 140.195 190.205 140.527 190.205 140.928ZM195.028 143.14C194.356 143.14 193.763 143.005 193.25 142.734C192.737 142.463 192.331 142.043 192.032 141.474C191.743 140.905 191.598 140.177 191.598 139.29C191.598 138.366 191.747 137.615 192.046 137.036C192.354 136.457 192.774 136.033 193.306 135.762C193.838 135.491 194.44 135.356 195.112 135.356C195.485 135.356 195.849 135.398 196.204 135.482C196.568 135.557 196.862 135.65 197.086 135.762L196.708 136.784C196.484 136.7 196.223 136.621 195.924 136.546C195.625 136.471 195.345 136.434 195.084 136.434C193.609 136.434 192.872 137.381 192.872 139.276C192.872 140.181 193.049 140.877 193.404 141.362C193.768 141.838 194.305 142.076 195.014 142.076C195.415 142.076 195.775 142.034 196.092 141.95C196.409 141.866 196.699 141.763 196.96 141.642V142.734C196.708 142.865 196.428 142.963 196.12 143.028C195.821 143.103 195.457 143.14 195.028 143.14ZM202.245 135.356C202.385 135.356 202.534 135.365 202.693 135.384C202.851 135.393 202.996 135.412 203.127 135.44L202.973 136.574C202.851 136.546 202.716 136.523 202.567 136.504C202.417 136.485 202.282 136.476 202.161 136.476C201.778 136.476 201.419 136.583 201.083 136.798C200.747 137.003 200.476 137.297 200.271 137.68C200.075 138.053 199.977 138.492 199.977 138.996V143H198.745V135.496H199.753L199.893 136.868H199.949C200.182 136.457 200.49 136.103 200.873 135.804C201.265 135.505 201.722 135.356 202.245 135.356ZM205.158 132.682C205.345 132.682 205.508 132.747 205.648 132.878C205.797 132.999 205.872 133.195 205.872 133.466C205.872 133.737 205.797 133.937 205.648 134.068C205.508 134.189 205.345 134.25 205.158 134.25C204.953 134.25 204.78 134.189 204.64 134.068C204.5 133.937 204.43 133.737 204.43 133.466C204.43 133.195 204.5 132.999 204.64 132.878C204.78 132.747 204.953 132.682 205.158 132.682ZM205.76 135.496V143H204.528V135.496H205.76ZM211.707 135.356C212.631 135.356 213.373 135.678 213.933 136.322C214.503 136.966 214.787 137.937 214.787 139.234C214.787 140.513 214.503 141.483 213.933 142.146C213.373 142.809 212.627 143.14 211.693 143.14C211.115 143.14 210.634 143.033 210.251 142.818C209.878 142.603 209.584 142.347 209.369 142.048H209.285C209.295 142.207 209.309 142.407 209.327 142.65C209.355 142.893 209.369 143.103 209.369 143.28V146.36H208.137V135.496H209.145L209.313 136.518H209.369C209.593 136.191 209.887 135.916 210.251 135.692C210.615 135.468 211.101 135.356 211.707 135.356ZM211.483 136.392C210.718 136.392 210.177 136.607 209.859 137.036C209.542 137.465 209.379 138.119 209.369 138.996V139.234C209.369 140.158 209.519 140.872 209.817 141.376C210.125 141.871 210.69 142.118 211.511 142.118C211.959 142.118 212.333 141.997 212.631 141.754C212.93 141.502 213.149 141.157 213.289 140.718C213.439 140.279 213.513 139.78 213.513 139.22C213.513 138.361 213.345 137.675 213.009 137.162C212.683 136.649 212.174 136.392 211.483 136.392ZM219.257 142.132C219.443 142.132 219.635 142.118 219.831 142.09C220.027 142.062 220.185 142.025 220.307 141.978V142.916C220.176 142.981 219.989 143.033 219.747 143.07C219.504 143.117 219.271 143.14 219.047 143.14C218.655 143.14 218.291 143.075 217.955 142.944C217.628 142.804 217.362 142.566 217.157 142.23C216.951 141.894 216.849 141.423 216.849 140.816V136.448H215.785V135.86L216.863 135.37L217.353 133.774H218.081V135.496H220.251V136.448H218.081V140.788C218.081 141.245 218.188 141.586 218.403 141.81C218.627 142.025 218.911 142.132 219.257 142.132ZM222.439 132.682C222.626 132.682 222.789 132.747 222.929 132.878C223.078 132.999 223.153 133.195 223.153 133.466C223.153 133.737 223.078 133.937 222.929 134.068C222.789 134.189 222.626 134.25 222.439 134.25C222.234 134.25 222.061 134.189 221.921 134.068C221.781 133.937 221.711 133.737 221.711 133.466C221.711 133.195 221.781 132.999 221.921 132.878C222.061 132.747 222.234 132.682 222.439 132.682ZM223.041 135.496V143H221.809V135.496H223.041ZM231.943 139.234C231.943 140.475 231.625 141.437 230.991 142.118C230.365 142.799 229.516 143.14 228.443 143.14C227.78 143.14 227.187 142.991 226.665 142.692C226.151 142.384 225.745 141.941 225.447 141.362C225.148 140.774 224.999 140.065 224.999 139.234C224.999 137.993 225.307 137.036 225.923 136.364C226.548 135.692 227.402 135.356 228.485 135.356C229.157 135.356 229.754 135.51 230.277 135.818C230.799 136.117 231.205 136.555 231.495 137.134C231.793 137.703 231.943 138.403 231.943 139.234ZM226.273 139.234C226.273 140.121 226.445 140.825 226.791 141.348C227.145 141.861 227.705 142.118 228.471 142.118C229.227 142.118 229.782 141.861 230.137 141.348C230.491 140.825 230.669 140.121 230.669 139.234C230.669 138.347 230.491 137.652 230.137 137.148C229.782 136.644 229.222 136.392 228.457 136.392C227.691 136.392 227.136 136.644 226.791 137.148C226.445 137.652 226.273 138.347 226.273 139.234ZM237.507 135.356C238.403 135.356 239.08 135.575 239.537 136.014C239.994 136.453 240.223 137.153 240.223 138.114V143H239.005V138.198C239.005 136.994 238.445 136.392 237.325 136.392C236.494 136.392 235.92 136.625 235.603 137.092C235.286 137.559 235.127 138.231 235.127 139.108V143H233.895V135.496H234.889L235.071 136.518H235.141C235.384 136.126 235.72 135.837 236.149 135.65C236.578 135.454 237.031 135.356 237.507 135.356ZM252.71 139.234C252.71 140.475 252.393 141.437 251.758 142.118C251.133 142.799 250.283 143.14 249.21 143.14C248.547 143.14 247.955 142.991 247.432 142.692C246.919 142.384 246.513 141.941 246.214 141.362C245.915 140.774 245.766 140.065 245.766 139.234C245.766 137.993 246.074 137.036 246.69 136.364C247.315 135.692 248.169 135.356 249.252 135.356C249.924 135.356 250.521 135.51 251.044 135.818C251.567 136.117 251.973 136.555 252.262 137.134C252.561 137.703 252.71 138.403 252.71 139.234ZM247.04 139.234C247.04 140.121 247.213 140.825 247.558 141.348C247.913 141.861 248.473 142.118 249.238 142.118C249.994 142.118 250.549 141.861 250.904 141.348C251.259 140.825 251.436 140.121 251.436 139.234C251.436 138.347 251.259 137.652 250.904 137.148C250.549 136.644 249.989 136.392 249.224 136.392C248.459 136.392 247.903 136.644 247.558 137.148C247.213 137.652 247.04 138.347 247.04 139.234ZM258.121 136.448H256.231V143H254.999V136.448H253.683V135.874L254.999 135.454V135.02C254.999 134.049 255.209 133.354 255.629 132.934C256.058 132.505 256.66 132.29 257.435 132.29C257.724 132.29 257.995 132.318 258.247 132.374C258.499 132.421 258.713 132.477 258.891 132.542L258.569 133.508C258.419 133.461 258.247 133.415 258.051 133.368C257.855 133.321 257.654 133.298 257.449 133.298C257.038 133.298 256.73 133.438 256.525 133.718C256.329 133.989 256.231 134.418 256.231 135.006V135.496H258.121V136.448ZM271.344 135.356C272.193 135.356 272.828 135.575 273.248 136.014C273.668 136.453 273.878 137.153 273.878 138.114V143H272.66V138.17C272.66 136.985 272.151 136.392 271.134 136.392C270.406 136.392 269.883 136.602 269.566 137.022C269.258 137.442 269.104 138.053 269.104 138.856V143H267.886V138.17C267.886 136.985 267.373 136.392 266.346 136.392C265.59 136.392 265.067 136.625 264.778 137.092C264.489 137.559 264.344 138.231 264.344 139.108V143H263.112V135.496H264.106L264.288 136.518H264.358C264.591 136.126 264.904 135.837 265.296 135.65C265.697 135.454 266.122 135.356 266.57 135.356C267.746 135.356 268.511 135.776 268.866 136.616H268.936C269.188 136.187 269.529 135.869 269.958 135.664C270.387 135.459 270.849 135.356 271.344 135.356ZM279.094 135.356C279.729 135.356 280.279 135.496 280.746 135.776C281.213 136.056 281.567 136.453 281.81 136.966C282.062 137.47 282.188 138.063 282.188 138.744V139.486H277.05C277.069 140.335 277.283 140.984 277.694 141.432C278.114 141.871 278.697 142.09 279.444 142.09C279.92 142.09 280.34 142.048 280.704 141.964C281.077 141.871 281.46 141.74 281.852 141.572V142.65C281.469 142.818 281.091 142.939 280.718 143.014C280.345 143.098 279.901 143.14 279.388 143.14C278.669 143.14 278.039 142.995 277.498 142.706C276.957 142.417 276.532 141.987 276.224 141.418C275.925 140.849 275.776 140.144 275.776 139.304C275.776 138.483 275.911 137.778 276.182 137.19C276.462 136.602 276.849 136.149 277.344 135.832C277.848 135.515 278.431 135.356 279.094 135.356ZM279.08 136.364C278.492 136.364 278.025 136.555 277.68 136.938C277.344 137.311 277.143 137.834 277.078 138.506H280.9C280.891 137.871 280.741 137.358 280.452 136.966C280.163 136.565 279.705 136.364 279.08 136.364ZM288.984 140.928C288.984 141.656 288.714 142.207 288.172 142.58C287.631 142.953 286.903 143.14 285.988 143.14C285.466 143.14 285.013 143.098 284.63 143.014C284.257 142.93 283.926 142.813 283.636 142.664V141.544C283.935 141.693 284.294 141.833 284.714 141.964C285.144 142.085 285.578 142.146 286.016 142.146C286.642 142.146 287.094 142.048 287.374 141.852C287.654 141.647 287.794 141.376 287.794 141.04C287.794 140.853 287.743 140.685 287.64 140.536C287.538 140.387 287.351 140.237 287.08 140.088C286.819 139.939 286.441 139.771 285.946 139.584C285.461 139.397 285.046 139.211 284.7 139.024C284.355 138.837 284.089 138.613 283.902 138.352C283.716 138.091 283.622 137.755 283.622 137.344C283.622 136.709 283.879 136.219 284.392 135.874C284.915 135.529 285.596 135.356 286.436 135.356C286.894 135.356 287.318 135.403 287.71 135.496C288.112 135.589 288.485 135.711 288.83 135.86L288.41 136.84C288.093 136.709 287.762 136.597 287.416 136.504C287.071 136.411 286.716 136.364 286.352 136.364C285.848 136.364 285.461 136.448 285.19 136.616C284.929 136.775 284.798 136.994 284.798 137.274C284.798 137.489 284.859 137.666 284.98 137.806C285.102 137.946 285.302 138.086 285.582 138.226C285.872 138.366 286.254 138.525 286.73 138.702C287.206 138.879 287.612 139.061 287.948 139.248C288.284 139.435 288.541 139.663 288.718 139.934C288.896 140.195 288.984 140.527 288.984 140.928ZM295.683 140.928C295.683 141.656 295.413 142.207 294.871 142.58C294.33 142.953 293.602 143.14 292.687 143.14C292.165 143.14 291.712 143.098 291.329 143.014C290.956 142.93 290.625 142.813 290.335 142.664V141.544C290.634 141.693 290.993 141.833 291.413 141.964C291.843 142.085 292.277 142.146 292.715 142.146C293.341 142.146 293.793 142.048 294.073 141.852C294.353 141.647 294.493 141.376 294.493 141.04C294.493 140.853 294.442 140.685 294.339 140.536C294.237 140.387 294.05 140.237 293.779 140.088C293.518 139.939 293.14 139.771 292.645 139.584C292.16 139.397 291.745 139.211 291.399 139.024C291.054 138.837 290.788 138.613 290.601 138.352C290.415 138.091 290.321 137.755 290.321 137.344C290.321 136.709 290.578 136.219 291.091 135.874C291.614 135.529 292.295 135.356 293.135 135.356C293.593 135.356 294.017 135.403 294.409 135.496C294.811 135.589 295.184 135.711 295.529 135.86L295.109 136.84C294.792 136.709 294.461 136.597 294.115 136.504C293.77 136.411 293.415 136.364 293.051 136.364C292.547 136.364 292.16 136.448 291.889 136.616C291.628 136.775 291.497 136.994 291.497 137.274C291.497 137.489 291.558 137.666 291.679 137.806C291.801 137.946 292.001 138.086 292.281 138.226C292.571 138.366 292.953 138.525 293.429 138.702C293.905 138.879 294.311 139.061 294.647 139.248C294.983 139.435 295.24 139.663 295.417 139.934C295.595 140.195 295.683 140.527 295.683 140.928ZM300.339 135.37C301.253 135.37 301.93 135.571 302.369 135.972C302.807 136.373 303.027 137.013 303.027 137.89V143H302.131L301.893 141.936H301.837C301.51 142.347 301.165 142.65 300.801 142.846C300.437 143.042 299.942 143.14 299.317 143.14C298.635 143.14 298.071 142.963 297.623 142.608C297.175 142.244 296.951 141.679 296.951 140.914C296.951 140.167 297.245 139.593 297.833 139.192C298.421 138.781 299.326 138.557 300.549 138.52L301.823 138.478V138.03C301.823 137.405 301.687 136.971 301.417 136.728C301.146 136.485 300.763 136.364 300.269 136.364C299.877 136.364 299.503 136.425 299.149 136.546C298.794 136.658 298.463 136.789 298.155 136.938L297.777 136.014C298.103 135.837 298.491 135.687 298.939 135.566C299.387 135.435 299.853 135.37 300.339 135.37ZM301.809 139.332L300.703 139.374C299.769 139.411 299.121 139.561 298.757 139.822C298.402 140.083 298.225 140.452 298.225 140.928C298.225 141.348 298.351 141.656 298.603 141.852C298.864 142.048 299.195 142.146 299.597 142.146C300.222 142.146 300.745 141.973 301.165 141.628C301.594 141.273 301.809 140.732 301.809 140.004V139.332ZM308.004 135.356C308.499 135.356 308.942 135.449 309.334 135.636C309.736 135.823 310.076 136.107 310.356 136.49H310.426L310.594 135.496H311.574V143.126C311.574 144.199 311.299 145.007 310.748 145.548C310.207 146.089 309.362 146.36 308.214 146.36C307.113 146.36 306.212 146.201 305.512 145.884V144.75C306.25 145.142 307.174 145.338 308.284 145.338C308.928 145.338 309.432 145.147 309.796 144.764C310.17 144.391 310.356 143.877 310.356 143.224V142.93C310.356 142.818 310.361 142.659 310.37 142.454C310.38 142.239 310.389 142.09 310.398 142.006H310.342C309.838 142.762 309.064 143.14 308.018 143.14C307.048 143.14 306.287 142.799 305.736 142.118C305.195 141.437 304.924 140.485 304.924 139.262C304.924 138.067 305.195 137.12 305.736 136.42C306.287 135.711 307.043 135.356 308.004 135.356ZM308.172 136.392C307.547 136.392 307.062 136.644 306.716 137.148C306.371 137.643 306.198 138.352 306.198 139.276C306.198 140.2 306.366 140.909 306.702 141.404C307.038 141.889 307.538 142.132 308.2 142.132C308.956 142.132 309.507 141.931 309.852 141.53C310.198 141.119 310.37 140.461 310.37 139.556V139.262C310.37 138.245 310.193 137.512 309.838 137.064C309.484 136.616 308.928 136.392 308.172 136.392ZM316.856 135.356C317.49 135.356 318.041 135.496 318.508 135.776C318.974 136.056 319.329 136.453 319.572 136.966C319.824 137.47 319.95 138.063 319.95 138.744V139.486H314.812C314.83 140.335 315.045 140.984 315.456 141.432C315.876 141.871 316.459 142.09 317.206 142.09C317.682 142.09 318.102 142.048 318.466 141.964C318.839 141.871 319.222 141.74 319.614 141.572V142.65C319.231 142.818 318.853 142.939 318.48 143.014C318.106 143.098 317.663 143.14 317.15 143.14C316.431 143.14 315.801 142.995 315.26 142.706C314.718 142.417 314.294 141.987 313.986 141.418C313.687 140.849 313.538 140.144 313.538 139.304C313.538 138.483 313.673 137.778 313.944 137.19C314.224 136.602 314.611 136.149 315.106 135.832C315.61 135.515 316.193 135.356 316.856 135.356ZM316.842 136.364C316.254 136.364 315.787 136.555 315.442 136.938C315.106 137.311 314.905 137.834 314.84 138.506H318.662C318.652 137.871 318.503 137.358 318.214 136.966C317.924 136.565 317.467 136.364 316.842 136.364Z" fill="black"/>
</g>
<rect x="490.5" y="104.5" width="77" height="35" rx="1.5" fill="white"/>
<path d="M507.358 117.004H510.214C511.455 117.004 512.398 117.191 513.042 117.564C513.686 117.937 514.008 118.577 514.008 119.482C514.008 120.07 513.845 120.56 513.518 120.952C513.191 121.335 512.72 121.582 512.104 121.694V121.764C512.524 121.839 512.902 121.965 513.238 122.142C513.583 122.319 513.854 122.571 514.05 122.898C514.246 123.225 514.344 123.645 514.344 124.158C514.344 125.063 514.031 125.763 513.406 126.258C512.79 126.753 511.945 127 510.872 127H507.358V117.004ZM508.618 121.26H510.466C511.315 121.26 511.899 121.125 512.216 120.854C512.543 120.574 512.706 120.163 512.706 119.622C512.706 119.071 512.51 118.679 512.118 118.446C511.735 118.203 511.119 118.082 510.27 118.082H508.618V121.26ZM508.618 122.31V125.936H510.634C511.521 125.936 512.137 125.763 512.482 125.418C512.827 125.073 513 124.62 513 124.06C513 123.537 512.818 123.117 512.454 122.8C512.099 122.473 511.46 122.31 510.536 122.31H508.618ZM522.567 119.496V127H521.559L521.377 126.006H521.321C521.079 126.398 520.743 126.687 520.313 126.874C519.884 127.051 519.427 127.14 518.941 127.14C518.036 127.14 517.355 126.925 516.897 126.496C516.44 126.057 516.211 125.362 516.211 124.41V119.496H517.457V124.326C517.457 125.521 518.013 126.118 519.123 126.118C519.954 126.118 520.528 125.885 520.845 125.418C521.172 124.951 521.335 124.279 521.335 123.402V119.496H522.567ZM527.456 126.132C527.642 126.132 527.834 126.118 528.03 126.09C528.226 126.062 528.384 126.025 528.506 125.978V126.916C528.375 126.981 528.188 127.033 527.946 127.07C527.703 127.117 527.47 127.14 527.246 127.14C526.854 127.14 526.49 127.075 526.154 126.944C525.827 126.804 525.561 126.566 525.356 126.23C525.15 125.894 525.048 125.423 525.048 124.816V120.448H523.984V119.86L525.062 119.37L525.552 117.774H526.28V119.496H528.45V120.448H526.28V124.788C526.28 125.245 526.387 125.586 526.602 125.81C526.826 126.025 527.11 126.132 527.456 126.132ZM532.514 126.132C532.701 126.132 532.892 126.118 533.088 126.09C533.284 126.062 533.443 126.025 533.564 125.978V126.916C533.434 126.981 533.247 127.033 533.004 127.07C532.762 127.117 532.528 127.14 532.304 127.14C531.912 127.14 531.548 127.075 531.212 126.944C530.886 126.804 530.62 126.566 530.414 126.23C530.209 125.894 530.106 125.423 530.106 124.816V120.448H529.042V119.86L530.12 119.37L530.61 117.774H531.338V119.496H533.508V120.448H531.338V124.788C531.338 125.245 531.446 125.586 531.66 125.81C531.884 126.025 532.169 126.132 532.514 126.132ZM541.591 123.234C541.591 124.475 541.274 125.437 540.639 126.118C540.014 126.799 539.164 127.14 538.091 127.14C537.428 127.14 536.836 126.991 536.313 126.692C535.8 126.384 535.394 125.941 535.095 125.362C534.796 124.774 534.647 124.065 534.647 123.234C534.647 121.993 534.955 121.036 535.571 120.364C536.196 119.692 537.05 119.356 538.133 119.356C538.805 119.356 539.402 119.51 539.925 119.818C540.448 120.117 540.854 120.555 541.143 121.134C541.442 121.703 541.591 122.403 541.591 123.234ZM535.921 123.234C535.921 124.121 536.094 124.825 536.439 125.348C536.794 125.861 537.354 126.118 538.119 126.118C538.875 126.118 539.43 125.861 539.785 125.348C540.14 124.825 540.317 124.121 540.317 123.234C540.317 122.347 540.14 121.652 539.785 121.148C539.43 120.644 538.87 120.392 538.105 120.392C537.34 120.392 536.784 120.644 536.439 121.148C536.094 121.652 535.921 122.347 535.921 123.234ZM547.156 119.356C548.052 119.356 548.728 119.575 549.186 120.014C549.643 120.453 549.872 121.153 549.872 122.114V127H548.654V122.198C548.654 120.994 548.094 120.392 546.974 120.392C546.143 120.392 545.569 120.625 545.252 121.092C544.934 121.559 544.776 122.231 544.776 123.108V127H543.544V119.496H544.538L544.72 120.518H544.79C545.032 120.126 545.368 119.837 545.798 119.65C546.227 119.454 546.68 119.356 547.156 119.356Z" fill="#DA291C"/>
<rect x="490.5" y="104.5" width="77" height="35" rx="1.5" stroke="#DA291C"/>
<rect x="576.5" y="104.5" width="77" height="35" rx="1.5" fill="white"/>
<path d="M593.358 117.004H596.214C597.455 117.004 598.398 117.191 599.042 117.564C599.686 117.937 600.008 118.577 600.008 119.482C600.008 120.07 599.845 120.56 599.518 120.952C599.191 121.335 598.72 121.582 598.104 121.694V121.764C598.524 121.839 598.902 121.965 599.238 122.142C599.583 122.319 599.854 122.571 600.05 122.898C600.246 123.225 600.344 123.645 600.344 124.158C600.344 125.063 600.031 125.763 599.406 126.258C598.79 126.753 597.945 127 596.872 127H593.358V117.004ZM594.618 121.26H596.466C597.315 121.26 597.899 121.125 598.216 120.854C598.543 120.574 598.706 120.163 598.706 119.622C598.706 119.071 598.51 118.679 598.118 118.446C597.735 118.203 597.119 118.082 596.27 118.082H594.618V121.26ZM594.618 122.31V125.936H596.634C597.521 125.936 598.137 125.763 598.482 125.418C598.827 125.073 599 124.62 599 124.06C599 123.537 598.818 123.117 598.454 122.8C598.099 122.473 597.46 122.31 596.536 122.31H594.618ZM608.567 119.496V127H607.559L607.377 126.006H607.321C607.079 126.398 606.743 126.687 606.313 126.874C605.884 127.051 605.427 127.14 604.941 127.14C604.036 127.14 603.355 126.925 602.897 126.496C602.44 126.057 602.211 125.362 602.211 124.41V119.496H603.457V124.326C603.457 125.521 604.013 126.118 605.123 126.118C605.954 126.118 606.528 125.885 606.845 125.418C607.172 124.951 607.335 124.279 607.335 123.402V119.496H608.567ZM613.456 126.132C613.642 126.132 613.834 126.118 614.03 126.09C614.226 126.062 614.384 126.025 614.506 125.978V126.916C614.375 126.981 614.188 127.033 613.946 127.07C613.703 127.117 613.47 127.14 613.246 127.14C612.854 127.14 612.49 127.075 612.154 126.944C611.827 126.804 611.561 126.566 611.356 126.23C611.15 125.894 611.048 125.423 611.048 124.816V120.448H609.984V119.86L611.062 119.37L611.552 117.774H612.28V119.496H614.45V120.448H612.28V124.788C612.28 125.245 612.387 125.586 612.602 125.81C612.826 126.025 613.11 126.132 613.456 126.132ZM618.514 126.132C618.701 126.132 618.892 126.118 619.088 126.09C619.284 126.062 619.443 126.025 619.564 125.978V126.916C619.434 126.981 619.247 127.033 619.004 127.07C618.762 127.117 618.528 127.14 618.304 127.14C617.912 127.14 617.548 127.075 617.212 126.944C616.886 126.804 616.62 126.566 616.414 126.23C616.209 125.894 616.106 125.423 616.106 124.816V120.448H615.042V119.86L616.12 119.37L616.61 117.774H617.338V119.496H619.508V120.448H617.338V124.788C617.338 125.245 617.446 125.586 617.66 125.81C617.884 126.025 618.169 126.132 618.514 126.132ZM627.591 123.234C627.591 124.475 627.274 125.437 626.639 126.118C626.014 126.799 625.164 127.14 624.091 127.14C623.428 127.14 622.836 126.991 622.313 126.692C621.8 126.384 621.394 125.941 621.095 125.362C620.796 124.774 620.647 124.065 620.647 123.234C620.647 121.993 620.955 121.036 621.571 120.364C622.196 119.692 623.05 119.356 624.133 119.356C624.805 119.356 625.402 119.51 625.925 119.818C626.448 120.117 626.854 120.555 627.143 121.134C627.442 121.703 627.591 122.403 627.591 123.234ZM621.921 123.234C621.921 124.121 622.094 124.825 622.439 125.348C622.794 125.861 623.354 126.118 624.119 126.118C624.875 126.118 625.43 125.861 625.785 125.348C626.14 124.825 626.317 124.121 626.317 123.234C626.317 122.347 626.14 121.652 625.785 121.148C625.43 120.644 624.87 120.392 624.105 120.392C623.34 120.392 622.784 120.644 622.439 121.148C622.094 121.652 621.921 122.347 621.921 123.234ZM633.156 119.356C634.052 119.356 634.728 119.575 635.186 120.014C635.643 120.453 635.872 121.153 635.872 122.114V127H634.654V122.198C634.654 120.994 634.094 120.392 632.974 120.392C632.143 120.392 631.569 120.625 631.252 121.092C630.934 121.559 630.776 122.231 630.776 123.108V127H629.544V119.496H630.538L630.72 120.518H630.79C631.032 120.126 631.368 119.837 631.798 119.65C632.227 119.454 632.68 119.356 633.156 119.356Z" fill="#DA291C"/>
<rect x="576.5" y="104.5" width="77" height="35" rx="1.5" stroke="#DA291C"/>
<rect x="110.5" y="84.5" width="559" height="75" rx="3.5" stroke="#FFC0BE"/>
<rect opacity="0.4" x="568" y="84" width="8" height="100" fill="white"/>
<rect opacity="0.12" x="568" y="84" width="8" height="100" fill="#D51588"/>
<path opacity="0.5" d="M576 84L576 184" stroke="#D51588" stroke-dasharray="3 3"/>
<path opacity="0.5" d="M568 84L568 184" stroke="#D51588" stroke-dasharray="3 3"/>
<path d="M572 184V200" stroke="#D51588"/>
<path d="M562.018 204.878C562.596 204.878 563.119 204.967 563.586 205.144C564.052 205.321 564.426 205.592 564.706 205.956C564.986 206.311 565.126 206.749 565.126 207.272C565.126 207.869 564.948 208.364 564.594 208.756C564.239 209.139 563.805 209.461 563.292 209.722C563.674 209.918 564.029 210.137 564.356 210.38C564.682 210.623 564.944 210.912 565.14 211.248C565.345 211.575 565.448 211.962 565.448 212.41C565.448 212.961 565.303 213.441 565.014 213.852C564.724 214.263 564.323 214.58 563.81 214.804C563.306 215.028 562.713 215.14 562.032 215.14C560.921 215.14 560.067 214.902 559.47 214.426C558.872 213.95 558.574 213.297 558.574 212.466C558.574 212.009 558.662 211.612 558.84 211.276C559.017 210.94 559.255 210.651 559.554 210.408C559.852 210.165 560.184 209.955 560.548 209.778C560.09 209.498 559.698 209.162 559.372 208.77C559.054 208.369 558.896 207.865 558.896 207.258C558.896 206.745 559.036 206.311 559.316 205.956C559.605 205.601 559.983 205.335 560.45 205.158C560.926 204.971 561.448 204.878 562.018 204.878ZM562.004 206.208C561.593 206.208 561.252 206.311 560.982 206.516C560.72 206.721 560.59 207.011 560.59 207.384C560.59 207.795 560.73 208.121 561.01 208.364C561.29 208.607 561.63 208.817 562.032 208.994C562.414 208.826 562.741 208.621 563.012 208.378C563.292 208.135 563.432 207.804 563.432 207.384C563.432 207.011 563.296 206.721 563.026 206.516C562.764 206.311 562.424 206.208 562.004 206.208ZM560.254 212.382C560.254 212.793 560.398 213.133 560.688 213.404C560.977 213.665 561.416 213.796 562.004 213.796C562.582 213.796 563.021 213.665 563.32 213.404C563.618 213.143 563.768 212.802 563.768 212.382C563.768 211.962 563.6 211.612 563.264 211.332C562.928 211.052 562.531 210.809 562.074 210.604L561.878 210.506C561.374 210.739 560.977 211.005 560.688 211.304C560.398 211.593 560.254 211.953 560.254 212.382ZM574.786 207.272C575.673 207.272 576.387 207.603 576.928 208.266C577.469 208.919 577.74 209.895 577.74 211.192C577.74 212.489 577.46 213.474 576.9 214.146C576.349 214.809 575.631 215.14 574.744 215.14C574.184 215.14 573.731 215.037 573.386 214.832C573.041 214.627 572.765 214.389 572.56 214.118H572.448C572.476 214.295 572.499 214.487 572.518 214.692C572.546 214.897 572.56 215.093 572.56 215.28V218.36H570.796V207.412H572.224L572.476 208.42H572.56C572.775 208.103 573.055 207.832 573.4 207.608C573.745 207.384 574.207 207.272 574.786 207.272ZM574.282 208.7C573.657 208.7 573.213 208.887 572.952 209.26C572.7 209.633 572.569 210.198 572.56 210.954V211.178C572.56 211.99 572.681 212.615 572.924 213.054C573.176 213.483 573.638 213.698 574.31 213.698C574.861 213.698 575.267 213.474 575.528 213.026C575.799 212.569 575.934 211.948 575.934 211.164C575.934 210.38 575.799 209.773 575.528 209.344C575.267 208.915 574.851 208.7 574.282 208.7ZM580.924 211.122L578.418 207.412H580.42L582.072 209.988L583.724 207.412H585.726L583.192 211.122L585.852 215H583.85L582.072 212.242L580.294 215H578.292L580.924 211.122Z" fill="#D51588"/>
<rect opacity="0.4" x="482" y="84" width="8" height="100" fill="white"/>
<rect opacity="0.12" x="482" y="84" width="8" height="100" fill="#D51588"/>
<path opacity="0.5" d="M490 84L490 184" stroke="#D51588" stroke-dasharray="3 3"/>
<path opacity="0.5" d="M482 84L482 184" stroke="#D51588" stroke-dasharray="3 3"/>
<path d="M486 184V200" stroke="#D51588"/>
<path d="M476.018 204.878C476.596 204.878 477.119 204.967 477.586 205.144C478.052 205.321 478.426 205.592 478.706 205.956C478.986 206.311 479.126 206.749 479.126 207.272C479.126 207.869 478.948 208.364 478.594 208.756C478.239 209.139 477.805 209.461 477.292 209.722C477.674 209.918 478.029 210.137 478.356 210.38C478.682 210.623 478.944 210.912 479.14 211.248C479.345 211.575 479.448 211.962 479.448 212.41C479.448 212.961 479.303 213.441 479.014 213.852C478.724 214.263 478.323 214.58 477.81 214.804C477.306 215.028 476.713 215.14 476.032 215.14C474.921 215.14 474.067 214.902 473.47 214.426C472.872 213.95 472.574 213.297 472.574 212.466C472.574 212.009 472.662 211.612 472.84 211.276C473.017 210.94 473.255 210.651 473.554 210.408C473.852 210.165 474.184 209.955 474.548 209.778C474.09 209.498 473.698 209.162 473.372 208.77C473.054 208.369 472.896 207.865 472.896 207.258C472.896 206.745 473.036 206.311 473.316 205.956C473.605 205.601 473.983 205.335 474.45 205.158C474.926 204.971 475.448 204.878 476.018 204.878ZM476.004 206.208C475.593 206.208 475.252 206.311 474.982 206.516C474.72 206.721 474.59 207.011 474.59 207.384C474.59 207.795 474.73 208.121 475.01 208.364C475.29 208.607 475.63 208.817 476.032 208.994C476.414 208.826 476.741 208.621 477.012 208.378C477.292 208.135 477.432 207.804 477.432 207.384C477.432 207.011 477.296 206.721 477.026 206.516C476.764 206.311 476.424 206.208 476.004 206.208ZM474.254 212.382C474.254 212.793 474.398 213.133 474.688 213.404C474.977 213.665 475.416 213.796 476.004 213.796C476.582 213.796 477.021 213.665 477.32 213.404C477.618 213.143 477.768 212.802 477.768 212.382C477.768 211.962 477.6 211.612 477.264 211.332C476.928 211.052 476.531 210.809 476.074 210.604L475.878 210.506C475.374 210.739 474.977 211.005 474.688 211.304C474.398 211.593 474.254 211.953 474.254 212.382ZM488.786 207.272C489.673 207.272 490.387 207.603 490.928 208.266C491.469 208.919 491.74 209.895 491.74 211.192C491.74 212.489 491.46 213.474 490.9 214.146C490.349 214.809 489.631 215.14 488.744 215.14C488.184 215.14 487.731 215.037 487.386 214.832C487.041 214.627 486.765 214.389 486.56 214.118H486.448C486.476 214.295 486.499 214.487 486.518 214.692C486.546 214.897 486.56 215.093 486.56 215.28V218.36H484.796V207.412H486.224L486.476 208.42H486.56C486.775 208.103 487.055 207.832 487.4 207.608C487.745 207.384 488.207 207.272 488.786 207.272ZM488.282 208.7C487.657 208.7 487.213 208.887 486.952 209.26C486.7 209.633 486.569 210.198 486.56 210.954V211.178C486.56 211.99 486.681 212.615 486.924 213.054C487.176 213.483 487.638 213.698 488.31 213.698C488.861 213.698 489.267 213.474 489.528 213.026C489.799 212.569 489.934 211.948 489.934 211.164C489.934 210.38 489.799 209.773 489.528 209.344C489.267 208.915 488.851 208.7 488.282 208.7ZM494.924 211.122L492.418 207.412H494.42L496.072 209.988L497.724 207.412H499.726L497.192 211.122L499.852 215H497.85L496.072 212.242L494.294 215H492.292L494.924 211.122Z" fill="#D51588"/>
<rect opacity="0.4" x="158" y="84" width="8" height="100" fill="white"/>
<rect opacity="0.12" x="158" y="84" width="8" height="100" fill="#D51588"/>
<path opacity="0.5" d="M166 84L166 184" stroke="#D51588" stroke-dasharray="3 3"/>
<path opacity="0.5" d="M158 84L158 184" stroke="#D51588" stroke-dasharray="3 3"/>
<path d="M162 184V200" stroke="#D51588"/>
<path d="M152.018 204.878C152.596 204.878 153.119 204.967 153.586 205.144C154.052 205.321 154.426 205.592 154.706 205.956C154.986 206.311 155.126 206.749 155.126 207.272C155.126 207.869 154.948 208.364 154.594 208.756C154.239 209.139 153.805 209.461 153.292 209.722C153.674 209.918 154.029 210.137 154.356 210.38C154.682 210.623 154.944 210.912 155.14 211.248C155.345 211.575 155.448 211.962 155.448 212.41C155.448 212.961 155.303 213.441 155.014 213.852C154.724 214.263 154.323 214.58 153.81 214.804C153.306 215.028 152.713 215.14 152.032 215.14C150.921 215.14 150.067 214.902 149.47 214.426C148.872 213.95 148.574 213.297 148.574 212.466C148.574 212.009 148.662 211.612 148.84 211.276C149.017 210.94 149.255 210.651 149.554 210.408C149.852 210.165 150.184 209.955 150.548 209.778C150.09 209.498 149.698 209.162 149.372 208.77C149.054 208.369 148.896 207.865 148.896 207.258C148.896 206.745 149.036 206.311 149.316 205.956C149.605 205.601 149.983 205.335 150.45 205.158C150.926 204.971 151.448 204.878 152.018 204.878ZM152.004 206.208C151.593 206.208 151.252 206.311 150.982 206.516C150.72 206.721 150.59 207.011 150.59 207.384C150.59 207.795 150.73 208.121 151.01 208.364C151.29 208.607 151.63 208.817 152.032 208.994C152.414 208.826 152.741 208.621 153.012 208.378C153.292 208.135 153.432 207.804 153.432 207.384C153.432 207.011 153.296 206.721 153.026 206.516C152.764 206.311 152.424 206.208 152.004 206.208ZM150.254 212.382C150.254 212.793 150.398 213.133 150.688 213.404C150.977 213.665 151.416 213.796 152.004 213.796C152.582 213.796 153.021 213.665 153.32 213.404C153.618 213.143 153.768 212.802 153.768 212.382C153.768 211.962 153.6 211.612 153.264 211.332C152.928 211.052 152.531 210.809 152.074 210.604L151.878 210.506C151.374 210.739 150.977 211.005 150.688 211.304C150.398 211.593 150.254 211.953 150.254 212.382ZM164.786 207.272C165.673 207.272 166.387 207.603 166.928 208.266C167.469 208.919 167.74 209.895 167.74 211.192C167.74 212.489 167.46 213.474 166.9 214.146C166.349 214.809 165.631 215.14 164.744 215.14C164.184 215.14 163.731 215.037 163.386 214.832C163.041 214.627 162.765 214.389 162.56 214.118H162.448C162.476 214.295 162.499 214.487 162.518 214.692C162.546 214.897 162.56 215.093 162.56 215.28V218.36H160.796V207.412H162.224L162.476 208.42H162.56C162.775 208.103 163.055 207.832 163.4 207.608C163.745 207.384 164.207 207.272 164.786 207.272ZM164.282 208.7C163.657 208.7 163.213 208.887 162.952 209.26C162.7 209.633 162.569 210.198 162.56 210.954V211.178C162.56 211.99 162.681 212.615 162.924 213.054C163.176 213.483 163.638 213.698 164.31 213.698C164.861 213.698 165.267 213.474 165.528 213.026C165.799 212.569 165.934 211.948 165.934 211.164C165.934 210.38 165.799 209.773 165.528 209.344C165.267 208.915 164.851 208.7 164.282 208.7ZM170.924 211.122L168.418 207.412H170.42L172.072 209.988L173.724 207.412H175.726L173.192 211.122L175.852 215H173.85L172.072 212.242L170.294 215H168.292L170.924 211.122Z" fill="#D51588"/>
<rect opacity="0.4" x="110" y="84" width="16" height="100" fill="white"/>
<rect opacity="0.12" x="110" y="84" width="16" height="100" fill="#D51588"/>
<path opacity="0.5" d="M126 84L126 184" stroke="#D51588" stroke-dasharray="3 3"/>
<path opacity="0.5" d="M110 84L110 184" stroke="#D51588" stroke-dasharray="3 3"/>
<path d="M118 184V200" stroke="#D51588"/>
<path d="M105.482 215H103.718V208.77C103.718 208.471 103.722 208.154 103.732 207.818C103.741 207.482 103.755 207.169 103.774 206.88C103.68 206.973 103.564 207.085 103.424 207.216C103.293 207.347 103.148 207.473 102.99 207.594L101.87 208.49L100.988 207.398L104.012 205.004H105.482V215ZM108.622 210.744C108.622 210.165 108.659 209.596 108.734 209.036C108.818 208.476 108.962 207.949 109.168 207.454C109.373 206.95 109.658 206.507 110.022 206.124C110.386 205.732 110.848 205.429 111.408 205.214C111.977 204.99 112.663 204.878 113.466 204.878C113.662 204.878 113.886 204.887 114.138 204.906C114.39 204.925 114.6 204.953 114.768 204.99V206.446C114.404 206.343 114.002 206.292 113.564 206.292C112.724 206.292 112.07 206.446 111.604 206.754C111.137 207.053 110.81 207.468 110.624 208C110.437 208.523 110.325 209.111 110.288 209.764H110.372C110.568 209.437 110.848 209.162 111.212 208.938C111.576 208.705 112.047 208.588 112.626 208.588C113.494 208.588 114.189 208.859 114.712 209.4C115.234 209.941 115.496 210.711 115.496 211.71C115.496 212.783 115.197 213.623 114.6 214.23C114.002 214.837 113.195 215.14 112.178 215.14C111.515 215.14 110.913 214.981 110.372 214.664C109.84 214.347 109.415 213.866 109.098 213.222C108.78 212.569 108.622 211.743 108.622 210.744ZM112.15 213.698C112.626 213.698 113.013 213.539 113.312 213.222C113.61 212.895 113.76 212.396 113.76 211.724C113.76 211.183 113.629 210.758 113.368 210.45C113.106 210.133 112.714 209.974 112.192 209.974C111.828 209.974 111.51 210.053 111.24 210.212C110.978 210.361 110.773 210.557 110.624 210.8C110.474 211.033 110.4 211.276 110.4 211.528C110.4 211.873 110.465 212.214 110.596 212.55C110.726 212.877 110.918 213.152 111.17 213.376C111.431 213.591 111.758 213.698 112.15 213.698ZM124.792 207.272C125.679 207.272 126.393 207.603 126.934 208.266C127.475 208.919 127.746 209.895 127.746 211.192C127.746 212.489 127.466 213.474 126.906 214.146C126.355 214.809 125.637 215.14 124.75 215.14C124.19 215.14 123.737 215.037 123.392 214.832C123.047 214.627 122.771 214.389 122.566 214.118H122.454C122.482 214.295 122.505 214.487 122.524 214.692C122.552 214.897 122.566 215.093 122.566 215.28V218.36H120.802V207.412H122.23L122.482 208.42H122.566C122.781 208.103 123.061 207.832 123.406 207.608C123.751 207.384 124.213 207.272 124.792 207.272ZM124.288 208.7C123.663 208.7 123.219 208.887 122.958 209.26C122.706 209.633 122.575 210.198 122.566 210.954V211.178C122.566 211.99 122.687 212.615 122.93 213.054C123.182 213.483 123.644 213.698 124.316 213.698C124.867 213.698 125.273 213.474 125.534 213.026C125.805 212.569 125.94 211.948 125.94 211.164C125.94 210.38 125.805 209.773 125.534 209.344C125.273 208.915 124.857 208.7 124.288 208.7ZM130.93 211.122L128.424 207.412H130.426L132.078 209.988L133.73 207.412H135.732L133.198 211.122L135.858 215H133.856L132.078 212.242L130.3 215H128.298L130.93 211.122Z" fill="#D51588"/>
<rect opacity="0.4" x="654" y="84" width="16" height="100" fill="white"/>
<rect opacity="0.12" x="654" y="84" width="16" height="100" fill="#D51588"/>
<path opacity="0.5" d="M670 84L670 184" stroke="#D51588" stroke-dasharray="3 3"/>
<path opacity="0.5" d="M654 84L654 184" stroke="#D51588" stroke-dasharray="3 3"/>
<path d="M662 184V200" stroke="#D51588"/>
<path d="M649.482 215H647.718V208.77C647.718 208.471 647.722 208.154 647.732 207.818C647.741 207.482 647.755 207.169 647.774 206.88C647.68 206.973 647.564 207.085 647.424 207.216C647.293 207.347 647.148 207.473 646.99 207.594L645.87 208.49L644.988 207.398L648.012 205.004H649.482V215ZM652.622 210.744C652.622 210.165 652.659 209.596 652.734 209.036C652.818 208.476 652.962 207.949 653.168 207.454C653.373 206.95 653.658 206.507 654.022 206.124C654.386 205.732 654.848 205.429 655.408 205.214C655.977 204.99 656.663 204.878 657.466 204.878C657.662 204.878 657.886 204.887 658.138 204.906C658.39 204.925 658.6 204.953 658.768 204.99V206.446C658.404 206.343 658.002 206.292 657.564 206.292C656.724 206.292 656.07 206.446 655.604 206.754C655.137 207.053 654.81 207.468 654.624 208C654.437 208.523 654.325 209.111 654.288 209.764H654.372C654.568 209.437 654.848 209.162 655.212 208.938C655.576 208.705 656.047 208.588 656.626 208.588C657.494 208.588 658.189 208.859 658.712 209.4C659.234 209.941 659.496 210.711 659.496 211.71C659.496 212.783 659.197 213.623 658.6 214.23C658.002 214.837 657.195 215.14 656.178 215.14C655.515 215.14 654.913 214.981 654.372 214.664C653.84 214.347 653.415 213.866 653.098 213.222C652.78 212.569 652.622 211.743 652.622 210.744ZM656.15 213.698C656.626 213.698 657.013 213.539 657.312 213.222C657.61 212.895 657.76 212.396 657.76 211.724C657.76 211.183 657.629 210.758 657.368 210.45C657.106 210.133 656.714 209.974 656.192 209.974C655.828 209.974 655.51 210.053 655.24 210.212C654.978 210.361 654.773 210.557 654.624 210.8C654.474 211.033 654.4 211.276 654.4 211.528C654.4 211.873 654.465 212.214 654.596 212.55C654.726 212.877 654.918 213.152 655.17 213.376C655.431 213.591 655.758 213.698 656.15 213.698ZM668.792 207.272C669.679 207.272 670.393 207.603 670.934 208.266C671.475 208.919 671.746 209.895 671.746 211.192C671.746 212.489 671.466 213.474 670.906 214.146C670.355 214.809 669.637 215.14 668.75 215.14C668.19 215.14 667.737 215.037 667.392 214.832C667.047 214.627 666.771 214.389 666.566 214.118H666.454C666.482 214.295 666.505 214.487 666.524 214.692C666.552 214.897 666.566 215.093 666.566 215.28V218.36H664.802V207.412H666.23L666.482 208.42H666.566C666.781 208.103 667.061 207.832 667.406 207.608C667.751 207.384 668.213 207.272 668.792 207.272ZM668.288 208.7C667.663 208.7 667.219 208.887 666.958 209.26C666.706 209.633 666.575 210.198 666.566 210.954V211.178C666.566 211.99 666.687 212.615 666.93 213.054C667.182 213.483 667.644 213.698 668.316 213.698C668.867 213.698 669.273 213.474 669.534 213.026C669.805 212.569 669.94 211.948 669.94 211.164C669.94 210.38 669.805 209.773 669.534 209.344C669.273 208.915 668.857 208.7 668.288 208.7ZM674.93 211.122L672.424 207.412H674.426L676.078 209.988L677.73 207.412H679.732L677.198 211.122L679.858 215H677.856L676.078 212.242L674.3 215H672.298L674.93 211.122Z" fill="#D51588"/>
<path d="M332.4 31.004C333.716 31.004 334.687 31.2467 335.312 31.732C335.947 32.2173 336.264 32.9547 336.264 33.944C336.264 34.4293 336.171 34.8447 335.984 35.19C335.807 35.5353 335.569 35.8247 335.27 36.058C334.981 36.282 334.673 36.464 334.346 36.604L337.216 41H335.2L332.806 37.052H331.35V41H329.558V31.004H332.4ZM332.288 32.502H331.35V35.582H332.344C333.091 35.582 333.627 35.4513 333.954 35.19C334.281 34.9193 334.444 34.5227 334.444 34C334.444 33.4587 334.267 33.076 333.912 32.852C333.567 32.6187 333.025 32.502 332.288 32.502ZM341.493 33.272C342.51 33.272 343.313 33.5753 343.901 34.182C344.498 34.7887 344.797 35.6333 344.797 36.716V37.612H339.785C339.803 38.3027 339.995 38.8393 340.359 39.222C340.723 39.5953 341.227 39.782 341.871 39.782C342.356 39.782 342.795 39.7353 343.187 39.642C343.579 39.5393 343.98 39.3947 344.391 39.208V40.622C344.017 40.7993 343.63 40.93 343.229 41.014C342.827 41.098 342.347 41.14 341.787 41.14C341.04 41.14 340.382 41 339.813 40.72C339.243 40.4307 338.795 40.0013 338.469 39.432C338.151 38.8533 337.993 38.13 337.993 37.262C337.993 35.9647 338.31 34.9753 338.945 34.294C339.589 33.6127 340.438 33.272 341.493 33.272ZM341.493 34.574C341.017 34.574 340.629 34.728 340.331 35.036C340.041 35.3347 339.873 35.7827 339.827 36.38H343.089C343.079 35.8573 342.944 35.428 342.683 35.092C342.431 34.7467 342.034 34.574 341.493 34.574ZM351.741 38.802C351.741 39.5673 351.466 40.1507 350.915 40.552C350.374 40.944 349.595 41.14 348.577 41.14C348.045 41.14 347.588 41.1027 347.205 41.028C346.832 40.9533 346.468 40.8367 346.113 40.678V39.18C346.487 39.3573 346.897 39.5067 347.345 39.628C347.803 39.7493 348.232 39.81 348.633 39.81C349.119 39.81 349.469 39.7353 349.683 39.586C349.898 39.4367 350.005 39.236 350.005 38.984C350.005 38.8347 349.963 38.704 349.879 38.592C349.795 38.4707 349.632 38.34 349.389 38.2C349.147 38.06 348.778 37.8873 348.283 37.682C347.798 37.486 347.392 37.29 347.065 37.094C346.748 36.898 346.505 36.6647 346.337 36.394C346.179 36.1233 346.099 35.7733 346.099 35.344C346.099 34.6627 346.37 34.1493 346.911 33.804C347.453 33.4493 348.167 33.272 349.053 33.272C349.52 33.272 349.959 33.3187 350.369 33.412C350.789 33.5053 351.209 33.6453 351.629 33.832L351.069 35.134C350.715 34.9847 350.369 34.8587 350.033 34.756C349.697 34.6533 349.352 34.602 348.997 34.602C348.223 34.602 347.835 34.8213 347.835 35.26C347.835 35.4187 347.882 35.554 347.975 35.666C348.078 35.778 348.251 35.8993 348.493 36.03C348.745 36.1513 349.1 36.3007 349.557 36.478C350.005 36.6553 350.393 36.842 350.719 37.038C351.046 37.2247 351.298 37.458 351.475 37.738C351.653 38.0087 351.741 38.3633 351.741 38.802ZM357.429 33.272C358.315 33.272 359.029 33.6033 359.571 34.266C360.112 34.9193 360.383 35.8947 360.383 37.192C360.383 38.4893 360.103 39.474 359.543 40.146C358.992 40.8087 358.273 41.14 357.387 41.14C356.827 41.14 356.374 41.0373 356.029 40.832C355.683 40.6267 355.408 40.3887 355.203 40.118H355.091C355.119 40.2953 355.142 40.4867 355.161 40.692C355.189 40.8973 355.203 41.0933 355.203 41.28V44.36H353.439V33.412H354.867L355.119 34.42H355.203C355.417 34.1027 355.697 33.832 356.043 33.608C356.388 33.384 356.85 33.272 357.429 33.272ZM356.925 34.7C356.299 34.7 355.856 34.8867 355.595 35.26C355.343 35.6333 355.212 36.198 355.203 36.954V37.178C355.203 37.99 355.324 38.6153 355.567 39.054C355.819 39.4833 356.281 39.698 356.953 39.698C357.503 39.698 357.909 39.474 358.171 39.026C358.441 38.5687 358.577 37.948 358.577 37.164C358.577 36.38 358.441 35.7733 358.171 35.344C357.909 34.9147 357.494 34.7 356.925 34.7ZM368.978 37.192C368.978 38.452 368.652 39.4273 367.998 40.118C367.345 40.7993 366.458 41.14 365.338 41.14C364.648 41.14 364.032 40.986 363.49 40.678C362.949 40.37 362.524 39.922 362.216 39.334C361.908 38.746 361.754 38.032 361.754 37.192C361.754 35.932 362.076 34.966 362.72 34.294C363.374 33.6127 364.26 33.272 365.38 33.272C366.08 33.272 366.701 33.426 367.242 33.734C367.784 34.0327 368.208 34.476 368.516 35.064C368.824 35.6427 368.978 36.352 368.978 37.192ZM363.56 37.192C363.56 37.9947 363.7 38.6153 363.98 39.054C364.27 39.4927 364.732 39.712 365.366 39.712C365.992 39.712 366.449 39.4927 366.738 39.054C367.028 38.6153 367.172 37.9947 367.172 37.192C367.172 36.3893 367.028 35.7733 366.738 35.344C366.449 34.9147 365.987 34.7 365.352 34.7C364.718 34.7 364.26 34.9147 363.98 35.344C363.7 35.7733 363.56 36.3893 363.56 37.192ZM374.862 33.272C375.711 33.272 376.374 33.4913 376.85 33.93C377.335 34.3687 377.578 35.078 377.578 36.058V41H375.814V36.408C375.814 35.8387 375.702 35.414 375.478 35.134C375.254 34.8447 374.899 34.7 374.414 34.7C373.705 34.7 373.219 34.924 372.958 35.372C372.697 35.82 372.566 36.4593 372.566 37.29V41H370.802V33.412H372.16L372.412 34.406H372.51C372.753 34.014 373.084 33.7293 373.504 33.552C373.933 33.3653 374.386 33.272 374.862 33.272ZM384.95 38.802C384.95 39.5673 384.675 40.1507 384.124 40.552C383.583 40.944 382.804 41.14 381.786 41.14C381.254 41.14 380.797 41.1027 380.414 41.028C380.041 40.9533 379.677 40.8367 379.322 40.678V39.18C379.696 39.3573 380.106 39.5067 380.554 39.628C381.012 39.7493 381.441 39.81 381.842 39.81C382.328 39.81 382.678 39.7353 382.892 39.586C383.107 39.4367 383.214 39.236 383.214 38.984C383.214 38.8347 383.172 38.704 383.088 38.592C383.004 38.4707 382.841 38.34 382.598 38.2C382.356 38.06 381.987 37.8873 381.492 37.682C381.007 37.486 380.601 37.29 380.274 37.094C379.957 36.898 379.714 36.6647 379.546 36.394C379.388 36.1233 379.308 35.7733 379.308 35.344C379.308 34.6627 379.579 34.1493 380.12 33.804C380.662 33.4493 381.376 33.272 382.262 33.272C382.729 33.272 383.168 33.3187 383.578 33.412C383.998 33.5053 384.418 33.6453 384.838 33.832L384.278 35.134C383.924 34.9847 383.578 34.8587 383.242 34.756C382.906 34.6533 382.561 34.602 382.206 34.602C381.432 34.602 381.044 34.8213 381.044 35.26C381.044 35.4187 381.091 35.554 381.184 35.666C381.287 35.778 381.46 35.8993 381.702 36.03C381.954 36.1513 382.309 36.3007 382.766 36.478C383.214 36.6553 383.602 36.842 383.928 37.038C384.255 37.2247 384.507 37.458 384.684 37.738C384.862 38.0087 384.95 38.3633 384.95 38.802ZM387.53 30.486C387.791 30.486 388.02 30.556 388.216 30.696C388.412 30.8267 388.51 31.0647 388.51 31.41C388.51 31.7553 388.412 31.998 388.216 32.138C388.02 32.278 387.791 32.348 387.53 32.348C387.259 32.348 387.026 32.278 386.83 32.138C386.643 31.998 386.55 31.7553 386.55 31.41C386.55 31.0647 386.643 30.8267 386.83 30.696C387.026 30.556 387.259 30.486 387.53 30.486ZM388.412 33.412V41H386.648V33.412H388.412ZM392.417 41L389.533 33.412H391.395L392.907 37.794C393.01 38.0647 393.099 38.3633 393.173 38.69C393.248 39.0167 393.295 39.292 393.313 39.516H393.369C393.397 39.2733 393.453 38.9933 393.537 38.676C393.621 38.3587 393.71 38.0647 393.803 37.794L395.315 33.412H397.177L394.293 41H392.417ZM401.362 33.272C402.379 33.272 403.182 33.5753 403.77 34.182C404.367 34.7887 404.666 35.6333 404.666 36.716V37.612H399.654C399.672 38.3027 399.864 38.8393 400.228 39.222C400.592 39.5953 401.096 39.782 401.74 39.782C402.225 39.782 402.664 39.7353 403.056 39.642C403.448 39.5393 403.849 39.3947 404.26 39.208V40.622C403.886 40.7993 403.499 40.93 403.098 41.014C402.696 41.098 402.216 41.14 401.656 41.14C400.909 41.14 400.251 41 399.682 40.72C399.112 40.4307 398.664 40.0013 398.338 39.432C398.02 38.8533 397.862 38.13 397.862 37.262C397.862 35.9647 398.179 34.9753 398.814 34.294C399.458 33.6127 400.307 33.272 401.362 33.272ZM401.362 34.574C400.886 34.574 400.498 34.728 400.2 35.036C399.91 35.3347 399.742 35.7827 399.696 36.38H402.958C402.948 35.8573 402.813 35.428 402.552 35.092C402.3 34.7467 401.903 34.574 401.362 34.574ZM422.219 31.004L419.629 41H417.655L416.073 35.26C416.027 35.0733 415.966 34.8353 415.891 34.546C415.826 34.2473 415.761 33.9627 415.695 33.692C415.639 33.412 415.607 33.202 415.597 33.062C415.579 33.202 415.541 33.412 415.485 33.692C415.429 33.9627 415.369 34.2473 415.303 34.546C415.238 34.8353 415.177 35.0827 415.121 35.288L413.581 41H411.593L409.017 31.004H410.809L412.181 36.702C412.247 36.9447 412.307 37.22 412.363 37.528C412.429 37.836 412.489 38.144 412.545 38.452C412.601 38.7507 412.643 39.012 412.671 39.236C412.699 38.9933 412.741 38.7227 412.797 38.424C412.853 38.116 412.909 37.8173 412.965 37.528C413.031 37.2293 413.096 36.9773 413.161 36.772L414.729 31.004H416.465L418.061 36.786C418.127 37.0007 418.192 37.2573 418.257 37.556C418.323 37.8547 418.383 38.1533 418.439 38.452C418.495 38.7507 418.537 39.012 418.565 39.236C418.593 39.012 418.635 38.7507 418.691 38.452C418.747 38.144 418.808 37.8407 418.873 37.542C418.939 37.234 418.999 36.954 419.055 36.702L420.427 31.004H422.219ZM424.307 30.486C424.568 30.486 424.797 30.556 424.993 30.696C425.189 30.8267 425.287 31.0647 425.287 31.41C425.287 31.7553 425.189 31.998 424.993 32.138C424.797 32.278 424.568 32.348 424.307 32.348C424.036 32.348 423.803 32.278 423.607 32.138C423.42 31.998 423.327 31.7553 423.327 31.41C423.327 31.0647 423.42 30.8267 423.607 30.696C423.803 30.556 424.036 30.486 424.307 30.486ZM425.189 33.412V41H423.425V33.412H425.189ZM429.951 41.14C429.073 41.14 428.359 40.8133 427.809 40.16C427.267 39.4973 426.997 38.5173 426.997 37.22C426.997 35.9133 427.272 34.9287 427.823 34.266C428.373 33.6033 429.097 33.272 429.993 33.272C430.553 33.272 431.01 33.3793 431.365 33.594C431.729 33.8087 432.018 34.07 432.233 34.378H432.317C432.289 34.2473 432.261 34.0513 432.233 33.79C432.205 33.5193 432.191 33.2627 432.191 33.02V30.36H433.955V41H432.583L432.261 40.006H432.191C431.976 40.3233 431.691 40.594 431.337 40.818C430.982 41.0327 430.52 41.14 429.951 41.14ZM430.483 39.712C431.136 39.712 431.593 39.5253 431.855 39.152C432.125 38.7787 432.265 38.214 432.275 37.458V37.234C432.275 36.422 432.144 35.8013 431.883 35.372C431.631 34.9333 431.155 34.714 430.455 34.714C429.913 34.714 429.498 34.938 429.209 35.386C428.929 35.8247 428.789 36.4453 428.789 37.248C428.789 38.0507 428.933 38.662 429.223 39.082C429.512 39.502 429.932 39.712 430.483 39.712ZM439.148 39.726C439.363 39.726 439.573 39.7073 439.778 39.67C439.993 39.6233 440.189 39.572 440.366 39.516V40.832C440.18 40.9253 439.937 41 439.638 41.056C439.34 41.112 439.027 41.14 438.7 41.14C438.262 41.14 437.865 41.07 437.51 40.93C437.165 40.79 436.89 40.5427 436.684 40.188C436.479 39.8333 436.376 39.334 436.376 38.69V34.742H435.354V33.972L436.474 33.356L437.034 31.746H438.14V33.412H440.296V34.742H438.14V38.676C438.14 39.0307 438.234 39.2967 438.42 39.474C438.616 39.642 438.859 39.726 439.148 39.726ZM443.66 30.36V32.894C443.66 33.1927 443.646 33.4867 443.618 33.776C443.599 34.056 443.58 34.266 443.562 34.406H443.674C443.916 34.0233 444.234 33.7387 444.626 33.552C445.018 33.3653 445.452 33.272 445.928 33.272C446.786 33.272 447.458 33.496 447.944 33.944C448.429 34.3827 448.672 35.0873 448.672 36.058V41H446.908V36.408C446.908 35.8387 446.796 35.414 446.572 35.134C446.348 34.8447 445.993 34.7 445.508 34.7C444.798 34.7 444.313 34.924 444.052 35.372C443.79 35.82 443.66 36.4593 443.66 37.29V41H441.896V30.36H443.66Z" fill="#D51588"/>
<path d="M668 54L668 46" stroke="#D51588"/>
<path d="M668 50L110 50" stroke="#D51588"/>
<path d="M110 54L110 46" stroke="#D51588"/>
<rect opacity="0.4" x="684" y="84" width="12" height="574" transform="rotate(90 684 84)" fill="white"/>
<rect opacity="0.12" x="684" y="84" width="12" height="574" transform="rotate(90 684 84)" fill="#D51588"/>
<path opacity="0.5" d="M684 96L110 96" stroke="#D51588" stroke-dasharray="3 3"/>
<path opacity="0.5" d="M684 84L110 84" stroke="#D51588" stroke-dasharray="3 3"/>
<path d="M700 90L684 90" stroke="#D51588"/>
<path d="M707.482 95H705.718V88.77C705.718 88.4713 705.722 88.154 705.732 87.818C705.741 87.482 705.755 87.1693 705.774 86.88C705.68 86.9733 705.564 87.0853 705.424 87.216C705.293 87.3467 705.148 87.4727 704.99 87.594L703.87 88.49L702.988 87.398L706.012 85.004H707.482V95ZM717.468 95H710.622V93.698L713.17 91.122C713.674 90.6087 714.084 90.17 714.402 89.806C714.728 89.442 714.966 89.1013 715.116 88.784C715.274 88.4573 715.354 88.1073 715.354 87.734C715.354 87.2767 715.223 86.936 714.962 86.712C714.71 86.4787 714.364 86.362 713.926 86.362C713.506 86.362 713.114 86.4507 712.75 86.628C712.386 86.796 712.008 87.0387 711.616 87.356L710.65 86.194C711.06 85.8393 711.522 85.5313 712.036 85.27C712.558 84.9993 713.221 84.864 714.024 84.864C714.668 84.864 715.218 84.9807 715.676 85.214C716.142 85.438 716.502 85.7553 716.754 86.166C717.006 86.5673 717.132 87.0293 717.132 87.552C717.132 88.0933 717.024 88.5927 716.81 89.05C716.595 89.498 716.282 89.9507 715.872 90.408C715.47 90.856 714.99 91.3413 714.43 91.864L712.848 93.39V93.474H717.468V95ZM726.792 87.272C727.679 87.272 728.393 87.6033 728.934 88.266C729.475 88.9193 729.746 89.8947 729.746 91.192C729.746 92.4893 729.466 93.474 728.906 94.146C728.355 94.8087 727.637 95.14 726.75 95.14C726.19 95.14 725.737 95.0373 725.392 94.832C725.047 94.6267 724.771 94.3887 724.566 94.118H724.454C724.482 94.2953 724.505 94.4867 724.524 94.692C724.552 94.8973 724.566 95.0933 724.566 95.28V98.36H722.802V87.412H724.23L724.482 88.42H724.566C724.781 88.1027 725.061 87.832 725.406 87.608C725.751 87.384 726.213 87.272 726.792 87.272ZM726.288 88.7C725.663 88.7 725.219 88.8867 724.958 89.26C724.706 89.6333 724.575 90.198 724.566 90.954V91.178C724.566 91.99 724.687 92.6153 724.93 93.054C725.182 93.4833 725.644 93.698 726.316 93.698C726.867 93.698 727.273 93.474 727.534 93.026C727.805 92.5687 727.94 91.948 727.94 91.164C727.94 90.38 727.805 89.7733 727.534 89.344C727.273 88.9147 726.857 88.7 726.288 88.7ZM732.93 91.122L730.424 87.412H732.426L734.078 89.988L735.73 87.412H737.732L735.198 91.122L737.858 95H735.856L734.078 92.242L732.3 95H730.298L732.93 91.122Z" fill="#D51588"/>
<rect opacity="0.4" x="684" y="148" width="12" height="574" transform="rotate(90 684 148)" fill="white"/>
<rect opacity="0.12" x="684" y="148" width="12" height="574" transform="rotate(90 684 148)" fill="#D51588"/>
<path opacity="0.5" d="M684 160L110 160" stroke="#D51588" stroke-dasharray="3 3"/>
<path opacity="0.5" d="M684 148L110 148" stroke="#D51588" stroke-dasharray="3 3"/>
<path d="M700 154L684 154" stroke="#D51588"/>
<path d="M707.482 159H705.718V152.77C705.718 152.471 705.722 152.154 705.732 151.818C705.741 151.482 705.755 151.169 705.774 150.88C705.68 150.973 705.564 151.085 705.424 151.216C705.293 151.347 705.148 151.473 704.99 151.594L703.87 152.49L702.988 151.398L706.012 149.004H707.482V159ZM717.468 159H710.622V157.698L713.17 155.122C713.674 154.609 714.084 154.17 714.402 153.806C714.728 153.442 714.966 153.101 715.116 152.784C715.274 152.457 715.354 152.107 715.354 151.734C715.354 151.277 715.223 150.936 714.962 150.712C714.71 150.479 714.364 150.362 713.926 150.362C713.506 150.362 713.114 150.451 712.75 150.628C712.386 150.796 712.008 151.039 711.616 151.356L710.65 150.194C711.06 149.839 711.522 149.531 712.036 149.27C712.558 148.999 713.221 148.864 714.024 148.864C714.668 148.864 715.218 148.981 715.676 149.214C716.142 149.438 716.502 149.755 716.754 150.166C717.006 150.567 717.132 151.029 717.132 151.552C717.132 152.093 717.024 152.593 716.81 153.05C716.595 153.498 716.282 153.951 715.872 154.408C715.47 154.856 714.99 155.341 714.43 155.864L712.848 157.39V157.474H717.468V159ZM726.792 151.272C727.679 151.272 728.393 151.603 728.934 152.266C729.475 152.919 729.746 153.895 729.746 155.192C729.746 156.489 729.466 157.474 728.906 158.146C728.355 158.809 727.637 159.14 726.75 159.14C726.19 159.14 725.737 159.037 725.392 158.832C725.047 158.627 724.771 158.389 724.566 158.118H724.454C724.482 158.295 724.505 158.487 724.524 158.692C724.552 158.897 724.566 159.093 724.566 159.28V162.36H722.802V151.412H724.23L724.482 152.42H724.566C724.781 152.103 725.061 151.832 725.406 151.608C725.751 151.384 726.213 151.272 726.792 151.272ZM726.288 152.7C725.663 152.7 725.219 152.887 724.958 153.26C724.706 153.633 724.575 154.198 724.566 154.954V155.178C724.566 155.99 724.687 156.615 724.93 157.054C725.182 157.483 725.644 157.698 726.316 157.698C726.867 157.698 727.273 157.474 727.534 157.026C727.805 156.569 727.94 155.948 727.94 155.164C727.94 154.38 727.805 153.773 727.534 153.344C727.273 152.915 726.857 152.7 726.288 152.7ZM732.93 155.122L730.424 151.412H732.426L734.078 153.988L735.73 151.412H737.732L735.198 155.122L737.858 159H735.856L734.078 156.242L732.3 159H730.298L732.93 155.122Z" fill="#D51588"/>
<defs>
<clipPath id="clip0_9044_344956">
<rect width="155" height="52" fill="white" transform="translate(166 96)"/>
</clipPath>
</defs>
</svg>
