<svg width="412" height="248" viewBox="0 0 412 248" fill="none" xmlns="http://www.w3.org/2000/svg">
<rect width="412" height="248" fill="white"/>
<g clip-path="url(#clip0_9044_346320)">
<rect x="18" y="40" width="376" height="76" rx="4" fill="#F1F1F1"/>
<path d="M59.9 67.3H56.8V64.8C56.8 64.4 56.5 64 56 64C55.5 64 55.2 64.3 55.2 64.8V67.4H44.2V64.8C44.3 64.3 44 64 43.6 64C43.2 64 42.8 64.3 42.8 64.8V67.4H39.8C37.7 67.3 36 69 36 71.1V88.3C36 90.3 37.7 92 39.8 92H60C62.1 92 63.8 90.3 63.8 88.2V71.1C63.7 69 62 67.3 59.9 67.3ZM39.8 68.8H42.9V71.5C42.9 71.9 43.2 72.3 43.7 72.3C44.2 72.3 44.5 72 44.5 71.5V68.8H55.5V71.5C55.5 71.9 55.8 72.3 56.3 72.3C56.8 72.3 57.1 72 57.1 71.5V68.8H60.2C61.4 68.8 62.4 69.8 62.4 71V75.3H37.5V71.1C37.5 69.9 38.5 68.8 39.8 68.8ZM59.9 90.5H39.8C38.6 90.5 37.6 89.5 37.6 88.3V76.9H62.3V88.3C62.2 89.5 61.2 90.5 59.9 90.5Z" fill="#5E5E5E"/>
<g clip-path="url(#clip1_9044_346320)">
<path d="M81.657 60.745C80.2003 60.745 79.054 61.2327 78.218 62.208C77.382 63.1833 76.964 64.5197 76.964 66.217C76.964 67.9017 77.3503 69.238 78.123 70.226C78.9083 71.2013 80.08 71.689 81.638 71.689C82.2207 71.689 82.778 71.6383 83.31 71.537C83.842 71.4357 84.3677 71.309 84.887 71.157V72.639C84.3803 72.829 83.8547 72.9683 83.31 73.057C82.778 73.1457 82.1383 73.19 81.391 73.19C80.0103 73.19 78.8577 72.905 77.933 72.335C77.0083 71.765 76.3117 70.9543 75.843 69.903C75.387 68.8517 75.159 67.6167 75.159 66.198C75.159 64.83 75.406 63.6267 75.9 62.588C76.4067 61.5367 77.1477 60.7197 78.123 60.137C79.0983 59.5417 80.2827 59.244 81.676 59.244C83.1073 59.244 84.355 59.51 85.419 60.042L84.735 61.486C84.317 61.296 83.8483 61.125 83.329 60.973C82.8223 60.821 82.265 60.745 81.657 60.745ZM96.1319 62.816V73H94.7639L94.5169 71.651H94.4409C94.1115 72.183 93.6555 72.5757 93.0729 72.829C92.4902 73.0697 91.8695 73.19 91.2109 73.19C89.9822 73.19 89.0575 72.8987 88.4369 72.316C87.8162 71.7207 87.5059 70.777 87.5059 69.485V62.816H89.1969V69.371C89.1969 70.9923 89.9505 71.803 91.4579 71.803C92.5852 71.803 93.3642 71.4863 93.7949 70.853C94.2382 70.2197 94.4599 69.3077 94.4599 68.117V62.816H96.1319ZM105.996 70.188C105.996 71.176 105.629 71.9233 104.894 72.43C104.159 72.9367 103.171 73.19 101.93 73.19C101.221 73.19 100.606 73.133 100.087 73.019C99.5803 72.905 99.1307 72.7467 98.738 72.544V71.024C99.1433 71.2267 99.631 71.4167 100.201 71.594C100.784 71.7587 101.373 71.841 101.968 71.841C102.817 71.841 103.431 71.708 103.811 71.442C104.191 71.1633 104.381 70.796 104.381 70.34C104.381 70.0867 104.311 69.8587 104.172 69.656C104.033 69.4533 103.779 69.2507 103.412 69.048C103.057 68.8453 102.544 68.6173 101.873 68.364C101.214 68.1107 100.651 67.8573 100.182 67.604C99.7133 67.3507 99.3523 67.0467 99.099 66.692C98.8457 66.3373 98.719 65.8813 98.719 65.324C98.719 64.4627 99.0673 63.7977 99.764 63.329C100.473 62.8603 101.398 62.626 102.538 62.626C103.159 62.626 103.735 62.6893 104.267 62.816C104.812 62.9427 105.318 63.1073 105.787 63.31L105.217 64.64C104.786 64.4627 104.337 64.3107 103.868 64.184C103.399 64.0573 102.918 63.994 102.424 63.994C101.74 63.994 101.214 64.108 100.847 64.336C100.492 64.5513 100.315 64.849 100.315 65.229C100.315 65.5203 100.397 65.761 100.562 65.951C100.727 66.141 100.999 66.331 101.379 66.521C101.772 66.711 102.291 66.9263 102.937 67.167C103.583 67.4077 104.134 67.6547 104.59 67.908C105.046 68.1613 105.394 68.4717 105.635 68.839C105.876 69.1937 105.996 69.6433 105.996 70.188ZM111.858 71.822C112.111 71.822 112.371 71.803 112.637 71.765C112.903 71.727 113.118 71.6763 113.283 71.613V72.886C113.105 72.9747 112.852 73.0443 112.523 73.095C112.193 73.1583 111.877 73.19 111.573 73.19C111.041 73.19 110.547 73.1013 110.091 72.924C109.647 72.734 109.286 72.411 109.008 71.955C108.729 71.499 108.59 70.8593 108.59 70.036V64.108H107.146V63.31L108.609 62.645L109.274 60.479H110.262V62.816H113.207V64.108H110.262V69.998C110.262 70.6187 110.407 71.081 110.699 71.385C111.003 71.6763 111.389 71.822 111.858 71.822ZM124.176 67.889C124.176 69.5737 123.745 70.8783 122.884 71.803C122.035 72.7277 120.883 73.19 119.426 73.19C118.527 73.19 117.722 72.9873 117.013 72.582C116.316 72.164 115.765 71.5623 115.36 70.777C114.955 69.979 114.752 69.0163 114.752 67.889C114.752 66.2043 115.17 64.906 116.006 63.994C116.855 63.082 118.014 62.626 119.483 62.626C120.395 62.626 121.206 62.835 121.915 63.253C122.624 63.6583 123.175 64.2537 123.568 65.039C123.973 65.8117 124.176 66.7617 124.176 67.889ZM116.481 67.889C116.481 69.0923 116.715 70.0487 117.184 70.758C117.665 71.4547 118.425 71.803 119.464 71.803C120.49 71.803 121.244 71.4547 121.725 70.758C122.206 70.0487 122.447 69.0923 122.447 67.889C122.447 66.6857 122.206 65.742 121.725 65.058C121.244 64.374 120.484 64.032 119.445 64.032C118.406 64.032 117.653 64.374 117.184 65.058C116.715 65.742 116.481 66.6857 116.481 67.889ZM137.998 62.626C139.151 62.626 140.012 62.9237 140.582 63.519C141.152 64.1143 141.437 65.0643 141.437 66.369V73H139.784V66.445C139.784 64.8363 139.094 64.032 137.713 64.032C136.725 64.032 136.016 64.317 135.585 64.887C135.167 65.457 134.958 66.2867 134.958 67.376V73H133.305V66.445C133.305 64.8363 132.608 64.032 131.215 64.032C130.189 64.032 129.48 64.3487 129.087 64.982C128.694 65.6153 128.498 66.5273 128.498 67.718V73H126.826V62.816H128.175L128.422 64.203H128.517C128.834 63.671 129.258 63.2783 129.79 63.025C130.335 62.759 130.911 62.626 131.519 62.626C133.115 62.626 134.154 63.196 134.635 64.336H134.73C135.072 63.7533 135.534 63.3227 136.117 63.044C136.7 62.7653 137.327 62.626 137.998 62.626ZM148.516 62.626C149.377 62.626 150.124 62.816 150.758 63.196C151.391 63.576 151.872 64.1143 152.202 64.811C152.544 65.495 152.715 66.2993 152.715 67.224V68.231H145.742C145.767 69.3837 146.058 70.264 146.616 70.872C147.186 71.4673 147.977 71.765 148.991 71.765C149.637 71.765 150.207 71.708 150.701 71.594C151.207 71.4673 151.727 71.29 152.259 71.062V72.525C151.739 72.753 151.226 72.9177 150.72 73.019C150.213 73.133 149.611 73.19 148.915 73.19C147.939 73.19 147.084 72.9937 146.35 72.601C145.615 72.2083 145.039 71.6257 144.621 70.853C144.215 70.0803 144.013 69.124 144.013 67.984C144.013 66.8693 144.196 65.913 144.564 65.115C144.944 64.317 145.469 63.7027 146.141 63.272C146.825 62.8413 147.616 62.626 148.516 62.626ZM148.497 63.994C147.699 63.994 147.065 64.2537 146.597 64.773C146.141 65.2797 145.868 65.989 145.78 66.901H150.967C150.954 66.0397 150.751 65.343 150.359 64.811C149.966 64.2663 149.345 63.994 148.497 63.994ZM160.057 62.626C160.247 62.626 160.45 62.6387 160.665 62.664C160.881 62.6767 161.077 62.702 161.254 62.74L161.045 64.279C160.881 64.241 160.697 64.2093 160.494 64.184C160.292 64.1587 160.108 64.146 159.943 64.146C159.424 64.146 158.936 64.2917 158.48 64.583C158.024 64.8617 157.657 65.2607 157.378 65.78C157.112 66.2867 156.979 66.882 156.979 67.566V73H155.307V62.816H156.675L156.865 64.678H156.941C157.258 64.1207 157.676 63.6393 158.195 63.234C158.727 62.8287 159.348 62.626 160.057 62.626ZM174.134 60.745C172.677 60.745 171.531 61.2327 170.695 62.208C169.859 63.1833 169.441 64.5197 169.441 66.217C169.441 67.9017 169.827 69.238 170.6 70.226C171.385 71.2013 172.557 71.689 174.115 71.689C174.697 71.689 175.255 71.6383 175.787 71.537C176.319 71.4357 176.844 71.309 177.364 71.157V72.639C176.857 72.829 176.331 72.9683 175.787 73.057C175.255 73.1457 174.615 73.19 173.868 73.19C172.487 73.19 171.334 72.905 170.41 72.335C169.485 71.765 168.788 70.9543 168.32 69.903C167.864 68.8517 167.636 67.6167 167.636 66.198C167.636 64.83 167.883 63.6267 168.377 62.588C168.883 61.5367 169.624 60.7197 170.6 60.137C171.575 59.5417 172.759 59.244 174.153 59.244C175.584 59.244 176.832 59.51 177.896 60.042L177.212 61.486C176.794 61.296 176.325 61.125 175.806 60.973C175.299 60.821 174.742 60.745 174.134 60.745ZM183.953 62.645C185.195 62.645 186.113 62.9173 186.708 63.462C187.304 64.0067 187.601 64.8743 187.601 66.065V73H186.385L186.062 71.556H185.986C185.543 72.1133 185.074 72.525 184.58 72.791C184.086 73.057 183.415 73.19 182.566 73.19C181.642 73.19 180.875 72.9493 180.267 72.468C179.659 71.974 179.355 71.2077 179.355 70.169C179.355 69.1557 179.754 68.3767 180.552 67.832C181.35 67.2747 182.579 66.9707 184.238 66.92L185.967 66.863V66.255C185.967 65.4063 185.784 64.8173 185.416 64.488C185.049 64.1587 184.53 63.994 183.858 63.994C183.326 63.994 182.82 64.0763 182.338 64.241C181.857 64.393 181.407 64.5703 180.989 64.773L180.476 63.519C180.92 63.2783 181.445 63.0757 182.053 62.911C182.661 62.7337 183.295 62.645 183.953 62.645ZM185.948 68.022L184.447 68.079C183.181 68.1297 182.3 68.3323 181.806 68.687C181.325 69.0417 181.084 69.542 181.084 70.188C181.084 70.758 181.255 71.176 181.597 71.442C181.952 71.708 182.402 71.841 182.946 71.841C183.795 71.841 184.504 71.6067 185.074 71.138C185.657 70.6567 185.948 69.922 185.948 68.934V68.022ZM192.419 73H190.747V58.56H192.419V73ZM197.317 73H195.645V58.56H197.317V73Z" fill="black"/>
<path d="M78.97 99H77.766V92.014C77.766 91.6127 77.7707 91.2907 77.78 91.048C77.7893 90.8053 77.8033 90.5533 77.822 90.292C77.6727 90.4413 77.5327 90.5673 77.402 90.67C77.2807 90.7727 77.1313 90.9033 76.954 91.062L75.89 91.93L75.246 91.104L77.948 89.004H78.97V99ZM82.5717 95.794V94.702H85.9597V95.794H82.5717ZM93.8034 99H87.1954V97.978L89.8134 95.332C90.3081 94.828 90.7281 94.38 91.0734 93.988C91.4281 93.596 91.6941 93.2133 91.8714 92.84C92.0488 92.4667 92.1374 92.0513 92.1374 91.594C92.1374 91.0433 91.9741 90.628 91.6474 90.348C91.3208 90.0587 90.8961 89.914 90.3734 89.914C89.8788 89.914 89.4494 89.998 89.0854 90.166C88.7214 90.334 88.3481 90.5673 87.9654 90.866L87.3074 90.04C87.6994 89.7133 88.1474 89.438 88.6514 89.214C89.1648 88.9807 89.7388 88.864 90.3734 88.864C91.3068 88.864 92.0441 89.102 92.5854 89.578C93.1268 90.054 93.3974 90.7027 93.3974 91.524C93.3974 92.0467 93.2901 92.5367 93.0754 92.994C92.8608 93.4513 92.5621 93.904 92.1794 94.352C91.7968 94.8 91.3488 95.2713 90.8354 95.766L88.7494 97.824V97.88H93.8034V99ZM98.3852 92.868C99.4025 92.868 100.214 93.1247 100.821 93.638C101.437 94.1513 101.745 94.8747 101.745 95.808C101.745 96.844 101.414 97.6607 100.751 98.258C100.098 98.846 99.1832 99.14 98.0072 99.14C97.4845 99.14 96.9992 99.0933 96.5512 99C96.1032 98.9067 95.7252 98.7713 95.4172 98.594V97.432C95.7532 97.6373 96.1592 97.8007 96.6352 97.922C97.1205 98.034 97.5825 98.09 98.0212 98.09C98.7585 98.09 99.3512 97.9173 99.7992 97.572C100.256 97.2173 100.485 96.6713 100.485 95.934C100.485 95.2807 100.284 94.7813 99.8832 94.436C99.4818 94.0813 98.8472 93.904 97.9792 93.904C97.7178 93.904 97.4192 93.9273 97.0832 93.974C96.7472 94.0207 96.4765 94.0673 96.2712 94.114L95.6552 93.722L96.0332 89.004H101.045V90.124H97.0832L96.8452 93.022C97.0038 92.994 97.2185 92.9613 97.4892 92.924C97.7598 92.8867 98.0585 92.868 98.3852 92.868ZM109.449 91.342C109.449 92.014 109.258 92.5507 108.875 92.952C108.502 93.344 108.002 93.6053 107.377 93.736V93.792C108.17 93.8853 108.763 94.1373 109.155 94.548C109.556 94.9587 109.757 95.4953 109.757 96.158C109.757 96.746 109.622 97.264 109.351 97.712C109.08 98.16 108.66 98.51 108.091 98.762C107.531 99.014 106.808 99.14 105.921 99.14C105.398 99.14 104.913 99.098 104.465 99.014C104.017 98.9393 103.588 98.7993 103.177 98.594V97.446C103.597 97.6607 104.05 97.824 104.535 97.936C105.02 98.048 105.487 98.104 105.935 98.104C106.831 98.104 107.475 97.9313 107.867 97.586C108.268 97.2313 108.469 96.746 108.469 96.13C108.469 95.5047 108.222 95.0567 107.727 94.786C107.242 94.506 106.556 94.366 105.669 94.366H104.703V93.316H105.683C106.504 93.316 107.125 93.1433 107.545 92.798C107.974 92.4527 108.189 91.9953 108.189 91.426C108.189 90.9407 108.026 90.5673 107.699 90.306C107.372 90.0353 106.929 89.9 106.369 89.9C105.828 89.9 105.366 89.9793 104.983 90.138C104.6 90.2967 104.222 90.4973 103.849 90.74L103.233 89.9C103.588 89.62 104.026 89.3773 104.549 89.172C105.081 88.9667 105.683 88.864 106.355 88.864C107.4 88.864 108.175 89.0973 108.679 89.564C109.192 90.0307 109.449 90.6233 109.449 91.342ZM111.119 95.794V94.702H114.507V95.794H111.119ZM121.972 91.342C121.972 92.014 121.781 92.5507 121.398 92.952C121.025 93.344 120.526 93.6053 119.9 93.736V93.792C120.694 93.8853 121.286 94.1373 121.678 94.548C122.08 94.9587 122.28 95.4953 122.28 96.158C122.28 96.746 122.145 97.264 121.874 97.712C121.604 98.16 121.184 98.51 120.614 98.762C120.054 99.014 119.331 99.14 118.444 99.14C117.922 99.14 117.436 99.098 116.988 99.014C116.54 98.9393 116.111 98.7993 115.7 98.594V97.446C116.12 97.6607 116.573 97.824 117.058 97.936C117.544 98.048 118.01 98.104 118.458 98.104C119.354 98.104 119.998 97.9313 120.39 97.586C120.792 97.2313 120.992 96.746 120.992 96.13C120.992 95.5047 120.745 95.0567 120.25 94.786C119.765 94.506 119.079 94.366 118.192 94.366H117.226V93.316H118.206C119.028 93.316 119.648 93.1433 120.068 92.798C120.498 92.4527 120.712 91.9953 120.712 91.426C120.712 90.9407 120.549 90.5673 120.222 90.306C119.896 90.0353 119.452 89.9 118.892 89.9C118.351 89.9 117.889 89.9793 117.506 90.138C117.124 90.2967 116.746 90.4973 116.372 90.74L115.756 89.9C116.111 89.62 116.55 89.3773 117.072 89.172C117.604 88.9667 118.206 88.864 118.878 88.864C119.924 88.864 120.698 89.0973 121.202 89.564C121.716 90.0307 121.972 90.6233 121.972 91.342ZM129.984 91.342C129.984 92.014 129.793 92.5507 129.41 92.952C129.037 93.344 128.537 93.6053 127.912 93.736V93.792C128.705 93.8853 129.298 94.1373 129.69 94.548C130.091 94.9587 130.292 95.4953 130.292 96.158C130.292 96.746 130.157 97.264 129.886 97.712C129.615 98.16 129.195 98.51 128.626 98.762C128.066 99.014 127.343 99.14 126.456 99.14C125.933 99.14 125.448 99.098 125 99.014C124.552 98.9393 124.123 98.7993 123.712 98.594V97.446C124.132 97.6607 124.585 97.824 125.07 97.936C125.555 98.048 126.022 98.104 126.47 98.104C127.366 98.104 128.01 97.9313 128.402 97.586C128.803 97.2313 129.004 96.746 129.004 96.13C129.004 95.5047 128.757 95.0567 128.262 94.786C127.777 94.506 127.091 94.366 126.204 94.366H125.238V93.316H126.218C127.039 93.316 127.66 93.1433 128.08 92.798C128.509 92.4527 128.724 91.9953 128.724 91.426C128.724 90.9407 128.561 90.5673 128.234 90.306C127.907 90.0353 127.464 89.9 126.904 89.9C126.363 89.9 125.901 89.9793 125.518 90.138C125.135 90.2967 124.757 90.4973 124.384 90.74L123.768 89.9C124.123 89.62 124.561 89.3773 125.084 89.172C125.616 88.9667 126.218 88.864 126.89 88.864C127.935 88.864 128.71 89.0973 129.214 89.564C129.727 90.0307 129.984 90.6233 129.984 91.342ZM137.996 91.342C137.996 92.014 137.804 92.5507 137.422 92.952C137.048 93.344 136.549 93.6053 135.924 93.736V93.792C136.717 93.8853 137.31 94.1373 137.702 94.548C138.103 94.9587 138.304 95.4953 138.304 96.158C138.304 96.746 138.168 97.264 137.898 97.712C137.627 98.16 137.207 98.51 136.638 98.762C136.078 99.014 135.354 99.14 134.468 99.14C133.945 99.14 133.46 99.098 133.012 99.014C132.564 98.9393 132.134 98.7993 131.724 98.594V97.446C132.144 97.6607 132.596 97.824 133.082 97.936C133.567 98.048 134.034 98.104 134.482 98.104C135.378 98.104 136.022 97.9313 136.414 97.586C136.815 97.2313 137.016 96.746 137.016 96.13C137.016 95.5047 136.768 95.0567 136.274 94.786C135.788 94.506 135.102 94.366 134.216 94.366H133.25V93.316H134.23C135.051 93.316 135.672 93.1433 136.092 92.798C136.521 92.4527 136.736 91.9953 136.736 91.426C136.736 90.9407 136.572 90.5673 136.246 90.306C135.919 90.0353 135.476 89.9 134.916 89.9C134.374 89.9 133.912 89.9793 133.53 90.138C133.147 90.2967 132.769 90.4973 132.396 90.74L131.78 89.9C132.134 89.62 132.573 89.3773 133.096 89.172C133.628 88.9667 134.23 88.864 134.902 88.864C135.947 88.864 136.722 89.0973 137.226 89.564C137.739 90.0307 137.996 90.6233 137.996 91.342ZM139.665 95.794V94.702H143.053V95.794H139.665ZM150.897 99H144.289V97.978L146.907 95.332C147.402 94.828 147.822 94.38 148.167 93.988C148.522 93.596 148.788 93.2133 148.965 92.84C149.143 92.4667 149.231 92.0513 149.231 91.594C149.231 91.0433 149.068 90.628 148.741 90.348C148.415 90.0587 147.99 89.914 147.467 89.914C146.973 89.914 146.543 89.998 146.179 90.166C145.815 90.334 145.442 90.5673 145.059 90.866L144.401 90.04C144.793 89.7133 145.241 89.438 145.745 89.214C146.259 88.9807 146.833 88.864 147.467 88.864C148.401 88.864 149.138 89.102 149.679 89.578C150.221 90.054 150.491 90.7027 150.491 91.524C150.491 92.0467 150.384 92.5367 150.169 92.994C149.955 93.4513 149.656 93.904 149.273 94.352C148.891 94.8 148.443 95.2713 147.929 95.766L145.843 97.824V97.88H150.897V99ZM158.909 99H152.301V97.978L154.919 95.332C155.414 94.828 155.834 94.38 156.179 93.988C156.534 93.596 156.8 93.2133 156.977 92.84C157.154 92.4667 157.243 92.0513 157.243 91.594C157.243 91.0433 157.08 90.628 156.753 90.348C156.426 90.0587 156.002 89.914 155.479 89.914C154.984 89.914 154.555 89.998 154.191 90.166C153.827 90.334 153.454 90.5673 153.071 90.866L152.413 90.04C152.805 89.7133 153.253 89.438 153.757 89.214C154.27 88.9807 154.844 88.864 155.479 88.864C156.412 88.864 157.15 89.102 157.691 89.578C158.232 90.054 158.503 90.7027 158.503 91.524C158.503 92.0467 158.396 92.5367 158.181 92.994C157.966 93.4513 157.668 93.904 157.285 94.352C156.902 94.8 156.454 95.2713 155.941 95.766L153.855 97.824V97.88H158.909V99ZM166.543 91.342C166.543 92.014 166.351 92.5507 165.969 92.952C165.595 93.344 165.096 93.6053 164.471 93.736V93.792C165.264 93.8853 165.857 94.1373 166.249 94.548C166.65 94.9587 166.851 95.4953 166.851 96.158C166.851 96.746 166.715 97.264 166.445 97.712C166.174 98.16 165.754 98.51 165.185 98.762C164.625 99.014 163.901 99.14 163.015 99.14C162.492 99.14 162.007 99.098 161.559 99.014C161.111 98.9393 160.681 98.7993 160.271 98.594V97.446C160.691 97.6607 161.143 97.824 161.629 97.936C162.114 98.048 162.581 98.104 163.029 98.104C163.925 98.104 164.569 97.9313 164.961 97.586C165.362 97.2313 165.563 96.746 165.563 96.13C165.563 95.5047 165.315 95.0567 164.821 94.786C164.335 94.506 163.649 94.366 162.763 94.366H161.797V93.316H162.777C163.598 93.316 164.219 93.1433 164.639 92.798C165.068 92.4527 165.283 91.9953 165.283 91.426C165.283 90.9407 165.119 90.5673 164.793 90.306C164.466 90.0353 164.023 89.9 163.463 89.9C162.921 89.9 162.459 89.9793 162.077 90.138C161.694 90.2967 161.316 90.4973 160.943 90.74L160.327 89.9C160.681 89.62 161.12 89.3773 161.643 89.172C162.175 88.9667 162.777 88.864 163.449 88.864C164.494 88.864 165.269 89.0973 165.773 89.564C166.286 90.0307 166.543 90.6233 166.543 91.342ZM168.422 94.73C168.422 94.0113 168.483 93.3067 168.604 92.616C168.735 91.916 168.964 91.286 169.29 90.726C169.626 90.1567 170.093 89.704 170.69 89.368C171.288 89.032 172.058 88.864 173 88.864C173.196 88.864 173.411 88.8733 173.644 88.892C173.887 88.9107 174.083 88.9433 174.232 88.99V90.04C174.064 89.984 173.873 89.942 173.658 89.914C173.444 89.886 173.234 89.872 173.028 89.872C172.384 89.872 171.848 89.9793 171.418 90.194C170.989 90.4087 170.648 90.7027 170.396 91.076C170.154 91.4493 169.976 91.8787 169.864 92.364C169.752 92.8493 169.682 93.3673 169.654 93.918H169.738C169.953 93.5913 170.252 93.316 170.634 93.092C171.017 92.8587 171.507 92.742 172.104 92.742C172.972 92.742 173.672 93.008 174.204 93.54C174.736 94.0627 175.002 94.8093 175.002 95.78C175.002 96.8253 174.713 97.6467 174.134 98.244C173.565 98.8413 172.795 99.14 171.824 99.14C171.19 99.14 170.616 98.9813 170.102 98.664C169.589 98.3467 169.178 97.8613 168.87 97.208C168.572 96.5547 168.422 95.7287 168.422 94.73ZM171.81 98.104C172.398 98.104 172.874 97.9173 173.238 97.544C173.602 97.1613 173.784 96.5733 173.784 95.78C173.784 95.1453 173.621 94.6413 173.294 94.268C172.977 93.8947 172.496 93.708 171.852 93.708C171.414 93.708 171.031 93.8013 170.704 93.988C170.378 94.1653 170.121 94.3987 169.934 94.688C169.757 94.968 169.668 95.2527 169.668 95.542C169.668 95.9433 169.748 96.3447 169.906 96.746C170.065 97.138 170.303 97.4647 170.62 97.726C170.938 97.978 171.334 98.104 171.81 98.104Z" fill="black"/>
</g>
<rect x="230.5" y="60.5" width="82" height="35" rx="1.5" fill="white"/>
<path d="M255.366 77.904C255.366 79.5933 254.904 80.8673 253.98 81.726C253.065 82.5753 251.787 83 250.144 83H247.358V73.004H250.438C251.437 73.004 252.305 73.1907 253.042 73.564C253.789 73.9373 254.363 74.488 254.764 75.216C255.165 75.944 255.366 76.84 255.366 77.904ZM254.036 77.946C254.036 76.6113 253.705 75.636 253.042 75.02C252.389 74.3947 251.46 74.082 250.256 74.082H248.618V81.922H249.976C252.683 81.922 254.036 80.5967 254.036 77.946ZM258.047 72.682C258.233 72.682 258.397 72.7473 258.537 72.878C258.686 72.9993 258.761 73.1953 258.761 73.466C258.761 73.7367 258.686 73.9373 258.537 74.068C258.397 74.1893 258.233 74.25 258.047 74.25C257.841 74.25 257.669 74.1893 257.529 74.068C257.389 73.9373 257.319 73.7367 257.319 73.466C257.319 73.1953 257.389 72.9993 257.529 72.878C257.669 72.7473 257.841 72.682 258.047 72.682ZM258.649 75.496V83H257.417V75.496H258.649ZM265.912 80.928C265.912 81.656 265.641 82.2067 265.1 82.58C264.559 82.9533 263.831 83.14 262.916 83.14C262.393 83.14 261.941 83.098 261.558 83.014C261.185 82.93 260.853 82.8133 260.564 82.664V81.544C260.863 81.6933 261.222 81.8333 261.642 81.964C262.071 82.0853 262.505 82.146 262.944 82.146C263.569 82.146 264.022 82.048 264.302 81.852C264.582 81.6467 264.722 81.376 264.722 81.04C264.722 80.8533 264.671 80.6853 264.568 80.536C264.465 80.3867 264.279 80.2373 264.008 80.088C263.747 79.9387 263.369 79.7707 262.874 79.584C262.389 79.3973 261.973 79.2107 261.628 79.024C261.283 78.8373 261.017 78.6133 260.83 78.352C260.643 78.0907 260.55 77.7547 260.55 77.344C260.55 76.7093 260.807 76.2193 261.32 75.874C261.843 75.5287 262.524 75.356 263.364 75.356C263.821 75.356 264.246 75.4027 264.638 75.496C265.039 75.5893 265.413 75.7107 265.758 75.86L265.338 76.84C265.021 76.7093 264.689 76.5973 264.344 76.504C263.999 76.4107 263.644 76.364 263.28 76.364C262.776 76.364 262.389 76.448 262.118 76.616C261.857 76.7747 261.726 76.994 261.726 77.274C261.726 77.4887 261.787 77.666 261.908 77.806C262.029 77.946 262.23 78.086 262.51 78.226C262.799 78.366 263.182 78.5247 263.658 78.702C264.134 78.8793 264.54 79.0613 264.876 79.248C265.212 79.4347 265.469 79.6633 265.646 79.934C265.823 80.1953 265.912 80.5267 265.912 80.928ZM275.957 75.356C276.806 75.356 277.441 75.5753 277.861 76.014C278.281 76.4527 278.491 77.1527 278.491 78.114V83H277.273V78.17C277.273 76.9847 276.764 76.392 275.747 76.392C275.019 76.392 274.496 76.602 274.179 77.022C273.871 77.442 273.717 78.0533 273.717 78.856V83H272.499V78.17C272.499 76.9847 271.986 76.392 270.959 76.392C270.203 76.392 269.68 76.6253 269.391 77.092C269.102 77.5587 268.957 78.2307 268.957 79.108V83H267.725V75.496H268.719L268.901 76.518H268.971C269.204 76.126 269.517 75.8367 269.909 75.65C270.31 75.454 270.735 75.356 271.183 75.356C272.359 75.356 273.124 75.776 273.479 76.616H273.549C273.801 76.1867 274.142 75.8693 274.571 75.664C275 75.4587 275.462 75.356 275.957 75.356ZM281.439 72.682C281.626 72.682 281.789 72.7473 281.929 72.878C282.078 72.9993 282.153 73.1953 282.153 73.466C282.153 73.7367 282.078 73.9373 281.929 74.068C281.789 74.1893 281.626 74.25 281.439 74.25C281.234 74.25 281.061 74.1893 280.921 74.068C280.781 73.9373 280.711 73.7367 280.711 73.466C280.711 73.1953 280.781 72.9993 280.921 72.878C281.061 72.7473 281.234 72.682 281.439 72.682ZM282.041 75.496V83H280.809V75.496H282.041ZM289.305 80.928C289.305 81.656 289.034 82.2067 288.493 82.58C287.951 82.9533 287.223 83.14 286.309 83.14C285.786 83.14 285.333 83.098 284.951 83.014C284.577 82.93 284.246 82.8133 283.957 82.664V81.544C284.255 81.6933 284.615 81.8333 285.035 81.964C285.464 82.0853 285.898 82.146 286.337 82.146C286.962 82.146 287.415 82.048 287.695 81.852C287.975 81.6467 288.115 81.376 288.115 81.04C288.115 80.8533 288.063 80.6853 287.961 80.536C287.858 80.3867 287.671 80.2373 287.401 80.088C287.139 79.9387 286.761 79.7707 286.267 79.584C285.781 79.3973 285.366 79.2107 285.021 79.024C284.675 78.8373 284.409 78.6133 284.223 78.352C284.036 78.0907 283.943 77.7547 283.943 77.344C283.943 76.7093 284.199 76.2193 284.713 75.874C285.235 75.5287 285.917 75.356 286.757 75.356C287.214 75.356 287.639 75.4027 288.031 75.496C288.432 75.5893 288.805 75.7107 289.151 75.86L288.731 76.84C288.413 76.7093 288.082 76.5973 287.737 76.504C287.391 76.4107 287.037 76.364 286.673 76.364C286.169 76.364 285.781 76.448 285.511 76.616C285.249 76.7747 285.119 76.994 285.119 77.274C285.119 77.4887 285.179 77.666 285.301 77.806C285.422 77.946 285.623 78.086 285.903 78.226C286.192 78.366 286.575 78.5247 287.051 78.702C287.527 78.8793 287.933 79.0613 288.269 79.248C288.605 79.4347 288.861 79.6633 289.039 79.934C289.216 80.1953 289.305 80.5267 289.305 80.928ZM296.004 80.928C296.004 81.656 295.733 82.2067 295.192 82.58C294.65 82.9533 293.922 83.14 293.008 83.14C292.485 83.14 292.032 83.098 291.65 83.014C291.276 82.93 290.945 82.8133 290.656 82.664V81.544C290.954 81.6933 291.314 81.8333 291.734 81.964C292.163 82.0853 292.597 82.146 293.036 82.146C293.661 82.146 294.114 82.048 294.394 81.852C294.674 81.6467 294.814 81.376 294.814 81.04C294.814 80.8533 294.762 80.6853 294.66 80.536C294.557 80.3867 294.37 80.2373 294.1 80.088C293.838 79.9387 293.46 79.7707 292.966 79.584C292.48 79.3973 292.065 79.2107 291.72 79.024C291.374 78.8373 291.108 78.6133 290.922 78.352C290.735 78.0907 290.642 77.7547 290.642 77.344C290.642 76.7093 290.898 76.2193 291.412 75.874C291.934 75.5287 292.616 75.356 293.456 75.356C293.913 75.356 294.338 75.4027 294.73 75.496C295.131 75.5893 295.504 75.7107 295.85 75.86L295.43 76.84C295.112 76.7093 294.781 76.5973 294.436 76.504C294.09 76.4107 293.736 76.364 293.372 76.364C292.868 76.364 292.48 76.448 292.21 76.616C291.948 76.7747 291.818 76.994 291.818 77.274C291.818 77.4887 291.878 77.666 292 77.806C292.121 77.946 292.322 78.086 292.602 78.226C292.891 78.366 293.274 78.5247 293.75 78.702C294.226 78.8793 294.632 79.0613 294.968 79.248C295.304 79.4347 295.56 79.6633 295.738 79.934C295.915 80.1953 296.004 80.5267 296.004 80.928Z" fill="#DA291C"/>
<rect x="230.5" y="60.5" width="82" height="35" rx="1.5" stroke="#DA291C"/>
<rect x="321" y="60" width="57" height="36" rx="2" fill="#088A08"/>
<path d="M336.944 85.66C336.72 85.66 336.524 85.6413 336.356 85.604C336.188 85.576 336.039 85.534 335.908 85.478V84.414C336.057 84.4607 336.216 84.4933 336.384 84.512C336.552 84.54 336.729 84.554 336.916 84.554C337.149 84.554 337.369 84.5073 337.574 84.414C337.789 84.3207 337.961 84.1573 338.092 83.924C338.223 83.7 338.288 83.3733 338.288 82.944V73.004H339.548V82.846C339.548 83.8073 339.31 84.5167 338.834 84.974C338.358 85.4313 337.728 85.66 336.944 85.66ZM348.542 79.234C348.542 80.4753 348.225 81.4367 347.59 82.118C346.965 82.7993 346.115 83.14 345.042 83.14C344.379 83.14 343.787 82.9907 343.264 82.692C342.751 82.384 342.345 81.9407 342.046 81.362C341.747 80.774 341.598 80.0647 341.598 79.234C341.598 77.9927 341.906 77.036 342.522 76.364C343.147 75.692 344.001 75.356 345.084 75.356C345.756 75.356 346.353 75.51 346.876 75.818C347.399 76.1167 347.805 76.5553 348.094 77.134C348.393 77.7033 348.542 78.4033 348.542 79.234ZM342.872 79.234C342.872 80.1207 343.045 80.8253 343.39 81.348C343.745 81.8613 344.305 82.118 345.07 82.118C345.826 82.118 346.381 81.8613 346.736 81.348C347.091 80.8253 347.268 80.1207 347.268 79.234C347.268 78.3473 347.091 77.652 346.736 77.148C346.381 76.644 345.821 76.392 345.056 76.392C344.291 76.392 343.735 76.644 343.39 77.148C343.045 77.652 342.872 78.3473 342.872 79.234ZM351.125 72.682C351.311 72.682 351.475 72.7473 351.615 72.878C351.764 72.9993 351.839 73.1953 351.839 73.466C351.839 73.7367 351.764 73.9373 351.615 74.068C351.475 74.1893 351.311 74.25 351.125 74.25C350.919 74.25 350.747 74.1893 350.607 74.068C350.467 73.9373 350.397 73.7367 350.397 73.466C350.397 73.1953 350.467 72.9993 350.607 72.878C350.747 72.7473 350.919 72.682 351.125 72.682ZM351.727 75.496V83H350.495V75.496H351.727ZM357.716 75.356C358.612 75.356 359.289 75.5753 359.746 76.014C360.203 76.4527 360.432 77.1527 360.432 78.114V83H359.214V78.198C359.214 76.994 358.654 76.392 357.534 76.392C356.703 76.392 356.129 76.6253 355.812 77.092C355.495 77.5587 355.336 78.2307 355.336 79.108V83H354.104V75.496H355.098L355.28 76.518H355.35C355.593 76.126 355.929 75.8367 356.358 75.65C356.787 75.454 357.24 75.356 357.716 75.356Z" fill="white"/>
</g>
<rect x="18.5" y="40.5" width="375" height="75" rx="3.5" stroke="#C9C9C9"/>
<g clip-path="url(#clip2_9044_346320)">
<rect x="18" y="132" width="376" height="76" rx="4" fill="#FDEDED"/>
<path d="M49.25 171.06V163.35C49.25 163.151 49.329 162.96 49.4697 162.82C49.6103 162.679 49.8011 162.6 50 162.6C50.1989 162.6 50.3897 162.679 50.5303 162.82C50.671 162.96 50.75 163.151 50.75 163.35V171.06C50.75 171.259 50.671 171.45 50.5303 171.59C50.3897 171.731 50.1989 171.81 50 171.81C49.8011 171.81 49.6103 171.731 49.4697 171.59C49.329 171.45 49.25 171.259 49.25 171.06ZM62.8 172.89L52.89 182.8C52.511 183.18 52.0606 183.482 51.5646 183.688C51.0687 183.894 50.537 184 50 184C49.463 184 48.9313 183.894 48.4354 183.688C47.9395 183.482 47.4891 183.18 47.11 182.8L37.2 172.89C36.8197 172.511 36.5179 172.061 36.3119 171.565C36.106 171.069 36 170.537 36 170C36 169.463 36.106 168.931 36.3119 168.435C36.5179 167.939 36.8197 167.489 37.2 167.11L47.11 157.2C47.4891 156.82 47.9395 156.518 48.4354 156.312C48.9313 156.106 49.463 156 50 156C50.537 156 51.0687 156.106 51.5646 156.312C52.0606 156.518 52.511 156.82 52.89 157.2L62.8 167.11C63.1804 167.489 63.4822 167.939 63.6881 168.435C63.894 168.931 64 169.463 64 170C64 170.537 63.894 171.069 63.6881 171.565C63.4822 172.061 63.1804 172.511 62.8 172.89ZM61.74 168.17L51.83 158.26C51.5902 158.019 51.3051 157.827 50.991 157.697C50.677 157.566 50.3402 157.499 50 157.499C49.6599 157.499 49.3231 157.566 49.009 157.697C48.6949 157.827 48.4098 158.019 48.17 158.26L38.26 168.17C37.7752 168.656 37.5028 169.314 37.5028 170C37.5028 170.686 37.7752 171.344 38.26 171.83L48.17 181.74C48.663 182.211 49.3184 182.473 50 182.473C50.6816 182.473 51.337 182.211 51.83 181.74L61.74 171.83C62.2249 171.344 62.4972 170.686 62.4972 170C62.4972 169.314 62.2249 168.656 61.74 168.17ZM50 174.05C49.7429 174.05 49.4916 174.126 49.2778 174.269C49.064 174.412 48.8974 174.615 48.799 174.853C48.7006 175.09 48.6748 175.351 48.725 175.604C48.7752 175.856 48.899 176.087 49.0808 176.269C49.2626 176.451 49.4942 176.575 49.7464 176.625C49.9986 176.675 50.26 176.649 50.4975 176.551C50.735 176.453 50.9381 176.286 51.0809 176.072C51.2238 175.858 51.3 175.607 51.3 175.35C51.3 175.179 51.2664 175.01 51.2011 174.853C51.1357 174.695 51.04 174.551 50.9193 174.431C50.7985 174.31 50.6552 174.214 50.4975 174.149C50.3398 174.084 50.1707 174.05 50 174.05Z" fill="#B51418"/>
<g clip-path="url(#clip3_9044_346320)">
<path d="M77.553 165H75.843V151.434H83.424V152.935H77.553V157.742H83.063V159.243H77.553V165ZM86.3225 150.997C86.5759 150.997 86.7975 151.086 86.9875 151.263C87.1902 151.428 87.2915 151.694 87.2915 152.061C87.2915 152.428 87.1902 152.701 86.9875 152.878C86.7975 153.043 86.5759 153.125 86.3225 153.125C86.0439 153.125 85.8095 153.043 85.6195 152.878C85.4295 152.701 85.3345 152.428 85.3345 152.061C85.3345 151.694 85.4295 151.428 85.6195 151.263C85.8095 151.086 86.0439 150.997 86.3225 150.997ZM87.1395 154.816V165H85.4675V154.816H87.1395ZM92.038 165H90.366V150.56H92.038V165ZM99.1974 154.626C100.059 154.626 100.806 154.816 101.439 155.196C102.073 155.576 102.554 156.114 102.883 156.811C103.225 157.495 103.396 158.299 103.396 159.224V160.231H96.4234C96.4487 161.384 96.7401 162.264 97.2974 162.872C97.8674 163.467 98.6591 163.765 99.6724 163.765C100.318 163.765 100.888 163.708 101.382 163.594C101.889 163.467 102.408 163.29 102.94 163.062V164.525C102.421 164.753 101.908 164.918 101.401 165.019C100.895 165.133 100.293 165.19 99.5964 165.19C98.6211 165.19 97.7661 164.994 97.0314 164.601C96.2967 164.208 95.7204 163.626 95.3024 162.853C94.8971 162.08 94.6944 161.124 94.6944 159.984C94.6944 158.869 94.8781 157.913 95.2454 157.115C95.6254 156.317 96.1511 155.703 96.8224 155.272C97.5064 154.841 98.2981 154.626 99.1974 154.626ZM99.1784 155.994C98.3804 155.994 97.7471 156.254 97.2784 156.773C96.8224 157.28 96.5501 157.989 96.4614 158.901H101.648C101.636 158.04 101.433 157.343 101.04 156.811C100.648 156.266 100.027 155.994 99.1784 155.994ZM121.47 151.434V160.212C121.47 161.149 121.28 161.998 120.9 162.758C120.52 163.505 119.937 164.101 119.152 164.544C118.366 164.975 117.378 165.19 116.188 165.19C114.49 165.19 113.205 164.734 112.331 163.822C111.457 162.897 111.02 161.681 111.02 160.174V151.434H112.73V160.231C112.73 161.333 113.021 162.188 113.604 162.796C114.199 163.404 115.092 163.708 116.283 163.708C117.511 163.708 118.398 163.385 118.943 162.739C119.5 162.08 119.779 161.238 119.779 160.212V151.434H121.47ZM129.667 154.626C130.921 154.626 131.928 155.063 132.688 155.937C133.461 156.811 133.847 158.128 133.847 159.889C133.847 161.624 133.461 162.942 132.688 163.841C131.928 164.74 130.915 165.19 129.648 165.19C128.863 165.19 128.21 165.044 127.691 164.753C127.184 164.462 126.785 164.113 126.494 163.708H126.38C126.393 163.923 126.412 164.196 126.437 164.525C126.475 164.854 126.494 165.139 126.494 165.38V169.56H124.822V154.816H126.19L126.418 156.203H126.494C126.798 155.76 127.197 155.386 127.691 155.082C128.185 154.778 128.844 154.626 129.667 154.626ZM129.363 156.032C128.324 156.032 127.59 156.323 127.159 156.906C126.728 157.489 126.507 158.375 126.494 159.566V159.889C126.494 161.143 126.697 162.112 127.102 162.796C127.52 163.467 128.286 163.803 129.401 163.803C130.009 163.803 130.516 163.638 130.921 163.309C131.326 162.967 131.624 162.498 131.814 161.903C132.017 161.308 132.118 160.63 132.118 159.87C132.118 158.705 131.89 157.774 131.434 157.077C130.991 156.38 130.3 156.032 129.363 156.032ZM138.183 165H136.511V150.56H138.183V165ZM150.264 159.889C150.264 161.574 149.833 162.878 148.972 163.803C148.123 164.728 146.971 165.19 145.514 165.19C144.615 165.19 143.81 164.987 143.101 164.582C142.404 164.164 141.853 163.562 141.448 162.777C141.043 161.979 140.84 161.016 140.84 159.889C140.84 158.204 141.258 156.906 142.094 155.994C142.943 155.082 144.102 154.626 145.571 154.626C146.483 154.626 147.294 154.835 148.003 155.253C148.712 155.658 149.263 156.254 149.656 157.039C150.061 157.812 150.264 158.762 150.264 159.889ZM142.569 159.889C142.569 161.092 142.803 162.049 143.272 162.758C143.753 163.455 144.513 163.803 145.552 163.803C146.578 163.803 147.332 163.455 147.813 162.758C148.294 162.049 148.535 161.092 148.535 159.889C148.535 158.686 148.294 157.742 147.813 157.058C147.332 156.374 146.572 156.032 145.533 156.032C144.494 156.032 143.741 156.374 143.272 157.058C142.803 157.742 142.569 158.686 142.569 159.889ZM156.771 154.645C158.012 154.645 158.93 154.917 159.526 155.462C160.121 156.007 160.419 156.874 160.419 158.065V165H159.203L158.88 163.556H158.804C158.36 164.113 157.892 164.525 157.398 164.791C156.904 165.057 156.232 165.19 155.384 165.19C154.459 165.19 153.693 164.949 153.085 164.468C152.477 163.974 152.173 163.208 152.173 162.169C152.173 161.156 152.572 160.377 153.37 159.832C154.168 159.275 155.396 158.971 157.056 158.92L158.785 158.863V158.255C158.785 157.406 158.601 156.817 158.234 156.488C157.866 156.159 157.347 155.994 156.676 155.994C156.144 155.994 155.637 156.076 155.156 156.241C154.674 156.393 154.225 156.57 153.807 156.773L153.294 155.519C153.737 155.278 154.263 155.076 154.871 154.911C155.479 154.734 156.112 154.645 156.771 154.645ZM158.766 160.022L157.265 160.079C155.998 160.13 155.118 160.332 154.624 160.687C154.142 161.042 153.902 161.542 153.902 162.188C153.902 162.758 154.073 163.176 154.415 163.442C154.769 163.708 155.219 163.841 155.764 163.841C156.612 163.841 157.322 163.607 157.892 163.138C158.474 162.657 158.766 161.922 158.766 160.934V160.022ZM167.174 165.19C165.908 165.19 164.894 164.753 164.134 163.879C163.374 162.992 162.994 161.675 162.994 159.927C162.994 158.179 163.374 156.862 164.134 155.975C164.907 155.076 165.927 154.626 167.193 154.626C167.979 154.626 168.618 154.772 169.112 155.063C169.619 155.354 170.031 155.709 170.347 156.127H170.461C170.436 155.962 170.411 155.722 170.385 155.405C170.36 155.076 170.347 154.816 170.347 154.626V150.56H172.019V165H170.67L170.423 163.632H170.347C170.043 164.063 169.638 164.43 169.131 164.734C168.625 165.038 167.972 165.19 167.174 165.19ZM167.44 163.803C168.517 163.803 169.271 163.512 169.701 162.929C170.145 162.334 170.366 161.441 170.366 160.25V159.946C170.366 158.679 170.157 157.71 169.739 157.039C169.321 156.355 168.549 156.013 167.421 156.013C166.522 156.013 165.844 156.374 165.388 157.096C164.945 157.805 164.723 158.762 164.723 159.965C164.723 161.181 164.945 162.125 165.388 162.796C165.844 163.467 166.528 163.803 167.44 163.803ZM182.127 165H180.417V151.434H187.998V152.935H182.127V157.742H187.637V159.243H182.127V165ZM193.899 154.645C195.14 154.645 196.058 154.917 196.654 155.462C197.249 156.007 197.547 156.874 197.547 158.065V165H196.331L196.008 163.556H195.932C195.488 164.113 195.02 164.525 194.526 164.791C194.032 165.057 193.36 165.19 192.512 165.19C191.587 165.19 190.821 164.949 190.213 164.468C189.605 163.974 189.301 163.208 189.301 162.169C189.301 161.156 189.7 160.377 190.498 159.832C191.296 159.275 192.524 158.971 194.184 158.92L195.913 158.863V158.255C195.913 157.406 195.729 156.817 195.362 156.488C194.994 156.159 194.475 155.994 193.804 155.994C193.272 155.994 192.765 156.076 192.284 156.241C191.802 156.393 191.353 156.57 190.935 156.773L190.422 155.519C190.865 155.278 191.391 155.076 191.999 154.911C192.607 154.734 193.24 154.645 193.899 154.645ZM195.894 160.022L194.393 160.079C193.126 160.13 192.246 160.332 191.752 160.687C191.27 161.042 191.03 161.542 191.03 162.188C191.03 162.758 191.201 163.176 191.543 163.442C191.897 163.708 192.347 163.841 192.892 163.841C193.74 163.841 194.45 163.607 195.02 163.138C195.602 162.657 195.894 161.922 195.894 160.934V160.022ZM201.547 150.997C201.8 150.997 202.022 151.086 202.212 151.263C202.415 151.428 202.516 151.694 202.516 152.061C202.516 152.428 202.415 152.701 202.212 152.878C202.022 153.043 201.8 153.125 201.547 153.125C201.268 153.125 201.034 153.043 200.844 152.878C200.654 152.701 200.559 152.428 200.559 152.061C200.559 151.694 200.654 151.428 200.844 151.263C201.034 151.086 201.268 150.997 201.547 150.997ZM202.364 154.816V165H200.692V154.816H202.364ZM207.263 165H205.591V150.56H207.263V165ZM214.422 154.626C215.283 154.626 216.031 154.816 216.664 155.196C217.297 155.576 217.779 156.114 218.108 156.811C218.45 157.495 218.621 158.299 218.621 159.224V160.231H211.648C211.673 161.384 211.965 162.264 212.522 162.872C213.092 163.467 213.884 163.765 214.897 163.765C215.543 163.765 216.113 163.708 216.607 163.594C217.114 163.467 217.633 163.29 218.165 163.062V164.525C217.646 164.753 217.133 164.918 216.626 165.019C216.119 165.133 215.518 165.19 214.821 165.19C213.846 165.19 212.991 164.994 212.256 164.601C211.521 164.208 210.945 163.626 210.527 162.853C210.122 162.08 209.919 161.124 209.919 159.984C209.919 158.869 210.103 157.913 210.47 157.115C210.85 156.317 211.376 155.703 212.047 155.272C212.731 154.841 213.523 154.626 214.422 154.626ZM214.403 155.994C213.605 155.994 212.972 156.254 212.503 156.773C212.047 157.28 211.775 157.989 211.686 158.901H216.873C216.86 158.04 216.658 157.343 216.265 156.811C215.872 156.266 215.252 155.994 214.403 155.994ZM224.824 165.19C223.557 165.19 222.544 164.753 221.784 163.879C221.024 162.992 220.644 161.675 220.644 159.927C220.644 158.179 221.024 156.862 221.784 155.975C222.556 155.076 223.576 154.626 224.843 154.626C225.628 154.626 226.268 154.772 226.762 155.063C227.268 155.354 227.68 155.709 227.997 156.127H228.111C228.085 155.962 228.06 155.722 228.035 155.405C228.009 155.076 227.997 154.816 227.997 154.626V150.56H229.669V165H228.32L228.073 163.632H227.997C227.693 164.063 227.287 164.43 226.781 164.734C226.274 165.038 225.622 165.19 224.824 165.19ZM225.09 163.803C226.166 163.803 226.92 163.512 227.351 162.929C227.794 162.334 228.016 161.441 228.016 160.25V159.946C228.016 158.679 227.807 157.71 227.389 157.039C226.971 156.355 226.198 156.013 225.071 156.013C224.171 156.013 223.494 156.374 223.038 157.096C222.594 157.805 222.373 158.762 222.373 159.965C222.373 161.181 222.594 162.125 223.038 162.796C223.494 163.467 224.178 163.803 225.09 163.803Z" fill="black"/>
<path d="M78.522 191H77.262V182.11H74.14V181.004H81.63V182.11H78.522V191ZM84.2013 180.36V183.482C84.2013 183.855 84.178 184.205 84.1313 184.532H84.2153C84.458 184.149 84.7846 183.86 85.1953 183.664C85.6153 183.468 86.068 183.37 86.5533 183.37C87.4586 183.37 88.14 183.589 88.5973 184.028C89.064 184.457 89.2973 185.153 89.2973 186.114V191H88.0793V186.198C88.0793 184.994 87.5193 184.392 86.3993 184.392C85.5593 184.392 84.9806 184.63 84.6633 185.106C84.3553 185.573 84.2013 186.245 84.2013 187.122V191H82.9693V180.36H84.2013ZM94.5216 183.356C95.1563 183.356 95.7069 183.496 96.1736 183.776C96.6403 184.056 96.9949 184.453 97.2376 184.966C97.4896 185.47 97.6156 186.063 97.6156 186.744V187.486H92.4776C92.4963 188.335 92.7109 188.984 93.1216 189.432C93.5416 189.871 94.1249 190.09 94.8716 190.09C95.3476 190.09 95.7676 190.048 96.1316 189.964C96.5049 189.871 96.8876 189.74 97.2796 189.572V190.65C96.8969 190.818 96.5189 190.939 96.1456 191.014C95.7723 191.098 95.3289 191.14 94.8156 191.14C94.0969 191.14 93.4669 190.995 92.9256 190.706C92.3843 190.417 91.9596 189.987 91.6516 189.418C91.3529 188.849 91.2036 188.144 91.2036 187.304C91.2036 186.483 91.3389 185.778 91.6096 185.19C91.8896 184.602 92.2769 184.149 92.7716 183.832C93.2756 183.515 93.8589 183.356 94.5216 183.356ZM94.5076 184.364C93.9196 184.364 93.4529 184.555 93.1076 184.938C92.7716 185.311 92.5709 185.834 92.5056 186.506H96.3276C96.3183 185.871 96.1689 185.358 95.8796 184.966C95.5903 184.565 95.1329 184.364 94.5076 184.364ZM106.621 184.448H104.731V191H103.499V184.448H102.183V183.874L103.499 183.454V183.02C103.499 182.049 103.709 181.354 104.129 180.934C104.558 180.505 105.16 180.29 105.935 180.29C106.224 180.29 106.495 180.318 106.747 180.374C106.999 180.421 107.213 180.477 107.391 180.542L107.069 181.508C106.919 181.461 106.747 181.415 106.551 181.368C106.355 181.321 106.154 181.298 105.949 181.298C105.538 181.298 105.23 181.438 105.025 181.718C104.829 181.989 104.731 182.418 104.731 183.006V183.496H106.621V184.448ZM108.605 180.682C108.792 180.682 108.955 180.747 109.095 180.878C109.244 180.999 109.319 181.195 109.319 181.466C109.319 181.737 109.244 181.937 109.095 182.068C108.955 182.189 108.792 182.25 108.605 182.25C108.4 182.25 108.227 182.189 108.087 182.068C107.947 181.937 107.877 181.737 107.877 181.466C107.877 181.195 107.947 180.999 108.087 180.878C108.227 180.747 108.4 180.682 108.605 180.682ZM109.207 183.496V191H107.975V183.496H109.207ZM112.817 191H111.585V180.36H112.817V191ZM118.092 183.356C118.727 183.356 119.277 183.496 119.744 183.776C120.211 184.056 120.565 184.453 120.808 184.966C121.06 185.47 121.186 186.063 121.186 186.744V187.486H116.048C116.067 188.335 116.281 188.984 116.692 189.432C117.112 189.871 117.695 190.09 118.442 190.09C118.918 190.09 119.338 190.048 119.702 189.964C120.075 189.871 120.458 189.74 120.85 189.572V190.65C120.467 190.818 120.089 190.939 119.716 191.014C119.343 191.098 118.899 191.14 118.386 191.14C117.667 191.14 117.037 190.995 116.496 190.706C115.955 190.417 115.53 189.987 115.222 189.418C114.923 188.849 114.774 188.144 114.774 187.304C114.774 186.483 114.909 185.778 115.18 185.19C115.46 184.602 115.847 184.149 116.342 183.832C116.846 183.515 117.429 183.356 118.092 183.356ZM118.078 184.364C117.49 184.364 117.023 184.555 116.678 184.938C116.342 185.311 116.141 185.834 116.076 186.506H119.898C119.889 185.871 119.739 185.358 119.45 184.966C119.161 184.565 118.703 184.364 118.078 184.364ZM129.631 183.356C130.266 183.356 130.816 183.496 131.283 183.776C131.75 184.056 132.104 184.453 132.347 184.966C132.599 185.47 132.725 186.063 132.725 186.744V187.486H127.587C127.606 188.335 127.82 188.984 128.231 189.432C128.651 189.871 129.234 190.09 129.981 190.09C130.457 190.09 130.877 190.048 131.241 189.964C131.614 189.871 131.997 189.74 132.389 189.572V190.65C132.006 190.818 131.628 190.939 131.255 191.014C130.882 191.098 130.438 191.14 129.925 191.14C129.206 191.14 128.576 190.995 128.035 190.706C127.494 190.417 127.069 189.987 126.761 189.418C126.462 188.849 126.313 188.144 126.313 187.304C126.313 186.483 126.448 185.778 126.719 185.19C126.999 184.602 127.386 184.149 127.881 183.832C128.385 183.515 128.968 183.356 129.631 183.356ZM129.617 184.364C129.029 184.364 128.562 184.555 128.217 184.938C127.881 185.311 127.68 185.834 127.615 186.506H131.437C131.428 185.871 131.278 185.358 130.989 184.966C130.7 184.565 130.242 184.364 129.617 184.364ZM136.14 187.164L133.55 183.496H134.95L136.882 186.324L138.8 183.496H140.186L137.596 187.164L140.326 191H138.926L136.882 188.004L134.81 191H133.424L136.14 187.164ZM144.509 191.14C143.837 191.14 143.244 191.005 142.731 190.734C142.217 190.463 141.811 190.043 141.513 189.474C141.223 188.905 141.079 188.177 141.079 187.29C141.079 186.366 141.228 185.615 141.527 185.036C141.835 184.457 142.255 184.033 142.787 183.762C143.319 183.491 143.921 183.356 144.593 183.356C144.966 183.356 145.33 183.398 145.685 183.482C146.049 183.557 146.343 183.65 146.567 183.762L146.189 184.784C145.965 184.7 145.703 184.621 145.405 184.546C145.106 184.471 144.826 184.434 144.565 184.434C143.09 184.434 142.353 185.381 142.353 187.276C142.353 188.181 142.53 188.877 142.885 189.362C143.249 189.838 143.785 190.076 144.495 190.076C144.896 190.076 145.255 190.034 145.573 189.95C145.89 189.866 146.179 189.763 146.441 189.642V190.734C146.189 190.865 145.909 190.963 145.601 191.028C145.302 191.103 144.938 191.14 144.509 191.14ZM151.123 183.356C151.758 183.356 152.308 183.496 152.775 183.776C153.242 184.056 153.596 184.453 153.839 184.966C154.091 185.47 154.217 186.063 154.217 186.744V187.486H149.079C149.098 188.335 149.312 188.984 149.723 189.432C150.143 189.871 150.726 190.09 151.473 190.09C151.949 190.09 152.369 190.048 152.733 189.964C153.106 189.871 153.489 189.74 153.881 189.572V190.65C153.498 190.818 153.12 190.939 152.747 191.014C152.374 191.098 151.93 191.14 151.417 191.14C150.698 191.14 150.068 190.995 149.527 190.706C148.986 190.417 148.561 189.987 148.253 189.418C147.954 188.849 147.805 188.144 147.805 187.304C147.805 186.483 147.94 185.778 148.211 185.19C148.491 184.602 148.878 184.149 149.373 183.832C149.877 183.515 150.46 183.356 151.123 183.356ZM151.109 184.364C150.521 184.364 150.054 184.555 149.709 184.938C149.373 185.311 149.172 185.834 149.107 186.506H152.929C152.92 185.871 152.77 185.358 152.481 184.966C152.192 184.565 151.734 184.364 151.109 184.364ZM159.026 183.356C159.66 183.356 160.211 183.496 160.678 183.776C161.144 184.056 161.499 184.453 161.742 184.966C161.994 185.47 162.12 186.063 162.12 186.744V187.486H156.982C157 188.335 157.215 188.984 157.626 189.432C158.046 189.871 158.629 190.09 159.376 190.09C159.852 190.09 160.272 190.048 160.636 189.964C161.009 189.871 161.392 189.74 161.784 189.572V190.65C161.401 190.818 161.023 190.939 160.65 191.014C160.276 191.098 159.833 191.14 159.32 191.14C158.601 191.14 157.971 190.995 157.43 190.706C156.888 190.417 156.464 189.987 156.156 189.418C155.857 188.849 155.708 188.144 155.708 187.304C155.708 186.483 155.843 185.778 156.114 185.19C156.394 184.602 156.781 184.149 157.276 183.832C157.78 183.515 158.363 183.356 159.026 183.356ZM159.012 184.364C158.424 184.364 157.957 184.555 157.612 184.938C157.276 185.311 157.075 185.834 157.01 186.506H160.832C160.822 185.871 160.673 185.358 160.384 184.966C160.094 184.565 159.637 184.364 159.012 184.364ZM166.69 191.14C165.757 191.14 165.01 190.818 164.45 190.174C163.89 189.521 163.61 188.55 163.61 187.262C163.61 185.974 163.89 185.003 164.45 184.35C165.019 183.687 165.771 183.356 166.704 183.356C167.283 183.356 167.754 183.463 168.118 183.678C168.491 183.893 168.795 184.154 169.028 184.462H169.112C169.093 184.341 169.075 184.163 169.056 183.93C169.037 183.687 169.028 183.496 169.028 183.356V180.36H170.26V191H169.266L169.084 189.992H169.028C168.804 190.309 168.505 190.58 168.132 190.804C167.759 191.028 167.278 191.14 166.69 191.14ZM166.886 190.118C167.679 190.118 168.235 189.903 168.552 189.474C168.879 189.035 169.042 188.377 169.042 187.5V187.276C169.042 186.343 168.888 185.629 168.58 185.134C168.272 184.63 167.703 184.378 166.872 184.378C166.209 184.378 165.71 184.644 165.374 185.176C165.047 185.699 164.884 186.403 164.884 187.29C164.884 188.186 165.047 188.881 165.374 189.376C165.71 189.871 166.214 190.118 166.886 190.118ZM177.529 188.928C177.529 189.656 177.258 190.207 176.717 190.58C176.176 190.953 175.448 191.14 174.533 191.14C174.01 191.14 173.558 191.098 173.175 191.014C172.802 190.93 172.47 190.813 172.181 190.664V189.544C172.48 189.693 172.839 189.833 173.259 189.964C173.688 190.085 174.122 190.146 174.561 190.146C175.186 190.146 175.639 190.048 175.919 189.852C176.199 189.647 176.339 189.376 176.339 189.04C176.339 188.853 176.288 188.685 176.185 188.536C176.082 188.387 175.896 188.237 175.625 188.088C175.364 187.939 174.986 187.771 174.491 187.584C174.006 187.397 173.59 187.211 173.245 187.024C172.9 186.837 172.634 186.613 172.447 186.352C172.26 186.091 172.167 185.755 172.167 185.344C172.167 184.709 172.424 184.219 172.937 183.874C173.46 183.529 174.141 183.356 174.981 183.356C175.438 183.356 175.863 183.403 176.255 183.496C176.656 183.589 177.03 183.711 177.375 183.86L176.955 184.84C176.638 184.709 176.306 184.597 175.961 184.504C175.616 184.411 175.261 184.364 174.897 184.364C174.393 184.364 174.006 184.448 173.735 184.616C173.474 184.775 173.343 184.994 173.343 185.274C173.343 185.489 173.404 185.666 173.525 185.806C173.646 185.946 173.847 186.086 174.127 186.226C174.416 186.366 174.799 186.525 175.275 186.702C175.751 186.879 176.157 187.061 176.493 187.248C176.829 187.435 177.086 187.663 177.263 187.934C177.44 188.195 177.529 188.527 177.529 188.928ZM185.485 190.132C185.672 190.132 185.863 190.118 186.059 190.09C186.255 190.062 186.414 190.025 186.535 189.978V190.916C186.404 190.981 186.218 191.033 185.975 191.07C185.732 191.117 185.499 191.14 185.275 191.14C184.883 191.14 184.519 191.075 184.183 190.944C183.856 190.804 183.59 190.566 183.385 190.23C183.18 189.894 183.077 189.423 183.077 188.816V184.448H182.013V183.86L183.091 183.37L183.581 181.774H184.309V183.496H186.479V184.448H184.309V188.788C184.309 189.245 184.416 189.586 184.631 189.81C184.855 190.025 185.14 190.132 185.485 190.132ZM189.27 180.36V183.482C189.27 183.855 189.246 184.205 189.2 184.532H189.284C189.526 184.149 189.853 183.86 190.264 183.664C190.684 183.468 191.136 183.37 191.622 183.37C192.527 183.37 193.208 183.589 193.666 184.028C194.132 184.457 194.366 185.153 194.366 186.114V191H193.148V186.198C193.148 184.994 192.588 184.392 191.468 184.392C190.628 184.392 190.049 184.63 189.732 185.106C189.424 185.573 189.27 186.245 189.27 187.122V191H188.038V180.36H189.27ZM199.59 183.356C200.225 183.356 200.775 183.496 201.242 183.776C201.709 184.056 202.063 184.453 202.306 184.966C202.558 185.47 202.684 186.063 202.684 186.744V187.486H197.546C197.565 188.335 197.779 188.984 198.19 189.432C198.61 189.871 199.193 190.09 199.94 190.09C200.416 190.09 200.836 190.048 201.2 189.964C201.573 189.871 201.956 189.74 202.348 189.572V190.65C201.965 190.818 201.587 190.939 201.214 191.014C200.841 191.098 200.397 191.14 199.884 191.14C199.165 191.14 198.535 190.995 197.994 190.706C197.453 190.417 197.028 189.987 196.72 189.418C196.421 188.849 196.272 188.144 196.272 187.304C196.272 186.483 196.407 185.778 196.678 185.19C196.958 184.602 197.345 184.149 197.84 183.832C198.344 183.515 198.927 183.356 199.59 183.356ZM199.576 184.364C198.988 184.364 198.521 184.555 198.176 184.938C197.84 185.311 197.639 185.834 197.574 186.506H201.396C201.387 185.871 201.237 185.358 200.948 184.966C200.659 184.565 200.201 184.364 199.576 184.364ZM212.011 191H210.807V184.014C210.807 183.613 210.812 183.291 210.821 183.048C210.83 182.805 210.844 182.553 210.863 182.292C210.714 182.441 210.574 182.567 210.443 182.67C210.322 182.773 210.172 182.903 209.995 183.062L208.931 183.93L208.287 183.104L210.989 181.004H212.011V191ZM224.387 185.722H227.845V190.622C227.304 190.799 226.758 190.93 226.207 191.014C225.657 191.098 225.031 191.14 224.331 191.14C223.295 191.14 222.423 190.935 221.713 190.524C221.004 190.104 220.463 189.511 220.089 188.746C219.725 187.971 219.543 187.057 219.543 186.002C219.543 184.966 219.744 184.065 220.145 183.3C220.556 182.525 221.149 181.928 221.923 181.508C222.698 181.079 223.631 180.864 224.723 180.864C225.283 180.864 225.811 180.915 226.305 181.018C226.809 181.121 227.276 181.265 227.705 181.452L227.229 182.544C226.875 182.395 226.473 182.264 226.025 182.152C225.587 182.031 225.129 181.97 224.653 181.97C223.459 181.97 222.525 182.334 221.853 183.062C221.191 183.781 220.859 184.761 220.859 186.002C220.859 186.795 220.985 187.5 221.237 188.116C221.499 188.723 221.905 189.199 222.455 189.544C223.006 189.88 223.729 190.048 224.625 190.048C225.064 190.048 225.437 190.025 225.745 189.978C226.053 189.931 226.333 189.875 226.585 189.81V186.842H224.387V185.722ZM230.233 181.004H233.089C234.33 181.004 235.273 181.191 235.917 181.564C236.561 181.937 236.883 182.577 236.883 183.482C236.883 184.07 236.72 184.56 236.393 184.952C236.066 185.335 235.595 185.582 234.979 185.694V185.764C235.399 185.839 235.777 185.965 236.113 186.142C236.458 186.319 236.729 186.571 236.925 186.898C237.121 187.225 237.219 187.645 237.219 188.158C237.219 189.063 236.906 189.763 236.281 190.258C235.665 190.753 234.82 191 233.747 191H230.233V181.004ZM231.493 185.26H233.341C234.19 185.26 234.774 185.125 235.091 184.854C235.418 184.574 235.581 184.163 235.581 183.622C235.581 183.071 235.385 182.679 234.993 182.446C234.61 182.203 233.994 182.082 233.145 182.082H231.493V185.26ZM231.493 186.31V189.936H233.509C234.396 189.936 235.012 189.763 235.357 189.418C235.702 189.073 235.875 188.62 235.875 188.06C235.875 187.537 235.693 187.117 235.329 186.8C234.974 186.473 234.335 186.31 233.411 186.31H231.493ZM244.039 191H242.807V180.36H244.039V191ZM247.047 180.682C247.233 180.682 247.397 180.747 247.537 180.878C247.686 180.999 247.761 181.195 247.761 181.466C247.761 181.737 247.686 181.937 247.537 182.068C247.397 182.189 247.233 182.25 247.047 182.25C246.841 182.25 246.669 182.189 246.529 182.068C246.389 181.937 246.319 181.737 246.319 181.466C246.319 181.195 246.389 180.999 246.529 180.878C246.669 180.747 246.841 180.682 247.047 180.682ZM247.649 183.496V191H246.417V183.496H247.649ZM258.258 183.356C259.107 183.356 259.742 183.575 260.162 184.014C260.582 184.453 260.792 185.153 260.792 186.114V191H259.574V186.17C259.574 184.985 259.065 184.392 258.048 184.392C257.32 184.392 256.797 184.602 256.48 185.022C256.172 185.442 256.018 186.053 256.018 186.856V191H254.8V186.17C254.8 184.985 254.287 184.392 253.26 184.392C252.504 184.392 251.981 184.625 251.692 185.092C251.403 185.559 251.258 186.231 251.258 187.108V191H250.026V183.496H251.02L251.202 184.518H251.272C251.505 184.126 251.818 183.837 252.21 183.65C252.611 183.454 253.036 183.356 253.484 183.356C254.66 183.356 255.425 183.776 255.78 184.616H255.85C256.102 184.187 256.443 183.869 256.872 183.664C257.301 183.459 257.763 183.356 258.258 183.356ZM263.74 180.682C263.927 180.682 264.09 180.747 264.23 180.878C264.379 180.999 264.454 181.195 264.454 181.466C264.454 181.737 264.379 181.937 264.23 182.068C264.09 182.189 263.927 182.25 263.74 182.25C263.535 182.25 263.362 182.189 263.222 182.068C263.082 181.937 263.012 181.737 263.012 181.466C263.012 181.195 263.082 180.999 263.222 180.878C263.362 180.747 263.535 180.682 263.74 180.682ZM264.342 183.496V191H263.11V183.496H264.342ZM269.225 190.132C269.412 190.132 269.603 190.118 269.799 190.09C269.995 190.062 270.154 190.025 270.275 189.978V190.916C270.145 190.981 269.958 191.033 269.715 191.07C269.473 191.117 269.239 191.14 269.015 191.14C268.623 191.14 268.259 191.075 267.923 190.944C267.597 190.804 267.331 190.566 267.125 190.23C266.92 189.894 266.817 189.423 266.817 188.816V184.448H265.753V183.86L266.831 183.37L267.321 181.774H268.049V183.496H270.219V184.448H268.049V188.788C268.049 189.245 268.157 189.586 268.371 189.81C268.595 190.025 268.88 190.132 269.225 190.132Z" fill="black"/>
</g>
<path d="M370.513 170.012L373.863 166.662C374.013 166.512 374.013 166.263 373.863 166.113C373.713 165.962 373.463 165.962 373.313 166.113L370.013 169.463L366.663 166.113C366.513 165.962 366.263 165.962 366.113 166.113C365.962 166.263 365.962 166.512 366.113 166.662L369.463 170.012L366.113 173.362C365.962 173.512 365.962 173.762 366.113 173.912C366.163 173.963 366.263 174.012 366.363 174.012C366.463 174.012 366.563 173.963 366.613 173.912L370.013 170.512L373.363 173.862C373.413 173.912 373.513 173.962 373.613 173.962C373.713 173.962 373.813 173.912 373.863 173.862C374.013 173.712 374.013 173.463 373.863 173.312L370.513 170.012Z" fill="black"/>
</g>
<rect x="18.5" y="132.5" width="375" height="75" rx="3.5" stroke="#FFC0BE"/>
<defs>
<clipPath id="clip0_9044_346320">
<rect x="18" y="40" width="376" height="76" rx="4" fill="white"/>
</clipPath>
<clipPath id="clip1_9044_346320">
<rect width="125" height="52" fill="white" transform="translate(74 52)"/>
</clipPath>
<clipPath id="clip2_9044_346320">
<rect x="18" y="132" width="376" height="76" rx="4" fill="white"/>
</clipPath>
<clipPath id="clip3_9044_346320">
<rect width="197" height="52" fill="white" transform="translate(74 144)"/>
</clipPath>
</defs>
</svg>
