<svg width="952" height="384" viewBox="0 0 952 384" fill="none" xmlns="http://www.w3.org/2000/svg">
<rect width="952" height="384" fill="#C9C9C9"/>
<g filter="url(#filter0_d_8803_359722)">
<rect x="196" y="40" width="560" height="304" rx="4" fill="white"/>
<path d="M463.165 85H461.455V72.935H457.218V71.434H467.383V72.935H463.165V85ZM470.055 70.997C470.309 70.997 470.53 71.0857 470.72 71.263C470.923 71.4277 471.024 71.6937 471.024 72.061C471.024 72.4283 470.923 72.7007 470.72 72.878C470.53 73.0427 470.309 73.125 470.055 73.125C469.777 73.125 469.542 73.0427 469.352 72.878C469.162 72.7007 469.067 72.4283 469.067 72.061C469.067 71.6937 469.162 71.4277 469.352 71.263C469.542 71.0857 469.777 70.997 470.055 70.997ZM470.872 74.816V85H469.2V74.816H470.872ZM477.5 83.822C477.753 83.822 478.013 83.803 478.279 83.765C478.545 83.727 478.76 83.6763 478.925 83.613V84.886C478.748 84.9747 478.494 85.0443 478.165 85.095C477.836 85.1583 477.519 85.19 477.215 85.19C476.683 85.19 476.189 85.1013 475.733 84.924C475.29 84.734 474.929 84.411 474.65 83.955C474.371 83.499 474.232 82.8593 474.232 82.036V76.108H472.788V75.31L474.251 74.645L474.916 72.479H475.904V74.816H478.849V76.108H475.904V81.998C475.904 82.6187 476.05 83.081 476.341 83.385C476.645 83.6763 477.031 83.822 477.5 83.822ZM482.636 85H480.964V70.56H482.636V85ZM489.796 74.626C490.657 74.626 491.404 74.816 492.038 75.196C492.671 75.576 493.152 76.1143 493.482 76.811C493.824 77.495 493.995 78.2993 493.995 79.224V80.231H487.022C487.047 81.3837 487.338 82.264 487.896 82.872C488.466 83.4673 489.257 83.765 490.271 83.765C490.917 83.765 491.487 83.708 491.981 83.594C492.487 83.4673 493.007 83.29 493.539 83.062V84.525C493.019 84.753 492.506 84.9177 492 85.019C491.493 85.133 490.891 85.19 490.195 85.19C489.219 85.19 488.364 84.9937 487.63 84.601C486.895 84.2083 486.319 83.6257 485.901 82.853C485.495 82.0803 485.293 81.124 485.293 79.984C485.293 78.8693 485.476 77.913 485.844 77.115C486.224 76.317 486.749 75.7027 487.421 75.272C488.105 74.8413 488.896 74.626 489.796 74.626ZM489.777 75.994C488.979 75.994 488.345 76.2537 487.877 76.773C487.421 77.2797 487.148 77.989 487.06 78.901H492.247C492.234 78.0397 492.031 77.343 491.639 76.811C491.246 76.2663 490.625 75.994 489.777 75.994Z" fill="black"/>
<rect x="220" y="104" width="512" height="16" rx="1" fill="#DDDDDD"/>
<rect x="220" y="136" width="512" height="16" rx="1" fill="#DDDDDD"/>
<rect x="220" y="168" width="512" height="16" rx="1" fill="#DDDDDD"/>
<rect x="220" y="200" width="512" height="16" rx="1" fill="#DDDDDD"/>
<rect x="220" y="232" width="512" height="16" rx="1" fill="#DDDDDD"/>
<rect x="220" y="264" width="321" height="16" rx="1" fill="#DDDDDD"/>
<g clip-path="url(#clip0_8803_359722)">
<rect x="573.5" y="292.5" width="75" height="35" rx="1.5" fill="white"/>
<path d="M594.642 305.97C593.569 305.97 592.724 306.329 592.108 307.048C591.492 307.767 591.184 308.751 591.184 310.002C591.184 311.243 591.469 312.228 592.038 312.956C592.617 313.675 593.48 314.034 594.628 314.034C595.057 314.034 595.468 313.997 595.86 313.922C596.252 313.847 596.639 313.754 597.022 313.642V314.734C596.649 314.874 596.261 314.977 595.86 315.042C595.468 315.107 594.997 315.14 594.446 315.14C593.429 315.14 592.579 314.93 591.898 314.51C591.217 314.09 590.703 313.493 590.358 312.718C590.022 311.943 589.854 311.033 589.854 309.988C589.854 308.98 590.036 308.093 590.4 307.328C590.773 306.553 591.319 305.951 592.038 305.522C592.757 305.083 593.629 304.864 594.656 304.864C595.711 304.864 596.63 305.06 597.414 305.452L596.91 306.516C596.602 306.376 596.257 306.25 595.874 306.138C595.501 306.026 595.09 305.97 594.642 305.97ZM601.878 307.37C602.792 307.37 603.469 307.571 603.908 307.972C604.346 308.373 604.566 309.013 604.566 309.89V315H603.67L603.432 313.936H603.376C603.049 314.347 602.704 314.65 602.34 314.846C601.976 315.042 601.481 315.14 600.856 315.14C600.174 315.14 599.61 314.963 599.162 314.608C598.714 314.244 598.49 313.679 598.49 312.914C598.49 312.167 598.784 311.593 599.372 311.192C599.96 310.781 600.865 310.557 602.088 310.52L603.362 310.478V310.03C603.362 309.405 603.226 308.971 602.956 308.728C602.685 308.485 602.302 308.364 601.808 308.364C601.416 308.364 601.042 308.425 600.688 308.546C600.333 308.658 600.002 308.789 599.694 308.938L599.316 308.014C599.642 307.837 600.03 307.687 600.478 307.566C600.926 307.435 601.392 307.37 601.878 307.37ZM603.348 311.332L602.242 311.374C601.308 311.411 600.66 311.561 600.296 311.822C599.941 312.083 599.764 312.452 599.764 312.928C599.764 313.348 599.89 313.656 600.142 313.852C600.403 314.048 600.734 314.146 601.136 314.146C601.761 314.146 602.284 313.973 602.704 313.628C603.133 313.273 603.348 312.732 603.348 312.004V311.332ZM610.495 307.356C611.391 307.356 612.068 307.575 612.525 308.014C612.983 308.453 613.211 309.153 613.211 310.114V315H611.993V310.198C611.993 308.994 611.433 308.392 610.313 308.392C609.483 308.392 608.909 308.625 608.591 309.092C608.274 309.559 608.115 310.231 608.115 311.108V315H606.883V307.496H607.877L608.059 308.518H608.129C608.372 308.126 608.708 307.837 609.137 307.65C609.567 307.454 610.019 307.356 610.495 307.356ZM618.548 315.14C617.876 315.14 617.283 315.005 616.77 314.734C616.256 314.463 615.85 314.043 615.552 313.474C615.262 312.905 615.118 312.177 615.118 311.29C615.118 310.366 615.267 309.615 615.566 309.036C615.874 308.457 616.294 308.033 616.826 307.762C617.358 307.491 617.96 307.356 618.632 307.356C619.005 307.356 619.369 307.398 619.724 307.482C620.088 307.557 620.382 307.65 620.606 307.762L620.228 308.784C620.004 308.7 619.742 308.621 619.444 308.546C619.145 308.471 618.865 308.434 618.604 308.434C617.129 308.434 616.392 309.381 616.392 311.276C616.392 312.181 616.569 312.877 616.924 313.362C617.288 313.838 617.824 314.076 618.534 314.076C618.935 314.076 619.294 314.034 619.612 313.95C619.929 313.866 620.218 313.763 620.48 313.642V314.734C620.228 314.865 619.948 314.963 619.64 315.028C619.341 315.103 618.977 315.14 618.548 315.14ZM625.162 307.356C625.797 307.356 626.348 307.496 626.814 307.776C627.281 308.056 627.636 308.453 627.878 308.966C628.13 309.47 628.256 310.063 628.256 310.744V311.486H623.118C623.137 312.335 623.352 312.984 623.762 313.432C624.182 313.871 624.766 314.09 625.512 314.09C625.988 314.09 626.408 314.048 626.772 313.964C627.146 313.871 627.528 313.74 627.92 313.572V314.65C627.538 314.818 627.16 314.939 626.786 315.014C626.413 315.098 625.97 315.14 625.456 315.14C624.738 315.14 624.108 314.995 623.566 314.706C623.025 314.417 622.6 313.987 622.292 313.418C621.994 312.849 621.844 312.144 621.844 311.304C621.844 310.483 621.98 309.778 622.25 309.19C622.53 308.602 622.918 308.149 623.412 307.832C623.916 307.515 624.5 307.356 625.162 307.356ZM625.148 308.364C624.56 308.364 624.094 308.555 623.748 308.938C623.412 309.311 623.212 309.834 623.146 310.506H626.968C626.959 309.871 626.81 309.358 626.52 308.966C626.231 308.565 625.774 308.364 625.148 308.364ZM631.399 315H630.167V304.36H631.399V315Z" fill="#1B77AF"/>
<rect x="573.5" y="292.5" width="75" height="35" rx="1.5" stroke="#1B77AF"/>
<rect x="657" y="292" width="75" height="36" rx="2" fill="#DA291C"/>
<path d="M682.366 309.904C682.366 311.593 681.904 312.867 680.98 313.726C680.065 314.575 678.787 315 677.144 315H674.358V305.004H677.438C678.437 305.004 679.305 305.191 680.042 305.564C680.789 305.937 681.363 306.488 681.764 307.216C682.165 307.944 682.366 308.84 682.366 309.904ZM681.036 309.946C681.036 308.611 680.705 307.636 680.042 307.02C679.389 306.395 678.46 306.082 677.256 306.082H675.618V313.922H676.976C679.683 313.922 681.036 312.597 681.036 309.946ZM687.315 307.356C687.949 307.356 688.5 307.496 688.967 307.776C689.433 308.056 689.788 308.453 690.031 308.966C690.283 309.47 690.409 310.063 690.409 310.744V311.486H685.271C685.289 312.335 685.504 312.984 685.915 313.432C686.335 313.871 686.918 314.09 687.665 314.09C688.141 314.09 688.561 314.048 688.925 313.964C689.298 313.871 689.681 313.74 690.073 313.572V314.65C689.69 314.818 689.312 314.939 688.939 315.014C688.565 315.098 688.122 315.14 687.609 315.14C686.89 315.14 686.26 314.995 685.719 314.706C685.177 314.417 684.753 313.987 684.445 313.418C684.146 312.849 683.997 312.144 683.997 311.304C683.997 310.483 684.132 309.778 684.403 309.19C684.683 308.602 685.07 308.149 685.565 307.832C686.069 307.515 686.652 307.356 687.315 307.356ZM687.301 308.364C686.713 308.364 686.246 308.555 685.901 308.938C685.565 309.311 685.364 309.834 685.299 310.506H689.121C689.111 309.871 688.962 309.358 688.673 308.966C688.383 308.565 687.926 308.364 687.301 308.364ZM693.551 315H692.319V304.36H693.551V315ZM698.826 307.356C699.461 307.356 700.012 307.496 700.478 307.776C700.945 308.056 701.3 308.453 701.542 308.966C701.794 309.47 701.92 310.063 701.92 310.744V311.486H696.782C696.801 312.335 697.016 312.984 697.426 313.432C697.846 313.871 698.43 314.09 699.176 314.09C699.652 314.09 700.072 314.048 700.436 313.964C700.81 313.871 701.192 313.74 701.584 313.572V314.65C701.202 314.818 700.824 314.939 700.45 315.014C700.077 315.098 699.634 315.14 699.12 315.14C698.402 315.14 697.772 314.995 697.23 314.706C696.689 314.417 696.264 313.987 695.956 313.418C695.658 312.849 695.508 312.144 695.508 311.304C695.508 310.483 695.644 309.778 695.914 309.19C696.194 308.602 696.582 308.149 697.076 307.832C697.58 307.515 698.164 307.356 698.826 307.356ZM698.812 308.364C698.224 308.364 697.758 308.555 697.412 308.938C697.076 309.311 696.876 309.834 696.81 310.506H700.632C700.623 309.871 700.474 309.358 700.184 308.966C699.895 308.565 699.438 308.364 698.812 308.364ZM706.337 314.132C706.523 314.132 706.715 314.118 706.911 314.09C707.107 314.062 707.265 314.025 707.387 313.978V314.916C707.256 314.981 707.069 315.033 706.827 315.07C706.584 315.117 706.351 315.14 706.127 315.14C705.735 315.14 705.371 315.075 705.035 314.944C704.708 314.804 704.442 314.566 704.237 314.23C704.031 313.894 703.929 313.423 703.929 312.816V308.448H702.865V307.86L703.943 307.37L704.433 305.774H705.161V307.496H707.331V308.448H705.161V312.788C705.161 313.245 705.268 313.586 705.483 313.81C705.707 314.025 705.991 314.132 706.337 314.132ZM711.787 307.356C712.422 307.356 712.973 307.496 713.439 307.776C713.906 308.056 714.261 308.453 714.503 308.966C714.755 309.47 714.881 310.063 714.881 310.744V311.486H709.743C709.762 312.335 709.977 312.984 710.387 313.432C710.807 313.871 711.391 314.09 712.137 314.09C712.613 314.09 713.033 314.048 713.397 313.964C713.771 313.871 714.153 313.74 714.545 313.572V314.65C714.163 314.818 713.785 314.939 713.411 315.014C713.038 315.098 712.595 315.14 712.081 315.14C711.363 315.14 710.733 314.995 710.191 314.706C709.65 314.417 709.225 313.987 708.917 313.418C708.619 312.849 708.469 312.144 708.469 311.304C708.469 310.483 708.605 309.778 708.875 309.19C709.155 308.602 709.543 308.149 710.037 307.832C710.541 307.515 711.125 307.356 711.787 307.356ZM711.773 308.364C711.185 308.364 710.719 308.555 710.373 308.938C710.037 309.311 709.837 309.834 709.771 310.506H713.593C713.584 309.871 713.435 309.358 713.145 308.966C712.856 308.565 712.399 308.364 711.773 308.364Z" fill="white"/>
</g>
<rect x="195.5" y="39.5" width="561" height="305" rx="4.5" stroke="black" stroke-opacity="0.15"/>
</g>
<defs>
<filter id="filter0_d_8803_359722" x="179" y="31" width="594" height="338" filterUnits="userSpaceOnUse" color-interpolation-filters="sRGB">
<feFlood flood-opacity="0" result="BackgroundImageFix"/>
<feColorMatrix in="SourceAlpha" type="matrix" values="0 0 0 0 0 0 0 0 0 0 0 0 0 0 0 0 0 0 127 0" result="hardAlpha"/>
<feOffset dy="8"/>
<feGaussianBlur stdDeviation="8"/>
<feColorMatrix type="matrix" values="0 0 0 0 0 0 0 0 0 0 0 0 0 0 0 0 0 0 0.25 0"/>
<feBlend mode="normal" in2="BackgroundImageFix" result="effect1_dropShadow_8803_359722"/>
<feBlend mode="normal" in="SourceGraphic" in2="effect1_dropShadow_8803_359722" result="shape"/>
</filter>
<clipPath id="clip0_8803_359722">
<rect width="159" height="36" fill="white" transform="translate(573 292)"/>
</clipPath>
</defs>
</svg>
