<svg width="952" height="386" viewBox="0 0 952 386" fill="none" xmlns="http://www.w3.org/2000/svg">
<rect width="952" height="386" fill="#C9C9C9"/>
<g filter="url(#filter0_d_8803_359748)">
<rect x="196" y="40" width="560" height="306" rx="4" fill="white"/>
<path d="M716.703 64.017L721.297 59.4227C721.503 59.217 721.503 58.8742 721.297 58.6684C721.091 58.4627 720.748 58.4627 720.543 58.6684L716.017 63.2627L711.423 58.6684C711.217 58.4627 710.874 58.4627 710.668 58.6684C710.463 58.8742 710.463 59.217 710.668 59.4227L715.263 64.017L710.668 68.6113C710.463 68.817 710.463 69.1599 710.668 69.3656C710.737 69.4342 710.874 69.5027 711.011 69.5027C711.148 69.5027 711.286 69.4342 711.354 69.3656L716.017 64.7027L720.611 69.297C720.68 69.3656 720.817 69.4342 720.954 69.4342C721.091 69.4342 721.228 69.3656 721.297 69.297C721.503 69.0913 721.503 68.7484 721.297 68.5427L716.703 64.017Z" fill="black"/>
<path d="M463.165 101H461.455V88.935H457.218V87.434H467.383V88.935H463.165V101ZM470.055 86.997C470.309 86.997 470.53 87.0857 470.72 87.263C470.923 87.4277 471.024 87.6937 471.024 88.061C471.024 88.4283 470.923 88.7007 470.72 88.878C470.53 89.0427 470.309 89.125 470.055 89.125C469.777 89.125 469.542 89.0427 469.352 88.878C469.162 88.7007 469.067 88.4283 469.067 88.061C469.067 87.6937 469.162 87.4277 469.352 87.263C469.542 87.0857 469.777 86.997 470.055 86.997ZM470.872 90.816V101H469.2V90.816H470.872ZM477.5 99.822C477.753 99.822 478.013 99.803 478.279 99.765C478.545 99.727 478.76 99.6763 478.925 99.613V100.886C478.748 100.975 478.494 101.044 478.165 101.095C477.836 101.158 477.519 101.19 477.215 101.19C476.683 101.19 476.189 101.101 475.733 100.924C475.29 100.734 474.929 100.411 474.65 99.955C474.371 99.499 474.232 98.8593 474.232 98.036V92.108H472.788V91.31L474.251 90.645L474.916 88.479H475.904V90.816H478.849V92.108H475.904V97.998C475.904 98.6187 476.05 99.081 476.341 99.385C476.645 99.6763 477.031 99.822 477.5 99.822ZM482.636 101H480.964V86.56H482.636V101ZM489.796 90.626C490.657 90.626 491.404 90.816 492.038 91.196C492.671 91.576 493.152 92.1143 493.482 92.811C493.824 93.495 493.995 94.2993 493.995 95.224V96.231H487.022C487.047 97.3837 487.338 98.264 487.896 98.872C488.466 99.4673 489.257 99.765 490.271 99.765C490.917 99.765 491.487 99.708 491.981 99.594C492.487 99.4673 493.007 99.29 493.539 99.062V100.525C493.019 100.753 492.506 100.918 492 101.019C491.493 101.133 490.891 101.19 490.195 101.19C489.219 101.19 488.364 100.994 487.63 100.601C486.895 100.208 486.319 99.6257 485.901 98.853C485.495 98.0803 485.293 97.124 485.293 95.984C485.293 94.8693 485.476 93.913 485.844 93.115C486.224 92.317 486.749 91.7027 487.421 91.272C488.105 90.8413 488.896 90.626 489.796 90.626ZM489.777 91.994C488.979 91.994 488.345 92.2537 487.877 92.773C487.421 93.2797 487.148 93.989 487.06 94.901H492.247C492.234 94.0397 492.031 93.343 491.639 92.811C491.246 92.2663 490.625 91.994 489.777 91.994Z" fill="black"/>
<rect x="220" y="120" width="512" height="16" rx="1" fill="#DDDDDD"/>
<rect x="220" y="152" width="512" height="16" rx="1" fill="#DDDDDD"/>
<rect x="220" y="184" width="512" height="16" rx="1" fill="#DDDDDD"/>
<rect x="220" y="216" width="512" height="16" rx="1" fill="#DDDDDD"/>
<rect x="220" y="248" width="512" height="16" rx="1" fill="#DDDDDD"/>
<rect x="220" y="280" width="321" height="16" rx="1" fill="#DDDDDD"/>
<rect x="195.5" y="39.5" width="561" height="307" rx="4.5" stroke="black" stroke-opacity="0.15"/>
</g>
<defs>
<filter id="filter0_d_8803_359748" x="179" y="31" width="594" height="340" filterUnits="userSpaceOnUse" color-interpolation-filters="sRGB">
<feFlood flood-opacity="0" result="BackgroundImageFix"/>
<feColorMatrix in="SourceAlpha" type="matrix" values="0 0 0 0 0 0 0 0 0 0 0 0 0 0 0 0 0 0 127 0" result="hardAlpha"/>
<feOffset dy="8"/>
<feGaussianBlur stdDeviation="8"/>
<feColorMatrix type="matrix" values="0 0 0 0 0 0 0 0 0 0 0 0 0 0 0 0 0 0 0.25 0"/>
<feBlend mode="normal" in2="BackgroundImageFix" result="effect1_dropShadow_8803_359748"/>
<feBlend mode="normal" in="SourceGraphic" in2="effect1_dropShadow_8803_359748" result="shape"/>
</filter>
</defs>
</svg>
